<svg xmlns="http://www.w3.org/2000/svg" viewBox="35.62761 324.4736099999993 79.37000000000009 135.3500000000007" width="79.37000000000009" height="135.3500000000007">
            <path 
                d="m 36.21761,459.46361 0,0 -0.59,0.36 0.25,-2.24 0.08,-0.38 0.13,-0.09 0.16,0.41 0.13,1.36 -0.16,0.58 z m 9.13,-24.19 0,0 -0.42,0.39 -0.43,-0.03 0.32,-0.39 0.21,-0.51 0.3,-0.48 0.6,-0.28 0,0.18 -0.24,0.54 -0.34,0.58 z m 32.4,-28.29 0,0 -0.76,0.15 -0.89,-0.24 -0.68,-0.38 0,-0.21 0.59,-0.43 0.43,-0.59 0.61,-1.28 0.79,-1.14 0.48,-0.45 0.14,0.42 0,0 0.06,0.48 0.28,0.81 0.06,0.38 -0.12,0.4 -0.54,0.91 -0.45,1.17 z m -11.6,-1.31 0,0 -0.22,0 0,-0.23 0.43,-0.76 -0.24,-1.1 -0.79,-1.9 0.21,-0.96 0.82,-0.54 1.05,-0.47 0.95,-0.77 0.32,-0.51 0.44,-0.99 0.23,-0.39 0.9,-0.87 1.84,-2.24 0.92,-0.73 0.56,0.73 0.16,1.53 -0.38,1.53 -0.73,1.44 -1.48,1.9 -0.29,0.25 -0.48,0.23 -1.6,0.53 -0.44,0.28 -0.18,0.15 0,0.25 0.03,0.28 -0.02,0.2 -0.3,0.38 -0.64,0.53 -0.29,0.37 0.12,0.47 -0.23,0.48 -0.67,0.93 z m 23.19,-79.98 0,0 1.85,2.41 0.37,0.5 0.31,0.28 0.13,0.29 0.73,0.62 1.28,1.51 0.17,0.15 0.47,0.32 0.17,0.17 0.15,0.33 0.2,0.77 0.15,0.28 0.11,0.3 -0.02,0.68 0.11,0.3 0.16,0.28 1.13,3.19 0.12,1.14 -0.28,1.22 0.7,0.57 0.54,0.54 0.1,0.21 0.01,0.24 -0.04,0.12 -0.12,0.78 0,1.25 -0.11,0.46 -0.55,0.62 -0.37,0.38 -0.02,0.61 0.25,1.37 0.45,1.24 0.56,0.95 0.29,0.31 0.42,0.35 0.49,0.28 0.52,0.11 0.43,0.22 0.48,0.26 2,0.75 0.68,0.46 0.62,0.78 1.57,2.45 -0.34,1.39 -0.86,1.77 -0.19,0.59 -0.26,1.25 0.03,0.88 0.44,2.02 0.53,0.4 0.18,0.2 0.12,0.29 0.16,0.3 0.29,0.34 0.61,0.46 0.73,0.73 0.24,0.39 0.27,0.62 0.47,0.81 0.39,0.39 0.23,0.42 0,0.58 0.02,0.26 -0.02,0.28 0.07,0.25 0.22,0.37 0.61,0.59 0.6,0.76 0.1,0.85 -0.63,1.22 -0.08,0 -0.02,0.14 -0.21,0.56 0,0.73 0.29,0.68 0.49,0.84 0.21,0.85 -0.18,1.18 -0.41,1.01 -0.32,0.34 -0.41,0.23 0.33,0.61 0.13,0.11 0.13,0.28 0.06,0.19 -0.07,1.27 0.16,0.29 0.04,0.14 0.04,0.18 -0.11,0.24 -0.22,0.31 -1.04,1.03 -0.14,0.21 -0.16,0.47 0.27,0.3 0.51,0.27 0.12,0.19 0.06,0.15 0.04,0.43 0.5,0.54 0.62,0.36 0.2,0.07 0.58,0.13 1.49,0.02 0.28,0.08 0.17,0.08 0.29,0.33 0.31,0.14 0.01,0.01 1.45,1.31 0.03,0.77 -1.43,1.65 -1.15,1.03 -0.53,0.2 -0.58,-0.08 -0.02,-0.22 0.21,-0.4 0.08,-0.56 -0.52,0.45 -0.34,0.54 -0.42,0.42 -0.74,0.08 0.1,-0.26 0.11,-0.81 -2.12,2.09 -0.6,0.95 -0.62,0.13 -0.62,-0.14 -0.29,-0.4 -0.03,-0.5 -0.11,-0.62 -0.19,-0.55 -0.29,-0.31 0.22,2.93 -0.21,0.64 -0.83,1.24 -0.19,0.54 0,1.47 -0.09,0.38 -0.67,1.19 -4.17,4.46 -1.82,1.32 -0.87,0.83 -0.48,0.33 -0.57,0.2 -0.66,0.04 -1.87,-0.25 -0.48,-0.14 -0.19,-0.38 -0.16,-3.01 0.23,-0.26 0.35,-0.17 0.31,-0.43 0.15,-0.54 -0.11,-0.51 0.72,-0.65 0.48,-0.9 0.28,-1.02 0.15,-1.01 -0.02,-0.65 -0.15,-0.49 -0.44,-0.97 -0.09,-0.57 0.12,-0.37 0.21,-0.38 0.14,-0.59 -0.18,0 -0.22,0.3 -0.29,0.27 -0.23,0.31 -0.08,0.38 0.12,0.5 0.41,0.93 0.09,0.59 -0.08,1.38 -0.12,0.39 -0.88,1.13 -0.44,1.35 -0.66,0.81 -0.68,0.26 -0.38,-0.79 0.22,-0.65 0.49,-0.79 0.39,-0.91 -0.09,-1.02 -1,1.64 -0.44,0.97 -0.19,1.05 0.2,2.28 -0.34,0.72 -1.16,0.27 -0.85,-0.35 -0.56,-0.87 -0.28,-1.16 -0.03,-1.18 0.66,-3.46 -0.26,-0.98 -0.62,1.68 -0.3,-1.26 0.37,-1.3 0.82,-1.01 1.05,-0.41 0.99,0.06 0.31,-0.06 0.24,-0.19 -0.1,-0.13 -0.3,-0.08 -0.34,-0.02 -0.21,-0.06 -0.14,-0.29 -0.15,-0.07 -0.15,0.03 -0.46,0.16 -0.22,0.03 -0.2,0.06 -0.19,-0.09 -0.19,-0.42 -0.21,0 -0.21,0.52 -0.81,1.16 -0.7,0.58 -0.07,0.81 0.17,1.56 -0.03,0.83 -0.52,3.81 -0.24,0.74 -0.38,0.5 -0.3,0.11 -0.41,0.09 -0.37,0.12 -0.15,0.21 -0.06,0.22 -0.12,0.24 -0.16,0.2 -0.15,0.08 -0.76,0.05 -0.36,-0.05 -1.01,-0.41 -1.32,-0.15 -0.35,-0.25 0.35,-0.55 0.31,-0.21 0.33,-0.15 0.29,-0.2 0.19,-0.38 -0.01,-0.25 -0.1,-0.28 -0.16,-0.23 -0.15,-0.09 -0.55,0.7 -0.31,0.12 -0.14,-0.72 0.05,-0.97 -0.05,-0.39 -0.37,-0.87 -0.04,-0.39 0.15,-0.39 0.31,-0.49 0.37,-0.42 0.29,-0.18 0.5,-0.06 0.52,-0.2 0.4,-0.38 0.1,-0.62 -1.03,0.65 -0.14,-0.57 -0.13,-1.35 -0.49,-0.99 -0.01,-0.47 0.16,-0.44 0.55,-0.88 0.38,-0.4 0.51,-0.27 0.69,-0.09 0.54,-0.17 0.47,-0.41 0.35,-0.55 0.16,-0.57 -0.13,0.2 -0.39,0.39 -0.08,0.16 -0.15,0.18 -0.71,0.13 -0.54,0.23 -0.65,-0.03 -0.28,0.12 -0.72,0.98 -0.08,0.15 -0.33,0.27 -0.15,0.63 -0.03,1.33 0.06,0.33 0.27,0.62 0.07,0.3 0.06,0.18 0.1,0.14 0.05,0.13 -0.38,0.69 -0.03,0.14 -0.27,0.43 -1.75,1.16 -0.37,0.57 -0.85,1.92 -0.3,0.38 -0.41,0.36 -0.51,0.25 -0.59,0.05 -0.75,-0.23 -0.28,-0.44 -0.13,-0.56 -0.27,-0.65 -0.08,0.57 -0.31,-0.06 -0.36,-0.41 -0.26,-0.5 0.81,-0.55 1.09,-0.57 1.1,-0.75 0.86,-1.08 0.28,-1.53 0.22,-0.25 0.26,-0.24 0.23,-0.3 0.12,-0.28 0.06,-0.27 0.02,-0.61 0.12,-0.12 0.25,-0.15 0.22,-0.25 0.03,-0.43 -0.54,0.32 -0.27,0.37 -0.41,0.98 -0.79,1.34 -0.22,0.59 -0.37,0.73 -0.48,0.41 -0.52,0.33 -1.67,1.62 -0.74,0.37 -0.68,-0.12 -0.13,-0.8 0.78,-1.06 1.58,-1.48 0.62,-1.09 0.46,-1.26 0.23,-1.36 -0.08,-1.34 -0.45,-0.97 -0.1,-0.52 0.24,-0.52 0.35,-0.53 0.58,-1.88 0.17,-0.22 0.29,-0.06 0.34,0.05 0,-0.21 -0.31,-0.34 -0.47,-2.91 0.02,-0.35 0.13,-0.39 0.19,-0.18 0.24,-0.06 0.18,-0.16 0.02,-0.44 -1.03,0.5 -0.39,-0.08 -0.21,-0.65 -0.2,0.69 0.41,2.69 0,1.78 -0.16,0.48 -0.69,0.79 -0.16,0.43 -0.18,0.78 -0.46,0.71 -0.63,0.53 -0.67,0.2 -0.06,-0.21 0.32,-0.49 0.66,-0.81 0.6,-1.25 -0.17,-0.55 -0.34,0.07 -0.34,0.49 -0.23,0.99 -0.19,0.32 -0.26,0.26 -0.28,0.11 -0.36,-0.07 -0.23,-0.19 -0.19,-0.21 -0.23,-0.16 -0.55,-0.11 -0.16,0.25 0.09,1.23 -0.04,0.71 -0.13,0.58 -0.18,0.48 -1.51,2.58 -0.81,0.96 -0.93,0.47 -0.62,0.09 -0.44,0.21 -0.28,0.45 -0.09,0.84 -0.24,0.33 -0.55,0.19 -0.61,0.01 -0.41,-0.24 -0.62,0.69 -0.42,0.2 -0.35,-0.24 -0.74,-1.18 -0.14,-0.43 -0.01,-0.48 0.17,-3.47 0.67,-3.55 -0.07,-2.31 0.08,-0.37 0.1,-0.17 0.37,-0.41 0.13,-0.24 0.43,-2.44 -0.14,-1.87 0.14,-0.33 1.04,0.32 0.67,-0.03 0.3,-0.6 0.22,-0.92 -0.08,-0.44 -0.54,-0.24 0,-0.19 0.72,-0.37 0.29,-0.52 0.01,-1.55 0.06,-0.47 0.26,-0.87 0.07,-0.35 0.12,-0.45 0.55,-0.63 0.13,-0.38 -0.06,-1.31 -0.12,-0.49 -0.39,-0.78 -0.13,-0.46 0.1,-0.44 0.24,-0.17 0.3,0.07 0.33,0.11 0.33,-0.01 0.36,-0.28 0.87,-1.22 -0.6,0 0.28,-0.48 0.11,-0.54 -0.03,-2.09 0.03,-0.27 0.12,-0.31 0.49,-0.73 0.17,-0.39 0.14,-0.57 -0.1,-0.52 -0.82,-0.39 -0.15,-0.38 0.05,-0.43 0.31,-0.28 1.36,0.62 0.23,-0.11 0.11,-0.16 0.23,-0.13 0.22,-0.17 0.06,-0.28 -0.14,-0.26 -0.25,-0.14 -0.26,-0.09 -0.17,-0.15 -0.1,-0.4 0.1,-1.39 0.2,-0.4 0.43,-0.06 0.35,-0.18 0.03,-0.73 0.39,0.1 0.38,0.17 0.36,0.24 0.29,0.34 -0.52,-2.04 -0.27,-3.23 0,0 0.01,0 2.01,1.44 0.58,0.28 0.7,0.07 0.48,0.11 0.56,0.39 0.44,0.45 0.2,0.14 0.22,0.09 0.3,-0.15 0.99,-1.8 0.34,-1.1 0.08,-2.32 0.15,-1.14 0,-0.9 0.07,-0.54 0.25,-0.54 1.5,-1.72 0.41,-1.02 0.19,-1.66 0.37,-0.99 0.03,-0.56 0,-0.53 -0.81,-1.47 -0.26,-0.4 -0.1,-0.2 -0.11,-0.32 -0.04,-0.45 0.01,-0.47 0.5,-1.28 -0.04,-3.18 0.52,-2.45 -0.05,-1.74 -0.32,-1.27 -1.25,-2.49 0,0 0.48,-0.39 0.92,-0.77 0.78,-0.52 0.73,-0.2 0.88,0.2 0.73,0.57 0.64,0.67 0.78,0.36 0.78,0 0.58,-0.52 0.24,-0.56 0.25,-0.77 0,-0.72 0.24,-0.47 0.59,-0.36 0.53,-0.05 0.19,0 0.28,0.22 0.48,0.51 0.52,0.49 z" 
                fill="rgb(151, 144, 238)" 
                stroke="white" 
                stroke-width=".7px"
                title="Ayeyarwady" 
                id="MM-07" 
            />
        </svg>