<svg xmlns="http://www.w3.org/2000/svg" viewBox="85.38760999999984 292.8736100000007 64.00000000000004 80.50999999999965" width="64.00000000000004" height="80.50999999999965">
            <path 
                d="m 121.39761,293.28361 0,0 0.2,-0.01 0.45,-0.08 0.76,-0.03 1.96,0.18 0.45,0.61 0.13,0.15 0.15,0.23 0.04,0.23 -0.05,0.3 -0.06,0.21 -0.01,0.22 0.07,0.25 0.22,0.4 0.2,0.24 0.19,0.18 0.33,0.22 0.15,0.14 0.1,0.23 0.06,0.32 -0.02,0.55 -0.12,0.56 0.05,0.18 0.19,0.19 0.18,0.23 0.15,0.31 0.18,0.49 0.15,0.27 0.15,0.18 0.1,0.09 0.1,0.23 0.12,0.34 0.17,0.73 0.15,0.27 0.16,0.18 0.17,0.07 0.18,0.09 0.08,0.17 -0.01,0.22 -0.55,0.58 -0.38,0.25 -0.12,0.13 -0.03,0.07 0.13,0.47 0.24,0.1 0.08,0.16 0.08,0.3 0.03,0.22 0.12,0.3 0.18,0.32 0.61,0.86 1.13,1.11 0.94,0.7 0.89,0.8 0.13,0.16 0.12,0.18 0.17,0.42 0.1,0.16 0.29,0.25 0.1,0.15 0.06,0.14 -0.17,0.38 -1.13,0.77 -0.39,0.28 -0.24,0.28 -0.13,0.32 0.07,0.42 0.3,0.52 0.4,0.58 0.07,0.44 -0.78,0.9 -0.03,0.53 0.79,1.45 0.37,1.05 0.2,0.44 0.52,0.61 0.08,0.17 0.13,0.42 0.1,0.18 0.16,0.12 0.21,0.02 0.36,-0.21 0.2,-0.18 0.19,-0.15 0.18,-0.07 0.2,0 0.27,0.1 0.38,0.25 0.23,0.1 0.3,0.08 0.48,0.06 0.47,0.18 0.24,-0.03 0.32,-0.13 1.47,-0.82 1.42,-0.45 0.27,0.01 0.16,0.06 0.15,0.14 0.1,0.19 0.04,0.24 0.06,0.18 0.35,0.26 0.17,0.17 0.12,0.22 0.12,0.31 0.03,0.32 -0.02,0.24 0.01,0.23 0.18,0.75 0.01,0.6 -0.24,1.04 -0.01,0.2 0.01,0.16 -0.02,0.3 -0.05,0.2 -0.07,0.2 -0.18,0.39 0.02,0.32 0.16,0.41 0.41,0.74 0.24,0.35 0.23,0.24 0.33,0.19 0.5,0.2 0.18,0.1 0.15,0.13 0.43,0.44 0.12,0.18 0.02,0.26 -0.05,0.45 0.01,0.17 0.1,0.19 0.15,0.18 0.28,0.13 0.19,-0.03 0.13,-0.13 0.1,-0.29 0.07,-0.17 0.14,-0.14 0.16,-0.11 0.19,-0.04 0.22,0.13 0.2,0.3 0.25,0.77 0.11,0.57 0.01,0.82 -0.06,0.37 0.01,0.49 0.45,0.55 1.14,0.83 0.15,0.14 0.13,0.15 0.06,0.24 0,0.29 -0.12,0.4 -0.25,0.46 -0.06,0.19 -0.03,0.15 -0.05,0.74 -0.07,0.24 -0.34,0.8 -0.13,0.16 -0.13,0.14 -0.09,0.17 -0.12,0.36 -0.1,0.16 -0.11,0.14 -0.25,0.24 -0.11,0.15 -0.11,0.17 -0.15,0.37 0,0.23 0.06,0.3 1.28,2.7 0.07,0.21 0.03,0.25 -0.01,0.28 0.13,0.24 0.16,0.11 0.18,0.08 0.15,0.11 0.09,0.26 0.03,0.38 -0.08,0.67 -0.16,0.6 -0.07,0.17 -0.37,0.49 -0.09,0.19 0.04,0.46 0.17,0.65 0.97,2.52 -0.04,1.21 -0.04,0.14 -0.06,0.18 0,0.37 0.62,0.43 -0.12,0.37 -0.39,0.34 -0.5,0.36 -1.68,0.77 -0.6,0.13 -0.09,-0.04 -0.11,-0.07 -0.1,-0.4 -0.02,-0.04 -0.03,-0.12 -0.01,-0.11 0,-0.33 -0.11,-0.34 -0.19,-0.24 -0.41,-0.38 -0.23,-0.13 -0.18,-0.08 -0.3,-0.05 -0.53,-0.21 -0.17,-0.09 -0.11,-0.1 -0.65,-0.89 -0.17,-0.16 -0.13,-0.08 -0.07,0.01 -0.35,-0.06 -0.43,-0.17 -0.23,-0.06 -0.17,-0.01 -0.09,0.05 -0.08,0.07 -0.08,0.06 -0.1,0.04 -0.12,0.01 -0.39,-0.02 -0.32,-0.09 -0.11,0 -0.22,0.07 -0.26,0.11 -0.27,0.11 -0.21,1.03 -0.02,3.47 0,0 -0.34,0.48 -0.24,1.19 -0.22,0.46 -0.11,-0.18 -0.23,-0.26 -0.07,-0.2 -0.18,0.09 -0.18,0.12 -0.14,0.12 -0.1,0.11 0.2,0.2 0.67,0.89 0.99,0.64 0.76,0.67 0.01,1 -0.6,0.73 -0.74,0.64 -0.47,0.84 0.19,1.37 1.16,2.07 0.44,1.07 0.02,1.3 -0.17,0.44 -0.54,0.96 -0.23,1.37 -0.31,0.2 -0.98,-0.24 0.09,0.3 0.13,0.27 0.17,0.26 0.22,0.25 -0.39,-0.04 -0.64,-0.16 -0.38,-0.03 0,0.23 0.4,0.21 0.16,0.12 -0.43,-0.15 -1.08,-0.96 -0.94,-1.08 -0.23,-0.19 -0.26,-0.14 -0.38,-0.13 -1.59,-0.31 -2.56,-0.22 -3.81,0.26 -1.47,-0.13 -0.09,-0.77 0.15,-1.4 -0.02,-0.41 -0.25,-1.16 -0.34,-0.74 -0.57,-0.89 -0.42,-0.53 -0.22,-0.36 -0.18,-0.42 -1.03,-4.58 -0.22,-0.51 -5.34,-9.28 -0.92,-2.21 -0.21,-0.32 -0.18,-0.14 -0.27,-0.1 -0.34,0.1 -0.37,0.28 -0.76,0.94 -0.38,0.58 -0.35,0.32 -0.49,0.37 -1.7,0.93 -0.37,0.42 -0.74,1.39 -0.48,0.61 -0.97,0.77 -0.67,0.34 -0.57,0.6 -0.79,1.58 -1.57,-2.45 -0.62,-0.78 -0.68,-0.46 -2,-0.75 -0.48,-0.26 -0.43,-0.22 -0.52,-0.11 -0.49,-0.28 -0.42,-0.35 -0.29,-0.31 -0.56,-0.95 -0.45,-1.24 -0.25,-1.37 0.02,-0.61 0.37,-0.38 0.55,-0.62 0.11,-0.46 0,-1.25 0.12,-0.78 0.04,-0.12 -0.01,-0.24 -0.1,-0.21 -0.54,-0.54 -0.7,-0.57 0.28,-1.22 -0.12,-1.14 -1.13,-3.19 -0.16,-0.28 -0.11,-0.3 0.02,-0.68 -0.11,-0.3 -0.15,-0.28 -0.2,-0.77 -0.15,-0.33 -0.17,-0.17 -0.47,-0.32 -0.17,-0.15 -1.28,-1.51 -0.73,-0.62 -0.13,-0.29 -0.31,-0.28 -0.37,-0.5 -1.85,-2.41 -0.52,-0.49 -0.48,-0.51 -0.28,-0.22 -2.04,-1.58 -0.5,-0.67 -0.13,-0.56 0.1,-0.56 0.21,-0.67 0.07,-1.37 0.12,-0.68 0.45,-0.38 0.12,-0.44 0.07,-0.13 0.13,-0.02 0.33,0.04 0.14,-0.02 0.91,-0.41 0.3,-0.19 0.67,-0.64 0.55,-0.95 0.25,-1.17 -0.26,-1.33 -0.32,-0.55 -0.26,-0.28 -0.02,-0.42 0.04,-0.15 0.1,-0.24 0.74,-0.68 1.52,-0.96 0.4,-0.35 0.19,-0.4 0.09,-0.26 0.04,-0.24 0.02,-1.27 0.49,-0.65 2.16,-0.42 1.55,-1.92 0.91,-0.47 1.78,-0.54 0.62,-0.09 1.75,0.06 3.9,-0.57 0.88,0 0.42,0.05 0.25,0.06 0.77,0.48 0.19,-0.11 0.06,-0.05 0.06,-0.09 0.04,-0.11 0.01,-0.12 0,-0.75 0.02,-0.2 0.03,-0.15 0.05,-0.1 0.13,-0.15 0.38,-0.33 0.08,-0.09 0.04,-0.15 0.15,-1.15 -0.01,-0.85 -0.05,-0.52 -0.07,-0.29 -0.19,-0.35 -0.69,-0.95 -0.06,-0.2 -0.06,-0.28 -0.04,-0.52 -0.22,-0.94 -0.3,-0.58 0,-0.36 0.83,0.18 0.29,0.15 0.08,0.06 0.17,0.11 0.2,0.09 0.18,0.02 0.73,-0.05 0.27,-0.17 0.12,-0.14 0.02,-0.24 0.04,-0.09 0.06,-0.09 0.07,-0.07 0.09,-0.06 0.19,-0.09 0.61,-0.09 0.17,-0.05 0.18,-0.02 0.18,0.01 0.32,0.09 0.32,0.12 0.09,0.05 0.41,0.16 0.09,0.06 0.26,0.19 0.27,0.13 0.32,0.1 1.23,0.17 0.17,0.06 0.06,0.08 0.06,0.08 0.14,0.15 0.17,0.12 0.18,0.11 0.08,0.06 0.13,0.14 0.08,0.05 0.34,0.12 0.15,-0.01 0.18,-0.05 0.27,-0.19 0.29,-0.33 0.09,-0.05 0.5,-0.23 0.09,-0.12 0.05,-0.13 0.07,-0.36 0.08,-0.21 0.04,-0.1 0.06,-0.23 0.05,-0.1 0.07,-0.06 0.12,0 0.19,0.1 0.26,0.05 1.68,0.04 0.49,0.12 0.17,0.08 0.18,0.02 z" 
                fill="rgb(151, 144, 238)" 
                stroke="white" 
                stroke-width=".7px"
                title="Bago" 
                id="MM-02" 
            />
        </svg>