<svg xmlns="http://www.w3.org/2000/svg" viewBox="124.76761000000032 292.5336099999995 73.8199999999997 132.12000000000018" width="73.8199999999997" height="132.12000000000018">
            <path 
                d="m 137.76761,299.01361 0,0 -0.11,0.88 0.07,0.36 0.25,0.6 0.08,0.15 0.25,0.68 0.07,0.64 0.09,0.28 0.08,0.17 0.3,0.13 0.1,0.06 0.22,0.19 0.1,0.04 0.11,0.03 0.13,0.01 0.22,0.14 0.26,0.25 0.5,0.71 0.18,0.39 0.1,0.36 0.07,0.19 0.11,0.17 0.2,0.25 0.08,0.16 0.01,0.14 -0.06,0.32 0.1,0.76 0.18,0.61 -0.02,0.21 0.02,0.54 0.09,0.36 0.23,0.61 0.22,0.44 0.27,0.3 0.21,0.19 0.38,0.45 0.06,0.17 0.01,0.14 -0.09,0.22 -0.07,0.36 0.02,0.14 0.04,0.11 0.08,0.06 0.09,0.05 0.11,0.04 0.3,0.28 0.66,1.05 0.09,0.63 1.71,3.31 0.24,0.35 0.11,0.02 0.12,0 0.33,-0.07 0.12,0.01 0.93,0.21 1.03,0.08 2.61,-0.06 0.31,0.08 0.14,0.09 0.1,0.09 0.16,0.28 0.14,0.43 0.13,0.27 0.26,0.33 0.11,0.17 0.05,0.1 0.34,1.27 0.38,1.07 0,0 -0.63,-0.08 0.18,0.36 0.63,0.59 0.34,0.59 0.12,0.46 0.68,1.42 0.75,1.18 0.1,0.69 0.01,0.71 0.17,0.76 0.41,0.69 0.59,0.6 0.64,0.49 0.59,0.35 0.28,-0.23 0.12,-0.24 0.55,-1.49 0.06,-0.07 0.33,-0.08 1.5,0.61 0.38,0.22 0.19,0.47 -0.02,0.57 -0.22,0.47 -0.44,0.21 -0.09,0.29 0.33,0.65 1.51,2.11 0.12,0.2 0.03,0.19 0,0.26 0.06,0.37 0.28,0.57 0.07,0.33 -0.04,0.19 -0.12,0.3 -0.03,0.15 0.04,0.27 0.11,0.02 0.13,-0.03 0.12,0.08 0.4,0.19 0.06,0.13 0.1,0.38 0.43,1.04 0.12,0.16 0.09,0.17 0.14,0.36 0.07,0.36 -0.1,0.17 -0.1,0.09 -0.81,0.55 -0.83,1.47 -0.18,0.46 0.4,1.47 -0.68,0.09 0.23,0.43 0.37,0.31 0.29,0.36 0.14,0.42 0.17,0.36 0.71,0.6 0.26,0.32 0.05,0.32 0.01,0.36 0.04,0.39 0.18,0.43 0.28,0.38 4.1,3.84 0.76,0.72 0.44,0.29 0.7,0.33 0.31,0.19 0.26,0.3 0.13,0.46 0.65,1.04 0.31,0.88 0.2,0.42 0.39,0.42 0.4,0.21 0.43,0.15 0.35,0.22 0.18,0.44 -0.02,0.38 -0.11,0.65 0.07,0.4 0.23,0.3 2.52,2.42 0.46,0.26 0.57,0.46 1.04,1.52 0.67,0.46 -0.24,0.27 -0.14,0.35 0.07,0.27 0.76,0.01 0.03,0.23 -0.15,0.28 -0.12,0.11 0.4,0.7 0.4,0.39 0.51,0.16 1.45,0.03 0.59,0.17 0.53,0.35 0.54,0.54 0.31,0.47 0.5,1 0.32,0.41 0.18,0.41 0.01,0.51 0.11,0.45 0.46,0.22 0.27,0.19 0.2,0.42 0.25,0.88 -0.37,-0.27 -0.34,-0.09 -0.24,0.15 -0.07,0.43 0.13,0.37 0.26,0.16 0.29,0.12 0.22,0.25 -0.09,0.34 -0.36,0.38 -0.47,0.31 -0.44,0.12 -0.35,0.51 -0.23,0.59 0.06,0.55 0.87,0.68 0.15,0.35 0.21,0.84 0.41,0.59 1.02,0.71 0.43,0.57 0.12,0.31 0.06,0.28 -0.01,0.28 -0.1,0.33 0.01,0.33 0.18,0.32 1.8,2.41 0.24,0.56 -0.04,0.32 -0.3,0.64 0.04,0.34 0.38,0.89 0.43,2.21 0.19,0.46 0.56,0.4 0.47,-0.35 0.88,-1.33 1.78,-1.42 0.4,-0.73 0.24,-1.27 0.25,-0.49 0.61,-0.52 0.12,1.05 0.55,0.54 0.68,0.45 0.51,0.75 0.02,0.56 -0.29,1.34 -0.14,1.39 -0.15,0.49 -0.82,0.97 -0.37,0.56 -0.19,0.61 -0.06,0.65 0.02,0.71 -0.14,0.28 -0.69,0.77 -0.26,0.18 -0.45,0.06 -0.21,-0.13 -0.17,-0.22 -0.35,-0.16 -1.8,-0.24 -0.52,0.03 -0.62,0.3 -0.24,0.51 -0.19,0.61 -0.41,0.61 -0.32,0.27 -0.23,0.13 -0.25,0.03 -0.38,0 -0.3,-0.09 -0.36,-0.16 -0.35,-0.05 -0.26,0.25 0.09,0.41 0.79,1.14 0.2,0.61 -0.09,0.55 -0.35,1.19 0.02,0.74 0.21,1.29 -0.06,0.55 -0.93,3.09 -0.08,0.71 0.11,1.13 0.05,0.51 -0.06,1.74 0.69,4.56 0.06,1.54 -0.27,1.43 -0.78,0.9 -0.09,-0.66 -0.44,-0.48 -0.6,-0.35 -0.61,-0.27 -0.56,0.3 -0.47,0.19 -1.06,0.23 -0.19,0.13 -0.03,0.25 0.13,0.52 -0.04,0.27 -0.16,0.17 -0.26,0.15 -0.03,0.03 -0.08,0.11 -0.07,0.15 -0.04,0.16 0.08,0.08 0.18,0.11 0.17,0.14 0.08,0.17 0,0.47 -0.07,0.2 -0.21,0.06 -0.44,-0.17 -1.01,-0.62 -0.54,-0.21 -0.67,-0.11 -0.35,0.08 -1.04,1.5 -0.44,0.43 -0.51,0.24 -0.23,-0.01 0,0 0,0 -0.03,-0.28 0.08,-0.64 -0.08,-0.37 -0.29,-0.81 -0.21,-0.42 -0.14,-0.13 -0.6,-0.4 -0.09,-0.05 -0.19,-0.17 -0.26,-0.27 -0.55,-0.75 -0.26,-0.47 -0.23,-0.54 -0.45,-0.75 -0.15,-0.16 -0.32,-0.21 -0.12,-0.17 -0.98,-2.05 -0.09,-0.13 -0.46,-0.45 -0.27,-0.34 -0.15,-0.27 -0.26,-0.61 -0.07,-0.12 -0.07,-0.1 -0.08,-0.08 -0.3,-0.27 -0.32,-0.22 -0.51,-0.45 -0.1,-0.15 -0.04,-0.14 0.01,-0.43 -0.03,-0.22 -0.05,-0.13 -0.07,-0.1 -0.07,-0.06 -0.07,-0.06 -0.25,-0.08 -0.12,-0.03 -0.68,-0.6 -0.84,-0.23 -0.17,-0.29 -0.06,-0.24 0,-0.15 0.02,-0.13 0.08,-0.2 0.04,-0.24 0.04,-0.1 0.06,-0.09 0.17,-0.12 0.08,-0.09 0.05,-0.17 -0.02,-0.11 -0.05,-0.12 -0.22,-0.36 -0.05,-0.21 -0.01,-0.26 -0.03,-0.2 -0.07,-0.15 -0.2,-0.35 -0.01,-0.17 0.02,-0.2 0,-0.13 -0.05,-0.16 -0.39,-0.85 -0.27,-0.45 -0.06,-0.28 -0.12,-1.01 0,-0.54 0.06,-0.1 0.04,-0.16 0.04,-0.24 -0.04,-1 0,-0.12 0.03,-0.1 0.05,-0.09 0.06,-0.07 0.05,-0.09 0.04,-0.13 0.03,-0.14 0,-0.43 0.01,-0.09 0.04,-0.09 0.05,-0.09 0.06,-0.08 0.07,-0.08 0.08,-0.11 0.08,-0.15 0.07,-0.3 0.02,-0.18 -0.02,-0.15 -0.07,-0.11 -0.26,-0.34 -0.09,-0.59 -0.1,-0.25 -0.59,-0.94 -0.11,-0.23 0.05,-0.27 1.25,-0.2 1.64,0 0.24,-0.03 0.14,-0.08 0.88,-0.23 1.23,-0.04 0.23,0.05 0.56,0.41 0.1,0.05 0.1,0.04 0.23,0.05 0.1,0.04 0.28,0.14 0.28,0.09 0.16,0.01 0.11,-0.05 0.12,-0.16 0.09,-0.19 0.07,-0.09 0.09,-0.07 0.12,-0.06 0.22,-0.07 0.12,-0.06 0.39,-0.27 0.34,-0.17 0.11,-0.13 0.05,-0.14 -0.06,-0.59 -0.01,-0.06 -0.04,-0.09 -0.05,-0.08 -0.4,-0.3 -0.44,-0.4 -0.07,-0.08 -0.05,-0.1 -0.08,-0.2 -0.04,-0.09 -0.07,-0.06 -0.09,-0.06 -0.1,-0.04 -0.06,-0.08 -0.03,-0.12 0.06,-0.21 0.01,-0.16 -0.01,-0.14 -0.06,-0.22 -0.03,-0.1 -0.05,-0.09 -0.05,-0.08 -0.07,-0.08 -0.07,-0.07 -0.19,-0.09 -0.09,-0.06 -0.07,-0.07 -0.38,-0.6 -0.28,-0.28 -0.09,-0.06 -0.29,-0.13 -0.23,-0.05 -0.1,-0.04 -0.09,-0.05 -0.08,-0.06 -0.08,-0.07 -0.06,-0.08 -0.04,-0.09 -0.06,-0.22 -0.13,-1.09 -0.18,-0.64 -0.05,-0.36 -0.07,-0.21 -0.05,-0.07 -0.07,-0.04 -0.1,0.01 -0.27,0.13 -0.11,0.03 -0.12,0.02 -0.78,-0.05 -0.22,-0.06 -0.11,-0.03 -0.08,-0.05 -0.09,-0.06 -0.06,-0.08 -0.06,-0.08 -0.05,-0.09 -0.16,-0.54 -0.05,-0.09 -0.12,-0.16 -0.06,-0.08 -0.16,-0.13 -0.17,-0.11 -0.09,-0.04 -0.54,-0.18 -0.09,-0.04 -0.09,-0.06 -0.06,-0.08 -0.04,-0.09 -0.05,-0.22 -0.08,-0.14 -0.11,-0.35 0.12,-0.7 -0.28,-0.08 -1.17,0.53 -0.35,0.08 -0.22,0.01 -0.08,-0.07 -0.95,-0.97 -0.31,-0.23 -0.14,-0.23 -0.18,-0.17 -0.22,-0.14 -0.27,-0.09 -0.27,0.19 0,0 -0.09,-0.68 -0.06,-0.1 -0.09,-0.1 -0.08,0 -0.07,0.01 -0.29,0.09 -0.13,0.03 -0.17,-0.01 -0.28,-0.05 -0.15,-0.1 -0.13,-0.13 -0.42,-0.54 -0.01,-0.1 0.07,-0.17 0.01,-0.13 -0.06,-0.23 -0.08,-0.12 -0.09,-0.08 -0.52,-0.21 -0.57,-0.62 -0.94,-1.23 -0.15,-0.26 -0.06,-0.24 -0.05,-0.48 -0.08,-0.45 0.07,-0.35 -0.03,-0.44 -0.5,-0.62 -0.03,-0.13 -0.02,-0.19 0.03,-0.14 0.02,-0.26 -0.04,-0.13 -0.06,-0.1 -0.33,-0.23 -0.19,-0.2 -0.13,-0.27 -0.13,-0.2 -0.22,-0.27 -0.07,-0.17 -0.01,-0.13 0.07,-0.21 0.02,-0.12 -0.06,-0.62 0.08,-0.37 0.01,-0.25 -0.01,-0.11 -0.04,-0.09 -0.59,-0.74 -0.09,-0.16 -0.06,-0.12 -0.14,-1.04 0.02,-0.26 0.06,-0.15 0.11,-0.01 0.11,0.01 0.11,-0.01 0.1,-0.04 0.07,-0.07 0.07,-0.11 0.06,-0.14 0.05,-0.23 -0.03,-0.17 -0.07,-0.16 -0.12,-0.22 -0.03,-0.15 0.02,-0.12 0.08,-0.06 0.19,-0.08 0.13,-0.09 0.06,-0.04 0.1,-0.18 0.03,-0.17 0.04,-0.12 0.06,-0.1 0.1,-0.04 0.11,-0.04 0.12,-0.07 0.24,-0.42 0.07,-0.19 0,-0.12 -0.04,-0.11 -0.16,-0.27 -0.46,-1.35 0.35,-0.5 0.03,-0.29 -0.08,-0.34 -0.14,-0.39 -0.06,-0.1 -0.24,-0.77 -0.02,-0.21 0.03,-0.16 0.07,-0.08 0.17,-0.16 0.11,-0.13 0.15,-0.26 -0.01,-0.19 -0.06,-0.2 -0.22,-0.51 -0.07,-0.14 -0.07,-0.07 -0.06,-0.07 -0.18,-0.14 -0.06,-0.07 -0.1,-0.16 -0.31,-0.68 -0.13,-0.17 -0.07,-0.07 -0.1,-0.17 -0.32,-1.06 -0.1,-0.65 -0.11,-0.34 -0.09,-0.19 -0.14,-0.2 -0.06,-0.14 -0.01,-0.15 0.38,-1.74 -0.01,-0.15 -0.04,-0.11 -0.06,-0.08 -0.23,-0.2 -0.18,-0.1 -0.3,-0.13 -0.09,-0.05 -0.29,-0.28 -0.13,-0.14 -0.11,-0.18 -0.65,-1.65 -0.06,-0.23 -0.03,-0.17 0.02,-0.12 0.21,-0.64 0.11,-0.19 0.63,-0.47 0.17,-0.26 0.02,-0.12 0,-0.14 -0.04,-0.16 -0.06,-0.09 -0.08,-0.06 -0.09,0.01 -0.07,0.06 -0.09,0.19 -0.07,0.05 -0.1,-0.01 -0.09,-0.03 -0.09,-0.06 -0.09,-0.04 -0.11,-0.03 -0.13,0 -0.14,0.05 -0.09,0.08 -0.04,0.1 -0.03,0.11 0,0.13 0.05,0.35 -0.02,0.11 -0.07,0.07 -0.21,0.13 -0.14,0.12 -0.11,0.13 -0.4,0.73 -0.04,0.11 -0.02,0.12 -0.01,0.12 0,0.12 -0.02,0.14 -0.05,0.19 -0.27,0.55 -0.12,0.11 -0.12,0.03 -0.7,-0.31 -0.12,-0.03 -0.19,0 -0.12,0.04 -0.44,0.54 -0.27,0.16 -0.15,0.12 -0.08,0.1 -0.04,0.11 -0.02,0.11 0,0.28 -0.04,0.18 -0.08,0.07 -0.1,0.02 -0.25,-0.04 -0.62,-0.43 0,-0.37 0.06,-0.18 0.04,-0.14 0.04,-1.21 -0.97,-2.52 -0.17,-0.65 -0.04,-0.46 0.09,-0.19 0.37,-0.49 0.07,-0.17 0.16,-0.6 0.08,-0.67 -0.03,-0.38 -0.09,-0.26 -0.15,-0.11 -0.18,-0.08 -0.16,-0.11 -0.13,-0.24 0.01,-0.28 -0.03,-0.25 -0.07,-0.21 -1.28,-2.7 -0.06,-0.3 0,-0.23 0.15,-0.37 0.11,-0.17 0.11,-0.15 0.25,-0.24 0.11,-0.14 0.1,-0.16 0.12,-0.36 0.09,-0.17 0.13,-0.14 0.13,-0.16 0.34,-0.8 0.07,-0.24 0.05,-0.74 0.03,-0.15 0.06,-0.19 0.25,-0.46 0.12,-0.4 0,-0.29 -0.06,-0.24 -0.13,-0.15 -0.15,-0.14 -1.14,-0.83 -0.45,-0.55 -0.01,-0.49 0.06,-0.37 -0.01,-0.82 -0.11,-0.57 -0.25,-0.77 -0.2,-0.3 -0.22,-0.13 -0.19,0.04 -0.16,0.11 -0.14,0.14 -0.07,0.17 -0.1,0.29 -0.13,0.13 -0.19,0.03 -0.28,-0.13 -0.15,-0.18 -0.1,-0.19 -0.01,-0.17 0.05,-0.45 -0.02,-0.26 -0.12,-0.18 -0.43,-0.44 -0.15,-0.13 -0.18,-0.1 -0.5,-0.2 -0.33,-0.19 -0.23,-0.24 -0.24,-0.35 -0.41,-0.74 -0.16,-0.41 -0.02,-0.32 0.18,-0.39 0.07,-0.2 0.05,-0.2 0.02,-0.3 -0.01,-0.16 0.01,-0.2 0.24,-1.04 -0.01,-0.6 -0.18,-0.75 -0.01,-0.23 0.02,-0.24 -0.03,-0.32 -0.12,-0.31 -0.12,-0.22 -0.17,-0.17 -0.35,-0.26 -0.06,-0.18 -0.04,-0.24 -0.1,-0.19 -0.15,-0.14 -0.16,-0.06 -0.27,-0.01 -1.42,0.45 -1.47,0.82 -0.32,0.13 -0.24,0.03 -0.47,-0.18 -0.48,-0.06 -0.3,-0.08 -0.23,-0.1 -0.38,-0.25 -0.27,-0.1 -0.2,0 -0.18,0.07 -0.19,0.15 -0.2,0.18 -0.36,0.21 -0.21,-0.02 -0.16,-0.12 -0.1,-0.18 -0.13,-0.42 -0.08,-0.17 -0.52,-0.61 -0.2,-0.44 -0.37,-1.05 -0.79,-1.45 0.03,-0.53 0.78,-0.9 -0.07,-0.44 -0.4,-0.58 -0.3,-0.52 -0.07,-0.42 0.13,-0.32 0.24,-0.28 0.39,-0.28 1.13,-0.77 0.17,-0.38 -0.06,-0.14 -0.1,-0.15 -0.29,-0.25 -0.1,-0.16 -0.17,-0.42 -0.12,-0.18 -0.13,-0.16 -0.89,-0.8 -0.94,-0.7 -1.13,-1.11 -0.61,-0.86 -0.18,-0.32 -0.12,-0.3 -0.03,-0.22 -0.08,-0.3 -0.08,-0.16 -0.24,-0.1 -0.13,-0.47 0.03,-0.07 0.12,-0.13 0.38,-0.25 0.55,-0.58 0.01,-0.22 -0.08,-0.17 -0.18,-0.09 -0.17,-0.07 -0.16,-0.18 -0.15,-0.27 -0.17,-0.73 -0.12,-0.34 -0.1,-0.23 -0.1,-0.09 -0.15,-0.18 -0.15,-0.27 -0.18,-0.49 -0.15,-0.31 -0.18,-0.23 -0.19,-0.19 -0.05,-0.18 0.12,-0.56 0.02,-0.55 -0.06,-0.32 -0.1,-0.23 -0.15,-0.14 -0.33,-0.22 -0.19,-0.18 -0.2,-0.24 -0.22,-0.4 -0.07,-0.25 0.01,-0.22 0.06,-0.21 0.05,-0.3 -0.04,-0.23 -0.15,-0.23 -0.13,-0.15 -0.45,-0.61 3.13,-0.31 0.58,0.09 0.57,0.24 0.69,0.12 0.48,0.18 0.06,0.09 0.02,0.09 -0.03,0.09 -0.06,0.08 -0.02,0.12 0.02,0.14 0.14,0.23 0.12,0.05 0.1,-0.02 0.23,-0.19 0.1,-0.05 0.32,-0.09 0.4,-0.19 0.09,-0.06 0.07,-0.06 0.11,-0.17 0.05,-0.1 0.26,-0.3 0.32,-0.26 0.06,-0.09 0.09,-0.21 0.19,-0.23 0.61,0.91 0.2,0.51 0.08,0.12 0.09,0.06 0.11,0.03 0.38,0.05 0.27,0.11 0.35,0.2 1.28,0.92 0.82,0.46 0.18,0.16 0.1,0.15 0.08,0.23 0.05,0.11 0.41,0.69 0.04,0.09 0.04,0.1 0.02,0.11 0,0.12 -0.03,0.09 -0.12,0.18 -0.04,0.1 -0.04,0.52 0.03,0.41 0,0.05 z" 
                fill="rgb(151, 144, 238)" 
                stroke="white" 
                stroke-width=".7px"
                title="Kayin" 
                id="MM-13" 
            />
        </svg>