<svg xmlns="http://www.w3.org/2000/svg" viewBox="51.227610000000084 190.90361000000024 57.57999999999991 137.0999999999999" width="57.57999999999991" height="137.0999999999999">
            <path 
                d="m 62.88761,210.31361 0,0 0.89,-0.27 0.57,0.03 0.49,0.98 0.23,0.19 0.37,0.22 0.36,0.11 0.21,0.25 0.18,0.54 0.1,0.63 0.04,0.93 -0.61,5.25 0.14,0.39 0.26,0.26 0.54,0.43 0.76,0.44 0.59,0.22 0.5,0.07 0.29,-0.09 0.17,-0.09 0.68,-0.64 0.6,-0.31 1.55,-0.54 0.54,-0.04 0.85,0.13 0.56,0.18 0.48,0.09 0.43,-0.02 1.18,-0.26 1.22,-0.09 0.55,-0.18 1.32,-0.1 2.28,0.49 3.86,0.11 0.8,-0.55 0.94,-0.2 0.49,0.11 0.72,0.22 0.24,0.41 0.84,0.96 0.53,1.09 0.32,0.4 0.49,0.38 0.24,0.3 0.09,0.42 0,0.76 0.09,0.43 0.4,0.28 0.62,0.65 0.54,0.33 1.2,0.4 -0.15,0.41 -0.29,1.58 -0.08,0.27 0.17,2.33 -0.26,-0.06 -0.24,0.43 -0.23,0.06 -0.25,-0.08 -0.29,0.02 -0.2,0.12 -0.14,0.11 -0.11,0.1 -0.08,0.11 -0.4,0.54 -1.91,1.62 -0.95,1.28 -0.5,0.5 -0.68,0.2 -1.22,0.2 -0.23,-0.07 -0.38,-0.28 -0.26,-0.09 -0.77,0.12 -0.57,0.46 -0.37,0.69 -0.12,0.8 -0.31,0.17 -1.92,0.59 -1.38,-0.01 -0.1,-0.04 -0.11,-0.01 -0.23,0.06 -0.15,0.1 -0.28,0.28 -0.42,0.29 -0.28,0.58 -0.2,0.72 -0.09,0.62 0.03,1.39 0.47,2.65 0.1,1.37 -0.17,0.61 0.71,0.24 -0.05,0.36 0.81,0.71 1.15,0.69 0.72,0.27 0.62,0.09 1.5,-0.07 0.05,0 1.43,0.66 0.75,0.67 0.18,0.27 0.07,0.18 0.01,0.19 -0.01,0.29 -0.1,0.55 -0.12,0.27 -0.11,0.17 -0.29,0.57 -0.09,0.32 0.01,0.41 0.37,1.92 -0.03,0.34 -0.09,0.53 -0.15,0.46 -0.03,0.73 0.18,0.65 0.73,1.43 0.24,0.29 0.22,0.08 0.23,-0.05 0.17,-0.12 0.19,-0.46 0.3,-1.34 0.3,-0.34 1.06,-0.94 0.44,-0.24 0.81,-0.21 0.37,-0.02 0.78,0.06 0.46,-0.11 0.27,-0.16 1.2,-1.01 0.66,-0.33 1.39,-0.36 1.12,-0.44 0.38,-0.3 0.62,-0.67 0.3,-0.17 0.46,-0.08 0.25,-0.02 1.12,0.01 1.23,0.2 0.47,0.2 0.09,0.08 0.11,0.12 0.28,0.4 0.12,0.3 0.11,1.14 0.16,1.37 2.5,4.58 0.33,0.93 0.21,1.31 0.13,0.49 0.19,0.38 0.29,0.72 -0.01,0.17 -0.07,0.23 -0.24,0.41 -0.15,0.18 -0.11,0.17 -0.04,0.08 0.13,0.49 0.33,1.32 0.19,0.36 0.07,0.07 0.14,0.16 0.16,0.28 0.02,0.06 0.16,0.69 0.06,0.2 0.08,0.13 0.06,0.08 0.13,0.3 0.1,0.19 0.06,0.09 0.07,0.15 0.15,0.92 0.05,0.17 0.06,0.09 0.13,0.16 0.16,0.11 0.4,0.2 0.06,0.1 0.04,0.14 -0.08,0.33 -0.13,0.24 -0.47,0.63 -0.12,0.36 0.01,0.34 -0.06,0.16 -0.07,0.11 -0.57,0.45 0.19,0.82 0,0.16 -0.06,0.27 -0.14,0.21 -0.06,0.11 -0.39,0.59 -0.02,0.11 0.06,0.13 0.17,0.15 0.24,0.15 0.1,0.11 0.18,0.6 0.05,1.12 0.2,0.21 0.13,0.17 0.11,0.17 0.03,0.11 0.03,0.11 0.01,0.72 0.03,0.13 0.04,0.11 0.1,0.2 0.04,0.1 -0.01,0.15 -0.08,0.16 -0.22,0.23 -0.13,0.05 -0.23,0.02 -0.07,0.12 -0.06,0.21 -0.08,0.44 -0.09,0.29 -0.46,0.81 -0.04,0.18 0.04,0.25 0.07,0.14 0.06,0.11 0.07,0.08 0.04,0.09 0.04,0.1 0,0.22 -0.07,0.3 -0.2,0.6 -0.18,0.26 -0.27,0.22 -0.14,0.16 -0.34,0.75 -0.32,1.22 0.19,2.27 0.21,0.93 0.15,0.27 0.22,0.3 0.75,0.55 0.68,0.24 0,0.36 0.3,0.58 0.22,0.94 0.04,0.52 0.06,0.28 0.06,0.2 0.69,0.95 0.19,0.35 0.07,0.29 0.05,0.52 0.01,0.85 -0.15,1.15 -0.04,0.15 -0.08,0.09 -0.38,0.33 -0.13,0.15 -0.05,0.1 -0.03,0.15 -0.02,0.2 0,0.75 -0.01,0.12 -0.04,0.11 -0.06,0.09 -0.06,0.05 -0.19,0.11 -0.77,-0.48 -0.25,-0.06 -0.42,-0.05 -0.88,0 -3.9,0.57 -1.75,-0.06 -0.62,0.09 -1.78,0.54 -0.91,0.47 -1.55,1.92 -2.16,0.42 -0.49,0.65 -0.02,1.27 -0.04,0.24 -0.09,0.26 -0.19,0.4 -0.4,0.35 -1.52,0.96 -0.74,0.68 -0.1,0.24 -0.04,0.15 0.02,0.42 0.26,0.28 0.32,0.55 0.26,1.33 -0.25,1.17 -0.55,0.95 -0.67,0.64 -0.3,0.19 -0.91,0.41 -0.14,0.02 -0.33,-0.04 -0.13,0.02 -0.07,0.13 -0.12,0.44 -0.45,0.38 -0.12,0.68 -0.07,1.37 -0.21,0.67 -0.1,0.56 0.13,0.56 0.5,0.67 2.04,1.58 -0.19,0 -0.53,0.05 -0.59,0.36 -0.24,0.47 0,0.72 -0.25,0.77 -0.24,0.56 -0.58,0.52 -0.78,0 -0.78,-0.36 -0.64,-0.67 -0.73,-0.57 -0.88,-0.2 -0.73,0.2 -0.78,0.52 -0.92,0.77 -0.48,0.39 0,0 0,-0.01 -0.46,-0.47 -0.37,-0.5 -1.32,-2.4 -0.02,-0.25 0.01,-0.33 0.15,-0.71 0.13,-0.41 0.09,-0.46 -0.09,-0.56 -0.77,-1.6 -0.08,-0.57 0.33,-0.63 0.91,-0.89 0.14,-0.38 0.03,-0.39 -0.58,-0.94 -1.28,-1.2 -0.13,-0.16 -0.1,-0.17 -0.02,-0.22 0.07,-0.24 0.38,-0.16 0.96,-0.14 0.49,-0.15 0.37,-0.22 0.2,-0.33 0.02,-0.43 -0.26,-0.64 -0.19,-0.38 -1.27,-1.68 -0.35,0 -0.47,-0.62 -1.07,-2.53 -1.41,-1.57 -0.96,-0.53 -0.51,-0.09 -0.39,-0.12 -0.35,-0.49 -0.3,-0.79 -0.46,-1.8 0.04,-0.72 0.22,-0.38 0.31,-0.02 0.19,-0.09 0.03,-0.3 -0.15,-0.56 -0.7,-1.3 -2.72,-3.95 -0.27,-0.6 -0.63,-3.37 -1.15,-5.37 -1.24,-2.74 -0.09,-0.43 -0.01,-0.5 0.16,-0.83 0.3,-0.98 0.09,-0.43 -0.05,-0.43 -0.22,-0.52 -0.5,-0.67 -0.9,-0.91 -0.08,-0.06 -0.55,-0.47 -0.21,-0.5 -0.15,-0.5 0.1,-1.96 -1.43,-1.74 -0.42,-0.78 -0.69,-2.13 -0.42,-0.88 -3.81,-6.44 -0.11,-0.29 -0.33,-0.52 -0.34,-0.45 -0.48,-0.4 -0.48,-0.21 -1.21,-0.22 -0.37,-0.19 -0.29,-0.52 0.01,-3.81 2.16,1.46 0.52,0.08 0.82,0.05 2.51,-0.66 0.65,-0.32 0.23,-0.33 -0.02,-0.24 -0.06,-0.17 -0.09,-0.19 -0.84,-1.08 -0.24,-0.44 -0.16,-0.5 -0.24,-1.34 -0.24,-0.74 -0.96,-2.04 -0.06,-0.31 0.2,-1.29 1.87,-3.41 0.21,-0.67 0.07,-0.78 -0.09,-2.08 -0.1,-0.59 -0.2,-0.41 -0.39,-0.34 -1.19,-0.73 -0.72,-0.73 0.88,-1.73 0.52,-3.68 1.47,-3.23 0.15,-0.53 0,-0.56 -0.15,-0.39 -0.54,-0.94 -1.37,-2.32 -1.14,-2.15 -0.44,-1.08 -0.09,-1.21 0.1,-2 0.29,-0.98 0.2,-0.26 0.28,-0.23 0.48,-0.25 0.12,-0.22 -0.01,-0.22 -0.05,-0.11 -0.23,-0.6 -0.66,-2.16 0.13,-0.67 0.6,-1.44 0.12,-0.77 -0.02,-0.64 -0.82,-4.28 -0.01,-0.59 0.12,-0.41 0.64,-1.09 0.1,-0.46 -0.1,-0.26 -0.25,-0.1 -0.39,-0.07 -0.05,-0.23 0.3,-0.77 0.04,-0.44 -0.35,-3.3 0.12,-1.17 -0.04,-0.55 -0.32,-1.07 -0.25,-1.73 0.84,-0.11 0.41,0 0.43,-0.07 0.41,-0.2 0.18,-0.13 0.16,-0.16 0.25,-0.41 0.16,0.01 0.3,0.11 0.21,0.46 0.07,0.27 -0.03,0.23 -0.04,0.14 0.01,0.13 0.32,0.24 0.04,0.07 0.03,0.09 0.07,0.29 0.04,0.12 0.29,0.5 0.27,0.32 0.49,0.46 1.27,1.55 1.36,2.5 0.81,1.78 0.11,0.41 0.06,0.63 -0.13,0.43 -1.14,2.39 -0.19,0.49 -0.06,0.29 -0.04,0.46 0.39,3.69 0.21,0.59 0.21,0.36 0.26,0.3 0.27,0.09 0.33,0.01 z" 
                fill="rgb(151, 144, 238)" 
                stroke="white" 
                stroke-width=".7px"
                title="Magway" 
                id="MM-03" 
            />
        </svg>