<svg xmlns="http://www.w3.org/2000/svg" viewBox="0.2576100000000049 230.66361000000003 80.40999999999994 128.03" width="80.40999999999994" height="128.03">
            <path 
                d="m 44.72761,312.09361 0,0 0.71,0.03 1.03,-0.13 0.2,0.22 0.07,0.76 -0.17,0.93 -0.02,0.34 0.08,0.38 0.27,0.71 0.05,0.3 -0.08,0.74 -0.27,0.71 -0.44,0.6 -0.61,0.41 -0.54,0.08 -0.75,-0.03 -0.66,-0.14 -0.29,-0.23 -0.15,-0.39 -0.35,-0.38 -0.72,-0.61 -2.84,-3.42 -0.13,-0.26 -0.27,-0.8 2.74,-0.22 0.67,-0.26 0.33,-0.47 0.32,-0.15 0.59,0.65 0.63,0.5 0.29,0.09 0.31,0.04 z m 3.52,-19.3 0,0 0.5,0.5 0.49,-0.25 0.63,-0.09 0.66,0.1 0.56,0.36 0.54,0.43 1.14,0.67 0.42,0.49 0.09,0.44 -0.04,0.65 -0.19,0.59 -0.35,0.26 -0.41,0.19 -0.67,0.95 -0.48,0.4 -0.06,0.07 -0.1,0.06 -0.18,0.05 -0.17,-0.06 -0.08,-0.16 -0.05,-0.17 -0.12,-0.05 -0.37,0.19 0,0.25 0.11,0.27 -0.04,0.26 -0.24,0.12 -0.34,0.03 -0.64,-0.04 -0.62,0.08 -0.17,-0.06 -0.33,-0.25 -0.35,-0.38 -0.71,-1.08 -0.13,-0.36 -0.06,-0.33 -0.29,-0.39 -0.07,-0.35 -0.03,-0.08 -0.07,-0.07 -0.07,-0.09 -0.03,-0.19 0.07,-0.12 0.16,0.01 0.14,-0.02 0.04,-0.2 -0.23,-0.5 -0.41,-0.25 -0.98,-0.31 -0.42,-0.29 -0.3,-0.34 -0.5,-1.08 0.31,-0.04 0.12,-0.13 -0.03,-0.21 -0.18,-0.28 1.15,-1.45 0.25,-0.03 0.24,0.07 0.55,0.06 0.22,0.07 0.28,0.23 0.14,0.23 0.12,0.25 0.18,0.26 1.4,1.11 z m -8.39,-8.59 0,0 -0.19,0.51 -1.62,-1.35 -0.48,-0.69 -1,-3.44 -0.11,-1.02 0.56,0.06 0.61,0.41 0.31,0.3 0.24,0.28 0.08,0.19 0.19,0.26 0.42,0.25 0.41,0.32 0.19,0.47 -0.12,1.46 0.12,0.57 0.35,0.94 0.04,0.48 z m -14.55,-2.06 0,0 -0.18,0 -0.16,-0.59 -0.14,-1.36 -0.21,-0.52 -0.41,-0.58 -1.82,-3.41 -0.1,-0.53 -0.07,-0.16 -0.17,-0.12 -0.14,-0.17 -0.02,-0.31 0.1,-0.31 0.14,-0.13 0.17,0.04 0.19,0.21 0.51,0.33 0.19,0.23 0.17,0.26 0.12,0.27 0.04,0.3 0.1,0.45 1.39,3.66 0.22,1.11 0.08,1.33 z m -19.24,-50.12 0,0 0.06,0.53 0.21,0.55 0.25,0.27 0.31,0.17 0.68,0.23 1.24,0.12 0.98,-0.21 0.76,0.17 0.58,1.28 0.22,1.27 0.21,0.66 0.35,0.4 0.6,-0.06 0.69,-0.45 0.57,-0.6 0.27,-0.51 -0.05,-0.32 0.83,0.37 1.48,2.41 1.79,2.04 0.7,1.11 0.24,0.69 0.27,0.56 0.41,0.69 0.58,0.51 0.42,0.19 0.36,-0.04 0.34,-0.25 0.69,-0.76 0.34,-0.22 0.35,-0.06 0.54,0.05 5.15,1.07 0.29,0.28 0.18,0.48 0.34,3.2 0.24,0.54 0.25,0.4 1.39,0.91 0.25,1.08 0.13,0.23 0.28,0.37 0.5,0.42 4.41,2.91 1.8,0.86 0.8,0.09 0.77,-0.26 0.6,-0.03 0.53,0.12 0.62,0.33 0.47,0.07 0.36,-0.07 0.66,-0.56 0.38,-0.24 0.64,-0.22 0.25,-0.24 0.1,-0.32 -0.11,-0.35 -0.4,-0.85 -0.08,-0.13 -0.11,-0.22 -0.12,-0.17 -0.07,-0.19 -0.05,-0.19 -0.02,-0.41 0.14,-1.84 0.15,-0.43 0.21,-0.36 0.62,-0.41 1.05,0.13 0.31,0.2 0.43,0.39 0.45,0.67 0.43,0.8 0.07,0.18 0.14,0.25 0.21,0.63 0.1,0.47 0.15,0.37 0.21,0.16 0.82,0.05 0.5,0.15 0.44,0.31 0.73,0.75 0.31,0.48 -0.01,3.81 0.29,0.52 0.37,0.19 1.21,0.22 0.48,0.21 0.48,0.4 0.34,0.45 0.33,0.52 0.11,0.29 3.81,6.44 0.42,0.88 0.69,2.13 0.42,0.78 1.43,1.74 -0.1,1.96 0.15,0.5 0.21,0.5 0.55,0.47 0.08,0.06 0.9,0.91 0.5,0.67 0.22,0.52 0.05,0.43 -0.09,0.43 -0.3,0.98 -0.16,0.83 0.01,0.5 0.09,0.43 1.24,2.74 1.15,5.37 0.63,3.37 0.27,0.6 2.72,3.95 0.7,1.3 0.15,0.56 -0.03,0.3 -0.19,0.09 -0.31,0.02 -0.22,0.38 -0.04,0.72 0.46,1.8 0.3,0.79 0.35,0.49 0.39,0.12 0.51,0.09 0.96,0.53 1.41,1.57 1.07,2.53 0.47,0.62 0.35,0 1.27,1.68 0.19,0.38 0.26,0.64 -0.02,0.43 -0.2,0.33 -0.37,0.22 -0.49,0.15 -0.96,0.14 -0.38,0.16 -0.07,0.24 0.02,0.22 0.1,0.17 0.13,0.16 1.28,1.2 0.58,0.94 -0.03,0.39 -0.14,0.38 -0.91,0.89 -0.33,0.63 0.08,0.57 0.77,1.6 0.09,0.56 -0.09,0.46 -0.13,0.41 -0.15,0.71 -0.01,0.33 0.02,0.25 1.32,2.4 0.37,0.5 0.46,0.47 0,0.01 1.25,2.49 0.32,1.27 0.05,1.74 -0.52,2.45 0.04,3.18 -0.5,1.28 -0.01,0.47 0.04,0.45 0.11,0.32 0.1,0.2 0.26,0.4 0.81,1.47 0,0.53 -0.03,0.56 -0.37,0.99 -0.19,1.66 -0.41,1.02 -1.5,1.72 -0.25,0.54 -0.07,0.54 0,0.9 -0.15,1.14 -0.08,2.32 -0.34,1.1 -0.99,1.8 -0.3,0.15 -0.22,-0.09 -0.2,-0.14 -0.44,-0.45 -0.56,-0.39 -0.48,-0.11 -0.7,-0.07 -0.58,-0.28 -2.01,-1.44 -0.01,0 -0.03,-0.43 0.1,-0.53 0.01,-0.35 -0.11,-0.42 -0.21,-0.44 -0.12,-0.17 -0.05,-0.16 -0.01,-0.39 0.2,-0.8 0.49,0.18 0.6,0.57 0.53,0.38 -0.17,-0.43 -0.55,-1.04 0.01,-0.34 0.12,-0.35 -0.16,-0.34 -0.46,-0.47 -0.33,-0.62 -0.18,-0.64 -0.1,-1.39 -0.28,-0.64 -1.24,-1.2 -0.28,-0.93 -0.08,-1.84 -0.18,-0.81 -1.06,-2.2 -0.09,-0.46 0.19,-0.44 0.91,-0.4 0.31,-0.33 0.08,-0.71 -0.13,-0.73 -0.28,-0.68 -0.57,-0.85 -0.03,-0.34 0,-0.36 -0.09,-0.35 -0.16,-0.3 -0.33,-0.35 -0.13,-0.18 -0.19,-1.24 -0.22,-0.63 -0.48,-0.27 -1.35,0.16 -0.56,-0.04 -0.41,-0.35 -0.06,-0.28 0.01,-0.43 0.06,-0.42 0.09,-0.25 0.24,-0.09 0.32,0.41 0.46,-0.18 0.38,0.36 0.31,0.03 0.23,-0.17 0.35,-0.54 0.24,-0.15 -0.35,-0.51 -0.16,-0.56 -0.3,-0.45 -0.71,-0.18 -0.44,-0.21 -0.19,-0.5 -0.14,-0.58 -0.24,-0.49 -1.52,-1.69 -0.61,-0.89 -0.41,-0.94 0.41,0.11 0.1,-0.3 -0.28,-2.57 -0.12,-0.34 -2.94,-2.87 0,-0.23 0.22,0 0.53,0.42 1.09,-0.02 2,-0.4 -0.46,-0.22 -0.33,-0.21 -0.72,0.52 -0.46,-0.2 -0.87,-1.36 -0.88,-1.1 -0.17,-0.59 0.05,-0.88 -0.32,0.25 -0.14,0.42 0,0.46 0.05,0.36 -0.46,0.11 -0.62,-0.15 -0.59,-0.36 -0.34,-0.47 -0.29,0.14 -0.11,0.09 -0.45,-0.57 -0.18,-0.92 0.14,-0.91 0.49,-0.58 -0.38,-1.08 -0.04,-0.43 0.06,-0.4 0.29,-0.52 0.07,-0.24 0.3,-0.56 0.08,-0.09 -0.05,-0.2 -0.08,-0.24 -0.05,-0.21 0.79,-0.52 0.22,-0.21 -0.42,0 -0.69,0.2 -0.3,-0.01 -0.47,-0.21 -0.05,-0.23 0.16,-0.33 0.14,-0.51 -0.04,-0.31 -0.17,-0.68 0.02,-0.48 0.14,-0.39 0.39,-0.83 0.08,-0.41 -0.22,-2.6 0.12,-0.5 0.29,-0.28 0.29,-0.66 0.13,-0.72 -0.21,-0.47 -0.29,0.8 -0.78,1.48 -0.16,0.92 0.24,1.61 0,0.95 -0.33,0.42 -0.35,0.35 -0.47,0.65 -0.61,0.4 -0.78,-0.42 -0.13,-0.32 -0.05,-0.78 -0.11,-0.3 -0.35,-0.18 -0.28,0.2 -0.16,0.4 -0.02,0.45 0.15,0.22 0.95,0.95 0.24,0.38 0.01,0.27 -0.1,0.27 -0.06,0.36 0.07,2.06 0.15,0.62 0.2,0.35 0.49,0.63 0.1,0.4 -0.03,0.35 -0.14,0.47 -0.03,0.26 -0.11,0.33 -0.7,0.85 -0.07,0.04 -0.25,0.11 -0.06,0.04 0,0.17 0.05,0.24 0.09,0.2 0.06,0.05 -0.4,0.3 -0.3,-0.28 -0.38,-0.44 -1.23,-0.43 -1.53,-1.51 -0.59,-0.31 -1.28,-0.52 -0.46,-0.33 -0.24,-0.33 -0.16,-0.3 -0.19,-0.28 -0.32,-0.25 -0.31,-0.07 -0.22,0.07 -0.21,-0.04 -0.27,-0.41 -0.06,-0.35 0.1,-0.71 -0.14,-0.33 -0.17,-0.26 -0.16,-0.36 -0.12,-0.36 -0.05,-0.31 -0.21,-0.49 -1.02,-0.87 -0.4,-0.45 -0.79,-1.7 -0.32,-0.22 -1.73,-2.36 -0.31,-0.62 -0.11,-0.53 0.02,-1.32 0.2,-0.46 0.5,-0.47 0.66,-0.3 0.67,0.05 0.22,0.21 0.1,0.28 0.12,0.26 0.27,0.1 1.01,0 0.58,0.97 0.18,0.73 -0.46,0.46 1.29,0.89 0.66,0.28 0.88,0.11 0.16,0.77 0.94,0.67 1.24,0.37 1.1,-0.09 0.92,-0.5 1.9,-1.42 0.6,-0.66 0.02,-0.14 -0.05,-0.38 0.03,-0.14 0.09,-0.05 0.24,-0.08 0.07,-0.06 0.51,-0.76 0.18,-0.45 0.03,-0.57 -0.11,-1.01 0.17,-0.39 0.02,-0.23 -0.19,-0.22 -0.18,0.01 -0.92,0.19 -0.69,-0.14 -0.27,-0.33 0.14,-0.36 0.53,-0.24 -0.31,-0.16 -0.32,-0.06 -0.69,0.01 -0.31,-0.1 -0.79,-0.78 -1.19,-0.82 -0.6,-0.57 -0.26,-0.63 -0.25,-0.37 -1.11,-0.45 -0.25,-0.47 0.22,-0.59 0.52,-0.3 0.66,-0.04 0.63,0.18 -0.16,-0.53 0.24,-0.48 0.4,-0.45 0.33,-0.48 -0.42,-0.65 -0.19,-0.2 -0.22,0.88 -0.45,0.83 -0.68,0.51 -0.88,-0.09 -0.3,-0.24 -0.23,-0.39 -0.11,-0.49 0.06,-0.57 0.22,-0.37 0.68,-0.33 0.29,-0.37 -0.88,-0.1 -0.39,0.48 -0.18,0.61 -0.27,0.3 -1.33,-0.02 -0.35,-0.3 -0.03,-0.77 -0.36,0.81 -0.22,0.3 -0.42,0.17 0,-2.03 0.15,-0.4 1.59,-2.34 0.57,-0.39 0.71,-0.06 1.01,0.09 -0.28,-0.36 -0.09,-0.37 0.14,-0.27 0.44,-0.07 -0.16,-0.27 -0.18,-0.22 -0.22,-0.14 -0.26,-0.04 -0.17,0.13 0,0.44 -0.12,0.1 -1.51,0.01 -0.32,0.08 -0.22,0.1 -0.26,0.03 -0.53,-0.03 -0.09,0.12 -0.22,0.56 -0.2,0.2 -0.39,0.03 -0.41,-0.14 -0.36,-0.25 -0.23,-0.29 0.14,-0.08 0.24,-0.23 0.18,-0.11 -1.08,-0.43 -0.32,-0.3 0.4,-0.36 -0.44,-0.23 -0.15,-0.37 0.15,-0.34 0.44,-0.11 -0.07,-0.23 -0.12,-0.22 -0.35,0.19 -0.3,0.21 -0.22,0.28 -0.11,0.39 -0.14,-0.17 -0.36,-0.29 -0.14,-0.16 -0.21,0.72 -0.19,0.23 -0.31,0.1 -0.33,-0.13 -0.36,-0.31 -0.28,-0.39 -0.11,-0.34 -0.16,-0.77 -0.6,-1.61 -0.05,-0.76 -0.22,0 -0.01,1.19 -0.07,0.62 -0.3,0.14 -0.18,-0.37 -0.45,-2.01 -0.2,0 -0.21,0.66 -0.41,0.5 -0.55,0.35 -0.64,0.21 -0.82,-0.07 -0.87,-0.3 -0.73,-0.16 -0.41,0.34 -0.44,-0.22 -0.41,-0.3 -0.34,-0.36 -0.22,-0.41 0.04,0.61 0.2,0.5 0.56,1.03 0.61,2.16 1.75,3.46 0.07,0.82 -0.6,-0.5 -0.48,-0.81 -0.74,-1.68 -0.46,-1.56 -0.37,-0.88 -0.49,-0.39 -0.66,0.4 -0.21,0.94 0.12,1.04 0.54,1.16 0.16,0.99 0.14,0.44 0.37,0.47 0.12,0.1 0.13,0.07 0.1,0.13 0.29,0.45 0,0.06 -0.58,-0.68 -0.29,-0.08 -0.14,-0.08 -0.28,-0.39 -0.37,-0.87 -1.57,-2.41 -0.19,-0.54 -0.12,-0.83 -0.31,-0.57 -0.78,-0.85 -0.6,-0.86 -0.32,-0.33 -0.14,-0.31 -0.05,-0.92 -0.12,-0.38 0.54,0.14 1.59,-0.14 0.36,-0.17 0.3,-0.39 0.45,-0.73 0.08,0.17 0.07,0.12 0.05,0.14 0,0.21 0.22,0 0.62,-1.65 0.17,-0.29 0,-0.2 -0.94,0.25 -1.23,1.33 -0.85,0.56 -0.83,-0.15 -0.09,-1 0.41,-1.65 0.51,-0.54 0.67,-2.38 0.44,-0.54 0.72,-0.29 0.31,-0.71 0.27,-1.57 -0.55,0.44 -0.27,1.27 -0.38,0.45 -0.49,-0.08 -0.26,-0.61 -0.1,-0.8 0.04,-0.67 1.13,-2.05 0.44,-1.16 -0.36,-0.68 -0.13,0.6 -0.25,0.7 -0.33,0.68 -0.4,0.52 -0.38,0.71 -0.08,0.9 0.14,1.75 -0.25,1.37 -0.63,1.2 -1.73,2.35 -1.11,2.39 -0.1,0.08 -0.17,0.16 -0.26,0.15 -0.38,0.04 -0.22,-0.09 -0.15,-0.18 -0.25,-0.39 -1.88,-1.47 -0.32,-0.36 0.05,-0.48 0.13,-0.47 0.25,-0.45 0.38,-0.42 1.9,-1.3 1.1,-0.23 1.23,-0.42 -0.27,-0.14 -0.25,-0.06 -0.59,-0.01 -0.35,-0.05 -0.11,-0.13 -0.06,-0.21 -0.21,-0.28 -0.71,-0.58 -0.28,-0.3 -0.19,-0.4 -0.26,-2.8 -0.14,-0.5 -0.34,-0.31 -0.67,-0.05 0.11,0.71 -0.33,0.66 -0.47,0.24 -0.32,-0.53 0.44,-0.16 0.17,-0.04 -0.83,-0.63 -0.27,-0.97 -0.15,-1.07 -0.47,-0.91 -0.63,-0.86 -1.08,-1.88 -0.82,-0.59 0.72,1.42 1.33,2.01 0.11,0.32 0.26,2.48 0.6,1.74 0.03,0.51 -0.21,1.44 0.23,3.24 -0.23,0.64 -0.22,-0.38 -0.52,-0.68 -0.27,-0.48 -1.29,-3.46 -0.61,-0.89 -2.73,-2.55 -0.32,-0.5 -0.27,-1.45 -0.38,-0.62 -1.08,-1.07 -0.21,-0.33 -0.11,-0.28 -0.17,-0.19 -0.43,-0.07 -0.3,-0.1 -0.61,-0.44 -0.3,-0.1 -0.5,-0.28 -0.3,-0.67 -0.3,-1.44 -1.63,-4.75 -0.51,-0.82 -0.21,-0.5 -0.31,-2.83 -0.16,-0.38 -1.21,-1.01 -0.17,-0.49 -0.19,-0.47 -0.7,-0.65 -0.22,-0.44 -0.17,-0.56 0.1,-0.49 0.17,-0.94 0.03,-0.62 -0.21,-1.25 0.01,-0.62 0.16,-0.56 0.82,-1.19 0.4,-1.35 0.33,-0.62 0.49,-0.08 0.93,0.02 1.12,-1.36 0.95,0.32 0.39,0.52 0.12,0.52 z" 
                fill="rgb(151, 144, 238)" 
                stroke="white" 
                stroke-width=".7px"
                title="Rakhine" 
                id="MM-16" 
            />
        </svg>