<svg xmlns="http://www.w3.org/2000/svg" viewBox="53.83761000000004 39.563609999999855 90.37999999999994 186.45" width="90.37999999999994" height="186.45">
            <path 
                d="m 143.60761,48.67361 0,0 0.29,-0.03 0.32,-0.14 -1.66,2.51 -0.36,0.44 -0.14,0.12 -0.22,0.13 -0.38,0.13 -0.39,0.05 -2.26,-0.17 -3.26,0.22 -1.84,0.63 -0.72,0.14 -1.59,0.01 -5.14,0.74 -0.52,-0.02 -0.52,-0.09 -0.44,-0.17 -1.68,-0.41 -2.61,-0.03 -0.43,0.17 0,0.24 0.39,0.3 1.05,0.63 0.14,0.26 -0.15,0.38 -0.24,0.47 -0.11,0.47 -0.04,0.59 -0.25,0.3 -0.41,0.17 -0.83,0.19 -0.36,0.21 -0.19,0.25 -0.03,1.47 -0.05,0.24 -0.12,0.2 -3.79,2.38 -0.53,0.49 -0.14,0.44 0.22,0.47 0.9,0.94 0.59,0.49 0.46,0.5 0.33,0.48 0.2,0.52 0.14,0.48 0.24,1.62 -0.05,0.13 -0.15,0.32 -0.5,0.51 -0.76,0.41 -0.79,0.29 -1.63,0.43 -0.38,0.59 -0.01,0.29 0.08,0.38 0.14,0.3 1.58,2.22 0.31,0.58 0.13,0.51 0.04,0.83 0.15,0.34 0.43,0.55 0.45,0.74 0.2,0.81 0.19,0.5 0.67,1.01 0.42,2.52 -0.16,1.13 -0.2,0.34 -0.27,0.3 -0.27,0.16 -0.17,0.14 -0.07,0.05 -0.01,0.02 -1.48,3.64 -0.07,0.53 0.03,0.4 0.54,1.26 0.37,1.48 0.24,0.54 1.57,1.93 0.32,0.98 -0.11,0.65 -0.34,0.64 -0.58,0.64 -1.72,1.35 -0.41,0.49 -0.22,0.35 -0.19,0.22 -0.22,0.14 -0.3,0.03 -0.24,-0.12 -0.21,-0.2 -0.18,-0.26 -0.22,-0.25 -0.29,-0.24 -0.19,-0.08 -0.24,0.05 -0.32,0.38 -0.31,1.31 -0.14,2.84 0.4,6.11 0.32,1.35 1.5,1.9 0.64,1.15 0.37,0.91 0.13,1.08 -0.03,0.59 -0.25,1.33 -0.17,0.38 -0.18,0.21 -0.19,0.19 -0.31,0.16 -0.28,0.02 -0.25,-0.06 -0.16,-0.17 -0.08,-0.28 0.02,-0.36 0.17,-0.49 0.16,-0.33 0.22,-0.8 0.04,-0.24 -0.02,-0.22 -0.06,-0.16 -0.12,-0.1 -0.16,-0.03 -0.14,0.08 -0.13,0.21 -0.17,0.31 -0.24,0.28 -0.33,0.27 -0.53,0.3 -1.13,0.37 -1,0.29 -1.04,0.43 -0.63,0.42 1.34,3.33 1.51,4.95 0.31,0.65 0.32,0.32 0.35,0.22 0.52,0.2 2.76,0.62 0.65,0.36 0.95,2.68 0.11,0.2 0.82,0.91 1.2,1.01 0.28,0.31 0.21,0.34 0.3,0.33 0.3,0.02 0.27,-0.17 0.21,-0.23 0.21,-0.19 0.32,-0.11 1.84,-0.29 1.54,-0.44 0.9,0.04 4.3,1.72 0.63,0.17 0.56,0.09 0.34,0.11 1,0.62 -0.26,0.66 -0.85,0.68 -0.23,0.35 -0.1,0.32 -0.02,3.41 0.09,0.73 0.3,0.59 0.5,0.54 0.46,0.39 0.62,1.24 -1.2,0.18 -1.26,0.37 -5.18,2.38 -0.44,0.35 -0.3,0.38 -0.1,0.45 0.09,0.42 0.34,0.49 0.28,0.1 0.25,-0.04 0.24,-0.28 0.32,-0.54 0.38,-0.34 0.13,-0.07 0.34,-0.1 0.2,-0.02 0.2,0.01 0.17,0.03 0.16,0.05 0.13,0.06 0.1,0.08 0.08,0.06 0.19,0.21 0.07,0.25 0.06,1.67 0.06,0.18 0.22,0.46 0.06,0.17 0.19,0.75 0.06,0.17 0.09,0.14 0.41,0.42 0.11,0.16 0.08,0.16 0.07,0.18 0.04,0.22 0.01,0.3 -0.1,0.32 -0.93,1.73 -0.11,0.32 -0.6,1.11 -0.12,0.14 -0.15,0.1 -0.49,0.21 -0.35,0.28 -0.69,0.94 0.02,0.25 -0.06,0.22 -0.11,0.31 -0.03,0.13 -0.02,0.27 0,0.26 -0.05,0.17 -0.21,0.49 -0.05,0.18 -0.09,0.26 -0.15,0.29 -0.53,0.87 -0.4,0.45 -0.47,0.39 -0.82,0.97 -0.55,0.35 -0.91,-0.8 -0.31,0 -0.48,0.12 -1.32,0.74 -0.74,0.14 -0.62,-0.19 -0.98,-0.45 -0.27,-0.25 -0.16,-0.29 -0.01,-0.42 0.08,-0.38 0.17,-0.49 0.07,-0.39 -0.02,-0.43 -0.26,-0.64 -0.36,-0.24 -0.23,-0.05 -0.68,0.07 -0.74,0.65 -0.65,0.77 -0.43,0.97 -0.08,0.41 -0.29,0.64 -1.84,2.26 -0.63,1.02 -0.24,0.62 -0.19,0.71 -0.04,0.64 0.04,0.46 0.81,2.65 0.16,0.39 0.05,0.09 0.05,0.11 0.1,0.21 0.2,0.55 0.33,1.35 0.24,0.77 -0.31,12.32 -0.08,0.31 -0.2,0.29 -0.35,0.19 -0.68,0.04 -0.29,0.12 -0.27,1.03 0.46,1.45 2.02,3.56 0.14,0.67 -0.23,0.6 -0.38,0.59 -0.14,0.62 -0.03,2.55 0.2,0.58 0.56,0.69 0.69,0.67 0.03,0.28 -0.21,0.45 -0.16,0.19 -0.16,0.14 -0.16,0.19 -0.13,0.35 -0.04,0.34 0.09,1.73 0.37,1.87 0.21,2.17 0.52,1 0.68,2.04 0.09,1.2 -0.29,1.04 -0.6,0.86 -0.83,0.63 -0.58,0.3 -0.53,0.2 -0.55,0.11 -0.67,0.04 -0.57,-0.14 -0.3,0.3 -0.44,0.82 -0.99,3.82 -0.46,0.8 -1.42,1.7 -0.19,-0.21 -0.67,-0.16 -2.53,0.34 -1.83,-2.55 -0.98,-1.02 -0.48,-0.18 -0.67,0.01 -3.74,0.83 -0.47,0.36 -0.33,1.34 -0.39,0.91 0,0.2 -0.19,0.28 -0.2,0.4 -1.2,-0.4 -0.54,-0.33 -0.62,-0.65 -0.4,-0.28 -0.09,-0.43 0,-0.76 -0.09,-0.42 -0.24,-0.3 -0.49,-0.38 -0.32,-0.4 -0.53,-1.09 -0.84,-0.96 -0.24,-0.41 -0.72,-0.22 -0.49,-0.11 -0.94,0.2 -0.8,0.55 -3.86,-0.11 -2.28,-0.49 -1.32,0.1 -0.55,0.18 -1.22,0.09 -1.18,0.26 -0.43,0.02 -0.48,-0.09 -0.56,-0.18 -0.85,-0.13 -0.54,0.04 -1.55,0.54 -0.6,0.31 -0.68,0.64 -0.17,0.09 -0.29,0.09 -0.5,-0.07 -0.59,-0.22 -0.76,-0.44 -0.54,-0.43 -0.26,-0.26 -0.14,-0.39 0.61,-5.25 -0.04,-0.93 -0.1,-0.63 -0.18,-0.54 -0.21,-0.25 -0.36,-0.11 -0.37,-0.22 -0.23,-0.19 -0.49,-0.98 -0.57,-0.03 -0.89,0.27 -0.33,-0.01 -0.27,-0.09 -0.26,-0.3 -0.21,-0.36 -0.21,-0.59 -0.39,-3.69 0.04,-0.46 0.06,-0.29 0.19,-0.49 1.14,-2.39 0.13,-0.43 -0.06,-0.63 -0.11,-0.41 -0.81,-1.78 -1.36,-2.5 -1.27,-1.55 -0.49,-0.46 -0.27,-0.32 -0.29,-0.5 -0.04,-0.12 -0.07,-0.29 -0.03,-0.09 -0.04,-0.07 -0.32,-0.24 -0.01,-0.13 0.04,-0.14 0.03,-0.23 -0.07,-0.27 -0.21,-0.46 -0.3,-0.11 -0.16,-0.01 -0.25,0.41 -0.16,0.16 -0.18,0.13 -0.41,0.2 -0.43,0.07 -0.41,0 -0.84,0.11 -0.37,-2.08 0.18,-0.91 0.15,-0.26 0.25,-1.13 -0.14,-2.12 -0.21,-0.46 -0.12,-0.43 -0.16,-0.36 0.02,-0.39 0.65,-2.53 0.14,-1.29 -0.02,-0.64 -0.52,-3.05 -0.11,-1.7 0.04,-0.35 0.36,-1.51 -0.03,-0.54 -0.3,-1.15 0.3,-0.21 0.73,0.05 0.27,-0.13 0.13,-0.27 0.15,-2.41 -0.07,-0.44 -0.21,-0.78 0,-0.95 0.17,-0.28 0.1,-0.04 0.18,-0.02 0.19,0.03 0.02,0.01 0.96,0.61 0.43,0.14 0.28,0.03 0.13,-0.09 0.22,-0.23 0.12,-0.18 0.07,-0.19 0.02,-0.07 0.25,-2.37 0.17,-0.88 0.39,-3.04 -0.18,-0.84 -0.54,-1.27 -0.16,-0.58 -0.17,-2.1 -0.16,-0.33 0.08,-0.1 0.1,-0.66 -0.04,-0.7 0.04,-0.64 0.29,-0.64 1.34,-1.82 0.1,-0.46 0.16,-1.24 0.13,-0.32 0.31,-0.37 0.13,-0.56 0.11,-1.16 0.34,-1.22 1.44,-3.43 0.12,-0.54 0.1,-1.09 0.15,-0.51 0.22,-0.27 0.62,-0.44 0.21,-0.27 0.03,-0.26 -0.1,-0.57 0.01,-0.19 0.33,-0.37 0.36,-0.26 0.26,-0.37 0.08,-1.31 0.2,-0.39 0.33,-0.27 0.45,-0.29 0.41,-1.65 0.22,-0.46 0.35,-0.34 1.32,-0.86 0.36,-0.75 0.61,-2.22 0.25,-0.52 0.43,-0.08 0.37,0 0.36,-0.05 0.4,-0.24 0.36,-0.45 0.23,-0.55 0.11,-0.61 0,-0.58 0.17,-0.96 1.19,-1.61 0.46,-0.85 0.55,-2.79 0.48,-0.66 0.55,-1 0.16,-1.38 -0.21,-1.35 -0.52,-0.93 -1.06,-0.51 -1.18,-0.24 -1.07,-0.4 -0.69,-0.99 -0.1,-1.34 1.71,-4.87 0.66,-1.07 0.59,-0.63 0.27,-0.29 0.96,-0.68 0.56,-0.21 1.02,-0.12 0.55,-0.17 0.53,-0.42 0.75,-1.24 0.43,-0.54 0.25,-0.11 0.59,-0.01 0.28,-0.15 0.02,-0.13 -0.24,-0.31 0.02,-0.17 0.11,-0.11 0.31,-0.18 0.11,-0.1 2.65,-3.93 0.22,-0.25 0.28,-0.11 0.63,-0.08 0.26,-0.18 0.2,-0.59 -0.06,-0.74 -0.6,-3.38 0.03,-0.64 0.19,-0.71 0.34,-0.31 1.1,-0.4 0.49,-0.33 1.24,-1.36 0.93,-1.14 0.34,-0.65 -0.03,-0.69 -0.37,-0.4 -1.06,-0.34 -0.4,-0.35 -0.29,-2.21 0.12,-0.28 0.22,-0.25 0.14,-0.25 -0.11,-0.25 -0.23,-0.13 -0.25,-0.05 -0.24,-0.09 -0.22,-0.22 -0.37,-1 -0.13,-1.3 0.05,-1.32 0.2,-1.03 0.41,-1.1 0.05,-0.49 -0.13,-0.63 -0.56,-1.09 -0.06,-0.53 0.41,-0.63 0,0 0.45,-0.37 0.87,-0.99 0.3,-0.5 0.16,-0.37 0.04,-0.22 -0.01,-0.21 0.09,-0.94 0.11,-0.25 0.29,-0.3 0.26,-0.14 0.65,-0.15 0.29,-0.14 0.25,-0.26 0.41,-0.63 0.27,-0.22 0.55,-0.09 0.46,0.68 0.23,0.02 0.41,0.05 0.54,-0.18 1.09,-0.53 2.26,-0.75 0.53,-0.33 0.86,-1.11 0.67,-1.38 0.8,-1.11 1.23,-0.31 0.68,0.12 0.6,0.01 0.48,-0.25 0.36,-0.67 0.29,-0.79 0.33,-0.42 0.46,-0.19 1.36,-0.16 0.39,-0.16 0.29,-0.37 0.76,-1.32 1.27,-1.58 0.79,-0.32 1.67,-0.31 0.81,-0.43 0.81,-0.8 0.64,-0.95 1.08,-2.08 1.13,-1.59 1.8,-1.3 2.01,-0.91 7.82,-1.35 1.97,0.09 0.46,0.16 0.61,-0.06 0.62,-0.2 0.45,-0.27 0.6,-0.72 0.25,-0.57 0.32,-0.27 0.81,0.17 0.26,0.16 0.18,0.16 0.21,0.11 0.37,-0.02 0.3,-0.18 0.49,-0.54 0.34,-0.13 0.53,0.03 0.56,0.15 1.02,0.48 0.52,0.37 0.37,0.42 0.62,1.07 0.34,0.42 0.95,0.81 0.17,0.26 -0.25,0.65 -0.28,0.56 0.03,0.52 0.67,0.56 4.06,1.9 0.26,0.24 0.21,0.28 0.23,0.24 0.33,0.15 z" 
                fill="rgb(151, 144, 238)" 
                stroke="white" 
                stroke-width=".7px"
                title="Sagaing" 
                id="MM-01" 
            />
        </svg>