<svg xmlns="http://www.w3.org/2000/svg" viewBox="117.66760999999978 144.8336100000002 147.8500000000002 154.18000000000012" width="147.8500000000002" height="154.18000000000012">
            <path 
                d="m 195.83761,166.47361 0,0 0.59,-0.19 0.56,-0.01 0.44,0.44 0.34,0.65 0.42,1.27 0.08,0.64 -0.07,0.61 -0.24,0.59 -0.24,0.16 -0.34,0.13 -0.26,0.18 0,0.33 0.21,0.08 1.06,-0.03 0.42,0.82 -1.49,2.74 -0.03,1.05 2.19,0.23 1.1,0.32 0.58,0.07 0.56,-0.06 0.5,0.05 0.2,0.45 0.18,0.62 0.47,0.56 0.58,0.25 0.51,0.01 1.11,-0.15 0.26,0.03 0.75,0.24 0.43,0.04 0.12,0.04 0.06,0.01 0.28,-0.03 0.15,0.12 0.01,0.59 0.07,0.21 0.22,0.18 0.21,0.13 0.24,0.02 0.33,-0.17 0.63,-0.55 0.28,-0.15 0.53,-0.13 0.27,-0.28 0.24,-0.51 0.35,-0.44 0.58,-0.1 0.51,0.33 0.88,1.21 0.66,0.42 2.21,0.09 0.44,0.26 0.05,0.45 -0.1,0.49 -0.03,0.52 0.24,0.54 1.06,1.46 0.1,0.74 -0.67,0.56 -0.91,-0.05 -1.6,-0.84 -0.49,0.19 -0.07,0.37 0.17,1.43 -0.07,0.56 -0.32,0.51 -0.73,0.89 -0.58,1.22 -0.25,0.22 -0.36,0.1 -0.33,0.14 -0.3,0.21 -0.27,0.28 0,0.82 1.39,3.55 0.07,0.68 -0.31,1.08 -0.08,0.64 0.07,0.33 0.29,0.54 0.04,0.34 -0.13,0.36 -0.25,0.36 -1.83,1.94 -1.17,0.6 -0.17,0.42 0.09,0.22 0.17,0.23 0.06,0.39 -0.13,0.4 -0.53,0.63 -0.22,0.36 -0.36,1.55 -0.2,0.51 -0.97,1.3 -0.21,0.63 0.46,0.51 -0.9,0.48 0.65,0.69 1.35,0.62 1.2,0.31 2.27,0.23 1.03,-0.11 1.77,-0.75 0.4,-0.05 1.53,0.63 0.43,0.03 1,-0.11 2.79,0.7 0.25,0.16 0.23,0.25 0.28,0.55 0.13,0.19 0.59,0.31 0.29,-0.25 0.3,-0.46 0.58,-0.3 0.46,0.12 1.79,0.94 0.22,0.2 0.18,0.26 0.22,0.16 0.38,-0.05 0.23,-0.24 0.02,-0.64 0.16,-0.25 0.56,-0.09 2.23,0.39 -0.22,0.41 -0.02,0.44 0.17,0.41 0.31,0.34 0.45,1.02 -0.31,1.23 -1.03,2.3 -0.07,0.73 0.12,0.53 0.51,1.12 0.32,1.77 0.31,0.52 1.06,0.6 2.53,0.05 1.12,0.34 0.43,0.36 0.23,0.24 0.1,0.18 -0.07,0.29 -0.23,0.1 -0.29,0.06 -0.31,0.17 -0.35,0.44 -0.26,0.53 -0.19,0.54 -0.09,0.45 0.02,0.53 0.11,0.7 0.22,0.65 0.31,0.41 0.6,0.41 1.01,1.46 0.73,0.27 0.31,-0.17 0.96,-0.75 0.4,-0.24 0.92,-0.34 0.42,-0.25 0.38,-0.38 0,-0.01 0.01,0 0,0 0.35,-0.55 0.35,-0.36 0.46,-0.2 0.63,-0.04 0.6,0.12 0.45,0.29 0.89,0.74 0.15,0.54 0.27,0.47 0.39,0.27 0.52,-0.06 0.67,-0.15 1.44,0.27 0.77,-0.06 1.47,-0.44 0.7,-0.35 0.46,-0.48 0,-0.01 0.01,0 0,0 1.25,-0.66 1.55,-1.7 1.19,-1.78 1.12,-1 1.26,-0.63 2.85,-0.85 0.54,-0.23 1.48,-1.08 0.37,-0.29 0.39,-0.23 0.42,-0.15 1.06,0.22 0.18,0.49 0.08,1.56 0.26,0.33 0.38,0.25 0.36,0.59 0.21,0.65 -0.06,0.46 0.21,0.36 -0.18,0.37 -0.29,0.44 -0.11,0.58 0.14,0.49 0.07,0.57 -0.12,0.47 -0.41,0.2 -4.12,3.4 -2.76,1.46 -0.41,0.13 -0.99,1.03 -0.33,0.27 -1.08,0.46 -0.67,0.09 -0.57,-0.22 -0.22,-0.15 -0.25,-0.11 -0.26,-0.05 -0.28,-0.02 -0.38,0.1 -0.1,0.25 0.02,0.35 -0.05,0.38 -0.93,3.84 -1.53,2.83 -0.35,0.49 -0.56,0.32 -1.32,0.28 -0.54,0.24 0.36,0.87 0.05,0.25 -0.16,0.21 -0.55,0.38 -0.12,0.16 -0.06,0.67 -0.28,1.29 -0.06,0.62 0.55,0.4 2.62,-0.46 0.85,0.18 0,0.19 -0.75,0.73 -0.56,0.43 -0.26,0.2 -0.88,0.5 -0.95,0.32 -0.69,0.02 -1.25,-0.36 -2.57,-0.42 -0.56,0.11 -0.4,0.41 -0.27,0.5 -0.36,0.42 -1.17,0.35 -0.46,0.41 -0.76,0.94 -0.8,0.71 -0.3,0.38 -0.12,0.53 -0.15,0.4 -0.65,0.94 -0.21,0.51 0,0.41 -0.38,0.83 -0.32,1.09 -0.37,2.79 -0.27,0.99 -0.07,0.67 -0.13,0.56 -0.28,0.44 -0.34,0.39 -0.08,0.44 0.02,0.42 0.05,0.54 -1.3,-0.83 -0.23,-0.35 -0.14,-0.3 -0.2,-0.26 -0.38,-0.24 -0.43,-0.09 -0.35,0 -0.32,-0.11 -0.34,-0.43 -0.28,-0.25 -0.11,-0.28 -0.07,-0.31 -0.18,-0.27 -0.31,-0.25 -0.14,-0.03 -0.14,0.07 -1.61,0.24 -0.65,0.22 -0.53,0.36 -0.34,0.48 -0.39,1.14 -0.27,0.51 -0.49,0.47 -0.52,0.18 -1.2,-0.01 -0.61,0.11 -1.09,0.47 -0.57,0.11 -0.29,-0.07 -0.44,-0.31 -0.27,-0.11 -0.31,-0.03 -0.54,0.08 -0.28,-0.02 -2.26,-0.75 -1.44,-1 -0.42,-0.16 -0.57,0.21 0.27,0.53 1.08,1.14 0.25,0.58 0.34,1.83 0.96,1.05 0.2,0.5 -0.15,0.79 -0.3,0.54 -0.05,0.03 -0.28,0.19 -0.35,0.18 -0.38,0.41 -0.98,0.83 -3.54,1.11 -0.75,0.12 -0.6,-0.31 -1.15,-0.95 -0.51,-0.25 -1.22,-0.35 -0.57,-0.06 -1.2,0.18 -1.3,0.52 -1.09,0.82 -0.58,1.07 -0.32,2.16 0.03,0.31 0.17,0.57 0.02,0.29 -0.08,0.15 -0.14,0.16 -0.14,0.23 -0.06,0.31 0.1,0.76 0.15,0.59 0.03,0.59 -0.23,0.78 -0.39,0.68 -0.41,0.35 -1.14,0.46 -1.06,0.78 -0.46,0.1 -0.56,-0.87 -0.37,-0.34 -0.42,-0.3 -0.88,-0.41 -1.73,1.35 -0.56,0.2 -2.62,0.38 -0.52,0.24 -0.24,0.24 -0.51,0.65 -0.22,0.15 -0.66,0.13 -0.59,0.23 -0.31,0.28 -0.04,0.21 -0.11,0.04 -0.51,-0.24 -0.3,-0.25 -0.23,-0.29 -0.26,-0.19 -0.32,0.04 -0.1,0.01 -1.03,0.55 -1.33,0.04 -1.38,-0.14 -1.19,0.03 -1.31,0.63 -0.74,0.16 -0.54,-0.39 -0.08,-0.33 0.04,-0.64 -0.14,-0.3 -0.21,-0.12 -1,-0.32 -1.18,-1.08 -0.61,-0.34 -0.75,0.12 -0.39,-0.13 -0.36,-0.52 -0.44,-0.43 -0.62,0.15 -0.2,0.42 -0.39,2.05 0.03,0.57 0.25,1.14 -0.01,0.55 -0.16,0.4 -0.24,0.09 -0.29,-0.01 -0.32,0.1 -0.26,0.23 -0.43,0.52 -0.24,0.22 -1.83,0.92 -0.49,0.07 0,0 -0.32,-1.21 -0.05,-0.44 -0.13,-0.37 -0.16,-0.2 -0.24,-0.18 -0.21,-0.08 -0.18,-0.02 -0.21,0.04 -0.28,-0.02 -0.36,-0.09 -0.57,-0.35 -0.31,-0.14 -0.24,-0.06 -0.18,0.05 0,0 -0.15,0.12 -0.13,0.15 -0.2,0.1 -0.01,0 -0.27,0.02 -2.25,-0.61 -0.75,-0.1 -0.38,-0.24 -0.13,-0.15 -0.34,-0.59 -0.21,-0.27 -0.25,-0.19 -0.36,-0.21 -0.17,-0.17 -0.07,-0.16 0,-0.16 0.08,-0.36 0.12,-0.41 0.51,-1.23 0.05,-0.23 0,-0.28 -0.11,-0.14 -0.13,-0.06 -0.27,-0.03 -0.2,-0.1 -0.23,-0.18 -0.43,-0.55 -0.43,-0.97 -0.16,-0.21 -0.17,-0.09 -0.18,0.02 -0.05,0.02 -0.1,0.04 -0.1,0.07 -0.12,0.11 -0.13,0.14 -0.16,0.12 -0.19,0.08 -0.01,0 -0.19,0.05 -0.32,0.02 -0.41,-0.05 -1.58,-1.83 -0.05,-0.4 -0.71,0.23 0,0 -0.39,0.49 -0.12,0.49 -0.17,0.36 -0.14,0.13 -0.15,0.05 0,0 -0.14,-0.02 -0.16,-0.01 -0.22,0.02 -1.07,0.21 -0.28,-0.01 -0.24,-0.06 -0.19,-0.08 -0.4,-0.24 -0.12,-0.11 -0.09,-0.17 -0.08,-0.39 -0.02,-0.21 0.01,-0.19 0.02,-0.2 0,-0.22 -0.02,-0.16 -0.08,-0.33 -0.13,-0.19 -0.24,-0.2 -0.61,-0.25 -0.27,-0.08 -0.59,0.02 0,0.01 -0.18,0.59 0.13,1.01 -0.26,1.75 -0.11,0.17 -0.28,0.33 -0.06,3.34 -0.2,0.98 -3.2,1.91 -1.6,1.35 -1.03,1.21 -0.7,1.14 -0.44,1.05 -0.09,0.31 -0.03,0.15 0.02,0.13 0.08,0.25 0.13,0.26 0.48,0.75 0.23,0.62 0,0.96 -0.77,1.57 -1.06,1.34 -0.72,0.69 -0.01,0.05 0,-0.05 -0.03,-0.41 0.04,-0.52 0.04,-0.1 0.12,-0.18 0.03,-0.09 0,-0.12 -0.02,-0.11 -0.04,-0.1 -0.04,-0.09 -0.41,-0.69 -0.05,-0.11 -0.08,-0.23 -0.1,-0.15 -0.18,-0.16 -0.82,-0.46 -1.28,-0.92 -0.35,-0.2 -0.27,-0.11 -0.38,-0.05 -0.11,-0.03 -0.09,-0.06 -0.08,-0.12 -0.2,-0.51 -0.61,-0.91 0.19,-0.69 -0.03,-0.2 -0.08,-0.31 -0.38,-0.83 -0.2,-0.24 -0.22,-0.11 -0.2,0.02 -0.2,0.03 -0.16,-0.01 -0.33,-0.05 -0.17,0.02 -0.16,-0.03 -0.31,-0.15 -0.29,-0.07 -0.21,-0.08 -0.5,-0.32 -0.14,-0.22 -0.06,-0.21 0.03,-0.17 0.09,-0.16 0.14,-0.12 0.17,-0.1 0.19,-0.07 0.16,-0.01 0.18,0 0.18,-0.07 0.17,-0.09 0.35,-0.14 0.16,-0.11 0.15,-0.17 0.11,-0.28 0.11,-0.22 0.16,-0.16 0.39,-0.2 0.19,-0.16 0.14,-0.32 0.01,-0.25 -0.07,-0.22 -0.11,-0.18 -0.12,-0.16 -0.14,-0.14 -0.17,-0.11 -0.2,-0.1 -0.4,-0.25 -0.39,-0.66 -1.19,-1.45 -0.19,-0.32 -0.38,-0.83 -0.16,-0.25 -0.13,-0.15 -0.29,-0.12 -0.36,-0.07 -0.14,0.01 -0.22,0.03 -0.54,0.21 -0.16,0 -0.21,-0.02 -0.35,-0.15 -0.16,-0.12 -0.09,-0.12 -0.01,-0.12 0,-0.12 0.02,-0.12 0.07,-0.24 0.05,-0.1 -0.18,-0.54 -1.53,-2.03 -0.59,-1.13 -0.06,-0.2 -0.03,-0.31 0.07,-0.1 0.1,-0.07 0.11,0 0.11,0.03 0.1,0.05 0.1,0.04 0.12,-0.02 0.17,-0.14 0.13,-0.08 0.12,-0.04 0.11,0.01 0.17,0.11 0.17,0.13 0.13,0 0.17,-0.05 0.28,-0.2 0.14,-0.16 0.11,-0.18 0.13,-0.28 0.14,-0.19 0.25,-0.26 0.1,-0.16 0.04,-0.15 -0.03,-0.11 -0.04,-0.11 -0.06,-0.08 -0.06,-0.07 -0.09,-0.06 -0.21,-0.09 -0.07,-0.07 -0.03,-0.1 -0.02,-0.37 -0.04,-0.23 -0.08,-0.27 -0.04,-0.21 0.02,-0.13 0.05,-0.11 0.07,-0.07 0.08,-0.07 0.53,-0.33 0.23,-0.21 0.08,-0.1 0.24,-0.4 0.06,-0.07 0.13,-0.11 0.25,-0.15 0.79,-0.67 0.23,-0.35 0.03,-0.23 -0.01,-0.15 -0.03,-0.12 -0.09,-0.2 -0.22,-0.35 -1.02,-2.56 -0.02,-0.09 -0.06,-0.14 -0.09,-0.17 -0.23,-0.71 -0.3,-1.48 -0.03,-0.3 0.11,-0.46 0.07,-0.51 0.04,-0.11 0.05,-0.09 0.06,-0.08 0.17,-0.14 0.09,-0.1 0.09,-0.17 0,-0.17 -0.01,-0.13 -0.19,-0.48 0.11,-0.25 1.06,-0.04 0.17,-0.07 0.25,-0.15 0.06,-0.13 0.03,-0.13 0,-0.13 -0.1,-0.48 -0.01,-0.27 0.07,-0.83 -0.02,-0.18 -0.02,-0.13 -0.04,-0.11 -0.06,-0.07 -0.09,0 -0.28,0.13 -0.11,-0.02 -0.11,-0.08 -0.1,-0.2 -0.09,-0.11 -0.1,-0.04 -0.11,0 -0.1,-0.03 -0.07,-0.07 -0.06,-0.07 -0.07,-0.13 -0.15,-0.38 -0.41,-0.75 -0.07,-0.08 -0.06,-0.07 -0.08,-0.06 -0.29,-0.18 -0.1,-0.13 -0.14,-0.23 -0.05,-0.2 0.01,-0.14 0.08,-0.12 0.16,-0.41 -0.17,-0.7 0.81,-0.63 0.17,-0.17 0,-0.02 0.01,-0.04 0.13,-0.3 0.2,-0.13 0.15,-0.07 0.15,-0.03 0.27,-0.01 0.5,0.05 0.92,-0.07 0.11,-0.64 -0.03,-0.76 0.1,-0.29 0.2,-0.2 0.15,-0.19 0.05,-0.15 0.01,-0.17 -0.04,-0.16 -0.07,-0.2 -0.13,-0.24 -0.4,-0.47 -0.07,-0.07 -0.09,-0.05 -0.1,-0.04 -0.11,-0.02 -0.11,0.01 -0.11,0.02 -0.11,0.04 -0.17,-0.08 -0.21,-0.18 -0.37,-0.51 -0.21,-0.19 -0.15,-0.08 -0.07,0.05 -0.19,0.15 -0.27,0.27 -0.09,0.05 -0.12,0.03 -0.13,0 -0.27,-0.15 -1.1,-0.8 -0.21,-0.07 -0.11,0.03 -0.31,0.13 -0.09,0.03 -0.16,0 -0.19,-0.04 -0.52,-0.23 -0.28,-0.08 -1.25,-0.61 -0.86,-0.3 -0.54,-0.11 -0.55,-0.2 -0.25,-0.17 -1,-0.89 -0.14,-1.63 0.08,-0.43 0.09,-0.07 0.09,-0.1 0.1,-0.14 0.16,-0.27 0.04,-0.17 0.01,-0.15 -0.2,-0.85 0.02,-0.18 0.06,-0.12 0.43,-0.38 0.74,-0.41 0.68,-0.14 0.17,0.01 0.1,0.04 0.12,0.07 0.46,0.12 0.33,-0.09 0.21,-0.02 0.2,-0.01 0.45,0.08 0.16,-0.02 0.13,-0.06 0.09,-0.09 0.09,-0.15 0.01,-0.12 -0.05,-0.1 -0.06,-0.08 -0.05,-0.09 -0.05,-0.24 -0.03,-0.11 -0.16,-0.27 -0.15,-0.43 -0.2,-0.37 -0.2,-0.24 -0.13,-0.15 -0.12,-0.16 -0.06,-0.12 -0.41,-2.15 -0.13,-0.43 -0.04,-0.4 -0.02,-0.12 -0.05,-0.11 -0.06,-0.07 -0.07,-0.11 -0.06,-0.15 -0.01,-0.3 -0.34,-1.91 -0.08,-0.9 1.26,-0.76 0.2,-0.31 -0.24,-0.36 -0.02,-0.17 0.04,-0.23 0.16,-0.45 0.13,-0.19 0.14,-0.11 0.93,-0.05 1.56,-0.32 0.27,0 0.16,0.03 0.5,-0.07 2.18,-1.1 0.28,-0.09 0.1,0.03 0.18,0.01 0.22,0 0.43,-0.11 0.2,-0.1 0.12,-0.1 0.04,-0.07 0.07,-0.08 1,-0.78 0.11,-0.14 0.07,-0.12 0.08,-0.21 0.06,-0.09 0.08,-0.1 0.21,-0.18 0.66,-0.79 0.16,-0.27 0.3,-0.31 0.38,-0.31 0.25,-0.26 0.19,-0.09 0.14,-0.02 0.11,0.03 0.09,0.05 0.06,0.08 0.06,0.1 0.37,0.02 1.44,-0.61 0.4,-0.52 0.1,-0.26 0.19,-0.12 0.11,-0.02 0.1,0.06 0.26,0.23 0.18,0.2 0.17,0.12 0.09,0.06 0.17,0.06 0.7,0.15 0.23,-0.01 0.15,-0.05 0.06,-0.09 0.04,-0.11 0.02,-0.11 -0.01,-0.5 -0.03,-0.28 -0.04,-0.11 -0.04,-0.1 -0.14,-0.15 -0.06,-0.09 -0.03,-0.12 0,-0.16 0.03,-0.22 -0.02,-0.16 -0.02,-0.13 -0.1,-0.2 -0.06,-0.08 -0.08,-0.06 -0.08,-0.05 -0.32,-0.13 -0.09,-0.06 -0.04,-0.15 -0.01,-0.21 0.05,-0.44 -0.01,-0.22 -0.01,-0.17 -0.13,-0.32 -0.05,-0.09 -0.85,-1.03 -0.04,-0.1 -0.1,-0.34 -0.41,-0.88 -0.12,-0.16 -0.76,-0.85 -0.09,-0.16 -0.06,-0.14 -0.29,-0.88 -0.2,-1.46 -0.28,-0.39 -0.36,-0.22 -0.12,-0.06 -0.37,-0.07 -0.79,0.01 -0.12,-0.03 -0.51,-0.17 -1,-0.5 -1.14,-0.35 -0.45,-0.08 -0.75,-0.52 -1.55,-0.47 -0.29,-0.17 -0.17,-0.14 -0.02,-0.13 0,-0.12 0.01,-0.13 0.09,-0.37 0.01,-0.12 -0.01,-0.62 -0.03,-0.29 -0.03,-0.12 -0.47,-1.13 -0.28,-0.4 -0.48,-0.38 -0.11,-1.26 -0.06,-0.17 -0.12,-0.26 -0.17,-0.18 -0.26,-0.42 -0.16,-0.19 -0.13,-0.11 -0.12,-0.03 -0.25,-0.01 -0.39,0.05 -1.15,-0.12 -0.27,-0.08 -0.13,-0.08 -0.07,-0.12 -0.13,-0.65 0.21,-0.86 0.03,-0.88 0.07,-0.33 0.14,-0.42 0.02,-0.21 0,-0.17 -0.25,-0.58 -0.05,-0.09 -0.07,-0.08 -0.09,-0.06 -0.1,-0.03 -0.12,-0.01 -0.14,-0.03 -0.14,-0.11 -0.18,-0.27 -0.03,-0.24 0.07,-0.7 -0.01,-0.26 -0.05,-0.17 -0.11,-0.2 -0.97,-1.19 -0.23,-0.34 -0.31,-0.63 -0.05,-0.19 -0.01,-0.12 0.05,-1.17 -0.04,-0.1 -0.07,-0.02 -0.19,0.09 -0.11,0.03 -0.16,-0.05 -0.04,-0.12 -0.03,-0.51 -0.03,-0.19 -0.37,-0.7 1.14,-0.74 0.73,-0.55 0.14,-0.05 0.19,-0.04 0.32,0.14 0.42,0.09 1.08,0.08 0.34,-0.02 0.21,-0.04 0.11,-0.09 0.42,-0.24 0.24,-0.01 0.32,-0.13 0.21,-0.13 0.15,-0.03 0.11,0.03 0.08,0.06 0.23,0.22 0.23,0.15 1.22,-0.09 0.38,-0.12 0.11,-0.08 0.8,-0.43 0.62,-0.41 0.23,-0.09 0.19,-0.03 0.79,0.07 0.69,0.23 0.16,0 0.14,-0.05 0.33,-0.23 0.18,-0.04 0.22,0.01 0.15,-0.07 0.51,-0.5 0.09,-0.13 0.05,-0.53 0.03,-0.11 0.08,-0.21 0.11,-0.18 0.06,-0.08 0.23,-0.37 0.04,-0.1 0.38,-0.48 0.17,-0.28 0.09,-0.1 0.29,-0.27 0.1,-0.11 0.04,-0.13 0,-0.12 -0.03,-0.25 -0.03,-0.13 -0.05,-0.09 -0.18,-0.17 -0.88,-0.42 -0.46,-0.08 -0.91,-0.03 -0.27,-0.06 -0.24,-0.11 -0.82,-0.53 -0.1,-0.1 -0.01,-0.03 0.01,-0.02 0.01,-0.05 0.04,-0.08 0.04,-0.1 0.02,-0.11 -0.02,-0.24 0,-0.12 0.04,-0.1 0.05,-0.11 0.01,-0.11 -0.03,-0.15 -0.09,-0.03 -0.09,0.02 -0.17,0.12 -0.11,0.06 -0.15,0.05 -0.24,0.01 -0.14,-0.04 -0.09,-0.08 -0.12,-0.15 -0.18,-0.18 -0.41,-0.34 -0.24,-0.13 -0.18,-0.05 -0.13,0.04 -0.33,0.18 -0.04,0.04 -0.23,0.33 -0.06,0.07 -0.11,0.05 -0.14,0.03 -0.51,-0.02 -0.13,0.02 -0.43,0.15 -0.11,0.03 -0.41,0.02 -2.28,0.43 -2.53,-0.17 -1.43,-0.86 -0.25,-0.36 0.04,-0.11 0.05,-0.09 0.05,-0.1 0,-0.18 -0.07,-0.25 -0.22,-0.51 -0.21,-0.28 -0.67,-0.66 -0.17,-0.26 -0.09,-0.23 -0.06,-0.45 0.01,-0.15 0.03,-0.11 0.05,-0.09 0.07,-0.08 0.26,-0.17 0.07,-0.09 0.04,-0.1 0.04,-0.24 0.04,-0.11 0.06,-0.09 0.2,-0.24 0.11,-0.17 0.05,-0.09 0.01,-0.11 -0.01,-0.24 0.02,-0.18 0.02,-0.13 0.03,-0.71 0,-0.65 0.11,-0.46 0.16,-0.38 0.01,-0.2 -0.02,-0.14 -0.08,-0.07 -0.1,-0.12 -0.11,-0.19 -0.14,-0.41 -0.02,-0.21 0.04,-0.15 0.07,-0.08 0.1,-0.04 0.11,-0.02 0.12,0 0.11,0.04 0.1,0.05 0.14,0.14 0.08,0.07 0.09,0.05 0.1,0.03 0.12,-0.04 0.13,-0.08 0.16,-0.17 0.03,-0.12 -0.04,-0.13 -0.05,-0.13 -0.05,-0.2 0.04,-0.15 0.08,-0.17 0.3,-0.43 0.07,-0.08 0.07,-0.06 0.26,-0.19 0.65,-0.67 0.1,-0.03 0.27,-0.04 0.19,-0.07 0.08,-0.1 0.01,-0.12 -0.02,-0.12 -0.15,-0.28 -0.04,-0.09 -0.04,-0.5 0.04,-0.14 0.1,-0.14 0.39,-0.28 0.07,-0.16 0.04,-0.14 0.01,-0.51 0.55,-0.35 0.82,-0.97 0.47,-0.39 0.4,-0.45 0.53,-0.87 0.15,-0.29 0.09,-0.26 0.05,-0.18 0.21,-0.49 0.05,-0.17 0,-0.26 0.02,-0.27 0.03,-0.13 0.11,-0.31 0.06,-0.22 -0.02,-0.25 0.69,-0.94 0.35,-0.28 0.49,-0.21 0.15,-0.1 0.12,-0.14 0.6,-1.11 0.11,-0.32 0.93,-1.73 0.1,-0.32 -0.01,-0.3 -0.04,-0.22 -0.07,-0.18 -0.08,-0.16 -0.11,-0.16 -0.41,-0.42 -0.09,-0.14 -0.06,-0.17 -0.19,-0.75 -0.06,-0.17 -0.22,-0.46 -0.06,-0.18 -0.06,-1.67 -0.07,-0.25 -0.19,-0.21 -0.08,-0.06 -0.1,-0.08 -0.13,-0.06 -0.16,-0.05 -0.17,-0.03 -0.2,-0.01 -0.2,0.02 -0.34,0.1 -0.13,0.07 -0.38,0.34 -0.32,0.54 -0.24,0.28 -0.25,0.04 -0.28,-0.1 -0.34,-0.49 -0.09,-0.42 0.1,-0.45 0.3,-0.38 0.44,-0.35 5.18,-2.38 1.26,-0.37 1.2,-0.18 0.66,0.77 0.1,1.55 0.27,0.58 0.62,0.77 2.18,1.59 0.53,0.31 0.34,0.12 0.32,-0.01 0.21,-0.14 0.19,-0.24 0.3,-0.26 0.31,-0.13 0.23,0 0.19,0.16 0.19,0.36 0.15,0.75 0.24,0.72 0.14,0.76 -0.02,1.01 -0.33,1 -0.36,0.6 -0.31,0.31 -0.37,0.26 -2.45,0.95 -0.19,0.12 -0.08,0.14 -0.02,0.15 0.06,0.2 0.13,0.21 0.02,0.04 2.78,0.9 0.15,0 0.38,-0.16 0.47,-0.01 1.39,0.28 1.04,0.34 0.26,0.25 0.01,0.13 -0.03,0.7 0.03,0.21 0.08,0.33 0.09,0.15 0.1,0.1 0.2,0.09 0.4,0.06 0.24,0.02 0.59,-0.05 1.06,0.01 2.24,-0.98 0.31,-0.07 0.88,0.01 0.23,-0.02 0.16,-0.04 0.1,-0.05 0.08,-0.06 0.37,-0.37 0.23,-0.19 0.19,-0.09 0.21,-0.06 0.49,-0.08 0.16,0 0.48,0.11 0.12,-0.03 0.08,-0.08 0.04,-0.11 0.06,-0.13 0.1,-0.12 0.18,-0.16 0.16,-0.04 0.11,0.01 0.27,0.14 0.74,-0.77 0.26,-0.18 0.1,-0.01 0.01,0 0.11,0.04 0.37,0.04 0.68,-0.08 1.5,-1.13 0.41,-0.12 3,-0.56 0.89,-0.35 0.51,-0.28 0.2,-0.23 0.25,-0.6 -0.07,-0.54 0.25,-0.13 0.62,-0.2 0.59,-0.27 1.51,-1.52 0.58,-0.4 0.64,-0.21 0.43,-0.04 0.41,-0.12 0.54,-0.44 1.19,-1.38 0.39,-0.26 6.34,-2.55 2.26,-0.55 1.11,0.04 2.18,0.56 1.1,0.02 0.49,-0.18 0.93,-0.56 0.5,-0.19 1.16,-0.07 1.16,0.08 0.85,0.21 1.17,0.88 0.8,0.39 0.45,0.2 0.35,-0.23 0.45,-0.15 0.82,-0.42 1.22,-0.2 1.02,-0.47 3,-0.25 1.1,-0.32 0.3,-0.22 0.04,0.08 0.19,0.93 -0.51,0.99 -2.67,1.83 -1.44,1.25 -0.51,0.22 -0.57,0.17 -0.49,0.22 -0.13,0.27 0.2,0.26 0.26,0.52 -0.05,0.28 -0.24,0.8 -0.02,0.42 0.22,2.38 -0.09,0.26 -0.14,0.18 0,0.19 0.35,0.31 0.28,0.09 0.68,0 0.89,0.29 1.16,0.2 0.46,0.35 0.17,0.49 0.04,1.63 0.22,0.55 1.23,1.96 0.19,0.15 0.04,0.18 -0.21,0.45 -0.21,0.21 -1.38,0.84 -0.35,0.35 -0.11,0.45 0.57,1.68 0.29,0.21 z" 
                fill="rgb(151, 144, 238)" 
                stroke="white" 
                stroke-width=".7px"
                title="Shan" 
                id="MM-17" 
            />
        </svg>