<svg xmlns="http://www.w3.org/2000/svg" viewBox="155.58761000000007 428.3136099999998 64.41999999999996 160.30000000000018" width="64.41999999999996" height="160.30000000000018">
            <path 
                d="m 173.65761,588.43361 0,0 -0.59,0.18 -0.56,-0.12 -0.31,-0.38 0.22,-0.56 0.44,-0.21 0.46,0.16 0.32,0.41 0.02,0.52 z m 5.8,-7.95 0,0 0.62,0.21 0.13,-0.09 0.08,-0.03 0.39,0.12 0,0.2 -0.46,-0.06 -0.18,0.08 -0.01,0.18 0.05,0.19 0.17,0.22 0.25,0.12 0.14,0.16 -0.18,0.33 -0.56,0.16 -0.33,0.5 -0.2,0.53 -0.21,0.25 -0.48,0.18 -1.01,0.67 -0.43,-0.04 -0.1,0.34 -0.14,0.28 -0.07,0.23 0.09,0.19 -0.76,1.24 -0.36,0.33 -0.07,-0.56 -0.31,0.09 -0.1,-0.62 0.03,-0.79 0.06,-0.42 0.12,-0.26 0.09,-0.86 0.39,-0.1 0.22,-0.21 0.11,-0.21 0.08,-0.1 0.17,-0.1 0.12,-0.25 0.1,-0.27 0.11,-0.2 0.22,-0.18 0.79,-0.45 0.85,-0.75 0.58,-0.25 z m -1.74,-0.24 0,0 -0.28,0.85 0,-2.37 -0.06,-0.17 -0.29,-0.39 -0.07,-0.24 0.11,-0.34 0.2,-0.28 0.1,-0.24 -0.19,-0.26 0,-0.22 0.5,-0.01 0.77,0.46 0.54,0.16 0.02,0.14 -0.04,0.04 -0.08,0 -0.1,0.03 -0.08,0.17 -0.09,0.13 0,0.14 0.17,0.19 -0.45,0.25 -0.31,0.22 -0.19,0.32 -0.18,1.42 z m -8.45,-12.07 0,0 0.32,0.01 0.17,-0.03 0.16,0.18 0.14,0.21 0.24,0.52 -0.15,0.18 -0.15,0.12 -0.19,0.05 -0.27,-0.03 0.27,0.48 0.15,0.15 -0.64,0.3 -0.48,-0.12 -0.13,-0.42 0.43,-0.58 -0.19,-0.38 -0.13,-0.56 0.09,-0.5 0.45,-0.21 -0.27,0.45 0.18,0.18 z m 8.81,-0.3 0,0 -0.43,0.03 -0.22,-0.56 0.13,-0.43 0.36,-0.26 0.47,-0.13 0.46,-0.03 -0.03,0.08 -0.08,0.13 -0.03,0.08 -0.2,0.65 -0.43,0.44 z m 10.19,-10.48 0,0 -0.34,1.1 -0.43,0.28 -0.52,0.01 -0.32,-0.21 0.17,-0.38 0.26,-0.1 0.22,0.01 0.17,-0.05 0.06,-0.28 -0.08,-0.2 -0.22,-0.08 -0.27,0.04 -0.25,0.14 0,-0.41 -0.17,-0.42 -0.1,-0.46 -0.01,-0.43 0.08,-0.31 0.74,0.36 0.69,0.57 0.32,0.82 z m -18.98,-0.73 0,0 -0.76,0.38 0.21,-0.31 0.12,-0.28 0,-0.29 -0.13,-0.33 0.18,-0.85 0.46,-0.33 0.59,0 0.59,0.15 -0.32,0.83 -0.39,0.59 -0.55,0.44 z m 9.22,-2.09 0,0 0.11,0.58 0.03,0.58 0.15,0.54 0.35,0.33 0.4,0.28 0.31,0.38 0.08,0.56 0.01,0.59 0.16,0.43 0.57,0.08 -0.26,0.39 -0.11,0.37 0.07,0.34 0.3,0.32 -0.15,-0.02 -0.04,0.05 0,0.09 -0.03,0.1 -0.34,0.66 -0.26,0.26 -0.5,0.1 -0.41,-0.12 -0.14,-0.33 0.04,-0.98 0.13,0.08 0.07,0.11 0.45,-0.36 -0.12,-0.28 -0.53,-0.37 0.01,-0.44 0.24,-0.95 -0.05,-0.49 -0.11,-0.08 -0.4,-0.13 -0.09,-0.09 -0.01,-0.27 -0.03,-0.17 -0.07,-0.13 -0.52,-0.65 -0.58,-0.51 -0.06,0.13 -0.1,0.15 -0.06,0.13 -0.18,-1.03 -0.28,-0.14 -0.27,-0.02 -0.19,0.14 -0.08,0.32 -0.19,0.19 -0.91,0.62 -0.31,0.12 -0.36,-0.3 0.26,-0.47 0.7,-0.77 0.09,-0.14 0.39,-0.24 0.14,-0.13 0.07,-0.19 0.1,-0.54 0.12,-0.2 0.37,-0.11 0.54,0.07 0.57,0.23 0.43,0.33 0.29,0.47 0.19,0.53 z m 6.43,-1.16 0,0 -0.21,0.01 -0.1,-0.38 0.1,-0.48 0.28,-0.28 0.26,0.03 0.05,0.47 -0.15,0.36 -0.23,0.27 z m 2.99,-0.68 0,0 0.05,0.84 -0.05,0.19 -0.23,0.09 -0.11,-0.19 -0.05,-0.29 0,-0.23 -0.28,0.1 -0.2,0.18 -0.11,0.25 -0.01,0.31 -0.65,-0.28 -0.26,-0.54 0.04,-0.59 0.25,-0.45 0.48,-0.38 0.18,-0.2 0.14,-0.24 0.05,-0.29 -0.07,-0.53 0.02,-0.21 0.31,-0.5 0.21,0.09 0.16,0.44 0.22,1.14 0.02,0.45 -0.11,0.84 z m -7.85,-7.81 0,0 0.17,0.07 0.27,-0.07 0.24,-0.02 0.11,0.23 -0.21,0.3 -0.45,0.24 -0.95,0.26 0,-0.39 -0.13,-0.47 -0.32,-0.32 -0.3,-0.25 -0.06,-0.21 0.35,-0.15 0.61,-0.06 0.85,0 -0.2,0.59 0.02,0.25 z m 0.24,-7.86 0,0 -0.24,0.86 -0.22,-0.22 -0.06,0.15 -0.07,0.13 -0.05,0.14 -0.02,0.2 -0.27,-0.27 -0.42,-0.52 -0.12,-0.24 -0.2,0.23 -0.1,0.16 0.01,0.18 0.09,0.27 -0.49,0.04 -0.24,0.19 0.08,0.23 0.45,0.15 -0.29,0.14 -0.33,0.08 -0.35,0 -0.31,-0.09 -0.33,-0.13 -0.01,-0.15 0.01,-0.46 0.29,0.09 0.26,-0.05 0.24,-0.18 0.22,-0.29 -0.09,-0.27 -0.12,-0.63 -0.1,-0.23 -0.05,-0.28 0.27,-0.22 0.32,-0.18 0.17,-0.15 -0.07,-0.24 -0.13,-0.1 -0.14,-0.13 -0.06,-0.35 0.09,-0.26 0.42,-0.29 0.18,-0.56 0.2,-0.11 0.2,-0.03 0.11,-0.08 0.02,-0.34 -0.19,-0.59 -0.03,-0.32 0.14,-0.62 0.87,-1.64 0.14,-1.34 0.17,-0.42 0.4,0.03 0.43,0.65 0.35,0.82 0.14,0.57 -0.09,0.28 -0.19,0.09 -0.21,0.04 -0.13,0.1 -0.05,0.28 0.05,0.95 -0.35,1.25 -0.07,0.63 0.23,0.59 -0.39,0.75 0.03,1.71 z m -23.77,-8.39 0,0 0.08,0.31 -0.45,-0.14 -0.15,-0.11 -0.44,-0.42 0.54,0.01 0.42,0.35 z m 31.44,-0.32 0,0 0.16,0.22 0.1,0.3 0.08,0.37 0.04,0.32 -0.03,0.92 -0.28,0.87 0.09,2.33 -0.1,0.38 -0.41,0.48 -0.1,0.38 0.04,0.42 0.13,0.72 0.04,0.41 -0.33,-0.24 -0.46,-0.57 -0.24,-0.22 -0.32,-0.12 -0.38,-0.09 -0.34,-0.14 -0.18,-0.27 -0.51,0.6 -0.28,-0.08 -0.09,-0.5 0.07,-0.65 -0.23,0.17 -0.14,-0.01 -0.1,-0.15 -0.12,-0.22 0.21,-0.61 -0.25,-0.42 -0.37,-0.28 -0.19,-0.23 -0.35,-0.85 0.08,-0.39 0.69,-0.11 -0.19,-0.25 -0.52,-0.46 -0.11,-0.2 0.06,-0.39 0.17,-0.13 0.2,-0.06 0.17,-0.14 0.13,-0.06 0.23,-0.14 0.08,-0.14 -0.33,-0.07 -0.32,0.01 -0.26,-0.03 -0.2,-0.11 -0.14,-0.28 0.68,-0.14 1.31,0.21 0.43,-0.07 -0.1,-0.12 -0.05,-0.09 -0.07,-0.22 0.39,0 0.84,0.22 0.35,-0.05 0.69,-0.21 0.39,0.04 0.24,0.14 z m -14.48,1.49 0,0 0.16,0.61 0.72,-0.17 -0.04,0.37 -0.18,0.27 -0.27,0.22 -0.3,0.15 0.24,0.12 0.12,0.19 0,0.24 -0.18,0.29 0.52,0.59 0.18,0.26 0.13,0.39 -0.73,-0.43 -0.22,-0.2 -0.06,-0.2 -0.18,-0.15 -0.44,-0.67 -0.52,-0.32 -0.15,-0.22 0.38,-0.09 0.11,-0.28 0.01,-0.6 -0.18,-0.56 -0.46,-0.19 0.15,-0.76 -0.36,-1.64 0.42,-0.7 -0.06,1.13 0.06,0.33 0.15,0.18 0.76,0.64 0.22,0.4 0,0.8 z m -11.37,-3.43 0,0 0.15,0.77 -0.12,-0.02 -0.5,-0.19 -0.23,-0.69 0.02,-0.38 0.61,-0.77 0.3,0.25 0.12,0.29 -0.07,0.3 -0.23,0.3 -0.05,0.14 z m 18.2,-0.07 0,0 -0.31,0.37 -0.36,-0.02 -0.21,-0.12 -0.01,-0.78 0.08,-0.56 0.26,-0.18 0.57,0.37 0.13,0.41 -0.15,0.51 z m -0.66,-1.82 0,0 -0.23,0.09 -0.23,-0.07 -0.56,-0.86 0.26,-0.43 0.48,-0.2 0.26,0.11 0.05,0.29 0.18,0.58 -0.03,0.25 -0.18,0.24 z m 7.61,-2.44 0,0 0.64,0.35 0.53,-0.16 0.45,0.23 0.85,0.77 1.14,0.3 0.5,0.27 -0.03,0.44 0,-0.18 -0.79,0.24 -1.74,0.01 -0.6,0.25 -0.49,0.44 -0.58,0.39 -0.59,0.22 -0.52,-0.07 -0.44,-0.9 -0.1,-0.39 -0.02,-0.42 0.07,-0.24 0.29,-0.44 0.05,-0.23 -0.06,-0.31 -0.15,-0.14 -0.2,-0.1 -0.32,-0.35 -0.14,-0.09 -0.1,-0.14 -0.03,-0.32 0,-0.93 -0.24,-0.93 0,-0.39 0.24,-0.34 0.19,0.32 0.81,0.72 0.61,0.85 0.46,0.98 0.31,0.29 z m -12.43,-5.8 0,0 -0.05,0.37 0.27,-0.15 0.41,-0.16 0.36,-0.03 0.17,0.24 0.08,1.27 -0.08,0.29 -0.23,-0.45 -0.38,-0.36 -0.49,-0.1 -0.53,0.29 -0.16,-0.08 -0.06,-0.04 -0.05,-0.05 -0.41,-0.7 -0.58,-0.58 -0.15,-0.42 0.08,-0.55 0.27,-0.68 0.38,-0.58 0.39,-0.25 0.57,0.03 0.49,0.12 0.33,0.27 0.12,0.49 -0.01,0.29 -0.1,0.59 -0.09,0.27 -0.16,0.22 -0.21,0.2 -0.18,0.24 z m -0.05,-5 0,0 -0.26,0.15 -0.18,-0.01 -0.2,-0.09 -0.28,-0.05 -0.02,0.16 -0.49,0.89 -0.25,0.24 -0.3,0.19 -0.31,0.13 -0.24,0.05 -0.07,0.17 -0.24,1.07 -0.27,-0.53 -0.13,-0.09 -0.12,-0.51 -0.38,-0.05 -0.43,0.08 -0.28,-0.14 0.08,-0.41 0.37,-0.32 0.3,-0.32 -0.14,-0.41 -0.39,0.29 -0.12,0.14 -0.1,0.19 -0.22,0 0.06,-0.85 0.43,-0.35 0.62,-0.18 0.92,-0.54 0.32,-0.03 0.17,0.12 -0.18,0.29 -0.28,0.27 -0.13,0.19 0.05,0.19 0.26,0.27 0.38,-0.08 0.16,0.02 0.28,0.06 -0.02,-0.32 0.03,-0.34 0.1,-0.26 0.53,-0.26 0.17,-0.35 0.09,-0.36 0.1,-0.19 0.44,0.15 0.31,0.53 0.1,0.66 -0.24,0.54 z m 12.15,-1.36 0,0 -0.39,0.13 -0.39,-0.14 -0.23,-0.44 0.42,-2.06 0.33,-0.6 0.42,0.53 0.08,0.49 -0.08,1.68 -0.16,0.41 z m -6.66,-2.83 0,0 -0.66,0.26 -0.69,-0.32 -0.2,-0.33 -0.01,-0.32 0.11,-0.79 0.1,-0.1 0.21,-0.03 0.2,-0.07 0.1,-0.22 0.08,-0.2 0.16,0.16 0.15,0.26 0.01,0.1 0.65,0.92 -0.21,0.68 z m -12.41,-1.69 0,0 -0.35,0.68 -0.01,-0.13 -0.05,-0.08 -0.08,-0.07 -0.08,-0.11 -0.05,-0.2 -0.05,-0.03 -0.1,0 -0.18,0.03 0,-0.23 0.13,-0.19 -0.08,-0.1 -0.16,-0.13 -0.09,-0.27 0.13,-0.1 0.27,-0.14 0.28,-0.08 0.12,0.1 0.12,0.5 0.19,0.25 0.04,0.3 z m 15.9,-0.36 0,0 0.72,1.27 0.11,-0.78 0.26,-0.96 0.38,-0.5 0.45,0.61 0.13,0.84 -0.01,1.16 -0.15,1.11 -0.28,0.69 -1.9,2.91 -1.22,1.07 -1.41,-0.36 0.27,-0.66 0.13,-0.16 0.1,-0.64 0.41,-1.24 0.09,-0.71 -0.05,-0.27 -0.26,-0.43 -0.13,-0.39 -0.13,-0.1 -0.03,-0.16 0.11,-0.17 0.24,-0.16 0.19,-0.17 -0.03,-0.21 -0.55,-1.03 -0.34,-1.37 -0.02,-1.44 0.4,-1.24 0.51,0.49 1.61,0.41 0.53,0.56 0,0.27 -0.22,1.29 0.09,0.47 z m -15.85,-5.89 0,0 -0.32,0.02 -0.46,-0.19 -0.05,-0.62 0.19,-0.39 0.33,-0.02 0.34,0.49 0.1,0.47 -0.13,0.24 z m 12.74,-9.61 0,0 0.23,0.05 0.2,-0.16 0.24,-0.1 0.34,0.21 0.19,0.32 -0.06,0.21 -0.33,0.29 -0.19,0.26 -0.17,0.12 -0.13,0.14 -0.13,0.33 -0.05,0.28 0.05,0.96 0.33,1.28 0.03,0.62 -0.36,0.37 -0.02,-0.61 -0.4,-0.72 0.01,-0.53 -0.21,-0.58 -0.39,-1.92 -0.67,-1.85 -0.14,-0.63 -0.04,-0.59 0.09,-1.36 0.16,-0.34 0.41,0.02 0.22,0.47 0.59,3.03 0.2,0.43 z m -10.92,-21.19 0,0 -0.22,0 -0.08,-0.5 -0.02,-0.86 0.13,-0.75 0.39,-0.18 0.18,0.22 -0.17,0.35 -0.11,0.59 -0.1,1.13 z m 5.71,-36.8 0,0 0.54,0.04 1.59,-0.05 0,0.16 0.12,0.32 0.58,1.05 0.2,0.67 -0.04,1.1 0.05,0.64 0.09,0.16 0.32,0.26 0.09,0.19 -0.01,0.15 -0.1,0.45 0.24,0.59 1.59,2.56 3.56,3.46 0.39,0.6 0.26,0.66 0.16,0.74 0.21,0.42 0.37,0.15 0.38,0.2 2.05,4.23 1.34,1.71 0.24,0.24 0.39,0.26 0.21,0.08 0.45,0.1 0.22,0.11 0.19,0.19 0.38,0.5 0.2,0.15 0.44,0.02 0.35,-0.13 0.29,0.05 0.7,1.41 0.67,0.71 3.5,2.67 0.63,0.28 0.71,0.2 0.51,0.34 0.3,0.49 0.07,0.69 0.16,0.56 0.93,1.14 0.36,0.58 0.3,0.66 0.27,0.36 0.93,0.7 0.13,0.18 0.15,0.45 0.11,0.18 0.16,0.09 0.41,0.11 0.13,0.09 0.16,0.26 0.06,0.2 -0.01,0.23 -0.07,0.36 0.01,0.53 0.33,1.45 0.23,0.49 0.96,0.93 0.16,0.25 0.17,0.27 0.01,0.79 -0.1,0.69 0.07,2.55 1.06,4.7 0.03,0.58 -0.15,1.51 0.09,0.58 0,0.29 -0.12,0.32 -0.17,0.25 -0.12,0.29 0.01,0.41 0.38,1.13 0.12,0.62 -0.09,0.52 -0.02,0.03 -0.4,0.36 -1.17,0.13 -0.56,0.22 -0.36,0.5 0,0.59 0.1,0.68 -0.09,0.76 -0.25,0.72 -0.16,0.67 0.14,0.61 0.65,0.51 0.51,0.31 0.55,0.5 0.4,0.58 0.07,0.59 -0.12,0.34 -0.15,0.27 -0.11,0.28 -0.03,0.39 0.06,0.28 0.39,0.92 0.1,0.93 0.1,0.3 0.23,0.32 0.59,0.57 0.22,0.35 0.11,0.62 -0.03,0.58 0.02,0.54 0.31,0.52 0.26,0.13 0.68,0.11 0.31,0.2 0.13,0.28 0.06,0.61 0.1,0.24 0.28,0.17 0.69,0.19 0.22,0.23 0.19,0.32 0.29,0.3 0.33,0.26 1.45,0.82 0.28,0.42 0.04,0.27 0.08,0.46 -0.01,0.65 -0.08,0.66 -0.12,0.33 -0.32,0.64 -0.07,0.31 0.13,0.62 0.67,1.21 0.19,0.66 0.08,1.68 0.1,0.57 0.16,0.37 0.46,0.55 0.2,0.33 0.08,0.33 -0.07,0.55 0.02,0.32 0.11,0.32 0.32,0.59 0.11,0.31 -0.05,0.41 -0.25,0.27 -0.28,0.23 -0.16,0.29 0.1,0.54 0.42,0.1 1.66,-0.55 0.3,-0.01 0.26,0.12 0.12,0.27 -0.07,0.28 -0.12,0.31 -0.05,0.34 -0.47,1.42 -0.1,0.84 0.47,0.43 0.56,0.19 0.41,0.36 0.2,0.51 -0.03,0.62 -0.46,1.21 -0.1,0.62 0.22,0.67 0.37,0.46 0.53,0.46 0.56,0.37 0.5,0.14 0.06,0.29 -0.43,2 -0.25,0.71 -1.89,2.57 -0.35,0.29 -1.23,0.07 -0.68,0.14 -0.48,0.3 -0.27,0.5 -0.04,0.7 0.05,1.22 -0.11,0.5 -0.27,0.6 -0.36,0.5 -0.85,0.86 -0.28,0.49 -0.16,0.74 -0.05,0.52 -0.18,0.5 -1.12,1.22 -0.31,0.46 -0.45,1.21 -0.36,0.67 -0.95,1.15 -0.38,0.68 -0.89,2.68 -0.2,0.25 -0.63,0.21 -0.29,0.17 -0.22,0.28 -0.27,0.62 -0.2,0.29 -0.31,0.25 -0.23,0.18 -1.18,0.61 -0.48,0.5 -0.13,0.27 -0.26,0.9 -0.25,0.37 -0.29,-0.01 -0.31,-0.16 -0.34,-0.11 -0.37,-0.05 -0.15,-0.08 -0.12,0.04 -0.27,0.29 -0.17,0.26 -0.12,0.31 -0.07,0.32 -0.02,0.32 0.07,0.36 0.23,0.61 0,0.44 -0.11,0.61 -0.12,0.23 -0.22,0.25 -0.14,0.03 -1.05,0.46 -0.32,-0.01 -0.25,-0.12 -0.28,-0.07 -0.39,0.18 -0.25,0.28 -0.13,0.33 -0.11,0.29 -0.21,0.26 -0.22,0.07 -0.63,0.03 -0.28,0.09 -0.56,0.51 -1.3,1.73 -0.3,0.68 -0.26,1.29 0.11,0.39 0.56,0.49 0.2,0.32 0.41,1.88 -0.03,0.61 -0.4,1.14 -0.3,1.53 -0.56,1.81 -0.22,0.1 -0.15,0.13 -0.11,0.17 -0.36,0.74 -0.48,1.49 -0.2,1.17 -0.26,0.46 -0.65,0.69 -0.61,0.91 -1.61,3.38 -0.86,1.2 -0.51,0.44 -0.23,-0.3 -0.06,-0.28 -0.27,-0.43 -0.1,-0.24 -0.03,-0.29 0.05,-0.62 -0.02,-0.29 -0.18,-0.97 -0.03,-1.36 -0.59,-0.96 -0.1,-0.35 -0.02,-0.21 0.03,-0.2 0.5,-1.21 0.13,-0.5 0.15,-1.37 0.33,-1.08 0,-0.63 -0.48,-1.75 -0.53,-0.89 -0.02,-0.61 0.21,-1.27 -0.15,-1.25 -0.95,-2.19 -0.12,-1.28 0,-1.29 0.13,-0.42 0.38,-0.15 0.64,0.09 0.38,0.26 0.51,0.89 0.31,-0.34 -0.02,-0.42 -0.21,-0.41 -0.3,-0.26 0.34,-0.18 0.33,0.05 0.31,0.22 0.27,0.32 0.2,-0.48 0.22,-0.82 0.16,-0.34 0.5,-0.71 0.08,-0.42 -0.18,-0.53 0.31,0.02 0.26,-0.06 0.24,-0.14 0.2,-0.23 -0.32,-0.11 -0.72,-0.07 -0.27,-0.13 -0.13,-0.18 -0.09,-0.24 0.08,-0.21 0.95,-0.24 0.33,-0.36 0.27,-0.35 0.41,-0.16 0.14,0.06 0.32,0.27 0.28,0.08 0.05,-0.09 0.42,-0.15 0.43,-0.08 0.08,0.1 0.18,-0.35 0.12,-0.53 0.03,-0.56 -0.15,-0.41 0.23,-0.18 -0.19,-0.29 -0.51,-0.38 -0.11,-0.17 0.07,-0.35 0.17,-0.15 0.22,-0.08 0.24,-0.14 0.17,-0.37 -0.12,-0.42 -0.23,-0.52 -0.12,-0.66 -0.52,0.17 -0.37,-0.25 -0.53,-0.94 1.31,-0.35 0.63,-0.38 0.27,-0.59 0,-0.94 0.36,-0.87 0.16,-0.63 0.18,-0.19 0.07,-0.17 -0.38,-0.51 -0.59,-1.43 -0.13,-0.5 -0.02,-0.51 0.17,-0.54 -0.72,0.18 -0.14,-0.27 0.25,-1.05 0.26,-0.61 0.6,-0.2 1.16,-0.11 -0.28,-0.42 -0.06,-1.16 -0.27,-0.49 -0.27,-0.07 -0.48,0.21 -0.25,-0.14 -0.07,-0.28 0.23,-0.5 -0.16,-0.26 0.39,-0.49 0.08,-0.47 -0.09,-1.08 0.07,-0.52 0.17,-0.69 0.32,-0.5 0.47,0.05 0.36,-0.2 0.22,0.1 0.21,0.19 0.32,0.11 0.33,-0.12 0.05,-0.3 -0.02,-0.34 0.13,-0.28 0.38,-0.07 0.56,0.09 0.55,0.19 0.35,0.22 0.2,0 -0.44,-0.87 -2.12,-0.42 -0.64,-0.56 0.21,-0.74 0.64,-0.69 0.4,-0.7 -0.49,-0.77 0.21,0.53 -0.17,0.35 -0.29,0.25 -0.27,0.34 -0.68,1.22 -0.2,0.03 -0.51,-0.05 -0.1,0.12 -0.08,0.07 -0.36,0.36 -0.06,0.09 -0.34,0.15 -0.1,0.36 -0.02,0.44 -0.15,0.37 -0.31,0.33 -0.24,0.11 -0.3,-0.07 -0.78,-0.46 -0.91,-0.7 -0.19,-0.22 -0.05,-0.31 -0.16,-0.37 0.01,-0.25 0.07,-0.22 0.35,-0.6 0.16,-0.12 0.16,0.04 0.1,-0.03 -0.04,-0.32 -0.8,0 0.46,-0.67 0.14,-0.14 0.22,-0.05 0.28,-0.01 0.23,0.03 0.08,0.03 0.26,-0.44 0.23,-0.56 0.38,-0.41 0.75,-0.04 -0.36,-0.43 -0.62,0.02 -1.25,0.41 -2.41,0 0.27,-0.62 0.59,-0.23 1.45,0.03 0.52,-0.13 0.56,-0.31 0.45,-0.37 0.34,-0.65 0.35,-0.14 0.36,-0.07 0.16,-0.09 0.03,-1.01 -0.03,-0.32 -0.21,-0.51 -0.23,-0.35 -0.07,-0.34 0.28,-0.47 -1.4,0.11 -0.2,-0.21 -0.39,-0.33 -0.33,-0.37 0.01,-0.33 0.2,-0.37 -0.14,-0.27 -0.19,-0.29 0.03,-0.43 0.21,-0.14 0.38,-0.12 0.66,-0.13 0,-0.22 -0.44,0 0.28,-0.33 0.83,-0.47 0.41,-0.34 0.11,-0.34 -0.1,-0.37 -0.2,-0.3 -0.21,-0.12 -0.98,0.15 -0.65,0.37 -0.58,0.47 -0.73,0.45 -0.24,-0.11 -0.52,-0.17 -0.22,-0.13 -0.48,-0.48 -0.23,-0.55 0.03,-0.58 0.35,-0.56 0.48,-0.34 0.57,-0.19 2.62,-0.54 0.62,-0.39 0.26,-0.6 -0.19,-0.48 -0.46,-0.28 -0.97,-0.38 -0.73,-0.72 -0.17,-0.13 -0.4,-0.13 -0.07,-0.33 0.16,-0.66 0.03,-0.67 0.14,-0.38 0.36,-0.19 0.68,-0.11 1.11,0 0.36,-0.09 0.22,-0.21 0.03,-0.2 -0.2,-0.1 -0.24,-0.04 -0.4,-0.26 -0.24,-0.13 -0.33,-0.05 -0.33,0.01 -0.32,-0.02 -0.27,-0.17 -0.23,-0.63 0.24,-0.64 0.39,-0.64 0.21,-0.65 0.09,-0.11 0.22,0.01 0.22,0.03 0.11,-0.03 -0.03,-0.19 -0.21,-0.44 0.08,-0.86 0.16,-0.38 0.21,-0.29 0.19,-0.18 0.13,-0.23 0.05,-0.45 -0.11,-0.08 -0.81,0.2 -0.39,-0.06 -0.2,-0.14 -0.02,-0.2 0.1,-0.22 0.23,-0.1 0.32,0.01 0.29,-0.06 0.17,-0.28 -0.25,-0.14 -1.25,0.14 -0.29,-0.3 -0.01,-0.34 0.04,0.07 0.15,-0.03 0.31,-0.16 0.21,-0.03 0.16,-0.1 0.13,-0.35 -0.51,-2.46 -0.28,-0.17 -0.69,-0.81 -0.34,-0.26 0.3,-0.67 0.2,-0.27 0.22,-0.11 -0.11,-0.16 -0.41,-1.1 -0.31,-0.62 -0.06,-0.31 -0.11,-1.17 0.05,-0.35 0.23,-0.23 -0.19,-0.89 -0.14,-2.2 -0.37,-0.45 -0.38,-0.2 -1.55,-1.24 -0.16,-1.1 -0.15,-0.38 -0.3,0.43 -0.13,-0.28 -0.08,-0.3 -0.01,-0.33 0.02,-0.34 -0.37,-0.93 -0.01,-0.41 0.38,-0.31 -0.04,-0.21 -0.01,-0.24 0.05,-0.57 -0.26,0.16 -0.15,0.24 -0.19,0.62 0.03,-0.51 -0.08,-0.46 -0.17,-0.39 -0.18,-0.32 -0.14,-0.11 -0.18,-0.1 -0.17,-0.14 -0.11,-0.25 0.02,-0.23 0.29,-0.27 0.07,-0.23 -0.15,-0.34 -0.69,-0.98 -0.27,-0.62 -0.3,-0.28 -0.39,-0.23 -0.4,-0.13 0.12,-0.37 -0.13,-0.27 -0.61,-0.41 0.01,-0.65 -1.11,-1.55 -0.31,-0.72 0.22,0.21 0.19,-0.4 -0.75,-0.19 -0.57,0.03 -0.37,-0.24 -0.13,-0.97 0.34,-1.1 0.07,-0.47 -0.07,-0.42 -0.1,-0.39 -0.02,-0.39 0.19,-0.44 -0.18,-0.33 -0.43,-1.65 0,-1.35 -0.07,-0.33 -0.1,-0.27 -0.02,-0.23 0.19,-0.23 0,-0.19 -0.33,-0.31 -0.4,-0.51 -0.35,-0.56 -0.14,-0.5 -0.19,0 -0.03,0.37 -0.14,0.63 -0.03,0.36 0.09,0.17 0.42,0.5 0.1,0.15 -0.04,0.85 -0.14,0.4 -0.33,0.42 -0.06,0.39 0.44,1.16 0.13,0.54 -0.07,0.57 -0.27,1.07 -0.25,2.51 0.41,1.4 0.07,0.54 -0.07,0.51 -0.23,0.57 -0.1,0.17 -0.1,0.14 -0.11,0.18 -0.11,0.32 -0.07,0.37 -0.02,0.29 0.09,0.62 0.35,0.37 0.1,0.24 -0.23,0.2 -0.23,-0.02 -0.22,-0.17 -0.37,-0.43 -0.04,0.23 -0.12,0.22 -0.04,0.17 -0.07,-0.33 0.02,-0.41 -0.04,-0.35 -0.21,-0.15 -0.13,-0.13 0.15,-0.28 0.26,-0.29 0.22,-0.15 -0.12,-0.15 -0.17,-0.31 -0.11,-0.16 0.42,-0.12 0.2,-0.36 -0.02,-0.48 -0.2,-0.47 0.49,0.02 0.03,-0.24 -0.25,-0.28 -0.37,-0.14 -0.71,0.04 -0.21,-0.05 -0.39,-0.18 0.1,-0.18 0.2,-0.48 0.1,-0.19 -0.73,-0.32 -0.27,-0.92 0.18,-0.77 0.62,0.15 -0.18,-1.35 -0.02,-1.26 0.17,-0.49 0.05,-0.3 -0.12,-0.12 -0.16,-0.05 -0.24,-0.13 -0.23,-0.17 -0.09,-0.2 -0.09,-0.72 -0.4,-1.25 -0.12,-0.63 0.14,-0.69 0.65,-0.93 0.24,-0.46 0.03,-0.42 0.3,-0.54 0.07,-0.4 -0.04,-0.29 -0.36,-1.07 0.4,0 -0.11,-0.4 -0.15,-0.33 -0.18,-0.06 -0.16,0.38 -1.41,-1.87 -0.8,-1.72 -0.63,-0.94 -0.22,-0.68 -0.14,-0.72 -0.04,-0.64 0.08,-0.67 0.4,-0.92 0.12,-0.58 -0.26,0.26 -0.21,0.32 -0.23,0.18 -0.3,-0.14 -0.12,-0.29 -0.3,-1.37 -0.9,-1.67 -0.23,-0.88 0.34,-0.8 -0.74,-0.53 -0.43,-0.78 0,-0.86 0.55,-0.76 1.15,-0.34 0.75,0.72 0.7,1 1.04,0.49 -1.04,-1.39 -0.3,-0.67 0.53,-0.21 -0.44,-0.18 -0.42,-0.24 -0.19,-0.34 0.25,-0.5 -0.22,-0.18 -0.2,-0.28 -0.14,-0.28 -0.06,-0.2 -0.06,-0.14 -0.14,0.11 -0.21,0.32 0.06,0.07 0.1,0.18 0.08,0.21 -0.02,0.19 -0.42,0.34 -0.42,-0.19 -0.3,-0.53 -0.08,-0.67 -0.2,0 -0.08,0.56 0.22,1.28 -0.24,0.25 -0.17,0.07 -0.15,0.17 -0.22,0.14 -0.37,0.03 -0.2,-0.08 -0.18,-0.16 -0.13,-0.19 -0.1,-0.19 -0.8,-3.49 -0.6,-0.9 0,0 0.06,-0.05 0.7,-0.5 0.41,-0.47 0.6,-0.95 0.49,-1.03 0.24,-0.68 0.19,-0.81 0.17,-1.12 0.12,-0.25 0.18,-0.19 0.59,-0.07 0.36,-0.01 1.01,-0.11 0.53,-0.12 0.77,-0.29 0.24,-0.03 0.23,0.08 0.25,0.28 1.12,1.91 0.35,0.43 0.3,0.28 0.1,0.07 0.18,0.09 0.36,0.1 z" 
                fill="rgb(151, 144, 238)" 
                stroke="white" 
                stroke-width=".7px"
                title="Tanintharyi" 
                id="MM-05" 
            />
        </svg>