<svg xmlns="http://www.w3.org/2000/svg" viewBox="103.89760999999993 346.5136100000003 34.13000000000005 44.35999999999967" width="34.13000000000005" height="44.35999999999967">
            <path 
                d="m 126.10761,370.46361 0,0 3.81,-0.26 2.56,0.22 1.59,0.31 0.38,0.13 0.26,0.14 0.23,0.19 0.94,1.08 1.08,0.96 0.43,0.15 0.21,0.16 0.29,0.35 0.14,0.42 -0.06,0.47 -0.44,0.71 -0.18,0.69 -0.42,1.07 -0.44,0.07 -0.21,0.2 0.04,0.26 0.3,0.31 -0.52,0.77 -0.51,0.47 -1.18,0.86 -0.28,0.33 -0.53,0.88 -0.56,1.69 -1.16,0.91 -0.71,0.84 -1.68,0.65 -1.81,0.39 -1.81,0.2 -1.06,-0.81 -0.68,-0.13 -0.59,-0.31 -1.99,-1.49 -0.49,-0.47 -0.21,-0.45 -0.03,-0.77 -0.1,-0.58 -0.17,-0.51 -0.6,-1.25 -0.18,-0.64 -0.08,-0.64 -0.02,-0.67 0.26,-0.49 1.19,-0.79 0.35,-0.32 -0.87,-0.09 -1.5,1.19 -1.04,0.18 0.17,0.29 0.5,0.58 0.11,0.28 0.2,1.16 0.3,0.52 0.77,0.91 0.16,0.58 -0.07,0.36 -0.3,0.66 -0.05,0.33 0.08,0.34 0.34,0.66 1.42,1.94 0.46,0.83 0.51,0.35 0.27,0.43 -0.45,0.74 -0.49,0.27 -0.57,1.24 -1.87,0.65 -1.7,0.38 -0.59,0.24 -0.74,0.09 -0.63,-0.21 -0.27,-0.65 -0.33,-0.34 -2.08,-0.81 0.31,0.28 -0.01,-0.01 -0.31,-0.14 -0.29,-0.33 -0.17,-0.08 -0.28,-0.08 -1.49,-0.02 -0.58,-0.13 -0.2,-0.07 -0.62,-0.36 -0.5,-0.54 -0.04,-0.43 -0.06,-0.15 -0.12,-0.19 -0.51,-0.27 -0.27,-0.3 0.16,-0.47 0.14,-0.21 1.04,-1.03 0.22,-0.31 0.11,-0.24 -0.04,-0.18 -0.04,-0.14 -0.16,-0.29 0.07,-1.27 -0.06,-0.19 -0.13,-0.28 -0.13,-0.11 -0.33,-0.61 0.41,-0.23 0.32,-0.34 0.41,-1.01 0.18,-1.18 -0.21,-0.85 -0.49,-0.84 -0.29,-0.68 0,-0.73 0.21,-0.56 0.02,-0.14 0.08,0 0.63,-1.22 -0.1,-0.85 -0.6,-0.76 -0.61,-0.59 -0.22,-0.37 -0.07,-0.25 0.02,-0.28 -0.02,-0.26 0,-0.58 -0.23,-0.42 -0.39,-0.39 -0.47,-0.81 -0.27,-0.62 -0.24,-0.39 -0.73,-0.73 -0.61,-0.46 -0.29,-0.34 -0.16,-0.3 -0.12,-0.29 -0.18,-0.2 -0.53,-0.4 -0.44,-2.02 -0.03,-0.88 0.26,-1.25 0.19,-0.59 0.86,-1.77 0.34,-1.39 0.79,-1.58 0.57,-0.6 0.67,-0.34 0.97,-0.77 0.48,-0.61 0.74,-1.39 0.37,-0.42 1.7,-0.93 0.49,-0.37 0.35,-0.32 0.38,-0.58 0.76,-0.94 0.37,-0.28 0.34,-0.1 0.27,0.1 0.18,0.14 0.21,0.32 0.92,2.21 5.34,9.28 0.22,0.51 1.03,4.58 0.18,0.42 0.22,0.36 0.42,0.53 0.57,0.89 0.34,0.74 0.25,1.16 0.02,0.41 -0.15,1.4 0.09,0.77 1.47,0.13 z" 
                fill="rgb(151, 144, 238)" 
                stroke="white" 
                stroke-width=".7px"
                title="Yangon" 
                id="MM-06" 
            />
        </svg>