<svg xmlns="http://www.w3.org/2000/svg" viewBox="720.2600699999999 285.84972 71.97000000000014 40.289999999999964" width="71.97000000000014" height="40.289999999999964">
            <path 
                d="m 750.33007,320.40972 -0.11,-3.61 -0.31,-0.84 -4.01,-1.28 -2.25,-0.45 -0.24,0.17 -0.33,0 -9.25,-1.57 -2.24,-3.46 -0.62,-0.65 -3.02,-1.56 -4.16,-0.6 -0.2,1.45 -3.03,-4.48 0,0 1.9,-1.21 -2.2,-2.67 2.03,-1.9 1.19,-0.8 8.59,-2.19 3.68,0.03 0.57,0.26 0.73,0.56 3.33,0.74 1.46,0.15 4.88,-0.44 0.53,-0.27 0.4,-0.45 1.26,-5.87 0,0 0.24,0.15 0.67,-0.01 2.85,-1.35 0.76,-0.18 1.22,-0.92 1.13,-1.24 0.69,-0.07 0.15,0.18 1.32,0.35 0.97,0.68 0.89,0.05 0.79,0.4 0.86,-0.09 0.78,0.17 0.66,0.32 0.26,1.17 -0.1,0.65 -0.82,1.52 0.01,0.22 0.18,0.22 0.15,-0.02 0.46,-0.72 0.23,-0.05 0.24,-0.03 0.47,0.24 0.42,0.39 1.32,2.26 0.58,0.69 0.2,2 0.77,0.55 1.2,0.35 1.33,0.65 1.57,0.58 0.55,-0.2 1.82,0.29 0.94,-0.4 0.92,-0.19 0.68,0.21 2.21,-0.56 0.72,0.02 0.82,0.45 1.52,1.67 0.38,1.05 0.17,0.15 0.66,0.16 0.51,-0.04 0.65,-0.25 0.19,-0.3 0.64,-0.33 0.4,-0.48 0.58,-0.02 0.35,-0.21 -0.15,-0.54 -0.58,-0.4 -0.35,-0.49 0.43,-1.42 0.23,-0.23 0.43,0.01 1.01,1.46 0.9,0.2 1.13,0.76 0.95,-0.52 1.5,0.07 0.43,0.38 0.23,0.97 -0.43,1.74 -0.43,0.61 -0.45,0.31 -2.88,1.21 -1.66,0.24 -0.63,0.87 -1.16,0.8 -1.4,0.78 -0.81,0.17 -0.05,0.23 -0.87,0.2 -1.34,0.74 -1,0.96 -1.54,0.5 -1.13,-0.15 -0.79,0.11 -0.31,0.36 -0.05,0.32 0.14,0.44 0.38,0.46 0.03,0.34 -0.74,0.61 -0.1,0.42 0.18,2.74 -0.07,1.07 -0.65,0.21 -0.52,-0.3 -0.96,-0.98 -1.5,-0.34 -0.32,0.37 -0.05,0.76 -0.87,0.63 -0.14,0.24 -0.21,1.4 -0.58,1.07 -0.67,0.16 -0.42,-0.04 -1.39,-1.12 -1.47,-0.07 -0.69,-0.38 -0.91,-0.87 -0.51,-0.18 -0.68,0.29 -0.21,-0.04 -1.37,-1.67 -0.55,-1 -1.39,-1.17 -0.4,-0.19 -0.98,0.43 -1.1,0.01 -0.4,0.54 0.15,0.28 1.12,0.38 0.32,0.31 0.46,1.03 1.05,0.32 0.41,0.56 -0.04,0.55 -0.35,0.4 -1.03,0.1 -0.27,0.19 -0.17,0.51 0.14,0.45 1.08,-0.11 0.26,0.37 0.23,1.47 0.49,0.53 0.24,0.75 -1.14,2.67 0.28,0.83 -0.07,0.64 -0.17,0.16 -0.3,0.06 -1.48,-0.38 -0.45,-0.27 -1.55,-1.6 -0.65,-0.46 -0.29,-0.1 -0.8,0.3 -0.32,-0.21 -0.5,-0.71 -0.29,-0.21 -0.9,0.01 -0.27,-0.11 -0.18,-0.4 0.33,-1.13 -0.06,-0.25 -0.45,-0.27 z" 
                fill="rgb(151, 144, 238)" 
                stroke="white" 
                stroke-width=".7px"
                title="Andijon" 
                id="UZ-AN" 
            />
        </svg>