<svg xmlns="http://www.w3.org/2000/svg" viewBox="285.8900699999998 261.11972000000003 148.41999999999996 152.00999999999993" width="148.41999999999996" height="152.00999999999993">
            <path 
                d="m 421.26007,383.36972 -3.77,3.59 -3.35,2.22 -0.57,0.11 -4.4,4.71 -0.35,1.03 0.15,0.86 0.71,1.2 0.83,0.88 0.82,1.17 0.23,0.51 -0.28,0.61 -18.12,6.64 -5.61,6.23 0,0 -2.13,-2.3 -0.41,-0.03 -1.18,0.3 -2.1,1.21 -1,0.26 -1.05,0.02 -1.38,-0.18 -0.85,-0.42 -2.95,-2.43 -2.87,-2 -6.79,-5.22 -1.82,-1.17 -4.68,-3.44 -1.31,-1.29 -1.15,-1.39 -0.29,-0.63 -0.41,-0.37 -0.78,-1.23 -3.57,-3.46 -2.02,-2.15 -3.97,-2.81 -4.38,-2.62 -4.45,-3.15 -4.24,-2.78 -10.26,-7.3 -6.96,-4.77 -14.33,-10.53 -1.18,-1.1 -0.91,-1.29 -0.16,-0.53 -0.2,-0.9 0.06,-0.55 -0.29,-0.7 -0.13,-1.75 -1.41,-2.07 0.02,-0.65 0.69,-1.19 0.08,-2.63 -0.38,-1.01 -0.14,-1.23 -0.59,-2.04 -0.06,-1.14 -0.23,-0.77 0.04,-0.6 0.36,-0.91 -0.03,-1.01 -0.75,-1.34 -1.16,-1.05 -0.72,-1.06 -0.06,-0.51 0.5,-1.54 0.29,-1.47 -0.04,-0.31 -1.32,-0.52 -1.32,-0.84 -1.32,-1.45 -1.27,-0.57 -1.32,-0.87 -0.4,-0.56 0,0 6.28,-7.61 4.59,-5.13 0.79,-3.8 0.03,-1.54 -0.68,-1.15 -5.91,-6.68 -3.24,-3.33 0,0 10.94,-5.06 -13.78,-19.18 0,0 0.56,-0.28 3.67,-0.92 13.55,-3.21 1.05,-0.08 3.34,6.7 1.39,2.06 2.15,2.32 2.39,1.55 3.54,1.9 1.57,1.58 2.08,4.35 1.4,5.15 0.57,1.39 0.88,-0.09 0.45,-0.37 2.04,-0.05 3.16,0.91 5.38,2.31 8.48,4.6 9.83,5.7 2.12,1.67 0.56,1.05 0.34,1.49 -0.48,2.23 3.4,-0.09 2.64,-0.23 0.55,-0.19 5.38,-12.19 1.04,-1.09 2.19,-1.17 0.88,0.15 1.67,1.93 0.1,7.61 16.19,1.89 0.19,-0.49 0.82,-4.49 0.57,-0.19 5.02,-0.58 3.79,-0.06 2.27,-0.38 1.13,-2.68 0.72,-2.1 0.45,-0.19 0.97,0.22 0.79,2.83 2.14,10.12 1.14,1.1 0.8,0.42 1.03,0.34 8.63,1.19 5.93,0.63 7.97,1.14 -1.4,9.26 -3.99,2.81 -0.17,1.03 -1.45,4.13 -3.35,4.14 -0.64,0.61 -0.94,0.38 -3.85,-0.23 -2.9,-0.54 -2.01,-0.99 -0.82,-0.79 -2,-1.3 -2.06,-0.12 -1.11,0.48 -0.36,0.62 0.36,3.32 -0.45,4.36 -1.29,5.71 -2.53,4.78 -2.13,2.47 -4.4,2.67 -0.89,0.33 -1.42,2.72 4.27,5.79 1.19,1.15 7.06,2.67 1.08,0.06 3.2,-0.78 4.91,3.69 4.39,9.39 0.36,1.15 z" 
                fill="rgb(151, 144, 238)" 
                stroke="white" 
                stroke-width=".7px"
                title="Buxoro" 
                id="UZ-BU" 
            />
        </svg>