<svg xmlns="http://www.w3.org/2000/svg" viewBox="662.7700700000001 303.52971999999977 87.55999999999995 37.869999999999834" width="87.55999999999995" height="37.869999999999834">
            <path 
                d="m 673.77007,331.35972 0.1,-0.66 -0.23,-0.55 -0.74,-0.66 -2.91,-1.31 -1.63,-0.33 -1,-0.4 -0.32,0 -0.9,0.43 -0.43,-0.03 -0.46,-0.21 -0.33,-0.37 -0.46,-1.11 -0.29,-0.31 -0.28,-0.1 -0.15,-0.74 -0.91,-1.77 -0.06,-0.61 0.13,-0.2 0.81,-0.22 1,-0.81 1.19,-0.22 1.1,-0.57 2.05,-0.72 0.8,0 0.47,-0.41 0.12,-0.81 0.44,-0.44 0.14,-0.89 0.19,-0.4 0.4,-0.22 0.59,-0.08 0.77,0.07 0.48,-0.36 0.72,-0.02 0.43,-0.16 0.87,-1.11 1.11,-2.22 0.36,-0.38 0.65,-0.18 0.68,-0.73 0.51,-0.17 0.15,-0.28 0.41,-0.08 0.41,-0.5 0.97,-0.22 0.4,0.28 0.32,0.03 0.05,-0.66 -0.18,-0.99 0.31,-0.23 0.28,0.25 0.66,-0.04 0.44,-0.58 0.3,-1 0.58,-0.53 0.06,-0.26 0,0 0.34,-0.09 0.26,-0.26 4.87,-1.25 3.37,-0.61 6.76,-0.1 0,0.22 -0.37,0.52 -1.36,1.66 0.83,1.97 1.87,1.86 5.59,2.73 0.4,0.08 0.75,-0.42 3.02,-2.85 0.76,-0.99 0.74,-1.45 1.24,-0.8 4.11,-2.23 3.44,-1.03 0,0 3.03,4.48 0.2,-1.45 4.16,0.6 3.02,1.56 0.62,0.65 2.24,3.46 9.25,1.57 0.33,0 0.24,-0.17 2.25,0.45 4.01,1.28 0.31,0.84 0.11,3.61 0,0 -0.49,0.04 -1.07,-0.26 -0.39,0.08 -0.51,1.38 -0.3,0.5 -0.63,0.6 -0.46,0.24 -0.37,0.07 -0.59,-0.2 -0.89,-0.59 -0.46,1.04 0.45,1.71 -0.14,0.34 -0.64,0.71 -0.07,0.57 -0.29,0.4 -1.37,0.41 -1.04,1.34 -0.51,0.38 -0.8,1.13 -1.19,0.52 -0.93,0.86 -0.12,0.26 0.21,0.5 0.98,0.23 0.98,0.89 -0.07,0.49 -1.11,1.03 -0.46,1.08 -0.29,0.32 -0.66,0.33 -0.62,-0.02 -1.27,-0.92 -2.02,-0.47 -0.48,0.39 -0.13,0.48 0.05,0.27 0.74,1.13 0.02,0.53 -0.75,0.5 -0.54,-0.03 -2.49,1.59 -1.32,0.42 -0.92,0.66 -0.35,0.06 -0.25,-0.14 -0.46,-0.85 -0.43,-0.51 -0.24,-0.07 -0.36,-0.4 -0.15,-0.36 0.17,-1.9 -0.19,-0.81 -0.68,-0.91 -0.52,-0.36 -0.77,-0.08 -1.23,0.12 -0.11,0.84 0.24,1.43 -0.21,0.95 0.08,0.56 -0.12,0.2 -0.29,-0.03 -0.81,-0.96 -1,0 -0.55,0.19 -0.92,-0.58 -1.77,-0.79 -0.22,-0.54 0.19,-1.35 -0.24,-0.52 -1.3,-0.03 -1.54,-0.4 -0.63,-0.5 -1.09,-1.23 -0.41,-0.27 -0.49,-0.15 -0.5,0.22 -0.62,0.06 -0.16,-0.31 0.09,-0.39 -0.32,-0.25 -1.53,0.64 -0.75,0.1 -0.27,-0.1 -0.15,-0.27 -0.02,-1 -1.54,0.11 -1.01,-0.34 -1,-0.09 -0.83,0.11 -1.38,0.46 -0.98,-0.02 -0.61,0.21 -2.56,1.78 -1.95,0.35 -2.07,0.9 -0.45,0.29 -0.14,0.27 0.31,0.92 -0.11,0.97 -2.38,0.07 -1.95,0.35 -0.27,-0.09 -1.7,1.26 -2.47,1.1 -1.58,0.33 -1.4,0.12 -3.13,0.69 -0.83,-0.34 -1.18,-2.14 -0.32,-0.88 -0.72,-0.39 -0.53,-0.94 0.13,-0.11 0.07,-1.28 0.37,-0.99 -0.55,-1.75 z" 
                fill="rgb(151, 144, 238)" 
                stroke="white" 
                stroke-width=".7px"
                title="Farg‘ona" 
                id="UZ-FA" 
            />
        </svg>