<svg xmlns="http://www.w3.org/2000/svg" viewBox="490.66006999999985 274.98972000000003 111.21999999999986 105.97000000000003" width="111.21999999999986" height="105.97000000000003">
            <path 
                d="m 580.63007,374.69972 -0.48,0.25 -0.21,1.54 -0.32,1.02 -0.82,0.73 -1.08,-0.38 -1.15,0.26 -2.96,-0.47 -1.86,0.81 -0.39,-0.12 -0.79,-0.76 -0.51,-0.24 -1.42,-0.32 -1.77,-0.21 -1.26,0.14 -0.93,0.26 -0.74,-0.13 -1.02,-0.59 -0.74,0.1 -2.23,-0.16 -0.97,-0.48 -0.74,-0.19 -1.09,0.09 -0.6,-0.15 -1.1,-0.85 -0.91,-0.37 -1.37,-0.08 -0.92,0.1 -1.87,-0.84 -0.96,-0.88 -1.38,-0.08 -2.43,-1.65 -0.7,0.39 -1.21,0.32 -1.93,-0.83 -0.4,-0.01 -0.88,1.02 -1.09,0.38 -0.64,0.45 -0.94,1.53 -0.58,0.16 -1.43,0.03 -3.98,1.49 -0.12,0.68 0.2,1.61 -0.41,0.51 -2.22,-0.55 -0.46,0.11 -0.35,0.8 -0.02,1.31 0.32,0.51 0,0 -4.53,-3.82 -1.03,-1.05 -0.65,-0.96 -0.21,-0.95 -0.02,-4.16 0.1,-0.37 3.22,-5.24 0.76,-0.91 0.69,-0.54 2.16,-1.03 1.54,-0.38 1.3,-0.15 -0.08,-1.02 -1.07,-5.96 -0.21,-0.24 -11.87,-2.53 -4.81,-0.4 -2.12,-0.8 -5.83,-3.93 -0.35,-3.71 0.1,-0.35 1.24,-0.29 0.24,-0.16 0.45,-1.34 0.07,-0.81 -1.44,-2.81 -1.86,-1.66 -0.84,-4.1 -0.1,-3.93 0.14,-0.77 0.83,-1.83 -0.01,-1.1 -0.96,-2.18 -4.61,-0.1 -7.79,-0.92 0,0 0.73,-1.79 4.43,-8.59 3.12,-5.32 0.28,-0.74 -1.57,-6.86 -0.23,-0.53 -0.25,-0.23 -4.27,-1.05 -0.95,-0.58 -0.72,-1.27 -1.13,-10.64 6.71,-0.22 0.29,-2.93 0.22,0.04 0.52,-4.76 0,0 17.4,1.31 4.64,0.52 2.72,0.01 0.85,0.56 0.87,0.13 1.25,-0.41 1.27,-0.2 15.41,0.47 1.41,1.29 0.87,0.23 2.05,2.49 3.32,3.08 1.47,-1.3 0.84,1.19 3.05,-1.98 1.38,1.29 0.59,-0.26 0.79,0.47 -2.47,0.53 -1.41,1.48 1.39,3.45 -1.48,1.47 0.08,5.22 -4.07,0.15 -0.73,2.28 1.44,2 2.44,0.68 5.77,3.4 3.59,4.03 3.79,1.34 0.44,0.38 0,0 -0.17,2.84 -0.34,0.61 -1.86,-0.1 -2.1,0.54 -0.48,4.89 0.16,0.27 2.11,-1.02 0.33,-0.1 0.16,0.2 -0.15,0.77 -0.77,2 -4.95,11.04 -0.2,1.52 0.15,0.96 0.34,0.9 0.66,0.97 0.32,0.05 6.55,0.31 4.57,-0.17 4.02,-0.82 2.28,-0.79 7.13,-1.64 0.31,0.68 -1.01,6.41 0,0 -1.55,0.28 -0.09,0.14 -2.89,0.84 -0.24,0.6 0.86,0.8 2.62,1.54 1.23,-0.03 2.15,-0.45 1.31,-0.56 2.87,-0.81 1.23,-0.55 3.43,-0.89 1.68,-0.21 3.15,-0.11 0.84,0.65 0.41,1.28 0.45,2.38 -0.32,0.66 -0.75,0.06 -1.53,-0.36 -0.9,-0.01 -0.75,0.03 -1.52,0.35 -1.17,0.88 -0.21,1.04 -0.15,0.12 -0.46,-0.26 -0.3,-1.29 -0.73,-1.1 -0.65,-0.1 -0.58,0.2 -0.24,0.28 -0.03,0.53 0.35,0.57 0.94,0.94 0.05,0.63 -0.41,1.35 0.03,0.3 1.5,1.4 2.61,3.24 0.54,1.1 0.04,0.75 -0.2,0.69 -0.71,0.72 -0.81,0.1 -0.62,-0.31 -0.6,-0.94 -0.07,-1.78 -1.35,-3.21 -0.72,-0.88 -0.4,-0.07 -0.47,0.22 -0.12,0.4 0.08,1.1 1.04,1.98 0.81,1.92 0.03,0.69 -0.36,0.8 -0.36,0.27 -0.92,0.21 -0.3,0.39 -0.27,1.43 -0.24,0.22 -0.46,0.11 -0.56,-0.42 -0.31,-1.27 -0.78,-0.89 -0.46,-0.13 -1.47,1.23 -0.51,-0.3 -1.2,-0.15 -0.09,1.15 0.3,1.67 -0.32,1.31 -0.49,0.85 -0.25,0.92 -0.3,0.56 -0.64,0.27 -0.63,0.04 -0.42,0.51 0.27,0.64 1.88,2.68 -0.27,1.72 -2.37,2.68 z" 
                fill="rgb(151, 144, 238)" 
                stroke="white" 
                stroke-width=".7px"
                title="Jizzax" 
                id="UZ-JI" 
            />
        </svg>