<svg xmlns="http://www.w3.org/2000/svg" viewBox="665.6900700000002 255.79971999999998 84.84000000000015 57.52000000000032" width="84.84000000000015" height="57.52000000000032">
            <path 
                d="m 749.31007,281.14972 -0.5,-0.84 -0.46,-0.29 -0.45,-0.07 -0.45,0.24 -1.05,-0.35 -0.76,-0.03 -1.88,1.36 -0.35,0.08 -0.68,-0.3 -1.74,-1.12 -1.14,-0.31 -1.22,-0.14 -1.16,0.79 -0.46,-0.22 -0.56,-0.05 -1.62,-0.65 -0.32,-0.41 0.02,-0.88 -0.56,-0.06 -0.37,-0.2 -0.07,-0.21 0.64,-2 0.92,-1.61 0.78,-0.8 0.47,-0.82 0.56,-1.35 -0.05,-0.25 -1.08,-0.58 -0.85,-1.03 -0.28,-0.65 0.13,-1.3 -0.14,-0.37 -0.38,-0.28 -0.41,0.24 -0.34,0.56 -0.81,0.17 -0.25,-0.17 -0.06,-0.19 0.26,-1.3 -0.62,-1.06 -1.4,-1.35 -1.05,-2.21 -0.37,-0.1 -0.14,0.12 -0.11,1.69 -0.17,0.26 -0.31,0.07 -0.21,-0.41 -0.1,-0.68 -0.31,-0.27 -0.38,-0.03 -0.63,0.45 -0.12,0.4 0.41,0.66 -0.06,0.56 -0.27,0.21 -0.42,-0.26 -0.41,-0.71 -0.1,-0.46 0.09,-0.43 0.84,-1.1 0.46,-0.83 0.07,-0.47 -0.24,-1.41 0.13,-0.3 -0.06,-0.74 0.43,-0.9 -0.35,-0.61 -1.14,-0.05 -0.36,0.1 -0.77,0.72 -0.76,1.36 -0.44,0.5 -1.26,0.43 -0.24,0.35 0.05,0.42 0.32,0.24 1.14,0.11 0.57,0.23 0.5,0.78 0.13,0.68 -0.34,1.22 -0.44,0.81 -0.04,0.41 0.8,1.23 -0.29,0.66 -0.66,0.72 -0.36,0.7 -0.27,0.98 -0.22,0.01 -0.36,-0.25 -0.26,0.25 -0.32,0.72 -0.6,0.49 -0.17,0.58 -0.17,0.04 -0.25,0.95 -0.38,0.32 -0.6,-0.16 -0.61,-0.69 -0.4,-0.22 -0.88,-0.02 -0.42,0.35 -0.67,0.14 -0.82,-0.51 -0.32,0.07 -1.44,1.72 -0.05,0.41 0.25,0.77 -0.26,0.85 0,0.53 0.18,0.37 0.86,0.37 0.3,0.72 -0.89,2 -0.32,1.99 -0.71,1.61 -0.03,0.37 -1.03,1.12 -0.53,0.04 -0.26,-0.17 -0.15,-0.29 -0.23,-1.77 -0.23,-0.49 -0.79,-0.83 -0.39,-0.19 -0.54,0.01 -0.51,0.3 -0.35,0.41 -0.23,1.41 -0.4,0.76 -0.8,0.75 -0.51,0.12 -0.38,-0.11 -0.14,-0.3 0.22,-2.39 -0.26,-1.43 -0.26,-0.42 -0.95,-0.63 -0.3,-0.04 -0.62,0.29 -0.13,0.4 0.04,0.54 -0.31,0.23 -0.28,-0.06 -0.43,-1.06 -0.32,-0.01 -0.35,0.3 -0.47,0.72 -0.48,-0.02 -0.26,0.15 -0.83,0.88 -0.5,0.29 -0.4,0.03 -1.21,-0.43 -0.41,-0.37 -0.61,-1.02 -0.8,-0.19 -1.23,-0.8 -0.59,0.03 -2.66,1.81 -0.56,-0.2 -0.54,-1.23 -0.92,-0.86 -0.86,-0.54 -0.58,-0.85 -0.53,-0.5 -0.27,-0.04 -0.71,0.32 -0.47,0.68 -0.83,2.06 -0.3,0.44 -0.33,0.16 -0.86,-0.35 -0.5,-0.61 -0.22,-0.9 0.03,-1.09 0.74,-0.95 0.18,-0.6 -0.1,-0.35 -0.62,-0.91 -0.25,-0.74 -0.07,-1.79 0.42,-0.92 0.25,-1.16 -0.49,-2.05 -2.55,-4.08 -0.42,-1.17 -0.19,-0.16 -1.21,-0.34 -0.31,0.03 -1.14,0.85 -1.23,-0.06 -1.52,0.48 -0.98,0.84 -0.41,0.74 -1.68,1.39 -2.08,0 -0.5,-0.54 0,0 -0.68,1.93 -2.97,4.11 0.67,7.3 1.91,2.62 0.66,1.34 0.24,2.33 0.03,1.75 -0.15,0.88 0.2,0.42 0,0 0.45,-0.02 0.73,0.4 0.27,0.68 1.1,0.89 0.07,0.62 0.32,0.24 0.88,1.19 0.68,0.02 0.55,1.37 1.01,1.25 0.39,0.89 1.11,1.65 0.46,1.18 0.27,0.01 0.12,0.37 0.97,0.83 0.56,1.37 0.83,0.31 0.53,0.47 0.73,0.99 -0.48,0.38 -0.17,-0.09 -0.29,0.18 0.08,0.32 -0.19,0.29 -0.37,0.1 -0.57,-0.25 -0.47,-1.21 -0.37,1.24 0.04,0.71 0.32,0.64 0.83,-0.24 1.23,0.1 0.85,0.45 -0.28,0.18 0.9,0.04 0.43,0.23 1,0.85 0.22,0.49 0,0 0.34,-0.09 0.26,-0.26 4.87,-1.25 3.38,-0.61 6.75,-0.1 0,0.22 -0.37,0.52 -1.36,1.66 0.83,1.97 1.88,1.85 5.58,2.73 0.4,0.08 0.76,-0.42 3.02,-2.85 0.76,-1 0.75,-1.45 1.23,-0.79 4.11,-2.23 3.44,-1.03 0,0 1.9,-1.21 -2.2,-2.67 2.03,-1.89 1.2,-0.8 8.59,-2.19 3.67,0.03 0.58,0.25 0.73,0.56 3.33,0.75 1.46,0.15 4.88,-0.44 0.53,-0.27 0.4,-0.46 1.26,-5.86 0,0 -0.42,-0.26 -0.45,-0.58 0.16,-0.33 1.26,-0.3 0.53,-0.41 0.47,-1.02 -0.45,-0.82 -0.77,-4.63 z m -70.46,14.69 -3.18,-4.31 -1.22,-0.9 -1.01,-0.03 -0.19,-0.68 0.27,-0.47 0.73,-0.56 -0.27,0.38 1.2,0.51 1.51,1.77 1.73,2.35 0.64,1.58 -0.21,0.36 z" 
                fill="rgb(151, 144, 238)" 
                stroke="white" 
                stroke-width=".7px"
                title="Namangan" 
                id="UZ-NG" 
            />
        </svg>