<svg xmlns="http://www.w3.org/2000/svg" viewBox="264.9700700000001 116.59971999999992 234.80999999999995 266.7700000000001" width="234.80999999999995" height="266.7700000000001">
            <path 
                d="m 498.40007,274.98972 -0.52,4.76 -0.22,-0.04 -0.29,2.93 -6.71,0.22 1.13,10.64 0.72,1.27 0.95,0.58 4.27,1.05 0.25,0.23 0.23,0.53 1.57,6.86 -0.28,0.74 -3.12,5.32 -4.43,8.59 -0.73,1.79 0,0 -1.26,-3.47 -1.86,-2.66 -0.97,-1.12 -0.58,-0.27 -2.11,1.92 -2.35,1.29 -1.38,0.11 -1.83,-0.25 -1.04,-0.79 -1.03,-1.55 -1.19,-0.09 -1.11,0.19 -0.91,1.08 -2.15,4.68 -0.59,4.91 0.25,0.35 0.54,0.2 0.37,0.72 -0.17,2.27 -0.88,6.12 -0.86,1.34 -2.3,6.07 0.2,0.98 0.8,0.1 1.43,-0.92 0.82,0.07 0.18,0.45 -0.14,1.12 -0.43,0.62 -3.49,3.29 -1.63,0.76 -8.91,1.93 -1.22,-0.2 -5.38,-2.3 -2.09,-1.14 -0.46,-1.04 -1,-1.55 -5.48,-2.07 -1.01,-0.17 -0.52,0.28 -0.35,0.57 -0.16,0.7 0.05,0.97 -0.42,5.8 -1.83,5.54 -0.71,1.29 -0.52,0.3 -0.59,0.01 -2.85,-0.88 -1,-0.49 -8.65,2.92 -0.5,0.35 -0.08,0.37 0.33,0.77 1.48,1.53 0.97,0.81 0.94,1.45 1.35,5.22 -0.17,0.97 -0.51,1.46 -1.17,2.34 -0.04,0.63 0.17,0.81 0.81,1.81 2.12,3.8 0,0 -0.4,0.43 -0.53,0.21 -2.6,0.4 -1.39,0.37 -0.8,0.38 -1.17,0.81 0,0 0,0 0,0 -0.29,-3.38 -0.36,-1.15 -4.39,-9.39 -4.91,-3.69 -3.2,0.78 -1.08,-0.06 -7.06,-2.67 -1.19,-1.15 -4.27,-5.79 1.42,-2.72 0.89,-0.33 4.4,-2.67 2.13,-2.47 2.53,-4.78 1.29,-5.71 0.45,-4.36 -0.36,-3.32 0.36,-0.62 1.11,-0.48 2.06,0.12 2,1.3 0.82,0.79 2.01,0.99 2.9,0.54 3.85,0.23 0.94,-0.38 0.64,-0.61 3.35,-4.14 1.45,-4.13 0.17,-1.03 3.99,-2.81 1.4,-9.26 -7.97,-1.14 -5.93,-0.63 -8.63,-1.19 -1.03,-0.34 -0.8,-0.42 -1.14,-1.1 -2.14,-10.12 -0.79,-2.83 -0.97,-0.22 -0.45,0.19 -0.72,2.1 -1.13,2.68 -2.27,0.38 -3.79,0.06 -5.02,0.58 -0.57,0.19 -0.82,4.49 -0.19,0.49 -16.19,-1.89 -0.1,-7.61 -1.67,-1.93 -0.88,-0.15 -2.19,1.17 -1.04,1.09 -5.38,12.19 -0.55,0.19 -2.64,0.23 -3.4,0.09 0.48,-2.23 -0.34,-1.49 -0.56,-1.05 -2.12,-1.67 -9.83,-5.7 -8.48,-4.6 -5.38,-2.31 -3.16,-0.91 -2.04,0.05 -0.45,0.37 -0.88,0.09 -0.57,-1.39 -1.4,-5.15 -2.08,-4.35 -1.57,-1.58 -3.54,-1.9 -2.39,-1.55 -2.15,-2.32 -1.39,-2.06 -3.34,-6.7 -1.05,0.08 -13.55,3.21 -3.67,0.92 -0.56,0.28 0,0 -20.92,-28.67 12.85,-7.1 -6.74,-12.15 1.26,-15.77 27.66,-52.21 -15.44,-4.18 -5.85,-10.49 0,0 42.36,-8.25 20.45,-3.61 3.48,0.68 3.01,0.36 9.7,1.05 5.93,0.38 2.4,0.42 14.18,1.09 13.64,0.67 0.2,-0.15 0.85,-0.04 10.52,-5.17 7,-3.06 4.38,-2.19 2.06,-0.51 1.08,-0.11 1.67,0.07 0.83,0.32 0.76,0.58 0.99,1.14 5.73,12.62 2.02,1.91 3.6,3.74 10.88,9.68 1.5,6.07 6.64,21.39 12.57,-5.92 0.35,31.3 -0.05,7.21 -0.58,-0.18 -2.42,-1.23 -0.25,0 -0.1,6.6 -0.91,1.1 -0.3,16.64 0.07,2.15 24.14,2.92 3.48,39.7 z" 
                fill="rgb(151, 144, 238)" 
                stroke="white" 
                stroke-width=".7px"
                title="Navoiy" 
                id="UZ-NW" 
            />
        </svg>