<svg xmlns="http://www.w3.org/2000/svg" viewBox="387.5500699999996 379.05972 153.2300000000003 91.72999999999968" width="153.2300000000003" height="91.72999999999968">
            <path 
                d="m 421.26007,383.36972 1.17,-0.81 0.8,-0.38 1.39,-0.37 2.6,-0.4 0.53,-0.21 0.4,-0.43 0,0 0.69,0.16 17.55,0.53 1.49,-0.18 1.31,-0.55 1.43,-1.07 0.19,-0.27 0.04,-0.33 4.31,0.88 3.3,3.81 2.77,4.65 0.09,1.49 0.22,0.21 0.72,0.25 3.08,0.78 1.53,-0.04 2.21,-1.38 3.27,-1.67 7.55,-1.87 0.63,0.16 1.17,0.75 1.65,1.44 1.64,1.15 0.69,0.33 0.3,-0.01 3.64,-1.56 0.82,-0.96 1.1,-1.78 0.83,-0.95 0.81,-0.28 1.19,-0.06 8.57,1.53 0.63,0.67 0.49,1.32 -0.11,1.26 -0.46,1.7 0.06,0.58 0.33,0.48 0.93,0.53 1.89,0.15 3.88,-0.24 0.82,-0.21 0.42,-0.48 0.11,-0.35 -0.07,-1.78 0.43,-0.48 0.88,-0.05 4.46,1.27 2.56,1.09 3.84,1.19 1.65,0.32 1,-0.23 0,0 0.38,1.58 1.39,2.41 0.73,0.75 0.96,0.53 1.76,0.37 0.62,0.41 0.85,0.29 0.8,0.02 1.03,-0.22 1.08,0.19 1.02,0.47 0.65,1.67 0.57,0.23 1.59,0.08 0.28,0.29 -0.01,0.57 -0.35,0.51 -0.21,2.5 0.44,1.26 0.13,2.05 0.39,0.56 0,0 -0.8,0.82 -0.98,0.58 -3.99,0.23 -0.86,0.26 -0.51,0.25 -0.67,0.57 -0.45,0.84 -0.06,0.4 0.54,3.14 1.02,2.1 0.38,0.46 0.15,0.52 0.13,4.2 -1.34,4.3 -0.54,-0.18 -1.41,-1.43 -1,-0.32 -1.43,-0.07 -1.14,0.33 -0.45,0.34 -0.59,0.64 -0.81,1.3 -1.19,2.22 -8.89,8.88 -0.72,3.35 -0.16,1.52 -0.37,1.4 -0.45,0.87 -2.42,2.43 -1.83,1.28 -3.54,1.85 -11.58,12.1 -0.43,1.25 -1.04,4.27 0.27,0.9 0,0 -2.39,-2.79 -1.05,-0.67 -1.48,-0.61 -3.19,-0.35 -2.63,0.82 -0.57,0.06 -1.26,-0.33 -1.23,-1.07 -2.79,-1.64 -1.83,-2.07 -1.29,-2.33 -0.47,-0.3 -1.9,-0.11 -3.5,-1.03 -0.63,-0.4 -0.5,-0.97 -1.17,-0.4 -0.87,-0.13 -0.76,-0.8 -0.47,-0.17 -1.37,0.07 -0.83,-0.27 -0.9,-0.6 -1.91,-1.96 -0.9,-0.24 -1.07,0.01 -0.97,0.27 -0.73,1.4 -0.56,-0.07 -0.14,0.1 -0.16,0.64 -0.37,0.17 -0.53,0 -4.68,-0.96 -9.93,-3.92 -1.95,-1.12 -6.41,-4.13 -1.85,-1.49 -2.7,-2.52 -7.61,-7.6 -0.58,-0.39 -2.73,-1.25 -3.5,-1.33 -2.94,-1.37 -1.73,-1.26 -0.61,-0.66 -8.98,-5.55 -2.72,-1.9 -5.54,-5.13 -1.19,-1.31 0,0 5.61,-6.23 18.12,-6.64 0.28,-0.61 -0.23,-0.51 -0.82,-1.17 -0.83,-0.88 -0.71,-1.2 -0.15,-0.86 0.35,-1.03 4.4,-4.71 0.57,-0.11 3.35,-2.22 z" 
                fill="rgb(151, 144, 238)" 
                stroke="white" 
                stroke-width=".7px"
                title="Qashqadaryo" 
                id="UZ-QA" 
            />
        </svg>