<svg xmlns="http://www.w3.org/2000/svg" viewBox="421.8700699999999 312.9397200000001 111.11000000000018 79.95999999999992" width="111.11000000000018" height="79.95999999999992">
            <path 
                d="m 532.92007,390.83972 -0.11,0.3 -1.6,-0.31 -0.97,0.21 -3.33,1.15 -0.23,0.29 0,0.19 0,0 -1,0.23 -1.65,-0.32 -3.84,-1.19 -2.56,-1.09 -4.46,-1.27 -0.88,0.05 -0.43,0.48 0.07,1.78 -0.11,0.35 -0.42,0.48 -0.82,0.21 -3.88,0.24 -1.89,-0.15 -0.93,-0.53 -0.33,-0.48 -0.06,-0.58 0.46,-1.7 0.11,-1.26 -0.49,-1.32 -0.63,-0.67 -8.57,-1.53 -1.19,0.06 -0.81,0.28 -0.83,0.95 -1.1,1.78 -0.82,0.96 -3.64,1.56 -0.3,0.01 -0.69,-0.33 -1.64,-1.15 -1.65,-1.44 -1.17,-0.75 -0.63,-0.16 -7.55,1.87 -3.27,1.67 -2.21,1.38 -1.53,0.04 -3.08,-0.78 -0.72,-0.25 -0.22,-0.21 -0.09,-1.49 -2.77,-4.65 -3.3,-3.81 -4.31,-0.88 -0.04,0.33 -0.19,0.27 -1.43,1.07 -1.31,0.55 -1.49,0.18 -17.55,-0.53 -0.69,-0.16 0,0 -2.12,-3.8 -0.81,-1.81 -0.17,-0.81 0.04,-0.63 1.17,-2.34 0.51,-1.46 0.17,-0.97 -1.35,-5.22 -0.94,-1.45 -0.97,-0.81 -1.48,-1.53 -0.33,-0.77 0.08,-0.37 0.5,-0.35 8.65,-2.92 1,0.49 2.85,0.88 0.59,-0.01 0.52,-0.3 0.71,-1.29 1.83,-5.54 0.42,-5.8 -0.05,-0.97 0.16,-0.7 0.35,-0.57 0.52,-0.28 1.01,0.17 5.48,2.07 1,1.55 0.46,1.04 2.09,1.14 5.38,2.3 1.22,0.2 8.91,-1.93 1.63,-0.76 3.49,-3.29 0.43,-0.62 0.14,-1.12 -0.18,-0.45 -0.82,-0.07 -1.43,0.92 -0.8,-0.1 -0.2,-0.98 2.3,-6.07 0.86,-1.34 0.88,-6.12 0.17,-2.27 -0.37,-0.72 -0.54,-0.2 -0.25,-0.35 0.59,-4.91 2.15,-4.68 0.91,-1.08 1.11,-0.19 1.19,0.09 1.03,1.55 1.04,0.79 1.83,0.25 1.38,-0.11 2.35,-1.29 2.11,-1.92 0.58,0.27 0.97,1.12 1.86,2.66 1.26,3.47 0,0 7.79,0.92 4.61,0.1 0.96,2.18 0.01,1.1 -0.83,1.83 -0.14,0.77 0.1,3.93 0.84,4.1 1.86,1.66 1.44,2.81 -0.07,0.81 -0.45,1.34 -0.24,0.16 -1.24,0.29 -0.1,0.35 0.35,3.71 5.83,3.93 2.12,0.8 4.81,0.4 11.87,2.53 0.21,0.24 1.07,5.96 0.08,1.02 -1.3,0.15 -1.54,0.38 -2.16,1.03 -0.69,0.54 -0.76,0.91 -3.22,5.24 -0.1,0.37 0.02,4.16 0.21,0.95 0.65,0.96 1.03,1.05 4.53,3.82 0,0 2.23,4.67 0.83,2.3 0.94,1.95 0.21,0.81 z" 
                fill="rgb(151, 144, 238)" 
                stroke="white" 
                stroke-width=".7px"
                title="Samarqand" 
                id="UZ-SA" 
            />
        </svg>