<svg xmlns="http://www.w3.org/2000/svg" viewBox="559.1000700000001 288.8097200000001 47.739999999999895 51.7999999999999" width="47.739999999999895" height="51.7999999999999">
            <path 
                d="m 596.13007,337.79972 -1.61,0.97 -1.29,0.33 -2.39,-0.67 -0.98,0.44 -5.44,1.74 0,0 1.01,-6.41 -0.31,-0.68 -7.13,1.64 -2.28,0.79 -4.02,0.82 -4.57,0.17 -6.55,-0.31 -0.32,-0.05 -0.66,-0.97 -0.34,-0.9 -0.15,-0.96 0.2,-1.52 4.95,-11.04 0.77,-2 0.15,-0.77 -0.16,-0.2 -0.33,0.1 -2.11,1.02 -0.16,-0.27 0.48,-4.89 2.1,-0.54 1.86,0.1 0.34,-0.61 0.17,-2.84 0,0 3.65,3.11 1.89,-0.5 1.91,1.57 -0.54,1.14 4.87,1.43 0.81,-1.12 2.4,0.18 4.31,-1.73 -0.84,-2.09 -2.41,-1.29 -1.13,-3.29 -3.28,-4.53 0.87,-7.45 -1,-2.53 0.86,-0.9 -0.88,-1.39 -3.62,-0.23 -0.01,-1.3 4.92,0.31 0.32,0.6 2.36,-1.47 -0.02,0.24 0.31,0.09 0.2,1.2 0.67,0.25 0.8,-0.37 0.94,0.21 0.37,0.38 -0.14,0.33 -1.44,0.55 -0.19,0.35 -0.03,0.56 0.54,1.06 0.4,-0.33 0,0 4.86,5.52 3.47,3.47 4.92,4.44 4.71,3.91 0.62,0.08 3.03,4.23 -0.5,4.7 -0.86,5.32 -1.01,4.96 0.02,1.06 0.14,0.62 0.5,1.05 -0.25,4.73 0,0 -1.11,-0.35 -2.57,-0.02 -3.36,0.35 z" 
                fill="rgb(151, 144, 238)" 
                stroke="white" 
                stroke-width=".7px"
                title="Sirdaryo" 
                id="UZ-SI" 
            />
        </svg>