<svg xmlns="http://www.w3.org/2000/svg" viewBox="188.0100699999999 228.85971999999984 110.54999999999987 90.2300000000001" width="110.54999999999987" height="90.2300000000001">
            <path 
                d="m 282.54007,312.32972 -1.26,-2.86 -0.52,-0.75 -0.69,-0.61 -0.3,-0.81 -0.16,-2.77 -0.46,-0.74 -0.26,-1.03 -1.22,-2.04 -0.09,-1.22 0.16,-1.18 -0.07,-1.98 -0.15,-0.48 -0.25,-2.85 0.23,-1.62 -0.22,-0.4 -0.51,-0.21 -0.18,-0.72 0.02,-0.64 -0.29,-0.81 -0.74,-0.94 -1.47,-0.78 -0.57,-0.11 -0.45,-0.26 -0.3,-0.56 0.19,-0.94 -0.37,-1.05 -0.47,-0.87 -1.22,-0.73 -1.88,-1.98 -1.13,-0.34 -1.49,-1.01 -2.03,-2.41 -0.48,-0.3 -1.27,-0.13 -0.66,-0.23 -0.49,-0.34 -0.41,-0.38 -0.28,-0.95 -0.38,-0.72 -0.85,-0.64 -0.47,-0.01 -1.3,0.57 -1.77,-0.14 -0.74,-0.22 -1.61,-0.9 -1.76,-0.29 -0.52,0.04 -0.47,0.31 -0.82,1.47 0.06,2.65 -0.45,0.8 -0.28,1.57 -0.43,0.91 -0.35,0.39 -0.49,0.33 -1.05,0.16 -0.15,0.14 -1.67,0.19 -0.33,-0.1 -1.32,0.05 -0.2,-0.13 -0.28,0.1 -0.7,-0.16 -3.1,-1.48 -2.13,-2.23 -0.34,-0.15 -2.01,0.18 -1.32,-1.56 -4.91,-0.22 -0.42,0.21 -1.04,-0.07 -2.18,0.32 -2.58,-0.12 -1.68,0.31 -3.93,0.01 -4.76,0.3 -0.88,-0.05 -2.6,0.43 -0.95,-0.06 -0.72,-0.24 -3.24,-1.94 -2.91,-2.6 -6.11,-4.17 -3.37,-1.93 -1.16,-1.04 -0.57,-1.24 -0.02,-0.69 0.16,-0.79 0.04,-2.99 0.28,-1.86 0.38,-0.81 2.14,-2 0.25,-0.61 0,-1.17 -0.27,-0.89 -1.13,-2.02 -1.15,-1.53 -1.85,-2.89 -0.38,-1.5 0.52,-1.24 0.56,-2.25 0.24,-0.14 0.31,0.02 0.9,0.49 1,-0.02 1.98,0.72 1.11,0.53 1.28,1.05 1.19,-0.03 0.78,0.63 0.82,0.27 0.26,-0.4 0.73,0.01 0.26,-0.16 0.03,-0.44 -0.52,-0.7 -1.13,-0.89 -1.16,-1.32 -1.25,-0.57 -1.65,-0.37 -1.39,-0.87 -0.76,-0.85 -0.31,-0.72 0,0 2.67,-5.23 1.9,-0.85 4.26,-1.39 5.28,1.12 0.39,0.48 0.16,0.58 0.04,2.64 0.41,2.45 3.08,5.39 0.38,0.47 0.66,0.65 0.7,0.31 5.17,4.83 3.35,3.9 1.57,1.51 8.23,7.31 5.96,4.54 1.41,0.58 2.16,0.36 0.74,0.29 0.71,0.61 2.01,2.27 0.37,0.87 0.26,1.16 2.25,1.44 1.49,0 0.72,-0.76 0.51,-1.88 1.17,-2.3 0.78,-0.88 1.39,-0.77 0.62,-0.2 3.04,0.01 8.95,2.06 3.52,1.86 3.08,1.91 8,8.81 1.5,2.77 4.56,7.41 0.27,0.22 0.65,0.19 2.55,-1.22 0,0 3.24,3.33 5.91,6.68 0.68,1.15 -0.03,1.54 -0.79,3.8 -4.59,5.13 -6.28,7.61 0,0 z" 
                fill="rgb(151, 144, 238)" 
                stroke="white" 
                stroke-width=".7px"
                title="Xorazm" 
                id="UZ-XO" 
            />
        </svg>