<svg xmlns="http://www.w3.org/2000/svg" viewBox="530.2069400000001 252.29270999999983 171.2499999999999 139.82000000000028" width="171.2499999999999" height="139.82000000000028">
            <path 
                d="m 620.77694,255.05271 2.32,1.51 0.97,1.14 2.45,0.22 0.95,2.44 8.65,-0.97 6.1,8.55 9.25,-3.23 4.15,1.72 -0.08,2 6.65,2.92 5.65,3.16 6.04,0.15 1.09,1.66 0,0 0.92,-0.03 1.09,-0.71 0,0 0.57,1.43 0.63,0.73 0.87,-1.23 0,0 0.57,0.01 -0.73,1.14 0.65,0.14 0,0 0.68,0.03 0.68,0.51 0.63,-1.16 0.46,-0.02 -0.36,0.98 0,0 -0.98,0.73 0.27,0.3 0.85,-0.17 -0.69,0.91 6.44,7.55 0,0 1.52,5.75 3.15,3.43 -0.6,4.2 0.24,1.58 0.71,0.62 2.01,-0.72 0,0 0.33,0.45 1.71,1.03 0.72,0.64 3.36,0.72 0.27,0.38 0.52,1.98 -0.74,3.53 -2.06,3.04 -1.03,-0.72 -2.46,-2.19 -1.04,-0.26 -1.57,0.33 -1.12,0.45 -1.86,1.28 -1.24,0.12 -0.57,-0.33 -0.34,-1.01 -0.19,-0.1 -1.04,0.27 -0.5,-0.15 -0.13,-1.11 -0.22,-0.43 -0.24,-1.26 -0.72,-0.55 -0.37,-0.65 -0.82,-0.45 -0.19,0.3 -0.4,0.2 -0.64,-0.15 -0.93,0.74 -0.28,0.55 -0.72,0.17 -0.29,0.4 -0.52,0.31 -0.96,0.16 -0.3,-0.53 -0.12,0.02 -0.93,0.88 -0.61,-0.14 -0.21,-0.18 -0.59,0.56 -0.97,0.16 -0.38,-0.12 -0.14,0.2 -0.73,0.23 -0.28,0.53 -0.21,0.05 -0.93,-0.28 -0.04,0.33 -0.29,0.31 -0.05,0.35 -0.21,0.23 -0.4,-0.02 -0.76,0.26 -1.24,-0.04 -1.18,1.01 -0.71,0.07 -0.72,-0.46 -1.27,-0.36 -0.44,-0.44 -0.14,0.06 -0.11,0.59 -0.38,0.35 -1.75,0.74 -0.92,-0.12 -0.88,0.13 -0.39,-0.31 -0.45,0.1 -0.48,0.41 -0.35,0.96 -0.9,0.63 -0.76,0 -0.39,-0.52 -0.26,-0.08 -0.55,0.21 -0.73,0.61 -0.46,0.15 -0.85,0.05 -0.48,-0.44 -0.67,0.06 -0.65,-0.17 -0.16,0.27 0.24,0.55 -0.06,0.25 -0.29,-0.16 -0.29,0.06 -1.12,1.23 -1.97,1.25 -0.31,0.35 -0.5,0.15 -0.22,0.35 0.22,0.24 0.52,-0.37 0.43,-0.01 0.64,0.43 0.51,0.07 0.57,1.69 0.79,0.43 1.57,-0.24 0.62,-0.56 1.46,0.21 0.69,-0.52 0.49,0.06 0.3,0.34 -0.11,0.34 0.17,0.09 0.83,-0.24 0.46,0.91 1.6,0.8 0.69,0.67 0.1,0.72 -1.66,0.56 -0.79,0.8 0.83,1.28 -0.25,0.56 -0.52,2.17 -0.42,0.74 0.4,1.31 0.38,3.06 0.39,1.15 0,2.14 0.28,1.84 0.58,1.45 -0.13,0.56 0.03,0.27 0.28,0.36 -0.05,0.76 1.02,2.25 -0.06,0.82 0.32,1.47 0.36,0.26 1,2.23 2.46,6.2 0.3,0.4 0.26,0.94 -0.23,0.81 0.03,0.52 -0.49,0.5 -0.96,2.06 0.04,0.19 0.23,0.29 1.36,-0.09 0.27,0.12 0.04,0.74 0.4,0.8 0.02,0.67 0.34,0.81 -0.44,0.82 -0.61,0.05 -0.45,0.38 -0.5,-0.3 -0.54,-0.1 -1.47,0.42 -1.77,1.46 -1.79,0.51 -0.41,0.47 -0.01,0.83 0.31,0.58 0.64,0.63 0.89,0.58 1.66,0.43 0.43,0.75 -0.05,0.12 -0.21,-0.04 -0.55,0.3 -0.22,-0.23 -0.08,0.23 -0.34,0.13 -0.32,-0.14 -0.13,0.28 -1.42,0.6 0.01,0.26 -0.43,0.29 -0.3,-0.11 -0.52,0.21 -0.01,-0.22 -0.54,0.21 -0.1,-0.29 -0.18,-0.01 -1.06,0.18 -0.06,0.8 -0.32,0.8 -0.39,1.66 -0.69,0.67 -0.3,1.12 0.2,1.05 0.62,1.29 0.58,0.54 0.53,0.05 0.21,0.24 -0.37,0.43 -0.82,0.41 -0.12,0.59 -0.03,0.88 0.41,0.57 -0.03,1.42 0.91,0.65 -0.23,0.79 0.47,0.65 -0.17,0.96 -0.64,0.37 -0.36,0.02 -0.35,-0.28 -0.23,-0.01 -0.56,0.46 -0.3,-0.06 -0.52,0.36 -0.15,-0.09 -0.13,-0.45 0.16,-1.3 -0.36,-0.55 -0.32,-0.91 -0.45,-0.29 -0.76,-0.19 -0.78,-0.75 -0.32,-0.92 -0.28,-0.5 -0.23,-0.15 -1.16,-0.08 -0.18,0.39 -0.26,0.07 -0.15,-0.19 0,-0.36 -0.14,-0.05 -0.86,-0.07 -0.31,-0.2 -0.47,0.07 -0.26,-0.42 -1.56,-0.25 -0.94,0.66 -0.83,-0.14 -1.23,0.02 -0.49,-0.82 -1.74,-1.4 -0.47,-1.03 -0.24,-0.23 -1.14,-0.88 -0.92,-0.25 -0.36,-0.47 -0.29,-0.11 -0.8,-1.4 -0.2,-1.09 0.09,-0.49 0.23,-0.32 -0.12,-0.11 -0.47,0.01 -1.04,0.34 -0.31,0.67 -0.2,0.13 -0.59,-0.77 -0.35,-0.2 -0.76,0.09 -0.56,-0.21 -0.55,0.16 -0.53,-0.36 -1.02,-0.2 -0.5,-0.27 -0.51,0.05 -0.58,-0.5 -0.59,0.03 -0.28,-0.21 -0.72,0.26 -0.55,-0.74 -1.99,-0.46 -0.44,-0.7 -0.75,-0.28 -1.69,0.7 -0.62,-0.23 -0.33,0.65 -0.48,0.15 -2.97,-0.68 -0.4,0.62 -0.97,-0.17 -0.47,0.15 -0.47,0.53 -0.38,-0.55 -0.35,-0.21 -0.3,0.01 -0.73,0.45 -0.62,-0.67 -0.61,0.19 -0.72,-0.35 -0.67,0.04 -0.35,-0.15 -0.58,-0.66 -1.59,0.1 -1.19,-0.26 -1.16,-0.02 -1.02,-0.38 -0.94,0.11 -0.6,-0.22 -2.06,0.54 -1.63,0.05 -0.71,-0.22 -0.57,-0.79 -0.35,-0.21 -1.73,-0.18 -0.85,0.14 -2.21,-0.58 -1.61,0.02 -0.85,0.83 -0.91,0.13 -0.32,0.83 -0.31,0.25 -2.24,-0.2 -0.8,0.08 -1.01,-0.24 -0.56,0.79 -0.79,0.08 -1.89,0.54 -0.47,-0.02 -0.15,-0.13 -0.3,-0.91 -0.61,-0.36 -2.6,-0.11 -1.92,0.36 -0.24,-0.11 -0.31,-0.43 -0.9,-0.1 -0.65,-0.54 -0.61,0.3 -0.65,-0.19 -0.94,0.48 0,0 -0.15,0.02 -0.2,-0.94 -1.01,0.44 -1.08,-0.68 -1.88,0.21 0,0 -0.22,-0.43 1.12,-0.34 0,0 0.52,-1.06 -3.66,-1.73 -1.88,-0.39 -0.46,-1.9 -0.75,-0.33 0.27,-1.15 -0.74,-0.44 0.22,-2.26 2.58,-3.13 -0.7,-1.18 -2.91,0.36 0.29,-0.93 -1.1,-0.14 -0.66,0.45 -3.28,-1.15 -0.01,-1.72 4.25,-4.04 0.74,-0.35 0.46,-1.25 -0.45,-1.93 0.86,-0.99 0.44,-1.16 -0.09,-3.34 -2.02,-1.38 -1.1,-1.49 -1.21,-0.17 0,0 -1.86,-1.71 -0.33,-0.04 0,0 -4.34,-0.47 -3.71,-3.55 -0.63,-0.99 0.89,-3.28 -1.86,-3.21 -6.24,-4.37 -0.38,-1.19 -0.76,-0.91 -0.16,-3.34 -5.45,-0.14 -0.35,-5.11 5.87,0.43 -1.06,-2.79 -0.84,-10.2 1.85,-3.12 0,0 1.56,-3.41 1.7,-2.81 0,0 2.23,-2.51 4.13,-4.24 5.29,-4.78 11.11,-6.39 4.63,0.93 5.94,-1.1 6.63,1.17 -0.02,0.82 0,0 1.12,0.3 1.33,-1.57 0,0 0.54,1.63 0.6,-0.73 1.77,0.64 0.61,-1.44 1.26,0.2 1.79,0.53 2.95,1.31 -2.1,-2.12 1.35,-0.25 2.05,1.05 1.93,-0.27 1.94,1.03 0.64,1.64 1.46,-0.22 -0.03,-1.78 5.89,-0.66 -0.84,-14.68 0,0 0.53,-0.98 5.02,1.12 2.85,-3.2 2.48,2.61 0,0 3.13,-3.99 z" 
                fill="rgb(151, 144, 238)" 
                stroke="white" 
                stroke-width=".7px"
                title="Almaty oblysy" 
                id="KZ-ALM" 
            />
        </svg>