<svg xmlns="http://www.w3.org/2000/svg" viewBox="367.15694 58.43271200000001 172.27999999999992 116.19999799999985" width="172.27999999999992" height="116.19999799999985">
            <path 
                d="m 379.81694,99.882712 3.13,0.189998 1.65,3.46 2.9,-1.29 3.7,-0.57 0.14,3.08 6.23,0 1.97,1.06 2.15,0.27 1.24,-0.71 4.11,1.46 -0.22,-6.69 4.32,-0.12 1.14,1.42 2.77,1.12 2.05,1.88 0.53,0.3 1.13,-1.12 -0.5,-0.7 0.59,-1.03 0.77,0.59 2.43,-2.649998 -0.22,-0.95 -1.19,-0.48 -0.43,-2.18 2.83,0.06 0.76,-1.69 0.83,-0.48 2.14,0.29 0.49,-1.58 0.54,-0.09 0.37,-1.86 1.39,-0.84 0.81,-0.08 0.33,-1.19 0.67,0.05 0.86,-0.88 0.53,0.18 1.66,-0.83 -1.65,-1.88 1.07,0.22 -0.92,-3.19 2.99,-2.76 -1.14,-1.58 0.69,-0.22 0.07,-1.36 -0.34,-1.11 -1.35,-0.11 0.25,-2.3 -2.17,-0.17 -0.61,-1.27 -1.07,-0.36 -0.09,-1.1 -1.4,-2.03 0.59,-0.91 0.82,-0.08 0.56,-0.23 0.04,-0.82 0.99,-0.75 0.51,0.59 0.6,-1.19 -0.95,0.06 -0.06,-1.65 2.86,0.08 0.44,-0.52 -0.52,-0.59 0.16,-0.54 -0.64,-1.01 1.5,0.11 0.17,-0.81 1.91,0.14 0.09,0.98 2.74,-0.2 -0.06,-1.67 1.91,0.15 0.06,1.39 1.22,0.24 0.23,0.84 0.81,0.21 0.35,1.13 0.05,1.52 1.34,0.38 0.63,-1.46 -1.08,-0.23 -0.33,-1.54 0.82,-0.08 0.36,-1.63 1.08,0.23 0.46,-0.93 0.95,-0.06 0.73,-0.78 4.22,0.07 0.19,1.54 1.07,0.37 0.22,3.33 -0.47,1.06 0.66,0.33 0.44,-0.65 2.41,0.61 1.39,-0.57 0.17,1.8 -0.84,0.48 0.22,0.85 -0.82,0.07 0.08,0.96 -0.58,0.51 3.8,-0.1 0.3,-0.52 0.68,0.05 0.1,0.56 1.98,2.5 0.29,1.54 1.89,-0.25 -0.36,-2.36 1.76,-0.26 0.47,-2.71 8.21,-0.23 -0.08,0.96 0.26,0.02 -0.29,1.9 3.14,0.56 0.21,0.58 1.72,0.02 0.73,-0.76 0.54,-0.09 0.46,-0.64 1.21,-0.17 0.65,-1.31 1.98,0.05 -0.12,1.23 4.03,4.38 -0.78,1.17 -0.63,2.28 0.62,1.71 -1.24,0.56 0.02,1.1 0.94,1.06 0.26,1.26 5.67,0.71 4.6,-0.35 0.91,-2.38 3.75,-0.83 0.83,0.78 1.81,-0.9 2.1,-0.02 0.63,-0.9 0.66,-0.06 0.41,1.03 0.01,2.37 0.82,0.93 0.54,5.75 2.49,-1.06 3.72,1.89 2.64,-0.06 0.24,1.28 1.45,-0.07 1.39,2.67 7.52,0.56 0,0 0.06,0.56 1.02,0.15 0.45,19.959998 0.41,0.87 -1.19,0.23 -2.73,2.15 -0.61,0.72 -0.1,5.89 3.56,-1.75 0.99,2.29 2.29,0.21 1.9,1.09 -0.48,0.73 -1.04,0.11 -0.76,0.95 -1.98,-0.56 -4.33,2.83 -0.29,2.22 -2.1,2.48 0,0 -3.33,-0.99 -1.26,1.94 -0.56,-1.66 -0.53,0.19 0.31,0.57 -1.59,0.45 -0.53,-0.87 -0.94,0.4 -0.32,1.55 0.85,0.38 1.2,2.67 -0.2,0.63 0.7,0.49 1.04,-2.23 1,0.14 2.53,1.14 -2.89,2.76 -5.16,1.67 0.69,1.67 -1.08,0.51 -1.67,0.17 -0.79,1.34 -3.14,-1.33 -1.14,2.08 -0.77,0.17 -0.19,0.5 0.56,0.59 -1.31,1.53 -2.81,0.17 -0.12,1.03 -0.71,-0.35 -0.99,0.92 0.55,0.72 -1.41,1.25 2.11,1.43 -1.61,0.84 -2.23,-1.44 -0.77,1.2 -1.44,0.48 0.43,2.9 -1.3,0.36 0.27,0.94 -2.43,-1.85 -4.08,0.43 -0.48,0.98 -1.21,-0.4 1.78,-2.51 -0.35,-1.46 0.59,-0.84 -0.18,-0.67 -0.59,-0.33 1.33,-1.79 -2.2,-1.95 -1.4,0.1 -0.26,-1.07 -1.32,0.5 -0.28,-0.94 -0.9,0.16 0.04,0.78 -2.91,1.24 -0.55,2.92 -1.39,-0.02 -0.63,1.23 -1.74,-0.19 -1.52,1.26 0.41,0.94 -2.57,1.8 -1.38,-0.02 -0.3,0.48 -1.28,0.26 -0.25,6.4 -1.4,-2.45 -4.19,1.88 1.21,3.07 -0.62,1.22 -2.15,0.29 -2.79,1.78 -1.57,0.74 -1.2,-0.62 0.08,-2.17 1.73,-2.52 -0.41,-0.93 -0.91,0.3 -0.59,-1.72 -6.05,1.75 -0.87,-0.08 -0.66,0.33 -0.86,-0.21 -1.15,0.28 0.47,-2.51 -1.13,-0.1 -0.57,-0.69 -0.73,-1.74 -0.51,0.09 -0.59,0.97 -0.36,-1.7 -2.64,1.44 0.69,2.24 -1.6,1.01 -0.87,-0.07 -0.57,-0.69 -0.2,0.88 0.57,0.69 -0.24,1.38 -0.51,0.08 -0.83,-0.7 -2.5,1.32 -2.52,-1.61 -1.13,-0.09 -0.32,-0.79 -1.56,0.51 -0.67,-1.2 1.39,-1.55 0.81,-3.78 0.86,-1.34 -0.43,-2.61 0.94,-0.57 0.27,-6.81 -6.03,0.17 -0.6,1.11 -2.37,0.85 -4.22,3.17 -1.83,-1.43 -2.75,0.58 -1.15,-0.21 1.3,1.76 0.14,1.69 0,0 -2.31,1.76 -8.47,1.1 -4.58,2.91 -2.76,-4.27 2.16,-1.28 -1.27,-3.16 -1.67,-0.61 -4.81,1.4 -5.18,-1.84 -1.54,-1.11 -2.41,0.64 -1.01,-4.06 -1.49,0.7 -0.64,-0.55 -0.94,0.46 0.04,-1.16 -0.68,0.61 0.05,-1.29 -0.22,-1.18 -3.64,-2.14 -1.21,3.95 -3.87,0.44 -0.74,-1.59 1.28,-6.04 -4.14,-4.01 1.1,-0.99 -1.67,-2.18 2.77,-2.47 -0.92,-0.71 1.64,-4.77 -1.77,-3.67 -2.43,-0.13 -0.98,-3.37 3.38,0.33 5.1,-2.62 0.8,-3.53 0.86,-5.01 2.38,-1.99 z" 
                fill="rgb(151, 144, 238)" 
                stroke="white" 
                stroke-width=".7px"
                title="Aqmola oblysy" 
                id="KZ-AKM" 
            />
        </svg>