<svg xmlns="http://www.w3.org/2000/svg" viewBox="139.44693999999996 134.01271 205.29999999999993 178.85999999999999" width="205.29999999999993" height="178.85999999999999">
            <path 
                d="m 243.32694,290.21271 -1.66,0.88 -2.03,0.43 -0.96,0.64 -0.86,1.18 -0.96,2.03 -0.75,2.14 -0.11,1.92 -0.85,0.43 -0.64,1.07 -0.05,0.83 -7.92,2.24 -28.04,8.87 0,0 -2.79,-20.57 -1.75,-4.85 0,0 -1.6,-3.13 0.36,-1.18 -2.29,-2.96 -0.24,-3.7 -11.41,-3.4 -3.95,-1.64 -5.83,-5.87 -1.21,-4.7 -2.9,-3.66 1.53,-11.71 0.74,-4.55 -1.32,-2.25 -0.43,-5.41 -3.03,-3.39 0.7,-2.66 -1.08,-4.64 -0.74,-1.26 0.64,-4.64 0.57,-0.45 -0.09,-4.69 -3.49,-0.3 -0.01,-1.24 -1.46,-1.06 -0.64,1.08 -1.27,-0.33 0.06,1.73 -0.48,2.55 -2.12,-0.21 -1.17,-0.59 -4.63,-0.49 0.78,-1.98 -0.83,-1.89 0.56,-1.7 -1.35,-6.85 -1.02,-0.24 -0.88,2.26 -1.19,-0.59 0.29,-0.79 -2.36,-1.07 -1.54,-1.42 0,0 -0.18,-2.77 1.28,-4.37 -0.68,-1.56 1.21,0.6 0.79,-2.02 1.5,-1.35 1.9,0.01 0.35,-1.45 2.4,-0.05 1.66,0.3 1.91,-1.13 -0.45,-0.83 1.35,-1.7 0.41,-1.07 2.15,0 -1.14,-1.39 1.87,-3.29 -0.07,-0.89 0.87,-1.76 -0.25,-1.52 -1.31,-0.62 -0.06,-0.77 -0.92,-0.28 -0.07,-2.57 0.36,-2.11 -1.46,-2.03 2.07,-2.2 -0.33,-0.87 2.45,-2.92 -0.3,-0.43 0,0 0.6,0.4 0.36,-0.13 1.13,-1.77 0.7,-0.39 0.38,-0.64 -0.32,-1.37 -0.78,-1.79 -0.32,-2.22 0.59,-1.25 0.4,-1.32 0.58,0.21 0.47,-0.06 0.67,0.37 0.32,-0.01 0.25,-0.18 0.17,0.16 0.1,0.58 0.45,0.14 0.32,0.5 0.41,-0.16 -0.03,-0.59 0.45,-0.11 0.12,-0.27 0.32,0.03 0.16,-0.23 0.49,-0.04 0.25,0.12 0.47,-0.6 -0.1,-0.61 0.83,-0.41 0.63,0.37 0.36,0.43 0.1,0.72 -0.13,0.35 -0.63,0.79 -0.15,0.39 0.15,0.38 0.55,0.5 0.93,0.59 4.07,3.81 0.35,0.14 0.6,-0.57 1.58,0.09 0.4,0.94 1.25,0.65 2,1.55 0.37,0.01 0.42,-0.35 0.39,-0.91 1.56,-0.91 0.96,-0.28 2.12,-1.13 1.02,-0.95 1.1,-0.8 0.73,-0.28 0.25,-0.27 0.1,-0.33 -0.12,-0.98 0.05,-1.01 0.76,-2.52 0.31,-0.44 0.4,-0.14 1.62,0.83 1.19,0.01 0.55,-0.49 0.21,-1.35 0.28,-0.14 0.9,0.19 0.35,-0.24 0.11,-0.48 -0.29,-1.3 -0.01,-0.93 0.65,-0.74 0.1,-0.03 0.49,0.62 0.17,0.63 1.03,0.56 0.92,1.25 0.92,0.05 0.92,0.5 0.24,-0.2 0.15,-0.83 -0.39,-1.07 -0.18,-1.09 0.12,-0.09 1.13,-0.03 0.39,-0.14 0.48,0.06 1,0.8 0.4,0.08 1.05,-0.67 0.37,0.18 0.42,0.44 0.47,0.1 1.97,-0.74 1.15,-0.6 0.37,0.42 0.34,1.18 0.63,0.5 0.75,0.31 0.5,0.84 0.04,1.07 0.6,0.78 1.76,1.2 1.34,0.39 0.33,-0.12 0.06,-0.22 -0.27,-0.66 0.08,-0.24 1.61,-0.77 0.99,0.01 0.53,0.98 0.82,-0.36 0.3,-1.09 0.13,-3.89 0.16,-1.39 0.47,-0.24 0.77,-0.06 0.45,0.7 0.6,0.44 0.31,-0.05 0.24,-0.31 0.5,-0.12 0.36,0.72 0.85,-0.02 0.25,0.37 0.95,-0.89 0.28,-0.03 0.47,-0.4 0.22,0.34 -0.08,0.66 0.18,0.45 1.46,0.34 0.11,-0.1 -0.12,-0.33 0.09,-0.27 0.51,-0.12 0.2,-0.27 -0.14,-0.89 0.47,-0.22 0.33,-0.34 0.16,0.09 0.17,-0.18 0.16,0.1 0.22,-0.33 0.66,0.27 0.6,1.89 0.28,0.38 0.5,0.09 1.13,-0.26 0.97,0.11 0.78,0.16 0.38,0.44 0.75,1.56 -0.04,0.42 -0.4,0.54 -0.29,1.17 0.14,2.01 0.49,1.49 0.45,0.27 0.6,0.06 1.7,-0.64 0.75,0.06 0.23,0.33 -0.23,0.98 0.15,0.65 1.34,0.64 0.4,1.08 0.62,0.48 1.08,0.15 0.84,-0.24 0.46,0.03 1.39,0.5 2.23,0.25 0.51,0.21 0.33,0.53 0.37,0.11 0.46,-0.39 1.67,0.4 1.32,-0.36 0.38,0.01 1.23,1.69 0,0.24 -0.42,0.19 -0.05,0.18 0.03,1.84 0.03,0.24 0.22,0.05 1.53,-0.78 3.41,-0.87 0.91,-0.48 1.27,-2.12 2.05,-5.36 0.58,-0.84 0.68,-0.28 1.32,0.19 0.87,0.45 0.19,0.28 0.05,1.4 2.37,2.96 0.75,0.42 2.35,0.29 2.11,0.16 2.02,-0.11 1.2,0.24 1.5,-0.02 1.93,-0.69 1.56,-0.08 8.13,-3.31 0.46,-0.39 0.3,-0.81 0.58,-3.81 1.76,-8.88 1.63,-0.55 0,0 1.29,0.63 1.43,-0.63 0.87,-1.52 1.36,2.1 0.17,1.97 0.96,3.23 1.58,0.62 1.03,-1.44 0.52,-0.38 2.88,1.73 0,1.2 -0.65,0.11 -0.65,2.25 3.5,3.41 -2.2,1.53 0.39,1.72 -0.01,1.84 2.72,-0.85 1.78,9.06 2.57,4.09 0.39,1.56 4.23,6.32 0.38,1.56 -0.94,3.3 -3.08,-2.53 -3.1,2.75 -0.28,3.2 -3.07,1.87 0.63,3.45 0.63,0.9 -2.29,-0.79 -1.65,2.15 1.01,1.15 3.55,6.01 -0.64,0.49 -0.38,-0.38 -2.91,0.47 -0.5,1.39 2.52,-0.23 1.39,4.81 5.42,5.36 4.2,-2.29 2.02,1.8 0.12,1.12 -1.29,1.72 0.74,2.51 6.34,2.15 1.13,1.27 3.17,1.2 3.15,2.2 4.19,8 0,0 3.56,6.23 1.77,0.79 -4.31,4.75 -22.92,16.02 0,0 -1.46,0.47 -0.85,-1.22 -5.59,-0.87 0.84,-1.94 -5.36,-6.82 -2.43,0.37 -1.6,-3.05 -3.32,-5 -11.81,2.72 -6.69,17.89 -8.13,-0.67 -0.56,6.16 -5.96,0.49 -7.83,7.27 -1.64,2.56 -2.24,2.45 -4.27,6.41 z" 
                fill="rgb(151, 144, 238)" 
                stroke="white" 
                stroke-width=".7px"
                title="Aqtöbe oblysy" 
                id="KZ-AKT" 
            />
        </svg>