<svg xmlns="http://www.w3.org/2000/svg" viewBox="234.43694000000005 267.58271000000025 52.389999999999986 61.11999999999978" width="52.389999999999986" height="61.11999999999978">
            <path 
                d="m 277.79694,268.86271 -0.32,1.39 0,1.6 -0.11,1.71 1.92,2.35 2.67,-0.11 2.99,0.53 1.07,-0.86 0.75,0.11 0.06,1.68 -0.32,3.31 -1.22,2.08 -1.9,1.13 -1.81,0.68 -1.4,1.27 -2.04,0.36 -1.81,1.68 0,0 -0.32,1.22 -0.68,0.95 0,0 -1.54,0.32 -1.22,0.36 0,0 -0.23,0.97 -0.41,0.54 0,0 -0.27,1.54 0,0 -0.27,1.31 -1,0.68 0.09,0.86 0,0 0.05,1.09 0.95,1.04 0.41,1.59 0.32,1.31 0,0 -0.09,1.63 -0.73,1.68 0,0 -0.23,1 0.91,0.68 0.45,1.63 0.05,3.67 -0.5,1.13 0,1.18 0.5,1.68 0.86,0.73 0.41,1.27 1.18,0.09 0.77,0.95 0.82,2.67 0.45,2.08 -0.27,1.95 -0.68,1.95 -0.59,0.32 -0.45,0.45 0,0 -0.52,0.41 -7.16,-5.17 -0.02,0 0,-0.01 -16.66,-12.03 -0.02,0.01 0,0 -0.03,-0.77 -0.32,-0.86 -0.59,-0.59 -0.73,-0.45 -0.23,-0.77 -0.18,-0.82 -0.59,-1.22 0.5,-0.63 0.09,-1 -0.18,-1.54 0.23,-0.91 -0.41,-0.77 -0.91,0 -0.63,-0.23 -0.36,-0.41 -0.68,-0.36 -0.36,0.45 -0.32,0.73 -0.68,0.5 0,0 -0.55,0.31 0,0 -0.81,-0.03 -0.54,-0.27 -0.63,0 -0.23,0.45 0,0.95 -0.41,0.27 -0.1,0.99 0,0 -4.81,-3.47 -1.79,0.69 0,0 0.05,-0.84 0.64,-1.07 0.86,-0.43 0.11,-1.92 0.75,-2.14 0.96,-2.03 0.85,-1.18 0.96,-0.64 2.03,-0.43 1.63,-0.87 0.03,-0.01 0,0 0,0.09 0.36,0.06 0.54,0.45 1.18,0.18 0,0 1.22,-0.09 0.41,-0.36 0.63,-0.68 0.86,-0.5 0.95,0.5 0.82,0.59 0,0 -0.36,0.82 -0.82,0.91 0,0 -0.59,0.86 -0.54,0.86 -0.23,1.09 -0.05,0.95 0,0 0.14,0.73 1.04,0 1.09,-0.41 1.09,-0.09 0,0 0.86,0.32 0.72,-0.59 0.41,-1.09 0.41,-1.31 0.68,0.36 0.63,-0.32 0.54,-0.91 0,0 0.23,-1.36 -0.18,-1.86 0,0 -0.23,-0.77 -0.04,-0.82 0.36,-1.31 -0.5,-1.13 -1.45,-2.4 -0.68,-1 -0.05,-1.09 0.63,-0.14 1.9,-0.05 1.36,0.05 0,0 1.18,0.23 0.77,0.95 0,0 -0.05,1.5 0.14,1.22 0.41,0.68 0,0 -0.14,1.13 -0.23,0.77 0.63,0.36 0,0 1.36,-0.09 0.77,-0.77 1,-0.86 0.86,-0.5 1.54,0.18 2.04,0.41 1.04,0.23 1.04,0.59 1.13,1.22 1.22,0.41 2.58,-0.5 1.09,0 0.95,-0.63 1.13,-0.68 0.41,-1.45 0.04,-1.99 -0.59,-1.13 -0.95,-1.45 -0.14,-0.86 -0.05,-0.91 -0.86,0.18 -0.73,0.91 -1.5,1.04 -1.18,-0.41 -0.86,-0.68 -0.54,-1.04 -1.13,0 -1.27,0.18 -1.13,0.32 -0.91,0.45 -1.09,0 -1.36,-0.59 -0.45,-0.68 0,0 -0.68,-1.5 0,0 -0.58,-0.72 0.12,-2 0.8,-1.07 4.41,-2.94 1.34,0 0,0 0.94,0.94 0.53,1.07 0,0 -0.13,2.67 0.27,0.94 0.72,-0.51 0,-3.1 1.5,0.43 1.28,0.64 1.07,-0.53 0.75,-0.86 0.75,-0.43 0,-1.24 -1.28,-0.96 -0.96,-0.11 -1.07,-0.53 0.11,-0.96 1.71,-0.11 0.96,0 0,0 0.96,0.85 1.46,0.43 z m -15.53,31.89 0.96,-0.62 0.96,-0.41 0.83,-0.48 5.17,0 -0.28,-0.48 -2,-0.07 -1.86,-0.34 -0.48,-1.03 -2.48,-0.28 -1.65,0.14 -1.58,0.07 -1.65,0.41 -0.07,1.45 -0.07,2.07 2.07,0 2.13,-0.43 z" 
                fill="rgb(151, 144, 238)" 
                stroke="white" 
                stroke-width=".7px"
                title="Aral Sea" 
                id="KZ-AS" 
            />
        </svg>