<svg xmlns="http://www.w3.org/2000/svg" viewBox="10.446940000000124 198.43271 183.46999999999994 98.79000000000002" width="183.46999999999994" height="98.79000000000002">
            <path 
                d="m 64.86694,284.05271 -0.14,0.12 -0.3,-0.07 -0.6,-1.25 -0.2,-0.11 0.16,-0.19 -0.54,-1.2 -0.1,-0.8 -0.45,-0.49 -0.07,-0.23 0.11,-0.16 0.3,-0.11 1.06,0.42 0.96,1.08 0.33,1.24 -0.52,1.75 z m 74.76,-85.62 1.53,1.43 2.36,1.06 -0.29,0.8 1.18,0.59 0.88,-2.26 1.02,0.24 1.35,6.85 -0.56,1.7 0.82,1.89 -0.77,1.98 4.62,0.49 1.17,0.59 2.12,0.21 0.48,-2.55 -0.05,-1.73 1.27,0.33 0.63,-1.08 1.47,1.06 0,1.24 3.49,0.3 0.09,4.69 -0.57,0.44 -0.64,4.64 0.74,1.26 1.08,4.64 -0.7,2.66 3.03,3.39 0.43,5.41 1.32,2.25 -0.74,4.56 -1.53,11.7 2.9,3.67 1.21,4.7 5.83,5.86 3.95,1.64 11.41,3.4 0.24,3.7 2.29,2.95 -0.36,1.18 1.59,3.13 0,0 -1.74,-1.04 -1.52,0.11 -0.91,-0.85 -1.34,0.69 -2.06,-0.62 -0.51,-1.56 -0.86,-0.38 -0.99,0.68 -1,-0.59 -1.45,-0.42 -0.32,-0.89 0.31,-1.54 -0.67,-2.01 -0.95,-0.13 -0.56,0.3 -0.3,0.5 -0.57,0.18 -1.26,-0.78 -2.35,-3.33 -4.58,4.54 -2.15,-0.3 -7.68,0.8 -3.72,1.45 -2.94,0.07 -1.8,0.72 -1.26,0.3 -1.19,-0.06 -1.38,0.32 -0.39,0.64 -3,-0.37 0.27,1.24 -1.05,2.01 -4.42,3.29 2.04,1.2 -1.26,1.21 -1.97,1.19 -2.35,1.01 -1.39,0.19 -1.3,0.86 -3,-0.4 -0.62,1.55 -2.62,-0.14 -4.45,-1.1 0,0 -0.03,-0.25 0.73,0.12 0.35,-0.15 -0.74,-0.26 -0.12,-0.25 0.07,-0.67 0.41,-0.18 -0.06,-0.46 0.19,-0.16 1.5,-0.15 -0.79,-0.46 -0.13,-0.42 0.26,-0.27 0.79,-0.21 -0.43,-0.48 -0.27,-0.69 -0.47,-0.38 -0.11,-0.35 0.17,-0.18 0.85,-0.01 0.28,-0.52 -1.08,-0.95 -0.39,-0.15 -0.59,-0.7 0.41,-0.54 0.68,0.01 -0.69,-0.34 -0.08,-0.39 -0.27,-0.09 0.21,-0.34 -0.04,-0.39 0.55,-0.42 0.85,0.11 -0.31,-0.52 0.3,-0.2 -0.41,-0.14 -0.06,-0.27 0.68,-0.37 0.48,-0.8 0.39,0.45 -0.06,-0.4 0.13,-0.38 -0.12,-0.13 -0.27,0.09 -0.19,-0.32 0.26,-0.42 0.06,-0.56 0.44,-0.63 0.07,-0.76 1.2,-1.29 0.54,-0.18 -0.51,-0.19 -0.05,-0.17 0.62,-0.09 0.11,-0.15 -0.41,-0.23 -0.39,-0.63 -0.83,-0.74 0.28,-1.52 -0.23,-1.02 0.73,-0.71 -0.77,-0.29 0.27,-0.66 -0.38,-1.39 -0.2,-0.06 -0.27,0.14 -0.29,-0.14 -0.44,0.3 -0.26,-0.12 0.23,-0.45 0.35,-0.11 -0.63,-0.64 -0.21,0.08 -0.16,-0.11 0.16,-0.69 0.37,-0.28 -0.24,-0.5 -0.4,-0.16 -0.12,0.07 -0.47,0.77 -0.96,0.57 -0.53,0.84 -0.02,0.72 -0.33,-0.03 -0.34,-0.24 0.04,-0.5 -0.17,-0.3 0.08,-0.33 0.26,-0.26 -0.12,-0.43 -0.35,-0.23 -0.37,0.15 -0.25,0.32 -0.2,-0.06 0.04,-0.75 0.16,-0.25 -0.35,-0.12 -0.07,-0.28 -0.8,-0.32 -0.11,-0.18 0.09,-0.17 0.36,0.1 0.42,-0.47 -0.17,-0.24 0.1,-0.48 -0.22,-0.38 -0.45,-0.31 -2.88,0.56 -0.75,0.82 -0.45,0.22 -0.24,-0.04 -0.35,-0.78 -0.44,-0.08 -0.53,2.41 -0.23,0.27 -0.58,0.24 -0.85,0 -1.44,-0.79 -1.92,-0.35 -1.42,-0.79 -1.02,0.11 -0.44,-0.23 -0.02,-0.22 -0.24,0.1 -0.11,-0.24 -1.25,-0.44 -1.4,-0.21 -0.71,0.04 -0.74,-0.53 0.12,1.08 0.45,0.44 0.5,0.25 0.27,0.46 -0.07,1.15 -0.26,0.53 -0.13,-0.09 0.11,0.32 -0.13,0.01 -0.34,-0.92 0.17,-0.83 -0.41,-0.43 -0.35,-0.05 -0.1,-0.39 -0.39,-0.35 -0.47,-1.76 -0.16,0.01 -0.03,0.33 -0.21,0.02 -0.25,0.36 -0.49,0.09 -0.66,0.68 -0.21,0.1 -0.12,-0.17 0.52,-0.54 0.49,-0.28 0.2,-0.8 0.18,-0.01 0.05,-0.16 -0.16,-0.27 0.33,-0.27 0.07,-0.54 -0.89,0.47 -0.72,0.88 0.43,-0.84 -0.01,-0.31 -1.11,-1.28 -2.54,-0.75 -0.78,0.12 -0.26,-0.21 -0.52,0.23 -0.96,-0.32 -0.44,0.21 -0.39,-0.02 -1.37,1.18 -0.31,0.02 -0.28,0.21 -0.15,0.73 -0.32,-0.08 -0.31,0.18 -0.95,-0.03 -0.45,-0.22 -0.48,-0.01 -1.08,-0.53 -0.92,0.22 -0.4,0.26 -0.42,0.59 -0.16,0.08 -0.18,-0.19 -0.3,0.06 -0.89,1.66 -0.52,0.5 -0.39,0.02 -0.17,-0.19 0.19,-0.77 -0.08,-0.36 -0.25,-0.13 -0.28,0.13 -0.64,0.47 -0.5,0.66 -0.14,1.04 -0.53,1.4 -0.24,0.24 -0.34,-0.08 -0.21,-0.3 0.25,-0.88 -0.13,-0.19 -0.65,0.53 -0.29,-0.01 -0.18,-1.17 -0.48,-0.73 -0.96,1.62 -0.2,0.58 -0.35,0.37 -0.14,0.05 -0.24,-0.3 0.16,-0.89 -0.23,-0.01 -0.55,0.33 -0.29,0.39 0.18,0.24 -0.66,0.54 -0.5,1.04 -0.23,0.88 -0.35,0.54 -0.26,-0.3 -0.08,-2.05 -1.31,1.39 -0.58,0.41 -1.4,2.09 -0.24,0.86 -1.33,-0.36 -0.7,0.33 -0.77,1.22 0.1,0.95 -0.27,0.39 -0.51,0.25 -0.32,0.46 -0.84,-0.28 -0.53,-0.43 0.25,0.77 -0.15,0.61 0.94,0.76 -0.2,0.09 -0.59,-0.28 -0.14,0.16 0.81,0.66 0.31,0.52 -0.09,0.22 -0.53,-0.15 -1.25,-0.73 -0.42,-0.05 -0.51,0.83 -0.34,-0.05 -0.27,-0.29 -0.22,0.06 -0.18,0.81 0.26,0.48 -0.36,0.38 -0.24,-0.15 -0.33,-0.71 -0.51,-0.61 -0.17,0.01 0.1,0.77 0.34,0.54 0.02,0.3 0.58,0.59 0.12,0.52 -0.13,0.15 -1.32,-0.77 -0.65,-0.52 -0.1,-0.23 -0.46,-0.01 -0.81,-0.6 -0.22,0.01 -0.18,0.34 -0.56,-1.16 -0.24,-0.13 0.06,-0.4 -0.13,-0.27 0.21,-0.35 0.62,0.18 -0.79,-0.88 0.05,-0.36 -0.11,-0.21 -1.01,-0.36 -0.44,0.06 -0.15,0.12 0.35,0.41 0.37,0 0.19,0.2 0.09,0.32 -0.11,0.4 0.24,0.91 1.02,1.12 0.11,0.4 -0.14,0.41 0.42,0.26 0.12,0.23 0,0.28 -0.16,0.18 -0.34,0.02 -0.19,0.35 -0.19,0 -0.6,-0.46 0.06,-0.25 -0.33,-1.14 0.09,-0.42 -0.26,-0.1 0.11,-0.28 -0.57,-1.4 -0.63,-0.59 -0.84,-0.48 -0.03,-0.21 -0.23,-0.18 -0.38,-0.07 0.15,0.23 -0.09,0.12 -0.5,-0.37 -0.06,0.1 0.45,0.96 0.5,0.22 0.07,-0.37 0.23,0.17 0.12,0.42 0.3,0.33 -0.09,0.31 0.15,0.45 -0.25,-0.04 -0.41,-0.56 -0.61,-0.38 -0.08,0.18 0.28,0.21 0.23,0.59 -0.46,0.18 0.04,-0.64 -0.43,-0.38 -0.32,-0.56 0.05,-0.22 0.19,-0.11 -0.4,-0.37 -0.35,-0.01 -0.09,0.13 0.24,0.53 -0.29,0.18 0.41,0.39 0.05,0.39 0.39,0.51 0.53,0.46 -0.06,0.23 -1.07,-0.58 -1.93,-0.54 -0.34,-0.54 -0.77,-0.47 -0.55,-0.11 -1,-0.5 -0.81,-0.78 -0.68,0.06 -0.69,-0.97 -0.26,-0.72 -0.67,-0.36 -0.33,0.01 -0.38,-0.3 -0.62,-0.09 -0.66,-1.31 -0.41,0.26 -1.14,-0.24 -0.3,-0.32 0.1,-0.52 -0.08,-0.2 -0.66,-0.08 -0.56,-0.27 0.01,-0.59 0.58,-1.54 1.35,-1.15 1.47,0.08 0.61,0.47 0.12,0.82 1.1,1.07 0.96,0.11 2.2,-0.26 0.81,-0.67 0.96,-1.42 -0.67,-1.92 -3.68,-4.98 -0.93,-2.15 -1.4,-3.48 -0.35,-1.21 -0.69,-4.65 -2.61,-0.05 -1.79,-0.5 -2,-3.2 -0.86,-2.05 -1,-1.75 -2.52,-2.44 -0.99,-0.12 -0.79,0.25 -3.33,0.33 -1.98,0.04 -2.6,-0.82 -2.81,-1.2 0.04,0.79 -0.21,1.58 -0.44,1.63 -3.5,-2.08 -1.12,-1.14 -0.45,-0.78 0.83,-0.43 0.08,-0.18 -1.77,-3.17 -1.03,-1.54 2.36,-1.16 0.39,-0.6 0.71,0.07 0.22,-0.58 -2.15,-0.77 -0.04,-0.53 0.46,-0.95 -0.05,-0.84 -0.19,-0.51 -0.18,-0.25 -1.16,-0.52 -0.41,-0.67 0,0 2.94,0.98 2.28,-0.12 9.89,1.55 17.14,1.91 5.38,1.51 9.52,3.77 -0.15,-3 6.05,0.33 1.06,-0.86 3.27,0.08 3.94,-4.04 10.68,-7.17 1.22,-0.03 1.82,-1.73 0.8,0.4 1.79,-1.1 1.08,-3.39 4.02,-0.28 2.31,-1.06 8.22,1.42 0.52,1.06 -0.67,0.47 -0.15,2.4 6.23,1.42 0.69,-1.22 0.85,-0.12 4.27,2.42 2.09,-0.05 1.37,-0.83 -0.44,-1.44 1.35,-5.73 2.35,-0.1 -0.3,-7.15 1.72,0.76 1.16,-2.7 1.2,0.58 6.75,0.01 3.01,-0.95 -0.51,-1.19 3.76,-3.19 0.67,-0.97 z" 
                fill="rgb(151, 144, 238)" 
                stroke="white" 
                stroke-width=".7px"
                title="Atyraū oblysy" 
                id="KZ-ATY" 
            />
        </svg>