<svg xmlns="http://www.w3.org/2000/svg" viewBox="68.23694 275.76271 130.25999999999996 141.25999999999993" width="130.25999999999996" height="141.25999999999993">
            <path 
                d="m 79.86694,322.54271 0.08,0.11 0.48,-0.29 0.29,0.13 -0.97,0.62 -0.33,0.41 0.09,0.37 -0.15,0.04 -0.16,-0.44 0.22,-0.79 -0.18,-1.13 0.1,-0.12 0.41,0.55 0.12,0.54 z m 1.33,-3.33 0.28,0.08 0.28,-0.16 0.26,-0.24 0.16,-0.53 0.17,0.7 0.26,-0.21 0.08,0.17 -0.14,1.24 0.11,0.41 0.88,0.45 -1.03,-0.22 -0.14,0.27 -0.62,0.14 -0.02,-0.22 0.45,-0.39 -0.53,-0.2 0.3,-0.52 -0.06,-0.31 -0.66,-0.04 -0.82,-0.98 -0.03,-0.22 0.5,-0.46 0.08,0.12 -0.3,0.4 0.54,0.72 z m -12.02,-3.33 0.72,0.18 0.39,0.36 -1.02,0.14 -0.48,0.64 -0.05,0.76 0.28,0.7 0.1,0.86 0.24,0.37 0.23,0.03 0.12,-0.3 0.09,0.1 -0.24,0.75 0.48,0.69 1.16,0.58 1.04,-0.4 0.16,0.04 0.06,0.15 -0.38,0.82 -0.12,0.02 -0.28,-0.33 -1.4,-0.2 -0.63,-0.37 -0.76,-1.21 -0.65,-2.19 0.43,-1.33 0.03,-0.65 0.48,-0.21 z m 5.2,-0.4 0.78,0.13 0.26,0.7 -0.15,0.74 0.17,0.54 -0.51,0.9 -0.02,0.49 -0.19,0.4 -0.44,0.31 -0.29,0.03 -0.4,0.44 -0.13,0.3 0.16,0.42 -0.14,0.11 -0.23,-0.19 -0.13,-0.56 0.1,-0.27 -0.14,-0.59 0.27,-0.58 -0.03,-0.46 -0.11,-0.27 -0.46,-0.39 0.09,-0.54 -0.3,-0.61 0.43,-0.52 0.69,0.05 0.72,-0.58 z m 44.97,-12.35 0.14,0.02 0.15,-0.28 0.21,-0.06 0.23,0.17 0.53,1.42 0.02,0.61 0.24,0.56 -0.11,0.38 0.11,0.6 -0.04,0.13 -0.67,0.06 0.27,0.4 -0.05,0.11 -1,-0.4 -0.21,-0.61 -0.51,-0.77 -0.67,-0.65 -0.27,-0.47 0.21,-0.31 0.92,-0.72 0.05,-0.12 -0.32,-0.3 -0.03,-0.26 0.49,0.2 0.31,0.29 z m 3.35,-7.15 4.45,1.1 2.62,0.14 0.62,-1.55 3,0.4 1.3,-0.86 1.39,-0.19 2.35,-1.01 1.97,-1.19 1.26,-1.21 -2.04,-1.2 4.42,-3.29 1.05,-2.01 -0.27,-1.24 3,0.37 0.39,-0.64 1.38,-0.32 1.19,0.06 1.26,-0.3 1.8,-0.72 2.94,-0.07 3.72,-1.45 7.68,-0.8 2.15,0.3 4.58,-4.54 2.35,3.33 1.26,0.78 0.57,-0.18 0.3,-0.5 0.56,-0.3 0.95,0.13 0.67,2.01 -0.31,1.54 0.32,0.89 1.45,0.42 1,0.59 0.99,-0.68 0.86,0.38 0.51,1.56 2.06,0.62 1.34,-0.69 0.91,0.85 1.52,-0.11 1.74,1.04 0,0 1.76,4.85 2.78,20.57 0,0 -13.76,4.52 0.05,97.63 -2.58,-0.1 -1.14,1.14 -0.56,-0.43 -0.28,-0.06 -1.88,0.35 -0.73,0.37 -0.2,0.55 -0.23,0.19 -0.28,-0.22 -0.15,-0.46 -0.35,-0.44 -0.2,0.09 -0.01,0.54 -0.37,0.26 -0.4,-0.1 -0.98,-0.58 -1.14,-1.04 -1.3,-1.66 -1.11,-0.9 -0.88,-1.2 -1.79,-2.95 -1.45,-3.42 -0.91,-1.34 -1.08,-1.06 -0.3,-0.48 -0.08,-0.53 0.18,-1.79 -0.88,-1.27 -1.49,-1.66 -7.42,-5.25 -3.23,-2.13 -0.95,-0.57 -0.95,-0.37 -4.57,0.14 -7.13,1.14 -3.22,0.88 -5.6,2.47 -1.92,0.66 -1.42,0.93 -6.42,5.76 -3.63,3.01 0.03,-0.52 0.83,-1.96 0.11,-1.22 -0.03,-0.84 -0.26,-1 -0.79,-1.06 0.15,-1.13 -0.47,-0.5 0.29,-2.04 0.36,-0.72 1.38,-1.68 0.87,-1.51 1.75,-4.42 0.42,-2.08 -0.22,-1.19 -0.48,-0.93 -1.64,-1.87 -0.11,-0.34 0.37,-0.56 -0.08,0.5 0.23,0.51 1.03,0.82 0.73,0.98 0.6,1.63 0.49,-0.53 0.25,-0.68 0.11,-1.39 -0.18,-1.36 -0.39,-0.32 -0.86,-0.01 -0.42,-0.37 -0.67,0.28 0.29,-0.48 -0.42,-1.14 -2.68,-0.79 -0.8,-0.13 -1.55,0.23 -0.69,0.5 -0.41,0.64 -0.12,-0.01 -1.07,-1.75 -0.57,-0.4 -0.41,-0.1 -0.69,0.03 -0.32,-0.12 -1.11,0.17 -1.53,0.46 -1.18,0.59 -0.4,-0.01 -0.35,-0.33 -1.26,-2.04 -0.14,-0.51 -0.72,-1.12 -0.32,-1.18 -2.24,-2.12 0.24,-0.26 0.05,-0.48 -0.4,-1.25 -0.98,-0.09 -1.86,0.38 -0.24,0.26 -1.09,-0.05 -2.63,0.43 -0.54,-0.16 -0.08,-0.42 0.14,-1.16 0.78,-3.27 0.07,-2.13 -0.15,-1.46 -0.32,-0.56 -0.13,-0.93 -0.39,-0.96 -0.9,-0.85 -0.15,-0.47 -0.62,-0.4 -0.23,-0.08 -0.15,0.18 -0.11,-0.09 -0.75,-1.27 -0.96,-2.24 -0.85,-1.04 -0.73,-3.94 -0.94,-1.38 -0.25,-0.24 -0.79,-0.19 -0.38,-0.46 0.15,-1.78 -0.28,-1.27 -0.62,-1.56 -1,-0.98 -2.09,-0.94 -1.47,-0.37 -3.62,-0.28 -1.2,-0.5 -1.39,-0.96 -0.58,-0.93 -0.09,-0.38 -0.05,-3.89 -0.26,-1.15 0.02,-0.1 0.5,0.82 0.02,0.38 0.24,-0.05 0.95,-2.76 0.74,0.12 0.38,-0.09 0.22,0.22 0.6,-0.05 0.87,0.35 1.09,-0.09 0.9,0.15 0.64,-0.33 0.71,0.57 2.02,0.17 0.9,-0.16 0.36,-0.6 0.26,-0.06 0.41,0.28 1.37,0.4 0.55,0.85 0.19,0.03 0.2,0.44 0.45,0.21 0.52,-0.1 -0.24,0.46 0.23,0.56 1.74,1.2 2.07,0.04 0.61,-0.49 0.44,-0.62 0.45,-0.25 0.16,-0.45 1.68,-0.44 0.23,-0.01 0.09,0.19 -0.27,0.43 0.03,0.19 0.21,-0.08 0.54,0.6 0.43,-0.1 0.21,-0.2 0.02,-0.32 1.04,0.46 0.64,-0.23 0.14,-0.22 -0.19,-0.44 -0.74,-0.59 -1.15,-0.51 -2.42,0.02 -0.76,0.21 0.02,-0.34 0.33,-0.33 -0.07,-0.37 -0.5,0.34 -0.09,-0.1 0.04,-0.93 -0.56,-1.14 -1.06,-1.54 -0.64,-0.23 -1.04,-0.98 -0.95,-0.49 -0.03,-0.17 -0.59,-0.5 -0.36,-0.14 -0.05,0.34 -0.44,0.23 -0.79,-0.08 -0.8,0.13 -0.69,-0.4 -0.05,-0.27 0.73,0.25 -0.2,-0.3 0.11,-0.49 0.28,-0.41 -0.33,-0.25 -0.01,-0.45 1.58,-2.19 0.26,-0.17 0.83,-0.38 0.3,-0.03 0.51,0.24 0.2,-0.08 1.59,-1.64 0.67,-0.35 0.35,0.03 0.67,0.38 0.37,0 0.14,-0.77 -0.23,-2.15 0.2,-0.99 0.14,-0.33 0.28,-0.22 0.23,-0.99 0.64,-1.08 0.47,-0.36 0.26,-0.52 0.4,-0.1 0.67,-0.95 0.31,-0.2 0.4,0.56 0.23,0.11 1.65,-0.09 0.65,-0.17 0.22,-0.34 0.69,-0.19 1.35,-0.82 0.18,-0.44 0.67,-0.85 0.39,0.03 0.13,0.26 0.4,0.23 0.25,-0.19 0.62,0.42 1.07,0.12 0.72,0.54 0.37,0.07 1,-0.1 1.05,-0.42 0.74,-0.02 0.99,0.32 1.45,-0.21 1.29,0.02 0.58,-0.11 0.87,-0.41 0.57,0.02 1.15,-0.3 0.86,0.33 1.71,0.08 0.26,0.27 0.32,0.76 0.78,0.59 0.89,0.1 0.28,-0.05 -0.01,-0.26 1.24,0.6 0.7,0.04 0.01,-0.27 -1.33,-0.61 0.27,-0.1 0.08,-0.28 -0.23,-0.36 -0.03,-0.51 -0.4,-0.51 -0.11,-0.39 -0.01,-0.73 0.18,-0.26 1.03,0.44 0.95,0.72 1.01,0.16 0.81,0.96 0.94,0.66 0.13,-0.16 -0.89,-0.81 -0.95,-1.46 -0.29,-0.12 -0.73,0.08 -0.39,-0.61 -1.22,-0.58 0.12,-0.32 0.45,-0.27 -0.19,-0.31 0.34,-0.22 0.74,-0.3 0.58,-0.08 0.69,0.16 0.11,-0.12 -0.42,-0.78 0,-0.45 -0.34,0.1 -0.41,0.7 -0.92,0.43 -0.43,0.35 -0.15,-0.09 0.11,-0.32 -0.22,-0.15 0.09,-0.5 -0.6,-0.08 0.51,-0.14 -0.35,-0.18 -0.01,-0.17 0.63,-0.55 0.41,-0.08 -0.04,-0.41 0.69,-0.07 0.22,0.41 0.69,0.42 0.16,-0.04 -1.09,-1.48 -0.95,-0.75 0.48,-0.13 0.4,-0.39 -0.05,-0.24 -0.34,-0.01 0.01,-0.25 0.53,-0.13 0.07,0.16 0.23,-0.1 0.02,0.14 0.19,0.03 0.33,-0.16 0.2,-0.29 -0.5,0.1 -0.86,-0.55 z" 
                fill="rgb(151, 144, 238)" 
                stroke="white" 
                stroke-width=".7px"
                title="Mangghystaū oblysy" 
                id="KZ-MAN" 
            />
        </svg>