<svg xmlns="http://www.w3.org/2000/svg" viewBox="378.95694000000003 290.98271 95.67000000000007 143.65000000000026" width="95.67000000000007" height="143.65000000000026">
            <path 
                d="m 403.54694,290.98271 36.76,0.58 0,0 3.52,5.75 1.73,5.7 2.67,6.8 2.4,10.39 1.11,1.58 1.49,8.19 1.75,11.86 -0.73,0.49 -0.35,2.31 -1.35,2.11 -0.32,3.09 -2.44,6.09 0.05,0.56 -2.62,3.75 2.04,0.72 -0.54,0.84 0.84,2.6 1.05,-0.46 0.44,0.03 -0.22,0.97 1.35,-0.21 2.06,1.5 0.6,-1.48 0.44,0.04 0.38,1.57 1.75,0.16 0.48,0.7 0.69,-0.27 0.48,0.6 -0.35,1.17 0.99,0.96 0.72,-0.48 0.5,0.38 -0.7,1.24 0.61,0.49 0.63,0.28 -0.5,0.5 0.66,0.93 -0.26,2.16 0.06,1.3 0.38,0.47 -0.48,1.26 2.04,1.26 1.43,-0.08 0.22,0.88 1.15,0.43 0.11,0.86 0.63,0.17 0.24,0.66 0.56,0.79 1.06,0.2 1.32,2.31 1.55,-0.41 0.35,0.63 -0.35,0.99 0.84,0.04 0.01,0.61 1.09,0.99 0,0 -0.25,0.5 -0.02,0.65 0.18,0.44 -0.09,0.38 0.25,0.21 0.99,-0.08 -0.78,0.98 -1.17,0.71 -0.29,0.01 -0.55,-0.42 -0.64,0.6 -0.35,0.58 -1.31,1.44 -0.06,0.53 -0.91,2.29 -0.49,0.1 -0.51,-0.47 -0.32,-0.09 -0.02,-0.94 -0.23,-0.38 -1.06,-0.59 -1.13,-0.99 -0.44,-0.01 -0.16,0.19 -0.22,1.05 -0.54,0.65 -0.79,0.61 0.16,1.53 -1.04,0.67 -0.72,0.23 -0.82,0.92 -0.74,1.59 -1.9,1.07 -0.44,1.03 -0.29,0 -0.21,-0.64 -0.45,0.06 -0.8,1.8 -1.23,0.5 -0.5,-0.43 -0.52,-0.14 -0.7,0.44 -1.32,0.14 -0.72,0.63 -1.37,0.37 -1.58,1.57 -0.48,1 -1.12,0.33 -0.7,0.6 -0.31,0.54 0.17,0.37 0.49,0.32 -0.14,0.43 -0.17,0.08 -0.93,-0.15 -1.12,0.27 -0.85,-0.32 -1.24,0.15 -0.48,0.29 -0.46,1 -0.93,0.53 -0.48,1.2 -0.28,0.19 -0.58,-0.32 -0.22,0.07 -0.83,1.29 -0.08,1.14 -0.67,0.64 -0.13,0.76 -0.45,0 -0.28,0.19 -0.87,0.94 -1.84,2.67 -0.31,0.7 -0.13,0.77 -0.56,0.51 -0.77,0.3 -0.6,0.5 -0.22,-0.68 0.75,-0.51 -0.55,-0.25 -0.34,0.16 -0.28,-0.11 -0.21,-0.64 -0.99,0.62 -0.13,-0.25 -2.07,-0.13 0.01,0.54 1.52,0.1 0.37,0.58 -0.36,0.38 0.41,1.06 -0.36,3.12 1.38,1.91 0.47,1.38 1.01,0.54 0.36,0.88 -1.81,0.72 -1.01,-0.07 -0.34,0.47 -2.05,-0.6 0.23,-0.48 -0.8,-0.66 -0.79,0.21 -1.72,-1.47 -1.59,-0.56 -1.51,-1.69 -2.42,-1.43 -1.03,-0.28 -0.6,-0.84 0.31,-0.96 1.71,-0.06 -0.04,-2.19 0.62,-0.62 -0.58,-1.45 0.59,-0.62 1.04,-0.22 -0.33,-0.2 -0.25,0.11 -0.58,-0.54 -1.28,0.83 -0.35,-0.5 -0.62,0.55 -1.39,-1.3 -0.86,-1.04 -0.37,-0.1 -0.59,-0.54 -6.47,-0.2 -1.05,0.26 -0.37,-0.05 -0.36,-0.24 -13.68,-1.02 -1.46,-16.66 -10.13,-1.23 0.09,-7.88 0.39,-0.46 0.04,-2.77 1.36,0.59 0.03,-0.39 1.69,0.41 7.85,-8.14 2.73,1.68 5.47,-5.52 4.86,-3.65 5.19,-1.92 6.45,-3.22 1.9,-1.22 0.08,-0.88 -1.38,0.37 -0.75,-1.8 0.34,-1.42 -1.13,0.05 0.21,-1.2 -1.06,0.6 0.31,1.68 -0.83,0.51 -0.58,-2.57 1.97,-0.57 0.4,-2.19 -0.16,-0.89 1.85,-1.9 -0.01,-4.22 1.92,1.67 0.83,-0.4 0.22,-2.88 -0.57,-1.48 -0.41,-0.58 1,-1.06 1.18,-0.48 0.75,0.6 1.37,-1.36 -5.34,-3.81 -2.23,-2.71 -0.05,-0.91 -2.23,-1.25 -1.18,0.38 -2.07,-2.02 0.23,-1.68 0.39,-0.55 -0.12,-19.1 -3.09,-1.32 -3.69,-3.06 1.23,-4.54 0.19,-2.87 0.6,-2.05 1.18,-1.67 0.56,-1.24 -0.59,-1.89 -3.07,-2.37 z" 
                fill="rgb(151, 144, 238)" 
                stroke="white" 
                stroke-width=".7px"
                title="Ongtüstik Qazaqstan oblysy" 
                id="KZ-YUZ" 
            />
        </svg>