<svg xmlns="http://www.w3.org/2000/svg" viewBox="523.1369399999995 33.0827119999999 114.69000000000028 141.1399980000001" width="114.69000000000028" height="141.1399980000001">
            <path 
                d="m 588.01694,36.022712 0.88,-0.04 0.42,0.23 0.22,0.36 0.18,1.44 -0.62,0.95 0.14,1.1 -0.08,0.43 -0.8,0.91 -0.85,0.47 -0.17,1.08 -0.6,0.23 -1.23,0.9 -0.37,-0.18 -0.52,-0.96 -0.66,0.26 -0.45,-0.05 -0.81,-0.48 -1.02,-0.12 -0.41,0.01 -0.18,0.13 -0.07,0.55 0.16,0.66 1.29,1.74 0.17,1.38 0.79,1.47 4.17,4.05 15.68,12.69 5.6,5.37 1.02,1.2 3.51,5.81 3.06,4.64 3.63,6.59 0.14,-0.14 2.2,4.26 -0.16,0.11 6.29,11.119998 1.15,2.68 1.72,2.66 0.24,0.67 0.78,1.07 1.32,2.62 0.17,-0.1 0.19,0.37 -0.15,0.12 1.54,3.24 0.38,0.38 -0.02,0.27 1.94,4.05 0,0 -1.46,0.17 -0.52,3.05 -2.98,0.76 0.52,1.7 -2.51,2.46 -0.54,-0.65 -3.89,0.57 0.09,1.86 1,-0.17 -0.3,1.25 0.18,1.48 -1.01,-0.35 -3.98,2.53 -2.46,0.77 -0.44,-1.01 -1.19,0.53 -0.25,1.12 -2.1,1.12 -0.45,-0.36 -1.66,1.61 2.33,3.37 0.53,3.1 1.48,0.45 0.9,1.36 1.58,1.24 1.3,0.67 4.02,2.67 -0.7,6.81 1.84,0.52 0.56,3.96 -1.33,1.38 -3.34,6.07 -2.68,1.23 -3.15,-0.78 -8.35,-3.48 -1.15,-2.02 -1.29,0.76 0,0 -2.24,-1.6 1.55,-2.13 -1.15,-4.09 -3.2,-2.05 -4.06,-0.16 -3.44,-3.64 -3.75,0.97 -2,1.95 -1.21,4.82 0.12,2.99 -0.73,1.28 -2.18,-1.3 -2.19,0.24 -1.53,0.88 -0.45,-0.34 -0.9,2.42 -0.92,0.22 -2.52,-1.48 -6.83,1.88 -0.86,-0.92 -0.93,0.36 -0.27,0.98 -0.69,0.39 -5.7,-0.19 -0.94,1.26 -4.02,2.93 -1.95,0.58 -0.37,-0.83 -1.25,0.06 -0.67,-2.29 1.24,-0.83 -0.03,-0.65 2.65,-1.12 0.2,0.29 1.05,-0.34 -0.29,-0.56 0.66,-0.28 -0.32,-1.21 -2.24,-0.89 -0.53,-1.51 0.68,-0.4 -1.5,-2.58 -1.12,-0.05 -2.72,-2.9 -1.36,3.41 -1.29,-3.31 1.12,-0.87 -1.07,-1.34 -3.18,-0.62 -0.26,-0.82 -1.57,1.32 -2.8,0.23 -2.87,0.75 -2.86,-3.15 1.44,-1.36 -0.84,-1.3 0.53,-1.1 1.04,-0.24 -0.11,-3.03 0.43,-2.31 0.86,-2.64 -0.85,-1.31 -0.08,-2.26 -6.7,-2.43 0,0 2.1,-2.48 0.29,-2.22 4.33,-2.83 1.98,0.56 0.76,-0.95 1.04,-0.11 0.48,-0.73 -1.9,-1.09 -2.29,-0.21 -0.99,-2.29 -3.56,1.75 0.1,-5.89 0.61,-0.72 2.73,-2.15 1.19,-0.23 -0.41,-0.87 -0.45,-19.959998 -1.02,-0.15 -0.06,-0.56 0,0 -0.11,-1.26 -3.63,-0.27 -0.99,-2.62 0.4,-1.19 0.9,1.24 1.42,0.21 0.83,1.78 0.96,-0.41 -0.27,-3.08 1.24,-0.5 -0.19,-1.69 0.99,-0.53 -1.09,-2.95 -1.92,0.67 -0.89,-0.28 -1.17,3.16 -2.63,0.04 -0.49,-2.57 1.38,-1.62 -0.64,-1.35 -2.15,1.51 -0.47,-0.49 1.16,-0.95 0.74,-1.85 1.11,-1.66 -0.13,-1.15 1.12,-0.54 -0.06,-0.71 1,-0.54 -0.91,-1.42 -1.01,0.68 -0.31,-0.75 -1.11,0.41 -0.07,0.7 -2.78,2.43 -0.48,-2.89 0.45,-3.07 1.64,0.8 0.74,-0.76 -1.6,-2.53 -1.01,-2.26 0,0 2.52,-2.47 0.33,-1.46 1,0.25 0.49,-2.12 1.36,0.16 1.72,1.08 1.35,-2.03 3.32,0.75 -0.2,2.26 1.7,0.16 0.36,-1.69 1.4,0.3 -0.2,0.67 0.7,0.28 -0.01,1.29 0.35,0.21 0.06,0.23 -0.13,0.75 2.37,0.89 1.57,-3.87 -0.84,-0.49 0.58,-2.89 3.29,0.54 0.87,-2.93 1.1,0.18 0.56,-0.28 0.32,-0.56 0.29,-1.28 0.17,-0.14 0.66,0.24 2.63,-0.02 0.27,0.16 0.42,0.79 0.44,-0.21 2.31,-1.83 1.14,-1.08 0.87,-0.39 2.36,-1.83 1.36,-0.73 0.56,-0.68 -0.01,-0.68 -1.65,-2.36 2.58,-1.33 1.37,0.58 0.22,-0.04 11.93,-5.56 0.08,-0.29 -0.5,-0.62 0,-0.19 0.55,-1.62 0.17,-0.05 2.03,0.91 2.1,0.17 0.94,-0.05 1.05,-0.69 1.82,0.04 1.1,-1.13 0.52,-1.23 1.03,-0.09 1.36,-0.82 1.06,-0.44 0.35,0.05 0.13,0.86 -0.08,0.15 -2.94,1.6 z" 
                fill="rgb(151, 144, 238)" 
                stroke="white" 
                stroke-width=".7px"
                title="Pavlodar oblysy" 
                id="KZ-PAV" 
            />
        </svg>