<svg xmlns="http://www.w3.org/2000/svg" viewBox="312.16694000000035 134.7627100000003 294.26000000000016 156.79999999999984" width="294.26000000000016" height="156.79999999999984">
            <path 
                d="m 528.45694,135.75271 6.7,2.43 0.08,2.26 0.85,1.31 -0.86,2.64 -0.43,2.31 0.11,3.03 -1.04,0.24 -0.53,1.1 0.84,1.3 -1.44,1.36 2.86,3.15 2.87,-0.75 2.8,-0.23 1.57,-1.32 0.26,0.82 3.18,0.62 1.07,1.34 -1.12,0.87 1.29,3.31 1.36,-3.41 2.72,2.9 1.12,0.05 1.5,2.58 -0.68,0.4 0.53,1.51 2.24,0.89 0.32,1.21 -0.66,0.28 0.29,0.56 -1.05,0.34 -0.2,-0.29 -2.65,1.12 0.03,0.65 -1.24,0.83 0.67,2.29 1.25,-0.06 0.37,0.83 1.95,-0.58 4.02,-2.93 0.94,-1.26 5.7,0.19 0.69,-0.39 0.27,-0.98 0.93,-0.36 0.86,0.92 6.83,-1.88 2.52,1.48 0.92,-0.22 0.9,-2.42 0.45,0.34 1.53,-0.88 2.19,-0.24 2.18,1.3 0.73,-1.28 -0.12,-2.99 1.21,-4.82 2,-1.95 3.75,-0.97 3.44,3.64 4.06,0.16 3.2,2.05 1.15,4.09 -1.55,2.13 2.24,1.6 0,0 -0.44,1.71 -2.86,2.38 -1.53,2.13 -2.75,1.26 -0.86,0.6 -1.77,0.05 -0.54,2.31 0.59,0.88 -0.45,1.82 0.51,1.37 -0.4,1.57 -1.73,2.72 -5.06,1.86 -4.59,2.21 -0.29,1.71 1.56,1.79 -0.05,1 1.64,0.54 2.92,2.41 0.05,1.88 1.57,0.91 1.88,1.96 -1.86,0.79 -0.4,-0.57 -1.62,0.84 0.17,1.15 -0.45,1.92 1.37,2.73 7.96,-1.31 0.8,2.38 -0.82,3.2 0.02,1.24 -3.58,3.68 -1.49,-0.51 -0.99,0.08 -1.01,0.93 0.22,1.52 -1.54,0.47 0.72,1.48 1.68,0.78 0.27,1.28 3.04,-0.08 0.92,0.28 -0.42,1.03 -1.71,0.07 -0.51,1.5 2.5,2.28 1.96,-0.15 1.38,1.1 -3.62,1.32 1.16,1.67 -1.33,0.01 -0.18,2.4 -0.96,-0.04 -0.96,4.09 -1.17,2.59 0.4,1.15 0.44,0.2 1.02,4.4 0.21,1.48 -1.77,-0.78 -1.84,0.29 0.1,2.19 -0.83,2.02 -1.53,0.58 1.74,0.9 1.01,1.72 1.89,1.4 2.89,1.08 0.94,-2.59 1.21,-0.75 2.29,1.12 1.94,-0.87 0,0 0.84,14.68 -5.89,0.66 0.03,1.78 -1.46,0.22 -0.64,-1.64 -1.94,-1.03 -1.93,0.27 -2.05,-1.05 -1.35,0.25 2.1,2.12 -2.95,-1.31 -1.79,-0.53 -1.26,-0.2 -0.61,1.44 -1.77,-0.64 -0.6,0.73 -0.54,-1.63 0,0 -1.33,1.57 -1.12,-0.3 0,0 0.02,-0.82 -6.63,-1.17 -5.94,1.1 -4.63,-0.93 -11.11,6.39 -5.29,4.78 -4.13,4.24 -2.23,2.51 0,0 -1.7,2.81 0,0 -32.12,-0.37 -18.61,0.69 -3.44,-0.25 -15.58,0.4 -27.53,0.06 0,0 -36.76,-0.58 0,0 -0.31,-2.7 -0.94,-0.28 -7.71,0.43 -25.37,-6.89 -3.59,-2 -3.54,-4 -4.05,-0.35 -9.77,-5.26 -2,-0.06 -9.75,-3.81 -0.85,-0.86 -1.88,1.16 -5.76,-3.23 -2.58,0.2 -2.93,-1.97 -2.32,-2.19 -8.03,1.49 5.35,-4.18 0,0 22.92,-16.02 4.31,-4.75 -1.77,-0.79 -3.56,-6.23 0,0 5.49,-4.99 -1.08,-3.48 7.25,-1.6 -1.49,-1.91 0.67,-1.08 -0.73,-1.77 4.12,0.16 1,-7.53 14.99,2.48 1.44,-0.81 1.41,0.19 2.21,-0.78 1.29,-3.17 6.05,-0.22 5.84,-6.44 2.96,-0.35 1.26,-4.43 2.55,0.26 1.04,-2.58 2.97,-2.71 4.1,-2.4 6.47,-7.42 4.32,-5.55 -0.91,-1.84 0.55,-0.6 -0.68,-1.32 0.69,-0.85 3.24,-0.42 3.57,-1.53 1.36,-1.18 0.62,-1.49 1.11,-1.2 -0.33,-0.8 -2.1,-1.18 -0.09,-0.64 -1.11,-0.72 0,0 -0.14,-1.69 -1.3,-1.76 1.15,0.21 2.75,-0.58 1.83,1.43 4.22,-3.17 2.37,-0.85 0.6,-1.11 6.03,-0.17 -0.27,6.81 -0.94,0.57 0.43,2.61 -0.86,1.34 -0.81,3.78 -1.39,1.55 0.67,1.2 1.56,-0.51 0.32,0.79 1.13,0.09 2.52,1.61 2.5,-1.32 0.83,0.7 0.51,-0.08 0.24,-1.38 -0.57,-0.69 0.2,-0.88 0.57,0.69 0.87,0.07 1.6,-1.01 -0.69,-2.24 2.64,-1.44 0.36,1.7 0.59,-0.97 0.51,-0.09 0.73,1.74 0.57,0.69 1.13,0.1 -0.47,2.51 1.15,-0.28 0.86,0.21 0.66,-0.33 0.87,0.08 6.05,-1.75 0.59,1.72 0.91,-0.3 0.41,0.93 -1.73,2.52 -0.08,2.17 1.2,0.62 1.57,-0.74 2.79,-1.78 2.15,-0.29 0.62,-1.22 -1.21,-3.07 4.19,-1.88 1.4,2.45 0.25,-6.4 1.28,-0.26 0.3,-0.48 1.38,0.02 2.57,-1.8 -0.41,-0.94 1.52,-1.26 1.74,0.19 0.63,-1.23 1.39,0.02 0.55,-2.92 2.91,-1.24 -0.04,-0.78 0.9,-0.16 0.28,0.94 1.32,-0.5 0.26,1.07 1.4,-0.1 2.2,1.95 -1.33,1.79 0.59,0.33 0.18,0.67 -0.59,0.84 0.35,1.46 -1.78,2.51 1.21,0.4 0.48,-0.98 4.08,-0.43 2.43,1.85 -0.27,-0.94 1.3,-0.36 -0.43,-2.9 1.44,-0.48 0.77,-1.2 2.23,1.44 1.61,-0.84 -2.11,-1.43 1.41,-1.25 -0.55,-0.72 0.99,-0.92 0.71,0.35 0.12,-1.03 2.81,-0.17 1.31,-1.53 -0.56,-0.59 0.19,-0.5 0.77,-0.17 1.14,-2.08 3.14,1.33 0.79,-1.34 1.67,-0.17 1.08,-0.51 -0.69,-1.67 5.16,-1.67 2.89,-2.76 -2.53,-1.14 -1,-0.14 -1.04,2.23 -0.7,-0.49 0.2,-0.63 -1.2,-2.67 -0.85,-0.38 0.32,-1.55 0.94,-0.4 0.53,0.87 1.59,-0.45 -0.31,-0.57 0.53,-0.19 0.56,1.66 1.26,-1.94 z" 
                fill="rgb(151, 144, 238)" 
                stroke="white" 
                stroke-width=".7px"
                title="Qaraghandy oblysy" 
                id="KZ-KAR" 
            />
        </svg>