<svg xmlns="http://www.w3.org/2000/svg" viewBox="263.40693999999996 24.572712000000084 159.69 204.11999800000007" width="159.69" height="204.11999800000007">
            <path 
                d="m 378.46694,27.802712 0.71,-0.07 1.53,-0.54 0,0 1,3.79 0.41,0.6 -0.56,0.8 2.21,6.08 -3.73,1.33 3.67,2.3 1.36,0.13 1.06,2.81 -0.55,0.53 -1.76,0.17 -5.08,2.68 2.03,6.52 2.49,-0.54 0.04,5.26 -1.58,1.55 -0.87,1.18 0.85,2.54 3.28,0.35 0.2,8.66 2.93,1.83 -0.49,2.16 -2.85,-0.6 -1.27,1.01 -2.05,-0.14 -0.86,1.04 0.7,3.18 0.96,0.06 0.16,3 -0.41,-0.03 0.13,3.67 -2.07,0.54 -0.24,10.23 0,0 -0.14,7.479998 -2.38,1.99 -0.86,5.01 -0.8,3.53 -5.1,2.62 -3.38,-0.33 0.98,3.37 2.43,0.13 1.77,3.67 -1.64,4.77 0.92,0.71 -2.77,2.47 1.67,2.18 -1.1,0.99 4.14,4.01 -1.28,6.04 0.74,1.59 3.87,-0.44 1.21,-3.95 3.64,2.14 0.22,1.18 -0.05,1.29 0.68,-0.61 -0.04,1.16 0.94,-0.46 0.64,0.55 1.49,-0.7 1.01,4.06 2.41,-0.64 1.54,1.11 5.18,1.84 4.81,-1.4 1.67,0.61 1.27,3.16 -2.16,1.28 2.76,4.27 4.58,-2.91 8.47,-1.1 2.31,-1.76 0,0 1.11,0.72 0.09,0.64 2.1,1.18 0.33,0.8 -1.11,1.2 -0.62,1.49 -1.36,1.18 -3.57,1.53 -3.24,0.42 -0.69,0.85 0.68,1.32 -0.55,0.6 0.91,1.84 -4.32,5.55 -6.47,7.42 -4.1,2.4 -2.97,2.71 -1.04,2.58 -2.55,-0.26 -1.26,4.43 -2.96,0.35 -5.84,6.44 -6.05,0.22 -1.29,3.17 -2.21,0.78 -1.41,-0.19 -1.44,0.81 -14.99,-2.48 -1,7.53 -4.12,-0.16 0.73,1.77 -0.67,1.08 1.49,1.91 -7.25,1.6 1.08,3.48 -5.49,4.99 0,0 -4.19,-8 -3.15,-2.2 -3.17,-1.2 -1.13,-1.27 -6.34,-2.15 -0.74,-2.51 1.29,-1.72 -0.12,-1.12 -2.02,-1.8 -4.2,2.29 -5.42,-5.36 -1.39,-4.81 -2.52,0.23 0.5,-1.39 2.91,-0.47 0.38,0.38 0.64,-0.49 -3.55,-6.01 -1.01,-1.15 1.65,-2.15 2.29,0.79 -0.63,-0.9 -0.63,-3.45 3.07,-1.87 0.28,-3.2 3.1,-2.75 3.08,2.53 0.94,-3.3 -0.38,-1.56 -4.23,-6.32 -0.39,-1.56 -2.57,-4.09 -1.78,-9.06 -2.72,0.85 0.01,-1.84 -0.39,-1.72 2.2,-1.53 -3.5,-3.41 0.65,-2.25 0.65,-0.11 0,-1.2 -2.88,-1.73 -0.52,0.38 -1.03,1.44 -1.58,-0.62 -0.96,-3.23 -0.17,-1.97 -1.36,-2.1 -0.87,1.52 -1.43,0.63 -1.29,-0.63 0,0 0.11,-0.03 -1.79,-1.62 -0.61,-0.72 -0.82,-2.28 -0.53,-0.43 -0.62,-0.17 -1.34,1 -0.6,0.04 -1.21,-0.32 -2.09,-1.45 -0.91,-0.05 -0.26,0.16 -0.45,-0.41 -1.84,0.04 -0.2,-0.88 -0.57,-0.09 -0.23,-0.84 -0.43,-0.63 -0.3,-1.01 0.23,-0.85 -0.12,-0.23 -1.57,-0.17 -4.33,0.06 -1.48,-0.37 -0.92,-0.39 -1.73,-1.45 -0.23,-0.41 2.32,-2.32 0.24,-0.3 -0.06,-0.52 -0.84,-0.26 -1.4,-0.2 -4.33,-2.83 -0.15,0.2 0.19,0.45 0.01,0.56 -0.6,0.05 -0.22,-0.1 -0.76,-0.48 -0.81,-1.16 -0.12,-0.4 -0.02,-0.68 0.25,-1.17 1.29,-0.25 1.88,-0.06 0.82,-0.36 1.04,-0.87 0.97,-1.33 2.48,-2.32 0.74,-0.4 2.07,0.35 0.35,-0.2 0.64,0.02 0.45,-0.19 0.92,-0.83 0.5,-1.15 0.88,-0.07 2.4,-1.26 0.64,-0.88 1.29,-0.89 0.16,-0.26 -0.99,-2.399998 -0.81,-1.4 0,-1.25 -0.1,-0.21 -1.55,-0.14 -0.87,-0.3 -0.11,-0.29 -0.05,-2.94 -0.25,-0.27 -1.55,-0.32 -0.08,-0.34 -0.57,-0.19 0.04,-2.8 0.24,-0.32 1.88,-0.35 0.55,-0.34 0.41,-0.48 0.4,-0.96 2.34,-1.67 1.11,-1.35 -0.23,-0.49 -0.56,-0.56 -0.16,-1.12 0.83,-0.06 0.94,0.37 0.26,-0.61 2.08,-1.37 0.67,0.19 1,1.12 0.94,0.14 0.6,-0.37 1.11,-1.18 0.83,0.25 0.22,0.24 0.43,0.03 0.58,0.37 1.47,1.42 0.41,0.06 1.02,-1.16 0.5,0.13 0.37,-0.18 1.06,-0.03 0.26,0.14 0.95,-0.5 0.31,0.01 1.31,1.62 0.92,0.28 1.01,-0.57 1.5,-1.17 0.04,-1.91 -0.56,-1.67 -0.62,-0.12 -0.89,-0.42 -2.07,0.1 -2.46,-0.98 -0.77,-0.76 -0.66,-1.36 -1.13,-0.82 -0.5,0.16 -0.13,0.79 -0.25,0.19 -2.02,0.09 -1.06,-0.32 -0.6,-0.83 -0.72,-0.57 -0.84,-0.21 -0.96,0.1 -1.16,-0.09 -1.16,-0.74 -0.28,-0.68 -0.21,-2.25 0.33,-0.49 1.18,-1.17 0.2,-1.73 0.23,-0.41 0.85,-0.13 0.52,0.47 0.96,-0.01 0.23,0.33 0.11,0.54 0.46,0.25 0.5,0.03 0.71,-0.11 0.73,-0.37 0.5,-0.55 0.67,-0.35 0.18,-0.8 -0.63,-1.63 -1.03,-0.54 -1.71,0.08 -0.37,0.53 -0.78,0.44 -1.14,-0.21 -2.71,-0.11 -0.67,-0.81 -0.37,-0.17 -0.6,-0.03 -0.74,-0.39 -2.3,-0.15 -0.12,-0.2 0.02,-0.95 0.16,-0.49 1.56,-0.09 0.21,0.28 0.17,0.65 0.2,0.12 0.22,-0.12 0.13,-1.87 0.2,-0.21 1.03,-0.37 0.81,-1.47 0.96,-0.71 0.32,-0.46 0,-0.63 -0.22,-0.54 -1.18,-0.96 -0.19,-0.63 -0.76,-0.23 -0.74,0.19 -0.58,-0.46 -0.76,-0.04 -0.13,-0.52 0.31,-0.6 0.73,-0.75 1.23,0.03 1.11,-0.27 0.57,1.24 0.54,0.27 0.81,-0.06 0.09,-0.22 -0.17,-0.64 0.48,-1.18 -0.62,-1.11 0.22,-0.69 0.84,-0.88 0.13,-0.42 0.48,-0.21 0.76,0.04 0.47,-0.35 1.29,0.17 0.27,0.4 0.4,1.73 0.45,0.4 0.7,0.09 0.52,0.3 0.3,1.09 0.31,0.27 0.54,-1.4 0.34,-0.5 0.85,-0.22 0.69,-0.36 0.24,0.65 0.81,0.84 0.39,-0.3 0.2,-0.55 -0.04,-0.42 0.66,-0.32 0.11,0.19 -0.3,0.4 0.12,0.17 0.57,-0.28 0.54,0.32 -0.62,1.09 -0.03,0.3 1.11,0.3 0.35,0.37 0.63,-0.01 0.88,-0.08 0.29,-0.22 0,-0.51 -0.58,-1.2 -0.18,-0.71 0.29,-0.37 0.43,0.01 0.64,-0.53 0.58,0 0.67,0.53 1.32,0.22 0.37,-0.24 0.26,0.13 1.89,0.05 0.74,-0.39 0.56,-0.04 0.35,-0.28 0.33,0.04 1,0.95 -0.35,0.46 -1.12,0.55 -0.04,0.28 0.59,1.66 0.24,0.35 0.86,0.36 0.64,0.48 0.37,0.02 0.23,-0.45 -0.26,-0.66 0.18,-0.45 0.38,-0.43 0.31,-0.81 0.79,-0.32 0.26,-0.4 0.03,-0.3 0.88,-0.67 0.3,-0.07 0.42,-0.76 0.7,-0.26 0.24,-0.3 0.37,-0.09 0.36,-0.53 -0.13,-0.39 0.09,-0.23 0.68,0.12 1.52,-0.17 0.8,0.31 0.93,0 0.84,0.25 1.15,-0.24 0.51,-0.27 0.28,-0.36 0.15,-0.92 -0.31,-0.69 0.13,-0.4 0.16,-0.16 0.68,-0.13 0.23,-0.23 0.53,-0.03 0.11,0.25 0.26,0.12 0.89,-0.34 2.02,0.32 0.35,-0.19 1.05,-0.18 0.17,-0.26 0.46,0.24 0.2,-0.36 0.31,0.15 1.91,-0.77 0.22,-0.24 0.8,-0.16 0.83,-0.48 1.29,-0.3 0.16,-0.26 0.64,0.11 0.7,-0.36 0.53,0.47 0.29,-0.2 0.28,0.03 0.14,-0.16 0.32,0.22 0.28,-0.11 0.08,-0.6 0.33,-0.48 0.16,0.21 0.28,-0.07 -0.17,0.62 0.06,0.16 0.34,0.06 0.57,-0.49 0.37,-0.71 0.49,0.21 0.34,-0.14 0.39,0.29 0.52,-0.1 0.31,0.08 0.65,-0.54 0.8,0.09 0.64,-0.32 0.73,0.03 0.44,-0.16 1.58,0.19 0.45,-0.23 0.21,-0.38 -0.02,-0.35 0.16,-0.17 0.35,-0.07 0.27,0.22 0.41,0.07 0.37,-0.27 0.38,-0.04 0.57,-0.31 0.08,-0.36 0.41,-0.33 0.5,-0.07 0.24,0.17 1.6,-0.4 0.14,0.22 -0.1,0.15 0,1.11 0.2,0.07 1.06,-0.29 0.93,-0.52 1.2,-0.92 0.8,-0.37 0.33,0.05 0.94,0.69 0.79,0.76 0.87,1.2 2.15,-0.06 0.33,-0.43 0.01,-0.43 -0.53,-2.11 -0.45,-0.68 0.39,-1.25 -0.17,-1.18 0.25,-0.32 1.46,-1.02 1.33,-0.54 0.59,0 1.4,0.39 0.42,-0.12 0.05,-0.53 -0.68,-0.93 0.07,-0.55 0.29,-0.36 0.65,-0.25 1.64,0.45 0.9,-0.02 0.75,0.32 1.14,0.78 0.5,0.06 0.42,-0.22 0.5,-0.64 0.3,-0.82 0.06,-0.61 0.36,-0.72 1.19,-0.56 0.86,-0.08 0.29,0.07 0.21,0.34 -0.39,1.43 0.02,0.89 z" 
                fill="rgb(151, 144, 238)" 
                stroke="white" 
                stroke-width=".7px"
                title="Qostanay oblysy" 
                id="KZ-KUS" 
            />
        </svg>