<svg xmlns="http://www.w3.org/2000/svg" viewBox="241.06694000000005 238.41270999999975 181.45999999999987 149.92000000000021" width="181.45999999999987" height="149.92000000000021">
            <path 
                d="m 244.32694,301.88271 0.68,-0.5 0.32,-0.73 0.36,-0.45 0.68,0.36 0.36,0.41 0.63,0.23 0.91,0 0.41,0.77 -0.23,0.91 0.18,1.54 -0.09,1 -0.5,0.63 0.59,1.22 0.41,1.59 0.73,0.45 0.59,0.59 0.32,0.86 0.03,0.77 -9.64,-6.98 0.1,-0.99 0.41,-0.27 0,-0.95 0.23,-0.45 0.63,0 0.54,0.27 0.81,0.03 0.54,-0.31 z m 15.81,-0.72 -2.07,0 0.14,-3.51 1.65,-0.41 3.24,-0.21 2.48,0.28 0.48,1.03 1.86,0.34 2,0.07 0.28,0.48 -5.17,0 -2.76,1.52 -2.13,0.41 z m 40.91,-57.74 1.6,3.05 2.42,-0.37 5.36,6.82 -0.84,1.94 5.59,0.88 0.85,1.22 1.47,-0.47 -5.35,4.19 8.03,-1.5 2.31,2.2 2.93,1.97 2.59,-0.2 5.76,3.22 1.88,-1.16 0.85,0.86 9.75,3.82 2,0.05 9.77,5.26 4.05,0.35 3.54,4 3.59,1.99 25.38,6.89 7.7,-0.43 0.94,0.28 0.31,2.7 -0.27,2.31 3.07,2.37 0.59,1.89 -0.56,1.24 -1.18,1.67 -0.61,2.05 -0.18,2.87 -1.24,4.54 3.69,3.06 3.09,1.32 0.12,19.1 -0.38,0.54 -0.23,1.68 2.07,2.03 1.18,-0.38 2.23,1.25 0.05,0.9 2.23,2.71 5.33,3.81 -1.37,1.36 -0.75,-0.61 -1.18,0.48 -1,1.06 0.41,0.58 0.57,1.48 -0.23,2.88 -0.83,0.4 -1.92,-1.67 0.01,4.22 -1.85,1.89 0.16,0.89 -0.4,2.19 -1.97,0.56 0.58,2.57 0.83,-0.51 -0.31,-1.67 1.07,-0.61 -0.21,1.21 1.13,-0.05 -0.34,1.42 0.75,1.8 1.38,-0.37 -0.08,0.88 -1.9,1.22 -6.44,3.22 -5.19,1.92 -4.86,3.66 -5.47,5.52 -2.73,-1.68 -7.85,8.15 -1.69,-0.41 -0.15,-15.78 -5.28,2.48 -2.79,-8.98 -0.63,-2.55 -4.57,-4.06 -2.36,-2.37 -2.4,-5.3 -0.42,-0.48 -0.67,-0.38 -1.16,0.02 -0.86,0.22 -9.19,4.37 -0.44,0.08 -11.68,-0.74 -7.57,-0.77 -2.73,-0.44 -8.58,1.51 -17.66,3.47 -0.35,-0.03 -0.68,-0.65 -13.56,-16.74 -2.55,-2.57 -0.93,-2.96 -9.1,-6.57 0.97,-0.86 0.59,-0.32 0.68,-1.95 0.27,-1.95 -0.45,-2.08 -0.82,-2.67 -0.77,-0.95 -1.18,-0.09 -0.41,-1.27 -0.86,-0.73 -0.5,-1.68 0,-1.18 0.5,-1.13 -0.05,-3.67 -0.45,-1.63 -0.91,-0.68 0.23,-1 0.73,-1.68 0.09,-1.63 -0.73,-2.9 -0.95,-1.04 -0.14,-1.95 1,-0.68 0.54,-2.85 0.41,-0.54 0.23,-0.97 2.76,-0.68 0.68,-0.95 0.32,-1.22 1.81,-1.68 2.04,-0.36 1.4,-1.27 1.81,-0.68 1.9,-1.13 1.22,-2.08 0.32,-3.31 -0.06,-1.68 -0.75,-0.11 -1.07,0.86 -2.99,-0.53 -2.67,0.11 -1.92,-2.35 0.11,-3.31 0.32,-1.39 -1.39,-0.43 -0.96,-0.85 -2.67,0.11 -0.11,0.96 1.07,0.53 0.96,0.11 1.28,0.96 0,1.28 -0.75,0.43 -0.75,0.86 -1.07,0.53 -1.28,-0.64 -1.5,-0.43 0,3.1 -0.72,0.51 -0.27,-0.94 0.13,-2.67 -0.53,-1.07 -0.94,-0.94 -1.34,0 -4.41,2.94 -0.8,1.07 -0.12,2 0.58,0.72 0.68,1.5 0.45,0.68 1.36,0.59 1.09,0 0.91,-0.45 1.13,-0.32 2.4,-0.18 0.54,1.04 0.86,0.68 1.18,0.41 1.5,-1.04 0.73,-0.91 0.86,-0.18 0.18,1.77 1.54,2.58 -0.04,1.99 -0.41,1.45 -2.08,1.31 -1.09,0 -2.58,0.5 -1.22,-0.41 -1.13,-1.22 -1.04,-0.59 -3.08,-0.63 -1.54,-0.18 -0.86,0.5 -1.77,1.63 -1.36,0.09 -0.63,-0.36 0.36,-1.9 -0.41,-0.68 -0.14,-1.22 0.05,-1.5 -0.77,-0.95 -1.18,-0.23 -3.26,0 -0.63,0.14 0.05,1.09 2.13,3.4 0.5,1.13 -0.36,1.31 0.45,3.44 -0.23,1.36 -0.54,0.91 -0.63,0.32 -0.68,-0.36 -0.82,2.4 -0.72,0.59 -0.86,-0.32 -1.09,0.09 -1.09,0.41 -1.04,0 -0.14,-0.73 0.05,-0.95 0.23,-1.09 1.13,-1.72 0.82,-0.91 0.36,-0.82 -0.82,-0.59 -0.95,-0.5 -0.86,0.5 -1.04,1.04 -1.22,0.09 -1.18,-0.18 -0.54,-0.45 -0.39,-0.15 5.3,-6.52 4.27,-6.41 2.23,-2.45 1.64,-2.56 7.83,-7.27 5.96,-0.49 0.56,-6.16 8.14,0.67 6.68,-17.89 11.81,-2.73 3.31,5.01 z" 
                fill="rgb(151, 144, 238)" 
                stroke="white" 
                stroke-width=".7px"
                title="Qyzylorda oblysy" 
                id="KZ-KZY" 
            />
        </svg>