<svg xmlns="http://www.w3.org/2000/svg" viewBox="584.2569400000001 122.22271000000008 208.03999999999974 180.82000000000005" width="208.03999999999974" height="180.82000000000005">
            <path 
                d="m 641.68694,130.35271 0.39,0.62 1.33,3.15 3.03,6.03 0.18,0.62 2.44,4.91 0.35,1.02 0.15,-0.39 0.25,0.7 1.32,2.31 0.82,1.79 -0.27,-1.93 0.09,-0.9 0.3,0 0.14,0.55 1.95,-0.01 -0.04,-1.71 0.18,-0.56 0.75,-0.09 0.24,-0.55 1.38,-0.04 0.05,-0.2 0.27,-0.07 0.74,0.03 1.03,-1.17 0.76,-0.01 -0.07,-0.59 0.26,-1.16 -0.01,-1.52 -0.07,-0.63 -0.75,-0.79 0.09,-2.44 0.62,-0.14 2.91,0.11 0.16,-0.48 0.01,-1.35 0.3,-0.84 0.48,-0.46 2.2,0.65 0.69,0.28 0.57,0.45 1.05,0.22 -0.12,0.36 0.23,0.29 1.75,0.65 1,0.76 0.48,-0.32 0.5,-0.8 0.44,0.16 0.39,0.59 0.01,1.19 -0.42,1.94 -0.91,1.45 -0.11,1.03 -0.28,0.73 0.09,1.12 1.88,0.06 3.19,-1.21 1.33,0.02 0.08,0.41 0.17,0.02 0.07,0.16 0.03,0.8 0.31,0.13 0.18,0.84 -0.42,0.57 0.25,0.5 0.44,0.08 0.57,1.49 0.03,0.38 -0.57,1.18 -0.01,0.6 0.58,0.14 2.71,0.12 2.8,-0.54 0.13,-0.09 0.09,-1.21 0.11,-0.09 0.28,0.15 -0.03,0.51 1.34,-0.78 2.43,0.35 0.39,0.17 1.58,1.38 1.01,0.31 1.08,-0.11 0.38,-0.21 0.59,-0.73 0.29,-0.08 0.9,0.09 0.92,-0.16 0.81,0.23 0.8,0 1.14,0.43 0.63,0.03 0.36,-0.11 1.97,-1.26 0.83,-0.85 0.19,-0.44 0.02,-1.49 0.3,-1.33 0.78,-0.22 1.72,0.7 1.12,0.27 1.05,0.07 0.51,-0.31 0.33,-0.56 1.41,-1.38 0.21,-0.54 -0.13,-0.74 0.26,-0.15 0.52,0.07 0.22,0.24 0.36,0.1 0.27,0.65 0.12,0.11 0.17,-0.05 0.22,0.37 0.88,-0.67 1.13,-0.11 1.72,0.41 0.54,-0.42 -0.39,0.54 0.14,0.34 1.42,0.62 0.7,-0.09 1.06,0.25 1.12,0.52 1.37,1.19 1.45,0.16 0.55,0.2 0.38,0.26 2.56,2.9 0.31,1.88 0.2,0.36 1.26,1.37 0.6,1.14 0.15,0 0.91,0.84 1,1.42 0.9,0.86 0.28,0.52 0.11,0.42 -0.53,0.91 -0.03,0.57 0.92,2.87 -0.03,0.44 -0.41,0.9 0.01,0.35 0.53,0.99 1.2,1.37 0.23,0.14 1.44,-0.06 0.96,-0.83 0.34,-0.03 1.59,1.45 0.64,0.3 1.45,0.3 0.52,0.34 0.81,0.82 0.38,0.18 1.15,0.11 0.29,0.41 0.09,0.73 1.41,0.03 0.49,0.15 1.28,1.05 0.54,0.86 0.16,0.74 -0.23,0.28 -0.45,-0.3 -0.21,0.24 0.06,0.44 -0.27,0.66 0.07,1.15 0.29,0.58 0.39,0.28 1.72,0.52 0.26,0.67 0,0.67 1.52,2.77 0.17,0.59 0.06,0.73 -0.27,1.15 0.09,0.38 0.26,0.46 0.82,0.36 0.46,0.75 0.92,-0.09 0.54,0.36 0.21,0.41 0.66,-0.21 0.43,0.31 0.38,-0.31 0.25,-0.51 0.75,-0.32 1.16,-0.05 1.22,0.42 0.72,0.84 0.45,0.13 1.53,-0.41 0.63,0.16 0.79,0.51 1.8,-0.18 0.23,0.05 0.23,0.3 -0.26,1.1 0.1,0.25 0.87,0.33 1.05,-0.8 0.55,-0.15 0.84,0.04 1.07,1.62 0.17,0.03 0.68,-0.6 -0.21,-0.96 0.81,-1.05 -0.06,-0.84 0.12,-0.18 2.35,-0.84 1.3,-0.82 1.16,-1.61 1.08,-0.73 0.4,-0.64 0.44,-0.1 0.45,-0.42 0.29,-0.52 -0.3,-0.51 0.11,-0.4 3.68,0.01 0.05,0.27 -0.74,1.53 0.02,0.49 0.28,0.47 -0.57,0.49 -1.07,0.6 -0.58,-0.18 -0.92,1.17 -0.03,0.83 0.28,0.95 0.44,0.45 1.02,-0.17 1.79,0.84 0.05,0.14 -0.38,0.38 0.75,0.62 -0.31,1.01 0.11,0.67 1.85,1.05 0.15,1.23 -0.26,0.36 -0.02,0.3 0.57,0.68 0.21,0.72 0.47,0.22 0.67,-0.05 0.71,1.22 2.95,0.26 1.53,0.93 0.25,0.38 0.61,2.58 0,0.49 -0.31,-0.05 -0.53,-0.41 -0.92,0.03 -0.59,-0.59 -1.1,-0.49 -3.22,1.49 -0.89,0.02 -0.72,-0.44 -0.27,0 -0.52,0.54 -0.31,1.36 -1.47,0.93 -0.45,0.56 -0.14,0.27 -0.05,0.84 0.26,1.4 1.49,1.89 0.01,0.65 -1.01,0.76 -0.14,0.24 -0.1,0.61 0.44,0.84 -0.12,0.88 -1.2,1.36 -0.31,0.87 -0.27,0.21 -0.73,0.2 -0.24,0.88 -0.37,0.44 -0.27,1.07 -0.91,0.19 -2.1,1.23 -0.85,-0.45 -0.45,0.2 -0.94,0.06 -0.82,1.07 -1.19,0.84 -0.96,-0.01 -2.91,-0.39 -0.95,0.54 -0.97,-0.25 -0.8,0.33 -0.68,0.07 -2.11,1.73 -0.56,1.07 -0.09,1.11 -1.04,2.64 -0.65,1.26 -0.08,0.99 0.11,1.14 -0.38,0.97 -0.08,0.67 -0.78,1.54 -0.12,0.98 0.99,5.47 0.55,4.08 -0.34,2.52 0.71,1.88 1.13,1.61 0.17,0.64 -0.32,1.45 0.24,0.86 -0.12,1.81 -0.12,0.36 -0.25,0.19 -1.55,0.15 -0.41,0.45 -0.28,1.56 -0.57,1.23 -0.06,0.94 -1.63,-0.16 -1.22,0.33 -0.56,-0.21 -0.61,0.4 -0.6,-0.44 -1.33,0.24 -0.64,1.33 -1.93,1.33 -0.4,0.76 -0.54,0.26 -0.77,0.01 -0.52,0.26 -0.26,1.21 -0.87,0.49 -0.9,-0.02 -1.26,0.8 -0.16,-0.02 -0.24,-0.34 -1.6,0.15 -0.15,-0.16 0.07,-0.16 0.74,-0.4 0.37,-0.88 0.58,-0.5 -0.28,-0.26 -0.04,-0.46 -0.5,-0.22 -0.17,-0.72 -0.59,-0.83 -0.36,-0.24 -0.43,0 -0.59,0.24 -1.35,-0.02 -1.1,0.54 -0.88,-0.27 -0.33,-0.53 -0.3,-0.12 -1.1,0.37 -0.71,-0.19 -2.35,0.12 -0.65,0.14 -1.02,0.5 -1.37,0.36 -0.39,-0.02 -1.19,-0.86 -1.31,-0.02 -1.12,-0.52 -1.76,-0.43 -1.15,-0.01 -2.35,-0.8 -0.49,-0.29 -0.69,-0.78 -1.2,-1.02 -0.95,0.27 -1.12,-1.47 -2.07,-0.12 -1.36,-1.29 -1.91,-0.05 -0.45,0.09 -0.42,0.29 -0.72,4.43 -0.36,0.85 -0.76,0.39 -0.39,2.11 -0.5,1.74 -1.61,3.59 -0.34,1.22 -0.49,3.26 -0.81,2.91 -2.8,5.76 -0.53,1.4 -0.6,2.24 -0.31,4.68 -0.61,1.4 -1.05,1.86 -0.7,2.17 -1.45,3.23 -0.37,1.08 -0.33,1.71 0.05,0.61 0,0 -2.01,0.72 -0.71,-0.62 -0.24,-1.58 0.6,-4.2 -3.15,-3.43 -1.52,-5.75 0,0 -6.44,-7.55 0.69,-0.91 -0.85,0.17 -0.27,-0.3 0.98,-0.73 0,0 0.36,-0.98 -0.46,0.02 -0.63,1.16 -0.68,-0.51 -0.68,-0.03 0,0 -0.65,-0.14 0.73,-1.14 -0.57,-0.01 0,0 -0.87,1.23 -0.63,-0.73 -0.57,-1.43 0,0 -1.09,0.71 -0.92,0.03 0,0 -1.09,-1.66 -6.04,-0.15 -5.65,-3.16 -6.65,-2.92 0.08,-2 -4.15,-1.72 -9.25,3.23 -6.1,-8.55 -8.65,0.97 -0.95,-2.44 -2.45,-0.22 -0.97,-1.14 -2.32,-1.51 0,0 -3.28,-2.76 -3.13,3.99 0,0 -2.48,-2.61 -2.85,3.2 -5.02,-1.12 -0.53,0.98 0,0 -1.94,0.87 -2.29,-1.12 -1.21,0.75 -0.94,2.59 -2.89,-1.08 -1.89,-1.4 -1.01,-1.72 -1.74,-0.9 1.53,-0.58 0.83,-2.02 -0.1,-2.19 1.84,-0.29 1.77,0.78 -0.21,-1.48 -1.02,-4.4 -0.44,-0.2 -0.4,-1.15 1.17,-2.59 0.96,-4.09 0.96,0.04 0.18,-2.4 1.33,-0.01 -1.16,-1.67 3.62,-1.32 -1.38,-1.1 -1.96,0.15 -2.5,-2.28 0.51,-1.5 1.71,-0.07 0.42,-1.03 -0.92,-0.28 -3.04,0.08 -0.27,-1.28 -1.68,-0.78 -0.72,-1.48 1.54,-0.47 -0.22,-1.52 1.01,-0.93 0.99,-0.08 1.49,0.51 3.58,-3.68 -0.02,-1.24 0.82,-3.2 -0.8,-2.38 -7.96,1.31 -1.37,-2.73 0.45,-1.92 -0.17,-1.15 1.62,-0.84 0.4,0.57 1.86,-0.79 -1.88,-1.96 -1.57,-0.91 -0.05,-1.88 -2.92,-2.41 -1.64,-0.54 0.05,-1 -1.56,-1.79 0.29,-1.71 4.59,-2.21 5.06,-1.86 1.73,-2.72 0.4,-1.57 -0.51,-1.37 0.45,-1.82 -0.59,-0.88 0.54,-2.31 1.77,-0.05 0.86,-0.6 2.75,-1.26 1.53,-2.13 2.86,-2.38 0.44,-1.71 0,0 1.29,-0.76 1.15,2.02 8.35,3.48 3.15,0.78 2.68,-1.23 3.34,-6.07 1.33,-1.38 -0.56,-3.96 -1.84,-0.52 0.7,-6.81 -4.02,-2.67 -1.3,-0.67 -1.58,-1.24 -0.9,-1.36 -1.48,-0.45 -0.53,-3.1 -2.33,-3.37 1.66,-1.61 0.45,0.36 2.1,-1.12 0.25,-1.12 1.19,-0.53 0.44,1.01 2.46,-0.77 3.98,-2.53 1.01,0.35 -0.18,-1.48 0.3,-1.25 -1,0.17 -0.09,-1.86 3.89,-0.57 0.54,0.65 2.51,-2.46 -0.52,-1.7 2.98,-0.76 0.52,-3.05 1.46,-0.17 0,0 z" 
                fill="rgb(151, 144, 238)" 
                stroke="white" 
                stroke-width=".7px"
                title="Shyghys Qazaqstan oblysy" 
                id="KZ-VOS" 
            />
        </svg>