<svg xmlns="http://www.w3.org/2000/svg" viewBox="378.73693999999944 0.2527118999999725 156.20000000000016 106.57999810000003" width="156.20000000000016" height="106.57999810000003">
            <path 
                d="m 440.10694,2.2427119 0.49,1.17 0.25,0.13 1.26,-0.33 1.3,-0.6 0.83,-0.12 0.65,0.11 1.6,0.74 0.56,-0.23 1.45,-0.09 1.46,0.26 2,1 1.17,0.38 0.59,0.39 0.43,0.54 0.69,2.02 0.43,0.41 0.99,0.38 1.14,0.15 1.59,1.6600001 0.33,0.15 1.31,0.04 0.33,-0.17 1,-1.1300001 2.13,-0.92 0.29,-0.35 0.68,-1.92 0.48,-0.51 0.76,0.01 1.26,0.73 1.03,0.02 0.38,-0.16 0.6,-0.68 0.45,-0.2 1.94,-0.38 0.36,0.07 0.19,1.38 0.46,0.93 0.7,1.39 0.8,0.73 0.26,1.2000001 0.69,0.7 0.67,1.3 0.14,0.84 -0.16,2.3 0.13,1.21 -0.42,1.02 -0.07,0.85 0.08,0.33 0.92,1.31 0.07,1.63 0.16,0.59 0.65,1.27 0.87,0.93 1.93,0.5 1.18,0.93 0.09,0.27 0.02,1.34 -1.52,0.47 -0.35,0.28 -0.15,0.32 -0.2,1.51 0.11,1.4 0.27,1.82 0.47,1.63 -0.17,1.34 -0.4,1.02 -0.17,0.14 -0.31,-0.02 -1.69,-0.33 -1.19,-0.63 -0.16,0.03 -0.12,0.24 0.01,1.27 0.14,0.3 0.35,0.28 1.01,0.25 0.2,0.33 0.12,0.74 -0.71,0.96 -0.07,0.29 0.22,0.34 0.58,0.35 0.3,0.36 0.28,0.63 0.12,1.11 0.3,0.26 0.71,0.21 0.23,-0.08 1.46,-1.27 0.45,-0.95 0.87,-0.18 2.86,0.9 0.19,0.44 -0.13,0.77 0.2,0.36 1.36,-0.26 1.37,0.46 0.45,-0.34 0.82,-0.23 0.5,-0.61 -0.02,-0.62 -0.39,-1.15 0.35,-1.2 0.46,-0.67 2.53,0.32 2.44,0.54 0.69,0.57 0.05,0.65 0.69,0.39 -0.06,0.63 1.36,0.77 0.15,-0.05 0.31,-0.5 0.13,-1.22 -0.64,-0.68 -1.51,-0.8 0.28,-1 0.57,-0.96 -0.49,-0.79 -0.91,-0.71 -0.33,-0.75 0.09,-0.15 0.42,-0.1 1.42,0.02 0.76,0.17 1.67,1.28 0.39,1.2 -0.14,0.92 0.9,0.57 -0.46,1.43 0.19,0.22 1.73,1.13 1.84,0.51 0.06,0.94 -1.19,-0.26 -0.32,0.41 -0.94,0.05 -0.12,0.54 0.37,0.55 -0.02,0.37 0.73,0.57 0.02,0.16 -0.82,2.81 1.01,1.09 0.99,0.34 0.25,-0.13 0.79,-1.91 0.39,-0.59 3.26,1.32 -0.21,-1.42 -0.9,-1.77 -0.94,-0.19 -0.83,0.05 -0.36,0.26 -0.67,-0.13 0.46,-2.07 0.86,-0.43 0.24,-0.38 3.52,0.31 0.65,0.11 0.49,0.49 2.71,0.27 -0.06,1.47 1.26,0.2 0.52,1.7 0.29,0.18 2.26,0.48 1.53,0.51 0.18,0.24 2.18,-0.08 0.15,-0.25 -0.13,-0.67 0.14,-0.21 0.62,0.23 0.79,0.67 0.87,0.43 0.16,-0.08 0.04,-0.26 -0.51,-1.18 0.01,-0.34 1.5,-0.5 0.82,-0.69 0.2,-0.46 -0.27,-0.51 0.11,-0.1 1.15,0.12 0.04,0.36 1.08,0.19 -0.51,3.43 -0.64,2.89 -4.39,-0.66 -0.65,1.21 0.48,1.05 -0.66,0.31 -1.43,0.29 0.23,0.95 -0.6,2.56 -1.36,0.22 0.02,1.03 0.42,0.08 0.02,0.12 -0.7,2.31 2.06,0.74 0.21,0.38 0.71,0.22 0.01,0.56 -0.42,1.22 0.34,0.41 1.05,0.59 0,0 1.01,2.26 1.6,2.53 -0.74,0.76 -1.64,-0.8 -0.45,3.07 0.48,2.89 2.78,-2.43 0.07,-0.7 1.11,-0.41 0.31,0.75 1.01,-0.68 0.91,1.42 -1,0.54 0.06,0.71 -1.12,0.54 0.13,1.15 -1.11,1.66 -0.74,1.85 -1.16,0.95 0.47,0.49 2.15,-1.51 0.64,1.35 -1.38,1.62 0.49,2.57 2.63,-0.04 1.17,-3.16 0.89,0.28 1.92,-0.67 1.09,2.95 -0.99,0.53 0.19,1.69 -1.24,0.5 0.27,3.08 -0.96,0.41 -0.83,-1.78 -1.42,-0.21 -0.9,-1.24 -0.4,1.19 0.99,2.62 3.63,0.27 0.11,1.26 0,0 -7.52,-0.56 -1.39,-2.67 -1.45,0.07 -0.24,-1.28 -2.64,0.06 -3.72,-1.89 -2.49,1.06 -0.54,-5.75 -0.82,-0.93 -0.01,-2.37 -0.41,-1.03 -0.66,0.06 -0.63,0.9 -2.1,0.02 -1.81,0.9 -0.83,-0.78 -3.75,0.83 -0.91,2.38 -4.6,0.35 -5.67,-0.71 -0.26,-1.26 -0.94,-1.06 -0.02,-1.1 1.24,-0.56 -0.62,-1.71 0.63,-2.28 0.78,-1.17 -4.03,-4.38 0.12,-1.23 -1.98,-0.05 -0.65,1.31 -1.21,0.17 -0.46,0.64 -0.54,0.09 -0.73,0.76 -1.72,-0.02 -0.21,-0.58 -3.14,-0.56 0.29,-1.9 -0.26,-0.02 0.08,-0.96 -8.21,0.23 -0.47,2.71 -1.76,0.26 0.36,2.36 -1.89,0.25 -0.29,-1.54 -1.98,-2.5 -0.1,-0.56 -0.68,-0.05 -0.3,0.52 -3.8,0.1 0.58,-0.51 -0.08,-0.96 0.82,-0.07 -0.22,-0.85 0.84,-0.48 -0.17,-1.8 -1.39,0.57 -2.41,-0.61 -0.44,0.65 -0.66,-0.33 0.47,-1.06 -0.22,-3.33 -1.07,-0.37 -0.19,-1.54 -4.22,-0.07 -0.73,0.78 -0.95,0.06 -0.46,0.93 -1.08,-0.23 -0.36,1.63 -0.82,0.08 0.33,1.54 1.08,0.23 -0.63,1.46 -1.34,-0.38 -0.05,-1.52 -0.35,-1.13 -0.81,-0.21 -0.23,-0.84 -1.22,-0.24 -0.06,-1.39 -1.91,-0.15 0.06,1.67 -2.74,0.2 -0.09,-0.98 -1.91,-0.14 -0.17,0.81 -1.5,-0.11 0.64,1.01 -0.16,0.54 0.52,0.59 -0.44,0.52 -2.86,-0.08 0.06,1.65 0.95,-0.06 -0.6,1.19 -0.51,-0.59 -0.99,0.75 -0.04,0.82 -0.56,0.23 -0.82,0.08 -0.59,0.91 1.4,2.03 0.09,1.1 1.07,0.36 0.61,1.27 2.17,0.17 -0.25,2.3 1.35,0.11 0.34,1.11 -0.07,1.36 -0.69,0.22 1.14,1.58 -2.99,2.76 0.92,3.19 -1.07,-0.22 1.65,1.88 -1.66,0.83 -0.53,-0.18 -0.86,0.88 -0.67,-0.05 -0.33,1.19 -0.81,0.08 -1.39,0.84 -0.37,1.86 -0.54,0.09 -0.49,1.58 -2.14,-0.29 -0.83,0.48 -0.76,1.69 -2.83,-0.06 0.43,2.18 1.19,0.48 0.22,0.95 -2.43,2.649998 -0.77,-0.59 -0.59,1.03 0.5,0.7 -1.13,1.12 -0.53,-0.3 -2.05,-1.88 -2.77,-1.12 -1.14,-1.42 -4.32,0.12 0.22,6.69 -4.11,-1.46 -1.24,0.71 -2.15,-0.27 -1.97,-1.06 -6.23,0 -0.14,-3.08 -3.7,0.57 -2.9,1.29 -1.65,-3.46 -3.13,-0.189998 0,0 0.24,-10.23 2.07,-0.54 -0.13,-3.67 0.41,0.03 -0.16,-3 -0.96,-0.06 -0.7,-3.18 0.86,-1.04 2.05,0.14 1.27,-1.01 2.85,0.6 0.49,-2.16 -2.93,-1.83 -0.2,-8.66 -3.28,-0.35 -0.85,-2.54 0.87,-1.18 1.58,-1.55 -0.04,-5.26 -2.49,0.54 -2.03,-6.52 5.08,-2.68 1.76,-0.17 0.55,-0.53 -1.06,-2.81 -1.36,-0.13 -3.67,-2.3 3.73,-1.33 -2.21,-6.08 0.56,-0.8 -0.41,-0.6 -1,-3.79 0,0 4.77,-1.83 6.06,-1.49 1.52,0.28 0.9,-1.19 0.31,-0.17 2.99,-0.44 1.88,0.15 0.79,-0.84 1.39,-0.16 2.32,-0.56 0.22,-0.23 0.19,-1.06 0.24,-0.26 0.43,0.05 0.86,0.5 2.05,-0.07 1.29,0.48 0.51,-0.16 0.41,-0.32 0.73,-0.01 2.43,-1.01 0.3,-0.59 0.29,-1.41 0.3,-0.44 0.64,-0.53 0.5,-0.2 0.8,0.04 2.22,1.1 1.48,-0.38 1.98,-0.12 0.29,-0.3 -0.21,-0.7 0.26,-1.18 0.53,-0.81 0.8,-0.76 -0.55,-0.49 -0.24,-0.47 -0.85,-0.99 -0.16,-0.32 0.15,-0.7700001 -0.5,-0.79 0.02,-0.17 1.48,-0.03 0.72,-0.32 0.28,0.07 0.73,0.6 0.25,-0.1 0.29,-0.41 0.33,-0.12 1.83,0.21 1.87,-0.4 0.41,0.41 0.34,0.03 0.32,-0.59 0.26,-1.51 0.19,-0.32 0.55,-0.26 0.36,-0.4 0.16,-0.76 0.3,-0.45 -0.06,-0.85 0.44,-0.51 0.36,-0.12 0.93,0.2 3.1,2.07 0.41,0.13 0.22,-0.2 0.16,-0.46 -0.29,-1.15 -0.55,-0.62 -0.31,-0.06 -0.48,0.23 -0.18,-0.13 -0.09,-1.41 0.16,-0.65 0.49,-0.44 0.71,0.02 1.35,0.41 1.62,1.02 z" 
                fill="rgb(151, 144, 238)" 
                stroke="white" 
                stroke-width=".7px"
                title="Soltüstik Qazaqstan oblysy" 
                id="KZ-SEV" 
            />
        </svg>