<svg xmlns="http://www.w3.org/2000/svg" viewBox="440.30694000000057 290.6627100000002 128.8899999999997 97.87000000000018" width="128.8899999999997" height="97.87000000000018">
            <path 
                d="m 537.58694,291.03271 -1.56,3.41 0,0 -1.85,3.12 0.84,10.2 1.06,2.79 -5.87,-0.43 0.35,5.11 5.45,0.14 0.16,3.34 0.76,0.91 0.38,1.19 6.24,4.37 1.86,3.21 -0.89,3.28 0.63,0.99 3.71,3.55 4.34,0.47 0,0 0.33,0.04 1.86,1.71 0,0 1.21,0.17 1.1,1.49 2.02,1.38 0.09,3.34 -0.44,1.16 -0.86,0.99 0.45,1.93 -0.46,1.25 -0.74,0.35 -4.25,4.04 0.01,1.72 3.28,1.15 0.66,-0.45 1.1,0.14 -0.29,0.93 2.91,-0.36 0.7,1.18 -2.58,3.13 -0.22,2.26 0.74,0.44 -0.27,1.15 0.75,0.33 0.46,1.9 1.88,0.39 3.66,1.73 -0.52,1.06 0,0 -1.12,0.34 0.22,0.43 0,0 1.88,-0.21 1.08,0.68 1.01,-0.44 0.2,0.94 0.15,-0.02 0,0 -0.48,0.84 -0.35,1.68 -0.24,0.42 -0.82,0.62 -1.99,-0.63 -2.39,-0.11 -0.76,0.15 -0.46,-0.07 -2.05,-0.9 -0.92,0.13 -0.82,0.36 -0.59,-0.1 -0.17,-0.18 -0.7,-0.04 -0.55,-0.76 -0.87,-0.37 -0.1,-0.26 -0.87,-0.43 -0.56,-0.55 -0.8,-0.1 -0.58,-0.44 -0.17,0.1 -0.08,-0.48 -0.18,-0.22 -1.44,-0.61 -0.38,0.3 -1.5,0 -0.66,-0.89 -0.24,-0.84 -0.55,-0.49 -0.78,-0.39 -0.25,-0.76 -0.42,-0.2 -0.8,-0.72 -0.31,0.08 -0.39,-0.25 -0.18,0.11 -0.37,-0.67 -0.94,-0.09 -0.28,-0.34 -0.32,0.18 -0.39,-0.21 -0.85,-0.1 -0.16,-0.2 -0.5,-0.09 -0.27,-0.58 -1.94,0.13 -0.48,-0.12 -0.27,0.16 0.42,0.87 -0.07,0.21 -0.3,0.16 -0.33,0.01 -0.81,0.45 -0.92,0.25 -0.95,-0.29 -0.39,-0.45 -0.56,-0.16 -0.95,1.55 -0.28,0.96 -1.38,-0.39 -0.8,0.09 -2.72,1.43 -1.3,0.54 -0.25,0.3 -0.08,0.17 0.19,0.35 -0.05,0.32 -0.39,0.84 -0.52,0.67 -0.28,0.71 0.07,3.27 -0.81,1.54 -0.74,2.58 -0.04,1.47 0.33,1.58 1.46,1.88 -0.06,0.58 -0.38,0.19 -0.31,0.04 -0.46,-0.32 -2.05,-0.19 -0.7,-0.58 0.01,-1.24 -0.24,-0.25 -1.12,-0.06 -2.59,-0.71 -1.39,0.14 -0.55,-0.14 -0.61,0.21 -0.46,-0.17 -0.79,-0.03 -0.61,-0.46 -0.78,-0.13 -0.49,-0.27 -1.35,-1.87 -1.5,-0.47 -1.17,-0.65 -0.37,-0.06 -0.74,0.18 -0.98,-0.21 -4.21,-1.95 -0.97,-0.03 -0.8,0.26 -0.48,-0.11 -0.41,0.39 -0.48,0.09 -0.61,-0.21 -0.62,-0.65 -1.4,-0.4 -0.6,-0.38 -0.29,-0.41 -1.46,-0.49 -0.88,0.04 -1.12,0.62 -1.65,0.47 -0.93,0.66 -1.1,-0.26 -0.27,-0.38 -0.76,-0.53 -0.35,-0.01 -0.58,0.27 -1.54,0.06 -0.47,0.53 -1.73,-0.09 -0.15,0.2 0.02,0.46 -0.83,1.64 -1.03,0.55 0.05,1 -0.23,0.65 -2.41,0.28 -0.61,0.54 -0.05,0.24 0.36,0.55 1.28,0.94 0.02,0.5 -0.31,0.66 -0.34,0.11 -0.44,-0.13 -0.81,-0.69 -0.32,0.27 -0.41,0.65 -0.12,0.87 -0.31,0.86 -0.39,0.6 -0.29,0.16 -0.29,0.67 0,0 -1.09,-0.99 -0.01,-0.61 -0.84,-0.04 0.35,-0.99 -0.35,-0.63 -1.55,0.41 -1.32,-2.31 -1.06,-0.2 -0.56,-0.79 -0.24,-0.66 -0.63,-0.17 -0.11,-0.86 -1.15,-0.43 -0.22,-0.88 -1.43,0.08 -2.04,-1.26 0.48,-1.26 -0.38,-0.47 -0.06,-1.3 0.26,-2.16 -0.66,-0.93 0.5,-0.5 -0.63,-0.28 -0.61,-0.49 0.7,-1.24 -0.5,-0.38 -0.72,0.48 -0.99,-0.96 0.35,-1.17 -0.48,-0.6 -0.69,0.27 -0.48,-0.7 -1.75,-0.16 -0.38,-1.57 -0.44,-0.04 -0.6,1.48 -2.06,-1.5 -1.35,0.21 0.22,-0.97 -0.44,-0.03 -1.05,0.46 -0.84,-2.6 0.54,-0.84 -2.04,-0.72 2.62,-3.75 -0.05,-0.56 2.44,-6.09 0.32,-3.09 1.35,-2.11 0.35,-2.31 0.73,-0.49 -1.75,-11.86 -1.49,-8.19 -1.11,-1.58 -2.4,-10.39 -2.67,-6.8 -1.73,-5.7 -3.52,-5.75 0,0 27.53,-0.06 15.58,-0.4 3.44,0.25 18.61,-0.69 z" 
                fill="rgb(151, 144, 238)" 
                stroke="white" 
                stroke-width=".7px"
                title="Zhambyl oblysy" 
                id="KZ-ZHA" 
            />
        </svg>