<svg xmlns="http://www.w3.org/2000/svg" viewBox="374.78214999999983 314.51756 89.1000000000002 102.56000000000006" width="89.1000000000002" height="102.56000000000006">
            <path 
                d="m 463.88215,377.57756 -0.47,0.23 0,0 -11.27,4.34 -7.37,7.37 -6.51,7.37 -2.6,6.94 -1.3,8.24 -9.97,2.6 -3.5,2.41 0,0 -1.74,-1.79 -1.55,-3.85 -1.8,-0.94 -0.48,-0.64 0.07,-1.92 -0.89,-2.23 -0.12,-1.37 0.25,-0.68 1.89,-2.05 0.16,-0.77 -0.28,-0.86 -1.74,-1.2 -2.49,-0.34 -0.38,-0.3 -1.36,-2.09 -1.64,-4.41 -1.55,-1.28 -1.36,-0.09 -0.82,0.26 -3.06,1.97 -1.9,0.25 -0.31,0.69 -1.39,1.45 0.06,2.44 -3.54,3.34 -1.95,3.03 -0.6,0.34 -0.98,0.13 -2.53,-1.02 -1.1,0.08 -0.48,0.26 -2.11,2.75 0,0 -3.88,-6.7 -4.34,-12.58 0,0 -2.1,-2.91 0,0 5.14,-2.12 3.03,-4.33 0,-6.51 4.34,-2.17 1.3,-6.93 -3.47,-2.6 -0.87,-9.54 2.6,-5.21 0.44,-5.2 -6.51,-4.77 -4.77,-5.64 -1.3,-6.5 5.64,-6.07 0,0 6.59,-1.94 0,0 5.72,3.02 7.38,4.77 20.81,12.14 7.81,3.9 7.8,2.61 9.11,0.86 3.9,-3.47 4.33,0.44 -0.43,6.07 -2.6,3.9 -5.2,4.34 0,5.2 3.9,5.2 3.03,6.07 5.64,4.34 z" 
                fill="rgb(151, 144, 238)" 
                stroke="white" 
                stroke-width=".7px"
                title="Andrijevica" 
                id="ME-01" 
            />
        </svg>