<svg xmlns="http://www.w3.org/2000/svg" viewBox="161.88215000000002 536.3375600000006 125.40999999999997 137.88999999999976" width="125.40999999999997" height="137.88999999999976">
            <path 
                d="m 206.30215,540.47756 -0.19,0.2 0,0 4.33,4.77 3.04,3.9 1.3,4.77 0.43,8.67 1.74,6.07 3.03,3.47 5.21,1.31 6.5,0.86 6.5,0 3.04,1.3 3.03,6.94 2.17,8.24 2.6,8.67 5.64,4.34 3.04,6.5 13,4.34 8.24,10.84 4.34,3.47 4,2.61 0,0 -0.1,-0.01 0,0 -3.47,5.2 -4.33,3.04 -6.94,-1.3 -3.04,1.3 -4.33,0 -5.64,-3.9 -2.17,-4.34 -3.47,-2.17 -3.9,2.6 -1.73,1.74 0,4.33 2.16,0.44 3.47,1.3 0.87,1.73 -1.3,3.47 -2.17,4.34 -0.43,3.9 2.6,2.17 1.73,3.47 3.04,0.86 0.87,6.08 0.86,2.6 -1.73,3.9 -4.34,1.73 -4.77,-0.86 -9.97,-4.77 -4.34,-2.6 -5.63,0 -4.25,0.56 0,0 0.19,-0.18 -0.1,-1.27 -0.82,-0.3 -0.79,-0.8 -0.79,-0.21 0.1,-0.98 1.39,-0.42 0.31,-2.79 -2.62,-1.66 0,-0.29 0.79,-0.77 -0.03,-0.38 -0.5,-0.59 0,-0.25 0.44,-0.22 -0.16,-0.67 0.41,-0.47 -0.54,-1.44 -1.35,-1.31 -0.67,-0.17 -0.79,-0.6 -6.91,-5.93 -1.83,-0.76 -2.37,-2.25 -2.24,-1.14 -1.77,-1.66 0.03,-0.21 0.57,0 -0.03,-0.25 -1.68,-1.02 -1.83,-1.52 -1.39,-1.66 -0.16,-0.97 1.77,-0.13 0.57,0.59 2.46,0.64 0.35,-0.25 -0.03,-0.39 -0.79,-0.76 0,-0.3 0.28,-0.08 0.7,0.59 0.41,0 -0.1,-0.76 -0.5,-0.17 -0.13,-0.34 0.1,-0.51 0.28,-0.08 0.54,0.38 0.63,-0.89 0.09,-1.7 -1.04,-3.14 -1.01,-1.99 -0.88,-1.06 -3.92,-2.8 -0.57,-0.63 -2.08,-0.47 0.63,-1.06 0.06,-0.68 -1.13,-3.01 -2.72,-1.62 -0.79,0 -0.69,0.47 -3.82,-0.42 -1.71,0.17 -0.95,0.42 -0.47,-1.61 -0.38,-0.42 -0.63,0 -1.07,0.33 -1.24,2.08 -0.5,0.64 -0.32,0.04 -3,-6.45 0.19,-1.99 0.51,-0.98 -0.07,-0.59 -0.91,-0.98 -0.88,-1.54 0,0 3.15,-6.65 2.17,-3.91 3.9,-3.9 -2.6,-6.94 -3.9,-5.2 -5.64,-5.2 -5.64,-4.77 -2.17,-8.24 -1.3,-1.74 -0.87,-3.9 -2.16,-4.77 0,0 4.77,-0.87 0,0 6.07,1.74 4.77,2.17 2.6,3.9 8.24,0.87 5.63,-2.61 0.87,-3.46 -2.6,-4.34 -1.3,-3.47 1.73,-3.47 6.07,-0.87 5.21,2.17 z" 
                fill="rgb(151, 144, 238)" 
                stroke="white" 
                stroke-width=".7px"
                title="Bar" 
                id="ME-02" 
            />
        </svg>