<svg xmlns="http://www.w3.org/2000/svg" viewBox="383.8921500000001 238.0875600000002 163.20999999999987 139.4899999999998" width="163.20999999999987" height="139.4899999999998">
            <path 
                d="m 463.88215,377.57756 -5.67,-3.67 -5.64,-4.34 -3.03,-6.07 -3.9,-5.2 0,-5.2 5.2,-4.34 2.6,-3.9 0.43,-6.07 -4.33,-0.44 -3.9,3.47 -9.11,-0.86 -7.8,-2.61 -7.81,-3.9 -20.81,-12.14 -7.38,-4.77 -5.72,-3.02 0,0 0.78,-0.23 0,0 -3.9,-12.58 1.3,-10.4 0,0 -0.9,0.1 0,0 8.7,-8.34 0,0 1.59,-2.11 0,0 7.69,0.81 8.68,-2.61 7.8,-3.46 4.77,-4.77 4.34,-5.21 6.94,-2.6 3.9,1.74 2.6,3.03 4.77,1.3 6.5,1.3 7.37,-1.3 5.21,-4.33 6.07,-2.6 7.8,-1.74 6.51,-2.6 4.33,-4.77 4.34,-1.74 8.67,-0.86 6.07,-3.04 4.77,-2.6 4.96,-6.82 0,0 1.18,1.1 3.6,1.03 2.08,1.12 4.65,4.69 3.53,4 3.13,2.15 1.93,0.04 2.21,-0.68 4.51,-3.02 1.61,-0.17 0,0 -0.87,12.17 -5.63,8.24 -1.74,9.1 -9.97,9.54 -0.87,9.98 -3.03,9.97 -7.81,6.51 -6.94,8.67 2.61,13.87 1.79,3.39 0,0 -0.44,0.33 -0.95,2.14 -0.06,1.72 -0.32,1.67 -0.47,1.16 -1.33,2.01 -2.11,2.4 -0.64,1.03 -0.09,1.03 0.32,1.28 1.26,2.32 0.76,2.18 1.2,4.76 0.6,0.85 0.98,2.49 0.66,0.68 3,0.94 1.36,1.2 0.81,1.28 0,0 -14.57,2.65 -13.01,1.3 -9.97,-0.87 -11.28,0 0,0 z" 
                fill="rgb(151, 144, 238)" 
                stroke="white" 
                stroke-width=".7px"
                title="Berane" 
                id="ME-03" 
            />
        </svg>