<svg xmlns="http://www.w3.org/2000/svg" viewBox="317.02215000000007 129.30756000000002 201.64999999999992 152.45999999999998" width="201.64999999999992" height="152.45999999999998">
            <path 
                d="m 518.67215,238.08756 -4.96,6.82 -4.77,2.6 -6.07,3.04 -8.67,0.86 -4.34,1.74 -4.33,4.77 -6.51,2.6 -7.8,1.74 -6.07,2.6 -5.21,4.33 -7.37,1.3 -6.5,-1.3 -4.77,-1.3 -2.6,-3.03 -3.9,-1.74 -6.94,2.6 -4.34,5.21 -4.77,4.77 -7.8,3.46 -8.68,2.61 -7.69,-0.81 0,0 1.02,-1.36 0,0 -12.14,-9.11 -2.61,-3.9 4.77,-9.1 0,-6.94 -5.2,-6.94 -7.37,-4.77 -6.07,-0.87 -11.71,-0.86 -7.37,-2.17 -9.11,-5.64 -4.33,-3.04 -9.11,-0.86 -7.8,-3.47 0,0 -0.53,0.16 0,0 2.26,-7.1 -0.43,-9.97 3.46,-5.21 4.77,-3.9 7.38,0 2.6,-5.2 0.43,-6.51 4.34,-2.6 2.6,-3.03 0,-5.64 -2.6,-4.34 0,-3.9 5.2,-3.03 3.04,-5.64 3.9,-2.17 2.17,-14.74 -3.47,-5.64 0.83,-4.16 0,0 7.48,4.32 6.91,4.8 2.28,1.04 2.62,1.55 1.2,1.38 5.65,11.96 1.77,3.28 1.07,1 4.17,2.37 3.16,2.29 3.6,2.2 4.99,1.51 3.41,0.43 2.34,1.04 4.38,1.16 2.85,1.51 1.99,1.9 0.6,0 0.82,-0.34 1.23,-6.61 0.88,-1.12 1.65,-1.12 1.95,0.73 1.83,1.82 1.65,3.1 0.09,4.36 0.25,0.99 3.79,6.82 0.7,2.84 0.69,5.48 0.51,0.56 1.67,0.3 8.5,0.43 0.72,0.26 3.07,4.23 0.56,0.69 0.41,0.12 0.48,-0.04 0.41,-0.34 1.64,-2.2 0.63,-0.48 0.76,-0.04 1.14,0.43 3.31,2.98 1.01,0.56 7.05,0.99 4.23,0 5.46,-0.52 2.59,-0.77 2.15,-2.2 1.64,-2.29 1.48,-1.33 1.74,-0.52 1.23,0.04 0.82,0.78 2.56,7.2 1.71,2.5 0.94,2.97 1.33,1.25 1.23,0.56 2.72,4.78 10.17,11.46 2.78,3.53 2.05,1.94 5.3,4.26 z" 
                fill="rgb(151, 144, 238)" 
                stroke="white" 
                stroke-width=".7px"
                title="Bijelo Polje" 
                id="ME-04" 
            />
        </svg>