<svg xmlns="http://www.w3.org/2000/svg" viewBox="116.3521500000002 520.72756 69.80999999999977 82.2700000000001" width="69.80999999999977" height="82.2700000000001">
            <path 
                d="m 163.00215,546.54756 -1.12,0.2 0,0 2.16,4.77 0.87,3.9 1.3,1.74 2.17,8.24 5.64,4.77 5.64,5.2 3.9,5.2 2.6,6.94 -3.9,3.9 -2.17,3.91 -3.15,6.65 0,0 -0.42,-0.03 -0.44,0.85 -1.07,0.21 -0.44,-1.74 -0.54,-0.17 -0.7,0.51 -0.18,-1.44 -2.47,-1.23 -2.84,-2.17 -0.38,-0.68 -0.16,-0.93 1.36,-2.38 0.1,-1.19 -1.01,-1.87 -1.84,-1.86 -0.91,-0.39 -1.14,0.6 -1.07,-0.43 -0.44,-0.46 0.03,-1.53 -1.42,0.04 -0.92,-0.77 -0.32,-0.93 -0.66,-0.55 -1.1,0.21 -2.25,-0.81 -0.63,0.3 -0.31,-0.08 -0.23,-1.7 -0.41,-0.73 -0.34,-0.21 -1.2,0.04 -3.82,-3.01 -0.73,-1.45 0.22,-1.31 -0.44,-1.24 0.03,-0.97 -1.1,-1.74 -0.38,0.46 -0.22,-0.08 0,-1.07 -0.8,0 -0.47,-0.63 0.22,-0.64 0.7,-0.77 -0.03,-0.93 -0.76,-1.4 0.5,-1.49 -0.63,-1.7 -0.88,-0.89 0.28,-0.81 -0.76,-2.85 0.1,-1.02 -0.7,-0.55 -0.31,-1.41 -0.7,-0.72 -1.61,-0.21 0.19,-1.74 -0.19,-0.35 -1.8,-0.21 -2.49,0.09 -1.61,0.59 -0.41,1.28 -0.92,-1.11 -0.35,-1.06 -1.42,-1.57 -2.14,0.04 -2.28,1.27 0,0.81 0.57,0.68 -0.32,0.47 -0.34,0.17 -0.86,-0.08 -1.16,0.68 -0.6,0.76 -1.46,-1.27 -2.24,-0.43 -0.09,-1.49 -0.56,-0.44 0,0 0,-4.36 -1.3,-1.3 0.43,-2.6 3.47,-7.37 -3.47,-3.04 -1.3,-2.6 -1.3,-3.9 1.73,-3.04 0,0 4.34,-2.17 0,0 3.9,0.87 3.9,3.47 5.64,1.73 5.2,1.31 6.07,2.6 3.91,0 5.2,1.3 3.04,6.07 2.6,6.5 z" 
                fill="rgb(151, 144, 238)" 
                stroke="white" 
                stroke-width=".7px"
                title="Budva" 
                id="ME-05" 
            />
        </svg>