<svg xmlns="http://www.w3.org/2000/svg" viewBox="71.98214700000005 367.0175600000002 158.84000299999997 187.5399999999999" width="158.84000299999997" height="187.5399999999999">
            <path 
                d="m 227.79215,527.84756 0,-1.05 0,0 -3.04,-0.86 -5.64,-3.04 -3.46,2.17 -5.21,-1.73 -3.47,-3.47 -3.47,0 -2.16,4.77 2.6,3.47 3.03,4.76 0.87,2.17 0,3.91 0,0 -1.54,1.53 0,0 -2.36,-1.97 -5.21,-2.17 -6.07,0.87 -1.73,3.47 1.3,3.47 2.6,4.34 -0.87,3.46 -5.63,2.61 -8.24,-0.87 -2.6,-3.9 -4.77,-2.17 -6.07,-1.74 0,0 -3.65,0.67 0,0 -1.12,-1.97 -2.6,-6.5 -3.04,-6.07 -5.2,-1.3 -3.91,0 -6.07,-2.6 -5.2,-1.31 -5.64,-1.73 -3.9,-3.47 -3.9,-0.87 0,0 -3.13,1.57 0,0 -0.77,-3.08 -0.44,-11.71 -4.33,-4.34 -3.47,-3.9 -2.61,-4.77 0.87,-4.77 3.47,-4.34 0.43,-6.93 -1.73,-12.58 -2.17,-7.37 -6.07,-6.5 -6.070003,-2.17 -5.2,-6.94 -2.6,-5.64 -2.61,-7.8 -5.63,-6.94 -4.34,-4.77 0,0 -4.04,-12.11 0,0 6.21,-1.33 5.2,-3.04 0,-17.78 6.51,-5.2 2.16,-2.17 0.44,-4.33 0,-4.77 5.64,0 13.000003,8.67 16.05,-0.43 6.07,3.9 8.24,9.97 8.24,4.34 5.2,3.47 3.9,4.33 0,0 2.17,8.68 0,0 -0.87,7.37 6.94,1.73 4.77,3.47 3.47,8.24 4.77,2.17 4.77,4.77 -1.3,3.46 -7.37,3.91 0,9.1 0,0 -8.24,3.04 0,0 0.43,3.9 6.51,1.74 3.03,1.3 3.04,0.86 5.63,6.07 2.6,5.21 7.38,5.2 3.9,1.3 2.6,5.21 3.04,7.37 4.33,5.2 6.51,4.77 6.93,3.9 4.34,3.91 2.6,9.53 z" 
                fill="rgb(151, 144, 238)" 
                stroke="white" 
                stroke-width=".7px"
                title="Cetinje" 
                id="ME-06" 
            />
        </svg>