<svg xmlns="http://www.w3.org/2000/svg" viewBox="160.14215 350.10756 110.14000000000007 118.81000000000012" width="110.14000000000007" height="118.81000000000012">
            <path 
                d="m 175.75215,454.32756 0.44,-0.16 0,0 0,-9.1 7.37,-3.91 1.3,-3.46 -4.77,-4.77 -4.77,-2.17 -3.47,-8.24 -4.77,-3.47 -6.94,-1.73 0.87,-7.37 0,0 -0.52,-2.07 0,0 13.96,0.33 5.64,-3.47 -0.43,-9.1 0.86,-10.84 4.77,-6.08 6.51,-4.77 6.07,-3.46 7.8,0.43 9.11,3.47 9.1,0.43 10.41,-0.43 9.54,1.3 4.77,-3.47 -3.04,-3.47 -3.46,-3.03 -3.47,-6.07 -0.44,-4.34 3.91,-2.17 3.03,-3.03 0,0 3.47,0 0,0 6.07,3.46 2.17,7.81 1.73,10.84 2.61,3.47 7.37,8.24 0,0 1.73,4.33 0,0 -5.64,3.91 -5.2,3.03 -0.43,9.54 2.17,5.64 -1.74,8.24 -4.77,2.6 -5.64,2.6 -2.6,8.67 0.87,9.98 1.3,9.97 -1.3,5.2 -6.07,7.37 -5.64,3.91 -6.07,-3.47 -6.5,-3.04 -4.34,3.47 -10.41,-0.43 -8.67,1.73 -3.47,-5.63 -7.37,-1.74 -6.94,-2.6 z" 
                fill="rgb(151, 144, 238)" 
                stroke="white" 
                stroke-width=".7px"
                title="Danilovgrad" 
                id="ME-07" 
            />
        </svg>