<svg xmlns="http://www.w3.org/2000/svg" viewBox="0.25214732999999745 420.72756 79.25999967 95.97000000000008" width="79.25999967" height="95.97000000000008">
            <path 
                d="m 64.902147,495.11756 -0.15,2.42 0.87,3.9 3.9,2.6 1.68,2.99 0,0 -0.97,0.22 -0.38,0.56 -0.82,0.47 0,2.47 1.55,1.41 0.03,0.26 -0.09,0.26 -0.76,0.13 -1.14,1.24 0.32,1.75 -0.31,0.64 -1.04,-0.08 -1.42,-0.51 -0.54,-0.64 0.13,-1.32 -1.2,-0.72 -0.6,0.09 -0.41,0.51 -1.17,-0.64 -0.54,0.26 0.54,1.41 -0.03,0.73 -0.3,0.83 -0.5,0.34 -1.01,-0.08 -1.17,-0.68 -1.29,-0.26 -0.19,-0.13 0.03,-1.11 -0.44,-0.17 -0.41,0.26 -0.22,0.81 -2.02,0.6 -0.44,-0.68 0.51,-1.06 -0.92,-0.34 -0.22,-0.6 -1.04,0.6 -0.76,-0.08 -0.19,-1.28 -0.6,-0.43 -1.2,-0.34 -1.48,-1.24 -0.13,-0.55 0.85,-0.89 -0.13,-0.43 -1.89,0.34 -0.57,-0.38 -0.28,-1.36 -1.14,-0.6 -0.5,0.38 -0.66,-0.17 -1.99,-2.6 0.19,-0.3 1.17,-0.17 1.2,-0.77 -0.47,-0.43 -0.13,-0.55 0.22,-0.26 1.01,-0.04 -0.09,-0.64 -0.6,-0.38 -4.96,-1.28 -1.26,-0.81 -0.76,-1.53 0.35,-1.41 -2.27,-0.17 -0.79,-0.47 -0.16,-0.56 0.19,-1.15 -0.35,-1.79 0.51,-1.02 2.46,-2 0.79,-0.3 0.63,-0.68 0.6,-0.3 1.93,-0.34 2.81,0.38 11.84,3.71 7.04,3.58 1.75,0.57 z m -40.71,-73.98 6.19,0.3 1.05,-0.63 0,0 6.87,9.52 3.47,9.54 2.6,3.04 5.2,3.9 10.41,1.3 5.2,1.3 6.94,3.47 1.62,4.06 0,0 -0.83,0.34 -2.27,1.62 -1.01,1.11 -1.58,1.11 -0.38,1.19 1.33,0.9 0.88,-0.13 3.66,0.43 5.81,2.9 0.16,0.38 -0.35,0.68 -1.36,1.62 -0.73,1.54 -1.64,1.79 -0.32,1.45 0.82,1.07 -0.22,0.68 -0.54,0.43 -2.65,1.07 -1.99,1.15 -1.17,1.45 -1.29,-0.26 -0.82,0.3 -2.84,2.43 -3.13,1.54 -4.99,1.15 -1.33,1.02 -2.08,0.04 -1.23,0.64 -2.08,-1.36 -2.59,-0.68 -0.47,-0.26 -0.76,-1.11 -1.17,-0.38 -1.99,-3.03 -1.36,-1.36 -2.21,-0.43 -0.88,0.85 -1.48,0.73 -2.15,0.21 -1.64,-0.51 -1.17,0.47 -0.63,0 -1.93,-1.06 -1.74,-1.71 -1.42,-0.98 -0.6,-0.3 -0.63,0.04 -3.16,2.6 -0.54,1.58 0.44,0.38 0.32,1.24 1.58,2.64 1.45,1.11 0.76,1.62 1.2,0.51 2.31,2.22 0.13,0.43 -0.16,0.56 -0.82,0.21 -1.26,1.66 -3.41,-0.85 -0.88,-1.66 -5.18,-5.24 -6.32,-7.68 -4.6699997,-6.1 -3.66,-3.67 -0.44,-1.58 -0.31,-2.47 0.16,-2.35 0.16,-0.47 2.69,-3.24 0.51,-0.98 -0.03,-1.15 -3.32,-9.82 -1.35999997,-5.04 -0.69,-4.2 0.35,-3.33 2.58999997,-0.51 2.21,0.3 1.48,-0.04 2.18,-0.56 2.3999997,-0.3 2.31,-0.68 2.31,-3.5 4.64,-6.15 1.42,-0.47 2.05,0.41 z" 
                fill="rgb(151, 144, 238)" 
                stroke="white" 
                stroke-width=".7px"
                title="Herceg-Novi" 
                id="ME-08" 
            />
        </svg>