<svg xmlns="http://www.w3.org/2000/svg" viewBox="233.86214999999996 274.15755999999993 154.80000000000004 119.31000000000006" width="154.80000000000004" height="119.31000000000006">
            <path 
                d="m 374.85215,384.04756 -3.54,-4.89 0,0 -9.1,-0.44 -5.21,-6.07 -4.77,-14.31 -9.54,-0.86 -5.63,0.86 -3.47,13.01 -0.43,4.34 -4.77,1.3 -8.68,1.3 -0.86,5.64 -6.51,2.17 -7.37,3.46 -5.2,3.91 -6.94,-0.87 -7.81,-3.9 -4.77,1.3 -5.63,-3.47 -4.7,0.83 0,0 -1.37,-3.43 0,0 -7.37,-8.24 -2.61,-3.47 -1.73,-10.84 -2.17,-7.81 -6.07,-3.46 0,0 -2.01,0 0,0 -5.36,-4.6 -2.17,-4.77 0.87,-10.41 3.9,-3.47 2.6,-5.2 -1.3,-4.77 -3.47,-5.64 -5.63,-5.2 0,0 -1.12,0.08 0,0 -1.05,-7.02 6.94,-7.8 0.86,-3.91 9.54,-1.3 4.77,1.3 18.21,-1.3 8.24,-0.86 6.07,-4.77 0,0 1.97,-6.31 0,0 6.71,0.24 2.6,3.9 2.17,2.6 7.37,4.34 8.67,1.73 6.94,3.04 15.17,1.3 4.34,-2.6 6.94,-1.74 6.94,3.04 7.37,-0.87 5.63,3.47 6.51,-0.44 0,0 7.37,-0.86 0,0 -1.3,10.4 3.9,12.58 0,0 -7.37,2.17 0,0 -5.64,6.07 1.3,6.5 4.77,5.64 6.51,4.77 -0.44,5.2 -2.6,5.21 0.87,9.54 3.47,2.6 -1.3,6.93 -4.34,2.17 0,6.51 -3.03,4.33 z" 
                fill="rgb(151, 144, 238)" 
                stroke="white" 
                stroke-width=".7px"
                title="Kolašin" 
                id="ME-09" 
            />
        </svg>