<svg xmlns="http://www.w3.org/2000/svg" viewBox="28.852147000000006 403.00756 93.570003 154.40999999999985" width="93.570003" height="154.40999999999985">
            <path 
                d="m 73.742147,456.92756 -1.62,-4.06 -6.94,-3.47 -5.2,-1.3 -10.41,-1.3 -5.2,-3.9 -2.6,-3.04 -3.47,-9.54 -6.87,-9.51 0,0 1,-0.61 0.57,-0.77 0.28,-0.77 -0.19,-0.76 -1.01,-1.33 -3.23,-2.49 0,0 10.75,-1.53 6.94,-2.6 9.1,-3.04 9.97,-3.9 6.07,1.73 0,0 4.34,13.01 0,0 4.34,4.77 5.63,6.94 2.61,7.8 2.6,5.64 5.2,6.94 6.070003,2.17 6.07,6.5 2.17,7.37 1.73,12.58 -0.43,6.93 -3.47,4.34 -0.87,4.77 2.61,4.77 3.47,3.9 4.33,4.34 0.44,11.71 0.77,3.08 0,0 -1.21,0.6 0,0 -1.73,3.04 1.3,3.9 1.3,2.6 3.47,3.04 -3.47,7.37 -0.43,2.6 1.3,1.3 0,4.36 0,0 -0.77,-0.75 -1.29,-0.3 -2.5,1.79 0.1,0.85 1.13,1.79 -0.28,0.46 -3.16,-2.67 -2.97,-1.37 -0.19,0.34 0.54,1.19 -0.32,1.54 0.16,0.76 0.51,0.77 -0.07,0.68 -0.38,0.3 -0.78,0.12 -0.95,0.81 -1.58,-0.51 -1.45,-2.34 -1.55,-1.32 -0.57,-0.89 -0.79,-0.17 -0.19,-0.98 -1.61,-1.15 -1.580003,-1.78 -0.31,-0.56 0.22,-0.93 -0.82,-0.17 -0.32,-0.3 -1.39,-2.25 -0.82,-0.56 -1.11,-1.36 -1.16,0.04 0.44,-1.14 -0.1,-0.34 -2.14,-0.77 -0.13,-1.11 -2.21,-1.74 -2.59,-2.81 -1.11,-0.38 0.13,-0.6 1.26,-1.32 0.89,-0.12 0.19,-0.43 0,-0.26 -2.02,-2.08 -0.03,-1.7 0.22,-0.9 -2.25,-1.87 -0.63,-1.07 -1.1,-0.21 -0.16,-0.93 -1.99,-1.32 -0.51,-1.45 0,-0.73 0.32,-0.42 1.33,0 1.1,0.34 2.53,1.45 0.41,-0.05 0.03,-0.68 -1.69,-1.91 0,0 2.41,-0.54 8.52,-7.14 3.02,-3.99 0.97,-7.55 5.220003,-7.01 -0.03,-0.23 0,0 0.43,-0.6 0.13,-3.02 -1.01,-2.3 -0.7,-0.77 -0.22,-0.94 1.05,-2.47 -0.23,-1.41 0.26,-1.75 -0.63,-4.39 -0.19,-5.33 0.66,-3.42 -0.06,-0.64 -0.48,-0.81 -0.5,-0.25 -1.42,0 -1.360003,0.38 -4.27,2.09 -2.36,0.39 -6.79,-0.09 -1.9,-0.38 -1.26,-0.6 -2.37,-1.49 -0.57,-0.86 -0.25,-1.96 0.47,-1.79 -0.12,-1.03 0.69,-0.55 -0.25,-1.2 1.01,-1.23 -0.7,-2.22 -1.1,-1.03 -0.95,0.04 -0.79,0.65 -0.44,1.1 -0.95,1.11 -0.66,1.97 -0.73,0.38 z" 
                fill="rgb(151, 144, 238)" 
                stroke="white" 
                stroke-width=".7px"
                title="Kotor" 
                id="ME-10" 
            />
        </svg>