<svg xmlns="http://www.w3.org/2000/svg" viewBox="275.7221499999999 221.92755999999994 119.88 70.68000000000004" width="119.88" height="70.68000000000004">
            <path 
                d="m 384.29215,291.40756 -6.47,0.76 0,0 -6.51,0.44 -5.63,-3.47 -7.37,0.87 -6.94,-3.04 -6.94,1.74 -4.34,2.6 -15.17,-1.3 -6.94,-3.04 -8.67,-1.73 -7.37,-4.34 -2.17,-2.6 -2.6,-3.9 -6.71,-0.24 0,0 0.2,-0.63 0,0 -3.47,-6.94 -6.94,-0.87 -2.6,-6.07 -1.73,-8.24 0,0 -0.2,-0.1 0,0 1.93,-2.06 0,-9.11 5.64,-1.3 7.37,-0.87 6.07,-0.43 1.3,-7.37 0.87,-2.6 4.34,-3.47 0,0 -0.19,-0.13 0,0 7.56,0.13 0,0 6.94,-2.17 0,0 7.8,3.47 9.11,0.86 4.33,3.04 9.11,5.64 7.37,2.17 11.71,0.86 6.07,0.87 7.37,4.77 5.2,6.94 0,6.94 -4.77,9.1 2.61,3.9 12.14,9.11 0,0 -2.61,3.47 0,0 z" 
                fill="rgb(151, 144, 238)" 
                stroke="white" 
                stroke-width=".7px"
                title="Mojkovac" 
                id="ME-11" 
            />
        </svg>