<svg xmlns="http://www.w3.org/2000/svg" viewBox="9.792147299999977 202.4175599999997 238.8100027 211.6600000000002" width="238.8100027" height="211.6600000000002">
            <path 
                d="m 246.59215,350.10756 -1.46,0 0,0 -3.03,3.03 -3.91,2.17 0.44,4.34 3.47,6.07 3.46,3.03 3.04,3.47 -4.77,3.47 -9.54,-1.3 -10.41,0.43 -9.1,-0.43 -9.11,-3.47 -7.8,-0.43 -6.07,3.46 -6.51,4.77 -4.77,6.08 -0.86,10.84 0.43,9.1 -5.64,3.47 -13.96,-0.33 0,0 -1.65,-6.61 0,0 -3.9,-4.33 -5.2,-3.47 -8.24,-4.34 -8.24,-9.97 -6.07,-3.9 -16.05,0.43 -13.000003,-8.67 -5.64,0 0,4.77 -0.44,4.33 -2.16,2.17 -6.51,5.2 0,17.78 -5.2,3.04 -6.21,1.33 0,0 -0.3,-0.9 0,0 -6.07,-1.73 -9.97,3.9 -9.1,3.04 -6.94,2.6 -10.75,1.53 0,0 -0.43,-0.33 -2.25,-6.13 1.79,-6.28 1.94,-3.87 5.12,-0.27 1.74,-0.98 1.83,-0.35 2.9,-0.17 0.89,-0.38 0.19,-0.34 -0.48,-5.82 -1.8,-5.65 -1.07,-7.79 0.69,-2.06 2.09,-3.38 0.35,-0.9 0.25,-2.01 -0.16,-1.33 -0.76,-1.67 -1.64,-1.58 -0.66,-0.47 -0.89,-0.22 -0.69,0 -1.83,1.03 -3.19,0.94 -4.42,0.04 -1.71,-0.34 -1.23,-0.55 -1.01,-0.99 -1.26,-1.8 -0.38,-0.73 0.31,-1.37 -4.73,-7.45 -2.06,-0.73 -1.29,0.13 -1.58,-0.47 -0.7,-0.43 -0.75,-1.07 -0.16,-1.33 0.16,-0.9 1.35,-4.33 -0.75,-1.54 -0.7,-0.43 -0.5,-0.69 -0.29,-4.11 -0.28,-0.6 -0.79,-0.3 -0.2199997,-0.43 0.2499997,-0.73 0.44,-0.39 2.97,0.13 2.91,-1.11 1.13,-1.68 0.1,-2.1 -1.2,-3.56 -0.86,-1.8 -1.67,-5.45 -0.22,-3.43 0.25,-0.26 0.35,-2.74 3.28,-6.19 2.06,-1.54 0.82,-1.12 0.22,-0.73 -0.98,-3.3 -0.06,-1.93 0.91,-0.82 2.78,-1.5 0.38,-1.08 -0.19,-1.8 -1.07,-0.65 -1.58,-0.55 -2.97,-5.07 0.13,-6.66 -2.56,-4.13 0.06,-1.72 0.51,-0.6 2.74,-1.37 1.23,-1.42 6.13,-12.69 1.2,-4.68 1.14,-2.67 2.05,-5.98 0.89,-1.25 2.27,-1.89 1.74,-2.54 0.98,-0.73 1.8,-0.56 1.86,0.08 16.7,2.84 2.25,0.48 4.89,1.81 3.6,0.34 2.81,-0.47 4.14,-1.38 3.76,-1.85 1.26,-0.43 3.19,-0.48 0.44,-0.34 0.28,-0.69 -0.5,-2.49 -2.37,-4.48 -9.14,-23.8 0,0 12.51,-2.08 9.1,3.03 7.370003,6.07 3.91,9.97 2.16,9.54 4.34,11.71 4.77,8.67 5.2,10.85 6.07,5.63 4.77,2.6 23.42,0 14.31,0.44 0,0 3.47,6.93 0,0 4.33,1.74 7.38,4.34 11.27,7.37 10.84,4.77 11.71,11.27 0,0 17.78,-1.3 0,0 5.63,5.2 3.47,5.64 1.3,4.77 -2.6,5.2 -3.9,3.47 -0.87,10.41 2.17,4.77 z" 
                fill="rgb(151, 144, 238)" 
                stroke="white" 
                stroke-width=".7px"
                title="Nikšić" 
                id="ME-12" 
            />
        </svg>