<svg xmlns="http://www.w3.org/2000/svg" viewBox="412.4821499999997 371.25755999999996 124.99000000000024 101.88999999999999" width="124.99000000000024" height="101.88999999999999">
            <path 
                d="m 420.89215,417.07756 3.5,-2.41 9.97,-2.6 1.3,-8.24 2.6,-6.94 6.51,-7.37 7.37,-7.37 11.27,-4.34 0,0 6.94,-3.47 0,0 11.28,0 9.97,0.87 13.01,-1.3 14.57,-2.65 0,0 0.42,0.65 1.01,0.77 1.64,0.47 1.93,0.09 2.52,1.41 1.93,2.78 2.24,4.2 1.07,1.41 2.06,1.92 3.22,2.1 0.25,1.16 -3.79,4.7 -2.84,4.11 -4.07,4.62 -3.7,1.97 -1.51,1.41 -1.74,2.61 -0.63,2.99 0.31,4.19 1.58,4.27 0.35,2.31 -0.35,2.65 -4.45,11.24 -1.45,-0.22 -4.27,-1.28 -1.67,2.91 -0.88,0.76 -1.58,0.47 -5.06,2.18 -2.65,0.26 -0.72,0.34 -0.51,0.68 -0.22,0.81 0.35,2.82 -0.13,1.2 -1.8,4.23 -0.38,2.3 -1.2,1.71 -0.69,0.25 -2.69,-0.94 -2.4,-0.12 -0.95,-0.35 -0.91,-0.04 -1.52,0.17 -1.77,0.77 -1.61,0.09 -3.63,-0.64 -2.9,-2.39 -1.55,0.08 -1.9,0.56 -1.98,1.11 -1.84,1.53 -1.99,1.2 -2.36,0.3 -0.45,1.02 -0.31,1.67 0.16,3.28 -0.35,0.81 -0.6,0.3 -1.26,1.79 -0.83,-0.21 -1.29,-0.94 -1.48,-2.09 -2.56,-1.32 -0.57,0.51 -0.32,1.45 -0.6,1.11 -0.31,1.19 -1.3,1.71 -1.42,0.13 -1.67,-0.6 -1.2,-0.13 -0.76,1.2 -0.95,0.72 -3.47,0.09 -0.29,0.77 0.19,1.4 -0.12,0.86 -1.77,2.39 -3.85,-1.33 -2.02,-1.62 -6.48,-3.88 -0.79,-0.94 -1.8,-3.67 -1.39,-1.53 -4.42,-2.14 -0.31,-0.34 -1.11,-4.44 -0.44,-3.8 -1.01,-1.11 -0.92,-1.88 -0.34,-1.83 -1.3,-1.45 -1.58,-3.55 0.16,-1.24 1.23,-0.38 0.54,-0.47 -0.1,-2.56 1.65,-3.42 0,-1.11 -1.05,-0.94 -0.38,-0.64 -0.37,-1.63 0.41,-0.94 0.69,-0.51 0.13,-1.71 0.19,-0.17 1.23,0.22 4.83,0 0.73,-0.3 0.34,-0.43 0.1,-0.56 -0.57,-2.05 0.06,-2.01 -0.47,-0.89 z" 
                fill="rgb(151, 144, 238)" 
                stroke="white" 
                stroke-width=".7px"
                title="Plav" 
                id="ME-13" 
            />
        </svg>