<svg xmlns="http://www.w3.org/2000/svg" viewBox="159.38215000000014 0.2575617999999014 196.75999999999988 223.83999820000003" width="196.75999999999988" height="223.83999820000003">
            <path 
                d="m 353.50215,129.30756 -0.83,4.16 3.47,5.64 -2.17,14.74 -3.9,2.17 -3.04,5.64 -5.2,3.03 0,3.9 2.6,4.34 0,5.64 -2.6,3.03 -4.34,2.6 -0.43,6.51 -2.6,5.2 -7.38,0 -4.77,3.9 -3.46,5.21 0.43,9.97 -2.26,7.1 0,0 -6.41,2.01 0,0 -7.56,-0.13 0,0 -7.19,-5.08 0,0 -3.46,-7.8 -3.47,-6.94 -8.68,-1.3 -4.77,-7.37 -7.8,-5.21 -3.04,-5.63 -8.24,-3.47 -3.46,-3.04 -5.21,-1.73 -7.37,-3.04 -12.57,-13.44 -12.14,0 -4.77,5.64 -6.94,-0.44 -6.94,0.44 -3.04,-4.77 -5.2,0.43 -0.87,-10.84 -1.73,-8.24 0.87,-5.63 -1.17,-1.64 0,0 3.23,-5.73 1.77,-2.33 1.74,-1.52 1.83,-1.03 2.49,-0.87 9.95,-1.04 0.48,-1.86 0.56,-4.1 0.45,-5.8 -0.29,-1.99 -1.36,-3.59 -3,-4.45 -3.41,-7.489998 -2.65,-3.98 -3.28,-4.02 -3.82,-3.9 -5.34,-12.51 -0.98,-3.86 0.35,-3.33 -0.35,-3.21 -0.25,-0.95 -1.8,-2.56 -0.1,-3.43 -0.57,-0.39 -0.63,0.14 -0.6,-0.53 -0.47,0.05 -0.76,0.73 -0.6,1.7 -0.47,0.04 -1.61,-2.73 -1.24,-0.83 -0.47,-1.77 -2.21,-1.35 -1.29,-0.47 -0.54,-3.08 -1.14,-3.56 0.16,-3.38 -0.6,-1.91 -0.88,-1.82 0.19,-4.81 1.7,-3.87 -0.16,-1.64 -0.41,-1.05 -1.13,-1.73 -0.48,-0.26 -0.63,-0.05 -0.79,0.39 -1.42,1.31 -1.11,3.73 -0.85,1.6 -0.66,0.39 -1.23,-0.39 -1.01,-1.91 -0.79,-6.16 0.12,-0.6 0.67,-1 2.24,-2.04 1.74,-0.91 5.36,0.04 0.73,-0.13 1.07,-0.74 0.98,-1.26 1.11,-4.2500002 2.43,-5 1.64,-1.26 1.71,-0.3 1.73,0.61 0.32,2.13 0.44,0.91 0.57,0.08 0.51,-0.17 0.6,-2.13 0.34,-0.43 1.71,-0.65 2.4,0.43 1.29,0.78 0.86,-0.04 1.92,-0.65 3.13,0.17 0.88,0.7 3.13,3.99 0.66,0.52 5.02,2.22 9.03,6.9000002 0.98,0.48 3.73,3.03 1.36,-0.04 1.36,-0.69 2.62,-3.13 5.3,-5.08 0.98,-0.4300002 2.15,-0.13 4.04,2.2100002 0.85,-0.3 1.68,-1.43 1.48,-0.2600002 2.46,2.4700002 0.6,-0.13 1.55,-1.48 0.57,-0.26 0.63,0.09 1.86,1 2.03,2.13 1.2,15.4 2.21,3.38 3.44,3.52 4.13,3.6 1.71,2.68 3.06,3.69 7.39,7.67 11.18,7.46 3.88,1.81 6.32,1.78 1.74,0.69 2.43,1.43 2.53,3.51 5.18,5.07 6.22,3.72 9.09,2.73 0.47,1.26 2.47,10.99 4.45,6.139998 2.43,2.12 1.8,0.87 9.51,2.12 1.36,0.78 2.65,4.62 3.57,15.65 0.75,1.13 1.33,1.21 z" 
                fill="rgb(151, 144, 238)" 
                stroke="white" 
                stroke-width=".7px"
                title="Pljevlja" 
                id="ME-14" 
            />
        </svg>