<svg xmlns="http://www.w3.org/2000/svg" viewBox="66.53214700000001 88.69756199999995 117.030003 182.809998" width="117.030003" height="182.809998">
            <path 
                d="m 176.49215,133.50756 -1.6,7.33 -1.31,9.98 0.87,12.57 -1.3,9.97 0,7.81 4.77,6.94 5.64,6.5 0,0 0,8.24 0,0 -2.6,-0.87 -7.81,2.6 -6.5,1.74 -6.51,7.37 -2.17,6.5 -1.3,6.94 -4.77,4.77 0.87,13.44 3.47,6.51 16.91,7.37 3.47,5.64 -2.17,4.33 -4.91,2.32 0,0 -0.29,-0.58 0,0 -14.31,-0.44 -23.42,0 -4.77,-2.6 -6.07,-5.63 -5.2,-10.85 -4.77,-8.67 -4.34,-11.71 -2.16,-9.54 -3.91,-9.97 -7.370003,-6.07 -9.1,-3.03 -12.51,2.08 0,0 -3.93,-10.23 -0.86,-4.27 0.04,-3.41 0.56,-3.66 1.05,-4.32 1.7,-4.57 2.02,-3.36 4.55,-6.78 3.6,-4.83 6.54,-7.17 1.26,-1.9 1.23,-2.63 0,-1.69 -0.79,-1.38 -6.5,-4.06 -1.14,-1.77 -0.35,-2.24 0.29,-1.86 1.64,-2.08 8.68,-6.31 11.060003,-7.65 10.8,-6.57 8.81,-3.63 3.91,-1.3 4.14,-0.73 2.84,0.08 -0.5,-1.08 -0.1,-1.51 -0.85,-1.73 -0.1,-1.17 -1.57,-2.679998 -1.8,-1.73 0,-2.43 2.36,-0.21 5.37,-2.08 2.21,-0.22 1.68,-0.82 2.14,-0.04 2.5,0.73 1.1,0.09 1.52,-0.43 2.81,-2.12 0.41,-0.05 1.26,0.78 4.2,3.98 0.64,1.6 2.55,2.9 2.15,3.459998 0.95,0.35 3.09,-0.13 0.48,0.3 0.69,2.69 -0.54,2.76 -2.02,2.12 -1.01,3.98 0,0.82 1.42,4.15 0.82,1.26 1.55,0.08 4.27,1.69 2.84,1.94 1.39,3.33 -0.19,1.39 -1.08,1.68 -0.06,0.69 0.66,0.82 1.93,1.08 z" 
                fill="rgb(151, 144, 238)" 
                stroke="white" 
                stroke-width=".7px"
                title="Plužine" 
                id="ME-15" 
            />
        </svg>