<svg xmlns="http://www.w3.org/2000/svg" viewBox="167.95215000000005 357.4775600000001 217.21999999999994 208.83999999999997" width="217.21999999999994" height="208.83999999999997">
            <path 
                d="m 385.17215,406.23756 -2.5,3.71 -6.76,8.71 -5.02,7.18 -0.19,0.52 -0.34,5.89 1.16,1.84 0,1.41 1.01,4.06 -0.15,1.24 -0.73,0.59 -1.14,0.39 -1.54,0.89 -0.48,0.47 -0.19,0.64 0.1,1.29 -0.32,0.42 -12.5,7.17 -0.38,0.82 -0.19,4.6 -0.79,2.44 -1.42,2.3 -1.68,1.28 -0.63,1.79 -2.4,3.76 -0.63,3.11 -2.71,4.48 -2.56,2.05 -0.86,3.88 -0.56,0.42 -3.67,1.41 -1.29,1.88 -0.82,0.81 -0.38,1.02 -0.38,2.68 -0.13,0.22 -1.2,-0.22 -0.53,0.56 -0.98,4.35 -2.21,4.17 -2.5,3.88 -3.19,2.43 -1.67,0.81 -1.49,0.34 -2.36,-0.13 -1.96,1.02 -0.63,0.51 -1.52,2.35 -1.67,1.57 -1.27,2.56 0.16,4.42 -0.41,0.64 -2.24,1.19 -0.19,0.3 0.85,6.43 1.71,3.49 -4.96,5.28 -2.56,4.21 -4.32,4.21 -0.16,1.57 0.16,2.64 -0.86,2.13 -6.82,8.2 -1.13,1.7 -1.05,2.26 -0.49,1.84 0,0 -4.45,-0.49 -3.91,-2.17 -5.2,-3.9 -2.6,-2.6 -6.51,-1.3 -5.2,-1.74 -6.94,1.3 -4.77,2.17 -11.27,3.04 -1.73,-4.34 -2.61,-1.73 -3.03,-1.3 -1.3,-3.04 -5.21,-3.47 -1.3,-2.6 -0.43,-6.5 1.73,-4.78 3.91,-2.16 0,0 0,-2.86 0,0 3.03,-5.17 -2.6,-9.53 -4.34,-3.91 -6.93,-3.9 -6.51,-4.77 -4.33,-5.2 -3.04,-7.37 -2.6,-5.21 -3.9,-1.3 -7.38,-5.2 -2.6,-5.21 -5.63,-6.07 -3.04,-0.86 -3.03,-1.3 -6.51,-1.74 -0.43,-3.9 0,0 7.8,-2.88 0,0 6.07,2.88 6.94,2.6 7.37,1.74 3.47,5.63 8.67,-1.73 10.41,0.43 4.34,-3.47 6.5,3.04 6.07,3.47 5.64,-3.91 6.07,-7.37 1.3,-5.2 -1.3,-9.97 -0.87,-9.98 2.6,-8.67 5.64,-2.6 4.77,-2.6 1.74,-8.24 -2.17,-5.64 0.43,-9.54 5.2,-3.03 5.64,-3.91 0,0 -0.36,-0.9 0,0 4.7,-0.83 5.63,3.47 4.77,-1.3 7.81,3.9 6.94,0.87 5.2,-3.91 7.37,-3.46 6.51,-2.17 0.86,-5.64 8.68,-1.3 4.77,-1.3 0.43,-4.34 3.47,-13.01 5.63,-0.86 9.54,0.86 4.77,14.31 5.21,6.07 9.1,0.44 0,0 5.64,7.8 0,0 4.34,12.58 z" 
                fill="rgb(151, 144, 238)" 
                stroke="white" 
                stroke-width=".7px"
                title="Podgorica" 
                id="ME-16" 
            />
        </svg>