<svg xmlns="http://www.w3.org/2000/svg" viewBox="201.34215 519.8675599999999 102.97999999999996 113.39999999999998" width="102.97999999999996" height="113.39999999999998">
            <path 
                d="m 288.61215,566.31756 -0.23,1.17 -0.73,1.54 -21.38,25.44 -0.06,0.51 38.11,32.04 -0.03,0.63 -2.92,5.62 0,0 -4.64,-0.66 0,0 -9.44,-0.86 0,0 -4,-2.61 -4.34,-3.47 -8.24,-10.84 -13,-4.34 -3.04,-6.5 -5.64,-4.34 -2.6,-8.67 -2.17,-8.24 -3.03,-6.94 -3.04,-1.3 -6.5,0 -6.5,-0.86 -5.21,-1.31 -3.03,-3.47 -1.74,-6.07 -0.43,-8.67 -1.3,-4.77 -3.04,-3.9 -4.33,-4.77 0,0 1.73,-1.73 0,0 0,-3.91 -0.87,-2.17 -3.03,-4.76 -2.6,-3.47 2.16,-4.77 3.47,0 3.47,3.47 5.21,1.73 3.46,-2.17 5.64,3.04 3.04,0.86 0,0 0,3.91 0,0 -3.91,2.16 -1.73,4.78 0.43,6.5 1.3,2.6 5.21,3.47 1.3,3.04 3.03,1.3 2.61,1.73 1.73,4.34 11.27,-3.04 4.77,-2.17 6.94,-1.3 5.2,1.74 6.51,1.3 2.6,2.6 5.2,3.9 3.91,2.17 z" 
                fill="rgb(151, 144, 238)" 
                stroke="white" 
                stroke-width=".7px"
                title="Skadar Lake" 
                id="ME-SLK" 
            />
        </svg>