<svg xmlns="http://www.w3.org/2000/svg" viewBox="64.752147 467.33756000000005 39.15000300000001 50.299999999999955" width="39.15000300000001" height="50.299999999999955">
            <path 
                d="m 103.87215,491.17756 0.03,0.23 -5.220003,7.01 -0.97,7.55 -3.02,3.99 -8.52,7.14 -2.41,0.54 0,0 -0.08,-1.62 -1.01,-1.45 -0.35,-0.34 -1.51,-0.47 -1.11,-1.4 -0.15,-0.47 0.15,-0.6 0.98,-0.64 -2.15,-2.34 0.1,-1.45 -0.51,-0.25 -0.25,0.12 -0.03,0.86 -0.28,0.34 -1.55,-0.13 -3.03,-1.32 -1.78,0.55 0,0 -1.68,-2.99 -3.91,-2.6 -0.86,-3.9 0.15,-2.42 0,0 3.18,1.52 3.79,0.64 0.35,0.85 0.6,-0.26 1.07,0.73 6.13,0.38 2.02,1.28 2.31,2.81 2.36,0.9 0.64,-0.52 0.37,-1.83 -1.89,-1.66 -0.13,-0.38 0.79,-0.26 0.26,-0.3 -0.67,-0.51 -2.05,0 -0.25,-0.68 0.6,-0.38 1.29,0.51 1.77,-0.34 0.35,-0.94 -0.51,-1.71 0.22,-0.89 -0.98,-0.94 -0.94,-1.45 -0.79,-0.21 -0.1,-0.34 -0.63,-0.39 -0.63,-1.61 -0.51,0 -1.16,-1.03 -0.64,-1.06 -0.15,-2.18 -1.11,-0.94 -1.26,0 0.5,-0.76 -0.06,-1.03 -2.05,-3.88 -0.22,-0.98 0.41,-2.47 0.88,-2.3 0.32,-2.39 0.6,-1.15 1.35,-1.63 0.95,0.17 1.49,0.69 1.07,0.12 1.67,1.2 1.71,-0.17 1.33,0.85 1.23,0.26 3.03,1.53 1.7,0.52 1.08,1.96 3.03,2.47 0.54,1.75 1.260003,1.32 0.13,0.56 -0.38,1.06 0.6,1.24 -0.22,0.98 1.16,2.26 0.41,3.32 1.05,1.45 z" 
                fill="rgb(151, 144, 238)" 
                stroke="white" 
                stroke-width=".7px"
                title="Tivat" 
                id="ME-19" 
            />
        </svg>