<svg xmlns="http://www.w3.org/2000/svg" viewBox="221.59215000000032 629.5675599999998 79.77999999999966 105.57000000000016" width="79.77999999999966" height="105.57000000000016">
            <path 
                d="m 301.37215,633.26756 -2.1,3.92 -1.7,2.5 -0.86,5.51 0.04,4.11 -1.14,1.57 -1.3,3.81 0.19,2.08 -0.22,1.82 0.98,2.84 -0.41,5.59 0.25,1.56 0.22,0.6 1.43,1.6 0.56,1.23 0.54,1.86 0.32,2.46 -0.13,1.4 -1.33,2.58 -0.19,1.56 0.73,0.98 2.05,1.44 0.79,1.01 0.03,0.64 -0.79,1.27 -0.82,0.42 -3.82,0.55 -3.88,0.17 -1.39,0.63 -1.01,0.98 0.19,2.32 -0.45,3.13 0.23,1.1 0.75,1.15 0.86,0.76 3.57,2.32 0.56,0.59 0.67,1.15 0.16,1.48 -0.64,1.35 -1.61,1.31 -1.32,0.42 -1.8,0.21 -2.66,0.85 -0.82,0.68 -0.41,1.26 0.29,1.65 0.82,0.81 2.27,1.01 3.16,0.59 0.6,0.38 0.35,0.59 0.5,2.54 0.57,0.93 0.85,0.42 2.09,0.21 0.69,0.72 -0.28,1.4 -1.42,2.24 -0.26,5.91 -0.82,2.03 -0.12,2.32 -0.38,0.72 -1.93,0.63 -0.82,-0.12 -1.67,-2.58 -1.08,-1.18 -4.07,-2.33 -0.85,-1.05 -1.99,-3.59 -2.88,-2.88 -1.29,-0.88 -5.12,-2.96 -6.6,-2.96 -4.26,-2.28 -5.37,-1.82 -1.67,-0.25 -1.42,-0.51 -0.48,0.04 -0.44,0.34 -0.22,1.18 -0.54,-0.12 -1.32,-1.61 -2.97,-2.54 -2.21,-0.84 -1.61,-1.06 -1.42,0.13 0.12,-0.98 -0.16,-0.33 -1.1,0.29 -0.25,-0.67 -0.54,-0.17 -0.51,-0.6 -0.66,0.22 -0.72,-0.26 -0.67,-0.55 -0.6,0.21 -0.91,-0.5 -0.45,-0.47 -0.12,-0.51 -0.67,-0.17 -0.72,-0.76 -0.63,0.05 -0.89,-1.19 -1.1,-0.13 -0.73,-0.59 -0.25,-0.5 -3.25,-2.8 -0.45,-0.8 -0.72,-0.08 -1.17,-0.94 -0.6,-1.9 2.62,0.42 1.86,0.81 0.48,-0.09 0.41,-0.84 -1.52,-2.37 -1.99,-1.1 -0.98,-1.91 -1.73,-0.8 -0.7,-0.68 -0.69,-2.03 -0.79,-0.76 0,-0.42 0.88,-1.65 0.79,-0.3 1.71,0.38 0.79,-0.97 -0.04,-0.76 -0.5,-1.02 -1.36,-1.1 -1.29,-0.38 0.28,-0.68 1.48,-0.63 -0.69,-1.32 0.09,-0.76 0.38,-0.72 -1.29,-1.48 -0.13,-0.68 1.04,-1.82 0.48,-0.17 -0.08,-0.65 0.71,-0.1 0,0 4.25,-0.56 5.63,0 4.34,2.6 9.97,4.77 4.77,0.86 4.34,-1.73 1.73,-3.9 -0.86,-2.6 -0.87,-6.08 -3.04,-0.86 -1.73,-3.47 -2.6,-2.17 0.43,-3.9 2.17,-4.34 1.3,-3.47 -0.87,-1.73 -3.47,-1.3 -2.16,-0.44 0,-4.33 1.73,-1.74 3.9,-2.6 3.47,2.17 2.17,4.34 5.64,3.9 4.33,0 3.04,-1.3 6.94,1.3 4.33,-3.04 3.47,-5.2 0,0 9.54,0.87 0,0 z" 
                fill="rgb(151, 144, 238)" 
                stroke="white" 
                stroke-width=".7px"
                title="Ulcinj" 
                id="ME-20" 
            />
        </svg>