<svg xmlns="http://www.w3.org/2000/svg" viewBox="151.90215000000003 201.9775600000001 138.76000000000008 105.36999999999995" width="138.76000000000008" height="105.36999999999995">
            <path 
                d="m 183.56215,202.41756 3.03,4.77 1.3,3.9 3.04,5.2 10.41,1.3 2.6,-4.33 7.8,0.43 6.07,8.24 6.07,5.64 4.77,0.43 5.21,-1.74 4.77,-0.86 6.5,5.63 4.77,9.11 6.07,3.04 5.21,0.86 7.37,3.47 0,0 7.37,3.9 0,0 1.73,8.24 2.6,6.07 6.94,0.87 3.47,6.94 0,0 -2.17,6.94 0,0 -6.07,4.77 -8.24,0.86 -18.21,1.3 -4.77,-1.3 -9.54,1.3 -0.86,3.91 -6.94,7.8 1.05,7.02 0,0 -16.66,1.22 0,0 -11.71,-11.27 -10.84,-4.77 -11.27,-7.37 -7.38,-4.34 -4.33,-1.74 0,0 -3.18,-6.35 0,0 4.91,-2.32 2.17,-4.33 -3.47,-5.64 -16.91,-7.37 -3.47,-6.51 -0.87,-13.44 4.77,-4.77 1.3,-6.94 2.17,-6.5 6.51,-7.37 6.5,-1.74 7.81,-2.6 2.6,0.87 0,0 z" 
                fill="rgb(151, 144, 238)" 
                stroke="white" 
                stroke-width=".7px"
                title="Šavnik" 
                id="ME-18" 
            />
        </svg>