<svg xmlns="http://www.w3.org/2000/svg" viewBox="173.15215 133.50756 130.09000000000003 117.80000000000001" width="130.09000000000003" height="117.80000000000001">
            <path 
                d="m 185.86215,134.86756 1.17,1.64 -0.87,5.63 1.73,8.24 0.87,10.84 5.2,-0.43 3.04,4.77 6.94,-0.44 6.94,0.44 4.77,-5.64 12.14,0 12.57,13.44 7.37,3.04 5.21,1.73 3.46,3.04 8.24,3.47 3.04,5.63 7.8,5.21 4.77,7.37 8.68,1.3 3.47,6.94 3.46,7.8 0,0 7.38,5.21 0,0 -4.34,3.47 -0.87,2.6 -1.3,7.37 -6.07,0.43 -7.37,0.87 -5.64,1.3 0,9.11 -1.93,2.06 0,0 -7.17,-3.8 0,0 -7.37,-3.47 -5.21,-0.86 -6.07,-3.04 -4.77,-9.11 -6.5,-5.63 -4.77,0.86 -5.21,1.74 -4.77,-0.43 -6.07,-5.64 -6.07,-8.24 -7.8,-0.43 -2.6,4.33 -10.41,-1.3 -3.04,-5.2 -1.3,-3.9 -3.03,-4.77 0,0 0,-7.81 0,0 -5.64,-6.5 -4.77,-6.94 0,-7.81 1.3,-9.97 -0.87,-12.57 1.31,-9.98 1.6,-7.33 0,0 1.01,1.46 1.11,0.65 1.1,0.13 1.08,0.82 0.53,0.99 0.32,1.39 2.65,-1.9 z" 
                fill="rgb(151, 144, 238)" 
                stroke="white" 
                stroke-width=".7px"
                title="Žabljak" 
                id="ME-21" 
            />
        </svg>