<svg xmlns="http://www.w3.org/2000/svg" viewBox="517.6300000000001 539.91 166.61 137.20000000000016" width="166.61" height="137.20000000000016">
            <path 
                d="m 654.6,577.91 -1.37,-6.36 -0.86,-0.54 -2.58,-2.58 -0.54,-0.84 -0.15,-0.39 -0.34,-0.56 -0.34,-0.75 -0.15,-1 0.29,-0.46 0.65,-0.6 0.64,-0.75 0.29,-0.88 -0.78,-5.96 -0.6,-1.27 -0.62,-0.91 -0.37,-2.18 -0.31,-1 -0.54,-0.55 -1.63,-1.27 -0.5,-0.87 0.08,-1.67 1.01,-3.82 -0.28,-1.7 -1.34,-1.09 -1.24,0.69 -1.89,2.2 -0.67,0.06 -2.9,-0.06 -1.88,0.34 -1.69,0.56 -0.77,-1.48 -33.92,16.52 -7.1,2.38 -1.17,0.86 -0.73,0.81 -0.16,0.68 -0.35,0.95 -0.56,1.04 -3.31,3.62 -0.72,1.07 -1.09,2.52 -0.64,2.97 -0.09,1.66 0.04,0.84 0.37,2.28 0,0.8 -0.17,1.49 0.02,1.47 -0.15,1.37 0.62,2.81 0.54,1.26 0.19,0.72 0.03,1.7 -0.24,1.86 -10.45,5.8 -2.84,0.63 -0.63,-0.36 -2.81,-0.6 -4.34,-1.52 -4.38,-1.04 -0.83,-0.39 -0.53,-0.38 -0.98,-0.86 -3.22,-2.15 -1.77,-0.91 -0.49,-0.44 -0.41,-0.47 -0.53,-1.27 -0.37,-0.7 -0.51,-0.61 -0.94,-0.68 -0.73,0.09 -0.56,0.36 -4.04,6.85 -25.64,48.1 25.81,16.69 3.19,6.74 -0.58,2.01 1.26,1.53 2.05,1.45 6.15,3.46 3.86,1.7 4.22,0.18 49.19,-2.69 1.39,-1.34 0.24,-0.92 0.09,-0.87 -0.86,-14.77 2.67,-3.89 1.96,-0.89 1.05,-0.25 1.51,-0.61 1.64,-1.39 5.49,-5.76 9.59,-6.2 1.17,-0.43 1.03,-0.19 0.85,0.13 32.78,9.01 0.12,-2.65 0.54,-2.32 4.23,-8.14 0.32,-1.45 0.11,-1.71 0.45,-1.3 1.09,-0.49 1.35,-0.26 1.21,-0.64 1.44,-2.61 -0.19,-2.65 -1.37,-2.17 -2.12,-1.18 0.27,-0.63 0.44,-1.46 0.27,-0.6 -2.07,0.54 -0.77,0.35 0.36,-2.55 1.61,-1.44 1.75,-1.13 0.83,-1.61 -0.45,-6.65 -1.04,-1.06 -2.18,-4.53 -1.69,-0.86 -1.43,0.79 -0.66,2.16 -1.48,-0.17 0.21,-0.49 -0.72,-1.49 -0.91,-1.4 -0.67,-0.41 -0.64,-0.98 -0.28,-1.08 0.74,-0.52 2.57,-0.23 0.19,-0.71 -0.88,-1.25 -1.89,-5.34 -2.98,-4.39 -5.45,-6.12 -1.69,3 -2.09,0.07 -2.46,-0.81 -2.77,0.43 z" 
                fill="rgb(151, 144, 238)" 
                stroke="white" 
                stroke-width=".7px"
                title="Agnéby" 
                id="CI-AG" 
            />
        </svg>