<svg xmlns="http://www.w3.org/2000/svg" viewBox="46.12000000000004 219.11000000000013 154.54000000000008 162.9099999999999" width="154.54000000000008" height="162.9099999999999">
            <path 
                d="m 187.24,292.1 -4.24,-3.88 -1.12,-1.98 -0.5,-1.31 -0.34,-0.67 -0.75,-0.84 -1.19,-1.08 -3.29,-2.21 -0.96,-0.47 -1.39,-0.41 -1.26,-0.55 -1.13,-0.68 -1.75,-1.76 -3.48,-4.82 -1.31,-2.33 -0.64,-0.71 -0.9,-0.79 -2.89,-1.83 -1.5,-0.76 -1.11,-0.71 -5.76,-6.75 -4.77,-2.75 -0.44,-0.35 -0.48,-0.54 -3.6,-5.69 -0.98,-1.06 -7.6,-6.7 -4.07,-1.37 -2.44,-1.16 -1.07,-0.73 -0.96,-0.89 -0.82,-1.22 -5.87,-11.07 -3.27,-4.54 -1.56,-0.38 -2.09,1.56 -3.12,0.47 -2.58,0 -2.51,0.3 -11.73,6.02 -1.97,2.09 0,0 0,0.01 -0.01,0 -1.27,3.21 -0.63,3.12 -0.56,6.5 -2.38,11.47 1.31,4.08 5.98,1.82 2.9,0.33 7.84,2.39 0.58,-0.08 1.37,-0.7 0.77,0.02 0.85,0.57 1.05,1.67 0.62,0.73 2.47,2.17 0.9,1.12 3.13,5.71 1.23,1.43 3.64,2.46 0.93,1.14 0.68,2.47 -0.31,5.08 0.3,2.79 1.63,5.49 -0.01,2.3 -0.94,3.32 -0.4,3.16 0.83,2.82 2.71,5.61 -7.62,0.84 -3.6,-0.5 -2.97,-1.88 -4.11,-8.28 -2.79,-3.79 -2.87,0.47 -0.48,2 0.35,2.18 -0.24,1.86 -2.22,1.02 -2.19,-0.07 -2.12,-0.64 -1.87,-1.05 -1.43,-1.26 -1.02,-1.76 -0.7,-1.9 -0.91,-1.74 -1.62,-1.29 -1.86,-0.34 -2.01,0.26 -3.9,1.03 -1.2,-0.19 -2.3,0.19 -1.07,-0.07 -0.85,-0.42 -1.43,-1.27 -1.11,-0.37 -2.65,0.21 -4.34,1.73 -2.67,0.28 -4.68,-0.95 -1.83,0.24 -6.35,5.06 -0.72,0.93 0.01,1.59 0.69,1.42 0.91,1.45 0.68,1.68 0.21,2.72 -1.61,7.52 0,2.48 0.3,2.47 -0.39,1.52 -2.13,2.26 -0.18,1.39 10.85,7.17 12.74,3.92 1.25,-0.18 7.87,-2.71 1.63,-0.02 0.11,1.29 -0.76,1.83 -0.98,1.62 -0.78,4.02 0.05,1.99 0.73,1.87 2.44,1.47 2.18,2.42 1.59,2.9 0.34,1.34 2.45,1.09 2.4,1.02 3.04,0.5 0.88,-0.18 0.44,-0.72 0.59,-0.51 0.91,-0.11 1.71,0.64 1.87,1.76 0.07,0.03 0,0.01 0.04,0.06 0.23,0.58 0.18,0.63 0.28,0.61 0.77,0.96 0.12,0.57 -0.17,0.55 -0.23,0.52 0.07,0.52 0.47,0.32 0.91,0.26 0.64,0.38 0.68,0.26 0.56,0.37 0.96,0.87 0.57,0.41 0.69,0.38 0.32,0.65 0.24,0.69 0.31,0.62 0.95,0.86 0.4,0.5 1.05,1.66 0.3,0.58 0.68,0.57 1.34,0.41 2.71,0.43 2.21,0.72 0.98,0.74 0.54,0.69 0.55,0.46 0.74,0.46 0.39,0.57 0.37,1.26 0.47,0.25 0.53,-0.11 0.96,-0.98 0.53,0.15 0.4,0.43 0.37,0.51 0.37,0.4 0.71,-0.02 0.92,-0.31 2,-1.07 1.43,-1.43 0.67,-0.52 0.44,-0.52 0.43,-0.4 0.38,-0.02 0.47,0.44 0.28,0.67 0.36,0.57 0.59,0.15 0.94,-0.08 1.17,-0.48 1.12,0.12 0.96,-0.06 0.92,-0.21 1.27,-0.76 1.27,-1.19 0.55,-0.32 0.67,-0.24 0.83,-0.04 0.55,-0.63 0.41,-0.58 0.44,-0.48 0.4,-0.33 0.46,-0.28 0.27,-0.41 -0.15,-0.49 -0.26,-0.53 -0.2,-0.55 0.09,-0.51 0.45,-0.44 0.67,-0.45 0.93,-0.77 0.21,-0.69 -0.01,-0.7 -0.17,-0.7 -0.14,-4.1 -0.15,-0.59 -0.15,-0.4 -0.83,-1.42 -0.1,-0.25 -0.12,-0.48 -0.03,-0.72 0.12,-0.71 0.24,-0.61 0.61,-0.89 0.12,-0.23 -0.07,-0.27 -0.2,-0.32 -0.78,-0.86 -0.37,-0.53 -0.24,-0.68 -0.12,-0.8 0.17,-3.33 1.19,-4.47 0.47,-0.88 0.27,-0.41 0.38,-0.43 0.94,-0.84 2.06,-1.53 0.89,-0.87 0.79,-1.01 0.5,-0.48 0.69,-0.4 1.13,-0.04 0.93,0.31 2,1.75 1.38,0.96 0.68,0.68 0.51,0.63 0.64,1.18 0.4,0.53 0.7,0.5 1.02,0.39 4.58,1.08 2.2,1.07 4.8,3.1 0.5,0.42 0.41,0.54 4.42,7.2 1.18,2.4 3.86,0.82 16.49,-0.08 -2.25,-5.53 -0.63,-2.69 0,-4.59 0.3,-1.14 1.21,-1.75 0.2,-1.05 -0.77,-2.16 -1.14,-1.71 -0.63,-1.82 0.83,-2.51 -1.57,-1.83 -1.65,-3.41 -0.83,-3.28 1.37,-2.17 -0.02,-5.87 -0.11,-0.77 0.42,-0.73 1.5,-1.04 -2.53,-1.61 -2,-2.1 -1.32,-2.6 -1.29,-8.12 0,-5.42 -0.79,-3.01 -1.72,-3.68 z" 
                fill="rgb(151, 144, 238)" 
                stroke="white" 
                stroke-width=".7px"
                title="Bafing" 
                id="CI-BF" 
            />
        </svg>