<svg xmlns="http://www.w3.org/2000/svg" viewBox="132.39000000000007 551.33 243.41999999999987 290.7400000000009" width="243.41999999999987" height="290.7400000000009">
            <path 
                d="m 151.9,842.07 2.36,-0.91 10.31,-8.53 7.04,-3.86 2.33,-1.97 1.27,-0.43 1.63,0.02 1.41,-0.25 1.31,-2.54 1.62,-1.1 7.76,-3.34 9.71,-1.01 5.35,-1.64 8.14,-4.92 7.04,-5.91 3.65,-4.48 1.45,-0.82 3.09,-0.78 3.37,-1.66 13.12,-0.88 16.54,-4.89 2.1,-1.34 3.52,-3.36 2.09,-0.68 2.7,-0.32 13.81,-3.4 1.95,-1.06 0.77,-1.98 1.11,-0.89 35.77,-11.98 10.31,-5.33 6.84,-2.55 1.55,0.07 0.93,-1.2 2.23,-1.15 14.73,-4.6 -0.09,-0.39 -1.78,-13 0.06,-1.61 0.58,-2.09 0.45,-1.03 0.46,-0.78 1.31,-1.37 1.09,-0.71 1.26,-0.55 10.51,-2.66 1.15,-8.39 -11.09,-37.24 -16.35,5.59 -2.05,0.28 -0.34,-0.48 -0.38,-0.72 -0.57,-0.68 -1.33,-0.56 -0.79,-0.45 -0.48,-0.42 -0.55,-0.74 -0.83,-0.89 -0.39,-0.5 -0.33,-0.57 -0.58,-2.67 -0.24,-0.59 -0.3,-0.54 -0.26,-0.6 -0.17,-1.47 -0.02,-0.69 0.19,-0.64 0.29,-0.56 0.2,-0.67 0.07,-1.32 -1.35,-2.19 -0.5,-0.56 -0.51,-0.74 -0.71,-0.78 -0.85,-1.43 -0.38,-1.47 -0.34,-0.41 -0.68,-0.27 -0.51,-0.44 -0.23,-0.87 0.05,-0.78 0.23,-1.45 -0.12,-0.66 -0.26,-0.6 -0.42,-0.49 -2.86,-2.37 -1.11,-2.44 -0.51,-0.74 -3.11,-1.94 -0.98,-0.4 -3.05,0.07 -7.54,2.13 -3.93,-8.7 -0.7,-1.17 -0.62,-0.77 -0.55,-0.37 -1.02,-0.85 -0.44,-0.8 -0.39,-1.24 -0.65,-7.36 -0.24,-1.05 -0.41,-1.15 -1.02,-1.96 -0.64,-1 -1.03,-1.22 -1.71,-1.53 -0.01,-0.01 -0.03,-0.02 -0.3,-0.25 -0.76,-0.73 -0.82,-0.98 -2.57,-4.58 -2.56,-7.01 -1.66,-6.24 -1.65,-20.24 -3.22,0.53 -8.02,3.27 -2.24,0.02 -2.32,-0.73 -6.51,-3.96 -1.47,-0.56 -1.07,0.61 -9.74,7.29 -1.38,0.78 -1.27,0.28 -18.78,0.11 -1.48,-0.41 -1.88,-1.28 -15.12,-18.22 -2.67,-6.84 -0.03,-0.72 0.59,-1.02 0.6,-0.48 0.68,-0.36 0.7,-0.13 1.29,-0.39 0.49,-0.33 0.29,-0.45 0.19,-0.66 0.04,-0.91 -0.04,-1.08 -0.24,-1.49 -1.08,-2.37 -4.42,-3.8 -1.01,0.1 -3.52,0.83 -0.63,0.27 -2.07,1.2 -0.31,0.32 -1.69,2.49 -0.44,0.47 -0.52,0.39 -0.56,0.28 -0.58,0.15 -0.91,0.37 -1.04,0.69 -1.47,1.24 -0.68,4.14 0.61,17.4 1.75,25.79 1.46,5.61 0.61,11.73 -1.63,40.56 -39.95,7.76 -2.39,0.5 2.78,5.6 1.64,2.12 -2.74,-0.45 -0.89,1.58 0.62,2.49 1.77,2.29 -2.6,0.15 -0.85,-0.04 1.33,1.27 0.22,0.22 -0.7,1.09 -1.52,1.22 -0.95,1.92 0.09,4.94 -0.59,1.39 -1.83,-0.97 0.03,2.1 0.52,2.34 0.9,2.25 1.23,1.77 1.94,1.09 1.37,-0.26 0.97,0.2 0.72,2.47 0.34,2.53 -0.12,1.48 -0.76,1.36 -1.58,2.22 -0.32,0.88 -0.48,2.16 -0.65,0.82 -1.27,0.57 -0.31,-0.51 0,-0.99 -0.42,-0.86 -0.14,-0.68 0.66,-0.66 0.21,-0.51 -1.5,-0.26 -0.32,0.36 -3.38,1.83 -0.97,1.21 -0.56,1.19 -1.37,4.33 1.07,6.19 -0.1,2.21 -0.77,2.3 -3.52,6.42 -1.84,-0.74 -2.21,-0.04 -2.14,0.99 -1.65,2.38 -0.31,2.27 1.02,7.59 0.02,0 -0.18,2.82 0.91,1.82 1.22,1.72 0.75,2.54 0.01,1.99 -0.52,-0.04 -1.09,-0.78 -1.72,-0.18 -3.99,3.16 -0.06,1.24 0.93,4.06 -0.18,1.48 -0.74,2.71 -0.02,1.02 0,0.15 0.66,1.52 0.99,0.94 1.03,0.77 0.78,0.96 0.35,1.18 0.58,6.81 -0.58,28.07 0.19,1.18 0.35,1.21 0.24,1.36 -0.25,3.32 0.93,2.65 0.18,1.23 -0.4,1.3 -1.37,2.44 -0.17,1.33 0.71,1.54 4.32,2.96 0.01,0 2.13,-0.24 5.68,1.12 3.15,0.27 z" 
                fill="rgb(151, 144, 238)" 
                stroke="white" 
                stroke-width=".7px"
                title="Bas-Sassandra" 
                id="CI-BS" 
            />
        </svg>