<svg xmlns="http://www.w3.org/2000/svg" viewBox="58.049999999999955 35.61999999999999 208.40000000000003 256.47999999999985" width="208.40000000000003" height="256.47999999999985">
            <path 
                d="m 155.22,52.22 -1.7,-0.06 -0.18,-0.82 0.32,-1.28 -0.18,-1.44 -2.19,-3.7 -0.52,-1.32 -0.1,-1.18 0.11,-1.4 -0.11,-1.53 -0.71,-1.54 -1.13,-1.22 -1.25,-0.77 -1.52,-0.34 -1.88,0.11 -3.11,4.01 -1.02,0.95 -1.17,0.43 -2.35,-0.03 -1.31,0.13 -3.06,-0.29 -4.69,-2.89 -2.71,0.44 -0.74,1.11 -0.51,1.65 -0.66,1.39 -1.17,0.37 -1.55,-0.19 -1.15,0.28 -1.79,1.48 0,0.91 -0.59,0.21 -1.21,0.61 1.58,1.95 -1.48,2.2 -2.89,1.73 -2.64,0.56 1.73,2.25 -1.56,2.68 -0.25,1.91 -0.73,1.05 -0.97,0.62 -0.85,0.73 -0.46,1.44 -0.5,1.01 -3.13,4.01 -1.26,1.05 -1.15,0.77 -1.28,0.47 -3.35,0.48 -1.23,0.79 -2.44,2.05 -2.37,1.12 -2.72,0.74 -2.75,0.05 -2.45,-0.92 -1.33,1.5 -0.97,1.64 -0.67,1.79 -0.44,1.92 -2.5,3.27 -3.01,1.68 -6.65,2.51 -2.45,2.27 -2.65,3.59 -1.4,3.34 1.26,1.46 1.64,0.59 -0.5,1.29 -1.6,1.29 -2.81,1.08 -0.11,1.17 0.42,1.36 0.47,1.08 0.44,0.27 0.73,0.04 0.75,0.19 0.48,0.74 0.3,2.31 0.2,0.72 -0.21,0.32 -0.63,0.17 -0.39,0.47 0.54,1.21 0.54,0.19 2.45,-0.2 0.6,2.84 -4.81,34.48 -0.17,1.22 0.08,2.92 0.44,3.02 0.63,2.35 0.97,2.11 7.61,10.84 2.19,2.37 2.14,1.11 2.85,0.59 2.93,0.14 2.39,-0.23 2.68,-1.01 4.97,-2.82 2.77,-0.58 5.39,0 0.69,1.16 -3.45,10.55 -0.42,3.06 -4.67,11.51 0.15,4.82 6.64,2.64 1.62,-0.28 1.32,-0.55 1.09,0.22 1.79,3.38 1.42,1.46 2.92,2.28 5.44,3.06 1.65,2.01 -0.19,0.14 1.56,0.38 3.27,4.54 5.87,11.07 0.82,1.22 0.96,0.89 1.07,0.73 2.44,1.16 4.07,1.37 7.6,6.7 0.98,1.06 3.6,5.69 0.48,0.54 0.44,0.35 4.77,2.75 5.76,6.75 1.11,0.71 1.5,0.76 2.89,1.83 0.9,0.79 0.64,0.71 1.31,2.33 3.48,4.82 1.75,1.76 1.13,0.68 1.26,0.55 1.39,0.41 0.96,0.47 3.29,2.21 1.19,1.08 0.75,0.84 0.34,0.67 0.5,1.31 1.12,1.98 4.24,3.88 -0.69,-4.97 -0.95,-2.74 -1.39,-2.46 -1.69,-1.27 1.59,-0.56 0.17,-0.68 -0.95,-0.52 -1.78,-0.04 1.27,-2.44 0.45,-2.57 0.15,-4.93 1.55,-6.34 0.24,-2.28 0.25,-1.13 1.14,-1.1 0.31,-0.97 -0.24,-1.02 -1.19,-2.29 -0.27,-0.75 -0.15,-2.41 -0.55,-2.08 -1.11,-1.53 -1.85,-0.76 0.97,-1.14 0.6,-1.19 0.28,-1.4 0.02,-1.77 0.82,-1.53 -0.01,-0.77 -1.26,-0.33 -1.01,-0.08 -0.56,-0.29 -0.32,-0.56 0.11,-0.57 0.25,-0.25 1.76,-0.07 3.3,-0.96 1.81,-1.38 2.09,-1.93 1.6,-1.02 1.2,-1.46 0.21,-0.5 0.01,-0.02 0.24,-0.3 0.38,-0.32 0.64,-0.29 0.82,-0.07 1.2,0.3 0.67,0.35 0.35,0.24 0.08,0.09 0.01,0.04 0.02,0.02 0.3,0.29 0.47,0.31 0.6,0.3 0.77,0.13 2.29,-0.17 0.73,0.09 0.58,0.3 0.42,0.48 1.45,2.17 0.43,0.5 0.53,0.42 0.61,0.33 0.69,0.23 0.74,0.13 0.82,0.04 2.14,-0.21 3.71,-0.76 0.88,0.2 0.72,0.33 0.49,0.43 0.74,0.32 0.98,0.09 1.47,-0.08 0.82,0.23 0.64,0.36 0.94,0.91 0.49,0.21 0.44,-0.01 0.24,-0.82 0.04,-0.8 -0.62,-5.94 0,-0.03 -0.01,-0.06 -0.1,-1.89 0.09,-0.9 0.28,-0.97 0.83,-1.28 0.37,-0.97 0.2,-0.84 0.77,-0.79 1.35,-0.66 5.19,-1.23 1.59,-0.56 1.63,-1.11 1.18,-0.58 3.22,-0.88 4.77,-2.86 1.08,-3.72 -0.04,-0.78 -0.23,-1.02 -1.04,-1.86 0.12,-1.81 1.5,-7.53 0.14,-2.17 -0.26,-1.35 -0.52,-0.4 -0.87,-1.06 -0.35,-0.52 -0.47,-0.44 -1.88,-3.43 -1.55,-5.47 -0.47,-2.49 -0.05,-1.69 1.14,-1.73 0.19,-1.12 -0.25,-0.98 -0.57,-1.51 -0.15,-0.87 0.03,-0.53 0.31,-0.47 0.41,-0.39 0.35,-0.56 0.26,-0.7 0.31,-1.58 0.23,-0.72 0.42,-0.51 0.57,-0.32 0.64,-0.26 0.62,-0.56 0.53,-0.86 0.52,-1.75 0.08,-1.11 -0.17,-0.86 -0.35,-0.36 -0.78,-0.51 -1.79,-1.51 -1.14,-1.58 -0.82,-0.8 -2.39,-1.4 1.55,-6.47 0.81,-2.29 0.36,-0.56 1.99,-2.49 0.25,-1.07 0.19,-1.55 0.43,-0.92 0.61,-0.72 0.87,-0.73 0.12,-0.64 -0.2,-0.56 -0.4,-0.64 -0.32,-0.75 -0.07,-1.29 0.42,-0.91 0.69,-1.13 0.24,-0.89 -0.02,-0.77 -0.34,-0.57 -0.54,-0.45 -1.26,-0.8 -0.51,-0.76 0.11,-1.23 0.63,-2.09 0.38,-2.57 0.47,-1.32 0.54,-0.89 0.62,-0.68 0.77,-1.26 0.05,-0.82 -0.17,-0.69 -0.74,-1.04 -0.33,-0.59 -0.81,-3.3 -0.32,-0.83 -0.41,-0.64 -0.48,-0.4 -0.52,-0.35 -0.56,-0.58 -0.56,-0.83 -1.01,-2.52 -0.45,-0.72 -0.53,-0.43 -0.64,-0.32 -0.77,-0.17 -0.79,-0.05 -16.61,0.54 -0.83,-0.17 -0.78,-0.26 -0.65,-0.59 -0.05,-0.63 0.2,-0.63 2.26,-3.46 1.02,-1.19 2.77,-2.59 0.31,-0.74 0.35,-1.14 -0.01,-1.05 0.26,-1.7 0.55,-1.28 1.11,-1.74 0.42,-1.09 0.08,-1.04 -0.12,-0.65 -1.02,-1.22 1.53,-1.96 2.34,-1.18 3.53,-0.59 1.75,0.15 4.89,-0.89 1.35,2.48 1.54,1.39 1.42,0.77 1.05,0.35 0.99,0.16 0.8,-0.03 1.46,-0.24 5.2,-1.69 10.65,-5.81 0.48,-0.41 0.42,-0.45 0.08,-0.68 -0.35,-2.28 0.07,-1.65 0.59,-2.88 -0.17,-0.83 -4.11,-1.22 -0.79,-0.62 -1.11,-1.12 -0.31,-0.88 -0.13,-0.85 0.07,-0.81 0.35,-1.7 -0.03,-1.04 -0.53,-2.16 -0.9,-1.38 -2.23,-4.74 -1.58,-1.55 -0.08,0.64 -1.11,1.59 -3,0.98 -2.91,-0.32 -4.92,-2.93 -2.86,-0.92 -2.85,0.29 -7.69,3.59 -2.52,0.34 -7.42,-0.94 -2.94,0.46 -1.55,1.67 -3.14,10.57 0.29,1.77 1.39,1.2 1.71,1.11 1.25,1.46 0.29,3.39 -1.6,2.8 -2.71,2.04 -3.06,1.09 -3.23,0.11 -2.32,-2.11 -1.95,-3 -2.13,-2.53 -2.21,-1.29 -12.86,-3.61 -10.37,-1.61 -8.22,-0.17 -2.15,-0.57 -1.1,-1.64 -0.12,-3.2 0.83,-5.43 -0.78,-2.03 -2.97,-0.2 -3.55,1.35 -1.2,0.31 z" 
                fill="rgb(151, 144, 238)" 
                stroke="white" 
                stroke-width=".7px"
                title="Denguélé" 
                id="CI-DE" 
            />
        </svg>