<svg xmlns="http://www.w3.org/2000/svg" viewBox="17.429999999999936 339.21000000000004 196.45999999999998 208.43000000000018" width="196.45999999999998" height="208.43000000000018">
            <path 
                d="m 184.17,362.77 -3.86,-0.82 -1.18,-2.4 -4.42,-7.2 -0.41,-0.54 -0.5,-0.42 -4.8,-3.1 -2.2,-1.07 -4.58,-1.08 -1.02,-0.39 -0.7,-0.5 -0.4,-0.53 -0.64,-1.18 -0.51,-0.63 -0.68,-0.68 -1.38,-0.96 -2,-1.75 -0.93,-0.31 -1.13,0.04 -0.69,0.4 -0.5,0.48 -0.79,1.01 -0.89,0.87 -2.06,1.53 -0.94,0.84 -0.38,0.43 -0.27,0.41 -0.47,0.88 -1.19,4.47 -0.17,3.33 0.12,0.8 0.24,0.68 0.37,0.53 0.78,0.86 0.2,0.32 0.07,0.27 -0.12,0.23 -0.61,0.89 -0.24,0.61 -0.12,0.71 0.03,0.72 0.12,0.48 0.1,0.25 0.83,1.42 0.15,0.4 0.15,0.59 0.14,4.1 0.17,0.7 0.01,0.7 -0.21,0.69 -0.93,0.77 -0.67,0.45 -0.45,0.44 -0.09,0.51 0.2,0.55 0.26,0.53 0.15,0.49 -0.27,0.41 -0.46,0.28 -0.4,0.33 -0.44,0.48 -0.41,0.58 -0.55,0.63 -0.83,0.04 -0.67,0.24 -0.55,0.32 -1.27,1.19 -1.27,0.76 -0.92,0.21 -0.96,0.06 -1.12,-0.12 -1.17,0.48 -0.94,0.08 -0.59,-0.15 -0.36,-0.57 -0.28,-0.67 -0.47,-0.44 -0.38,0.02 -0.43,0.4 -0.44,0.52 -0.67,0.52 -1.43,1.43 -2,1.07 -0.92,0.31 -0.71,0.02 -0.37,-0.4 -0.37,-0.51 -0.4,-0.43 -0.53,-0.15 -0.96,0.98 -0.53,0.11 -0.47,-0.25 -0.37,-1.26 -0.39,-0.57 -0.74,-0.46 -0.55,-0.46 -0.54,-0.69 -0.98,-0.74 -2.21,-0.72 -2.71,-0.43 -1.34,-0.41 -0.68,-0.57 -0.3,-0.58 -1.05,-1.66 -0.4,-0.5 -0.95,-0.86 -0.31,-0.62 -0.24,-0.69 -0.32,-0.65 -0.69,-0.38 -0.57,-0.41 -0.96,-0.87 -0.56,-0.37 -0.68,-0.26 -0.64,-0.38 -0.91,-0.26 -0.47,-0.32 -0.07,-0.52 0.23,-0.52 0.17,-0.55 -0.12,-0.57 -0.77,-0.96 -0.28,-0.61 -0.18,-0.63 -0.23,-0.58 -0.04,-0.06 0,-0.01 -0.07,-0.03 -1.87,-1.76 -1.71,-0.64 -0.91,0.11 -0.59,0.51 -0.44,0.72 -0.88,0.18 -3.04,-0.5 -2.4,-1.02 -2.45,-1.09 0.39,1.55 -2.32,-0.19 -1.58,-1 -1.27,-1.09 -1.28,-0.41 -5.47,0.89 -1.99,-0.06 0.24,1.12 -0.22,3.19 -1.33,5.14 -6.51,9.91 -0.3,5.3 0.97,1.37 2.92,2.54 0.67,1.44 -0.26,1.32 -0.74,0.73 -0.86,0.52 -0.6,0.73 -0.51,2.12 -0.47,4.39 -0.62,1.91 -4.21,4.84 -0.08,0.55 0.36,1.29 -0.08,0.55 -0.53,0.54 -1.48,0.84 -0.58,0.51 -2.62,3.34 -0.62,1.5 -0.05,1 0.42,2.14 -0.06,0.93 -3.76,4.23 -4.75,-2.08 -4.95,-3.86 -4.39,-1.12 -4.64,1.39 -2.43,0.19 -3.13,-3.57 -3.3,1.71 -5.93,5.53 5.46,2.75 2.36,4.64 2.67,9.32 1.59,12.78 0.7,2.55 0.86,1.57 2.23,3.19 0.85,1.73 1.02,4.09 0.62,1.04 1.57,1.97 0.52,1.03 0.07,0.87 -0.28,1.67 0.11,0.85 0.46,0.82 1.93,1.95 0.8,1.37 0.36,1.22 0.18,3.22 2.24,12.55 -0.33,3.18 -0.98,1.23 -2.67,2.09 -0.71,1.13 -0.16,2.33 0.16,2.17 -0.12,2.06 -1.67,3.63 0.64,0.99 1.07,0.71 0.64,0.77 0.09,1.78 -0.21,1.85 -1.1,3.95 -1.63,3.82 -1.87,2.88 -11.75,13.17 0.88,0.36 12.81,8.24 1.21,0.5 0.96,0.03 1.45,-1.04 1.05,-0.52 1.66,-0.59 0.88,-0.14 3.18,-2.5 0.95,-0.48 0.11,-0.81 -0.02,-0.63 -0.11,-0.7 0.08,-0.72 0.27,-0.86 -0.04,-0.73 -0.28,-1.08 0.32,-0.28 1.37,0.2 0.68,-0.11 0.62,-0.18 1.33,-0.22 0.46,-0.34 -0.06,-0.91 -0.86,-1.83 -0.14,-0.52 0.42,-0.76 2.62,-1.61 0.79,-0.03 0.3,0.4 0.06,0.56 0.27,0.5 0.48,0.29 0.75,-0.07 0.79,-0.51 1.02,-1.03 0.56,-1.44 0.46,-2.68 0.04,-1.3 0.28,-0.55 1.51,-1.13 0.72,-1.02 0.76,-0.36 1.53,-0.89 1.21,-0.98 1.04,-0.58 0.79,-0.3 0.54,-0.32 0.09,-0.81 -1.25,-3.21 -0.33,-0.43 -0.48,-0.09 -0.42,-0.12 -0.2,-0.49 0.02,-0.66 0.23,-0.83 1.06,-2.23 0.57,-1.75 -0.41,-0.9 0.17,-0.42 0.99,-0.43 0.72,-0.46 0.58,-0.83 0.33,-0.67 0.4,-0.4 0.67,0.18 1.08,-0.24 1.48,-0.79 5.16,-4.95 2.93,-1.02 3.37,1.45 0.63,0.4 1.07,0.8 2.76,2.55 1.12,0.71 0.97,0.43 1.83,0.3 3.17,0.91 0.98,0.54 0.66,0.58 0.6,1.22 1.48,4.18 0.56,0.86 1.21,1.15 1.88,0.4 2.15,0.18 21.84,-0.31 1.76,-0.37 0.54,-6.86 0.23,-0.92 1.63,-3.05 8.42,-1.29 13.79,-0.06 1.34,-0.2 3.72,-1.01 12.27,-2.04 1.78,0.04 0.8,0.08 4.43,1.08 10.02,-1.06 1.37,0.05 0.61,0.31 3.21,2.17 1.92,0.8 6.15,1.06 0.9,0.04 -0.26,-2.71 -0.01,-1.47 0.62,-4.15 2.29,-7.51 0.43,-1.86 -0.18,-1.99 -5.03,-12.09 0.07,-1.4 0.91,-4.49 -0.33,-1.23 -0.58,-1.4 -0.25,-1.45 0.67,-1.4 0.8,-2.29 -0.24,-3.23 -1.2,-6.58 -0.55,-1.39 -0.11,-0.87 0.28,-0.8 0.61,-0.35 0.62,-0.24 0.69,-1.16 0.89,-1.03 0.89,-1.29 0.4,-1.47 1.21,-1.82 2.54,-0.87 2.25,-1.45 0.33,-3.55 -0.54,-0.78 -1.76,-1.03 -0.38,-0.48 0.14,-0.78 0.31,-0.37 0.31,-0.24 0.13,-0.41 -0.13,-1.35 -0.76,-3.15 1.13,-1.71 2.33,-1.09 1.94,-1.38 -0.04,-2.62 -1.05,-0.83 -2.84,-0.35 -1.2,-2.33 -1.46,0 -2.86,0.89 -0.88,-1.18 -1.43,-5.78 -0.86,-2.12 0.68,-1.22 0.34,-1.33 0.07,-1.44 -0.11,-1.5 -1.44,-3.47 -0.84,-4.57 -0.48,-8.63 -0.27,-0.93 -1.17,-1.41 -0.27,-1.34 0.15,-2.13 0.25,-0.86 0.5,-0.98 1.34,-1.7 1.32,-1.24 0.9,-1.57 0.01,-2.7 -1.59,-4.07 -16.49,0.08 z" 
                fill="rgb(151, 144, 238)" 
                stroke="white" 
                stroke-width=".7px"
                title="Dix-Huit Montagnes" 
                id="CI-DH" 
            />
        </svg>