<svg xmlns="http://www.w3.org/2000/svg" viewBox="290.06 540.43 155.19999999999993 126.55999999999983" width="155.19999999999993" height="126.55999999999983">
            <path 
                d="m 419.02,540.51 -0.23,0 -8.69,-0.08 -3.98,1.51 -25.92,17.66 -3.86,0.84 -39.33,-4.09 -1.35,7.93 -1.15,3.25 -3.15,6.08 -1.07,1.39 -0.83,0.57 -1.02,-0.69 -2.4,-1.27 -0.64,-0.27 -0.65,-0.14 -0.63,0.06 -0.55,0.29 -7.61,6.38 -1.18,0.65 -1.41,0.28 -6.57,-0.47 -1.86,0.26 -2.26,0.53 -3.98,1.66 -4.78,1.29 -3.86,0.5 1.65,20.24 1.66,6.24 2.56,7.01 2.57,4.58 0.82,0.98 0.76,0.73 0.3,0.25 0.03,0.02 0.01,0.01 1.71,1.53 1.03,1.22 0.64,1 1.02,1.96 0.41,1.15 0.24,1.05 0.65,7.36 0.39,1.24 0.44,0.8 1.02,0.85 0.55,0.37 0.62,0.77 0.7,1.17 3.93,8.7 7.54,-2.13 3.05,-0.07 0.98,0.4 3.11,1.94 0.51,0.74 1.11,2.44 2.86,2.37 0.42,0.49 0.26,0.6 0.12,0.66 -0.23,1.45 -0.05,0.78 0.23,0.87 0.51,0.44 0.68,0.27 0.34,0.41 0.38,1.47 24.13,-28.48 6,-5.5 1.03,-0.12 1.2,-0.41 1.78,-1.21 0.74,-0.9 0.45,-0.89 0.19,-2.44 -0.19,-2.38 3.61,-6.71 0,-1.22 -0.65,-2.79 -0.54,-4.78 0.78,-2.83 3.67,-7.42 29.23,3.87 25.19,-8.84 2.86,0.44 6.05,1.64 3.85,-10.67 0.29,-3.47 -0.21,-0.82 -0.13,-4.59 -2.57,-0.79 -4.58,1.59 -2.17,-0.66 -2.2,-2.23 -0.98,-2.09 -0.16,-2.51 0.18,-3.54 -0.41,-0.78 -0.83,-0.65 -0.54,-0.73 0.48,-1.03 0.7,-0.78 0.35,-0.63 0.25,-1.69 0.67,-1.96 -0.33,-0.54 -1.64,-0.19 -2.11,-0.81 1.68,-2.43 1.31,-1.88 -0.48,-2.07 1.19,-2.85 -1.6,-1.7 -2.98,-0.8 -7.12,0.13 -1.48,-0.9 -0.58,-2.54 0.05,-0.9 z" 
                fill="rgb(151, 144, 238)" 
                stroke="white" 
                stroke-width=".7px"
                title="Fromager" 
                id="CI-FR" 
            />
        </svg>