<svg xmlns="http://www.w3.org/2000/svg" viewBox="200.46000000000004 389.56999999999994 150.79000000000008 202.6999999999997" width="150.79000000000008" height="202.6999999999997">
            <path 
                d="m 282.36,395.45 -2.99,-0.22 -19.44,-5.66 -47.95,2.83 -3.72,0.85 -2.88,1.74 -3.13,3.3 0.11,1.5 -0.07,1.44 -0.34,1.33 -0.68,1.22 0.86,2.12 1.43,5.78 0.88,1.18 2.86,-0.89 1.46,0 1.2,2.33 2.84,0.35 1.05,0.83 0.04,2.62 -1.94,1.38 -2.33,1.09 -1.13,1.71 0.76,3.15 0.13,1.35 -0.13,0.41 -0.31,0.24 -0.31,0.37 -0.14,0.78 0.38,0.48 1.76,1.03 0.54,0.78 -0.33,3.55 -2.25,1.45 -2.54,0.87 -1.21,1.82 -0.4,1.47 -0.89,1.29 -0.89,1.03 -0.69,1.16 -0.62,0.24 -0.61,0.35 -0.28,0.8 0.11,0.87 0.55,1.39 1.2,6.58 0.24,3.23 -0.8,2.29 -0.67,1.4 0.25,1.45 0.58,1.4 0.33,1.23 -0.91,4.49 -0.07,1.4 5.03,12.09 0.18,1.99 -0.43,1.86 -2.29,7.51 -0.62,4.15 0.01,1.47 0.26,2.71 1.93,2.9 -0.24,1.34 -0.5,0.66 -0.5,0.8 -0.59,1.44 0.01,1.06 0.23,1.03 0.58,1.15 0.49,0.73 0.52,0.55 0.6,0.3 2.63,0.95 0.83,0.68 0.95,0.92 1.65,2.05 0.73,1.28 0.59,1.55 2.22,11.26 -0.08,0.76 -0.15,0.72 -0.24,0.65 -0.31,0.61 -0.29,1.76 0.39,3.76 -4.09,6.28 -0.45,2.26 0.44,0.51 1.19,0.96 4.42,3.8 1.08,2.37 0.24,1.49 0.04,1.08 -0.04,0.91 -0.19,0.66 -0.29,0.45 -0.49,0.33 -1.29,0.39 -0.7,0.13 -0.68,0.36 -0.6,0.48 -0.59,1.02 0.03,0.72 2.67,6.84 15.12,18.22 1.88,1.28 1.48,0.41 18.78,-0.11 1.27,-0.28 1.38,-0.78 9.74,-7.29 1.07,-0.61 1.47,0.56 6.51,3.96 2.32,0.73 2.24,-0.02 8.02,-3.27 3.22,-0.53 3.86,-0.5 4.78,-1.29 3.98,-1.66 2.26,-0.53 1.86,-0.26 6.57,0.47 1.41,-0.28 1.18,-0.65 7.61,-6.38 0.55,-0.29 0.63,-0.06 0.65,0.14 0.64,0.27 2.4,1.27 1.02,0.69 0.83,-0.57 1.07,-1.39 3.15,-6.08 1.15,-3.25 1.35,-7.93 -6.28,-6.58 -0.86,-4.51 0.5,-3.21 -4.54,-6.29 -5.07,-6.77 -1.04,-4.85 -0.05,-4.47 -0.28,-2.2 -4.77,-9.79 -0.75,-2.94 -0.28,-2.63 0.17,-4.54 0.29,-2.26 0.69,-2.24 1.66,-1.75 23.54,-15.23 2.87,-0.5 3.72,-0.32 1.73,-0.34 0.98,-0.41 0.27,-1.01 0.34,-0.55 1.4,-1.61 -5.18,-2.49 -3.25,-0.45 -0.43,-0.19 -2.46,-1.93 -1.56,-0.63 -5.97,-3.21 -3.44,-1.27 -0.83,-0.43 -0.46,-0.43 -0.31,-0.55 -0.63,-1.78 -1.02,-1.35 -5.83,-1.47 -2.56,-0.27 -1.77,0.04 -0.79,0.13 -1.25,0.5 -0.4,0.5 -0.14,0.72 0.03,3.75 -0.29,2.01 -0.81,1.86 -2.66,0.67 -2.68,0.27 -3.54,-0.04 -4.4,-0.8 -1.94,-0.1 -1.18,-0.51 -0.86,-0.66 -0.8,-1.1 -0.97,-1.07 -1.23,-1.04 -1.22,-0.17 -1.65,0.5 -1.43,0.79 -2.98,1.16 -0.29,-2.75 6.24,-12.5 6.95,-10.52 1.63,-3.06 0.94,-3.34 1.41,-2.93 1.78,-1.46 25.5,-14.13 -2.33,-3.3 -2.2,-1.43 -3.47,-1.09 -4.95,-2.07 -1.19,-0.81 -0.58,-0.76 -0.47,-4.07 -0.2,-0.72 -0.25,-0.64 -1.49,-2.49 -1.58,-3.5 -4.02,-0.17 -19.5,4.7 -3.93,0.18 z" 
                fill="rgb(151, 144, 238)" 
                stroke="white" 
                stroke-width=".7px"
                title="Haut-Sassandra" 
                id="CI-HT" 
            />
        </svg>