<svg xmlns="http://www.w3.org/2000/svg" viewBox="384.67 420.73999999999995 136.4899999999995 172.9800000000003" width="136.4899999999995" height="172.9800000000003">
            <path 
                d="m 506.89,425.49 -3.33,-0.37 -0.74,-0.49 -2.4,-2.41 -1.69,-1.04 -1.08,-0.37 -1.01,-0.07 -7.73,0.48 -2.02,0.52 -1.53,0.78 -2.27,2.83 -1.95,3.64 -1.04,0.99 -1.61,0.99 -7.37,2.76 -1.83,1.11 -0.85,0.66 -0.73,0.73 -0.62,0.76 -0.52,0.81 -0.82,1.68 -0.29,0.83 -0.81,0.98 -1.35,1.12 -14.66,7.12 -2.38,2.68 -1.39,3.1 -0.73,0.88 -0.77,0.25 -0.96,-0.03 -1.06,0.11 -1.59,0.73 -1.01,1.02 -2.42,3.08 -0.99,0.65 -0.92,0.24 -2.46,-0.4 -0.86,0.02 -4.12,1.11 -1.21,0.17 -0.99,-0.04 -0.83,-0.28 -0.8,-0.43 -0.77,-0.58 -2.29,-2.53 -2.64,-3.84 -0.63,-0.74 -0.81,-0.66 -1.17,-0.49 -0.97,-0.05 -0.92,0.17 -5.43,2.28 -15.04,3.76 -2.14,0.04 -3.83,-0.48 -0.36,1.17 0.25,0.66 -0.34,0.57 -0.51,0.4 -0.73,0.4 -0.15,0.55 0.19,0.65 0.84,1.56 0.5,0.56 0.62,0.33 0.67,0.11 0.75,-0.03 0.85,0.08 0.99,0.35 2.24,1.83 1.56,1.03 0.18,0.79 0.05,0.83 0.41,1.38 0.67,0.75 1.11,0.79 0.8,0.36 0.83,0.16 0.69,0.01 0.7,-0.18 0.6,-0.29 0.54,-0.34 0.41,-0.33 0.69,-0.27 1.22,-0.2 0.84,0.09 0.91,0.24 3.53,1.36 0.43,0.66 0.15,0.79 -1,3.78 -0.72,1.73 -0.15,0.8 0.07,1.01 0.4,1.42 0.65,0.97 0.58,0.64 0.57,0.43 0.55,0.33 0.63,0.27 2.57,0.76 0.31,0.53 -0.07,0.55 -0.4,0.5 -0.53,0.41 -1.59,0.79 -1.34,0.5 -0.92,1.54 -0.41,1.02 -1.14,3.74 -0.23,2.13 -0.68,2.23 -2.73,2.17 -0.24,2.42 1.12,2.45 3.57,4.12 0.75,2.88 1.27,1.53 6.4,6.11 0.29,1.12 1.41,3.1 1.34,2.97 0.51,2.71 -0.45,6.61 -0.01,0.15 -0.05,0.9 0.58,2.54 1.48,0.9 7.12,-0.13 2.98,0.8 1.6,1.7 -1.19,2.85 0.48,2.07 -1.31,1.88 -1.68,2.43 2.11,0.81 1.64,0.19 0.33,0.54 -0.67,1.96 -0.25,1.69 -0.35,0.63 -0.7,0.78 -0.48,1.03 0.54,0.73 0.83,0.65 0.41,0.78 -0.18,3.54 0.16,2.51 0.98,2.09 2.2,2.23 2.17,0.66 4.58,-1.59 2.57,0.79 2.28,-1.56 0.6,-0.27 0.8,0 1.1,0.49 20.1,16.46 2.37,1.35 4.39,0.7 3.5,0.08 1.25,-0.17 7.99,-2.39 1.1,-0.08 1.86,0.16 2.02,0.46 0.62,0.23 1.15,0.31 0.7,0.11 1.24,0.44 4.11,0.21 3.76,-0.25 3.03,-1.35 3.19,-3.78 0.85,-0.28 0.11,-0.53 -0.36,-1.05 -0.36,-0.75 -0.53,-0.45 -0.67,-0.05 -1.35,0.2 -0.54,-0.15 -0.16,-0.43 1.2,-2.58 0.46,-0.41 0.54,-0.62 0.39,-1.04 0.36,-1.99 0.39,-1.01 0.13,-0.89 -0.21,-0.7 -1.33,-1.25 -0.09,-0.44 0.66,-0.38 0.46,-0.36 0.04,-0.44 -0.49,-0.22 -1.46,-0.07 -0.59,-0.3 -0.22,-0.63 0.08,-1.23 -0.1,-0.79 -0.67,-0.54 -0.7,-0.19 -0.53,-0.38 -0.1,-0.54 0.42,-0.68 0.45,-0.12 0.4,-0.5 -0.06,-1.04 -0.7,-2.13 -0.7,-0.93 -0.8,-0.54 -2.01,-0.52 -0.66,0.1 -1.25,0.51 -0.66,0.2 -0.72,0.04 -0.58,-0.36 -0.4,-0.74 0.09,-1.83 0.23,-1.48 0.58,-2.01 0.18,-1.97 0.21,-0.56 0.77,-0.31 2.04,0.34 0.56,-0.26 0.29,-0.51 -0.25,-1 -0.36,-0.64 -0.28,-0.67 -0.1,-1.24 -0.31,-0.48 -0.45,-0.39 0.11,-0.49 0.31,-0.45 3.39,-0.83 -9,-3.3 -0.57,-0.03 -0.62,0.14 -0.65,0.04 -1.82,-0.39 -0.63,0.07 -0.69,0.13 -0.61,0.27 -0.57,0.35 -0.99,0.82 -0.55,0.31 -0.68,0.18 -1.6,0.09 -0.72,0.11 -0.47,0.35 -0.13,0.51 0.02,0.61 -0.15,0.59 -0.46,0.33 -0.66,0.05 -0.7,-0.11 -0.77,-0.33 -0.68,-0.64 -0.73,-1.03 0,-1.27 0.28,-0.38 0.4,-0.29 0.13,-0.5 -0.06,-0.67 -0.23,-0.62 -0.38,-0.46 -0.8,-0.19 -0.85,-0.42 -1.66,-1.88 -0.35,-0.89 0.1,-1.6 0.76,-1.57 0.37,-1.53 0.35,-0.58 0.09,-0.61 -0.32,-0.77 -1.33,-0.91 -1.02,-0.93 -0.72,-0.5 -0.58,-1.91 1.63,-5.32 0.5,-3.08 0.02,-0.57 0.15,-0.67 2.95,-1.51 1.06,0.52 0.59,0.13 1,0 11.96,-5.44 1.15,-0.65 0.48,-0.47 0.47,-0.61 0.33,-0.95 -0.05,-0.97 -0.81,-1.89 -0.14,-0.89 0.07,-0.91 0.86,-2 0.21,-0.96 0.08,-0.75 -1.18,-3.14 -1.19,-2.92 -0.04,-0.18 -0.05,-0.6 0.11,-0.69 0.34,-0.64 1.74,-1.61 4.04,-6.41 0.35,-1.28 1.09,-2.46 6.69,-21.69 -0.07,-1.52 -2.97,-16.53 0.15,-1.39 0.61,-1.35 2.15,-1.25 1.67,-0.79 3.39,-0.89 5.04,0.02 -0.33,-1.99 -0.3,-0.82 -3.15,-6.06 -10.49,0.39 z" 
                fill="rgb(151, 144, 238)" 
                stroke="white" 
                stroke-width=".7px"
                title="Lacs" 
                id="CI-LC" 
            />
        </svg>