<svg xmlns="http://www.w3.org/2000/svg" viewBox="415.16 574.6399999999999 266.7699999999998 168.4200000000002" width="266.7699999999998" height="168.4200000000002">
            <path 
                d="m 430.65,731 0,-0.01 -0.2,-0.06 -1.85,-0.85 -1.46,-0.99 -6.78,-5.79 -1.18,-0.64 -1.4,-0.46 -1.67,-0.27 -0.95,3.47 1.91,17.65 0,0.01 17.52,-0.94 5.09,-1.97 33.07,-1 -1.63,-1.5 -1.12,-2.42 -0.74,-2.26 -0.53,-0.99 -4.52,-0.48 -1.72,0.29 -1.84,1.44 -3.37,0.89 -7.93,-4.64 -4.36,0.62 -1.78,-0.89 0,0.89 1.91,0.6 0.88,1.39 1.06,1.06 2.39,-0.35 -0.82,1.68 -1.33,0.54 -1.6,-0.36 -1.6,-0.98 -1.81,1.18 -2.12,-0.54 -2.16,-1.09 -1.95,-0.43 -0.49,0.39 -1.65,1.72 -0.7,0.57 -1.01,0.53 -0.97,0.36 -1.07,0.17 -1.33,-0.08 0,0.9 2.38,0.61 2.32,-0.37 2.21,-0.04 2.1,1.59 -5.16,1.38 -6.41,-0.71 -5.37,-2.42 -1.95,-3.72 1.77,0.9 -0.06,-1.38 0.06,-0.4 0.98,0 4.38,6.35 0.89,-1.73 1.86,-5.44 0,2.6 1.29,-0.87 3.06,-1.51 1,-1.12 0,-0.98 -1.85,0.24 -0.71,0.21 -0.91,0.53 -0.07,-0.08 z m 45.91,-137.36 -4.39,-0.7 -2.37,-1.35 -20.1,-16.46 -1.1,-0.49 -0.8,0 -0.6,0.27 -2.28,1.56 0.13,4.59 0.21,0.82 -0.29,3.47 -3.85,10.67 8.93,8.5 5.29,2.15 13.4,1.59 1.96,0.67 1.35,1.2 0.5,2.77 0.61,16.16 1.59,10.19 6.46,12.31 -7.24,18.71 -0.27,1.08 0.11,0.66 0.27,0.58 0.69,1.06 1.2,2.3 0.23,0.68 0.58,2.78 -0.03,1.64 -0.31,1.81 -1.42,4.82 -8.27,19.87 -0.43,1.41 -0.14,1 -0.05,0.93 0.23,3.1 -0.05,0.8 -0.14,0.74 -4.62,10.12 -0.6,0.84 -0.52,0.54 -0.53,0.42 -0.75,0.22 -0.95,-0.01 -1.46,-0.52 -1.86,-1.43 -1.22,-0.22 -1.77,0 -8.17,0.69 -1.24,0.56 -0.01,0.02 0,0 0,0 0.23,0.3 0.89,0.69 0.51,0.57 3.95,-1.06 4.38,0.92 3.77,1.91 2.19,1.89 1.77,-1.51 2.17,-1.16 2.33,-0.73 7.13,-0.9 1.66,0.43 -1.68,1.99 0.87,2.47 -0.07,2.39 0.88,1.55 3.67,-0.05 0,0.9 -0.41,0.03 -0.87,-0.07 -0.42,0.04 0,0.81 1.69,-0.17 7.04,0.14 1.54,0.26 1.41,0.75 2.26,-0.99 11.86,-1.02 21.46,-4.83 40.83,-3.34 40.84,-3.34 -9.74,-4.58 1.45,0.11 1.38,-0.06 1.31,-0.29 1.23,-0.57 -4.09,-1.4 -16.13,0.42 -2.06,0.44 -3.35,1.9 -5.36,0.96 -2.62,0.94 -2.56,0.43 -2.46,-1 -1.71,1.49 -1.82,-0.46 -2.04,-0.96 -2.39,-0.07 -0.85,1.14 -1.08,1.82 -1.01,0.79 -0.62,-1.95 -3.77,1.77 -7.71,-0.48 -2.89,1.4 -0.97,0 0,-1.79 -4.55,1.11 -0.8,0.68 0.35,1.22 1.25,0.6 1.58,0.13 1.36,-0.16 -3.04,0.97 -1.35,0.2 -1.94,-0.28 -0.45,-0.33 -0.56,-0.61 -0.83,-0.58 -1.24,-0.26 -4.06,0 -1.98,0.23 -2.65,1.15 -1.62,0.4 -1.07,-0.34 -0.65,-0.86 -0.58,-0.6 -1.62,0.91 -3.3,0.89 0,0.98 0.65,1.42 -1.34,0.91 -2.32,0.4 -2.34,-0.13 -2.12,-0.55 -1.18,-0.78 -0.19,-1.24 0.81,-1.9 3.2,-1.91 4.86,-2.05 2.62,-2.33 -3.54,-2.68 3.35,-0.1 2.76,-0.63 2.18,-1.62 1.62,-3.02 0.8,0 0,1.6 -0.41,1.25 -0.85,0.93 -1.34,0.61 0,0.98 1.18,0.17 0.73,0.44 0.41,0.81 0.28,1.27 -1.94,-0.1 -1.42,-0.43 -1.28,-0.15 -1.53,0.68 0.56,0.8 1.01,0.82 1.13,0.69 0.87,0.39 0.9,0 1.27,-1.19 2.43,-1.11 2.8,-0.18 2.41,1.58 3,-2.37 1.79,-0.85 2.36,-0.46 0,-0.81 -1.06,-0.5 -0.54,-0.79 0.05,-1.04 0.74,-1.25 1.46,2.03 0.63,1.11 0.51,1.25 9.28,0.42 2.49,0.57 -0.48,-1.39 -0.83,-0.86 -1.1,-0.18 -1.24,0.63 0.52,-2.44 1.85,-0.91 4.84,-0.23 -0.29,0.47 -0.13,0.1 -0.16,0.03 -0.39,0.3 1.32,1.52 1.36,-0.46 1.37,-1.22 1.38,-0.74 1.19,0.39 1.67,1.02 1.57,1.21 0.94,0.96 1.02,-1.3 2.07,-1.66 0.81,-2.06 1,-0.04 1.18,0.58 0.97,0.9 1.53,-1.39 1.45,-0.24 3.35,0.65 -0.25,0.59 -0.38,1.5 -0.26,0.6 1.92,0.4 1.74,-0.67 3.56,-2.42 0.95,1.13 0.92,0.62 0.85,-0.01 0.76,-0.76 1.8,0.86 1.4,-0.41 1.4,-0.9 1.73,-0.53 3.73,1.94 2.41,0.64 1.08,-1.15 1.22,-0.39 2.73,0.8 2.86,1.29 1.64,0.94 2.16,0.96 2.36,-0.51 2.25,-1.3 1.74,-1.34 -1.86,-1.88 -1.66,0.72 -2.16,0.14 -2.05,-0.49 -1.27,-1.18 1.49,-0.42 3.05,-0.48 1.45,0.73 1.55,0.26 1.43,-0.22 1.02,-0.77 1.56,0.56 1.1,-0.79 0.64,-1.59 0.18,-1.84 0.89,0 -0.07,1.35 0.16,1.1 0.35,1.03 0.54,1.08 0.37,-0.55 0.79,-0.58 0.62,-0.58 0.33,1.74 1.2,1.28 1.54,0.89 1.39,0.49 2.04,0.25 1.35,-0.06 1.22,0.51 1.64,1.98 0.98,0 1.66,-0.83 2.2,0.48 2.02,0.18 1.17,-1.7 -2.26,-1 -1.97,-2.11 -3.31,-4.46 -2.79,-2 -0.38,-0.74 0.48,-1.17 1.1,-0.21 1.22,0.37 0.86,0.57 1.42,-0.52 1.42,0.17 1.09,0.7 0.44,1.03 0.29,1.9 1.5,4.37 0.93,1.58 1.68,0.99 0.81,1.14 -1.72,2.07 -1.43,0.54 -3.51,-0.48 -2.04,-0.06 0.37,0.7 0.22,1.31 0.31,0.85 -4.74,-2.54 -2.94,-1.15 -1.33,0.43 -0.9,-0.02 -4.52,-1.86 -1.8,-0.4 0,0.89 0.61,0.75 0.15,0.92 -0.35,0.78 -0.85,0.33 -1.1,-0.38 -0.94,-0.93 -1.89,-2.36 -1.42,1.99 -2.42,1.23 -2.76,0.28 -2.42,-0.82 1.95,2.96 4.08,1.24 9.15,1.19 5.87,3.19 1.75,0.47 5.32,-0.18 2.53,0.26 1.56,0.9 0.98,0 0.37,-1.65 0.73,-1.89 1.04,-1.7 1.34,-1.11 -0.97,1.71 1.3,1.11 0.21,0.9 -0.31,0.93 -0.23,1.21 0.45,0.68 1.03,0.34 4.13,0.82 6.08,0.37 12.19,2.59 0.02,-0.01 14.5,-7.56 3.32,-2.92 -0.05,-0.75 -0.19,-0.64 -0.25,-0.59 -0.37,-0.51 -0.43,-0.48 -2.48,-2.07 -0.41,-0.47 -0.36,-0.53 -0.23,-0.61 -0.16,-0.67 -0.08,-0.74 0,-0.76 1.05,-5.85 -0.92,-9.37 0.09,-3.11 0.38,-1.43 2.43,-5.48 1.2,-3.53 0.18,-1.3 0,-1.04 -0.22,-0.69 -0.28,-0.58 -0.32,-1.02 -0.66,-5.86 -0.23,-1.12 -0.28,-0.59 -0.4,-0.53 -0.52,-0.34 -0.65,-0.34 -0.53,-0.57 -0.13,-1.36 0.7,-10.35 0.39,-0.98 1.51,-1.65 0.54,-1.08 0.08,-0.65 -0.55,-1.09 -2.01,-2.59 -1.67,-1.26 -1.44,-0.83 -0.96,-1.41 -0.35,-3.17 0.03,-0.86 -32.78,-9.01 -0.85,-0.13 -1.03,0.19 -1.17,0.43 -9.59,6.2 -5.49,5.76 -1.64,1.39 -1.51,0.61 -1.05,0.25 -1.96,0.89 -2.67,3.89 0.86,14.77 -0.09,0.87 -0.24,0.92 -1.39,1.34 -49.19,2.69 -4.22,-0.18 -3.86,-1.7 -6.15,-3.46 -2.05,-1.45 -1.26,-1.53 0.58,-2.01 -3.19,-6.74 -25.81,-16.69 25.64,-48.1 -31.19,-7.63 -3.19,3.78 -3.03,1.35 -3.76,0.25 -4.11,-0.21 -1.24,-0.44 -0.7,-0.11 -1.15,-0.31 -0.62,-0.23 -2.02,-0.46 -1.86,-0.16 -1.1,0.08 -7.99,2.39 -1.25,0.17 -3.5,-0.08 z" 
                fill="rgb(151, 144, 238)" 
                stroke="white" 
                stroke-width=".7px"
                title="Lagunes" 
                id="CI-LG" 
            />
        </svg>