<svg xmlns="http://www.w3.org/2000/svg" viewBox="284.07000000000005 395.07 135.41000000000003 165.37000000000018" width="135.41000000000003" height="165.37000000000018">
            <path 
                d="m 377.21,427.93 1.29,-0.26 0.55,-0.32 0.41,-0.41 0.26,-0.62 -0.38,-1.63 -0.89,-2.32 -2.48,-5.07 -1.47,-1.93 -1.23,-1.09 -0.8,-0.18 -0.69,-0.23 -0.59,-0.33 -0.45,-0.44 -0.28,-0.89 -0.16,-1.32 0.73,-8.75 -0.38,-2.22 -1.61,-4.85 -3.86,0.15 -1.37,0.26 -1.86,0.63 -2.51,1.7 -2.45,1.3 -2.4,0.87 -10.08,-3.96 -1.8,-0.4 -1.4,0.26 -4.23,3.09 -3.67,3.41 -0.45,1.45 -0.09,1.04 0.33,2.36 0.01,0.58 -0.46,0.85 -0.42,0.63 -3.81,2.33 -25.5,14.13 -1.78,1.46 -1.41,2.93 -0.94,3.34 -1.63,3.06 -6.95,10.52 -6.24,12.5 0.29,2.75 2.98,-1.16 1.43,-0.79 1.65,-0.5 1.22,0.17 1.23,1.04 0.97,1.07 0.8,1.1 0.86,0.66 1.18,0.51 1.94,0.1 4.4,0.8 3.54,0.04 2.68,-0.27 2.66,-0.67 0.81,-1.86 0.29,-2.01 -0.03,-3.75 0.14,-0.72 0.4,-0.5 1.25,-0.5 0.79,-0.13 1.77,-0.04 2.56,0.27 5.83,1.47 1.02,1.35 0.63,1.78 0.31,0.55 0.46,0.43 0.83,0.43 3.44,1.27 5.97,3.21 1.56,0.63 2.46,1.93 0.43,0.19 3.25,0.45 5.18,2.49 -1.4,1.61 -0.34,0.55 -0.27,1.01 -0.98,0.41 -1.73,0.34 -3.72,0.32 -2.87,0.5 -23.54,15.23 -1.66,1.75 -0.69,2.24 -0.29,2.26 -0.17,4.54 0.28,2.63 0.75,2.94 4.77,9.79 0.28,2.2 0.05,4.47 1.04,4.85 5.07,6.77 4.54,6.29 -0.5,3.21 0.86,4.51 6.28,6.58 39.33,4.09 3.86,-0.84 25.92,-17.66 3.98,-1.51 8.69,0.08 0.23,0 0.01,-0.15 0.45,-6.61 -0.51,-2.71 -1.34,-2.97 -1.41,-3.1 -0.29,-1.12 -6.4,-6.11 -1.27,-1.53 -0.75,-2.88 -3.57,-4.12 -1.12,-2.45 0.24,-2.42 2.73,-2.17 0.68,-2.23 0.23,-2.13 1.14,-3.74 0.41,-1.02 0.92,-1.54 1.34,-0.5 1.59,-0.79 0.53,-0.41 0.4,-0.5 0.07,-0.55 -0.31,-0.53 -2.57,-0.76 -0.63,-0.27 -0.55,-0.33 -0.57,-0.43 -0.58,-0.64 -0.65,-0.97 -0.4,-1.42 -0.07,-1.01 0.15,-0.8 0.72,-1.73 1,-3.78 -0.15,-0.79 -0.43,-0.66 -3.53,-1.36 -0.91,-0.24 -0.84,-0.09 -1.22,0.2 -0.69,0.27 -0.41,0.33 -0.54,0.34 -0.6,0.29 -0.7,0.18 -0.69,-0.01 -0.83,-0.16 -0.8,-0.36 -1.11,-0.79 -0.67,-0.75 -0.41,-1.38 -0.05,-0.83 -0.18,-0.79 -1.56,-1.03 -2.24,-1.83 -0.99,-0.35 -0.85,-0.08 -0.75,0.03 -0.67,-0.11 -0.62,-0.33 -0.5,-0.56 -0.84,-1.56 -0.19,-0.65 0.15,-0.55 0.73,-0.4 0.51,-0.4 0.34,-0.57 -0.25,-0.66 0.36,-1.17 0.41,-0.81 -0.19,-0.8 -0.88,-1.55 -0.66,-0.83 -0.76,-0.52 -1.94,-0.71 -0.53,-0.37 -0.45,-0.44 -0.43,-0.5 -0.97,-0.85 -0.29,-0.54 -0.1,-0.59 0.44,-0.67 1.06,-0.92 0.39,-0.56 0.09,-0.75 -0.23,-0.84 -1,-1.1 -1.28,-0.41 -0.48,-0.3 -0.78,-1.02 -0.26,-2.66 0.99,-8.44 -1.77,-2.21 -0.31,-0.49 -0.53,-2.47 1.16,0.01 z" 
                fill="rgb(151, 144, 238)" 
                stroke="white" 
                stroke-width=".7px"
                title="Marahoué" 
                id="CI-MR" 
            />
        </svg>