<svg xmlns="http://www.w3.org/2000/svg" viewBox="3.1086244689504383e-15 497.2900000000001 215.54 176.33000000000015" width="215.54" height="176.33000000000015">
            <path 
                d="m 106.68,513.95 -2.15,-0.18 -1.88,-0.4 -1.21,-1.15 -0.56,-0.86 -1.48,-4.18 -0.6,-1.22 -0.66,-0.58 -0.98,-0.54 -3.17,-0.91 -1.83,-0.3 -0.97,-0.43 -1.12,-0.71 -2.76,-2.55 -1.07,-0.8 -0.63,-0.4 -3.37,-1.45 -2.93,1.02 -5.16,4.95 -1.48,0.79 -1.08,0.24 -0.67,-0.18 -0.4,0.4 -0.33,0.67 -0.58,0.83 -0.72,0.46 -0.99,0.43 -0.17,0.42 0.41,0.9 -0.57,1.75 -1.06,2.23 -0.23,0.83 -0.02,0.66 0.2,0.49 0.42,0.12 0.48,0.09 0.33,0.43 1.25,3.21 -0.09,0.81 -0.54,0.32 -0.79,0.3 -1.04,0.58 -1.21,0.98 -1.53,0.89 -0.76,0.36 -0.72,1.02 -1.51,1.13 -0.28,0.55 -0.04,1.3 -0.46,2.68 -0.56,1.44 -1.02,1.03 -0.79,0.51 -0.75,0.07 -0.48,-0.29 -0.27,-0.5 -0.06,-0.56 -0.3,-0.4 -0.79,0.03 -2.62,1.61 -0.42,0.76 0.14,0.52 0.86,1.83 0.06,0.91 -0.46,0.34 -1.33,0.22 -0.62,0.18 -0.68,0.11 -1.37,-0.2 -0.32,0.28 0.28,1.08 0.04,0.73 -0.27,0.86 -0.08,0.72 0.11,0.7 0.02,0.63 -0.11,0.81 -0.95,0.48 -3.18,2.5 -0.88,0.14 -1.66,0.59 -1.05,0.52 -1.45,1.04 -0.96,-0.03 -1.21,-0.5 -12.81,-8.24 -0.88,-0.36 -2.57,2.88 -9.44,7.51 -1.78,2.15 -0.3,-0.02 -2.18,1.22 -0.14,0.04 0.14,0.2 -0.59,1.83 -0.27,0.57 -0.6,0.37 -1.58,0.26 -0.62,0.28 -3.22,4.09 2.21,0.14 1.27,0.27 3.14,-0.09 1.52,0.44 1.46,1.3 3.88,5.21 2.41,0.82 1.62,-1.35 1.03,-2.44 0.6,-2.43 0.63,-1.11 0.83,0.55 1.51,1.97 4.1,2.2 1.72,1.95 -0.18,0.77 -0.97,0.83 -0.67,2.18 0.23,1.24 1.18,2.4 0.3,1.01 -0.66,1.2 -1.2,0.67 -0.46,0.8 1.55,1.57 1.41,-1.37 1.6,-0.61 1.6,0.05 1.39,0.61 1.7,-1.44 1.35,0.54 1.26,1.44 1.39,1.25 0.63,-0.07 0.43,-0.6 0.55,-0.4 0.95,0.52 0.66,1.06 0.15,1.08 0,0.91 0.19,0.54 1.19,0.43 10.13,2.31 1.56,0.58 1.42,0.82 0.87,0.66 1.11,0.37 2.12,-0.02 1.8,-0.44 2.91,-1.63 1.53,-0.62 6.08,-0.85 3.54,-0.09 2.26,0.53 2.14,1.46 8.43,2 0.7,0.09 0.56,-0.23 0.61,-0.17 0.81,0.27 0.22,0.44 0.35,1.53 0.45,0.63 5.81,4.68 2.03,2.49 0.32,1.78 -1.73,5.07 -0.61,2.76 -0.32,2.98 0.35,2.66 1.43,1.83 0.05,-0.61 1.26,-0.68 1.63,-0.44 1.18,0.08 1.27,1.17 0.52,1.21 0.42,2.99 0.42,0.47 0.71,0.21 0.66,0.34 0.3,0.84 -0.28,0.7 -1.19,0.66 -0.29,0.61 -0.1,3.73 0.14,0.96 1.7,2.14 5.16,2.7 1.6,1.58 2.32,3.27 1.82,-0.94 1.53,-2.61 1.45,-1.73 0.84,0.68 1.43,1.66 1.93,1.55 2.32,0.35 0.19,0.49 2.7,1.47 0.36,0.08 2.82,1.24 0.66,0.85 -1.06,1.37 1.01,0.85 1.73,2.18 0.93,0.51 1.51,-0.73 1.62,-1.37 0.97,-0.4 -0.43,2.21 2.02,0.37 0.89,1.72 0.64,1.85 1.24,0.77 1.02,-1 0.65,-2.15 0.4,-3.9 4.19,1.83 0.59,4.55 -0.85,5.55 -0.13,4.82 2.42,10.3 1.71,3.45 2.39,-0.5 39.95,-7.76 1.63,-40.56 -0.61,-11.73 -1.46,-5.61 -1.75,-25.79 -0.61,-17.4 0.68,-4.14 1.47,-1.24 1.04,-0.69 0.91,-0.37 0.58,-0.15 0.56,-0.28 0.52,-0.39 0.44,-0.47 1.69,-2.49 0.31,-0.32 2.07,-1.2 0.63,-0.27 3.52,-0.83 1.01,-0.1 -1.19,-0.96 -0.44,-0.51 0.45,-2.26 4.09,-6.28 -0.39,-3.76 0.29,-1.76 0.31,-0.61 0.24,-0.65 0.15,-0.72 0.08,-0.76 -2.22,-11.26 -0.59,-1.55 -0.73,-1.28 -1.65,-2.05 -0.95,-0.92 -0.83,-0.68 -2.63,-0.95 -0.6,-0.3 -0.52,-0.55 -0.49,-0.73 -0.58,-1.15 -0.23,-1.03 -0.01,-1.06 0.59,-1.44 0.5,-0.8 0.5,-0.66 0.24,-1.34 -1.93,-2.9 -0.9,-0.04 -6.15,-1.06 -1.92,-0.8 -3.21,-2.17 -0.61,-0.31 -1.37,-0.05 -10.02,1.06 -4.43,-1.08 -0.8,-0.08 -1.78,-0.04 -12.27,2.04 -3.72,1.01 -1.34,0.2 -13.79,0.06 -8.42,1.29 -1.63,3.05 -0.23,0.92 -0.54,6.86 -1.76,0.37 -21.84,0.31 z" 
                fill="rgb(151, 144, 238)" 
                stroke="white" 
                stroke-width=".7px"
                title="Moyen-Cavally" 
                id="CI-MV" 
            />
        </svg>