<svg xmlns="http://www.w3.org/2000/svg" viewBox="629.5299999999994 447.17 92.35999999999979 206.41000000000014" width="92.35999999999979" height="206.41000000000014">
            <path 
                d="m 671.92,447.93 -2.1,-0.68 -0.45,-0.08 -0.63,0.13 -4.17,1.3 -1.25,1.95 0.29,2.9 0.93,-0.37 0.93,-0.53 0.12,0.45 -0.01,0.31 0.14,0.16 0.56,-0.02 -0.82,2.01 -1,0.67 -2.64,0.1 -3.43,0.7 -0.15,0.79 0.11,3.85 0.27,1.44 0.08,1.38 -0.44,1.66 -0.75,1.69 -0.53,0.8 -0.8,0.48 -1.58,0.71 -0.41,-2.22 -1.36,-0.43 -1.6,0.89 -1.09,1.76 0.02,1.62 1.21,4.27 0.55,1.31 1.14,1.35 1.43,0.67 3.77,0.67 0.06,-0.4 0.92,-0.58 1.09,-0.21 0.52,0.7 -0.12,0.94 -0.35,0.67 -0.57,0.45 -0.74,0.31 0.94,2.16 -1.71,0.14 -4.67,-1.48 -0.33,2.84 -1.7,1.23 -4.14,0.51 -2.38,1.01 -1.37,1.41 -1.07,1.55 -1.51,1.43 -4.87,0.81 -3.08,2.78 -0.73,3.37 1.25,2.14 1.25,0.11 0.83,-3 1.84,1.34 1.25,2.48 0.26,2.39 -1.12,1.06 -1.27,0.8 -1.76,1.93 -1.45,2.36 -0.35,2.11 1.11,0.71 2.17,1.88 1.3,1.91 -1.5,0.89 -0.3,0.95 -5.53,5.42 3.37,7.12 -0.21,2.84 -4.06,1.73 1.86,1.48 0.86,1.7 0.62,1.92 0.35,0.69 0.77,1.48 1.69,-0.56 1.88,-0.34 2.9,0.06 0.67,-0.06 1.89,-2.2 1.24,-0.69 1.34,1.09 0.28,1.7 -1.01,3.82 -0.08,1.67 0.5,0.87 1.63,1.27 0.54,0.55 0.31,1 0.37,2.18 0.62,0.91 0.6,1.27 0.78,5.96 -0.29,0.88 -0.64,0.75 -0.65,0.6 -0.29,0.46 0.15,1 0.34,0.75 0.34,0.56 0.15,0.39 0.54,0.84 2.58,2.58 0.86,0.54 1.37,6.36 2.77,-0.43 2.46,0.81 2.09,-0.07 1.69,-3 5.45,6.12 2.98,4.39 1.89,5.34 0.88,1.25 -0.19,0.71 -2.57,0.23 -0.74,0.52 0.28,1.08 0.64,0.98 0.67,0.41 0.91,1.4 0.72,1.49 -0.21,0.49 1.48,0.17 0.66,-2.16 1.43,-0.79 1.69,0.86 2.18,4.53 1.04,1.06 0.45,6.65 -0.83,1.61 -1.75,1.13 -1.61,1.44 -0.36,2.55 0.77,-0.35 2.07,-0.54 -0.27,0.6 -0.44,1.46 -0.27,0.63 2.12,1.18 1.37,2.17 0.19,2.65 -1.44,2.61 -1.21,0.64 -1.35,0.26 -1.09,0.49 -0.45,1.3 -0.11,1.71 -0.32,1.45 -4.23,8.14 -0.54,2.32 -0.12,2.65 -0.03,0.86 0.35,3.17 0.96,1.41 1.44,0.83 1.67,1.26 5.27,-1.38 0.65,-0.26 0.5,-0.38 0.41,-0.5 9.53,-15.68 7.85,-19.04 1.24,-2.07 1.23,-1.06 0.86,-0.91 0.37,-0.57 0.31,-0.87 0.26,-1.22 -0.12,-1.55 -0.46,-2.65 -0.01,-0.79 1.26,-3.31 5.14,-9.43 0.01,-0.02 -1.55,-1.89 -10.32,-46.47 0.19,-2.21 0.94,-1.38 2.41,-1.33 0.71,-0.86 2.56,-7.23 -0.3,-0.88 -1.76,-3.41 -1.64,-2.11 -0.57,-1.33 0.19,-4.76 2.18,-5.07 15.08,-25.94 1.61,-1.01 0.09,-0.06 0,-0.06 -0.17,-2.43 -5.43,-10.42 -1.53,-1.74 -2.07,-1.84 -4.39,-2.7 -2.94,-2.28 -1.57,-0.95 -9.48,-2.94 -2.79,-0.41 -1.67,0.08 -1.08,1.75 -0.77,1.03 -0.49,0.42 -0.65,0.09 -0.78,-0.31 -2.13,-2.5 -1.3,-1.18 -0.48,-0.56 -0.38,-0.59 -0.26,-0.56 -1.99,-6.72 -0.53,-0.67 -0.8,-0.68 -1.6,-0.83 -0.83,-0.54 -0.73,-0.25 -0.63,0.22 -0.53,0.04 -1.15,-0.72 -0.82,0.23 z" 
                fill="rgb(151, 144, 238)" 
                stroke="white" 
                stroke-width=".7px"
                title="Moyen-Comoe" 
                id="CI-MC" 
            />
        </svg>