<svg xmlns="http://www.w3.org/2000/svg" viewBox="218.47999999999996 0 412.92000000000024 291.36" width="412.92000000000024" height="291.36">
            <path 
                d="m 308.88,0 -3.14,0.43 -3.08,1.34 -2.44,1.69 -2.55,1.2 -3.38,-0.11 -2.68,-0.43 -2.84,0.15 -2.25,1.1 -0.91,2.42 -0.25,5.22 0.68,1.82 1.52,0.97 1.62,0.78 0.97,1.24 -0.46,3.11 -2.45,1.67 -3.2,0.57 -2.74,-0.17 -7.12,-1.42 -2.11,-0.72 -5.3,-2.86 -2.68,-1.83 -1.97,-1.8 -2.66,-4.6 -1.71,-1.1 -2.89,0.95 0.17,0.43 -1.84,3.13 -0.29,0.11 -0.63,2.49 -0.27,2.45 0.24,1.13 0.47,0.92 0.37,1.07 -0.65,6.05 -1.28,4.28 0.23,2.27 1.66,2.59 0.98,0.51 1.44,0.44 1.39,0.6 0.81,0.98 -0.02,1.44 -0.67,1.17 -0.86,1.02 -0.57,0.98 -0.56,4.28 1.58,1.55 2.23,4.74 0.9,1.38 0.53,2.16 0.03,1.04 -0.35,1.7 -0.07,0.81 0.13,0.85 0.31,0.88 1.11,1.12 0.79,0.62 4.11,1.22 0.17,0.83 -0.59,2.88 -0.07,1.65 0.35,2.28 -0.08,0.68 -0.42,0.45 -0.48,0.41 -10.65,5.81 -5.2,1.69 -1.46,0.24 -0.8,0.03 -0.99,-0.16 -1.05,-0.35 -1.42,-0.77 -1.54,-1.39 -1.35,-2.48 -4.89,0.89 -1.75,-0.15 -3.53,0.59 -2.34,1.18 -1.53,1.96 1.02,1.22 0.12,0.65 -0.08,1.04 -0.42,1.09 -1.11,1.74 -0.55,1.28 -0.26,1.7 0.01,1.05 -0.35,1.14 -0.31,0.74 -2.77,2.59 -1.02,1.19 -2.26,3.46 -0.2,0.63 0.05,0.63 0.65,0.59 0.78,0.26 0.83,0.17 16.61,-0.54 0.79,0.05 0.77,0.17 0.64,0.32 0.53,0.43 0.45,0.72 1.01,2.52 0.56,0.83 0.56,0.58 0.52,0.35 0.48,0.4 0.41,0.64 0.32,0.83 0.81,3.3 0.33,0.59 0.74,1.04 0.17,0.69 -0.05,0.82 -0.77,1.26 -0.62,0.68 -0.54,0.89 -0.47,1.32 -0.38,2.57 -0.63,2.09 -0.11,1.23 0.51,0.76 1.26,0.8 0.54,0.45 0.34,0.57 0.02,0.77 -0.24,0.89 -0.69,1.13 -0.42,0.91 0.07,1.29 0.32,0.75 0.4,0.64 0.2,0.56 -0.12,0.64 -0.87,0.73 -0.61,0.72 -0.43,0.92 -0.19,1.55 -0.25,1.07 -1.99,2.49 -0.36,0.56 -0.81,2.29 -1.55,6.47 2.39,1.4 0.82,0.8 1.14,1.58 1.79,1.51 0.78,0.51 0.35,0.36 0.17,0.86 -0.08,1.11 -0.52,1.75 -0.53,0.86 -0.62,0.56 -0.64,0.26 -0.57,0.32 -0.42,0.51 -0.23,0.72 -0.31,1.58 -0.26,0.7 -0.35,0.56 -0.41,0.39 -0.31,0.47 -0.03,0.53 0.15,0.87 0.57,1.51 0.25,0.98 -0.19,1.12 -1.14,1.73 0.05,1.69 0.47,2.49 1.55,5.47 1.88,3.43 0.47,0.44 0.35,0.52 0.87,1.06 0.52,0.4 0.26,1.35 -0.14,2.17 -1.5,7.53 -0.12,1.81 1.04,1.86 0.23,1.02 0.04,0.78 -1.08,3.72 4.69,0.62 -1.03,0.85 -0.14,1.27 1.52,1.7 0.97,0.91 0.5,0.28 0.74,0.25 11.13,0.8 1.18,-0.4 1.34,-0.77 2.3,-1.97 0.77,-1.2 0.22,-0.95 -1.15,-2.47 -0.16,-0.67 -0.03,-0.73 0.17,-0.68 0.3,-0.61 0.39,-0.5 0.48,-0.39 0.79,-0.32 1,-0.21 1.81,0 1.03,0.19 0.77,0.35 1.38,1.31 0.74,1.1 0.46,0.95 1.07,2.85 0.65,1.13 0.74,1.05 0.93,0.97 0.55,0.4 0.61,0.31 0.71,0.18 1.17,-0.53 1.43,-1.14 2.63,-3.03 2.37,-3.3 0.73,-0.59 1.48,-0.62 0.98,-0.07 0.93,-0.2 0.73,-0.52 0.77,-1.43 0.74,-2.94 0.56,-1.33 0.34,-0.56 1.32,-0.97 3.58,-0.7 2.57,0.68 0.74,0 1,0.11 1.53,0.32 2.77,1.66 3.14,3.98 0.55,1.12 0.1,0.78 0.01,0.78 -0.15,0.75 -0.3,0.63 -0.42,0.55 -1.44,1.32 -0.8,1.02 -1.92,3.64 -0.2,0.76 -0.1,0.76 0.02,0.79 0.11,0.68 0.22,0.68 0.6,1.24 1.35,1.99 0.37,0.71 0.71,2.01 0.26,0.49 0.3,0.41 0.02,0.03 0.02,0.04 8.52,5.52 2.54,1.25 0.62,0.48 0.48,0.66 0.29,1.16 0.19,1.72 0.19,0.7 2.31,4.78 19.92,31.27 1.04,0.6 26.94,9.93 17.24,4.19 1.05,-1.07 -0.07,-1.11 -0.23,-0.7 -0.52,-0.41 -0.67,0 -0.63,0.12 -0.68,0 -0.52,-0.28 -0.49,-0.35 -0.39,-0.38 -0.32,-0.48 -0.11,-0.68 0.02,-0.77 0.13,-0.76 0.05,-3.66 -0.32,-0.69 -0.46,-0.5 -0.58,-0.35 -0.65,-0.27 -0.69,-0.18 -0.7,-0.1 -0.71,0.1 -0.59,0.29 -1.06,0.7 -0.59,0.09 -0.5,-0.23 -1.33,-1.37 -0.37,-0.51 -0.12,-0.72 -0.05,-2.14 0.2,-0.46 0.59,-0.16 0.52,-0.33 0.24,-1.11 0.04,-0.95 0.43,-2.46 -0.14,-0.84 -0.27,-0.69 -0.38,-0.53 -0.17,-0.58 0.11,-0.61 0.78,-0.53 1.43,-0.03 0.62,-0.19 0.44,-0.41 -0.04,-0.8 -0.44,-0.46 -1.23,-0.62 -0.34,-0.55 -0.41,-1.41 -0.37,-0.56 -0.52,-0.39 -0.63,-0.22 -0.68,0.15 -0.57,0.52 -0.43,0.98 -0.63,0.59 -0.4,-0.02 -0.18,-0.75 0.06,-1.13 1.32,-4.74 1.84,-4.6 0.69,-0.95 1.04,-0.25 0.82,0 0.76,0.21 1.05,0.7 0.69,0.22 2.43,0.23 1.44,0.33 0.73,0 0.67,-0.16 0.68,-0.21 1.2,-0.55 0.55,-0.34 0.5,-0.39 1.85,-1.81 0.5,-0.4 0.59,-0.27 0.68,-0.22 1.42,-0.31 2.31,-0.19 0.86,0.07 1.06,0.21 1.22,0.68 1.42,0.13 0.71,-0.04 0.77,-0.49 1.24,0.05 1.32,-0.48 0.9,-0.27 0.97,-1.35 -0.23,-1.66 -0.78,-0.25 -1.9,-1.31 -1.37,-1.45 0.85,-0.68 3.38,-1.03 -0.73,-5.11 3.23,-1.99 -1.91,-1.54 -0.77,-0.36 0,-0.82 1.41,-0.09 1.38,0.13 1.29,0.32 1.19,0.46 -2.16,-3.99 -7.84,-5.13 0.19,-3.53 2.94,0.49 2.01,-1.82 1.35,-2.98 1.61,-5.81 0.03,-2.27 -0.79,-1.99 -1.79,-1.97 3.98,0.24 2.49,-2.42 1.27,-3.92 0.37,-4.26 0.8,-3.48 1.95,-3.52 4.39,-5.34 2.86,0.7 5.98,-0.94 1.6,0 0.75,0.16 0.76,0.72 0.8,1.2 3.17,7.66 0.36,0.7 0.54,0.66 1.06,0.75 0.91,0.29 0.89,0.09 0.68,-0.2 0.59,-0.3 0.47,-0.38 0.99,-1 0.77,-0.95 0.61,-0.4 1.04,-0.24 13.41,2.28 1.96,0.58 1.49,0.74 0.4,1.54 0.49,4.06 -0.01,1.83 0.1,0.97 0.28,1.01 0.72,1.33 0.46,0.62 1.3,1.23 0.41,0.52 0.33,0.57 1.52,3.88 0.66,0.86 0.71,0.56 0.68,0.24 1.24,0.58 1.44,1.28 0.61,0.28 1.97,0.31 0.6,0.25 1.06,0.62 1.27,0.21 0.53,0.32 0.45,0.43 0.36,0.56 0.2,1.07 0.04,1.53 -1.72,12.1 0.01,0.08 0.03,0.08 0.08,0.23 -0.17,0.91 -0.52,1.35 -1.7,2.52 -1.02,1.02 -0.94,0.39 -1,0.67 0,4.88 47.7,1.54 1.59,-0.82 1.53,-0.5 0.95,0 1.08,0.3 4.78,1.84 0.46,0.37 0.4,0.5 0.67,1.15 1.12,0.7 1.8,0.75 4.38,1.06 1.85,0.71 1.17,0.65 1.27,2.35 0.43,0.5 0.49,0.42 2.34,1.28 0.99,0.85 0.39,0.54 0.32,0.57 0.42,1.38 1.11,7.96 0.22,0.77 0.32,0.73 0.63,0.7 0.72,0.31 0.82,0.08 3.06,-0.69 0.98,-0.13 1.47,0 0.86,0.27 0.61,0.44 0.31,0.59 0.27,1.55 0.44,0.81 0.77,0.78 2.61,1.49 0.64,0.63 0.61,1.39 0.48,0.74 0.93,0.8 0.83,0.32 0.82,0.04 0.72,-0.14 1.42,-0.57 0.87,-0.25 1.31,-0.13 0.79,0.21 0.62,0.39 1.08,1.21 0.96,0.78 0.89,0.25 0.81,0.01 0.78,-0.14 0.69,-0.22 1.15,-0.03 1.48,0.07 2.89,0.65 1.55,0.14 1.18,-0.01 2.28,-0.6 1.06,-0.1 1.64,0.02 2.08,0.5 0.46,0.25 0.33,0.27 1.29,1.51 0.69,0.61 0.71,0.2 0.69,-0.09 2.05,-0.81 1.25,-0.34 1.93,-0.33 -0.71,-2 -1.3,-1.12 1.38,-4.75 1.3,-1.82 2.23,-0.74 3.93,-0.07 1.74,-0.5 1.1,-1.15 -2.07,-0.6 0.41,-1.14 2.47,-1.95 3.35,-5.35 0.75,-0.89 1.63,0.48 1.3,0.62 0.86,-0.51 0.31,-2.89 -0.61,-1.77 -1.46,-1.56 -1.81,-0.93 -1.64,0.15 -0.22,-0.48 0.02,-0.16 -0.08,-0.07 -0.53,-0.19 0.73,-0.87 0.32,-0.51 0.45,-0.29 1.18,-0.14 0,-0.98 -2.5,-2.09 -3.92,-4.63 -2.11,-1.86 -2.05,-3.21 1.01,-2.31 2.78,-1.7 3.22,-1.37 1.75,-0.28 1.9,-0.06 1.41,-0.56 0.29,-1.81 -1,-1.44 -1.96,-1.17 -2.16,-0.8 -4.65,-1.14 -0.97,-2.19 0.46,-2.92 1.27,-3.08 1.26,2 1.45,1.6 1.01,-0.21 -0.06,-3.39 -0.88,-2.05 -1.54,-0.01 -2.12,0.8 -2.68,0.36 0.25,-0.48 0.07,-0.08 0.15,0 0.5,-0.26 -1.83,-2.04 1.6,-4.43 -2.08,-0.85 -3.93,0.24 -0.98,-0.24 -0.55,-1.01 -0.26,-1.52 -0.42,-1.38 -1.01,-0.61 -1.41,-0.29 -2.67,-1.3 -5.36,-1.12 -3.5,-2.33 -3.57,-3.1 -0.72,0.62 -0.77,0.12 -0.93,-0.03 -1.23,0.12 -2.02,0.62 -2.44,1.27 -0.81,1.03 -0.09,0.95 -0.33,0.41 -1.53,-0.58 -0.45,-0.53 -0.59,-1.02 -0.51,-1.17 -0.24,-0.98 0.28,-2.13 0.63,-1.41 0.43,-1.45 -0.36,-2.25 -0.37,-0.53 -0.55,-0.39 -0.53,-0.61 -0.34,-1.18 0.05,-1.09 0.29,-0.89 0.32,-0.7 0.15,-0.49 0.16,-1.29 0.66,-1.36 0.16,-1.05 -0.28,-0.98 -1.23,-2.15 -0.65,-4.34 -1.04,-1.83 -3.54,-3.36 -0.83,-1.1 -0.41,-0.95 -0.13,-1.07 0,-1.41 -0.32,-1.46 -0.78,-0.79 -1.01,-0.55 -1.01,-0.78 -5.81,-7.82 -1.6,-0.67 -0.01,0.01 -3.55,-1.48 -2.01,-0.54 -0.39,2.09 0.03,2.17 -0.44,1.2 -1.79,-0.86 -0.88,-1.44 -1.12,-4.35 -1.17,-1.94 -3.17,-0.76 -4.68,0.23 -4.25,-0.43 -1.86,-2.75 0.3,-2.43 1.28,-3.43 0.29,-2.28 -0.31,-0.65 -0.78,-0.41 -1.02,-0.2 -2.38,0 -0.41,0.25 -0.11,0.52 -0.41,0.9 -0.64,1.82 -0.06,1.79 -0.49,1.37 -1.9,0.54 -1.52,-0.55 -1.88,-2.82 -1.48,-1.24 -1.69,1.76 -1.54,0.82 -1.62,0.22 -1.92,-0.01 0.14,0.34 -0.46,0.79 -0.86,0.89 -1.05,0.7 -1.07,0.47 -0.1,-0.1 0.04,-0.52 -0.66,-0.75 -1.77,-0.73 -0.7,-0.56 -0.28,-1.02 -0.19,-1.39 -0.49,-0.87 -1.51,-1.36 -0.74,-0.95 -0.43,-0.71 -0.66,-0.47 -1.34,-0.18 -1.31,0.16 -0.46,0.45 0.22,0.61 0.74,0.68 -1.98,0.37 -1.73,-2.78 -1.73,0.51 -0.38,-1.06 -0.25,-0.52 -1.16,-1.05 0,-0.99 1.27,0.09 1.11,-0.16 2.09,-0.75 -1.24,-2.23 -0.64,-3.01 -1.07,-2 -2.49,0.81 -0.88,-2.72 -1.86,-1.66 -2.59,-0.83 -3.06,-0.22 -1.09,-0.28 -0.45,-0.63 -0.59,-0.62 -1.49,-0.28 -1,0.6 -0.69,1.2 -0.74,0.86 -1.13,-0.4 -3.85,-3.59 -0.16,-1.5 1.88,-5.45 -0.25,-0.84 -1.42,-3.1 -1.47,-1.93 -0.58,-1.34 2.77,-0.1 0.49,-1.79 -0.9,-2.44 -1.46,-2.02 -1.59,-1.02 -1.72,-0.83 -1.4,-1.27 -0.66,-2.4 -1.3,1.11 -1.53,0.67 -1.45,-0.22 -1.07,-1.56 1.78,-0.82 -0.85,-0.27 -0.75,-0.36 -0.86,-0.27 -1.1,-0.01 1.19,-1.1 3.06,-1.07 -0.24,-1.04 -3.3,-2.19 -0.79,-1.35 0.89,-2.4 -3.5,0.15 0.07,-1.45 1.12,-2.4 -0.37,-2.73 -0.38,0.88 -0.6,0.86 -0.77,0.68 -0.93,0.31 -1.59,-0.15 -0.15,-0.59 0.5,-0.77 0.34,-0.72 0,-7.3 -0.96,-1.98 -0.1,-0.06 -2.06,-1.36 -2.14,-0.18 -0.97,1.76 -1.17,0.14 -6.43,-3.81 -2.08,0.57 -6.05,-0.9 -2.2,-0.08 -0.98,0.62 -0.66,0.92 -0.83,0.82 -1.51,0.36 -1.5,0.05 -0.68,-0.12 -0.58,-0.38 -0.67,-0.3 -0.49,0.51 -0.49,0.75 -0.62,0.4 -2.64,-0.1 -2.2,-0.54 -1.79,-0.93 -1.4,-1.24 -0.41,-0.8 -0.44,-1.19 -0.57,-1.08 -0.78,-0.47 -1.21,-0.06 -0.9,-0.16 -1.86,-0.68 -0.15,-2.31 -1.59,-3.36 -2.3,-3 -2.29,-1.32 -3.54,-1.35 -2.88,-1.89 -1.66,-0.59 -1.26,0.05 -3.63,0.93 -7.29,0.72 -16.83,3.72 -9.38,4.98 -1.99,1.46 -1.51,2.23 -0.54,2.42 0.56,7.28 -1.53,1.15 -6.09,-2.14 -1.54,1.21 -0.46,3.32 -0.91,2.83 -1.55,2.54 -2.46,2.43 -11.69,0.08 -9.88,-3.53 -1.75,-1.1 -2.58,-3.15 -1.41,-0.95 -1.98,0.41 -0.44,-4.93 0.35,-1.8 1.61,-1.79 0.32,0.21 0.62,0.55 0.89,0.34 1.07,-0.4 0.28,-0.7 -0.18,-0.87 -0.32,-0.79 -0.06,-0.46 3.19,-3.57 -1.94,-1.59 0.4,-2.44 1.97,-4.12 -2.13,-2.52 -0.45,-1.28 0.28,-1.14 1.4,-2.4 0.22,-0.79 -0.59,-1.3 -0.76,-0.47 -1.05,0.04 -1.5,0.23 -0.89,-0.26 -0.75,-0.79 -0.69,-0.94 -0.68,-0.68 -1.17,-0.15 -1.1,0.3 -0.69,-0.33 0.05,-2 0.61,-1.08 2.4,-1.95 0.85,-1.11 0.18,-1.57 -0.37,-1.6 -0.76,-1.85 1.04,-1.19 1.43,-0.65 1.31,-0.79 0.69,-1.57 -0.44,-1.06 -1.18,-1 -1.42,-0.77 L 310.1,9.16 309.73,8.1 310.38,2.61 310.2,0.76 308.88,0 Z" 
                fill="rgb(151, 144, 238)" 
                stroke="white" 
                stroke-width=".7px"
                title="Savanes" 
                id="CI-SV" 
            />
        </svg>