<svg xmlns="http://www.w3.org/2000/svg" viewBox="335.59000000000003 593.9399999999999 145.62 158.45999999999992" width="145.62" height="158.45999999999992">
            <path 
                d="m 441.12,596.02 -6.05,-1.64 -2.86,-0.44 -25.19,8.84 -29.23,-3.87 -3.67,7.42 -0.78,2.83 0.54,4.78 0.65,2.79 0,1.22 -3.61,6.71 0.19,2.38 -0.19,2.44 -0.45,0.89 -0.74,0.9 -1.78,1.21 -1.2,0.41 -1.03,0.12 -6,5.5 -24.13,28.48 0.85,1.43 0.71,0.78 0.51,0.74 0.5,0.56 1.35,2.19 -0.07,1.32 -0.2,0.67 -0.29,0.56 -0.19,0.64 0.02,0.69 0.17,1.47 0.26,0.6 0.3,0.54 0.24,0.59 0.58,2.67 0.33,0.57 0.39,0.5 0.83,0.89 0.55,0.74 0.48,0.42 0.79,0.45 1.33,0.56 0.57,0.68 0.38,0.72 0.34,0.48 2.05,-0.28 16.35,-5.59 11.09,37.24 -1.15,8.39 -10.51,2.66 -1.26,0.55 -1.09,0.71 -1.31,1.37 -0.46,0.78 -0.45,1.03 -0.58,2.09 -0.06,1.61 1.78,13 0.09,0.39 0.01,0 0.96,-0.3 28.9,-4.36 10.42,-3.22 -0.94,-0.09 -2.71,-0.8 3.65,-2.68 3.36,1.99 3.81,0.59 8.8,-0.47 0,-0.01 -1.91,-17.65 0.95,-3.47 1.67,0.27 1.4,0.46 1.18,0.64 6.78,5.79 1.46,0.99 1.85,0.85 0.2,0.06 -0.53,-0.79 -0.2,-0.4 -1.08,0.3 0.07,-0.4 -0.07,-1.38 1.47,0.74 0.41,0.15 -0.56,-1.59 0.13,-1.26 0.75,-0.54 1.38,0.62 0.8,0 1.95,-0.29 2.49,1.09 2.33,0.69 1.43,-1.49 0.82,0 0.23,0.32 0,0 0.01,-0.02 1.24,-0.56 8.17,-0.69 1.77,0 1.22,0.22 1.86,1.43 1.46,0.52 0.95,0.01 0.75,-0.22 0.53,-0.42 0.52,-0.54 0.6,-0.84 4.62,-10.12 0.14,-0.74 0.05,-0.8 -0.23,-3.1 0.05,-0.93 0.14,-1 0.43,-1.41 8.27,-19.87 1.42,-4.82 0.31,-1.81 0.03,-1.64 -0.58,-2.78 -0.23,-0.68 -1.2,-2.3 -0.69,-1.06 -0.27,-0.58 -0.11,-0.66 0.27,-1.08 7.24,-18.71 -6.46,-12.31 -1.59,-10.19 -0.61,-16.16 -0.5,-2.77 -1.35,-1.2 -1.96,-0.67 -13.4,-1.59 -5.29,-2.15 -8.93,-8.5 z" 
                fill="rgb(151, 144, 238)" 
                stroke="white" 
                stroke-width=".7px"
                title="Sud-Bandama" 
                id="CI-SB" 
            />
        </svg>