<svg xmlns="http://www.w3.org/2000/svg" viewBox="369.03999999999974 177.89000000000004 245.08000000000027 285.25" width="245.08000000000027" height="285.25">
            <path 
                d="m 448.55,190.12 -0.89,-0.09 -0.91,-0.29 -1.06,-0.75 -0.54,-0.66 -0.36,-0.7 -3.17,-7.66 -0.8,-1.2 -0.76,-0.72 -0.75,-0.16 -1.6,0 -5.98,0.94 -2.86,-0.7 -4.39,5.34 -1.95,3.52 -0.8,3.48 -0.37,4.26 -1.27,3.92 -2.49,2.42 -3.98,-0.24 1.79,1.97 0.79,1.99 -0.03,2.27 -1.61,5.81 -1.35,2.98 -2.01,1.82 -2.94,-0.49 -0.19,3.53 7.84,5.13 2.16,3.99 -1.19,-0.46 -1.29,-0.32 -1.38,-0.13 -1.41,0.09 0,0.82 0.77,0.36 1.91,1.54 -3.23,1.99 0.73,5.11 -3.38,1.03 -0.85,0.68 1.37,1.45 1.9,1.31 0.78,0.25 0.23,1.66 -0.97,1.35 -0.9,0.27 -1.32,0.48 -1.24,-0.05 -0.77,0.49 -0.71,0.04 -1.42,-0.13 -1.22,-0.68 -1.06,-0.21 -0.86,-0.07 -2.31,0.19 -1.42,0.31 -0.68,0.22 -0.59,0.27 -0.5,0.4 -1.85,1.81 -0.5,0.39 -0.55,0.34 -1.2,0.55 -0.68,0.21 -0.67,0.16 -0.73,0 -1.44,-0.33 -2.43,-0.23 -0.69,-0.22 -1.05,-0.7 -0.76,-0.21 -0.82,0 -1.04,0.25 -0.69,0.95 -1.84,4.6 -1.32,4.74 -0.06,1.13 0.18,0.75 0.4,0.02 0.63,-0.59 0.43,-0.98 0.57,-0.52 0.68,-0.15 0.63,0.22 0.52,0.39 0.37,0.56 0.41,1.41 0.34,0.55 1.23,0.62 0.44,0.46 0.04,0.8 -0.44,0.41 -0.62,0.19 -1.43,0.03 -0.78,0.53 -0.11,0.61 0.17,0.58 0.38,0.53 0.27,0.69 0.14,0.84 -0.43,2.46 -0.04,0.95 -0.24,1.11 -0.52,0.33 -0.59,0.16 -0.2,0.46 0.05,2.14 0.12,0.72 0.37,0.51 1.33,1.37 0.5,0.23 0.59,-0.09 1.06,-0.7 0.59,-0.29 0.71,-0.1 0.7,0.1 0.69,0.18 0.65,0.27 0.58,0.35 0.46,0.5 0.32,0.69 -0.05,3.66 -0.13,0.76 -0.02,0.77 0.11,0.68 0.32,0.48 0.39,0.38 0.49,0.35 0.52,0.28 0.68,0 0.63,-0.12 0.67,0 0.52,0.41 0.23,0.7 0.07,1.11 -1.05,1.07 0.7,2.18 10.72,6.16 -1.45,1.62 -1.17,0.5 -3.22,-0.24 -2.43,-0.83 -1.18,-0.15 -1.18,0.28 -1.22,0.62 -0.7,0.62 0.42,0.28 1.19,1 3.67,4.4 1.43,1 0.61,0.28 0.47,0.62 0.59,0.62 1.04,0.28 4.51,0 0.63,0.37 0.26,0.83 0.14,0.9 0.27,0.53 6.3,1.49 0.84,0.31 2.67,1.89 1.49,0.71 0.65,0.42 0.54,0.59 1.34,2.9 0.53,0.79 1.46,0.74 1.86,0.52 1.73,1.04 1.12,2.29 -2.68,0 2.43,6.43 0.25,3.37 -1.79,2.83 -1.96,0 -1.91,0.09 -1.77,0.61 1.45,3.1 -0.27,1.83 -1.03,1.19 -1.65,-0.43 -0.99,1.81 -1.81,-0.91 -2.18,-0.58 -1.9,0.37 -1.07,2.02 -2.13,-0.55 -3.89,-0.09 -1.46,0.42 -0.73,0.3 0.16,2.04 -0.08,1.09 -0.4,0.76 -0.76,0.84 -7.61,5.02 -3.39,1.47 -5.62,0.91 -4.39,-0.32 -1.23,0.04 -1.98,0.24 -1.17,0.39 -0.01,0.04 -0.02,0.02 -1.17,6.2 0.04,1.26 0.56,2.38 0.46,1.34 0.17,0.75 0.02,0.81 -0.1,0.75 -0.39,1.43 -0.53,1.28 -1.9,2.6 -0.27,0.61 -0.57,2.2 -0.05,0.8 0.1,1.65 0.33,1.44 0.69,2.02 -0.1,1.01 -0.38,1.18 -1.29,1.93 -0.71,0.85 -2.18,1.31 1.61,4.85 0.38,2.22 -0.73,8.75 0.16,1.32 0.28,0.89 0.45,0.44 0.59,0.33 0.69,0.23 0.8,0.18 1.23,1.09 1.47,1.93 2.48,5.07 0.89,2.32 0.38,1.63 -0.26,0.62 -0.41,0.41 -0.55,0.32 -1.29,0.26 -1.16,-0.01 0.53,2.47 0.31,0.49 1.77,2.21 -0.99,8.44 0.26,2.66 0.78,1.02 0.48,0.3 1.28,0.41 1,1.1 0.23,0.84 -0.09,0.75 -0.39,0.56 -1.06,0.92 -0.44,0.67 0.1,0.59 0.29,0.54 0.97,0.85 0.43,0.5 0.45,0.44 0.53,0.37 1.94,0.71 0.76,0.52 0.66,0.83 0.88,1.55 0.19,0.8 -0.41,0.81 3.83,0.48 2.14,-0.04 15.04,-3.76 5.43,-2.28 0.92,-0.17 0.97,0.05 1.17,0.49 0.81,0.66 0.63,0.74 2.64,3.84 2.29,2.53 0.77,0.58 0.8,0.43 0.83,0.28 0.99,0.04 1.21,-0.17 4.12,-1.11 0.86,-0.02 2.46,0.4 0.92,-0.24 0.99,-0.65 2.42,-3.08 1.01,-1.02 1.59,-0.73 1.06,-0.11 0.96,0.03 0.77,-0.25 0.73,-0.88 1.39,-3.1 2.38,-2.68 14.66,-7.12 1.35,-1.12 0.81,-0.98 0.29,-0.83 0.82,-1.68 0.52,-0.81 0.62,-0.76 0.73,-0.73 0.85,-0.66 1.83,-1.11 7.37,-2.76 1.61,-0.99 1.04,-0.99 1.95,-3.64 2.27,-2.83 1.53,-0.78 2.02,-0.52 7.73,-0.48 1.01,0.07 1.08,0.37 1.69,1.04 2.4,2.41 0.74,0.49 3.33,0.37 10.49,-0.39 2.79,-3.41 3.33,-2.36 0.73,-0.65 1.35,-1.49 1.24,-1.74 0.69,-0.77 0.73,-0.55 0.75,-0.28 0.81,-0.09 0.81,0.07 4.16,1.11 0.81,0.03 0.64,-0.79 0.37,-1.46 -2,-15.58 -0.39,-1.39 -0.34,-0.76 -0.19,-2.24 1.21,-5.05 5.06,-1.15 0.96,-0.01 1.35,0.15 2.71,1.01 1.7,0.06 1.55,-0.15 2.14,-0.54 1.93,-0.86 3.38,-2.98 10.28,-5.06 2.41,-1.89 7.48,-8.11 2.9,-4.46 0.65,-0.65 1.07,-0.84 2.8,-0.83 19.22,-3.86 0.63,-4.86 1.44,-3.24 2.24,-1.74 2.95,0.96 0.52,-0.58 1.02,-1.45 0.33,-0.68 -1.74,-1.55 -5,-6.19 -1.39,-0.68 -1.31,-0.11 -0.97,-0.4 -0.38,-1.56 0.46,-1.61 1.96,-2.73 0.34,-1.56 -0.79,-1.3 -3.07,-1.86 -0.68,-0.9 -0.14,-1.33 -0.55,-1.86 -0.12,-1.28 1.39,-0.19 6.5,0.05 1.91,-0.35 1.02,-1.37 0.33,-1.39 -0.24,-1.27 -0.66,-1.02 -1.35,-1.48 -0.01,-0.46 0.56,-0.36 0.35,-1.18 0.21,-0.45 0.4,-0.39 0.33,-0.56 -0.04,-0.98 -0.38,-0.6 -0.57,-0.11 -0.53,0.05 -0.31,-0.16 -0.67,-1.01 -0.8,-0.8 -0.28,-1.05 0.86,-1.73 0.39,0.43 1.79,-0.34 2.73,-0.91 0.84,-2.44 0.58,-1.71 -1.21,-2.61 -4.79,-2.7 -0.33,-2.36 0.76,-0.72 2.26,-0.71 0.97,-1.76 3.64,-2.76 0.25,-1.85 -0.79,-2.92 -0.61,-0.68 -1.93,0.33 -1.25,0.34 -2.05,0.81 -0.69,0.09 -0.71,-0.2 -0.69,-0.61 -1.29,-1.51 -0.33,-0.27 -0.46,-0.25 -2.08,-0.5 -1.64,-0.02 -1.06,0.1 -2.28,0.6 -1.18,0.01 -1.55,-0.14 -2.89,-0.65 -1.48,-0.07 -1.15,0.03 -0.69,0.22 -0.78,0.14 -0.81,-0.01 -0.89,-0.25 -0.96,-0.78 -1.08,-1.21 -0.62,-0.39 -0.79,-0.21 -1.31,0.13 -0.87,0.25 -1.42,0.57 -0.72,0.14 -0.82,-0.04 -0.83,-0.32 -0.93,-0.8 -0.48,-0.74 -0.61,-1.39 -0.64,-0.63 -2.61,-1.49 -0.77,-0.78 -0.44,-0.81 -0.27,-1.55 -0.31,-0.59 -0.61,-0.44 -0.86,-0.27 -1.47,0 -0.98,0.13 -3.06,0.69 -0.82,-0.08 -0.72,-0.31 -0.63,-0.7 -0.32,-0.73 -0.22,-0.77 -1.11,-7.96 -0.42,-1.38 -0.32,-0.57 -0.39,-0.54 -0.99,-0.85 -2.34,-1.28 -0.49,-0.42 -0.43,-0.5 -1.27,-2.35 -1.17,-0.65 -1.85,-0.71 -4.38,-1.06 -1.8,-0.75 -1.12,-0.7 -0.67,-1.15 -0.4,-0.5 -0.46,-0.37 -4.78,-1.84 -1.08,-0.3 -0.95,0 -1.53,0.5 -1.59,0.82 -47.7,-1.54 0,-4.88 1,-0.67 0.94,-0.39 1.02,-1.02 1.7,-2.52 0.52,-1.35 0.17,-0.91 -0.08,-0.23 -0.03,-0.08 -0.01,-0.08 1.72,-12.1 -0.04,-1.53 -0.2,-1.07 -0.36,-0.56 -0.45,-0.43 -0.53,-0.32 -1.27,-0.21 -1.06,-0.62 -0.6,-0.25 -1.97,-0.31 -0.61,-0.28 -1.44,-1.28 -1.24,-0.58 -0.68,-0.24 -0.71,-0.56 -0.66,-0.86 -1.52,-3.88 -0.33,-0.57 -0.41,-0.52 -1.3,-1.23 -0.46,-0.62 -0.72,-1.33 -0.28,-1.01 -0.1,-0.97 0.01,-1.83 -0.49,-4.06 -0.4,-1.54 -1.49,-0.74 -1.96,-0.58 -13.41,-2.28 -1.04,0.24 -0.61,0.4 -0.77,0.95 -0.99,1 -0.47,0.38 -0.59,0.3 -0.68,0.2 z" 
                fill="rgb(151, 144, 238)" 
                stroke="white" 
                stroke-width=".7px"
                title="Vallée du Bandama" 
                id="CI-VB" 
            />
        </svg>