<svg xmlns="http://www.w3.org/2000/svg" viewBox="181.07999999999993 201.17 246.81999999999977 210.45000000000013" width="246.81999999999977" height="210.45000000000013">
            <path 
                d="m 304.5,201.85 -2.57,-0.68 -3.58,0.7 -1.32,0.97 -0.34,0.56 -0.56,1.33 -0.74,2.94 -0.77,1.43 -0.73,0.52 -0.93,0.2 -0.98,0.07 -1.48,0.62 -0.73,0.59 -2.37,3.3 -2.63,3.03 -1.43,1.14 -1.17,0.53 -0.71,-0.18 -0.61,-0.31 -0.55,-0.4 -0.93,-0.97 -0.74,-1.05 -0.65,-1.13 -1.07,-2.85 -0.46,-0.95 -0.74,-1.1 -1.38,-1.31 -0.77,-0.35 -1.03,-0.19 -1.81,0 -1,0.21 -0.79,0.32 -0.48,0.39 -0.39,0.5 -0.3,0.61 -0.17,0.68 0.03,0.73 0.16,0.67 1.15,2.47 -0.22,0.95 -0.77,1.2 -2.3,1.97 -1.34,0.77 -1.18,0.4 -11.13,-0.8 -0.74,-0.25 -0.5,-0.28 -0.97,-0.91 -1.52,-1.7 0.14,-1.27 1.03,-0.85 -4.69,-0.62 -4.77,2.86 -3.22,0.88 -1.18,0.58 -1.63,1.11 -1.59,0.56 -5.19,1.23 -1.35,0.66 -0.77,0.79 -0.2,0.84 -0.37,0.97 -0.83,1.28 -0.28,0.97 -0.09,0.9 0.1,1.89 0.01,0.06 0,0.03 0.62,5.94 -0.04,0.8 -0.24,0.82 -0.44,0.01 -0.49,-0.21 -0.94,-0.91 -0.64,-0.36 -0.82,-0.23 -1.47,0.08 -0.98,-0.09 -0.74,-0.32 -0.49,-0.43 -0.72,-0.33 -0.88,-0.2 -3.71,0.76 -2.14,0.21 -0.82,-0.04 -0.74,-0.13 -0.69,-0.23 -0.61,-0.33 -0.53,-0.42 -0.43,-0.5 -1.45,-2.17 -0.42,-0.48 -0.58,-0.3 -0.73,-0.09 -2.29,0.17 -0.77,-0.13 -0.6,-0.3 -0.47,-0.31 -0.3,-0.29 -0.02,-0.02 -0.01,-0.04 -0.08,-0.09 -0.35,-0.24 -0.67,-0.35 -1.2,-0.3 -0.82,0.07 -0.64,0.29 -0.38,0.32 -0.24,0.3 -0.01,0.02 -0.21,0.5 -1.2,1.46 -1.6,1.02 -2.09,1.93 -1.81,1.38 -3.3,0.96 -1.76,0.07 -0.25,0.25 -0.11,0.57 0.32,0.56 0.56,0.29 1.01,0.08 1.26,0.33 0.01,0.77 -0.82,1.53 -0.02,1.77 -0.28,1.4 -0.6,1.19 -0.97,1.14 1.85,0.76 1.11,1.53 0.55,2.08 0.15,2.41 0.27,0.75 1.19,2.29 0.24,1.02 -0.31,0.97 -1.14,1.1 -0.25,1.13 -0.24,2.28 -1.55,6.34 -0.15,4.93 -0.45,2.57 -1.27,2.44 1.78,0.04 0.95,0.52 -0.17,0.68 -1.59,0.56 1.69,1.27 1.39,2.46 0.95,2.74 0.69,4.97 1.72,3.68 0.79,3.01 0,5.42 1.29,8.12 1.32,2.6 2,2.1 2.53,1.61 -1.5,1.04 -0.42,0.73 0.11,0.77 0.02,5.87 -1.37,2.17 0.83,3.28 1.65,3.41 1.57,1.83 -0.83,2.51 0.63,1.82 1.14,1.71 0.77,2.16 -0.2,1.05 -1.21,1.75 -0.3,1.14 0,4.59 0.63,2.69 2.25,5.53 1.59,4.07 -0.01,2.7 -0.9,1.57 -1.32,1.24 -1.34,1.7 -0.5,0.98 -0.25,0.86 -0.15,2.13 0.27,1.34 1.17,1.41 0.27,0.93 0.48,8.63 0.84,4.57 1.44,3.47 3.13,-3.3 2.88,-1.74 3.72,-0.85 47.95,-2.83 19.44,5.66 2.99,0.22 3.93,-0.18 19.5,-4.7 4.02,0.17 1.58,3.5 1.49,2.49 0.25,0.64 0.2,0.72 0.47,4.07 0.58,0.76 1.19,0.81 4.95,2.07 3.47,1.09 2.2,1.43 2.33,3.3 3.81,-2.33 0.42,-0.63 0.46,-0.85 -0.01,-0.58 -0.33,-2.36 0.09,-1.04 0.45,-1.45 3.67,-3.41 4.23,-3.09 1.4,-0.26 1.8,0.4 10.08,3.96 2.4,-0.87 2.45,-1.3 2.51,-1.7 1.86,-0.63 1.37,-0.26 3.86,-0.15 2.18,-1.31 0.71,-0.85 1.29,-1.93 0.38,-1.18 0.1,-1.01 -0.69,-2.02 -0.33,-1.44 -0.1,-1.65 0.05,-0.8 0.57,-2.2 0.27,-0.61 1.9,-2.6 0.53,-1.28 0.39,-1.43 0.1,-0.75 -0.02,-0.81 -0.17,-0.75 -0.46,-1.34 -0.56,-2.38 -0.04,-1.26 1.17,-6.2 0.02,-0.02 0.01,-0.04 1.17,-0.39 1.98,-0.24 1.23,-0.04 4.39,0.32 5.62,-0.91 3.39,-1.47 7.61,-5.02 0.76,-0.84 0.4,-0.76 0.08,-1.09 -0.16,-2.04 0.73,-0.3 1.46,-0.42 3.89,0.09 2.13,0.55 1.07,-2.02 1.9,-0.37 2.18,0.58 1.81,0.91 0.99,-1.81 1.65,0.43 1.03,-1.19 0.27,-1.83 -1.45,-3.1 1.77,-0.61 1.91,-0.09 1.96,0 1.79,-2.83 -0.25,-3.37 -2.43,-6.43 2.68,0 -1.12,-2.29 -1.73,-1.04 -1.86,-0.52 -1.46,-0.74 -0.53,-0.79 -1.34,-2.9 -0.54,-0.59 -0.65,-0.42 -1.49,-0.71 -2.67,-1.89 -0.84,-0.31 -6.3,-1.49 -0.27,-0.53 -0.14,-0.9 -0.26,-0.83 -0.63,-0.37 -4.51,0 -1.04,-0.28 -0.59,-0.62 -0.47,-0.62 -0.61,-0.28 -1.43,-1 -3.67,-4.4 -1.19,-1 -0.42,-0.28 0.7,-0.62 1.22,-0.62 1.18,-0.28 1.18,0.15 2.43,0.83 3.22,0.24 1.17,-0.5 1.45,-1.62 -10.72,-6.16 -0.7,-2.18 -17.24,-4.19 -26.94,-9.93 -1.04,-0.6 -19.92,-31.27 -2.31,-4.78 -0.19,-0.7 -0.19,-1.72 -0.29,-1.16 -0.48,-0.66 -0.62,-0.48 -2.54,-1.25 -8.52,-5.52 -0.02,-0.04 -0.02,-0.03 -0.3,-0.41 -0.26,-0.49 -0.71,-2.01 -0.37,-0.71 -1.35,-1.99 -0.6,-1.24 -0.22,-0.68 -0.11,-0.68 -0.02,-0.79 0.1,-0.76 0.2,-0.76 1.92,-3.64 0.8,-1.02 1.44,-1.32 0.42,-0.55 0.3,-0.63 0.15,-0.75 -0.01,-0.78 -0.1,-0.78 -0.55,-1.12 -3.14,-3.98 -2.77,-1.66 -1.53,-0.32 -1,-0.11 -0.74,0 z" 
                fill="rgb(151, 144, 238)" 
                stroke="white" 
                stroke-width=".7px"
                title="Worodougou" 
                id="CI-WR" 
            />
        </svg>