<svg xmlns="http://www.w3.org/2000/svg" viewBox="561.6399999999996 103.32000000000001 237.4199999999987 382.63" width="237.4199999999987" height="382.63">
            <path 
                d="m 655.27,107.41 -2.24,-0.48 -1.39,-0.99 -0.86,-1.08 -0.99,-0.96 -1.77,-0.58 -0.44,0.31 -1.21,1.51 -0.7,0.4 -0.82,-0.16 -1.71,-0.98 -0.97,-0.13 -6.35,0.79 -1.91,0.6 -1.32,0.88 -2.1,2.26 -1.11,0.83 -2.51,0.76 -8.66,0.16 -0.25,0.08 -2.41,0.71 -4.92,3.21 -2.81,0.71 -1.94,1.04 -0.55,2.17 -0.83,1.86 -4.19,0.06 -1.09,0.36 -2,0.97 -0.14,0.36 -0.05,0.69 -0.25,0.63 -0.81,0.18 -0.77,-0.24 -1.36,-0.76 -7.44,-2.2 -2.25,0.28 -2.36,1.79 -3.75,5.28 -2.41,1.34 -4.92,0.64 -2.26,0.81 -1.74,1.58 0.59,0.12 1.52,0.51 -3.96,4.17 -0.72,1.21 -0.02,1.17 0.39,3.13 -0.33,1.67 -1.69,3.33 -0.85,1.01 1.6,0.67 5.81,7.82 1.01,0.78 1.01,0.55 0.78,0.79 0.32,1.46 0,1.41 0.13,1.07 0.41,0.95 0.83,1.1 3.54,3.36 1.04,1.83 0.65,4.34 1.23,2.15 0.28,0.98 -0.16,1.05 -0.66,1.36 -0.16,1.29 -0.15,0.49 -0.32,0.7 -0.29,0.89 -0.05,1.09 0.34,1.18 0.53,0.61 0.55,0.39 0.37,0.53 0.36,2.25 -0.43,1.45 -0.63,1.41 -0.28,2.13 0.24,0.98 0.51,1.17 0.59,1.02 0.45,0.53 1.53,0.58 0.33,-0.41 0.09,-0.95 0.81,-1.03 2.44,-1.27 2.02,-0.62 1.23,-0.12 0.93,0.03 0.77,-0.12 0.72,-0.62 3.57,3.1 3.5,2.33 5.36,1.12 2.67,1.3 1.41,0.29 1.01,0.61 0.42,1.38 0.26,1.52 0.55,1.01 0.98,0.24 3.93,-0.24 2.08,0.85 -1.6,4.43 1.83,2.04 -0.5,0.26 -0.15,0 -0.07,0.08 -0.25,0.48 2.68,-0.36 2.12,-0.8 1.54,0.01 0.88,2.05 0.06,3.39 -1.01,0.21 -1.45,-1.6 -1.26,-2 -1.27,3.08 -0.46,2.92 0.97,2.19 4.65,1.14 2.16,0.8 1.96,1.17 1,1.44 -0.29,1.81 -1.41,0.56 -1.9,0.06 -1.75,0.28 -3.22,1.37 -2.78,1.7 -1.01,2.31 2.05,3.21 2.11,1.86 3.92,4.63 2.5,2.09 0,0.98 -1.18,0.14 -0.45,0.29 -0.32,0.51 -0.73,0.87 0.53,0.19 0.08,0.07 -0.02,0.16 0.22,0.48 1.64,-0.15 1.81,0.93 1.46,1.56 0.61,1.77 -0.31,2.89 -0.86,0.51 -1.3,-0.62 -1.63,-0.48 -0.75,0.89 -3.35,5.35 -2.47,1.95 -0.41,1.14 2.07,0.6 -1.1,1.15 -1.74,0.5 -3.93,0.07 -2.23,0.74 -1.3,1.82 -1.38,4.75 1.3,1.12 0.71,2 0.61,0.68 0.79,2.92 -0.25,1.85 -3.64,2.76 -0.97,1.76 -2.26,0.71 -0.76,0.72 0.33,2.36 4.79,2.7 1.21,2.61 -0.58,1.71 -0.84,2.44 -2.73,0.91 -1.79,0.34 -0.39,-0.43 -0.86,1.73 0.28,1.05 0.8,0.8 0.67,1.01 0.31,0.16 0.53,-0.05 0.57,0.11 0.38,0.6 0.04,0.98 -0.33,0.56 -0.4,0.39 -0.21,0.45 -0.35,1.18 -0.56,0.36 0.01,0.46 1.35,1.48 0.66,1.02 0.24,1.27 -0.33,1.39 -1.02,1.37 -1.91,0.35 -6.5,-0.05 -1.39,0.19 0.12,1.28 0.55,1.86 0.14,1.33 0.68,0.9 3.07,1.86 0.79,1.3 -0.34,1.56 -1.96,2.73 -0.46,1.61 0.38,1.56 0.97,0.4 1.31,0.11 1.39,0.68 5,6.19 1.74,1.55 -0.33,0.68 -1.02,1.45 -0.52,0.58 -2.95,-0.96 -2.24,1.74 -1.44,3.24 -0.63,4.86 -0.77,5.95 0.8,2.17 1.89,-0.04 2.24,-0.65 1.84,0.36 1.3,0.05 1.36,-1 1.27,-0.16 0.99,2.55 -0.32,1.21 -1.03,1.28 -2.31,1.93 -1.79,0.83 -1.19,0.32 0.11,0.43 2.06,1.21 1.91,0.68 3.88,0.92 1.35,1.1 1.72,-1.46 1.71,1.23 0.55,1.01 0.81,1.47 0.64,2.25 -0.31,0.73 -0.7,0.79 -0.55,0.82 0.19,0.82 0.9,1.13 0.31,0.58 0.81,2.58 -0.23,0.94 -1.39,0.62 0,0.9 2.91,0.05 2.06,0.46 1.38,1.33 0.88,2.67 1.42,-0.66 1.25,0.04 1.05,0.58 0.82,0.94 2.59,-0.28 2.9,0.32 1.68,1.42 -1,3.04 1.17,4.34 1.46,1.48 3.25,0.57 1.54,0.86 0.5,1.88 0.14,1.88 0.46,0.86 1.54,0.51 0.78,1.14 0.66,1.22 1.15,0.74 5.19,-1.34 2.57,0.62 1.09,3.91 -0.72,1.58 -2.56,2.51 0.2,1.27 1.04,0.77 1.55,0.71 1.69,0.53 1.48,0.24 1.1,0.55 0.56,0.8 0.44,1.03 2.86,4.24 0.39,0.09 0.81,5.39 -0.38,2.1 -2.14,1.1 0.23,3.02 -1.94,3.01 4.17,-1.3 0.63,-0.13 0.45,0.08 2.1,0.68 0.82,-0.23 1.15,0.72 0.53,-0.04 0.63,-0.22 0.73,0.25 0.83,0.54 1.6,0.83 0.8,0.68 0.53,0.67 1.99,6.72 0.26,0.56 0.38,0.59 0.48,0.56 1.3,1.18 2.13,2.5 0.78,0.31 0.65,-0.09 0.49,-0.42 0.77,-1.03 1.08,-1.75 1.67,-0.08 2.79,0.41 9.48,2.94 1.57,0.95 2.94,2.28 4.39,2.7 2.07,1.84 1.53,1.74 5.43,10.42 0.17,2.43 0,0.06 0.15,-0.09 6.47,-2.12 0.67,-0.93 1.08,-6.59 0.66,-1.33 5.99,-7.52 1.16,-2.56 0.1,-1.8 -0.58,-1.07 -0.88,-1.09 -0.82,-1.84 -0.12,-1.54 6.39,-40.41 1.75,-5.34 9.44,-20.3 0.51,-0.87 1.31,-1.6 0.51,-0.87 0.03,-0.71 -0.38,-1.71 0.11,-0.66 1.12,-1.07 2.91,-1.76 1.04,-1.13 0.43,-1.46 0.57,-9.85 0.38,-0.97 0.82,-0.1 0.87,0.58 0.66,0.75 0.19,0.42 2.13,-1.8 5.97,-6.91 2.4,-1.71 7.8,-2.62 2.7,-1.38 1.29,-1.71 0.12,-2.3 -0.84,-3.16 -1.73,-3.8 -0.32,-1.67 0.55,-2.08 0.92,-1.77 0.83,-0.78 1.08,0.07 1.67,0.78 1.5,0.16 1.79,-0.6 5.87,-3.48 0.9,-2.01 -6.02,-37.01 -6.02,-37.04 -0.62,-2.07 -1.18,0.55 -0.03,-0.04 -0.63,-1.04 0.34,-1.69 0.96,-0.88 1.39,-0.77 0.14,-1.81 -2.66,-9.23 -0.16,-2.27 -0.3,-1.14 -0.73,-0.31 -0.88,-0.13 -0.78,-0.6 -2.04,-6.21 -0.13,-2.7 -0.85,-2.13 -3.3,-1.77 -3.3,-0.74 -3.35,-0.17 -1.81,-0.3 -1.03,-0.72 -0.84,-0.88 -1.28,-0.73 1.23,-1.87 0.54,-2.07 0.25,-6.63 0.55,-1.1 2.78,-2.87 2.28,-4.69 1.53,-2.4 4.15,-2.19 1.56,-2.52 0.17,-2.51 -2.05,-1.14 -2.29,-0.51 -1.85,-1.36 -1.02,-2.05 0.21,-2.5 1.35,-1.76 1.78,-0.83 1.55,-0.99 0.67,-2.26 0,-3.57 -0.65,-2.23 -0.16,-1.03 0.53,-4.23 -0.14,-1.89 -1.77,-2.25 -4.09,3.91 -3.19,6.77 -2.46,2.15 -3.12,-0.24 -2.99,-2.3 -13.04,-17.45 -6.5,-12.71 -2.34,-6.17 -1.59,-3.09 -2.05,-2.08 -2.48,-0.59 -4.5,1.33 -2.36,-0.11 -2.28,-1.92 -1.29,-3.09 -1.63,-6.39 -2.62,-3.21 -3.03,-0.69 -2.94,-0.06 -2.28,-1.35 -0.57,-2.66 0.28,-3.13 -0.04,-2.55 -1.6,-0.99 -2.02,1.45 -4.42,6.32 -1.8,1.81 -3.12,0.31 -1.32,-1.73 -0.23,-2.71 0.11,-2.64 -0.58,-0.91 -1.36,0.54 -1.53,0.95 -1.19,0.41 -1.39,-0.73 -2.3,-2.12 -1.64,-0.63 -20.57,-1.71 -7.81,1.06 z" 
                fill="rgb(151, 144, 238)" 
                stroke="white" 
                stroke-width=".7px"
                title="Zanzan" 
                id="CI-ZA" 
            />
        </svg>