<svg xmlns="http://www.w3.org/2000/svg" viewBox="0.2500487700000207 221.53548 355.4100012299999 163.12" width="355.4100012299999" height="163.12">
            <path 
                d="m 65.440049,221.54548 21.76,0.18 0,0 11.57,0.13 0,0 47.250001,0.22 0,0 5.78,-0.04 0,0 16.39,0 0,0 12.53,0.04 0,0 34.73,-0.2 0,0 7.71,0 0,0 30.83,-0.34 0,0 70.45,95.27 31.22,41.38 0,0 -0.09,1.22 -11.24,22.48 -1.77,2.77 -34.72,-0.12 0,0 -10.82,0.08 0,0 -96.94,-0.35 0,0 -21.12,0.12 0,0 -8.84,0 0,0 -19.63,0.04 0,0 -10.84,-0.06 0,0 -9.5,0.04 0,0 -5.89,0 0,0 -124.01000123,-0.32 0,0 0,-92.07 65.49000023,0.14 z" 
                fill="rgb(151, 144, 238)" 
                stroke="white" 
                stroke-width=".7px"
                title="Ghanzi" 
                id="BW-GH" 
            />
        </svg>