<svg xmlns="http://www.w3.org/2000/svg" viewBox="384.2100500000001 401.78548 71.48999999999995 80.13999999999987" width="71.48999999999995" height="80.13999999999987">
            <path 
                d="m 393.63005,401.78548 1.22,1.16 44.26,26.69 2.05,-2.84 2.1,-1.36 1.09,-1.84 2.42,-0.2 0.53,-0.45 2.94,-3.93 0.2,-1.72 0.54,0.04 0.47,1.01 1.87,-2.45 2.38,-0.54 0,0 -0.11,2.18 -0.93,2.36 0.56,1.13 -0.15,0.74 -1.14,0.72 -0.09,0.52 1,0.18 0.07,1.27 -1.35,3.33 -0.32,3.18 -0.92,1.07 0.18,2.37 -1.25,2.46 -0.29,2.06 -1.55,1.4 -0.25,2.31 1.15,1.8 -1.06,1.28 0.83,1.62 -1.03,1.33 0.39,2.14 -0.36,0.86 -0.71,0.69 -1.54,0.14 -1.09,1.38 -1.84,1.02 -1.6,0.31 -1.43,-0.46 -1.27,1.09 -0.53,-0.08 -0.52,1.17 -1.32,0.45 -0.5,0.9 0.03,1.78 -0.53,0.9 -1.13,-0.1 -3.63,1.31 -1.86,2.8 -0.58,0.08 -0.11,0.67 -2.39,2.04 -2.95,7.31 -2.18,1.9 -0.74,0.06 -0.59,1.45 -15.65,3.45 0,0 -2.67,-4.36 -12.53,-8.31 0,0 -2.36,-1.54 -0.73,0.36 -1.92,-2.52 0.61,-5.63 4.33,-5.77 z" 
                fill="rgb(151, 144, 238)" 
                stroke="white" 
                stroke-width=".7px"
                title="Kgatleng" 
                id="BW-KL" 
            />
        </svg>