<svg xmlns="http://www.w3.org/2000/svg" viewBox="193.42005 358.18548 200.20999999999998 129.95999999999998" width="200.20999999999998" height="129.95999999999998">
            <path 
                d="m 355.66005,358.18548 19.58,26.61 8.2,2.62 10.19,14.37 0,0 -4.48,52.37 -4.33,5.77 -0.61,5.63 1.92,2.52 0.73,-0.36 2.36,1.54 0,0 -17.26,18.89 0,0 -6.33,-0.24 -9.99,-5.83 -112.61,-35.11 0,0 -6.92,-2.18 0,0 -36.19,-11.63 0,0 0.04,-30.59 -6.49,0.02 -0.05,-10.33 0.03,-0.73 0.71,-0.08 5.92,0.16 0,0 0.09,-6.83 0,0 -0.09,-0.51 0,0 96.94,0.35 0,0 10.82,-0.08 0,0 34.72,0.12 1.77,-2.77 11.24,-22.48 z" 
                fill="rgb(151, 144, 238)" 
                stroke="white" 
                stroke-width=".7px"
                title="Kweneng" 
                id="BW-KW" 
            />
        </svg>