<svg xmlns="http://www.w3.org/2000/svg" viewBox="471.4700500000001 185.43548000000004 52.43999999999994 76.02999999999992" width="52.43999999999994" height="76.02999999999992">
            <path 
                d="m 490.97005,185.84548 4.29,1.11 3.41,-0.81 1.42,1.24 0.7,0.06 1.8,-0.83 2.5,2 0.51,1.79 -0.49,2.65 -1.13,1.4 0.08,4.28 1.66,3.36 -0.36,0.98 0.53,2.13 -0.46,1.6 0.28,0.96 -0.63,0.53 -0.56,3.24 -1.52,2.14 0.82,2.3 -0.87,2 1.5,1.8 -0.73,1.39 0.34,0.73 -1.03,0.96 0.78,1.99 -1.08,1.77 1.27,2.87 1.14,0.82 1.69,2.34 1.44,0.45 1.33,1.32 1.42,0.31 0.12,1.26 2.52,3.04 0.81,1.88 3.1,3.44 0.24,2.98 2.7,3.55 -0.26,1.13 1.37,1.84 -1.02,0.88 0.08,0.73 1.59,0.77 -1.2,1.64 0.64,0.73 1.28,-0.31 0.25,0.37 -0.42,0.59 1.09,1.96 0,0 -2.52,0.26 -1.15,-0.8 -0.75,0.13 -0.92,-1.24 -2.96,0.14 -1.76,-0.62 -0.45,0.97 -2.91,-0.22 -3.76,1.17 -1.27,-0.64 -6.08,-1.03 -1.53,-0.87 -2.45,-2.88 -0.91,0.55 -1.9,-0.95 -1.84,-0.2 -3.47,-4.77 -0.67,-1.76 -1.63,-1.26 -1.04,-2.85 0.22,-1.13 -1.13,-3.75 0.26,-1.55 -0.49,-2.39 -1.89,-1.97 -0.38,-4.12 0.56,-3.95 -0.89,-1.51 -0.07,-2.69 -1.06,-1.26 -0.47,-1.95 -1.96,-3.36 -4.41,-2.76 -0.76,-2.15 0.18,-2.53 0.63,-1.25 -0.07,-3.36 0.55,-0.87 2.27,-1.58 0.29,-1.97 1.23,-0.99 1.25,-2 -1.27,-4.36 0.35,-2 -0.37,-1.76 0,0 0.69,0.21 4.1,-1.89 1.89,0.78 3.46,0.05 2.34,-0.84 z" 
                fill="rgb(151, 144, 238)" 
                stroke="white" 
                stroke-width=".7px"
                title="North-East" 
                id="BW-NE" 
            />
        </svg>