<svg xmlns="http://www.w3.org/2000/svg" viewBox="65.44004900000006 0.27547999999992445 326.230001 221.8" width="326.230001" height="221.8">
            <path 
                d="m 341.19005,0.87548 2.72,-0.18 1,0.39 -0.58,0.41 -1.53,4.78 -0.16,3.28 2.01,2.66 0.93,3.73 2.61,4.56 2.23,0.85 0.7,1.51 1.91,0.74 1.59,2.43 4.55,9.39 2.11,6.13 5.68,7.01 2.24,0.8 2,3.95 2.36,2.78 2.53,0.44 2.28,2.08 0.06,1.95 0.82,1.86 -0.69,1.75 0.22,2.85 0.7,2.11 1.3,1.97 -0.07,1.86 3.06,1.45 3.41,2.76 1.46,0.37 3.03,6.1 0,0 -44.51,0.15 0,0 -12.35,0 0,0 -8.53,0.02 0.23,6.7 0,0 0,20.81 0,0 -0.02,29.38 0,0 0.04,11.42 0,0 -0.04,0.37 11.75,4.95 -0.6,18.91 -41.22,3.35 -4.7,-0.46 -3.31,1.41 -2.59,-1.24 -2.16,-2.61 -0.4,-1.52 -3.31,-1.39 -0.96,-1.91 0.67,-1.71 -0.96,-1.42 -1.11,0.05 -1.87,1 -0.76,-0.67 -0.29,-1.62 -1.26,-0.19 -1.61,-1.23 -2.45,1.39 -2.17,0.03 -1.43,1.45 -2.25,0.52 -1.05,1.33 -1,0.42 0.23,1.87 -0.49,0.48 -1.47,-0.25 -1.31,1.09 -2.25,0.06 -2.29,-1.63 -0.31,5.39 0.43,43.19 0,0 -30.83,0.34 0,0 -7.71,0 0,0 -34.73,0.2 0,0 -12.53,-0.04 0,0 -16.39,0 0,0 -5.78,0.04 0,0 -47.250001,-0.22 0,0 -11.57,-0.13 0,0 -21.76,-0.18 0,0 0.11,-184.63 30.73,0.01 105.430001,-21.64 14.06,-0.28 1.51,1.16 -0.42,1.46 1.46,1.07 -0.8,0.33 0.29,1.6 1.35,0.85 1.94,2.93 0.58,1.94 1.16,1.06 -0.2,2.07 0.73,-0.33 0.37,0.41 0.47,-0.33 1.19,0.46 0.52,-0.66 0.45,0.39 -0.62,0.79 0.48,1.05 0.77,0.63 2.05,-0.12 0.2,1.41 1.44,0.73 0.58,1.85 -0.27,1.11 1.75,1.62 0.4,1.73 -0.7,1.22 0.88,1.7 -0.21,2.49 0.62,0.33 0,2.37 2.71,1.34 3.49,-2.25 1.15,-2.25 1.02,-0.45 1.35,0.33 4.69,-3.73 1.18,-1.75 0.09,-1.27 2.5,-1.27 0.24,-1.2 0.79,0.14 0.67,-1.92 2.18,-0.85 1.04,-1.01 0.49,-0.98 -0.56,-0.34 0.75,-1.62 1.49,-0.58 0.1,-0.57 1.11,0.31 2.92,-3 2.38,-1 0.3,-1.57 2.03,0.47 1.58,-1 2.64,-2.78 0.9,-1.64 1.09,-0.38 0.43,-1.02 2.34,0.28 2.7,-0.9 1.59,1.4 0.97,-2.25 1.33,-0.42 2.39,-2.76 1.52,0.09 0.63,0.65 0.53,-0.61 0.96,0.01 1.42,1.09 0.67,-0.49 -0.01,1.32 2.13,2.11 -0.56,1.4 0.65,0.98 0.82,-0.1 0.46,0.91 1.42,0.46 2.91,-0.03 2.76,-3.43 0.48,-1.74 2.67,-2.06 -0.24,-0.98 1.41,0.16 0.77,-0.65 0.74,0.33 0.96,-1.8 0.54,-0.19 0.43,-1.59 0.93,0.55 1.59,-0.87 -0.25,-0.44 0.36,-0.33 1.96,-0.2 -0.1,-0.71 0.55,-0.31 2.82,-1.01 1.09,0.23 0.49,-0.69 1.41,-0.45 0.61,-1.01 2.39,-0.22 0.36,-0.9 1.52,-0.49 0.33,0.32 -1.03,0.87 0.88,0.66 -0.01,0.63 0.55,0.31 1.19,-0.84 0.22,0.42 -0.56,0.68 0.63,0.18 2.62,-1.73 0.75,0.87 -0.72,0.4 0.08,0.38 1.09,0.54 2.92,-0.99 0.82,-1.44 1.03,0.21 1.04,-2.02 z" 
                fill="rgb(151, 144, 238)" 
                stroke="white" 
                stroke-width=".7px"
                title="North-West" 
                id="BW-NW" 
            />
        </svg>