<svg xmlns="http://www.w3.org/2000/svg" viewBox="362.1100499999999 469.25548000000003 42.30999999999989 68.59000000000003" width="42.30999999999989" height="68.59000000000003">
            <path 
                d="m 403.91005,482.04548 -3.41,0.53 -6.29,1.85 -6.04,0.18 -2.33,2.36 -1.92,0.08 -0.41,0.65 0.45,3.78 1.43,2.75 -0.43,4.26 -1.39,1.38 -8.07,22.48 -2.05,2.45 -0.83,5.95 -0.88,1.66 -0.47,2.6 -1.48,2.84 0,0 -4.14,-1.88 -3.54,-0.7 8.63,-30.26 -4.66,0.3 2.89,-8.71 -0.91,-1.31 3.96,-1.79 -0.06,-5.35 0,0 17.26,-18.89 0,0 12.53,8.31 2.67,4.36 0,0 z" 
                fill="rgb(151, 144, 238)" 
                stroke="white" 
                stroke-width=".7px"
                title="South-East" 
                id="BW-SE" 
            />
        </svg>