<svg xmlns="http://www.w3.org/2000/svg" viewBox="199.6300500000002 433.15547999999984 172.38999999999982 130.87000000000006" width="172.38999999999982" height="130.87000000000006">
            <path 
                d="m 371.96005,488.14548 0.06,5.35 -3.96,1.79 0.91,1.31 -2.89,8.71 4.66,-0.3 -8.63,30.26 3.54,0.7 4.14,1.88 0,0 -0.08,3.04 -4.4,9.24 -7.74,4.99 -2.93,2.53 -1.65,0.15 -3.32,2.04 -14.36,-0.7 -2.59,-2.01 -0.82,0.11 -1.52,-0.72 -2.31,0.34 -0.76,1.37 -2.13,1.78 -1.04,-0.3 -1.73,2.12 -0.55,-0.33 -0.97,1.63 -3.03,-0.21 -3.89,1.11 -4.18,-1.29 -3.31,1.16 -4.8,-1.41 -2.25,-1.83 -2.04,-0.32 -4.34,-1.77 0,0 1.41,-0.47 -0.62,-6.43 -6.03,-0.19 -9.69,-9.97 -0.94,-36.77 -10.41,-11.06 -67.14,0.23 0.29,-60.75 0,0 36.19,11.63 0,0 6.92,2.18 0,0 112.61,35.11 9.99,5.83 z" 
                fill="rgb(151, 144, 238)" 
                stroke="white" 
                stroke-width=".7px"
                title="Southern" 
                id="BW-SO" 
            />
        </svg>