<svg xmlns="http://www.w3.org/2000/svg" viewBox="395.97099 497.5900000000001 90.18999999999994 65.2899999999998" width="90.18999999999994" height="65.2899999999998">
            <path 
                d="m 474.41099,505.57 0,0 1.39,-0.76 1.16,-1.26 2.84,0.44 1.82,3.68 1.42,1.23 0.6,1.62 -1.04,1.88 -0.08,0.85 0,0.01 -1.86,0.56 -1.22,0.11 -0.62,0.59 -0.06,0.92 0.44,1.07 -0.1,1 0.27,0.89 0.52,0.74 0.77,0.58 1.02,0.54 3.92,3.03 0.56,0.58 -0.19,0.71 -0.96,1.3 -2.72,2.64 -0.52,0.91 0.23,1.04 0.65,1.05 0.32,0.98 -0.73,0.85 0.42,0.65 0.66,0.55 0.5,0.64 -0.13,0.95 -0.87,0.75 -2.16,3.17 -1.01,0.51 -0.42,0.44 -0.52,1.52 -0.22,0.38 -0.47,0.65 -0.19,0.54 -0.04,0.54 0.08,0.56 0,0.58 -0.2,0.51 -0.84,0.69 -0.75,-0.03 -1.52,-0.68 -1.22,-0.26 -0.64,-0.25 -1.23,-1.12 -1.76,-1.28 -1.2,-0.08 -0.98,0.88 -1.15,1.64 -0.33,0.3 -0.75,0.45 -0.26,0.33 -0.1,0.45 -0.14,1.35 -0.69,1.36 -0.55,0.31 -0.99,-0.17 -0.01,0 -0.02,-0.01 0,0 -0.98,-0.01 -0.52,0.8 -0.37,1.15 -0.53,1.06 -1.78,1.61 -1.99,1.34 -1.45,0.46 -0.7,-0.36 -0.55,-0.8 -1.07,-0.85 -0.82,-0.37 -0.2,0.06 -0.04,0.34 -1.91,2.36 -1.26,2 -0.28,0.16 -0.82,0.17 -0.71,1.72 -0.03,0.42 -0.23,0.34 -0.82,0.23 -0.66,-0.12 -1.22,-0.77 -0.59,-0.2 -0.69,0.05 -0.38,0.2 -0.3,0.29 -2.53,1.43 -0.97,-0.04 -0.91,-0.36 -0.91,-0.65 -1.71,-1.72 -2.28,-3.26 -0.51,-1 -0.3,-0.42 -0.5,-0.54 -0.29,-0.23 -4.74,-1.45 -0.8,-0.45 -1.09,-0.61 -1.28,-1.97 -0.67,-0.41 -1.49,-0.33 -0.57,-0.35 -0.23,-0.64 -0.34,-2.13 -0.26,-0.85 -0.82,-1.28 -0.38,-0.36 -1.4,1.3 -0.48,0.24 -0.43,0.04 -0.32,0.19 -0.1,0.66 0.02,0.64 0.14,0.48 0.29,0.33 0.48,0.18 0,0.41 -1.01,-0.06 -0.83,-0.21 -0.71,-0.08 -0.6,0.35 -0.15,0.29 -0.1,0.48 0.06,0.45 0.75,0.42 -0.28,0.46 -0.48,0.4 -0.26,0.05 -0.67,1.31 -1.65,0.69 -3.51,0.49 0.01,-0.02 0.75,-1.74 -0.41,-0.79 0,-0.89 -0.28,-1.89 -1.17,-1.7 -1.35,-1.13 -1.18,-1.23 -1.36,-5.4 -1.6,-1.3 -1.84,-1.04 -1.3,-1.52 -0.95,-1.84 -0.17,-4.95 2.71,-4.21 2.99,-3.03 2.79,-2.17 0.94,-1.75 1.56,-0.89 1.91,0 1.62,0.85 0.78,1.85 1.54,0.8 1.47,-1.24 1.76,-0.67 1.34,1.34 -0.23,2.07 -0.72,1.73 -0.08,0.96 0.19,0.83 -0.32,1.8 0.06,1.75 1.31,1.63 1.72,1.07 1.84,0.13 3.31,1.11 1.32,-0.92 1.95,0.08 1.97,-0.38 0.98,-1.6 0.12,-1.87 1.22,-1.45 1.16,-0.94 0.71,-0.86 2.7,-0.77 1.44,0.19 -1.02,-2.71 1.22,-2.05 -0.01,-3.43 -0.66,-3.37 -0.77,-1.05 -0.9,-0.74 -0.7,-1.22 -0.93,-0.9 -2.67,0.62 -1.43,-0.29 -1.15,-0.79 0.15,-0.23 0.06,-0.27 1.43,-0.61 0.81,-1.57 0.65,-0.77 0.55,-0.82 0.14,-0.9 0.27,-0.91 1.39,-1.24 1.72,-1.04 2.11,-0.25 2.11,0.39 1.68,1.18 1.88,0.48 2.27,-0.07 2.12,-0.89 1.4,-0.36 1.46,-0.07 1.82,0.43 1.59,-0.83 1.53,-1.13 4.63,-0.34 4.53,1.53 1.23,1.29 1.15,1.6 1.16,1.3 1.53,0.94 2,0.82 2.03,0.5 z" 
                fill="rgb(151, 144, 238)" 
                stroke="white" 
                stroke-width=".7px"
                title="Attapu" 
                id="LA-AT" 
            />
        </svg>