<svg xmlns="http://www.w3.org/2000/svg" viewBox="0.2509900000000161 116.30999999999985 74.86999999999999 73.70000000000009" width="74.86999999999999" height="73.70000000000009">
            <path 
                d="m 50.20099,140.83 0,0 4.82,-0.59 1.82,1.39 1.42,2.19 1.08,2.45 -0.02,2.28 0.19,1.78 2.4,2.02 1.44,0.54 4,1.01 4.55,-1.11 2.04,0.5 0.4,1.59 0.64,1.53 0.14,1.1 -0.18,7.74 -0.96,1.73 -1.47,1.51 -2.05,1.07 -2.21,-0.29 -3.83,-2.79 -2.55,0.47 -2.05,1.35 -0.64,2.45 -1.32,1.74 -1.56,1.57 -1.38,0.81 -1.45,0.64 -5.95,0.22 -5.29,1.93 0.1,2.84 1.3,3.14 -0.95,0.87 -4.58,2.72 -0.61,0.26 -0.87,0.11 -0.89,-0.21 -0.65,0.04 -0.66,0.38 -1.31,0.52 -1.39,-0.07 -1.98,1.23 -2.16,0.44 -2.21,0.08 -2.8,-0.74 -2.09,-0.34 0.84,-1.12 0.71,-1.93 0.45,-0.62 0.51,-0.34 1.26,-0.53 0.57,-0.39 0.63,-1.06 0.26,-1.13 0.3,-2.4 1.69,-4.42 0,0 1.62,-4.93 0.47,-2.77 -0.13,-3.57 -0.14,-0.69 -0.29,0.09 -0.35,0.92 -0.48,0.26 -1.07,-0.39 -1.07,-0.66 -0.49,-0.59 -0.21,-0.38 -1.1,-0.48 -0.5,-0.35 -0.25,-0.39 -0.33,-0.96 -0.32,-0.54 -1.67,-2.24 -3.73,-8.24 -1.3,-1.46 -2.47,-0.68 -2.36,0.55 -1.95,1.32 -1.28,1.65 -0.75,2.5 -0.13,0.13 -0.35,0.06 -1.45,0.54 -0.2,0.13 -0.61,0.56 0.04,2.71 -0.99,1 -1.16,0 -1.18,-0.62 -0.88,-1.08 -0.37,-1.36 0.13,-2.4 -0.11,-1.19 -0.04,-0.93 0.18,-0.97 0.74,-0.87 0.64,-0.97 0.28,-1.23 0.14,-1.49 0.6,-2.18 0.82,-6.18 0.71,-2.4 0.83,-1.84 0,-0.9 0.47,-1.12 1.45,-2.07 0.31,-0.9 0.27,-1.15 0.67,-0.85 1.77,-1.56 1.68,-2.09 1.02,-0.91 2.57,-0.77 0.8,-0.94 0.6,-1.1 0.89,-0.89 1.23,-0.25 5.67,0.94 2.77,0.78 1.52,-0.04 2.11,-0.71 1.94,-1.09 0.58,-0.45 0.07,0.15 1.71,2.41 2.99,0.92 2.38,2.01 1.09,3.12 1.14,1.31 1.42,1.09 1,1.38 0.62,1.59 1.67,3.16 -0.02,2.92 0.54,3.61 2.08,0.85 z" 
                fill="rgb(151, 144, 238)" 
                stroke="white" 
                stroke-width=".7px"
                title="Bokeo" 
                id="LA-BK" 
            />
        </svg>