<svg xmlns="http://www.w3.org/2000/svg" viewBox="331.55098999999984 485.1899999999996 106.68000000000018 103.9899999999999" width="106.68000000000018" height="103.9899999999999">
            <path 
                d="m 395.14099,496.77 0,0 3.21,-2.03 2.85,-2.83 1.66,-1.03 1.79,-0.68 2.3,-0.35 2.05,-0.61 3.33,1.25 3.02,3.81 2.21,0.94 2.29,0.1 1.43,0.48 6.78,5.42 0.36,5.72 0.37,0.05 0.43,-0.1 -0.06,0.27 -0.15,0.23 1.15,0.79 1.43,0.29 2.67,-0.62 0.93,0.9 0.7,1.22 0.9,0.74 0.77,1.05 0.66,3.37 0.01,3.43 -1.22,2.05 1.02,2.71 -1.44,-0.19 -2.7,0.77 -0.71,0.86 -1.16,0.94 -1.22,1.45 -0.12,1.87 -0.98,1.6 -1.97,0.38 -1.95,-0.08 -1.32,0.92 -3.31,-1.11 -1.84,-0.13 -1.72,-1.07 -1.31,-1.63 -0.06,-1.75 0.32,-1.8 -0.19,-0.83 0.08,-0.96 0.72,-1.73 0.23,-2.07 -1.34,-1.34 -1.76,0.67 -1.47,1.24 -1.54,-0.8 -0.78,-1.85 -1.62,-0.85 -1.91,0 -1.56,0.89 -0.94,1.75 -2.79,2.17 -2.99,3.03 -2.71,4.21 0.17,4.95 0.95,1.84 1.3,1.52 1.84,1.04 1.6,1.3 1.36,5.4 1.18,1.23 1.35,1.13 1.17,1.7 0.28,1.89 0,0.89 0.41,0.79 -0.75,1.74 -0.01,0.02 -0.43,0.06 -0.86,0.24 -0.89,-0.07 -0.63,-0.16 -3.96,-2.45 -0.39,-0.41 -0.6,1.14 -0.66,3.5 -0.44,1.45 -0.96,1.41 -1.04,0.62 -1.24,0.14 -2.29,-0.13 -1.56,-0.28 -1.02,0.07 -0.7,-0.05 -0.33,0.03 -0.19,0.28 -0.17,1.05 -0.17,0.32 -1.13,0.05 -2.86,-0.99 -1.32,-0.23 -0.29,0.74 -0.11,0.77 0.09,0.76 0.31,0.72 1.27,1.03 0.72,1.08 0.23,1.29 -0.26,1.67 0.55,1.35 0.9,0.86 2.24,1.42 1.01,1.16 1.66,3.99 0.89,1 1.04,0.89 0.86,0.98 0.32,1.27 -0.48,1.24 -1.02,0.87 -1.17,0.79 -0.93,0.95 -0.79,1.02 0.12,3.15 -0.96,1.17 -1.3,0.08 -3.37,-0.87 -1.53,-0.06 -1.61,0.65 -1.6,0.16 -1.62,-0.36 -0.27,-0.15 -1.47,-0.81 -5.59,-4.92 -1.11,-1.65 -0.73,-1.86 -0.97,-1.64 -1.83,-0.99 -0.7,-0.03 -1.4,0.22 -0.93,-0.11 -1.05,-0.44 -0.66,-0.43 -0.67,-0.04 -1.02,0.74 -0.48,-1.19 -0.99,-1.05 -1.18,-0.52 -0.98,0.4 -0.38,-0.54 -0.44,-0.47 -0.5,-0.41 -0.52,-0.34 -1.82,1.29 -0.96,0.55 -1.09,0.29 -1.54,1.04 -1.82,0.62 -1.94,0.28 -1.84,-0.02 -1.06,-0.14 -0.66,-0.26 -0.54,-0.51 -1.66,-2.34 -0.48,-0.3 -0.94,-0.3 -0.45,-0.23 -1.19,-1.19 -3.88,-5.9 -0.61,-1.39 -0.25,-1.56 0.01,-2.12 0.9,0.03 3.41,-0.8 1.18,-0.48 0.46,-0.52 0.78,-1.43 0.46,-0.39 0.65,0.06 1.14,0.8 0.84,0.04 0.37,-0.29 1.23,-1.23 0.52,-0.42 0.75,-0.25 1.73,-0.32 0.67,-0.34 0.28,-0.48 0.56,-1.54 0.32,-0.66 0.42,-0.5 1.52,-1.38 2.07,-2.77 0.79,-1.81 0.17,-1.99 -0.94,-4.46 0.11,-2.06 0.5,-3.09 -0.23,-0.65 -0.71,-1.2 -0.1,-1.52 0.31,-1.52 0.5,-1.24 0.3,-0.21 0.9,-0.2 0.29,-0.26 -0.02,-0.35 -0.47,-0.95 -0.07,-1.02 0.12,-0.4 0.27,-0.07 1.03,0.04 0.35,-0.13 0.5,-1.5 -1.08,-2.14 0.64,-1.28 2.58,-1.66 0.62,-0.89 -1.73,-0.34 -0.01,0 -0.02,0 0,-0.01 -0.82,-0.63 -1.9,-2.74 -0.1,-0.27 0.02,-0.75 -0.14,-0.34 -0.29,-0.06 -0.84,0.15 -0.34,-0.09 -1.6,-1.65 -1.42,-0.28 -0.54,-1.12 0.01,-1.51 0.25,-1.45 0.44,-1.37 0.56,-0.93 2.66,-2.81 1.8,-1.48 1.87,-1.21 0.24,-0.11 0.06,-1.82 -0.22,-1.45 -0.22,-0.28 -1.27,0.24 -1.25,0.03 -1.33,-0.24 -1.02,-0.67 -0.38,-1.23 0.57,-1.5 1.3,-0.85 3.04,-0.98 2.31,-1.47 0.25,-0.25 0.23,0 1.53,-0.66 0.97,-1.12 1.76,-0.19 1.56,0.65 1.53,0.37 1.51,-0.34 0.62,-0.61 0.81,-0.2 0.57,0.48 0.57,0.6 0.74,0.42 0.77,0.3 0.72,-0.28 0.6,-0.47 0.67,-0.02 0.57,0.14 4.1,-0.08 2.21,-0.5 1.73,-0.55 1.55,0.87 1.48,-0.57 1.57,-0.06 1.49,-0.36 1.44,-0.01 1.28,1.52 0.61,1.66 -1.34,1.46 -0.41,1.95 3.85,4.25 1.73,0.74 z" 
                fill="rgb(151, 144, 238)" 
                stroke="white" 
                stroke-width=".7px"
                title="Champasak" 
                id="LA-CH" 
            />
        </svg>