<svg xmlns="http://www.w3.org/2000/svg" viewBox="196.74098999999993 107.84999999999992 120.49999999999991 94.56000000000002" width="120.49999999999991" height="94.56000000000002">
            <path 
                d="m 268.83099,112.68 0,0 0.45,-0.02 1.47,-0.42 0.61,-0.04 0.59,0.19 0.65,0.32 0.58,0.4 0.48,0.42 0.78,1.06 1.04,2.14 0.85,1.03 0.55,0.38 1.02,0.39 0.49,0.34 0.35,0.52 0.55,1.21 0.48,0.51 1.32,0.41 1.48,-0.04 1.34,0.15 0.88,0.97 0.62,2.19 1.08,1.12 3.36,1.62 3.7,1.27 0.94,0.98 -0.07,0.27 -0.44,1.64 -4.21,5.8 -1.43,1.14 -1.62,0.51 -1.7,-0.29 -1.61,-1.29 -1.38,2.73 -0.01,0 -3.73,2.56 -0.43,1.31 2.07,1.32 2.66,0.67 9.32,-0.21 0.9,0.51 1.5,2.09 1.05,0.76 2.47,0.97 0.95,0.75 0.24,0.55 0.2,0.79 0.1,0.81 -0.04,0.62 -0.44,0.95 -0.51,0.15 -0.54,-0.03 -0.55,0.42 -0.25,0.91 -0.1,1.42 0.07,1.41 0.26,0.91 2.2,1.12 2.78,-0.57 2.95,-0.99 2.63,-0.14 5.78,3.17 0.07,0.52 -0.36,0.74 0.09,1.56 0.88,1.31 2.51,1.66 0.49,1.09 -0.21,0.28 -0.9,0.18 -0.22,0.17 -0.02,0.42 0.18,0.61 0.12,1.28 0.2,0.85 0.12,0.84 -0.24,0.96 -0.25,0.22 -0.65,0.57 -0.86,0.13 -1.93,-0.23 -1.24,0.2 -0.31,0.34 -0.13,0.6 -0.6,0.96 -1.47,1.13 -3.56,2.14 -1.23,1.56 -0.41,1.28 0.34,0.39 1.93,0.12 1.23,0.41 0.48,0.39 0.02,0.63 -0.12,1.15 -0.65,2.18 -1.29,0.97 -1.6,0.72 -1.56,1.44 -1.24,0.38 -0.88,0.1 -0.81,0.23 -1.03,0.74 -0.84,0.93 -0.54,0.92 -2.06,5.52 -0.58,0.74 -0.6,0.07 -1.12,-0.66 -0.56,-0.14 -0.58,0.19 -1.01,0.68 -0.56,0.24 -1.52,0.18 -1.11,-0.24 -3.69,-2.24 -1.65,-0.73 -0.55,-0.35 -0.92,-0.94 -0.62,-0.86 -0.76,-0.58 -1.3,-0.15 -1.19,0.3 -3.03,1.95 -1.19,-2.01 -2.27,-0.78 -0.86,-0.75 -1.87,0.52 -0.01,-0.02 -0.01,-0.01 -0.12,-2.36 -0.62,-2.05 -0.15,-1.67 1.49,-4.69 -0.27,-3.3 -0.63,1.17 -0.24,1.52 -1.15,1 -1.39,0.56 -2.47,-0.2 -2.09,-1.42 -0.99,0.86 -0.74,1.15 -0.3,1.33 -0.89,0.77 -5.58,1.55 -0.89,-0.35 -0.65,-0.42 -1.29,-2.22 -0.53,-0.57 -1.69,-0.85 0.67,-1.86 0.49,-2.03 -0.38,-1.62 0.07,-1.66 -2.53,-3.33 -3.49,-2.12 -1.8,-0.01 -1.7,0.25 -3,2.27 -0.48,2.31 -0.09,2.03 -1.77,0.26 -1.9,-0.92 -1.48,1.86 -2.23,0.59 -1.81,0.22 -1.8,0.61 -1.41,1.15 -1.67,0.46 -3.39,-1.03 -3.29,-0.29 -1.38,-1.1 -1.41,-0.82 -3.21,1.37 -1.74,-1.01 -1.35,-1.43 -2.99,0.19 -2.88,0.89 -0.31,-2.96 0.21,-4.93 0.27,-1.53 -0.04,-1.07 0.43,-0.91 0.81,-0.58 0.61,-0.81 -0.41,-0.9 -2.31,-2.81 -0.83,-1.61 2.16,-3.24 4.4,-4.37 1.35,-1.84 0.12,-2.7 -0.33,-2.52 0.44,-0.84 0.4,-1 -1.21,-0.04 -1.15,-0.37 -1.26,-1.91 -0.81,-1.93 1.52,-1.78 0.93,-4.02 -0.33,-4.19 0.27,-3.3 0.82,-2.83 1.54,-1.09 1.65,-0.86 3.75,-1.2 3.37,-1.81 0.21,-0.35 0.14,-0.38 -0.07,-0.39 0.11,-0.03 1.33,-0.76 0.45,-0.43 0.2,-0.44 0.35,-0.18 0.9,0.34 0.79,0.8 1.19,2.33 0.7,0.9 0.51,0.38 0.51,0.29 0.57,0.16 0.66,0.04 0,-0.01 0,0.01 0,0.01 4.02,0.86 1.27,0.74 2.52,2.75 1.42,1.26 0.21,0.28 0.28,0.17 0.71,0.12 0.59,-0.08 0.8,-0.27 0.7,-0.36 0.38,-0.35 -0.03,-0.56 -0.66,-1.35 -0.08,-0.66 0.31,-0.92 0.41,-0.27 0.56,-0.07 0.8,-0.29 1.32,-0.83 0.26,-0.48 -0.22,-0.67 -0.14,-1.43 0.24,-1.12 0.55,-1.41 0.67,-1.3 0.64,-0.77 0.72,-0.25 1.32,0.18 0.66,-0.05 0.58,-0.32 0.96,-0.87 0.53,-0.34 4.79,-1.55 1.31,-0.59 0.66,-0.17 0.76,0.03 2.38,-0.4 3,-3.54 2.32,-0.17 0.45,0.25 0.98,0.74 0.55,0.27 0.61,0.11 1.48,0.03 0.69,0.1 1.86,0.69 0.48,0.31 0.38,0.54 0.68,1.44 0.23,0.35 z" 
                fill="rgb(151, 144, 238)" 
                stroke="white" 
                stroke-width=".7px"
                title="Houaphan" 
                id="LA-HO" 
            />
        </svg>