<svg xmlns="http://www.w3.org/2000/svg" viewBox="272.79098999999985 295.08000000000055 138.20000000000022 91.95999999999981" width="138.20000000000022" height="91.95999999999981">
            <path 
                d="m 343.54099,302.17 0,0 0.6,-0.4 0.26,-0.48 0.3,-1.52 0.38,-0.64 1.18,-0.52 1.39,0.09 1.3,0.54 1,0.8 0.4,0.62 0.52,1.86 0.02,0.42 -0.13,0.36 -0.15,0.26 -0.05,0.16 0.3,0.25 0.74,0.18 0.26,0.2 1.07,2.42 0.53,0.47 1.14,0.63 0.55,0.53 0.35,0.76 0.24,1.56 0.24,0.67 0.44,0.49 1.55,0.85 0,0.01 0.88,1.81 0.17,0.35 -0.77,5.2 0.72,2.32 2.52,2.33 1.69,3.22 1.44,1.98 0.6,1.13 0.82,2.61 0.61,1.09 0.79,0.64 3.4,1.51 2.11,1.4 1.7,1.61 4.24,5.54 1.37,1.44 0.01,0 5.67,6.91 10.82,9.36 1.42,0.75 0.95,0.1 0.75,-0.48 0.94,-0.98 0.29,-0.56 0.16,-0.59 0.34,-0.42 0.82,-0.04 0.78,0.35 0.14,0.56 -0.06,0.72 0.14,0.83 0.34,0.47 0.9,0.95 0.23,0.4 -0.05,0.63 -0.53,1.08 -0.05,0.71 0.36,1.03 1.97,3.27 3.13,2.94 0.67,1.18 -0.04,0.4 -0.42,0.72 -0.05,0.3 1.1,2.22 -0.01,0 -4.06,0.36 -3.69,-1.26 -1.97,-0.3 -1.81,-0.79 -2.97,-3.07 -1.75,-1 -1.83,-0.26 -0.35,1.04 -0.23,1.06 -0.73,0.66 -0.79,0.55 -6.56,0.95 -6.83,-0.43 -5.21,-1.68 -5.19,-2.29 -2.46,-0.53 -2.37,0.46 -0.39,2.82 -0.95,1.75 -2.62,-0.64 -7.12,-3.24 -4.01,0.41 -3.29,-0.18 -1.8,1.91 -2.44,1.09 -1.63,-0.59 -0.79,0.19 -0.77,0.31 -1.95,-0.1 -1.55,-1.12 -1.09,-1.64 -1.49,-1.03 -1.57,0.68 -1.53,1.1 -1.99,0.72 -2.19,-0.28 -1.45,-1.38 -3.37,0.84 -1.86,-0.76 -1.37,0.7 -1.04,1.1 -1.59,-0.36 -1.67,-0.62 -1.51,0.63 -0.21,1.93 -1.37,0.95 -1.35,1.55 -0.07,1.22 1.28,-0.9 1.13,1.12 0.95,3.96 -0.88,1.7 -3.63,-0.46 -1.96,-2.01 -0.39,-4.02 0.32,-1.51 4.21,-10.01 0.29,-1.52 0.25,-3.15 -0.12,-4.09 0.23,-3.33 -0.04,-0.83 -0.19,-0.8 -1.55,-3.46 -0.24,-0.37 -0.48,-0.43 -1.1,-0.62 -0.51,-0.38 -0.47,-0.56 -1,-1.96 -1.29,-1.94 -0.77,-0.82 -3.1,-1.97 -1.22,-0.43 -10.1,-5.33 -1.9,-1.75 -1.94,-2.31 -0.29,-0.53 -0.4,-1.36 -0.18,-0.43 -0.26,-0.43 -0.95,-1.17 -1.47,-2.97 -0.99,-1.28 -4.23,-2.56 -0.37,-0.33 1.06,-3.53 4.2,-7.14 0.54,-1.98 0.81,-1.91 1.21,-4.13 2.01,-3.46 2.59,-0.33 2.53,-0.68 0.01,-0.82 0.55,-0.23 0.55,-0.17 1.38,-0.83 1.87,1.92 2.46,1.06 5.09,3.91 6.42,3.64 2.04,2.45 0.46,2.49 2.6,0.39 2.16,1.46 1.53,1.36 7.28,1.1 3.56,-0.65 2.47,-2.79 1.73,-4.33 2.17,-3.94 3.18,-4.37 1.04,-4.93 1.7,-0.18 0.32,-0.22 0.3,0.04 0.44,0.74 0.1,0.76 -0.42,1.64 0.04,0.78 0.69,1 1.06,0.75 1.18,0.51 1.03,0.27 0.49,0.24 0.14,0.28 0.18,0.08 z" 
                fill="rgb(151, 144, 238)" 
                stroke="white" 
                stroke-width=".7px"
                title="Khammouan" 
                id="LA-KH" 
            />
        </svg>