<svg xmlns="http://www.w3.org/2000/svg" viewBox="27.520989999999994 66.5200000000001 82.33999999999999 87.37999999999994" width="82.33999999999999" height="87.37999999999994">
            <path 
                d="m 73.80099,79.24 0,0 0.29,-0.06 0.15,0.01 0.11,0.56 -0.78,2 -1,1.41 0.13,0.43 0.58,0.61 0.13,0.26 -0.09,0.96 -0.65,2.59 0.74,0.82 0.94,1.92 0.62,0.94 1,0.93 1.01,0.38 1.14,-0.14 1.38,-0.61 3.15,-2.17 1.25,-0.46 7.4,-1.43 1.46,0.02 1.4,0.26 2.21,0.75 0.44,0.04 0.28,0.22 0.27,0.78 -0.1,0.63 -0.37,0.67 -0.24,0.66 0.29,0.67 0.96,0.16 2.57,-1.13 1.25,0.02 0.98,0.85 1.18,2.18 1.04,0.75 0.89,0.04 1.27,-0.21 1.21,-0.4 0.7,-0.52 0.11,-0.68 0.76,1.32 -0.77,5.32 -1.02,2.49 -1.42,2.16 -2.53,0.95 -2.51,1.31 -2.18,1.92 -0.2,2.67 0.78,1.04 -0.35,1.07 -2.82,-0.02 -1.02,0.49 -2.51,0.61 -2.96,2.69 -2.35,4.65 -2.34,1.22 6.3,2.17 0.69,1.73 2.37,1.9 0.55,1.06 0.5,5.47 -1.83,5.49 -0.99,1.44 -1.26,1.2 -1.14,1.61 -2.15,4.09 -5.1,2.36 -6.54,0.42 -3.19,-0.22 0.07,0.73 -2.04,-0.5 -4.55,1.11 -4,-1.01 -1.44,-0.54 -2.4,-2.02 -0.19,-1.78 0.02,-2.28 -1.08,-2.45 -1.42,-2.19 -1.82,-1.39 -4.82,0.59 -2.08,-0.85 -0.54,-3.61 0.02,-2.92 -1.67,-3.16 -0.62,-1.59 -1,-1.38 -1.42,-1.09 -1.14,-1.31 -1.09,-3.12 -2.38,-2.01 -2.99,-0.92 -1.71,-2.41 -0.07,-0.15 1.23,-0.95 1.66,-1.61 0,-0.43 -1.89,-0.4 -5.79,1.02 -1.2,-0.88 0.13,-1.38 0.61,-2.83 0.14,-1.5 0.26,-0.35 1.22,-0.83 0.34,-0.46 -0.1,-0.55 -0.8,-1.92 1.2,-0.54 2.93,-0.62 1.22,-0.71 0.78,-1.08 3.38,-6.26 2.06,-8.48 0.1,-0.84 -0.04,-0.77 0.22,-0.56 0.85,-0.21 0.61,0.03 0.58,0.13 0.54,0.23 0.5,0.34 1.26,0.48 1.47,-0.19 2.39,-1.02 0.73,-0.6 2.19,-2.27 0.9,-0.3 6.09,-3.21 9.1,-7.52 0.91,-0.44 0.26,-1.05 -0.14,-1.26 1.01,0.07 0.79,1.15 0.07,2.06 -1.27,5.69 0.21,1.48 0.5,0.36 1.88,1.03 1.2,0.88 z" 
                fill="rgb(151, 144, 238)" 
                stroke="white" 
                stroke-width=".7px"
                title="Louang Namtha" 
                id="LA-LM" 
            />
        </svg>