<svg xmlns="http://www.w3.org/2000/svg" viewBox="105.14099000000002 95.33000000000014 109.57999999999993 145.00000000000006" width="109.57999999999993" height="145.00000000000006">
            <path 
                d="m 186.67099,100.56 0,0 0.95,-0.13 1.63,0.72 1,1.17 1.47,3.14 2.03,4.48 1.2,2.04 1.86,2.34 0.96,0.94 0.42,0.31 0.69,0.31 1.17,0.17 0.67,0.17 0.55,0.29 0.87,0.64 0.64,0.23 0.76,0.01 0.47,-0.14 0.8,-0.24 0.59,-0.06 1.06,0.3 3.67,1.99 1.82,0.61 0.69,0.1 0.36,0 1.65,-0.46 0.07,0.39 -0.14,0.38 -0.21,0.35 -3.37,1.81 -3.75,1.2 -1.65,0.86 -1.54,1.09 -0.82,2.83 -0.27,3.3 0.33,4.19 -0.93,4.02 -1.52,1.78 0.81,1.93 1.26,1.91 1.15,0.37 1.21,0.04 -0.4,1 -0.44,0.84 0.33,2.52 -0.12,2.7 -1.35,1.84 -4.4,4.37 -2.16,3.24 0.83,1.61 2.31,2.81 0.41,0.9 -0.61,0.81 -0.81,0.58 -0.43,0.91 0.04,1.07 -0.27,1.53 -0.21,4.93 0.31,2.96 -0.84,1.54 -1.28,1.1 -3.27,0.23 -1.57,0.66 -1.41,1.02 -1.98,0.94 -1.75,1.18 -0.1,3.27 -0.44,3.24 -2.39,0.52 -2.65,-0.14 0.27,1.63 -0.85,1.27 -2.99,2.74 -3.88,2.67 -1.26,1.26 -1.07,1.49 -2.97,2.28 -0.68,3.65 0.84,3.56 1.8,1.58 1.56,1.9 1.36,3.94 -2.74,2.81 -3.58,1.08 -4.76,2.33 -2.28,-1.71 -2.1,-2.02 -0.56,-1.57 -0.8,-1.4 -1.33,-0.34 -1.36,-0.59 0.51,-1.11 0.35,-1.19 -1.87,0.16 -1.85,-0.16 -1.1,-0.7 -0.95,-0.75 -1.87,0.67 -2.14,1.17 -2.01,-1.39 -2.21,0.47 -1.03,-0.87 -0.89,-1.02 -1.64,-0.42 -1.73,0.11 -2.35,0.41 -1.98,1.2 -0.96,4.24 -0.94,0.9 -1.05,0.83 -0.69,0.96 -0.9,0.68 -1.28,0.42 -0.7,0.95 -0.66,2.86 -1.94,4.09 -3.19,3 -1.93,0.36 -0.61,0.55 -0.59,0.73 -1.37,1.01 -1.85,1.49 0.65,-6.71 0.55,-2.31 0.11,-1.39 -0.42,-4.08 0.02,-1.31 0.39,-0.91 1.5,-2.29 0.33,-1.34 0.5,-1.06 2.17,-2.29 0.45,-0.68 -0.65,-0.77 -2.56,-1.16 -1.02,-0.66 -0.8,-0.92 -0.53,-0.9 -0.28,-0.99 -0.11,-9.23 0.61,-2.4 -0.61,-0.49 -1.86,0.18 -1.85,-0.09 -0.73,-1.75 -0.05,-4.18 0.61,-1.28 1.15,-3.17 -0.09,-3.31 -0.71,-1.31 -1.05,-1 -0.96,-1.22 -1.45,-1.84 2.63,-0.71 5.3,-0.48 2.33,-0.66 2.18,-1.51 3.36,-3.8 1.58,-1.35 1.16,-0.41 3.57,0.41 1.07,-0.31 3.62,-2.11 2.15,-0.22 1.06,-2.12 1.73,-1.6 0.47,-2.37 -0.93,-2.25 -1.96,-2.58 0.13,-2.97 0.9,-1.9 -0.19,-1.93 -1.12,-1.04 -0.88,-1.22 0.2,-2.07 2.86,-6.26 1.26,-3.75 1.68,-3.68 0.23,-1.64 4.43,-0.66 2.27,-2.46 0.98,-3.26 0.1,-1.35 -0.46,-1.21 -0.56,-0.9 0.08,-0.93 -0.31,-1.67 1.04,-2.77 -0.04,-1.48 -0.57,-1.78 -2.09,-2.79 -0.07,-1.92 2.4,1.18 2.08,1.32 1.95,0.1 1.89,0.34 0.81,0.82 0.28,1.36 3.58,1.4 3.75,-4.54 1.42,-0.93 1.62,-0.4 2.21,0.35 1.04,-2.13 0.93,-0.55 4.36,-1.81 0.06,-0.4 0.27,-0.55 0.58,-0.18 1.88,-0.2 0.59,-1.11 0.02,-1.84 0.48,-3.31 0.66,-1.28 0.97,0 1.07,0.33 5.23,-0.4 0.02,0 0.61,2.67 0.45,1.23 0.3,0.62 0.31,0.48 0.52,0.23 z" 
                fill="rgb(151, 144, 238)" 
                stroke="white" 
                stroke-width=".7px"
                title="Louangphrabang" 
                id="LA-LP" 
            />
        </svg>