<svg xmlns="http://www.w3.org/2000/svg" viewBox="343.04099 412.63000000000005 115.62000000000018 84.1400000000001" width="115.62000000000018" height="84.1400000000001">
            <path 
                d="m 440.68099,420.72 0,0 0.43,-0.15 0.41,-0.22 0.23,-0.05 0.79,1.84 0.61,0.84 1.12,0.94 1.59,0.88 0.43,0.38 0.3,0.67 0.22,1.52 0.16,0.46 0.7,0.49 0.85,0.1 2.22,-0.07 2.54,0.28 0.95,0.3 0.17,0.06 1.21,0.6 1.25,0.93 0.55,0.87 0.7,3.64 0.38,0.86 0.17,0.23 0,0.02 -0.05,0.15 -0.96,1.77 -1.31,1.31 -1.2,1.53 -0.35,1.32 -0.49,1.17 -2.37,0.74 -1.54,1.13 -1.61,0.76 -1.8,-0.49 -0.58,0.66 -0.85,0.52 -2.33,-0.07 -2.23,-0.39 -1.46,-0.8 -1.6,-0.14 -1.07,1.78 -0.54,2.07 0.48,0.99 0.26,1.07 -0.67,0.6 -0.81,0.57 -3.03,3.25 -2.28,3.35 -1.71,3.67 -1.42,1.16 0.19,1.58 1.61,1.11 1.29,1.37 -0.98,0.83 -0.71,1.44 1.13,1.81 0.47,2.15 -0.37,0.38 -0.45,0.74 0.02,0.87 0.16,0.85 0.15,1.54 -0.74,0.94 -3.34,-0.5 -2.31,1.49 -3.86,0.04 -2.41,-0.42 -2.21,0.37 -0.7,1.66 -1.35,0.97 -1.84,-0.38 -1.62,-0.83 -1.72,-0.23 -1.52,0.6 -0.35,1.69 -0.74,0.22 -0.72,0.55 1.07,3.22 3.71,1.36 -2.05,0.61 -2.3,0.35 -1.79,0.68 -1.66,1.03 -2.85,2.83 -3.21,2.03 -1.73,-0.74 -3.85,-4.25 0.41,-1.95 1.34,-1.46 -0.61,-1.66 -1.28,-1.52 -1.44,0.01 -1.49,0.36 -1.57,0.06 -1.48,0.57 -1.55,-0.87 -1.73,0.55 -2.21,0.5 -4.1,0.08 -0.57,-0.14 -0.67,0.02 -0.6,0.47 -0.72,0.28 -0.77,-0.3 -0.74,-0.42 -0.57,-0.6 -0.57,-0.48 -0.81,0.2 -0.62,0.61 -1.51,0.34 -1.53,-0.37 -1.56,-0.65 -1.76,0.19 -0.97,1.12 -1.53,0.66 -0.23,0 0.79,-0.79 0.4,-1.21 0.1,-2.86 0.28,-1.48 1.6,-4.19 0.66,-3.47 -0.66,-3.2 -1.82,-2.67 -2.89,-1.89 -2.81,-0.96 -1.43,-0.18 -2.67,0.23 -0.94,-0.14 -0.8,-0.46 -0.83,-0.83 -0.71,-1.07 -2.57,-5.58 -0.78,-2.52 0.12,-2.4 1.57,-1.76 1.36,-0.55 0.7,-0.39 0.37,-0.5 -0.04,-0.2 0.03,-0.01 4.98,0.5 3.89,1.86 4.31,1.22 4.12,1.68 0.63,0.56 0.69,0.49 1.99,-0.02 3.25,1.82 3.4,-0.42 1.62,0.59 1.69,0.19 3.01,-2.39 2.82,-2.88 1.87,-0.06 1.84,0.53 1.9,-0.04 3.36,-1.51 1.29,-1.15 -0.11,-1.71 -0.7,-1.7 -0.06,-3.48 -0.48,-1.66 0.11,-1.75 0.47,-0.77 0.72,-0.46 1.09,-0.21 0.29,-0.44 0.21,-0.41 2.05,-0.15 2.06,0.31 1.54,0.51 1.3,0.89 0.89,2.1 1.29,1.55 0.43,-1.25 0.28,-1.61 1.16,-0.25 3.55,0.65 1.64,-0.73 2.33,-0.11 2.25,-0.62 1.51,-1.47 1.83,-0.47 1.55,0.82 1.58,0.11 1.15,-0.74 1.99,-0.66 0.88,-1.6 -0.43,-2.24 0.16,-1.62 1.62,-3.16 1.1,-0.92 1.47,0.96 1.69,-0.15 3.17,-1.47 0.84,-1.69 0.28,-2.04 -0.84,-1.64 -0.78,-0.12 -0.82,0.03 -0.45,-0.3 0.07,-0.05 0.12,-0.51 0.01,-0.52 0.3,-0.56 1.76,-1.13 0.73,-0.7 0.26,-1.13 1.4,-2.37 1.55,0.06 1.13,1.77 0.18,2.73 -0.27,2.26 -0.08,0.18 -0.21,0.22 -0.15,0.29 0,0.39 0.26,0.19 z" 
                fill="rgb(151, 144, 238)" 
                stroke="white" 
                stroke-width=".7px"
                title="Saravan" 
                id="LA-SL" 
            />
        </svg>