<svg xmlns="http://www.w3.org/2000/svg" viewBox="303.04099000000014 372.74000000000007 133.4699999999999 84.0300000000002" width="133.4699999999999" height="84.0300000000002">
            <path 
                d="m 384.24099,377.67 0,0 6.56,-0.95 0.79,-0.55 0.73,-0.66 0.23,-1.06 0.35,-1.04 1.83,0.26 1.75,1 2.97,3.07 1.81,0.79 1.97,0.3 3.69,1.26 4.06,-0.36 0.01,0 0.31,0.63 0.17,0.65 0,0.01 0.58,0.48 1.1,0.56 1.26,0.47 1.12,0.19 1.51,0.46 1.8,-1.72 0.58,1.13 0.01,1.5 0.1,18.17 0.36,1.66 0.59,1.45 1.48,1.65 1.23,0.75 1.32,0.54 0.87,0.07 0.99,0.47 0.27,0.77 -0.3,3.63 0.1,0.78 0.91,2.68 1.01,1.8 1.44,1.12 1.94,-0.31 0,0.73 0.2,0.31 0.44,-0.03 0.65,-0.27 0.59,-0.46 0.45,0.3 0.82,-0.03 0.78,0.12 0.84,1.64 -0.28,2.04 -0.84,1.69 -3.17,1.47 -1.69,0.15 -1.47,-0.96 -1.1,0.92 -1.62,3.16 -0.16,1.62 0.43,2.24 -0.88,1.6 -1.99,0.66 -1.15,0.74 -1.58,-0.11 -1.55,-0.82 -1.83,0.47 -1.51,1.47 -2.25,0.62 -2.33,0.11 -1.64,0.73 -3.55,-0.65 -1.16,0.25 -0.28,1.61 -0.43,1.25 -1.29,-1.55 -0.89,-2.1 -1.3,-0.89 -1.54,-0.51 -2.06,-0.31 -2.05,0.15 -0.21,0.41 -0.29,0.44 -1.09,0.21 -0.72,0.46 -0.47,0.77 -0.11,1.75 0.48,1.66 0.06,3.48 0.7,1.7 0.11,1.71 -1.29,1.15 -3.36,1.51 -1.9,0.04 -1.84,-0.53 -1.87,0.06 -2.82,2.88 -3.01,2.39 -1.69,-0.19 -1.62,-0.59 -3.4,0.42 -3.25,-1.82 -1.99,0.02 -0.69,-0.49 -0.63,-0.56 -4.12,-1.68 -4.31,-1.22 -3.89,-1.86 -4.98,-0.5 -0.03,0.01 -0.08,-0.33 -0.49,-0.36 -0.63,-0.25 -7.57,-1.93 -2.68,-0.12 -0.67,-0.11 -8.48,-3.06 -1.8,-0.64 -1.38,-1.07 -1.02,-1.38 -0.64,-1.61 -0.25,-1.78 0.06,-3.02 -0.22,-1.47 -0.71,-1.29 -0.52,-0.46 -1.26,-0.71 -0.57,-0.32 -0.51,-0.38 -1.27,-1.37 -0.52,-0.43 -1.74,-1 -0.6,-0.53 -0.42,-0.62 -0.3,-0.7 -0.61,-2.11 -0.53,-1.22 -0.69,-1.13 -0.88,-1.06 -1.08,-0.93 -3.65,-1.99 -1.15,-0.97 -0.69,-1.19 -0.33,-1.39 -0.07,-1.53 0.3,-2.92 0.7,-2.85 0.9,-2.53 0.09,-0.74 -0.04,-0.75 -1.4,-5.62 -0.03,-0.77 0.1,-0.62 0.03,-0.2 0.44,-1.55 0.13,-0.78 -0.05,-0.82 -0.23,-0.74 -0.64,-1.41 -0.22,-0.75 -0.21,-2.23 1.96,2.01 3.63,0.46 0.88,-1.7 -0.95,-3.96 -1.13,-1.12 -1.28,0.9 0.07,-1.22 1.35,-1.55 1.37,-0.95 0.21,-1.93 1.51,-0.63 1.67,0.62 1.59,0.36 1.04,-1.1 1.37,-0.7 1.86,0.76 3.37,-0.84 1.45,1.38 2.19,0.28 1.99,-0.72 1.53,-1.1 1.57,-0.68 1.49,1.03 1.09,1.64 1.55,1.12 1.95,0.1 0.77,-0.31 0.79,-0.19 1.63,0.59 2.44,-1.09 1.8,-1.91 3.29,0.18 4.01,-0.41 7.12,3.24 2.62,0.64 0.95,-1.75 0.39,-2.82 2.37,-0.46 2.46,0.53 5.19,2.29 5.21,1.68 6.83,0.43 z" 
                fill="rgb(151, 144, 238)" 
                stroke="white" 
                stroke-width=".7px"
                title="Savannakhét" 
                id="LA-SV" 
            />
        </svg>