<svg xmlns="http://www.w3.org/2000/svg" viewBox="85.05099000000006 215.53999999999976 162.46999999999997 109.65000000000006" width="162.46999999999997" height="109.65000000000006">
            <path 
                d="m 140.11099,217.85 0,0 2.21,-0.47 2.01,1.39 2.14,-1.17 1.87,-0.67 0.95,0.75 1.1,0.7 1.85,0.16 1.87,-0.16 -0.35,1.19 -0.51,1.11 1.36,0.59 1.33,0.34 0.8,1.4 0.56,1.57 2.1,2.02 2.28,1.71 4.76,-2.33 3.58,-1.08 2.74,-2.81 0.85,1.65 2.25,0.98 1.02,0.64 0.01,0.02 0.81,0.19 2.01,2.16 1.85,0.93 1.56,1.19 1.03,0.27 1.01,-0.24 1.26,-0.14 5.57,1.31 1.36,0.57 1.96,1.93 2.27,0.4 2.4,0.13 6.47,1.28 0.82,-0.24 0.66,-0.33 2.27,-0.12 1.79,-0.8 1.44,0.28 1.42,0.09 1.33,1.08 1.61,0.01 0.47,-1.51 1.03,-0.48 1.09,-0.17 2.02,0.3 1.7,1.28 1.48,1.7 1.6,1.4 2.02,0.16 2.86,1.05 4.18,-0.21 2.6,1.42 2.03,0.83 2.41,-0.14 2.1,0.66 1.61,1.53 0.53,4.47 -0.55,4.6 -2.02,0.81 -1.95,0.99 -1.42,1.2 -1.78,0.44 -1.75,-0.68 -1.56,-1.12 -1.86,-1.06 -1.65,-1.35 -1.87,-0.95 -1.98,-0.63 -2.65,-2.65 -2.16,0.15 -3.48,1.19 0,1.74 0.35,2.01 0.82,1.86 0.74,0.16 0.29,0.53 -0.72,0.45 -1,0.05 -0.65,1.64 0.26,2.2 0.55,2.16 0.3,2.29 0,2.9 -0.72,2.48 -1.49,1.5 -1.73,1.44 -4.55,2.65 -5.14,1.27 -7.86,0.39 -5.52,0.96 -12.77,-0.79 -4.31,0.97 2.34,5.12 1.38,1.58 1.52,1.36 0.76,3.44 -0.64,3.41 -3.43,-1.05 -5.33,1.05 -1.78,0.94 -2.43,0.79 -2.59,0.32 -2.97,2.62 -1.4,-0.06 -0.93,-0.8 -0.94,0.27 -1.76,-0.31 -0.2,0.08 -0.1,-0.3 0.02,-1.17 -0.3,-0.81 -0.73,-0.3 -0.74,-0.14 -0.32,-0.32 -1.08,-1.11 -2.14,0.19 -0.89,-0.54 -0.82,-0.35 -1.91,0.28 -1.87,-0.35 -2.66,-1.06 -2.8,-0.79 -2.16,-1.51 -0.72,-2.3 -1.1,-1.56 -1.33,-1.32 -2.04,-0.08 -2,0.45 -1.28,1.37 -1.47,0.75 -1.76,-0.96 -1.61,-0.43 -0.49,1.45 1.03,1.54 -0.04,1.84 -1.28,5.5 0.14,3.49 0.36,0.62 0.29,0.65 0.29,0.34 0.02,0.01 -9.85,10.64 -1.34,0.43 -2.51,-1.46 -2.55,-0.7 -0.61,-0.77 -0.41,0 -1.07,1.03 -0.53,1.25 -0.58,2.91 -1.59,4.5 -0.22,1.36 -6.05,1.19 -1.07,0.7 -0.56,1.31 -0.7,0.76 -1.49,-0.94 0,1.04 -0.16,0.9 -0.3,0.74 -0.42,0.59 -1.21,0.45 -0.01,-0.01 -0.12,-0.11 -0.43,-0.34 0,-0.43 1.16,-2.07 0.18,-0.52 -0.41,-0.72 -0.9,0.11 -0.93,0.47 -0.47,0.4 -0.45,0 -0.31,-1.03 -0.57,-0.22 -1.58,0.31 -0.97,-0.19 -0.44,-0.51 -0.3,-0.69 -1.39,-2.33 0.07,-1.76 0.41,-1.91 0.15,-2.04 -0.4,-4.91 -0.27,-0.85 -1.22,-2.15 -0.33,-0.93 0.27,-2.8 1.14,-2.23 3.04,-3.48 0.57,-1.04 0.32,-0.9 0.61,-0.63 1.42,-0.24 1.15,-0.38 1.11,-0.92 0.94,-1.09 0.63,-0.93 0.15,-0.66 0.06,-0.77 0.23,-0.65 0.98,-0.4 1.45,-1 0.73,-1.07 1.18,-2.5 0.99,-0.92 0.72,0.39 0.81,0.06 0.84,-0.16 0.75,-0.29 1.45,-1.2 0.14,-0.21 0.68,-0.74 1.39,-3.25 1.01,-1.32 2.04,-3.64 0.3,-1.31 0.28,-2.88 0.31,-1.44 1.95,-4.11 0.48,-2.06 -0.7,-2.29 -2.73,-3 -0.37,-1.05 0.16,-1.28 0.66,-2.56 0.06,-1.59 -0.12,-1.42 -0.17,-0.64 -0.35,-0.53 -0.25,-0.59 0.11,-0.73 0.25,-0.79 0.11,-1.19 1.85,-1.49 1.37,-1.01 0.59,-0.73 0.61,-0.55 1.93,-0.36 3.19,-3 1.94,-4.09 0.66,-2.86 0.7,-0.95 1.28,-0.42 0.9,-0.68 0.69,-0.96 1.05,-0.83 0.94,-0.9 0.96,-4.24 1.98,-1.2 2.35,-0.41 1.73,-0.11 1.64,0.42 0.89,1.02 1.03,0.87 z" 
                fill="rgb(151, 144, 238)" 
                stroke="white" 
                stroke-width=".7px"
                title="Vientiane" 
                id="LA-VI" 
            />
        </svg>