<svg xmlns="http://www.w3.org/2000/svg" viewBox="126.7009900000001 282.6400000000004 68.29999999999993 42.7999999999999" width="68.29999999999993" height="42.7999999999999">
            <path 
                d="m 150.28099,291.61 0,0 1.91,-0.28 0.82,0.35 0.89,0.54 2.14,-0.19 1.08,1.11 0.32,0.32 0.74,0.14 0.73,0.3 0.3,0.81 -0.02,1.17 0.1,0.3 0.2,-0.08 1.76,0.31 0.94,-0.27 0.93,0.8 1.4,0.06 2.97,-2.62 2.59,-0.32 2.43,-0.79 1.78,-0.94 5.33,-1.05 3.43,1.05 3.29,1.12 2.67,1.8 0.53,1.43 0.43,1.16 0.05,1.32 0.14,0.48 -0.2,0.62 -0.14,0.68 -0.16,0.47 -0.32,0.42 -0.24,0.5 0.09,0.75 0.43,0.77 0.59,0.37 0.69,-0.02 0.72,-0.4 0.77,-1.22 0.61,-1.34 0.75,-0.3 1.21,1.93 0.04,0.08 -0.49,0.26 -0.56,0.63 -0.32,0.91 -0.1,1.25 0.53,4.01 -0.31,0.67 -0.65,0.44 -0.58,0.98 -0.74,0.98 -1.14,0.44 -1.09,-0.3 -2.01,-1.31 -1.17,-0.3 -1.06,0.22 -5.6,2.53 -0.95,0.56 -0.4,0.73 -3.77,2.08 -2.39,2.21 -0.99,0.59 -2.31,0.57 -0.89,0.56 -0.35,1.04 0.37,1.25 0.62,0.99 0,0.5 -1.44,-0.19 -3.34,-1.65 -0.92,-0.26 0.02,-0.64 1.09,-4.46 -0.83,-2.73 -2.09,-1.07 -5.57,-0.02 -2.38,-0.46 -2.16,-1.12 -1.77,-1.5 -1.22,-1.56 -1.94,0.12 -1.95,-0.98 -3.26,-2.92 -1.53,-2.06 -0.49,-0.28 -0.24,-0.23 -1.97,-1.41 -0.62,-1.17 -0.24,-1.15 -0.42,-0.98 -1.2,-0.68 -3.01,-0.15 -1.88,-0.1 -0.47,0.36 -1.02,1.11 -0.02,-0.01 -0.29,-0.34 -0.29,-0.65 -0.36,-0.62 -0.14,-3.49 1.28,-5.5 0.04,-1.84 -1.03,-1.54 0.49,-1.45 1.61,0.43 1.76,0.96 1.47,-0.75 1.28,-1.37 2,-0.45 2.04,0.08 1.33,1.32 1.1,1.56 0.72,2.3 2.16,1.51 2.8,0.79 2.66,1.06 1.87,0.35 z" 
                fill="rgb(151, 144, 238)" 
                stroke="white" 
                stroke-width=".7px"
                title="Vientiane [prefecture]" 
                id="LA-VT" 
            />
        </svg>