<svg xmlns="http://www.w3.org/2000/svg" viewBox="18.62098999999999 179.47000000000014 99.46000000000002 169.80999999999977" width="99.46000000000002" height="169.80999999999977">
            <path 
                d="m 110.27099,198.62 0,0 1.86,-0.18 0.61,0.49 -0.61,2.4 0.11,9.23 0.28,0.99 0.53,0.9 0.8,0.92 1.02,0.66 2.56,1.16 0.65,0.77 -0.45,0.68 -2.17,2.29 -0.5,1.06 -0.33,1.34 -1.5,2.29 -0.39,0.91 -0.02,1.31 0.42,4.08 -0.11,1.39 -0.55,2.31 -0.65,6.71 -0.11,1.19 -0.25,0.79 -0.11,0.73 0.25,0.59 0.35,0.53 0.17,0.64 0.12,1.42 -0.06,1.59 -0.66,2.56 -0.16,1.28 0.37,1.05 2.73,3 0.7,2.29 -0.48,2.06 -1.95,4.11 -0.31,1.44 -0.28,2.88 -0.3,1.31 -2.04,3.64 -1.01,1.32 -1.39,3.25 -0.68,0.74 -0.14,0.21 -1.45,1.2 -0.75,0.29 -0.84,0.16 -0.81,-0.06 -0.72,-0.39 -0.99,0.92 -1.18,2.5 -0.73,1.07 -1.45,1 -0.98,0.4 -0.23,0.65 -0.06,0.77 -0.15,0.66 -0.63,0.93 -0.94,1.09 -1.11,0.92 -1.15,0.38 -1.42,0.24 -0.61,0.63 -0.32,0.9 -0.57,1.04 -3.04,3.48 -1.14,2.23 -0.27,2.8 0.33,0.93 1.22,2.15 0.27,0.85 0.4,4.91 -0.15,2.04 -0.41,1.91 -0.07,1.76 1.39,2.33 0.3,0.69 0.44,0.51 0.97,0.19 1.58,-0.31 0.57,0.22 0.31,1.03 0.45,0 0.47,-0.4 0.93,-0.47 0.9,-0.11 0.41,0.72 -0.18,0.52 -1.16,2.07 0,0.43 0.43,0.34 0.12,0.11 0.01,0.01 -0.75,0.28 1.45,1.2 -1.28,0.89 -2.2,0.94 -1.29,1.34 -0.26,0.53 -0.31,0.5 -0.25,0.55 -0.14,0.15 -0.6,-1.3 -0.11,-0.43 -0.08,-0.31 -0.17,-0.05 -0.24,0.12 -0.3,0.24 -0.86,0.83 -0.98,0.08 -0.98,-0.09 -0.91,0.3 -0.39,0.59 0.42,0.2 0.67,0.04 0.35,0.11 -0.06,0.42 -0.1,0.19 -1.16,1.49 -0.41,0.15 -0.5,-0.03 -0.81,0.28 -7.19,5.94 -1.19,1.61 -1.31,2.54 -0.42,0.56 -0.77,0.3 -0.87,0.16 -0.67,0.4 -0.16,1.01 0,0 -1.11,1.59 -0.35,0.36 -0.62,0.38 -0.22,0.03 -0.28,-0.19 -1.86,-0.77 -1.95,-1.16 -1.09,-0.24 -0.9,-1.15 -1.07,-0.96 -1.19,-0.79 -1.26,-0.64 -2.85,-0.54 -2.33,-0.44 -1.04,-0.81 -0.02,-1.51 0.9,-1.44 2.18,-2.57 1.36,-3.09 0.13,-0.53 0.32,-1.23 -0.13,-1.38 -0.15,-0.7 0.14,-0.56 0.41,-0.44 0.61,-0.34 0.06,-0.14 0.02,-0.15 -0.02,-0.14 -0.06,-0.15 -0.43,-0.48 -0.16,-0.45 0.12,-0.42 0.47,-0.37 1.34,-0.58 0.35,-0.88 -0.2,-2.33 0.24,-1.38 0.48,-0.72 2.06,-1.15 1.71,-1.5 1.03,-1.67 0.85,-1.78 1.13,-1.84 0.85,-0.69 2.09,-1.31 0.5,-0.89 -0.2,-0.96 -1.11,-2.55 -0.22,-1.32 0.26,-1.23 0.97,-2.58 0.15,-1.08 -0.23,-0.6 -0.43,-0.34 -0.47,-0.27 -0.38,-0.4 -0.52,-1.38 -0.21,-0.47 -0.03,-2.41 0.14,-0.7 0.34,-0.5 1.11,-1.23 0.2,-0.45 -0.65,-0.92 -4.12,-1.91 -0.53,-0.51 -1.5,-1.43 -0.91,-1.24 -0.44,-1.19 0.35,-1.38 1.89,-1.96 0.47,-1.32 0.12,-0.69 0.27,-0.32 4.18,-2.33 0.86,-0.85 0.25,-0.76 -0.07,-1.53 0.18,-0.67 0.45,-0.45 1.14,-0.43 0.58,-0.29 1.81,-1.74 0.83,-1.12 0.35,-1.05 -0.34,-1.09 -1.54,-1.54 -0.35,-1.25 0.22,-1.11 0.96,-2.22 0.31,-1.18 -0.35,-4.12 0.1,-1.32 0.52,-1.24 1.59,-1.84 0.65,-1.03 0.64,-2.25 0.45,-0.99 2.76,-2.69 -0.55,-2.04 -1.74,-1.99 -2.85,-2.53 -0.76,-0.85 -0.43,-1.07 -0.16,-1.62 0.21,-4.05 -1.33,-5.77 -0.02,-0.42 0.11,-0.35 0.02,-0.4 -0.22,-0.57 -0.38,-0.27 -1.11,-0.23 -0.42,-0.32 -0.4,-2.06 0.35,-2.82 0.99,-2.45 1.46,-0.94 1.49,-0.41 0.88,-1.53 0.34,-1.96 -0.14,-1.68 -0.24,-0.91 -0.32,-0.69 -0.52,-0.55 -0.86,-0.48 -1.11,-0.3 -0.69,0.18 -0.59,0.43 -0.75,0.41 -1.57,0.44 -1.83,0.23 -1.87,-0.15 -1.8,-0.68 -2.86,-1.78 -1.42,-0.54 -1.84,-0.2 -5.77,0.07 -0.38,-0.08 -0.34,0.05 -0.62,0.4 -0.25,0.31 -0.8,1.39 -2.64,3.18 -2.98,2.84 -0.63,0.9 -0.49,-0.18 -0.48,-0.69 -0.58,-0.67 -0.94,-0.54 -5.31,-2.05 -1.71,0.09 -1.37,1.03 -0.73,1.22 -0.53,0.88 -1.13,0.07 -1.86,-0.56 -1.88,-0.81 -1.14,-0.73 -0.8,-0.84 -0.2,-1.02 0,-1.12 -0.22,-1.15 -0.53,-0.9 -1.33,-1.66 -0.53,-0.87 -0.39,-1.19 -0.16,-2.26 -0.21,-1.09 -0.44,-0.81 -0.68,-0.88 -0.4,-0.53 -0.31,-0.94 0.29,-1.26 1.57,-2.1 2.09,0.34 2.8,0.74 2.21,-0.08 2.16,-0.44 1.98,-1.23 1.39,0.07 1.31,-0.52 0.66,-0.38 0.65,-0.04 0.89,0.21 0.87,-0.11 0.61,-0.26 4.58,-2.72 0.95,-0.87 1.07,-0.98 0.82,-0.43 0.89,-0.07 7.96,1.3 3.03,0.95 2.27,1.77 0.24,-0.49 0.42,-0.63 0.18,-0.39 0.49,0 0.87,1.03 1.07,-0.34 1.61,-1.59 1.62,-1.17 0.61,-0.25 0.83,0.04 0.69,0.34 0.55,0.39 1.25,0.63 4.24,2.86 1.51,0.45 19.64,-0.16 2.44,-0.54 1.43,-1.69 -0.78,-0.51 0.82,-0.78 1.41,-0.72 0.99,-0.31 0.66,-0.4 1.91,-1.89 0.77,-0.59 1.45,1.84 0.96,1.22 1.05,1 0.71,1.31 0.09,3.31 -1.15,3.17 -0.61,1.28 0.05,4.18 0.73,1.75 1.85,0.09 z" 
                fill="rgb(151, 144, 238)" 
                stroke="white" 
                stroke-width=".7px"
                title="Xaignabouri" 
                id="LA-XA" 
            />
        </svg>