<svg xmlns="http://www.w3.org/2000/svg" viewBox="167.20099000000002 172.69999999999976 104.13999999999996 84.03000000000014" width="104.13999999999996" height="84.03000000000014">
            <path 
                d="m 251.31099,189.74 0,0 5.58,-1.55 0.89,-0.77 0.3,-1.33 0.74,-1.15 0.99,-0.86 2.09,1.42 2.47,0.2 1.39,-0.56 1.15,-1 0.24,-1.52 0.63,-1.17 0.27,3.3 -1.49,4.69 0.15,1.67 0.62,2.05 0.12,2.36 0.01,0.01 0.01,0.02 -2.74,0.75 -1.42,0.02 -0.33,0.34 -0.44,0.46 -0.48,1.03 -0.52,0.42 -1.33,0.21 -1.24,-0.43 -3.12,-1.62 -0.75,-0.21 -0.61,0.26 -0.37,1.1 0.16,0.85 1.28,3.61 0.75,0.99 2.04,1.23 0.74,0.63 0.42,1.12 0.08,1.19 0.21,1.13 0.75,0.95 0,0 0.01,0 0,0.01 -0.27,0.81 -0.57,0.3 -0.7,0.16 -0.65,0.4 -0.42,0.74 -0.27,1.59 -0.22,0.69 -0.5,0.98 -0.04,0.03 -0.2,-0.26 -0.96,0.12 -1.55,0.55 -1.47,0.78 -1.38,0.33 -0.77,0.66 -1.29,1.97 -1,0.76 -2.33,1.03 -0.87,0.67 -0.54,1.19 0.66,0.32 1.18,-0.04 1.04,0.14 0.86,1.64 0.33,0.49 0.46,0.33 1.64,0.87 1.93,1.4 0.08,0 1.38,-0.59 1.36,-0.07 1.34,0.32 7.23,3.26 2.61,1.82 0.67,0.66 0.24,1.37 0,1.23 0.58,0.58 1.88,-0.56 1.31,0.33 -0.12,1.3 -0.63,2.2 0.36,2.39 -0.02,2.36 -1.34,1.33 -1.46,1.17 -0.39,1.82 -0.89,1.55 -1.64,1.28 -1.4,1.66 -1.46,2.1 -2.11,0.84 -1.73,0.14 -1.66,-0.02 -0.93,-0.48 -0.83,-0.69 -5.75,-2.75 -2.37,-0.57 0.55,-4.6 -0.53,-4.47 -1.61,-1.53 -2.1,-0.66 -2.41,0.14 -2.03,-0.83 -2.6,-1.42 -4.18,0.21 -2.86,-1.05 -2.02,-0.16 -1.6,-1.4 -1.48,-1.7 -1.7,-1.28 -2.02,-0.3 -1.09,0.17 -1.03,0.48 -0.47,1.51 -1.61,-0.01 -1.33,-1.08 -1.42,-0.09 -1.44,-0.28 -1.79,0.8 -2.27,0.12 -0.66,0.33 -0.82,0.24 -6.47,-1.28 -2.4,-0.13 -2.27,-0.4 -1.96,-1.93 -1.36,-0.57 -5.57,-1.31 -1.26,0.14 -1.01,0.24 -1.03,-0.27 -1.56,-1.19 -1.85,-0.93 -2.01,-2.16 -0.81,-0.19 -0.01,-0.02 -1.02,-0.64 -2.25,-0.98 -0.85,-1.65 -1.36,-3.94 -1.56,-1.9 -1.8,-1.58 -0.84,-3.56 0.68,-3.65 2.97,-2.28 1.07,-1.49 1.26,-1.26 3.88,-2.67 2.99,-2.74 0.85,-1.27 -0.27,-1.63 2.65,0.14 2.39,-0.52 0.44,-3.24 0.1,-3.27 1.75,-1.18 1.98,-0.94 1.41,-1.02 1.57,-0.66 3.27,-0.23 1.28,-1.1 0.84,-1.54 2.88,-0.89 2.99,-0.19 1.35,1.43 1.74,1.01 3.21,-1.37 1.41,0.82 1.38,1.1 3.29,0.29 3.39,1.03 1.67,-0.46 1.41,-1.15 1.8,-0.61 1.81,-0.22 2.23,-0.59 1.48,-1.86 1.9,0.92 1.77,-0.26 0.09,-2.03 0.48,-2.31 3,-2.27 1.7,-0.25 1.8,0.01 3.49,2.12 2.53,3.33 -0.07,1.66 0.38,1.62 -0.49,2.03 -0.67,1.86 1.69,0.85 0.53,0.57 1.29,2.22 0.65,0.42 0.89,0.35 z" 
                fill="rgb(151, 144, 238)" 
                stroke="white" 
                stroke-width=".7px"
                title="Xiangkhoang" 
                id="LA-XI" 
            />
        </svg>