<svg xmlns="http://www.w3.org/2000/svg" viewBox="404.2209899999999 436.1199999999996 88.8499999999998 77.14000000000038" width="88.8499999999998" height="77.14000000000038">
            <path 
                d="m 471.09099,444.85 0,0 1.89,-0.22 3.62,-0.93 1.28,-0.04 0.3,0.33 -0.15,0.77 -0.01,0.13 -0.07,1.16 0.3,0.78 0.44,0.54 0.08,0.6 -0.79,0.96 -0.95,0.83 -1.79,3.24 -0.98,1.13 -0.94,0.46 -2.48,0.44 -1.17,0.45 -4.52,2.95 -0.55,0.16 -0.59,-0.11 -0.61,-0.29 -0.66,-0.2 -0.81,0.18 -0.71,0.74 -1.63,3.67 -0.1,1.41 0.75,1 3.59,2.11 0.67,0.72 0.28,0.98 0.3,2.8 0.3,1.07 0.62,0.95 1.09,0.84 2.48,1.28 0.84,0.74 3.45,6.27 0.8,0.51 0.46,-0.27 0.41,-0.61 0.65,-0.48 0.47,-0.01 1.3,0.33 0.38,-0.12 0.32,-0.24 0.32,0.07 0.36,0.83 0,0 0.2,0.51 0.28,0.27 0.38,0 0.47,-0.26 0.89,0.46 0.18,1.34 -0.04,1.6 0.28,1.21 1.22,0.71 2.8,-0.42 1.14,0.3 0.21,0.55 0.09,0.23 0.14,2.6 0.44,1.21 0.77,0.86 2.9,2.21 0.95,1.04 0.42,0.94 0.02,1.04 -0.49,3.2 -0.19,0.41 -0.42,0.13 -0.32,-0.32 -0.38,-0.18 -0.62,0.58 -0.23,0.62 -0.15,2.21 -0.36,1.28 -0.68,1.01 -0.4,0.39 -0.93,0.71 -0.29,0.51 0.02,0.66 0.6,1.22 -0.06,0.72 -0.72,0.74 -1.01,0.1 -1.78,-0.31 -1.06,0.1 -1.08,0.32 0,-0.01 0.08,-0.85 1.04,-1.88 -0.6,-1.62 -1.42,-1.23 -1.82,-3.68 -2.84,-0.44 -1.16,1.26 -1.39,0.76 -2.03,-0.5 -2,-0.82 -1.53,-0.94 -1.16,-1.3 -1.15,-1.6 -1.23,-1.29 -4.53,-1.53 -4.63,0.34 -1.53,1.13 -1.59,0.83 -1.82,-0.43 -1.46,0.07 -1.4,0.36 -2.12,0.89 -2.27,0.07 -1.88,-0.48 -1.68,-1.18 -2.11,-0.39 -2.11,0.25 -1.72,1.04 -1.39,1.24 -0.27,0.91 -0.14,0.9 -0.55,0.82 -0.65,0.77 -0.81,1.57 -1.43,0.61 -0.43,0.1 -0.37,-0.05 -0.36,-5.72 -6.78,-5.42 -1.43,-0.48 -2.29,-0.1 -2.21,-0.94 -3.02,-3.81 -3.33,-1.25 -3.71,-1.36 -1.07,-3.22 0.72,-0.55 0.74,-0.22 0.35,-1.69 1.52,-0.6 1.72,0.23 1.62,0.83 1.84,0.38 1.35,-0.97 0.7,-1.66 2.21,-0.37 2.41,0.42 3.86,-0.04 2.31,-1.49 3.34,0.5 0.74,-0.94 -0.15,-1.54 -0.16,-0.85 -0.02,-0.87 0.45,-0.74 0.37,-0.38 -0.47,-2.15 -1.13,-1.81 0.71,-1.44 0.98,-0.83 -1.29,-1.37 -1.61,-1.11 -0.19,-1.58 1.42,-1.16 1.71,-3.67 2.28,-3.35 3.03,-3.25 0.81,-0.57 0.67,-0.6 -0.26,-1.07 -0.48,-0.99 0.54,-2.07 1.07,-1.78 1.6,0.14 1.46,0.8 2.23,0.39 2.33,0.07 0.85,-0.52 0.58,-0.66 1.8,0.49 1.61,-0.76 1.54,-1.13 2.37,-0.74 0.49,-1.17 0.35,-1.32 1.2,-1.53 1.31,-1.31 0.96,-1.77 0.05,-0.15 0,-0.02 0.39,0.53 0.81,0.75 0.99,0.62 0.89,0.24 0.9,0.16 1.02,0.29 1.7,1.14 2.41,3.11 1.5,1.34 1.82,0.55 z" 
                fill="rgb(151, 144, 238)" 
                stroke="white" 
                stroke-width=".7px"
                title="Xékong" 
                id="LA-XE" 
            />
        </svg>