<svg xmlns="http://www.w3.org/2000/svg" viewBox="277.19901999999996 489.67542999999966 421.24999999999983 225.9300000000003" width="421.24999999999983" height="225.9300000000003">
            <path 
                d="m 285.25902,715.60543 2.07,-1.87 1.32,-2.08 2.08,-4.53 -0.19,-1.42 -0.75,-1.51 -1.71,-1.8 -0.85,-1.51 -0.47,-2.18 0.38,-3.87 -0.09,-2.99 1.39,-1.07 0.3,-2.32 -0.94,-2.44 -3.22,-1.23 -4.54,-0.37 -2.84,-1.41 0,0 0.76,-1.24 1.7,-9.74 -0.93,-3.32 0,0 3.58,-1.12 1.57,0.23 2.47,1.34 1.12,0 2.02,-1.12 0.9,-1.12 4.93,0.45 4.49,-2.47 0.45,-2.24 0.67,-1.35 -0.65,-2.7 1.7,0.03 -0.64,-0.88 0.73,-0.83 0.29,-2.86 -0.76,-1.47 0.78,-1.07 2.05,-0.24 0.99,-0.91 2.19,1.41 0.76,-0.02 0.68,-0.72 0.78,0.05 0.57,-0.53 0.99,-0.09 0.42,-0.93 -0.22,-0.92 0.73,-1.33 0.8,-0.76 0.1,-0.5 1.11,-0.52 0.42,-0.62 -0.05,-1.3 0.47,-0.81 -0.6,-1.3 0.56,-1.94 0.75,-0.9 2.44,-0.96 0.13,-1.73 -1.57,-2.53 1.03,-1.89 1.66,-0.72 -0.34,-0.66 0.02,-0.83 -1.47,-0.18 0.21,-1.69 -0.36,-1.25 -0.76,-0.73 -1.56,0.08 -0.1,-0.83 0.14,-0.71 0.87,-0.97 0.37,-1.45 0.89,-1.4 1,-0.57 2.53,-0.51 3.25,-3.63 1.79,-0.44 2.92,-1.35 0.67,-1.35 1.12,-1.12 4.71,-1.8 1.57,-2.02 3.73,-3.27 2.22,-0.2 1.09,-0.61 0.54,-0.61 0.44,-1.27 3.87,0.8 1.12,-1.35 0.45,-1.12 -0.45,-2.25 -9.11,-9.54 -0.26,-0.42 -0.33,-3.46 -4.2,0.17 -2.02,-0.67 0.22,-1.12 4.94,-2.92 5.9,-7.7 7.73,-8.23 2.72,-3.63 3.16,-2.91 2.02,-4.5 2.58,-1.79 -0.34,-6.38 -0.52,-1.27 0.94,-1.41 0.5,-0.28 0.4,-0.9 0.69,-5.74 0.47,-0.93 1.39,-1.52 0.11,-1.63 0.59,-0.48 0.09,-1.21 1.58,-1.9 1.34,-3.11 5.82,-5.14 1.95,-3.7 2.06,-1.85 0.47,-0.61 0.24,-1.43 1.21,-1.02 0.93,-1.95 0.23,-1.21 -0.83,-2.71 0.24,-2.28 -0.28,-1.92 -0.75,-2.25 0.55,-1.83 2.86,-3.82 0.63,-1.85 1.13,-0.8 0,0 4.51,6 4.94,5.21 9.45,8.96 4.76,3.49 8.31,1.92 5.05,-0.06 1.6,2.94 1.07,3.21 -1.34,4.54 0.54,6.68 18.92,8.55 16.41,2.1 4.16,2.15 4.75,1.9 6.93,1.06 7.62,0.22 3.64,-0.47 1.49,0.62 1.25,-2 -0.5,-4.18 0.56,-1.21 0.18,-1.47 2.58,-2.25 3.54,-0.13 4.16,0.76 1.52,0.89 1.51,1.77 1.14,2.02 1.76,1.52 5.3,1.89 1.01,1.77 2.65,2.28 1.14,0.38 1.51,-0.13 1.01,-2.65 1.77,-1.52 3.4,-0.63 1.52,-1.14 4.79,-2.28 2.53,0.26 1.89,0.88 1.39,0.13 2.52,-0.51 1.64,0 1.86,-1.25 4.34,-0.36 5.91,-1.16 1.11,0.56 0.65,1.81 0.2,1.4 -0.5,1.01 -0.2,1.45 0.46,1.26 5.49,2.02 2.07,-0.11 16,1.68 2.13,1.97 0.82,6.4 3.61,2.46 2.78,1.15 -0.33,3.12 2.79,2.13 3.93,6.73 4.42,1.48 1.47,2.13 0.99,4.76 0,4.59 -1.31,4.74 8.52,1.35 11.87,-0.45 2.92,6.05 1.49,2.46 5.15,0.62 1.85,2.86 2.86,1.52 4.54,-0.67 2.19,-0.68 3.87,-2.52 4.2,-2.19 1.18,-1.18 1.68,-0.51 2.02,0.34 10.26,-4.21 5.39,-3.03 2.02,-0.85 1.68,-0.16 2.18,0.5 2.19,-0.34 4.54,-2.69 2.53,-2.7 2.35,-3.36 1.18,-0.68 2.69,-1.01 2.19,-0.17 4.54,1.52 0,0 -1.85,1.01 -2.33,3.05 -0.38,0.96 0.21,0.29 -0.79,0.73 -0.24,0.97 -1.57,2.24 0.3,3.22 0.94,0.72 -1.62,3.2 -1.26,2.94 -0.07,0.76 -0.57,0.09 -0.69,-0.35 -1.51,0.65 -0.77,2.23 -0.52,0.33 -0.19,0.9 -0.69,0.54 -0.92,6.29 0.47,2.09 -0.29,0.59 -0.8,0.4 -1.48,2.5 -0.52,2.08 -1.31,2.03 -0.24,1.4 -0.93,2.29 -1.57,2.22 -0.37,2.91 -0.5,1.13 -1.54,1.56 -3.1,-0.5 -1.66,0.96 -3.55,0.79 -0.4,0.57 -10.34,23.55 -5.47,10.86 -0.44,2.53 0.71,2.49 -1.21,2.22 -0.83,0.78 -4.68,7.22 -1.14,0.97 -1.58,0.73 -9.18,3.18 -1.06,0.62 -4.69,1.54 -0.52,-0.15 -1.26,0.4 -2.03,1.84 -0.79,0.38 -0.9,1.51 -1.11,0.94 -0.98,1.8 -3.22,2.43 -0.19,0.59 -2.84,1.27 -1.96,0.18 0,0 -2.14,-0.44 -1.45,-3.12 -1.78,0.45 -3.59,3.87 -5.16,-0.55 -3.49,2.64 -6,0.28 -15.63,2.37 -4.6,-3.34 -1.96,-0.02 -14.93,6.43 -17.58,1.06 -23.06,0.47 -49.35,-0.09 -8.59,-0.31 0,0 -20.72,-0.11 -10.17,-0.63 -6.99,0.15 -2.22,-4.81 -1.38,-2.12 -7.39,-6.02 -7.4,-5.05 -2.58,-2.45 -4.23,-0.49 -11.59,3.3 -9.63,-0.12 -8.27,-8.63 -1.23,-0.62 -1.98,0.74 -2.1,2.47 -8.43,3.13 -5.27,0.81 -2.59,2.1 -4.94,2.22 -5.89,6.55 -16.13,4.5 -7.81,1.41 z" 
                fill="rgb(151, 144, 238)" 
                stroke="white" 
                stroke-width=".7px"
                title="Adamaoua" 
                id="CM-AD" 
            />
        </svg>