<svg xmlns="http://www.w3.org/2000/svg" viewBox="178.99901999999992 686.70543 309.08 320.8799700000002" width="309.08" height="320.8799700000002">
            <path 
                d="m 285.25902,715.60543 16.92,-4.97 7.81,-1.41 16.13,-4.5 5.89,-6.55 4.94,-2.22 2.59,-2.1 5.27,-0.81 8.43,-3.13 2.1,-2.47 1.98,-0.74 1.23,0.62 8.27,8.63 9.63,0.12 11.59,-3.3 4.23,0.49 2.58,2.45 7.4,5.05 7.39,6.02 1.38,2.12 2.22,4.81 6.99,-0.15 10.17,0.63 20.72,0.11 0,0 -0.61,8.61 1.94,3.62 2.14,1.12 4.09,6.88 1.59,7.64 3.78,1.94 1.06,5.25 6.17,9.53 0,3.18 -5,11.51 -5.94,9.37 -4.48,0.97 -4.99,-0.32 -4.84,2.72 0.61,1.43 5.01,3.43 10.56,10 4.92,5.46 2.47,3.49 -1.31,8.43 7.52,2.63 6.47,0.66 5.8,13.42 -1.07,6.18 -1.43,16.05 -2.15,3.14 -4.59,-1.13 -5.04,0.58 -3.48,-0.67 -4.64,1.02 -4.21,-0.54 -8.31,4.57 -2.33,2.75 -3.57,11.59 -3.91,4.26 -0.73,3.61 0.62,1.97 -1.27,9.75 -2.47,8.76 2.48,2.45 0.59,2.72 -0.74,2.22 -5.93,2.96 -7.64,7.28 -5.82,0.73 -4.25,1.27 -2.65,2.85 -3.11,0.91 -0.7,3.31 2.33,5.07 9.43,5.27 -0.53,2.96 0.64,3.8 -0.64,5.69 -3.49,7.07 0,0 -2.96,-2.64 -4.04,-8.23 -2.44,-0.52 -2.01,0.52 -2.54,4.22 -4.35,3.91 -8.48,6.33 -5.19,5.38 -2.55,9.38 -0.74,4.22 -2.12,2.32 -3.6,-0.63 -1.91,1.48 -1.91,0.94 -1.06,-0.31 0,-1.58 1.17,-2.22 -0.85,-1.37 -13.78,-5.48 -1.59,-2.53 -1.91,-0.53 -1.68,0.75 -2.03,-0.96 -1.69,-2.11 -2.44,0.74 -2.44,6.54 -5.77,1.87 -2.4,2.55 -2.11,0.35 -1.8,3.4 -2.66,2.5 -1.82,7.08 -2.37,2.23997 -6.01,2.36 -3.91,1.95 -4.48,0.83 -3.91,0 -10.76,-0.83 -3.07,0.41 -3.63,1.53 -4.2,-1.25 -1.95,0 -3.92,1.11 -1.95,-0.13 -2.52,-3.34 -3.49,-2.64 0.14,-2.91997 -0.7,-1.81 -2.37,-0.35 -2.38,-2.85 -0.28,-3.75 -1.68,-6.4 -2.09,-2.78 -3.23,-2.47 -3.9,1.05 -1.82,-0.38 -1.25,-1.95 -2.38,-0.14 -8.83,2.42 -1.25,-1.07 -0.66,-2.6 -1.19,-3.03 -2.04,-1.14 -2.52,0.28 -17.92,4.8 -24,7.29 -8.66,1.25 -2.52,-8.31 -0.94,-4.89 -2.13,-4.04 1.76,-2.46 0,0 3.97,-0.18 4.29,-7.74 0.18,-4.78 2.43,-2.51 0.36,-2.64 -0.14,-1.94 1.26,-4.87 2.52,-2.23 2.51,-0.55 2.94,-1.26 4,1.94 7.35,4.6 2.34,3.2 1.96,0.84 1.12,-2.51 0.55,-2.92 3.08,-1.81 -0.7,-1.39 1.13,-2.08 1.53,-1.53 -1.26,-6.27 -0.28,-4.59 3.49,-4.31 1.26,-3.76 0.42,-2.64 4.08,-1.1 5.5,-2.63 3.41,0.67 1.66,-1.72 4.21,-1.46 3.64,-0.01 6.42,-2.24 3.5,-2.37 3.77,-0.41 2.79,-1.12 1.13,0.16 0.29,-1.98 -0.02,-3.05 -1.54,-1.53 -2.79,-1.11 -1.19,-0.87 -0.35,-1.36 -1.95,-1.95 -0.43,-1.44 -2.23,-1.71 -1.73,-2.12 -0.2,-2.73 -2.89,-2.3 -0.45,-2.65 -2.41,-2.36 -1.96,-2.51 -0.56,-2.64 0.06,-1.07 1.48,-1.16 1.46,-10.11 -0.5,-1.31 -1.57,-0.69 -3.73,2.34 -5.2,-1.67 -2.2,3.64 -0.42,2.37 -1.48,4.67 -3.14,2.93 -1.82,-0.4 -1.52,-3.54 -1.73,0.71 -1.59,2.76 -3.78,1.38 -2.53,3.13 -3.65,1.11 -4.05,-1.19 -2.15,-1.19 -4.19,-1.2 -3.19,-1.47 -2.45,0.38 -2.65,-1.18 -1.02,-2.03 0.42,-3.2 1.24,-3.66 4.77,-6.92 1.81,-0.42 2.66,-7.1 -2.24,-2.09 -3.94,-0.1 -5.84,3.72 -2.24,-0.28 1.12,-6.55 3.5,-3.06 5.43,-3.42 4.91,-5.64 1.11,-1.93 0,0 7.55,1.24 5.73,-1.95 11.16,-5.91 3.42,-4.22 1.77,-0.46 6.98,7.8 4.28,0.69 4.53,-3.34 2.52,-9.6 1.3,-6.97 3.88,-5.09 5.01,-1.33 -0.69,-2.51 0.87,-2.79 0.23,-2.69 -0.51,-2.44 2.59,-2.51 2.96,-0.9 1.36,-2.79 1.69,-1.83 2.54,-1.75 0.7,-3.49 -1.94,-2.13 0.64,-1.55 1.26,-0.39 2.15,-7.01 -2.15,-7.73 0.62,-2.19 1.39,-1.81 -0.67,-2.52 4.26,-4.07 3.25,-2.61 3.49,-4.98 -3.67,-2.33 -0.49,-6.54 -0.88,-2.05 0.82,-3.94 z" 
                fill="rgb(151, 144, 238)" 
                stroke="white" 
                stroke-width=".7px"
                title="Centre" 
                id="CM-CE" 
            />
        </svg>