<svg xmlns="http://www.w3.org/2000/svg" viewBox="411.729019999999 701.0454300000005 380.5400000000005 457.77996999999925" width="380.5400000000005" height="457.77996999999925">
            <path 
                d="m 610.54902,705.06543 0.39,0.79 -1.02,2.98 0.12,1.11 0.89,1.14 0.57,1.87 3.09,2.68 0.52,0.8 0.61,2.06 1.3,1.47 0.4,2.06 1.29,1.24 0.9,0.42 1.32,0.07 2.86,-0.78 0.93,0.66 1.18,-0.69 1.57,-1.47 0.9,-0.09 1.04,0.36 1.15,2.15 -0.13,5.23 0.73,2.88 0.29,9.15 -0.2,3.07 -1.02,2.01 -0.72,2.38 0,1.23 -1.59,4.56 -0.05,1.23 0.23,1.2 0.94,1.3 0.57,2.58 1.95,3.22 -1.25,1.32 0.02,0.8 -0.43,1.02 -1.09,1.08 0.3,1.25 -0.52,1.87 0.25,2.76 -0.28,0.85 -2.46,1.34 -0.01,1.92 -0.73,0.82 -1.4,2.67 -0.39,1.81 -0.47,0.5 -0.05,0.45 0.55,0.57 -1.21,0.7 -1.45,1.75 0.5,1.27 3.39,2.66 1.37,1.44 1.14,-0.02 0.92,0.78 1.84,0.34 0.61,-0.28 1.96,0.69 1.12,0 0.73,1.32 1.12,0.53 0.59,1.41 1.97,8.55 -0.45,0.83 -1.16,0.54 -0.24,1.18 0.8,1.52 -0.09,1.08 0.77,2.46 -0.99,0.56 0.3,0.62 -0.64,0.35 0.47,0.71 -0.54,1.11 1.58,2.11 0.23,0.82 -0.48,1.75 0.14,0.45 -0.71,1.2 0.83,0.85 1.36,4.11 0.89,1.3 -0.19,0.76 -0.66,0.47 0.3,0.78 -0.19,0.61 0.57,0.74 0.82,3.37 -0.22,0.57 0.17,0.78 -0.69,1.82 -1.23,0.63 1.81,2.44 0.49,4.2 -0.24,2.62 0.37,1.6 -0.24,1.73 0.82,1.25 0.28,1.06 -0.28,0.97 1.67,0.97 0.99,1.89 1.44,0.26 0.21,0.67 1.86,2.27 1.56,1.16 0.84,1.46 0.78,0.08 0.97,0.59 0.47,0.78 1.91,0.24 0.33,1.11 1.56,0.62 1.76,2.5 1.72,0.32 3.68,1.92 0.54,1.11 1.04,0.12 1.11,-0.26 1.28,0.36 0.54,1.04 2.99,0.55 0.73,2.34 -0.05,0.75 0.8,1.21 0.28,1.2 0.4,0.15 0.71,-0.47 0.26,0.23 0.42,0.67 -0.28,0.63 1.62,1.8 0.42,1.23 1.11,1.35 0.8,0.19 0.97,2.73 -0.09,1.63 0.69,0.83 -0.48,2.1 0.65,1.58 0.43,0.38 -0.48,1.06 0.45,1.75 -0.08,1.15 0.69,0.62 -0.29,0.52 0.26,0.66 -0.22,0.52 0.33,0.64 -0.71,1.34 0.78,1.79 1.2,0.48 0.3,0.71 0.92,0.71 0.16,1.11 0.68,1.13 0.31,1.25 2.52,-0.3 0.55,0.19 0.46,1.3 -1.11,0.68 -1.82,0.45 -0.92,1.01 -3.52,0.83 -0.92,-0.07 -0.64,0.49 -3,0.84 -1.01,1.62 3.36,0.13 0.71,1.37 1.01,3.85 14.49,23.68 17.71,18.98 9,9.04 13.5,15.8 0.88,1.36 0.94,0.76 4.57,5.56 1.6,1.27997 3.27,4.31 5.18,5.8 0.74,0.68 0.71,-0.87 1.63,0.18 1.25,-0.75 2.17,-0.14 0.59,0.24 0.47,0.9 1.72,0.15 1.59,1.96 2.35,4.27 0.82,0.33 3.56,4.57 0.52,-0.07 0.29,-0.87 0.57,-0.33 2.33,-0.09 0.3,0.55 0.76,0.45 0.2,0.99 1.46,0.76 0.45,-0.05 0.09,1.61 1.64,2.22 0.68,2.19 1.43,1.25 1.46,4.53 0.18,3.87 -1.04,0.93 -0.6,1.04 -2.05,0.81 -0.24,0.33 0.93,3.35 0.49,0.66 -0.19,0.71 0.26,1.36 -0.57,0.61 0.56,0.59 -0.5,0.47 0.17,0.43 0.8,0.35 1.34,0.06 0.7,0.69 -1.5,2.58 -0.8,3.62 0.28,1.39 1.52,2.97 -0.25,2.85 -1.56,4.36 0.12,0.9 1.59,2.07 0.12,0.66 -0.19,1.28 -0.78,1.39 0.81,1.53 0.03,0.61 2,1.64 1.28,3.6 3.4,4.46 0.19,1.86 2.12,5.91 -0.1,0.85 -0.64,1.15 0.09,0.88 2.68,2.25 0.13,0.75 -1.19,1.79 -2.11,0.92 -1.29,1.49 -0.58,-0.01 -0.98,-2.17 -3.75,-0.19 -0.99,0.61 -0.64,5.32 0.04,1.98 0.73,1.13 0.24,1.08 -0.12,1.58 -0.62,0.87 -1.74,1.08 0.4,0.94 1.5,0.94 0.03,0.71 -0.71,1.46 -1.53,1.31 -0.73,1.15 0.27,2.17 -0.28,1.06 2.52,2.43 1.13,5.71 0.68,0.38 1.29,-0.32 0.47,0.26 -0.19,2.03 0.28,1.26 1.22,4.03 1.32,1.77 0.7,3.7 -0.74,1.82 0.02,1.98 1.32,2.07 -0.85,2.3 -0.99,-0.34 -0.94,-1 -1.24,0 -3.09,1.01 -1.98,3.29 -3.33,-0.43 -0.37,-0.35 -0.63,-1.91 0.43,-2.33 -0.16,-0.52 -0.7,-0.56 -0.03,-0.59 1.62,-3.12 0.14,-0.61 -0.28,-0.76 -0.61,-0.31 -3.11,0.46 -3.79,-0.11 -2.53,-1.19 -1.91,-0.22 -0.58,-1.38 -1.32,-0.03 -1.18,1.03 -0.61,-0.03 0.28,-0.87 -1.04,-3.2 -0.47,-0.54 -2.05,-0.2 -1.41,-1.51 -2.84,-1.12 -1.31,-1.32 -0.7,-1.77 -2.37,-2.64 -1.53,-0.74 -2.21,0.28 -0.61,-0.74 -3.69,-1.3 -1.65,0.37 -1.72,-0.32 -4.73,-1.12 -1.57,-0.95 -2.9,0.58 -1.99,-1.42 -0.73,0.07 -0.81,0.75 -0.49,-0.07 -3.29,-2.25 -0.68,0.02 -0.8,0.63 -4.76,1.28 -1.06,0.52 -1.4,1.33 -1.58,0.26 -5.04,2.57 -1.08,-1.82 0.08,-1.13 -1.61,0.94 -1.29,-0.38 -0.21,-0.54 0.33,-1.74 -0.37,-1.11 -1.41,-1.56 -1.01,-0.83 -1.38,-0.49 -0.8,-1.09 -1.7,-0.29 0.88,-1.69 -0.96,-0.45 -1.98,-0.17 -0.92,-0.4 -1.83,0.16 -1.87,2.01 -0.73,-0.56 -0.93,-2.05 -1.02,0.11 -0.28,0.28 -0.31,2.31 -0.57,0.58 -2,-0.36 -0.73,1.25 -0.17,1.22 -0.54,0.92 -3.35,-0.18 0.03,-1.74 -0.94,-0.45 -1.51,2.16 -0.5,0.4 -0.44,-0.1 -0.76,-0.73 -0.11,-1.5 -0.96,-0.76 -1.6,-0.64 -2.28,-2.08 -0.73,0.68 -0.64,1.81 -0.59,0.45 -1.39,0.42 -3.25,0.27 -0.85,-0.35 -1.74,-1.75 1.63,-1.88 0.41,-1.85 -0.28,-0.52 -2.54,-0.67 -0.71,-0.52 -0.28,-1.01 0.05,-2.17 -0.3,-0.54 -0.52,-0.09 -1.18,0.86 0.75,1.42 -0.21,0.73 -1.7,-0.34 -0.96,0.26 -1.4,1.81 -1.31,0.49 -0.45,-0.05 -1.32,-1.39 -0.35,-0.03 -1.46,1.1 -0.52,-0.04 -0.49,-0.69 0.73,-1.83 -0.54,-0.94 -1.1,0.06 -1.18,0.82 -0.57,-0.07 -0.07,-0.8 1.2,0.03 0.15,-0.59 -2.8,-2.19 -0.57,0.02 -0.16,0.3 0.47,1.13 -0.03,0.43 -0.37,0 -0.85,-0.45 -1.27,-0.1 -0.38,-1.08 -1.34,-1.11 -3.08,0.32 -0.52,-0.17 -0.54,-0.89 0.38,-0.92 -0.16,-0.45 -0.54,-0.4 -1.23,-0.12 -1.9,-3.53 -0.56,-0.62 -1.6,-0.5 -0.47,-0.89 -0.35,-0.14 -1.02,0.91 -0.61,-0.07 -1.07,-0.82 -1.14,1.49 -11.56,4.2 -0.7,0 -1.58,-1.88 -1.51,-0.84 -3.53,-0.26 -1.08,0.21 -4.34,-0.77 -4.14,0.55 -1.37,1.32 -1.1,0.07 -59.12,0.09 0,0 -1.83,-41.45 -0.79,-6.08 -2.04,-23.97 0.21,-3.58 -4.45,2 -2.16,3.22 -1.98,-0.27 -1.27,0.21 -0.1,1.69 -2.12,-0.32 -1.27,1.48 1.16,2.64 -1.38,1.37 -5.56,1.31 -6.73,-4.27 -3.1,1.18 -2.84,-1.91 -2.65,-2.53 -1.9,0.73 -0.18,0.49 1.76,4.68 -1.9,0.63 -0.96,-4 -1.58,-1.73 -4.14,-2.91 -1.38,1.58 -3.44,0.64 -2.39,-2.54 -1.8,1.58 -1.06,1.48 -2.01,-1.05 -6.15,-0.53 -4.35,-2.85 -2.54,1.58 -4.66,-1.05 -4.14,0.1 -1.8,-1.47 -1.91,0.31 -2.44,-2.42 -2.01,-0.63 -3.5,-5.48 -0.16,-10.21 -0.79,-8.56 -4.88,-8.74997 -4.24,-4.86 -9.9,-9.23 -1.97,-3 0.21,-5.91 0.75,-6.64 1.06,-2.85 0,0 3.49,-7.07 0.64,-5.69 -0.64,-3.8 0.53,-2.96 -9.43,-5.27 -2.33,-5.07 0.7,-3.31 3.11,-0.91 2.65,-2.85 4.25,-1.27 5.82,-0.73 7.64,-7.28 5.93,-2.96 0.74,-2.22 -0.59,-2.72 -2.48,-2.45 2.47,-8.76 1.27,-9.75 -0.62,-1.97 0.73,-3.61 3.91,-4.26 3.57,-11.59 2.33,-2.75 8.31,-4.57 4.21,0.54 4.64,-1.02 3.48,0.67 5.04,-0.58 4.59,1.13 2.15,-3.14 1.43,-16.05 1.07,-6.18 -5.8,-13.42 -6.47,-0.66 -7.52,-2.63 1.31,-8.43 -2.47,-3.49 -4.92,-5.46 -10.56,-10 -5.01,-3.43 -0.61,-1.43 4.84,-2.72 4.99,0.32 4.48,-0.97 5.94,-9.37 5,-11.51 0,-3.18 -6.17,-9.53 -1.06,-5.25 -3.78,-1.94 -1.59,-7.64 -4.09,-6.88 -2.14,-1.12 -1.94,-3.62 0.61,-8.61 0,0 8.59,0.31 49.35,0.09 23.06,-0.47 17.58,-1.06 14.93,-6.43 1.96,0.02 4.6,3.34 15.63,-2.37 6,-0.28 3.49,-2.64 5.16,0.55 3.59,-3.87 1.78,-0.45 1.45,3.12 2.14,0.44 0,0 z" 
                fill="rgb(151, 144, 238)" 
                stroke="white" 
                stroke-width=".7px"
                title="East" 
                id="CM-ES" 
            />
        </svg>