<svg xmlns="http://www.w3.org/2000/svg" viewBox="85.88901600000005 779.5254299999998 181.56000399999996 214.62999999999988" width="181.56000399999996" height="214.62999999999988">
            <path 
                d="m 113.19902,942.38543 0.8,1.02 0.23,0.68 -0.26,0.29 -0.57,-0.46 -0.36,-1.44 0.16,-0.09 z m -17.420004,-24.77 0.49,1.36 1.37,-0.06 0.29,0.37 0.03,0.34 0.14,0.29 1,1.31 0.06,1.08 -0.49,1.11 -0.63,0.48 -0.23,1.68 -0.6,0.63 -0.8,0.09 -0.29,0.6 0.14,0.17 0.14,0.34 0.17,0.08 0.03,-1 1.37,0.17 0.31,-0.11 1.06,0.11 1.200004,1.05 0.34,-0.06 -0.09,0.26 -4.520004,2.04 -2.17,0.31 -4.35,-1.25 -3.86,-2.26 0,0 3.09,-3.52 0,0 -0.4,-0.14 0.09,-0.71 0.46,0.29 0.86,-0.2 1.14,0.48 0.46,-0.11 0.06,-0.4 0.77,0.23 1.2,-1.14 -0.14,-2.19 0.6,-0.08 0.66,-1.05 1.04,-0.59 z m 8.350004,-1.09 0.74,0.28 -0.11,0.97 0.66,-0.68 0.71,0.68 0.54,3.47 -0.43,0.37 -0.26,0.88 -0.97,-0.31 -1.63,0.03 -1.03,-1 -0.71,0.11 -0.97,-0.77 1.17,-1.54 -0.11,-0.6 0.83,-0.17 0.23,-0.6 1.34,-1.12 z m -7.290004,-0.31 0.34,0.29 0.17,2.22 -0.91,0.08 -0.29,-1 -0.57,-0.66 1.26,-0.93 z m 7.090004,-1.25 1.23,0.2 0.34,0.83 -1.37,-0.26 -0.43,-0.48 0.23,-0.29 z m -2.46,-0.26 0.54,0.26 0.29,0.6 0.4,-0.17 0.8,1.22 -0.8,0.29 0.11,0.2 -0.51,0.37 -0.2,0.6 -0.83,-0.46 -0.4,0.2 -0.03,0.54 0.51,0.66 -1.31,0.85 -1.430004,-0.8 -0.2,-1.03 -0.83,-1.08 0.37,-0.28 2.890004,-0.43 0.17,-0.63 -0.06,-0.5 0.52,-0.41 z m -0.4,-2.28 0.54,0.57 -0.03,0.34 0.51,-0.03 0.26,0.57 -0.49,0.6 -0.6,0.03 -0.72,0.57 0.07,0.89 -1.420004,0.2 -0.54,-0.54 0.23,-0.94 -0.14,-1.96 0.34,-0.23 0.89,0.4 1.100004,-0.47 z m -3.030004,-1.08 -0.01,0 0,0 0.01,-0.02 0,0 0,0.02 z m 2.400004,-0.11 0.23,0.43 -0.690004,0.88 -0.37,-0.94 0.830004,-0.37 z m -1.730004,-0.44 0.5,0.58 -0.83,1.22 -0.23,2.85 -0.4,0.4 -1.29,0.2 -1.02,0.85 0.01,-0.33 0.59,-0.7 0.14,-0.67 0.72,-0.55 -0.28,-0.95 0.8,-0.17 0.05,-0.78 0.45,-0.09 0.46,-1.63 0.33,-0.23 z m 2.850004,-2.55 0.4,0.17 -1.29,1.88 -0.31,-0.96 0.37,-1.26 0.83,0.17 z m -0.03,-1.74 0.91,1.12 -0.48,0.53 -0.71,-0.23 -0.46,-0.88 0.74,-0.54 z m 0.83,0.48 1.05,0.81 1.46,-0.03 1.08,-0.98 1.13,-2.27 0.93,-1.02 -2.06,-2.69 0.54,-2.32 -0.99,-0.8 -1.44,0.54 -4.580004,0.89 -1.35,-1.52 -2.69,-0.27 -0.45,-1.7 1.11,-4.04 0.83,-4.54 1.19,-1.08 2.040004,-4.27 3.73,-5.96 -1.42,-3.27 0.39,-1.82 0.08,-3.26 1.77,-2.73 1.01,-2.46 2.2,-4.04 4.17,-6.23 3.71,1.15 2.77,-1.21 -0.22,-3.86 6.03,-7.5 1.15,-6.58 8.62,-8.99 0.29,-0.83 -0.34,-1.05 -2.89,-1.37 0.11,-2.39 4.04,-8.47 1.39,-0.58 3.26,-0.25 0.68,-1.37 -4.98,-8.89 -3.82,-2.89 -2.87,-10.49 0.44,-1.64 3.71,0.56 1.38,-0.56 2.47,-4.17 1.12,-1.02 3.36,0 0,0 -1.29,7.21 0.48,1.56 2.03,0.9 1.45,0.03 2.21,-1.92 1.72,0.18 2.64,-0.3 2.66,2.68 2.18,5.15 -0.39,3.9 -1.19,3.39 2.36,6.46 5.89,2.15 0,4.11 0.81,3.19 1.96,0.27 2.01,4.29 2.72,-0.14 0.57,-1.86 2.72,-5.43 5.88,-3.43 0.43,-3.86 1.29,-1.72 2.38,0.29 3.22,1.28 2.68,-0.8 5.02,-0.34 0.9,0.85 -0.29,2.86 0.57,2 2.37,2.33 0.7,1.36 0.73,4.46 1.65,1.44 1.98,-1.13 0.68,0.79 0.65,2.77 4.02,0.7 0,0 -1.11,1.93 -4.91,5.63 -5.43,3.42 -3.49,3.07 -1.12,6.55 2.24,0.28 5.83,-3.71 3.95,0.09 2.24,2.09 -2.66,7.1 -1.82,0.42 -4.76,6.92 -1.24,3.66 -0.42,3.2 1.02,2.02 2.65,1.19 2.45,-0.38 3.19,1.46 4.19,1.21 2.15,1.18 4.05,1.19 3.65,-1.11 2.53,-3.13 3.77,-1.38 1.6,-2.76 1.72,-0.71 1.52,3.53 1.82,0.4 3.14,-2.93 1.48,-4.67 0.42,-2.37 2.2,-3.65 5.2,1.67 3.73,-2.34 1.57,0.69 0.5,1.31 -1.46,10.11 -1.48,1.16 -0.06,1.07 0.56,2.65 1.96,2.51 2.41,2.36 0.45,2.64 2.89,2.3 0.2,2.73 1.72,2.12 2.23,1.72 0.43,1.44 1.96,1.95 0.35,1.35 1.19,0.87 2.79,1.11 1.54,1.53 0.02,3.05 -0.3,1.98 -1.12,-0.16 -2.79,1.11 -3.77,0.42 -3.49,2.37 -6.43,2.24 -3.63,0 -4.21,1.46 -1.66,1.72 -3.42,-0.67 -5.5,2.63 -4.08,1.1 -0.42,2.64 -1.26,3.76 -3.49,4.31 0.28,4.59 1.26,6.26 -1.53,1.54 -1.13,2.08 0.7,1.39 -3.07,1.81 -0.56,2.92 -1.12,2.5 -1.96,-0.83 -2.35,-3.21 -7.34,-4.59 -4,-1.94 -2.94,1.25 -2.51,0.56 -2.52,2.22 -1.26,4.87 0.14,1.95 -0.36,2.63 -2.44,2.51 -0.18,4.78 -4.29,7.74 -3.97,0.18 0,0 -0.22,-2.4 -2.79,-1.25 -0.98,-1.81 -1.12,-0.7 -2.94,2.09 -4.39,0.01 -1.06,2.22 -5.68,7.23 0.22,2.3 -0.41,2.71 0.42,2.92 -1.82,1.95 0.28,1.81 -1.82,4.17 -5.45,2.92 -3.63,3.61 -4.83,0.83 -0.17,0.49 0,0 -0.38,-1.14 0.46,-0.14 0.17,-1.37 -1.14,-2.16 -3.43,-4.3 -5.52,-6.12 -3.8,-4.04 -3.29,-2.9 -0.51,-0.57 -6.77,-4.96 -1.55,-0.85 -0.4,-0.34 -0.09,-0.63 -1.17,-0.74 -0.03,-0.37 0.51,-0.06 0.23,0.28 0.69,-0.88 -0.26,-0.22 -0.31,0.5 -0.23,0 0.6,-1.02 -0.17,-0.51 -0.11,-0.37 -0.34,-0.6 0.37,-0.43 0.49,-2.62 0.4,-0.6 0.37,-0.51 -0.11,-0.85 -0.52,-0.68 -0.66,-1.22 -1.94,-4.44 -7.49,-11.87 0.14,-0.31 1.83,1.82 1.43,0.8 1.17,3.19 0.06,0.88 0.6,0.65 1.4,0.46 0.6,-0.43 1.49,0.51 2.15,-0.03 0.74,-0.57 0.14,-2.08 -0.51,0.46 0.09,0.31 -0.31,1.34 -1.97,-0.4 -2.15,-0.97 -0.66,-1.85 -1.74,-2.79 0.57,-0.28 0.26,-0.85 -0.11,-2.08 1.29,-2.79 1.46,-0.48 0.97,0.91 2.4,1.42 0.31,0.71 -0.14,0.4 0.4,-0.14 0.26,-0.54 1.29,2.08 0.2,-0.11 -0.37,-0.43 0.11,-0.51 0.66,0.63 0.43,0.03 -0.55,1.23 0.63,0.34 0.26,0.83 0.37,1.88 -0.11,1.31 -0.63,1.76 -1.92,0.97 -0.34,0.65 1.57,1.11 0.11,1.62 0.43,0.46 0.8,0.23 -0.63,-1.03 0.06,-0.34 -0.37,-0.26 0.23,-0.65 -1.37,-1.48 0.03,-0.4 1.8,-0.77 0.54,0.63 0.03,-0.94 0.57,-0.6 0.11,-0.63 2.17,0.26 -0.57,-0.4 -1.14,-0.06 -0.31,-0.31 -0.49,-0.85 0.11,-2.08 -1.66,-3.76 0.6,-1.22 1.12,-0.43 0.37,-1.79 -1.06,-0.8 -0.11,-0.54 0.29,-0.37 -0.77,-0.46 -1.57,-1.99 0.23,-0.48 1.34,0.23 1.34,-0.8 -0.97,-2.39 -1.57,0.74 -2.12,0.06 -1.12,-0.34 -1.46,0.2 -1.06,-0.77 -0.23,-1.51 0.23,-0.94 0.77,0.65 0.31,-0.06 -0.17,-1.34 1.17,-2.28 0.8,-0.6 0.57,-0.97 2.03,1.42 1.97,-0.34 0.23,0.74 1.23,0.2 0.51,0.85 0.51,-0.11 -0.23,-0.28 -0.43,-0.34 -1.8,-1.42 -0.83,-0.06 -0.88,0.5 -0.95,-0.9 0.03,-0.65 -0.51,-0.66 0.03,-0.8 0.2,-0.11 0.26,0.6 0.54,0.17 0.37,-0.6 -0.94,-0.29 2.49,-2.48 0.11,-0.57 -0.4,0 -2.57,0.83 -1.49,-0.03 0.26,0.63 -1.57,1.4 -0.43,0.94 -1.34,0.03 0.4,0.48 -0.09,0.43 -3.52,1.42 -1.52,0.08 -1.06,-0.37 -0.54,-0.77 0.77,-1.45 -0.03,-0.14 0.31,-0.83 0.29,-0.46 -0.86,0.65 -0.23,1.11 -0.37,0.37 -0.34,-0.4 0.14,-1.02 1.37,-1.57 -0.26,-0.03 -0.88,1.02 -0.6,0.49 -0.37,1 0.46,1.28 -0.6,0.11 -1.03,-0.43 0.11,-1.03 -0.2,-0.2 0,0.63 -1,-0.03 -0.09,-0.68 -0.43,-0.06 0.29,-0.71 -0.8,0.09 -0.06,-0.57 -0.86,-0.83 0.6,-0.34 -0.4,-0.17 -0.4,0.48 -0.43,-0.23 0.43,-1.31 0.4,-0.37 -0.77,-0.06 0.06,0.77 -0.34,0.71 -0.4,-0.17 -0.66,-1.17 0.11,-0.54 -0.37,-0.2 -0.17,-0.65 0.49,-1.34 0.49,-0.28 -0.1,-0.69 -0.38,-0.19 -0.16,-0.42 z" 
                fill="rgb(151, 144, 238)" 
                stroke="white" 
                stroke-width=".7px"
                title="Littoral" 
                id="CM-LT" 
            />
        </svg>