<svg xmlns="http://www.w3.org/2000/svg" viewBox="385.19901999999985 276.2954300000001 345.9300000000007 331.2299999999999" width="345.9300000000007" height="331.2299999999999">
            <path 
                d="m 729.52902,542.40543 0.47,1.7 -0.58,1.8 -1.19,1.39 -0.17,0.64 0.64,1 -0.07,0.47 -2.47,2.22 -0.96,1.25 -1.83,1.25 -0.62,1.3 -1.44,0.73 -0.77,1.23 0.19,0.73 -1.42,0.9 -0.01,0.66 -0.61,0.54 -1.19,0.57 0.12,0.95 -0.77,1.68 -1.07,0.25 -0.83,1.8 -0.88,0.45 2.55,2.36 0.67,2.02 -3.87,0.84 -0.84,1.02 -3.53,2.69 -2.86,3.2 -1.85,0.34 -3.03,2.02 -2.86,2.53 0,0 -4.54,-1.52 -2.19,0.17 -2.69,1.01 -1.18,0.68 -2.35,3.36 -2.53,2.7 -4.54,2.69 -2.19,0.34 -2.18,-0.5 -1.68,0.16 -2.02,0.85 -5.39,3.03 -10.26,4.21 -2.02,-0.34 -1.68,0.51 -1.18,1.18 -4.2,2.19 -3.87,2.52 -2.19,0.68 -4.54,0.67 -2.86,-1.52 -1.85,-2.86 -5.15,-0.62 -1.49,-2.46 -2.92,-6.05 -11.87,0.45 -8.52,-1.35 1.31,-4.74 0,-4.59 -0.99,-4.76 -1.47,-2.13 -4.42,-1.48 -3.93,-6.73 -2.79,-2.13 0.33,-3.12 -2.78,-1.15 -3.61,-2.46 -0.82,-6.4 -2.13,-1.97 -16,-1.68 -2.07,0.11 -5.49,-2.02 -0.46,-1.26 0.2,-1.45 0.5,-1.01 -0.2,-1.4 -0.65,-1.81 -1.11,-0.56 -5.91,1.16 -4.34,0.36 -1.86,1.25 -1.64,0 -2.52,0.51 -1.39,-0.13 -1.89,-0.88 -2.53,-0.26 -4.79,2.28 -1.52,1.14 -3.4,0.63 -1.77,1.52 -1.01,2.65 -1.51,0.13 -1.14,-0.38 -2.65,-2.28 -1.01,-1.77 -5.3,-1.89 -1.76,-1.52 -1.14,-2.02 -1.51,-1.77 -1.52,-0.89 -4.16,-0.76 -3.54,0.13 -2.58,2.25 -0.18,1.47 -0.56,1.21 0.5,4.18 -1.25,2 -1.49,-0.62 -3.64,0.47 -7.62,-0.22 -6.93,-1.06 -4.75,-1.9 -4.16,-2.15 -16.41,-2.1 -18.92,-8.55 -0.54,-6.68 1.34,-4.54 -1.07,-3.21 -1.6,-2.94 -5.05,0.06 -8.31,-1.92 -4.76,-3.49 -9.45,-8.96 -4.94,-5.21 -4.51,-6 0,0 0.24,-1.87 -0.12,-3.87 -0.84,-5.71 -1.18,-4.93 0.74,-5.39 2.25,-4.73 4.26,-1.12 1.57,0.9 2.24,0 2.92,-2.25 0.81,-2.91 2.42,-0.15 0.66,-0.45 1.13,-1.89 -0.76,-3.62 -1.35,-2.48 -1.34,-1.57 0.22,-2.26 2.69,-0.67 2.92,0.67 4.05,-2.66 4.93,1.13 4.39,1.7 1.37,-0.2 5.65,-4.6 1.09,-0.13 1.98,0.3 0.56,-0.48 0.88,-1.01 0.77,-2.07 1.63,-1.22 0.3,-0.98 -0.05,-3.57 0.97,-1.83 2.42,-0.9 3.87,0.29 1.8,-1.85 0.8,-1.76 -0.2,-1.64 1.59,-3.77 0.68,-3.83 0,-5.19 1.25,-3.92 0.61,-0.97 -0.29,-4.85 -0.9,-2.94 0,-1.8 2.02,-4.52 0.67,-4.06 2.86,-5.07 0.27,-2.16 1.21,-1.16 0.11,-1.85 -0.41,-3.96 -0.02,-3.88 0.33,-1.1 -0.16,-1.64 -0.81,-0.69 -3.17,-0.05 -0.77,-0.4 0.11,-1.55 -0.27,-0.69 0.93,-0.79 3.86,-2.02 1.48,-0.48 1.26,-0.83 0.5,-1.07 0.86,-0.91 1.72,-0.88 1.91,-1.95 2.7,-0.47 4.56,-3.59 1.24,0.11 1.27,-0.45 2.05,0.2 1.38,-0.65 2.72,0.2 3.09,-0.94 1.1,0.25 1.67,-0.58 1.64,-1.7 1.59,0.21 1.04,-2.11 0.67,-0.62 0.14,-1.49 1.09,-2.17 -0.71,-1.05 0.14,-0.62 -0.28,-0.69 0.5,-1.03 -0.54,-1.29 0.38,-0.97 1.41,-1.48 -0.45,-1.84 0.39,-1.48 0.5,-0.66 -0.12,-1.2 0.34,-2.55 0.29,-0.76 1.77,-1.69 0.7,-1.62 0.84,-1.08 -0.17,-0.88 -1.51,-1.76 -1.58,-1.24 -0.88,0.03 -2.01,-0.99 -0.52,-1.89 -0.64,-0.78 0.16,-0.45 -0.34,-1.46 0.23,-1.03 0.98,-1.1 2.09,-1.2 1.14,-2.06 0.77,-2.51 -0.05,-1.05 -1.7,-1.29 -0.87,-1.41 -0.25,-1.64 0.48,-1.29 2.54,-2.31 0.95,-2.06 2.99,-4.12 1.52,-0.67 3.42,0.05 1.91,-0.96 1.35,-0.26 0,0 0.51,1.98 2.82,4.79 1.17,0.26 1.82,-0.16 2.04,-1.37 3.21,-0.56 3.73,0.44 0.93,0.58 0.75,-0.1 1.98,-1.58 3.08,-1.5 6.45,-1.42 0.8,-1.04 -0.12,-1.32 -2.55,-2.1 -0.68,-2.23 1.87,-4.12 2.38,-1.03 11.81,2.32 5.88,-1.12 3.23,1.55 5.43,0.27 1.89,0.93 1.63,1.22 2.13,3.93 3.04,1.5 1.68,2.04 1.02,2.11 1.95,0 2.43,-0.89 2.96,0.75 7.22,3.39 0.62,0.73 0.18,1.66 -1.01,3.74 -0.22,3.23 0,0 -0.11,1.45 -0.62,1.56 -0.78,3.72 -1.1,1.7 -6.45,8.53 -2.1,1.91 -0.88,1.72 -2.65,1.58 -1.14,1.46 -1.4,3.3 -0.57,3.62 0.27,2.46 2.54,2.26 1.58,3.74 1.67,1.48 0.84,1.31 1.36,1.09 0.91,1.48 2.82,3.05 3.2,2.4 2.48,0.71 0.58,2.91 1.55,0.52 1.36,1 2.63,4.55 2.76,1.88 2.27,0.72 1.86,-0.03 2.05,3.86 1.77,2.26 2.31,1.19 0.9,0.79 0.72,2.14 -0.31,2.03 -1.16,2.71 -0.19,1.55 0.43,1.07 5.1,4.69 1.6,2.62 2.76,1.45 2.12,2.12 0,0.5 -0.93,1.12 0.03,0.57 2.62,3.97 2.76,0.69 2.36,1.43 6.26,6.07 0.59,0.29 5.74,6.33 3.66,2.71 1.19,1.53 1,0.73 1.52,2.19 1.33,0.72 4.35,0.26 1.48,0.98 1.33,-0.28 1.45,0.12 0.52,-0.65 0.69,-0.21 0.64,0.17 0.57,-0.69 0.62,0.65 0.45,-0.35 1.43,0.44 0.91,1.74 0.04,0.91 1.87,1.49 -1.51,1.38 1.44,0.88 2.72,-0.04 0.47,0.73 2.16,0.72 1.29,1.6 -0.6,3.13 0.52,1.07 1.92,-0.11 2.83,0.81 1.97,1.46 2.02,0.51 3.02,4.62 1.2,3.31 4.49,4.8 2.39,1.81 2.69,2.7 1.5,2.4 0.59,3.01 5.2,9.05 0.85,3.71 0.54,1.19 1.07,1.68 1.08,2.64 8.83,17.33 -0.75,4.88 0.85,2.56 1.78,1.66 0.66,1.3 3.12,9.58 1.61,3.2 4.32,6.97 1.14,0.54 7.13,1.52 0.64,0.9 -0.65,2.4 0.45,0.66 -0.24,0.85 0.26,0.91 0.01,2.65 0.26,0.52 -0.34,1.52 z" 
                fill="rgb(151, 144, 238)" 
                stroke="white" 
                stroke-width=".7px"
                title="North" 
                id="CM-NO" 
            />
        </svg>