<svg xmlns="http://www.w3.org/2000/svg" viewBox="136.01902000000024 952.3354300000009 396.7499999999997 154.75996999999995" width="396.7499999999997" height="154.75996999999995">
            <path 
                d="m 419.46902,963.72543 -1.06,2.85 -0.75,6.64 -0.21,5.91 1.97,3 9.9,9.23 4.24,4.86 4.88,8.74997 0.79,8.56 0.16,10.21 3.5,5.48 2.01,0.63 2.44,2.42 1.91,-0.31 1.8,1.47 4.14,-0.1 4.66,1.05 2.54,-1.58 4.35,2.85 6.15,0.53 2.01,1.05 1.06,-1.48 1.8,-1.58 2.39,2.54 3.44,-0.64 1.38,-1.58 4.14,2.91 1.58,1.73 0.96,4 1.9,-0.63 -1.76,-4.68 0.18,-0.49 1.9,-0.73 2.65,2.53 2.84,1.91 3.1,-1.18 6.73,4.27 5.56,-1.31 1.38,-1.37 -1.16,-2.64 1.27,-1.48 2.12,0.32 0.1,-1.69 1.27,-0.21 1.98,0.27 2.16,-3.22 4.45,-2 -0.21,3.58 2.04,23.97 0.79,6.08 1.83,41.45 0,0 -18.11,-0.07 -9.32,0.31 -10.91,-0.22 0.13,-1.24 -1.16,-0.62 1.82,-1.97 -0.69,-1.25 0.03,-0.85 -0.92,-0.59 -0.45,-1.62 -0.49,-0.07 -0.78,0.09 -0.89,-0.12 -0.24,-0.44 0.17,-0.57 -1.37,-1.27 -0.42,0 -0.61,0.61 -0.66,-0.17 -0.24,0.59 -0.96,0.4 -0.69,-0.3 -1.01,0.3 -0.19,-0.87 -1.08,0.3 -0.69,-0.74 -0.05,-0.28 0.99,0.15 -0.34,-0.82 -0.69,-0.02 -0.68,0.42 -1.86,-0.66 -4.97,1.6 0.35,1.74 -0.99,-0.38 -0.75,0.26 -0.12,0.66 -0.96,0.4 -0.26,0.51 -1.13,-1.27 -0.59,0.33 -0.57,-0.07 -0.52,0.8 -1.9,0.28 -0.45,-0.16 -0.14,-0.99 -0.52,0.4 -0.54,-0.05 -0.5,-0.54 -2,0.02 -0.73,0.03 -2.33,0.77 -0.75,-0.26 -1.96,0.02 -1.08,-0.96 -1.55,0.05 -0.45,0.25 0.54,0.71 -2.14,0.82 -0.9,-0.04 -0.99,-0.97 -0.52,0.42 -0.44,1.3 -0.47,-0.21 -0.48,0.21 -0.44,-0.05 -0.38,-0.73 -2.75,-0.38 -0.22,-1.34 -0.63,-0.49 -0.52,0.94 -0.71,0.23 -1.29,-0.33 -0.33,1.11 -1.65,0.89 -3.48,0.69 -0.83,-0.59 -1.62,-0.22 -0.8,0.29 -2.24,-1.44 -1.51,-0.12 -0.4,0.33 -1.22,0.17 -3.42,-0.59 -1.46,-1.06 -2.31,0 -0.44,-0.42 0.07,-0.69 -0.97,-0.35 -3.32,1.34 -1.65,0.19 -2.47,-0.68 -1.22,0 -1.77,0.66 -2.23,0.18 -2.97,-0.32 -10.06,-2.16 -2.69,-0.04 -0.99,0.08 -0.56,1.39 -0.61,0.57 -2.07,-0.05 -0.57,0.54 -1.27,0.26 -1.67,-0.87 -1.25,-1.93 -0.61,-0.23 -0.55,0.32 -3.5,-0.51 -0.73,0.71 -0.69,0.21 -0.59,-0.1 -0.92,-0.96 -1.48,-0.85 -1.74,1.2 -2.64,-0.07 -0.89,-0.56 -2.12,-0.21 -0.33,0.05 -0.26,0.54 -0.9,-0.05 -2.56,-0.91 -0.38,0.82 -0.94,-0.33 -0.99,0.17 -1.09,-0.69 -0.84,0.43 -0.36,-0.28 -0.54,0.49 -1.86,-0.3 -1.27,0.63 -1.63,-0.72 -0.25,0.68 -0.66,0.21 -1.23,-0.54 -1.17,0.61 -0.9,-0.44 -1.11,0.07 -0.35,1.01 -0.97,-0.02 -0.04,-0.76 -1.46,0.38 -0.5,-0.49 -1.06,-0.33 -0.23,0.8 -2.33,-0.19 -0.52,-0.3 -1.04,0.45 -0.23,0.51 -2.19,-0.35 -1.02,0.31 -0.02,-0.8 -0.64,-0.89 0.1,-0.83 -1.46,0.26 -0.9,-0.89 -1.11,-0.28 -1.2,-1.58 -0.45,-0.04 -2.19,0.49 -0.59,0 -0.4,-0.42 -1.27,0.66 -0.82,0.9 -1.77,-0.12 -1.5,0.83 -2.5,-1.18 -1.06,-0.09 -2.1,0.24 -0.49,0.7 -0.82,0.45 -0.52,-0.23 -0.78,0.23 -1.08,-0.54 -1.68,0.01 -1.9,0.87 -1.3,-0.89 -1.69,-0.07 -0.66,0.14 0.59,0.71 -0.4,0.33 -0.66,0.02 -1.3,-0.92 -0.94,0.55 -1.15,-0.02 -2.34,-0.68 -0.77,0.44 -0.76,-0.02 -1.17,1.11 0.87,0.52 0.42,0.72 0.08,0.26 -0.57,0.59 0.52,0.78 -0.75,1.06 -1.06,0.73 -0.26,0.92 -0.75,0.73 0.68,0.54 -0.28,0.33 0.19,0.73 -0.3,0.73 0.4,0.51 -0.66,1.49 0.72,1.05 -13.32,0.04 -2.53,-0.69 -1.27,-0.68 -0.89,0.1 -1.65,1.16 -99.71,0.19 -2.61,1.45 -1.36,-1.71 -1.74,0.13 -1.79,1.45 -1.16,-0.56 -4.28,0.25 -1.18,-0.28 -0.81,-1.62 -0.7,1.62 -0.54,0.4 -4.67,-1.63 -0.59,0.24 -0.73,-0.19 -1.93,-1.14 -1.84,-0.33 -2.1,-0.93 -0.41,0.07 -0.9,0.96 -0.54,-0.1 -0.37,-0.43 -0.11,-1.58 -0.33,-0.54 -0.52,-0.42 -0.66,-0.04 -0.67,-1.13 -3.49,-1.47 -1.72,-4.54 0.32,-2.2 -0.13,-1.74 -1.19,-1.89 0.18,-0.37 -0.26,-1.65 0.43,-1.03 -0.2,-2.89 -0.4,-1.57 0.17,-0.74 0.66,-0.51 0.08,-0.91 -0.51,-2.42 0.2,-0.96 -0.77,-3.13 0.02,-0.48 0.49,-0.17 0.23,-0.74 -0.09,-5.09 0.72,-1.06 0.86,-3.86 0.25,-0.23 0.63,-5.57 0.43,-1.23 0.34,-0.08 0.69,-1.37 -0.26,-1.99 0.6,-0.2 1.21,-1.64 -0.09,-1.34 0.34,-0.66 -0.23,-1.1 1.2,-2.91 0.63,-0.45 -1.2,-4.61 0.26,-0.25 0.09,-1.8 0.54,-1.79 0.57,0.03 0.14,-0.28 0.29,-2.02 -0.37,-1.45 0.63,-1.2 0.25,-2.16 0.35,-0.11 0.4,-2.31 1.11,-1.11 0.12,-0.85 0.6,-0.68 0.4,0.11 1.89,-1.36 0.45,-1.74 0.43,-0.43 0.12,-2.21 0.48,-0.46 -0.37,-1.73 0.95,-0.57 0.17,-0.4 -0.66,-1.94 -2.32,-4.55 -1.03,-3.18 -1.26,-2.73997 -0.28,-1.42 -2.37,-4.01 0,0 0.17,-0.49 4.83,-0.83 3.64,-3.62 5.45,-2.92 1.81,-4.17 -0.28,-1.81 1.82,-1.94 -0.42,-2.92 0.42,-2.71 -0.23,-2.3 5.68,-7.23 1.06,-2.22 4.39,-0.01 2.94,-2.08 1.11,0.69 0.98,1.81 2.8,1.25 0.22,2.41 0,0 -1.76,2.46 2.13,4.04 0.94,4.89 2.52,8.31 8.66,-1.25 24,-7.29 17.92,-4.8 2.52,-0.28 2.04,1.14 1.19,3.03 0.66,2.6 1.25,1.07 8.83,-2.42 2.38,0.14 1.25,1.95 1.82,0.38 3.9,-1.05 3.23,2.47 2.09,2.78 1.68,6.4 0.28,3.75 2.38,2.85 2.37,0.35 0.7,1.81 -0.14,2.91997 3.49,2.64 2.52,3.34 1.95,0.13 3.92,-1.11 1.95,0 4.2,1.25 3.63,-1.53 3.07,-0.41 10.76,0.83 3.91,0 4.48,-0.83 3.91,-1.95 6.01,-2.36 2.37,-2.23997 1.82,-7.08 2.66,-2.5 1.8,-3.4 2.11,-0.35 2.4,-2.55 5.77,-1.87 2.44,-6.54 2.44,-0.74 1.69,2.11 2.03,0.96 1.68,-0.75 1.91,0.53 1.59,2.53 13.78,5.48 0.85,1.37 -1.17,2.22 0,1.58 1.06,0.31 1.91,-0.94 1.91,-1.48 3.6,0.63 2.12,-2.32 0.74,-4.22 2.55,-9.38 5.19,-5.38 8.48,-6.33 4.35,-3.91 2.54,-4.22 2.01,-0.52 2.44,0.52 4.04,8.23 z" 
                fill="rgb(151, 144, 238)" 
                stroke="white" 
                stroke-width=".7px"
                title="South" 
                id="CM-SU" 
            />
        </svg>