<svg xmlns="http://www.w3.org/2000/svg" viewBox="0.26901597000000116 658.5554300000006 166.61000403000003 268.1999999999995" width="166.61000403000003" height="268.1999999999995">
            <path 
                d="m 6.479016,839.54543 -0.34,0.54 0.23,1.11 0.34,-0.29 0.57,1 -0.63,0.74 -0.29,0 -0.09,-0.51 -0.57,-0.36 0.11,-0.66 -0.4,0.09 -0.37,-0.71 0.09,-1 0.97,-0.37 0.38,0.42 z m -0.38,26.42 0.63,-0.2 0.31,-0.66 0.6,0 0.29,-0.91 -0.09,-0.77 -1.6,-0.43 -0.51,-1.37 1.17,-0.74 -0.77,-0.29 -0.31,-1.17 -0.97,-0.63 -0.52,-0.8 -1.26,1.08 -0.23,2.08 -0.49,0.29 -0.46,-0.06 -1.62000003,0.31 0.23,2.59 0.54000003,2.22 0.71,0.8 1.74,0.51 1.34,-0.37 1.2,-1.28 0.07,-0.2 z m -1.74,-15.58 0.43,-0.37 0.09,-1.48 -0.61,-0.49 -1,0.6 -0.29,1.34 0.23,0.4 1.15,0 z m 17.64,15.61 1.57,0.17 -0.26,0.54 -2.69,2.31 -10.26,-0.29 -2.4,0.38 -1.32,-0.17 -0.4,-0.31 0.49,-0.14 0.31,-1.14 0.54,-0.4 0.34,-0.77 1.54,0.48 1.54,-0.46 0.14,-0.26 -0.09,-1.03 -0.26,1.11 -1.2,0.34 -1.34,-0.74 -0.11,-0.54 0.31,-0.63 -0.4,-1.25 -1.49,-0.4 -0.57,-1 1.03,-0.54 0.14,-0.37 -0.17,-0.31 -0.69,-0.17 -0.17,-1.05 0.69,-0.46 -0.06,-0.17 -0.89,0.54 -1.17,-0.88 -0.11,-0.6 1.06,-0.94 3.23,-1.6 0.43,-0.46 -0.17,-0.48 -0.03,-0.57 0,-0.2 -1.26,-1.25 -0.46,-1.88 0.49,-0.63 0,-0.74 -1.57,-0.54 -0.34,-0.4 0.23,-0.29 1.72,-0.29 1.12,-0.97 0.03,-0.23 -0.26,-0.77 -0.86,-0.6 -0.03,-0.4 1.89,-0.08 0.66,-0.57 -0.09,-1.68 1.23,-0.26 2.23,-0.48 -0.23,1.37 1.14,0.11 0.05,0.46 -0.45,2.45 -0.26,0.11 0.31,0.6 -0.29,2 0.14,0.11 1.69,1.85 0.89,2.22 0.63,6.55 0.34,1.4 0.4,0.29 0.43,1.25 -0.06,0.46 -0.69,0.57 -2.12,-1.14 -0.23,0.29 0.17,0.14 1.37,1.11 0.23,0.17 1.63,-0.34 0.29,-0.54 0.71,-0.29 2.17,1.63 -0.06,0.4 0.52,-0.03 0.11,1.11 -0.67,0.21 z m -19.96,-7.55 2.03,-1.25 0.34,-0.68 0.51,-0.08 2.12,-1.17 0.23,-0.34 1.23,-0.11 0.34,-0.26 -0.03,-0.66 -0.97,-1.05 -0.63,-1.63 0,-0.8 0.54,-1.23 -1.75,-0.65 -0.63,0.11 -0.31,1.42 -0.63,0.52 -0.38,0.05 -1.97,-0.23 -0.26,0.03 -0.2,2 -0.94000003,1.37 -0.41,1.68 0.17,1.08 1.60000003,1.88 z m 95.18,52.67 -0.34,-0.41 -0.38,-0.03 -0.4,0.12 0.01,0.7 -0.41,0.5 -0.98,0.17 0.27,2.51 0.27,0.31 0.45,0.12 0.95,-0.55 -0.29,-1.05 0.83,-0.11 -0.03,-0.68 0.57,-0.28 0.27,-1.08 0.01,-0.02 0.35,-0.77 -0.37,-0.39 -0.22,0.13 0,0.45 -0.06,0.2 -0.5,0.16 z m 69.660004,-165.01 -2.55,1.82 -2.77,0.61 -0.87,1.38 -2.95,2.43 -6.27,3.96 -1.1,2.2 -0.77,10.96 -0.93,2.47 -2.09,1.51 -0.88,2.25 -1.91,2.36 -2.26,1.46 -3.36,0 -1.12,1.02 -2.47,4.17 -1.38,0.56 -3.71,-0.56 -0.44,1.64 2.87,10.49 3.82,2.89 4.98,8.89 -0.68,1.37 -3.26,0.25 -1.39,0.58 -4.04,8.47 -0.11,2.39 2.89,1.37 0.34,1.05 -0.29,0.83 -8.62,8.99 -1.15,6.58 -6.03,7.5 0.22,3.86 -2.77,1.21 -3.71,-1.15 -4.17,6.23 -2.2,4.04 -1.01,2.46 -1.77,2.73 -0.08,3.26 -0.39,1.82 1.42,3.27 -3.73,5.96 -2.040004,4.27 -1.19,1.08 -0.83,4.54 -1.11,4.04 0.45,1.7 2.69,0.27 1.35,1.52 4.580004,-0.89 1.44,-0.54 0.99,0.8 -0.54,2.32 2.06,2.69 -0.93,1.02 -1.13,2.27 -1.08,0.98 -1.46,0.03 -1.05,-0.81 0.14,-0.54 -0.57,-0.34 -1.32,0.63 0.11,0.94 -0.34,0 0.06,0.37 -0.690004,0.88 0.510004,1.2 -0.2,0.48 -0.510004,0.26 -1.06,-0.4 -0.49,-0.54 -0.37,0.14 0.03,0.68 -0.31,0.14 -0.6,-0.46 -0.51,0.08 -0.37,0.26 -0.17,1 -1.14,0.26 -0.2,1.22 -1.72,0.37 -0.14,-0.31 0.37,-1.14 -0.32,-0.34 -0.28,0.28 -0.8,0.17 -0.09,0.14 -0.94,0.63 -0.37,1.48 -0.6,0.06 -0.69,0.8 -0.94,0.37 -1.14,1.34 -1.74,0.34 -0.89,1.11 -0.57,-0.48 -0.89,0.29 -0.8,0.8 0.14,0.88 -0.72,0.23 0.09,0.88 -0.63,0.29 -1.34,-0.46 0.43,1.31 -1.54,0.11 -0.57,0.94 0.23,0.57 -0.97,0.6 -1.09,-0.6 0.23,-0.71 -0.46,-0.77 -1.12,0.11 -0.37,-0.54 0.17,1.4 -0.6,0.26 -0.31,-0.26 0.14,-0.34 -0.37,-0.17 -0.26,-0.71 0.51,-0.4 0.2,-1.71 -0.74,-1.34 0.49,0.11 0.29,-0.4 -1.17,-1 -0.49,-0.11 -0.66,0.34 -0.49,-0.29 -0.86,0.29 -0.23,-0.23 -0.57,0.4 -1.93,-0.04 -0.2,-0.77 -1.23,0 -1,0.97 -0.63,-0.43 0.11,-0.26 -0.77,0.26 -0.31,-0.43 -0.6,-0.08 -1.2,-1.74 -1.86,-1.31 -3.03,-1.57 -1.52,-0.34 -0.46,-0.68 -0.31,0.29 -0.86,0.06 -0.34,-0.34 0,-0.71 -1,-0.11 -1.4,-1.68 -1.2,-0.28 -0.03,-0.48 0.8,-0.71 0.4,-1 -0.23,-3.25 1.31,-2.96 -0.49,-0.97 0.23,-0.54 -1.06,-1.68 -0.11,-1.03 -1.03,-0.85 -0.26,-1.05 -0.83,-0.37 -2.23,-1.37 -0.14,-0.26 -0.77,-0.03 -0.26,-1.45 -1.69,-1.51 -0.03,-1.08 0.54,-0.68 0.4,-1.82 -0.49,-1.45 0.09,-0.54 -0.57,-1.25 -1.86,-1.05 -0.97,-1.94 -0.66,-2.54 0.14,-0.46 -0.29,-1.03 0.17,-0.28 0.17,-1.31 1.29,-1.42 0.92,-0.17 -0.83,-0.51 -0.43,-1.71 0.46,-0.14 1.83,-2.65 -1.12,-0.77 -0.34,0.68 -0.57,-0.14 -1.29,-1.31 0.29,-3.73 -0.17,-0.83 -0.03,-1.11 0.2,-0.8 -0.34,-0.26 -0.72,-1 -0.14,0.66 -1.12,-0.68 -1.09,-1.91 -1.14,-1.03 -0.23,-0.77 -0.26,-0.11 -0.51,0.74 -1.13,-0.95 -0.03,-0.91 0.6,-1.48 0.11,-2 -1.34,-0.31 -0.14,0.68 -0.66,0.8 -3.03,0.71 -1.26,0.97 -2.03,0 -0.43,-1.88 -0.49,-0.8 0.09,-0.48 1.11,-1.31 0.8,-2.31 0.57,-0.83 -0.03,-0.85 0.51,-1.11 -0.27,0.11 -0.66,0.63 0.11,0.37 -0.86,2.05 -0.43,0.34 -0.29,-0.29 -1.17,3.31 1,3.19 0.6,0.37 1.54,0.17 -0.14,1.63 0.23,0.77 1.8,2.68 1.2,2.71 0.74,1 0.03,0.77 -1,1.03 -2.03,0.48 -0.77,-0.77 0,-0.37 -0.57,-0.23 -1.49,-1.65 -2.03,-0.49 -1.86,-1.54 0.26,-0.34 -0.94,-3.42 0.29,-0.2 0.03,-0.34 -0.51,-0.03 -0.39,-1.09 -1.32,-1.99 2.2,-1.05 1.17,-1.28 0.31,-1.74 -1.17,-1.82 1.12,-0.29 0.51,-0.83 0,-0.6 -0.34,0.08 -0.23,0.94 -0.54,0.08 -0.23,0.09 -0.69,0.57 0,0.49 0.63,0.63 0.23,0.77 -0.4,2.14 -0.6,0.37 -2.03,0.34 -1.8,-1.05 0.2,-0.31 -0.51,-0.14 -0.8,-0.57 -0.6,-3.11 0.49,0.2 -0.54,-0.74 0.29,-0.54 1.37,0.34 0.6,-0.11 0.26,-0.51 -0.14,-0.97 0.49,-0.31 0.29,-0.68 -0.86,0.77 -0.09,-0.4 0.55,-1.47 -0.69,0.82 -0.17,0.94 0.31,1.34 -0.28,0.29 -1.04,-0.46 -0.8,-0.03 -0.2,-0.94 -1.12,-0.14 0.4,-1.14 0.46,-0.11 0,-0.26 -2.71,0.62 -0.44,-0.05 -1.4,0.43 0.03,1.57 -0.6,0.66 -1.37,-0.17 -0.23,-0.57 -0.63,-0.34 -0.11,0.23 0.58,0.49 -0.15,1.36 1.12,0.91 -0.51,0.71 -1.17,0.31 -1.4,-1.51 -0.34,-1.34 0.43,-1.25 -0.17,-1.23 0.34,0.2 0.2,1.4 0.34,0.17 0.85,-0.95 -0.09,-0.2 0.23,-1.05 -0.14,-0.43 -0.31,0 0.4,-0.63 -0.77,0.26 -0.23,-0.2 -0.09,-0.43 0.4,-0.54 -0.51,-0.63 -0.43,-0.09 -0.13,0.26 -0.56,0.23 -0.17,-0.26 -0.23,-0.23 -0.74,-0.31 1.06,-2.53 1.1,-1.14 0.61,-0.22 0.66,0.25 0.46,0.94 0.88,0.44 0.94,-0.03 4.02,-2.44 -0.06,-1.61 -0.5,-0.94 -2,-1.9 0.03,-1.58 1.71,-2.08 0.73,-0.48 2.17,-0.27 0.38,-0.5 0.14,-0.73 -0.5,-1.2 0.21,-0.99 0.69,0.04 0.99,-0.69 0.21,-0.4 -0.29,-0.54 1.48,-1.33 0.14,-0.73 1.06,-0.62 0.45,0.04 0.14,-0.35 -0.5,-0.64 -0.97,-0.14 -0.29,-0.57 1.62,-1.61 0.45,-0.12 -0.05,-1.11 1.06,-0.67 -0.22,-0.83 0.75,-1.25 0.49,-1.63 2.24,-1.73 0.14,-1.39 2.19,-0.6 0.94,-0.69 1.06,-1.35 0.79,-2.04 2.38,-3.6 0.11,-8.1 -0.35,-2.81 2.36,-9.16 0.63,-0.62 -0.34,-1.25 0.32,-2.58 -0.5,-1.63 0.18,-1.02 1.86,-2.25 1.07,-4 2.25,-3.29 0.49,-1.59 0.99,-1.02 0.26,-0.83 -0.1,-1.75 -0.41,-1.18 -3.87,-3.79 -1.31,-2.52 -1.64,-0.77 -1.67,-2.31 -0.29,-1.98 0.21,-0.5 0.62,0.9 0.33,0.07 2.44,-3.11 0.75,-1.61 -0.76,-0.87 0.09,-0.5 1.27,-1.09 0.47,-1.37 -0.38,-0.75 -1.26,-0.35 -0.62,-0.64 -0.67,-1.42 1.08,-0.67 1.08,-1.8 2.81,-1.45 1.81,-2.87 0.92,-0.95 1.87,-0.55 3.68,-2.96 2.66,-1.58 14.51,-12.91 1.64,-1.62 1.57,-4.17 1.99,-1.95 2.71,-1.99 1.64,-0.7 3.74,-0.86 2.08,-3.22 2.57,-4.85 1,-1.17 0.54,-0.05 0.26,-0.36 -0.28,-0.78 0.73,0.05 0.52,-0.48 0.41,-2.08 -0.37,-1.21 0.51,-0.48 0.2,-2.01 0.59,-0.57 3.66,1.37 3.87,2.16 1.04,0.14 1.35,-4.68 0.04,-1.74 0.51,-0.42 0.82,-2.75 0.14,-0.59 -0.24,-0.66 0.7,-2.96 0.650004,-0.15 5.73,0.88 1.49,-0.44 4.34,-2.52 0.35,-0.38 -0.34,-1.71 0.18,-1.61 1.29,-2.37 2.54,0.58 1,0.63 0.54,-0.43 1.18,-0.12 0.19,-0.71 1.71,2.19 0.99,-0.43 0.85,0.26 0.35,-0.45 0.62,0.52 1.11,-0.29 3.65,3.51 -0.36,4.73 -1.34,4.07 2.86,3.87 -1.22,9.58 1.22,3.47 -2.55,4.65 -2.24,6.71 -3.93,4.07 -7.66,3.9 -0.23,1.92 0.57,1.78 2.43,3.25 -1.6,3.81 -1.02,1.62 2.03,1.98 3.01,1.5 1.43,2.08 2.97,2.78 3.59,-0.69 1.98,1.57 1.72,2.82 4.09,2.54 7.15,2.09 5.67,2.89 2.19,-2.43 3.67,-1.13 3,1.46 8.66,1.52 2.13,3.23 0.37,2.6 z m -74.320004,165.69 z m -2.27,3.96 1.03,-1.42 1.34,-0.2 -0.36,-0.81 0.23,-1.13 -0.98,0.3 -0.92,0.77 -0.22,1.34 -0.85,0.23 0.42,0.22 0.31,0.7 z m 4.49,-0.91 -0.06,-1.25 -0.95,0.01 -1.16,0.85 -1.06,0.06 -0.34,1.14 -0.43,0.4 -0.66,-0.06 -0.34,-0.63 -0.46,-0.11 -1.29,0.74 -1.26,1.37 -1.63,0.29 -0.2,0.68 0.4,0.94 1.03,0.97 0.37,-0.06 0.06,0.29 0.92,0.48 0.26,0.26 1.17,1.25 1,-0.23 1.09,0.46 0.23,-0.54 0.92,0.17 1,-0.8 -0.31,-0.94 -0.12,-0.17 0,-1.05 1,-0.37 0.43,-0.85 0.83,-0.63 -0.06,-0.91 0.71,-0.97 -1.09,-0.79 z m -57.82,-53.98 -0.83,-2.45 -3.35,-4.39 -0.06,-1.05 0.54,-2.57 -0.23,-1.08 -0.6,1.11 -0.63,0.43 -3.09,0.77 -0.66,0.46 -0.29,1.03 0.26,1.62 2.75,4.13 1.29,0.6 -0.03,0.48 2.29,1.91 0.26,0.51 0.43,-0.11 0.23,1.25 1.89,1.23 0.83,0.14 0.34,-0.23 -0.06,-1.28 -1.28,-2.51 z m 51.5,61.36 -1.12,-1.17 -1.37,-0.54 -1.4,-1.34 -0.94,0.4 -0.37,0.26 -0.43,0.29 -0.17,0.85 -0.43,0.26 -0.11,0.94 1.09,2.08 2.69,2.5 3.09,-3.52 -0.4,-0.14 -0.13,-0.87 z m -54.76,-52.3 -0.46,0.34 -0.03,0.57 -0.31,-0.17 -0.23,0.26 -0.11,1.4 0.31,0 1,-1.03 -0.37,-0.88 0.2,-0.49 z" 
                fill="rgb(151, 144, 238)" 
                stroke="white" 
                stroke-width=".7px"
                title="South-West" 
                id="CM-SW" 
            />
        </svg>