<svg xmlns="http://www.w3.org/2000/svg" viewBox="140.23902000000012 683.00543 150.48999999999992 143.4100000000003" width="150.48999999999992" height="143.4100000000003">
            <path 
                d="m 277.19902,683.00543 2.84,1.41 4.54,0.37 3.22,1.23 0.94,2.44 -0.3,2.32 -1.39,1.07 0.09,2.99 -0.38,3.87 0.47,2.18 0.85,1.51 1.71,1.8 0.75,1.51 0.19,1.42 -2.08,4.53 -1.32,2.08 -2.07,1.87 0,0 0,0 0,0 0.61,4.88 -0.82,3.94 0.88,2.05 0.49,6.54 3.67,2.33 -3.49,4.98 -3.25,2.61 -4.26,4.07 0.67,2.52 -1.39,1.81 -0.62,2.19 2.15,7.73 -2.15,7.01 -1.26,0.39 -0.64,1.55 1.94,2.13 -0.7,3.49 -2.54,1.75 -1.69,1.83 -1.36,2.79 -2.96,0.9 -2.59,2.51 0.51,2.44 -0.23,2.69 -0.87,2.79 0.69,2.51 -5.01,1.33 -3.88,5.09 -1.3,6.97 -2.52,9.6 -4.53,3.34 -4.28,-0.69 -6.98,-7.8 -1.77,0.46 -3.42,4.22 -11.16,5.91 -5.73,1.95 -7.55,-1.24 0,0 -4.02,-0.7 -0.64,-2.76 -0.68,-0.8 -1.97,1.13 -1.65,-1.44 -0.74,-4.45 -0.7,-1.36 -2.36,-2.33 -0.58,-2 0.29,-2.86 -0.9,-0.85 -5.02,0.34 -2.68,0.8 -3.22,-1.28 -2.38,-0.3 -1.29,1.72 -0.43,3.86 -5.88,3.43 -2.72,5.44 -0.57,1.86 -2.73,0.14 -2.01,-4.29 -1.96,-0.27 -0.8,-3.19 0,-4.11 -5.89,-2.15 -2.36,-6.46 1.19,-3.39 0.39,-3.9 -2.18,-5.15 -2.66,-2.68 -2.64,0.31 -1.73,-0.19 -2.21,1.92 -1.45,-0.03 -2.03,-0.9 -0.47,-1.56 1.29,-7.21 0,0 2.26,-1.46 1.9,-2.36 0.88,-2.25 2.09,-1.51 0.93,-2.47 0.77,-10.95 1.1,-2.2 6.28,-3.96 2.95,-2.43 0.87,-1.38 2.77,-0.62 2.55,-1.82 -0.37,-2.54 -2.13,-3.23 0,0 2.37,-0.24 5.77,-4.7 7.87,2.53 2.5,2.73 2.08,0.85 2.15,-1.86 0.86,-6.3 5.85,-1.17 3.03,-0.23 7.8,-1.63 11.71,0.27 2.59,-3.4 2.98,-7.97 4.01,-8.64 1.7,-0.95 3.4,0 3.79,0.78 4.25,1.49 2.25,0.27 2.11,-1.88 5.41,-1.59 6.7,-3.91 1.96,-2.29 0.32,-4.89 1.31,-1.64 -0.97,-1.91 -0.57,-4.25 0.76,-0.95 1.13,-0.85 7.76,1.32 3.98,-0.28 1.88,-1.21 1.15,-1.72 0.47,-1.42 0.76,-0.28 z" 
                fill="rgb(151, 144, 238)" 
                stroke="white" 
                stroke-width=".7px"
                title="West" 
                id="CM-OU" 
            />
        </svg>