<svg xmlns="http://www.w3.org/2000/svg" viewBox="0.29089000000023013 164.26099999999988 328.8299999999998 327.35" width="328.8299999999998" height="327.35">
            <path 
                d="m 195.63089,178.691 0,0 8.38,-1.1 1.08,0.23 2.09,0.99 1.81,0.78 13,-1.77 0.43,1.03 0.08,15.89 2.38,10.5 11.58,9.54 2.59,1.48 1.9,0.26 7.14,-4.08 1.13,6.19 0.27,4.49 0.47,2.16 1.52,2.21 0.91,3.86 0.59,3.8 3.13,7.63 4.09,5.48 9.56,9.64 8.2,7.18 3.16,1.18 6.4,1.08 7.33,2.95 5.41,1.8 10.01,-0.25 1.8,0.54 2.08,1.9 0.93,1.02 1.1,2.05 1.87,4.69 1.3,2.26 0.6,0.66 -2,1.56 2.22,0.66 2.02,1.41 4.4,0.27 1.79,3.96 0.18,-0.05 0.08,0.32 0,0.36 -0.56,1.39 -1.89,2.04 -0.71,1.4 -0.24,1.37 0.01,1.5 0.29,1.45 0.59,1.23 0.7,0.69 1.59,1.01 0.7,0.75 -1.78,2.51 -1.09,1.08 -1.26,0.36 -1.3,-0.41 -3.82,-2.26 -1.48,-0.45 -1.44,-0.2 -5.67,-0.04 -5.29,-1.4 -2.7,-0.35 -2.02,0.27 0.3,1.5 0.79,1 2.94,0.74 5.81,2.93 1.81,1.83 1.43,4.23 1.06,5.32 0.74,1.92 1.64,1.87 2.6,1.81 -0.67,6.76 -10.23,-3.17 -6.83,0.01 -5.05,0.63 -4.73,2.32 -11.16,9.89 -1.61,1.06 -0.66,0.19 -1.27,0.18 -7.3,1.03 -2.8,1.07 -3.18,1.68 0.42,2.15 1.44,2.16 14.05,14.26 9.84,7.4 2.88,2.46 6.27,5.99 -0.06,1.39 -0.31,2.11 -1.06,1.27 -1.02,0.98 -5.55,3.09 -1.52,1.23 -0.8,0.49 -0.96,0.36 -3.8,0.6 -0.7,0.3 -1.78,1.17 -0.46,0.11 -1.25,0.11 -0.96,0.46 -1.11,0.85 -1.72,1.87 -9.28,13.81 -0.85,1.54 -0.08,2.23 -0.33,1.96 -0.88,2.59 -6.33,13.62 -0.56,1.69 -0.16,1.2 0,0.92 0.11,0.6 0.22,0.5 0.05,1.03 -0.26,1.5 -2.34,6.21 -0.2,0.87 -0.41,3.41 -0.39,1.46 -0.44,0.96 -3.36,4.76 -2.05,3.52 -0.45,1.04 -0.2,0.69 -0.73,6.13 -0.76,2.43 -1.78,4.28 -3.87,7.24 -1.55,3.72 -0.44,0.7 -1.17,-1.01 -5.65,-4.92 -5.65,-4.92 -5.65,-4.93 -5.04,-4.37 -5.04,-4.38 -5.04,-4.38 -5.05,-4.38 -3.95,-3.44 -5.32,-3.16 -5.23,-3.12 -5.24,-3.12 -5.22,-3.11 -5.23,-3.12 -5.24,-3.12 -5.24,-3.12 -5.22,-3.13 -5.23,-3.12 -5.24,-3.14 -5.23,-3.12 -5.23,-3.13 -5.24,-3.13 -5.23,-3.14 -5.23,-3.13 -5.24,-3.13 -5.23,-3.15 -6.13,-3.68 -3.32,-1.94 -3.22,-1.26 -20.33,-3.93 -0.02,-0.01 0,0 -0.02,0 -4.78,-0.82 -11.79,-2.02 -11.79,-2.03 -11.79,-2.03 -11.8,-2.03 -0.17,0.05 -0.17,0.06 -0.17,0.06 -0.17,0.06 -0.01,-0.55 7.17,-6.13 1.52,-2.23 -1.24,-4.76 -0.88,-2.17 -1.23,-0.72 -11.3,3.14 -0.6,-0.35 -0.45,-1.06 -2.91,-10.15 -0.08,-0.12 -0.02,-0.08 0.02,-0.06 0.08,-0.02 4.61,-1.45 -4.01,-14.8 -2.82,-10.41 -2.72,-10.09 -2.06,-7.57 -2.48,-9.15 -2.77,-10.18 6.59,-3.96 6.6,-3.96 6.6,-3.96 6.59,-3.97 6.6,-3.97 6.6,-3.97 6.59,-3.97 6.6,-3.97 6.59,-3.98 6.6,-3.98 6.59,-3.98 6.6,-3.99 4.27,-2.58 2.32,-1.41 6.6,-3.99 6.6,-3.99 6.59,-4 8.75,-5.31 14.65,-3.94 1.74,-1.14 1.36,-1.93 2.15,-4.75 0,-0.01 10.24,-19.88 0.51,-1.79 0.13,-1.9 -0.5,-12.71 -0.34,-12.01 1.28,0.03 7.66,0.72 10.08,2.91 4.01,0.64 16.33,6.78 7.88,3.1 3.88,0.25 z" 
                fill="rgb(151, 144, 238)" 
                stroke="white" 
                stroke-width=".7px"
                title="Al-Anbar" 
                id="IQ-AN" 
            />
        </svg>