<svg xmlns="http://www.w3.org/2000/svg" viewBox="464.7808900000004 440.9910000000008 119.15999999999968 148.7399999999999" width="119.15999999999968" height="148.7399999999999">
            <path 
                d="m 531.28089,443.961 0,0 -0.21,16.85 19.61,0 0.63,0.39 0.19,0.89 -0.2,33.43 0,0 0.09,2.13 6.32,0.9 0.66,0.23 0.62,0.39 1,1.07 0.76,1.36 0.54,1.51 0.49,3.05 0.26,0.66 0.48,0.5 0.66,0.3 0.7,0.11 0.73,-0.03 2.18,-0.37 0.75,0.04 0.72,0.24 0.56,0.48 1.21,2.03 1.92,2.19 2.32,2.12 0.39,0.59 0.3,0.7 0.12,0.75 -0.16,0.73 -0.43,0.6 -0.58,0.51 -0.46,0.58 -0.13,0.76 0.11,0.48 0.75,1.6 1.19,1.35 0.34,0.71 0.16,0.12 1.09,3.42 0.12,0.9 0.53,1.34 0.28,0.46 0.39,0.39 0.83,0.66 0.88,0.54 1.85,0.52 0.42,0.19 0,0 -0.02,0.04 0,0.32 1.45,-0.02 0.25,0.68 -0.74,0.82 -1.57,0.4 -6.48,-0.66 -4.56,-1.58 -2.14,-1.59 -2.08,-0.65 -3.31,-2.1 -2.59,-0.9 -2.78,-0.52 -2.55,-0.04 -2.27,0.6 -4.14,2.26 -0.42,-1.81 -0.2,-2.08 -0.41,-1.91 -1,-1.3 0.73,2.25 0.08,0.84 -0.14,0.89 -0.26,0.83 -0.05,0.74 0.45,0.62 -0.03,1.62 -12.92,-6.51 -3.41,-0.67 -15.41,0 -3.44,0.42 -9.61,3.99 -3.13,2.13 -2.04,2.92 -5.07,12.99 -2.18,4.08 -0.31,0.99 -0.23,2.08 -0.15,0.69 -1.16,2.57 -4.46,7.41 -1.77,4.65 -0.89,1.34 -3.82,4.21 -3.73,6.3 -8.97,10.06 0.01,-0.05 0.31,-1.68 1.29,-13.78 0.48,-1.78 0.7,-1.57 2.2,-3.82 0.26,-1.76 0.05,-8.79 0.74,-6.94 4.88,-26.04 0.01,-1.97 -0.19,-1.77 -0.35,-1.38 -0.52,-1.3 -5.86,-8.57 -0.77,-1.74 -0.5,-1.95 -0.97,-6.39 -0.99,-4.28 19.48,-5.35 1.09,0.04 8.27,1.51 1.81,-0.34 0.36,-1.94 -0.32,-5.06 0.08,-1.55 0.37,-1.98 1.52,-7.85 0.75,-14.47 -0.51,-5.78 0.66,-4.28 1.11,-1.74 1.22,-1.03 2.07,-0.98 8.27,-2.16 2.69,-0.22 8.51,0.85 8.27,2.12 0.02,0 z" 
                fill="rgb(151, 144, 238)" 
                stroke="white" 
                stroke-width=".7px"
                title="Al-Basrah" 
                id="IQ-BA" 
            />
        </svg>