<svg xmlns="http://www.w3.org/2000/svg" viewBox="301.49088999999975 409.47100000000034 174.22000000000014 184.42999999999938" width="174.22000000000014" height="184.42999999999938">
            <path 
                d="m 414.17089,415.951 0,0 2.55,-0.03 1.29,-0.44 0.49,-0.54 1.89,2.19 0.33,1.02 -0.07,0.34 -0.04,0.98 0.09,0.93 -0.06,0.51 -0.13,0.35 -0.23,0.09 -0.26,-0.06 -0.6,-0.47 -0.31,-0.2 -0.33,-0.13 -0.34,0.26 -0.3,0.55 -0.37,1.51 0.01,0.63 0.21,0.4 0.31,0.13 0.35,0.08 0.34,0.46 0.31,0.79 0.41,2.14 0.07,0.93 -0.2,0.8 -4.11,5.17 -0.66,1.29 0.16,0.98 1.67,0.29 3.28,0.15 -3.42,8.12 -0.68,2.24 0.15,0.75 1.15,0.47 0.23,0.25 0.7,0.57 0.49,0.22 0.35,0.18 0.2,0.71 -0.07,1.22 -0.35,2.14 -0.42,0.71 -0.74,0.12 -1.2,-0.43 -0.91,0.1 -0.45,0.94 -0.29,1.79 -0.32,1.28 -0.25,2.07 -0.34,1.52 0.82,9.71 29.28,3.84 9.59,3.39 5.47,9.07 2.47,5.08 0.64,0.9 0.77,0.6 0.8,0.03 1.97,-0.47 0.99,4.28 0.97,6.39 0.5,1.95 0.77,1.74 5.86,8.57 0.52,1.3 0.35,1.38 0.19,1.77 -0.01,1.97 -4.88,26.04 -0.74,6.94 -0.05,8.79 -0.26,1.76 -2.2,3.82 -0.7,1.57 -0.48,1.78 -1.29,13.78 -0.31,1.68 -0.01,0.05 -1.74,1.94 -2.61,0.56 -2.61,0.56 -1.05,0.22 -1.56,0.33 -2.6,0.56 -6.29,-0.57 -4.54,-0.41 -4.55,-0.41 -4.54,-0.42 -4.55,-0.41 -6.11,-0.55 -6.11,-0.56 -6.12,-0.55 -6.11,-0.56 -6.11,-0.55 -6.12,-0.56 -6.11,-0.55 -6.11,-0.56 -4.75,-0.42 -4.75,-0.44 -4.74,-0.43 -4.76,-0.43 -5.46,-0.49 -0.39,-0.15 -0.37,-0.15 -0.39,-0.16 -0.38,-0.14 -4.59,-3.71 -5.67,-4.6 -5.7,-4.6 -5.68,-4.6 -5.69,-4.61 -6.83,-5.54 -6.83,-5.55 -6.83,-5.55 -3.94,-3.2 0.76,-1.33 13.1,-22.98 10.74,-31 2.12,-4.23 2.44,-3.2 0.94,-0.95 2.95,-2.15 3.6,-1.52 0.41,-0.29 2.91,-4.55 2.32,-2.74 2.77,-2.52 2.84,-5.05 1.44,-3.34 4.51,-24.59 10.16,7.5 4.84,2.61 1.26,-7.27 3.74,-10.24 1.85,-3.66 0.92,-2.51 0.09,-1.05 -1.31,-0.61 -0.41,-0.71 -0.27,-0.81 -0.37,-0.62 -0.41,-0.24 -1.06,-0.4 -0.57,-0.32 -0.68,-0.69 1.38,-0.16 9.65,-2.32 0.61,-1.06 4.29,0.14 14.56,2.87 10.56,3.47 z" 
                fill="rgb(151, 144, 238)" 
                stroke="white" 
                stroke-width=".7px"
                title="Al-Muthannia" 
                id="IQ-MU" 
            />
        </svg>