<svg xmlns="http://www.w3.org/2000/svg" viewBox="337.59088999999983 362.631 80.91000000000008 79.50999999999993" width="80.91000000000008" height="79.50999999999993">
            <path 
                d="m 383.47089,362.681 0,0 3.45,0.47 0.38,1.12 1.5,0.64 4.21,0.51 0.69,1.05 1.31,0.4 0.22,0.58 -0.1,0.67 -0.79,1.9 -0.15,1 0.32,1.06 0.89,1.04 5.94,5.62 1.09,1.46 0.73,1.33 0.57,0.87 0.95,0.62 3.76,1.39 4.12,1.22 0.18,0.85 -0.44,0.38 -0.22,0.32 0.03,0.44 2.81,6.53 -0.4,1.73 -0.09,1.01 0.06,1.45 2.38,7.32 1.63,9.28 -0.49,0.54 -1.29,0.44 -2.55,0.03 -10.56,-3.47 -14.56,-2.87 -4.29,-0.14 -0.61,1.06 -9.65,2.32 -1.38,0.16 0.68,0.69 0.57,0.32 1.06,0.4 0.41,0.24 0.37,0.62 0.27,0.81 0.41,0.71 1.31,0.61 -0.09,1.05 -0.92,2.51 -1.85,3.66 -3.74,10.24 -1.26,7.27 -4.84,-2.61 -10.16,-7.5 -11.47,-4.75 -1.11,-0.72 -3.88,-4.6 -1.29,-2.38 0.3,-1.64 1.32,-1.5 1.27,-0.31 1.63,0.63 1.02,0.61 1.17,-1.67 -0.8,-5.24 0.04,-4.42 0.24,-2.28 -2,-9.95 0.42,-2.21 0.5,-1.7 0.48,-0.71 1.17,-0.47 2.17,-1.46 1.72,-0.66 0.32,-0.21 0.01,-0.32 -0.36,-0.46 -0.52,-0.42 -0.37,-0.35 -0.27,-0.44 -0.23,-0.47 0,-0.43 0.15,-0.37 0.61,-0.38 0.37,-0.07 0.28,-0.01 0.25,-0.3 0.2,-0.28 0.88,-2.83 1.79,0.57 3.3,2.01 0.78,0.29 0.71,-0.01 0.56,-0.19 0.5,-0.28 0.4,-0.37 1.15,-1.42 0.35,-0.28 0.9,-0.54 0.32,-0.27 0.25,-0.38 0.05,-0.52 -0.08,-0.65 -0.48,-0.42 -0.26,-0.31 -0.1,-0.32 0.18,-0.49 0.34,-0.62 0.58,-0.63 0.44,-0.2 0.36,0.03 0.34,0.29 0.68,0.7 0.37,0.18 0.41,-0.23 1.75,-1.67 2.61,-2 3.84,-1.57 5.13,-3.44 0.4,-0.38 0.73,-0.88 0.71,-0.54 2.67,-1.62 0.84,-0.33 0.51,-0.14 0.88,0.05 z" 
                fill="rgb(151, 144, 238)" 
                stroke="white" 
                stroke-width=".7px"
                title="Al-Qadisiyah" 
                id="IQ-QA" 
            />
        </svg>