<svg xmlns="http://www.w3.org/2000/svg" viewBox="239.42089000000004 366.2609999999998 115.9199999999999 176.2100000000001" width="115.9199999999999" height="176.2100000000001">
            <path 
                d="m 334.27089,380.271 0,0 2.12,-2.03 1.24,-0.85 0.27,0.02 0.5,-0.1 0.46,0.05 2.93,-2.11 1.63,0.86 1.33,1.13 1.78,1.02 3.03,1 -0.88,2.83 -0.2,0.28 -0.25,0.3 -0.28,0.01 -0.37,0.07 -0.61,0.38 -0.15,0.37 0,0.43 0.23,0.47 0.27,0.44 0.37,0.35 0.52,0.42 0.36,0.46 -0.01,0.32 -0.32,0.21 -1.72,0.66 -2.17,1.46 -1.17,0.47 -0.48,0.71 -0.5,1.7 -0.42,2.21 2,9.95 -0.24,2.28 -0.04,4.42 0.8,5.24 -1.17,1.67 -1.02,-0.61 -1.63,-0.63 -1.27,0.31 -1.32,1.5 -0.3,1.64 1.29,2.38 3.88,4.6 1.11,0.72 11.47,4.75 -4.51,24.59 -1.44,3.34 -2.84,5.05 -2.77,2.52 -2.32,2.74 -2.91,4.55 -0.41,0.29 -3.6,1.52 -2.95,2.15 -0.94,0.95 -2.44,3.2 -2.12,4.23 -10.74,31 -13.1,22.98 -0.76,1.33 -2.9,-2.35 -6.83,-5.56 -6.83,-5.56 -6.84,-5.57 -6.83,-5.57 -5.26,-4.29 -5.26,-4.29 -5.25,-4.3 -5.26,-4.3 -6.3,-5.16 -0.01,0 -0.01,0 0,-0.01 -4.49,-3.9 0.44,-0.7 1.55,-3.72 3.87,-7.24 1.78,-4.28 0.76,-2.43 0.73,-6.13 0.2,-0.69 0.45,-1.04 2.05,-3.52 3.36,-4.76 0.44,-0.96 0.39,-1.46 0.41,-3.41 0.2,-0.87 2.34,-6.21 0.26,-1.5 -0.05,-1.03 -0.22,-0.5 -0.11,-0.6 0,-0.92 0.16,-1.2 0.56,-1.69 6.33,-13.62 0.88,-2.59 0.33,-1.96 0.08,-2.23 0.85,-1.54 9.28,-13.81 1.72,-1.87 1.11,-0.85 0.96,-0.46 1.25,-0.11 0.46,-0.11 1.78,-1.17 0.7,-0.3 3.8,-0.6 0.96,-0.36 0.8,-0.49 1.52,-1.23 5.55,-3.09 1.02,-0.98 1.06,-1.27 0.31,-2.11 0.06,-1.39 -6.27,-5.99 27.8,-8 5.57,-1.74 1.55,-0.19 0.72,0.64 0.5,0.3 0.28,-0.38 0.27,-0.79 0.1,-0.43 0.72,-1.77 0.85,3.38 0.4,0.68 0.37,0.37 -0.24,1.21 -1.44,0.81 -0.44,0.71 0.1,0.77 0.47,1.31 1.13,1.82 0.39,0.45 0.44,0.69 0.3,0.6 0.9,1.21 z" 
                fill="rgb(151, 144, 238)" 
                stroke="white" 
                stroke-width=".7px"
                title="An-Najaf" 
                id="IQ-NA" 
            />
        </svg>