<svg xmlns="http://www.w3.org/2000/svg" viewBox="271.17088999999953 4.880999999999963 103.20000000000056 139.84999999999997" width="103.20000000000056" height="139.84999999999997">
            <path 
                d="m 328.97089,30.661 0,0 0.74,-0.05 0.57,-0.55 0.55,-1.25 0,0 0.01,0 0,-0.01 0.93,-1.59 0.21,-1.18 0.47,-0.84 5.07,-1.67 1.57,-0.86 1.48,-1.17 1.44,-1.85 2.15,-2.02 2.32,-1.7 1.91,-0.9 1.11,-0.05 6.25,0.89 1.2,0.6 0.73,1.29 -0.81,2.15 0.01,0.74 0.48,1.32 0.35,0.5 0.42,0.2 0.45,0.14 0.43,0.31 0.23,0.49 0.3,1.14 0.28,0.37 0.55,0.12 1.18,-0.37 0.58,-0.03 0.41,0.24 0.68,0.74 1.3,0.69 0.4,0.67 -0.1,0.81 -0.66,0.83 -0.33,1.99 0.34,1.32 0.55,1.22 0.28,1.67 -0.32,1.8 -0.82,1.33 -2.12,2.6 -0.64,1.84 0.47,1.3 1.19,0.8 1.55,0.35 1.85,-0.1 0.86,0.14 0.75,0.66 0.55,0.66 0.62,0.44 0.69,0.22 0.78,0.03 1,0.54 0.88,1.2 1.45,2.68 0.63,1.6 -0.09,1.39 -1.16,2.69 -0.64,2.54 -0.06,1.56 -0.17,0.15 -0.74,0.29 -0.27,0.18 -0.12,1.18 0.87,1.12 0.21,0.18 0,0.01 -0.24,0.7 -0.33,0.73 -0.8,1.23 -0.67,0.48 -0.86,0.32 -2.06,-0.14 -2.54,-0.64 -1.22,0.03 -1.32,0.29 -3.1,1.56 -2.61,0.69 -2.72,0.44 -1.71,-0.5 -0.98,-0.15 -1.25,0.41 -1.82,1.39 -1.15,1.35 -0.67,0.97 -1.96,1.75 -0.02,1.57 0.33,0.86 3.43,5.26 0.58,-0.67 0.39,-0.28 0.63,0.02 0.59,0.5 2.99,3.63 0.34,0.56 0.17,0.61 -0.56,0.63 -1.38,0.65 -0.47,0.35 -0.3,0.6 -0.34,0.5 -0.46,0.47 -1.28,1.04 0.26,0.93 0.32,0.68 5.98,4.27 1.36,0.59 0.71,0.47 0.57,0.47 4.37,5.29 1.88,1.78 1.48,1.03 4.04,2.02 0.4,0.49 0.08,0.21 0.02,0.2 -0.03,0.17 -0.09,0.17 -0.13,0.43 -0.12,0.21 -0.38,0.31 -0.43,0.15 -0.63,0.09 -1.36,-0.03 -0.57,-0.17 -0.32,-0.2 -0.11,-0.16 -0.13,-0.09 -0.13,-0.1 -0.28,-0.3 -0.2,-0.12 -0.29,-0.05 -0.64,0.09 -0.21,-0.02 -0.37,-0.17 -0.21,-0.01 -0.47,0.09 -0.17,0.1 -0.04,0.2 0.65,1.2 0.06,0.18 -0.33,0.46 -0.92,0.32 -0.57,0.58 -0.18,0.05 -0.15,-0.1 -0.12,-0.4 -0.06,-1.09 -0.11,-0.2 -0.19,-0.15 -0.22,-0.08 -0.18,0.01 -0.26,0.23 -0.16,0.24 -0.1,0.23 -0.06,0.49 -0.05,0.24 -0.18,0.16 -0.28,-0.03 -0.48,-0.38 -0.22,-0.34 -0.26,-0.28 -0.27,-0.11 -0.37,-0.03 -0.51,0.19 -0.32,0.21 -0.34,0.13 -0.32,-0.03 -0.34,-0.29 -0.31,-0.5 -0.3,-0.09 -0.47,-0.02 -1.42,0.44 -0.35,0.05 -0.29,-0.05 -0.22,-0.3 -0.02,-0.22 0.01,-0.18 -0.02,-0.17 -0.1,-0.16 -0.18,-0.12 -0.25,-0.01 -0.66,0.38 -0.22,0.04 -0.24,-0.24 -0.17,-0.24 -0.27,-0.13 -0.18,-0.03 -1.09,0.51 -0.35,-0.62 0,-0.71 -0.18,-0.27 -0.2,-0.03 -0.64,0.32 -0.28,0.19 -0.17,0.24 -0.22,0.56 -0.22,0.36 -0.5,0.41 -0.35,0.38 -0.24,0.34 -0.3,0.31 -0.24,-0.04 -0.63,-0.41 -0.23,0.06 -0.23,0.16 -0.04,0.24 0.06,0.24 0.07,0.24 0.04,0.25 -0.11,0.34 -0.22,0.05 -0.22,-0.15 -0.39,-0.56 -0.24,-0.26 -0.44,-0.16 -0.36,0.1 -0.52,0.29 -0.27,0.04 -0.17,-0.09 -0.16,-0.21 -1.31,-0.41 -1.28,0.75 -0.52,0 -0.74,-0.12 -0.45,0.05 -0.31,0.22 -0.26,0.26 -0.33,0.2 -1.12,0.48 -0.2,0.16 -0.31,0.63 -0.18,0.04 -0.19,-0.05 -0.26,-0.12 -0.94,-0.16 -0.36,-0.1 -0.73,-0.38 -0.23,0.01 -0.29,0.46 -0.34,0.31 -0.86,0.47 -0.58,0.15 -0.49,0.03 -0.35,-0.07 -1.12,-0.58 -1.31,-0.25 -3.28,-0.64 -0.99,0.2 -1.38,0.53 -0.87,2.34 -0.52,1.09 -0.56,0.35 -1.27,0.24 -2.23,0.09 -6.29,-4.52 -1.35,-0.51 -0.92,0.18 -0.6,1.62 -4.3,4.68 -3.65,3.1 -0.37,0.63 0.04,0.47 0.38,0.34 1.32,1.49 0.37,0.66 0.24,0.67 -0.04,0.82 -0.51,0.67 -0.77,0.72 -0.9,1.12 -0.41,0.86 -0.33,1.82 -0.61,2.19 -0.6,0.79 -0.64,0.27 -1.27,0.11 -1.94,1.17 -1.99,0.17 -1.33,-0.03 -0.81,0.37 -0.58,0.79 -0.69,2.12 -0.52,0.87 -0.95,0.54 -1.16,0.19 -2.55,0.12 -0.92,0.28 -1.19,1.07 -0.6,0.11 -0.63,-0.02 -1.26,-0.34 -0.57,-0.28 -2.69,-1.71 0.48,-0.14 0.15,-0.06 0.15,-0.23 0.07,-0.39 0.06,-0.9 0.25,-0.97 0.08,-0.48 0.03,-0.66 -0.26,-5.7 -0.21,-1.12 -0.46,-0.86 -0.37,-0.4 -0.33,-0.19 -0.27,-0.04 -0.28,-0.12 -0.16,-0.19 -0.06,-0.29 0.16,-0.48 0.12,-0.58 -0.24,-0.91 -0.29,-0.71 -0.29,-0.44 -0.28,-0.31 -0.16,-0.25 -0.07,-0.27 0.24,-0.44 0.13,-0.32 0.39,-2.01 -0.98,-2.31 -0.08,-0.42 -0.05,-0.62 0.24,-0.87 1.29,-2.97 0.31,-0.48 0.33,-0.21 0.43,0.01 0.47,-0.1 0.44,-0.44 0.64,-1.47 0.54,-5.11 -0.01,-1.37 -0.2,-0.52 -0.77,-0.01 -0.97,-0.13 -0.64,-0.65 -0.37,-1.86 0.49,-0.76 7.73,-3.26 0.65,-0.61 0.84,-1.26 0.17,-0.38 0.08,-0.36 -0.1,-1.46 0.02,-0.49 0.13,-0.62 1.28,-2.38 0.16,-0.48 0.13,-0.53 0.31,-0.66 0.21,-0.23 0.5,-0.07 1.15,-0.86 0.69,-1.45 0.32,-0.86 0.31,-0.48 1.88,-1.71 0.54,-0.73 0.7,-1.21 0.47,-0.65 0.47,-0.43 1.35,-0.59 0.85,-1.01 0.46,-0.22 1.11,-0.71 0.96,-0.9 2.5,-3.01 1.02,-1.74 0.43,-1.48 -0.06,-1.09 -0.09,-0.67 -0.26,-0.68 0.04,-0.28 0.16,-0.19 0.21,-0.02 0.67,0.12 0.43,0 0.43,-0.15 0.47,-0.26 0.57,-0.44 0.2,-0.36 0.07,-0.39 0,-0.32 -0.02,-0.28 -0.09,-0.26 -0.13,-0.25 -0.13,-0.32 -0.03,-0.72 0.14,-0.32 0.24,-0.15 1.51,0.19 0.37,-0.02 0.54,-0.19 0.28,-0.42 0.12,-0.46 -0.05,-0.9 0.07,-0.54 0.15,-0.2 0.18,-0.03 0.19,0.16 0.19,0.2 0.16,0.26 0.3,0.09 0.37,-0.12 0.84,-0.64 0.41,-0.54 0.6,-0.49 0.23,-0.35 0.17,-0.3 0.24,-0.63 1.51,-1.74 0.5,-0.41 0.32,-0.17 0.16,0.13 0.18,0.07 0.29,-0.03 0.06,-0.18 -0.21,-0.35 -0.08,-0.27 0.02,-0.38 0.14,-0.13 0.12,0.02 0.11,0.21 0.07,0.25 0.08,0.21 0.18,0.2 0.25,0.14 0.28,0.06 0.28,-0.04 0.33,-0.11 0.28,-0.05 0.26,0.01 0.13,0.08 0.04,0.18 -0.08,0.25 -0.11,0.28 -0.06,0.29 0.06,0.26 0.18,0.22 0.4,0.13 0.18,-0.09 0.09,-0.26 0.02,-0.29 0.09,-0.4 0.17,-0.19 0.2,-0.08 0.23,0.03 0.21,-0.02 0.6,-0.28 0.32,-0.1 0.3,0.02 0.34,0.09 0.21,0.14 0.1,0.14 -0.02,0.2 0.08,0.22 0.23,0.11 0.62,-0.11 0.76,-0.67 1.02,-0.64 1.63,-1.47 0.46,-0.33 1.02,-0.34 0.94,-1.49 1.68,-1.51 2.13,-2.85 0.31,-0.65 0.03,-0.36 -0.05,-0.27 -0.11,-0.23 -0.13,-0.12 -0.14,-0.02 -0.14,0.07 -0.15,0.14 -0.13,0.05 -0.16,-0.07 -0.36,-0.84 -0.19,-0.55 -0.62,-0.65 -0.05,-0.34 -0.06,-0.63 -0.11,-0.3 -0.33,-0.31 -0.5,-0.31 -1,-0.79 -5.62,-2.48 -0.43,-0.3 -0.28,-0.31 -0.2,-0.39 -0.28,-0.19 -0.21,-0.09 -1.78,-0.17 -0.55,-0.12 -0.26,0.01 -0.27,0.07 -0.45,0.06 -0.23,-0.14 -0.49,-0.79 -0.05,-0.21 0.08,-0.2 0.06,-0.31 -0.03,-0.35 -0.38,-0.59 -0.24,-0.21 -0.26,-0.08 -0.22,0.06 -0.97,0.04 -0.14,-0.14 0.01,-0.14 0.16,-0.11 0.24,-0.05 0.14,-0.12 0.04,-0.21 -0.28,-0.47 -0.16,-0.37 -0.08,-0.36 -0.3,-0.46 -0.36,-0.29 -0.77,-0.4 -0.83,-0.66 -1.21,-0.75 -1.32,-1.3 -0.32,-0.24 -0.33,-0.09 -0.35,0.08 -1.36,-0.31 -3.8,-2.06 1.19,-1.33 0.81,-0.41 0.49,-0.12 0.28,-0.27 0.23,-0.37 0.26,-0.81 0.2,-0.45 0.35,-0.3 1.04,-0.6 2.23,-0.9 0.27,-0.19 0.02,-0.15 -0.13,-0.16 -0.1,-0.23 0.26,-0.18 0.51,-0.18 1.07,-0.51 0.48,-0.3 0.35,-0.32 0.22,-0.41 0.89,-1.27 0.34,-0.3 1.23,-0.67 0.78,-0.31 0.31,-0.23 0.12,-0.22 -0.27,-0.51 0.04,-0.3 0.18,-0.42 0.72,-0.96 0.46,-0.46 0.65,-0.53 0.65,-0.28 0.06,-0.2 -0.01,-0.3 -0.16,-0.85 -0.09,-0.11 -0.11,-0.05 -0.37,-0.01 -0.22,-0.08 -0.16,-0.13 -0.11,-0.21 -0.05,-0.45 -0.11,-0.43 -0.02,-0.28 0.04,-0.3 0.17,-0.49 0.53,-1.09 0,-0.25 -0.08,-0.19 -0.18,-0.1 -0.11,-0.1 -0.13,-0.07 -0.13,-0.07 -0.09,-0.1 -0.04,-0.12 -0.13,-0.32 -0.14,-0.12 -0.2,-0.09 -0.2,-0.37 0.28,-1.07 1.14,0.19 5.75,2.4 1.34,0.87 0.97,1.01 0.7,1.3 0.51,1.72 0.3,1.64 0.07,0.93 -0.08,0.73 -0.49,0.88 -0.59,0.27 -0.69,0.13 -0.76,0.45 -1,1.3 -0.51,1.52 -0.04,1.59 0.45,1.55 2.4,5.44 0.39,0.78 0.54,0.44 2.47,0.64 z" 
                fill="rgb(151, 144, 238)" 
                stroke="white" 
                stroke-width=".7px"
                title="Arbil" 
                id="IQ-AR" 
            />
        </svg>