<svg xmlns="http://www.w3.org/2000/svg" viewBox="344.1708900000004 64.38099999999994 106.61999999999944 146.83000000000007" width="106.61999999999944" height="146.83000000000007">
            <path 
                d="m 378.24089,72.811 0,0 1.74,-0.14 3.34,-1.33 1.51,0.11 1.05,1.33 0.64,1.85 0.29,1.72 0.15,3.19 0.42,1.29 1.12,1.43 -1.45,0.94 0.34,0.89 1.11,0.87 0.87,0.87 0.28,1.41 -0.15,3.41 0.3,1.56 1.85,2.41 0.76,1.49 -0.24,1.48 -0.74,1.17 -0.73,1.52 -0.35,1.52 0.38,1.19 0,0.01 0,0 0.01,0.01 0.01,0 1.05,1.08 1.28,0.18 1.33,-0.45 1.18,-0.81 0,0 0.02,0 0,-0.01 0.01,-0.01 1.06,-0.3 1.98,-0.98 1.56,-0.03 1.32,0.49 2.3,0.84 2.21,2.05 0.77,0.48 1.62,0.31 1.78,1.64 2.76,3.93 1.53,3.79 0.73,0.97 1.07,0.31 2.25,-0.68 0.67,0.13 0.97,0.67 1.23,-0.09 1.15,-0.57 1.45,-1.25 0.6,0.03 0.62,0.2 0.61,0.06 1.92,-0.66 3.8,0.17 1.19,-0.39 1.16,-0.66 0.96,-0.37 0.98,0.02 1.84,0.71 0.44,0.07 0.28,0.26 0.3,1.5 0.25,0.51 0.37,0.41 0.49,0.4 1.2,0.52 1.28,-0.05 2.53,-0.56 1.13,-0.41 1.02,-0.72 1.07,-0.53 1.29,0.13 0.99,0.71 0.44,0.99 -0.12,1.15 -0.69,1.2 -0.95,0.85 -1.81,1.16 -0.82,1.21 -0.93,0.89 -1.24,0.15 -2.34,-0.14 -2.99,1.6 -1.23,0.28 -4.17,-0.13 -1.23,0.43 -0.76,0.85 -0.47,1.16 -0.21,1.29 0,1.21 0.58,2.82 -0.17,1.01 -1.82,-0.56 -0.29,0 -0.27,0.08 0.52,1.48 0.67,1.39 0.23,0.31 0.08,0.31 -0.08,0.3 -0.23,0.29 -0.48,0.36 -0.31,0.49 -0.15,0.59 0.03,0.67 0.77,2.12 3.82,6.13 3.3,2.95 1.42,1.66 0.43,2.15 -0.12,0.3 -0.31,0.74 -0.74,0.88 -0.53,0.93 0.16,1.15 0.83,0.58 2.31,-0.02 0.9,0.76 -0.22,1.92 -1.3,2.21 -0.8,2.06 1.23,1.45 -0.47,0.88 -0.64,0.34 -0.74,0.15 -1.52,0.51 -1.06,-0.29 -0.6,0.07 -1.6,0.97 -0.88,0.82 -0.95,0.24 -1.78,-0.77 -0.77,0.06 -0.62,-0.26 -1.26,-0.82 -0.88,-0.3 -0.41,0.17 -0.83,1.36 -0.06,0.34 0.17,0.9 -0.13,0.34 -0.35,0.19 -0.84,0.08 -0.39,0.13 -0.63,0.63 -0.29,0.84 -0.02,0.96 0.18,1 0,0.01 0.55,1.88 -0.16,1.37 -0.51,1.33 -0.45,1.78 -0.91,1.21 -1.61,-0.56 -0.7,-0.38 0,0 -0.38,-0.81 -0.57,-6.68 0.07,-0.5 0.14,-0.12 0.17,0.03 0.46,-0.04 0.24,0.03 0.26,0.1 0.24,0.05 0.29,-0.01 0.27,-0.07 0.23,-0.08 0.19,-0.12 -0.64,-1.05 -4.09,-4.34 -0.33,-0.53 -0.28,-0.29 -0.45,-0.39 -0.4,-0.25 -0.39,0.01 -0.35,0.23 -0.53,0.57 -0.08,0.38 -0.05,0.49 -0.22,0.37 -0.32,0.46 -0.64,0.75 -0.31,0.48 -0.24,0.59 -0.17,0.27 -0.48,0.23 -0.16,0.11 -0.17,0.16 -0.15,0.07 -0.1,-0.04 -0.01,-0.15 0.01,-0.21 -0.04,-0.16 -0.14,-0.13 -0.2,0.08 -0.23,0.23 -0.36,0.66 -0.15,0.39 0.03,0.58 0.16,0.16 0.16,0.04 0.2,-0.08 0.13,-0.03 0.09,0.12 -0.06,0.23 -0.26,0.54 -0.51,0.32 -0.24,0.3 -0.2,1.04 -0.59,0.52 0.13,0.44 0.17,0.05 0.57,0.04 0.22,0.05 0.18,0.09 0.09,0.13 0.02,0.15 -0.01,0.21 0,0.19 -0.15,0.47 -0.32,0.67 -1.37,2.2 -0.49,0.66 -1.54,1.41 -0.17,0.01 -0.2,-0.04 -0.19,0.02 -0.15,0.15 -0.05,0.39 -0.12,0.36 -0.26,0.45 -0.58,0.64 -0.45,1.11 -0.21,0.85 -0.49,1.33 -0.09,0.3 -0.13,0.23 -0.35,0.17 -0.29,0.24 -0.28,0.37 -0.78,2.06 -0.65,1.17 -0.21,0.53 -0.13,0.39 -0.01,0.22 -0.07,0.3 0,0.27 0.01,0.24 0.06,0.2 0.04,0.19 -0.03,0.21 -0.16,0.54 -0.15,0.36 -0.68,1.17 -0.2,0.68 -0.02,0.21 -0.05,0.19 -0.29,0.37 -0.43,0.36 -1.11,0.63 -0.61,0.24 -0.52,0.12 -0.37,0.01 -0.6,0.14 -0.22,0.02 -0.44,-0.04 -0.8,0.69 -6.5,7.84 -1.95,1.16 -0.17,-1.12 -0.11,-0.34 -0.15,-0.22 -0.24,-0.05 -0.19,0 -0.22,-0.03 -0.46,-0.15 -0.17,-0.15 -0.14,-0.32 -0.01,-0.28 0.43,-0.79 0.17,-0.48 0.09,-0.44 0.01,-0.4 -0.04,-0.36 -0.36,-1.08 -0.08,-0.44 -0.01,-0.42 0.08,-0.34 0.16,-0.33 0.83,-0.92 0.26,-0.38 0.1,-0.28 0,-0.31 -0.68,-1.85 -0.33,-1.65 -0.05,-0.5 -0.02,-0.34 0.04,-0.35 -0.01,-0.46 -0.25,-1.63 -0.17,-2.57 -0.2,-0.66 -0.5,-0.77 -0.46,-0.58 -0.81,-0.69 -0.59,-0.31 -0.75,-0.24 -1.27,-0.16 -0.68,0.07 -0.53,0.15 -1.39,0.83 -0.35,0.1 -0.41,-0.09 -0.38,-0.29 -0.57,-0.77 -1.24,-1.25 -3.18,-2.09 -0.14,-5.17 0.19,-0.98 0.04,-0.33 -0.05,-0.28 -0.15,-0.32 -0.72,-0.87 -5.13,-3.6 -2.23,-0.41 -6.53,-0.28 -1.03,0.37 -1.34,-0.37 -0.98,-0.46 -6.02,-6.35 2.65,-2.24 4.64,-1.47 0.63,-0.61 0.17,-0.61 -0.41,-1.01 -0.09,-0.54 0.04,-0.62 0.23,-0.67 0.61,-0.92 0.72,-0.51 0.55,-0.3 0.45,-0.14 0.21,-0.32 0.16,-0.45 0.17,-0.98 0.65,-1.55 0.25,-1.13 -0.24,-1.09 -0.37,-1.24 -0.17,-1.08 0.45,-1.43 2.18,-2.96 0.61,-1.23 0.31,-1.02 -0.07,-0.84 -1.15,-1.58 -1.27,-1.43 -0.4,-0.74 -0.15,-0.72 0.21,-2.11 0.19,-2.63 0.24,-0.86 0.13,-1.88 0.24,-0.77 1.01,-1.82 -0.06,-1.23 -0.49,-1.45 -2.77,-2.47 -1.36,-1.87 -1.52,-1.66 -3.29,-7.26 1.09,-0.51 0.18,0.03 0.27,0.13 0.17,0.24 0.24,0.24 0.22,-0.04 0.66,-0.38 0.25,0.01 0.18,0.12 0.1,0.16 0.02,0.17 -0.01,0.18 0.02,0.22 0.22,0.3 0.29,0.05 0.35,-0.05 1.42,-0.44 0.47,0.02 0.3,0.09 0.31,0.5 0.34,0.29 0.32,0.03 0.34,-0.13 0.32,-0.21 0.51,-0.19 0.37,0.03 0.27,0.11 0.26,0.28 0.22,0.34 0.48,0.38 0.28,0.03 0.18,-0.16 0.05,-0.24 0.06,-0.49 0.1,-0.23 0.16,-0.24 0.26,-0.23 0.18,-0.01 0.22,0.08 0.19,0.15 0.11,0.2 0.06,1.09 0.12,0.4 0.15,0.1 0.18,-0.05 0.57,-0.58 0.92,-0.32 0.33,-0.46 -0.06,-0.18 -0.65,-1.2 0.04,-0.2 0.17,-0.1 0.47,-0.09 0.21,0.01 0.37,0.17 0.21,0.02 0.64,-0.09 0.29,0.05 0.2,0.12 0.28,0.3 0.13,0.1 0.13,0.09 0.11,0.16 0.32,0.2 0.57,0.17 1.36,0.03 0.63,-0.09 0.43,-0.15 0.38,-0.31 0.12,-0.21 0.13,-0.43 0.09,-0.17 0.03,-0.17 -0.02,-0.2 -0.08,-0.21 -0.4,-0.49 -4.04,-2.02 -1.48,-1.03 -1.88,-1.78 -4.37,-5.29 -0.57,-0.47 -0.71,-0.47 -1.36,-0.59 -5.98,-4.27 -0.32,-0.68 -0.26,-0.93 1.28,-1.04 0.46,-0.47 0.34,-0.5 0.3,-0.6 0.47,-0.35 1.38,-0.65 0.56,-0.63 -0.17,-0.61 -0.34,-0.56 -2.99,-3.63 -0.59,-0.5 -0.63,-0.02 -0.39,0.28 -0.58,0.67 -3.43,-5.26 -0.33,-0.86 0.02,-1.57 1.96,-1.75 0.67,-0.97 1.15,-1.35 1.82,-1.39 1.25,-0.41 0.98,0.15 1.71,0.5 2.72,-0.44 2.61,-0.69 3.1,-1.56 1.32,-0.29 1.22,-0.03 2.54,0.64 2.06,0.14 0.86,-0.32 0.67,-0.48 0.8,-1.23 0.33,-0.73 0.24,-0.7 0,-0.01 0.95,0.82 0.76,0.83 0.06,1.05 0.38,0.61 0.51,0.49 0.48,0.72 0.28,0.96 0.1,0.73 0.23,0.67 0.68,0.79 1.61,0.76 z" 
                fill="rgb(151, 144, 238)" 
                stroke="white" 
                stroke-width=".7px"
                title="As-Sulaymaniyah" 
                id="IQ-SU" 
            />
        </svg>