<svg xmlns="http://www.w3.org/2000/svg" viewBox="325.2408900000001 288.921 19.149999999999864 18.30000000000001" width="19.149999999999864" height="18.30000000000001">
            <path 
                d="m 341.47089,291.901 0,0 1.88,-1.44 0.2,0.2 0.25,0.32 0.08,0.81 0.15,0.65 0.32,1 0.04,0.21 -0.04,0.11 -0.03,0.16 -0.06,0.86 -0.3,0.7 0.08,2.11 0.07,2.16 -0.15,0.53 -0.18,0.47 -0.28,0.18 -0.22,-0.02 -0.02,-0.2 0.15,-0.22 0,-0.64 -0.41,1.14 0.13,0.6 0.24,0.5 0.02,0.3 -0.07,0.28 -0.37,0.44 -0.19,0.19 -0.57,0.84 -0.09,3.08 0,0 -9.9,-0.5 -1.53,-0.43 -0.77,-0.12 -0.78,0.11 -0.7,-0.75 -1.59,-1.01 -0.7,-0.69 -0.59,-1.23 -0.29,-1.45 -0.01,-1.5 0.24,-1.37 0.71,-1.4 1.89,-2.04 0.56,-1.39 0,-0.36 -0.08,-0.32 3.1,-0.85 0.78,-2.51 0.41,-0.49 0.34,0.06 4.28,0.18 0.59,0.11 1.19,0.65 0,0.01 2.22,1.97 z" 
                fill="rgb(151, 144, 238)" 
                stroke="white" 
                stroke-width=".7px"
                title="Baghdad" 
                id="IQ-BG" 
            />
        </svg>