<svg xmlns="http://www.w3.org/2000/svg" viewBox="413.75088999999997 390.1010000000003 85.21999999999997 104.5399999999998" width="85.21999999999997" height="104.5399999999998">
            <path 
                d="m 481.74089,450.751 0,0 6.27,-0.09 10.45,0.74 0.51,5.78 -0.75,14.47 -1.52,7.85 -0.37,1.98 -0.08,1.55 0.32,5.06 -0.36,1.94 -1.81,0.34 -8.27,-1.51 -1.09,-0.04 -19.48,5.35 -1.97,0.47 -0.8,-0.03 -0.77,-0.6 -0.64,-0.9 -2.47,-5.08 -5.47,-9.07 -9.59,-3.39 -29.28,-3.84 -0.82,-9.71 0.34,-1.52 0.25,-2.07 0.32,-1.28 0.29,-1.79 0.45,-0.94 0.91,-0.1 1.2,0.43 0.74,-0.12 0.42,-0.71 0.35,-2.14 0.07,-1.22 -0.2,-0.71 -0.35,-0.18 -0.49,-0.22 -0.7,-0.57 -0.23,-0.25 -1.15,-0.47 -0.15,-0.75 0.68,-2.24 3.42,-8.12 -3.28,-0.15 -1.67,-0.29 -0.16,-0.98 0.66,-1.29 4.11,-5.17 0.2,-0.8 -0.07,-0.93 -0.41,-2.14 -0.31,-0.79 -0.34,-0.46 -0.35,-0.08 -0.31,-0.13 -0.21,-0.4 -0.01,-0.63 0.37,-1.51 0.3,-0.55 0.34,-0.26 0.33,0.13 0.31,0.2 0.6,0.47 0.26,0.06 0.23,-0.09 0.13,-0.35 0.06,-0.51 -0.09,-0.93 0.04,-0.98 0.07,-0.34 -0.33,-1.02 -1.89,-2.19 -1.63,-9.28 -2.38,-7.32 -0.06,-1.45 0.09,-1.01 0.4,-1.73 5.98,0.39 3.66,-1.54 0.32,0.01 0.28,0.22 0.23,-0.01 0.24,-0.14 0.26,-0.29 0.16,-0.08 0.16,0.07 0.16,0.17 0.29,0.22 0.28,-0.06 2.07,-1.55 0.49,-0.16 0.53,0.05 0.55,0.17 0.93,0.18 0.43,-0.01 0.26,-0.14 0.23,-0.54 0.3,-0.28 1.99,-0.68 15.5,-0.05 1.33,1.33 0.73,0.97 0.1,0.59 -0.98,0.26 -0.99,0.59 -0.58,1.18 1.56,3.34 4.61,7.66 -0.08,1.65 -0.2,0.95 1.37,3.54 2.34,2.64 1.85,1.08 0.36,0.39 1.85,3 0.98,0.99 1.92,1.61 0.63,0.77 0.44,1.11 0.16,1.08 -0.23,1.42 -0.32,0.86 -0.62,1.27 -0.07,0.91 0.03,0.65 0.96,2.88 5.31,3.32 0.73,0.57 0.68,0.67 0.76,1.03 0.35,0.71 0.2,0.62 0.06,0.62 -0.03,0.77 -0.26,2.49 -0.01,0.73 0.07,0.67 0.13,0.58 0.22,0.5 0.41,0.54 2.59,2.09 0.82,0.8 2.34,1.22 z" 
                fill="rgb(151, 144, 238)" 
                stroke="white" 
                stroke-width=".7px"
                title="Dhi-Qar" 
                id="IQ-DQ" 
            />
        </svg>