<svg xmlns="http://www.w3.org/2000/svg" viewBox="213.99089000000026 0.2510000000000015 103.92999999999978 51.03" width="103.92999999999978" height="51.03">
            <path 
                d="m 248.58089,4.401 0,0 2.54,-0.88 1.52,-1.15 2.29,-0.98 2.4,-0.64 1.85,-0.18 1.03,0.29 7.84,4.25 0.41,0.15 0.5,0.07 0.53,-0.11 0.55,-0.57 0.53,-0.24 1.1,-0.17 0.72,0.15 1.57,1.23 0.81,0.63 2.42,1.22 2.78,2.29 0.97,0.4 0.77,-0.11 1.47,-0.56 0.74,-0.12 0.77,0.12 0.49,0.26 1.09,0.83 1.51,0.62 1.44,0.18 6.11,-0.42 1.56,0.15 1.41,0.36 0.6,0.41 1.28,1.26 0.44,0.29 0.75,-0.2 1.07,-1.11 3.2,-0.58 1.82,-2.11 1.77,-2.58 2.18,-1.88 2.7,-0.43 1.99,0.34 -0.28,1.07 0.2,0.37 0.2,0.09 0.14,0.12 0.13,0.32 0.04,0.12 0.09,0.1 0.13,0.07 0.13,0.07 0.11,0.1 0.18,0.1 0.08,0.19 0,0.25 -0.53,1.09 -0.17,0.49 -0.04,0.3 0.02,0.28 0.11,0.43 0.05,0.45 0.11,0.21 0.16,0.13 0.22,0.08 0.37,0.01 0.11,0.05 0.09,0.11 0.16,0.85 0.01,0.3 -0.06,0.2 -0.65,0.28 -0.65,0.53 -0.46,0.46 -0.72,0.96 -0.18,0.42 -0.04,0.3 0.27,0.51 -0.12,0.22 -0.31,0.23 -0.78,0.31 -1.23,0.67 -0.34,0.3 -0.89,1.27 -0.22,0.41 -0.35,0.32 -0.48,0.3 -1.07,0.51 -0.51,0.18 -0.26,0.18 0.1,0.23 0.13,0.16 -0.02,0.15 -0.27,0.19 -2.23,0.9 -1.04,0.6 -0.35,0.3 -0.2,0.45 -0.26,0.81 -0.23,0.37 -0.28,0.27 -0.49,0.12 -0.81,0.41 -1.19,1.33 -1.88,-0.46 -1.66,-0.66 -4.18,-0.75 -0.68,-0.19 -1.06,-0.59 -0.28,-0.08 -0.26,-0.02 -0.19,0.06 -0.21,0.15 -0.26,0.28 -0.18,0.26 -0.28,0.62 -0.06,0.2 0.01,0.27 -0.08,0.62 -0.22,0.59 -0.15,0.56 -0.03,0.28 0.01,0.26 0.02,0.23 0.17,0.35 0.03,0.21 0.07,0.21 0.16,0.24 0.61,0.45 0.3,0.15 0.36,0.1 0.83,0.03 0.46,0.1 0.5,0.27 1.01,0.32 0.37,0.08 0.33,0.14 0.19,0.23 0.15,0.35 0.07,0.37 0.05,0.37 -0.02,0.34 -0.1,0.37 -0.5,1.03 -0.28,0.31 -0.27,0.18 -0.33,0.13 -0.04,0.17 0.11,0.45 0.03,0.25 0,0.24 0.01,0.18 0.04,0.19 0.02,0.37 0.05,0.21 0.05,0.27 -0.02,0.39 -0.07,0.47 -0.26,0.83 -0.2,0.21 -0.22,0.01 -0.21,-0.14 -1.02,-0.34 -0.55,0.09 -0.43,0.24 -0.2,0.27 -0.1,0.38 0,0.42 -0.06,0.37 -0.16,0.33 -0.4,0.03 -0.85,-0.17 -8.65,-2.34 -1.9,-0.93 -1.06,-0.98 -1.8,-1.3 -0.8,-0.86 -0.93,-0.75 -0.92,-0.49 -2.27,-0.26 -0.95,0.32 -0.84,0.65 -0.44,0.75 -1.83,2.23 -1.75,2.9 -0.52,1.68 -0.55,1.33 -0.26,1.18 -0.9,0.63 -1.99,1.03 -2.39,0.21 -7.81,1.08 -4.89,2.73 -0.72,-0.17 -0.87,0.01 -0.69,0.14 -0.57,0.43 -0.5,0.9 -0.51,-1.16 -0.3,-0.48 -0.44,-0.39 -0.86,-0.45 -0.49,-0.03 -2.11,1.05 -0.62,0.05 -0.4,-0.62 0.14,-0.57 0.55,-0.44 1.34,-0.51 -0.52,-0.55 -0.47,-0.14 -0.48,-0.05 -0.56,-0.28 -1.05,-0.95 -1.82,-2.06 -0.53,-0.39 -0.72,-0.16 -0.53,0.15 -0.32,0.34 -0.26,0.33 -0.29,0.15 -2.52,-0.05 -0.95,-0.49 -0.82,-2.28 -1,-0.75 -1.86,-0.96 -1.19,0.46 -0.65,-0.59 0.28,-0.79 1.56,-0.1 -0.65,-1.24 -0.51,-0.56 -0.13,-0.69 0.44,-1.63 -0.99,-0.25 -0.04,-1.2 0.27,-1.49 -0.02,-1.14 -1.16,1.34 -1.04,0.02 -1.08,-0.79 -2.26,-2.25 -1.02,-1.6 -0.82,-1.77 -0.42,-1.59 0.02,-0.02 -0.01,-1.08 -0.34,-0.84 -0.45,-0.76 -0.39,-0.89 2.67,-0.31 3.41,-1.14 5.14,-0.86 0.95,-0.43 0.21,-0.41 0.73,-2.03 7.48,-10.95 0.23,-0.59 0.07,-0.52 0.12,-0.53 0.37,-0.61 0.39,-0.27 2.95,-1.2 0.53,-0.04 0.72,0.08 0.51,0.4 0.26,1.29 0.51,0.38 4.94,1.64 2.4,0.36 z" 
                fill="rgb(151, 144, 238)" 
                stroke="white" 
                stroke-width=".7px"
                title="Dohuk" 
                id="IQ-DA" 
            />
        </svg>