<svg xmlns="http://www.w3.org/2000/svg" viewBox="264.90088999999983 332.13100000000014 66.14000000000004 46.489999999999895" width="66.14000000000004" height="46.489999999999895">
            <path 
                d="m 319.72089,335.301 0,0 1.65,0.25 2.08,0.56 0.32,0.05 0.28,-0.05 0.64,-0.35 0.31,-0.14 0.28,-0.01 0.36,0.15 0.41,0.3 1.45,1.48 0.24,0.56 0.02,0.42 0.03,0.8 -0.55,0.59 -2.11,7.69 0.14,2.65 0.98,2.4 3.36,4.93 0.42,1.42 -0.57,1.41 -0.29,1.16 0.44,1.48 1.24,2.45 0.19,0.76 -0.72,1.77 -0.1,0.43 -0.27,0.79 -0.28,0.38 -0.5,-0.3 -0.72,-0.64 -1.55,0.19 -5.57,1.74 -27.8,8 -2.88,-2.46 -9.84,-7.4 -14.05,-14.26 -1.44,-2.16 -0.42,-2.15 3.18,-1.68 2.8,-1.07 7.3,-1.03 1.27,-0.18 0.66,-0.19 1.61,-1.06 11.16,-9.89 4.73,-2.32 5.05,-0.63 6.83,-0.01 10.23,3.17 z" 
                fill="rgb(151, 144, 238)" 
                stroke="white" 
                stroke-width=".7px"
                title="Karbala" 
                id="IQ-KA" 
            />
        </svg>