<svg xmlns="http://www.w3.org/2000/svg" viewBox="268.2808899999999 109.36100000000012 91.63000000000005 88.11999999999993" width="91.63000000000005" height="88.11999999999993">
            <path 
                d="m 349.40089,110.991 0,0 3.29,7.26 1.52,1.66 1.36,1.87 2.77,2.47 0.49,1.45 0.06,1.23 -1.01,1.82 -0.24,0.77 -0.13,1.88 -0.24,0.86 -0.19,2.63 -0.21,2.11 0.15,0.72 0.4,0.74 1.27,1.43 1.15,1.58 0.07,0.84 -0.31,1.02 -0.61,1.23 -2.18,2.96 -0.45,1.43 0.17,1.08 0.37,1.24 0.24,1.09 -0.25,1.13 -0.65,1.55 -0.17,0.98 -0.16,0.45 -0.21,0.32 -0.45,0.14 -0.55,0.3 -0.72,0.51 -0.61,0.92 -0.23,0.67 -0.04,0.62 0.09,0.54 0.41,1.01 -0.17,0.61 -0.63,0.61 -4.64,1.47 -2.65,2.24 -0.75,0.03 -0.36,0.17 -0.44,0.31 -0.56,0.7 -0.49,0.78 -0.3,1.3 0.06,1.02 1.2,2.85 -0.05,1.08 -0.58,0.9 -1.63,1.23 -0.92,0.45 -0.73,0.47 -0.45,0.45 -1.31,1.9 -1.28,1.29 -0.92,1.43 -0.07,0.6 -0.05,0.17 -0.02,0.13 0.02,0.19 -0.01,0.23 -0.2,0.36 -0.24,0.55 -0.02,0.19 -0.03,0.13 0.05,0.25 -0.04,0.25 -0.28,0.44 -0.08,0.18 -0.01,0.19 -0.09,0.23 -0.21,0.27 -0.69,0.38 -0.94,1.33 -0.2,0.73 -0.21,0.41 -0.34,0.43 -0.75,0.67 -0.18,0.28 -0.07,0.28 0.03,0.71 -0.05,0.39 -0.2,0.79 0.05,0.31 0.22,0.47 0.02,0.16 -0.11,0.32 0.02,0.18 0.11,0.14 0.22,0.08 0.62,0.08 0.02,0.18 -0.25,0.38 -1.35,1.61 -0.9,0.02 -0.6,-0.16 -4.54,-3.51 -4.98,-5.02 -3.62,-2.22 -5.06,-2.27 -4.19,-1.59 -3.89,-2.34 -11.91,-7.16 -4.62,-2.14 -1.37,-0.92 -0.57,-0.87 -1.08,-0.78 -1.56,-0.73 -0.79,-1.15 -3.92,-4.26 -0.47,-0.35 -0.6,-0.82 -0.52,-0.92 -0.22,-0.65 0.25,-0.8 0.59,-0.36 0.68,-0.23 0.52,-0.35 0.22,-1.4 -1.24,-0.58 -3.06,-0.52 0.38,-0.48 0.18,-0.44 0.22,-1.07 -0.06,-0.31 -0.21,-0.23 -0.12,-0.29 0.18,-0.44 0.21,-0.17 0.21,-0.07 0.17,-0.08 0.06,-0.21 -0.36,-0.93 -0.85,-0.58 -1.67,-0.69 -0.68,-0.59 -1.51,-1.67 -0.29,-0.55 -0.13,-0.19 -0.28,-0.21 -0.28,-0.38 -0.13,-0.7 0.1,-0.73 0.14,-0.43 0.03,-0.42 -0.27,-0.67 0.39,-1.09 0.91,0.31 0.24,0.14 0.17,0.29 0.04,0.24 0.07,0.2 0.24,0.4 0.05,0.32 0.01,0.34 0.33,0.53 0.36,0.15 0.53,-0.05 0.99,-1.65 1.09,-0.6 2.69,1.71 0.57,0.28 1.26,0.34 0.63,0.02 0.6,-0.11 1.19,-1.07 0.92,-0.28 2.55,-0.12 1.16,-0.19 0.95,-0.54 0.52,-0.87 0.69,-2.12 0.58,-0.79 0.81,-0.37 1.33,0.03 1.99,-0.17 1.94,-1.17 1.27,-0.11 0.64,-0.27 0.6,-0.79 0.61,-2.19 0.33,-1.82 0.41,-0.86 0.9,-1.12 0.77,-0.72 0.51,-0.67 0.04,-0.82 -0.24,-0.67 -0.37,-0.66 -1.32,-1.49 -0.38,-0.34 -0.04,-0.47 0.37,-0.63 3.65,-3.1 4.3,-4.68 0.6,-1.62 0.92,-0.18 1.35,0.51 6.29,4.52 2.23,-0.09 1.27,-0.24 0.56,-0.35 0.52,-1.09 0.87,-2.34 1.38,-0.53 0.99,-0.2 3.28,0.64 1.31,0.25 1.12,0.58 0.35,0.07 0.49,-0.03 0.58,-0.15 0.86,-0.47 0.34,-0.31 0.29,-0.46 0.23,-0.01 0.73,0.38 0.36,0.1 0.94,0.16 0.26,0.12 0.19,0.05 0.18,-0.04 0.31,-0.63 0.2,-0.16 1.12,-0.48 0.33,-0.2 0.26,-0.26 0.31,-0.22 0.45,-0.05 0.74,0.12 0.52,0 1.28,-0.75 1.31,0.41 0.16,0.21 0.17,0.09 0.27,-0.04 0.52,-0.29 0.36,-0.1 0.44,0.16 0.24,0.26 0.39,0.56 0.22,0.15 0.22,-0.05 0.11,-0.34 -0.04,-0.25 -0.07,-0.24 -0.06,-0.24 0.04,-0.24 0.23,-0.16 0.23,-0.06 0.63,0.41 0.24,0.04 0.3,-0.31 0.24,-0.34 0.35,-0.38 0.5,-0.41 0.22,-0.36 0.22,-0.56 0.17,-0.24 0.28,-0.19 0.64,-0.32 0.2,0.03 0.18,0.27 0,0.71 0.35,0.62 z" 
                fill="rgb(151, 144, 238)" 
                stroke="white" 
                stroke-width=".7px"
                title="Kirkuk" 
                id="IQ-KI" 
            />
        </svg>