<svg xmlns="http://www.w3.org/2000/svg" viewBox="449.83088999999956 332.361 91.05000000000013 119.0399999999999" width="91.05000000000013" height="119.0399999999999">
            <path 
                d="m 494.42089,355.611 0,0 0.01,0 0,0 1.91,1.4 1.81,0.96 1.88,0.41 2.11,-0.22 1.05,-0.4 2.73,-1.52 0.84,0.06 3.38,1.16 1.27,0.68 0.77,0.88 0.66,1.09 1.01,1.29 1.59,1.22 0.33,0.51 0.1,0.82 -0.22,0.46 -0.33,0.39 -0.53,1.31 -0.24,0.27 -0.01,0.35 0.4,0.96 0.27,0.4 1.78,1.7 0.28,0.39 0.23,0.39 1.05,1.47 0.39,0.4 0.57,0.29 0.33,0.89 1.16,0.89 0.31,0.92 -0.09,0.98 -0.32,0.68 -0.36,0.62 -0.23,0.77 -0.12,0.98 0.05,0.56 0.41,0.31 0.93,0.27 0.77,0.49 0.48,0.72 0.53,0.61 0.9,0.11 1.15,0.48 0.13,0.19 0.89,1.27 1.36,3.07 0.91,1.05 2.08,1.02 0.59,1.24 0,0.02 0.28,1.23 2.14,3.84 0.4,0.56 1.08,0.71 0.46,0.43 0.33,0.63 0.31,1.23 0.21,0.53 0.96,1.07 2.35,1.78 0.82,1.25 0.17,1.49 -0.36,1.59 -9.09,24.79 -0.15,11.96 -0.02,0 -8.27,-2.12 -8.51,-0.85 -2.69,0.22 -8.27,2.16 -2.07,0.98 -1.22,1.03 -1.11,1.74 -0.66,4.28 -10.45,-0.74 -6.27,0.09 -2.34,-1.22 -0.82,-0.8 -2.59,-2.09 -0.41,-0.54 -0.22,-0.5 -0.13,-0.58 -0.07,-0.67 0.01,-0.73 0.26,-2.49 0.03,-0.77 -0.06,-0.62 -0.2,-0.62 -0.35,-0.71 -0.76,-1.03 -0.68,-0.67 -0.73,-0.57 -5.31,-3.32 -0.96,-2.88 -0.03,-0.65 0.07,-0.91 0.62,-1.27 0.32,-0.86 0.23,-1.42 -0.16,-1.08 -0.44,-1.11 -0.63,-0.77 -1.92,-1.61 -0.98,-0.99 -1.85,-3 -0.36,-0.39 -1.85,-1.08 -2.34,-2.64 -1.37,-3.54 0.2,-0.95 0.08,-1.65 -4.61,-7.66 -1.56,-3.34 0.58,-1.18 0.99,-0.59 0.98,-0.26 -0.1,-0.59 -0.73,-0.97 -1.33,-1.33 7.44,-0.28 2.38,0.29 2.14,1.11 2.25,0.57 1.26,-0.15 1.6,-10.57 -0.71,-1.31 -1.17,-1.75 -7.27,-3.16 -1.1,-0.89 -0.19,-1.05 0.33,-1.27 2.51,-7.23 0.09,-0.61 -0.23,-0.56 -0.28,-0.43 -0.98,-0.8 -0.52,-0.55 0.06,-0.62 0.37,-0.81 0.83,-1.3 0.18,-0.44 0.2,-1.02 0.2,-0.72 0.08,-0.76 -0.08,-4.31 0.37,-3.39 3.88,-11.78 0.44,-0.69 1.33,-0.93 0.55,-0.7 0.93,-1.63 0,0 0.23,0.13 2.74,2.23 3.91,2.36 2.47,2.83 17.96,15.7 z" 
                fill="rgb(151, 144, 238)" 
                stroke="white" 
                stroke-width=".7px"
                title="Maysan" 
                id="IQ-MA" 
            />
        </svg>