<svg xmlns="http://www.w3.org/2000/svg" viewBox="144.46088999999986 23.731000000000073 185.58 155.85999999999993" width="185.58" height="155.85999999999993">
            <path 
                d="m 301.73089,27.481 0,0 3.8,2.06 1.36,0.31 0.35,-0.08 0.33,0.09 0.32,0.24 1.32,1.3 1.21,0.75 0.83,0.66 0.77,0.4 0.36,0.29 0.3,0.46 0.08,0.36 0.16,0.37 0.28,0.47 -0.04,0.21 -0.14,0.12 -0.24,0.05 -0.16,0.11 -0.01,0.14 0.14,0.14 0.97,-0.04 0.22,-0.06 0.26,0.08 0.24,0.21 0.38,0.59 0.03,0.35 -0.06,0.31 -0.08,0.2 0.05,0.21 0.49,0.79 0.23,0.14 0.45,-0.06 0.27,-0.07 0.26,-0.01 0.55,0.12 1.78,0.17 0.21,0.09 0.28,0.19 0.2,0.39 0.28,0.31 0.43,0.3 5.62,2.48 1,0.79 0.5,0.31 0.33,0.31 0.11,0.3 0.06,0.63 0.05,0.34 0.62,0.65 0.19,0.55 0.36,0.84 0.16,0.07 0.13,-0.05 0.15,-0.14 0.14,-0.07 0.14,0.02 0.13,0.12 0.11,0.23 0.05,0.27 -0.03,0.36 -0.31,0.65 -2.13,2.85 -1.68,1.51 -0.94,1.49 -1.02,0.34 -0.46,0.33 -1.63,1.47 -1.02,0.64 -0.76,0.67 -0.62,0.11 -0.23,-0.11 -0.08,-0.22 0.02,-0.2 -0.1,-0.14 -0.21,-0.14 -0.34,-0.09 -0.3,-0.02 -0.32,0.1 -0.6,0.28 -0.21,0.02 -0.23,-0.03 -0.2,0.08 -0.17,0.19 -0.09,0.4 -0.02,0.29 -0.09,0.26 -0.18,0.09 -0.4,-0.13 -0.18,-0.22 -0.06,-0.26 0.06,-0.29 0.11,-0.28 0.08,-0.25 -0.04,-0.18 -0.13,-0.08 -0.26,-0.01 -0.28,0.05 -0.33,0.11 -0.28,0.04 -0.28,-0.06 -0.25,-0.14 -0.18,-0.2 -0.08,-0.21 -0.07,-0.25 -0.11,-0.21 -0.12,-0.02 -0.14,0.13 -0.02,0.38 0.08,0.27 0.21,0.35 -0.06,0.18 -0.29,0.03 -0.18,-0.07 -0.16,-0.13 -0.32,0.17 -0.5,0.41 -1.51,1.74 -0.24,0.63 -0.17,0.3 -0.23,0.35 -0.6,0.49 -0.41,0.54 -0.84,0.64 -0.37,0.12 -0.3,-0.09 -0.16,-0.26 -0.19,-0.2 -0.19,-0.16 -0.18,0.03 -0.15,0.2 -0.07,0.54 0.05,0.9 -0.12,0.46 -0.28,0.42 -0.54,0.19 -0.37,0.02 -1.51,-0.19 -0.24,0.15 -0.14,0.32 0.03,0.72 0.13,0.32 0.13,0.25 0.09,0.26 0.02,0.28 0,0.32 -0.07,0.39 -0.2,0.36 -0.57,0.44 -0.47,0.26 -0.43,0.15 -0.43,0 -0.67,-0.12 -0.21,0.02 -0.16,0.19 -0.04,0.28 0.26,0.68 0.09,0.67 0.06,1.09 -0.43,1.48 -1.02,1.74 -2.5,3.01 -0.96,0.9 -1.11,0.71 -0.46,0.22 -0.85,1.01 -1.35,0.59 -0.47,0.43 -0.47,0.65 -0.7,1.21 -0.54,0.73 -1.88,1.71 -0.31,0.48 -0.32,0.86 -0.69,1.45 -1.15,0.86 -0.5,0.07 -0.21,0.23 -0.31,0.66 -0.13,0.53 -0.16,0.48 -1.28,2.38 -0.13,0.62 -0.02,0.49 0.1,1.46 -0.08,0.36 -0.17,0.38 -0.84,1.26 -0.65,0.61 -7.73,3.26 -0.49,0.76 0.37,1.86 0.64,0.65 0.97,0.13 0.77,0.01 0.2,0.52 0.01,1.37 -0.54,5.11 -0.64,1.47 -0.44,0.44 -0.47,0.1 -0.43,-0.01 -0.33,0.21 -0.31,0.48 -1.29,2.97 -0.24,0.87 0.05,0.62 0.08,0.42 0.98,2.31 -0.58,0.54 -0.12,0.55 -0.23,1.06 -0.6,0.32 -0.8,0.07 -0.85,0.28 -0.46,0.55 -0.89,1.62 -0.84,0.65 -1.17,0.34 -1.14,0.81 -3.91,1.64 -7.21,4.95 -1.03,0.09 -0.48,0.15 -0.59,0.37 -1.39,1.18 -0.74,0.49 -1.69,0.76 -0.21,0.02 -0.14,-0.02 -0.11,0.03 -0.1,0.07 -0.13,0.05 -0.18,-0.03 -0.22,0.01 -0.23,-0.03 -0.16,0.09 -0.19,0.21 -0.18,0.3 -0.21,0.42 -0.2,0.16 -0.11,0.12 -0.03,0.1 0.53,0.85 0.59,1.41 0.13,0.5 -0.1,0.45 -0.33,0.63 -0.25,0.39 -0.09,0.2 -0.17,0.98 0.03,0.48 0.13,0.56 0.3,0.49 0.02,0.96 0.13,0.46 1.63,2.12 0.47,0.45 0.93,0.73 0.27,0.37 0.3,0.52 0.03,0.54 0.08,0.57 0.69,1.89 0.13,0.16 0.15,0.07 0.13,-0.03 0.11,-0.07 0.1,0.03 0.04,0.16 -0.03,0.38 -0.24,0.56 -0.12,0.46 0.04,0.49 -0.21,1.21 -0.01,0.52 0.06,0.19 0.06,0.11 0.1,0.02 0.13,-0.03 0.15,0.01 0.31,0.1 0.18,0.53 0.48,0.86 0.07,0.42 0.08,0.15 0.17,0.08 0.18,0.03 0.07,0.08 0,0.26 0.08,0.12 0.11,0.04 0.2,-0.01 0.04,0.11 -0.02,0.17 -0.12,0.18 0.01,0.12 0.12,0.07 0.21,0.03 0.25,0 0.18,0.05 0.15,0.01 0.22,-0.02 0.09,0.09 0.15,0.68 0.08,0.2 0.03,0.18 0.13,0.45 0.05,0.28 -0.09,0.34 -0.29,0.8 0.01,0.17 0.23,0.36 0.13,0.34 -0.1,0.46 -0.64,0.42 -2.22,0.3 -21.26,0.13 -6.85,1.52 -1.5,7.09 -13,1.77 -1.81,-0.78 -2.09,-0.99 -1.08,-0.23 -8.38,1.1 -3.88,-0.25 -7.88,-3.1 -16.33,-6.78 -4.01,-0.64 -10.08,-2.91 -7.66,-0.72 -1.28,-0.03 -0.05,-1.7 0.59,-4.44 2.49,-9.03 0.52,-7.14 0.55,-2.21 0.01,0 0,0 0,-0.01 2.82,-4.24 2.01,-3.04 0.94,-2.22 0.33,-2.3 -0.25,-10.1 -0.29,-2.42 -0.65,-2.36 -4.61,-10.06 0,-0.01 0,0.01 -1.53,-3.6 -0.24,-1.27 0,-1.23 1.92,-18.55 0.49,-1.99 5.26,-10.31 0,-0.01 0.01,0 0,-0.01 1.2,-1.65 1.75,-0.82 3.87,-0.65 18.51,-3.95 1.63,-0.77 1.58,-1.35 8.04,-8.61 11.92,-12.79 6.15,-6.62 0.02,0 0,0 0,-0.01 3.82,-3.64 1.84,-1.43 0.42,1.59 0.82,1.77 1.02,1.6 2.26,2.25 1.08,0.79 1.04,-0.02 1.16,-1.34 0.02,1.14 -0.27,1.49 0.04,1.2 0.99,0.25 -0.44,1.63 0.13,0.69 0.51,0.56 0.65,1.24 -1.56,0.1 -0.28,0.79 0.65,0.59 1.19,-0.46 1.86,0.96 1,0.75 0.82,2.28 0.95,0.49 2.52,0.05 0.29,-0.15 0.26,-0.33 0.32,-0.34 0.53,-0.15 0.72,0.16 0.53,0.39 1.82,2.06 1.05,0.95 0.56,0.28 0.48,0.05 0.47,0.14 0.52,0.55 -1.34,0.51 -0.55,0.44 -0.14,0.57 0.4,0.62 0.62,-0.05 2.11,-1.05 0.49,0.03 0.86,0.45 0.44,0.39 0.3,0.48 0.51,1.16 0.5,-0.9 0.57,-0.43 0.69,-0.14 0.87,-0.01 0.72,0.17 4.89,-2.73 7.81,-1.08 2.39,-0.21 1.99,-1.03 0.9,-0.63 0.26,-1.18 0.55,-1.33 0.52,-1.68 1.75,-2.9 1.83,-2.23 0.44,-0.75 0.84,-0.65 0.95,-0.32 2.27,0.26 0.92,0.49 0.93,0.75 0.8,0.86 1.8,1.3 1.06,0.98 1.9,0.93 8.65,2.34 0.85,0.17 0.4,-0.03 0.16,-0.33 0.06,-0.37 0,-0.42 0.1,-0.38 0.2,-0.27 0.43,-0.24 0.55,-0.09 1.02,0.34 0.21,0.14 0.22,-0.01 0.2,-0.21 0.26,-0.83 0.07,-0.47 0.02,-0.39 -0.05,-0.27 -0.05,-0.21 -0.02,-0.37 -0.04,-0.19 -0.01,-0.18 0,-0.24 -0.03,-0.25 -0.11,-0.45 0.04,-0.17 0.33,-0.13 0.27,-0.18 0.28,-0.31 0.5,-1.03 0.1,-0.37 0.02,-0.34 -0.05,-0.37 -0.07,-0.37 -0.15,-0.35 -0.19,-0.23 -0.33,-0.14 -0.37,-0.08 -1.01,-0.32 -0.5,-0.27 -0.46,-0.1 -0.83,-0.03 -0.36,-0.1 -0.3,-0.15 -0.61,-0.45 -0.16,-0.24 -0.07,-0.21 -0.03,-0.21 -0.17,-0.35 -0.02,-0.23 -0.01,-0.26 0.03,-0.28 0.15,-0.56 0.22,-0.59 0.08,-0.62 -0.01,-0.27 0.06,-0.2 0.28,-0.62 0.18,-0.26 0.26,-0.28 0.21,-0.15 0.19,-0.06 0.26,0.02 0.28,0.08 1.06,0.59 0.68,0.19 4.18,0.75 1.66,0.66 1.88,0.46 z" 
                fill="rgb(151, 144, 238)" 
                stroke="white" 
                stroke-width=".7px"
                title="Ninawa" 
                id="IQ-NI" 
            />
        </svg>