<svg xmlns="http://www.w3.org/2000/svg" viewBox="221.99088999999967 122.92099999999986 147.7000000000003 165.94" width="147.7000000000003" height="165.94">
            <path 
                d="m 273.70089,142.381 0,0 -1.09,0.6 -0.99,1.65 -0.53,0.05 -0.36,-0.15 -0.33,-0.53 -0.01,-0.34 -0.05,-0.32 -0.24,-0.4 -0.07,-0.2 -0.04,-0.24 -0.17,-0.29 -0.24,-0.14 -0.91,-0.31 -0.39,1.09 0.27,0.67 -0.03,0.42 -0.14,0.43 -0.1,0.73 0.13,0.7 0.28,0.38 0.28,0.21 0.13,0.19 0.29,0.55 1.51,1.67 0.68,0.59 1.67,0.69 0.85,0.58 0.36,0.93 -0.06,0.21 -0.17,0.08 -0.21,0.07 -0.21,0.17 -0.18,0.44 0.12,0.29 0.21,0.23 0.06,0.31 -0.22,1.07 -0.18,0.44 -0.38,0.48 3.06,0.52 1.24,0.58 -0.22,1.4 -0.52,0.35 -0.68,0.23 -0.59,0.36 -0.25,0.8 0.22,0.65 0.52,0.92 0.6,0.82 0.47,0.35 3.92,4.26 0.79,1.15 1.56,0.73 1.08,0.78 0.57,0.87 1.37,0.92 4.62,2.14 11.91,7.16 3.89,2.34 4.19,1.59 5.06,2.27 3.62,2.22 4.98,5.02 4.54,3.51 0.6,0.16 0.9,-0.02 1.35,-1.61 0.25,-0.38 -0.02,-0.18 -0.62,-0.08 -0.22,-0.08 -0.11,-0.14 -0.02,-0.18 0.11,-0.32 -0.02,-0.16 -0.22,-0.47 -0.05,-0.31 0.2,-0.79 0.05,-0.39 -0.03,-0.71 0.07,-0.28 0.18,-0.28 0.75,-0.67 0.34,-0.43 0.21,-0.41 0.2,-0.73 0.94,-1.33 0.69,-0.38 0.21,-0.27 0.09,-0.23 0.01,-0.19 0.08,-0.18 0.28,-0.44 0.04,-0.25 -0.05,-0.25 0.03,-0.13 0.02,-0.19 0.24,-0.55 0.2,-0.36 0.01,-0.23 -0.02,-0.19 0.02,-0.13 0.05,-0.17 0.07,-0.6 0.92,-1.43 1.28,-1.29 1.31,-1.9 0.45,-0.45 0.73,-0.47 0.92,-0.45 1.63,-1.23 0.58,-0.9 0.05,-1.08 -1.2,-2.85 -0.06,-1.02 0.3,-1.3 0.49,-0.78 0.56,-0.7 0.44,-0.31 0.36,-0.17 0.75,-0.03 6.02,6.35 0.98,0.46 1.34,0.37 1.03,-0.37 6.53,0.28 2.23,0.41 5.13,3.6 0.72,0.87 0.15,0.32 0.05,0.28 -0.04,0.33 -0.19,0.98 0.14,5.17 -2.82,2.6 -1.96,1.02 -1.55,0.6 -0.7,0.56 -0.39,0.57 -0.04,0.48 0.07,0.47 0.05,0.6 -0.25,0.8 -0.8,1.34 -1.16,1.19 -0.85,0.7 -0.73,0.31 -1.68,0.5 -1.22,0.7 -0.58,0.52 -0.28,0.47 0,0.43 0.12,0.45 0.26,0.46 0.28,0.43 0.2,0.85 -0.1,1.06 -0.93,2 -0.75,1.03 -0.86,0.83 -0.98,0.67 -1.01,0.87 -0.66,0.79 -0.39,0.72 -0.3,0.87 -0.18,0.03 -0.32,-0.2 -2.17,-1.97 -0.65,-0.43 -0.52,-0.25 -0.92,-0.22 -1.19,-0.49 -0.53,-0.3 -0.24,0.13 -0.7,0.91 -0.13,0.39 -0.05,0.28 -0.04,0.68 0.9,2.35 -0.02,0.4 -0.15,0.55 -0.71,0.65 -0.08,0.19 0.08,0.07 0.16,0 0.22,0.1 0.22,0.23 0.27,0.57 -0.07,0.27 -0.2,0.2 -0.57,0.18 -0.24,0.02 -0.27,0.06 -0.24,0.19 -0.28,0.49 -0.04,0.27 0.04,0.12 0.12,-0.07 0.14,-0.12 0.15,-0.05 0.2,0.12 -0.03,0.17 -0.13,0.2 -0.28,0.34 0,0.2 0.12,0.14 0.23,0.04 0.2,-0.04 0.33,-0.21 0.19,-0.03 0.18,0.14 -0.04,0.19 -0.11,0.25 -0.21,0.67 -0.14,0.24 -0.4,0.42 0.07,0.26 0.14,0.36 0.21,0.71 -0.04,0.59 -0.4,1.35 -0.59,1.28 -0.46,0.73 0,0.32 0.17,0.41 0.33,0.49 0.55,0.62 0.45,0.37 0.43,0.24 0.69,0.86 -0.81,0.54 0.16,1.44 -0.05,0.28 -0.21,0.18 -0.3,0.11 -0.45,0.29 -0.11,0.4 0.01,1.32 -0.12,0.3 -0.17,0.07 -0.18,-0.15 -0.33,-0.37 -0.19,-0.04 -0.25,0.14 -0.23,0.19 -0.2,0.12 -0.21,0.04 -0.69,0.03 -0.53,0.19 -0.23,0.16 -1.24,1.84 -0.24,0.52 -0.15,0.59 -0.13,0.21 -0.18,0.11 -0.2,-0.01 -0.11,-0.08 -0.02,-0.11 0.15,-0.34 -0.02,-0.21 -0.11,-0.15 -0.35,0.06 -0.2,0.25 -0.24,0.4 -0.17,0.46 -0.25,0.23 -0.26,0.1 -0.72,-0.04 -0.55,0.12 -0.21,0.15 0.01,0.18 0.13,0.19 0.12,0.26 0.05,1.71 -0.07,0.2 -0.13,0.09 -0.7,0.02 -0.49,0.12 -0.25,0.21 -0.11,0.25 0.08,0.27 0.44,0.77 0.08,0.25 -0.01,0.3 -0.14,0.46 -0.24,0.24 -1.27,0.89 -0.1,0.23 0.31,0.5 0.08,0.35 -0.43,1.19 -0.16,0.9 -0.66,0.96 -0.04,0.34 0.01,0.6 0.19,0.19 0.28,0.06 0.42,-0.05 0.49,-0.14 1.63,-0.2 1.59,0.24 0.36,0.16 0.54,0.23 2.76,2.51 0.71,0.89 0.46,1.12 0.19,1.38 -0.05,1.34 -0.35,1.26 -2.04,3.21 -1.11,3.07 -0.12,0.65 -0.01,0.66 0.15,0.65 0.31,0.6 0.4,0.51 1.18,1.21 0.15,0.29 0,0.31 -0.84,1.33 -0.24,0.53 -0.88,3.88 0.69,1.65 -0.19,1.77 -0.5,1.86 -2.34,2.1 -1.04,0.76 -1.4,1.3 -0.88,1.07 -3.18,4.61 -4.4,-0.27 -2.02,-1.41 -2.22,-0.66 2,-1.56 -0.6,-0.66 -1.3,-2.26 -1.87,-4.69 -1.1,-2.05 -0.93,-1.02 -2.08,-1.9 -1.8,-0.54 -10.01,0.25 -5.41,-1.8 -7.33,-2.95 -6.4,-1.08 -3.16,-1.18 -8.2,-7.18 -9.56,-9.64 -4.09,-5.48 -3.13,-7.63 -0.59,-3.8 -0.91,-3.86 -1.52,-2.21 -0.47,-2.16 -0.27,-4.49 -1.13,-6.19 -7.14,4.08 -1.9,-0.26 -2.59,-1.48 -11.58,-9.54 -2.38,-10.5 -0.08,-15.89 -0.43,-1.03 1.5,-7.09 6.85,-1.52 21.26,-0.13 2.22,-0.3 0.64,-0.42 0.1,-0.46 -0.13,-0.34 -0.23,-0.36 -0.01,-0.17 0.29,-0.8 0.09,-0.34 -0.05,-0.28 -0.13,-0.45 -0.03,-0.18 -0.08,-0.2 -0.15,-0.68 -0.09,-0.09 -0.22,0.02 -0.15,-0.01 -0.18,-0.05 -0.25,0 -0.21,-0.03 -0.12,-0.07 -0.01,-0.12 0.12,-0.18 0.02,-0.17 -0.04,-0.11 -0.2,0.01 -0.11,-0.04 -0.08,-0.12 0,-0.26 -0.07,-0.08 -0.18,-0.03 -0.17,-0.08 -0.08,-0.15 -0.07,-0.42 -0.48,-0.86 -0.18,-0.53 -0.31,-0.1 -0.15,-0.01 -0.13,0.03 -0.1,-0.02 -0.06,-0.11 -0.06,-0.19 0.01,-0.52 0.21,-1.21 -0.04,-0.49 0.12,-0.46 0.24,-0.56 0.03,-0.38 -0.04,-0.16 -0.1,-0.03 -0.11,0.07 -0.13,0.03 -0.15,-0.07 -0.13,-0.16 -0.69,-1.89 -0.08,-0.57 -0.03,-0.54 -0.3,-0.52 -0.27,-0.37 -0.93,-0.73 -0.47,-0.45 -1.63,-2.12 -0.13,-0.46 -0.02,-0.96 -0.3,-0.49 -0.13,-0.56 -0.03,-0.48 0.17,-0.98 0.09,-0.2 0.25,-0.39 0.33,-0.63 0.1,-0.45 -0.13,-0.5 -0.59,-1.41 -0.53,-0.85 0.03,-0.1 0.11,-0.12 0.2,-0.16 0.21,-0.42 0.18,-0.3 0.19,-0.21 0.16,-0.09 0.23,0.03 0.22,-0.01 0.18,0.03 0.13,-0.05 0.1,-0.07 0.11,-0.03 0.14,0.02 0.21,-0.02 1.69,-0.76 0.74,-0.49 1.39,-1.18 0.59,-0.37 0.48,-0.15 1.03,-0.09 7.21,-4.95 3.91,-1.64 1.14,-0.81 1.17,-0.34 0.84,-0.65 0.89,-1.62 0.46,-0.55 0.85,-0.28 0.8,-0.07 0.6,-0.32 0.23,-1.06 0.12,-0.55 0.58,-0.54 -0.39,2.01 -0.13,0.32 -0.24,0.44 0.07,0.27 0.16,0.25 0.28,0.31 0.29,0.44 0.29,0.71 0.24,0.91 -0.12,0.58 -0.16,0.48 0.06,0.29 0.16,0.19 0.28,0.12 0.27,0.04 0.33,0.19 0.37,0.4 0.46,0.86 0.21,1.12 0.26,5.7 -0.03,0.66 -0.08,0.48 -0.25,0.97 -0.06,0.9 -0.07,0.39 -0.15,0.23 -0.15,0.06 -0.48,0.14 z" 
                fill="rgb(151, 144, 238)" 
                stroke="white" 
                stroke-width=".7px"
                title="Sala ad-Din" 
                id="IQ-SD" 
            />
        </svg>