<svg xmlns="http://www.w3.org/2000/svg" viewBox="343.20088999999996 284.3809999999998 124.09000000000003 110.16000000000014" width="124.09000000000003" height="110.16000000000014">
            <path 
                d="m 436.60089,311.521 0,0 -1,-0.08 -1.31,0.12 -1.2,0.67 -0.06,0.87 0.83,0.71 2.63,0.31 1.12,0.47 0.86,0.77 0.34,0.98 -0.4,1.21 -0.88,0.92 -1,0.81 -0.73,0.86 0,0.02 1.27,2.84 3.49,0.43 7.03,-0.8 6.34,1.97 5.94,2.84 1.68,1.69 5.56,3.23 0,0 -0.93,1.63 -0.55,0.7 -1.33,0.93 -0.44,0.69 -3.88,11.78 -0.37,3.39 0.08,4.31 -0.08,0.76 -0.2,0.72 -0.2,1.02 -0.18,0.44 -0.83,1.3 -0.37,0.81 -0.06,0.62 0.52,0.55 0.98,0.8 0.28,0.43 0.23,0.56 -0.09,0.61 -2.51,7.23 -0.33,1.27 0.19,1.05 1.1,0.89 7.27,3.16 1.17,1.75 0.71,1.31 -1.6,10.57 -1.26,0.15 -2.25,-0.57 -2.14,-1.11 -2.38,-0.29 -7.44,0.28 -15.5,0.05 -1.99,0.68 -0.3,0.28 -0.23,0.54 -0.26,0.14 -0.43,0.01 -0.93,-0.18 -0.55,-0.17 -0.53,-0.05 -0.49,0.16 -2.07,1.55 -0.28,0.06 -0.29,-0.22 -0.16,-0.17 -0.16,-0.07 -0.16,0.08 -0.26,0.29 -0.24,0.14 -0.23,0.01 -0.28,-0.22 -0.32,-0.01 -3.66,1.54 -5.98,-0.39 -2.81,-6.53 -0.03,-0.44 0.22,-0.32 0.44,-0.38 -0.18,-0.85 -4.12,-1.22 -3.76,-1.39 -0.95,-0.62 -0.57,-0.87 -0.73,-1.33 -1.09,-1.46 -5.94,-5.62 -0.89,-1.04 -0.32,-1.06 0.15,-1 0.79,-1.9 0.1,-0.67 -0.22,-0.58 -1.31,-0.4 -0.69,-1.05 -4.21,-0.51 -1.5,-0.64 -0.38,-1.12 -3.45,-0.47 -0.1,-1.47 -0.17,-2.22 -0.77,-0.01 -3.56,-0.16 -1,-0.29 -0.96,-0.67 -1.15,-1.16 -1.04,-1.32 -2.33,-5.26 -2.55,-8.49 -0.37,-0.77 -0.81,-0.89 -0.85,-0.68 -1.53,-0.87 -1.94,-0.82 -0.31,-0.54 -0.52,-0.18 -2.18,-0.2 -3.01,-0.96 -3.79,-2.18 -0.41,-0.1 -8.45,-0.6 -0.36,-0.13 -0.29,-0.23 -0.41,-0.39 -0.39,-1.12 -0.37,-1.75 -0.2,-7.2 -0.45,-2.12 1,-0.57 1.32,0.4 0.17,-0.08 0.26,-0.19 0.23,-0.43 0.29,-0.7 0.59,-0.99 0.59,-1.85 0.43,-1.01 0.42,-0.22 0.37,0.67 0.51,1.4 0.32,0.64 0.38,0.52 0.46,0.43 0.55,0.37 0.62,0.32 0.67,0.21 0.68,0.03 0.63,-0.24 0.67,-0.57 0.28,-0.11 -0.35,-1.07 -0.19,-0.34 -0.33,-0.78 0.55,-0.85 1.06,-1.05 2.59,-2 1.31,-1.94 1.33,-1.63 1.17,-0.93 1.78,0.09 6.88,1.69 2.09,0.16 5.79,-0.65 18.7,5.41 3.46,1.02 0.49,-0.2 0.69,-0.38 0.74,-0.98 0.96,-1.03 2.29,-1.95 0.41,-0.43 1.37,-2.07 1.56,-1.91 0.8,-1.17 0.55,-1.5 0.24,-1 0.39,-0.77 0.57,-0.83 2.09,-2.51 0.66,-1.02 0.34,-0.37 0.27,-0.13 0.25,0.06 0.25,0.12 0.23,0.05 0.25,-0.03 0.91,-0.41 0.7,-0.45 0.5,-0.47 0.64,-0.78 2.79,-2.06 0.48,-0.22 0.35,-0.13 0.33,-0.02 0.51,-0.13 0.71,-0.29 1.41,-0.85 0.64,-0.51 0.43,-0.54 0.71,-2.56 0.23,-0.45 0.95,-1.63 0.99,-1.13 0.01,0 0.22,0.12 0.19,0.11 0.18,0.14 2,2.51 0.68,1.23 0.48,1.35 0.18,1.46 0.04,1.19 0.31,1.04 1.99,1.93 2.38,3.37 1.9,1.54 0.83,0.85 0.53,1.2 0.01,0.73 -0.36,1.37 -0.04,0.59 0.26,0.66 0.7,0.44 0.03,0.64 -0.42,0.92 -0.82,1 -1.61,1.6 -1.26,0.96 -0.97,0.19 z" 
                fill="rgb(151, 144, 238)" 
                stroke="white" 
                stroke-width=".7px"
                title="Wasit" 
                id="IQ-WA" 
            />
        </svg>