<svg xmlns="http://www.w3.org/2000/svg" viewBox="0.27601291000001793 0.3002115000004375 402.52999709 520.5099985000002" width="402.52999709" height="520.5099985000002">
            <path 
                d="m 204.39601,8.6502115 1.32,4.4400005 0,6.4 0.7,2.17 8.15,5.31 7.38,3.35 1.6,1.63 5.36,1.73 2.09,-0.65 3.96,-3.57 5.36,0.54 -0.07,-2.71 1.26,-2.93 -0.91,-9.97 1.33,-0.86 2.43,-0.22 2.02,1.3 4.8,1.63 2.44,-0.65 2.44,-1.52 0.76,0.21 6.9,4.77 4.24,3.91 -0.41,1.84 -3.56,6.07 1.81,0.86 1.75,2.6 3.13,1.74 1.25,1.84 -3.2,1.52 -3.83,3.9 -1.18,3.14 -0.84,4.44 0.42,1.19 5.22,0 3.27,1.84 3,3.68 1.94,1.41 3.55,-0.43 -1.74,6.06 -4.38,2.28 -1.46,3.35 -0.21,2.49 0,1.63 0.69,1.3 2.37,-0.65 3.76,0.86 0.21,1.84 -1.67,3.14 -1.12,1.09 0,0.97 2.93,2.82 0.14,1.4 -0.56,1.3 -0.9,0.65 -4.6,0.11 -0.35,0.54 -0.07,2.16 0.63,2.17 1.81,1.51 1.81,0.22 0.56,0.65 -0.14,2.38 -1.05,1.299998 -1.25,0.43 -3.69,-1.299998 -1.88,-0.21 -0.76,0.54 -0.7,1.839998 -0.14,4.11 1.46,2.49 0.21,4.22 -0.21,0.65 -1.74,-0.33 -0.9,0.76 -3,4.87 0.35,2.49 1.05,0.97 0.76,0.43 2.23,-0.11 1.04,-0.54 0.7,-1.84 -1.81,-1.08 0.28,-1.51 1.32,-1.73 1.25,0 3.41,2.59 0.63,1.3 -0.07,1.19 -5.64,5.09 -0.48,4 -1.12,0.1 -3.48,-2.48 -1.74,0.75 -1.53,6.71 1.6,3.78 1.53,0.44 1.32,-0.33 0.91,-0.86 0.49,-3.46 0.55,-0.76 2.44,-0.22 1.6,1.3 -0.14,2.92 -2.09,3.68 0,1.3 9.12,12.43 0.07,2.92 -2.57,8.86 5.36,3.78 2.71,1.08 1.81,1.3 0.77,1.4 0.28,1.73 -0.49,1.19 -4.32,6.05 -1.88,0.76 0,0.75 0.7,0.98 2.58,1.4 3.48,0 1.67,0.97 0.97,0.87 0.14,3.35 -4.66,8.75 -0.84,0.21 -1.67,-1.51 -1.39,-0.43 -0.77,0.86 0.21,2.38 2.3,2.27 2.85,-0.22 2.23,0.65 1.39,2.16 1.19,3.24 2.29,2.48 2.09,0.54 3.27,-0.43 3.14,1.4 0.21,1.51 -3.14,8.75 -0.07,6.69 1.67,2.91 -0.34,1.73 1.74,2.7 2.09,1.29 2.15,0.33 0.84,7.44 0.49,1.41 1.04,1.08 1.74,0.32 4.04,-1.51 1.46,-1.94 0,-0.87 -2.57,-1.72 -0.42,-0.76 -1.61,-5.83 3.21,-4.42 2.78,-0.22 0.98,1.08 -0.07,3.46 1.46,3.67 -0.28,4.96 2.3,4.86 1.18,3.77 0.49,-0.11 0.49,-1.18 1.18,-4.21 2.65,-2.05 1.6,0.32 0.62,0.76 2.09,4.42 7.59,0 0,1.4 -3.83,4.21 0.07,0.86 3.2,2.49 3.55,4.96 0,0.65 -2.08,2.04 1.25,6.37 -3.76,3.23 -1.81,0.65 0,1.51 0.14,0.86 1.11,0.97 7.03,1.73 0.91,1.62 1.74,5.93 -0.07,1.18 -1.6,1.73 -2.23,-0.22 -0.35,0.43 1.95,2.91 2.3,8.63 4.94,3.34 4.32,0.64 1.74,2.7 0.28,2.26 0.63,1.08 2.64,2.26 2.16,2.8 2.02,5.17 2.29,0.65 7.18,3.99 1.11,0 2.51,-2.16 1.6,0.11 2.64,3.45 2.37,0 1.46,0.75 0.77,5.06 3.34,3.77 1.53,0.11 4.39,-3.34 1.04,-0.32 1.39,-0.11 2.09,0.97 1.05,1.72 0.34,1.84 -0.41,4.2 0.55,1.93 0,0 -5.5,2.8 1.81,3.13 0.84,7.53 -4.94,0.86 -3.14,-2.26 -1.39,-0.32 -2.23,1.08 -3.48,0 -2.02,0.86 -11.28,-2.37 -4.94,4.63 2.09,3.23 3.55,0.86 -11.35,12.06 0.56,5.05 0.63,1.83 2.29,1.08 7.38,1.94 -0.41,3.33 -0.21,1.29 -0.7,0.11 -1.18,1.4 -1.39,0 0.55,1.61 -1.04,1.29 0.42,2.05 -4.32,0.54 -3.34,-0.65 0.69,0.65 3.48,7.63 -2.64,2.48 -0.7,1.29 -6.26,3.44 -0.42,3.23 3.69,3.97 1.18,3.45 -2.36,0.96 0,0 -1.88,-3.33 -2.09,2.69 -1.67,-0.97 -2.37,-0.32 -0.91,-5.7 -1.18,-1.83 -0.56,0.54 -1.11,-3.12 -5.43,1.94 -1.18,0.86 -0.49,2.79 -1.25,-0.11 -1.12,2.05 -3.83,-2.26 -2.22,-1.94 -1.74,-3.98 -1.26,-0.96 -1.46,-0.11 -1.25,-0.97 -1.74,-0.43 0.55,-0.75 -0.49,-0.22 0.08,-1.07 -1.68,-0.43 -2.02,-2.05 -0.34,0.65 -1.39,-0.11 0.76,-1.29 -1.53,-0.32 -0.56,-1.72 1.53,-3.45 0.28,-3.65 -0.69,-3.45 -1.53,-2.26 -0.28,-4.52 -2.09,-0.64 -8.15,2.58 -4.17,-1.61 -3.55,-0.33 -1.26,1.19 -6.68,3.87 -0.35,-2.69 0.49,-0.54 -0.56,-0.96 -0.14,-2.05 -1.74,-3.12 -0.83,0.22 -0.35,-0.65 -9.4,6.78 -0.98,2.15 -0.55,-0.54 -5.22,4.31 -8.64,5.48 -2.36,-3.87 -4.11,-1.29 -3.2,-0.43 -0.98,-1.61 1.05,-1.62 -0.07,-1.07 -1.81,-3.13 -2.23,-0.32 -0.28,-0.54 -3.62,0.54 -7.66,-3.23 -0.35,-0.64 0.7,-3.34 -0.28,-0.54 -1.04,-0.53 -5.43,-0.43 -0.28,-2.27 0.9,-1.18 -0.9,-0.86 -0.91,1.51 0.28,1.61 -1.11,1.62 -1.6,0.43 -5.85,3.55 0.49,1.18 -1.4,0.97 -3.2,-2.26 -1.74,-0.11 -1.39,0.76 0.28,3.12 -1.88,0.32 -3.9,3.12 -0.21,1.61 -2.58,5.71 0.28,1.18 -0.42,1.72 1.81,1.18 -0.34,1.51 5.71,4.3 -3,0.22 -3.76,2.58 -6.4,2.8 0.83,1.93 -4.03,1.4 0.27,2.58 -0.48,2.04 -1.6,1.08 0.55,0.97 0.07,2.47 -5.64,-0.21 -1.74,0.86 -2.71,2.79 0.07,1.18 -0.77,1.08 1.39,2.04 0.98,3.01 -1.32,1.83 1.04,0.86 1.81,0.21 -0.42,1.72 -1.39,-0.1 -0.84,0.86 -1.74,0.21 -0.69,0.75 0.55,1.51 1.4,0.43 -1.05,0.86 -0.21,1.18 0.42,2.9 0.49,0.11 0.97,2.8 -3.13,1.5 0.42,0.43 -1.53,1.93 -0.21,1.4 -3.2,2.47 0.34,1.18 -0.9,1.08 0.76,1.07 0.21,1.83 -1.67,0.75 -0.9,1.4 1.67,0.86 1.95,3.01 -2.09,1.61 0.97,0.75 -0.07,0.86 3.35,-1.18 0.9,1.61 1.67,-1.08 -0.28,-0.64 0.42,-0.21 2.72,4.83 1.04,0 2.37,1.72 -0.49,1.07 -3.41,1.72 2.5,3.01 -0.97,2.79 1.74,1.93 -1.18,0.54 0.35,1.29 -2.09,0.97 1.25,2.47 -8.84,2.9 -1.05,-0.76 0,-3.76 -1.39,0 -3.48,1.19 -1.53,1.5 -2.37,0.97 -3.55,0.1 -1.46,-1.71 -0.56,2.14 -4.17,2.37 -4.25,3.75 -2.02,0.97 -0.91,1.93 -1.32,1.08 -0.21,1.93 -3.13,0.21 -3.97,3.76 -6.54,3.22 -5.43,0.54 -6.55,-1.61 -3.13,-4.3 0.77,-4.72 -0.91,-1.07 -2.78,1.07 -3.28,0 0.35,-1.4 -2.22,-0.53 -4.46,2.68 -1.95,0.11 -2.16,1.07 0,0 -3.13,-4.72 -2.299997,-1.5 -1.53,-2.04 0.07,-0.65 0.97,-0.75 -0.41,-1.5 0.21,-1.51 -0.42,-0.32 -3.41,0.32 -1.6,-3.33 -0.91,-0.86 -3.06,-1.18 -2.3,-0.43 -1.39,0.33 -2.02,1.5 -2.58,0.64 -4.31,2.9 -4.04,-0.32 -2.58,-1.83 -2.43,0.11 -3.49,1.08 -0.83,-2.04 0.63,-2.9 -0.77,-4.08 1.53,-2.47 -0.56,-3.12 0.42,-2.69 2.51,-2.47 -0.56,-2.79 0.42,-3.97 -1.53,-2.26 -3.97,-0.32 -3.2,-4.73 -1.74,-7.09 -3.9,-5.27 -0.63,-4.94 -1.18,-3.44 -1.53,-2.8 -3.21,-2.26 -1.53,-5.26 -3.48,-3.23 -0.14,-4.41 -1.74,-4.08 -1.25,-1.62 -1.88,-0.86 -1.18,0.54 -2.3,3.01 -0.98,0.11 -2.15,-1.83 -1.47,-0.11 -1.81,1.29 -6.89,0.97 -4.94,1.51 -1.12,-3.12 0.14,-2.37 -0.97,-3.22 -0.84,-6.57 -0.9000001,-2.15 0.5600001,-6.56 -1.4000001,-1.83 -1.18,-0.64 -1.53,-3.98 0.21,-0.76 2.85,-2.9 0.14,-1.51 -2.71,-7.43 -2.37,-2.69 -0.56,-1.4 0.07,-1.5 1.32,-2.05 1.19,-0.21 2.64,0.54 1.4600001,-0.87 0.28,-1.72 -1.3900001,-3.66 0.63,-3.12 3.3400001,1.61 2.09,-1.07 0.76,-1.4 -0.07,-2.69 -2.02,-2.48 -5.3600001,-0.54 -0.41,-0.97 0.28,-0.54 1.9400001,-0.32 3.14,-1.51 2.85,0.11 1.25,-1.51 -0.06,-1.07 -3.49,-3.88 1.05,-5.06 -2.44,-3.23 1.25,-3.45 1.4,-0.21 2.85,3.33 2.09,0.76 1.25,-0.76 1.95,-2.47 0.91,-0.33 0.83,0.76 0.98,4.09 1.25,0.32 0.91,-0.97 1.18,-3.98 2.51,0.11 1.88,-0.97 -0.28,-1.29 -2.93,-1.62 -0.28,-0.75 0.7,-0.33 1.95,1.19 0.97,-3.88 -1.11,-1.73 -2.16,-1.5 -0.48,-1.94 -0.91,-0.86 -3.2,-0.76 -1.6,-2.05 -3.76,-1.83 -5.71,-1.08 -6.3400001,-3.12 -2.99,-2.91 -2.3,-0.22 -2.63999999,-1.4 -0.7,-2.58 3.33999999,-3.88 -0.21,-1.08 2.65,-1.19 2.71,-4.74 8.7800001,-5.61 1.81,-2.04 -0.42,-1.19 0.35,-3.56 -0.35,-2.16 1.18,-0.86 -0.56,-1.4 1.05,-6.79 3.48,-0.87 -0.21,-1.83 0.98,-3.13 2.71,-2.26 -0.35,-2.05 -1.88,-3.78 0.84,-1.29 -1.6,-3.56 0.97,-3.02 1.53,-1.62 0.35,-1.73 -0.83,-2.59 1.67,-1.29 0.14,-3.03 2.99,-1.72 0.97,0.11 1.81,1.61 3.9,-0.97 0.84,-1.08 -0.21,-1.18 3.9,-2.49 2.57,2.59 2.65,-0.1 2.09,0.54 1.32,-0.76 0.98,-1.4 -0.49,-2.48 0.97,-1.73 -0.14,-1.51 0.7,-1.19 4.46,0 1.32,-0.65 2.99,-3.34 1.81,0.1 3.34,-1.62 3.76,-4.42 1.19,-2.7 0.34,-6.37 -0.76,-1.62 -0.91,-0.54 -3.83,0.43 -1.74,-3.35 -4.03,-3.56 -1.12,-2.59 0.14,-2.27 -0.76,-2.05 0.48,-2.92 -1.25,-3.89 0.42,-1.19 -0.28,-1.73 2.09,-1.62 3.9,-0.21 1.18,-1.84 1.67,-0.54 0.97,-1.62 2.79,-0.54 1.39,0.43 1.32,-0.21 3.77,-2.81 3.62,-1.84 -0.35,-3.24 1.32,-0.87 0.21,-1.19 4.45,-1.51 -0.27,-2.05 -1.12,-1.73 -0.49,-4.22 1.4,-1.83 2.5,-1.41 -0.07,-2.27 3.07,-2.16 0.34,-1.95 1.33,-0.75 0.14,-0.98 -1.19,-3.67 -1.6,-2.16 -1.88,-1.95 -3.55,-0.65 -2.37,-4.87 1.47,-3.56 0.83,-3.79 1.53,-2.81 2.02,-0.76 2.37,-1.73 0.97,-2.16 1.05,-0.87 7.379997,-2.81 1.39,0.97 4.04,-2.81 0.62,-1.95 -0.06,-4 -0.98,-6.49 1.6,-4.549998 4.18,-7.9 0.7,-4.22 0.06,-6.39 0.56,-1.4 1.25,-0.87 2.3,-3.25 5.64,-3.25 1.88,-1.95 3.27,-0.64 8.15,-4.88 8.7,-3.03 4.94,-0.65 3.42,-1.62 4.8,-1.09 -1.19,-8.34 1.81,-3.79 -1.32,-8.88 1.19,-1.3 1.39,-0.44 2.43,-2.05 -2.22,-6.51 -1.05,-0.65 1.4,-3.68 0.48,-7.81 4.18,-3.6800005 19.77,-0.65 4.53,-1.74 12.32,-6.61 1.04,0.87" 
                fill="rgb(151, 144, 238)" 
                stroke="white" 
                stroke-width=".7px"
                title="Diekirch" 
                id="LU-D" 
            />
        </svg>