<svg xmlns="http://www.w3.org/2000/svg" viewBox="311.60248 68.16473700000002 103.28999999999996 91.730003" width="103.28999999999996" height="91.730003">
            <path 
                d="m 331.89248,93.534737 0.59,-11.41 1.63,-2.66 0.06,-2.69 5.55,-3.38 1.39,0.66 -0.75,1.87 4.62,-1.66 1.13,-2.11 -0.77,-3.54 0.9,-0.45 1.25,1.74 2.72,0.68 -0.39,2.44 1.5,0.89 -0.28,1.58 1.48,1.16 0.51,1.92 2.26,0.01 -3.24,5.44 5.07,-0.4 2.27,0.95 2.57,1.73 0.77,1.84 -0.96,3.76 1.7,-0.6 2.39,0.88 2.66,-1.1 1.67,4.63 2.57,0.86 1.66,2.93 1.64,0 0,0 6.28,3.160003 1.57,3.61 2.51,1.02 2.11,2.39 3.32,0.63 -0.14,2 1.26,2.84 2.92,0.67 0.24,2.53 1.74,0.79 1.03,-2.47 1.8,1.59 0.2,1.65 -1.65,2.88 0.49,1.61 2.46,-1.98 1.34,3.96 1.91,-0.91 0.79,-1.67 2.84,-1.12 1.03,0.88 -0.06,1.21 2.6,0.34 2.24,1.94 -1.96,2.86 0.18,2 -3.32,4.26 0.02,3.79 -2.4,1.4 0.04,3.17 1.83,-0.57 0,0 0.91,1.38 -1.23,2.39 -0.11,3.34 -3.1,2.62 -4.78,-0.81 -0.42,-1.41 -6.49,0.8 -1.05,1.31 -6.11,-0.18 -4.42,-3.76 -1.14,0.12 -0.01,1.61 -1.11,0.87 -4.11,-1.18 -4.21,2.74 -2.74,-2.39 -1.58,0.63 -0.48,1.26 -1.7,0.35 -3.31,-1.66 -1.94,0.03 -0.88,-1.21 0.19,-3.01 -3.03,5.14 0.48,4.87 0,0 -0.47,1.39 -2.12,0.69 -0.69,-2.15 -3.46,-1.27 -0.15,-1.38 -1.68,0.94 -2.49,-2.22 0.66,-1.06 2.23,0.61 1.43,-2.51 -1.57,-3.42 -4.05,-2.62 -1.38,-3.01 -0.53,-4.67 -1.47,-0.63 -1.33,1.15 -1.72,-0.14 -2.1,-0.9 -1.61,-3.26 -1.9,-1.22 0,0 -1.41,0.34 0,0 -2.14,-0.33 -0.62,-2.11 -3.79,0.72 0,0 -0.26,-0.01 0,0 -2.3,-3.03 -1.51,0.62 -0.17,-2.45 -1.36,-1.22 -3.15,-0.06 -1.82,-2.4 -2.22,-0.65 0.2,-2.86 1.79,-2.06 -2.15,-1.64 1.37,-1.26 -0.78,-2.03 7.29,-0.71 2.85,1.66 -0.41,-3.85 3.49,-1.7 0.7,-1.95 0.6,1.7 2.72,-0.77 1.89,1.42 -0.57,-2.24 1.76,-3.95 -0.82,-2.850003 z" 
                fill="rgb(151, 144, 238)" 
                stroke="white" 
                stroke-width=".7px"
                title="Bjelovarsko-bilogorska županija" 
                id="HR-07" 
            />
        </svg>