<svg xmlns="http://www.w3.org/2000/svg" viewBox="370.6124799999997 170.99474 153.0900000000001 51.01999999999998" width="153.0900000000001" height="51.01999999999998">
            <path 
                d="m 382.10248,176.33474 6.94,-5.34 2.76,0.28 1.44,2.14 3.64,1.28 2.06,-0.74 0.49,-2.11 6.25,-0.66 4.23,3.13 1.81,3.04 2.77,0.79 0.32,2.91 1.34,1.64 4.84,2.33 2.62,2.93 3.22,1.2 9.61,0.15 1.37,2.67 -0.38,2.58 1.07,2.24 -1.95,2.55 4.77,1.84 4.03,-0.48 -0.93,-1 1.53,-0.93 0.54,-2.13 3.73,1.09 2,-3.56 2.07,-1.59 -0.79,-1.81 1.17,-0.12 1.62,-3.59 9.34,-0.22 9.24,2.49 0,0 1.11,1.45 2.2,0.76 3.01,-0.33 1.05,1.81 1.29,-0.6 3.05,0.96 1.12,2.22 1.77,0.66 5.25,-0.85 3.19,-2.52 6.33,-0.63 3.15,0.78 1.22,1.68 3.47,1.91 8.15,1.32 3.33,2.44 0,0 -5.47,9.86 1.91,4.05 2.11,0.66 0,0 -0.47,0.99 2.06,1.81 -1.42,1.57 -0.57,2.68 -0.7,-2.38 -2.09,0.4 -3.43,-1.04 -4.98,-6.44 -10.63,0.99 -1.41,-2.03 -2.59,0.16 -0.71,-2.79 -1.92,-0.81 -4.53,2.36 -0.2,1.71 1.2,2.12 -1.84,2.36 -2.19,0.72 -4.35,-1.35 -2.01,0.76 -5.09,-3.97 1.52,-1.86 -1.67,-3.11 -2.24,-0.03 -1.3,2.43 -1.63,-3.53 -1.2,-0.38 -2.26,0.95 -2.18,4.4 -3.3,1.04 0.4,3.92 -4.29,3.42 -4.92,1.98 -2.3,-1.05 -4.25,-4.47 -3.03,-0.6 -8.94,-7.03 -2.05,0.44 -2.68,2.5 -2.69,1.16 -2.26,-1.28 -2.24,0.97 0.23,-2.19 -0.81,-0.88 -1.89,3.05 -1.8,0.05 -1.01,-0.97 -1.97,0.89 -0.49,-0.71 1.36,-1.58 -0.02,-1.68 -1.86,1.28 -2.45,0.02 0.56,-2.75 -0.85,-2.06 -0.94,0.16 -0.65,2.1 -1.69,1.45 -5.6,-0.48 -3.5,-2.09 -0.06,-2.08 -1.79,0.1 -0.12,-1.8 -2.44,0.33 -1.26,-1.83 -3.06,6.32 -6.93,-0.22 -3.29,-2.24 0,0 -3.4,-6.57 -4.39,-3.47 0.85,-2.33 4.16,-1.67 4.41,-5.46 2.04,-0.91 -0.64,-2.49 1.23,-2.2 -1.01,-1.37 z" 
                fill="rgb(151, 144, 238)" 
                stroke="white" 
                stroke-width=".7px"
                title="Brodsko-posavska županija" 
                id="HR-12" 
            />
        </svg>