<svg xmlns="http://www.w3.org/2000/svg" viewBox="324.97248000000013 490.0647399999999 195.14999999999998 108.83999999999946" width="195.14999999999998" height="108.83999999999946">
            <path 
                d="m 468.43248,560.59474 0.98,1.43 -0.57,0.81 -0.6,-1.08 -2.91,-0.87 2.14,-0.27 -0.15,-0.83 1.11,0.81 z m -5.34,-1.19 1.16,1.25 -2.17,-0.45 0.3,0.72 -0.81,0.27 -2.54,-2.13 1.48,0.39 0.96,-1.6 1.62,1.55 z m -16.46,-8.76 3.78,1.55 0,1.42 -3.62,-1.8 -1.62,-1.99 1.46,0.82 z m 2.85,-0.97 2.15,0.1 6.27,4.54 0.67,0.98 -0.99,2.39 -4.9,-3.93 -3.2,-4.08 z m -99.66,-2.12 1.25,-0.67 0.34,0.98 2.21,-0.67 3.04,0.53 0.75,0.59 -0.41,1.84 -3.45,3.54 -1.87,0.53 -0.42,-0.42 -0.35,-1.57 -1.16,0.04 -2.45,0.83 -0.26,1.17 -2.96,-3.54 1.26,0.38 -0.01,-2.88 1.25,-0.59 -0.25,-0.94 1.13,0.27 0.93,-0.31 1.43,0.89 z m 52.08,-4.2 2.7,-0.11 -1.18,1.39 -1.48,-0.07 0.78,0.79 6.35,-0.11 0.9,1.14 15.25,4.79 0.28,1.18 4.47,-0.15 0.75,1.18 1.94,-0.95 0.29,1.52 1.53,-0.5 6.33,2.77 -0.52,0.94 1.02,1.9 -1.51,0.03 -0.61,-0.77 -1.11,-0.77 -1.75,0.37 -5.97,-2.72 -3.97,-0.79 -1.98,0.48 -5.81,-2.02 -2.38,0.11 -5.34,-2.96 -1.51,1.22 -0.64,-1.45 -2.34,-0.01 -0.57,-1.07 -2.14,-0.58 0.11,1.05 -0.16,0.42 -5.95,-2.58 0.34,-1.62 3.88,-2.05 z m -69.89,-26.91 0.09,0.72 2.75,-0.32 1.75,1.58 3.98,0.79 0.43,0.87 7.02,1.28 5.03,-0.82 1.06,-1.16 10.78,-1.07 3.64,-0.3 -0.27,0.97 5.89,1.72 0.82,0.37 2.67,-0.66 0.95,0.87 1.9,3.17 -0.34,0.97 4.44,1.55 -7.38,1.25 -1.32,0.17 -7.52,-2.39 -7.63,-0.44 -8.18,4.41 -3.3,0.48 -1.68,-0.59 1.23,-0.77 -0.69,-0.49 -8.13,0.31 -10.74,-3.53 -0.69,1.9 -2.36,-1.44 0.6,-0.45 -0.67,-1.06 3.1,-0.9 -0.65,-1.42 4.92,-0.55 -0.35,-0.66 -0.43,-0.9 -2.96,-0.03 0.35,-0.83 -2.34,-1.55 -1.01,1.59 -0.52,-1.35 -1.28,-0.2 1.36,-0.9 1.02,0.62 2.33,-1.04 2.33,0.23 z m 32.44,-7.66 2.69,0.72 -0.18,0.56 3.9,1.84 10.12,-0.23 13.7,3.23 6.56,3.03 2.52,2.13 5.69,2.04 0.65,3.33 3,1.13 1.18,1.49 2.31,-0.32 1.76,1.31 -1.38,-2.97 1.08,-0.08 5.94,3.52 2.51,0.56 4.12,3.42 3.22,0.17 0.17,1.15 5.22,3.94 1.31,-0.13 -4.1,-3.29 -0.57,-1.41 -0.9,0.06 -4.03,-2.67 0.95,-1.65 3.36,-3.68 3.54,0.61 6.45,4.28 2.55,-4.03 3.64,3.04 0.22,4.29 1.97,3.98 2.41,0.77 -0.55,3.32 1.99,-0.04 4.06,1.67 2.42,2.44 2.26,0.49 1.28,3.09 3.45,0.76 6.66,4.98 -0.11,3.41 4.28,1.18 1.23,3.27 2.81,-0.35 3.76,4.88 2.12,1.18 1.41,2.65 4.65,-1.47 0.63,-1.36 2.12,-0.59 4.51,0.59 1.76,3.03 5.36,4.24 1.84,8.05 -1.09,1.92 0.2,2.1 7.04,8.04 -0.8,2.5 -5.73,-6.78 -0.91,0.74 -1.43,-0.88 -0.83,-1.51 -6.8,-4.81 -6.76,-3.47 -5.6,-4.81 -1.26,-2.33 -0.07,-1.15 0.77,-2.34 -2.27,-3.14 -0.94,-0.27 -1.91,1.33 -5.63,-3.6 -2.54,0.06 -1.23,-0.53 -2.99,-1.04 -0.23,-1.19 0.33,-0.67 1.66,-0.01 -0.59,-0.66 -2.64,-2.06 -8.16,-4.01 -1.24,-1.99 -5.41,-2.72 -2.68,-2.33 -0.29,-1.45 0.99,-0.06 0.44,-1.98 -2.17,1.6 -2.08,-1.71 -0.33,-2.14 -2.31,0.52 -2.61,-1.1 0.28,0.94 -1.61,1.9 -2.03,-2.39 -6.73,-4.34 0.39,1.14 4.65,3.3 2.33,3.5 -1.03,2.4 -1.22,-1.26 0.77,-1.01 -1.17,-2.61 -0.93,0.73 -2.16,-1.19 -0.68,0.42 -3,-1.55 -0.14,-1.27 -2.03,0.58 -21.67,-7.72 -1.82,-1.07 0.8,-1.24 1.22,-0.06 0.25,-1.11 -3.39,-2.62 -1.9,-0.9 -0.07,0.58 -3.81,-0.04 -2.78,-2.48 -9.44,-4.24 -2.81,-2.82 -3.98,1.13 -4.66,-0.1 -3.82,-1.54 -2.93,0.06 -3.2,-2.57 -2.28,-0.56 0.87,-2.33 1.06,-0.18 -0.51,-0.87 -1.47,0.38 -0.22,-2 -1.25,-0.61 0.7,-0.01 z m 48.48,-16.14 16.81,10.27 2.58,7.13 4.88,9.29 -4.65,1.16 -3.59,2.3 -1.37,-0.34 -0.58,1.25 -7.94,-0.06 -6.7,-6.65 0.94,-2 -1.14,-0.68 -1.11,-2.48 -2.78,1.37 -1.14,-1.79 0.7,-2.65 0.61,-0.87 -1.1,-2.05 -0.25,2.71 -1.24,1.09 -6.26,-7.41 0,0 2.67,-2.99 0.06,-2.88 -3.57,-1.15 -0.16,-2.02 2.17,-1.09 5.26,1.3 3.57,-3.34 0,0 3.33,2.58 z" 
                fill="rgb(151, 144, 238)" 
                stroke="white" 
                stroke-width=".7px"
                title="Dubrovačko-neretvanska županija" 
                id="HR-19" 
            />
        </svg>