<svg xmlns="http://www.w3.org/2000/svg" viewBox="235.74247999999983 86.15473700000004 48.24000000000012 53.01000299999998" width="48.24000000000012" height="53.01000299999998">
            <path 
                d="m 275.80248,86.244737 2.32,4.8 -0.73,2.3 0.9,3.61 2.52,1.16 3.17,7.330003 -3.07,1.59 -0.51,4.91 -5.54,-1.58 0.16,1.06 -1.24,1.25 -3.23,1.12 -1.92,2.73 -5.48,2.83 -1.18,4.11 -2.47,0.45 -0.91,5.94 -3.56,7.57 -2.1,1.74 -3.74,0 0.36,-3.3 -3.72,-3.67 -4.65,-1.54 -4.58,-2.85 -0.86,-3.81 1.61,-3.24 1.49,-0.97 1.02,1.54 2.65,-0.11 1.24,1.75 1.78,-1.38 0.72,-3.01 -5.42,-3.58 2.09,-2.58 -1.78,-6.01 1.74,-3.34 11.64,-7.650003 0,0 10.02,-4.54 3.08,-2.46 3.5,-0.36 0.7,-1.9 z" 
                fill="rgb(151, 144, 238)" 
                stroke="white" 
                stroke-width=".7px"
                title="Grad Zagreb" 
                id="HR-21" 
            />
        </svg>