<svg xmlns="http://www.w3.org/2000/svg" viewBox="0.3024840000000406 152.29473999999993 75.99999999999996 109.88" width="75.99999999999996" height="109.88">
            <path 
                d="m 26.992484,239.18474 0.93,0.93 0.85,-0.31 0.99,0.42 -0.28,1.2 0.95,0.48 -1.73,0.83 -0.06,-0.77 -0.78,0.1 -0.5,2.75 -0.67,-2.58 0.85,-1.72 -2.04,-1.09 1.49,-0.24 z m 27.74,-85.75 5.25,4.02 4.8,0.44 0,0 0.6,2.41 -0.58,1.93 1.73,3.04 7.91,5.03 -1.89,1.78 -0.08,1.57 1.65,1.82 1.52,6.6 -1.41,0.59 -0.7,1.83 -0.65,6.58 1.6,6.59 -0.72,6.92 2.54,1.67 0,0 -0.19,2.22 -1.8,2.98 -0.93,1.39 -2.1,3.71 -1.28,1.3 -1.21,-0.99 -0.73,1.71 1.29,1.31 0.37,2.58 -0.24,1.2 -0.52,0.73 1.31,2.54 0.42,3.56 -2.38,4.16 -1.27,-1.52 -1.4,0.93 -0.55,-1.21 -1.08,-0.07 -4.37,3.72 0.85,-3.64 2.21,-0.94 -1.45,-1.38 -0.34,-2.74 -1.08,0.7 -1.32,-0.57 0.52,-2.12 -1.41,-3.52 -0.67,1.77 0.79,2.32 -0.93,2.09 3.19,0.83 0.77,2.32 -1.23,0.03 0.09,1.53 -1.29,0.64 -0.03,2.25 -2.08,-0.9 1.85,2.33 -1.2,2.99 -0.91,0.61 -0.23,1.19 -2.28,1.78 -2.55,-1.4 0.01,1.4 2.4,1.22 -1.28,0.83 1,2.24 -2.13,1.57 -0.19,1.8 1.02,1.72 0.26,1.14 1.19,2.52 -5.57,0.01 -1.47,-2.06 -1.24,0.2 0.17,-1.21 -1.55,-0.83 -1.04,0.86 0.21,0.96 1.29,0.48 1.12,1.63 -1.07,1.56 0.69,1.83 0.03,0.54 -0.32,0.77 -1.2,0.32 -0.33,-5.87 -2.48,-0.1 -1.78,-0.49 -0.64,-0.33 -0.85,-1.21 1.64,-0.65 -0.33,-0.71 -1.61,0.26 -0.13,-1.6 -1.11,1.32 -0.52,-0.58 0.93,-1.92 -2.38,-0.61 -1.67,-1.25 -0.09,-1.86 2.16,1.67 2.02,0 0.53,-0.63 0.38,-0.58 0.29,-1.66 -1.33,-0.19 -0.44,0.98 -1.32,0.18 -1.38,-0.99 -0.97,-0.92 1.43,-1.35 0.51,-2.13 -1.03,-0.23 -0.15,-1.94 -4.07,-8.18 -2.9,0 -1.6,-3.21 -0.96,-0.19 0.21,-1.98 -2.34,-0.16 0.07,-2.25 -1.03,-0.66 0.85,-1.05 -3.79,-2.32 -2.3,0.51 -0.45,-0.96 1.2,-0.22 -0.77,-1.8 0.96,-0.44 0.13,-1.52 -0.94,-0.42 -1.81,-0.8 -0.82,-1.43 -0.98,-3.8 0.23,-1.07 0,-0.66 1.24,-0.83 -2.3,-2.53 1.63,-0.57 -2.48,-2.71 0.75,-0.88 0,-0.73 0.86,-1.92 0.18,-0.92 0.3,-2.14 -0.58,-1.63 -1.94,-0.22 -0.31,-1.25 0.99,-1.88 2.24,0.06 -0.32,-1.25 -1.5,0.09 -1.9,-2.07 2.28,0.19 0.01,-1.16 2.43,-1.29 -1.91,-0.28 -0.53,0.09 -3.23,0.06 -0.49,-0.29 0.89,-0.79 -2.47,-1 -0.13,-3.26 1.74,-0.94 -1.3,-0.4 0.14,-1.75 -0.09,-0.78 -0.99,-1.07 0.27,-2.32 -2.07,-2.12 0.82,-3.16 -1.41,-0.57 0.67,-1.82 -0.84,-0.57 0.11,-2.23 -1.94,-2.43 1.3,-2.22 2.42,0.54 8.19,5.21 4.27,1.09 2.87,2.25 4.88,-2.29 1.21,-1.63 1.7,-0.22 4.65,1.9 0.08,2.32 1.19,1.35 2.81,-0.04 1.28,1.28 2.51,0 3.32,-4 4.28,-0.73 2.16,1.31 1.59,-1.31 0.42,-3.99 -3.17,-3.03 0.73,-1.31 3.21,0.65 -0.13,-1.34 0.89,-0.4 1.77,1.14 z" 
                fill="rgb(151, 144, 238)" 
                stroke="white" 
                stroke-width=".7px"
                title="Istarska županija" 
                id="HR-18" 
            />
        </svg>