<svg xmlns="http://www.w3.org/2000/svg" viewBox="152.5324799999999 114.97474 100.16000000000005 131.07999999999998" width="100.16000000000005" height="131.07999999999998">
            <path 
                d="m 192.22248,114.97474 0.09,2.78 -1.2,1.14 0.09,1.2 2.27,0.31 3.86,2.53 1.63,3.88 3.39,0.39 1.62,2.33 0.2,2.33 1.37,0.11 4.23,3.07 0.55,1.84 -1.11,2.9 0.95,0.93 2.1,-0.88 -1.33,3.1 0.86,1.54 8.5,-7.07 5.35,3.34 3.29,-0.22 2.96,2.02 2.07,-1.74 0.47,3.39 -0.92,1.93 2.87,3.82 1.29,-0.19 0.91,2.4 2,-0.52 2.72,-3.44 3,0.28 0.24,2.44 3.27,-0.18 1.95,2.35 0.31,2.26 -0.86,1.91 1.48,1.84 0,0 0,0 0,0 -0.83,0.91 -3.45,-3.09 -2.61,0.35 -1.33,1.27 -1.93,2.3 1.88,0.93 -1.66,4.13 1.18,6.46 -1.16,1.31 -4.44,1.76 -0.56,2.39 4.15,8.31 -2.11,1.47 -1.12,3.87 1.54,2.47 3.02,1.65 0,0 -1.38,2.6 -1.87,-0.34 -0.53,1.54 -2.45,1.58 -1.93,3.24 2.16,7.76 -3.77,7.34 4.01,8.56 0.18,4.67 -3.47,0.64 -0.01,2.66 -1.45,3.1 0,0 -2.8,2.24 -2.07,-0.49 -3.24,-3.09 -5.24,2.13 -1.35,-1.01 -1,-2.65 -2.12,-1.09 -1.93,3.51 -1.86,1.5 0.76,2.08 2.9,2.52 -0.72,1.47 -2.04,-2.63 -0.97,0.32 -1.13,-2.81 -5.56,-0.51 -2.27,-1.14 -7.94,-11.71 -1.95,-1.02 -1.55,0.41 -3.02,-1.71 -1.55,-2.83 -5.26,-2.86 -2.96,-3.13 -1.28,-3.5 -3.65,1.31 -2.35,3.48 -4.85,-1.59 -0.31,-1.39 -2.16,-1.99 -5.82,-2.4 0,0 -4.23,-6.3 1.73,-5.26 -0.89,-3.25 0.83,-0.88 0.1,-2.95 -2.47,-2.97 2.04,-1.37 -0.08,-2.23 1.13,-2.13 2.52,-1.04 1.99,3.04 4.57,0.39 0.35,2.01 1.75,0.51 2.31,-3.22 3.06,-0.12 2.58,-1.36 0.43,-1.51 -0.87,-1.12 5.63,-9.84 -0.36,-2.19 0.91,-1.08 -0.98,-1.43 0,0 2.13,-3.9 2.99,-1.85 6.04,1.9 1.64,-0.56 1.32,-2.8 2.84,-1.75 -5.71,-3.6 -1.83,-1.93 0.09,-1.09 -1.35,-0.6 -0.28,-6.9 -2.24,-3.05 3.14,-1.4 -0.51,-2.61 5.04,-0.89 -0.41,-1.47 2.55,0.08 1.64,1.21 2.09,-1.58 -1.05,-0.6 -2.86,-5.7 -0.85,1.96 -1.24,0.67 0.17,-1.92 0.98,-0.27 0.28,-1.22 -0.59,-2.84 -1.88,0.05 -2.01,2.57 0.21,3.33 -1.51,-2.2 0.34,-1.41 -1.01,0.04 -0.29,1.54 -1.55,-3.33 -1.17,0.4 -0.66,-1.48 -1.59,0.21 -1.16,-0.86 2.4,-0.85 3.79,-3.95 z" 
                fill="rgb(151, 144, 238)" 
                stroke="white" 
                stroke-width=".7px"
                title="Karlovačka županija" 
                id="HR-04" 
            />
        </svg>