<svg xmlns="http://www.w3.org/2000/svg" viewBox="294.5324800000003 28.70473699999994 100.41999999999985 70.80000000000004" width="100.41999999999985" height="70.80000000000004">
            <path 
                d="m 348.98248,29.794737 1.7,1.72 -0.33,3.63 0.99,1.79 -0.01,3.38 4.33,2.43 2.66,2.88 2.04,-0.37 0.36,2.73 3.67,0.56 5.6,2.9 1.96,2.29 0.75,-0.76 1.24,0.48 0.95,1.77 1.02,-0.34 0.43,1.41 1.25,-0.68 2.21,0.48 -0.03,1.68 2.37,1.16 -0.56,6.34 3.69,-0.83 0.62,0.91 -0.92,1.32 2.31,-0.03 -1.39,2.56 1.74,0.46 0.55,1.93 -0.95,0.87 4.05,0.52 -1.36,1.56 -0.37,2.41 1.73,-0.48 2.55,0.97 -3.83,1.91 2.44,1.87 2.51,-0.14 -1.23,1.61 0.21,1.03 0,0 -3.74,0.89 -4.81,-0.62 -2.02,4.23 -6.46,8.3 -0.84,2.98 0,0 -1.64,0 -1.66,-2.93 -2.57,-0.86 -1.67,-4.63 -2.66,1.1 -2.39,-0.88 -1.7,0.6 0.96,-3.76 -0.77,-1.84 -2.57,-1.73 -2.27,-0.95 -5.07,0.4 3.24,-5.44 -2.26,-0.01 -0.51,-1.92 -1.48,-1.16 0.28,-1.58 -1.5,-0.89 0.39,-2.44 -2.72,-0.68 -1.25,-1.74 -0.9,0.45 0.77,3.54 -1.13,2.11 -4.62,1.66 0.75,-1.87 -1.39,-0.66 -5.55,3.38 -0.06,2.69 -1.63,2.66 -0.59,11.41 0,0 -3.84,-0.91 -0.7,1.06 -2.45,0.53 -2.28,-1.44 -1.45,1.07 -5.52,-5.73 -3,0.39 -0.84,-1.4 -3.52,2.08 -0.49,-4.38 -2.21,-1.05 -0.38,-2.04 -1.56,-1.18 -2.2,0.74 -2.81,-2.62 -1.39,-0.35 -0.6,0.98 -2.12,-1.93 0,0 0.34,-3.23 1.77,-2.26 0.81,-4.27 1.22,-1.02 0.12,-3.16 4.9,-3.44 0.75,-2.17 11.72,-0.66 -0.59,-2.36 7.12,-3.84 2.95,1.35 4.92,-0.38 8.05,-8.44 1.05,-3.44 -0.62,-3.32 0,0 0.12,-0.81 0.55,0.84 1.13,-0.96 0.55,1.39 1.47,-1.91 0.52,3.78 2.41,-0.36 0.69,-3.75 1.47,-1.79 0.29,-4.44 0,0 z" 
                fill="rgb(151, 144, 238)" 
                stroke="white" 
                stroke-width=".7px"
                title="Koprivni훾ko-kri탑eva훾ka 탑upanija" 
                id="HR-06" 
            />
        </svg>