<svg xmlns="http://www.w3.org/2000/svg" viewBox="218.28247999999996 40.644737 67.94 54.77" width="67.94" height="54.77">
            <path 
                d="m 245.77248,40.644737 1.09,1.58 0.39,4.68 4.71,1.57 1.24,1.1 0.31,1.79 4.19,0.96 0,0 1.32,1.23 3,0.06 0,0 6.82,-1.47 2.12,0.22 0.84,2.03 3.32,0.13 2.03,-2.99 3.42,-1.27 0.87,1.03 -1.33,1.5 5.5,0.57 -1.72,2.35 2.24,2.88 -1.24,8.8 1.33,3.85 0,0 -3.68,2.64 -2.23,-0.22 1.9,4.65 -3.46,0.58 0.5,1.82 -3.32,2.45 -0.64,1.87 0.51,1.21 0,0 -3.98,-0.09 -0.7,1.9 -3.5,0.36 -3.08,2.46 -10.02,4.54 0,0 -0.32,-3.32 -4.35,-4.08 -8.89,-4.42 -3.45,0.04 -1.37,3.28 -0.83,-1.23 -3.96,0.8 -1.61,-0.74 0,0 -0.7,-4.47 1.11,-0.56 0.08,-1.45 0.48,-0.86 -0.15,-2.24 1.63,-1.37 -1.75,-2.24 -4.51,-2.22 -1.24,0.57 -0.12,-1.54 -1.1,-0.95 -1.58,0.51 -1.1,-0.73 0.25,-1.28 -1.08,-0.4 -0.91,-2.29 0.74,-3.14 -1.51,-1.36 1.78,-1.03 -1.01,-1.59 4.22,-3.67 0.27,-2.47 -0.7,-0.57 0.79,-1.4 3.22,-1.58 4.86,0.75 0.19,0.97 2.21,-0.78 -0.02,1.61 1.7,0.19 2.05,-1.08 1.48,-3.28 -0.85,-2.62 3.27,-0.4 0.86,-1.16 1.78,0.12 z" 
                fill="rgb(151, 144, 238)" 
                stroke="white" 
                stroke-width=".7px"
                title="Krapinsko-zagorska županija" 
                id="HR-02" 
            />
        </svg>