<svg xmlns="http://www.w3.org/2000/svg" viewBox="128.69248000000005 210.35474 146.07 124.73000000000008" width="146.07" height="124.73000000000008">
            <path 
                d="m 145.63248,307.55474 7.69,7.74 -2.94,-1.05 -4.62,-4.22 -1.41,-2.15 1.28,-0.32 z m -2.29,-1.62 -2.58,-2.85 1.85,0.97 0.73,1.88 z m -7.4,-25.72 8.78,10.61 -1.57,-5 3.96,-0.85 0.73,0.96 -0.9,0.42 1.24,0.02 2.68,3.3 1.25,0.2 2.76,6.33 4.66,1.17 1.5,1.75 0.8,-0.17 0.64,2.88 2.11,2.75 -3.2,-1.65 0.13,-1.34 -2.83,-0.77 -0.93,0.88 -0.77,-2.34 -4.01,-1.56 -1.45,-1.97 -3.67,-1.53 -0.02,1.42 1.87,0.48 11.18,13.3 0.94,-1.34 -1.07,-4.11 5.79,4.94 1.64,0.41 2.55,4.48 3.8,1.99 1.05,2.97 1.6,-0.16 4.74,4.13 1.22,2.64 -0.27,1.25 -8.94,-6.3 6.71,6.71 -2.43,0.07 1.18,2.26 -0.99,-1.11 -8.03,-3.07 -0.01,1.38 4.66,4.27 -0.31,0.58 -6.81,-4.09 -1.95,-2.96 1.28,-0.39 0.05,-1.12 -1.89,-1.82 0.89,-1.46 1.77,0.06 0.25,-1.07 -3.55,-2.87 -1.56,-0.06 0.03,1.44 -2.75,-0.59 -0.3,-2.4 -4.42,-5.39 -3.01,-2.51 -1.06,0.33 0.21,-1.23 -0.26,1.01 -1.47,-0.11 -3.23,-2.75 -0.8,-1.75 2.19,-0.51 -0.53,-2.07 -4.65,-4.82 0.34,-0.88 0.99,0.22 -0.24,-0.81 -2.07,-0.98 0.5,-0.48 -0.84,-1.23 -2.35,-1.4 -0.28,-1.48 -4.61,-4.78 -5.71,-8.74 -0.18,-2.1 7.25,8.51 z m 21.52,-69.86 5.83,2.4 2.15,1.99 0.31,1.39 4.85,1.59 2.35,-3.48 3.65,-1.31 1.27,3.51 2.96,3.13 5.26,2.86 1.55,2.83 3.02,1.71 1.55,-0.41 1.95,1.02 7.94,11.71 2.27,1.14 5.57,0.51 1.13,2.81 0.97,-0.32 2.04,2.64 0.71,-1.47 -2.9,-2.52 -0.76,-2.08 1.85,-1.5 1.94,-3.51 2.12,1.09 0.99,2.65 1.36,1 5.24,-2.13 3.24,3.09 2.07,0.5 2.8,-2.24 0,0 1.24,8.52 3.48,3.44 -2.95,2.53 -3.56,0.1 -0.67,1.66 3.23,3.87 3.18,6.16 3.06,1.57 1.09,2.24 3.54,-0.54 0.86,-1.6 1,0.33 1.84,-1.84 1.11,-0.01 2.56,3.59 3.57,1.51 0.07,2.03 1.93,3.63 3.65,2.41 2.08,0.36 1.12,3.29 1.5,1.35 -0.05,1.55 -1.95,0.23 0.27,2.67 -2.67,-0.07 -0.52,0.85 2.24,4.58 8.2,4.86 1.63,0.09 1.94,5.11 -1.27,4.13 0.62,0.33 0,0 -2.22,1.58 -2.38,0.07 0,0 -1.4,-1.47 -1.96,-0.28 -0.28,4.55 -1.96,-1.89 0,0 0.21,-3.01 0,0 -3.29,-4.2 -2.87,-1.26 -3.57,-0.28 0,0 -2.1,1.47 0,0 -3.29,3.29 -2.17,0 -0.63,2.17 -8.05,3.78 -1.05,2.03 -2.59,1.12 3.36,0.91 0.98,1.82 -2.59,3.08 0,0 0.98,1.96 0,0 3.5,-0.07 1.19,1.96 -0.42,6.09 -1.33,2.24 -1.89,1.26 -8.82,0.28 -3.5,-0.91 -2.31,-1.82 -5.25,0.07 -3.01,-1.47 -2.45,-5.11 -4.21,-3.21 0,0 -10.85,-4.21 0,0 -3.49,-2.05 0,0 -0.2,-0.1 0,0 -4.33,-2.43 0,0 -3.64,7.23 0,0 -1.17,-0.37 -9.6,-11.84 -1.04,-0.06 -1.68,-2.33 -2.4,-1.3 -3.63,-5.97 -3.21,-2.18 -0.19,0.68 -0.07,-1.45 -3.97,-3.91 -1.22,0.16 -1.15,-1.59 -1.61,-0.49 0.24,-0.81 -0.39,0.45 -2.15,-4.1 -0.56,-3.74 -3.39,-3.26 -0.14,-2.49 -3.19,-3.83 -0.59,-4.85 0.78,-2 -1.88,-7.03 0.21,-7.58 0.25,-2.3 0.92,-2.84 1.37,-4.09 2.07,-6.37 -0.9,-3.18 -2.28,-1.79 0.23,-1.72 -1.75,-5.12 0,0 1.27,-1.14 -0.3,-2.03 2.36,-0.36 0.11,-1.34 2.06,-1.5 0.94,2.45 2.81,-1.04 3.52,0.32 2.1,-3.39 -1.55,-5.39 z" 
                fill="rgb(151, 144, 238)" 
                stroke="white" 
                stroke-width=".7px"
                title="Ličko-senjska županija" 
                id="HR-09" 
            />
        </svg>