<svg xmlns="http://www.w3.org/2000/svg" viewBox="285.73248 0.4047366999999902 62.51000000000016 38.64000030000001" width="62.51000000000016" height="38.64000030000001">
            <path 
                d="m 301.69248,2.2847368 2.62,0.03 0.92,1.9599999 2.1,-0.49 0.67,1.33 2.79,0.51 -0.02,1.2 3.05,1.2900001 -0.51,1.17 0.78,0.57 1.25,-0.6 4.55,2.6000002 4.53,-0.39 0.55,1.1 2.69,-0.18 1.13,0.93 0.6,1.16 4.77,8.31 1.74,-1.08 0.5,1.87 2.1,1.18 1.86,0.08 0.87,-1.06 1.23,0.07 2.82,2.78 1.05,0.27 1.91,1.81 0,0 -0.29,4.44 -1.47,1.79 -0.69,3.75 -2.41,0.36 -0.52,-3.78 -1.47,1.91 -0.55,-1.39 -1.13,0.96 -0.55,-0.84 -0.12,0.81 0,0 -0.38,0.09 0,0 -1.06,-0.09 0,0 -2.56,-0.75 0.57,-2.83 -3.46,2.59 -2.17,-2.03 -1.55,1.35 -2.02,-1.17 -2.11,2.18 -2.28,-0.28 -4.54,-3.47 -1.88,2.57 -2.95,-0.16 -0.18,1.06 -2.7,-1.27 -3.12,0.06 -0.66,-1.87 -1.61,1.9 -0.94,-0.63 -1.18,0.73 -1.22,-1.39 -3.79,-0.02 -3.21,-5.31 -4.19,-2.2 0,0 1.79,-3.81 -3.79,-4.67 -2.12,-9.2300003 1.85,-3.49 2.92,0.01 3.21,-2.33 1.21,0.53 0.56,-1.88 1.28,0.58 0.78,-0.78 1.04,1.71 1.96,-2.01 z" 
                fill="rgb(151, 144, 238)" 
                stroke="white" 
                stroke-width=".7px"
                title="Međimurska županija" 
                id="HR-20" 
            />
        </svg>