<svg xmlns="http://www.w3.org/2000/svg" viewBox="454.5724799999999 94.334737 126.26999999999998 106.06000300000001" width="126.26999999999998" height="106.06000300000001">
            <path 
                d="m 540.25248,94.334737 8.82,5.17 1.49,-0.2 0.45,-4.41 1.16,0.92 0.75,4.540003 2.79,2.19 -0.62,8.13 3.56,3.99 2.4,10.19 2.1,2.32 3.86,1.98 -2.86,7.86 -2.74,0.15 -0.94,0.97 1.18,2.19 -2.28,3.64 0.29,1.75 4.23,3.96 2.04,0.48 3.44,-1.08 0.92,-2.14 2.35,-0.11 1.23,3.25 3.44,0.52 3.53,2.54 -0.27,2.18 -1.61,1.86 -4.09,0.37 -3.22,-1.61 -1.39,0.26 -1.11,5.98 0.99,1.93 0,0 -0.9,0.66 -4.22,-0.17 -3.51,-4.79 -3.38,-2.12 -2.84,-0.03 -0.52,1.34 -3.87,0.35 -1.64,1.14 2.01,6.41 -1.99,0.15 -0.11,1.94 -2.65,0.57 -0.75,-1.49 -1.23,-0.32 -4.37,0.79 -2.35,2.18 -4.1,0.62 -0.02,5.19 -2.72,1.52 0.7,4.02 -4.13,0.31 -1.75,2.75 -2.9,-0.51 -2.86,1.74 -0.01,6.57 4.37,2.62 2.08,-0.2 -0.81,4.36 -2.11,0.69 0,0 -3.33,-2.44 -8.15,-1.32 -3.47,-1.91 -1.22,-1.68 -3.15,-0.78 -6.33,0.63 -3.19,2.52 -5.25,0.85 -1.77,-0.66 -1.12,-2.22 -3.05,-0.96 -1.29,0.6 -1.05,-1.81 -3.01,0.33 -2.2,-0.76 -1.11,-1.45 0,0 4.31,-4.78 -1.7,-4.97 -2.31,-1.72 2.41,-1.78 0.39,-2.95 -0.77,-1.45 -1.53,-1.45 -2.47,-0.68 -2.56,1.03 -2.05,-0.77 -1.02,-1.96 -2.9,-0.68 -1.36,-1.71 -2.3,-0.77 -0.68,-1.7 -4.61,-0.77 -0.94,-0.76 -0.21,-3.83 0,0 0.57,0.23 0,0 5.14,-2.44 1.93,-2.39 1.43,-4.14 2.86,-1.25 -0.3,-2.87 4.5,-5.86 1.19,-3.21 -1.95,-0.31 -3.01,-11.75 -6.68,-2.44 -2.22,-5.77 0.02,-2.56 0,0 5.9,-0.03 2.69,-1.02 2.83,2.43 5.89,1.91 2.23,-0.57 1.94,-3.01 2.89,0.2 1.92,1.71 1.83,-1.68 4.47,1.28 1.47,2.51 3.44,0.99 2.04,-0.8 3.82,1.1 0.4,0.97 2.04,-3.07 0.71,-0.85 3.15,2.13 0.28,2.03 0.98,0.68 4.2,0.49 -0.14,-3.61 1.08,-1.11 2.6,0.49 0.96,-4.19 3.15,1.64 1.3,-1.52 1.96,-0.01 0.56,-1.42 1.63,0.39 -0.01,-2.1 2.03,-0.83 0.83,-2 2.22,-0.81 0.07,-2.16 0.78,-3.250003 0.8,1.290003 1.56,-1.180003 -1.27,-1.88 2.18,-1.26 0.89,-2.15 z" 
                fill="rgb(151, 144, 238)" 
                stroke="white" 
                stroke-width=".7px"
                title="Osječko-baranjska županija" 
                id="HR-14" 
            />
        </svg>