<svg xmlns="http://www.w3.org/2000/svg" viewBox="356.4324799999999 143.16474 122.75000000000006 58.02000000000001" width="122.75000000000006" height="58.02000000000001">
            <path 
                d="m 454.57248,157.63474 0.21,3.83 0.94,0.76 4.61,0.77 0.68,1.7 2.3,0.77 1.36,1.71 2.9,0.68 1.02,1.96 2.05,0.77 2.56,-1.03 2.47,0.68 1.53,1.45 0.77,1.45 -0.39,2.95 -2.41,1.78 2.31,1.72 1.7,4.97 -4.31,4.78 0,0 -9.24,-2.49 -9.34,0.22 -1.62,3.59 -1.17,0.12 0.79,1.81 -2.07,1.59 -2,3.56 -3.73,-1.09 -0.54,2.13 -1.53,0.93 0.93,1 -4.03,0.48 -4.77,-1.84 1.95,-2.55 -1.07,-2.24 0.38,-2.58 -1.37,-2.67 -9.61,-0.15 -3.22,-1.2 -2.62,-2.93 -4.84,-2.33 -1.34,-1.64 -0.32,-2.91 -2.77,-0.79 -1.81,-3.04 -4.23,-3.13 -6.25,0.66 -0.49,2.11 -2.06,0.74 -3.64,-1.28 -1.44,-2.14 -2.76,-0.28 -6.94,5.34 0,0 -4.42,0.72 -0.52,-2.45 -1.66,-1.69 -6.65,-3.02 0.57,-3.02 1.37,-0.86 -0.72,-2.27 -1.41,-0.26 0.27,2.16 -1.62,0.22 0.16,1.47 -0.81,0.06 -1.38,-4.24 -2.04,-1.66 -4.1,0.05 -2.23,-3.73 0,0 -0.48,-4.87 3.03,-5.14 -0.19,3.01 0.88,1.21 1.94,-0.03 3.31,1.66 1.7,-0.35 0.48,-1.26 1.58,-0.63 2.74,2.39 4.21,-2.74 4.11,1.18 1.11,-0.87 0.01,-1.61 1.14,-0.12 4.42,3.76 6.11,0.18 1.05,-1.31 6.49,-0.8 0.42,1.41 4.78,0.81 3.1,-2.62 0.11,-3.34 1.23,-2.39 -0.91,-1.38 0,0 1.52,-0.8 0.82,1.81 3.3,1.55 1.3,-2.46 1.97,-0.03 4.03,3.74 2.51,0.28 1.96,3.51 1.85,1.49 5.61,0.2 2.83,1.75 7.02,0.58 2.25,1.9 -1.43,1.38 5.07,-0.18 2.92,-1.71 1.75,0.65 0,0 z" 
                fill="rgb(151, 144, 238)" 
                stroke="white" 
                stroke-width=".7px"
                title="Požeško-slavonska županija" 
                id="HR-11" 
            />
        </svg>