<svg xmlns="http://www.w3.org/2000/svg" viewBox="64.80248399999991 129.85474000000008 115.66999600000003 179.73999999999992" width="115.66999600000003" height="179.73999999999992">
            <path 
                d="m 109.88248,306.90474 1.99,0.68 1.19,2.01 -2.23,-0.87 -0.29,0.82 -1.59,-0.25 -1.08,-1.73 1.37,-1.5 0.64,0.84 z m -22.929996,-7.37 -2.41,2.01 -1.98,-3.28 2.48,0.59 1.91,0.68 z m -5.25,-25.19 0.86,1.28 -0.12,2.12 -0.78,0.71 -1.96,-1.54 0.84,3.97 1.43,3.78 -0.1,1.29 -2.56,-2.1 -1.9,-0.07 -0.36,-1.22 1.63,-0.88 -0.89,-3.73 2.48,-3.35 1.57,-0.86 -0.14,0.6 z m 6.54,-3.82 0.76,-0.14 1.13,2.03 0.88,-0.45 1.01,0.04 1.62,1.32 0.85,4.76 -0.34,5.94 5.01,8.98 2.829996,2.77 0.83,-0.19 0.24,1.66 3.06,0.9 1.05,2.72 1.53,0.8 0.47,1.17 -1.32,1.78 -1.25,0.12 -1.9,-2.04 -0.96,-1.3 0.21,-0.97 -4.259996,-2.68 0.949996,-0.93 -1.319996,0.04 -0.6,-2.46 2.829996,1.97 -3.689996,-4.72 -0.8,-0.35 0.01,1.03 -1.4,-1.95 -0.6,0.09 0.3,2.06 -1.01,-0.13 -0.39,0.91 -2.61,-1.03 0.82,-2.07 -0.41,-1.87 0.73,-0.84 0.51,0.68 0.83,-1.98 -1.75,-3.9 -2.62,-2.12 -1.58,-7.05 0.35,-2.6 z m 51.759996,3.67 -7.74,-8.16 5.95,4.88 1.79,3.28 z m -17.27,-16.19 3.35,1.69 5.06,5.17 -2.14,-1.41 -2.42,0.33 -1.59,-0.03 -1.8,-1.16 -0.94,-2.28 -1.5,-1 1.07,-1.8 0.91,0.49 z m 16.57,-7.93 0.42,1.76 -1.11,0.1 -0.05,1.95 -1.01,-1.85 -1.3,-0.17 -0.45,-1.73 3.5,-0.06 z m -11.17,0.12 2.52,-0.16 0.13,1.44 1.11,0.04 -0.61,2.17 -1.75,1.28 9.21,8.88 3.23,5.81 0.44,-0.78 0.39,2.44 -0.9,-0.46 -0.91,1.32 -1.39,-0.19 -5.95,-6.93 -1.42,-0.23 0.09,-0.83 -6,-3.92 -1.06,-3.66 2.93,0.95 -5.03,-6.11 2.41,-0.01 2.23,1.44 -0.55,-1.31 0.88,-1.18 z m 3.89,-3.61 1.99,2.63 -3.47,-0.19 -1.56,-2.23 1.11,-0.12 -0.13,-1.48 2.06,1.39 z m 1.5,-8.33 3.99,2.58 2.08,4.63 -7.02,-4.24 -0.33,-3.13 1.28,0.16 z m -25.41,-6.9 2.13,3.54 -1.84,0.16 -5.29,-3.91 2.56,0.22 1.34,-1.18 1.1,1.17 z m -21.429996,-27.95 3.26,1.36 1.39,2.53 -0.89,0.45 -0.92,3.99 4.77,15.1 3.52,4.65 3.739996,-0.42 1.73,4 -1.75,0.95 -0.9,-0.57 -0.12,7.02 -1.399996,4.09 2.339996,12.5 -1.719996,-0.8 -0.49,1.35 2.339996,2.96 0.92,3.02 -1.62,2.63 1.48,4.79 2.37,2.64 1.3,1.9 -0.96,3.5 1.44,-0.65 0.38,1.71 1.35,-0.42 1.17,0.44 -1.67,0.32 -0.17,1.65 -1.22,1.17 -0.92,0.02 -0.88,1.07 -2.87,-2.36 -1.3,-0.83 0.05,-1.46 -1.199996,-0.49 -0.94,-2.67 -1.91,-2.23 -0.4,-0.51 -2.55,-2.71 0.85,-2.41 -0.94,-3.88 0.76,0.06 -0.02,-1.07 -1.41,-1 -0.26,0.86 -1.15,-1.48 0.07,-3.36 -0.92,-1.37 0.47,-2.19 -1.39,-2.22 -0.8,1.06 -0.98,-0.54 -0.29,-5.77 -1.44,-2.93 0.14,-1.72 -1.15,-3.33 -0.55,-0.57 -0.29,-3.45 1.39,-2.32 4.91,7.13 0.83,-0.77 2.08,0.98 1.19,-1.46 -0.96,-3.9 -0.87,-0.54 0.79,-1.92 2.56,1.37 -0.78,-1.89 -1.76,-0.07 -1.45,-4.46 -2.79,-1.74 0.95,-3.57 -1.21,-3.79 -4.47,-2.48 -1.5,-4.35 -1.5,-0.7 -0.47,-2.41 1.92,-2.09 1.07,-4.1 0.9,-1.3 1.67,-0.51 0.05,0.51 z m 24.619996,-10.3 1.35,1.17 0.04,-1.13 1.46,0.5 1.07,1.9 -1.99,-0.38 5.12,9.12 -2.63,-0.76 -1.02,2.88 0.86,0.28 3.21,-1.8 3.21,2.06 1.22,2.03 -1.33,1.84 0.26,2.32 -0.69,1.94 1.1,2.03 3.04,1.88 1.53,-0.93 0.99,1.21 0.75,0.75 1.16,0.61 -0.25,2.61 7.98,8.22 -0.06,1.21 -0.79,0.12 -0.43,1.02 -5.6,-0.89 -0.58,1.49 1.46,1.82 -0.28,1.03 -2.61,0.63 -4.71,-2.06 -1.18,-2.27 -2.62,0.15 -3.35,-2.04 -0.38,-0.93 1.24,-0.71 -0.33,-7.32 -1.78,1.81 1.2,0.76 0.07,1.23 -4.26,-1.85 -1.78,2 -3.73,-0.41 -1.78,-1.3 -0.97,0.37 -1,-0.63 -5.519996,-6.1 -0.06,-3.51 3.559996,-0.94 -0.42,-2.82 1.07,-1.49 3.02,1.78 2.29,-1.2 0.27,-2.88 -0.73,-0.96 1.09,-0.07 1.36,-2.37 -1.14,-2.21 -0.01,-2.55 1.26,-0.2 0.48,-0.94 -0.02,-2.5 -1.49,-1.68 1.37,0.03 0.4,-1.41 1.03,0.44 z m 1.36,-62.91 0.83,0.53 1.5,-0.65 1.58,1.06 -1.89,5.36 3.08,1.96 2.73,3.23 2.82,0.4 1.36,1.78 0.71,2.06 -1.15,1.31 -0.43,2.84 0.7,1.19 0.87,-0.09 0.35,-1.18 1.57,0.12 4.06,3.33 4.04,1.34 2.07,6.24 9.4,-2.49 0.57,-6.14 1.88,-1.52 5.29,4.51 3.08,0.35 1.52,1.62 2.91,-1.24 3.21,1.65 0.1,2.43 5.32,3.43 2.13,2.73 2.37,0.24 1.26,-1.93 1.12,1.43 1.88,-0.04 0,0 0.97,1.43 -0.91,1.09 0.36,2.19 -5.63,9.84 0.87,1.12 -0.42,1.51 -2.58,1.36 -3.06,0.12 -2.31,3.23 -1.75,-0.51 -0.35,-2.01 -4.57,-0.4 -1.99,-3.04 -2.51,1.04 -1.14,2.13 0.08,2.23 -2.04,1.38 2.47,2.96 -0.1,2.96 -0.83,0.88 0.89,3.25 -1.73,5.25 4.22,6.3 0,0 1.51,5.36 -2.1,3.39 -3.52,-0.32 -2.8,1.04 -0.94,-2.45 -2.06,1.5 -0.11,1.34 -2.36,0.37 0.3,2.03 -1.27,1.14 0,0 -3.94,-9.27 0.52,-2.91 -1.47,1.14 0.04,-1.12 -2.08,0.18 -10.46,-5.22 -0.23,-1.55 -5.93,-6.02 -4.37,-2.39 0.42,-1.17 -1.43,-1.64 -2.95,-1.61 0.22,-1.11 -0.79,-2.24 -0.43,-1.51 1.71,0.16 -1.1,-1.67 -3.38,-2.19 2.33,3.39 -0.71,0.94 -1.04,-0.16 -4.66,-2.51 -2.19,-2.21 0.5,-0.75 -0.77,0.63 -1.58,-1.41 -10.179996,-3.18 -3.25,-1.98 -4.81,7.43 -3.93,13.86 0.13,3.38 -1.98,5.24 0,0 -2.54,-1.67 0.73,-6.92 -1.6,-6.59 0.65,-6.58 0.7,-1.83 1.41,-0.59 -1.52,-6.6 -1.65,-1.82 0.08,-1.57 1.9,-1.78 -7.91,-5.03 -1.73,-3.04 0.58,-1.93 -0.6,-2.41 0,0 1.71,0.74 4.18,-0.78 3.08,1.15 0.07,-1.81 1.76,-2.65 2.38,-0.79 1.88,2.89 2.37,-1 1.77,1.47 1.4,0 1.06,1.88 1.94,-1.81 5.04,-1.25 2.26,-2.25 1.56,0.4 5.829996,-4.53 1.9,-7.35 -0.32,-2.64 3.4,-1.09 2.67,-3.89 1.37,-4.77 0.55,0.34 z" 
                fill="rgb(151, 144, 238)" 
                stroke="white" 
                stroke-width=".7px"
                title="Primorsko-goranska županija" 
                id="HR-08" 
            />
        </svg>