<svg xmlns="http://www.w3.org/2000/svg" viewBox="237.78248000000002 130.03473999999994 144.88000000000028 98.71999999999991" width="144.88000000000028" height="98.71999999999991">
            <path 
                d="m 243.26248,195.58474 -3.02,-1.65 -1.54,-2.47 1.12,-3.87 2.11,-1.47 -4.15,-8.31 0.56,-2.39 4.44,-1.76 1.16,-1.31 -1.18,-6.46 1.66,-4.13 -1.88,-0.93 1.93,-2.3 1.33,-1.27 2.61,-0.35 3.45,3.09 0.83,-0.91 0,0 0.24,0.03 0,0 5.53,0.33 3.24,-2.67 2.47,0.71 3.76,5.08 0.63,-1.37 1.94,-0.75 -0.63,-4.77 1.11,-1.28 -0.44,-4.59 -3.93,-3.95 3.04,-2.54 -0.68,-2.08 5.38,-5.53 7.22,4.81 2.48,-0.48 1.02,1.34 2.15,-1.52 -0.28,-0.96 1.37,-1.34 1,-0.11 0.51,0.92 1.22,-2.07 4.54,-2.21 1,1.29 0,2.39 4.43,-1.11 1.46,1.4 0.88,3.15 2.45,0.06 1.81,1.17 1.81,3.91 1.17,-0.18 1.57,-3.27 4.61,-4.26 4.79,-1.16 2.81,-6.74 0,0 0.18,0.01 0,0 3.79,-0.72 0.62,2.11 2.14,0.33 0,0 1.41,-0.34 0,0 1.9,1.22 1.61,3.26 2.1,0.9 1.72,0.14 1.33,-1.15 1.47,0.63 0.53,4.67 1.38,3.01 4.05,2.62 1.57,3.42 -1.43,2.51 -2.23,-0.61 -0.66,1.06 2.49,2.22 1.68,-0.94 0.15,1.38 3.46,1.27 0.69,2.15 2.12,-0.69 0.47,-1.39 0,0 2.23,3.73 4.1,-0.05 2.04,1.66 1.38,4.24 0.81,-0.06 -0.16,-1.47 1.62,-0.22 -0.27,-2.16 1.41,0.26 0.72,2.27 -1.37,0.86 -0.57,3.02 6.65,3.02 1.66,1.69 0.52,2.45 4.42,-0.72 0,0 -0.45,2.04 1.01,1.37 -1.23,2.2 0.64,2.49 -2.04,0.91 -4.41,5.46 -4.16,1.67 -0.85,2.33 4.39,3.47 3.4,6.57 0,0 -9.8,-5.72 -1.52,-3.5 -1.6,1.48 -1.15,-0.05 1.18,-3 -1.59,-0.34 -0.11,1.77 -1.14,0.69 -0.93,-1.08 -0.05,-2.15 -1.36,-1.03 -0.76,1.04 1.26,0.88 0.09,1.41 -1.66,-0.58 -1.99,0.77 -0.36,-2.55 1.77,-1.86 -2.14,-2.82 -1.37,0.5 -0.81,2.7 -2.29,1.26 -1.15,2.03 -1.06,-0.6 -1.08,1.16 -1.1,0.95 -1.3,0.9 0.9,3.06 -2.47,1.46 -9.18,-3.25 -3.78,1.55 -5.13,-1.78 -4.55,-3.15 -4.96,1.33 -2.24,-0.88 -4.12,2.61 -1.83,3.95 0.01,3.32 -1.27,2.63 -6.87,4.26 0.83,3.19 -1.58,1.94 -0.54,3.8 -0.92,0.03 -1.75,2.9 -0.28,4.16 -4.61,0.52 -4.23,-0.43 -0.7,-1.36 -3.66,0.2 -0.83,-2.8 -2.11,-1.06 -5.33,-6.09 -6.82,-3.23 -0.56,-3.9 -1.54,-1.89 -0.1,-1.87 -1.42,-0.16 -0.66,-3 -3.21,-0.25 1.38,-2.32 -0.74,-2.5 -2.43,-0.54 -2.27,-1.77 -3.81,2.87 -1.16,-1.44 -0.14,-2.55 -0.78,0.8 -2.32,-0.43 0.15,1.55 z" 
                fill="rgb(151, 144, 238)" 
                stroke="white" 
                stroke-width=".7px"
                title="Sisačko-moslavačka županija" 
                id="HR-03" 
            />
        </svg>