<svg xmlns="http://www.w3.org/2000/svg" viewBox="261.54248 378.33474 148.1099999999999 135.94000000000005" width="148.1099999999999" height="135.94000000000005">
            <path 
                d="m 279.03248,503.79474 -0.13,0.75 1.5,0.18 -1.38,1.91 1.02,0.44 2.43,-2.26 1.96,0.18 0.44,1.06 1.43,-1.16 -0.09,3.01 -2.39,1.62 -0.13,1.47 -1.83,1.25 -1.62,0.35 -2.59,0.51 -6.05,1.17 -4.52,-0.1 2.3,-2.23 0.09,-2.1 -0.98,-1.4 -1.81,0.96 -1.34,-2.06 4.7,-2.61 8.99,-0.94 z m 52.63,-2.5 2.01,0.21 2.03,0.28 1.01,1.17 -2.79,1.14 -5.33,-1.02 1.09,-1.47 1.98,-0.31 z m -35.3,-10.67 3.03,1.7 1.98,-0.65 0.19,1.63 -1.98,0.44 -1.73,-0.07 -2.15,-1.25 -1.45,-0.51 0.84,-1.5 1.27,0.21 z m 21.95,-8.03 1.06,-0.06 -0.64,1.84 0.34,0.89 1.23,-0.16 -0.16,1.16 2.74,-1.74 0.69,0.92 2.71,-0.08 0.51,-0.1 0.56,-0.71 1.84,0.82 -0.3,2.08 3.53,2.77 -2.74,-0.49 2.34,1.51 0.99,1.23 2.13,0.76 2.35,-1.2 1.13,-0.03 1.93,1.06 5.25,-0.56 1.39,0.79 3.74,-0.85 2.15,1.48 6.27,-0.04 15.13,2.6 4.15,-0.93 5.26,2.15 -8.55,1.57 -1.75,-0.62 -4.42,0.76 -1.37,-0.72 -3.48,0.72 -2.9,-0.21 -4.41,0.33 -16.86,-2.22 -11.37,0.86 -10.08,-2.88 -2.57,0.23 -6.49,-3.24 -1.43,0.85 -2.66,-0.96 0.29,-1.12 -1.72,-0.03 -0.54,-0.98 -5.75,-2.22 1.42,-0.65 4.04,0.78 1.98,-1.24 1.62,-0.75 1.27,0.34 0.75,-0.73 5.59,1.03 4.22,3.48 3.06,-0.75 -2.1,-0.75 -0.19,-1.78 -1.46,-0.3 -0.41,-2.06 -1.84,1.08 -1.95,-1.99 0.97,-0.71 0.5,0.85 1.7,0.03 -0.43,-1.29 1.74,0.18 z m -12.29,-22.58 6.97,0.95 3.82,-0.81 6.19,1.18 7.33,1.32 5.79,1.41 4.56,0.52 0.25,1.19 1.64,-0.77 2.08,1.16 -2.13,0.64 0.14,0.82 2.26,-0.61 1.05,1.15 0.1,-1.21 0.85,-0.2 5.15,3.3 1.06,1.23 -1.33,0.52 0.86,1.25 -1.36,0.45 -0.05,1.9 -1.76,-0.54 -0.91,2.1 -6.64,1.3 -3.83,-0.44 -12.34,1.37 -2.11,-0.99 -8.82,-1.05 -2.04,-0.85 -0.96,-0.34 -1.26,-0.98 -0.34,-1.01 -1.25,-0.18 -0.98,-0.65 -1.1,-0.11 0.52,-1.05 -0.77,-0.68 -0.88,0.17 0.18,0.88 -1.03,-0.37 -0.61,-0.48 -1.9,-0.94 -0.2,-2.44 1.72,1.63 2.39,-0.43 -1.4,-0.74 -0.13,-2.03 2.9,-1.11 -1.43,-0.78 0.42,-1.56 -2.19,-2.11 -0.18,-0.84 1.7,-0.14 z m -20.83,-3.3 5.35,1.48 0.55,1.49 0.98,-0.75 0.78,0.68 1.05,-0.23 2.52,3.53 0.95,-0.3 0.29,2.03 2.9,2.24 0.64,1.91 -1.87,0.37 -0.33,-1.09 -1.11,0.06 -1.02,-0.14 -0.75,-1.08 -3.29,-0.94 -1.27,-0.74 0.29,-1.02 -2.12,-0.4 -1.11,-0.4 -4.82,-2.72 -2.6,-0.1 -0.17,-1.05 0.37,-1.58 -0.68,-0.92 4.47,-0.33 z m -15.97,-5.84 0.83,1.21 -1.11,1.44 -0.79,-1.26 -2.7,-0.3 0.21,-0.65 3.56,-0.44 z m 5.3,-0.4 2.62,0.23 0.94,1.88 -0.76,1.41 -1.54,-0.75 -0.95,1.18 -3.62,0.1 1.01,-1.89 0.73,0.14 -0.07,-1.35 0.83,-0.48 0.81,-0.47 z m 14.47,-7.97 2.31,0.07 5.22,2.89 4,0.97 -8.01,0.73 -4.45,-1.48 -0.5,1.08 -2.28,0.8 -4.2,-2.16 1.43,-0.81 3.85,0.92 0.29,-2.09 -1.89,-0.73 4.23,-0.19 z m -27.25,1.86 2.51,-1.12 0.63,-2.47 3.3,-0.03 1.27,-1.1 -0.67,-3.73 -2.81,-0.47 -1.32,-3.36 2.51,-1.58 0.57,-1.74 2.92,-0.65 3.15,-5.03 4.45,-0.13 1.22,-3.31 4.65,0.39 1.9,-2.68 7.93,0.58 3.04,-3.42 -0.04,-1.03 -2.02,-1.67 2,-2.15 -1.23,-2.87 4.4,-2.5 0.94,-1.79 3.96,-2.96 -10.18,-9.64 1.66,-5.37 3.42,1.17 3.02,-0.34 0.2,-0.93 -1.41,-0.94 0.26,-1.15 2.11,-0.99 1.88,0.46 5,-3.48 4.39,0.24 0,0 4.96,3.35 3.45,4.87 8.43,6.03 0.84,1.49 0.04,4.45 2.7,4.43 1.7,1.76 4.54,1.03 2.85,4.98 3.61,2.5 1.91,3.13 2.63,1.56 2.25,4.28 3.82,3.45 8.17,10.78 1.28,-0.95 1.85,0.74 2.06,2.36 3.19,1.81 2.47,3.26 8.4,-0.33 3.31,2.25 2.24,3.07 0.49,2.64 -0.38,2.97 -2.62,5.71 7.9,14.73 0.84,4.48 5.36,1 2.73,2.11 2.29,4.16 -0.52,3.03 1.51,0.38 0,0 -3.57,3.34 -5.26,-1.3 -2.17,1.09 0.17,2.02 3.57,1.15 -0.06,2.88 -2.67,2.99 0,0 -1.42,-2.63 -4.81,-2.2 -0.59,-1.51 -2.53,-1.92 -8.82,-3.21 -2.21,-2.65 -1.48,-0.14 -2.69,-2.06 -0.63,-2.63 -2.84,-0.92 -2.83,-5.21 -3.23,-2.28 -1.02,-1.03 -6.58,-9.4 -5.07,-4.1 -0.96,-1.73 -10.06,-0.37 -6.89,-1.43 -3.52,-4.3 -4.94,0.74 -2.3,-2.03 -4.22,-1.56 -4.25,-3.71 -1.32,-1.05 -4.94,-0.8 -2.87,0.53 -2.58,-0.11 -4.01,-1.18 1.6,-1.02 1.8,-0.88 1.82,-0.95 0.82,-0.17 2.95,0.4 0.06,-0.67 -0.66,-0.7 -12.12,-2.15 -3.96,1.68 -2.05,2.01 -7.35,1.18 -1.23,0.95 -2.77,0.47 -0.33,-0.77 -2.18,0.16 -2.8,-1.15 -1.6,1.11 5.94,1.51 0.3,1.27 -1.96,1.42 -2.52,0.2 -0.49,0.34 -1.49,1.14 -2.23,-0.27 -2.64,-1.69 -0.8,1.39 -1.32,-0.85 -0.93,0.38 0.53,-1.69 -1.83,-0.33 -1.07,1 0.2,-2.32 z" 
                fill="rgb(151, 144, 238)" 
                stroke="white" 
                stroke-width=".7px"
                title="Splitsko-dalmatinska županija" 
                id="HR-17" 
            />
        </svg>