<svg xmlns="http://www.w3.org/2000/svg" viewBox="376.06248000000005 81.98473700000004 95.82999999999998 76.88000299999997" width="95.82999999999998" height="76.88000299999997">
            <path 
                d="m 399.74248,85.284737 0.63,0.56 -0.02,1.29 -0.43,1.25 -1.37,-0.99 0.37,2.58 3.95,-0.76 0.8,2.43 1.95,-1.23 0.28,1.37 2.19,0.32 -0.56,-2.67 0.74,-0.6 9.62,2.37 3.99,-0.39 5.77,4.96 3.11,8.320003 1.3,1.52 3.07,-0.12 1.73,1.06 2.9,0.2 1.98,2.66 2.15,-0.71 3.52,1.89 1.12,-0.9 1.23,3.39 1.51,0.8 1.21,2.4 3.16,-3.3 2.41,-0.11 0,0 -0.02,2.56 2.22,5.77 6.68,2.44 3.01,11.75 1.95,0.31 -1.19,3.21 -4.5,5.86 0.3,2.87 -2.86,1.25 -1.43,4.14 -1.93,2.39 -5.14,2.44 0,0 -0.58,-0.24 0,0 -1.75,-0.65 -2.92,1.71 -5.07,0.18 1.43,-1.38 -2.25,-1.9 -7.02,-0.58 -2.83,-1.75 -5.61,-0.2 -1.85,-1.49 -1.96,-3.51 -2.51,-0.28 -4.03,-3.74 -1.97,0.03 -1.3,2.46 -3.3,-1.55 -0.82,-1.81 -1.52,0.8 0,0 -1.83,0.57 -0.04,-3.17 2.4,-1.4 -0.02,-3.79 3.32,-4.26 -0.18,-2 1.96,-2.86 -2.24,-1.94 -2.6,-0.34 0.06,-1.21 -1.03,-0.88 -2.84,1.12 -0.79,1.67 -1.91,0.91 -1.34,-3.96 -2.46,1.98 -0.49,-1.61 1.65,-2.88 -0.2,-1.65 -1.8,-1.59 -1.03,2.47 -1.74,-0.79 -0.24,-2.53 -2.92,-0.67 -1.26,-2.84 0.14,-2 -3.32,-0.63 -2.11,-2.39 -2.51,-1.02 -1.57,-3.61 -6.28,-3.160003 0,0 0.84,-2.98 6.46,-8.3 2.02,-4.23 4.81,0.62 3.74,-0.89 0,0 1.09,0.49 0.49,-1.26 1.11,0.07 -1.51,2.84 1.96,0.37 1.04,-1.96 -1.13,-1.41 0.65,-0.88 z" 
                fill="rgb(151, 144, 238)" 
                stroke="white" 
                stroke-width=".7px"
                title="Virovitičko-podravska županija" 
                id="HR-10" 
            />
        </svg>