<svg xmlns="http://www.w3.org/2000/svg" viewBox="518.09248 157.65473999999998 94.13999999999987 92.54999999999993" width="94.13999999999987" height="92.54999999999993">
            <path 
                d="m 523.56248,200.39474 2.11,-0.69 0.81,-4.36 -2.08,0.2 -4.37,-2.62 0.01,-6.57 2.86,-1.74 2.9,0.51 1.75,-2.75 4.13,-0.31 -0.7,-4.02 2.72,-1.52 0.02,-5.19 4.1,-0.62 2.35,-2.18 4.37,-0.79 1.23,0.32 0.75,1.49 2.65,-0.57 0.11,-1.94 1.99,-0.15 -2.01,-6.41 1.64,-1.14 3.87,-0.35 0.52,-1.34 2.84,0.03 3.38,2.12 3.51,4.79 4.22,0.17 0.9,-0.66 0,0 2.5,2.07 -0.04,1.88 -0.82,1.51 -1.86,0.34 -2.22,3.48 5.2,4.69 7.08,1.54 2,5.72 14.41,7.53 15.31,1.63 0.53,5.08 -1.01,1.86 0.35,1.95 -4.19,0.6 -4.06,-4.67 -2.44,0.23 -0.77,3.95 -2.36,0 -8.81,-4.48 -0.41,0.9 1.48,1.7 -0.36,1.85 -4.21,6.16 -1.44,0.7 -4.12,-0.52 -0.09,2.73 1.62,2.44 -0.92,1.77 1.88,2.12 -0.06,2.36 -1.82,1.9 0.73,4.19 -0.99,1.85 -4.28,2.67 6.18,0.98 3,-1.49 1.27,3.72 -1.22,1.73 -4,1.71 -2.54,3.09 -7.12,1.02 1.44,6.78 -5.59,0.83 -12.3,-0.65 -9.08,-7.52 0.86,-2.17 -2.1,-3.01 0.92,-0.45 2.78,1.41 1.83,-1.01 -2.08,-3.67 1.02,-3.68 -3.91,-1.07 -3.03,0.68 0.84,-3.21 -2.23,-2.8 -2.23,-0.57 -2.54,-3.21 1.93,-2.12 -1.04,-2.15 -1.11,-0.2 -1.06,1.25 0.49,3.42 -0.72,0.78 -5,-1.23 0.07,-0.89 2.82,-2.16 -0.4,-1.35 -0.98,0.07 -1.27,1.98 -3.92,-1.93 -0.38,0.79 1.46,1.68 -0.74,1.59 -1.07,-2.25 -3.09,-1.59 0,0 -2.11,-0.66 -1.91,-4.05 z" 
                fill="rgb(151, 144, 238)" 
                stroke="white" 
                stroke-width=".7px"
                title="Vukovarsko-srijemska županija" 
                id="HR-16" 
            />
        </svg>