<svg xmlns="http://www.w3.org/2000/svg" viewBox="113.30248000000002 301.67473999999993 170.23000000000008 93.54000000000008" width="170.23000000000008" height="93.54000000000008">
            <path 
                d="m 208.83248,393.74474 1.1,1.24 -1.94,0.23 -1.53,-2.2 1.39,0.74 0.09,-0.9 0.89,0.89 z m -24.7,-22.74 2.01,0.23 0.77,1.51 3.03,1.23 3.55,4.07 1.69,-0.23 1.43,1.66 0.06,2.61 6.78,5.89 -0.42,1.45 -1.08,-1.23 -1.47,0.77 -4.38,-3.56 0.02,1.09 -1.14,-0.03 -1.4,-0.62 -0.77,-1.98 -0.1,-1.12 -0.54,-0.49 -0.89,-0.99 -3.06,-1.63 -1.03,-2.51 -3.39,-3.94 0.09,-0.98 -1.48,-0.92 1.22,-1.09 0.5,0.81 z m -21.88,-3.72 0.82,0.04 -0.32,1.12 1.81,1.52 0.62,2.12 -3.26,-2.24 0.71,-0.98 -1.11,-1.95 0.73,0.37 z m 2.02,-5.72 2.78,2.04 0.52,2.3 0.79,0.04 1.48,2.57 1.63,0.7 0.18,1.62 1.95,2.93 -9.36,-8.26 -0.63,-4.31 0.66,0.37 z m 2.25,-8.11 0.69,1.09 2.19,0.39 2.83,2.67 0.99,0.53 0.71,0.45 1.72,1.18 -0.38,1.29 1.97,2.63 2.31,1.08 3.08,3.09 -0.81,0.42 1.36,1.74 -1.11,1.26 -0.74,0.36 0.18,-1.86 -1.39,-0.37 -1.25,-2.93 -0.64,-0.42 -0.46,1.87 -0.87,0.65 -7.26,-7.98 -1.37,-2.77 -1.95,-0.46 -3.22,-3.05 0.68,-1.25 -1.22,-1.78 0.29,-1.01 3.67,3.18 z m -5.34,-2.47 0.89,0.26 0.13,1.6 -2.29,-1.11 -1.67,-2.64 0.67,-0.62 2.27,2.51 z m -12.6,-1.24 2.22,2.66 -2.94,-1.29 -2.97,-2.99 3.69,1.62 z m -6.38,-1.07 0.79,1.01 1.35,0.01 -0.11,0.79 2.86,2.26 1.21,2.86 2.45,0.6 -0.6,1.16 0.76,1.15 5.1,3.3 -0.02,-1.28 1.25,0.59 0.08,1.18 -0.9,0.13 2.38,1.54 0.63,3.89 3.16,5.09 1.17,0.27 2.59,3 0.1,-1.76 2.3,1.66 -0.43,1.29 3.03,2.12 1.48,2.42 0.98,-0.16 0.46,2.02 5.18,3.01 0.32,1.19 -1.22,-0.37 0.53,1.17 -0.96,0.39 -1.71,-1.1 -0.41,-0.13 -1.3,-1.06 -1.16,0.19 -0.12,-1.12 -1.88,-0.8 -0.74,-1.46 -1.04,0.66 0.53,1 0.86,0.78 1.63,1.7 0.93,-0.03 1.42,2 1.9,0.64 0.1,1.96 -10.08,-8.82 -11.45,-18.39 -5.64,-4.34 -5.23,-6.22 -1.41,-0.79 0.09,1.61 -5.13,-3.16 -0.56,-1.6 1.34,-1.16 0.56,0.5 -1.31,0.53 0.99,1.64 2.73,1.47 -1.6,-2 1.09,-0.23 2.47,1.6 -2.38,-3.95 0.06,-1.25 0.53,0.8 z m 7.54,-0.48 0.23,0.79 -3.52,-2.98 1.22,-0.2 2.07,2.39 z m 1.07,-3.68 4.76,5.51 1.34,-0.07 2.28,2.21 0.72,1.15 -0.41,1.58 -2.41,-1.84 -0.28,0.75 -3.27,-3.29 -2.9,-4.13 0.17,-1.87 z m -14.48,-9.1 1.7,2.33 4.47,2.28 1.46,1.91 0.6,-1.9 1.61,1.09 -0.85,0.63 1.88,1.07 -1.23,0.37 -0.44,1.68 -2.76,-1.31 0.46,-0.89 -2.56,-0.5 -0.99,-1.57 -2.57,-1.2 2.89,4.59 -0.11,0.68 -1.19,-0.24 -4.33,-8.2 1.96,-0.82 z m -10.95,-3.9 1.14,-0.17 1.82,2.38 -1.1,0.32 -1,-0.24 -2.03,-2.03 1.17,-0.26 z m 8.83,1.62 1.51,1.33 -1.47,0.97 -2.2,-1.43 0.41,2.4 -2.31,-1.24 -0.95,-2.23 2.49,0.35 -0.91,-2.39 3.43,2.24 z m 25.84,-6.58 0.95,-0.4 1.15,1.36 0.89,-0.58 1.56,1.37 1.92,-0.03 3.59,2.83 -0.02,0.78 -1.42,0.75 -0.04,-1.47 -2.52,-1.02 -1.78,0.61 0.1,1.15 -2.88,0.33 -3.35,-4.79 0.24,-1.18 1.61,0.29 z m -42.71,-1.52 2.19,1.11 2.81,3.53 -2.93,-1.07 -2.33,-2.03 0.2,-0.66 -2.43,-0.76 -1.55,-2.51 0.91,-0.78 3.13,3.17 z m 6.89,-11.18 1.93,2.15 -0.41,3.75 1.95,0.97 0.69,2.45 -0.8,0.27 -2.31,-1.6 -1.32,-4.46 -2.43,-0.84 0.28,-2.05 2.42,-0.64 z m 11.07,-0.72 1.65,2.44 -1.78,2.4 2.78,4.21 -0.63,1.9 -2.07,-0.07 -2.66,-2.64 -2.46,-1.08 3.28,-1.59 -1.77,-5.43 1.24,0.43 1.39,-1.29 1.03,0.72 z m 129.49,-2.1 1.05,1.26 0.28,-4.55 1.96,0.28 1.4,1.47 0,0 2.38,-0.07 2.23,-1.58 0,0 0.36,3.9 2.3,3.11 -2.51,1.29 -2.45,-0.55 0.48,2.41 8.66,3.06 0.87,1.67 -0.68,2.24 0.39,7.09 2.02,9.97 0,0 -5.63,1.89 0,0 -2.59,0.07 -1.26,2.73 0.84,4.62 -0.91,2.31 0,0 -2.38,1.89 0,0 -2.31,1.33 -9.87,-4.55 -0.21,-1.96 -1.82,-2.59 0,0 -1.96,-0.14 0,0 -4.27,7.21 0,0 -1.89,0.77 0,0 -1.19,1.75 0,0 -1.4,2.03 -2.38,0.49 0,0 -1.26,2.94 -3.78,-1.26 -1.26,0.77 0,0 1.19,1.75 0,0 1.96,0.14 3.57,2.38 0.14,2.17 0,0 -1.89,2.52 0.98,2.24 0,0 -2.94,2.73 -2.52,0.7 2.69,3.86 -1.92,1.22 -0.84,-0.31 0,0 -2.19,1.22 0,0 0.29,0.72 0,0 0.82,0.34 0,0 0.3,0.4 0,0 -0.05,0.3 0,0 -0.73,0.5 0,0 -0.34,0.47 0,0 -0.73,1.82 0,0 -1.13,0.6 0,0 -1.27,0.6 0,0 0.93,1.05 0,0 -0.57,1.27 0,0 -0.26,1.12 0,0 -0.29,1.9 -3.49,-1.99 0,0 -0.56,-0.16 0,0 -2.56,-1.12 0,0 -4.42,2.09 -2.03,-0.63 0,0 -3.42,-3.08 -2.69,2.36 -0.94,-0.2 -1.44,-0.93 -0.53,-0.97 0.63,-0.29 -1.33,-1.53 -6.96,-3.52 -1.58,-1.96 0.35,-1.45 -3.66,-2.58 -6.62,-9.05 -4.63,-2.21 1.03,-0.06 0.07,-1.09 -2.71,-1.38 -1.9,-4.68 -1.57,-0.88 -0.13,0.8 -2.5,-2.48 -0.35,-1.05 -0.03,-1.35 -1.88,-0.47 0.98,-0.93 -0.31,-1.18 -6.87,-7.05 1.83,-1.21 0.83,-3.57 -3.65,-1.67 -0.57,-2.29 -1.62,-0.52 1.52,-2.68 2.03,-0.07 3.46,3.98 -0.68,0.2 0.9,1.35 0.79,-0.95 1.14,-0.1 1.43,-1.4 -2.39,-3.64 1.05,-0.66 1.24,0.86 -0.45,-1.67 7.83,6.7 1.7,-0.6 -1.97,-4.38 1.84,0.32 0.69,-1.35 -4.64,-4.7 1.43,-1.79 0.27,1.13 5.07,2.96 0.67,0.88 -0.51,0.85 7.57,4.84 1.7,0.52 2.7,-1.12 6.27,1.77 1.05,3.12 -0.14,2.8 -4.06,1.61 4.55,4.13 5.74,-1.4 2.87,3.57 1.05,4.62 1.61,-0.49 0.49,-1.68 -2.45,-4.13 0.28,-1.82 -2.17,-2.73 -3.64,-0.84 -2.66,-2.94 -0.21,-3.43 1.15,0.01 -0.12,-1.71 -3.35,-1.86 -2.77,0.69 -1.02,-2.05 -1.54,0.45 -3.58,-4.62 -8.07,-3.6 -5.32,-3.63 0,0 3.6,-7.26 0,0 4.33,2.43 0,0 0.2,0.1 0,0 3.49,2.05 0,0 10.85,4.21 0,0 4.21,3.21 2.45,5.11 3.01,1.47 5.25,-0.07 2.31,1.82 3.5,0.91 8.82,-0.28 1.89,-1.26 1.33,-2.24 0.42,-6.09 -1.19,-1.96 -3.5,0.07 0,0 -0.98,-1.96 0,0 2.59,-3.08 -0.98,-1.82 -3.36,-0.91 2.59,-1.12 1.05,-2.03 8.05,-3.78 0.63,-2.17 2.17,0 3.29,-3.29 0,0 2.1,-1.47 0,0 3.57,0.28 2.87,1.26 3.29,4.2 0,0 -0.21,3.01 0,0 0.83,0.61 z" 
                fill="rgb(151, 144, 238)" 
                stroke="white" 
                stroke-width=".7px"
                title="Zadarska županija" 
                id="HR-13" 
            />
        </svg>