<svg xmlns="http://www.w3.org/2000/svg" viewBox="191.1124799999996 71.244737 141.4000000000002 91.3300030000001" width="141.4000000000002" height="91.3300030000001">
            <path 
                d="m 286.22248,71.244737 0.69,2.96 1.32,0.86 0.34,2.9 1.81,1.51 4.15,-2.12 0,0 2.12,1.93 0.6,-0.98 1.39,0.35 2.81,2.62 2.2,-0.74 1.56,1.18 0.38,2.04 2.21,1.05 0.49,4.38 3.52,-2.08 0.84,1.4 3,-0.39 5.52,5.73 1.45,-1.07 2.28,1.44 2.45,-0.53 0.7,-1.06 3.84,0.91 0,0 -0.2,4.93 0.82,2.850003 -1.76,3.95 0.57,2.24 -1.89,-1.42 -2.72,0.77 -0.6,-1.7 -0.7,1.95 -3.49,1.7 0.41,3.85 -2.85,-1.66 -7.29,0.71 0.78,2.03 -1.37,1.26 2.15,1.64 -1.79,2.06 -0.2,2.86 2.22,0.65 1.82,2.4 3.15,0.06 1.36,1.22 0.17,2.45 1.51,-0.62 2.3,3.03 0,0 0.08,0 0,0 -2.81,6.74 -4.79,1.16 -4.61,4.26 -1.57,3.27 -1.17,0.18 -1.81,-3.91 -1.81,-1.17 -2.45,-0.06 -0.88,-3.15 -1.46,-1.4 -4.43,1.11 0,-2.39 -1,-1.29 -4.54,2.21 -1.22,2.07 -0.51,-0.92 -1,0.11 -1.37,1.34 0.28,0.96 -2.15,1.52 -1.02,-1.34 -2.48,0.48 -7.22,-4.81 -5.38,5.53 0.68,2.08 -3.04,2.54 3.93,3.95 0.44,4.59 -1.11,1.28 0.63,4.77 -1.94,0.75 -0.63,1.37 -3.76,-5.08 -2.47,-0.71 -3.24,2.67 -5.53,-0.33 0,0 -0.24,-0.03 0,0 -1.48,-1.84 0.86,-1.91 -0.31,-2.26 -1.95,-2.35 -3.27,0.18 -0.24,-2.44 -3,-0.28 -2.72,3.44 -2,0.52 -0.91,-2.4 -1.29,0.19 -2.87,-3.82 0.92,-1.93 -0.47,-3.39 -2.07,1.74 -2.96,-2.02 -3.29,0.22 -5.35,-3.34 -8.5,7.07 -0.86,-1.54 1.33,-3.1 -2.1,0.88 -0.95,-0.93 1.11,-2.9 -0.55,-1.84 -4.23,-3.07 -1.37,-0.11 -0.2,-2.33 -1.62,-2.33 -3.39,-0.39 -1.63,-3.88 -3.86,-2.53 -2.27,-0.31 -0.09,-1.2 1.2,-1.14 -0.09,-2.78 0,0 3.77,-1.18 3,-2.16 6.42,-0.38 -0.77,-3.19 2.61,-1.83 1.15,1.43 2.43,-0.22 1.41,-3.69 2.2,1.47 1.28,-2.04 5.81,2.99 1.41,1.88 2.41,-3.08 4.09,-0.55 0.09,-0.9 -2.18,-1.72 0.69,-0.96 -1.17,-5.070003 2.82,-2.91 0.05,-7.12 0,0 1.61,0.74 3.96,-0.8 0.83,1.23 1.37,-3.28 3.45,-0.04 8.89,4.42 4.35,4.08 0.32,3.32 0,0 -11.64,7.650003 -1.74,3.34 1.78,6.01 -2.09,2.58 5.42,3.58 -0.72,3.01 -1.78,1.38 -1.24,-1.75 -2.65,0.11 -1.02,-1.54 -1.49,0.97 -1.61,3.24 0.86,3.81 4.58,2.85 4.65,1.54 3.72,3.67 -0.36,3.3 3.74,0 2.1,-1.74 3.56,-7.57 0.91,-5.94 2.47,-0.45 1.18,-4.11 5.48,-2.83 1.92,-2.73 3.23,-1.12 1.24,-1.25 -0.16,-1.06 5.54,1.58 0.51,-4.91 3.07,-1.59 -3.17,-7.330003 -2.52,-1.16 -0.9,-3.61 0.73,-2.3 -2.32,-4.8 0,0 -0.51,-1.21 0.64,-1.87 3.32,-2.45 -0.5,-1.82 3.46,-0.58 -1.9,-4.65 2.23,0.22 z" 
                fill="rgb(151, 144, 238)" 
                stroke="white" 
                stroke-width=".7px"
                title="Zagrebačka županija" 
                id="HR-01" 
            />
        </svg>