<svg xmlns="http://www.w3.org/2000/svg" viewBox="179.22247999999996 342.09474 136.10999999999996 104.26000000000005" width="136.10999999999996" height="104.26000000000005">
            <path 
                d="m 219.68248,419.71474 1.14,0.76 1.53,-0.33 2.15,1.43 0.56,-0.67 2.39,3.22 2.93,0.48 1.77,1.57 -2.05,0.07 -1.13,-0.51 -0.82,0.46 -3.5,-1.37 -3.25,-3.61 -2.18,-0.31 -0.46,-1.73 0.92,0.54 z m 14.53,-3.48 2.09,0.96 0.26,1.58 -3.06,-1.21 -0.15,-2.75 0.86,1.42 z m 10.71,0.21 1.28,1.85 0.1,3.25 -5.03,-5.26 1.54,0.17 0.39,-1.67 1.72,1.66 z m -21.03,-0.2 2.55,0.73 1.66,2.17 -1.6,-0.04 -2.61,-2.86 z m 2.3,-2.84 1.78,0.14 0.83,1.51 1.77,2.45 1.21,-0.21 -1.16,1.51 0.47,1.37 -2.46,-1.3 -0.24,-1.07 1.62,0.23 -3.06,-2.35 -0.76,-2.28 z m 8.91,-1.45 2.13,1.78 -1.25,-0.13 0.66,1.5 -2.55,-2.87 0.56,-0.96 0.45,0.68 z m 4.92,0.58 -1.42,0.71 -1.1,-3.31 2.52,2.6 z m -48.77,-6.69 2.49,1.59 -0.82,0.43 -4.21,-2.4 1.02,-0.49 1.52,0.87 z m 27.89,-7.92 -0.13,1.72 2.56,2.12 -0.1,0.92 1.63,-0.57 0.87,1.61 -0.86,0.53 1.51,0.72 0.77,1.97 -4.23,-1.37 0.01,-1.37 -4.85,-3.99 -1.45,-3.03 1.06,-0.33 1.5,1.8 0.77,-1.9 0.94,1.17 z m -38.22,-6.95 0.11,0.7 2.69,0.22 0.45,0.72 -1.68,0.2 0.35,0.67 8.56,6.62 4.77,5.52 -2.57,-1.22 -3.1,-0.76 -2.86,-2 0.18,-1.37 -4.55,-2.49 -1.97,-3.96 -2.08,-2.02 0.14,-0.86 1.56,0.03 z m 3.17,-2.53 3.03,1.09 -1.23,0.26 1.18,1.33 0.68,-0.57 1.3,0.83 0.11,-1.96 1.38,1.62 -0.58,1.36 2.61,2.49 0.14,1.57 2.19,2.46 -0.69,0.31 -1.12,-1.92 -4.75,-3.06 -3.17,-3.42 -1.91,-0.19 -0.7,-1 1.53,-1.2 z m 110.62,-31.62 2.84,4.15 5.97,-0.13 1.59,7.58 6.12,0.49 3.64,6.31 0.46,3.35 0,0 -4.39,-0.24 -5,3.48 -1.88,-0.46 -2.11,0.99 -0.26,1.15 1.41,0.95 -0.2,0.93 -3.02,0.34 -3.42,-1.17 -1.66,5.37 10.19,9.64 -3.96,2.96 -0.94,1.79 -4.4,2.5 1.23,2.87 -2,2.15 2.02,1.67 0.04,1.03 -3.04,3.42 -7.93,-0.58 -1.9,2.68 -4.65,-0.38 -1.22,3.31 -4.45,0.13 -3.15,5.03 -2.92,0.66 -0.57,1.74 -2.5,1.58 1.33,3.36 2.82,0.47 0.67,3.73 -1.27,1.1 -3.3,0.03 -0.63,2.48 -2.5,1.12 0,0 -1.74,1.95 -0.8,-0.7 0.83,-1.01 -1.91,0.03 -1.41,0.68 -0.78,-0.64 -1.22,-1.36 1.35,-0.21 1.15,0.01 1.54,-1.27 -0.93,-2.53 1.36,-0.34 -1.7,-0.24 -0.37,1.02 -1.17,-0.06 -0.05,1.78 -0.89,-0.91 0.76,-1.79 -2.7,-0.67 -0.9,-1.15 0.45,-0.94 1.6,0.17 -0.12,-1.64 -1.17,0.84 -1.48,-0.9 1.42,-2.21 -1.51,-0.68 0.78,-0.43 -0.6,-1.87 0.76,-0.71 -1.41,-2.17 0.68,-0.88 5.33,0.21 -7.08,-2.22 2.42,0.09 0.22,-1.04 2.3,2.01 -0.33,-2.69 -3.27,-2.61 -2.05,-3.14 -1.35,0.64 -2.86,-3.62 -7.41,-5.32 -1.15,0.89 -2.78,-0.73 -0.04,0.57 -1.79,-0.93 0.23,-0.84 -3.65,-0.06 -1.06,-2.59 -2.39,-2.3 -2.28,-0.19 -2.33,-1.89 -0.21,-1.34 1.67,1.84 0.81,-0.99 1.53,0.11 2.46,1.47 0.41,1.34 0.04,-2.77 -1.81,-0.11 -4.08,-3.83 -3.57,-0.61 -1.72,-1.39 0.14,-1.3 -1.6,1.07 -0.23,-1.46 2.63,-2.65 3.42,3.08 0,0 2.03,0.63 4.42,-2.09 0,0 2.56,1.12 0,0 0.56,0.16 0,0 3.49,1.99 0.29,-1.9 0,0 0.26,-1.12 0,0 0.57,-1.27 0,0 -0.93,-1.04 0,0 1.27,-0.6 0,0 1.13,-0.6 0,0 0.74,-1.82 0,0 0.34,-0.47 0,0 0.74,-0.5 0,0 0.05,-0.3 0,0 -0.3,-0.4 0,0 -0.82,-0.34 0,0 -0.29,-0.72 0,0 2.19,-1.22 0,0 0.84,0.32 1.92,-1.22 -2.69,-3.86 2.52,-0.7 2.94,-2.73 0,0 -0.98,-2.24 1.89,-2.52 0,0 -0.14,-2.17 -3.57,-2.38 -1.96,-0.14 0,0 -1.19,-1.75 0,0 1.26,-0.77 3.78,1.26 1.26,-2.94 0,0 2.38,-0.49 1.4,-2.03 0,0 1.19,-1.75 0,0 1.89,-0.77 0,0 4.27,-7.21 0,0 1.96,0.14 0,0 1.82,2.59 0.21,1.96 9.88,4.55 2.31,-1.33 0,0 2.38,-1.89 0,0 0.91,-2.31 -0.84,-4.62 1.26,-2.73 2.59,-0.07 0,0 5.63,-1.89 0,0 3.82,6.06 5.6,4.72 0.73,3.15 0.98,0.8 z" 
                fill="rgb(151, 144, 238)" 
                stroke="white" 
                stroke-width=".7px"
                title="Šibensko-kninska županija" 
                id="HR-15" 
            />
        </svg>