<svg xmlns="http://www.w3.org/2000/svg" viewBox="714.5080299999996 130.04988 48.810000000000514 35.00999999999999" width="48.810000000000514" height="35.00999999999999">
            <path 
                d="m 727.94803,131.64988 0.29,0.37 1.38,-1.72 0.36,0.23 0.36,-0.48 0.61,0.6 0.06,-0.44 0.85,0.01 0.17,0.4 -0.69,0.36 0.55,1.41 0.5,-0.29 0.03,-1.21 0.5,-0.39 1.79,1.39 -0.27,1.64 1.12,-0.14 1.96,-1.23 0.94,1.75 0.57,0.21 0.03,0.72 2.72,0.51 0.14,-0.46 1.05,-0.04 0.61,-1.25 1.1,1.08 0.46,-0.69 1.45,0.73 1.05,-1.71 1.25,0.05 0.71,-0.63 -0.34,-0.99 0.62,-0.64 0.65,0.91 0.87,-0.08 -0.09,0.5 1.11,0.45 -0.42,1.55 1.37,0.91 -0.15,1.07 0.73,1.14 -0.62,0.03 0.6,0.45 0.43,1.43 0.73,-0.4 0.42,0.55 0.85,-0.25 0.08,-0.86 0.6,-0.21 0,0 0.38,-0.41 0,0 0.47,0.52 1.1,-0.81 0.58,0.77 0.6,-0.1 -0.79,1.96 0.91,1.26 0,0 -1.77,1.12 -0.4,3.43 0.91,0.58 -2.24,4.43 -0.22,1.43 0.67,-0.18 0.05,0.53 -1.17,1.36 0.59,-0.18 1.18,0.83 0.26,1 3.21,4.63 0.61,0.14 1.35,3.51 0,0 0,0 0,0 -0.71,0.66 0,0 -0.69,-0.08 0.06,0.67 -0.3,-0.12 -1.24,-2.57 0.28,-0.9 -1.71,-0.67 -1.36,-2.72 -1.57,0.41 -0.59,0.86 -1.61,0.04 0.31,0.33 -0.39,0.92 -0.73,0.27 -0.18,0.7 0,0 -0.82,1.04 0,0 -1.01,0.41 -0.06,0.73 -2.19,-0.01 -0.7,-0.6 -1.44,-0.23 -1.09,0.37 -2.83,-1.85 -2.52,-0.21 -4.5,-2.66 -0.89,0.75 -1.44,-1.16 -2.4,0.62 -0.66,-0.66 -0.39,0.38 0,0 -1.05,-0.91 -2.26,-0.44 -0.25,-0.72 -1.43,-0.03 1.22,-1.6 -0.57,-0.49 0.57,-0.06 -0.24,-0.53 -1,0.09 0.4,-0.87 -1.85,-3.51 -1.71,1 -0.71,-0.26 -0.96,0.43 -0.9,-1.24 -0.49,0.19 0.44,0.95 -0.71,0.32 -0.12,-0.68 -1.27,-0.14 -0.08,-0.66 -2.02,-0.06 -0.45,-2.52 4.81,-4.16 -0.31,-0.82 0.63,-1.03 -1.76,-0.09 0,0 1.46,-1.77 0.95,0.5 1.27,-1.58 0.35,-0.14 0.32,0.59 0.99,-1.35 1.14,0.71 0.64,-0.82 0.35,0.58 0.29,-0.93 1.28,0.99 -0.21,0.33 0.51,0.67 0.9,-0.44 0.79,0.87 -0.24,0.35 0.99,-0.07 -0.13,0.51 1.14,0.62 0.51,-1.23 -0.79,-0.66 -0.3,0.53 -0.2,-0.87 -0.67,-0.37 0.91,-1.17 -0.73,-0.53 -0.82,0.2 -0.08,-0.41 -1.95,-0.92 0.93,-1.24 0,-1.43 z" 
                fill="rgb(151, 144, 238)" 
                stroke="white" 
                stroke-width=".7px"
                title=" Évora" 
                id="PT-07" 
            />
        </svg>