<svg xmlns="http://www.w3.org/2000/svg" viewBox="709.2580300000004 158.07987999999997 59.55000000000007 40.29999999999998" width="59.55000000000007" height="40.29999999999998">
            <path 
                d="m 729.94803,158.52988 0.39,-0.38 0.66,0.66 2.4,-0.62 1.44,1.16 0.89,-0.75 4.5,2.66 2.52,0.21 2.83,1.85 1.09,-0.37 1.44,0.23 0.7,0.6 2.19,0.01 0.06,-0.73 1.01,-0.41 0,0 0.82,-1.04 0,0 0.18,-0.7 0.73,-0.27 0.39,-0.92 -0.31,-0.33 1.61,-0.04 0.59,-0.86 1.57,-0.41 1.36,2.72 1.71,0.67 -0.28,0.9 1.24,2.57 0.3,0.12 -0.06,-0.67 0.69,0.08 0,0 0.71,-0.66 0,0 0,0 0,0 0.74,0.75 0.57,-0.69 0.22,0.35 0.97,-0.19 0.55,-0.88 0.97,-0.27 0.27,0.37 1.14,-0.72 0.06,0.73 -1.11,1.42 0.53,0.55 -0.58,1.68 -0.54,0.34 -0.45,3.18 -1.41,0.33 -1.64,-1.18 -0.94,0.57 0.24,0.99 -1.66,0.47 -0.91,-0.42 -1.91,0.94 0.45,1 -0.21,1.28 -0.86,1 -0.04,1.14 -1.29,2.12 -2.28,2.06 -0.78,0.2 -0.84,2.45 0.14,1.3 -0.39,0.1 0.04,0.62 -0.4,-0.12 -0.68,1.81 -0.48,-0.04 -0.09,1.91 -0.5,0.04 0.32,1.17 0,0 -1.95,-0.11 -1.39,1.47 -1.81,-0.55 -2.47,1.03 -0.36,-0.31 0.06,0.34 -1.55,0.92 -0.33,-0.25 -0.32,0.55 -0.63,-0.03 -0.1,0.46 -1.12,0.11 0.02,0.77 -0.36,-0.09 -0.17,0.52 -0.53,-0.37 -0.48,0.4 -1.34,-0.13 -0.78,1.17 0.51,0.57 -1.16,0.32 -1.21,1.42 -3.88,-0.9 -1.9,-1.71 -0.83,-0.08 0.32,-0.82 -0.4,-0.69 -1.34,-0.54 -0.29,0.61 -0.24,-0.38 -2.57,0.54 -0.12,1 -0.92,0.69 -2.02,-0.08 -1.74,-1.29 -1.45,0.37 -0.74,1.04 -0.78,-1 -2.19,0.22 -0.51,-1.45 -1.47,-0.44 0,0 0.33,-3.56 -1.07,-2.64 1.06,-4.55 -0.84,-1.39 0.62,-2.81 0,0 0.53,0.58 1.29,-0.39 1.64,2.44 0.71,-0.6 1.38,0.76 0.33,-0.43 0.62,0.13 0.11,-1.69 0.55,-0.77 0.54,0.11 -0.07,-1.25 0.44,-0.24 3.06,-0.27 0.19,-0.43 3.28,0.95 -0.14,-0.77 1.13,-1.3 -0.31,-0.5 0.49,-3.26 -0.8,-1.31 -1.42,0.17 -1.44,-2.03 0.66,-1.69 0.8,0.45 0.24,-1.39 0.55,-0.1 0.15,-0.57 0.72,0.69 0.62,-0.04 0.21,-1.9 1.41,0.29 0.61,-0.93 2.86,-0.86 0.01,-1.69 z" 
                fill="rgb(151, 144, 238)" 
                stroke="white" 
                stroke-width=".7px"
                title="Beja" 
                id="PT-02" 
            />
        </svg>