<svg xmlns="http://www.w3.org/2000/svg" viewBox="753.0780300000001 7.30987999999999 39.25000000000023 40.64999999999999" width="39.25000000000023" height="40.64999999999999">
            <path 
                d="m 773.03803,7.44988 0.99,0.22 0.57,1.71 0.76,0.28 3.32,-0.12 1.05,-1.17 1.22,0.97 -0.68,2.58 1.75,0.5 -0.88,3.94 -0.8,1.47 0.41,0.26 0.45,2.4 1.33,0.98 1.33,-0.4 0.41,-0.77 4.49,0.97 1.51,1.22 0.59,1.09 1.08,0.52 0.39,0.84 -1.51,2.24 -0.66,0.31 0.22,0.58 -0.47,0.08 0.13,0.49 -0.71,0.32 -0.67,1.23 0.17,0.88 -1.05,0.77 0.49,1.04 -1.1,0.31 -0.44,-0.64 -0.73,0.37 -0.12,0.62 0.52,0.44 -1.21,0.48 -0.71,1.79 -1.55,0.58 0.27,0.65 -0.57,0.41 -0.83,-0.4 -1.54,1.53 -0.64,-0.68 -0.26,0.49 -1.53,-0.17 -1.36,1.59 -0.56,1.55 -1.86,1.58 0.44,1.28 -1.73,2.82 -1.88,0.4 -1.51,-0.48 -0.48,0.38 0,0 -1.19,-0.29 -0.72,0.47 -0.19,-0.49 -1.44,-0.31 -0.47,-0.78 -1.37,-0.73 -0.02,-1.01 0.59,-0.89 -1.47,-0.49 0.49,-0.55 -0.08,-1.19 -1.47,2.22 -2.71,-0.79 -1.73,0.23 0,0 -1.68,-0.35 -1.04,-1.98 -1.31,-0.65 0,0 0.56,-1.57 0.85,0.16 -0.13,-1.73 0.93,-0.76 -0.42,-0.44 0.61,-0.7 1.31,-0.3 -1.48,-1.11 0.28,-0.49 -0.45,-1.62 0,0 0.05,-1.06 0,0 2.11,-1.01 -0.1,-0.97 0.56,-1.18 1.73,-0.3 -0.93,-1.7 -0.01,-1.18 1.58,-5.09 1.16,-1.37 0.03,-1.06 -0.72,-0.52 0,0 -0.52,-1.34 0,0 0.31,-2.77 0,0 0.86,-1.67 -0.51,-0.95 0.13,-1.3 1.39,-0.78 1.7,0.73 0.49,1 2.08,-0.03 0.85,-0.99 0.68,0.21 0.42,1.03 1.65,0.2 2.23,-0.26 0.32,-1.97 z" 
                fill="rgb(151, 144, 238)" 
                stroke="white" 
                stroke-width=".7px"
                title="Bragança" 
                id="PT-04" 
            />
        </svg>