<svg xmlns="http://www.w3.org/2000/svg" viewBox="706.4180299999998 68.91988 37.19000000000017 24.580000000000112" width="37.19000000000017" height="24.580000000000112">
            <path 
                d="m 710.37803,68.91988 2.6,2.53 0,0 1.23,1.27 0,0 0.88,0.09 0.11,-1.63 0.53,-0.82 0.97,0.27 0.29,0.59 0.08,2.67 2.13,-0.91 0,0.92 0.74,0.59 -0.11,2.9 -1.42,-0.01 0.2,1.04 1.12,-0.07 1.06,0.54 0.18,-1.58 1.24,-0.27 0.14,-1.16 0.94,0.44 0.55,-0.25 0.05,-0.82 0,0 0.42,-0.11 0.44,0.63 0.93,-0.14 1.54,1.44 1.83,-0.83 0.25,0.4 0.45,-0.47 1.16,0.49 2.89,-2.16 2.17,-0.81 2.83,-2.81 1.76,-1.05 0,0 0.04,0.69 0.96,1.01 -0.44,0.74 -1.18,0.44 0.09,0.61 0.58,0.45 0.94,-0.08 -0.25,2.3 1.48,0.73 -0.23,0.63 -1.23,0.36 -0.68,1.73 1.38,1.48 0,0 -0.85,1.98 0.4,0.84 1.9,1.52 0.14,0.76 -0.62,0.25 0.27,0.32 -0.96,1.15 -0.43,-0.89 -0.96,0.38 0,0 0.66,-0.03 -0.31,0.29 0,0 -0.06,1.42 -0.53,-0.62 -1.24,-0.3 -1.63,1.04 0.44,1.23 -1.61,0.01 -0.33,1.04 -0.44,-0.49 -0.64,0.45 -0.51,-0.46 0.27,0.69 -0.38,0.06 -0.45,-0.56 -0.05,0.99 -0.74,-0.37 -0.3,0.62 -0.64,-0.44 0.11,0.75 -1.02,-0.07 -0.12,0.6 0,0 -0.43,-0.24 0.71,-1.3 -1.45,-2.07 0.38,-2.09 -1.11,-0.69 -0.97,1.54 -1.03,-0.62 -1.06,0.9 -0.7,1.48 0.87,0.83 -0.28,1.22 -1.09,-1.2 -1.89,2.66 -1.11,-0.33 0.92,-0.97 -1.46,-2.92 -0.34,0.44 0.31,0.75 -0.96,-0.83 -1.05,1.3 -1,0.07 -0.52,1.46 -0.73,-3.25 -0.94,0.02 -0.74,1.45 -0.88,0.08 0.06,-0.85 -1.09,-0.78 -2.87,-0.45 -1.08,1.17 -1.23,-0.66 -0.92,0.21 -0.8,-0.86 0,0 1.02,-3.83 -1.51,-2.06 2.05,-5.9 z" 
                fill="rgb(151, 144, 238)" 
                stroke="white" 
                stroke-width=".7px"
                title="Coimbra" 
                id="PT-06" 
            />
        </svg>