<svg xmlns="http://www.w3.org/2000/svg" viewBox="703.66803 190.05987999999996 50.21000000000038 22.370000000000033" width="50.21000000000038" height="22.370000000000033">
            <path 
                d="m 740.65803,210.78988 0.55,0.1 -1.95,1.54 0.45,-1.02 0.95,-0.62 z m -3.7,-0.07 2.27,1.68 -1.73,-0.23 -1.68,-1.24 1.14,-0.21 z m 3.92,-0.63 0.37,0.36 -1.61,0.47 1.24,-0.83 z m -13.05,-2.4 -2.1,0.43 -2.13,-1.16 -2.25,0.64 -3.12,-1.28 -2.55,-0.2 -1.53,0.64 -0.09,1.1 -1.87,-0.3 -1.93,0.93 -1.64,0.09 -0.75,0.73 -0.96,-0.02 -1.69,1.93 -0.5,-1.25 -1.05,0.11 2.95,-5.64 -0.47,-1.23 0.71,-0.4 1.12,-2.47 -0.56,-2.06 1.05,-1.23 1.53,-3.6 0,0 1.47,0.44 0.51,1.45 2.19,-0.22 0.78,1 0.74,-1.04 1.45,-0.37 1.73,1.29 2.02,0.09 0.92,-0.69 0.12,-1 2.57,-0.54 0.24,0.38 0.29,-0.61 1.33,0.54 0.41,0.69 -0.32,0.82 0.83,0.08 1.91,1.71 3.87,0.89 1.21,-1.41 1.16,-0.33 -0.51,-0.57 0.78,-1.17 1.35,0.13 0.47,-0.4 0.53,0.38 0.17,-0.52 0.37,0.09 -0.02,-0.77 1.13,-0.11 0.09,-0.46 0.64,0.03 0.32,-0.55 0.33,0.26 1.55,-0.92 -0.06,-0.34 0.36,0.31 2.48,-1.03 1.8,0.56 1.4,-1.48 1.95,0.11 0,0 0.64,0.16 0.25,0.95 0.64,0.44 -0.16,0.74 0.74,1.95 -0.54,0.41 0.7,0.71 -0.05,3.15 0.65,1.48 -0.38,0.94 0.64,0.98 0.19,2.12 -1.64,-0.22 -3.2,1.01 -7.37,5.39 -1.02,-0.48 -1.39,0.82 0.01,0.84 -0.46,0.15 -1.78,-1.13 -1.33,0.25 -4.04,-2.62 -2.27,-0.8 -1.56,0.28 z" 
                fill="rgb(151, 144, 238)" 
                stroke="white" 
                stroke-width=".7px"
                title="Faro" 
                id="PT-08" 
            />
        </svg>