<svg xmlns="http://www.w3.org/2000/svg" viewBox="739.9780300000004 41.51988000000001 33.68999999999983 39.40999999999996" width="33.68999999999983" height="39.40999999999996">
            <path 
                d="m 753.52803,52.25988 1.23,0.85 -0.62,0.88 -1.01,-0.59 0.4,-1.14 z m 3.58,-9.08 1.74,-0.23 2.7,0.79 1.47,-2.22 0.09,1.19 -0.49,0.55 1.46,0.49 -0.59,0.89 0.02,1.02 1.37,0.72 0.47,0.78 1.44,0.32 0.19,0.49 0.73,-0.47 1.19,0.29 0,0 0.31,1.12 1.97,2.2 0.32,1.96 1.27,0.85 0.23,0.9 0,0.63 -0.79,0.22 0.32,1.8 -0.45,1.84 1.17,3.8 -1.62,3.95 1.41,0.65 0.18,1.61 -1.72,2.48 0.48,1.81 1.69,1.78 -0.41,1.49 -2.12,1.19 -0.3,1.53 -2.54,0.2 0,0 -1.98,-1.34 -0.52,0.49 -1.68,-0.01 -0.89,-1.9 -0.6,0.51 -0.17,1.21 -0.8,0.59 -1.61,-0.72 -0.87,1.14 -2.49,-0.92 -0.43,-0.55 0.82,-0.42 1.04,-1.79 0.1,-2.5 -0.71,-0.33 -0.44,0.52 -0.66,-0.3 -0.55,1.19 -0.46,-0.43 -1.1,0.48 -0.98,-0.47 -0.68,0.21 -0.45,-0.62 -0.8,0.29 -0.88,1.07 -0.7,2.1 -1.39,0.27 -0.87,-0.51 -0.31,0.98 -1.18,1.08 -1.7,0.53 -0.76,0.99 -1.54,0.29 0,0 -1.37,-1.48 0.68,-1.72 1.23,-0.36 0.23,-0.63 -1.48,-0.72 0.25,-2.3 -0.94,0.08 -0.58,-0.45 -0.1,-0.61 1.18,-0.43 0.44,-0.75 -0.96,-1.01 -0.03,-0.69 0,0 5.14,-2.53 2.67,-0.57 -0.26,-0.5 0.73,-2.48 0.75,-0.58 -0.29,-0.73 0.51,-0.55 -1.76,-0.98 -0.18,-0.62 0.82,-0.85 -1.81,-1.34 1.33,-2.96 0.79,-0.82 1.49,0.12 1.91,2.37 1.59,-2.75 0.74,0.41 0.18,-1.82 0,0 1.2,-0.9 0,0 0.35,-1.58 -1.69,-0.8 -0.01,-0.92 1.31,-0.04 -0.26,-1.34 1.25,-3.92 z" 
                fill="rgb(151, 144, 238)" 
                stroke="white" 
                stroke-width=".7px"
                title="Guarda" 
                id="PT-09" 
            />
        </svg>