<svg xmlns="http://www.w3.org/2000/svg" viewBox="687.7680300000001 118.26988000000003 22.729999999999905 26.069999999999993" width="22.729999999999905" height="26.069999999999993">
            <path 
                d="m 698.98803,143.04988 -2.24,0.55 -2.05,-0.29 -1.35,1.03 -2.16,-1.16 -1.09,0.51 -1.88,-0.76 0.45,-1.68 -0.9,-1.24 2.6,-6.54 0.25,0.18 -0.55,-2.59 0.18,-2.93 2.41,-5.21 0.14,-3.6 0,0 1.4,0.34 1.31,-1.39 0.32,0.52 1.42,0.11 0.43,1.36 -0.48,0.86 0.77,1.47 1.11,-0.72 1.08,-1.9 0,0 1.15,-0.95 0,0 0.19,-0.42 0.85,-0.02 0.41,0.69 1.01,-0.14 0,0 0.61,0.39 -0.19,1.52 0.59,-0.23 1.61,0.83 1.15,-0.64 0.42,0.83 0.93,0.29 0.2,1.51 -1.7,-0.02 -1.03,0.59 1.44,1.77 2.19,1.3 0.51,1.54 -1.32,1.23 -1.16,-0.03 0.6,0.48 -1.13,1.9 0.84,0.29 -1.28,0.74 -0.63,2.27 -1.82,2.5 0,0 -0.66,-1.03 0.36,-0.62 -0.52,-0.66 -0.02,-2.33 -0.77,2.15 -2.05,2.76 -0.57,3.53 -1.38,1.06 z" 
                fill="rgb(151, 144, 238)" 
                stroke="white" 
                stroke-width=".7px"
                title="Lisboa" 
                id="PT-11" 
            />
        </svg>