<svg xmlns="http://www.w3.org/2000/svg" viewBox="442.50803000000013 360.4998800000001 30.869999999999777 26.31999999999988" width="30.869999999999777" height="26.31999999999988">
            <path 
                d="m 467.04803,385.03988 0.33,0.95 0.49,0.83 -0.51,-0.25 -0.17,-0.31 -0.28,-0.84 0.14,-0.38 z m -0.62,-2.95 0.49,1.05 0.06,0.99 -0.77,-1.89 -0.67,-0.54 -0.09,-1.18 0.59,0.7 0.39,0.87 z m -20.74,-12.62 0.5,0.79 0.77,0.74 0.61,0.03 0.39,0.43 1.32,0.26 1.12,-0.26 0.83,-0.56 0.82,0.14 1.89,-0.41 0.63,0.4 0.64,0.73 0.87,0.75 0.43,0.71 0.77,0.21 0.63,0.18 1.05,0.08 0.55,0.15 0.6,-0.02 0.3,0.14 -0.14,0.35 -0.84,0.04 -0.5,0.12 -0.32,0.56 -0.26,0.11 0.09,0.35 -0.38,0.62 -0.62,0.21 -0.32,0.83 -0.88,0.84 -0.59,0.15 -0.9,-0.34 -0.87,-0.05 -0.35,0.19 -0.92,0.32 -0.27,-0.32 -0.98,-0.36 -0.96,-0.04 -2.19,-1.01 -0.59,0.05 -1.08,-0.94 -2.34,-1.26 -1.03,-1.35 0.06,-0.32 -0.26,-0.75 -0.46,-0.49 2.09,-2.01 1.09,0.01 z m 27.27,-8.58 0.28,-0.04 -0.17,0.41 0.31,0.41 -0.27,0.24 0.16,0.36 -0.62,-0.14 -0.47,0.11 -1.64,1.38 -0.15,-0.26 -0.28,-0.05 -0.15,-0.32 0.3,-0.02 0.31,-0.5 0.15,-0.58 -0.11,-0.16 0.23,-0.3 0.32,-0.02 0.2,-0.37 0.6,-0.18 0.4,-0.36 0.6,0.39 z" 
                fill="rgb(151, 144, 238)" 
                stroke="white" 
                stroke-width=".7px"
                title="Madeira" 
                id="PT-30" 
            />
        </svg>