<svg xmlns="http://www.w3.org/2000/svg" viewBox="710.2980299999999 29.289880000000004 28.799999999999727 19.689999999999998" width="28.799999999999727" height="19.689999999999998">
            <path 
                d="m 713.33803,41.93988 -0.84,-1.46 -0.7,-5.37 -1.5,-3.47 0.37,-2.35 0,0 0.93,0.11 1.42,1.11 0.97,-0.13 0.63,1.08 1.42,0.29 0.46,0.53 -0.62,0.37 0,0 -0.41,0.36 0.4,1.75 0,0 2.91,-0.19 0.54,-0.95 1.45,-0.3 0.76,0.53 1.01,-0.89 0.48,0.14 -0.31,0.8 2.15,-0.63 0.3,1.07 0.92,0.43 0.3,-1.19 1,-1.04 0.75,0.03 0.28,-0.77 1.5,0.48 0.22,0.8 0.61,0.15 -0.22,0.73 0.85,0.72 1.05,0.58 0.67,-0.58 1.09,1.02 1.34,-1.19 0.46,-1.17 0,0 0.05,0.62 0.8,0.32 -0.52,0.97 1.78,1.13 -0.43,0.5 0.16,0.75 1.28,1.28 -1.15,5.11 0,0 -1.26,-0.12 -3.19,1.38 -1.36,-0.46 -1.25,0.71 -2.18,-0.43 -1.88,1.18 0,0 -0.95,-0.59 -1.68,1.65 -1.62,-0.49 -0.06,0.84 0.55,0.39 -0.19,0.9 -1.29,-0.88 -0.59,-1.29 -0.25,0.46 -0.93,-0.43 -0.2,0.55 0.82,0.39 -0.79,0.33 -0.09,0.5 -0.65,-0.22 -0.41,-1.03 -0.91,1.04 -1.4,0.29 -0.14,-0.72 -1.23,0.41 0,0 -0.73,-5.16 -0.75,-1.28 z" 
                fill="rgb(151, 144, 238)" 
                stroke="white" 
                stroke-width=".7px"
                title="Porto" 
                id="PT-13" 
            />
        </svg>