<svg xmlns="http://www.w3.org/2000/svg" viewBox="703.73803 97.00988000000001 37.410000000000196 44.90999999999988" width="37.410000000000196" height="44.90999999999988">
            <path 
                d="m 703.73803,119.09988 0.11,-3.25 0.7,-0.72 0.72,0.13 1.34,-3.05 3.19,-0.69 2.31,0.12 -0.54,-2 0.4,-0.29 0.61,0.63 1.36,-1.71 -0.97,-3.08 1.67,-0.92 0.49,-1.37 -1.43,-0.6 0.47,-0.66 -0.52,-0.89 0.13,-1.11 1.31,-0.65 1.34,0.53 1.62,-1.02 0.69,-1.08 0.43,0.53 0.91,-0.94 0.77,4.39 1.54,-1.2 0.76,0.34 1.1,-0.92 0.5,0.51 -0.1,-1.67 1.5,0.28 0,0 0.01,0.04 0,0 0.61,1.07 0.72,-0.42 0.44,1.06 -0.23,4.42 3.21,1.38 2.51,-0.24 -0.69,-1.7 0.6,-0.53 0.1,-2.61 0.55,-0.49 0.98,0.17 0.5,0.62 0.64,-0.69 0.53,1.17 -0.13,2.27 1.36,-0.29 0.71,1.02 0.87,0.21 1.33,2.01 0,0 0.38,0.75 0,0 -0.46,1.35 0,0 -0.83,1.08 -3.29,-2.19 -1.69,3.72 0.49,1.04 1.71,1.53 -0.92,1.11 -1.94,0.76 0.11,0.92 -1.65,2.58 -1.79,-0.34 -0.63,0.78 0.14,0.7 -1.1,1.28 -1.65,1.51 -1.89,0.73 -1.43,2.16 0.29,0.61 1.37,0.59 0.01,0.88 0.73,0.32 0.58,1.92 0.71,-0.05 -0.03,0.7 0,0 -0.46,0.56 -0.01,1.42 -0.93,1.25 1.96,0.92 0.08,0.42 0.83,-0.2 0.73,0.53 -0.91,1.17 0.67,0.37 0.2,0.88 0.3,-0.54 0.79,0.66 -0.51,1.23 -1.15,-0.62 0.14,-0.51 -0.99,0.07 0.24,-0.35 -0.8,-0.87 -0.9,0.45 -0.51,-0.67 0.21,-0.33 -1.28,-0.99 -0.29,0.93 -0.35,-0.58 -0.64,0.82 -1.14,-0.71 -1,1.35 -0.32,-0.59 -0.35,0.14 -1.27,1.59 -0.95,-0.5 -1.47,1.78 0,0 -2.09,-0.79 0.53,-2.33 -1.04,0.41 -0.31,0.86 -2.17,-1.45 -1.44,4.14 -1.2,0.35 -1.5,-1.11 -1.69,0.83 -0.37,-0.22 -0.11,0.43 -0.58,-0.95 0,0 -0.6,-0.74 0.45,-0.27 -0.14,-0.77 -1.06,-0.91 0,0 1.82,-2.5 0.63,-2.27 1.28,-0.73 -0.84,-0.29 1.14,-1.9 -0.6,-0.48 1.16,0.03 1.32,-1.23 -0.51,-1.54 -2.19,-1.3 -1.44,-1.77 1.03,-0.59 1.71,0.02 -0.2,-1.51 -0.93,-0.29 -0.42,-0.83 -1.15,0.64 -1.6,-0.83 -0.59,0.23 0.2,-1.52 -0.67,-0.45 z" 
                fill="rgb(151, 144, 238)" 
                stroke="white" 
                stroke-width=".7px"
                title="Santarém" 
                id="PT-14" 
            />
        </svg>