<svg xmlns="http://www.w3.org/2000/svg" viewBox="695.24803 137.38988000000003 35.820000000000164 43.920000000000044" width="35.820000000000164" height="43.920000000000044">
            <path 
                d="m 710.51803,154.44988 3.4,0.11 -0.89,-0.95 -0.67,0.05 0,-2.97 -0.57,-0.31 -0.09,-1.48 -0.66,1.32 -0.81,-0.64 0.22,1.13 -0.92,0.22 1.7,0.16 0.06,0.75 -0.77,0.58 -0.59,0.14 0.12,-0.69 -3.29,-1.38 -0.96,0.47 -0.16,0.81 -1.48,0.37 -1.51,1.33 -1.12,0.45 -1.39,-0.33 -0.82,0.55 -1.1,-0.02 -0.86,0.81 -0.85,-0.18 1.3,-3.69 1.19,-0.74 -1.2,0.31 -0.93,-3.58 -1.62,-2.32 3.69,-1.03 -0.01,0.91 1.46,0.68 -0.85,-0.13 0.67,1.27 -0.04,-0.88 0.77,-0.08 1.02,1.63 -0.47,-1.8 -0.82,-0.44 1.57,-0.78 0.11,0.71 0.55,-0.36 0.82,0.77 -0.46,-1.27 1.28,-0.69 -1.98,-0.02 -0.54,0.44 0.14,-1.04 2.6,-1.67 1.16,-0.11 0,0 0.58,0.95 0.11,-0.43 0.37,0.23 1.69,-0.82 1.5,1.11 1.2,-0.35 1.44,-4.14 2.17,1.46 0.31,-0.86 1.04,-0.41 -0.53,2.33 2.09,0.79 0,0 1.76,0.09 -0.63,1.03 0.31,0.82 -4.81,4.16 0.45,2.53 2.02,0.06 0.08,0.66 1.27,0.14 0.12,0.68 0.71,-0.32 -0.44,-0.95 0.49,-0.18 0.9,1.24 0.96,-0.43 0.71,0.26 1.71,-1 1.86,3.51 -0.4,0.87 1,-0.09 0.24,0.53 -0.57,0.06 0.57,0.49 -1.23,1.6 1.43,0.03 0.26,0.72 2.26,0.44 1.05,0.91 0,0 1.1,2.15 0,1.7 -2.86,0.86 -0.61,0.92 -1.4,-0.29 -0.22,1.9 -0.65,0.01 -0.72,-0.68 -0.14,0.56 -0.55,0.11 -0.25,1.38 -0.8,-0.45 -0.66,1.69 1.45,2.03 1.42,-0.17 0.8,1.31 -0.49,3.26 0.31,0.5 -1.13,1.3 0.14,0.78 -3.28,-0.95 -0.19,0.43 -3.06,0.26 -0.44,0.24 0.07,1.25 -0.54,-0.11 -0.56,0.77 -0.1,1.69 -0.62,-0.13 -0.33,0.43 -1.38,-0.75 -0.71,0.6 -1.64,-2.45 -1.29,0.39 -0.53,-0.58 0,0 -0.48,-4.31 -1.41,-0.32 -0.45,-0.73 -0.66,0.08 1.58,-2.76 1.56,-4.99 0.44,-3.72 -0.32,-3.94 -1.31,-3.37 -2.55,-2.86 2.59,1.92 0.82,2.23 -0.26,-2.13 0.86,0.83 z" 
                fill="rgb(151, 144, 238)" 
                stroke="white" 
                stroke-width=".7px"
                title="Setúbal" 
                id="PT-15" 
            />
        </svg>