<svg xmlns="http://www.w3.org/2000/svg" viewBox="707.3380300000001 0.4498799999999986 25.18999999999994 22.909999999999997" width="25.18999999999994" height="22.909999999999997">
            <path 
                d="m 729.09803,0.94988 0.29,3.29 2.01,-0.73 0.69,0.42 0.44,1.87 -0.33,0.7 -1.09,0.26 -1.11,0.97 -1.7,2.93 0.53,1.67 0.97,-0.11 0.13,2.46 0,0 -0.07,0.45 -0.91,-0.21 -2.39,1.74 -0.71,-0.41 -0.39,0.83 -1.39,0.06 -0.77,-0.44 -1.56,0.55 -1.17,1.05 -0.77,0.22 -0.04,-0.53 -0.46,0.05 -0.53,0.53 -0.1,1.96 -0.81,0.68 0.21,1.35 -0.7,0.32 -0.46,-0.81 -0.85,0.36 -1.23,-0.85 -0.25,0.98 -0.41,-0.47 -1.03,0.07 -1.9,1.11 -1.67,0.09 0,0 -0.51,-2.47 -0.44,-0.54 -0.15,0.43 -1.13,-3.22 0.18,-2.01 0.46,-0.54 -0.45,-0.45 0.04,-2.08 1.73,-1.73 1.96,-0.93 0.38,-1.38 2.59,-1.55 0.15,-1.17 0.68,-0.75 2.84,-0.27 0.83,-1.08 2.42,-0.12 0.45,0.43 1.49,-0.17 0.59,-0.6 0.98,0.28 0.47,-0.87 1.85,-0.73 0.15,-0.64 0.94,0.14 0.8,-0.89 z" 
                fill="rgb(151, 144, 238)" 
                stroke="white" 
                stroke-width=".7px"
                title="Viana do Castelo" 
                id="PT-16" 
            />
        </svg>