<svg xmlns="http://www.w3.org/2000/svg" viewBox="731.3680300000003 10.07988 29.949999999999704 33.91999999999999" width="29.949999999999704" height="33.91999999999999">
            <path 
                d="m 738.11803,10.07988 0.67,0.12 -0.24,2.74 0.61,0.61 0.99,-0.91 -0.12,-0.62 1.68,-0.08 0.9,-0.67 0.95,0.28 1.03,-0.65 1.48,1.12 2.15,-0.03 -0.81,2.23 2.85,-0.54 0.6,-1.16 1.57,0.18 0.28,1.09 0.57,0.38 -0.08,0.97 1.97,-1.92 0.3,0.52 1.3,-0.09 3.62,-1.56 0,0 -0.31,2.77 0,0 0.52,1.34 0,0 0.72,0.52 -0.03,1.06 -1.16,1.37 -1.58,5.09 0.01,1.18 0.93,1.7 -1.73,0.3 -0.56,1.18 0.1,0.97 -2.11,1.01 0,0 -0.05,1.06 0,0 0.45,1.62 -0.28,0.49 1.48,1.11 -1.31,0.3 -0.61,0.7 0.42,0.44 -0.93,0.76 0.13,1.73 -0.85,-0.16 -0.56,1.57 0,0 -2.24,0.48 -0.65,0.82 -0.77,-0.36 -1.33,1.34 -2.36,-0.27 -1.05,0.89 -3.13,-0.85 -0.53,0.67 -1.9,-0.47 -1.19,1.55 0,0 1.14,-5.11 -1.28,-1.28 -0.16,-0.75 0.43,-0.5 -1.78,-1.13 0.53,-0.97 -0.8,-0.32 -0.05,-0.62 0,0 0.21,-0.71 -0.43,-0.12 1.26,-1.5 0.1,-1.98 1.12,-0.48 0.29,-1.02 1.01,0.07 -0.08,-0.53 0.85,-0.5 -0.07,-0.71 0.59,-0.12 0.31,-0.72 -1.27,-1.76 -0.96,1.14 -3.66,-0.65 0.26,-3.43 -1.52,-0.67 -2.6,0.49 0.99,-0.99 0.83,-2.02 0.34,-2.48 0,0 1.2,-0.43 1.22,-1.93 1.68,-0.11 z" 
                fill="rgb(151, 144, 238)" 
                stroke="white" 
                stroke-width=".7px"
                title="Vila Real" 
                id="PT-17" 
            />
        </svg>