<svg xmlns="http://www.w3.org/2000/svg" viewBox="723.8980299999998 40.19987999999998 33.200000000000045 36.870000000000005" width="33.200000000000045" height="36.870000000000005">
            <path 
                d="m 753.07803,40.19988 1.31,0.65 1.04,1.98 1.67,0.35 0,0 -1.3,3.89 0.26,1.34 -1.31,0.04 0.01,0.92 1.69,0.8 -0.34,1.58 0,0 -1.2,0.9 0,0 -0.18,1.82 -0.73,-0.41 -1.59,2.75 -1.91,-2.37 -1.49,-0.12 -0.79,0.82 -1.33,2.96 1.81,1.34 -0.82,0.85 0.18,0.62 1.77,0.98 -0.51,0.55 0.29,0.73 -0.75,0.58 -0.73,2.48 0.26,0.5 -2.67,0.57 -5.14,2.53 0,0 -1.77,1.05 -2.83,2.81 -2.17,0.81 -2.89,2.16 -1.16,-0.49 -0.45,0.47 -0.25,-0.4 -1.83,0.83 -1.54,-1.44 -0.93,0.14 -0.44,-0.62 -0.42,0.11 0,0 0.04,-1.72 1.18,-1.34 -0.57,-1.85 2.7,-1.04 -1.1,-1.16 -0.74,-2.37 1.99,-0.83 -1.55,-0.78 -0.08,-2.41 -0.92,-0.75 -0.19,-1.19 1.88,-0.71 1.13,-2.85 -0.57,-1.27 0.76,-0.37 1.28,0.77 0.73,-0.83 1.19,0.72 0.84,-0.75 -0.79,-1.3 -0.15,-2.07 1.37,-1.65 -0.06,-0.89 -0.25,-0.19 -1.08,1.45 -1.92,-0.82 -0.59,0.17 0.28,-0.67 -0.96,-0.07 -0.2,-0.56 0.32,-0.09 -0.2,-1.26 -0.85,-0.34 0,0 1.88,-1.18 2.18,0.43 1.25,-0.71 1.36,0.47 3.19,-1.38 1.26,0.12 0,0 1.2,-1.55 1.9,0.47 0.53,-0.67 3.13,0.85 1.05,-0.89 2.35,0.27 1.33,-1.34 0.77,0.36 0.65,-0.83 2.23,-0.46 z m 0.05,13.2 1.01,0.59 0.62,-0.88 -1.23,-0.85 -0.4,1.14 z" 
                fill="rgb(151, 144, 238)" 
                stroke="white" 
                stroke-width=".7px"
                title="Viseu" 
                id="PT-18" 
            />
        </svg>