<svg xmlns="http://www.w3.org/2000/svg" viewBox="517.1014499999993 50.48873999999998 73.64000000000033 100.14000000000001" width="73.64000000000033" height="100.14000000000001">
            <path 
                d="m 581.47145,109.96874 -1.5,0.94 -0.71,-0.07 -0.42,0.77 -1.46,0.34 -1.73,-0.32 -0.24,-0.6 -0.83,0 -0.93,2.37 -0.32,0.17 -0.06,1.5 -0.71,1.07 -1.54,0.84 -0.24,2.37 -0.95,0 -0.95,0.6 -0.12,1.18 -0.83,1.07 -1.41,0.74 -0.18,0.45 -0.67,0.18 -0.48,0.48 -0.95,0.11 -0.71,-0.47 -1.19,0.59 -0.12,2.02 -0.08,0.57 -1.69,0.72 -0.6,1.21 -0.83,0.59 -2.03,2.14 -1.35,-0.26 -0.43,1.03 -0.04,0.18 -0.91,0 -0.12,3.45 -1.42,0.12 -0.95,2.02 -0.24,1.42 0.12,0.83 1.19,1.31 0.11,0.83 -0.83,0.48 -2.14,0.95 -2.25,-0.24 0.23,1.07 1.55,1.67 1.31,1.06 0,2.02 -2.02,0.12 -0.24,0.84 -1.66,-0.36 -1.19,-0.71 -0.95,0.71 -0.57,0.56 -0.13,-0.01 -2.01,-1.61 -3.26,0.75 0,0 -2.01,0 0,0 -2.76,0 0.04,-0.32 0.12,-0.08 -0.24,-1.19 -1.07,-0.36 -1.66,0 -0.7,0.76 -0.58,-0.1 -6.31,-0.06 -0.95,0.17 -1.01,0.51 0,0 -1.32,-2.82 -0.35,-1.14 0.43,-1.65 1.18,-2.96 1.49,-0.79 0.95,-0.71 1.43,-5.82 -3.3,-4.69 -2.28,-1.73 -1.59,-3.59 -1.2,-3.72 0.1,-1.01 4.71,-4.75 3.07,-0.8 1.91,0.39 4.45,-0.06 2.92,-1.31 1.55,-3.57 0.59,-3.33 1.07,-2.13 0.72,-2.26 2.01,-3.21 1.58,-1.24 -0.99,-1.64 -2.49,-3.89 -0.23,-3.09 4.04,-3.69 0.71,-2.97 1.31,-1.25 1.78,-1.3 1.19,-0.72 1.66,-0.71 1.43,-0.95 4.22,-5.52 1.25,-1.5 2.09,-2.89 1.14,-3.35 0.56,-1.47 0.48,-1.43 0,-1.9 0.24,-1.55 -0.24,-1.78 0,-2.49 1.01,0.48 0,0 0.17,0.72 1.1,2.7 0.65,1 0.95,0.47 1.44,-0.58 0.56,-1.44 0.92,-0.86 1.32,0.06 1.78,0 1.54,-0.83 0,-0.56 0.17,0.12 1.02,-2.89 0.83,0 1.55,0.24 0.95,1.66 0.12,0.72 -0.48,0.95 0,1.19 0.71,0.35 1.19,0.48 0.24,1.78 -0.47,0 -0.24,0.83 -1.14,1.89 0.11,0.15 0.69,0.69 1.7,0.79 1.96,-0.07 0.84,0.71 -0.06,0.68 0.28,0.21 1.01,0.22 -1.48,1.98 -0.24,1.9 0,0 0.12,2.73 0,0 0.47,3.21 1.12,2.79 2.1,0.66 2.02,0.12 2.38,0 0.83,0.59 0.72,1.31 -0.12,2.14 0.23,3.09 0.24,3.8 -1.66,0.83 -1.88,3.99 -0.84,1.65 -0.48,0.51 0,0 0.99,-0.03 0,0 -0.52,3.68 -1.07,0.72 -1.03,0.56 -0.49,1.12 0.33,2.36 -0.83,0 -0.58,-0.46 -0.95,0.57 -0.61,1.56 0,0 z" 
                fill="rgb(151, 144, 238)" 
                stroke="white" 
                stroke-width=".7px"
                title=" Manabí" 
                id="EC-M" 
            />
        </svg>