<svg xmlns="http://www.w3.org/2000/svg" viewBox="572.0014499999995 187.91874 63.78000000000043 53.56999999999999" width="63.78000000000043" height="53.56999999999999">
            <path 
                d="m 587.68145,188.54874 1.41,-0.57 1.62,-0.06 0.9,0.38 0.1,0.27 0.81,-0.12 2.74,0.71 1.78,2.02 0.47,3.45 -0.19,0.78 -0.4,0.35 0.59,2.02 2.26,1.42 3.07,-0.39 0.26,0.16 1.54,0.11 0.95,-1.3 1.07,-1.07 0.84,0.83 1.54,2.73 1.07,0.6 0.59,1.54 0.12,1.31 0.72,0.83 1.06,0.36 1.43,-0.36 2.62,-0.24 0.13,-1.65 0.13,-0.03 1,-0.93 0.75,-2.06 1.25,-1.35 1.15,-0.72 1.2,-0.41 1.34,-0.21 1.39,-0.36 0.42,-0.26 0.39,-2.24 1.06,-1.3 0.66,0.04 -0.01,-0.17 1.78,-0.62 -0.17,1.82 0.36,1.3 1.19,0 1.42,-1.19 0.32,-0.83 0,0 0.51,0.24 0,0 1.31,0.12 1.43,0.83 0.12,1.19 -0.24,1.07 -1.07,0.24 -0.73,0.03 -0.34,0.5 -1.43,-0.18 -2.73,0.83 -1.19,0.84 -0.83,0.95 -0.36,1.54 0.24,1.55 0.25,0.02 0.7,0.79 -0.24,1.56 -0.59,1.07 -1.42,1.07 -0.84,1.31 -0.23,1.54 0,3.21 -0.48,2.14 -0.95,1.31 -1.31,0.83 -2.49,0.48 -1.55,1.3 -0.95,2.02 -1.19,2.38 -2.97,0.83 -1.78,1.31 -0.71,-0.12 -0.24,2.02 0,0 -1.66,0.95 0,0 -1.79,1.43 -1.66,1.42 0.36,1.31 0.39,1.09 -0.03,0.29 -0.84,0.94 -0.59,2.02 0.83,2.85 -0.71,0.95 -1.11,0.28 0,0 -0.14,-0.14 0,0 -0.77,-0.14 -1.19,-0.95 -0.6,-3.45 -0.59,-1.42 -1.19,-1.19 -0.6,-0.35 -0.43,0.36 -2.48,1.55 -0.88,-0.62 -0.79,-1.72 -0.23,-1.03 0.01,-1 -0.08,-2.3 -2.15,-0.79 -4.46,-0.1 -1.36,-0.28 0,0 -3.57,-0.39 0,0 -1.25,-0.06 -0.02,-0.16 -0.96,0 -1.07,-0.6 -0.35,-2.26 0.47,-0.35 0.95,-1.55 0.6,-0.71 0.04,-1.12 -0.04,-1.61 -1.31,-0.72 -1.27,0 -4.08,-1.24 0,0 -1.51,-1.87 0.31,-0.83 0,0 0.83,0.66 0.6,-1.53 1.22,-2.73 0.59,0 0.87,-1.62 0.76,-2.51 1.75,-3.51 2.01,-3.77 3.01,-5.27 1.76,-1.25 1.5,-1 0,-3.28 0,0 z" 
                fill="rgb(151, 144, 238)" 
                stroke="white" 
                stroke-width=".7px"
                title="Azuay" 
                id="EC-A" 
            />
        </svg>