<svg xmlns="http://www.w3.org/2000/svg" viewBox="589.2014500000001 123.92873999999998 27.720000000000027 49.27000000000001" width="27.720000000000027" height="49.27000000000001">
            <path 
                d="m 596.06145,126.32874 0.71,0.13 0.62,-0.08 0.84,-0.79 1.3,-0.95 1.55,-0.48 2.02,-0.23 2.26,0.12 0.6,0.98 0.11,0.05 1.02,0.85 2.19,0.43 2.73,-0.23 0.95,-1.67 3.21,0.24 0.75,0.5 0,0 -1.86,1.06 0,0 -0.09,1.01 -0.07,1.62 -0.8,2.16 -0.89,1.01 -0.88,0.68 0.81,2.52 0.11,0.1 0.19,1.1 0.47,1.19 1.19,1.67 0.55,0.2 0,0.22 0.12,0.8 0,0 0.03,0.15 -0.34,0.59 -0.83,1.9 -0.6,1.66 0,1.19 1.66,0.24 0.6,1.18 -0.24,1.55 -1.07,-0.12 0,1.07 0.1,0.73 -0.14,0.1 0.28,0.6 -1.19,1.18 -1.07,0.84 -1.53,-0.14 -0.13,0.07 -0.36,-0.17 -2.49,0.83 -0.48,2.97 -0.12,2.97 0.36,3.57 -0.83,1.9 0,3.09 -0.06,1.88 -1.74,1.48 0,0 -1.86,1.35 -0.62,-0.79 0,0 0.59,-0.83 0.48,-1.67 -1.55,0.36 0,0 -1.2,-0.11 0.05,-1.3 0,0 -0.06,-0.56 -2.94,-1.48 -1.67,-2.73 -0.95,-2.61 0.71,-2.14 0.71,-0.82 -0.33,-1.36 -0.03,-1.99 -0.19,-1.42 1.03,0 1.19,-0.71 0.24,-0.95 -1.07,-0.12 -0.95,-0.24 -0.72,0 -0.46,-3.38 -2.62,-0.54 -0.24,-1.07 1.19,-0.71 1.25,-0.36 -0.05,-0.24 0.7,-0.11 0.83,-0.95 0.24,-1.79 -0.95,-0.35 -1.4,0 -0.45,-2.46 -0.89,0.08 -1.54,-0.71 -0.24,-0.95 1.19,-0.12 1,-0.82 -0.21,-1 0.28,-0.8 1.19,-0.35 0.59,-3.33 -1.31,-0.48 -0.8,-0.06 0.08,-0.23 -0.51,-0.22 -1.97,0.99 -1.43,-0.12 -0.71,-0.47 0.95,-1.19 1.19,-0.72 0.95,-0.26 0,-0.21 1.07,-1.19 1.54,-0.71 0,0 0.94,-0.68 z" 
                fill="rgb(151, 144, 238)" 
                stroke="white" 
                stroke-width=".7px"
                title="Bolívar" 
                id="EC-B" 
            />
        </svg>