<svg xmlns="http://www.w3.org/2000/svg" viewBox="632.08145 12.508739999999998 44.549999999999955 38.52" width="44.549999999999955" height="38.52">
            <path 
                d="m 656.99145,28.20874 2.37,2.14 4.64,0.24 1.87,0.34 2.4,-0.93 3.93,-0.84 1.65,1.24 0.77,0.53 0.07,0.97 -1.54,1.07 0,1.3 1.23,0.48 2.25,2.36 0,0 -0.95,1.07 -1.53,-0.22 -1.43,1.54 -0.71,2.73 0,0 -2.14,2.74 -1.27,1.72 0,0 -0.46,0.3 -0.75,0.88 0,0 -0.33,0.95 -0.43,2.21 0,0 -1.7,-0.06 -1.36,-0.25 -1.33,-0.5 -1.83,-1.01 -0.98,-1.37 -3.86,-2.24 -2.27,-0.12 -0.25,-0.14 -0.77,-1.74 0.12,-2.26 -0.24,-1.78 -1.66,-2.38 -2.14,-1.78 -1.66,-2.37 -1.55,-1.79 -1.42,-0.4 -0.53,-0.53 -1.68,-0.96 -1.48,0.11 -2.61,-0.47 0,0 -0.67,0 0,0 -1.56,-0.66 -0.1,-0.29 -1.36,-0.3 0,-1.97 -1.27,-0.65 -0.22,-1.65 0.16,-0.64 -0.21,-1.03 -0.12,-3.21 0.8,-0.15 -0.03,-0.27 1.25,-0.77 0.24,-1.66 -0.36,-2.38 0.19,-0.85 0,0 1.17,0.34 2.99,1.94 0.6,2.02 2.35,1.86 1.69,0.87 2.25,0.83 3.21,0.71 1.19,1.43 0.12,0.95 2.71,1.75 2.28,2.17 z" 
                fill="rgb(151, 144, 238)" 
                stroke="white" 
                stroke-width=".7px"
                title="Carchi" 
                id="EC-C" 
            />
        </svg>