<svg xmlns="http://www.w3.org/2000/svg" viewBox="583.3714499999998 173.76874 50.390000000000214 31.14000000000007" width="50.390000000000214" height="31.14000000000007">
            <path 
                d="m 602.77145,173.76874 1.96,4.07 1.09,1.41 0.98,0.91 2.63,1.93 0.67,0.43 0.53,0.77 1.93,-0.16 3.86,0 0.98,-0.32 1.24,-0.61 0.02,0.47 1.42,-0.79 1.26,-2.01 1,0 0.75,1.26 2.26,0.25 1.01,-2.26 1.5,0 1,0.75 2.01,0 0,0 -0.18,0.25 0,0 2.47,2.45 0.3,1.1 -0.18,1.39 0.48,1.55 -0.36,3.44 -0.24,1.43 -0.95,0.47 -0.33,0.95 0,0 0.53,0.24 0,0 -0.32,0.83 -1.42,1.19 -1.19,0 -0.36,-1.3 0.17,-1.82 -1.78,0.62 0.01,0.17 -0.66,-0.04 -1.06,1.3 -0.39,2.24 -0.42,0.26 -1.39,0.36 -1.34,0.21 -1.2,0.41 -1.15,0.72 -1.25,1.35 -0.75,2.06 -1,0.93 -0.13,0.03 -0.13,1.65 -2.62,0.24 -1.43,0.36 -1.06,-0.36 -0.72,-0.83 -0.12,-1.31 -0.59,-1.54 -1.07,-0.6 -1.54,-2.73 -0.84,-0.83 -1.07,1.07 -0.95,1.3 -1.54,-0.11 -0.26,-0.16 -3.07,0.39 -2.26,-1.42 -0.59,-2.02 0.4,-0.35 0.19,-0.78 -0.47,-3.45 -1.78,-2.02 -2.74,-0.71 -0.81,0.12 -0.1,-0.27 -0.9,-0.38 -1.62,0.06 -1.41,0.57 0,0 -1.11,0.17 0,0 -1.29,0.8 -1.19,-0.48 -0.72,-1.07 1.43,-1.06 1.19,-1.07 1.42,-1.55 0.6,-2.38 0.59,-1.3 1.31,-0.24 0.83,0.36 0.83,0.07 1.91,-1.42 1.18,0.04 2.85,-0.36 2.74,0 1.07,-1.78 0.95,-1.9 0,0 0.19,-1.52 z" 
                fill="rgb(151, 144, 238)" 
                stroke="white" 
                stroke-width=".7px"
                title="Cañar" 
                id="EC-F" 
            />
        </svg>