<svg xmlns="http://www.w3.org/2000/svg" viewBox="602.7714500000005 137.34874 37.72999999999979 45.940000000000026" width="37.72999999999979" height="45.940000000000026">
            <path 
                d="m 615.77145,140.53874 0.64,-0.51 0.83,-1.43 0.83,-1.07 1.07,-0.12 1.36,-0.06 0.84,0.73 0.77,1.35 1.19,0.95 1.31,0 0.82,-1.02 0.85,0.02 1.45,-0.06 1.68,-0.19 1.46,0.19 2.06,0.84 1.45,-0.15 0.84,-0.27 1.42,0.99 2.01,0.75 1.69,0.42 0,0 0.07,1.46 0,0 0.09,2.54 -0.87,1.68 -0.64,1 -1.19,0.36 -1.9,1.9 -1.07,1.43 1.3,1.54 1.19,1.55 0.24,2.25 -2.38,3.69 -2.14,1.9 0.36,0.71 1.54,0.83 1.31,0.36 -0.59,1.66 0.12,1.79 0.12,1.18 -1.67,0.72 -2.14,0.35 0.48,1.19 1.07,1.55 0.12,2.25 -1.55,0.84 0.4,1.34 -1.56,1.66 0,0 -0.18,0.24 0,0 -2.01,0 -1,-0.75 -1.5,0 -1.01,2.26 -2.26,-0.25 -0.75,-1.26 -1,0 -1.26,2.01 -1.42,0.79 -0.02,-0.47 -1.24,0.61 -0.98,0.32 -3.86,0 -1.93,0.16 -0.53,-0.77 -0.67,-0.43 -2.63,-1.93 -0.98,-0.91 -1.09,-1.41 -1.96,-4.07 0,0 0.47,-0.22 2.34,-1.7 0,0 1.74,-1.48 0.06,-1.88 0,-3.09 0.83,-1.9 -0.36,-3.57 0.12,-2.97 0.48,-2.97 2.49,-0.83 0.36,0.17 0.13,-0.07 1.53,0.14 1.07,-0.84 1.19,-1.18 -0.28,-0.6 0.14,-0.1 -0.1,-0.73 0,-1.07 1.07,0.12 0.24,-1.55 -0.6,-1.18 -1.66,-0.24 0,-1.19 0.6,-1.66 0.83,-1.9 0.34,-0.59 z" 
                fill="rgb(151, 144, 238)" 
                stroke="white" 
                stroke-width=".7px"
                title="Chimborazo" 
                id="EC-H" 
            />
        </svg>