<svg xmlns="http://www.w3.org/2000/svg" viewBox="594.1914499999999 85.00874000000003 45.61000000000013 41.44999999999999" width="45.61000000000013" height="41.44999999999999">
            <path 
                d="m 616.92145,125.19874 -0.75,-0.5 -3.21,-0.24 -0.95,1.67 -2.73,0.23 -2.19,-0.43 -1.02,-0.85 -0.11,-0.05 -0.6,-0.98 -2.26,-0.12 -2.02,0.23 -1.55,0.48 -1.3,0.95 -0.84,0.79 -0.62,0.08 -0.71,-0.13 0,0 -0.26,-0.13 -0.07,-0.43 0,0 -0.24,-1.9 -1.3,-1.67 0,-2.02 1.07,-1.54 1.18,-2.14 -0.11,-0.71 -0.72,-0.12 -0.23,-2.14 1.06,-1.54 1.67,-1.55 1.54,-2.38 1.19,-1.54 0.12,-1.66 1.55,-2.02 0.71,-1.31 0.24,-1.55 0.83,-1.78 1.35,-1.92 0,0 0.19,0.2 0,0 2.62,0.24 0.11,-1.91 1.43,-0.47 -0.83,-1.07 -1.19,-1.31 0.01,-1.21 1.37,-1.36 0.05,-0.93 1.54,-1.07 0.24,-1.19 0.83,-0.48 0,0 1.19,-0.71 1.07,0 0,0 -0.22,1.03 0.51,0.81 0.07,1.67 1.02,0.07 0.55,0.88 1.33,2.77 0.07,1.86 1.05,0.4 0.23,0.22 0.97,-0.08 1.19,0.47 1.55,0.48 0.18,2.87 0.59,0.58 -0.06,1.48 1.54,0 0.73,-0.73 0.82,-0.34 2.14,-1.78 3.96,-0.12 0.48,-0.31 0.26,0.02 0.04,0.58 0.47,2.26 1.79,0.36 0.71,0.71 0,0 1.43,1.67 0,0 0.35,1.42 0.74,0.74 0,0.38 0.45,0.9 0.59,2.38 -0.35,1.9 -1.21,0.18 -0.17,0.25 0.55,2.06 0.23,2.14 0,0 -0.17,1.22 -0.06,1.28 0,0 -0.6,1.07 -1.07,1.07 -1.07,1.42 -1.9,0 -0.2,-0.18 -0.5,-0.77 -2.49,-0.59 -0.6,1.66 -0.24,0.84 -4.6,1.36 -0.95,0.17 -1.19,0.06 -2.66,-0.34 -1.73,0.7 -1.11,0.59 0,0 z" 
                fill="rgb(151, 144, 238)" 
                stroke="white" 
                stroke-width=".7px"
                title="Cotopaxi" 
                id="EC-X" 
            />
        </svg>