<svg xmlns="http://www.w3.org/2000/svg" viewBox="544.7214500000003 215.02874000000003 46.61999999999989 39.58000000000001" width="46.61999999999989" height="39.58000000000001">
            <path 
                d="m 573.51145,217.14874 4.08,1.24 1.27,0 1.31,0.72 0.04,1.61 -0.04,1.12 -0.6,0.71 -0.95,1.55 -0.47,0.35 0.35,2.26 1.07,0.6 0.96,0 0.02,0.16 1.25,0.06 0,0 2.42,0.27 0,0 0.46,0.69 1.07,1.43 0.6,2.26 0.95,-0.12 0.44,0.17 0.25,1.01 -0.12,1.45 -1.52,0.93 -0.6,0.84 0.36,1.3 0.56,0.28 0.21,0.81 0.37,0.55 0.88,-0.81 1.07,0.24 0.71,1.07 0.71,1.55 0.72,0.95 -0.48,0.95 -0.67,0.11 -0.4,0.36 -0.71,1.67 -0.12,1.9 0.12,1.42 -0.95,1.07 -0.72,-0.12 -2.25,-0.12 -1.67,-0.35 -1.42,0.24 -0.64,0.31 -1.2,-0.99 -0.18,-0.75 -0.6,-0.59 -1.42,0.11 -1.79,0.48 -0.59,0.59 -0.59,1.07 -0.95,1.07 -0.45,1.33 -1.8,0.35 -0.92,0.05 -0.52,-0.78 -1.54,-0.59 -1.78,-0.48 -2.5,0.12 -1.66,0.36 -1.67,0.71 -0.46,0.66 -0.55,0.23 -2.71,0.98 -1.07,0.29 -2.76,0.55 0,0 -1.12,-1.2 -1.67,-5.74 0.17,-1.05 0.08,-3.86 -0.32,-1.95 -1.07,-4.72 -1.16,-3.82 -3.91,-1.77 0.81,-0.99 1.55,-1.5 1.03,0.49 6.12,-0.19 2.97,-2.73 1.54,-3.44 1.66,-1.55 2.26,-1.78 2.26,-2.23 1.35,-1.46 0,0 0.2,-0.09 0,0 5.5,0.21 z" 
                fill="rgb(151, 144, 238)" 
                stroke="white" 
                stroke-width=".7px"
                title="El Oro" 
                id="EC-O" 
            />
        </svg>