<svg xmlns="http://www.w3.org/2000/svg" viewBox="0.2714461500000198 39.248740000000026 116.25000384999997 99.10999999999999" width="116.25000384999997" height="99.10999999999999">
            <path 
                d="m 97.231446,137.92874 -3.41,0.43 -1.92,-1.07 -2.34,-1.92 0,-1.71 1.71,-1.71 2.13,-0.85 3.84,0.43 1.49,1.07 2.130004,2.13 -1.280004,1.71 -2.35,1.49 z m -37.73,-4.29 -0.41,0.09 -1.23,-0.19 -1.4,-0.84 -1.04,-0.96 -0.31,-0.37 1.63,-3.89 0.49,-0.33 2.08,-0.01 3.21,2.17 0.17,0.69 -0.28,0.7 -1.21,1.58 -0.71,0.78 -0.99,0.58 z m 20.47,-22.36 -2.56,0 -1.92,-1.71 -0.21,-2.34 2.34,-1.07 2.56,0.64 1.28,2.77 -1.49,1.71 z m 27.180004,2.37 -4.43,1.09 -0.59,-0.07 -3.960004,-1.33 0.03,-0.66 0.47,-0.84 1.22,-0.76 0.690004,-0.29 1.02,-0.62 0.79,-0.52 3.13,-2.25 0.33,-1.45 0.24,-0.42 0.77,-1.07 1.33,-0.96 2.77,-1.54 1.62,-0.23 0.61,-0.04 2.8,0.2 0.53,0.79 -0.69,1.96 -0.69,0.96 -1.48,1.67 -5.29,5.64 -1.22,0.74 z m -56.170004,-13.24 -2.77,1.07 -2.13,-1.28 -1.07,-2.34 0.43,-1.28 2.77,-1.07 2.13,1.07 1.07,1.28 -0.43,2.55 z m 17.05,4.28 -4.04,1.59 -4.42,-0.53 -5.24,-3.74 -0.53,-2.82 0.74,-2.34 1.44,-1.85 0.83,-0.8 1.62,-0.69 7.81,-0.74 5.04,2.29 0.4,1.13 -0.5,4.14 -0.51,1.45 -2.64,2.91 z m 0,-14.72 -2.34,0 -1.92,-1.49 1.07,-2.56 2.98,-1.07 2.56,2.13 -0.21,1.92 -2.14,1.07 z m -59.8299999,2.68 -0.25,0 -5.2099999,-2.28 -1.2800001,-1.67 -0.62999995,-1.34 -0.56,-3.31 1.52000005,-1.18 7.19,-1.96 0.66,-0.04 1.4499998,1.02 1.76,1.76 0.34,1.05 -0.07,5.27 -0.41,0.9 -0.77,0.37 -3.7399999,1.41 z m 45.7499999,-9.29 -1.79,2.89 -0.79,0.62 -0.23,0.03 -3.13,-1.27 -0.98,-0.08 -1.7,0.41 -0.67,0.08 -4.14,-0.94 -2.3,-3.24 1.91,-4.44 1.02,-0.96 0.97,-0.36 2.2,0.65 3.39,1.18 1.6,0.62 1.03,0.62 0.4,0.27 0.72,0.58 2.3,2.26 0.19,1.08 z m -34.04,-14.4 1.83,0.61 0.69,0.95 0.23,2.79 -0.15,1.51 -0.03,0.99 0.82,3.27 0.7,1.37 3.06,3.28 1.51,0.78 1.58,0.96 1.09,0.98 2.67,2.71 0.76,4.92 -0.69,1.14 2.87,3.8 1.15,1.14 1.19,1.31 2.1,2.48 -3.06,8.74 -2.51,2.48 -11.46,3.11 -1.71,0.1 -0.83,-0.49 -3.73,-0.42 -1.21,-0.09 -1.22,0.26 -1.29,0.35 -2.26,-0.48 -1.01,-0.97 -2.5199999,-3.71 -0.41,-1.36 0.35,-1.7 0.86,-1.35 1.0299999,-1.27 6.79,-5.4 3.65,-1.18 1.84,0.51 1.84,0.44 3.72,-4.4 -1.84,-1.92 -1.56,-0.06 -9.87,-11.65 -2.3,-3.58 0.17,-1.27 0.49,-1.45 -0.45,-3.14 -0.71,-3.06 -0.86,-1.19 -1.7099999,-0.25 -1.96,0.68 -1.4,1.13 -1.62,-0.02 -1.44,-1.9 0.06,-0.49 3.13,-1.47 7.0599999,-4.48 3.68,0.61 0.11,1.13 1.79,3.21 0.79,0.85 0.2,0.16 z m 67.73,-10.53 -1.71,0.64 -2.56,-0.21 -1.49,-2.56 0.21,-2.34 2.98,-0.21 2.56,0.43 1.49,1.28 0,1.49 -1.48,1.48 z m -26.43,0 -5.12,0.21 -2.34,-2.13 0.21,-2.34 2.56,-1.28 4.69,0.21 1.71,1.49 1.71,1.07 -0.85,1.7 -2.57,1.07 z m -11.72,-11.72 -2.77,1.28 -2.34,-1.92 -1.71,-3.2 0.85,-2.13 2.98,-1.49 2.56,2.13 1.28,2.77 -0.85,2.56 z" 
                fill="rgb(151, 144, 238)" 
                stroke="white" 
                stroke-width=".7px"
                title="Galápagos" 
                id="EC-W" 
            />
        </svg>