<svg xmlns="http://www.w3.org/2000/svg" viewBox="532.9914499999996 109.30873999999999 71.1800000000004 106.39999999999999" width="71.1800000000004" height="106.39999999999999">
            <path 
                d="m 555.16145,213.00874 -3.37,0.95 -0.87,0.09 -1.22,1.66 -4.04,-0.36 -1.9,-2.26 -1.54,-2.73 -0.24,-2.26 1.19,0.12 2.02,2.02 1.07,2.26 1.69,0.52 0.39,-7.86 0.15,-0.52 0.19,-0.48 2.4,-4.97 5.9,-2.5 2.26,-0.49 0.89,-0.07 2.76,1.75 2.87,1.12 -0.01,1.5 -1.07,1.54 -2.85,0.48 -5.58,7.57 -0.56,2.2 -0.53,0.72 z m 26.28,-103.53 4.91,-0.17 -0.48,2.02 -0.51,0.89 -0.04,0.18 0.31,0.18 0.47,1.9 0.12,1.43 -1.19,1.19 -0.87,0.1 -0.4,1.64 -2.47,0.94 -4.46,2.69 -0.91,0.72 -1.66,1.9 -0.39,0.92 -0.56,2.43 -0.27,0.94 -0.36,0.96 -1.17,1.53 -1.3,1.15 -1.32,1.27 -0.61,0.85 -0.48,1.45 -0.16,1.75 0.08,1.39 0.46,4.73 0.13,0.36 -0.63,1.12 0,1.31 0.83,0.95 0.48,2.14 0.71,0.59 2.61,0.36 0.36,1.54 1.19,1.66 0.36,2.02 1.07,1.19 2.26,2.26 1.54,0.12 0.49,-0.63 0.14,0.06 0.56,-0.5 1.78,-0.83 2.14,0.12 0.5,0.72 0.65,-0.11 1.48,0.58 3.23,2.65 1.81,2.01 0.92,1.43 0.67,1.45 0.63,0.98 1.42,1.27 0.25,0.15 0.58,-1.16 0.59,0 0.95,1.07 1.54,1.07 0.12,0.97 0,0 1.36,0.66 0.28,-0.66 0.11,-0.18 0.14,-0.97 1.2,0.06 0,0 1.54,-0.36 -0.47,1.66 -0.59,0.83 0,0 0.6,0.81 -0.4,0.32 -0.5,0.24 -0.31,0.08 -0.23,1.51 0,0 -0.95,1.9 -1.07,1.78 -2.73,0 -2.85,0.36 -1.18,-0.04 -1.91,1.42 -0.83,-0.08 -0.83,-0.36 -1.31,0.24 -0.59,1.31 -0.59,2.38 -1.43,1.54 -1.19,1.07 -1.43,1.07 0.71,1.07 1.19,0.48 1.29,-0.8 0,0 0.64,-0.08 0,0 0,3.28 -1.5,1 -1.76,1.25 -3.01,5.27 -2.01,3.76 -1.76,3.51 -0.75,2.51 -0.87,1.62 -0.59,0 -1.22,2.73 -0.6,1.53 -0.83,-0.67 0,0 -0.33,0.82 -5.51,-0.23 0,0 -0.19,0.09 0,0 0.39,-0.97 0.31,-0.96 0.87,-5.06 1.35,-5.25 2.43,-6.88 0.55,-0.78 1.07,-0.65 -2.85,-0.12 0.83,-3.68 -1.19,-0.59 -0.71,5.23 -3.09,-0.12 0.59,-2.61 0.59,-2.26 -1.05,-0.42 -0.75,1.24 -1.23,1.07 -0.66,3.1 -3.09,-0.59 -2.38,-1.19 -0.29,-1.72 1.72,-7.02 1.13,-3.21 1.39,-0.54 1,-1.51 -3.35,1.24 -1.63,3.36 -0.7,1.95 -1.51,2.85 -3.29,3.57 -2.1,1.86 -1.53,1.2 -0.15,3.91 -1.84,-0.25 -1,-0.33 -2.95,-2.97 -3.19,-0.73 -6.23,-6.29 -0.75,-0.93 0,0 2.79,-3.18 2.26,-0.5 1,-0.75 2.26,-3.01 3.51,-0.5 3.26,-0.75 1.25,-0.75 1,-3.51 1,-2.26 -1.76,-2.01 -0.25,-3.76 -0.75,-0.25 -2.26,-0.5 -0.5,-2.26 -2.26,-1.76 -2.26,-0.75 -2.26,-0.5 -1,-2.76 -0.75,-1.51 -0.25,-2.26 0,-4.77 0,0 1.76,0 0,0 3.26,-0.75 2.01,1.61 0.14,0.01 0.56,-0.56 0.95,-0.71 1.19,0.71 1.66,0.36 0.24,-0.83 2.02,-0.12 0,-2.02 -1.31,-1.07 -1.54,-1.66 -0.24,-1.07 2.26,0.24 2.14,-0.95 0.83,-0.48 -0.12,-0.83 -1.19,-1.31 -0.12,-0.83 0.24,-1.43 0.95,-2.02 1.43,-0.12 0.12,-3.45 0.91,0 0.04,-0.19 0.43,-1.02 1.35,0.26 2.02,-2.14 0.83,-0.59 0.61,-1.21 1.69,-0.71 0.08,-0.57 0.12,-2.02 1.19,-0.59 0.71,0.48 0.95,-0.12 0.48,-0.48 0.67,-0.18 0.18,-0.45 1.41,-0.74 0.83,-1.07 0.12,-1.19 0.95,-0.59 0.95,0 0.24,-2.38 1.54,-0.83 0.71,-1.07 0.06,-1.51 0.32,-0.17 0.93,-2.37 0.83,0 0.24,0.59 1.73,0.32 1.46,-0.34 0.42,-0.77 0.72,0.07 1.5,-0.95 0,0 -0.04,-0.47 z" 
                fill="rgb(151, 144, 238)" 
                stroke="white" 
                stroke-width=".7px"
                title="Guayas" 
                id="EC-G" 
            />
        </svg>