<svg xmlns="http://www.w3.org/2000/svg" viewBox="606.47145 28.98874 60.15999999999997 33.86000000000001" width="60.15999999999997" height="33.86000000000001">
            <path 
                d="m 666.63145,51.02874 -0.78,1.98 -1.33,0.63 -0.24,1.9 0,1.48 -0.42,1.09 -1.72,0.64 -1.78,1.19 -0.48,1.17 0,0 -0.33,0.03 0,0 -0.97,-1.08 -0.95,-0.36 -2.5,0 -0.95,0.6 -1.9,0.71 -1.31,0.36 -0.46,0.83 -3.85,0.59 -1.09,0.06 -0.22,-0.03 -1.15,-1.51 0,-1.31 -0.47,-2.02 -1.19,1.66 -0.48,0.6 -1.63,0.35 -1.26,-1.92 -0.81,-1.06 -0.9,-0.35 -1.63,0.03 -2.05,0.28 -2.43,0.28 -4.39,0.36 -2.35,-0.07 -1.12,-0.52 -1.53,-0.1 -3,0 -6.04,0.44 -0.56,-0.46 -2.26,-0.47 -0.83,-0.83 -0.12,-0.95 -2.26,-0.72 -0.42,-1.26 0,0 0.54,-0.04 0,0 2.49,0.11 1.16,-1.06 1.41,-0.35 0.54,-0.26 1.17,0.25 2.5,0 2.25,0.24 0.84,-1.07 0.9,-0.98 2.84,-0.31 0.97,1.39 0.93,0.56 1.5,-0.15 0.94,-0.65 4.36,-5 0.27,-2.17 1.44,0.21 0.24,-0.27 0.93,0 0.72,-0.48 1.31,-0.59 0.47,-0.71 0.95,-1.67 0,-1.54 -1.19,-1.66 -0.95,-0.75 -1.78,-0.68 0,-2.5 0.12,-0.83 1.19,-0.71 0.64,0.07 -0.01,-0.12 0.91,0.05 0,-1.07 -0.24,-0.59 -0.23,-0.95 0,0 0.83,0 0,0 2.61,0.47 1.48,-0.11 1.68,0.96 0.53,0.53 1.42,0.4 1.55,1.79 1.66,2.37 2.14,1.78 1.66,2.38 0.24,1.78 -0.12,2.26 0.77,1.74 0.25,0.14 2.27,0.12 3.86,2.24 0.98,1.37 1.83,1.01 1.33,0.5 1.36,0.25 z" 
                fill="rgb(151, 144, 238)" 
                stroke="white" 
                stroke-width=".7px"
                title="Imbabura" 
                id="EC-I" 
            />
        </svg>