<svg xmlns="http://www.w3.org/2000/svg" viewBox="536.9714500000006 227.79873999999995 66.45999999999947 65.58000000000004" width="66.45999999999947" height="65.58000000000004">
            <path 
                d="m 603.43145,241.60874 -0.33,0.55 -0.59,0.83 -1.43,0.24 -1.19,1.42 -0.47,0.95 0,1.79 0.59,1.54 0.5,0.25 0.38,1.15 0.94,1.1 0.08,1.72 -0.12,2.5 -0.35,3.44 0,3.21 -0.48,1.54 -0.24,1.79 0.72,1.3 1.3,1.79 0,3.44 0.12,5.94 -0.83,1.55 -3.21,3.33 -0.51,0.77 -0.43,-0.04 -0.79,-0.35 -0.29,-0.86 -1.66,-0.12 -1.43,0.48 -1.42,1.19 -0.24,2.61 -0.71,1.78 -1.31,1.55 -1.19,2.02 0,1.07 -2.03,0.3 0,0 -0.5,-2.74 -1.91,-0.77 -0.21,-1.88 0.46,-1.51 -0.36,-1.78 -1.9,0.35 -1.43,-1.18 -1.66,-2.28 -1.05,-0.58 -1.2,-0.06 -1.79,1.09 -3.77,1.2 -1.53,-0.15 -2.66,-1.72 -1.67,-2.49 -1.9,-0.48 -2.53,-0.38 -1.32,-0.87 -2.53,-2.62 -2.73,-0.75 -1.92,0.67 -0.58,1.09 -1.91,2.07 -1.73,1.58 -3.46,2.63 -1.17,0.63 -1.54,0.63 -0.92,-0.34 -2.6,-1.43 -0.25,-1.13 -0.53,-1.42 2.35,-3.5 1.54,-1.61 0.78,-0.88 2.05,-3.06 -2.05,-0.14 -1.33,0.63 -1.68,0.54 -0.91,-0.65 -0.78,-1.6 -0.14,-2.86 -0.85,-2.83 -0.02,-0.24 1.74,-3.11 2.17,-0.35 1.5,0.05 2.09,0.92 1.29,0.64 1.28,-0.74 2.31,-3.43 3.31,-1.03 1.06,-0.9 0,0 2.76,-0.55 1.07,-0.29 2.71,-0.98 0.55,-0.23 0.46,-0.66 1.67,-0.71 1.66,-0.36 2.5,-0.12 1.78,0.48 1.54,0.59 0.52,0.78 0.92,-0.05 1.8,-0.35 0.45,-1.33 0.95,-1.07 0.59,-1.07 0.59,-0.59 1.79,-0.48 1.42,-0.11 0.6,0.59 0.18,0.75 1.2,0.99 0.64,-0.31 1.42,-0.24 1.67,0.35 2.25,0.12 0.72,0.12 0.95,-1.07 -0.12,-1.42 0.12,-1.9 0.71,-1.67 0.4,-0.36 0.67,-0.11 0.48,-0.95 -0.72,-0.95 -0.71,-1.55 -0.71,-1.07 -1.07,-0.24 -0.88,0.81 -0.37,-0.55 -0.21,-0.81 -0.56,-0.28 -0.36,-1.3 0.6,-0.84 1.52,-0.93 0.12,-1.45 -0.25,-1.01 -0.44,-0.17 -0.95,0.12 -0.6,-2.26 -1.07,-1.43 -0.46,-0.69 0,0 1.15,0.12 0,0 1.36,0.28 4.46,0.1 2.15,0.79 0.08,2.3 -0.01,1 0.23,1.03 0.79,1.72 0.88,0.62 2.48,-1.55 0.43,-0.36 0.6,0.35 1.19,1.19 0.59,1.42 0.6,3.45 1.19,0.95 0.77,0.14 0,0 z" 
                fill="rgb(151, 144, 238)" 
                stroke="white" 
                stroke-width=".7px"
                title="Loja" 
                id="EC-L" 
            />
        </svg>