<svg xmlns="http://www.w3.org/2000/svg" viewBox="567.6514500000001 94.39873999999995 37.99000000000024 77.61999999999995" width="37.99000000000024" height="77.61999999999995">
            <path 
                d="m 599.54145,171.35874 -0.12,-0.97 -1.55,-1.07 -0.95,-1.07 -0.59,0 -0.58,1.16 -0.25,-0.15 -1.42,-1.27 -0.63,-0.99 -0.66,-1.44 -0.92,-1.44 -1.81,-2.01 -3.23,-2.65 -1.48,-0.58 -0.65,0.11 -0.49,-0.72 -2.14,-0.12 -1.79,0.83 -0.56,0.5 -0.13,-0.06 -0.49,0.63 -1.55,-0.12 -2.26,-2.26 -1.06,-1.18 -0.36,-2.02 -1.19,-1.67 -0.36,-1.54 -2.61,-0.36 -0.71,-0.59 -0.48,-2.14 -0.83,-0.95 0,-1.31 0.63,-1.12 -0.13,-0.36 -0.46,-4.73 -0.08,-1.38 0.16,-1.75 0.48,-1.45 0.62,-0.85 1.32,-1.27 1.3,-1.15 1.17,-1.53 0.36,-0.96 0.27,-0.94 0.56,-2.43 0.38,-0.91 1.66,-1.9 0.91,-0.72 4.46,-2.69 2.47,-0.93 0.4,-1.64 0.87,-0.11 1.19,-1.18 -0.12,-1.43 -0.48,-1.9 -0.3,-0.18 0.03,-0.18 0.51,-0.89 0.48,-2.02 -4.91,0.17 0,0 -0.32,-4.14 0,0 0.61,-1.56 0.95,-0.57 0.58,0.46 0.83,0 -0.33,-2.36 0.49,-1.12 1.03,-0.56 1.07,-0.72 0.52,-3.68 0,0 0.23,-0.01 0,0 1.09,0.11 1.48,-0.93 3.45,0.24 0,2.02 -0.6,1.43 0.2,1 -0.17,1.41 0.31,1.23 1.69,0.41 0.55,-0.04 2.4,-1.7 5.72,-4.64 0.96,-0.93 0,0 1.46,1.45 0,0 -1.35,1.92 -0.83,1.78 -0.24,1.55 -0.71,1.31 -1.55,2.02 -0.12,1.66 -1.19,1.54 -1.54,2.38 -1.67,1.55 -1.06,1.54 0.23,2.14 0.72,0.12 0.11,0.71 -1.18,2.14 -1.07,1.54 0,2.02 1.3,1.67 0.24,1.9 0,0 0.09,0.44 -0.92,0.69 0,0 -1.54,0.71 -1.07,1.19 0,0.21 -0.95,0.26 -1.19,0.72 -0.95,1.19 0.71,0.47 1.43,0.12 1.97,-0.99 0.51,0.22 -0.08,0.23 0.8,0.06 1.31,0.48 -0.59,3.33 -1.19,0.35 -0.28,0.8 0.21,1 -1,0.82 -1.19,0.12 0.24,0.95 1.54,0.71 0.89,-0.08 0.45,2.46 1.4,0 0.95,0.35 -0.24,1.79 -0.83,0.95 -0.7,0.11 0.05,0.24 -1.25,0.36 -1.19,0.71 0.24,1.07 2.62,0.54 0.46,3.38 0.72,0 0.95,0.24 1.07,0.12 -0.24,0.95 -1.19,0.71 -1.03,0 0.19,1.42 0.03,1.99 0.33,1.36 -0.71,0.82 -0.71,2.14 0.95,2.61 1.67,2.73 2.94,1.48 0.06,0.56 0,0 -0.04,1.25 -0.14,1.01 -0.38,0.9 z" 
                fill="rgb(151, 144, 238)" 
                stroke="white" 
                stroke-width=".7px"
                title="Los Ríos" 
                id="EC-R" 
            />
        </svg>