<svg xmlns="http://www.w3.org/2000/svg" viewBox="609.8814500000004 137.95874 112.81999999999982 102.92999999999998" width="112.81999999999982" height="102.92999999999998">
            <path 
                d="m 640.32145,141.63874 1.09,0.09 3.01,-0.25 4.02,-1.75 1.32,-1.77 0,0 0.68,0.24 0,0 0.86,0.63 1.43,1.53 0.25,0.46 1.33,0.63 0.48,2.97 1.31,2.02 0.64,2.12 0.84,-0.01 2.44,-0.75 1.23,0.73 1.11,2 -0.02,1.23 0.07,0.42 0.67,0.15 1.19,0.47 0.36,1.67 0.47,2.49 0.6,2.5 -0.3,0.94 5.6,5.36 0.8,0.54 1.4,0.43 2,0.29 3.99,1.51 6.18,2.5 2.41,1.25 0.32,0.2 0.17,0.58 2.62,2.02 1.78,1.78 2.73,1.67 1.79,1.54 2.02,1.19 1.54,2.61 0.83,2.38 1.78,1.55 0.24,1.78 0.83,0.24 1.43,1.66 3.09,0.36 2.02,-0.48 0.95,1.07 1.48,-1.56 1.7,0.24 1.1,1.56 6.5,-0.45 0,0 -12.56,4.19 -6.42,2.38 -9.15,3.44 -10.1,3.33 -16.63,5.94 -4.04,1.31 -2.96,1.4 -5.24,5.56 -1.32,2.31 -2.62,0 0,3.42 -1.2,0.87 -1.66,0.96 -1.18,0.96 -0.73,1.26 0.58,1.52 1.07,1 0.52,1.85 1.53,1.23 -1.07,2.14 -2.02,-0.83 -2.12,0.71 -0.42,-0.14 0.14,-3.11 -0.41,-1.3 -0.87,-0.7 -1.05,-0.11 -1.35,0.45 -0.81,0.85 -0.29,1.04 0.06,2.42 -0.14,1.51 0,0 -4.6,0 -4.77,-0.5 -0.25,1.76 -2.26,-0.25 -0.75,-1.01 -1.25,0 -1.26,2.26 -2.86,0.55 -0.35,-0.44 -0.9,-0.78 -1.37,0.05 -1.67,-0.23 -1.07,-1.19 -1.76,-0.71 0.19,-2.52 0.51,-3.51 -1.76,-2.01 -1.76,0 -0.96,-0.32 -0.84,-0.88 -0.24,0.12 -0.38,-0.38 0,0 0.23,-0.13 0,0 0.24,-2.02 0.71,0.12 1.78,-1.31 2.97,-0.83 1.19,-2.38 0.95,-2.02 1.55,-1.3 2.49,-0.48 1.31,-0.83 0.95,-1.31 0.48,-2.14 0,-3.21 0.23,-1.54 0.84,-1.31 1.42,-1.07 0.59,-1.07 0.24,-1.56 -0.7,-0.79 -0.25,-0.02 -0.24,-1.55 0.36,-1.54 0.83,-0.95 1.19,-0.84 2.73,-0.83 1.43,0.18 0.34,-0.5 0.73,-0.03 1.07,-0.24 0.24,-1.07 -0.12,-1.19 -1.43,-0.83 -1.31,-0.12 0,0 -1.04,-0.48 0,0 0.33,-0.95 0.95,-0.47 0.24,-1.43 0.36,-3.44 -0.48,-1.55 0.18,-1.39 -0.3,-1.1 -2.47,-2.45 0,0 0.36,-0.49 0,0 1.56,-1.66 -0.4,-1.34 1.55,-0.84 -0.12,-2.25 -1.07,-1.55 -0.48,-1.19 2.14,-0.35 1.67,-0.72 -0.12,-1.18 -0.12,-1.79 0.59,-1.66 -1.31,-0.36 -1.54,-0.83 -0.36,-0.71 2.14,-1.9 2.38,-3.69 -0.24,-2.25 -1.19,-1.55 -1.3,-1.54 1.07,-1.43 1.9,-1.9 1.19,-0.36 0.64,-1 0.87,-1.68 -0.09,-2.54 0,0 z" 
                fill="rgb(151, 144, 238)" 
                stroke="white" 
                stroke-width=".7px"
                title="Morona-Santiago" 
                id="EC-S" 
            />
        </svg>