<svg xmlns="http://www.w3.org/2000/svg" viewBox="637.5714500000004 67.65874 66.31999999999982 62.53000000000014" width="66.31999999999982" height="62.53000000000014">
            <path 
                d="m 668.32145,67.65874 0.48,5.23 1.66,-0.71 1.67,0.83 2.73,-0.24 2.49,0.48 1.67,0 0.33,-0.51 0.26,-0.68 0.95,-0.59 1.07,-0.12 0.24,-0.36 0.12,-0.83 0.83,-0.48 1.19,0.12 0.35,1.67 0.84,0.11 0.11,0.6 -1.18,0.71 0.17,1.89 2.64,0.43 0.75,0.65 1.07,-0.35 1.43,-1.19 0,0 0.91,-1.1 0.24,2.27 0.76,2.51 0,3.26 1.25,1.01 -2.26,1.5 -2.01,1.76 0,2.76 -1.25,0 -0.75,2.51 -1.76,0 -0.5,1.25 -2.26,0.5 0,-0.75 -2.26,-0.25 -1.25,-1.51 -2.01,0.25 0,2.26 -1.25,0 -1.51,1.26 1.51,1 0.75,1.76 1.76,0.25 1,1.25 0.75,3.01 0.75,1.51 -2,1.76 0.75,2 -0.5,2.76 -1.51,1.76 -0.75,2.01 3.76,0.25 1.76,-0.75 1,-1.51 3.01,-0.5 3.02,-1.76 2,-0.5 4.27,-4.77 1.75,-1.75 2.26,0 0,2.5 -2.51,2.26 -1.5,1.26 0,2.01 1.75,0.5 1.51,1 4.52,0.25 0,1.26 -2.26,1 2.76,2.26 -2.01,1 -2.26,-0.25 0.5,1.63 0.74,0.04 0.77,1.09 0.09,1.08 -1.6,0.18 0,0 -4.26,0 -2.26,0.75 -2.51,0.25 -1.84,-0.57 0,0 0.08,0.7 0,0 -0.26,-0.07 -3.25,0.69 -3.51,0.25 -2.01,1.01 -4.77,0.5 -5.26,1.76 -4.27,1.5 -0.54,-1.38 -0.99,-0.34 -1.54,0 -0.12,0.95 -0.52,-0.07 0.2,3.6 -11.64,-0.79 0,0 0.03,-0.36 0,0 -0.16,-1.06 0.15,0.02 -0.14,-0.8 -0.72,-1.67 -0.71,-1.31 -1.55,-0.71 -2.61,0.24 -2.38,-0.12 -0.55,0.04 0.09,-1.82 0.12,-1.55 -0.12,-2.02 -0.95,-1.19 -1.43,-0.71 -1.14,0.13 0,0 -0.11,-0.1 0.18,-1.22 0,0 -0.23,-2.14 -0.55,-2.06 0.17,-0.25 1.21,-0.18 0.35,-1.9 -0.59,-2.38 -0.45,-0.9 0,-0.38 -0.74,-0.74 -0.35,-1.42 0,0 -0.1,-0.12 0,0 0.81,-1.55 1.07,-0.47 0.95,0.14 1.41,-0.38 0.19,-0.24 -0.04,-1.25 0.71,-2.14 2.02,-1.9 0.83,-2.25 0.48,-2.5 -0.72,-2.02 2.34,-2.68 3.92,-8.19 2.47,-0.32 2.74,-0.66 1.52,-0.73 2.86,-2.11 0.3,-2.36 0.95,-0.71 1.12,-0.21 0.26,-0.48 1.24,-0.26 0.71,-0.6 -0.08,-0.97 0,0 z" 
                fill="rgb(151, 144, 238)" 
                stroke="white" 
                stroke-width=".7px"
                title="Napo" 
                id="EC-N" 
            />
        </svg>