<svg xmlns="http://www.w3.org/2000/svg" viewBox="648.8214499999998 118.02873999999987 124.5699999999996 74.64000000000011" width="124.5699999999996" height="74.64000000000011">
            <path 
                d="m 722.70145,192.21874 0,0 -6.5,0.45 -1.1,-1.56 -1.7,-0.24 -1.48,1.56 -0.95,-1.07 -2.02,0.48 -3.09,-0.36 -1.43,-1.66 -0.83,-0.24 -0.24,-1.78 -1.78,-1.55 -0.83,-2.38 -1.54,-2.61 -2.02,-1.19 -1.79,-1.54 -2.73,-1.67 -1.78,-1.78 -2.62,-2.02 -0.17,-0.58 -0.32,-0.2 -2.41,-1.25 -6.18,-2.5 -3.99,-1.51 -2,-0.29 -1.4,-0.43 -0.8,-0.54 -5.6,-5.36 0.3,-0.94 -0.6,-2.5 -0.47,-2.49 -0.36,-1.67 -1.19,-0.47 -0.67,-0.15 -0.07,-0.42 0.02,-1.23 -1.11,-2 -1.23,-0.73 -2.44,0.75 -0.84,0.01 -0.64,-2.12 -1.31,-2.02 -0.48,-2.97 -1.33,-0.63 -0.25,-0.46 -1.43,-1.53 -0.86,-0.63 0,0 -1.62,-0.57 0,0 0.94,-0.81 0.68,-0.86 0.02,-0.59 0.54,-0.27 0.59,-2.02 -0.83,-2.5 0,0 0.09,-1.18 11.64,0.79 -0.2,-3.6 0.52,0.07 0.12,-0.95 1.54,0 0.99,0.34 0.54,1.38 4.27,-1.5 5.26,-1.76 4.77,-0.5 2.01,-1.01 3.51,-0.25 3.25,-0.69 0.26,0.07 0,0 -0.08,-0.7 0,0 1.84,0.57 2.51,-0.25 2.26,-0.75 4.26,0 0,0 4.52,-0.51 1.01,1.26 2.5,-0.25 2.26,2.51 2.01,0.25 0.5,-3.26 2.51,-0.26 2.01,-0.5 3.51,-1.25 2.9,-0.62 1.37,0.91 2.73,0.23 0.59,1.07 -0.23,1.55 -0.73,1.43 0,2.34 0.86,1.16 2.14,1.07 1.07,1.01 0.98,0 1.9,-0.36 0.72,0.72 0.73,1.54 3.13,0.57 2.09,-0.7 5.48,-0.7 2.63,0.68 8.36,2.52 0.43,0.26 0.67,-0.73 2.26,1.07 0.95,0.95 0.1,0.99 1.65,-0.22 1.66,0.24 1.19,1.31 0.31,1.69 3.17,1.92 0.41,0.14 1.02,-0.48 1.9,0 0,1.66 -0.15,1.38 -1.9,1.96 -7.41,8.87 -14.08,16.68 -15.47,12.7 -11.26,8.53 z" 
                fill="rgb(151, 144, 238)" 
                stroke="white" 
                stroke-width=".7px"
                title="Pastaza" 
                id="EC-Y" 
            />
        </svg>