<svg xmlns="http://www.w3.org/2000/svg" viewBox="592.79145 52.59874 72.92000000000007 50.11999999999998" width="72.92000000000007" height="50.11999999999998">
            <path 
                d="m 592.79145,67.90874 0.12,-3.1 1.5,-2.2 0.95,-2.37 -0.59,-0.6 -1.07,-0.83 -0.12,-2.26 1.31,0 0.83,-0.71 0.71,-0.71 0.24,-2.02 1.58,-0.51 3.08,0.7 0,0 1.45,0.52 1.38,-0.36 2.31,-0.19 0,0 0.42,1.26 2.26,0.72 0.12,0.95 0.83,0.83 2.26,0.47 0.56,0.46 6.04,-0.44 3,0 1.53,0.1 1.12,0.52 2.35,0.07 4.39,-0.36 2.43,-0.28 2.05,-0.28 1.63,-0.03 0.9,0.35 0.81,1.06 1.26,1.92 1.63,-0.35 0.48,-0.6 1.19,-1.66 0.47,2.02 0,1.31 1.15,1.51 0.22,0.03 1.09,-0.06 3.85,-0.59 0.46,-0.83 1.31,-0.36 1.9,-0.71 0.95,-0.6 2.5,0 0.95,0.36 0.97,1.08 0,0 1.14,-0.06 0,0 2.04,2.12 0.23,0.08 0.97,2.24 1.17,1.27 -0.54,1.18 0,0 1.07,-0.09 0,0 0.08,0.97 -0.71,0.6 -1.24,0.26 -0.26,0.48 -1.12,0.21 -0.95,0.71 -0.3,2.36 -2.86,2.11 -1.52,0.73 -2.74,0.66 -2.47,0.32 -3.92,8.19 -2.34,2.68 0.72,2.02 -0.48,2.5 -0.83,2.25 -2.02,1.9 -0.71,2.14 0.04,1.25 -0.19,0.24 -1.41,0.38 -0.95,-0.14 -1.07,0.47 -0.81,1.55 0,0 -1.33,-1.55 0,0 -0.71,-0.71 -1.79,-0.36 -0.47,-2.26 -0.04,-0.58 -0.26,-0.02 -0.48,0.31 -3.96,0.12 -2.14,1.78 -0.82,0.34 -0.73,0.73 -1.54,0 0.06,-1.48 -0.59,-0.58 -0.18,-2.87 -1.55,-0.48 -1.19,-0.47 -0.97,0.08 -0.23,-0.22 -1.05,-0.4 -0.07,-1.86 -1.33,-2.77 -0.55,-0.88 -1.02,-0.07 -0.07,-1.67 -0.51,-0.81 0.22,-1.03 0,0 -0.96,0 0,-0.74 0,0 4.01,0 2.01,-1 0.75,-1.76 1.26,-0.5 0,-2.26 -2.26,-1.75 -4.52,0 -1.25,-3.52 -6.53,-0.25 -3.01,-0.25 2.01,-2.26 0.25,-1.5 -9.78,0 -3.27,-1.26 0,0 z" 
                fill="rgb(151, 144, 238)" 
                stroke="white" 
                stroke-width=".7px"
                title="Pichincha" 
                id="EC-P" 
            />
        </svg>