<svg xmlns="http://www.w3.org/2000/svg" viewBox="514.1314500000001 147.80874000000003 37.19999999999993 40.26000000000002" width="37.19999999999993" height="40.26000000000002">
            <path 
                d="m 521.66145,149.08874 1.01,-0.51 0.95,-0.17 6.31,0.06 0.58,0.1 0.7,-0.76 1.66,0 1.07,0.36 0.24,1.19 -0.12,0.08 -0.04,0.32 2.76,0 0,0 0.25,0 0,0 0,4.77 0.25,2.26 0.75,1.5 1.01,2.76 2.26,0.5 2.25,0.76 2.26,1.75 0.5,2.26 2.26,0.5 0.75,0.25 0.26,3.77 1.75,2.01 -1,2.25 -1.01,3.52 -1.25,0.75 -3.26,0.75 -3.51,0.5 -2.26,3.02 -1.01,0.75 -2.26,0.5 -2.78,3.18 0,0 -1.76,-2.16 -1.98,-1.67 -0.97,-0.77 -2.43,-0.81 -2.48,0.04 -1.53,-0.65 -3.54,-2.23 -4.09,-4.96 -0.08,-1.52 2.49,1.05 3.38,-1.52 3.23,-2.33 0.77,-0.87 0.83,-1.5 1.12,-6.64 -0.06,-1.14 -2.01,-7.28 -0.57,-1.37 z" 
                fill="rgb(151, 144, 238)" 
                stroke="white" 
                stroke-width=".7px"
                title="Santa Elena" 
                id="EC-SE" 
            />
        </svg>