<svg xmlns="http://www.w3.org/2000/svg" viewBox="580.6714499999998 67.45874000000002 40.67000000000007 34.67999999999999" width="40.67000000000007" height="34.67999999999999">
            <path 
                d="m 592.98145,67.95874 3.27,1.26 9.78,0 -0.25,1.5 -2.01,2.26 3.01,0.25 6.53,0.25 1.25,3.52 4.52,0 2.26,1.75 0,2.26 -1.26,0.5 -0.75,1.76 -2.01,1 -4.01,0 0,0 -0.06,0.74 -1.24,0.71 0,0 -0.83,0.48 -0.24,1.19 -1.54,1.07 -0.05,0.93 -1.37,1.36 -0.01,1.21 1.19,1.31 0.83,1.07 -1.43,0.47 -0.11,1.91 -2.62,-0.24 0,0 -1.65,-1.65 0,0 -0.96,0.93 -5.72,4.64 -2.4,1.7 -0.55,0.04 -1.69,-0.41 -0.31,-1.23 0.17,-1.41 -0.2,-1 0.6,-1.43 0,-2.02 -3.45,-0.24 -1.48,0.93 -1.09,-0.11 0,0 -1.22,0.04 0,0 0.48,-0.51 0.84,-1.65 1.88,-3.99 1.66,-0.83 -0.24,-3.8 -0.23,-3.09 0.12,-2.14 -0.72,-1.31 -0.83,-0.59 -2.38,0 -2.02,-0.12 -2.1,-0.66 -1.12,-2.79 -0.47,-3.21 0,0 -0.08,-1.88 0,0 1.27,0.53 2.26,0.75 5.27,0 0.5,-1.25 1.26,-1.26 0,0 z" 
                fill="rgb(151, 144, 238)" 
                stroke="white" 
                stroke-width=".7px"
                title="Santo Domingo de los Tsáchilas" 
                id="EC-SD" 
            />
        </svg>