<svg xmlns="http://www.w3.org/2000/svg" viewBox="659.8814499999999 37.10873999999999 130.49000000000058 63.20000000000001" width="130.49000000000058" height="63.20000000000001">
            <path 
                d="m 788.32145,100.30874 -5.51,-2.25 0,0 -0.37,-1.09 0,0 -1.62,0.07 -3.45,-0.12 0,0 -1.9,-0.48 -0.47,-1.29 -0.2,-0.08 0,0 -2.2,-2.19 0,0 -3.7,-0.73 -4.86,0 -0.77,0.23 -0.82,-0.71 -1.07,-0.83 -2.02,-0.59 -1.43,-0.12 -0.95,0.24 0,0 -0.1,3.47 0.04,1.94 0,0 0.85,0.52 0,1.07 0,0 -1.38,-0.32 -2.77,-0.39 0,0 -0.06,-1.25 -0.43,-0.13 -1.72,-0.92 0,0 -0.61,-1.52 -0.87,-1.63 -1.69,0.09 -8.15,0.19 -1.52,1.61 0,0 -1.31,1.07 -1.66,0 -1.22,-0.67 0,0 -3.82,-1.17 0,0 -1.13,-1.78 -0.95,-1.07 -1.07,-0.71 -1.07,0.12 -0.33,0.11 -0.42,-0.32 -1.3,0.15 -0.29,0.2 -0.97,-0.85 -0.71,-1.31 0,0 -2.38,-1.07 0,0 -1.54,-1.07 0,0 -2.02,-3.21 0,0 -1.78,-1.78 0,0 -1.07,-1.43 -1.43,-1.54 0,0 -0.48,-1.31 -0.48,-0.48 0,0 -1.9,-2.14 0,0 -2.14,-0.24 -1.78,0.71 -1.58,0.97 -1.43,0 -2.26,-0.83 -1.43,-0.36 -2.01,0.16 0,0 -4.43,-1.76 0,0 -0.81,1.43 -0.27,0.33 0,0 -0.92,1.07 0,0 -1.43,1.19 -1.07,0.36 -0.75,-0.65 -2.64,-0.42 -0.17,-1.89 1.19,-0.71 -0.12,-0.59 -0.83,-0.12 -0.36,-1.66 -1.19,-0.12 -0.83,0.48 -0.12,0.83 -0.24,0.36 -1.07,0.12 -0.95,0.59 -0.27,0.68 -0.33,0.5 -1.66,0 -2.5,-0.48 -2.73,0.24 -1.66,-0.83 -1.66,0.71 -0.48,-5.23 0,0 -3.76,0.31 0,0 0.54,-1.18 -1.18,-1.27 -0.95,-2.26 -0.23,-0.08 -2.03,-2.12 0,0 -0.82,0.02 0,0 0.49,-1.17 1.78,-1.19 1.71,-0.64 0.43,-1.09 0,-1.48 0.24,-1.9 1.33,-0.63 0.78,-1.98 0,0 0.39,-2 0.37,-1.16 0,0 0.75,-0.88 0.46,-0.29 0,0 3.4,-4.46 0,0 0.71,-2.73 1.43,-1.54 1.53,0.22 0.95,-1.07 0,0 1.78,0.74 1.6,1.13 1.88,1.13 1.22,1.79 -0.75,2.64 0.38,1.32 0.09,1.22 0.38,1.51 0.38,1.69 1.51,0.85 1.88,0.94 0.66,-0.85 0.94,-0.09 1.6,0.28 1.79,0.75 1.88,0.19 1.51,-0.28 1.41,-0.38 1.51,-0.47 1.88,0.66 1.41,3.3 1.88,0.47 1.79,0.19 2.07,0.47 2.07,0.85 1.41,0.47 2.64,0.28 1.04,-0.66 3.01,-0.19 0.47,-1.13 1.32,0 1.41,0.56 0.85,0.28 1.6,0 1.22,0.66 0.85,0.66 1.22,-0.28 0.56,-0.47 1.13,-0.47 0.94,0 0.47,0.85 1.13,0 0.94,-0.56 0.85,-0.19 2.17,0.56 0,-6.31 0.47,-1.04 1.22,-1.13 1.51,-0.28 2.26,-0.56 1.6,0.66 1.04,1.04 1.79,0.47 3.11,0.09 1.41,2.26 2.45,0 1.51,0.75 0.94,0.94 1.6,2.17 1.7,2.92 1.98,1.98 2.54,1.88 2.07,1.88 2.17,0.94 2.45,0 3.77,-0.19 1.32,0.47 0.85,0.94 1.6,1.32 -0.28,1.04 1.51,0.56 0.94,0.75 2.64,1.22 1.98,0.75 1.6,0.47 1.88,0.09 1.7,0.38 -0.19,1.41 -0.57,0.38 -2.26,0.47 -0.47,-0.85 -0.47,1.04 -1.7,0.28 -3.86,-1.69 -6.5,0 0,6.68 2.64,2.35 1.69,1.04 3.58,-0.19 0.66,0.66 0.66,1.04 0.75,2.45 0.85,0.56 0.57,1.04 1.22,0 0.75,0.47 0.19,0.94 0.56,0.38 1.22,-0.19 0.75,1.13 0.85,0.28 0.85,0.47 0.57,1.69 -0.57,0.38 0.19,1.22 0.47,0.47 -0.19,1.13 -0.47,0.75 -1.04,-0.09 -0.35,0.62 z" 
                fill="rgb(151, 144, 238)" 
                stroke="white" 
                stroke-width=".7px"
                title="Sucumbíos" 
                id="EC-U" 
            />
        </svg>