<svg xmlns="http://www.w3.org/2000/svg" viewBox="612.3314499999996 116.37874000000001 39.26000000000033 25.520000000000024" width="39.26000000000033" height="25.520000000000024">
            <path 
                d="m 638.78145,116.50874 1.14,-0.13 1.43,0.71 0.95,1.19 0.12,2.02 -0.12,1.55 -0.09,1.82 0.55,-0.04 2.38,0.12 2.61,-0.24 1.55,0.71 0.71,1.31 0.72,1.67 0.14,0.8 -0.15,-0.02 0.16,1.06 0,0 -0.12,1.54 0,0 0.83,2.5 -0.59,2.02 -0.54,0.27 -0.02,0.59 -0.68,0.86 -0.94,0.81 0,0 0.94,0.33 0,0 -1.32,1.77 -4.02,1.75 -3.01,0.25 -1.09,-0.09 0,0 0.02,0.26 0,0 -1.69,-0.42 -2.01,-0.75 -1.42,-0.99 -0.84,0.27 -1.45,0.15 -2.06,-0.84 -1.46,-0.19 -1.68,0.19 -1.45,0.06 -0.85,-0.02 -0.82,1.02 -1.31,0 -1.19,-0.95 -0.77,-1.35 -0.84,-0.73 -1.36,0.06 -1.07,0.12 -0.83,1.07 -0.83,1.43 -0.64,0.51 0,0 -0.12,-0.8 0,-0.22 -0.55,-0.2 -1.19,-1.67 -0.47,-1.19 -0.19,-1.1 -0.11,-0.1 -0.81,-2.52 0.88,-0.68 0.89,-1.01 0.8,-2.16 0.07,-1.62 0.09,-1.01 0,0 2.65,-1.51 0,0 1.11,-0.59 1.73,-0.7 2.66,0.34 1.19,-0.06 0.95,-0.17 4.6,-1.36 0.24,-0.84 0.6,-1.66 2.49,0.59 0.5,0.77 0.2,0.18 1.9,0 1.07,-1.42 1.07,-1.07 0.6,-1.07 0,0 0.07,-1.27 z" 
                fill="rgb(151, 144, 238)" 
                stroke="white" 
                stroke-width=".7px"
                title="Tungurahua" 
                id="EC-T" 
            />
        </svg>