<svg xmlns="http://www.w3.org/2000/svg" viewBox="586.8114499999996 228.08874 53.430000000000405 79.42000000000016" width="53.430000000000405" height="79.42000000000016">
            <path 
                d="m 609.88145,228.08874 0.38,0.38 0.24,-0.12 0.84,0.88 0.96,0.32 1.76,0 1.76,2.01 -0.51,3.51 -0.19,2.52 1.76,0.71 1.07,1.19 1.67,0.23 1.37,-0.05 0.9,0.78 0.35,0.44 2.86,-0.55 1.26,-2.26 1.25,0 0.75,1.01 2.26,0.25 0.25,-1.76 4.77,0.5 4.6,0 0,0 -0.1,1.58 -0.48,2.97 0,3.45 -0.71,1.9 -1.07,1.9 -1.9,2.74 -3.21,3.56 -0.71,2.85 -1.19,0.24 -0.32,1.37 -0.01,1.76 -0.98,0.67 -0.24,1.55 -0.83,1.42 0,5.35 -2.08,2.1 -0.86,1.06 -0.03,3.14 0.35,2.47 0.12,2.68 -0.94,1.38 -1.31,1.55 -0.95,1.3 -0.32,1.29 -1.58,2.04 -1.9,0.95 -3.05,0.49 -0.81,0.75 -2.2,1.61 -0.95,2.26 -0.36,3.09 -1.43,1.55 -1.78,2.85 0,2.37 -1.31,0.96 -1.54,0.23 -2.02,-1.3 -3.19,0.12 -0.96,-0.06 -1.37,0.06 -2.58,0.04 -1.76,-3.49 -2.5,-0.71 -0.12,-2.5 -2.11,-0.01 -1.17,-1.31 -0.32,-1.48 -0.65,-3.49 0,0 2.03,-0.3 0,-1.07 1.19,-2.02 1.31,-1.55 0.71,-1.78 0.24,-2.61 1.42,-1.19 1.43,-0.48 1.66,0.12 0.29,0.86 0.79,0.35 0.43,0.04 0.51,-0.77 3.21,-3.33 0.83,-1.55 -0.12,-5.94 0,-3.44 -1.3,-1.79 -0.72,-1.3 0.24,-1.79 0.48,-1.54 0,-3.21 0.35,-3.44 0.12,-2.5 -0.08,-1.72 -0.94,-1.1 -0.38,-1.15 -0.5,-0.25 -0.59,-1.54 0,-1.79 0.47,-0.95 1.19,-1.42 1.43,-0.24 0.59,-0.83 0.33,-0.55 0,0 -0.13,-0.12 0,0 1.11,-0.28 0.71,-0.95 -0.83,-2.85 0.59,-2.02 0.84,-0.94 0.03,-0.29 -0.39,-1.09 -0.36,-1.31 1.66,-1.42 1.79,-1.43 0,0 z" 
                fill="rgb(151, 144, 238)" 
                stroke="white" 
                stroke-width=".7px"
                title="Zamora-Chinchipe" 
                id="EC-Z" 
            />
        </svg>