<svg xmlns="http://www.w3.org/2000/svg" viewBox="315.78553 398.41282999999976 107.25000000000017 282.19000000000017" width="107.25000000000017" height="282.19000000000017">
            <path 
                d="m 351.60553,674.02283 0.55,-1.11 1.78,1.17 0.88,3.04 -0.14,3.48 -0.69,-1.53 -2.57,-2.02 -1.77,-5.64 1.13,0.67 0.83,1.94 z m -30.15,-55.26 2.9,6.58 5.44,3.31 5.01,5.1 0.1,0.88 -1.16,1.76 -0.95,-0.24 -2.39,0.47 -0.82,4.49 0.19,2.23 0.9,1.11 -0.56,0.1 -0.34,1.79 -1.12,-0.2 -1.12,-1.24 -1.48,0.72 -0.61,-0.95 -0.89,1.57 -1.17,-2.09 -1.3,0.3 -1.85,-0.98 -0.89,-1.8 -2.05,-2.83 0.75,-1.41 -1.44,-2.11 1.3,-1.62 0.54,0.33 0.47,-0.64 -1.11,-2.08 0.83,-2.08 -0.52,-1.77 -2.33,-2.02 1.42,-3.72 1.45,-1.56 -0.15,-1.01 1.48,0.08 1.03,-1.08 0.44,0.61 z m 85.18,-124.26 2.16,1.02 1.17,2.51 -1.8,-0.79 -0.53,-1.29 -1.67,-1.33 0.67,-0.12 z m -37.71,-7.36 -0.69,1.32 0.92,-0.07 -0.3,1.72 0.72,-0.7 0.83,0.38 0.27,1.22 0.77,-0.54 1.09,0.92 -2.31,1.95 -3.42,-0.53 0.17,1.48 -0.97,-0.62 0.48,-0.86 -1,-0.08 -1.09,-1.35 -0.87,0.23 0.14,-1.06 1.96,0.25 2.54,-1.02 -0.25,-2.11 1.01,-0.53 z m -8.83,-9.33 1.56,0.7 1.1,2.44 -0.78,2.41 -1.66,1.48 -0.03,1.86 -1.23,0.71 -0.79,-0.5 4.82,3.75 -0.97,0.96 -2.09,-0.12 0.78,1.21 0.85,-0.31 3.14,0.77 3.54,2.05 0.06,1.16 1.86,0.37 1.77,1.8 -0.25,1.71 0.72,0.4 -2.39,1.68 -6.59,1.29 0,0 0.31,-1.3 2.33,-3.02 -0.06,-1.41 -2.64,-0.83 -1.82,1.42 -3.05,-0.69 -1.93,0.31 -0.38,-1.37 -2.8,0.24 -0.14,-2.39 -0.68,-0.57 -2.41,0.11 -0.63,-0.78 -1.75,-0.17 -1.78,-1.81 -4.59,-0.69 -0.94,-1.14 0.12,-2.08 0.77,-1.37 0.83,-0.22 0.46,-1.05 -0.38,-0.86 1.11,-1.3 0,0 3.95,1.35 1.76,1.44 0.59,1.78 2.89,1.09 1.31,1.6 1.4,0.01 3.19,-2.26 -0.88,-0.82 0.06,-1.75 -1.08,-0.54 0.1,-0.71 -1.33,-1.61 -1.45,-1.26 -1.13,0.03 1.87,-2.29 5.38,-0.91 z m 51.06,-1.82 0.72,1.33 -2.31,-0.34 0.35,-0.98 1.24,-0.01 z m -54.11,-6.17 1.33,0.05 0.62,1.95 -2.22,1.21 -0.65,1.07 -1.47,-0.33 -0.12,-1.09 1.19,-2.35 0.74,-0.72 0.58,0.21 z m 12.43,-6.98 5.63,0.11 1.16,0.23 0.1,0.65 -0.99,2.18 -1.69,0.34 0.56,1.5 -1.8,2.06 0.31,2.04 -4.05,2.07 -2.8,-1.62 0.37,-0.27 -0.48,-0.37 1.78,-0.52 -0.34,-1.21 -0.7,-1.29 -2.03,-0.8 -1.55,-3.82 0.73,-0.62 5.79,-0.66 z m -6.74,-21.9 0.92,0.13 -1.37,-0.19 0.45,0.06 z m 6.92,-4.04 2.53,0.7 1.1,0.96 0.98,-0.85 -1.29,2.49 1.33,1.34 -1.19,-0.53 -0.27,0.92 2.04,0.5 -1.03,0.42 0.41,0.44 3.27,-0.09 -3.65,0.73 -0.21,0.92 0.92,0.78 -1.19,0.48 -0.02,1.12 -1.75,-0.24 0.17,1.96 -1.03,-0.72 -1.35,0.27 -0.45,1.53 -1.24,0 -2.47,1.48 -1.36,-1.69 -2.37,-0.68 0.59,-0.74 -0.37,-1.51 0.64,-0.58 -0.5,-1.1 5.58,0.66 2.92,-4.49 -2.23,0.26 -1.1,0.98 -2.79,-0.59 -0.76,0.63 0.13,-0.71 -0.74,0.06 2.41,-0.75 0.64,-0.83 -3.08,-0.96 1.23,-0.59 2.4,0.91 1.41,-0.32 0.41,-0.78 -0.79,-0.91 2.12,-0.88 z m 21.57,-37.95 0.31,0.4 2.93,-0.79 1.58,1.93 1.92,-0.76 2.23,1.91 3.22,0.46 2.32,1.55 1.14,-0.43 4.2,1.55 4.27,4.71 3.99,2.99 0.36,1.02 2.08,0.93 0.05,0.86 -1.05,0.22 -0.36,0.89 1.97,2.27 -1.65,0.38 0.4,0.97 -0.76,0.52 -0.51,0.41 -1.09,-0.06 -2.39,1.08 -2.85,2.94 0.33,2.28 1.61,2.15 -0.49,1.85 0.32,2.08 0.81,0.81 -0.07,1 0.85,0.02 1.22,2.81 -1.88,1.22 -0.2,2.44 0.88,1.9 -1.63,1.99 2.84,0.31 1.35,2.31 -1.35,1.31 -1.74,-0.31 -0.31,0.43 0.59,0.94 0.93,1.27 0.93,0.27 -0.03,-0.64 0.73,-0.27 -0.3,1.44 1.5,0.63 -0.82,2.35 1.03,0.91 -1.2,0.75 1.55,0.84 -0.12,1.02 1.97,1.05 -0.35,0.71 0.55,1.09 -0.65,2.51 -0.49,0.08 0.62,1.54 -1.41,-0.15 -0.33,0.76 -0.69,0.6 0.05,0.98 0.82,0.2 0.28,0.92 -0.95,0.45 0.98,1.4 0.48,1.78 -0.54,0.75 -1.15,-0.28 -0.16,0.93 -1.62,1.21 -0.22,1.15 -0.6,0.03 -0.32,-0.88 -0.83,0.34 -1.87,-0.83 -0.93,0.67 -0.86,-1.19 -2.89,-0.54 -0.24,-4.1 0.83,-1.48 -0.91,-0.42 -1.02,1.26 -1.2,-0.64 -0.75,-1.65 0,-4.43 -0.88,-0.63 -0.58,0.51 0.32,-0.86 -1.84,-1.24 -0.19,-0.79 -1.57,-0.54 -1.24,-1.44 -0.29,0.9 -0.72,-0.09 -0.79,-1.29 -1.09,0.3 -0.48,2.11 -0.91,0.34 -0.73,-1.84 -0.83,1.73 -0.42,-0.71 0.68,-0.77 -1.53,-0.33 1.16,-0.66 0.08,-1.72 -1.69,-1.72 -0.96,0.12 1,-1.21 -1.6,-1.57 -0.5,0.28 -0.3,-0.8 0.6,0.31 -1.35,-2.1 0.24,-1.22 -1.5,-0.65 0.65,-0.19 -0.44,-0.43 -0.13,0.53 -0.3,-0.98 -1.61,-1.11 0.68,-1.17 -1.42,-0.49 -2,1.2 -0.24,-0.59 -0.37,1.27 -1.08,0.17 -0.83,-0.86 1.4,-0.48 0.31,-1.27 -1.82,1.18 -0.6,-0.49 0.22,-0.68 -0.96,0.16 0.38,-1.54 -1.23,0.54 -0.33,-0.5 -3.48,0.23 -0.26,-2.07 1.72,-1.37 -1.24,-1.11 2.16,0.54 1.71,-1.41 -0.68,-0.61 0.45,0.13 -0.17,-2.4 -1.84,-1.28 -1.85,0.06 -1.19,1.27 -1.79,-1.4 -0.66,0.91 -1.12,-0.19 -1.25,1.51 -3.27,0.09 -2.95,2.86 -0.33,1.32 -2.45,0.88 2.95,1.21 -1.98,0.33 -0.25,-0.75 -3.19,0.07 -0.56,-0.58 -2.57,0.08 -1.74,0.81 -2.6,-0.84 -2.88,0.11 -5.57,2.69 0,0 -1.14,-2.22 -3.57,-1.06 -2.04,-1.37 0.46,-2.1 1.56,-1.39 -1.26,-0.68 0.25,-3.6 0,0 4.61,-1.44 1.19,-1.8 2.87,-1.1 0.12,-2.02 -1.05,-1.06 -0.38,0.42 -1.85,-0.32 -0.4,-2 3.56,-0.06 0.89,-0.78 -0.24,-0.8 -3.45,-1.09 -4.72,0.41 -0.47,-0.53 0,0 7.16,-1.59 1.44,-0.92 1.81,0.68 4.19,-0.14 1.03,-1.57 -1.1,-3.31 0.36,-1.33 1.62,-0.49 1.24,-2.1 3.26,0.26 2.06,-1.08 1.26,1.81 -0.58,2.22 -1.81,0.6 0.54,1.81 1.71,0.03 0.76,0.88 4.58,-0.18 0.67,4.64 0.7,0.96 3.4,0.68 1.05,1.97 4.13,-0.51 1.28,-2.06 1.46,-0.1 2.92,-1.57 -0.05,-1.9 1.35,-1.67 -0.83,-0.69 0.49,-2.65 -0.7,-0.82 0.56,-3.97 1.92,-2.79 0.65,-2.44 2.1,-0.51 0.11,-1.69 0,0 2.08,0.62 1.35,-0.69 0.16,0.54 z" 
                fill="rgb(151, 144, 238)" 
                stroke="white" 
                stroke-width=".7px"
                title="Attica" 
                id="GR-I" 
            />
        </svg>