<svg xmlns="http://www.w3.org/2000/svg" viewBox="179.69553000000002 291.35283 297.09999999999997 151.47000000000003" width="297.09999999999997" height="151.47000000000003">
            <path 
                d="m 439.16553,435.12283 1.1,0.66 0.46,1.34 -0.52,2.15 -1.15,0.33 -1.28,-0.68 -0.3,0.93 -1.15,-0.32 -0.53,-0.77 1.23,-3.79 0.83,0.12 0.4,-0.74 0.91,0.77 z m 1.88,-2.29 0.71,0.31 -0.22,2.65 -1.43,-0.85 0.12,-1.87 0.82,-0.24 z m 29.47,-82.03 0.93,0.07 -0.06,1.08 -2.82,-0.58 0.57,-1.34 1.38,0.77 z m -9.93,-9.24 -1.43,4.56 -1.05,-1.12 1.9,-3.39 0.58,-0.05 z m -13.5,-1.11 1.56,1.4 -1.5,1.04 -1.23,-1.15 1.17,-1.29 z m 12.25,-14.53 8.03,5.7 -0.95,2.22 0.61,2.8 -0.78,0.75 0.53,0.78 0.55,-0.42 1.36,0.43 1,1.77 0.88,-0.11 4.48,3.43 0.52,1.46 0.89,0.36 0.34,1.77 -0.75,0.47 0.42,1.64 -3.95,0.99 -0.28,-1.15 -1.19,1.39 -1.23,-0.8 -1.18,-2.15 -0.9,-0.13 -1.35,1.01 -0.44,-0.31 0.18,2.66 -1.42,-1.09 0.24,-1.22 -0.94,0.1 0.09,-0.91 -0.85,0.54 -0.44,-0.61 0.21,-1.04 0.63,0.38 0.72,-1.09 1.19,0.17 0.69,-0.66 -0.36,-3.68 -0.82,-0.35 -1.38,0.99 -0.56,-1.72 -0.82,0.54 -0.87,-0.37 -1.07,0.99 0.66,-1.98 -2.66,0.45 -0.42,-2.41 -0.95,0.82 -0.65,-1.49 -0.86,0.55 -1.53,-0.16 -0.15,-0.54 2.04,-1.58 0.12,-1.56 1.2,-0.75 -0.13,-1.64 -1.12,-0.41 -0.39,-1.25 1,-1.71 -0.39,-0.45 1.12,-0.48 0.27,-0.94 0.92,0.02 0.31,-1.09 0.58,1.07 z m -106.57,-7.5 1.47,0.24 1.7,2.51 3.35,0.97 0.22,1.14 -0.67,1.48 1.24,2.47 4.06,0.86 0.37,1.6 -0.81,2.17 0.22,2.15 1.05,1.93 0.83,0.28 -0.96,0.63 1.91,3.62 2.11,1.92 3.03,1.08 0.28,1.48 0.75,-0.14 1.04,1.22 1.99,0.49 1.14,1.8 0.59,-0.88 0.83,0.23 -0.19,2.3 1.49,-0.77 2,1.89 1.26,0.28 0.54,-0.9 1.89,1.08 1.46,-0.26 1.82,-1.81 3.15,4.73 1.14,0.48 -0.26,0.8 0.66,1.11 1.55,0.82 2.73,0.2 4.95,2.9 3.14,-0.82 5.39,2.07 2.36,-1.57 0.04,-0.88 2.47,1.06 -0.04,-0.81 1.55,-0.08 0.31,0.49 1.43,-1.24 0.14,0.56 2.82,0.32 6.87,3.1 -0.02,0.77 -1.35,0.03 -1.54,1.91 0.05,3.64 3.26,3.45 6.48,4.83 -3.97,4.57 0.36,3.63 -0.76,0.55 0.31,1.18 -0.46,0.39 0.33,0.8 1.21,0.16 0.78,2.14 -1.44,-0.26 -0.82,1.81 2.67,1.55 -0.07,1.29 0.68,0.78 -0.3,1.75 -0.91,0.99 1.39,0.74 -0.3,0.47 0.84,1.3 1.08,-0.02 -0.39,1.41 1.88,1.81 -0.3,3.7 0.56,0.76 -1.05,0.76 0.14,1.44 2.16,3.46 2.15,0.47 0.24,0.9 1.5,0.64 1.06,-0.67 0.66,1.19 -0.63,0.98 1.92,1.41 4.17,-1.27 0.58,1.33 2.04,1.12 1.77,-0.17 1.44,0.67 4.07,-0.72 3.8,0.71 3.26,-2.1 0.54,0.34 -0.06,2.15 -1.44,3.59 0.64,1.57 -0.35,1.5 1,1.96 -0.45,4.28 -1.49,1.61 0.44,0.84 -1.42,1.58 0.08,1.03 -1,0.81 -0.65,0.41 -0.79,0.07 -0.38,1.19 -1.18,0.76 -1.71,0.13 -1.96,-1.16 0.42,-1.08 -1.62,-3.45 -3.65,-1.47 -2.37,0.87 0.31,0.91 -0.74,0.16 -0.11,1.18 0.67,0.92 0.83,-0.06 -1.47,0.84 0.03,1.1 -1.11,-0.26 -0.09,-0.76 -3.1,-2.01 -0.56,-2.75 -0.99,-0.5 -0.41,0.54 -1.06,-1.7 0,-0.78 1.53,-1.24 -1.25,-2.86 -1.82,0.15 -0.31,-1.7 -2.25,-1.27 -5.22,0.91 1.16,-4.15 -0.62,-0.5 -1.99,0.42 -0.45,-0.68 1.14,-2.19 1.29,-0.29 0.43,-1.6 -0.35,-1.69 -1.31,-1.01 -0.58,-2.92 -2.31,-1.52 -1.79,0.26 0.86,1.59 -1.45,-0.69 -0.59,1.27 -0.96,-1.45 1.99,-2.26 0.85,-2.48 0.97,-0.61 -0.48,-1.3 -1.35,-0.28 0.18,0.72 -0.85,0.13 -0.62,1.9 -1.05,0.67 -1.05,-1.09 0.68,-0.35 -0.52,-0.5 0.43,-0.78 -1.04,-0.5 0.96,-1.03 0.79,0.08 0.52,-1.73 -1.01,0.3 0.09,-1.82 -2.04,-0.86 -1,0.56 -0.39,-0.89 -1.89,0.56 -2.53,-0.73 0.38,-0.93 0.59,0.42 2.29,-0.87 -0.9,-3.17 0.86,-1.37 -0.82,-1.63 -2.75,0.54 -1.97,-1.64 -2.94,2.11 -6.32,0.25 -3.27,-1.81 -2.95,-0.62 -3.04,1.92 -8.35,-2.87 -2.09,0.25 -1.06,1.39 -1.24,-0.07 -1.58,-3.27 -0.82,-0.43 -0.01,-1.84 -0.99,-0.9 -0.47,0.65 -0.71,-0.42 -0.3,0.82 -0.57,-0.23 0.15,-0.85 -0.02,-0.71 1.29,-1.71 0.87,0.78 1,-0.63 0.33,-2.27 0.67,-1.22 -0.1,-0.78 -0.57,0.07 -0.3,-3.39 -2.08,-2.11 -0.16,-1.06 -2.59,-0.22 -1.16,-1.13 -2.8,0.55 -1.34,-1.05 -1.85,-5.53 -3.79,-1.81 -1.76,-3.82 -3.73,-1.56 -3.44,-3.3 -2.44,-4.17 -2,-0.94 -1.56,0.34 -0.39,-1.15 -3.96,-2.64 -3.26,-3.88 -5.41,-2.05 -5.01,1.54 -3.43,-1.72 -1,-3.26 -3.68,0.29 -2.54,-1.07 -1.2,0.91 -0.1,0.86 2.93,0.32 1.02,1.24 -0.25,1.22 -2.91,1.64 -6.5,-0.25 -5.03,1.57 0.47,-2.79 1.49,-2.42 4.61,-0.79 0.38,-0.8 2.74,-0.78 0.21,-0.68 4.79,-1.7 1.35,0.08 0.49,-0.48 1.97,-1.37 0,-1.29 1.18,-0.8 2.95,0.35 0.97,-4.68 3.4,-2.76 2.49,-0.32 2.09,0.71 2.23,-0.14 2.06,-1.92 2.39,-0.3 2.18,-1.68 2.15,-0.26 z m -171.08,-14.53 4.29,-2.82 -0.05,-1.83 1.45,0.2 0.83,-1.18 2.78,-1.41 0.5,-1.25 1.09,1.3 2.76,1.07 0.88,-0.28 0.71,-1.67 1.18,-0.91 2.67,-0.09 1.63,-1.55 2.11,0.6 2.43,-0.27 1.98,2.63 -1.41,1.68 1.04,3.05 3.84,0.99 -1.49,3.94 0.4,3.22 4.27,1.13 2.75,-1.51 2.59,-3.97 1.9,0.27 1.47,3.15 1.66,0.48 0.88,1.71 2.67,0.53 0.86,2.06 0.55,6.39 0.6,0.56 3.56,-1.64 1.57,0.53 1.09,-1.3 0.84,0.43 1.1,-0.57 0.77,-0.59 -0.84,-0.98 -0.19,-2.05 1.83,-1.07 0.77,-1.48 3.56,0.37 4.13,-2.79 0.3,-1.57 -0.7,-2.84 2.93,-1.71 0.37,-1.83 2.16,-1.91 1.35,-3.4 1.83,-1.2 0.3,-3.12 1.42,-0.04 2.01,4.2 9.35,1.07 1.3,1.36 0.24,2.11 2.75,1.18 1.05,2.48 -0.51,2.88 1.35,0.63 1.47,-0.79 2.34,1.35 -1.07,1.85 0.56,0.85 -0.4,1.39 0.81,0.47 0.13,3.05 -0.87,2.15 4.39,-0.32 2.84,0.7 1.25,-0.42 1.22,0.93 2.4,-1.47 3.46,-0.32 1.73,0.7 -0.18,1.58 2.24,1.96 2.07,0.51 1.29,-0.55 0.86,2.1 8.94,0.01 0.88,-0.76 2.05,3.28 4.17,0.82 3.07,-0.77 2.4,-1.82 0.21,-1.14 2.06,-0.33 0,0 -0.94,3.4 -1.5,1.13 -0.3,2.52 -1.91,-0.93 -1.92,1.79 -1.04,-0.87 -0.41,0.78 0.74,1.02 -1.52,0.36 -0.45,0.78 -5.59,-0.84 -1.64,1.92 0.26,1.85 -0.99,0.62 -2.25,0.22 -1.69,1.1 -1.01,-0.34 -1.43,1.34 -3.02,-0.8 -1.41,-1.45 -1.35,1.11 -2.25,-0.45 -1.83,-2.42 -2.22,-0.31 -0.52,-0.68 -1.32,0.31 -2.48,2.29 -2.44,0.8 -0.1,0.85 0.66,0.34 -2.48,1.53 1.29,0.21 2.22,-1.3 1,0.31 -2.35,1.89 0.56,0.04 -0.39,1.69 1.83,-0.75 0.24,1.81 1.09,-0.07 0.58,-1.43 -0.33,-0.61 0.84,-0.02 -0.3,1.24 0.73,1.34 1.97,-1.79 1.52,0.65 3.59,-1.08 1.1,-1.31 0.92,2.31 1.65,0.88 3.76,4.98 1.06,0.39 0.88,-0.71 1.7,0.21 1.56,-0.96 3.67,4.03 3.06,-2.52 2.05,0.64 1.28,1.95 2.7,0.87 4.76,-0.48 1.32,-0.8 2.74,3.78 -0.12,4.39 1.95,3.65 0.05,1.3 1.05,0.02 0.96,1.88 1.45,-1.44 0.61,0.47 0.46,-1.27 2.2,-0.26 1,-0.05 1.69,-0.43 0.13,-0.67 -2.35,-2.05 2.92,-0.62 4.66,4.02 2.67,-0.61 2.93,0.94 2.11,2.31 0.34,1.83 -1.58,1.59 -1.45,0.37 -1.65,2.01 -0.36,1.93 1.15,-1.69 1.73,-0.06 0.27,1.76 0.68,0.37 0.04,0.98 0.1,0.54 0.62,0.62 0.92,-0.73 2.94,1.43 -0.48,0.54 -3.6,0.37 -0.28,2.22 1.45,-0.01 0.96,-0.69 1.09,-0.64 3.13,0.07 0.73,1.33 4.61,-0.09 1.33,1.4 3.28,0.79 2.13,-3.42 1.26,0.46 3.66,3.92 -0.41,1.11 -1.1,-0.07 -1.03,1.06 0.44,0.84 2.61,0.4 0.13,0.71 -0.6,-0.06 0.94,1.51 -0.75,0.88 1.59,-0.2 1.78,0.87 -0.41,2.25 1.15,2.84 3.26,3 1.18,-0.05 0,0 -0.11,1.69 -2.1,0.51 -0.65,2.44 -1.92,2.79 -0.56,3.97 0.7,0.82 -0.48,2.65 0.83,0.69 -1.35,1.67 0.05,1.9 -2.92,1.57 -1.46,0.1 -1.28,2.06 -4.13,0.51 -1.05,-1.96 -3.4,-0.68 -0.7,-0.95 -0.67,-4.64 -4.58,0.18 -0.76,-0.87 -1.71,-0.03 -0.54,-1.81 1.81,-0.6 0.58,-2.22 -1.26,-1.81 -2.06,1.08 -3.26,-0.26 -1.24,2.11 -1.62,0.49 -0.36,1.33 1.1,3.31 -1.03,1.57 -4.19,0.14 -1.81,-0.68 -1.44,0.92 -7.16,1.59 0,0 1.52,-1.65 -2.75,-2.81 -4.05,4.15 -0.78,-0.95 -2.67,0.01 2.09,-1.73 -2.15,-1.31 -0.28,-0.9 -4.75,-0.08 -0.91,-0.03 -0.89,-1 -1.15,0.94 -1.18,-0.23 -0.61,1.67 1.16,0.44 0.53,-0.99 0.74,-0.04 1.3,0.74 0.79,1.46 -2.57,0.57 -2.41,-1.44 -1.67,-4.58 -0.76,0.03 -0.34,1.52 -1.51,-1.18 -2.35,0.84 -3.09,-0.93 -1.2,-0.23 -1.26,0.13 -1.4,-1.52 1.22,-1.32 0.62,-0.68 1.26,-0.49 -0.01,-0.74 -3.85,-1.24 -0.38,-1.17 -5.11,-2.25 -1.17,-2.98 0.82,-0.59 -0.36,-1.8 -2.45,-2.47 -2.64,1.23 1.72,1.01 -1.01,1.93 -1.04,-0.33 -0.47,-1.32 -0.94,0.93 -0.55,-0.35 -0.75,0.68 -0.82,3.01 1.94,1.04 -1.68,1.33 -0.02,1.95 -0.42,1.04 -2.84,-0.41 0.02,-1.25 -1.33,-2.42 -1.72,-1.41 0.3,-0.73 1.54,-0.15 -0.05,-0.89 -2.23,-1.95 -0.75,-2.38 -1.95,-1.56 -2.51,-3.68 -3.35,-0.5 -0.05,-1.39 -0.85,0.09 -0.61,-0.73 -0.25,1.88 0.7,0.49 0.26,1.63 0.66,0.22 -1.26,0.49 -0.7,-0.42 -1.94,2.35 1.24,1.9 0.92,-0.51 0.4,1.64 -1.65,0.05 -0.39,2.01 0.49,-0.63 0.93,0.44 -1.41,0.96 -0.17,0.81 -1.7,-0.42 -0.02,-1.41 -3.15,0.57 -2.21,-1.39 0.03,0.99 -1.12,1.04 -3.21,-2.8 -0.75,1.21 -1.07,-0.82 -3.13,2.4 -0.91,1.96 -2.46,-3.22 -0.59,0.71 -1.26,-0.57 0.42,-0.16 -0.35,-1.01 -0.88,-0.18 -0.19,-0.82 -1.16,0.21 -0.41,-0.59 -0.39,0.42 -3.38,-1.77 -1.35,-1.44 -4.25,0.54 -0.95,-1.08 -3.2,-0.66 -2.06,-0.11 -3.45,4.1 -1.9,0.25 -2.02,-0.69 -0.13,-0.74 0,0 2,-2.57 0.85,-7.49 8.11,-3.64 2.05,-1.7 -0.77,-3.04 1.79,-4.79 -0.34,-0.82 -3.71,-1.41 0.94,-1.63 2.05,-0.54 0.17,-1.41 -1.45,-1.58 -0.13,-2.5 0.68,-1.36 -0.64,-1.42 0.98,-2.4 2.35,-1.2 0.04,-1.69 -2.43,-3.49 -2.31,0.44 -0.9,-1.04 -1.71,-0.11 0.26,4.42 -0.43,0.44 -3.88,1.42 -1.62,-1.04 -4.01,0 -1.88,5.72 -3.2,1.03 -0.47,-0.11 -0.09,-3.54 -0.51,-0.71 -0.6,-0.22 -1.92,1.31 -3.37,0.11 -2.01,-1.42 -2.73,0.05 -4.18,-1.2 -1.88,-1.25 -1.45,-6.05 -0.85,-1.15 1.54,-1.96 0.68,-3.38 3.76,-0.38 0.73,-0.44 -0.04,-1.42 -0.85,-1.59 -8.2,-2.51 -2.35,-3.88 -0.94,-4.65 -5.72,-2.13 -3.84,-2.52 -0.34,-1.7 1.92,-3.07 1.11,-0.22 2.01,-5.31 -3.03,-3.67 -0.03,-3.51 0,0 0.01,-0.06 z" 
                fill="rgb(151, 144, 238)" 
                stroke="white" 
                stroke-width=".7px"
                title="Central Greece" 
                id="GR-H" 
            />
        </svg>