<svg xmlns="http://www.w3.org/2000/svg" viewBox="209.8955299999998 41.302831000000005 215.65000000000023 176.469999" width="215.65000000000023" height="176.469999">
            <path 
                d="m 360.00553,190.79283 0.98,-0.07 2.05,1.63 2.06,2.89 1.01,3.32 3.58,4.34 9.37,4.73 5.65,1.91 0.56,-0.35 1.24,1 -0.3,1.28 0.8,0.41 0.58,2.75 1.72,0.71 3.1,-0.69 0.4,2.16 -3.06,0.96 -2.6,-1.05 -2.9,0.34 -5.48,-0.77 -1.3,-1.24 -2.25,-0.45 -8.16,-4.08 -1.9,-0.07 -2.3,1.22 -3.57,-0.33 -1.98,0.93 1.9,-3.32 0.55,-2.3 -1.7,-2.42 -2.06,-5.05 -2.29,-1.4 -0.14,-2.25 -0.75,-0.19 1.63,-3.13 -0.44,-1.95 0.83,-4.36 -0.42,-1.79 1.11,-0.08 1.3,1.79 1,3.59 2.18,1.38 z m 47.83,-23.13 0.67,0.34 -0.09,1.71 1.24,0.21 0.92,0.97 -2.56,-0.42 -0.76,-1.08 -0.42,0.33 -2.03,-1.23 2.78,-1.43 0.25,0.6 z m -39.2,-125.529999 4.1,-0.65 2.01,2.07 2.68,-0.37 1.64,1.51 2.78,0.13 0,0 0.71,6.78 5.57,0.85 1.67,1.19 0.13,2.46 -1.73,3.48 0.71,2.89 1.67,1.78 -0.83,1.95 0.45,0.68 2.5,0.42 4.29,5.26 5.38,1.95 7.3,5.42 1.22,-0.34 2.75,-3.22 4.8,3.13 0.32,1.1 -0.7,2.79 7.49,6 -0.83,2.79 0.51,2.2 -1.79,3.13 0.51,2.03 -0.58,0.34 -1.28,-0.93 -1.47,0.08 -0.13,3.169999 -2.62,0.08 -3.33,2.95 -1.09,2.62 -3.91,2.95 -1.22,0.67 -3.01,-0.25 -1.41,1.1 -0.9,1.1 0.43,2.18 0,0 -3.15,-0.56 -4.44,1.65 -1.97,1.6 -2.21,0.25 -3.11,5.32 -0.77,4.46 4.2,1.86 3.63,4.81 0.34,2.68 1.12,-0.06 0.51,1.41 1.53,0.06 1.14,2.64 1.95,-0.28 2.36,0.85 0.37,-0.72 1.06,0.64 -0.2,1.01 2.27,1.31 -0.73,1.15 -1.41,0.51 -5.57,0.17 -0.91,1.5 -0.31,2.32 0.9,3.92 0.79,1.43 0.61,-0.1 1.61,3.09 2.39,2.27 3.58,1.57 2.75,-0.13 1.05,0.65 3.28,-1.22 0,0 0.85,5.67 -1.07,3.03 0,0 -2.28,-1.2 -1.56,-2.59 -2.16,-1.35 -3.16,-1.01 -1.42,0.65 -3.24,-1.21 -4.07,1.78 -2.21,2.11 -4.19,-1.89 -0.89,2.45 -1.64,-0.1 -1.13,3.39 -0.06,2.21 1.26,3.17 1.38,0.75 1.25,2.65 0.32,-1.05 0.65,0.2 1.12,0.81 -0.26,1.87 1.49,2.62 1.45,0.49 1.57,-0.78 1.53,1.64 7.97,2.6 1.79,2.28 3.7,1.47 0.4,1.08 1.45,1.03 -1.43,0.77 -0.14,1.89 2.15,2.27 0.51,1.39 -1.61,0.36 -0.5,0.82 0.4,0.92 2.66,-0.15 0.31,3.44 -1.05,1.14 -1.3,0.13 0.43,0.71 -0.86,-0.04 -0.33,0.62 1.28,1.72 -3.17,0.76 1.04,0.79 1.48,0.07 -0.35,0.98 -2.72,0.07 -1.26,1.18 -1.53,0.11 0.35,-1.14 -1.21,-0.1 -0.3,-1.24 0.85,-0.16 -0.16,-0.7 -0.68,-0.62 0.22,0.96 -1.57,0.22 -0.3,-1.15 0.52,-1.34 -1.35,-1.57 -1.44,0.02 -0.47,-1.34 -2.76,-1.92 -0.92,0.05 0.22,1.76 -0.58,0.27 -0.42,-0.64 0.46,-0.93 -1.35,-2.04 0.34,-0.71 -1.88,-1.52 -0.41,-1.13 0.48,-2.6 -1.61,-0.85 -0.1,-2.5 -1.06,-1.47 -2.45,-1.46 -1.63,-4.05 -1.44,-1.68 -1.02,0.04 -0.75,-0.72 -0.3,-1.39 -1.98,-1.77 -3.39,-0.54 -2.85,0.34 -2.76,-1.24 -1.16,0.21 -3.92,-2.81 -8.65,-2.39 -4.38,4.25 -1.58,2.88 -0.01,2.31 -1.04,0.02 -0.82,-2.89 -1.78,-1.6 -1.54,-0.05 -0.67,-0.77 -4.54,-1.56 -1.95,-0.08 -1.87,-1.58 -2.92,-0.42 -3.54,-2.85 -7.47,-3 -0.52,-2.43 -2.78,-2.64 -2.12,-0.33 -0.83,-1.04 -1.35,-0.22 -4.12,0.93 1.28,-2.87 -1.81,-3.17 -1.61,-0.96 0.02,-1.6 -1.06,-2.37 -3.43,-1.22 0.18,-2.78 1.58,-0.71 4.61,0.67 3.75,-1 3.85,-2.63 0.87,-1.98 -4.1,-3.55 1.27,-1.98 -0.2,-3.67 -3.06,-1.4 -0.14,-0.24 -1.73,-0.34 -2.74,2.21 -1.26,-0.48 -1.23,1.31 2.11,0.56 0,2.13 -2.23,2.28 -4.05,1.74 -1.32,-0.93 -1,0.37 -1.62,0.78 0.05,2.26 -0.05,0.75 -0.37,0.45 0.43,0.59 0.27,0.66 -0.47,0.79 -0.47,0.56 -0.99,0.72 -0.87,-0.11 -0.99,-1.99 -1.29,0.02 0.75,-1.16 -1.55,-0.08 -3.12,1.54 0.53,0.46 0.75,2.29 1.41,1.01 -1.79,-0.04 -0.54,0.74 -0.78,-0.55 0,1.21 -1.03,0.19 -0.82,-0.8 0.57,-0.27 -0.76,-0.13 -0.45,1.2 -1.09,-0.47 -1.43,1.27 1.85,2.54 0.48,4.16 1.51,3.32 2.72,1.38 0.33,0.79 -5.21,9.41 -1.62,6.03 0.39,2.28 -3.18,4.64 -0.61,3.03 1.82,5.45 0.29,4.91 1.11,1.42 1,3.63 3.83,3.33 3.1,1.38 0,0 1.52,1.27 -2.06,1.84 -1.28,-2.21 -2.68,-0.76 -1.95,1.6 -6.66,1.12 -1.11,-1.22 -0.88,-0.07 -0.58,-1.17 -1.03,-4.87 -3.73,-1.98 -1.29,-1.61 -1.84,0.75 -1.09,-1.69 -1.78,1.13 -0.27,-1.11 -1.07,-0.54 -0.28,-1.47 -1.26,-0.31 1.67,-3.38 0.62,-4.85 -1.39,-0.09 -0.84,1.23 -0.21,-1.43 0.77,-1.95 -2.73,-2.71 -3.2,0.91 -1.7,1.74 -0.4,2.19 -2.09,3.11 -2.14,0.91 -1.1,-2.82 0.27,-2.44 -1.68,0.18 0.36,-1.75 1.95,-1.77 -0.59,-1.25 -1.01,-0.7 -7.1,0.56 0,0 -0.64,0.02 0,0 -0.86,-1.22 0.84,-1.15 5.18,-2.77 1.05,-4.64 1.4,-1.38 -0.19,-1.61 -3.13,-0.37 -0.68,-1.48 -2.12,-0.95 0.06,-1.97 2.04,-1.51 0.08,-0.71 -2.52,0.22 -1.24,-1.92 -1.69,-1.06 1.14,-5.75 -3.23,-1.15 -3.93,0.52 -0.46,-0.66 0.66,-0.69 -3.86,-3.69 -4.83,-1.02 -0.43,-3.31 -2.64,-3.74 0,-1.2 1.74,-1.71 -2.64,-2.45 0.31,-2.02 -0.72,-1.55 0.56,-1 -0.4,-1.21 2.06,-1.28 -0.03,-3.26 -4,-1.35 -1.25,-1.66 -0.94,1.11 -1.42,0.17 -0.75,-3.5 -2.88,-2.04 1.67,-3.73 -1.88,-0.6 -2.53,0.64 -1.31,-0.93 0.68,-1.58 -0.79,-1.43 0.8,-0.96 -2.84,-4.38 1.61,-0.71 0.39,0.69 1.08,-1.18 2.72,-0.63 2.53,-1.38 0.39,-0.93 1.97,-1.32 -0.28,-0.83 -1.82,-0.13 -1.62,-2.799999 0,0 1.4,-1.51 -0.2,-3.75 4.12,-2.46 0.18,-1.48 3,-2.27 -0.04,-1.41 1.37,0.19 1.49,-1.26 -0.9,-2.32 0.54,-2.85 3.76,-2.05 2.1,-2.23 1.42,0.39 3.36,-0.96 2.78,-2.11 0.19,-1.16 1.27,0.74 0.84,1.89 2.3,0.67 1.5,1.21 1.81,-0.57 2.2,-3.45 2.9,-0.49 1.07,-1.02 1.89,0.84 2.63,-0.11 0.74,1.12 2.73,1.02 1.51,-0.62 0.55,3.58 0.4,-0.84 1.71,-0.82 0.89,0.31 0.71,-0.66 1.36,0.69 1.23,-0.7 0.32,1.14 1.53,1.16 2.89,-0.36 1.26,0.56 4.18,-1.22 4.32,-0.4 1.39,1.46 1.26,0.05 2.41,-1.89 1.79,-2.42 0.84,-2.92 1.61,-0.84 4.21,5.45 2.12,-1.13 1.09,-1.72 0.85,-13.28 0.7,-1.82 -0.56,-2.22 0.68,-1.67 2.17,-0.54 0.82,-1.56 0.87,0.42 0.33,-0.68 1.42,1.08 3.23,-0.7 6.41,0 6.36,1.44 1.89,-0.62 5.08,2.42 4.85,0.12 6.08,-1.36 2.17,-2.89 -0.39,-2.23 0.56,-1.01 2.23,-0.81 2.29,-2.14 3.48,0.06 1.77,4.03 5.67,-4.44 1.32,0.36 1.68,-0.83 3.78,0.83 z" 
                fill="rgb(151, 144, 238)" 
                stroke="white" 
                stroke-width=".7px"
                title="Central Macedonia" 
                id="GR-B" 
            />
        </svg>