<svg xmlns="http://www.w3.org/2000/svg" viewBox="371.67552999999873 694.7228299999997 251.44000000000062 97.42000000000041" width="251.44000000000062" height="97.42000000000041">
            <path 
                d="m 421.45553,784.46283 4.7,1.32 0.25,0.72 -0.96,0.99 -0.19,1.48 1.66,2.79 -0.82,0.38 -6.46,-4.21 -1.17,-1.72 2.11,-0.08 0.31,-1.53 0.57,-0.14 z m 190.21,-50.18 0.02,0.74 -1,0.62 -2.04,-0.2 -0.32,-0.56 3.34,-0.6 z m -0.3,-2.52 0.54,0.61 -0.51,0.95 -1.49,0.09 -0.01,-1.2 1.47,-0.45 z m -86.69,-12.21 2.58,1.69 -0.79,0.59 0.07,2.4 -1.11,-0.62 -0.65,-0.57 -0.83,0.13 -2.47,-1.02 0.01,-0.55 1.8,-1.02 0.6,-0.84 0.79,-0.19 z m -132.95,-24.83 3.27,2.6 -1.12,1.85 0.47,2.02 0.96,3.82 0.11,5.79 4.24,1.54 1.98,0.73 7.45,0.53 1.56,0.75 3.79,0.42 2.11,-1.04 1.63,0.26 1.38,-0.72 0.39,-3.16 0.6,-0.36 0.81,0.85 1.72,-0.7 -1.55,-3.17 1.08,-1.19 1.44,0.44 0.2,-0.83 2.06,-0.45 4.65,1.63 2.38,5.23 -1.49,2.04 -0.26,1.94 -0.97,-0.15 -0.64,0.51 0.22,0.6 -0.8,0.02 -4.57,-1.56 -2.16,-0.09 -1.79,1.08 -0.02,0.79 1.43,0.01 3.62,2.36 2.93,-0.08 1.08,1.33 2.23,1.12 1.28,-0.05 0.53,-1.39 1.12,0.3 1.92,-1.71 1.4,2.35 -0.35,2.57 0.81,0.58 -0.21,6.52 1.97,1.03 5.56,0.54 1.6,-0.2 1.25,-1.05 3.02,0.22 0.87,-1.04 2.58,0.01 0.82,0.57 0.87,-0.25 1.75,0 5,-0.79 6.08,-2 3.43,-2.99 3.72,0.09 0.94,-0.95 3.26,0.27 2.85,1.04 1.48,-0.44 1,0.73 1.98,0.5 1.39,0.1 3.62,-0.26 0.23,-1.19 0.92,-0.15 2.82,2 1.85,-0.42 1.53,0.54 0.84,-0.61 0.79,-1.62 1.45,1.1 1.08,-0.83 1.55,0.13 -0.04,1.55 0.77,0.75 1.53,-0.68 0.42,1.29 -1.06,2.07 0.22,1.74 1.15,1.79 3.62,0.47 5.25,-0.56 0.16,-0.57 2.9,0.37 0.61,1.42 2.77,-0.39 1.12,0.55 12.26,-0.98 1.18,0.21 0.24,1.42 1.25,1.52 3.46,1.99 4.18,-0.47 3.81,-1.49 1.61,-1.35 2.34,0.25 1.49,-1.18 6.29,-1.77 2.66,1.29 3.43,-0.46 2.38,0.47 1.64,-0.61 -1.02,2.61 -2.98,1.53 0.26,1.35 -0.75,2.99 1.11,0.81 -0.21,1.41 0.72,1.25 -2.32,1.33 -0.13,2.34 0.82,0.95 -1.37,1.55 1.46,2.35 0.27,2.69 0.67,0.35 1.04,0.16 1.21,-0.57 0.92,0.96 3.29,1.27 1.71,-1.08 2.06,-3.96 0.72,-0.39 0.65,0.85 2.72,-2.11 0.17,-1.77 1.97,0.86 2.53,-0.21 1.6,-2.13 0.93,0.65 2.3,-0.45 0.72,-0.68 -0.29,-0.7 1.92,-1.85 3.04,-0.14 0.68,1.02 1.5,0.31 2.45,-1.17 0.5,0.53 -0.86,1.64 0.31,0.5 2.37,0.91 2.73,-0.59 1.68,-1.25 -0.46,-1.48 1.71,-0.35 0.77,-0.71 0.64,-0.3 0.92,-1.56 -0.36,-1.48 0.86,-0.86 0.33,-0.52 0.87,-0.34 0.16,0.93 0.67,0.19 0.85,-1.06 1.07,-0.79 -0.29,-0.75 1.46,-0.42 -0.7,-0.53 -0.09,-0.54 2.41,-0.7 0.23,0.95 -0.97,0.55 0.47,0.85 -1.26,0.23 -0.36,1.66 -2.05,1.25 1.09,3.6 -0.63,2.62 1.91,2.01 1.14,0.2 1.19,-1.15 0.05,1.86 -0.84,0.94 -2.36,0.43 -0.39,1.88 0.84,1.62 -0.36,2.37 -1.47,1.79 0.71,1.07 -2.26,2.63 -1.32,3.33 -1.1,-0.26 -0.99,1.51 -1.31,0.73 -3.26,0.06 -1.22,1.36 -2.8,0.89 -1.62,-0.21 0.15,-1.18 -0.88,-1.12 -2.1,-0.38 -2.53,0.27 -0.73,0.64 -0.87,-0.82 -1.44,0.22 -0.35,-1.18 -2,-0.95 -1.36,0.82 -2.49,-0.32 -7.86,2.04 -2.77,1.79 -3.7,-0.15 -2.32,-0.99 -1.02,0.65 -4.21,-1.19 -2.4,1.09 -6.02,-0.23 -4.47,2 -1.94,-0.29 -1.9,0.97 -4.55,-1.03 -3.23,0.49 -3.7,-1.32 -4.2,1.82 -4.15,-0.2 -0.9,1.64 -2.31,1.27 -0.54,-0.31 -4.29,1.54 -0.59,-0.9 -4.37,0.04 -3.83,2.28 -0.46,-0.74 -2.98,-0.36 -1.1,-0.04 -1.36,1.03 -1.15,0.43 -3.01,-0.47 -1.35,0.26 -1.27,-0.15 -1.23,0.03 -1.79,0.78 -7.13,-1.69 -2.53,0.43 -1.63,1.47 -1.74,0.09 -1.54,0.2 -0.85,-0.44 -1.29,0.4 -0.05,-1.2 1.47,-0.78 0.55,-1.26 -0.34,-1.07 -0.09,-0.85 -0.57,-2.51 0.43,-1.35 1.08,-0.77 -0.63,-4.66 -1.35,-3.08 -3.92,-1.84 -0.42,0.51 -7.4,-0.64 -1.51,0.38 -1.39,-0.9 -1.47,0.51 -0.46,-1.63 -3.06,-3.07 -3.74,-1.06 -1.98,0.37 -3.11,-1.48 -0.43,-1.14 -1.48,-0.96 -1.11,-1.18 -2.06,0.15 -1.16,1.07 -2.49,-0.81 -3.57,1.61 -3.16,-0.87 -1.66,0.23 -2.98,-2.22 -3.88,1.04 -1.37,-0.36 -0.49,-0.84 -3.09,0.45 -1.12,-0.54 -1.22,1.16 -1.98,-0.13 -1.7,-0.23 -1.41,-0.7 -1.57,-2.37 -1.16,-0.62 -2.92,-0.03 -2.68,0.84 -3.46,-1.78 -1.44,0.31 -3.72,-1.39 -1.64,0.16 -0.73,0.93 -1.19,0.6 -2.02,0.5 -0.72,-1.14 -4.88,-0.03 -2.2,0.85 -1.12,-0.69 -1.93,0.2 -0.82,0.25 -1.61,0.33 -1.91,-0.55 -0.55,0.48 -1.02,-0.79 0.05,-2.47 -3.31,-1.04 -0.86,-1.6 -1.3,-0.31 -0.38,-1.83 1,-0.79 0.5,-0.62 1.62,-0.46 -0.07,-0.74 -1.61,-1.04 0.79,-1.18 -0.61,-1.31 0.62,-1.68 -0.62,-0.51 1.71,-1.49 -0.46,-1.71 2.09,-1.63 0.1,-2.39 -0.93,-0.12 -0.43,-1.13 0.12,-1.07 0.81,-0.28 1.41,-2.49 -0.32,-1.23 -1,-0.72 0.23,-1.45 0.57,-2.72 0.92,-1.54 -0.3,-1.48 -0.3,-0.9 -0.06,-0.76 1.26,0.69 0.67,-2.85 -0.28,-1.98 1.29,2.98 -0.77,1.09 0.33,2.58 0.71,0.59 0.05,4.91 1.39,0.65 0.92,0.68 1.35,0.86 3.06,-0.12 2.6,-0.9 1,-4.14 -0.44,-2.78 -1.44,-2.81 0.76,-2.32 -0.87,-2.82 0.25,-1.58 2.43,-3.96 z" 
                fill="rgb(151, 144, 238)" 
                stroke="white" 
                stroke-width=".7px"
                title="Crete" 
                id="GR-M" 
            />
        </svg>