<svg xmlns="http://www.w3.org/2000/svg" viewBox="57.44553200000016 166.31282999999982 127.27999799999992 162.9900000000001" width="127.27999799999992" height="162.9900000000001">
            <path 
                d="m 126.21553,166.31283 3.24,1.34 2.56,-0.67 1.37,1.38 1.37,-0.36 4.05,4.2 1.63,2.58 0.25,1.9 1.55,1.01 1.08,3.4 2.06,1.9 -1.15,1.54 1.85,0.25 -0.26,2.06 0.63,2.34 -4.24,2.43 2.86,3.59 0.01,2.13 1.94,3.29 2.06,-0.27 1.79,-1.1 2.87,1.27 -0.35,4.54 -1,2.04 -1.33,0.84 -1.84,-1 -0.74,0.82 2.27,3.41 2.28,1.9 0.61,1.48 -0.43,1.28 1.07,1.66 -0.73,1.31 1.12,0.56 0.04,1.98 6.21,2.21 1.44,-2.44 1.84,0.14 2.67,-1.3 2.31,1.54 1.59,-0.16 1.88,2.38 0,0 -0.55,0.63 -1.32,-0.48 -1.18,0.38 0.2,1.76 -0.3,1.55 -1.19,1.42 0.38,0.69 -1.98,-0.29 -0.28,0.49 0.22,1.99 -0.5,0.4 1.03,3.52 -0.76,1.69 1.41,1.07 1.24,2.67 -0.55,1.21 -1.32,0.55 -3.11,-2.96 -1.52,0.72 -1.55,-0.63 -0.58,1.89 -1.26,0.29 -0.16,1.13 -1.98,1.17 0.51,1.49 2.49,1.92 -0.15,3.56 2.39,0.15 0.4,0.78 1.58,9.34 -2.05,3.29 0.33,0.51 2.86,-0.29 0.08,2.21 -1.93,0.68 0.4,1.1 2.73,3.53 3.37,2.17 1.05,2.39 -0.58,2.04 2.01,0.65 0.31,0.96 1.36,0.75 5.99,-0.21 1.61,1.61 0.4,1.75 0.77,0.17 -0.07,2.89 1.83,0.89 -1.21,3.64 -1.26,0.52 -0.83,1.79 -0.84,-0.25 -1.52,1.41 -0.22,1.37 -1.35,1.52 0.21,2.11 1.68,1.43 0,0 -4.23,2.2 0.04,1.54 -5.03,3.19 -3.44,-1.62 -1.89,1.19 -1.52,-1.82 -1.49,1.39 -1.35,-0.32 -1.38,0.81 -2.43,0.21 -1.83,2.25 1.09,1.64 -2.25,0.85 1.36,1.65 0.53,1.93 0,0 -2.27,0.37 -1.38,0.18 -0.6,0.66 0.27,0.67 -1.34,0.59 -1.01,0.63 0.09,1.2 1.01,0.95 -3.89,-1.33 -1.47,0.91 -0.77,-2 -0.62,0.07 -0.49,-1.56 -1.01,-0.04 -0.7,0.25 -1.26,-1.77 0.32,-0.59 -0.94,-0.83 -0.52,0.23 0.14,-2.54 -1.21,-0.34 -1.67,1.16 0.32,2.05 -1.44,-0.56 -0.84,0.69 -0.42,1.54 1.25,0.62 -0.42,0.66 -1.03,-0.23 -0.04,-1.45 0.21,-1.89 -1.25,0.13 -0.39,0.39 -0.79,-1.23 0.32,-0.86 -1.35,0.3 -0.04,0.74 -1,-1.06 1.53,-0.17 1.05,-1.74 -2.77,-2.79 -0.01,-0.79 -1.73,0.67 0.48,0.35 -0.4,0.51 1.9,0.62 -1.02,0.4 -0.4,0.6 -1.53,-0.96 -0.71,0.37 1.59,1.16 -1.55,0.99 1.65,-0.04 -0.26,0.45 0.09,0.54 0.06,1.27 -0.75,0.71 0.41,0.48 -1.92,1.82 -0.9,2.54 -0.46,-0.45 -0.93,0.45 2.25,2.33 1.17,0.07 2.93,2.52 1.58,0.38 0.29,1.15 -1.02,0.59 -0.18,-1.48 -1.13,0.95 -1.39,-1.37 -2.85,-0.09 0.09,2.39 -1.7,0.63 -1.06,-0.6 -2.48,-5.31 0.11,-0.61 0.84,0.03 0.43,-1.49 -0.77,-3.59 -3.75,-4.59 -1.46,-1.06 -1,0.16 -5.29,-5.06 -3.88,-5.76 -5.359998,-3.56 -0.12,-1.94 -0.21,-0.91 0.47,-0.77 -0.56,-1.58 0.51,-1.57 -0.91,-0.3 -0.43,1.06 -1.86,-1.4 -0.76,0.97 -3.41,-1.35 -0.73,0.88 -4.16,-0.69 -0.52,-1.19 -4.23,-3.71 -0.1,-2.7 -0.93,-1.8 0.47,-1.56 -1.6,-2.03 -1.14,-0.46 -0.31,0.64 -1.38,-0.72 0.7,-0.84 -2.32,-4.25 5.43,-0.18 -0.04,-0.94 -2.76,-2.1 -0.57,0.28 -2.06,-2.37 1.24,-0.66 2.55,1.32 0.59,-2.6 -2.61,-1.42 -2.06,0.35 -0.62,-0.05 -2.68,0.41 -1.52,-1.24 1.68,0.66 0.67,-0.18 1.55,-0.05 -2.97,-1.85 -0.22,0.44 -0.58,0.57 -1.95,-0.19 1.35,-2.15 0.96,-0.47 0.33,-0.16 0.68,-3.18 -0.52,-1.55 1.78,-1.57 -0.07,-2.02 -2.14,-1.58 -1.9,0.1 -2.44,-2.55 -0.71,-0.06 -0.41,1.1 -1.43,-1.44 -1.61,-0.85 -0.61,-1.31 -1.26,-0.25 -1.86,0.85 -1.24,-1.28 -0.12,-0.35 1.87,-1.06 0.58,1.03 2.49,0.27 1.01,0.98 1.29,-0.12 3.38,3.1 5.49,1.16 3.28,-0.35 -0.72,-2.01 1.18,-2.22 1.24,0.21 1.71,1.41 0.14,-2.81 1.47,-1.82 1.43,-0.45 2.08,-1.92 -2.69,-3.8 1.32,-2.12 -1.56,-2.69 1.32,-1.31 4.22,1.58 2.72,2.06 2.91,-3.64 0.18,-2.85 -2.41,-3.13 -0.65,-2.42 -0.88,-0.52 -0.79,-1.94 -2.2,-1.63 0.64,-2.66 -2.95,-5.13 5.31,0.21 1.97,-0.77 0.41,-2.46 1.5,-2.58 -0.28,-1.51 0.83,-1.18 2.79,-1.49 1.01,-0.1 2.339998,1.27 2.04,-2.27 3.31,2.15 2.11,-0.07 2.56,-0.54 2.28,-2.46 4.65,-0.54 -0.15,-3.66 1.6,-2.83 -1.67,-1.61 0.27,-2.82 2.52,-1.18 1.63,-2.98 -0.24,-3.31 -1,-0.83 -0.06,-1.84 2.42,-4.11 1.54,-0.25 0.91,-0.91 -0.48,-1.71 1.55,-1.63 z" 
                fill="rgb(151, 144, 238)" 
                stroke="white" 
                stroke-width=".7px"
                title="Epirus" 
                id="GR-D" 
            />
        </svg>