<svg xmlns="http://www.w3.org/2000/svg" viewBox="0.25553205999998946 222.46282999999997 145.28999794 254.95000000000002" width="145.28999794" height="254.95000000000002">
            <path 
                d="m 120.06553,447.47283 0.48,2.16 0.84,1.11 0.74,-0.19 0.12,1.32 2.39,2.58 1.46,0.63 1.22,-0.8 2.89,1.02 7.39,3.79 -0.29,3.43 3.53,1.62 0.86,1.79 1.24,0.84 2.61,1.01 -0.39,2.58 -2.34,-1.51 -1.42,-0.19 -2.64,-1.8 -1.41,0.09 -3.09,1.32 -2.32,3.02 -0.51,1.72 1.88,1.61 -0.04,1.72 -2.37,1.07 -0.35,-0.7 -1.96,-0.54 -0.17,-1.72 -2.88,-1.64 -1.17,-2.68 -1.56,-0.53 -0.37,-0.81 -2.13,-0.54 -1.78,-2.1 0.41,-1.98 -2.08,-0.61 -0.32,-0.92 0.89,-0.94 -0.18,-0.81 -2.76,-0.77 -0.38,-0.46 -1.19,-1.52 -0.4,-0.81 0.52,-1.35 -1.03,-1.79 0.59,-0.95 -0.12,-0.34 -0.35,-0.85 0.59,-0.21 0.07,-1.31 1.13,-0.95 -0.06,-0.69 5.27,-4.27 1.04,1.21 -0.1,1.64 z m -13.17,-64.09 1.74,0.82 0.04,0.55 -0.61,-0.11 0.99,1.73 0.04,2.05 0.84,0.83 -0.11,1.78 1.44,0.45 0.51,2.62 -0.42,0.58 1.25,2.81 0.19,2.75 -0.33,1.07 -2.22,1.57 2.28,4.66 0.71,0.83 1.02,0 1.69,-1.64 0.18,-1.1 1.09,-0.39 -0.38,2.09 1.29,-0.61 0.72,0.43 0.02,1.15 1.37,1.4 -0.05,1.66 4.94,6.27 0.62,1.97 0.58,0.68 0.7,-0.16 0.51,2.03 2.02,1.82 -1.6,5.69 -0.93,0.91 -1.95,-1.37 -2.04,0.93 -3.82,-1.01 -5.43,-4.63 -2.04,-0.77 -0.97,-0.03 -1.76,1.57 -1.42,0.32 -0.39,1.34 -3.03,-1.67 -1.87,0.32 -0.27,-0.96 -1.96,-1.16 0.73,-1.57 -1.919998,-2.72 0.61,-1.54 -1.14,-2.28 0.96,-0.03 2.129998,3.06 0.62,-0.57 -1.21,-0.9 -0.09,-1.56 -1.339998,-1.43 -2.52,-6.78 -0.03,-1.58 -0.65,-0.32 -0.94,0.01 -1,1.38 0.91,1.45 -0.3,1.43 0.88,1.9 0.08,7.46 -2.52,0.14 -2.7,1.3 -0.54,-2.02 -3.35,-1.47 -0.17,-1.23 0.03,-1.24 1.13,-0.5 0.75,-2.33 0.04,-4.14 1.61,0.1 0.26,-1.26 0.92,-0.72 -0.21,-2.13 1.2,-3.23 -0.06,-3.36 1,2.28 0.92,-1.8 1.9,-0.59 0.58,3.43 0.76,0.52 1.22,-0.36 0.63,1.72 2.399998,-1.33 1.79,-2.49 0.89,0.09 -0.15,-1.18 0.97,-0.08 0.36,-1.06 -0.39,-1.29 -1.52,-0.8 -0.03,-0.76 0.98,0.11 0.17,0.98 0.91,-0.89 -0.91,-2.95 0.66,-0.36 -0.08,-1.12 -0.91,-0.73 0.7,-2.41 -0.55,-1.92 0.47,-0.51 1.88,0.11 z m 7.87,-3.37 2.52,1.45 -0.69,0.97 0.22,1.5 -0.86,0.91 1.75,0.56 0.78,-0.83 0.5,1.11 -0.71,0.31 1.09,0.23 0.7,1.35 -1.11,1.28 0.32,0.74 -2.33,4.07 -0.04,1.85 2.48,-0.95 -0.02,-0.73 0.42,-0.79 0.71,0.62 0.8,-0.31 -0.73,-0.89 1.87,0.58 0.89,1.01 -0.37,0.7 -0.48,0.78 1.05,1.36 -0.86,1.57 0.57,0.18 -0.15,1.09 2.16,1.05 -3.48,1.75 -0.56,0.39 -1.6,-0.75 -1.16,-1.54 -0.54,-3.26 -1.46,-0.89 -0.59,-3.52 -1.88,-3.67 0.03,-2.22 -0.87,0.05 -1.49,-2.85 0.29,-1.65 2.17,1.27 0.48,-0.27 0.18,-3.61 z m 11.7,-19.72 0.86,-0.31 -0.15,1.39 1.31,-0.94 0.41,0.44 -0.04,1.08 -0.31,0.82 -2.09,1.26 -1.44,-0.54 -0.91,2.28 5.09,4.28 -4.09,-2.58 -2.74,-3.27 0.43,-3.25 2.12,1.06 -0.05,-0.93 0.72,-0.47 0.88,-0.32 z m -7.8,-20.42 2.31,0.48 -1.1,1.77 1.65,2.98 -0.59,1.04 -0.12,4.08 1.24,2.42 -0.01,1.31 -3.03,4.42 -0.13,1.35 0.97,0.1 0.63,-3.07 0.88,1.1 -0.14,2.34 -0.35,0.48 -0.7,-0.28 1.28,4.78 -1.01,1.1 -1.67,-1.99 0.46,2.46 -0.67,0.22 -0.58,0.96 -1.19,0.61 -1.58,-0.91 -1.15,1.42 0.49,1.85 -0.7,0.31 -0.73,-1.02 0.14,-1.57 -1.65,0.3 -0.86,-2.15 0.21,-1.15 -1.08,-0.5 -2.31,5.09 -2.53,3 0.75,-1.92 -0.79,-1.02 0.72,-0.82 -0.28,-1.06 0.63,-0.56 0.4,-2.73 -0.29,-5.58 1.88,-3.77 2.15,-7.68 0.88,-1.2 1.05,-0.17 2.33,-4.63 2.32,0.14 1.12,-2.29 0.75,0 z m -41.949998,-35.09 2.84,3.08 -1.01,0.19 -1.45,-1.4 -0.93,0.12 -0.66,-1.13 1.21,-0.86 z m -8.26,-9.93 3.26,1.93 -0.17,0.97 1.97,1.46 -0.29,1.1 1.58,0.93 0.26,1.41 -2.92,-0.17 -1.33,-0.73 -0.68,-0.93 -1.33,-0.9 0.05,-1.35 -0.64,-1.16 -0.88,-0.27 0.05,-2.15 0.54,-0.25 0.53,0.11 z m -25.06,-66.74 1.71,0.42 1.22,2.09 2.23,1.13 0.58,-0.87 1.71,1.85 0.52,-0.96 1.1,1.44 -0.89,2.44 -0.49,1.27 -0.97,1.03 -5.19,1.79 -2.38,1.43 -0.67,1.35 0.89,0.96 -0.64,1.27 1.88,1.38 -0.92,0.78 -0.86,-0.22 0.64,1.37 0.79,-0.28 0.7,1.2 3.33,1.45 2.77,0.33 -1.11,0.95 0.57,0.7 -0.08,1.6 -1.06,1 -0.39,2.31 1.71,9.66 0.77,1.49 2.96,1.42 2.57,0.19 1.6,2.82 3.27,-1.12 1.59,-2.21 2.93,7.75 1.58,1.8 -0.92,2.15 -1.31,-0.74 -1.1,0.22 -5.27,-3.18 -2.3,-0.6 -1.02,-1.38 -2.62,-1.56 -2.5,-0.95 -1.81,0.22 -3.48,-2.78 -1.98,-4.79 -0.02,-2.64 -0.74,-1.3 0.66,-1.92 -1.75,-3.2 -2.3,-2.28 -2.69,-0.95 0.18,-1.12 -3.1,-1.5 -0.68,-2.6 -1.18,-0.85 0.67,-2.37 -1.33,0.35 -1.25,-0.21 -2.4,-0.84 0.83,-3.79 -1.49,-1.07 -1.12,1.33 0.16,-2.66 -0.98,-1.67 -0.18,-0.82 2.75,-5.22 0.49,0.56 1.78,-0.28 1.48,0.92 3.13,-1.09 0.86,0.57 1.59,-0.55 1.63,0.92 2.14,-1.07 2.47,-2.57 0.73,0.3 z m -40.8199999,-4.64 1.99,-0.84 0.92,0.48 -2.04,2.72 -0.58,-0.37 -0.29,0.62 -1.08,0.13 -1.06000004,-0.65 -0.18,-1.88 0.59,-1.22 1.73000004,1.01 z" 
                fill="rgb(151, 144, 238)" 
                stroke="white" 
                stroke-width=".7px"
                title="Ionian Islands" 
                id="GR-F" 
            />
        </svg>