<svg xmlns="http://www.w3.org/2000/svg" viewBox="414.47553 154.10282999999998 36.74000000000001 39.63000000000008" width="36.74000000000001" height="39.63000000000008">
            <path 
                d="m 415.82553,170.32283 1.08,-3.03 -0.86,-5.66 0,0 -1.09,-3.75 -0.06,-1.53 0.56,-0.43 -0.98,-0.21 1.49,-1.61 2.39,6.24 0.8,0.19 2.2,3.48 2.44,0.22 0.71,0.65 1.93,-0.19 1.43,1 1.41,-0.67 3.24,1.86 -0.32,1.86 0.94,0.99 2.57,0.04 1.82,1.12 0.45,1.37 1.62,0.99 -0.45,0.96 1.84,3.82 3.92,2.97 1.16,2 2.5,1.11 1.13,1.34 1.52,5.07 -8.5,3.21 -1.4,-1.69 0.04,-1.81 -0.89,-2.06 -2.94,-2.86 -1.38,-0.23 -1.05,-1.13 0.06,-2.41 -2.7,-2.78 -2.63,-4.54 -3.23,-1.03 -3.15,0.25 -2.72,-0.88 -1.83,0.15 z" 
                fill="rgb(151, 144, 238)" 
                stroke="white" 
                stroke-width=".7px"
                title="Mount Athos" 
                id="GR-69" 
            />
        </svg>