<svg xmlns="http://www.w3.org/2000/svg" viewBox="502.46553000000006 202.84283000000022 188.3699999999999 289.7599999999998" width="188.3699999999999" height="289.7599999999998">
            <path 
                d="m 634.53553,482.37283 0.96,0.12 0.34,2.21 -0.77,1.57 -1.33,-0.16 0.45,-1.33 -0.8,-0.25 -3.09,0.46 1.22,-1.42 1.35,0.22 0.96,-1.83 0.71,0.41 z m 6.23,-6.38 1.92,1.57 -0.67,1.2 0.21,1.22 0.81,-0.58 0.75,0.55 -1.34,2.65 -0.91,0.51 0.15,0.6 -2.54,1.16 0.73,1 -0.18,0.97 1.13,0.92 -0.56,0.76 0.44,1.54 -0.3,0.4 -0.59,0.07 -0.7,-0.74 -0.37,-0.58 -0.49,-0.98 -0.56,-0.9 0.22,-1.09 -0.9,-0.86 0.74,-0.7 -0.58,-0.72 0.65,-1.05 -0.65,-1 0.94,-0.29 1,2.6 0.96,-0.77 -0.25,-0.73 1.41,-0.18 -0.64,-1.81 0.36,-1.13 -1.7,-0.42 0.14,-2.03 1.37,-1.16 z m -13.38,-3.52 -0.38,1.29 -1.43,0.62 -1.96,4.31 -0.74,0.05 -1.92,2.39 -6.35,4.36 -2.17,0.99 -7.22,0.59 -3.86,4.07 -1.4,0.69 -2.33,-0.35 -3.76,1.12 -1.04,-0.28 -0.3,-2.03 2.96,-5.3 4.2,-5.03 2.5,-1.87 1.36,0.67 4.53,-0.95 0.91,0.82 1.76,-0.23 1.74,0.84 8.92,-6.01 3.1,-0.14 2.64,-1.08 0.24,0.46 z m 35.58,-14.2 8.07,0.66 2.81,3.04 1,-0.27 3.18,1.11 3.34,2.75 1.08,-0.87 -2.62,-3.3 0.39,-0.35 2.66,0.98 -0.39,-1.54 1.25,-0.37 -0.34,1.37 1.07,0.71 2.9,0.45 3.11,-0.61 -1.4,1.37 -1.84,0.51 -0.46,1.19 1.53,1.48 -0.53,1.1 2.41,0.09 0.65,1.36 -0.62,0.82 -0.56,-0.47 -0.62,0.86 -0.52,-0.38 -0.59,0.6 -5.11,-0.33 -2.56,2.18 -1.66,-0.21 -1.87,0.71 -2.78,2.22 -0.22,2.51 -1.84,0.56 -5.41,-0.56 -4.19,-6.26 -2.93,-1.56 -6.85,0.81 -1.09,1.11 0.17,0.52 -0.91,0.06 0.04,0.91 -0.65,-0.4 -1,0.7 -0.39,-0.53 -0.86,0.93 -1.16,-1.94 0.58,-1.6 -1.65,-2.87 2.69,-3.48 1.17,-0.85 2.58,-0.19 1.79,-2.19 1.42,-0.71 1.71,-0.08 3.54,-1.64 2.48,-0.11 z m -42.8,-79.99 1.04,1.53 -0.25,0.91 -1.33,-0.27 -0.27,-2.84 0.81,0.67 z m -8.61,-3.09 1.97,0.09 0.29,0.82 0.93,-0.49 1.19,0.55 0.03,0.78 3.06,0.5 -0.27,1.35 -0.75,-0.51 -0.3,1.22 -0.72,0.18 -0.87,-0.48 -0.77,-0.97 -0.91,0.34 -1.36,-0.21 -0.58,-1.84 -1.44,-1.6 0.5,0.27 z m -59.81,-0.84 0.56,0.08 -0.67,1.07 0.5,1.12 -2.79,-0.23 1.39,-2.26 1.01,0.22 z m 43.78,-6.23 3.05,1.73 1.82,-0.48 1.94,4.2 1.86,0.06 0.99,0.07 0.87,0.04 0.84,-1.3 1.19,1.44 0.89,0.11 0.3,1.85 -1.05,1.53 0.18,3.03 -0.79,0.83 -1.49,-0.05 -0.34,1.4 1.66,0.06 0.15,0.82 0.6,0.46 0.3,0.78 -1.78,4.38 -0.02,1.62 0.88,4 0.02,1.03 -0.16,2.52 1.71,1.25 -0.63,1.09 0.57,0.98 -5.14,4.53 0.13,3.03 1.04,1.38 -1.52,2.74 -5.41,1.15 -1.35,2.18 0.08,2.16 -1.09,1.58 -1.28,-0.81 -0.36,-1.06 -2.32,-0.37 -1.68,-2.18 0.13,-1 -2.2,0.27 -0.03,-1.59 -0.59,0.3 -0.89,-0.8 -0.64,-0.69 -1.35,0.2 -0.17,-3.32 -1.94,0.08 1.09,-3.41 1.12,-0.15 2.68,-2.78 0.63,-0.12 0.49,0.05 1.06,0.21 0.92,0.58 1.06,-0.23 0.74,-1.65 -0.56,-0.87 0.55,-1.23 1.1,-0.26 0.07,-1.53 0.8,0.32 -0.12,-2.05 -0.07,-0.58 0.08,-0.93 -0.67,-0.71 -0.25,-0.82 -0.91,-1.66 -1.27,-0.3 -0.24,-4.44 -1,-0.54 -0.3,-1.49 -2.91,-1.57 -1.72,-0.14 -2.48,-1.96 -2.89,-6.07 2.35,-3.92 3,-0.99 4.25,0.13 6.42,-2.12 z m -38.62,-0.32 1.26,-0.06 1.36,1.82 1.22,0.35 0.26,1.82 -0.82,0.67 -0.5,3.9 -2.07,0.06 -1.5,-1.25 -0.6,1.41 -0.64,-1.93 0.84,-1.67 -3.16,-3.45 0.56,-1.01 1.52,0.65 0.84,-0.94 1.43,-0.37 z m 69.59,-88.43 0.91,-0.12 0.14,0.51 -1.5,2.21 0.56,0.95 0.77,-0.09 0.57,0.94 2.63,-0.43 2.24,1.17 -1.47,1.53 0.7,0.39 -1.65,1.09 -1.69,3.67 8.57,5.79 0.06,1.12 0.96,0.22 1.37,3.78 3.54,1.45 -0.86,0.73 -0.05,2.33 1.57,0.31 0.56,2.81 0.22,0.91 0.1,1.13 3.27,3.04 1.6,2.81 0.35,2.15 -0.82,2 -1.37,0.07 -2.57,-1.17 -0.64,0.61 -0.99,-0.55 -0.96,-1.22 -1.17,-1.08 -0.84,-1.3 0.67,-1.47 1.21,-0.09 -0.31,-2.12 -2.4,-3.28 -1.94,-1.02 -3.09,1.27 -0.37,0.88 0.73,2.1 1.55,1.7 1.98,0.74 3.64,4.57 0.53,2.43 0.02,0.95 0.63,0.47 -2.31,1.95 -3.71,0.07 -7.02,0.87 -3.2,-1.57 -3.25,-0.04 -3.79,-2.85 -4.58,-1.68 -4.38,-0.07 -1.37,1.35 -0.12,-0.93 -1.99,-1.51 -2.19,-3.98 -1.57,-1.29 -1.65,-0.13 -0.02,-0.7 1.09,-0.31 0.75,-1.4 0.96,-0.37 1.79,1.08 2.84,-1.43 1.84,-2.94 1.92,-0.94 1.15,0.32 2.38,-1.39 0.39,-0.85 2.51,-0.52 1.27,-3.23 -0.35,-1 -2.56,-1.29 -5.45,-0.47 -3.01,1.15 -1.11,1.61 -0.09,2.67 -1.12,0.66 -0.65,1.67 -1.09,0.13 -1.01,3.87 -0.61,-1.28 -0.74,0.4 -0.89,0.97 -0.25,1.66 -0.7,0.36 -5.82,-2.1 -5.07,0.12 -0.96,-2.41 -6.27,-2.9 -0.33,-1.87 -2.49,-0.91 -0.85,-1.09 -0.08,-0.66 1.79,0.89 -0.34,-3.47 0.22,-1.34 -0.49,-0.65 1.42,-1.43 -0.56,-1.59 2.02,-1.62 0.91,-0.83 1.45,-0.8 -0.03,-1.33 1.68,-0.05 -0.3,1.37 0.66,0.5 1.04,-0.5 1.51,1 0.79,-1 1.1,-0.23 1.71,0.83 0.91,-1.28 1.18,-0.44 0.54,0.65 1.93,-0.59 1.44,-0.21 2.89,-1.22 1.9,-0.2 3.31,-1.96 1.44,-0.09 1.17,-1.36 -0.95,-0.94 0.43,-1.78 -0.7,-1.18 1.57,-0.97 1.07,0.61 3.3,-1.01 7.31,1.1 2.33,-1.9 1.15,1.33 z m -119.99,-20.37 3.62,2.97 -2.85,3.82 -1.14,0.25 -1.41,1.42 -0.97,2.04 -1.29,-3.77 0.32,-3.83 1.59,-2.07 0.46,-1.95 1.67,1.12 z m 37.6,-53.26 -0.01,0.54 0.73,2.96 -2.78,1.5 -0.61,1.68 -1.49,0.98 -0.61,2.33 0.5,1.73 -1.61,-0.42 -0.95,0.44 -0.21,2.34 1.18,0.08 -2.69,1.49 0.24,1.33 1.2,0.9 -1.26,0.71 0.24,1.84 2.56,2.85 -1.87,1.18 0.28,2.23 -4.85,-1.29 -1.17,-1.67 0.52,-1.7 -2.6,-0.95 -0.19,-1.07 -1.35,-1.38 -1.23,0.27 0.75,-1.29 1.36,0.09 1.02,-0.79 -0.69,-0.97 1.48,-2.48 -1.38,-0.73 0.27,-0.66 -0.91,-0.55 -2.07,0.23 -3.82,3.13 2.04,-0.22 1.63,0.93 -2.63,0.16 -1.85,3.19 0.41,0.61 0.92,-0.71 0.56,0.86 0.64,0.26 -0.08,2.48 2.47,2.82 -3.27,-0.64 -3.09,0.51 -1.04,-1.38 -1.48,0.64 2.22,-5.05 0.96,0 0.17,-0.73 -0.57,-0.35 -1.41,0.45 -0.49,1.34 -1.1,0.75 -0.59,-0.17 0.37,-1.05 -1.21,-0.8 -3.09,1.32 -0.74,-0.24 -2.18,1.22 -0.55,-0.23 0.13,-0.9 1.61,-1.28 -0.43,-0.83 -0.92,0.63 -0.23,-0.49 1.06,-1.71 -0.78,-0.55 1,-0.92 -0.76,-0.42 1.18,-1.12 0.46,-2.34 -0.79,-1.28 -1.44,-0.47 0.39,-1.33 -0.71,-1.44 0.52,-2.28 -0.32,-0.83 -1.12,-0.02 0.52,-0.55 1.01,0.53 2.41,-1 2.23,0.23 3.4,-2.03 1.1,0.69 -0.08,1.4 1.29,-0.42 0.47,0.43 2.12,-0.82 0.09,-0.7 1.71,0.58 1.6,-1 1.39,2.04 1.62,0.46 0.74,-0.58 0.09,0.72 -1.08,0.96 0.55,0.84 -0.36,0.61 2.27,0.98 -1.34,0.91 1.44,0.83 1.36,-1.01 -0.09,-0.85 0.92,-0.42 0.15,-0.85 1.3,-0.35 0,0.72 -0.87,0.33 0.43,0.53 1.81,-1.07 0.15,-0.69 -1.09,-0.65 3.06,-2.99 -0.04,-1.27 -0.53,-0.23 0.45,-0.47 2.9,1.52 1.47,-2 2.5,-1.53 -0.13,1.12 -1.13,0.88 0.34,0.9 z" 
                fill="rgb(151, 144, 238)" 
                stroke="white" 
                stroke-width=".7px"
                title="North Aegean" 
                id="GR-K" 
            />
        </svg>