<svg xmlns="http://www.w3.org/2000/svg" viewBox="194.55553 420.86283000000003 183.07999999999996 196.14000000000112" width="183.07999999999996" height="196.14000000000112">
            <path 
                d="m 323.20553,604.37283 0.51,-0.13 0.45,1.76 -0.28,1.99 0.86,0.61 -0.3,1.71 -0.61,-1.2 -1.26,-1.11 -1.78,0.33 -1.34,1.4 -0.61,-0.77 0.62,-2.14 0.9,-0.19 0.33,-1.42 1.05,-0.73 1.46,-0.11 z m -107.8,-26.46 1.4,0.29 -1.31,3.69 0.43,1.35 -1.44,-0.86 0.52,-1.09 -1.47,0.44 -0.26,-1.24 0.92,-3.68 1.21,1.1 z m -5.34,-4.55 1.27,0.42 -0.89,0.58 0.35,1.47 -1.73,0.8 0.41,1.33 -0.3,1.03 -0.63,0.09 -0.54,-1.66 0.68,-0.76 -0.28,-2.82 0.81,-1.3 0.85,0.82 z m -13.98,-29.28 0.31,0.8 -0.78,1.14 0.18,-1.78 -1.06,-0.16 -0.18,-0.78 1.65,-0.97 -0.12,1.75 z m 139.84,-25.96 2.48,0.75 1.93,1.73 -0.18,2.14 -2.4,0.56 -1.97,-1.48 0.34,-0.76 -0.73,-0.04 -1.61,-2.42 2.14,-0.48 z m 21.03,-7.5 0.98,0.8 -0.4,1 -2.52,1.21 -2.49,0.14 -1.64,-1.39 0.1,-0.82 1.7,0.11 1.91,-0.91 0.91,1.34 0.9,-0.85 -0.04,-0.85 0.59,0.22 z m 18.92,-2.54 0.58,0.69 1.18,-0.01 -1.26,1.09 -2.48,0.29 -1.64,1.18 -1.62,-0.01 0.1,2.76 -5.1,0.12 -1.25,1.46 -1.2,0 -2.11,1.26 -0.21,-0.97 -1.56,0.6 -1.27,-0.36 1.18,-0.49 0.73,-1.39 2.73,-1 4.35,-3.07 2.03,-0.17 -0.13,-0.42 3.1,-1.54 1.65,0.97 0.52,-0.87 1.68,-0.12 z m -53.41,-80.07 1.2,0.82 0.94,-0.22 0.92,1.48 2.13,0.85 0.36,-0.92 0.91,-0.11 0.38,0.91 1.09,0.34 1.94,-0.78 3.79,-0.24 0,0 -0.25,3.6 1.26,0.68 -1.56,1.4 -0.46,2.1 2.04,1.37 3.57,1.07 1.14,2.22 0,0 -1.58,0.47 -2.55,3.05 -3.64,0.63 -0.66,-0.38 -1.47,0.69 -1.28,0.02 -0.6,-1.09 -1.7,0.49 -1.37,-0.71 -0.59,0.71 -4.66,-4.06 1.3,-1.73 -0.03,-1.44 -1.47,-0.57 -3.91,-3.42 -3.16,-0.86 1.36,-0.23 0,-0.68 -1.54,-0.06 0.09,0.82 -0.52,0.18 -1.77,-0.55 3,-2.03 0.15,-0.85 1.79,0.03 1.35,-1.6 1.57,0.13 0.24,-1.07 2.25,-0.46 z m -53.14,-7.15 3.6,1.3 1.52,-0.61 1.84,0.69 3.53,-0.65 4.57,3.28 8.76,3.3 1.97,1.86 5.91,2.97 1.35,1.92 2.75,2.09 1.74,3.42 5.6,3.59 3.84,0.69 3.24,-1.53 0.58,0.75 1.61,-1.5 5.05,5.03 0.31,1.01 -2.3,2.2 1.05,1.34 -0.6,0.62 0.86,1.71 0.86,0.49 2.73,-0.46 1.79,0.46 3.88,-0.61 0.69,0.26 0.93,1.21 1.26,0.27 2.2,3.15 1.07,0.14 0.18,2.96 -2.54,2.35 -2.04,-0.1 -0.92,1.18 -0.01,1.81 3.71,2.13 1.37,-0.27 -0.21,1.57 -1.84,2.61 1.69,4.06 -1.06,0.18 -0.06,0.55 -0.21,1.37 0.48,0.91 3.45,2.09 0,0 -1.11,1.3 0.38,0.86 -0.46,1.05 -0.83,0.23 -0.77,1.38 -0.12,2.09 0.94,1.14 4.59,0.69 1.78,1.81 1.75,0.17 0.63,0.78 2.41,-0.11 0.68,0.57 0.14,2.39 2.8,-0.24 0.38,1.37 1.93,-0.31 3.05,0.69 1.82,-1.42 2.64,0.83 0.06,1.41 -2.33,3.02 -0.3,1.31 0,0 -1.23,0.79 -5.74,-1.43 -2.41,1.51 -0.86,-0.56 -0.74,0.37 0.42,0.5 0.38,0.81 -1.77,-0.2 -0.91,-1.12 -0.92,-0.15 -0.76,0.68 0.02,1.18 -0.04,0.68 -3,0.19 -0.31,0.75 0.78,1.43 0.64,-0.85 1.71,0.35 -1.19,1.26 1.89,0.06 0.85,1.06 -7.55,0.6 -1.25,2.05 1.87,1.95 -0.06,1.49 -1.44,-0.37 -0.25,0.91 -1.05,0.1 -0.5,-1.09 -1.64,-0.26 -0.73,-1.24 0.83,-0.92 0.93,0 -0.3,-0.97 -0.8,-0.25 -0.27,1.1 -1.18,0.47 -1.49,-2.12 2.36,0.73 -1.24,-1.85 -1.48,-1.01 -3.6,-0.18 0.71,-2.64 -0.96,-1.69 1.98,0.48 1.37,-0.36 0.92,-1.08 -0.03,-2.5 1.93,1.44 1,-0.58 -1.12,-0.7 0.07,-1.88 -1.08,-0.44 0.17,-0.99 -2.78,-0.46 -3.1,0.46 -1.16,-0.79 0.99,-0.84 -0.87,-1.72 -3.7,2.32 0.05,-1.43 -0.98,-0.98 -1.04,-3.38 -0.82,-0.73 -3.97,-0.7 -2.87,-1.02 -2.55,0.63 -1.35,1.66 -1.99,-1.84 -0.93,0.11 -0.36,-0.64 0.5,-1.24 -0.99,-0.25 -1.07,-1.8 0.15,-1.25 -2.06,-1.83 -3.25,0.96 -2.06,1.85 0.37,2.78 1.44,2.73 -1.02,3.44 1.96,2.54 -0.05,2.51 2.12,1.95 -1.66,3.45 1.79,0.63 2.23,3.04 0.59,2.16 0.29,0.89 0.83,1.19 0.29,0.85 0.79,0.67 0.36,1.67 0.87,0.34 -0.47,1.26 2.21,1.24 -0.66,1.7 0.72,0.97 1.1,0.11 1.57,2.83 0.22,2.12 1.52,1.2 -1.13,1.55 -0.62,3.54 0.48,2.9 1.94,1.14 0.89,-1.22 1.32,0.45 0.94,-0.43 0.51,1.19 -0.5,1.05 0.53,0.82 2.09,0.82 0,1.38 -1.7,0.17 3.47,5.18 -0.7,0.69 0.28,1.65 0.65,2.11 -0.83,-0.06 -0.48,1.27 0.88,0.81 0.75,-0.26 -0.44,1.38 1.26,1.13 -0.74,0.76 1.97,3.62 0.37,2.58 1.26,2.44 -1.02,0.32 0.4,0.97 0.73,1.37 1.85,0.87 0.43,1.26 0.55,0.96 0.56,2.62 0.64,-0.02 0.2,1.06 1,0.47 -2.31,1.57 0.64,2.36 -0.4,0.94 -1.69,-0.64 -0.89,-1.15 -0.94,0.31 -0.18,1.42 -0.97,-0.46 -0.6,0.52 -0.41,1.75 1.2,1.25 -0.3,1.25 0.44,0.53 0.06,1.2 -1.11,1.47 0.51,3.98 1.16,0.86 0.87,0.9 0.5,1.94 1.53,1.7 2.93,2.01 1.6,0.09 0.48,1.92 1.78,0.58 -1.29,1 0.36,1.59 -1.19,1.73 0.92,0.27 0.29,0.89 1.89,0.39 0.25,1.88 0.98,-0.23 1.55,0.92 0.51,2.08 -0.37,0.64 -4.72,-0.65 -1.3,1.42 -2.15,-1.43 -1.84,0.2 0.16,-0.54 -2.22,-3.21 0.62,-1.01 -0.76,-0.56 0.67,-1.34 -2.72,-2.73 -1.78,-0.42 -2.85,0.85 -1.63,0.2 -1.31,-3.61 -1.52,-0.82 0.69,-1.31 -0.63,-1.22 -3.64,-2.9 -1.05,-0.11 -1.48,-2.15 0.99,-0.01 0.23,-2.08 -1.57,-2.31 -1.13,-0.52 -0.53,-1.39 -1.56,-0.27 -0.52,3.59 -0.5,0.07 0.12,-0.86 -1.34,-2.22 0.79,-0.76 -0.24,-0.99 0.94,-0.51 0.05,-1.3 -0.83,-2.6 -1.14,-1.24 -0.37,-3.46 -0.89,-2.05 -3.81,-0.8 -10.58,-0.03 -0.85,1.05 -2.8,0.86 -1.51,1.33 -0.35,0.94 0.66,1.7 0,0.95 0.52,1.26 -3.43,1.29 -1.42,1.66 0.77,1.02 -0.94,1.5 0.38,0.79 1.19,-0.19 0.91,0.79 -0.26,1.75 0.5,-0.02 -0.02,0.71 -1.01,0.33 -0.61,-1.57 -1.62,-0.68 -1.42,0.9 2.63,4.83 -1.69,1.57 -1.23,-1.93 -1.72,0.61 -0.36,2.49 0.87,4.04 -0.88,2.95 1.62,2.13 0.19,1.42 0.79,0.02 0.2,1.15 -0.04,2.77 -0.83,0.17 0.68,1.83 -1.75,1.14 1.25,0.84 0.07,1.78 0.42,0.78 -0.97,0.51 -0.96,0.08 -0.98,-0.85 -0.07,-2.08 0.69,-0.75 -1.78,-1.12 0.19,-1.23 -3.47,-1.3 -1.82,-1.89 -0.74,1.07 -2.04,-0.69 -1.79,-3.81 -0.02,-1.74 0.65,0.35 1.06,-1.07 2.13,-0.83 -0.81,-1.55 0.41,-2.3 -1.28,-0.2 0.11,-1.11 1.18,-0.6 -2.08,-1.01 0.05,-0.95 1.1,-0.73 -0.8,-0.42 -0.4,-2.07 1.62,0.06 0.2,-0.48 -1.52,-1 -0.43,-1.38 0.37,-1.54 1.11,-0.27 1.04,-1.46 -0.54,-0.47 -2.48,0.37 -0.69,-0.69 -0.75,-1.11 -2.28,-6.72 -0.4,-0.73 -1.18,-4.08 -1.56,-1.02 -0.13,-1.15 -1.74,-0.67 -0.06,-1.98 -1,-0.3 -0.91,-1.6 0.34,-0.77 -1.16,-1.46 -1.35,-0.16 -0.89,-1.21 -1.23,1.22 -0.59,0.55 -0.85,0.03 -4.11,-2.76 0.49,-1.56 0.92,-0.11 0.39,-0.99 -0.56,-2.98 1.26,-3.38 -0.42,-2.45 -5.98,-1.2 -3.31,0.14 -4.56,1.5 -5.76,3.52 -0.32,2.11 0.81,0.55 -0.11,2.88 -1.15,7.66 1.5,6.1 2.56,1.73 -2.79,1.48 -0.27,2.53 -1.2,0.42 -1.21,0.9 -2.65,3.03 -1.26,-3.52 -1.38,-0.68 -1.55,-2.22 -0.58,-3.01 -1.33,-0.45 -2.89,1.27 -1.4,1.05 -0.77,-1.51 -2.17,-0.04 -2.11,-1.4 -1.3,-3.18 -0.96,-5.15 0.93,-2.86 1.64,-1.22 0.28,-2.18 -2.49,-1.52 -2.24,0.74 -0.34,-1.02 0.8,-0.58 -1.97,-4.37 -1.93,-1.04 -1.49,-3 -2.57,-2.17 0.69,-3.71 -1.39,-6.24 -0.04,-1.79 1.27,-3.68 6.23,-6.04 1.85,-0.65 2.16,-4.34 0.14,-4.24 -1.62,-5.63 0,0 1.51,-1.26 6.81,-0.57 7.05,0.77 3.8,-1.34 0.05,-1.4 -1.07,-2.37 0.21,-1.31 0.88,-0.23 0.72,-1.61 3.63,-2.1 2.38,-0.2 2.08,-1.67 -4.51,-5.09 -2.29,-0.74 -2.51,-3.29 -0.77,-2.21 -3.44,-0.27 -3.74,1.78 -1,-0.87 0.16,-4.8 1.55,-5.75 -0.29,-3.06 -1.28,-3.12 0.16,-6.08 1.47,-2.45 6.77,-5.11 0.8,2.9 2.88,2.46 1.82,-0.27 3.6,2.76 6.25,1.82 1.28,-1.98 2.8,-2.35 2,-0.27 0.74,1.45 3.5,1.18 3.31,-3.26 2.86,-1.38 1.98,-0.1 -3.6,-5.76 2.19,-2.9 -0.48,-4.21 4.64,-1.25 1.02,-2.51 1.82,-0.2 3.5,-4.35 1.39,-6.55 -0.31,-6.75 0,0 -0.08,-0.11 z" 
                fill="rgb(151, 144, 238)" 
                stroke="white" 
                stroke-width=".7px"
                title="Peloponnese" 
                id="GR-J" 
            />
        </svg>