<svg xmlns="http://www.w3.org/2000/svg" viewBox="424.6755300000001 437.36283 493.7499999999998 296.00000000000006" width="493.7499999999998" height="296.00000000000006">
            <path 
                d="m 684.68553,723.29283 1.06,-0.12 -1.08,0.65 -0.12,1.86 -2.48,1.94 -1.38,-0.2 -2.09,2.05 -0.3,1.23 -0.89,-0.4 -1.44,0.59 -2.02,2.47 -1.02,-0.88 -0.28,0.75 -1.37,-1.14 -0.1,-0.32 -0.78,-0.59 0.53,-1.37 3.52,-3.3 1.31,-2.1 2.61,0.56 5.3,-1.83 1.02,0.15 z m 19.3,-43.7 1.19,-0.03 0.26,1.95 -0.22,1.48 -1.88,2.94 0.7,4.92 -2.4,3.18 0.21,1.81 -2.83,2.86 -0.1,2.48 0.14,1.07 -1.12,0.89 0.84,1.49 1.66,0.4 0.08,1.31 2.23,1.53 -0.04,1.73 1.31,0.93 -0.69,1.56 -1.01,0.45 0.44,1.99 2.31,0.37 1.03,1.46 -1.13,2.46 -0.65,-0.89 -1.56,-0.08 -1.05,2.07 -1.63,0.03 -1.59,2.19 -0.46,1.91 1.65,0.3 -3.06,2.73 -0.14,-0.57 1,-0.61 -1.07,-1.96 -1.31,-0.32 -0.64,0.45 -0.91,-1.35 -1.94,-0.78 2.92,-2.85 -0.78,-0.62 1.05,-0.09 0.39,-1.11 -1.28,-2.72 -0.09,-2.52 0.65,-1.55 -0.92,-1.25 -2.04,-0.94 0.09,-1.55 -1.01,-0.37 -0.42,-1.25 0.58,-1.02 1.68,-0.77 0.22,-1.42 2.75,-1.88 -0.23,-0.85 0.68,-1.27 -0.88,0.13 -0.13,-0.5 0.71,-2.31 1.16,-0.93 0.21,-1.61 2.25,-1.56 0.06,-8.66 0.86,-0.42 1.27,0.54 1.41,-1.98 0.29,-0.43 0.93,-0.59 z m 1.23,-8.18 0.92,0.15 -0.9,3.07 0.88,2.47 -0.13,2.39 -0.47,0.09 -0.33,-1.15 -1.78,0.39 -0.84,-0.6 -0.14,-1.07 -1.26,-0.96 0.21,-0.46 1.32,0.18 0.05,-0.84 1.2,-0.77 0.09,-2.58 1.18,-0.31 z m 204.94,-27.93 -0.74,0.73 -1.13,-0.2 0.33,-0.62 1.54,0.09 z m 7.42,-0.94 0.53,0.33 -1.02,1.43 0.42,-0.25 0.92,1.03 -2.71,2.12 -1.17,0.18 1.1,-3.37 1.93,-1.47 z m -179.05,-8.83 1.94,0.56 0.37,1.85 -1.11,0.37 -0.84,0.08 -1.68,0.69 -0.36,1.11 -0.39,-0.74 0.41,-0.44 -2.4,-0.27 -3.35,1.33 0.19,-3.63 1.29,0.22 1.64,-0.73 0.41,0.52 3.88,-0.92 z m 10.87,-4.06 0.08,1.54 -1.92,2.89 -0.7,-1.52 1.06,0.03 0.32,-1.23 -2.31,0.86 0.1,-1.02 1.39,-1.62 1.98,0.07 z m -94.11,-8.73 1.96,1.86 -1.21,2.07 -0.54,-1.37 -0.34,0.92 -1.14,-0.75 0.18,-0.75 -0.73,-1.41 1.82,-0.57 z m -81.1,-4.32 4.89,3.15 0.48,1.32 2.34,0.28 0.1,0.58 -1.27,0.84 -1.96,-1.05 -3.76,1.23 -3.72,-1.02 -0.96,-1.7 3.51,-4.15 0.35,0.52 z m -34.14,-1.47 1.69,0.44 -0.36,1.34 -0.93,0.42 -0.91,-1.06 0.51,-1.14 z m 254.26,-4.12 0.08,-0.42 0.24,0.93 0.35,-0.49 0.45,1.22 -1,3.84 1.66,1.86 -3.44,4.08 -0.31,1.19 0.92,1.22 -0.22,0.79 -2.12,1.84 -1.45,2.86 -0.63,1.84 0.66,1.34 -0.7,0.09 -0.76,1.81 -1,0.67 -0.97,4.63 -1.11,-0.36 -1.73,0.69 -0.36,1.72 -1.08,0.44 -1.27,2.62 -0.48,3.57 2.85,0.43 -1.23,0.82 0.62,0.29 -0.28,1.53 -1.34,0.65 1.01,2.3 -3.16,-1.12 -0.37,-1.29 -1.95,-0.17 -2.84,1.03 -2.34,2.19 -1.33,0.19 -2.93,4.2 -2.24,5.32 -1.3,0.92 -1.32,2.56 -1.29,0.38 -0.27,1.21 -1.74,-0.09 -0.72,1.36 -1.76,1.28 -2.27,0.35 -1.09,1.19 -0.91,-0.16 0.05,-0.79 1.66,-0.19 0.05,-0.67 -3.18,-2.45 0.13,-0.76 -1.56,-2.14 3.17,-8 0.19,-9.06 -0.78,-1.23 -3.18,-0.34 0.27,-2.54 -0.69,-1.19 -1.67,0.02 -0.3,-1.1 3.83,-1.31 2.14,-2.64 1.17,-0.08 1.89,-3.43 0.18,-2.6 1.41,-3.16 0.69,-0.49 1.2,0.27 1.36,-0.9 3.24,-4.52 1.79,-1.25 5.6,-2.13 8.39,-4.94 5.82,-2.43 3.14,-0.56 2.86,0.38 3.03,-3.96 0.57,0.84 z m -257.22,1.23 -1.09,0.73 0.57,2.65 -2.54,-1.14 1.17,-4.24 0.52,-0.19 0.09,0.79 0.98,0.27 0.3,1.13 z m 6.39,-2.35 5.3,6.18 -0.59,3.92 0.39,1.05 -3.93,3.18 -2.1,-1.6 -3.1,0.03 -1.04,-1.08 -0.79,0.39 -0.95,-0.6 1.06,-0.99 4.33,0.47 1.83,-3.51 -0.69,-1.1 -0.13,-2.39 -0.95,-0.63 0.82,-1.56 -0.44,-1 -0.7,-0.7 -3.53,0.24 -0.27,-1.61 1.77,-1.1 2.93,0.83 0.78,1.58 z m 173.26,-2.27 3.02,5.21 -0.76,1.74 0.39,0.6 0.68,0.28 1.02,-0.99 1.63,1.84 0.91,-1.62 1.14,1.05 -1.36,1.72 -2.29,1.24 -0.55,-0.57 -1.12,1.12 -1.02,-0.31 0.25,-1.19 -0.88,-1.45 -0.96,1.08 -0.82,-4.37 -1.04,0 -0.63,1.28 -0.86,-0.25 -0.53,0.83 -0.61,0.33 -0.07,-1.29 -1.37,0.26 -0.35,-0.65 0.66,-2.84 -0.55,-1.27 0.48,-0.72 0.87,-0.37 -0.26,0.99 2.09,0.82 0.62,-0.34 0.4,-1.97 0.92,-0.62 0.95,0.43 z m 45.46,-5.48 0.94,0.82 -1.8,0.52 -0.05,-1.18 0.91,-0.16 z m -62.3,-9.92 1.51,-0.08 2.3,3.74 -1.89,3.17 -4.84,-0.62 -0.41,-1.06 -1.08,0.05 0.5,-0.49 0.28,-3.9 3.63,-0.81 z m 59.7,-2.48 -1.33,0.95 -0.56,1.33 1.66,-0.24 0.31,0.97 3.08,-1.85 -0.21,1.48 -1.26,0.46 1.97,-0.46 0.33,0.98 -0.1,0.99 -0.78,0.21 0.61,1.18 -1.62,0.59 1.62,0.59 -0.42,1.12 -0.96,-0.02 1.44,1.15 -0.7,0.39 0.59,0.51 -2.88,1.44 -1.47,-0.51 0.44,-1.01 1.24,0.09 0.23,-1.21 -2.21,-1.38 -0.89,0.86 -0.19,-0.52 -1.54,0.46 -0.01,-0.63 0.78,-0.04 -0.25,-0.53 1.1,-0.5 -0.06,-0.86 -1.14,-0.03 -0.29,0.66 -1.7,-0.72 -0.92,0.3 0.52,-1.4 -0.74,-0.29 0.6,-0.92 0.22,0.8 0.91,0.13 -0.08,-0.78 1.25,-0.37 0.04,-1.09 -0.65,-0.01 0.52,-0.75 3.5,-1.52 z m -129.43,-0.27 0.41,0.16 3.21,2.6 0.25,0.27 0.48,0.92 0.91,0.13 1.8,2.97 -2.38,0.02 0.66,-0.3 -0.81,-0.88 -1.36,0.57 -0.18,1 -0.88,0.45 -1.12,-0.53 -0.67,0.07 -1.2,-0.01 -0.04,0.6 -1.75,-0.74 -0.17,1.15 -0.91,0.29 0.65,0.89 -0.21,1.46 -1.59,0.49 1.44,1.25 0.95,2.11 -1.44,0.17 -1.08,-0.67 -1.27,0.86 -1.87,-1.62 -0.21,0.69 -1.07,-0.27 -1,-3.62 -1.44,-0.74 0.98,-0.68 -1.14,-2.14 0.46,-2.12 1,0.27 0,1.3 0.58,-0.15 0.29,-1.18 0.52,-0.02 1.27,0.36 1.21,1.23 1.58,0.36 0.23,1.19 1.44,-0.07 0.56,-1.86 1.31,-0.01 0.34,-0.77 1.83,1.23 -0.84,-1.97 0.4,-0.49 -0.62,-0.5 -0.63,-0.33 -0.35,-0.5 -0.68,-1.99 0.43,-0.9 1.72,0 z m 131.34,-2.21 0.7,1.2 -0.5,0.8 -2.58,0 0.06,-1.24 2.32,-0.76 z m -268.41,-0.1 3.47,3.2 1.08,0.3 0.79,-0.51 1.49,1.1 0.79,1.19 -0.51,0.32 1.12,1.25 -1.1,1.06 -2.7,-0.48 -1.95,-1.95 -0.13,-1.8 -2.96,-0.14 -2.12,-3.11 1.88,-0.86 0.85,0.43 z m 204.1,-1.28 0.18,0.87 -1.81,0.23 -0.87,3.14 -0.86,-1.52 0,-1.67 1.5,-0.08 0.96,-1.75 0.9,0.78 z m -177.17,-4.43 1.39,0.36 -0.68,0.5 0.24,0.95 -2.02,1.57 -0.28,1.16 -0.87,-0.07 -1.2,1.78 -4.4,2.65 -1.86,-0.04 0.75,-2 1.36,-1.24 0.9,-2.98 4.01,-2.48 2.66,-0.16 z m -66.11,-6.42 -0.3,1.51 3.83,1.85 3.34,-1.69 0.37,-1.23 0.82,0.46 0.48,-0.56 0.3,0.8 1.51,0.47 -1.26,1.78 0.71,0.58 -0.23,1.07 1,2.82 -0.7,2.16 -1.12,1.45 -1,-0.57 -0.62,0.65 -1,-0.12 -0.48,0.81 -1.15,-0.28 -0.72,0.85 -0.84,-1.15 -1.61,-0.22 -0.89,1.18 -0.59,-0.36 -1.43,0.81 -0.74,-0.39 -5.78,0.67 -1.61,0.81 -0.35,-2.2 1.3,-1.53 -0.69,-1.21 1.15,-1.69 -1.04,-1.18 1.35,-0.75 -0.47,-0.81 0.72,-0.88 -0.49,-0.26 1.4,-1.22 1.63,2.22 2.12,-0.67 0.26,1.32 -0.65,1.34 0.95,1.3 2.1,-0.02 0.89,1.28 2.83,-1.06 0.29,-0.76 -1.15,-1.89 -1.95,0.3 -2.61,-3.45 0.6,-0.35 -0.19,-1.8 1.71,-0.19 z m 17.47,-1.67 3.16,0.88 0.52,2.84 -0.77,0.74 -1.08,0.46 -2.63,-1.29 -0.98,-2.9 0.77,-0.83 1.01,0.1 z m 61.36,-0.15 2.09,2.56 -0.56,1.35 1.02,0.01 1.15,1.06 1.08,-0.22 0.12,1.1 1.98,0.68 1.47,1.96 -1.36,0.66 -0.65,1.3 0.71,0.86 0.45,1.9 -0.26,0.98 -0.46,1.08 -1.65,-0.78 -0.99,1.95 -1.46,-1.54 -0.38,-1.59 -0.79,-0.13 -0.51,-0.58 -2.77,-3.25 0.3,-0.97 -2.48,0.26 -0.56,-0.28 -0.27,-1.33 0.66,-2.17 -0.41,-2.58 1.15,-1.84 3.38,-0.45 z m -95.44,-1.52 0.69,-0.03 0.29,1.23 -1.16,2.63 -1.06,-1.42 -0.77,-0.03 -0.24,-2.11 1.7,-0.62 0.55,0.35 z m 128.26,-3.92 -0.71,0.78 -0.82,-1.36 0.75,-0.31 0.78,0.89 z m -99.93,-0.57 0.66,-0.01 0.48,1.45 1.35,0 0.22,-0.94 1.24,1.34 -0.91,0.44 -0.52,3.39 -1.21,1.44 -3.21,0.76 -0.99,-1.35 0.28,-0.96 -1.07,-0.75 -0.04,-2.32 1.06,-0.24 1.39,-2.03 1.27,-0.22 z m 100.7,-0.58 0.82,0.39 -0.32,0.61 -1.51,-0.23 0.02,-0.7 0.99,-0.07 z m -18.69,-1.67 -0.28,1.4 0.73,-0.02 -0.4,2.81 -1.16,-0.01 -0.98,0.84 -3.19,-0.86 0.15,-1.03 1.26,0.14 0.24,-1.66 1.51,-0.38 1,-1.74 1.02,-0.3 0.1,0.81 z m 39.12,-2.91 1,0.55 -0.94,0.69 -2.35,-0.91 2.29,-0.33 z m -34.51,-0.15 0.63,2.86 0.23,0.42 0.62,0.49 -0.49,0.56 -1.07,-0.67 -0.18,-0.35 -0.68,0.13 -0.55,-1.34 -0.67,0.55 -0.3,-0.75 0.55,-1.08 0.36,-0.51 1.55,-0.31 z m 11.06,-1.7 1.93,0.7 0.08,1.37 0.97,0.09 -0.18,1.5 -2.48,-0.57 -0.29,0.54 -1.6,-1.1 -2.29,0.61 -0.05,-1.23 0.67,-0.64 1.39,0.06 0.93,-1.42 0.92,0.09 z m 147.02,1.12 2.51,1.1 2.06,-0.49 1.43,3.51 -2.87,1.54 -13.91,4.32 -5.04,5.41 -6.33,-1.05 -5.24,1.73 -1.11,1.18 1.26,2.6 -1.68,1.43 0.66,3.64 -1.87,-0.41 -2.57,-3.16 -0.7,-1.59 0.55,-5.11 3.64,-1.24 3.16,0.34 2.74,-4.32 4.14,-4.26 2.8,-0.93 5.6,-3.44 6.17,-0.77 3.85,-2.39 0.75,2.36 z m -151.7,-2.81 -0.26,0.81 -1.35,0.4 -0.67,1.7 -0.47,-0.56 -1.29,0.06 1.56,-1.64 1.01,0 1.2,-1.17 0.27,0.4 z m 36.71,-1.84 7.21,4.69 -2.04,0.35 -1.32,-0.85 -3.92,0.75 -1.49,1.46 -0.61,-0.28 -2.79,2.95 -1.39,0.38 -0.8,1.56 -1.42,0.78 -0.69,2.03 -3.45,3.02 -2.52,0.56 -0.91,-0.37 -2.35,2.13 -2.43,-0.18 -2.4,-1.49 -0.52,-1.62 1.41,0.83 1.41,-2.24 0.72,0.28 0.34,-0.85 1.7,0.78 0.47,-0.72 1.87,0.7 1.07,-0.96 0.48,0.64 0.57,-0.75 -0.55,-1.21 1.71,-0.18 -2.46,-0.77 0.56,-1.63 0.76,-0.15 0.71,-0.55 0.32,-0.03 0.89,0.07 0.8,-0.8 2.31,-0.28 3.25,-1.96 2.82,-2.1 -2.01,-0.75 0.4,-0.98 1.3,-1.09 0.28,0.42 0.55,-0.57 1.67,0.17 -0.22,-1.12 0.71,-0.07 z m -34.95,-1.31 0.87,0.38 -0.58,0.23 0.31,0.94 -1.39,0.82 -1.29,-0.17 -0.51,-1.1 0.54,-0.94 2.05,-0.16 z m 135.85,-1 0.76,0.15 0.07,0.9 1.21,-1.08 1.6,0.74 -1.95,1.89 1.89,0.9 0.34,0.96 -1.49,-0.73 -1.37,0.68 -1.02,-0.32 0.06,-1.14 -0.84,-0.16 -1.49,-2.48 2.23,-0.31 z m -191.89,-1.56 0.74,0.53 1.35,-0.6 1.62,1.13 -1.54,1.05 -0.68,-0.41 -1.58,0.78 -1.4,-1.49 1.02,-1.44 0.47,0.45 z m 172.11,-4.95 1.26,1.15 -0.68,1.8 -0.44,-1.11 -2.48,-1.36 2.34,-0.48 z m -40.19,0.58 2.59,0.59 0.49,1.01 -2.7,0.06 -0.43,-0.36 -0.01,-0.52 -1.6,0.59 0.6,0.76 -2.98,-0.07 0.26,-0.58 1.01,0.37 -0.76,-0.96 0.38,-0.99 1.23,0.6 -0.02,-0.56 0.58,-0.25 0.69,0.35 0.67,-0.04 z m -163.45,-3.35 2.04,0.57 1.08,1.19 1.91,-0.1 0.99,0.63 1.03,2.24 1.61,1.29 2.38,3.77 0.07,0.66 -0.88,1.15 -0.45,-0.6 -0.97,1.92 -1.09,-0.4 0.18,1.13 -2.16,2.03 -1.82,-2.7 0.66,-0.61 -1.03,-0.02 -0.48,-2.18 0.52,-0.47 -0.57,-0.91 -0.76,0.16 0.28,-1.05 -1.06,-0.79 1.9,-1.5 -2.08,-0.5 0.75,-1.01 -1,-0.64 0.27,-1.25 -1.73,-0.46 0.2,-0.86 0.21,-0.69 z m 39.24,-0.78 1.1,0.45 -1.06,1.35 -0.45,5.52 -1.28,1.47 1.45,2.58 -0.42,0.91 -1.44,-1.98 -0.58,0 -0.57,-1.59 -1.57,-0.39 -0.88,-1.13 0.91,-0.18 -0.45,-2.71 2.28,-1.14 0.72,-1.89 1.89,-0.41 -0.15,-0.73 0.5,-0.13 z m 180.01,-1.78 1.97,0.73 -1.36,0.33 -1.91,-0.84 1.3,-0.22 z m -16.95,-1.25 1.19,0.62 0.72,-0.39 2.7,0.85 0.91,0.21 2.74,1.87 0.66,1.11 -1.87,-0.44 2.84,2.8 -0.04,1.51 1.15,-1.23 1.57,0.05 1.55,2.06 -0.74,0.14 -0.43,2.05 0.54,0.58 -1.43,1.29 0.54,0.44 0.82,-0.37 0.75,1.4 -6.01,-0.63 -0.33,2.98 -1.8,-0.1 -1.42,-0.41 -0.42,0.43 -1.07,-2.27 -1.5,-0.25 -0.35,-0.55 2.16,-1.83 -0.73,-1.88 1.33,-1.86 0.02,-2.06 2.53,0.58 -2.45,-3.15 -1.19,-0.29 -0.57,0.38 0.39,0.38 -1.06,0.23 0.42,-1.82 -3.4,-2.22 0.78,-0.79 0.5,0.58 z m -95.54,-6.07 -1.13,0.62 1.01,1.44 1,0.13 -1.03,2.54 -1.68,-0.2 -0.59,-0.86 -0.6,0.74 -1.87,-3.73 1.7,1.21 0.92,-0.49 0.51,-1.88 0.66,0.56 0.98,-0.65 0.12,0.57 z m -54.29,-2.35 0.87,0.75 -0.26,0.39 -0.59,-0.24 -0.5,1.28 -0.91,0.5 0.96,0.84 1.71,-0.87 2.02,0.3 -0.16,-0.91 0.63,0.19 0.07,-0.83 -1.14,-0.3 0.61,-1.28 0.22,0.75 1.32,-0.68 1.15,0.85 -1.44,1.32 0.66,0.73 -1.29,1.45 -0.6,1.71 0.43,0.52 -1.24,1.44 2.06,2.17 -1.24,0.48 1.06,0.78 -1.91,1.88 -0.82,2.8 -0.88,-0.07 -1.42,1.99 -0.85,-0.27 -2.3,1.95 -1.96,-0.33 -0.49,-0.79 -1.3,0.19 -1,-1.58 -1.19,0.76 -1.79,-2.9 -0.04,-1.84 0.9,-1.05 -0.08,-2.26 4.38,-2.89 -0.26,-0.61 -0.52,0.36 -0.67,-0.62 -0.58,0.73 -0.23,-0.44 2.4,-2.98 3.63,-1.53 0.64,-1.03 1.27,-0.22 -0.03,-0.44 0.53,-0.64 0.17,0.49 z m 27.99,-5.53 0.68,0.46 0.22,1.48 1.01,0.19 0.41,1.15 0.68,0.09 1.44,2.73 0.97,3.26 -0.67,3.25 1.45,0.3 -2,1.19 -0.62,5.83 -0.81,0.81 -1.73,6.5 -0.73,0.48 -0.33,-0.59 -2.68,0.4 -0.04,0.5 -1.6,0.35 -0.5,1.8 -1.26,-0.6 -1.96,2.25 -1.53,-0.65 0.27,-0.57 -0.98,-0.56 0.04,-3.97 -1.56,-0.3 -0.89,-0.88 -0.99,0.22 0.48,-2.07 -2.52,-3.39 0.67,-0.23 0.62,-1.57 -2.2,-2.56 -0.25,-1.13 -1.53,-0.29 0.96,-1.84 1.53,0.68 0.92,-0.46 0.33,-1.61 -0.43,-0.48 2.15,-0.86 1.65,-2.08 2.3,-0.22 2.2,-1.35 2.84,-4.42 3.56,-1.59 0.43,0.35 z m 114.22,-0.19 1.16,0.49 3.05,1 0.11,1.1 -1.89,1.69 0.58,0.63 1.51,-0.57 1.37,0.79 -1.32,0.64 -0.11,0.64 2.71,2.94 -0.18,2.27 -1.04,0.11 -3.03,-0.18 -1.08,-1.37 2.6,-0.93 -0.06,-1.2 -2.04,0.72 -1.22,1.27 -1.45,-2.48 0.68,-0.01 1.4,-1.89 -1.21,-0.54 -1.69,0.58 -0.21,-1.42 -2.03,-0.25 -0.8,-0.86 1.2,-2.4 2.13,0.37 -0.62,-1.05 1.48,-0.09 z m -207.5,-0.5 1.48,-0.17 -0.07,0.56 1.69,0.88 0.2,1 -0.05,0.66 -0.96,2.06 1.03,0.47 -0.05,2.93 -0.77,-0.18 -0.35,-1.59 -0.6,0.09 0.05,2.94 -2,1.19 -0.08,-0.47 -0.74,0.17 0.83,-1.39 -3.09,0.1 0.11,-1.64 -0.76,0.14 -0.39,1.08 -1.09,-0.03 -1.09,-0.15 -0.88,0.76 -0.04,-1.14 1.52,-0.93 -0.99,-1.94 1.54,-0.54 -0.75,-0.99 1.26,-0.76 -0.18,-0.99 1.13,-0.4 0.71,-1.3 1.41,0.52 -0.06,-1.08 0.86,-0.07 0.73,-0.31 0.44,0.52 z m 204.92,-0.87 0.44,0.89 -0.66,0 -0.94,1.46 -0.37,-1.05 1.17,-0.68 -0.62,-0.44 0.98,-0.18 z m -194.34,-4.51 z m 222.06,-5.83 0.58,0.48 -0.98,1.11 1.39,1.28 -1.45,0.6 -0.66,-0.72 -0.04,-1.67 0.52,-1.07 0.64,-0.01 z m -32.79,-2.57 1.07,0.12 0.68,0.96 -0.33,0.6 1.61,0.81 2.65,-0.28 0.4,2.12 -0.79,0.46 0.02,1.05 -0.6,-0.83 -0.87,0.82 -0.32,-0.38 -0.52,-1.46 0.7,0.11 -0.27,-0.8 -1.37,0.83 -1.02,-1.06 -1.75,-0.2 -0.53,-1.94 1.19,0.16 -0.47,-0.64 0.52,-0.45 z m -14.15,-5.78 0.83,0.32 -0.11,1.09 1.76,0.33 0.21,1.66 1.44,1.05 -1.04,0.53 -0.4,-0.79 -2.78,-1.01 0.16,0.89 -1.13,0.19 0.43,1.72 -0.71,0.34 1.93,2.23 -1.1,0.1 -0.22,1.11 1.19,1.19 0.04,1.43 -1.4,0.08 -1.48,-0.9 1.25,-1.67 -1.03,-0.33 -0.49,0.73 -1.03,-0.03 0.54,-1.03 -0.29,-2.03 0.23,-1.55 0.1,-2.35 0.63,-0.63 -0.7,-0.79 0,-1.45 0.51,-0.21 1.19,1.27 1,-0.34 0.47,-1.15 z m 14.37,-2.1 0.69,0.09 0.11,0.89 2.05,1.8 -0.67,-0.08 -0.72,1.36 -0.2,-1.51 -0.88,0.2 -0.22,-0.61 -0.48,-1.18 -0.71,0.11 0.04,-0.95 -0.63,-0.42 0.58,-1.16 1.04,1.46 z m -130.12,-1.08 -0.1,3.22 -1,0.82 -0.25,-2.89 0.52,-1.51 0.46,0.37 0.42,-0.48 -0.05,0.47 z m -5.13,-3.54 1.7,2.18 -0.56,2.31 0.36,0.82 1.54,-0.94 0.19,0.97 -0.49,1.89 -0.92,-0.35 -0.08,-0.72 -0.62,1.32 -1.35,0.71 -0.27,-0.82 1.69,-2.28 -0.69,-0.98 -1.03,0.53 -0.17,-1.68 -1.21,-0.76 -0.12,-1.31 0.79,-0.13 0.14,0.72 0.84,0.2 0.26,-1.68 z m 24.21,-2.12 -0.03,1.86 -0.67,0.08 -0.44,-1.25 1.14,-0.69 z m 133.66,-1.94 2.24,1.37 0.19,1 -0.93,-0.03 -0.56,-1.18 -0.52,0.72 0.44,0.5 -1,0.12 -0.13,0.82 -0.72,-0.21 0.28,-0.53 -0.63,-0.7 -0.44,1.55 -0.83,0.01 -0.97,-1.54 0.46,-0.1 -0.48,-1.49 -1.35,-0.34 4.95,0.03 z m -228.07,-0.63 -1.15,4.37 1.55,0.2 -0.23,1.35 2.43,0.11 1.41,2.36 0.01,1.19 -1.06,0.93 -0.27,-1.23 -0.55,0.65 -0.56,-0.45 0.1,2.09 -1.39,2.44 0.07,1.14 -1.04,-0.01 -0.08,1.34 -1.05,0.24 0.06,0.67 -1.51,0.84 -0.45,1.21 -2.88,0.84 -0.25,-1.3 1.06,-0.01 -0.61,-2.29 0.96,-0.26 0,-1.91 0.4,-0.61 1.49,-1 -1.09,-1.31 0.21,-1.68 0.07,-0.73 0.74,-0.09 -0.84,-1.11 0.68,-0.4 -1.39,-0.25 -0.11,0.53 -1.26,0.07 -0.13,-1.3 3.19,-4.59 2.24,-1.88 1.23,-0.16 z m 81.46,-2.11 1.27,0.51 0.05,2.19 1.3,1.62 0.75,-0.79 -0.37,-2.62 0.65,-0.49 1.55,0.1 0.63,1.7 1.71,-0.25 -0.02,1.27 2.88,-0.39 -0.21,3.31 -3.26,0.38 0.26,0.93 -0.66,0.01 0.13,0.47 -1.4,-0.31 -0.46,2.13 -1.15,-1.03 -0.79,1.1 -0.82,-0.28 -0.05,0.85 -1.19,-0.22 -0.52,0.7 -0.24,-1.01 -0.75,-0.34 -0.11,0.66 -0.52,-0.11 -0.8,-1.33 -0.52,1.87 -0.94,0.42 0.53,-2.02 -1.09,-1.32 0.59,-0.97 1.47,1.49 0.59,-2.42 -0.2,-1.81 -1.61,-0.77 -0.12,-1.41 0.34,-0.92 3.1,-0.9 z m -41.38,-1.66 0.48,0.62 3.54,0.77 1.35,1.86 0.48,3.22 -0.7,1.63 -0.6,1.13 0.34,0.47 1.14,-0.25 1.76,3.34 -1.66,0.74 -0.55,1.23 -0.88,-0.07 -1.97,0.33 -3.49,2.06 0.5,-1.71 -0.74,-1.02 0.69,0.02 0.17,-0.69 -0.39,-0.52 -2.27,0.07 0.55,-2.07 1.48,-0.69 -1.34,-0.8 1.89,-0.45 0.54,-1.5 0.95,0 -0.1,-1.4 -0.39,-0.44 -0.18,-1.11 0.78,-0.03 -0.66,-0.78 0.58,-1.54 -0.73,-0.79 -0.73,0.23 -0.74,-1.45 0.9,-0.41 z m -13.24,-13.35 0.51,0.17 -0.74,3.27 0.81,1.22 -5.34,-1.75 1.77,-1.38 0.14,-1.31 2.85,-0.22 z m 22.92,-4.74 0.56,1.22 0.48,-1.4 0.99,0.64 1.16,-0.66 0.48,0.91 1.27,-0.84 0.59,0.4 -0.12,1 0.71,0.29 -1.06,0.99 0.82,0.6 1.36,-0.17 0.88,0.27 0.78,-0.27 2.2,-0.41 1.06,1.41 0.63,-0.26 0.75,0.95 0.6,0.07 -0.18,-1.02 1.97,0.73 1.13,-0.53 4.24,2.61 0.66,0.77 1.39,-0.04 0.12,2.01 -2.21,4.24 0.28,1.98 -1.11,0.85 -0.67,-0.29 -2.37,0.98 -0.98,-0.77 -1.26,0.07 -2,-2.3 -2.35,0.23 -0.62,-0.65 0.52,-1.62 -0.94,-0.29 -0.01,-0.82 -1.51,-0.12 -0.04,-0.69 -0.97,-0.08 -1.06,-0.64 -1.79,-2.49 -1.12,-0.01 -0.06,-0.79 -1.3,-0.42 -3.8,-3.72 0.07,-1.47 0.9,-0.81 0.93,0.36 z m -57.8,-1.07 -0.05,1.06 1.06,-1.15 2.72,1.13 1.71,2.35 -0.06,0.97 -0.84,-0.03 0.28,0.87 -0.83,2.37 -3.35,4.92 -3.03,2.3 -1.41,2.38 -2.67,1.15 -0.39,-3.42 0.73,-2.85 -1.4,-0.51 0.31,-1.67 0.72,-0.29 -0.85,-0.99 1.19,-1.69 -0.27,-0.51 0.29,-0.56 0.77,-0.73 0.5,-2.26 0.92,-0.42 0.95,0.53 1.08,-0.97 -1.29,-0.01 1.09,-1.63 1.3,0.05 0.91,-0.78 -0.09,0.39 z m -17.88,-6.35 0.1,2.2 -1.33,0.98 -0.12,1.63 -0.93,1.17 0.32,0.59 -1.99,4.27 -0.08,-4.19 3.02,-8.36 0.4,-0.12 0.61,1.83 z m 57.52,-29.01 -0.66,1.71 0.77,0.65 -0.07,0.81 3.5,0.98 -0.48,2.66 1.08,1.55 0.13,1.55 2.84,0.09 0.98,0.92 5.45,-0.4 1.25,0.75 0.05,0.76 -0.03,2.33 -0.73,0.5 0.11,0.83 -0.91,0.34 -0.44,1.53 0.86,0.01 -0.04,0.69 0.34,0.24 1.19,0.01 -0.1,1.27 0.97,-0.44 0.14,1.14 0.77,0.26 -1.43,2.05 0.77,0.48 -1.28,0.75 -0.57,1.72 1.03,0.2 1.18,-0.7 2.12,0.44 -2.41,5.68 -1.01,0.65 -0.18,0.95 -0.73,0.08 0.8,2.53 -0.91,-0.01 -1.83,-1.5 -1.84,-2.46 0.29,-0.84 -2.25,-4.57 -1.56,-0.02 -0.8,-1.21 -1.07,0.11 -0.41,-1.94 -1.73,-0.42 -0.01,-1.75 -0.9,-0.9 -1.18,-0.18 -0.7,0.59 0.32,-1.81 -0.94,-0.87 -0.93,-1.39 -1.01,-2.5 -0.98,0.35 -0.78,-1.08 -1.2,0.32 -0.55,0.33 -1.62,0.32 0.23,-1.21 -0.71,-0.38 0.64,-1.07 -1.34,-0.83 -0.51,-2.35 0.3,-1.09 -0.85,-1.93 0.43,-1.29 3.72,-1.92 -0.01,-0.68 1.56,-0.88 3.87,-0.51 z" 
                fill="rgb(151, 144, 238)" 
                stroke="white" 
                stroke-width=".7px"
                title="South Aegean" 
                id="GR-L" 
            />
        </svg>