<svg xmlns="http://www.w3.org/2000/svg" viewBox="157.09552999999983 184.25282999999996 287.97000000000025 142.1799999999996" width="287.97000000000025" height="142.1799999999996">
            <path 
                d="m 425.89553,311.48283 -0.4,2.78 1.04,0.38 -0.5,0.43 0.54,0.33 -0.39,0.66 -0.83,0.21 -0.07,-0.46 -0.8,-1.5 0.22,-1.27 -0.52,-0.74 1.05,-1.19 0.66,0.37 z m -93.67,-7.45 1.78,-0.39 -0.39,1.12 -2.16,0.77 0.77,-1.5 z m 34.82,-5.06 1.71,0.24 2.74,2.16 0.2,2.06 -0.61,1.27 -0.7,-0.02 0.16,-1.22 -1.19,1.2 -0.96,-0.28 -1.71,2.34 0.54,0.54 -0.35,0.94 -1.07,-0.25 -0.39,-1.37 -1.59,0.61 -1.97,-1.36 -1.23,0.85 -0.3,-2.08 1.04,-1.19 0.93,0.23 2.96,-1.46 -0.03,-2.01 1.82,-1.2 z m 12.75,-0.35 0.79,0.4 0.23,1.3 1.64,0.48 0.14,1.05 1.28,1.36 6.62,3.02 0.41,1.06 -0.51,0.71 0.8,1.24 0.77,-0.16 0.35,-1.07 3.44,0.08 0.94,0.82 -2.33,3.9 -1.22,0.69 -0.63,-0.47 -2.26,2 -1.26,-0.58 0.34,-1.13 -1.12,-0.69 -3.52,0.01 -0.31,-2.1 -0.36,-0.53 0.25,-1.16 -1,-1.81 -1.5,-0.85 -0.65,-2.06 -2.58,-3.81 -0.16,-0.88 1.41,-0.82 z m 33.34,-2.12 0.48,-0.15 -0.09,2.48 1.03,-0.4 -0.46,2.09 -0.02,1.15 -0.22,2.27 -1.43,0.12 0.05,-0.85 -1.26,0.86 -0.57,-0.44 -0.48,-0.52 -0.39,-1.05 3.54,-1.45 -1.42,-2.93 0.57,-0.35 0.24,-2.04 0.43,1.21 z m -2.06,-6.76 0.38,0.81 0.01,0.69 2.32,1 -4.68,6.96 -0.46,2.53 -0.79,1.2 -1.59,0.46 0.65,0.88 -1.36,0.53 -0.59,-0.43 -0.56,0.78 0.35,0.51 -1.58,0.77 -0.12,0.9 -1.09,0.56 -0.68,-1.12 -1.29,0.2 0.1,-1.67 1.02,-0.62 0.74,0.27 0.75,-1.62 0.83,0.28 1.1,-0.96 -0.78,-0.92 0.37,-1.49 -0.71,-0.6 1.21,-0.77 0.32,-1.36 0.78,0.14 1.59,-1.26 0.77,-2.95 0.88,-0.51 0.69,-2.03 1.48,-1.71 -0.06,0.55 z m 10.81,-9.3 0.25,1.38 0.66,0.64 0.69,-0.53 0.68,0.8 -0.53,4.7 -2.25,1.62 -1.78,-1.17 1.56,-1.37 -0.88,-0.91 -1.19,0.65 -0.2,-0.53 0.4,-1.04 -0.14,-0.58 0.75,-1.91 1.98,-1.75 z m 23.18,-0.03 -0.46,3.88 -0.94,0.06 0.19,-2.98 0.49,-0.99 0.72,0.03 z m -13.8,-4.41 0.81,0.47 -0.08,0.81 -2.81,3.92 0.04,-1.02 -1.93,-0.12 1.98,-1.33 0.41,-1.55 -0.53,-0.44 1.19,-1.04 0.92,0.3 z m -184.81,-91.19 7.1,-0.56 1.01,0.7 0.59,1.25 -1.95,1.77 -0.36,1.75 1.68,-0.17 -0.27,2.45 0.93,2.7 2.14,-0.91 2.09,-3.11 0.4,-2.19 1.71,-1.74 3.2,-0.91 2.73,2.71 -0.77,1.95 0.21,1.43 0.84,-1.23 1.39,0.09 -0.62,4.85 -1.67,3.38 1.26,0.32 0.28,1.47 1.07,0.54 0.27,1.11 1.78,-1.13 1.1,1.69 1.84,-0.75 1.29,1.61 3.73,1.98 1.03,4.88 0.58,1.17 0.88,0.07 1.11,1.22 6.66,-1.12 1.95,-1.6 2.68,0.76 1.28,2.22 2.06,-1.84 -1.52,-1.27 0,0 3.35,2.41 0.66,1.62 -0.56,2.88 2.28,5.18 2.83,1.44 3.99,4.55 3.54,1.84 1.37,8.75 2,5.37 0.58,4.24 3.45,8.07 3.57,1.54 0.8,1.25 1.77,-0.31 1.45,2.6 2.57,0.07 4.13,3.19 1.88,4.56 4.92,6.21 0.91,0.08 0.75,0.95 1.66,3.97 2.33,2.66 2.16,0.92 1.38,1.9 0.38,2.63 0.81,0.76 0.02,2.02 2.8,2.91 -0.06,1.02 1.46,1.35 0.03,1.52 1.61,2.7 -1.33,3.17 -2.68,2.27 -2.98,0.09 -2.2,1.71 -1.78,-0.02 -0.43,-0.69 -1.12,0.66 -0.37,1.04 1.74,0.74 -2.08,0.97 0.1,0.83 -1.4,-0.99 -1.94,0.42 -0.32,0.98 -2.86,-0.24 -0.82,1.14 -3.02,-0.54 -1.36,0.44 -0.23,-0.86 -1.76,-0.47 1.46,-2.41 0.22,-2.57 1.01,-0.82 1.19,0.5 1.29,-2 0.16,2.62 1.06,0.2 -2.06,2.52 -0.53,1.89 1.35,-0.34 2.97,-2.37 1.33,0.18 0.37,-0.74 1.5,-0.16 -0.25,-2.44 0.72,-1.27 0.56,0.59 1.13,1.21 1.02,-0.32 0.56,-4.73 -2.59,-2.36 -0.32,-1.68 -0.83,-0.62 0.4,-2.54 -1.35,-1.37 -0.23,-1.14 -3.53,-2.89 -0.26,-0.84 -4.27,-1.21 -1.64,0.43 -3.12,-0.47 -0.89,-2.73 -1.03,-0.28 -0.65,-1.11 -2.12,0.24 -2.5,-1.46 -0.22,0.59 -0.75,-0.45 -0.46,1.24 1.1,0.06 0.33,0.64 -1.34,2.84 0.95,0.45 0.91,1.68 -0.82,0.58 -2.85,0.01 -0.9,0.87 -1.63,-0.66 -1,0.8 -0.62,-0.27 -3.42,1.31 -0.61,3.99 0.48,3.12 3.18,7.55 0.53,0.23 0.89,-2.37 0.8,-0.13 -0.83,-1.86 1.87,-0.32 -0.3,2.32 1.22,-0.25 1,1.65 -0.01,2.78 0.92,2.25 0.7,0.42 1,-0.44 -0.97,-1.39 0.33,-0.77 0.93,1.43 1.67,-0.01 0.32,1.29 1.37,1.09 -0.56,1.14 0.56,1.5 1.59,1.02 -1.08,1.55 0.71,0.55 -0.62,0.71 0.62,0.78 -1.54,-0.1 -0.42,0.87 -1.12,-0.31 -0.11,3.03 3.51,-1.35 0.8,-1.1 0.75,0.32 1.53,-1.5 2.94,-0.18 -0.92,2.7 -2.31,-0.17 -0.88,1.28 0,0 -2.06,0.33 -0.21,1.14 -2.4,1.82 -3.07,0.77 -4.17,-0.82 -2.04,-3.28 -0.88,0.76 -8.94,-0.01 -0.86,-2.1 -1.29,0.55 -2.07,-0.51 -2.24,-1.95 0.18,-1.58 -1.73,-0.7 -3.45,0.32 -2.4,1.47 -1.22,-0.93 -1.25,0.43 -2.84,-0.7 -4.39,0.32 0.87,-2.15 -0.13,-3.05 -0.81,-0.47 0.4,-1.39 -0.56,-0.85 1.07,-1.85 -2.34,-1.35 -1.47,0.8 -1.35,-0.63 0.51,-2.88 -1.05,-2.48 -2.75,-1.18 -0.24,-2.11 -1.3,-1.36 -9.35,-1.07 -2.01,-4.2 -1.42,0.04 -0.3,3.12 -1.83,1.2 -1.35,3.4 -2.16,1.91 -0.37,1.83 -2.92,1.71 0.7,2.84 -0.3,1.58 -4.13,2.8 -3.55,-0.37 -0.77,1.48 -1.82,1.07 0.19,2.05 0.85,0.98 -0.77,0.59 -1.1,0.57 -0.84,-0.43 -1.09,1.3 -1.57,-0.53 -3.56,1.65 -0.6,-0.56 -0.55,-6.39 -0.86,-2.06 -2.67,-0.53 -0.88,-1.71 -1.65,-0.48 -1.47,-3.15 -1.89,-0.27 -2.59,3.98 -2.75,1.51 -4.27,-1.13 -0.4,-3.22 1.5,-3.94 -3.84,-0.99 -1.04,-3.05 1.42,-1.68 -1.97,-2.63 -2.43,0.27 -2.11,-0.6 -1.63,1.55 -2.66,0.09 -1.18,0.91 -0.71,1.67 -0.88,0.28 -2.76,-1.07 -1.09,-1.3 -0.5,1.25 -2.78,1.41 -0.83,1.18 -1.45,-0.2 0.05,1.83 -4.29,2.82 0,0 -0.11,-0.09 0,0 -2.25,-1.44 0,0 -1.68,-1.43 -0.21,-2.11 1.36,-1.52 0.22,-1.37 1.52,-1.41 0.84,0.25 0.83,-1.79 1.26,-0.52 1.21,-3.64 -1.83,-0.89 0.07,-2.89 -0.77,-0.17 -0.4,-1.74 -1.61,-1.61 -5.99,0.21 -1.36,-0.75 -0.31,-0.96 -2.01,-0.65 0.58,-2.03 -1.05,-2.39 -3.37,-2.17 -2.73,-3.53 -0.39,-1.1 1.93,-0.68 -0.08,-2.21 -2.86,0.29 -0.33,-0.51 2.05,-3.29 -1.58,-9.34 -0.4,-0.78 -2.39,-0.15 0.15,-3.56 -2.49,-1.92 -0.51,-1.49 1.98,-1.17 0.16,-1.13 1.26,-0.29 0.58,-1.89 1.55,0.63 1.52,-0.72 3.11,2.96 1.32,-0.55 0.55,-1.21 -1.24,-2.67 -1.41,-1.07 0.76,-1.69 -1.03,-3.52 0.5,-0.4 -0.21,-1.99 0.28,-0.49 1.98,0.29 -0.38,-0.69 1.19,-1.42 0.3,-1.55 -0.2,-1.76 1.18,-0.38 1.32,0.48 0.55,-0.63 0,0 1.84,-1.32 0.4,1.63 2.06,1.07 0.45,1.02 1.72,-0.19 0.5,0.78 0.81,-0.06 0.56,-1.29 1.13,0.28 1.77,-1.29 0.48,-2.48 -1.56,-0.24 1.62,-2.32 1.29,0.41 1.68,-1.02 1.29,0.08 0.75,1.27 1.11,-0.87 1.62,0.7 2.03,-0.65 2.52,0.97 1.72,-0.8 1.83,2.04 0.4,1.9 1.14,0.9 3.45,-2.2 2.49,1.83 2.69,-1.59 1.32,0.06 1.17,0.79 0.05,0.76 1.82,-0.05 1.95,1.22 3.93,-1.9 3.82,0.52 1.03,0.8 1.79,-0.1 0.54,0.84 0.79,-1.61 -1.45,-4.97 0.52,-1.94 -3.76,-4.43 1.44,0.13 1.66,-1.1 0.73,-2.23 1.81,0.18 1.43,-1.03 2.42,-4.5 2.01,-1.53 -0.3,-1.97 2.25,-0.21 0.56,-1.8 4.24,-3.98 0.91,-2.17 1.59,-1.51 0.6,-0.98 -1.3,-2.17 0.67,-0.84 1.64,1.07 0.27,-1.6 -0.58,-1.1 0,0 0.38,-0.22 z" 
                fill="rgb(151, 144, 238)" 
                stroke="white" 
                stroke-width=".7px"
                title="Thessaly" 
                id="GR-E" 
            />
        </svg>