<svg xmlns="http://www.w3.org/2000/svg" viewBox="125.97553000000005 96.55283100000008 127.44999999999993 130.1099989999999" width="127.44999999999993" height="130.1099989999999">
            <path 
                d="m 209.84553,96.592831 4.14,1.85 2.85,-0.83 0,0 1.62,2.799999 1.82,0.13 0.28,0.83 -1.96,1.32 -0.39,0.94 -2.53,1.38 -2.72,0.63 -1.07,1.18 -0.39,-0.69 -1.61,0.71 2.85,4.38 -0.8,0.96 0.79,1.43 -0.68,1.58 1.31,0.93 2.53,-0.63 1.88,0.6 -1.67,3.73 2.88,2.04 0.76,3.5 1.41,-0.17 0.95,-1.1 1.24,1.66 4,1.35 0.03,3.27 -2.06,1.28 0.4,1.21 -0.55,1 0.71,1.56 -0.31,2.02 2.64,2.45 -1.74,1.71 0,1.2 2.63,3.74 0.43,3.31 4.83,1.02 3.86,3.69 -0.66,0.69 0.46,0.66 3.93,-0.51 3.23,1.15 -1.14,5.75 1.69,1.05 1.24,1.93 2.52,-0.23 -0.08,0.72 -2.04,1.51 -0.06,1.97 2.12,0.95 0.68,1.49 3.14,0.37 0.19,1.61 -1.4,1.38 -1.05,4.64 -5.18,2.77 -0.84,1.15 0.86,1.22 0,0 0.16,-0.01 0,0 0.58,1.1 -0.26,1.6 -1.64,-1.07 -0.67,0.85 1.3,2.17 -0.6,0.98 -1.59,1.51 -0.91,2.17 -4.24,3.99 -0.57,1.8 -2.25,0.21 0.31,1.97 -2.01,1.53 -2.42,4.5 -1.43,1.03 -1.81,-0.18 -0.73,2.23 -1.66,1.1 -1.44,-0.13 3.76,4.43 -0.52,1.94 1.46,4.98 -0.79,1.6 -0.54,-0.84 -1.79,0.11 -1.03,-0.8 -3.82,-0.53 -3.93,1.9 -1.95,-1.22 -1.82,0.04 -0.05,-0.75 -1.17,-0.79 -1.32,-0.06 -2.69,1.59 -2.48,-1.83 -3.45,2.2 -1.14,-0.89 -0.4,-1.9 -1.83,-2.04 -1.73,0.81 -2.52,-0.97 -2.03,0.65 -1.62,-0.7 -1.11,0.88 -0.76,-1.27 -1.29,-0.08 -1.68,1.02 -1.29,-0.41 -1.62,2.32 1.56,0.24 -0.48,2.48 -1.76,1.3 -1.13,-0.28 -0.56,1.29 -0.81,0.06 -0.5,-0.78 -1.72,0.18 -0.45,-1.02 -2.06,-1.07 -0.41,-1.63 -1.84,1.31 0,0 -1.88,-2.37 -1.59,0.16 -2.31,-1.54 -2.66,1.31 -1.84,-0.14 -1.44,2.44 -6.2,-2.21 -0.04,-1.98 -1.12,-0.56 0.73,-1.3 -1.06,-1.66 0.43,-1.28 -0.61,-1.48 -2.28,-1.9 -2.27,-3.4 0.73,-0.82 1.84,1 1.33,-0.84 1,-2.04 0.35,-4.54 -2.87,-1.27 -1.8,1.09 -2.05,0.27 -1.94,-3.29 -0.01,-2.13 -2.86,-3.58 4.23,-2.44 -0.62,-2.33 0.25,-2.06 -1.84,-0.25 1.15,-1.54 -2.06,-1.9 -1.08,-3.39 -1.55,-1.01 -0.25,-1.9 -1.63,-2.58 -4.05,-4.19 -1.37,0.36 -1.37,-1.38 -2.56,0.67 -3.24,-1.34 0,0 -0.24,-0.86 1.26,-0.78 0.23,-2.41 -0.63,-5.1 2.32,-1.67 0.92,0.11 1.87,-4.68 2.69,1.02 3.1,-0.57 1.86,1.57 2.5,-0.8 -0.22,-0.64 1.4,-1.84 0.08,-3.5 2.6,-1.66 0.76,-2.31 3.2,-0.55 -0.13,-3.96 0.44,-2.53 0.91,-1.04 0.04,-5.17 -3.01,-5.14 -3.55,-3.29 -0.08,-2.92 -2.35,-0.97 2.49,-2.55 -0.12,-7.49 15.48,-0.11 2.12,-2.24 2.77,-1.05 2.95,1.24 1.53,1.74 8.96,-2.24 5.14,-4.519999 2.19,0.04 2.05,1.099999 2.36,-0.709999 3.2,0.259999 2.27,3.38 1.08,0.56 0.42,1.33 2.3,-0.03 2.29,-2.57 0.99,0.03 0.62,-1.17 3.02,-0.1 -0.38,-1.969999 0.56,-1.41 1.18,-1.59 z" 
                fill="rgb(151, 144, 238)" 
                stroke="white" 
                stroke-width=".7px"
                title="West Macedonia" 
                id="GR-C" 
            />
        </svg>