<svg xmlns="http://www.w3.org/2000/svg" viewBox="121.5555299999999 302.3628299999999 148.0200000000001 204.39000000000016" width="148.0200000000001" height="204.39000000000016">
            <path 
                d="m 156.64553,401.35283 0,1.3 -1.37,0.8 0.22,1.48 -0.71,0.16 -0.43,-1.93 1.18,-0.32 -0.45,-0.73 0.36,-0.99 1.2,0.23 z m 65.81,-2.65 1.33,0.15 1.09,1.31 6.04,-0.48 3.68,1.99 2.27,-0.26 1.23,1.31 0.2,1.91 1.37,1.03 0.85,-0.28 1.35,0.8 1.08,2 2.75,-1.4 3.52,4.28 -0.09,1.15 2.5,2.01 1.88,-0.03 1.51,2.23 2.3,-0.04 2.74,1.19 5.84,-0.59 1.19,2.43 2.18,1.39 0,0 0.31,6.75 -1.39,6.55 -3.5,4.35 -1.81,0.2 -1.02,2.52 -4.64,1.25 0.48,4.21 -2.19,2.9 3.6,5.76 -1.97,0.1 -2.85,1.38 -3.31,3.26 -3.5,-1.18 -0.74,-1.45 -2,0.27 -2.8,2.35 -1.28,1.98 -6.24,-1.81 -3.6,-2.76 -1.81,0.27 -2.88,-2.46 -0.8,-2.89 -6.77,5.11 -1.47,2.46 -0.16,6.09 1.28,3.13 0.29,3.06 -1.55,5.75 -0.16,4.8 1,0.87 3.74,-1.78 3.44,0.27 0.77,2.21 2.51,3.29 2.3,0.74 4.51,5.09 -2.08,1.67 -2.37,0.2 -3.63,2.1 -0.72,1.61 -0.88,0.23 -0.21,1.31 1.07,2.38 -0.05,1.41 -3.8,1.34 -7.04,-0.77 -6.8,0.57 -1.51,1.26 0,0 -5.4,-11.36 -7.48,-9.31 -7.66,-4.96 -5.34,-4.74 -2.18,-0.96 -3.57,0.01 -1.32,3.25 -0.69,-1.35 0.61,-2.22 -0.64,-0.17 -0.12,-1.56 1.4,-1.43 0.2,-1.19 -1.22,-2.71 -0.54,-3.95 -2.61,-2.78 -4.23,-2.69 -10.13,-3.64 -0.49,-0.94 0.3,-3.46 1.66,-6.44 1.13,-0.61 2.33,1.82 2.74,-1.02 5.03,-4.06 4.39,-5.68 2.84,-5.67 0.79,-3.13 1.25,-0.59 0.88,-1.79 -0.26,-6.69 0.99,-2.05 -0.39,-2.17 1.65,0.28 1.88,2.69 3.84,-0.85 6.92,4.98 1.42,-0.25 5.38,1.48 6,-2.81 0.46,-1.77 3.47,-3.09 2.75,-8.04 1.27,-0.43 1.81,-3.2 0.79,0.46 2.28,-1.04 1.03,0.27 1.92,-2.68 0.28,0.19 z m -68.1,-9.72 1.32,0.71 -0.6,2.7 -1.51,-2.12 -0.18,-2.69 0.97,1.4 z m -6.16,-7.07 0.38,1.51 -1.26,-0.27 -0.69,-1.11 0.75,-0.06 0.22,-0.72 0.6,0.65 z m -7.49,-12.9 -0.74,0.33 -2.3,4.49 -0.56,0.01 0.68,1.63 -0.73,-0.49 -0.32,0.45 0.14,-2.87 0.55,0.33 2.55,-4.49 0.65,-0.13 0.08,0.74 z m 1.88,-5.67 -0.57,1.42 -1.7,0.96 -0.69,1.27 -2.42,0.52 -1.35,1.06 0.56,0.5 -0.22,0.72 -1.66,1.5 -0.19,-2.57 1.02,-0.78 -0.35,-0.64 2.32,-3.81 2.98,-0.16 1.42,-0.73 0.85,0.74 z m 36.74,-60.98 2.25,1.44 0,0 0.06,0.05 0,0 0.03,3.51 3.03,3.67 -2.01,5.31 -1.11,0.22 -1.92,3.07 0.34,1.7 3.84,2.52 5.72,2.13 0.94,4.65 2.35,3.88 8.2,2.51 0.85,1.6 0.04,1.42 -0.73,0.44 -3.76,0.38 -0.68,3.38 -1.54,1.96 0.85,1.15 1.45,6.05 1.88,1.25 4.18,1.2 2.73,-0.05 2.01,1.42 3.37,-0.11 1.92,-1.31 0.6,0.22 0.51,0.71 0.09,3.54 0.47,0.11 3.2,-1.03 1.88,-5.72 4.01,0 1.62,1.04 3.89,-1.42 0.43,-0.44 -0.26,-4.42 1.71,0.11 0.9,1.04 2.31,-0.44 2.43,3.49 -0.04,1.69 -2.35,1.2 -0.98,2.4 0.64,1.42 -0.68,1.36 0.13,2.51 1.45,1.58 -0.17,1.42 -2.05,0.54 -0.94,1.63 3.71,1.42 0.34,0.82 -1.79,4.79 0.77,3.04 -2.05,1.7 -8.11,3.64 -0.85,7.49 -2,2.57 0,0 -1.67,-1.34 -1.16,1.32 -2.89,0.86 -1.98,5.32 -3.07,-0.84 -2.63,-1.81 -2.06,0.58 -3.56,-1.25 -1.83,1.73 -2.8,-0.19 -0.94,1.83 -2.65,0.62 -3.8,3.05 -2.32,-0.41 -2.92,-2.5 -2.67,-0.74 0.31,-0.61 1.35,0.51 0.73,-0.39 1.18,1.62 0.6,-0.38 1.89,1.77 -0.39,-2.92 -0.62,-0.17 -0.21,-0.93 0.57,0.1 0.65,-1.91 -1.61,0.3 -0.26,-0.81 0.98,-0.3 -0.71,-0.69 -2.29,0.05 -1.47,1.17 -1.28,-0.77 1.39,-1.29 -1.2,-1.83 -0.68,1.93 -2.99,-2.22 -0.63,-1.16 0.75,-1.06 -1.06,-0.41 0.25,-1.7 -1.26,-0.42 0.79,-0.26 0.2,-0.91 -1.63,-3.38 -2.24,-2.57 -1.51,2.16 4.35,4.93 -0.34,0.84 -0.73,-0.09 0.56,1.51 -0.74,1.93 0.15,1.79 -1.23,-0.08 -1.04,1.31 -1.87,0.09 -0.01,1.55 0,0.73 -0.17,0.52 -0.09,0.68 -0.58,0.55 -0.46,-0.69 -0.82,0.6 -2.81,0.91 0.14,0.72 -0.79,0.75 -0.53,-0.23 -0.58,-0.4 -0.54,1.08 1.71,1 2.39,0.07 -2.06,0.62 -2.82,-0.64 -2.71,0.69 -1.46,-0.1 -1.49,-0.7 -0.62,-3.44 -2.9,0.26 -0.19,-1.16 0.61,0.03 0.31,-1.87 -0.9,-1.07 -0.63,0.54 0.59,-2.14 0.6,-0.17 -0.05,1.87 1.92,-3 -0.33,-0.22 0.15,-2.1 1.59,0.78 0.74,0.3 0.59,-0.89 -4.21,-0.72 1.14,-0.84 -0.65,-1.54 -0.38,-0.48 -1.08,-2.58 0.51,-1.29 -0.34,-0.34 -0.97,0.38 -0.41,-0.75 -0.99,0.09 0.71,-0.6 0.99,0.75 0.68,-0.44 -0.2,-0.58 -1.27,-0.11 1.28,-4.28 -1.7,-0.38 -3.08,3.46 -1.02,0.31 -0.58,-0.31 -0.25,-2.63 -1.35,-0.95 0.21,-1.26 0.54,-0.76 0.57,-5.99 -3.04,-4.67 -0.04,-2.8 -2.22,-0.51 -1.79,0.84 -0.99,-1.3 -0.93,0.89 -0.71,-0.37 -1.86,-4.03 0.01,-2.69 -1.39,-3.53 -0.48,-3.43 -2.27,-0.21 -1.26,0.69 -2.72,3.46 -0.2,-0.95 -1.2,0.37 -0.74,1.2 -0.81,-0.11 -0.82,-0.25 -0.2,-2.36 -0.86,-1.41 -1.34,-1 -0.73,-1.91 0.38,-1.66 0.9,-0.49 -0.63,-1.64 0.58,-0.77 2.38,-1.15 1.78,0.04 0.34,-0.67 -0.65,-0.31 -2.61,-3.82 -0.61,-1.95 1.09,-1.26 0.51,-2.75 1.97,3.71 1.92,0.82 2.76,-0.3 0.05,-0.78 0.42,-1.11 1.33,-0.26 0.31,-1.99 0.55,0.82 -0.39,0.69 -0.29,2.84 3.98,-0.39 0.34,-1.21 1.13,-0.75 -0.32,-1.16 2,1.88 3.2,-1.44 0.9,0.59 0.8,2.24 2.63,-1.12 0.48,2.1 -1,1.47 4.32,2.43 1.05,1.44 0.41,0.06 -0.34,-1.25 1.1,-0.36 -0.34,-2.65 0.94,-1.34 1.44,0.03 -0.26,0.87 1.31,0.13 -0.1,0.78 2.19,0.37 1.45,3.39 0.9,-0.53 -0.78,-4.05 -2.39,-2.15 0.14,-4.4 1.13,-1.76 -0.08,-1.77 -3.16,-5.62 -1.18,-0.68 0,0 -0.53,-1.93 -1.35,-1.65 2.25,-0.85 -1.08,-1.63 1.83,-2.25 2.43,-0.21 1.38,-0.81 1.35,0.32 1.49,-1.39 1.52,1.82 1.89,-1.19 3.45,1.62 5.03,-3.19 -0.04,-1.54 4.17,-2.22 z" 
                fill="rgb(151, 144, 238)" 
                stroke="white" 
                stroke-width=".7px"
                title="West Greece" 
                id="GR-G" 
            />
        </svg>