<svg xmlns="http://www.w3.org/2000/svg" viewBox="302.52 315.15 13.470000000000027 14.25" width="13.470000000000027" height="14.25">
            <path 
                d="M311.84,316.12L311.41,315.91L311.22,315.15L310.09,316.2L309.81,316.35L309.53,316.18L309.19,315.43L308.92,315.21L308.27,315.26L306.16,315.74L305.45,315.97L304.62,316.71L303.68,318.01L302.9,319.43L302.52,320.56L302.62,320.74L303,321.24L302.89,321.64L303.1,322.03L303.44,322.45L303.72,322.94L304.03,324.1L304.2,324.51L304.58,325.04L305.12,325.55L305.48,325.69L305.82,325.73L306.27,325.93L306.87,326.4L307.35,326.91L308.37,328.2L308.98,328.69L310.06,329.26L311.13,329.4L311.69,328.59L312.08,327.5L312.78,327.39L313.56,327.5L314.22,327.09L314.29,326.28L313.49,324.27L313.33,323.32L314.43,323.65L314.98,323.74L315.56,323.74L315.42,323.09L315.57,322.53L315.82,321.94L315.99,321.21L315.93,320.15L315.65,319.2L314.32,316.18L313.18,316.06L311.84,316.12z" 
                fill="rgb(151, 144, 238)" 
                stroke="white" 
                stroke-width=".7px"
                title="Addis Ababa" 
                id="ET-AA" 
            />
        </svg>