<svg xmlns="http://www.w3.org/2000/svg" viewBox="356.5 22.78 144.47000000000003 306.07000000000005" width="144.47000000000003" height="306.07000000000005">
            <path 
                d="M393.03,29.97L388.95,26.16L386.85,24.9L384.54,23.95L379.76,22.78L378.81,22.79L376.18,23.57L375.42,23.59L374.18,23.37L373.76,23.56L373.25,23.92L373.37,24.38L373.42,25.12L373.33,26.53L373.29,26.71L372.95,27.45L372.58,27.93L372.41,28.07L372.24,28.15L370.82,28.33L366.79,27.86L364.64,27.23L363.76,27.14L360.05,27.86L358.35,28.85L356.9,30.05L356.5,30.56L356.53,31.03L357.77,31.69L361.02,31.4L361.84,32.16L361.69,32.89L359.27,35.49L357.92,38.34L357.69,39.33L358.08,39.68L358.86,39.65L359.76,39.71L360.68,39.93L361.47,40.41L359.71,42.37L359.46,42.83L359.86,43.84L360.62,43.88L361.45,43.54L362.07,43.4L362.72,43.99L363.11,44.99L363.3,46.1L363.34,47.05L363.11,49.06L363.11,49.84L363.44,50.47L364.22,51.09L364.42,51.53L364.53,51.9L364.57,52.23L364.64,55.42L363.63,60.54L363.4,62.93L363.82,64.9L364.53,66.86L365.02,69.54L364.75,71.9L363.21,72.87L361.19,71.91L360.75,72.62L359.48,76.84L359.52,78.2L360.4,80.42L360.55,81.81L360.41,83.13L359.32,88.67L359.43,89.37L359.81,90.26L359.96,90.49L360.76,91.37L361.08,91.59L361.6,91.84L361.77,91.98L362.09,92.59L362.92,96.78L363.24,97.34L363.87,98.07L363.94,98.4L363.64,99.33L363.06,100.29L362.37,100.98L361.68,101.09L361.92,103.66L361.88,104.74L361.63,106.28L361.65,107.47L361.48,108.09L361.1,108.98L361.2,109.24L362.82,110.59L363.6,110.98L364.78,111.12L365.88,111.46L366.74,112.3L368.07,114.46L368.42,116.26L368.18,118.83L367.55,121.33L366.71,122.9L364.9,124.88L363.76,126.9L363.13,129.17L362.9,131.9L363.06,132.81L363.83,134.49L363.98,135.62L363.96,136.88L363.83,138.13L363.39,139.23L362.45,140.06L361.58,142.63L361.47,143.19L361.46,143.78L361.51,144.52L361.9,146.12L363.24,148.94L363.67,150.42L363.66,151.2L363.55,151.88L363.62,152.56L364.6,154L364.94,154.75L365.14,155.56L365.24,156.39L365.21,157.98L365.27,158.74L365.56,159.52L365.93,160.22L366.21,160.65L366.61,161.14L367.88,161.9L367.98,162.17L367.56,167.44L367.62,168.92L367.96,170.02L369.85,173.44L370.8,174.58L371.91,175.52L373.07,176.07L373.35,176.26L373.53,176.63L373.84,177.81L374.19,180.6L374.68,181.82L376.98,185.56L377.45,186.85L377.88,189.84L377.89,191.43L377.77,193.02L379.41,194.8L380.43,195.71L381.22,196.79L383.35,200.72L383.9,202.11L384.23,203.58L384.38,206.16L384.66,208.04L384.65,209.05L384.43,210L384.03,210.79L381.04,215.36L382.4,216.81L382.98,218.29L382.86,219.75L382.29,221.18L380.75,223.9L380.31,225.07L380.32,226.28L380.94,227.72L382.6,229.77L382.92,230.46L382.93,231.63L382.38,234.29L382.38,235.61L383.62,239.52L383.67,239.86L383.66,240.24L383.46,241.29L382.83,242.46L382.53,243.53L382,250.39L381.81,251.37L380.83,253.89L380.63,255.36L380.8,256.78L381.11,258.2L381.3,259.64L381.2,260.72L380.8,261.07L380.02,260.96L378.79,260.65L377.68,260.47L376.35,260.45L375.1,260.72L374.22,261.43L373.66,262.79L373.76,263.91L374.42,264.87L375.57,265.76L377.21,266.72L378.29,267.51L378.79,268.67L378.73,270.71L378.3,271.88L376.8,274.01L376.33,275.07L374.87,276.94L374.87,277.66L375.16,278.28L375.52,278.88L375.74,279.55L375,281.05L372.94,281.04L368.47,279.78L366.32,280.35L366.48,282.52L368.44,287.61L368.58,290.41L368.23,293.13L367.2,295.56L365.28,297.5L364.15,298.32L363.39,299.17L363.25,300.03L364.01,300.91L364.56,301.14L366.01,301.52L366.71,301.87L368.6,303.35L368.55,305.9L367.12,308.4L365.32,310.76L364.1,312.87L366.93,312.53L368.36,312.55L369.46,313.14L369.84,313.98L370.22,316.35L370.49,317.33L370.96,317.96L371.43,318.44L371.7,319.05L371.52,320.06L373.82,320.13L375.56,320.45L376.54,321.53L376.56,323.88L375.28,327.45L375.59,328.65L376.26,328.85L379.52,326.59L380.58,325.53L382.44,322.12L384.2,321.98L385.63,321.1L386.8,320.03L387.42,318.34L387.52,317.14L387.68,316.28L388.08,315.53L391.44,312.2L392.16,311.29L395.78,305.39L397.19,303.61L398.89,301.87L400.48,300.58L402.31,299.73L406.71,299.07L408.38,298.64L409.84,297.81L411.22,296.38L411.7,292.63L412.67,288.72L413.46,286.7L418.2,279.34L421.12,276.05L427.85,270.19L428.63,268.99L428.14,268.25L425.79,267.3L424.91,266.52L424.45,265.15L424.44,263.8L432.08,234.33L432.11,232.83L431.8,230.58L431.91,229.55L432.39,228.47L434.23,226.22L438.35,222.16L439.86,219.67L440.18,218.28L440.38,216.8L440.81,215.42L441.88,214.32L443.04,213.94L464.3,214.09L465.83,213.94L466.84,213.54L467.74,212.98L468.3,212.73L468.31,212.72L468.04,212.36L468.99,210.81L469.33,208.49L469.46,198.05L468.8,192.14L467.42,185.89L467.39,182.92L468.96,177.99L469.69,173.87L470.54,172.14L471.32,171.6L473.42,170.68L473.94,169.98L474.24,169.2L474.69,168.88L475.29,168.7L476.04,168.34L476.78,167.77L477.36,167.17L479.41,164.26L483.81,157.98L485.96,153.95L486.55,153.3L487.81,152.68L488.23,152.01L489.04,150.02L496.14,140.28L497.76,136.71L500.97,132.37L498.43,129.67L494.08,123.74L490.61,117.79L488.07,115.59L485.11,113.91L482.07,112.65L477.91,109.97L475.12,106.04L470.98,97.03L469.29,94.19L467.47,91.8L465.4,89.63L461.33,86.27L455.75,81.64L446.5,75.7L439.31,71.08L437.7,69.47L433.94,62.77L429.79,55.4L424.15,48.95L418.58,42.58L415.34,40.25L411.72,38.88L406.91,38.19L405.4,37.7L399.75,34.97L396.65,33.35L393.03,29.97z" 
                fill="rgb(151, 144, 238)" 
                stroke="white" 
                stroke-width=".7px"
                title="Afar" 
                id="ET-AF" 
            />
        </svg>