<svg xmlns="http://www.w3.org/2000/svg" viewBox="58.04 155.71 158.75 176.15" width="158.75" height="176.15">
            <path 
                d="M176.79,323.88L177.41,323.69L178.02,323.41L178.54,323.02L178.92,322.51L178.11,322.09L177.12,320.92L176.49,320.53L174.17,321.78L173.84,322.1L173.7,322.42L173.8,322.74L174.14,323.06L174.9,323.47L175.34,323.84L175.83,324.02L176.79,323.88zM166.72,319.06L164.47,318.47L163.65,318.52L163.27,319.08L163.19,319.98L163.2,320.96L163.11,321.77L162.79,322.31L161.87,323.38L161.54,324.06L161.51,324.7L161.77,326.03L161.73,326.68L161.68,326.81L161.62,326.9L161.45,327.11L161.69,327.68L162.06,328.11L162.55,328.41L163.13,328.62L163.24,328.34L163.55,328.24L164.55,328.26L164.81,328.23L165.39,328.1L165.62,328.1L165.87,328.23L166.2,328.71L166.37,328.83L167.53,328.8L168.29,328.34L169.62,326.95L170.11,327.74L171.44,328.79L171.97,329.46L172.06,329.91L171.97,330.31L171.97,330.75L172.3,331.3L172.67,331.56L173.14,331.73L174.13,331.86L174.01,331.25L173.77,330.7L173.15,329.75L173.9,329.39L173.91,328.67L173.42,327.96L172.64,327.64L172.5,326.49L172.58,324.83L172.85,323.22L173.25,322.2L172.63,322.44L171.93,322.43L171.24,322.14L170.63,321.53L170.22,320.89L170.22,320.63L170.52,320.39L171.02,319.82L170.82,319.74L170.68,319.64L170.51,319.49L169.69,319.29L168.94,319.04L168.25,318.94L167.64,319.21L166.72,319.06zM184.62,298.4L184.45,297.22L185,296.17L187.14,295.23L187.55,294.8L187.56,294.16L187.29,293.72L185.53,292.42L184.59,292.18L183.63,292.4L182.58,293.1L181.92,293.87L181.62,294.68L181.06,296.75L182.31,301.02L182.95,302.06L182.98,302.06L183.14,302.03L183.36,300.89L184.03,300.57L185.81,300.91L184.62,298.4zM148.55,155.71L148.21,155.96L146.75,159.51L145.91,160.7L139.17,166.03L137.87,167.38L136.76,168.29L135.66,168.45L134.18,168.32L132.65,168.57L129.67,169.54L128.52,169.54L127.28,168.9L125.92,167.74L124.44,166.15L122.4,161.28L120.99,160.07L120.96,161.06L120.85,161.6L119.24,163.41L115.67,164.79L114.51,165.24L112.45,166.59L111.63,167.64L110.91,168.89L110.33,170.22L109.95,171.52L109.92,172.62L110.32,174.68L110.22,176.9L110.61,178.02L111.72,180.24L111.85,181.25L111.65,182.33L104.94,197.23L104.79,198.4L105.3,199.87L106.24,200.92L106.91,202.03L106.71,203.72L103.19,214.11L103.15,214.71L103.66,215.41L105.24,216.58L105.54,217.39L105.13,219.25L104.23,220.55L101.35,222.76L100.38,223.68L100.16,224.33L100.16,224.98L99.84,225.95L99.15,226.85L98.57,226.92L97.92,226.73L97.02,226.82L96.37,227.4L95.66,229.07L95.23,229.5L94.67,229.29L94.59,228.5L94.81,226.87L94.47,226.05L93.77,225.43L92.2,224.41L85.75,218.7L85.1,218.44L84.2,218.79L77.77,223.24L76.85,224.05L76.01,225.18L73.95,229.2L69.37,235.72L68.95,237.64L69.19,239.88L71.78,251.8L71.84,254.25L71.39,256.54L71.22,256.85L70.7,257.38L70.55,257.67L70.54,258.28L70.73,259.6L70.64,260.2L69.44,262.01L66.3,264.94L59.71,283.67L58.04,291.7L58.24,295.83L58.9,309.3L61.37,309.34L71.35,310.21L72.82,310.04L73.85,309.38L74.61,308.38L75.19,307.46L75.65,306.47L76.06,305.22L78.13,295.83L79.2,285.86L80.54,285.08L81.71,285.05L83.69,284.7L84.64,284.89L85.91,285.74L88.34,287.9L89.73,288.66L91.39,288.44L97.37,281.95L99.43,278.14L102.53,268.35L102.09,267.51L101.35,266.7L100.81,265.43L101.1,264.96L107.89,265.46L108.79,265.74L109.08,266.32L108.97,267.67L109.06,268.99L109.64,269.87L111.04,269.91L115.19,269.33L116.94,269.4L119.44,269.76L120.44,269.79L121.5,269.97L122.64,270.55L124.62,272.09L135.36,282.84L142.61,291.72L145.25,294.38L147.48,294.03L148.19,294.05L148.94,295.05L149.98,297.36L150.12,298.03L150.06,301.02L150.61,301.69L151.27,302.02L151.92,302.12L153.47,302.02L155.55,302.15L156.59,302.09L157.14,302.31L157.54,303.02L157.95,304.06L159.88,307.44L160.42,308.11L161.02,308.19L162.72,308L163.55,309.02L164.32,312.39L165.52,312.89L173.29,302.69L174.77,298.34L175.43,294.46L175.09,291.5L173.53,289.89L172.62,289.32L169.01,285.08L167.35,283.64L167.43,283.36L168.45,282.56L168.92,281.67L168.86,280.6L168.29,279.27L167.98,278.17L168.31,273.08L167.87,263.56L168.48,263.54L169.44,264.23L170.48,264.2L171.52,263.77L173.65,262.59L178.39,259.16L180.13,257.14L182.99,252.53L183.78,251.53L185.74,249.44L186.75,248.65L187.81,248.19L191.14,247.83L191.44,248.05L189.63,253.32L189.47,253.96L189.72,254.25L190.7,254.56L191.58,254.97L192.5,255.22L193.63,255.02L194.8,252.57L195.5,252L200.2,249.66L201.13,249.69L203.44,251.12L206.33,252.32L207.47,253.21L213,254.9L213.98,255.01L214.67,254.66L215.2,253.91L215.73,252.91L216.11,251.82L216.79,249.96L209.12,248.48L206.94,247.7L205.86,247.46L203.37,247.31L202.81,247.16L202.31,246.9L201.97,246.56L201.69,246.21L201.37,245.96L200.9,245.93L199.61,246.31L199.11,246.34L193.03,245.78L190.58,245.81L189.52,245.41L188.8,244.37L188.72,243.42L188.88,242.45L188.87,241.54L188.31,240.75L187.7,240.51L187.12,240.61L184.49,241.87L183.22,241.77L181.93,240.94L180.76,239.59L179.7,237.84L178.9,235.54L178.51,232.54L181.98,224.58L181.26,223.66L180.06,223.64L179.05,224.01L178.28,224.75L177.81,225.85L177.65,225.91L177.54,224.94L177.53,223.4L177.67,221.77L178.99,218.72L178.97,218L179.12,217.14L179.8,216.02L180.7,214.89L181.55,214.01L184.29,211.88L185.78,210.3L187.09,207.93L185.5,204.5L185.7,203.83L186.13,202.87L186.03,201.75L185.74,200.62L185.62,199.65L186.13,198.42L187.1,197.13L187.94,195.52L188.07,193.37L184.83,190.05L183.93,189.49L182.67,188.4L183.11,187.27L184.18,186.21L184.81,185.31L184.71,184.89L181.62,180.11L179.82,178.28L179.2,177.26L178.96,172.42L179.22,168.8L178.84,168.21L177.61,168.64L175.55,170.13L173.43,171.96L171.19,174.37L170.19,174.99L169.12,175.14L168.05,174.63L167.27,172.18L166.88,169.43L166.33,168.13L165.01,166.59L163.17,163.49L162.93,163.16L160.67,161.28L160.02,160.54L159.33,159.09L158.87,158.46L157.55,157.7L157.31,157.45L156.44,157.22L154.96,157.21L153.59,157.03L153.07,156.28L152.91,155.99L152.39,155.91L150.77,155.91L148.55,155.71z" 
                fill="rgb(151, 144, 238)" 
                stroke="white" 
                stroke-width=".7px"
                title="Benshangul-Gumaz" 
                id="ET-BE" 
            />
        </svg>