<svg xmlns="http://www.w3.org/2000/svg" viewBox="466.46 278.22 32.47000000000003 16.579999999999984" width="32.47000000000003" height="16.579999999999984">
            <path 
                d="M498.93,281.47L496.88,279.19L494.31,278.22L491.58,278.55L489.08,280.19L482.91,286.41L481.92,286.61L480.52,286.08L476.43,283.84L475,283.44L473.64,283.76L471.08,285.41L470.01,285.38L468.12,285.81L466.93,288.79L466.46,292.42L466.74,294.8L468.4,294.04L469.92,294.14L471.45,294.38L473.11,294.04L473.79,293.97L475.28,294.51L475.99,294.67L476.62,294.61L477.2,294.45L480.23,293.1L481.67,293.14L484.84,294.74L485.76,293.55L487.29,292.35L488.61,291.11L488.84,289.83L487.83,288.18L487.61,287.51L487.88,287.04L488.62,286.53L490.2,285.65L491.5,285.17L494.21,284.94L495.11,284.51L495.92,283.68L497.92,282.04L498.93,281.47z" 
                fill="rgb(151, 144, 238)" 
                stroke="white" 
                stroke-width=".7px"
                title="Dire Dawa" 
                id="ET-DD" 
            />
        </svg>