<svg xmlns="http://www.w3.org/2000/svg" viewBox="0.64 341.53 126.6 85.82000000000005" width="126.6" height="85.82000000000005">
            <path 
                d="M101.16,364.52L99.5,364.5L98.08,363.92L97.06,362.52L96.17,360.85L95.18,360.09L92.03,359.44L90.41,358.73L89.33,357.59L87.42,354.79L85.87,353.48L80.51,350.78L77.91,348.73L73.24,344.22L70.54,342.36L68.9,341.66L67.53,341.53L66.24,341.96L63.73,343.82L63.07,343.97L62.45,343.51L61.47,342.54L60.19,341.86L59.97,343.06L59.28,344.29L58.18,345.52L52.92,350.27L51.82,350.93L50.83,351.2L47.82,351.21L45.99,351.43L45.1,351.67L44.25,352.04L43.69,352.41L41.48,354.33L41.25,354.4L40.67,354.49L38.25,354.18L36.96,352.7L35.91,350.86L34.25,349.45L33.16,349.27L32.38,349.59L31.62,350.02L30.61,350.19L29.8,349.85L29,349.2L28.1,348.68L27.02,348.73L27.31,349.13L27.29,349.33L26.79,349.61L23.2,350.04L22.51,349.88L22.08,349.92L21.68,350.13L20.95,350.7L20.44,350.87L14.65,349.58L13.72,349.72L12.19,351.07L12.24,351.28L12.4,351.6L12,351.96L11.2,352.12L10.46,352.48L10.22,352.86L10.13,353.27L10.14,354.18L10.08,354.43L9.81,354.79L9.77,355.08L9.89,355.25L10.37,355.6L10.46,355.78L10.34,356.44L9.88,357.45L9.77,357.86L9.95,358.49L10.32,359.01L10.69,359.41L11.09,360.01L11.57,360.3L12.29,360.6L12.21,361.29L11.84,361.57L11.34,361.74L10.86,362.1L10.46,362.7L10.24,363.19L10.15,363.73L10.14,364.49L10.3,364.78L11.03,365.3L11.2,365.59L11.05,366.66L10.63,367.41L9.97,367.95L9.05,368.38L7.45,368.65L7.23,368.92L7.12,369.37L6.87,369.92L6.55,370.43L3.52,373.53L2.85,374.45L2.58,374.99L2.34,376.12L2.08,376.49L1.83,376.76L1.59,377.26L1.55,377.35L0.84,378.12L0.64,378.7L1.99,382.29L2.44,383.12L3.36,383.67L3.57,384.13L3.73,384.62L3.92,384.95L4.29,385.12L5.74,385.28L6.92,385.81L7.63,385.91L7.95,385.46L8.23,385.34L9.95,384.95L10.4,385.03L11.92,385.65L13.65,385.91L14.1,386.05L14.92,386.76L15.76,387.74L16.72,388.61L19.68,389.37L20.36,389.35L21.67,388.48L22.14,388.25L24.45,387.78L25.82,387.73L26.74,388.07L27.22,388.44L28.19,388.72L28.72,388.99L29.24,389.47L29.98,390.45L30.54,390.86L31.68,391.18L35.14,390.86L35.7,391L37.16,391.96L38.84,392.44L39.34,392.69L40.06,393.5L41.74,395.86L44.43,397.86L44.96,398L46.06,398.13L46.61,398.26L48.21,399.2L54.82,405.98L55.73,407.46L56.1,409.27L56.13,414.28L56.26,414.56L56.6,414.72L59.05,416.64L60.5,418.46L61.53,419.22L62.53,419L63.41,418.58L64.14,419.02L64.65,419.97L64.9,421.07L64.9,422.75L66.09,422.25L67.66,423.14L69.22,424.49L70.44,425.37L71.82,425.5L73.18,425.16L75.76,424.1L77.72,423.69L79.82,423.67L81.81,424.15L83.43,425.21L84.82,426.34L86.37,427.04L88.03,427.35L89.76,427.32L91.47,427.01L92.71,426.49L93.82,425.67L95.14,424.47L96.65,423.33L98.17,422.65L99.81,422.33L101.71,422.24L104.93,422.39L106.33,421.98L107.01,420.69L108.05,421.05L109.31,420.78L110.47,420.09L111.22,419.18L112.17,420.07L113.48,420.86L114.89,421.46L116.13,421.8L117.46,421.73L119.71,420.69L120.99,420.44L124.08,421.05L125.33,420.88L125.74,419.61L125.6,419.18L125.08,418.15L124.95,417.61L124.98,417.04L125.18,415.93L125.2,415.38L125.32,414.63L125.94,413.23L126.01,412.51L125.97,411.77L126.06,411.05L127.11,407.36L127.24,406.22L126.85,405.12L125.96,404.26L122.28,402.29L121.77,401.59L122.31,400.02L121.8,399.01L121.9,400.16L121.22,401.13L120.15,401.9L119.09,402.47L118.57,402.81L118.24,403.1L117.9,403.2L116.62,402.65L115.87,402.5L114.27,402.45L113.3,402.04L113.58,401.13L114.42,400.14L115.15,399.47L115.59,398.58L114.89,397.92L109.52,396.01L108.72,395.37L108.27,394.28L107.93,391.73L107.41,390.57L105.62,388.82L103.7,387.35L102.01,385.69L100.9,383.38L100.86,380.85L101.75,378.63L105.12,373.84L105.4,373.14L105.12,372.57L102.49,371.75L102.03,371.15L102.51,370.5L104.89,369.46L108.12,367.65L110.81,366.75L112.17,366.11L112.57,365.34L110.95,364.15L108.08,363.78L105.04,363.92L101.16,364.52z" 
                fill="rgb(151, 144, 238)" 
                stroke="white" 
                stroke-width=".7px"
                title="Gambela Peoples" 
                id="ET-GA" 
            />
        </svg>