<svg xmlns="http://www.w3.org/2000/svg" viewBox="484.01 299.6 11.350000000000023 10.589999999999975" width="11.350000000000023" height="10.589999999999975">
            <path 
                d="M494.01,310.19L494.92,309.65L495.36,308.61L495.05,307.64L494.49,306.68L494.16,305.68L494.29,305L494.92,303.85L495.03,303.22L495.05,302.64L495.25,301.25L495.24,300.78L494.43,299.6L493.29,299.71L492.04,300.33L490.86,300.73L489.46,300.36L488.5,299.73L487.61,299.66L486.43,300.97L484.82,303.72L484.29,305.17L484.01,306.79L484.15,307.97L484.96,308.14L486.06,307.91L487.09,307.86L487.56,308.12L488.36,308.89L488.79,309.12L489.52,309.03L490.26,308.69L490.98,308.43L491.69,308.6L493.19,309.93L494.01,310.19z" 
                fill="rgb(151, 144, 238)" 
                stroke="white" 
                stroke-width=".7px"
                title="Harari People" 
                id="ET-HA" 
            />
        </svg>