<svg xmlns="http://www.w3.org/2000/svg" viewBox="58.9 245.65 470.57000000000005 368.94000000000005" width="470.57000000000005" height="368.94000000000005">
            <path 
                d="M305.11,263.48L307.15,263.01L310.66,261.11L311.36,260.33L313.63,249.46L313.7,247.49L312.76,246.71L306.59,245.65L294.15,246.26L293.62,246.69L293.35,247.2L291.93,253.04L291.6,253.66L291.12,254.06L290.63,254.25L290.34,254.56L290.39,255.33L290.73,256.45L290.8,257.01L290.69,257.61L289.93,258.66L288.74,259.25L287.38,259.48L286.11,259.45L284.75,259.09L284.22,259.08L283.69,259.19L282.25,259.73L280.74,260.04L280.28,260.33L280.11,260.56L279.72,261.58L279.62,261.74L278.28,263.07L277.86,263.35L277.36,263.59L274.17,264.42L266.62,267.99L264.14,269.76L263.64,269.96L262.67,270.02L262.16,270.11L261.77,270.32L261.47,270.64L260.98,271.36L260.53,271.84L256.75,273.96L256.25,274.09L255.82,274.03L255.41,273.91L254.94,273.83L254.14,274.01L252.63,274.81L251.78,274.85L246.8,271.12L245.99,270.17L245.73,269.5L244.46,268.06L243.39,266.56L242.64,265.99L237.55,263.73L235.76,263.18L233.92,262.97L233.13,263.26L232.87,263.94L232.68,264.73L232.1,265.35L231.54,265.42L231.09,265.17L230.74,264.72L230.48,264.22L230.29,263.61L230.27,262.42L230.18,261.78L229.74,261.23L228.92,260.83L228.02,260.61L227.31,260.58L226.67,260.72L226.36,260.75L226.02,260.67L225.52,260.39L224.24,259.07L223.54,257.24L224.17,255.59L224.97,254.06L224.79,252.58L223.97,252.19L220.39,252.18L219.35,251.81L218.35,251.23L216.79,249.96L216.11,251.82L215.73,252.91L215.2,253.91L214.67,254.66L213.98,255.01L213,254.9L207.47,253.21L206.33,252.32L203.44,251.12L201.13,249.69L200.2,249.66L195.5,252L194.8,252.57L193.63,255.02L192.5,255.22L191.58,254.97L190.7,254.56L189.72,254.25L189.47,253.96L189.63,253.32L191.44,248.05L191.14,247.83L187.81,248.19L186.75,248.65L185.74,249.44L183.78,251.53L182.99,252.53L180.13,257.14L178.39,259.16L173.65,262.59L171.52,263.77L170.48,264.2L169.44,264.23L168.48,263.54L167.87,263.56L168.31,273.08L167.98,278.17L168.29,279.27L168.86,280.6L168.92,281.67L168.45,282.56L167.43,283.36L167.35,283.64L169.01,285.08L172.62,289.32L173.53,289.89L175.09,291.5L175.43,294.46L174.77,298.34L173.29,302.69L165.52,312.89L164.32,312.39L163.55,309.02L162.72,308L161.02,308.19L160.42,308.11L159.88,307.44L157.95,304.06L157.54,303.02L157.14,302.31L156.59,302.09L155.55,302.15L153.47,302.02L151.92,302.12L151.27,302.02L150.61,301.69L150.06,301.02L150.12,298.03L149.98,297.36L148.94,295.05L148.19,294.05L147.48,294.03L145.25,294.38L142.61,291.72L135.36,282.84L124.62,272.09L122.64,270.55L121.5,269.97L120.44,269.79L119.44,269.76L116.94,269.4L115.19,269.33L111.04,269.91L109.64,269.87L109.06,268.99L108.97,267.67L109.08,266.32L108.79,265.74L107.89,265.46L101.1,264.96L100.81,265.43L101.35,266.7L102.09,267.51L102.53,268.35L99.43,278.14L97.37,281.95L91.39,288.44L89.73,288.66L88.34,287.9L85.91,285.74L84.64,284.89L83.69,284.7L81.71,285.05L80.54,285.08L79.2,285.86L78.13,295.83L76.06,305.22L75.65,306.47L75.19,307.46L74.61,308.38L73.85,309.38L72.82,310.04L71.35,310.21L61.37,309.34L58.9,309.3L59.67,324.91L60.43,340.51L60.19,341.86L61.47,342.54L62.45,343.51L63.07,343.97L63.73,343.82L66.24,341.96L67.53,341.53L68.9,341.66L70.54,342.36L73.24,344.22L77.91,348.73L80.51,350.78L85.87,353.48L87.42,354.79L89.33,357.59L90.41,358.73L92.03,359.44L95.18,360.09L96.17,360.85L97.06,362.52L98.08,363.92L99.5,364.5L101.16,364.52L105.04,363.92L108.08,363.78L110.95,364.15L112.57,365.34L112.17,366.11L110.81,366.75L108.12,367.65L104.89,369.46L102.51,370.5L102.03,371.15L102.49,371.75L105.12,372.57L105.4,373.14L105.12,373.84L101.75,378.63L100.86,380.85L100.9,383.38L102.01,385.69L103.7,387.35L105.62,388.82L107.41,390.57L107.93,391.73L108.27,394.28L108.72,395.37L109.52,396.01L114.89,397.92L115.59,398.58L115.15,399.47L114.42,400.14L113.58,401.13L113.3,402.04L114.27,402.45L115.87,402.5L116.62,402.65L117.9,403.2L118.24,403.1L118.57,402.81L119.09,402.47L120.15,401.9L121.22,401.13L121.9,400.16L121.8,399.01L120.79,394.24L120.68,391.64L121.44,390.14L122.34,389.41L123.72,387.51L125.91,386.1L126.12,385.07L126.17,383.91L126.77,382.76L127.07,382.62L128.02,382.64L128.63,382.5L129.92,381.65L130.19,381.41L131.1,380.79L131.89,380.76L132.75,380.83L133.88,380.49L136.17,380.56L136.77,381.78L137.06,382.85L137.62,383.72L139.05,384.33L140.22,384.29L141.37,383.79L143.44,382.44L144.14,382.09L145.2,381.7L146.92,381.41L147.31,381.27L148.14,380.7L149.22,379.72L150.16,378.62L150.54,377.69L150.17,376.88L149.34,376.09L147.52,374.83L146.57,373.78L146.6,372.79L147.8,370.9L148.61,370.07L149.73,369.7L150.99,369.65L152.23,369.78L153.42,370.08L154.12,370.61L154.54,371.45L156,376.5L156.03,377.79L155.65,378.99L155,380.01L153.48,381.94L153.53,382.93L154.52,383.92L157.8,385.95L159.59,386.76L160.38,387.26L161.04,388.01L162.28,390.66L163.5,392.58L163.57,393.4L163.31,394.86L163.18,396.3L163.55,397.33L164.49,397.93L168.64,398.54L170.7,399.8L172.67,401.32L174.99,402.52L178.21,403.71L179.42,403.9L179.84,404.03L180.8,404.67L181.51,405.02L183.47,405.61L183.95,405.65L186.26,405.62L187.28,405.78L188.47,406.15L192.63,407.94L193.66,407.94L202.81,414.05L205.12,415.05L207.56,415.69L209.99,415.96L211.95,415.81L215.8,415.1L220.04,415.37L221.75,415.08L223.31,414.21L226.8,411.49L232.11,409.05L233.86,407.97L234.52,408.19L234.67,407.95L235.37,406.29L235.61,403.83L235.9,402.76L236.19,402.38L237.63,396.74L237.59,396.07L236.32,391.92L235.9,389.86L235.94,384.39L236.07,383.36L236.4,382.38L237.37,380.49L237.64,379.55L237.27,378.04L235.35,375.92L235.35,374.43L238.61,373.52L240.3,373.29L241.67,373.91L242.75,376.1L243.54,376.67L244.63,376.83L245.72,376.59L247.19,376.16L247.34,375.57L247.32,374.74L247.01,373.77L246.09,372.09L245.88,371.04L245.95,367.18L246.56,362.53L246.54,361.89L246.05,361.6L242.07,360.59L241.22,360.24L240.37,359.63L239.95,359.22L239.78,358.94L239.52,358L239.22,357.51L239.45,355.97L240.39,353.62L241.02,352.62L241.89,351.71L242.96,351.14L244.21,351.19L245.22,352.14L245.91,353.55L246.65,354.65L247.82,354.62L251.36,355.07L252.4,355.67L253.16,355.64L253.97,355.4L255.16,355.34L258.75,356.12L260.13,356.08L270.16,353.58L277.43,352.66L280.39,351.94L281.46,352.18L282.37,352.79L283.17,353.6L283.39,353.92L283.57,354.32L283.9,355.48L284.13,357.71L284.92,359.72L286.87,360.06L289.09,359.3L290.7,357.99L291.14,357.07L291.8,353.61L291.93,353.2L292.16,352.76L292.97,351.66L294.14,350.38L294.48,350.2L295.5,349.88L296.69,349.63L297.83,349.74L298.71,350.5L302.05,352.16L302.72,353.17L303.17,354.36L303.34,355.61L302.77,358.23L302.96,359.16L303.68,359.9L304.9,360.75L304.01,364.37L304,365.61L304.16,366.89L304.15,368.12L303.64,369.23L302.29,367.74L301.69,366.92L301.27,366.05L300.26,361.69L299.79,360.63L296.66,361.66L297.04,362.81L298.66,365.11L299.09,366.43L299.23,367.2L299.81,369.08L300.57,373.16L300.42,373.75L299.96,374.73L299.2,376.92L297.49,379.82L295.12,382.71L293.96,384.86L292.05,386.77L291.55,387.75L291.2,388.83L290.31,390.85L290.12,391.76L289.97,394.33L290.5,398.37L290.52,399.68L290.02,400.42L289.12,400.85L287.95,401.23L286.59,401.82L285.87,402.47L285.47,403.34L285.07,404.57L284.45,405.68L282.98,407.38L282.5,408.48L282,410.7L281.45,411.43L274.15,416.05L272.66,417.32L271.86,418.95L271.5,420.83L271.32,422.84L271.59,423.87L272.5,424.81L273.95,425.57L275.81,426.04L280.69,424.96L281.56,424.3L283.7,421.78L284.16,420.94L285.26,419.33L286.62,419.75L288.31,420.84L290.35,421.23L291.85,421.65L293.58,422.74L295.4,423.43L297.16,422.66L298.56,422.41L300.24,423.79L301.87,426.3L303.08,429.43L301.56,437.52L301.72,439.4L302.14,440L302.97,440.7L303.98,441.3L305.77,441.88L312.74,445.45L313.63,445.63L316.19,445.83L317.56,446.19L318.38,446.86L318.96,447.6L321.04,448.97L324.99,452.61L325.85,453.57L326.17,454.58L326.47,456.98L327.76,461.8L327.75,464.22L327.2,465.41L326.4,466.43L325.83,467.46L325.94,468.68L326.82,471L327.33,472.04L328.09,472.97L322.86,473.69L320.55,473.49L317.98,471.26L317.98,470.91L317.62,469.67L316.62,468.06L315.06,465.29L313.82,463.78L313.54,463.26L309.52,461.39L309.06,460.9L308.5,459.91L308.37,459.55L306.45,459.79L304.97,459.75L304.63,459.69L300.57,458.49L298.45,458.11L296.29,458.02L293.62,458.46L291.75,459.53L290.66,461.35L290.33,464.02L290.99,468.58L290.87,470.15L290.26,470.92L289.29,471.48L288.1,472.39L287.46,473.35L286.8,475.54L285.03,478.8L284.34,479.78L283.42,480.6L283.26,481L283.58,481.59L284.99,483.01L288.13,484.77L288.69,485.38L288.51,486.01L284.64,488.56L283.54,488.74L282.42,488.8L281.28,489.06L280.1,488.87L279.06,487.5L272.52,475.99L272.28,474.9L272.34,473.39L272.76,472.24L273.58,472.2L274.71,472.82L275.91,472.99L277.02,472.56L277.9,471.36L278.03,470.05L277.04,468.03L277.16,466.9L277.99,464.9L278.62,464.11L282.06,462.83L283.41,460.87L283.3,458.64L281.36,456.89L280.42,456.66L279.38,456.7L278.29,456.91L277.18,457.23L276.54,457.11L275.19,455.55L274.16,454.61L271.94,453.27L271.37,453.06L270.38,452.47L269.6,451.57L268.76,450.83L267.6,450.68L266.29,451.13L265.61,451.23L263.91,451.15L263.59,450.96L262.41,449.95L261.46,449.99L260.56,450.83L258.07,454.35L257.09,456.62L257.19,458.86L258.96,460.97L260.01,462.97L259.79,465.77L258.88,468.56L257.86,470.59L256.39,472.67L255.89,473.79L255.78,475.1L256.38,479.04L256.29,480.42L256.65,481.16L257.87,481.53L259.6,481.88L264.96,484.11L266.1,484.73L266.58,485.62L266.87,486.92L267.92,489.21L268.46,491.72L269.01,492.87L269.89,493.73L271.14,494.15L272.13,494.78L272.5,496.05L272.28,497.39L271.5,498.25L268.12,499.98L265.51,500.45L264.63,501.09L264.28,502.06L265.1,505.76L265.08,508.54L264.55,511.28L263.59,513.59L262.89,514.86L262.53,515.88L262.46,516.97L262.75,519.55L262.68,520.76L262.31,521.82L261.52,522.52L260.26,522.58L259.17,521.94L258.17,521.07L257.19,520.45L254.64,519.75L252.08,518.71L250.87,518.42L249.77,518.66L248.87,519.34L248.23,520.31L247.51,521.01L246.27,521.6L243.88,522.45L238.62,525.24L235.83,526.32L233.02,526.49L231.75,526.05L229.55,524.76L228.17,524.39L226.53,524.22L225.72,524.25L220.64,524.99L219.35,524.99L215.32,524.37L214.03,524.5L212.81,525.2L211.23,527.12L210.11,529.39L207.63,537.35L207.6,538.55L207.96,539.92L209.13,542.51L209.48,543.92L209.14,547.02L207.75,549.81L203.89,554.72L201.37,558.66L200.38,560.8L199.62,562.99L199.44,563.33L199.13,563.64L198.1,564.32L196.25,564.98L195.62,565.57L195.75,565.6L206.02,565.52L209.2,566.4L212.99,568.31L215.16,568.81L215.68,569.2L216.52,570.62L216.91,570.88L217.98,570.8L218.37,570.92L218.73,571.4L218.93,571.92L219.21,573.1L219.38,573.39L219.66,573.45L219.98,573.45L220.29,573.53L223.18,575.39L228.37,578.73L233.56,582.08L239.64,585.99L243.96,588.78L248.84,591.93L254.35,595.47L259.42,598.74L264.73,602.16L266.37,603.22L267.36,604.21L268.72,606.39L269.54,607.36L270.22,607.74L271.81,608.23L273.04,609.3L273.69,609.41L275.37,608.99L277.04,608.86L282.7,609.5L288.39,610.14L291.38,609.88L294.09,608.69L294.16,608.39L294.11,607.91L294.22,607.47L294.74,607.26L295.02,607.38L296.02,608.22L296.45,608.73L296.56,609.15L296.77,609.46L297.51,609.65L298.21,609.73L298.5,609.69L299.25,609.39L299.35,609.57L299.41,609.86L299.69,610.04L302.8,610.27L302.79,609.9L302.86,609.15L302.84,608.8L304.28,610.7L305.11,611.55L306.09,612.09L311.35,613.51L315.32,614.59L316.7,614.56L318.94,614.13L319.83,614.25L320.63,614.55L321.46,614.54L324.52,613.89L325.03,614.02L325.72,614.33L326.34,613.78L325.97,613.37L330.32,611L334.84,609.05L336.92,607.7L338.64,605.49L345.93,593.02L347.47,589.7L346.79,587.48L346.68,586.42L346.93,585.31L348.63,580.78L349.75,576.08L350.1,575.38L352.08,572.91L360.44,553.5L360.77,552.08L360.94,548.94L361.95,543.1L363.52,538.72L364.62,534.35L366.63,530.41L369.89,521.97L374.96,514.66L376.1,513.81L376.91,513.77L378.42,514.64L380.33,515.43L384.17,516.19L385.31,516.05L388.01,515.09L388.46,515.04L389.83,515.09L391.48,514.73L393.69,514.53L397.65,513.62L400.13,513.62L400.59,513.42L400.97,513.18L402.36,512.93L403.32,512.5L411.71,504.9L419.46,500.59L423.34,497.72L421.46,493.16L421.08,491.72L420.95,490.17L421.04,485.91L420.31,475.71L420.69,472.95L421.02,471.62L421.21,470.25L421.27,468.87L421.21,467.5L420.94,466.38L420.51,465.15L420.21,463.92L420.37,461.7L419.93,459.12L420.29,457.93L422.38,454.17L423.23,453.02L426.34,449.99L428.98,446.44L430.1,445.38L431.39,444.62L433.97,444.49L436.52,445.68L439.04,447.41L445.66,450.92L448.34,451.35L449.64,451.78L450.86,452.43L451.94,453.25L460.61,462.12L461.21,460.9L462.04,460.14L464.05,458.77L464.87,457.79L466.68,454.2L468.16,452.61L470.46,451.29L472.54,451.07L473.36,452.83L474.64,452.79L475.89,452.5L477.11,452.01L478.24,451.39L478.62,451.11L480,449.69L480.39,449.12L480.65,448.63L480.81,448.2L481.51,447.15L482.05,446.13L482.96,442.39L484.45,440.2L484.97,438.96L484.42,437.96L484.9,437.29L484.98,436.75L484.78,435.56L484.9,434.98L485.39,434.03L485.51,433.73L485.71,432.34L486.27,431.56L488.05,430.6L487.93,429.92L488.2,429.51L488.56,429.23L488.75,428.95L488.87,428.98L489.51,427.3L490.24,426.19L490.5,425.6L490.6,424.9L490.54,423.72L490.59,423.11L490.8,422.68L491.86,421.02L492.61,418.59L492.86,416.04L492.18,412.68L491.81,412.26L475.5,405.85L475,405.02L474.58,403.42L474.1,400.56L474.03,399.35L474.18,398.32L474.93,396.12L477.37,390.64L478.27,387.62L477.98,385.27L477.03,383.69L476.53,382.41L476.37,381.05L477.1,368.03L477.61,365.03L478.69,362.41L481.67,358.2L482.32,356.75L482.4,355.33L482.09,352.19L482.48,350.9L484.55,348.26L486.76,345.97L491.79,341.68L495.36,340.71L497.45,344.56L498.17,345.24L504.55,346.46L507.59,347.73L509.17,350L510.73,359.01L511.68,361.83L512.96,364.36L514.57,366.31L516.37,366.68L518.26,364.46L520.39,356.63L521.81,354.58L522.93,353.99L527.64,352.77L528.55,352.05L528.87,350.8L528.95,349.36L529.42,346.74L529.47,345.27L529.33,343.81L529.03,342.49L528.44,341.41L525.73,338.58L525.16,336.16L526.87,331.14L526.42,328.98L525.45,328.04L523.11,326.33L522.04,325.36L518.34,321.28L515.07,316.05L514.1,313.91L513.99,312.95L514.1,311.51L513.89,311.08L512.91,310.1L512.31,309.03L510.53,303.93L510.39,303.09L510.3,301.86L510.16,301.4L506.72,294.5L505,292.02L503.07,290.05L501.38,289.72L501.72,284.43L501.05,282.12L498.93,281.47L497.92,282.04L495.92,283.68L495.11,284.51L494.21,284.94L491.5,285.17L490.2,285.65L488.62,286.53L487.88,287.04L487.61,287.51L487.83,288.18L488.84,289.83L488.61,291.11L487.29,292.35L485.76,293.55L484.84,294.74L481.67,293.14L480.23,293.1L477.2,294.45L476.62,294.61L475.99,294.67L475.28,294.51L473.79,293.97L473.11,294.04L471.45,294.38L469.92,294.14L468.4,294.04L466.74,294.8L465.39,295.1L464.04,295L462.88,294.44L462.14,293.36L461.44,292.62L460.25,292.43L458.88,292.58L457.65,292.88L456.58,293.44L454.71,295.06L453.75,295.56L452.6,295.48L448.53,294.03L444.13,293.16L441.85,293.06L439.77,293.56L439.19,293.94L437.77,295.47L436.62,296.37L435.47,297.09L434.24,297.67L431.68,298.61L430.57,299.2L429.53,299.91L428.56,300.76L428.06,301.04L427.48,301.12L426.88,301.13L426.31,301.25L425.75,301.54L424.07,302.64L421.73,303.47L420.41,303.75L419.29,303.8L418.09,303.42L417.3,302.63L416.81,301.51L416.49,300.15L416.69,299.07L417.65,298.93L420.04,299.45L421.37,299.37L422.7,299L423.42,298.3L422.92,297.2L420.38,295.7L417.9,295.72L415.28,296.24L412.31,296.23L411.96,296.16L411.72,296.16L411.51,296.23L411.22,296.38L409.84,297.81L408.38,298.64L406.71,299.07L402.31,299.73L400.48,300.58L398.89,301.87L397.19,303.61L395.78,305.39L392.16,311.29L391.44,312.2L388.08,315.53L387.68,316.28L387.52,317.14L387.42,318.34L386.8,320.03L385.63,321.1L384.2,321.98L382.44,322.12L380.58,325.53L379.52,326.59L376.26,328.85L375.59,328.65L375.28,327.45L376.56,323.88L376.54,321.53L375.56,320.45L373.82,320.13L371.52,320.06L371.7,319.05L371.43,318.44L370.96,317.96L370.49,317.33L370.22,316.35L369.84,313.98L369.46,313.14L368.36,312.55L366.93,312.53L364.1,312.87L361.73,314.79L361.87,325.76L361.33,327.31L359.68,328.37L354.21,330.34L352.36,331.42L349.82,333.26L348.7,333.53L347.35,332.77L345.44,329.84L343.82,329.27L343.02,329.56L340.26,332.28L339.12,332.39L338.17,332.15L337.48,331.67L337.11,331.07L335.76,328.15L335.68,327.25L335.78,326.23L335.62,323.14L340.23,315.66L340.85,313.89L340.7,312.29L339.6,311.47L336.75,310.9L335.68,309.97L334.91,308.2L334.45,306.22L334.3,304.69L334.64,304.23L335.52,304.16L336.77,304.24L341.37,303.9L342.04,303.61L344.66,301.69L346.03,301.45L347.9,302.12L347.99,302.08L344.84,298.83L344.5,298.35L344.71,297.04L343.58,296.4L342.01,296.1L340.78,296.17L338.82,295.78L337.11,293.49L335.21,290.08L332.64,286.3L326.46,283.59L316.73,281.61L313.33,279.92L311.59,277.77L310.65,275.32L310.25,272.68L310.17,269.97L310.07,269.59L309.05,268.19L308.47,267.62L307.96,267.21L307.52,266.92L304.13,265.65L303.08,264.65L302.96,263.03L305.11,263.48zM182.98,302.06L182.95,302.06L182.31,301.02L181.06,296.75L181.62,294.68L181.92,293.87L182.58,293.1L183.63,292.4L184.59,292.18L185.53,292.42L187.29,293.72L187.56,294.16L187.55,294.8L187.14,295.23L185,296.17L184.45,297.22L184.62,298.4L185.81,300.91L184.03,300.57L183.36,300.89L183.14,302.03L182.98,302.06zM309.81,316.35L310.09,316.2L311.22,315.15L311.41,315.91L311.84,316.12L313.18,316.06L314.32,316.18L315.65,319.2L315.93,320.15L315.99,321.21L315.82,321.94L315.57,322.53L315.42,323.09L315.56,323.74L314.98,323.74L314.43,323.65L313.33,323.32L313.49,324.27L314.29,326.28L314.22,327.09L313.56,327.5L312.78,327.39L312.08,327.5L311.69,328.59L311.13,329.4L310.06,329.26L308.98,328.69L308.37,328.2L307.35,326.91L306.87,326.4L306.27,325.93L305.82,325.73L305.48,325.69L305.12,325.55L304.58,325.04L304.2,324.51L304.03,324.1L303.72,322.94L303.44,322.45L303.1,322.03L302.89,321.64L303,321.24L302.62,320.74L302.52,320.56L302.9,319.43L303.68,318.01L304.62,316.71L305.45,315.97L306.16,315.74L308.27,315.26L308.92,315.21L309.19,315.43L309.53,316.18L309.81,316.35zM173.25,322.2L172.85,323.22L172.58,324.83L172.5,326.49L172.64,327.64L173.42,327.96L173.91,328.67L173.9,329.39L173.15,329.75L173.77,330.7L174.01,331.25L174.13,331.86L173.14,331.73L172.67,331.56L172.3,331.3L171.97,330.75L171.97,330.31L172.06,329.91L171.97,329.46L171.44,328.79L170.11,327.74L169.62,326.95L168.29,328.34L167.53,328.8L166.37,328.83L166.2,328.71L165.87,328.23L165.62,328.1L165.39,328.1L164.81,328.23L164.55,328.26L163.55,328.24L163.24,328.34L163.13,328.62L162.55,328.41L162.06,328.11L161.69,327.68L161.45,327.11L161.62,326.9L161.68,326.81L161.73,326.68L161.77,326.03L161.51,324.7L161.54,324.06L161.87,323.38L162.79,322.31L163.11,321.77L163.2,320.96L163.19,319.98L163.27,319.08L163.65,318.52L164.47,318.47L166.72,319.06L167.64,319.21L168.25,318.94L168.94,319.04L169.69,319.29L170.51,319.49L170.68,319.64L170.82,319.74L171.02,319.82L170.52,320.39L170.22,320.63L170.22,320.89L170.63,321.53L171.24,322.14L171.93,322.43L172.63,322.44L173.25,322.2zM175.83,324.02L175.34,323.84L174.9,323.47L174.14,323.06L173.8,322.74L173.7,322.42L173.84,322.1L174.17,321.78L176.49,320.53L177.12,320.92L178.11,322.09L178.92,322.51L178.54,323.02L178.02,323.41L177.41,323.69L176.79,323.88L175.83,324.02zM494.43,299.6L495.24,300.78L495.25,301.25L495.05,302.64L495.03,303.22L494.92,303.85L494.29,305L494.16,305.68L494.49,306.68L495.05,307.64L495.36,308.61L494.92,309.65L494.01,310.19L493.19,309.93L491.69,308.6L490.98,308.43L490.26,308.69L489.52,309.03L488.79,309.12L488.36,308.89L487.56,308.12L487.09,307.86L486.06,307.91L484.96,308.14L484.15,307.97L484.01,306.79L484.29,305.17L484.82,303.72L486.43,300.97L487.61,299.66L488.5,299.73L489.46,300.36L490.86,300.73L492.04,300.33L493.29,299.71L494.43,299.6z" 
                fill="rgb(151, 144, 238)" 
                stroke="white" 
                stroke-width=".7px"
                title="Oromiya" 
                id="ET-AA" 
            />
        </svg>