<svg xmlns="http://www.w3.org/2000/svg" viewBox="64.9 349.63 263.18999999999994 215.94000000000005" width="263.18999999999994" height="215.94000000000005">
            <path 
                d="M303.64,369.23L304.15,368.12L304.16,366.89L304,365.61L304.01,364.37L304.9,360.75L303.68,359.9L302.96,359.16L302.77,358.23L303.34,355.61L303.17,354.36L302.72,353.17L302.05,352.16L298.71,350.5L297.83,349.74L296.69,349.63L295.5,349.88L294.48,350.2L294.14,350.38L292.97,351.66L292.16,352.76L291.93,353.2L291.8,353.61L291.14,357.07L290.7,357.99L289.09,359.3L286.87,360.06L284.92,359.72L284.13,357.71L283.9,355.48L283.57,354.32L283.39,353.92L283.17,353.6L282.37,352.79L281.46,352.18L280.39,351.94L277.43,352.66L270.16,353.58L260.13,356.08L258.75,356.12L255.16,355.34L253.97,355.4L253.16,355.64L252.4,355.67L251.36,355.07L247.82,354.62L246.65,354.65L245.91,353.55L245.22,352.14L244.21,351.19L242.96,351.14L241.89,351.71L241.02,352.62L240.39,353.62L239.45,355.97L239.22,357.51L239.52,358L239.78,358.94L239.95,359.22L240.37,359.63L241.22,360.24L242.07,360.59L246.05,361.6L246.54,361.89L246.56,362.53L245.95,367.18L245.88,371.04L246.09,372.09L247.01,373.77L247.32,374.74L247.34,375.57L247.19,376.16L245.72,376.59L244.63,376.83L243.54,376.67L242.75,376.1L241.67,373.91L240.3,373.29L238.61,373.52L235.35,374.43L235.35,375.92L237.27,378.04L237.64,379.55L237.37,380.49L236.4,382.38L236.07,383.36L235.94,384.39L235.9,389.86L236.32,391.92L237.59,396.07L237.63,396.74L236.19,402.38L235.9,402.76L235.61,403.83L235.37,406.29L234.67,407.95L234.52,408.19L233.86,407.97L232.11,409.05L226.8,411.49L223.31,414.21L221.75,415.08L220.04,415.37L215.8,415.1L211.95,415.81L209.99,415.96L207.56,415.69L205.12,415.05L202.81,414.05L193.66,407.94L192.63,407.94L188.47,406.15L187.28,405.78L186.26,405.62L183.95,405.65L183.47,405.61L181.51,405.02L180.8,404.67L179.84,404.03L179.42,403.9L178.21,403.71L174.99,402.52L172.67,401.32L170.7,399.8L168.64,398.54L164.49,397.93L163.55,397.33L163.18,396.3L163.31,394.86L163.57,393.4L163.5,392.58L162.28,390.66L161.04,388.01L160.38,387.26L159.59,386.76L157.8,385.95L154.52,383.92L153.53,382.93L153.48,381.94L155,380.01L155.65,378.99L156.03,377.79L156,376.5L154.54,371.45L154.12,370.61L153.42,370.08L152.23,369.78L150.99,369.65L149.73,369.7L148.61,370.07L147.8,370.9L146.6,372.79L146.57,373.78L147.52,374.83L149.34,376.09L150.17,376.88L150.54,377.69L150.16,378.62L149.22,379.72L148.14,380.7L147.31,381.27L146.92,381.41L145.2,381.7L144.14,382.09L143.44,382.44L141.37,383.79L140.22,384.29L139.05,384.33L137.62,383.72L137.06,382.85L136.77,381.78L136.17,380.56L133.88,380.49L132.75,380.83L131.89,380.76L131.1,380.79L130.19,381.41L129.92,381.65L128.63,382.5L128.02,382.64L127.07,382.62L126.77,382.76L126.17,383.91L126.12,385.07L125.91,386.1L123.72,387.51L122.34,389.41L121.44,390.14L120.68,391.64L120.79,394.24L121.8,399.01L122.31,400.02L121.77,401.59L122.28,402.29L125.96,404.26L126.85,405.12L127.24,406.22L127.11,407.36L126.06,411.05L125.97,411.77L126.01,412.51L125.94,413.23L125.32,414.63L125.2,415.38L125.18,415.93L124.98,417.04L124.95,417.61L125.08,418.15L125.6,419.18L125.74,419.61L125.33,420.88L124.08,421.05L120.99,420.44L119.71,420.69L117.46,421.73L116.13,421.8L114.89,421.46L113.48,420.86L112.17,420.07L111.22,419.18L110.47,420.09L109.31,420.78L108.05,421.05L107.01,420.69L106.33,421.98L104.93,422.39L101.71,422.24L99.81,422.33L98.17,422.65L96.65,423.33L95.14,424.47L93.82,425.67L92.71,426.49L91.47,427.01L89.76,427.32L88.03,427.35L86.37,427.04L84.82,426.34L83.43,425.21L81.81,424.15L79.82,423.67L77.72,423.69L75.76,424.1L73.18,425.16L71.82,425.5L70.44,425.37L69.22,424.49L67.66,423.14L66.09,422.25L64.9,422.75L64.9,423.33L65.04,424.54L65.45,425.07L65.86,425.21L66.19,425.52L66.72,426.21L68.9,427.81L69.16,428.14L69.43,429.07L69.8,429.32L70.16,429.49L70.33,429.68L77.87,431.49L81.31,433.9L81.77,434.61L82.13,435.42L82.36,436.36L82.43,437.41L82.32,437.56L81.82,437.91L81.71,437.96L81.76,438.29L82,438.84L82.07,439.06L82.43,441.26L83.05,441.79L83.99,441.99L86.27,441.99L87.43,442.14L88.34,442.5L91.96,444.91L92.29,445.49L92.54,446.48L93.19,447.21L93.56,447.44L94.09,449.63L94.64,451.8L95.83,454.86L96.26,457.95L96.71,459.03L98.84,462.68L99.18,464.07L99.22,467.23L99.48,468.3L101.36,471.57L102.37,474.2L103.26,475.21L104.26,476.14L105.17,477.28L105.6,478.32L106.05,481.19L106.15,481.81L105.59,482.94L105.4,483.55L105.38,484.17L105.65,484.75L106.52,485.7L106.69,486.3L106.57,487.06L106.4,487.67L106.3,488.26L106.4,488.96L106.92,490.14L111.24,496.28L112,497.71L112.46,500.82L113.02,501.85L115.39,503.61L119.66,506.1L121.72,507.77L122.11,508.84L122.34,509.48L122.02,510.09L121.56,510.65L121.18,511.22L121.12,511.88L121.33,512.37L123.08,515.14L123.87,516.04L124.85,516.5L126.14,516.31L127.34,515.47L129.51,513.09L130.68,512.3L131.64,512.11L132.76,512.11L133.88,512.26L134.83,512.5L136.04,513.22L138.34,515.08L139.63,515.43L140.9,515.16L141.85,514.72L142.84,514.48L144.19,514.85L147.69,517.01L150.61,518.15L150.87,518.62L149.43,520.72L149.07,521.97L149.24,523.01L150.29,525.03L150.77,526.32L150.78,527.42L150.34,528.49L148.31,531.08L148.04,531.77L147.81,542.95L148.26,545.55L149.56,547.77L156.82,555.52L156.93,556.44L157.63,557.7L157.69,558.73L157.53,559.8L157.51,560.71L157.87,561.46L158.82,562.06L160.89,563.87L162.02,564.61L163.25,564.9L163.46,564.9L171.24,564.84L173.07,564.59L173.63,564.59L174.16,564.73L175.13,565.2L175.81,565.29L185.72,565.09L194.05,564.92L194.52,565.02L195.3,565.5L195.62,565.57L196.25,564.98L198.1,564.32L199.13,563.64L199.44,563.33L199.62,562.99L200.38,560.8L201.37,558.66L203.89,554.72L207.75,549.81L209.14,547.02L209.48,543.92L209.13,542.51L207.96,539.92L207.6,538.55L207.63,537.35L210.11,529.39L211.23,527.12L212.81,525.2L214.03,524.5L215.32,524.37L219.35,524.99L220.64,524.99L225.72,524.25L226.53,524.22L228.17,524.39L229.55,524.76L231.75,526.05L233.02,526.49L235.83,526.32L238.62,525.24L243.88,522.45L246.27,521.6L247.51,521.01L248.23,520.31L248.87,519.34L249.77,518.66L250.87,518.42L252.08,518.71L254.64,519.75L257.19,520.45L258.17,521.07L259.17,521.94L260.26,522.58L261.52,522.52L262.31,521.82L262.68,520.76L262.75,519.55L262.46,516.97L262.53,515.88L262.89,514.86L263.59,513.59L264.55,511.28L265.08,508.54L265.1,505.76L264.28,502.06L264.63,501.09L265.51,500.45L268.12,499.98L271.5,498.25L272.28,497.39L272.5,496.05L272.13,494.78L271.14,494.15L269.89,493.73L269.01,492.87L268.46,491.72L267.92,489.21L266.87,486.92L266.58,485.62L266.1,484.73L264.96,484.11L259.6,481.88L257.87,481.53L256.65,481.16L256.29,480.42L256.38,479.04L255.78,475.1L255.89,473.79L256.39,472.67L257.86,470.59L258.88,468.56L259.79,465.77L260.01,462.97L258.96,460.97L257.19,458.86L257.09,456.62L258.07,454.35L260.56,450.83L261.46,449.99L262.41,449.95L263.59,450.96L263.91,451.15L265.61,451.23L266.29,451.13L267.6,450.68L268.76,450.83L269.6,451.57L270.38,452.47L271.37,453.06L271.94,453.27L274.16,454.61L275.19,455.55L276.54,457.11L277.18,457.23L278.29,456.91L279.38,456.7L280.42,456.66L281.36,456.89L283.3,458.64L283.41,460.87L282.06,462.83L278.62,464.11L277.99,464.9L277.16,466.9L277.04,468.03L278.03,470.05L277.9,471.36L277.02,472.56L275.91,472.99L274.71,472.82L273.58,472.2L272.76,472.24L272.34,473.39L272.28,474.9L272.52,475.99L279.06,487.5L280.1,488.87L281.28,489.06L282.42,488.8L283.54,488.74L284.64,488.56L288.51,486.01L288.69,485.38L288.13,484.77L284.99,483.01L283.58,481.59L283.26,481L283.42,480.6L284.34,479.78L285.03,478.8L286.8,475.54L287.46,473.35L288.1,472.39L289.29,471.48L290.26,470.92L290.87,470.15L290.99,468.58L290.33,464.02L290.66,461.35L291.75,459.53L293.62,458.46L296.29,458.02L298.45,458.11L300.57,458.49L304.63,459.69L304.97,459.75L306.45,459.79L308.37,459.55L308.5,459.91L309.06,460.9L309.52,461.39L313.54,463.26L313.82,463.78L315.06,465.29L316.62,468.06L317.62,469.67L317.98,470.91L317.98,471.26L320.55,473.49L322.86,473.69L328.09,472.97L327.33,472.04L326.82,471L325.94,468.68L325.83,467.46L326.4,466.43L327.2,465.41L327.75,464.22L327.76,461.8L326.47,456.98L326.17,454.58L325.85,453.57L324.99,452.61L321.04,448.97L318.96,447.6L318.38,446.86L317.56,446.19L316.19,445.83L313.63,445.63L312.74,445.45L305.77,441.88L303.98,441.3L302.97,440.7L302.14,440L301.72,439.4L301.56,437.52L303.08,429.43L301.87,426.3L300.24,423.79L298.56,422.41L297.16,422.66L295.4,423.43L293.58,422.74L291.85,421.65L290.35,421.23L288.31,420.84L286.62,419.75L285.26,419.33L284.16,420.94L283.7,421.78L281.56,424.3L280.69,424.96L275.81,426.04L273.95,425.57L272.5,424.81L271.59,423.87L271.32,422.84L271.5,420.83L271.86,418.95L272.66,417.32L274.15,416.05L281.45,411.43L282,410.7L282.5,408.48L282.98,407.38L284.45,405.68L285.07,404.57L285.47,403.34L285.87,402.47L286.59,401.82L287.95,401.23L289.12,400.85L290.02,400.42L290.52,399.68L290.5,398.37L289.97,394.33L290.12,391.76L290.31,390.85L291.2,388.83L291.55,387.75L292.05,386.77L293.96,384.86L295.12,382.71L297.49,379.82L299.2,376.92L299.96,374.73L300.42,373.75L300.57,373.16L299.81,369.08L299.23,367.2L299.09,366.43L298.66,365.11L297.04,362.81L296.66,361.66L299.79,360.63L300.26,361.69L301.27,366.05L301.69,366.92L302.29,367.74L303.64,369.23z" 
                fill="rgb(151, 144, 238)" 
                stroke="white" 
                stroke-width=".7px"
                title="Southern Nations, Nationalities and Peoples" 
                id="ET-SN" 
            />
        </svg>