<svg xmlns="http://www.w3.org/2000/svg" viewBox="184.07 0 190.11 144.09" width="190.11" height="144.09">
            <path 
                d="M261.83,0L259.65,5.27L256.19,13.63L252.76,21.91L249.42,29.98L246.36,37.36L244.43,41.99L243.83,42.6L242.87,41.98L242.32,41.32L242.07,40.41L242.01,39L241.85,38.48L241.44,38.06L240.89,37.79L240.34,37.69L239.66,37.43L239.34,36.81L239.07,35.44L238.68,34.41L238.45,34.08L236.29,32.26L235.52,31.81L235.37,31.23L235.4,29.98L235.32,29.16L235.12,28.71L234.31,27.89L232.29,24.96L231.28,24.37L229.98,23.25L229.25,23.36L228.09,23.76L224.14,23.68L222.31,24.1L220.78,25.26L219.97,26.45L219.54,27.54L219.36,28.66L219.33,29.98L219.18,31.13L218.78,32.03L218.2,32.72L217.54,33.18L217.12,33.27L216.15,33.15L215.72,33.18L214.94,33.83L214.63,33.94L214.08,33.88L213.62,33.73L213.2,33.5L212.78,33.18L211.81,31.86L211.5,31.65L209.73,31.41L206.26,30.38L204.54,30.15L200.9,30.15L200.39,30.27L199.52,30.81L199.07,30.93L196.67,30.93L195.6,31.11L193.95,31.89L193.22,32.06L192.08,32.09L191.18,32.3L190.51,32.86L190.12,33.94L189.09,33.92L184.31,48.88L184.07,50.05L184.09,51.44L184.38,52.79L185.31,55.53L185.46,58.27L184.49,60.68L185.22,61.23L189,69.54L189.74,70.39L190.62,70.4L197.64,72.23L198.67,72.65L204.55,78.17L207.52,79.95L208.8,81.49L209.79,81.89L216.03,82.76L217.16,82.79L217.88,82.31L218.5,81.66L221.39,80.08L221.79,79.95L222.93,79.71L224.62,79.56L225.96,79.84L227.53,80.52L228.94,81.46L229.81,82.52L230.26,82.95L231.04,83.1L240.25,83.4L241.82,83.09L249.19,79.57L250.04,78.89L250.81,78.03L251.32,77.02L252.62,73.19L253.88,72.23L255.95,72.24L261.84,73.66L268.95,77.22L270.73,77.53L271.41,77.3L272.5,76.73L273.54,76.02L274.04,75.36L274.89,74.46L276.82,74.59L279.5,75.04L282.59,75.13L287.86,74.41L288.95,73.89L289.77,73.01L290.29,72.1L290.83,71.33L291.73,70.89L292.33,71.05L292.87,71.65L293.27,72.6L293.47,73.79L291.86,77.59L292.16,77.83L296.64,76.64L297.9,76.16L298.73,75.97L299.8,75.89L303.59,76.28L303.7,76.67L304.43,78.32L304.81,80.67L305.18,81.65L306.05,82.06L307.37,82.68L319.28,94.53L320.67,96.24L320.97,97.98L320.91,99L321.02,100.32L321.29,101.57L321.67,102.38L322.36,102.82L323.31,103.01L326.02,102.98L331.85,101.91L332.85,102.33L333.32,103.39L333.52,105.09L333.92,106.85L334.56,108.82L335.05,111.21L334.95,114.25L331.04,121.45L330.74,123.28L331.14,125.2L333.31,130.71L333.87,136.72L334.11,137.93L334.66,139.41L335.43,140.74L336.35,141.52L336.83,141.63L340.76,141.47L340.83,141.27L341.01,140.05L342.64,139.66L349.34,139.91L349.82,140.76L349.98,141.92L349.87,143.07L349.56,143.92L349.63,144.09L354.44,141.22L355.01,141.07L358.83,140.83L360.68,140.55L362.45,140.06L363.39,139.23L363.83,138.13L363.96,136.88L363.98,135.62L363.83,134.49L363.06,132.81L362.9,131.9L363.13,129.17L363.76,126.9L364.9,124.88L366.71,122.9L367.55,121.33L368.18,118.83L368.42,116.26L368.07,114.46L366.74,112.3L365.88,111.46L364.78,111.12L363.6,110.98L362.82,110.59L361.2,109.24L361.1,108.98L361.48,108.09L361.65,107.47L361.63,106.28L361.88,104.74L361.92,103.66L361.68,101.09L362.37,100.98L363.06,100.29L363.64,99.33L363.94,98.4L363.87,98.07L363.24,97.34L362.92,96.78L362.09,92.59L361.77,91.98L361.6,91.84L361.08,91.59L360.76,91.37L359.96,90.49L359.81,90.26L359.43,89.37L359.32,88.67L360.41,83.13L360.55,81.81L360.4,80.42L359.52,78.2L359.48,76.84L360.75,72.62L361.19,71.91L363.21,72.87L364.75,71.9L365.02,69.54L364.53,66.86L363.82,64.9L363.4,62.93L363.63,60.54L364.64,55.42L364.57,52.23L364.53,51.9L364.42,51.53L364.22,51.09L363.44,50.47L363.11,49.84L363.11,49.06L363.34,47.05L363.3,46.1L363.11,44.99L362.72,43.99L362.07,43.4L361.45,43.54L360.62,43.88L359.86,43.84L359.46,42.83L359.71,42.37L361.47,40.41L360.68,39.93L359.76,39.71L358.86,39.65L358.08,39.68L357.69,39.33L357.92,38.34L359.27,35.49L361.69,32.89L361.84,32.16L361.02,31.4L357.77,31.69L356.53,31.03L356.5,30.56L356.9,30.05L358.35,28.85L360.05,27.86L363.76,27.14L364.64,27.23L366.79,27.86L370.82,28.33L372.24,28.15L372.41,28.07L372.58,27.93L372.95,27.45L373.29,26.71L373.33,26.53L373.42,25.12L373.37,24.38L373.25,23.92L373.76,23.56L374.18,23.37L373.11,23.18L372.13,23.43L370.49,24.83L369.45,25.12L368.44,24.95L367.63,24.56L364.83,22.11L363.36,21.18L361.76,20.64L360.07,20.7L359.42,20.81L357.01,21.22L355.58,21.09L352.84,20.27L352.54,20.11L352.21,19.79L351.13,18.47L350.32,17.79L349.26,17.19L348.34,17.17L347.92,18.27L346.98,19.56L344.8,20.63L340.43,21.85L339.42,21.91L336.54,21.44L335.21,21.65L334.49,22.31L333.32,24.18L331.99,24.2L330.89,22.16L329.34,17.6L328.61,16.42L327.69,15.28L326.62,14.29L325.45,13.56L324.92,13.34L323.4,12.99L321.5,12.77L321.42,12.58L320.73,13.26L320.65,14.18L320.73,15.2L320.57,16.22L319.82,17.21L318.72,17.9L316.51,18.94L314.75,20.56L313.76,21.26L311.39,21.49L308.21,22.81L307.2,23.05L306.21,23.14L305.24,23.04L304.27,22.72L303.23,22.68L299.93,24.4L297.95,24.93L293.88,25.4L291.26,25.38L290.8,25.51L290.36,25.46L289.7,24.96L289.41,24.47L289.05,23.28L288.62,22.87L285.76,21.31L284.93,20.65L284.31,19.84L283.88,18.87L283.37,16.79L283.03,16.08L282.47,15.65L281.85,15.3L281.34,14.83L281.08,14.29L280.82,12.77L280.71,12.51L280.38,11.68L279.83,11.01L279.01,10.67L277.75,10.59L274.72,11.12L273.75,10.94L267.97,8.55L267.53,8.19L267.23,7.65L267.19,7.17L267.07,6.74L266.55,6.34L265.95,6.24L265.72,5.97L265.6,5.6L265.4,5.21L265.37,5.03L265.38,4.45L265.35,4.23L265.17,4.04L264.65,3.98L264.42,3.78L263.4,1.76L262.76,0.82L261.83,0z" 
                fill="rgb(151, 144, 238)" 
                stroke="white" 
                stroke-width=".7px"
                title="Tigray" 
                id="ET-TI" 
            />
        </svg>