<svg xmlns="http://www.w3.org/2000/svg" viewBox="556.0917000000001 1053.1579 68.02999999999986 24.529999999999745" width="68.02999999999986" height="24.529999999999745">
            <path 
                d="m 600.5117,1059.6079 0.6,-2.2 1.39,-0.36 -0.22,-0.63 0.91,-2.04 0.7,-0.06 0.88,1.29 0.5,-1 2.47,-1.39 1.51,-0.06 1.77,0.27 -0.39,2.95 1.31,2.3 3.38,0.79 1.65,2.18 0.93,0.31 1.12,-0.7 -0.65,-0.5 1.07,-0.71 3.88,1.31 0.31,-0.59 0.46,0.62 0,0 0.03,0.02 0,0 -1.35,2.76 0.13,1.32 0,0 -0.01,0.01 0,0 -2.06,1.91 0,1.41 -1.16,2.79 0.45,0.61 -2.47,-0.37 -4.79,2.08 -2.72,3.47 -1.85,-0.97 0,0 -0.61,0 -0.88,-1.13 -3.12,0.03 -2.89,-1.35 -3.06,0.61 -1.75,-0.28 -1.23,0.95 -7.32,0.52 -1.93,-0.13 -1.32,-1.35 -2.18,-0.7 -1.2,0.36 -0.99,-0.6 -1.13,0.49 -2.51,-0.58 -2.16,0.6 -4.16,-0.48 -0.8,1.52 -0.99,0.18 -0.05,0.68 0.96,1.17 -1.33,0.39 -2.97,0.36 -1.15,-1.04 -1.27,0.16 -0.96,-0.97 0,0 -0.57,-1.1 0,0 -3.52,-4.65 -0.05,-1.03 1.5,-1.94 0.06,-0.98 -2.62,-3.68 0.56,-3.21 0,0 0.09,0 0,0 1.23,-0.94 0.66,0.19 0.68,-0.89 4.15,0.99 1.66,-0.28 0.92,-0.99 0.83,0.12 -0.09,-0.84 1.07,0.21 1.31,-0.92 0.24,0.99 1.13,-1.16 0.57,0.7 9.88,2.16 5.92,4.77 4.36,1.06 4.19,0.23 2.03,-0.4 3.39,-2.3 -0.14,-2.1 0,0 z" 
                fill="rgb(151, 144, 238)" 
                stroke="white" 
                stroke-width=".7px"
                title="Berkshire" 
                id="GB-BK" 
            />
        </svg>