<svg xmlns="http://www.w3.org/2000/svg" viewBox="488.00194999999997 1056.4469000000004 11.939419999999927 14.38119999999958" width="11.939419999999927" height="14.38119999999958">
            <path 
                d="m 489.78906,1056.4473 -0.66797,1.0312 -1.11914,3.0195 2.03907,1.959 1.4414,-0.6093 0.66992,1.3007 1.07032,0.7188 0.51953,1.7812 -0.90039,0.8399 0.66992,0.3105 -0.48047,1.4297 0.51953,0.7188 -0.41992,0.9101 0.19922,0.3047 0.12109,0.1856 0.32617,-0.1094 0.35352,-0.1211 1.24805,0.5215 0.45312,0.1894 1.36914,-0.2109 0.44922,-0.8965 0.17188,-0.3437 0.33789,0.1347 0.41796,-0.7832 0.16993,-0.3398 0.22656,-0.4551 0.22851,-0.3418 -0.22851,-0.7383 0,-0.4551 -0.2832,-0.3984 -0.39844,-0.1133 0.68164,-0.1699 0.3418,-0.2266 0.16992,-0.3984 0.22851,-0.4551 0.16993,-0.2851 0,-0.4532 0.0566,-0.3418 -0.11329,-0.5117 -0.16992,-0.6816 0.0566,-0.2852 0.11328,-0.3965 -0.51171,-0.1132 -0.3418,0 -0.33984,-0.3985 -0.51172,0 -0.51172,0.2266 -0.73828,-0.2266 -0.62696,-0.2285 -0.50976,-0.1133 -0.45508,-0.3965 0.16992,-0.9668 0.11328,-0.3418 -0.9082,0.4551 -1.02344,0 -1.13672,-0.057 -0.56836,-0.3985 -0.625,-0.455 -0.56835,-0.625 0,-0.7383 -0.39844,-0.625 -0.54688,-0.2324 z" 
                fill="rgb(151, 144, 238)" 
                stroke="white" 
                stroke-width=".7px"
                title="Bristol" 
                id="GB-BST" 
            />
        </svg>