<svg xmlns="http://www.w3.org/2000/svg" viewBox="583.5317000000006 989.90789 45.37999999999954 72.05001000000038" width="45.37999999999954" height="72.05001000000038">
            <path 
                d="m 616.8317,989.90789 0.22,4.95 1.77,1.4 0.24,0.94 -2.74,5.07001 0.12,3.06 2.17,2.1 -0.67,0.52 0.48,0.77 -1.15,1.14 0.49,1.99 -3.94,1.94 -1.4,2.01 0.28,3.66 0.91,1.46 3.9,0.08 1.44,0.79 0.94,-0.31 0.7,1.01 1.1,0.41 -0.18,1.72 -2.16,2.08 -0.26,1.45 0,0 -0.01,-0.01 0,0 -0.11,0.79 1,0.86 -0.19,1.18 -1.2,0.83 -0.02,0.93 0.49,0.94 1.68,0.54 0.53,0.88 0.75,-0.07 0.83,1.63 0.87,-0.13 0.48,1.3 2.18,2.16 1.57,5.77 0,0 -0.11,1.54 0,0 -0.41,0.2 0.05,3.71 1.44,3.33 -1.19,2.08 0.78,3.22 -0.43,1.19 -3.92,0.4 0,0 -0.06,-0.03 0,0 -0.46,-0.62 -0.31,0.59 -3.88,-1.31 -1.07,0.71 0.65,0.5 -1.12,0.7 -0.93,-0.31 -1.65,-2.18 -3.38,-0.79 -1.31,-2.3 0.39,-2.95 -1.77,-0.27 -1.51,0.06 -2.47,1.39 -0.5,1 -0.88,-1.29 -0.7,0.06 -0.91,2.04 0.22,0.63 -1.39,0.36 -0.6,2.2 0,0 -0.36,-0.36 0,0 -3.31,-3.33 -1.67,-7.35 0.19,-1.94 2.57,-2.41 0.48,-4.59 -3.18,-1.81 -7.09,-0.69 -3.69,-2.41 -0.3,-3.89 0.44,-1.01 2.38,-1.5 0.35,-0.76 -0.61,-5.68 -0.58,-1.36 -0.12,-4.42 0.37,-2.54 0.95,-1.1 -0.16,-0.68 -2.17,-0.21 0,0 0,-0.01 0,0 -1.47,-1.4 0.52,-0.76 1.03,-0.92 3.49,-0.22 2.06,-1.42 2.24,-2.44 0.08,-0.97 1.38,-0.17 -0.99,-0.97 2.8,0.11 2.86,2.17 2.22,-0.39 0.43,-0.67 -0.3,-2.31 0.61,-0.93 4.9,-2.73001 2.26,-2.52 0.51,-2.13 1.12,-0.53 0.22,0.78 3.8,-3.06 2.05,-0.17 0,0 z" 
                fill="rgb(151, 144, 238)" 
                stroke="white" 
                stroke-width=".7px"
                title="Buckinghamshire" 
                id="GB-BU" 
            />
        </svg>