<svg xmlns="http://www.w3.org/2000/svg" viewBox="627.5917 938.5378900000001 56.750000000000114 71.37000999999987" width="56.750000000000114" height="71.37000999999987">
            <path 
                d="m 668.6417,938.61789 0.19,1.39 -1.25,4.95 0.28,2.19 3.32,0.89 0.26,2.02 1.02,0.34 0.16,0.87 -0.8,0.56 0.73,0.51 -0.79,0.62 0.03,0.69 0.6,-0.12 -0.68,0.38 0.58,0.75 -0.46,0.44 1.56,0.62 -0.47,0.67 -1.07,0.18 1.17,0.68 0.07,2.87 1.12,0.95 7.41,1.15 1.57,1.09 0,0 0.41,1.27 0,0 -3.86,2.51 -0.29,1.93 1.44,4.85 0.77,5.52 -0.72,1.52 0.29,0.37 -0.69,0.87 -4.37,0.14 -1.27,0.64 -0.39,1.47 0.2,1.03 4.3,0.82 3.48,1.71 1.21,1.41 0.24,3.08 -0.97,1.67 -0.94,4.52 2.12,2.77001 0.19,1.74 0,0 -0.44,0.35 0.32,1.12 -0.68,3.27 -1.84,0.73 -1.81,-3.69 -1.42,-1.63 -2.37,-0.42 -2.28,0.05 -1.61,0.74 -2.71,3.32 -2.27,0.28 -1.05,0.76 0,0 -0.43,1.88 0,0 -2.58,-0.67 -0.57,-1.09 -2.42,-0.4 -4.09,0.22 -2.42,1.53 -4.75,-1.16 0,0 0.31,-0.67 0,0 0.04,-1.45 0.58,-1.18 0.82,0.55 0.91,-3.28 -1.01,-3.77001 -0.83,-0.57 -3.08,0.21 -1.44,-0.54 -0.87,-2.84 -1.97,-3.29 -2.93,-2.2 -0.24,-0.86 -1.42,-1.15 -2.45,-1.35 -0.11,-1.14 -3.73,-3.46 -0.7,-3.78 0,0 -0.03,-0.03 0,0 -1.15,-0.74 -0.11,-1.26 1.1,-0.48 0.38,-1.79 1.24,-1.43 3.72,-1.8 0.63,-1.02 0.17,-6.5 0.65,-0.52 -1.12,-2.36 0.32,-1.72 -3.73,-1.97 0.74,-1.09 -0.03,-1.27 -3.44,-0.52 -1.71,-0.82 0.14,-1.77 -0.98,-0.85 1.68,-3.21 0,0 -0.01,-0.02 0,0 4.03,0.43 4.49,-0.47 0.95,-0.9 1.61,-0.42 0.68,0.59 7.77,2.03 1.51,-0.54 1.29,-1.23 4.6,0.12 5.32,-1.11 2.01,-1.9 0.31,-2.87 1.04,-0.09 1.65,-1.33 2.12,-0.17 0,0 z" 
                fill="rgb(151, 144, 238)" 
                stroke="white" 
                stroke-width=".7px"
                title="Cambridgeshire" 
                id="GB-CM" 
            />
        </svg>