<svg xmlns="http://www.w3.org/2000/svg" viewBox="457.1617 856.3378899999998 79.20999999999992 55.929999999999495" width="79.20999999999992" height="55.929999999999495">
            <path 
                d="m 488.0317,864.95789 0.24,0.9 0,0 1.39,0.55 0.91,-0.24 0.59,-3.01 -0.35,-0.61 0.56,-0.72 0,0 -0.74,-0.43 0,0 0.41,-0.86 -0.84,0.23 0.31,-1.46 2.39,0.89 0.72,1.05 1.04,-0.84 0.94,-0.03 -0.16,-0.82 0.86,1.12 0.92,-1.97 1.34,-0.32 -0.22,-0.66 3.54,-1.39 0,0 0.45,0.53 -0.19,1.16 0,0 1.15,2.7 0.77,0.31 0.8,1.41 -0.3,1.03 1.28,0.38 1.68,-0.1 0.11,-0.48 2.29,0.05 1.58,-2.49 1.26,0.59 1.42,-0.59 0.07,0.51 0,0 1.01,0.89 0,0 1.28,0.94 0.71,-0.66 -0.11,1.35 0.48,0.29 0.4,-0.52 0.01,1.15 1.23,-0.2 0.46,-0.46 -0.05,-1.26 1.28,-0.91 0.28,-0.97 0.75,0.4 0.13,-0.52 0.49,0.04 -0.63,1.11 0.43,1.32 1.8,-0.96 -0.48,-0.66 0.28,-0.83 1.36,0.01 -0.01,-0.36 1.27,0.89 0.89,-0.48 0.6,1.17 1.48,-0.59 1.05,0.48 0.8,-0.29 0.17,0.99 1.62,0.55 0,0 0.2,0.01 0,0 1.79,0.96 -0.39,1.76 -1.77,2.16 1.57,3.14 0.68,3.81 -0.29,2.06 1.35,7.48 0,0 0,0 0,0 -0.38,1.46 -1.86,1.47 -5.75,3.02 -3.12,0.49 -4.76,5.96 -4.27,3.61 -3.49,1.77 -3.73,3.53 0.13,1.01 -1.14,0.3 0,0 -0.03,-0.01 0,0 -0.5,-0.04 -0.21,0.81 -1.73,0.25 0.23,1.67 -2.92,1.12 -0.67,-0.93 -0.95,0.29 -0.92,-0.97 -0.5,2.82 -2,-1.85 -1.58,1 -0.71,-0.8 0.17,-1.73 -0.68,0.02 -0.12,-0.93 -0.9,0.17 -0.67,-1.04 -2.64,1.15 -1.55,-1.02 -1.74,1.27 0,0 -0.5,-0.19 0,0 -1.61,-0.19 0,0 -0.25,-0.69 -0.65,-0.1 0,0 -1.18,0.22 0,0 -0.66,0.17 0,0 -1.98,-0.66 -0.67,-2.27 -0.71,-0.05 0.04,-1.91 -0.83,-0.78 0.67,-0.9 -0.14,-0.75 -1.05,-0.95 0.13,-1.24 -1.62,-1.04 1.31,-3.11 -1.44,1.01 -0.84,-0.33 -2.92,-1.85 -0.99,-1.86 -0.79,-0.28 0.14,-0.45 3.91,-1.48 0.46,-1.18 -0.53,-1.16 -1.3,-1.81 -5.44,-4.24 0,0 -1.44,-0.09 0,0 0,0 0,0 -0.16,-0.64 -1.5,-0.58 -0.31,-0.89 0.88,-0.51 0,-0.6 -2.03,-2.36 -0.94,-2.67 -4.34,-3.32 -0.93,-1.59 -0.01,-0.79 2.38,-1.14 1.76,-2.03 3.98,-1.16 1.64,-1.99 1.35,-0.09 0.69,0.91 3.14,10.56 1.93,2.56 3.01,1.66 1.69,-0.12 2.08,-1.02 2.19,0.17 0.71,0.59 1.17,-1.91 -0.11,-0.99 -3.5,-0.16 -0.41,-0.83 0,0 0.74,-0.21 0.61,-1.6 1.38,-0.14 0.66,-2.6 1.2,0.03 0.8,-2.27 0,0 z" 
                fill="rgb(151, 144, 238)" 
                stroke="white" 
                stroke-width=".7px"
                title="Cheshire" 
                id="GB-CH" 
            />
        </svg>