<svg xmlns="http://www.w3.org/2000/svg" viewBox="299.5817000000003 1117.4678999999999 97.41999999999996 96.16000000000099" width="97.41999999999996" height="96.16000000000099">
            <path 
                d="m 372.7717,1117.6779 4.77,-0.21 1,0.32 -0.31,1.46 2.61,4.67 -0.8,0.07 -0.78,5.58 -2.98,1.63 1.28,0.79 1.37,-0.07 1.83,2.11 0.83,0.18 -0.33,-1.18 0.73,-0.2 0.67,-0.09 0.75,0.77 -0.46,1.18 0.43,0.13 -0.26,0.85 1.47,2.86 -0.33,2.08 1.15,0.88 1.16,4.84 1.9,0.67 -0.5,5.38 0.66,-0.49 0.77,0.88 -0.03,-0.95 0.91,0.21 -0.5,1.32 1.27,2.32 -0.73,0.93 1.37,-0.76 1.12,1.29 1.42,-0.28 0.38,3.01 1.07,-0.51 0.35,0.55 -1.31,1.04 -1.21,-0.59 0.03,2.36 -1.15,1.42 0.56,0.4 0.55,-1.2 0.6,0.63 0.85,3.17 -0.37,1.86 0,0 -0.51,1.11 -0.35,0.5 0.97,0.59 0.22,1.96 0.72,1.06 0.76,-0.33 0.61,1.14 -2.23,1.61 0.8,1.52 -1.41,-0.08 -0.77,0.7 -0.35,-0.75 0.38,-0.73 -0.61,-0.75 -3.13,-2.02 -2.2,-0.69 -7.1,0.05 -1.36,0.92 0.13,0.91 -1.46,0.38 -0.13,0.65 -1.48,-0.48 -0.32,0.64 -2.16,0.62 -2.63,-0.81 -1.23,0.85 -0.52,-0.5 -1.67,0.41 -0.33,-0.55 -0.83,0.6 -0.93,0.12 -0.38,0.92 -0.81,-0.59 0.19,-1.83 -1.17,-0.56 -3.51,1.25 -0.59,1.15 0.87,2.08 -0.67,-0.2 -0.67,0.6 -0.8,2.4 0.16,0.76 1.17,0.53 -1.23,1.1 0.27,0.73 -1.09,0.77 -0.03,1.05 -1.26,-1.12 -2.78,-0.39 -2.53,2.19 -1,1.6 -0.88,-0.97 -1.45,0.37 -1.08,1.76 0.1,1.93 -0.71,0.67 0.08,0.61 -1.78,1.22 -0.54,-0.96 0.81,-0.73 -1.42,-0.05 0.64,-2.62 -0.51,0.14 -0.6,-2.13 0.66,-0.56 -0.16,-0.09 -1.11,0.49 -0.99,1.35 0.3,1.3 0.82,0.36 -0.16,0.58 -0.69,0.8 -1.3,-0.6 0.81,1.42 0.97,-0.34 0.48,1.15 -0.83,-0.37 -1.35,0.74 0.21,0.58 -1.17,0.85 0.07,1.06 0.61,0.49 -0.63,0.7 -2.68,0.36 -0.45,-0.71 -0.35,0.87 -1.06,0.13 -0.58,0.49 3.56,-0.55 1.47,0.66 -0.74,0.3 1.86,0.05 -0.3,1.67 0.72,0.15 0.78,1.47 -0.63,0.42 -0.12,1.39 -1.75,0.7 0.31,1.15 -0.68,1.18 -1.38,-0.56 -2.72,0.6 -1.19,2.2 0,1.69 -0.73,-0.04 -0.78,0.78 -0.67,-1.51 -1.74,-0.55 0.16,-0.87 -1.46,-1.79 0.6,-1.01 -0.28,-1.89 -1.13,-0.77 0.06,-1.4 -2.28,-2.79 -0.31,0.27 -1.58,-1.05 -1.05,0.32 -1.85,-1.34 -1.11,-0.08 -1.19,0.65 -0.63,-1.31 -1.06,0.11 0.28,-0.42 -0.75,-0.9 -1.02,0.7 -0.26,-1.12 -2.82,0.36 -0.04,0.91 -1,0.51 -0.22,0.34 1.03,1.66 -0.62,1.75 -2.2,1.82 -2.63,0.06 -1.07,1.08 -0.55,-0.38 -0.55,0.63 -1.61,0.26 -0.83,-0.93 -0.08,-0.95 -0.75,-0.08 -0.57,-0.79 0.36,-1.41 1.15,-1.1 -1.23,-3.81 2.35,-3.78 2.79,-0.21 1.76,-2.43 0.6,0.37 3.23,-2.65 3.85,-0.29 0.62,1.84 1.98,-0.03 0.08,0.45 2.03,-2.19 0.5,-2.16 1.11,-0.32 0.6,0.75 2.46,-0.67 1.62,-1.81 3.28,-2.06 1.07,-2.32 -0.07,-1.17 2.16,-0.29 1.28,-1.3 -0.07,-0.55 1.22,-0.47 0.78,-3.08 -0.52,-1.22 0.73,-0.64 -0.05,-1.01 2.54,-0.79 0.4,-1.22 1.45,0.74 1.85,-2.25 0.82,-4.7 -0.71,-0.89 1.09,-1.23 0.24,-1.63 -0.66,-2.22 0.76,-0.22 0.49,0.63 2.02,0.22 0.76,-1.45 1.73,-1.13 -0.17,0.92 0.79,0.15 0.14,-0.73 0.69,-1.25 -0.87,-0.85 0.68,-0.71 1.07,0.91 1.25,0.18 1.19,-0.68 0.58,-0.3 0.62,-0.57 1.58,0.48 2.17,-0.85 1.92,-4.84 -0.42,-0.46 0.16,-1.34 1.26,-0.67 0.91,0.29 0.24,-1.04 1.28,-0.17 0.45,-0.85 1.07,-0.23 0.04,-0.88 1.5,-1.02 0.17,-2.39 0.84,-0.6 1.26,-0.64 0.37,-0.94 2.38,-1.02 0.79,-1.1 0.34,-8.16 -0.78,-3.79 0.86,-2.25 0.38,-0.35 z" 
                fill="rgb(151, 144, 238)" 
                stroke="white" 
                stroke-width=".7px"
                title="Cornwall" 
                id="GB-CO" 
            />
        </svg>