<svg xmlns="http://www.w3.org/2000/svg" viewBox="429.9616999999999 672.4778899999999 93.1399999999997 124.30000000000018" width="93.1399999999997" height="124.30000000000018">
            <path 
                d="m 478.9117,782.42789 -0.31,-3.08 -1.09,-0.4 -1.49,0.29 -2.24,5.05 -1.89,0.43 -2.2,-2.27 -0.85,-2.43 -1.51,-0.93 -1.33,1.79 -0.49,3.12 -2.27,2.61 -1.97,3.56 -1.47,1.1 -1.93,-1.59 -1.48,0.16 -0.66,0.96 0.58,2.7 2.6,1.44 -0.14,1.84 -2.12,-0.01 -5.17,-10.04 -0.47,-1.44 -1.98,-2.49 0.27,-1.27 -0.7,-1.93 -5.07,-8.54 -0.08,-3.08 -0.91,-3.07 -2.49,-3.18 0.03,-1.19 -1.02,-1.8 -4.46,-5.62 -2.02,-3.49 -1.42,-1.07 -1.2,-2.28 0.07,-0.69 1.93,-1.33 1.43,-3.76 0.1,-2.82 0.74,-1.97 -0.51,-4.62 3.75,-4.94 1.27,-3.27 3.41,-3.57 0.11,-2.46 -0.83,0 -0.41,0.33 -0.26,-0.62 1.24,-1.29 -0.2,-0.39 -0.87,-0.5 -0.56,-0.8 0.13,-0.52 1.56,-1.99 2.14,-2.9 1.21,-0.55 2.26,-3.52 0.85,-0.36 2.21,-4.74 -0.48,-0.47 -0.88,0.88 -0.47,-0.37 2.09,-1.66 0,0 6.92,-0.08 0,0 2.7,1.42 0.88,-0.86 0,0 1.27,-1.74 3,0.31 -0.05,-1.26 0.91,-0.4 -0.08,-0.64 0.86,-0.74 -0.29,-1.23 1.46,-2.91 -1.74,-1.33 0.45,-0.6 0,0 5.01,0.4 0,0 1.9,-1.02 -0.13,-1.16 0.91,-0.15 0,0 0.57,-0.82 0,0 1.15,0.1 0.29,-1.12 0.38,-0.73 1.74,-1.49 0,0 1.95,-1.81 -0.34,-0.81 0.45,-0.58 0,0 2.21,-0.26 3.62,-2.98 0,0 0.93,-0.42 0,0 1.05,-0.47 0.74,-1.52 0,0 0.96,1.44 -0.54,1.01 0.37,1.23 1.28,2.12 1.53,0.92 2.12,0.35 0.34,2.14 0.62,0.89 0.96,0.08 0.64,0.81 -0.25,0.59 1.88,0.08 1.87,-0.88 1.02,0.85 -0.94,0.85 0.57,0.78 -0.74,0.62 1.31,2.47 -1.38,0.33 -0.32,0.06 0,0 -1.05,0.38 0,0 -2.9,1.81 -0.07,1.39 0.4,0.11 -0.35,1.65 -1.77,1.78 0.37,0.86 1.7,0.56 -0.17,1.09 0.7,1.56 0,0 0.77,0.44 0,0 -1.15,1.18 -0.64,2.46 -1.83,1.34 2.02,3.37 -0.59,0.83 1.53,3.18 1.74,1.17 2.21,-0.46 2.2,-2.61 0.53,0.23 1.85,-1.17 0.7,-1.49 1.36,2.65 1.09,0.52 1.52,2.21 1.33,0.19 0.26,1.12 0.7,0.44 0,0 0.23,1.9 -0.88,1.04 -0.62,3.48 0.41,0.58 -1.03,1.14 -0.14,1.56 -0.71,0.45 0.25,1.27 1.53,1.65 1.51,0.12 0.66,0.62 0.31,1.46 -2.33,2.04 1.29,3.84 5.97,4.82 0.76,2.05 0.95,-0.34 0.63,0.37 0.84,6.53 -0.71,1.5 0,0 -0.46,-0.37 -0.74,1.36 -3.79,-0.32 -1.15,0.51 -0.22,0.68 -1.35,0.17 0.06,0.85 -1.02,1.26 0.16,2.44 0.86,0.65 -0.35,1.53 -1.23,0.07 -1.74,1.79 -1.45,0.39 3.64,3.41 -0.83,1.43 0.37,2.57 -0.55,0.8 0.66,1.04 -0.64,3.07 -1.41,0.39 -0.9,-1.28 -0.63,0.16 -0.04,0.88 -1.5,0.07 -0.55,1.56 -3.48,-0.2 0,0 0.08,-1.38 -2.51,2.15 -4.81,2.57 -3.08,0.01 -0.94,-0.7 -0.45,1.52 -1.47,1.21 -0.59,1.66 -3.56,-0.85 0.13,-1.62 -0.94,-0.51 -1.21,0.31 -1.91,-1.26 -1.09,0.85 -0.04,0.9 -1.28,0.78 -1.11,-0.15 0,0 z" 
                fill="rgb(151, 144, 238)" 
                stroke="white" 
                stroke-width=".7px"
                title="Cumbria" 
                id="GB-CU" 
            />
        </svg>