<svg xmlns="http://www.w3.org/2000/svg" viewBox="472.6416999999997 1102.6579 80.47000000000014 56.24999999999977" width="80.47000000000014" height="56.24999999999977">
            <path 
                d="m 535.8117,1111.6179 0.09,1.15 0.77,0.41 -0.12,2.06 0.79,0.91 2.13,0.69 1.71,1.96 -0.33,1.04 0.45,3.4 2.31,3.28 0.55,5.04 0.62,1.35 1.95,1.09 2.16,-1.47 0.63,1.61 -0.33,1.57 3.92,-0.44 -0.65,1.48 0,0 -2.35,0.5 -1.2,2.07 -5.09,-0.93 -3.43,0.63 -1.96,1.08 -2.19,2.27 0.58,0.65 -0.71,1.7 0.17,0.99 0.57,0.52 1.14,-0.17 -2.13,2.51 0.07,0.91 0.77,0.08 -0.5,1.26 -4.75,0.57 -1.8,1.23 -0.61,-1.69 -2.63,-0.23 -1.21,-0.66 -0.53,-0.96 -0.85,0.47 -0.66,-0.75 -1.85,0.04 -0.68,-0.8 -2.7,0.67 -5.17,-0.83 -0.97,-0.73 -5.46,-0.32 -1.61,2.03 0.62,0.49 -0.48,0.8 1.05,0.53 -1.12,-0.5 -1.26,1.73 0.59,1.21 2.43,0.22 -0.4,0.3 0.82,1.71 -2.61,3.56 0.39,-4.8 -5.03,-4.98 -6.72,-5.13 -9.82,-5.34 -7.29,-1.54 -2.37,1.51 0,0 -0.26,-1.23 0.95,-2.25 -1.23,-1.08 0.32,-0.65 1.19,-1.12 2.14,-0.42 0.7,-0.87 -0.37,-0.97 -4.32,-1.11 0.44,-0.54 0,0 1.52,-1.96 2.76,-0.96 0.45,0.41 2.13,-0.51 0.15,0.43 0.87,-0.14 1.1,-1.46 1.22,1.05 0.69,-0.72 1.24,-0.08 0.25,-0.6 2.7,0.3 0.01,-0.72 2.23,-0.63 1.15,-0.96 2.8,0.55 0.41,-0.99 -0.91,-1.62 0.58,-1.53 0.68,-0.35 -0.76,-1.38 1.13,-0.79 0.2,-1.36 -0.53,-1.41 0.47,-0.5 0.62,0.45 0.72,-0.98 0.77,0.9 0.39,-0.19 0.67,-0.55 -0.12,-1.44 0.77,0.02 0.55,0.74 1.51,-0.19 0.76,2.1 2.15,2.33 0.83,-1.03 -0.27,-0.81 1.21,-0.35 0.82,1.07 4.43,-1.82 -0.65,-1.2 -1.39,0.01 -0.28,-1.41 1.3,-2.01 1.93,-1.62 -1.25,-2.74 1.51,-1.08 0,0 2.18,0.26 1.43,0.83 1.65,-0.25 3.09,3.34 0.29,1.92 0.76,0.57 0.25,1.17 1.53,1.47 1.79,0.81 -0.06,1.66 1.19,1.65 2.1,-0.62 0.63,-1.24 1.37,-0.85 2.67,-0.36 0.56,-0.9 1.25,-0.72 z" 
                fill="rgb(151, 144, 238)" 
                stroke="white" 
                stroke-width=".7px"
                title="Dorset" 
                id="GB-DS" 
            />
        </svg>