<svg xmlns="http://www.w3.org/2000/svg" viewBox="659.0517 1000.9579000000004 81.3900000000001 64.7299999999999" width="81.3900000000001" height="64.7299999999999">
            <path 
                d="m 716.9817,1035.3179 1.05,0.96 -0.58,2.08 0.47,3.72 -2.44,6.66 2.54,-0.01 -1.4,2.27 -9.74,6.48 -3.78,-1.35 -2.45,1.01 -1.92,-0.06 -2.67,1.51 -2.03,0.34 -3,-0.51 -3.97,1.17 -1.06,1.38 -0.14,1.2 1.38,1.07 0,0 -0.75,1.78 -1.89,0.63 -3.48,0.04 -1.22,-0.36 -1.17,-1.79 -2.5,1.22 -3.27,-2.48 0,0 -0.84,-0.36 0.56,-1.15 -0.02,-3.96 1.91,-1.88 2.53,-0.34 0.21,-0.6 -1.45,-3.54 -1,-0.2 0.64,-0.74 -2.52,-2.31 -1.45,0.68 -2.29,-1.58 -2.23,-0.74 -7.28,-1.34 0,0 -0.14,-2.93 0,0 -0.54,-5.08 0.98,-2.97 2.11,-0.65 0.58,-0.76 2.4,0.04 1.67,-1.22 1.57,-0.17 0.48,-1.69 0.95,-0.41 -0.76,-0.85 0.22,-2.41 0.54,-0.01 -0.18,-1.2 1.58,-0.66 -1.3,-1.49 0.55,-1.11 -1.92,0.49 -1.07,-6.16 -1.79,-4.7 0,0 0.52,-2.25 0,0 1.05,-0.76 2.27,-0.28 2.71,-3.32 1.61,-0.74 2.28,-0.05 2.37,0.42 1.42,1.63 1.81,3.69 1.84,-0.73 0.68,-3.27 -0.32,-1.12 0.44,-0.35 0,0 2.11,-0.7 0.97,0.43 0.82,-1.05 1.29,0.9 0.91,1.61 0.59,-0.61 1.96,0.21 0.58,-1.13 1.28,-0.02 2.24,-1.21 0.76,0.44 1.05,-1.02 1,0.35 2.02,-0.39 1.8,1.62 -0.61,0.59 0.83,1.7 -1.06,0.02 -0.19,0.93 1.01,0.46 -0.38,0.54 0.5,0.23 1.65,-0.4 -0.13,2.09 1.42,1.35 -0.08,1.25 0.93,0.26 0.1,1.55 2.25,0.67 0.62,-0.8 1.78,0.81 0.81,-0.77 1.07,0.19 0.6,-0.71 2.24,-0.28 0,0 1.11,0.56 1.24,-0.66 0,0 0.14,0.52 0,0 0.21,0.81 0,0 1.94,0.02 1.24,1.09 1.82,-0.64 0.69,1.01 0.48,0.22 0.5,-0.49 0.44,0.76 3.18,-0.66 5.56,0.2 0,0 4.42,-0.05 0.39,1.44 -0.98,0.16 -0.65,0.92 -1.07,3.31 0.73,0.37 0.36,-0.34 -0.45,0.52 1.6,1.04 0.21,1.06 -3.28,4.59 -6.63,4.58 -1.3,0.32 -4.82,0.48 -1.04,-2.73 0.97,0.62 -1.42,-1.25 -0.53,0.1 -0.07,2.06 -1.06,-0.03 0.45,0.52 -1.02,-0.32 -0.81,0.82 -3.51,-0.04 -2.61,2.37 0.68,0.99 1.5,-1.05 z" 
                fill="rgb(151, 144, 238)" 
                stroke="white" 
                stroke-width=".7px"
                title="Essex" 
                id="GB-EX" 
            />
        </svg>