<svg xmlns="http://www.w3.org/2000/svg" viewBox="622.7717000000007 1039.6279000000002 54.53999999999962 44.04999999999973" width="54.53999999999962" height="44.04999999999973">
            <path 
                d="m 627.8617,1046.7579 7.19,-0.67 1.7,-0.87 1.73,-1.76 2.39,-0.96 3.97,-1.14 4.65,0.4 1.96,-0.34 1.19,-1.33 1.47,-0.41 2.37,-0.05 1.22,0.65 0.48,3.34 1.52,-0.03 0,0 0.03,0.63 0,0 7.28,1.34 2.23,0.74 2.29,1.58 1.45,-0.68 2.52,2.31 -0.64,0.74 1,0.2 1.45,3.54 -0.21,0.6 -2.53,0.34 -1.91,1.88 0.02,3.96 -0.56,1.15 0.84,0.36 0,0 -0.77,0.72 -0.51,2.1 -1.92,1.11 0,0 -1.37,2.3 0,0 -0.15,1.23 0.86,1.58 -0.92,-0.04 0,0 0.35,1.49 -0.38,1.11 0,0 -0.65,2.29 -1.16,0 -0.04,1.46 -2.06,1.37 -0.14,1.04 0.52,0.88 0,0 -2.05,0.75 0,0 -1.02,-0.31 0.32,0.93 0,0 0,0 0,0 -3.4,-0.2 -2.7,-3.09 -1.35,-0.53 -0.87,0.54 0.18,0.53 -1.25,1.45 -0.18,2.39 -1.12,0.3 -3.64,-1.76 -2.08,-1.84 -1.89,-0.27 -2.6,-3.19 -1.12,-0.02 -1.59,1.08 -2.89,-0.52 -0.78,-5.27 -1.3,-1.81 -1.89,-0.72 -4.19,0.03 -0.58,-0.61 0.06,-1.36 -3.79,-1.94 0,0 0,0.01 0,0 -0.13,-1.32 1.35,-2.76 0,0 0.03,0.01 0,0 3.92,-0.4 0.43,-1.19 -0.78,-3.22 1.19,-2.08 -1.44,-3.33 -0.05,-3.71 0.41,-0.2 0,0 z" 
                fill="rgb(151, 144, 238)" 
                stroke="white" 
                stroke-width=".7px"
                title="Greater London" 
                id="GB-GL" 
            />
        </svg>