<svg xmlns="http://www.w3.org/2000/svg" viewBox="461.2917000000003 969.34789 50.549999999999784 58.160010000000284" width="50.549999999999784" height="58.160010000000284">
            <path 
                d="m 473.0617,974.10789 1.35,-0.09 -0.36,-1.13 0.8,-0.61 1.59,-0.03 -1.35,-0.81 0.29,-1.14 1.55,0.68 0,0.57 0.29,-1.14 1.55,-0.36 0.55,-0.7 2.32,0.44 0.8,0.31 -0.12,1.26 0.93,0.07 0.01,1.89 3.07,-0.26 0.68,0.4 -0.98,2.12 -1.17,-0.13 0.53,0.7 1.34,1.01 0.77,-0.05 0.79,1.21 1.91,-0.31 0.13,-0.41 -0.58,-0.09 0.25,-0.86 0.98,-1.76 0.58,0.02 0.07,0.73 1.01,0.05 0.4,0.95 0.82,0.33 -0.26,0.81 0.62,0.73 -0.67,1.92 0.66,0.55 0.97,-0.38 0,0 0.02,0.02 0,0 0.39,0.94 -0.65,0.09 -1.52,1.87 0.12,1.75 3.32,-0.76 0.12,-0.51 1.63,0.32 1.05,-0.37 0.37,0.53 0.63,-0.8 1.26,-0.11 -0.46,-2.1 1.68,-0.83 1.57,0.05 1.47,1.48 -2.52,1.5 -0.42,1.5 0.62,0.72 2.63,-0.3 2.43,1.23 -1.22,0.39 0.7,1.31 -0.95,0.6 -0.71,1.52 0.25,0.48 -0.65,0.64 0.22,0.46 -0.83,0.44 1.26,2.35 1.33,-0.16 0.92,-0.85 1.3,0.33 0.88,1.97 -0.72,0.56 0.25,2.42 0.89,1.38001 0,0 -0.2,2.61 -0.65,0.81 0,0 0.01,3.57 0,0 -2.61,0.86 -0.39,1.71 -0.89,0.21 -1.51,-0.31 0.04,-1.8 -1.68,0.05 -0.03,-0.9 -0.95,0.06 -0.82,1.52 1.32,1.32 -1.51,1.39 0.17,1.72 -0.55,0.36 2.23,0.91 -0.03,2.41 1.12,0.95 0.56,2.16 -1.71,0.49 -1.34,1.24 -0.43,-0.39 0,0 -0.4,0.24 -0.06,-0.44 0,0 -1.87,2.59 -3.08,-0.1 -0.14,1.23 -1.15,-0.67 -1.51,1.74 -0.73,-0.41 -0.86,1.72 0,0 -1.01,-0.96 -1.69,0.18 -0.23,-1.08 -1.05,0.47 -0.37,-0.92 -1.07,1.05 0,0 -0.33,0 0,0 -2.25,-2.66 0.57,-1.56 -2.09,-1.05 -1.26,-1.53 -0.91,-0.09 -0.42,-1.17 -1.29,0.24 1.16,-0.68 -1.93,-1.12 -0.82,-0.01 -0.18,0.75 -4.77,2.16 -0.58,-2.32 -1.42,0.41 -0.57,-0.4 -0.3,-1.78 -3.43,-3.92 -1.87,-3.82 0.7,-1.98 -0.29,-1.07 -2.15,-2.79 0.15,-2.44001 1.1,-0.37 -0.1,-1.34 -2.2,-0.94 0,0 0.41,-0.53 0,0 -0.03,-0.49 2.63,-0.64 1.34,-1.18 -0.55,-0.71 -1.12,0.78 -1.45,-0.93 1.7,-1.93 -0.39,-1.94 1.83,-1.28 -0.35,-0.21 0.27,-1.93 1.84,-0.27 -0.24,-1.21 0.77,-0.71 1.92,-0.77 1.75,0.46 0,0 0.81,-0.64 0,0 0.9,-0.35 -3.36,-0.63 0,0 -0.52,-0.23 0.02,-1.06 0,0 0.65,-1.22 0.02,-2.22 2.15,-0.79 z" 
                fill="rgb(151, 144, 238)" 
                stroke="white" 
                stroke-width=".7px"
                title="Herefordshire" 
                id="GB-HD" 
            />
        </svg>