<svg xmlns="http://www.w3.org/2000/svg" viewBox="618.5616999999995 1007.7479 52.63000000000045 39.010000000000105" width="52.63000000000045" height="39.010000000000105">
            <path 
                d="m 648.9217,1008.3379 4.75,1.16 2.42,-1.53 4.09,-0.22 2.42,0.4 0.57,1.09 2.58,0.67 0,0 -0.09,0.37 0,0 1.79,4.7 1.07,6.16 1.92,-0.49 -0.55,1.11 1.3,1.49 -1.58,0.66 0.18,1.2 -0.54,0.01 -0.22,2.41 0.76,0.85 -0.95,0.41 -0.48,1.69 -1.57,0.17 -1.67,1.22 -2.4,-0.04 -0.58,0.76 -2.11,0.65 -0.98,2.97 0.54,5.08 0,0 0.11,2.3 0,0 -1.52,0.03 -0.48,-3.34 -1.22,-0.65 -2.37,0.05 -1.47,0.41 -1.19,1.33 -1.96,0.34 -4.65,-0.4 -3.97,1.14 -2.39,0.96 -1.73,1.76 -1.7,0.87 -7.19,0.67 0,0 0.08,-1.01 0,0 -1.57,-5.77 -2.18,-2.16 -0.48,-1.3 -0.87,0.13 -0.83,-1.63 -0.75,0.07 -0.53,-0.88 -1.68,-0.54 -0.49,-0.94 0.02,-0.93 1.2,-0.83 0.19,-1.18 -1,-0.86 0.11,-0.79 0,0 0.06,0.05 0,0 1.26,0.75 1.08,-0.2 0.81,0.72 1.56,-2.44 0.87,1.58 1.48,1.05 0.62,-0.68 2.23,-0.13 3.62,-3.06 2.67,1.42 0.61,-1.04 2.03,1.01 1.11,-0.31 0.86,-0.91 0.46,-4.82 -0.56,-1.63 -2.24,-2.09 -0.47,-1.71 0.47,-2.02 1.74,-1.66 3.17,-0.12 0.18,-0.58 0.6,0.02 0.24,-1.41 1.35,1.37 2.47,-0.36 1.33,-2.1 0,0 z" 
                fill="rgb(151, 144, 238)" 
                stroke="white" 
                stroke-width=".7px"
                title="Hertfordshire" 
                id="GB-HT" 
            />
        </svg>