<svg xmlns="http://www.w3.org/2000/svg" viewBox="0.4817029999998117 651.3378899999976 281.28999700000014 414.4500100000008" width="281.28999700000014" height="414.4500100000008">
            <path 
                d="m 67.191703,1061.3279 0.49,0.13 0.31,1.76 -0.26,0.34 -2.24,1.56 -0.23,-1.02 0.99,-0.46 -0.68,-0.9 0.77,-0.27 0.32,-0.66 0.53,-0.48 z m -29.25,-15.15 2.76,-0.25 0.37,0.55 0.72,-0.34 1.86,-0.57 -1.24,0.98 0.21,0.51 -1.38,0.32 -0.73,0.85 -0.66,-0.34 -2.21,0.76 -0.43,-0.13 -2.13,-0.04 0.64,-1.68 2.22,-0.62 z m -29.75,-29.44 0.91,0.46 0.63,-0.67 0.28,0.96 1.81,-0.25 -0.11,1.14 -4.04,2.54 -1.64,0.41 -0.71,-0.55 -2.27,1.25 1.2,-3.24 2.04,-0.28 1.64,-1.15 -0.1,-0.96 0.36,0.34 z m 43.53,-139.71001 0.32,0.94 0.33,1.24 -0.23,3.42 -1.21,0.5 -0.96,-0.25 -1.15,0.1 -1.05,-1.85 0.89,-0.89 -0.95,-0.15 -0.3,-1.03 2.55,-0.76 0.03,-1.04 1.73,-0.23 z m -1.2,-2.53 1.2,0.73 1.05,-0.48 0.44,0.78 -1.52,0.98 -2.18,0.82 -0.91,-0.42 -0.31,-0.56 -0.15,-0.79 0.39,-0.71 1.18,-0.62 0.81,0.27 z m -24.29,-76.07 1.12,0.19 0.83,1.18 0.89,-0.51 1.62,0.35 0.9,-1.83 2.79,3.46 -0.35,0.66 -1.45,0.12 0.52,0.9 -0.51,0.94 0.43,0.91 0.45,-0.12 1.9,0.15 -0.82,1.06 0.07,1.54 -0.81,0.47 -0.04,0.44 -0.09,0.99 -0.1,1.35 0.34,1.08 -0.58,2.59 -1.11,0.02 -1.63,-1.4 -0.83,-0.93 0.54,-0.69 -1.3,-0.9 -0.22,-0.85 -1.14,0.62 -1.11,-0.26 0.2,-3.92 0.48,-0.54 -1.63,-1.5 -2.95,1.21 -0.7,-1.35 -1.72,0.81 -2.26,-0.42 0.06,0.95 -3.01,-1.93 -0.02,-0.32 1.75,0.15 1.4,-1.78 -0.05,-1.87 1.09,0.84 1.53,-0.14 0.81,1.08 2.03,-0.19 1.59,-2.23 1.09,-0.38 z m 3.68,-30.09 1.06,0.46 -0.23,1.24 1.09,0.19 0.62,1.66 1.93,0.1 0.72,0.81 0.57,0.24 1.32,-0.69 -0.24,1.48 -0.64,1.59 -0.82,-0.01 -0.52,0.6 0.64,0.59 -2.09,0.14 -1.07,0.39 -3.21,-0.14 0.67,1.07 -1.39,0.1 1.26,1.28 -0.36,2.2 -1.41,-1.11 -0.98,0.12 0.83,1.57 -0.35,0.93 -1.26,-0.26 -0.64,0.83 -1.21,0.3 0.11,0.6 2.15,0.99 -1.21,0.64 0.57,1.67 -1.15,-0.33 -0.53,1.3 1.62,0.54 0.36,1.09 -0.72,1.02 -1.22,0.24 -2.08,-0.97 -0.41,-1.26 0.68,-0.27 -0.19,-2.22 2.31,-4.97 -0.57,-2.25 0.92,-1.14 1.16,-0.07 0.5,-1.7 -3.38,-1.73 1.52,-0.02 0.04,-0.69 0.13,-2.21 2.09,-0.96 0.13,-0.69 1.27,0.26 0.38,-1.12 0.86,0.23 -0.3,-1.2 0.67,-0.46 z m 92.459997,-76.72 2.21,1.25 -0.28,0.89 0.74,2.25 -1.96,-0.01 -0.25,0.52 -0.36,-0.55 -2.46,-0.21 0.02,-0.68 0.54,-0.16 -0.26,-1.25 1.02,-0.71 -0.88,-1.44 0.98,0.24 0.31,-1 0.63,0.86 z m 63.9,-7.69 1.39,-0.06 1.49,1.23 1.04,2.41 -2.75,0.36 -0.66,-0.88 -1.16,-0.3 -0.55,-1.5 1.2,-1.26 z m 9.41,-32.48 1.57,0.51 0.4,0.77 2.54,-0.09 1.43,0.91 1.62,0.08 1.28,1.05 1.87,0.35 1.44,1.13 -0.84,0.44 0.94,0.43 -0.4,0.95 1.16,1.04 0.11,1.59 1.37,0.53 0.67,-0.35 3.36,2.41 1.86,-0.18 0.25,0.56 1.66,0.42 0.31,1.08 3.33,0.28 1.88,1.88 -0.1,1.09 -1.77,1.69 -4.35,2.35 -1.67,0.37 -6.98,4.18 -2.87,3.46 -0.41,1.37 -2.92,4.06 0,0 -0.87,0.33 -0.82,1.46 -0.87,-0.63 -1.23,1.14 -1.81,-0.55 -2.77,3.2 -0.68,1.56 0.68,1.15 -1,1.51 0.41,0.79 -0.26,2.2 0.64,1.15 -2.48,0.4 -0.8,0.81 -0.29,4.22 0.59,2.43 -2.36,5.3 -2.84,1.84 -1.29,1.87 -0.12,3.52 0.73,0.7 -0.6,1.01 -1.93,-0.15 -0.84,-0.06 -1.69,0.09 -1.42,-0.76 -2.36,2.02 -3.72,1.67 -0.63,0.98 -3.5,-1.41 -1.01,-1.64 -0.82,-0.24 -1.7,1.5 -1.34,2.19 -2.47,0.14 0.46,1.22 0.82,0.24 -0.92,1.36 0.45,1.32 0.4,0.63 2.55,0.92 0.39,2.17 1.48,-0.27 1.06,-1.25 2.55,2.44 0.75,-0.28 1.26,0.59 2.03,-1.54 0.35,0.66 -0.33,0.75 0.61,0.35 -0.44,0.94 -2.93,1.06 -0.88,1.33 -1.96,0.62 -0.07,0.9 -2.14,1.81 0.36,1.27 -1.38,1.05 -0.55,-0.38 -6.04,0.32 -1.06,-1.56 -1.11,0.52 -1.22,-0.2 -2.28,4.3 -0.14,2.04 -2.43,-0.07 -2.4,1.96 -3.43,0.35 2.06,1.54 -1.11,1.33 4.49,4.1 1.5,3.24 2.01,1.57 2.19,0.01 -0.11,0.84 3.23,4.55 1.67,0.29 0.79,0.96 0.59,-0.69 0.74,0.2 0.39,0.82 1.38,-0.12 -0.74,0.78 -0.16,1.39 0.82,1.32 0.27,4.77 2.69,1.57 0.58,-0.55 3.45,-0.45 0.87,0.87 3.13,-0.43 0.67,2.62 1.06,-0.52 1.97,1.76 0.38,2.03 1.27,1.06 1.54,0.06 0.75,1.5 1.22,0.69 1.09,-1.37 3.1,0.96 0.76,-1.9 0,0 1.47,-1.03 1.15,-0.13 0,0 1.16,-0.07 -1.16,1.22 0.31,0.59 3.01,-0.31 -1.13,1.21 0.09,0.71 1.81,-1.06 0.88,1.83 1.4,-1.04 0.42,0.92 0.6,-0.86 -0.73,-1.45 -0.58,0.06 -0.62,-0.85 1.87,-2.46 1.09,-0.41 0.72,0.52 -0.35,1.46 -0.94,0.84 0.94,0.89 -1.41,0.61 0.59,1.09 1.12,-0.04 0.1,-0.74 1.02,-0.8 -0.19,-1.04 0.63,-1.52 1.02,-0.94 -0.79,-0.86 -0.13,-1.79 1.37,-0.37 -1.02,-0.75 1.2,-0.23 0.22,-0.8 1.52,-0.37 0.82,-0.9 1.14,0.7 1.5,-0.45 0.02,-1.72 -0.55,-0.63 0.87,-0.87 -1.21,-2.24 -1.05,0.05 0.34,-1.16 -2.24,-1.04 0.27,-1.34 0.59,-0.59 0.85,0.1 0.25,-1.4 -0.58,-1.66 2.04,0.41 2.18,-1.88 1.11,-0.22 -0.47,-1.33 1.53,-1.23 2.01,-3.42 1.77,-0.9 1.31,0.74 0.25,0.7 1.04,-0.26 1.36,0.96 2.25,2.5 0.55,-0.21 0.67,0.83 0.28,1.96 1.18,0.31 1.67,4.09 0.11,2 -0.5,0.43 0.15,0.67 -0.75,-0.42 -0.01,0.79 1.47,1.63 0.65,-0.2 0.62,0.51 0.84,3.96 0.79,0.16 0.08,0.91 1.65,1.56 1.26,0.14 0.93,1.6 1.23,0.08 0.44,-1.37 1.35,-0.57 0.51,0.61 1.45,0.28 1.08,1.74 0.93,2.06 -0.06,1.05 -1.23,2.72 -0.65,-0.07 1.11,2.78 -1.01,0.23 0.19,1.93 -0.58,0.68 0.18,0.79 0.98,0.13 1.54,2.36 1.82,-0.77 0.3,-1.03 2.05,0.47 1.64,-0.73 1.24,0.52 0.8,-1.05 1.38,-0.32 -0.46,-0.57 0.3,-0.68 1.31,0.56 0.96,1.54 1.84,-0.52 1.6,0.31 0.4,-0.82 1.12,-0.44 -0.01,-4.43 1.48,-0.04 0.3,2 0.79,0.31 1.5,-1.89 0.69,-0.07 1.23,1.07 0,0 1.48,2.48 2.96,1.98 0.99,1.91 2.03,1.39 1.19,-0.7 0.23,1.75 1.53,1.83 -2.31,2.18 -3.6,0.11 -3.28,-0.9 -4.34,-2.7 -1.86,0.64 0.51,1.09 -1.44,1.45 -0.05,2.19 -0.9,0.87 0.14,3.56 0.54,2.18 2.21,2.45 1.7,-0.01 4.15,1.75 -0.77,1.16 -0.57,2.89 0.28,2.01 2.42,0.89 -1.26,1.23 -1.14,5.58 0.65,1.24 0.76,5.83 1.25,3.5 1.56,1.43 1.45,1.27 1.11,2.07 2.15,0.45 1,1.65 0.93,0.86 0.28,1.84 -0.59,1.19 0.78,1.08 -2.14,1.03 0.05,1.61 0.7,0.26 -1.4,1.72 -0.8,0.88 -1.12,-0.78 -0.46,0.73 -2.91,0.28 5.05,2.28 0.53,4.29 -0.06,1.07 3.57,0.05 1.01,1.19 -0.45,2 -2.12,0.01 -1.32,-2.4 -1.26,-0.25 -1.77,0.84 -2.24,2.41 -0.57,0.41 0.22,0.65 1.21,0.52 -0.08,0.46 -2.16,0.35 0.55,2.02 3.06,2.04 0.81,-0.24 0.89,0.76 1.53,0.66 0.72,1.31 -1.21,1.33 0.37,4.38 0.83,2.1 0.94,0.73 0.12,2.65 2.15,4.6 0.35,2.78 0.17,2.61 -0.87,3.91 0.02,3.72 0.4,1.14 1.38,1.26 0.71,0.04 0.46,0.84 -0.91,1.33 -0.42,2.65 -1.01,0.98 -0.13,1.82 -1.11,1.55 -0.39,1.91 0.39,0.82 -2.66,1.71 -2.41,4.26 -0.48,2.02 0.07,1.92 -0.1,1.99 0.36,1.06 -2.89,3.47 -2.06,4.58 -0.69,0.48 0.23,3.28 1.01,1.73 -0.06,1.52 1.02,2.47 -1.14,3.01 -1.28,1.25 -5.54,9.2 -1.89,2.16 -0.87,3.03 0.65,3.58 -1.12,-0.17 -0.73,-0.66 -3.21,-0.08 -1.7,1.55 0.99,1.43 0.03,2.04 2.05,0.87 0.35,1.19 0.53,-0.08 0.1,-1.42 0.68,-0.83 -0.19,2.59 1.18,2.91 0.77,0.41 1.56,-0.3 1.21,1.45 -1.79,2.8 -0.5,1.46 0.32,1.07 -0.95,1.54 -3.55,-1.29 -4.84,-0.53 -6.28,2.21 -0.89,-1.6 -2.33,-1.67 -3.88,-1.64 -5.02,1.38 -0.54,-0.74 0.65,-1.7 2.02,-1.99 -0.37,-1.53 -1.02,1.83 -1.65,-0.07 -1.05,1.78 -0.69,0.74 0.31,0.68 0.35,0.43 -1.16,2 0.29,0.91 0.45,0.82 -1.2,0.01 -2.16,1.24 -1.4,1.53 -0.42,1.64 -1.16,0.82 -0.35,-0.86 2.13,-3.01 0,-1.39 -0.83,-1.75 0.58,-0.54 -1.23,-2.14 -0.9,-0.29 -1.02,-2.25 -0.95,-0.25 -0.49,3.15 0.33,0.66 -0.8,1.92 0.72,1.03 0.17,0.61 -0.46,1.15 -0.99,0.63 0.14,0.99 -2.8,1.34 -1.38,-0.77 -3.23,1.23 1.4,-2.55 0.16,-0.85 -1.33,-0.89 -1.04,0.03 0.42,1.5 -2.14,-0.45 -1.37,2.31 -0.91,0.25 -2.12,0.24 -4.54,-0.95 -1.9,0.3 -2.53,-0.09 -2.03,1.05 -3.03,0.11 -1.18,0.43 -1.98,2.02 -1.48,-0.2 -1.5,0.78 -0.89,2.11001 -2.35,-2.02001 -2,1.59001 -0.69,-0.11 0.35,1.72 1.44,0.24 1.08,1.25 3.3,-0.34 -2.41,2.01 -0.81,4.49 -1.87,1.17 -4.99,0.76 -1.62,2.04 0.79,0.71 -0.18,0.64 -2.08,0.18 -1.93,-1.25 -2.59,1.34 -0.78,-0.28 -0.72,-0.04 -1.49,1.07 -1.13,1.89 -1.4,0.45 0.08,1.24 2.03,0.71 0.38,0.83 -6.33,1.17 -2.24,1.07 -1.35,0.94 0.09,0.53 1.09,1.57 -0.22,0.36 -2.55,0.69 -0.89,0.76 -4.28,0.38 -1.95,1.92 -0.82,0.18 -0.24,-0.98 -1.02,-0.19 -3.74,0.49 0.32,-1.35 -0.93,-0.95 0.86,-1.03 0.6,-1.01 1.16,-0.72 1.79,-0.42 0.06,-0.57 1.4,-1.05 -5.9,0.4 -3.07,1.55 -1.04,-0.66 -0.67,0.87 1.41,0.59 1.13,0.02 -0.68,1.15 -0.89,0.14 0.11,0.39 1.84,0.59 -0.12,1 1.28,-0.59 0.11,1.03 -0.59,1.02 -1.92,1.59 0.96,0.51 -0.71,3.48 -1.26,-0.09 -0.84,1.86 -2.55,0.1 -0.54,1.32 -1.67,-0.24 -0.5,1.5 -0.78,0.35 -0.82,-0.66 -1.53,1.7 -1.06,-0.05 0.11,-1.42 -0.85,-1.49 -0.43,0.83 0.57,1.07 -0.37,0.57 -0.63,-0.12 -0.64,2.37 -1.25,1.4 1.39,1.56 -0.72,0.76 0.72,1.05 -0.25,0.48 -0.7,-0.49 -1.08,-1.41 -0.1,-1.43 -1.06,-0.57 -4.95,0.93 -1.44,-1.02 -1.17,-0.59 -0.74,1.14 1.71,0.37 -1.06,1.91 -0.08,2.06 0.21,1.72 -0.89,0.93 -1.99,-0.68 -0.36,-0.52 -0.57,-1.02 -1.07,0.95 -1.8,-1.25 -2.7,0.22 -0.84,-0.18 -0.4,0.32 -0.11,1.55 -1.43,0.6 0.16,1.87 -0.579997,0.41 -1.46,0.81 -1.05,-0.66 -0.97,-0.81 -2.81,-1.35 -1.02,0.9 -2.39,0.81 -1.95,0.72 -1.71,0.65 -0.71,0.29 -0.62,0.86 -1.57,0.6 -1.16,0.46 -0.93,-0.29 -0.06,1.14 -1.11,0.07 -0.53,0.87 0.35,1.05 -1.08,0.67 -0.93,-0.15 0.65,-0.84 -0.31,-0.56 -2.15,1.18 0.36,-1.67 -0.83,0.3 -0.85,0.72 -0.6,0.54 -2.76,1.78 -1.16,-0.66 -1.06,0.6 -0.53,-0.55 1.95,-1.06 0.31,-2.03 -1.05,0.27 0.42,0.81 -1.06,0.74 -0.41,-0.21 -0.4,-1.22 -1.23,0.54 -0.36,-0.48 -0.44,-0.29 -0.36,-0.65 1.52,-1.15 0.75,-3.15 -1.28,0.15 -0.69,0.02 -1.98,-1.14 0.16,1.23 0.48,0.77 0.74,0.08 -1.31,1.75 -1.17,-0.52 -0.96,0.64 -2.35,1.05 0.15,-1.6 -0.86,0.05 -0.37,1.88 -2.58,0.59 -0.01,0.7 -2.82,0.61 -0.19,-1.21 -0.53,-0.89 -0.11,-0.88 -1.13,0.31 0.31,0.75 -0.73,0.38 -2.48,1.08 0.43,2.64 -2.5,0.8 -1.79,1.34 -0.21,-0.43 0.84,-0.79 -1.2,-1.29 -1.12,2.3 -1.38,0.12 0.07,-1.4 0.7,-1.03 -1.91,-0.87 2.59,-1.3 2.79,-2.71 1.09,-0.46 1.89,0.14 2.25,-1.92 1.45,-0.81 0.04,-1.24 3.88,-2.43 0.51,-1.21 2.1,-0.39 0.58,-0.6 -0.38,-0.82 -1.43,0.98 -1.44,-0.24 -2.14,1.55 -1.12,-0.25 -1.3,1.65 -0.78,-0.15 -1.4,0.42 -0.79,0.87 -1.35,0.14 -0.8,0.56 -1.28,0.37 -0.9,0.88 -1.34,0.08 -1.4,0.91 -2.24,-0.02 4.2,-2.78 -0.4,-0.46 0.47,-0.58 4.12,-2.04 1.35,-1.34 6.59,-2.9 1.33,-1.1 3.84,-1.04 1.36,-1.6 1.47,-0.11 0.26,-0.9 -0.05,-0.84 1.34,-2.67 -0.64,-0.3 -0.4,-0.33 -1.61,1.57 -1.23,-0.2 -0.6,-1.14 -1.15,-0.18 0.23,-1.16 -0.71,-1.03 -0.89,0.21 0.4,0.94 -0.38,0.69 0.46,0.98 -0.33,0.96 -1.46,0.96 -0.9,0.51 -2.31,1.86 -3.21,1.08 -0.18,-0.77 -2.45,0.24 -0.6,-1.69 -0.62,0.69 0.63,1.06 -0.42,0.71 -0.85,-0.32 -1.15,0.89 -3.04,0.75 -0.46,-0.46 -2.51,0.62 -1.27,0.4 -1.48,-0.51 -0.72,1.66 -0.54,0.56 -0.05,0.96 -0.72,0.8 -1.69,-0.05 -0.25,-0.5 -4.58,3.24 -0.92,-0.49 -3.51,-0.36 -0.52,-0.34 -1.6,0.75 0.02,-1.16 -0.94,-0.44 0.08,-0.53 0.91,-0.58 1.28,0.77 1.98,-1.17 0.67,0.5 1.65,-1.35 -0.42,-0.65 0.04,-1.39 -0.84,0.24 -1.8,-0.76 -0.34,-0.48 0.84,-1.07 0.95,0.27 0.36,-0.56 1.12,0.8 1.45,-0.95 1.27,0.47 0.81,-1.2 1.74,-0.15 0.46,-1.81 1.09,-1.04 -0.72,-0.22 -1.52,0.61 -1.53,-0.6 1.96,-1.87 2.91,-0.47 -0.03,-0.45 2.94,-1.9 0.15,0.54 -0.92,1.85 0.79,-0.09 2.31,-1.68 -0.61,-0.77 0.65,-1.24 0.67,0.64 0.82,0.91 1.08,0.21 1.53,-0.37 -0.49,-0.75 -2,-0.83 -0.3,-0.63 3.02,-1.31 -0.08,-1.03 2.04,-1.23 0.84,-1.44 5.53,-1.07 1.25,-1.37 3.87,-1.6 0.96,-1.29 -2.22,1.1 -1.3,0.23 -1.74,0.68 -1.5,-0.44 -5.46,2.36 -5.63,2.5 -0.13,1.03 -1.26,0.71 -0.45,-0.12 0.1,-0.77 -1.19,-0.58 -1.55,1.29 -0.4,0.44 -2.58,0.29 -4.04,3.02 -1.48,-0.45 -1.16,0.87 -0.07,0.63 -2.72,0.42 -0.1,0.75 -1.31,0.37 -0.51,0.72 -0.62,-0.41 1.1,-1.49 -1.37,-0.15 -0.4,-0.72 -0.8,0.45 -2.26,-1.51 -0.94,0.24 -0.55,-0.44 0.04,-0.43 1.34,0.11 1.26,-0.64 0.58,-1.84 -0.4,-0.32 0.27,-1.91 -1.96,-1.97 -2.62,0.4 -1.59,2.12 -0.09,1.18 -0.86,0.79 -1.19,0.77 -2.23,1.22 -0.76,-1.48 1.25,-0.68 -0.33,-1.16 0.12,-0.89 0.38,-1.55 -0.26,-0.61 -3.8,0.31 0.84,-1.58 -0.46,-0.42 -0.44,-1.45 0.31,-0.76 2.71,-0.05 2.48,-1.26 0.96,0.22 1.62,-1.87 1.25,1.48 0.01,-1.23 -0.18,-0.82 -1.67,-1.02 3.11,-2.09 -2.06,-0.1 -0.66,1.23 -0.62,-0.67 0.14,-0.6 -2.47,-0.1 0.18,-0.56 2.26,-1.17 0.99,0.52 0.47,-2.75 1.91,-0.48 0.84,0.81 0.5,-1.41 1.46,-1.07 1.66,-0.38 1.2,-1.19 1.24,0.23 1.16,0.03 2.13,-1.46 2.47,0.16 3.17,-1.7 2.81,-1.34 1.03,0.17 -1.23,-1.95 2.4,-2.54001 2.64,-0.68 1.11,-1.01 0.98,0.16 0.51,-0.68 1.64,0.56 -0.72,-1.46 0.39,-1.41 -0.48,-1.03 -0.8,1.13 -0.53,-0.8 -9.41,1.89 1.25,0.92 0.52,1.81 0.67,0.44 -0.36,0.65 -1.14,-0.66 -1.92,-3.21 -3.92,0.64 -2.78,1.48 -0.76,-0.32 -2.26,0.75 -1.09,-0.2 -2.15,1.39 -0.99,-1.53 -0.83,0.53 -1.67,-0.04 -1.43,-2.2 -0.9,-0.27 -1.65,1.25 2.88,0.54 0.03,0.92 -1.6,0.34 -2.01,-0.37 -0.25,-0.65 -2.23,-1.05 -1.01,1.3 1.87,1.1 -2.38,0.06 -4.09,1.07001 -0.31,-0.96001 -1.29,-0.21 1.15,-1.33 -0.63,-1.01 0.25,-1.35 0.23,-0.97 -0.02,-0.86 0.3,-1.07 -0.86,-0.44 -0.06,-0.39 4.01,-2.77 -0.36,2.61 1.76,0.19 0.96,0.97 0.36,-1.45 -0.89,-0.89 1.48,-1.88 -1.14,-0.64 0.55,-1.39 3.7,-1 0.77,-1.48 1.55,-0.21 0.88,-1.33 1.73,-0.57 1.09,0.54 0.25,-1.07 1.94,-0.82 1.26,0.25 -0.39,2.4 0.81,0.37 -1.99,3.15 1.35,-0.78 1.3,0.33 0.41,-0.93 3.03,-0.51 3.13,-3.43 0.03,-1.29 -1.43,-1.44 1.4,-0.21 1.16,0.36 0.04,0.59 -0.43,3.5 1.35,1.74 2.77,1.9 2.03,-0.19 1.74,0.5 2.08,-0.67 1.45,-1.35 0.8,0.57 1.43,-0.02 1.42,-0.9 1.3,0.65 0.57,-0.83 0.83,-0.42 -2.35,-1.62 -2.26,0.33 -2.31,-0.89 -1.43,0.01 0.77,-1.01 1.33,-0.26 0.6,-0.92 -2.24,0.33 -0.28,-0.43 1.2,-0.98 0.95,-2.69 0.1,-4.57 -1.41,-0.94 -3.68,-0.35 -2.11,-1.62 0.36,-1.1 2.08,-1.07 2.91,0.61 2.32,-0.78 3.6,-1.69 2.4,-2.55 2.54,-0.85 0.83,-3.16 -0.42,-1.02 0.71,-0.79 0.2,-0.75 -0.64,-0.92 2.95,-2.72 0.94,-0.4 4.12,0.68 1.28,0 1.08,-0.07 1.55,1.28 1.48,-0.13 0.88,-1.55 3.51,0 0.54,-0.88 1.49,0.46 0.12,0.86 2.31,-0.44 1.96,0.74 6.07,-2.9 2.9,-0.74 0.47,-0.61 2.43,-0.07 3.24,-2.02 0.41,1.35 0.61,0.07 0.47,-0.81 1.21,0.07 0.41,0.88 1.35,-1.01 0.07,-1.15 0.54,-0.2 0.68,-1.96 9.169997,-1.35 1.21,1.62 0.67,-1.15 1.69,-0.47 -0.28,-0.6 -5.99,-2.3 -1.48,-0.13 -2.629997,0.94 -0.34,0.68 -2.09,-0.2 -0.34,-0.81 2.7,-1.69 -1.28,-2.16 0.14,-1.35 -0.81,-0.54 0.68,-1.35 -0.94,-0.67 -1.08,0 -3.44,1.89 -0.34,0.47 -0.16,2.07 -2.36,3.91 -0.94,0.27 -0.47,1.69 -1.69,1.21 -0.61,1.48 -1.42,1.42 -6.68,0.94 -1.01,2.16 -0.74,0.34 -2.56,0.2 -0.4,-0.61 0.14,-0.74 2.97,-2.29 0.68,-1.55 -0.94,0 -0.2,0.88 -1.35,0.68 -7.42,1.42 -1.01,-0.74 -2.36,-0.07 -1.69,-1.15 -1.01,0 -0.88,-1.08 -0.13,-2.5 -0.27,-0.54 -0.74,0 -1.01,0.74 -0.13,0.81 0,0.88 0.94,-0.07 -0.13,1.28 -1.55,0.61 -0.74,0.68 0.14,0.68 -2.43,-0.27 -1.96,0.94 -1.82,0.14 -1.18,2.7 -1.7,-0.56 -0.37,0.88 -3.77,1.36 -2.2,-0.62 -1.11,0.1 -0.41,0.88 -1.45,0.7 -3.02,-0.44 1.11,-0.59 0.64,-1.18 0.96,-0.53 1.21,-0.99 3.76,-0.95 1.57,-2.57 3.55,-1.84 0.77,-1.62 1.69,-0.71 1.31,-1.59 1.84,-0.04 -0.68,-1.28 0.7,-1.4 1.92,-1.05 -1.13,-1.22 0.45,-0.36 1.17,-0.18 0.18,-1.13 3.12,-0.85 1.74,0.66 1.83,-0.38 0.45,-1.22 -0.58,-0.93 1.23,-0.74 -0.63,-3.33 2.2,-0.92 0.05,-1.46 1.54,-0.58 -0.17,-0.64 -1.04,-0.54 0.6,-1.85 0.5,-1.67 2.33,-1.25 1.67,-2.08 0.91,-0.31 0.35,-1.38 -0.88,-1.34 -2.4,1.09 -2.35,-0.43 -1.79,0.68 -0.6,-0.16 0.06,-1.01 2.62,-2.54 0.25,-2.01 2.37,-2.39 -1.01,-0.96 2.68,-3.37 0.46,-2.27 3.09,-2.25 1.37,-2.67 -0.24,-1.3 0.61,-1.32 1.32,-1.06 2.62,1.55 2.45,1.05 1.69,1.05 0.72,-0.06 0.93,-0.94 2.41,-0.97 0.88,-0.08 -0.93,-0.76 -2.04,0.18 -0.92,-0.59 2.19,-0.86 1.84,0.37 1.05,-0.33 3,1.81 -0.03,-1.03 -2.11,-0.94 -0.3,-0.58 1.51,-0.53 2.04,0.17 1.42,-0.82 0.11,1 -1.47,0.6 2.11,0.82 1.49,0.82 -0.28,-1.97 -0.87,-0.78 -0.11,-0.52 -0.01,-1.54 3.5,-2.94 -0.71,-0.2 -1.07,0.95 -1.33,0.31 -2.76,-0.09 -1.55,-0.39 1.09,-0.72 2.13,-1.98 -1.55,-0.7 0.87,-0.96 2.42,-0.26 0.37,-1.25 -0.87,-0.23 -1.67,0.33 0.02,0.77 -1.37,0.04 -0.04,-0.88 -1.44,0.39 -2.41,0.37 -4.05,1.32 -2.8,0.46 -3.39,0.06 -7.3,0.71 -1.86,-0.36 -2.45,0.9 -3.16,-0.05 -0.93,0.84 -1.6,0.14 -1.94,0.34 -1.97,-1.75 -0.19,-1.34 -0.62,-1.29 1.77,-1.54 -0.87,-1.36 -0.76,0.46 -0.6,0.84 -0.55,0.79 0.59,1.11 -0.74,2.43 -0.33,0.27 -1.41,0.24 -0.8,-0.67 -0.31,-1.3 2.08,-2.98 -0.34,-0.95 -0.42,-0.61 -0.04,-1.71 -0.91,-0.88 0.28,-0.74 1.92,-0.26 1.43,0.55 1.21,-2.3 -1.53,-0.68 -0.74,-0.02 -0.58,-2.17 -0.5,-0.39 -0.24,-0.68 -0.41,0.42 0.79,1.35 0.01,2.22 0.11,0.97 -2.84,0.53 -1.43,-0.94 0.91,-0.38 0.48,-0.45 -0.19,-0.62 1.21,-0.84 -0.62,-1.26 0.46,-0.78 -0.2,-0.71 -1.45,0.57 -0.51,1.23 -0.99,0.48 -0.99,0.86 -0.17,0.58 -1.43,2.6 -0.95,0.6 0.16,1.45 -2.55,0.68 -1.14,-0.47 -1.31,-0.29 -0.32,-0.08 -1.02,0.34 -0.62,0.19 -0.47,0.49 -1.45,-0.49 -0.4,-0.77 -0.94,-0.69 -0.61,-0.72 0.54,-1.56 0.65,-0.89 0.46,-0.96 -0.46,-0.22 -0.14,-0.9 1.46,0.01 1.95,-1.22 0.7,0.15 1.01,-0.8 1.4,-0.64 -0.85,-0.06 -0.08,-0.49 0.99,-0.95 -1.76,0.55 -0.57,-0.57 0.23,-0.52 1.26,-0.1 -0.09,-0.44 -1.59,0.01 -1.3,1.17 -0.85,0.27 -0.43,1.57 -0.97,-0.61 -0.27,-2.01 -0.69,-0.9 -1.21,0.71 -0.17,2.84 -1.49,1 -0.73,-0.37 -0.67,0.25 -0.34,-0.48 -2.63,0.41 -1.25,-0.49 -0.46,-2.47 -1.56,-0.65 -0.97,-1.18 -0.54,1.19 -0.77,-0.02 -0.38,0.56 -0.94,0.9 -1.87,-2.1 -2.06,1.23 1.81,-3.51 1.18,-1.46 2.31,0.71 0.48,0.36 1.05,0.84 1.02,-2.11 -0.53,-0.58 -0.97,-1.09 -1.2,-0.71 1.01,-0.8 -0.36,-0.87 -1.07,0.08 -1.18,-0.72 -0.64,-0.69 -0.17,-0.56 0.28,-0.82 -0.7,-2.05 -2.02,0.28 -1.38,-0.47 0.62,-0.58 -0.13,-0.59 1.67,-0.71 0.87,-0.42 1.05,0.83 0.64,-0.34 -0.28,-1.22 0.05,-0.37 1.64,-0.07 0.51,0.47 1.22,-0.19 0.71,0.77 1.08,-0.5 1.99,0.53 0.2,0.51 -0.57,0.38 0.93,1.3 1.52,-0.06 0.72,-0.35 0.98,-0.29 -1.45,-0.77 0.03,-0.82 -2.89,-1.11 -1.35,-1.66 -0.28,-1.69 1.81,0.37 1.48,-0.47 1.94,1.08 2.06,0.27 1.5,-0.36 0.29,-0.6 0.36,-0.75 1.58,-0.23 -0.33,-0.91 0.74,-0.57 -0.49,-1.95 -2.21,-0.44 -0.18,-0.51 0.45,-2.14 -0.8,-2.03 1.56,-4.41 -0.26,-1.19 -0.59,-0.36 0.23,-1.07 5.21,-0.71 2.5,-1.24 0.69,0.03 0.34,0.73 3.06,-0.08 3.49,-1.33 0.3,0.66 1.01,0.04 0.28,-0.65 1.51,0.51 1.89,0.18 -0.04,-0.49 0.33,-0.71 2.19,-1.04 -1.38,-0.1 -1.99,-0.01 -1.8,-1.31 -0.17,-0.78 0.52,-0.98 0.49,-0.49 -0.36,-0.87 0.97,-0.7 1.48,-1.19 -1.48,-0.45 1.2,-0.49 -0.23,-0.29 -0.57,-0.41 0.5,-0.24 1.98,-1 -1.41,-0.41 -0.71,0.53 -0.42,0 -0.77,-0.39 -0.75,-0.39 -0.55,-0.04 -1.46,0 -0.86,-0.14 -1.04,0.05 -2.48,0.14 0.04,-0.48 -1.45,-0.17 -0.02,1.03 -2.58,-1.12 -0.52,0.64 -1.17,1.78 -3.33,1.37 -2.34,0.38 -1.27,-0.86 -0.37,-0.82 0.31,-1.26 -0.35,-2.41 0.93,-0.5 0.92,-1.74 -0.96,-1.11 0.49,-1.41 0.87,0.7 0.66,-0.77 2.44,0.1 0.88,0.95 0.94,0.29 0.84,-0.49 0.1,-1.07 0.26,-1.52 -1.01,-0.09 0.09,1.2 -0.57,1.45 -0.69,-1.93 -1.31,0.16 0.21,-2.88 -0.5,-0.77 -1.58,-1.07 0.18,-0.68 -0.98,-0.82 -0.79,-2.16 1.01,-0.76 -0.26,-2.06 -2.07,1.07 -1.28,-0.55 -1.44,0.46 0.3,-2.14 -1.41,-2.24 3.07,-0.78 0.64,-1.12 0.63,0.27 0.46,-0.52 -0.17,-0.95 -0.61,-0.3 -0.51,0.92 -1.6,-1.71 0.12,-1.14 1.75,0.71 0.43,-0.73 -0.92,-0.47 -0.97,-1.16 1.06,-1.19 0.71,-1.17 0.45,-0.58 -2,-0.27 -0.29,0.36 -2.07,-1.94 -0.31,-1.03 4.03,1.2 3.22,-0.62 -0.01,-0.81 -1.06,-0.31 0.55,-0.48 0.31,-1.24 0.71,-3.03 3.15,-1.2 0.83,0.52 0.2,-1.6 -2.39,-0.77 -1.39,-0.31 0.01,-1.68 0.37,-0.65 1.15,-0.01 1.79,-1.81 1.7,-0.14 1.31,0.43 1.18,1.24 2.16,0.37 1.11,0.62 1.69,0.41 1.38,-1.2 3.94,0.16 0.9,0.26 0.03,0.79 2.74,0.42 0.89,-0.25 0.29,-0.87 1.32,0.19 1.68,1.13 1.35,-0.47 2.36,0.3 0.14,1.26 0.6,0.22 2.28,-2.66 0.03,-0.88 1.37,1.17 3.72,0.85 0.95,1.35 0.25,1.9 0.95,0 0.82,-0.95 0.56,1.31 -0.89,3.19 1.6,-0.04 -0.19,1.85 -0.86,0.67 -0.71,0.7 3.97,1.72 -0.36,1.07 1.31,0.74 0.54,0.69 0.75,-0.29 -0.16,-1.68 -0.52,-1 2.52,-0.98 -0.13,-1.08 2.65,-5.22 -0.35,-0.76 0.5,-1.51 7.55,0.16 1.53,0.83 1.13,1.41 1.819997,1.09 0.44,-0.34 1.91,1.33 1.93,-0.87 2.01,-2.01 0.52,0.26 -0.02,0.95 1.64,0.54 2.67,-1.03 1.27,0.04 2.38,2.62 1.57,2.68 1.27,1.63 0.53,-0.05 0.14,-0.97 3.38,-0.29 -1.63,-1 -1.7,-0.41 0.01,-0.78 -2.01,-2.18 -1.32,0.59 1.12,-2.2 -0.3,-0.92 1.39,0.05 0.14,0.67 1.16,0.19 1.48,-0.53 1.7,0.34 0.81,-0.62 1.04,0.55 0.65,-0.48 -2.84,-2.13 -3.19,-0.43 0,-3.19 1.21,1.69 2.25,0.73 0.98,-0.55 0.06,-1.12 -1.94,-0.31 -0.57,-0.55 -3.2,-0.61 -1.63,0.93 -1.84,0.4 -0.47,-1.25 -1.45,-0.67 -0.09,-0.73 0.16,-0.59 2.16,-1.04 1.17,0.18 0.51,-1.19 2.95,-1.32 1.3,-0.65 3.7,-2.19 0.14,-0.93 1.23,-1.29 -0.08,-0.96 -0.95,-0.54 1.19,-0.95 -0.11,-0.92 0.95,-0.27 0.23,1.62 1.29,0.29 1.9,-0.92 4.01,-0.72 1.44,-0.87 1.83,0.11 -0.06,-1.04 1.13,-0.45 0.58,-2.23 -0.73,-1.6 3.51,-2.37 -0.7,-2.31 0.21,-0.43 0.85,0.12 2.46,-2.45 -0.03,-3.13 0.96,0.36 0.13,2.13 0.81,-0.21 0.22,-2.01 1.43,-1.1 -0.86,-0.36 0.78,-1.94 -1.53,0.37 -1.91,0.71 -1.22,0.29 -3.04,2.43 -3.96,1.84 0.41,-2.25 1.18,-1.46 -0.97,-1.19 -3.38,1.76 -0.64,1.64 -2.46,2.3 -2.38,0.77 -0.7,0.66 0.07,0.69 -1.41,0.75 1.04,-1.45 -0.01,-0.81 3,-1.04 1.3,-1.57 -0.69,-1.78 -0.35,-0.18 -1.76,1.38 -1.05,0.17 1.23,-3.58 -0.52,-0.1 -1.15,1.68 0.38,0.65 -0.31,0.79 -1.82,1.92 -0.64,-0.11 0.25,-1.04 -0.43,-0.35 0.64,-0.84 -0.19,-1.22 -3.5,1.87 -2.67,0.62 -0.51,-0.27 -2.15,-0.19 -0.68,-0.48 -3.12,0.36 -0.31,-0.93 0.49,-0.49 -0.96,-1.09 -5.05,-1.56 -0.02,-0.88 -1.18,0.5 0.61,-3.22 -0.63,0.14 -0.68,-0.63 0,-0.93 0.49,-0.4 0.96,0.52 1.18,-0.82 1.01,0.21 0.86,-0.52 -1.09,-0.05 -0.02,-1.66 0.56,-0.7 -0.31,-0.43 2.47,-0.59 0.19,-1.02 0.88,-0.92 1.02,0.16 0.37,-1.09 4.61,-0.88 3.7,1.45 1.33,-0.56 0.2,0.73 -0.62,0.09 0.37,0.31 1.06,-0.3 1.81,0.71 2.34,-0.13 -2.09,-0.21 -0.26,-0.79 -1.06,-0.6 -2.4,-0.21 -1.43,-1.04 0.09,-0.66 1.9,0.56 2.66,-0.66 0.16,1.03 0.62,0.03 0.53,1.19 1.82,0.82 0.6,-1.34 -1.67,-0.26 -0.4,-1.38 -0.33,-0.39 -0.38,-0.64 -2.62,-0.1 0.11,-0.9 -2.01,-0.76 0.33,-0.89 -2.52,-0.26 1.47,-0.96 1.92,0.81 0.45,-0.46 -0.32,-0.9 1.01,-0.87 2.84,0.88 1.43,-1.27 0.99,0.55 0.66,0.28 0.91,0.32 0.26,-1.13 -0.57,-3 1.13,0.31 1.23,-0.78 1.83,0.98 -0.19,-0.69 1.04,-0.81 -2.06,-0.39 -0.3,-1.75 -1.08,0.92 -1.06,-0.58 0.37,1.71 -0.62,0.55 -1.6,-1.58 -2.07,-0.7 -0.87,-0.84 -0.1,-1.2 0.68,-0.14 0.22,-0.65 -0.86,-0.61 0.23,-0.92 1.16,-0.11 0.09,0.57 -0.12,0.39 0.26,0.19 1.53,-0.09 1.35,-0.89 0.42,0.52 1,-1.05 -3.19,-1.19 -0.26,-0.95 -1.67,-1.68 0.52,-0.4 -1.08,-1.04 0.18,-0.84 1.77,-0.61 0.13,0.68 1.21,0.37 -0.49,-1.43 0.96,-1.12 -0.83,-0.92 0.43,-0.81 0.54,-0.14 0.65,0.99 0.87,-0.92 1.06,0.2 0.45,-0.94 -0.51,-1.31 1.57,-1.05 0.35,-1.01 -0.36,-1.07 0.72,-0.52 -0.14,-2.04 1.29,-1.49 -0.26,-1.48 0.7,-0.66 -0.44,-0.58 0.7,-0.9 3.35,1.07 0.75,-0.37 0.46,0.67 2.85,0.17 0.89,-0.6 0.33,-1.4 0.84,0.03 0.29,0.8 -1.94,1.44 -0.67,-0.12 0.93,0.54 -0.41,1.39 0.59,0.22 0.53,-0.75 0.52,0.43 -0.13,0.83 0.42,-0.5 -0.26,-1.88 0.9,0.46 0.34,-1.56 -0.41,-0.72 3.41,-0.57 1.28,-1.27 0.89,0.36 0.7,-0.35 0.54,-1.14 -0.6,-0.51 0.7,-0.82 -0.68,-0.2 0.45,-1.7 1.57,-0.31 0.67,-0.97 1.02,1.47 1.58,-0.23 0.17,0.57 -0.28,1.32 -1,0.73 -0.94,-0.04 -0.52,0.86 1.65,-0.57 1.6,1.07 1.16,-1.41 1.05,0.44 -0.26,1.3 1.35,0.32 -2.23,2 2.48,-1.41 1.2,0.45 -0.68,1.48 -1.64,0.37 -0.98,1.45 1.18,-0.71 0.72,0.18 0.13,-0.61 0.68,0.9 -0.18,0.88 0.81,-0.14 -0.28,-1.21 1.3,-1.12 -0.62,-0.52 1.09,-1.08 0.4,-1.55 -0.82,-1.73 -0.8,0.51 -1.41,-1.29 0.38,-3.09 0.5,0.42 1.04,-0.6 0.9,0.74 0.63,-0.13 -0.24,-1.31 0.86,0 0.2,-1.4 0.94,0.37 0.06,2.42 -1.05,0.69 -0.15,1.54 -0.58,0.68 1.01,1.19 -0.27,1.06 0.65,0.03 -0.02,-0.73 0.54,0.47 0.06,-0.52 1.11,0.18 0.31,-0.61 0.69,0.81 -0.19,0.46 0.82,0.43 0.09,-0.89 0.81,0.64 1.09,0.99 1.4,2.56 -1.58,4.76 0.87,-0.84 0.23,0.9 0.55,-0.61 -0.28,-0.77 1.64,-5.17 -0.89,-0.78 0,-1.98 -1.04,0.59 0.14,-1.52 -0.45,0.39 -0.77,-0.76 0.18,-0.74 0.94,0.58 -0.7,-2.17 0.42,-0.93 -0.49,-0.48 -0.91,0.95 0.2,1.72 0.49,0.03 -0.58,0.73 0.23,1.21 0.84,0.6 -0.38,1.44 -2.13,-1.9 -0.21,-0.63 0.67,0.28 0.2,-0.68 -0.81,-0.28 -1.38,0.81 -0.85,-1.53 -0.82,-0.14 -0.24,-0.98 2.47,-2.48 0.02,-0.42 0.61,-0.84 0.52,-0.01 0.63,-0.63 0.37,0.87 1.54,-0.11 0.65,-0.76 -0.13,-1.01 0.79,0.2 1.46,-1.54 1.53,0.03 -0.25,0.53 0.51,0.25 1.52,3.96 -0.31,1.71 -1.06,1.51 1.41,1.84 0.67,-0.18 1.25,0.9 -0.16,1.19 2.17,2.97 1.17,0.54 0.25,1.62 -0.77,0.87 0.31,1.15 -0.52,1.12 -3.12,1.4 -0.77,0.86 -0.03,1.3 -1.68,0.44 -1.02,1.24 0.09,0.79 0.88,-0.84 0.98,0.34 1.95,-1.19 0.63,0.17 0.5,1.16 -0.02,0.94 -1.41,1.62 -3.56,2.5 -1.13,2.96 -1.57,1 0,0.86 0.42,-0.63 2.19,-0.64 0.35,-0.8 0.77,0.8 1.73,-3.32 3.57,-3.28 0.84,0.44 0.6,-0.48 0.25,-1.78 1.11,0.06 0.85,-0.67 0.48,0.41 1.2,-0.22 0.57,-0.72 -0.77,-2.86 -1.38,-1.49 0.09,-1.26 1.33,-2.1 -0.26,-1.89 -0.75,-0.11 -0.82,-1.94 -1.04,-0.56 -1.07,-2.49 -2.21,-1.21 0.94,-0.74 -0.62,-0.47 0.77,-2.33 1.13,-1.08 -0.94,-1.02 1.19,-0.79 0.36,-1.02 0.03,-0.66 -1.04,-1.13 0.33,-0.6 1.08,-0.43 2.21,0.95 0.25,-1.6 0.93,0.64 0,0.81 1.38,0.33 -0.31,-0.83 0.98,-0.49 2.16,-0.01 0.53,-2.53 0.72,-0.29 1.71,0.57 0.67,1.07 0.69,-0.14 0.59,1.1 -0.55,0.56 -2.1,-0.26 -0.08,0.73 2.01,-0.05 1.82,1.16 1.01,-0.78 0.38,0.58 1.18,-0.18 -1.31,-1.23 0.86,-0.58 -1.47,0.2 -3.4,-2.1 -0.27,-1.51 -1.15,-0.82 0.29,-2.88 -1.52,-0.19 -1.18,-1.65 -0.49,0.06 1.74,-0.88 0.16,0.11 z" 
                fill="rgb(151, 144, 238)" 
                stroke="white" 
                stroke-width=".7px"
                title="Ireland" 
                id="IE" 
            />
        </svg>