<svg xmlns="http://www.w3.org/2000/svg" viewBox="661.0016999999996 1060.1179 89.17999999999995 59.32999999999993" width="89.17999999999995" height="59.32999999999993">
            <path 
                d="m 701.5317,1060.1179 0.01,1.66 3.54,1.51 -0.07,2.06 0.63,0.47 3.8,0.76 1.67,1.17 4.27,0.83 3.09,2.24 1.5,2.84 -0.41,1.26 0.64,-0.39 -0.21,0.42 2.02,-0.1 1.99,-1.01 -0.06,-0.59 0.17,0.6 2.79,-0.81 4.52,0.12 3.91,-0.84 2.31,0.48 2.64,-0.78 1.3,0.3 1.16,-0.59 1.89,0.06 1.09,-0.73 2.42,0.16 0.73,-0.54 1.31,1.99 -1.33,5.25 -2.75,0.85 -0.19,2.87 1.35,5.9 0.07,5.6 -1.67,3.44 -2.32,1.01 0.03,0.87 -0.35,-0.55 -1.27,0.41 -0.24,0.41 0.59,0.49 -0.59,-0.07 0.89,0.34 -1.55,-0.17 -2.23,1.14 -2.59,0.29 -1.16,0.6 -0.16,1.05 -1.06,0.32 0.39,0.31 -6.15,0.83 -3.98,2.15 -2.03,2.2 -1.54,2.71 -0.2,2 0.66,4.36 -0.37,2.03 -2.13,0.14 -5.78,-1.08 0,0 0.95,-1.12 -0.75,-1.98 -0.62,0.13 -0.29,-0.57 -0.73,1.19 -1.06,0.36 0.03,-0.7 -1.83,-2.81 -0.45,0.18 0.06,-1.56 -2.53,-0.97 -1.68,0.24 -0.28,0.48 -1.88,-0.97 -0.98,-1.44 -1.52,0.59 -0.61,-0.59 -3.59,1.42 -1.79,-0.74 -0.27,-1.07 -4.11,-0.87 -0.37,-0.39 0.32,-1.47 -3.35,-1.35 -0.03,-0.53 -0.4,0.2 -0.68,-0.58 0.23,-0.94 -0.84,-0.02 -0.61,-0.68 -1.91,0.41 0,-1.49 0.51,-0.55 -1.52,-0.11 -0.64,-0.66 0.04,-1.07 -3.22,0.28 0.11,0.77 -1.96,-0.25 -1.15,-0.96 -3.44,0.91 -1.28,-0.84 0,-1.06 0.7,-0.53 -1.44,-0.7 -3.85,0.67 -1.47,-0.25 0,0 -0.01,0 0,0 -0.52,-2.37 0.39,-1.44 -1.2,-3.06 1.55,-3.67 -0.69,-3.53 0,0 0.01,-0.02 0,0 -0.32,-0.93 1.02,0.31 0,0 2.05,-0.75 0,0 -0.52,-0.88 0.14,-1.04 2.06,-1.37 0.04,-1.46 1.16,0 0.65,-2.29 0,0 0.03,-2.6 0,0 0.92,0.04 -0.86,-1.58 0.15,-1.23 0,0 1.37,-2.3 0,0 1.92,-1.11 0.51,-2.1 0.77,-0.72 0,0 3.27,2.48 2.5,-1.22 1.17,1.79 1.22,0.36 3.48,-0.04 1.89,-0.63 0.75,-1.78 0,0 1.1,-2.08 1.55,-0.58 z" 
                fill="rgb(151, 144, 238)" 
                stroke="white" 
                stroke-width=".7px"
                title="Kent" 
                id="GB-KE" 
            />
        </svg>