<svg xmlns="http://www.w3.org/2000/svg" viewBox="462.3117000000003 775.6178900000001 78.82999999999981 96.44000000000051" width="78.82999999999981" height="96.44000000000051">
            <path 
                d="m 479.3317,782.48789 1.11,0.15 1.28,-0.78 0.04,-0.9 1.09,-0.85 1.91,1.26 1.21,-0.31 0.94,0.51 -0.13,1.62 3.56,0.85 0.59,-1.66 1.47,-1.21 0.45,-1.52 0.94,0.7 3.08,-0.01 4.81,-2.57 2.51,-2.15 -0.08,1.38 0,0 -1.2,2.62 -3.06,3.52 -0.34,1.27 -1.66,0.49 -0.18,3.25 1.17,0.6 0.5,1.4 0.79,0.21 0.01,0.8 0.91,-0.09 2.84,2.16 -0.39,2.61 0.71,1.08 2.11,0.28 3.25,-1.17 0.76,0.9 0.29,2.3 0.87,0.19 0.25,0.85 -0.8,-0.12 0,1.69 0.78,0.56 1.33,-0.46 1.54,2.06 4.02,-0.76 0.59,0.39 -0.69,0.71 0.39,1.08 1.87,-0.9 1.04,2.52 -0.18,1.13 0.79,-0.18 0.43,1.04 1.93,0.08 1.21,1.18 0.63,2.61 1.36,1.63 -0.54,0.79 0.55,-0.19 2.21,2.11 -0.05,2.2 -5.12,3.24 0.22,1.16 -0.73,0.85 0.35,2.97 -0.91,1.7 -0.68,0.08 -1.08,1.31 0.67,2.52 1.09,0.73 0.11,1.46 0.59,-0.76 1.01,1.53 1.95,0.05 0.25,-0.77 2.01,-0.6 -0.16,1.3 1.14,1.31 -0.35,1.93 0.7,0.49 0.42,2.12 0.87,-0.06 1.97,3.17 1.95,1.54 0.28,1.12 1.88,1.05 0.2,1.4 0.98,0.51 1.38,-0.67 -0.51,2.04 0,0 -0.49,0.98 0,0 -1.48,2.95 -2.56,1.96 -2.7,5.21 0,0 -0.17,0 0,0 -1.62,-0.55 -0.17,-0.99 -0.8,0.29 -1.05,-0.48 -1.48,0.59 -0.6,-1.17 -0.89,0.48 -1.27,-0.89 0.01,0.36 -1.36,-0.01 -0.28,0.83 0.48,0.66 -1.8,0.96 -0.43,-1.32 0.63,-1.11 -0.49,-0.04 -0.13,0.52 -0.75,-0.4 -0.28,0.97 -1.28,0.91 0.05,1.26 -0.46,0.46 -1.23,0.2 -0.01,-1.15 -0.4,0.52 -0.48,-0.29 0.11,-1.35 -0.71,0.66 -1.28,-0.94 0,0 -1.01,-0.89 0,0 -0.07,-0.51 -1.42,0.59 -1.26,-0.59 -1.58,2.49 -2.29,-0.05 -0.11,0.48 -1.68,0.1 -1.28,-0.38 0.3,-1.03 -0.8,-1.41 -0.77,-0.31 -1.15,-2.7 0,0 0.19,-1.15 -0.45,-0.54 0,0 -3.54,1.39 0.22,0.66 -1.34,0.32 -0.92,1.97 -0.86,-1.12 0.16,0.82 -0.94,0.03 -1.04,0.84 -0.72,-1.05 -2.39,-0.89 -0.31,1.46 0.84,-0.23 -0.41,0.86 0,0 0.74,0.43 0,0 -0.56,0.72 0.35,0.61 -0.59,3.01 -0.91,0.24 -1.39,-0.55 0,0 -0.16,-0.89 -1.86,-0.35 0,0 -0.8,2.27 -1.2,-0.03 -0.66,2.6 -1.38,0.14 -0.61,1.6 -0.74,0.21 0,0 -0.69,-0.36 -0.39,1.01 -1.09,-0.09 -5.84,-4.02 -1.42,-1.47 -1.87,-5.47 -0.85,-1.91 -3.16,-3.99 -0.92,-2.39 -2.32,-1.75 0.41,-1.11 0.14,-0.57 2.37,-6.74 0.98,-0.34 0.58,-0.92 0.79,-2.87 4.07,-5.48 2.83,-2.46 2.18,-0.85 0.81,-1.3 -4.44,0.59 -4.92,-0.84 -2.71,-2.66 1.49,-11.47 -0.58,-2.29 0.67,-1.73 1.32,-1.5 3.09,-0.58 6.3,-3.05 -1.39,-3.36 -0.17,-2.97 -1.47,-0.32 0.2,-0.49 0.51,-2.33 0.4,-0.55 1.27,-1.01 2.19,-0.94 2.88,-2.95 -0.32,-4.74 -2.05,-0.92 -0.92,-1.8 z" 
                fill="rgb(151, 144, 238)" 
                stroke="white" 
                stroke-width=".7px"
                title="Lancashire" 
                id="GB-LA" 
            />
        </svg>