<svg xmlns="http://www.w3.org/2000/svg" viewBox="557.4816999999999 909.1678899999999 60.44000000000017 66.07999999999993" width="60.44000000000017" height="66.07999999999993">
            <path 
                d="m 581.3417,925.00789 1.24,3.01 -0.74,4.26 0.39,1.32 1.24,-0.28 0.76,0.74 0.38,1.53 2.88,-0.45 0.11,-0.61 0.85,1.32 1.24,-0.14 1.86,-2.27 -0.59,-0.47 -0.54,0.44 -0.15,-0.91 -0.48,-0.45 -0.67,0.33 -0.73,-0.89 4.67,-1.94 0.64,-3.67 0.54,-0.4 2.84,-0.06 0.36,-2.08 1.1,-0.32 1.97,-2.31 -0.78,-1.12 1.49,-0.22 3.6,-2.65 -0.05,-1.19 2.39,-2.94 -0.72,-0.18 0.11,-0.46 0.78,-1.08 0.43,0.33 0.98,-1.95 1.2,-0.08 0,0 -0.01,1.84 1.48,1.01 -1.38,4.66 1.15,0.45 -0.51,1.42 1.51,0.38 3.8,7.38 -0.06,1.81 1.29,4.06 0,0 0.01,0 0,0 0.7,0.52 -0.95,1.48 -1.03,-0.25 -0.67,-1.05 -2.54,-0.04 -2.9,1.33 -0.71,1.02 -0.6,8.05 -2.91,2.26 -0.01,0.92 3.59,5.22 1.13,0.71 3,3.9 0,0 -0.04,-0.01 0,0 -0.85,0.41 -1.42,2.33 -2.16,0.82 -2.7,1.93 -3.27,0.64 -1.6,3.5 -5.92,-0.09 -4.34,3.72 -2.58,0.14 -2.51,1.68 -1.21,2.26 -2.65,0.48 -2.16,1.19 0,0 -3.71,-8.61 -2.73,-0.89 -0.99,-1.23 -1.44,-0.45 -1.08,0.07 -1.95,1.71 -1.94,-0.52 -1.63,-3.4 -0.42,-2.37 -0.8,-0.29 -0.48,-1.67 -2.58,-1.89 -1.36,-2.96 -0.71,-2.24 0.52,-2.09 -1.07,-2.53 0,0 -0.06,-1.45 0,0 0.59,-2.6 1.58,-1.7 0,0 -0.05,-0.05 0,0 1.56,-1.53 1.17,-3.1 4.71,-5.4 2.25,-0.43 1.05,-1.84 4.39,-0.42 0.82,-1.03 3.97,-0.54 1.85,-1.12 0,0 z" 
                fill="rgb(151, 144, 238)" 
                stroke="white" 
                stroke-width=".7px"
                title="Leicestershire" 
                id="GB-LE" 
            />
        </svg>