<svg xmlns="http://www.w3.org/2000/svg" viewBox="599.1417000000005 830.6478899999997 82.22000000000014 117.01000000000033" width="82.22000000000014" height="117.01000000000033">
            <path 
                d="m 680.7217,895.12789 -7.02,4.52 -1.34,1.82 -4.37,2.54 -2.89,3.62 -2.09,4 -3.18,1.88 -0.97,1.59 0.42,1.52 1.66,0.45 -0.33,0.29 6.84,1 3.68,4.27 0.17,2.09 3.43,1.26 1.31,-0.88 0,0 -1.23,2.74 0.49,0.14 -1,1.2 1.71,1.21 -2.46,1.3 -2.94,2.58 -0.93,-0.28 -1.04,4.55 0,0 0,0 0,0 -2.12,0.17 -1.65,1.33 -1.04,0.09 -0.31,2.87 -2.01,1.9 -5.32,1.11 -4.6,-0.12 -1.29,1.23 -1.51,0.54 -7.77,-2.03 -0.68,-0.59 -1.61,0.42 -0.95,0.9 -4.49,0.47 -4.03,-0.43 0,0 -0.01,-0.04 0,0 -0.14,-1 -1.36,-1.24 0,0 -1.79,-2.59 1.01,-0.47 2.24,-2.6 0.38,-1.58 -1.8,0.05 -1.14,-1.03 -1.88,-0.38 0.16,-1.56 -1.65,-0.69 -0.41,-0.84 -2.06,0.27 -0.31,-0.96 -3.22,0.42 0,0 -0.07,0.02 0,0 -1.29,-4.06 0.06,-1.81 -3.8,-7.38 -1.51,-0.38 0.51,-1.42 -1.15,-0.45 1.38,-4.66 -1.48,-1.01 0.01,-1.84 0,0 -1.62,-3.71 0.52,0.2 0.46,-1.59 1.74,-0.37 0.71,-2.68 1.16,0.08 1.09,-0.63 0.01,-0.59 1.16,-0.03 -0.21,-0.96 -0.75,-0.41 0.27,-0.41 -1.48,-1.52 0.81,-1.91 -0.99,-1.22 1.08,-0.95 -0.5,-1.9 0.32,-2.32 -2.89,-0.45 0.12,-0.7 0.53,0.01 1.46,-2.37 0.99,0.33 1.08,-1.32 1.37,0.27 0.59,-2.31 -1.35,-1.96 -2.9,0.46 -0.06,1.06 -2.65,-0.32 0.81,-2.72 -0.87,-1.15 0.92,-1.64 0.79,0.61 0.24,-1.12 -0.43,-0.96 0.25,-1.13 -1.04,-0.62 0.62,-1.01 -0.51,-0.67 0.39,-0.82 -1,-1.11 -1.05,0.09 0.32,-1.15 0.68,-0.34 -0.96,-0.85 0.84,-0.42 0,-0.75 -0.69,-0.78 -0.04,-1.15 -0.93,-0.2 -0.91,-1.02 -0.16,-1.46 1.45,-1.51 -4.68,-1.18 -0.11,0.5 -2.68,0.13 -0.25,-0.55 1.24,-1.02 -2.2,-2.88 0,0 0.21,-0.86 -1.12,-0.32 0.22,-1.44 3.05,-0.57 0.35,-0.49 -0.56,-1.11 0.65,-1.97 -0.64,-0.23 0.2,-1.54 2.6,-3.2 0.68,-2.81 3.62,-1.04 1.75,-1.07 3.97,-4.29 4.65,-2.48 1.45,0.28 1.53,1.78 2.25,1.23 2.3,-0.13 2.09,-1.19 1.86,-0.33 0,0 0.07,0.64 0.55,-0.03 -0.83,0.17 0.65,0.2 7.87,-1.78 1.75,0.43 2.08,3.93 3.76,4.69 5.54,4.05 5.47,2.29 0.33,1.18 1.26,0.82 1.72,2.44 1.75,0.73 -0.28,0.23 2.06,0.02 1.02,1.2 2.99,1.77 4.72,8.6 1.85,6.35 4.07,8.95 1.8,7.74 z" 
                fill="rgb(151, 144, 238)" 
                stroke="white" 
                stroke-width=".7px"
                title="Lincolnshire" 
                id="GB-LI" 
            />
        </svg>