<svg xmlns="http://www.w3.org/2000/svg" viewBox="667.5817000000003 907.63789 101.09999999999991 65.84000000000026" width="101.09999999999991" height="65.84000000000026">
            <path 
                d="m 712.6117,907.70789 4.65,1.42 -1.05,0.1 0.45,0.13 1.94,-0.08 -0.53,-0.3 1.31,-0.43 10.64,3.36 8.73,1.08 4.58,1.96 5.57,3.88 10.81,9.5 5.97,7.38 2.89,8.97 0.11,6.02 -0.8,2.03 0.49,2.55 0,0 -0.93,0.15 -1.47,-1.42 -1.4,-0.34 0,0 -0.82,-0.25 -0.51,0.82 0,0 -1.41,0.49 0.1,0.38 0,0 -0.44,0.15 0.33,0.45 0,0 -0.45,0.62 1.08,0.7 0.49,1.43 1.13,-0.26 0.65,1.03 -1.46,2.59 -0.84,-0.33 -0.77,0.94 -0.97,-0.05 -2,-1.59 -1.17,0.42 -0.66,1.75 -1.76,-1.11 -0.5,0.67 -0.85,0.01 -1.7,-1.04 -2.22,1.63 -1.63,-1.54 -0.56,0.97 1.4,0.58 -0.05,1.1 -1.54,0.09 -1,1.07 -1.79,0.67 -0.45,0.65 0.3,0.83 -0.94,0.42 -1.48,2.05 -2.28,-0.17 -1.66,2.02 -2.94,1.62 -1.13,-0.63 -0.83,0.27 -4.22,-1.29 -2.27,-0.11 -0.68,-0.63 -2.63,0 -3.8,0.86 -2.25,-1.92 -1.59,0.32 -0.87,-0.52 -1.52,0.05 -0.72,-0.94 -0.91,-0.13 -2.06,1.15 -2.19,0.33 -0.47,-0.41 -1.16,0.74 -0.62,-1.23 -2.7,-0.18 -1.43,-0.85 0.12,-1.05 2.83,-3.52 -2.19,-0.37 -1.09,-0.96 -1.54,1.18 -1.37,-0.35 -0.3,0.57 -3.83,-0.74 -0.79,0.6 -0.8,-0.33 -0.37,0.54 -4.91,0.08 -1.02,1.13 -0.22,-0.46 -2.09,-0.17 0,0 -0.39,-1.2 0,0 -1.57,-1.09 -7.41,-1.15 -1.12,-0.95 -0.07,-2.87 -1.17,-0.68 1.07,-0.18 0.47,-0.67 -1.56,-0.62 0.46,-0.44 -0.58,-0.75 0.68,-0.38 -0.6,0.12 -0.03,-0.69 0.79,-0.62 -0.73,-0.51 0.8,-0.56 -0.16,-0.87 -1.02,-0.34 -0.26,-2.02 -3.32,-0.89 -0.28,-2.19 1.25,-4.95 -0.19,-1.39 0,0 0,-0.08 0,0 1.04,-4.55 0.93,0.28 2.94,-2.58 2.46,-1.3 -1.71,-1.21 1,-1.2 -0.49,-0.14 1.23,-2.74 0,0 1.48,0.16 3.92,3.7 0.94,-0.54 -0.15,-2.2 3.24,-3.82 2.33,-3.74 1.83,-6.73 2.63,-2.79 2.87,-0.7 3.06,0.75 0.24,-0.49 0.78,0.04 -0.61,-0.05 0.25,-0.34 2.34,-0.52 9.35,0.99 -0.38,0.23 1.53,-0.15 0.23,-0.7 0.84,-0.24 -0.73,-0.32 z" 
                fill="rgb(151, 144, 238)" 
                stroke="white" 
                stroke-width=".7px"
                title="Norfolk" 
                id="GB-NF" 
            />
        </svg>