<svg xmlns="http://www.w3.org/2000/svg" viewBox="571.3317000000002 944.03789 66.06999999999994 70.14000999999973" width="66.06999999999994" height="70.14000999999973">
            <path 
                d="m 613.3217,956.24789 1.4,0.77 2.07,-0.42 1.75,-1.57 2.77,-0.87 4.71,-6.11 0.72,-1.48 0.27,-2.53 0.74,0.08 0,0 1.36,1.24 0.14,1 0,0 0.02,0.06 0,0 -1.68,3.21 0.98,0.85 -0.14,1.77 1.71,0.82 3.44,0.52 0.03,1.27 -0.74,1.09 3.73,1.97 -0.32,1.72 1.12,2.36 -0.65,0.52 -0.17,6.5 -0.63,1.02 -3.72,1.8 -1.24,1.43 -0.38,1.79 -1.1,0.48 0.11,1.26 1.15,0.74 0,0 0.03,0.03 0,0 -2.3,4.12 -2.07,0.73 -1,-0.2 -1.19,-1.13 -0.94,-0.01 -1.4,1.08 -0.88,1.52 -0.05,2.48 -2.84,1.07 -1.28,2.69 0,0 -0.03,-0.01 0,0 -2.05,0.17 -3.8,3.06 -0.22,-0.78 -1.12,0.53 -0.51,2.13 -2.26,2.52 -4.9,2.73001 -0.61,0.93 0.3,2.31 -0.43,0.67 -2.22,0.39 -2.86,-2.17 -2.8,-0.11 0.99,0.97 -1.38,0.17 -0.08,0.97 -2.24,2.44 -2.06,1.42 -3.49,0.22 -1.03,0.92 -0.52,0.76 1.47,1.4 0,0 -0.01,0.02 0,0 -1.43,0.56 -0.92,-0.21 -5.44,2.25 -2.07,-1.76 -2.21,-5.94 -0.04,-1.86 0.18,-1.1 2.12,-2.83 -0.28,-0.82001 -1.53,-0.37 -0.7,-1.66 -1.34,0.05 0.76,-1.2 0,0 0.09,-0.06 0,0 0.92,-0.75 0.96,0.16 1.08,-3.99 1.16,-1.67 3.66,-0.76 -0.38,-1.85 -0.9,-0.62 0.17,-0.56 -0.76,-1.14 1.12,0.35 0.78,-1.27 0.78,-0.06 -1.54,-2.94 -1.11,-0.87 -0.24,-1.2 0.27,-1.62 1.76,-2.59 0,0 2.16,-1.19 2.65,-0.48 1.21,-2.26 2.51,-1.68 2.58,-0.14 4.34,-3.72 5.92,0.09 1.6,-3.5 3.27,-0.64 2.7,-1.93 2.16,-0.82 1.42,-2.33 0.85,-0.41 0,0 z" 
                fill="rgb(151, 144, 238)" 
                stroke="white" 
                stroke-width=".7px"
                title="Northamptonshire" 
                id="GB-NA" 
            />
        </svg>