<svg xmlns="http://www.w3.org/2000/svg" viewBox="144.86170000000013 665.58789 172.44999999999996 133.03000000000054" width="172.44999999999996" height="133.03000000000054">
            <path 
                d="m 251.3917,665.58789 0.73,0.03 0.79,1.24 2.49,0.35 0.35,0.53 2.67,-1.47 1.01,0.29 2.65,1.45 1.23,-0.12 3.38,2.84 3.6,-1.11 1.41,-1.41 1.11,0.02 1.43,1.75 3.32,1.34 0.86,2.55 1.11,0.67 0.48,2.66 -1.01,1.54 0.33,2.86 -1.06,2.07 -0.41,2.62 1.1,0.9 3.04,-0.71 1.88,1.15 -0.89,4.75 -0.91,1.96 0.23,0.67 1.44,0.19 0.6,1.2 1.24,-0.05 1.04,0.93 1.4,2.2 1.23,3.58 1.16,0.94 1.04,-0.05 0.32,1.9 1.62,1.6 1.02,2.15 1.02,-1.06 1.11,-0.19 2.23,1.23 2.28,4.6 0.11,4.23 -1.32,2.37 -2.35,2.13 -5.93,2.25 -0.45,1.03 -2.91,2.44 -1.41,3.99 0.3,1.23 -0.28,1.55 0.01,0.66 0.89,-0.01 1.02,-0.65 0.42,-1.84 1.7,-0.57 3.38,-2.92 3.65,-1.83 1.69,1.22 2.22,-0.27 1.43,-0.31 0.57,0.77 0.91,-0.82 0.05,-0.89 1.26,0.49 1.86,-0.21 3.26,3.72 -0.04,2.93 0.65,2.08 2.76,3.8 -0.36,2.86 0.77,1.22 0.54,2.94 1.85,1.26 -0.63,1.04 0.45,2.22 -0.8,0.45 -0.46,1.55 -0.85,0.12 -0.58,0.76 0.87,1.72 0.25,2.93 -0.63,0.54 -0.58,-0.22 -0.59,0.76 -0.22,1.26 0.72,0.52 -1.06,0.96 0.2,1.04 -0.57,1.1 -0.68,-1.39 -0.75,0.15 -0.25,-2.03 -0.65,-0.2 -0.65,-1.87 -1.83,-2.07 0.23,-2.47 1.79,-1.27 0.82,-0.33 0.43,-1.69 -0.7,-0.81 0.43,-0.77 -0.41,-0.81 -0.14,-0.89 0.23,-1.04 -0.53,-0.26 -0.9,-4.02 -0.82,-0.17 -0.4,0.25 -0.97,-0.97 0.03,-0.76 -5.48,-3.79 -1.03,1.6 0.14,2.37 -1.36,0.82 0.29,0.36 1.82,0.32 0.21,1.47 0.9,-0.28 0.67,0.62 -1.14,0.71 0.08,1.79 0.4,0.19 0.85,0.7 0.52,1.3 0.38,0.99 0,0.6 0.29,0.71 -0.48,0.28 -0.26,0.72 0.79,0.73 -0.6,0.58 -0.45,1.61 0.51,1.48 -0.53,0.32 -0.22,1.7 -1.89,0.91 0.13,0.7 1.96,0.34 0.63,-0.87 1.54,-0.69 2.69,-0.42 -0.26,1.15 0.55,0.74 0.33,-1.1 0.76,0.65 0.56,5.44 0.23,0.67 -0.61,0.57 -0.91,2.42 -1.94,2.39 -0.58,0.3 -0.52,1.18 -0.46,0.23 -0.32,-0.95 -0.43,-0.34 -0.42,-0.39 -0.49,0.62 0.48,1.54 -1.48,1.72 -1.25,-2.43 -0.91,-0.27 -1.75,0.15 -0.5,-0.45 -1.68,0.74 -4.01,0.4 -0.79,-1.47 1.08,-0.16 -0.14,-2.55 -1.33,2.62 -1.17,0.86 -0.03,1.22 0.43,-1 0.95,-0.56 0.44,1.31 -3.19,2.54 -0.62,1.19 0.97,1.91 0.18,2.27 -1.48,6.3 -3.56,3.09 -0.69,1.6 -1.75,0.17 -1.92,2.45 -2.48,1.62 -2.96,-1.8 0.5,-0.94 1.51,0.11 -1.28,-1.61 -4.41,-0.4 -1.19,-0.82 -0.5,-2.11 -0.78,-0.62 -3.96,-0.04 0,0 -1.23,-1.07 -0.69,0.07 -1.5,1.9 -0.79,-0.31 -0.3,-2 -1.48,0.04 0.01,4.43 -1.12,0.44 -0.4,0.82 -1.6,-0.31 -1.84,0.52 -0.96,-1.54 -1.31,-0.56 -0.3,0.69 0.47,0.57 -1.38,0.32 -0.8,1.05 -1.24,-0.52 -1.63,0.73 -2.05,-0.47 -0.3,1.03 -1.82,0.77 -1.54,-2.36 -0.97,-0.13 -0.18,-0.79 0.58,-0.68 -0.19,-1.93 1.01,-0.22 -1.11,-2.78 0.65,0.08 1.23,-2.72 0.06,-1.05 -0.93,-2.06 -1.08,-1.74 -1.45,-0.28 -0.51,-0.61 -1.35,0.57 -0.44,1.37 -1.23,-0.07 -0.93,-1.6 -1.26,-0.14 -1.65,-1.56 -0.08,-0.91 -0.79,-0.16 -0.84,-3.96 -0.62,-0.5 -0.65,0.2 -1.47,-1.63 0.01,-0.78 0.75,0.42 -0.15,-0.67 0.5,-0.43 -0.11,-2 -1.67,-4.09 -1.18,-0.31 -0.28,-1.96 -0.67,-0.83 -0.55,0.22 -2.24,-2.5 -1.36,-0.96 -1.04,0.26 -0.25,-0.7 -1.31,-0.74 -1.77,0.9 -2.01,3.42 -1.53,1.23 0.47,1.34 -1.11,0.22 -2.18,1.88 -2.04,-0.41 0.59,1.66 -0.25,1.4 -0.85,-0.1 -0.59,0.59 -0.27,1.34 2.24,1.04 -0.34,1.16 1.05,-0.05 1.21,2.25 -0.87,0.87 0.55,0.63 -0.02,1.72 -1.5,0.45 -1.14,-0.7 -0.82,0.9 -1.52,0.38 -0.22,0.81 -1.2,0.23 1.02,0.75 -1.36,0.38 0.13,1.79 0.79,0.86 -1.02,0.94 -0.63,1.52 0.2,1.04 -1.02,0.8 -0.1,0.74 -1.12,0.04 -0.59,-1.09 1.42,-0.61 -0.94,-0.89 0.94,-0.84 0.35,-1.46 -0.72,-0.51 -1.09,0.41 -1.87,2.47 0.62,0.85 0.58,-0.06 0.73,1.45 -0.6,0.86 -0.41,-0.92 -1.4,1.04 -0.88,-1.83 -1.81,1.06 -0.09,-0.71 1.13,-1.21 -3.01,0.31 -0.31,-0.59 1.16,-1.22 -1.16,0.08 0,0 -0.55,-0.29 0,-1.33 -2.47,-2.82 -0.82,-3.54 -1.12,-1.49 -0.24,-1.25 -2.79,-1.81 -1.04,0 -0.4,0.85 -1.57,0.75 2.69,2.79 1.41,0.16 0.83,3.46 1.89,1.04 -0.21,2.69 1.8,1.95 0,0 -0.75,1.9 -3.1,-0.96 -1.09,1.37 -1.22,-0.69 -0.75,-1.5 -1.53,-0.06 -1.27,-1.06 -0.38,-2.02 -1.97,-1.76 -1.06,0.53 -0.67,-2.62 -3.13,0.43 -0.87,-0.87 -3.45,0.45 -0.58,0.55 -2.69,-1.57 -0.27,-4.77 -0.82,-1.32 0.16,-1.39 0.74,-0.78 -1.38,0.12 -0.39,-0.82 -0.74,-0.2 -0.58,0.69 -0.79,-0.96 -1.67,-0.29 -3.23,-4.55 0.11,-0.84 -2.19,-0.01 -2.01,-1.57 -1.5,-3.24 -4.49,-4.1 1.11,-1.33 -2.06,-1.54 3.43,-0.34 2.4,-1.95 2.43,0.08 0.14,-2.04 2.28,-4.3 1.22,0.21 1.11,-0.52 1.06,1.56 5.99,-0.36 0.55,0.38 1.38,-1.05 -0.36,-1.27 2.14,-1.81 0.07,-0.9 1.96,-0.62 0.88,-1.33 2.93,-1.06 0.44,-0.94 -0.61,-0.35 0.33,-0.75 -0.35,-0.66 -2.02,1.54 -1.26,-0.58 -0.75,0.28 -2.55,-2.44 -1.06,1.25 -1.48,0.27 -0.39,-2.17 -2.55,-0.92 -0.4,-0.63 -0.45,-1.32 0.92,-1.36 -0.82,-0.24 -0.46,-1.22 2.47,-0.14 1.34,-2.19 1.71,-1.5 0.82,0.24 1.01,1.64 3.5,1.41 0.63,-0.98 3.72,-1.67 2.36,-2.02 1.42,0.76 1.69,-0.09 0.84,0.07 1.93,0.15 0.6,-1.01 -0.73,-0.7 0.12,-3.52 1.29,-1.87 2.84,-1.84 2.36,-5.3 -0.59,-2.43 0.3,-4.22 0.81,-0.81 2.48,-0.4 -0.63,-1.15 0.26,-2.2 -0.41,-0.79 1,-1.51 -0.68,-1.15 0.69,-1.56 2.77,-3.2 1.81,0.55 1.23,-1.14 0.87,0.64 0.82,-1.46 0.87,-0.33 0,0 0.43,2.5 1.11,-0.51 0.42,-1.18 0.65,0.04 0.52,0.13 1.57,-0.37 1.98,0.23 0.39,1.41 1.15,0.46 4.73,-0.83 0.4,-0.2 0.17,-0.83 1.89,-1.9 -0.51,-1.21 0.09,-0.5 0.82,-1.59 1.08,-0.33 1.4,-5.17 0.01,-4.09 1.25,0.26 3.64,2.46 10.02,-0.11 0.66,-2.06 3.77,-1.06 0.31,-0.53 -0.46,-0.97 1.04,0.85 3.33,-0.36 2.68,-1.36 0.37,0.43 1.01,-0.97 -0.21,-0.91 1.56,-0.78 0.14,-0.67 1.45,-0.66 z" 
                fill="rgb(151, 144, 238)" 
                stroke="white" 
                stroke-width=".7px"
                title="Northern Ireland" 
                id="GB-NI" 
            />
        </svg>