<svg xmlns="http://www.w3.org/2000/svg" viewBox="489.7217000000007 603.45789 80.95999999999987 113.55000000000075" width="80.95999999999987" height="113.55000000000075">
            <path 
                d="m 530.9917,603.45789 2.25,3.37 0.13,0.46 0.48,0.85 0.08,1.48 1.92,2.74 3.46,2.75 5.87,1.98 1.89,0.32 0.05,2.22 -0.9,0.48 1.82,3.49 1.86,1.45 2.84,1.08 1.57,2.32 1.59,0.88 -0.29,0.92 1.19,1.42 -0.24,0.46 0.6,0.2 -0.88,0.45 -0.04,1.36 0.76,1.04 0.49,-0.23 -0.42,0.62 0.76,0.19 -0.61,0.72 0.67,0.42 -0.51,1.25 1.46,0.84 -0.05,3.91 0.44,1.24 -0.37,0.91 1.12,0.45 0.24,0.7 -0.44,0.35 0.28,0.83 -0.52,-0.1 0.65,1 -0.35,-0.22 0.08,0.59 -1.07,0.33 0.06,0.86 -0.88,1.17 0.05,1.44 0.94,2.57 3.01,2.97 -0.61,0.56 0.57,0.68 -0.75,0.1 -0.92,1.96 0.16,2.65 1.11,2.67 1.59,1.64 -0.41,0.64 0.32,1.03 1.53,2 0.19,0.86 -1.05,0.49 -0.61,2.47 2.24,4.72 -0.59,0.35 0.28,1.31 1.96,2.94 0.29,-0.22 -0.03,0.57 0.55,-0.14 -0.16,1.91 1.54,1.79 -0.31,0.52 0.77,1.65 0.99,0.51 -0.88,-0.21 -0.9,0.91 0,0 -0.64,0.35 -0.17,0.97 0,0 -0.5,0.87 -0.83,0.16 0,0 -3.36,0.01 -0.9,0.82 0,0 -0.35,1.86 -0.97,0.34 0,0 -0.77,-0.53 0,0 -1.83,-0.72 -2.82,1.23 -3.69,-1.23 0,0 -0.02,-0.01 0,0 -0.71,0.38 0,0 -2.29,-1.59 0,0 -1.45,0.07 0,0 -0.09,-0.03 0,0 -1.08,-0.33 -1.54,0.91 0,0 -0.12,0.73 0,0 -0.62,0.75 0,0 0.09,0.74 -0.68,0.48 0.43,2.3 -0.9,0.06 -0.71,1.37 1.98,1.25 -1.54,0.96 0,0 -0.13,0.78 -0.44,-0.15 0.22,0.7 0,0 -1.18,2.54 0,0 -0.01,1.13 -1.11,0.81 -0.58,-0.25 -0.89,0.98 0,0 -0.19,0.32 -0.27,-0.74 -0.56,-0.05 0.36,-0.13 0,0 -0.03,-0.75 0,0 -0.68,-0.53 -1.03,0.13 0,0 -1.47,-0.79 0.11,-0.35 0,0 -1.9,-0.67 -2.43,2.32 0,0 -3.66,1.27 -2.65,-0.56 -0.21,1.63 -1.33,1.21 -0.33,1.33 0,0 -1.83,-0.34 -1.28,2.65 -4.01,-1.73 -1.85,0.79 0,0 -0.7,-0.43 -0.26,-1.12 -1.32,-0.19 -1.52,-2.21 -1.09,-0.52 -1.36,-2.65 -0.7,1.48 -1.86,1.18 -0.53,-0.23 -2.2,2.61 -2.21,0.46 -1.74,-1.17 -1.53,-3.17 0.59,-0.84 -2.02,-3.36 1.83,-1.35 0.64,-2.46 1.15,-1.18 0,0 -0.77,-0.44 0,0 -0.7,-1.56 0.18,-1.09 -1.7,-0.56 -0.37,-0.86 1.77,-1.78 0.35,-1.64 -0.41,-0.11 0.08,-1.38 2.9,-1.82 0,0 1.05,-0.37 0,0 0.32,-0.06 1.38,-0.33 -1.3,-2.47 0.74,-0.62 -0.57,-0.77 0.94,-0.86 -1.02,-0.85 -1.87,0.88 -1.88,-0.08 0.24,-0.59 -0.64,-0.82 -0.96,-0.08 -0.62,-0.89 -0.34,-2.14 -2.12,-0.35 -1.53,-0.92 -1.28,-2.12 -0.37,-1.23 0.55,-1.02 -0.96,-1.44 0,0 0.62,-1.87 0,0 0.82,-1.71 0.93,0.19 1.16,-0.55 0,0 0.22,-2.15 1.18,-0.3 -2.23,-1.41 1.18,-0.23 0,0 1.19,-2.34 1.36,-0.98 0,0 0.89,-0.72 0,0 0.45,-0.5 0,0 0.67,-1.51 0,0 2.25,-0.68 1.98,-3.16 1.48,-0.16 0,0 1.28,-0.65 0.8,0.23 0,0 0.17,0.07 0,0 1.45,0.02 0,0 0.39,0.53 0,0 0.61,0.4 0,0 0.09,-0.02 0,0 3.04,-1.98 -0.27,-0.67 0,0 0.33,-0.41 0,0 0.6,-0.6 -0.94,-2 0.72,-0.62 0,0 -0.02,-0.42 1.3,0.14 0.54,-0.56 0,0 0.68,-0.66 0,0 1.16,-0.84 0,0 0.93,-0.75 2.04,0.28 0,0 1.52,-0.89 0.91,-2.52 1.52,-0.8 -2.18,-0.73 0,0 -0.27,-1.1 0,0 -0.12,-0.89 0,0 -1.42,-1.82 0.19,-1.75 -0.92,-3.21 -3.12,-3.07 0,0 0.26,-1.63 -0.5,-0.89 0,0 -1.4,-1.77 0.47,-0.87 -0.99,0.24 0,0 -0.74,-0.65 0.69,-1.21 1.47,-0.48 1.16,0.47 0,0 1.28,-0.14 0,0 1.45,0.45 0,0 0.09,0 0,0 0.42,-0.53 -1.03,-0.79 1.13,-1.13 0,0 0.75,-0.22 -0.08,-0.99 1.69,-2.4 0,0 1.24,-1.08 0,0 0.42,-0.29 0,0 -0.64,-1.29 1.78,-0.79 0,0 -0.05,-0.68 0,0 0.33,-0.83 0,0 1.04,0.18 0,0 1.31,-1.18 -0.18,-1.08 0.61,-0.48 0,0 0.89,0.03 -0.17,-2.93 0,0 1.02,-0.99 0,0 0.31,-0.34 0,0 2.08,-1.43 z" 
                fill="rgb(151, 144, 238)" 
                stroke="white" 
                stroke-width=".7px"
                title="Northumberland" 
                id="GB-NB" 
            />
        </svg>