<svg xmlns="http://www.w3.org/2000/svg" viewBox="548.5516999999998 996.5678900000004 52.319999999999936 68.08000999999979" width="52.319999999999936" height="68.08000999999979">
            <path 
                d="m 572.0917,996.68789 -0.76,1.2 1.34,-0.05 0.7,1.66 1.53,0.37 0.28,0.82001 -2.12,2.83 -0.18,1.1 0.04,1.86 2.21,5.94 2.07,1.76 5.44,-2.25 0.92,0.21 1.43,-0.56 0,0 0.01,-0.01 0,0 2.17,0.21 0.16,0.68 -0.95,1.1 -0.37,2.54 0.12,4.42 0.58,1.36 0.61,5.68 -0.35,0.76 -2.38,1.5 -0.44,1.01 0.3,3.89 3.69,2.41 7.09,0.69 3.18,1.81 -0.48,4.59 -2.57,2.41 -0.19,1.94 1.67,7.35 3.31,3.33 0,0 0.58,0.6 0,0 0.14,2.1 -3.39,2.3 -2.03,0.4 -4.19,-0.23 -4.36,-1.06 -5.92,-4.77 -9.88,-2.16 -0.57,-0.7 -1.13,1.16 -0.24,-0.99 -1.31,0.92 -1.07,-0.21 0.09,0.84 -0.83,-0.12 -0.92,0.99 -1.66,0.28 -4.15,-0.99 -0.68,0.89 -0.66,-0.19 -1.23,0.94 0,0 -1.21,0.05 0,0 -1.02,-2.13 -4.07,-2.77 -0.79,-3.92 1,-4.54 -1.09,-1.09 -0.23,-1.08 0,0 0,-0.01 0,0 -0.34,-1.3 0.47,-1.44 -0.91,-5.14 0.82,-4.32 -0.22,-2.89 2.74,-5.48 0.54,-3.42 -0.4,-2.78 -1.09,-1.97 -0.05,-2.15 1.05,-2.66 1.75,-1.04 0,-3.05 0,0 0,0 0,0 0.55,0.52 2.48,-0.78 0.44,0.57 -3.3,4.1 0.37,0.84 0,0 -0.31,0.97 0.4,1.16 0.64,0.25 0,0 -0.19,0.41 1.25,0.07 1.83,-1.3 0.77,0.15 -0.38,-0.9 1.43,0.3 0.53,-4.59 1.54,-5.16 0,0 2.86,-2.59 0.83,-2.21001 0,0 1.51,0.77 0.2,1.17 0,0 0,0 0,0 1.59,0.30001 1.72,-3.60001 1.7,0.07 0,0 z" 
                fill="rgb(151, 144, 238)" 
                stroke="white" 
                stroke-width=".7px"
                title="Oxfordshire" 
                id="GB-OX" 
            />
        </svg>