<svg xmlns="http://www.w3.org/2000/svg" viewBox="605.6016999999999 931.73789 23.989999999999668 25.2800000000002" width="23.989999999999668" height="25.2800000000002">
            <path 
                d="m 613.3217,956.24789 -3,-3.9 -1.13,-0.71 -3.59,-5.22 0.01,-0.92 2.91,-2.26 0.6,-8.05 0.71,-1.02 2.9,-1.33 2.54,0.04 0.67,1.05 1.03,0.25 0.95,-1.48 -0.7,-0.52 0,0 0.06,-0.02 0,0 3.22,-0.42 0.31,0.96 2.06,-0.27 0.41,0.84 1.65,0.69 -0.16,1.56 1.88,0.38 1.14,1.03 1.8,-0.05 -0.38,1.58 -2.24,2.6 -1.01,0.47 1.79,2.59 0,0 -0.74,-0.08 -0.27,2.53 -0.72,1.48 -4.71,6.11 -2.77,0.87 -1.75,1.57 -2.07,0.42 -1.4,-0.77 0,0 z" 
                fill="rgb(151, 144, 238)" 
                stroke="white" 
                stroke-width=".7px"
                title="Rutland" 
                id="GB-RT" 
            />
        </svg>