<svg xmlns="http://www.w3.org/2000/svg" viewBox="455.47169999999966 907.10789 61.110000000000184 73.86999999999978" width="61.110000000000184" height="73.86999999999978">
            <path 
                d="m 487.3817,908.50789 1.74,-1.27 1.55,1.02 2.64,-1.15 0.67,1.04 0.9,-0.17 0.12,0.93 0.68,-0.02 -0.17,1.73 0.71,0.8 1.58,-1 2,1.85 0.5,-2.82 0.92,0.97 0.95,-0.29 0.67,0.93 2.92,-1.12 -0.23,-1.67 1.73,-0.25 0.21,-0.81 0.5,0.04 0,0 0.03,0.01 0,0 0.01,1.55 -4.92,4.21 -0.85,3.4 1.47,2.8 0.63,-0.16 0.74,0.82 0.24,-0.71 1.06,-0.23 0.33,0.65 0.88,4.38 -0.68,0.79 0.88,0.55 0.33,3.56 1.55,1.34 1.87,6.27 1.19,0.83 1.31,2.39 2.53,0.14 0.01,2.79 -3.11,4.34 -0.74,-0.03 0.12,1.99 1.25,0.03 0,0.52 -0.27,4.33 -1.13,3.56 0.31,4.89 -0.86,1.35 0.3,1.4 1.59,2.42 -0.12,0.85 0,0 -1.2,-0.05 0,0 -1.66,1.14 0.94,1.02 -1.18,-0.37 -1.73,0.52 0.02,3.53 -3.51,0.88 -4.01,1.89 -0.06,0.72 -1.08,0.44 -1.36,-0.28 -2.22,0.8 -1.68,2.09 0,0 -0.01,-0.01 0,0 -0.97,0.38 -0.66,-0.55 0.67,-1.92 -0.62,-0.73 0.26,-0.81 -0.82,-0.33 -0.4,-0.95 -1.01,-0.05 -0.07,-0.73 -0.58,-0.02 -0.98,1.76 -0.25,0.86 0.58,0.09 -0.13,0.41 -1.91,0.31 -0.79,-1.21 -0.77,0.05 -1.34,-1.01 -0.53,-0.7 1.17,0.13 0.98,-2.12 -0.68,-0.4 -3.07,0.26 -0.01,-1.89 -0.93,-0.07 0.12,-1.26 -0.8,-0.31 -2.32,-0.44 -0.55,0.7 -1.55,0.36 -0.29,1.14 0,-0.57 -1.55,-0.68 -0.29,1.14 1.35,0.81 -1.59,0.03 -0.8,0.61 0.36,1.13 -1.35,0.09 0,0 0,0 0,0 -1.25,-0.57 -4.19,1.07 -1.23,-0.4 -3.11,-2.93 -2.78,-1.13 -0.39,-1.24 -1.15,-0.99 -2.56,-1.24 -0.62,-1.77 0,0 -0.31,-1.04 0,0 2.36,-2.81 1.09,0.2 2.45,-1.81 2.08,-0.79 3.88,0.02 0,0 0.34,-0.11 0,0 0.68,-0.17 -0.44,-0.99 0.3,-1.13 0,0 1.76,0.11 0,0 0.6,-3.23 -0.87,-2.24 -1.74,0.26 -1.57,1.7 -1.68,0.42 -0.41,0.63 0.82,0.63 0,0 -1.1,0.69 0,0 -2.3,0.4 -0.04,-0.66 1.41,-0.9 -1.55,-3.11 -0.11,-1.23 0.62,-0.05 0,0 0.67,0.04 0,0 1.83,-1.42 -0.23,-1.01 1.27,-1.98 0.82,-0.31 -1.43,-0.98 1.99,-0.69 0.76,-2.82 -0.4,-0.08 -0.08,-1.59 0.8,-0.25 0.84,-2.83 0,0 0.16,-0.18 0,0 1.98,0.02 0,0 0.67,-0.19 0,0 -0.12,0.91 0.91,0.02 -0.1,-1.77 -1.67,-0.19 -0.35,-0.41 0.4,-0.52 -1.9,-0.88 0.65,-0.76 -0.38,-0.86 -1.02,-0.03 -0.91,0.02 -1.58,-0.24 -1.01,-0.83 0.12,-1.87 -1.26,0.33 -0.72,0.91 -2.52,-1.02 -0.22,-0.52 0.47,-0.4 0,0 -0.3,-0.4 0,0 -0.54,-0.12 -0.01,-1.23 1.02,-2.45 -0.71,-0.48 2.19,-2.14 -1.22,-0.85 0.04,-0.84 -0.02,-0.65 0.63,-0.45 1.45,0.09 0.29,-2.54 0.86,-1.23 1.24,0.5 2.57,-0.41 1.62,-2.79 1.7,-0.3 0.64,-0.1 1.66,1.51 1.17,0.66 1.46,-0.51 0,0 0.77,-0.7 0,0 3.25,0.93 0.03,0.85 1.72,2.04 0.79,1.93 2.8,-3.02 1.78,-0.27 0.18,-3.12 -0.69,-1.35 0.45,-1.04 0,0 z" 
                fill="rgb(151, 144, 238)" 
                stroke="white" 
                stroke-width=".7px"
                title="Shropshire" 
                id="GB-SP" 
            />
        </svg>