<svg xmlns="http://www.w3.org/2000/svg" viewBox="417.4517 1060.4979 100.23999999999995 67.95999999999935" width="100.23999999999995" height="67.95999999999935">
            <path 
                d="m 487.3317,1060.5179 0.67,-0.02 0,0 2.04,1.97 1.44,-0.61 0.67,1.3 1.08,0.72 0.52,1.79 -0.9,0.84 0.66,0.31 -0.48,1.43 0.53,0.72 -0.42,0.91 0.31,0.49 0.68,-0.23 1.7,0.71 1.37,-0.21 0.62,-1.24 1.1,0.43 1.28,-1.83 -0.2,-0.92 1.14,1.02 1.04,-0.44 -0.07,1.09 0.74,-0.35 0.73,0.57 7.94,-2.38 1.15,0.26 0.78,1.46 1.13,-0.64 0,0 0.62,0.54 0,0 0.39,0.76 -0.77,1.02 0,0 0.57,0.85 -0.94,0.24 0.3,2.55 -3.29,2.42 1.27,-0.22 0.92,0.79 0.85,-0.25 -0.26,1.02 1.71,0.95 0.07,0.87 -0.82,0.48 0.52,0.55 -0.21,1.17 0.93,-0.39 0.74,0.64 0.51,3.61 -3.33,7.85 -2.1,2.97 -0.03,0.78 -0.86,0.45 0.08,0.87 -1.26,0.58 0.23,1.98 2.2,1.93 0,0 -1.52,1.09 1.26,2.74 -1.93,1.61 -1.3,2.02 0.28,1.41 1.39,-0.01 0.65,1.2 -4.43,1.82 -0.82,-1.08 -1.21,0.35 0.27,0.82 -0.84,1.03 -2.15,-2.33 -0.75,-2.1 -1.51,0.19 -0.55,-0.74 -0.77,-0.02 0.13,1.44 -0.68,0.55 -0.39,0.18 -0.77,-0.89 -0.72,0.98 -0.62,-0.44 -0.47,0.5 0.53,1.41 -0.21,1.36 -1.12,0.8 0.76,1.38 -0.68,0.35 -0.58,1.53 0.91,1.62 -0.41,0.99 -2.8,-0.54 -1.15,0.96 -2.23,0.63 -0.01,0.72 -2.7,-0.3 -0.25,0.6 -1.24,0.08 -0.69,0.72 -1.22,-1.05 -1.1,1.47 -0.87,0.13 -0.15,-0.42 -2.13,0.51 -0.45,-0.41 -2.76,0.96 -1.52,1.96 0,0 -0.87,-1.25 -0.34,-2.18 -1.57,0.47 -0.81,-0.62 -1.6,0.6 0.14,-1.27 -1.27,-1.06 0.16,-3.31 0,0 -0.01,-0.05 0,0 -4.65,0.66 -1.27,0.99 -2.6,-1.86 0.96,-1.5 0.38,-2.21 -5.56,0.58 -2.37,-1.3 -2.55,-2.76 -2.87,0.36 -0.04,-3.6 0,0 -0.2,-0.36 0,0 -1.74,-0.09 -0.95,-1.19 -2.19,0.62 -1.46,-0.86 -2.31,0.79 0.07,1.11 -1.01,1.11 -4.71,-0.44 0,0 -0.28,-0.56 0,0 1.24,-4.14 -1.28,-0.15 0,0 -0.27,-0.31 0,0 -1.86,0.13 -0.09,-0.55 -2.65,-1.65 -1.73,-0.02 -2.98,-2.49 -2.32,-0.99 -1.88,-2.44 -0.31,-3.69 3.32,0.5 3.92,-0.86 -0.51,-1.06 0.36,-1.1 -0.33,-1.31 0.75,-1.85 0,0 5.28,0.84 0.88,0.83 2.01,-0.71 0.69,-0.82 2.2,-0.11 2.91,0.76 1.92,1.41 0.85,-0.44 3.18,2.92 3.34,0.28 4.54,0.03 5.04,-2.08 6.27,-1.17 2.06,-1.87 1.86,-1.18 -0.21,-0.5 -1.38,0.07 -1.25,-0.7 0.08,-0.5 2.19,-2.65 0.94,-3.37 0.51,-0.56 2.39,-4.73 0,-1.25 4.35,-1.23 1.76,-2.88 5.34,-5.68 1.81,-0.91 2.54,0.23 0.27,-0.81 z" 
                fill="rgb(151, 144, 238)" 
                stroke="white" 
                stroke-width=".7px"
                title="Somerset" 
                id="GB-SM" 
            />
        </svg>