<svg xmlns="http://www.w3.org/2000/svg" viewBox="502.24170000000004 884.63789 57.409999999999854 86.77999999999997" width="57.409999999999854" height="86.77999999999997">
            <path 
                d="m 508.0017,907.25789 1.14,-0.3 -0.13,-1.01 3.73,-3.53 3.49,-1.77 4.27,-3.61 4.76,-5.96 3.12,-0.49 5.75,-3.02 1.86,-1.47 0.38,-1.46 0,0 0.01,0 0,0 2.5,1.38 2.14,0.33 2.64,2.36 1.09,1.9 1.2,0.68 -0.37,3.32 1.89,2.9 -0.02,4.64 0.76,0.58 1.12,3.83 -1.75,2.68 -2.56,1.38 -0.44,3.13 -1.83,2.88 0.15,1.91 6.09,3.72 6.74,1.05 1.31,0.95 0.14,0.8 -2.34,2.74 0.08,1.88 -0.63,-0.6 -0.44,0.35 -0.01,0.9 -0.74,0.33 -0.94,1.81 0.3,0.89 -0.78,1.34 3.02,0.98 0.09,2.38 1.21,-0.38 0.68,0.52 2.13,-0.08 0.76,1.95 0,0 0.08,0.07 0,0 -1.58,1.7 -0.59,2.6 0,0 0.02,0.61 0,0 -0.68,0.62 -1.54,4.18 -1.45,1.65 -4.48,1.64 -5.62,-0.09 -3.35,1.32 0.57,0.55 -0.35,0.21 0.38,1.09 -1.37,0.64 0.07,3.1 -1.51,2.01 -2.02,1.08 -0.19,1.08 0,0 -1.04,0.27 -0.27,1.73 0,0 -0.34,0.22 0.36,0.43 -1.43,1.11 -1.87,0.16 0,0 -0.38,0.53 0.76,0.29 0,0 1.11,1.66 -0.06,0.89 0,0 -0.82,-0.5 0,0 -2.44,-1.58 -3.09,-0.79 -8.55,1.67 -2.88,-1.06 -0.72,-0.86 0,0 -0.38,-0.02 0,0 0.12,-0.85 -1.59,-2.42 -0.3,-1.4 0.86,-1.35 -0.31,-4.89 1.13,-3.56 0.27,-4.33 0,-0.52 -1.25,-0.03 -0.12,-1.99 0.74,0.03 3.11,-4.34 -0.01,-2.79 -2.53,-0.14 -1.31,-2.39 -1.19,-0.83 -1.87,-6.27 -1.55,-1.34 -0.33,-3.56 -0.88,-0.55 0.68,-0.79 -0.88,-4.38 -0.33,-0.65 -1.06,0.23 -0.24,0.71 -0.74,-0.82 -0.63,0.16 -1.47,-2.8 0.85,-3.4 4.92,-4.21 -0.01,-1.55 0,0 z" 
                fill="rgb(151, 144, 238)" 
                stroke="white" 
                stroke-width=".7px"
                title="Staffordshire" 
                id="GB-ST" 
            />
        </svg>