<svg xmlns="http://www.w3.org/2000/svg" viewBox="674.5116999999997 953.4378899999998 95.61000000000024 63.30001000000004" width="95.61000000000024" height="63.30001000000004">
            <path 
                d="m 683.5817,964.50789 2.09,0.17 0.22,0.46 1.02,-1.13 4.91,-0.08 0.37,-0.54 0.8,0.33 0.79,-0.6 3.83,0.74 0.3,-0.57 1.37,0.35 1.54,-1.18 1.09,0.96 2.19,0.37 -2.83,3.52 -0.12,1.05 1.43,0.85 2.7,0.18 0.62,1.23 1.16,-0.74 0.47,0.41 2.19,-0.33 2.06,-1.15 0.91,0.13 0.72,0.94 1.52,-0.05 0.87,0.52 1.59,-0.32 2.25,1.92 3.8,-0.86 2.63,0 0.68,0.63 2.27,0.11 4.22,1.29 0.83,-0.27 1.13,0.63 2.94,-1.62 1.66,-2.02 2.28,0.17 1.48,-2.05 0.94,-0.42 -0.3,-0.83 0.45,-0.65 1.79,-0.67 1,-1.07 1.54,-0.09 0.05,-1.1 -1.4,-0.58 0.56,-0.97 1.63,1.54 2.22,-1.63 1.7,1.04 0.85,-0.01 0.5,-0.67 1.76,1.11 0.66,-1.75 1.17,-0.42 2,1.59 0.97,0.05 0.77,-0.94 0.84,0.33 1.46,-2.59 -0.65,-1.03 -1.13,0.26 -0.49,-1.43 -1.08,-0.7 0.45,-0.62 0,0 -0.33,-0.45 0.44,-0.15 0,0 -0.1,-0.38 1.41,-0.49 0,0 0.48,-0.8 0.85,0.23 0,0 1.4,0.34 1.47,1.42 0.93,-0.15 0,0 1.75,5.15 -2.14,3.52 -0.36,4.92 -2.29,5.21 -0.93,3.74 -1.46,1.08 -1.23,2.36 -0.76,9.48 -2.66,10.26001 -6.59,3.6 -1.83,2.34 -0.96,2.42 -2.22,1.77 -1.67,2.37 -1.49,0.7 -1.65,2.54 -0.2,-1.91 -1.41,-1.04 -1.45,0.74 -0.86,-0.37 -2.33,0.84 0,0 -5.56,-0.2 -3.18,0.66 -0.44,-0.76 -0.5,0.49 -0.48,-0.22 -0.69,-1.01 -1.82,0.64 -1.24,-1.09 -1.94,-0.02 0,0 0.24,-0.46 -0.45,-0.35 0,0 -0.14,-0.52 0,0 -1.23,0.65 -1.12,-0.55 0,0 -2.24,0.28 -0.6,0.71 -1.07,-0.19 -0.81,0.77 -1.78,-0.81 -0.62,0.8 -2.25,-0.67 -0.1,-1.55 -0.93,-0.26 0.08,-1.25 -1.42,-1.35 0.13,-2.09 -1.65,0.4 -0.5,-0.23 0.38,-0.54 -1.01,-0.46 0.19,-0.93 1.06,-0.02 -0.83,-1.7 0.61,-0.59 -1.8,-1.62 -2.02,0.39 -1,-0.35 -1.05,1.02 -0.76,-0.44 -2.24,1.21 -1.28,0.02 -0.58,1.13 -1.96,-0.21 -0.59,0.61 -0.91,-1.61 -1.29,-0.9 -0.82,1.05 -0.97,-0.43 -2.11,0.7 0,0 -0.19,-1.74 -2.12,-2.77001 0.94,-4.52 0.97,-1.67 -0.24,-3.08 -1.21,-1.41 -3.48,-1.71 -4.3,-0.82 -0.2,-1.03 0.39,-1.47 1.27,-0.64 4.37,-0.14 0.69,-0.87 -0.29,-0.37 0.72,-1.52 -0.77,-5.52 -1.44,-4.85 0.29,-1.93 3.86,-2.51 0,0 z" 
                fill="rgb(151, 144, 238)" 
                stroke="white" 
                stroke-width=".7px"
                title="Suffolk" 
                id="GB-SF" 
            />
        </svg>