<svg xmlns="http://www.w3.org/2000/svg" viewBox="605.5017000000004 1065.4779 57.04999999999984 36.1899999999996" width="57.04999999999984" height="36.1899999999996">
            <path 
                d="m 622.9017,1065.4779 3.79,1.94 -0.06,1.36 0.58,0.61 4.19,-0.03 1.89,0.72 1.3,1.81 0.78,5.27 2.89,0.52 1.59,-1.08 1.12,0.02 2.6,3.19 1.89,0.27 2.08,1.84 3.64,1.76 1.12,-0.3 0.18,-2.39 1.25,-1.45 -0.18,-0.53 0.87,-0.54 1.35,0.53 2.7,3.09 3.4,0.2 0,0 -0.01,0.02 0,0 0.69,3.53 -1.55,3.67 1.2,3.06 -0.39,1.44 0.52,2.37 0,0 0.01,0 0,0 -3.77,0.28 -15.89,-1.48 -2.85,0.74 -1.79,1.18 -5.57,1.76 -4.76,2.2 -9.99,0.61 -6.56,-0.2 0,0 0.02,-0.04 0,0 -0.06,-1.17 -0.59,0.04 1.23,0 0.24,-0.89 -1.5,-0.5 -1.83,-3.53 -0.43,-0.29 -0.76,0.76 -1.06,0.02 0.55,-3.39 -1.47,-2.93 1.76,-2.86 1.01,-0.58 -0.17,-3.04 1.08,-0.68 -0.76,-1.06 0.34,-0.96 -2.3,0.34 0,0 -0.1,-1.37 0,0 -0.24,-0.97 1.8,-0.24 0,0 0.37,-1.7 0,0 1.85,0.97 2.72,-3.47 4.79,-2.08 2.47,0.37 -0.45,-0.61 1.16,-2.79 0,-1.41 2.06,-1.91 0,0 z" 
                fill="rgb(151, 144, 238)" 
                stroke="white" 
                stroke-width=".7px"
                title="Surrey" 
                id="GB-SR" 
            />
        </svg>