<svg xmlns="http://www.w3.org/2000/svg" viewBox="598.6616999999997 1095.1779000000001 114.81000000000029 43.02999999999929" width="114.81000000000029" height="43.02999999999929">
            <path 
                d="m 662.3417,1096.3779 0,0 0,0 1.47,0.25 3.85,-0.67 1.44,0.7 -0.7,0.53 0,1.06 1.28,0.84 3.44,-0.91 1.15,0.96 1.96,0.25 -0.11,-0.77 3.22,-0.28 -0.04,1.07 0.64,0.66 1.52,0.11 -0.51,0.55 0,1.49 1.91,-0.41 0.61,0.68 0.84,0.02 -0.23,0.94 0.68,0.58 0.4,-0.2 0.03,0.53 3.35,1.35 -0.32,1.47 0.37,0.39 4.11,0.87 0.27,1.07 1.79,0.74 3.59,-1.42 0.61,0.59 1.52,-0.59 0.98,1.44 1.88,0.97 0.28,-0.48 1.68,-0.24 2.53,0.97 -0.06,1.56 0.45,-0.18 1.83,2.81 -0.03,0.7 1.06,-0.36 0.73,-1.19 0.29,0.57 0.62,-0.13 0.75,1.98 -0.95,1.12 0,0 -2.79,-0.58 -2.04,0.19 -2.83,1.39 -3.69,3.81 -1.32,0.68 -3.72,1.33 -11.13,2.35 -2.69,1.18 -1.45,1.01 -1.28,2.28 -1.87,1.27 -2.68,3.74 -3.07,-0.28 -3.43,-2.05 -0.92,0.36 -1.14,-0.34 -3.29,-2.41 -0.91,0.13 0.28,0.47 -9.39,-3.44 0.05,1.22 -1.32,-0.27 0.19,-1.16 -0.75,-0.32 -7.83,-1.25 -3.47,0.51 -5.26,1.7 -11.11,0.71 -8.83,2.14 -2.65,1.34 -2.74,4.13 -4.71,-3.82 -3.31,-1.55 -1.15,-0.06 0,0 -0.94,-4.25 1.29,-4.4 -1.96,-2.64 1.09,-2.73 1.02,-0.61 -1.14,-1.86 0.65,-0.26 1.51,-4.85 0.91,-0.85 -0.23,-1.91 2.78,-2.29 0.55,-2.11 0.81,-0.25 0.73,0.79 0.32,-0.61 1.05,0.32 1.07,-1.58 1.62,-0.59 -0.24,-0.61 0,0 0,-0.02 0,0 6.56,0.2 9.99,-0.61 4.76,-2.2 5.57,-1.76 1.79,-1.18 2.85,-0.74 15.89,1.48 z" 
                fill="rgb(151, 144, 238)" 
                stroke="white" 
                stroke-width=".7px"
                title="Sussex" 
                id="GB-SX" 
            />
        </svg>