<svg xmlns="http://www.w3.org/2000/svg" viewBox="324.28169999999994 869.0178899999988 167.91000000000042 203.67001000000084" width="167.91000000000042" height="203.67001000000084">
            <path 
                d="m 452.6817,872.16789 0.92,1.67 1.4,0.47 3.93,2.92 1.73,1.97 1.1,0.38 3.03,2.74 0.8,0.38 0.49,-0.4 0.42,-1.95 0,0 0,0 0,0 1.44,0.09 0,0 5.44,4.24 1.3,1.81 0.53,1.16 -0.46,1.18 -3.91,1.48 -0.14,0.45 0.79,0.28 0.99,1.86 2.92,1.85 0.84,0.33 1.44,-1.01 -1.31,3.11 1.62,1.04 -0.13,1.24 1.05,0.95 0.14,0.75 -0.67,0.9 0.83,0.78 -0.04,1.91 0.71,0.05 0.67,2.27 1.98,0.66 0,0 0.66,-0.17 0,0 1.18,-0.22 0,0 0.63,0.09 0.27,0.7 0,0 1.61,0.19 0,0 0.5,0.19 -0.07,0.33 0,0 -0.45,1.04 0.69,1.35 -0.18,3.12 -1.78,0.27 -2.8,3.02 -0.79,-1.93 -1.72,-2.04 -0.03,-0.85 -3.25,-0.93 0,0 -0.77,0.7 0,0 -1.46,0.51 -1.17,-0.66 -1.66,-1.51 -0.64,0.1 -1.7,0.3 -1.62,2.79 -2.57,0.41 -1.24,-0.5 -0.86,1.23 -0.29,2.54 -1.45,-0.09 -0.63,0.45 0.02,0.65 -0.04,0.84 1.22,0.85 -2.19,2.14 0.71,0.48 -1.02,2.45 0.01,1.23 0.54,0.12 0,0 0.3,0.4 0,0 -0.47,0.4 0.22,0.52 2.52,1.02 0.72,-0.91 1.26,-0.33 -0.12,1.87 1.01,0.83 1.58,0.24 0.91,-0.02 1.02,0.03 0.38,0.86 -0.65,0.76 1.9,0.88 -0.4,0.52 0.35,0.41 1.67,0.19 0.1,1.77 -0.91,-0.02 0.12,-0.91 0,0 -0.67,0.19 0,0 -1.98,-0.02 0,0 -0.16,0.18 0,0 -0.84,2.83 -0.8,0.25 0.08,1.59 0.4,0.08 -0.76,2.82 -1.99,0.69 1.43,0.98 -0.82,0.31 -1.27,1.98 0.23,1.01 -1.83,1.42 0,0 -0.67,-0.04 0,0 -0.62,0.05 0.11,1.23 1.55,3.11 -1.41,0.9 0.04,0.66 2.3,-0.4 0,0 1.1,-0.69 0,0 -0.82,-0.63 0.41,-0.63 1.68,-0.42 1.57,-1.7 1.74,-0.26 0.87,2.24 -0.6,3.23 0,0 -1.76,-0.11 0,0 -0.3,1.13 0.44,0.99 -0.68,0.17 0,0 -0.34,0.11 0,0 -3.88,-0.02 -2.08,0.79 -2.45,1.81 -1.09,-0.2 -2.36,2.81 0,0 0.31,1.04 0,0 0.62,1.77 2.56,1.24 1.15,0.99 0.39,1.24 2.78,1.13 3.11,2.93 1.23,0.4 4.19,-1.07 1.25,0.57 0,0 -0.77,2.03 -2.15,0.79 -0.02,2.22 -0.65,1.22 0,0 -0.03,1.04 0.53,0.25 0,0 3.36,0.63 -0.9,0.35 0,0 -0.81,0.64 0,0 -1.75,-0.46 -1.92,0.77 -0.77,0.71 0.24,1.21 -1.84,0.27 -0.27,1.93 0.35,0.21 -1.83,1.28 0.39,1.94 -1.7,1.93 1.45,0.93 1.12,-0.78 0.55,0.71 -1.34,1.18 -2.63,0.64 0.03,0.49 0,0 -0.41,0.53 0,0 2.2,0.94 0.1,1.34 -1.1,0.37 -0.15,2.44001 2.15,2.79 0.29,1.07 -0.7,1.98 1.87,3.82 3.43,3.92 0.3,1.78 0.57,0.4 1.42,-0.41 0.58,2.32 4.77,-2.16 0.18,-0.75 0.82,0.01 1.93,1.12 -1.16,0.68 1.29,-0.24 0.42,1.17 0.91,0.09 1.26,1.53 2.09,1.05 -0.57,1.56 2.25,2.66 0,0 0.33,0 0,0 1.07,-1.05 0.37,0.92 1.05,-0.47 0.23,1.08 1.69,-0.18 1.01,0.96 0,0 -0.66,0.34 0.13,1.15 -1.24,0.9 0.55,0.84 -0.64,2.65 1.07,1.51 -0.57,1.7 -0.97,0.58 1.2,2.53 -0.15,0.5 -0.83,-0.02 0.93,0.8 -0.25,1.11 1.02,0.76 -1.72,0.64 -0.13,0.56 0.5,0.31 0.79,-0.39 0,0 -0.9,1.54 0,0 0.73,0.28 -0.01,1.12 0.77,1.22 0,0 -0.6,2.86 -2.14,1.14 -0.67,1.33 -0.76,0.08 -1.27,2.91 -2.17,1.46 -1.02,0.58 -1.08,-0.69 -4.11,1.32 -1.19,-0.3 0.74,-0.8 -0.39,-0.29 -0.73,-0.12 -1.94,-0.37 -3.1,0.52 -7.44,4.08 -2.14,2.15 -0.43,1.35 -1.38,1.09 -0.31,3.7 -2.08,1.01 -1.5,-0.75 -3.42,1.68 -1.88,-0.68 -2.1,1.12 -1.5,-0.3 -2.59,0.47 -0.95,-0.72 -8.66,-1.4 -2.1,-3.44 -2.65,-2.27 -1.19,-1.76 -3.05,0.15 -1,-0.45 -2.52,-3.32 -1.8,-5.21 -1.9,-1.27 0.29,-1.16 -2.59,-2.12 -1.26,0.46 0.06,-0.6 -0.98,-0.21 0.19,-0.37 -1.88,0.83 -1.78,-0.4 -1.24,0.51 -1.43,3.18 1.02,0.78 -3.41,0.28 -0.81,-0.51 -1.7,1.1 -3.87,-1.14 -1.79,0.98 0.58,1.39 -0.49,0.42 -2.58,-0.65 -0.68,0.36 0,0.83 -0.55,-0.09 -4.44,-2.5 -1.47,0.3 -0.25,-0.4 0.94,-1.23 -0.18,-1.71 -1.08,-1.85 3.28,-2.2 0.5,-2.31 1.56,-0.83 -1.19,-0.18 0.21,-0.64 2.45,-0.75 -0.82,-0.39 -1.51,0.36 -2.66,1.86 -0.54,-0.58 -1.61,-0.13 -3.49,-3.18 -0.72,-0.58 -1.79,-0.46 -1.41,0.03 0.17,-1.41 2.5,-1.12 -0.43,-0.31 -0.36,-1.08 -2.91,2.16 -1.53,0.12 -5.23,-1.37 -6.79,1.09 -1.32,1.42 -0.02,0.75 0.98,0.83 -1.22,1.28 -0.21,0.92 0.55,0.49 -1.23,1.19 -0.03,0.69 -2.76,-0.09 -0.06,0.9 -0.86,-0.03 -0.73,0.95 -3.12,-1.2 -1.78,0.08 -0.21,0.81 -2.11,0.98 -0.43,1.08 0.4,0.75 -1.05,-0.06 -0.82,1.49 -1.41,-0.1 -2.44,-1.53 -1.25,0.38 -3.27,-1.22 -0.2,-0.84 0.58,-0.71 -0.01,-0.38 -1.02,-2.34 -2.21,-0.51 -0.58,-0.6 -0.25,-0.09 -0.51,-0.83 1.34,-0.96 1.58,0.25 0.34,0.91 0.96,0.12 0.48,-1.46 1.5,-0.11 2.89,0.55 -0.3,0.57 0.71,0.32 -0.18,-1.38 1.08,-0.52 1.55,-0.53 1.13,0.45 0.74,-0.78 0.9,0.01 0.35,-0.89 0.09,-0.24 0.13,-1.49 -0.88,-0.89 0.68,-2.87 -0.56,0.38 -1.12,-0.43 1.1,1.03 -0.45,2.05 0.78,1.09 -0.31,1.84 -0.75,0.11 -0.82,0.63 -1.02,-0.36 -3.06,0.95 -3.12,-1.18 -1.82,0.35 -1.4,0.11 -0.8,-1.41 -1.09,1 -0.72,-0.6 -0.48,0.38 -1.72,-0.25 -0.33,0.78 0.65,0.57 0.01,1.38 -0.77,0.06 -0.44,0.76 -0.85,-1.03 0.01,-1.89 -0.8,-0.18 -0.66,-1.06 -1.4,0.33 0.34,-0.54 -1.54,-1.52 2.64,0.38 0.57,-2.17 1.02,0.09 1.67,-1.76 2.85,0.1 0.59,-3.64 -1.44,-4.74 -0.71,-1.02 -2.63,0.27 -0.03,-0.63 -1.87,0.04 -0.57,-0.67 -1.6,0.09 -0.23,0.48 -1.07,-0.34 -1.86,1.36 -0.08,-0.72 -1.41,0.35 0.79,-1.36 -0.54,-1.01 1.09,-0.92 -0.34,-0.89 -0.66,0.06 0.56,-0.64 1.12,-0.62 1.92,-0.11 1.35,-1.42 1.61,-0.28 -0.17,-0.64 0.78,-0.27 0.28,-0.96 2.66,0.24 0.91,-1.71 0.77,0.54 1.28,-0.15 0.49,-0.96 0.81,0.21 -0.09,-1.18 0.49,-0.53 -0.98,-0.87 1.46,-1.08 -1.09,-1.09 1.13,-1.1 -0.21,-0.49 3.22,0.58 0.28,0.49 1.74,-0.55 0.26,0.93 0.3,0.21 -0.61,0.98 0.37,0.43 0.92,0.41 0.1,-0.51 3.18,-0.85 0.61,-2.54 1.02,0.37 -0.01,0.76 0.54,0.31 2.19,-0.15 0.69,-0.9 -0.51,-0.9 0.59,-1.1 2.91,-0.81 2.02,-1.95 1.04,-2.10001 -0.38,-0.57 1.13,-1.42 1.54,1.03 1.09,-0.84 0.15,-1.42 2.59,-0.38 0.23,-0.49 3.7,0.05 1.06,-0.68 1.25,0.93 1.74,-0.05 2.94,-2.58 2.74,-1.74 3.23,-3.84 0.84,-0.4 0.81,0.86 1.07,-0.61 0.59,0.28 3.95,-3.38 1.74,-0.5 1.88,-1.5 2.08,-2.95 1.91,-2.76 1.74,-5.32 1.46,-2.44 -0.23,-1.61 0.83,-1.88 -0.11,-2 1.81,-3.01 -0.57,-4.9 -0.78,-0.99 -1.12,-3.47 -2.44,-4.06 2.14,-6 2.4,-1.98 -0.26,-3.44 -1.07,-2.26 -4.57,-6.52 -0.05,-0.94 1.57,-1.17 0.5,-2.08 -2.74,-5.38 -2.17,-1.61 -1.77,-0.52 -2.07,1.03 -3.2,0.04 -0.74,0.49 -0.23,1.2 -4.22,-0.19 -0.23,1.25 -2.96,0.75 -1.74,1.57 0.16,1.17 -1.5,1.12 -0.4,1.84 1.05,1.5 -0.23,1.11 -1.75,0.23 -0.82,1.49 -0.93,-0.93 0.31,-1.33 -2.16,-1.79 -1.99,-0.68 -2.53,2.45 -1.39,-0.55 -1.38,1.21 -0.71,-0.76 -1.19,-0.18 -0.92,2.16 -1.56,-0.68 -0.63,-1.01 0.94,-0.66 0.06,-1.17 1.77,-2.23 -0.05,-1.84 1.84,-0.61 0.28,-1.4 1.33,-0.57 1.24,-2.78 1.06,-0.01 1.07,-1.82 1.31,-0.33 1.5,-1.24 3.17,-0.17 2.37,-2.58 0.7,-0.17 2.13,-3.25 1.64,-0.03 3.51,-3.6 0.78,-1.56 0.36,-3.18 -0.72,-3.19 0.02,-0.75 4.14,-2.45 2.42,-3.26 1.9,-1.18 0.33,-2.19 0.84,-1 2.21,-0.77 1.62,-1.65 1.75,-0.84 1.08,-1.57 1.58,-2.25 5.78,1.81 3.26,-1.21 2.19,-1.9 1.17,-2.23 0.02,-1.48 -0.75,-0.62 0.68,-0.99 2.27,0.55 0.95,1.45 2.46,-0.54 1.03,0.95 1.67,0.47 0.64,1.7 3.68,0.68 3.85,0.06 3.79,-1.69 3.08,-2.66 2.69,-0.87 6.65,-1.93 2.91,0.28 1.11,1.15 0.06,-0.03 z" 
                fill="rgb(151, 144, 238)" 
                stroke="white" 
                stroke-width=".7px"
                title="Wales" 
                id="GB-WA" 
            />
        </svg>