<svg xmlns="http://www.w3.org/2000/svg" viewBox="531.0017 945.0478900000002 49.77000000000032 69.18000999999958" width="49.77000000000032" height="69.18000999999958">
            <path 
                d="m 557.5417,945.88789 1.07,2.53 -0.52,2.09 0.71,2.24 1.36,2.96 2.58,1.89 0.48,1.67 0.8,0.29 0.42,2.37 1.63,3.4 1.94,0.52 1.95,-1.71 1.08,-0.07 1.44,0.45 0.99,1.23 2.73,0.89 3.71,8.61 0,0 -1.76,2.59 -0.27,1.62 0.24,1.2 1.11,0.87 1.54,2.94 -0.78,0.06 -0.78,1.27 -1.12,-0.35 0.76,1.14 -0.17,0.56 0.9,0.62 0.38,1.85 -3.66,0.76 -1.16,1.67 -1.08,3.99 -0.96,-0.16 -0.92,0.75 0,0 -0.03,0.01 0,0 -1.7,-0.07 -1.72,3.60001 -1.59,-0.30001 -0.2,-1.17 -1.51,-0.77 0,0 -1.35,2.90001 -2.34,1.9 0,0 -1.54,5.16 -0.53,4.59 -1.43,-0.3 0.38,0.9 -0.77,-0.15 -1.83,1.3 -1.25,-0.07 0.19,-0.41 0,0 -0.62,-0.23 -0.42,-1.17 0.31,-0.98 0,0 -0.37,-0.84 3.3,-4.1 -0.44,-0.57 -2.48,0.78 -0.55,-0.52 0,0 -0.01,0 0,0 -1.39,-0.41 0.39,-1.16 -1.04,-0.81 0.22,-1.33 -0.51,-0.06 -0.21,0.69 -1.1,-0.69 0.13,-2.73001 -0.63,0.89001 -0.47,-0.16 -1.36,-2.01001 -1.7,1.24 0,0 -0.53,-1.08 -1.28,-0.71 -1.22,0.42 -2.21,-1.43 -3.5,-0.5 -2.78,-2.22 -0.07,-2.93 1.57,-1.43 0.5,-1.29 -0.78,-4.01 1.42,-1.28 -0.09,-1.52 0.62,0.07 1.35,-1.21 0.43,-1.14 -0.35,-4.38 1.26,-1.27 -0.27,-0.78 0.62,-0.17 -1.39,-0.65 -5.32,0.64 -0.72,-1 0,0 -0.47,-0.29 0,0 0.06,-0.89 -1.11,-1.66 0,0 -0.75,-0.3 0.37,-0.52 0,0 1.87,-0.16 1.43,-1.11 -0.36,-0.43 0.34,-0.22 0,0 0.27,-1.73 1.04,-0.27 0,0 0.19,-1.08 2.02,-1.08 1.51,-2.01 -0.07,-3.1 1.37,-0.64 -0.38,-1.09 0.35,-0.21 -0.57,-0.55 3.35,-1.32 5.62,0.09 4.48,-1.64 1.45,-1.65 1.54,-4.18 0.68,-0.62 0,0 z" 
                fill="rgb(151, 144, 238)" 
                stroke="white" 
                stroke-width=".7px"
                title="Warwickshire" 
                id="GB-WR" 
            />
        </svg>