<svg xmlns="http://www.w3.org/2000/svg" viewBox="510.17170000000027 1039.9778999999999 50.95999999999975 76.1099999999999" width="50.95999999999975" height="76.1099999999999">
            <path 
                d="m 561.1317,1075.5279 -1.78,1.32 -0.13,5.59 -5.7,2.81 -1.73,2.43 -2.24,1.82 -0.51,2.33 0.69,5.27 2.52,1.42 1.1,2.94 0.49,3.94 -0.03,6.06 -0.51,2.12 -1.63,0.36 -0.94,-1.02 -2.18,-0.11 -2.89,-1.35 -0.95,0.55 -1.28,-2.34 -1.11,0.47 -1.3,2.01 -0.03,-2.18 -0.77,0.68 -2.59,0.18 -1.38,1.54 -0.44,-0.75 0,0 -0.53,-0.22 -1.25,0.72 -0.56,0.9 -2.67,0.36 -1.37,0.85 -0.63,1.24 -2.1,0.62 -1.19,-1.65 0.06,-1.66 -1.79,-0.81 -1.53,-1.47 -0.25,-1.17 -0.76,-0.57 -0.29,-1.92 -3.09,-3.34 -1.65,0.25 -1.43,-0.83 -2.18,-0.26 0,0 -2.2,-1.94 -0.23,-1.98 1.26,-0.58 -0.08,-0.87 0.85,-0.45 0.04,-0.78 2.09,-2.98 3.34,-7.85 -0.51,-3.61 -0.74,-0.64 -0.93,0.4 0.2,-1.18 -0.52,-0.55 0.82,-0.48 -0.07,-0.86 -1.7,-0.95 0.26,-1.02 -0.85,0.26 -0.92,-0.79 -1.27,0.22 3.29,-2.41 -0.3,-2.55 0.94,-0.23 -0.56,-0.85 0,0 0.77,-1.01 -0.39,-0.77 0,0 -0.62,-0.55 0,0 0.6,-2.92 -0.67,-0.07 0.33,-2.83 -1.32,-0.07 -0.81,-1.02 4.53,-2.96 -0.89,-0.95 0.3,-0.86 -0.44,-1.51 0.53,-1.02 -0.86,-0.25 0.27,-0.96 1.54,0.04 0.21,-1.08 2.16,-1.14 0.06,0.76 1.04,0.34 0.66,-0.76 1.69,0.98 3.49,-5 3.88,0.51 3.3,-0.88 0.35,0.55 1.69,0.11 -0.79,-2.19 1.32,-1.19 1.33,1.33 2.05,0.85 0.74,-0.28 0,0 -1.41,-2.84 0,0 0.36,0.28 1.22,-0.57 1.47,2.66 2.22,-0.73 0,0 -0.5,-1.01 0,0 0.67,-1.27 -0.38,-1.65 0.42,-0.08 1.46,3.65 0.73,-0.24 1.46,0.73 0.75,-0.35 0,0 0,0 0,0 0.23,1.08 1.09,1.09 -1,4.54 0.79,3.92 4.07,2.77 1.02,2.13 0,0 1.12,-0.05 0,0 -0.56,3.21 2.62,3.68 -0.06,0.98 -1.5,1.94 0.05,1.03 3.52,4.65 0,0 z" 
                fill="rgb(151, 144, 238)" 
                stroke="white" 
                stroke-width=".7px"
                title="Wiltshire" 
                id="GB-WL" 
            />
        </svg>