<svg xmlns="http://www.w3.org/2000/svg" viewBox="493.4217000000003 968.2278899999998 52.589999999999804 45.01001000000008" width="52.589999999999804" height="45.01001000000008">
            <path 
                d="m 533.2717,971.70789 0.72,1 5.32,-0.64 1.39,0.65 -0.62,0.17 0.27,0.78 -1.26,1.27 0.35,4.38 -0.43,1.14 -1.35,1.21 -0.62,-0.07 0.09,1.52 -1.42,1.28 0.78,4.01 -0.5,1.29 -1.57,1.43 0.07,2.93 2.78,2.22 3.5,0.5 2.21,1.43 1.22,-0.42 1.28,0.71 0.53,1.08 0,0 -1.13,2.22001 -0.39,-0.68 -0.81,1.29 -0.93,-0.68 -0.42,0.72 -1.33,0.24 0.72,0.67 -0.03,1.02 2.12,1.47 0,0 0.29,0.83 0,0 -0.67,0.86 -0.21,1.6 -1.41,-0.6 -3.27,-3.24 -1.15,1.48 -0.99,-0.2 -0.24,-0.6 -2.06,0.19 -2.7,2.58 -0.71,0.11 0,0.5 -0.71,0.08 -0.7,-1.11 -1.52,0.43 -1.72,-0.49 -1.79,1.62 0.1,-0.46 -0.73,-0.28 0.67,-2.1 1.51,-1.07 -1.08,-0.86 -1.81,-0.45 -1.16,0.85 0.22,2 -0.68,0.37 1.45,1.51 0,0.83 -1.01,-0.36 -0.27,0.92 -2.24,-0.5 -1.93,2.95 -1.94,-0.43 -1.15,0.4 -0.76,-0.99 -0.88,0.07 0.12,-2.82 -1.75,-1.02 0.07,-0.8 0,0 -0.01,-3.57 0,0 0.65,-0.8 0.2,-2.62 0,0 -0.89,-1.38001 -0.25,-2.42 0.72,-0.56 -0.88,-1.97 -1.3,-0.33 -0.92,0.85 -1.33,0.16 -1.26,-2.35 0.83,-0.44 -0.22,-0.46 0.65,-0.64 -0.25,-0.48 0.71,-1.52 0.95,-0.6 -0.7,-1.31 1.22,-0.39 -2.43,-1.23 -2.63,0.3 -0.62,-0.72 0.42,-1.5 2.52,-1.5 -1.47,-1.48 -1.57,-0.05 -1.68,0.83 0.46,2.1 -1.26,0.11 -0.63,0.8 -0.37,-0.53 -1.05,0.37 -1.63,-0.32 -0.12,0.51 -3.32,0.76 -0.12,-1.75 1.52,-1.87 0.65,-0.09 -0.39,-0.94 0,0 -0.01,-0.01 0,0 1.68,-2.09 2.22,-0.8 1.36,0.28 1.08,-0.44 0.06,-0.72 4.01,-1.89 3.51,-0.88 -0.02,-3.53 1.73,-0.52 1.18,0.37 -0.94,-1.02 1.66,-1.14 0,0 1.58,0.07 0,0 0.72,0.86 2.88,1.06 8.55,-1.67 3.09,0.79 2.44,1.58 0,0 z" 
                fill="rgb(151, 144, 238)" 
                stroke="white" 
                stroke-width=".7px"
                title="Worcestershire" 
                id="GB-WO" 
            />
        </svg>