<svg xmlns="http://www.w3.org/2000/svg" viewBox="497.6717 731.5478900000007 170.56000000000006 147.49" width="170.56000000000006" height="147.49">
            <path 
                d="m 587.4217,731.86789 -0.07,0.46 2.49,1.69 1.65,0.29 0.71,-0.4 -0.52,0.23 0.7,0.49 1.09,-0.23 -0.89,0.26 0.82,0.01 -0.49,0.11 0.84,1.05 3.43,1.95 1.27,0.46 0.63,-0.48 1.5,0.21 1.99,1.77 2.62,-0.04 2.85,1.46 1.76,-0.27 0.92,1.59 1,0.42 0.33,1.53 2.37,-0.59 0.9,1.48 0.91,0.1 0.9,2.07 4.74,1.11 0.2,0.61 0.81,0.2 1.02,1.87 2.26,1.96 -0.65,1.51 0.47,1.66 1.24,1.05 0.78,-0.28 1.76,2.34 1.96,5.25 0.55,0.02 0.45,0.87 0,2.18 0.77,0.76 -0.2,1.06 1.38,0.64 -0.55,1.6 1.75,1.9 0.01,0.99 1.06,0.61 0.69,-0.23 1.25,0.63 0.39,0.98 3.53,1.44 -1.19,-0.09 -0.43,1.5 0.64,1.83 1.56,1.78 1.71,1.05 3.35,0.9 5.35,3.07 0.13,1.28 -5.33,1.21 -1.42,2.02 -0.44,-0.06 -1.06,2.93 -0.03,4.93 4.09,12.32 7.35,11.5 9.16,12.6 0.85,1.59 1.14,5.25 -2.51,3.04 0.62,-2.31 -0.65,-0.75 -0.41,0.5 -0.18,-0.72 -0.3,0.77 -1.33,-1.19 0.1,-0.61 -0.25,0.43 -4.42,-2.04 -6.44,-0.42 -0.81,-0.25 0.55,0.04 -1.29,-1.3 0.94,0.95 -0.67,0.06 -5.54,-5.8 -2.6,-4.45 -0.31,0.34 -1.25,-0.68 -1.45,-0.02 -5.57,2.42 -0.61,0.12 -0.33,-1.05 -1.18,0.33 -1.24,0.43 0.06,0.62 0,0 -1.86,0.33 -2.09,1.19 -2.3,0.13 -2.25,-1.23 -1.53,-1.78 -1.45,-0.28 -4.65,2.48 -3.97,4.29 -1.75,1.07 -3.62,1.04 -0.68,2.81 -2.6,3.2 -0.2,1.54 0.64,0.23 -0.65,1.97 0.56,1.11 -0.35,0.49 -3.05,0.57 -0.22,1.44 1.12,0.32 -0.21,0.86 0,0 -1.12,1.91 -2.05,1.34 0.02,1.09 0,0 -0.63,2.57 0,0 -1.06,0.44 -0.59,1.47 -3.25,1.23 -1.39,1.16 -1.01,2.34 -1.38,8.79 -1.01,2.63 -1.62,-0.14 0,0 0.04,0.06 0,0 -7.04,-3.34 -1.56,-0.41 -1.96,0.47 -0.39,-0.88 -1.75,-0.8 -2.35,0.08 -3.34,2.12 -4.31,0.37 -5.08,-1.4 0.08,-1.9 -0.79,0.4 -0.31,-0.48 0.92,-1.57 -0.36,-1.25 -1.47,-0.21 -1.94,-3.53 -3.03,-2.27 -0.98,-0.2 -0.24,-2.26 0,0 0,0 0,0 -0.12,-1.33 -2.47,-1.91 -1.66,-3.84 -4.23,-2.63 0,0 0.01,-0.03 0,0 0.51,-2.04 -1.38,0.67 -0.98,-0.51 -0.2,-1.4 -1.88,-1.05 -0.28,-1.12 -1.95,-1.54 -1.97,-3.17 -0.87,0.06 -0.42,-2.12 -0.7,-0.49 0.35,-1.93 -1.14,-1.31 0.16,-1.3 -2.01,0.6 -0.25,0.77 -1.95,-0.05 -1.01,-1.53 -0.59,0.76 -0.11,-1.46 -1.09,-0.73 -0.67,-2.52 1.08,-1.31 0.68,-0.08 0.91,-1.7 -0.35,-2.97 0.73,-0.85 -0.22,-1.16 5.12,-3.24 0.05,-2.2 -2.21,-2.11 -0.55,0.19 0.54,-0.79 -1.36,-1.63 -0.63,-2.61 -1.21,-1.18 -1.93,-0.08 -0.43,-1.04 -0.79,0.18 0.18,-1.13 -1.04,-2.52 -1.87,0.9 -0.39,-1.08 0.69,-0.71 -0.59,-0.39 -4.02,0.76 -1.54,-2.06 -1.33,0.46 -0.78,-0.56 0,-1.69 0.8,0.12 -0.25,-0.85 -0.87,-0.19 -0.29,-2.3 -0.76,-0.9 -3.25,1.17 -2.11,-0.28 -0.71,-1.08 0.39,-2.61 -2.84,-2.16 -0.91,0.09 -0.01,-0.8 -0.79,-0.21 -0.5,-1.4 -1.17,-0.6 0.18,-3.25 1.66,-0.49 0.34,-1.27 3.06,-3.52 1.2,-2.62 0,0 3.48,0.2 0.55,-1.56 1.5,-0.07 0.04,-0.88 0.63,-0.16 0.9,1.28 1.41,-0.39 0.64,-3.07 -0.66,-1.04 0.55,-0.8 -0.37,-2.57 0.83,-1.43 -3.64,-3.41 1.45,-0.39 1.74,-1.79 1.23,-0.07 0.35,-1.53 -0.86,-0.65 -0.16,-2.44 1.02,-1.26 -0.06,-0.85 1.35,-0.17 0.22,-0.68 1.15,-0.51 3.79,0.32 0.74,-1.36 0.46,0.37 0,0 0.69,0.29 2.69,-0.73 4.61,-2.31 -0.09,0.91 3.01,0.89 1.3,0.78 0.38,0.89 1.73,-0.21 5.25,-3.07 0.08,-2.34 1.16,-0.53 1.07,1.43 1.85,1.16 0.37,-1.79 0.69,-0.62 -0.22,-2.72 2.93,0.45 0.8,-1.58 2.33,0.97 1.59,-0.13 0.21,1.08 1.31,-0.08 0.06,0.72 -0.46,0.16 0.43,0.34 1.36,-0.64 0.67,0.25 -0.1,0.77 1.36,-0.25 -0.68,0.93 0,0 0.79,-0.1 -0.23,0.87 0,0 1.76,1.33 0.57,1.46 0.83,0.23 0.8,-0.19 -0.64,-0.52 0.08,-0.98 0.93,0.11 0.17,0.95 1.23,-1.21 -0.43,1.18 1.46,0.15 0.49,1.27 -0.27,0.73 0.73,0.45 0.34,-0.37 -0.48,-0.83 0.58,-0.4 -0.66,-0.81 0.39,-0.83 -0.3,-1.64 0,0 -0.81,-0.37 1.01,-0.47 0,0 1.53,1.81 0.85,-3.48 -1.78,-1.44 0.45,-1.09 -0.26,-1.37 2.22,-0.99 -0.34,-1.17 0.59,-1.95 -1,-1.03 -0.93,0.89 -0.81,-1.69 2.4,-0.66 1.54,-1.62 -0.13,-0.82 0.6,-0.52 2.59,0.84 0.29,0.53 0,0 0.4,-1.4 0,0 0.77,-0.11 1.15,1.05 -0.05,0.82 2.71,0.5 1.37,-0.6 1.53,0.78 1.41,-1.09 1.85,0.25 0.66,-2.01 0,0 z" 
                fill="rgb(151, 144, 238)" 
                stroke="white" 
                stroke-width=".7px"
                title="Yorkshire" 
                id="GB-YK" 
            />
        </svg>