<svg xmlns="http://www.w3.org/2000/svg" viewBox="308.5877700000001 118.29079999999988 125.81999999999994 183.73000000000008" width="125.81999999999994" height="183.73000000000008">
            <path 
                d="m 406.39777,124.8908 0,0 9.91,25.17 1.38,6.54 -1.3,2.61 -1,3.43 -0.81,5.31 0.1,1.8 0.3,1.32 1.41,2.23 0.57,0.67 1.97,2.96 1.94,3.62 0.84,2.42 0.46,1.85 0.1,12.81 0.28,2.81 0.4,2.13 0.42,1.01 0.45,0.86 6.76,9 0.61,1.64 0.31,1.54 -0.13,1.19 1.64,17.54 -2.46,1.46 -5.73,11.46 -1.36,3.34 2.64,10.16 -2.54,1.01 -4.43,2.7 -2.56,1.07 0.91,1.93 0.61,3.71 0.85,2.33 -3.73,-1.7 -3.75,-0.18 -3.64,1.29 -3.37,2.84 6.13,3.79 6.47,1.43 6.79,-0.57 7.03,-2.15 3.54,13.78 -1.07,6.32 -8.53,2.65 -7.27,-0.36 -6.51,-1.47 -6.44,-3.12 -30.3,-27.16 -6.28,-7.92 -25.72,-15 0,-0.01 0.99,-0.93 0.71,-0.47 1.01,-0.31 3.11,0.38 1.08,-0.06 0.92,-0.2 0.72,-0.51 0.58,-0.68 0.38,-0.95 0.71,-4.48 2.07,-6.83 0.15,-1.16 -0.35,-1.22 -0.77,-1.29 -3.99,-3.46 -1.62,-2.15 -0.6,-1.58 -0.61,-2.22 -0.77,-4.97 -0.18,-2.48 0.11,-1.78 0.98,-2.89 0.48,-2.08 -37.98,-77.98 -0.83,-5.47 8.2,2.72 8.87,1.53 1.52,-0.07 1.65,-0.3 2.49,-1.03 1.3,-0.74 2.44,-1.93 0.85,-0.4 11.83,-2.7 1.44,0.03 1.79,0.29 6.72,2.7 17.12,3.15 31.59,0.43 z" 
                fill="rgb(151, 144, 238)" 
                stroke="white" 
                stroke-width=".7px"
                title="Clarendon" 
                id="JM-13" 
            />
        </svg>