<svg xmlns="http://www.w3.org/2000/svg" viewBox="10.257770000000011 25.870799999999978 148.17999999999998 60.920000000000016" width="148.17999999999998" height="60.920000000000016">
            <path 
                d="m 130.95777,29.1008 0,0 -0.05,3.5 -0.19,1.11 -2.3,8.25 0.63,1.3 1.19,1.47 5.68,4.71 0.58,1 0.86,1.79 0.54,2.65 0.98,2.3 3.94,7.29 1.74,3.97 0.72,0.77 1.26,0.91 4.87,2.57 1.73,1.65 0.87,1.17 4.43,8.95 -29.25,-1.73 -7.64,-1.4 -19.21,-11.17 -3.05,-0.86 -3.23,-0.45 -43.33,0.2 -1.98,0.53 -13.1,15.48 -1.72,1.37 -1.79,0.36 -1.89,-0.02 -18.83,-2.73 -3.16,-0.25 0,0 0.58,-2.73 -0.5,-11.08 0.67,-3.14 2.65,-4.35 0.3,-2.77 1.22,-1.45 5.43,-0.45 3.4,-2.23 2.77,-4.31 3.6,-2.93 5.85,1.94 3.6,-10.41 10.71,-9.88 12.44,-4.13 8.97,6.85 5.18,-6.13 5.54,-0.12 6.48,2.39 7.93,1.57 22.58,-2.78 7.53,0.04 3.77,1.41 z" 
                fill="rgb(151, 144, 238)" 
                stroke="white" 
                stroke-width=".7px"
                title="Hanover" 
                id="JM-09" 
            />
        </svg>