<svg xmlns="http://www.w3.org/2000/svg" viewBox="256.53776999999997 106.10079999999998 98.18 145.07999999999993" width="98.18" height="145.07999999999993">
            <path 
                d="m 286.88777,108.1708 0,0 1.11,-0.04 5,2.21 15.59,10.87 0.83,5.47 37.98,77.98 -0.48,2.08 -0.98,2.89 -0.11,1.78 0.18,2.48 0.77,4.97 0.61,2.22 0.6,1.58 1.62,2.15 3.99,3.46 0.77,1.29 0.35,1.22 -0.15,1.16 -2.07,6.83 -0.71,4.48 -0.38,0.95 -0.58,0.68 -0.72,0.51 -0.92,0.2 -1.08,0.06 -3.11,-0.38 -1.01,0.31 -0.71,0.47 -0.99,0.93 0,0.01 -0.36,-0.21 -7.72,-2.85 -8.13,-1.08 -6.43,2.66 -7.39,5.01 -7.4,0.66 -15.23,-4.42 -6.66,-1.14 0,-0.01 -0.86,-1.65 -23.81,-98.91 -1.76,-32.93 4.49,-1.13 2.14,-0.8 3.87,-2.36 2.55,-1.2 1.95,-0.53 2.01,0.06 13.34,2.01 z" 
                fill="rgb(151, 144, 238)" 
                stroke="white" 
                stroke-width=".7px"
                title="Manchester" 
                id="JM-12" 
            />
        </svg>