<svg xmlns="http://www.w3.org/2000/svg" viewBox="566.7177700000002 95.25079999999998 172.61999999999978 102.83000000000003" width="172.61999999999978" height="102.83000000000003">
            <path 
                d="m 736.90777,188.6708 0,0 2.43,5.88 -0.21,0.07 -9.73,3.03 -3.67,0.43 -12.72,-1.74 -4.73,-1.18 -1.36,-1.17 -0.97,-1.02 -2.28,-3.32 -0.59,-0.7 -0.65,-0.53 -1.86,-0.78 -10.33,-3.07 -11.41,-1.79 -7.67,-4.46 -1.73,-0.45 -1.42,-0.07 -1.77,0.75 -2.34,1.29 -1.25,0.34 -1.75,0.24 -4.92,0.03 -1.42,0.17 -0.82,0.42 -0.7,0.57 -1.56,1.51 -1.35,0.89 -2.83,1.05 -1.63,0.16 -1.32,-0.14 -2.46,-1.42 -16.52,-5.25 -2.63,-1.25 -2.31,-1.58 -0.73,-0.63 -0.64,-0.65 -2.65,-3.62 -6.54,-4.49 -15.76,-6.55 -4.53,-0.69 -0.67,0.57 -0.52,0.8 -0.78,1.82 -0.7,1.08 -1.68,0.7 -3.51,0.64 -4.52,-0.94 -2.26,-0.7 -1.3,-0.79 -1.07,-1.43 -0.43,-0.78 -3.12,-9.21 -0.12,-0.93 -2.18,-7.45 16.4,-45.89 1.04,-1.19 0.01,0 2,0.44 5.13,2.74 6.64,6.72 5.11,3.32 5.92,1.86 11.59,-0.74 6.07,4.3 1.94,0.5 1.75,1.68 2.14,1.52 2.88,0.69 26.2,0 1.83,1.11 2.74,5.26 1.27,1.61 25.68,4.84 13.35,4.85 1.7,7.63 9.91,9.52 7.7,11.05 11.19,24.52 z" 
                fill="rgb(151, 144, 238)" 
                stroke="white" 
                stroke-width=".7px"
                title="Portland" 
                id="JM-04" 
            />
        </svg>