<svg xmlns="http://www.w3.org/2000/svg" viewBox="599.6177700000001 166.1908 163.7299999999999 78.26999999999998" width="163.7299999999999" height="78.26999999999998">
            <path 
                d="m 645.66777,185.2208 0,0 1.63,-0.16 2.83,-1.05 1.35,-0.89 1.56,-1.51 0.7,-0.57 0.82,-0.42 1.42,-0.17 4.92,-0.03 1.75,-0.24 1.25,-0.34 2.34,-1.29 1.77,-0.75 1.42,0.07 1.73,0.45 7.67,4.46 11.41,1.79 10.33,3.07 1.86,0.78 0.65,0.53 0.59,0.7 2.28,3.32 0.97,1.02 1.36,1.17 4.73,1.18 12.72,1.74 3.67,-0.43 9.73,-3.03 0.21,-0.07 0,0.01 2.8,6.77 5.14,8.78 6.56,6.96 9.51,7.15 -3.64,2.95 -18.03,4.57 -12.71,6.99 -7.28,2.12 -6.22,-1.61 2.43,-1.76 0.98,-1.25 1.36,-4.49 -6.3,2.31 -5.6,8.35 -6.08,1.85 -5.41,-1.55 -6.29,-2.91 -6.4,-1.65 -10.48,3.94 -27.43,2.38 -19.36,-2.95 -2.81,0.12 -2.63,0.51 -2.85,-0.38 -3.62,-2.52 -1.58,-3.31 -0.71,-4.24 -1.05,-3.64 -2.72,-1.55 -2.81,-0.87 -1.88,-2.06 -1.62,-2.44 -2.16,-1.93 -0.83,-0.2 0,-0.01 2.1,-3.31 2.2,-2.53 0.37,-1.17 0.17,-1.6 -0.2,-3.42 0.35,-2.13 1.54,-2.33 1.36,-0.64 1.4,-0.3 3.47,0.3 0.97,-0.18 0.55,-0.71 0,-1.26 -1.13,-2.08 -2.52,-3.58 -0.62,-1.22 -1.92,-6.88 -0.96,-1.63 -0.81,-2.08 -0.47,-2.26 0.14,-5.52 0.45,-2.98 0.6,-2.32 3.21,-2.97 6.54,4.49 2.65,3.62 0.64,0.65 0.73,0.63 2.31,1.58 2.63,1.25 16.52,5.25 2.46,1.42 1.32,0.14 z" 
                fill="rgb(151, 144, 238)" 
                stroke="white" 
                stroke-width=".7px"
                title="Saint Thomas" 
                id="JM-03" 
            />
        </svg>