<svg xmlns="http://www.w3.org/2000/svg" viewBox="128.41777000000002 0.2508000000000057 94.89000000000001 121.15999999999998" width="94.89000000000001" height="121.15999999999998">
            <path 
                d="m 223.30777,7.0208 0,0 -0.13,0.64 -15.88,99.47 -39.95,14.28 3.32,-9.71 0.16,-3.49 -2.79,-8.88 -1.03,-1.83 -0.53,-0.7 -0.63,-0.69 -0.72,-0.54 -0.86,-0.44 -2.01,-2.42 -3.82,-8.25 -4.43,-8.95 -0.87,-1.17 -1.73,-1.65 -4.87,-2.57 -1.26,-0.91 -0.72,-0.77 -1.74,-3.97 -3.94,-7.29 -0.98,-2.3 -0.54,-2.65 -0.86,-1.79 -0.58,-1 -5.68,-4.71 -1.19,-1.47 -0.63,-1.3 2.3,-8.25 0.19,-1.11 0.05,-3.5 0,0 2.7,0.99 3.86,0.97 3.98,-0.63 3.54,-2.51 0.34,-2.41 -0.1,-2.82 2.16,-3.8 7.9,-10.15 3.6,-3.37 6.16,-2.8 14.11,-2.32 15.99,0.61 28.1,6.16 0.01,0 z" 
                fill="rgb(151, 144, 238)" 
                stroke="white" 
                stroke-width=".7px"
                title="Saint James" 
                id="JM-08" 
            />
        </svg>