<svg xmlns="http://www.w3.org/2000/svg" viewBox="143.35777000000004 107.13080000000001 139.60999999999999 139.77999999999997" width="139.60999999999999" height="139.77999999999997">
            <path 
                d="m 256.53777,112.1208 0,0 1.76,32.93 23.81,98.91 0.86,1.65 0,0.01 -8.31,-1.43 -47.28,2.72 -2.39,-0.45 -7.27,-4.95 -12.28,-6.1 -3.08,-2.42 -1.52,-2.78 -3.62,-9.4 -0.73,-2.97 -1.32,-2.33 -6.24,-2.23 -1.96,-1.59 -0.51,-7.7 0.62,-9.25 -2.17,-7.78 -8.88,-3.27 -24.19,-0.21 -5.57,-2.08 -2.91,-6.75 0.01,0 2.43,-4.74 6.87,-19.87 0.79,-5.44 -0.32,-0.88 -0.49,-1.93 -0.08,-1.03 0.12,-1.1 0.58,-2.27 2.22,-4.66 3.84,-6.13 1.55,-1.57 1.2,-0.99 5.27,-2.63 39.95,-14.28 49.24,4.99 z" 
                fill="rgb(151, 144, 238)" 
                stroke="white" 
                stroke-width=".7px"
                title="Saint Elizabeth" 
                id="JM-11" 
            />
        </svg>