<svg xmlns="http://www.w3.org/2000/svg" viewBox="308.58777000000003 18.290799999999976 172.65000000000003 107.17" width="172.65000000000003" height="107.17">
            <path 
                d="m 455.42777,41.3608 0,0 0.29,1.66 3.01,13.45 0.22,1.91 0.68,2.64 0.72,1.3 1.83,1.77 0.95,1.34 0.64,1.38 -0.75,8.24 0.13,1.11 0.73,1.36 4.33,5.15 1.48,2.33 1.07,3.39 0.49,3.12 0.56,2.01 0.42,0.97 2.32,3.12 6.69,6.76 -20.95,11.82 -7.1,2.75 -46.79,5.95 -31.59,-0.43 -17.12,-3.15 -6.72,-2.7 -1.79,-0.29 -1.44,-0.03 -11.83,2.7 -0.85,0.4 -2.44,1.93 -1.3,0.74 -2.49,1.03 -1.65,0.3 -1.52,0.07 -8.87,-1.53 -8.2,-2.72 13.85,-66.16 0.1,-1.8 -0.11,-1.68 -1.86,-2.32 -0.49,-1.04 -0.01,-1.32 0.94,-2.31 0.28,-2.13 -0.28,-2.66 -4,-10.41 -0.28,-3.02 0.76,-7.31 0.12,-0.76 3.6,0.27 9.11,2.25 7.19,4.37 11.07,-2.88 17.88,0.05 18.39,2.08 12.67,3.26 1.56,1.65 1.29,4.55 1.69,1.57 2.04,0.02 1.89,-0.9 1.11,-1.17 -0.27,-0.69 15.59,2.74 1.93,1.17 5.88,5.19 1.82,1.17 11.39,0.39 11.99,-2.02 z" 
                fill="rgb(151, 144, 238)" 
                stroke="white" 
                stroke-width=".7px"
                title="Saint Ann" 
                id="JM-06" 
            />
        </svg>