<svg xmlns="http://www.w3.org/2000/svg" viewBox="518.4477699999997 131.93079999999998 95.44999999999993 87.07000000000002" width="95.44999999999993" height="87.07000000000002">
            <path 
                d="m 566.71777,142.3308 0,0 2.18,7.45 0.12,0.93 3.12,9.21 0.43,0.78 1.07,1.43 1.3,0.79 2.26,0.7 4.52,0.94 3.51,-0.64 1.68,-0.7 0.7,-1.08 0.78,-1.82 0.52,-0.8 0.67,-0.57 4.53,0.69 15.76,6.55 -3.21,2.97 -0.6,2.32 -0.45,2.98 -0.14,5.52 0.47,2.26 0.81,2.08 0.96,1.63 1.92,6.88 0.62,1.22 2.52,3.58 1.13,2.08 0,1.26 -0.55,0.71 -0.97,0.18 -3.47,-0.3 -1.4,0.3 -1.36,0.64 -1.54,2.33 -0.35,2.13 0.2,3.42 -0.17,1.6 -0.37,1.17 -2.2,2.53 -2.1,3.31 0,0.01 -9.65,-2.32 -2.61,-1.46 -5.37,-2.18 -7.24,0.43 -12.63,3 -5.4,0.66 -18.2,-0.66 0,-2.51 38.33,-2.27 -1.59,-1.53 1.93,-1.09 -0.31,-4.77 -2.92,-6.81 -3.45,-1.83 -5.18,-1.21 -9,0.45 -2.97,0.78 -3.47,1.43 -2.71,1.77 -0.6,1.35 -1.15,3.42 -2.3,-1.37 -6.21,-4.07 -4.58,-2.17 -1.13,-4.24 -2.38,-3.31 -0.93,0.2 -1.8,0.8 -0.87,0.2 -0.97,0 -0.82,-0.32 -0.64,-0.57 -0.47,-0.77 -0.64,-1.67 -0.37,-0.58 -0.3,-0.39 -2.53,-2.28 -0.04,-2.07 0.48,-3.2 2.07,-7.41 1.21,-3.07 1.07,-1.93 0.7,-0.53 0.65,-0.61 0.59,-0.7 0.45,-0.8 1.18,-2.64 0.06,-1.4 -0.34,-1.81 -2.31,-4.81 -0.55,-2.32 -0.17,-1.42 0.82,-9.62 4.74,-1.95 0.79,-0.65 0.85,-0.98 0.36,-0.95 0.47,-0.88 1.35,-0.61 2.13,-0.37 4.45,-0.02 2,-0.43 5.84,1.15 19.38,9.25 z" 
                fill="rgb(151, 144, 238)" 
                stroke="white" 
                stroke-width=".7px"
                title="Saint Andrew" 
                id="JM-02" 
            />
        </svg>