<svg xmlns="http://www.w3.org/2000/svg" viewBox="455.42776999999984 40.270799999999966 128.74000000000018 102.06000000000004" width="128.74000000000018" height="102.06000000000004">
            <path 
                d="m 584.16777,95.2508 0,0 -0.01,0 -1.04,1.19 -16.4,45.89 -19.38,-9.25 -5.84,-1.15 -2,0.43 -4.45,0.02 -2.13,0.37 -1.35,0.61 -0.47,0.88 -0.36,0.95 -0.85,0.98 -0.79,0.65 -4.74,1.95 -8.23,-3.34 -3.7,-3.61 -4.07,-5.62 -0.76,-1.57 -0.43,-3.12 -0.74,-2.97 -1.34,-2.86 -1.49,-1.62 -2.76,-2.02 -1.18,-1.62 -2.1,-5.04 -1.05,-1.33 -1.14,-0.83 -6.69,-0.73 -1.09,0.05 -1,0.2 -5.35,1.63 -6.69,-6.76 -2.32,-3.12 -0.42,-0.97 -0.56,-2.01 -0.49,-3.12 -1.07,-3.39 -1.48,-2.33 -4.33,-5.15 -0.73,-1.36 -0.13,-1.11 0.75,-8.24 -0.64,-1.38 -0.95,-1.34 -1.83,-1.77 -0.72,-1.3 -0.68,-2.64 -0.22,-1.91 -3.01,-13.45 -0.29,-1.66 0.01,0 6.4,-1.09 4.17,1.04 7.29,3.45 4.13,0.74 20.65,-0.88 4.02,-2.14 5.68,-0.69 4.61,0.36 4.26,0.72 2.48,3.2 -1.08,3.9 -0.01,4.96 3.89,3.56 12.42,7.84 10.97,6.41 1.8,3.57 3.24,9.65 2.07,3.18 3.34,2.05 6.35,1.76 18.06,1.41 3.99,0.89 z" 
                fill="rgb(151, 144, 238)" 
                stroke="white" 
                stroke-width=".7px"
                title="Saint Mary" 
                id="JM-05" 
            />
        </svg>