<svg xmlns="http://www.w3.org/2000/svg" viewBox="406.3977699999993 102.49080000000001 125.94000000000023 151.79999999999998" width="125.94000000000023" height="151.79999999999998">
            <path 
                d="m 524.35777,138.7708 0,0 -0.82,9.62 0.17,1.42 0.55,2.32 2.31,4.81 0.34,1.81 -0.06,1.4 -1.18,2.64 -0.45,0.8 -0.59,0.7 -0.65,0.61 -0.7,0.53 -1.07,1.93 -1.21,3.07 -2.07,7.41 -0.48,3.2 0.04,2.07 2.53,2.28 0.3,0.39 0.37,0.58 0.64,1.67 0.47,0.77 0.64,0.57 0.82,0.32 0.97,0 0.87,-0.2 1.8,-0.8 0.93,-0.2 2.38,3.31 1.13,4.24 -1.08,3.78 -1.64,3.88 -4.33,4.9 -1.34,2.82 -4.59,-0.55 -1.35,2.7 -1.37,8.37 -6.24,22.14 -4.63,6.59 -5.59,3.58 -4.6,0.04 -3.04,-1.38 -2.81,-1.91 -3.84,-1.52 -19.28,0 0,-2.72 7.37,-2.51 -3.76,-3.29 -4.72,-6.36 -3.66,-2.86 -4.26,-1.66 -10.05,-1.1 -9.11,3.18 -5.41,3.19 -1.64,-17.54 0.13,-1.19 -0.31,-1.54 -0.61,-1.64 -6.76,-9 -0.45,-0.86 -0.42,-1.01 -0.4,-2.13 -0.28,-2.81 -0.1,-12.81 -0.46,-1.85 -0.84,-2.42 -1.94,-3.62 -1.97,-2.96 -0.57,-0.67 -1.41,-2.23 -0.3,-1.32 -0.1,-1.8 0.81,-5.31 1,-3.43 1.3,-2.61 -1.38,-6.54 -9.91,-25.17 46.79,-5.95 7.1,-2.75 20.95,-11.82 5.35,-1.63 1,-0.2 1.09,-0.05 6.69,0.73 1.14,0.83 1.05,1.33 2.1,5.04 1.18,1.62 2.76,2.02 1.49,1.62 1.34,2.86 0.74,2.97 0.43,3.12 0.76,1.57 4.07,5.62 3.7,3.61 8.23,3.34 z" 
                fill="rgb(151, 144, 238)" 
                stroke="white" 
                stroke-width=".7px"
                title="Saint Catherine" 
                id="JM-14" 
            />
        </svg>