<svg xmlns="http://www.w3.org/2000/svg" viewBox="207.29777 7.020800000000009 115.24000000000001 114.19" width="115.24000000000001" height="114.19">
            <path 
                d="m 317.60777,18.2908 0,0 -0.12,0.76 -0.76,7.31 0.28,3.02 4,10.41 0.28,2.66 -0.28,2.13 -0.94,2.31 0.01,1.32 0.49,1.04 1.86,2.32 0.11,1.68 -0.1,1.8 -13.85,66.16 -15.59,-10.87 -5,-2.21 -1.11,0.04 -13.34,-2.01 -2.01,-0.06 -1.95,0.53 -2.55,1.2 -3.87,2.36 -2.14,0.8 -4.49,1.13 -49.24,-4.99 15.88,-99.47 0.13,-0.64 24.77,5.43 33.95,0.65 15,3.67 20.58,1.52 z" 
                fill="rgb(151, 144, 238)" 
                stroke="white" 
                stroke-width=".7px"
                title="Trelawny" 
                id="JM-07" 
            />
        </svg>