<svg xmlns="http://www.w3.org/2000/svg" viewBox="0.2677699999999925 68.8508 170.56 105.8" width="170.56" height="105.8">
            <path 
                d="m 158.43777,84.4608 0,0 3.82,8.25 2.01,2.42 0.86,0.44 0.72,0.54 0.63,0.69 0.53,0.7 1.03,1.83 2.79,8.88 -0.16,3.49 -3.32,9.71 -5.27,2.63 -1.2,0.99 -1.55,1.57 -3.84,6.13 -2.22,4.66 -0.58,2.27 -0.12,1.1 0.08,1.03 0.49,1.93 0.32,0.88 -0.79,5.44 -6.87,19.87 -2.43,4.74 -0.01,0 -5.35,-12.44 -2.76,-4 -2.99,-2.08 -3.48,-1.78 -2.79,-0.73 -2.15,-1.93 -1.68,-4.43 -2.13,-8.7 -6.56,-13.31 -8.69,-4.89 -25.69,0.64 -15.69,-2.66 -5.73,-0.06 -3.28,3.02 -2.69,1.48 -2.35,-0.49 -8.59,-3.47 -0.87,-0.54 -4.88,-0.79 -10.74,-3.46 -6.02,-0.76 -6.13,-1.52 -5.94,-3.99 -4.37,-5.66 -1.54,-6.41 1.93,-3.05 5.17,-3.66 2.45,-3.08 0.44,-2.11 0,0 3.16,0.25 18.83,2.73 1.89,0.02 1.79,-0.36 1.72,-1.37 13.1,-15.48 1.98,-0.53 43.33,-0.2 3.23,0.45 3.05,0.86 19.21,11.17 7.64,1.4 29.25,1.73 z" 
                fill="rgb(151, 144, 238)" 
                stroke="white" 
                stroke-width=".7px"
                title="Westmoreland" 
                id="JM-10" 
            />
        </svg>