<svg xmlns="http://www.w3.org/2000/svg" viewBox="70.20021799999988 160.21373999999977 80.8100020000001 139.9400000000002" width="80.8100020000001" height="139.9400000000002">
            <path 
                d="m 106.43022,160.21374 2.06,0.54 2.22,-0.2 2.17,0.28 1.13,-0.38 4.56,0.39 2.14,-0.2 1.08,0.36 0.96,1.13 -0.03,1.09 1.07,0.95 1.08,0.37 0.82,1.14 1.09,0.78 3.83,4.8 1.09,0.78 2.34,0.65 2.39,1.43 3.47,0.34 7.31,-1.54 2.41,0.3 1.14,0.95 0.25,1.28 -0.61,4.74 0.18,3.3 -0.33,1.11 -3.03,4.58 -0.64,2.3 -0.07,2.54 0.9,2.77 0,0 -3.16,1.66 -6.52,0.1 -1.63,-0.43 -2.19,0.07 -2.38,1.75 -1.07,0.23 -1.61,1.39 -0.6,1.89 0,1.2 0.57,1.14 2.56,1.91 0.64,1.21 1.68,4.61 0.14,2.29 -1.83,3.16 -3.46,2.45 -3.65,1.43 -4.5,0.28 -1.19,2.08 -0.14,1.12 2.23,1.02 1.07,1.03 0.48,2.43 -0.85,1.08 -2.31,0.54 -1.12,0.76 -0.42,1.21 1.11,1.06 3.67,0.07 1.15,0.79 0.64,1.15 -1.16,1.04 -0.14,1.15 2.07,2.22 -0.18,1.23 -2.22,1.95 -0.55,1.1 -0.68,3.41 -2.21,5.16 1.37,0.39 0.26,0.37 1.06,3.7 1.25,0.85 1.14,0.23 3.31,-0.21 0.73,0.59 0.51,1.59 1.4,0.73 4.24,-0.47 3.19,1.63 1.01,1.74 1.56,0.5 0.97,1.12 1.76,-0.77 0,0 0.69,9.68 -2.43,3.12 0.28,1.48 2.28,3.71 0.03,1.11 -1.26,0.86 -0.55,1.08 0.11,1.06 0.69,1.35 2.26,1.81 0.62,2.28 -1.21,3.28 -1.01,1.52 -1.23,1.09 -2.33,-0.61 -1.23,-0.72 -3.86,-4.6 -2.34,-0.33 -2.23,-1.48 -1.05,-0.23 -3.5,-0.33 -1.15,0.4 -2.4,1.14 -3.01,3.13 -1.84,0.78 -1.04,1.02 -1.11,0.14 -0.96,-1.08 -1.98,-0.81 -5.31,0.69 -0.37,-0.32 0.05,-0.55 -2.99,-0.01 -1.8,-0.95 -0.55,0.06 0.39,0.87 -0.97,0.25 -2.700002,-4.13 -3.1,-1.76 -1.13,0 -0.34,-0.32 -0.07,-1.06 -2.11,-0.5 -1.23,1.49 0,0 -0.11,-0.49 -0.53,-0.03 -0.6,-0.68 -0.82,-1.51 -0.01,-1.27 -0.77,-1.04 -0.07,-0.94 -1.59,-1.98 -0.25,0.1 -1.97,-1.82 -0.1,-0.76 -2.35,-2.47 -0.11,-0.41 0.88,0.07 0.67,-1.13 -1.48,-2.98 0.08,-1.2 -1.27,-2.56 -4.56,-6.49 -0.04,-0.59 0.47,0.13 0.67,-0.39 0.95,-1.66 -0.53,-1.57 -1.66,-2.33 0.47,-0.3 -0.21,-0.76 0.41,-0.54 -1.77,-2.99 0.42,-1.17 -0.05,-1.48 -1.4,-3.14 0.57,-0.4 0.22,-0.92 0.92,0.35 0.25,-0.99 0.41,-0.26 -0.24,-0.58 0.64,-0.15 0.69,-1.1 -0.03,-0.55 0,0 0.51,-2.36 1.09,-1.11 1.49,-0.34 1.55,-1.41 0.5,-0.08 2.11,0.99 0.52,-0.12 0.44,0.6 0.28,-0.23 -0.09,-1.03 3.2,0.34 0.59,0.39 0.44,-0.27 -0.42,-4.67 1.49,-4.65 1.5,-1.1 -0.02,-2.75 0.42,-0.48 3.46,-1.55 1.42,-0.06 -0.04,-0.59 -5.49,-9.64 -2.28,1.33 -3.59,-2.35 0,0 -1.51,-2.19 -0.14,-2.39 -1.16,-3.19 0.47,-0.33 0.88,0.28 0.78,-0.6 0.19,-0.78 0.04,-1.35 0.18,-0.41 -0.33,-1.28 -2.04,-4.06 -2.59,-3.57 -0.33,-1.21 -1.26,-1.4 0.12,-1.9 -2.64,-3.06 -0.63,-2.03 -1.07,-1.74 -1.31,-2.42 -0.29,-1.83 -1.01,-1.04 -1.45,-2.58 0.38,-0.19 0.36,0.51 0.26,-0.27 0.75,0.66 -0.12,-0.52 0.85,0.15 -0.34,-0.47 0.47,-0.14 0.21,-0.51 -1.55,-0.53 -0.86,0.34 -0.81,-0.86 0,0 4.47,-0.88 1.92,-0.8 1.76,-1.66 1.89,0.73 1.07,-1.62 4.26,-1.18 1.01,0.34 2.26,1.87 2.32,0 1.16,-0.88 2.66,-0.35 0.83,-0.55 0.95,0.1 1.47,-1.27 1.5,-0.37 0.940002,0.41 1.16,-0.11 4.6,-2.87 z" 
                fill="rgb(151, 144, 238)" 
                stroke="white" 
                stroke-width=".7px"
                title="Bengo" 
                id="AO-BGO" 
            />
        </svg>