<svg xmlns="http://www.w3.org/2000/svg" viewBox="42.4202180000001 366.14374 127.70000200000001 106.14999999999986" width="127.70000200000001" height="106.14999999999986">
            <path 
                d="m 105.10022,366.51374 5.21,-0.37 3.43,1.54 3.41,-1.09 2.44,0.54 0.41,1.09 0.29,3.77 0.76,1.08 2.47,0.76 1.21,0.93 1.35,2.35 1.04,1.03 2.49,-1.07 2.81,-4.6 1.09,-0.76 3.56,-1.99 1.29,-0.32 1.13,0.21 2.18,2.27 3.56,4.75 2.97,5.97 4.7,0.58 1.15,-0.32 1.16,-0.86 1.15,0 5.77,2.81 1.05,0.75 0.28,2.35 2.27,0.47 0,0 -0.17,7.62 1.91,4.71 -0.64,1.05 1.26,2.17 -0.9,1.32 -3.73,0.59 -2.49,1.12 -1.35,1.14 -0.44,1.24 -3.46,1.86 -1.25,1.12 1.28,2.48 -0.79,1.05 0,1.28 1.87,3.74 0.04,2.32 3.55,6 0.84,4.88 -1.29,3.59 2.57,5.02 1.05,1.24 3.3,1.5 0.18,1.09 0.94,1.16 2.11,0.85 0,0 -0.96,4.44 -1.98,-0.04 -2.39,1.01 -1.18,1.11 -1.08,-0.1 -1.05,-0.9 -1.13,-0.31 -1.46,1.08 -4.1,4.52 -4.9,1.78 -2.42,0.63 -6.32,-2.98 -1.07,-0.28 -1.22,0.7 0.15,2.21 -1.12,0.39 -4.87,9.95 -1.1,0.35 -1.33,0.21 -4.63,-0.28 -3.82,-0.59 -2.39,-0.77 -2.42,0.66 -3.37,-1.55 -1.49,-0.22 -1.19,0.21 -2.39,1.53 -1.12,0 -4.65,-0.77 -2.24,-1.83 -1.150002,-0.11 -5.79,2.35 0,0 -1.41,0.31 -1.07,-0.24 -2.16,-1.32 -1.25,-0.25 -2.21,1.27 -1.19,-0.76 -1.51,-3.59 -2.79,-3.54 -0.34,-1.08 0.22,-1.18 1.13,-2.35 -0.31,-1.19 -1.09,-0.62 -3.35,-0.99 -3.75,-0.3 -2.23,-1.08 -1.22,0.2 -0.85,2.3 -3.65,1.02 -4.28,1.98 -1.07,-0.45 -2.09,-1.87 -2.54,-0.05 -2.25,-1.1 -3.51,-0.33 -2.25,-0.87 -3.43,-0.03 0,0 -0.26,-0.42 0.36,-0.78 -0.82,-0.28 0.36,-0.81 -0.27,-0.21 0.26,-1.09 -0.7,-0.29 0.43,-0.69 -0.14,-0.95 0.74,0.14 0.26,-1.01 0.42,-0.07 0.26,0.59 0.79,-0.8 0.34,0.1 1.26,-1.94 1.88,-0.94 0.06,-1.33 -0.7,-1.22 0.84,0.27 0.19,-0.31 -0.73,-0.27 0.51,-1.96 0.82,0.66 1.73,-1.03 0.22,-0.75 -0.26,-0.57 0.55,0.2 0.18,0.85 0.44,0.03 0.95,-0.74 -0.27,-0.38 0.37,-0.56 0.75,0.18 0.33,-0.39 0.55,0.02 0.56,-1.66 -0.75,-0.38 1.96,-1.23 0.12,0.53 0.36,-0.08 0.59,-1.19 1.73,-0.53 0.82,-2.04 1.14,-1.01 0.11,-0.68 1.19,-0.63 0.1,-0.59 1.07,-1.22 0.64,0.02 -0.08,-1.24 -1.83,-4.48 0.01,-1.74 1.49,-0.71 2.04,-2.43 2.22,-1.52 1.03,-1.37 0.93,-0.31 1.03,-1.38 1.11,-0.54 0.52,-1.69 2.04,-1.7 0.62,-0.19 -0.1,0.68 0.78,0.38 0.4,-0.25 0.42,0.42 1.56,-1.12 -0.08,-0.85 1,0.31 0.82,-0.47 0.01,0.46 0.9,1 1.1,0.2 1.85,-1.03 1.3,-1.67 3.34,-2.48 0.53,-1.66 -0.38,-1.11 1.9,-4.14 1.6,-1.32 0.4,0.38 0.81,-0.38 3.79,-5.18 0.1,-1.66 0.96,-3.28 1.110002,-0.9 0.62,-1.15 0.86,-5.76 1.84,-1.65 1.7,-9.33 z" 
                fill="rgb(151, 144, 238)" 
                stroke="white" 
                stroke-width=".7px"
                title="Benguela" 
                id="AO-BGU" 
            />
        </svg>