<svg xmlns="http://www.w3.org/2000/svg" viewBox="16.95021800000001 0.29373999999999634 54.08999999999999 69.86" width="54.08999999999999" height="69.86">
            <path 
                d="m 55.640218,1.57374 0.91,1.02 4.43,-0.5 0.16,2.86 3.94,3.63 1.34,2.49 4.47,2.67 0.15,1.68 -0.46,0.43 -0.7,0 -1.21,-0.53 -1.18,0.74 -2.41,0.46 -3.09,1.44 -2.15,0 -0.82,0.33 -0.24,0.78 -0.93,0.02 -0.41,0.93 -0.79,0.57 -1.12,2.27 0.45,0.35 -0.06,0.34 -1.06,1.14 -1.19,0.36 -1.22,1.3 -0.61,2.28 -2.26,0.47 -1.58,-0.4 -0.34,0.52 0.38,1.5 -0.57,1.48 -0.69,-0.01 -0.86,0.91 -0.53,-0.01 -0.59,0.53 -1.11,-0.02 -1.14,0.86 -2.45,0.06 -0.4,1.18 0.79,1.12 2.47,1.04 -0.11,29.35 -13.29,0.47 -2.91,1.28 0.46,1.19 -2.27,-3.27 -0.77,-1.75 -0.42,-2.58 1.81,-4.38 1.41,0.39 0.91,-0.66 0.17,-1.34 -0.5,-2.61 -2.72,-6.59 0.53,-0.2 0,-0.56 -2.27,-3.57 0.47,-1.23 -0.43,-0.9 0.7,-0.4 -0.55,-0.57 -0.13,-0.24 -0.37,-0.65 -0.46,0.17 -0.01,-0.38 -0.33,-0.02 -0.12,0.4 0.6,0.3 0.44,1.36 -5.51,-7.71 -0.34,-0.54 8.06,-6.52 1.82,-6.4 2.15,2.44 2.35,-0.19 2.81,-2.77 4.83,-7.69 7.87,-1.78 2.3,-3.79 4.8,-0.06 -1.66,-2.29 0.08,-1.95 1.15,-1.33 1.46,0.53 z" 
                fill="rgb(151, 144, 238)" 
                stroke="white" 
                stroke-width=".7px"
                title="Cabinda" 
                id="AO-CAB" 
            />
        </svg>