<svg xmlns="http://www.w3.org/2000/svg" viewBox="118.14021999999999 175.73374000000004 87.18000000000005 91.71000000000006" width="87.18000000000005" height="91.71000000000006">
            <path 
                d="m 147.39022,196.77374 0.64,1.95 1.83,-0.31 1.93,0.85 1.76,0.15 2.39,-0.96 1.94,-2.16 0.52,-1.89 1.76,-1.66 2.52,0.24 2.49,1.63 2.57,-1.23 2.72,0.32 0.66,-2.09 1.3,-0.11 0.34,-1.04 0.93,-0.14 0.44,-1.29 0.41,-0.2 0.05,-3.09 1.07,-1.64 0.05,-0.58 -1.07,-1.04 -0.97,0.34 -0.32,-0.34 0.16,-1.25 1.04,-1.68 -0.39,-2.6 4.5,-1.07 5.98,-0.15 1.45,0.78 0.82,1.24 -0.14,1.64 0.41,1.65 1.75,0.74 1.73,0.11 2.9,-0.91 1.75,-1.65 4.53,-0.07 1,1.09 1.77,0.96 0.01,0.44 -1.43,0.26 0.01,0.53 0.64,1.81 0.55,0.15 0.25,-0.46 0.52,-0.1 0.67,0.7 0.24,4.78 0,0 -0.11,2.68 0.65,1.33 -0.26,2.04 0.61,0.76 -0.32,1.4 0.68,0.96 -1.32,1.54 -6.39,1.58 0.26,2.22 -3.26,4.62 1.37,2.87 1.08,0.73 2.46,0.16 1.07,2.45 -1.46,2.25 -1.81,5.68 -0.58,4.69 -0.81,2.2 0.57,3.49 -0.41,2.96 -1.68,1.11 -2.46,-0.09 -0.93,0.36 -0.93,-0.03 -1.21,-0.88 -0.62,-0.02 -1.98,1.42 -1.72,0.1 -1.41,1.37 -0.93,0.41 -2.41,-0.03 -1.51,0.54 -1.38,1.34 -0.48,1.58 -0.25,3.11 -2.79,0.51 -1.74,-0.32 -1.56,0.61 2.89,2.09 0.56,2.4 -3.44,3.03 0.11,1.06 1.15,0.84 0.69,1.12 0.6,3.53 -0.3,1.05 -2.61,2.28 0,0 -1.43,0.04 -1.96,-1.52 -1.57,-0.07 -2.63,-0.82 -0.22,0.4 0.57,0.81 -1.03,0.99 -1.71,-0.35 -1.99,0.12 -0.88,0.49 -2.24,0.41 -1.26,-0.14 -0.56,0.13 -0.82,1.28 -0.49,0.2 -5.35,0.73 -2.78,-0.54 0,0 -1.76,0.76 -0.97,-1.11 -1.56,-0.5 -1.02,-1.74 -3.18,-1.62 -4.25,0.47 -1.39,-0.73 -0.51,-1.59 -0.73,-0.59 -3.31,0.21 -1.13,-0.24 -1.25,-0.85 -1.06,-3.7 -0.26,-0.37 -1.37,-0.39 2.21,-5.16 0.68,-3.41 0.55,-1.1 2.22,-1.95 0.17,-1.23 -2.06,-2.22 0.13,-1.14 1.16,-1.04 -0.64,-1.14 -1.15,-0.79 -3.67,-0.07 -1.11,-1.06 0.43,-1.21 1.12,-0.76 2.31,-0.54 0.85,-1.08 -0.48,-2.42 -1.07,-1.04 -2.23,-1.02 0.14,-1.11 1.19,-2.09 4.5,-0.27 3.65,-1.44 3.46,-2.45 1.83,-3.16 -0.14,-2.28 -1.68,-4.62 -0.65,-1.21 -2.55,-1.91 -0.58,-1.14 0,-1.2 0.6,-1.89 1.61,-1.39 1.07,-0.23 2.38,-1.75 2.18,-0.07 1.63,0.43 6.52,-0.1 z" 
                fill="rgb(151, 144, 238)" 
                stroke="white" 
                stroke-width=".7px"
                title="Cuanza Norte" 
                id="AO-CNO" 
            />
        </svg>