<svg xmlns="http://www.w3.org/2000/svg" viewBox="90.38021799999999 262.15374 153.30000199999992 126.21999999999974" width="153.30000199999992" height="126.21999999999974">
            <path 
                d="m 143.40022,266.68374 2.78,0.54 5.35,-0.73 0.49,-0.2 0.82,-1.28 0.56,-0.13 1.26,0.14 2.24,-0.41 0.88,-0.49 1.99,-0.12 1.71,0.35 1.03,-0.99 -0.57,-0.81 0.22,-0.4 2.63,0.82 1.57,0.07 1.96,1.52 1.43,-0.04 0,0 0.75,0.96 0.98,0.4 1,1.05 0.97,0.03 1.48,1.22 2.09,0.29 1.14,-0.23 0.91,0.47 2.03,0.04 1.72,-0.1 2.5,-0.99 2.2,-0.42 2.16,0.25 2.26,-0.53 1.16,0.28 2.31,-0.46 3.35,0.62 3.61,-0.22 2.28,-3.16 1.23,-0.14 3.44,1.01 4.9,-0.68 3.42,0.77 5.25,0.55 1.81,2.2 0.74,2.34 1.04,0.84 2.14,0.92 0.87,1.17 -0.41,3.04 2.11,2.71 0.31,3.09 1.29,2.65 -0.3,0.76 -2,1.5 -0.35,0.98 0.63,3.79 0.78,0.57 1.82,0.2 1.28,1.43 0.36,1.03 0.85,0.54 -0.23,2.47 0.28,0.99 2.03,0.6 1.07,1.7 2.14,2.64 1.22,0.89 1.31,1.98 0,0 -1.17,1.17 -0.04,0.58 0.53,0.83 -1.24,1.49 -0.26,1.13 -2.89,1.24 -0.02,0.79 -1.72,2.09 -6.12,3.02 -1.32,0.97 -1.74,2.16 -3.44,6.1 -1.15,0.39 -1.07,-0.27 -3.51,-1.73 -2.27,1.4 -1.31,-0.09 -3.39,-2.43 -0.7,1.36 -0.68,4.38 -0.85,2.43 -4.84,7.27 -1.07,1.04 0.3,3.58 -2.16,4.76 0,0 -0.68,1.18 -1.15,0.5 -9.34,1.51 -2.21,1.5 -3.61,0.77 -2.15,1.71 -0.38,3.7 1.34,1.96 0.15,2.31 1.18,0.89 -0.67,1.4 0,1.85 -1.2,0.86 0.9,1.17 -0.89,3.59 0.72,1.22 -3.71,-0.22 -1.73,2.09 -1.12,0.62 -1.2,-0.48 -2.53,1.53 -3.02,0.36 -2.07,2.06 -2.43,6.07 0,0 -2.27,-0.48 -0.28,-2.35 -1.05,-0.75 -5.77,-2.81 -1.15,0 -1.16,0.86 -1.15,0.32 -4.7,-0.58 -2.97,-5.97 -3.56,-4.75 -2.19,-2.27 -1.13,-0.2 -1.29,0.32 -3.55,1.99 -1.1,0.76 -2.81,4.6 -2.48,1.07 -1.04,-1.02 -1.35,-2.35 -1.21,-0.93 -2.48,-0.77 -0.76,-1.08 -0.29,-3.77 -0.41,-1.08 -2.44,-0.54 -3.41,1.09 -3.44,-1.54 -5.21,0.37 0,0 -0.79,-6.11 -0.06,-1.12 0.33,-0.64 -0.93,-1.75 0.63,-0.45 0.23,-0.83 -0.32,-1.22 0.13,-1.39 0.74,-2.12 -0.22,-1.35 0.65,-1.71 -0.47,-2.65 0.66,-1.26 0.85,-0.15 0.13,-0.35 -0.24,-3.08 0.44,-0.79 0.28,-4.25 1.26,-6.79 -0.52,-2.49 -1.28,-2.89 -5.4,-7.28 1.27,-0.46 0.62,-1.34 0.79,-0.31 0.48,-0.87 -0.05,-0.62 -0.75,-1.43 -7.150002,-8.69 -4.52,-4.57 0.89,-1.37 -0.23,-1.49 -0.83,-2.95 -1.34,-1.48 0,0 1.23,-1.49 2.12,0.51 0.07,1.06 0.34,0.31 1.13,0 3.11,1.77 2.700002,4.13 0.97,-0.25 -0.39,-0.87 0.55,-0.06 1.8,0.96 2.99,0.01 -0.05,0.55 0.37,0.32 5.31,-0.69 1.99,0.81 0.96,1.08 1.1,-0.14 1.04,-1.02 1.84,-0.77 3.02,-3.13 2.4,-1.13 1.15,-0.4 3.5,0.32 1.05,0.24 2.23,1.48 2.34,0.33 3.86,4.6 1.23,0.71 2.33,0.61 1.23,-1.09 1.01,-1.52 1.21,-3.28 -0.62,-2.28 -2.26,-1.81 -0.68,-1.35 -0.12,-1.07 0.55,-1.07 1.26,-0.86 -0.03,-1.11 -2.28,-3.71 -0.28,-1.48 2.43,-3.12 z" 
                fill="rgb(151, 144, 238)" 
                stroke="white" 
                stroke-width=".7px"
                title="Cuanza Sul" 
                id="AO-CUS" 
            />
        </svg>