<svg xmlns="http://www.w3.org/2000/svg" viewBox="72.42021799999995 536.5637399999999 211.18000199999992 117.23999999999944" width="211.18000199999992" height="117.23999999999944">
            <path 
                d="m 89.550218,592.67374 2.87,2.39 1.97,2.49 2.24,1.46 2.28,-0.74 3.600002,-1.66 1.37,-1.09 6.09,-8.28 1.52,-0.26 1.13,0.63 1.77,2.28 1.06,0.53 1.1,-0.15 1.37,-1.07 1.31,-2.34 1.06,-1.09 6.54,-1.35 1.06,-1.18 5.69,-2.88 7.45,-8.03 3.45,0.9 2.29,-0.11 1.25,-0.45 5.76,1.13 8.37,2.25 1.11,0.48 2.18,2.27 0.97,3.41 4.78,1.17 1.13,-0.18 1.69,-3.45 2.97,-3.31 2.74,-5.68 0.75,-2.51 3.06,-3.07 1.55,-3.9 2.54,-4.57 1.25,-0.46 2.15,-2.4 1.22,-0.55 2.51,-1.96 1.54,0.07 3.61,-2.49 2.23,0.43 3.38,-0.68 2.95,1.11 6,0.07 1.11,0.37 4.98,-1.31 3.77,0.72 1.17,-0.89 2.58,-3.6 3.44,-3.44 0.48,-1.15 1.15,-1.18 1.14,-0.61 6.01,-2.2 4.7,0.86 5.57,-0.03 0,0 1.81,0.81 -0.49,1.46 0.84,1.23 2.82,1.38 0.36,1.02 -0.37,1.04 1.34,1.36 2.05,1.08 0.2,1.68 1.02,0.4 1.25,1.52 2.82,0.79 0.71,1.42 0.93,-0.56 0.77,3.48 1.02,1.17 3.49,0.91 3.06,6.79 3.46,5.79 3.38,3.02 1.12,2.29 -0.2,8.05 1.65,9.46 -0.06,6.3 -1.49,5.1 -3.42,3.41 -0.52,1.14 -0.74,3.9 -2.9,5.56 -0.59,6.5 -0.02,5.79 4.05,13.05 -1.4,7.38 0,0 -0.1,0.42 -8.27,0.04 -11.46,-0.18 -0.11,-0.29 -105.46,0.03 -25.48,-0.33 -0.48,1.43 -1.91,0.41 -0.67,0.7 -1.99,-0.37 -0.87,0.83 -3.71,-1.16 -1.28,0.61 -1.78,0.08 -1.38,-0.79 -0.68,-1.99 -1.7,-1.45 -3.3,-1.37 -3.11,-2.26 -1.61,-0.53 -1.310002,-1.21 -0.68,0.01 -2.13,-2.19 -4.41,-2.87 -1.69,-0.65 -0.29,-0.45 0.85,-1.07 0.02,-0.76 -2.62,-3.66 -2.74,-1.07 -1.73,-1.18 -1.48,-0.03 0,0 -0.46,-0.09 -0.2,-2.61 -1.34,-2.5 -7.14,-7.13 -1.01,-1.26 -0.38,-1.24 1,-2.29 1.14,-1.1 1.12,-0.15 1.24,-0.84 1.77,-2.54 -0.22,-1.15 -0.71,-1.15 -2.01,-1.91 1.13,-1.75 0.8,-0.61 1.47,-0.2 1.12,-1.72 1.56,-0.08 0.78,-1.55 0.55,0.71 1.45,-1.35 0.95,-0.07 z" 
                fill="rgb(151, 144, 238)" 
                stroke="white" 
                stroke-width=".7px"
                title="Cunene" 
                id="AO-CNN" 
            />
        </svg>