<svg xmlns="http://www.w3.org/2000/svg" viewBox="154.48022 349.71374000000003 88.17999999999998 117.11000000000007" width="88.17999999999998" height="117.11000000000007">
            <path 
                d="m 201.55022,350.22374 3.39,1.69 1.22,-0.28 2.39,1.13 3.61,-0.78 1.14,0.07 2.09,-1.99 1.28,-0.35 2.23,1.88 2.46,-0.34 1.14,0.21 1.05,1.09 4.61,-0.31 1.36,6.5 1.02,1.01 0.19,1.04 2.25,1.23 0.03,1.44 3.66,1.91 0.74,1.34 0.29,2.35 2.69,2.13 1.92,2.21 0.35,1.7 -0.29,1.78 -1.16,0.97 -1.83,2.99 -0.51,2.83 -0.98,1.76 -3.74,3.16 -2.24,1.2 -1.22,1.56 -0.16,1.16 0.83,1.24 0.08,1.12 1.29,1.24 0.39,1.19 -0.55,4.19 -0.34,1.17 -3.58,2.33 0.12,2.31 0.56,1.23 1.1,0.27 1.02,1.1 0.46,2.62 4.62,2.56 2.29,0.65 -0.23,5.44 0.41,1.56 -0.23,1.18 0.43,5.5 1.34,6.73 -0.52,1.62 0.52,1.54 -0.69,6.96 0,0 -3.72,0.59 -2.31,-1.06 -1.07,-0.09 -3.75,1.16 -1.27,-0.65 -0.53,-1.29 -1.22,0.18 -1.41,0.35 -1.2,1.05 -2.39,3.78 -3.42,0.59 -1.24,-0.45 -2.11,-2.29 -2.29,-0.13 -7.4,7.79 -2.74,3.5 -1.13,0.87 -3.57,1.09 -0.77,1.14 -0.03,1.06 -1,1.05 -3.53,1.96 -1.3,0.36 -1.08,-0.2 0.24,-4.99 -0.25,-1.43 -4.57,0.2 -1.2,-0.45 -0.6,-1.09 -0.5,-7.35 -1.09,-2.39 -0.95,-1.12 -1.09,-0.49 -4.87,0.99 -2.22,0.84 -2.16,-0.85 0,0 -2.1,-0.85 -0.95,-1.16 -0.17,-1.09 -3.3,-1.5 -1.05,-1.24 -2.57,-5.02 1.29,-3.59 -0.84,-4.88 -3.55,-6 -0.04,-2.32 -1.87,-3.74 0.01,-1.28 0.79,-1.05 -1.28,-2.48 1.24,-1.12 3.46,-1.85 0.44,-1.24 1.36,-1.15 2.49,-1.11 3.73,-0.59 0.9,-1.32 -1.25,-2.17 0.64,-1.05 -1.91,-4.71 0.17,-7.61 0,0 2.43,-6.07 2.07,-2.06 3.02,-0.36 2.53,-1.53 1.2,0.48 1.12,-0.62 1.73,-2.09 3.71,0.22 -0.72,-1.22 0.89,-3.59 -0.9,-1.17 1.2,-0.86 0,-1.85 0.67,-1.4 -1.18,-0.89 -0.15,-2.31 -1.34,-1.96 0.38,-3.7 2.15,-1.71 3.61,-0.77 2.21,-1.5 9.34,-1.51 1.15,-0.5 z" 
                fill="rgb(151, 144, 238)" 
                stroke="white" 
                stroke-width=".7px"
                title="Huambo" 
                id="AO-HUA" 
            />
        </svg>