<svg xmlns="http://www.w3.org/2000/svg" viewBox="76.25021799999998 444.92374000000007 174.31000199999994 154.09000000000015" width="174.31000199999994" height="154.09000000000015">
            <path 
                d="m 170.11022,448.49374 2.16,0.85 2.22,-0.84 4.87,-0.99 1.09,0.49 0.95,1.12 1.09,2.39 0.5,7.35 0.6,1.09 1.2,0.45 4.57,-0.2 0.25,1.43 -0.24,4.99 1.08,0.2 1.3,-0.36 3.53,-1.96 1,-1.05 0.03,-1.06 0.77,-1.14 3.57,-1.09 1.13,-0.87 2.74,-3.5 7.4,-7.79 2.29,0.13 2.11,2.29 1.24,0.45 3.42,-0.59 2.39,-3.78 1.2,-1.05 1.41,-0.35 1.22,-0.18 0.53,1.29 1.27,0.65 3.75,-1.16 1.07,0.09 2.31,1.06 3.72,-0.59 0,0 -0.58,3.08 0.89,3.89 -0.18,3.78 -0.41,4.49 -1.44,3.55 -0.13,2.31 -0.91,1.75 0.64,2.75 -0.68,6.76 0.19,0.51 0,0 0.64,1.38 -0.64,2.06 1.17,3.59 -0.72,4.23 -0.18,0.55 -0.85,0.54 -0.06,0.65 0.69,2.04 0.17,3.16 1.46,3.3 -0.41,1.66 0.45,1.6 -0.37,2.43 0.06,4.56 2.64,2.49 1.13,0.12 0.19,0.45 -0.54,0.66 2.78,0.79 -0.04,0.45 -0.49,0.16 -0.69,2.35 2,1.88 0.7,2.73 -0.44,2.37 0.07,1.8 0.94,1.81 1.74,1.73 0.29,1.75 -0.69,0.72 -0.09,1.08 1.05,1.83 1.36,1.34 0,0 -5.57,0.03 -4.7,-0.86 -6.01,2.2 -1.14,0.61 -1.15,1.18 -0.48,1.15 -3.44,3.44 -2.58,3.6 -1.17,0.89 -3.77,-0.72 -4.98,1.31 -1.11,-0.37 -6,-0.07 -2.95,-1.11 -3.38,0.68 -2.23,-0.43 -3.61,2.49 -1.54,-0.07 -2.51,1.96 -1.22,0.55 -2.15,2.4 -1.25,0.46 -2.54,4.57 -1.55,3.9 -3.06,3.07 -0.75,2.51 -2.74,5.68 -2.97,3.31 -1.69,3.45 -1.13,0.18 -4.78,-1.17 -0.97,-3.41 -2.18,-2.27 -1.11,-0.48 -8.37,-2.25 -5.76,-1.13 -1.25,0.45 -2.29,0.11 -3.45,-0.9 -7.45,8.03 -5.69,2.88 -1.06,1.18 -6.54,1.35 -1.06,1.09 -1.31,2.34 -1.37,1.07 -1.1,0.15 -1.06,-0.53 -1.77,-2.28 -1.13,-0.63 -1.52,0.26 -6.09,8.28 -1.37,1.09 -3.600002,1.66 -2.28,0.74 -2.24,-1.46 -1.97,-2.49 -2.87,-2.39 0,0 1.29,-0.7 0.43,-1.1 1.1,-1.05 0.07,-1.09 -1.99,-3.66 -0.49,-2.3 1.84,-4.65 3.87,-6.9 -2.38,-3.64 -0.24,-1.12 0.31,-12.17 -3.75,-1.41 -2.35,-1.85 -0.74,-1.15 0.65,-2.45 -0.76,-2.33 -1.37,-0.33 -0.52,1.08 -1.22,0.83 -1.16,0.1 -1.04,-1.26 0.35,-1.34 -0.18,-1.65 -1.43,-0.28 -2.38,0.65 -1.12,-1.02 -0.09,-1.19 3.68,-2.11 0.39,-1.2 -2.92,-3.44 0.35,-1.24 2.05,-2.41 -1.24,-3.59 0,-1.4 2,-2.16 2.37,-0.37 0.95,-1.27 3.59,-2.79 3.7,-1.63 2.93,-2.03 2.47,-5.79 0.27,-4.79 2.75,-3.74 -0.19,-4.21 -0.49,-2.2 0.4,-2.49 -1.16,-0.52 -1.11,0.59 -1.16,-0.8 -0.48,-1.22 0.81,-2.56 -0.68,-2.41 -1.19,-2.36 0.44,-1.58 2.19,-3.58 0.31,-1.13 -0.35,-1.19 -2.15,-1.46 -0.89,-2.73 0,0 5.8,-2.36 1.150002,0.12 2.24,1.83 4.66,0.77 1.12,0 2.39,-1.53 1.19,-0.21 1.49,0.23 3.37,1.55 2.42,-0.66 2.4,0.77 3.82,0.59 4.62,0.28 1.33,-0.21 1.1,-0.35 4.87,-9.95 1.13,-0.39 -0.15,-2.22 1.22,-0.7 1.06,0.28 6.32,2.99 2.42,-0.64 4.9,-1.77 4.1,-4.53 1.47,-1.07 1.13,0.3 1.05,0.9 1.08,0.1 1.18,-1.11 2.4,-1.01 1.98,0.05 z" 
                fill="rgb(151, 144, 238)" 
                stroke="white" 
                stroke-width=".7px"
                title="Huíla" 
                id="AO-HUI" 
            />
        </svg>