<svg xmlns="http://www.w3.org/2000/svg" viewBox="65.56021800000002 210.39374 31.45999999999998 35.48000000000002" width="31.45999999999998" height="35.48000000000002">
            <path 
                d="m 71.990218,223.84374 0.15,0.72 -0.38,1.16 -0.83,0.19 -0.1,-0.59 1.16,-1.48 z m 1.31,-2.11 0.52,0.36 -1.07,0.21 0.03,0.73 -1.05,0.4 -0.79,0.83 -0.07,0.55 -0.45,0.06 -0.38,0.7 -1.07,0.68 -0.68,1.3 -0.59,0.08 0.45,-1.05 4.59,-4.65 0.56,-0.2 z m 15.91,-9.27 2.28,-1.33 5.49,9.64 0.04,0.59 -1.41,0.07 -3.46,1.55 -0.41,0.48 0.02,2.75 -1.5,1.1 -1.49,4.65 0.42,4.67 -0.44,0.27 -0.59,-0.39 -3.2,-0.34 0.09,1.03 -0.28,0.23 -0.44,-0.6 -0.52,0.12 -2.11,-0.99 -0.5,0.08 -1.55,1.41 -1.49,0.34 -1.09,1.11 -0.51,2.36 0,0 0.04,0.49 -0.7,1.16 -0.64,0.15 0.24,0.58 -0.4,0.26 -0.25,0.99 -0.92,-0.34 -0.22,0.92 -0.57,0.4 -4.83,-8.04 -1.07,-2.38 -1.68,-2.05 0.04,-3.26 0.82,-0.3 0.29,0.36 -0.81,0.17 0.4,0.33 -0.37,1.14 0.21,0.39 0.27,0.8 -0.33,0.55 0.47,0.19 0.19,-1.21 1.64,-1.4 1.03,-2.47 0.86,-0.5 0.64,-1.67 2.16,-0.08 0.55,-1.39 -0.05,-1.02 2.12,-2.3 0.1,-1.23 0.55,-0.3 0.01,-0.95 0.41,-0.37 0.67,0.23 0.42,-0.72 1.19,0.12 0.74,-0.69 0.26,-0.98 0.62,-0.41 3.1,1 1.06,-0.8 0.62,-0.67 0.86,-3.55 -0.26,-2.02 3.17,2.07 z" 
                fill="rgb(151, 144, 238)" 
                stroke="white" 
                stroke-width=".7px"
                title="Luanda" 
                id="AO-LUA" 
            />
        </svg>