<svg xmlns="http://www.w3.org/2000/svg" viewBox="279.2602199999999 125.31374 226.73999999999995 186.27999999999986" width="226.73999999999995" height="186.27999999999986">
            <path 
                d="m 434.13022,125.31374 7.66,0.03 -0.43,3.06 -1.43,1.51 -0.7,3.13 -1.17,2.13 -0.39,1.55 -0.36,3.71 0.26,3.07 61.08,0.12 0.33,0.94 1.6,1.22 0.92,2.87 -0.47,0.85 1.22,1.16 0.1,0.79 -0.62,0.82 0.69,0.79 -1.02,2.22 0.84,1.83 -0.09,0.79 -0.44,0.5 0.25,1.08 -0.96,0.85 -0.22,1.53 -0.66,0.43 0.03,1.01 -0.76,2.4 -0.47,0.48 -0.12,0.96 -0.77,0.86 0.49,1.97 -0.67,0.69 -0.11,0.7 0.42,2.39 -0.12,0.68 -1.12,1.02 0,0.53 0.71,1.05 0.56,2 0.83,1.52 1.28,1.24 2.01,4.34 1.57,1.54 0.07,0.59 -0.5,0.51 0.89,2.97 0.01,1.67 1.65,1.14 0,0 -1.2,0.94 -2.73,1.29 -2.24,3.66 -1.07,0.23 -2.6,-0.64 -4.78,1.77 -1.13,0.85 -2.21,3.45 -9.44,1.66 -4.82,-1.22 -1.37,0.26 -1.09,0.81 -3.51,-0.43 -2.71,1.56 -1.48,0.36 -2.12,-0.09 -4.58,2.42 -0.97,2.21 -3.76,1.78 -1.06,1.01 -3.24,5.19 -1.95,6.22 -2.36,1.35 -3.67,0.48 -2.54,1.65 -1.36,1.31 -3.6,0.45 -1.25,0.71 -1.43,3.47 -0.26,2.13 -0.9,1.09 -1.07,0.77 -4.89,0.27 -1.16,0.56 -5.32,4.22 -5.83,5.38 -1.66,12.45 -0.6,1.53 -1.58,2.31 -3.47,3.72 -1.22,0.92 -6.67,1.06 -1.43,0.62 -3.54,3.04 -1.07,0.31 -3.95,0.03 -1.31,0.52 -4.94,4.22 -5.65,1.41 -3.21,3.44 -3.68,1.84 -2.56,0.97 -7.13,0.65 -1.08,0.47 -3.7,4.4 -5.93,2.59 -1.1,0.43 -8.2,-0.64 -1.1,0.26 0.47,0.93 0.92,0.46 -0.81,0.58 0.07,0.4 1.25,0.03 1.26,1.03 0,0 -1.33,0.95 -2.26,0.79 -1.34,2.24 0.37,1.2 1.08,0.64 0.65,1.24 -1.18,2.39 -6,0.48 -1.07,-0.15 -4.5,-2.88 -1.18,-0.22 -1.15,-1.38 -3.34,-2.4 -1.05,-0.5 -2.2,-0.09 -1.16,-0.47 0.01,-1.06 -2,-2.1 -0.16,-0.8 5.06,-4.66 -0.03,-1.45 -2.24,-0.8 -0.75,-0.64 -0.89,-1.52 -1.04,-0.55 -1.11,-2.93 -1.22,-0.63 -0.32,-0.86 0.34,-1.12 -0.2,-0.47 0.8,-1.1 -0.03,-0.97 -2.06,-3.06 -0.3,-1.7 -1.45,-0.36 -0.93,-1.1 -1.64,-5.27 -4.74,-2.23 -3.68,0.56 -0.81,-1.08 0.18,-2.25 -1.02,-1.12 -0.4,-1.16 -4.44,-1.14 -1.08,-0.8 -0.71,-2.21 -2.37,-0.48 -0.7,-1.11 0.44,-1.18 -0.39,-2.27 -1.15,-2.27 -1.08,-1.05 -0.37,-2.33 -1.04,-1.08 -0.24,-2.35 2.3,-1.93 5.88,-2.22 2.23,-0.34 1.02,-1.35 -0.07,-2.31 1.69,-2.36 0.29,-1.09 -0.95,-2.41 -0.23,-2.31 -0.5,-1.21 1.47,-7.81 0.13,-2.11 -0.45,-3.25 0.58,-2.13 -0.62,-2.3 0.31,-2.24 -2.27,-1.46 -1.22,-3.91 0.7,-3.42 1.71,-2.19 -0.74,-0.82 -0.71,-4.67 0.16,-1.15 -0.3,-0.99 0.77,-0.63 -0.06,-0.57 -0.87,-1.17 -0.55,-0.11 -0.12,-0.54 0.53,-1.45 0,0 1.22,0.96 2.52,0.05 3.64,-1.33 1.77,-0.23 3.73,0.69 1.4,-0.96 2.95,-0.62 2.7,0.17 2.08,1.5 0.89,-0.74 4.95,0.07 0.15,-0.58 -0.79,-0.96 0.53,-1.37 1.82,-0.27 0.89,-1.3 3.15,-0.94 2.18,0.22 1.61,-0.29 0.68,0.28 -0.39,0.31 0.22,0.68 0.74,0.19 0.35,-0.24 1.36,0.68 0.54,-0.25 0.53,0.29 1.12,-0.7 -0.36,-0.65 6.72,0 0.41,-1.98 -0.17,-1.96 12.19,0.06 0.19,1.78 -0.26,0.3 1.09,1.8 28.24,-0.23 -0.81,-4.09 -0.67,-0.66 0.64,-0.99 -0.05,-0.62 0.46,-0.27 -0.13,-2.44 1.23,-1.45 0.7,-3.4 0.42,-0.64 -0.57,-2.47 -0.99,-1.68 -0.45,-1.68 0.56,-0.28 0.05,-0.42 4.57,-0.1 1,-1.67 -0.4,-1.5 1.28,-0.66 0.5,-0.76 1.41,-0.09 -0.28,-0.74 -0.91,-0.61 0.32,-0.64 -0.59,-0.35 -1.31,-2.8 0.45,-0.62 -0.8,-2.07 0.88,-5.15 -0.47,-1.55 1.86,-4.42 1.45,-1.52 -0.76,-1.34 -0.17,-1.52 37.36,-0.07 0.76,-4.19 z" 
                fill="rgb(151, 144, 238)" 
                stroke="white" 
                stroke-width=".7px"
                title="Lunda Norte" 
                id="AO-LNO" 
            />
        </svg>