<svg xmlns="http://www.w3.org/2000/svg" viewBox="335.52021999999954 194.5537400000001 190.12000000000023 157.43000000000004" width="190.12000000000023" height="157.43000000000004">
            <path 
                d="m 506.65022,200.11374 0.84,3.49 -0.86,1.67 0.13,1.71 -1.11,1.73 0.68,0.68 -1.12,1.67 0.13,1.24 -0.87,2.3 0.29,2.36 -1.16,3.22 0.11,0.48 -0.73,1.34 0.12,0.81 -0.45,1.24 0.23,0.85 -0.78,4.76 0.57,1.43 -0.92,0.82 0.01,2.53 0.86,2.63 0.1,2.72 -1.54,3.32 -0.14,1.47 -0.68,0.69 -0.64,3.33 -0.46,0.79 2.07,2.21 -0.24,1.61 1.88,3.4 -0.08,1.59 0.44,0.85 -0.23,0.79 0.35,0.52 -0.1,0.59 2.88,1.67 0.27,1.28 1.29,0.91 0.53,1.66 0.48,0.09 0.84,-0.71 -0.06,1.63 0.5,1.55 0.64,0.97 0.95,0.06 1.4,2.04 1.12,0.42 1.03,-0.53 0.67,0.94 1.11,-0.13 1.9,1.76 -0.1,1.01 0.96,1.97 -0.52,0.6 1.01,1.15 -0.3,0.72 0.61,1.71 -0.11,4.37 0.64,1.23 0.03,1.29 2.16,2.56 0.29,1.18 -0.19,0.86 1.22,1.29 1.04,2.86 -0.25,1.75 -1.33,2.32 -0.16,1.53 -0.73,0.54 -0.01,0.39 1.85,1.18 0.07,3.42 0,0 -2.02,0.85 -2.28,-0.03 -1.7,-1.07 -2.59,-0.72 -1.83,0.17 -1,-0.32 -2.18,1.95 -7.14,0.19 -1.45,-0.63 -2.97,0.24 -1.32,1.4 -1.33,2.81 -0.56,2.87 0.1,3.09 -1.7,1.09 -1.88,2.2 -0.33,4.25 -0.63,0.75 -0.07,0.62 1.37,2.72 1.07,0.07 -0.31,1 0.38,0.93 -0.15,1.98 -2.74,0.71 -0.21,0.49 -2.03,0.44 -0.7,0.61 -2.18,-0.32 -0.57,-0.72 -0.18,0.51 -1.41,-0.24 -0.94,1.74 -0.98,-0.11 -0.93,0.45 -1,-0.18 -0.97,0.61 0,0.39 -2.21,0.31 -3.17,1.68 -2.9,0.44 -0.56,0.63 -0.03,0.93 -0.98,1 -1,0.29 -1.29,2.17 -1.91,0.71 -0.96,-0.35 -2.08,1.39 -1.08,0.14 0.16,1.21 0.52,0.86 -0.35,0.89 -0.97,0.4 -5.22,-0.89 -0.94,0.38 -0.82,-0.53 -1.84,0.15 -1.93,-0.46 -1.31,-0.76 -1.49,0.4 -1.01,-1.72 -1.18,-0.15 -0.88,0.37 -2.43,-1.66 -1.18,0.12 -1.41,-0.66 -0.82,-1.25 -0.55,-0.17 -1.04,0.33 -1.49,-0.56 -1.74,-1.7 -2.61,-1.47 -1.11,0.1 -1.28,0.78 -0.89,-0.49 -1.22,-0.11 -0.92,-1.15 -1.41,-0.63 -1.04,0.27 -0.48,-0.21 -0.58,-0.79 -1.51,-0.61 -0.66,-0.72 -1.06,0.26 -3.15,3.72 -1.63,0.01 -1.96,-1.36 -1.45,0.55 -1.62,-0.34 -1.06,1.71 -0.97,0.4 -1.17,-0.11 -0.98,-1.76 -1.04,-0.01 -0.68,-0.7 -1.71,0.85 -0.81,1.26 -3.32,0.79 -2.89,-1.23 -1.98,-1.47 -1.73,-0.09 -1.53,0.84 -0.82,1.95 -2.13,2 -1.92,1.57 -1.63,0.42 -1.53,1.19 -1.11,0.27 -3.28,-0.81 -1.31,0.06 -0.87,0.5 -0.84,1.23 -2.82,0.88 0,0 0.28,-3.11 0.88,-1.22 -0.08,-1.32 1.76,-2.44 -0.2,-1.11 -1.52,-2.35 -1.23,-0.61 -2.26,0.04 -2.55,-0.47 -3.91,-4.59 -5.74,-3.64 -6.25,-3.37 0,0 -0.75,-2.59 -1.73,-1.72 -1.41,-0.71 -1.43,-1.29 -1.9,-4.28 -0.16,-3.02 -0.41,-0.85 0.71,-0.68 1.5,0.29 -0.63,-1.28 0.86,-0.43 -0.01,-0.99 0.72,-0.31 -0.93,-0.45 0.63,-0.64 -1.15,-0.92 -0.26,-1.09 -0.6,0.78 -1.41,-0.64 -0.57,-0.8 -0.32,0.37 -0.22,-1.13 -0.86,0.02 -0.31,-2.22 -0.78,-0.34 0,0 -1.26,-1.03 -1.25,-0.03 -0.07,-0.4 0.81,-0.58 -0.92,-0.46 -0.47,-0.93 1.1,-0.26 8.2,0.64 1.1,-0.43 5.93,-2.59 3.7,-4.4 1.08,-0.47 7.13,-0.65 2.56,-0.97 3.68,-1.84 3.21,-3.44 5.65,-1.41 4.94,-4.22 1.31,-0.52 3.95,-0.03 1.07,-0.31 3.54,-3.04 1.43,-0.62 6.67,-1.06 1.22,-0.92 3.47,-3.72 1.58,-2.31 0.6,-1.53 1.66,-12.45 5.83,-5.38 5.32,-4.22 1.16,-0.56 4.89,-0.27 1.07,-0.77 0.9,-1.09 0.26,-2.13 1.43,-3.47 1.25,-0.71 3.6,-0.45 1.36,-1.31 2.54,-1.65 3.67,-0.48 2.36,-1.35 1.95,-6.22 3.24,-5.19 1.06,-1.01 3.76,-1.78 0.97,-2.21 4.58,-2.42 2.12,0.09 1.48,-0.36 2.71,-1.56 3.51,0.43 1.09,-0.81 1.37,-0.26 4.82,1.22 9.44,-1.66 2.21,-3.45 1.13,-0.85 4.78,-1.77 2.6,0.64 1.07,-0.23 2.24,-3.66 2.73,-1.29 1.2,-0.94 0,0 0.38,0.86 -0.89,1.24 -0.06,1.34 z" 
                fill="rgb(151, 144, 238)" 
                stroke="white" 
                stroke-width=".7px"
                title="Lunda Sul" 
                id="AO-LSU" 
            />
        </svg>