<svg xmlns="http://www.w3.org/2000/svg" viewBox="169.7502200000006 145.39373999999998 184.30999999999946 219.38" width="184.30999999999946" height="219.38">
            <path 
                d="m 204.07022,189.42374 5.43,0.79 1.25,-0.85 0.91,-1.24 1.24,-0.58 2.33,0.13 1.08,-0.59 1.95,-2.14 0.67,-2.26 0.16,-2.82 1.42,-2.11 0.09,-1.15 -0.82,-4.88 -3.23,-9.45 0.02,-2.52 2.86,-1.4 1.51,-0.19 2.18,0.32 1.2,-0.46 1.03,-1.17 1.14,-0.18 1.24,-0.71 2.36,-3.34 1.11,-2.29 2.1,-1.54 9.2,-3.4 2.16,0.42 1.11,0.84 1.39,3.65 1.04,0.95 3.94,5.67 2.17,1.85 3.29,0.65 2.2,-0.61 1.24,-1.06 0.69,-2.17 0.06,-3.6 0.81,-1.06 2.32,-1.9 1.21,-0.52 1.53,-0.16 0.95,0.59 0,0 -0.3,1.29 0.26,0.39 0.95,-0.03 0.6,-0.95 0.78,0.97 0.89,0.07 0.47,0.55 -0.17,0.54 -1.24,0.27 -0.28,0.78 0.61,0.68 1.64,0.78 0.27,0.63 -0.36,1.02 1.11,2.23 1.45,1.25 2.27,0.98 0.51,0.68 -0.32,2.12 -0.44,0.48 0.76,0.68 0.55,-0.12 0.12,0.76 0.55,0.03 -0.47,2.06 1.11,0.97 2.19,0.7 -0.09,1.41 1.2,0.09 -0.4,0.94 0.85,-0.22 0.56,0.26 -0.33,1.34 1.02,0.15 0.47,0.53 -0.62,2.18 0.77,0.82 0.67,0.04 -0.16,0.73 0.79,-0.45 0.27,0.17 0.11,2.2 -0.41,0.08 1.17,0.65 1.23,1.52 -0.07,0.24 -0.68,-0.11 -0.62,1.1 0.04,0.7 1.12,0.47 0.36,0.77 0,0 -0.53,1.45 0.12,0.54 0.55,0.11 0.87,1.17 0.06,0.57 -0.77,0.63 0.3,0.99 -0.16,1.15 0.71,4.67 0.74,0.82 -1.71,2.19 -0.7,3.42 1.22,3.91 2.27,1.46 -0.31,2.24 0.62,2.3 -0.58,2.13 0.45,3.25 -0.13,2.11 -1.47,7.81 0.5,1.21 0.23,2.31 0.95,2.41 -0.29,1.09 -1.69,2.36 0.07,2.31 -1.02,1.35 -2.23,0.34 -5.88,2.22 -2.3,1.93 0.24,2.35 1.04,1.08 0.37,2.33 1.08,1.05 1.15,2.27 0.39,2.27 -0.44,1.18 0.7,1.11 2.37,0.48 0.71,2.21 1.08,0.8 4.44,1.14 0.4,1.16 1.02,1.12 -0.18,2.25 0.81,1.08 3.68,-0.56 4.74,2.23 1.64,5.27 0.93,1.1 1.45,0.36 0.3,1.7 2.06,3.06 0.03,0.97 -0.8,1.1 0.2,0.47 -0.34,1.12 0.32,0.86 1.22,0.63 1.11,2.93 1.04,0.55 0.89,1.52 0.75,0.64 2.24,0.8 0.03,1.45 -5.06,4.66 0.16,0.8 2,2.1 -0.01,1.06 1.16,0.47 2.2,0.09 1.05,0.5 3.34,2.4 1.15,1.38 1.18,0.22 4.5,2.88 1.07,0.15 6,-0.48 1.18,-2.39 -0.65,-1.24 -1.08,-0.64 -0.37,-1.2 1.34,-2.24 2.26,-0.79 1.33,-0.95 0,0 0.78,0.34 0.31,2.22 0.86,-0.02 0.22,1.13 0.32,-0.37 0.57,0.8 1.41,0.64 0.6,-0.78 0.26,1.09 1.15,0.92 -0.63,0.64 0.93,0.45 -0.72,0.31 0.01,0.99 -0.86,0.43 0.63,1.28 -1.5,-0.29 -0.71,0.68 0.41,0.85 0.16,3.02 1.9,4.28 1.43,1.29 1.41,0.71 1.73,1.72 0.75,2.59 0,0 0.38,1.05 -0.74,1.33 -0.32,2.33 0.39,2.37 1.42,2.01 -1,3.85 0.52,0.86 1.37,0.71 1.29,1.45 -0.02,1.25 0.67,1.72 -0.53,1.06 -1.15,0.22 -1.09,-0.53 -2.22,-0.16 -6.28,1.9 -4.14,1.93 -4.04,4.18 -1.08,0.85 -1.08,0.29 -2.49,-0.32 -1.2,0.25 -2.5,-1.1 -6.32,1.59 -3.49,-0.68 -1.81,0.94 -0.86,-0.54 -0.4,-0.96 -0.88,-0.5 -2.17,0.52 -2.27,-0.42 -0.5,-0.87 0.11,-2.43 -1.07,-2.36 -2.72,-2.35 0.8,3.39 0.28,3.96 -0.33,1.47 -4.7,4.01 -0.13,1.06 -1.09,1.15 -1.11,0.02 -1.15,0.59 -0.33,1.17 -0.99,1.04 -2.18,0.25 -0.71,0.64 -0.96,-0.4 -1.08,-1.18 -2.38,-0.39 -0.27,-0.42 1.12,-2.32 -0.72,-2.01 -1.13,-1.64 -0.08,-1.17 0.73,-1.36 1.68,-1.11 -0.4,-0.93 -1.3,0.74 -0.34,-0.36 0.16,-1.48 1.03,-1.04 0.49,-2.26 -2.53,-3.66 -0.61,-2.1 -0.03,-1.69 -0.38,-0.32 -1.66,0.08 -1.41,-0.68 -0.19,-0.48 1.01,-0.36 0.43,-0.96 1.66,-0.38 0.47,-2.91 -0.49,-1.59 -1.02,-1.06 -0.52,-1.51 -1.53,-1.26 -0.11,-2.99 -0.5,-0.9 -2.77,-2.08 -1.31,-1.43 -3.08,0.18 -2.91,-0.98 -0.34,-1.65 -2.24,0.01 -0.69,1.36 -0.98,-0.36 -2.31,-1.79 -3.01,-1.16 -4.13,-0.73 -3.28,0.68 -2.25,-0.32 -2.92,-3.24 -2.64,-0.89 -0.41,-1.48 -1.48,-0.26 -0.45,-1.59 0.18,-0.52 0.87,-0.49 -0.19,-0.52 -1.36,-0.85 0,0 -1.31,-1.98 -1.22,-0.89 -2.14,-2.64 -1.07,-1.7 -2.03,-0.6 -0.28,-0.99 0.23,-2.47 -0.85,-0.54 -0.36,-1.03 -1.28,-1.43 -1.82,-0.2 -0.78,-0.57 -0.63,-3.79 0.35,-0.98 2,-1.5 0.3,-0.76 -1.29,-2.65 -0.31,-3.09 -2.11,-2.71 0.41,-3.04 -0.87,-1.17 -2.14,-0.92 -1.04,-0.84 -0.74,-2.34 -1.81,-2.2 -5.25,-0.55 -3.42,-0.77 -4.9,0.68 -3.44,-1.01 -1.23,0.14 -2.28,3.16 -3.61,0.22 -3.35,-0.62 -2.31,0.46 -1.16,-0.28 -2.26,0.53 -2.16,-0.25 -2.2,0.42 -2.5,0.99 -1.72,0.1 -2.03,-0.04 -0.91,-0.47 -1.14,0.23 -2.09,-0.29 -1.48,-1.22 -0.97,-0.03 -1,-1.05 -0.98,-0.4 -0.75,-0.96 0,0 2.61,-2.28 0.3,-1.05 -0.6,-3.53 -0.69,-1.12 -1.15,-0.84 -0.11,-1.06 3.44,-3.03 -0.56,-2.4 -2.89,-2.09 1.56,-0.61 1.74,0.32 2.79,-0.51 0.25,-3.11 0.48,-1.58 1.38,-1.34 1.51,-0.54 2.41,0.03 0.93,-0.41 1.41,-1.37 1.72,-0.1 1.98,-1.42 0.62,0.02 1.21,0.88 0.93,0.03 0.93,-0.36 2.46,0.09 1.68,-1.11 0.41,-2.96 -0.57,-3.49 0.81,-2.2 0.58,-4.69 1.81,-5.68 1.46,-2.25 -1.07,-2.45 -2.46,-0.16 -1.08,-0.73 -1.37,-2.87 3.26,-4.62 -0.26,-2.22 6.39,-1.58 1.32,-1.54 -0.68,-0.96 0.32,-1.4 -0.61,-0.76 0.26,-2.04 -0.65,-1.33 z" 
                fill="rgb(151, 144, 238)" 
                stroke="white" 
                stroke-width=".7px"
                title="Malange" 
                id="AO-MAL" 
            />
        </svg>