<svg xmlns="http://www.w3.org/2000/svg" viewBox="309.1502199999997 307.3737400000003 302.9700000000004 281.46999999999997" width="302.9700000000004" height="281.46999999999997">
            <path 
                d="m 370.92022,350.77374 2.82,-0.88 0.84,-1.23 0.87,-0.5 1.31,-0.06 3.28,0.81 1.11,-0.27 1.53,-1.19 1.63,-0.42 1.92,-1.57 2.13,-2 0.82,-1.95 1.53,-0.84 1.73,0.09 1.98,1.47 2.89,1.23 3.32,-0.79 0.81,-1.26 1.71,-0.85 0.68,0.7 1.04,0.01 0.98,1.76 1.17,0.11 0.97,-0.4 1.06,-1.71 1.62,0.34 1.45,-0.55 1.96,1.36 1.63,-0.01 3.15,-3.72 1.06,-0.26 0.66,0.72 1.51,0.61 0.58,0.79 0.48,0.21 1.04,-0.27 1.41,0.63 0.92,1.15 1.22,0.11 0.89,0.49 1.28,-0.78 1.11,-0.1 2.61,1.47 1.74,1.7 1.49,0.56 1.04,-0.33 0.55,0.17 0.82,1.25 1.41,0.66 1.18,-0.12 2.43,1.66 0.88,-0.37 1.18,0.15 1.01,1.72 1.49,-0.4 1.31,0.76 1.93,0.46 1.84,-0.15 0.82,0.53 0.94,-0.38 5.22,0.89 0.97,-0.4 0.35,-0.89 -0.52,-0.86 -0.16,-1.21 1.08,-0.14 2.08,-1.39 0.96,0.35 1.91,-0.71 1.29,-2.17 1,-0.29 0.98,-1 0.03,-0.93 0.56,-0.63 2.9,-0.44 3.17,-1.68 2.21,-0.31 0,-0.39 0.97,-0.61 1,0.18 0.93,-0.45 0.98,0.11 0.94,-1.74 1.41,0.24 0.18,-0.51 0.57,0.72 2.18,0.32 0.7,-0.61 2.03,-0.44 0.21,-0.49 2.74,-0.71 0.15,-1.98 -0.38,-0.93 0.31,-1 -1.07,-0.07 -1.37,-2.72 0.07,-0.62 0.63,-0.75 0.33,-4.25 1.88,-2.2 1.7,-1.09 -0.1,-3.09 0.56,-2.87 1.33,-2.81 1.32,-1.4 2.97,-0.24 1.45,0.63 7.14,-0.19 2.18,-1.95 1,0.32 1.83,-0.17 2.59,0.72 1.7,1.07 2.28,0.03 2.02,-0.85 0,0 -0.12,3.37 0.5,0.69 0.49,2.53 -0.32,1.58 -1.29,0.98 -1.72,0.17 -1.73,0.85 -2.51,1.97 -0.32,1.13 0.38,1.63 1.19,1.88 0.04,2.64 0.65,1.87 0.04,3.44 2.11,3.07 0.31,1.46 -0.54,1.59 0.95,1.13 1.06,-0.28 1.71,-1.84 0.83,-1.53 4.23,-0.08 2.85,-2.72 0.15,-1.12 -0.44,-1.47 0.42,-0.85 0.62,-0.46 2.57,-0.59 1.14,0.27 3.36,2.33 3.44,1.37 3.46,0.07 0.85,-1.41 1.11,-0.11 1.68,-0.95 1.8,0.97 2.7,0.84 2.74,0.1 3.44,1.19 3.36,-1.54 2.52,0.45 4.23,-3.55 7.22,-4.64 3.46,0.41 1.71,0.66 2.22,1.68 2.15,-0.13 2.13,0.88 1.76,-0.02 1.85,-0.78 3.45,1.78 1.81,-0.01 1,-0.51 0.85,-1.46 2.71,-1.66 0.78,-0.82 0.95,-2.08 0.79,-0.26 -0.45,1.09 1.43,1.27 0.23,0.44 -0.25,0.64 0.51,0.44 -0.69,4 0.35,2.3 -0.64,1.29 1.28,0.84 0.17,0.57 0.1,6.28 1.14,1.91 1.08,4.2 -0.55,1.03 -1.21,0.46 -0.76,0.86 -0.22,1.24 0.49,2.72 -1.63,3 -0.62,2.64 -0.97,0.94 1.19,2.77 0.14,1.85 1.31,3.73 -0.22,0.6 -0.87,0.64 -0.62,2.75 -0.34,10.48 0.13,2.14 1.4,3.08 2.69,2.49 -0.22,0.53 0.44,1.39 -0.98,1.2 1.03,0.79 0.19,1.16 -0.26,2.45 -2.29,1.72 -0.69,1.56 -0.82,0.45 -0.22,0.86 -0.98,0.39 -0.2,0.9 -0.57,0.67 0.22,3.19 -1.47,2.59 0.14,2.16 -0.99,2.48 -0.47,4.03 0.07,0.59 1.02,0.8 0.26,0.69 2.28,1.17 2.37,2.43 0.74,2.21 -100.59,0.71 -0.01,160.43 0,0 -1.69,-1.61 -6.67,-3.76 -0.28,-1.77 -0.69,-0.71 0.11,-1.19 -1.58,-1.26 -0.74,-1.37 -0.19,-1.6 -0.71,-0.67 -1.22,0 -0.36,-0.35 0,-1.16 -0.45,-0.98 0.33,-0.91 -1.82,-1.01 -1.3,-0.04 -2.14,-2.07 -1.32,-3.56 -1.57,-1.23 0.29,-2.16 -1.61,-1.23 -0.87,-1.9 -0.41,-0.31 -1.17,-0.01 -0.7,-0.73 -0.23,-1.12 0.29,-3.16 -0.83,-1.97 -0.94,-0.42 -0.56,-0.8 -2.39,-0.33 -1.5,-1.32 -1.11,-0.3 -1.69,-1.85 -1.47,-4.75 -1.72,-1.05 -2.38,0.16 -0.65,-0.88 0.39,-1.6 -0.45,-0.1 -0.88,0.55 -1.01,-0.4 -1.26,-2.22 -1.24,-0.92 -2.17,-2.69 -2.54,-0.68 -1.22,-0.84 -0.52,-0.92 -0.92,0.42 -1.21,0.02 -1.81,-1.68 -1.16,-0.01 -0.45,0.94 -0.54,0.17 -4.72,-0.97 -0.93,-1.16 -0.97,-0.36 -1.9,0.9 -1.65,-0.37 -2.35,1.13 -2.76,-0.65 -2.92,1.2 -4.5,-1.06 -3.78,0.36 -2.79,-1.48 -2.23,-0.51 -4.07,-2.24 -1.48,-2 -1.99,-1.45 -1.4,-2.41 -1.15,-0.29 -0.48,-0.83 -1.03,0.34 -0.52,-0.19 -0.03,-1.25 -1.1,0.06 -0.66,-1.49 -3.3,-2.27 -0.34,-0.91 -1.18,-0.94 -0.43,-0.92 -1.47,-0.67 -0.44,-1.57 -2.21,-1.25 -1.57,-3.97 -1.52,-1.27 -0.56,-2.92 -2.66,-2.18 -0.95,-2.51 -0.73,-0.82 -5.71,1.18 -2.18,-0.71 -1.6,0.26 -1.2,-0.26 -2.17,-1.83 -1.15,-0.43 -1.08,0.36 -2.64,1.43 0.08,2.15 1.67,5.93 -6.97,-3.76 -1.16,0.08 -4.91,1.88 -0.5,0.06 -1.4,-0.98 -0.57,0.01 0.09,-0.62 -1.08,-1.09 -0.02,-0.86 -1.13,-1.07 -0.08,-1.59 -0.95,-0.54 -1.15,-2.38 -0.22,-1.67 0.47,-0.99 -1.45,-3.88 0.52,-1.55 -0.2,-0.49 -2.47,-3.54 -0.35,-1.7 -0.86,-1.23 -2.21,-1.34 -0.36,-1.36 -0.83,-0.64 -0.77,0.27 -0.69,-0.84 -2.04,-1.32 -0.82,-1.09 -1.11,-0.42 -2.31,0.87 -1.13,-0.41 -4.72,-3.46 -2.26,-1.15 -3.31,0.75 -1.15,-0.06 -13.63,-7.87 0,0 -0.09,-1.08 -0.6,-1.12 1.71,-2.77 -0.38,-1.4 -1.54,-2.28 3.29,-2.88 3.89,-1.38 0.32,-1.08 -0.27,-2.35 -2.57,-4.57 1.82,-2.29 -0.64,-1.36 3.5,-1.57 0.45,-2.21 1.1,-1.08 1.23,-0.36 0.44,-1.13 -0.17,-1.08 -1.88,-3.49 -0.02,-1.31 1.21,-1.06 0.67,1.12 3.77,-3.63 2.27,-1.22 0.4,-1.06 -0.51,-2.35 3.92,-4.26 1.63,-2.26 0.33,-1.17 -0.41,-2.38 0.98,-1.05 5.08,-4.72 2.7,-0.4 1.22,-0.99 0.86,-1.55 1.24,-0.91 2.64,-0.51 0.87,-1.06 0.33,-1.31 -1.05,-0.95 0.04,-1.16 6.43,-5.77 0.95,-1.26 0.13,-1.85 -1.45,-2.44 -0.19,-1.32 0.46,-1.2 0.96,-1.29 1.08,-0.57 0.77,-3.3 0.8,-1.15 1.25,0.56 1.17,-0.09 0.72,-1.12 -0.2,-1.07 -1.06,-0.95 -0.2,-1.07 1.09,-0.57 3.42,-0.15 1.09,-1.09 0.42,-1.09 0.35,-4.38 0.49,-1.06 2.24,-2.16 0.99,-1.5 z" 
                fill="rgb(151, 144, 238)" 
                stroke="white" 
                stroke-width=".7px"
                title="Moxico" 
                id="AO-MOX" 
            />
        </svg>