<svg xmlns="http://www.w3.org/2000/svg" viewBox="0.25021751000000014 453.96374 99.36000048999995 190.87999999999994" width="99.36000048999995" height="190.87999999999994">
            <path 
                d="m 1.7902175,605.91374 0.78,0.16 0.14,0.5 -0.04,1.83 0.27,0.47 -0.42,0.92 0.6,1.26 -0.04,2.91 0.49,0.78 0.08,1.61 -1.33,-1.29 -2.06999999,-5.68 0.01,-2.03 0.71,-0.98 0.81999999,-0.46 z m 41.6300005,-151.15 3.43,0.03 2.25,0.87 3.51,0.33 2.26,1.1 2.54,0.05 2.09,1.87 1.07,0.45 4.28,-1.98 3.65,-1.02 0.85,-2.3 1.22,-0.2 2.23,1.08 3.75,0.3 3.35,0.99 1.1,0.62 0.31,1.19 -1.12,2.35 -0.22,1.18 0.34,1.08 2.79,3.54 1.52,3.59 1.19,0.76 2.21,-1.27 1.25,0.25 2.16,1.32 1.07,0.24 1.41,-0.31 0,0 0.89,2.73 2.15,1.46 0.35,1.19 -0.32,1.14 -2.18,3.57 -0.44,1.58 1.19,2.36 0.68,2.41 -0.81,2.55 0.48,1.22 1.16,0.8 1.11,-0.59 1.16,0.52 -0.4,2.48 0.49,2.21 0.19,4.21 -2.74,3.74 -0.27,4.79 -2.47,5.79 -2.93,2.02 -3.7,1.63 -3.59,2.8 -0.95,1.27 -2.37,0.36 -2,2.17 0,1.4 1.24,3.59 -2.04,2.41 -0.36,1.24 2.92,3.44 -0.38,1.2 -3.68,2.11 0.09,1.19 1.12,1.02 2.38,-0.65 1.42,0.28 0.19,1.65 -0.36,1.34 1.04,1.26 1.16,-0.1 1.22,-0.83 0.52,-1.07 1.37,0.33 0.76,2.33 -0.65,2.46 0.74,1.14 2.35,1.85 3.75,1.41 -0.31,12.17 0.24,1.12 2.38,3.65 -3.86,6.89 -1.84,4.66 0.49,2.3 1.99,3.66 -0.07,1.09 -1.1,1.05 -0.43,1.11 -1.29,0.7 0,0 -4,4.57 -0.94,0.07 -1.45,1.35 -0.55,-0.71 -0.78,1.55 -1.56,0.09 -1.11,1.72 -1.48,0.2 -0.79,0.61 -1.13,1.75 2.01,1.92 0.71,1.15 0.23,1.15 -1.77,2.54 -1.24,0.84 -1.12,0.14 -1.14,1.11 -1,2.29 0.38,1.24 1.01,1.27 7.14,7.12 1.34,2.51 0.2,2.61 0.47,0.09 0,0 -3,0.57 -0.9,0.52 -2.09,-0.73 -1.08,0.09 -0.54,-1.02 -0.51,0.29 -2.04,-0.48 -2.32,0.92 -1.42,-0.22 -4.11,0.52 -1.85,1.74 -1.36,0.15 -1.05,1.11 -1.04,0.18 -0.23,0.97 -1.4,0.92 -0.99,0.19 -0.83,1.47 -1.39,0.31 -3.33,2.43 -0.59,-0.11 -2.17,0.95 -1.97,1.24 -0.53,1.1 -1.15,-0.02 -0.7,0.62 -0.85,-0.12 -0.95,0.45 -1.55,-0.01 -0.48,-0.35 -1.83,1.16 -0.56,-0.23 -0.23,-2.21 -0.44,-0.37 -1,-0.13 -0.35,0.69 -0.58,-0.03 -0.51,0.55 -1.13,-0.57 -3.07,1 -0.97,-0.36 -1.06,0.26 -3.05,-2.02 -1.01,-1.98 -1.39,0.26 -1.47,-0.24 -1.3,-0.76 -0.86,0.59 -0.94,-0.18 -2.19,0.97 -2.69,0.56 -2.07,1.2 -1.18,1.32 -1.1500005,0.47 -1.14,-0.24 -0.81,1.38 -0.45,0.18 -1.07,0.03 -1.87,-0.93 0.01,-11.24 0.53,-4.64 0.95,-3.17 -0.55,-5.1 0.82,-0.63 -0.22,0.46 0.43,0.04 -0.36,0.36 -0.31,2.03 0.57,-0.06 0.73,-0.84 0.34,-1.21 0.55,-3.74 -0.36,-1.38 0.15,-0.18 0.23,-0.09 0.01,-1.89 -0.44,-0.7 0.43,-0.41 -0.41,-1.16 0.25,-0.07 0.33,-7.06 -1.81,-16.5 -0.01,-2.04 0.78,-3.58 -1.2,-2.55 -2.2,-3.21 -0.22,-1.65 0.93,-2.76 1.34,-1.95 0.4,-0.11 -0.01,0.42 0.53,0.23 1.69,-0.68 1.22,0.03 -0.12,0.31 -1.11,-0.23 -1,0.47 0.06,0.33 0.71,0.24 1.19,-0.11 1.6200005,-0.85 0.66,-1.57 0.69,-0.41 0.82,-3.51 1.97,-0.89 1.41,-1.41 0.45,-1.96 0.75,-1.24 0.55,-4.15 -0.04,-4.62 0.64,-2.23 0.51,-0.52 0.08,-5.49 1.82,-1.62 0.7,-0.01 0.97,-0.77 0.75,0.55 0.62,-0.69 0.15,-1.13 -0.66,-1.62 -0.33,-0.18 -0.41,0.55 -0.81,-0.03 0.29,-1.3 0.45,-1.34 0.53,-0.41 0.52,-1.79 1.04,-0.97 -0.27,-1.85 0.37,-1.27 1.07,-0.55 0.56,-2.46 0.53,-0.2 -0.16,-2.42 0.49,-0.66 1.31,-0.35 0.81,-2.28 1.11,-1.46 -0.12,-1.44 -0.68,-1.39 1.22,-1.53 -0.21,-1.97 0.44,-0.69 0.34,-2.17 0.56,-3.23 0.84,-1.74 0.06,-1.38 0.47,-0.11 0.62,-4.03 -0.33,-1.4 0.84,-1.28 -0.26,-0.91 0.27,-0.39 -0.75,-0.93 0.04,-1.25 -1,-1.42 -0.15,-1.18 0.04,-0.48 0.56,0.28 0.88,-0.41 0.47,-1.28 -0.89,-2.71 0.4,-2.15 0.79,-0.35 0.74,-0.98 0.44,-2.75 -0.26,-0.14 0.08,-0.93 0.48,-0.36 0.18,0.32 0.74,-0.76 -0.41,-2.19 0.19,-1.02 3.57,-0.53 -0.36,0.65 1.21,0.1 0.86,-1.77 -0.47,-0.2 0.1,-1.68 0.26,-1.25 -0.23,-0.99 0.51,-0.94 -0.29,-0.21 0.42,-2.48 -0.21,-0.94 0.44,-1.97 -0.57,-0.34 0.06,-0.88 0.23,-0.66 0.85,-0.52 -0.01,-0.9 0.19,-0.73 -0.56,-0.2 -0.19,-0.53 0.34,-0.7 z" 
                fill="rgb(151, 144, 238)" 
                stroke="white" 
                stroke-width=".7px"
                title="Namibe" 
                id="AO-NAM" 
            />
        </svg>