<svg xmlns="http://www.w3.org/2000/svg" viewBox="105.39022000000004 73.77373999999979 163.31999999999994 125.64000000000011" width="163.31999999999994" height="125.64000000000011">
            <path 
                d="m 232.66022,73.84374 0.95,0.98 1.91,0.38 3.37,-0.87 4.34,1.98 0.05,1.16 -0.57,1.21 0.12,0.57 0.72,0.32 -0.39,0.84 0.47,1.91 -0.43,0.89 0.17,0.33 1.26,-0.21 0.24,0.33 -0.38,0.36 -0.85,0.01 -0.06,0.51 1.83,0.55 0.26,0.49 -0.18,1.01 0.69,-0.15 0.55,0.67 0.94,0.08 1.57,1.3 -0.02,0.69 0.48,0.69 -1.01,2.05 0.4,1.18 -0.45,1.54 0.77,2.63 -0.45,0.85 -1.28,-0.29 -0.08,0.43 0.74,0.62 -0.62,1.42 1.35,0.21 0.7,0.77 -1.04,1.02 1.15,1.37 -0.36,1.32 1.76,1.36 -0.68,1.85 0.11,0.65 1.24,0.73 0.85,4.37 0.36,0.82 1.47,0.8 0.29,2.76 1.72,1.67 0.23,2.05 0.94,0.56 0.99,-0.26 1.23,1.08 -0.17,1.99 0.5,0.76 -0.41,1.76 0.56,0.72 1.12,0.26 0.49,1.84 -0.94,2.72 -0.73,-0.16 -0.27,-0.68 -0.72,0.35 -0.04,0.78 1.12,2.07 0.14,1.3 0.83,0.87 -0.77,0.91 -0.05,0.73 1.72,1.35 0.75,1.61 0.08,1.81 1.23,-0.11 0.73,1.15 0.96,0.31 0.58,0.76 1.63,0.17 0.34,0.56 -0.1,1.67 0,0 -0.95,-0.59 -1.53,0.16 -1.21,0.52 -2.32,1.9 -0.81,1.06 -0.06,3.6 -0.69,2.17 -1.24,1.06 -2.2,0.61 -3.29,-0.65 -2.17,-1.85 -3.94,-5.67 -1.04,-0.95 -1.39,-3.65 -1.11,-0.84 -2.16,-0.42 -9.2,3.4 -2.1,1.54 -1.11,2.29 -2.36,3.34 -1.24,0.71 -1.14,0.18 -1.03,1.17 -1.2,0.46 -2.18,-0.32 -1.51,0.19 -2.86,1.4 -0.02,2.52 3.23,9.45 0.82,4.88 -0.09,1.15 -1.42,2.11 -0.16,2.82 -0.67,2.26 -1.95,2.14 -1.08,0.59 -2.33,-0.13 -1.24,0.58 -0.91,1.24 -1.25,0.85 -5.43,-0.79 0,0 -0.24,-4.78 -0.67,-0.7 -0.52,0.1 -0.25,0.46 -0.55,-0.15 -0.64,-1.81 -0.01,-0.53 1.43,-0.26 -0.01,-0.44 -1.77,-0.96 -1,-1.09 -4.53,0.07 -1.75,1.65 -2.9,0.91 -1.73,-0.11 -1.75,-0.74 -0.41,-1.65 0.14,-1.64 -0.82,-1.24 -1.45,-0.78 -5.98,0.15 -4.5,1.07 0.39,2.6 -1.04,1.68 -0.16,1.25 0.32,0.34 0.97,-0.34 1.07,1.04 -0.05,0.58 -1.07,1.64 -0.05,3.09 -0.41,0.2 -0.44,1.29 -0.93,0.14 -0.34,1.04 -1.3,0.11 -0.66,2.09 -2.72,-0.32 -2.57,1.23 -2.49,-1.63 -2.52,-0.24 -1.76,1.66 -0.52,1.89 -1.94,2.16 -2.39,0.96 -1.76,-0.15 -1.93,-0.85 -1.83,0.31 -0.64,-1.95 0,0 -0.89,-2.77 0.06,-2.54 0.64,-2.3 3.04,-4.58 0.32,-1.11 -0.18,-3.3 0.62,-4.74 -0.25,-1.28 -1.14,-0.95 -2.4,-0.3 -7.31,1.54 -3.47,-0.34 -2.4,-1.43 -2.33,-0.65 -1.1,-0.78 -3.82,-4.8 -1.1,-0.78 -0.82,-1.14 -1.07,-0.38 -1.07,-0.94 0.03,-1.09 -0.96,-1.13 -1.08,-0.35 -2.14,0.2 -4.56,-0.39 -1.13,0.39 -2.17,-0.28 -2.22,0.2 -2.06,-0.54 0,0 1.05,-3.1 1.44,-0.59 2.15,-0.13 1.55,-1.86 0.49,0.08 0.45,-0.87 -0.64,-1.1 -2.1,-1.36 -0.55,-1.1 0,-1.08 -1.96,-1.97 -0.07,-1.22 0.82,-2.22 2.96,-3.36 0.17,-1.19 -2.15,-1.42 -1.97,-2.05 -1.14,-4.65 -1.54,-2.45 0.6,-0.52 1.78,-0.25 2.27,0.07 0.44,0.29 1.64,-0.26 4.39,-3.77 5.9,-1.55 2.46,-1.59 2.09,-0.55 0.98,-2.47 0.89,-1.13 0.16,-1.07 2.88,-1.88 1.05,-0.28 3.54,0.38 3.31,-1.47 2.04,-2.59 3.44,0.14 3.42,-0.66 4.82,-1.96 5.56,-8.8 1.96,-1.51 2.64,-3.65 -3.79,-2.56 -0.86,-1.08 -0.04,-3.88 -0.62,-2.28 -1.22,-2.26 -4.03,-5.42 -0.45,-1.54 0,0 17.58,-0.48 20.07,0.26 7.11,-0.33 9.21,0.52 19.33,-0.67 z" 
                fill="rgb(151, 144, 238)" 
                stroke="white" 
                stroke-width=".7px"
                title="Uíge" 
                id="AO-UIG" 
            />
        </svg>