<svg xmlns="http://www.w3.org/2000/svg" viewBox="29.930218000000004 72.52374 133.72000200000002 96.69000000000005" width="133.72000200000002" height="96.69000000000005">
            <path 
                d="m 32.820218,84.12374 -0.53,1.46 -1.2,0.1 0.62,0.19 0.45,0.04 -0.31,1.35 -0.25,0.37 -0.7,-0.23 -0.7,0.49 -0.27,-0.79 0.14,-1.4 2.75,-1.58 z m 81.570002,-11.6 2.56,2.1 2.01,-0.89 4.19,0.13 0.65,-0.35 2.68,1.36 3.14,-0.34 3.49,0.68 4.57,0.25 2.49,-0.53 4.24,0.98 5.12,-1.44 3.11,0.01 0,0 0.45,1.55 4.03,5.42 1.22,2.26 0.63,2.29 0.04,3.87 0.85,1.08 3.79,2.56 -2.64,3.66 -1.96,1.51 -5.56,8.8 -4.82,1.96 -3.42,0.66 -3.44,-0.14 -2.05,2.59 -3.31,1.47 -3.53,-0.38 -1.05,0.29 -2.88,1.88 -0.16,1.07 -0.89,1.14 -0.98,2.47 -2.09,0.55 -2.46,1.59 -5.9,1.55 -4.39,3.77 -1.64,0.26 -0.44,-0.29 -2.27,-0.07 -1.78,0.25 -0.6,0.52 1.54,2.45 1.14,4.64 1.97,2.06 2.15,1.41 -0.17,1.19 -2.96,3.36 -0.81,2.22 0.07,1.22 1.96,1.96 0,1.08 0.55,1.1 2.1,1.36 0.64,1.1 -0.45,0.88 -0.49,-0.08 -1.55,1.85 -2.14,0.14 -1.44,0.59 -1.05,3.1 0,0 -4.71,2.73 -1.16,0.11 -0.940002,-0.41 -1.5,0.37 -1.47,1.27 -0.95,-0.1 -0.83,0.55 -2.65,0.36 -1.16,0.88 -2.32,0 -2.26,-1.87 -1.01,-0.34 -4.26,1.18 -1.07,1.62 -1.89,-0.73 -1.75,1.66 -1.92,0.8 -4.47,0.88 0,0 -1.04,-1.52 -0.36,-2.12 -0.05,-0.42 -1.56,-3.03 -0.34,-1.67 -1.09,-1.24 0.49,-1.18 -1.03,-1.03 -1.77,-4.67 -0.77,-1.32 -1.08,-4.86 -2.97,-3.22 -0.15,-1.17 0.33,-1.14 -0.31,-0.85 -0.37,-2.65 0.36,-2.03 -1.1,-4.08 0.08,-1.71 -1.18,-1.84 -0.08,-0.38 -2.25,-2.59 -0.59,-1.48 -9.08,-9.97 -0.34,-1.52 -2.68,-4.05 -5.22,-11.17 -5.4,-7.88 0.59,0.03 0.55,-0.46 0.57,-0.98 0.97,0.26 0.22,-0.14 -1.09,-0.41 0.11,-0.53 1.31,0.17 1.15,-0.53 1.49,0.33 0.04,-0.05 -0.31,-0.34 1.6,-0.31 1.07,0.37 0.48,0.27 -0.49,-1.76 4.39,-1.23 3.88,-1.85 3.88,-0.39 2.67,-1.59 3.58,-0.26 3.35,-1.25 6.59,-3.61 2.54,-0.03 1.14,1.06 0.99,0.33 3.03,-1.28 3.14,-0.48 5.49,1.75 1.12,-1.22 0.69,-0.27 5.48,-0.08 2.05,0.5 1.21,-0.24 12.640002,0.05 3.24,-0.97 2.79,0.13 1.66,-0.89 z" 
                fill="rgb(151, 144, 238)" 
                stroke="white" 
                stroke-width=".7px"
                title="Zaire" 
                id="AO-ZAI" 
            />
        </svg>