<svg xmlns="http://www.w3.org/2000/svg" viewBox="432.74799999999993 332.8215599999999 75.69900000000007 79.22454999999974" width="75.69900000000007" height="79.22454999999974">
            <path 
                d="m 478.114,333.47508 1.447,0.596 1.433,1.53127 0.629,4.46898 2.51,0.0463 12.802,4.4267 8.349,13.13914 3.163,5.82105 -0.921,2.69206 -7.755,11.31793 0.177,0.44599 -6.601,9.90947 0.232,0.9081 -0.413,1.04601 0.553,0.51949 0.157,0.90809 0.785,1.11649 0.235,1.52624 0.915,0.43995 -0.055,0.59902 0.557,1.08025 0,0 -10.93,-3.58103 -0.416,-1.66114 -2.488,-0.44398 -0.041,1.61785 -0.367,0.50539 -1.493,0.27686 -0.139,0.35438 1.06,1.80913 0.041,0.5054 -0.571,0.58895 -1.061,0 -0.517,0.13993 -0.136,0.28089 0.204,0.37854 0.98,0.71479 0.204,0.37854 -0.032,1.48496 -4.32,0.22451 -1.741,1.74672 -1.157,0.41075 -0.8,-0.3433 -0.289,-0.71379 1.745,-0.89701 0.13,-0.55976 -4.316,-0.26981 -0.596,-4.90893 -2.302,-0.894 -0.992,-0.69063 -0.836,-0.0151 -0.568,0.46713 -0.801,-0.46109 -0.855,0.0815 -1.898,0.66648 -0.514,-0.0554 0.109,-1.19904 -1.995,0.0876 -0.45,1.68329 0.004,0.75406 -0.507,1.20005 0.393,2.78065 -0.01,2.04774 0.996,1.59772 0.669,0.75003 -1.881,0.45405 -1.403,0.7017 -1.647,1.39738 -0.92,2.39708 0.607,3.91526 0,0 -7.85,0.3272 -1.806,-0.0685 -1.008,-4.02802 0.905,-1.6249 -0.12,-1.25543 -1.804,-3.81459 0.2,-1.97122 -2.242,0.16612 -0.749,-1.38731 -0.74,0.33223 -1.258,-0.94132 0.539,-2.534 -0.368,-1.33193 -0.96,-2.06385 0.091,-0.77318 0.95,-0.19733 -0.668,-0.65439 0.426,-2.26519 -2.379,-0.70372 -0.814,0.73795 -0.803,-0.88494 1.701,-2.21385 2.623,-0.0705 0.405,1.04299 0.511,-0.21544 -0.783,-2.48266 -1.207,-0.39062 -0.387,-1.46885 1.561,0.45707 0.34,-0.40774 -0.288,-0.63727 0.522,-2.22896 1.286,-1.26448 -1.753,-0.96044 -1.721,1.71248 -1.717,-1.27052 1.059,-1.16683 -0.745,-0.57687 -1.041,0.99266 -1.583,-1.05809 0.301,-0.81447 -0.344,-0.38559 1.739,-2.15848 4.149,0.9675 0.735,-1.32087 3.08,-0.15 1.174,-0.76111 2.68,-0.149 0.497,0.55976 0.569,-0.3131 0.781,0.19027 0.547,-0.89399 -1.206,-1.81619 -0.324,0.1188 -0.937,-1.44973 -0.352,-1.97625 1.519,-0.53056 0.624,-0.66245 0.739,-0.43089 -0.573,-0.67553 0.056,-0.23256 1.082,-0.31612 1.051,1.23629 0.27,0.75507 0.533,0.15202 0.353,-1.94102 -0.727,-0.88796 -0.117,-0.65942 -0.844,-0.65339 -0.488,0.42787 -0.649,-0.36645 -0.985,0.60606 -2.784,-1.90679 -0.646,0.31411 -1.944,-1.23328 0.945,-0.99366 -3.147,-2.4887 1.644,-1.92994 0.224,-0.95239 3.854,2.89341 0.712,-2.06183 0.091,-0.894 -0.25,-0.75607 -1.052,-1.2957 -0.35,-1.70745 -2.058,-1.03897 -0.535,-0.67754 -1.521,-0.0312 -0.174,-0.50439 -1.694,-0.41981 -0.343,-0.32821 -1.075,0.41277 -3.339,-1.87256 0,0 3.032,0.30807 19.21,-1.74672 4.915,0.0483 2.114,0.8638 3.328,-3.8458 9.633,-5.37707 z" 
                fill="rgb(151, 144, 238)" 
                stroke="white" 
                stroke-width=".7px"
                title="Al Jazīrah" 
                id="SD-GZ" 
            />
        </svg>