<svg xmlns="http://www.w3.org/2000/svg" viewBox="478.11399999999935 319.85576999999984 122.70500000000072 130.99174999999997" width="122.70500000000072" height="130.99174999999997">
            <path 
                d="m 503.767,321.36988 0.521,0.69466 2.806,2.1615 0.777,0.32216 1.321,0.18222 0.543,0.86782 1.437,1.4316 4.759,0.92823 0.738,-0.0805 1.554,0.38357 0.698,-0.16208 1.069,0.66647 3.049,1.35005 1.922,1.15072 0.059,1.87458 -0.447,3.70888 -0.447,0.54365 1.399,0.72587 3.904,2.63971 1.417,0.1802 6.157,3.50451 0.272,0.28189 0.446,2.17359 2.098,5.29149 0.816,0.88595 2.291,3.29711 4.33,-0.45404 11.09,-0.38156 4.995,-0.46713 2.449,-5.7687 0.162,-2.03969 1.484,-0.86178 0.725,-0.17517 1.105,-2.43333 0.157,-0.94634 -1.093,-2.51689 -0.968,-1.30475 0.042,-0.72788 0.534,-0.58694 0.447,1.05206 0.817,0.93124 1.06,0.84668 0.858,2.58132 0.489,0.71983 1.183,0.54969 1.103,1.73463 0.897,0.29599 0.409,0.7611 0.571,0.59197 0.326,0.80339 0.327,0.25371 0.163,0.93124 0.439,0.71279 2.704,2.6991 1.625,-0.11477 0.612,-0.9685 0.326,-1.02688 0.937,0.0201 3.194,-1.80007 9.457,-3.12497 0,0 1.118,8.41848 0.156,3.86996 0.406,2.62762 0.957,11.87064 0.222,0.90205 0,1.26146 0.656,5.54419 0.875,2.56421 0.4,0.22752 0.111,-0.14698 0.036,0.24262 -0.497,0.43693 -0.265,-0.0181 -0.104,2.21486 -3.171,9.56013 1.479,5.22304 -2.186,3.47733 -1.758,5.07303 -0.86,4.12064 -0.696,0.86481 -3.369,6.23684 -3.387,12.84819 -0.792,2.58333 -0.905,1.88967 -0.168,1.23932 0.328,0.73996 0.733,0.83863 0.082,0.93225 -0.205,4.01091 -0.282,1.55543 -0.522,1.42154 0.038,0.83057 -0.227,0.17115 -1.786,-0.13793 -0.094,-0.4631 -0.374,-0.47217 -0.967,-0.44901 -0.885,-0.12988 -0.712,0.18424 -1.037,-0.005 -0.271,0.40068 -9.354,1.99338 -0.437,-0.35136 -0.57,0.48626 -0.471,-0.0765 -0.618,-0.46713 -0.964,0.19128 0,0 -1.766,-0.94635 -2.12,-0.58492 -0.21,-0.37049 -0.714,-0.1641 -0.684,-0.80037 -2.278,0.72184 -0.913,-0.20638 -0.983,0.24263 -3.983,-0.63829 -1.464,-0.40068 -1.071,-1.30174 -1.602,-1.01178 -1.027,-0.24464 -0.346,-0.65339 -1.503,-0.28088 -1.034,-1.53429 -1.547,-1.47289 -0.799,-0.11175 -1.214,0.31411 -2.71,-2.23801 -0.835,0.42686 -1.01,-0.45606 -0.309,-0.9997 -1.084,-0.16712 -2.06,-1.53027 0.111,-0.57788 -0.383,-0.5366 -2.669,-1.58664 0.246,-1.00776 -0.844,-0.894 0.034,-0.86681 -0.307,-0.57687 -0.533,-0.0735 -0.535,-0.6715 -1.066,-0.26578 -0.569,0.23457 -0.344,-0.30605 -2.337,0.45404 -0.437,-0.11376 -1.093,-1.91988 0.207,-0.55976 -1.122,-0.0916 -0.573,-0.59499 -0.741,0.0242 -8.277,-9.50174 -3.112,-6.94761 2.846,-1.24837 -0.638,-2.41017 -2.015,0.20236 -0.876,-0.30404 -0.551,0.0211 -0.379,0.21444 -1.41,-0.68862 -0.23,-0.40371 -1.805,0.35639 -0.992,-0.80641 -0.749,-1.65712 -0.628,-0.13188 -0.94,-1.77088 -0.521,-1.67927 -0.082,-1.10038 -1.486,-0.70775 -1.166,-1.57858 0,0 -0.557,-1.08025 0.055,-0.59902 -0.915,-0.43995 -0.235,-1.52624 -0.785,-1.11649 -0.157,-0.90809 -0.553,-0.51949 0.413,-1.04601 -0.232,-0.9081 6.601,-9.90947 -0.177,-0.44599 7.755,-11.31793 0.921,-2.69206 -3.163,-5.82105 -8.349,-13.13914 -12.802,-4.4267 -2.51,-0.0463 -0.629,-4.46898 -1.433,-1.53127 -1.447,-0.596 0,0 0.296,-1.75175 1.643,-2.32459 0.782,-3.41089 2.556,-2.36889 0.783,0.69768 0.759,-0.19933 0.319,-0.91615 6.342,-1.70645 1.616,0.0503 2.864,-1.68933 z" 
                fill="rgb(151, 144, 238)" 
                stroke="white" 
                stroke-width=".7px"
                title="Al Qaḑārif" 
                id="SD-GD" 
            />
        </svg>