<svg xmlns="http://www.w3.org/2000/svg" viewBox="461.11099999999976 455.84096000000005 79.15600000000029 126.98792000000032" width="79.15600000000029" height="126.98792000000032">
            <path 
                d="m 463.192,489.98099 25.573,-16.7242 12.477,-2.91656 9.386,-5.83011 0.051,-0.85373 -0.204,-0.91917 -0.734,-0.66848 -0.754,-0.39666 5.513,-5.83112 1.83,0.98964 0.702,-0.38659 6.528,1.58161 0.937,1.22421 2.343,1.00675 6.609,18.57763 -0.62,1.62188 6.239,9.31046 0,0 0.284,1.40039 0.853,1.93196 0.062,5.17069 -0.472,0.9101 -1.131,3.49545 -0.594,1.26046 -1.403,2.00847 -1.098,2.1605 -0.594,0.39162 -0.457,1.03293 -0.466,0.32317 0.161,0.31411 1.294,-0.008 1.435,1.55342 0.152,0.74802 -1.206,5.50292 -0.576,3.79747 1.051,2.43333 -3.784,3.18637 -0.916,0.55875 -0.013,1.36818 -0.381,0.79332 -2.95,1.93297 -0.314,0.005 0.532,-1.26952 -0.009,-0.63123 -1.019,0.0151 -1.511,-1.63497 -1.663,-1.23931 -3.176,-3.03134 -0.473,-0.15 -0.619,0.56177 -1.172,0.17416 -0.922,1.27556 -1.092,0.33223 -1.631,0.97051 -2.379,4.50321 -0.978,1.45979 -1.535,1.99237 -1.941,1.82524 -0.182,1.05609 -0.555,1.1779 0.011,0.70875 1.098,0.298 0.803,1.3269 -1.357,2.87932 0.481,1.38429 0.752,3.29611 1.146,3.01019 -0.367,0.80641 0.156,1.36214 -0.532,1.10944 0.017,1.17992 -1.469,1.12253 -1.552,0.65137 -1.08,0.96044 -0.603,3.5931 -0.062,2.41521 -2.886,7.63824 -0.578,3.22765 -1.274,3.70888 0.14,2.60246 -8.669,0.12182 -0.026,-2.13332 -0.458,-2.1474 0.124,-2.17358 1.383,-4.11662 1.464,-2.11619 1.439,-5.72541 -0.223,-1.28361 0.123,-2.30849 -0.249,-0.41277 -0.655,-2.69709 0.191,-1.36516 -0.662,-1.75075 -2.922,-0.0221 -3.888,-6.88016 -4.923,-3.48135 -7.573,-9.07689 -9.461,-3.12698 2.417,-4.36931 -6.845,-31.94933 z" 
                fill="rgb(151, 144, 238)" 
                stroke="white" 
                stroke-width=".7px"
                title="Blue Nile" 
                id="SD-NB" 
            />
        </svg>