<svg xmlns="http://www.w3.org/2000/svg" viewBox="29.184000000000033 413.14151999999996 88.72399999999999 118.98119000000014" width="88.72399999999999" height="118.98119000000014">
            <path 
                d="m 57.794,418.06555 3,-0.98863 4.243,-3.22564 0.424,-0.51546 1.583,-0.1943 1.531,1.13159 0.59,-0.0141 1.931,1.21314 0.311,-0.61211 1.392,-0.19732 1.67,0.61311 0.044,1.3853 -0.509,1.28361 0.221,0.73291 -0.508,1.30274 0.816,0.29599 0.93,0.24061 0.808,-0.7611 -0.003,-3.46122 1.798,1.13461 0.63,1.73665 1.662,1.42154 2.707,-0.2225 0.764,-0.26075 1.673,0.30606 1.488,-0.21545 0.626,0.23659 1.31,-0.38559 0.895,0.65339 -1.722,0.96749 2.124,0.78325 0.249,0.80842 2.78,2.93972 1.157,-1.15776 4.923,0.31813 0.696,-3.5629 9.079,-2.5048 2.699,0.16813 0.816,-0.21243 4.104,-0.29699 1.182,1.4608 -3.845,6.708 -2.107,1.25441 -1.403,1.35006 -1.14,0.44498 -1.577,0.0222 -1.215,0.33022 -0.513,0.40471 0,0 -0.664,0.6554 -0.814,1.34804 -0.392,3.69278 -1.324,3.09778 -4.168,6.02441 -3.035,3.3092 -1.498,1.32791 4.96,9.83699 1.714,1.66517 0.98,5.48177 -0.43,3.58606 -0.551,-0.17115 -0.741,0.15404 -0.915,-1.1477 -4.635,0.50841 -0.797,0.88292 -3.322,1.57758 0.001,0.80541 -0.814,1.41952 -0.648,-0.95742 -0.873,0.25168 -2.274,-0.0554 0.369,1.09434 -1.106,0.18021 -2.627,1.69336 -1.24,0.19733 -0.622,1.15978 -1.636,0.69063 -1.577,2.46051 -0.124,3.37262 -1.266,7.62415 1.192,9.06682 -6.487,8.59264 -2.614,1.6098 -19.836,20.16226 0,0 -0.998,-0.70775 -0.908,-2.21989 -2.233,-2.82999 -0.034,-0.67754 -1.445,-1.33596 -0.328,-0.94434 2.481,-7.07446 0.284,-0.14396 1.677,-4.51831 -0.163,-4.01796 -0.756,-0.55875 -0.418,-0.10168 -0.328,-4.3824 -3.024,0.10068 -3.354,0.48525 -0.05,-1.46482 -1.37,-1.53027 -3.757,-1.68329 -2.428,-2.50682 -1.492,-1.87558 -0.466,-3.06154 3.444,-14.75196 -0.166,-0.42082 -0.979,0.30706 -1.003,-0.22249 -0.38,0.17618 -0.661,-0.0332 0,0 2.736,-1.83229 0.065,-0.82151 0.292,-0.58996 1.306,-1.11649 0.436,-1.58261 0.48,-0.39666 0.606,-1.52423 0.672,-0.51042 0.445,-0.77923 -0.052,-0.48022 -1.226,-2.97999 -0.922,-1.13864 0.218,-4.53543 -0.913,-2.02156 -0.194,-1.47791 -0.846,-1.1779 -0.889,-2.42326 0.027,-0.69063 7.961,-7.453 0.439,-0.16813 1.023,-1.33294 0.518,-0.30102 0.721,0.29498 0.506,-1.10844 -0.409,-1.03997 0.052,-1.2665 3.466,-3.70586 -0.397,-0.31209 -0.729,-1.35207 0.119,-0.43996 3.157,-3.34745 0.708,-2.14439 4.055,0.23357 1.486,-1.96317 1.271,-3.21557 0.09,-1.34502 z" 
                fill="rgb(151, 144, 238)" 
                stroke="white" 
                stroke-width=".7px"
                title="Central Darfur" 
                id="SD-DC" 
            />
        </svg>