<svg xmlns="http://www.w3.org/2000/svg" viewBox="127.27000000000001 437.74557 120.05799999999991 145.1838299999999" width="120.05799999999991" height="145.1838299999999">
            <path 
                d="m 135.762,438.30532 2.039,-0.55975 0.703,0.0171 1.332,0.78527 1.368,-0.1943 1.919,0.0342 4.144,0.37552 0.873,-0.46311 1.159,0.0362 1.048,0.82454 2.185,-0.1188 0.209,0.26779 -0.242,2.71119 0.173,0.61412 0.419,0.57587 5.706,2.79374 1.409,1.18696 3.345,0.12786 9.582,11.55652 0.134,0.65238 -0.091,1.89874 -0.303,0.57687 -0.874,0.0785 -1.388,-0.41981 -0.722,10e-4 -0.967,0.88494 -0.722,0.27082 -1.179,-0.13289 -0.627,-0.32418 -1.082,1.03796 -0.227,0.44096 2.668,3.58103 0.29,2.18465 1.731,0.93527 1.368,0.0735 -0.13,1.11246 1.412,3.02429 3.936,1.2373 0.154,0.82352 1.218,1.05105 0.134,0.49734 -0.227,0.59399 6.225,4.44179 8.906,1.24133 3.586,1.01883 4.408,2.96087 1.259,0.54264 1.292,-0.0685 2.8,-1.09334 4.038,-0.91514 4.495,0.0564 2.215,0.57285 1.679,1.49503 1.393,0.84768 0,0 0.786,13.23982 0.782,8.36411 2.345,9.33663 23.48,56.92689 0,0 -4.529,0.45606 -5.568,-0.65238 -10.302,-0.1198 -4.553,-0.2829 -6.74,0.36143 -3.964,0.79433 -12.51,4.44884 -3.167,-0.23759 -11.136,-3.43001 -3.141,-3.80352 -3.177,-10.23768 -5.156,-5.13847 -0.689,-1.70343 -1.138,-1.7004 -2.768,-1.77994 -1.934,-0.55271 0.118,-8.32585 -0.327,-0.20739 -0.694,-1.03797 -2.325,-0.82956 0,0 -1.283,-11.48304 -2.016,-8.05403 -4.113,-12.46361 -4,-5.74252 4.703,-1.9672 1.562,-3.08066 -5.298,-2.52997 -4.151,-2.21285 -12.849,-9.78967 -3.952,-3.76828 -4.23,-3.60015 -0.731,-0.8789 0.149,-6.49759 15.289,-1.41247 2.052,-1.25844 0.999,-1.06213 0.347,-0.64936 -0.178,-2.20378 z" 
                fill="rgb(151, 144, 238)" 
                stroke="white" 
                stroke-width=".7px"
                title="East Darfur" 
                id="SD-DE" 
            />
        </svg>