<svg xmlns="http://www.w3.org/2000/svg" viewBox="503.76699999999954 260.62034 116.16700000000031 95.75334000000021" width="116.16700000000031" height="95.75334000000021">
            <path 
                d="m 568.371,260.62034 14.313,5.07203 3.083,0.34028 33.163,-1.81719 0,0 -0.142,0.2537 0.462,0.5356 0.166,1.71248 -0.175,0.34834 -0.738,0.42384 -0.393,0.53157 -0.078,0.67855 0.841,1.18193 0.06,0.38055 -0.288,0.81245 0.601,2.0115 -0.461,1.54234 1.149,1.4457 -0.402,0.21746 -0.401,0.61916 -0.59,0.11477 -0.263,0.28189 -0.281,0.75305 0.413,0.8205 -1.511,1.87458 -0.536,0.25068 -1.799,0.30807 -0.192,0.75909 0.485,0.63123 0.017,0.27384 -0.763,3.78942 0.498,2.08801 0.962,1.06615 0.644,1.15475 0.962,0.3725 0.153,0.27887 -0.709,2.67897 -0.625,0.5074 0.011,0.38962 0.553,1.342 -0.022,0.89903 0.534,0.0433 0.103,0.23055 -1.261,0.97554 -1.596,2.05781 -0.183,1.04903 -2.452,8.06712 -0.509,1.19602 0.038,0.5658 -1.124,2.49071 -0.852,2.97798 -0.863,1.22521 -1.924,3.726 -2.486,8.10034 -0.3,1.21515 -0.047,1.06917 -0.629,1.1175 -0.058,1.20508 -1.004,2.28332 -0.308,1.21415 -1.168,2.91455 -0.174,0.94232 -0.279,0.48425 -0.657,0.51546 -0.481,0.1651 -0.666,-0.0675 -0.801,0.42687 -1.591,1.98129 0.082,0.44196 0,0 -9.457,3.12497 -3.194,1.80007 -0.937,-0.0201 -0.326,1.02688 -0.612,0.9685 -1.625,0.11477 -2.704,-2.6991 -0.439,-0.71279 -0.163,-0.93124 -0.327,-0.25371 -0.326,-0.80339 -0.571,-0.59197 -0.409,-0.7611 -0.897,-0.29599 -1.103,-1.73463 -1.183,-0.54969 -0.489,-0.71983 -0.858,-2.58132 -1.06,-0.84668 -0.817,-0.93124 -0.447,-1.05206 -0.534,0.58694 -0.042,0.72788 0.968,1.30475 1.093,2.51689 -0.157,0.94634 -1.105,2.43333 -0.725,0.17517 -1.484,0.86178 -0.162,2.03969 -2.449,5.7687 -4.995,0.46713 -11.09,0.38156 -4.33,0.45404 -2.291,-3.29711 -0.816,-0.88595 -2.098,-5.29149 -0.446,-2.17359 -0.272,-0.28189 -6.157,-3.50451 -1.417,-0.1802 -3.904,-2.63971 -1.399,-0.72587 0.447,-0.54365 0.447,-3.70888 -0.059,-1.87458 -1.922,-1.15072 -3.049,-1.35005 -1.069,-0.66647 -0.698,0.16208 -1.554,-0.38357 -0.738,0.0805 -4.759,-0.92823 -1.437,-1.4316 -0.543,-0.86782 -1.321,-0.18222 -0.777,-0.32216 -2.806,-2.1615 -0.521,-0.69466 0,0 7.913,1.55845 -0.679,-2.61051 -5.127,-9.51282 -1.185,-1.87357 0,0 0.575,-1.06111 -0.127,-0.22854 4.169,-8.21309 1.081,-2.4444 1.174,0.0342 2.082,-2.42225 3.167,-1.57154 32.393,1.68329 2.156,-0.87789 2.184,0.30806 11.056,-7.97449 z" 
                fill="rgb(151, 144, 238)" 
                stroke="white" 
                stroke-width=".7px"
                title="KassalÄ" 
                id="SD-KA" 
            />
        </svg>