<svg xmlns="http://www.w3.org/2000/svg" viewBox="399.26900000000023 283.10719 112.41099999999983 62.15602999999993" width="112.41099999999983" height="62.15602999999993">
            <path 
                d="m 407.645,283.10719 14.264,10.81556 21.66,2.86723 4.232,3.59109 11.077,1.94908 14.816,4.25051 2.963,2.50883 4.341,1.85746 6.068,1.54336 10.117,-1.67423 7.506,-1.88465 0,0 1.185,1.87357 5.127,9.51282 0.679,2.61051 -7.913,-1.55845 0,0 -7.693,-1.51416 -2.864,1.68933 -1.616,-0.0503 -6.342,1.70645 -0.319,0.91615 -0.759,0.19933 -0.783,-0.69768 -2.556,2.36889 -0.782,3.41089 -1.643,2.32459 -0.296,1.75175 0,0 -1.6,-0.65338 -9.633,5.37707 -3.328,3.8458 -2.114,-0.8638 -4.915,-0.0483 -19.21,1.74672 -3.032,-0.30807 0,0 -1.02,1.3118 -0.477,1.38026 -2.868,-0.10168 0,0 -10.236,-22.4798 -9.533,-11.89983 -2.832,-4.33206 -0.891,0.0705 0.341,-1.6098 -4.291,-11.25148 -2.069,-2.89542 -1.137,-3.25887 0,0 z" 
                fill="rgb(151, 144, 238)" 
                stroke="white" 
                stroke-width=".7px"
                title="Khartoum" 
                id="SD-KH" 
            />
        </svg>