<svg xmlns="http://www.w3.org/2000/svg" viewBox="37.30300000000011 138.01486 194.8219999999999 352.04157999999995" width="194.8219999999999" height="352.04157999999995">
            <path 
                d="m 128.979,138.01486 102.026,0.15604 0,147.38774 0,0 -22.996,0.0664 2.403,25.67826 4.411,39.92583 1.497,7.94832 2.912,2.06788 9.445,28.94417 0,0 2.046,6.07978 -1.54,9.26515 1.39,1.61786 1.526,2.83099 0.026,3.60418 -0.85,2.33365 0.134,0.40472 -5.043,6.2318 -0.201,4.25354 -0.795,1.29066 -0.112,1.13561 0.439,0.49935 -9.063,10.75012 -0.845,5.05592 -0.065,5.49285 0.404,2.35983 -0.376,2.55413 -0.624,1.36415 -2.481,3.99581 -0.434,1.55442 0.46,2.01251 0.763,1.43663 0.404,2.43333 -0.469,3.14509 -0.109,2.22292 1.068,2.37292 1.087,1.56952 4.518,11.9995 0,0 -1.393,-0.84768 -1.679,-1.49503 -2.215,-0.57285 -4.495,-0.0564 -4.038,0.91514 -2.8,1.09334 -1.292,0.0685 -1.259,-0.54264 -4.408,-2.96087 -3.586,-1.01883 -8.906,-1.24133 -6.225,-4.44179 0.227,-0.59399 -0.134,-0.49734 -1.218,-1.05105 -0.154,-0.82352 -3.936,-1.2373 -1.412,-3.02429 0.13,-1.11246 -1.368,-0.0735 -1.731,-0.93527 -0.29,-2.18465 -2.668,-3.58103 0.227,-0.44096 1.082,-1.03796 0.627,0.32418 1.179,0.13289 0.722,-0.27082 0.967,-0.88494 0.722,-10e-4 1.388,0.41981 0.874,-0.0785 0.303,-0.57687 0.091,-1.89874 -0.134,-0.65238 -9.582,-11.55652 -3.345,-0.12786 -1.409,-1.18696 -5.706,-2.79374 -0.419,-0.57587 -0.173,-0.61412 0.242,-2.71119 -0.209,-0.26779 -2.185,0.1188 -1.048,-0.82454 -1.159,-0.0362 -0.873,0.46311 -4.144,-0.37552 -1.919,-0.0342 -1.368,0.1943 -1.332,-0.78527 -0.703,-0.0171 -2.039,0.55975 0,0 -3.203,0.96951 -2.471,0.005 -1.368,-0.3433 -2.342,-1.99438 -2.508,-0.24464 -0.914,-0.28793 -1.866,-2.20681 -1.656,-1.0732 -1.729,0.25371 -3.212,-0.78326 -0.779,0.27182 -4.203,-1.33797 -2.318,-0.0342 -1.085,-0.57486 0,0 0.513,-0.40471 1.215,-0.33022 1.577,-0.0222 1.14,-0.44498 1.403,-1.35006 2.107,-1.25441 3.845,-6.708 -1.182,-1.4608 -4.104,0.29699 -0.816,0.21243 -2.699,-0.16813 -9.079,2.5048 -0.696,3.5629 -4.923,-0.31813 -1.157,1.15776 -2.78,-2.93972 -0.249,-0.80842 -2.124,-0.78325 1.722,-0.96749 -0.895,-0.65339 -1.31,0.38559 -0.626,-0.23659 -1.488,0.21545 -1.673,-0.30606 -0.764,0.26075 -2.707,0.2225 -1.662,-1.42154 -0.63,-1.73665 -1.798,-1.13461 0.003,3.46122 -0.808,0.7611 -0.93,-0.24061 -0.816,-0.29599 0.508,-1.30274 -0.221,-0.73291 0.509,-1.28361 -0.044,-1.3853 -1.67,-0.61311 -1.392,0.19732 -0.311,0.61211 -1.931,-1.21314 -0.59,0.0141 -1.531,-1.13159 -1.583,0.1943 -0.424,0.51546 -4.243,3.22564 -3,0.98863 0,0 0.235,-6.21067 2.607,-1.62792 -1.873,-1.25139 -1.029,-1.89672 -1.325,-2.61354 0.168,-1.57657 -0.632,-1.47087 -0.042,-3.46827 0.635,-2.42124 0.122,-2.6981 1.231,-3.07161 -0.806,-1.24334 -1.501,-0.43995 -1.232,1.29871 -3.51,-3.19946 1.729,-5.23109 -5.006,-9.72826 -5.002,3.09677 -3.053,-3.23973 -0.425,-3.21155 0.851,0.62721 2.17,-11.15785 -2.731,-3.00919 -2.072,-0.54264 0,0 0.551,-0.78325 1.92,-1.89974 1.552,-1.07018 0.755,-1.19804 0.905,-0.47922 1.148,0.0433 0.778,-0.59599 -0.34,-2.46454 0.615,-0.64331 1.164,-0.64634 0.468,-1.06011 0.413,-0.42888 0.115,-0.24363 -0.527,-1.11045 0.181,-0.9534 0.514,-0.95541 -0.521,-1.35609 -0.029,-1.27355 0.268,-1.17689 -0.277,-0.74097 -2.443,-2.08801 -0.333,-0.99064 0.246,-1.08931 -0.157,-0.447 0.075,-0.66043 1.152,-1.61987 1.429,-0.0846 0.626,-0.37149 1.271,-1.20105 0.892,-1.66719 1.13,-0.48425 1.505,-1.75578 1.274,-0.0956 0.66,0.297 1.175,0.0443 0.663,-0.19329 0.487,0.3282 0.596,-0.0161 1.323,0.33928 3.221,0.29598 2.621,-0.29196 1.106,-0.38961 2.891,-1.4759 2.586,-0.70473 3.421,-0.1641 2.583,0.52351 3.289,0.11074 6.451,1.64605 1.542,-0.0413 -0.07,-184.32352 40.811,0 z" 
                fill="rgb(151, 144, 238)" 
                stroke="white" 
                stroke-width=".7px"
                title="North Darfur" 
                id="SD-DN" 
            />
        </svg>