<svg xmlns="http://www.w3.org/2000/svg" viewBox="128.97900000000004 40.736245000000004 313.6 247.62821399999996" width="313.6" height="247.62821399999996">
            <path 
                d="m 390.624,50.167544 0.036,0.134905 21.654,0.06141 3.284,0.15504 16.634,-0.04631 0,0 0.046,1.321868 -4.77,87.597642 0.108,13.83581 -2.464,35.02396 15.332,15.76375 -2.77,15.80704 4.865,14.81236 -8.233,11.40753 -25.539,36.9086 -1.162,0.15604 0,0 -8.376,4.3975 0,0 -5.309,0.65943 -19.98,0.20034 -35.603,-2.07995 -6.004,-0.15907 -54.757,-0.57083 -46.611,0.004 0,0 0,-147.38774 -102.026,-0.15604 0,0 0,-87.318771 5.683,-0.230546 54.554,-0.126851 130.201,0.0745 8.606,0.04329 5.008,0.239607 0,-0.264776 53.81,-0.05235 1.566,-4.7851 1.258,-1.73363 0.485,-0.42183 0.438,-0.776207 2.618,-1.92592 0.371,0.255715 0.546,0.966484 0.472,0.245648 0.177,0.488275 -0.976,1.54134 -0.962,0.904065 -1.219,1.945048 -0.93,2.359831 z" 
                fill="rgb(151, 144, 238)" 
                stroke="white" 
                stroke-width=".7px"
                title="Northern" 
                id="SD-NO" 
            />
        </svg>