<svg xmlns="http://www.w3.org/2000/svg" viewBox="208.00899999999993 285.55464 221.90800000000016 182.77213000000012" width="221.90800000000016" height="182.77213000000012">
            <path 
                d="m 231.005,285.55864 46.611,-0.004 54.757,0.57083 6.004,0.15907 35.603,2.07995 19.98,-0.20034 5.309,-0.65943 0,0 1.137,3.25887 2.069,2.89542 4.291,11.25148 -0.341,1.6098 0.891,-0.0705 2.832,4.33206 9.533,11.89983 10.236,22.4798 0,0 -12.73,5.53916 -0.566,0.93427 -0.111,0.79734 1.284,2.20681 0.021,0.31008 -0.892,0.25672 -0.226,0.40874 -3.48,-0.13792 -2.187,8.13859 -11.586,10.44306 -3.062,7.8557 0.063,5.53312 1.988,6.38986 7.727,5.70125 3.567,10.89106 7.35,6.46537 0.021,0.50137 0.399,0.15101 0.211,0.30807 -0.663,0.36948 -1.611,5.05692 -0.048,2.10109 0.135,0.30706 1.618,0.58996 0.214,0.84668 -2.608,3.30618 -3.133,0.97756 -3.539,3.21255 -4.134,2.32862 -2.605,8.14967 0.215,1.17186 -1.318,2.85113 0.196,1.15273 1.621,5.25626 0,0 -10.912,-4.07735 -0.758,0.54163 -1.047,-0.30303 -0.166,1.07622 -0.19,0.0977 -0.516,-0.65037 0.074,-0.53962 -1.711,0.14296 -2.255,1.37523 -0.014,1.15374 -0.229,-0.11578 -0.384,-0.84164 -0.531,0.17416 -0.381,-0.0745 -0.074,0.42284 -0.418,-0.0564 -0.059,-0.38256 -0.913,0.0232 0.002,0.48022 -0.323,0.002 -0.116,-0.49935 -4.819,-0.18525 -0.408,0.44096 -0.166,1.07723 0.024,1.11347 0.502,1.57255 0.186,3.26389 -0.165,1.13361 -0.908,1.23226 -0.398,0.13592 -2.798,-0.81245 -2.137,2.64071 -1.449,-1.12555 -2.438,3.12094 0.306,0.49733 -10.072,0.73896 -2.602,-3.63337 -1.257,-4.3522 -0.479,-0.88091 -2.289,-1.58262 -0.517,-0.78526 2.609,-3.10483 -2.6,1.03091 -8.224,1.71048 -2.2,0.87386 -2.388,1.79806 -0.986,0.46512 -0.361,-0.0554 -0.173,-0.28793 0.312,-6.39691 -0.118,-0.92219 -0.82,-0.4762 0.007,-2.71018 -2.566,-0.90708 -1.656,-1.28361 -6.46,0.0705 0,0 -8.771,-14.53249 -1.507,-12.31562 -0.362,-0.2688 -5.399,-1.26046 -4.889,-2.39808 0.835,-0.79131 -2.112,-0.92017 -3.942,-4.59886 -10.827,-6.47745 0.072,-2.58534 -9.558,0.50237 -1.43,-1.75377 -2.052,-0.42082 -16.148,-6.68484 -2.719,-0.78729 -11.919,-1.79101 -14.214,0.37653 0,0 -9.445,-28.94417 -2.912,-2.06788 -1.497,-7.94832 -4.411,-39.92583 -2.403,-25.67826 z" 
                fill="rgb(151, 144, 238)" 
                stroke="white" 
                stroke-width=".7px"
                title="North KurdufÄn" 
                id="SD-KN" 
            />
        </svg>