<svg xmlns="http://www.w3.org/2000/svg" viewBox="466.3599999999993 0 216.9360000000002 266.02767000000006" width="216.9360000000002" height="266.02767000000006">
            <path 
                d="m 678.237,215.89229 0.352,0.6564 -0.227,0.46613 -0.432,-0.2386 -0.136,0.298 0.59,0.2386 0.805,1.16985 -0.136,0.48928 -0.216,-0.1198 0.125,-0.41781 -0.696,-0.8497 -0.432,-0.14497 -0.244,0.004 -0.328,0.7158 -0.432,-0.1198 0.317,-0.17921 0.171,-0.51344 -0.193,-0.16712 -0.419,-0.50136 0.124,-0.26277 0.635,0.22652 0.352,-0.1792 0.42,-0.57083 z m -6.133,-1.18193 1.451,0.32216 0.113,0.2386 -0.521,0.33425 -0.431,-0.0242 -0.612,-0.33424 -0.17,-0.22652 -0.091,-0.21544 0.261,-0.0946 z m 1.394,-1.01481 1.19,0.72889 0.203,0.44197 -0.589,-0.0242 -0.283,-0.38156 -0.341,-0.0715 -0.385,-0.50137 0.205,-0.19229 z m -2.8,-1.73262 0.794,0.64533 0.964,0.58593 -0.964,0.1198 -0.057,-0.25068 -0.238,-0.0956 0,-0.22753 -0.499,-0.77721 z m -11.166,-21.5848 1.032,0.39566 0.215,0.43089 -0.045,0.39565 -1.281,-0.15605 -0.317,-0.5517 0.158,-0.13088 -0.033,-0.30001 0.271,-0.0836 z m 6.677,-2.00243 0.51,0.20336 -0.193,0.76715 0.034,-0.23961 -0.102,0.0725 -0.136,-0.30001 -0.851,0.0604 0.738,-0.56378 z m -36.446,-87.34293 0.657,0.3886 0.012,0.34029 -0.204,0.20638 -0.284,2.65783 -0.328,0.49734 -0.352,0.12081 -0.068,0.30404 -0.306,-1.09233 0.079,-2.13633 0.216,-0.3272 -0.068,-0.34028 0.646,-0.61915 z m -25.62,-62.689549 0.93,0.80943 -1.021,-0.09866 0.079,0.454045 -0.306,-0.110742 -0.172,0.250681 -0.124,-0.07853 0.228,-0.282897 -0.136,-0.404715 0.283,-0.53962 0.239,0 z m -36.05,-27.80251 0.193,0.874869 -0.079,0.295986 -0.396,0.129871 0.056,-0.931247 -0.476,-0.221486 0.079,-0.41881 0.477,0.221486 0.146,0.04933 z m -0.872,-0.6282141 0.011,0.7882881 -0.896,-0.294979 0.068,-0.308066 0.817,-0.1852431 z M 670.38,212.91935 l -0.192,0.34632 0.736,0.56177 -0.271,0.299 -0.068,0.45405 -0.589,0.71681 0.261,0.37048 0.521,0.19028 0.771,0.0715 0.272,0.26276 0.011,0.36948 0.578,0.0483 0.386,0.34632 0.726,0.2386 1.156,-0.27484 -0.022,-0.39364 -0.229,0.0836 -0.226,-0.45506 -0.271,-0.0473 0.079,-0.11981 0.317,-0.20236 0.691,0.13088 0.317,0.13088 0.794,1.12253 -0.034,0.39465 -0.295,-0.0836 -0.125,0.16712 0.204,0.20336 -0.215,0.46512 0.352,0.33425 -0.022,0.60807 0.203,0.23861 0.228,0.15504 0.317,0.0715 0.419,0.1792 0.125,0.13088 0.192,0.0956 0.261,-0.0956 0.182,-0.0836 -0.068,-0.25068 0.227,-0.38156 0.341,-0.0715 0.011,0.36948 0.442,0.33424 0.215,-0.0362 0.148,0.28693 -0.397,0.21443 -0.726,-0.40572 -0.079,0.20337 0.249,0.20336 -0.124,0.59701 0.351,-0.0836 0.352,-0.0121 0.261,0.34633 0.386,0.26276 -0.147,0.48928 0.374,0.2386 0.487,-0.1792 0.567,-1.34804 -0.406,-0.39163 -0.218,-0.16913 -0.022,-0.0232 -0.079,-0.48928 0.17,-0.0594 0.259,0.42686 0.24,0.1339 1.043,0.87084 0.691,1.40745 0.091,0.35739 -0.147,0.27384 -0.137,0.14397 0.216,0.10671 0.51,-0.0473 0.295,0.52452 -5.315,5.13243 -2.548,6.10395 -0.097,1.03696 -1.604,3.33235 -2.01,0.63325 -0.76,0.59701 -0.195,1.4024 -0.633,1.4598 -0.681,0.18222 -1.268,-0.37653 -0.708,0.77218 -0.231,-0.85976 -0.523,-0.71681 -0.421,0.38256 -1.466,-0.007 -0.875,0.61009 -0.103,1.10441 -0.205,0.45706 0.215,1.79505 -1.466,-0.0654 -0.125,-3.00818 -0.245,-0.48627 -0.196,-0.0453 -0.645,0.46713 -0.63,0.20135 -0.887,-0.3433 -1.278,1.76081 -0.155,0.446 0.27,0.72184 -0.671,0.5366 -0.66,0.18323 -1.02,0.63325 -1.938,0.19329 -0.341,-0.38558 -0.201,-1.04804 -0.814,-0.60002 -2.026,0.16712 -0.511,0.67151 0.293,1.68429 -0.372,0.34331 -0.301,2.10109 -0.666,-0.12181 -0.403,0.26578 -5.184,0.27686 -3.96,1.59469 -0.377,1.26751 -0.556,0.0151 0.22,0.94735 0.748,0.29498 0.202,0.29901 0.028,0.33323 -0.181,0.18122 -0.896,0.41679 0.106,0.35136 -0.24,0.90004 0.246,0.49432 0.448,0.36142 -0.256,0.30102 -0.65,0.1047 -0.436,0.4923 -0.416,0.87487 0.034,0.57889 -0.315,0.2235 -0.904,1.58463 -0.644,-0.0322 -0.277,0.16511 -0.81,2.22895 -1.815,-0.90306 -0.75,-0.76412 -0.847,-0.35035 -2.403,0.80137 -1.309,-0.13088 -0.405,0.149 -0.521,0.50439 -2.798,0.26477 -0.721,-1.0591 -0.708,-0.25471 -0.55,0.18222 -0.95,-0.16913 -0.706,-0.51949 -0.343,-0.0473 -0.412,0.20638 -0.642,0.93628 0,0 -33.163,1.8182 -3.083,-0.34129 -14.313,-5.07203 0,0 -15.962,-6.49255 -6.577,-3.14007 -2.384,-2.22895 -7.424,-11.72667 -5.354,-9.02152 -9.818,-9.89135 -6.691,-3.62733 -13.459,-4.54751 -13.063,-34.62125 -4.724,-7.96544 -0.206,-3.54478 0.996,-11.68136 -1.81,-12.74047 -1.909,-3.15819 -0.035,-0.95742 2.841,-12.372 -0.027,-2.14237 0.408,-3.05147 -0.123,-0.69768 -1.428,-3.4884 -1.429,-2.70615 -0.734,-0.74198 -0.816,-1.52825 -0.775,-2.40212 -0.367,-0.52452 -0.857,-0.39364 -1.836,-0.30605 -1.289,-0.60607 -0.874,-0.92319 -2.326,-3.32128 -3.277,-2.134317 -0.682,-1.88867 0.204,-1.356098 0.734,-1.750744 0.245,-1.357104 0.041,-1.488989 -0.326,-2.802802 0.081,-0.832586 1.347,-1.620873 0.734,-1.182936 0.359,-1.233273 0.009,-0.608079 0,-1.139645 -0.49,-2.148413 -0.041,-2.193716 -0.408,-1.053064 -1.673,-1.668191 -0.782,-1.175889 11.359,-8.567474 1.221,-1.181928 0,0 17.513,-2.007467 6.345,-19.153489 21.682,-4.007887 L 535.1,12.749529 545.745,15.864425 562.484,0 l 0.204,0.93829445 0.386,0.34531655 -0.17,0.2959856 0.102,0.567809 0.238,0.2214859 -0.158,0.4077352 0.34,0.2335669 0.182,-0.1973238 0.283,0.6161333 -0.057,0.6664709 0.34,1.5665088 -0.125,0.7892949 0.692,1.3188474 -0.068,0.062419 -0.261,-0.025169 0,-0.2607492 -0.295,0.03725 -0.147,0.2708168 0.091,0.5919711 0.51,0.4681405 0.046,-0.4560594 0.386,-0.012081 0.057,0.1238307 0.158,0.7762071 0.703,0.7147947 0.147,0.172155 0,0.197324 0.476,0.776207 0.341,0.233567 -0.023,0.320148 0.352,0.209404 0.816,1.23126 0.17,-0.147993 -0.317,-0.972524 0.907,-0.258735 0.408,1.268509 0.124,0.09866 0.556,0.960443 0.17,0.356391 -0.022,0.221486 0.657,1.169848 1.859,1.858467 0.317,0 0.566,0.356391 0.057,0.197324 -0.215,0.134905 0.17,0.184235 0.465,0.09866 0.045,0.147993 1.01,0.221486 0.328,-0.122824 0.624,0.270817 0.011,0.135911 -0.295,0.02416 -0.158,0.910105 0.669,-0.160074 0.204,-0.246655 0.204,-0.528545 0.578,0.712781 0.839,0 0.736,0.369479 0.193,-0.110743 0.453,0.122824 0.272,0.04933 0.611,-0.02416 1.849,0.725869 1.7,-0.146986 0.453,0.41881 1.111,-0.134905 0.238,0.09866 0.102,0.651369 0.204,0.02416 0.17,0.30706 1.304,0.233567 0.521,0.848693 0.544,0.03725 0.012,0.516465 0.283,0.503377 0.681,0.479215 0.465,1.511137 0.181,1.289651 0.658,1.191997 1.292,1.216158 1.519,0.969504 0.806,0.356391 0.419,-0.184236 0.511,0.466127 -0.147,1.104409 0.261,0.957422 0.51,0.920173 2.426,1.42355 0.578,0.04933 2.256,1.189983 0.431,0.551701 0.681,0.331222 -0.068,0.184236 0.612,0.367465 0.68,0.882923 0.749,0.220479 -0.034,0.478208 0.181,0.331222 0.794,0.416796 0.521,0.77218 0.624,-0.01208 0.17,0.50237 0.873,0.857754 0.896,0.293972 0.771,-0.159067 0.249,0.122824 0.137,-0.379546 0.408,0.367465 0.521,0.342296 0.068,0.625194 0.103,0.526533 1.201,0.77218 0.59,0.955409 1.235,0.379546 0.556,0.514451 0.272,-0.02416 -0.023,1.8484 -0.714,1.664164 -0.556,0.46512 0.238,0.134905 -0.068,0.293972 0.374,0.183229 0.068,0.45304 0.295,0.330215 0.022,0.709761 -0.851,0 0.329,0.146986 0.068,0.648349 -0.193,0.195311 0.408,0.256722 0.046,1.07622 -0.238,0.746004 0.295,0.231553 0.102,0.746005 -0.386,0.146986 0.057,0.09766 0.499,0.06141 -0.022,0.561769 -0.283,1.100381 0.227,1.099375 0.295,0.818491 0.271,1.111456 0.046,0.183229 -0.068,1.527246 0.283,0.683586 -0.067,0.890977 -0.182,0.183229 -0.283,-0.08557 -0.057,0.183229 0.396,0.231553 0.079,-0.280884 0.227,-0.09765 0.295,0.439951 0.046,0.512438 -0.238,0.463107 0.317,0.255715 -0.034,0.537606 0.386,0.121818 0.295,0.377532 -0.103,0.256723 0.137,0.365451 0.192,0.512438 0.714,0.793322 0.091,0.915139 0.363,0.500356 -0.228,0.01208 -0.158,0.04832 -0.076,0.419816 -0.298,-0.115777 -0.125,0.488276 0.283,0.133898 0.307,-0.145979 0.158,-0.487269 0.159,-0.122824 0.182,0.109736 0.431,0.57385 0.612,1.755778 0.691,0.780234 -0.795,0.6111 -0.543,0.193297 0.136,0.219472 -0.329,0.02416 -0.045,0.280884 0.657,-0.133898 0.3,-0.479215 0.539,-0.422836 0.42,0.755065 0.805,0.804396 0.566,1.060112 -0.646,0.219472 -0.748,-0.06141 -0.386,-0.413776 -0.091,0.30404 -0.204,0.255715 -0.158,0.487269 0.635,-0.31612 0.146,0.279877 -0.227,0.231553 0.193,0.243635 0.237,-0.377533 0.182,-0.329208 0.374,0.07249 0.182,0 0.272,-0.06141 0.2,-0.210412 0.196,-0.0091 1.235,1.35207 1.429,2.241034 0.736,0.621167 0.703,0.913125 1.349,0.755066 0.205,0.65741 0.453,0.170141 0.68,0.973531 0.352,0.182222 0.521,0.973531 0.329,0.388607 0.736,0.681572 0.545,1.800076 1.235,0.960443 -0.057,0.255715 -0.396,0.316121 0.057,0.340283 -0.397,0.692646 -0.192,0.388607 -0.42,0.10873 -0.884,-0.182223 -0.295,0.158061 0.091,0.766139 -0.204,0.218466 -0.329,-1.045011 -0.374,-0.559755 -0.147,-0.267796 -0.646,-1.556441 -0.307,-0.182223 0.113,-0.340283 -0.102,-0.450018 0.386,-0.207392 0.748,1.532279 1.678,1.008768 -0.034,-0.340283 -0.477,-0.778221 -0.566,-0.31612 -0.431,-0.669492 -0.022,-0.413775 -0.317,-0.279878 0,-0.498343 0.34,-0.109736 -0.216,-0.693653 -0.669,0.109736 -0.192,-0.425857 -0.329,-0.04832 -0.158,0.194303 0.192,0.182223 -0.079,0.145979 -0.477,-0.15806 0.137,-0.328202 0.011,-0.802383 -0.589,0.06041 -0.17,0.353371 0.158,0.291959 -0.091,0.255715 -0.669,-0.437938 -0.022,-0.608079 -0.17,-0.194304 0.363,-0.474181 0.192,-0.791308 -0.396,-0.767146 -0.953,-0.389614 -0.736,-0.02416 -0.329,0.30404 -0.113,0.401694 -0.136,0.182223 -0.034,0.15806 -0.465,0.474181 0.204,0.365452 -0.227,0.340282 0.362,0.267797 -0.192,0.35337 0.952,0.316121 -0.136,0.4621 0,0.267796 0.362,0.291959 -0.441,0.802383 0.34,0.329208 -0.022,0.595998 0,0.267797 0.011,0.364445 -0.521,0.267796 -0.487,-0.437938 -0.352,0.279878 0.057,1.495029 0.612,0.30404 0.046,0.862788 0.294,0.04832 0.511,0.644322 0.102,0.740971 0.317,0.376526 0.204,0.923193 0.396,0.449012 0.034,0.170141 -0.022,0.424851 0.182,0.01208 0.136,0.461093 -0.17,0.715802 0.386,0.352363 0.192,1.943037 -0.182,0.43693 0.125,1.62691 0.204,0.38861 0.045,0.25471 0.113,0.81346 -0.022,0.43693 -0.102,0.39968 0.249,0.36444 0.045,0.48526 -0.26,0.75204 0.158,0.43693 -0.125,0.43694 0.317,0.18222 0.329,0.99467 0.295,0.12081 0.204,0.33928 0.034,0.98158 0.181,0.33928 -0.157,0.27585 0.645,0.80339 0.715,2.22996 -0.057,0.88393 -0.431,1.65913 0.295,1.04199 -0.806,0.0725 -0.759,-0.19329 -0.397,0.43592 0.137,0.98058 0.283,0.23055 0.34,1.25844 -0.261,0.70171 -0.499,0.52049 0.159,0.68962 0.102,0.93226 -0.067,1.25844 0.476,0.93125 0.046,1.19703 -0.137,1.25743 0.193,1.65611 0.215,0.26578 0.17,4.36227 -0.192,1.05105 -0.59,1.01481 0.171,-0.93024 -0.477,0.56781 -0.159,0.0846 -0.17,0.49533 0,0.0362 0.442,0.84467 0.102,0.41075 -0.022,0.80037 0.182,0.4913 0.317,0.27786 0.192,0.77218 0.261,0.31411 0.17,1.14669 0.228,0 0.124,0.42284 -0.182,0.18222 0.341,0.30001 0.283,0.41076 0.408,0.60304 0.17,0.49432 -0.17,0.37451 0.295,0.18122 0.237,0.0272 0.159,0.0936 -0.192,0.30102 0.102,1.43563 -0.045,0.83158 0.045,1.20508 -0.249,0.69969 0.124,1.3853 -0.34,0.68761 0.227,0.39767 -0.702,1.10843 0.136,-1.09635 -0.295,-0.0725 -0.022,0.80742 -0.238,0.36142 0.182,0.36143 0.113,1.07219 -0.113,0.81849 0.182,1.07119 -0.068,0.25269 0.283,0.9393 1.825,2.79274 0.057,0.51747 -0.158,0.61311 0.271,1.22724 0.216,0.67351 0.215,0.44499 0.012,0.38458 0.295,1.35912 0.249,0.33625 0.012,1.14166 -0.091,0.32518 0.125,0.67251 0.034,0.36042 0.227,0.20437 -0.159,1.61081 0.511,2.30647 -0.261,0.70876 0.374,1.20105 -0.046,1.05609 0.454,0.5527 0.158,-0.36041 0.204,0.0725 0.045,0.15605 -0.113,0.64936 0.442,0.88795 -0.034,0.66043 0.374,0.56379 0.283,0.78023 -0.113,0.30001 0.499,0.64835 0.079,1.13965 0.556,0.26377 -0.328,0.62418 -0.25,0.73191 0.182,0.73191 0.487,0.44398 -0.079,0.37149 0.17,0.28794 0.17,0.35941 -0.238,0.60002 0.147,0.59902 -0.113,0.28793 0.544,0.62318 0.137,0.68359 0.702,0.71882 0.748,0.70674 0.307,0.79131 0.453,0.35941 0.397,1.11347 0.385,0.41982 0.295,-0.0594 1.179,1.32891 0.477,0.19129 0.556,-0.0242 0.283,0.32317 0.51,-0.27484 0.431,0.0715 2.54,-0.52653 0.782,-0.56278 0.237,0.70674 0.715,0.4913 0.442,0.1792 0.532,-0.0362 0.136,-0.16813 0.602,0.0604 0.487,0.75406 -0.216,0.0836 -0.067,0.45506 0.306,0.10772 0.136,0.0242 0.59,0.49029 -0.091,0.7309 0.612,0.28793 0.635,0.9091 3.582,1.12555 2.041,0.99367 0.963,0.83762 1.395,2.26117 0.782,0.86077 0.998,0.86078 3.208,1.86551 0.181,0.25068 -0.067,0.28693 -1.031,0.299 -0.272,0.25169 -0.227,0.63325 -0.057,1.31482 0.362,0.49029 -0.17,0.54969 0.578,0.60908 -0.158,0.38257 0.306,0.56177 0.283,0.32216 0.408,0.62117 1.19,0.29799 0.51,-0.0231 0.103,0.14296 -0.25,0.56177 0.341,0.16712 0.556,0 0.294,0.299 0.806,-0.1198 0.227,0.28692 1.031,-0.12181 0.76,-0.48727 0.102,-0.54969 -0.408,-0.19128 -0.102,-0.26276 0.317,-0.62117 0.261,0 0.34,0 0.079,0.15504 -0.186,0.17417 z" 
                fill="rgb(151, 144, 238)" 
                stroke="white" 
                stroke-width=".7px"
                title="Red Sea" 
                id="SD-RS" 
            />
        </svg>