<svg xmlns="http://www.w3.org/2000/svg" viewBox="407.64500000000004 50.38802999999998 160.72600000000006 262.1022900000001" width="160.72600000000006" height="262.1022900000001">
            <path 
                d="m 478.314,62.687533 0.659,0.003 0,0 -1.221,1.181929 -11.359,8.567474 0.782,1.176895 1.673,1.667184 0.408,1.053064 0.041,2.193717 0.491,2.149419 0,1.139645 -0.009,0.607072 -0.36,1.23428 -0.734,1.182936 -1.347,1.620874 -0.081,0.832585 0.326,2.802802 -0.041,1.487982 -0.245,1.357104 -0.734,1.750745 -0.204,1.35509 0.681,1.889677 3.278,2.133313 2.326,3.32229 0.874,0.92319 1.289,0.60506 1.836,0.30605 0.857,0.39263 0.368,0.52452 0.775,2.40212 0.816,1.52724 0.735,0.74198 1.428,2.70615 1.428,3.48841 0.123,0.69768 -0.408,3.05147 0.027,2.14237 -2.84,12.37199 0.035,0.95642 1.909,3.15819 1.809,12.74047 -0.996,11.68136 0.206,3.54478 4.724,7.96443 13.063,34.62125 13.459,4.54751 6.691,3.62632 9.818,9.89136 5.354,9.02152 7.424,11.72767 2.383,2.22895 6.578,3.14007 15.962,6.49255 0,0 -3.772,25.54336 -11.056,7.97449 -2.184,-0.30806 -2.156,0.87789 -32.393,-1.68329 -3.167,1.57154 -2.082,2.42225 -1.174,-0.0342 -1.081,2.4444 -4.169,8.21309 0.127,0.22854 -0.575,1.06111 0,0 -7.506,1.88465 -10.117,1.67423 -6.068,-1.54336 -4.341,-1.85746 -2.963,-2.50883 -14.816,-4.25051 -11.077,-1.94908 -4.232,-3.59109 -21.66,-2.86723 -14.264,-10.81556 0,0 1.162,-0.15604 25.539,-36.9086 8.233,-11.40753 -4.865,-14.81236 2.77,-15.80704 -15.332,-15.76375 2.464,-35.02396 -0.108,-13.83581 4.77,-87.597642 -0.046,-1.321868 0,0 30.026,-0.08457 z" 
                fill="rgb(151, 144, 238)" 
                stroke="white" 
                stroke-width=".7px"
                title="River Nile" 
                id="SD-NR" 
            />
        </svg>