<svg xmlns="http://www.w3.org/2000/svg" viewBox="453.1470000000001 390.3275600000003 112.39800000000008 99.65342999999962" width="112.39800000000008" height="99.65342999999962">
            <path 
                d="m 496.313,396.01362 1.166,1.57858 1.486,0.70775 0.082,1.10038 0.521,1.67927 0.94,1.77088 0.628,0.13188 0.749,1.65712 0.992,0.80641 1.805,-0.35639 0.23,0.40371 1.41,0.68862 0.379,-0.21444 0.551,-0.0211 0.876,0.30404 2.015,-0.20236 0.638,2.41017 -2.846,1.24837 3.112,6.94761 8.277,9.50174 0.741,-0.0242 0.573,0.59499 1.122,0.0916 -0.207,0.55976 1.093,1.91988 0.437,0.11376 2.337,-0.45404 0.344,0.30605 0.569,-0.23457 1.066,0.26578 0.535,0.6715 0.533,0.0735 0.307,0.57687 -0.034,0.86681 0.844,0.894 -0.246,1.00776 2.669,1.58664 0.383,0.5366 -0.111,0.57788 2.06,1.53027 1.084,0.16712 0.309,0.9997 1.01,0.45606 0.835,-0.42686 2.71,2.23801 1.214,-0.31411 0.799,0.11175 1.547,1.47289 1.034,1.53429 1.503,0.28088 0.346,0.65339 1.027,0.24464 1.602,1.01178 1.071,1.30174 1.464,0.40068 3.983,0.63829 0.983,-0.24263 0.913,0.20638 2.278,-0.72184 0.684,0.80037 0.714,0.1641 0.21,0.37049 2.12,0.58492 1.766,0.94635 0,0 -0.498,0.71379 0.263,0.73291 -0.315,0.87991 -0.719,0.38458 -0.768,-0.1782 -8.886,15.41743 0.466,0.66143 -0.144,0.97253 -0.573,0.49733 -0.936,-0.0171 -2.808,4.96934 0.341,0.37753 0.122,0.43794 -0.14,0.99467 -0.674,0.42988 -0.852,-0.10168 -1.103,3.15013 -0.744,0.24162 -6.517,4.99652 -2.074,3.30417 0.082,0.40673 0,0 -6.239,-9.31046 0.62,-1.62188 -6.609,-18.57763 -2.343,-1.00675 -0.937,-1.22421 -6.528,-1.58161 -0.702,0.38659 -1.83,-0.98964 -5.513,5.83112 0.754,0.39666 0.734,0.66848 0.204,0.91917 -0.051,0.85373 -9.386,5.83011 -12.477,2.91656 -25.573,16.7242 0,0 0.328,-0.91716 1.375,-10.07559 1.184,-6.83183 1.873,-2.3105 -2.073,0.0685 0,0 -2.745,-9.69906 -4.323,-9.83397 5.067,-9.82995 -3.65,-4.11963 -7.081,-10.05546 0.37,-2.15949 1.275,-3.80251 0.592,-3.45417 -0.976,-1.5957 0.432,-0.98461 -0.374,-2.66085 0,0 -0.607,-3.91526 0.92,-2.39708 1.647,-1.39738 1.403,-0.7017 1.881,-0.45405 -0.669,-0.75003 -0.996,-1.59772 0.01,-2.04774 -0.393,-2.78065 0.507,-1.20005 -0.004,-0.75406 0.45,-1.68329 1.995,-0.0876 -0.109,1.19904 0.514,0.0554 1.898,-0.66648 0.855,-0.0815 0.801,0.46109 0.568,-0.46713 0.836,0.0151 0.992,0.69063 2.302,0.894 0.596,4.90893 4.316,0.26981 -0.13,0.55976 -1.745,0.89701 0.289,0.71379 0.8,0.3433 1.157,-0.41075 1.741,-1.74672 4.32,-0.22451 0.032,-1.48496 -0.204,-0.37854 -0.98,-0.71479 -0.204,-0.37854 0.136,-0.28089 0.517,-0.13993 1.061,0 0.571,-0.58895 -0.041,-0.5054 -1.06,-1.80913 0.139,-0.35438 1.493,-0.27686 0.367,-0.50539 0.041,-1.61785 2.488,0.44398 0.416,1.66114 z" 
                fill="rgb(151, 144, 238)" 
                stroke="white" 
                stroke-width=".7px"
                title="Sennar" 
                id="SD-SI" 
            />
        </svg>