<svg xmlns="http://www.w3.org/2000/svg" viewBox="48.29399999999988 430.92481 115.33400000000007 185.20643000000018" width="115.33400000000007" height="185.20643000000018">
            <path 
                d="m 106.108,430.92481 1.085,0.57486 2.318,0.0342 4.203,1.33797 0.779,-0.27182 3.212,0.78326 1.729,-0.25371 1.656,1.0732 1.866,2.20681 0.914,0.28793 2.508,0.24464 2.342,1.99438 1.368,0.3433 2.471,-0.005 3.203,-0.96951 0,0 10.166,26.98503 0.178,2.20378 -0.347,0.64936 -0.999,1.06213 -2.052,1.25844 -15.289,1.41247 -0.149,6.49759 0.731,0.8789 4.23,3.60015 3.952,3.76828 12.849,9.78967 4.151,2.21285 5.298,2.52997 -1.562,3.08066 -4.703,1.9672 4,5.74252 4.113,12.46361 2.016,8.05403 1.283,11.48304 0,0 -2.858,0.66445 -0.612,0.49734 -2.408,-0.0413 -1.796,0.37351 -1.346,0 -5.836,1.78497 -2.163,-0.0413 -1.306,0.28994 -0.775,0.37351 -1.47,0.12383 -0.734,0.41478 -2.245,0.16612 -1.387,-0.49734 -0.49,0.0826 -0.286,0.24867 -0.408,0.0836 -0.449,-0.16611 -1.673,0.49733 -1.102,-0.12383 -2.081,0.70473 -0.33,0.27585 -0.69,1.5504 -0.735,1.03696 -0.245,0.99467 -0.653,1.07924 0,1.49201 0.531,1.16079 0,0.99568 -0.449,1.20206 -0.735,1.03595 -1.02,2.81891 -0.857,0.91111 -0.571,1.12052 -0.531,0.62117 -2.081,1.32488 -1.224,1.07824 -0.694,0.3725 -0.939,0.0825 -0.367,0.24867 -1.061,2.61051 -0.572,0.91011 -0.479,0.25974 0.481,1.42959 0.012,3.64143 0.425,1.51315 0.016,1.91484 -0.9,2.01754 -1.695,1.1336 -3.535,2.79777 0.065,1.02286 0.595,1.71954 -1.162,2.1323 -1,3.51257 -0.99,4.78107 1.215,4.11661 -0.195,1.2514 -0.797,0.95339 -0.728,0.44096 -1.107,1.88364 -0.705,0.74399 -5.501,2.80985 -4.307,3.75217 0.132,-0.98863 -0.34,-0.35941 -0.293,-0.0463 -0.856,0.33424 -0.76,0.68459 -1.274,-0.75506 -0.415,-0.0554 -1.335,0.63928 -3.845,-0.72687 -1.76,0.0815 -1.077,-0.69667 -1.121,-0.21444 -2.739,0.56177 -2.264,-0.84366 -1.421,0.15705 -1.805,0.6997 -1.028,-0.27887 -1.508,-0.0977 -1.925,-0.79634 -0.876,0.0141 -1.252,0.14899 -0.814,1.00877 -1.528,-0.447 -0.012,-1.31683 -0.473,-0.53559 0.14,-0.90407 -0.127,-0.87185 0.223,-0.46612 0.931,-0.45103 0.393,-0.39968 0.944,-1.33294 0.467,-0.97957 0.314,-1.30174 -0.099,-2.6095 -0.37,-0.40572 -0.311,-0.0453 -1.565,1.84941 -1.149,0.0624 -0.928,-0.64936 -0.604,-0.14799 -0.09,-0.96749 -0.511,-0.23458 -0.124,-0.27484 0.682,-1.18092 -0.052,-0.8638 0.483,-1.15072 -0.137,-0.9393 0.187,-1.02991 0.56,-0.33122 0.08,-0.94131 0.547,-0.0211 0.168,-0.27686 0.738,0.25269 0.744,-0.15604 1.991,-1.78598 0.667,-0.40271 0.063,-0.6272 0.318,-0.56177 0.498,-0.50539 0.585,0.0725 0.179,-0.13389 0.167,-0.52251 -0.64,-1.57456 -0.021,-0.80943 0.479,-2.1011 0.526,-0.51445 0.56,-1.33395 -0.192,-0.65539 -0.199,-0.0936 -0.66,0.18423 -0.32,0.27585 -0.421,-1.16682 0.322,-1.73162 0.581,-0.85775 -0.123,-0.15102 -0.984,-0.0825 0.167,-0.67452 0.716,-0.56479 0.166,-0.59097 0.417,-0.5819 0.142,-0.73393 1.221,-2.05377 -1.209,-9.27019 -14.951,-24.18323 -1.553,-0.82856 -0.918,-1.33093 -1.304,-0.78325 -0.747,-1.0732 -1.287,-1.07119 -1.207,-1.77591 -1.733,-0.96246 -0.593,-0.63526 -2.042,-1.21817 0,0 19.836,-20.16226 2.614,-1.6098 6.487,-8.59264 -1.192,-9.06682 1.266,-7.62415 0.124,-3.37262 1.577,-2.46051 1.636,-0.69063 0.622,-1.15978 1.24,-0.19733 2.627,-1.69336 1.106,-0.18021 -0.369,-1.09434 2.274,0.0554 0.873,-0.25168 0.648,0.95742 0.814,-1.41952 -0.001,-0.80541 3.322,-1.57758 0.797,-0.88292 4.635,-0.50841 0.915,1.1477 0.741,-0.15404 0.551,0.17115 0.43,-3.58606 -0.98,-5.48177 -1.714,-1.66517 -4.96,-9.83699 1.498,-1.32791 3.035,-3.3092 4.168,-6.02441 1.324,-3.09778 0.392,-3.69278 0.814,-1.34804 z" 
                fill="rgb(151, 144, 238)" 
                stroke="white" 
                stroke-width=".7px"
                title="South Darfur" 
                id="SD-DS" 
            />
        </svg>