<svg xmlns="http://www.w3.org/2000/svg" viewBox="212.21300000000014 389.81302 117.29900000000009 199.22953999999964" width="117.29900000000009" height="199.22953999999964">
            <path 
                d="m 228.677,390.18955 14.214,-0.37653 11.919,1.79101 2.719,0.78729 16.148,6.68484 2.052,0.42082 1.43,1.75377 9.558,-0.50237 -0.072,2.58534 10.827,6.47745 3.942,4.59886 2.112,0.92017 -0.835,0.79131 4.889,2.39808 5.399,1.26046 0.362,0.2688 1.507,12.31562 8.771,14.53249 0,0 -5.754,11.83842 -3.302,2.46151 -1.402,1.86451 -0.738,1.68832 0.195,2.18567 -0.983,2.56923 -1.118,1.65309 -2.58,2.4001 -3.392,5.06397 -2.542,2.11922 -0.441,3.32833 0.085,1.10843 -1.264,1.1769 -0.327,1.20609 0.112,2.1766 1.719,1.76081 3.071,-0.0644 4.692,10.09371 0.552,5.50795 0.514,0.91112 -0.132,2.19371 -2.231,1.96418 -2.587,1.94706 -0.795,1.22723 -0.503,2.4444 1.623,3.71895 2.512,2.58836 13.67,13.0133 3.542,4.7247 3.697,7.51541 0,0 -1.447,1.64604 -14.608,7.67449 0.068,13.73715 -18.539,0.36948 -1.867,0.64332 -0.498,0.97151 -3.391,4.24045 -5.446,4.90088 -1.846,3.2951 0.45,2.17459 -29.591,0.10571 -5.469,-11.11859 0,0 -23.48,-56.92689 -2.345,-9.33663 -0.782,-8.36411 -0.786,-13.23982 0,0 -4.518,-11.9995 -1.087,-1.56952 -1.068,-2.37292 0.109,-2.22292 0.469,-3.14509 -0.404,-2.43333 -0.763,-1.43663 -0.46,-2.01251 0.434,-1.55442 2.481,-3.99581 0.624,-1.36415 0.376,-2.55413 -0.404,-2.35983 0.065,-5.49285 0.845,-5.05592 9.063,-10.75012 -0.439,-0.49935 0.112,-1.13561 0.795,-1.29066 0.201,-4.25354 5.043,-6.2318 -0.134,-0.40472 0.85,-2.33365 -0.026,-3.60418 -1.526,-2.83099 -1.39,-1.61786 1.54,-9.26515 z" 
                fill="rgb(151, 144, 238)" 
                stroke="white" 
                stroke-width=".7px"
                title="West KurdufÄn" 
                id="SD-GK" 
            />
        </svg>