<svg xmlns="http://www.w3.org/2000/svg" viewBox="0 353.77828 60.635999999999996 123.72896999999995" width="60.635999999999996" height="123.72896999999995">
            <path 
                d="m 37.303,353.77828 2.072,0.54264 2.731,3.00919 -2.17,11.15785 -0.851,-0.62721 0.425,3.21155 3.053,3.23973 5.002,-3.09677 5.006,9.72826 -1.729,5.23109 3.51,3.19946 1.232,-1.29871 1.501,0.43995 0.806,1.24334 -1.231,3.07161 -0.122,2.6981 -0.635,2.42124 0.042,3.46827 0.632,1.47087 -0.168,1.57657 1.325,2.61354 1.029,1.89672 1.873,1.25139 -2.607,1.62792 -0.235,6.21067 0,0 -2.077,2.01653 -0.09,1.34502 -1.271,3.21557 -1.486,1.96317 -4.055,-0.23357 -0.708,2.14439 -3.157,3.34745 -0.119,0.43996 0.729,1.35207 0.397,0.31209 -3.466,3.70586 -0.052,1.2665 0.409,1.03997 -0.506,1.10844 -0.721,-0.29498 -0.518,0.30102 -1.023,1.33294 -0.439,0.16813 -7.961,7.453 -0.027,0.69063 0.889,2.42326 0.846,1.1779 0.194,1.47791 0.913,2.02156 -0.218,4.53543 0.922,1.13864 1.226,2.97999 0.052,0.48022 -0.445,0.77923 -0.672,0.51042 -0.606,1.52423 -0.48,0.39666 -0.436,1.58261 -1.306,1.11649 -0.292,0.58996 -0.065,0.82151 -2.736,1.83229 0,0 -0.388,-0.0242 -0.826,0.33324 -1.612,1.02286 -0.831,0.0473 -0.574,-0.29398 0.581,-0.13893 0.702,-2.11619 -0.089,-0.48828 0.243,-2.35379 -0.257,-1.40945 -0.365,-0.85272 -0.069,-0.70675 -0.403,-0.37451 -0.886,-1.81719 -0.054,-0.7007 -0.971,-3.00315 0.204,-0.7611 -0.078,-0.37351 -1.145,-1.35811 -0.641,-0.13994 -0.261,-0.41176 0.016,-0.33424 1.959,-2.82495 1.56,-4.81228 -0.299,-0.29498 -1.407,-0.29498 -2.332,-0.9685 -2.938,-1.47187 -3.655,-2.24305 -0.115,1.81014 -0.454,0.58291 -0.792,0.59298 -1.154,0.54163 -4.22,1.19905 -2.954,-0.0936 -0.791,0.16309 L 3.098,450.5404 1.969,449.62828 1.662,448.67992 1.074,448.244 0.752,447.63189 0.828,446.76608 0.153,445.46435 0,444.51901 l 0.358,-1.17488 0.208,-1.88867 1.032,-1.78296 0.814,-2.40715 0.517,-0.86279 0.58,-0.28592 0.216,-0.38659 0.089,-0.72889 -0.3,-0.46613 0.543,-0.35136 0.34,-0.53257 0.717,-0.19833 0.701,-0.78527 0.868,-0.47015 0.419,-1.41046 2.373,-0.28793 0.444,-0.70674 1.082,-0.0171 1.042,-0.30706 0.483,-1.04702 1.055,-0.9393 0.485,-1.25845 1.071,-1.09031 0.449,-0.16813 0.366,-0.76614 0.542,-0.39968 0.71,-1.04904 0.942,-0.91212 -0.057,-1.35005 -0.175,-0.36545 -0.772,-0.67956 -0.47,-0.0654 -0.309,-0.37351 -0.092,-0.80943 -0.704,-0.6413 -0.185,-0.8054 0.219,-0.71379 -0.21,-0.85473 0.212,-1.71249 -0.333,-0.72889 -0.716,-0.6403 -1.065,-0.60908 -0.38,-0.87588 -0.374,0.0322 -0.222,-0.22954 -0.442,-1.31986 -0.609,-0.62318 -0.169,-0.72184 0.537,-1.28965 -0.222,-0.27787 -0.004,-0.42485 -0.971,-0.84064 -0.38,-0.54666 0.058,-0.44599 2.33,-3.36558 2.461,-2.51185 0.908,-1.32086 2.444,-1.15374 1.485,-1.52322 1.237,-0.27283 1.399,-1.36717 1.564,-0.0473 2.965,-2.46051 1.332,-0.37954 1.631,-2.42225 0.113,-0.34935 -1.047,-1.03595 0.194,-0.87184 -1.688,-0.595 -1.533,0.49835 -1.943,-2.19775 -0.104,-0.77318 0.256,-0.41881 0.986,-0.48324 0.094,-0.21444 -0.261,-1.16884 -0.484,-0.36243 -0.098,-2.27426 0.344,-2.23902 -0.081,-0.42586 -1.531,-0.96447 -1.057,-0.0574 1.1,-3.75821 0.828,-0.0564 0.468,-0.33425 0.173,-0.002 0.196,0.34733 0.16,-0.4178 1.066,-0.7148 1.676,-0.45304 3.845,-0.66546 4.078,-1.52624 0.142,-0.20437 -0.382,-1.99337 -1.643,-4.65523 0.568,-1.09636 0.776,-0.67351 0.885,-0.27585 0.618,0.10268 0.663,-0.34129 0.094,-0.6121 -0.381,-0.83259 z" 
                fill="rgb(151, 144, 238)" 
                stroke="white" 
                stroke-width=".7px"
                title="West Darfur" 
                id="SD-DW" 
            />
        </svg>