<svg xmlns="http://www.w3.org/2000/svg" viewBox="396.3820000000003 342.5711 69.49699999999996 139.69119999999958" width="69.49699999999996" height="139.69119999999958">
            <path 
                d="m 434.282,342.5711 3.339,1.87256 1.075,-0.41277 0.343,0.32821 1.694,0.41981 0.174,0.50439 1.521,0.0312 0.535,0.67754 2.058,1.03897 0.35,1.70745 1.052,1.2957 0.25,0.75607 -0.091,0.894 -0.712,2.06183 -3.854,-2.89341 -0.224,0.95239 -1.644,1.92994 3.147,2.4887 -0.945,0.99366 1.944,1.23328 0.646,-0.31411 2.784,1.90679 0.985,-0.60606 0.649,0.36645 0.488,-0.42787 0.844,0.65339 0.117,0.65942 0.727,0.88796 -0.353,1.94102 -0.533,-0.15202 -0.27,-0.75507 -1.051,-1.23629 -1.082,0.31612 -0.056,0.23256 0.573,0.67553 -0.739,0.43089 -0.624,0.66245 -1.519,0.53056 0.352,1.97625 0.937,1.44973 0.324,-0.1188 1.206,1.81619 -0.547,0.89399 -0.781,-0.19027 -0.569,0.3131 -0.497,-0.55976 -2.68,0.149 -1.174,0.76111 -3.08,0.15 -0.735,1.32087 -4.149,-0.9675 -1.739,2.15848 0.344,0.38559 -0.301,0.81447 1.583,1.05809 1.041,-0.99266 0.745,0.57687 -1.059,1.16683 1.717,1.27052 1.721,-1.71248 1.753,0.96044 -1.286,1.26448 -0.522,2.22896 0.288,0.63727 -0.34,0.40774 -1.561,-0.45707 0.387,1.46885 1.207,0.39062 0.783,2.48266 -0.511,0.21544 -0.405,-1.04299 -2.623,0.0705 -1.701,2.21385 0.803,0.88494 0.814,-0.73795 2.379,0.70372 -0.426,2.26519 0.668,0.65439 -0.95,0.19733 -0.091,0.77318 0.96,2.06385 0.368,1.33193 -0.539,2.534 1.258,0.94132 0.74,-0.33223 0.749,1.38731 2.242,-0.16612 -0.2,1.97122 1.804,3.81459 0.12,1.25543 -0.905,1.6249 1.008,4.02802 1.806,0.0685 7.85,-0.3272 0,0 0.374,2.66085 -0.432,0.98461 0.976,1.5957 -0.592,3.45417 -1.275,3.80251 -0.37,2.15949 7.081,10.05546 3.65,4.11963 -5.067,9.82995 4.323,9.83397 2.745,9.69906 0,0 -21.68,-0.74298 0.245,0.70976 -0.204,2.08901 0.122,1.83632 0.884,3.08268 -0.149,1.63396 -0.653,1.12757 -0.367,1.04299 0.122,1.54336 -22.431,0.0252 0,0 -2.88,-3.32228 -7.849,-7.38253 -3.611,0.0554 -5.38,-16.07987 0,0 -1.621,-5.25626 -0.196,-1.15273 1.318,-2.85113 -0.215,-1.17186 2.605,-8.14967 4.134,-2.32862 3.539,-3.21255 3.133,-0.97756 2.608,-3.30618 -0.214,-0.84668 -1.618,-0.58996 -0.135,-0.30706 0.048,-2.10109 1.611,-5.05692 0.663,-0.36948 -0.211,-0.30807 -0.399,-0.15101 -0.021,-0.50137 -7.35,-6.46537 -3.567,-10.89106 -7.727,-5.70125 -1.988,-6.38986 -0.063,-5.53312 3.062,-7.8557 11.586,-10.44306 2.187,-8.13859 3.48,0.13792 0.226,-0.40874 0.892,-0.25672 -0.021,-0.31008 -1.284,-2.20681 0.111,-0.79734 0.566,-0.93427 12.73,-5.53916 0,0 2.868,0.10168 0.477,-1.38026 z" 
                fill="rgb(151, 144, 238)" 
                stroke="white" 
                stroke-width=".7px"
                title="White Nile" 
                id="SD-NW" 
            />
        </svg>