<svg xmlns="http://www.w3.org/2000/svg" viewBox="0.2585199999998822 93.34550000000006 199.88000000000014 120.89999999999999" width="199.88000000000014" height="120.89999999999999">
            <path 
                d="m 91.68852,202.3355 0,0 -1.88,0.19 0.36,-1.6 0.88,-1.7 1.21,-1.48 1.4,-0.83 1.5,-0.08 0.31,0.83 -0.14,1.42 0.16,1.73 -2.38,1.05 -1.42,0.47 z m 16.51,-16.2 0,0 1.08,1.68 -2.76,-0.8 -1.81,-0.18 -0.83,0.57 0.01,1.19 0.1,0.64 0.86,2.24 -3.61,-2.69 -0.98,-0.23 -2.59,-0.33 -0.86,-0.41 -0.99,-2.05 1.19,-1.2 4.23,-1.22 1.84,0.83 2.69,0.84 2.43,1.12 z m -12.58,-7.27 0,0 -1.28,0.62 -2.03,-0.61 0,0.99 3.62,2.59 -2.6,0.67 -4.51,2.38 -2.18,0.52 -1.53,-0.69 -1.84,-1.68 -1.58,-2.04 -0.8,-1.75 0.8,0 2.95,0.37 6.73,-4.78 2.79,0.74 1.55,1.4 -0.09,1.27 z m -51.48,-84.99 0,0 2.82,2.87 8.79,-1.11 7.41,0.4 2.09,0.8 1.4,1.16 1.44,2.86 4.85,0.23 6,1.93 10.75,4.95 0.24,0.11 5.61,2.21 2.34,1.17 2.34,0.67 3.99,0.62 3.55,0.44 0.7,-0.18 1.82,-0.28 1.02,0.12 5.35,1.17 0.21,0 1.76,7.72 -1.21,11.06 -0.97,3.87 0.48,2.76 1.28,1.5 -4.19,9.8 -0.64,3.22 2.1,1.2 4.03,-0.06 4.23,-1.17 2.14,-0.81 1.26,-0.42 1.23,0.79 1.44,1.92 2.15,3.77 1.98,2.12 0.48,4.05 2.68,4.05 6.22,1.6 12,0.12 3.43,1.11 2.15,4.05 3.77,3.07 6.77,0.24 2.09,-2.08 1.46,-2.22 1.94,-0.24 1.19,2.55 3.19,-0.59 2.88,-1.99 1.25,-2.18 1.84,-4.46 2.29,-3.15 5.74,-1.81 3.28,0.83 0.41,4.92 0.79,4.07 0.36,3.86 -0.35,3.95 -0.31,0.65 -0.21,0.3 -0.75,0.62 -6.51,8.24 -3.2,3.14 -0.52,0.92 -0.55,1.33 -3.32,13.07 -0.26,1.61 -0.55,1.5 -0.58,1.08 -2.6,0.7 -0.13,0.05 0,0 -0.9,-1.25 -1.85,-4.95 -0.81,-1.31 -0.79,2.03 -0.16,1.06 0.07,1.31 -1.36,-1.35 -0.02,-1.9 -0.24,-1.83 -1.99,-1.1 0,-0.97 1.09,0.63 1.02,0.29 0.85,-0.17 0.65,-0.75 0.88,0 0.45,0.38 0.28,0.15 1.04,0.44 -4.41,-8.12 -2.87,-3.58 -1.28,-2.03 -0.36,-2.44 -0.81,0 -0.74,1.47 -0.32,1.44 0.41,1.1 1.46,0.46 -0.8,1.14 -1.95,2.12 -0.87,1.21 -0.8,0 -2.33,-1.78 -10.14,-4.03 -1.13,-0.7 -5.4,-1.3 -1.83,-0.23 -1.38,-0.85 0.51,-1.94 2.16,-3.55 -1.57,0.49 -1.74,1.13 -1.41,1.56 -0.59,1.78 -0.81,0.39 -1.78,-1.13 -2.72,-2.35 -1.91,1.42 -4.2,-0.27 -4.25,-1.32 -2.1,-1.7 -0.81,0 -0.22,2.39 -3.26,7.21 -0.27,-0.24 -0.57,-0.29 -0.18,-0.05 0,0.89 -0.8,0 1.2,-3.05 -0.05,-0.96 -1.15,0.44 0.14,-1.08 0.21,-0.8 0.44,-0.52 0.9,-0.28 0,-0.98 -1.74,0.15 -2.23,1.31 -1.79,0.33 -1.12,-0.39 -1.65,-1.74 -1.29,-0.47 0,-0.89 0.67,-0.2 0.58,-0.49 0.6,-0.29 -1.5,-4.04 -0.13,-1.83 0.75,-1.28 0,-0.89 -0.76,-0.6 -0.15,-0.65 0.31,-0.71 0.6,-0.72 0.15,0.34 -0.03,0.36 0.13,0.24 0.63,-0.05 -0.63,-1.75 0.15,-1.34 1.05,-0.95 2.09,-0.51 -3.04,-0.1 -1.58,0.13 -0.7,0.46 -2.07,4.29 -0.13,0.74 -2.52,-0.23 -1.97,-0.85 -0.94,-1.69 0.56,-2.75 -2.13,0.92 -2.26,0.7 -2.29,0.14 -2.24,-0.78 0.24,0.86 0.27,1.85 0.29,0.86 -2.06,0.31 -3.7,1.92 -1.68,0.45 -2.43,-0.66 -1.86,-1.48 -0.27,-1.54 2.35,-0.87 0,-0.81 -1.1,-0.44 -0.59,-0.77 -0.19,-1.05 0.11,-1.32 -1.31,0.99 -0.21,1.62 -0.57,1.67 -2.41,1.09 0,0.89 0.54,0.73 0.52,0.9 0.43,0.98 0.27,0.97 -2.44,0.52 -0.9,-0.03 -1.08,-0.49 -3.31,0.61 -5.31,-1.43 -9.07,-3.65 -4.69,-0.98 -5.14,-0.01 -5.11,0.7 -9.16,2.85 -3.93,2.25 -3.03,3.2 -1.91,4.58 -0.35,5.39 0.91,5.5 3.06,8.85 0,0.81 -1.67,1.72 -0.79,2.17 -1.13,1.11 -2.68,-1.42 0,0 0.81,-2.99 0.64,-5.84 -6.82,-15 -0.6,-4.16 -0.88,-1.34 -2.27,-1.2 -1.18,-0.16 -1.56,0.62 -0.82,-0.05 -0.73,-0.57 -1.25,-1.85 -0.69,-0.74 -3.62,-2.14 -1.19,-1.28 0.14,-1.64 1.15,-0.93 5.89,-3.33 5.74,-5.49 3.72,-1.92 3.66,-1.13 3.38,-1.67 2.87,-3.54 1.22,-3.86 0.38,-4.6 -0.77,-9.14 -1.02,-3.98 -1.61,-3.38 -2.17,-3.07 -4.07,-4.56 -1.15,-1.73 -0.64,-1.85 0.16,-1.96 1.04,-1.13 3.86,-2.41 1.21,-1.41 0.02,-1.79 -1.03,-0.63 -0.61,-0.6 1.26,-1.68 1.51,-1.09 13.36,-5.49 3.88,-2.37 1.77,-2.92 0.73,0.53 z" 
                fill="rgb(151, 144, 238)" 
                stroke="white" 
                stroke-width=".7px"
                title="Chiriquí" 
                id="PA-4" 
            />
        </svg>