<svg xmlns="http://www.w3.org/2000/svg" viewBox="289.31852000000015 76.6554999999999 101.21999999999997 125.27000000000007" width="101.21999999999997" height="125.27000000000007">
            <path 
                d="m 378.01852,89.5455 0,0 0.56,3.54 -2.92,4.38 -0.79,2.17 -0.35,2.34 0.1,3.12 3.38,9.87 3.25,14.73 0.75,2.17 0.47,4.53 -0.17,1.16 -0.03,4.15 1.17,3.24 0.47,7.3 0.72,2.04 0.61,1.28 5.3,6.23 0,0 -5.19,3.43 -5.82,3.03 -9.03,4.67 -3.82,1.56 -6.19,0.82 -1.14,-0.15 -1.67,-0.59 -0.72,-0.08 -1.14,0.31 -2.26,1.1 -1.03,0.3 -3.53,-0.89 -1.71,-1.12 -0.79,-0.92 0.65,-0.64 -1.3,0.51 -0.06,0.58 0.19,0.7 -0.52,0.89 -2.36,1.54 -8.19,8.17 -1.03,2.39 0.43,12.55 -0.16,1.52 -0.31,0.45 -1.68,-0.49 -3,-2.01 -1.54,-0.77 -0.74,0.14 -1.47,1.13 -0.77,0.08 -1.17,-0.88 -2.44,-2.62 -1.8,-0.75 -2.39,0.16 -4.76,1.58 -2.11,0.16 -3.15,-1.12 -6.09,-4.05 -0.53,-2.24 3.39,-6.07 1.88,-6.57 0.52,-4.2 -3.18,-5.18 -5.01,-13.27 -3.04,-5.4 -2.64,-3.56 -2.8,-2.51 1.53,-1.38 4.09,-0.66 3.55,-4.33 1.54,-3.78 3.06,0.18 1.31,-2.11 1.39,-1.55 0.31,-1.34 -0.29,-1.48 -0.17,-1.59 0.16,-2.4 1.24,-2.8 1.01,-3.04 1.37,-1.84 1.98,-1.92 1.49,-0.68 1.26,-0.23 2.39,0.48 1.45,0.12 1.9,-0.05 2.17,-0.64 1.86,-0.91 1.63,-1.23 0.86,-1.96 0.41,-2 -0.26,-4.1 -0.42,-1.16 -0.45,-0.68 -0.26,-0.57 0.16,-1.29 1.45,-4.77 0.91,-1.03 1.07,-0.23 11.81,4.45 1.69,1.06 2.82,0.82 3.23,0.48 1.21,0.37 1.78,-0.62 2.09,-1.6 10.24,-9.8 1.78,-1.28 1.39,-0.68 0.97,-0.96 0.9,-1.66 0.68,-3.79 1.31,-2.65 1.82,3.37 0.12,1.44 0.88,4.53 0.81,1.39 0.88,0.82 0.99,0.65 1.6,0.69 z" 
                fill="rgb(151, 144, 238)" 
                stroke="white" 
                stroke-width=".7px"
                title="Coclé" 
                id="PA-2" 
            />
        </svg>