<svg xmlns="http://www.w3.org/2000/svg" viewBox="284.06852000000003 0.26550000000000207 231.66000000000008 133.25" width="231.66000000000008" height="133.25">
            <path 
                d="m 515.72852,9.1055 0,0 0,2.73 -0.06,11.03 -0.51,0.83 -1.04,0.29 -1.11,0.13 -0.87,0.25 -1.34,0.84 -1.07,1.05 -1.47,2.13 -0.44,1.28 -0.22,2.05 -0.24,0.84 -0.38,0.74 -0.78,0.77 -1.16,0.71 -2.49,0.85 -2.13,0.98 -3.58,2.25 -2.46,1.97 -0.54,-0.01 -0.45,-1.33 0.93,-1.18 0.15,-0.57 0.07,-0.75 -0.16,-0.91 -0.44,-0.9 -0.69,-0.7 -1.17,-0.44 -0.59,-0.45 0.02,-0.69 1,-1.37 0.22,-0.69 -0.6,-0.76 -1.33,-0.64 -3.01,-1.03 -2.28,0.03 -1.34,0.35 -1.36,1.09 -0.81,0.21 -3.1,-0.02 -1.21,0.25 -2.11,0.74 -0.9,0.13 -0.61,-0.26 -0.35,-0.92 0.2,-0.8 0.45,-0.67 0.7,-0.45 1.6,-0.7 0.6,-0.33 0.22,-0.38 -0.2,-0.56 -1.29,-1.67 -0.44,-0.74 -0.86,-1.13 -1.1,-0.87 -2.12,-0.84 -3.2,-0.85 -5.75,1.26 -4.84,1.99 -3.36,11.6 -0.28,1.36 0.09,0.95 0.36,0.51 -0.05,1.38 -0.57,2.05 -1.7,4.43 -0.64,2.75 -0.25,1.94 0.57,2.35 -0.16,0.92 -0.64,0.75 -1.82,0.8 -2.2,0.65 -2.27,1.07 -0.92,0.72 -0.75,0.48 -0.83,3.58 -3.65,4.52 -2.36,1.6 -2.18,0.78 -6.67,0.1 -2.85,-0.67 -1.46,-1.56 -2.47,-4.18 -1.36,-1.28 -1.42,-0.71 -3.62,-0.79 -4.05,-1.93 -2.16,0.44 -1.91,2.03 -5.45,12.03 0.7,2.27 1.08,2.03 0.45,1.53 0.04,2.01 -0.7,2.07 -0.69,1.44 -3.82,2.52 -4.77,1.52 -3.62,-0.28 -5.5,-2.02 -5.81,4.52 -1.6,-0.69 -0.99,-0.65 -0.88,-0.82 -0.81,-1.39 -0.88,-4.53 -0.12,-1.44 -1.82,-3.37 -1.31,2.65 -0.68,3.79 -0.9,1.66 -0.97,0.96 -1.39,0.68 -1.78,1.28 -10.24,9.8 -2.09,1.6 -1.78,0.62 -1.21,-0.37 -3.23,-0.48 -2.82,-0.82 -1.69,-1.06 -11.81,-4.45 -1.07,0.23 -0.91,1.03 -1.45,4.77 -0.16,1.29 0.26,0.57 0.45,0.68 0.42,1.16 0.26,4.1 -0.41,2 -0.86,1.96 -1.63,1.23 -1.86,0.91 -2.17,0.64 -1.9,0.05 -1.45,-0.12 -2.39,-0.48 -1.26,0.23 -1.49,0.68 -1.98,1.92 -1.37,1.84 -1.01,3.04 -1.24,2.8 -0.16,2.4 0.17,1.59 0.29,1.48 -0.31,1.34 -1.39,1.55 -1.31,2.11 -3.06,-0.18 2.01,-4.05 -0.24,-0.91 -0.28,-0.73 -0.7,-0.76 -0.62,-1.06 -0.5,-2.4 0.43,-1.57 0.74,-1.58 0.62,-2 -0.7,-1.89 -0.89,-1.47 -2.73,-3.11 -0.97,-0.6 -1.46,-0.63 -2.27,-0.75 -2.24,-1.05 -2.38,-1.57 -0.94,-0.82 -1.36,-1.56 -0.73,-1.49 -0.45,-1.25 -0.18,-2.69 -0.04,-0.36 -0.08,-1.07 2.3,0.07 2.91,-0.81 1.23,-1.57 1.12,-1.27 2.68,-3.52 1.43,-1.87 1.3,-0.8 0.44,-0.42 0.42,-0.92 0.68,-0.93 1.16,-0.42 1.92,-2.25 3.03,-1.43 4.71,-2.84 1.8,-0.73 2.09,-2.14 7.48,-3.81 9.4,-3.96 12.76,-4.12 14.99,-1.19 1.96,-0.67 4.24,-2.45 1.27,-0.55 4.54,-0.51 4.79,-1.28 4.31,-1.74 3.74,-2.12 4.61,-5.27 5.06,-4.48 3.28,-3.14 0.3,-1.48 2.54,-4.14 3.26,-1.33 0.82,0.08 0.48,1.22 -0.28,4.95 0.28,1.31 0.71,0.88 1.14,0.66 1.33,0.13 1.31,-0.69 0.97,-2.39 0.17,-2.65 0.72,-1.26 2.57,1.74 -0.28,-1.11 -0.32,-2.26 -0.28,-1.11 0.31,0.24 0.57,0.57 0.89,-0.81 -1.61,-2.28 1.2,-1.26 1.48,0.68 2.44,-0.22 2.89,1.27 2.36,3.97 0.96,1.51 -0.52,-2.88 -0.67,-2.02 -0.07,-1.83 1.26,-2.32 1.92,-1.75 3.87,-1.44 2.17,-1.38 0.28,-0.38 0.36,-0.98 0.24,-0.44 0.45,-0.33 0.86,-1.39 1.19,-0.74 1.92,-1.36 0.82,-3.37 0.9,-3.17 2.29,-0.89 1.04,-0.96 -0.62,-0.69 -1.46,0.54 -1.14,0.32 -0.73,-0.81 0.83,-0.55 0.76,-0.54 0.7,-1.38 1.87,-0.82 1.45,-1.17 1.1,-1.31 2.35,-0.68 2.07,0.28 2.55,-0.82 3.32,-1.52 2.34,0.66 0.63,1.56 0.7,1.26 0.02,0.99 -1.35,0.76 0,0.81 1.27,0.57 0.03,0.3 0.47,1.01 0.63,-0.45 0.47,-0.27 0.37,-0.37 0.37,-0.79 0.89,0 0.79,0.61 1.06,0.49 2.58,0.78 0.06,-1.14 0.9,-2.45 0.69,1.18 0.86,0.47 0.95,-0.12 0.96,-0.63 4.92,1.18 7.23,0.81 8.2,2.28 4.28,1.51 5.96,0.78 2.42,-1.29 2.43,-0.73 2.98,0.21 2.23,0.19 2.24,-0.54 2.42,-0.73 0.72,-0.06 z" 
                fill="rgb(151, 144, 238)" 
                stroke="white" 
                stroke-width=".7px"
                title="Colón" 
                id="PA-3" 
            />
        </svg>