<svg xmlns="http://www.w3.org/2000/svg" viewBox="595.5485199999994 73.27550000000019 167.80000000000052 240.58999999999975" width="167.80000000000052" height="240.58999999999975">
            <path 
                d="m 694.47852,110.9455 0,0 0.3,1.79 -1.19,0.09 -2.72,-0.64 -3.17,0.42 -2.86,1.45 -1.17,1.7 -1.53,1.21 -2.09,0.36 -2.02,0.59 -1.81,2.2 -1.49,2.79 -3.91,5.52 -2.54,1.45 -1.49,2.61 0.42,2.7 0.89,2.26 1.64,2.02 1.76,1.64 0.35,2.43 -0.84,1.52 0.03,0.33 0,0.22 0.31,0.5 1.62,1.61 1.25,0.48 1.44,0.42 0.4,0.85 -0.4,0.64 -0.01,0.72 3.24,3.4 0.62,1.27 0.19,1.45 -0.45,1.4 -0.44,0.91 -0.16,1 -0.04,1.1 2.24,3.47 0.36,1.77 0.52,1.7 0.82,1.08 1.23,1.15 0.77,0.9 0.93,1.41 0.21,0.45 -0.04,0.72 0.83,1.17 1.31,0.65 0.78,0.11 0.68,0.32 0.05,0.97 -0.13,1.04 0.54,1.82 1.4,0.95 3.79,0.93 3.64,1.75 4.92,4.04 2.36,5.58 -0.5,2.13 1.27,2.01 2.63,0.81 1.19,1.13 2.5,3.37 1.81,0.42 2.41,-1.44 2.73,-0.44 0.8,0.26 0.83,0.15 3,-0.5 1.39,-0.57 0.94,-1.17 0.8,-1.18 1.78,-1.13 2.69,-0.73 2.74,-0.46 14.69,-4.03 0.08,-0.02 1.2,1.79 3.77,7.23 2.78,10.21 0.24,3.16 0.85,1.91 1.25,1.19 1.38,1.01 1.27,1.34 1.01,2.05 -0.74,0.55 -4.8,-0.06 -3.9,0.82 -4.35,1.45 -3.98,2.1 -2.74,2.76 -3.32,7.48 -3.81,4.86 -0.42,1.6 1.73,3.83 2.66,2.53 0.81,2.42 -3.81,3.46 -18.17,11.33 -5.9,5.96 -3.25,2.63 -2.94,0.3 -1.38,-1.49 -1.57,-6.53 -0.98,-1.73 -3.59,-4.88 -0.34,-0.25 -1.1,-0.27 -0.38,-0.35 0,-0.49 0.54,-1.16 0.05,-0.35 -1.26,-1.44 -6.47,-5.54 -1.34,-0.72 -3.11,1.72 -0.81,4.8 0.61,5.56 1.16,4.04 2.93,5.72 0.39,2.8 -1.17,3.37 -1.93,2.41 -2.48,1.49 -2.85,0.45 -3.1,-0.69 -4.51,14.53 -5.29,17.01 -0.09,-0.02 -2.89,-0.83 -3.73,-3.4 -5.55,-6.96 -2.07,-1.5 -1.03,-1.12 -0.44,-1.47 0.29,-1.37 0.52,-1.36 0.23,-1.35 -0.6,-1.31 -0.74,-0.57 -0.36,0.25 -0.26,0.52 -0.4,0.28 -1.02,-0.41 -0.3,-0.84 0.27,-0.68 0.6,0.07 -1.55,-2.38 -0.85,-0.47 -1.22,1.06 -0.8,0 -3.13,-3.58 -2.06,-1.86 -1.53,-0.8 -0.42,-0.57 -0.32,-1.25 -0.62,-1.27 -1.28,-0.56 -0.82,-0.57 -0.64,-1.31 -0.84,-2.59 -0.8,0 -0.56,1.97 -0.29,-1.28 -0.12,-4.58 -0.65,-2.35 -1.37,-0.52 -1.25,1.04 -0.27,2.32 -0.71,-1.72 0.22,-1.21 0.48,-1.15 0.01,-1.43 -0.49,-1.38 -0.53,-0.75 -1.55,-1.36 -2.76,-3.57 -1.9,-1.45 -2.5,-0.34 0.31,-1.44 -0.56,-1.08 -1.11,-0.73 -1.29,-0.4 1.24,-2.5 0.65,-1.8 -0.08,-1.7 -0.92,-2.19 -3.9,-5.98 -0.61,-1.49 -1.21,-4.18 -2.82,-3.53 -3.21,-3.14 -2.41,-3.04 -1.69,-4.03 -1.04,-4.17 -0.05,-1.57 0.3,-1.51 -0.25,-1.3 -2.33,-4.21 -0.33,-1.64 0.69,-2.46 1.52,-2.39 1.53,-0.89 1.49,4.23 1.87,0.82 2.09,-0.31 1.51,-1.27 3.68,1.93 5.01,-2.59 4.44,-4.81 1.91,-4.77 -0.25,-2.68 -0.69,-1.64 -1.11,-1.16 -1.49,-1.26 -3.79,-4.42 -1.52,-0.95 0,-0.97 3.52,0.38 1.1,-0.19 1.65,-0.99 0,-0.99 -0.75,-0.37 -0.38,-0.38 -0.27,-0.45 -0.45,-0.58 1.04,-0.42 0.3,-0.05 0.51,-1.32 1.09,0.73 1.49,1.4 0.88,0.55 1.14,0.31 0.99,-0.03 1.88,-0.28 0.21,-0.52 1.59,-2.2 0.38,-0.37 -0.19,-3.59 0.19,-1.36 0.37,-0.24 2.37,-2.45 0.55,-1.21 0.23,-1.16 0.02,-2.59 0.55,-0.7 1.22,-0.6 1.22,-0.17 0.55,0.58 0.64,4.77 0.32,1.08 1.28,1.09 2.13,1.16 2.32,0.95 1.83,0.38 1.49,0.84 1.1,1.98 2.28,6.24 1.27,1.73 1.63,1.25 1.96,0.47 0.61,-0.26 1.38,-0.41 1.39,0.06 1.01,1.87 0.89,0.7 1.15,0.52 1.13,0.2 1.77,0 0,-0.81 -1.99,-0.43 -1.81,-1.07 -1.45,-1.45 -0.86,-1.6 6.47,1.25 3.45,1.26 2.2,2.51 3.1,1.69 0.7,0.93 0.12,1.94 0.41,1.38 0.82,0.96 1.3,0.67 1.4,-0.8 1.44,0.8 1.13,1.79 0.46,2.24 0.89,1.45 2.01,0.51 2.1,-0.58 1.19,-1.83 -3.61,0.03 -4.76,-5.8 -2.25,0.41 -6.66,-8.45 -1.31,-0.98 -1.9,-1.08 -11.52,-2.09 -2.8,-1.11 -2.24,-1.89 -1.49,-2.51 -0.55,-2.98 -2.82,-5.7 -0.82,-3.51 1.96,-1.96 -1.4,-0.92 -1.56,-1.29 -1.45,-1.55 -1.06,-1.69 -0.57,-2.16 0.38,-1.23 0.73,-0.88 0.43,-1.09 -0.19,-1.65 -0.74,-0.41 -1.17,-0.28 -1.44,-1.25 -0.64,-1.46 -0.13,-1.25 -0.41,-1.02 -1.47,-0.74 0.53,1.21 0.1,3.3 0.66,1.26 1.72,1.13 0.65,0.13 0.05,0.4 -0.09,4.31 0.22,1.14 1.79,4.26 0.18,1.37 -0.59,1.25 -0.8,0 -2.45,-4.15 -1.58,-2.03 -1.28,-1.06 -2.02,-0.01 -1.72,1.12 -1.2,2.04 -0.45,2.75 -0.77,2.01 -1.93,1.55 -2.44,1 -2.33,0.36 -1.11,-0.44 -0.48,-1.03 -0.03,-1.18 0.25,-0.93 0.75,-0.89 3.75,-1.87 0.5,0.43 0.35,0.22 0.92,0.32 0.16,-4.3 -0.67,-3.98 -2.15,-7.08 -0.96,0 -0.91,1.87 0.63,1.2 1.24,1.02 0.89,1.36 -0.19,2.32 -1,1.86 -0.63,1.55 0.93,1.42 0,0.97 -0.4,0.29 -0.45,0.21 -0.99,0.32 -0.57,-1.06 -0.78,-0.59 -0.74,-0.43 -0.49,-0.53 -0.42,-1.15 0.22,-0.13 0.51,0.04 0.5,-0.63 1.39,-2.51 -0.15,-1.24 -2.05,-0.71 0.62,1.63 -0.28,0.77 -0.69,0.45 -0.61,0.72 -1.77,3.58 -2.08,0.31 -1.14,-1.45 -1.21,-4.22 -0.96,0.97 -0.13,1.69 -1.78,2.62 -2.36,2.27 -1.85,0.57 -1.19,-2.2 -1.35,-7.75 -0.99,-2.65 0.49,-0.89 0.31,-0.9 -0.8,0 0,0.89 -0.96,0 0,-2.68 -0.81,0 -0.49,3.22 2.36,6.5 1.25,6.27 2.43,2.01 0.57,2.16 -3.55,7.65 -0.51,-1.13 -0.93,-0.58 -1.08,-0.42 -0.24,-0.13 -0.46,-5.84 -2.12,-7.6 -0.36,-2.89 -1.67,-4.01 -0.5,-3.31 0.15,-1.67 -0.44,-0.97 -0.46,-0.38 -0.46,-0.5 0.08,-1.07 0.74,-3.87 0.52,-5.32 0.39,-1.95 0.46,-1.5 0.77,-1.49 0.5,-1.41 0.46,-2.02 -0.08,-1.56 -0.59,-3.13 -0.46,-1.3 -1.49,-7.56 -0.36,-1.8 0.67,-0.74 0.93,-0.61 5.93,-2.03 1.82,0.09 2.16,0.4 3.13,1.14 0.84,0.74 1.3,2.01 1.64,0.7 1.22,-0.32 1.2,-0.9 0.59,-1.12 0.14,-1.1 0.48,-1.26 1.26,-1.32 3.71,-1.75 2.69,-0.57 2.18,-0.07 2.48,0.2 1.41,-0.34 1.03,-0.76 1.69,-2.88 2.18,-1.91 2.26,-1.03 3.23,-0.75 1.39,-0.86 0.64,-1.23 -0.32,-1.96 -0.06,-2.36 0.29,-3.2 0.59,-2.45 0.88,-1.94 2.63,-3.51 0.73,-1.57 3.53,0 9.49,6.9 3.91,3.11 7.16,7.31 1.32,2.23 0.79,1.69 0.86,1.44 1.3,0.92 2.2,1 3.56,2.52 1.95,0.97 1.57,1.18 5.14,4.75 1.46,1.78 0.81,1.87 z m -68.78,104.98 0,0 -4.11,-1.52 -2.67,1.74 -2.3,2.22 -2.27,0.17 -2.07,0.62 -0.67,1.91 0.63,1.18 -0.37,2.64 0.18,3.02 0.5,1.71 0.78,1.55 1.34,0.77 0.9,0.31 2.5,5.26 1.96,6.19 3.17,5.38 6.22,6.94 2.26,1.64 5.34,-1.57 2.22,1.24 1.97,1.48 2.07,0.58 1.14,0.95 1.14,5.66 3.12,1.52 1.32,-2.29 2.5,-1.35 1.85,1.56 1.78,2.03 2.91,-1.48 2.42,-2.25 0.64,-4.29 -1.44,-11.44 0.48,-1.26 0.48,-1.73 -0.59,-2.25 -1.12,-1.98 -1.21,-0.47 -1.29,-0.79 -0.56,-4.14 -4,-12.52 -2.44,-2.55 -3.14,2.56 -3.09,1.77 -1.14,-7.18 -1.28,-0.73 -1.27,-1.11 -0.86,-3.85 -1.19,-1.7 -1.26,-1.4 -3.91,-5.51 -2.09,-1.52 -2.16,1.69 -3.28,1.48 -0.3,2.5 1.94,1.01 0.33,1.12 -0.21,1.23 0.78,1.53 0.5,1.52 -3.08,2.2 z" 
                fill="rgb(151, 144, 238)" 
                stroke="white" 
                stroke-width=".7px"
                title="Darién" 
                id="PA-5" 
            />
        </svg>