<svg xmlns="http://www.w3.org/2000/svg" viewBox="611.60852 112.18549999999988 137.99000000000012 155.3300000000002" width="137.99000000000012" height="155.3300000000002">
            <path 
                d="m 640.48852,215.6255 0,0 1.27,1.11 1.28,0.73 1.14,7.18 3.09,-1.77 3.14,-2.56 2.44,2.55 4,12.52 0.56,4.14 1.29,0.79 1.21,0.47 1.12,1.98 0.59,2.25 -0.48,1.73 -0.48,1.26 1.44,11.44 -0.64,4.29 -2.42,2.25 -2.91,1.48 -1.78,-2.03 -1.85,-1.56 -2.5,1.35 -1.32,2.29 -3.12,-1.52 -1.14,-5.66 -1.14,-0.95 -2.07,-0.58 -1.97,-1.48 -2.22,-1.24 -5.34,1.57 -2.26,-1.64 -6.22,-6.94 -3.17,-5.38 -1.96,-6.19 -2.5,-5.26 -0.9,-0.31 -1.34,-0.77 -0.78,-1.55 -0.5,-1.71 -0.18,-3.02 0.37,-2.64 -0.63,-1.18 0.67,-1.91 2.07,-0.62 2.27,-0.17 2.3,-2.22 2.67,-1.74 4.11,1.52 3.08,-2.2 -0.5,-1.52 -0.78,-1.53 0.21,-1.23 -0.33,-1.12 -1.94,-1.01 0.3,-2.5 3.28,-1.48 2.16,-1.69 2.09,1.52 3.91,5.51 1.26,1.4 1.19,1.7 0.86,3.85 z m 50.38,-103.44 0,0 2.72,0.64 1.19,-0.09 0.12,0.73 0.71,1.17 0.95,1.2 3.26,2.39 3.56,3.13 2.12,2.94 3.97,3.85 1.34,1.95 1.28,4.39 1.64,2.14 4.9,2.14 1.63,0.48 3.38,4.17 0.05,0.06 -1.42,1.52 -1.08,3.89 0,3 1.17,0.76 3.89,-0.37 2.19,0.73 1.35,1.14 2.14,3.66 1.88,4.57 1.07,8.98 1.12,4.67 1.45,2.25 1.64,0.62 1.73,0.1 1.66,0.71 0.97,1.35 2.81,5.94 3.34,4.95 -0.08,0.02 -14.69,4.03 -2.74,0.46 -2.69,0.73 -1.78,1.13 -0.8,1.18 -0.94,1.17 -1.39,0.57 -3,0.5 -0.83,-0.15 -0.8,-0.26 -2.73,0.44 -2.41,1.44 -1.81,-0.42 -2.5,-3.37 -1.19,-1.13 -2.63,-0.81 -1.27,-2.01 0.5,-2.13 -2.36,-5.58 -4.92,-4.04 -3.64,-1.75 -3.79,-0.93 -1.4,-0.95 -0.54,-1.82 0.13,-1.04 -0.05,-0.97 -0.68,-0.32 -0.78,-0.11 -1.31,-0.65 -0.83,-1.17 0.04,-0.72 -0.21,-0.45 -0.93,-1.41 -0.77,-0.9 -1.23,-1.15 -0.82,-1.08 -0.52,-1.7 -0.36,-1.77 -2.24,-3.47 0.04,-1.1 0.16,-1 0.44,-0.91 0.45,-1.4 -0.19,-1.45 -0.62,-1.27 -3.24,-3.4 0.01,-0.72 0.4,-0.64 -0.4,-0.85 -1.44,-0.42 -1.25,-0.48 -1.62,-1.61 -0.31,-0.5 0,-0.22 -0.03,-0.33 0.84,-1.52 -0.35,-2.43 -1.76,-1.64 -1.64,-2.02 -0.89,-2.26 -0.42,-2.7 1.49,-2.61 2.54,-1.45 3.91,-5.52 1.49,-2.79 1.81,-2.2 2.02,-0.59 2.09,-0.36 1.53,-1.21 1.17,-1.7 2.86,-1.45 3.17,-0.42 z" 
                fill="rgb(151, 144, 238)" 
                stroke="white" 
                stroke-width=".7px"
                title="Emberá" 
                id="PA-EM" 
            />
        </svg>