<svg xmlns="http://www.w3.org/2000/svg" viewBox="273.1385200000001 195.7555000000001 74.04000000000008 79.63999999999993" width="74.04000000000008" height="79.63999999999993">
            <path 
                d="m 324.63852,200.0055 0,0 0.77,-0.08 1.47,-1.13 0.74,-0.14 1.54,0.77 3,2.01 1.68,0.49 0,0.01 -0.77,1.15 2.1,1.01 0.94,2.5 0.63,2.56 1.16,1.16 1.91,0.4 4.94,2.17 1.51,1.09 0.92,0.28 0,0 -0.84,1.8 -0.87,1.07 -0.57,2.4 -1.47,1.97 -1.33,1.03 -1.66,0.36 -4.08,-0.18 -4.2,1.2 -1.65,1.6 -3.93,7.24 -1.52,1.9 -1.87,1.54 -1.7,1.06 -0.64,0.81 -0.16,0.51 0.59,0.79 0.12,2.04 -0.04,0.94 0.2,1.18 0.35,0.97 1.68,2.24 0.43,1.02 0.15,0.99 0.03,1.5 -0.51,1.73 -1.36,2.36 -1.63,1.55 -1.07,0.84 -0.92,0.37 -1.66,0.19 -0.76,0.67 -6.56,10.45 -7.14,7 -3.38,-3.42 -0.79,-0.45 -2.65,-0.58 -3.85,-2.29 -10,-14.92 -0.74,-1.74 -0.87,-3.77 -0.77,-2.06 -0.93,-1.32 -0.61,-0.57 -1.3,-0.54 -3.01,0.78 -0.55,-2.95 0.46,-14.79 0.74,-1.25 0.62,-0.57 3.31,-0.85 2.73,-2.94 3.7,-3.3 1.01,-1.47 1.4,-2.56 0.15,-2.03 -2.02,-5.76 4.74,-1.79 4.67,-1.88 2.11,-1.91 2.93,-3.56 1.25,-0.47 1.77,0.05 1.17,0.3 2.94,-0.25 3.15,1.12 2.11,-0.16 4.76,-1.58 2.39,-0.16 1.8,0.75 2.44,2.62 1.17,0.88 z" 
                fill="rgb(151, 144, 238)" 
                stroke="white" 
                stroke-width=".7px"
                title="Herrera" 
                id="PA-6" 
            />
        </svg>