<svg xmlns="http://www.w3.org/2000/svg" viewBox="488.97851999999995 7.625500000000127 247.12999999999982 135.84999999999994" width="247.12999999999982" height="135.84999999999994">
            <path 
                d="m 548.86852,7.9755 0,0 -0.65,0.54 -0.65,-0.08 -0.04,-0.17 1.04,-0.44 0.3,0.15 z m -17.96,2.18 0,0 -2.22,1.22 -1.6,-0.31 -1.3,0.98 -1.41,0.11 -3.95,0.48 -2.15,0.42 -1.42,2.4 0.35,3.08 0.66,4.25 2.27,0.74 2.1,-0.48 1.35,0.62 1.66,-0.3 1.67,-0.24 1.41,-0.24 1.42,0.32 1.78,0.01 2.27,0.93 1.35,0.44 1.16,0.97 0.99,0.79 0.61,1.03 0.99,-0.19 1.66,-0.12 1.04,0.07 1.29,0.31 1.6,-0.17 0.69,-1.23 1.41,-0.3 2.4,0.56 3.68,-0.72 1.07,-1.22 2.21,0.44 1.48,-0.24 1.44,-0.54 1.73,-0.86 1.34,1.73 2.1,1 1.66,-0.17 4.31,1.18 2.89,-0.29 1.72,1.3 2.09,0.32 1.85,-0.79 1.49,-1.24 2.17,-0.81 1.93,0.48 2.5,1.69 1.86,0.72 4.26,0 2.13,1.5 1.41,-0.56 1.93,0.59 1.35,1.38 1.47,1.26 3.52,1.63 1.35,0.8 1.83,0.6 3.35,0.68 2.7,1.49 1.92,1.49 2.02,0.92 1.25,0.58 1.24,0.13 1.69,0.46 1.68,1.03 2.03,1.15 2.35,1.37 2.03,0.36 2.04,-0.32 1.24,0.47 1.57,0.92 1.69,0.23 2.36,1.49 1.26,1.65 3.34,0.76 4.17,0.6 2.48,0.93 1.59,1.3 0.49,1.69 2.79,2.99 1.69,0.25 2.28,1.09 4.3,4.95 2.19,3.45 1.75,2.26 1.93,2.9 4.46,3.01 -0.66,-1.81 -0.57,-1.6 -1.46,-3.05 -0.15,-2.01 2.27,1.11 1.66,3 1.05,1.45 3.54,2.42 0.48,2.98 1.29,1.45 1.61,0.97 1.95,1.69 0.45,1.53 1.13,1.42 1.42,1.17 0.41,1.18 -1.27,2.35 2.52,2.91 1.81,4.09 1.36,1.44 1.2,-1.04 0.56,0.24 0.15,1.85 2.49,1.53 2.65,2.42 2.91,3.37 2.47,1.14 -0.66,-1.07 -0.86,-0.81 -0.73,-0.89 -0.32,-1.3 0.66,-0.61 1.44,1.22 1.37,1.7 0.46,0.87 3.86,2.99 -0.49,2.32 2.4,2.01 0.74,-2.23 1.28,0.24 1.12,2.25 -0.42,2.15 -0.26,2 -0.57,1.51 1.63,1.49 4.07,2.8 3.08,1.56 4.24,0.73 4.02,-0.31 2.41,-1.53 0.51,0.64 0.63,0.52 0.75,0.38 0.84,0.25 -0.18,1.81 -1.35,0.96 -2.1,0.21 -2.09,0.46 -2.11,1.34 -0.14,1 0.62,1.33 0.15,2.34 -1.56,3.27 -3.66,3.91 -0.05,-0.06 -3.38,-4.17 -1.63,-0.48 -4.9,-2.14 -1.64,-2.14 -1.28,-4.39 -1.34,-1.95 -3.97,-3.85 -2.12,-2.94 -3.56,-3.13 -3.26,-2.39 -0.95,-1.2 -0.71,-1.17 -0.12,-0.73 -0.3,-1.79 -0.81,-1.87 -1.46,-1.78 -5.14,-4.75 -1.57,-1.18 -1.95,-0.97 -3.56,-2.52 -2.2,-1 -1.3,-0.92 -0.86,-1.44 -0.79,-1.69 -1.32,-2.23 -7.16,-7.31 -3.91,-3.11 -9.49,-6.9 -3.53,0 -2.91,-4.53 -0.95,-0.66 -1.42,-0.77 -8.94,-2.14 -0.84,-0.65 -0.26,-0.71 1.34,-2.08 0.6,-1.52 -0.65,-2.82 -1.01,-1.15 -0.9,-0.34 -0.51,0.45 -0.23,0.6 -0.35,0.65 -0.57,0.34 -1.07,0.09 -2.91,-0.43 -3.3,-0.05 -2.9,0.29 -1,-0.68 -0.78,-1.16 -1.26,-3.5 -0.57,-2.24 -0.55,-0.93 -0.84,-0.21 -4.61,2.27 -1.02,0.33 -1.02,-0.07 -2.48,-0.49 -3.73,0.15 -1.8,-0.39 -0.72,-0.56 -0.33,-0.91 0.14,-0.94 -0.1,-1 -0.41,-1.23 -0.65,-1.12 -0.73,-0.59 -0.96,-0.35 -0.51,-0.49 -0.46,-0.8 -0.48,-1.02 -1.13,-1.07 -0.96,-0.09 -0.9,0.5 -0.97,0.78 -0.89,0.34 -0.57,-0.38 -0.56,-2.27 -0.66,-1.19 -1.64,-1.54 -1.16,-0.2 -0.85,0.43 -1.14,1.7 -0.63,0.48 -6.8,1.6 -2.01,0.18 -2.29,-0.48 -1.82,-1.15 -4.57,-3.53 -2.83,-1.8 -1.4,-0.44 -0.67,0.38 -0.28,2.29 -0.52,0.89 -0.93,0.33 -1.75,-0.82 -2.21,-2.34 -0.86,-0.39 -0.67,0.01 -0.93,0.11 -0.5,0.32 -0.76,0.63 -1.09,0.62 -1.69,0.26 -4.02,-0.57 -2.21,0.02 -1.86,0.2 -0.9,0.48 -1.61,1.48 -1.21,0.42 -1.98,0.02 -1.42,-0.55 -0.83,-0.14 -0.57,0.24 -0.1,0.56 0.04,0.9 -0.23,0.73 -0.81,0.42 -1.36,-0.45 -1.1,-0.11 -1.05,0.16 -3.15,1.38 -0.75,0.59 -0.36,0.83 0.19,0.84 0.45,0.76 0.33,0.76 0,0.55 -0.53,0.49 -1.16,0.38 -5.91,0.16 -1.95,-0.13 -0.83,-0.64 -0.88,-0.99 -1.11,-1.02 -2.82,-1.15 -1.72,-0.37 -1.9,-0.13 -1.74,0.03 -1.79,0.27 -8.89,2.81 -4.26,0.9 -1.04,-0.91 -0.12,-0.86 0.26,-1.36 0.84,-1.43 0.83,-0.96 2.48,-1.2 0.45,1.33 0.54,0.01 2.46,-1.97 3.58,-2.25 2.13,-0.98 2.49,-0.85 1.16,-0.71 0.78,-0.77 0.38,-0.74 0.24,-0.84 0.22,-2.05 0.44,-1.28 1.47,-2.13 1.07,-1.05 1.34,-0.84 0.87,-0.25 1.11,-0.13 1.04,-0.29 0.51,-0.83 0.06,-11.03 0,-2.73 3.38,-0.29 4.61,-0.78 5.48,-0.41 1.72,1.05 -0.01,1.48 z" 
                fill="rgb(151, 144, 238)" 
                stroke="white" 
                stroke-width=".7px"
                title="Kuna Yala" 
                id="PA-KY" 
            />
        </svg>