<svg xmlns="http://www.w3.org/2000/svg" viewBox="302.27851999999996 214.25549999999998 94.39000000000004 99.40000000000003" width="94.39000000000004" height="99.40000000000003">
            <path 
                d="m 317.56852,313.6555 0,0 -0.35,-4.58 -0.85,-1.83 -1.32,-1.49 -2.69,-2.01 -1.18,-0.7 -1.9,-0.63 -0.09,-0.59 0.28,-1.37 -0.07,-1.92 -0.82,-3.06 -3.34,-4.54 -2.05,-6.3 -0.91,-5.6 0.31,-3.64 7.14,-7 6.56,-10.45 0.76,-0.67 1.66,-0.19 0.92,-0.37 1.07,-0.84 1.63,-1.55 1.36,-2.36 0.51,-1.73 -0.03,-1.5 -0.15,-0.99 -0.43,-1.02 -1.68,-2.24 -0.35,-0.97 -0.2,-1.18 0.04,-0.94 -0.12,-2.04 -0.59,-0.79 0.16,-0.51 0.64,-0.81 1.7,-1.06 1.87,-1.54 1.52,-1.9 3.93,-7.24 1.65,-1.6 4.2,-1.2 4.08,0.18 1.66,-0.36 1.33,-1.03 1.47,-1.97 0.57,-2.4 0.87,-1.07 0.84,-1.8 0,0 3.45,1.03 2.74,4.71 1.86,5.48 1.73,3.67 12.38,9.91 7.86,7.17 11.84,15.12 6.04,11.09 1.59,3.85 -0.15,2.53 -1.99,4.99 -1.01,1.1 -1.58,0.38 -3.47,0.18 -1.06,0.2 -9.14,3.45 -8.16,-0.01 -1.58,0.9 -1.57,-0.73 -3.48,-0.82 -1.21,-1.12 -0.89,0 -1.15,0.57 -4.16,1.21 0,0.89 1.67,-0.19 1.35,-0.34 1.17,-0.5 1.12,-0.67 0.89,0.81 -9.32,3.06 -3.45,2.5 -0.5,3.44 2.21,3.7 -0.41,1.19 -3.21,0.46 -0.9,0.26 -1.01,0.62 -0.84,0.73 -0.35,0.62 -0.33,1.44 -0.85,0.51 -1.17,0.32 -1.27,0.86 -0.56,1.08 0.05,0.91 -0.12,0.8 -1.06,0.77 -0.98,0.08 -2.45,-0.76 -1.39,-0.22 -15.85,2 -0.94,0.17 0,0 z" 
                fill="rgb(151, 144, 238)" 
                stroke="white" 
                stroke-width=".7px"
                title="Los Santos" 
                id="PA-7" 
            />
        </svg>