<svg xmlns="http://www.w3.org/2000/svg" viewBox="79.75851999999999 59.33549999999993 166.29000000000002 120.2400000000001" width="166.29000000000002" height="120.2400000000001">
            <path 
                d="m 193.00852,69.0455 0,0 0.72,0.2 0.28,-0.28 0.6,0.04 0.77,0.4 0.68,0.49 0.52,0.52 0.16,0.48 0.36,0.36 -0.08,0.36 -0.56,0 -0.64,-0.32 -1.09,-0.16 -1.32,-0.16 -0.6,0 -0.6,0.16 -0.17,-0.84 -0.28,-0.61 -0.28,-0.52 0.24,-0.4 0.93,-0.08 0.36,0.36 z m -35.81,-4.31 0,0 3,2.27 0.54,0.59 -0.19,1.12 -1.06,0.34 -1.32,-0.2 -0.97,-0.45 0,0.89 1.06,1.29 1.02,1.11 0.64,1.93 0.96,0.37 1.71,0 3.04,0.37 1.92,0.16 3.25,3.52 2.04,0.64 1.91,4.31 0.63,0.64 1.82,1.33 7.77,11.15 5.21,5.61 2.57,1.69 0.76,1.19 1.41,1.52 1.51,1.3 1.14,0.54 1.14,0.26 2.36,0.77 1.56,-0.01 2.3,-0.73 6.73,1.33 1.57,-0.48 3.61,0 3.05,1.96 6.94,0.43 4.95,-0.97 6.49,-0.32 0.03,0.45 0,0.7 -0.89,3.3 1.49,9.69 -0.42,7.94 0.51,4.84 0.78,2.75 1.12,1.7 0.98,1.08 0.59,1.1 0.46,1.2 1.12,2.04 2.01,2.02 -3.57,0.8 -1.09,0 -1.45,-0.36 -2.84,-1.15 -5.23,-1.39 -2.18,-1.4 -5.98,-4.69 -1.16,-0.28 -3.37,0.69 -6.1,-0.47 -0.6,-1.25 -0.78,-0.5 -1.44,-0.63 -3.99,-0.96 -3.3,-1.7 -0.22,5.38 -1.17,5.22 -3,7.28 -0.42,2.18 -0.12,1.92 0.54,6.53 -3.28,-0.83 -5.74,1.81 -2.29,3.15 -1.84,4.46 -1.25,2.18 -2.88,1.99 -3.19,0.59 -1.19,-2.55 -1.94,0.24 -1.46,2.22 -2.09,2.08 -6.77,-0.24 -3.77,-3.07 -2.15,-4.05 -3.43,-1.11 -12,-0.12 -6.22,-1.6 -2.68,-4.05 -0.48,-4.05 -1.98,-2.12 -2.15,-3.77 -1.44,-1.92 -1.23,-0.79 -1.26,0.42 -2.14,0.81 -4.23,1.17 -4.03,0.06 -2.1,-1.2 0.64,-3.22 4.19,-9.8 -1.28,-1.5 -0.48,-2.76 0.97,-3.87 1.21,-11.06 -1.76,-7.72 -0.21,0 -5.35,-1.17 -1.02,-0.12 -1.82,0.28 -0.7,0.18 -3.55,-0.44 -3.99,-0.62 -2.34,-0.67 -2.34,-1.17 -5.61,-2.21 -0.24,-0.11 1,-2.45 0.97,-3.94 1.21,-4.18 0.98,-1.96 -0.49,-2.71 -1.7,-3.2 -2.92,-2.45 -4.85,-1.73 -2.68,-0.98 -1.45,-1.48 1.7,-1.72 4.37,-1.72 1.7,-1.72 3.4,-2.95 0.24,-3.2 1.7,-3.44 1.95,-1.97 1.21,0.24 0.49,1.48 -0.73,1.97 0.97,0.98 2.67,0.98 0.97,0.5 -1.21,1.72 -1.7,2.21 -1.94,1.48 -0.73,1.97 0.24,1.96 2.67,0.99 2.67,0.49 0.98,1.48 1.45,1.23 4.62,0.98 3.16,1.97 0.73,1.72 -0.49,2.21 -1.46,0.99 0.25,2.46 1.7,0.98 0.48,1.23 0.73,3.44 0.97,1.47 1.22,-0.49 0.73,-2.95 1.7,-2.7 2.42,-1.23 3.89,-0.25 5.35,0 3.4,-0.73 2.43,-1.48 0.97,-2.95 0.21,-0.61 0,-0.01 1.17,-0.11 1.62,0.67 1.36,0.93 2.09,0.47 1.89,-0.46 1.89,-1.14 1.12,-1.48 -0.39,-1.48 1.46,-0.62 1.14,0 1.82,0.62 0.26,0.5 1.24,1.09 1.39,0.66 0.64,-0.86 1.31,-0.33 7.62,3.5 2.32,-1.13 0.65,-2.26 -0.48,-5.24 -8.76,-4.97 -4.56,-6.82 -1.18,-1.16 -1.7,-0.75 -2.4,-1.72 -2.02,-1.87 -0.52,-1.2 2,0.03 3.29,0.83 3.07,0.3 1.36,-1.6 -4.19,-2 -2.02,-1.46 0.91,-1.47 2.66,-0.03 2.24,1.69 3.06,3.71 z" 
                fill="rgb(151, 144, 238)" 
                stroke="white" 
                stroke-width=".7px"
                title="Ngöbe Buglé" 
                id="PA-NB" 
            />
        </svg>