<svg xmlns="http://www.w3.org/2000/svg" viewBox="374.5185200000002 20.015499999999946 274.90999999999997 166.52" width="274.90999999999997" height="166.52">
            <path 
                d="m 545.93852,178.5355 0,0 -1.27,0.35 -0.14,-1.34 1.13,-0.77 0.42,0.77 -0.14,0.99 z m -29.07,1.23 0,0 -0.53,0.48 -1.37,0.29 -1.41,-0.63 -1.62,0.88 -0.09,1.12 0.78,0.77 0,1.13 -0.83,0.14 -0.49,0.64 -0.11,1.76 -1.71,0.19 -2.24,-4.63 0.39,-1.71 0.83,0.1 0.1,-0.98 0.54,-1.75 -0.49,-1.27 0.64,-2.1 1.56,-1.85 0.98,-0.15 0.58,0.15 0.72,0.74 0.1,0.43 0.85,1.66 0.58,2.83 0.93,1.07 0.63,0.2 0.68,0.49 z m 33.24,-14.8 0,0 -0.57,0.7 -1.54,-0.28 -0.99,-0.85 -0.21,-0.91 0.92,-1.48 0.98,0.57 0.99,0.98 0.42,1.27 z m -38.33,-5.89 0,0 1.32,1.6 0.61,-0.49 0.28,-1.22 0.72,0.47 -0.5,1.64 0.96,0.64 -0.18,1 -0.54,1.11 -1.09,0.69 -2.51,-1.87 -2.32,-1.75 1.54,-3.18 1.71,1.36 z m 31.39,-4.58 0,0 0.59,1.41 0.37,1.52 0.11,1.34 -0.03,1.02 1.62,0.29 0.87,1.72 -0.24,1.45 -1.08,0.74 -0.29,1.65 1.74,3.38 -1.13,2.93 -1.18,1.07 0.01,1.17 -0.75,0.98 -1.6,-0.1 -0.64,-0.64 -0.93,0.15 -0.87,0.16 -0.93,0.22 -0.34,-0.68 -0.3,-0.83 -0.43,0.83 -0.98,1.17 -1.07,1.46 0.05,1.12 -0.35,1.12 1.27,1.52 0.24,2.58 0.78,0.64 0.98,0.05 0,0.58 -0.83,0.68 -1.81,-1.03 -1.36,-1.12 0.19,-1.85 -0.87,-3.07 -0.82,-1.22 -2.33,-1.03 -0.82,-0.57 -0.72,-1.35 0.58,-2.05 0.93,-1.09 0.45,-2.28 -0.48,-0.83 -1.14,-1.26 -0.34,-0.97 0.53,-0.98 0.54,-0.82 0.05,-0.88 -0.58,-2.34 0.18,-1.24 -1.35,-3.5 0.5,-1.84 1.65,-0.05 1.17,0.79 5.23,-2.26 1.16,1.1 0.37,0.65 0.2,0.63 0.41,-0.81 -0.19,-1.47 0.49,-0.64 1.26,0.75 1.43,0.89 0.83,1.04 z m -15.92,-1.18 0,0 0.66,0.26 0.66,-0.11 0,0.51 -0.48,0.33 0.19,0.85 -0.23,0.44 -0.33,-0.48 -0.47,-0.18 -0.44,-0.88 -0.11,-0.44 -0.92,-0.19 -0.7,-0.11 -0.47,0.41 -0.56,-0.34 -0.51,-0.47 -0.33,-0.41 0.81,-0.4 0.55,-0.22 0.74,-0.33 0.8,-0.18 1,-0.74 0.58,-0.62 0.99,-0.03 -0.51,0.77 -0.7,0.69 -0.84,0.37 -0.33,0.58 0.4,0.26 0.55,0.66 z m -9.78,-2.8 0,0 -0.74,0.34 -0.23,-1.82 0.98,-0.97 0.8,0.23 0.11,0.63 -0.06,1.14 -0.86,0.45 z m 4.47,-14.84 0,0 0.57,0.63 0.63,0.4 -0.8,0.69 -1.03,0.11 -0.51,-0.57 0.23,-0.97 0.57,0.17 0.34,-0.46 z m -75.02,-2.07 0,0 0.26,0.25 0.33,-0.02 0.57,0.4 0.16,0.66 0.41,0.36 -0.16,0.66 0.22,0.42 -0.13,0.16 -0.43,-0.34 -0.76,-0.47 -0.43,0.07 -0.5,0.58 -0.27,-0.09 -0.03,-1.26 0.48,0 0.22,-0.65 0.06,-0.73 z m 70.62,0.7 0,0 -0.51,0.05 -0.23,-0.74 -0.57,-0.86 0.69,-2.11 0.68,0.34 0.17,1.03 0.75,0.17 -0.46,0.92 -0.52,1.2 z m -65.14,-25.8 0,0 0.84,0.28 0.4,-0.12 0.08,0.4 -0.28,0.32 0.36,0.79 0.59,0.4 0.8,0.28 0.08,0.71 -0.28,0.76 -0.6,0.2 -0.43,-0.68 -0.52,-0.48 -0.96,0.2 -0.83,-0.24 -0.32,-0.79 0.16,-1.23 0.91,-0.8 z m 6.84,-0.1 0,0 -0.53,0.56 -0.69,-0.03 -0.45,0.06 0.03,-0.35 0.06,-0.3 0.4,-0.38 1.09,-0.97 0.16,0.68 -0.07,0.73 z m 49.69,-18.08 0,0 -0.57,0.04 -0.15,-0.21 0.34,-0.49 -0.09,-0.29 -0.23,-0.17 -0.04,-0.45 0.02,-0.21 0.27,-0.34 0.13,0.13 0.09,0.48 0.74,0.43 -0.51,0.36 0,0.72 z m -34.86,-59.4 0,0 0.61,0.26 0.9,-0.13 2.11,-0.74 1.21,-0.25 3.1,0.02 0.81,-0.21 1.36,-1.09 1.34,-0.35 2.28,-0.03 3.01,1.03 1.33,0.64 0.6,0.76 -0.22,0.69 -1,1.37 -0.02,0.69 0.59,0.45 1.17,0.44 0.69,0.7 0.44,0.9 0.16,0.91 -0.07,0.75 -0.15,0.57 -0.93,1.18 -2.48,1.2 -0.83,0.96 -0.84,1.43 -0.26,1.36 0.12,0.86 1.04,0.91 4.26,-0.9 8.89,-2.81 1.79,-0.27 1.74,-0.03 1.9,0.13 1.72,0.37 2.82,1.15 1.11,1.02 0.88,0.99 0.83,0.64 1.95,0.13 5.91,-0.16 1.16,-0.38 0.53,-0.49 0,-0.55 -0.33,-0.76 -0.45,-0.76 -0.19,-0.84 0.36,-0.83 0.75,-0.59 3.15,-1.38 1.05,-0.16 1.1,0.11 1.36,0.45 0.81,-0.42 0.23,-0.73 -0.04,-0.9 0.1,-0.56 0.57,-0.24 0.83,0.14 1.42,0.55 1.98,-0.02 1.21,-0.42 1.61,-1.48 0.9,-0.48 1.86,-0.2 2.21,-0.02 4.02,0.57 1.69,-0.26 1.09,-0.62 0.76,-0.63 0.5,-0.32 0.93,-0.11 0.67,-0.01 0.86,0.39 2.21,2.34 1.75,0.82 0.93,-0.33 0.52,-0.89 0.28,-2.29 0.67,-0.38 1.4,0.44 2.83,1.8 4.57,3.53 1.82,1.15 2.29,0.48 2.01,-0.18 6.8,-1.6 0.63,-0.48 1.14,-1.7 0.85,-0.43 1.16,0.2 1.64,1.54 0.66,1.19 0.56,2.27 0.57,0.38 0.89,-0.34 0.97,-0.78 0.9,-0.5 0.96,0.09 1.13,1.07 0.48,1.02 0.46,0.8 0.51,0.49 0.96,0.35 0.73,0.59 0.65,1.12 0.41,1.23 0.1,1 -0.14,0.94 0.33,0.91 0.72,0.56 1.8,0.39 3.73,-0.15 2.48,0.49 1.02,0.07 1.02,-0.33 4.61,-2.27 0.84,0.21 0.55,0.93 0.57,2.24 1.26,3.5 0.78,1.16 1,0.68 2.9,-0.29 3.3,0.05 2.91,0.43 1.07,-0.09 0.57,-0.34 0.35,-0.65 0.23,-0.6 0.51,-0.45 0.9,0.34 1.01,1.15 0.65,2.82 -0.6,1.52 -1.34,2.08 0.26,0.71 0.84,0.65 8.94,2.14 1.42,0.77 0.95,0.66 2.91,4.53 -0.73,1.57 -2.63,3.51 -0.88,1.94 -0.59,2.45 -0.29,3.2 0.06,2.36 0.32,1.96 -0.64,1.23 -1.39,0.86 -3.23,0.75 -2.26,1.03 -2.18,1.91 -1.69,2.88 -1.03,0.76 -1.41,0.34 -2.48,-0.2 -2.18,0.07 -2.69,0.57 -3.71,1.75 -1.26,1.32 -0.48,1.26 -0.14,1.1 -0.59,1.12 -1.2,0.9 -1.22,0.32 -1.64,-0.7 -1.3,-2.01 -0.84,-0.74 -3.13,-1.14 -2.16,-0.4 -1.82,-0.09 -5.93,2.03 -0.93,0.61 -0.67,0.74 0.36,1.8 1.49,7.56 0.46,1.3 0.59,3.13 0.08,1.56 -0.46,2.02 -0.5,1.41 -0.77,1.49 -0.46,1.5 -0.39,1.95 -0.52,5.32 -0.74,3.87 -0.08,1.07 0.46,0.5 0.46,0.38 0.44,0.97 -0.15,1.67 0.5,3.31 1.67,4.01 0.36,2.89 2.12,7.6 0.46,5.84 0,0 -0.77,-0.43 -2.99,-3.69 -1.44,-0.86 0.7,-1.6 -0.1,-2.34 -0.62,-2.36 -0.87,-1.67 -0.95,0.74 -0.53,0.8 -0.24,0.93 -0.12,1.11 -0.6,-1.24 -1.41,-1.81 -0.57,-1.5 -0.07,-1.85 0.96,-4.41 -0.89,-2.28 -3.79,-5.11 -1.51,-1.64 1.94,0.1 1.42,0.43 1.28,0.16 1.55,-0.69 -2.12,-1.66 -0.72,-1.36 0.19,-4.58 -8.05,-2.24 0.68,-2.01 0.29,-0.6 -0.85,-0.1 -0.44,0.2 -0.56,0.72 -1.07,-0.7 -0.99,0.07 -0.95,0.4 -0.93,0.23 -1.14,-0.66 -0.83,-1.53 -1.17,-3.18 1.85,-1.51 0.68,-2.37 -0.14,-2.7 -0.61,-2.45 -0.97,0 -0.18,2.11 0.51,2.71 -0.08,1.87 -1.94,-0.35 -2.17,2.4 -3.98,-5.22 -3.58,0.06 -2.53,-1.58 -2.59,-5.57 -2.04,-1.8 0,-0.9 0.97,0 0,-0.89 -1.92,-0.57 -1.21,-1.22 -1.02,-1.45 -1.32,-1.23 1.03,2.18 0.23,1.72 -0.82,1.32 -2.13,1.04 -1.94,0.32 -1.31,-0.5 -2.54,-3 -0.91,-2.07 -0.51,-2.53 -0.69,-2.13 -17.03,-8.97 -6.78,-1.5 -3.28,-2.34 -0.55,-0.72 -0.17,-1.28 0.37,-0.75 0.5,-0.73 0.26,-1.23 0.06,-2.71 -0.2,-2.29 -1.03,-1.44 -2.45,-0.24 0,-0.98 2.78,-0.2 2.12,-1.14 1.47,-1.82 0.79,-2.21 0.81,0 1.14,1.78 1.26,-0.07 2.09,-1.71 2.64,-0.94 1.17,-0.68 0.62,-1.15 -0.83,0.41 -1.74,0.14 -1.05,0.34 -0.86,0.69 -1.66,1.8 -0.54,0.37 -1.04,-0.4 -0.33,-0.83 -0.41,-0.68 -1.27,0.04 -0.8,0.68 -1.58,2.38 -0.75,0.51 -0.31,0.28 -0.41,0.62 -0.73,0.62 -1.25,0.28 -1.2,0.06 -0.96,0.25 -0.64,0.57 -0.21,0.99 0.79,0.9 1.68,0.5 1.51,1.13 0.36,2.76 -0.59,1.61 -1.34,2.24 -1.81,1.55 -2.01,-0.43 -0.84,-0.44 -3.14,-0.87 -0.14,-0.57 -0.63,-1.06 -0.68,-0.35 -0.33,1.55 -2.19,0.72 -10.42,-1.84 -3.38,0.67 -0.81,0 0,-0.9 -3.19,0.99 -7.32,-0.71 -2.91,1.5 -1.15,-0.88 -1.21,0.1 -1.24,0.5 -2.25,0.43 -1.61,0.61 -0.99,0.14 -0.97,0.29 -0.26,0.61 -0.09,0.62 -0.41,0.27 -0.42,0.45 -3.64,2.24 -0.26,1.18 0.13,1.12 -0.26,0.86 -1.38,0.42 2.25,3.82 0.48,1.55 -1.71,-1.2 -2.09,-2.09 -1.75,-2.47 -0.72,-2.29 -0.8,0 0.18,0.76 0.23,0.49 0.39,0.62 0,0.81 -0.8,0 0.93,3.25 -0.61,2.83 -1.89,1.37 -2.94,-1.1 -5.92,1.06 -1.86,0.97 0.71,1.56 0,0.81 -1.44,-0.48 -0.92,-0.62 -0.87,-0.28 -1.28,0.57 -0.38,-0.44 -0.15,-0.22 -0.31,-0.11 -0.85,-0.13 0,0.9 0.36,0.44 0.21,0.68 0.32,0.67 -2.23,-0.39 -2.11,1.09 -1.73,1.87 -1.09,1.9 -0.55,2.53 0.55,7.8 0.28,0.75 0.6,0.4 0.61,0.26 0.28,0.42 -0.13,0.83 -0.26,0.7 -0.41,0.71 -0.3,1.02 -0.51,1.09 -0.68,1.05 -0.77,0.9 -0.52,0.38 -1.61,0.79 -1.63,0.34 -0.1,0.49 0.16,0.58 -0.32,0.52 -2.21,0.59 -2.11,1.06 1.64,1.63 4.41,1 4.18,-1.68 3.9,-1.97 1.49,-0.82 0.48,-0.63 0.62,0 0.05,1.11 -0.48,0.96 -4.37,3.41 -5.19,4.71 -2.5,0.97 -4.23,1.39 -4.9,1.21 -0.96,1.25 0.23,1.44 -0.25,1 -0.41,0.45 -0.66,0.28 -1.46,0.3 -0.54,0.23 -1.96,1.84 -0.92,0.66 -1.18,0.27 -0.7,0.56 -1.25,2.45 -0.66,0.56 -0.27,0.5 -2.75,2.39 -9.15,6.04 -5.3,-6.23 -0.61,-1.28 -0.72,-2.04 -0.47,-7.3 -1.17,-3.24 0.03,-4.15 0.17,-1.16 -0.47,-4.53 -0.75,-2.17 -3.25,-14.73 -3.38,-9.87 -0.1,-3.12 0.35,-2.34 0.79,-2.17 2.92,-4.38 -0.56,-3.54 5.81,-4.52 5.5,2.02 3.62,0.28 4.77,-1.52 3.82,-2.52 0.69,-1.44 0.7,-2.07 -0.04,-2.01 -0.45,-1.53 -1.08,-2.03 -0.7,-2.27 5.45,-12.03 1.91,-2.03 2.16,-0.44 4.05,1.93 3.62,0.79 1.42,0.71 1.36,1.28 2.47,4.18 1.46,1.56 2.85,0.67 6.67,-0.1 2.18,-0.78 2.36,-1.6 3.65,-4.52 0.83,-3.58 0.75,-0.48 0.92,-0.72 2.27,-1.07 2.2,-0.65 1.82,-0.8 0.64,-0.75 0.16,-0.92 -0.57,-2.35 0.25,-1.94 0.64,-2.75 1.7,-4.43 0.57,-2.05 0.05,-1.38 -0.36,-0.51 -0.09,-0.95 0.28,-1.36 3.36,-11.6 4.84,-1.99 5.75,-1.26 3.2,0.85 2.12,0.84 1.1,0.87 0.86,1.13 0.44,0.74 1.29,1.67 0.2,0.56 -0.22,0.38 -0.6,0.33 -1.6,0.7 -0.7,0.45 -0.45,0.67 -0.2,0.8 0.35,0.92 z" 
                fill="rgb(151, 144, 238)" 
                stroke="white" 
                stroke-width=".7px"
                title="Panama" 
                id="PA-8" 
            />
        </svg>