<svg xmlns="http://www.w3.org/2000/svg" viewBox="151.89852000000016 97.87549999999975 165.66999999999993 219.83000000000015" width="165.66999999999993" height="219.83000000000015">
            <path 
                d="m 161.68852,306.4955 0,0 -0.07,0.54 1.26,-0.48 1.05,0.13 1.22,0.3 1.79,0.05 -1.6,1.3 -1.73,3.37 -1.1,1.65 0.51,0.66 0.45,1.05 -0.96,0 -1.99,-5.92 0.22,-1.14 -0.54,-0.74 -0.06,-0.4 0.6,-0.72 0.49,0.01 0.33,0.09 0.13,0.25 z m 98.75,-34.31 0,0 -1.01,1.25 -1.46,0.51 -1.42,0.7 -1,0.2 -1.12,-0.49 -0.82,-0.65 -0.73,-0.4 -0.84,-0.19 -1.19,-0.06 -1.32,0.29 -0.67,0.7 -0.45,0.85 -0.66,0.75 -3.62,1.87 -1.82,2.14 -0.75,0.46 -1.09,0 -1.22,-0.28 -0.94,-0.35 -0.29,-0.18 -3.58,1.26 -0.81,-0.05 1.21,-1.7 1.26,-1.3 1.32,-1 1.59,-0.64 4.67,-0.72 1.34,-1.19 0.83,-1.44 1.1,-1.26 1.76,-0.91 2.26,-0.83 3.94,-0.93 1.64,0.56 1.74,0.23 3.7,0.02 -1.55,2.78 z m -89.89,-11.78 0,0 2.94,8.45 0.12,1.52 0.25,0.28 1.03,1.59 0.07,0.34 -0.15,1.04 0.08,0.32 0.41,0.07 1.08,-0.16 0.36,0.09 1.17,0.8 0.83,0.32 0.5,0.75 0.16,2.11 -0.76,0.62 -4.14,1.57 -0.13,0.89 -0.96,3.81 -0.29,0.65 0.81,1.63 2.33,2.1 0.48,1.3 0.24,1.34 0.62,1.15 0.85,0.44 0.95,-0.74 0.8,0 1.54,0.82 3.94,-0.37 0.8,0.93 3.61,6.73 -2.42,0.99 -2.78,0.79 -2.75,0.01 -4.52,-2.6 -5.55,-0.4 -2.48,-0.58 -1.35,-1.15 -3.12,-3.46 -2.5,-1.49 -5.42,-4.6 -2.95,-6.23 -1.07,-0.99 -0.29,-0.57 -0.99,-3.45 0.5,-0.09 2.7,0 1.22,-0.35 -0.04,-0.51 1.65,-2.95 0.24,-0.11 0.34,-1.54 0.05,-1.16 0.18,-1.04 0.72,-1.21 0.99,-0.66 2.39,-0.5 3.66,-2.69 1.26,-0.7 0.06,0.5 0.96,0 -0.36,-1 -0.26,-1.62 -0.34,-1.03 0.96,0 0,0.97 0.81,0 -0.07,-0.65 0.19,-0.19 0.38,-0.02 0.46,-0.11 z m 117.3,-153.2 0,0 2.38,1.57 2.24,1.05 2.27,0.75 1.46,0.63 0.97,0.6 2.73,3.11 0.89,1.47 0.7,1.89 -0.62,2 -0.74,1.58 -0.43,1.57 0.5,2.4 0.62,1.06 0.7,0.76 0.28,0.73 0.24,0.91 -2.01,4.05 -1.54,3.78 -3.55,4.33 -4.09,0.66 -1.53,1.38 2.8,2.51 2.64,3.56 3.04,5.4 5.01,13.27 3.18,5.18 -0.52,4.2 -1.88,6.57 -3.39,6.07 0.53,2.24 6.09,4.05 -2.94,0.25 -1.17,-0.3 -1.77,-0.05 -1.25,0.47 -2.93,3.56 -2.11,1.91 -4.67,1.88 -4.74,1.79 2.02,5.76 -0.15,2.03 -1.4,2.56 -1.01,1.47 -3.7,3.3 -2.73,2.94 -3.31,0.85 -0.62,0.57 -0.74,1.25 -0.46,14.79 0.55,2.95 3.01,-0.78 1.3,0.54 0.61,0.57 0.93,1.32 0.77,2.06 0.87,3.77 0.74,1.74 10,14.92 3.85,2.29 2.65,0.58 0.79,0.45 3.38,3.42 -0.31,3.64 0.91,5.6 2.05,6.3 3.34,4.54 0.82,3.06 0.07,1.92 -0.28,1.37 0.09,0.59 1.9,0.63 1.18,0.7 2.69,2.01 1.32,1.49 0.85,1.83 0.35,4.58 -14.13,2.65 -10.4,0.38 -2.67,-0.73 -0.88,0 -0.67,0.76 -0.66,0.25 -0.67,-0.25 -0.66,-0.76 -0.88,0 -1.77,1.75 -1.46,-0.89 -2.08,-3.46 -0.69,-0.57 -0.95,-0.62 -1.14,-0.47 -1.23,-0.21 -1.25,-0.41 -0.06,-0.93 0.6,-0.91 0.71,-0.41 0.52,-0.58 -0.14,-2.8 0.1,-1.09 0.67,-0.92 1.46,-1.11 0.51,-0.64 0.47,-1.74 0.1,-2.41 -0.53,-2.15 -3.31,-2.01 0.05,-2.46 1.38,-4.03 -0.63,-1.7 -4.68,-5.07 -0.45,-0.26 -0.98,-0.91 -0.61,-0.98 1.58,-0.91 0.25,-1.12 0.15,-1.32 0.5,-1.11 0.19,-1.52 -1.22,-1.82 -1.72,-1.63 -1.31,-0.91 0,-0.89 0.96,0 0,-0.9 -6.27,-6.25 -1.28,-0.72 -0.98,-0.29 -0.49,-0.44 0.18,-1.23 0.61,-1.16 0.96,-0.82 1.29,-0.29 1.56,0.41 -0.62,-1.13 -1.46,-1.14 -1.63,-0.87 -1.15,-0.35 -0.2,-0.62 2.41,-3.92 -1.41,0.09 -1.26,-0.16 -1.03,-0.36 -0.8,-0.55 0.44,-0.1 0.36,0.02 0.2,-0.15 -0.04,-0.58 -2.99,-0.57 -1.22,-1.88 0.08,-1.99 0.95,-0.91 0.73,-0.29 0.65,-0.61 0.86,-0.61 1.38,-0.28 1.63,0 1.3,-0.23 0.82,-0.78 0.15,-1.67 -0.8,0 -2.93,1.67 -0.91,-3.49 0.3,-8.08 -2.8,5.22 -1.98,1.76 -1.49,-2.52 -0.8,0 0.29,1.4 0.49,1.02 0.76,0.72 1.11,0.51 0,0.9 -5.88,0 -1.2,-0.28 -1.62,-1.23 -1.59,-0.28 -3.28,-0.96 -0.64,-2.06 -0.33,-1.9 -2.35,-0.51 1.28,0.53 0.38,0.46 0.11,0.86 -1.72,0.57 0.32,1.05 2.29,1.96 2.24,1.19 0.41,0.15 -0.21,1.16 -0.38,0.94 -0.21,0.79 2.4,4.53 -1.26,3.4 -2.88,2.78 -2.77,2.02 -0.56,-1.06 -0.1,-0.63 0.22,-0.46 0.44,-0.52 0,-0.98 -1.81,-0.11 -1.8,0.11 0,0.98 1.37,0.38 0.76,0.78 1.48,2.41 -1.75,0.66 -0.76,-0.1 -1.1,-0.56 0.94,1.56 0.91,1.12 0.8,0 1.73,-0.94 1.89,-0.77 0.55,1.47 -0.55,5.67 0.27,1.53 0.03,0.89 -0.3,1.15 -0.49,0.64 -1.57,1.27 -0.6,0.85 -0.96,0 -1.11,-0.83 -4.17,-2.23 -0.92,-0.15 -0.7,-1.64 -1.61,-0.6 -2.99,0.01 -10.72,-3 -3.51,0.32 -0.54,-1.5 -0.87,-1.32 -1.03,-1.02 -1.02,-0.62 -3,0.75 -3.82,-0.33 -2.9,-1.24 -0.17,-1.94 1.09,-0.34 2.42,-1.28 1.46,-1.38 -5.09,-1.48 -1.43,0.42 -0.14,2.28 -2.99,-2.14 -1.52,-0.54 0,-0.89 0.85,-1.15 -0.71,-1.09 -1.2,-1.19 -0.63,-1.44 0.22,-2.15 0.59,-1.4 1.85,-2.3 0,-0.89 -0.92,-0.61 -0.95,-0.24 -0.91,0.18 -0.84,0.67 -0.8,0 -0.97,-0.89 0,-0.98 1.21,-0.99 -0.02,-0.94 -1.05,-0.63 -1.91,-0.03 0.41,-2 0.12,-2.18 0.74,-1.23 2.27,0.86 -0.34,-1.17 -0.52,-0.81 -1.79,-1.59 0.6,-0.98 -0.22,-1.9 0.5,-1.59 -1.59,0.65 -0.74,-0.19 -0.24,0.13 0,1.64 0.62,1.82 0.2,0.97 -0.43,0.42 -0.96,-0.15 -0.67,-0.44 -0.4,-0.71 -0.13,-0.97 -0.43,-1.44 -2.29,-3.16 0.13,-0.05 2.6,-0.7 0.58,-1.08 0.55,-1.5 0.26,-1.61 3.32,-13.07 0.55,-1.33 0.52,-0.92 3.2,-3.14 6.51,-8.24 0.75,-0.62 0.21,-0.3 0.31,-0.65 0.35,-3.95 -0.36,-3.86 -0.79,-4.07 -0.41,-4.92 -0.54,-6.53 0.12,-1.92 0.42,-2.18 3,-7.28 1.17,-5.22 0.22,-5.38 3.3,1.7 3.99,0.96 1.44,0.63 0.78,0.5 0.6,1.25 6.1,0.47 3.37,-0.69 1.16,0.28 5.98,4.69 2.18,1.4 5.23,1.39 2.84,1.15 1.45,0.36 1.09,0 3.57,-0.8 -2.01,-2.02 -1.12,-2.04 -0.46,-1.2 -0.59,-1.1 -0.98,-1.08 -1.12,-1.7 -0.78,-2.75 -0.51,-4.84 0.42,-7.94 -1.49,-9.69 0.89,-3.3 0,-0.7 -0.03,-0.45 0.4,-0.02 4.96,-0.65 5.76,-0.65 5.52,-0.92 1.01,0.52 1.19,-0.26 1.19,-0.84 1.03,-1.21 10.16,-3.36 9.88,-4.14 2.23,-0.8 2.47,0.09 0.08,1.07 0.04,0.36 0.18,2.69 0.45,1.25 0.73,1.49 1.36,1.56 0.94,0.82 z" 
                fill="rgb(151, 144, 238)" 
                stroke="white" 
                stroke-width=".7px"
                title="Veraguas" 
                id="PA-9" 
            />
        </svg>