<svg xmlns="http://www.w3.org/2000/svg" viewBox="209.12 256.15146 81.45999999999992 110.92000000000002" width="81.45999999999992" height="110.92000000000002">
            <path 
                d="m 232.67,361.91146 -12.7,5.16 0,0 -10.85,-17.7 11.62,-7.36 11.93,19.9 z m 43.17,-22.2 0.09,0 0,0 -0.09,0 z m -37.32,-1.21 -1.38,1.44 -4.31,-6.52 1.92,-1.1 3.77,6.18 z m 51.16,-21.82 0.9,0.79 0,0.99 -0.54,0.49 -0.54,0 0.81,-0.69 -0.45,-0.89 -1.71,-0.1 1.53,-0.59 z m -20.58,-18.19 1.26,0.59 -0.09,3.96 -2.61,-1.58 -2.52,-0.59 0.9,-1.78 1.53,0.69 1.53,-1.29 z m -6.2,-22.55 0.18,0.79 3.33,1.39 0.72,0.79 0.18,1.48 -1.98,0 -1.08,0.99 -0.09,-1.98 -1.08,-0.59 -0.18,-1.29 -0.72,-0.59 0.72,-0.99 z m 12.94,63.77 -10.34,0.88 -8.87,2.87 0,0 -0.32,-1.54 -2.01,-0.38 -5.19,-2.75 -8.08,-5.82 -3.27,-1.8 3.95,-3.07 -6.93,-9.05 -2.02,-10.48 -1.72,-4.84 -4.35,-8.81 0,0 -0.49,-2.05 0,0 15.33,-10.03 -2.28,-6.24 -4.25,-20.45 11.84,0 0,0 0.54,2.95 6.02,4.65 0.99,0.3 0.63,-0.59 1.08,0.3 1.35,-0.89 -0.27,1.19 -0.81,0.1 0.45,1.29 -0.63,-0.4 -0.81,0.3 -5.03,-3.86 -2.16,-0.4 0.99,1.19 0.54,2.28 0.99,0.4 0.36,0.69 0.54,-0.1 -0.27,2.08 -0.54,0.4 0,0.5 0.54,0.2 0.09,1.39 -0.63,1.98 -0.18,-0.4 -0.72,0.1 -0.18,0.69 0.36,2.08 0.81,2.18 0.45,0.1 -0.45,3.86 0.81,2.47 -0.18,1.38 1.17,2.47 2.97,-0.69 0.27,0.3 -2.16,1.98 -0.09,0.69 -1.62,0.4 -0.27,1.58 1.35,1.39 -0.09,0.79 -2.43,-0.89 -0.18,1.09 -0.72,0.3 0.27,0.99 0.9,0.2 0.09,0.99 -0.99,0.5 -0.09,0.49 1.62,0.5 0.36,0.59 0,-0.99 1.26,0 0.18,0.79 -0.72,2.27 -2.07,1.88 -0.18,1.88 0.63,0.99 0.81,0.3 3.14,-0.4 1.71,2.57 -0.09,0.69 -0.9,0 0,2.08 -2.34,0.59 -1.89,-0.1 -1.71,1.48 -0.36,1.78 -0.45,0.3 -0.09,1.98 1.35,1.68 1.62,0.89 1.8,0.49 0.72,-1.28 0.36,0.4 -0.18,0.89 0.9,0.3 0.18,-1.38 2.25,-0.4 -0.54,-1.19 0.36,-0.59 0.54,0.1 0.36,0.89 0.81,-0.3 -0.18,-2.08 2.79,-1.28 0.99,2.17 -1.08,0.49 -0.81,-1.68 -1.17,0.49 1.35,3.16 -0.27,0.59 -0.54,-0.1 -0.45,-0.99 -0.36,0.49 -0.99,0 0,0.69 0.72,-0.2 -0.63,0.59 0.18,0.89 0.63,0.49 1.26,-0.1 0.09,0.79 0.81,0.4 0.99,-0.49 -0.81,-0.2 -0.09,-0.49 0.99,-0.3 0.54,0.5 0.54,-1.19 1.35,-0.89 -0.09,-0.79 1.8,1.09 0.99,-0.1 0,-2.08 0.36,-0.2 1.17,0.79 -0.54,2.07 0.18,1.78 0.99,0.1 0.09,0.89 0.9,0.3 1.17,-0.59 0.63,0.2 2.7,-3.16 0.9,-2.37 1.89,-0.59 0.9,2.47 0.72,0.69 0.27,1.68 2.61,6.62 1.08,1.28 0.09,1.58 -5.75,-14.03 -1.53,0.4 -0.72,1.98 -2.52,3.36 2.52,-1.58 1.17,1.19 -0.45,0.59 1.8,2.37 -0.54,1.48 0.45,2.47 -0.63,0.59 -0.36,2.27 3.77,0.4 2.16,0.99 0.72,-0.4 0.09,0.4 -0.81,0.3 -2.16,-0.99 -3.95,-0.39 0.09,2.27 -1.08,0 -1.17,0.89 0.81,0.69 -0.18,0.69 -0.81,0.2 0.92,3.34 z" 
                fill="rgb(151, 144, 238)" 
                stroke="white" 
                stroke-width=".7px"
                title="Ad Dawḩah" 
                id="QA-DA" 
            />
        </svg>