<svg xmlns="http://www.w3.org/2000/svg" viewBox="66.6000000000002 80.48146400000002 216.17999999999978 142.41999599999977" width="216.17999999999978" height="142.41999599999977">
            <path 
                d="m 267.21,153.37146 -0.18,1.39 -0.63,0 0.09,-0.99 0.72,-0.4 z m -0.35,-1.78 -0.45,1.59 -0.36,-1.19 0.81,-0.4 z m 6.38,-0.5 0.54,0.4 -2.16,1.89 -1.98,0.89 0.17,-0.88 1.27,-0.01 1.35,-2.08 0.81,-0.21 z m -58.77,-70.219996 0,-0.1 0,0 0,0.1 z m 0,0 2.34,1.69 5.03,2.09 0.09,0.4 1.35,-0.2 0.36,0.5 2.88,0.1 0.99,-1.09 0.99,0.3 0.99,-0.5 -0.09,-1.69 0.72,1.59 -1.53,0.99 10.15,-1.99 0.36,-2.58 0,2.68 2.61,-0.2 0.27,0.4 5.3,1.09 3.15,2.09 3.95,4.27 3.15,1.79 1.08,-0.2 3.95,1.69 3.95,2.38 0.9,-0.3 8,-7.45 1.08,0.1 6.29,2.88 0,0.4 -0.45,0 -5.3,-2.48 -1.53,-0.3 -3.23,2.98 -0.18,0.99 4.22,-1.39 1.17,1.89 -1.44,0.5 -0.54,-0.9 -1.08,0.3 -0.63,-0.4 -1.53,0.89 -3.68,3.18 0,0.6 0.63,0.4 -0.27,1.59 1.35,-0.2 9.44,-4.97 -0.54,-1.29 0.81,1.09 1.17,-0.6 0.18,-0.69 0.09,0.8 -11.14,5.959996 -1.98,0.2 -0.81,0.6 0.18,1.89 -0.36,0.2 -0.45,3.58 0.27,4.07 0.9,0.99 0.36,3.97 0.81,0 -0.36,1.99 0.81,0.3 0.45,1.39 1.8,0 -1.71,0.3 0.81,2.88 -0.09,1.29 0.45,0.6 0.18,7.35 0.81,2.38 0.36,0 1.8,3.77 0,2.09 -0.81,1.09 -0.45,3.18 0.54,0.3 0,0.89 -1.08,1.49 0.72,1.29 -0.09,1.09 -1.8,1.89 -0.36,1.59 -1.44,0.2 -0.45,1.59 -1.17,0.6 -0.78,-0.97 1.23,-2.01 -0.99,0.1 -0.18,0.7 -0.27,-0.99 0.81,-1.09 -0.27,-1.49 0.54,-0.79 -1.62,-1.49 -1.26,0 0.9,0.99 -2.61,4.17 -0.27,3.37 -1.89,3.67 -2.16,0.1 -1.35,-1.49 -2.52,-1.19 0.18,2.18 0.63,0.89 1.26,-0.69 1.35,0.99 0.81,1.79 2.61,1.09 0.27,0.6 0.72,-0.3 1.89,0.69 0.27,0.69 0.09,-1.98 0.81,-1.09 1.08,0 0.18,-1.49 1.08,0 0,0.7 0.63,0.6 1.71,0.79 -0.72,1.19 2.88,2.78 0.18,1.39 -0.63,0.99 0.18,2.08 -0.54,-0.1 -1.26,1.89 0,0.79 0.72,0.6 -1.89,0.59 -0.72,0.89 0.09,1.19 1.26,0.1 -1.08,0.2 -0.18,0.79 1.35,-0.2 -1.17,0.79 0,2.38 -0.36,0.79 -1.53,0.59 0.27,1.29 -1.71,-1.39 -0.63,0.4 -0.63,-1.09 -1.17,-0.5 -5.48,0.5 -0.63,-2.38 0.81,-0.3 0.72,0.6 0.36,-0.2 -0.81,-1.39 -0.63,-1.29 0.27,-0.4 1.62,0.4 0.09,-0.4 -1.26,-2.08 -1.62,-0.69 0.09,-0.69 -0.9,0.5 -1.44,-0.2 -1.35,0.99 -0.72,-0.1 -2.06,1.29 -0.9,0.1 -1.08,1.09 -0.63,-0.89 -0.72,0 -2.6,1.39 -0.36,0.6 1.35,1.59 1.62,0.1 0.72,-0.69 0.27,1.19 3.15,-0.1 0.27,1.78 0.81,-1.39 3.23,0.2 -0.54,2.58 -1.35,0.2 -0.63,1.29 0.27,1.19 1.26,0.7 -0.18,1.79 0.81,0.1 0.54,-0.59 1.71,0.2 0,0.99 1.44,-0.59 0.27,0.69 1.26,0.2 -0.09,1.39 -1.17,1.49 0.54,4.76 -1.62,1.49 0.36,1.19 0,0 -7.65,-2.87 -10.16,-0.51 -11.43,-5.6 -4.27,2.55 -2.66,0.64 -7.16,7.13 -2.31,0.64 -1.96,-0.13 3.93,20.5 0,0 -30.94,1.78 -17.13,-10.16 0,0 -7.39,-12.22 4.86,-15.55 0.71,-10.5 -0.27,-2.46 4.8,-5.32 -51.19,-0.02 0,-20.4 -42.8,0 0,0 -0.72,-1.35 -0.63,-3.47 2.43,-0.89 1.08,-2.08 -0.36,-1.79 -1.71,-0.2 1.17,-3.18 -0.63,-1.59 0.27,-0.89 -0.9,-0.3 0.09,-1.09 -1.08,0 -0.27,-0.5 -1.71,0.4 -1.62,-0.2 -0.99,0.79 -0.27,-0.89 -0.63,0.1 -0.36,-1.19 -0.81,0 -0.63,-0.6 0,-1.19 -0.9,0.1 0.99,-0.6 -0.18,-2.68 1.08,-2.4 0,0 50.1,0 0,-36.329996 49.11,0 0.4,19.489996 23.92,-0.08 1.63,16.51 1.58,-0.3 19.42,0.47 -0.18,-39.469996 z" 
                fill="rgb(151, 144, 238)" 
                stroke="white" 
                stroke-width=".7px"
                title="Al Khawr wa adh Dhakhīrah" 
                id="QA-KH" 
            />
        </svg>