<svg xmlns="http://www.w3.org/2000/svg" viewBox="117.74000000000024 339.8114599999992 167.00999999999976 272.77" width="167.00999999999976" height="272.77">
            <path 
                d="m 159.75,549.82146 -0.18,2.06 -0.63,-0.1 -0.63,-1.38 1.44,-0.58 z m 116.09,-210.01 0.09,1.88 0.81,0.99 0.27,1.38 0.9,0.79 0,0.69 0.99,0 1.98,2.07 1.08,0.3 0.18,1.28 1.53,0.4 -0.18,0.79 -0.9,-0.49 -0.81,0.4 -0.18,2.57 0.54,2.77 -1.17,1.78 0.36,1.09 -0.63,0.69 0,0.79 0.54,0.49 -2.16,0.99 0.81,0.89 -0.72,0.59 0,0.79 1.89,1.28 0.27,0.99 -1.71,-1.68 -0.81,0.2 -0.63,0.89 0.36,1.09 1.8,1.28 2.07,3.36 -0.27,1.88 -1.26,2.86 1.26,3.85 -0.18,4.24 -0.63,2.37 1.17,4.24 -0.54,0.49 -0.18,2.47 -0.54,1.78 -0.99,1.19 -0.36,1.97 -0.45,0.1 -0.27,1.28 -0.9,-0.2 -0.45,0.49 1.8,3.55 1.26,7.2 0.81,1.58 3.06,3.26 -0.72,2.66 -0.63,0.49 -0.45,4.04 -1.44,1.77 -2.07,0.59 -2.16,3.75 -1.26,-0.49 -0.81,1.08 -0.99,-0.1 -3.59,3.35 -0.9,1.68 -0.18,1.48 2.43,0.59 0.9,-0.79 1.08,1.18 -0.99,2.96 -2.88,3.55 -0.36,1.68 -1.44,1.87 -2.07,4.14 0.9,1.18 -0.54,0.1 -0.9,-0.89 -0.54,1.08 1.08,1.08 -1.26,-0.69 -1.98,3.45 0.72,0.89 -0.18,0.49 -0.54,0.1 -0.27,-0.69 -1.08,-0.3 -0.36,0.69 0.36,1.08 -0.99,1.18 -0.81,0 -3.86,5.42 -0.45,0 -1.62,3.15 -1.44,1.48 -0.9,0.2 -3.68,2.76 -1.53,2.27 -2.16,6.4 -3.77,6.7 -0.72,6.99 -2.7,4.92 0.09,7.09 -0.45,1.77 -0.81,2.26 -1.98,2.66 -0.99,2.16 -3.14,3.94 -2.87,5.81 -0.54,3.54 -2.43,6.59 -0.27,3.05 -2.07,6.39 -1.26,1.18 -0.81,0.2 0,-0.52 -1.17,0.3 -1.98,4.13 -2.16,0.59 -1.98,-0.1 -1.98,1.08 -1.89,0.2 0.27,-1.47 -0.54,-1.47 -0.09,0.69 -0.45,0.1 0.45,2.06 -1.17,0 -0.27,-0.59 -1.17,0.69 0,2.16 -2.43,6.39 0.27,3.05 -0.45,0.49 0.72,2.56 -0.45,0.1 -0.99,0 0.27,2.26 -0.45,0.2 0.09,1.57 -1.35,0.79 -1.8,0 -0.54,0.4 -0.63,1.28 -0.9,0.1 -1.71,1.38 -0.72,1.47 -3.32,3.34 -1.17,0.3 -1.17,0 -0.09,-0.39 1.26,-0.69 0.72,-5.21 -0.9,-1.77 -1.53,-0.88 -0.18,-4.32 -1.17,-0.69 -0.45,-1.47 0.54,-1.48 -0.09,-2.46 1.17,-0.79 1.8,0.59 -0.36,0.69 0.18,1.28 1.71,0.59 0.18,1.08 1.08,0.3 -0.63,-4.91 1.8,-0.69 -0.36,2.16 -0.81,0.59 0.18,1.28 0.54,-0.49 0.45,-1.87 1.89,-1.67 0.63,-1.38 -0.45,-1.08 0.36,-0.79 -0.36,-1.38 0.81,-3.54 -0.81,-0.88 -0.81,0.79 0.18,1.87 -0.72,-0.3 0.27,3.15 -0.54,0 -0.63,-0.98 0.18,1.47 0.63,0.98 -0.36,1.18 -2.34,1.28 0,-2.75 0.9,-2.26 0.36,-4.52 -0.63,-0.49 0.45,-0.79 -0.54,-0.39 -0.09,-1.08 1.17,-0.59 0.09,-1.67 -0.9,-0.1 -0.36,1.38 -0.63,-0.1 -1.89,5.11 -0.72,-0.2 0.72,0.89 0.81,-0.1 0.36,1.18 0.9,0.49 0,0.39 -1.26,-0.39 0.9,1.38 -1.26,-0.39 -0.27,0.59 -0.72,-0.1 -0.45,-1.67 -1.98,-2.75 0.45,-0.69 -0.54,0 -0.18,-0.49 -1.08,0.59 0.36,1.48 -0.99,0.2 -1.26,-2.26 0.18,1.97 -1.17,-0.98 0.09,-0.79 -0.81,-0.59 -0.45,1.08 -0.72,-0.49 0.36,1.67 -0.81,0.2 -1.8,-2.26 0.18,-1.47 -1.08,-0.39 -0.18,-0.49 -1.08,0.79 -0.63,1.38 0.36,0.1 -0.36,2.26 -1.44,1.38 0.27,1.67 -0.54,0.3 -0.27,-1.08 -0.63,-0.1 0.09,-1.67 0.9,-1.08 0.63,0.59 0.63,-2.85 1.08,-1.77 -0.09,-1.47 0.54,-1.18 -0.63,-0.89 -0.09,-3.05 -0.54,-0.98 -1.35,0.79 1.08,2.07 0.09,1.08 -0.36,0.49 -0.54,-1.08 -0.81,-0.29 -0.09,-0.49 -0.45,0.1 0.36,2.26 0.27,0.39 -0.45,0.1 -0.36,3.54 -2.25,1.87 -0.36,0 0.36,-0.79 -0.18,-1.87 -1.17,-1.77 -1.17,0 -2.69,1.28 -0.45,0.89 0.18,1.38 -2.43,-1.57 -2.78,0.3 -0.99,0.59 -0.63,1.67 -0.72,0.1 -1.08,1.08 -1.62,-0.69 0,-1.38 -0.63,-0.69 -0.72,1.48 -0.81,-0.2 -0.18,0.49 0.54,0.89 0.72,-0.2 0.09,0.49 -1.98,0.89 -0.09,0.98 -0.63,0.1 -0.27,0.79 0,0.3 1.8,0 0.09,0.69 -0.9,0.89 0,0.89 0.36,0.1 -0.04,1.06 0.95,0.68 2.01,1.09 1.06,-0.3 1.46,1.11 1.52,0.15 2.81,-0.37 1.78,0.35 3.51,-1.49 1.25,0.61 0.82,1.31 0.88,0.15 2.19,-1.54 0.39,0.53 -0.44,0.66 0.05,2.12 3.26,1.11 1.82,4.04 2.26,-0.96 0.44,-2.2 0.52,-0.18 1.11,1.01 0.49,1.62 -0.37,1.08 -2.15,1.89 -0.43,2.15 -1.35,2.62 0.68,6.94 -0.37,4.58 0.31,3.37 -2.22,3.3 0.63,3.76 1.1,1.22 -59.36,13.86 0,0 -0.48,-29.68 -0.44,-157.65 32.04,0 0.23,-41.87 32.94,9.38 29,9.82 2.23,1.18 0.12,-24.19 -6.2,-6.6 9.63,-4.12 2.15,-1.61 0,0 12.7,-5.16 0,0 12.7,-4.6 9.78,-4.33 -2.4,-8.26 3.87,-1.25 0,0 8.88,-2.87 10.34,-0.88 0,0 0.09,0 0,0 0,-0.08 z" 
                fill="rgb(151, 144, 238)" 
                stroke="white" 
                stroke-width=".7px"
                title="Al Wakrah" 
                id="QA-WA" 
            />
        </svg>