<svg xmlns="http://www.w3.org/2000/svg" viewBox="0.2500000000000113 134.81146 256.42 477.97" width="256.42" height="477.97">
            <path 
                d="m 10.67,234.66146 0.27,0.69 -0.54,0.1 -0.27,-0.59 0.54,-0.2 z m 44.39,-33.09 0.45,0.79 0.63,0 0.18,0.6 0.9,0.3 0.18,1.29 -0.9,-0.3 -0.45,-1.09 -0.81,-0.1 -0.45,-1.09 0.27,-0.4 z m 4.41,-66.76 1.71,0.7 0.81,-0.2 0.81,1.79 0.72,0.2 0.45,-0.5 0.63,1.89 1.44,1.79 0.72,0.1 -0.18,0.79 0.63,0.1 0.54,1.19 0.45,0.1 -0.27,0.99 0.54,0.99 -0.09,1.09 -1.71,2.08 0,3.47 -0.81,-0.49 -0.45,0.4 0.18,0.7 0.36,-0.6 1.17,0.5 -0.18,-0.89 0.36,-0.3 1.8,0.2 1.62,-0.6 0.36,-0.69 -0.27,-1.49 1.98,0.3 1.71,-0.89 1.26,-1.33 0,0 42.8,0 0,20.4 51.19,0.02 -4.8,5.32 0.27,2.46 -0.71,10.5 -4.86,15.55 7.39,12.23 0,0 -0.05,70.06 21.95,0.54 9.12,1.02 12.59,4.32 0.02,8.21 6.78,0.1 -1,-4.54 1.06,-0.42 3.27,0.21 1.59,1.38 1.34,3.12 3,-1.71 0,0 4.35,8.81 1.72,4.84 2.02,10.48 6.93,9.05 -3.94,3.07 3.27,1.8 8.08,5.82 5.2,2.75 2.01,0.38 0.32,1.54 0,0 -3.87,1.25 2.4,8.26 -9.78,4.33 -12.7,4.6 0,0 -11.93,-19.9 -11.62,7.36 10.85,17.7 0,0 -2.15,1.61 -9.63,4.12 6.2,6.6 -0.11,24.2 -2.23,-1.18 -29,-9.82 -32.94,-9.38 -0.23,41.87 -32.1,0 0.44,157.65 0.48,29.68 0,0 -5.31,0.32 -33.6,-11.48 -22.4,-15.65 -23.21,-47.19 -15.24,-23.89 5.08,-1.26 4.39,-3.32 6.11,-3.44 1.44,-2.07 1.35,-5.9 1.26,-1.38 0.36,-3.84 -1.17,-3.35 -0.63,-0.1 -2.43,-3.15 -1.08,-3.94 0.18,-1.87 1.17,-1.38 -0.09,-1.58 1.08,-4.43 0,-1.08 -1.26,-1.87 0.72,-0.89 0.09,-3.15 0.9,-0.79 -0.9,-0.59 0.27,-2.66 -0.81,-0.98 0.27,-3.74 -0.18,-0.49 -0.72,-0.1 -0.18,-1.08 -1.8,-1.77 0.36,-2.76 -2.34,-1.87 -0.72,-1.28 -0.72,-0.2 -0.36,-1.87 -0.99,-0.69 -1.62,-0.1 -0.99,-1.18 -1.35,-6.31 -2.61,-1.68 -0.54,-1.67 -1.26,-0.49 -2.34,-3.15 -0.09,-1.08 -1.35,-0.99 -0.27,-4.14 0.54,-1.77 -0.45,-0.59 0.09,-3.65 1.35,-3.25 -0.45,-0.49 0.9,-1.58 2.88,-2.56 0.72,-1.48 -0.81,-6.71 -1.71,-3.95 0,-2.07 -1.89,-2.27 -0.54,-1.38 -2.52,0.99 0.27,-0.59 2.07,-0.59 -0.63,-1.48 -3.15,-3.75 -4.13,-2.66 -0.9,-1.78 0.27,-4.14 0.81,-3.36 -0.18,-1.97 0.63,-1.78 -0.63,-1.78 0.72,-2.17 -0.36,-2.76 -2.25,-6.91 0.18,-0.59 -0.63,-0.2 0.36,-2.17 -0.9,-3.46 1.08,-2.57 0,-0.49 -0.63,-0.2 0.09,-1.68 -0.72,-0.89 1.26,-6.62 -1.17,-1.48 0.36,-0.89 -0.81,-4.05 0.27,-2.96 -0.54,-1.58 0.72,-1.38 -0.45,-3.16 0.27,-3.66 1.53,-2.27 0.36,-3.46 -1.08,-6.62 0.27,-2.67 -0.63,-0.59 0.36,-2.47 -0.27,-3.66 -0.45,-0.3 -1.08,0.4 -0.36,-0.49 0.99,-1.38 0.09,-2.67 -0.54,-0.59 0.45,-0.89 -1.17,-7.62 1.08,-0.89 0.45,-1.19 -1.44,-2.08 -1.89,-0.59 1.98,-4.35 -1.44,-2.27 -1.35,0.5 -0.22,-0.98 0,-1.19 1.89,-3.46 -0.45,-2.67 1.17,-2.57 1.17,-4.55 0.09,-3.36 2.43,-6.14 -0.45,-0.79 0.18,-1.88 -0.81,-1.68 -1.35,-0.99 -1.35,1.49 -0.45,-1.58 1.26,-0.89 1.17,-1.88 3.69,-1.68 0.45,-0.89 1.62,-0.4 0.99,-1.29 1.35,-0.3 0.99,-1.09 -0.9,-0.4 0.36,-1.09 3.06,0.49 1.98,3.76 1.26,0.79 0.54,3.47 0.9,1.19 -0.36,0.79 0.36,1.58 2.34,0.89 0.72,3.17 -0.9,1.39 0.45,0.79 0.63,5.05 3.23,1.68 0.45,-0.5 1.26,0.2 2.88,-1.68 0.27,-0.99 -0.72,-0.69 0.45,-0.99 -1.08,-0.59 -0.54,0.2 -0.18,-1.39 -1.53,-1.19 -0.54,0.1 -0.27,-1.19 -0.9,-0.89 0.63,-0.3 -0.18,-0.49 1.08,0.3 0.72,-0.49 0.63,0.3 0.54,-0.3 -0.09,-0.69 -1.71,-1.98 0.18,-0.3 -1.89,-1.68 1.35,-1.29 0,-1.39 -1.62,-2.18 -0.99,-0.5 -0.63,-2.08 -2.16,0.2 -0.36,-0.49 0.36,-2.08 1.35,-2.77 -0.27,-1.19 2.16,-0.79 1.71,-3.17 0,-1.09 -1.08,-1.19 0.18,-0.69 1.26,-0.89 -0.27,-2.58 -0.45,-0.4 0.27,-0.79 -2.87,-6.04 0.72,-0.4 -0.18,-1.39 -1.26,-0.79 -2.52,0.1 -3.23,2.58 -1.35,-0.59 -0.99,0.1 -0.63,-0.59 0,-1.09 -0.9,-0.2 -0.36,-0.59 1.98,-3.57 -0.27,-0.4 0.72,-1.68 0.9,-0.2 0.72,0.5 0.9,-0.79 1.62,0.1 0.72,-0.59 -0.09,-1.09 0.54,-0.3 0.99,0.2 0,0.5 -0.72,0.5 0.18,0.69 0.9,-0.4 0.72,-1.78 1.53,0.4 2.25,-0.4 0.54,1.19 1.71,1.88 0.36,-0.1 -1.98,-2.18 -0.36,-1.39 2.25,-0.1 1.44,0.59 -0.09,-0.5 -1.8,-0.69 -0.09,-0.79 0.54,0.1 -0.54,-0.99 -1.44,-0.59 1.89,-0.5 0.27,-0.89 0.54,-0.2 -0.81,-1.09 0,-0.69 0.81,-0.5 -0.81,-1.59 0.27,-0.99 0.81,-0.6 0.81,0.2 -0.45,0.5 -0.09,1.39 0.9,2.78 2.25,0.3 0.45,-0.5 1.53,-0.1 0.81,0.5 0.63,1.49 -0.18,0.69 0.9,0.2 0.36,0.69 0.54,0 0.18,-0.79 0.45,-0.1 1.98,0.79 -0.18,2.18 -0.36,0.2 0.36,1.59 -0.54,1.49 -1.26,1.39 0.18,1.29 -0.9,2.08 0.09,0.99 -1.26,2.68 -1.26,0.59 -1.53,2.38 0.45,0.79 -0.27,2.58 1.53,0.99 1.62,-0.3 -0.09,1.39 0.81,1.88 -1.35,6.74 0.81,0.79 0.63,-0.59 2.16,-0.3 0.36,0.99 -0.63,-0.1 -0.09,0.59 0.72,1.09 1.26,-0.4 0.18,0.5 1.89,0.1 0.09,1.58 1.53,0.69 1.17,1.39 -0.63,2.87 3.6,2.48 0.18,-0.59 0.81,0.1 0.09,-0.89 -1.98,-2.08 0.18,-0.69 1.98,-1.39 0.63,-2.18 -0.81,-1.39 -0.99,-0.5 -0.36,-1.19 1.35,-1.19 -0.18,-1.98 0.72,-1.29 0,-2.67 2.16,-2.18 -1.62,-2.38 0.45,-1.19 -0.81,-1.19 1.35,-0.5 -1.08,-0.69 1.44,0 2.07,-2.28 -1.08,-0.2 0.36,-0.99 -1.26,-0.99 1.44,-1.59 -0.09,-0.4 1.53,0.3 1.44,-1.68 -0.36,-1.19 -1.08,-0.59 0.63,-0.5 0.54,0.3 0.9,-0.4 0.27,1.88 1.53,0.4 0.36,-0.99 -0.18,-0.69 -0.54,-0.1 0.09,-0.79 0.27,-0.2 0.36,0.7 0.54,-0.49 -0.27,1.98 1.35,1.19 0.63,1.98 0.99,0.1 0.72,1.19 3.95,-0.3 1.53,-1.49 -0.54,-3.47 -1.17,-0.69 0.45,-1.19 1.44,-0.79 0.99,-1.98 1.26,-0.59 0.36,-0.99 -0.72,-0.79 0.18,-0.99 -0.9,0.3 0.18,0.69 -0.54,1.09 -2.78,1.39 -1.35,-0.2 0.09,0.6 -3.14,-0.4 -1.8,-1.49 -2.69,2.08 -1.62,-0.4 -0.99,0.3 -1.26,-2.28 -1.98,-0.4 -0.18,-0.59 -1.89,-1.29 -1.26,-2.28 -0.72,0.3 0.09,-1.19 -1.62,-1.78 -0.09,-0.79 0.18,-1.19 0.81,0 -1.26,-2.48 0.18,-0.89 -0.72,-3.27 0.36,-2.18 0.81,-0.99 -1.08,-1.78 -0.72,-2.48 0.36,-0.79 -0.36,-0.4 0.72,-0.69 -0.99,-1.49 -1.44,-0.4 0.9,-0.99 -0.63,-0.3 0,-1.69 0.54,-1.39 0.81,-0.4 0.09,-0.99 1.71,-0.99 -0.27,-2.68 2.97,-1.09 0.36,-0.79 1.44,-0.79 -0.09,-1.29 0.63,-0.3 -0.63,-0.2 0,-0.69 0.63,-0.5 -1.71,-0.2 0.45,-0.99 -0.36,-0.5 -0.81,0 -0.09,-1.29 -0.72,-0.5 -0.54,-1.49 -0.36,-1.69 0.36,-0.69 -0.45,-0.3 0.81,-2.08 -0.36,-1.89 0.63,-0.5 -0.54,-0.69 0.54,-0.69 0.81,-0.3 0.45,0.3 0.36,-0.79 2.16,-0.99 0.63,-0.89 -0.18,-0.6 0.9,-0.2 1.62,-4.96 1.14,-0.69 z m 173.35,198.61 4.31,6.52 1.39,-1.44 -3.77,-6.18 -1.93,1.1 z" 
                fill="rgb(151, 144, 238)" 
                stroke="white" 
                stroke-width=".7px"
                title="Ar RayyÄn" 
                id="QA-RA" 
            />
        </svg>