<svg xmlns="http://www.w3.org/2000/svg" viewBox="67.46000000000011 0.7814641999999914 147.20999999999998 119.71999579999996" width="147.20999999999998" height="119.71999579999996">
            <path 
                d="m 85.88,65.271464 1.62,0.9 0.18,0.7 -0.45,0.3 -1.62,-0.3 -0.27,-1.09 0.54,-0.51 z m 23.01,-26.56 0.18,0.4 -0.54,0.5 -0.27,-0.8 0.63,-0.1 z m 40.34,-24.19 0.18,0.4 -1.08,0.2 0,-0.6 0.9,0 z m 12.76,-4.5799998 2.61,0.9999998 0.36,0.6 0.45,0 -0.18,-0.9 0.36,0.3 1.62,-0.5 0.18,0.6 -1.17,-0.1 0.09,1 -0.54,-0.9 0.27,1.89 2.34,0.5 0.72,0.5 -0.27,0.4 1.53,0.5 0.54,1 2.79,0.5 2.16,1.19 1.35,-0.2 4.22,1.59 1.71,1.2 0.9,1.39 2.97,1.19 0.99,1.59 0.99,0.3 0.72,-0.3 0.18,1.19 1.62,1.49 1.44,0.2 1.35,1.39 2.88,1 0.63,1.59 -1.17,4.78 0.09,1.59 0.99,2.49 -0.99,1.39 0,1.39 2.34,0.1 0.36,0.9 -1.26,-0.7 -1.62,0.4 0.27,3.98 2.07,3.38 0.9,0.4 1.08,2.69 3.5,3.18 -0.36,0.5 -0.18,-0.5 -1.44,-0.6 -0.18,0.8 1.62,1.69 6.47,3.78 0.45,4.97 -0.54,3.08 0.72,2.39 0,4.97 0.72,1.19 0.99,0 1.88,1.39 0,0 0.01,0.1 0,0 0.15,39.459996 -19.42,-0.47 -1.58,0.3 -1.63,-16.51 -23.92,0.09 -0.4,-19.489996 -49.11,0 0,36.249996 -50.16,0 0,0 -0.18,-1.27 -0.81,-0.6 0.09,-0.79 2.16,-1.89 0.45,-1.09 -0.63,0.4 0,-0.6 0.9,-1.99 0.54,-0.3 0.54,0.3 -0.27,1.29 0.45,1.39 1.17,0 2.25,-1.39 0.18,-0.7 -1.35,-1.29 -0.09,-0.79 -1.71,-0.99 -0.45,-0.89 1.17,-0.5 0.18,-1.29 1.35,-0.6 -0.18,-2.28 -0.54,-0.5 1.35,0.4 1.17,-0.3 1.08,-0.99 -0.18,-0.79 0.99,-0.2 0.54,-1.49 -0.18,-1.189996 0.45,-0.1 -0.54,-1.19 0.45,-0.1 0,-1.09 0.99,-1.09 -0.36,-2.09 0.54,-0.5 -0.63,-0.69 -0.63,-3.18 0.45,-3.38 -0.63,-1.59 0.45,-1.59 -0.27,-0.99 -1.08,-0.4 0.09,-3.18 -0.63,-0.6 -0.45,-2.09 0.9,-0.99 0,-2.09 0.54,0.4 0.27,-0.79 0.72,-0.2 0.36,0.99 0.9,0.7 0.81,-0.7 0,0.5 -1.08,0.9 0,0.6 1.08,1.09 0,1.29 -0.63,0.3 0.54,0.5 0.09,1.09 0.81,-0.2 0,1.09 0.54,0.89 0.63,0.1 -0.09,0.6 0.45,-0.3 0.81,0.3 -0.09,-0.99 0.63,-0.3 0,-0.52 0.54,0 0.99,-1.09 0.45,0.4 1.89,-1.39 -0.45,-0.6 0,-1.79 0.81,-0.9 -0.36,-2.98 0.54,-0.2 1.26,0.79 1.89,-0.4 0.63,-0.79 -0.09,-0.5 -1.17,-0.6 0.54,-1.89 -0.54,-0.89 0.36,-1.49 -0.54,-0.5 1.08,-1.69 -0.36,-1.59 1.17,0.2 0.27,-0.4 0.09,-1.39 -0.81,-1.29 0.36,-0.5 -0.36,-1.19 0.72,-0.2 0.27,-1.19 -0.45,-0.7 0.81,-0.8 -0.45,-0.3 -0.27,-2.09 -1.62,-0.9 0.09,-0.4 2.25,-0.1 0.45,-0.6 1.17,-0.1 1.53,-1.19 0.72,0 0.18,-0.5 4.22,-0.9 2.43,-1.19 1.98,-1.69 -0.18,-1.09 1.44,-1.29 0.72,-1.49 2.07,0.2 0,0.8 1.26,0.8 1.98,-0.89 0.27,-1.29 0.99,-0.1 1.35,-2.39 2.07,0.3 0,0.7 0.9,0.9 0.18,1.49 1.26,0.3 1.35,-0.4 0.99,-1.09 1.98,-0.8 4.58,-3.08 0.63,-0.99 -0.09,-2.09 1.08,-1.49 -0.54,-1.09 0,-1.39 0.63,-2.39 4.04,-3.28 1.26,-0.2 0.09,-0.9 1.71,-0.5 0.9,-1.1 0.99,-0.2 0.9,-2.39 -0.99,0 -0.9,-1.29 0.36,-0.9 0.81,-0.2 0.54,-1.49 0.63,0.1 0.09,2.59 0.54,0.3 2.34,-0.7 3.32,0.2 1.08,-0.5 0.36,-0.9 0.72,-0.4 1.26,0.5 0.9,1.1 1.44,0 2.43,-1.49 0.63,-1.79 1.26,-1.49 0,-0.7 1.62,-0.8 1.69,-0.2299998 z m -12.04,-9.16 0.9,1.99 0.9,0.4 2.16,-0.1 4.31,-1.49 1.71,0.4 1.53,1.2 -2.43,-1.1 -1.35,0 -1.71,0.5 -0.36,0.5 -2.43,0.4 -1.71,1.19 0,1.79 -0.62,-1 0.18,-1.69 -0.9,-0.6 0.27,-0.53 -0.27,0.03 -0.45,-0.7 0.27,-1.19 z" 
                fill="rgb(151, 144, 238)" 
                stroke="white" 
                stroke-width=".7px"
                title="Ash ShamÄl" 
                id="QA-MS" 
            />
        </svg>