<svg xmlns="http://www.w3.org/2000/svg" viewBox="211.16999999999996 189.71145999999987 47.60000000000002 103.18" width="47.60000000000002" height="103.18">
            <path 
                d="m 258.59,199.49146 0.09,1.68 -0.63,1.59 -0.9,-0.4 -1.8,1.59 -1.16,-0.5 -2.25,1.19 -2.79,-0.2 -1.52,1.89 0.72,1.39 -3.15,-0.3 -1.17,0.2 -0.27,0.59 -0.99,0 -0.71,1.29 -1.26,0.49 -0.27,1.59 -0.9,0.89 -0.09,1.19 0.63,0.3 -0.18,0.69 0.36,0.4 -0.54,0.2 -0.54,1.58 0.36,0.6 -0.9,0.59 0.45,1.49 0.81,0.49 -0.45,1.19 0.45,0.6 1.44,-0.6 1.43,0.3 -0.89,1.19 -0.18,2.97 -1.17,0 -0.54,1.29 -0.27,2.57 -1.44,5.05 -0.63,1.29 -1.08,0.3 -1.34,2.57 -0.09,2.38 0.54,2.57 1.88,1.39 0.9,0.1 0.54,1.38 1.08,0.6 0.18,3.46 0.99,2.48 2.24,0.59 0.45,0.7 1.17,0.39 3.86,-2.08 1.8,-0.49 4.04,1.09 -0.98,0.39 -2.43,-1.18 -1.71,0.19 -4.13,2.28 1.17,1.21 0,0 -11.84,0 4.25,20.44 2.28,6.24 -15.33,10.04 0,0 -11.46,-25.14 -1.06,-4.98 -0.29,-22.68 1.72,-19.06 0,0 -3.92,-20.49 1.96,0.12 2.31,-0.63 7.16,-7.14 2.65,-0.63 4.28,-2.55 11.43,5.6 10.16,0.51 7.65,2.88 0,0 z" 
                fill="rgb(151, 144, 238)" 
                stroke="white" 
                stroke-width=".7px"
                title="Az̧ Za̧`āyin" 
                id="QA-ZA" 
            />
        </svg>