<svg xmlns="http://www.w3.org/2000/svg" viewBox="192.40843999999998 398.53255 21.610000000000014 25.239999999999895" width="21.610000000000014" height="25.239999999999895">
            <path 
                d="m 194.59844,399.30255 3.11,-0.5 1.37,1.12 0.48,-0.52 0.79,0.06 -0.05,-0.64 1.14,-0.29 0.93,1.09 -0.07,1.1 0.93,0.76 0.92,-0.35 0.81,1.53 1.75,-0.91 1.22,0.28 -0.59,0.2 -0.09,1.45 2.13,0.08 1.48,0.73 0,0 0.55,0.92 1.26,0.3 0.52,1.18 0.83,0.03 -0.38,0.46 0,0 -0.86,1.39 0.4,1.67 -0.78,1.46 0.03,1.96 -0.92,1.04 0.86,1.01 0.43,1.77 -0.41,0.87 0.6,0.72 -0.03,2.91 -2.67,1.48 -1.22,0.11 -0.35,-0.68 -1.28,0.19 0.01,-2.45 -0.61,-2.1 -5.97,1.47 -2.31,-0.6 -0.46,0.69 -1.46,-0.21 -0.33,0.59 0,0 -1.01,-0.12 -0.83,-1.64 -1.28,-1.07 0.11,-1.13 -0.85,-1.44 0.98,-1.3 -1.02,-2.05 2.4,-2.97 -1.47,-2.06 0.49,-2.39 -0.69,-1.76 0.19,-2.35 0.94,-0.38 z" 
                fill="rgb(151, 144, 238)" 
                stroke="white" 
                stroke-width=".7px"
                title="Ang Thong" 
                id="TH-15" 
            />
        </svg>