<svg xmlns="http://www.w3.org/2000/svg" viewBox="398.28844 143.57255 63.44999999999993 47.90000000000012" width="63.44999999999993" height="47.90000000000012">
            <path 
                d="m 408.52844,176.50255 -0.36,-1.6 -4.62,-2.81 -1.83,-2.12 -0.39,-2.82 0.39,-1.3 3.08,-2.12 0.29,-2.62 -5.2,-2.11 -0.38,-1.01 0.28,-1.41 1.64,-1.31 -0.06,-1.2 0,0 0.42,-0.68 -0.84,-1.51 -0.69,-0.43 -1.31,0.16 -0.66,-0.84 0.03,-1.77 3.99,-4.23 2.87,-0.17 3.69,-1.03 3.52,1.69 4.78,-0.03 2.87,1.43 2.77,0.19 5.71,4.21 8.26,0.36 1.05,0.81 1.57,3.08 1.81,-0.64 2.61,-2.52 1.65,-0.73 1.5,0.03 1.31,1.18 4.79,7.09 3.22,7.5 5.45,6.42 0,0 -0.29,-0.32 -0.73,0.46 -0.11,1.27 -1.46,-1.47 -0.35,0.66 -2.22,0.76 0.45,2.01 1.41,1.6 -0.88,1.62 -2.57,1.97 -1.07,1.52 -1.62,-0.75 0.1,-0.93 -0.56,-0.38 -0.81,-0.1 -0.96,1.13 -1.2,0.11 -1.08,2.31 1.38,0.72 -0.28,0.53 0.94,0.79 -0.15,0.83 0.45,0.61 0,0 -1.09,0.19 -0.05,1.34 -0.82,0.05 -0.52,1.3 -0.66,-0.63 0.25,-0.34 -1.05,0.67 -1.07,-0.65 -0.56,-1.6 -1.14,-0.96 0.55,-0.98 -0.17,-1.58 -0.47,-0.27 -1.04,0.74 0.33,-2.26 -1.98,0.36 -0.7,0.83 0.2,-1.06 -0.84,-0.29 -1.37,0.94 -2.61,-0.49 -0.11,0.44 1.12,0.91 -1.11,1.11 -2.04,-2.91 0.21,-0.52 1.29,-0.07 -0.8,-1.13 0.48,-1.67 -1.71,0.7 0.56,-2.35 -1.29,3.11 -1.68,-1.08 -0.36,-1.13 -0.82,0.23 0.04,-0.39 -1.42,-0.82 -1.46,0.38 0.41,-1.15 -0.32,-0.46 -0.75,0.71 -0.88,-0.05 -0.08,-0.91 -0.83,0.59 -0.26,-2.4 1.35,-0.76 -2,-0.04 -1.11,-2.6 -0.47,0.19 -0.04,0.66 -0.55,-0.08 -1.35,-1.64 -1.1,-0.17 -0.27,-0.62 0.54,-0.33 -0.38,-0.79 -0.34,1.46 -1.43,-0.43 -0.73,0.43 -0.01,0.69 -0.52,-0.49 -0.22,0.32 0.3,1.26 -0.47,0.23 0.86,2.94 -0.44,0.62 -0.4,0.15 -1.38,-1.23 -0.41,1.17 -1.1,-0.38 -0.67,0.79 0.88,0.38 -0.36,0.76 -2.65,-1.86 z" 
                fill="rgb(151, 144, 238)" 
                stroke="white" 
                stroke-width=".7px"
                title="Bueng Kan" 
                id="TH-38" 
            />
        </svg>