<svg xmlns="http://www.w3.org/2000/svg" viewBox="343.2284400000005 329.55255 72.30999999999972 115.41999999999979" width="72.30999999999972" height="115.41999999999979">
            <path 
                d="m 376.88844,329.55255 0.71,2.01 2.03,0.66 1.08,1.68 0.69,-0.45 0.49,0.75 -0.14,0.82 0.52,0.92 -0.36,1.31 -2.02,1.01 -0.09,0.69 2.57,2.3 0.06,0.88 0.93,1.03 1.75,0.54 -0.43,1.98 1.38,0.7 0,0 0.92,0.5 0,0 0.71,1.08 -1.09,1.29 -0.15,1.03 2.69,1.16 0,0 0.2,0.94 -0.63,0.7 0.3,0.48 -1.33,2.26 1.14,0.25 0.68,0.92 1.13,0.05 0.23,-0.79 0.48,0.68 -0.29,0.92 0.5,0.53 0.33,-0.23 0.14,0.43 -0.44,0.22 0.99,0.81 -0.43,0.71 0.99,-0.71 0.48,0.23 0.16,-0.52 0.93,0.18 0.13,0.47 -0.62,0.06 0.62,1.51 1.02,-0.45 -0.1,0.71 0.64,-0.17 -0.03,0.87 0.73,0.38 0.07,-0.5 0.83,0.43 0.6,-0.37 -0.23,1.06 0.72,-0.48 0.44,0.22 -0.02,-0.48 1.28,-0.06 -0.27,0.88 0.62,0.45 1.05,-1.39 0.75,-0.02 -0.17,-0.56 0.97,-0.22 0.02,-0.48 0.65,0.15 0.21,-0.6 0.49,0.3 0.06,-0.54 0.77,0.15 -0.04,0.48 0.87,-0.04 0.74,0.84 0.8,-0.48 0.19,0.38 -0.89,0.58 1.18,0.85 1.04,-0.56 0.7,0.53 0.44,-1.81 0.99,-0.04 -0.6,-0.28 0.36,-0.4 0.8,0.65 0.17,-0.44 0.68,0.32 -0.14,0.89 0.97,0.43 0.1,0.53 0.44,-0.35 0.29,0.6 0.42,-0.44 -0.37,1.01 0.47,0.54 -1.59,-0.25 -0.73,1.04 -0.53,-0.11 -0.17,1.73 -1.21,-0.41 0.39,0.53 -0.81,1.26 0.14,1.16 -0.57,0.4 0.51,0.54 -1.14,0.32 -0.03,0.99 0.67,0.38 -0.54,0.97 0.54,0.65 -0.55,0.54 0.52,0.7 -0.29,0.84 0.59,0.47 -0.39,1.2 0,0 0.8,-0.27 -0.04,0.69 0,0 -0.46,-0.05 -0.19,1.16 0.9,-0.3 -1.28,1.54 0,0 0.71,0.35 0,0 0.97,1.03 -0.65,1.05 -1.12,0 -0.79,1.88 1.14,0.64 -0.42,0.47 0.71,0.58 -0.7,0.08 0.6,0.41 -0.83,0.95 0.74,1.09 -0.15,0.9 -0.5,0.68 -1.06,-0.03 -0.24,1.27 0.42,0.25 -1.03,0.22 0.16,0.62 -0.87,0.67 0.34,0.33 -0.88,0.62 0,0 -0.31,0.27 0,0 -1.04,1.27 -0.67,0.1 0.35,0.54 -1.18,-0.1 -1.09,1.27 0,0 -0.19,-0.02 0,0 -0.16,0.43 -0.91,-0.3 -0.36,0.33 0.23,1.57 -0.71,0.11 -1.07,1.08 0.55,2.13 -1.09,3.39 0.09,1.14 -1.83,1.7 0.3,2.05 -1.64,1.65 -0.19,1.21 0.74,0.8 0.12,1.23 -0.66,0.55 0.35,1.74 0,0 -0.28,0.59 0,0 1.42,1.59 -0.06,0.97 0.86,1.84 -0.74,2.22 -1.02,0.56 0.75,0.88 -0.71,0.73 0.38,3.51 0,0 -0.52,0.26 -3.42,-0.77 -0.99,1.42 -0.82,-0.85 -0.84,0.44 0.11,0.88 -0.46,0.37 -2.76,0.39 -0.56,0.73 -1.13,0.04 -0.1,0.81 -1.66,1.64 -0.57,1.29 -0.79,-0.04 -0.97,1.21 -2.92,0.43 -0.88,0.77 -0.05,0.75 -0.74,0.63 0,0 -2.07,0.87 -1.57,-0.63 -0.39,1.59 0,0 -1.41,-0.56 0,0 -1.2,-0.69 -0.12,0.71 -1.17,-0.98 -0.82,0.87 -0.51,-0.89 -0.61,1.14 -0.43,-0.43 -0.64,1.3 0,0 -1.03,0.3 0,0 -1.14,-0.17 -2.69,0.72 -0.68,-1.26 -1.95,-1.12 -1.52,1.13 -1.76,-1.53 -3.9,2.51 -1.87,-0.55 -1.35,0.75 -1.27,-0.64 -0.62,0.69 -1.2,-0.32 -0.28,-0.53 -1.04,0 -0.32,-0.61 0,0 0.45,-0.76 0,0 0.7,-1.55 0,0 0.27,-0.54 1.03,0.14 0.53,-0.58 1.53,0.87 0.89,-0.93 1.84,-0.09 0.68,-1.02 1.8,-0.57 3.19,-2.73 4.27,-2.34 -3.12,-1.9 -2.54,0.22 -1.06,-0.87 -0.3,-1.57 -0.95,-0.3 -0.4,-0.92 0.45,-3.56 0.9,-1.23 1.1,-0.15 0.71,-3.25 -7.72,-0.79 -0.88,-0.53 0.73,-1.6 0.19,-2.01 -1.69,-3.58 0.4,-2.32 -1.17,-3.91 0.52,-1.16 1.53,-0.72 -0.61,-0.18 -0.72,-1.76 -1.71,-1.24 -0.27,-1.36 0.53,-1.53 0.79,-0.91 1.1,1.46 1.64,0.8 2.14,-0.75 1.35,-3.31 -0.74,-2.68 1.77,-1.93 -1.28,-1.45 1.55,-0.66 1.98,1.5 6.47,0.15 0.87,-1.49 -0.18,-0.98 0.48,-1 1.25,-0.77 1.18,0.17 0.44,-1.16 -0.2,-1.34 1.91,-0.8 -0.59,-1.2 0.11,-0.9 -0.86,-0.53 1.17,-0.75 2.53,-3.69 0.94,-0.32 1.21,-1.6 1.77,-0.23 1.35,-1.07 2.63,0.43 2.19,-0.68 0.54,-1 -0.99,-1.02 0.12,-1.31 -0.43,-0.76 0.39,-0.73 -0.44,-0.68 0.89,-1.47 -1.04,-1.54 1.03,-1.25 1.52,-0.17 0.12,-0.9 -0.45,-0.45 0.13,-1.1 -2.09,-0.72 -0.31,-1.49 0.31,-0.19 0,0 0.09,-0.35 0.24,0.32 0,0 0.62,-1.41 0.6,-0.1 -0.06,0.75 0.3,-0.71 0.57,0.86 0.61,-0.87 0.78,-0.09 -0.15,-0.6 -2.14,-3.14 -0.67,0.29 -0.19,-0.53 -1.01,0.6 -0.29,-0.39 -0.38,0.56 -0.28,-0.24 0.58,-0.81 -0.36,-0.49 -0.38,0.59 -0.37,-0.44 0,0 -0.35,-0.52 0,0 0.53,-0.37 -1.22,-0.05 -1.09,-0.9 -0.53,0.51 -0.33,-0.68 -1.33,1.07 -2.19,-0.53 -0.12,0.71 -2.12,-1.68 0.07,-0.73 -0.67,-0.5 0.23,-0.57 -0.79,-0.55 0.24,-1.48 -0.5,-0.62 0.31,-0.52 -0.74,-1.5 0.57,-0.44 0.01,-1.16 0,0 2.43,0.92 3.44,-1.24 0.9,-2.98 -0.14,-5.26 1.24,-1.32 z" 
                fill="rgb(151, 144, 238)" 
                stroke="white" 
                stroke-width=".7px"
                title="Buri Ram" 
                id="TH-31" 
            />
        </svg>