<svg xmlns="http://www.w3.org/2000/svg" viewBox="236.49843999999985 455.60254999999995 76.85999999999996 54.99000000000024" width="76.85999999999996" height="54.99000000000024">
            <path 
                d="m 240.90844,456.76255 8.8,-1.16 6.24,0.51 0,0 0.99,1.29 0,1.36 0.56,-0.09 -0.57,1.45 0.2,0.98 -0.6,0.29 0.31,0.3 0.61,-0.51 0.11,0.39 -0.61,0.73 -0.61,-0.53 -0.27,0.32 0.36,0.83 1.07,0.55 -0.73,0.75 1.69,-0.4 1.78,-1.41 1.34,0.12 0.03,-0.62 1.55,0.55 0.36,0.8 1.93,-0.87 3.32,0.83 0.56,-0.23 0.46,0.73 0.49,-0.72 1.25,0.42 0.76,-0.59 0.14,1.69 3.09,0.74 0.69,0.69 2.15,0.27 1.28,1.35 2.52,1.14 0.11,0.73 1.67,-1.34 0.5,1.78 0.99,0.6 1.17,1.76 3.32,-0.78 1.85,0.62 0.92,-1.8 0.91,-0.36 0.3,-1.53 2.11,-0.34 1.12,-1.14 2.77,3 -0.12,1.04 0.62,0.97 -0.42,0.24 0.01,1.06 0.64,0.9 -0.05,0.89 1.5,-0.72 1.03,0.56 -0.01,4.12 1.79,0.58 0.52,1.63 0.88,0.61 0.44,1.02 1.38,-0.29 0,0 -0.92,2.64 -2.48,0.65 0.8,0.96 1.4,0.35 0.6,1.96 0.81,0.94 1.27,0.13 0.44,0.91 -0.22,1.29 2.6,2.48 -0.22,1 0.61,0.9 -0.01,1.37 0.56,0.48 0.01,1.37 0,0 -1.45,0.58 -1.42,2.19 -1.21,0.3 -0.06,-0.47 -1.5,0.57 0.02,1.07 -0.56,0.6 0.22,1.93 -0.65,0.54 -0.53,-0.64 -0.66,0.95 -0.35,-1.9 -1.25,0.21 -0.84,0.93 -0.64,-0.22 -0.53,1.25 -2.12,1.17 -1.09,1.21 -0.92,-0.28 -0.4,0.47 -0.76,-0.32 -0.69,0.5 -0.82,-0.15 0,0 -0.37,-1.69 -1.34,-1.16 -1.75,-3.52 -1.9,-1.36 -2.68,-0.69 -1.25,-2.03 -1.15,0.04 -1.6,-5.29 -0.93,0.12 -2.44,-1.24 -0.5,0.64 -2.07,0.57 -0.66,-1.08 -1.22,-0.58 -0.09,-1.63 -1.87,0.25 -1.93,-0.48 -1.06,-1.49 -3.72,-3.1 -0.93,-1.74 -2.04,-1.26 -6.82,-2.12 -1.51,2.15 -0.62,0.31 -0.52,-0.38 -1.19,1.09 -2.59,0.06 -0.76,-0.39 -0.26,0.57 0.91,0.34 1.14,1.9 -2.57,1.46 0.02,0.88 -1.65,1.34 -1.41,0.05 -0.65,-0.53 0,0 0.5,-0.78 -0.21,-1.45 -0.58,0.46 0.23,0.95 -2.46,1.36 -6.15,-1.13 0,0 0.24,-1.09 1.3,0.32 0.05,-2.27 1.14,-2.73 1.04,0.61 0.69,-1.09 -0.52,-1.44 1.11,-0.17 2.43,-2.66 0.2,-0.75 -1.01,-0.67 0.47,-0.72 -6.34,-2.32 0,0 -0.39,-0.25 3.67,-6.17 1.91,-1.66 -3.08,-2.5 0.69,0.1 0.26,-0.81 0.52,-5.83 0,0 z" 
                fill="rgb(151, 144, 238)" 
                stroke="white" 
                stroke-width=".7px"
                title="Chachoengsao" 
                id="TH-24" 
            />
        </svg>