<svg xmlns="http://www.w3.org/2000/svg" viewBox="268.04843999999997 264.3225499999998 77.02999999999997 98.51999999999987" width="77.02999999999997" height="98.51999999999987">
            <path 
                d="m 271.66844,344.59255 2.42,-10.9 -0.95,-0.63 -0.57,0.59 -3.26,-1.28 -0.16,-1.56 -1.1,-0.84 0.94,-0.93 -0.31,-0.25 0.37,-1.51 -0.49,-0.29 0.47,-0.96 -0.34,-0.45 0.36,-1.94 1.42,-0.59 1.49,-2.12 -0.93,-0.33 0.89,-3.01 -1.11,0.32 -1.09,-1.57 -0.05,-1.93 -1.2,-1.95 1.06,-4.49 0.19,-3.29 1.48,-2.24 1.24,-0.29 -0.67,-2.22 0.26,-1.44 -1.61,-0.85 1.55,-1.13 -0.26,-1.44 0.76,-1.68 0.18,-2.88 1.77,-1.56 0.07,-0.76 -0.66,-0.61 1.24,-0.79 0.45,-1.27 1.37,-0.7 0.21,-1.29 1.51,-1.61 -0.65,-1.6 0.62,-1.91 0.75,0.27 0.81,-0.97 1.57,-0.67 -1.54,-1.57 0.27,-2.72 1.75,-0.71 -1.15,-2.54 0.12,-1.62 1.08,0.02 0.77,0.94 0.69,-0.16 0.87,1.3 0.69,0.02 0.38,-1.62 -1.57,-2.87 -0.01,-1.19 2.13,0.36 0.52,1.14 0.76,0.08 0.89,1.46 1.08,0.44 1.5,-0.55 1.8,0.04 2.94,2.55 1.46,-1.18 0,0 0.41,1.14 0.72,-0.21 0.95,0.59 -0.27,1.28 2.09,-1.69 1.14,0.17 0.46,-0.57 1.57,0.08 0.13,0.53 0.98,0.02 0.28,0.48 1.1,-0.15 1.1,0.67 -0.01,0.48 0.44,-0.41 0.47,0.46 0.52,-0.47 1.52,-0.05 0.5,0.41 -0.19,0.6 1.58,0.64 0.41,0.99 -0.35,0.6 0.92,0.34 -0.17,1.17 2.29,0.59 0.1,0.92 0.52,0.24 0.02,1.54 0.74,0.79 2.01,0.42 -0.36,0.6 3.71,-0.03 2.32,-0.61 1,0.83 0.7,-1.05 0.67,0.54 0.71,-0.4 4.32,3.42 0.66,-0.31 1.55,0.97 1.16,-0.75 0.38,0.75 2.81,-0.53 0.04,1.03 0.54,0.16 0.65,-0.66 1.11,-0.08 -0.33,-0.86 0.43,-0.59 0.89,3.05 3,2.23 -0.74,1.04 -0.27,2.46 -1.62,3.01 -0.59,2.13 0.2,1.31 -8.99,12.09 1.5,2.62 0.69,-0.26 0.99,0.8 0.75,-0.52 0.91,0.86 0.2,1.44 2.1,0.85 -0.15,0.95 -1.34,1.07 0.66,1.31 -0.39,-0.11 -0.29,1.02 -0.62,0.19 0.46,0.15 -0.59,1.9 -0.88,0.86 -0.2,0.99 -1.15,0.5 0.03,1.22 -0.35,0.09 0.59,0.92 -0.31,0.56 0.43,0.27 0.08,1.31 0,0 -1,-0.32 -0.36,1.06 -0.98,0.52 -2.4,0.27 0.08,0.64 -0.85,1.03 0.27,0.46 -1.3,0.46 -1.14,-0.72 0,0 -0.66,-0.18 0,0 -0.22,1.21 -0.9,0.04 -0.13,-0.62 -1.4,0.19 -0.1,0.53 -0.52,-0.31 -0.02,0.78 0.45,0.27 -0.59,0.03 -0.25,1.34 -0.43,0.01 0.23,1.51 -0.67,1.01 -0.6,-0.01 -0.01,1.38 -0.3,-0.24 -0.13,0.64 -1.24,0.48 0.2,0.44 -0.44,-0.2 -0.48,0.58 -0.19,-0.48 -0.27,0.85 -0.71,-0.12 -0.84,2.98 -1.54,2.37 0.3,1.29 -0.73,1.99 0.08,1.77 -1.6,1.25 -0.93,-0.59 -2.33,0.77 -2.06,0.05 -2.27,3.6 -1.22,0.93 -4.87,-2.82 -0.62,0.38 -0.81,2.12 -1.08,0.73 -2.78,-0.06 -1.71,-0.86 -1.25,0.23 -1.82,-0.7 -1.17,0.46 -1.35,2.23 -1.54,-1.16 -2.07,0.53 -3.08,-0.24 -1.85,1.23 -1.42,-0.8 -2.34,-0.2 -1.13,1.38 0.12,0.93 -0.93,1.07 0.18,0.45 -1.49,-0.31 -0.31,-0.66 0,0 -0.64,-3.14 0.67,-7.53 z" 
                fill="rgb(151, 144, 238)" 
                stroke="white" 
                stroke-width=".7px"
                title="Chaiyaphum" 
                id="TH-36" 
            />
        </svg>