<svg xmlns="http://www.w3.org/2000/svg" viewBox="292.8784400000001 499.7925499999994 57.42000000000007 70.64000000000061" width="57.42000000000007" height="70.64000000000061">
            <path 
                d="m 339.04844,564.49255 -1.97,1.73 -0.28,0.14 -0.12,1.99 -1.46,0.9 -0.65,1.18 -1.42,-0.95 -0.45,-1.31 0.44,-0.6 -0.86,0.05 -0.26,-1.43 1.97,-0.48 -0.9,-1.24 0.27,-0.72 -0.37,-0.46 -0.51,1.73 -1.22,-2.13 0.69,-1.66 -2.73,1.22 -0.69,-1.32 -0.07,0.35 0.31,1.04 -1.14,1.14 2.17,-0.93 0.86,0.74 -1.05,1.78 1.46,-0.04 0.34,2.25 1.23,1.65 -0.13,1.1 -1.37,0.21 -6.24,-6.21 -1.7,-0.98 -0.57,-0.05 -0.09,0.53 -0.49,-0.25 0.43,-0.76 -1.24,-2 -3.15,-2.25 0.73,-2.02 2.3,1.85 -0.07,-0.69 -1.97,-1.47 0.45,-0.48 0.73,-0.08 -1.63,-0.51 -1.35,0.06 -0.19,0.29 1.1,-0.05 -0.5,2.76 0.34,1.11 -1.09,-0.17 -0.22,-0.69 0.19,-0.79 -0.16,-0.48 -1.55,-1.58 -2.32,-1.2 -2.32,0.08 0.58,-1.49 -0.3,-0.7 0.66,-0.63 -0.88,-1.03 -1.03,0.5 0.84,2.67 -0.24,1.2 -1.01,-0.32 -2.07,-2.27 -0.59,0.02 -0.35,-0.85 1.59,0.45 -0.17,-1.39 -0.79,-0.5 -0.68,0.16 -0.08,0.86 -1.08,-1.87 -0.24,-1.85 -2.45,-2.04 -2.75,-1.43 0,0 0.41,-0.53 -0.4,-0.64 0.93,-0.74 0.1,-1.73 0.41,-0.6 0.43,0.43 0.51,-0.34 -0.08,-3.19 0.84,-1.6 -0.59,-2.65 0.23,-0.87 -0.69,-1.81 -0.49,1.04 -1.19,-3.87 -0.77,-0.66 -1.5,0.81 -1.18,-1.26 0.01,-1.7 1.4,-2.69 -0.42,-0.94 -1.82,0.47 -0.71,-0.44 -1.54,-3.84 0.45,-1.14 -0.98,-0.54 0.79,-2.46 0,0 1.06,-0.72 0.39,-1.24 0,0 0.82,0.15 0.69,-0.5 0.76,0.31 0.41,-0.46 0.92,0.28 1.09,-1.21 2.13,-1.17 0.53,-1.25 0.64,0.22 0.84,-0.93 1.25,-0.2 0.35,1.9 0.66,-0.95 0.53,0.64 0.65,-0.54 -0.22,-1.93 0.57,-0.6 -0.03,-1.06 1.5,-0.57 0.06,0.46 1.22,-0.3 1.42,-2.19 1.45,-0.58 0,0 1.59,3.01 1.5,0.4 -0.43,3.23 1.92,-0.27 1.01,-1.02 2.48,-0.59 0.63,-0.92 0.79,-4 0.54,0.25 0.98,2.34 2.41,-0.28 1.04,3.03 1.14,-0.42 3.21,0.6 1.21,-0.33 0.63,-1.64 -0.28,-1.08 0.46,0.67 0.88,0.22 1.49,-2.05 0.96,1.27 0.42,-0.03 0,0 -0.27,1.5 1.2,1.02 0.22,1.77 1.52,2.59 0.39,2.92 1.26,1.33 -0.08,0.98 1.09,1.34 0.17,0.97 1.73,0.6 2.32,4.68 2.44,0.8 -0.96,0.75 -0.52,-0.29 -1.54,1.19 1.02,1.18 -1.03,0.94 1.6,3.61 -0.08,1.98 -0.68,0.51 1.14,1.22 0,1.19 0.98,0.38 -0.09,1.48 0.53,0.87 -0.27,1.16 -0.95,1.02 -0.59,-0.07 0,0 -1.14,-0.38 -1.28,1.47 -2.24,-0.1 -1.12,0.96 -0.07,0.78 -1.56,0.86 -0.48,1.33 -0.61,0.08 0.39,3.12 0.72,1.21 -0.91,0.78 2.11,1.68 0.27,0.7 -1.63,0.08 -1.23,-1.04 -0.34,-0.91 -1.09,0.06 -0.81,0.38 -0.55,1.45 -2.26,1 0.75,1.09 -0.01,1.9 0.94,0.51 0.8,1.56 -0.31,1.17 -1.15,0.82 0.67,0.45 -0.3,1.24 2.83,1.68 0.17,0.6 z" 
                fill="rgb(151, 144, 238)" 
                stroke="white" 
                stroke-width=".7px"
                title="Chanthaburi" 
                id="TH-22" 
            />
        </svg>