<svg xmlns="http://www.w3.org/2000/svg" viewBox="45.188435999999996 23.10255 105.16000400000001 203.07999999999993" width="105.16000400000001" height="203.07999999999993">
            <path 
                d="m 146.57844,23.10255 0.59,0.62 2.94,0.97 0.24,1.08 -5.17,2 0.06,1.1 1.93,1.12 0.15,0.56 -1.26,-0.92 -2.26,1.36 0,0 -0.24,0.31 0,0 -0.14,0.46 0.76,0.72 -0.85,0.61 -1.26,2.16 -0.93,0.84 -0.83,0.03 -0.45,1.86 0.38,1.33 -1.46,0.51 -1,1.4 0.29,1.97 1.66,1.38 -0.26,0.95 0.74,1.22 -1.92,0.08 -0.93,1.29 -0.09,0.98 -0.96,0.33 -0.16,3.51 -0.78,0.26 -0.25,0.87 -2.08,0.28 -1.33,2 -1.98,1.17 -0.4,1.13 0.57,2.63 1.18,0.51 0.94,2.86 1.26,0.68 0.54,0.99 -1.61,1.6 -0.45,1.5 0.17,0.53 0.78,0.09 -0.16,0.97 0.73,1.3 -0.51,1.89 1.25,1.98 0.27,2.82 -1.04,0.77 1.47,3.8 0.24,1.99 -2.14,3.1 0.25,1.15 -0.74,1.09 0.19,1.19 0.86,0.77 0.17,3 1.56,2.61 1.22,0.36 0.22,0.89 1.19,0.44 -0.12,1.05 1.3,3.4 0,0 -1.81,1.17 0.09,1.65 0.73,1.11 -0.54,1.54 0.85,2.6 -0.35,1.25 -2.26,1.51 -0.1,0.7 1.35,4 0.02,1.85 -1.55,1.45 -1.38,3.44 0.39,1.16 1.04,0.9 -1.37,0.99 0.02,1.69 1.18,0.1 0.89,0.82 -0.72,0.88 0.31,0.93 -1.57,0.54 -0.23,2.04 -0.65,0.7 0,0 -1.39,-0.35 -2.3,-2.42 -2.92,-1.44 0.32,-1.1 0.8,-0.68 -0.09,-2.32 -1.83,-0.64 -1.22,-1.41 -0.07,-1.96 -2.16,-0.21 -1.34,0.63 -0.68,1.16 -0.87,0.39 -2.48,-0.16 -1.65,0.93 -2.7,-0.39 -0.46,2.07 -1.82,0.64 -0.83,1.41 0.26,0.88 -2.46,3.44 0.15,0.81 -3.61,2.24 -0.93,-0.25 -0.77,1.05 -0.58,-0.51 -0.5,1.34 -1.370004,0.9 -0.43,0.87 -2.47,0.95 -0.78,1.03 -1.47,0.25 -1.12,-1.01 -0.54,0.83 -0.78,-0.44 -0.94,1.67 0.35,0.43 0.62,-0.41 0.02,0.35 -1.21,1.38 -0.62,1.62 1.53,2.37 -2.07,0.57 0.14,0.92 -0.67,0.85 2.94,1.09 4.5,2.57 -0.17,1.37 0.81,1.03 -0.14,2.59 0.6,1.26 0.85,0.46 0.33,2.76 -0.77,2 1.04,0.57 -1.08,1.53 -0.28,1.99 -1.06,1.86 2.04,-0.39 1.730004,1.42 -0.11,1.04 0.58,0.59 2.07,8.1 -0.65,-0.39 -0.52,0.53 0.09,2.41 -2.280004,1.2 -1.52,0 -0.26,-1.83 -0.78,-0.68 -1.39,2.16 -1.45,-0.2 -1.03,0.77 -0.62,-0.28 -2.13,0.48 0.36,0.99 0,0 -0.76,1.24 -2.82,1.58 -0.71,-2.53 -1.24,-0.84 -0.76,-1.24 -0.93,0.08 -0.73,-0.61 -0.86,0.98 -2.73,-2.01 -0.59,0.82 -1.09,-0.07 -0.01,1.16 1.09,0.6 -0.43,2.08 1.44,3.7 -0.23,1.67 0.68,4.35 2.08,0.37 1.55,2.54 -2.8,1.4 -1.72,3.45 0.36,1 -0.37,1.27 0.5,1.42 1.68,1.01 0.49,0.82 -0.24,2.57 -1.18,2.27 1.63,0.84 -0.49,0.95 0.41,1.2 -0.19,1.92 1.38,-0.28 -0.25,0.85 -2.84,0.72 -0.99,-0.41 -1.41,0.37 -0.64,-1.11 0.39,-0.72 -0.7,0.64 0.25,-0.65 -1.98,-0.89 -1.3,0.7 -2.73,-0.14 -1.7,0.52 -0.7,0.72 -2.11,-0.95 -0.88,-1.29 0.98,-0.59 0.11,-1.44 -1.05,-1.19 0.13,-0.87 -1.89,-2 2.04,-0.63 0.37,-0.89 -0.51,-1.17 0.62,-1.75 -1.02,-3.92 -0.52,-0.44 0.11,-0.72 -0.65,-0.86 0.28,-0.79 -0.38,-0.65 -1.96,-0.23 -2.03,2.08 -1.86,0.66 -2.08,0.2 -0.74,-0.67 -2.05,0.4 -0.74,-1.8 -1.26,-1.2 -0.14,-1.97 -1.01,-1.79 0,0 2.27,-1.56 1.37,-1.6 0.53,-3.4 -1.17,-2.02 0.75,-1.27 -0.93,-1.31 -1.55,0.08 -1.46,-0.99 -0.96,-1.36 -0.4,-1.83 -0.96,-1.1 -1.47,-0.44 -0.46,-1.02 -0.96,-0.29 0,-2.09 0.44,0.26 0.47,-1.16 4.37,-1.78 3.67,1.87 0.75,-1.7 1.01,-0.96 3.9,-1.17 1.12,0.07 -0.72,-2.65 1.56,-0.67 0.52,-0.84 0.63,0.28 1.03,-2.17 -0.18,-0.63 -1.3,-0.15 -1.32,0.69 -0.39,-0.8 -0.82,-0.14 0.08,-0.62 -0.75,0.68 -0.95,-0.01 -1,-1.78 -1.62,-0.31 0.09,-1.56 -0.75,-1.54 0.62,-0.33 0.1,-1.03 0.58,-0.57 -0.63,-0.96 0.38,-0.99 -1.66,-0.67 -0.8,-2.77 0.63,-1.21 3.19,-0.06 0.66,-0.47 -1.98,-0.62 0.05,-2.83 -0.7,-1.08 -1.15,-0.53 -1.51,-2.34 0.1,-0.74 -2.1,-1.02 -0.81,0.24 -0.55,-0.79 0.61,-1.26 1.55,-0.82 1.1,-3.14 2.14,-0.71 1.11,-0.94 0.3,-1.5 2.31,0.68 1.86,-2.28 -0.58,-1.14 -1.03,-0.35 -0.16,-1.2 -1.8,-0.14 -0.06,-0.99 -1.8,-0.38 -0.78,-0.7 -1.83,0.29 -0.79,-0.97 0.45,-1.52 -0.49,-0.54 -0.33,-1.79 0.46,-0.76 -0.72,-1.79 1.62,-1.36 0.06,-1.16 -0.86,-0.37 -0.73,0.33 -0.57,-0.61 -0.66,-2.64 0.65,-2.82 2.4,-3.31 2.19,-0.84 0.02,-1.25 0.58,-0.13 0.44,-0.86 -0.59,-2.15 0.41,-1.31 0.99,-0.93 0.38,-2 1.01,-0.49 1.42,-2.79 1.64,-1.45 -0.68,-2.28 0.83,-1.43 0.79,0.53 5.25,0.12 0.74,4.09 1.14,0.57 0.12,1.38 0.95,0.41 0.98,1.72 1.34,0.58 1.27,-1.4 3.45,0.51 2.52,1.11 1.2,-0.1 1.49,-1.36 1.69,0.15 2.67,-1.34 1.26,-2.07 -1.26,-4.57 -0.67,-0.1 -1.12,-1.55 -1.44,-0.6 -1.13,-1.58 0.05,-0.43 0.96,-0.08 1.05,-0.91 -0.63,-2.22 1,-1.3 -0.63,-0.6 0.44,-1.45 -0.8,-1.72 0.39,-1.52 -0.96,-0.93 -0.5,-1.6 0.28,-0.58 1.12,-0.39 -0.56,-0.88 -0.07,-1.98 0.96,-1.86 -0.27,-1.42 -1.11,-1.38 -0.67,0.05 -0.2,-2.72 -1.54,-0.86 -0.27,-3.72 -4.69,-3.58 -0.06,-2.07 0,0 2.86,-1.92 3.73,3.27 0.49,-2.27 1.01,-0.68 2.44,-0.03 0.13,-0.92 2.41,-0.74 0.51,-0.91 2.88,-1 1.83,0.72 0.81,-0.48 1.74,0.61 1.3,-1.67 2.060004,-1.22 0.37,-1.29 0.48,-0.2 1.02,1.17 3.63,2.39 0.56,1.54 0.76,-1.03 0.13,-1.24 0.96,0.4 1.27,1.89 1.18,0.52 0.75,-3.46 0.79,0.07 0.78,-0.91 1.04,-2.8 0.24,-1.5 -0.69,-0.67 -0.08,-4.51 1.32,-0.21 0.14,-1.32 -0.95,-1.59 0.42,-1.31 1.18,-0.92 -0.69,-0.96 0.01,-1.44 0.84,-1.84 0.75,-0.46 0.03,-1.48 0.59,-0.82 0.93,0.26 0.82,0 1.97,-0.57 -0.16,-1.02 2.17,-0.89 1.32,0.41 2.08,-0.27 0.79,0.79 0.78,-0.35 0.54,0.72 1.12,0.05 2.3,2.18 2.04,0.97 3.86,-1.42 3.87,-0.05 0.38,-0.58 3.6,-1.26 -0.04,-1.23 z" 
                fill="rgb(151, 144, 238)" 
                stroke="white" 
                stroke-width=".7px"
                title="Chiang Mai" 
                id="TH-50" 
            />
        </svg>