<svg xmlns="http://www.w3.org/2000/svg" viewBox="129.3284400000002 0.2925503 88.91999999999985 104.3099997" width="88.91999999999985" height="104.3099997">
            <path 
                d="m 176.62844,0.2925503 2.55,3.27 0.73,0.04 2.41,1.85 1.05,-0.27 1.26,1.15 1.23,4.8099997 -0.38,3.04 1.18,1.33 4.25,0.41 0.61,-1.43 -0.82,-1.39 0,-1.03 3.43,-1.13 0.63,-1.1099997 -0.26,-1.48 1.46,-1.16 0.18,-1.19 1.12,-1.01 3.23,-0.21 1.13,0.26 1.66,1.47 0.24,1.55 1.17,0.53 0.38,2.3599997 1.64,2.41 0.58,1.96 2.51,1.63 0.24,2.29 1.52,0.78 2.05,2.76 1.34,0.44 1.64,-2.25 1.66,0.44 -0.52,5.04 -0.61,0.86 -0.6,3.95 -0.66,0.6 -1.66,5.47 0.11,2.3 -1.53,2.72 -3.16,2.04 -1.01,3.46 0,0 -1.38,1.36 -0.67,2 0.18,1.09 0,0 -3.24,3.33 -1.68,0.38 -1.15,2.49 -2.24,0.35 -0.2,-0.59 -0.84,0.74 -0.49,-0.48 -1.65,2.86 -1.5,-0.09 -2.14,1.55 -1.1,0.04 0.16,0.75 -0.59,0.93 -1.47,0.58 -3.64,0.23 -1.06,0.77 -0.54,1.07 0.49,0.38 0.05,4.06 -1.46,1.51 -2.45,0.24 0.02,0.92 -0.82,-0.67 -0.39,0.45 -2.92,0.04 -1.86,1.56 -0.48,-1.85 -1.01,0.48 -1.49,-2.1 -0.91,0.69 -5.23,-0.33 -4.86,2.19 -0.53,-0.4 -0.45,0.38 -1.13,-0.16 0.72,2.79 0,0 -1.16,-0.66 -3.06,0.6 -1.68,-1.27 -2.86,-1.04 -0.03,0.88 0.84,1.05 0.36,2.51 -0.55,0.52 0.56,0.6 -0.39,0.72 0.33,1.22 -0.16,1.24 -0.93,0.68 -0.34,1.81 -0.76,0.4 0.09,1.99 -0.43,0.59 -0.45,3.83 0.94,0.41 0.67,1 -0.13,0.75 -1.36,1.54 0.11,1.75 -0.64,0.61 -2.42,-0.07 -3.9,4.95 -2.39,0.6 0,0 -1.3,-3.4 0.12,-1.05 -1.19,-0.44 -0.22,-0.89 -1.22,-0.36 -1.56,-2.61 -0.17,-3 -0.86,-0.77 -0.19,-1.19 0.74,-1.09 -0.25,-1.15 2.14,-3.1 -0.24,-1.99 -1.47,-3.8 1.04,-0.77 -0.27,-2.82 -1.25,-1.98 0.51,-1.89 -0.73,-1.3 0.16,-0.97 -0.78,-0.09 -0.17,-0.53 0.45,-1.5 1.61,-1.6 -0.54,-0.99 -1.26,-0.68 -0.94,-2.86 -1.18,-0.51 -0.57,-2.63 0.4,-1.13 1.98,-1.17 1.33,-2 2.08,-0.28 0.25,-0.87 0.78,-0.26 0.16,-3.51 0.96,-0.33 0.09,-0.98 0.93,-1.29 1.92,-0.08 -0.74,-1.22 0.26,-0.95 -1.66,-1.38 -0.29,-1.97 1,-1.4 1.46,-0.51 -0.38,-1.33 0.45,-1.86 0.83,-0.03 0.93,-0.84 1.26,-2.16 0.85,-0.61 -0.76,-0.72 0.14,-0.46 0,0 0.24,-0.31 0,0 2.26,-1.36 1.26,0.92 -0.15,-0.56 -1.93,-1.12 -0.06,-1.1 5.17,-2 -0.24,-1.08 -2.94,-0.97 -0.59,-0.62 0,0 0.3,-0.47 1.45,0.36 -0.07,-1.2 1.04,-1.08 0.63,-1.91 -2.08,-1.9 -0.73,-0.09 -1.15,-4.32 0.14,-2.23 -0.72,-1.1299997 -2.65,-1.51 0.02,-2.17 0.99,-0.12 1.91,0.8 1.06,1.5 2.81,0.31 2.73,1.41 1.37,0.15 1.72,-0.55 0.85,1.0599997 1.67,0.88 1.12,-0.73 1.43,-0.14 -0.1,-1.0099997 0.86,-0.5 2.67,0.6 0.4,0.49 2.33,-0.11 2.03,-2.61 -0.02,-2.12 1.03,-0.87 0.94,-2.19 3.47,-0.06 0.75,-0.74 z" 
                fill="rgb(151, 144, 238)" 
                stroke="white" 
                stroke-width=".7px"
                title="Chiang Rai" 
                id="TH-57" 
            />
        </svg>