<svg xmlns="http://www.w3.org/2000/svg" viewBox="235.3984400000001 481.6225500000001 59.74999999999994 69.00999999999993" width="59.74999999999994" height="69.00999999999993">
            <path 
                d="m 245.16844,490.45255 0.65,0.54 1.41,-0.05 1.65,-1.34 -0.01,-0.88 2.56,-1.46 -1.14,-1.9 -0.91,-0.34 0.26,-0.56 0.76,0.38 2.59,-0.05 1.2,-1.09 0.52,0.38 0.62,-0.31 1.51,-2.15 6.82,2.12 2.04,1.27 0.92,1.74 3.72,3.1 1.06,1.49 1.93,0.48 1.88,-0.25 0.09,1.64 1.21,0.57 0.66,1.08 2.07,-0.6 0.5,-0.64 2.44,1.24 0.93,-0.12 1.6,5.28 1.15,-0.03 1.25,2.03 2.69,0.69 1.89,1.36 1.76,3.52 1.34,1.16 0.36,1.69 0,0 -0.39,1.24 -1.06,0.72 0,0 -2.42,-0.1 -0.98,-0.71 -2.71,1.88 -1.63,-0.14 0.36,1.34 -1.07,2.37 -1,0.82 -2.17,-0.08 -0.71,1.02 -1.14,0.06 -0.86,1.29 -1.39,0.44 -1.79,-1.28 -1.04,0.89 -2.81,0.02 -1.06,-0.47 -1.52,-2 -1.18,-0.74 -2.13,1.36 -0.02,0.98 -1.37,-0.43 -0.86,-1.37 -1.31,0.92 -1.24,-0.87 -2.49,-0.75 -0.69,0.82 -0.08,1.2 1.16,0.17 0.67,0.65 -0.9,0.54 -1.46,-0.61 -4.39,0.08 -2.23,2.75 1.55,0.55 0.24,1.38 0.62,0.4 -0.81,0.93 -0.15,2.93 -0.8,0.78 0.23,0.49 -1.31,2.76 0.16,1.6 -3.36,3.25 0.1,1.89 -0.77,1.69 -0.83,0.62 0.22,0.73 -0.67,1.5 0.47,2.49 0,0 -1.64,0.8 -0.35,3.39 -0.66,-0.52 -0.61,0.25 -0.6,-0.69 -0.65,0.23 -0.87,-1.23 1.17,-1.49 -0.75,-0.86 -1.11,-0.33 -1.15,0.71 -2.42,0.14 0.82,-1.16 -0.35,-0.59 -0.9,0.37 -0.19,-0.37 0.03,-0.56 0.94,-0.67 -1.26,-0.25 -0.18,-2.49 0.47,-1.31 0.86,-0.1 0.25,-0.76 0.88,-0.33 0.89,0.59 0.89,-0.54 1.13,-2.57 -1.17,-3.66 -2.69,-3.42 -0.02,-0.64 0.4,-0.75 0.5,0.32 0.96,-0.98 -0.05,-2.14 1.39,-0.17 1.05,-0.97 0.53,-2.33 -1.21,-1.95 -1.2,0.48 0.94,-0.94 -1.05,0.29 -0.73,-1.28 0.51,-0.4 -0.44,-0.31 -0.49,0.31 -0.06,-0.48 0.49,-1.83 1.27,-0.96 0.13,-1.34 1.7,-1.87 0.75,-2.2 -0.79,-4.41 -1.86,-2.45 0.43,-1.07 0.99,0.13 0.53,-1.76 0.7,0.15 2.68,-1.38 0.54,-2.41 -1.14,-2.85 0.3,-2.03 0.51,-0.35 z" 
                fill="rgb(151, 144, 238)" 
                stroke="white" 
                stroke-width=".7px"
                title="Chon Buri" 
                id="TH-20" 
            />
        </svg>