<svg xmlns="http://www.w3.org/2000/svg" viewBox="86.688436 657.54255 60.150004000000024 97.43000000000052" width="60.150004000000024" height="97.43000000000052">
            <path 
                d="m 121.97844,657.54255 -0.23,1.19 1.18,0.33 0.25,0.57 2.07,0.35 0.16,0.73 2.38,0.46 0.29,0.52 2.09,0.42 0.52,0.56 0.72,-0.8 2.99,0.27 0.72,-0.68 1.06,0.44 0.92,-0.24 0.47,0.73 1.8,0.44 4.13,-2.52 1.77,0.26 0,0 -0.35,3.41 0.69,1.53 0.63,-0.02 -0.09,0.78 0.69,0.44 -0.81,0.98 0.15,0.77 -0.84,0.79 -0.04,-0.93 -1.05,-0.88 -0.93,1.12 -1.77,0.04 -1.89,7.36 -1.34,1.31 -0.89,2.45 -1.39,1.11 0.02,0.76 0.69,0.33 -0.73,0.73 -0.63,-1.24 -1.88,0.73 -1.69,3.64 -1.03,1.1 0.17,1.35 -0.61,0.8 -0.03,1.92 -0.93,0.44 -0.94,-0.39 -0.53,0.41 0.27,1.84 0.42,0.21 1.25,-0.63 -0.6,1.08 -1.77,0.31 -0.3,1.48 0.91,1.72 2.84,2.49 0.01,3.33 -0.76,0.64 -1.22,-0.67 -1.02,1.29 -0.64,-0.9 -2.49,-1.04 -3.09,1.91 0.51,0.85 -0.39,1.39 0.67,1.44 0.65,0.37 1.39,0.62 0.3,0.66 0.85,-0.37 -0.15,1.46 1.2,1.6 1.2,-0.76 0.54,0.33 -2.3,1.59 -0.74,-0.54 -0.55,0.23 -1.49,4.16 -1.15,0.76 -0.46,1.29 0.07,1.98 0.56,0.84 -0.33,0.78 1.06,1.7 0.92,0.1 0.06,0.43 -0.65,0.61 0.48,0.69 -0.26,0.67 -1.06,-0.25 -0.62,1.3 0.66,3.17 -0.26,3.47 0.58,2.45 -1.27,1.12 -0.6,1.47 0.56,5.4 0.87,2.54 0,0 -2.07,0.05 -0.74,0.66 -1,-0.71 -1.64,0 -0.42,1.06 0.61,0.2 -0.06,0.51 1.05,1 -1.4,0.78 -1.52,-1.03 -1.26,-1.83 -1.76,-0.41 -0.18,-0.74 -0.58,0.49 -0.64,-0.52 -1.67,-0.08 -0.31,-0.59 -1.93,0 -1.66,-1 -1.3,0.64 -0.93,-0.32 -1.79,1.83 -1.710004,0.06 -1.88,1.32 -0.62,-0.61 -0.93,0.38 -0.15,3.97 -1.85,1.84 0,0 -1.13,-1.84 -1.68,-0.46 -1.64,-1.31 -1.28,0.1 -0.43,-0.62 0.83,-1.48 -0.89,-0.55 0.27,-0.56 -0.83,-1.35 0.27,-1.2 -1.04,-1.8 0.42,-0.23 -0.03,-1.43 3.38,-3.12 0.69,0.12 1.82,-2.21 0.14,-1.97 2.06,-1.66 0.22,-1.02 1.69,-1.14 2.27,0.96 0.63,-0.76 0.410004,-2.05 1,-1.09 1.47,0.01 2.59,-2.32 -0.12,-1.83 -0.67,-0.66 -2.33,0.24 -1.54,-0.36 1.87,-2.06 -0.31,-2.22 0.62,-0.34 0.11,-1.44 1.31,-0.37 -0.07,-0.67 -1.18,-1.14 2.57,-5.34 -0.66,-0.84 0.1,-0.72 2.9,-4.26 -0.8,-0.93 0.42,-1.25 -0.54,-0.17 -0.06,-0.61 -1.86,-0.28 0.26,-0.77 -0.77,-0.43 0.12,-1.64 -0.73,-1.19 0.69,-1.68 1.1,-0.49 0.47,-1.21 1.82,-0.68 0.45,-1.18 0.71,-0.3 -1.44,-2.05 1.25,-0.98 0.35,-1.39 -0.42,-0.82 -0.92,0.31 0.37,-1.74 -0.71,-0.81 -0.81,0.02 0.13,-1.6 -0.52,-0.48 -0.87,0.1 -0.26,-0.87 -0.77,0.58 -0.28,-0.94 1.63,-3.55 -1.32,-0.58 -0.37,-1.22 0,0 1.09,-0.47 1.24,-3.12 0.84,0.96 1.53,0.05 0.95,-1.33 0.68,0.01 1.88,-1.69 0.06,-1.07 -0.76,-0.65 0.37,-0.77 -0.44,-2.09 1.64,-3.17 1.74,0.54 0.53,1.04 1.47,-0.51 0.97,-1.21 0.62,-2.79 1.83,-1.18 1.37,-0.16 z" 
                fill="rgb(151, 144, 238)" 
                stroke="white" 
                stroke-width=".7px"
                title="Chumphon" 
                id="TH-86" 
            />
        </svg>