<svg xmlns="http://www.w3.org/2000/svg" viewBox="388.24844 238.34255000000005 76.92000000000024 64.28999999999965" width="76.92000000000024" height="64.28999999999965">
            <path 
                d="m 388.24844,251.52255 0.06,-1.46 0.78,-0.49 0.38,-1.47 3.09,1 0,0 0.44,-0.17 0,0 0.38,-0.37 0.48,0.55 1.1,-0.07 1.43,-1.33 0.6,0.66 1.53,-0.21 2.39,2.5 3.67,0.12 2,1.45 0.9,-0.04 1.85,2.7 -0.77,0.83 0.63,0.22 0.9,1.93 -0.87,0.97 0.72,0.47 1.9,-2.17 -0.42,-0.97 0.6,-0.62 0,0 0.54,-0.87 0,0 1.28,-1.31 0,0 0.36,-1.14 0.47,-0.01 0,0 0.17,-1.67 -0.47,-0.93 0.51,-2.04 1.71,-1.99 -0.08,-2.49 -0.71,-0.72 0.75,-0.42 0.07,-0.6 1.13,-0.47 0.79,-1.63 1.75,-0.22 0.26,-0.7 0.63,0.17 0,0 0.77,0.16 0,0 1.42,0.29 2.16,3.2 -0.36,1.63 1.05,0.32 0,0 2.12,-1.01 0.85,1.08 1.11,0.16 0.5,1 -0.6,0.74 0.16,0.66 0.81,-0.55 0.47,1.22 2.71,0.92 0.42,1.29 -1.27,1.13 0.64,0.03 0,0 0.17,1.05 0,0 0.68,0.81 -0.14,0.67 1.23,0.12 0.13,0.63 1.79,0.67 -0.05,1.22 0.54,0.66 1.67,0.57 0.27,0.99 3.17,1.53 1.28,1.67 0.96,-0.44 -0.29,-0.54 0.47,-2.26 0.31,-0.33 0.59,0.9 0.72,-1.8 0,0 1.17,0 0,0 2.03,-1.46 0.79,1.18 0.52,-0.52 1.26,0.77 0.36,1.07 0,0 0.8,0.9 0.67,-0.15 0.07,1.43 1.75,2.29 1.16,0.08 -0.27,1.55 1.22,1.22 0.2,1.18 1.12,0.26 -0.42,1.38 1.6,0.58 -0.79,1.47 0.3,1.69 -0.37,0.96 0.23,0.85 0.96,0.12 0.89,0.87 0.12,1.34 1.18,0.9 -0.24,1.57 1.22,0.76 -0.08,1.71 -0.78,1.4 0.79,1.26 -0.08,1.83 0,0 -1.17,-0.56 -2.08,0.49 -1.28,-1.09 -1.59,0.52 -0.07,0.64 -0.64,0.34 -2.31,0.17 -1.18,0.84 -0.86,-0.04 -0.37,0.81 -1.44,0.74 -0.62,-1.93 0.15,-1.44 -0.52,-0.47 -2.47,-0.11 -1.03,0.9 -2.01,-0.74 -1.36,0.54 -0.92,-0.29 -0.27,-0.95 -0.75,0.4 -2.32,-1.65 -1.44,0.6 -1.86,-0.48 -0.67,1.03 -7.26,5.36 1.96,2.32 -0.21,1.06 2.11,1.96 -0.14,2.36 -1.21,1.37 -0.2,1.76 -1.28,0.28 -1.56,-0.5 0.44,0.53 -0.79,0.46 -0.02,-0.48 -0.79,0.41 -0.62,-0.67 -0.08,0.91 0.84,0.44 -0.96,0.65 -0.6,-0.77 -0.12,1.03 -0.49,-0.28 -0.42,0.44 -1.72,-2.21 -0.79,0.34 0.84,-0.09 0.41,0.81 -1.29,0.73 -0.2,-0.67 -0.5,0.56 -2.59,-0.65 0.63,-1.01 -1.58,0.46 0.21,-0.77 -1.27,1.88 -1.19,-0.26 0,0 0.03,-0.64 -0.67,0.46 -0.99,-0.41 -0.5,1.17 -1.32,0.63 -0.25,-0.64 0.52,-0.01 -0.77,-0.42 0.41,-0.48 -0.69,-0.08 0.55,-0.49 -0.35,-0.24 0.36,-0.1 -0.1,-0.66 -0.62,0.58 -0.36,-0.98 -1.23,-0.47 -0.67,-1.19 0.46,-1.93 -1.17,-0.97 -1.74,-0.11 0,0 -1.08,-0.57 -0.25,-2.55 0,0 -0.59,-1.3 -2.62,-0.46 -0.68,-1.82 -1.79,1.2 -5.99,1.03 -0.83,-1.95 1.44,-3.07 -0.07,-0.91 -1.19,-1.3 -0.51,-1.79 1.93,-4.17 -1.29,-3.8 1.87,-1.6 -0.38,-0.87 -2.52,-0.13 0,0 -0.1,-1.12 0.53,-1 -0.87,-1.91 0.83,-2.25 -0.81,-1.45 1.75,-1.2 0.69,-1.07 0.21,-2.37 -0.86,-1.85 0.18,-1.11 -2.39,-0.4 0.55,0.8 -0.71,1.81 -0.98,0.85 -1.19,-0.52 -0.2,-1.01 0.79,-0.94 0.66,-2.73 -0.17,-0.6 z" 
                fill="rgb(151, 144, 238)" 
                stroke="white" 
                stroke-width=".7px"
                title="Kalasin" 
                id="TH-46" 
            />
        </svg>