<svg xmlns="http://www.w3.org/2000/svg" viewBox="110.92844000000002 251.86255 72.07999999999998 73.34000000000009" width="72.07999999999998" height="73.34000000000009">
            <path 
                d="m 140.58844,253.80255 1.15,-0.31 1.1,0.49 0.52,-1.35 1.49,-0.77 1.42,1.69 0.29,1.16 4.34,0.91 -0.09,2.03 2.99,4.68 1.59,1.05 0.62,-0.14 1.39,1.2 1.28,-0.2 0.07,1.04 0.79,-0.58 0.83,0.11 1.05,-0.9 -0.52,0.85 0.26,1.03 2.58,1.86 2.22,-0.64 0.53,-0.76 -0.27,-0.72 0.6,-0.54 0.93,-0.22 0.14,0.44 0.91,0.17 0.81,-1.49 0,0 0.22,0.62 2.68,0.36 -0.23,1.92 0.65,1.89 0.4,4.36 2.52,1.1 0.74,1.22 2.84,-0.46 0.31,-0.45 0.63,0.28 -0.18,0.47 0,0 -0.22,0.36 0.71,0.63 0.94,4.11 -2.65,4.27 -0.03,2.35 -0.79,1.99 1.47,2.92 1.13,-0.11 0.39,0.45 -0.56,0.69 0.15,0.57 -1.46,1.73 0.52,0.19 0.11,0.84 0.73,-0.48 0.71,0.31 -0.58,1.87 2.25,1.45 -0.23,0.67 -0.72,0.26 0.2,0.84 -0.72,0.52 0,0 -0.74,0.91 1.02,1.74 -1.44,0.4 -5.64,6.93 -3.05,0.22 -2.89,2.28 0.05,2.58 -1.13,1.09 -0.28,0.97 -1.18,0.62 -0.19,1.43 -1.21,-0.53 -1.16,0.54 0.15,1.4 -1.41,1.3 -0.56,1.65 -2.25,-1.48 -3.41,1.52 -1.64,-1.81 -1.33,-0.32 -0.55,-0.73 -3.36,-0.57 -1.16,-1.29 -0.84,0.46 -0.24,-0.47 -1.46,-0.21 -1.5,0.43 -0.17,1.49 -0.63,0.02 -2.41,-0.58 -0.28,-0.73 -1.24,0.54 -2.44,-0.38 -1.08,-0.71 -1.88,1.01 -0.65,-1.06 0.02,0.69 -0.62,-0.05 0.03,0.87 -1.43,0.06 0,0.91 -1.23,-1.38 -0.28,0.31 -2.95,-2.55 -0.34,0.45 -0.7,-0.77 -0.29,0.85 -0.63,-0.6 -0.51,1.13 -0.97,-0.57 0.08,0.6 -1.27,0.57 -0.49,0.83 -0.58,0.2 -0.71,-0.44 -2.22,2.05 -0.5,-0.22 0,0 -0.17,-1.59 0.79,-1.51 -1.52,-2.06 0.97,-1.43 -0.36,-3.19 0.22,-1.11 1.24,-0.52 0.76,-1.64 -0.68,-0.96 0.11,-0.9 -0.97,-0.22 -0.99,-1.58 -1.93,-0.75 0,-1.6 1.16,-0.39 1.04,-3.3 -2.25,-3.14 -0.52,-2.39 0.76,-1.21 -0.04,-1.36 -0.71,-0.77 -0.03,-2.44 -0.41,-0.67 -1.29,-0.15 0.45,-2.93 -0.73,-1.45 -1.14,-0.34 -0.6,-2.47 1.05,-0.7 1.17,1.6 0.67,0.18 1.83,-0.53 1.92,0.68 1.54,-0.66 1.04,0.44 1.17,-1.79 1.6,-0.15 0.67,-0.54 -0.43,-0.04 0.2,-0.73 0.64,-0.76 0.72,0.12 -0.01,-0.58 1.92,0.86 1.44,-0.49 1.06,-2.35 -0.8,-3.9 0.11,-2.79 1.73,-0.5 0.05,-1.01 0.64,-0.34 0.01,-1.39 0.85,-0.7 0.58,-1.38 0.12,-1.96 -0.67,-0.39 -0.2,-0.82 1.57,-0.73 0.57,-1.29 3.11,0.69 0.99,-0.37 0.15,-1.23 -0.8,-1.18 0.29,-1.29 z" 
                fill="rgb(151, 144, 238)" 
                stroke="white" 
                stroke-width=".7px"
                title="Kamphaeng Phet" 
                id="TH-62" 
            />
        </svg>