<svg xmlns="http://www.w3.org/2000/svg" viewBox="56.768436000000015 338.96255 114.200004 133.81000000000006" width="114.200004" height="133.81000000000006">
            <path 
                d="m 82.928436,339.33255 0.89,-0.37 0.38,1.01 2.04,0.35 0.37,0.97 1.13,-0.79 0.43,0.33 0.88,2.4 4.21,5.64 -0.49,0.8 -0.86,-0.25 0,0.71 3.59,1.8 -0.23,2.2 1.52,1.16 3.830004,5.53 0.5,-0.15 2.01,1.61 1.34,2.27 -0.3,1.14 1.81,0.57 0.74,1.45 1.25,-0.39 0.9,0.35 0.55,2.77 1.33,1.75 0,0 1.15,1.25 0.38,1.28 -0.56,2.7 0.81,1.3 -0.61,1.02 1.25,1.26 1.99,0.79 1.3,-0.28 0.59,0.59 2.51,-0.46 0.32,-0.65 1.55,0.21 0.31,0.32 -0.77,0.63 1.76,1.54 1.4,-0.14 0.59,-0.61 0.86,0.88 1.96,0.12 1.57,1.7 1.92,-0.46 0,0 1.3,0.93 1.16,2.27 -0.65,0.86 0.71,0.96 -0.35,2.18 -2.31,2.09 0.76,1.88 1.07,1.43 1.45,0.47 0.34,0.96 1.49,1.41 2.01,0.43 2.08,-1.03 1.18,0.34 1.64,3.77 0.22,1.7 3.35,-0.39 2.39,-1.38 0.19,-0.56 -0.82,-1.13 0.62,-1.45 -0.39,-1.78 0.27,-0.59 1.45,1.24 0.75,-0.44 2.39,0.57 2.29,-1.54 2.73,2.1 1.78,0.67 0.82,1 1.87,0.47 1.75,-0.3 0.94,0.58 -0.04,0.88 -1.37,1.33 1.35,0.73 0.06,0.88 1.48,1.92 0.26,1.6 0.71,0.99 -1.73,0.42 -0.62,1.61 1.61,1.07 -0.66,1.99 0.6,2.9 -0.34,4.4 0.56,1.91 -0.46,1.18 0.26,3.17 -0.46,0.82 0.63,1.85 -0.19,5.84 -0.63,-0.17 -0.43,1.47 -1.38,1.09 -1.14,-0.59 -0.65,1.19 -0.79,-0.23 -1.05,2.89 -0.1,2.56 0.27,0.64 1.41,0.44 2.49,-0.59 0.39,0.94 0.89,0.4 0.08,1.02 2.18,0.43 0,0 0.68,1.18 -1.6,2.95 1.02,0.09 0.57,1.89 1.08,0.52 0.52,0.97 0,0 -1.42,2 -1.28,3.77 -1.1,0.05 0.38,0.79 -0.64,0.65 0.12,1.2 -0.54,1.23 -0.55,0.03 -0.65,-0.97 -2.97,-0.72 -0.58,0.42 -2.08,-0.13 -2.92,-1.21 -2.06,2.29 -5.86,3.76 -2.98,-0.58 -2.28,-2.74 -1.19,1.75 -2.58,0.49 -4.16,1.85 -2.87,-0.19 -0.82,0.63 -0.93,-1.4 -1.23,1.27 -2.93,-0.48 -1.56,1.45 -1.78,-0.77 -0.39,0.85 0,0 -0.72,-0.63 -0.07,-1.2 -2.15,-1.22 -0.02,-2.76 -0.44,-1.07 -0.99,-0.75 0.72,-1.9 -0.06,-1.58 -0.51,-0.42 -1.51,0.22 -1.28,-2.45 -1.27,-1 -1.44,-0.36 -1.48,-4.94 -1.83,-0.93 -0.25,-3.38 -0.6,-1.03 -1.07,0.22 -1.59,-1.27 -1.43,0.16 -1.49,-1.1 -0.52,-1.43 -2.74,-2.07 -1.110004,-0.05 -0.81,-1 -1.49,-0.59 -3.12,-2.8 -1.03,-0.34 -0.99,-1.01 -0.25,-1.01 -1.1,0.02 -3.6,-2.94 -1.03,0.22 -0.75,-0.64 -0.52,-1.55 0.2,-1.6 -0.43,-0.56 -0.94,0.38 -0.72,-0.94 -0.5,-2.25 -0.67,-0.39 0.07,-0.81 -1.01,-0.67 -1.53,-2.27 -1.46,-4.43 -2,0.67 -0.16,-3.31 -1.6,-2.44 -4.54,-3.59 -0.19,-1.46 -0.72,-0.73 -1.31,-0.99 -0.67,0.17 -1.79,-2.81 -0.18,-1.26 -3.14,-4.16 0.9,-1.9 -2.05,-2.36 1.31,-1.72 -0.56,-0.58 -0.06,-1.09 -0.8,-0.5 0.05,-1.48 -1.55,-1.08 0.29,-2.7 1.37,-1.43 -3.25,-3.77 -0.17,-1.2 0.53,-2.54 1.51,-1.86 -0.99,-3.74 0.73,-0.27 0.74,0.8 1.06,0.23 1.16,-0.4 3.51,-3.76 -0.54,-1.39 0.52,-0.89 4.56,2.06 2.42,2.01 0.88,-1.21 -0.41,-1.63 -1.19,-0.68 1.55,-1.22 -0.29,-1.9 0.37,-0.68 1.13,0.05 2.87,-1.33 0.33,-0.66 3.59,1.37 0.51,0.58 0,1.17 0.8,0.73 1.45,-2.29 0.57,-5.2 -0.45,-5.87 -1.24,-2.81 -0.49,-2.52 z" 
                fill="rgb(151, 144, 238)" 
                stroke="white" 
                stroke-width=".7px"
                title="Kanchanaburi" 
                id="TH-71" 
            />
        </svg>