<svg xmlns="http://www.w3.org/2000/svg" viewBox="297.1384399999999 239.22254999999998 96.94 101.69000000000025" width="96.94" height="101.69000000000025">
            <path 
                d="m 359.21844,245.95255 0.74,-1.55 -0.11,-2.09 1.42,-1.82 0.37,-1.27 1.23,2.87 1.83,0.51 0.95,1.08 1.58,0.74 0.96,1.99 1.57,0.97 -1.41,1.23 1.06,1.21 -0.73,1.61 0.1,1.59 0.88,1.99 2.44,-1.39 1.56,0.61 2.32,2.78 3.54,-0.89 0,0 0.8,-0.48 0,0 0.81,-0.3 0.37,-0.79 0.63,0.28 2.07,-1.45 0.93,0.03 1.43,-1.1 0.57,0.2 1.12,-0.99 0,0 1.51,0.79 0.17,0.6 -0.66,2.73 -0.79,0.94 0.2,1.01 1.19,0.52 0.98,-0.85 0.71,-1.81 -0.55,-0.8 2.39,0.4 -0.18,1.11 0.86,1.85 -0.21,2.37 -0.69,1.07 -1.75,1.2 0.81,1.45 -0.83,2.25 0.87,1.91 -0.53,1 0.1,1.12 0,0 0.04,2.31 -2.18,1.3 -0.13,1.8 -0.98,0.85 -1.54,2.97 -2.64,1.41 -0.63,-0.71 -0.95,1.91 -4.4,1.54 0.59,1.57 0.85,0.41 -1.15,-0.08 -0.44,1.11 0,0 -0.37,0.39 0.7,0.35 -0.7,0.54 0,0 -0.67,0.13 0.11,0.83 -1.15,-0.02 0.46,0.75 -0.7,-0.18 -0.6,0.55 0.06,0.83 -0.86,0.01 -0.12,2.44 -1.46,0.86 -1.77,2.12 -0.14,2.62 0.37,0.85 -0.44,0.74 0.28,2.2 0.7,1.27 -0.86,1.2 0.61,1.13 0.9,0.22 -1.27,3.76 0.74,0.76 -0.06,1.35 0.93,0.09 1.46,1 -0.74,0.83 1.07,0.86 0.45,2.06 -0.75,0.95 -0.3,1.73 1.09,2.48 1.43,1.28 0.25,1.75 -0.43,0.2 -0.38,1.9 0.86,0.73 -0.1,1.22 0,0 -2.33,0.56 -1.24,1.32 0.14,5.26 -0.9,2.98 -3.44,1.24 -2.43,-0.92 0,0 -2.1,-1.14 -0.11,-0.59 -2.05,0.3 -0.54,-1.42 -0.49,-0.2 0,0 -0.76,-0.96 0,0 0.51,-1.48 -1.01,-0.32 -1.13,0.9 0,0 -1.02,0.06 0,0 -2.71,-0.95 -0.86,1.11 -3.19,0.39 -2.43,-1.37 -2.13,0.66 -2.07,0.03 -2.4,1.46 -0.86,-0.4 -1.7,-2.12 -1.21,0.08 -0.28,-0.64 0.44,-1.89 -2.4,-2.5 0,0 -0.08,-1.31 -0.43,-0.27 0.31,-0.56 -0.59,-0.92 0.35,-0.09 -0.03,-1.22 1.15,-0.5 0.2,-0.99 0.88,-0.86 0.59,-1.9 -0.46,-0.15 0.62,-0.19 0.29,-1.02 0.39,0.11 -0.66,-1.31 1.34,-1.07 0.15,-0.95 -2.1,-0.85 -0.2,-1.44 -0.91,-0.86 -0.75,0.52 -0.99,-0.8 -0.69,0.26 -1.5,-2.62 8.99,-12.09 -0.2,-1.31 0.59,-2.13 1.62,-3.01 0.27,-2.46 0.74,-1.04 -3,-2.23 -0.89,-3.05 -0.43,0.59 0.33,0.86 -1.11,0.08 -0.65,0.66 -0.54,-0.16 -0.04,-1.03 -2.81,0.53 -0.38,-0.75 -1.16,0.75 -1.55,-0.97 -0.66,0.31 -4.32,-3.42 -0.71,0.4 -0.67,-0.54 -0.7,1.05 -1,-0.83 -2.32,0.61 -3.71,0.03 0.36,-0.6 -2.01,-0.42 -0.74,-0.79 -0.02,-1.54 -0.52,-0.24 -0.1,-0.92 -2.29,-0.59 0.17,-1.17 -0.92,-0.34 0.35,-0.6 -0.41,-0.99 -1.58,-0.64 0.19,-0.6 -0.5,-0.41 -1.52,0.05 -0.52,0.47 -0.47,-0.46 -0.44,0.41 0.01,-0.48 -1.1,-0.67 -1.1,0.15 -0.28,-0.48 -0.98,-0.02 -0.13,-0.53 -1.57,-0.08 -0.46,0.57 -1.14,-0.17 -2.09,1.69 0.27,-1.28 -0.95,-0.59 -0.72,0.21 -0.41,-1.14 0,0 0.19,-0.59 1.43,-0.69 0,-1.04 1.07,-1.46 -0.64,-1.17 0.63,-0.76 -0.14,-0.88 0,0 5.15,-1.98 1.27,-1.43 1.65,-0.23 2.95,-1.86 -0.31,-0.82 3.38,0.89 0.14,-0.74 0.65,-0.34 -0.43,-0.34 0.74,-0.71 2.08,0.8 0.23,-0.64 1.05,-0.24 -0.3,-0.33 0.89,-1.01 0,0 0.1,0.44 0.72,-0.31 1.19,0.5 -0.19,-0.58 0.52,-0.48 1.39,1.16 1.34,0.3 0.74,-0.34 0.19,0.66 0.84,0.46 0.68,-0.45 0.51,0.96 0.96,-0.34 0.91,0.3 0.89,-1.23 1.39,-0.12 0.29,-1.16 2.75,0.2 -0.27,0.54 0.76,-0.14 0.3,0.29 -0.31,0.45 1.45,0.58 -0.52,0.88 0.95,-0.02 0.08,0.46 -0.53,0.15 1.04,0.64 -0.28,0.44 0.59,0.98 0.47,-0.93 0.71,0.95 1.04,0.44 0.05,-0.46 3.68,1.97 4.31,-0.96 3.06,1.48 4.77,0.91 0.85,-5.24 3.83,-8.22 z" 
                fill="rgb(151, 144, 238)" 
                stroke="white" 
                stroke-width=".7px"
                title="Khon Kaen" 
                id="TH-40" 
            />
        </svg>