<svg xmlns="http://www.w3.org/2000/svg" viewBox="86.54843599999992 817.8325500000001 53.31000400000005 81.65999999999997" width="53.31000400000005" height="81.65999999999997">
            <path 
                d="m 114.33844,887.05255 0.83,0.7 0.63,1.9 1.47,1.16 -0.29,2.36 2.35,4.72 -0.91,1.6 -2.12,-2.18 -2.21,-4.57 -0.46,-3.68 0.33,-0.64 -0.47,-0.91 0.85,-0.46 z m 2.02,-2.51 1.87,0.6 0.94,-0.46 0.78,0.93 0.66,1.66 -0.8,1.35 0.37,1.27 -0.36,1.51 -0.7,-1.03 -1.14,0.02 -0.24,0.49 -1.25,-1 -1.25,-2.6 -0.79,-0.39 0.02,-2.08 1.89,-0.27 z m -1.27,-11.12 0.78,0.06 1.21,1.01 1.23,-0.17 0.31,1.54 1.04,-0.31 0.52,0.4 0.37,2.18 -0.89,1.26 -0.53,3.65 -1.03,1.35 -3.48,-0.79 -1.23,-3.26 -0.07,-2.36 0.56,-0.81 -0.86,-2.06 1.69,-0.38 0.38,-1.31 z m -6.32,-0.28 1.37,0.59 0.7,2.05 -0.13,0.99 0.61,0.54 -0.41,0.87 -1.73,-2.6 -1.75,-1.17 0.25,-1.01 1.09,-0.26 z m 3.79,-1.85 0.76,0.04 1.19,1.56 -0.59,1.32 -0.87,0.34 -1.08,-2.04 0.15,-1.09 0.44,-0.13 z m 4.08,-2.03 0.54,-0.07 0.04,0.82 -0.9,1.76 -0.52,0.06 0.45,-2.97 0.39,0.4 z m -5.94,-0.9 0.48,0.19 0.63,1.76 -0.57,1.22 -0.04,2.1 -1.59,-4.86 1.09,-0.41 z m -18.920004,-47.66 1.27,0.16 1.72,-3.03 0.86,0.15 2.36,2.16 0.32,-1.01 2.920004,0.02 1.06,1.92 1.94,0.58 3.19,3.8 -0.14,1.36 0.55,0.66 0.59,2.75 -0.77,3.4 0.62,1.14 1.57,0.57 4.92,3.68 5.31,-0.33 5.76,2.02 3.7,2.37 0.87,0.08 1.05,-0.83 0,0 0.51,-0.16 -0.02,0.59 2.13,1.06 0.35,1.47 -1.56,2.4 0.51,2.21 -0.93,0.79 0.06,1.04 -1.15,0.63 -0.08,0.94 0.7,0.68 -0.17,0.61 3.35,-0.23 2.61,1.85 0.74,4.51 1.36,2.74 -1.22,1.15 -0.05,1.87 0,0 -0.52,0.52 0,0 -0.25,0.45 -0.61,-0.09 0,0 -0.58,-0.23 -0.77,0.98 -1.54,0.23 -0.02,0.65 -1.39,0.38 -0.59,1.27 0.9,0.65 -2.58,2.17 1.06,1.94 -0.4,1.01 1.03,0.1 -0.14,1.27 -0.9,1.09 0.06,0.77 1.15,0.46 0.23,3.03 -0.85,1.48 -0.73,-0.01 -0.06,0.55 -0.74,0.05 -1.05,1.28 0,0 -1.08,-1.12 -1.08,0.4 -0.84,-0.44 -0.57,-0.63 -0.35,-0.79 -0.31,0.52 -0.36,-0.23 -0.08,-0.57 -0.29,0.02 -0.47,-0.02 -0.63,-1.7 -2.12,-1.54 -0.01,-2.06 -0.27,-0.18 -0.35,-2.29 -0.78,-0.55 -1,0.43 -0.35,-0.7 0.38,-0.87 -1.51,0.13 -1.04,-0.97 2.12,-5.51 -1.04,1.08 -0.62,-0.14 0.78,-1.26 1.33,-0.68 -0.06,-1.13 -0.26,0.81 -1.05,0.45 -0.25,-0.37 -0.94,1.07 0.17,0.62 -0.76,1.6 -1.82,1.13 -0.6,-0.61 -0.34,-1.79 -1.08,-1.11 -1.44,0.14 -0.38,0.47 -2.02,-3.73 0.99,-0.83 -2.58,-2.45 0.35,-0.73 -0.3,-0.31 -0.48,0.44 -1.5,-0.88 -0.66,0.08 1.38,0.58 0.13,0.58 -1.53,1.32 -1.38,-0.5 -1.12,1.76 -1.900004,-2.58 -0.87,-0.42 -1.99,0.33 0.08,1.11 -0.6,0.09 -0.07,-1.13 -1.77,-2.42 0.6,-0.96 0.11,-2.12 0.66,-0.59 -0.5,-0.57 0.11,-0.83 -0.61,1.08 -0.54,-0.06 0.36,-0.44 -0.2,-1 0.92,-1.74 -0.24,-1.12 0.44,-0.19 -0.82,-0.66 -0.33,-1.69 -0.6,-0.44 0.34,-1.83 -0.6,-0.61 0.19,1.3 -0.76,2.68 -0.55,-0.18 0.75,-2.67 -0.45,-0.2 0.18,-0.72 -0.58,-0.81 0.07,-1.81 -3.21,1.96 -0.71,0.9 -0.5,-1.3 -0.67,0.64 -0.37,-0.26 -0.05,-1.78 0.93,-2.55 -0.27,-1.32 2.22,-0.91 -1.41,-1.84 1.12,-1.11 0,0 0.03,-2.16 -1.07,-1.52 1.61,-2.05 1.2,-4.33 1.08,-1.4 -0.21,-2.48 z" 
                fill="rgb(151, 144, 238)" 
                stroke="white" 
                stroke-width=".7px"
                title="Krabi" 
                id="TH-81" 
            />
        </svg>