<svg xmlns="http://www.w3.org/2000/svg" viewBox="200.76843999999997 457.0825500000001 41.72 31.789999999999907" width="41.72" height="31.789999999999907">
            <path 
                d="m 217.28844,457.46255 0.7,-0.33 2,0.66 0.51,-0.71 0.92,0.42 0.02,0.76 0.97,0.03 0.04,0.41 3.31,0.12 1.17,0.83 1.47,0.08 6.19,-1.38 6.29,-0.59 0,0 -0.52,5.83 -0.26,0.81 -0.69,-0.1 3.08,2.5 -1.91,1.66 -3.67,6.17 0.39,0.25 0,0 -0.12,0.53 -4.77,-1.85 -5.27,-0.12 0.13,1.57 -0.9,2.71 -2.11,-0.72 -0.07,-0.64 -0.79,0.33 -0.52,1.32 -4.51,-1.14 0.54,-1.65 -2.15,-0.97 -0.62,2.33 -0.8,0.2 -0.91,-0.7 -0.28,0.43 -0.19,3.13 0.4,1.56 -0.76,0.26 -1.92,-0.44 -0.75,0.99 -0.34,-0.82 -0.7,0.04 -0.68,3.38 0.54,3.67 0,0 -3.01,0.59 0,0 -0.23,-1.22 1.03,-2.14 -0.14,-1.23 -1.56,0.21 -0.69,-2.14 -0.54,0.19 0.35,-0.35 -0.76,-2.66 -0.99,-0.74 -1.08,-0.06 -0.55,-6.38 0,0 -0.14,-4.58 -0.67,-1.54 0,0 0.72,1.26 8.74,0.44 0.75,0.59 2.05,-0.77 1.01,-0.87 -0.58,-0.31 0.13,-0.52 2.35,-1.71 z" 
                fill="rgb(151, 144, 238)" 
                stroke="white" 
                stroke-width=".7px"
                title="Krung Thep Maha Nakhon (Bangkok)" 
                id="TH-10" 
            />
        </svg>