<svg xmlns="http://www.w3.org/2000/svg" viewBox="189.08844000000002 876.8425500000001 19.839999999999975 37.91999999999996" width="19.839999999999975" height="37.91999999999996">
            <path 
                d="m 192.78844,878.51255 0.63,-0.52 1.87,0.44 0.84,-0.25 1.05,-1.09 0,0 0.89,-0.25 1.78,3.5 1.04,7.82 0,0 -0.72,3.13 0,0 -0.4,0.31 -1.11,-0.75 0,0 -0.67,1.64 -1,0.94 0.54,2.52 1.3,0.96 0.16,-1.57 1.85,-3.33 2.38,-0.06 2.44,1.08 1.29,6.08 -0.44,6.27 1.36,1.28 -0.06,2.73 0.46,0.78 0.06,1.8 -1.34,0.88 1.94,1.25 0,0 -1.39,0.66 0,0 1.08,-0.51 -3.44,-1.8 -0.54,-1.85 0,0 -0.01,-0.19 0,0 0.01,-0.49 0,0 -0.09,-0.28 0,0 -1.43,-1.88 -1.08,-0.04 -0.92,-0.6 -0.93,1.02 -0.81,0.03 -0.04,-1 -1.83,-1.99 -1.04,-0.47 -0.27,-1.49 -1.88,-3.8 0.15,-2.05 -0.76,0.7 -0.74,-0.21 -1.91,-1.93 -1.75,-8.49 -0.22,-5.6 3.01,-2.08 0.69,-1.25 z m 11.06,19.37 0,0 -2,0.43 0.3,1.38 -0.37,2.44 0.4,-0.39 0.41,0.6 -0.24,0.48 -0.92,-0.13 -0.59,3.37 0.22,0.87 1.68,0.17 -0.16,-3.02 1.03,-0.47 0.48,-2.12 -0.26,-1.52 -0.63,0.17 -0.39,-1.24 0.28,-0.5 1.29,-0.13 0.56,-1.17 -0.75,-0.05 -0.34,0.83 z m 0.87,11.14 0,0 0.31,-0.34 0.29,3.25 0.92,0.48 0.46,-0.27 1.07,-0.49 0.15,-1.45 -2.1,-1.74 0.28,-0.8 -0.55,-3.87 0,0 -0.6,-0.07 0,0 -1.35,1.11 0.13,0.74 -0.8,1.53 1.55,1.79 0,0 0.24,0.13 z" 
                fill="rgb(151, 144, 238)" 
                stroke="white" 
                stroke-width=".7px"
                title="Lake Songkhla" 
                id="TH-LKSG" 
            />
        </svg>