<svg xmlns="http://www.w3.org/2000/svg" viewBox="89.31843600000002 125.09254999999997 44.210004 90.57000000000004" width="44.210004" height="90.57000000000004">
            <path 
                d="m 91.018436,190.90255 -0.36,-0.99 2.13,-0.48 0.62,0.28 1.03,-0.77 1.45,0.2 1.39,-2.16 0.78,0.68 0.26,1.83 1.52,0 2.280004,-1.2 -0.09,-2.41 0.52,-0.53 0.65,0.39 -2.07,-8.1 -0.58,-0.59 0.11,-1.04 -1.730004,-1.42 -2.04,0.39 1.06,-1.86 0.28,-1.99 1.08,-1.53 -1.04,-0.57 0.77,-2 -0.33,-2.76 -0.85,-0.46 -0.6,-1.26 0.14,-2.59 -0.81,-1.03 0.17,-1.37 -4.5,-2.57 -2.94,-1.09 0.67,-0.85 -0.14,-0.92 2.07,-0.57 -1.53,-2.37 0.62,-1.62 1.21,-1.38 -0.02,-0.35 -0.62,0.41 -0.35,-0.43 0.94,-1.67 0.78,0.44 0.54,-0.83 1.12,1.01 1.47,-0.25 0.78,-1.03 2.47,-0.95 0.43,-0.87 1.370004,-0.9 0.5,-1.34 0.58,0.51 0.77,-1.05 0.93,0.25 3.61,-2.24 -0.15,-0.81 2.46,-3.44 -0.26,-0.88 0.83,-1.41 1.82,-0.64 0.46,-2.07 2.7,0.39 1.65,-0.93 2.48,0.16 0.87,-0.39 0.68,-1.16 1.34,-0.63 2.16,0.21 0.07,1.96 1.22,1.41 1.83,0.64 0.09,2.32 -0.8,0.68 -0.32,1.1 2.92,1.44 2.3,2.42 1.39,0.35 0,0 0.27,2.24 -1.52,0.81 -1.06,-0.73 -1.71,0.31 -0.99,1.09 -0.35,2.2 -1.07,1.31 -1.53,0.65 -0.65,2.34 -1.49,0.92 0.15,1.92 -1.08,1.25 -0.09,1 -2,0.33 0.03,0.74 -0.65,0.48 0.1,1.76 -0.6,0.22 -0.85,-0.96 -0.6,-0.01 -0.27,0.75 -1.18,-0.26 -2.26,0.53 -0.74,0.86 0.73,2.63 1.87,2.88 -0.34,0.99 0.87,1.41 0.38,5.5 2.06,4.37 -0.38,0.32 0.42,0.93 -0.46,0.51 -0.01,1.3 0.49,0.68 0.91,0.08 -0.61,2.34 2.73,0.15 -0.03,0.88 2.47,2.67 0.03,0.6 -1.55,0.44 0.92,2.49 -0.98,0.16 -1.64,-0.9 -2.14,0.61 1.47,2.83 -0.9,0.33 -0.54,1.88 -1.26,0.23 0.14,2.35 -1.56,0.84 -0.04,3.36 -0.9,2.2 -2.12,-0.16 -1.33,-1.45 -3.48,-0.74 -0.55,0.44 -2.26,-0.6 -0.13,0.58 -1.51,0.99 -0.07,1.42 0.51,1.13 1.55,0.61 -0.42,1.32 0.4,1.87 0,0 -1.9,1.78 -0.17,1.34 -0.57,-0.09 -0.89,-1.32 -1.88,-0.24 -0.950004,0.48 -0.05,0.55 -1.3,0.03 -2.43,1.23 -0.68,0.97 -2.22,0.29 -1.82,2.8 -0.52,-2.57 1.49,-1.72 0.07,-1.11 -0.62,-0.92 0.37,-2.88 -0.59,-2.21 -0.74,-0.71 0.65,-2.36 -0.55,-2.41 2.65,-0.77 1.53,-1.17 -0.42,-1.1 -0.99,-0.57 -0.07,-0.81 -1.37,-1.09 0.08,-1.24 z" 
                fill="rgb(151, 144, 238)" 
                stroke="white" 
                stroke-width=".7px"
                title="Lamphun" 
                id="TH-51" 
            />
        </svg>