<svg xmlns="http://www.w3.org/2000/svg" viewBox="103.81843999999975 75.02255 83.96000000000024 155.90999999999988" width="83.96000000000024" height="155.90999999999988">
            <path 
                d="m 138.91844,104.60255 2.39,-0.6 3.9,-4.95 2.42,0.07 0.64,-0.61 -0.11,-1.75 1.36,-1.54 0.13,-0.75 -0.67,-1 -0.94,-0.41 0.45,-3.83 0.43,-0.59 -0.09,-1.99 0.76,-0.4 0.34,-1.81 0.93,-0.68 0.16,-1.24 -0.33,-1.22 0.39,-0.72 -0.56,-0.6 0.55,-0.52 -0.36,-2.51 -0.84,-1.05 0.03,-0.88 2.86,1.04 1.68,1.27 3.06,-0.6 1.16,0.66 0,0 -0.08,1.65 1.06,1.38 -0.69,2.41 0.5,2.12 -0.12,2.27 1.73,4.52 -0.2,0.8 0.86,0.79 0.35,1.15 0.95,0.63 1.02,4.9 1.42,0.77 1.61,-0.59 0.18,1.18 0.79,0.33 -0.22,2.1 0.59,0.66 3.03,0.12 0.43,0.83 1.14,0.36 0.3,-0.36 1.06,0.64 1.29,2.62 1.94,1.6 2.83,1.64 1.16,-0.42 2.46,2.61 -0.57,2.18 0.33,1.22 1.45,-0.72 1.75,1.32 0,0 0.77,1.73 -1.65,2.33 -0.3,1.56 0.76,1.87 -0.24,1.24 0.47,0.98 -0.79,2.98 1.38,1.95 -0.68,0.84 -0.11,1.99 -1.2,-0.79 -1,0.86 -1.37,0.25 -0.44,1.84 0.51,0.35 -0.05,0.7 -0.47,1.39 -1.67,1.92 -0.19,1.53 -1.16,0.2 0.67,0.51 -0.56,1.95 -1.23,1.27 -1.44,-0.1 0.18,0.61 -0.95,0.66 -0.27,1.4 -0.76,0.34 -0.21,1.58 -1.95,3.36 -2.21,0.17 -1.12,-0.38 -0.5,1.97 -0.36,-0.07 -0.83,1.46 -0.78,-0.12 -1.36,1.62 -0.15,1.05 -3.05,4.16 0.48,1.34 -1.47,0.95 -1.27,2.69 -2.05,0.41 0.14,0.6 -1.52,0.99 -0.79,0.13 -0.49,-1.15 -1.21,-0.42 -0.92,0.97 -2.24,0.95 0.55,1.91 -1.98,1.2 -0.36,1.16 -2.43,1.23 -2.68,2.58 -0.52,1.84 -3.64,3.1 -0.61,1.76 -1.25,0.67 -0.57,1.85 -1.26,1.11 1.25,1.29 -0.34,0.79 1.27,0.54 1.19,2.15 2.2,-0.24 0.73,-1.63 0.8,-0.41 0,0 0.41,0.98 -0.54,2.37 0.41,0.94 -1.93,2.29 0.37,3.27 -0.95,-0.81 -0.86,0.04 -0.49,0.67 0.24,0.52 -0.62,1.3 1.48,0.72 -0.31,1.07 0.57,1.37 -1.23,0.71 -0.11,2.2 -0.9,1.12 0.96,2 1.51,0.6 -0.23,0.95 -0.62,0.21 -0.03,1.78 0.8,0.22 0.99,1.48 1.06,0.33 0.39,2.45 -1.54,1.38 0.06,3.85 -1.01,0.18 -0.09,1.5 -0.78,-0.09 -0.65,0.39 0.07,0.51 -1.3,-0.11 -0.24,0.82 -0.46,0.1 -1.12,-0.41 -0.98,-2.49 -1.22,-1.32 -1.69,-0.12 0,0 -0.84,-0.31 -0.42,-2.07 -1.37,-1.99 -0.41,-4.86 -2.91,-0.37 -1.4,1.71 0.09,0.78 -2.1,1.54 -0.18,0.78 -1.36,-0.03 -0.81,-1.61 -1.9,-0.7 -0.3,0.85 -1.43,-1.27 -0.78,0.29 -1.26,-1.07 -0.65,0.15 -1.03,-1.73 -1.39,-0.29 0.11,-0.55 -2.26,-3.17 -1.39,0.31 -0.23,-0.82 -0.69,0.4 -0.94,-0.4 -0.65,-2.73 0.28,-0.67 -1.05,-0.92 0,0 -0.4,-1.87 0.42,-1.32 -1.55,-0.61 -0.51,-1.13 0.07,-1.42 1.51,-0.99 0.13,-0.58 2.26,0.6 0.55,-0.44 3.48,0.74 1.33,1.45 2.12,0.16 0.9,-2.2 0.04,-3.36 1.56,-0.84 -0.14,-2.35 1.26,-0.23 0.54,-1.88 0.9,-0.33 -1.47,-2.83 2.14,-0.61 1.64,0.9 0.98,-0.16 -0.92,-2.49 1.55,-0.44 -0.03,-0.6 -2.47,-2.67 0.03,-0.88 -2.73,-0.15 0.61,-2.34 -0.91,-0.08 -0.49,-0.68 0.01,-1.3 0.46,-0.51 -0.42,-0.93 0.38,-0.32 -2.06,-4.37 -0.38,-5.5 -0.87,-1.41 0.34,-0.99 -1.87,-2.88 -0.73,-2.63 0.74,-0.86 2.26,-0.53 1.18,0.26 0.27,-0.75 0.6,0.01 0.85,0.96 0.6,-0.22 -0.1,-1.76 0.65,-0.48 -0.03,-0.74 2,-0.33 0.09,-1 1.08,-1.25 -0.15,-1.92 1.49,-0.92 0.65,-2.34 1.53,-0.65 1.07,-1.31 0.35,-2.2 0.99,-1.09 1.71,-0.31 1.06,0.73 1.52,-0.81 -0.27,-2.24 0,0 0.65,-0.7 0.23,-2.04 1.57,-0.54 -0.31,-0.93 0.72,-0.88 -0.89,-0.82 -1.18,-0.1 -0.02,-1.69 1.37,-0.99 -1.04,-0.9 -0.39,-1.16 1.38,-3.44 1.55,-1.45 -0.02,-1.85 -1.35,-4 0.1,-0.7 2.26,-1.51 0.35,-1.25 -0.85,-2.6 0.54,-1.54 -0.73,-1.11 -0.09,-1.65 z" 
                fill="rgb(151, 144, 238)" 
                stroke="white" 
                stroke-width=".7px"
                title="Lampang" 
                id="TH-52" 
            />
        </svg>