<svg xmlns="http://www.w3.org/2000/svg" viewBox="235.54844 159.8425500000001 88.79999999999981 102.95000000000002" width="88.79999999999981" height="102.95000000000002">
            <path 
                d="m 320.70844,159.97255 0.63,0.21 0,0 -0.26,3.58 -1.06,0.2 -1.2,1.15 -0.9,4.13 0,0 0.04,3.2 -1.16,1.2 0.24,2.35 -1.07,-0.14 -0.57,0.61 0.48,0.5 0.84,6.39 0.86,1.07 0.03,1.54 -0.32,2.03 -0.74,0.92 0.61,1.17 -1.06,0.27 -0.86,2.68 0.65,4.75 0.85,1.15 -0.56,0.38 0.44,0.66 1.46,-0.66 1.78,1.53 0,0 1.53,1.84 0.98,2.83 1.03,0.85 -0.02,3.34 -0.58,0.08 -0.02,1.17 -2.38,1.81 -2.7,1.11 -1.41,-0.67 -2.71,0.04 -0.47,1.58 0.53,1.09 -0.73,0.64 2.48,2.8 -0.37,0.71 0.49,1.46 -1.53,0.58 -0.51,0.86 0.49,1.5 1.15,0.77 -0.01,0.64 0.83,-0.1 0.53,1.32 0.63,0.02 0.5,0.73 1.17,-0.25 -0.63,1.47 1.03,1.54 -0.34,0.34 -1.1,0.15 -3.1,-0.83 -0.67,0.9 5.4,0.94 -0.11,0.49 -0.23,-0.31 -1.61,1.26 -0.22,1.01 -1.6,-0.86 -0.03,2.52 4.7,1.46 0.93,1.96 0,1.35 0.99,0.43 0.37,0.72 0,0 1.81,1.07 0,0 -0.53,0.98 0,0 -0.48,0.34 0,0 -2.67,0.67 -0.51,1.87 -1.09,0.85 -1.07,-0.12 -1.75,0.96 0.97,3.14 1.6,1.2 0,0 -0.89,1.01 0.3,0.33 -1.05,0.24 -0.23,0.64 -2.08,-0.8 -0.74,0.71 0.43,0.34 -0.65,0.34 -0.14,0.74 -3.38,-0.89 0.31,0.82 -2.95,1.86 -1.65,0.23 -1.27,1.43 -5.15,1.98 0,0 -4,0.72 -2.72,-3.13 0.99,-0.75 1.19,0.63 0.18,-0.53 -1.96,-2.01 -0.52,-0.79 0.11,-0.79 -0.56,-0.2 0.78,-5.27 -0.75,-0.16 -0.43,-1.01 0.26,-1.68 -2.06,-3.73 0.29,-0.74 -1.35,-0.33 -1.39,3.11 -1.48,0.33 -0.67,0.73 -0.75,-0.1 -1.03,-0.61 -0.44,-1.43 -0.62,-0.46 -0.21,-2.19 -1.51,-0.28 -1.49,-1.31 -0.32,0.34 -0.35,-1.03 -0.88,-0.58 -1.74,1.48 -0.61,-0.01 -1.72,-1.43 -1.15,0.96 -0.9,-0.68 -1.13,0.42 -1,-0.23 -0.86,1.07 -1.22,-1.52 -1.11,0.05 -0.87,0.63 -0.21,-0.78 -1.22,0.35 -1.74,-1.6 -0.73,-1.38 -1.51,0.7 -0.04,2.18 -2.02,2.65 -0.07,0.89 -2.19,0.58 -1.48,1.03 -0.36,1.23 0.37,4.49 -0.59,2.42 -0.86,0.58 -1.68,-0.76 0,0 0.09,-1.49 -2.46,-0.44 -0.46,-0.94 1.6,-0.96 -0.7,-2.18 1.21,-2.71 -0.03,-2.42 -0.49,-1.11 0.64,-0.51 -0.26,-0.6 0.63,-0.66 -0.21,-0.71 0.47,-0.12 0.61,-1.62 -0.1,-2.73 2.07,-2.67 0.09,-1.34 -1.1,-1.29 -0.67,-1.81 -2.23,-0.22 -1.54,-1.86 -1.01,-0.33 -0.42,-1.38 -0.93,-0.47 -2.5,0.45 -2.64,-0.53 -0.16,-2.46 0.74,-2.96 -0.63,-1.07 0.07,-1.17 -1.45,-0.95 -1.22,1.02 -1.29,-0.08 -1.52,-1.16 0.64,-2.43 1.96,-1.91 -0.81,-1.1 0.53,-1.67 0.81,-1.12 1.71,-0.5 0,0 0.63,1.1 1.18,0.56 1.75,-0.41 0,0 2.3,0.61 0.75,0.69 1.31,-0.1 1.12,1.15 0.44,0.8 0.93,0.21 1.33,1.71 0.91,0.44 0.87,0.26 0.2,0.73 1.46,0.54 1.06,-0.17 0.22,0.64 0.98,-0.1 0.41,-1.72 1.06,-0.26 -0.15,-2.03 3.27,-0.72 2.19,-4.33 3.1,-2.61 0.18,-1.16 2.84,-0.88 2.19,-2.28 1.18,0.96 0.38,-1.36 1.57,-1 -0.77,-0.64 -1.16,-0.04 0.08,-0.63 2.94,0.11 1.66,-0.95 1.05,0.12 -0.44,1.29 0.79,-0.05 0.63,-2.08 0.84,-0.81 1.58,-0.55 0.74,-0.95 1.77,0.28 -0.44,-1.25 -1.35,-0.73 1.71,-3.88 1.07,1.4 1,-0.86 0.98,-2.27 4.94,-1.32 1.06,0.7 1.51,-1.32 -0.22,-2.03 1.49,-3.63 0.34,-2.16 1.5,-2.52 0.32,-0.24 2.78,1.01 3.34,1.98 1.99,-0.08 3.45,-4.74 4.78,-3.69 1.23,-3.39 2.46,-1.44 z" 
                fill="rgb(151, 144, 238)" 
                stroke="white" 
                stroke-width=".7px"
                title="Loei" 
                id="TH-42" 
            />
        </svg>