<svg xmlns="http://www.w3.org/2000/svg" viewBox="207.72843999999995 344.59255 66.73000000000005 64.12999999999994" width="66.73000000000005" height="64.12999999999994">
            <path 
                d="m 271.66844,344.59255 1.03,6.61 -0.67,7.53 0.64,3.14 0,0 -0.33,2.66 0.54,3.5 -0.54,0.15 -1.61,-0.82 0.72,1.48 -0.07,2.65 0.55,0.12 1.33,2.7 -0.28,1.46 0.59,1.62 0.16,2.66 0.73,1.68 0,0 -1.74,0.49 -1.63,-0.55 -0.7,1.21 -0.21,2.37 -1.65,1.35 -3.12,0.2 -0.12,2.31 -1.21,1.74 -1.04,-0.42 -0.59,-1.51 -0.58,1.29 -2.16,0.07 -2.7,1.64 -4.01,-0.59 -0.19,0.93 -1.12,0.96 0.61,0.58 -0.28,0.29 0.72,1.32 -0.42,0.22 -0.25,-0.5 -0.94,0.76 0.23,0.63 1.33,0.03 -0.76,1.39 -0.58,-0.25 0.26,1.57 -0.69,0.02 0.02,0.48 -2.73,-1.83 -1.06,-1.31 -2.72,-0.17 -0.79,0.83 0.07,3.19 1.02,1.17 -0.5,0.77 -1.31,0.32 -2.05,-0.98 -0.87,-0.95 -0.82,-0.2 -0.31,0.54 -0.83,0.11 -2.31,-2.83 -1.78,-0.04 -0.34,0.59 -1.12,0.14 -1.56,-0.23 -1.08,-0.76 -1.78,3.46 -0.86,0.6 -1.29,-0.15 -2.43,2.5 -3.33,-0.58 -0.08,0.82 1.42,2.33 -1.6,1.62 0,0 -1.36,-0.71 -1.96,0.29 -0.3,-0.77 -2.33,0.73 -0.31,-0.88 0,0 0.38,-0.46 -0.83,-0.03 -0.52,-1.18 -1.26,-0.3 -0.55,-0.92 0,0 1.35,-2.24 -1.07,-0.98 0.11,-3.02 -0.61,-1.1 0.17,-0.98 -0.65,-1.43 -0.8,-0.15 -0.1,-0.61 -0.63,-0.25 0.25,-1.27 -0.57,-0.66 -0.34,-2.28 1.59,-0.82 -0.12,-3.37 1.08,-0.74 0.49,-1.75 -3.28,-1.99 0,0 2.83,-3.96 0.63,0.34 2.24,-1.5 -0.12,-1.8 1.73,-1.59 0.56,-1.27 1.13,-0.56 0.8,-1.15 1.61,-0.46 -0.24,-1.03 0.41,-1.04 -0.28,-0.59 -0.83,-0.08 0.12,-0.46 0.81,-0.89 1.38,-0.45 0.71,-1.68 0.82,-0.26 -0.35,-1.48 1.14,-4.17 -0.19,-0.88 1.43,-0.95 4.62,-1.21 2.62,-1.26 -0.12,-2.15 -1.64,-1.06 0.95,-0.75 0,0 2.07,-0.1 1.23,2.44 1.09,0.62 0.9,-0.07 0.97,0.67 2.87,-0.25 3.56,2.01 0.8,1.78 1.24,0.53 -0.11,1.82 2.17,1.54 0.95,1.79 3.14,0.1 0.42,-0.65 1.07,-0.35 0.93,1.04 1.99,0.75 3.68,-0.25 1.02,0.68 1.3,-1.58 3.51,-1.33 1.97,-1.82 -0.18,-2.76 0.34,-0.48 -0.64,-1.46 0.58,-1.18 -0.17,-3.22 -1.01,-0.53 -0.02,-0.52 0.95,-0.65 0.51,-2.08 z" 
                fill="rgb(151, 144, 238)" 
                stroke="white" 
                stroke-width=".7px"
                title="Lop Buri" 
                id="TH-16" 
            />
        </svg>