<svg xmlns="http://www.w3.org/2000/svg" viewBox="0.25843600999993543 46.79255000000003 88.11999999000003 153.98000000000002" width="88.11999999000003" height="153.98000000000002">
            <path 
                d="m 12.048436,140.19255 1.28,0.49 0.82,-2.72 1.04,0.51 0.65,-0.89 1.98,-0.1 0.67,-0.61 0.45,0.41 0.26,-0.4 -0.55,-1.14 0.61,-0.3 0.86,0.44 1.27,-1.34 3.01,0.58 1.38,-0.28 0.29,-0.7 2.92,0.36 0.43,-2.64 -0.43,-3.68 0.38,-1.58 -1.36,-2.51 -0.13,-0.77 0.77,-1.68 -0.66,-0.58 -0.36,-2.19 -0.23,-0.91 -0.33,-1.02 0.56,-1.22 -0.49,-2.7 -2.44,-1.29 -1.12,-1.19 -1.3,-1.17 -0.08,-1.01 1.08,-0.38 0.4,0.32 1.21,-1.25 2.03,-0.94 -0.16,-4.4 1.63,0.18 0.67,-0.44 -0.04,-1.94 1.57,-0.13 1.23,-1.19 1.57,-0.28 0.3,-1.66 -0.36,-1.32 0.68,-1.01 -0.45,-3.26 0.6,-1.24 -0.21,-0.59 -1.07,-0.5 -0.01,-0.54 -0.68,-0.14 -0.4,-1 -1.85,-1.01 1.25,-1.5 0.56,0.5 0.84,-0.06 0.69,-0.64 0.7,0.12 -0.02,-0.56 -0.81,-0.34 -0.36,-1.55 -1.7,-1.94 0.26,-2.56 -1.16,-0.9 1.91,-1.01 3.05,-4.65 1.73,-1.46 -2.16,-2.31 0.46,-3.03 2.73,-0.17 2.84,-1.39 1.16,-0.04 1.05,-0.32 -0.22,-1.36 0.75,-1.31 1.95,0.38 1.74,-0.47 0.34,-1.65 -0.99,-1.6 0.4,-0.96 -0.59,-1.06 0.84,-3.54 -0.2,-2.85 0.86,-0.62 0.53,0.81 1.75,-0.54 -0.03,1.22 1.25,1.52 2.32,-1.07 1.07,0.95 1.18,0.27 0.93,0.73 0.57,1.47 1.83,1.04 0.6,-0.22 0.64,1.17 -0.34,1.18 1.09,1.27 4.1,-0.78 1.2,-0.75 2.96,0.64 1.53,-1.04 1.45,0.83 3.1,-0.36 0.47,0.41 0,0 0.07,2.07 4.69,3.58 0.27,3.72 1.54,0.86 0.2,2.72 0.67,-0.05 1.11,1.38 0.27,1.42 -0.96,1.86 0.07,1.98 0.57,0.89 -1.12,0.39 -0.28,0.58 0.5,1.6 0.96,0.93 -0.39,1.52 0.81,1.71 -0.45,1.45 0.64,0.6 -1,1.3 0.61,2.21 -1.05,0.91 -0.96,0.08 -0.05,0.43 1.13,1.58 1.45,0.59 1.11,1.55 0.67,0.11 1.26,4.57 -1.26,2.07 -2.67,1.34 -1.68,-0.15 -1.5,1.36 -1.2,0.1 -2.51,-1.11 -3.45,-0.51 -1.27,1.4 -1.34,-0.58 -0.98,-1.72 -0.94,-0.41 -0.13,-1.39 -1.13,-0.57 -0.75,-4.08 -5.25,-0.12 -0.79,-0.53 -0.83,1.43 0.68,2.28 -1.64,1.45 -1.42,2.79 -1.01,0.49 -0.38,2 -0.98,0.93 -0.41,1.31 0.58,2.15 -0.44,0.86 -0.59,0.14 -0.02,1.25 -2.19,0.84 -2.4,3.31 -0.65,2.83 0.66,2.63 0.57,0.61 0.73,-0.32 0.86,0.36 -0.06,1.17 -1.62,1.36 0.72,1.79 -0.46,0.76 0.33,1.79 0.5,0.53 -0.45,1.53 0.79,0.96 1.83,-0.29 0.78,0.7 1.8,0.38 0.05,0.99 1.8,0.14 0.16,1.2 1.03,0.35 0.58,1.13 -1.86,2.28 -2.31,-0.68 -0.29,1.5 -1.11,0.94 -2.14,0.72 -1.11,3.14 -1.54,0.82 -0.62,1.26 0.55,0.79 0.81,-0.24 2.1,1.01 -0.1,0.74 1.52,2.35 1.14,0.53 0.7,1.08 -0.04,2.83 1.97,0.62 -0.65,0.47 -3.19,0.06 -0.63,1.21 0.8,2.77 1.66,0.67 -0.37,0.99 0.63,0.95 -0.58,0.57 -0.1,1.03 -0.63,0.33 0.75,1.54 -0.09,1.57 1.62,0.31 1.01,1.78 0.95,0.01 0.75,-0.67 -0.08,0.62 0.82,0.14 0.38,0.8 1.32,-0.69 1.3,0.15 0.18,0.63 -1.03,2.18 -0.64,-0.28 -0.52,0.84 -1.56,0.67 0.72,2.65 -1.11,-0.07 -3.91,1.17 -1.01,0.96 -0.75,1.7 -3.67,-1.87 -4.37,1.78 -0.47,1.16 -0.44,-0.26 0,2.09 0.96,0.29 0.46,1.02 1.47,0.43 0.95,1.11 0.41,1.83 0.95,1.36 1.46,1 1.55,-0.09 0.93,1.32 -0.75,1.26 1.18,2.02 -0.54,3.4 -1.36,1.6 -2.27,1.56 0,0 -1.93,-0.78 -0.32,-1 -1.17,-0.9 -0.15,-1.45 -0.98,-1.19 0.23,-0.62 -0.8,-0.78 -0.03,-0.51 0.46,0.11 -0.66,-0.71 -0.16,-1.45 -0.86,-0.42 -0.69,-1.81 0.17,-0.75 -0.89,-0.83 0.43,-1.05 -0.79,-0.75 -0.08,-1.44 -3.84,0.97 -0.89,1.58 0.37,1.42 -3.77,2.29 -2.14,-0.48 -1.45,0.7 -0.55,-0.56 -1.59,0.58 -1.2,-0.42 0,0 -1.52,-1.25 -0.25,-1.22 -1.35,-0.12 -1.62,-3.58 1.18,-3.94 2.94,-1.94 0.25,-1.46 -2.18,-5.75 -0.65,-0.69 -0.39,-1.26 -0.93,-2.08 -0.19,-3.39 -1.7,-1.24 -2.79,-4.21 0.14,-0.9 1.58,-1.49 0.31,-1.08 -1.33,-2.18 -2.97,-1.42 -1.04,-0.06 -0.67,0.5 -0.94,3.24 -1.04,0.93 -1.34,0.31 -3.66,-4.54 -0.3,-1.94 0.7,-2.06 -0.78,-1.08 -0.95,-0.24 -0.56,-1.92 -1.33,-1.63 -0.93,-3.47 -2.51999999,-2.56 -0.22,-2.31 1.04999999,-1.32 0.18,2.52 1.55,0.16 0.98,-0.41 1.09,0.9 1.25,3.22 0.87,0.82 1.44,-0.21 0.99,-0.82 1.62,1.26 0.77,-0.42 z" 
                fill="rgb(151, 144, 238)" 
                stroke="white" 
                stroke-width=".7px"
                title="Mae Hong Son" 
                id="TH-58" 
            />
        </svg>