<svg xmlns="http://www.w3.org/2000/svg" viewBox="453.76843999999977 252.00255 61.16000000000025 50.42999999999998" width="61.16000000000025" height="50.42999999999998">
            <path 
                d="m 466.02844,252.00255 0.23,0.38 0,0 0.67,1.47 0,0 1.18,1.62 1.43,-2.11 1.4,-1.08 1.94,0.1 -0.15,0.46 0.63,0.37 1.96,0.26 0,0 0.46,0.41 0,0 1.21,-0.92 1.92,1.83 1.74,-0.05 1.37,1.12 3.99,-1.22 0.78,0.36 4.52,0.01 0.67,1.15 -0.07,1.54 2.07,2.72 2.29,-2.91 0.81,-0.02 0.56,1.32 0.75,0.26 0,0 1.78,4.07 0.37,3.31 -1.44,4.62 -0.64,4.5 0.22,1.84 2.23,3.07 5.24,3.35 0.9,1.79 0.11,1.78 1.47,2.07 0.52,1.74 2.64,1.27 1.81,2.51 1.33,0.86 0,0 -1.36,-0.31 0,0 0.11,0.68 0,0 -1.92,1.43 -1.17,-0.14 -1.94,1.64 0,0 -0.12,0.86 0,0 -0.24,0.64 -1.69,0.68 -1.75,-0.21 -0.38,1.03 -0.62,0.28 -0.96,-0.22 -0.65,-0.76 -1.5,0.25 0,0 -1.45,-0.6 -2.88,-0.24 -0.72,-0.49 -0.13,-0.78 -1.3,-0.37 -0.35,-0.88 -0.55,1.28 -1,0.71 -1.03,0.3 -0.98,-0.38 -0.79,-0.69 -0.16,-0.96 -0.95,0.11 -0.55,-0.58 -0.11,-1.17 -0.9,-1.03 -0.75,-2.33 -1.11,-0.46 -1.61,0.09 -0.64,-1.76 -7.14,-0.52 -1.8,0.53 -1.2,1.18 0,0 -1.92,-0.42 0.53,-0.77 -0.95,-3.44 0.2,-2.08 -1,-2.98 -0.9,-0.61 -0.49,1.65 -1.01,0.82 -1.64,0.01 -0.44,0.55 0,0 0.08,-1.83 -0.79,-1.26 0.78,-1.4 0.08,-1.71 -1.22,-0.76 0.24,-1.57 -1.18,-0.9 -0.12,-1.34 -0.89,-0.87 -0.96,-0.12 -0.23,-0.85 0.37,-0.96 -0.3,-1.69 0.79,-1.47 -1.6,-0.58 0.42,-1.38 -1.12,-0.26 -0.2,-1.18 -1.22,-1.22 0.27,-1.55 -1.16,-0.08 -1.75,-2.29 -0.07,-1.43 -0.67,0.15 -0.8,-0.9 0,0 2.57,-1.24 1.04,-1.41 0.04,-1.92 2.49,-0.15 1.21,0.43 0,0 0.95,0.47 0,0 0.75,0.18 1.13,-1.26 1.46,-0.07 z" 
                fill="rgb(151, 144, 238)" 
                stroke="white" 
                stroke-width=".7px"
                title="Mukdahan" 
                id="TH-49" 
            />
        </svg>