<svg xmlns="http://www.w3.org/2000/svg" viewBox="167.77843999999988 439.50255 33.80000000000007 38.6599999999998" width="33.80000000000007" height="38.6599999999998">
            <path 
                d="m 195.58844,439.50255 0.29,2.46 2.52,0.29 -0.28,3.08 0,0 -0.97,8.03 0.69,0.52 -0.37,0.96 1.87,1.69 -2.27,2.89 0.88,0.73 2.82,6.08 0,0 0.67,1.54 0.14,4.58 0,0 -0.72,0.87 -2.31,0.7 -0.21,1.21 -1.19,0.81 -0.39,-0.22 -2.28,1.04 -0.71,-1.22 -2,0.49 -0.35,-0.62 -0.39,0.53 -0.63,-0.47 -2.13,0.46 -2.02,2.23 -2.52,-0.09 0,0 -0.49,-0.12 0.51,-2.99 -2.16,0.28 -0.61,-0.73 0.11,-3.53 -1.84,1.16 -3.17,0.32 -0.68,-0.81 -0.19,-1.13 0.74,-0.79 0.39,-1.68 0.9,-0.32 -0.03,-0.64 -0.48,-0.21 -0.36,-1.58 -1.04,0.38 -0.55,-0.9 -1.55,-0.27 -0.62,0.42 0.73,-2.15 -1.03,-2.1 1.22,-0.23 0.75,-2.13 -3.31,-0.84 0,0 -0.52,-0.97 -1.08,-0.52 -0.57,-1.89 -1.02,-0.09 1.6,-2.95 -0.68,-1.18 0,0 1.74,-0.89 2.43,-2.93 1.54,-0.34 0.89,-1.09 12.82,-0.75 1.61,-1.44 4,-1.09 z" 
                fill="rgb(151, 144, 238)" 
                stroke="white" 
                stroke-width=".7px"
                title="Nakhon Pathom" 
                id="TH-73" 
            />
        </svg>