<svg xmlns="http://www.w3.org/2000/svg" viewBox="127.58843999999999 773.8325500000001 74.27000000000004 100.68999999999971" width="74.27000000000004" height="100.68999999999971">
            <path 
                d="m 164.65844,774.22255 0.79,0.01 0.33,-0.12 0.32,0.33 -0.43,0.61 0.58,0.38 1.1,0.09 0.32,-0.81 0.41,0.29 0.77,1.56 0.08,1.92 1.07,0.44 1.19,2.6 -0.41,0.75 -0.02,3.92 0.34,0.92 0.81,0.19 1.17,1.8 0.36,5.64 0.02,1.71 -0.03,5.42 2.96,20.2 0.9,1.41 0.48,0.26 0.7,-0.45 1.25,0.83 0.25,0.53 0.19,0.61 1.99,2.8 3,7.42 3.31,1.67 2.36,0.08 -1.24,-1.67 -0.41,-1.77 1.12,-2.71 -0.35,-1.46 -3.02,-1.33 1.54,0 2.1,1.07 2.62,3.22 3.46,9.25 1.31,4.83 3.91,21.4 0,0 -1.1,0.16 -0.12,-0.49 -0.44,0.03 -0.3,1.52 -4.08,-0.17 -0.21,0.79 -0.85,0.56 -5.88,1.82 0,0 -3.18,0.51 -1.67,1.32 -1.64,0.41 -4.05,-1.6 -1.95,-1.94 -2.55,0.45 -2.26,-0.76 -1.62,0.55 -1.25,-0.45 -0.77,0.5 -1.82,-0.4 -1.57,2.26 -3.14,0.08 0,0 0.44,-1.1 -0.65,-0.91 0.72,-1.49 -0.54,-0.43 0.44,-1.01 -0.6,-1 1.61,-1.13 -0.33,-1.28 -1.54,-1.23 -1.74,0.49 -3.15,-1.56 -1.75,0.23 -1.05,1.48 -0.9,0.22 0.26,0.41 -0.96,1.05 0.3,0.39 -0.83,0.09 -0.26,0.75 -0.67,-0.08 -0.79,1.77 -0.81,0.18 -0.8,1.37 0.31,1.02 -1.62,0.46 -1.71,-0.78 -0.56,0.42 -0.61,-1.62 -2.41,2.04 -0.74,-0.11 -0.4,-0.66 0.06,-4.61 -1.55,-0.15 0,0 0.05,-1.87 1.22,-1.15 -1.36,-2.74 -0.74,-4.51 -2.61,-1.85 -3.35,0.23 0.17,-0.61 -0.7,-0.68 0.08,-0.94 1.15,-0.63 -0.06,-1.04 0.93,-0.79 -0.51,-2.21 1.56,-2.4 -0.35,-1.47 -2.13,-1.06 0.02,-0.59 -0.51,0.16 0,0 -0.57,-0.27 -0.52,-2.34 -0.93,0.04 -1.02,-1.16 -0.4,0.08 -0.39,-1.29 -0.02,-0.8 0.98,-0.87 0.88,-1.76 -0.16,-0.79 2.39,-1.66 -0.4,-0.87 0.91,0.45 0.65,-0.86 1.29,-0.42 0.48,-1.49 1.53,1.34 1.11,-1.01 1.05,0.11 0.1,-0.9 1.06,-0.23 0.36,-1.01 -0.65,-0.02 -0.01,-0.64 2.33,-3 1,-0.19 -0.49,-2.04 0.98,-1.18 1.13,0.17 -0.08,-0.7 1.12,-1 -0.18,-1.61 2.05,-1.61 0.52,-2.74 -0.51,-0.28 0.26,-3.14 -0.6,-1.69 0.89,-0.96 1.94,-0.08 -0.16,-1.72 1.13,-1.08 0.15,-1.29 1.98,-1.11 0.68,0.01 0.87,1.07 1.29,-1.24 0.3,0.52 3,-0.88 -0.01,-1.06 -0.5,-0.59 0.37,-0.99 1.27,0.24 0.82,-0.65 0.52,-2.23 0.76,-0.87 0.12,-2.5 -0.39,-3.62 0.34,-1.73 -1.35,-1.05 0.97,-1.14 -0.05,-1.8 0.55,-0.23 0.47,-1.17 -0.37,-4.91 0.92,-0.63 0.51,-1.38 0,0 0.95,0.39 z" 
                fill="rgb(151, 144, 238)" 
                stroke="white" 
                stroke-width=".7px"
                title="Nakhon Si Thammarat" 
                id="TH-80" 
            />
        </svg>