<svg xmlns="http://www.w3.org/2000/svg" viewBox="447.78843999999987 173.32254999999984 55.3900000000001 87.10000000000016" width="55.3900000000001" height="87.10000000000016">
            <path 
                d="m 461.83844,173.77255 1.85,2.09 3.89,9.43 1.44,1.17 2.64,0.84 1.48,1.12 3.06,5.92 3.46,4.81 5.49,2.74 10.71,6.58 3.62,5.64 1.4,1.16 1.5,2.23 0.76,5.15 0.04,6.9 -1.59,7.39 -0.94,2.84 -2.14,3.53 -0.38,1.77 0.24,6.72 1.68,4.16 -1.66,3.11 0,0 -0.75,-0.26 -0.56,-1.32 -0.81,0.02 -2.29,2.91 -2.07,-2.72 0.07,-1.54 -0.67,-1.15 -4.52,-0.01 -0.78,-0.36 -3.99,1.22 -1.37,-1.12 -1.74,0.05 -1.92,-1.83 -1.21,0.92 0,0 -0.46,-0.41 0,0 -1.96,-0.26 -0.63,-0.37 0.15,-0.46 -1.94,-0.1 -1.4,1.08 -1.43,2.11 -1.18,-1.62 0,0 -0.67,-1.47 0,0 -0.23,-0.38 0,0 1.26,-1.11 2,-0.3 1.29,-2.82 -0.17,-0.61 2.26,-0.6 0.41,-1.51 2.69,-1.09 -0.05,-1 -0.76,-0.04 0,-0.6 -1.35,-0.73 -0.21,-0.63 -0.59,0.36 0,-0.74 0.56,-0.32 0,0 0.12,-0.44 0,0 -0.24,-1.02 0.34,-0.59 0.95,-0.22 1.48,-2.06 -0.81,-0.79 0.19,-2.26 2.94,-4.27 -0.76,-0.49 -1.17,-2.14 -0.27,-1.51 0.07,-0.59 0.89,-0.42 0.42,-1.49 -1.09,-3.11 0.68,-3.14 -0.24,-0.41 -2.59,0.31 -5.93,-0.52 -1.41,0.89 -2.56,0.39 -1.31,-0.04 -0.58,-0.92 -1.14,0.38 -0.68,-0.42 0.24,1.07 -1.2,-0.25 -0.36,0.81 -0.58,-0.3 0.6,1.03 -0.88,-0.05 0.07,0.67 -0.63,0.38 -0.41,-1.29 -1.05,0.54 -0.19,-0.85 -1.11,0.11 0.14,0.94 0.56,-0.12 -0.45,1.04 -0.46,-0.06 0.22,-0.57 -0.79,-0.63 -0.38,1.16 -1.08,-0.93 -2.82,-4.93 -0.48,-1.85 0.76,-0.15 0.83,-1.78 0.44,-1.22 -0.3,-2.21 1.03,-0.64 0.26,-0.92 -0.47,-1.31 -1.03,-0.87 0.27,-1.33 -0.5,-0.29 0.98,-0.52 0.39,0.58 1.25,-0.53 0.26,-1.47 0.8,-0.29 -0.32,-0.22 0.34,-0.62 -0.91,0.22 -0.18,-0.82 0.72,-0.37 -0.56,-0.27 0.53,-0.36 -1.2,-1.38 0.56,0.04 -0.22,-1.58 -0.99,0.62 0.49,-1.37 -1.24,-0.83 -0.65,0.07 -0.09,0.82 -0.29,-0.19 -0.91,-2.33 0.77,-0.38 -0.32,-0.81 0,0 -0.45,-0.61 0.15,-0.83 -0.94,-0.79 0.28,-0.53 -1.38,-0.72 1.08,-2.31 1.2,-0.11 0.96,-1.13 0.81,0.1 0.56,0.38 -0.1,0.93 1.62,0.75 1.07,-1.52 2.57,-1.97 0.88,-1.62 -1.41,-1.6 -0.45,-2.01 2.22,-0.76 0.35,-0.66 1.46,1.47 0.11,-1.27 0.73,-0.46 0.29,0.32 0,0 z" 
                fill="rgb(151, 144, 238)" 
                stroke="white" 
                stroke-width=".7px"
                title="Nakhon Phanom" 
                id="TH-48" 
            />
        </svg>