<svg xmlns="http://www.w3.org/2000/svg" viewBox="240.90843999999973 418.59255 39.83000000000024 38.1699999999999" width="39.83000000000024" height="38.1699999999999">
            <path 
                d="m 262.95844,420.85255 0.21,-0.67 2.22,-1.59 0.46,1.55 1.47,-0.55 0.41,1.78 3.59,1.62 1.12,1.15 -0.11,0.58 1.08,0.39 0.1,0.67 1.65,1.67 0.69,-0.38 0,0 2.9,1.68 0.53,1.37 0.91,0.77 0,1.14 0.55,0.62 -0.49,2.9 -5.54,0.99 -1.35,-1.41 -0.91,0.04 -0.22,2.38 0.39,0.69 -0.77,1.58 -1.83,0.52 -1.12,1.49 -0.97,0.2 -1.76,1.69 -0.14,1.1 1.43,1.4 0.78,2.9 -0.55,0.34 -0.49,-0.51 -1.38,1.53 -1.23,-0.76 -3.49,0.45 -0.72,0.73 -0.21,1.43 -0.43,0.03 0.19,0.66 -1.32,0.48 -0.37,-0.27 -0.44,0.63 -1.29,0.36 -0.41,-0.31 0.19,1.92 -0.34,0.28 0,0 -6.24,-0.51 -8.8,1.16 0,0 0.01,-17.98 2.14,-1.16 0.37,-2.5 0,0 -0.41,-1.03 0.29,-1.37 1.33,0.19 0.47,0.97 0.75,0.25 0.09,-0.72 2.05,-0.37 2.58,-2.83 0.38,-2.3 -0.58,-0.96 0.12,-1.56 0.96,0.57 0.33,1.05 0.73,0.54 2.69,0.08 1.66,0.8 0.89,1.91 0.96,-0.37 0.52,-1.26 1.67,-0.43 -0.58,-2.04 0.59,-0.81 -0.08,-1.09 0.37,-0.59 0.86,0.46 -0.36,-1.11 0.74,-0.85 -0.59,-0.8 1.14,-0.02 z" 
                fill="rgb(151, 144, 238)" 
                stroke="white" 
                stroke-width=".7px"
                title="Nakhon Nayok" 
                id="TH-26" 
            />
        </svg>