<svg xmlns="http://www.w3.org/2000/svg" viewBox="258.97844000000026 328.6825500000003 123.36999999999978 116.99000000000007" width="123.36999999999978" height="116.99000000000007">
            <path 
                d="m 272.66844,361.87255 0.31,0.66 1.49,0.31 -0.18,-0.45 0.93,-1.07 -0.12,-0.93 1.13,-1.38 2.34,0.2 1.42,0.8 1.85,-1.23 3.08,0.24 2.07,-0.53 1.54,1.16 1.35,-2.23 1.17,-0.46 1.82,0.7 1.25,-0.23 1.71,0.86 2.78,0.06 1.08,-0.73 0.81,-2.12 0.62,-0.38 4.87,2.82 1.22,-0.93 2.27,-3.6 2.06,-0.05 2.33,-0.77 0.93,0.59 1.6,-1.25 -0.08,-1.77 0.73,-1.99 -0.3,-1.29 1.54,-2.37 0.84,-2.98 0.71,0.12 0.27,-0.85 0.19,0.48 0.48,-0.58 0.44,0.2 -0.2,-0.44 1.24,-0.48 0.13,-0.64 0.3,0.24 0.01,-1.38 0.6,0.01 0.67,-1.01 -0.23,-1.51 0.43,-0.01 0.25,-1.34 0.59,-0.03 -0.45,-0.27 0.02,-0.78 0.52,0.31 0.1,-0.53 1.4,-0.19 0.13,0.62 0.9,-0.04 0.22,-1.21 0,0 0.66,0.18 0,0 1.14,0.72 1.3,-0.46 -0.27,-0.46 0.85,-1.03 -0.08,-0.64 2.4,-0.27 0.98,-0.52 0.36,-1.06 1,0.32 0,0 2.4,2.5 -0.44,1.89 0.28,0.64 1.21,-0.08 1.7,2.12 0.86,0.4 2.4,-1.46 2.07,-0.03 2.13,-0.66 2.43,1.37 3.19,-0.39 0.86,-1.11 2.71,0.95 0,0 1.02,-0.06 0,0 1.13,-0.9 1.01,0.32 -0.51,1.48 0,0 0.76,0.96 0,0 0.49,0.2 0.54,1.42 2.05,-0.3 0.11,0.59 2.1,1.14 0,0 -0.01,1.16 -0.57,0.44 0.74,1.5 -0.31,0.52 0.5,0.62 -0.24,1.48 0.79,0.55 -0.23,0.57 0.67,0.5 -0.07,0.73 2.12,1.68 0.12,-0.71 2.19,0.53 1.33,-1.07 0.33,0.68 0.53,-0.51 1.09,0.9 1.22,0.05 -0.53,0.37 0,0 0.35,0.52 0,0 0.37,0.44 0.38,-0.59 0.36,0.49 -0.58,0.81 0.28,0.24 0.38,-0.56 0.29,0.39 1.01,-0.6 0.19,0.53 0.67,-0.29 2.14,3.14 0.15,0.6 -0.78,0.09 -0.61,0.87 -0.57,-0.86 -0.3,0.71 0.06,-0.75 -0.6,0.1 -0.62,1.41 0,0 -0.22,-0.33 -0.11,0.36 0,0 -0.31,0.19 0.31,1.49 2.09,0.72 -0.13,1.1 0.45,0.45 -0.12,0.9 -1.52,0.17 -1.03,1.25 1.04,1.54 -0.89,1.47 0.44,0.68 -0.39,0.73 0.43,0.76 -0.12,1.31 0.99,1.02 -0.54,1 -2.19,0.68 -2.63,-0.43 -1.35,1.07 -1.77,0.23 -1.21,1.6 -0.94,0.32 -2.53,3.69 -1.17,0.75 0.86,0.53 -0.11,0.9 0.59,1.2 -1.91,0.8 0.2,1.34 -0.44,1.16 -1.18,-0.17 -1.25,0.77 -0.48,1 0.18,0.98 -0.87,1.49 -6.47,-0.15 -1.98,-1.5 -1.55,0.66 1.28,1.45 -1.77,1.93 0.74,2.68 -1.35,3.31 -2.14,0.75 -1.64,-0.8 -1.1,-1.46 -0.79,0.91 -0.53,1.53 0.27,1.36 1.71,1.24 0.72,1.76 0.61,0.18 -1.53,0.72 -0.52,1.16 1.17,3.91 -0.4,2.32 1.69,3.58 -0.19,2.01 -0.73,1.6 0.88,0.53 7.72,0.79 -0.71,3.25 -1.1,0.15 -0.9,1.23 -0.45,3.56 0.4,0.92 0.95,0.3 0.3,1.57 1.06,0.87 2.54,-0.22 3.12,1.9 -4.27,2.34 -3.19,2.73 -1.8,0.57 -0.68,1.02 -1.84,0.09 -0.89,0.93 -1.53,-0.87 -0.53,0.58 -1.03,-0.14 -0.27,0.54 0,0 -0.7,1.55 0,0 -0.45,0.76 0,0 -0.62,-0.38 -2.5,0.87 -1.76,-1.36 -0.12,2.28 -1.67,0.77 -0.53,-0.51 -1.15,0.49 -1.27,-1 -1.13,0.43 -0.32,-1.23 -1.37,0.44 -2.06,-0.31 -0.35,-0.53 0,0 0.03,-1.34 0,0 -1.78,-1.65 -1.24,1.65 0.29,0.88 -0.38,1.25 -2.03,0.28 -1.97,-0.94 0,0 -2.56,-1.06 -2.3,-2.12 -1.77,-0.49 -2.74,-1.63 1.55,-0.91 -2.67,-0.88 1.4,-0.45 0.78,-1.63 1.07,-0.4 -0.28,-1.66 -2.36,-0.4 -0.87,1.18 -1.64,-1.99 -1.9,0.05 -0.36,0.77 -3.38,-2.3 0.11,-0.94 -1.85,1.23 -1.67,-0.78 -1.78,1.1 -0.87,-0.35 0.08,1.65 -0.62,1.17 -6.3,-5.91 0.09,-0.58 -1.95,-0.97 0.07,-0.87 -2.06,-0.72 -3.09,0.38 0,0 -0.74,0.59 0,0 -2.05,-1.02 -1.06,-1.58 -1.89,0.37 -1.58,0.77 0.74,1.67 -1,2.2 0,0 -0.69,0.38 -1.65,-1.67 -0.1,-0.67 -1.08,-0.39 0.11,-0.58 -1.12,-1.15 -3.59,-1.62 -0.41,-1.78 -1.47,0.55 -0.46,-1.55 -2.22,1.59 -0.21,0.67 0,0 -2.03,-2.67 -1.81,-1.13 -0.14,-0.64 2.22,-2.98 -0.71,-1.51 -0.03,-5.2 -1.12,-1.9 0.48,-2.01 -0.38,-0.56 0.6,-0.08 0.16,-0.76 0.89,0.02 0.23,0.93 1,0.97 3.3,0.49 0.15,-1.33 0.63,0.65 0.48,-0.11 0.58,-1.48 1.81,-0.46 0.16,-1.45 0.55,-0.07 0,0 2.49,-1.53 0,0 2.26,-2.45 2.59,-1.39 -0.33,-3.31 -1.27,-3.06 -0.02,-1.84 -0.63,-0.93 0.25,-1.12 -0.86,-2.21 0,0 -0.73,-1.68 -0.16,-2.66 -0.59,-1.62 0.28,-1.46 -1.33,-2.7 -0.55,-0.12 0.07,-2.65 -0.72,-1.48 1.61,0.82 0.54,-0.15 -0.54,-3.5 z" 
                fill="rgb(151, 144, 238)" 
                stroke="white" 
                stroke-width=".7px"
                title="Nakhon Ratchasima" 
                id="TH-30" 
            />
        </svg>