<svg xmlns="http://www.w3.org/2000/svg" viewBox="271.6484399999999 955.6125500000002 48.62000000000006 60.500050000000215" width="48.62000000000006" height="60.500050000000215">
            <path 
                d="m 286.57844,960.33255 0.26,-1.06 -1.52,-1.18 0.21,-1.29 2.4,-1.02 0.84,-0.02 0.14,0.6 0.25,-0.75 0.28,0.98 1.36,-0.25 -0.23,0.69 0.54,0.58 -0.43,0.32 1.1,1.85 2.37,0.41 1.34,-0.62 0,0 6.3,8.5 2.47,1.51 1.31,0.25 5.25,5.77 9.01,6.22 0.35,0.68 -0.74,0.74 -0.2,1.85 1.03,3.45 -2.11,2.95 -0.53,1.53 -4.24,2.7 -1.31,1.41 0.06,0.91 -1.8,1.28 -0.4,0.97005 0.31,1.1 -1,0.48 -0.11,1.66 -0.44,0.46 0.07,0.47 0.72,0.24 0.71,2.35 -1.77,1.93 -1.43,-0.16 -0.82,0.56 -0.24,1.73 -2.22,1.43 -1.13,0.18 0.08,0.67 -0.88,1.46 0.29,1.19 -0.56,0.07 -1.61,-1.21 -0.96,-1.94 -1.24,-1 -1.46,0.72 -1.27,0.04 -0.24,1.53 -0.78,0.33 -0.61,-1.44 -1.97,-2.29 -0.11,-3.83 -1.79,-0.5 -1.39,-2.12 -2.24,-1.55 -2.82,1.02 -2.68,1.77 0,0 -0.13,-0.54 -0.57,-0.06 0.02,-2.41 0.46,-0.74 -0.73,-0.53 -0.14,-1.44005 -0.76,-0.73 0.64,-1.62 -0.56,-1.79 0.07,-1.8 -0.57,-0.96 -1.35,-0.12 -0.61,-0.98 0.23,-0.95 -0.4,-1.24 -0.58,-0.87 -0.74,-0.06 -0.3,-0.98 -1.54,-0.57 -1.14,-2.82 1.66,-1.09 0.5,-1.03 -0.53,-0.39 0.49,-1.71 -0.62,-2.02 0.42,-1.17 -0.81,-1.27 0.67,-1.48 1.31,-0.91 0.15,-1.23 -0.51,-0.42 0.62,-0.53 0.21,-1.16 2.2,-0.68 0.84,0.43 -0.37,-2.71 1.49,0.15 2.95,1.29 1.35,-0.07 0.03,-0.68 -1.15,-0.83 2.85,-2.15 2.25,-2.89 z" 
                fill="rgb(151, 144, 238)" 
                stroke="white" 
                stroke-width=".7px"
                title="Narathiwat" 
                id="TH-96" 
            />
        </svg>