<svg xmlns="http://www.w3.org/2000/svg" viewBox="317.9184399999999 154.07254999999992 91.54000000000002 49.79999999999998" width="91.54000000000002" height="49.79999999999998">
            <path 
                d="m 408.52844,176.50255 -0.54,-0.32 -0.29,0.37 0.34,0.11 -0.23,1.5 1.3,0.56 -0.2,0.48 0.55,0.71 -1.3,0.21 0.41,1.82 0,0 -2.12,1.61 -1.43,0.35 -0.94,-0.54 -2.15,1.17 0.68,1.88 -0.61,0.93 -2.2,-1.5 -0.95,-1.89 -1.17,-0.99 -2.5,1.58 -0.97,-0.02 -0.81,0.98 -0.55,1.89 0,0 0.06,0.76 0,0 -0.21,0.63 -1.09,0.27 -0.37,-0.72 -0.77,-0.19 0.24,-0.63 -0.78,-0.34 0.28,-0.88 -0.77,-0.16 -0.16,-1.11 -0.5,0.01 0.1,0.46 -0.5,-0.14 -0.08,-0.95 -0.38,0.23 -1.06,-1.18 -1.31,0.48 -1.4,-1.14 0,0 0.19,0.68 0,0 -0.65,0.58 -1.2,-0.04 -0.17,0.89 -1.1,0.8 0,0 -0.37,0.62 0,0 -1.25,1.5 -2.78,-4.85 -2.07,0.31 -0.92,-0.74 -0.94,0.74 0.32,1.64 -0.5,0.82 0,0 0.1,0.41 0,0 -1.66,0.72 0.45,0.68 -1.04,0.35 0.23,0.75 -0.88,-0.11 1.1,0.48 -0.27,0.84 1.06,1.23 -0.78,2.27 0.48,1.04 -1.15,0.92 -0.24,1.51 -3.09,0.79 -0.74,1.45 0.07,0.98 -0.97,0.38 0.42,1.57 -1.69,-0.05 -0.63,1.14 -1.16,-0.08 -1.34,-1.09 -1.84,1.75 -1.25,0.2 -0.18,-1.54 -2.44,-0.75 -0.96,0.19 0.45,-1.97 -0.49,-1.51 1.28,-1.03 -5,-3.88 -0.75,-1.37 -4.11,0.6 -0.99,-0.55 -0.21,-0.73 -0.67,0.25 0.15,-1.11 -0.92,-0.73 0.87,-1.85 -1.14,-0.04 -0.99,-1.41 -0.67,-0.22 0.18,-0.9 -0.47,-0.55 0.34,-0.74 -0.91,-1.63 -1.52,-0.61 -0.52,-0.74 0,-0.6 -2.3,-0.77 -0.96,-0.83 -1.45,-2.92 -0.86,0.68 -0.86,-0.27 -1.59,-1.19 -2.28,-0.53 -0.08,-0.94 -1.15,0.66 -0.91,-0.36 -1.24,2.02 -0.99,-1.29 0.21,-1.95 -2.41,0.65 -0.22,-0.5 0.59,-1.18 -0.35,-0.89 -1.17,0.44 0,0 -1.42,-1.43 0,0 -0.86,-0.61 0,0 0.9,-4.13 1.2,-1.15 1.06,-0.2 0.26,-3.58 0,0 1.8,-0.17 0.76,0.7 1.33,0.2 1.41,3.82 3.75,3.07 3.26,3.56 4.09,0.83 4.76,3.74 2.73,1.3 3.32,0.03 1.43,0.55 1.71,-0.4 3.08,0.84 0.82,3.18 -1.81,4.5 0.56,0.87 2.79,0.29 2.74,1.97 1.2,-0.98 -0.06,-0.65 -1.22,-1.33 0.59,-1.64 4.77,-1.73 2,-2.89 2.3,-0.57 2.63,-2.13 6.87,-2.27 2.36,1.01 1.3,1.28 1.43,-0.35 2.87,-3.86 0.14,-1.33 -0.53,-1.64 0.59,-3.44 3.6,-2.4 1.04,-1.35 0.34,-1.54 -0.39,-2.27 0.84,-1.37 1.4,-1.04 7.43,-2.5 0,0 0.06,1.2 -1.64,1.31 -0.28,1.41 0.38,1.01 5.2,2.11 -0.29,2.62 -3.08,2.12 -0.39,1.3 0.39,2.82 1.83,2.12 4.62,2.81 z" 
                fill="rgb(151, 144, 238)" 
                stroke="white" 
                stroke-width=".7px"
                title="Nong Khai" 
                id="TH-43" 
            />
        </svg>