<svg xmlns="http://www.w3.org/2000/svg" viewBox="312.9084400000001 197.84255000000002 47.160000000000025 63.87000000000006" width="47.160000000000025" height="63.87000000000006">
            <path 
                d="m 319.85844,200.84255 1.31,-0.78 1.34,0.93 1.23,-1.76 0.86,-0.42 1.97,-0.18 2.1,0.51 2.18,-0.39 1,0.38 1.11,-0.87 2.61,-0.42 1.02,8.92 2.39,3.56 1.79,5.39 2.93,5.96 0.1,4.09 4.6,-0.46 5.81,1.52 -1.44,2.52 -3.49,1.45 -3.26,0.59 1.89,3.23 1.38,3.99 1.56,2.25 1.92,1.61 6.45,3.49 0,0 0.85,2.3 -3.83,8.22 -0.85,5.24 -4.77,-0.91 -3.06,-1.48 -4.31,0.96 -3.68,-1.97 -0.05,0.46 -1.04,-0.44 -0.71,-0.95 -0.47,0.93 -0.59,-0.98 0.28,-0.44 -1.04,-0.64 0.53,-0.15 -0.08,-0.46 -0.95,0.02 0.52,-0.88 -1.45,-0.58 0.31,-0.45 -0.3,-0.29 -0.76,0.14 0.27,-0.54 -2.75,-0.2 -0.29,1.16 -1.39,0.12 -0.89,1.23 -0.91,-0.3 -0.96,0.34 -0.51,-0.96 -0.68,0.45 -0.84,-0.46 -0.19,-0.66 -0.74,0.34 -1.34,-0.3 -1.39,-1.16 -0.52,0.48 0.19,0.58 -1.19,-0.5 -0.72,0.31 -0.1,-0.44 0,0 -1.6,-1.2 -0.97,-3.14 1.75,-0.96 1.07,0.12 1.09,-0.85 0.51,-1.87 2.67,-0.67 0,0 0.48,-0.34 0,0 0.53,-0.98 0,0 -1.81,-1.07 0,0 -0.37,-0.72 -0.99,-0.43 0,-1.35 -0.93,-1.96 -4.7,-1.46 0.03,-2.52 1.6,0.86 0.22,-1.01 1.61,-1.26 0.23,0.31 0.11,-0.49 -5.4,-0.94 0.67,-0.9 3.1,0.83 1.1,-0.15 0.34,-0.34 -1.03,-1.54 0.63,-1.47 -1.17,0.25 -0.5,-0.73 -0.63,-0.02 -0.53,-1.32 -0.83,0.1 0.01,-0.64 -1.15,-0.77 -0.49,-1.5 0.51,-0.86 1.53,-0.58 -0.49,-1.46 0.37,-0.71 -2.48,-2.8 0.73,-0.64 -0.53,-1.09 0.47,-1.58 2.71,-0.04 1.41,0.67 2.7,-1.11 2.38,-1.81 0.02,-1.17 0.58,-0.08 0.02,-3.34 -1.03,-0.85 -0.98,-2.83 z" 
                fill="rgb(151, 144, 238)" 
                stroke="white" 
                stroke-width=".7px"
                title="Nong Bua Lam Phu" 
                id="TH-39" 
            />
        </svg>