<svg xmlns="http://www.w3.org/2000/svg" viewBox="197.06844000000004 444.32255000000004 20.21999999999997 24.199999999999875" width="20.21999999999997" height="24.199999999999875">
            <path 
                d="m 202.47844,446.04255 -0.84,4.15 2.08,4.32 4.53,0.73 1.64,1.02 0.6,-0.32 2.51,2.39 2.11,-0.56 0.59,-0.75 1.59,0.44 0,0 -1.35,6.88 -2.35,1.71 -0.13,0.52 0.58,0.31 -1.01,0.87 -2.05,0.77 -0.75,-0.59 -8.74,-0.44 -0.72,-1.26 0,0 -2.82,-6.08 -0.88,-0.73 2.27,-2.89 -1.87,-1.69 0.37,-0.96 -0.69,-0.52 0.97,-8.03 0,0 1.44,-1.01 2.31,0.87 z" 
                fill="rgb(151, 144, 238)" 
                stroke="white" 
                stroke-width=".7px"
                title="Nonthaburi" 
                id="TH-12" 
            />
        </svg>