<svg xmlns="http://www.w3.org/2000/svg" viewBox="201.63844000000006 435.03255 41.789999999999935 24.69999999999999" width="41.789999999999935" height="24.69999999999999">
            <path 
                d="m 234.82844,437.15255 4.53,-2.12 0.13,2.09 3.94,-2 0,0 -0.37,2.5 -2.14,1.16 -0.01,17.98 0,0 -0.03,1 0,0 -6.29,0.59 -6.19,1.38 -1.47,-0.08 -1.17,-0.83 -3.31,-0.12 -0.04,-0.41 -0.97,-0.03 -0.02,-0.76 -0.92,-0.42 -0.51,0.71 -2,-0.66 -0.7,0.33 0,0 -1.59,-0.44 -0.59,0.75 -2.11,0.56 -2.51,-2.39 -0.6,0.32 -1.64,-1.02 -4.53,-0.73 -2.08,-4.32 0.84,-4.15 0,0 8.99,0.27 2.61,-1.16 2.16,1.09 3.64,-1.53 1.03,0.37 0.29,-1.01 z" 
                fill="rgb(151, 144, 238)" 
                stroke="white" 
                stroke-width=".7px"
                title="Pathum Thani" 
                id="TH-13" 
            />
        </svg>