<svg xmlns="http://www.w3.org/2000/svg" viewBox="58.28843600000001 771.9625500000001 33.77 99.09000000000003" width="33.77" height="99.09000000000003">
            <path 
                d="m 80.918436,856.63255 2.18,1.64 1.62,-0.35 -0.39,1.25 1.19,1.34 -0.73,1.73 0.97,3.71 -1.17,5.1 -0.17,-1.06 -0.78,-0.8 -0.16,1.68 -0.27,-2.63 -0.81,-2.01 0.47,-1.02 -0.41,-1.07 0.99,0.26 0.54,-1.78 -1.49,-1.49 -1,-0.1 -1.36,-2.32 -0.42,-1.24 0.6,-0.92 0.6,0.08 z m 6.33,-5.76 -0.11,3.03 -0.8,0.76 0.14,1.98 -0.43,0.25 -0.05,1.14 -0.4,0 -0.41,-1.26 -1.29,0.14 -1.62,-1.51 0.87,0.35 0.82,-0.26 0.9,-2.46 1.4,-1.9 0.98,-0.26 z m -24.68,-56.05 3.46,1.55 0.19,0.57 -1.77,2.84 -0.8,1.51 -1.27,3.66 -0.16,-1.56 -1.1,-1.78 1,-2.69 -0.24,-2.11 -0.82,-1.48 1.51,-0.51 z m 1.35,-10.43 0.6,1.02 -0.12,1.32 0.63,-0.55 1.14,1.58 0.71,2.87 -2.01,2.49 -3.52,0.68 -0.4,-0.18 0.21,-6.41 0.84,-0.99 -0.03,-1.65 1.95,-0.18 z m 2.65,0.62 0.66,0.68 -0.43,1.53 -1.4,-1.83 0.06,-1.81 1.11,1.43 z m -1.07,-6.7 0.26,0.41 -1.95,2.88 0.47,0.9 -0.63,0.36 -0.17,0.81 -1.33,0.49 0.02,-2.37 0.84,-0.17 2,-3.77 0.49,0.46 z m 5.34,-6.1 0.77,-0.21 0.84,0.72 2.09,-0.76 1.46,1.46 -0.91,0.91 1.06,-0.33 0.63,1.12 1.7,-0.29 0,0 1.42,0.82 0.24,2.84 -0.39,1.25 -1.49,1.31 -0.42,1.08 -0.16,1.93 0.58,1.26 -1.38,0.42 -0.11,1.63 0.92,2.89 -1.44,1.22 1.02,3.2 1.54,1.39 -0.36,0.84 -0.75,-0.15 -2.92,1.31 -0.53,1.39 0.91,0.87 -0.74,2.51 4.05,1.01 0.57,1.36 1.46,0.16 -0.19,0.92 1.34,1.08 0.15,0.99 2.95,1.15 -0.3,5.76 -1.61,2.03 -1.64,0.55 -0.58,0.93 1.87,1.5 2.61,0.79 0.55,-0.78 1.86,-0.48 0.63,-0.98 0.89,0.29 0.83,-0.38 1.96,1.96 0,0 0.24,2.41 -1.08,1.4 -1.2,4.33 -1.61,2.05 1.07,1.52 -0.03,2.16 0,0 -1.42,0.93 0.94,1.97 -1.36,0.31 -0.97,-0.07 -0.83,-1.83 -0.1,1.02 -0.9,0.55 0.33,0.85 -0.57,0.75 -2.17,0.67 -0.62,0.67 -2.25,1.06 -0.69,-1.11 -0.77,1.62 -3.62,-0.19 -0.66,0.68 0.89,0.21 1.04,1.06 -0.26,1.74 0.77,3.21 -1.6,1.87 -0.61,1.88 0.53,0.82 -0.7,0.93 -0.34,0.13 -0.42,-1.48 -0.63,-0.34 -0.55,1.72 -1.1,0.7 -0.93,-0.85 -0.9,-3.3 -0.99,0 -0.65,0.53 -0.77,-0.75 0.15,-0.88 -0.7,0.35 -1.61,-0.59 -0.72,0.21 0.01,-2.75 -1.78,-8.4 -3.39,-12.39 0.61,-0.8 0.95,1.17 0.74,0.39 1.18,2.61 0.14,-2.54 -2.41,-1.98 -0.05,-0.63 1.19,-0.85 -0.15,-1.66 -0.53,-0.38 0.93,-0.59 0.15,-1.56 -0.82,-4.59 -1.27,-1.01 0.12,-0.54 0.54,0.66 0.82,-0.09 1.57,-1.8 0.02,-1.91 -0.61,-1.3 0.84,-0.95 -0.05,-2.41 0.77,-0.54 0.89,-3.47 2.26,-3.59 0.74,-0.47 1.84,1.27 1.5,2.18 0.19,-0.86 -0.88,-2.13 -0.95,-0.87 1.5,-0.65 -1.39,-0.46 2.63,-2.32 -0.76,0.02 -2.66,2.15 -1.44,-0.95 -0.58,-1.16 0.79,-1.55 1.13,-0.84 1.28,-0.06 1.3,1.01 0.07,-0.54 -0.7,-0.62 0.84,-0.67 -1.29,0.21 -0.24,-0.73 0.47,-0.75 -1.39,0.36 -0.6,-1.43 -0.05,-2.3 -1.77,-3.04 0.92,-1.91 0.37,2.28 0.53,0.56 -0.33,-0.87 0.56,-1.86 2.23,1.9 -0.91,-1.29 0,-0.99 -1.47,-0.96 1.65,-2.15 -0.53,-0.66 1.15,-0.61 0.97,-3.75 z" 
                fill="rgb(151, 144, 238)" 
                stroke="white" 
                stroke-width=".7px"
                title="Phangnga" 
                id="TH-82" 
            />
        </svg>