<svg xmlns="http://www.w3.org/2000/svg" viewBox="161.19843999999986 870.69255 46.71000000000015 54.26999999999998" width="46.71000000000015" height="54.26999999999998">
            <path 
                d="m 205.07844,903.77255 0.46,0.04 0,0 0.55,3.87 -0.28,0.8 2.1,1.74 -0.15,1.45 -1.07,0.49 -0.46,0.27 -0.92,-0.48 -0.29,-3.25 -0.31,0.34 0,0 -0.24,-0.12 0,0 -1.55,-1.79 0.8,-1.53 -0.13,-0.74 1.35,-1.11 0,0 0.14,0.02 z m -0.88,-6.72 0.75,0.05 -0.56,1.17 -1.29,0.13 -0.28,0.5 0.39,1.24 0.63,-0.17 0.26,1.52 -0.48,2.12 -1.03,0.47 0.16,3.02 -1.68,-0.17 -0.22,-0.87 0.59,-3.37 0.92,0.13 0.24,-0.48 -0.41,-0.6 -0.4,0.39 0,0 0,0 0,0 0.37,-2.44 -0.3,-1.38 2,-0.43 0,0 0.34,-0.83 z m -42.77,-23.82 3.14,-0.08 1.57,-2.26 1.82,0.4 0.77,-0.5 1.25,0.45 1.62,-0.55 2.26,0.76 2.55,-0.45 1.95,1.94 4.05,1.6 1.64,-0.41 1.67,-1.32 3.18,-0.51 0,0 -1.14,4.72 1.25,-0.63 1.88,0.3 0.65,0.6 -0.03,0.72 1.28,0.51 0,0 -0.7,1.26 -3.01,2.08 0.22,5.6 1.75,8.49 1.91,1.93 0.74,0.21 0.76,-0.7 -0.15,2.05 1.88,3.8 0.27,1.49 1.04,0.47 1.83,1.99 0.04,1 0.81,-0.03 0.93,-1.02 0.92,0.6 1.08,0.04 1.43,1.88 0,0 0.06,0.19 0,0 -0.3,0.62 -1.08,0.42 0.26,1.46 -1.6,0.39 0.26,1.48 -1.66,1.27 -0.76,1.42 -1.31,-0.08 -0.63,0.83 -0.66,-0.31 -1.61,0.68 -1.23,-0.04 -3.3,1.24 -1.25,1.78 -3.02,-1.12 -1.07,0.98 -2.18,0.91 0.2,1.88 -0.64,0.14 0,0 -1.18,-0.11 -0.73,1.27 -0.27,-0.9 -1.75,-0.67 0,0 -2.55,-3.78 -0.06,-1.87 -0.76,-0.48 -1.01,-2.48 0.89,-1.68 -0.51,-3.46 -2.27,-0.76 -0.03,-1.62 -0.64,-0.86 0.43,-1.55 -2.68,-3.54 -0.3,-1.34 -0.56,-0.26 0.14,-1.42 -2.06,-1.83 -0.08,-0.63 1.12,-1.71 -2.48,-2.54 0.72,-2.53 -1.65,-1.51 1.89,-0.35 0.29,-2.03 -1.98,-1.42 -0.01,-2.91 -0.56,-0.46 0.26,-0.62 -1.11,-0.64 0.26,-1.32 -0.83,-1.02 -0.58,-2.13 -1.18,-0.92 0.23,-0.49 z" 
                fill="rgb(151, 144, 238)" 
                stroke="white" 
                stroke-width=".7px"
                title="Phatthalung" 
                id="TH-93" 
            />
        </svg>