<svg xmlns="http://www.w3.org/2000/svg" viewBox="157.93844000000004 52.30255 64.99999999999997 66.04" width="64.99999999999997" height="66.04">
            <path 
                d="m 206.73844,52.30255 1.28,0.5 1.05,1.29 -0.89,2.67 0.9,0.6 0.1,2.1 2.88,2.61 0.13,2.19 -1.14,2.63 0.58,1.15 0.04,1.78 1.81,0.13 1.49,-0.58 2.67,0.89 0.85,-0.21 0.5,0.81 0,0 -0.41,0.15 0,0 -1.13,1.27 -0.06,1.35 -3.16,2.62 1.22,2.03 -0.12,1.14 1.78,1.13 0.22,2.08 2.74,0.21 0.47,-0.36 -0.75,4.26 1.1,1.77 0.09,3.1 0.53,0.65 0.2,1.7 0.62,0.41 -0.02,1.16 0.63,0.61 -1.29,1.33 -1.79,-0.33 -1.11,0.61 -0.77,-0.63 -0.63,2.18 3.21,2.05 0.51,0.85 -0.98,0.92 -1.5,-0.73 -1.04,0.09 -0.64,-1.01 -0.64,0.25 -0.66,-0.44 0.48,3.52 -1.61,-0.25 -1.13,0.74 -0.14,-1.21 0.8,-1.24 -1.59,-0.98 0.15,-1.02 -2.34,-0.07 -2.08,4.83 -0.61,0.25 0.64,1.91 -0.42,0.54 -1.08,0.14 0.1,0.69 -1.1,0.62 -0.2,2.32 -1.44,1.56 -0.22,1.69 -1.6,1.57 0.36,0.86 -0.34,0.59 0,0 -0.14,-0.57 -1.8,0.18 -0.57,-0.53 -3.25,0.03 -1.89,-0.52 -2.05,0.79 -0.54,-0.29 -0.19,-0.88 -0.55,-0.08 -0.36,0.51 -0.85,-0.68 -1.7,1.2 -1.1,-0.15 -0.24,0.75 0,0 -1.75,-1.32 -1.45,0.72 -0.33,-1.22 0.57,-2.18 -2.46,-2.61 -1.16,0.42 -2.83,-1.64 -1.94,-1.6 -1.29,-2.62 -1.06,-0.64 -0.3,0.36 -1.14,-0.36 -0.43,-0.83 -3.03,-0.12 -0.59,-0.66 0.22,-2.1 -0.79,-0.33 -0.18,-1.18 -1.61,0.59 -1.42,-0.77 -1.02,-4.9 -0.95,-0.63 -0.35,-1.15 -0.86,-0.79 0.2,-0.8 -1.73,-4.52 0.12,-2.27 -0.5,-2.12 0.69,-2.41 -1.06,-1.38 0.08,-1.65 0,0 -0.72,-2.79 1.13,0.16 0.45,-0.38 0.53,0.4 4.86,-2.19 5.23,0.33 0.91,-0.69 1.49,2.1 1.01,-0.48 0.48,1.85 1.86,-1.56 2.92,-0.04 0.39,-0.45 0.82,0.67 -0.02,-0.92 2.45,-0.24 1.46,-1.51 -0.05,-4.06 -0.49,-0.38 0.54,-1.07 1.06,-0.77 3.64,-0.23 1.47,-0.58 0.59,-0.93 -0.16,-0.75 1.1,-0.04 2.14,-1.55 1.5,0.09 1.65,-2.86 0.49,0.48 0.84,-0.74 0.2,0.59 2.24,-0.35 1.15,-2.49 1.68,-0.38 z" 
                fill="rgb(151, 144, 238)" 
                stroke="white" 
                stroke-width=".7px"
                title="Phayao" 
                id="TH-56" 
            />
        </svg>