<svg xmlns="http://www.w3.org/2000/svg" viewBox="222.1884400000003 236.15255 77.63999999999982 126.46000000000012" width="77.63999999999982" height="126.46000000000012">
            <path 
                d="m 251.34844,252.14255 1.68,0.76 0.86,-0.58 0.59,-2.42 -0.37,-4.49 0.36,-1.23 1.48,-1.03 2.19,-0.58 0.07,-0.89 2.02,-2.65 0.04,-2.18 1.51,-0.7 0.73,1.38 1.74,1.6 1.22,-0.35 0.21,0.78 0.87,-0.63 1.11,-0.05 1.22,1.52 0.86,-1.07 1,0.23 1.13,-0.42 0.9,0.68 1.15,-0.96 1.72,1.43 0.61,0.01 1.74,-1.48 0.88,0.58 0.35,1.03 0.32,-0.34 1.49,1.31 1.51,0.28 0.21,2.19 0.62,0.46 0.44,1.43 1.03,0.61 0.75,0.1 0.67,-0.73 1.48,-0.33 1.39,-3.11 1.35,0.33 -0.29,0.74 2.06,3.73 -0.26,1.68 0.43,1.01 0.75,0.16 -0.78,5.27 0.56,0.2 -0.11,0.79 0.52,0.79 1.96,2.01 -0.18,0.53 -1.19,-0.63 -0.99,0.75 2.72,3.13 4,-0.72 0,0 0.14,0.88 -0.63,0.76 0.64,1.17 -1.07,1.46 0,1.04 -1.43,0.69 -0.19,0.59 0,0 -1.46,1.18 -2.94,-2.55 -1.8,-0.04 -1.5,0.55 -1.08,-0.44 -0.89,-1.46 -0.76,-0.08 -0.52,-1.14 -2.13,-0.36 0.01,1.19 1.57,2.87 -0.38,1.62 -0.69,-0.02 -0.87,-1.3 -0.69,0.16 -0.77,-0.94 -1.08,-0.02 -0.12,1.62 1.15,2.54 -1.75,0.71 -0.27,2.72 1.54,1.57 -1.57,0.67 -0.81,0.97 -0.75,-0.27 -0.62,1.91 0.65,1.6 -1.51,1.61 -0.21,1.29 -1.37,0.7 -0.45,1.27 -1.24,0.79 0.66,0.61 -0.07,0.76 -1.77,1.56 -0.18,2.88 -0.76,1.68 0.26,1.44 -1.55,1.13 1.61,0.85 -0.26,1.44 0.67,2.22 -1.24,0.29 -1.48,2.24 -0.19,3.29 -1.06,4.49 1.2,1.95 0.05,1.93 1.09,1.57 1.11,-0.32 -0.89,3.01 0.93,0.33 -1.49,2.12 -1.42,0.59 -0.36,1.94 0.34,0.45 -0.47,0.96 0.49,0.29 -0.37,1.51 0.31,0.25 -0.94,0.93 1.1,0.84 0.16,1.56 3.26,1.28 0.57,-0.59 0.95,0.63 -2.42,10.9 0,0 0,0 0,0 -4.04,0.41 -0.51,2.08 -0.95,0.65 0.02,0.52 1.01,0.53 0.17,3.22 -0.58,1.18 0.64,1.46 -0.34,0.48 0.18,2.76 -1.97,1.82 -3.51,1.33 -1.3,1.58 -1.02,-0.68 -3.68,0.25 -1.99,-0.75 -0.93,-1.04 -1.07,0.35 -0.42,0.65 -3.14,-0.1 -0.95,-1.79 -2.17,-1.54 0.11,-1.82 -1.24,-0.53 -0.8,-1.78 -3.56,-2.01 -2.87,0.25 -0.97,-0.67 -0.9,0.07 -1.09,-0.62 -1.23,-2.44 -2.07,0.1 0,0 0.62,-0.74 1.52,-0.3 1.43,-2.18 -0.24,-0.28 0.57,-0.86 -0.59,-0.71 1.12,-1.22 -0.45,-1.12 0.51,-1.11 0.06,-2.12 1.12,-0.65 0.33,-0.73 -0.2,-0.81 -1.81,-0.4 0.01,-2.81 -1.48,-5.02 0.82,-1.39 0.11,-2.44 -2.5,-1.23 -0.67,-0.91 0.15,-1.91 1.22,-3.11 -0.04,-0.8 -0.9,-0.35 0,0 -0.56,-0.92 -0.65,0.12 -1.74,-1.08 -4.72,-1.45 -1.35,0.15 0.49,-0.44 0.76,-3.75 -0.09,-1.48 -0.64,-0.84 4.29,-7.25 0.9,-0.78 -0.54,-0.84 -1.29,1.14 -0.91,-0.03 -1.09,-2.31 -0.92,-0.77 -0.12,-2.22 0,0 0.81,-0.49 1.13,-2.09 1.68,-0.75 0.32,-3.16 3.7,-0.81 0.63,0.38 1.09,-1.63 1.23,-0.03 -0.8,-1.63 1.52,-0.71 -0.15,-0.83 1.26,-0.71 0.24,-1.21 0.82,-0.08 -0.09,-1.22 0.7,-0.42 -0.7,-3.15 1.19,-3.61 1.73,-1.77 2.19,0.24 0.59,-1.05 0.69,0.01 -0.8,-0.34 0.18,-0.73 -0.65,-0.58 0.49,-1.04 -1.12,-0.9 0.55,-1.06 -0.18,-0.72 -1.26,-0.24 -0.31,-0.78 0.64,-0.7 -0.17,-1.22 1.09,0.52 2.47,-0.23 -0.08,-2.04 0.41,-0.41 1.26,0.01 -0.41,-0.79 0.51,-0.54 1.72,-0.45 1.05,-0.83 0.62,-1.8 0.81,-0.71 z" 
                fill="rgb(151, 144, 238)" 
                stroke="white" 
                stroke-width=".7px"
                title="Phetchabun" 
                id="TH-67" 
            />
        </svg>