<svg xmlns="http://www.w3.org/2000/svg" viewBox="169.61844000000002 193.25255000000007 84.44999999999996 100.47000000000017" width="84.44999999999996" height="100.47000000000017">
            <path 
                d="m 246.41844,193.84255 0.68,0.67 0.23,1.82 -1.16,1.77 -0.03,3.9 -2.19,3.18 0,0 -1.76,0.41 -1.18,-0.56 -0.63,-1.1 0,0 -1.7,0.51 -0.81,1.11 -0.53,1.67 0.81,1.1 -1.96,1.91 -0.64,2.43 1.52,1.16 1.29,0.08 1.22,-1.02 1.45,0.95 -0.07,1.17 0.63,1.07 -0.74,2.96 0.16,2.46 2.64,0.53 2.5,-0.45 0.93,0.46 0.42,1.39 1.02,0.33 1.54,1.86 2.24,0.21 0.67,1.81 1.1,1.3 -0.09,1.33 -2.07,2.67 0.1,2.73 -0.61,1.62 -0.47,0.11 0.21,0.71 -0.63,0.67 0.26,0.6 -0.64,0.51 0.48,1.11 0.03,2.42 -1.21,2.71 0.7,2.18 -1.6,0.96 0.46,0.94 2.46,0.44 -0.1,1.49 0,0 -1.72,0.11 -0.81,0.72 -0.62,1.8 -1.05,0.83 -1.72,0.45 -0.51,0.54 0.41,0.78 -1.26,-0.01 -0.41,0.42 0.08,2.04 -2.47,0.23 -1.08,-0.52 0.16,1.22 -0.63,0.7 0.31,0.77 1.25,0.25 0.19,0.72 -0.56,1.05 1.13,0.91 -0.5,1.04 0.65,0.58 -0.18,0.73 0.8,0.34 -0.69,-0.01 -0.59,1.05 -2.19,-0.24 -1.73,1.77 -1.19,3.61 0.7,3.16 -0.7,0.41 0.08,1.22 -0.81,0.08 -0.24,1.21 -1.27,0.7 0.15,0.83 -1.52,0.72 0.8,1.63 -1.23,0.03 -1.09,1.62 -0.63,-0.37 -3.7,0.8 -0.31,3.16 -1.68,0.75 -1.13,2.09 -0.81,0.48 0,0 -0.73,-0.02 -1.84,1.21 0.88,-3.77 -1.49,-1.42 -0.75,-5.32 0.32,-0.47 -0.84,-0.41 -0.07,-3.32 0.93,-0.74 0.19,-2 -0.05,-1.64 -0.64,-0.81 -4.11,1.17 -0.6,0.64 -0.57,-0.4 -0.31,0.83 -1.48,0.79 -0.03,0.95 -0.96,1.18 -3,0.83 -1.32,-1.26 -0.67,0.52 -1.32,-1.22 0.16,-0.67 -1.12,0.8 -2.67,0.74 -3.78,-0.95 -2.03,0.62 -0.16,-6.54 -1.09,-1.73 -1.74,1 0.87,0.6 -0.15,0.46 -0.4,-0.13 0.22,0.62 -0.54,0.53 -0.42,-0.2 -1.91,0.88 -1.74,-1.01 -0.9,-0.02 -0.11,0.5 -1.16,-0.29 -0.83,0.53 0.23,0.7 -0.49,0.59 -2.2,0.47 -0.97,-0.76 -1.44,0.6 0,0 0.18,-0.47 -0.63,-0.28 -0.31,0.45 -2.84,0.46 -0.73,-1.22 -2.52,-1.11 -0.4,-4.36 -0.65,-1.89 0.22,-1.92 -2.67,-0.36 -0.23,-0.63 0,0 1.26,-2.18 1.15,0.37 2.09,-0.22 -0.83,-2.68 2.07,-1.58 0.69,-2.27 2.58,-0.64 0.77,0.52 -0.22,0.48 1.26,0.01 0.31,-0.6 -0.4,-0.58 -0.53,0.21 0.03,-1.61 2.4,-0.32 1.51,0.61 0.68,-0.59 0.69,0.22 0.83,-0.72 0.16,-1.07 0.63,-0.04 -0.34,-3.54 -0.5,-0.34 0.68,-0.15 -0.54,-0.15 -0.39,-1.2 -1.16,0 0.18,-0.55 -0.72,-0.6 -1.46,-0.02 -1.27,-1.28 -0.84,-0.2 -0.64,-1.61 -0.63,-0.19 -0.24,-1.48 -0.64,-0.24 -1.27,0.86 -1.07,-0.67 0.02,-2.39 0.9,-0.83 -0.68,-2.81 1.22,0.12 0.57,-0.61 0,0 0.74,-0.1 0.66,-0.81 0.38,0.78 1.65,0.77 0.45,-1.11 2.39,-0.06 2.26,-1.29 3.5,-0.88 1.18,1.5 0.86,-0.18 4.36,-3.59 -1.04,-5.09 0.1,-1.95 2.7,-1.93 1.69,-0.51 1.38,0.73 0.33,-1.24 2.57,-0.14 1.57,-1.09 2.07,-0.58 0.37,-0.64 3.85,0.24 1.14,-0.73 0.89,1.72 1.1,-0.92 4.55,-0.42 1.08,-2.98 0.94,-0.58 1.18,-0.01 -0.18,-1.4 1.84,-0.51 2.21,-2.02 2.41,-0.81 0.43,-1.06 1.98,-1.91 0.12,-1.18 1.76,-2.67 2.83,-1.17 0.56,-1.75 1.49,-2.22 2.02,-0.27 0.3,0.95 1.05,0.39 2.03,-0.3 1.47,-1.07 0.8,-1.96 0,0 0.47,0.59 z" 
                fill="rgb(151, 144, 238)" 
                stroke="white" 
                stroke-width=".7px"
                title="Phitsanulok" 
                id="TH-65" 
            />
        </svg>