<svg xmlns="http://www.w3.org/2000/svg" viewBox="195.58844000000002 407.38255 39.24000000000001 38.929999999999836" width="39.24000000000001" height="38.929999999999836">
            <path 
                d="m 213.63844,407.38255 0.31,0.88 2.33,-0.73 0.3,0.77 1.96,-0.29 1.36,0.71 0,0 -1.19,1.58 -0.65,2.41 1.89,1.35 0.06,1.64 4.34,0.03 0.39,-1.93 1.11,-0.17 0.67,0.71 0.96,-0.46 0.08,0.61 0.92,0.01 0.02,-0.71 0.79,0.81 2.75,0.15 -0.49,1.17 0.26,1.33 -2.1,0.97 0.83,1.59 0.74,0.09 -0.45,0.65 0.52,0.06 -0.42,0.37 0.25,0.91 -0.57,0.9 0.45,2.05 -0.59,0.57 0.69,0.47 0.66,-0.22 0.13,0.82 1.04,0.54 -0.78,0.77 0.48,1.13 -1.33,2.4 1,0.38 2.41,-0.33 0.06,5.78 0,0 -13.63,6.92 -0.29,1.01 -1.03,-0.37 -3.64,1.53 -2.16,-1.09 -2.61,1.16 -8.99,-0.27 0,0 -0.61,-0.85 -2.31,-0.87 -1.44,1.01 0,0 0.28,-3.08 -2.52,-0.29 -0.29,-2.46 0,0 0.04,-5.18 1.66,-2.82 -0.02,-3.97 0.95,-1.39 -0.56,-1.81 -1.65,-0.51 -0.29,-1.66 0.59,-1.49 0,0 0.33,-0.59 1.46,0.21 0.46,-0.69 2.31,0.6 5.97,-1.47 0.61,2.1 -0.01,2.45 1.28,-0.19 0.35,0.68 1.22,-0.11 2.67,-1.48 0.03,-2.91 -0.6,-0.72 0.41,-0.87 -0.43,-1.77 -0.86,-1.01 0.92,-1.04 -0.03,-1.96 0.78,-1.46 -0.4,-1.67 z" 
                fill="rgb(151, 144, 238)" 
                stroke="white" 
                stroke-width=".7px"
                title="Phra Nakhon Si Ayutthaya" 
                id="TH-14" 
            />
        </svg>