<svg xmlns="http://www.w3.org/2000/svg" viewBox="136.60843999999997 116.30255 79.82 79.60000000000008" width="79.82" height="79.60000000000008">
            <path 
                d="m 187.00844,118.10255 0.24,-0.75 1.1,0.15 1.7,-1.2 0.85,0.68 0.36,-0.51 0.55,0.08 0.19,0.88 0.54,0.29 2.05,-0.79 1.89,0.52 3.25,-0.03 0.57,0.53 1.8,-0.18 0.14,0.57 0,0 -0.2,1.28 1.33,0.21 0.4,0.55 -0.31,1.79 2.26,0.75 -0.22,0.97 -1.7,1.38 -0.76,1.9 0.67,2.56 0.98,0.53 1.04,-0.13 0.32,0.8 -1.02,0.36 -0.74,3.96 1.15,0.56 0.56,2.21 -0.61,1.02 0.83,1.82 1.09,0.32 0.5,-0.96 0.78,-0.32 0.64,0.71 0.24,-0.41 0.88,0.34 1.02,-0.29 0.45,0.93 1.63,0.64 2.33,-1.17 0.64,2.8 0.01,2.4 -0.94,1.8 -1.34,-0.05 -0.77,2.08 -0.54,0.64 -1.09,0.19 0.8,0.82 -0.87,1.43 0.2,1.86 0.74,0.86 -1.23,1.09 -1.47,3.51 0.37,1.44 -0.9,2.49 -0.51,0.42 -1.49,-0.16 -0.45,0.95 -0.87,0.47 -0.35,1.24 0.54,1.28 -0.28,0.92 0.95,0.75 -0.44,0.75 0.84,2.07 -0.1,0.96 0,0 -1.48,0.03 -2.84,2.69 0.63,4.01 -1.58,2.51 -0.67,-0.07 -0.87,-1.24 -0.42,-1.64 -1.33,-0.31 -0.5,-1.45 -1.06,0.32 -1.18,-0.62 -1.41,0.9 -0.75,2 -3.66,2.2 -1.1,1.63 -1.02,0.66 -0.69,-0.11 -4.11,1.75 -0.82,-0.98 -3.26,1.3 -0.68,-0.37 0.41,1.56 -0.88,0.86 -1.13,0.1 -0.39,1.31 -1.39,-0.21 -1.75,-1.47 -0.95,-0.22 0,0 -4.05,0.68 -0.37,-0.45 -1.65,0.03 -0.75,0.76 -0.88,0.07 -1.25,2.16 -0.89,0.54 0.37,0.22 -0.27,0.74 -1.07,1.16 -0.68,0.09 -1.13,-1.22 -0.18,-1.26 -1.08,-0.13 -1.43,-2.95 -1.35,0.33 -1.39,-1.34 -2.05,-0.46 -3.74,0.78 -1.61,0.92 -0.29,1.06 -0.93,0.36 -1.97,2.73 0,0 -0.8,0.41 -0.73,1.63 -2.2,0.24 -1.19,-2.15 -1.27,-0.54 0.34,-0.79 -1.25,-1.29 1.26,-1.11 0.57,-1.85 1.25,-0.67 0.61,-1.76 3.64,-3.1 0.52,-1.84 2.68,-2.58 2.43,-1.23 0.36,-1.16 1.98,-1.2 -0.55,-1.91 2.24,-0.95 0.92,-0.97 1.21,0.42 0.49,1.15 0.79,-0.13 1.52,-0.99 -0.14,-0.6 2.05,-0.41 1.27,-2.69 1.47,-0.95 -0.48,-1.34 3.05,-4.16 0.15,-1.05 1.36,-1.62 0.78,0.12 0.83,-1.46 0.36,0.07 0.5,-1.97 1.12,0.38 2.21,-0.17 1.95,-3.36 0.21,-1.58 0.76,-0.34 0.27,-1.4 0.95,-0.66 -0.18,-0.61 1.44,0.1 1.23,-1.27 0.56,-1.95 -0.67,-0.51 1.16,-0.2 0.19,-1.53 1.67,-1.92 0.47,-1.39 0.05,-0.7 -0.51,-0.35 0.44,-1.84 1.37,-0.25 1,-0.86 1.2,0.79 0.11,-1.99 0.68,-0.84 -1.38,-1.95 0.79,-2.98 -0.47,-0.98 0.24,-1.24 -0.76,-1.87 0.3,-1.56 1.65,-2.33 z" 
                fill="rgb(151, 144, 238)" 
                stroke="white" 
                stroke-width=".7px"
                title="Phrae" 
                id="TH-54" 
            />
        </svg>