<svg xmlns="http://www.w3.org/2000/svg" viewBox="61.80843600000003 849.9725499999995 12.57999999999997 29.90000000000009" width="12.57999999999997" height="29.90000000000009">
            <path 
                d="m 64.148436,849.97255 2.99,1.87 1.08,4.07 1.34,-0.48 0.13,1.33 0.75,0.92 1.31,0.39 1.86,-1.27 0.42,0.41 -0.32,1.19 0.57,0.33 -0.9,0.93 0.08,1.16 -0.67,-0.22 -0.72,1.13 -0.01,1.57 1.07,1.02 -0.33,0.3 -0.96,-0.47 -0.9,0.73 0.28,2.29 1.03,1.26 0.38,1.94 0.65,0.22 0.18,-1.08 0.68,-0.25 -0.21,1.43 0.46,0.67 -0.95,0.43 0.44,0.81 -0.81,-0.63 -0.57,0.35 -0.48,-0.56 -0.75,0.47 0.25,0.54 -0.6,0.85 0.3,0.72 0.86,0.18 -0.54,0.39 0.67,2.01 -1.13,-0.86 -0.45,0.62 -0.74,-2.2 -0.82,-0.08 -1.36,1.06 -0.82,2.31 0.4,0.6 -1.36,0.67 -0.52,0.83 -0.62,-0.07 0.25,-1.15 -1.16,0.01 -0.27,-0.86 0.95,-1.16 -0.05,-0.93 -0.6,-0.36 0.36,-0.58 -0.27,-1.58 -1.98,-2 0.23,-0.45 1.65,0.44 0.45,-1.51 -1.51,-1.11 -0.73,0.13 -0.3,-0.87 0.31,-0.9 1.03,-0.06 0.36,-0.54 -0.85,-2.08 0.97,0.25 0.46,-0.9 -0.27,-2.12 -1.08,-0.58 0.39,-1.37 -0.48,-0.88 0.1,-0.46 1.65,-0.7 0.34,-1.31 -1.2,-5.99 0.61,-0.21 z" 
                fill="rgb(151, 144, 238)" 
                stroke="white" 
                stroke-width=".7px"
                title="Phuket" 
                id="TH-83" 
            />
        </svg>