<svg xmlns="http://www.w3.org/2000/svg" viewBox="121.67843999999992 546.6725499999999 58.76000000000006 116.13" width="58.76000000000006" height="116.13">
            <path 
                d="m 141.42844,551.48255 0.97,0.26 2.33,-0.79 2.23,2.01 1.26,-1.12 2.58,-0.1 1.04,2.11 1.6,0.53 0.73,-3.67 -1,-1.45 0.39,-2.51 0.61,-0.08 0.18,0.64 0.99,0.49 3.16,-1.01 1.68,0.05 1.38,1.11 -0.03,0.72 0.82,-0.33 -0.12,1.46 0.75,1.67 4.48,-3.23 1.38,0.54 1.6,-0.28 0.89,0.36 1.49,-1.03 1.16,0.86 0.21,-0.47 2,-0.18 0,0 0.1,3.65 1.06,3.6 0.81,0.8 -0.71,1.1 0.64,3.32 -0.3,1.19 1.43,4.07 0.15,2.56 -1.19,1.51 -0.76,3.39 0.52,1.29 1.62,1.66 -0.29,0.81 1.05,0.69 0.12,0.73 -3.35,3.72 -0.56,1.64 0.48,0.85 -0.43,0.92 -1.32,0.3 -4.85,5.43 -2.57,4.16 -1.33,3.94 0.18,1.14 1.15,1.26 0.18,0.94 -0.37,0.5 -0.04,-0.76 -0.83,0 -1.18,1.44 0.17,1.29 1.13,0.95 -0.33,0.58 -0.01,-0.51 -0.66,0.08 -0.52,0.85 1.06,2.19 -1.33,-0.51 -3.98,3.72 -6.36,11.86 -0.75,3.28 -0.88,1.08 -2.25,6.59 -0.49,-0.08 -0.86,1.4 -0.64,2.33 0.26,3.87 0.73,1.63 1.09,0.76 -0.2,1.15 -0.9,0.81 -0.25,-1.2 -1.14,-0.47 -1.4,0.61 -1.59,1.79 -0.82,1.9 -0.17,1.92 1.01,4.85 0.13,3.68 -0.45,0.25 0,0 -1.77,-0.26 -4.13,2.52 -1.8,-0.44 -0.47,-0.73 -0.92,0.24 -1.06,-0.44 -0.72,0.68 -2.99,-0.27 -0.72,0.8 -0.52,-0.56 -2.09,-0.42 -0.29,-0.52 -2.38,-0.46 -0.16,-0.73 -2.07,-0.35 -0.25,-0.57 -1.18,-0.33 0.23,-1.19 0,0 0.93,-0.4 0.96,-2.95 3.08,-1.81 0,-2.29 1.84,-2.17 0.76,-1.85 0.49,-0.21 1.07,0.95 1.43,-1.85 0.14,-1.21 -0.92,-0.96 2.06,-2.63 -0.97,-2.05 1.06,-1.34 1.01,0.25 0.09,-1.02 1.41,-1.6 2.49,-1.19 -0.29,-0.75 0.35,-1.67 -0.43,-1.03 -0.14,-1.5 1.04,-0.13 0.71,-1.2 1.49,0.13 0.27,-0.89 0.12,-1.13 1.71,-1.7 -0.74,-1.09 0.33,-1.21 -0.66,-1.12 0.66,-2.16 2.68,-1.46 0.65,0 0.83,1.01 2.46,-0.33 0.27,-1.15 1.16,-1.08 -0.28,-1.28 0.48,-0.94 0.85,-1.09 2.28,-1.34 0.53,-3.15 -0.27,-1.08 1.62,-2.36 -0.44,-0.41 -2.43,-0.24 0.24,-1.09 -1.05,-1.35 -1.45,-0.29 0.06,-0.94 -0.65,-1.13 0.49,-1.01 -0.46,-1.73 0.92,-0.84 -0.1,-2.58 -3.71,-1.55 0.26,-1.45 -0.48,-2 1.19,-1.7 1.31,-3.75 -1.44,-0.37 -0.66,0.44 -1.65,-0.24 -1,0.27 -0.63,1.03 -1.24,-0.25 0.01,-1.72 0.92,-0.59 0.55,-1.61 -0.54,-1.99 -1.03,-1.16 0.73,-1.16 0.14,-1.43 -1.56,-0.89 -1.22,-2.65 -0.61,-1.21 -0.11,-1.45 0.97,-2.93 -1.4,-1.32 -0.06,-1.59 -1.55,-0.71 0.27,-1.46 1.33,-0.73 -0.52,-2.34 0.24,-1.81 0.79,-0.38 0.48,-1.69 z" 
                fill="rgb(151, 144, 238)" 
                stroke="white" 
                stroke-width=".7px"
                title="Prachuap Khiri Khan" 
                id="TH-77" 
            />
        </svg>