<svg xmlns="http://www.w3.org/2000/svg" viewBox="255.94844000000012 422.06255 65.34999999999991 60.75000000000017" width="65.34999999999991" height="60.75000000000017">
            <path 
                d="m 275.84844,427.07255 1,-2.2 -0.74,-1.67 1.58,-0.77 1.89,-0.37 1.06,1.58 2.05,1.02 0,0 0.74,-0.59 0,0 3.09,-0.38 2.06,0.72 -0.07,0.87 1.95,0.97 -0.09,0.58 6.3,5.91 0.62,-1.17 -0.08,-1.65 0.87,0.35 1.78,-1.1 1.67,0.78 1.85,-1.23 -0.11,0.94 3.38,2.3 0.36,-0.77 1.9,-0.05 1.64,1.99 0.87,-1.18 2.36,0.4 0.28,1.66 -1.07,0.4 -0.78,1.63 -1.4,0.45 2.67,0.88 -1.55,0.91 2.74,1.63 1.77,0.49 2.3,2.12 2.56,1.06 0,0 -0.49,3.28 -1.03,1.07 -2.48,0.8 -0.5,0.84 0.08,1.66 -5.98,1.21 -1.15,1 0.16,3.37 0.91,1.73 -0.59,0.23 -1.15,-0.58 -0.9,0.29 -0.52,3.6 1.63,1.98 -0.54,1.47 0.33,1.21 1.21,0.37 0.28,0.59 -0.36,2.48 -1.57,0.82 1.53,1.09 -0.26,1.88 0.7,2.79 -0.47,1.36 0.89,2.1 -0.61,-0.3 0.08,1.16 -0.54,-0.07 -0.02,0.49 -1.77,-0.36 -0.06,1.38 0,0 -1.38,0.29 -0.44,-1.02 -0.88,-0.61 -0.52,-1.63 -1.79,-0.58 0.01,-4.12 -1.03,-0.56 -1.5,0.72 0.05,-0.89 -0.64,-0.9 -0.01,-1.06 0.42,-0.24 -0.62,-0.97 0.12,-1.04 -2.77,-3 -1.12,1.14 -2.11,0.34 -0.3,1.53 -0.91,0.36 -0.92,1.8 -1.85,-0.62 -3.32,0.78 -1.17,-1.76 -0.99,-0.6 -0.5,-1.78 -1.67,1.34 -0.11,-0.73 -2.52,-1.14 -1.28,-1.35 -2.15,-0.27 -0.69,-0.69 -3.09,-0.74 -0.14,-1.69 -0.76,0.59 -1.25,-0.42 -0.49,0.72 -0.46,-0.73 -0.56,0.23 -3.32,-0.83 -1.93,0.87 -0.36,-0.8 -1.55,-0.55 -0.03,0.62 -1.34,-0.12 -1.78,1.41 -1.69,0.4 0.73,-0.75 -1.07,-0.55 -0.36,-0.83 0.27,-0.32 0.61,0.53 0.61,-0.73 -0.11,-0.39 -0.61,0.51 -0.31,-0.3 0.6,-0.29 -0.2,-0.98 0.57,-1.45 -0.56,0.09 0,-1.36 -0.99,-1.29 0,0 0.34,-0.28 -0.19,-1.92 0.41,0.31 1.29,-0.36 0.44,-0.63 0.37,0.27 1.32,-0.48 -0.19,-0.66 0.43,-0.03 0.21,-1.43 0.72,-0.73 3.49,-0.45 1.23,0.76 1.38,-1.53 0.49,0.51 0.55,-0.34 -0.78,-2.9 -1.43,-1.4 0.14,-1.1 1.76,-1.69 0.97,-0.2 1.12,-1.49 1.83,-0.52 0.77,-1.58 -0.39,-0.69 0.22,-2.38 0.91,-0.04 1.35,1.41 5.54,-0.99 0.49,-2.9 -0.55,-0.62 0,-1.14 -0.91,-0.77 -0.53,-1.37 z" 
                fill="rgb(151, 144, 238)" 
                stroke="white" 
                stroke-width=".7px"
                title="Prachin Buri" 
                id="TH-25" 
            />
        </svg>