<svg xmlns="http://www.w3.org/2000/svg" viewBox="69.988436 674.39255 39.460004000000026 100.76999999999998" width="39.460004000000026" height="100.76999999999998">
            <path 
                d="m 72.338436,743.47255 0.88,2.46 -1.78,1.95 -0.78,0.11 0.41,-1.01 -1.08,-0.88 0.61,-1.25 0.41,0.42 0.69,-0.18 0.22,-1.04 -0.53,-0.22 0.95,-0.36 z m 2.79,-6.28 0.91,0 0.11,0.43 -0.54,1.25 0.35,0.94 -0.31,0.72 -0.68,-0.07 -0.12,1.7 -0.38,-0.69 -0.5,0.16 -0.38,-0.45 -0.15,-1.13 0.79,-1 -0.36,-1.46 0.93,-1.14 0.33,0.74 z m 28.580004,-62.8 0.62,0.78 0,0 0.37,1.22 1.32,0.58 -1.63,3.55 0.28,0.94 0.77,-0.58 0.26,0.87 0.87,-0.1 0.52,0.48 -0.13,1.6 0.81,-0.02 0.71,0.81 -0.37,1.74 0.92,-0.31 0.42,0.82 -0.35,1.39 -1.25,0.98 1.44,2.05 -0.71,0.3 -0.45,1.18 -1.82,0.68 -0.47,1.21 -1.1,0.49 -0.69,1.68 0.73,1.19 -0.12,1.64 0.77,0.43 -0.26,0.77 1.86,0.28 0.06,0.61 0.54,0.17 -0.42,1.25 0.8,0.93 -2.9,4.26 -0.1,0.72 0.66,0.84 -2.57,5.34 1.18,1.14 0.07,0.67 -1.31,0.37 -0.11,1.44 -0.62,0.34 0.31,2.22 -1.87,2.06 1.54,0.36 2.33,-0.24 0.67,0.66 0.12,1.83 -2.59,2.32 -1.47,-0.01 -1,1.09 -0.410004,2.05 -0.63,0.76 -2.27,-0.96 -1.69,1.14 -0.22,1.02 -2.06,1.66 -0.14,1.97 -1.82,2.21 -0.69,-0.12 -3.38,3.12 0.03,1.43 -0.42,0.23 1.04,1.8 -0.27,1.2 0.83,1.35 -0.27,0.56 0.89,0.55 -0.83,1.48 0.43,0.62 1.28,-0.1 1.64,1.31 1.68,0.46 1.13,1.84 0,0 -0.04,1.29 1.37,0.57 -0.02,1.07 0.66,0.93 -0.3,0.55 -1.12,0.1 -2.03,2.44 -0.1,0.83 -0.76,0.1 -0.67,1.07 -1.68,0.24 -0.19,1.02 0.98,1.09 -0.64,0.68 -0.77,0.37 -0.85,-0.5 0.46,1.89 -0.41,0.77 1.62,-0.03 -0.42,2.27 -0.66,0.53 -1.46,-0.63 -1.54,0.99 -1.43,-0.91 -0.24,-0.85 -1.47,0.63 -1.23,-0.16 -2.3,2.32 -0.44,1.21 0,0 -1.7,0.29 -0.63,-1.12 -1.06,0.33 0.91,-0.91 -1.46,-1.46 -2.09,0.76 -0.84,-0.72 -0.77,0.21 0,0 0.3,-3.77 0.71,0.3 0.74,-0.61 0.99,-3.63 0.25,-3.01 1.25,-3.95 0.94,-0.17 -0.58,0.66 1.01,2.02 0.41,-0.41 0.4,-0.2 0.66,1.55 0.41,0 -0.33,-2.71 2.42,-1.11 -0.72,-0.79 -1.05,-0.98 -1.85,0.19 -1.07,-0.77 -0.11,-1.7 0.5,0.26 0.54,-0.66 1.67,1.8 0.33,-0.52 -0.56,-1.25 0.88,-1.61 -0.99,0.4 -0.92,-2.27 1.65,0.87 1.28,-0.67 1.83,-3.1 0.01,-1.32 -1.12,0.26 -0.56,-0.57 -1.57,1.04 -0.49,-0.17 0.82,-1.05 -0.37,-1.93 1.98,-0.54 0.08,0.57 2.62,-3.11 -0.22,-0.6 -1.73,2.31 -0.75,0.18 -1.4,-3.61 1.2,-0.32 -0.32,-1.06 0.93,-0.9 0.68,0.09 0.27,0.63 1.07,-2.04 -0.21,-1.06 1.1,-0.62 1.24,-4.49 3.41,-6.03 0.43,-0.91 1.03,-1.49 4.14,-12.59 0.94,-1.06 0.21,-4.65 2.02,-3.36 1.24,-0.39 -0.23,-0.54 0.82,-0.96 -0.59,-0.97 0.82,-0.46 0.48,-1.14 -0.11,-1.34 -0.3,-1.52 -0.67,-0.68 0.43,-1.55 -0.74,-1.59 -0.83,-0.06 -1.06,-1.01 0.9,-2.1 -0.31,-1.88 0.68,-0.25 0.77,-1.63 5.100004,-5.55 z" 
                fill="rgb(151, 144, 238)" 
                stroke="white" 
                stroke-width=".7px"
                title="Ranong" 
                id="TH-85" 
            />
        </svg>