<svg xmlns="http://www.w3.org/2000/svg" viewBox="123.05843999999992 457.48255 60.86000000000011 55.160000000000025" width="60.86000000000011" height="55.160000000000025">
            <path 
                d="m 170.96844,457.48255 3.31,0.84 -0.75,2.13 -1.22,0.23 1.03,2.1 -0.73,2.15 0.62,-0.42 1.55,0.27 0.55,0.9 1.04,-0.38 0.36,1.58 0.48,0.21 0.03,0.64 -0.9,0.32 -0.39,1.68 -0.74,0.79 0.19,1.13 0.68,0.81 3.17,-0.32 1.84,-1.16 -0.11,3.53 0.61,0.73 2.16,-0.28 -0.51,2.99 0.49,0.12 0,0 0.19,0.87 -1.05,0.68 0.02,0.66 -1.51,0.49 0.72,1.08 -0.37,1.14 0.48,2.24 -0.09,0.64 -0.82,0.54 -0.05,1.53 0,0 -0.48,0.14 -0.84,-0.66 -0.98,1.38 -0.56,-0.33 -1.4,0.91 -0.33,-0.7 -1.7,-0.21 -0.76,-1.02 -0.73,0.23 0.43,0.72 -1.18,0.8 -0.77,1.32 -0.08,2.74 -1.61,3.77 -0.68,3.22 0,0 -2.4,-0.82 -0.77,0.03 -0.47,0.7 -3.01,-0.96 -3.56,1.59 -1.39,1.97 -1.31,0.44 -0.09,4.91 -1.62,0.24 -0.28,0.62 -2.26,-0.24 -1.68,0.57 -0.77,-0.52 -1.49,0.13 -1.48,-0.48 -0.99,2.03 -1.97,-1.39 -1.19,1.25 -1.33,-0.13 -0.87,-0.92 -0.89,0.02 -1.06,-1.34 -1.69,-0.09 -0.43,-1.04 -0.58,0.1 -0.54,-0.72 -1.09,1.4 -0.75,0.13 -0.34,1.22 0.39,1.73 -3.55,1.96 -2.8,-3.68 -1.3,-0.35 0,0 -0.42,-0.88 0.26,-0.86 -0.78,-1.52 0.97,-0.42 -1.59,-2.13 0.24,-1.72 1.21,-1.41 -0.36,-2.28 0.61,-2.92 -0.8,-2.41 0.6,-0.67 -0.29,-1.49 -1.01,-1.07 0.29,-3.23 -1.89,-2.11 0.96,-0.83 -0.81,-1.62 0.34,-1.47 -0.43,-3.52 0.43,-0.53 -0.43,-2.75 0,0 0.39,-0.85 1.78,0.77 1.56,-1.45 2.93,0.48 1.23,-1.27 0.93,1.4 0.82,-0.63 2.87,0.19 4.16,-1.85 2.58,-0.49 1.19,-1.75 2.28,2.74 2.98,0.58 5.86,-3.76 2.06,-2.29 2.92,1.21 2.08,0.13 0.58,-0.42 2.97,0.72 0.65,0.97 0.55,-0.03 0.54,-1.23 -0.12,-1.2 0.64,-0.65 -0.38,-0.79 1.1,-0.05 1.28,-3.77 z" 
                fill="rgb(151, 144, 238)" 
                stroke="white" 
                stroke-width=".7px"
                title="Ratchaburi" 
                id="TH-70" 
            />
        </svg>