<svg xmlns="http://www.w3.org/2000/svg" viewBox="399.8784400000003 282.36255000000006 72.7599999999997 74.20999999999975" width="72.7599999999997" height="74.20999999999975">
            <path 
                d="m 465.01844,285.39255 0.44,-0.55 1.64,-0.01 1.01,-0.82 0.49,-1.65 0.9,0.61 1,2.98 -0.2,2.08 0.95,3.44 -0.53,0.77 1.92,0.42 0,0 -1.25,3.61 -2.34,1.4 0.05,0.91 -1.4,0.99 -1.82,0.48 -0.13,1.15 -1.44,2.54 -0.78,0.64 -0.76,-0.41 -1.05,1.12 -1,-0.06 -2.34,2.59 -1.41,-0.29 -0.64,0.56 -0.92,2.27 0.44,1.68 0.78,0.7 -0.2,1.58 -0.65,0.88 0.42,0.77 -0.27,0.67 -0.73,0.49 -2.07,-0.76 -2.23,0.29 -1.15,1.75 0.27,0.67 0.77,-0.81 0.62,1.41 -0.85,1.98 -0.62,0.08 0.34,0.32 -0.3,0.92 0.41,0.12 -0.39,0.37 1.14,0.77 -0.54,0.35 0.85,0.14 -1.16,0.09 0.62,0.47 -0.09,0.57 -0.58,0.24 0.12,0.62 -0.56,-0.36 0.35,0.93 -0.69,0 0.4,0.97 -1.07,0.2 0.18,1.21 2.35,0.01 2.79,-1.55 0.14,-0.47 -0.55,-0.11 0.29,-0.85 2.5,2.29 1.41,0.42 0.37,1.11 -0.76,1.07 0.38,1.02 0.58,0.08 -0.59,0.78 0.63,0.93 -0.9,0.33 0.14,1.28 -0.84,0.16 0.67,0.48 1.31,-1.19 -0.35,0.46 0.68,1.09 1.6,1.33 -0.04,0.51 0.79,-0.1 -0.15,0.61 -0.87,-0.19 0.43,1.41 -0.6,0.37 1.45,0.21 -0.59,0.69 0.24,0.84 1.8,-0.48 -0.21,0.53 -3.29,0.44 -2.56,1.73 0.01,1 0,0 -1.54,-0.27 0.37,1.42 -1.57,-0.05 -0.53,0.59 0.03,1.08 -0.45,-0.3 -0.76,0.89 0.31,1.04 -2.23,0.94 -2.13,2.56 -0.59,2.96 0,0 -1.1,-0.01 0.13,-1.33 -0.82,0.26 0.06,0.53 -0.89,0.07 -0.49,-0.95 0.41,-0.44 -0.23,-0.35 -0.97,0.44 -0.54,-0.51 -0.86,0.26 -0.72,-0.42 -0.56,-1.9 -0.3,1.08 -0.58,-1 -1.21,1.37 -0.47,-1.23 -0.4,0.71 -0.98,-0.32 -0.26,0.64 -3.21,0.66 -0.18,0.48 -1.65,-0.23 -0.61,-0.67 -1.35,0.66 -0.56,-0.63 -0.74,0.38 -1.09,-0.5 -1.38,0.19 -3.77,-1.52 -3.13,0.43 -1.02,1.65 -0.45,-0.08 -0.78,0.91 -2.7,-0.82 -0.78,-0.95 -1.92,-0.26 -1.24,0.08 -2.37,1.4 0,0 1.56,-5.06 -0.57,-2.17 -2.56,0.19 -0.99,0.72 -0.76,-1.29 -3.13,-1.24 -0.56,-2.12 -0.95,-0.1 -0.43,-0.55 0.98,-1.19 1.09,-2.93 -2.23,-0.21 2.26,-2.71 2.27,-0.55 0.8,-1.03 2.7,1.17 1.48,-0.25 0.48,-0.56 0.47,-3.78 0.92,-1.7 -0.36,-0.6 0.4,-0.56 -0.23,-1.34 0.49,-2.32 0.87,-2.78 1.53,-1.3 -0.1,-1.7 -1.07,-1.39 -0.2,-3.47 0.69,-1.72 -1.18,-2.46 0.14,-2.43 1.71,-2.03 0.65,-1.83 -0.3,-0.9 1.2,-1.04 0,0 1.19,0.26 1.27,-1.88 -0.21,0.77 1.58,-0.46 -0.63,1.01 2.59,0.65 0.5,-0.56 0.2,0.67 1.29,-0.73 -0.41,-0.81 -0.84,0.09 0.79,-0.34 1.72,2.21 0.42,-0.44 0.49,0.28 0.12,-1.03 0.6,0.77 0.96,-0.65 -0.84,-0.44 0.08,-0.91 0.62,0.67 0.79,-0.41 0.02,0.48 0.79,-0.46 -0.44,-0.53 1.56,0.5 1.28,-0.28 0.2,-1.76 1.21,-1.37 0.14,-2.36 -2.11,-1.96 0.21,-1.06 -1.96,-2.32 7.26,-5.36 0.67,-1.03 1.86,0.48 1.44,-0.6 2.32,1.65 0.75,-0.4 0.27,0.95 0.92,0.29 1.36,-0.54 2.01,0.74 1.03,-0.9 2.47,0.11 0.52,0.47 -0.15,1.44 0.62,1.93 1.44,-0.74 0.37,-0.81 0.86,0.04 1.18,-0.84 2.31,-0.17 0.64,-0.34 0.07,-0.64 1.59,-0.52 1.28,1.09 2.08,-0.49 z" 
                fill="rgb(151, 144, 238)" 
                stroke="white" 
                stroke-width=".7px"
                title="Roi Et" 
                id="TH-45" 
            />
        </svg>