<svg xmlns="http://www.w3.org/2000/svg" viewBox="304.7084399999999 440.4625500000001 72.83999999999997 66.12999999999982" width="72.83999999999997" height="66.12999999999982">
            <path 
                d="m 321.29844,443.58255 1.97,0.94 2.03,-0.28 0.38,-1.25 -0.29,-0.88 1.24,-1.65 1.78,1.65 0,0 -0.03,1.34 0,0 0.35,0.53 2.06,0.31 1.37,-0.44 0.32,1.23 1.13,-0.43 1.27,1 1.15,-0.49 0.53,0.51 1.67,-0.77 0.12,-2.28 1.76,1.36 2.5,-0.87 0.62,0.38 0,0 0,0 0,0 0,0 0,0 0.32,0.61 1.04,0 0.28,0.53 1.2,0.32 0.62,-0.69 1.27,0.64 1.35,-0.75 1.87,0.55 3.9,-2.51 1.76,1.53 1.52,-1.13 1.95,1.12 0.68,1.26 2.69,-0.72 1.14,0.17 0,0 1.03,-0.3 0,0 0.64,-1.3 0.43,0.43 0.61,-1.14 0.51,0.89 0.82,-0.87 1.17,0.98 0.12,-0.71 1.2,0.69 0,0 1.41,0.56 0,0 0.39,-1.59 1.57,0.63 2.07,-0.87 0,0 0.76,1.99 -1.05,1.12 -0.15,1.87 -1.48,1.49 -0.2,2.18 0.91,2.38 -1.17,0.69 -1.84,0.21 -3.44,2.68 -0.85,1.55 -1.36,0.7 -1.02,5.29 -3.01,4.34 0.6,0.56 -0.02,0.76 -1.01,-0.04 -1.91,1.56 -6.57,3.11 -1.48,1.09 -1.22,1.78 -0.19,0.46 1.5,1.09 0.42,0.97 3.2,1.37 -3.37,0.35 -0.77,1.72 -2.42,0.98 -3.15,-0.56 -2.79,0.88 -1.19,-0.79 -1.9,0.29 -1.77,-0.77 -0.52,0.93 -1.29,0.37 -0.4,1.51 1.68,1.75 0.26,1.5 -0.51,2 0.39,3.83 -1.07,3.99 0.98,2.3 -0.42,1.03 0,0 -0.43,0.02 -0.96,-1.26 -1.49,2.05 -0.88,-0.23 -0.45,-0.67 0.28,1.08 -0.63,1.65 -1.22,0.33 -3.2,-0.6 -1.14,0.42 -1.05,-3.03 -2.41,0.27 -0.99,-2.33 -0.54,-0.25 -0.79,4 -0.62,0.92 -2.48,0.59 -1.01,1.02 -1.92,0.28 0.43,-3.23 -1.5,-0.41 -1.59,-3 0,0 -0.01,-1.37 -0.56,-0.48 0.01,-1.37 -0.61,-0.9 0.22,-1 -2.6,-2.48 0.22,-1.29 -0.44,-0.91 -1.27,-0.13 -0.81,-0.94 -0.6,-1.96 -1.4,-0.35 -0.8,-0.96 2.48,-0.65 0.92,-2.64 0,0 0.06,-1.38 1.77,0.36 0.02,-0.49 0.54,0.07 -0.08,-1.16 0.61,0.3 -0.89,-2.1 0.47,-1.36 -0.7,-2.79 0.26,-1.88 -1.53,-1.09 1.57,-0.82 0.36,-2.48 -0.28,-0.59 -1.21,-0.37 -0.33,-1.21 0.54,-1.47 -1.63,-1.98 0.52,-3.6 0.9,-0.29 1.15,0.58 0.59,-0.23 -0.91,-1.73 -0.16,-3.37 1.15,-1 5.98,-1.21 -0.08,-1.66 0.5,-0.84 2.48,-0.8 1.03,-1.07 z" 
                fill="rgb(151, 144, 238)" 
                stroke="white" 
                stroke-width=".7px"
                title="Sa Kaeo" 
                id="TH-27" 
            />
        </svg>