<svg xmlns="http://www.w3.org/2000/svg" viewBox="181.24844 472.35255 26.29000000000002 21.210000000000036" width="26.29000000000002" height="21.210000000000036">
            <path 
                d="m 201.57844,472.35255 0.55,6.38 1.08,0.06 0.99,0.74 0.76,2.66 -0.35,0.35 0.54,-0.19 0.69,2.14 1.56,-0.21 0.14,1.23 -1.03,2.14 0.23,1.22 0,0 -5.47,0.46 -2.97,-1.26 -1.07,-1.75 -0.21,0.5 0.73,1.15 -0.95,1.78 -12.24,3.81 0,0 -0.4,-2.17 -2.07,-3.11 -0.84,-0.34 0,0 0.05,-1.53 0.82,-0.54 0.09,-0.64 -0.48,-2.24 0.37,-1.14 -0.72,-1.08 1.51,-0.49 -0.02,-0.66 1.05,-0.68 -0.19,-0.87 0,0 2.52,0.09 2.02,-2.23 2.13,-0.46 0.63,0.47 0.39,-0.53 0.35,0.62 2,-0.49 0.71,1.22 2.28,-1.04 0.39,0.22 1.19,-0.81 0.21,-1.21 2.31,-0.7 z" 
                fill="rgb(151, 144, 238)" 
                stroke="white" 
                stroke-width=".7px"
                title="Samut Sakhon" 
                id="TH-74" 
            />
        </svg>