<svg xmlns="http://www.w3.org/2000/svg" viewBox="169.31844 487.42254999999983 15.240000000000009 18.530000000000143" width="15.240000000000009" height="18.530000000000143">
            <path 
                d="m 169.57844,500.25255 0.68,-3.22 1.61,-3.77 0.08,-2.74 0.77,-1.32 1.18,-0.8 -0.43,-0.72 0.73,-0.23 0.76,1.02 1.7,0.21 0.33,0.7 1.4,-0.91 0.56,0.33 0.98,-1.38 0.84,0.66 0.48,-0.14 0,0 0.84,0.34 2.07,3.11 0.4,2.17 0,0 -2.05,1.09 -0.99,2.62 -0.79,0.67 -1.59,-0.44 0.21,0.89 -0.19,1.48 -2.17,1.37 -0.96,1.24 0,0 -0.98,0.22 -0.81,0.85 -2.02,-0.43 -0.15,1.5 -0.77,0.38 0.15,0.91 -0.5,-0.33 -1.18,0.37 -0.45,-4.28 z" 
                fill="rgb(151, 144, 238)" 
                stroke="white" 
                stroke-width=".7px"
                title="Samut Songkhram" 
                id="TH-75" 
            />
        </svg>