<svg xmlns="http://www.w3.org/2000/svg" viewBox="209.20844 473.44255000000004 34.97000000000003 16.420000000000073" width="34.97000000000003" height="16.420000000000073">
            <path 
                d="m 209.74844,488.28255 -0.54,-3.67 0.68,-3.38 0.7,-0.04 0.34,0.82 0.75,-0.99 1.92,0.44 0.76,-0.26 -0.4,-1.56 0.19,-3.13 0.28,-0.43 0.91,0.7 0.8,-0.2 0.62,-2.33 2.15,0.97 -0.54,1.65 4.51,1.14 0.52,-1.32 0.79,-0.33 0.07,0.64 2.11,0.72 0.9,-2.71 -0.13,-1.57 5.27,0.12 4.77,1.85 0.12,-0.53 0,0 6.34,2.32 -0.47,0.72 1.01,0.67 -0.2,0.75 -2.43,2.66 -1.11,0.17 0.52,1.44 -0.69,1.09 -1.04,-0.61 -1.14,2.73 -0.05,2.27 -1.3,-0.32 -0.24,1.09 0,0 -3.58,-0.91 -7.76,-0.98 -3.33,-0.96 -3.59,-2.68 -0.06,-0.69 1.14,-1.55 -0.15,-1.18 -2.19,-0.48 -0.18,0.27 2.11,0.53 -1.07,2.66 1.01,2.09 -0.33,0.76 -0.73,0.66 -2.77,0.59 z" 
                fill="rgb(151, 144, 238)" 
                stroke="white" 
                stroke-width=".7px"
                title="Samut Prakan" 
                id="TH-11" 
            />
        </svg>