<svg xmlns="http://www.w3.org/2000/svg" viewBox="218.0584399999998 381.67255000000006 59.26000000000016 55.47999999999979" width="59.26000000000016" height="55.47999999999979">
            <path 
                d="m 219.89844,408.72255 1.6,-1.62 -1.42,-2.33 0.08,-0.82 3.33,0.58 2.43,-2.5 1.29,0.15 0.86,-0.6 1.78,-3.46 1.08,0.76 1.56,0.23 1.12,-0.14 0.34,-0.59 1.78,0.04 2.31,2.83 0.83,-0.11 0.31,-0.54 0.82,0.2 0.87,0.95 2.05,0.98 1.31,-0.32 0.5,-0.77 -1.02,-1.17 -0.07,-3.19 0.79,-0.83 2.72,0.17 1.06,1.31 2.73,1.83 -0.02,-0.48 0.69,-0.02 -0.26,-1.57 0.58,0.25 0.76,-1.39 -1.33,-0.03 -0.23,-0.63 0.94,-0.76 0.25,0.5 0.42,-0.22 -0.72,-1.32 0.28,-0.29 -0.61,-0.58 1.12,-0.96 0.19,-0.93 4.01,0.59 2.7,-1.64 2.16,-0.07 0.58,-1.29 0.59,1.51 1.04,0.42 1.21,-1.74 0.12,-2.31 3.12,-0.2 1.65,-1.35 0.21,-2.37 0.7,-1.21 1.63,0.55 1.74,-0.49 0,0 0.86,2.21 -0.25,1.12 0.63,0.93 0.02,1.84 1.27,3.06 0.33,3.31 -2.59,1.39 -2.26,2.45 0,0 -2.49,1.53 0,0 -0.55,0.07 -0.16,1.45 -1.81,0.46 -0.58,1.48 -0.48,0.11 -0.63,-0.65 -0.15,1.33 -3.3,-0.49 -1,-0.97 -0.23,-0.93 -0.89,-0.02 -0.16,0.76 -0.6,0.08 0.38,0.56 -0.48,2.01 1.12,1.9 0.03,5.2 0.71,1.51 -2.22,2.98 0.14,0.64 1.81,1.13 2.03,2.67 0,0 0.04,0.58 -1.14,0.02 0.59,0.8 -0.74,0.85 0.36,1.11 -0.86,-0.46 -0.37,0.59 0.08,1.09 -0.59,0.81 0.58,2.04 -1.67,0.43 -0.52,1.26 -0.96,0.37 -0.89,-1.91 -1.66,-0.8 -2.69,-0.08 -0.73,-0.54 -0.33,-1.05 -0.96,-0.57 -0.12,1.56 0.58,0.96 -0.38,2.3 -2.58,2.83 -2.05,0.37 -0.09,0.72 -0.75,-0.25 -0.47,-0.97 -1.33,-0.19 -0.29,1.37 0.41,1.03 0,0 -3.94,2 -0.13,-2.09 -4.53,2.12 0,0 -0.06,-5.78 -2.41,0.33 -1,-0.38 1.33,-2.4 -0.48,-1.13 0.78,-0.77 -1.04,-0.54 -0.13,-0.82 -0.66,0.22 -0.69,-0.47 0.59,-0.57 -0.45,-2.05 0.57,-0.9 -0.25,-0.91 0.42,-0.37 -0.52,-0.06 0.45,-0.65 -0.74,-0.09 -0.83,-1.59 2.1,-0.97 -0.26,-1.33 0.49,-1.17 -2.75,-0.15 -0.79,-0.81 -0.02,0.71 -0.92,-0.01 -0.08,-0.61 -0.96,0.46 -0.67,-0.71 -1.11,0.17 -0.39,1.93 -4.34,-0.03 -0.06,-1.64 -1.89,-1.35 0.65,-2.41 z" 
                fill="rgb(151, 144, 238)" 
                stroke="white" 
                stroke-width=".7px"
                title="Saraburi" 
                id="TH-19" 
            />
        </svg>