<svg xmlns="http://www.w3.org/2000/svg" viewBox="122.87844000000003 922.2625499999999 71.17999999999994 48.85000000000002" width="71.17999999999994" height="48.85000000000002">
            <path 
                d="m 130.45844,959.49255 1.34,0.81 1.3,0.09 -0.1,0.54 0.77,0.3 -0.13,1.84 -0.71,1.02 -1.97,0.06 -0.65,-3.06 0.15,-1.6 z m -1.97,-0.37 0.61,0.55 0.08,1.26 -2.5,1.19 -2.08,-0.52 -0.45,0.46 -0.78,-0.08 -0.49,-0.47 0.17,-0.36 1.04,0.41 -0.1,-0.54 0.99,-1.39 3.51,-0.51 z m 27.82,-9.18 0.36,1.1 0.3,0.39 0.43,-0.28 0.52,1.14 -0.37,3.96 1.05,1.66 -0.22,2.12 0.53,1.52 -0.37,1.27 -1.14,-0.76 -0.53,0.99 0.33,0.88 -0.54,-0.09 -0.59,0.7 -0.88,-1.03 -0.4,-1.97 -0.92,-1.28 -0.7,-0.01 -1.22,-2.3 0.35,-0.81 0.76,-0.24 0.14,-2.96 0.88,-0.19 0.89,-1.1 0.15,-3.97 0.34,-0.11 0.85,1.37 z m 6.42,-27.24 0.74,-0.15 0,0 1.44,-0.1 2.19,2.05 0.9,0.08 0.1,1.07 1.77,0.73 0.33,-0.76 1.46,-0.04 0.79,-1.06 2.76,-0.69 0.85,0.67 0.77,-0.12 1.04,-0.26 0.15,-0.67 1.06,-0.09 0,0 1.75,0.67 0.27,0.9 0.73,-1.27 1.18,0.11 0,0 0.5,3.43 1.02,1.07 -1.02,0.63 -0.07,0.79 1.35,1.46 -0.24,1.49 2.57,2.54 0.32,0.97 4.23,0.77 1.5,1.12 0.89,1.58 -1.47,2.39 -0.53,1.9 0.62,2.4 0.93,0.84 -0.6,2.34 0,0 -1.17,0.65 -1.07,1.51 0.55,0.95 0.07,1.71 -0.96,2.14 1.18,3.06 -1.32,0.44 -0.53,-0.45 -0.07,3.92 0.53,1.42 -0.33,1.3 -0.9,0.67 0.17,1.04 -1.58,3.26 -1.54,-6.15 -1.14,0.09 0.98,-2.36 -0.14,-1.4 -1.27,-0.42 -0.97,2.81 -2.85,-1.97 -2.17,-3.35 0.39,-0.27 -0.52,-0.66 -2.49,1.59 -0.09,-2.21 0.86,0.02 0.88,-0.86 -0.78,-0.53 -0.76,-2.74 -0.42,1.1 -0.67,0.39 -1.1,-1.27 0.25,-0.9 -0.54,-0.49 -0.58,0.38 -0.19,-1.07 0.64,-0.47 0.24,-1.06 -0.39,0.27 -0.34,-1.11 -0.21,1.34 -1.7,0.05 -2.65,-4.69 -0.4,1.01 -1.4,0.34 -0.46,-0.47 -0.33,-2.04 -1.45,-2.09 -0.45,-0.27 -1.25,0.64 -2.02,-1.46 -0.05,-0.57 -1.71,0.42 -0.79,-2.6 -0.52,-0.34 0.69,-0.47 -0.36,-2.66 0.67,-0.62 0.52,0.11 0.41,-0.15 -0.37,-0.97 -1.25,0.73 -0.82,-2.91 1.02,-0.84 -1.02,-1.66 1.78,-2.48 0.38,0.73 0.93,-1.55 -0.27,-0.79 1.54,-0.67 0.2,-1.28 1.2,0.44 z" 
                fill="rgb(151, 144, 238)" 
                stroke="white" 
                stroke-width=".7px"
                title="Satun" 
                id="TH-91" 
            />
        </svg>