<svg xmlns="http://www.w3.org/2000/svg" viewBox="442.38843999999995 345.44255000000004 67.76999999999998 84.75" width="67.76999999999998" height="84.75">
            <path 
                d="m 448.13844,356.57255 0.59,-2.96 2.13,-2.56 2.23,-0.94 -0.31,-1.04 0.76,-0.89 0.45,0.3 -0.03,-1.08 0.53,-0.59 1.57,0.05 -0.37,-1.42 1.54,0.27 0,0 1.03,1.9 -0.12,1.93 3.08,2.06 3.34,4.38 0.97,2.85 1.2,0.19 2.8,2.04 3.37,-0.12 1.34,1.67 0.55,1.8 1.48,0.3 0,0 3.52,0.88 0.72,0.62 2.36,0.07 0,0 1.59,1.05 3.49,-0.06 0,0 0.81,-1.07 1.08,-0.33 0.1,0.93 1.41,-0.14 1.08,0.45 0.08,1.08 1.26,0.58 -0.17,-0.68 -0.69,-0.33 0.42,-0.82 0.51,0.05 0.92,2.19 1.19,0.2 -0.99,0.42 0.51,0.69 -0.59,0.11 0.11,0.36 1.49,0.04 -0.13,0.99 0.7,-0.62 0.36,0.23 -1.35,1.39 -0.03,0.85 1.86,-0.82 0.69,0.34 -2.15,2.43 -1.64,0.52 0.05,1.03 -0.65,0.6 0.37,0.47 0.82,-0.47 -0.77,1.04 1.08,0.12 -0.88,2.33 0.38,0.41 -0.3,0.46 -0.49,-0.31 -0.28,0.58 0.98,1.97 -0.15,1.23 0.47,1.26 -0.37,1.15 1.12,1.14 2.71,0.56 4.34,2.17 0.53,2.27 1.03,1.82 -1.44,0.54 -0.49,1.37 0,0 1.28,2.03 0,0 0.2,1.9 1.48,1.19 0.38,1.21 1.82,1.28 0.06,1.95 0.9,1.31 -1.58,-0.72 -1.17,0.34 -0.82,1.56 0.03,1.3 -0.71,0.73 0.12,1.86 -0.79,1.96 3.03,3.76 -0.22,1.71 -1.96,2.15 0.56,0.94 0.68,0.16 2.08,-0.77 1.82,1.6 0.12,0.89 0,0 -2.46,-1.25 -2.06,1.02 -0.15,-0.74 -1.33,-0.29 -0.9,-1.29 -2.6,0.93 -0.92,1.21 -0.91,-0.53 -1.07,0.73 0.04,-1.21 -1.01,-0.89 -0.97,0.83 -0.74,1.73 -1.67,-0.29 -0.54,-1.44 -0.47,-0.13 -4.33,3.29 -0.14,1.28 -2.92,0.26 -2.44,-1.5 -0.95,0.36 -0.54,0.6 0.12,0.65 -1.03,0.47 -0.14,-1.04 -1.7,0.14 -1.35,-1.02 -0.66,0.4 -1.39,-0.35 -0.48,-0.39 -3.14,0.48 -3.74,-2.66 -1.61,1.21 -0.28,0.95 -1.09,0.48 -1.39,0.19 -0.77,-1.02 -1.01,-0.11 -0.95,0.6 0.28,1.06 -1.99,0.43 -0.58,-0.33 0.12,-0.98 -2.04,-0.35 -1.26,2.05 -2.19,0.24 0,0 -0.87,-1.24 0.45,-1.09 -0.23,-2 0.46,-0.58 0.3,-3.68 -0.63,-0.68 0.28,-1.1 -1.24,-0.2 -0.18,-3.2 1,-0.77 0.85,-3.16 -0.57,-4.66 -3.37,-4.07 0.47,-2.28 -0.81,-2.68 -5.24,-2.04 -1.09,-1.5 1.19,-1.55 -0.22,-0.76 0.71,-1.46 2.76,-3.12 -0.06,-1.75 0.53,-0.31 0.41,0.31 1.17,-1.22 -0.28,-1.7 1.08,-0.22 0.16,-1.55 0.55,-0.34 -1.06,-0.87 0.51,-0.45 -0.18,-0.56 0.54,0.19 0.13,-0.53 -1.25,-0.02 -0.01,-0.56 -0.48,0.19 -0.16,-0.45 0.43,-0.2 -0.04,-1.18 -0.4,-0.2 0.6,-0.48 -0.9,-0.66 0.86,-0.54 -0.01,-0.76 -0.96,-0.41 -0.13,-0.54 -0.36,0.26 -0.72,-0.41 0.3,-1.04 -0.35,-0.42 1.21,-1.11 -0.9,-1.34 1.22,-0.37 -0.27,-0.48 0.5,-0.31 -0.42,-0.72 0.73,-0.3 -1.19,-0.8 -0.35,-1.2 1.34,0.83 0.35,-0.38 -0.13,-1.53 1.14,0.52 -0.26,-1.85 1.2,-0.12 -0.42,-0.92 0.9,0.26 0.53,-0.99 1.16,-0.11 0.96,-0.74 0.99,0.34 0.12,-0.6 -0.52,0.03 0.41,-0.49 -0.75,-0.77 0.34,-0.62 -0.83,0.21 0.19,-0.72 -1.02,-1 -0.7,0.71 -0.02,-0.46 -0.99,-0.33 -0.54,0.21 -0.54,-0.47 -0.38,0.49 -0.51,-0.38 -0.73,1.09 z" 
                fill="rgb(151, 144, 238)" 
                stroke="white" 
                stroke-width=".7px"
                title="Si Sa Ket" 
                id="TH-33" 
            />
        </svg>