<svg xmlns="http://www.w3.org/2000/svg" viewBox="191.5184400000001 377.11255 20.689999999999912 27.379999999999995" width="20.689999999999912" height="27.379999999999995">
            <path 
                d="m 202.37844,377.11255 2.58,1.21 2.77,2.53 0,0 3.28,1.99 -0.49,1.75 -1.08,0.74 0.12,3.37 -1.59,0.82 0.34,2.28 0.57,0.66 -0.25,1.27 0.63,0.25 0.1,0.61 0.8,0.15 0.65,1.43 -0.17,0.98 0.61,1.1 -0.11,3.02 1.07,0.98 -1.35,2.24 0,0 -1.48,-0.73 -2.13,-0.08 0.09,-1.45 0.59,-0.2 -1.22,-0.28 -1.75,0.91 -0.81,-1.53 -0.92,0.35 -0.93,-0.76 0.07,-1.1 -0.93,-1.09 -1.14,0.29 0.05,0.64 -0.79,-0.06 -0.48,0.52 -1.37,-1.12 -3.11,0.5 0,0 -1.57,-1.34 0.93,-2.27 -0.08,-2.12 0.52,-0.66 -0.98,-0.11 -0.21,-1 0.58,0.05 0.43,-0.58 -2.15,0.08 -0.54,-1.34 -0.01,-0.66 0.98,-0.32 0.38,-1.05 0,0 3.91,0.66 0.83,-0.53 0.39,-0.69 -1.19,-1.92 0.67,-0.8 -0.11,-0.56 -0.81,0.17 -0.71,-1.07 -0.92,-0.18 -0.08,-1.87 0.3,-0.41 3.91,-0.58 0.16,-1.19 z" 
                fill="rgb(151, 144, 238)" 
                stroke="white" 
                stroke-width=".7px"
                title="Sing Buri" 
                id="TH-17" 
            />
        </svg>