<svg xmlns="http://www.w3.org/2000/svg" viewBox="183.00843999999998 867.74255 71.10000000000005 111.24999999999989" width="71.10000000000005" height="111.24999999999989">
            <path 
                d="m 204.61844,910.47255 0.01,0.13 0,0 0.54,1.85 3.44,1.8 -1.08,0.51 0,0 -1.41,0.5 -0.72,1.96 0.93,0.56 0.64,-0.31 0.53,2.66 1.21,0.66 0.54,-0.2 0.36,-0.32 0.25,1.04 0.46,0.01 0.43,-0.85 1.42,1.54 4.18,-0.56 2.86,-2.44 -1.14,-3.11 0.21,-0.43 2.9,3.26 7.56,11.08 2.75,2.83 3.59,1.68 1.34,-0.74 4.13,3.73 5.66,3.21 4.61,0.17 0,0 -0.03,0.37 -1.21,0.22 -0.09,0.58 2.06,0.79 -0.68,-0.1 -0.44,1.71 -1.9,1.7 0.22,2.4 -0.92,1.2 2.51,0.56 0.17,3.11 3.34,2.86 0,0 -1.32,1.05 1.58,1.77 -1.85,1.14 -0.99,1.67 -1.9,0.26 -0.23,1.55 -0.97,1.3 -1.58,1.13 -1.56,-0.27 -1.1,2.35 -0.57,0.02 -0.26,0.58 -0.99,-0.18 -0.43,0.57 -0.71,2.64 0.67,1.89 -0.09,0.94 -0.4,0.09 0.62,2.24 -0.71,0.15 -0.58,1 -3.04,0.44 -1.04,0.57 -0.41,-1.22 0,0 0.42,-0.37 -0.13,-2.8 -0.4,-0.21 -0.77,0.68 -0.55,-0.65 0.1,-4.95 -3.07,-2.24 -0.82,0.53 -0.88,-0.26 -0.8,-3.27 -0.53,-0.12 -1.62,2.61 -0.76,0.02 -0.92,1.16 -2.06,0.67 -0.72,-0.42 -1.72,-0.67 -0.61,-0.76 -2.3,-0.8 -0.83,-0.85 -0.94,0.73 -2.45,-0.65 -1.44,-2.08 -1.4,0.29 -0.76,-0.72 -2.29,1.13 -3.97,-1.72 -0.81,-2.18 -2.61,-2.07 0.8,-1.03 -0.06,-3 -1.75,-1.11 -0.24,-1.97 -1.15,0.04 -0.38,1.11 -0.78,-0.18 -0.67,-0.11 -1.05,0.12 -2.06,-2.14 0,0 0.6,-2.34 -0.93,-0.84 -0.62,-2.4 0.53,-1.9 1.47,-2.39 -0.89,-1.58 -1.5,-1.12 -4.23,-0.77 -0.32,-0.97 -2.57,-2.54 0.24,-1.49 -1.35,-1.46 0.07,-0.79 1.02,-0.63 -1.02,-1.07 -0.5,-3.43 0,0 0.64,-0.14 -0.2,-1.88 2.18,-0.91 1.07,-0.98 3.02,1.12 1.25,-1.78 3.3,-1.24 1.23,0.04 1.61,-0.68 0.66,0.31 0.63,-0.83 1.31,0.08 0.76,-1.42 1.66,-1.27 -0.26,-1.48 1.6,-0.39 -0.26,-1.46 1.08,-0.42 0.3,-0.62 0,0 0.03,0.09 0,0 -0.01,0.49 0,0 0.01,0.03 z m -15.72,-38.18 5.88,-1.82 0.85,-0.56 0.21,-0.79 4.08,0.17 0.3,-1.52 0.44,-0.03 0.12,0.49 1.1,-0.16 0,0 5.42,23.72 2.95,10.37 3.45,7.95 4.25,5.96 -0.13,0.74 0.57,0.97 -0.97,0.51 -0.74,-0.63 -0.52,0.2 -0.73,-1.17 -4.07,-2.94 -2.44,0.33 0,0 -1.94,-1.25 1.34,-0.88 -0.06,-1.8 -0.46,-0.78 0.06,-2.73 -1.36,-1.28 0.44,-6.27 -1.29,-6.08 -2.44,-1.08 -2.38,0.06 -1.85,3.33 -0.16,1.57 -1.3,-0.96 -0.54,-2.52 1,-0.94 0.67,-1.64 0,0 1,0.75 0.5,-0.31 0,0 0.72,-3.13 0,0 -1.04,-7.82 -1.68,-3.41 -0.99,0.16 0,0 -1.05,1.09 -0.84,0.25 -1.87,-0.44 -0.63,0.52 0,0 -1.28,-0.51 0.03,-0.72 -0.65,-0.6 -1.88,-0.3 -1.25,0.63 1.16,-4.7 z" 
                fill="rgb(151, 144, 238)" 
                stroke="white" 
                stroke-width=".7px"
                title="Songkhla" 
                id="TH-90" 
            />
        </svg>