<svg xmlns="http://www.w3.org/2000/svg" viewBox="130.88844000000003 379.11255000000006 67.32999999999993 70.77000000000004" width="67.32999999999993" height="70.77000000000004">
            <path 
                d="m 131.02844,385.18255 0.01,-0.85 1.13,-0.53 0.39,-0.75 -0.76,-0.96 0.39,-1.14 1.27,-1.09 -0.06,-0.67 0.99,-0.08 2.08,2.3 3.62,-0.01 -0.15,0.81 0.76,2.36 1.1,1.35 0.44,-0.52 3.75,0.4 5.29,2.66 3.1,0.54 0.15,-2.13 -0.41,-0.58 0.49,-0.79 1.73,0.09 2.02,0.94 1.5,-0.45 0.26,0.3 0,0 0.41,1.01 2.9,0.06 1.93,1.24 2.29,0.5 1.73,-0.27 1.99,1.89 4.47,0.13 1.02,0.57 5.24,-1.07 0.26,-1.3 -0.64,-1.05 0.27,-0.58 4.87,1.03 1.53,2.32 4.49,-2.88 0,0 -0.38,1.05 -0.98,0.32 0.01,0.66 0.54,1.34 2.15,-0.08 -0.43,0.58 -0.58,-0.05 0.21,1 0.98,0.11 -0.52,0.66 0.08,2.12 -0.93,2.27 1.57,1.34 0,0 -0.33,0.71 -0.94,0.38 -0.19,2.35 0.69,1.76 -0.49,2.39 1.47,2.06 -2.4,2.97 1.02,2.05 -0.98,1.3 0.85,1.44 -0.11,1.13 1.28,1.07 0.83,1.64 1.01,0.12 0,0 -0.59,1.49 0.29,1.66 1.65,0.51 0.56,1.81 -0.95,1.39 0.02,3.97 -1.66,2.82 -0.04,5.18 0,0 -1.86,1.85 -4,1.09 -1.61,1.44 -12.82,0.75 -0.89,1.09 -1.54,0.34 -2.43,2.93 -1.74,0.89 0,0 -2.18,-0.43 -0.08,-1.02 -0.89,-0.4 -0.39,-0.94 -2.49,0.59 -1.41,-0.44 -0.27,-0.64 0.1,-2.56 1.05,-2.89 0.79,0.23 0.65,-1.19 1.14,0.59 1.38,-1.09 0.43,-1.47 0.63,0.17 0.19,-5.84 -0.63,-1.85 0.46,-0.82 -0.26,-3.17 0.46,-1.18 -0.56,-1.91 0.34,-4.4 -0.6,-2.9 0.66,-1.99 -1.61,-1.07 0.62,-1.61 1.73,-0.42 -0.71,-0.99 -0.26,-1.6 -1.48,-1.92 -0.06,-0.88 -1.35,-0.73 1.37,-1.33 0.04,-0.88 -0.94,-0.58 -1.75,0.3 -1.87,-0.47 -0.82,-1 -1.78,-0.67 -2.73,-2.1 -2.29,1.54 -2.39,-0.57 -0.75,0.44 -1.45,-1.24 -0.27,0.59 0.39,1.78 -0.62,1.45 0.82,1.13 -0.19,0.56 -2.39,1.38 -3.35,0.39 -0.22,-1.7 -1.64,-3.77 -1.18,-0.34 -2.08,1.03 -2.01,-0.43 -1.49,-1.41 -0.34,-0.96 -1.45,-0.47 -1.07,-1.43 -0.76,-1.88 2.31,-2.09 0.35,-2.18 -0.71,-0.96 0.65,-0.86 -1.16,-2.27 z" 
                fill="rgb(151, 144, 238)" 
                stroke="white" 
                stroke-width=".7px"
                title="Suphan Buri" 
                id="TH-72" 
            />
        </svg>