<svg xmlns="http://www.w3.org/2000/svg" viewBox="74.16843600000003 719.27255 111.130004 123.84999999999968" width="111.130004" height="123.84999999999968">
            <path 
                d="m 183.90844,755.75255 0.66,0.08 0.02,0.92 0.71,0.34 -2.3,3.81 -0.04,0.83 1.2,2.11 -1.63,0.13 -0.66,1.13 -0.8,0.09 -1.22,2.11 -1.59,-0.19 -1.46,0.92 -0.9,-0.88 -1.49,0.32 -0.01,-0.75 0.53,-0.09 -0.16,-1.85 -1.08,-2.38 1,-0.4 0.05,-2.71 -0.39,-1.29 -1.07,-1 4.66,-1.13 1.07,1.11 1.31,-0.23 0.69,0.89 0.97,-0.25 0.77,0.55 0.97,-1.4 -0.11,-0.91 0.3,0.12 z m -89.730004,-0.78 1.85,-1.84 0.15,-3.97 0.93,-0.38 0.62,0.61 1.88,-1.32 1.710004,-0.06 1.79,-1.83 0.93,0.32 1.3,-0.64 1.66,1 1.93,0 0.31,0.59 1.67,0.08 0.64,0.52 0.58,-0.49 0.18,0.74 1.76,0.41 1.26,1.83 1.52,1.03 1.4,-0.78 -1.05,-1 0.06,-0.51 -0.61,-0.2 0.42,-1.06 1.64,0 1,0.71 0.74,-0.66 2.07,-0.05 0,0 0.78,3.32 2.62,3.6 -0.02,2.19 2.19,5.75 1.48,2.49 2.9,3.49 -1.09,-0.4 -1.91,2.24 0.05,0.51 -1.55,0.55 -1.44,1.11 -0.19,0.66 0.17,2.41 0.64,0.91 -0.36,1.42 1.2,1.51 1.78,1.09 2.87,-1.62 0.39,0.79 0.37,0.04 0.79,0.43 0.47,1.01 1.55,-0.46 -0.09,1.25 0.6,0.49 2.91,-1.07 3.62,0.5 0.41,-0.66 1.31,-0.38 0.88,-2.73 1.65,-2.07 5.15,1.17 2.74,-2.53 1.38,0.1 0.98,-0.67 -0.08,-1.63 0.79,0.81 2.12,0.89 1.25,-0.85 0.92,0.62 0.93,-0.46 0,0 -0.51,1.38 -0.92,0.63 0.37,4.91 -0.47,1.17 -0.55,0.23 0.05,1.8 -0.97,1.14 1.35,1.05 -0.34,1.73 0.39,3.62 -0.12,2.5 -0.76,0.87 -0.52,2.23 -0.82,0.65 -1.27,-0.24 -0.37,0.99 0.5,0.59 0.01,1.06 -3,0.88 -0.3,-0.52 -1.29,1.24 -0.87,-1.07 -0.68,-0.01 -1.98,1.11 -0.15,1.29 -1.13,1.08 0.16,1.72 -1.94,0.08 -0.89,0.96 0.6,1.69 -0.26,3.14 0.51,0.28 -0.52,2.74 -2.05,1.61 0.18,1.61 -1.12,1 0.08,0.7 -1.13,-0.17 -0.98,1.18 0.49,2.04 -1,0.19 -2.33,3 0.01,0.64 0.65,0.02 -0.36,1.01 -1.06,0.23 -0.1,0.9 -1.05,-0.11 -1.11,1.01 -1.53,-1.34 -0.48,1.49 -1.29,0.42 -0.65,0.86 -0.91,-0.45 0.4,0.87 -2.39,1.66 0.16,0.79 -0.88,1.76 -0.98,0.87 0.02,0.8 0.39,1.29 0.4,-0.08 1.02,1.16 0.93,-0.04 0.52,2.34 0.57,0.27 0,0 -1.05,0.83 -0.87,-0.08 -3.7,-2.37 -5.76,-2.02 -5.31,0.33 -4.92,-3.68 -1.57,-0.57 -0.62,-1.14 0.77,-3.4 -0.59,-2.75 -0.55,-0.66 0.14,-1.36 -3.19,-3.8 -1.94,-0.58 -1.06,-1.92 -2.920004,-0.02 -0.32,1.01 -2.36,-2.16 -0.86,-0.15 -1.72,3.03 -1.27,-0.16 0,0 -1.96,-1.96 -0.83,0.38 -0.89,-0.29 -0.63,0.98 -1.86,0.48 -0.55,0.78 -2.61,-0.79 -1.87,-1.5 0.58,-0.93 1.64,-0.55 1.61,-2.03 0.3,-5.76 -2.95,-1.15 -0.15,-0.99 -1.34,-1.08 0.19,-0.92 -1.46,-0.16 -0.57,-1.36 -4.05,-1.01 0.74,-2.51 -0.91,-0.87 0.53,-1.39 2.92,-1.31 0.75,0.15 0.36,-0.84 -1.54,-1.39 -1.02,-3.2 1.44,-1.22 -0.92,-2.89 0.11,-1.63 1.38,-0.42 -0.58,-1.26 0.16,-1.93 0.42,-1.08 1.49,-1.31 0.39,-1.25 -0.24,-2.84 -1.42,-0.82 0,0 0.44,-1.21 2.3,-2.32 1.23,0.16 1.47,-0.63 0.24,0.85 1.43,0.91 1.54,-0.99 1.46,0.63 0.66,-0.53 0.42,-2.27 -1.62,0.03 0.41,-0.77 -0.46,-1.89 0.85,0.5 0.77,-0.37 0.64,-0.68 -0.98,-1.09 0.19,-1.02 1.68,-0.24 0.67,-1.07 0.76,-0.1 0.1,-0.83 2.03,-2.44 1.12,-0.1 0.3,-0.55 -0.66,-0.93 0.02,-1.07 -1.37,-0.57 0.14,-1.24 z m 89.980004,-6.61 -0.87,1.36 -1.25,-1.16 -3.56,-1.16 -1.15,-0.97 -0.1,-1.55 -0.87,-0.78 -0.19,-1.55 0.58,-1.46 3.66,0 2.21,0.78 1.64,1.75 -0.1,4.74 z m -15.88,-29.09 0.9,1.08 -0.34,0.43 0.43,0.08 0.22,0.89 -1.14,1.25 0.24,0.45 -0.69,-0.06 -0.32,0.55 0,-0.51 -0.84,-0.4 0.8,-1.47 -0.54,-1.49 0.32,-0.79 0.73,0.36 0.23,-0.37 z" 
                fill="rgb(151, 144, 238)" 
                stroke="white" 
                stroke-width=".7px"
                title="Surat Thani" 
                id="TH-84" 
            />
        </svg>