<svg xmlns="http://www.w3.org/2000/svg" viewBox="387.6784399999997 351.44255 67.4800000000003 79.9800000000003" width="67.4800000000003" height="79.9800000000003">
            <path 
                d="m 389.13844,351.44255 6.93,1.33 0.68,0.92 1.72,0.03 1.3,1.72 4.08,0.67 0.74,0.52 3.84,-1.98 0,0 2.37,-1.4 1.24,-0.08 1.92,0.26 0.78,0.95 2.7,0.82 0.78,-0.91 0.45,0.08 1.02,-1.65 3.13,-0.43 3.77,1.52 1.38,-0.19 1.09,0.5 0.74,-0.38 0.56,0.63 1.35,-0.66 0.61,0.67 1.65,0.23 0.18,-0.48 3.21,-0.66 0.26,-0.64 0.98,0.32 0.4,-0.71 0.47,1.23 1.21,-1.37 0.58,1 0.3,-1.08 0.56,1.9 0.72,0.42 0.86,-0.26 0.54,0.51 0.97,-0.44 0.23,0.35 -0.41,0.44 0.49,0.95 0.89,-0.07 -0.06,-0.53 0.82,-0.26 -0.13,1.33 1.1,0.01 0,0 0.43,0.94 0.73,-1.09 0.51,0.38 0.38,-0.49 0.54,0.47 0.54,-0.21 0.99,0.33 0.02,0.46 0.7,-0.71 1.02,1 -0.19,0.72 0.83,-0.21 -0.34,0.62 0.75,0.77 -0.41,0.49 0.52,-0.03 -0.12,0.6 -0.99,-0.34 -0.96,0.74 -1.16,0.11 -0.53,0.99 -0.9,-0.26 0.42,0.92 -1.2,0.12 0.26,1.85 -1.14,-0.52 0.13,1.53 -0.35,0.38 -1.34,-0.83 0.35,1.2 1.19,0.8 -0.73,0.3 0.42,0.72 -0.5,0.31 0.27,0.48 -1.22,0.37 0.9,1.34 -1.21,1.11 0.35,0.42 -0.3,1.04 0.72,0.41 0.36,-0.26 0.13,0.54 0.96,0.41 0.01,0.76 -0.86,0.54 0.9,0.66 -0.6,0.48 0.4,0.2 0.04,1.18 -0.43,0.2 0.16,0.45 0.48,-0.19 0.01,0.56 1.25,0.02 -0.13,0.53 -0.54,-0.19 0.18,0.56 -0.51,0.45 1.06,0.87 -0.55,0.34 -0.16,1.55 -1.08,0.22 0.28,1.7 -1.17,1.22 -0.41,-0.31 -0.53,0.31 0.06,1.75 -2.76,3.12 -0.71,1.46 0.22,0.76 -1.19,1.55 1.09,1.5 5.24,2.04 0.81,2.68 -0.47,2.28 3.37,4.07 0.57,4.66 -0.85,3.16 -1,0.77 0.18,3.2 1.24,0.2 -0.28,1.1 0.63,0.68 -0.3,3.68 -0.46,0.58 0.23,2 -0.45,1.09 0.87,1.24 0,0 -1.89,0.55 -0.96,-0.4 -1.29,-0.14 -1.03,-0.67 -2.09,0.33 -0.46,1.38 -2.81,-0.52 -1.3,-0.04 -1.42,-1.34 0.07,-0.63 -1.01,-0.32 -0.77,0.07 -0.63,1.19 -1.53,-0.27 -0.04,-0.86 -1.81,0.59 -1.6,-0.76 -0.97,-0.5 -1.88,0.13 -0.6,-0.95 0.55,-2.82 -1.47,-0.55 -2.21,0.21 -0.84,1.03 1.01,0.24 -0.16,0.59 -0.87,-0.03 -1.2,0.82 -0.55,-0.22 -0.34,-1.25 -0.83,0.19 -1.31,-0.69 -1.37,0.2 -2.01,0.91 -0.25,0.65 -1.65,0.03 -0.43,0.99 -0.74,-0.03 -1.04,1.53 -1.15,-0.25 -1.03,-1.54 -1.27,0.74 -0.54,1.56 -9.69,0.45 -2.54,1.65 0,0 -0.38,-3.51 0.71,-0.73 -0.75,-0.88 1.02,-0.56 0.74,-2.22 -0.86,-1.84 0.06,-0.97 -1.42,-1.59 0,0 0.28,-0.59 0,0 -0.35,-1.74 0.66,-0.55 -0.12,-1.23 -0.74,-0.8 0.19,-1.21 1.64,-1.65 -0.3,-2.05 1.83,-1.7 -0.09,-1.14 1.09,-3.39 -0.55,-2.13 1.07,-1.08 0.71,-0.11 -0.23,-1.57 0.36,-0.33 0.91,0.3 0.16,-0.43 0,0 0.19,0.02 0,0 1.09,-1.27 1.18,0.1 -0.35,-0.54 0.67,-0.1 1.04,-1.27 0,0 0.31,-0.27 0,0 0.88,-0.62 -0.34,-0.33 0.87,-0.67 -0.16,-0.62 1.03,-0.22 -0.42,-0.25 0.24,-1.27 1.06,0.03 0.5,-0.68 0.15,-0.9 -0.74,-1.09 0.83,-0.95 -0.6,-0.41 0.7,-0.08 -0.71,-0.58 0.42,-0.47 -1.14,-0.64 0.79,-1.88 1.12,0 0.65,-1.05 -0.97,-1.03 0,0 -0.71,-0.35 0,0 1.28,-1.54 -0.9,0.3 0.19,-1.16 0.46,0.05 0,0 -0.11,-0.71 -0.65,0.29 0,0 0.39,-1.2 -0.59,-0.47 0.29,-0.84 -0.52,-0.7 0.55,-0.54 -0.54,-0.65 0.54,-0.97 -0.67,-0.38 0.03,-0.99 1.14,-0.32 -0.51,-0.54 0.57,-0.4 -0.14,-1.16 0.81,-1.26 -0.39,-0.53 1.21,0.41 0.17,-1.73 0.53,0.11 0.73,-1.04 1.59,0.25 -0.47,-0.54 0.37,-1.01 -0.42,0.44 -0.29,-0.6 -0.44,0.35 -0.1,-0.53 -0.97,-0.43 0.14,-0.89 -0.68,-0.32 -0.17,0.44 -0.8,-0.65 -0.36,0.4 0.6,0.28 -0.99,0.04 -0.44,1.81 -0.7,-0.53 -1.04,0.56 -1.18,-0.85 0.89,-0.58 -0.19,-0.38 -0.8,0.48 -0.74,-0.84 -0.87,0.04 0.04,-0.48 -0.77,-0.15 -0.06,0.54 -0.49,-0.3 -0.21,0.6 -0.65,-0.15 -0.02,0.48 -0.97,0.22 0.17,0.56 -0.75,0.02 -1.05,1.39 -0.62,-0.45 0.27,-0.88 -1.28,0.06 0.02,0.48 -0.44,-0.22 -0.72,0.48 0.23,-1.06 -0.6,0.37 -0.83,-0.43 -0.07,0.5 -0.73,-0.38 0.03,-0.87 -0.64,0.17 0.1,-0.71 -1.02,0.45 -0.62,-1.51 0.62,-0.06 -0.13,-0.47 -0.93,-0.18 -0.16,0.52 -0.48,-0.23 -0.99,0.71 0.43,-0.71 -0.99,-0.81 0.44,-0.22 -0.14,-0.43 -0.33,0.23 -0.5,-0.53 0.29,-0.92 -0.48,-0.68 -0.23,0.79 -1.13,-0.05 -0.68,-0.92 -1.14,-0.25 1.33,-2.26 -0.3,-0.48 0.63,-0.7 z" 
                fill="rgb(151, 144, 238)" 
                stroke="white" 
                stroke-width=".7px"
                title="Surin" 
                id="TH-32" 
            />
        </svg>