<svg xmlns="http://www.w3.org/2000/svg" viewBox="27.268436000000015 184.45254999999997 114.62000400000011 187.73999999999984" width="114.62000400000011" height="187.73999999999984">
            <path 
                d="m 27.298436,190.53255 1.2,0.41 1.59,-0.58 0.56,0.56 1.45,-0.7 2.14,0.48 3.77,-2.28 -0.37,-1.42 0.89,-1.58 3.84,-0.97 0.08,1.43 0.79,0.75 -0.43,1.05 0.89,0.83 -0.17,0.75 0.7,1.78 0.87,0.43 0.15,1.45 0.66,0.71 -0.46,-0.11 0.04,0.51 0.79,0.77 -0.23,0.63 0.98,1.19 0.15,1.44 1.17,0.9 0.32,1 1.92,0.78 0,0 1.01,1.79 0.14,1.97 1.26,1.2 0.74,1.8 2.05,-0.4 0.74,0.67 2.08,-0.2 1.86,-0.66 2.03,-2.08 1.96,0.23 0.38,0.65 -0.28,0.79 0.65,0.86 -0.11,0.72 0.52,0.44 1.02,3.92 -0.62,1.75 0.51,1.17 -0.37,0.89 -2.04,0.63 1.89,2 -0.13,0.87 1.05,1.19 -0.11,1.44 -0.98,0.59 0.88,1.29 2.11,0.95 0.7,-0.72 1.7,-0.52 2.73,0.14 1.3,-0.7 1.98,0.89 -0.25,0.65 0.7,-0.64 -0.39,0.72 0.64,1.11 1.41,-0.37 0.99,0.41 2.84,-0.72 0.25,-0.85 -1.38,0.28 0.19,-1.92 -0.41,-1.2 0.49,-0.95 -1.63,-0.84 1.18,-2.27 0.24,-2.57 -0.49,-0.82 -1.68,-1.01 -0.5,-1.42 0.37,-1.27 -0.36,-1 1.72,-3.45 2.8,-1.4 -1.55,-2.54 -2.08,-0.37 -0.68,-4.35 0.23,-1.67 -1.44,-3.7 0.43,-2.08 -1.09,-0.6 0.01,-1.16 1.09,0.07 0.59,-0.82 2.73,2.01 0.86,-0.98 0.73,0.61 0.93,-0.08 0.76,1.24 1.24,0.84 0.71,2.53 2.82,-1.58 0.76,-1.24 0,0 0.95,1.12 -0.08,1.24 1.37,1.09 0.07,0.81 0.99,0.57 0.42,1.1 -1.53,1.17 -2.65,0.77 0.55,2.41 -0.65,2.36 0.74,0.71 0.59,2.21 -0.37,2.88 0.62,0.92 -0.07,1.11 -1.49,1.72 0.52,2.57 1.82,-2.8 2.22,-0.29 0.68,-0.97 2.43,-1.23 1.3,-0.03 0.05,-0.55 0.950004,-0.48 1.88,0.24 0.89,1.32 0.57,0.09 0.17,-1.34 1.9,-1.78 0,0 1.05,0.92 -0.28,0.67 0.65,2.73 0.94,0.4 0.69,-0.4 0.23,0.82 1.39,-0.31 2.26,3.17 -0.11,0.55 1.39,0.29 1.03,1.73 0.65,-0.15 1.26,1.07 0.78,-0.29 1.43,1.27 0.3,-0.85 1.9,0.7 0.81,1.61 1.36,0.03 0.18,-0.78 2.1,-1.54 -0.09,-0.78 1.4,-1.71 2.91,0.37 0.41,4.86 1.37,1.99 0.42,2.07 0.84,0.31 0,0 0.36,1.82 -0.47,1.88 0.39,0.57 -0.65,1.52 0.59,1.98 -0.32,1.07 1.08,0.54 -0.6,0.65 0,1.06 1.24,1.38 1.9,-0.29 1.72,0.93 -0.44,1.45 0.5,2.56 2.58,0.98 -1.41,2.16 0.56,1.54 -0.51,0.38 0.21,1.06 1.19,0.55 0.84,1.42 -1.3,2 0,0 -3.16,1.34 -0.29,1.29 0.8,1.18 -0.15,1.23 -0.99,0.37 -3.11,-0.69 -0.57,1.29 -1.57,0.73 0.2,0.82 0.67,0.39 -0.12,1.96 -0.58,1.38 -0.85,0.7 -0.01,1.39 -0.64,0.34 -0.05,1.01 -1.73,0.5 -0.11,2.79 0.8,3.9 -1.06,2.35 -1.44,0.49 -1.92,-0.86 0.01,0.58 -0.72,-0.12 -0.64,0.76 -0.2,0.73 0.43,0.04 -0.67,0.54 -1.6,0.15 -1.17,1.79 -1.04,-0.44 -1.54,0.66 -1.92,-0.68 -1.83,0.53 -0.67,-0.18 -1.17,-1.6 -1.05,0.7 0.6,2.47 1.14,0.34 0.73,1.45 -0.45,2.93 1.29,0.15 0.41,0.67 0.03,2.44 0.71,0.77 0.04,1.36 -0.76,1.21 0.52,2.39 2.25,3.14 -1.04,3.3 -1.16,0.39 0,1.6 1.93,0.75 0.99,1.58 0.97,0.22 -0.11,0.9 0.68,0.96 -0.76,1.64 -1.24,0.52 -0.22,1.11 0.36,3.19 -0.97,1.43 1.52,2.06 -0.79,1.51 0.17,1.59 0,0 0.58,1.05 -0.02,2.73 0.51,0.78 1.3,0.43 0.85,1.44 0,0 -0.54,1.9 0.74,2.24 -1.83,4.64 0.38,1.52 -0.24,1.16 -1.08,1.21 -0.21,2.05 -2.89,1.3 -0.2,0.51 0.53,2.25 1.19,0.91 0.33,0.93 -1.57,3.73 0.84,1.74 0.05,1.59 -0.66,0.04 -0.93,1.37 -0.15,2.09 -0.82,0.62 0,2.31 0.51,0.92 -1.52,1.79 0.2,1.28 -0.87,0.46 0.18,2.16 -0.42,1.62 -1.26,0.19 0,0 -1.33,-1.75 -0.55,-2.77 -0.9,-0.35 -1.25,0.39 -0.74,-1.45 -1.81,-0.57 0.3,-1.14 -1.34,-2.27 -2.01,-1.61 -0.5,0.15 -3.830004,-5.53 -1.52,-1.16 0.23,-2.2 -3.59,-1.8 0,-0.71 0.86,0.25 0.49,-0.8 -4.21,-5.64 -0.88,-2.4 -0.43,-0.33 -1.13,0.79 -0.37,-0.97 -2.04,-0.35 -0.38,-1.01 -0.89,0.37 0,0 -0.81,0.22 -0.82,-2.18 1.74,-7 2.53,-6.49 -0.97,0.06 -0.77,-2.96 0.65,-2.86 0.76,-0.43 0.2,-0.88 -1.12,-2.44 -2,-1.34 0.35,-1.67 0.94,-0.46 0.88,0.45 0.96,0.98 1.13,0.01 0.45,-0.5 0.55,-0.79 1.4,-0.86 -0.09,-0.7 1.03,-0.87 -0.55,-0.97 1.08,-0.18 -0.19,-1.09 1.3,-0.5 3.02,1.13 2.43,-0.51 0.56,1.03 1.07,0.51 1.620004,-0.84 0.35,-0.74 0.99,-0.07 0.96,-2.98 -0.61,-3.42 1.22,-1.29 2.14,-1.08 0.48,-0.95 0.09,-2.25 1.11,-0.51 0.25,-1.53 -0.49,-0.95 -1.03,-0.37 0.73,-1.47 -0.06,-1.19 -2.63,-2.72 -1.45,-0.34 -0.76,0.7 -1.11,-0.24 -1.140004,1.93 0.19,0.63 -2.34,1.48 -0.43,1.14 -1.99,0.24 -1.22,0.99 -0.63,2.43 -0.81,0.23 -0.37,1.61 -1.74,-0.09 -0.54,-1.39 -0.05,-3.74 -0.91,-0.56 0.06,-1.26 -0.31,-1.54 -0.6,-1.19 -0.15,-1.16 1.33,-1.93 -0.44,-1.2 -1.12,-0.46 -0.44,-1.23 -2.18,-2.74 -0.56,-0.62 -0.72,-1.03 -0.26,-0.86 0.9,-1.13 -1.07,-1.45 0.05,-1.61 -1.65,-0.51 -0.68,0.26 -1.65,-0.76 0.28,-3.34 -0.87,-0.47 -0.87,-0.64 -1.87,-1.46 0.38,-0.55 -0.36,-0.96 0.99,0.38 -0.05,-1.15 0.81,-0.66 -0.25,-1.26 1.25,0.24 0.44,-0.83 0.4,-0.55 2.12,-0.66 -0.63,-0.99 -0.74,0.18 -1,-0.72 -0.59,0.37 -0.73,-0.69 0.73,-1.65 0.32,-0.94 0.71,0.05 0.52,-0.24 0.56,-1.18 -1.45,-0.21 -0.51,-0.7 -1.04,-0.81 -0.5,-1.05 0.39,-1.39 -0.11,-1 -0.5,-0.7 -0.52,-1 -0.85,0.29 -0.73,-0.37 0.39,-1.71 -1.63,0.06 0.49,-1.01 -1.47,-0.51 -1.38,-0.36 -0.45,-0.83 -3.03,0.82 -1.8,-1.48 -0.33,-1.33 -0.27,-0.88 -0.56,-0.43 -0.69,-0.32 -0.66,-0.23 0.3,-2.01 0.92,-0.04 -0.36,-0.73 -1.51,0.12 -0.14,-0.68 -0.53,-0.91 -0.69,-0.44 -0.41,-1.97 -1.2,0.39 0.11,-1.15 -0.88,-0.45 -0.73,-1.53 -2.1,-0.76 -0.76,-1.34 -1.77,-1 -0.62,-1.76 -1.05,-0.21 -0.34,-1.02 -0.03,-1.32 0.89,-1.34 -0.57,-0.22 0.03,-0.64 -1.46,-0.7 -0.57,0.31 -1.31,-2.04 -1.01,-0.69 0.69,-0.41 -0.05,-0.45 -1.3,-0.79 -2.91,-3.98 -1.41,0.11 -0.7,-1.39 -2.51,-0.75 -1.18,-3.12 -3.74,-2.91 -3.86,-3.86 -0.17,-0.86 -1.89,-2.28 -0.02,-1.38 0.76,-0.6 -1.18,-1.38 -0.78,0.16 z" 
                fill="rgb(151, 144, 238)" 
                stroke="white" 
                stroke-width=".7px"
                title="Tak" 
                id="TH-63" 
            />
        </svg>