<svg xmlns="http://www.w3.org/2000/svg" viewBox="128.63844000000012 862.5825500000001 50.380000000000024 63.81999999999971" width="50.380000000000024" height="63.81999999999971">
            <path 
                d="m 150.02844,923.23255 1.25,0.25 2.02,2.07 -3.4,-0.82 -0.75,-2.2 0.88,0.7 z m -11.41,-10.24 1.86,0.04 1.67,0.79 -2.56,0.82 -1.24,1.2 0.01,0.98 -0.73,0.32 -1.27,-1.24 0.47,-1.29 -0.22,-1.56 1.14,-1.03 0.87,0.97 z m -0.05,-46.54 1.55,0.15 -0.06,4.61 0.4,0.66 0.74,0.11 2.41,-2.04 0.61,1.62 0.56,-0.42 1.71,0.78 1.62,-0.46 -0.31,-1.02 0.8,-1.37 0.81,-0.18 0.79,-1.77 0.67,0.08 0.26,-0.75 0.83,-0.09 -0.3,-0.39 0.96,-1.05 -0.26,-0.41 0.9,-0.22 1.05,-1.48 1.75,-0.23 3.15,1.56 1.74,-0.49 1.54,1.23 0.33,1.28 -1.61,1.13 0.6,1 -0.44,1.01 0.54,0.43 -0.72,1.49 0.65,0.91 -0.44,1.1 0,0 -0.27,0.48 1.18,0.92 0.58,2.13 0.83,1.02 -0.26,1.32 1.11,0.64 -0.26,0.62 0.56,0.46 0.01,2.91 1.98,1.42 -0.29,2.03 -1.89,0.35 1.65,1.51 -0.72,2.53 2.48,2.54 -1.12,1.71 0.08,0.63 2.06,1.83 -0.14,1.42 0.56,0.26 0.3,1.34 2.68,3.54 -0.43,1.55 0.64,0.86 0.03,1.62 2.27,0.76 0.51,3.46 -0.89,1.68 1.01,2.48 0.76,0.48 0.06,1.87 2.55,3.78 0,0 -1.06,0.09 -0.15,0.67 -1.04,0.26 -0.77,0.12 -0.85,-0.67 -2.76,0.69 -0.79,1.06 -1.46,0.04 -0.33,0.76 -1.77,-0.73 -0.1,-1.07 -0.9,-0.08 -2.19,-2.05 -1.44,0.1 0,0 -1.74,-0.55 -0.79,0.23 -1.74,-0.21 -2.38,1.34 0.19,-0.8 -0.8,-3.35 -1.41,0.65 -2.07,1.94 -1.48,-0.73 -1.81,-4.1 -2.5,-2.79 -0.01,-0.55 0.75,-1.7 1.83,-0.42 1.72,-4.45 0.89,0.52 -1.06,-1.87 -0.97,1.15 -0.48,2.54 -2.2,1.56 -1.36,-0.72 0.25,-1.03 -0.63,-1.61 0.71,-5.69 -0.55,0.37 -0.27,2.29 -1.18,0.94 -0.18,1.48 0.67,2.57 -0.46,1.73 -1,0.6 -3.35,-1.01 -1.14,-0.55 -0.53,-0.08 -1.16,-1.95 -2.67,-2.8 0.72,-1.63 -0.26,-2.63 -1.18,-3.57 -1.12,-0.94 -0.6,0.03 -0.39,0.69 -0.81,-1.25 1.41,-0.19 0.4,-1.53 -1.1,-1.35 -1.11,-2.64 -0.09,-1.91 -0.96,0.83 -0.56,-0.85 -0.21,-0.7 0.69,-0.9 -0.13,-0.51 0,0 1.05,-1.28 0.74,-0.05 0.06,-0.55 0.73,0.01 0.85,-1.48 -0.23,-3.03 -1.15,-0.46 -0.06,-0.77 0.9,-1.09 0.14,-1.27 -1.03,-0.1 0.4,-1.01 -1.06,-1.94 2.58,-2.17 -0.9,-0.65 0.59,-1.27 1.39,-0.38 0.02,-0.65 1.54,-0.23 0.77,-0.98 0.58,0.23 0,0 0.57,0.11 0.29,-0.47 0,0 0.6,-0.54 z" 
                fill="rgb(151, 144, 238)" 
                stroke="white" 
                stroke-width=".7px"
                title="Trang" 
                id="TH-92" 
            />
        </svg>