<svg xmlns="http://www.w3.org/2000/svg" viewBox="330.8084400000002 539.5625499999998 44.81999999999965 81.86000000000024" width="44.81999999999965" height="81.86000000000024">
            <path 
                d="m 352.24844,610.07255 -0.15,1.81 1.06,-0.74 0.63,1.08 0.72,-0.28 0.52,0.72 -0.52,0.85 0.54,1.77 -0.79,1.58 -0.57,1.16 0.1,0.37 0.77,-0.13 -0.53,0.99 -0.08,2.17 -1.61,-1.01 -0.11,-1.19 -1.27,0.22 -0.47,-0.79 -1.02,-0.25 0.48,-0.92 0.82,-0.29 -0.04,-1.01 -1.4,-1.32 0.67,-0.68 -0.45,-1.99 0.9,-0.48 -0.41,-1.44 0.83,-0.98 0.09,-1.49 0.66,0.19 0.85,1.73 -0.22,0.35 z m -6.46,-7.34 2.71,0.61 -0.46,0.93 -1.11,-0.04 -0.08,1.58 -1.3,-1.52 -1.12,-0.09 -0.28,0.42 -0.22,-0.33 0.09,-0.61 1.41,-0.05 0.36,-0.9 z m -13.09,-21.07 3.17,0.46 1.1,1.26 0.84,0.27 0.9,2.02 1.1,1.07 0.22,1.33 0.8,0 -0.02,0.91 3.3,4.06 -0.69,0.74 -0.06,0.95 -3.6,-3.34 -0.83,0.47 0.52,0.8 -0.03,1.24 -1,0.15 -1.93,-0.93 -1.12,0.09 -0.41,0.48 -0.59,-0.88 -0.7,-0.36 0.43,-0.57 -0.69,-1.46 0.43,-1.92 -0.32,-1.08 -1.01,-0.93 -0.08,-2.09 -1.62,-2.32 1.27,0.22 0.04,-0.7 0.58,0.06 z m 6.35,-17.17 -0.18,-0.62 -2.83,-1.68 0.3,-1.24 -0.67,-0.45 1.15,-0.82 0.31,-1.17 -0.8,-1.56 -0.94,-0.51 0.01,-1.9 -0.75,-1.09 2.26,-1 0.55,-1.45 0.81,-0.38 1.09,-0.06 0.34,0.91 1.23,1.04 1.63,-0.08 -0.27,-0.7 -2.11,-1.68 0.91,-0.78 -0.72,-1.21 -0.39,-3.12 0.61,-0.08 0.48,-1.33 1.56,-0.86 0.07,-0.78 1.12,-0.96 2.24,0.1 1.28,-1.47 1.14,0.38 0,0 -0.63,0.93 0.26,1.75 -0.45,0.61 0.85,0.94 -0.31,0.55 0.35,0.9 1.45,1.09 3.22,0.08 2.52,2.6 1.86,0.27 -0.11,1.72 1.21,0.24 0.33,1.24 1.19,1.04 -0.49,0.65 1.01,0.49 0.18,0.77 0.66,0.13 0.51,0.8 1.08,-0.31 -0.59,1.68 1.27,0.23 -0.16,1.18 0.73,0.69 0.28,-0.31 0.96,0.35 0.44,1.31 0.77,0.66 0.06,1.79 -2.6,0.77 -1.39,1.69 0.01,4.2 -0.84,2.89 0.33,2.43 -0.99,3.62 2.15,4.39 2.39,2.51 0.68,5.64 1.28,2.74 1.05,1.1 0.25,2.79 0.95,2.5 1.29,2.01 0.62,0.16 0.28,1.21 1.24,0.55 -0.23,0.55 0.77,0.29 0.75,1.18 0.46,1.57 0.25,6.35 -0.31,0.27 -0.68,-2.54 0.37,-1.88 -0.97,-2.6 -1.65,-2.87 -6.35,-8.29 0.77,-2.15 -1.24,-2.44 0.32,-0.64 -0.33,-2.13 -2.52,-3 -6.81,-5.5 0.02,-0.67 1.09,0 0.22,-0.48 -0.82,-1.46 -2.87,-1.83 -1.52,0.95 -0.82,-0.76 0.02,0.59 0.58,0.46 -0.19,0.8 0.77,0.99 -1.31,0.32 0.37,1.35 -0.3,0.75 0.65,0.95 -0.47,1.52 0.93,0.53 0.7,1.22 0.34,0.78 -0.34,1.06 -2.47,-1.08 0.24,-1.7 -1.29,-2.05 -3.62,-1.74 -0.68,-0.78 0.32,-1.05 -4.98,-0.19 -2.04,-1.68 -0.92,0.07 -0.56,-0.47 -1.24,0.51 -0.17,0.8 -2.1,-0.5 -0.88,-0.78 -0.28,-1.66 0.66,-0.08 -0.02,-1.01 -1.7,-2.15 0.29,-0.46 -0.47,-0.87 0.46,-0.2 0.76,0.62 3.24,-1.21 0.37,-0.9 0.85,-0.31 0.3,-0.88 1.18,-0.88 -1.11,-1.49 1.56,-1.29 0.07,-0.55 z" 
                fill="rgb(151, 144, 238)" 
                stroke="white" 
                stroke-width=".7px"
                title="Trat" 
                id="TH-23" 
            />
        </svg>