<svg xmlns="http://www.w3.org/2000/svg" viewBox="474.0884400000002 308.5425500000001 85.22999999999979 131" width="85.22999999999979" height="131">
            <path 
                d="m 521.08844,308.84255 1.05,0.54 1.12,-0.39 1.26,1 0.96,-0.2 5.21,2.09 13.47,2.42 0.75,0.64 0.11,1.12 -2.11,-0.11 -1.01,0.47 -2.4,4.31 3.11,6.45 0.29,1.85 1.75,0.99 0.04,1.05 0.94,1.31 1.78,0.66 2.58,-1.44 2.28,1.25 1.55,-0.01 0.47,0.74 2.62,1.19 0.75,2.11 1.31,1.47 0.35,2.78 -0.7,4.41 -1.16,1.37 -1.07,2.68 0.63,2.38 -0.75,3.42 -1.83,1.73 -4.8,0.92 -1.75,2.57 0.34,0.91 2.2,1.42 4.64,-0.67 0.53,0.72 0.58,3.16 -0.52,0.55 -1.47,-0.1 -1.4,0.71 -1.54,2.27 -2.78,2.77 -0.44,1.55 0.6,0.63 -0.91,2.35 0.51,1.01 2.6,0.97 0.21,1.63 1.74,-0.23 0.82,0.37 -0.33,1.54 1.64,1.16 0.14,1.61 2.44,0.61 0.7,0.93 -1.66,1 -0.77,1.11 -1.02,-0.58 -1.07,0.24 -0.44,1.74 1.87,1.68 0.22,1.41 -2.78,0.89 0.25,0.82 0.69,0.28 0.21,1.07 -1.61,1.02 -0.55,-0.16 -0.65,1.71 0.57,1.63 -0.46,1.54 1.8,1.55 -1.31,0.3 0.29,1.46 -0.62,0.74 0.55,1.3 -0.48,1.23 0.87,1.19 -0.31,0.59 0.4,0.71 0.78,0.14 -0.91,1.63 0.7,0.96 -0.66,0.73 0.28,1.33 -0.56,1.08 -0.64,0.04 -0.97,1.72 -0.94,0.9 -3.91,5.88 -1.3,-1 -0.89,1.49 -0.64,0.78 -0.98,-0.24 -0.86,0.91 -1.22,0.14 -1.46,-0.88 -1.11,2.2 -0.77,-0.17 -1.04,1.03 -1.59,-0.66 -1.22,0.9 -0.54,1.14 -1.9,-1.05 -0.95,0.45 -0.69,-0.25 -0.58,1.19 0.64,0.94 -1.7,2.06 0.19,1.94 -0.53,1.01 -2.52,1.94 -1.79,0.31 -2.18,-0.36 -0.2,-0.8 -1.59,-0.98 -0.07,-1.66 -1.36,-2.75 -0.7,-1.19 0.65,-3.18 -1.96,-1.7 -0.97,0.08 -0.33,0.7 -1.84,-1.19 -1.19,-0.12 0,0 -0.12,-0.89 -1.82,-1.6 -2.08,0.77 -0.68,-0.16 -0.56,-0.94 1.96,-2.15 0.22,-1.71 -3.03,-3.76 0.79,-1.96 -0.12,-1.86 0.71,-0.73 -0.03,-1.3 0.82,-1.56 1.17,-0.34 1.58,0.72 -0.9,-1.31 -0.06,-1.95 -1.82,-1.28 -0.38,-1.21 -1.48,-1.19 -0.2,-1.9 0,0 -1.28,-2.03 0,0 0.49,-1.37 1.44,-0.54 -1.03,-1.82 -0.53,-2.27 -4.34,-2.17 -2.71,-0.56 -1.12,-1.14 0.37,-1.15 -0.47,-1.26 0.15,-1.23 -0.98,-1.97 0.28,-0.58 0.49,0.31 0.3,-0.46 -0.38,-0.41 0.88,-2.33 -1.08,-0.12 0.77,-1.04 -0.82,0.47 -0.37,-0.47 0.65,-0.6 -0.05,-1.03 1.64,-0.52 2.15,-2.43 -0.69,-0.34 -1.86,0.82 0.03,-0.85 1.35,-1.39 -0.36,-0.23 -0.7,0.62 0.13,-0.99 -1.49,-0.04 -0.11,-0.36 0.59,-0.11 -0.51,-0.69 0.99,-0.42 -1.19,-0.2 -0.92,-2.19 -0.51,-0.05 -0.42,0.82 0.69,0.33 0.17,0.68 -1.26,-0.58 -0.08,-1.08 -1.08,-0.45 -1.41,0.14 -0.1,-0.93 -1.08,0.33 -0.81,1.07 0,0 -3.46,0.06 -1.62,-1.05 0,0 -2.36,-0.07 -0.72,-0.62 -3.52,-0.88 0,0 0.75,-2.25 -0.26,-0.63 0.55,-0.94 -0.08,-1.25 -0.73,-1.64 -1.72,-0.46 -0.07,-0.57 0.68,-0.42 -0.46,-2.6 -0.84,-0.91 1.1,-2.27 -0.32,-1 1,-2.75 1.01,0.6 1.3,-0.36 3.11,0.29 0.26,-0.64 1.82,-1.18 0,0 2.5,1.45 0.52,-0.98 2.09,-0.73 -0.54,-2.51 2.45,-1.19 0,0 0.06,-0.63 0,0 -0.01,-0.7 1.55,-0.54 -0.54,-1.1 -1.33,-0.08 -0.58,-0.59 1.47,-1.11 4.14,1.25 0.6,0.79 1.34,-0.1 1.02,0.89 0.92,-0.72 0.26,1.1 2.11,0.99 0.24,0.64 0.43,-0.12 0.13,1.42 0.48,0.38 0.45,0.08 0.55,-0.87 0.83,1.45 0.54,0.08 -0.13,-0.41 0.48,-0.12 -0.02,0.75 0.59,-0.18 0.12,0.66 1,-0.38 1,1.17 -0.78,0.1 -0.04,0.84 0.61,0.14 -0.2,0.6 0.69,0.05 0.97,-1.79 -0.68,-0.71 1.54,-1.58 1.25,-0.45 -0.2,-0.81 0.5,-0.34 -0.16,-1.66 -2.22,-0.61 -0.31,-2.55 1.04,-2.7 0.16,-2.48 1.65,-0.65 0,0 1.74,-1.14 0,0 0.27,-4.98 0.74,-1.13 0,0 1.04,-2.42 0,0 -1.23,-0.39 0.45,-1.53 1.24,-0.56 0.86,-1.26 -0.26,-4.39 2.37,-4.49 1.34,-0.34 0,0 z" 
                fill="rgb(151, 144, 238)" 
                stroke="white" 
                stroke-width=".7px"
                title="Ubon Ratchathani" 
                id="TH-34" 
            />
        </svg>