<svg xmlns="http://www.w3.org/2000/svg" viewBox="315.23843999999997 169.24255 111.31000000000006 90.07000000000016" width="111.31000000000006" height="90.07000000000016">
            <path 
                d="m 317.91844,169.24255 0.86,0.61 0,0 1.42,1.43 0,0 1.17,-0.44 0.35,0.89 -0.59,1.18 0.22,0.5 2.41,-0.65 -0.21,1.95 0.99,1.29 1.24,-2.02 0.91,0.36 1.15,-0.66 0.08,0.94 2.28,0.53 1.59,1.19 0.86,0.27 0.86,-0.68 1.45,2.92 0.96,0.83 2.3,0.77 0,0.6 0.52,0.74 1.52,0.61 0.91,1.63 -0.34,0.74 0.47,0.55 -0.18,0.9 0.67,0.22 0.99,1.41 1.14,0.04 -0.87,1.85 0.92,0.73 -0.15,1.11 0.67,-0.25 0.21,0.73 0.99,0.55 4.11,-0.6 0.75,1.37 5,3.88 -1.28,1.03 0.49,1.51 -0.45,1.97 0.96,-0.19 2.44,0.75 0.18,1.54 1.25,-0.2 1.84,-1.75 1.34,1.09 1.16,0.08 0.63,-1.14 1.69,0.05 -0.42,-1.57 0.97,-0.38 -0.07,-0.98 0.74,-1.45 3.09,-0.79 0.24,-1.51 1.15,-0.92 -0.48,-1.04 0.78,-2.27 -1.06,-1.23 0.27,-0.84 -1.1,-0.48 0.88,0.11 -0.23,-0.75 1.04,-0.35 -0.45,-0.68 1.66,-0.72 0,0 -0.1,-0.41 0,0 0.5,-0.82 -0.32,-1.64 0.94,-0.74 0.92,0.74 2.07,-0.31 2.78,4.85 1.25,-1.5 0,0 0.37,-0.62 0,0 1.1,-0.8 0.17,-0.89 1.2,0.04 0.65,-0.58 0,0 -0.19,-0.68 0,0 1.4,1.14 1.31,-0.48 1.06,1.18 0.38,-0.23 0.08,0.95 0.5,0.14 -0.1,-0.46 0.5,-0.01 0.16,1.11 0.77,0.16 -0.28,0.88 0.78,0.34 -0.24,0.63 0.77,0.19 0.37,0.72 1.09,-0.27 0.21,-0.63 0,0 -0.06,-0.76 0,0 0.55,-1.89 0.81,-0.98 0.97,0.02 2.5,-1.58 1.17,0.99 0.95,1.89 2.2,1.5 0.61,-0.93 -0.68,-1.88 2.15,-1.17 0.94,0.54 1.43,-0.35 2.12,-1.61 0,0 0.88,0.3 0.3,1.3 -0.81,0.32 0.1,1.26 -0.84,0.3 0.27,0.63 0.45,-0.24 1.16,0.57 -0.67,0.49 -0.71,-0.58 -0.13,0.82 -0.21,-0.83 -0.98,0.12 0.51,0.89 -0.98,1.08 0.45,0.29 -0.52,0.45 0.12,0.7 -0.6,0.19 1.09,2.55 1.15,-0.27 0.55,1.5 -0.28,0.29 0.42,0.24 -0.63,0.81 0.37,0.79 -0.41,1.49 0.48,1.21 -0.63,1.17 0.25,1.28 -0.36,1.1 0.88,1.5 -2.27,0.23 -0.16,0.93 -0.95,-0.81 -0.66,0.27 -0.9,0.78 -0.05,1.09 0,0 -0.1,0.21 0,0 -0.45,0.59 -0.41,-0.27 -0.32,2.08 -2.07,1.82 0.23,2.08 -1.1,1.89 0.63,0.78 -0.11,0.95 1.38,1.81 0,0 -0.73,1.12 0,0 -1.24,1.76 -0.08,1.18 -1.08,0.47 -0.3,0.87 1.63,2.95 2.18,0.04 2.94,1.09 0.68,1.33 1.08,0.01 2.68,1.64 0.75,-0.55 1.59,0.55 1.23,-1.22 0.3,0.86 6.47,4.22 1.39,-1.01 0.6,0.25 1.42,1.42 1.11,2.51 1.18,-0.23 0.82,0.69 -0.82,2.06 0.65,1.48 -0.43,1.87 0.27,0.66 0,0 -1.05,-0.32 0.36,-1.63 -2.16,-3.2 -1.42,-0.29 0,0 -0.77,-0.16 0,0 -0.63,-0.17 -0.26,0.7 -1.75,0.22 -0.79,1.63 -1.13,0.47 -0.07,0.6 -0.75,0.42 0.71,0.72 0.08,2.49 -1.71,1.99 -0.51,2.04 0.47,0.93 -0.17,1.67 0,0 -0.45,-0.01 -0.38,1.16 0,0 -1.28,1.31 0,0 -0.54,0.87 0,0 -0.6,0.62 0.42,0.97 -1.9,2.17 -0.72,-0.47 0.87,-0.97 -0.9,-1.93 -0.63,-0.22 0.77,-0.83 -1.85,-2.7 -0.9,0.04 -2,-1.45 -3.67,-0.12 -2.39,-2.5 -1.53,0.21 -0.6,-0.66 -1.43,1.33 -1.1,0.07 -0.48,-0.55 -0.38,0.37 0,0 -0.44,0.17 0,0 -3.09,-1 -0.38,1.47 -0.78,0.49 -0.06,1.46 0,0 -1.12,0.99 -0.57,-0.2 -1.43,1.1 -0.93,-0.03 -2.07,1.45 -0.63,-0.28 -0.37,0.79 -0.81,0.3 0,0 -0.8,0.48 0,0 -3.54,0.89 -2.32,-2.78 -1.56,-0.61 -2.44,1.39 -0.88,-1.99 -0.1,-1.59 0.73,-1.61 -1.06,-1.21 1.41,-1.23 -1.57,-0.97 -0.96,-1.99 -1.58,-0.74 -0.95,-1.08 -1.83,-0.51 -1.23,-2.87 -0.37,1.27 -1.42,1.82 0.11,2.09 -0.74,1.55 0,0 -6.45,-3.49 -1.92,-1.61 -1.56,-2.25 -1.38,-3.99 -1.89,-3.23 3.26,-0.59 3.49,-1.45 1.44,-2.52 -5.81,-1.52 -4.6,0.46 -0.1,-4.09 -2.93,-5.96 -1.79,-5.39 -2.39,-3.56 -1.02,-8.92 -2.61,0.42 -1.11,0.87 -1,-0.38 -2.18,0.39 -2.1,-0.51 -1.97,0.18 -0.86,0.42 -1.23,1.76 -1.34,-0.93 -1.31,0.78 0,0 -1.78,-1.53 -1.46,0.66 -0.44,-0.66 0.56,-0.38 -0.85,-1.15 -0.65,-4.75 0.86,-2.68 1.06,-0.27 -0.61,-1.17 0.74,-0.92 0.32,-2.03 -0.03,-1.54 -0.86,-1.07 -0.84,-6.39 -0.48,-0.5 0.57,-0.61 1.07,0.14 -0.24,-2.35 1.16,-1.2 z" 
                fill="rgb(151, 144, 238)" 
                stroke="white" 
                stroke-width=".7px"
                title="Udon Thani" 
                id="TH-41" 
            />
        </svg>