<svg xmlns="http://www.w3.org/2000/svg" viewBox="110.74844 329.66255 75.58999999999999 59.34000000000003" width="75.58999999999999" height="59.34000000000003">
            <path 
                d="m 120.98844,329.66255 1.68,0.14 0.46,0.99 1.32,-0.4 1.1,1.16 0.88,0.04 1.36,1.34 0.77,1.74 1.92,0.36 1.31,1.61 2.34,0.13 1.62,0.76 1.09,1.19 -0.27,0.74 0.79,1.94 2.87,0.75 2.18,2.22 0.95,-0.25 0.28,1.52 1.55,-0.4 1.27,0.48 3.38,-2.03 2.15,-2.59 2.21,-0.79 2.16,-2.07 3.07,-1.17 1.01,0.26 0.98,-0.37 4.06,3.14 4.49,1.75 0.28,-2.6 4.39,-1.36 0.78,3.52 -0.32,1.93 0.56,6.73 0.78,-0.45 2.72,1.65 0.83,-0.62 -0.21,-0.88 1.13,-0.22 0.55,2.38 1.12,0.9 1.23,0.25 -0.82,2.21 1.51,-0.09 1.66,0.6 0,0 -0.85,0.36 -0.17,0.68 1.2,1.92 -1.62,-0.36 -0.45,0.7 1.56,1.35 0.15,0.95 -1.42,1.26 -0.05,1.57 -1.43,1.49 -0.17,-0.9 -0.91,-0.54 -1.12,0.35 -1.3,-0.74 -2.68,0.14 -0.52,-0.41 -4.96,1.24 -0.55,-1.1 -1.67,-0.56 -4.24,-0.48 -4.5,2.79 0.01,1.39 0.71,0.86 -0.65,0.68 0.07,0.88 2.46,3.34 -0.79,0.75 3.92,4.84 -2.24,2.69 0.75,0.92 -0.39,1.16 -3.28,1.65 -0.37,1.47 -0.54,0.24 0,0 -0.26,-0.3 -1.5,0.45 -2.02,-0.94 -1.73,-0.09 -0.49,0.79 0.41,0.58 -0.15,2.13 -3.1,-0.54 -5.29,-2.66 -3.75,-0.4 -0.44,0.52 -1.1,-1.35 -0.76,-2.36 0.15,-0.81 -3.62,0.01 -2.08,-2.3 -0.99,0.08 0.06,0.67 -1.27,1.09 -0.39,1.14 0.76,0.96 -0.39,0.75 -1.13,0.53 -0.01,0.85 0,0 -1.92,0.46 -1.57,-1.7 -1.96,-0.12 -0.86,-0.88 -0.59,0.61 -1.4,0.14 -1.76,-1.54 0.77,-0.63 -0.31,-0.32 -1.55,-0.21 -0.32,0.65 -2.51,0.46 -0.59,-0.59 -1.3,0.28 -1.99,-0.79 -1.25,-1.26 0.61,-1.02 -0.81,-1.3 0.56,-2.7 -0.38,-1.28 -1.15,-1.25 0,0 1.26,-0.19 0.42,-1.62 -0.18,-2.16 0.87,-0.46 -0.2,-1.28 1.52,-1.79 -0.51,-0.92 0,-2.31 0.82,-0.62 0.15,-2.09 0.93,-1.37 0.66,-0.04 -0.05,-1.59 -0.84,-1.74 1.57,-3.73 -0.33,-0.93 -1.19,-0.91 -0.53,-2.25 0.2,-0.51 2.89,-1.3 0.21,-2.05 1.08,-1.21 0.24,-1.16 -0.38,-1.52 1.83,-4.64 -0.74,-2.24 z" 
                fill="rgb(151, 144, 238)" 
                stroke="white" 
                stroke-width=".7px"
                title="Uthai Thani" 
                id="TH-61" 
            />
        </svg>