<svg xmlns="http://www.w3.org/2000/svg" viewBox="172.34843999999995 148.3925499999999 87.27000000000001 85.5500000000001" width="87.27000000000001" height="85.5500000000001">
            <path 
                d="m 253.27844,148.40255 2.13,0.92 1.31,1.4 2.26,0.57 -0.13,0.88 -2.07,2.08 0.68,1.55 -1.01,1.03 1.03,1.05 0.39,1.97 1,-0.08 0.75,0.61 -2.05,6.13 0.77,3.26 0.8,0.83 -1.55,2.45 -0.7,-0.44 -1.94,2.6 -0.49,2.01 0.18,1.38 -0.95,0.38 -0.99,1.48 -2.77,0.83 -1.92,1.54 -0.14,0.95 0.97,1.59 -0.08,1.5 -2.14,1.03 -0.4,1.06 0.93,1.37 -1.95,1.65 0.74,1.29 0,0 -0.79,1.96 -1.48,1.07 -2.03,0.29 -1.05,-0.38 -0.3,-0.95 -2.02,0.27 -1.49,2.21 -0.56,1.75 -2.84,1.16 -1.76,2.67 -0.13,1.18 -1.97,1.91 -0.43,1.07 -2.41,0.81 -2.22,2.01 -1.83,0.52 0.17,1.39 -1.17,0.01 -0.94,0.58 -1.08,2.98 -4.55,0.42 -1.1,0.91 -0.89,-1.72 -1.14,0.74 -3.85,-0.24 -0.37,0.63 -2.07,0.58 -1.57,1.09 -2.57,0.14 -0.33,1.25 -1.38,-0.73 -1.69,0.5 -2.7,1.93 -0.1,1.95 1.04,5.09 -4.36,3.59 -0.86,0.18 -1.18,-1.49 -3.5,0.88 -2.26,1.3 -2.39,0.05 -0.45,1.11 -1.65,-0.77 -0.38,-0.78 -0.66,0.81 -0.74,0.1 0,0 -0.42,-1.76 0.59,-1.16 -1.57,-1.09 1.19,-1.01 -1.4,0.25 0.66,-0.71 0.09,-2.05 0.47,-0.57 1.58,-0.22 1.16,-2.46 -0.93,-1.86 0.48,-0.36 -0.52,-0.69 0.62,-0.96 -1.34,-1.41 0.98,-1.17 -0.5,-1.62 0.46,-1.11 -1.01,-0.77 -0.46,-1.29 -3.71,-2.38 1.04,-1.59 -1.06,-1.65 -0.16,-1.33 3.44,-2.5 -0.61,-0.75 0.77,-1.8 -0.87,-3.74 -2.98,-2.69 -0.48,-1.05 0.89,-0.71 -0.24,-0.81 -1.49,-0.8 -0.23,-0.68 0,0 0.95,0.22 1.75,1.47 1.39,0.21 0.39,-1.31 1.13,-0.1 0.88,-0.86 -0.41,-1.56 0.68,0.37 3.26,-1.3 0.82,0.98 4.11,-1.75 0.69,0.11 1.02,-0.66 1.1,-1.63 3.66,-2.2 0.75,-2 1.41,-0.9 1.18,0.62 1.06,-0.32 0.5,1.45 1.33,0.31 0.42,1.64 0.87,1.24 0.67,0.07 1.58,-2.51 -0.63,-4.01 2.84,-2.69 1.48,-0.03 0,0 0.58,0.61 1.42,-0.86 1.82,0.37 0.26,-0.34 3.45,0.13 1.09,0.47 0.46,-1.19 1.58,-0.12 0.35,-0.63 0.77,0.24 1.4,-0.66 3.05,0.78 0.9,-0.24 1.63,1.24 2.21,-0.54 3.01,0.49 2.11,-2.04 0.68,-1.68 2.62,-0.31 0.48,-1.47 1.21,-1.06 -0.24,-1.14 0.79,-1.13 0.45,0.25 1.59,-0.81 -0.49,-1.27 0.14,-1.24 1.16,-1.18 -0.87,-1.15 0.45,-1.14 2.2,-1.59 2.14,-2.99 1.03,0.33 0.43,-0.99 2.08,-1.16 1.47,-1.55 1.16,-0.06 0.8,-1.64 0,0 z" 
                fill="rgb(151, 144, 238)" 
                stroke="white" 
                stroke-width=".7px"
                title="Uttaradit" 
                id="TH-53" 
            />
        </svg>