<svg xmlns="http://www.w3.org/2000/svg" viewBox="235.50844 952.41255 52.139999999999986 71.85005000000001" width="52.139999999999986" height="71.85005000000001">
            <path 
                d="m 253.87844,956.06255 1.72,1.32 5.49,0.9 1.7,-2.62 2.42,-1.55 0.95,-1.7 0.49,0.41 -0.62,0.27 1.03,3.46 -0.73,0.43 0.05,0.92 0.82,2.26 0.93,-0.04 1.41,0.96 0.27,-0.52 3.11,-0.42 2.44,-1.81 1.61,1.24 0.52,-0.79 0,0 0.01,-0.62 0,0 1.22,0.23 0.44,-0.49 1.44,-0.22 0.97,0.77 -0.06,1.11 1.2,1.4 2.01,0.43 1.86,-1.06 0,0 1.07,1.55 -2.25,2.89 -2.85,2.15 1.15,0.83 -0.03,0.68 -1.35,0.07 -2.95,-1.29 -1.49,-0.15 0.37,2.71 -0.84,-0.43 -2.2,0.68 -0.21,1.16 -0.62,0.53 0.51,0.42 -0.15,1.23 -1.31,0.91 -0.67,1.48 0.81,1.27 -0.42,1.17 0.62,2.02 -0.49,1.71 0.53,0.39 -0.5,1.03 -1.66,1.09 1.14,2.82 1.54,0.57 0.3,0.98 0.74,0.06 0.58,0.87 0.4,1.24 -0.23,0.95 0.61,0.98 1.35,0.12 0.57,0.96 -0.07,1.8 0.56,1.79 -0.64,1.62 0.76,0.73 0.14,1.44005 0.73,0.53 -0.46,0.74 -0.02,2.41 0.57,0.06 0.13,0.54 0,0 -1.99,1.25 -5.19,-0.01 -1.68,2.61 -3.59,1.85 -1.85,-0.92 -0.9,0.56 -0.75,0.79 -0.95,2.67 0.67,1.99 -0.18,1.17 -2.23,1.82 -1.23,1.74 -2.13,0.79 -2.68,2.31 -0.15,-1.4 -1.25,-2.75 -3.32,-4.27 -0.48,-0.41 -1.83,-0.03 -0.96,-1.71 -1.76,-1.22 -0.25,-1.03 1.98,-1.94 -0.63,-1.02 0.22,-1.56 1.33,-1.87 -0.24,-0.76 0.72,-0.35 1.06,0.52 0.8,-0.6 1.47,0.56 1.08,-2.76 1.71,-1.78005 -1.39,-1.4 0.46,-2.43 -0.71,-1.33 1.98,-3.18 -2.86,-2.15 -2.09,-0.59 1.83,-2.41 1.48,-0.06 1.25,-1.05 -1.42,-2.88 0.44,-0.74 -1.19,-0.83 -5.04,0.5 -2.8,-2.42 -2.54,2.68 -2.36,0.31 -1.74,-1.13 -1.26,1.48 -1.7,-3.21 0.51,-1.29 0,0 0.41,1.22 1.04,-0.57 3.04,-0.44 0.58,-1 0.72,-0.15 -0.62,-2.24 0.4,-0.09 0.09,-0.94 -0.67,-1.89 0.71,-2.64 0.43,-0.58 0.99,0.19 0.26,-0.59 0.56,-0.01 1.11,-2.36 1.56,0.28 1.58,-1.13 0.97,-1.3 0.23,-1.55 1.9,-0.26 0.99,-1.68 1.85,-1.14 -1.58,-1.77 z" 
                fill="rgb(151, 144, 238)" 
                stroke="white" 
                stroke-width=".7px"
                title="Yala" 
                id="TH-95" 
            />
        </svg>