<svg xmlns="http://www.w3.org/2000/svg" viewBox="448.7884399999998 290.95255000000003 55.760000000000275 73.75999999999999" width="55.760000000000275" height="73.75999999999999">
            <path 
                d="m 472.63844,292.66255 1.2,-1.18 1.8,-0.53 7.14,0.52 0.64,1.76 1.61,-0.09 1.11,0.46 0.75,2.33 0.9,1.03 0.11,1.17 0.55,0.58 0.95,-0.11 0.16,0.96 0.79,0.69 0.98,0.38 1.03,-0.3 1,-0.71 0.55,-1.28 0.35,0.88 1.3,0.37 0.13,0.78 0.72,0.49 2.88,0.24 1.45,0.6 0,0 1.57,2.72 0.98,-0.37 1.26,0.44 -0.51,3.99 -0.87,0.22 -1.28,-1.06 -1.48,0.83 -3.04,-0.38 0,0 -0.92,-0.35 0,0 -2.69,-0.95 -2.7,-0.06 -1.49,1.27 -2.74,0.48 -2.08,4.2 -0.99,0.85 0.99,1.95 -0.33,-0.18 -0.54,1.16 -0.91,0.11 -0.06,2.2 -2.33,2.25 -0.1,1.08 -0.89,0.1 0.18,1.81 -0.59,0.53 0.84,1.67 -1.71,2.11 0.33,0.49 -0.97,2.38 0.56,1.32 -1.02,0.4 0.83,0.64 -0.76,2.82 1.46,-0.14 -0.32,0.89 0.47,0.19 0.14,0.89 -0.62,0.3 0.66,0.79 -0.55,0.48 0.64,0.9 -0.55,1.22 1.67,-0.66 -0.18,1.31 0.36,0.54 -0.54,0.56 1.53,0.57 0.51,-0.65 0.17,0.55 0.86,-0.01 0.38,1.63 0,0 -1.82,1.18 -0.26,0.64 -3.11,-0.29 -1.3,0.36 -1.01,-0.6 -1,2.75 0.32,1 -1.1,2.27 0.84,0.91 0.46,2.6 -0.68,0.42 0.07,0.57 1.72,0.46 0.73,1.64 0.08,1.25 -0.55,0.94 0.26,0.63 -0.75,2.25 0,0 -1.48,-0.3 -0.55,-1.8 -1.34,-1.67 -3.37,0.12 -2.8,-2.04 -1.2,-0.19 -0.97,-2.85 -3.34,-4.38 -3.08,-2.06 0.12,-1.93 -1.03,-1.9 0,0 -0.01,-1 2.56,-1.73 3.29,-0.44 0.21,-0.53 -1.8,0.48 -0.24,-0.84 0.59,-0.69 -1.45,-0.21 0.6,-0.37 -0.43,-1.41 0.87,0.19 0.15,-0.61 -0.79,0.1 0.04,-0.51 -1.6,-1.33 -0.68,-1.09 0.35,-0.46 -1.31,1.19 -0.67,-0.48 0.84,-0.16 -0.14,-1.28 0.9,-0.33 -0.63,-0.93 0.59,-0.78 -0.58,-0.08 -0.38,-1.02 0.76,-1.07 -0.37,-1.11 -1.41,-0.42 -2.5,-2.29 -0.29,0.85 0.55,0.11 -0.14,0.47 -2.79,1.55 -2.35,-0.01 -0.18,-1.21 1.07,-0.2 -0.4,-0.97 0.69,0 -0.35,-0.93 0.56,0.36 -0.12,-0.62 0.58,-0.24 0.09,-0.57 -0.62,-0.47 1.16,-0.09 -0.85,-0.14 0.54,-0.35 -1.14,-0.77 0.39,-0.37 -0.41,-0.12 0.3,-0.92 -0.34,-0.32 0.62,-0.08 0.85,-1.98 -0.62,-1.41 -0.77,0.81 -0.27,-0.67 1.15,-1.75 2.23,-0.29 2.07,0.76 0.73,-0.49 0.27,-0.67 -0.42,-0.77 0.65,-0.88 0.2,-1.58 -0.78,-0.7 -0.44,-1.68 0.92,-2.27 0.64,-0.56 1.41,0.29 2.34,-2.59 1,0.06 1.05,-1.12 0.76,0.41 0.78,-0.64 1.44,-2.54 0.13,-1.15 1.82,-0.48 1.4,-0.99 -0.05,-0.91 2.34,-1.4 z" 
                fill="rgb(151, 144, 238)" 
                stroke="white" 
                stroke-width=".7px"
                title="Yasothon" 
                id="TH-35" 
            />
        </svg>