<svg xmlns="http://www.w3.org/2000/svg" viewBox="147.20948 344.88794000000007 75.79999999999998 56.07999999999993" width="75.79999999999998" height="56.07999999999993">
            <path 
                d="m 196.61948,400.64794 -0.94,0.32 -1.5,-0.02 -0.78,-0.25 -3.26,-1.55 -0.81,-0.51 -1.59,-2.84 -0.33,-0.95 0.06,-0.99 0.68,-1.86 -0.13,-0.95 -0.36,-0.55 -2.65,-2.16 -2.37,-1.02 -1.62,-0.48 -0.6,-0.37 -1.49,-1.91 -1.73,-1.84 -1.9,-1.48 -0.38,-0.68 -0.03,-2.48 -1.42,-3.21 -1.91,-5.71 -0.49,-0.94 -1.6,-1.88 -0.35,-0.14 -0.24,0.05 -0.35,0.52 -0.3,3.76 -0.31,0.65 -0.49,0.38 -0.76,0.31 -0.88,0.04 -1.82,-0.32 -2.07,-0.18 -0.8,-0.23 -0.79,-0.38 -0.52,-0.44 -0.45,-0.66 -0.26,-0.72 0.18,-0.52 1.47,-0.71 0.65,-0.82 0.2,-0.61 -0.03,-0.57 -0.65,-0.99 -1.91,-1.21 -1.24,-0.51 -0.38,0.02 -1.22,0.55 -0.98,0.19 -0.99,-0.1 -0.55,-0.25 -0.23,-0.2 -0.32,-0.63 -0.34,-2.45 -0.42,-0.75 -1.12,-0.83 -3.99,-1.92 0,0 7.45,-7.37 7.34,-3.01 8.69,-0.22 0.24,-0.38 0,0 5.23,3.59 0.51,0.24 1.1,0.19 1.68,-0.13 3.49,-1.36 0.88,-0.02 1.49,0.22 2.86,-0.49 0.63,-0.22 1.87,-1.28 1.91,-0.57 1.18,0.16 1.37,0.47 1.66,0.04 0.85,-0.2 2.95,-1.27 0.7,-0.17 0.41,0.02 2.27,0.68 3.03,0.26 1.56,0.36 1.38,-0.03 1.73,-0.48 0.74,0.07 2.18,0.67 0.76,0.37 0.77,0.57 6.89,6.98 0,0 -3.74,11.77 -3.64,12.49 -0.35,8.99 -0.12,8.34 -11.39,-0.17 -2.72,0.96 z" 
                fill="rgb(151, 144, 238)" 
                stroke="white" 
                stroke-width=".7px"
                title="Bethlehem" 
                id="PS-BTH" 
            />
        </svg>