<svg xmlns="http://www.w3.org/2000/svg" viewBox="113.17948000000007 356.66794 83.43999999999994 68.24999999999994" width="83.43999999999994" height="68.24999999999994">
            <path 
                d="m 127.87948,372.88794 1.57,-2.62 5.26,-5.68 2.86,-2.5 8.08,-3.88 1.56,-1.54 0,0 3.99,1.92 1.12,0.83 0.42,0.75 0.34,2.45 0.32,0.63 0.23,0.2 0.55,0.25 0.99,0.1 0.98,-0.19 1.22,-0.55 0.38,-0.02 1.24,0.51 1.91,1.21 0.65,0.99 0.03,0.57 -0.2,0.61 -0.65,0.82 -1.47,0.71 -0.18,0.52 0.26,0.72 0.45,0.66 0.52,0.44 0.79,0.38 0.8,0.23 2.07,0.18 1.82,0.32 0.88,-0.04 0.76,-0.31 0.49,-0.38 0.31,-0.65 0.3,-3.76 0.35,-0.52 0.24,-0.05 0.35,0.14 1.6,1.88 0.49,0.94 1.91,5.71 1.42,3.21 0.03,2.48 0.38,0.68 1.9,1.48 1.73,1.84 1.49,1.91 0.6,0.37 1.62,0.48 2.37,1.02 2.65,2.16 0.36,0.55 0.13,0.95 -0.68,1.86 -0.06,0.99 0.33,0.95 1.59,2.84 0.81,0.51 3.26,1.55 0.78,0.25 1.5,0.02 0.94,-0.32 0,0 -1.66,1.47 -5.73,4.18 -5.58,2.48 -4.29,4.83 -5.03,5.15 -2.53,1.52 -4.14,0.78 -3.23,0.28 -3.73,0.64 -2.39,-0.55 -3.64,1.89 -9.94,-0.64 -7.05,-0.59 -7.22,1.8 -7.83,1.03 -4.28,-1.15 -2.77,-2.29 -1.93,-3.13 -0.47,-4 3.35,-6.73 3.82,-4.93 3.45,-6.55 0.64,-3.5 -0.75,-8.2 1.52,-7.57 z" 
                fill="rgb(151, 144, 238)" 
                stroke="white" 
                stroke-width=".7px"
                title="Hebron" 
                id="PS-HBN" 
            />
        </svg>