<svg xmlns="http://www.w3.org/2000/svg" viewBox="7.009479999999643 0.29794250000068345 287.3499999999998 791.9999974999993" width="287.3499999999998" height="791.9999974999993">
            <path 
                d="m 291.19948,68.187942 -0.32,0.86 0.39,1.11 1.95,2.21 0.19,0.89 -0.24,0.5 -0.92,0.54 -1.94,0.23 -3.44,-0.91 -0.73,0.59 -0.41,1.07 0.87,3.58 -0.5,6.44 0.9,2.92 1.48,13.609998 3,4.16 0.59,1.43 0.02,1.12 -0.79,2.18 -0.66,1.14 -3.12,5.45 -2.52,5.56 -2.8,3 -4.23,7.59 -5.38,6.25 -0.16,-0.68 -1.09,-0.62 -3.76,1.55 -1.79,0.21 -0.86,0.73 -0.66,1.53 -0.71,2.77 -3.93,0.53 -2.48,2.51 -2.74,1.94 -1.72,0.52 -1.23,0.8 -4.27,0.3 -2.06,1.33 -4.86,2.12 -1.12,1.28 0.32,2.87 -1.95,0.77 0.08,1.25 -0.42,0.49 -1.52,0.42 -2.49,1.89 -0.23,2.09 0.54,0.63 -0.25,3.03 0.4,0.94 1.28,0.7 0.34,1.27 -0.82,1.9 -0.12,1.92 1.77,3.67 -0.17,0.43 -1.73,-0.03 -0.3,1.92 -0.79,-0.02 -1,-0.66 -0.37,0.2 0.11,1.21 1.16,1.88 -0.38,0.65 -1.74,0.37 -0.92,1.3 0.81,0.61 1.11,-0.03 1.1,2.51 1.29,0.52 0.33,0.55 -0.21,1.04 -2.13,3.83 -0.15,1.03 0.27,0.92 1.42,0.69 0.35,0.69 -0.43,0.99 -0.84,0.03 -0.59,0.53 0.43,2.69 -2.03,0.63 0.5,4.59 -0.3,0.76 -1.29,0.38 -0.17,0.33 1.64,2.78 -1.4,-0.13 -4,-1.15 -5.08,-2.37 -2.17,-0.66 -3.92,-0.17 -2.58,0.75 -2.18,-0.35 -1.14,-1.01 0.05,-1.03 -1.23,-1.58 -1,-2.94 0.21,-4.06 -0.54,-4.36 -2.8,-4.74 -2.79,-2.08 -1.46,-0.36 -3.32,-0.05 -8.43,1.55 -2.01,-0.01 -1.37,-0.36 -2.71,-1.34 -2.65,-1.94 -3.07,-3.19 -2.39,-1.3 -1.67,0.26 -0.91,0.46 -0.96,1.09 -2.21,2.5 -0.6,1.24 -2.06,2 -3.4,2.47 -4.29,2.19 -6.93,2.62 -1.31,0.99 -1.6,3 -0.76,2.83 -0.8,5.21 -1.5,4.16 -0.35,2.53 -0.36,2.62 -1.21,1.17 -4.48,2.01 -1.15,1.45 -1.83,3.44 -0.19,5.47 0.81,5.81 -0.57,1.51 -1.46,1.04 -2.37,3.43 -3.12,7.05 -0.29,2.37 0.08,2.35 2.35,3.52 0.93,1.95 1.31,5.78 0.21,2.6 -0.55,2.12 -1.4,2.65 -0.19,1.62 0.54,1.34 1.8,1.92 1.98,3.77 0.57,2.33 -0.4,2.98 -1.39,3.01 0.04,1.36 0.33,1.09 -0.76,0.62 0.76,2 -2.36,5.05 0.42,4.58 2.64,3.56 3.94,3.14 0.83,3.24 -1.53,4.72 -8.6,1.54 -0.16,0.23 -1.97,2.91 1.44,5.41 3.33,1.43 4.76,0.69 4.39,-1.58 3.24,-3.52 3.28,-1.94 3.79,3.51 3.47,1.66 7.44,3 8,-0.04 3.14,3.28 -0.52,7.3 -1.8,2.81 -0.24,0.37 -8.69,0.23 -7.35,3 -9.01,8.91 -8.08,3.88 -2.86,2.5 -5.26,5.68 -1.57,2.62 -2.67,3.98 -1.52,7.56 0.75,8.2 -0.64,3.5 -3.45,6.55 -3.82,4.93 -3.35,6.73 0.47,4 1.94,3.13 2.76,2.29 4.28,1.14 7.82,-1.03 7.23,-1.8 7.04,0.59 9.94,0.64 3.64,-1.89 2.39,0.55 3.73,-0.64 3.22,-0.27 4.15,-0.78 2.53,-1.52 5.03,-5.15 4.29,-4.83 5.58,-2.48 5.72,-4.18 6.1,-5.38 2.72,-0.96 11.39,0.16 -0.02,3.49 -0.07,10.28 -0.61,4.05 -2.83,8.09 -6.52,11.72 -1.99,4.04 -1.85,3.26 -0.88,4.04 1.97,4.28 7.69,10.35 1.37,2.94 0.86,4.18 0.17,3.12 -1.16,5.14 -1.07,3.67 -6.59,10.17 -0.7,4.08 0.4,3.26 1.41,3.9 -0.01,4.13 -2.99,2.74 -6.48,4.25 -4.61,10.16 -0.05,3.62 0.86,3.3 -0.88,4.03 -3.3,1.19 -2.57,3.11 -1.52,4.16 -0.01,8.14 -2.44,5.67 -4.23,7.72 -0.92,4.43 -2.56,2.37 -5.08,9.82 -0.41,3.29 -3.9,18.07 -1.19,3.56 -2.38,3.42 -0.69,2.69 5.97,11.21 0.91,3.1 -0.55,2.37 -3.83,4.24 -1.1,3.42 0.59,3.96 -3.29,7.29 5.4,23.89 -13.34,19.14 -3.59,14.26 0.54,15.48 -5.08,10.16 -0.77,3.72 0.5,2.95 -0.5,3.99 -2.94,12.24 0,6.66 0.45,4.17 0.05,3.85 -2.26,2.76 -3.08,2.27 -2.62,3.04 -1.85,3.71 -1.67,4.72 -0.34,-0.11 -0.72,0.05 -0.43,-0.44 -0.38,0 -0.14,0.55 -0.19,0.06 -0.1,0.55 -0.24,0.27 -0.05,0.27 -0.43,0 -0.1,0.27 -0.43,0.16 -0.19,0.38 -0.14,0.82 -0.43,0.71 -0.38,0 0,0.16 -0.53,0.6 -0.62,0.38 -0.14,0.55 -0.67,0.66 0,0.82 -0.43,0.27 -0.62,0.88 -0.34,0.27 0,0.49 -0.77,0.88 -0.66,0.32 -4.35,-5.04 -2.27,-4.29 -0.82,-3.3 -0.69,-5.74 1.62,-5.39 0.81,-5.39 -0.78,-3.71 -3.09,-5.38 0.12,-9.51 -17.63,-49.49 0.36,-3 -5.59,-15.43 -14.84,-41.99 -3.51,-13.2 -12.03,-7.87 -0.44,-6.11 3.56,-10.05 -7.48,-8.77 0.5,-10.87 -4.99,-20.76 -15.18,-31.89 -9.84,-28.82 -14.22,-47.2 7.76,-5.82 7.67,-6.63 1.9,-3.49 -0.04,-5.41 -0.43,-5.79 1.51,-5.04 5.75,-7.39 17.29,-16.76 5.02,-1.19 1.53,-2.72 -0.02,-3.87 -2.35,-3.47 -7.5,-6.99 4.17,-6.77 0.72,-0.45 0.33,-0.5 -0.05,-0.11 -0.29,-0.06 0.05,-0.5 -0.14,-0.06 0,-0.17 0.58,-0.67 0,0.22 -0.43,0.5 0.48,0.11 0.1,0.17 0.14,-0.06 2.63,-4.37 0.34,-1.18 0.62,-0.45 0.96,-1.23 0.38,-0.78 -0.05,-0.28 0.53,-0.67 0.29,-0.73 0.24,-0.17 0.1,0.22 0.19,0 2.92,-5.21 0.53,-0.73 1.34,-2.69 0.77,-0.95 0.38,-1.12 1.92,-3.31 1.72,-3.7 0.86,-1.46 0.86,-2.07 0.29,-0.5 0.14,-0.06 -0.05,-0.17 0.48,-0.9 0.48,-1.35 0.62,-1.12 0.72,-1.68 -0.53,-0.56 -0.29,-0.95 0.05,-0.79 0.48,-1.18 0.14,0 0,0.39 -0.19,0.11 -0.29,0.67 0,0.95 0.62,1.07 0.38,0 0.1,-0.28 -0.48,-0.28 0,-0.17 0.19,-0.11 -0.05,-0.56 0.14,-0.17 0.05,-0.45 0,-0.17 -0.19,-0.11 0,-0.22 0.43,0 0.19,0.22 1.1,0 0.1,-0.28 0.38,-0.39 0.1,-0.22 -0.24,-0.11 -0.05,-0.28 0.05,-1.46 0.14,-0.11 0.05,0.22 0.14,0 0,-0.11 0.38,-0.22 1.42,-3.6 1.11,-2.38 1.58,-3.96 0.19,-0.84 0.53,-1.12 0,-0.22 0.19,-0.22 0.24,-1.23 0.29,-0.56 0.05,-0.67 0.19,-0.06 0.05,-0.22 0.14,-0.06 0,-0.39 0.1,-0.17 0.14,0 0,-0.28 0.1,0 0.38,-0.67 0.24,-0.11 0.05,-0.34 1.44,-2.13 1.24,-3.03 1.2,-3.15 2.11,-7.28 0.38,-1.49 0.38,-0.9 0.14,-1.29 0.38,-0.51 -0.24,-0.17 0.33,-1.12 0.29,-0.45 0,-0.34 0.19,-0.45 0.24,-0.28 0.14,-1.24 0.58,-0.45 0,-0.51 -0.19,-0.17 0.53,-0.51 0.33,0 0.43,-0.34 0.53,-0.84 0.34,-1.07 0.24,-0.34 0.05,-0.51 -0.1,-0.11 0.29,-0.11 -0.19,-0.28 0.14,-0.17 -0.1,-0.06 0.1,-0.39 0.72,-1.69 0.05,-0.51 0.2,-0.11 0.13,-0.34 -0.24,-0.68 0,-0.56 0.38,-0.28 0.19,0.06 0.29,-0.9 0.43,-0.84 -0.24,-0.45 0.05,-0.34 0.14,0 0.1,0.28 0.19,0 0.53,-1.63 0.33,-1.69 0.43,-0.56 0.14,-0.39 -0.05,-0.23 0.14,-0.11 0.48,-1.86 0,-0.84 0.57,-1.46 -0.1,-0.62 0.53,-0.28 -0.05,-0.45 -0.34,-0.23 0.1,-1.29 0.19,-0.17 0.29,0.11 0.1,-0.17 0.67,-2.25 0.48,-2.53 0.34,-0.58 0.29,-0.78 0,-0.28 -0.14,-0.17 0.05,-0.28 0.53,-1.24 0.24,-0.23 -0.05,-0.45 0.43,-0.79 0.05,-0.68 0.53,-0.79 0.1,-0.79 0.24,-0.56 -0.1,-0.56 0.38,-0.39 0,-0.9 0.34,-1.46 0.29,-0.45 0.48,-1.3 -0.05,-0.68 0.19,-0.28 0.24,-0.79 -0.05,-0.17 0.53,-1.41 0.04,-0.85 -0.14,0 0,-0.17 0.34,-0.56 0.1,-1.3 0.53,-1.01 0.1,-0.56 0.43,-0.96 -0.05,-0.68 0.19,0.11 0.14,-0.06 -0.1,-0.96 0.19,-1.02 0.19,-0.17 -0.05,-0.39 0.72,-3.21 0,-0.23 -0.24,-0.17 -0.05,-0.28 0.62,-0.34 0.05,-0.17 0.33,-1.92 0.19,-0.51 0,-0.68 0.29,-0.56 0.81,-3.72 0,-0.68 0.24,-1.24 -0.29,0 0,-0.11 0.53,-0.51 0.14,-0.34 0.1,-0.79 -0.1,-0.68 0.29,-1.13 -0.33,-0.23 0.24,-0.51 0.19,-0.11 0.38,-1.02 0.14,-0.06 0.14,-0.84 -0.1,-0.17 0.19,-0.45 0.34,-0.17 0.14,-0.45 0,-0.11 -0.48,0 0.29,-0.4 0,-0.28 0.24,-0.45 0.38,-0.17 -0.05,-0.17 0.1,-0.06 0.72,-3.5 0.1,-1.64 0.53,-1.58 0.29,-1.52 -0.38,-1.02 -2.11,0 0,-0.28 1.87,-0.06 0.14,-0.11 0.1,-0.45 0.19,0.17 0.05,0.4 0.57,0 0.05,-0.11 -0.33,0 -0.14,-0.17 0,-0.23 0.19,-0.06 0.1,-0.39 0,-0.23 -0.19,-0.06 0,-0.17 0.19,-0.06 0.05,0.17 0.14,0 0.24,-0.17 -0.1,-0.17 0.05,-0.62 0.53,-0.9 -0.1,-0.28 -0.29,0.11 -0.05,-0.79 0.19,-0.11 0,-0.45 0.19,-0.34 -0.1,-0.23 0.34,-0.4 0,-0.4 -0.19,-0.17 0.1,-0.68 0.38,-0.28 0.05,-0.79 0.48,-0.62 -0.48,-0.06 -0.05,-0.28 0.24,0 0.29,-0.62 0.38,-1.69 0.19,-0.28 0.05,-0.73 0.24,-0.45 -0.05,-0.74 -0.29,-0.06 -0.14,-0.17 0,-0.56 0.24,-0.74 0.38,-0.4 0.34,0.06 0.29,-0.56 -0.05,-0.23 -0.33,-0.06 0,-0.34 -0.24,-0.17 0.57,-1.07 -0.14,-0.28 0.05,-0.45 0.29,-0.34 0.38,-1.41 0.19,0.11 0.1,-0.23 -0.1,-0.4 0.38,-0.74 -0.1,-0.45 -0.34,-0.34 0,-0.34 0.34,-0.34 0.14,-0.79 -0.19,-0.11 0,-0.28 0.29,-0.85 0.29,-0.4 -0.14,-0.23 0.14,-0.4 -0.05,-0.96 0.19,-0.4 0,-0.51 -0.14,-0.11 0.19,-0.57 0.19,-1.81 0.24,-0.06 0.24,-0.57 0.1,-1.64 0.29,-1.25 0.33,-0.57 -0.29,-0.17 0.24,-1.25 -0.05,-0.91 0.43,-0.4 0.05,-0.23 0.05,-1.81 0.29,-1.87 -0.05,-1.7 0.19,-0.4 0,-0.17 -0.19,-0.17 0,-0.28 0.1,-0.11 -0.05,-0.4 0.29,-0.23 -0.05,-0.34 -0.24,-0.17 0,-0.45 0.29,-0.85 0,-0.45 0.53,-0.62 0,-0.28 0.38,-0.4 0.67,0.06 0.48,-0.62 0.34,-0.74 0.19,-0.85 -0.14,-0.51 0.33,-0.4 0.19,-2.1 0.38,-0.91 0.34,-3.97 0.19,-0.74 0,-1.76 0.1,-0.79 0.19,-0.45 0.24,-2.89 -0.19,-0.91 0.24,0 0.05,-0.11 0.14,-1.36 -0.05,-0.68 -0.24,-0.45 0.14,0 0.1,-0.17 0.14,0.17 0.14,-0.06 0,-0.17 -0.14,-0.06 0.14,-0.45 -0.19,-0.17 -0.14,-0.51 0,-1.81 0.24,-0.28 -0.19,-0.34 0.29,-0.34 0.43,0.11 1.05,-1.02 0.53,-0.11 0.62,0.06 0.86,-0.45 0.19,-0.34 0.14,-0.11 0.14,0.06 0.14,-0.23 0.43,0 0.62,0.28 0.43,0.79 0.43,0 0.24,0.23 0.86,0.34 0.53,0.06 0,0.17 0.24,0.28 1.29,0.06 1.25,-0.34 0,0.17 -0.58,0.23 -0.1,-0.11 -0.38,0.28 -0.19,0 -1.2,-0.11 -0.72,-0.23 -0.86,-0.62 -0.38,0.11 0.24,0.06 0.1,0.23 0.19,0.06 -0.05,0.23 1.01,0.51 0.14,0.28 0.19,0.06 0.29,0.34 0.1,0.4 0.19,-0.11 0,-0.57 0.19,0 0.09,0.51 0.24,0 0.1,-0.34 -0.24,-0.23 0,-0.23 0.05,-0.11 0.29,0.06 0.38,0.57 0.14,1.08 0.33,0.11 0.19,0.45 0.62,0 0.24,-0.17 0.53,-0.06 -0.14,-0.4 0.19,-0.06 0.77,0.51 0.14,0.91 0.96,-0.28 0.05,-0.17 -0.14,-0.23 -0.48,-0.06 -0.1,-0.57 -0.38,0.06 -0.29,-0.17 0.77,-0.23 1.53,-1.02 0.33,-0.06 0.19,-0.4 0.29,-0.06 0,-0.23 0.33,-0.17 0,-0.28 0.24,-0.23 0.29,-0.62 0.67,-0.62 1.01,-1.48 1.72,-4.03 0.29,-0.11 -0.1,-0.4 0.43,-1.42 0.19,-0.11 -0.05,-0.23 0.38,-1.08 0.24,-0.17 -0.1,-0.23 0.48,-1.65 -0.05,-0.23 0.43,-2.21 0.05,-2.5 -0.48,-0.98 -0.33,-0.5 -0.38,-0.28 -0.57,-0.06 -0.19,0.17 0,0.45 -0.34,-0.11 -0.43,0.06 0,-0.45 0.77,-2.04 0.1,-1.48 0.67,-2.779998 0.05,-1.65 0.14,-0.34 -0.05,-0.68 0.1,-0.06 0,-0.57 0.19,-0.68 -0.05,-0.28 0.43,-1.08 0,-0.51 0.29,-0.11 0,-1.53 0.19,-0.17 0.14,-0.85 0.67,-1.25 -0.05,-0.8 -0.14,-0.28 0.14,-0.11 0,-0.74 0.24,-0.45 -0.05,-0.57 0.29,-0.63 -0.05,-0.17 0.24,-0.11 -0.1,-0.57 0.33,-0.68 0.14,-0.85 0.24,-0.45 0.1,-0.85 0.48,-0.85 -0.19,-0.11 0,-0.35 0.48,-0.4 -0.1,-0.11 0.14,-0.46 -0.1,-0.28 0.33,-0.51 -0.1,-0.57 0.14,0 -0.05,-0.63 0.24,-0.17 0.05,-1.31 0.19,-0.4 0.1,-1.88 0.19,-0.34 0,-0.63 -0.14,-0.17 0,-1.94 7.69,-0.11 5.43,-0.46 6.1,1.06 0.6,-0.26 0.99,-1.07 1.99,-0.65 6.38,-0.21 6.64,-0.93 3.42,0.8 2.9,5.52 1.62,1.86 2.6,1.54 1,0.29 4.38,-1.96 4.73,-0.37 1.24,-0.66 2.94,-2.84 0.85,-1.16 1.42,-1.04 0.75,-0.08 3.04,0.73 2.92,-1.1 0.4,-0.49 0.23,-2.59 0.39,-0.86 3.28,-1.39 0.86,-2.05 0.35,-4.48 1.08,-4.98 1.1,-1.92 0.85,-2.29 -0.14,-2.49 -0.62,-2.8 0.08,-1.6 1.47,-3.35 1,-0.84 1.61,-2.13 1.65,-3.64 0.41,-0.44 1.21,0.99 4.08,5.82 0.67,0.21 0.64,-0.61 0.65,-1.62 0.81,-1.06 5,-2.35 5.28,-3.16 1.77,-1.71 2.56,-4.09 1.44,-1.3 1.07,-0.42 4.32,0.36 2.62,-0.45 3.46,-1.44 3.21,-2.61 1.01,-1.38 0.53,-1.62 0.81,-5.2299995 1.47,-2.36 2.62,-1.9 9.56,-5.23 0.89,0.69 0.24,1.48 -0.62,2.61 -1.81,2.98 -3.42,3.9099995 -1.47,3.82 -0.53,3.72 0.83,8.33 -0.26,1.4 -1.98,3.39 1.28,1.53 2.55,2.17 1.11,1.56 0.58,0.99 1.15,4.17 0.22,2.41 -0.34,1.63 -0.65,1.67 -1.54,1.67 -0.55,1.1 0.33,2.22 1.43,0.52 2.36,0.25 1.31,0.61 3.63,5.26 -0.41,5.37 -2.75,2.43 z" 
                fill="rgb(151, 144, 238)" 
                stroke="white" 
                stroke-width=".7px"
                title="Israel" 
                id="IL" 
            />
        </svg>