<svg xmlns="http://www.w3.org/2000/svg" viewBox="147.42947999999987 180.8079399999999 62.310000000000116 51.48000000000005" width="62.310000000000116" height="51.48000000000005">
            <path 
                d="m 209.73948,209.61794 -0.74,0.45 -1.32,2.27 -0.65,0.38 -1.43,0.47 -0.71,0.8 -1.52,0.88 -1.09,1.74 -0.38,0.26 -0.61,0.1 -0.41,-0.08 -1.32,-0.77 -0.65,-0.09 -0.83,0.42 -1.05,1.13 -0.69,0.45 -2.29,0.32 -0.58,0.23 -0.24,0.27 -0.21,0.57 -0.14,1.88 -0.84,2.27 0.07,1.11 0.31,1.63 -0.05,1.3 -0.38,0.92 -1.12,1.76 -0.76,2 0,0 -2.71,-1.59 -1.34,-1.12 -1.92,-2 -0.34,-0.19 -0.47,0.09 -0.83,1.44 -0.61,0.61 -0.77,0.34 -1.06,0.11 -2.16,-0.08 -2.29,-0.65 -1.84,0.09 -1.6,-0.89 -0.9,-0.18 -1.89,0.04 -2.21,0.6 -1.24,0.13 -0.93,-0.28 -0.42,-0.28 -0.32,-0.39 -0.18,-0.58 0,0 0.35,-2.68 -0.16,-0.99 -0.22,-0.38 -1.65,-0.72 -1.77,-1.03 -1.69,-0.63 -1.66,-1.88 -0.6,-0.24 -1.58,-0.29 -0.34,-0.36 -0.04,-0.26 0.46,-1.76 0,-1.66 0.38,-1.28 -0.16,-2.23 0.09,-1.65 1.01,-2.42 0,-0.44 -0.24,-0.56 -0.33,-0.34 -0.59,-0.23 -0.94,-0.08 -1.44,0.09 -1.2,0.41 -1.81,1.23 -0.98,0.38 -0.59,-0.11 -0.75,-0.81 -0.2,-0.57 0.07,-0.47 0.24,-0.41 0.39,-0.29 1.86,-0.64 0.86,-0.65 0.51,-1.01 0.11,-1.08 -0.14,-1.08 -0.23,-0.53 -0.75,-0.85 -0.99,-0.42 -1.11,-0.12 -0.5,0.07 0,0 1.02,-1.93 1.31,-0.99 6.93,-2.62 4.3,-2.19 3.39,-2.47 2.07,-2 0.6,-1.24 3.16,-3.58 0.92,-0.46 1.67,-0.25 2.38,1.3 3.08,3.19 2.64,1.94 2.71,1.34 1.37,0.36 2.01,0.01 8.43,-1.55 3.31,0.06 1.46,0.36 2.79,2.08 2.8,4.74 0.54,4.36 -0.21,4.06 1,2.94 1.22,1.58 -0.05,1.03 z" 
                fill="rgb(151, 144, 238)" 
                stroke="white" 
                stroke-width=".7px"
                title="Jenin" 
                id="PS-JEN" 
            />
        </svg>