<svg xmlns="http://www.w3.org/2000/svg" viewBox="197.68948000000006 244.7379399999999 34.26000000000002 104.2400000000001" width="34.26000000000002" height="104.2400000000001">
            <path 
                d="m 224.27948,277.11794 -0.49,0.98 0.37,8.72 1.9,2.18 0.28,1.38 -1.61,2.34 2.88,6.34 -1.09,7.22 -3.11,2.99 1.68,8.52 3,1.9 -1.68,3.33 1.79,2.87 -1.35,3.83 2.12,11.79 -4.17,7.47 0,0 -6.64,-6.04 -0.93,-1.49 -0.38,-2.73 -2.38,-1.5 -0.65,-0.19 -1.7,-0.07 -2.54,0.32 -1.27,0.36 -2.45,1.07 -1.2,0.16 -1.17,-0.33 -2.89,-1.72 -0.58,-0.75 -0.11,-0.49 0.33,-0.87 0.65,-0.81 0.07,-0.6 -0.43,-0.95 -0.6,-0.66 -1.32,-0.39 -0.48,-0.49 -0.23,-0.98 -0.21,-4.25 0,0 3.2,0.64 2.29,0.16 0.84,-0.77 0.33,-0.79 0.16,-1 0.02,-1.05 -0.71,-2.89 0.4,-3.5 0.31,-0.79 1.26,-1.89 0.28,-0.8 -0.02,-0.51 -0.06,-0.49 -1.44,-2.66 -0.2,-0.7 -0.06,-0.51 0.26,-2.55 -0.14,-1 -0.65,-1.33 -0.16,-0.61 0.14,-0.49 1.31,-1.09 1.18,-2.45 0.25,-0.8 0.02,-0.91 -0.14,-0.42 -0.31,-0.3 -2.23,-0.8 -2.77,-2.52 -0.18,-0.56 0.04,-0.37 0.34,-0.31 0.44,-0.09 1.81,0.07 1.17,-0.47 0.2,-0.42 0.04,-0.51 -0.36,-0.68 -0.57,-0.65 -0.39,-0.25 0,0 0.09,-0.01 -0.39,-0.64 -0.53,-1.63 -0.16,-0.78 0.08,-2.47 -0.08,-1.19 -0.26,-0.88 -1.05,-2.22 -0.05,-0.69 0.29,-1.15 0.7,-1.35 0.65,-0.52 1.28,-0.34 1.96,-0.13 2.4,-0.59 1,-0.52 0.3,-0.81 -0.11,-0.84 -1.15,-1.97 -0.33,-1.15 0.65,-3.44 -0.04,-1.05 -0.37,-1.58 -0.1,-1.23 0.21,-1.37 0.73,-2.26 -0.07,-1.35 -0.31,-0.69 -0.33,-0.36 -0.6,-0.21 -0.9,0.01 -1.32,0.42 -0.47,0.01 -0.22,-0.11 -0.21,-0.32 -0.01,-0.6 0.5,-0.87 1.56,-1.35 1.22,-1.63 2.46,-5.92 0,0 3.42,1.78 1.11,0.93 2.09,3.3 1.28,3.97 0.73,1.02 0.56,0.35 0.5,0.05 0.55,-0.26 2.19,-1.98 1.03,-0.69 0.44,-0.14 4.36,-0.1 3.08,-0.25 0,0 -1.49,2.95 -1.11,5.05 -0.49,5.4 -0.66,2.26 -2.43,3.29 -0.56,3.59 z" 
                fill="rgb(151, 144, 238)" 
                stroke="white" 
                stroke-width=".7px"
                title="Jericho" 
                id="PS-JRH" 
            />
        </svg>