<svg xmlns="http://www.w3.org/2000/svg" viewBox="146.46948 315.55793999999986 78.32999999999998 38.800000000000125" width="78.32999999999998" height="38.800000000000125">
            <path 
                d="m 224.79948,348.97794 -0.2,0.36 -1.59,5.02 0,0 -6.89,-6.98 -0.77,-0.57 -0.76,-0.37 -2.18,-0.67 -0.74,-0.07 -1.73,0.48 -1.38,0.03 -1.56,-0.36 -3.03,-0.26 -2.27,-0.68 -0.41,-0.02 -0.7,0.17 -2.95,1.27 -0.85,0.2 -1.66,-0.04 -1.37,-0.47 -1.18,-0.16 -1.91,0.57 -1.87,1.28 -0.63,0.22 -2.86,0.49 -1.49,-0.22 -0.88,0.02 -3.49,1.36 -1.68,0.13 -1.1,-0.19 -0.51,-0.24 -5.23,-3.59 0,0 1.8,-2.81 0.51,-7.3 -3.14,-3.28 -7.99,0.04 -7.45,-3 -3.46,-1.66 -3.8,-3.51 -0.93,0.55 0,0 0.71,-0.77 1.89,-1.67 0.35,-0.94 0.29,-2.15 0.48,-0.79 0.46,-0.26 0.73,0.02 2.24,0.98 0.76,0.21 1.91,0.08 4.45,-0.1 1.65,0.81 3.11,0.08 0.59,-0.15 0.3,-0.29 0.1,-0.6 -0.05,-1.4 0.58,-1.1 1.14,-0.84 1.17,-0.28 2.2,0.74 1.47,-0.42 3.11,0.21 0.89,0.39 0.93,1.07 0.55,0.23 0.3,-0.11 0.92,-1.16 0.8,-0.35 0.88,0.01 1.57,0.51 1.82,0.36 0.44,0.27 0.56,0.57 1.37,1.83 1.36,0.43 1.6,0.19 0.55,0.26 0.26,0.36 0.7,1.73 0.99,1.01 0.92,1.95 0.55,0.24 0.44,0.02 1.93,-0.52 0.48,-0.03 0.77,0.23 0,0 0.21,4.25 0.23,0.98 0.48,0.49 1.32,0.39 0.6,0.66 0.43,0.95 -0.07,0.6 -0.65,0.81 -0.33,0.87 0.11,0.49 0.58,0.75 2.89,1.72 1.17,0.33 1.2,-0.16 2.45,-1.07 1.27,-0.36 2.54,-0.32 1.7,0.07 0.65,0.19 2.38,1.5 0.38,2.73 0.93,1.49 z" 
                fill="rgb(151, 144, 238)" 
                stroke="white" 
                stroke-width=".7px"
                title="Jerusalem" 
                id="PS-JEM" 
            />
        </svg>