<svg xmlns="http://www.w3.org/2000/svg" viewBox="159.15947999999997 225.41794 51.45000000000002 64.70999999999998" width="51.45000000000002" height="64.70999999999998">
            <path 
                d="m 167.09948,281.13794 2.86,-3.55 1.6,-1.49 3.93,-2.11 2.57,-0.38 0.69,-0.28 0.41,-0.33 0.49,-0.75 0.26,-0.84 0.04,-1.6 -0.12,-0.5 -0.63,-1.04 -1.19,-0.92 -0.93,-0.36 -1.83,-0.32 -1.62,-0.69 -0.9,-0.14 -0.92,0.07 -0.43,0.14 -1.32,0.79 -0.71,0.18 -1.36,-0.11 -1.4,-0.57 -0.66,-0.56 -0.64,-0.86 -0.54,-1.14 -1.05,-2.95 -0.37,-0.57 -0.67,-0.55 0,0 0.35,-1.3 1.32,-2.27 0.83,-2.32 0.71,-4.02 0.1,-1.31 -0.15,-1.98 -1.12,-2.91 -0.72,-0.89 -1.13,-0.86 0,0 -0.76,-1.91 -1.17,-1.2 -0.22,-0.86 0.1,-0.96 0.34,-0.59 1.44,-0.78 0.35,-0.61 0.15,-1.02 -0.13,-1.62 -0.49,-1.02 -0.38,-0.38 -2.16,-1.32 -0.46,-0.6 -0.3,-1.56 0.05,-2 1.83,0.68 1.24,0.77 1.8,0.64 0,0 0.18,0.58 0.32,0.39 0.42,0.28 0.93,0.28 1.24,-0.13 2.21,-0.6 1.89,-0.04 0.9,0.18 1.6,0.89 1.84,-0.09 2.29,0.65 2.16,0.08 1.06,-0.11 0.77,-0.34 0.61,-0.61 0.83,-1.44 0.47,-0.09 0.34,0.19 1.92,2 1.34,1.12 2.71,1.59 0,0 0.81,1.02 1.45,1.37 2.1,1.04 0.62,0.42 0.63,0.8 0.78,1.46 0.63,0.47 1.16,0.04 2.07,-0.77 2.32,-0.43 2.17,-1.01 1.67,0.04 1.13,0.33 0.57,0.61 0.52,1.08 0.73,2.02 0.65,2.57 0.49,1.39 0,0 -2.46,5.92 -1.22,1.63 -1.56,1.35 -0.5,0.87 0.01,0.6 0.21,0.32 0.22,0.11 0.47,-0.01 1.32,-0.42 0.9,-0.01 0.6,0.21 0.33,0.36 0.31,0.69 0.07,1.35 -0.73,2.26 -0.21,1.37 0.1,1.23 0.37,1.58 0.04,1.05 -0.65,3.44 0.33,1.15 1.15,1.97 0.11,0.84 -0.3,0.81 -1,0.52 -2.4,0.59 -1.96,0.13 -1.28,0.34 -0.65,0.52 -0.7,1.35 -0.29,1.15 0.05,0.69 1.05,2.22 0.26,0.88 0.08,1.19 -0.08,2.47 0.16,0.78 0.53,1.63 0.39,0.64 -0.09,0.01 0,0 -1.03,0.01 -1.96,-0.46 -0.9,0.14 -1.84,1.74 -0.43,0.18 -0.47,-0.07 -1.07,-0.87 -0.96,-1.35 -0.23,-0.57 -0.35,-2.09 -0.32,-0.69 -0.24,-0.25 -1.26,-0.7 -5.16,-1.81 -1.05,-0.05 -1.52,0.43 -0.74,-0.05 -0.71,-0.39 -1.11,-0.89 -0.55,-0.17 -1.7,0.15 -1.69,-0.06 -2.15,0.13 -0.61,-0.28 -1.19,-1.14 -0.56,-0.16 -3.61,1.65 -1.14,0.2 z" 
                fill="rgb(151, 144, 238)" 
                stroke="white" 
                stroke-width=".7px"
                title="Nablus" 
                id="PS-NBS" 
            />
        </svg>