<svg xmlns="http://www.w3.org/2000/svg" viewBox="127.53947999999993 238.06794000000005 38.42999999999999 35.41" width="38.42999999999999" height="35.41">
            <path 
                d="m 162.65948,259.70794 -3.08,0.37 -1.02,-0.03 -1.28,-0.21 -1.89,-0.46 -2.74,-1.25 -1.87,-0.51 -1.81,-0.76 -0.39,-0.09 -0.52,0.07 -0.49,0.37 -0.18,0.3 -0.54,2.44 -0.24,0.56 -2.16,3.75 -0.49,1.39 -0.46,0.61 -2.48,1.93 -0.97,0.57 -0.74,0.27 -2.61,0.45 -3.4,1.45 -0.87,0.76 -1.11,1.33 -0.95,0.46 0,0 0.1,-0.81 1.4,-2.65 0.55,-2.12 -0.21,-2.6 -1.31,-5.78 -0.93,-1.95 -2.35,-3.52 -0.08,-2.35 0.3,-2.37 3.11,-7.05 2.37,-3.43 1.1,-0.78 0,0 4.59,6.04 1.4,2.13 0.76,0.65 1.19,1.72 3.69,2.46 1.6,0.08 0.7,-0.24 1.04,-1.4 2.23,-0.73 0.35,-0.82 0.14,-0.82 1.46,-1.48 0.98,-1.31 0.9,-0.82 1.74,-0.24 2.86,-0.9 2.8,-0.54 0,0 1.13,0.86 0.72,0.89 1.12,2.91 0.15,1.98 -0.1,1.31 -0.71,4.02 -0.83,2.32 -1.32,2.27 z" 
                fill="rgb(151, 144, 238)" 
                stroke="white" 
                stroke-width=".7px"
                title="Qalqilya" 
                id="PS-QQA" 
            />
        </svg>