<svg xmlns="http://www.w3.org/2000/svg" viewBox="126.95948000000004 277.50794 79.54000000000013 53.690000000000055" width="79.54000000000013" height="53.690000000000055">
            <path 
                d="m 197.68948,325.57794 -0.77,-0.23 -0.48,0.03 -1.93,0.52 -0.44,-0.02 -0.55,-0.24 -0.92,-1.95 -0.99,-1.01 -0.7,-1.73 -0.26,-0.36 -0.55,-0.26 -1.6,-0.19 -1.36,-0.43 -1.37,-1.83 -0.56,-0.57 -0.44,-0.27 -1.82,-0.36 -1.57,-0.51 -0.88,-0.01 -0.8,0.35 -0.92,1.16 -0.3,0.11 -0.55,-0.23 -0.93,-1.07 -0.89,-0.39 -3.11,-0.21 -1.47,0.42 -2.2,-0.74 -1.17,0.28 -1.14,0.84 -0.58,1.1 0.05,1.4 -0.1,0.6 -0.3,0.29 -0.59,0.15 -3.11,-0.08 -1.65,-0.81 -4.45,0.1 -1.91,-0.08 -0.76,-0.21 -2.24,-0.98 -0.73,-0.02 -0.46,0.26 -0.48,0.79 -0.29,2.15 -0.35,0.94 -1.89,1.67 -0.71,0.77 0,0 -2.35,1.39 -3.24,3.52 -4.39,1.57 -4.76,-0.68 -3.33,-1.43 -1.44,-5.41 2.12,-3.14 8.61,-1.54 1.52,-4.72 -0.83,-3.24 -3.94,-3.14 -2.64,-3.56 -0.42,-4.58 2.36,-5.04 -0.75,-2 0.76,-0.62 -0.33,-1.09 -0.04,-1.36 1.38,-3.01 0.4,-2.99 -0.57,-2.33 -1.74,-3.32 0,0 2.03,-0.01 0.82,0.14 0.5,0.35 0.94,1.32 1.3,0.61 2.55,0.22 2.75,0.75 1.66,0.28 0.86,0.03 1.25,-0.22 1.13,-0.69 1.45,-0.59 2.22,-0.34 0.33,-0.18 0.92,-1.29 0.57,-0.45 0.77,-0.35 1.18,-0.07 1.62,0.59 1.79,0.98 0.48,0.02 1.91,-0.44 1.22,0.15 0.94,0.44 1.73,1.21 1.33,0.68 0,0 1.94,-0.04 1.14,-0.2 3.61,-1.65 0.56,0.16 1.19,1.14 0.61,0.28 2.15,-0.13 1.69,0.06 1.7,-0.15 0.55,0.17 1.11,0.89 0.71,0.39 0.74,0.05 1.52,-0.43 1.05,0.05 5.16,1.81 1.26,0.7 0.24,0.25 0.32,0.69 0.35,2.09 0.23,0.57 0.96,1.35 1.07,0.87 0.47,0.07 0.43,-0.18 1.84,-1.74 0.9,-0.14 1.96,0.46 1.03,-0.01 0,0 0.39,0.25 0.57,0.65 0.36,0.68 -0.04,0.51 -0.2,0.42 -1.17,0.47 -1.81,-0.07 -0.44,0.09 -0.34,0.31 -0.04,0.37 0.18,0.56 2.77,2.52 2.23,0.8 0.31,0.3 0.14,0.42 -0.02,0.91 -0.25,0.8 -1.18,2.45 -1.31,1.09 -0.14,0.49 0.16,0.61 0.65,1.33 0.14,1 -0.26,2.55 0.06,0.51 0.2,0.7 1.44,2.66 0.06,0.49 0.02,0.51 -0.28,0.8 -1.26,1.89 -0.31,0.79 -0.4,3.5 0.71,2.89 -0.02,1.05 -0.16,1 -0.33,0.79 -0.84,0.77 -2.29,-0.16 z" 
                fill="rgb(151, 144, 238)" 
                stroke="white" 
                stroke-width=".7px"
                title="Ramallah" 
                id="PS-RBH" 
            />
        </svg>