<svg xmlns="http://www.w3.org/2000/svg" viewBox="130.26948 256.7679400000001 49.68000000000009 24.91999999999996" width="49.68000000000009" height="24.91999999999996">
            <path 
                d="m 167.09948,281.13794 -1.33,-0.68 -1.73,-1.21 -0.94,-0.44 -1.22,-0.15 -1.91,0.44 -0.48,-0.02 -1.79,-0.98 -1.62,-0.59 -1.18,0.07 -0.77,0.35 -0.57,0.45 -0.92,1.29 -0.33,0.18 -2.22,0.34 -1.45,0.59 -1.13,0.69 -1.25,0.22 -0.86,-0.03 -1.66,-0.28 -2.75,-0.75 -2.55,-0.22 -1.3,-0.61 -0.94,-1.32 -0.5,-0.35 -0.82,-0.14 -2.03,0.01 0,0 -0.24,-0.45 -1.8,-1.92 -0.54,-1.35 0.1,-0.8 0,0 0.95,-0.46 1.11,-1.33 0.87,-0.76 3.4,-1.45 2.61,-0.45 0.74,-0.27 0.97,-0.57 2.48,-1.93 0.46,-0.61 0.49,-1.39 2.16,-3.75 0.24,-0.56 0.54,-2.44 0.18,-0.3 0.49,-0.37 0.52,-0.07 0.39,0.09 1.81,0.76 1.87,0.51 2.74,1.25 1.89,0.46 1.28,0.21 1.02,0.03 3.08,-0.37 0,0 0.67,0.55 0.37,0.57 1.05,2.95 0.54,1.14 0.64,0.86 0.66,0.56 1.4,0.57 1.36,0.11 0.71,-0.18 1.32,-0.79 0.43,-0.14 0.92,-0.07 0.9,0.14 1.62,0.69 1.83,0.32 0.93,0.36 1.19,0.92 0.63,1.04 0.12,0.5 -0.04,1.6 -0.26,0.84 -0.49,0.75 -0.41,0.33 -0.69,0.28 -2.57,0.38 -3.93,2.11 -1.6,1.49 z" 
                fill="rgb(151, 144, 238)" 
                stroke="white" 
                stroke-width=".7px"
                title="Salfit" 
                id="PS-SLT" 
            />
        </svg>