<svg xmlns="http://www.w3.org/2000/svg" viewBox="190.10948 209.21793999999997 42.25999999999996 46.91999999999999" width="42.25999999999996" height="46.91999999999999">
            <path 
                d="m 229.65948,213.56794 -0.33,3.65 1.27,1.58 0.42,1.19 -0.49,3.04 -0.55,1.42 -0.12,1.63 1.34,3.63 -0.84,2.35 -0.04,1.45 1.18,2.93 -0.62,4.48 0.67,2.91 0.17,3.24 0.47,1.61 0.18,2.32 -0.42,1.72 0,0 -3.08,0.25 -4.36,0.1 -0.44,0.14 -1.03,0.69 -2.19,1.98 -0.55,0.26 -0.5,-0.05 -0.56,-0.35 -0.73,-1.02 -1.28,-3.97 -2.09,-3.3 -1.11,-0.93 -3.42,-1.78 0,0 -0.49,-1.39 -0.65,-2.57 -0.73,-2.02 -0.52,-1.08 -0.57,-0.61 -1.13,-0.33 -1.67,-0.04 -2.17,1.01 -2.32,0.43 -2.07,0.77 -1.16,-0.04 -0.63,-0.47 -0.78,-1.46 -0.63,-0.8 -0.62,-0.42 -2.1,-1.04 -1.45,-1.37 -0.81,-1.02 0,0 0.76,-2 1.12,-1.76 0.38,-0.92 0.05,-1.3 -0.31,-1.63 -0.07,-1.11 0.84,-2.27 0.14,-1.88 0.21,-0.57 0.24,-0.27 0.58,-0.23 2.29,-0.32 0.69,-0.45 1.05,-1.13 0.83,-0.42 0.65,0.09 1.32,0.77 0.41,0.08 0.61,-0.1 0.38,-0.26 1.09,-1.74 1.52,-0.88 0.71,-0.8 1.43,-0.47 0.65,-0.38 1.32,-2.27 0.74,-0.45 0,0 2.18,0.35 2.58,-0.75 3.92,0.17 2.16,0.66 5.08,2.37 z" 
                fill="rgb(151, 144, 238)" 
                stroke="white" 
                stroke-width=".7px"
                title="Tubas" 
                id="PS-TBS" 
            />
        </svg>