<svg xmlns="http://www.w3.org/2000/svg" viewBox="134.41948000000002 198.46794 30.00999999999999 52.67999999999998" width="30.00999999999999" height="52.67999999999998">
            <path 
                d="m 162.84948,241.84794 -2.8,0.54 -2.86,0.9 -1.74,0.24 -0.9,0.82 -0.98,1.31 -1.46,1.48 -0.14,0.82 -0.35,0.82 -2.23,0.73 -1.04,1.4 -0.7,0.24 -1.6,-0.08 -3.69,-2.46 -1.19,-1.72 -0.76,-0.65 -1.4,-2.13 -4.59,-6.04 0,0 0.36,-0.26 0.57,-1.5 -0.81,-5.81 0.19,-5.47 1.83,-3.44 1.15,-1.45 4.48,-2.01 1.2,-1.17 0.71,-5.15 1.5,-4.16 0.81,-5.21 0.76,-2.83 0.58,-1.07 0,0 0.5,-0.07 1.11,0.12 0.99,0.42 0.75,0.85 0.23,0.53 0.14,1.08 -0.11,1.08 -0.51,1.01 -0.86,0.65 -1.86,0.64 -0.39,0.29 -0.24,0.41 -0.07,0.47 0.2,0.57 0.75,0.81 0.59,0.11 0.98,-0.38 1.81,-1.23 1.2,-0.41 1.44,-0.09 0.94,0.08 0.59,0.23 0.33,0.34 0.24,0.56 0,0.44 -1.01,2.42 -0.09,1.65 0.16,2.23 -0.38,1.28 0,1.66 -0.46,1.76 0.04,0.26 0.34,0.36 1.58,0.29 0.6,0.24 1.66,1.88 1.69,0.63 1.77,1.03 1.65,0.72 0.22,0.38 0.16,0.99 -0.35,2.68 0,0 -1.8,-0.64 -1.24,-0.77 -1.83,-0.68 -0.05,2 0.3,1.56 0.46,0.6 2.16,1.32 0.38,0.38 0.49,1.02 0.13,1.62 -0.15,1.02 -0.35,0.61 -1.44,0.78 -0.34,0.59 -0.1,0.96 0.22,0.86 1.17,1.2 z" 
                fill="rgb(151, 144, 238)" 
                stroke="white" 
                stroke-width=".7px"
                title="Tulkarm" 
                id="PS-TKM" 
            />
        </svg>