<svg xmlns="http://www.w3.org/2000/svg" viewBox="210.76042999999999 147.94439999999997 38.150000000000006 32.98999999999998" width="38.150000000000006" height="32.98999999999998">
            <path 
                d="m 230.09043,148.8044 0,0 5.59,1.11 2.16,0.86 0.61,0.89 1.29,1.19 1.42,0.62 5.55,1.23 2.2,2.6 -0.11,1.77 0,2.36 -1.91,1.18 -2.74,-0.33 -2.73,1.01 -2.05,2.36 -0.13,2.7 -0.41,2.02 -3.01,0.17 -0.96,2.53 -1.77,2.18 -2.19,1.35 -0.89,2.07 -1.56,0.14 -0.94,1.92 -0.96,0.2 -0.24,-1.39 0.01,-2.31 -1.31,-1.55 -1.91,-0.02 -0.43,1.12 1.31,1.82 0,0.7 -0.35,0.62 -0.85,-0.51 -1.95,-1.76 -3.32,-0.97 -3.42,-0.22 -1.46,-0.34 -0.73,-1.21 -0.86,-1.92 -0.28,-1.29 0.42,-1.63 1.86,-1.8 6.86,-3.35 1.16,-1.11 0.4,-1.54 1.63,-3.39 1.07,-3.62 -1.57,-1.35 -2.4,-0.72 -1.25,-1.07 -1.73,-2.38 0.98,-1.49 3.84,-0.31 8.06,0.86 z" 
                fill="rgb(151, 144, 238)" 
                stroke="white" 
                stroke-width=".7px"
                title="Alborz" 
                id="IR-32" 
            />
        </svg>