<svg xmlns="http://www.w3.org/2000/svg" viewBox="86.66043000000002 3.1044 78.45999999999995 110.37000000000005" width="78.45999999999995" height="110.37000000000005">
            <path 
                d="m 133.80043,3.1044 0,0 0.46,0.12 0.66,0.45 2.07,1.95 5.69,6.85 2.32,2.15 0.96,1.31 0.75,1.59 -0.36,0.11 -0.88,0.29 -1.78,1.2 -2.12,0.43 -1.14,0.59 -0.98,0.94 -0.62,1.24 -0.07,1.51 0.46,1.17 0.83,1.17 1.92,1.88 1.94,0.8 0.51,0.5 1.02,2.2 0.18,0.55 -0.02,0.61 -0.16,0.59 0,0.02 -0.26,0.56 -0.31,0.46 -0.01,0 0,0 0,0.01 0,0 -1.39,0.87 -6.26,1.11 -0.11,0.28 0.01,0.33 -0.1,0.28 -1.78,1.1 -0.31,0.49 0.08,1.79 0.67,1.24 2.2,1.77 4.49,2.22 0.42,0.36 0.09,0.36 0.16,0.63 -0.14,0.85 0.06,0.73 1.65,1.32 0.53,0.79 0.61,0.58 1.04,0.03 1.72,-0.81 0.79,0 0.39,0.94 0.24,1.15 0.44,0.59 0.54,0.49 0.56,0.88 0.57,0.62 0.5,0.72 0.84,1.06 0.44,0.56 0.92,1.55 1.09,1.06 0.17,0.01 0.2,0.45 1.08,0.96 0.7,0.92 0.19,0.81 0.82,0.33 1.28,0.29 0.52,0.56 -0.3,0.79 -7.65,9.11 -0.7,1.66 -0.3,2.28 -1.08,1.68 -0.07,2.35 3.11,8.63 5.62,8.86 1.87,1.93 2.16,1.71 1.14,1.45 0.03,1.22 -0.15,1.86 0.29,2.23 0.37,1.05 -2.28,-1.22 -1.19,0.36 -1.34,0.92 -1.22,-0.16 -0.97,-0.55 -0.65,0.26 -0.41,0.73 0,0.72 -0.45,0.76 -1.05,0.22 -2.53,-2.7 -1.39,-0.51 -0.99,0.27 -0.47,-0.17 -0.47,-0.25 -0.3,0.04 -0.48,-0.97 -0.49,-0.26 -1.15,0.06 -0.51,0.18 -0.3,0.37 -0.26,0 0.17,-0.64 0.09,-0.23 -1.54,-1.26 -0.72,-0.74 -2.08,-1.38 -0.88,-2.08 -0.27,-3.09 -0.9,-0.79 -2.49,-1.3 -0.76,-0.15 -0.21,0.13 -3.31,-2.05 -1.01,-4.68 0.3,-3.9 0.77,-1.63 0.34,-1.19 -0.35,-0.77 -2.27,-2.09 -2.67,-3.66 -1.71,-4.24 -0.21,-3.42 -1.01,-3.16 -2.36,-1.18 -7.61,1.12 -0.99,-0.18 -0.47,-0.35 -1.07,-1.04 -2.16,0.26 -1.63,0.64 -0.4,-1.34 0.16,-2.21 0.69,-1.58 0.86,-1.12 1.07,-2.01 2.71,-1.98 1.42,-1.54 2.3,-0.68 2.43,0.39 1.65,-1.13 -0.64,-2.12 -1.78,-1.01 -0.02,-1.21 1.25,-1.69 0.36,-2.9 -1.96,-4.9 -0.09,-3.28 -0.52,-0.76 0.47,-4.96 -1.34,-0.5 -2.19,1.96 -2.28,1.37 -1.38,-0.12 -2.55,1.73 -3.88,6.77 0.46,0.71 0.51,0.19 -0.42,0.55 -2.12,1.6 -1.28,1.75 -1.42,1.15 -5.07,-1.44 -2.22,0.63 -2.32,1.26 -2.32,0.83 -1.73,-0.95 -0.96,-2.37 0.54,-2.71 1.36,-1.8 0.91,-0.53 0.34,-0.62 1.26,-0.14 1.81,0.44 0.46,-0.41 0.23,-1.21 0.02,-1.27 0.09,-0.66 0.7,-0.05 1.57,1.29 1.48,-0.28 1.36,-0.79 2.11,-0.29 2.94,-2.02 0.69,-0.96 0.23,-0.79 0.13,-0.87 -0.63,-2.66 -0.5,-0.88 -1.04,-0.51 -0.47,-0.53 -0.04,-0.45 -0.12,-0.09 -0.26,-0.86 0.23,-0.13 0.35,-0.42 0.18,-0.33 0.57,-1.66 1.22,-1.96 0.12,-0.44 0.33,-0.37 1.62,-1 3.37,-1.32 0.4,-0.22 1.01,-0.58 1.12,-1.15 0.01,0 1.68,-2.18 1.11,-0.93 1.41,-0.79 2.37,-0.81 0.76,-0.08 0.44,-0.3 1.79,-1.83 0.61,-0.34 4.08,-2.31 1.45,-1.49 0.53,-0.54 0.65,-0.45 0.81,-0.22 2.57,0.05 0.42,-0.11 0.35,-0.32 0.39,-0.59 0.02,0 z" 
                fill="rgb(151, 144, 238)" 
                stroke="white" 
                stroke-width=".7px"
                title="Ardebil" 
                id="IR-03" 
            />
        </svg>