<svg xmlns="http://www.w3.org/2000/svg" viewBox="204.67043000000004 394.86440000000044 98.89999999999989 113.1399999999997" width="98.89999999999989" height="113.1399999999997">
            <path 
                d="m 214.02043,435.4644 0,0 -0.34,0.05 -0.34,-0.31 -0.33,-0.85 -0.21,-0.76 -0.25,-0.46 0.4,-0.25 0.37,0.16 0.61,0.27 0.36,0.22 -0.15,0.67 0.1,0.67 -0.22,0.59 z m 34.53,-12.42 0,0 2.18,2.29 2.7,1.01 3,2.76 15.2,28.66 0.78,3.48 4.96,14.04 0.85,1.4 1.5,0.6 1.13,0.67 2.55,2.99 4.59,10.29 4.47,5.52 4.34,4.09 6.77,4.89 -1.46,0.84 -0.46,0.17 -1.58,-0.07 -1.68,-0.43 -0.55,-0.02 -2.21,0.22 -0.37,-0.02 -0.69,0.3 -0.15,-0.02 -0.19,0.23 -0.55,1.07 0,0 -2.63,-1.17 -0.69,-0.73 -0.06,-0.78 0.32,-0.49 0.57,-0.25 0.7,-0.07 0.64,0.02 0.73,-0.08 0.42,-0.37 -0.3,-0.9 -0.54,-0.46 -1.37,-0.53 -0.51,-0.43 -0.27,-0.45 -0.55,-1.25 -0.23,-0.39 -2.54,-2.63 -1.11,-0.88 -1.24,-0.54 -6.04,-1.33 -1.27,-0.64 -4,-3.72 -1.24,-0.84 -1.4,-0.59 -1.61,-0.22 -2.35,0.29 -0.54,-0.17 -0.63,-0.4 -1.21,0.09 -1.31,0.31 -2.12,0.39 -1.33,-0.21 -2.93,-0.61 -0.4,-0.1 -0.17,-0.25 -0.04,-0.37 -0.11,-0.28 -0.18,-0.19 -1.06,-0.15 -1.44,-0.44 -0.73,-0.78 -0.77,-1.31 -0.82,-0.52 -0.26,1.07 -0.69,0.06 -0.67,-2.29 -0.66,-0.96 -0.52,-1.39 -1.28,-2.09 -0.58,-0.55 -0.7,-0.73 -0.17,-0.77 0.75,-2.07 -0.05,-1.02 -0.7,-1.14 -1.18,-1.07 -0.41,-0.5 -1.2,-1.86 -1.11,-1.19 -0.26,-0.39 -2.07,-5.13 -0.28,-1.21 -0.03,-4.91 -0.43,-1.67 -0.76,-1.42 -0.86,-1.02 -1.1,-0.68 -1.42,-0.34 -1.38,-0.07 -0.67,-0.19 -0.29,-0.41 -0.25,-0.76 -1.6,-2.02 -0.27,-0.73 -0.21,-1.07 0.13,-0.96 0.7,-0.41 0.66,0.23 0.67,0.56 0.56,0.7 0.33,0.64 0.35,-0.31 -0.04,-0.28 -0.15,-0.32 0.05,-0.43 0.24,-0.28 0.68,-0.61 0.23,-0.41 0.12,-0.84 -0.09,-0.9 -0.33,-0.56 -0.62,0.16 -0.29,-1.12 -0.23,-0.4 -0.41,-0.35 -0.2,0.04 -0.31,0.17 -0.29,0.09 -0.12,-0.17 -0.04,-0.66 -0.07,-0.32 -0.12,-0.21 -0.81,-0.14 -2.65,0.16 -0.61,0.11 -0.9,0.53 -0.94,-0.11 -0.75,-0.66 -0.3,-1.08 -0.06,-0.94 0.09,-0.48 0.31,-0.46 0.24,-0.53 0.22,-0.64 0.31,-0.29 0.51,0.55 0.15,-1.58 0.08,-0.27 -0.33,-0.11 -0.21,-0.23 -0.41,-0.75 0.24,-0.95 -0.01,-1.51 -0.17,-1.55 -0.27,-1.05 -0.44,-0.81 -0.66,-0.9 -0.52,-0.25 -0.02,1.16 -0.19,-0.43 -0.96,-1.45 -1.79,-1.48 -0.29,-0.5 -0.23,-0.67 -0.54,-0.75 -1.1,-1.12 -2.01,-0.81 -0.3,-0.4 -0.22,-0.78 -0.49,-0.74 -0.91,-1.02 -0.91,-1.32 -1.54,-2.82 -0.81,-1.19 -0.64,-0.56 -1.39,-0.86 -1.32,-1.36 -0.12,-0.18 -0.1,-0.47 -0.03,-0.72 -0.12,-0.41 0.53,-0.06 0.12,-0.23 -0.2,-0.29 -0.45,-0.22 0.36,-1.33 -0.77,-2.21 0.2,-1.03 -0.48,-0.37 -0.53,-0.72 -0.45,-0.79 -0.18,-0.65 -0.2,-0.41 -0.5,-0.34 -0.27,-0.11 -0.01,0 2.18,-1.09 3.49,-0.58 1.95,0.95 5.23,0.27 3.96,1.43 1.26,0.91 0.59,0.56 0,2.01 0.91,2.83 1.7,1.7 2.07,4.21 1.93,0.74 7.48,0.56 4.65,1.51 2.27,2.53 1.82,4.18 2.39,3.79 z" 
                fill="rgb(151, 144, 238)" 
                stroke="white" 
                stroke-width=".7px"
                title="Bushehr" 
                id="IR-06" 
            />
        </svg>