<svg xmlns="http://www.w3.org/2000/svg" viewBox="194.02043 299.37440000000015 53.76000000000002 62.25999999999988" width="53.76000000000002" height="62.25999999999988">
            <path 
                d="m 247.35043,358.8644 0,0 -1.16,-0.09 -2.19,0.42 -1.68,1.48 -1.84,0.96 -3.88,-0.51 -1.16,0.02 -12.6,-11.23 -1.04,-0.13 -1.78,0.1 -5.94,-2.39 -2.4,-1.47 1.21,-2.34 1.84,-2.31 0.1,-1.85 -0.99,-2.21 -2.88,-3.11 -0.66,-1.15 -1.68,-1.54 -1.04,-1.65 -1.02,-2.4 -0.92,-3.33 -0.45,-1.06 -0.56,-0.56 -1.6,-0.52 -0.49,-0.56 -0.84,-0.61 -0.83,-1.08 -1.06,-2.69 -5.1,-8.09 -0.56,-2.43 -0.13,-1.18 6.68,-3.61 2.31,0.3 1.21,-0.21 1.06,-0.53 1.51,-0.32 2.07,1.14 2.07,1.72 2.2,0.27 1.67,-0.38 1.04,0.36 1.54,-0.33 3.77,-2.47 1.33,-0.24 4.45,-0.14 1.4,-0.47 0.75,-0.82 1.46,-0.25 1.32,1.15 0.34,1.83 0.33,0.98 0.89,0.23 0.52,0.58 0.29,1.16 0.73,1.17 -0.19,2.91 0.34,3.14 4.3,3.35 1.79,1.81 3.93,2.98 1.77,3.22 0.62,4.15 -1.07,2.11 -1.35,0.94 -0.15,1.23 0.67,1.22 1.02,1.31 0.08,1.21 -1.43,0.63 -1.16,0.82 -0.2,2.13 0.76,4.53 3.09,10.25 -0.09,3.08 -0.34,1.37 z" 
                fill="rgb(151, 144, 238)" 
                stroke="white" 
                stroke-width=".7px"
                title="Chahar Mahall and Bakhtiari" 
                id="IR-08" 
            />
        </svg>