<svg xmlns="http://www.w3.org/2000/svg" viewBox="36.66043 25.924399999999945 113.98999999999995 105.34000000000002" width="113.98999999999995" height="105.34000000000002">
            <path 
                d="m 95.95043,37.9044 0,0 -1.57,-1.29 -0.7,0.05 -0.09,0.66 -0.02,1.27 -0.23,1.21 -0.46,0.41 -1.81,-0.44 -1.26,0.14 -0.34,0.62 -0.91,0.53 -1.36,1.8 -0.54,2.71 0.96,2.37 1.73,0.95 2.32,-0.83 2.32,-1.26 2.22,-0.63 5.07,1.44 1.42,-1.15 1.28,-1.75 2.12,-1.6 0.42,-0.55 -0.51,-0.19 -0.46,-0.71 3.88,-6.77 2.55,-1.73 1.38,0.12 2.28,-1.37 2.19,-1.96 1.34,0.5 -0.47,4.96 0.52,0.76 0.09,3.28 1.96,4.9 -0.36,2.9 -1.25,1.69 0.02,1.21 1.78,1.01 0.64,2.12 -1.65,1.13 -2.43,-0.39 -2.3,0.68 -1.42,1.54 -2.71,1.98 -1.07,2.01 -0.86,1.12 -0.69,1.58 -0.16,2.21 0.4,1.34 1.63,-0.64 2.16,-0.26 1.07,1.04 0.47,0.35 0.99,0.18 7.61,-1.12 2.36,1.18 1.01,3.16 0.21,3.42 1.71,4.24 2.67,3.66 2.27,2.09 0.35,0.77 -0.34,1.19 -0.77,1.63 -0.3,3.9 1.01,4.68 3.31,2.05 0.21,-0.13 0.76,0.15 2.49,1.3 0.9,0.79 0.27,3.09 0.88,2.08 2.08,1.38 0.72,0.74 1.54,1.26 -0.09,0.23 -0.17,0.64 0.26,0 0.3,-0.37 0.51,-0.18 1.15,-0.06 0.49,0.26 0.48,0.97 0.3,-0.04 0.47,0.25 0.47,0.17 -0.39,0.23 -1.19,0.95 -2.52,0.99 -8.1,-0.84 -2.2,0.36 -3.21,-0.49 -10.65,1.24 -1.2,0.5 -1.17,0.7 -1.85,2.01 -2.24,1.07 -1.01,0.74 -1.42,2.37 -5.13,5.22 -0.65,1.33 0.01,2.05 0.2,1.37 -8.04,0.93 -3.3,-0.45 -1.22,-1.77 0.03,-2.82 -1.34,-3.92 0.44,-0.63 -0.15,-0.9 -1.07,-0.92 -1.72,-0.39 -1.35,-0.83 -1.07,-1.09 -1.57,-0.26 -1.42,0.94 -0.93,0.88 -0.82,-0.08 -1.68,0.35 -2.03,1.33 -1.11,1.38 -0.5,1.19 -0.11,0.38 -0.55,0.88 -1,0.69 -1.57,-0.66 -1.46,-1.36 -4.21,-2.38 -0.57,-1.14 -4.7,-4.28 -3.62,-0.06 -4.4,-0.78 -9.89,-6.5 -1.28,-1.93 -0.46,-2.29 0.38,-5.3 -0.84,-1.95 -2.27,-2.74 -0.22,-0.78 -0.46,-0.85 -0.26,-0.67 0.14,-0.48 0.32,-0.27 0.32,-0.18 0.15,-0.23 -0.27,-2.57 -0.05,-0.18 -0.15,-0.34 -0.68,-0.92 -1.19,-11.58 0.02,-1.43 0.11,-0.22 0.13,-0.21 -0.05,-0.47 -0.21,-0.77 -0.22,-0.35 -0.27,-0.23 -0.2,-0.32 0,-0.59 -0.23,0 -2.15,-2.92 -0.45,-1.44 0.37,-1.87 1.91,-3.23 5.81,-6.03 1.27,-2.3 0.01,-2.15 -0.86,-2.29 -0.47,-2.48 0.99,-4.61 0.74,-1.81 3.74,-4 0.21,-0.21 0.54,0.14 0.69,0.41 0.16,0.03 0.26,0.06 0.94,0.03 1.93,0.48 3.01,0.03 1.74,0.68 0.78,0.3 7.13,1.51 2.24,1.02 1.97,0.5 0.33,-0.05 2.26,-0.3 0.59,-0.28 1.76,-1.28 0.66,-0.32 0.44,-0.11 1.32,-0.05 0.82,-0.27 0.36,-0.04 0.46,0.1 3.53,1.58 0.61,0.17 0.61,-0.04 0.73,-0.3 0.55,-0.34 0.52,-0.43 0.47,-0.53 0.39,-0.62 0.96,-1.98 0.45,-0.59 0.61,-0.52 1.97,-1 0.55,-0.54 0.57,-1.32 0.41,-0.65 0.27,-0.21 0.56,-0.31 0.27,-0.22 0.19,-0.27 0.87,-1.51 0.46,-0.54 0.51,-0.43 0.01,0 0.56,-0.26 0.54,-0.02 0.94,0.43 0.51,0.14 0.41,-0.08 2.03,-1.15 0.26,0.86 0.12,0.09 0.04,0.45 0.47,0.53 1.04,0.51 0.5,0.88 0.63,2.66 -0.13,0.87 -0.23,0.79 -0.69,0.96 -2.94,2.02 -2.11,0.29 -1.36,0.79 -1.48,0.28 z" 
                fill="rgb(151, 144, 238)" 
                stroke="white" 
                stroke-width=".7px"
                title="East Azarbaijan" 
                id="IR-01" 
            />
        </svg>