<svg xmlns="http://www.w3.org/2000/svg" viewBox="184.42042999999998 222.65439999999964 200.94999999999996 151.6800000000002" width="200.94999999999996" height="151.6800000000002">
            <path 
                d="m 273.40043,226.7544 0,0 9.28,-0.59 2.31,0.36 14.42,4.76 1.76,0.28 80.82,-2.43 1.86,0.61 0.83,0.72 0.31,0.4 0.38,27.64 -0.9,2.88 -2.89,5.03 -1.94,1.36 -2.63,0.28 -3.37,1.81 -1.82,2.26 -1.54,6.78 -1.1,3.01 -1.3,2.46 -1.87,2.28 -3.58,2.04 -35.84,12.38 -10.72,-2.47 -2.47,0.09 -3.27,1.27 -2.04,1.3 -1.49,1.26 -2.2,1.25 -2.43,0.72 -1.35,0.9 -0.26,1.33 0.98,12.32 -0.31,2.57 -1.42,5.62 -0.65,4.83 -0.36,0.99 0.1,2.76 1.48,5.85 -0.06,0 -11.56,3.35 -2.52,0.01 -7.54,-1.67 -1.57,-1.42 -0.32,-3.68 -0.52,-1.08 -0.59,-0.09 -4.61,2.54 -0.66,0.89 -0.96,0.43 -4.56,3.1 -2.54,0.36 -3.29,-0.79 -0.13,1.18 0.8,1.87 1.04,1.06 1.33,0.51 1.49,0.28 1.95,1.49 0.98,2.68 -0.82,2.7 -0.69,4.04 -2.86,7.16 -0.27,3.44 0.35,2.34 0.01,1.27 -0.95,0.31 -2.57,0.39 -0.69,-0.67 -4.74,-3.42 -3.65,-3.89 -1.87,-4.85 -0.24,-2.64 0.34,-1.37 0.09,-3.08 -3.09,-10.25 -0.76,-4.53 0.2,-2.13 1.16,-0.82 1.43,-0.63 -0.08,-1.21 -1.02,-1.31 -0.67,-1.22 0.15,-1.23 1.35,-0.94 1.07,-2.11 -0.62,-4.15 -1.77,-3.22 -3.93,-2.98 -1.79,-1.81 -4.3,-3.35 -0.34,-3.14 0.19,-2.91 -0.73,-1.17 -0.29,-1.16 -0.52,-0.58 -0.89,-0.23 -0.33,-0.98 -0.34,-1.83 -1.32,-1.15 -1.46,0.25 -0.75,0.82 -1.4,0.47 -4.45,0.14 -1.33,0.24 -3.77,2.47 -1.54,0.33 -1.04,-0.36 -1.67,0.38 -2.2,-0.27 -2.07,-1.72 -2.07,-1.14 -1.51,0.32 -1.06,0.53 -1.21,0.21 -2.31,-0.3 -6.68,3.61 0.91,-3 0.73,-1.12 -1.41,-1.91 -3.39,-1.29 -2.95,0.2 -1.83,-0.98 -1.64,-4.07 -0.02,-0.39 0.21,-0.97 0.46,-0.82 0.77,-0.5 2.7,-0.9 1.55,-1.17 0.61,-4.78 1.95,-2.3 5.03,-1.42 0.81,-0.48 0.07,-0.75 0.19,-0.95 3.43,-6.9 -0.09,-1.75 0.14,-2.2 0.76,-1.62 2.81,-2.34 5.38,-3.2 14.11,-3.72 2.12,-1.31 1.9,-1.61 2.13,-0.68 1.94,-0.01 0.91,-1.61 3.23,-7.83 0.4,-2.44 -0.96,-0.51 -0.71,-1.77 1.02,-8.04 0.4,-1.2 1.27,-1.28 3.23,-1.41 7.31,-0.84 2.62,0.14 11.42,-2.97 6.55,3.55 3.31,0.55 z" 
                fill="rgb(151, 144, 238)" 
                stroke="white" 
                stroke-width=".7px"
                title="Esfahan" 
                id="IR-04" 
            />
        </svg>