<svg xmlns="http://www.w3.org/2000/svg" viewBox="223.3304300000002 337.08439999999973 167.82999999999987 177.8900000000001" width="167.82999999999987" height="177.8900000000001">
            <path 
                d="m 286.04043,345.0244 0,0 2.52,-0.01 11.56,-3.35 0.06,0 8.61,3.32 5.13,4.72 4.35,5.3 7.9,20 5.63,10.08 5.4,6.64 1.48,2.62 1.2,8.58 0.97,2.34 5.26,3.96 6.88,3.5 -0.01,0.77 0.93,3.09 2.75,5.71 0.38,1.5 0.74,1.3 0.81,0.83 1.51,0.96 7.76,0.72 1.97,0.84 6.85,17.02 1.95,5.89 0.01,1.09 -1.11,0.81 0.18,1.82 10.18,9.89 0.9,2.42 -0.4,4.32 -1.71,6.27 -0.16,1.6 0.16,1.24 2.86,2.34 1.62,2.65 -0.21,2.17 -0.58,0.94 -0.77,0.55 -1.02,0.45 -1.96,-0.11 -3.1,0.8 -4.62,2.49 -1.32,2.1 -1.11,3.39 -1.96,1.87 -4.23,1.29 -9.03,-1.28 -3.09,0.72 -1.68,0.72 -1.6,-0.56 -2.06,-0.27 -9.04,0.83 -3.5,1.22 -1.5,1.83 -0.5,3.03 -0.71,2.09 -0.01,0.42 0.39,1.12 -0.92,1.48 -3.53,1.88 -10.36,-1.84 -0.87,0 -2.47,0.63 -0.59,-0.08 -0.57,-0.28 -2.86,-2.35 -1.25,-0.5 -7.55,-0.67 -2.48,-2.36 -0.93,-1.79 -6.77,-4.89 -4.34,-4.09 -4.47,-5.52 -4.59,-10.29 -2.55,-2.99 -1.13,-0.67 -1.5,-0.6 -0.85,-1.4 -4.96,-14.04 -0.78,-3.48 -15.2,-28.66 -3,-2.76 -2.7,-1.01 -2.18,-2.29 -2.39,-3.79 -1.82,-4.18 -2.27,-2.53 -4.65,-1.51 -7.48,-0.56 -1.93,-0.74 -2.07,-4.21 -1.7,-1.7 -0.91,-2.83 0,-2.01 0,-0.1 3.4,-0.84 5.68,0.35 1.44,-0.23 9.04,-5.29 0.72,-1.51 0.04,-2.03 -0.83,-1.39 -0.25,-0.86 0.47,-0.84 -0.07,-0.89 -1.07,-3 -0.56,-3.31 0.51,-0.59 2.76,0.69 3.88,1.89 0.86,0.19 0.76,0.96 1.26,0.77 3.59,0.93 1.88,-0.51 1.67,-0.99 0.86,-0.86 0.19,-0.39 -0.02,-1.88 -1,-4.92 2.57,-0.39 0.95,-0.31 -0.01,-1.27 -0.35,-2.34 0.27,-3.44 2.86,-7.16 0.69,-4.04 0.82,-2.7 -0.98,-2.68 -1.95,-1.49 -1.49,-0.28 -1.33,-0.51 -1.04,-1.06 -0.8,-1.87 0.13,-1.18 3.29,0.79 2.54,-0.36 4.56,-3.1 0.96,-0.43 0.66,-0.89 4.61,-2.54 0.59,0.09 0.52,1.08 0.32,3.68 1.57,1.42 7.54,1.67 z" 
                fill="rgb(151, 144, 238)" 
                stroke="white" 
                stroke-width=".7px"
                title="Fars" 
                id="IR-14" 
            />
        </svg>