<svg xmlns="http://www.w3.org/2000/svg" viewBox="150.68043 58.18440000000004 71.80000000000001 80.38" width="71.80000000000001" height="80.38">
            <path 
                d="m 164.84043,58.6444 0,0 0.1,3.8 -0.39,1.26 0.24,0.92 0.07,2.28 0.64,1.59 0.47,5.27 1.4,5.01 -0.27,0.83 -0.03,0.97 0.15,0.93 0.26,0.66 1.19,1.95 0.01,0.45 -0.1,0.38 -0.05,0.31 0.35,1.68 0.71,1.61 1.71,2.58 2.28,2.38 2.48,1.78 5.46,2.85 2.54,0.85 13.01,1.77 1.4,-0.22 1.16,-0.47 1.09,-0.2 1.21,0.62 -0.32,0.06 -0.38,-0.11 -0.2,-0.03 -0.26,0.35 2.82,1.1 4.41,1.02 1.59,0.61 1.07,1.02 -0.14,1.54 0.3,0.59 0.44,1.54 0.31,0.62 0.49,0.76 0.8,2.3 1.01,1.68 1.19,1.14 2.44,1.85 1.68,2.03 0.51,0.31 0.66,0.19 2.13,1.45 0,0 -0.02,0.14 -0.33,1.08 -1.16,1.6 -1.76,0.95 -1.36,1.35 -0.74,3.51 -2.08,3.71 -1.76,1.15 -4.6,-0.46 -2.81,0.63 -0.75,0.4 -0.7,0.24 -6.36,3.46 -1.68,0.3 -3.13,-0.63 -0.73,-0.5 -1.04,-0.18 -1.73,0.07 -4.65,-1.39 -2.06,-1.94 -1.91,-2.43 -0.43,-1.35 -0.06,-0.71 -3.21,-1.55 -2,-6.96 -1.44,-2.33 -3.76,-3.97 -5.1,-3.26 -0.37,-1.05 -0.29,-2.23 0.15,-1.86 -0.03,-1.22 -1.14,-1.45 -2.16,-1.71 -1.87,-1.93 -5.62,-8.86 -3.11,-8.63 0.07,-2.35 1.08,-1.68 0.3,-2.28 0.7,-1.66 7.65,-9.11 0.3,-0.79 -0.52,-0.56 -1.28,-0.29 -0.82,-0.33 -0.19,-0.81 -0.7,-0.92 -1.08,-0.96 -0.2,-0.45 1.56,0.13 0.82,-0.23 0.91,-0.39 0.86,-0.54 0.67,-0.68 0.76,-0.41 1.08,0 2.19,0.46 z" 
                fill="rgb(151, 144, 238)" 
                stroke="white" 
                stroke-width=".7px"
                title="Gilan" 
                id="IR-19" 
            />
        </svg>