<svg xmlns="http://www.w3.org/2000/svg" viewBox="328.44043000000005 72.25439999999998 87.96999999999997 69.87000000000003" width="87.96999999999997" height="69.87000000000003">
            <path 
                d="m 405.42043,74.5244 0,0 4.84,-0.89 1.37,0.18 0.17,0.07 0.22,3.01 -0.22,1.22 0.09,1.56 0.41,1.8 -0.03,1.02 -0.69,2.77 0.07,1.94 1.15,1.37 1.6,0.79 1.38,1.06 0.63,2.61 -1.86,2.6 -3.97,1.38 -0.91,0.14 -1.02,0.46 -1.03,0.95 -2.46,1.02 -2.47,4.4 -1.03,1 -1.4,1.15 -6.3,9.73 -2.8,6.23 -0.67,4.64 -1.13,2.92 -1.71,0.81 -12.11,-1.66 -2.88,0.34 -5.92,3.41 -5.74,4.5 -2.09,2.28 -4.78,2.26 -2.36,0.53 -2.65,-0.43 -6.63,0.12 -1.38,-2.11 -3.58,-3.7 -7.48,-4.53 -1.18,-2.05 -0.38,-1.05 -0.05,-0.55 0,0 5.12,0.45 0.53,0.3 0.58,0.21 4.24,-1.17 0.4,-0.33 0.23,-0.71 0.02,-4.38 -0.19,-0.72 -0.5,-0.29 -0.64,-0.26 0.1,-0.62 0.77,-1.44 -0.81,-1.25 -0.54,-1.56 -0.75,-3.59 -1.03,-2.78 -0.15,-0.6 -0.32,-3.61 9.24,0.81 0.67,-0.04 0.61,-0.26 0.63,-0.6 0.63,-0.42 0.73,-0.04 0.79,0.1 0.74,0 1.21,-0.4 5.73,-3.33 0.77,-0.12 2.06,0.45 0.75,-0.01 0.51,-0.24 0.83,-0.9 0.67,-0.27 0.42,-0.4 1.61,-1.06 0.86,-0.72 0.16,-0.31 0.1,-0.65 0.46,-1.07 0.11,-0.61 0.04,-1.03 -0.04,-0.3 -0.16,-0.28 -0.39,-0.36 -0.12,-0.23 -0.04,-0.9 0.56,-1.33 0.15,-0.85 0.18,-0.68 0.44,-0.71 1.02,-1.11 5.09,-3.51 1.58,-1.78 0.26,-0.44 0.18,-0.59 0.41,-0.22 0.48,-0.08 0.36,-0.14 0.25,-0.33 0.37,-0.78 0.29,-0.33 0.65,-0.22 1.96,-0.38 0.42,-0.16 0.3,-0.68 0.74,-0.41 1.54,-0.52 0.39,-0.06 0.7,-0.57 0.7,-0.36 2.51,-1.95 0.83,-0.34 2.15,-0.09 6.69,-1.41 1.01,0 2.1,0.46 1.32,0.77 0.5,0.17 1.72,0.02 0.57,0.18 0.92,0.49 0.48,0.15 0.52,0.03 z" 
                fill="rgb(151, 144, 238)" 
                stroke="white" 
                stroke-width=".7px"
                title="Golestan" 
                id="IR-27" 
            />
        </svg>