<svg xmlns="http://www.w3.org/2000/svg" viewBox="121.03042999999997 172.38440000000014 67.25999999999996 72.91999999999999" width="67.25999999999996" height="72.91999999999999">
            <path 
                d="m 142.88043,175.1144 0,0 1.14,2.08 1.52,0.95 7.27,0.25 2.97,1.62 2.85,0.7 2.56,-0.9 1.24,-1.7 -0.02,-0.73 1.58,-0.7 3.7,0.07 2.82,1.62 1.29,1.62 -1.03,1.57 2.31,1.77 4.34,0.74 0.95,-0.25 4.81,1.22 0.83,0.58 -0.02,0.99 0.29,1.48 0.8,1.06 -0.13,1.59 -1.14,1.27 -1.16,-0.21 -0.66,-0.95 0.04,-1.05 -0.08,-0.78 -0.92,0.07 -1.06,1.35 0.64,2.78 1.51,2.52 0.42,1.91 -1.63,1.91 -1.95,0.61 -1.03,0.11 -0.61,0.69 0.09,0.59 0.78,0.76 1.52,0.78 3.64,1 1.73,0.84 1.63,1.93 0.85,2.05 0.73,4.44 -0.82,1.67 -1.49,-0.14 -1.09,-1.01 -1.34,-1.59 -0.51,-1.88 0.72,-1.53 -0.82,-1.19 -2.93,-0.51 -6.16,0.33 -0.85,1.29 0.38,2.4 -0.4,1.46 -0.9,1.47 -0.12,2.89 0.58,3.18 -0.76,0.18 -1.57,-0.76 -3.49,-0.36 -1.18,0.47 0.49,1.16 1.71,0.68 0.58,2.59 0.27,4.33 2.4,4.73 0.54,2.24 0.19,2.24 0.62,2.64 -0.1,0.96 -0.6,0.82 -3.53,3.18 -9.24,-3.95 -2.22,0.25 -1.8,-0.11 -0.88,0.24 -1.78,1.84 -1.01,0.26 -1.25,-0.47 -7.52,-0.91 -14.54,-9.57 -0.7,-1.02 -1.45,-0.94 -0.85,-0.38 0.59,-1.15 1.24,-1.9 3.36,-0.24 3.8,0.81 1.03,-0.85 -0.08,-1.91 0.37,-2.72 -0.34,-1.67 -0.65,-0.99 -0.78,0.17 -1.56,0.69 -2.89,3.02 -0.86,-1.31 -0.5,-1.7 -0.92,-0.49 -1.11,-0.22 -2.49,-1.36 -1.72,-1.4 -0.33,-1.64 0.49,-0.64 1.08,-0.43 3.39,-0.39 1.59,-2.35 1.34,-3.02 1.12,-1.29 0.18,-1.15 -0.02,-0.63 1.03,-0.56 2.08,-0.59 1.23,-0.67 0.38,-1.16 0.63,-0.16 1.09,2.68 0.73,0.39 1.13,-0.99 1.19,-1.91 0.67,-3.09 -0.93,-3.83 -1.93,-1.92 -1.39,-0.87 -1.66,-2.03 -3.65,-8.17 -2.36,-3.5 0.53,-1.05 1.77,-1.99 0.78,-0.08 1.6,3.33 1.05,0.29 1.11,-0.5 0.97,-0.95 2.41,-0.82 0.01,-1.05 -0.4,-0.89 -1,-1.3 -0.6,-1.67 1.22,-0.34 4.99,2.73 z" 
                fill="rgb(151, 144, 238)" 
                stroke="white" 
                stroke-width=".7px"
                title="Hamadan" 
                id="IR-24" 
            />
        </svg>