<svg xmlns="http://www.w3.org/2000/svg" viewBox="293.68042999999994 445.4644000000001 223.4199999999999 135.41999999999967" width="223.4199999999999" height="135.41999999999967">
            <path 
                d="m 374.13043,563.2144 0,0 -0.27,0.23 -0.28,0.03 -0.19,0.11 -0.32,-0.3 -0.16,0.12 0.02,-0.23 -0.12,-0.23 -0.12,-0.37 0.49,-0.27 0.59,-0.15 0.16,0.26 0.04,0.37 0.16,0.43 z m -16.97,-1.33 0,0 -0.34,0.26 -0.46,-0.11 -0.54,-0.25 -0.14,-0.42 0.44,-0.24 0.81,-0.24 0.17,0.33 0.06,0.67 z m -0.91,-13.27 0,0 -0.19,0.04 -0.39,-0.13 -0.4,-0.21 -0.18,-0.22 -0.05,-0.49 -0.08,-0.38 -0.01,-0.35 0,0 0.14,-0.44 0.21,-0.29 0.28,-0.15 0.33,0.07 0.34,0.37 0.23,0.11 0.19,0.15 0.16,0.2 0.13,0.26 -0.71,1.46 z m -16.2,-9.15 0,0 -0.38,0.21 -2.5,-0.14 -0.26,-0.02 -1.09,-0.53 -0.69,-1.12 0.34,-0.53 0.5,-0.37 0.6,-0.19 0.66,0.03 0.57,0.2 1.26,0.13 0.48,0.19 0,0 0.06,0.17 0.03,0.08 0,0 -0.01,0.34 0,0 0,0.05 0.04,0.26 0,0 0.24,0.13 0.14,0.13 0.09,0.08 0.03,0.22 0.04,0.23 -0.08,0.23 -0.07,0.22 z m 62.36,-4.91 0,0 -0.69,0.4 -0.54,-0.3 0.08,-0.87 0.43,-0.85 0.55,-0.43 0.33,-0.06 0.26,0.4 0.07,0.89 -0.49,0.82 z m -75.53,-1.71 0,0 -0.44,0.44 -0.59,-0.08 -0.6,-0.3 -0.33,-0.47 0.27,-0.41 0.67,-0.03 0.35,0.09 0.4,0.19 0.27,0.57 z m -9.39,-5.09 0,0 -0.49,0.13 -1.3,-0.11 -0.4,0.09 -0.62,0.36 -0.65,0 -1.93,-0.34 -0.59,-0.25 -0.08,-0.05 -0.45,-0.29 -1.06,-0.89 -0.3,-0.35 0.13,-0.17 0.24,-0.05 0.27,-0.1 0.33,-0.02 2.85,0.88 2.54,0.19 0.79,0.31 0.44,0.4 0.28,0.26 z m 101.5,-1.35 0,0 -1.29,0.42 -0.64,-0.26 0.16,-1.01 0.48,-0.7 0.86,-0.39 1.28,-0.13 0.17,1.17 -1.02,0.9 z m -7.04,-2.59 0,0 -0.76,1.7 -0.39,0.66 -1.4,1.43 -0.22,0.51 -0.29,0.31 -1.29,0.65 -0.29,0.35 -0.29,0.19 -1.67,1.61 -0.99,0.58 -0.78,-0.33 -0.74,-0.75 -0.87,-0.69 -2.26,1.17 -0.63,0.54 -0.63,0.36 -0.72,-0.01 -1.54,-0.23 -0.69,0.16 -0.72,0.34 -1.83,1.31 -1.89,0.8 -1.15,0.85 -0.59,0.32 -2.09,0.24 -1.49,0.41 -0.63,0.39 -0.31,0.12 0,0 -0.1,-0.01 -0.19,-0.04 -0.38,-0.13 -0.34,0 -0.15,0.32 -0.15,0.26 -0.37,0.2 -0.42,0.13 -0.31,0.05 0,0 -0.14,-0.1 -0.13,-0.08 -0.17,-0.44 -0.16,-0.93 0.23,-0.67 0.06,-0.43 -0.18,-0.2 -0.34,-1.17 0.37,-0.4 1.59,0.57 0.37,-0.17 0.21,0.06 0.1,0.03 0,0 1.79,-1.01 4.53,-1.47 0.66,-0.08 0.42,-0.17 0.13,-0.05 0,0 1.57,-0.96 0.67,-0.55 2.22,-0.86 0.34,-0.03 0.71,0.06 0.34,-0.03 0.24,-0.11 0.35,-0.29 0.33,-0.12 -0.1,-0.25 -0.15,-0.26 0.52,-0.6 0.12,-0.71 -0.16,-1.7 -0.26,-0.65 -0.58,-0.55 -0.56,-0.44 -0.24,-0.3 0.86,-0.5 4.74,1.79 1.28,-0.3 3.57,-2.31 4.47,-1.02 1.33,-0.02 0.67,0.16 0.87,0.38 0.54,0.41 0.19,0.15 0.27,0.71 -0.54,0.32 -0.55,0.31 -2.09,0.54 -0.75,0.67 z m 10.52,-5.3 0,0 -0.53,0.09 -1.07,-0.41 0.07,-0.96 0.63,-0.87 0.6,-0.12 0.36,0.24 0.39,0.15 0.32,0.26 0.02,0.07 0.11,0.48 -0.13,0.49 -0.32,0.35 -0.24,0.12 -0.21,0.11 z m -30.81,-65.74 0,0 1.52,0.75 1.74,-0.45 6.77,-5.14 3.98,-1.87 1.02,-0.13 0.95,1.41 0.65,14.7 -0.84,2.86 0.71,3.76 3.02,3.91 2.91,2.68 3.48,2.11 4.03,0.62 2.17,-0.39 3.98,-1.97 3.67,-3.49 1.03,-1.27 1.56,-1.23 1.84,0.07 3.53,1.73 0.27,0.62 -0.3,3.93 1.23,5.97 0.49,0.81 0.68,0.57 1.04,0.13 1.76,0.96 1.35,1.76 0.79,1.52 1.54,1.69 1.53,2.33 0.23,1.92 -0.94,0.79 -0.59,1.18 0.77,1.11 0.91,0.46 0.92,1.88 1.02,2.99 1.07,14.26 0.68,2.21 10.47,5.56 2.29,1.69 1.02,0.32 1.6,-1.5 0.81,-1.13 1.39,-0.95 2.23,0.06 2.33,1.4 2.53,2.13 1.99,2.31 0.97,2.1 -0.29,0.72 -2.12,-1.29 -0.73,-0.04 -0.04,0.76 0.82,2.43 0.05,0.96 -0.19,0.63 -0.62,0.76 -0.47,1.17 -0.78,7.39 0.19,1.09 0,1.09 -0.4,2.11 -0.69,0.85 0.06,0.77 4.49,-0.32 2.78,0.5 1.83,-0.17 1.17,-0.55 1.19,0.27 1.3,0.59 2.11,0.33 0.64,0.4 -0.05,0.41 -0.32,0.7 0.08,0.73 0.34,0.84 0.1,1.17 0.57,1.01 1.4,0.32 1.68,0.06 1.45,-0.18 1,-1.05 0.99,-0.25 1.31,0.52 0.93,-0.01 0.49,0.41 1.38,2.09 -0.41,0.22 -0.61,0.93 -0.16,1.21 0.13,0.68 0.46,0.2 1.21,0.76 6.42,5.68 1.09,1.8 0.18,1.36 0.75,0.76 1.02,0.39 0.55,0.68 0.23,0.77 0.46,0.6 0.56,0.56 1.2,2.05 0.28,0.37 0.63,0.31 -0.09,0.6 -0.02,0.57 -0.89,0.39 0.15,0.89 0,0 -1.89,0.29 -1.93,0.92 -0.72,0.16 -0.28,-0.06 -0.25,-0.24 -0.25,-0.16 -0.29,0.07 -0.32,0.14 -0.31,0.09 -0.78,-0.04 -0.67,-0.14 -0.57,-0.24 -0.44,-0.37 -1.56,-2.51 -0.84,-1.01 -1.32,-0.61 -1.18,0.03 -0.31,-0.15 -0.21,-0.36 -0.12,-0.37 -0.19,-0.31 -0.38,-0.12 -2.91,0 -6.15,-1.12 -2.11,0.33 -1.81,-0.12 -0.64,-0.3 0.25,-0.6 -1,0.06 -1.08,0.22 -0.46,0.24 -0.78,0.65 -0.51,0.13 -0.24,-0.1 -0.11,-0.15 -0.17,0.01 -0.39,0.37 -0.27,0.19 -0.35,0.11 -0.3,-0.04 -0.12,-0.26 -0.2,0.09 -1.19,0.83 -1.25,0.2 -1.1,-0.22 -1.07,-0.34 -1.13,-0.18 -0.91,-0.42 -0.74,-1.01 -1.01,-2.16 -1.06,-1.27 -1.28,-0.31 -1.4,0.36 -1.37,0.71 -1.15,0.94 -0.75,0.47 -0.53,-0.01 0.14,-1.66 0.13,-0.43 0.09,-0.18 0.02,-0.14 -0.05,-0.29 -0.35,-0.86 -0.53,-0.47 -0.7,-0.18 -0.85,-0.03 -0.76,0.08 -1.88,0.43 -0.41,-0.08 -0.71,-0.35 -0.39,-0.08 -0.39,0.03 -0.67,0.18 -0.35,0.04 -0.84,-0.07 -2.31,-0.72 0.25,-0.23 -4.53,-0.3 -0.5,-0.27 -0.24,-0.59 -0.19,-1.84 -0.82,-1.91 -0.42,-1.52 -0.29,-0.72 -0.33,-0.31 -0.06,-0.14 -0.75,-0.91 -0.15,-0.03 -0.43,0.07 -0.14,-0.04 -0.06,-0.16 -0.09,-0.44 -0.46,-1.35 -0.14,-0.63 -0.33,-0.74 -0.07,-0.45 0.21,-0.78 1.06,-1.15 0.36,-0.76 -0.46,-1.2 -2.24,-2.48 0.18,-1.01 -0.25,-0.23 -0.19,-1.71 -0.24,-0.85 -0.38,-0.68 -0.65,-0.63 -0.16,-0.28 -0.1,-0.34 -0.12,-0.86 -0.01,-0.35 0.58,-4.72 -0.12,-1.77 -2.2,-8.8 -0.46,-0.68 -1.15,-1 -0.41,-0.6 0.04,-0.62 -1.04,-0.69 -0.35,-0.37 0.5,0.04 0.37,-0.15 0.34,-0.22 0.41,-0.19 -0.29,-0.25 -0.04,-0.36 0.12,-0.37 0.21,-0.31 -1.04,0.45 -0.35,0.07 -0.31,-0.08 -0.2,-0.18 -0.14,-0.18 -0.16,-0.08 -0.18,-0.13 -0.18,-0.25 -0.23,-0.16 -0.66,0.33 -0.2,-0.13 -0.09,-0.31 0.02,-0.39 -0.44,0.1 -0.23,-0.2 0.01,-0.28 0.32,-0.14 0.17,-0.13 0.59,-0.65 0.3,-0.24 0,-0.28 -1,-0.14 -0.81,-0.55 -0.54,-0.79 -0.22,-0.86 -0.39,0.39 -0.44,0.15 -0.91,0.01 -0.51,-0.17 -0.31,-0.36 -0.26,-0.37 -0.32,-0.16 -3.51,-0.05 -0.77,-0.24 -0.23,0.29 -0.82,-0.46 -1.02,-0.21 -2.11,-0.12 -1.01,-0.19 -1.77,-0.71 -1.05,-0.16 -2.1,0.12 -1.07,0.28 -0.78,0.53 -0.72,0.35 -2.21,0.1 -0.89,0.18 -0.28,0.19 -0.56,0.56 -0.11,0.18 -0.07,0.41 -0.19,0.12 -0.26,0.06 -0.29,0.19 -0.58,0.5 -2.28,1.38 -0.82,0.69 -0.01,0.16 -0.18,0.12 -0.62,0.54 -0.37,0.12 -1.51,0.18 -1.4,0.34 -0.36,0.04 -1.13,-0.04 -0.37,0.08 -0.51,0.36 -0.29,0.08 -1.27,0 -1.06,-0.25 -0.34,-0.01 -0.65,0.28 -1.13,1.06 -0.43,0.24 -0.38,0.29 -1.83,2.04 0.49,-0.16 0.21,-0.11 0.25,-0.25 0.13,0.93 -0.2,1.14 -0.4,1.08 -0.48,0.77 -1.11,0.98 -1.27,0.65 -1.42,0.29 -1.52,-0.09 -2.73,-0.95 -1.55,-0.2 -1.29,0.61 -0.4,0.72 -0.18,0.68 -0.33,0.5 -0.82,0.19 -0.67,0.08 -1.48,0.44 -0.51,0.24 -2.21,1.98 -0.38,0.24 -3.25,2.65 -3.68,2.15 -0.23,0.21 -0.22,0.25 -0.25,0.21 -0.35,0.09 -0.43,-0.08 -0.57,-0.34 -0.4,-0.08 -2.91,0.27 -1.49,-0.24 -0.57,-0.86 -0.42,-1.1 -0.99,-0.93 -1.52,-0.3 -3.08,0.12 -1.22,-0.6 -0.61,-0.97 -0.5,-1.21 -0.64,-1.16 -1.01,-0.82 -0.72,-0.14 -0.67,0.11 -0.66,0.19 -2.58,0.17 -0.71,-0.07 -2.32,-0.68 -0.59,-0.1 -0.36,-0.11 -0.65,-0.52 -0.28,-0.14 -0.35,-0.02 -0.7,0.15 -2.23,1.04 -1.56,0.22 -1.37,0.39 -0.75,0.03 -1.51,-0.49 -0.83,-0.07 -0.79,0.43 -0.42,-0.15 -1.76,-1.53 -2.55,-1.51 -3.29,-2.49 -0.48,-0.6 -0.2,-0.74 -0.08,-1.8 -0.27,-0.76 -0.58,-0.7 -1.08,-0.69 -11.52,-3.92 -0.74,-0.07 -0.72,-0.21 -0.46,-0.5 -0.35,-0.61 -0.43,-0.52 -2.02,-0.51 -0.31,-0.38 -0.29,-0.82 -0.69,-0.43 -1.56,-0.46 -2.73,-2.46 -1.2,-0.82 -1.81,-0.8 0.55,-1.07 0.19,-0.23 0.15,0.02 0.69,-0.3 0.37,0.02 2.21,-0.22 0.55,0.02 1.68,0.43 1.58,0.07 0.46,-0.17 1.46,-0.84 0.93,1.79 2.48,2.36 7.55,0.67 1.25,0.5 2.86,2.35 0.57,0.28 0.59,0.08 2.47,-0.63 0.87,0 10.36,1.84 3.53,-1.88 0.92,-1.48 -0.39,-1.12 0.01,-0.42 0.71,-2.09 0.5,-3.03 1.5,-1.83 3.5,-1.22 9.04,-0.83 2.06,0.27 1.6,0.56 1.68,-0.72 3.09,-0.72 9.03,1.28 4.23,-1.29 1.96,-1.87 1.11,-3.39 1.32,-2.1 4.62,-2.49 3.1,-0.8 1.96,0.11 1.02,-0.45 0.77,-0.55 0.58,-0.94 0.21,-2.17 -1.62,-2.65 -2.86,-2.34 -0.16,-1.24 0.16,-1.6 1.71,-6.27 0.4,-4.32 -0.9,-2.42 -10.18,-9.89 -0.18,-1.82 1.11,-0.81 -0.01,-1.09 -1.95,-5.89 2.87,0.21 6.12,1.74 3.03,2.38 1.48,1.94 1.48,1.04 z" 
                fill="rgb(151, 144, 238)" 
                stroke="white" 
                stroke-width=".7px"
                title="Hormozgan" 
                id="IR-23" 
            />
        </svg>