<svg xmlns="http://www.w3.org/2000/svg" viewBox="58.18042999999995 243.0443999999996 73.62000000000003 78.45000000000016" width="73.62000000000003" height="78.45000000000016">
            <path 
                d="m 114.44043,243.3144 0,0 0.47,0.64 0.77,1.8 0.3,2 -0.17,1.29 -0.46,0.92 -0.8,0.85 -1.89,1.27 -0.67,0.95 -11.86,3.35 -2.1,2 -0.74,1.84 -0.59,0.07 -0.59,0.25 -0.09,0.62 -0.52,1.57 0.04,0.31 0.53,0.31 0.76,1.35 1.06,0.56 0.89,1.13 0.71,0.26 1.85,1.13 0.35,0.15 0.13,0.34 -0.05,0.41 -0.39,0.71 0.09,0.34 0.45,0.54 0.44,0.39 0.61,0.29 1.28,0.4 0.06,0.11 0.05,0.2 0.11,0.19 0.24,0.08 0.18,-0.04 0.17,-0.19 0.23,-0.04 0.26,0.06 0.19,0.15 0.16,0.19 1.68,1.28 0.6,0.28 0,0.53 0.62,0.63 0.86,0.53 1.44,0.35 4.16,2.1 0.36,0.42 0.19,0.5 0.44,0.14 0.5,0.03 0.38,0.17 0.8,0.95 0.67,1.28 0.44,0.49 0.64,0.19 0.5,0.25 1.1,1.23 3.99,5.25 5.45,11.5 0.67,0.97 0.41,0.39 -3.11,7.27 -2.48,3.43 0.06,2.04 0.4,2.56 -1.21,1.98 -3.54,2.33 -0.9,0.36 -0.08,-0.11 -0.65,-0.27 -0.51,-0.07 -0.3,-0.34 -0.28,-0.41 -0.43,-0.27 -0.53,-0.16 -0.23,-0.18 -0.04,-0.31 0.07,-0.56 0.14,-0.44 0.2,-0.35 0.18,-0.39 0.05,-0.55 -0.18,-0.52 -0.66,-0.51 -0.18,-0.51 -0.33,-0.16 -0.21,-0.23 -0.6,-0.83 -0.13,-0.22 -0.16,-0.22 -1.01,-0.97 -0.15,-0.23 -0.23,-0.54 0.01,-0.2 0.13,-0.15 0.3,-0.74 0.19,-0.23 0.12,-0.26 -0.05,-0.46 -0.19,-0.3 -0.91,-0.69 -0.56,-0.73 -0.38,-0.62 -0.44,-0.5 -0.72,-0.38 -1.92,-0.66 -0.47,-0.03 -1.56,0.86 -0.59,0.22 -1.2,0.13 -1.07,-0.23 -1.03,-0.55 -1.08,-0.79 0,-0.01 -0.01,0 -10.19,-8.91 -1.41,-1.6 -2.21,-1.35 -1.56,-1.26 -0.13,-0.07 -3.16,-1.84 -0.95,-0.95 -3.37,-1.62 -3.6,-1.12 -3.99,0.45 -1.98,-0.24 -0.72,-1.61 0,-0.01 0.41,-0.49 0.57,-0.46 0.5,-0.52 0.22,-0.69 -0.19,-0.55 -0.49,-0.44 -0.64,-0.27 -1.48,-0.17 -0.48,-0.41 0.04,-0.49 0.68,-0.38 0.74,-0.07 0.57,0.04 0.55,-0.11 0.71,-0.54 0.92,-0.91 0.46,-0.57 0.24,-0.51 -0.02,-0.37 -0.39,-0.25 -0.15,-0.38 0.02,-0.33 0.21,-0.77 -0.01,-0.42 -0.3,-0.68 -0.47,-0.49 -1.08,-0.87 -1.35,-1.91 -1.13,-1.1 -0.18,-0.59 -0.02,-0.68 -0.1,-0.82 -0.27,-0.77 -0.39,-0.7 -1.13,-1.42 -0.11,-0.08 -0.1,-0.06 -0.13,-0.08 -0.04,-0.02 -0.18,-0.03 -0.17,0.03 -0.16,0.09 -0.63,0.6 -1.03,0.13 -1,-0.23 -0.58,-0.5 0.53,-0.7 1.6,-0.98 0.42,-0.62 -0.24,-0.89 -0.71,-0.5 -0.6,-0.61 0.13,-1.25 -0.73,0.18 -1.65,0.03 -0.61,0.26 -0.99,0.95 -0.56,0.38 -0.59,0.14 -0.23,-0.28 0.01,-1.44 -0.11,-0.31 0.76,-0.64 0.72,-5.9 1.29,-4.06 0.37,-2.63 -0.47,-1.56 0.62,-0.73 2,0.06 5.25,-0.66 5.07,2.08 2.73,0.2 2.74,0.63 2.27,1.4 2.49,2.16 8.5,2.75 3.96,0.32 5.76,-1.47 5.31,0.24 0.71,-1.39 0.47,-2.64 -0.5,-1.03 -0.93,-1.39 0,-1.25 5.43,-1.26 1.15,0.1 0.56,0.17 z" 
                fill="rgb(151, 144, 238)" 
                stroke="white" 
                stroke-width=".7px"
                title="Ilam" 
                id="IR-05" 
            />
        </svg>