<svg xmlns="http://www.w3.org/2000/svg" viewBox="46.520430000000054 191.9644 88.65999999999997 67.84999999999997" width="88.65999999999997" height="67.84999999999997">
            <path 
                d="m 88.71043,209.5144 0,0 0.77,-0.06 0.14,0.87 -0.27,1.21 0.04,1.63 1.12,1.23 2.03,-0.22 3.06,0.36 2.29,-0.33 1.3,-0.69 0.16,-1.36 0.66,-0.89 1.11,-0.18 0.72,-0.83 0,-1.19 0.44,-0.91 1.42,-0.48 2.04,-2.13 2.11,-0.21 1.33,0.09 0.68,-0.39 0.21,-2.69 0.35,-0.8 4.85,-0.32 1.16,-1.07 0.11,-1.4 -0.61,-1.23 0.36,-0.79 0.99,0.08 1.33,1.15 3.88,1.76 5.2,5.88 1.46,0.22 1.05,-0.04 0.02,0.63 -0.18,1.15 -1.12,1.29 -1.34,3.02 -1.59,2.35 -3.39,0.39 -1.08,0.43 -0.49,0.64 0.33,1.64 1.72,1.4 2.49,1.36 1.11,0.22 0.92,0.49 0.5,1.7 0.86,1.31 2.89,-3.02 1.56,-0.69 0.78,-0.17 0.65,0.99 0.34,1.67 -0.37,2.72 0.08,1.91 -1.03,0.85 -3.8,-0.81 -3.36,0.24 -1.24,1.9 -0.59,1.15 -2.33,-0.31 -0.98,0.26 -0.65,0.43 -0.11,0.92 0.31,2.21 -0.19,2.3 -1.64,0.85 -2.42,0.12 -1.96,0.97 -0.2,0.58 0.08,0.4 0.21,0.27 0.23,0.25 0.17,0.33 0.06,0.47 -0.1,0.76 0.04,0.44 0.13,0.31 -0.49,0.79 -0.59,0.42 -0.56,-0.17 -1.15,-0.1 -5.43,1.26 0,1.25 0.93,1.39 0.5,1.03 -0.47,2.64 -0.71,1.39 -5.31,-0.24 -5.76,1.47 -3.96,-0.32 -8.5,-2.75 -2.49,-2.16 -2.27,-1.4 -2.74,-0.63 -2.73,-0.2 -5.07,-2.08 -5.25,0.66 -2,-0.06 -0.62,0.73 0.47,1.56 -0.37,2.63 -1.29,4.06 -0.72,5.9 -0.76,0.64 -0.12,-0.31 -1.6,-1.15 -0.51,-0.51 -0.47,-0.67 -0.33,-0.66 -0.24,-0.72 -0.14,-0.82 -0.25,-0.68 -0.44,-0.49 -0.52,-0.44 -0.46,-0.5 -3.01,-5.5 -0.07,-0.06 -0.07,-0.03 -0.08,-0.01 -1,0.15 -0.88,-0.05 -0.77,-0.44 -0.7,-0.98 0.72,-0.33 0.33,-0.23 0.28,-0.29 0.01,0 0,0 0.51,-1.14 0.29,-1.04 0.38,-0.91 0.83,-0.72 0.49,-0.54 1.37,-1.12 0.35,-0.47 0,-0.45 -0.2,-0.35 -0.25,-0.36 -0.16,-0.47 0.07,-0.37 0.48,-0.78 0.16,-0.37 0.46,-1.97 0.06,-1.01 -0.18,-0.93 -0.52,-0.8 -0.7,-0.45 -0.76,0 -0.67,0.55 -0.63,-0.47 -0.43,-0.89 -1.05,-3.37 0.33,-0.54 1.78,-0.4 0.24,-0.23 0.22,-0.26 0.2,-0.29 0.16,-0.33 0.04,-1.22 -0.28,-1.66 0.14,-1.13 1.32,0.39 1.16,0.62 1.05,0.25 2.33,0.18 0.74,0.27 0.2,-0.05 0.14,-0.26 0.09,-0.44 0.01,-0.44 -0.1,-0.27 -0.38,-0.53 -0.1,-0.7 -0.02,-0.77 -0.11,-0.78 -0.14,-0.29 -0.17,-0.2 -0.17,-0.25 -0.1,-0.44 -0.12,-0.33 -0.25,-0.3 -0.3,-0.24 -0.28,-0.16 -0.51,-0.57 0.26,-0.67 0.94,-1.08 0.11,-0.48 -0.08,-0.83 0.11,-0.49 0.33,-0.47 0.43,-0.18 0.96,-0.1 0.94,-0.66 0.17,-1 -0.07,-1.05 0.23,-0.8 0.78,-0.03 0.61,0.32 0.4,0.21 0.91,0.32 0.52,-0.69 0.26,-1.01 0.28,-0.75 0.09,-0.78 -0.31,-1.07 0,0 -0.1,-0.57 0.01,-0.55 0.16,-0.47 0.36,-0.36 0.23,-0.07 0.47,-0.05 0.2,-0.11 0.07,-0.19 -0.09,-0.51 0.03,-0.19 0.47,-0.78 0.24,-0.09 0.5,0.17 0.71,0.46 0.35,0.15 0.44,-0.04 1.01,0.45 0.54,-0.14 0.5,-0.47 0.91,-0.55 0.34,-0.04 0.6,0.16 0.86,-0.28 0.42,-0.09 0.37,-0.19 0.27,-0.5 -0.7,-0.82 0.45,-1.17 0.74,-1.26 0.12,-1.09 -0.51,-0.43 -1.31,0.01 -0.47,-0.33 -0.09,-0.65 0.3,-0.53 0.42,-0.5 0.17,-0.42 0.94,0.32 6.44,5.08 8.14,11.14 1.45,1.01 z" 
                fill="rgb(151, 144, 238)" 
                stroke="white" 
                stroke-width=".7px"
                title="Kermanshah" 
                id="IR-17" 
            />
        </svg>