<svg xmlns="http://www.w3.org/2000/svg" viewBox="351.90043 323.66439999999983 173.30000000000013 234.07000000000022" width="173.30000000000013" height="234.07000000000022">
            <path 
                d="m 468.28043,340.0844 0,0 38.55,17.43 4.85,3.63 13.52,19.71 -6.95,32.33 -0.3,3.24 0.8,0.85 1.53,1.01 1.35,3.42 1.17,8.21 -0.1,3.39 -1.03,3.84 -2.84,4.34 -0.49,2.5 0.49,2.57 0.04,3.17 1,2.09 0.35,1.5 -0.06,1.43 -0.99,1.08 -1.53,1.2 -7.88,4.59 -3.85,1.31 -1.96,1.05 1.26,1.95 2.78,2.11 1.21,1.95 -1.05,3.48 -3.91,5.11 0.23,13.28 -0.45,4.38 -3.9,15.31 0.01,3.77 0.82,3.2 0.12,1.42 -0.1,2.44 0.7,2.59 2.58,2.97 1.78,3.63 -0.96,2.88 -0.95,1.63 0.55,0.87 1.08,0.99 0.04,1.29 -1.09,1.3 -0.84,1.74 0.63,2.2 1.17,1.39 0.29,1.45 -0.54,1.45 -0.64,0.78 0.06,1.23 -0.46,0.61 -0.41,0.98 0.02,2.33 -0.2,1.4 -0.67,1.65 -1.38,-2.09 -0.49,-0.41 -0.93,0.01 -1.31,-0.52 -0.99,0.25 -1,1.05 -1.45,0.18 -1.68,-0.06 -1.4,-0.32 -0.57,-1.01 -0.1,-1.17 -0.34,-0.84 -0.08,-0.73 0.32,-0.7 0.05,-0.41 -0.64,-0.4 -2.11,-0.33 -1.3,-0.59 -1.19,-0.27 -1.17,0.55 -1.83,0.17 -2.78,-0.5 -4.49,0.32 -0.06,-0.77 0.69,-0.85 0.4,-2.11 0,-1.09 -0.19,-1.09 0.78,-7.39 0.47,-1.17 0.62,-0.76 0.19,-0.63 -0.05,-0.96 -0.82,-2.43 0.04,-0.76 0.73,0.04 2.12,1.29 0.29,-0.72 -0.97,-2.1 -1.99,-2.31 -2.53,-2.13 -2.33,-1.4 -2.23,-0.06 -1.39,0.95 -0.81,1.13 -1.6,1.5 -1.02,-0.32 -2.29,-1.69 -10.47,-5.56 -0.68,-2.21 -1.07,-14.26 -1.02,-2.99 -0.92,-1.88 -0.91,-0.46 -0.77,-1.11 0.59,-1.18 0.94,-0.79 -0.23,-1.92 -1.53,-2.33 -1.54,-1.69 -0.79,-1.52 -1.35,-1.76 -1.76,-0.96 -1.04,-0.13 -0.68,-0.57 -0.49,-0.81 -1.23,-5.97 0.3,-3.93 -0.27,-0.62 -3.53,-1.73 -1.84,-0.07 -1.56,1.23 -1.03,1.27 -3.67,3.49 -3.98,1.97 -2.17,0.39 -4.03,-0.62 -3.48,-2.11 -2.91,-2.68 -3.02,-3.91 -0.71,-3.76 0.84,-2.86 -0.65,-14.7 -0.95,-1.41 -1.02,0.13 -3.98,1.87 -6.77,5.14 -1.74,0.45 -1.52,-0.75 -1.48,-1.04 -1.48,-1.94 -3.03,-2.38 -6.12,-1.74 -2.87,-0.21 -6.85,-17.02 -1.97,-0.84 -7.76,-0.72 -1.51,-0.96 -0.81,-0.83 -0.74,-1.3 -0.38,-1.5 -2.75,-5.71 -0.93,-3.09 0.01,-0.77 1.49,-0.66 0.34,-0.29 3.42,-0.42 1.07,-0.76 -0.04,-1.11 -0.47,-1.56 -0.36,-2.22 0.43,-12.7 -1.09,-0.75 -1.09,-1.34 -0.81,-3.92 -2,-5.27 -1.89,-3.58 -0.09,-1.95 0.75,-2.87 1.57,-2.98 2.98,-3.33 19.03,-3.38 4.33,0.17 2.78,0.56 6.38,-0.87 5.74,-2.53 0.51,-2.75 0.44,-12.48 1.5,-3.23 17.98,-9.5 2.4,-2.55 7.04,-3.99 1.56,-1.69 0.73,-1.11 4.32,0.76 36.34,15.66 z" 
                fill="rgb(151, 144, 238)" 
                stroke="white" 
                stroke-width=".7px"
                title="Kerman" 
                id="IR-15" 
            />
        </svg>