<svg xmlns="http://www.w3.org/2000/svg" viewBox="121.02043000000002 283.6644000000003 96.49999999999993 122.67000000000002" width="96.49999999999993" height="122.67000000000002">
            <path 
                d="m 181.96043,293.7144 0,0 2.48,-0.53 1.64,4.07 1.83,0.98 2.95,-0.2 3.39,1.29 1.41,1.91 -0.73,1.12 -0.91,3 0.13,1.18 0.56,2.43 5.1,8.09 1.06,2.69 0.83,1.08 0.84,0.61 0.49,0.56 1.6,0.52 0.56,0.56 0.45,1.06 0.92,3.33 1.02,2.4 1.04,1.65 1.68,1.54 0.66,1.15 2.88,3.11 0.99,2.21 -0.1,1.85 -1.84,2.31 -1.21,2.34 -2.26,3.02 -4.05,3.64 -2.61,1.1 -1.15,0.88 -0.86,1.14 -0.56,1.29 0.03,2.31 1.54,5.59 0.1,1.6 -0.17,0.59 -0.15,1.18 -0.34,1.29 0.23,0.97 5.78,-0.77 1.36,1.76 2.65,2.63 3.23,1.72 1.91,1.39 0.58,2.08 -1.96,4.61 0.24,2.04 1.08,1.23 0.64,2.61 0.58,6.16 -5.23,-0.27 -1.95,-0.95 -3.49,0.58 -2.18,1.09 -0.89,-0.35 -1.22,-0.14 -1.26,0.19 -1.23,0.43 -10.63,6.81 -1.23,0.52 -1.09,-0.24 -0.95,-1.4 -0.09,-0.63 -0.01,-1.77 -0.26,-0.68 -0.25,-0.35 -0.09,-0.22 -0.12,-0.16 -0.37,-0.22 -0.33,-0.14 -0.32,-0.08 -0.73,-0.05 -0.36,0.04 -0.73,0.18 -0.41,0.05 -0.38,-0.08 -0.49,-0.37 -0.28,-0.08 -0.7,0.11 -1.27,0.54 -0.7,0.15 -0.88,-0.07 -0.32,-0.34 0.04,-1.61 -0.1,-0.12 -0.47,-0.34 -0.14,-0.23 -0.02,-0.21 0.02,-0.59 0.05,-0.29 0.14,-0.25 -0.01,-0.25 -0.41,-0.27 -0.2,0.66 -0.35,0.66 -0.49,0.46 -0.58,0.08 -0.61,-0.38 -0.29,-0.5 -0.36,-0.39 -0.59,-0.06 -0.79,-0.27 -2.24,-1.32 -0.46,-0.43 -0.22,-1.27 -0.6,-0.79 -0.89,-0.46 -1.08,-0.28 0.36,-0.65 0.56,-0.15 1.39,0.24 0.72,-0.04 1.12,-0.38 0.62,-0.1 0.69,0.17 1.38,0.74 0.48,0.17 0.75,0.07 0.57,0.24 0.46,0.42 0.44,0.61 0.2,-0.53 0.64,-1.14 1,-1.29 0.19,-0.42 0.03,-0.67 -0.7,0.14 -0.5,-0.32 -0.32,-0.61 -0.26,-1.44 -0.4,0.19 -0.53,0.57 -0.53,0.4 0.05,-0.5 0.05,-0.14 0.13,-0.17 -0.28,-0.44 -0.29,0.07 -0.34,0.26 -0.47,0.11 -0.21,-0.14 -0.37,-0.54 -0.23,-0.12 -0.22,0.04 -0.32,0.18 -0.17,0.05 -0.68,-0.11 -0.61,-0.18 -0.57,-0.03 -0.58,0.32 -1.21,-0.18 -0.97,0.61 -0.24,0.8 0.91,0.4 1.08,0.22 0.84,0.54 0.27,0.7 -0.68,0.69 -0.57,-0.01 -1.83,-0.26 -0.39,0.12 -1.85,1.73 -0.14,0.18 -0.3,0.47 -0.17,0.49 0.39,0.35 -0.14,0.28 -0.22,0.31 -0.12,0.21 0.25,0.84 0.6,0.61 0.68,0.52 0.56,0.61 0.28,0.7 0.22,0.88 0.19,1.76 -0.07,0.5 -0.3,0.8 -0.09,0.44 0.02,0.42 0.19,0.74 0.02,0.45 -0.21,0.77 -0.45,0.7 -0.61,0.49 -0.7,0.2 -2.3,-0.27 -0.59,0.27 -0.66,-0.31 -2.37,0.02 -1.43,-0.8 -0.55,-0.12 -0.09,0.68 0.16,0.46 0.46,0.74 0.09,0.54 -0.1,0.39 -0.25,0.33 -0.31,0.28 -0.29,0.19 -0.77,0.24 -2.49,-0.24 0,-0.27 -0.18,0.24 -0.04,0.1 -0.23,-0.11 -1.05,-0.3 -0.51,-0.31 -0.47,-0.37 -0.22,-0.22 -0.15,-0.26 -0.3,-0.76 -0.07,-0.51 -0.62,-1.95 -0.09,-0.06 -0.2,-0.41 -0.67,-0.76 -0.43,-0.91 -0.06,-0.27 0.07,-0.44 0.27,-0.32 0.32,-0.3 0.25,-0.33 0.09,-0.42 -0.07,-0.43 -0.17,-0.39 -0.22,-0.34 -1.32,-1.2 -1.09,-1.25 -0.69,-1.15 -0.31,-0.27 -0.41,-0.14 -0.43,-0.02 -1.24,0.21 -0.41,0.02 -0.4,-0.06 -0.37,-0.17 -0.27,-0.29 -0.15,-0.38 -0.28,-1.72 -0.31,-0.86 -0.43,-0.77 -0.57,-0.61 -0.35,-0.22 -0.37,-0.13 -3.59,-0.52 -0.05,-1.2 0,0 0.11,-18.98 -0.1,-0.51 -0.37,-0.22 -11.12,0 0.11,-9.56 0.09,-6.8 5.16,-14.07 0.2,-0.9 -0.09,-0.85 -0.47,-0.71 -1.33,-1.01 -0.55,-0.6 -0.12,-0.31 -0.17,-0.69 -0.19,-0.36 -0.26,-0.25 -0.61,-0.4 -0.23,-0.32 -1.22,-2.18 -0.16,-0.7 0,-0.01 -0.33,-0.7 -1.18,-0.58 -0.52,-0.6 -0.77,-1.74 -0.5,-0.72 0.9,-0.36 3.54,-2.33 1.21,-1.98 -0.4,-2.56 -0.06,-2.04 2.48,-3.43 3.11,-7.27 1.86,-2.71 4.62,-12.18 1.83,-1.4 8.36,-0.56 2.38,-0.74 3.6,-0.27 3.51,1.05 1.74,1.69 2.11,0.65 7.5,0.76 7.89,5.44 4.76,0.46 z" 
                fill="rgb(151, 144, 238)" 
                stroke="white" 
                stroke-width=".7px"
                title="Khuzestan" 
                id="IR-10" 
            />
        </svg>