<svg xmlns="http://www.w3.org/2000/svg" viewBox="200.19043 346.02439999999984 59.370000000000005 52.96000000000015" width="59.370000000000005" height="52.96000000000015">
            <path 
                d="m 220.02043,349.8844 0,0 1.78,-0.1 1.04,0.13 12.6,11.23 1.16,-0.02 3.88,0.51 1.84,-0.96 1.68,-1.48 2.19,-0.42 1.16,0.09 0.24,2.64 1.87,4.85 3.65,3.89 4.74,3.42 0.69,0.67 1,4.92 0.02,1.88 -0.19,0.39 -0.86,0.86 -1.67,0.99 -1.88,0.51 -3.59,-0.93 -1.26,-0.77 -0.76,-0.96 -0.86,-0.19 -3.88,-1.89 -2.76,-0.69 -0.51,0.59 0.56,3.31 1.07,3 0.07,0.89 -0.47,0.84 0.25,0.86 0.83,1.39 -0.04,2.03 -0.72,1.51 -9.04,5.29 -1.44,0.23 -5.68,-0.35 -3.4,0.84 0,0.1 -0.59,-0.56 -1.26,-0.91 -3.96,-1.43 -0.58,-6.16 -0.64,-2.61 -1.08,-1.23 -0.24,-2.04 1.96,-4.61 -0.58,-2.08 -1.91,-1.39 -3.23,-1.72 -2.65,-2.63 -1.36,-1.76 -5.78,0.77 -0.23,-0.97 0.34,-1.29 0.15,-1.18 0.17,-0.59 -0.1,-1.6 -1.54,-5.59 -0.03,-2.31 0.56,-1.29 0.86,-1.14 1.15,-0.88 2.61,-1.1 4.05,-3.64 2.26,-3.02 2.4,1.47 5.94,2.39 z" 
                fill="rgb(151, 144, 238)" 
                stroke="white" 
                stroke-width=".7px"
                title="Kohgiluyeh and Buyer Ahmad" 
                id="IR-18" 
            />
        </svg>