<svg xmlns="http://www.w3.org/2000/svg" viewBox="50.620430000000006 140.85440000000008 92.25999999999999 73.6799999999999" width="92.25999999999999" height="73.6799999999999">
            <path 
                d="m 142.88043,175.1144 0,0 -4.99,-2.73 -1.22,0.34 0.6,1.67 1,1.3 0.4,0.89 -0.01,1.05 -2.41,0.82 -0.97,0.95 -1.11,0.5 -1.05,-0.29 -1.6,-3.33 -0.78,0.08 -1.77,1.99 -0.53,1.05 2.36,3.5 3.65,8.17 1.66,2.03 1.39,0.87 1.93,1.92 0.93,3.83 -0.67,3.09 -1.19,1.91 -1.13,0.99 -0.73,-0.39 -1.09,-2.68 -0.63,0.16 -0.38,1.16 -1.23,0.67 -2.08,0.59 -1.03,0.56 -1.05,0.04 -1.46,-0.22 -5.2,-5.88 -3.88,-1.76 -1.33,-1.15 -0.99,-0.08 -0.36,0.79 0.61,1.23 -0.11,1.4 -1.16,1.07 -4.85,0.32 -0.35,0.8 -0.21,2.69 -0.68,0.39 -1.33,-0.09 -2.11,0.21 -2.04,2.13 -1.42,0.48 -0.44,0.91 0,1.19 -0.72,0.83 -1.11,0.18 -0.66,0.89 -0.16,1.36 -1.3,0.69 -2.29,0.33 -3.06,-0.36 -2.03,0.22 -1.12,-1.23 -0.04,-1.63 0.27,-1.21 -0.14,-0.87 -0.77,0.06 -1.45,-1.01 -8.14,-11.14 -6.44,-5.08 -0.94,-0.32 0.08,-0.17 -0.25,-1.22 -0.81,-0.94 -1.87,-1.68 -2.17,-3.48 -0.44,-1.2 -0.01,-0.38 0.08,-0.34 0.18,-0.27 0.27,-0.21 0.13,-0.16 0.05,-0.17 -0.05,-0.18 -0.13,-0.17 -0.38,-0.79 -0.3,-0.85 0.16,-0.04 0.16,0 1.04,0.32 0.09,-0.58 -0.33,-1.6 0,-0.69 0.12,-0.73 0.27,-0.66 0.43,-0.47 0.7,-0.25 2.37,0.07 0.69,-0.16 1.7,-0.9 1.33,0.07 0.71,-0.08 0.53,-0.51 0.46,-0.68 1.03,-0.66 0.53,-0.48 0.4,-0.69 0.07,-0.65 -0.25,-0.56 -0.57,-0.4 -0.73,-0.07 -0.6,0.3 -0.58,0.4 -0.65,0.24 -1.43,0.31 -0.73,0.03 -0.68,-0.29 -0.28,-0.23 -0.21,-0.23 -0.14,-0.29 -0.17,-0.85 -0.16,-0.15 -0.25,-0.04 -1.04,-0.4 -0.56,-0.01 -0.55,0.2 -0.65,0.38 -0.68,0.22 -2.16,-0.1 -1.09,0.38 -0.35,-0.04 -0.34,-0.11 -0.35,-0.01 -0.82,0.7 -0.65,0.33 -0.7,0.05 -0.55,-0.38 -0.38,-0.08 -1.28,0.39 -0.61,-0.17 -0.41,-0.55 -0.87,-2.16 -1.57,-2.23 -1.01,-0.93 -0.92,-0.17 -0.44,-0.28 -1.25,-1.16 -1.3,-0.48 0,0 0.02,-0.02 1.14,-0.7 1.33,-1.33 0.56,-1.37 1.88,-2.14 0.46,-2.04 0.75,-0.77 0.39,-0.67 1.02,-1.11 5.51,-1.78 1.63,-2.48 0.05,-2.03 0.75,-0.97 2.96,-1.18 8.52,1.22 17.52,-1.62 0.4,0.33 0.24,0.51 0.48,0.64 0.68,0.57 0.58,0.64 1.3,0.9 3.51,0.97 3.84,0.34 2.56,-1.13 1.43,-1.66 0.58,-1.16 0.18,-0.66 -0.24,-0.69 0.14,-0.83 1,-0.61 0.83,-0.26 0.98,0.99 17.06,3.4 0.12,0.18 1.07,1.19 0.23,0.45 0.13,0.81 0.33,0.94 0.38,0.82 0.32,0.47 -0.35,0.33 -0.07,0.37 0.21,1.02 -0.05,0.29 -0.14,0.26 -0.11,0.28 0.04,0.31 0.14,0.06 0.59,0.07 0.64,2.37 0,4.26 -0.75,3.07 -1.33,1.4 -0.56,1.51 0.47,1.11 9.32,5.68 0.62,0.58 0.67,1.14 0.3,0.9 z" 
                fill="rgb(151, 144, 238)" 
                stroke="white" 
                stroke-width=".7px"
                title="Kordestan" 
                id="IR-16" 
            />
        </svg>