<svg xmlns="http://www.w3.org/2000/svg" viewBox="95.50042999999995 230.23440000000016 107.50999999999995 71.28999999999974" width="107.50999999999995" height="71.28999999999974">
            <path 
                d="m 124.87043,230.5444 0,0 0.85,0.38 1.45,0.94 0.7,1.02 14.54,9.57 7.52,0.91 1.25,0.47 1.01,-0.26 1.78,-1.84 0.88,-0.24 1.8,0.11 2.22,-0.25 9.24,3.95 -0.53,0.87 -0.24,1.33 0.42,1.1 0.12,0.93 -1.36,3.13 -0.28,0.9 -0.18,0.98 0.44,0.86 1.73,1 2.24,0.83 3.82,0.33 0.93,0.35 2.71,-1.72 0.64,-0.68 1.16,-3.55 1.5,-0.87 1.87,-0.63 1.7,-0.98 1.86,0.6 1.48,1.8 0.92,1.58 0.04,1.08 -0.54,1.17 -0.36,1.21 0.32,0.95 1.1,0.94 2.55,1.29 1.16,1.23 1.05,0.83 0.79,-0.54 0.22,-1.05 0.67,-1.32 1.18,-0.85 0.76,0.46 0.54,0.97 1.09,0.84 0.73,0.76 -0.05,1.19 0.24,1.16 2.16,1.17 0.3,0.33 -0.76,1.62 -0.14,2.2 0.09,1.75 -3.43,6.9 -0.19,0.95 -0.07,0.75 -0.81,0.48 -5.03,1.42 -1.95,2.3 -0.61,4.78 -1.55,1.17 -2.7,0.9 -0.77,0.5 -0.46,0.82 -0.21,0.97 0.02,0.39 -2.48,0.53 -4.76,-0.46 -7.89,-5.44 -7.5,-0.76 -2.11,-0.65 -1.74,-1.69 -3.51,-1.05 -3.6,0.27 -2.38,0.74 -8.36,0.56 -1.83,1.4 -4.62,12.18 -1.86,2.71 -0.41,-0.39 -0.67,-0.97 -5.45,-11.5 -3.99,-5.25 -1.1,-1.23 -0.5,-0.25 -0.64,-0.19 -0.44,-0.49 -0.67,-1.28 -0.8,-0.95 -0.38,-0.17 -0.5,-0.03 -0.44,-0.14 -0.19,-0.5 -0.36,-0.42 -4.16,-2.1 -1.44,-0.35 -0.86,-0.53 -0.62,-0.63 0,-0.53 -0.6,-0.28 -1.68,-1.28 -0.16,-0.19 -0.19,-0.15 -0.26,-0.06 -0.23,0.04 -0.17,0.19 -0.18,0.04 -0.24,-0.08 -0.11,-0.19 -0.05,-0.2 -0.06,-0.11 -1.28,-0.4 -0.61,-0.29 -0.44,-0.39 -0.45,-0.54 -0.09,-0.34 0.39,-0.71 0.05,-0.41 -0.13,-0.34 -0.35,-0.15 -1.85,-1.13 -0.71,-0.26 -0.89,-1.13 -1.06,-0.56 -0.76,-1.35 -0.53,-0.31 -0.04,-0.31 0.52,-1.57 0.09,-0.62 0.59,-0.25 0.59,-0.07 0.74,-1.84 2.1,-2 11.86,-3.35 0.67,-0.95 1.89,-1.27 0.8,-0.85 0.46,-0.92 0.17,-1.29 -0.3,-2 -0.77,-1.8 -0.47,-0.64 0.59,-0.42 0.49,-0.79 -0.13,-0.31 -0.04,-0.44 0.1,-0.76 -0.06,-0.47 -0.17,-0.33 -0.23,-0.25 -0.21,-0.27 -0.08,-0.4 0.2,-0.58 1.96,-0.97 2.42,-0.12 1.64,-0.85 0.19,-2.3 -0.31,-2.21 0.11,-0.92 0.65,-0.43 0.98,-0.26 2.33,0.31 z" 
                fill="rgb(151, 144, 238)" 
                stroke="white" 
                stroke-width=".7px"
                title="Lorestan" 
                id="IR-20" 
            />
        </svg>