<svg xmlns="http://www.w3.org/2000/svg" viewBox="165.5404300000001 175.6644 72.39999999999995 89.62000000000006" width="72.39999999999995" height="89.62000000000006">
            <path 
                d="m 226.55043,180.9344 0,0 0.96,-0.2 0.94,-1.92 1.56,-0.14 1.57,1.96 0.87,1.69 0.02,2.91 -2.93,9.49 -0.96,1.35 -1.13,3.23 -0.6,6.35 -0.4,1.59 -0.62,0.37 -3.51,1.19 -4.2,0.66 -2.01,1.33 -2.95,0.85 -3.05,-0.42 -1.93,1.57 -0.05,2.69 0.7,0.99 -0.36,0.83 -3.16,1.78 -0.32,2.12 1.83,2.15 1.5,1.35 1.23,0.56 1.36,-0.12 1,0.61 0.99,1.17 0.51,1.21 -0.14,1.68 0.82,2.04 1.57,1.95 2.24,1.86 8.74,0.82 3.49,1.92 7.81,2.13 -0.4,2.44 -3.23,7.83 -0.91,1.61 -1.94,0.01 -2.13,0.68 -1.9,1.61 -2.12,1.31 -14.11,3.72 -5.38,3.2 -2.81,2.34 -0.3,-0.33 -2.16,-1.17 -0.24,-1.16 0.05,-1.19 -0.73,-0.76 -1.09,-0.84 -0.54,-0.97 -0.76,-0.46 -1.18,0.85 -0.67,1.32 -0.22,1.05 -0.79,0.54 -1.05,-0.83 -1.16,-1.23 -2.55,-1.29 -1.1,-0.94 -0.32,-0.95 0.36,-1.21 0.54,-1.17 -0.04,-1.08 -0.92,-1.58 -1.48,-1.8 -1.86,-0.6 -1.7,0.98 -1.87,0.63 -1.5,0.87 -1.16,3.55 -0.64,0.68 -2.71,1.72 -0.93,-0.35 -3.82,-0.33 -2.24,-0.83 -1.73,-1 -0.44,-0.86 0.18,-0.98 0.28,-0.9 1.36,-3.13 -0.12,-0.93 -0.42,-1.1 0.24,-1.33 0.53,-0.87 3.53,-3.18 0.6,-0.82 0.1,-0.96 -0.62,-2.64 -0.19,-2.24 -0.54,-2.24 -2.4,-4.73 -0.27,-4.33 -0.58,-2.59 -1.71,-0.68 -0.49,-1.16 1.18,-0.47 3.49,0.36 1.57,0.76 0.76,-0.18 -0.58,-3.18 0.12,-2.89 0.9,-1.47 0.4,-1.46 -0.38,-2.4 0.85,-1.29 6.16,-0.33 2.93,0.51 0.82,1.19 -0.72,1.53 0.51,1.88 1.34,1.59 1.09,1.01 1.49,0.14 0.82,-1.67 -0.73,-4.44 -0.85,-2.05 -1.63,-1.93 -1.73,-0.84 -3.64,-1 -1.52,-0.78 -0.78,-0.76 -0.09,-0.59 0.61,-0.69 1.03,-0.11 1.95,-0.61 1.63,-1.91 -0.42,-1.91 -1.51,-2.52 -0.64,-2.78 1.06,-1.35 0.92,-0.07 0.08,0.78 -0.04,1.05 0.66,0.95 1.16,0.21 1.14,-1.27 0.13,-1.59 -0.8,-1.06 -0.29,-1.48 0.02,-0.99 5.94,-0.16 1.02,-2.34 1.42,-1.06 5.96,-1.82 1.75,-0.87 1.87,-0.54 1.56,-0.09 6.07,-2.65 2.02,-0.12 1.01,0.15 1.46,0.34 3.42,0.22 3.32,0.97 1.95,1.76 0.85,0.51 0.35,-0.62 0,-0.7 -1.31,-1.82 0.43,-1.12 1.91,0.02 1.31,1.55 -0.01,2.31 0.24,1.39 z" 
                fill="rgb(151, 144, 238)" 
                stroke="white" 
                stroke-width=".7px"
                title="Markazi" 
                id="IR-22" 
            />
        </svg>