<svg xmlns="http://www.w3.org/2000/svg" viewBox="213.2704299999999 120.50440000000006 129.2200000000001 51.400000000000006" width="129.2200000000001" height="51.400000000000006">
            <path 
                d="m 328.44043,127.8244 0,0 0,0 0.05,0.55 0.38,1.05 1.18,2.05 7.48,4.53 3.58,3.7 1.38,2.11 -3.41,1.02 -2.82,1.66 -2.54,2.56 -1.2,2.33 -0.75,2.54 -0.54,3.38 -1.34,1.55 -3.47,3.1 -0.78,1.15 -0.42,1.05 -0.8,1.12 -1.47,1.31 -2.4,1.3 -2.59,0.84 -1.69,0.23 -1.1,-0.61 -1.76,0.6 -2.15,1.24 -1.6,0.45 -3.43,0.38 -0.5,0.22 -3.04,-2.11 -1.47,-0.34 -1.09,0.65 -1.79,0.25 -2.58,-0.54 -3.87,-2.1 -3.05,-0.57 -2.41,-1.01 -2.24,-0.3 -3.11,2.46 -4.4,5.33 -2.33,0.95 -2.67,-0.16 -1.66,-0.6 -1.01,-0.6 -1.22,-1.4 -1.96,-3.69 -3.46,-3.74 -4.61,-1.81 -5.19,-0.44 -3.66,-2.16 -2.2,-2.6 -5.55,-1.23 -1.42,-0.62 -1.29,-1.19 -0.61,-0.89 -2.16,-0.86 -5.59,-1.11 -0.04,-0.84 -0.39,-1.14 -5.49,-4.19 -1.87,-1.02 -9.03,-7.62 1.76,-1.15 2.08,-3.71 0.74,-3.51 1.36,-1.35 1.76,-0.95 1.16,-1.6 0.33,-1.08 0.02,-0.14 0,0 1.61,1.09 0.71,0.17 0.47,0.21 1,1.09 0.5,0.43 5.34,2.92 4.88,3.46 2.84,1.3 9.45,1.88 6.04,1.75 6.26,1.13 6.03,1.75 6.27,-0.83 5.57,-2.05 5.82,-1.44 6.03,-1.15 5.78,-1.18 5.8,-1.73 5.59,-1.73 11.24,-2.53 1.52,-0.25 13.33,-0.76 2.43,-0.59 1.65,-1.39 -0.08,1.61 -1.91,0.67 -2.41,0.3 -1.55,0.48 -0.43,0.21 -0.48,-0.07 -0.91,-0.29 -0.51,0.08 -0.93,0.37 -0.53,0.11 -1.98,-0.27 -1.74,0 0.27,0.48 0.47,0.15 1.12,-0.05 -0.68,0.23 -0.27,0.03 0.82,1.1 1.39,0.61 0.14,0.02 z" 
                fill="rgb(151, 144, 238)" 
                stroke="white" 
                stroke-width=".7px"
                title="Mazandaran" 
                id="IR-21" 
            />
        </svg>