<svg xmlns="http://www.w3.org/2000/svg" viewBox="401.66043 65.40440000000002 79.93000000000006 70.62999999999998" width="79.93000000000006" height="70.62999999999998">
            <path 
                d="m 456.82043,80.6944 0,0 0.54,-0.08 0.52,-0.16 0.58,-0.09 0.57,0.07 1.72,0.5 1.65,-0.03 0.51,-0.13 0.51,0 0.46,0.29 0.42,0.37 0.43,0.27 0.17,0.02 -4.11,2.54 -1.28,1.3 0.01,1.87 -0.39,1.59 -0.55,1.48 1.29,0.93 15.19,0.72 0.64,0.8 0.43,1.46 0.78,1.78 3.07,2.88 0.93,1.91 0.21,1.71 -0.75,1.37 -0.89,1.1 -0.31,0.74 -0.03,0.85 -0.34,1.26 -1.22,1.71 -2.03,6.01 -1.38,1.71 0.16,1.48 1.66,1.15 0.94,1.04 0.61,1.19 0.9,-0.14 0.49,-1.28 0.44,-0.2 0.29,1.09 0.68,1.04 1.12,0.54 0.13,0.98 -2.01,2.17 -0.22,1.18 0.44,0.67 1.21,0.72 0.28,1.32 -1.13,3.3 -1.27,1.2 -2.56,0.63 -9.38,-1.44 -22.43,-12.47 -5.4,-0.26 -8.16,6.63 -1.95,2.61 -0.27,1.92 0.26,1.5 -0.11,1.15 -5.16,0.87 -1.68,-0.65 -3.23,-0.55 -1.9,-0.64 -3.85,-3.31 -4.01,-4.51 -0.63,-1.34 0.12,-0.85 0.64,-2.53 0.17,-2.88 -0.17,-1.12 -0.21,-0.45 -0.22,-0.34 0.21,-0.63 0.87,-0.7 1.98,-0.59 0.35,-0.97 -1.65,-0.69 -1.33,0.23 -2.41,-1.7 -5.12,-6.83 1.03,-1 2.47,-4.4 2.46,-1.02 1.03,-0.95 1.02,-0.46 0.91,-0.14 3.97,-1.38 1.86,-2.6 -0.63,-2.61 -1.38,-1.06 -1.6,-0.79 -1.15,-1.37 -0.07,-1.94 0.69,-2.77 0.03,-1.02 -0.41,-1.8 -0.09,-1.56 0.22,-1.22 -0.22,-3.01 1.05,0.43 0.55,0.08 2.9,-0.49 0.53,-0.4 0.34,-0.67 0.12,-0.8 -0.16,-0.75 -0.92,-1.06 0.21,-0.59 2.14,-1.99 1.14,-0.8 1.23,-0.47 3.11,-0.1 0.57,0.14 0.48,0.29 0.42,0.34 0.46,0.21 0.54,-0.1 2.72,-1.19 1.62,-0.28 0.33,0.06 1.32,1.09 1.16,0.67 0.53,0.17 5.09,0.96 1.35,0.55 0.69,0.11 0.61,-0.34 0.47,-0.42 1.1,-0.74 0.4,-0.43 0.68,-1.19 0.1,-0.12 0.3,-0.32 0.59,-0.28 0.37,-0.05 0.37,0.05 0.72,0.24 0.38,0.25 0.09,0.28 0.02,0.32 0.14,0.38 0.78,1.33 0.61,1.49 0.4,0.6 1.11,1.2 0.39,1.29 0.73,1.03 0.16,0.76 -0.08,0.71 -0.67,2.27 0.86,1.15 4.87,1.94 z" 
                fill="rgb(151, 144, 238)" 
                stroke="white" 
                stroke-width=".7px"
                title="North Khorasan" 
                id="IR-31" 
            />
        </svg>