<svg xmlns="http://www.w3.org/2000/svg" viewBox="155.49042999999995 127.9543999999999 74.60000000000002 57.67000000000006" width="74.60000000000002" height="57.67000000000006">
            <path 
                d="m 189.74043,137.3244 0,0 1.73,-0.07 1.04,0.18 0.73,0.5 3.13,0.63 1.68,-0.3 6.36,-3.46 0.7,-0.24 0.75,-0.4 2.81,-0.63 4.6,0.46 9.03,7.62 1.87,1.02 5.49,4.19 0.39,1.14 0.04,0.84 -8.06,-0.86 -3.84,0.31 -0.98,1.49 1.73,2.38 1.25,1.07 2.4,0.72 1.57,1.35 -1.07,3.62 -1.63,3.39 -0.4,1.54 -1.16,1.11 -6.86,3.35 -1.86,1.8 -0.42,1.63 0.28,1.29 0.86,1.92 0.73,1.21 -1.01,-0.15 -2.02,0.12 -6.07,2.65 -1.56,0.09 -1.87,0.54 -1.75,0.87 -5.96,1.82 -1.42,1.06 -1.02,2.34 -5.94,0.16 -0.83,-0.58 -4.81,-1.22 -0.95,0.25 -4.34,-0.74 -2.31,-1.77 1.03,-1.57 -1.29,-1.62 -2.82,-1.62 -3.7,-0.07 -1.58,0.7 -2.52,-3.71 -4.3,-3.88 -0.1,-1.3 0.71,-0.47 1.06,-0.24 1.45,-0.05 1.23,-0.25 1.89,-1.4 3.07,-0.85 2.22,0.15 3.09,1.43 -0.05,-0.46 0.18,-1.66 2.07,-2.35 3.42,-1.94 6.18,-1.67 0.78,-1.14 -0.54,-4.45 -0.78,-1.74 -1.06,-1.76 -0.56,-2.08 -0.63,-1.15 -0.88,-0.5 -0.64,-0.69 -0.65,-0.36 -1.03,-0.07 -1.68,-0.84 -1.13,-1.71 -1.09,-2.74 -1.82,-2.27 -0.7,-2.67 1.38,-3.2 3.68,-2.46 2.76,-0.95 3.21,1.55 0.06,0.71 0.43,1.35 1.91,2.43 2.06,1.94 4.65,1.39 z" 
                fill="rgb(151, 144, 238)" 
                stroke="white" 
                stroke-width=".7px"
                title="Qazvin" 
                id="IR-28" 
            />
        </svg>