<svg xmlns="http://www.w3.org/2000/svg" viewBox="204.99042999999992 194.72440000000003 62.170000000000044 45.81" width="62.170000000000044" height="45.81">
            <path 
                d="m 266.71043,208.9144 0,0 0.45,1.65 -0.09,3.36 -0.91,3.61 -1.49,3.5 -1.13,1.62 -11.42,2.97 -2.62,-0.14 -7.31,0.84 -3.23,1.41 -1.27,1.28 -0.4,1.2 -1.02,8.04 0.71,1.77 0.96,0.51 -7.81,-2.13 -3.49,-1.92 -8.74,-0.82 -2.24,-1.86 -1.57,-1.95 -0.82,-2.04 0.14,-1.68 -0.51,-1.21 -0.99,-1.17 -1,-0.61 -1.36,0.12 -1.23,-0.56 -1.5,-1.35 -1.83,-2.15 0.32,-2.12 3.16,-1.78 0.36,-0.83 -0.7,-0.99 0.05,-2.69 1.93,-1.57 3.05,0.42 2.95,-0.85 2.01,-1.33 4.2,-0.66 3.51,-1.19 0.62,-0.37 0.4,-1.59 0.6,-6.35 1.13,-3.23 0.96,-1.35 0,0.11 9.73,0.11 8.13,2.45 19.31,11.52 z" 
                fill="rgb(151, 144, 238)" 
                stroke="white" 
                stroke-width=".7px"
                title="Qom" 
                id="IR-26" 
            />
        </svg>