<svg xmlns="http://www.w3.org/2000/svg" viewBox="413.28042999999957 81.60439999999987 172.02000000000066 214.01" width="172.02000000000066" height="214.01">
            <path 
                d="m 467.11043,83.0344 0,0 0.55,-0.04 0.57,-0.13 0.55,-0.05 1.18,0.32 5.31,2.56 2.23,0.53 1.14,0.09 0.55,0.13 0.57,0.28 0.25,0.29 0.01,0.3 -0.08,0.3 0.03,0.34 0.54,1 0.12,0.32 0.08,0.78 0.01,0.59 0.16,0.49 0.58,0.48 0.58,0.22 2.64,0.4 0.42,0.2 0.9,0.64 0.47,0.13 3.07,-0.31 0.58,-0.28 0.46,-0.71 0.31,-0.72 0.41,-0.6 0.52,-0.38 0.66,-0.05 0.56,0.29 1.7,1.51 1.46,0.6 0.77,0.12 0.76,-0.08 0.29,-0.18 0.22,-0.26 0.24,-0.2 0.38,0 0.72,0.14 0.35,-0.03 0.36,-0.12 0.45,-0.56 0.08,-0.64 0.19,-0.29 2.03,1.13 2.63,0.61 1.33,0.61 0.48,0.35 0.45,0.15 0.98,0.15 0.38,0.2 1.11,1.15 4.51,3.27 0.73,0.07 1.9,-0.88 0.78,0.21 0.68,0.65 0.65,0.91 0.16,0.56 -0.1,0.95 0.2,0.46 0.09,0.36 -0.14,0.38 -0.21,0.42 -0.11,0.47 0.08,0.9 0.67,2.93 0.39,0.59 2.12,1.77 0.64,0.71 0.2,0.28 -0.04,0.21 -0.13,0.14 -0.04,0.12 -0.05,0.29 -0.1,0.35 0.1,0.3 0.56,0.15 0.22,0.23 0.27,0.22 0.29,0.14 0.28,0.02 1.07,-0.43 0.5,0.09 0.57,0.61 0.24,0.66 0.16,0.81 0.24,0.7 0.45,0.36 0.32,-0.07 0.24,-0.25 0.4,-0.63 0.32,-0.17 0.36,0.02 4.87,1.6 2.22,1.88 1.25,0.73 2.78,0.5 1.27,0.55 1,1.35 1.27,2.71 1.57,2.4 3.59,4.39 0.71,1.15 0.98,2.59 0.7,1.23 1.12,0.63 5.38,-0.1 4.74,-0.09 7.22,-0.13 4.02,-0.07 3.47,-0.06 1.68,0.29 1.38,0.19 0.28,1.44 0.28,0.65 0.12,0.39 0.06,0.53 -0.05,0.51 -0.13,0.47 -0.19,0.41 -0.21,0.32 -0.14,0.45 0.05,0.5 0.21,0.63 -0.73,3.39 -0.2,2.07 0.48,1.2 -0.1,0.17 -0.06,0.12 -0.09,0.29 0.33,0.14 0.27,0.21 0.21,0.26 0.14,0.25 0.13,0.44 0.06,0.44 0.02,0.97 0.11,0.41 0.49,0.82 0.51,2.61 0.09,1.26 0.05,0.21 -0.06,0.26 -0.36,0.47 -0.17,0.29 -0.1,0.37 -0.06,0.41 -0.02,0.39 -0.13,0.45 -0.28,0.21 -0.32,0.13 -0.21,0.19 -0.1,0.51 0.12,0.84 -0.02,0.39 -0.42,0.45 -0.69,0.56 -0.39,0.5 0.47,0.21 0.83,0.13 0.68,0.37 0.59,0.55 0.55,0.66 0.35,0.58 0.3,0.71 0.21,0.73 0.15,1.5 0.13,0.63 0.02,0.68 -0.22,0.93 0.22,0.31 0,0.41 -0.22,0.99 -0.02,0.23 0.02,0.74 -0.1,0.29 -0.46,0.46 -0.14,0.25 0.09,1.11 0.46,0.94 0.83,1.29 0.24,0.38 0.36,1.71 0.09,0.84 -0.21,0.86 -0.46,0.79 -0.79,0.97 -0.37,0.8 -0.3,1.3 -0.18,0.43 -0.71,0.96 -0.2,0.46 -0.16,0.85 0.16,2.14 -0.27,0.73 -0.65,0.38 -0.81,0.13 -0.72,0.02 -0.49,0.4 -0.2,0.89 -0.02,0.88 0.02,0.4 0.19,0.18 0.16,0.4 -0.01,0.4 -0.34,0.18 -0.2,0.19 0.17,0.41 1.21,1.63 0.09,0.18 -0.07,0.47 -0.09,0.36 0.06,0.34 0.35,0.38 -0.82,1.16 -0.24,0.59 -0.2,1.71 -0.5,1.55 -0.11,0.81 -0.11,0.39 -0.47,0.78 -0.11,0.52 0.03,0.42 0.15,0.77 0.03,0.36 -0.15,1.45 -0.27,1.37 -1.04,0.34 -0.19,0.69 -0.66,1.18 -1.07,0.84 -0.61,0.72 -0.05,0.97 0.12,1.06 -0.14,1.01 -0.35,0.47 -0.4,0.09 -0.44,-0.03 -0.47,0.07 -0.46,0.26 -0.22,0.28 -0.17,0.33 -1.54,1.76 -0.66,0.45 -0.84,0.24 -1.86,0.25 -0.84,0.43 -0.5,0.87 0.36,0.05 0.29,0.16 0.22,0.29 0.29,0.98 0.3,0.28 0.83,0.38 0.41,0.38 0.33,0.47 0.54,1.07 2.51,3.28 0.38,0.77 -2.52,0.14 -3.44,0.22 -2.39,0.14 0.23,0.87 -0.53,0.58 -1.61,0.86 -1.18,1.24 -1.07,1.39 -0.95,1.92 -0.21,1.83 0.06,0.55 -0.01,0 -2.64,0.45 -21.07,0.06 -4.45,-1.58 -3.32,-5.44 -1.82,-1.56 -3.53,1.32 -3.14,1.81 -10.05,1.49 -0.97,1.08 -0.92,0.67 -3.48,-1.06 -5.39,-0.69 -1.82,0.7 -0.49,1.17 0.19,1.07 1.32,2.14 -0.32,2.71 -0.71,3 0.36,1.8 -0.13,1.62 -0.87,2.09 -0.51,2.31 0.16,1.74 0.95,0.92 0.79,0.58 0.35,0.96 0.29,1.17 5.13,3.75 -1.01,1.87 -0.2,1.16 -1.69,2.71 -1.51,1.54 -10.64,7.07 -4.7,7.14 -1.12,4.78 -1.45,2.49 -0.85,1.02 -0.89,-0.64 -2.74,-4.3 -2.87,-1.8 -2.19,-0.99 -0.81,-0.63 -2.88,-1.65 -2.2,-5.05 -2.53,-17.12 -1.34,-2.59 -1.45,-1.85 -8.66,2.02 -6.72,-0.81 -1.59,-2.51 -2.11,-11.75 0.28,-6.91 4.26,-12.86 2.31,-4.17 13.42,-9.52 3.28,-3.22 0.46,-2.64 -1.16,-2.61 -9.88,-7.59 -3.77,-0.99 -8.52,2.2 -13.46,6.4 -13.84,3.62 5.44,-6.75 4.37,-4 3.85,-2.3 7.15,-2.69 1.03,-0.81 1.44,-3.35 5.89,-10.15 0.52,-2.91 -2.22,-2.56 -8.03,-6.57 -0.92,-2.35 -1.1,-5.06 -0.64,-7.87 0.5,-4.58 1.37,-2.62 0.91,-3.93 -0.83,-3.32 -1.37,-0.82 -1.08,-0.04 -0.67,0.19 0.11,-1.15 -0.26,-1.5 0.27,-1.92 1.95,-2.61 8.16,-6.63 5.4,0.26 22.43,12.47 9.38,1.44 2.56,-0.63 1.27,-1.2 1.13,-3.3 -0.28,-1.32 -1.21,-0.72 -0.44,-0.67 0.22,-1.18 2.01,-2.17 -0.13,-0.98 -1.12,-0.54 -0.68,-1.04 -0.29,-1.09 -0.44,0.2 -0.49,1.28 -0.9,0.14 -0.61,-1.19 -0.94,-1.04 -1.66,-1.15 -0.16,-1.48 1.38,-1.71 2.03,-6.01 1.22,-1.71 0.34,-1.26 0.03,-0.85 0.31,-0.74 0.89,-1.1 0.75,-1.37 -0.21,-1.71 -0.93,-1.91 -3.07,-2.88 -0.78,-1.78 -0.43,-1.46 -0.64,-0.8 -15.19,-0.72 -1.29,-0.93 0.55,-1.48 0.39,-1.59 -0.01,-1.87 1.28,-1.3 4.11,-2.54 0.12,0.01 0.55,-0.13 0.28,0.07 0.24,0.24 0.31,0.65 0.2,0.26 0.51,0.21 z" 
                fill="rgb(151, 144, 238)" 
                stroke="white" 
                stroke-width=".7px"
                title="Razavi Khorasan" 
                id="IR-30" 
            />
        </svg>