<svg xmlns="http://www.w3.org/2000/svg" viewBox="263.54042999999996 104.98439999999991 179.43 126.58000000000013" width="179.43" height="126.58000000000013">
            <path 
                d="m 409.19043,113.5144 0,0 1.33,-0.23 1.65,0.69 -0.35,0.97 -1.98,0.59 -0.87,0.7 -0.21,0.63 0.22,0.34 0.21,0.45 0.17,1.12 -0.17,2.88 -0.64,2.53 -0.12,0.85 0.63,1.34 4.01,4.51 3.85,3.31 1.9,0.64 3.23,0.55 1.68,0.65 5.16,-0.87 0.67,-0.19 1.08,0.04 1.37,0.82 0.83,3.32 -0.91,3.93 -1.37,2.62 -0.5,4.58 0.64,7.87 1.1,5.06 0.92,2.35 8.03,6.57 2.22,2.56 -0.52,2.91 -5.89,10.15 -1.44,3.35 -1.03,0.81 -7.15,2.69 -3.85,2.3 -4.37,4 -5.44,6.75 -12.18,20.53 -3.72,1.93 -8.68,-0.2 -3.11,0.58 -0.6,0.27 0,0.1 -0.31,-0.4 -0.83,-0.72 -1.86,-0.61 -80.82,2.43 -1.76,-0.28 -14.42,-4.76 -2.31,-0.36 -9.28,0.59 -3.31,-0.55 -6.55,-3.55 1.13,-1.62 1.49,-3.5 0.91,-3.61 0.09,-3.36 -0.45,-1.65 0.13,-1.77 1.03,-3.32 1.74,-2.69 0.42,-2.55 -1.53,-2.79 -3.82,-5.08 -0.26,-1.77 0.21,-1.9 0.64,-2.5 0.46,-3.82 0.56,-0.6 0.63,0.29 0.41,0.41 0.73,0.26 2.02,0.11 1.87,1.63 6.18,3.78 2.47,0.85 2.58,0.06 7.63,2.22 2.74,0.11 3.86,-1.28 3.36,-1.8 5.38,-4.91 1.09,-3.74 -0.44,-4.2 -1.07,-4.68 0.5,-0.22 3.43,-0.38 1.6,-0.45 2.15,-1.24 1.76,-0.6 1.1,0.61 1.69,-0.23 2.59,-0.84 2.4,-1.3 1.47,-1.31 0.8,-1.12 0.42,-1.05 0.78,-1.15 3.47,-3.1 1.34,-1.55 0.54,-3.38 0.75,-2.54 1.2,-2.33 2.54,-2.56 2.82,-1.66 3.41,-1.02 6.63,-0.12 2.65,0.43 2.36,-0.53 4.78,-2.26 2.09,-2.28 5.74,-4.5 5.92,-3.41 2.88,-0.34 12.11,1.66 1.71,-0.81 1.13,-2.92 0.67,-4.64 2.8,-6.23 6.3,-9.73 1.4,-1.15 5.12,6.83 2.41,1.7 z" 
                fill="rgb(151, 144, 238)" 
                stroke="white" 
                stroke-width=".7px"
                title="Semnan" 
                id="IR-12" 
            />
        </svg>