<svg xmlns="http://www.w3.org/2000/svg" viewBox="229.54043000000004 157.3044 77.70000000000002 51.61000000000004" width="77.70000000000002" height="51.61000000000004">
            <path 
                d="m 274.35043,171.9044 0,0 2.33,-0.95 4.4,-5.33 3.11,-2.46 2.24,0.3 2.41,1.01 3.05,0.57 3.87,2.1 2.58,0.54 1.79,-0.25 1.09,-0.65 1.47,0.34 3.04,2.11 1.07,4.68 0.44,4.2 -1.09,3.74 -5.38,4.91 -3.36,1.8 -3.86,1.28 -2.74,-0.11 -7.63,-2.22 -2.58,-0.06 -2.47,-0.85 -6.18,-3.78 -1.87,-1.63 -2.02,-0.11 -0.73,-0.26 -0.41,-0.41 -0.63,-0.29 -0.56,0.6 -0.46,3.82 -0.64,2.5 -0.21,1.9 0.26,1.77 3.82,5.08 1.53,2.79 -0.42,2.55 -1.74,2.69 -1.03,3.32 -0.13,1.77 -19.31,-11.52 -8.13,-2.45 -9.73,-0.11 0,-0.11 2.93,-9.49 -0.02,-2.91 -0.87,-1.69 -1.57,-1.96 0.89,-2.07 2.19,-1.35 1.77,-2.18 0.96,-2.53 3.01,-0.17 0.41,-2.02 0.13,-2.7 2.05,-2.36 2.73,-1.01 2.74,0.33 1.91,-1.18 0,-2.36 0.11,-1.77 3.66,2.16 5.19,0.44 4.61,1.81 3.46,3.74 1.96,3.69 1.22,1.4 1.01,0.6 1.66,0.6 2.67,0.16 z" 
                fill="rgb(151, 144, 238)" 
                stroke="white" 
                stroke-width=".7px"
                title="Tehran" 
                id="IR-07" 
            />
        </svg>