<svg xmlns="http://www.w3.org/2000/svg" viewBox="0.2804299999999534 0.2744000000000475 112.34000000000002 162.86000000000004" width="112.34000000000002" height="162.86000000000004">
            <path 
                d="m 27.10043,6.0744 0,0 0.09,0.12 0.48,0.29 0.14,0.07 0.72,0.14 0.78,0.03 -0.1,0.2 -0.13,0.13 0.71,0.51 0.41,0.95 1.01,4.22 0.42,0.88 0.71,0.63 -0.28,0.53 0.12,0.32 0.86,0.62 0.18,0.04 0.37,-0.01 0.26,0.07 0.12,0.17 0.08,0.2 0.12,0.16 1.2,0.82 0.02,0.01 0.18,0.23 0.11,0.31 0.28,0.46 0.34,0.41 0.32,0.18 0.27,0.42 0.62,1.39 0.2,0.45 0.29,0.43 0.24,0.47 0.35,2.18 0.22,0.66 0.89,-0.28 3.52,1.17 0.09,-0.08 0.24,-0.16 0.3,-0.12 0.32,0.04 0.1,0.27 -0.09,0.41 -0.01,0.38 0.34,0.16 0.47,0.09 0.45,0.29 0.19,0.46 -0.29,0.65 0.23,0.44 0.29,0.22 0.31,0.19 0.32,0.34 0.14,0.34 0.27,0.94 0.17,0.37 0.32,0.24 0.81,0.36 0.16,0.3 -0.07,0.45 -0.14,0.36 -0.1,0.37 0.06,0.47 0.39,0.46 0.72,0.49 0.77,0.38 0.4,0.11 -0.21,0.21 -3.74,4 -0.74,1.81 -0.99,4.61 0.47,2.48 0.86,2.29 -0.01,2.15 -1.27,2.3 -5.81,6.03 -1.91,3.23 -0.37,1.87 0.45,1.44 2.15,2.92 0.23,0 0,0.59 0.2,0.32 0.27,0.23 0.22,0.35 0.21,0.77 0.05,0.47 -0.13,0.21 -0.11,0.22 -0.02,1.43 1.19,11.58 0.68,0.92 0.15,0.34 0.05,0.18 0.27,2.57 -0.15,0.23 -0.32,0.18 -0.32,0.27 -0.14,0.48 0.26,0.67 0.46,0.85 0.22,0.78 2.27,2.74 0.84,1.95 -0.38,5.3 0.46,2.29 1.28,1.93 9.89,6.5 4.4,0.78 3.62,0.06 4.7,4.28 0.57,1.14 4.21,2.38 1.46,1.36 1.57,0.66 1,-0.69 0.55,-0.88 0.11,-0.38 0.5,-1.19 1.11,-1.38 2.03,-1.33 1.68,-0.35 0.82,0.08 0.93,-0.88 1.42,-0.94 1.57,0.26 1.07,1.09 1.35,0.83 1.72,0.39 1.07,0.92 0.15,0.9 -0.44,0.63 1.34,3.92 -0.03,2.82 1.22,1.77 3.3,0.45 8.04,-0.93 4.69,10.52 -0.83,0.26 -1,0.61 -0.14,0.83 0.24,0.69 -0.18,0.66 -0.58,1.16 -1.43,1.66 -2.56,1.13 -3.84,-0.34 -3.51,-0.97 -1.3,-0.9 -0.58,-0.64 -0.68,-0.57 -0.48,-0.64 -0.24,-0.51 -0.4,-0.33 -17.52,1.62 -8.52,-1.22 -2.96,1.18 -0.75,0.97 -0.05,2.03 -1.63,2.48 -5.51,1.78 -1.02,1.11 -0.39,0.67 -0.75,0.77 -0.46,2.04 -1.88,2.14 -0.56,1.37 -1.33,1.33 -1.14,0.7 -0.02,0.02 0,0 -0.75,-0.28 -0.89,0.02 -1.12,0.56 -0.6,0.17 -0.01,0 0,0.01 -0.01,0 0,0 -0.67,0.46 -0.76,0.25 -0.72,-0.1 -0.6,-0.61 -0.01,0 0,-0.01 0,0 0,0 -0.22,-0.68 0.2,-0.86 0.42,-0.86 0.41,-0.67 0.14,-0.84 -0.43,-0.85 -1.05,-1.37 -0.17,-0.88 0.08,-1.93 -0.15,-0.81 -0.5,-0.49 -0.63,-0.49 -0.19,-0.51 0.82,-0.53 -0.64,-0.82 -0.23,-0.73 -0.09,-1.81 -0.16,-0.97 -0.36,-1.06 -0.6,-0.75 -0.86,-0.06 -1.89,0.75 -0.99,0.08 -0.92,-0.43 -0.39,-0.45 -0.12,-0.38 -0.06,-0.41 -0.16,-0.55 -0.27,-0.4 -0.29,-0.29 -0.22,-0.34 -0.03,-0.6 -0.44,-0.47 -0.53,-0.46 -0.12,-0.11 -0.49,-0.63 0.06,-0.67 0.15,-0.11 0.42,-0.16 0.11,-0.08 0.03,-0.89 0.36,-1.44 0.66,-1.53 0.05,-0.79 -0.36,-0.91 -0.82,-1.52 -0.5,-0.68 -0.57,-0.31 -0.44,-0.01 -0.4,-0.13 -0.35,-0.25 -0.31,-0.37 -0.42,-0.37 -0.49,-0.09 -1.05,0.06 -0.88,-0.2 -0.68,-0.45 -0.26,-0.74 0.36,-1.04 1.2,-1.48 0.47,-0.76 0.18,-1.02 -0.16,-0.95 -0.31,-0.69 -0.19,-0.75 0.19,-1.13 0.37,-0.47 0.05,-0.46 -0.22,-0.38 -0.74,-0.39 -0.39,-0.42 -0.23,-0.13 -0.33,0.01 -0.67,0.21 -0.31,-0.07 -0.16,-0.21 -0.17,-0.65 -0.13,-0.27 -0.25,-0.18 -0.25,-0.08 -0.24,-0.11 -0.2,-0.29 -0.27,-0.75 0,-0.41 0.46,-1.23 0.21,-0.82 -0.21,-0.72 -0.32,-0.72 -0.11,-0.86 0.24,-0.76 0.42,-0.36 0.47,-0.27 0.39,-0.52 0.11,-1.38 -0.77,-0.9 -1.95,-1.25 -0.28,-0.58 -0.2,-0.6 -0.31,-0.39 -1.23,0.19 -0.32,-0.36 -0.48,-1.22 -0.52,-0.39 -1.26,-0.12 -0.45,-0.26 -0.21,-0.7 0.45,-1.27 -0.14,-0.72 0,-0.01 -0.18,-0.87 0.07,-1.06 0.22,-1.05 0.31,-0.86 -0.14,-0.73 -0.76,-0.58 -0.68,-0.78 0.15,-1.29 0.28,-0.38 1.17,-0.95 0.35,-0.55 -0.08,-0.4 -1.24,-1.53 -0.85,-0.74 -0.95,-0.43 -0.92,0.1 -0.43,0.25 -0.54,0.19 -0.48,-0.05 -0.25,-0.48 0.03,-0.26 0.13,-0.68 -0.02,-0.22 -0.26,-0.2 -0.22,0.05 -0.23,0.08 -0.26,-0.08 -0.38,-0.49 -0.19,-0.53 -0.13,-0.49 -0.2,-0.4 -0.36,-0.26 -1.22,-0.59 -0.41,-0.12 -2.19,0.26 -1.18,-0.2 -0.59,-0.93 0.09,-0.33 0.05,-0.15 0.35,-0.44 0.3,-0.46 -0.03,-0.55 -0.17,-0.6 0.06,-0.55 0.21,-0.52 0.29,-0.55 0,-0.01 0,0 0,0 0.31,-0.62 0.82,-0.93 0.3,-0.66 0.28,-0.9 0.31,-0.55 0.45,-0.35 0.65,-0.32 0.19,-0.27 -0.28,-0.81 0.05,-0.37 0.28,-0.25 0.6,-0.25 0.25,-0.34 0.22,-0.63 0.21,-0.85 0.12,-0.83 -0.15,-2.07 0.96,-1.09 1.22,-0.96 0.76,-1.1 -0.01,-0.68 -0.26,-0.68 -0.42,-0.59 -0.48,-0.41 -0.53,-0.2 -0.43,0.09 -1.11,0.65 -1.69,-0.31 -0.5,-0.23 -0.31,-0.22 -0.1,-0.38 0.11,-0.71 0.02,-0.39 -0.11,-1.1 0.01,-0.51 0.43,-1.74 0.04,-0.75 -0.31,-2.2 0.15,-1.71 0.01,-0.9 -0.24,-0.72 -0.25,-0.28 -0.26,-0.17 -0.61,-0.2 -0.42,-0.22 0.1,-0.26 0.29,-0.3 0.15,-0.32 -0.17,-0.78 -0.16,-0.52 -0.07,-0.54 0.14,-0.87 0.92,-3.15 -0.17,-1.27 -1.79,-0.87 -0.55,-0.53 -0.46,-0.66 -0.33,-0.97 -0.14,-0.33 -0.12,-0.33 0.02,-0.37 -0.02,-0.39 -0.26,-0.27 -0.31,-0.24 -0.2,-0.31 -0.14,-0.67 -0.11,-0.3 -0.18,-0.3 0,-0.01 0.48,-0.81 0.54,-0.46 0.33,-0.52 -0.31,-1.71 0.17,-0.7 0.67,-1.32 -0.28,-1.07 -1.3,-0.93 -1.51,-0.8 -0.88,-0.67 -0.04,-0.38 0.24,-0.79 -0.03,-0.39 -0.41,-0.87 -0.11,-0.37 -0.02,-0.39 0.09,-0.29 0,-0.32 -0.4,-0.87 -0.2,-0.93 -0.14,-0.42 -0.01,-0.01 -0.89,-1.06 -0.2,-0.53 0.37,-0.53 0.69,-0.43 0.51,-0.19 0.53,-0.01 0.75,0.09 0.78,-0.08 1.84,-0.49 0.81,0.09 2.34,1.17 0.86,0.07 0.75,-0.18 1.75,-0.8 0.65,-0.48 0.57,-0.87 0.01,-0.79 -0.11,-0.83 0.16,-0.98 0,0 0.01,0 0.34,-0.52 0.02,-0.53 -0.12,-0.56 -0.06,-0.62 0.06,-0.72 0.16,-0.59 1.12,-2.27 0.2,-0.56 0.02,-0.17 0.07,-0.53 -0.18,-1.43 0.15,-0.5 3.6,-2.97 0.84,-0.25 0.52,0.37 0.91,1.39 0.47,0.53 2.02,0.95 0.66,0.56 2.75,2 z" 
                fill="rgb(151, 144, 238)" 
                stroke="white" 
                stroke-width=".7px"
                title="West Azarbaijan" 
                id="IR-02" 
            />
        </svg>