<svg xmlns="http://www.w3.org/2000/svg" viewBox="298.6004299999999 195.4344000000003 182.88000000000005 217.28999999999976" width="182.88000000000005" height="217.28999999999976">
            <path 
                d="m 450.32043,261.0144 0,0 8.66,-2.02 1.45,1.85 1.34,2.59 2.53,17.12 2.2,5.05 2.88,1.65 0.81,0.63 2.19,0.99 2.87,1.8 2.74,4.3 0.89,0.64 0.17,3.08 -0.28,1.25 -0.91,1.48 -0.58,1.44 0.24,0.89 0.52,0.93 0.99,1.13 0.06,1.21 1.03,2.25 1.36,2.25 -0.08,2.2 -0.77,2.23 -0.3,1.97 -0.56,1.87 -4.51,6.05 -1.25,3.49 -3.48,5.4 -1.77,4.57 -0.48,0.78 -36.34,-15.66 -4.32,-0.76 -0.73,1.11 -1.56,1.69 -7.04,3.99 -2.4,2.55 -17.98,9.5 -1.5,3.23 -0.44,12.48 -0.51,2.75 -5.74,2.53 -6.38,0.87 -2.78,-0.56 -4.33,-0.17 -19.03,3.38 -2.98,3.33 -1.57,2.98 -0.75,2.87 0.09,1.95 1.89,3.58 2,5.27 0.81,3.92 1.09,1.34 1.09,0.75 -0.43,12.7 0.36,2.22 0.47,1.56 0.04,1.11 -1.07,0.76 -3.42,0.42 -0.34,0.29 -1.49,0.66 -6.88,-3.5 -5.26,-3.96 -0.97,-2.34 -1.2,-8.58 -1.48,-2.62 -5.4,-6.64 -5.63,-10.08 -7.9,-20 -4.35,-5.3 -5.13,-4.72 -8.61,-3.32 -1.48,-5.85 -0.1,-2.76 0.36,-0.99 0.65,-4.83 1.42,-5.62 0.31,-2.57 -0.98,-12.32 0.26,-1.33 1.35,-0.9 2.43,-0.72 2.2,-1.25 1.49,-1.26 2.04,-1.3 3.27,-1.27 2.47,-0.09 10.72,2.47 35.84,-12.38 3.58,-2.04 1.87,-2.28 1.3,-2.46 1.1,-3.01 1.54,-6.78 1.82,-2.26 3.37,-1.81 2.63,-0.28 1.94,-1.36 2.89,-5.03 0.9,-2.88 -0.38,-27.64 0,-0.1 0.6,-0.27 3.11,-0.58 8.68,0.2 3.72,-1.93 12.18,-20.53 13.84,-3.62 13.46,-6.4 8.52,-2.2 3.77,0.99 9.88,7.59 1.16,2.61 -0.46,2.64 -3.28,3.22 -13.42,9.52 -2.31,4.17 -4.26,12.86 -0.28,6.91 2.11,11.75 1.59,2.51 6.72,0.81 z" 
                fill="rgb(151, 144, 238)" 
                stroke="white" 
                stroke-width=".7px"
                title="Yazd" 
                id="IR-25" 
            />
        </svg>