<svg xmlns="http://www.w3.org/2000/svg" viewBox="107.72043000000006 110.21439999999996 75.0699999999999 70.50000000000003" width="75.0699999999999" height="70.50000000000003">
            <path 
                d="m 165.12043,111.4344 0,0 5.1,3.26 3.76,3.97 1.44,2.33 2,6.96 -2.76,0.95 -3.68,2.46 -1.38,3.2 0.7,2.67 1.82,2.27 1.09,2.74 1.13,1.71 1.68,0.84 1.03,0.07 0.65,0.36 0.64,0.69 0.88,0.5 0.63,1.15 0.56,2.08 1.06,1.76 0.78,1.74 0.54,4.45 -0.78,1.14 -6.18,1.67 -3.42,1.94 -2.07,2.35 -0.18,1.66 0.05,0.46 -3.09,-1.43 -2.22,-0.15 -3.07,0.85 -1.89,1.4 -1.23,0.25 -1.45,0.05 -1.06,0.24 -0.71,0.47 0.1,1.3 4.3,3.88 2.52,3.71 0.02,0.73 -1.24,1.7 -2.56,0.9 -2.85,-0.7 -2.97,-1.62 -7.27,-0.25 -1.52,-0.95 -1.14,-2.08 -0.3,-0.9 -0.67,-1.14 -0.62,-0.58 -9.32,-5.68 -0.47,-1.11 0.56,-1.51 1.33,-1.4 0.75,-3.07 0,-4.26 -0.64,-2.37 -0.59,-0.07 -0.14,-0.06 -0.04,-0.31 0.11,-0.28 0.14,-0.26 0.05,-0.29 -0.21,-1.02 0.07,-0.37 0.35,-0.33 -0.32,-0.47 -0.38,-0.82 -0.33,-0.94 -0.13,-0.81 -0.23,-0.45 -1.07,-1.19 -0.12,-0.18 -17.06,-3.4 -0.98,-0.99 -4.69,-10.52 -0.2,-1.37 -0.01,-2.05 0.65,-1.33 5.13,-5.22 1.42,-2.37 1.01,-0.74 2.24,-1.07 1.85,-2.01 1.17,-0.7 1.2,-0.5 10.65,-1.24 3.21,0.49 2.2,-0.36 8.1,0.84 2.52,-0.99 1.19,-0.95 0.39,-0.23 0.99,-0.27 1.39,0.51 2.53,2.7 1.05,-0.22 0.45,-0.76 0,-0.72 0.41,-0.73 0.65,-0.26 0.97,0.55 1.22,0.16 1.34,-0.92 1.19,-0.36 2.28,1.22 z" 
                fill="rgb(151, 144, 238)" 
                stroke="white" 
                stroke-width=".7px"
                title="Zanjan" 
                id="IR-11" 
            />
        </svg>