<svg xmlns="http://www.w3.org/2000/svg" viewBox="437.1485299999999 95.23482599999998 153.81 154.92000399999995" width="153.81" height="154.92000399999995">
            <path 
                d="m 468.10853,123.82483 4.33,1.6 2.01,-5.29 1.17,-0.36 0.37,-3.37 2.42,-6.42 0.27,-1.79 0.98,-0.97 1.07,-1.77 0.62,-0.21 0.71,-0.74 0.22,-2.02 0.27,-0.53 1.55,-0.66 2.19,-1.470004 0.17,-0.32 1.12,-0.29 1.4,-1.34 0.09,-0.93 2.68,-0.52 2.67,-0.87 1.42,0.02 1.33,-0.34 4.29,1.87 1.11,0.06 1.06,2.05 -0.06,0.53 0.6,0.02 2.34,4.090004 1.14,3.18 2.01,-0.87 0.38,0.06 0.69,1.18 0,1 0.49,1.92 1.32,0 2.04,1.79 0.79,1.05 0.71,0.27 1.06,2.92 0.7,0.55 0.36,1.24 0.68,0.34 0.04,1.81 6.53,-2.97 2.72,-0.74 6.57,0.35 1.25,0.84 0.79,1.13 6.81,6.99 3.13,3.6 2.5,2.34 9.02,10.29 7.53,7.58 4.51,6.22 8.2,12.39 0.19,-0.05 1.34,1.38 3.34,0.89 -4.49,10.91 3.76,0.4 0.49,1.85 0.59,-0.05 2.34,3.43 0.41,0.15 0.62,0.89 0.43,0.13 0.64,-0.36 0.18,0.1 -0.4,1.23 -0.14,1.49 3.18,-0.16 0,0 -3.31,7.5 0.02,2.95 -2.8,39.95 0.13,0.6 -2.2,2.6 -0.97,-0.6 -1.17,0.05 -2.56,-0.62 -0.8,-0.55 -0.42,-0.62 -1.92,0.13 -1.47,-0.99 -1.23,-0.39 -1.09,1.15 -1.25,-0.13 -1.05,1.06 -1.2,-0.15 -1.47,0.41 -1.24,-0.54 -0.31,-0.37 -1.4,0.03 -0.45,-1.59 -1.71,-0.49 -0.42,0.07 -0.8,-0.59 -2.5,0.26 -1.13,-0.94 -1.69,1.04 -1.27,-0.05 -0.53,0.23 -2.35,-0.88 -0.64,0.15 -1.63,0.99 -2.38,-0.39 -0.5,-0.57 -1.63,0.18 -0.53,-0.47 -0.85,-0.05 -1.19,0.24 -0.9,0.49 -0.52,0.83 -1.44,-0.52 -0.87,0.65 -0.33,-0.47 -1.4,0.6 -2.15,2.29 -0.63,0.96 -1.49,0.73 -0.6,1.07 0,0 -1.82,-0.11 0.57,-1.61 -0.32,-0.54 1.02,-1.12 -0.23,-0.52 -0.33,-0.11 0.81,-1.84 -5.4,-1.88 -9.63,-4.58 -10.1,2.27 -1.3,0.73 -4.73,3.9 -0.11,0.49 0.35,3.02 0.49,1.46 0.44,4.36 -0.23,0.45 -0.37,0 -0.08,-0.55 -0.36,-0.03 -0.27,-0.65 -0.71,-0.05 -0.43,-0.8 -1,0 -0.95,-0.42 -1.01,-0.05 -0.33,0.28 -1.2,-0.13 -0.18,-0.41 -0.66,-0.26 0.03,-0.65 -0.7,-0.37 -0.61,1.93 -0.51,0.54 -1.74,0.52 -0.93,-0.15 -0.95,-0.6 -0.53,-0.68 0.05,-1.01 -0.43,-0.42 -0.17,-0.59 -0.44,0.8 -0.95,0.7 -0.11,0.6 -0.46,0.37 -1.43,-0.73 -0.5,0.91 -1.51,-0.05 -0.39,0.67 -1.43,0.76 -0.22,-0.06 -0.14,-0.72 -0.4,0 -0.58,-0.78 -0.08,-0.84 -0.47,-0.8 0.15,-1.07 -0.68,-0.96 -0.26,-1.27 -1,-1.25 0.16,-0.34 -0.7,-0.52 -0.49,0.05 -0.32,-0.34 -0.09,-0.54 -1.44,-0.86 -0.4,-0.52 -1.23,-0.44 -1.17,-1.05 -0.05,-1.17 0.43,-0.52 -0.54,-0.93 -0.95,0.05 -1.96,0.93 -1.21,0.08 -0.57,0.84 -0.53,0.07 -0.46,-0.26 -0.97,-1.32 -0.58,-0.08 -0.7,0.88 -0.43,0.08 -0.8,-0.52 -0.54,-0.73 -1.13,-0.08 -0.93,-0.7 -0.84,-1.41 0,0 -0.87,0.08 0,0 -1.2,-0.6 -0.17,-0.36 -0.45,0.16 -1.42,-0.81 -0.17,-0.68 -1.26,0.47 -0.85,0.03 -0.85,1.17 -2.03,-0.24 -0.38,-0.44 -1.22,0.5 -0.76,-1.57 -0.52,-0.49 -0.2,0.13 -0.54,-0.34 -0.98,-1.3 -0.81,-2.81 -1.79,-3.91 -3.2,-8.24 0.72,-1.25 0.34,-0.24 3.64,-0.88 3.07,-1.54 0.19,-1.26 5.16,-5.71 -1.03,-1.04 -3,-4.13 -1.13,-0.63 -5.61,-6.53 -0.79,-1.04 -0.35,-1.02 -1.21,-1.57 0,0 6.67,-5.15 6.64,-4.27 4.21,-5.86 2.01,-1.59 0.73,-1.42 1.15,-0.73 1,-0.08 6.5,0.63 4.97,5.1 9.37,-6.7 5.52,-10.45 -10.35,-16.08 0.69,-8.93 -9.44,-3.57 z" 
                fill="rgb(151, 144, 238)" 
                stroke="white" 
                stroke-width=".7px"
                title="Drenthe" 
                id="NL-DR" 
            />
        </svg>