<svg xmlns="http://www.w3.org/2000/svg" viewBox="279.1985299999997 189.16483000000002 141.56000000000006 154.30999999999992" width="141.56000000000006" height="154.30999999999992">
            <path 
                d="m 327.34853,271.52483 -0.63,-0.23 -0.05,-0.52 0.32,-0.34 0.4,-2.08 2.06,-4.91 1.23,-1.22 2.61,-1.27 0.33,-0.6 -0.03,-0.52 -1.82,-5.61 -8.78,-14.14 0,0 0.36,-0.26 0,0 8.85,14.14 1.87,6.05 -0.4,1.27 -2.98,1.4 -0.93,1.04 -2.1,5.11 -0.31,2.69 z m 45.04,-80.51 1.58,0.31 1.25,1.23 1.08,-0.44 -0.98,-2.95 3.17,0.97 5.73,5.8 0.98,3.79 0.59,-0.34 0,0 1.41,2.51 2.14,1.88 0.03,0.5 2.9,0 0.33,0.23 1.87,0.34 1.39,0.68 3.1,2.14 0.93,1.3 1.61,1.38 0.95,0.6 0.57,0.03 3.05,2.9 0.57,0.89 1.12,2.89 1.6,5.53 1.11,0.57 0.54,0.94 0,0.91 0.32,-0.03 0.52,0.42 0.68,1.51 0.03,0.91 -0.41,0.68 -0.51,0.08 -0.9,1.07 -1.47,1.02 -1.79,2.03 0.06,0.89 0.38,0.44 0.68,0.08 0.02,-0.36 2.11,0.83 1.09,0.08 1.53,0.52 2.52,2.21 2.58,0.7 1.88,1.87 0.4,0.65 0.03,0.39 -0.82,0.96 -3.56,2.37 -5.24,1.14 -0.24,0.57 -3.64,2.05 -2.34,0.29 -0.79,-0.86 -1.27,-0.49 -9.32,2.05 -0.82,0.34 -0.43,0.7 -9.38,-0.03 -0.06,6.86 3.73,-0.05 1.46,0.26 6.74,7.19 0.49,1.48 1.25,7.14 0,0 -1.09,4.85 -0.98,1.43 -0.41,2.49 -1,2.75 0.02,0.49 -0.3,0.31 -1.11,-0.36 -0.44,0.21 -2.21,4.22 -0.05,0.29 0.9,1.32 -1.74,2.54 -0.33,1.01 -3.08,3.03 -1.25,0.75 -3.37,3.11 -0.57,0.16 -0.19,0.36 -2.47,1.99 -0.41,-0.03 -0.6,-0.54 -0.33,0.08 -0.09,0.36 0.27,0.49 -0.81,0.65 -0.38,0.65 -1.14,0.83 -1.74,0.7 -1.33,1.29 -1.49,0.44 -1.47,-0.03 -4.32,3.7 -0.76,-0.8 -0.57,-0.18 -3.92,1.86 -1.08,0.88 -0.73,-0.9 -0.54,-0.08 -2.29,0.49 -0.4,0.39 -1.85,2.87 -5.24,16.19 -1.06,2.89 -0.58,0.83 -17.58,5.03 -2.34,0.9 0,0 -3.07,-2.63 -8.04,-7.95 0,0 -3.81,-3.77 -4.65,-3.07 -9.73,-2.45 -11,1.88 -1.08,-0.62 -1.16,-1.45 0,0 0.22,-0.21 -0.27,-0.49 1.08,-0.98 -1.41,-1.34 -0.41,-0.03 -0.17,0.21 -0.13,-0.23 0.49,-0.54 0.17,-0.7 -0.27,-5.01 -1.63,-3.1 0.03,-1.53 5.41,-3.26 0.81,-1.86 7.18,-4.24 1.87,-0.05 0.73,-0.39 0.49,-0.34 0.97,-1.71 3.2,-1.97 20.44,-14.4 1.6,-0.23 0.98,-0.57 6.12,-5.5 0.3,-0.99 -0.51,-0.88 -0.09,-1.22 -0.41,0.23 -0.57,-0.03 0.14,-1.38 0.6,-0.16 0.14,0.39 0.19,-0.42 0.73,-0.21 0.74,-0.67 1.41,-3.27 1.03,-1.35 4.81,-0.29 0.67,-0.29 5.36,-5.12 0.17,-0.26 -0.65,-0.7 0.55,-0.55 0.57,0.52 -0.24,0.18 0.19,0.16 4.48,-4.6 10.59,-3.07 1.49,-1.33 0.46,0 1.57,-1.56 -5,-8.06 -2.83,-2.08 -0.06,-0.23 0.58,-0.21 -0.74,-0.96 -1,0.18 0.27,-26.71 10.57,-17.2 0.98,-0.6 6.25,-0.78 0.46,-0.08 0.16,-0.33 z" 
                fill="rgb(151, 144, 238)" 
                stroke="white" 
                stroke-width=".7px"
                title="Flevoland" 
                id="NL-FL" 
            />
        </svg>