<svg xmlns="http://www.w3.org/2000/svg" viewBox="239.29852999999986 13.404825999999971 246.6400000000002 186.8900040000001" width="246.6400000000002" height="186.8900040000001">
            <path 
                d="m 349.81853,192.76483 0.1,0.34 -0.33,0.03 -1.41,-0.55 0.22,-0.24 0.92,0 0.5,0.42 z m -6.47,-1.17 -0.7,-0.31 0.17,-0.13 0.52,0.18 0,0.26 z m -19.24,-31.03 -0.22,-0.26 0.16,-0.52 0.27,0.31 -0.21,0.47 z m -1.38,-10.49 -0.3,-0.87 0.13,-0.18 0.3,0.89 -0.13,0.16 z m -4.49,-21.71 0.41,0.76 0.59,0.24 0.71,-0.18 0.84,0.87 0.35,1.55 1.03,2 -3.05,-0.21 -0.33,-0.95 -1.04,-1.5 -0.35,-2.34 0.09,-0.21 0.75,-0.03 z m -5.56,0.16 0.21,0.76 -0.14,0.34 -0.55,-0.18 -0.65,0.39 -0.44,-0.13 -4.1,1.18 -12.99,11.45 -0.08,0.68 -0.74,0.6 -0.36,-0.26 -0.55,0.45 0.73,0.29 0.57,-0.45 0.11,0.13 -0.6,0.5 -0.98,-0.29 -5.62,4.88 0,0 -0.65,-0.87 0,0 5.51,-4.83 -0.09,-0.58 0.73,-0.39 -0.59,0.5 0.1,0.34 14.79,-13.05 0.67,-0.37 4.02,-1.1 0.1,-0.18 0.51,0.31 0.6,-0.16 0.14,-0.24 0.34,0.28 z m -41.49,-61.500004 4.19,0.79 0.22,0.13 0.19,1.19 -0.73,0.45 -0.49,0.69 -0.71,-0.32 0.3,0.55 -0.66,-0.26 -1.25,-0.05 -2.36,0.66 -1.22,1.24 -1.95,1.35 -2.63,1.21 -5.84,2.06 -2.83,1.4 -0.28,0.63 1.03,2.48 -0.3,0.37 -0.9,0.16 -0.27,0.34 -0.08,1.4 0.43,0.18 -0.3,0.98 -3.86,1.58 -2.15,2.32 -0.97,0.47 -2.14,-0.18 -1.34,0.24 -2.9,1.58 -0.79,0.05 -0.52,-0.42 -0.78,-1.48 0.02,-0.76 8.96,-5.67 1.36,-1.21 3.35,-3.93 2.41,-1.95 9.3,-6.34 2.15,-0.61 3.15,-1.32 1.19,0 z m 11.13,4.6 -0.51,0.74 -0.66,0.11 -0.84,1.08 -0.36,0.13 -0.71,-0.34 -0.89,0.16 0.02,-0.53 0.57,-0.05 0.33,-0.4 -0.41,-0.74 -0.68,-0.21 1.5,-1.48 0.16,-0.4 1.46,-1.06 0.92,-1.19 0.54,-0.34 0.95,-0.05 0.47,0.95 -0.11,0.79 -0.87,1.72 -0.88,1.11 z m 7.59,-27.23 -0.1,-0.21 0.36,-0.42 -0.26,0.63 z m 158.46,-4.5 -3.69,5.38 0.13,3.36 0.81,2.38 0.54,0.85 1.14,0.95 5.22,1.43 0.68,0.37 0.59,0.9 0.44,1.67 0.7,0.85 1.11,-0.13 1.85,-1.3 2.63,0.63 2.9,1.27 -0.84,7.32 0.06,0.24 1.49,0.34 0.41,0.63 -0.93,1.08 -1.38,0.5 -0.49,0.79 -0.08,0.92 -0.47,0.55 -0.19,1.11 -0.24,0.19 -1.23,-0.37 -1.17,0.69 -0.28,3.04 0.54,1.56 -0.08,0.92 -0.44,0 -0.38,0.4 -0.41,-0.53 -0.3,0.03 -0.41,0.84 -0.68,0.61 0.08,0.74 -0.27,0.55 -0.96,0.37 0.46,0.66 -0.1,0.4 -0.71,0.58 0.22,0.74 -0.06,1.29 -2.74,0.45 0.44,1.66 1.3,1.03 0.25,1.27 0.68,0.92 -0.25,1.18 -0.51,0.58 -0.24,0.98 -0.74,1.24 -1.03,0.84 -0.57,0.9 -0.95,0.11 -0.47,0.32 -0.22,1.4 -1.04,1 -0.25,0.84 -2.03,3.740004 -0.44,2.77 -0.25,6.66 2.83,3.53 1.99,1.76 5.21,0.79 4.37,-0.18 2.31,1.24 1.16,1.13 0.93,1.47 3.8,1.52 0,0 -1.28,3.52 9.43,3.57 -0.68,8.93 10.35,16.08 -5.52,10.45 -9.37,6.7 -4.97,-5.1 -6.5,-0.63 -1,0.08 -1.16,0.73 -0.73,1.41 -2.01,1.6 -4.21,5.86 -6.65,4.26 -6.66,5.15 0,0 -1.95,1.65 -1.92,1.23 -0.85,0.08 -0.79,0.44 -0.6,0.63 -0.71,0.13 -2.06,-0.24 -1.79,0.73 0.52,2.61 -0.32,0.57 -2.39,1.46 -1.34,0.55 -0.71,-1.44 -1.8,0.24 -1.31,0.44 -0.49,0.42 -0.52,0.03 -0.68,-0.13 -0.81,-0.73 -0.6,-0.13 -0.74,-2.01 -0.92,-1.36 -0.49,-2.01 -2.14,0.47 -0.7,0.47 -0.19,0.39 0.17,0.99 -1.47,-0.6 -0.76,0.31 -1.65,0.21 -0.06,0.55 -0.65,0.31 0.24,0.44 -0.19,0.29 -0.03,1.31 -1.42,0.94 -0.81,1.23 -1.38,0.86 -0.6,0.94 -3.31,1.57 -0.76,-0.08 -1.46,-0.78 -0.74,0.03 -0.57,-0.34 -1.49,0.05 -0.85,-0.44 -0.62,0.57 -0.38,0 -0.35,-1.07 -1.93,-1.1 -0.24,-0.39 -3.78,2.64 0,0 -0.59,0.34 -0.98,-3.79 -5.73,-5.8 -3.17,-0.97 0.98,2.95 -1.08,0.44 -1.25,-1.23 -1.58,-0.31 0,0 0.11,-1.12 -0.4,0.44 -0.3,0 -0.27,-0.34 -0.49,0.47 -0.38,-0.39 0.06,-0.78 -0.38,-0.31 -2.07,-0.31 -1.92,0.1 0.32,-0.91 -0.21,-0.08 -0.35,1.05 -0.54,0.1 -0.03,0.55 -0.51,-0.42 -1.17,0.13 -0.09,-0.34 -0.63,-0.5 0.38,-0.31 -0.08,-1.78 -1.77,-1.31 -1.03,0.26 -3.2,2.2 -2.21,-0.31 -2.83,0.65 -0.38,0.71 -0.33,1.7 -0.35,0.37 -1.88,1.1 -2.26,0.47 -0.78,-0.1 -3.51,-1.36 -6.55,-3.03 -4.02,-1.2 -1.04,-0.08 -0.49,0.24 -0.11,0.6 -1.52,0.13 -2.26,0.76 -1.41,-0.5 -2.94,-1.7 -2.42,-2.61 -2.04,-1.49 -0.81,-0.94 0.25,-0.5 -0.11,-0.26 -0.74,-0.13 -1.09,-1.8 0.74,-0.65 0.47,-0.94 1.57,-1.81 2.25,-1.02 0.65,-0.65 1.63,-0.45 0.87,-1.23 0.16,-2.67 -0.32,-0.55 -0.52,-3.59 -0.87,-1.05 0.84,-0.73 0.54,0.16 0.41,-0.29 -0.08,-0.24 -0.58,0.05 0.06,-0.24 0.62,-0.05 0.24,0.31 0.22,-0.24 -0.02,-1.83 0.14,-0.18 0.32,0.34 -0.02,-0.29 -0.49,-0.73 -0.06,-0.65 -0.51,0.18 -0.25,-0.16 1.17,-0.29 0.16,-1.21 -0.85,-3.17 -0.33,-0.37 -0.3,-1.13 0.08,-0.55 -0.32,-0.18 -0.22,-1.39 0.06,-2.57 -0.41,-0.47 1.38,-2.33 -0.33,-0.52 0.38,-2.18 -0.4,0.13 -1,-0.52 0.19,-1.18 -0.44,-0.26 0.16,-0.29 0.57,0 0.11,-1.1 0.21,0.37 0.22,-0.05 -0.49,-1.44 0.28,-2.49 -0.47,1.76 -0.08,2.05 -0.6,0.42 -0.41,-0.45 -0.06,-0.89 -0.6,-1.26 -0.44,-0.71 -1.11,-1 -0.25,-1.55 0.22,-0.21 1,0 0.19,0.68 0.63,0.03 0,-0.68 0.67,-0.05 0.49,0.79 0.73,-0.1 -0.74,-1.76 -0.57,-0.66 -0.46,-1.02 -0.3,-1.18 0.22,-0.89 -0.22,-1.05 -1.44,-3.13 -0.27,-0.13 -0.59,0.13 -3.97,3.73 -1.11,0.53 -0.27,0.5 -0.47,-0.05 -0.44,-1.47 0.21,-0.24 0.33,0.21 0.92,-0.29 0.62,-0.42 4.42,-4.28 0.3,-0.42 0.44,-2.13 -0.33,-0.58 0.09,-0.32 2.56,-1.55 1.35,-1.76 0.9,-3.24 0.44,-5.9 0.49,-2.21 -0.05,-1.11 -0.85,-0.47 -0.21,-0.58 0.57,-0.58 0.19,-0.55 1.14,-0.63 0.19,-0.66 -0.24,-0.16 1.27,-3.870004 0.74,-1.37 0.63,-1.9 1.61,-2.58 2.37,-2.11 3.12,-3.53 1.3,-0.53 1.87,-1.45 1.9,-1.08 0.36,-0.45 1.71,-0.95 1.55,-1.9 2.86,-2.64 0.96,-2.69 4.4,-4.44 4.46,-2.3 1.96,-0.42 5.95,-2.25 1.47,-0.29 1.42,-0.71 1.06,-0.05 1.71,-1.24 9.89,-5.79 3.66,-1.43 1.49,-0.87 0.67,-0.13 0.43,-0.45 2.31,-0.61 1.82,-1.27 3.42,-1.9 2.41,-0.79 0.9,-0.98 1.69,-0.48 0.71,-0.45 -1.71,-2.46 0.11,-0.24 0.44,0.61 0.35,-0.37 0.3,0.66 -0.22,0.34 0.9,1.27 1.28,0.21 0.98,-0.56 2.29,0.32 4.56,-1.35 1.88,-0.85 1.93,-0.26 0.24,-0.5 0.43,0.45 2.36,-0.42 4.21,-1.35 4.26,-0.34 4.1,-0.74 2.55,0.69 0.28,-0.69 0.32,0.69 0.67,-1.03 0.32,0.48 1.46,0.05 5.17,0.93 6.28,-2.97 1.06,-0.08 1.25,1.05 z m -105.26,-9.44 -1.84,0.16 -0.17,0.32 0.27,0.32 4.22,-0.58 0.63,0.08 0.36,0.72 -0.47,1.83 -2.44,1.4 -0.74,0.21 -1.11,0.24 -0.3,-0.13 0.14,-0.21 -0.17,-0.13 -0.27,0.21 -0.36,-0.11 -1.85,1.43 -2.77,1.43 -1.47,-0.21 -0.84,-0.77 -0.11,0.66 0.41,0.72 -0.02,0.87 -1.54,-0.37 -1.27,-0.93 -0.87,-0.16 -0.11,0.34 0.19,0.21 1.95,1.38 2.45,0.93 -0.3,0.37 -0.47,-0.34 -0.43,0.13 -0.35,0.4 0.3,0.26 -0.44,0.29 -1.49,0.34 -6.54,-0.21 -2.09,0.13 -2.47,0.64 -1.3,0.58 -2.98,3.04 -1.85,1.24 -1.08,0.42 -0.79,0.05 -1.42,1.03 -1.87,-0.69 -0.38,0.74 -1.01,0.5 -0.79,0 -0.46,0.64 -0.14,0.63 -1.42,-0.16 -1.47,-0.56 -1.58,0.56 -1.38,-0.42 -2.47,2.17 -0.11,-0.26 -0.63,-0.29 -2.61,0.32 -0.66,0.9 0.08,1.27 -0.22,0.19 0.24,0.45 -0.55,0.08 -0.6,-0.48 -0.65,0 -0.25,0.4 -0.78,0.42 -0.9,1.22 -0.82,0.4 -0.7,0.87 -1.87,-0.45 -2.44,-1.56 -0.22,-0.37 -0.44,-2.2 0,-1.08 0.89,-1.11 2.52,-2.22 1.57,-2.33 0.62,-1.56 0.19,0 -0.17,0.79 0.27,-0.03 0.17,-1.01 0.68,-0.79 -0.08,-0.19 -0.61,0.07 0.46,-0.32 16.84,-3.15 3.04,-0.74 0.43,0.37 0.82,-0.11 15.4,-5.01 0.74,-0.74 3.09,-0.87 9.56,-3.84 3.12,-0.58 1.66,0.03 0.78,0.16 0.27,0.34 -0.03,0.58 -0.3,0.37 -3.03,0.42 z m 84.71,-3.36 0.27,2.12 -0.4,-0.69 -0.47,0.61 -1.19,0.58 -0.51,0.66 -0.87,-0.42 -0.33,-1.48 0.92,-1.35 1.23,0.11 1.23,-0.29 0.12,0.15 z m -53.55,-0.06 8.47,-0.34 10.68,-1.22 2.26,0.4 11.24,-0.58 5.87,0.24 1.08,0.19 0.67,0.66 -0.32,0.64 -0.59,0.32 -1.6,0.34 -3.72,-0.13 -1.38,0.21 -3.35,-0.29 -2.22,1.03 -0.74,0.61 -2.52,0.64 -0.49,-0.05 -1.31,0.64 -4.38,0.95 -0.25,0.27 -4.38,1.22 -2.93,-0.16 -1.55,0.27 -0.16,-0.13 -0.09,0.93 -0.32,0.34 -0.35,-0.19 0.28,-0.21 0.05,-1.3 -3.13,-0.19 -2.94,-0.74 -1.6,0.11 -0.58,0.4 -0.51,1.22 -2.21,1.7 -2.39,0.72 -1.33,0.72 -1.99,0.11 -0.03,0.87 -0.46,0.37 -0.92,-0.27 -2.29,-1.54 -2.23,-1.03 -1.17,-1.33 -1.42,-2.28 -0.05,-1.59 0.68,-3.34 0.68,-1.14 0.76,-0.61 0.95,-0.34 1.52,-0.03 3.37,1.35 5.55,1.3 3.79,0.26 z m 67.63,-13.05 1.42,0.27 1.55,1.46 2.15,0.37 2.36,0.11 11.58,-1.59 6.44,-0.61 5.78,-0.24 0.29,0.45 -0.25,0.66 -2.52,1.3 -1.5,0.64 -1.66,0.29 -3.58,1.72 -1.93,0.35 -1.06,1.33 -3.96,1.86 -1.04,0.24 -3.13,0.08 -3.64,0.82 0.81,0.98 -0.06,0.27 -0.78,-0.48 -0.35,-0.64 -4.23,0 0.02,1.03 -0.33,0.03 -0.16,-1.01 -1.08,0.21 -0.3,0.69 -0.41,0.19 0.41,0.56 -1.35,-0.19 -0.43,0.34 0.43,0.61 -0.3,0.24 -0.06,0.45 0.51,0.72 -0.95,0.19 -1.42,-0.53 -0.84,0.08 -1.12,1.51 -0.52,0.08 -0.63,-0.27 -0.05,-0.21 0.4,-1.14 0.27,-2.2 0.52,-1.8 1.14,-2.23 1.42,-2.07 3.09,-2.76 0.79,-0.32 -0.24,-0.37 -5.95,-1.38 -1.17,2.97 -0.7,0.05 -0.33,-0.21 0.11,-0.96 1.09,-2.52 1.95,0 3.5,0.58 z" 
                fill="rgb(151, 144, 238)" 
                stroke="white" 
                stroke-width=".7px"
                title="Friesland" 
                id="NL-FR" 
            />
        </svg>