<svg xmlns="http://www.w3.org/2000/svg" viewBox="444.6885300000002 0.2748255999999989 167.58999999999986 190.41000439999993" width="167.58999999999986" height="190.41000439999993">
            <path 
                d="m 543.13853,27.644826 0.65,0.42 0.74,-0.08 2.03,-1.88 0.52,-0.19 2.75,1.11 0.33,0.93 -0.06,0.74 -0.33,0.56 -2.75,-0.56 -0.11,0.5 2.47,0.61 -0.17,0.72 -1.28,-0.24 -0.16,0.42 2.09,0.5 1.08,-0.13 1.19,0.32 0.11,-0.53 -1.28,-0.24 -0.25,-0.29 0.67,-2.54 3.1,0.98 3.5,3.34 -0.08,1.25 -1.25,3.52 -0.17,3.71 0.89,0.9 1.41,2.41 -0.43,0.69 0.57,0.24 0.21,0.48 -0.21,2.78 0.9,2.7 -0.05,1.27 0.89,3.94 0.33,0.56 1,0 2.88,2.56 0.67,0.87 0.79,0.11 0,0.45 -0.59,0.13 -0.35,1.27 1.65,0.53 0.43,0.61 0.54,-0.08 1.93,0.71 0.52,0.4 0.87,-0.03 0.84,0.26 2.52,1.22 0.84,0.19 1.09,1 1.12,0.66 2.59,1 2.07,-0.08 1.01,0.34 0.38,0.42 4.68,-0.11 0.66,-0.95 1.8,-0.34 0.59,-0.66 0.43,0 0.03,0.69 -0.43,0.13 -0.96,1.29 -0.93,0.71 -0.33,2.35 0.28,1.87 -1.27,3.51 0.08,1 0.57,0.29 0.08,0.74 0.46,0.53 1.14,0.55 0.4,0.47 0.63,0.08 0.29,0.55 2.04,0.08 0.74,-0.26 0.02,0.42 0.19,0.05 2.48,0.11 1.61,1.19 1.87,0.5 1.09,-0.42 1.47,1.11 1.87,0.34 0.43,0.37 2.86,0.71 0.25,0.24 0.3,-0.26 -0.22,-0.61 0.47,-1.16 0.54,3.72 -0.06,1.19 0.66,2 0.21,4.72 -0.24,0.79 -1,1.16 -0.25,0.66 2.91,2.130004 0.05,0.61 -2.47,1.11 -1.31,0.05 -1.69,3.21 -0.05,0.66 -0.41,0.82 -0.06,2.53 -1,1.84 -0.55,0.37 0.63,4.39 2.85,2.1 -0.33,8.75 2.06,17.36 0.81,2.07 -1.28,1.6 -3.92,13.71 -0.24,1.55 -12.14,20.13 -2.63,3.37 -0.35,0.76 0.79,2.95 0,0 -3.18,0.16 0.14,-1.49 0.4,-1.23 -0.17,-0.1 -0.65,0.37 -0.43,-0.13 -0.62,-0.89 -0.41,-0.16 -2.34,-3.42 -0.59,0.05 -0.49,-1.86 -3.77,-0.39 4.49,-10.91 -3.34,-0.89 -1.34,-1.39 -0.19,0.05 -8.2,-12.39 -4.51,-6.21 -7.53,-7.58 -9.02,-10.29 -2.5,-2.34 -3.13,-3.6 -6.8,-6.99 -0.79,-1.13 -1.25,-0.84 -6.57,-0.34 -2.72,0.74 -6.54,2.97 -0.03,-1.81 -0.68,-0.34 -0.36,-1.24 -0.7,-0.55 -1.06,-2.92 -0.71,-0.26 -0.79,-1.05 -2.04,-1.79 -1.31,0 -0.49,-1.92 0,-1 -0.7,-1.18 -0.38,-0.05 -2.01,0.87 -1.14,-3.19 -2.34,-4.080004 -0.6,-0.03 0.06,-0.53 -1.06,-2.06 -1.11,-0.05 -4.29,-1.87 -1.33,0.34 -1.42,-0.03 -2.67,0.87 -2.67,0.53 -0.09,0.92 -1.39,1.34 -1.12,0.29 -0.17,0.32 -2.18,1.480004 -1.55,0.66 -0.27,0.53 -0.22,2.03 -0.71,0.74 -0.62,0.21 -1.08,1.76 -0.98,0.97 -0.27,1.79 -2.42,6.42 -0.36,3.37 -1.17,0.37 -2.01,5.28 -4.34,-1.6 0,0 -3.8,-1.52 -0.93,-1.47 -1.16,-1.13 -2.31,-1.24 -4.37,0.18 -5.21,-0.79 -1.99,-1.76 -2.83,-3.53 0.25,-6.66 0.44,-2.77 2.03,-3.740004 0.25,-0.84 1.04,-1 0.22,-1.4 0.47,-0.32 0.95,-0.11 0.57,-0.9 1.03,-0.84 0.74,-1.24 0.24,-0.98 0.51,-0.58 0.22,-1.19 -0.68,-0.92 -0.25,-1.27 -1.3,-1.03 -0.44,-1.66 2.74,-0.45 0.06,-1.29 -0.22,-0.74 0.71,-0.58 0.1,-0.4 -0.46,-0.66 0.96,-0.37 0.27,-0.55 -0.08,-0.74 0.68,-0.61 0.41,-0.84 0.3,-0.03 0.41,0.53 0.38,-0.4 0.44,0 0.08,-0.92 -0.54,-1.56 0.28,-3.04 1.17,-0.69 1.23,0.37 0.24,-0.19 0.19,-1.11 0.47,-0.55 0.08,-0.92 0.49,-0.79 1.38,-0.5 0.93,-1.08 -0.41,-0.63 -1.49,-0.34 -0.06,-0.24 0.84,-7.32 -2.9,-1.27 -2.63,-0.63 -1.85,1.3 -1.11,0.13 -0.7,-0.85 -0.44,-1.67 -0.59,-0.9 -0.68,-0.37 -5.22,-1.43 -1.14,-0.95 -0.54,-0.85 -0.81,-2.38 -0.13,-3.36 3.69,-5.38 0,0 0.57,-0.32 0.82,-0.08 0.27,0.26 -0.3,0.34 0.08,0.4 0.63,0.03 6.01,-1.77 1.54,-0.11 1.33,0.4 5.19,2.91 0.79,0.53 1.33,1.99 0.24,0 2.29,-1.43 1.8,-1.62 4.81,-2.2 4.48,-1.72 6.65,-1.11 19.67,-2.25 4.75,-1.38 2.8,-1.11 2.41,-1.33 4.46,-1.78 7.48,-2.44 7.12,-0.88 1.72,0 4,1.3 1.82,1.14 z m -60.67,-16.76 0.74,0.13 -0.08,0.66 -2.15,-0.29 -1.69,0.11 -0.22,-0.42 0.28,-0.45 0.89,-0.08 2.23,0.34 z m 28.25,-1.5400004 0.93,0 0.17,0.19 -0.08,0.29 -0.54,0.2400004 0.13,0.53 -0.17,0.19 -2.18,-0.8000004 -0.36,-0.56 0.14,-0.42 1.06,-0.13 0.9,0.47 z m 4.7,-4.52 0.08,0.32 -0.19,0.21 -1.44,-0.48 -0.79,0.19 -0.09,0.56 0.93,0.8 -0.05,0.58 -3.24,-1.54 -0.65,-0.13 -1.91,0.37 -0.38,-0.5 0.06,-0.42 0.93,-1.12 1.01,-0.29 3.42,0.37 2.31,1.08 z m -19.48,-0.64 1.44,0.11 1.12,0.48 2.71,2.26 -0.03,0.37 -0.54,0.08 -2.04,-0.66 -0.63,0.11 -0.82,-1.01 -0.19,0.03 -0.33,0.45 0.3,1.06 -0.3,0.56 -1.58,0.03 -0.79,-0.31 -0.85,0.58 0.6,0.69 -0.11,0.58 -0.78,0.5300004 -1.39,-0.4000004 -0.71,-0.58 -0.35,-2.1 -1.87,-1.33 -0.65,-0.98 -0.1,-1.94 0.87,-2.52 0.6,0.08 0.68,2.31 5.74,1.52 z" 
                fill="rgb(151, 144, 238)" 
                stroke="white" 
                stroke-width=".7px"
                title="Groningen" 
                id="NL-GR" 
            />
        </svg>