<svg xmlns="http://www.w3.org/2000/svg" viewBox="349.16852999999963 464.46483 104.7300000000003 258.82000000000016" width="104.7300000000003" height="258.82000000000016">
            <path 
                d="m 396.81853,469.56483 0.89,-0.94 -0.86,-3.14 0.06,-0.59 3.28,-0.43 1,0.18 2.99,3.82 0.52,2.86 0.68,0 1.12,0.56 0.67,0.59 0.03,0.46 0.65,0.68 1.82,-0.12 0.35,-0.18 0.16,-0.49 0.6,0 0,0 0.28,1.43 6.03,0.15 1.77,1.3 3.39,1.46 0.92,0.94 0.5,1.2 0.32,0.23 0.35,-0.31 0.76,0.59 0.08,0.4 -0.29,0.74 -1.25,-0.15 -0.36,0.15 -0.79,0.49 -0.19,0.73 0.28,1.69 0.62,0.73 0.11,0.79 0.05,0.89 -0.76,0.92 0.38,1.55 -0.11,1.05 0.38,0.94 1.26,0.81 2.17,0.61 3.72,1.48 0.22,0.46 0.95,-0.33 0.36,0.28 0,0.43 1.38,0 3.26,0.81 -0.03,1.56 -0.49,0.79 -0.35,0.17 -0.92,3.69 -0.28,0.05 -0.92,2.82 -0.6,-0.28 0.01,1.86 -0.44,2.16 2.45,1.73 2.3,1.98 0.99,1.9 1.71,1.88 2.57,2.26 0.98,1.2 1.5,3.75 1.25,2.47 1.6,1.06 1.79,1.6 2.26,3.96 -0.03,5.29 0.79,1.78 0.82,3.17 -0.74,5.37 0.05,0.98 -0.64,0.06 -0.19,0.3 -0.06,4.58 -1.19,6.96 3.14,-0.15 -0.02,0.45 -1.85,3.04 1.87,6.45 -5.62,5.18 -0.06,0.35 0.45,1.14 -3.83,0.83 -0.04,0.88 -0.87,0.99 -0.51,1.09 -0.06,1.16 -0.73,1.16 -0.08,0.96 -1.74,2.65 -2.2,2.8 -0.89,2.09 -0.11,0.84 -6.01,6.63 -2.1,1.29 2.24,4.78 -0.2,0.38 -1.78,-0.1 -0.82,0.4 -0.05,0.36 0.45,2.74 0.55,6.48 1.41,2.74 1.01,0.33 1.68,0.07 0.46,-0.45 0.6,-0.1 1.04,-0.68 1.51,-1.59 6.77,-3.27 1.01,0.58 1.62,1.46 -6.51,3.02 -0.19,0.3 5.45,3.4 0.12,0.4 -1.94,1.34 -0.08,1.05 -0.62,-0.02 -0.43,0.25 -1.29,-0.13 -2.57,0.96 -0.5,-0.25 -0.72,0.4 -0.46,0.68 -2.21,1.13 -2.41,0.43 -0.61,1.71 -0.37,0.2 0.1,0.78 -0.37,0.07 -0.45,-0.55 -0.18,0.96 -0.54,0.22 -0.5,0.63 -1.82,0.58 -0.65,0.45 -0.21,1.28 -1.96,2.27 -1.83,1.4 -1.76,0.53 -0.7,-0.43 -0.24,0.61 -0.71,0.1 -0.63,0.95 -1.87,1.44 -0.95,1.9 -1.47,0.53 0.26,0.81 -0.84,1.33 -0.87,0.75 0.08,0.65 -0.37,0.68 0.22,0.55 -0.28,0.51 0.03,1.68 -1.01,0.65 -0.76,0.17 0.3,1.41 -0.6,0.2 -0.45,-0.45 -1.28,-0.03 -1.2,0.43 -0.25,-1.33 -1.54,-2.16 -1.03,-3.36 -0.84,-0.98 -3.52,3.26 -4.18,0.58 0.28,1.56 1.89,2.31 -0.26,1.25 -0.54,0.05 -0.09,0.45 1.01,2.56 0.94,1.18 1.67,0.78 -0.04,1.48 1.47,0.65 -0.38,1.76 0.16,1.8 -1.63,1.81 0.74,1.45 1.14,0.07 2.55,-1.02 2.05,-1.63 3.12,-0.7 0.24,0.05 0.3,0.67 1.2,0.83 0.38,0.68 0.97,-0.23 0.36,-0.38 0.97,-0.37 6.86,-0.23 0.21,0.48 -1.79,4.64 -0.35,0.57 -1.22,0.98 1.82,1.13 -0.06,1.12 0.52,3.49 3.58,1.02 0.6,0.48 0.85,-0.3 0.69,0.65 -0.18,1.23 2.06,0.22 0.71,-0.5 0.46,0.05 1.39,0.45 0.86,0.95 0.41,-0.77 0.52,-0.25 -0.22,1 -0.97,0.65 -0.2,0.77 -0.65,0.63 -1.08,4.1 0.27,1.4 1.17,1.68 0.76,1.85 -0.41,0.58 -0.25,1.25 -0.41,0.2 -0.15,0.47 -0.68,0.78 -0.47,3.37 -0.75,-0.1 -1.83,-1.2 -0.32,-1.05 -4.41,2.23 -1.06,0.37 -0.35,-0.07 -0.11,3.47 0.54,0.82 0.44,0.2 -0.02,0.48 0.65,1.5 -0.55,0.47 -0.29,-0.02 0.27,0.77 -1.47,1.43 -0.85,1.37 -0.37,0.22 -0.76,0.2 -0.6,-0.55 -1.07,-0.5 -0.65,-0.72 -0.64,-0.1 -0.76,0.58 -0.8,1.24 -0.13,1.5 2.03,0.6 1.23,0.93 0.65,1.44 4.4,2.7 0.03,0.4 -1.06,2.07 -0.54,0.45 0.68,1.62 -0.74,-0.03 -2.37,0.55 -3.17,-0.1 -0.57,-0.22 -0.13,-0.95 -0.66,-0.75 -1.69,-0.4 -4.58,1.47 -1.29,1.1 -1.18,0.38 -0.09,-1 -0.35,-0.1 -1.36,0.15 -0.7,0.85 -1.93,-1.4 0.02,-1.42 -0.6,-1.67 -3.77,1.94 -1.66,1.72 -0.28,-0.07 -0.68,-2.42 -2.09,1.35 -1.55,0 -1.02,0.54 -1.1,0.23 -2.58,-3.64 -1.16,0.65 -0.22,-0.08 -1.34,-3.54 -1.59,0.27 -3.23,3.72 -0.85,1.57 -1.8,0 -1.33,-0.92 -0.84,1.05 -1.76,0.3 -0.9,0.84 -1.04,-0.17 -0.54,-0.45 -0.78,-0.02 0.13,-0.95 2.01,-2.75 0.76,-2.37 -0.07,-0.65 -1.37,-2.82 0.03,-0.52 1.04,-1.48 -0.03,-0.47 -0.9,-1.42 -2.12,-0.18 -0.25,-1 -0.9,0 -0.4,-0.42 -0.9,0.1 -1.28,-0.6 -0.21,-0.33 0.21,-0.35 -0.13,-0.47 -0.63,-0.73 -0.38,0.15 0.3,-1.32 -1.11,-1.4 0.27,-0.4 -0.51,-0.25 -0.03,-0.8 -0.36,-0.52 0.14,-0.8 0.28,-0.3 -0.28,-0.9 0.38,-0.65 -0.16,-1.18 0.14,-0.27 -0.3,-0.43 1.14,-0.97 -0.6,-0.75 0.41,-0.55 0.78,-0.13 2.8,-1.77 1.33,0 0.57,-1.68 1.42,-1.28 0.52,-0.77 0.35,-2.88 0.49,-0.73 1.2,-0.25 1.65,0.95 0.82,-0.42 0.49,-0.93 0,-1.85 0.46,-1.38 1.9,-2.4 0.89,-2.8 1.72,-0.86 -0.04,-1.05 -0.43,-0.9 -0.52,-0.48 -1.11,-0.2 -1.27,1.11 -1.2,0.3 -1.08,-0.58 -0.14,-1.28 2.09,-2.48 0.55,-1.4 1.71,-0.96 1.52,-2.55 0.93,-0.83 0.37,-0.68 0.16,-0.62 -0.15,-2.41 1.46,-2.71 0.1,-0.63 -0.64,-1.1 -2.04,-0.85 -0.19,-0.73 1.06,-1.73 1.06,-2.56 0.13,-2.47 0.24,-0.4 0.88,0 1.9,1.01 0.95,-0.2 0.4,-0.51 0.04,-0.67 -0.57,-2.16 0.38,-0.66 0.83,-0.65 0.11,-0.45 -0.4,-0.96 -1.01,-1.25 -0.06,-0.76 0.9,-0.88 1.23,-0.32 2.33,0.93 1.06,-0.93 0.19,-0.43 0.22,-1.43 -0.65,-0.96 -0.63,-0.27 -1.73,-0.03 -0.77,-0.45 -0.22,-0.98 0.25,-0.91 2.25,-2.76 0.57,-0.28 2.07,-0.25 0.73,-2.29 1.55,-1.08 -2.95,-2.29 0.21,-0.88 -0.67,-0.56 -0.09,-0.8 -0.73,-0.55 -0.57,-0.91 -1.29,1.21 -0.31,0.98 -0.38,0 -0.85,-0.83 -0.3,-0.03 -0.62,0.89 -0.74,0.42 -0.71,0.05 -1.35,1.14 -0.85,0.22 -0.38,-0.93 0.16,-0.55 0.47,-0.51 0,-0.75 -0.47,-0.1 -0.05,-0.58 -0.73,0.15 -0.17,-0.75 0.01,-0.43 1.03,-0.3 0.13,-0.26 -0.78,-0.17 0.4,-1.36 -1.47,-1.51 -1.98,-0.38 -1.38,-0.83 -0.63,0.5 -0.14,0.38 -0.59,-0.3 -0.66,0.4 -0.67,-0.25 -0.22,0.3 -1.33,0.03 -1.23,0.95 -1.25,-0.45 -0.26,-0.3 -0.6,-0.08 -0.14,0.3 -0.4,-0.02 -0.53,-0.55 -1.95,0.57 -0.25,-0.47 -0.57,-0.28 -1.25,-0.1 -0.87,0.22 -1,-1.61 -0.05,-0.42 0.38,-0.28 -0.36,-0.88 -1.85,-0.96 -12.05,-4.91 0,0 4.62,-1.41 -0.03,0.55 4.02,-2.02 0.73,-4.33 0.24,-6.18 7.04,-10.02 32.14,-10.03 9.29,-7.96 -9.59,-16.35 -1.86,-10.57 -1.21,-3.09 -2.33,-16.06 8.4,1.65 2.66,2.11 5.21,-0.54 4.86,-1.57 5.55,-2.28 1.93,1.54 1.96,2.44 0.92,-0.89 0.3,-0.05 0.46,0.38 0.46,-0.43 0.41,-0.05 0.06,-0.28 -0.73,-0.84 -0.47,-1.06 -0.02,-4.27 -1.66,-2.44 -0.47,-1.17 -0.22,-1.72 0.09,-2.37 -0.5,-1.73 -3.98,-3.89 -3.48,-2.13 -0.46,-0.51 -0.25,-1.27 1.2,-2.42 0.03,-1.17 -1.01,-0.46 -1.72,0 -0.57,-0.58 -0.07,-0.87 1.25,-1.93 -1.1,-4.38 -0.34,-3.08 -0.61,-0.56 -2.28,-0.97 -4.38,-0.59 -0.95,-0.23 -1.7,-0.84 -1.1,-1.4 -0.34,-2.65 -0.73,-3.01 z" 
                fill="rgb(151, 144, 238)" 
                stroke="white" 
                stroke-width=".7px"
                title="Limburg" 
                id="NL-LI" 
            />
        </svg>