<svg xmlns="http://www.w3.org/2000/svg" viewBox="131.5885300000007 450.81483000000014 293.8399999999997 154.62999999999988" width="293.8399999999997" height="154.62999999999988">
            <path 
                d="m 260.16853,453.38483 0.93,0.66 0.85,2.07 1.22,1.07 4.24,1.94 0.36,0.38 -0.02,0.71 0.79,0.54 0.7,1.48 1.39,1.53 0.57,0.23 1.12,-0.15 1.54,-1.63 0.92,-0.41 0.97,0.15 0.79,0.41 1.6,1.66 3.61,1.76 0.11,0.74 -0.47,1.35 -0.06,1.02 0.29,0.66 0.74,0.64 -0.7,1.04 -1.84,1.53 0.06,1.86 5.59,-1.43 2.06,-0.08 3.13,0.76 3.72,-0.82 0.9,0.1 1.14,0.48 1.65,1.48 1.16,0.43 1.01,-0.33 1.22,-1.02 1.12,-0.38 1.76,0.15 2.12,0.76 0.74,-0.05 3.18,-2.19 5,-2.29 0.79,-0.59 0.62,-1.07 0.14,-3.34 0.98,-3.26 2.75,-4.67 1.87,-2.4 0.79,-1.43 0.49,-0.41 1.3,-0.03 0.51,0.33 1.46,2.07 1.58,0.66 2.2,0.2 1.03,-0.15 1.98,-0.49 0.87,-0.61 0.68,-0.97 0.24,-1.46 0.57,-1.1 1.54,-0.66 0.59,0 0.98,0.51 2.44,2.43 3.29,0.82 1.01,-0.31 1.17,-1.94 0.71,-0.61 2.8,-0.2 1.92,-0.38 2.01,0.48 2.66,1.74 0.9,0.36 1.98,-0.05 0.81,0.23 1.04,1.15 0.93,2.78 1.09,1.61 1.69,1.07 2.96,0.51 1.2,1.15 1.12,1.94 0.76,0.74 3.04,0.51 0.71,0.41 1.2,1.22 0.43,0.74 -0.17,0.15 0.82,1.33 0.93,0.79 1.3,0.64 1.09,0.23 2.31,0.03 3.83,-1 7.14,-0.79 2.37,0.43 0,0 2.03,1.91 0.73,3.01 0.33,2.65 1.11,1.4 1.69,0.84 0.95,0.23 4.38,0.59 2.28,0.97 0.62,0.56 0.33,3.08 1.11,4.38 -1.25,1.93 0.06,0.87 0.57,0.58 1.72,0 1.01,0.46 -0.03,1.17 -1.2,2.42 0.25,1.27 0.46,0.51 3.48,2.14 3.97,3.89 0.51,1.73 -0.09,2.36 0.22,1.73 0.48,1.17 1.66,2.44 0.02,4.27 0.47,1.07 0.73,0.84 -0.06,0.28 -0.41,0.05 -0.46,0.43 -0.46,-0.38 -0.3,0.05 -0.92,0.89 -1.96,-2.44 -1.93,-1.55 -5.55,2.29 -4.86,1.57 -5.21,0.53 -2.66,-2.11 -8.4,-1.65 2.33,16.06 1.22,3.09 1.85,10.57 9.59,16.35 -9.29,7.96 -32.14,10.03 -7.04,10.02 -0.24,6.18 -0.73,4.34 -4.02,2.02 0.03,-0.55 -4.62,1.41 0,0 -0.6,-0.53 -0.71,-4.92 0.22,-1.97 -0.21,-0.96 0.22,-0.28 -0.08,-0.68 0.22,-0.66 -0.24,-1.24 -1.85,-1.31 -2.77,-3 -1.17,-1.61 -0.58,-1.46 -4.05,-1.14 -0.95,-0.08 -0.08,0.33 -0.71,0.66 -0.43,1.29 -1.65,1.51 -3.85,0.73 -0.49,1.49 -0.89,0.1 -2.6,3.46 -5.47,-1.31 -5.84,-1.71 -0.22,0.2 0.03,0.73 -0.57,1.46 -0.81,0.68 -3.51,-0.05 -3.21,0.4 -4.78,-1.21 -3.78,1.29 -0.63,-0.28 -1.44,-1.39 2.36,-8.88 -0.22,-0.63 -6.19,-4.01 -4.13,1.36 -1.77,1.39 -4.46,-1.36 -0.41,-8.26 -1.16,-0.99 -0.68,-0.91 -0.52,-1.44 -0.63,-0.88 -6.54,-7.31 3.35,-6.78 1.8,-3.06 -4.15,-9.83 -4.45,-0.13 -0.78,-0.2 -1.12,-1.93 0.08,-1.67 -0.71,-0.3 -0.46,0.13 -1.79,1.47 -0.76,1.39 -0.98,0.86 -0.57,1.57 0.41,2.91 -0.84,1.24 0.1,1.17 -6.22,5.27 -0.98,0.99 -4.57,6 -0.06,-0.86 -0.47,0.03 -0.11,0.53 0.41,0.46 -1.01,0.46 -1.14,-0.33 1.6,-0.43 -0.36,-0.46 -0.6,0.18 -0.19,-0.48 -0.98,-0.71 -0.24,-1.09 -1.01,-0.96 -0.32,-0.78 -0.51,-0.03 -0.43,0.58 -0.35,-0.68 -0.93,-0.18 0.19,-0.61 -0.49,0.13 -0.11,0.35 -1.38,-0.35 -0.11,0.35 -1.14,0.96 0,0.61 -0.16,0.03 -1.11,-0.38 0.02,-0.71 -0.95,-0.08 -0.48,-0.33 -0.81,0.68 -1.17,-0.53 -7.47,1.49 -1.66,-0.71 -1.11,-0.81 -0.43,-1.09 0.03,-1.09 -0.28,-1.17 0.41,-0.78 0.52,-0.15 1.72,-0.15 0.41,0.81 0.81,0.33 1.61,0.18 1.9,0.71 0.85,0.58 1.12,0.23 1.22,0.63 0.02,0.48 1.28,-0.03 -0.03,-0.3 -0.47,-0.25 1,-0.86 -0.14,-0.13 -1.06,0.43 -1.38,-0.1 -0.13,-0.2 -0.7,-2.94 0.08,-1.09 -0.41,-1.95 0.02,-0.38 0.7,-0.53 0.82,-1.24 0.14,-0.76 0.28,0.48 0.55,0.18 0.87,-0.79 -1.57,-1.19 0.6,-2.2 0.25,-2.31 -0.59,-0.33 -2.56,-0.43 -0.29,-0.66 -0.17,-1.65 -0.4,-0.56 -2.86,-1.17 -1.22,0.13 -0.92,-0.2 -0.6,-0.91 -1.31,-0.15 -1.91,0.43 -0.38,0.63 -0.87,0.13 -0.59,0.79 0.02,0.66 -0.55,1.09 -2.55,1.34 -1.25,2.51 -0.87,0.61 -0.06,0.73 -1.93,0.46 -0.68,2.1 -0.95,1.75 -1.38,0.3 -2.72,1.57 0.38,4.43 -1.63,0.53 -1.17,-0.43 -1.9,0.99 -1.74,-0.89 -8.42,-1.57 -6.31,2.35 -0.85,-6.58 2.72,-5.95 -1.68,-2.46 -7.91,1.24 -1.3,-0.2 -0.89,0.15 -1.58,1.65 -3.42,0.61 -8.7,4.81 -0.57,0.1 -0.73,0.91 0.85,0.3 1.41,-0.03 0.7,1.11 -0.17,1.14 0.47,0.43 -0.28,0.56 -0.63,0 0.35,1.21 -0.57,0 -0.19,0.58 -1,1.11 1.35,3.31 6.2,8.17 -0.87,1.04 0.82,1.72 -1.44,-0.28 -4.37,2.2 -1.82,0.33 -0.89,-0.08 -2.61,-0.66 -2.94,-0.1 -0.87,-4.2 -0.35,-0.56 -9.19,0.28 0,0 -0.54,-1.59 -1,-0.13 -0.52,-1.14 0.32,-0.3 -0.06,-1.49 0.41,-0.48 -0.05,-1.32 -0.76,-3.64 0.62,-1.24 1.28,-1.16 -0.78,-1.27 -6,-14.21 -2.07,-4.36 -0.03,-1.95 1.03,-3.09 -0.11,-0.25 1.76,-4.72 0.19,-1.09 -0.1,-1.45 -0.17,-0.68 -1.23,-2.11 -5.22,-6.4 -0.63,-1.6 -0.11,-0.99 0.21,-2.29 1.14,-2.47 1.8,-1.78 4.35,-1.91 1.68,-3.15 0,0 4.29,0.51 3.8,-0.89 2.17,-0.97 3.12,-0.66 3.29,-1.53 1.39,-0.81 1.39,-1.45 1.08,-1.78 0.38,-1.65 1.98,-1.96 0.46,-1.02 0.89,-0.03 0.44,-1.15 1.04,-0.66 2.17,-2.04 11.88,3.97 3.48,0.36 11.87,-3.26 2.5,-2.01 9.97,-2.85 4.79,-3.39 3.5,-3.11 2.01,-2.22 0.71,-1.12 1.53,-4.62 2.45,-2.91 2.37,-1.28 2.2,-0.71 2.14,-0.13 4.04,0.61 1.74,-0.38 0.93,-0.38 2.45,-1.76 2.86,-2.96 3.73,-1.86 1.77,-0.41 2.61,0 4.6,1.02 5.38,0.83 z m -11.83,94.07 0.02,0.48 0.79,-0.05 -0.28,0.2 0.16,0.28 0.6,-0.05 -0.66,1.01 -0.44,0.13 0.09,0.68 -0.33,0.15 -0.27,-0.89 0.21,-0.28 -0.08,-0.48 -0.51,0.43 -0.14,-0.28 0.25,-0.28 -0.11,-0.38 -0.87,0.53 0.59,0.71 -0.35,0.56 0.19,0.25 -0.11,0.73 -0.32,-0.05 -0.59,0.51 1.84,0.38 0.41,0.96 0.93,-0.23 0.41,0.46 0.55,-0.78 0,-0.66 -0.38,0.02 0.35,-0.53 0.29,0.15 0.35,-0.3 -0.33,-0.1 0.14,-0.35 -0.63,-0.13 0.02,0.33 -0.3,0.05 -0.13,-0.35 -0.19,0.18 -0.19,-0.81 0.97,0.1 -0.06,-0.68 -0.28,-0.15 -0.33,0.18 0.06,-0.46 0.28,-0.18 0.27,0.23 0.6,-0.71 0.35,-0.1 0.22,0.53 0.13,-0.35 0.68,-0.2 -0.09,-0.38 0.27,-0.23 -0.35,-0.58 -0.17,0.46 -0.57,0.28 -2.01,0.25 -0.95,-0.21 z m 2.66,1.52 0.06,0.28 1.06,-0.13 -0.71,-0.58 -0.08,0.3 -0.33,0.13 z m -7.92,5.41 0.14,-0.2 -0.17,-0.23 -0.4,0.53 0.43,-0.1 z m -4.18,2.58 0.02,-0.3 -0.3,0.05 0.03,0.28 0.25,-0.03 z m 11.03,1.98 -0.16,-1.29 -0.76,0.38 -0.84,0.08 0.59,0.58 -0.66,0.56 1.83,-0.31 z" 
                fill="rgb(151, 144, 238)" 
                stroke="white" 
                stroke-width=".7px"
                title="Noord-Brabant" 
                id="NL-NB" 
            />
        </svg>