<svg xmlns="http://www.w3.org/2000/svg" viewBox="179.64853000000036 99.82482600000003 143.69999999999968 261.5000040000001" width="143.69999999999968" height="261.5000040000001">
            <path 
                d="m 276.87853,318.98483 -0.97,-0.7 -0.13,-0.34 1.01,0.52 0.25,0.36 -0.16,0.16 z m -12.33,-1.58 -0.17,-0.13 0.22,-0.36 0.57,0.03 -0.62,0.46 z m 6.25,-3.75 -0.22,-0.05 -0.02,-0.31 0.28,0.03 -0.04,0.33 z m -8.7,-1.83 -0.24,0.05 -0.02,-0.31 0.43,-0.13 -0.17,0.39 z m 7.69,-68.2 -0.17,-0.05 0.1,-0.52 0.07,0.57 z m 37.85,-15.12 8.62,3.83 7.09,7.5 0,0 -0.36,0.26 0,0 -7.01,-7.42 -8.23,-3.59 -2.07,0.21 -0.71,-0.21 0.27,-0.36 2.4,-0.22 z m -94.39,-72.61 -0.6,0.31 -2.8,-0.24 -1.5,0.13 -3.34,0.81 -1.69,0.92 0.02,0.37 0.79,0.45 -0.55,0.55 -1.39,-0.1 -0.71,-0.55 -0.16,-0.79 0.17,-0.92 0.73,-0.76 1.57,-0.87 1.47,-1.31 1.09,-0.26 1.14,0 2.23,0.47 3.42,1.23 0.11,0.56 z m 55.41,8.52 -0.16,0.55 -0.41,-0.08 -1.57,1.26 -0.29,0.65 -0.09,1.83 1.47,-0.26 4.08,7.77 0.4,0.21 0.59,1.88 5.29,10.38 -1.52,18.28 1.22,0.08 0.67,1.17 0.87,3.63 2.34,2.14 0.54,0.83 1.55,1.54 1.17,0.39 1.77,0.03 1.41,-0.94 0.57,-0.5 1.95,-3.21 2.06,-0.05 2.41,0.31 0.68,0.39 1,0.18 0.55,0.65 1.15,0.55 0.89,0.03 0.4,-0.34 0.36,0.18 1.9,-0.57 0.43,0.5 -1.5,0.34 -0.05,0.21 2.15,-0.13 1.06,0.91 0.79,0.31 0.62,2.22 -0.46,0.6 0.35,0.73 -0.33,0.7 0.22,1.54 0.4,0.26 -0.11,1.09 2.04,1.56 0.96,0.08 0.1,0.26 -0.19,0.26 -1.01,-0.36 -0.35,0.34 0.13,1.04 -0.81,0.47 -0.36,0.57 -1.12,0.05 -0.14,0.16 0.3,0.26 -0.81,0.16 -0.05,0.26 0.79,0.65 -0.24,0.39 -0.25,-0.23 -0.44,0.03 -1.17,1.02 -2.1,0.34 -0.29,0.23 -0.43,-0.16 -1.11,0.26 -0.4,1.09 -0.11,2.08 -1.14,4.14 -0.79,1.17 -3.69,2.06 -1.01,0.99 -0.49,1.17 -1.33,0.03 -1.46,0.34 -1.14,0.65 -2.33,2.47 -2.33,0.23 -2.72,0.65 -0.52,-0.81 0.3,-1.09 -0.95,-1.43 -2.15,0.16 -1.79,-1.61 -0.84,-1.17 -2.2,0.65 -1.17,1.2 -0.41,-0.34 0.21,-0.34 -0.46,0.29 -0.9,-0.08 -0.13,0.62 0.24,0.34 -0.49,-0.16 0.14,-0.91 -0.73,-0.88 -0.93,0.03 -1.16,1.25 -1.12,0.18 -0.57,0.55 -1.06,0.52 -0.44,1.01 -0.08,1.61 0.57,3.2 -0.13,0.75 0.3,0.42 -0.14,0.55 0.29,0.68 -0.43,1.01 0.44,1.27 0.76,1.27 -0.08,0.52 0.81,2.31 -0.25,1.66 1.91,1.79 0.17,1.14 1.74,3.12 -0.11,1.53 0.73,0.78 0.95,2.02 0.14,1.17 0.68,1.19 0.7,0.03 -0.17,1.01 1.08,0.88 0.66,2.2 -1.58,2.72 -0.49,0.29 -0.27,0.52 -0.54,0.16 -0.57,-0.23 -0.47,0.62 -0.11,1.43 0.19,1.3 1.16,1.35 0.11,0.39 -0.21,0.73 -1.63,0.18 -1.09,-0.31 -1.91,0.96 -0.7,-0.41 0.55,1.32 0.59,0.23 -0.08,0.34 0.25,0.18 0.79,-1.06 0.66,-0.03 0.41,0.29 -0.81,1.66 -0.09,1.58 0.38,1.04 -0.27,1.06 0.27,0.34 0.96,0 0.68,0.31 1.03,-0.21 1.84,0.47 1.39,-0.08 0.25,-0.34 0.3,-3.26 0.35,-0.83 0.62,-0.67 0.36,-0.08 0.13,-0.34 -0.24,-1.35 0.24,-0.57 -1.46,-5.55 0.19,-0.26 0.3,0.03 1.52,5.24 1.23,1.14 0.13,0.52 1.87,0.05 1.08,-0.21 0.68,0.13 0.13,0.31 -1.58,0.6 -0.82,0.83 -1.35,0.18 -1.09,1.14 -1.17,0 -0.47,3.21 -1.08,1.66 -0.25,0.34 -0.44,0 -0.09,-0.34 0.22,-0.44 -0.21,-0.13 -0.46,0.67 -0.7,0.36 -0.4,1.04 -0.21,1.5 -0.57,0.72 -0.33,1.09 -1.54,-0.31 -0.54,0.21 -0.36,0.23 -0.85,1.55 -1.36,0.54 -0.84,0.93 -1.22,3.41 -0.73,0.26 -0.41,0.62 -0.81,0 -0.19,0.26 0.43,0.67 -0.27,0.7 0.08,0.41 -0.44,0.75 -0.36,0.13 -0.95,-0.59 -0.51,-0.8 -1.12,0.21 -1.71,0.98 -1.39,-1.55 -0.35,0.08 -0.9,-0.9 -0.71,0.83 0.47,1.24 1.14,0.16 1.41,1.16 -0.17,0.26 -0.66,0.08 0.14,0.52 -0.52,0.54 -0.02,-0.89 -0.46,-0.18 -0.47,0 -0.38,0.72 0.7,0.7 1.06,0.31 0.59,0.85 0.95,0.26 0.27,0.75 0.85,0.54 0.47,0.83 0.82,0.8 0.89,0.36 1.46,0.1 0.89,-0.88 1.3,-0.16 1.12,1.09 -0.14,0.93 -0.84,0.44 0,0.52 0.44,0.44 0.74,-0.08 -0.29,-0.59 0.13,-0.1 1.42,0.54 2.39,-0.49 1.63,0.28 1.28,-0.93 2.28,0.34 1.6,1.01 1.39,1.24 1.69,0.26 1.19,0.59 0.76,-0.21 0.51,0.41 0,0 1.16,1.45 1.08,0.62 11,-1.88 9.73,2.45 4.65,3.07 3.81,3.77 0,0 -4.73,3.38 -4.62,-0.83 -1.5,1.37 -0.93,-0.41 -2.53,5.21 -3.47,3.09 -0.1,5.88 -0.4,2.06 -1.25,2.94 -3.12,5.79 -2.79,0 -8.04,-0.59 -0.28,-1.13 1.79,-0.93 1.14,-1.03 0.84,-1.49 -1.99,-3.97 -1.9,-1.06 -0.49,0.95 -6.79,0.18 -2.03,-0.57 -3.21,-1.57 0.02,-1.47 -0.65,-0.72 3.31,-1.49 -2.18,-2.14 0.05,-0.9 -0.62,-1.96 -0.84,0.75 -0.52,-0.18 -0.25,-0.54 0.05,-1.11 -0.55,-0.57 -0.02,-0.95 -0.73,-1.52 1.12,0 0.51,-0.7 1.2,-0.49 1.22,-0.03 0.17,-1.14 1.28,-0.67 0.46,-0.1 0.22,0.21 0,0.57 0.52,0.26 -0.21,-1.21 -0.55,-0.77 -0.57,-0.05 -0.76,0.54 -0.35,-0.36 -1.23,1.47 -1.5,-1.26 -0.71,0.21 -0.44,1.19 -0.51,-0.44 -0.4,1.11 -0.59,0.15 -0.21,0.67 -0.7,0 -1.36,-3.2 -0.98,-0.41 -1.65,-0.05 -0.81,0.23 -1.27,0.9 -0.89,1.47 -0.47,0.26 -2.58,-0.41 -0.6,0.18 -1.27,-0.7 -1.2,0.52 0.21,2.24 -0.79,0.28 -0.52,0.46 -0.19,0.75 -0.82,0.21 -0.51,0.93 0.02,0.75 -0.68,0.57 -4.23,-0.21 -0.54,0.23 -2.01,0.1 -0.65,0.26 -1.22,1.01 -0.4,0.39 -0.76,1.6 -2.52,2.01 -2.98,1.37 -0.79,-0.15 -1.68,0.15 0,0 -1.65,-0.36 -1.55,0.67 -0.92,1.34 -1.38,1.08 -1.46,0.33 -1.93,1.24 -1.23,1.55 -0.92,-0.7 0.19,-0.46 -0.08,-0.93 -0.57,-1.26 0.22,-2.94 -3.09,-0.49 -1.5,0.62 -1.16,1.21 -0.21,-0.15 -0.4,0.26 -3.01,0.18 -5.13,2.99 -3.24,0.23 -2.25,-0.28 -2.36,-0.93 -1.68,0.57 -2.33,-0.54 -1.08,-0.88 -0.16,-1.31 0.09,-0.49 1.3,-1.62 1.25,-6.55 -0.29,-2.04 3.13,-3.17 1.47,-3.2 0.02,-0.65 1.04,-2.74 1.28,-1.86 -3.88,-1.65 -0.43,0.03 -2.14,0.59 -1,1.86 -10.74,-4.85 0,0 8.78,-22.26 1.79,-5.2 0.63,-2.72 0.22,-3.32 0.81,-1.11 -0.6,-1.71 1.25,-2.69 1.82,-5.08 1.93,-9.44 2.12,-13.14 1,-9.95 1.23,-8.12 0.06,-1.87 0.87,-5.88 1.49,-13.26 1.42,-6.7 0.92,-2.4 1.36,-2.64 2.67,-9.06 3.67,-14.66 0.82,-3.79 0.7,-14.14 0.54,-2.28 1.14,-2.2 0.87,-1.07 0.55,-0.24 2.29,-0.42 0.89,0.26 1.23,-0.6 2.56,0.13 -0.13,0.58 0.57,-0.31 0.43,0.26 -0.11,0.29 -0.36,-0.21 -0.32,0.58 0.17,0.73 0.4,0.45 0.33,0.03 0.11,0.63 0.17,0 1.16,-0.31 -0.13,-0.76 0.68,-0.52 -0.21,-0.45 -0.48,0.34 -0.28,-0.76 1.54,-0.31 0.46,1.05 -0.06,1 -1.54,3.3 -0.44,2.17 0.25,0.24 0.06,0.6 0.41,0 0.11,0.76 1.76,3.95 0.44,0.6 10.35,5.94 5.14,-1.36 1.79,-1.18 3.18,-1.33 -0.16,-0.47 0.57,-0.05 2.01,-2.54 0.43,-0.94 0.25,-1.39 1.5,-1.34 2.03,-0.5 1.04,0.03 2.36,-1.1 1.84,0.52 1.33,-0.26 1.14,-0.55 0.41,0.39 0.28,-0.1 0.63,0.65 1.79,-1.34 -0.21,-0.31 0.24,-0.31 18.09,-15.67 0,0 0.65,0.87 0,0 -17.69,15.47 z m -27.61,-57.19 0.73,-0.24 0.55,0.5 1.22,1.68 1.82,3.53 -0.14,0.92 -0.44,0.05 -0.22,0.71 -0.32,-0.87 -0.41,8.21 0.32,2.42 -0.03,1.84 -0.62,1.89 -0.7,0.26 -1.9,1.6 -0.21,0.89 -1.04,0.63 -0.14,2.71 -1.25,1.71 -0.44,1.34 -0.55,0.52 -0.24,-0.39 -0.89,0.73 0.1,0.47 -0.7,1.02 -0.68,0.39 -1.23,0.5 -2.23,0.1 -0.41,0.34 -4.26,5.54 0.02,0.47 0.7,0.42 -0.46,0.66 -1.27,0 -0.52,-0.6 -0.43,0.31 -1.06,-0.66 -0.84,0 -2.34,-1.1 -0.41,0.34 0.43,0.21 0.17,0.79 1.84,0.73 0.24,0.55 1.04,0.66 0.16,0.34 -0.46,0.03 -1.06,-0.5 0.14,0.21 -1.85,0.79 0.02,0.29 0.46,0.08 -0.05,0.21 -1.58,0.52 -1.31,-0.21 -0.97,0.55 0.38,0.13 -0.44,0.5 -0.59,-0.08 -1.3,-1.21 -1.39,-2.81 -0.55,-2.86 0.25,-4.88 1.01,-5.17 0.81,-2.73 1.5,-3.68 3.02,-5.68 4.68,-7.49 1.69,-2.26 5.14,-8.4 2.15,-2.63 1.91,-1.69 1.46,-0.550004 0.4,0 0.6,0.420004 1,1.71 0.68,0.45 0.81,1.76 -0.08,1.47 0.17,0.95 0.39,0.64 z" 
                fill="rgb(151, 144, 238)" 
                stroke="white" 
                stroke-width=".7px"
                title="Noord-Holland" 
                id="NL-NH" 
            />
        </svg>