<svg xmlns="http://www.w3.org/2000/svg" viewBox="382.8285300000004 186.44483 205.10999999999984 190.75000000000026" width="205.10999999999984" height="190.75000000000026">
            <path 
                d="m 437.14853,186.44483 1.21,1.57 0.35,1.02 0.79,1.04 5.61,6.53 1.13,0.63 3,4.13 1.03,1.04 -5.16,5.71 -0.19,1.26 -3.07,1.54 -3.64,0.88 -0.34,0.24 -0.72,1.25 3.2,8.24 1.79,3.91 0.81,2.81 0.98,1.3 0.54,0.34 0.2,-0.13 0.52,0.49 0.76,1.57 1.22,-0.5 0.38,0.44 2.03,0.24 0.85,-1.17 0.85,-0.03 1.26,-0.47 0.17,0.68 1.42,0.81 0.45,-0.16 0.17,0.36 1.2,0.6 0,0 0.87,-0.08 0,0 0.84,1.41 0.93,0.7 1.13,0.08 0.54,0.73 0.8,0.52 0.43,-0.08 0.7,-0.88 0.58,0.08 0.97,1.32 0.46,0.26 0.53,-0.07 0.57,-0.84 1.21,-0.08 1.96,-0.93 0.95,-0.05 0.54,0.93 -0.43,0.52 0.05,1.17 1.17,1.05 1.23,0.44 0.4,0.52 1.44,0.86 0.09,0.54 0.32,0.34 0.49,-0.05 0.7,0.52 -0.16,0.34 1,1.25 0.26,1.27 0.68,0.96 -0.15,1.07 0.47,0.8 0.08,0.84 0.58,0.78 0.4,0 0.14,0.72 0.22,0.06 1.43,-0.76 0.39,-0.67 1.51,0.05 0.5,-0.91 1.43,0.73 0.46,-0.37 0.11,-0.6 0.95,-0.7 0.44,-0.8 0.17,0.59 0.43,0.42 -0.05,1.01 0.53,0.68 0.95,0.6 0.93,0.15 1.74,-0.52 0.51,-0.54 0.61,-1.93 0.7,0.37 -0.03,0.65 0.66,0.26 0.18,0.41 1.2,0.13 0.33,-0.28 1.01,0.05 0.95,0.42 1,0 0.43,0.8 0.71,0.05 0.27,0.65 0.36,0.03 0.08,0.55 0.37,0 0.23,-0.45 -0.44,-4.36 -0.49,-1.46 -0.35,-3.02 0.11,-0.49 4.73,-3.9 1.3,-0.73 10.1,-2.27 9.63,4.58 5.4,1.88 -0.81,1.84 0.33,0.11 0.23,0.52 -1.02,1.12 0.32,0.54 -0.57,1.61 1.82,0.11 0,0 0.29,0.05 0.66,1.07 0.43,0.23 0.82,1.59 -0.43,3.04 -0.55,1.87 -0.1,2.05 7.5,6.62 -2.16,0.81 -0.91,0.05 -1.07,-0.44 -0.87,0.05 -1.54,-0.39 -0.8,2.68 -0.81,0.65 -0.06,0.39 -5.51,-1.12 3.94,8.23 -1.12,8.94 2.54,1.95 0.97,0.57 0.95,0.18 4.18,3.21 1.31,0.54 2.61,0.78 9.34,-0.34 1.8,0.42 0.96,-0.1 -0.01,2.43 1.63,-0.34 6.99,2.02 5.37,2 1.07,-0.39 2.23,-2.18 0.59,-0.9 1.74,-4.02 1.76,-1.24 0.79,1.01 0.09,0.67 1.3,3.11 1.3,5.41 1.77,1.61 2.28,5.17 -0.05,0.47 0.9,-0.05 1.62,0.64 0.65,-0.38 0.46,0.2 0.01,0.8 0.81,1.25 1.55,4.7 -0.11,5.51 -2.66,3.72 -0.28,1.76 -1.13,1.67 0.11,1.27 -0.38,1.26 -1.15,2.3 -0.51,0.47 -1.27,2.84 -0.11,0.77 0.05,1.16 0.35,1.11 -0.03,0.65 -0.21,0.15 0.08,1.16 0.9,0.96 1.63,3.73 3.17,3.54 -0.7,1.62 -3.43,2.22 -2.64,0.18 -0.48,0.38 -0.41,-0.41 -1.98,-0.54 -1.39,0.31 -0.4,-0.16 -1.09,0.55 -0.12,0.56 -0.76,0.65 0.11,1.67 -0.73,1.91 -0.86,1.13 -1.4,3.01 -1.62,2.48 -0.31,0.23 -2.73,0.54 -3.83,0.56 -0.31,0.49 -0.14,1.21 -3.55,3.3 -1.5,6.71 -2.66,2.57 -5.68,0.59 -9.34,0 0,0 -7.13,0.05 -2.71,-1.26 -3.45,-0.64 -2.33,-1.08 1.68,-2.7 0.21,-1.65 -0.21,-0.72 0.03,-1.41 -0.44,-0.23 0.51,-0.75 0.03,-0.62 -0.29,-0.85 -0.44,-0.41 -3.26,-1.72 -0.66,-0.05 -0.78,1.36 -0.77,-1.08 -0.84,-0.26 -0.38,0.31 -0.27,0.83 -0.67,0.23 -1.33,1 -1.33,-1.23 -0.11,-0.42 0.51,-1.05 -0.7,-0.49 -0.31,-0.62 -0.98,-0.41 -0.05,-0.41 -0.48,-0.29 -0.11,0.26 -5.69,1.16 -6.29,-1.03 -3.02,1.08 -0.54,-0.18 -0.52,-0.51 -1.53,-0.75 -0.53,-0.69 -0.87,-1.96 -0.07,-1.42 -0.32,-0.31 -1.04,-0.05 -0.94,-0.36 -1.3,-2.63 -3.19,-3.34 -0.65,-1.86 -1.11,-1.57 0.05,-1.29 -2.58,-0.31 -2.04,0.13 -0.9,-0.44 -1.76,0.75 -2.99,0.18 -0.32,0.69 -0.63,0.11 -1.05,0.69 -0.09,2.19 -1.39,0.06 -1.27,0.36 -3.27,-0.03 -0.49,-0.44 -0.11,-0.44 -0.48,-0.1 -0.13,-0.41 -1.83,0.49 -0.37,0.51 -1.04,-0.36 -0.08,0.75 -1.53,-0.44 -2.09,0.18 -0.43,-0.33 -1.09,0.02 -1.09,-0.41 -2.44,-0.33 -2.31,-1.73 -1.74,0.08 -1.03,-0.31 -0.65,0.28 -0.71,-0.08 -0.22,0.11 -0.22,0.9 -0.15,1.52 -0.72,-0.77 -0.37,0.67 0.33,0.25 -0.12,0.24 -0.62,-0.26 0.3,0.85 0.57,0.67 -0.03,0.46 -0.29,0.31 -0.34,-0.31 0.04,-0.82 -0.42,-0.75 -1.35,-0.33 -1.07,-0.78 -0.43,-1.65 0.33,-0.85 1.11,-0.72 0.27,-0.9 -0.08,-0.52 -1.96,0.18 -0.89,-0.64 -1.8,-0.41 0,-1.01 0.91,-1.31 -0.88,-0.78 -0.45,-1.96 -1.51,-1.86 -0.13,-2.5 -0.82,-1.16 -0.45,-1.44 -0.33,-0.6 -1.65,-0.02 -1.06,-0.34 -0.09,-2.81 -0.54,-1.19 -1.57,-0.21 0.02,-0.51 0.63,-0.78 0.26,-1.83 0.22,-2.53 -0.21,-2.61 0.4,-0.68 1.6,-0.49 0.87,-0.72 -0.22,-0.54 -0.5,-0.42 -1.26,-0.28 -0.36,-0.31 -0.29,-0.6 0.03,-0.93 0.63,-0.87 3.14,-0.6 2.89,-1.11 0.42,-0.47 0.34,-0.72 0.05,-2.43 0.7,-1.4 0.88,-3.41 -0.09,-0.96 -0.9,-2.59 -2.35,-3.47 -1.25,-0.93 -0.61,-0.8 0.16,-2.44 -0.19,-2.82 -0.43,-1.27 -1.35,-1.63 -2.39,-1.07 -1.26,-1.03 -0.81,-1.22 -1.01,-2.46 -3.04,-2.39 -0.62,-0.08 -0.98,-0.54 -0.44,0.78 -0.67,0.54 -1.71,0.6 -6.89,7.13 -1.37,-1.97 -0.93,0.23 -2.01,1.5 -0.62,-0.57 -1.2,0.55 -0.5,-1.61 -1.65,-3.5 -1.11,-1.89 -2.1,-2.62 -2.46,-2.18 -2.15,0.8 0,0 -1.25,-7.13 -0.49,-1.48 -6.74,-7.2 -1.45,-0.26 -3.74,0.06 0.06,-6.86 9.39,0.02 0.43,-0.7 0.82,-0.34 9.32,-2.05 1.26,0.49 0.8,0.86 2.34,-0.29 3.64,-2.05 0.23,-0.57 5.24,-1.15 3.56,-2.36 0.83,-0.96 -0.04,-0.4 -0.39,-0.65 -1.89,-1.87 -2.57,-0.7 -2.52,-2.21 -1.54,-0.52 -1.09,-0.08 -2.1,-0.83 -0.02,0.36 -0.68,-0.08 -0.38,-0.44 -0.06,-0.89 1.79,-2.03 1.47,-1.01 0.9,-1.07 0.51,-0.08 0.41,-0.68 -0.03,-0.91 -0.68,-1.51 -0.53,-0.41 -0.31,0.02 0,-0.91 -0.54,-0.94 -1.11,-0.57 -1.6,-5.53 -1.12,-2.89 -0.57,-0.89 -3.05,-2.89 -0.57,-0.03 -0.95,-0.6 -1.62,-1.38 -0.93,-1.31 -3.1,-2.14 -1.39,-0.67 -1.87,-0.34 -0.33,-0.24 -2.9,0 -0.03,-0.49 -2.14,-1.88 -1.41,-2.51 0,0 3.79,-2.64 0.23,0.4 1.93,1.09 0.35,1.07 0.38,0 0.62,-0.57 0.85,0.44 1.49,-0.05 0.57,0.34 0.74,-0.03 1.46,0.79 0.76,0.07 3.31,-1.56 0.6,-0.94 1.37,-0.86 0.81,-1.23 1.43,-0.94 0.03,-1.31 0.19,-0.29 -0.24,-0.44 0.65,-0.31 0.06,-0.55 1.65,-0.21 0.76,-0.31 1.47,0.6 -0.18,-1 0.2,-0.39 0.69,-0.47 2.14,-0.47 0.49,2.01 0.92,1.36 0.74,2.01 0.6,0.13 0.81,0.74 0.68,0.13 0.52,-0.03 0.49,-0.42 1.31,-0.44 1.81,-0.24 0.71,1.44 1.34,-0.55 2.39,-1.46 0.32,-0.58 -0.52,-2.61 1.79,-0.73 2.05,0.23 0.72,-0.13 0.6,-0.62 0.79,-0.45 0.85,-0.08 1.92,-1.22 z" 
                fill="rgb(151, 144, 238)" 
                stroke="white" 
                stroke-width=".7px"
                title="Overijssel" 
                id="NL-OV" 
            />
        </svg>