<svg xmlns="http://www.w3.org/2000/svg" viewBox="226.40852999999962 332.79483 132.73000000000016 90.62999999999988" width="132.73000000000016" height="90.62999999999988">
            <path 
                d="m 227.45853,348.19483 1.68,-0.16 0.79,0.16 2.97,-1.37 2.52,-2.01 0.76,-1.6 0.39,-0.39 1.22,-1 0.65,-0.26 2.01,-0.1 0.54,-0.23 4.22,0.2 0.68,-0.57 -0.01,-0.74 0.5,-0.93 0.83,-0.21 0.19,-0.75 0.52,-0.46 0.79,-0.28 -0.21,-2.25 1.21,-0.51 1.26,0.69 0.6,-0.18 2.58,0.41 0.48,-0.25 0.88,-1.47 1.27,-0.91 0.81,-0.23 1.64,0.05 0.98,0.42 1.36,3.19 0.7,0 0.21,-0.67 0.58,-0.15 0.4,-1.11 0.5,0.44 0.45,-1.19 0.71,-0.2 1.5,1.26 1.24,-1.47 0.34,0.36 0.76,-0.54 0.57,0.05 0.56,0.77 0.2,1.22 -0.52,-0.26 0,-0.57 -0.22,-0.21 -0.46,0.11 -1.28,0.67 -0.18,1.13 -1.21,0.03 -1.21,0.49 -0.5,0.7 -1.13,0 0.73,1.52 0.02,0.95 0.55,0.57 -0.05,1.11 0.26,0.54 0.52,0.18 0.84,-0.75 0.61,1.96 -0.04,0.9 2.18,2.14 -3.31,1.5 0.65,0.72 -0.01,1.47 3.21,1.57 2.02,0.57 6.79,-0.18 0.49,-0.96 1.9,1.06 2,3.97 -0.84,1.49 -1.14,1.03 -1.79,0.93 0.28,1.13 8.04,0.59 2.79,0 3.12,-5.79 1.25,-2.94 0.39,-2.06 0.1,-5.88 3.46,-3.09 2.53,-5.21 0.94,0.41 1.5,-1.36 4.62,0.82 4.73,-3.38 0,0 8.04,7.95 3.07,2.63 0,0 -1.82,7.83 6.47,5.28 0.05,1.52 -0.41,1.98 -0.65,0.54 -1.19,-0.36 -0.68,0.54 0.52,0.52 0.26,1.54 -0.13,0.93 2.52,0.9 6.04,0.82 0.08,0.39 1.03,0.44 -0.1,0.54 0.45,0.15 -0.22,1.73 1.28,0.56 1.63,0.05 -0.3,1.5 0.11,0.38 2.13,1.06 -0.77,1.49 -1.73,0.25 -0.22,1.44 -0.36,-0.07 0.73,0.9 0.77,0.25 -0.03,0.88 0.66,0.36 0,0.36 -3.27,-0.34 1.11,0.72 -0.08,0.49 -1.38,1.34 0.21,2.67 -2.28,1.44 -1.71,2.18 0.3,0.34 0.63,0.15 0.1,0.49 2.72,1.62 1.34,-0.47 1.86,-0.02 0.41,-1.39 1.4,-0.1 1.32,0.28 1.52,-1.62 -1.05,-0.43 0.51,-0.9 1.28,0.38 0.11,-0.51 0.08,-0.67 -0.85,-0.23 0.44,-1.03 -0.4,-0.33 -0.01,-0.36 -0.48,-0.16 -0.11,-0.66 1.41,-0.36 0.41,0.48 0.34,-0.07 -0.08,-0.49 1.07,-0.16 0.27,1.47 -0.3,0.72 0.6,0.41 0.13,1.85 0.52,0.62 0.44,0.02 0.26,2.01 -0.46,1.9 0.17,0.35 -0.39,3.78 -0.56,1.51 1.21,0.52 -0.21,1.77 3.01,1.13 -0.21,4.49 -0.87,0.02 1.55,1.69 0.38,-0.41 0.49,0.54 0.27,0.44 0.14,1.64 0.65,0.69 1.27,1.18 0.99,0.2 0.68,1.06 0.35,2.1 1.6,1.89 -0.17,1.08 -0.41,0.64 0.03,0.69 0.69,1.67 -0.01,1.53 -0.94,0.23 0.07,1.31 -0.91,-0.51 -1.59,1.41 -2.68,-1.8 -4.1,-1.05 -1.23,-0.53 -1.14,-0.9 -1.14,-1.82 -5.11,-1.89 -1.04,-0.95 -2.16,-1.31 -0.91,-0.23 -2.79,0.31 -4.32,-0.85 -1.04,0.57 -2.08,1.76 -4.97,1.9 -1.51,0.1 -2.3,-0.49 -1.34,0.21 -1.25,0.87 -1.57,2.02 -1.93,0.98 -1.35,-0.08 -2.45,-1.64 -2.56,-0.33 -2.01,-0.54 -1.76,-0.95 -1.85,-1.92 -1.25,-0.74 -1.2,0.31 -0.68,0.84 -1.39,2.69 -1.13,1 -0.85,0.21 -2.03,-0.44 -2.17,-1.41 0,0 -1.02,-0.67 -2.82,-0.48 -1.14,-0.67 -0.79,-1.66 -0.35,-2.64 -0.41,-0.77 -2.06,-1.21 -1.58,-0.59 -1.2,-0.38 -1.81,-0.1 -1.67,0.48 -3.03,1.49 -0.55,0.82 -2.8,2.2 -1.03,1.13 -0.41,1.23 -0.82,1.13 -1.6,0.18 -2.44,-1.92 -1.2,-0.23 -0.63,0.12 -1.44,0.85 -2.06,2.92 -0.9,0.62 -1.21,-0.08 -2.39,-0.95 -0.88,0 -1.08,1.13 -1.06,2.53 -1.2,1.51 -3.09,0.8 -1.47,0.13 -1.64,0.56 -1.29,-5.05 -1.1,-0.89 -0.4,-1.39 -1.19,-0.74 -1.86,-2.13 -1.65,-2.33 0.62,-0.28 -1.01,-1.38 -1.21,-0.41 -1.4,-1.87 6.34,-1.57 0.14,-0.33 -1.29,-2.49 -1.02,0.54 -2.62,-0.1 -0.97,0.69 -1.77,0.18 -0.44,-1.44 0,-0.92 1.39,-1 -0.27,-1.93 1.14,-0.84 2.04,-3.18 2.61,-1.98 3.31,-1.21 0.8,-1.64 -4.92,0.05 -1.56,0.39 0.06,-1.37 -0.89,-1.07 -0.28,-1.26 -0.27,-3.91 0.09,-2.33 -5.41,-3.89 0.26,-1.05 1.94,-0.87 0.32,-2.06 0.9,-1.31 1.27,-0.54 1.48,-0.29 0.92,-0.48 0.37,1.51 0.88,0.7 3.09,0.41 1.14,-0.18 0.08,-0.28 0.71,-0.34 -0.59,-4.04 3.25,-1.26 0.04,-0.36 -5.3,-3.68 -2.39,-0.85 -4.52,-4.99 -0.32,-0.8 -1.07,0.05 -0.26,-1.36 0.03,-2.53 -1.12,-1.85 z" 
                fill="rgb(151, 144, 238)" 
                stroke="white" 
                stroke-width=".7px"
                title="Utrecht" 
                id="NL-UT" 
            />
        </svg>