<svg xmlns="http://www.w3.org/2000/svg" viewBox="0.2585317099999634 465.51482999999985 145.10999829000002 145.09000000000037" width="145.10999829000002" height="145.09000000000037">
            <path 
                d="m 123.11853,569.76483 0.43,0.03 0.03,-0.38 0.16,0.1 0.73,1.57 -0.28,0.2 -1.55,0.15 -1.95,-0.86 -0.49,-0.56 1.19,-0.78 1.42,0.2 0.31,0.33 z m -93.219998,-9.96 2.94,0.94 -0.21,0.61 0.19,0.13 0.4,-0.18 0.16,0.2 0.92,0.03 1.57,1.85 0.95,0.33 1.65,0.05 0.9,0.25 0.25,0.48 0.95,0.25 0.21,0.48 3.94,1.14 7.17,1.14 0.78,0.91 0.11,0.46 0.36,0.15 0.11,0.46 2.55,1.67 1.22,1.72 1.52,0.15 1.23,-0.4 3.88,0.78 0.16,0.5 -0.63,0.51 -0.09,0.93 1.66,0.88 0.6,0.03 0.06,-0.28 -0.3,-2.73 0.13,-0.35 3.05,0.08 0.57,0.71 1.16,0.63 1.52,0.23 -0.46,0.5 -0.03,0.46 1.16,2.25 0.33,-0.18 -0.44,-1.44 0.54,-0.23 -0.38,-1.24 0.47,0.05 -0.14,0.35 0.27,0.83 0.47,-0.25 0.35,-0.93 0.35,0.03 -0.24,0.35 0.3,0.35 1.22,0.18 1.22,0.76 4.04,-0.1 1.06,-1.34 0.35,-0.96 2.36,-0.71 0.68,-0.88 2.83,-1.95 1.71,-0.73 2.6,-0.56 0.09,-0.23 1.19,-0.38 0.52,0.08 0.33,-0.3 0.78,0.61 0.21,-1.04 -0.17,-0.4 0.54,-1.06 0.11,-1.54 0.87,-0.94 -0.37,-0.86 -0.16,-2.23 1.65,-2.33 2.579998,0.23 0.38,0.53 3.94,0.61 -0.32,0.53 0.38,0.38 0.41,-0.18 0.62,1.04 0.55,0.2 0.65,2.33 -0.27,0.18 0.19,0.63 0.65,0 1.2,2.58 0.93,1.14 4.49,0.28 2.07,0.35 3.7,3.23 2.77,3.29 1.63,0.93 -1.74,-2.27 -0.84,-1.84 1.71,-0.66 1,-0.05 0.49,0.35 0.49,1.01 0.9,0 0.7,0.5 0.85,1.21 -0.08,0.48 0.3,0.05 0.41,-0.63 -0.7,-0.61 -0.33,-0.76 2.48,0.13 -0.38,-0.4 -2.18,-0.4 -0.38,-0.38 3.58,-0.18 1.22,0.28 -0.66,-0.66 -3.05,-0.02 -1.38,-0.43 -1.31,-2.25 0.08,-1.16 1.04,-0.33 0.65,0.23 0.98,-0.83 0.59,-0.13 0.43,3.08 2.28,1.34 1.12,0.2 -1.8,-0.94 -0.97,-0.86 -0.3,-0.71 0.03,-1.29 0.3,-0.28 0.43,0.33 0.17,1.06 0.17,-2.17 0.63,-0.71 1.33,0 1.08,0.46 0.46,-0.03 1.12,0.86 0.65,2.15 0.97,1.62 1.69,1.87 -2.26,3.44 -8.09,10.45 -10.74,8.12 -2.91,1.89 -0.63,0.63 -2.04,1.06 -0.54,0.96 -2.91,0.68 -0.44,-0.2 -0.51,-0.86 -0.65,0.53 -1.19,0.48 -0.57,-0.96 -1.04,0.03 -1.99,1.11 -0.74,0.83 -0.76,0.3 -0.779998,0.73 -0.3,-0.38 -1.41,2.34 -2.26,0.4 -0.06,0.73 -0.65,1.21 -1.73,0.13 -0.79,0.25 -0.02,0.33 -1.06,0.33 -0.47,-1.11 -0.76,-0.86 -0.48,0.81 -0.92,0.05 -0.49,0.83 0.21,1.11 -0.47,0.08 -0.59,0.81 -1.72,0.78 -0.89,-0.33 -0.32,0.4 -0.84,0.43 -0.32,-0.78 -0.92,-1.06 1.84,-1.41 0.46,-0.91 -0.93,-1.56 -1.38,0.71 -3.21,2.29 -1.11,-0.68 -0.4,0.3 -0.35,-0.15 -0.74,0.4 -0.92,-0.38 -1.11,0.86 -1.08,0.25 -2.03,-0.91 -0.81,-0.13 -0.17,0.2 0.22,0.83 -0.14,0.13 -0.79,-0.66 -0.32,-0.68 -0.9,-0.23 -0.24,-0.48 -0.17,-2.85 0.16,-4.26 0.97,-2.67 -0.22,-0.35 -1.19,-0.3 -1.46,-1.31 -0.71,-0.3 -0.27,0.58 -0.68,0.35 -0.79,-0.53 -0.87,-1.69 -0.62,-0.38 -0.62,0.33 -3.92,-0.93 -1.01,0.4 -3.5,-1.01 -0.38,-0.23 -0.55,-1.08 -1.68,-0.03 -0.41,-0.68 -2.93,-1.72 -2.01,0 -0.73,0.5 -2.26,-1.34 -0.73,0.08 -0.46,-0.78 -4.38,-2.32 -1.57,1.87 0.76,1.36 -0.6,0.43 0.27,0.68 -0.28,0.48 -0.49,-0.48 -0.52,0.13 -0.71,-0.61 -0.05,-0.35 -1.36,-0.68 -0.52,0.2 -0.21,0.66 -0.49,0.35 -1.79,-0.23 -0.81,1.72 -0.87,0.13 -1.19,-1.19 -1.55,0.3 1.92,10.37 -7.18,0.86 -4.75,0.33 -0.95,-0.1 -2.26,-0.86 -0.63,0.05 -0.44,-2.34 -0.27,-0.35 -1.1400003,-1.08 -1.14,0.73 -0.65,-1.34 -1.68,-1.06 -0.92,-1.82 -1.39,-0.35 -0.57,-0.71 0.95,-0.78 -0.03,-1.44 -0.28,-0.45 -1.39,-0.96 -0.62,-1.57 1.42,-0.76 -2.66999999,-3.16 -0.04,-0.45 3.98999999,-4.52 -0.29,-2.27 -1.36,-1.77 -0.13,-0.78 0.22,-1.87 -1.31,-2.53 0.79,-1.14 1.36,-0.96 0.02,0.4 0.28,-0.03 0.09,-0.51 2.86,-1.04 3.6700003,-1.85 1.31,-0.2 0.19,0.78 0.71,0.23 0.14,-0.51 1.96,-0.61 0.76,-0.61 2.33,-0.33 2.31,-0.76 0.92,-0.43 0.13,-0.43 0.87,-0.05 1.58,-1.39 1.77,-0.18 0.71,0.3 2.64,0.25 1,0.35 0.12,0.7 z m 25.09,-28.4 0.17,0.2 -0.59,-0.15 -0.3,-0.36 0.46,0 0.26,0.31 z m -1.86,-2.48 -0.3,-0.1 0.35,-0.1 -0.05,0.2 z m -0.34,-1.09 -0.13,0.15 -0.13,-0.25 0.17,-0.48 0.09,0.58 z m 4.39,-0.03 -0.08,0.23 -0.17,-0.1 -0.13,-0.38 0.51,-0.96 -0.13,1.21 z m 0.63,-1.14 0,0.36 -0.22,-0.79 0.36,-0.41 0.16,0.28 -0.3,0.56 z m -5.11,-0.68 -0.22,0 0.41,-0.25 0.35,-0.76 0.14,0.66 -0.68,0.35 z m 11.36,-2.59 0.76,0.08 0.28,-0.2 0.78,0.53 -1.22,0.28 -2.55,-0.05 0.02,-0.63 0.25,-0.33 0.55,-0.05 1.13,0.37 z m 17.83,-0.61 -0.36,-0.03 0,-0.18 0.49,-0.51 0.25,0.36 -0.38,0.36 z m -15.49,0.02 -1.01,-0.56 0.08,-0.13 0.43,-0.1 0.73,0.3 -0.23,0.49 z m -1.37,-0.71 0.17,0.84 -1.73,-0.18 -0.43,-0.43 1.44,-0.43 0.41,0 0.14,0.2 z m -13.37,-0.23 0.68,0.3 0.62,0.61 0.32,0.71 0.06,0.96 -0.44,-0.13 -0.41,1.27 -0.3,-0.23 -0.29,-1.42 -0.66,-1.47 0.03,-0.76 0.39,0.16 z m -1.52,-0.76 -0.13,0.15 -0.38,-0.91 0.55,0.08 -0.04,0.68 z m -0.81,-1.72 0.32,0.05 0.1,0.48 -0.41,-0.25 -0.59,0.08 0.06,-0.3 0.52,-0.06 z m 78.579998,-11.59 -0.55,-0.15 0.35,-0.13 0.2,0.28 z m -52.079998,-38.36 1.31,1.28 4.53,1.43 1.61,-0.31 3.21,-4.08 2.44,-1.45 3.04,-0.79 2.93,0.41 2.25,2.04 6.039998,1.35 0.44,0.66 0.63,2.73 2.61,3.7 0.24,4.94 0.51,2.01 1.39,2.44 1.14,0.46 6.96,0.56 2.99,1.07 2.98,-0.08 2.33,0.25 7.25,5.5 5.16,3.56 2.96,0.97 0,0 -1.68,3.15 -4.35,1.91 -1.8,1.78 -1.14,2.47 -0.21,2.29 0.11,0.99 0.63,1.6 5.22,6.4 1.23,2.11 0.17,0.68 0.1,1.45 -0.19,1.09 -1.76,4.72 0.11,0.25 -1.03,3.09 0.03,1.95 2.07,4.36 6,14.21 0.78,1.27 -1.28,1.16 -0.62,1.24 0.76,3.64 0.05,1.32 -0.41,0.48 0.06,1.49 -0.32,0.3 0.52,1.14 1,0.13 0.54,1.59 0,0 -5.7,0.25 0.32,-0.56 0.08,-1.37 -1.95,-3.24 -2.88,-1.32 -1.04,0.2 -0.35,-0.99 -0.68,-0.63 -1.42,0.15 -1.28,0.83 -0.89,0.33 -0.73,0 -2.44,1.49 -1.04,0 -1.8,-0.35 -1.28,-0.76 -3.81,-0.68 -3.8,-1.42 -0.4,-0.1 -0.21,0.18 -0.95,-1.09 -1.73,-0.51 -1.65,-1.67 0.03,-0.38 -0.81,-1.14 0.55,-0.86 -2.55,-0.79 -0.16,-1.09 -0.25,-0.1 -0.29,0.45 -2.33,-1.11 -0.78,-0.86 -0.87,-0.03 -0.27,-0.48 -0.57,-0.28 -0.24,-0.56 -1.659998,-1.14 -0.9,-1.52 -0.9,-0.56 -2.06,1.44 -1.84,0.15 -2.6,1.8 -1.25,-0.61 -0.22,0.13 0.17,1.29 -0.71,0.15 0.66,1.57 0.03,0.89 -0.9,1.67 -0.38,1.67 -0.38,0.44 -0.06,0.73 -0.41,0.41 -1.8,5.06 -1.11,0.53 -3.53,-1.06 -1.35,0.71 -0.79,0.83 -1.19,-0.08 -0.76,0.66 -1.28,0.18 -0.78,0.41 -2.69,0.18 -0.13,0.3 -0.68,-0.23 -1.68,-2.05 -1.57,-1.09 -0.19,-0.4 -2.29,-1.49 0.27,-1.09 -1.95,-0.13 -1.71,-1.11 -1.49,0.83 -1.53,0 -0.47,-0.23 -0.92,-0.76 -0.84,-2.94 -0.79,0.08 -0.73,-1.57 -1.66,-1.65 -2.42,-1.95 -1.12,-0.61 -4.86,-0.2 -0.89,0.84 -0.08,0.76 -0.95,0.56 -0.43,0.18 -1.01,-0.15 -0.73,0.28 -0.81,-0.2 -1.2,0.3 -1.17,-0.94 -0.08,-1.95 -0.55,0.08 -0.1,2.1 -0.79,-0.23 0,-0.83 -0.33,0.68 -0.19,-0.08 0.09,-0.73 -0.24,-0.08 -0.21,0.63 -0.05,0.2 1.68,0.81 0,0.2 -1.39,-0.33 -0.93,0.2 -0.05,0.43 -0.35,-0.23 -0.76,0.41 -0.82,-0.41 -0.4,-0.94 -1.39,-1.34 -0.93,0.08 -0.27,-0.46 -2.26,-1.57 -1.47,-1.39 -0.74,-0.96 -2.26,-4.31 -1.52,-2.18 -1.61,-1.55 -0.98,-0.25 -4.26,-3.12 -1.66,-2.23 -0.78,-0.43 -0.28,-0.81 -0.62,-0.36 0.22,-2.05 0.71,-1.95 3.4,-1.98 3.4,-2.72 2.53,-1.63 3.91,-2.34 1.27,-0.43 2.09,-1.6 4.3,-2.21 1.47,-0.28 1.87,0.43 1.41,-0.1 1.72,0.36 1.8,1.22 0.68,-0.03 4.87,-1.85 2.15,-0.48 0.74,-0.46 0.6,-3.1 0.09,-1.91 0.27,-0.15 -0.16,-0.58 -0.38,-0.08 -0.32,-0.38 1.14,-0.2 0.6,-0.94 3.18,-3.28 -0.24,-0.48 0.78,-0.2 0.96,-2.11 -0.51,-0.64 0.16,-0.2 0.62,-0.03 0.03,-2.88 -2.34,-0.74 -1.82,-1.5 -1.71,-2.65 -0.51,-1.55 -0.24,-1.55 0.06,-1.73 1.22,-2.85 1.31,-2.34 0.9,-0.99 0.93,-0.41 3.16,-1.04 1.71,-0.1 4.97,-2.04 4.08,-0.03 4.18,0.84 0.68,-3.16 0.68,-0.97 1.23,-0.67 z m -5.53,16.36 0.54,0.13 0,0.25 -0.81,-0.23 -0.17,-0.76 -0.73,0.13 -0.71,0.51 -0.57,1.32 0.24,0.43 -4.68,3.18 -0.93,0.56 -4.57,1.6 -0.05,2.82 0.79,0.1 -0.3,1.07 -0.87,0.03 -1.31,3.18 0.32,0.08 0.52,-0.61 0.06,0.36 -1.44,1.58 1.46,0.76 -0.22,0.15 -1.36,-0.61 -0.51,0.46 0.25,1.09 -0.36,0.66 -0.14,-0.25 0.17,-0.51 -0.92,-0.76 -1.46,1.27 -0.03,0.2 0.27,0.13 -0.36,0.2 -0.11,0.74 -0.25,0.13 0.03,0.36 -0.33,0.53 -0.43,3.76 0.33,-0.1 -0.1,0.58 0.84,-0.61 0.03,0.51 1.57,-0.33 1.79,1.22 0.47,0 0.38,0.69 1.84,0.03 1.46,-0.91 1.14,0.18 0.7,-0.61 1.88,-0.05 0.43,-0.53 1.9,0.41 1.01,-0.96 2.96,-0.28 0.63,-0.58 1.25,-0.03 1.68,0.58 1.84,-0.61 0.74,0 0.62,0.79 3.05,0.56 1.69,1.8 2.61,4.55 0.52,-0.46 0.09,0.48 -0.59,0.23 0.11,0.36 0.3,0 0.22,0.91 0.65,1.19 0.36,0.1 -0.19,0.79 -1.04,0.66 -2.71,0.76 -1.77,2.39 -1.27,0.41 -0.59,-0.25 -1.16,-1.22 -0.24,-0.71 -1.49,-1.01 -2.75,0.63 -1.87,1.52 -2.61,-0.61 -0.14,0.15 -2.12,-1.24 -1.61,-0.2 -0.25,0.25 -0.22,-0.18 -4.23,2.46 -0.97,1.17 -2.31,1.57 -1.08,1.85 -0.49,0.3 -0.79,-1.78 0.44,-1.52 0.46,0.23 0.54,1.67 0.16,-0.05 -0.11,-0.63 -0.38,-0.53 -0.03,-0.58 -0.46,-0.33 -0.57,-1.95 -1.52,-2.13 1.9,-2.49 -0.16,-0.1 -0.38,0.46 -1.22,1.78 -0.65,0.15 -1.14,-0.71 -1.06,-1.22 -1.55,-0.76 -0.22,-0.51 -0.54,0.23 -0.7,-0.43 -1.25,-3.17 -0.11,-0.74 0.27,-0.13 0.13,-0.46 -1.22,0.3 -1.82,0.96 0.28,2.36 0.32,0.58 1.38,1.32 -0.08,0.51 0.9,0.89 0.11,0.46 1.35,0.58 1.82,1.47 0.57,0.15 1.41,2.94 0.95,2.82 2.12,3.12 0.62,0.53 0,0.58 0.25,-0.46 0.54,0.99 -0.35,-0.91 0.51,0.3 -0.11,-0.28 2.14,-0.43 -0.46,-0.2 -1.41,0.15 -0.46,-0.61 1.47,-0.63 0.87,-0.91 1.23,-0.25 0.08,-0.18 -0.51,-0.38 -0.11,-0.48 1.01,-1.88 0.19,-1.17 1.77,-1.14 0.76,0.05 -0.43,1.02 0.49,-0.03 0.19,-0.71 3.8,-0.08 3.23,0.43 1.28,-0.43 0.36,-0.61 0.41,-0.18 1.49,-0.23 0.25,-0.33 1.9,-0.08 0.84,0.15 1.16,0.66 0.33,0.51 -0.05,0.38 0.55,0.48 1.88,0.38 0.49,-0.23 -0.14,-0.71 0.59,-0.36 0.3,0.03 0.29,0.81 2.5,-0.69 1.41,0.48 0.36,-0.36 0.44,0.3 0.25,-0.61 0.87,-0.03 0.79,-0.51 0.97,0.43 1.28,-0.05 0.46,0.63 0.17,1.27 0.35,0.74 1.39,2 2.45,-1.07 1.84,0.33 3.529998,1.27 1.57,0.79 0.32,-0.1 -0.1,1.14 0.25,0.91 0.49,0 -0.17,-2.03 1.14,0.71 0.82,0.1 0.66,1.34 0.52,0.08 0.11,0.3 1.93,1.34 0.87,0.91 1.17,-0.36 0.54,0.84 -0.32,1.06 0.36,1.17 0.33,0.2 0.38,0.76 0,0.41 -0.47,0.81 0.14,0.15 -0.27,0.33 0.35,0.35 0.33,1.06 0.41,0.2 1.11,1.6 0.24,-0.08 0.19,0.3 -0.19,0.13 1.3,2.03 0.82,0.03 1.42,3.09 1.5,0.35 3.72,2.35 0.08,-0.18 0.33,0.08 0.59,0.91 0.9,0.13 2.42,-0.41 0.81,-0.76 2.56,-1.34 0.76,-0.05 0.35,-0.46 3.05,0.53 0.47,0.25 0.3,0.48 0.78,0.23 1.74,-0.13 -0.48,-4.89 0.36,-1.22 -0.92,-6.92 -6.8,-3.07 -0.57,-0.96 -0.06,-0.61 0.89,-1.83 -1.22,-1.01 -0.3,-0.74 -1.82,-0.13 -0.57,-0.28 -0.44,0.56 -0.73,0.18 -0.25,-0.03 -0.98,-1.09 -1.33,0.51 -3.83,-0.15 -0.17,-0.23 -1.39,0.08 -0.13,-0.46 -2.72,-0.2 -0.46,-0.53 0.28,-0.43 -0.44,-0.13 0.11,-0.2 -0.24,-0.25 -0.6,0.05 -0.81,-2.16 0.24,-0.41 -1,-0.89 -0.38,0.15 -0.27,-0.3 -0.09,-1.19 -2.64,-0.48 -1.04,-0.58 0.43,-1.19 -1.01,-1.5 -1.68,-0.71 -0.63,-0.81 -0.98,-0.56 -2.169998,-0.33 -0.87,-1.17 0.06,-1.32 1.009998,-1.55 1.91,-0.2 -0.02,-0.2 1.06,-0.41 0.51,0.23 1.01,-0.66 0.66,0.25 2.47,-1.83 1.23,-0.08 1.14,-1.22 0.87,-0.23 0.4,0.15 0.16,-0.36 2.06,-0.64 1.25,0.41 0.84,-0.13 1.96,0.41 0.49,0.53 0.49,1.35 0.41,-0.2 0.32,0.15 1,1.02 -0.21,-0.71 1.71,0.03 2.75,-0.56 0.54,0.43 1.31,-0.1 0.19,0.18 0.27,-0.74 1.84,-0.28 0.08,-0.56 -0.73,0 -0.02,-0.2 1.04,-0.58 -0.06,-0.92 -0.74,-0.05 -0.74,0.48 -0.49,-0.28 -0.81,0.53 -4.68,-0.13 -1.53,-3.08 -1.33,-1.07 -0.55,-0.03 -0.6,-0.48 -0.13,-2.64 0.22,-0.38 0.7,0.28 0,-0.81 2.37,-2.09 1.61,0.05 2.88,0.84 1.12,0.56 0.81,0.71 2.21,0.97 2.71,1.65 -0.11,-1.32 -0.68,-1.2 -1.69,-0.99 -0.13,0.31 -0.47,0.13 -2.53,-1.58 -0.22,-0.33 0.47,-0.89 -0.09,-0.18 -0.35,-0.03 -0.73,1.02 -2.12,-0.74 0.14,-0.31 -0.32,-0.25 0.06,-0.18 0.43,0.28 2.86,-0.2 0.06,-0.51 -0.54,-0.08 0.03,-0.25 -0.33,-0.2 -1.69,0.18 -0.82,0.48 -0.1,-0.15 0.73,-0.43 1.55,-0.15 0.19,-0.41 0.21,0 0.03,0.31 0.47,0.05 0.11,-0.41 0.36,-0.23 -0.71,-1.88 -0.47,-0.36 -0.33,-0.64 -0.97,0.61 -5.55,0.84 -2.17,1.5 0.19,0.51 1.52,1.55 -0.27,0.76 -0.74,0 -0.36,0.79 0.43,0.2 -0.02,0.3 -0.25,0.31 -0.33,-0.03 -0.06,0.74 -2.17,1.35 -0.33,0.84 -1.54,1.63 -1.88,0.92 -1.49,-0.66 -1.6,0.84 -0.28,0.48 -2.14,0.79 -2.29,1.25 -2.6,0.05 -0.889998,0.76 -2.66,0.17 -1.17,-0.64 -1.99,-2.08 -0.44,0 -0.98,-2.01 -0.38,-0.36 -0.25,0.03 -0.81,1.27 -0.97,0.31 0.02,-0.31 -0.84,-0.08 -0.57,0.23 -3.04,-0.94 -0.19,-0.36 3.59,-3.18 1.17,-0.46 -1.31,0.33 -3.56,3.2 -0.81,0.25 0.08,-2.42 -0.78,-1.42 0.17,-0.36 -0.41,-1.58 -0.6,-0.38 -0.79,-1.32 0.08,-1.12 -2.77,-2.62 -0.43,-0.2 -1.28,0.41 -3.91,-2.01 0.21,-0.69 -0.09,-0.84 -0.82,-1.22 -0.71,-0.38 -1,-0.15 -1.01,0.13 0.07,0.59 z" 
                fill="rgb(151, 144, 238)" 
                stroke="white" 
                stroke-width=".7px"
                title="Zeeland" 
                id="NL-ZE" 
            />
        </svg>