<svg xmlns="http://www.w3.org/2000/svg" viewBox="75.97853200000009 322.8848299999999 212.57999799999993 175.67999999999995" width="212.57999799999993" height="175.67999999999995">
            <path 
                d="m 156.05853,478.56483 1.06,0.92 0.3,-0.15 0.46,0.13 0.17,0.48 1.11,0.59 0.05,0.38 -2.9,0.13 -1.08,-0.28 -1.09,-1.2 1.53,-0.97 0.39,-0.03 z m -11.84,-7.95 1.27,0.03 4.04,1 5.25,2.37 2.52,0.82 0.87,0.46 0.08,0.82 -3.66,1.43 -2.6,-0.1 -1.93,-0.48 -2.48,-1.45 -4.98,-3.42 -0.35,-0.43 0.14,-0.74 0.65,-0.38 1.18,0.07 z m 35.53,-147.73 10.74,4.85 1,-1.86 2.14,-0.59 0.43,-0.03 3.88,1.65 -1.28,1.86 -1.04,2.74 -0.02,0.65 -1.47,3.2 -3.13,3.17 0.29,2.04 -1.25,6.55 -1.3,1.62 -0.09,0.49 0.16,1.31 1.08,0.88 2.33,0.54 1.68,-0.57 2.36,0.93 2.25,0.28 3.24,-0.23 5.13,-2.99 3.01,-0.18 0.4,-0.26 0.21,0.15 1.16,-1.21 1.5,-0.62 3.09,0.49 -0.22,2.94 0.57,1.26 0.08,0.93 -0.19,0.46 0.92,0.7 1.23,-1.55 1.93,-1.24 1.46,-0.33 1.38,-1.08 0.92,-1.34 1.55,-0.67 1.65,0.36 0,0 0.06,1.7 1.12,1.85 -0.03,2.52 0.25,1.37 1.08,-0.05 0.32,0.8 4.53,4.99 2.39,0.85 5.3,3.68 -0.05,0.36 -3.24,1.26 0.59,4.04 -0.71,0.33 -0.08,0.28 -1.14,0.18 -3.09,-0.41 -0.89,-0.69 -0.36,-1.52 -0.92,0.49 -1.49,0.28 -1.27,0.54 -0.9,1.31 -0.32,2.06 -1.95,0.87 -0.25,1.05 5.41,3.88 -0.09,2.34 0.27,3.9 0.28,1.26 0.89,1.08 -0.06,1.36 1.57,-0.38 4.92,-0.05 -0.81,1.64 -3.31,1.21 -2.61,1.98 -2.04,3.18 -1.14,0.85 0.27,1.92 -1.39,1 0,0.92 0.44,1.44 1.77,-0.18 0.97,-0.69 2.63,0.1 1.01,-0.54 1.3,2.49 -0.14,0.33 -6.35,1.56 1.41,1.87 1.2,0.41 1.01,1.38 -0.62,0.28 1.65,2.33 1.87,2.13 1.19,0.74 0.4,1.38 1.11,0.9 1.28,5.04 1.65,-0.56 1.47,-0.13 3.09,-0.79 1.2,-1.51 1.06,-2.54 1.08,-1.13 0.89,0 2.39,0.95 1.2,0.08 0.9,-0.62 2.06,-2.92 1.44,-0.85 0.63,-0.13 1.2,0.23 2.44,1.92 1.6,-0.18 0.82,-1.13 0.41,-1.23 1.03,-1.13 2.8,-2.2 0.55,-0.82 3.02,-1.49 1.68,-0.49 1.8,0.1 1.2,0.38 1.58,0.59 2.06,1.2 0.41,0.77 0.35,2.64 0.79,1.67 1.14,0.67 2.82,0.49 1.03,0.67 0,0 -4.57,8.71 -0.46,0.1 0.13,0.64 -2.03,2.94 0.1,1.61 -0.74,-0.36 -2.2,4.07 -0.28,2.17 -0.36,0.69 -1.69,-0.41 -1.03,0.26 -0.95,-0.28 -0.44,0.36 -0.17,1.25 -1.04,1.56 -1.11,0.61 -1.91,0.03 -1.3,0.64 -0.25,0.87 0.4,0.87 1.09,0.67 -0.59,0.56 -1.79,0.72 -0.52,0.59 -1.53,-0.61 -4,0.1 -1.8,-1.58 -0.41,0.43 0.59,1.87 -0.35,1.41 0.95,1.58 3.4,0.46 -1.03,4.98 -2.37,-0.05 0,0 -5.35,-0.79 -4.6,-1.02 -2.61,0 -1.77,0.41 -3.73,1.86 -2.86,2.96 -2.45,1.76 -0.93,0.38 -1.74,0.38 -4.04,-0.61 -2.14,0.13 -2.2,0.71 -2.37,1.28 -2.45,2.91 -1.53,4.62 -0.71,1.12 -2.01,2.22 -3.5,3.11 -4.79,3.39 -9.97,2.85 -2.5,2.01 -11.87,3.26 -3.48,-0.36 -11.88,-3.97 -2.17,2.04 -1.04,0.66 -0.44,1.15 -0.89,0.03 -0.46,1.02 -1.98,1.96 -0.38,1.65 -1.08,1.78 -1.39,1.45 -1.39,0.81 -3.29,1.53 -3.12,0.66 -2.17,0.97 -3.8,0.89 -4.29,-0.51 0,0 -2.96,-0.97 -5.16,-3.56 -7.25,-5.5 -2.33,-0.25 -2.98,0.08 -2.99,-1.07 -6.96,-0.56 -1.14,-0.46 -1.39,-2.44 -0.51,-2.01 -0.24,-4.94 -2.61,-3.7 -0.63,-2.73 -0.44,-0.66 -6.039998,-1.35 -2.25,-2.04 -2.93,-0.41 -3.04,0.79 -2.44,1.45 -3.21,4.08 -1.61,0.31 -4.53,-1.43 -1.31,-1.28 0,0 2.07,-1.07 0.82,-0.79 1.44,-3.75 0.43,-1.25 -0.11,-0.61 -1.61,-3.93 -0.05,-1.58 1.22,-1.89 1.41,-1.1 1.49,-0.31 2.26,-0.87 1.82,-0.05 1.36,-0.36 4.62,-2.17 4.75,-1.81 1.79,-0.46 3.259998,0.05 1.58,0.74 0.68,0.64 -1.42,-0.28 -0.22,1.12 2.06,1.25 1.01,1.2 0.78,0.33 0.22,-0.23 -0.54,-0.64 0.02,-0.46 0.7,0.18 0.51,-0.38 0.28,0.21 1.58,-1.84 -0.25,-0.28 0.16,-0.28 1.22,-0.97 1.2,-0.54 0.08,-0.89 -0.71,-1.69 -4.7,-6.98 -0.4,-0.95 0.25,-1.94 0.76,-1.1 1.82,-3.89 0.52,-0.38 -0.11,-0.79 -1.2,-1.05 -0.89,-0.38 -0.59,0.97 0.03,1.1 -0.41,-0.41 -0.17,0 -0.06,0.46 -0.21,-0.08 -0.4,-0.69 -1.03,-0.33 -0.7,0.56 -0.32,-0.13 -0.84,0.51 -1.06,0.1 -0.55,-0.26 -0.3,-0.54 0.17,-1.38 2.26,-7.99 0.05,-2.1 -0.22,-0.18 -0.57,0.28 0,-1.38 0.97,-2.25 0.68,-0.51 1.12,0.18 1.12,-1.67 0.43,-0.15 1.47,0.67 0.28,-0.21 1.17,-0.03 1.08,0.69 1.98,0.79 0.95,0.79 3.34,-2.95 2.28,-1.54 1.34,-1.15 0.73,-1 0.98,-0.69 1.76,-2.97 2.01,-2.77 12.2,-14.14 3.42,-4.37 0.03,-0.39 0.38,-0.1 0.68,0.57 0.74,-1.1 -0.21,-0.13 -0.62,0.77 -0.33,-0.28 -0.05,-0.46 3.26,-3.34 1.09,-0.8 2.58,-2.8 7.04,-9.03 4.75,-6.98 6.11,-10.64 4.43,-8.25 7.54,-16.57 z m -69.37,126.67 -1.55,1.89 0.27,0.26 -0.3,0.89 0.1,0.54 -0.52,-0.1 0.17,0.43 -0.25,0.28 0.22,0.2 -0.1,0.25 0.25,0.08 0.74,-0.77 1.11,0.59 1.49,1.35 5.76,2.58 1.96,1.46 4.62,2.3 3.01,2.02 4.38,1.45 -0.11,0.2 0.27,0.2 0.4,-0.1 3.45,3.77 2.12,1.84 1.87,1.27 0.38,0.82 2.72,3.36 0.76,0.69 3.48,2.19 1.49,0.31 2.58,1.83 2.77,1.07 2.09,0.38 5.79,0.31 1.11,-0.13 0.47,-0.43 0.33,-0.56 0.02,-0.89 0.44,-0.03 1,-3.34 -1.22,-0.69 -0.05,-0.33 -0.33,0.18 -6.22,-3.64 -5.51,-2.55 0,-0.23 -0.41,-0.1 -0.02,0.23 -6.61,-1.99 -3.81,-1.43 -1.17,-0.89 -1.74,-2.45 -0.19,-0.48 0.24,-0.25 0.02,-1.61 -2.41,-2.68 -2.26,-1.25 -1.42,-0.1 -0.79,0.33 -0.6,-0.26 -3.21,-3.91 -0.63,-0.33 -0.43,-0.56 -1.27,0.18 -0.98,-0.18 -0.33,0.1 -0.24,0.46 -0.4,0.05 -1.58,-0.1 -0.68,-0.51 0.11,-0.84 -0.52,-0.13 -0.32,1.05 -0.6,-0.77 -3.77,-1.33 -1.19,-1.12 -1.19,-1.87 -2.26,1.07 -0.49,0.64 -0.31,-0.17 z" 
                fill="rgb(151, 144, 238)" 
                stroke="white" 
                stroke-width=".7px"
                title="Zuid-Holland" 
                id="NL-ZH" 
            />
        </svg>