<svg xmlns="http://www.w3.org/2000/svg" viewBox="119.8267600000001 191.80021000000005 302.8100000000001 348.8400000000001" width="302.8100000000001" height="348.8400000000001">
            <path 
                d="m 316.52676,194.88021 3.32,1.57 7.03,-1.44 4.29,0.27 4.7,4.28 2.37,5.5 1.69,-0.65 2.24,-4.07 2.23,-1.4 7.24,5.71 3.43,-1.33 0,0 5.8,7.58 4.92,4.6 19.37,4.7 0.43,2.47 2.32,3.49 5.97,1.31 2.33,2.77 0.8,13.2 2.48,2.02 1.91,5.9 9.36,4.95 1.79,-1.95 4.83,0.44 3.35,1.06 1.91,2.21 -7.79,10.02 -6.33,10.45 -2.83,2.31 -6.68,0.13 -9.11,-1.43 -2.3,1.63 -1.21,6.08 2.03,13.2 -3.76,17.2 0.55,2.93 2.31,0.01 7.51,8.61 0,0 -4.7,7.47 -5.32,2.46 -4.28,4.43 -1.72,3.18 0.75,5.22 4.22,9.89 -4.15,3.66 -0.04,3.65 -11.86,11.02 1.96,2.03 -0.04,2.89 -6.51,7.37 -0.62,3.12 1.06,2.51 5.87,6.96 3.71,13.41 -1.07,2.68 -3.43,1.53 -11.67,-0.67 -1.53,3 2.91,3.33 3.77,2.06 2.1,3.36 0.37,3.54 -1.06,3.04 3.91,8.04 -1.38,7.45 -8.73,2.98 -1.32,3.11 2.03,2.83 5.23,0.77 6.3,-0.62 3.49,1.24 5.61,5.97 8.54,13.22 1.7,0.75 1.67,5.91 0.45,7.78 7.73,5.94 10.36,6.2 2.02,3.66 -3.76,4.23 -7.08,1.2 -0.98,4.75 -5.42,0.32 -11.63,-2.42 -6.66,6.54 -5.32,10.44 0,0 -1.19,-2.4 -6.75,-1.62 3.06,-5.48 0,0 3.82,-7.05 1.65,-6.28 -0.93,-9.46 -1.11,-2.11 2.05,-5.9 -4.37,-3.18 -3.8,-2.15 -1.25,2.68 -1.49,0.66 -4.54,-3.12 -6.59,1.48 -5.13,-4.61 -4.31,-1.3 -3.85,1.07 -6.96,5.81 -6.43,1.9 -5.52,5.83 -1.92,-1.82 -2.42,-0.41 -3.3,5.22 -3.81,-2.76 -1.83,-2.88 -0.04,-7.49 -7.74,-1.54 -3.65,-4.09 -2.2,0.16 -2.45,-1.29 4.27,-11.52 -10.43,-4.35 -3.63,0.35 -8.72,-4.21 -4.16,-3.13 -14.1,1.75 -5.18,3.59 -7.28,-1.02 -6.98,-4.67 -6.43,-2.43 0.77,-3.82 -5.96,-3.6 0.35,-1.91 -6.24,-0.75 1.05,-4.83 -0.69,-3.87 -0.83,-1.93 -1.19,0.67 -2.13,-1.6 -2.34,1.57 -6.41,-3.55 -3.86,-0.47 -3.68,2.72 -2.71,0.48 -10.8,-0.57 -5.19,4.85 -4.11,10.12 -1.92,7.59 -4.34,5.38 -5.52,0.71 -2.07,-2.74 -11.29,4.25 -3.41,-1.15 -1.78,-4.06 5.49,-14.05 0.63,-11.42 2.66,-8.21 -5.22,-0.39 -0.81,-1.72 1.38,-6.67 -0.49,-1.89 -3.92,-1.93 -2.3,0.58 -1.68,2.26 -2.39,1 -5.7,-0.44 -3.5,1.48 -3.14,-0.66 -1.75,-1.86 0,0 2.69,-6.42 7.74,-2.92 1.03,-2.46 -3.47,-2.64 -0.55,-2.61 12,-10.82 2.11,-3.77 0.48,-3.93 2.39,-0.44 5.93,2.41 0.37,-0.78 -4.11,-8.71 -0.26,-5.29 3.21,-9.6 4.93,-6.74 -4.74,-9.79 -6.82,-4.45 -1.32,-2.47 -0.28,-8.21 1.41,-1.58 15.03,-1.34 4.84,3.73 5.45,0.76 6.33,-3.72 2.05,-4.13 0.83,-6.44 -1.54,-7.74 0.9,-12.97 -6.8,-8.31 -4.32,-9.54 -5.51,-5.42 0.3,-3.45 8.73,-5.55 5.63,-0.27 0.36,-2.07 -2.29,-3.1 0.28,-1.42 4.89,-3.98 10.35,-5.63 3.35,-3.87 2.76,-8.37 6.75,-4.51 7.52,-3.05 1.9,-2.78 0.01,-5.05 1.72,-0.75 2.08,0.82 1.44,5.05 4.17,2.06 -0.54,1.81 -5.28,1.41 -2.27,1.96 0.15,1.92 1.77,1.54 22.36,3.4 4.52,3.5 5.77,7.04 7.01,2.9 9.82,8.43 9.26,4.23 9.24,1.95 4.33,-0.67 1.87,-4.29 -2.01,-7.77 0.38,-2.01 25.69,-3.7 0.76,-3.75 -0.81,-3.1 -2.09,-2.82 -0.45,-9.07 -2.62,-15.46 2.94,-5.83 0.59,-13.18 -3.92,-5.11 0.72,-1.33 2.47,-0.38 z" 
                fill="rgb(151, 144, 238)" 
                stroke="white" 
                stroke-width=".7px"
                title="Boucle du Mouhoun" 
                id="BF-01" 
            />
        </svg>