<svg xmlns="http://www.w3.org/2000/svg" viewBox="0.2767599999998729 564.07021 250.67000000000004 200.96000000000072" width="250.67000000000004" height="200.96000000000072">
            <path 
                d="m 3.24676,564.07021 13.97,1.15 16.52,15.35 3.06,7.19 7.3,8.57 3.04,1.59 10.76,-3.76 4.83,-0.1 4.38,-1.41 5.64,-2.8 1.92,-3.01 2.73,-1.17 9.19,1.61 10.77,-0.58 8.6,11.96 4.02,0.39 6.16,3.39 9.17,-6.62 0.85,-1.85 7.58,-4.87 9.56,-0.01 3.82,2.5 3.75,9.6 3.23,4.75 2.22,-0.47 4.99,1.03 6.27,2.25 1.76,3.21 1.71,0.89 11.27,-6.64 12.97,-4.92 2.48,1.38 5.19,5.73 13.4,3.25 0.07,2.2 2.76,0.69 3.98,-2.33 2.86,-0.43 3.76,-2.6 -0.92,-3.04 9.73,-11.13 7.23,-0.24 0,0 -0.08,2.34 2.63,1.73 1.59,2.59 0.98,5.6 -11.7,-0.11 -1.7,1.11 -1.07,2.5 -0.06,1.63 3.11,3.01 7.48,1.1 3.11,3.86 0.3,2.01 -1.26,5.7 0.02,12.73 1.07,3.45 -3.55,2.86 -1.9,5.97 -6.74,8.85 2.29,4.08 1.37,7.23 1.26,2.2 -0.68,2.51 -4.19,5.69 -3.94,8.43 -3.74,2.17 -9.03,2.65 -8.13,-1.85 -2.3,4.37 -1.85,6.78 8.11,6.34 5.98,6.45 -0.09,4.4 0,0 -1.23,-0.13 -2.5,3 -2.52,1.04 -4.91,0.26 -0.72,2.37 0.73,1.22 -2.02,1.92 -2.88,-0.96 -3.02,0.32 -1.91,2.19 0.23,2.31 -2.82,0.36 -9.14,-4.55 -5.06,4.8 -1.83,3.03 -7.52,2.88 -4.91,-0.35 -0.9,2.4 1.64,0.82 -1.29,4.57 -1.27,1.3 0.59,1.01 -1.29,2.03 -0.18,4.32 -3.82,5.29 -4.4,-3.65 -1.43,-0.03 -1.31,1.02 -0.56,3.09 -2.67,-0.07 -1.37,-1.3 -2.17,-6.33 -1.82,-1.38 -10.2,2.14 -1.5,-1.71 -0.61,-4.02 0.17,-2.35 1.68,-1.41 0.61,-2.49 -1.91,-1.73 -5.48,0.76 0.62,2.15 1.29,0.73 -3.52,4.46 -2.62,-0.92 -1.79,-2.94 -1.99,-1 -1.45,2.89 -3.35,-1.73 -1.79,3.5 -1.21,-0.25 -1.04,1.58 -1.39,0.29 -0.51,-1.29 -2.22,-1.09 -3.94,-7.72 -4.17,-0.5 0.06,2.35 -1.4,-0.22 -0.7,-2.27 -1.9,-0.05 -0.05,-1.94 -1.27,0.16 -1.13,-2.29 4.03,-0.07 -1.04,-2.13 1.03,-4.54 -2.13,-1.6 -2.22,0.38 -1.5,-2.99 -6.7,-0.94 -4.59,-3.16 -1.95,1.03 -0.87,1.74 -4.58,-2.62 -0.66,-2.11 1.54,-1.98 -0.44,-2.24 2.43,-1.97 -2.23,-1.37 -0.48,-1.58 -2.9,-1.45 -0.24,-3.08 0.46,-0.7 2.99,1.06 -0.55,-1.35 0.95,-1.36 -1.4,-2.58 -1.47,-0.37 -1.55,-2.19 -3.77,-1.32 2.4,-4.65 -3.23,0.75 -2.44,2.42 -2.45,0.04 -0.03,-1.24 2.12,-2.27 -3.95,-0.06 -0.29,-2.4 2.94,0.9 1.8,-0.88 -0.71,-1.1 -4.19,-1.46 0.86,-5.46 -4.32,0.86 -1.32,-0.8 2.22,-0.9 1,-1.82 0.29,-2.5 -0.78,-1.08 -4.81,2.82 0.47,-2.79 -1.7,1.46 -2.73,-0.54 -0.7,-4.31 2.7,-5.64 -0.15,-3 -1.03,-1.23 -2.82,0.45 -2.61,2.37 -2.14,-1.25 0.16,-1.55 -2.14,1.79 -1.32,-0.85 -4.69,0.78 -1.67,-0.8 -1.04,0.87 -1.94,-1.45 -1.07,0.61 0.58,1.48 -0.73,-0.43 -3.48,2.02 -2.76,-1.87 -1.43,2.67 -1.24,0.23 -1.09,-1.21 -3.44,-0.14 -2.18,-1.76 -0.69,-2.03 -1.73,0.41 -0.8,-2.47 -2.94,-1.11 -0.08,-3.79 -2.66,-0.64 -2.88,-6.55 -1.15,0.26 0.44,-5.41 2.03,-2.72 3.03,-8.92 1.64,-2.1 -1.03,-2.67 1.07,-2.27 -2.44,-3.62 1.77,-15.51 -0.53,-3.2 3.38,-1.68 0.7,-4.52 2.07,-2.82 0.92,-4.03 -3.58,-2.73 -2.27,-4.61 -0.5,-7.79 -2.87,-1.6 0.41,-2.99 z" 
                fill="rgb(151, 144, 238)" 
                stroke="white" 
                stroke-width=".7px"
                title="Cascades" 
                id="BF-02" 
            />
        </svg>