<svg xmlns="http://www.w3.org/2000/svg" viewBox="355.6567600000005 318.26021000000003 220.72999999999973 255.85000000000002" width="220.72999999999973" height="255.85000000000002">
            <path 
                d="m 395.02676,329.21021 13.11,-10.14 1.77,-0.81 3.56,0.29 3.09,3.63 -4.08,6.38 -0.33,4.01 1.52,2.11 11.83,-0.75 0.98,1.58 -6.83,5.78 -0.02,4.19 3.7,0.73 11.62,-3.16 3.39,-1.8 1.48,0.26 6.65,-4.53 5.71,-0.48 4.03,-1.92 8.13,-0.24 4.68,1.23 2.71,-0.39 3.33,-2.5 4.08,0.93 3.91,-0.83 4.05,6.98 3.31,-2.33 0,0 2.47,2.92 -1.08,4.12 2.3,1.63 9.3,2.51 4.68,2.8 3.61,15.7 -11,4.69 -8.95,-4.48 -10.17,0.34 -0.09,4.24 -3.58,2.02 -0.07,6.28 -6.16,9.41 0.04,1.57 5.17,3.68 3.68,-0.7 10.75,-8.05 10.4,-2.39 5.21,0.39 0,0 2.34,2.51 -3.26,3.04 3.48,2.19 1.34,2.73 -0.24,5.61 -3.02,3.7 -4.28,2.5 -3.17,5.26 0,0 -6.57,0.52 -1.06,4.01 -5.96,2.32 1.5,5.44 -8.46,6.68 -2.94,3.75 6.3,4.35 2.72,6.27 3.18,0.26 3.39,-3.01 6.54,3.5 3.64,-3.92 7.11,-1.52 21.66,22.79 6.92,2.21 6.52,6.26 7.23,2.17 4.33,3.8 1.72,3.96 5.79,4.7 6.99,1.92 5.73,8.43 -6.65,6.67 -2.12,3.45 -1.55,0 -2.78,3.14 -2.88,-0.2 -7.41,5.44 -2.13,4.45 -6.01,2.41 -1.79,-1.26 -4.28,5.41 -0.18,8.11 -2.73,2.23 -0.02,5.17 -5.88,8.83 7.04,3.07 1.97,2.85 2.48,-0.2 1.32,1.7 4.27,1.69 2.39,0.24 1,1.03 3.36,-1.2 2.62,0.83 -1.16,1.97 1.93,2.31 2.48,0.16 2.96,-1.22 0.09,6.74 0,0 -2.52,-2.06 -21.25,-0.13 -0.8,4.25 -9.21,-1.2 -7.68,2.77 -3.54,0.12 -6.71,-0.89 -50.34,0.65 -13.29,-1.46 -34.32,0.68 -14.2,-1.74 -16.35,-0.08 0,0 0.27,-3.1 2.35,-4.37 7,-0.05 1.31,-1.33 1.64,-5.2 0.01,-3.48 -11.97,-9.61 -2.61,1.59 -0.72,4.15 -6.04,2.87 -1.04,-1.49 0.27,-4.29 -1.12,-5.04 -1.36,-1.28 0,0 5.32,-10.44 6.66,-6.54 11.63,2.42 5.42,-0.32 0.98,-4.75 7.08,-1.2 3.76,-4.23 -2.02,-3.66 -10.36,-6.2 -7.73,-5.94 -0.45,-7.78 -1.67,-5.91 -1.7,-0.75 -8.54,-13.22 -5.61,-5.97 -3.49,-1.24 -6.3,0.62 -5.23,-0.77 -2.03,-2.83 1.32,-3.11 8.73,-2.98 1.38,-7.45 -3.91,-8.04 1.06,-3.04 -0.37,-3.54 -2.1,-3.36 -3.77,-2.06 -2.91,-3.33 1.53,-3 11.67,0.67 3.43,-1.53 1.07,-2.68 -3.71,-13.41 -5.87,-6.96 -1.06,-2.51 0.62,-3.12 6.51,-7.37 0.04,-2.89 -1.96,-2.03 11.86,-11.02 0.04,-3.65 4.15,-3.66 -4.22,-9.89 -0.75,-5.22 1.72,-3.18 4.28,-4.43 5.32,-2.46 z" 
                fill="rgb(151, 144, 238)" 
                stroke="white" 
                stroke-width=".7px"
                title="Centre-Ouest" 
                id="BF-06" 
            />
        </svg>