<svg xmlns="http://www.w3.org/2000/svg" viewBox="498.86676000000017 156.39021 231.35999999999973 211.4399999999999" width="231.35999999999973" height="211.4399999999999">
            <path 
                d="m 517.00676,190.28021 3.64,-8.4 6.46,-10.22 4.64,1.39 15.32,-7.61 1.19,7.11 2.3,6.43 7.97,5.04 14.13,3.24 1.08,1.66 8.31,-0.59 6.64,-2.96 5.62,0.98 8.51,-1.16 3.42,-4.04 6.67,1.07 5.79,-4.2 17.62,-3.31 19.88,-10.39 5.7,-1.95 2.14,-5.75 4.41,-0.23 2.62,5.04 12.64,6.79 7.07,7.55 3.45,4.23 1.95,12.89 4.73,1.47 2.69,4.69 4.71,4.3 6.15,1.43 11.86,-0.54 -0.75,7.79 -4.08,3.56 3.93,7.3 0,0 1.17,2.28 -9.89,5.89 -1.26,6.28 2.39,3.05 1.49,4.16 -2.62,7.07 -3.96,6.82 2.85,8.95 -7.7,10.44 -1.7,7.18 0.64,7.09 -1.11,3.07 3.15,4.29 4.52,12.33 14.74,8.42 2.1,3.55 -4.93,7.21 4.8,14.14 -2.1,8.62 0,0 -23.63,11.45 -2.52,2.65 -29.52,-6.47 0,0 -0.76,-4.86 1.16,-4.6 -1.44,-6 -3.77,-7.89 -9.88,-1.3 -3.96,2.16 -0.08,4.57 1.56,5.1 -3.09,3.03 -4.17,3.59 -6.59,3.63 -8.15,-1.87 -14.37,-17.81 -14.03,0.82 -1.81,4.33 -3.43,2.98 0.27,-4.1 1.67,-1.41 0.22,-3.5 -2.81,-2.29 0.25,-5.29 -12.55,-9.54 -13.81,-3.36 -2.21,-1.44 -1.23,-4.09 -4.83,-0.08 -6.46,-1.97 -3.28,1.56 -3.85,-1.08 -7.24,-4.89 0,0 2.69,-1.93 0.59,-8.8 -5.74,-3.68 -4.54,-4.77 -5.79,-1.72 -13.17,-9.62 0.53,-3.31 3.07,-1.55 -1.14,-4.16 0.97,-4.3 -3.53,-3.01 -1.02,-5.62 -5.74,0.95 -1.87,-5.04 -5,-2.99 0.57,-2.98 -1.26,-3.64 1.6,-4.44 -1.76,-2.35 1.91,-3.73 -5.97,-12.51 -0.19,-6.21 3.19,-5.54 6.33,-2.45 4.78,-3.47 5.5,0.48 1.13,-4.85 z" 
                fill="rgb(151, 144, 238)" 
                stroke="white" 
                stroke-width=".7px"
                title="Centre-Nord" 
                id="BF-05" 
            />
        </svg>