<svg xmlns="http://www.w3.org/2000/svg" viewBox="476.6167599999998 404.3202100000001 206.15000000000043 172.14999999999998" width="206.15000000000043" height="172.14999999999998">
            <path 
                d="m 500.10676,411.65021 7.82,8.6 7.63,0.74 4.83,3.59 4.28,-4.52 3.12,-1.88 2.44,0.32 6.91,-5.03 3.06,0.15 3.86,-6.71 6.71,-2.59 1.02,0.86 6.42,-0.68 2.57,8.92 3.08,3.99 5.72,-3.56 7.01,-2.24 4.98,3.53 3.2,-2.56 4.47,-1.28 7.47,-0.7 3.68,0.67 1.86,-1.56 8.24,-1.75 0,0 -0.33,1.98 5.63,4.36 5.57,11.97 5.48,6.14 5.69,4.6 2.63,8.67 -0.68,3.65 2.01,1.47 6.59,1.84 0.87,3.73 0,0 -6.13,10.53 -4.6,1.13 -3.72,10.66 5.91,7.07 4.17,7.43 4.35,-1.42 8.45,6.32 3.78,0.69 4.13,-5.06 2.27,-0.18 4.56,6.41 9.1,4.94 5.08,0.7 0.8,6.65 -1.75,2.61 2.42,4.99 -2.7,0.03 -5.52,-2.99 -2.47,6.2 -5.26,1.31 -5.17,5.03 -4.52,3.14 -2.96,0.63 -0.31,5.26 -3.9,5.08 2.86,6.91 3.39,3.03 -0.09,3.87 4.56,0.91 1.73,5.37 -2.67,2.06 0.38,6.39 0,0 -14.55,-0.27 -0.72,-1.39 -2.58,0 -0.55,1.57 -3.26,0.29 -2.45,4.2 -5.88,-2.02 -1.56,-2.85 -8.96,0.5 -1.55,-1.1 -15.06,-0.34 -0.32,2.53 -25.8,-1.4 -11.96,0.36 -2.19,-1.79 0,0 -0.09,-6.74 -2.96,1.22 -2.48,-0.16 -1.93,-2.31 1.16,-1.97 -2.62,-0.83 -3.36,1.2 -1,-1.03 -2.39,-0.24 -4.27,-1.69 -1.32,-1.7 -2.48,0.2 -1.97,-2.85 -7.04,-3.07 5.88,-8.83 0.02,-5.17 2.73,-2.23 0.18,-8.11 4.28,-5.41 1.79,1.26 6.01,-2.41 2.13,-4.45 7.41,-5.44 2.88,0.2 2.78,-3.14 1.55,0 2.12,-3.45 6.65,-6.67 -5.73,-8.43 -6.99,-1.92 -5.79,-4.7 -1.72,-3.96 -4.33,-3.8 -7.23,-2.17 -6.52,-6.26 -6.92,-2.21 -21.66,-22.79 -7.11,1.52 -3.64,3.92 -6.54,-3.5 -3.39,3.01 -3.18,-0.26 -2.72,-6.27 -6.3,-4.35 2.94,-3.75 8.46,-6.68 -1.5,-5.44 5.96,-2.32 1.06,-4.01 z" 
                fill="rgb(151, 144, 238)" 
                stroke="white" 
                stroke-width=".7px"
                title="Centre-Sud" 
                id="BF-07" 
            />
        </svg>