<svg xmlns="http://www.w3.org/2000/svg" viewBox="629.4967599999998 353.73021 206.59000000000026 230.63000000000005" width="206.59000000000026" height="230.63000000000005">
            <path 
                d="m 727.99676,353.73021 -3.06,8.2 -1.31,6.83 4.22,4.47 6.87,1.81 3.64,5.49 -4.15,4.07 -4.2,6.95 2.54,4.55 12.28,3.61 3.93,4.58 4.96,1.92 1.25,5.3 4.12,-0.6 2.28,7.1 -5.88,1.57 -3.49,2.71 -5.45,0.1 -6.29,11.94 2.23,3.4 -1.18,4.83 3.79,0.96 2.1,1.65 0.69,7.75 8.28,-1.57 4.57,4.24 2.49,11.03 4.22,0.25 0.92,-5.38 8.24,1.89 4.65,-0.41 2.83,4.11 13.63,-0.15 6.87,5.39 11.02,6.55 13.37,0.31 -1.05,7.87 1.56,16.45 4.18,8.08 2.42,8.71 -4.33,1.81 -2.6,2.83 2.16,8.66 1.88,1.39 -1.41,4.49 1.26,1.84 -8.1,10.1 -0.45,7.71 -2.35,0.95 -5.52,-6.86 -2.61,0 -5.84,12.87 0,0 -64.72,-13.03 -24.48,-6.3 -2.49,4.12 2.09,1.42 0.3,1.59 -8.69,2.5 -1.03,2.75 -2.22,2.22 -2.46,-4.54 0.33,-2.11 -3.15,-0.55 -4.53,3.01 -1.4,6.05 0.74,3.47 -2.57,1.43 -3.61,-0.66 -5.05,5.54 -2.05,-1.03 -2.36,2.61 -0.94,-1.23 -1.53,0.05 -3.48,5.24 -0.08,4.3 -2.03,1.21 -1.47,0.22 -1.75,-5.04 -2.14,-0.49 -0.33,-1.68 -0.74,-0.51 -0.79,1.38 -1.37,-0.82 2.29,-3.75 -2.08,-0.3 -1.39,1.07 -0.97,-0.82 0.23,-1.32 -2.14,-0.01 0,0 -0.38,-6.39 2.67,-2.06 -1.73,-5.37 -4.56,-0.91 0.09,-3.87 -3.39,-3.03 -2.86,-6.91 3.9,-5.08 0.31,-5.26 2.96,-0.63 4.52,-3.14 5.17,-5.03 5.26,-1.31 2.47,-6.2 5.52,2.99 2.7,-0.03 -2.42,-4.99 1.75,-2.61 -0.8,-6.65 -5.08,-0.7 -9.1,-4.94 -4.56,-6.41 -2.27,0.18 -4.13,5.06 -3.78,-0.69 -8.45,-6.32 -4.35,1.42 -4.17,-7.43 -5.91,-7.07 3.72,-10.66 4.6,-1.13 6.13,-10.53 0,0 6.3,-2.53 7.45,0.11 7.06,-4.54 9.22,-13.61 7.93,-3.02 13.33,0.62 2.75,-5.2 1.47,-5.36 -2.51,-9.98 1.91,-3.76 -7.07,-3.65 -3.1,-12.9 -2.97,-3.72 -0.24,-4.29 2.91,-6.41 -4.59,-0.49 0.49,-7.67 -9.7,-0.09 -2.26,-8.52 0,0 29.52,6.47 2.52,-2.65 z" 
                fill="rgb(151, 144, 238)" 
                stroke="white" 
                stroke-width=".7px"
                title="Centre-Est" 
                id="BF-04" 
            />
        </svg>