<svg xmlns="http://www.w3.org/2000/svg" viewBox="500.1067599999996 338.01021 111.2200000000002 86.56999999999988" width="111.2200000000002" height="86.56999999999988">
            <path 
                d="m 506.91676,384.11021 11.07,-5.56 8.16,-1.01 -6.15,-23.84 3.39,-1.85 10.06,-1.1 4.3,-12.74 2.64,2.05 3.63,6.6 -2.9,5.3 0.13,3.76 1.44,1.85 7.42,-2.29 2.03,-2.48 1.92,0.47 0.55,2.4 1.67,0.6 1.82,2.81 -4.43,8.58 13.31,-0.77 4.86,-4.26 3.54,-0.92 1.81,1.84 4.09,-0.5 2.08,2 2.33,7.65 -3.42,9.19 0.18,4.44 3.53,-1.56 6.57,8 1.56,-1.81 6.46,6.21 5.51,-2.06 0.12,6.54 5.13,1.33 -0.84,4.98 0,0 -8.24,1.75 -1.86,1.56 -3.68,-0.67 -7.47,0.7 -4.47,1.28 -3.2,2.56 -4.98,-3.53 -7.01,2.24 -5.72,3.56 -3.08,-3.99 -2.57,-8.92 -6.42,0.68 -1.02,-0.86 -6.71,2.59 -3.86,6.71 -3.06,-0.15 -6.91,5.03 -2.44,-0.32 -3.12,1.88 -4.28,4.52 -4.83,-3.59 -7.63,-0.74 -7.82,-8.6 0,0 3.17,-5.26 4.28,-2.5 3.02,-3.7 0.24,-5.61 -1.34,-2.73 -3.48,-2.19 3.26,-3.04 z" 
                fill="rgb(151, 144, 238)" 
                stroke="white" 
                stroke-width=".7px"
                title="Centre" 
                id="BF-03" 
            />
        </svg>