<svg xmlns="http://www.w3.org/2000/svg" viewBox="705.7167600000006 211.45021 380.35003999999924 368.91999999999985" width="380.35003999999924" height="368.91999999999985">
            <path 
                d="m 725.41676,222.89021 4.63,-4.35 1.08,-5.68 3.48,-0.9 5.93,1.19 9.91,4.36 14.41,-6.06 1.1,5.01 0.09,7.75 5.02,0.23 7.86,17.58 12.25,12.17 1,7.28 21.25,6.27 4.54,2.38 1.32,5.33 6.87,1.94 0.5,5.92 9.06,6.58 3.22,8.22 -3.79,0.68 4.25,1.19 2.44,-2.81 4.08,-1.31 3.33,3.04 1.15,-4.36 3.72,2.56 7.98,0.68 1.73,-5.59 7.23,0.39 1.52,-4.05 3.78,-0.56 5.19,-4.35 10.81,-4.37 0,0 0.12,4.84 8.1,0.18 1.91,1.4 44.18,37.52 25.75,20.41 40.82004,2.08 6.96,-12.05 3.31,0.98 4.76,-5.33 13.59,2.03 2.93,-1.36 0.91,3.35 6.83,2.65 -1.25,5.42 6.1,3.49 4.09,5.73 0.33,8.54 5.42,6.54 -0.13,5.4 1.01,1.09 -2.88,1.82 -2.37,-1.48 -2.8,1.64 -1.82,-1.16 -6.45,0.35 -0.15,1.17 -3.83,1.81 -2.56,2.72 -2.15,-2.05 -1.32,0.04 -2.39,5.2 46.69,63.32 -1.49,1.72 1.11,2.59 -3.2,2.3 -0.68,2.37 1.22,1.31 -2.12,1.98 0.64,2.82 -4.39,1.08 -0.29,2.11 -4.74,4.85 -0.61,2.02 1.42,5.56 -0.53,0.89 -6.61,3.68 -7.03,6.53 -2.84,0.52 -23.99,24.16 -7.41,0.44 -11.46,-3.55 -3.42,1.02 -0.83,-0.83 -1.85,1.41 -3.52,-0.23 -0.99,1.31 -5.88004,1.35 -5.24,-1.72 -1.98,2.94 -2.23,-0.86 -2.78,2.46 -2.78,-0.83 -3.07,1.67 -3.77,-1.08 -0.42,-3.2 -2.11,-1.21 0.61,-1.88 -1.44,-0.48 -0.07,-1.44 -1.86,-1.98 -1.78,2.91 -1.31,0.45 -4.19,-2.64 -3.48,1.7 -1.09,-1.73 -2.24,0.55 -1.57,-1.56 -1.97,1.06 -0.9,1.91 -1.56,-0.25 -3.19,1.67 -0.64,2.62 1.16,3.32 -1.79,0.29 -1.81,1.76 -1.12,-0.79 -1.31,3.26 -3.6,1.09 3.14,6.63 -1.94,2.82 -2.56,-1.4 -0.89,1.28 -1.53,-0.19 -1.03,-2.36 -3.26,-1.49 -0.89,1.25 0.29,3.06 1.64,1.88 -0.42,-1.66 0.99,-0.16 0.74,3.51 -3.31,2.62 -3.3,-1.93 -9.39,-0.27 -1.6,-1.33 -2.55,1.98 0.97,2.72 2.75,1.8 -1.07,2.88 0.26,3.83 1.32,1.56 -1.31,0.42 -1.28,-1.72 -3.13,0.3 -2.93,3.36 -5.68,0.59 -0.63,2.14 1.89,1.24 0.35,-1.41 2.65,2.16 0.95,6.16 2.98,3.85 -0.7,1.5 -5.56,-3.97 -4.72,1.32 -3.02,-4.71 -3.28,0.43 -1.45,-1.4 -1.19,4.5 -6.63,5.62 -1.29,2.91 -35.06,-0.12 -22.15,9.21 1.53,-6.81 -2.17,-0.85 1.76,-3.17 -17.16,-3.46 0,0 5.84,-12.87 2.61,0 5.52,6.86 2.35,-0.95 0.45,-7.71 8.1,-10.1 -1.26,-1.84 1.41,-4.49 -1.88,-1.39 -2.16,-8.66 2.6,-2.83 4.33,-1.81 -2.42,-8.71 -4.18,-8.08 -1.56,-16.45 1.05,-7.87 -13.37,-0.31 -11.02,-6.55 -6.87,-5.39 -13.63,0.15 -2.83,-4.11 -4.65,0.41 -8.24,-1.89 -0.92,5.38 -4.22,-0.25 -2.49,-11.03 -4.57,-4.24 -8.28,1.57 -0.69,-7.75 -2.1,-1.65 -3.79,-0.96 1.18,-4.83 -2.23,-3.4 6.29,-11.94 5.45,-0.1 3.49,-2.71 5.88,-1.57 -2.28,-7.1 -4.12,0.6 -1.25,-5.3 -4.96,-1.92 -3.93,-4.58 -12.28,-3.61 -2.54,-4.55 4.2,-6.95 4.15,-4.07 -3.64,-5.49 -6.87,-1.81 -4.22,-4.47 1.31,-6.83 3.06,-8.2 0,0 2.1,-8.62 -4.8,-14.14 4.93,-7.21 -2.1,-3.55 -14.74,-8.42 -4.52,-12.33 -3.15,-4.29 1.11,-3.07 -0.64,-7.09 1.7,-7.18 7.7,-10.44 -2.85,-8.95 3.96,-6.82 2.62,-7.07 -1.49,-4.16 -2.39,-3.05 1.26,-6.28 9.89,-5.89 z" 
                fill="rgb(151, 144, 238)" 
                stroke="white" 
                stroke-width=".7px"
                title="Est" 
                id="BF-08" 
            />
        </svg>