<svg xmlns="http://www.w3.org/2000/svg" viewBox="3.2467600000001102 420.08021 367.86 194.46000000000055" width="367.86" height="194.46000000000055">
            <path 
                d="m 119.82676,422.44021 1.75,1.86 3.14,0.66 3.5,-1.48 5.7,0.44 2.39,-1 1.68,-2.26 2.3,-0.58 3.92,1.93 0.49,1.89 -1.38,6.67 0.81,1.72 5.22,0.39 -2.66,8.21 -0.63,11.42 -5.49,14.05 1.78,4.06 3.41,1.15 11.29,-4.25 2.07,2.74 5.52,-0.71 4.34,-5.38 1.92,-7.59 4.11,-10.12 5.19,-4.85 10.8,0.57 2.71,-0.48 3.68,-2.72 3.86,0.47 6.41,3.55 2.34,-1.57 2.13,1.6 1.19,-0.67 0.83,1.93 0.69,3.87 -1.05,4.83 6.24,0.75 -0.35,1.91 5.96,3.6 -0.77,3.82 6.43,2.43 6.98,4.67 7.28,1.02 5.18,-3.59 14.1,-1.75 4.16,3.13 8.72,4.21 3.63,-0.35 10.43,4.35 -4.27,11.52 2.45,1.29 2.2,-0.16 3.65,4.09 7.74,1.54 0.04,7.49 1.83,2.88 3.81,2.76 3.3,-5.22 2.42,0.41 1.92,1.82 5.52,-5.83 6.43,-1.9 6.96,-5.81 3.85,-1.07 4.31,1.3 5.13,4.61 6.59,-1.48 4.54,3.12 1.49,-0.66 1.25,-2.68 3.8,2.15 4.37,3.18 -2.05,5.9 1.11,2.11 0.93,9.46 -1.65,6.28 -3.82,7.05 0,0 -9.17,-4.22 -9.66,-1.88 -4.44,-3.02 -11.17,3.57 -3.46,0 -0.85,-3.88 -6.23,1.01 -5.02,2.2 -9.78,12.7 -2.04,9.41 -3.89,1.74 -3.09,-1.54 -6.22,3.98 -5.21,-0.63 -1,-3.62 -0.57,2.63 -1.94,2.63 -4.88,0.54 -4.62,6.69 -3.65,1.23 -2.48,4.04 -2.79,1.34 0.12,1.46 2.38,2.45 -1,4.69 -4.41,4.45 -3,0.7 -2.49,5.07 1.15,3.71 -4.19,0.48 -0.8,2.08 -4.6,-0.11 -0.8,3.73 0,0 -7.23,0.24 -9.73,11.13 0.92,3.04 -3.76,2.6 -2.86,0.43 -3.98,2.33 -2.76,-0.69 -0.07,-2.2 -13.4,-3.25 -5.19,-5.73 -2.48,-1.38 -12.97,4.92 -11.27,6.64 -1.71,-0.89 -1.76,-3.21 -6.27,-2.25 -4.99,-1.03 -2.22,0.47 -3.23,-4.75 -3.75,-9.6 -3.82,-2.5 -9.56,0.01 -7.58,4.87 -0.85,1.85 -9.17,6.62 -6.16,-3.39 -4.02,-0.39 -8.6,-11.96 -10.77,0.58 -9.19,-1.61 -2.73,1.17 -1.92,3.01 -5.64,2.8 -4.38,1.41 -4.83,0.1 -10.76,3.76 -3.04,-1.59 -7.3,-8.57 -3.06,-7.19 -16.52,-15.35 -13.97,-1.15 0,0 0.7,-3.25 13.23,-3.61 7.23,-5.37 1.82,-8.45 7.68,-5.13 1.03,-4.39 -0.15,-12.88 6.77,-5.12 2.3,-5.11 -2.04,-4.75 -0.08,-6.36 1.52,-2.33 -2.12,-4.02 -0.53,-3.77 -2.47,-2.72 -5.92,0.02 -2.01,-2.03 3.77,-9.25 -0.63,-3.31 1.67,-7.52 -2.95,0.57 -1.64,-1.58 -0.27,-2.04 -7.1,-2.76 -0.82,1.28 -4.11,-2.94 -1.23,0.36 -1.63,-1.19 0.25,-1.72 3.33,-0.94 3.82,2.46 3.49,-2.79 2.92,0.91 0.44,-1.14 2.46,-1.06 0.82,1.81 1.71,0.77 1.98,-0.98 0.38,-2.88 3.57,-2.11 1.88,-2.4 3.03,-1.25 1.36,-3.5 2.84,-0.46 0.47,-2.26 1.99,-0.02 8.43,-4.45 11.46,-0.2 5.7,-2.52 9.9,-0.02 5.52,-2.25 2.02,1.36 8.58,0.05 3.99,1.46 3.7,-7.42 3.31,-1.01 3.41,0.48 z" 
                fill="rgb(151, 144, 238)" 
                stroke="white" 
                stroke-width=".7px"
                title="Hauts-Bassins" 
                id="BF-09" 
            />
        </svg>