<svg xmlns="http://www.w3.org/2000/svg" viewBox="355.06675999999953 117.85021 191.87000000000018 228.36000000000013" width="191.87000000000018" height="228.36000000000013">
            <path 
                d="m 461.35676,117.85021 13.25,18.81 8.59,4.61 10.96,8.48 7.59,3.62 -1.75,4.27 -0.58,6.8 1.3,4.31 3.62,5 2.12,5.3 10.55,11.23 0,0 2.79,4.24 -1.13,4.85 -5.5,-0.48 -4.78,3.47 -6.33,2.45 -3.19,5.54 0.19,6.21 5.97,12.51 -1.91,3.73 1.76,2.35 -1.6,4.44 1.26,3.64 -0.57,2.98 5,2.99 1.87,5.04 5.74,-0.95 1.02,5.62 3.53,3.01 -0.97,4.3 1.14,4.16 -3.07,1.55 -0.53,3.31 13.17,9.62 5.79,1.72 4.54,4.77 5.74,3.68 -0.59,8.8 -2.69,1.93 0,0 -1.74,1.16 -11.24,-5.54 -11.54,4.85 -18.45,4.49 -3.81,4.54 -4.69,3.03 -3.43,4.85 -2.16,5.24 1.39,5.12 2.42,3.93 0,0 -3.31,2.33 -4.05,-6.98 -3.91,0.83 -4.08,-0.93 -3.33,2.5 -2.71,0.39 -4.68,-1.23 -8.13,0.24 -4.03,1.92 -5.71,0.48 -6.65,4.53 -1.48,-0.26 -3.39,1.8 -11.62,3.16 -3.7,-0.73 0.02,-4.19 6.83,-5.78 -0.98,-1.58 -11.83,0.75 -1.52,-2.11 0.33,-4.01 4.08,-6.38 -3.09,-3.63 -3.56,-0.29 -1.77,0.81 -13.11,10.14 0,0 -7.51,-8.61 -2.31,-0.01 -0.55,-2.93 3.76,-17.2 -2.03,-13.2 1.21,-6.08 2.3,-1.63 9.11,1.43 6.68,-0.13 2.83,-2.31 6.33,-10.45 7.79,-10.02 -1.91,-2.21 -3.35,-1.06 -4.83,-0.44 -1.79,1.95 -9.36,-4.95 -1.91,-5.9 -2.48,-2.02 -0.8,-13.2 -2.33,-2.77 -5.97,-1.31 -2.32,-3.49 -0.43,-2.47 -19.37,-4.7 -4.92,-4.6 -5.8,-7.58 0,0 2.73,-2.75 -2.19,-9.49 -0.42,-14.4 6.81,-14.58 2.11,-7.33 2.61,-3.15 46.08,-18.85 35.63,-11.62 z" 
                fill="rgb(151, 144, 238)" 
                stroke="white" 
                stroke-width=".7px"
                title="Nord" 
                id="BF-10" 
            />
        </svg>