<svg xmlns="http://www.w3.org/2000/svg" viewBox="461.35675999999967 0.2502076 470.62000000000023 299.73000240000005" width="470.62000000000023" height="299.73000240000005">
            <path 
                d="m 693.97676,0.2502076 7.13,9.5 2.05,0.8200004 18.49,-9.7700004 11.76,3.82 21.75,9.1200004 14.23,1 18.47,-1.64 0.87,14.61 -4.62,6.57 4.67,12.67 -0.66,3.91 -7.36,19.57 -1.31,8.35 3.29,8.82 2.43,2.34 0.67,-0.77 8.33,9.99 6.51,2.310002 6.46,7.56 2.92,5.95 -0.1,3.07 -3.78,8.16 -0.82,5.27 0.86,3.12 4.35,5.59 -1.51,2.23 2.02,5.98 7.05,7.04 0.68,3.9 3.47,-2.22 0.37,2.03 -1.34,1.97 -0.01,2.74 2.54,3.31 3.96,2.83 1.32,4.67 6.54,3.88 1.54,3.57 3.26,1.22 0.07,-1.05 0.93,-0.04 0.7,2.99 -3.54,4.89 0.76,2.89 1.88,1.5 2.26,0.79 18.79,0.07 3.32,2.19 -2.52,1.83 0.44,3.02 6.24,3.37 2.63,-0.72 8.32,0.72 7.05,5.34 4.31,0.58 2.19,2.53 1.21,3.83 -1.02,1.63 0.92,4.48 3.66,0.59 3.7,3.03 2.76,0.11 6.68,6.54 2.67,0.19 0.5,0.9 8.48,2.65 2.64,-0.57 5.49,4.59 -0.25,1.22 -6.56,2.26 -1.98,-5.17 -1.99,-0.44 0.28,3.41 -3,4.57 -4.63,-0.76 -2.25,-2.06 -1.73,0.55 -9.12,-4.98 -8.4,-0.32 0.01,38.76 0,0 -10.81,4.37 -5.19,4.35 -3.78,0.56 -1.52,4.05 -7.23,-0.39 -1.73,5.59 -7.98,-0.68 -3.72,-2.56 -1.15,4.36 -3.33,-3.04 -4.08,1.31 -2.44,2.81 -4.25,-1.19 3.79,-0.68 -3.22,-8.22 -9.06,-6.58 -0.5,-5.92 -6.87,-1.94 -1.32,-5.33 -4.54,-2.38 -21.25,-6.27 -1,-7.28 -12.25,-12.17 -7.86,-17.58 -5.02,-0.23 -0.09,-7.75 -1.1,-5.01 -14.41,6.06 -9.91,-4.36 -5.93,-1.19 -3.48,0.9 -1.08,5.68 -4.63,4.35 0,0 -3.93,-7.3 4.08,-3.56 0.75,-7.79 -11.86,0.54 -6.15,-1.43 -4.71,-4.3 -2.69,-4.69 -4.73,-1.47 -1.95,-12.89 -3.45,-4.23 -7.07,-7.55 -12.64,-6.79 -2.62,-5.04 -4.41,0.23 -2.14,5.75 -5.7,1.95 -19.88,10.39 -17.62,3.31 -5.79,4.2 -6.67,-1.07 -3.42,4.04 -8.51,1.16 -5.62,-0.98 -6.64,2.96 -8.31,0.59 -1.08,-1.66 -14.13,-3.24 -7.97,-5.04 -2.3,-6.43 -1.19,-7.11 -15.32,7.61 -4.64,-1.39 -6.46,10.22 -3.64,8.4 0,0 -10.55,-11.23 -2.12,-5.3 -3.62,-5 -1.3,-4.31 0.58,-6.8 1.75,-4.27 -7.59,-3.62 -10.96,-8.48 -8.59,-4.61 -13.25,-18.81 0,0 6.24,-11.75 12.64,-32.390002 3.2,-3.9 79.11,-26.65 11.84,-2.76 40.63,-5.37 10.97,-7.17 17.55,-18.0800004 14.32,-9.47 z" 
                fill="rgb(151, 144, 238)" 
                stroke="white" 
                stroke-width=".7px"
                title="Sahel" 
                id="BF-12" 
            />
        </svg>