<svg xmlns="http://www.w3.org/2000/svg" viewBox="209.11676000000028 521.7102099999995 185.9799999999999 270.1500000000001" width="185.9799999999999" height="270.1500000000001">
            <path 
                d="m 245.82676,594.77021 0.8,-3.73 4.6,0.11 0.8,-2.08 4.19,-0.48 -1.15,-3.71 2.49,-5.07 3,-0.7 4.41,-4.45 1,-4.69 -2.38,-2.45 -0.12,-1.46 2.79,-1.34 2.48,-4.04 3.65,-1.23 4.62,-6.69 4.88,-0.54 1.94,-2.63 0.57,-2.63 1,3.62 5.21,0.63 6.22,-3.98 3.09,1.54 3.89,-1.74 2.04,-9.41 9.78,-12.7 5.02,-2.2 6.23,-1.01 0.85,3.88 3.46,0 11.17,-3.57 4.44,3.02 9.66,1.88 9.17,4.22 0,0 -3.06,5.48 6.75,1.62 1.19,2.4 0,0 1.36,1.28 1.12,5.04 -0.27,4.29 1.04,1.49 6.04,-2.87 0.72,-4.15 2.61,-1.59 11.97,9.61 -0.01,3.48 -1.64,5.2 -1.31,1.33 -7,0.05 -2.35,4.37 -0.27,3.1 0,0 -4.65,-0.22 -1.36,-0.9 -8.51,0.07 -1.43,6.14 2.97,4 -0.27,2.46 -2.15,3.45 -3.93,1.38 0.04,3.57 -1.89,3.57 -1.49,7.32 -6.52,8.09 -0.16,1.66 3.56,1.18 0.72,1.26 -0.75,2.81 -3.29,3.09 -0.66,1.95 10.37,24.6 5.66,3.21 7.16,1.53 -2.06,2.52 -4.91,0.97 -1.04,1.01 -2.63,9.24 2,3.34 8.54,4.37 1.99,3.34 -1.09,2.97 -3.98,5.03 1.35,6.28 -0.92,4.05 0.64,7.52 5.35,13.16 -2.38,5.89 -0.11,2.96 0.72,3.16 4.1,5.71 -0.89,1.83 -3.6,2.76 -3.67,6.54 -0.05,5.87 1.01,1.95 3.48,2.39 1.18,4.39 -3.1,6.18 0.75,4.56 5.06,4.51 2.84,1.22 3.27,4.69 -2.37,1.93 -6.33,9 -2.43,1.03 -3.79,-2.37 -14.04,-15.42 -8.9,-15.97 -5.56,-12.53 -1.44,-0.82 -4.25,3.38 -1.62,-0.09 -4.32,-5.75 -0.46,-4.12 -4.19,-7.41 -8.42,-0.05 -1.02,-1.63 -0.15,-9.78 -2.58,0.91 -1.47,3.01 -2.02,0.55 -5.67,6.01 -5.12,-1.03 1.15,-4.03 -0.71,-1.83 -4.7,1.44 -6.53,-3.52 -3.22,0.71 -6.72,-1.89 -10.91,-0.17 -6.84,0.92 -5.81,-5.18 -4.4,2.36 -4.77,-0.34 -5.94,1.5 -5.03,2.73 -2.81,3.27 -11.28,-1.57 0,0 0.09,-4.4 -5.98,-6.45 -8.11,-6.34 1.85,-6.78 2.3,-4.37 8.13,1.85 9.03,-2.65 3.74,-2.17 3.94,-8.43 4.19,-5.69 0.68,-2.51 -1.26,-2.2 -1.37,-7.23 -2.29,-4.08 6.74,-8.85 1.9,-5.97 3.55,-2.86 -1.07,-3.45 -0.02,-12.73 1.26,-5.7 -0.3,-2.01 -3.11,-3.86 -7.48,-1.1 -3.11,-3.01 0.06,-1.63 1.07,-2.5 1.7,-1.11 11.7,0.11 -0.98,-5.6 -1.59,-2.59 -2.63,-1.73 z" 
                fill="rgb(151, 144, 238)" 
                stroke="white" 
                stroke-width=".7px"
                title="Sud-Ouest" 
                id="BF-13" 
            />
        </svg>