<svg xmlns="http://www.w3.org/2000/svg" viewBox="338.10408 66.78158800000001 53.82999999999987 78.47000200000001" width="53.82999999999987" height="78.47000200000001">
            <path 
                d="m 346.97408,70.521588 3.58,-1.35 0.79,1.17 2.14,-0.11 1.42,-1.34 5.28,1.2 2.2,-2.36 2.07,0.68 0.84,1.23 1.08,-0.84 0.81,0.55 0.18,-1.55 2.11,-1.02 1.28,1.11 5.26,0.96 0.63,1.83 3.94,-2.24 0.55,1.15 -0.62,2.11 3.39,0.59 1.04,0.98 2.31,-0.69 0,0 2.07,0.58 0.12,0.91 1.51,-0.17 0,0 -0.6,2.9 1.58,0.63 -0.1,2.29 -1.96,5.67 1.82,1.47 -2.69,3.72 -2.44,1.34 -0.47,2.88 -3.07,-0.3 -0.73,1.01 2.26,3.25 -1.17,1.680002 1.09,0.19 0.14,1.11 -1.58,1.13 0.04,2.5 1.09,1.41 -1.27,0.46 0.42,2.04 0,0 -0.48,2.93 -3.2,-1.09 -1.49,-1.87 -2.83,1.69 -0.18,2.25 -3.05,-0.73 -5.51,2.72 0.85,2.84 -0.56,0.94 1.08,1.22 -1.01,1.39 1.18,1 0.69,-0.62 0.66,1.9 1.42,-0.27 -0.03,1.41 -1.8,1.05 -0.78,-0.75 -2.66,0.23 -0.89,1.95 1.55,2.68 -2.13,1.07 -0.07,1.47 2.72,-0.39 1.12,1.83 -1.51,0.63 -0.85,2.39 -1.28,0.38 0.54,1.09 -1.22,0.22 -0.14,1.56 -1.76,0.16 -1.78,3.77 0,0 -1,0.92 -0.64,-1.43 -2.6,-0.73 -0.64,-3.55 -1.6,1.28 -1,-2.56 -1.67,0.62 -0.55,-2.12 -3.48,-2.51 0.97,-2.39 -1.55,-2.05 0.47,-1.02 -3.83,-1.13 0,0 0.95,-1.64 0.68,0.73 -0.24,-1.09 1.73,-0.75 -1.63,-0.45 0.36,-0.56 0,0 0.01,-0.52 0,0 -0.66,-0.84 -0.52,2.44 -0.18,-2.11 -3.18,-1.48 -0.19,1.7 1.38,0.27 -0.57,0.9 -1.22,-1.58 -0.32,0.69 -0.71,-0.45 -0.38,-2.2 1.8,-0.61 0.88,1.21 0.71,-0.98 -0.08,-3.45 -2.17,-0.11 -0.71,-2.47 1.33,-0.86 1.8,0.76 2.11,-3.07 -0.06,-3.6 2.95,-0.43 -2.4,-1.67 0.7,-1.21 -1.25,-1.78 1.33,-0.8 0.5,-3.130002 -1.87,-3.04 0.86,-1.05 -0.65,-1.13 1.22,-0.32 -0.31,-2.84 0,0 0,0 0,0 -0.02,-0.18 0,0 -0.83,-3.7 -1.45,-0.26 0.9,-2.2 -1.31,-1.74 1.25,-0.64 -0.36,-2.4 0.48,0.86 1.34,-1.17 0.12,-2.61 3.34,-3.81 -2.03,-0.47 z" 
                fill="rgb(151, 144, 238)" 
                stroke="white" 
                stroke-width=".7px"
                title="Aisne" 
                id="FR-02" 
            />
        </svg>