<svg xmlns="http://www.w3.org/2000/svg" viewBox="443.5240800000002 397.83159000000006 60.94999999999982 57.05000000000001" width="60.94999999999982" height="57.05000000000001">
            <path 
                d="m 450.89408,424.90159 4.99,-1.28 4.7,1.34 0.15,-0.85 -1.51,-0.55 -2.14,-3.89 0.5,-0.95 1.22,0.12 2.29,2.77 0.17,-3.85 -1.14,-0.08 0.18,-1.21 1.54,-1.33 0.5,-2.09 4.33,-3.15 0.82,0.71 0.33,-2.28 3.09,0.93 -0.3,1.15 0.98,0.1 2.18,3.36 1.45,-1.75 -1.2,-2.93 2.62,-1.1 1.27,1.03 0.84,-2 -0.62,-0.65 1.25,-0.74 2.05,3.04 0.95,-0.27 1.42,1.37 6.79,0.23 1.97,-5.45 2.51,-0.73 1.15,-1.97 3.13,-1.24 2.8,-2.88 1.63,0.21 0,0 0.69,2.13 -0.75,0.06 -0.72,2.58 -3.19,2.53 0.94,2.86 2.91,2.91 -2.3,0.48 -0.19,3.51 0,0 -3.16,1.7 -0.91,3.33 -1,-0.34 -1.43,1.63 -1.83,4.76 2.94,5.16 -0.43,2.23 3.73,2.92 0.48,2.08 1.02,0.03 2.91,3.13 -2.4,0.62 -2.25,-1.68 -3.38,2.66 -3.18,-0.96 1.2,1.79 -1.45,1.52 1.86,0.96 -3.18,1.42 0,0 -0.46,-0.9 -1.48,-0.03 -1.93,1.73 -1.01,-1.95 -1.36,1.03 -2.9,-0.05 -0.03,1.78 -1.29,1.52 -2.37,-0.74 -3.16,-3.12 -1.45,0.11 -2.33,3.06 -2.17,0.07 -3.51,4.31 -1.45,-2.6 -2.06,-0.93 -0.48,-1.53 -0.96,0.21 -0.08,1.26 -2.12,0.79 -0.84,-1.7 -2.02,-0.32 -0.86,1.19 0,0 -4.38,-5.31 -3.28,-0.27 -1.26,0.79 0.08,-2 2.55,-3.66 -1.15,0.02 -0.56,-1.52 -2.46,-0.57 1.49,-6.67 -1.65,0.2 -0.25,-3.02 0,0 3.33,-2.08 -0.59,-1.08 0.56,-1 1.31,-0.13 1.25,1.3 -0.35,1 1.96,0.24 0.17,-0.99 -1.63,-0.3 0.36,-1.19 z" 
                fill="rgb(151, 144, 238)" 
                stroke="white" 
                stroke-width=".7px"
                title="Alpes-de-Haute-Provence" 
                id="FR-04" 
            />
        </svg>