<svg xmlns="http://www.w3.org/2000/svg" viewBox="490.70408000000026 415.1215899999999 44.779999999999916 50.81" width="44.779999999999916" height="50.81">
            <path 
                d="m 501.88408,415.28159 2.67,4.28 1.02,0.19 0.07,1.66 1.42,1.61 1.67,-0.48 3.01,1.85 1.83,-0.06 3.82,3.5 2.64,-0.31 0.6,1.78 1.46,-0.56 1.33,0.75 0.25,-1.05 1.26,0.28 4.19,-1.78 2.35,0.39 0.76,-1.57 1.96,0.11 -0.72,2.52 2.01,2.79 -0.4,2.36 -1.76,0.77 -0.44,3.13 -3.54,1.86 -0.31,2.57 -2.57,1.34 1.45,4.98 -1.84,2.2 -1.43,-0.53 -1.79,2.09 -2.92,0.53 -0.24,2.08 -0.74,-1.74 -0.45,1.21 -2.58,-0.22 -1.38,2.2 -2.16,-0.14 -1.27,2.89 0.47,3.24 -1.64,-1.44 -2.48,2.04 -0.74,-0.83 -2.05,0.24 -1.41,1.64 0.8,1.12 -1.15,1.16 0,0 -1.86,-1.5 0.46,-1.36 -0.71,-0.14 1.4,-3.96 -4.67,-1.67 -1.52,-2.17 0.51,-2.17 -0.89,-2.12 -1.68,0.1 -1.13,-1.03 -1.14,0.51 -0.98,-2.33 0,0 3.18,-1.42 -1.86,-0.96 1.45,-1.51 -1.2,-1.79 3.18,0.95 3.38,-2.66 2.25,1.68 2.4,-0.61 -2.9,-3.14 -1.03,-0.03 -0.48,-2.08 -3.72,-2.92 0.42,-2.23 -2.94,-5.16 1.83,-4.76 1.43,-1.63 1,0.34 0.91,-3.33 3.16,-1.71 0,0 0.72,0.16 z" 
                fill="rgb(151, 144, 238)" 
                stroke="white" 
                stroke-width=".7px"
                title="Alpes-Maritimes" 
                id="FR-06" 
            />
        </svg>