<svg xmlns="http://www.w3.org/2000/svg" viewBox="382.2940800000001 60.391588000000006 56.97999999999985 60.220002000000015" width="56.97999999999985" height="60.220002000000015">
            <path 
                d="m 415.99408,61.321588 1.71,0.09 0.81,1.04 -1.19,1.1 0.18,2.05 -0.87,-0.88 -0.54,2.22 -0.75,0.14 0.88,1.74 -2.14,4.46 0.06,0.68 2.34,0.64 1.7,2.49 -1.71,2.75 1.15,3.02 -0.96,1.71 2.26,0.47 3.71,-0.92 0.55,1.15 3.56,1.24 1.38,3.16 1.44,-0.14 0.17,1.43 4.33,-0.16 2.54,2.68 -1.05,1.56 0.32,1.17 1.41,-1.26 1.99,0.92 0,0 -0.74,1.5 -1.68,-0.05 -1.06,2.19 -2.06,1.130002 -1.14,-1.760002 -2.96,0.41 -0.84,-1.77 -1.28,-0.1 0.01,2.02 -0.94,1.160002 0,0 0,0.48 0,0 -1.29,2.18 2.16,2.72 0.17,2.45 -1.59,1.07 1,1.55 -1.92,0.63 -1.13,2.09 -0.11,1.62 1.41,1.29 -0.35,0.98 -4.13,2.35 0,0 -1.25,-0.92 0.11,-0.92 -1.94,0.21 -0.45,2.23 -2.1,-1.41 -2.56,0.57 -2.64,-1.06 -2.33,1.64 -1.76,-2.62 0.26,-1.17 -6.28,1.19 -2.08,-1.17 -0.69,-2.11 -1.51,0.69 -0.26,-0.78 -1.22,-0.01 -2.52,-3.62 -1.92,-0.03 -0.41,-1.12 -5.94,-0.32 0,0 -0.42,-2.04 1.27,-0.46 -1.09,-1.41 -0.04,-2.5 1.58,-1.13 -0.14,-1.11 -1.09,-0.19 1.17,-1.680002 -2.26,-3.25 0.73,-1.01 3.07,0.3 0.47,-2.88 2.44,-1.34 2.69,-3.72 -1.82,-1.47 1.96,-5.67 0.1,-2.29 -1.58,-0.63 0.6,-2.9 0,0 3.23,-0.67 5.66,2.04 2.72,-0.63 2.63,-2.18 4.64,-1.11 0.51,-3.38 -0.81,-0.99 0.92,-1.86 2,-1.05 0.52,-1.61 2.55,-2.07 z" 
                fill="rgb(151, 144, 238)" 
                stroke="white" 
                stroke-width=".7px"
                title="Ardennes" 
                id="FR-08" 
            />
        </svg>