<svg xmlns="http://www.w3.org/2000/svg" viewBox="375.57407999999987 356.42159 42.54000000000008 64.2100000000001" width="42.54000000000008" height="64.2100000000001">
            <path 
                d="m 412.73408,356.42159 0.29,2.55 1.59,1.53 0,0 0.28,7.55 0.95,0.64 -1.18,1.93 1.1,3.04 1.28,0.84 -1.04,2.93 2.11,4.11 -1.33,2.24 -0.43,3.23 -3.42,4.13 0.8,6.56 -1.64,4.17 -1.97,1.66 0.29,5.72 -1.44,1.98 -0.65,5.64 0,0 -0.05,3.44 0,0 -3.77,-1.84 -0.4,-1.33 -1.53,-0.19 -0.28,-0.88 -2.16,0.31 -0.63,3.19 -1.76,-0.41 -0.15,-3.24 -2.72,0.47 -1.6,1.34 0.03,1.32 -1.3,1.58 -3.27,-3.06 -1.48,0.27 -0.54,-1.35 -3.23,1.12 -0.65,-0.69 0.9,-1.99 -0.73,-1.6 1.18,-0.82 -1.35,-0.81 0.06,-1.53 -1.63,-0.8 0,0 -1.41,-5.52 -2.55,-2.29 -1.73,-8.71 0,0 2.58,-1.42 -0.53,-0.55 1.6,-2.85 1.62,0.9 -0.24,-1.25 0.73,0.76 0.23,-1.06 0.94,0.26 0.26,-2.26 5.06,-0.04 2.84,-5.27 3.69,-0.58 -0.97,-1.38 0.25,-1.33 3.57,-1.28 -1.51,-1.57 0.53,-1.84 1.66,-0.33 -1.04,-2.28 2.04,0.44 0.53,1.55 0.11,-0.74 0.79,0.21 -0.6,-1.56 1.51,-2.64 0.14,-2.68 0,0 4.94,-0.86 -0.43,-1.36 1.33,-1.04 -0.32,-1.2 z" 
                fill="rgb(151, 144, 238)" 
                stroke="white" 
                stroke-width=".7px"
                title="Ardèche" 
                id="FR-07" 
            />
        </svg>