<svg xmlns="http://www.w3.org/2000/svg" viewBox="249.54408 475.02158999999995 55.82000000000005 41.940000000000055" width="55.82000000000005" height="41.940000000000055">
            <path 
                d="m 250.86408,502.92159 -1.32,-5.14 2.44,-1 -0.4,-1.44 4.24,-0.89 1.92,-2.08 -1.51,-0.9 -0.32,-2.6 1.14,-0.57 -0.67,-0.57 0.43,-1.25 1.56,0.82 0.62,-2.61 1.45,0.71 1.46,-1.21 2.8,1.32 1.37,2.58 1.58,-0.31 -0.04,-1.01 1.69,-0.72 -1.18,-1.48 -2.47,-0.82 0.81,-1.47 3.61,-0.09 2.38,-1.51 -0.12,-1.6 -3.34,-1.21 -0.06,-1.29 1.66,-1.56 1.66,0.32 0.18,1.25 2.21,1.98 -0.57,1.59 2.08,1 0.76,-1.02 0.95,0.29 -0.46,-4.05 0.85,0.09 0.08,1.22 1.17,-0.48 0.71,1.38 0.27,-1.2 2.74,1.07 -0.04,1.1 1.52,-2.52 0.68,0.43 0,0 1.47,2.76 -0.55,2.15 3.03,1.98 2.79,0.32 0.01,-0.79 0.2,0.86 0.99,-0.18 0.41,1.83 1.05,-1 1.37,0.7 0.62,2.96 -0.9,0.1 0,0.89 1.82,1.02 -0.66,1.39 0.66,0.29 -0.02,2.03 0.89,0.32 -2.03,-0.14 -1,1.41 1.93,0.55 0.26,3.33 -4.62,1.03 -0.63,1.89 1.56,0.6 1.22,1.9 -0.56,0.93 1.43,1.2 5.69,-0.82 3.55,3.1 -0.28,1.87 0,0 -6.89,0.1 -1.01,2.49 -1.66,0.7 -1.38,-0.59 -1.3,1.96 -3.43,0.35 0,0 0.24,-0.77 -2.77,-0.13 0.41,-1.5 -5.67,-0.55 -2.02,-1.64 -2.92,0.23 -0.09,2.1 -1.68,0.64 -1.96,-4.7 -1.61,-0.94 0.22,-0.9 -4.27,0.24 -0.94,-0.72 -2.55,1.08 -3.74,-4.49 -3.96,0.1 -0.98,-1.08 -1.42,0.93 z" 
                fill="rgb(151, 144, 238)" 
                stroke="white" 
                stroke-width=".7px"
                title="Ariège" 
                id="FR-09" 
            />
        </svg>