<svg xmlns="http://www.w3.org/2000/svg" viewBox="355.6740799999999 152.85159000000002 61.51000000000005 49.27000000000001" width="61.51000000000005" height="49.27000000000001">
            <path 
                d="m 362.99408,159.08159 1,1.99 1.82,0.5 0.54,2.45 4.07,-0.02 3.64,1.47 1.65,-1.42 -0.55,-2.67 2.01,0.36 0.36,-1.68 1.66,-0.11 2.2,-3.8 2.36,-0.17 0.91,-2.19 2.14,0.94 1.38,-1.34 2.83,0.37 0.39,-0.91 0.84,0.66 1.53,-0.53 1.4,2.27 -0.69,3.96 3.53,3.38 3.85,1.44 0.65,-0.59 1.41,1.39 1.97,-1.74 2.12,-0.05 -0.37,0.62 1.46,0.8 0,0 -0.67,3.81 -1.03,0.55 2.06,1.31 1.16,3.09 2.24,0.19 -0.22,1.32 3.54,1.53 -1.1,1.18 2,3.53 -1.07,2.87 1.17,1.31 -1.12,1.91 0.6,1.56 -0.9,0.83 0.21,1.5 -4.3,-0.75 -1.06,1.74 -1.99,0.63 2.71,2.09 -0.74,1.51 0,0 -1.44,0.44 -3.54,-1.04 -2.03,1.5 0.77,2.38 -9.97,0.42 -0.9,2.25 0,0 -2,-0.32 -0.94,-1.18 0.18,-1.41 -1.31,0.29 0.74,0.34 -0.43,1.26 -1.46,-1.12 0,0 -0.8,0.73 0,0 -1.57,1.35 -0.85,-1.17 -1.23,-0.05 -0.64,1.27 -1.67,-1.07 -0.76,0.75 -3.79,0.07 0.77,-3.12 -0.78,-1.35 -0.6,1.41 -1.18,-0.26 -0.52,-1.29 1.31,0.09 0.05,-0.78 -2.06,-1.8 -1.29,-4.57 -2.14,-0.91 0.36,-2.07 -1.41,-0.52 0.35,1.12 -2.31,1 -1.53,-3.1 -2.14,0.33 1.76,-2.55 -0.86,-0.43 0.76,-2.25 -1.73,-0.95 0.41,-1.03 -1.81,-1.19 -1.66,-2.92 -1.55,-0.61 -1.59,1.1 -0.58,-1.97 0,0 0.31,-1.6 -1.27,-0.57 0.59,-1.79 -0.94,-1.65 2.26,-0.67 -1.3,-2.34 3.09,-0.86 -0.67,-1.8 2.04,-1.21 -0.51,-0.93 z" 
                fill="rgb(151, 144, 238)" 
                stroke="white" 
                stroke-width=".7px"
                title="Aube" 
                id="FR-10" 
            />
        </svg>