<svg xmlns="http://www.w3.org/2000/svg" viewBox="285.3840799999997 466.84158999999994 64.38000000000017 45.80999999999989" width="64.38000000000017" height="45.80999999999989">
            <path 
                d="m 299.51408,468.24159 0.94,0.27 0.83,1.99 4.06,-1.19 1.83,1.86 0.29,-2.72 1.52,-1.61 1.01,1.09 0.98,-0.36 3.75,1.75 3.25,-1.21 4.05,0.99 0,0 0.88,0.94 -1.33,0.57 -0.9,2.72 1.95,0.74 1.31,2.76 2.37,-0.97 0.56,-1.23 0.76,2.77 2.74,0.93 1.87,-2.85 -0.45,-0.69 2.59,-0.58 -0.06,-2.94 0.95,0.96 0,2.13 2.33,0.95 2.41,-0.5 0.27,2.61 1.78,-0.34 1.06,1.08 2.59,0.11 0.6,0.95 1.53,-0.41 0.7,0.79 0,0 0.95,1.05 0,0 0.28,0.28 0,0 -4.3,5.01 -2.94,5.9 -1.1,4.52 0.93,1.25 -0.72,4.44 0,0 -7.46,-4.47 -3.13,1.24 -2.11,3.43 -9.84,-0.85 -6.78,0.55 -0.73,0.99 0.95,1.27 0.46,4.14 -2.3,1.48 -1.39,-0.4 -2.96,3.22 -1.26,-0.7 0,0 0.28,-1.87 -3.55,-3.1 -5.69,0.82 -1.43,-1.2 0.56,-0.93 -1.22,-1.9 -1.56,-0.6 0.63,-1.89 4.62,-1.03 -0.26,-3.33 -1.93,-0.55 1,-1.41 2.03,0.14 -0.89,-0.32 0.02,-2.03 -0.66,-0.29 0.66,-1.39 -1.82,-1.02 0,-0.89 0.9,-0.1 -0.62,-2.96 -1.37,-0.7 -1.05,1 -0.41,-1.83 -0.99,0.18 -0.2,-0.86 -0.01,0.79 -2.79,-0.32 -3.03,-1.98 0.55,-2.15 -1.47,-2.76 0,0 0.74,-1.8 1.19,-0.52 -0.54,-1.58 3.77,0.04 -0.5,-2.92 1.03,-0.19 -0.39,-0.85 1.01,-0.25 0.46,-1.56 2.11,2.79 0.6,-1.55 1.54,-0.31 1.4,1 2.08,-0.88 z" 
                fill="rgb(151, 144, 238)" 
                stroke="white" 
                stroke-width=".7px"
                title="Aude" 
                id="FR-11" 
            />
        </svg>