<svg xmlns="http://www.w3.org/2000/svg" viewBox="291.69408 381.34159000000005 66.76000000000005 72.16999999999996" width="66.76000000000005" height="72.16999999999996">
            <path 
                d="m 306.90408,400.25159 0.71,-0.38 -0.39,-1.5 3.31,-1.11 1.31,-0.12 1.07,1.74 5.46,-0.59 0.65,-2.23 2.52,-1.81 -0.43,-1.94 2.1,-2.25 0.18,-3.14 5.49,-5.58 1.55,1.71 -0.06,3.28 1.33,-1.09 2.27,0.01 1.19,4.96 1.34,-0.25 0.69,1.14 -1.06,0.74 0.97,1 0.07,3.74 1.87,2.07 0,0 4.31,4.95 -0.79,3.27 3.24,3.74 -1.04,4.34 1.43,3.19 -1.34,1.35 -0.03,1.29 1.3,-0.74 0.36,1.76 1.13,-0.29 1.75,1.11 -1.1,2.33 3.8,-0.94 2.74,0.34 0.44,1.75 0,0 -1.57,0.72 -0.54,2.89 -2.46,0.87 1.31,1.44 1.38,-0.63 1,1.68 1.55,-0.47 2.54,1.97 -1.79,3.08 -2.01,1.18 0.05,2.04 0,0 -0.65,1.13 -3.27,-0.03 -1.22,1.82 0.57,1.91 -1.71,1.01 -5.95,-1.35 -0.61,1.9 1.07,1.91 -0.93,1.35 0.34,2.99 -3.18,-0.9 -2.05,0.83 0,0 -0.92,-2.64 -1.78,0.07 -1.93,-1.28 -3.37,1.87 -3.51,-1.6 -4.04,-5.03 0.79,-1.84 -1.21,-0.91 0.07,-1.88 -2.15,-1.15 1.29,-1.84 -1.24,-0.52 -1.67,-3.67 -2.14,-0.33 -0.87,-2.21 -2.36,-1.69 -1.08,0.26 -1.45,-1.65 -1.39,0.81 -2.21,-0.22 2.15,-1.39 -1.83,-0.03 -2.1,-2.23 -1.54,0.45 -0.35,1.08 0,-0.81 -1.73,-0.04 0.24,0.96 -2.92,1.34 0,0 0.43,-0.51 -0.98,-1.21 -1.26,-0.14 -0.29,0.8 -0.26,-1.17 -0.86,0.2 -0.85,-1.28 1.07,-0.27 0.7,-1.91 0.88,0.11 0.65,-1.72 -4.16,-1.12 0.48,-0.68 -0.96,-0.96 0.97,-1.07 0,0 1.26,-1.04 -1.84,-2.29 0.26,-1.51 -0.96,-0.68 -0.45,-2.68 1.81,-0.19 0.19,-1.22 1.21,1.06 -0.21,-1.01 6.05,-4.59 0.23,1.03 0.82,-1.28 2.03,1.04 1.92,-1.55 0.72,0.63 z" 
                fill="rgb(151, 144, 238)" 
                stroke="white" 
                stroke-width=".7px"
                title="Aveyron" 
                id="FR-12" 
            />
        </svg>