<svg xmlns="http://www.w3.org/2000/svg" viewBox="503.51408 130.13158999999996 53.51000000000016 59.87999999999994" width="53.51000000000016" height="59.87999999999994">
            <path 
                d="m 509.02408,164.19159 3.69,0.49 4.15,-3.94 0.59,-2.38 -0.63,-0.13 1.68,-1.84 -1.62,-0.15 -0.96,-1.86 0.94,-0.41 2.06,-4.31 -1.11,-1.94 -1.62,-0.61 0.45,-0.9 -1.53,-0.45 -0.07,0.7 -1.52,-1.94 -1.75,0.51 -0.68,2.45 -2,1.1 -0.47,-0.96 0.92,-0.73 -1.54,-0.28 -0.04,-1.77 1.87,-0.43 -0.04,-0.73 -1.85,0.22 -0.08,-0.98 -3.9,-1.19 -0.45,-2.51 1.44,0.01 0.49,-1.77 1.74,0.32 -0.07,-1.94 1.94,-4.01 -0.41,-0.94 1.28,-0.76 0.78,0.5 -0.65,0.45 1.04,3.56 1.95,0.01 1.58,1.64 1.11,-0.53 2.34,0.9 -0.14,1.15 1.46,0.77 5.24,-1.58 3.52,2.27 1.73,-1.55 2.42,-6.09 0,0 1.52,0.57 2.44,-0.76 0.12,0.82 2.44,-1.41 3,2.04 0.92,-0.96 1.3,0.44 0.58,-1.02 1.78,1.91 5.02,2.36 5.6,1.53 -1.45,0.56 -2.01,3.32 -2.47,6.42 -2.48,1.03 -0.58,1.6 -1.82,0.21 -0.33,2.21 -5.18,5.07 -1.62,3.57 0.25,4.34 -1.56,1.53 -1.49,5.98 0.51,4.19 -2.14,1.58 -1.11,4.98 -3.72,6.27 0,0 -2.4,-0.38 0.01,-1.42 -2.07,-0.65 0.29,-2.69 -6.7,-2.99 0.69,-1.2 -1.62,0.07 0.35,-0.78 -1.05,-1.41 -3.2,-0.33 0,0 -0.8,-1.83 -2.62,0.4 -1.7,-1.19 1.34,-1.57 -0.97,-1.29 1.38,-5.33 -1.18,-1.24 1.84,0.36 -0.66,-1 0,0 -1.6,0.07 z" 
                fill="rgb(151, 144, 238)" 
                stroke="white" 
                stroke-width=".7px"
                title="Bas-Rhin" 
                id="FR-67" 
            />
        </svg>