<svg xmlns="http://www.w3.org/2000/svg" viewBox="390.9140799999999 440.3515899999997 65.72000000000003 43.55000000000007" width="65.72000000000003" height="43.55000000000007">
            <path 
                d="m 412.05408,440.35159 4.44,0.44 4.48,2.2 3.09,2.89 0.86,2.32 5.26,2.9 2.13,-0.74 3.38,0.6 4.76,3.06 4.32,1.44 3.15,0.03 2.8,-1.93 1.95,-0.04 1.51,-1.73 0,0 2.45,1.95 -0.71,1.7 -4.04,0.93 -0.87,1.86 0.56,1.55 -1.49,0.58 2.86,1.31 -1.06,3.89 3.72,3.54 -1.6,1.09 -2.81,0.14 0.93,2.46 -1.38,2.12 2.32,0.07 1.49,2 -0.1,0.83 -3.23,1.82 -0.48,3.15 0,0 -2.03,-0.39 -0.74,1.51 -2.84,-3.09 -1.52,1 -1.86,-0.83 -4.13,0.18 -0.45,-0.85 1.26,-1.79 -1.22,-1.53 0.61,-1.64 -1.43,-2.56 -1.32,-0.23 -2.86,1.79 -7.27,0.19 -1.33,-0.97 -0.68,-3.19 -1.13,-0.23 -0.18,-1.32 -2.07,-0.39 -1.31,1.06 0.72,-0.91 -1,0.59 -0.86,-2.03 0.69,2.52 -2.19,-0.8 1.51,1.31 -0.93,-0.25 -0.35,0.65 0.89,0.37 -0.67,0.68 1.78,1.14 -0.74,1.54 -1,0.07 -2.57,-1.18 -8,-0.67 -1,-1.16 1.56,-1.31 -0.21,-1.04 -2.38,-1.71 -12.58,-0.46 0,0 0.44,-2.25 3.4,-1.65 -0.41,-1.55 0.83,1.11 5.32,-3.08 0.43,-1.32 -1.9,-0.66 2.47,-4.19 2.27,-0.57 3.65,1.24 -0.63,-2.29 1.61,-3.22 -0.35,-2.8 1.01,-0.81 -1.07,-1.25 4.07,-3.21 z" 
                fill="rgb(151, 144, 238)" 
                stroke="white" 
                stroke-width=".7px"
                title="Bouches-du-Rhône" 
                id="FR-13" 
            />
        </svg>