<svg xmlns="http://www.w3.org/2000/svg" viewBox="167.1340799999999 107.59159 66.70000000000013 43.03" width="66.70000000000013" height="43.03">
            <path 
                d="m 227.60408,107.59159 0.18,3.92 0.99,1.99 -1.22,1.53 1.16,1.23 -0.58,0.83 0.71,0.34 1.5,-1.21 0.87,0.74 0,1.35 -2.62,1.02 3.07,2.39 -0.39,3.58 2,0.81 -1.35,2.19 0.79,1.95 -1.03,-0.15 -1.14,1.58 3.29,2.1 -1.36,4.4 0,0 -1.58,-1.4 -1.65,1.86 -1.21,-0.81 -1.25,0.41 -0.01,-1.12 -1.3,0.4 -0.55,1.32 -1.43,-0.22 -1.82,1.18 -1.2,-1.7 -1.92,0.87 -1.03,2.23 -2.56,1.01 0.03,0.87 -0.86,-0.29 -1.71,2.31 -2.33,-0.5 -1,0.77 0.93,1.23 -2.69,-1.59 -4.76,-1.02 -0.99,0.11 -0.72,2.11 -1.15,-0.79 0.55,-0.83 -1.04,0.17 -0.94,-1.6 -1.47,0.09 0,0 0,0 0,0 -5.34,2.48 -3.05,0.18 0.11,-0.83 -2.06,-0.41 -0.49,0.61 0.92,0.95 -1.3,1.37 -2.62,0.79 -2.62,2.23 0,0 0.75,-1.23 -2.52,0.98 -2.84,-2.07 -0.87,1.04 -4.58,-0.33 -0.81,-2.34 -2.36,-0.76 2.55,-3.18 1.1,0.45 2.14,-2.26 -0.12,-1.31 -2.26,0.28 0.81,-2.23 2.42,0.51 2.22,-0.98 1.72,-2.92 1.8,-1.15 -1.28,-1.09 0.88,-1.32 -0.38,-3.09 -1.83,0.9 1.49,-1.72 -2.98,-2.07 1.38,-0.12 0.47,-1.71 1.13,-0.63 -1.6,-1.94 -1.99,2.59 -4.33,-2.73 -2.4,-2.31 0.66,-0.61 -0.81,-1.9 1.06,-0.99 -0.11,-1.14 0,0 -0.07,-1.01 1.81,-1.89 5.14,-0.44 5.37,2.53 17.75,1.52 7.17,3.22 9.15,-2.7 5.33,-4.86 6.56,-2 0,0 z" 
                fill="rgb(151, 144, 238)" 
                stroke="white" 
                stroke-width=".7px"
                title="Calvados" 
                id="FR-14" 
            />
        </svg>