<svg xmlns="http://www.w3.org/2000/svg" viewBox="300.83408000000003 349.77159 54.33999999999992 50.47999999999985" width="54.33999999999992" height="50.47999999999985">
            <path 
                d="m 319.40408,349.78159 1.46,-0.01 -0.29,1.31 1.19,-0.52 0.92,0.95 1.26,-1.22 0.26,1.52 2.66,0.38 -0.33,1.8 1.42,1.5 1.14,-0.68 1.76,0.52 1.18,-0.94 2.27,1.44 0.69,-0.44 1.6,0.9 1.08,3.52 2.13,1.08 2.15,-0.72 0.35,-1.69 2.15,-1.22 0,0 0.02,1.44 -0.92,0.17 0.98,0.86 -1.32,1.22 3.22,-0.35 0.18,1.56 2.43,-0.49 0.57,3.43 1.52,0.58 -0.5,1.47 0,0 0,0.58 0,0 1.16,3.11 2.97,0.99 -3.22,0.02 1.21,1.15 -0.54,3.01 0.58,0.8 1,-0.38 -0.41,0.92 1.79,0.31 -1.08,1.09 0.7,0.85 0,0 -3.14,2.58 -0.78,-0.91 -1.04,0.4 0.32,1.12 -1.08,0.42 0.52,1.26 -1.83,1.47 -2.06,-2.34 -1.61,0.96 -0.19,3.06 -1.1,-0.23 -1.06,2.11 -0.84,4.26 0.52,0.74 -0.91,0.12 -1.47,4.03 0,0 -1.87,-2.07 -0.07,-3.74 -0.97,-1 1.06,-0.74 -0.69,-1.14 -1.34,0.25 -1.19,-4.96 -2.27,-0.01 -1.33,1.09 0.06,-3.28 -1.55,-1.71 -5.49,5.58 -0.18,3.14 -2.1,2.25 0.43,1.94 -2.52,1.81 -0.65,2.23 -5.46,0.59 -1.07,-1.74 -1.31,0.12 -3.31,1.11 0.39,1.5 -0.71,0.38 0,0 -1.49,-1.16 -0.54,-3.42 -1.21,-0.06 1.74,-5.35 -3.34,-4.95 -0.26,-1.76 0.75,-0.98 -1.08,-0.81 -0.64,-2.42 0,0 1.4,-0.57 0,0 0.83,0.04 0,0 1.15,-0.96 -1.84,-3.43 1.84,-1.55 1.25,0.25 0.27,-3.22 2.23,-1.84 -1.35,-0.76 -0.28,-2.37 1.94,-1.59 1.18,-2.51 0.83,0.17 1.12,-1.96 1.81,-0.89 -0.22,-4.61 5.24,2.65 1.8,-0.7 -0.08,-1.18 -1.43,-1.02 z" 
                fill="rgb(151, 144, 238)" 
                stroke="white" 
                stroke-width=".7px"
                title="Cantal" 
                id="FR-15" 
            />
        </svg>