<svg xmlns="http://www.w3.org/2000/svg" viewBox="150.42408 296.71158999999994 65.03 75.95999999999987" width="65.03" height="75.95999999999987">
            <path 
                d="m 156.83408,316.03159 1.54,0.54 2.28,2.68 3.22,0.61 0.07,3.28 2.01,2.5 -0.83,2.26 0.53,1.18 -1.49,1.74 -1.58,-4.83 -4.89,-4.34 -0.86,-5.62 z m -4.29,-12.52 1.52,1.4 -1.65,-0.02 0.51,1.81 1.79,-1.42 1.87,-0.13 -1.1,1.29 3.5,0.17 2.62,1.1 0.79,1.68 0.91,-0.19 -2.4,1.19 -6.33,-3.54 -2.98,0.01 -1.17,-2.49 2.12,-0.86 z m 16.37,-3.54 1.7,-0.04 0.88,-1.95 3.28,-0.1 1.86,-1.17 -1.31,2.94 1.17,0.68 1.91,-0.96 1.55,0.55 0.39,-1.36 1.62,-0.14 -0.08,1.02 2.24,1.26 0,0 0.58,2.17 -0.72,1.35 2.64,1.66 -0.1,2.24 0.95,-0.27 0.68,1.09 1.97,0.53 -1.26,0.44 0.67,0.83 2.77,-0.54 1.65,0.91 0.3,1.5 2.68,0.58 0.85,-1.05 -0.05,1.25 0.85,0.55 1.23,-0.59 0.34,1.1 3.05,-0.71 1.32,2.1 1.91,0.49 0.83,-0.6 0.2,1.63 1.19,-0.66 -0.19,1.6 1.03,0.64 0.07,1.24 1.42,0.54 0,0 0.68,1.13 -0.45,1.31 -2.18,0.13 0.75,0.9 -0.55,1.03 1.38,1.32 -1.35,2.01 -0.44,3.44 -0.28,-0.76 -2.44,0.98 -0.63,-1.62 -2.14,-0.23 -0.81,1.21 -3.94,-0.01 -0.25,1.09 -1.71,0.13 -0.5,1.32 2.5,0.5 -0.78,0.64 -0.11,2.32 1.66,1.81 -1.07,-0.02 -0.95,1.8 1.81,-0.11 3.24,2.93 0.56,0.76 -1.08,1.73 2.87,0.8 -0.64,0.78 1.1,0.34 -1.86,2.72 0.81,0.05 1.33,2.62 -3.15,1.53 1.27,1.7 1.46,-0.29 -0.21,1.13 -1.15,-0.39 -0.28,2.32 1.12,0.64 1.56,-1.42 1,1.01 1.54,-0.04 0.58,1.08 1.42,-0.16 -0.21,2.46 3.13,0.06 1.81,1.13 0.05,2.16 0,0 -0.89,1.28 0,0 0.66,0.62 0,0 -1.47,1.13 -0.12,2.24 0,0 -2.31,-1.15 -2.01,1.86 -1.96,-0.28 -2.82,-1.2 -0.89,-1.63 -1.15,-0.36 -0.26,0.64 -1.52,-1.84 -1.37,1.53 -1.56,-3.79 0.61,-1.87 -0.82,-0.48 0.14,-1.69 -2.08,-1 -3.84,-0.15 -0.93,-2.95 -0.34,1.52 -4.97,-0.42 0,0 -1.41,-5.12 -2.92,-4.56 -3.94,-3.37 -1.94,-0.45 -2.58,-3.88 -0.71,0.33 -3.08,-1.75 -3.76,-2.95 -1.26,0.25 -0.06,-5.54 4.3,-1 -1.69,-3.2 2.22,0.04 0.79,-0.84 1.14,-3.32 -1.08,-1.12 0.99,-0.85 -1.26,-2.11 2.27,-0.46 -2.03,-5.5 -1.73,-0.69 0.59,-1.22 -1.87,-0.65 0.63,-1.06 -2.96,0.09 1.2,-3.45 3.9,-3.25 -0.39,-3.1 z" 
                fill="rgb(151, 144, 238)" 
                stroke="white" 
                stroke-width=".7px"
                title="Charente-Maritime" 
                id="FR-17" 
            />
        </svg>