<svg xmlns="http://www.w3.org/2000/svg" viewBox="196.11407999999997 310.5615900000001 58.20000000000002 56.12000000000023" width="58.20000000000002" height="56.12000000000023">
            <path 
                d="m 223.25408,313.20159 2.65,0.88 0.83,1.22 4.7,-0.49 1.52,1.2 2.25,-1.03 -0.07,-1.22 -1.25,-0.03 -0.23,-0.9 2.01,-2.09 1.97,2.97 2.34,0.88 0.95,-1.22 2.85,-0.2 -0.5,-0.93 1.57,-1.68 3.02,0.58 1.04,-0.57 0.57,0.67 0,0 -0.62,0.44 1.04,1.43 -0.85,2.73 1.82,1.91 1.08,-0.83 1.76,1.41 0.61,3.11 -3.37,2.38 -1.99,-0.89 0.6,2.93 -1.82,5.42 -2.94,-0.75 0.13,2.49 -2.54,1.3 -0.97,1.79 0,0 -2.69,4.53 -1.12,0.2 -0.35,-0.9 -0.79,0.73 -0.27,4.8 -2.3,1.64 -0.72,2.23 -2.12,0.01 -2.08,2.58 -1.17,-1.02 0.61,1.33 -1.7,0.57 -1.19,3.41 0.79,4.25 -1.85,0.41 -0.7,1.56 -1.22,0.17 -0.03,1.3 -1.65,1.92 -1.51,-1.25 -1.82,0.02 -2.09,2.08 0,0 -0.05,-2.15 -1.81,-1.13 -3.13,-0.06 0.21,-2.46 -1.42,0.16 -0.58,-1.08 -1.54,0.04 -1.01,-1 -1.55,1.41 -1.12,-0.63 0.28,-2.33 1.15,0.39 0.21,-1.13 -1.46,0.29 -1.27,-1.7 3.15,-1.52 -1.34,-2.63 -0.81,-0.05 1.86,-2.72 -1.11,-0.34 0.64,-0.78 -2.87,-0.8 1.09,-1.72 -0.56,-0.77 -3.24,-2.93 -1.81,0.11 0.95,-1.8 1.07,0.02 -1.66,-1.81 0.11,-2.32 0.79,-0.64 -2.5,-0.5 0.5,-1.32 1.72,-0.13 0.25,-1.09 3.93,0 0.81,-1.21 2.14,0.24 0.63,1.62 2.44,-0.99 0.28,0.76 0.43,-3.44 1.36,-2.01 -1.38,-1.32 0.55,-1.04 -0.75,-0.9 2.18,-0.12 0.45,-1.32 -0.67,-1.13 0,0 2.69,-1.37 -0.81,-0.41 1.52,-1.79 -0.65,-1.46 2.29,0.11 1.82,-1.19 0.14,-1.13 1.27,0.1 0.08,-0.96 1.57,0.05 1.37,1.4 z" 
                fill="rgb(151, 144, 238)" 
                stroke="white" 
                stroke-width=".7px"
                title="Charente" 
                id="FR-16" 
            />
        </svg>