<svg xmlns="http://www.w3.org/2000/svg" viewBox="288.9740800000001 220.35159000000002 54.12000000000012 73.42000000000004" width="54.12000000000012" height="73.42000000000004">
            <path 
                d="m 308.19408,220.89159 2.11,-0.54 3.42,2.67 2.73,-1.48 2.22,2.54 2.98,-0.23 2.23,1.9 -0.08,1.04 1.73,0.86 0.48,1.57 2.34,-0.62 0.3,-2.7 3.13,2.66 2.8,-1.58 0,0 2.34,5.07 -2.62,6.09 0.49,1.33 4.24,3.35 -0.14,2.03 2.17,6.53 -0.53,3.46 2.49,2.46 -0.58,2.97 0.65,1.16 -1.25,2.92 0.82,3.38 -1.57,3.44 0,0 -2.81,-0.57 -1.78,0.69 -2.95,2.86 -0.14,1.2 -1.98,-0.55 -1.56,1.08 -1.14,-1.84 -0.74,0.13 -0.59,1.61 -3.21,1.71 0.15,1.91 -0.95,-0.77 -1.45,0.75 1.07,1.19 -1.22,1.84 1.55,0.86 0.45,2.48 -3.24,2.06 -2.06,-0.81 -5.24,0.96 -1.56,2.77 -1.03,0.01 -0.74,3.03 0,0 -4.66,-0.28 0,0 -0.66,-2.03 2.18,-1.54 -1.93,-4.35 1.28,-5.24 -2.09,-1.32 0.65,-1.65 -2.8,-1.23 -0.81,-2.31 1.16,-0.22 0.9,-1.54 -3.07,-3.6 1.37,0.32 0.84,-1.24 -0.52,-0.81 1.81,-0.74 1.15,-1.87 -1.85,-0.1 -1.62,-1.23 1.5,-3.83 -3.29,-3.11 1.09,-1.48 -0.24,-2.14 -1.86,0.79 -0.38,-1.96 -2.96,1.49 -1.95,-0.01 -4.19,-1.66 2.81,-2.99 -0.1,-2.52 0,0 1.39,0.88 1.13,-0.47 0.9,-1.63 -1.17,-0.92 1.94,-2.05 3.44,1.68 2.12,-1.36 2.2,0.31 1.22,-1.2 -1.6,-2.06 -0.24,-2.26 -0.71,0.18 0.76,-3.37 0.96,0.85 2.1,-1.89 0.68,1.98 1.05,-0.11 0.71,-5.16 -2.09,0.29 0.75,-2.17 -0.69,-1.4 -2.91,-0.34 -0.36,-1.95 z" 
                fill="rgb(151, 144, 238)" 
                stroke="white" 
                stroke-width=".7px"
                title="Cher" 
                id="FR-18" 
            />
        </svg>