<svg xmlns="http://www.w3.org/2000/svg" viewBox="266.22408000000013 332.81158999999997 54.06999999999982 49.639999999999986" width="54.06999999999982" height="49.639999999999986">
            <path 
                d="m 294.04408,336.79159 1.13,-0.92 0.82,0.57 0.5,-1.24 1.41,0.26 0.46,-1.69 2.02,-0.96 1.43,2.13 1.96,-0.31 1.01,0.71 0.28,-0.86 1.78,1.25 -0.51,1 0.76,-0.78 0.52,0.99 1.85,0.23 0,0.81 0,0 -0.07,0.81 0,0 2.22,-0.27 1.12,-2.39 3.66,0.56 2.31,-2.28 0,0 1.33,1.67 -0.45,2.58 0.71,0.47 -0.41,1.06 -1.41,0 -1.03,2.65 1.16,2.08 1.18,0.39 -0.38,4.47 0,0 -0.88,3.51 1.43,1.02 0.08,1.18 -1.8,0.7 -5.24,-2.65 0.22,4.61 -1.81,0.89 -1.12,1.96 -0.83,-0.17 -1.18,2.51 -1.94,1.59 0.28,2.37 1.35,0.76 -2.23,1.84 -0.27,3.22 -1.25,-0.25 -1.84,1.55 1.84,3.43 -1.15,0.96 0,0 -0.83,-0.04 0,0 -1.4,0.57 0,0 -3.13,0.1 -1.57,1.28 -0.31,-1.21 -1.34,-0.27 -4.4,3.21 -2.14,-0.85 -0.02,-1.14 -1.8,-0.73 -2.5,-3.47 -2.95,-0.75 -1.23,0.68 -0.32,-1.02 -3.74,1.58 0,0 -2.91,-5.01 1.41,-1.16 -2.57,-0.94 -1.69,0.48 -2.32,-1.82 0,0 0.61,0 0,0 0.88,-1.46 -2.55,-0.92 2.1,-2.17 -0.11,-0.9 -2.01,-0.93 0.37,-2.87 1.2,-0.1 2.49,-3.42 -2.75,-0.99 -0.03,-1.28 0.83,0.41 0.63,-1.21 -1.67,-0.63 0,0 1.35,-2.74 2.66,1.36 2.39,-3.5 1.44,0.24 0.43,-1.86 1.05,-0.66 0.62,0.93 3.74,-0.39 0.53,-1.28 1.76,-0.19 2.99,-3.52 2.81,-1.06 0.35,-1.35 1.92,1.09 1.72,-0.13 0.32,-0.99 1.17,0.1 z" 
                fill="rgb(151, 144, 238)" 
                stroke="white" 
                stroke-width=".7px"
                title="Corrèze" 
                id="FR-19" 
            />
        </svg>