<svg xmlns="http://www.w3.org/2000/svg" viewBox="569.7940799999998 527.79159 35.93999999999994 56.28000000000043" width="35.93999999999994" height="56.28000000000043">
            <path 
                d="m 571.15408,527.79159 2.81,0.45 5.4,2.69 2.03,0.48 1.74,-0.78 -0.09,1.73 1.93,2.54 4.8,2.82 0.99,-0.22 1.08,4.32 2.21,1.39 0.25,2.83 1.26,1.64 2.52,-0.15 -0.26,4.77 0.64,0.51 -0.72,0.83 1.6,1.03 -0.83,2.76 3.51,0.96 2.43,-1.89 1.11,0.38 0,0 0.17,8.07 -1.4,1.92 0.68,1.22 -1.7,1.12 0.29,1.11 -1.93,-0.65 -0.89,2.92 1.32,-1.61 2.12,0.59 -1.07,1.95 -2.89,1.58 0.2,3.66 -2.3,1.2 -0.28,1.83 2.05,-0.85 -2.13,3.13 -4.98,-1.37 0.86,-2.59 -1.71,-0.1 -0.29,-1.3 -1.15,0.49 -0.9,-1.2 -4.06,-0.59 -1.83,-1.94 -1.39,0.36 0.1,-1.59 -2.41,-0.52 -0.07,-3.46 0.81,-1.29 0.61,0.67 2.2,-0.96 1.79,-2.26 -4.31,-1.47 -1.27,0.8 -0.28,-2.29 -2.82,1.09 -0.1,-0.98 -1.9,-0.07 2.98,-2 -0.77,-1.43 2.48,-0.52 0.53,-1.05 -0.86,-0.75 1.03,-0.35 0.61,-2.5 -2.28,-2.11 -1.21,1.4 -3.21,-0.12 -1.42,0.92 0.61,-2.12 -1.23,-1.86 3,-0.7 -0.19,-1.94 3.62,-2.07 -1.17,-0.77 -0.8,-2.73 -1.69,0.66 -1.96,-1.91 -1.3,0.37 0.38,-1.16 -1.35,0.18 1.49,-1.26 -1.35,-0.18 1,-0.42 -0.16,-1.49 -0.61,0.04 0.29,-1.3 -1.37,-0.52 6.35,-1.73 -1.38,-1.72 -2.3,-0.36 -0.27,-0.75 1.29,-1.16 -0.86,-0.56 -2.3,0.9 -0.34,-2.31 1.02,0.34 0.15,-0.67 z" 
                fill="rgb(151, 144, 238)" 
                stroke="white" 
                stroke-width=".7px"
                title="Corse-du-Sud" 
                id="FR-2A" 
            />
        </svg>