<svg xmlns="http://www.w3.org/2000/svg" viewBox="384.03408 195.58159 60.329999999999984 69.2399999999999" width="60.329999999999984" height="69.2399999999999">
            <path 
                d="m 386.21408,251.19159 -0.07,-1.31 3.01,-0.29 0,0 -0.45,2.27 -2.49,-0.67 z m 7.27,-49.07 0.9,-2.25 9.98,-0.41 -0.78,-2.39 2.03,-1.49 3.54,1.03 1.44,-0.43 0,0 1.36,1 2.31,-0.07 0.67,1.07 -1.02,1.62 2.53,0.11 0.82,1.25 -1.4,1.95 1.2,0.77 0.37,-1.32 1.4,-0.2 0.98,3.06 1.11,0.3 0.27,1.7 1.39,1.21 -0.19,0.99 -3.05,2.25 1.79,0.31 0.41,4.68 2.5,-1.5 0.03,1.12 1.32,-0.18 -0.3,1.66 1.08,-0.19 1.57,1.53 2.53,-2.08 -0.2,1.73 2.69,2.2 0.86,-0.36 -0.87,1.58 0.56,1.2 2.27,-2.01 1.3,-0.03 0.71,1.16 0.71,-0.87 0,0 0.93,0.64 1.37,-2.26 2.11,1.54 0.37,4.85 -2.08,2.24 -1.59,-0.5 -0.48,1.08 0.85,0.24 -1.71,0.78 0.51,0.83 1.13,-0.64 1.34,0.67 -0.27,3.54 2.77,0.2 -0.23,3.38 -1.03,1.06 2.07,0.79 0,0 -0.6,1.26 -0.68,-0.32 -0.34,4.32 -1.45,1.13 0.59,0.92 -0.84,2.5 -1.27,0.95 -0.96,2.73 -2.38,0.4 -1.83,1.62 -0.35,1.36 1.78,0.84 -2.58,2 0,0 -2.15,-0.31 -0.38,0.92 -3.09,0.43 -0.96,1.11 0.21,-0.79 -2.21,-1.46 -1.91,0.56 -0.22,0.83 -4.29,-0.5 -0.05,0.95 -4.3,1.14 -0.37,0.87 -2.43,-0.22 -1.44,1.32 -0.94,-0.93 0.59,-0.92 -2.71,-0.66 -1.97,-3.14 -0.8,0.05 0.29,-1.72 -1.92,0.46 -0.82,-1.26 -2.54,-0.25 -1.08,-0.92 0.62,-1.5 -0.57,-0.3 -1.99,1.17 -0.34,-2.31 -3.01,-0.4 -1.2,-2.4 -1.34,0.18 -0.1,-0.69 0,0 0.75,-3.25 -2.05,-2.79 -1.86,0.98 -0.8,-3.29 0.8,-0.86 -0.81,-0.13 1.2,-2.83 -1.52,0.93 0,0 0.01,-2.27 -1.09,0.06 0.41,-1.06 -1.04,-0.87 0.83,-0.81 -0.26,-1.17 0.81,0.59 1,-1.1 -0.33,-4.09 2.47,-2.26 0,0 0.48,-1.82 0,0 2.65,-4.81 -0.92,-1.15 2.34,-0.21 -1.88,-2.58 0.87,-1.1 1.34,0.53 1.72,-1.44 -0.12,-5.55 -2.48,0.5 -0.28,-2.13 -0.74,-0.02 2.72,-1.92 -0.77,-1.24 z" 
                fill="rgb(151, 144, 238)" 
                stroke="white" 
                stroke-width=".7px"
                title="Côte-d'Or" 
                id="FR-21" 
            />
        </svg>