<svg xmlns="http://www.w3.org/2000/svg" viewBox="63.36407699999997 143.34158999999997 72.63000299999999 52.1399999999999" width="72.63000299999999" height="52.1399999999999">
            <path 
                d="m 91.074077,143.57159 -0.83,1.71 -0.08,-1.33 0.91,-0.38 z m -9.69,-0.23 0.35,2.02 5.31,-1.91 -0.46,2.25 1.21,-0.18 -0.63,0.84 3.06,-0.19 0.32,1.47 -1.74,0.92 2.78,1.44 1.16,-0.61 0.76,0.88 -0.51,2.32 5.32,4.52 -0.2,3.35 4.490003,2.47 -0.08,2.28 1.26,1.32 0.14,-2.14 2.11,0.39 3.21,-4.6 3.36,-1.43 -0.62,-1.41 2.13,-0.48 0.79,1.27 4.14,-3.52 1.32,1.58 -2.09,2.71 0.96,0.63 2.93,-2.15 -0.51,0.53 1.87,3.06 -0.31,1.34 0.9,-2.83 0.7,2.17 1.19,-2.62 1.04,1.14 0,0 1.32,1.86 1.96,0.34 0.07,1.41 1.54,-1.56 0,0 1.46,1.45 -0.46,2.79 1.35,-2.44 0,0 0.88,-0.74 0.54,0.88 0.29,3.37 -1.74,2.43 0.98,5.94 -1.66,0.29 0.44,3.16 -0.7,-0.6 -2.02,1.28 -1.28,-1.03 -2.38,1.44 0.68,0.54 -0.48,0.89 -1.88,-0.61 -1.32,0.73 0.04,2.42 -1.89,-0.04 -0.29,4.16 -1.46,-0.43 -0.67,1.02 0,0 -2.57,0.53 -0.35,0.92 -2.77,-3.88 -4.61,1.01 0.88,1.5 -1.41,3.54 -4.49,2.74 -0.69,-1.92 0.96,-2.16 -0.43,-2.03 -1.8,1.11 -2.11,-0.23 -0.8,1.83 -1.270003,-3.59 -1.93,0.19 -1.67,-1.43 -2.13,-0.4 -2.38,0.68 -0.64,-2.33 -0.92,-0.37 -3.23,-0.19 -1.1,2.69 -2.15,-0.04 -0.91,1.4 -1.14,-0.56 -1.28,0.7 -0.73,-0.89 -1.47,0.24 -0.45,-1.28 -3.38,1.55 -0.87,-0.86 0.79,-0.84 -1.08,-0.91 -1.02,0.7 -3.96,-0.62 0,0 1.91,-0.26 -1.59,-2.1 1.61,-3.56 -1.43,-0.96 1.45,-1.25 -1.39,0.09 -0.15,-3.91 -2.07,-0.64 0.14,-1.98 2.12,-1.64 -2.31,-1.95 0.08,-1.13 2.73,-2.6 -1.37,-1.29 -0.98,0.22 0.27,-1.7 -2.17,-0.81 -0.74,-3.97 0,0 1.47,-1.72 0.88,1.08 1.42,-0.87 -0.65,-2.62 1.45,-1.35 -1.48,-0.71 0,-2.07 0.73,-0.33 -0.83,0.04 0.32,-0.75 1.03,0.92 0.81,-0.65 -0.25,-1.31 1.53,-1.04 -0.07,0.91 0.97,-0.79 0.98,1.37 1.29,-0.33 -0.53,1.43 1.77,-0.13 0.37,-0.97 2.87,-1.42 2.36,0.25 1.58,-2.08 z" 
                fill="rgb(151, 144, 238)" 
                stroke="white" 
                stroke-width=".7px"
                title="Côtes-d'Armor" 
                id="FR-22" 
            />
        </svg>