<svg xmlns="http://www.w3.org/2000/svg" viewBox="177.96408000000002 252.17158999999995 46.370000000000005 68.52999999999994" width="46.370000000000005" height="68.52999999999994">
            <path 
                d="m 178.23408,260.22159 1.64,0.36 0.39,-1.21 1.44,0.15 0.87,-1.1 3.02,1.3 1.48,-0.22 0.35,-0.95 2.96,0.38 2.3,-2.16 -0.53,-1.92 2.56,-1.18 1.45,0.12 -0.9,1.71 0.95,-0.94 2.11,0.13 0.45,-1.48 2.34,0.26 3.1,-1.15 2.54,0.7 0.84,-0.85 1.75,0.39 -1.37,2.12 1.07,-0.2 0.82,0.99 1.13,-0.62 0,0 1.05,3.36 -0.67,-0.25 0.28,1.64 1.27,-0.52 0.93,0.74 -0.51,1.32 1.51,3.22 -1.08,1.99 2.87,1.25 -0.77,1.19 -1.19,-0.8 -1.43,1.63 2.32,0.37 -1.41,1.64 0.16,1.17 2.5,2.15 -1.7,1 0.19,0.98 -0.98,0.37 0.56,0.62 -2.51,3.31 2.84,-0.88 -0.54,1.7 1.49,-0.02 0.01,1.19 0.79,0.19 -2.05,1.39 -0.2,1.06 0.83,0.57 -0.59,1.15 -0.98,-0.15 0.08,2.4 -0.72,0.14 0.16,0.83 1.34,0.1 -0.56,4.07 2.36,1.62 -0.83,1.19 0.99,0.49 -0.91,1.1 2.57,1.26 1.96,-2.6 2.18,1.13 -1.07,1.58 0.87,1.46 -1.76,0.7 0.6,2.26 -1.27,0.99 -0.22,1.6 1.31,0.29 1.35,1.79 1.92,-0.41 -1.08,3.78 0,0 -0.98,0.85 -1.37,-1.4 -1.57,-0.05 -0.08,0.96 -1.27,-0.1 -0.14,1.13 -1.82,1.19 -2.29,-0.11 0.65,1.46 -1.52,1.79 0.81,0.41 -2.69,1.37 0,0 -1.42,-0.54 -0.07,-1.24 -1.03,-0.64 0.19,-1.6 -1.19,0.65 -0.2,-1.63 -0.83,0.6 -1.91,-0.49 -1.33,-2.1 -3.05,0.71 -0.34,-1.1 -1.22,0.59 -0.85,-0.55 0.06,-1.24 -0.85,1.05 -2.68,-0.58 -0.31,-1.5 -1.65,-0.92 -2.77,0.55 -0.67,-0.83 1.27,-0.44 -1.97,-0.53 -0.68,-1.09 -0.94,0.27 0.1,-2.23 -2.64,-1.66 0.72,-1.35 -0.59,-2.17 0,0 1.3,0.09 0.85,-1.36 2.09,0.51 0.36,-1.28 1.4,-0.42 0.18,-0.88 1.74,0.02 0.81,-1.53 -2.77,-1.74 -0.61,1.35 -0.87,-0.38 0.16,-2.06 1.2,-1.39 -1.62,-3.93 1.6,-0.31 0.25,-1.38 -1.01,-1.62 0.54,-2.78 -1.84,-1.11 0.96,-1.4 -1.77,-1.38 0.97,-0.84 -2.95,-4.09 1.19,-2.51 -2.86,-1.49 -2.65,-3.03 0.95,-2.2 -2.14,-0.81 0.22,-0.82 -1,0.12 0.61,-0.98 -1.46,-0.19 z" 
                fill="rgb(151, 144, 238)" 
                stroke="white" 
                stroke-width=".7px"
                title="Deux-Sèvres" 
                id="FR-79" 
            />
        </svg>