<svg xmlns="http://www.w3.org/2000/svg" viewBox="213.6240800000001 336.11159 61.75999999999999 66.7299999999999" width="61.75999999999999" height="66.7299999999999">
            <path 
                d="m 241.41408,336.11159 0.96,1.29 2.81,-0.43 2.24,1.67 -0.97,2.94 0.99,1.59 1.25,-0.27 0.28,1.21 1.36,-0.49 0.99,-2.34 1.18,1.28 2.01,-0.86 3.01,0.29 2.8,4.71 1.26,-0.99 2.1,1.3 -1.89,2.95 1.73,-0.14 0.62,1.25 1.32,-0.37 1.12,0.51 -0.07,0.83 0.78,-0.21 0,0 1.67,0.63 -0.63,1.21 -0.83,-0.41 0.03,1.28 2.75,0.99 -2.49,3.42 -1.2,0.1 -0.37,2.87 2.01,0.93 0.11,0.9 -2.1,2.17 2.55,0.92 -0.88,1.46 0,0 -0.61,0 0,0 2.32,1.82 1.69,-0.48 2.57,0.94 -1.41,1.16 2.91,5.01 0,0 -1.58,0.81 0,0 0.18,0.78 0,0 1.17,4.49 -1.2,0.35 1.1,1.98 -3.19,1.96 0.18,1.9 -2.81,0.88 -0.04,1.17 1.04,0.65 -0.28,1.43 -0.69,-0.2 -0.5,1.59 -0.71,-0.36 -1.92,2.25 -3.13,0.8 0.16,2.03 -2.37,2.41 0.4,1.17 -1.16,-0.03 0,0 -0.18,-1.32 -2.45,-1.09 -1.36,-1.71 -4.3,1.66 -0.28,1.08 -1.52,-0.19 -0.66,-1.56 1.44,-2.43 -2.31,-1.87 -1.39,1.3 -3.26,0.15 -2.41,-1.78 -0.09,0.81 -1.53,-0.42 -1.49,1.95 -1.8,-0.72 -3.73,1.96 -2.59,-0.61 -0.31,-3.74 -2.13,-2.55 0,0 -1.44,-3.67 0.94,0.15 1.09,-1.3 -1.52,-1.25 -1.61,-0.29 0.16,0.9 -2.14,2.18 -1.81,-0.55 -1.52,0.61 -0.48,-0.84 -1.15,0.85 -2.02,-1.79 -2.33,-0.17 2.82,-3.62 -1.33,-1.94 2.95,-7.2 -1.17,-2.65 -2.17,-0.21 -1.33,1.01 0,0 0.12,-2.24 1.47,-1.12 0,0 -0.66,-0.63 0,0 0.89,-1.28 0,0 2.09,-2.08 1.82,-0.02 1.51,1.25 1.65,-1.92 0.03,-1.3 1.22,-0.17 0.7,-1.56 1.85,-0.41 -0.79,-4.25 1.19,-3.41 1.7,-0.57 -0.61,-1.33 1.17,1.02 2.08,-2.58 2.12,-0.01 0.72,-2.23 2.3,-1.64 0.27,-4.8 0.79,-0.73 0.35,0.9 1.12,-0.2 z" 
                fill="rgb(151, 144, 238)" 
                stroke="white" 
                stroke-width=".7px"
                title="Dordogne" 
                id="FR-24" 
            />
        </svg>