<svg xmlns="http://www.w3.org/2000/svg" viewBox="451.92408 223.32158999999996 56.23999999999984 62.17000000000007" width="56.23999999999984" height="62.17000000000007">
            <path 
                d="m 451.92408,242.60159 1.76,0.18 1.45,-1.78 2.79,-0.54 1.58,-1.31 0.64,0.67 0.24,-1.42 1.16,0.35 -0.16,-1.05 2.12,1.23 3.96,-1.59 0.45,-1.32 1.14,0.75 0.18,-2.18 2.15,0.43 1.04,-0.87 -1,-0.52 1.48,-1.17 1.45,1.11 -0.31,-1.06 0.95,0.35 0.34,-1.35 1.06,-0.04 0.52,-2.68 0.81,0.36 0.54,-1.3 2.29,0.06 0.89,-1.05 2.15,0.66 0.33,1.54 1.18,-1.49 2.35,1.27 1.12,-1.21 -0.66,-1.3 0.55,-0.83 1.23,0.87 1.58,-0.35 0.89,-1.29 -0.42,-1.41 4.48,2.62 1.6,-1.51 0,0 0.43,0.92 3.5,-0.14 0.32,1.49 1.46,0.74 0.18,1.71 -1.3,-0.81 -0.43,1.57 1.39,2.47 0,0 -0.11,1.66 -2.2,1.94 -0.23,1.3 5.7,-1.23 1.35,0.65 0.28,1.74 -1.88,0.56 -0.57,1.83 -2.22,0.46 0.51,2.72 -4.73,4.32 0.73,0.43 -0.83,0.96 -5.65,4.07 -0.46,0.9 1.14,0.99 -4.07,3.52 -5.17,1.13 -2.7,2.8 1.34,2.37 -1.38,4.64 0.89,2.25 -13.53,11.19 -0.66,0.77 1.15,1.14 0,0 -3.7,-3 2.34,-2.67 -1.46,-2.26 5.65,-4.53 -2.29,-3.48 -3.59,-2.33 -1.35,0.64 -0.23,-0.85 0,0 0.13,-0.68 0,0 -0.97,0.12 0.11,-1.36 -1.09,-0.74 0.54,-1.7 -1.61,-0.79 0.79,-1.63 -2.65,-0.73 0.43,-1.73 -1.09,1.27 -2.04,-0.42 -1.37,-0.92 -0.2,-1.77 -0.8,1.54 -1.19,0.58 -0.75,-0.59 0.4,-1.11 -0.72,-0.95 1.16,0.66 0.87,-0.68 -0.63,-2.38 2.41,-2.8 -1.73,-2.9 -1.98,-0.82 z" 
                fill="rgb(151, 144, 238)" 
                stroke="white" 
                stroke-width=".7px"
                title="Doubs" 
                id="FR-25" 
            />
        </svg>