<svg xmlns="http://www.w3.org/2000/svg" viewBox="408.3640800000001 357.75159 48.96000000000009 71.4799999999999" width="48.96000000000009" height="71.4799999999999">
            <path 
                d="m 414.61408,360.50159 2.41,-0.75 0.86,0.75 4.5,-2.75 0.87,0.11 0.54,1.41 1.29,-0.06 0.9,2.18 2.57,-0.9 -0.71,2.92 1.6,-0.43 1.77,2.18 -1.47,0.97 0.97,1.88 -0.15,2.86 -2.08,2.73 1.22,0.43 0.7,-1.09 1.2,0.07 2.41,1.7 2.99,-0.41 1.84,1.59 0.07,-1.39 1.14,0.74 1.98,-2.37 0.88,0.13 0.47,0.71 -0.8,0.07 -0.42,1.49 1.18,2.82 -1.21,9.96 0.81,0.22 -1.08,1.34 4.01,1.87 -0.25,-1.6 3.23,2.45 0.86,1.66 2.38,-0.28 2.19,1.94 1.73,-0.6 0,0 1.31,0.93 -1.7,2.15 -1.67,-0.5 -0.84,1.34 -3.63,-0.64 0.26,2.21 -2.11,3.94 2.76,2.46 -1.45,0.09 -1.1,2.02 -5.98,-1.97 0.27,2.98 1.36,0.72 -0.83,0.92 -1.6,-0.81 -0.82,0.5 1.03,1.93 -0.42,1.18 1.2,0.21 1.21,1.67 1.25,-0.72 1.1,1.19 3.38,-0.19 -0.88,1.58 1.19,0.32 0.44,1.95 1.64,0 -0.44,4.38 0,0 -1,0.1 -0.36,1.19 1.64,0.3 -0.17,0.99 -1.96,-0.24 0.35,-1 -1.25,-1.3 -1.31,0.13 -0.56,1.01 0.59,1.07 -3.33,2.09 0,0 -1.94,-0.27 -0.68,-1.8 -2.18,-0.2 0.08,-2.6 -1.23,-0.81 -0.83,0.66 -3.57,-1.65 -0.81,1.16 -3.09,-1.09 -0.33,-2.79 0.84,-2.1 -2.46,2.16 -1.33,-0.37 -0.69,-1.37 -5.72,2.76 -1.76,-0.06 -2.53,1.93 -1.26,-4.96 -5.73,-0.97 0,0 0.65,-5.64 1.44,-1.98 -0.29,-5.72 1.98,-1.66 1.64,-4.17 -0.8,-6.56 3.42,-4.13 0.43,-3.23 1.33,-2.24 -2.11,-4.11 1.04,-2.93 -1.27,-0.83 -1.1,-3.05 1.17,-1.92 -0.95,-0.64 -0.33,-7.55 z m 5.06,51.84 0,0 -0.09,-0.06 0,0 -0.48,0.7 0,0 -1.51,2.73 0.87,0.64 -0.22,1.98 4.05,0.68 1.51,-3.92 1.98,-0.93 0,0 0.01,-0.35 0,0 -2.32,-0.57 0.12,-1.33 -0.67,0.2 0,0 -0.58,-0.63 0,0 -0.43,-0.05 0,0 -0.77,0.2 0,0 -0.68,0.39 -0.79,0.32 z" 
                fill="rgb(151, 144, 238)" 
                stroke="white" 
                stroke-width=".7px"
                title="Drôme" 
                id="FR-26" 
            />
        </svg>