<svg xmlns="http://www.w3.org/2000/svg" viewBox="295.0440800000003 149.36159 27.509999999999707 30.480000000000018" width="27.509999999999707" height="30.480000000000018">
            <path 
                d="m 306.30408,149.78159 1.57,-0.42 1.66,0.76 0.52,1.6 0.91,-0.44 0,0 1.06,-0.39 1.6,0.66 0.14,1.14 1.72,0.11 4.17,-1.35 1.28,2.97 1.09,-0.01 0,0 0.53,0.9 -2.26,1.02 0.51,1.71 -1.2,0.3 1.26,1.67 -1.88,3.53 0.69,2.52 -0.49,4.73 1.8,1.75 -3.01,0.72 0.43,0.41 -2.27,1.32 0.6,0.3 -0.44,1.41 -1.71,-0.02 0.48,1.21 0,0 -1.88,0.49 -1.24,-1.55 -0.76,0.25 0,0 -0.46,1.06 0,0 -1.37,-0.22 -0.9,1.04 0.02,-2.08 -1.77,-0.76 -0.9,2.04 -1.23,-0.29 0.49,1.09 -2.44,-0.52 -2.65,1.4 -1.95,-0.13 0,0 -1.5,-1.46 0.91,-0.47 -0.09,-5.2 -2.06,-0.28 0.6,-2.2 -0.84,-1.04 0,0 0.99,-3.7 1.35,-0.54 -1.78,-2.15 3.4,0.19 0.63,-3.04 1.22,-0.63 -2.12,-2.73 0.73,0.2 0.66,-1.92 1.48,0.18 0.67,-0.8 0.25,-2.57 z" 
                fill="rgb(151, 144, 238)" 
                stroke="white" 
                stroke-width=".7px"
                title="Essonne" 
                id="FR-91" 
            />
        </svg>