<svg xmlns="http://www.w3.org/2000/svg" viewBox="246.61407999999994 138.79159 51.409999999999854 61.529999999999944" width="51.409999999999854" height="61.529999999999944">
            <path 
                d="m 277.59408,138.79159 2.57,3.15 -0.72,1.27 1.61,0.65 -0.32,0.96 0.89,0.33 -0.79,0.54 0.09,4.39 1.88,0.9 -2.07,2.76 1.46,0.88 -0.33,1.68 1.58,0.76 0.98,2.24 2.03,-0.02 -0.25,2.34 2,0.17 1.24,1.3 -0.47,2.52 1.07,2.91 1.42,-0.03 0.32,1.28 1.09,0.39 1.55,0.02 0.62,-1.12 0,0 0.84,1.04 -0.6,2.2 2.06,0.28 0.09,5.2 -0.91,0.47 1.5,1.46 0,0 -1.33,2.53 0.72,2.63 -0.33,0.75 -0.26,-0.66 -0.66,0.44 0.95,1.34 -2.02,-0.03 -0.82,0.86 0.65,0.85 -1.51,3 -2.24,1.16 -1.11,-0.68 -0.19,0.82 -2.19,0.83 -2.33,-0.87 -0.76,0.91 -0.45,-0.85 -1.44,0.41 -0.17,1.72 -0.87,-0.09 -0.2,0.82 -2.03,-0.83 0.11,0.88 -1.51,0.17 0.38,2.78 0,0 -2.95,-1.53 -0.54,1.89 -2.07,-0.32 -0.71,1.68 -4.34,-0.45 -0.78,-1.07 -2.08,0.68 -1.29,-3.73 -1.73,-0.42 -0.45,-2.9 -1.58,0.44 -0.44,-0.77 -2.96,-0.23 2.24,-1.71 -0.26,-0.87 -1.6,0.13 -2.18,1.97 -0.31,-0.89 -4.21,0.57 0,0 0.41,-1.83 2.69,-0.34 -4.9,-3.44 0,0 1.35,-1.2 -1.75,-2.94 0.75,-1.75 -2.11,-0.66 0.61,-1.42 0.73,-1.17 5.25,-1.97 2.57,-4.22 -1.49,-0.99 -0.17,-1.27 0.81,-0.36 -0.55,-1.11 1.01,-1.47 -1.75,-0.83 0.63,-0.79 -0.56,-0.67 -3.09,-1.39 -0.18,-1.7 -1.17,-0.15 0.54,-1.36 -0.68,-2.27 0,0 2,-1.11 0.53,-1.74 1.9,0.4 2.66,-1.03 0,0 1.18,0 0,0 2.02,-2.06 2.14,0.76 0.28,-2.71 4.19,1.97 0.88,-0.76 0.56,0.8 2.99,-0.15 1.79,-1.34 -0.43,-3.35 4.08,-2.36 0.46,-1.57 -0.97,-1.68 z" 
                fill="rgb(151, 144, 238)" 
                stroke="white" 
                stroke-width=".7px"
                title="Eure-et-Loir" 
                id="FR-28" 
            />
        </svg>