<svg xmlns="http://www.w3.org/2000/svg" viewBox="227.55408000000006 104.26159 62.59999999999991 51.55" width="62.59999999999991" height="51.55">
            <path 
                d="m 227.60408,107.59159 3.59,-0.74 4.82,-2.59 3.57,3.42 2.32,-0.81 -0.56,1.44 0.98,0 0.41,1.23 4.31,-1.07 0.81,0.57 0.68,-1.12 0.79,1.97 2.36,-0.01 0.06,1.56 1.61,-0.82 0.07,2.95 -2.46,-0.53 -0.64,1.45 2.25,0.51 0.15,1.16 1.55,-1.56 0.99,1.73 -0.33,1.53 0.7,-0.61 1.42,1.89 2.34,-0.48 -0.61,-2.54 3.63,-0.7 0.98,-2.04 1.85,0.36 -0.17,-1.2 3.08,0.56 1.51,-5.27 1.12,0.05 0.32,-1.28 1.75,-0.93 -0.1,0.91 3.86,-0.18 2.5,1.38 1.56,-0.59 1.22,1.75 2.1,0.8 1.02,-0.47 0.58,0.76 0.83,-0.81 0,0 1.07,0.11 -0.76,0.78 1.64,1.74 0.47,4.74 1.05,0.11 0.26,0.98 -0.62,1.81 -1.29,-1.67 -2.02,0.49 -0.24,2.09 0,0 -1.23,1.29 -0.69,5.04 -2.03,3.42 0,0 -3.56,0.59 -0.53,-1.11 -0.88,2.2 -1.07,-0.84 -0.6,0.66 1.26,2.49 -0.34,2.41 2.02,-0.17 -1.1,0.72 0.36,1.69 0,0 0,0 0,0 -2.21,1.05 0.97,1.68 -0.46,1.57 -4.08,2.36 0.43,3.35 -1.79,1.34 -2.99,0.15 -0.56,-0.8 -0.88,0.76 -4.19,-1.97 -0.28,2.71 -2.14,-0.76 -2.02,2.06 0,0 -1.18,0 0,0 -2.66,1.03 -1.9,-0.4 -0.53,1.74 -2,1.11 0,0 -1.86,0.04 -0.07,-1.62 -1.73,-0.73 1.91,-1.93 -0.66,-1.87 -6.12,-4.07 1.12,-1.41 -1.09,-0.02 0.22,-1.44 -1.08,0.36 -0.37,-1.32 -1.24,1.17 -5.33,-0.77 -1.6,-1.61 1.25,-2.37 0,0 1.36,-4.4 -3.29,-2.1 1.14,-1.58 1.03,0.15 -0.79,-1.95 1.35,-2.19 -2,-0.81 0.39,-3.58 -3.07,-2.39 2.62,-1.02 0,-1.35 -0.87,-0.74 -1.5,1.21 -0.71,-0.34 0.58,-0.83 -1.16,-1.23 1.22,-1.53 -0.99,-1.99 z" 
                fill="rgb(151, 144, 238)" 
                stroke="white" 
                stroke-width=".7px"
                title="Eure" 
                id="FR-27" 
            />
        </svg>