<svg xmlns="http://www.w3.org/2000/svg" viewBox="0.1540770700000007 150.50159 74.49999993000002 61.630000000000024" width="74.49999993000002" height="61.630000000000024">
            <path 
                d="m 2.9140771,168.75159 1.57,1.49 -2.76,1.41 -0.72,-0.11 0.88,-1.1 -1.73000003,0.47 2.76000003,-2.16 z m 46.9999999,-16.42 0.76,0.16 -0.2,2.77 1.12,0.83 0.79,-0.41 -0.1,-1.72 0.59,1.8 2.32,-0.25 0.37,0.85 -0.37,-1.82 0.98,-1.57 0.45,0.86 -0.1,-1.16 1.56,1.18 2.62,-0.33 0.97,1.05 2.28,-0.43 -0.61,2.33 0,0 0.74,3.97 2.17,0.81 -0.27,1.7 0.98,-0.22 1.37,1.29 -2.73,2.6 -0.08,1.13 2.31,1.95 -2.12,1.64 -0.12,1.99 2.06,0.63 0.15,3.91 1.39,-0.09 -1.45,1.25 1.43,0.96 -1.61,3.56 1.59,2.1 -1.91,0.26 0,0 -6.21,2.77 -0.83,1.91 0.07,0.96 1.55,0.12 -0.55,1.66 1.45,0.5 1.44,4.62 4.48,-0.25 1.69,0.85 0.96,1.82 2.1,-1.75 1.04,0.99 0.22,1.98 -1.35,1.29 0.85,2.6 -2.06,-0.04 -0.36,1.67 -1.38,0.8 -1.56,-1.35 -0.25,5.07 0,0 -6.17,-0.86 -1.85,-1.73 -1.43,0.9 -3.85,-0.02 -2.68,-4.06 0.48,-0.48 -1.98,-1.88 -1.4,0.7 0.6,1.78 -2.74,0.61 -2.7,-1.66 -1.69,0.91 -1.86,3.72 -7.31,0.01 -0.54,-1.5 1.23,-0.5 0.12,-1.42 -3.03,-6.84 -3.94,-2.7 -1.36,-0.34 -0.67,0.73 -2.79,-1.78 -2.69,0.17 -1.64,-0.81 1.25,-0.28 -0.32,-1.3 6.73,-0.72 0.69,-0.87 2.06,0.21 2.89,-1.25 2.24,-0.15 2.38,1.25 0.66,-0.71 0.67,-3.32 -0.94,-0.32 -0.82,-2.77 -7.18,-1.99 -2.13,4.12 -0.78,-0.04 0.27,-2.45 -0.83,-1.53 1.2,-0.91 -3.16,-0.93 -0.37,-0.97 2.43,-0.16 -0.07,-3.02 1.63,-0.64 -1.02,2.37 0.85,1.16 0.7,-0.72 0.66,0.92 3.48,-0.83 0.85,1.21 3.78,-1.44 1.48,0.11 0.44,1 1.62,-2.09 -1.13,0.7 -3.67,-0.78 1.45,-1.07 -1.1,-1.43 -1.59,0.63 -0.28,1.1 -1.77,0.16 0.39,-0.9 -2.1,0.78 2.41,-3.53 -0.98,-0.78 -0.53,0.89 -1.97,-0.05 -5.13,2.74 -3.06,-1.06 -1.1,1.49 -2.71,0.13 -0.63,-2.31 1.1,-0.75 -1.4,-2.18 1.42,-3.36 -0.64,-2.96 1.03,-1.8 1.66,-0.64 0.33,-1.01 3.87,-0.41 0.27,-1.63 1.67,0.29 -0.22,-1.41 1.14,-0.23 -0.02,-0.81 2.69,0.83 1.54,-1.11 1.41,0.18 -1.25,-1 3.79,-1.42 2.04,0.79 -0.66,1.44 0.67,0.5 0.9,-0.98 3.13,-0.2 -0.99,-0.38 1.5,-1.77 3.59,-0.53 1.69,1.2 0.25,-1.86 2.91,-1.19 z m -1.52,-1.83 1.25,0.92 -1.94,-0.14 0.69,-0.78 z" 
                fill="rgb(151, 144, 238)" 
                stroke="white" 
                stroke-width=".7px"
                title="Finistère" 
                id="FR-29" 
            />
        </svg>