<svg xmlns="http://www.w3.org/2000/svg" viewBox="350.66408 409.37159 65.70999999999998 57.49000000000012" width="65.70999999999998" height="57.49000000000012">
            <path 
                d="m 381.26408,409.37159 1.64,0.8 -0.07,1.53 1.36,0.82 -1.18,0.81 0.73,1.6 -0.9,2 0.65,0.69 3.23,-1.12 0.54,1.35 1.48,-0.28 3.27,3.06 1.3,-1.58 -0.03,-1.32 1.6,-1.34 2.73,-0.47 0.15,3.24 1.76,0.42 0.63,-3.19 2.16,-0.31 0.28,0.87 1.53,0.19 0.4,1.34 3.77,1.83 0,0 0.98,3.18 1.42,0.07 0.59,1.55 -0.68,4.58 0.64,1.52 2.74,0.91 2.39,3.37 -0.12,1.26 -1.19,-0.09 0.07,1.37 -3.05,2.32 0,0 -4.11,3.22 1.07,1.25 -1.01,0.81 0.35,2.8 -1.61,3.22 0.63,2.29 -3.65,-1.24 -2.27,0.57 -2.47,4.19 1.9,0.66 -0.43,1.32 -5.32,3.08 -0.83,-1.11 0.41,1.55 -3.4,1.65 -0.44,2.25 0,0 -3.79,-1.3 -0.71,-2.13 0.71,-0.67 -1.65,-1.3 0,0 0.37,-0.74 -1.14,-1.31 2.92,0.27 1.78,-3.22 -2.09,-5.43 -3.74,-2.02 -1.93,-2.54 -1.76,0.73 0.62,-2.26 -2.25,-0.85 -0.37,-1.76 -2.71,1.17 -1.96,-0.65 0.98,-3.28 -1.38,-0.43 -0.29,-1.32 -2.28,-0.29 -1.99,1.09 -0.53,2.52 -1.98,-0.45 -1.9,2.64 0.9,1.06 -0.88,0.53 -2.1,-0.64 -0.64,-2.41 -3.36,1.93 -0.46,-0.53 0.87,-0.88 -0.73,-1.39 -2.73,-0.13 0,0 -0.05,-2.03 2.01,-1.18 1.78,-3.08 -2.54,-1.97 -1.55,0.47 -1,-1.68 -1.38,0.63 -1.31,-1.44 2.47,-0.87 0.54,-2.89 1.57,-0.72 0,0 3,2.33 4.08,0.91 3.73,-0.42 0.86,-1.42 -1.04,-0.44 0.41,-1.34 1.39,-0.57 5.21,3.41 1.4,-0.58 1.85,0.65 2.17,-2.04 -0.15,-1.22 2.1,1.15 -0.71,-1.78 -0.83,-0.1 0.44,-2.78 1.15,-0.83 -1.71,-1.02 -0.44,-1.71 1.21,-1.54 -2.76,-3.22 1.3,-1.03 1.34,0.3 2.02,-3.45 z" 
                fill="rgb(151, 144, 238)" 
                stroke="white" 
                stroke-width=".7px"
                title="Gard" 
                id="FR-30" 
            />
        </svg>