<svg xmlns="http://www.w3.org/2000/svg" viewBox="203.56408 431.26159 61.50999999999999 44.10000000000008" width="61.50999999999999" height="44.10000000000008">
            <path 
                d="m 218.40408,436.89159 2.26,-1.07 1.1,1.65 2.4,-2.87 3.58,1.84 0.59,-1.08 2.75,0.17 2.56,-1.3 0.78,-1.57 3.94,0.05 1.53,-1.45 2.94,3.22 3.25,-2.38 0,0 0.96,2.05 2.35,-1.47 1.35,0.46 -0.46,1.35 -1.23,-0.07 0.51,1.7 -2.79,3.48 0.49,0.81 3.81,-0.07 1.7,1.43 -0.92,1.29 1.22,1.31 -0.69,0.76 1.26,0.56 -1.24,2.21 2.44,0.22 0,0 1.52,2.77 3.16,2.2 -0.72,1.49 2.2,0.83 -0.6,0.88 2.25,0.18 0.73,2.09 1,-0.45 0.69,2.48 -3.61,0.7 -0.52,1.37 -0.51,-0.77 -1.57,0.36 1.07,0.76 -1.07,0.62 0.92,0.66 -2.32,1.83 1.16,0.8 -1.11,1.6 0.49,0.71 -1.54,0.48 0.52,1.72 -0.73,0.81 -2.94,-2.37 -4.03,-0.6 -0.55,0.99 -1.69,-0.97 -1.3,2.63 -0.83,-0.56 -2.03,3.3 -2.4,0.7 0,0 -6.79,-1.72 -0.09,0.71 -1.28,-0.05 -0.91,-1.55 -2.39,0.74 -0.29,-1.81 -0.67,0.43 -0.49,-1.18 -4.75,1.04 -0.36,-1.85 -0.86,0.22 -0.87,-1.41 1.34,-1.2 -1.95,-4.02 -2.67,-0.18 -2.29,-2.7 -0.49,-2.29 -2.46,-0.05 -0.95,1.38 0,0 -2.66,0.09 -0.69,-0.9 -2.72,0.65 0,0 -0.19,-1.76 -1.27,-0.04 -0.17,-1.5 0.8,0.36 -0.02,-0.91 0.88,-0.14 -0.32,-3.01 2.29,-1.72 -0.99,-0.75 -0.33,-3.31 1.37,-0.1 -0.62,-2.74 0.93,-0.41 -0.19,-0.97 -2.03,-0.9 2.49,-2.4 0.83,0.66 1.38,-0.89 1.26,0.85 0.09,-1.12 2,-0.75 0.38,-1.33 1.79,1.74 -1.16,1.43 3.32,1.89 0.71,-1.19 -0.88,-2.45 z" 
                fill="rgb(151, 144, 238)" 
                stroke="white" 
                stroke-width=".7px"
                title="Gers" 
                id="FR-32" 
            />
        </svg>