<svg xmlns="http://www.w3.org/2000/svg" viewBox="162.8540799999999 344.17159000000004 65.41000000000014 80.67000000000002" width="65.41000000000014" height="80.67000000000002">
            <path 
                d="m 171.17408,344.92159 0.89,1.47 -0.8,0.05 -0.32,1.4 5.59,4.22 5.31,5.54 4.79,15.18 3.9,4.58 0.51,-0.37 -3.56,-6.7 -1.94,-11.61 0,0 4.97,0.42 0.34,-1.52 0.93,2.95 3.84,0.15 2.08,1 -0.14,1.69 0.82,0.48 -0.61,1.87 1.56,3.79 1.37,-1.53 1.52,1.84 0.26,-0.64 1.15,0.36 0.89,1.63 2.82,1.2 1.96,0.28 2.01,-1.86 2.31,1.15 0,0 1.32,-1.01 2.17,0.21 1.17,2.64 -2.95,7.2 1.33,1.94 -2.82,3.62 2.33,0.18 2.02,1.79 1.15,-0.85 0.49,0.84 1.52,-0.61 1.8,0.55 2.14,-2.18 -0.15,-0.89 1.6,0.29 1.52,1.24 -1.09,1.31 -0.94,-0.15 1.44,3.67 0,0 -1.68,0.72 -1.24,-0.86 -0.37,2.39 -0.71,0.13 -0.56,-1.75 -0.52,1.06 -1.4,-0.15 -0.29,1.82 -0.61,-0.48 -0.8,0.69 1.5,2.03 2.01,0.29 -0.84,1.66 -1.03,-0.32 0.5,1.64 -2.87,1.49 -0.51,2.01 -2.81,-0.07 0.78,1.17 -1.46,1.65 0.11,2.44 0.89,0.65 -1,1.76 1.62,2.46 -4.26,1.23 -0.27,0.96 2.05,2.41 0.09,1.42 -2.22,2.06 -1.48,-0.26 -0.77,0.81 0,0 -2.12,-2.66 -1.46,0.49 0.04,3.48 -1.94,0.74 -4.99,-0.89 0.23,-4.61 -1.97,-0.82 -0.05,-1.21 -3.5,-0.94 -0.38,-1.39 -4.77,-2.22 0.66,-0.82 -0.71,-2.05 -5.57,0.63 -1.35,1.16 -4.58,-1.37 -4.51,1.22 1.94,-3.38 -0.21,-1.55 -1.64,0.05 -2.39,-1.47 -0.93,1.74 -6.14,2.02 0,0 -0.11,-4.44 2.7,-6.77 2,0.21 0.12,0.89 5.67,0.33 -0.83,-2.51 -1.89,-0.97 1.48,-0.02 -5.54,-4.62 -0.26,1.77 -2.27,2.55 -0.77,5.03 -0.63,-1.04 4.13,-38.94 0.22,-10.45 2.59,-4.77 1.39,-1.02 -0.01,0.75 z" 
                fill="rgb(151, 144, 238)" 
                stroke="white" 
                stroke-width=".7px"
                title="Gironde" 
                id="FR-33" 
            />
        </svg>