<svg xmlns="http://www.w3.org/2000/svg" viewBox="499.0440800000002 178.23159 32.670000000000016 54.85000000000002" width="32.670000000000016" height="54.85000000000002">
            <path 
                d="m 514.12408,178.23159 3.2,0.33 1.05,1.41 -0.35,0.78 1.62,-0.07 -0.69,1.2 6.7,2.99 -0.29,2.69 2.07,0.65 -0.01,1.42 2.4,0.38 0,0 -0.3,5.37 2.19,3.85 -2.73,5.74 0.23,2.34 -1.35,3.82 0.76,2.8 -1.51,2.24 0.48,2.22 2.83,3.49 -0.27,1.31 -3.57,2.67 1.31,0.71 -1.75,2.78 -2.37,-0.79 -0.44,0.91 1.44,0.57 -2.87,2.38 -2.4,-0.56 -3.54,1.22 -0.46,-1.1 -2.58,-0.28 1.32,-3.07 -2.88,-0.55 0,0 0.44,-1.33 -2.37,-4.18 -1.86,-0.47 -0.86,0.73 -0.63,-0.83 0.24,-2.26 1.44,-2.01 -0.8,-1.76 0.41,-1.38 -4.01,-2.96 -3.07,-0.71 -1.25,-2.43 0,0 3.46,-1.71 -0.96,-2.53 1.36,-1.17 -0.72,-0.59 1.33,-4.97 2.35,-1.35 3.18,-5.46 0.32,-1.28 -1.04,-0.94 4.69,-9.48 z" 
                fill="rgb(151, 144, 238)" 
                stroke="white" 
                stroke-width=".7px"
                title="Haut-Rhin" 
                id="FR-68" 
            />
        </svg>