<svg xmlns="http://www.w3.org/2000/svg" viewBox="571.1940800000002 492.34159 40.93999999999971 66.06000000000006" width="40.93999999999971" height="66.06000000000006">
            <path 
                d="m 606.45408,492.34159 1.68,1.41 1.22,10.22 -1.96,7.41 3.6,7.06 -0.02,9.96 1.16,4.93 -0.05,4.86 -0.37,5.08 -5.72,8.4 -0.39,5.22 0,0 -1.11,-0.38 -2.43,1.89 -3.51,-0.96 0.83,-2.76 -1.6,-1.03 0.72,-0.83 -0.64,-0.51 0.26,-4.77 -2.52,0.15 -1.26,-1.64 -0.25,-2.83 -2.21,-1.39 -1.08,-4.32 -0.99,0.22 -4.8,-2.82 -1.93,-2.54 0.09,-1.73 -1.74,0.78 -2.03,-0.48 -5.4,-2.69 -2.81,-0.45 0,0 1.48,-0.3 -0.14,-1.67 2.12,-0.04 -0.34,-1.42 1.31,-1.49 -1.2,-0.25 0.65,-2.38 2.23,-0.54 -0.45,-2.89 0.61,-0.17 0.15,1.03 2.46,0.19 0.63,-2.49 2.69,-0.33 0.49,-1.17 1.82,-0.59 3.84,-0.08 1.8,-1.01 -0.07,-1.86 2.82,-2.22 4.03,-0.21 3.19,3.3 1.91,-3.34 -0.1,-3.32 -1.37,-2.15 1.28,-1.84 -0.76,-1.93 1.51,-1.44 -0.76,-3.87 3.43,-0.98 z" 
                fill="rgb(151, 144, 238)" 
                stroke="white" 
                stroke-width=".7px"
                title="Haute-Corse" 
                id="FR-2B" 
            />
        </svg>