<svg xmlns="http://www.w3.org/2000/svg" viewBox="233.53408000000022 440.3715900000001 66.72999999999988 70.00000000000006" width="66.72999999999988" height="70.00000000000006">
            <path 
                d="m 254.84408,448.12159 4.3,-0.61 1.1,-0.99 1.1,1.12 1.66,-1.51 1.25,1.55 1.49,0.13 -0.1,1.46 2.49,-1 -0.27,-0.77 3.79,-1.07 -0.14,-1.08 -2.5,-0.55 2.65,-0.34 -0.45,-1.03 0.71,-1.15 3.5,1.09 1.15,-2.18 0.61,1.23 1.69,-2.05 0.93,0.2 0,0 0.02,2.92 1.57,1.41 -0.18,1.54 2.3,0.95 0.25,2.88 2.33,1.92 -1.87,0.66 0.11,0.65 2.39,0.29 0.38,1.76 -1.27,0.49 -0.43,1.31 6.22,2.77 0.47,1.64 2.68,2.73 3.1,1.34 1.09,-0.56 -0.08,-1.2 0.93,0.52 0.13,-0.71 0.32,1.49 -1.42,2.05 0.67,0.82 0,0 0.37,0.65 -2.08,0.88 -1.4,-1 -1.54,0.31 -0.6,1.55 -2.11,-2.79 -0.46,1.56 -1.01,0.25 0.39,0.85 -1.03,0.19 0.5,2.92 -3.77,-0.04 0.54,1.58 -1.19,0.52 -0.74,1.8 0,0 -0.68,-0.43 -1.52,2.52 0.04,-1.1 -2.74,-1.07 -0.27,1.2 -0.71,-1.38 -1.17,0.48 -0.08,-1.22 -0.85,-0.09 0.46,4.05 -0.95,-0.29 -0.76,1.02 -2.08,-1 0.57,-1.59 -2.21,-1.98 -0.18,-1.25 -1.66,-0.32 -1.66,1.56 0.06,1.29 3.34,1.21 0.12,1.6 -2.38,1.51 -3.61,0.09 -0.81,1.47 2.47,0.82 1.18,1.48 -1.69,0.72 0.04,1.01 -1.58,0.31 -1.37,-2.58 -2.8,-1.32 -1.46,1.21 -1.45,-0.71 -0.62,2.61 -1.56,-0.82 -0.43,1.25 0.67,0.57 -1.14,0.57 0.32,2.6 1.51,0.9 -1.92,2.08 -4.24,0.89 0.4,1.44 -2.44,1 1.32,5.14 0,0 -6.21,-2.15 -1.28,0.37 -0.79,0.94 0.45,1.99 -1.03,1.12 0.9,0.46 -0.8,1.29 1.34,1.62 -0.17,1.81 -3.25,-0.82 -3.33,0.79 -1.72,-0.46 0,0 0.35,-0.58 -1.47,-1.31 1.19,-8.14 3.53,0.96 1.58,-3.79 1.92,-1.85 -1.34,-1.21 0.57,-0.92 -0.82,-2.02 -3.3,1.67 0.39,-2.07 1.12,0.34 0.05,-2.25 -2.67,-1.18 -0.48,-1.09 -1.49,0.25 0.35,-0.63 -0.92,-0.51 3.37,-3.47 -0.18,-1.19 2.32,-0.43 -0.92,-0.91 3.5,-3.37 -1.14,-0.82 0,0 2.4,-0.7 2.03,-3.3 0.83,0.56 1.3,-2.63 1.69,0.97 0.55,-0.99 4.03,0.6 2.94,2.37 0.73,-0.81 -0.52,-1.72 1.54,-0.48 -0.49,-0.71 1.11,-1.6 -1.16,-0.8 2.32,-1.83 -0.92,-0.66 1.07,-0.62 -1.07,-0.76 1.57,-0.36 0.51,0.77 0.52,-1.37 3.61,-0.7 -0.69,-2.48 -1,0.45 -0.73,-2.09 -2.25,-0.18 0.6,-0.88 -2.2,-0.83 0.72,-1.49 -3.16,-2.2 z" 
                fill="rgb(151, 144, 238)" 
                stroke="white" 
                stroke-width=".7px"
                title="Haute-Garonne" 
                id="FR-31" 
            />
        </svg>