<svg xmlns="http://www.w3.org/2000/svg" viewBox="438.07408000000004 196.01159 60.44999999999993 47.329999999999984" width="60.44999999999993" height="47.329999999999984">
            <path 
                d="m 459.57408,202.06159 2.01,-3.18 1.13,0.57 -1.34,1.86 0.9,0.14 0.89,-1.32 1.32,0.05 1.54,-2.91 3.8,-1.26 1.01,1.05 0.35,1.92 -0.64,0.58 2.44,1.18 -0.14,0.95 3.45,-1.46 4.23,-0.31 1.91,1.17 1.78,3.47 2.71,-1.09 0.84,-1.82 1.64,-0.82 1.78,2.6 5.8,3.3 1.54,2.2 0,0 -2.71,4.14 1.77,6.77 -0.91,1.42 1.75,2.48 -0.6,0.69 0,0 -1.6,1.51 -4.48,-2.62 0.42,1.41 -0.89,1.29 -1.58,0.35 -1.23,-0.87 -0.55,0.83 0.66,1.3 -1.12,1.21 -2.35,-1.27 -1.18,1.49 -0.33,-1.54 -2.15,-0.66 -0.89,1.05 -2.29,-0.06 -0.54,1.3 -0.81,-0.36 -0.52,2.68 -1.06,0.04 -0.34,1.35 -0.95,-0.35 0.31,1.06 -1.45,-1.11 -1.48,1.17 1,0.52 -1.04,0.87 -2.15,-0.43 -0.18,2.18 -1.14,-0.75 -0.45,1.32 -3.96,1.59 -2.12,-1.23 0.16,1.05 -1.16,-0.35 -0.24,1.42 -0.64,-0.67 -1.58,1.31 -2.79,0.54 -1.45,1.78 -1.76,-0.18 0,0 -1.03,-0.64 -1.43,1.26 -2.66,0.12 -2.44,-3.06 0,0 -2.07,-0.79 1.03,-1.07 0.23,-3.37 -2.77,-0.2 0.27,-3.54 -1.34,-0.67 -1.13,0.64 -0.51,-0.83 1.71,-0.78 -0.85,-0.24 0.48,-1.09 1.59,0.5 2.08,-2.24 -0.37,-4.85 -2.11,-1.54 -1.37,2.26 -0.93,-0.64 0,0 1.58,-4.29 2.15,0.16 0.86,-0.74 1.77,0.67 1.74,-2.12 1.22,2.17 3.9,-0.77 -0.26,-2.32 1.01,-1.5 -0.13,-1.29 -1.23,-0.7 0.62,-2.57 2.1,0.05 0.79,-2.43 2.79,0.45 -0.25,-1.16 1.19,-2.18 1.4,0.39 z" 
                fill="rgb(151, 144, 238)" 
                stroke="white" 
                stroke-width=".7px"
                title="Haute-Saône" 
                id="FR-70" 
            />
        </svg>