<svg xmlns="http://www.w3.org/2000/svg" viewBox="456.27408 291.5615899999998 51.42999999999995 46.20000000000016" width="51.42999999999995" height="46.20000000000016">
            <path 
                d="m 497.26408,296.93159 -0.9,0.54 0.57,1.43 3.32,3.23 -2.52,4.58 -0.28,3.95 4.2,0.77 -1.05,4.35 0.71,0.53 1.93,-1.22 3.65,5.09 -0.63,0.48 1.16,0.93 0.28,1.79 -1.74,1.45 -0.25,1.67 -2.31,1.49 -4.97,0.57 -0.86,3.43 0,0 -1.84,0.77 -1.78,2.57 -0.98,-0.25 0.05,-2.55 -1.24,-1.74 -2.61,0.43 -1.57,-1.6 -1.06,-2.52 1.42,-0.02 0.12,-1.1 -2.58,-1.67 -2.44,2.75 -1.07,3.51 -2.59,2.07 0.38,0.86 -1.78,3.61 -4.2,0.65 -0.23,-1.44 -1.27,0.7 0.16,-2.25 -1.24,-1.37 -1.69,0.34 -0.95,-0.72 -0.03,1.62 -1.93,-0.95 -0.48,0.7 -2.05,-0.51 -1.3,-3.88 -2.05,0.52 -0.41,-1.38 -1.27,-0.42 -0.39,-5.58 -1.47,-0.61 0,0 0.24,-2.05 -1.17,-2.49 0.59,-5.3 2.77,1.09 0.26,-1.99 2.64,-0.81 0,0 1.56,-0.72 1.81,0.44 0.6,-0.86 3.17,0.72 4.31,-3.95 2.62,-1.15 0.59,-1.85 -2.02,0.28 -0.96,-1.55 0.43,-1.57 -1.14,-0.5 1.33,-2.89 11.07,-5.82 6.78,0.15 5.73,1.65 z" 
                fill="rgb(151, 144, 238)" 
                stroke="white" 
                stroke-width=".7px"
                title="Haute-Savoie" 
                id="FR-74" 
            />
        </svg>