<svg xmlns="http://www.w3.org/2000/svg" viewBox="343.21408000000025 352.72159000000005 58.14999999999992 40.12999999999988" width="58.14999999999992" height="40.12999999999988">
            <path 
                d="m 344.45408,357.26159 2.81,0.03 2.35,-2.51 2.18,-0.38 0.47,-1.21 1.1,1.37 1.19,-1.48 0.98,1.25 1.72,0.17 1.75,-0.2 1.6,-1.58 1.2,1.76 1.68,-0.21 1.98,3.78 1.92,-1.39 0.25,-1.29 1.59,0.52 -0.31,0.93 3.09,0.63 1.12,-2.54 1.39,0.51 0.07,1.01 2.51,0.49 0,0 0.44,1.42 1.16,-2.27 1.67,-0.23 1.74,2.81 0.1,-1.26 1.05,-0.38 1.05,1.17 0.42,-1.32 3.01,-0.39 0.21,-1.43 3.08,0 1.62,1.83 1.5,-0.81 1.57,0.55 0.87,1.5 -1.48,1.13 1.63,0.96 -0.9,1.58 1.18,0.79 0,0 0.5,0.19 0,0 1.91,-0.98 1.94,2.28 0,0 -0.14,2.68 -1.51,2.64 0.6,1.56 -0.79,-0.21 -0.11,0.74 -0.53,-1.55 -2.04,-0.44 1.04,2.28 -1.66,0.33 -0.53,1.84 1.51,1.57 -3.57,1.28 -0.25,1.33 0.97,1.38 -3.69,0.58 -2.84,5.27 -5.06,0.04 -0.26,2.26 -0.94,-0.26 -0.23,1.06 -0.73,-0.76 0.24,1.25 -1.62,-0.9 -1.6,2.85 0.53,0.55 -2.58,1.42 0,0 -1.07,-0.21 0.3,-1.42 -1.39,0.44 -2.01,-2.11 -0.74,-2.18 -3.19,0.55 0.28,-1.63 -1.8,-1.44 -1.51,0.32 -0.21,2.9 -0.77,-0.57 -3.82,1.54 -2.54,-5.19 -0.52,-3.43 -0.56,0.38 -1.23,-1.2 0,0 -0.7,-0.85 1.08,-1.09 -1.79,-0.31 0.41,-0.92 -1,0.38 -0.58,-0.8 0.54,-3.01 -1.21,-1.15 3.22,-0.02 -2.97,-0.99 -1.16,-3.11 0,0 0,-0.58 0,0 0.5,-1.47 -1.52,-0.58 -0.57,-3.43 -2.43,0.49 -0.18,-1.56 -3.22,0.35 1.32,-1.22 -0.98,-0.86 0.92,-0.17 z" 
                fill="rgb(151, 144, 238)" 
                stroke="white" 
                stroke-width=".7px"
                title="Haute-Loire" 
                id="FR-43" 
            />
        </svg>