<svg xmlns="http://www.w3.org/2000/svg" viewBox="407.4040800000001 154.55158999999998 52.169999999999845 69.01999999999995" width="52.169999999999845" height="69.01999999999995">
            <path 
                d="m 409.10408,164.46159 1.99,-0.66 3.38,0.79 -0.66,-1.6 0.56,-0.84 -0.82,0.16 -0.55,-1.82 3.76,-1.11 0,-1.4 -0.53,-0.89 -2.86,-0.21 0.37,-1.13 1.49,-0.63 2.09,0.82 1.79,-1.36 1.15,0.87 0.5,-0.9 1.61,0.29 0,0 0.89,0.39 -0.69,1.2 0.33,2.85 1.31,0.02 1.02,-1.18 0.58,2.28 1.99,0.03 1.12,2.21 0.84,-0.28 1.89,2.27 4.82,1.17 0.76,1.66 2.14,0.59 0.45,1.82 2.48,1.47 0,0 -3.14,1.84 2.01,0.74 -1.02,1.39 0.39,1.6 2.18,-1.55 1.88,0.52 2.67,4.6 0.94,-1.11 1.24,1 0,2.12 1.91,0.48 1.83,2.46 -2.11,0.95 0.15,1.96 -1.13,1.67 0.57,0.78 -1.77,1.42 1.21,0.97 -0.03,-1 1.67,0.57 1.06,2.03 0.84,-0.36 1.43,1 0.77,2.28 -0.32,2.72 0.92,0.27 1.55,-1.7 1.57,3.07 0,0 -0.02,1.59 -1.4,-0.39 -1.19,2.18 0.25,1.16 -2.79,-0.45 -0.79,2.43 -2.1,-0.05 -0.62,2.57 1.23,0.7 0.13,1.29 -1.01,1.5 0.26,2.32 -3.9,0.77 -1.22,-2.17 -1.74,2.12 -1.77,-0.67 -0.86,0.74 -2.15,-0.16 -1.58,4.29 0,0 -0.71,0.86 -0.71,-1.16 -1.3,0.03 -2.28,2.01 -0.56,-1.2 0.88,-1.59 -0.87,0.36 -2.69,-2.2 0.21,-1.73 -2.53,2.08 -1.57,-1.53 -1.08,0.19 0.3,-1.66 -1.32,0.18 -0.03,-1.12 -2.5,1.5 -0.4,-4.68 -1.8,-0.32 3.05,-2.25 0.19,-0.99 -1.39,-1.2 -0.27,-1.7 -1.12,-0.3 -0.98,-3.07 -1.4,0.21 -0.37,1.32 -1.2,-0.77 1.4,-1.95 -0.82,-1.25 -2.53,-0.11 1.02,-1.62 -0.67,-1.07 -2.3,0.07 -1.36,-1 0,0 0.74,-1.51 -2.71,-2.09 1.99,-0.63 1.06,-1.74 4.3,0.75 -0.21,-1.5 0.9,-0.83 -0.6,-1.56 1.12,-1.91 -1.17,-1.31 1.07,-2.87 -2,-3.53 1.1,-1.18 -3.54,-1.53 0.22,-1.32 -2.24,-0.19 -1.16,-3.09 -2.06,-1.31 1.03,-0.55 z" 
                fill="rgb(151, 144, 238)" 
                stroke="white" 
                stroke-width=".7px"
                title="Haute-Marne" 
                id="FR-52" 
            />
        </svg>