<svg xmlns="http://www.w3.org/2000/svg" viewBox="440.20408000000003 370.50159 68.80999999999995 54.459999999999866" width="68.80999999999995" height="54.459999999999866">
            <path 
                d="m 475.15408,370.50159 1.39,1.08 1.63,-0.89 1.28,1.21 0.03,1.9 3.58,1.06 1.47,-0.18 -0.26,-2.22 1.25,-0.96 1.3,0.56 1.51,-1.41 2.19,0.87 0,0 1.75,5.3 2.94,0.33 -0.23,1.48 1.07,1.67 -0.87,1.25 0.31,1.97 4.67,3.21 1.95,0.38 1.05,-1.06 3.6,2.26 -0.94,2 3.19,6.09 -3.71,-0.37 -1.52,2.01 0,0 -1.63,-0.21 -2.8,2.88 -3.13,1.24 -1.15,1.97 -2.51,0.73 -1.97,5.45 -6.79,-0.23 -1.42,-1.37 -0.95,0.27 -2.05,-3.04 -1.25,0.74 0.62,0.65 -0.84,2 -1.27,-1.03 -2.62,1.1 1.2,2.93 -1.45,1.75 -2.18,-3.36 -0.98,-0.1 0.3,-1.15 -3.09,-0.93 -0.33,2.28 -0.82,-0.71 -4.33,3.15 -0.5,2.09 -1.54,1.33 -0.18,1.21 1.14,0.08 -0.17,3.85 -2.29,-2.77 -1.22,-0.12 -0.5,0.95 2.14,3.89 1.51,0.55 -0.15,0.85 -4.7,-1.34 -4.99,1.28 0,0 0.44,-4.37 -1.64,0 -0.43,-1.95 -1.19,-0.33 0.88,-1.57 -3.38,0.18 -1.1,-1.18 -1.25,0.72 -1.21,-1.67 -1.21,-0.21 0.43,-1.18 -1.03,-1.93 0.82,-0.51 1.6,0.81 0.84,-0.92 -1.36,-0.72 -0.27,-2.98 5.98,1.97 1.1,-2.02 1.44,-0.09 -2.75,-2.45 2.11,-3.94 -0.26,-2.22 3.63,0.64 0.84,-1.34 1.67,0.51 1.7,-2.16 -1.31,-0.93 0,0 1.17,-3.09 2.32,0.76 2.83,-0.82 1.21,-1.23 -1.27,-1.36 3.02,-1.89 1.42,1.24 3.22,-2.82 4.7,0.72 2.03,-1.29 1.09,1.27 1.38,-0.15 0.11,-4.94 -1.48,-0.84 0.05,-2.63 -3,0.13 -1.96,-1.15 0.64,-2.83 1.02,-0.36 -0.54,-1.95 z" 
                fill="rgb(151, 144, 238)" 
                stroke="white" 
                stroke-width=".7px"
                title="Hautes-Alpes" 
                id="FR-05" 
            />
        </svg>