<svg xmlns="http://www.w3.org/2000/svg" viewBox="320.65408 437.55159000000003 68.71999999999991 43.39999999999998" width="68.71999999999991" height="43.39999999999998">
            <path 
                d="m 354.70408,440.87159 2.73,0.13 0.73,1.39 -0.87,0.88 0.46,0.53 3.36,-1.93 0.64,2.41 2.1,0.64 0.88,-0.53 -0.9,-1.06 1.88,-2.62 1.98,0.45 0.53,-2.52 1.99,-1.09 2.28,0.29 0.29,1.32 1.38,0.43 -0.98,3.28 1.96,0.65 2.71,-1.17 0.37,1.76 2.25,0.85 -0.62,2.26 1.76,-0.73 1.93,2.54 3.74,2.02 2.09,5.43 -1.78,3.22 -2.92,-0.27 1.14,1.31 -0.37,0.74 0,0 -2.94,-0.05 -5.12,2.28 -4.5,4.26 -6.34,3.29 -5.27,6.07 -3.7,-0.8 -3.32,0.63 -4.47,3.79 0,0 -0.29,-0.28 0,0 -0.95,-1.05 0,0 -0.7,-0.78 -1.53,0.4 -0.6,-0.95 -2.59,-0.11 -1.06,-1.08 -1.79,0.34 -0.27,-2.61 -2.41,0.49 -2.33,-0.95 0,-2.13 -0.95,-0.96 0.06,2.93 -2.59,0.58 0.44,0.69 -1.87,2.84 -2.74,-0.93 -0.76,-2.77 -0.56,1.23 -2.37,0.97 -1.31,-2.76 -1.96,-0.74 0.9,-2.72 1.33,-0.56 -0.88,-0.95 0,0 3.98,-2.84 -0.53,-1.57 0.15,-1.15 0.64,0.09 -2.44,-2.89 1.25,-5.35 3.09,0.87 1.46,1.75 2.43,-1.51 3.94,-0.86 1.13,-2.21 0,0 2.05,-0.82 3.18,0.9 -0.34,-2.99 0.93,-1.35 -1.07,-1.91 0.61,-1.9 5.95,1.34 1.71,-1.01 -0.58,-1.9 1.22,-1.82 3.28,0.03 0.66,-1.12 z" 
                fill="rgb(151, 144, 238)" 
                stroke="white" 
                stroke-width=".7px"
                title="Hérault" 
                id="FR-34" 
            />
        </svg>