<svg xmlns="http://www.w3.org/2000/svg" viewBox="120.23408000000005 153.52158999999997 52.81000000000002 66.72000000000003" width="52.81000000000002" height="66.72000000000003">
            <path 
                d="m 127.57408,157.44159 0.65,0.66 2.04,-0.37 -0.32,0.8 0.91,-0.06 0.08,1.45 1.41,1.28 -0.44,1.02 0,0 -1.54,1.56 -0.07,-1.41 -1.96,-0.34 -1.32,-1.86 0,0 -1.11,-2.1 1.67,-0.63 z m 11.13,-3.92 0.35,1.66 -1.52,2.1 1.49,2.04 5.63,0.34 5.33,-1.66 0,0 3.46,9.09 1.58,0.12 1.21,1.64 2.8,-0.5 1.05,-1.87 2.05,-0.66 1.05,-2.15 7.63,2.23 0,0 -0.46,5.85 1.49,5.35 -2.35,4.09 2.13,10.7 1.22,1.36 -0.5,2.28 0.7,1.78 -1.38,1.17 -3.08,-0.14 -0.07,0.95 -1.22,0.39 -0.89,4.12 -0.82,0.48 0.37,1.4 -1.43,0.99 0.07,1.95 -0.75,0.63 0,0 -0.36,2.05 0,0 -4.84,-1.39 -1.03,-1.79 -3.76,-0.44 0.24,1.99 -6.19,2.43 -1.49,3.29 -1.49,-0.17 -1.15,0.93 -5.75,-0.67 -3.94,2.29 -0.76,-1.38 -5.19,3.85 0,0 -1.29,-5.65 0.76,-0.36 0,0 0.17,-0.5 0,0 2.05,-0.11 -0.15,-0.79 -2.74,-1.18 0,0 0.63,0 0,0 3.2,-3.87 -0.77,-2.19 -1.41,1.6 -0.93,-0.33 0.58,-0.81 -0.79,-1.8 1.53,-1.78 -2.75,-3.97 -1.22,0.28 -2.64,-1.25 -2.13,0.53 1.05,-3.01 0.82,-0.83 2.27,0.02 0.85,-1.44 -2.15,-0.33 -1.47,1.11 0.07,-2.73 -1.38,-1.69 0,0 0.67,-1.02 1.46,0.43 0.29,-4.16 1.89,0.04 -0.04,-2.42 1.32,-0.73 1.88,0.61 0.48,-0.89 -0.68,-0.54 2.38,-1.44 1.28,1.03 2.02,-1.28 0.7,0.6 -0.44,-3.16 1.66,-0.29 -0.98,-5.94 1.74,-2.43 -0.29,-3.37 -0.54,-0.88 -0.88,0.74 0,0 -0.58,0.14 -0.89,-2.99 1.38,0.32 -2.45,-1.54 0.44,-0.71 -1.29,-1.21 0.1,-1.05 1.68,-0.85 0.1,-1.27 1.71,0.13 -0.53,-0.41 1.01,-0.82 1.23,0.78 2.58,-1.06 z" 
                fill="rgb(151, 144, 238)" 
                stroke="white" 
                stroke-width=".7px"
                title="Ille-et-Vilaine" 
                id="FR-35" 
            />
        </svg>