<svg xmlns="http://www.w3.org/2000/svg" viewBox="217.47407999999996 215.37159 54.39999999999998 59.279999999999944" width="54.39999999999998" height="59.279999999999944">
            <path 
                d="m 240.85408,216.28159 0.95,-0.91 0.36,1.57 1.06,-0.95 1.53,1.12 1.19,-0.86 3.78,1.19 1.54,-0.86 -0.98,2.81 0.77,2.81 1.55,-0.32 0.84,-1.72 2.97,0.75 0.24,2.2 1.5,-1.48 1.24,2.51 0.59,-0.33 -1.35,2.49 1.03,0.53 0.71,3.72 1.07,-0.21 0.88,1.04 -0.84,1.29 -1.21,-0.13 1.59,2.37 -0.79,1.34 0.76,1 -1.04,1.5 0.32,1.39 2.42,1.98 0.52,-0.91 2.83,0.07 3.47,6.21 0,0 1.52,4.13 -2.15,0.94 -0.06,1.78 -0.8,0 -1.56,3.06 -0.92,0.53 -2.63,-1.62 -2.74,0.78 -1.96,1.92 0.39,2.45 -1.18,0.97 -1.09,7.55 -1.04,0.64 1.1,2.76 -1.16,-0.34 -1.04,1.61 -1.32,-1.19 -2.43,0.55 0,0 -2.18,-2.48 -0.78,-3.66 -1.82,-0.6 -1.99,-2.64 -0.53,-4.28 -2.39,-0.74 -0.68,-1.31 -2.07,0.09 1.27,2.97 -3.85,-0.1 -2.78,1.78 -3.04,-1.21 -1.73,1.14 -1.34,-3.64 0.89,-0.48 -0.4,-3.21 -1.44,0.52 -0.05,-1.51 -0.91,-0.25 -1.33,1.07 -1.44,-0.31 0.9,-1.98 -0.76,-1.44 -0.82,0.86 -1.13,-0.38 0.22,-1.08 -2.49,0.36 -0.04,-1.63 -1.05,-1.1 0,0 0.55,-1.53 -0.6,-0.39 1.08,-1.34 -0.08,-3.9 2.88,-3.98 -0.3,-0.9 1.78,-1.23 -1.22,-1.08 2.85,-6.17 0.19,-1.66 -1.33,-0.73 1.62,-3.37 0,0 -0.19,-0.91 0,0 1.29,-0.13 4.95,2.62 1.02,-0.62 -1.6,-2.52 0.78,-1.47 1.7,1.67 1.04,-0.17 0.61,-1.58 2.2,-0.71 0,0 0.87,-0.03 0,0 2.41,-0.92 z" 
                fill="rgb(151, 144, 238)" 
                stroke="white" 
                stroke-width=".7px"
                title="Indre-et-Loire" 
                id="FR-37" 
            />
        </svg>