<svg xmlns="http://www.w3.org/2000/svg" viewBox="433.29407999999995 240.28159 39.61000000000007 63.02000000000015" width="39.61000000000007" height="63.02000000000015">
            <path 
                d="m 444.36408,240.28159 2.44,3.06 2.66,-0.12 1.43,-1.26 1.03,0.64 0,0 1.54,3.88 1.98,0.82 1.73,2.9 -2.41,2.8 0.63,2.38 -0.87,0.68 -1.16,-0.66 0.72,0.95 -0.4,1.11 0.75,0.59 1.19,-0.58 0.8,-1.54 0.2,1.77 1.37,0.92 2.04,0.42 1.09,-1.27 -0.43,1.73 2.65,0.73 -0.79,1.63 1.61,0.79 -0.54,1.7 1.09,0.74 -0.11,1.36 0.97,-0.12 0,0 -0.13,0.68 0,0 0.23,0.85 1.35,-0.64 3.59,2.33 2.29,3.48 -5.65,4.53 1.46,2.26 -2.34,2.67 3.7,3 0,0 0.66,1.29 -3.38,4.42 0.55,1.15 -0.88,1.65 0,0 -8.1,9.07 -5.99,0.23 -0.48,-2.9 -2.79,-0.89 -0.15,-1.23 -1.96,2.92 -1.24,0.09 -1.12,1.55 -2.71,0.25 -0.69,-0.61 0.76,-2.46 -1.59,0.01 -0.53,-1.95 -0.85,2.24 -0.04,-1.68 -1.72,-1.9 0.65,-0.72 -3.23,-1.85 1.02,-0.92 -0.38,-1.07 0,0 0.39,-1.01 3.87,-0.83 0.16,-1.53 -2.56,-1.04 0.11,-3.51 0.9,-0.21 0,0 0.85,-0.01 0,0 0.37,-1.11 -0.72,-0.62 1.89,-1.64 -1.92,-2.85 0.54,-0.77 -0.65,-1.85 -1.33,-0.08 1.27,-2.45 -2.1,-1.22 -0.55,-1.5 3.37,-1.08 2.28,0.34 -0.08,-1.6 -2.16,-0.61 -0.42,-1.71 -2.9,0.3 -1.24,-2.95 -1.46,0.45 -0.5,-0.93 0.17,-2.18 0,0 2.58,-2 -1.78,-0.84 0.35,-1.36 1.82,-1.61 2.38,-0.4 0.96,-2.73 1.27,-0.95 0.84,-2.5 -0.58,-0.92 1.44,-1.13 0.34,-4.32 0.67,0.32 z" 
                fill="rgb(151, 144, 238)" 
                stroke="white" 
                stroke-width=".7px"
                title="Jura" 
                id="FR-39" 
            />
        </svg>