<svg xmlns="http://www.w3.org/2000/svg" viewBox="151.98407999999998 405.18159 69.03 60.10999999999984" width="69.03" height="60.10999999999984">
            <path 
                d="m 163.18408,408.94159 6.14,-2.02 0.93,-1.74 2.39,1.47 1.64,-0.05 0.2,1.55 -1.94,3.38 4.51,-1.22 4.58,1.37 1.35,-1.16 5.57,-0.64 0.71,2.06 -0.66,0.81 4.77,2.22 0.38,1.39 3.51,0.94 0.04,1.21 1.98,0.83 -0.23,4.6 4.99,0.9 1.94,-0.74 -0.04,-3.48 1.46,-0.49 2.12,2.66 0,0 0.51,4.28 5.21,0.15 1.53,1.15 4.24,0.34 -3.18,5.73 0.57,2.45 0,0 -0.86,1.36 0.88,2.45 -0.71,1.19 -3.32,-1.89 1.16,-1.43 -1.79,-1.74 -0.38,1.33 -2,0.75 -0.09,1.12 -1.26,-0.85 -1.38,0.89 -0.83,-0.66 -2.49,2.4 2.03,0.9 0.19,0.97 -0.93,0.41 0.62,2.74 -1.37,0.1 0.33,3.31 0.99,0.75 -2.29,1.72 0.32,3.01 -0.88,0.14 0.02,0.91 -0.8,-0.36 0.17,1.5 1.27,0.04 0.19,1.76 0,0 -1.69,-0.07 -2.18,2.01 -2.44,-1.04 -2.27,1.1 -0.54,-0.75 1.28,-1.28 -0.73,-0.63 -4.08,2.93 -0.86,-0.74 -1.18,1.16 -2.56,-1.04 0.65,-1.06 -2.71,0.82 -0.45,1.13 -2.13,-2.21 -3.19,2.13 -2.47,-0.49 -1.82,1.06 -1.69,-0.6 -0.14,2.19 -3.13,-0.26 -0.53,-0.81 -2.59,2.03 -1.14,-1.04 1.66,-0.76 -2.16,-1.61 -4.51,2.79 -5.19,0.07 -0.53,-0.97 -1.52,-0.14 -0.44,-1.3 -1.93,0.54 0,0 3.22,-6.79 5.57,-28.52 z" 
                fill="rgb(151, 144, 238)" 
                stroke="white" 
                stroke-width=".7px"
                title="Landes" 
                id="FR-40" 
            />
        </svg>