<svg xmlns="http://www.w3.org/2000/svg" viewBox="368.43407999999994 302.40159 44.350000000000136 61.66000000000008" width="44.350000000000136" height="61.66000000000008">
            <path 
                d="m 377.13408,302.40159 0.43,1.76 -0.79,1.92 3.42,0.7 0.86,1.82 0,0 1.04,0 0,0 3.5,-1.59 1.25,1.29 1.88,0.2 1.22,-1.23 0.75,1 1.19,-0.59 -0.19,1.74 1.06,0.13 2.17,-1.72 1.8,0.03 -0.37,-0.88 1.07,-1.25 0,0 1.35,0.57 -0.99,1.31 1.64,1.68 -0.82,1.48 -1.48,-0.8 -2.41,1.15 -0.78,3.59 -2.24,1.24 2.63,2.61 -0.55,1 -2.3,-0.35 4.19,3.86 -0.95,1.56 0.84,1.52 2.23,1.1 -0.77,4.49 -1.21,0.82 0.54,1.1 1.69,0.41 -1.53,4.36 3.15,2.78 1.19,2.24 6.03,0.61 1.11,1.89 1.58,-1.04 -1.21,1.73 0.1,2.61 1.81,0.62 1.08,-1.03 1.44,2.31 0,0 -0.05,5.27 0,0 -5.85,3.18 0.32,1.2 -1.33,1.04 0.43,1.36 -4.94,0.86 0,0 -1.94,-2.28 -1.91,0.98 0,0 -0.5,-0.19 0,0 -1.18,-0.79 0.9,-1.58 -1.63,-0.96 1.48,-1.13 -0.87,-1.5 -1.57,-0.55 -1.5,0.81 -1.62,-1.83 -3.08,0 -0.21,1.43 -3.01,0.39 -0.42,1.32 -1.05,-1.17 -1.05,0.38 -0.1,1.26 -1.74,-2.81 -1.67,0.23 -1.16,2.27 -0.44,-1.42 0,0 -0.24,-2.49 2.98,-2.14 0.89,-3.53 -0.99,-0.63 -1.13,-4.23 -4.57,-3.16 -1.94,-3.54 0.15,-1.99 -2,-1.5 -0.05,-1.44 -1.76,-0.98 1.39,-1.33 -0.29,-3.36 1.62,-0.94 -2.56,-2.62 0,0 0.62,-2.58 1.44,0.47 0.52,-1.03 1.33,0.57 1.8,-1.54 -1.07,-3.23 0.67,-2.1 -1.18,-1.39 -0.15,-2.63 0.8,-0.42 -1.69,-4.56 1.5,-0.09 -0.05,-1.05 2.67,-0.25 0.44,-0.81 0,0 z" 
                fill="rgb(151, 144, 238)" 
                stroke="white" 
                stroke-width=".7px"
                title="Loire" 
                id="FR-42" 
            />
        </svg>