<svg xmlns="http://www.w3.org/2000/svg" viewBox="109.03407999999993 207.66158999999996 67.91000000000005 59.55999999999992" width="67.91000000000005" height="59.55999999999992">
            <path 
                d="m 128.15408,220.22159 5.19,-3.85 0.76,1.38 3.94,-2.29 5.75,0.67 1.15,-0.93 1.49,0.17 1.49,-3.29 6.19,-2.43 -0.24,-1.99 3.76,0.44 1.03,1.79 4.84,1.39 0,0 0.51,1.26 -0.83,1.54 2.44,0.57 0.86,1.7 0,0 -0.07,0.61 0,0 -0.23,1.25 0.94,0.17 0.88,2.54 5.48,1.87 -1.52,1.62 -5.4,-0.59 0.66,3.84 7.86,1.08 0.78,4.4 1.08,1.27 -2.22,1.74 -6.98,0.11 -6.09,1.79 -2.61,2.17 2.42,-0.1 2.23,3.81 1.98,-0.52 1.29,4.09 0,0 -0.02,0.26 0,0 -3.08,2.67 0.59,1.1 -1.02,1.2 3.28,0.37 0.58,1.28 1.62,0.56 -0.02,1.22 -1.25,0.86 0,0 -2.25,-0.71 -2.86,-2.72 -1.24,3.08 -1.88,-0.67 -1.35,0.81 0.56,4.51 -4.07,1.85 -0.37,-6.31 -1.3,-0.47 -2.2,1.52 0.55,0.76 -0.59,1.34 1.56,2.36 -0.42,1.08 -0.69,-0.17 1.88,2.72 -1.8,0.39 -0.14,0.83 -4.75,-0.84 -1,-0.97 -1.48,0.38 -0.98,-2.69 -3.18,-0.12 -0.24,-1.39 -2.99,-0.48 -0.65,-1.77 -1.06,-0.18 -1.56,-2.18 0,0 -3.07,-3.98 -8.07,-2.34 3.36,-2.17 -0.21,-5.83 -1.67,-0.36 -3.54,2.18 -3.26,-2.68 -1.74,0.1 -0.6,1.12 -4.7,-1.94 1.5,-1.12 0.12,-1.81 -2.23,-2.2 4.18,-3.01 0.02,-1.49 0,0 1.43,-1.77 0.9,1.27 3.5,-0.29 0.78,-3.38 1.63,0.13 0.59,1.19 2.49,-1.11 -0.17,1.08 1.06,0.32 0.26,-1.95 2.46,-0.69 -0.11,-3.76 0.8,-1.06 -0.7,-1.21 z" 
                fill="rgb(151, 144, 238)" 
                stroke="white" 
                stroke-width=".7px"
                title="Loire-Atlantique" 
                id="FR-44" 
            />
        </svg>