<svg xmlns="http://www.w3.org/2000/svg" viewBox="239.41408 189.29158999999999 69.14999999999986 58.19999999999999" width="69.14999999999986" height="58.19999999999999">
            <path 
                d="m 250.17408,191.07159 4.21,-0.57 0.31,0.89 2.18,-1.97 1.6,-0.13 0.26,0.87 -2.24,1.71 2.96,0.23 0.44,0.77 1.58,-0.44 0.45,2.9 1.73,0.42 1.29,3.73 2.08,-0.68 0.78,1.07 4.34,0.45 0.71,-1.68 2.07,0.32 0.54,-1.89 2.95,1.53 0,0 1.82,-0.47 -0.41,2.28 -1.34,1.3 2.46,1.81 0.38,1.46 -2.71,3.6 1.83,1.44 -0.93,1.7 2.2,1.7 -0.93,0.99 2.17,-2.01 3.45,1.54 1.11,4.48 2.22,1.47 2.21,-1.33 0.48,-2.08 0.3,1.06 2.94,-0.31 0.18,1.3 0.96,0.11 1.84,-1.32 4.3,0.57 3.77,-0.56 1.57,2.29 -0.09,1.27 0,0 -4.93,2.31 0.36,1.95 2.91,0.34 0.69,1.4 -0.75,2.17 2.09,-0.29 -0.71,5.16 -1.05,0.11 -0.68,-1.98 -2.1,1.89 -0.96,-0.85 -0.76,3.37 0.71,-0.18 0.24,2.26 1.6,2.06 -1.22,1.2 -2.2,-0.31 -2.12,1.36 -3.44,-1.68 -1.94,2.05 1.17,0.92 -0.9,1.63 -1.13,0.47 -1.39,-0.88 0,0 -2.66,-0.76 -2.52,-2.71 -2.03,1.16 -2.31,-1.24 -0.81,0.11 0.03,1.15 -2.82,0.16 0.29,2.18 -1.18,-1.01 -2.25,-0.19 -5.07,3.27 0,0 -3.47,-6.21 -2.83,-0.07 -0.52,0.91 -2.42,-1.98 -0.32,-1.39 1.04,-1.5 -0.76,-1 0.79,-1.34 -1.59,-2.37 1.21,0.13 0.84,-1.29 -0.88,-1.04 -1.07,0.21 -0.71,-3.72 -1.03,-0.53 1.35,-2.49 -0.59,0.33 -1.24,-2.51 -1.5,1.48 -0.24,-2.2 -2.97,-0.75 -0.84,1.72 -1.55,0.32 -0.77,-2.81 0.98,-2.81 -1.54,0.86 -3.78,-1.19 -1.19,0.86 -1.53,-1.12 -1.06,0.95 -0.36,-1.57 -0.95,0.91 0,0 -0.61,0.66 -0.83,-1.77 1.86,-2.34 3.13,-0.95 -0.38,-1 3.43,-3.59 -0.61,-3.64 1.21,-0.69 0.89,1.45 0.17,-2.7 1.39,-0.49 -1.26,-2.84 0.98,-2.7 -1.44,-0.14 -0.57,-1.01 -0.01,-1.38 2.05,-0.15 0.09,-1.37 -1.35,0.07 z" 
                fill="rgb(151, 144, 238)" 
                stroke="white" 
                stroke-width=".7px"
                title="Loir-et-Cher" 
                id="FR-41" 
            />
        </svg>