<svg xmlns="http://www.w3.org/2000/svg" viewBox="209.52408 391.59159 50.51000000000002 45.879999999999825" width="50.51000000000002" height="45.879999999999825">
            <path 
                d="m 209.52408,422.79159 0.77,-0.81 1.48,0.26 2.22,-2.06 -0.08,-1.42 -2.05,-2.41 0.26,-0.95 4.26,-1.23 -1.62,-2.46 0.99,-1.76 -0.88,-0.65 -0.12,-2.44 1.46,-1.64 -0.78,-1.18 2.81,0.07 0.52,-2.01 2.87,-1.48 -0.5,-1.64 1.03,0.32 0.85,-1.67 -2.02,-0.29 -1.5,-2.03 0.81,-0.69 0.61,0.48 0.29,-1.83 1.4,0.15 0.52,-1.06 0.56,1.75 0.71,-0.13 0.37,-2.39 1.24,0.86 1.68,-0.72 0,0 2.13,2.55 0.31,3.74 2.59,0.61 3.73,-1.96 1.8,0.72 1.49,-1.95 1.53,0.42 0.09,-0.81 2.41,1.78 3.26,-0.15 1.39,-1.3 2.31,1.87 -1.44,2.43 0.66,1.56 1.52,0.19 0.28,-1.08 4.3,-1.66 1.36,1.71 2.45,1.09 0.18,1.32 0,0 -2.54,2.14 -1.39,-0.41 1.47,2.16 0.02,3.55 1.44,0.76 0.46,3.09 0,0 -0.57,0.9 -4.07,0.06 -0.44,0.95 -0.87,-2.24 -1,0.16 -1.12,4.11 1,0.82 0.93,-0.38 1.44,1.61 -0.93,0.44 -0.9,4.38 -2.21,0.38 0.26,0.75 1.07,-0.23 0.36,2.14 -1.33,0.65 -3.02,-0.98 0.42,1.76 -1.78,0.33 -0.65,2.39 0,0 -3.25,2.38 -2.94,-3.22 -1.53,1.45 -3.94,-0.05 -0.78,1.57 -2.56,1.3 -2.75,-0.17 -0.59,1.08 -3.58,-1.84 -2.4,2.87 -1.1,-1.65 -2.26,1.07 0,0 -0.57,-2.45 3.18,-5.73 -4.24,-0.34 -1.53,-1.15 -5.21,-0.15 z" 
                fill="rgb(151, 144, 238)" 
                stroke="white" 
                stroke-width=".7px"
                title="Lot-et-Garonne" 
                id="FR-47" 
            />
        </svg>