<svg xmlns="http://www.w3.org/2000/svg" viewBox="256.1040799999997 375.17159000000004 50.800000000000125 49.050000000000125" width="50.800000000000125" height="49.050000000000125">
            <path 
                d="m 275.38408,376.75159 3.74,-1.58 0.32,1.02 1.23,-0.68 2.95,0.75 2.5,3.47 1.8,0.73 0.02,1.14 2.14,0.85 4.4,-3.21 1.34,0.27 0.31,1.21 1.57,-1.28 3.13,-0.1 0,0 0.64,2.42 1.08,0.81 -0.75,0.98 0.26,1.76 3.34,4.95 -1.74,5.35 1.21,0.06 0.54,3.42 1.49,1.16 0,0 -0.44,1.86 -0.72,-0.63 -1.92,1.55 -2.03,-1.04 -0.82,1.28 -0.23,-1.03 -6.05,4.59 0.21,1.01 -1.21,-1.06 -0.19,1.22 -1.81,0.19 0.45,2.68 0.96,0.68 -0.26,1.51 1.84,2.29 -1.26,1.04 0,0 -2.3,0.86 -1.34,-0.61 -0.84,1.74 -1.33,-0.84 -1.79,0.36 -1.66,1.78 -1,-0.99 0.71,0.76 -0.43,0.93 -1.06,-0.56 0.01,-1.01 -1.85,-0.28 -0.33,1.62 0.91,1.54 -1.89,1.09 -0.61,-1.82 -1.75,-0.72 -0.5,-1.42 -0.72,2.51 -3.9,2.89 -0.97,-1.49 -2.23,-0.37 0.83,-3.42 -1.96,0.56 -0.28,1.06 -1.14,-0.83 -0.32,0.76 -1.41,-1.3 0.05,-1.07 -2.39,-0.37 -1.74,-2.14 0.33,-1.07 1.82,0.01 0.12,-1.28 -2.97,0.83 0,0 -0.46,-3.09 -1.44,-0.76 -0.02,-3.55 -1.47,-2.16 1.39,0.41 2.54,-2.14 0,0 1.16,0.03 -0.4,-1.17 2.37,-2.41 -0.16,-2.03 3.13,-0.8 1.92,-2.25 0.71,0.36 0.5,-1.59 0.69,0.2 0.28,-1.43 -1.04,-0.65 0.04,-1.17 2.81,-0.88 -0.18,-1.9 3.19,-1.96 -1.1,-1.98 1.2,-0.35 -1.17,-4.49 0,0 -0.18,-0.78 0,0 z" 
                fill="rgb(151, 144, 238)" 
                stroke="white" 
                stroke-width=".7px"
                title="Lot" 
                id="FR-46" 
            />
        </svg>