<svg xmlns="http://www.w3.org/2000/svg" viewBox="339.04407999999995 379.60159 42.220000000000084 49.73999999999995" width="42.220000000000084" height="49.73999999999995">
            <path 
                d="m 354.79408,379.60159 1.23,1.2 0.56,-0.38 0.52,3.43 2.54,5.19 3.82,-1.54 0.77,0.57 0.21,-2.9 1.51,-0.32 1.8,1.44 -0.28,1.63 3.19,-0.55 0.74,2.18 2.01,2.11 1.39,-0.44 -0.3,1.42 1.07,0.21 0,0 1.73,8.71 2.55,2.29 1.41,5.52 0,0 -2.04,3.45 -1.34,-0.3 -1.3,1.03 2.76,3.21 -1.21,1.54 0.44,1.71 1.71,1.02 -1.14,0.84 -0.44,2.78 0.83,0.1 0.71,1.78 -2.1,-1.15 0.16,1.21 -2.17,2.04 -1.85,-0.64 -1.4,0.57 -5.21,-3.4 -1.38,0.56 -0.41,1.35 1.04,0.43 -0.87,1.42 -3.73,0.42 -4.08,-0.91 -3,-2.33 0,0 -0.44,-1.75 -2.74,-0.34 -3.8,0.94 1.1,-2.33 -1.75,-1.11 -1.13,0.29 -0.36,-1.76 -1.3,0.74 0.03,-1.29 1.34,-1.35 -1.43,-3.19 1.04,-4.34 -3.24,-3.74 0.79,-3.27 -4.31,-4.95 0,0 1.47,-4.03 0.91,-0.12 -0.52,-0.74 0.84,-4.26 1.06,-2.11 1.1,0.23 0.19,-3.06 1.61,-0.96 2.06,2.34 1.83,-1.47 -0.52,-1.26 1.08,-0.42 -0.32,-1.12 1.04,-0.4 0.78,0.91 z" 
                fill="rgb(151, 144, 238)" 
                stroke="white" 
                stroke-width=".7px"
                title="Lozère" 
                id="FR-48" 
            />
        </svg>