<svg xmlns="http://www.w3.org/2000/svg" viewBox="159.06408000000005 209.24159 65.87999999999994 51.34000000000012" width="65.87999999999994" height="51.34000000000012">
            <path 
                d="m 163.85408,209.24159 2.85,1.9 6.03,0.09 1.82,0.99 1.21,-0.43 -0.93,-0.8 0.51,-0.87 1.23,0.1 1.62,1.84 2.22,0.68 0.01,-0.98 0.91,-0.2 3.34,2.11 5.32,0.09 0.97,-1.34 2.15,0.49 0.65,-2.31 2.66,1.94 1.75,-0.53 -0.18,-0.94 1.4,1.22 0,0 1.09,1.74 -0.3,1.07 3.21,-0.32 2.12,0.99 1.41,-1.29 1.08,0.49 -1.78,2.11 0.85,1.98 2.47,1.03 1.1,-0.11 0.75,-1.7 0.05,0.71 0.82,-0.46 2.14,1.36 0.78,-0.58 0.61,1.45 2.03,1.18 2.19,-0.13 1.25,1.47 1.62,-1.02 0.06,-1.12 0.83,0.86 0.98,-0.42 0,0 0,0 0,0 0.19,0.91 0,0 -1.62,3.37 1.33,0.73 -0.19,1.66 -2.85,6.17 1.22,1.08 -1.78,1.23 0.3,0.9 -2.88,3.98 0.08,3.9 -1.08,1.34 0.6,0.39 -0.55,1.53 0,0 -1.48,-0.67 -1.1,0.91 -1.38,2.82 0.17,1.67 -2.08,-0.87 -0.66,2.22 0,0 -1.13,0.62 -0.82,-0.99 -1.07,0.2 1.37,-2.12 -1.75,-0.39 -0.84,0.85 -2.54,-0.7 -3.1,1.15 -2.34,-0.26 -0.45,1.48 -2.11,-0.13 -0.95,0.94 0.9,-1.71 -1.45,-0.12 -2.56,1.18 0.53,1.92 -2.3,2.16 -2.96,-0.38 -0.35,0.95 -1.48,0.22 -3.02,-1.3 -0.87,1.1 -1.44,-0.15 -0.39,1.21 -1.64,-0.36 0,0 -1.59,-1.94 -1.28,0.76 -0.62,-1.39 -3.27,0.85 -3.84,-1.48 0,0 1.25,-0.86 0.02,-1.22 -1.61,-0.56 -0.58,-1.28 -3.28,-0.37 1.02,-1.2 -0.59,-1.1 3.08,-2.67 0,0 0.03,-0.26 0,0 -1.29,-4.08 -1.97,0.52 -2.24,-3.81 -2.41,0.1 2.61,-2.17 6.08,-1.79 6.98,-0.11 2.22,-1.74 -1.08,-1.27 -0.79,-4.4 -7.86,-1.09 -0.66,-3.83 5.4,0.59 1.52,-1.62 -5.48,-1.87 -0.88,-2.54 -0.94,-0.17 0.23,-1.25 0,0 0.07,-0.61 0,0 -0.86,-1.71 -2.44,-0.56 0.83,-1.54 -0.51,-1.26 0,0 z" 
                fill="rgb(151, 144, 238)" 
                stroke="white" 
                stroke-width=".7px"
                title="Maine-et-Loire" 
                id="FR-49" 
            />
        </svg>