<svg xmlns="http://www.w3.org/2000/svg" viewBox="134.3840799999999 88.801588 50.32000000000011 80.02000200000008" width="50.32000000000011" height="80.02000200000008">
            <path 
                d="m 135.51408,88.801588 1.44,1.36 1.46,-0.76 1.14,1.75 5.67,1.07 3.47,1.77 -0.11,-0.67 4.5,-0.61 0.98,-1.99 4.31,-0.63 4.33,0.68 1.5,5.71 -1.08,-0.38 -0.07,1.71 -1.71,0.26 -0.35,2.750002 5.8,8.42 -0.62,3.71 1.12,-0.88 1.59,1.18 0,0 0.11,1.14 -1.06,0.99 0.8,1.9 -0.66,0.6 2.4,2.31 4.32,2.73 2,-2.59 1.6,1.94 -1.13,0.63 -0.47,1.7 -1.38,0.12 2.98,2.08 -1.49,1.72 1.83,-0.9 0.39,3.08 -0.88,1.32 1.28,1.09 -1.81,1.15 -1.71,2.91 -2.22,0.98 -2.42,-0.5 -0.81,2.22 2.26,-0.28 0.12,1.3 -2.15,2.27 -1.1,-0.45 -2.55,3.18 2.36,0.77 0.82,2.34 4.57,0.33 0.87,-1.04 2.84,2.07 2.53,-0.99 -0.75,1.23 0,0 -0.42,1.36 1.36,-0.04 3.39,2.84 -1.55,1.79 1.42,2.26 -1.47,3.65 -3.56,3.82 0,0 -2.03,0.31 -1.94,-1.29 -0.71,1.43 -1.3,0.32 -2.72,-1.18 0,0 -7.63,-2.23 -1.05,2.15 -2.05,0.66 -1.05,1.87 -2.8,0.5 -1.21,-1.64 -1.58,-0.12 -3.46,-9.09 0,0 2.62,0.48 -0.1,-0.68 1.01,0.78 3.95,-1.22 1.56,0.77 -2.41,-1.68 1.05,-1.03 -2.54,1.28 -0.11,-1.02 -1.99,-0.78 -1.2,-2.92 -1.75,-1.04 -0.18,-4.7 -1.66,-0.84 1.25,-0.86 0.91,-4.83 0.78,-0.35 -0.8,-0.65 0.21,-5.37 0.93,-0.47 1.27,0.85 -1.57,-1.3 -0.77,0.32 -0.72,2.27 -0.9,-2.41 -0.42,-4.06 0.72,-2.11 -0.92,-5.21 1.63,-0.32 -1.64,-0.7 -0.51,1.57 -3.52,-7.38 -2.69,-2.87 -1.39,-0.12 -1.59,-8.36 -1.65,-1.93 1.96,-2.350002 -0.33,-3.85 -1.11,-1.78 -2.99,-1.02 -0.02,-2.61 1.13,-0.67 z" 
                fill="rgb(151, 144, 238)" 
                stroke="white" 
                stroke-width=".7px"
                title="Manche" 
                id="FR-50" 
            />
        </svg>