<svg xmlns="http://www.w3.org/2000/svg" viewBox="356.14408 109.25159 68.32999999999981 56.220000000000056" width="68.32999999999981" height="56.220000000000056">
            <path 
                d="m 359.91408,144.33159 1.78,-3.77 1.76,-0.16 0.14,-1.56 1.22,-0.22 -0.54,-1.09 1.28,-0.38 0.85,-2.39 1.51,-0.63 -1.12,-1.83 -2.72,0.39 0.07,-1.47 2.13,-1.07 -1.55,-2.68 0.89,-1.95 2.66,-0.23 0.78,0.75 1.8,-1.05 0.03,-1.41 -1.42,0.27 -0.66,-1.9 -0.69,0.62 -1.18,-1 1.01,-1.39 -1.08,-1.22 0.56,-0.94 -0.85,-2.84 5.51,-2.72 3.05,0.73 0.18,-2.25 2.83,-1.69 1.49,1.87 3.2,1.09 0.48,-2.93 0,0 5.94,0.32 0.41,1.12 1.92,0.03 2.52,3.62 1.22,0.01 0.26,0.78 1.51,-0.69 0.69,2.11 2.08,1.17 6.28,-1.19 -0.26,1.17 1.76,2.62 2.33,-1.64 2.64,1.06 2.56,-0.57 2.1,1.41 0.45,-2.23 1.94,-0.21 -0.11,0.92 1.25,0.92 0,0 1.69,1.71 -2.18,1.6 2.32,4.61 0.42,3.34 -1.66,2.38 1.8,-0.89 1.15,0.76 -0.09,1.92 -1.65,0.59 1.87,0.63 -0.96,2.18 -3.24,1.34 0,0 -0.18,0.35 0,0 -0.87,0.86 -0.02,1.92 1.04,1.62 -1.99,1.57 0.05,1.19 1.94,0.55 1.85,2.84 1.17,0.17 0.22,1.99 -0.73,0.05 -0.38,1.55 0,0 -1.61,-0.29 -0.5,0.9 -1.15,-0.87 -1.79,1.36 -2.09,-0.82 -1.49,0.63 -0.37,1.13 2.86,0.21 0.53,0.89 0,1.4 -3.76,1.11 0.55,1.82 0.82,-0.16 -0.56,0.84 0.66,1.6 -3.38,-0.79 -1.99,0.66 0,0 -1.46,-0.8 0.37,-0.62 -2.12,0.05 -1.97,1.74 -1.41,-1.39 -0.65,0.59 -3.85,-1.44 -3.53,-3.38 0.69,-3.96 -1.4,-2.27 -1.53,0.53 -0.84,-0.66 -0.39,0.91 -2.83,-0.37 -1.38,1.34 -2.14,-0.94 -0.91,2.19 -2.36,0.17 -2.2,3.8 -1.66,0.11 -0.36,1.68 -2.01,-0.36 0.55,2.67 -1.65,1.42 -3.64,-1.47 -4.07,0.02 -0.54,-2.45 -1.82,-0.5 -1,-1.99 0,0 -1.63,-1.02 0.58,-0.84 -3.45,0.7 0.35,-1.09 -0.81,-0.7 1.52,-2.16 -0.35,-2.49 -3.06,-1.27 0.6,-1.6 1.43,-0.4 -0.08,-0.8 -1.58,-0.35 3.48,-0.33 z" 
                fill="rgb(151, 144, 238)" 
                stroke="white" 
                stroke-width=".7px"
                title="Marne" 
                id="FR-51" 
            />
        </svg>