<svg xmlns="http://www.w3.org/2000/svg" viewBox="163.8540800000001 162.37159 49.299999999999926 51.389999999999986" width="49.299999999999926" height="51.389999999999986">
            <path 
                d="m 179.53408,166.30159 1.95,2.91 1.42,-0.65 0.58,1.79 2.08,-0.75 -0.65,-1.54 1.73,0.32 0.86,-1.13 0.69,2.64 2.24,-1.71 1.92,-0.1 1.72,-2.24 4.7,-0.06 1.81,1.61 1.33,-2.39 2.07,0.94 1.24,-1.81 -0.89,-0.78 0.57,-0.98 1.74,0.05 2.57,2.22 -1.17,1.09 1.12,3.35 3.99,0.36 -0.23,4.37 0,0 -3.36,1.09 0.61,1.58 -1.47,-0.11 0.78,2.93 -1.17,1.83 0.91,3.65 -4.49,2.93 0.64,0.63 -0.7,0.67 1.6,1.54 -0.9,0.91 0.28,2.38 -1.67,-0.4 -2.9,1.43 0,1.89 1.38,0.37 0.22,2.47 1.09,0.5 -5.64,2.59 0.2,1.32 1.4,0.45 0.11,1.78 -1.6,-0.03 -1.47,1.67 0.71,1.54 1.74,0.25 0.17,2.62 0,0 -1.4,-1.22 0.18,0.94 -1.75,0.53 -2.66,-1.94 -0.65,2.31 -2.15,-0.49 -0.97,1.34 -5.32,-0.09 -3.34,-2.11 -0.91,0.2 -0.01,0.98 -2.22,-0.68 -1.62,-1.84 -1.23,-0.1 -0.51,0.87 0.93,0.8 -1.21,0.43 -1.82,-0.99 -6.03,-0.09 -2.85,-1.9 0,0 0.75,-0.63 -0.07,-1.95 1.43,-0.99 -0.37,-1.4 0.82,-0.48 0.88,-4.12 1.22,-0.39 0.07,-0.95 3.08,0.14 1.38,-1.17 -0.69,-1.78 0.49,-2.29 -1.22,-1.35 -2.12,-10.7 2.35,-4.1 -1.49,-5.34 0.47,-5.85 0,0 2.72,1.18 1.29,-0.32 0.72,-1.43 1.94,1.29 z" 
                fill="rgb(151, 144, 238)" 
                stroke="white" 
                stroke-width=".7px"
                title="Mayenne" 
                id="FR-53" 
            />
        </svg>