<svg xmlns="http://www.w3.org/2000/svg" viewBox="440.69408 99.41158800000001 70.06000000000006 76.34000200000004" width="70.06000000000006" height="76.34000200000004">
            <path 
                d="m 455.27408,99.561588 1.5,1.380002 0.82,-0.35 0,1.48 2.14,1.38 0,0 0.38,1.14 1.27,-0.3 0.6,1.14 -0.01,2.3 -1.34,1.47 0.93,0.72 -0.34,1.48 2.19,1.78 -1.35,0.21 0.07,1.01 1.6,1.3 0.8,-0.36 0.05,3.41 1.47,1.07 -2.67,2.91 2.3,1.79 -2.09,1.35 0.91,2.06 -2.99,0.21 -0.3,1.08 1.39,2.81 2.38,0.69 1.21,1.49 -0.1,2.25 1.27,-0.27 0.37,1.18 1.43,-0.34 0.67,2.09 1.67,-0.56 5.74,1.42 0.67,1.31 -1.74,3.4 2.28,0.79 -1.6,0.61 2.25,0.76 0.1,2.05 1.54,0.28 1.57,-0.91 0.87,1.48 1.4,-0.07 1.06,1.06 2.06,-0.4 1.51,2.58 2.63,0.59 0.21,2.39 0.78,-1.09 1.94,1.4 1.05,-0.44 0.95,1.7 2.21,-0.07 0.79,1.39 2.39,0.08 0.78,-0.95 0.96,1.61 2.38,-0.07 -0.7,1.1 1.72,0.86 0.73,1.74 1.28,0.42 -1.08,0.47 0.79,0.14 0,0 0.13,1.42 1.6,-0.07 0,0 -5.79,2.18 -3.6,3.81 -1.17,-1.2 -1.45,1.24 0,0 -0.42,0.81 0,0 -1.5,0.99 0.23,-0.84 -0.89,0.17 -0.08,-0.73 -4.96,-1.09 -0.98,-2.79 -2.24,1.99 0.5,1.55 -1.89,-0.97 -6.01,2.51 -0.29,-1.46 -2.18,0.63 -1.41,-1.87 -2.58,2.26 -3.43,-0.66 0.05,1.7 -1.47,1.75 -1.02,-0.55 -0.18,-1.33 -0.67,1.49 -2.85,-0.24 -1.7,0.86 -0.49,-2.88 -1.89,-0.26 1.12,-2.08 -1.39,-0.15 -0.15,1.97 -1.59,-0.33 1.71,-2.22 -0.5,-1.49 0.83,-1.58 -1.98,-0.96 -2.93,1.71 -0.92,-0.88 0,0 0.49,-2.71 -2.5,-1.29 -0.03,-1.74 3.14,-1.2 0.47,-1.07 -1.84,0.21 -0.66,-1.92 0.97,-3.05 -2.07,-2.78 1.13,-0.45 -0.24,-1.13 1.74,-1.56 -0.94,-0.33 1.04,-1.71 -0.69,-2.82 1.03,-0.89 -1.78,-1.94 2.18,-1.86 2.07,-0.35 -0.55,-1.4 -1.47,-0.74 2.2,-3.52 -0.73,-1.47 -1.28,0.1 0.66,-2.75 -2.3,0.12 -0.79,-1.23 1.05,-0.87 -1.17,-1.16 0.87,-2.56 -1.68,0.09 -0.24,-1.27 0.88,-0.89 -0.73,-2.22 1.64,-0.89 0.38,-1.76 -0.32,-0.61 -1.24,0.38 0,0 -0.19,-0.71 0,0 0.4,-2.07 -1.13,-0.61 -0.17,-1.25 1.17,-0.94 -1.83,-0.26 0.01,-0.9 -2.43,-1.4 -0.76,1.09 -4.87,0.88 -0.56,1.52 -1.41,-1.12 2.35,-1.28 -1.4,-0.35 0.61,-1.33 -1.07,-0.33 0.19,-1.57 -1.5,-0.63 0.52,-1.03 1.25,1.14 -0.7,0.31 0.71,-0.15 0.01,-0.94 0,0 3.46,-2.04 2.28,1.45 1.28,-2.73 4.3,0.72 0.52,-1.420002 z" 
                fill="rgb(151, 144, 238)" 
                stroke="white" 
                stroke-width=".7px"
                title="Meurthe-et-Moselle" 
                id="FR-54" 
            />
        </svg>