<svg xmlns="http://www.w3.org/2000/svg" viewBox="418.25408000000004 95.87158800000002 40.03000000000003 76.200002" width="40.03000000000003" height="76.200002">
            <path 
                d="m 440.43408,96.951588 1.31,2.04 0.49,2.560002 -0.7,0.58 0.95,1.3 0,0 -0.01,0.94 -0.71,0.15 0.7,-0.31 -1.25,-1.14 -0.52,1.03 1.5,0.63 -0.19,1.57 1.07,0.33 -0.61,1.33 1.4,0.35 -2.35,1.28 1.41,1.12 0.56,-1.52 4.87,-0.88 0.76,-1.09 2.43,1.4 -0.01,0.9 1.83,0.26 -1.17,0.94 0.17,1.25 1.13,0.61 -0.4,2.07 0,0 0.19,0.71 0,0 1.24,-0.38 0.32,0.61 -0.38,1.76 -1.64,0.89 0.73,2.22 -0.88,0.89 0.24,1.27 1.68,-0.09 -0.87,2.56 1.17,1.16 -1.05,0.87 0.79,1.23 2.3,-0.12 -0.66,2.75 1.28,-0.1 0.73,1.47 -2.2,3.52 1.47,0.74 0.55,1.4 -2.07,0.35 -2.18,1.86 1.78,1.94 -1.03,0.89 0.69,2.82 -1.04,1.71 0.94,0.33 -1.74,1.56 0.24,1.13 -1.13,0.45 2.07,2.78 -0.97,3.05 0.66,1.92 1.84,-0.21 -0.47,1.07 -3.14,1.2 0.03,1.74 2.5,1.29 -0.49,2.71 0,0 -1.94,2.33 -3.17,-0.79 0.51,0.78 -1.52,1.08 0.15,1.03 -1.19,-1.05 -3.09,0.68 -0.5,1.41 -1.54,-0.73 0,0 -2.48,-1.47 -0.45,-1.82 -2.14,-0.59 -0.76,-1.66 -4.82,-1.17 -1.89,-2.27 -0.84,0.28 -1.12,-2.21 -1.99,-0.03 -0.58,-2.28 -1.02,1.18 -1.31,-0.02 -0.33,-2.85 0.69,-1.2 -0.89,-0.39 0,0 0.38,-1.55 0.73,-0.05 -0.22,-1.99 -1.17,-0.17 -1.85,-2.84 -1.94,-0.55 -0.05,-1.19 1.99,-1.57 -1.04,-1.62 0.02,-1.92 0.87,-0.86 0,0 0.18,-0.35 0,0 3.24,-1.34 0.96,-2.18 -1.87,-0.63 1.65,-0.59 0.09,-1.92 -1.15,-0.76 -1.8,0.89 1.66,-2.38 -0.42,-3.34 -2.32,-4.61 2.18,-1.6 -1.69,-1.71 0,0 4.13,-2.35 0.35,-0.98 -1.41,-1.29 0.11,-1.62 1.13,-2.09 1.92,-0.63 -1,-1.55 1.59,-1.07 -0.17,-2.45 -2.16,-2.72 1.29,-2.18 0,0 0,-0.48 0,0 0.94,-1.160002 -0.01,-2.02 1.28,0.1 0.84,1.77 2.96,-0.41 1.14,1.760002 2.06,-1.130002 1.06,-2.19 1.68,0.05 0.74,-1.5 0,0 z" 
                fill="rgb(151, 144, 238)" 
                stroke="white" 
                stroke-width=".7px"
                title="Meuse" 
                id="FR-55" 
            />
        </svg>