<svg xmlns="http://www.w3.org/2000/svg" viewBox="60.16407700000001 184.66159 70.60000299999999 57.19999999999999" width="70.60000299999999" height="57.19999999999999">
            <path 
                d="m 80.424077,235.16159 3.75,1.43 0.73,2.13 3.24,0.92 -0.56,1.7 -0.73,0.52 -3.41,-1.45 -1.82,0.54 -0.82,-0.61 -1.01,-2.95 0.63,-2.23 z m -13.17,-49.25 3.96,0.62 1.02,-0.7 1.08,0.91 -0.79,0.84 0.87,0.86 3.38,-1.55 0.45,1.28 1.47,-0.24 0.73,0.89 1.28,-0.7 1.14,0.56 0.91,-1.4 2.15,0.04 1.03,-2.66 3.23,0.19 0.92,0.37 0.64,2.33 2.38,-0.68 2.13,0.4 1.67,1.43 1.93,-0.19 1.270003,3.59 0.8,-1.83 2.11,0.23 1.8,-1.11 0.43,2.03 -0.96,2.16 0.69,1.92 4.49,-2.74 1.41,-3.54 -0.88,-1.5 4.61,-1.01 2.77,3.88 0.35,-0.92 2.57,-0.53 0,0 1.38,1.69 -0.07,2.73 1.47,-1.11 2.15,0.33 -0.85,1.44 -2.27,-0.02 -0.82,0.83 -1.05,3.01 2.13,-0.53 2.64,1.25 1.22,-0.28 2.75,3.97 -1.53,1.78 0.79,1.8 -0.58,0.81 0.93,0.33 1.41,-1.6 0.77,2.19 -3.2,3.87 0,0 -0.63,0 0,0 2.74,1.18 0.15,0.79 -2.05,0.11 0,0 -0.17,0.5 0,0 -0.76,0.36 1.29,5.65 0,0 0.69,1.22 -0.8,1.06 0.11,3.76 -2.46,0.69 -0.26,1.95 -1.06,-0.32 0.17,-1.08 -2.49,1.11 -0.59,-1.19 -1.63,-0.13 -0.78,3.38 -3.5,0.29 -0.9,-1.27 -1.43,1.77 0,0 -1.56,-0.12 -0.26,-2.58 2.52,-0.38 -2.85,-1.59 -4.67,1.23 -0.36,-0.94 -1.1,0.08 -1,1.29 -1.87,-0.54 -3.710003,1.21 -1.43,-0.73 -0.99,-2.13 -1.29,-0.1 -0.27,-1.13 -2.2,-0.21 -1.05,-1.41 -0.63,0.81 -0.84,-1.58 0.04,1.2 -4.13,0.2 -0.46,2.3 1.83,3.61 -1.69,0 -1.18,-3.07 0.86,-1.21 -0.81,-3.91 -5.1,-4.73 -2.41,-0.73 -0.9,0.58 -0.2,-1.52 -3.96,0.74 -3.04,-3.97 0,0 0.25,-5.07 1.56,1.35 1.38,-0.8 0.36,-1.67 2.06,0.04 -0.85,-2.6 1.35,-1.29 -0.22,-1.98 -1.04,-0.99 -2.1,1.75 -0.96,-1.82 -1.69,-0.85 -4.48,0.25 -1.44,-4.62 -1.45,-0.5 0.56,-1.65 -1.55,-0.12 -0.07,-0.96 0.83,-1.91 6.26,-2.78 z" 
                fill="rgb(151, 144, 238)" 
                stroke="white" 
                stroke-width=".7px"
                title="Morbihan" 
                id="FR-56" 
            />
        </svg>