<svg xmlns="http://www.w3.org/2000/svg" viewBox="333.4640799999999 222.88159000000002 57.34000000000003 57.01000000000005" width="57.34000000000003" height="57.01000000000005">
            <path 
                d="m 338.82408,224.01159 1.86,0.77 3.35,-1.9 0.92,0.7 -0.1,2.23 1.77,1.3 1.61,-0.28 1.24,2.1 1.7,-0.11 0.44,-0.81 2.59,2.14 1.89,-2.25 3.98,0.73 0.45,-4.11 0.62,2.06 2.76,1.84 0.28,2.52 1.2,-0.62 2.43,0.98 2.15,3.17 2.53,-0.41 1.26,1.6 0.16,-1.41 1.88,-2.01 1.15,1.25 -1.43,1.34 0.53,1.63 2.98,-0.93 0.19,-0.82 0.98,1.12 -0.01,2.69 1.25,1.33 1.04,-0.24 0.66,-1.58 2.62,0.03 0,0 1.52,-0.93 -1.2,2.83 0.81,0.13 -0.8,0.86 0.8,3.29 1.87,-0.98 2.05,2.78 -0.75,3.25 0,0 -0.9,0.3 0,0 -3.01,0.28 0.07,1.32 0,0 -2.79,0.71 -0.49,2.07 1.46,1.4 -0.69,2.55 -2.63,1.72 0.64,0.86 1.21,-0.86 0.7,1.71 -0.74,2.88 2.59,2.55 -2.34,1.85 0.46,3.56 -0.86,-0.61 -1.53,0.54 -2.88,2.32 -5.43,2.37 -0.58,-2.08 -1.89,-1 -3.23,0.89 -1.28,-0.69 0,0 -1.36,-0.99 -0.46,1.57 0,0 0.48,0.92 0,0 -2.05,0.09 0.55,2.04 -1.88,0.35 -1.38,1.98 -1.63,-0.75 0.39,-1.63 -1.32,-1.46 -1.72,0.08 -1.34,1.73 -1.39,-0.33 -0.53,-1.6 -1.31,-0.06 -2.78,2.49 -3.04,-3.12 -2.94,-1.43 -1.11,-2.64 0,0 1.57,-3.44 -0.82,-3.38 1.25,-2.92 -0.65,-1.16 0.58,-2.97 -2.49,-2.46 0.53,-3.46 -2.17,-6.53 0.14,-2.03 -4.24,-3.35 -0.49,-1.33 2.62,-6.09 -2.34,-5.07 0,0 -1.12,-1.12 0.39,-0.81 0.67,0.46 1.74,-1.28 1.82,0.54 z" 
                fill="rgb(151, 144, 238)" 
                stroke="white" 
                stroke-width=".7px"
                title="Nièvre" 
                id="FR-58" 
            />
        </svg>