<svg xmlns="http://www.w3.org/2000/svg" viewBox="301.9040800000001 0.3315880999999452 89.00999999999982 72.92999990000003" width="89.00999999999982" height="72.92999990000003">
            <path 
                d="m 342.41408,60.101588 0.66,0.14 0,0 0.71,0.52 -1.13,0.95 0.2,1.08 -1.51,0.09 -1.09,1.13 -0.33,-2.45 1.57,-0.09 0.73,-1.01 0,0 0.19,-0.36 z m -20.81,-57.5299999 0.53,3.46 1.39,0.81 1.03,2.82 -1.73,1.8199999 0.77,1.42 -0.39,3.18 1.48,2.44 1.38,-0.63 2.25,0.77 2.75,5.49 1.17,0.71 1.2,-0.46 2.48,2.01 1.91,-3.91 4.24,-1.83 1.05,0.47 1.33,-1.41 1.62,0.27 1.66,4.24 2.88,1.54 0.19,1.65 -1.08,1.2 2.17,8.71 3.51,2.16 2.96,-1 1.14,-1.74 1.83,0.63 -0.76,2.36 4.48,-0.57 2.16,2.56 0.62,3.47 -0.59,2.39 1.97,3.96 1.64,-2.99 2.5,-0.2 0.28,0.69 1.06,-0.63 2.58,1.71 5.09,-2.08 2.15,3.12 1.9,0.88 0.65,2.55 1.23,-0.02 -0.72,-1.08 0.52,-0.92 1.92,1.11 0.53,1.25 -2.82,2.61 0.07,3.19 -1.1,1.91 2.98,0.04 -0.12,1.78 1.37,2.33 -2.91,1.36 -1,1.85 1.08,1.19 -0.84,1.37 0,0 -2.32,0.68 -1.03,-0.97 -3.4,-0.59 0.62,-2.11 -0.55,-1.15 -3.93,2.24 -0.64,-1.82 -5.26,-0.96 -1.28,-1.12 -2.11,1.03 -0.18,1.55 -0.8,-0.55 -1.09,0.84 -0.84,-1.23 -2.07,-0.68 -2.2,2.36 -5.28,-1.2 -1.42,1.34 -2.14,0.1 -0.79,-1.17 -3.58,1.35 0,0 -0.93,-1 -1.32,0.06 -1.18,-1.79 0,0 -0.07,-1.88 1.05,-0.54 -0.92,-1.92 1.58,-1.07 -1.2,-1.56 2.32,-1.22 -0.9,-1.71 2.21,-1.4 -1.67,-1.11 0.02,-1.05 -4.16,-0.98 -1.53,0.52 0.15,-0.96 1.67,0.12 0.01,-1.26 1.25,-0.56 -3.2,-3.15 -0.99,-2.8 3.51,-1.53 0.05,-2.01 -2.24,0.9 -0.39,-0.92 0.91,-1.74 -2.5,-1.76 -2.81,0.7 -0.79,-0.52 0.2,-1.88 -2.53,0.76 -0.96,-0.53 -0.34,-1.06 0.81,-0.02 0.03,-0.96 -1,-1.36 2.13,-2.89 1.17,-0.08 -2.49,-2.47 -1.78,0.38 -0.2,0.93 1.17,0.97 -1.27,-0.12 -0.6,2.09 -1.38,-1.8 -1.62,-0.35 -1.78,1.21 -0.66,-1.04 -2.81,0.48 -0.71,-1.11 -1.81,0.75 -3.52,-3.22 -1.2,0.62 -0.43,-0.82 1,-0.83 -2,-2.79 3.01,-1.72 -1.62,-1.19 -0.08,0.83 -2.35,-0.95 -0.99,0.58 -3.13,-2.47 -3.27,-9.7799999 -1.97,-2.84 0,0 3.44,-0.91 0.5,1.18 0.47,-1.62 5.91,-1.84 2.13,0.43 6.53,-2.61 0.72,2.24 z" 
                fill="rgb(151, 144, 238)" 
                stroke="white" 
                stroke-width=".7px"
                title="Nord" 
                id="FR-59" 
            />
        </svg>