<svg xmlns="http://www.w3.org/2000/svg" viewBox="285.3740800000001 86.471588 61.29000000000025 44.69000200000002" width="61.29000000000025" height="44.69000200000002">
            <path 
                d="m 286.42408,109.22159 3.17,-6.14 -1.28,-0.51 -0.61,1.42 -1.17,-0.99 1.32,-2.12 -1.02,-0.41 -0.4,-2.090002 -1.01,-0.17 1.3,-0.57 -1.13,-0.78 1.13,-1.42 -1,-1.34 2.25,-3.24 -0.31,-0.47 -1.58,1.36 -0.71,-0.89 1.07,-0.78 -0.05,-1.76 1.36,-0.29 0.13,-1.56 1.49,0.38 0,0 2.27,1.14 -0.78,1.21 1.13,1.24 1.67,0.21 1.84,-1.42 0.68,1.23 0.91,-1.18 2.59,0.54 1.33,1.82 4.85,-1.38 2.66,0.2 2.34,1.32 0.55,-0.6 2.28,2.18 3.09,0.18 1.35,2.06 1.17,-1.18 1.47,1.5 1.05,-0.21 0.18,1.42 0.92,-1.01 1.35,0.14 0.17,1.99 0.86,0.48 1.61,-3.44 4.03,0.86 0.44,-3.12 2.04,0.05 0.62,-1.61 1.29,0.8 -1.09,-1.91 0.72,-0.74 0.4,1.01 0.88,-0.76 1.66,2.86 -0.27,-1.86 1.25,-0.72 1.14,0.19 0.92,1.48 1.17,-0.97 -0.15,-1.21 1.3,0.08 -0.01,1.4 1.54,-0.98 0,0 0.31,2.84 -1.22,0.32 0.65,1.13 -0.86,1.05 1.87,3.04 -0.5,3.130002 -1.33,0.8 1.25,1.78 -0.7,1.21 2.4,1.67 -2.95,0.43 0.06,3.6 -2.11,3.07 -1.8,-0.76 -1.33,0.86 0.71,2.47 2.17,0.11 0.08,3.45 -0.71,0.98 -0.88,-1.21 -1.8,0.61 0.38,2.2 0.71,0.45 0.32,-0.69 1.22,1.58 0.57,-0.9 -1.38,-0.27 0.19,-1.7 3.18,1.48 0.18,2.11 0.52,-2.44 0.66,0.84 0,0 -0.01,0.52 0,0 -0.36,0.56 1.63,0.45 -1.73,0.75 0.24,1.09 -0.68,-0.73 -0.95,1.64 0,0 -0.23,1.98 -2.39,-0.4 -0.89,1.29 -0.78,-1.29 -1.15,0.91 -1.69,-0.44 -2.02,0.87 -1.81,-1.67 -2.33,2.25 -1.32,-0.91 -0.99,0.71 -2.64,-2.78 -1.77,1.8 0,0 -1.34,-1.17 -0.16,-1.62 -0.91,1.54 -1.74,-0.41 0.56,-0.72 -1.82,-1.46 -1.07,0.47 0.24,-0.82 -2.7,-0.83 -0.72,0.74 -1.82,-2.43 -1.17,1.69 -2.42,0.51 -0.36,-1.75 -1.99,1 -0.94,-1.58 -0.48,0.6 -0.31,-0.93 -1.35,0.23 -0.64,-1.28 -3.28,2.18 -1.08,-0.49 -1.04,0.84 -4.8,0.39 0.06,-0.8 -1.02,0.21 -0.36,-0.75 -2.57,0.27 -1.12,-1.61 1.05,-1.12 -1.09,-1.06 -0.41,0.58 0,0 0.24,-2.09 2.02,-0.49 1.29,1.67 0.62,-1.81 -0.26,-0.98 -1.05,-0.11 -0.47,-4.74 -1.64,-1.74 0.76,-0.78 z" 
                fill="rgb(151, 144, 238)" 
                stroke="white" 
                stroke-width=".7px"
                title="Oise" 
                id="FR-60" 
            />
        </svg>