<svg xmlns="http://www.w3.org/2000/svg" viewBox="179.53408000000013 136.78158999999997 76.24000000000001 49.53000000000003" width="76.24000000000001" height="49.53000000000003">
            <path 
                d="m 180.36408,150.62159 2.62,-2.23 2.62,-0.79 1.3,-1.37 -0.92,-0.95 0.49,-0.61 2.06,0.41 -0.11,0.83 3.05,-0.18 4.37,-2.55 2.44,-0.02 0.94,1.6 1.04,-0.17 -0.55,0.83 1.15,0.79 0.72,-2.11 0.99,-0.11 4.76,1.02 2.69,1.59 -0.93,-1.23 1,-0.77 2.33,0.5 1.71,-2.31 0.86,0.29 -0.03,-0.87 2.56,-1.01 1.03,-2.23 1.92,-0.87 1.2,1.7 1.82,-1.18 1.43,0.22 0.55,-1.32 1.3,-0.4 0.01,1.12 1.25,-0.41 1.21,0.81 1.65,-1.86 1.58,1.4 0,0 -1.25,2.37 1.6,1.61 5.33,0.77 1.24,-1.17 0.37,1.32 1.08,-0.36 -0.22,1.44 1.09,0.02 -1.12,1.41 6.12,4.07 0.66,1.87 -1.91,1.93 1.73,0.73 0.07,1.62 1.86,-0.04 0,0 0.68,2.27 -0.54,1.36 1.17,0.15 0.18,1.7 3.09,1.39 0.56,0.67 -0.63,0.79 1.75,0.83 -1.01,1.47 0.55,1.11 -0.81,0.36 0.17,1.27 1.49,0.99 -2.57,4.22 -5.25,1.97 -0.73,1.17 -0.61,1.42 2.11,0.66 -0.75,1.75 1.75,2.94 -1.35,1.2 0,0 -1.55,0.85 -0.93,-0.48 -2.25,-4.12 -1.25,-0.58 -0.92,0.48 0.3,1.43 -0.62,-0.8 -3.67,-0.17 -1.76,-2.24 -0.14,-1.58 -0.43,0.72 -3.62,-1.45 -0.91,-5.61 0.51,-0.82 -1.1,-2.14 -2.28,-1.35 -5.33,0.97 0.06,0.91 -1.22,-0.43 0.51,1 -3.55,2.05 -0.56,1.92 -1.81,-0.19 -0.64,-1.03 -2.29,1.01 0,0 0.23,-4.37 -3.99,-0.36 -1.12,-3.35 1.17,-1.09 -2.57,-2.22 -1.74,-0.05 -0.57,0.98 0.89,0.78 -1.24,1.81 -2.07,-0.94 -1.33,2.39 -1.81,-1.61 -4.7,0.06 -1.72,2.24 -1.92,0.1 -2.24,1.71 -0.69,-2.64 -0.86,1.13 -1.73,-0.32 0.65,1.54 -2.08,0.75 -0.58,-1.79 -1.42,0.65 -1.95,-2.91 0,0 3.56,-3.82 1.47,-3.65 -1.42,-2.26 1.55,-1.79 -3.39,-2.84 -1.36,0.03 z" 
                fill="rgb(151, 144, 238)" 
                stroke="white" 
                stroke-width=".7px"
                title="Orne" 
                id="FR-61" 
            />
        </svg>