<svg xmlns="http://www.w3.org/2000/svg" viewBox="279.7840799999999 5.5615880999999785 67.83999999999997 64.37999990000002" width="67.83999999999997" height="64.37999990000002">
            <path 
                d="m 301.67408,5.5615881 0.24,0.14 0,0 1.97,2.84 3.27,9.7799999 3.13,2.47 0.99,-0.58 2.35,0.95 0.08,-0.83 1.64,1.19 -3.01,1.72 2,2.79 -1,0.83 0.43,0.82 1.2,-0.62 3.52,3.22 1.81,-0.75 0.71,1.11 2.81,-0.48 0.66,1.04 1.78,-1.21 1.62,0.35 1.38,1.8 0.6,-2.09 1.27,0.12 -1.17,-0.97 0.2,-0.93 1.78,-0.38 2.49,2.47 -1.17,0.08 -2.16,2.89 1.03,1.36 -0.03,0.96 -0.81,0.02 0.34,1.06 0.96,0.53 2.53,-0.76 -0.2,1.88 0.79,0.52 2.81,-0.7 2.5,1.76 -0.91,1.74 0.39,0.92 2.24,-0.9 -0.05,2.01 -3.51,1.53 0.99,2.8 3.2,3.15 -1.25,0.56 -0.01,1.26 -1.67,-0.12 -0.15,0.96 1.53,-0.52 4.16,0.98 -0.02,1.05 1.67,1.11 -2.21,1.4 0.9,1.71 -2.32,1.22 1.2,1.56 -1.58,1.07 0.92,1.92 -1.05,0.54 0.07,1.88 0,0 -0.57,0.54 -2.56,-0.88 -1.8,1.13 -1.03,-0.75 -3.42,2.11 -0.58,-0.65 1.08,-1 -1.15,-2.08 -3.93,2.55 0.99,-4.94 -2.86,-0.85 0.22,1.22 -0.75,0.47 0.96,0.97 -0.64,0.41 -3.14,-1.83 -2.18,-0.25 0.47,-1.57 -1.24,-0.35 -0.99,1.87 -0.77,-1.75 -2.3,0.63 -1.67,2.83 -1.77,-1.43 0.49,-2.84 1.33,-1.47 3.11,-1.18 -1.81,-2.32 -1.87,-0.27 -1.98,1.82 -1.09,-2.1 -0.72,0.29 0.5,1.39 -1.16,0.11 -1.21,-1.13 -1,1.19 -1.38,-0.52 -2.63,1.82 -0.83,-1.25 -1.84,0.58 -0.88,-2.21 0.51,-1.12 -5.41,-2.31 -0.6,-0.75 1.39,-1.43 -0.75,-0.62 -1.61,1.27 -4.3,-3.19 -1.78,-0.07 -4.01,2.07 -0.97,-1.44 0,0 -3.64,-3.14 1.34,-8.96 2.01,1.63 -2.44,-3.65 -0.7,-8.41 1.93,-5.02 -1.03,-6.31 3.31,-1.14 2.74,-3.2 2.4,-1.2399999 12.33,-3.51 z m 39.83,55.9099999 -1.57,0.09 0.33,2.45 1.09,-1.13 1.51,-0.09 -0.2,-1.08 1.13,-0.95 -0.71,-0.52 0,0 -0.84,0.23 -0.74,1 z" 
                fill="rgb(151, 144, 238)" 
                stroke="white" 
                stroke-width=".7px"
                title="Pas-de-Calais" 
                id="FR-62" 
            />
        </svg>