<svg xmlns="http://www.w3.org/2000/svg" viewBox="314.4140800000001 303.89158999999995 66.31000000000006 57.000000000000114" width="66.31000000000006" height="57.000000000000114">
            <path 
                d="m 321.84408,310.33159 2.97,1.46 1.47,-3.18 2.04,-0.59 0.38,-2.43 3.2,1.57 0.93,-3.04 3.64,-0.23 1.1,0.59 -1.34,1.61 -0.01,2.16 1.6,0.44 0.68,2.78 1.9,1.28 3.2,-0.73 0.29,1.86 1.28,0.81 7.19,0.25 1.22,1.24 3.61,-1.74 0.79,0.87 0,0 0.99,0 0,0 0.1,3.1 5.27,-0.93 1.71,3.68 1.84,0.23 0.7,1.65 0,0 2.56,2.62 -1.62,0.94 0.29,3.36 -1.39,1.33 1.76,0.98 0.05,1.44 2,1.5 -0.15,1.99 1.94,3.54 4.57,3.16 1.13,4.23 0.99,0.63 -0.89,3.53 -2.98,2.14 0.24,2.49 0,0 -2.51,-0.49 -0.07,-1.01 -1.39,-0.51 -1.12,2.54 -3.09,-0.63 0.31,-0.93 -1.59,-0.52 -0.25,1.29 -1.92,1.39 -1.98,-3.78 -1.68,0.21 -1.2,-1.76 -1.6,1.58 -1.75,0.2 -1.72,-0.17 -0.98,-1.25 -1.19,1.48 -1.1,-1.37 -0.47,1.21 -2.18,0.38 -2.35,2.51 -2.81,-0.03 0,0 -2.15,1.22 -0.35,1.69 -2.15,0.72 -2.13,-1.08 -1.08,-3.52 -1.6,-0.9 -0.69,0.44 -2.27,-1.44 -1.18,0.94 -1.76,-0.52 -1.14,0.68 -1.42,-1.5 0.33,-1.8 -2.66,-0.38 -0.26,-1.52 -1.26,1.22 -0.92,-0.95 -1.19,0.52 0.29,-1.31 -1.46,0.01 0,0 0.38,-4.47 -1.18,-0.39 -1.16,-2.08 1.03,-2.65 1.41,0 0.41,-1.06 -0.71,-0.47 0.45,-2.58 -1.33,-1.67 0,0 -2,-1.23 -2.29,-4.04 2.42,-1.05 -0.07,-1.28 1.98,0.15 0.31,-1.35 2.35,-1.61 -0.51,-1.1 0.83,-1.46 1.86,-0.62 -0.67,-1.43 0.36,-2.61 -1.25,-0.73 -0.89,-2.32 z" 
                fill="rgb(151, 144, 238)" 
                stroke="white" 
                stroke-width=".7px"
                title="Puy-de-Dôme" 
                id="FR-63" 
            />
        </svg>