<svg xmlns="http://www.w3.org/2000/svg" viewBox="391.47407999999996 300.59158999999994 37.82000000000011 50.559999999999775" width="37.82000000000011" height="50.559999999999775">
            <path 
                d="m 397.42408,305.73159 0.38,-3.76 1.26,-1.17 2.54,0.84 0.64,1.26 1.77,-0.39 0.62,-1.24 0.91,1.53 1.45,0.22 0.79,-2.12 1.77,-0.31 1.27,1.65 -1.29,1.18 2.35,1.53 -0.7,0.35 0.66,0.9 -0.39,1.94 2.25,0.22 0,0 0.94,1.49 -2.33,3.73 0.32,6.96 -1,1.81 3.27,1.31 -0.17,1.4 1.8,-0.99 1.39,1 1.54,3.26 0,2.26 7.62,-0.63 0,0 -0.53,1.8 -1.21,-0.48 0.25,1.36 1.31,-0.1 -0.15,1.8 1.77,0.46 0.77,1.76 -1.82,-0.03 -2.16,2.21 -0.91,3.03 -1.37,-0.56 -0.65,0.26 0.37,0.88 -4.04,-0.11 -1.64,0.84 -0.1,0.92 -3.42,-0.62 4.01,3.39 -3.78,3.4 -0.03,0.95 -0.97,0.03 0,0 -1.44,-2.31 -1.08,1.03 -1.81,-0.62 -0.1,-2.61 1.21,-1.73 -1.58,1.04 -1.11,-1.89 -6.03,-0.61 -1.19,-2.24 -3.15,-2.78 1.53,-4.36 -1.69,-0.41 -0.54,-1.1 1.21,-0.82 0.77,-4.49 -2.23,-1.1 -0.84,-1.52 0.95,-1.56 -4.19,-3.86 2.3,0.35 0.55,-1 -2.63,-2.61 2.24,-1.24 0.78,-3.59 2.41,-1.15 1.48,0.8 0.82,-1.48 -1.64,-1.68 0.99,-1.31 z" 
                fill="rgb(151, 144, 238)" 
                stroke="white" 
                stroke-width=".7px"
                title="Rhône" 
                id="FR-69" 
            />
        </svg>