<svg xmlns="http://www.w3.org/2000/svg" viewBox="196.77408 167.60159000000002 56.5 56.47000000000003" width="56.5" height="56.47000000000003">
            <path 
                d="m 212.92408,173.81159 2.29,-1.01 0.64,1.03 1.81,0.19 0.56,-1.92 3.55,-2.05 -0.51,-1 1.22,0.43 -0.06,-0.91 5.33,-0.97 2.28,1.35 1.1,2.14 -0.51,0.82 0.91,5.61 3.62,1.45 0.43,-0.72 0.14,1.58 1.76,2.24 3.67,0.17 0.62,0.8 -0.3,-1.43 0.92,-0.48 1.25,0.58 2.25,4.12 0.93,0.48 1.55,-0.85 0,0 4.9,3.44 -2.69,0.34 -0.41,1.83 0,0 -1.18,0.63 1.35,-0.07 -0.09,1.37 -2.05,0.15 0.01,1.38 0.57,1.01 1.44,0.14 -0.98,2.7 1.26,2.84 -1.39,0.49 -0.17,2.7 -0.89,-1.45 -1.21,0.69 0.61,3.64 -3.43,3.59 0.38,1 -3.13,0.95 -1.86,2.34 0.83,1.77 0.61,-0.66 0,0 -0.83,1.44 -2.41,0.92 0,0 -0.87,0.03 0,0 -2.2,0.71 -0.61,1.58 -1.04,0.17 -1.7,-1.67 -0.78,1.47 1.6,2.52 -1.02,0.62 -4.95,-2.62 -1.29,0.13 0,0 -0.98,0.42 -0.83,-0.86 -0.06,1.12 -1.62,1.02 -1.25,-1.47 -2.19,0.13 -2.03,-1.18 -0.61,-1.45 -0.78,0.58 -2.14,-1.36 -0.82,0.46 -0.05,-0.71 -0.75,1.7 -1.1,0.11 -2.47,-1.03 -0.85,-1.98 1.78,-2.11 -1.08,-0.49 -1.41,1.29 -2.12,-0.99 -3.21,0.32 0.3,-1.07 -1.09,-1.74 0,0 -0.17,-2.62 -1.74,-0.25 -0.71,-1.54 1.47,-1.67 1.6,0.03 -0.11,-1.78 -1.4,-0.45 -0.2,-1.32 5.64,-2.59 -1.09,-0.5 -0.22,-2.47 -1.38,-0.37 0,-1.89 2.9,-1.43 1.67,0.4 -0.28,-2.38 0.9,-0.91 -1.6,-1.54 0.7,-0.67 -0.64,-0.63 4.49,-2.93 -0.91,-3.65 1.17,-1.83 -0.78,-2.93 1.47,0.11 -0.61,-1.58 z" 
                fill="rgb(151, 144, 238)" 
                stroke="white" 
                stroke-width=".7px"
                title="Sarthe" 
                id="FR-72" 
            />
        </svg>