<svg xmlns="http://www.w3.org/2000/svg" viewBox="448.76408 322.53159 64.86999999999983 52.330000000000155" width="64.86999999999983" height="52.330000000000155">
            <path 
                d="m 457.20408,322.53159 1.47,0.61 0.39,5.58 1.27,0.42 0.41,1.38 2.05,-0.52 1.3,3.88 2.05,0.51 0.48,-0.7 1.93,0.95 0.03,-1.62 0.95,0.72 1.69,-0.34 1.24,1.37 -0.16,2.25 1.27,-0.7 0.23,1.44 4.2,-0.65 1.78,-3.61 -0.38,-0.86 2.59,-2.07 1.07,-3.51 2.44,-2.75 2.58,1.67 -0.12,1.1 -1.42,0.02 1.06,2.52 1.57,1.6 2.61,-0.43 1.24,1.74 -0.05,2.55 0.98,0.25 1.78,-2.57 1.84,-0.77 0,0 1.14,4.57 3.18,1.83 0.45,1.19 3.53,0.74 -0.97,3.04 0.77,0.8 0.23,4.17 2.22,0.55 -0.23,1.32 2.11,0.15 0.61,2.15 3.02,1.63 -1.01,2.64 -2.19,1.96 1.03,4.2 -2.21,2.31 -3.34,-0.2 -2.32,2.96 -2.18,0.09 -0.01,1.86 -1.84,0.56 -3.37,-1.9 -1.06,1.26 -2.57,-0.15 -2.04,1.8 0,0 -2.19,-0.87 -1.51,1.41 -1.3,-0.56 -1.25,0.96 0.26,2.22 -1.47,0.18 -3.58,-1.06 -0.03,-1.9 -1.28,-1.21 -1.63,0.89 -1.39,-1.08 0,0 -0.45,-1.45 -1.13,0.64 -1.76,-1.46 -1.52,0.63 0.74,-2.02 -1.65,-3.24 0.77,-1.06 -0.41,-1.41 2.31,-1.96 0.37,-1.99 -1.04,-0.3 0.94,-0.66 -2.55,-3.83 -3.4,-0.14 -3.45,-3.25 -2.15,0.9 -0.51,4.04 1.04,-0.35 -0.77,1.43 -0.77,-0.09 -4.16,-2.92 -2.1,0.05 -1.1,-3.96 -1.64,-1.49 0,0 0,-0.65 0,0 -2,-4.14 0,0 2.58,-1.67 0.61,-4.09 1.97,0.3 1.08,-1.12 z" 
                fill="rgb(151, 144, 238)" 
                stroke="white" 
                stroke-width=".7px"
                title="Savoie" 
                id="FR-73" 
            />
        </svg>