<svg xmlns="http://www.w3.org/2000/svg" viewBox="365.91408 249.29159 76.14000000000004 60.2600000000003" width="76.14000000000004" height="60.2600000000003">
            <path 
                d="m 390.05408,249.29159 0.1,0.69 1.34,-0.17 1.2,2.4 3.02,0.39 0.34,2.31 1.98,-1.17 0.57,0.3 -0.62,1.5 1.08,0.93 2.54,0.25 0.81,1.26 1.92,-0.46 -0.28,1.72 0.79,-0.05 1.97,3.14 2.71,0.66 -0.59,0.91 0.94,0.93 1.44,-1.32 2.43,0.22 0.37,-0.87 4.3,-1.14 0.06,-0.94 4.29,0.49 0.22,-0.83 1.91,-0.55 2.21,1.45 -0.21,0.79 0.96,-1.11 3.08,-0.43 0.38,-0.92 2.15,0.31 0,0 -0.17,2.18 0.5,0.93 1.46,-0.45 1.24,2.95 2.9,-0.3 0.42,1.71 2.16,0.61 0.08,1.6 -2.28,-0.34 -3.37,1.08 0.55,1.5 2.1,1.22 -1.27,2.45 1.33,0.08 0.65,1.85 -0.54,0.77 1.92,2.85 -1.89,1.64 0.72,0.62 -0.37,1.11 0,0 -0.85,0.01 0,0 -0.9,0.21 -0.11,3.51 2.56,1.04 -0.16,1.53 -3.87,0.83 -0.39,1.01 0,0 -3.26,-0.7 -1.23,-2.86 -1.58,-0.81 -0.05,0.91 -1.3,-0.28 -3.26,1.47 -3.02,-1.84 -1.39,0.84 -0.4,-1.07 -6.69,20.52 0,0 -2.25,-0.22 0.39,-1.94 -0.66,-0.9 0.7,-0.35 -2.35,-1.53 1.29,-1.18 -1.27,-1.65 -1.77,0.31 -0.79,2.12 -1.45,-0.22 -0.91,-1.53 -0.62,1.24 -1.77,0.39 -0.64,-1.26 -2.54,-0.84 -1.26,1.17 -0.38,3.76 0,0 -1.07,1.25 0.37,0.88 -1.8,-0.03 -2.17,1.72 -1.06,-0.13 0.19,-1.74 -1.19,0.59 -0.75,-1 -1.22,1.23 -1.88,-0.2 -1.25,-1.29 -3.5,1.59 0,0 -1.04,0 0,0 -0.86,-1.82 -3.42,-0.7 0.79,-1.92 -0.43,-1.76 0,0 -0.07,-1.04 1.95,-0.44 0.09,-1.26 1.7,0.41 0.71,-0.76 -0.82,-0.08 -0.36,-4.18 0.98,-3.8 -1.95,-0.95 0.02,-0.89 -3.59,0.21 -1.15,-2.55 -1.39,0.76 -2.64,-1.2 -0.23,-3.82 -0.95,-0.4 0.34,-1.1 -1,-1.93 -2.47,-2.9 -0.39,-2.55 0,0 1.28,0.69 3.23,-0.89 1.89,1 0.58,2.08 5.43,-2.37 2.88,-2.32 1.53,-0.54 0.86,0.61 -0.46,-3.56 2.34,-1.85 -2.59,-2.55 0.74,-2.88 -0.7,-1.71 -1.21,0.86 -0.64,-0.86 2.63,-1.72 0.69,-2.55 -1.46,-1.4 0.49,-2.07 2.79,-0.71 0,0 2.49,0.67 0.45,-2.27 0,0 z" 
                fill="rgb(151, 144, 238)" 
                stroke="white" 
                stroke-width=".7px"
                title="Saône-et-Loire" 
                id="FR-71" 
            />
        </svg>