<svg xmlns="http://www.w3.org/2000/svg" viewBox="314.58408 127.66159 48.40999999999997 62.16000000000004" width="48.40999999999997" height="62.16000000000004">
            <path 
                d="m 342.79408,127.66159 3.83,1.13 -0.47,1.02 1.55,2.05 -0.97,2.39 3.48,2.51 0.55,2.12 1.67,-0.62 1,2.56 1.6,-1.28 0.64,3.55 2.6,0.73 0.64,1.43 1,-0.92 0,0 0.08,2.4 -3.48,0.33 1.58,0.35 0.08,0.8 -1.43,0.4 -0.6,1.6 3.06,1.27 0.35,2.49 -1.52,2.16 0.81,0.7 -0.35,1.09 3.45,-0.7 -0.58,0.84 1.63,1.02 0,0 -2.41,0.74 0.51,0.93 -2.04,1.21 0.67,1.8 -3.09,0.86 1.3,2.34 -2.26,0.67 0.94,1.65 -0.59,1.79 1.27,0.57 -0.31,1.6 0,0 -1.6,-0.61 -0.46,1.72 -1.2,0.16 -2.22,-0.74 -1.16,1.06 -4.72,-0.5 -1.54,1.48 -2.33,-0.65 -1.33,3.38 1.33,3.44 -1.78,2.66 -2.78,1.46 -0.01,1.26 0,0 -2.94,0.43 -1.94,1.63 -0.76,-0.11 -0.09,-2.3 -1.5,0.95 -1.1,-0.83 0.74,1.33 -2.02,1.36 -6.07,-1.09 -1.57,1.04 -3.23,0.02 1.64,-2.53 0.97,0.51 0.68,-2.7 -0.71,-2.36 -3.41,-1.34 -0.81,-3.48 0,0 -0.48,-1.21 1.71,0.02 0.44,-1.41 -0.6,-0.3 2.27,-1.32 -0.43,-0.41 3.01,-0.72 -1.8,-1.75 0.49,-4.73 -0.69,-2.52 1.88,-3.53 -1.26,-1.67 1.2,-0.3 -0.51,-1.71 2.26,-1.02 -0.53,-0.9 0,0 0.55,-3.11 1.19,-1.34 -1.12,-0.69 0.34,-2.04 0,0 -0.91,-2.76 0.44,-1.26 -1.03,-1.05 1.13,-0.57 0.7,-2.43 -1.68,-2.83 0.81,-0.09 -0.56,-2.01 -0.74,0.06 0,0 -0.22,-0.74 2.01,-1.51 -1.03,-0.86 0.88,-1.2 0,0 1.77,-1.8 2.64,2.78 0.99,-0.71 1.32,0.91 2.33,-2.25 1.81,1.67 2.02,-0.87 1.69,0.44 1.15,-0.91 0.78,1.29 0.89,-1.29 2.39,0.4 z" 
                fill="rgb(151, 144, 238)" 
                stroke="white" 
                stroke-width=".7px"
                title="Seine-et-Marne" 
                id="FR-77" 
            />
        </svg>