<svg xmlns="http://www.w3.org/2000/svg" viewBox="217.98408 66.771588 71.6099999999999 52.37000200000007" width="71.6099999999999" height="52.37000200000007">
            <path 
                d="m 272.46408,67.141588 1.27,0.47 1.68,-0.84 0.15,1.97 2.56,1.69 3.74,4.53 3.06,1.64 4.45,10.26 0,0 -1.49,-0.38 -0.13,1.56 -1.36,0.29 0.05,1.76 -1.07,0.78 0.71,0.9 1.58,-1.37 0.31,0.47 -2.25,3.24 0.99,1.34 -1.13,1.42 1.13,0.79 -1.29,0.57 1.01,0.17 0.4,2.090002 1.02,0.41 -1.32,2.12 1.17,0.99 0.61,-1.42 1.28,0.5 -3.17,6.14 0,0 -0.83,0.81 -0.59,-0.76 -1.02,0.47 -2.1,-0.8 -1.22,-1.75 -1.56,0.59 -2.5,-1.38 -3.85,0.18 0.1,-0.91 -1.75,0.93 -0.32,1.28 -1.12,-0.05 -1.52,5.27 -3.08,-0.57 0.17,1.2 -1.86,-0.36 -0.98,2.04 -3.63,0.7 0.62,2.54 -2.34,0.48 -1.43,-1.9 -0.7,0.61 0.33,-1.52 -0.98,-1.73 -1.55,1.56 -0.15,-1.16 -2.25,-0.51 0.64,-1.45 2.46,0.53 -0.07,-2.96 -1.61,0.82 -0.07,-1.55 -2.35,0.01 -0.79,-1.97 -0.68,1.12 -0.81,-0.58 -4.31,1.08 -0.41,-1.23 -0.98,-0.01 0.56,-1.44 -2.32,0.81 -3.57,-3.42 -4.82,2.59 -3.59,0.74 0,0 0,0 0,0 -0.52,0.02 0,0 -0.17,-1.19 -0.41,0.82 -6.53,-2.01 -1.98,-2.54 4.06,-11.310002 1.23,-1.25 5.94,-2.61 10.37,-7.04 7.75,-1.14 7.77,-3.29 2.45,0.71 3.61,-1.43 11.3,-8.18 z" 
                fill="rgb(151, 144, 238)" 
                stroke="white" 
                stroke-width=".7px"
                title="Seine-Maritime" 
                id="FR-76" 
            />
        </svg>