<svg xmlns="http://www.w3.org/2000/svg" viewBox="272.4740799999996 47.901588 75.78000000000031 50.850000000000044" width="75.78000000000031" height="50.850000000000044">
            <path 
                d="m 282.82408,48.061588 0.59,0.47 0,0 0.97,1.44 4.01,-2.07 1.78,0.07 4.3,3.19 1.61,-1.27 0.75,0.62 -1.39,1.43 0.6,0.75 5.41,2.31 -0.51,1.12 0.88,2.21 1.84,-0.58 0.83,1.25 2.63,-1.82 1.38,0.52 1,-1.19 1.21,1.13 1.16,-0.11 -0.5,-1.39 0.72,-0.29 1.09,2.1 1.98,-1.82 1.87,0.27 1.81,2.32 -3.11,1.18 -1.33,1.47 -0.49,2.84 1.77,1.43 1.67,-2.83 2.3,-0.63 0.77,1.75 0.99,-1.87 1.24,0.35 -0.47,1.57 2.18,0.25 3.14,1.83 0.64,-0.41 -0.96,-0.97 0.75,-0.47 -0.22,-1.22 2.86,0.85 -0.99,4.94 3.93,-2.55 1.15,2.08 -1.08,1 0.58,0.65 3.42,-2.11 1.03,0.75 1.8,-1.13 2.56,0.88 0.57,-0.54 0,0 1.18,1.79 1.32,-0.06 0.93,1 0,0 -0.75,1.3 2.03,0.47 -3.35,3.8 -0.12,2.61 -1.34,1.18 -0.48,-0.86 0.37,2.4 -1.25,0.64 1.3,1.75 -0.9,2.2 1.45,0.26 0.83,3.7 0,0 0.02,0.18 0,0 0,0 0,0 -1.54,0.98 0.02,-1.4 -1.3,-0.08 0.14,1.2 -1.17,0.97 -0.93,-1.48 -1.14,-0.19 -1.24,0.72 0.27,1.86 -1.67,-2.85 -0.88,0.76 -0.4,-1.01 -0.72,0.74 1.09,1.91 -1.29,-0.81 -0.62,1.61 -2.04,-0.04 -0.44,3.11 -4.03,-0.86 -1.61,3.44 -0.86,-0.48 -0.17,-1.99 -1.35,-0.14 -0.91,1.02 -0.18,-1.42 -1.05,0.21 -1.47,-1.5 -1.16,1.15 -1.35,-2.06 -3.09,-0.18 -2.28,-2.18 -0.54,0.6 -2.34,-1.32 -2.66,-0.2 -4.85,1.38 -1.33,-1.82 -2.59,-0.54 -0.91,1.18 -0.68,-1.24 -1.84,1.43 -1.67,-0.22 -1.13,-1.24 0.78,-1.21 -2.27,-1.14 0,0 -4.45,-10.26 -3.06,-1.64 -3.74,-4.53 -2.56,-1.69 -0.15,-1.97 -1.68,0.84 -1.27,-0.47 0,0 3.08,-2.85 1.3,-4.21 1.63,-2.15 1.91,-0.63 -0.48,0.5 1.28,1.42 0.98,-0.42 2.62,1.19 0.56,-0.85 -0.46,-1.35 -2.27,-0.34 -1.32,-2.7 -1.62,-0.14 -0.53,-1.04 0.68,-5.65 2.99,0.16 z" 
                fill="rgb(151, 144, 238)" 
                stroke="white" 
                stroke-width=".7px"
                title="Somme" 
                id="FR-80" 
            />
        </svg>