<svg xmlns="http://www.w3.org/2000/svg" viewBox="246.08408000000014 413.27159 52.20999999999998 35.999999999999886" width="52.20999999999998" height="35.999999999999886">
            <path 
                d="m 259.49408,414.10159 2.97,-0.83 -0.12,1.28 -1.82,-0.01 -0.33,1.07 1.74,2.14 2.39,0.37 -0.05,1.07 1.41,1.3 0.32,-0.76 1.14,0.83 0.28,-1.06 1.96,-0.56 -0.83,3.42 2.23,0.37 0.97,1.49 3.9,-2.89 0.72,-2.51 0.5,1.42 1.75,0.72 0.61,1.82 1.89,-1.09 -0.91,-1.54 0.33,-1.62 1.85,0.28 -0.01,1.01 1.06,0.56 0.43,-0.93 -0.71,-0.76 1,0.99 1.66,-1.78 1.79,-0.36 1.33,0.84 0.84,-1.74 1.34,0.61 2.3,-0.86 0,0 -0.97,1.07 0.96,0.96 -0.48,0.68 4.16,1.12 -0.65,1.72 -0.88,-0.11 -0.7,1.91 -1.07,0.27 0.85,1.28 0.86,-0.2 0.26,1.17 0.29,-0.8 1.26,0.14 0.98,1.21 -0.43,0.51 0,0 -1.93,0.17 -1.45,-0.92 0.07,1.82 -2.89,-0.79 -0.2,2.23 -1.27,-1.15 -1.11,1.73 -1.34,-1.15 -3.54,-0.05 0.19,2.89 1.61,1.23 -0.56,1.38 -1.68,0.52 0.35,0.87 -1.21,0.41 -0.34,1.68 -3.58,0.02 1.76,1.28 -0.17,1.18 -0.77,-0.1 0,0 -0.93,-0.2 -1.69,2.05 -0.61,-1.23 -1.15,2.18 -3.5,-1.09 -0.71,1.15 0.45,1.03 -2.65,0.34 2.5,0.55 0.14,1.08 -3.79,1.07 0.27,0.77 -2.49,1 0.1,-1.46 -1.49,-0.13 -1.25,-1.55 -1.66,1.51 -1.1,-1.12 -1.1,0.99 -4.3,0.61 0,0 -2.44,-0.22 1.24,-2.21 -1.26,-0.56 0.69,-0.76 -1.22,-1.31 0.92,-1.29 -1.7,-1.43 -3.81,0.07 -0.49,-0.81 2.79,-3.48 -0.51,-1.7 1.23,0.07 0.46,-1.35 -1.35,-0.46 -2.35,1.47 -0.96,-2.05 0,0 0.65,-2.39 1.78,-0.33 -0.42,-1.76 3.02,0.98 1.33,-0.65 -0.36,-2.14 -1.07,0.23 -0.26,-0.75 2.21,-0.38 0.9,-4.38 0.93,-0.44 -1.44,-1.61 -0.93,0.38 -1,-0.82 1.12,-4.11 1,-0.16 0.87,2.24 0.44,-0.95 4.07,-0.06 z" 
                fill="rgb(151, 144, 238)" 
                stroke="white" 
                stroke-width=".7px"
                title="Tarn-et-Garonne" 
                id="FR-82" 
            />
        </svg>