<svg xmlns="http://www.w3.org/2000/svg" viewBox="278.98408 424.3415900000001 58.129999999999995 46.82999999999987" width="58.129999999999995" height="46.82999999999987">
            <path 
                d="m 297.86408,427.32159 2.92,-1.34 -0.24,-0.96 1.73,0.04 0,0.81 0.35,-1.08 1.54,-0.45 2.1,2.23 1.83,0.03 -2.15,1.39 2.21,0.22 1.39,-0.81 1.45,1.65 1.08,-0.26 2.36,1.69 0.87,2.21 2.14,0.33 1.67,3.67 1.24,0.52 -1.29,1.84 2.15,1.15 -0.07,1.88 1.21,0.91 -0.79,1.84 4.04,5.03 3.51,1.6 3.37,-1.87 1.93,1.28 1.78,-0.07 0.92,2.64 0,0 -1.13,2.21 -3.94,0.86 -2.43,1.51 -1.45,-1.75 -3.09,-0.87 -1.25,5.35 2.44,2.89 -0.64,-0.09 -0.15,1.14 0.53,1.57 -3.98,2.84 0,0 -4.05,-0.99 -3.25,1.21 -3.75,-1.75 -0.98,0.36 -1.01,-1.09 -1.52,1.61 -0.29,2.72 -1.83,-1.86 -4.06,1.19 -0.83,-1.99 -0.94,-0.27 0,0 -0.67,-0.82 1.42,-2.05 -0.32,-1.49 -0.13,0.71 -0.93,-0.52 0.08,1.2 -1.09,0.56 -3.1,-1.34 -2.68,-2.73 -0.47,-1.64 -6.22,-2.77 0.43,-1.31 1.27,-0.49 -0.38,-1.76 -2.39,-0.29 -0.11,-0.65 1.87,-0.66 -2.33,-1.92 -0.25,-2.88 -2.3,-0.95 0.18,-1.54 -1.57,-1.41 -0.02,-2.92 0,0 0.77,0.1 0.17,-1.18 -1.76,-1.28 3.58,-0.02 0.34,-1.68 1.21,-0.41 -0.35,-0.87 1.68,-0.52 0.56,-1.38 -1.61,-1.23 -0.19,-2.89 3.54,0.05 1.34,1.15 1.11,-1.73 1.27,1.15 0.2,-2.23 2.89,0.79 -0.07,-1.82 1.45,0.92 z" 
                fill="rgb(151, 144, 238)" 
                stroke="white" 
                stroke-width=".7px"
                title="Tarn" 
                id="FR-81" 
            />
        </svg>