<svg xmlns="http://www.w3.org/2000/svg" viewBox="495.81408000000005 208.49159 15.989999999999952 23.890000000000015" width="15.989999999999952" height="23.890000000000015">
            <path 
                d="m 499.04408,208.49159 1.25,2.43 3.07,0.71 4.01,2.96 -0.41,1.38 0.8,1.76 -1.44,2.01 -0.24,2.26 0.63,0.83 0.86,-0.73 1.86,0.47 2.37,4.18 -0.44,1.33 0,0 -2.35,0.91 -2.17,-0.99 -1.69,0.63 0.78,2.48 -2.56,1.27 0,0 -1.39,-2.47 0.43,-1.57 1.3,0.81 -0.18,-1.71 -1.46,-0.74 -0.32,-1.49 -3.5,0.14 -0.43,-0.92 0,0 0.6,-0.69 -1.75,-2.48 0.91,-1.42 -1.77,-6.77 2.71,-4.14 0,0 z" 
                fill="rgb(151, 144, 238)" 
                stroke="white" 
                stroke-width=".7px"
                title="Territoire de Belfort" 
                id="FR-90" 
            />
        </svg>