<svg xmlns="http://www.w3.org/2000/svg" viewBox="450.1240800000002 446.9115900000002 52.80999999999972 44.52999999999997" width="52.80999999999972" height="44.52999999999997">
            <path 
                d="m 454.39408,451.25159 0.86,-1.2 2.03,0.33 0.84,1.69 2.12,-0.78 0.08,-1.27 0.96,-0.21 0.48,1.54 2.06,0.93 1.45,2.6 3.51,-4.31 2.18,-0.07 2.33,-3.06 1.45,-0.11 3.16,3.12 2.37,0.73 1.29,-1.52 0.03,-1.78 2.9,0.06 1.36,-1.03 1,1.94 1.93,-1.73 1.48,0.04 0.46,0.89 0,0 0.98,2.33 1.14,-0.51 1.13,1.03 1.68,-0.1 0.89,2.12 -0.51,2.17 1.52,2.17 4.67,1.67 -1.4,3.96 0.71,0.14 -0.46,1.36 1.86,1.5 0,0 -0.39,1.58 -1.17,1.13 -1.38,-0.23 -0.14,1.19 -4.64,-0.23 -1.09,3.88 -5.45,3.87 0.34,0.99 2.13,-0.67 0.82,0.53 0.57,-0.82 0.81,0.72 -1.33,1.35 0.66,2.46 -1.76,1.54 -0.87,0.57 -0.76,-1.19 -1.59,-0.33 -2.68,2.06 -4.65,0.48 -1,1.7 0.34,1.44 -1.54,-0.03 -2.38,-1.78 -2.89,0.27 -1.84,1.58 -0.2,3.49 -2.49,-0.12 -0.07,-0.64 1.49,-0.23 -0.21,-1.98 -4.28,0.06 -0.82,-1.57 -3.13,0.12 -0.14,-1.18 -1.52,0.44 -0.14,0.82 1.2,0.07 -0.63,1.12 1.79,-0.2 0.41,0.97 -2.35,-0.62 -1.32,1.83 -1.29,-0.18 -1.29,-1.12 0.45,-2.58 -1.34,-0.12 -0.16,-1.22 -3.2,-0.27 -0.01,-1.42 -1.02,-0.62 0,0 0.48,-3.15 3.23,-1.82 0.1,-0.83 -1.49,-2 -2.32,-0.07 1.38,-2.12 -0.93,-2.46 2.81,-0.14 1.6,-1.09 -3.72,-3.54 1.06,-3.89 -2.86,-1.31 1.49,-0.58 -0.56,-1.55 0.87,-1.86 4.04,-0.93 0.71,-1.7 -2.45,-1.95 0,0 0.17,-0.56 z" 
                fill="rgb(151, 144, 238)" 
                stroke="white" 
                stroke-width=".7px"
                title="Var" 
                id="FR-83" 
            />
        </svg>