<svg xmlns="http://www.w3.org/2000/svg" viewBox="408.2740799999999 411.3915900000001 46.13999999999993 44.07999999999987" width="46.13999999999993" height="44.07999999999987">
            <path 
                d="m 408.32408,416.87159 5.73,0.97 1.26,4.96 2.53,-1.93 1.76,0.06 5.72,-2.76 0.69,1.37 1.33,0.37 2.46,-2.16 -0.84,2.1 0.33,2.79 3.09,1.09 0.81,-1.16 3.57,1.65 0.83,-0.66 1.23,0.81 -0.08,2.6 2.18,0.2 0.68,1.8 1.94,0.27 0,0 0.25,3.02 1.65,-0.21 -1.49,6.68 2.46,0.56 0.56,1.52 1.15,-0.02 -2.54,3.67 -0.08,2 1.26,-0.79 3.27,0.27 4.38,5.31 0,0 -0.22,0.52 0,0 -1.51,1.73 -1.95,0.04 -2.8,1.93 -3.15,-0.03 -4.32,-1.44 -4.76,-3.06 -3.38,-0.6 -2.13,0.74 -5.26,-2.9 -0.86,-2.32 -3.09,-2.89 -4.48,-2.2 -4.44,-0.44 0,0 3.05,-2.32 -0.07,-1.37 1.19,0.09 0.12,-1.26 -2.39,-3.37 -2.74,-0.91 -0.64,-1.52 0.68,-4.58 -0.59,-1.55 -1.42,-0.07 -0.98,-3.18 0,0 0.05,-3.42 z m 14.12,-5.28 0.49,0.5 0,0 0.67,-0.2 -0.12,1.33 2.32,0.57 0,0 -0.01,0.35 0,0 -1.98,0.93 -1.51,3.92 -4.05,-0.68 0.22,-1.98 -0.87,-0.64 1.51,-2.73 0,0 0.48,-0.7 0,0 0.09,0.06 0,0 0.8,-0.34 0,0 0.68,-0.39 0,0 0.77,-0.2 0,0 0.43,0.05 0,0 0.08,0.15 z" 
                fill="rgb(151, 144, 238)" 
                stroke="white" 
                stroke-width=".7px"
                title="Vaucluse" 
                id="FR-84" 
            />
        </svg>