<svg xmlns="http://www.w3.org/2000/svg" viewBox="119.49408 253.59159000000014 73.35000000000005 49.15999999999994" width="73.35000000000005" height="49.15999999999994">
            <path 
                d="m 121.82408,257.06159 1.39,1.12 -0.53,2.12 3.05,1.5 0.3,3.31 -2.43,-3.85 -2.21,-0.09 -1.61,-1.93 0.4,-1.23 -0.69,-0.8 2.33,-0.15 z m 11.29,-0.08 1.56,2.18 1.06,0.18 0.65,1.77 2.99,0.48 0.24,1.39 3.18,0.12 0.98,2.69 1.48,-0.38 1,0.97 4.75,0.84 0.14,-0.83 1.8,-0.39 -1.88,-2.72 0.69,0.17 0.42,-1.08 -1.56,-2.36 0.59,-1.34 -0.55,-0.76 2.2,-1.52 1.3,0.47 0.37,6.31 4.07,-1.85 -0.56,-4.51 1.35,-0.81 1.88,0.67 1.24,-3.08 2.86,2.72 2.25,0.71 0,0 3.84,1.48 3.26,-0.86 0.62,1.4 1.29,-0.76 1.59,1.94 0,0 -0.27,0.64 1.46,0.19 -0.61,0.98 1,-0.13 -0.22,0.82 2.15,0.81 -0.95,2.2 2.65,3.03 2.86,1.49 -1.19,2.51 2.94,4.09 -0.97,0.84 1.77,1.38 -0.95,1.4 1.83,1.11 -0.54,2.78 1.01,1.62 -0.25,1.38 -1.6,0.31 1.63,3.94 -1.21,1.38 -0.15,2.06 0.87,0.38 0.61,-1.34 2.76,1.74 -0.81,1.52 -1.74,-0.02 -0.16,0.9 -1.4,0.42 -0.37,1.28 -2.09,-0.51 -0.85,1.35 -1.29,-0.09 0,0 -2.24,-1.26 0.08,-1.02 -1.62,0.14 -0.39,1.36 -1.55,-0.55 -1.91,0.96 -1.17,-0.68 1.31,-2.94 -1.86,1.17 -3.28,0.1 -0.88,1.95 -1.7,0.04 0,0 -3.56,0.1 -0.17,2.7 -4.55,-3.84 0.84,2.57 -1.99,-3.06 -5.16,-0.01 -1.94,-3.69 -5.58,-0.97 -5.37,-4.36 -1.46,-0.14 -1.85,-6.92 -3.78,-5.28 -0.75,0.24 -2.06,-3.24 -5.25,-4.51 -0.41,-4.08 1.27,-0.06 0.08,-1.12 3.15,-3.57 0.64,-2.51 2.09,-1.22 z" 
                fill="rgb(151, 144, 238)" 
                stroke="white" 
                stroke-width=".7px"
                title="Vendée" 
                id="FR-85" 
            />
        </svg>