<svg xmlns="http://www.w3.org/2000/svg" viewBox="439.16408000000007 165.54159 74.95999999999998 43.389999999999986" width="74.95999999999998" height="43.389999999999986">
            <path 
                d="m 510.75408,165.54159 0.66,1 -1.84,-0.36 1.18,1.24 -1.38,5.33 0.97,1.29 -1.34,1.57 1.7,1.19 2.62,-0.4 0.8,1.83 0,0 -1.11,0.78 -4.69,9.48 1.04,0.94 -0.32,1.28 -3.18,5.46 -2.35,1.35 -1.33,4.97 0.72,0.59 -1.36,1.17 0.96,2.53 -3.46,1.71 0,0 -0.52,0.44 0,0 -1.54,-2.2 -5.8,-3.3 -1.78,-2.6 -1.64,0.82 -0.84,1.82 -2.71,1.09 -1.78,-3.47 -1.91,-1.17 -4.23,0.31 -3.45,1.46 0.14,-0.95 -2.44,-1.18 0.64,-0.58 -0.35,-1.92 -1.01,-1.05 -3.8,1.26 -1.54,2.91 -1.32,-0.05 -0.89,1.32 -0.9,-0.14 1.34,-1.86 -1.13,-0.57 -2.01,3.18 0,0 -1.57,-3.07 -1.55,1.7 -0.92,-0.27 0.32,-2.72 -0.77,-2.28 -1.43,-1 -0.84,0.36 -1.06,-2.03 -1.67,-0.57 0.03,1 -1.21,-0.97 1.77,-1.42 -0.57,-0.78 1.13,-1.67 -0.15,-1.96 2.11,-0.95 -1.83,-2.46 -1.91,-0.48 0,-2.12 -1.24,-1 -0.94,1.11 -2.67,-4.6 -1.88,-0.52 -2.18,1.55 -0.39,-1.6 1.02,-1.39 -2.01,-0.74 3.14,-1.84 0,0 1.54,0.73 0.5,-1.41 3.09,-0.68 1.19,1.05 -0.15,-1.03 1.52,-1.08 -0.51,-0.78 3.17,0.79 1.94,-2.33 0,0 0.92,0.88 2.93,-1.71 1.98,0.96 -0.83,1.58 0.5,1.49 -1.71,2.22 1.59,0.33 0.15,-1.97 1.39,0.15 -1.12,2.08 1.89,0.26 0.49,2.88 1.7,-0.86 2.85,0.24 0.67,-1.49 0.18,1.33 1.02,0.55 1.47,-1.75 -0.05,-1.7 3.43,0.66 2.58,-2.26 1.41,1.87 2.18,-0.63 0.29,1.46 6.01,-2.51 1.89,0.97 -0.5,-1.55 2.24,-1.99 0.98,2.79 4.96,1.09 0.08,0.73 0.89,-0.17 -0.23,0.84 1.5,-0.99 0,0 0.42,-0.81 0,0 1.45,-1.24 1.17,1.2 3.6,-3.81 z" 
                fill="rgb(151, 144, 238)" 
                stroke="white" 
                stroke-width=".7px"
                title="Vosges" 
                id="FR-88" 
            />
        </svg>