<svg xmlns="http://www.w3.org/2000/svg" viewBox="333.4840799999999 172.63159000000005 61.680000000000064 67.22000000000003" width="61.680000000000064" height="67.22000000000003">
            <path 
                d="m 337.18408,187.36159 0.01,-1.26 2.78,-1.46 1.78,-2.66 -1.33,-3.44 1.33,-3.38 2.33,0.65 1.54,-1.48 4.72,0.5 1.16,-1.06 2.22,0.74 1.2,-0.16 0.46,-1.72 1.6,0.61 0,0 0.58,1.97 1.59,-1.1 1.55,0.61 1.66,2.92 1.81,1.19 -0.41,1.03 1.73,0.95 -0.76,2.25 0.86,0.43 -1.76,2.55 2.14,-0.33 1.53,3.1 2.31,-1 -0.35,-1.12 1.41,0.52 -0.36,2.07 2.14,0.91 1.29,4.57 2.06,1.8 -0.05,0.78 -1.31,-0.09 0.52,1.29 1.18,0.26 0.6,-1.41 0.78,1.35 -0.77,3.12 3.79,-0.07 0.76,-0.75 1.67,1.07 0.64,-1.27 1.23,0.05 0.85,1.17 1.57,-1.35 0,0 0.8,-0.73 0,0 1.46,1.12 0.43,-1.26 -0.74,-0.34 1.31,-0.29 -0.18,1.41 0.94,1.18 2,0.32 0,0 0.78,1.23 -2.72,1.92 0.73,0.02 0.28,2.13 2.48,-0.5 0.13,5.56 -1.72,1.44 -1.35,-0.53 -0.87,1.1 1.89,2.58 -2.35,0.21 0.92,1.15 -2.65,4.81 0,0 -0.48,1.82 0,0 -2.47,2.26 0.33,4.09 -1,1.1 -0.81,-0.59 0.26,1.18 -0.83,0.81 1.05,0.87 -0.41,1.07 1.09,-0.06 -0.01,2.27 0,0 -2.62,-0.03 -0.66,1.58 -1.04,0.24 -1.25,-1.33 0.01,-2.69 -0.98,-1.12 -0.19,0.82 -2.98,0.93 -0.53,-1.63 1.43,-1.34 -1.15,-1.25 -1.88,2.01 -0.16,1.41 -1.26,-1.6 -2.53,0.41 -2.15,-3.17 -2.43,-0.98 -1.2,0.62 -0.28,-2.52 -2.76,-1.84 -0.62,-2.06 -0.45,4.11 -3.98,-0.73 -1.89,2.25 -2.59,-2.14 -0.44,0.81 -1.7,0.11 -1.24,-2.1 -1.61,0.28 -1.77,-1.3 0.1,-2.23 -0.92,-0.7 -3.35,1.9 -1.86,-0.77 0,0 -1.66,-1.81 -0.17,-1.7 0.87,-1.14 -1.43,-1.44 0.3,-0.82 -1.96,-1.34 -0.02,-1.03 -1.27,0.21 0.16,-2.49 7.21,-1.82 -0.51,-2.88 0.81,-1 -1.53,-1.08 0.71,-0.39 -0.15,-2.01 1.7,-0.3 1.39,-1.95 0,0 0.49,-0.34 0,0 1.35,-1.53 -0.12,-2.1 -1.07,-0.79 1.05,-0.64 -3.11,-2.69 -0.58,-2.71 -0.82,0.06 0.56,-1.07 z" 
                fill="rgb(151, 144, 238)" 
                stroke="white" 
                stroke-width=".7px"
                title="Yonne" 
                id="FR-89" 
            />
        </svg>