<svg xmlns="http://www.w3.org/2000/svg" viewBox="275.39408000000003 129.63159000000002 31.389999999999986 40.55000000000004" width="31.389999999999986" height="40.55000000000004">
            <path 
                d="m 277.59408,138.79159 -0.36,-1.69 1.1,-0.72 -2.02,0.17 0.34,-2.41 -1.26,-2.49 0.6,-0.66 1.07,0.84 0.88,-2.2 0.53,1.11 3.56,-0.59 0,0 2.68,-0.04 2.08,2.11 4.45,-2 1.47,1.22 -0.61,1.51 1.03,1 1.32,-1.93 1.24,1.65 2.26,0.01 1.29,1.49 4.04,-1.23 -0.02,1.61 1.86,0.49 0.39,1.93 1.27,0.14 -0.16,2.71 0,0 -1.36,0.88 -0.86,1.52 0.53,1.41 -0.7,0.31 0.74,3.84 1.33,1 0,0 -3.78,1.77 -0.25,2.57 -0.67,0.8 -1.48,-0.18 -0.66,1.92 -0.73,-0.2 2.12,2.73 -1.22,0.63 -0.63,3.04 -3.4,-0.19 1.78,2.15 -1.35,0.54 -0.99,3.7 0,0 -0.62,1.12 -1.55,-0.02 -1.09,-0.39 -0.32,-1.28 -1.42,0.03 -1.07,-2.91 0.47,-2.52 -1.24,-1.3 -2,-0.17 0.25,-2.34 -2.03,0.02 -0.98,-2.24 -1.58,-0.76 0.33,-1.68 -1.46,-0.88 2.07,-2.76 -1.88,-0.9 -0.09,-4.39 0.79,-0.54 -0.89,-0.33 0.32,-0.96 -1.61,-0.65 0.72,-1.27 z" 
                fill="rgb(151, 144, 238)" 
                stroke="white" 
                stroke-width=".7px"
                title="Yvelines" 
                id="FR-78" 
            />
        </svg>