<svg xmlns="http://www.w3.org/2000/svg" viewBox="996.4410500000008 583.15878 77.89004999999929 65.34999999999991" width="77.89004999999929" height="65.34999999999991">
            <path 
                d="m 1035.3111,590.53878 4.57,-2.66 1.84,-2.32 0.4,-2.4 2,0 4.88,2.4 8.71,-1.2 2.96,2 4.72,-1.28 3.75,0.6 0,0 -2.41,5.04 0.89,2.64 4.55,3.92 2.16,3.28 -0.96,2.56 -4.79,4.88 -3.28,1.51 -9.57,0.96 -1.44,1.12 0.4,1.36 2.64,0.32 0.56,1.44 -2.16,2.16 0.24,1.28 2.24,0.32 0.88,1.92 0,0 -0.72,2.24 -3.36,3.52 -8.32,1.92 0.8,2.8 -1.6,10.32 -2,2.69 -4.24,2.56 -2.08,0.88 -3.36,-1.92 -5.36,0.56 -2.71,-1.52 -2,0.32 -4,3.75 -5.68,-1.99 -0.48,-2.32 -2.78,-0.84 0,0 -1.52,-6.25 -2.94,-3.3 0.03,-2.17 1.82,-0.36 -0.62,-1.86 1.97,-0.24 0.28,-3.07 -6.61,0.69 -0.24,-2.8 -3.28,-3.52 -0.15005,-4.27 -3.5,-3.4 0.81,-5.36 0,0 4.93005,-0.33 2.72,2.24 1.28,-0.64 0.16,-2.32 -2.56,-2.64 0.56,-2.24 1.68,-1.92 4.24,-1.52 1.04,-2.08 4.88,-1.52 4.8,2.24 4.16,-2.64 7.21,0.06 1.56,1.11 1.2,-0.36 z" 
                fill="rgb(151, 144, 238)" 
                stroke="white" 
                stroke-width=".7px"
                title="Aglonas novads" 
                id="LV-001" 
            />
        </svg>