<svg xmlns="http://www.w3.org/2000/svg" viewBox="700.74105 428.7487800000001 32.00999999999999 42.45999999999992" width="32.00999999999999" height="42.45999999999992">
            <path 
                d="m 732.75105,464.48878 -2.61,1.38 -4.26,-1.5 -1.86,1.68 -1.26,5.16 -4.86,-3.18 -2.76,-0.72 -1.14,-2.7 -3.24,-0.9 -10.02,-8.33 0,0 0.96,-4.77 5.2,-0.96 3.36,-2.72 -0.64,-2.48 1.2,-4.4 -1.36,-1.28 -2.48,-0.4 -1.28,-3.76 1.52,-1.6 3.44,-1.2 0,0 0,-0.14 0,0 2.68,-0.12 0.6,-2.7 1.4,-0.1 5.2,3.1 5.8,1.1 0,0 3.4,8 -0.9,2.7 0.2,8 1,6.09 z" 
                fill="rgb(151, 144, 238)" 
                stroke="white" 
                stroke-width=".7px"
                title="Aizkraukles novads" 
                id="LV-002" 
            />
        </svg>