<svg xmlns="http://www.w3.org/2000/svg" viewBox="55.96105300000005 376.81878 91.11999699999996 100.53000000000009" width="91.11999699999996" height="100.53000000000009">
            <path 
                d="m 85.421053,376.81878 3.08,3.44 3.03,1.23 -1.11,3.93 1.87,3.72 2.25,-1.05 5.959997,1.2 5.59,-1.17 1.9,2.52 -0.12,3.75 2.05,3.56 1.96,0.7 0.2,2.73 1.98,2.73 1.94,-0.74 6.44,1.23 5.25,5.61 3.74,1.84 3.04,6.4 0.22,2.66 -1.23,1.23 3.18,0.7 -0.23,6.06 -2.71,2.14 6.12,2.91 0.89,1.74 4.13,0.18 0,0 -0.66,3.99 2.9,7.09 -0.7,4.4 -3.87,2.76 -0.69,2.11 -1.83,-0.15 -4.15,2.19 4.03,7.51 -1.07,2.77 1.43,1.86 -0.66,0.73 0,0 -5.59,0.42 -3.6,2.8 -4.5,1.3 0,0 -10.39,-3.5 -2.5,4.8 -1.4,0.2 -2.8,-2.1 -2.6,2.1 -2.7,-2.2 -0.5,-1.6 0,0 -0.1,-0.9 0,0 0.9,-1.5 4.8,-0.9 1,-1.1 -2.1,-6.4 1.9,-4.9 -4,-7.8 1.2,-2.1 -0.6,-2.8 -5.4,-2.4 -4.699997,2.6 -8.5,-0.2 -3,2.3 -2.8,0.7 -4.1,-4.5 1.5,-3.59 -1.1,-1.3 -3.2,2.3 -1.8,0 -0.89,-2.1 0,-4.6 -8.2,-3.5 -7.5,-7.1 -0.34,-4.74 0,0 2.7,-2.75 -1.05,-2.55 -1.3,-12.7 3.9,-0.02 1,-1.05 0.7,-5.8 8.56,-1.2 2.05,-2.7 7.2,0.8 3.09,-1.95 1.05,-2.35 -2.55,-5 0.55,-3.95 0.8,-0.94 z" 
                fill="rgb(151, 144, 238)" 
                stroke="white" 
                stroke-width=".7px"
                title="Aizputes novads" 
                id="LV-003" 
            />
        </svg>