<svg xmlns="http://www.w3.org/2000/svg" viewBox="784.03105 571.5987799999996 64.53999999999996 57.49000000000035" width="64.53999999999996" height="57.49000000000035">
            <path 
                d="m 848.57105,618.28878 -2.07,-0.09 -2.55,1.77 -1.62,2.59 -2.57,1.17 -0.58,1.42 -2.84,0.96 -1.08,-4.51 -1.51,-0.18 -3.35,-5.42 -12.43,-8.01 1.93,6.11 1.21,0.21 2.58,3.83 2.07,0.54 -0.39,1.14 -5.2,2.56 0.64,2.77 -1.92,0.87 0.86,2.52 -2.35,0.55 0,0 -0.26,-0.82 -4.02,-1.35 -5.77,-1.08 -4.31,-3.82 -7.92,-3.1 -0.42,-2.08 2.28,-2.26 -1.19,-1.11 1.09,-4.64 -3.41,-3.19 0.89,-4.28 -1.14,-1.02 -1.01,-0.43 -3.47,4.31 -4.71,-0.09 0,0 1.44,-9.83 4.2,-7.1 0.2,-2.6 2.7,-2.7 1,-4.9 0,0 0,-3.98 0,0 3.56,-1.42 7.28,1.12 4.4,-1.04 3.44,0.32 5.04,3.12 3.44,-1.04 4.63,2.72 1.84,1.92 -0.01,8.64 1.25,4.26 2.04,1.79 10.02,4.32 0.72,2.4 -2.88,2.46 -0.36,1.74 2.76,2.4 0.3,2.28 1.32,1.32 4.02,0.12 1.14,1.2 z" 
                fill="rgb(151, 144, 238)" 
                stroke="white" 
                stroke-width=".7px"
                title="Aknīstes novads" 
                id="LV-004" 
            />
        </svg>