<svg xmlns="http://www.w3.org/2000/svg" viewBox="607.1710499999996 30.37878500000005 87.19000000000028 122.54999499999991" width="87.19000000000028" height="122.54999499999991">
            <path 
                d="m 650.26105,35.948785 0.42,-0.09 0,0 0.37,22.56 5.3,3.4 2.42,13.06 -0.82,2.44 1,1 2,7.5 5.9,2.5 0.7,2.5 1.7,1 4.3,-1.7 5.3,3.1 0,0 1.9,4.8 2.2,1.7 7.84,1.799995 0.5,6.8 2.64,4.97 -2.04,1.42 -0.13,2.48 -3.17,5.23 0.06,1.92 4.47,3.57 -1.16,1.51 1.26,4.21 -1.62,0.31 2.76,2.7 0,0 -6.62,1.18 -0.36,1.62 2.34,5.75 -0.42,1.74 -1.62,1.14 -5.46,-0.12 -1.2,-4.8 -2.94,-1.2 -3.42,1.5 -2.22,4.56 -6,4.92 -2.52,-1.56 -2.64,0.3 0,0 -0.01,-0.94 0,0 -0.97,-2.2 2.3,-7.2 -1,-2.1 -1.8,-1 -1.3,-0.6 -1.4,1 -4.6,-2.7 -1.5,-5 0,-10.82 -7.2,-4.7 -8.5,0.2 -4.5,-3.7 -4.8,-7.6 -3.4,0 0,0 0,0 0,0 -6.34,-18.799995 -1.12,-8.96 -2.08,-4.8 -3.84,-2.24 -0.32,-1.6 3.52,-1.28 2.24,-3.52 -0.32,-1.44 -3.36,-2.88 -0.96,-7.2 -2.85,-10.01 0,0 1.82,-1.47 6.63,6.2 3.08,-3.42 -0.22,-1.87 0.89,-0.38 4.31,-0.32 2.91,3.7 3.67,-4.49 4.75,-1.08 0.17,-5.6 10.69,-2.47 4.39,5.57 z" 
                fill="rgb(151, 144, 238)" 
                stroke="white" 
                stroke-width=".7px"
                title="Alojas novads" 
                id="LV-005" 
            />
        </svg>