<svg xmlns="http://www.w3.org/2000/svg" viewBox="71.74105300000002 315.73878000000013 52.24999700000001 56.49999999999994" width="52.24999700000001" height="56.49999999999994">
            <path 
                d="m 97.571053,316.72878 3.829997,3.74 2,0 3.3,3.89 4.3,0.6 0.7,3.38 -1.6,1 0.3,2.4 4.5,5.8 5.4,4.6 1,2 -1.1,2.6 1.5,1.4 2.29,6.1 -0.8,2.5 -1.69,1.6 -3.5,-0.4 -2,2.8 -2.4,0.3 -1.9,2.3 0.1,1.8 -4.4,0 -0.1,-1.6 -5,0 -4.499997,8.7 -3.4,-0.4 -3.1,-2.7 -2.71,-0.16 0,0 -0.93,-1.75 -7.91,-0.56 1.45,-1.35 -0.67,-1.69 -3.5,1.47 -4.01,-2.27 -1.28,-3.76 1.18,-2.57 0,0 9.56,-0.01 -0.71,-4.5 2.12,-1.04 0.05,-2.3 1.4,0.05 -1.6,-17.32 4.49,0.01 -1.36,-8.85 3.72,-1.71 0.07,-5.09 z" 
                fill="rgb(151, 144, 238)" 
                stroke="white" 
                stroke-width=".7px"
                title="Alsungas novads" 
                id="LV-006" 
            />
        </svg>