<svg xmlns="http://www.w3.org/2000/svg" viewBox="946.06105 143.32878000000008 185.7000499999997 127.79999999999998" width="185.7000499999997" height="127.79999999999998">
            <path 
                d="m 946.06105,218.53878 4.61,-4.12 1.6,-4.48 1.76,-1.12 2.08,1.76 9.6,-0.32 5.11,-9.6 -0.31,-6.39 1.76,-1.28 0.16,-1.76 -1.28,-1.28 0.63,-1.76 4.64,-1.12 1.12,-2.4 1.92,-0.32 2.08,1.44 6.24,-1.76 -0.48,-1.92 -1.76,-1.28 -0.48,-3.04 2.4,-1.44 0.8,-6.08 -0.64,-2.4 -3.2,-4.32 1.92,-1.28 0.36,-2.9 0,0 4.78,-3.44 0.47,-4.23 -0.67,-1.38 1.14,-1.53 5.17,-2.76 2.03,-2.7 2.95005,0.09 2.13,3.55 2.01,0.56 -0.04,1.66 -1.56,1.7 1.17,2.16 3.64,-0.75 1.61,-2.63 2.38,0.97 0.43,1.38 5.99,0.12 2.16,2.35 -1.23,3.7 1.67,1.19 2.62,-0.09 1.75,1.53 2.24,0.03 6.48,4.95 6.73,0.63 5.58,2.34 5.34,-0.72 2.08,1.88 3.81,-0.5 0.53,1.53 1.81,0.07 0.58,1.81 2.49,0.19 4.92,4.54 3.56,0.15 1.08,1.63 2.2,-2.07 1.6,-3.37 6.65,3.94 5.27,-2.97 3.68,0.72 0.93,-0.66 -0.32,-1.22 1.93,0.37 3.35,-1.62 7.62,0.69 1.16,0.81 -1.53,4.91 2.04,-0.88 1.45,3.82 -1.77,4.19 -1.28,11.49 -2.07,-0.4 -3.15,11.32 2.02,-0.5 5.39,4.78 5.92,-1.5 5.37,4.65 5.95,1.83 4.58,7.89 0,0 0.24,12.04 -2.24,1.18 -1.53,2.43 -2.05,-0.5 -3.4,3.64 -8.06,1.34 -0.56,7.95 -3.78,0.72 -0.24,3.69 -2.09,0.66 0,0 -1.65,-0.19 0,0 -2.79,0.37 -1.08,2.27 -2.23,-0.84 -1.47,-1.89 0.39,-5.81 -6.24,-0.31 -0.31,7.45 -4.02,-0.8 -1.51,2.45 -3.8,0.37 -8.87,-9.91 -4.36,2.15 -5.22,5.68 0.22,2.64 -2.71,0.62 -6.2,-0.65 -2.53,6.3 -4.29,-2.76 -1.16,3.26 -3.74,2.01 -2.08,-0.93 0,0 -11.66,-4.5 -0.96,-1.52 -6.39,-1.21 0.62,-3.57 4.51,-1.71 0.03,-1.49 -3.72,-0.87 -4.39,-2.45 -6.63,-5.35 -0.27,-2.14 -1.21,-0.69 -4.9,0 -5.16,2.02 -3.82005,-0.68 -1.55,1.09 -3.47,-0.06 -1.71,-0.94 -0.41,-3.7 -1.63,-0.62 -1.71,1.52 -4.01,-1.27 -2.73,1.4 -2.64,-3.45 -2.81,-0.69 -3.6,1.03 0.12,5.32 -4.78,-0.03 -6.11,-4.2 0.49,-4.95 -5.53,-1.49 -0.58,1.24 -2.1,-0.49 1.72,-4.52 -6.8,-4.45 -0.46,-5.89 -0.99,-1.49 0,0" 
                fill="rgb(151, 144, 238)" 
                stroke="white" 
                stroke-width=".7px"
                title="Alūksnes novads" 
                id="LV-007" 
            />
        </svg>