<svg xmlns="http://www.w3.org/2000/svg" viewBox="692.6910499999999 247.74878000000018 89.05000000000007 114.49000000000001" width="89.05000000000007" height="114.49000000000001">
            <path 
                d="m 773.02105,292.63878 -2.53,4.66 -2.76,1.56 -0.84,1.8 9.24,1.8 2.16,4.92 3.45,4.02 -0.08,8.4 -7.44,4.96 -7.36,8.23 -1.68,-0.4 -2.4,-3.51 -2.15,-0.64 -1.6,1.12 0.08,2.48 2.87,3.27 -1.59,2.96 -1.68,0.72 0.3,3.42 0,0 -1.23,-0.46 -0.42,2.09 -2.34,-1.05 0.61,3.79 1.36,1.64 -1.45,2.49 -3.6,1.54 -0.13,1.97 -6.82,6.81 -4.44,-3.33 0.2,-3.32 -1.43,-4.28 -0.99,-0.5 0.18,-2 -1.91,-2.12 -3.24,0.61 -5.09,3.48 -2.44,0.06 0.23,2.9 -4.25,1.97 0.95,2.71 -3.41,1.57 2.22,1.2 -0.64,2.06 -1.78,-0.18 -3.42,-2.49 -3.99,0.46 -2.77,-2 -4.8,-0.68 -2.29,-2 0,0 1.4,-5.76 -2.69,-4.25 2.12,-2.13 -1.4,-1.79 -0.58,-3.29 0,0 1.8,-1.08 -0.24,-5.64 -1.56,-2.64 0,-2.04 -4.68,-5.4 0.36,-3.12 4.92,-2.64 1.08,-1.56 -4.32,-6.12 -4.44,-4.08 0,0 0,-1.32 0,0 2.48,0.32 4.4,-3.36 4.8,0.32 1.76,-1.68 0,-1.84 4.72,-4.56 0.08,-2.95 -2.32,-1.36 -2.88,-0.16 -0.4,-6.24 -1.68,-2.96 0.48,-4.64 1.28,-1.2 -1.76,-4.88 -1.36,-0.94 -3.84,-0.24 -0.48,-1.92 -6.24,-0.8 0,-5.44 0,0 1.56,-0.34 2.5,-3.2 2.2,-0.7 5.5,0 3.4,3.3 1.9,-0.6 1.6,-1.4 3.3,-6.5 0,0 0.01,-0.09 0,0 4.47,0.32 3,-1 7.1,5.1 3.7,5.6 -1.9,3.9 0.7,2.3 6.9,0.5 1.3,1.7 -2.4,2.69 -0.4,3.8 4.4,6.2 6.9,2.5 4.5,7.8 2.09,1.3 5.4,0.7 0,-4.3 1.5,-0.1 1.5,1.4 z" 
                fill="rgb(151, 144, 238)" 
                stroke="white" 
                stroke-width=".7px"
                title="Amatas novads" 
                id="LV-008" 
            />
        </svg>