<svg xmlns="http://www.w3.org/2000/svg" viewBox="291.5710499999999 461.9187800000001 81.04000000000019 90.75000000000011" width="81.04000000000019" height="90.75000000000011">
            <path 
                d="m 372.56105,533.19878 -1.9,0.85 1.47,2.24 -1.2,1.48 1.68,4.91 -10.97,6.82 -0.76,2.21 -3.29,0.96 -1.62,-3.93 -1.92,-1.64 -4.66,0.97 -3.18,-2.84 0.15,-2.03 -1.9,-2.7 -1.92,-7.15 2.28,-1.12 -2.7,-9.86 -3.82,-0.12 -1.85,-2.55 -3.82,-0.24 -1.39,1.18 0.11,2.15 -2.69,1.37 0,0 -3.87,-0.73 -2.96,2.4 -2.37,-1.88 -6.93,-1.73 -6.33,-4.98 -6.66,0.09 -4.97,-1.2 -1.2,-4.44 0.72,-2.64 1.2,-1.2 5.21,-0.36 -2.26,-2.19 0.5,-1.34 -1.29,-0.78 -0.36,-1.92 -4.92,-2.4 -0.6,-2.16 1.15,-1.49 3.17,-1.27 -0.6,-7.08 3.6,-6.48 0,-2.52 -1.56,-2.16 0.49,-2.63 0,0 1.13,0.4 0.52,1.61 2.05,0.58 4.26,-1.83 -1.13,-1.76 4.7,0.61 0.35,-1.71 0,0 4.14,0.43 -1.08,3.84 1.2,3.83 1.56,1.44 1.44,-0.12 2.4,-4.67 2.4,-0.36 3,-3.72 5.88,-0.6 2.4,-2.4 -3.36,-1.92 -0.72,-2.04 1.8,-1.68 5.16,-1.08 2.04,4.68 2.64,0.96 3.6,-1.92 3.12,-0.27 2.52,3.72 1.92,0.84 1.92,4.32 3,-0.24 1.44,1.92 -0.24,2.04 -2.16,0.96 2.64,11.64 0,1.56 -1.44,1.32 0,4.92 1.8,2.16 3.59,-0.24 1.68,1.32 0.24,1.8 -1.68,3.48 0.84,1.92 3.48,0.48 0,0 1.44,2.39 0,0 -0.36,2.04 -5.16,3.84 -0.48,2.52 6,4.92 3.96,6 z" 
                fill="rgb(151, 144, 238)" 
                stroke="white" 
                stroke-width=".7px"
                title="Auces novads" 
                id="LV-010" 
            />
        </svg>