<svg xmlns="http://www.w3.org/2000/svg" viewBox="545.17105 403.66878 54.82999999999993 40.59999999999985" width="54.82999999999993" height="40.59999999999985">
            <path 
                d="m 598.97105,415.71878 1.03,2.09 -1.26,2.39 0.49,6.76 0,0 -5.66,0.21 -9.92,10.22 -9.9,2.32 -2.3,2.2 2.54,0 0.4,0.83 -2.12,1.01 0,0 -1.95,0.52 -11.76,-7.4 -2.54,-0.18 -3.69,-7.93 0,0 -2.34,-2.99 0,0 -1.74,0 0,0 -0.18,-2.4 -2.9,-2.5 0.71,-1.9 7.09,-4.4 2.1,3.9 1.5,-0.2 1,-1.4 -0.2,-4.9 -2.1,-0.9 -1.4,-1.9 0.1,-3 2.6,-2.5 1.6,0.3 2.3,3.6 2.2,0.4 9.6,-4 7.7,1.3 9,5.4 8.3,3.2 z" 
                fill="rgb(151, 144, 238)" 
                stroke="white" 
                stroke-width=".7px"
                title="Baldones novads" 
                id="LV-013" 
            />
        </svg>