<svg xmlns="http://www.w3.org/2000/svg" viewBox="1084.8211 336.43878 59.24000000000001 54.819999999999936" width="59.24000000000001" height="54.819999999999936">
            <path 
                d="m 1087.3011,385.90878 -0.88,-3.06 1.44,-2.31 -0.08,-2.24 -2,-1.04 -0.96,-1.76 1.44,-1.68 5.04,-2.48 4.55,1.6 6.72,0.16 0.8,-1.12 -0.48,-2.88 2.24,-4.4 -1.36,-2.96 1.04,-2.32 3.36,-2.32 8.72,-1.92 4.8,-5.3 2.64,-0.15 0.88,1.43 1.76,-0.88 -0.08,-3.35 -3.66,-8.33 0,0 4.8,0.24 1.08,1.32 4.32,-3.72 2.26,0.57 0,0 -0.37,1.82 8.74,0.59 -3.84,12.91 -0.96,12.01 -2.45,2.21 -5.86,-0.77 -2.74,6.37 -0.15,7.5 -2.48,5.59 0.39,5.19 0,0 -1.58,0.83 -1.63,-1.45 -3.4,-0.64 0.08,-1.6 -2.12,-3.25 -3.95,0.55 -3.08,-6.64 -5.69,0.03 0,3.66 1.99,1.48 -0.24,0.7 -6.53,2.09 z" 
                fill="rgb(151, 144, 238)" 
                stroke="white" 
                stroke-width=".7px"
                title="Baltinavas novads" 
                id="LV-014" 
            />
        </svg>