<svg xmlns="http://www.w3.org/2000/svg" viewBox="1003.3910999999997 251.87877999999998 123.58000000000004 156.00999999999985" width="123.58000000000004" height="156.00999999999985">
            <path 
                d="m 1042.1611,270.19878 2.08,0.93 3.74,-2.01 1.16,-3.26 4.29,2.76 2.53,-6.3 6.2,0.65 2.71,-0.62 -0.22,-2.64 5.22,-5.68 4.36,-2.15 8.87,9.91 3.8,-0.37 1.51,-2.45 4.02,0.8 0.31,-7.45 6.24,0.31 -0.39,5.81 1.47,1.89 2.23,0.84 1.08,-2.27 2.79,-0.37 0,0 1.19,0.13 0,0 -0.19,3.25 -1.92,1.68 -3.72,-0.12 -4.44,3.12 -7.92,10.44 -0.6,10.34 -3.24,8.04 -0.36,4.08 2.76,4.2 8.04,6.96 8.76,10.07 1.68,0.24 0.6,-2.04 2.4,-1.08 1.2,1.68 -0.12,2.28 -2.16,1.08 -0.36,3.24 0.12,4.92 1.68,2.88 1.2,0.96 2.4,-2.88 2.52,-0.24 2.28,1.44 3.6,0.48 1.67,4.92 0,0 3.66,8.33 0.08,3.35 -1.76,0.88 -0.88,-1.43 -2.64,0.15 -4.8,5.3 -8.72,1.92 -3.36,2.32 -1.04,2.32 1.36,2.96 -2.24,4.4 0.48,2.88 -0.8,1.12 -6.72,-0.16 -4.55,-1.6 -5.04,2.48 -1.44,1.68 0.96,1.76 2,1.04 0.08,2.24 -1.44,2.31 0.88,3.06 0,0 -0.5,1.91 -8.08,3.68 0.61,1.08 5.47,-0.22 -1.69,0.61 0.19,1.29 -1.92,2.03 -1.78,0.49 -2.83,-3.38 -3.63,2.83 -0.48,2.51 1.89,0.74 0.53,7.36 0,0 -0.75,0.15 0,0 -1,0.9 -5.68,-0.22 -1.82,-1.57 -5.15,-1.81 -15.02,0.62 -3.32,-6.5 -4.29,2.33 -2.69,-2.52 -5.89,1.14 -2.74,-0.83 -0.12,4.2 -6.65,-0.34 -0.57,-0.3 1.28,-4.76 -7.91,-1.56 -2.05,4.94 -1.68,-0.25 0.1,-2.55 -5.74,-6.19 0,0 2.58,-3.23 0,0 2.1,-0.15 1.63,-1.81 4.27,-5.84 -0.16,-1.96 0,0 11.78,0.13 10.24,2.72 2.24,1.44 0.96,2.64 5.59,-0.08 2.4,-1.44 2.16,-6.88 5.04,-2.64 1.44,-4.08 3.52,-0.16 0.88,-2.16 2.48,-1.68 4.91,1.84 3.44,-5.2 -2.32,-5.28 1.2,-4.72 -1.12,-2.55 -1.44,-1.21 -2.4,4.72 -1.36,-2.08 -2.8,0.08 -2.08,-1.36 -1.84,-4.49 1.6,-1.52 4.08,0.4 3.6,-2.24 2,-4.64 0.16,-4.08 1.44,-2.48 2.88,-2.08 -0.4,-2.4 -1.68,-1.36 -3.52,0.56 -0.96,1.04 -2.56,-0.16 -1.2,-1.92 -8,-1.04 -5.36,-3.76 -7.03,-2.4 -0.08,-2.33 -2.4,-0.48 -2.88,3.2 -2.32,-1.04 -1.76,-2 1.2,-7.52 -19.17,0 0,0 0.34,-0.46 0,0 7,-8.26 5.2,-10.18 4.31,-1.49 1.57,-1.67 0.27,-0.99 -0.85,-0.47 5.81,-6.91 0.52,-2.57 z" 
                fill="rgb(151, 144, 238)" 
                stroke="white" 
                stroke-width=".7px"
                title="Balvu novads" 
                id="LV-015" 
            />
        </svg>