<svg xmlns="http://www.w3.org/2000/svg" viewBox="512.67105 478.10878 95.87999999999988 91.56000000000017" width="95.87999999999988" height="91.56000000000017">
            <path 
                d="m 577.19105,481.30878 0.43,4.75 1.12,1.04 1.52,-1.36 2.48,0.8 0.32,4.96 3.36,3.19 0.48,2.56 2.15,0.32 3.76,-3.28 3.92,5.6 4.48,2 -0.88,1.76 -1.92,0.32 -1.2,2.96 0.88,2.64 4.48,1.44 -1.6,2.4 -0.48,5.7 -1.36,2.24 -5.76,1.67 -5.99,3.92 0.55,2.64 8.8,2.32 0.8,1.6 -0.88,2.4 -2.8,2.64 -4.32,2.08 0,1.36 1.2,2.08 6.32,3.92 3.04,-2.88 7.33,2.58 0,0 1.13,4.78 -0.81,5.33 -2.49,-0.36 -7.1,1.87 -9.67,4.48 -1.87,2.99 -5.34,-1.03 -5.03,-5.02 -2.05,-0.12 -3.92,1.7 -3.23,-7.27 -8.6,-0.69 0.34,3.96 -5.3,2.82 -2.98,-0.37 -5.86,3 -4.71,4.8 -4.17,-0.36 -5.08,1.48 -1.52,-0.6 0.64,-3.33 -3.18,-2.66 -0.08,-2.08 -8.26,-0.82 -0.02,-5.33 -4.36,-3.78 -1.23,-5.93 0,0 0.69,-2.63 4.8,-1.6 2.08,-6.72 6.08,-0.32 0.32,-2.4 -2.72,-2.72 -0.64,-1.92 0.96,-1.28 2.4,0.16 2.56,2.72 8,0.64 1.76,-1.44 0.16,-2.72 -2.56,-2.56 -7.84,-1.28 -1.92,-2.55 -4.96,-2.72 -3.84,-4.96 0,-2.72 2.72,-2.56 -1.44,-6.24 0.32,-4.96 -2.04,-3.22 0,0 1.73,-0.86 1.33,-3.62 2.97,-3.08 -0.85,-1.55 0.95,-2.83 0,0 6.31,0.67 2.4,2.56 8.32,1.28 0.64,1.76 2.24,1.28 5.43,2.71 3.68,0.32 1.12,-4.15 3.2,-3.52 8.8,-2.56 3.36,1.92 2.4,-3.36 3.52,3.36 z" 
                fill="rgb(151, 144, 238)" 
                stroke="white" 
                stroke-width=".7px"
                title="Bauskas novads" 
                id="LV-016" 
            />
        </svg>