<svg xmlns="http://www.w3.org/2000/svg" viewBox="741.0310500000003 148.76878 76.26999999999975 58.160000000000025" width="76.26999999999975" height="58.160000000000025">
            <path 
                d="m 776.75105,151.70878 10.63,-0.3 5.76,-2.64 1.84,1.28 4,6.8 2.8,1.28 0.56,2.48 -2.88,2.16 0.48,1.76 8.24,0.8 2.96,3.84 -0.64,1.52 -5.68,0.16 -2.24,1.44 -0.16,1.84 3.52,5.12 4.96,2.32 3.52,-5.6 1.52,0.4 1.36,3.6 -0.64,2.16 -6.72,5.12 0,0 -4.48,0.4 -1.76,-1.44 -1.36,0.16 -1.28,3.51 -1.52,0.64 -4.16,-1.51 -3.8,3 -0.65,1.68 0.65,0.78 -2.49,2.13 0,0 -2.03,-1.56 -8.62,0.21 -3.88,3.53 -2.65,0.81 -0.64,5.81 -3.12,1.31 -2.14,0.22 0.2,-3.12 -1.21,-3 -2.05,-1.31 -7.8,5.12 -0.58,-1.97 -1.65,0.47 -1.77,-1.72 -0.74,1 -0.98,-1.56 -1.46,-0.28 -0.35,2.09 -2.01,0.81 0,0 -3.06,-4.28 1.84,-3.11 -2.08,-2.56 0.32,-3.2 -1.6,-3.52 1.2,-4.72 0,0 5.84,-0.64 3.68,1.84 1.92,-1.2 2.96,-4.4 0.24,-3.04 -1.09,-2.11 0,0 3.04,-0.24 1.44,-1.36 5.44,-8.95 3.91,-1.52 0.72,-1.52 3.2,0.32 1.12,-0.88 2.08,-3.2 0.24,-2.16 0,0 z" 
                fill="rgb(151, 144, 238)" 
                stroke="white" 
                stroke-width=".7px"
                title="Beverīnas novads" 
                id="LV-017" 
            />
        </svg>