<svg xmlns="http://www.w3.org/2000/svg" viewBox="248.99105000000003 384.37878 69.75999999999993 91.28000000000003" width="69.75999999999993" height="91.28000000000003">
            <path 
                d="m 256.68105,384.37878 6.24,5.22 9.43,-1.29 3.06,2.92 1.02,3.95 2.49,-1.16 1.87,0.3 0.42,4.55 6.33,-1.29 5.25,4.6 2.84,-2.09 3.96,-0.37 1.18,-1.25 2.82,1.93 2.21,-1.99 0.48,0.82 -1.19,1.94 1.8,1.04 0,0 1.62,0.58 0.35,2.98 3.46,4.87 -0.85,5.48 0,0 1.68,2.7 -0.39,3.18 0,0 0.94,5.2 -1.53,-0.64 -2.35,1.29 0.94,1.59 1.75,0.3 -1.01,4.13 0,0 -3.42,0.34 0.19,2.32 -1.72,0.61 -0.25,1.11 1.84,0.58 5.38,-0.71 0.08,1.41 1.35,0.09 0.29,5.84 2.15,1.49 1.36,3.12 -3.11,1.56 0.92,1.13 -1,1.28 -0.07,4.91 -1.25,1.8 -1.81,0.03 -0.66,-1.46 -1.4,0.91 -6.34,-0.7 -0.67,2.26 1.36,1.68 -0.84,2.38 1.92,0.42 0.7,3.39 3.2,1.31 0,0 -0.35,1.71 -4.7,-0.61 1.13,1.76 -4.26,1.83 -2.05,-0.58 -0.52,-1.61 -1.13,-0.4 0,0 -4.45,-6.55 -2.34,-7.8 -3.84,-3.84 -7.56,-2.03 -1.56,0.9 0,5.45 -4.68,2.64 -1.5,4.14 -3.48,-1.5 -1.02,-1.5 0.78,-4.38 -1.02,-1.92 0.96,-5.57 -1.44,-0.72 -3.9,0.96 -2.4,-1.5 -2.04,-4.14 1.62,-1.92 0.12,-3.45 -2.22,-6.84 2.04,-3.71 -0.24,-2.16 -2.64,-2.4 0,-6.24 -0.6,-0.78 -1.96,2.16 -1.8,0.12 -1.26,-5.34 -2.4,-4.08 1.32,-11.7 3.66,-8.96 0,-5.46 z" 
                fill="rgb(151, 144, 238)" 
                stroke="white" 
                stroke-width=".7px"
                title="Brocēnu novads" 
                id="LV-018" 
            />
        </svg>