<svg xmlns="http://www.w3.org/2000/svg" viewBox="1054.2911000000001 569.52878 146.59000000000015 83.61000000000001" width="146.59000000000015" height="83.61000000000001">
            <path 
                d="m 1139.8211,653.13878 -7.76,-3.88 -5.8,-6.3 -1.8,-0.7 -2,2.3 1.5,2.5 -0.5,4.2 -1.1,0.9 -3.5,0 -4,-1.4 -3.8,-2.4 -4.4,-1.2 -12.29,-9.59 -8.1,-3.6 -3.5,0.8 -2.9,2.1 -0.8,2.2 -2.5,0.59 -1.8,-2.99 1.4,-6 3.2,-5.4 -0.5,-2.2 -2.3,-1.5 -11.5,-1.4 -5.98,0.22 0,0 -0.88,-1.92 -2.24,-0.32 -0.24,-1.28 2.16,-2.16 -0.56,-1.44 -2.64,-0.32 -0.4,-1.36 1.44,-1.12 9.57,-0.96 3.28,-1.51 4.79,-4.88 0.96,-2.56 -2.16,-3.28 -4.55,-3.92 -0.89,-2.64 2.41,-5.04 0,0 3.75,-2.48 7.33,0.18 2.42,0.4 -0.07,2.46 6.08,0.56 2.16,-3.12 -0.5,-2.26 1.94,-2.11 -2.57,-1.78 0.73,-1.29 3.36,-0.48 3.36,1.76 2.96,-0.16 4.08,-2.48 1.23,-5.35 1.5,0.08 0.17,1.51 1.27,0.06 2.55,2.58 3.28,-0.08 1.6,1.44 2.4,0.32 7.27,-2.56 2.9,0.33 1.4,1.15 0,0 1.2,4.43 3.56,2.15 1.84,4.65 5.1,1.6 0.8,1.2 9.3,0.1 3.3,2.7 3.2,0.1 1.9,1.5 3.2,-0.4 2.2,-1.8 2.39,3.1 1.5,-0.5 2.8,-4 1.6,-0.7 7.1,0.7 10.98,-8.36 2.5,0.2 0.02,6.08 2.98,-0.78 0.9,-1.5 0,0 0.41,-0.83 0,0 1.88,0.46 0.48,2.72 -9.2,13.36 2.62,3.74 0,0 -3.1,2.29 -0.43,2.75 -2.75,-0.04 -0.97,-1.38 -4.17,-1 -3.35,1.69 -1.25,3.19 -2.91,1.57 0.05,1.57 -2.34,3.43 -0.52,4.45 -2.12,3.67 -2.15,1.44 -0.89,2.8 -2.28,-1.86 -2.71,0.03 -3.09,3.06 -3,1.41 -2.23,-0.63 -2.18,1.03 -0.08,1.47 1.3,0.15 2.37,2.46 -3,2.53 -0.37,1.65 -1.88,0.15 2.22,2.64 -0.59,3.03 -1.48,-0.12 -0.37,2.43 -2.42,0.36 -0.68,1.56 z" 
                fill="rgb(151, 144, 238)" 
                stroke="white" 
                stroke-width=".7px"
                title="Dagdas novads" 
                id="LV-024" 
            />
        </svg>