<svg xmlns="http://www.w3.org/2000/svg" viewBox="886.2010500000005 585.2687800000002 126.50004999999953 157.05000000000018" width="126.50004999999953" height="157.05000000000018">
            <path 
                d="m 1011.4511,691.00878 1.25,-4.99 -7.37,0.42 -1.39,-3.23 0.45,-2.99 -0.91,-1.71 0.44,-2.16 1.89,-2.15 2.16,-0.6 1.08,-1.92 -0.48,-3.12 -1.99,0.3 -1.01,-1.04 0.24,-1.92 4.8,-3.21 0.12,-2.28 -1.69,-2.6 -3.89,-1.74 0.86,-1.83 -1.48,-4.98 0.91,-2.19 -1.25,-1.56 1.98,-0.69 1.44,1.08 2.16,0 1.44,-2.52 -1.52,-6.25 -2.94,-3.31 0.03,-2.16 1.82,-0.36 -0.62,-1.86 1.97,-0.24 0.29,-3.07 -6.61,0.69 -0.24,-2.8 -3.28,-3.52 -0.15005,-4.27 -3.5,-3.4 0.81,-5.36 -0.66,-3.01 -6.17,6.21 -3.76,-3.92 -1.68,-0.16 -7.6,6.56 -4.24,1.12 -2.16,-0.96 -5.28,0.96 -2.2,-7.8 -6.71,-1.15 -2.88,2.4 -2.19,-0.29 -3.82,-4.04 -2.49,0.48 -0.07,-2.35 -1.31,-1.15 0.35,-2.98 -1.55,-1.24 -1.73,0.61 -1.12,1.68 -0.59,3.32 1.18,3.32 -1.15,2.08 -5.76,0.56 -1.76,-2.25 -0.79,-10.82 -6.91,-7.27 -6.12,4.86 -6.16,-6.97 -8.29,4.44 -4.8,0.32 -1.31,1.27 0.77,0.56 6.47,8.91 -0.4,18.65 0.99,1.15 0.6,7.08 2.04,5.88 -0.48,6 3.36,6.48 0.48,3 -2.28,3.12 -3.6,-1.68 -2.76,0.36 -2.04,3.36 -4.56,1.85 -1.08,1.44 -0.24,2.83 -2.88,0 0,5.57 6.24,0 0.6,1.56 -1.44,1.32 -3.84,0.12 -2.28,2.04 -1.8,5.4 2.88,5.52 4.08,2.64 1.56,2.76 2.76,0.6 1.44,1.68 -0.48,3.6 -1.56,1.32 2.04,3.12 -0.48,1.56 -2.4,0.48 -2.88,-0.72 -1.56,-1.44 -7.94,1.61 -0.67,2 6.19,13.29 7.4,7.13 2.27,0.95 3.57,-0.51 1.09,0.84 1.95,2.6 1.72,6.23 1.31,1.58 6.53,-1.52 7.05,1.37 4.01,3.01 0.79,2.44 3.63,0.15 1.4,2.15 4.39,0.92 4.02,-0.86 0.83,1.25 3.62,0.27 3.31,-1.7 2.95,-0.21 1.28,-4.32 1.38,-1.25 -0.79,-1.37 1.82,-0.65 10.53,1.82 4.04,5.51 6.61,1.37 2.91,-5.9 11.93,-4.98 0.94,-6.23 3.82,-4.74 -0.64,-0.92 1.04,-0.27 -0.3,-1.07 3.80005,-9.1 1.01,-0.63 3.15,0.87 5.33,-7.83 0.12,-3.85 -1.23,-0.63 1.62,-2.99 -1.15,-2.24 z m -67.45005,-3.79 -3.24,2.64 -0.6,2.28 -2.16,0.24 -3.24,-3.12 -1.8,0 -2.28,2.76 -1.68,-3.96 -2.16,-2.16 3,-4.32 -4.44,-8.16 -3.94,-3.7 0.1,-2.54 4.32,-1.56 8.76,5.28 4.08,0.24 1.92,-1.56 5.88,-11.4 0.96,0.72 3,9.48 -0.12,10.2 1.92,3 0.24,2.16 -8.52,3.48 z" 
                fill="rgb(151, 144, 238)" 
                stroke="white" 
                stroke-width=".7px"
                title="Daugavpils novads" 
                id="LV-025" 
            />
        </svg>