<svg xmlns="http://www.w3.org/2000/svg" viewBox="303.36105000000003 396.31877999999995 128.13000000000022 113.94999999999993" width="128.13000000000022" height="113.94999999999993">
            <path 
                d="m 411.30105,495.62878 0.16,-2.41 -3.36,-10.91 -2.88,-4.44 -2.76,-0.72 -1.08,1.08 -0.36,4.08 -7.44,7.31 -3.96,1.2 -0.6,2.52 1.56,6.48 3,0 1.68,1.56 -2.04,4.2 -2.28,1.32 -3.36,-2.28 -6.72,-1.44 -3,0.6 -2.4,2.4 -1.92,-1.08 -2.39,0.84 -3.68,4.33 0,0 -0.6,-0.98 0,0 -3.48,-0.48 -0.84,-1.92 1.68,-3.48 -0.24,-1.8 -1.68,-1.32 -3.59,0.24 -1.8,-2.16 0,-4.92 1.44,-1.32 0,-1.56 -2.64,-11.64 2.16,-0.96 0.24,-2.04 -1.44,-1.92 -3,0.24 -1.92,-4.32 -1.92,-0.84 -2.52,-3.72 -3.12,0.27 -3.6,1.92 -2.64,-0.96 -2.04,-4.68 -5.16,1.08 -1.8,1.68 0.72,2.04 3.36,1.92 -2.4,2.4 -5.88,0.6 -3,3.72 -2.4,0.36 -2.4,4.67 -1.44,0.12 -1.56,-1.44 -1.2,-3.83 1.08,-3.84 -4.14,-0.43 0,0 -3.2,-1.31 -0.7,-3.39 -1.92,-0.42 0.84,-2.38 -1.36,-1.68 0.67,-2.26 6.34,0.7 1.4,-0.91 0.66,1.46 1.81,-0.03 1.25,-1.8 0.07,-4.91 1,-1.28 -0.92,-1.13 3.11,-1.56 -1.36,-3.12 -2.15,-1.49 -0.29,-5.84 -1.35,-0.09 -0.08,-1.41 -5.38,0.71 -1.84,-0.58 0.25,-1.11 1.72,-0.61 -0.19,-2.32 3.42,-0.34 0,0 3.74,0 1.58,-2.84 2.93,1.1 -0.02,-2.72 2.4,0.03 2.39,-1.47 14.17,0.34 1.48,-1.17 4.75,-0.3 2.3,7.16 6.23,-0.34 3.31,1.77 2.32,-1.28 1.97,0.85 1.07,-3.24 0,0 0,-1.3 0,0 7.04,3.49 3.83,-0.1 1.73,-1.96 -2.21,-3.25 2.98,-4.13 2.24,1.32 1.65,-0.58 3.55,0.79 5.97,2.72 2.49,-1.62 1.99,-3.15 3.04,-1.62 3.92,-6.03 -6.19,-6.04 0.02,-1.04 4.09,-1.38 0.99,-2.64 4.76,-5.12 1.67,-0.79 1.54,4.41 10.87,-1.62 6.25,-5.19 0,0 3.4,-0.61 3.75,18.3 -1.95,2.42 -10.12,3.03 -5.38,6.58 -0.94,4.23 8.56,2.66 3.74,3.85 -3.72,1.68 -2.16,-0.52 0.02,1.87 1.63,0.91 2.06,3.91 -7.27,3.82 -0.19,5.65 -5.6,1.95 -0.34,3.36 0,0 -0.15,1.53 0,0 9.39,2.65 4.17,-0.7 1.03,2.99 -3.53,1.61 -3.12,0.09 -1.49,0.98 -1.6,-0.88 -0.78,0.79 0.31,4.72 7.47,4.24 -1.94,0.85 0.86,0.92 -1.46,2.37 -0.09,3.99 -1.77,2.56 0.98,3.1 z" 
                fill="rgb(151, 144, 238)" 
                stroke="white" 
                stroke-width=".7px"
                title="Dobeles novads" 
                id="LV-026" 
            />
        </svg>