<svg xmlns="http://www.w3.org/2000/svg" viewBox="46.61105300000001 417.7687799999998 62.97999699999997 70.37000000000018" width="62.97999699999997" height="70.37000000000018">
            <path 
                d="m 102.93105,473.02878 -1.82,0 -0.48,-1.56 -1.919997,-1.32 -4.68,1.8 -3.36,3.71 -1.32,3.36 2.64,1.68 0.24,3.72 1.32,0.96 0,1.68 -1.2,1.08 -3.48,0 -3.96,-4.92 -11.16,-7.56 -2.04,2.28 1.2,2.52 -0.36,5.52 -4.08,1.08 -3.95,-1.44 0,0 0.12,-3 -1.56,-1.92 -2.16,-0.48 -8.4,2.52 -2.64,0 -1.2,-1.56 2.4,-2.76 -0.24,-1.32 -2.16,-0.6 0.6,-5.27 -0.84,-2.28 0.6,-2.88 3.6,-4.68 -0.24,-3.6 -2.76,-4.2 -0.24,-3 -2.54,-3.97 0,0 0.95,-1.05 0,-2.95 3.55,0.15 2.1,-3.2 0,-6.3 -4.15,-3.8 -0.15,-2.49 -2.55,-3.65 1.2,-3.16 2.75,-2.4 5.4,1.25 0,0 0.34,4.74 7.5,7.1 8.2,3.5 0,4.6 0.89,2.1 1.8,0 3.2,-2.3 1.1,1.3 -1.5,3.59 4.1,4.5 2.8,-0.7 3,-2.3 8.5,0.2 4.699997,-2.6 5.4,2.4 0.6,2.8 -1.2,2.1 4,7.8 -1.9,4.9 2.1,6.4 -1,1.1 -4.8,0.9 -0.9,1.5 0,0 z" 
                fill="rgb(151, 144, 238)" 
                stroke="white" 
                stroke-width=".7px"
                title="Durbes novads" 
                id="LV-028" 
            />
        </svg>