<svg xmlns="http://www.w3.org/2000/svg" viewBox="353.23105000000027 241.96878000000007 81.54000000000002 122.96999999999994" width="81.54000000000002" height="122.96999999999994">
            <path 
                d="m 421.46105,359.11878 -11.68,3.1 -5.76,2.64 -6.4,0.08 -7.92,-2.88 -6.64,1.12 -6.56,-3.84 -8.4,2.72 -2.8,0.32 -2.07,-1.2 -0.32,-1.68 4.79,-6.08 5.6,-1.52 1.6,-1.44 0.4,-2.08 -0.96,-1.44 -4.08,-0.16 -3.36,-3.2 0.8,-1.52 2.48,-0.4 0.96,-1.28 1.2,-4.16 -2.72,-2.87 0.24,-1.36 2.72,-0.24 5.04,-3.2 0.24,-4.96 3.44,-2.79 -0.4,-3.28 -4.8,-6.31 0.24,-4.64 -1.52,-1.92 -3.52,-1.68 -4.08,-3.68 -3.51,1.52 -3.6,-2.88 -0.88,-2.4 -4.08,-2.72 -1.84,-0.08 -0.08,-1.76 5.52,-1.04 1.6,-2 1.2,-8.56 3.59,-2.72 -0.08,-1.76 -2.31,-0.72 -0.92,-11.67 0,0 -2.63,-14.84 1.87,-3.92 5.13,-1.77 0,0 2.73,5.16 1.14,8.42 1.72,3.45 -0.14,9.03 4.23,8.19 4.98,14.16 0.64,-0.19 -1.06,6.97 1.33,9.37 3.5,6.12 6.93,7.26 9.02,5.56 11.14,3.34 11.86,0.98 3.5,5.87 2.19,6.22 4.86,4.9 0,0 -8.95,3.98 -3.49,0.34 z" 
                fill="rgb(151, 144, 238)" 
                stroke="white" 
                stroke-width=".7px"
                title="Engures novads" 
                id="LV-029" 
            />
        </svg>