<svg xmlns="http://www.w3.org/2000/svg" viewBox="539.8810500000001 309.04877999999997 68.2800000000002 42.29000000000002" width="68.2800000000002" height="42.29000000000002">
            <path 
                d="m 571.42105,351.33878 -3,-2.28 -2.4,-0.48 0,0 -1.56,0.61 0,0 -3.63,-5.97 -5.46,-5.38 -7.6,-2.1 -2.7,-1.8 -1.5,-2 0.5,-3.29 -0.8,-2.5 -3.39,-2.9 0,0 2.49,-2.8 5.2,-2.9 3,1.6 0,0 1.5,6.3 4.4,2.6 6.7,2 2.3,-0.2 5.1,-7.4 2.3,-1.8 3.2,1.4 5.7,-3.6 6.6,-1.3 0.7,-2.3 5.59,-5.8 0,0 3.4,1.2 -2.4,4.6 1.7,1.4 4.3,-2.5 2.6,-0.1 1.2,1.4 0.4,3.1 2.3,2.1 0,0 -1,1.5 -1.8,0.5 -2.7,-3 -1.3,-0.1 -4.3,5.4 2.6,8.69 -0.5,4 -3.3,1.3 -10.49,0.1 -2.5,1.2 -5.4,0.3 -1.7,1.7 -0.1,1.8 2,3 -1.1,1.7 -2.2,0.4 z" 
                fill="rgb(151, 144, 238)" 
                stroke="white" 
                stroke-width=".7px"
                title="Garkalnes novads" 
                id="LV-031" 
            />
        </svg>