<svg xmlns="http://www.w3.org/2000/svg" viewBox="9.831052499999984 438.24877999999984 69.92000050000001 108.08000000000021" width="69.92000050000001" height="108.08000000000021">
            <path 
                d="m 64.521053,485.61878 -0.24,8.4 4.8,0 2.39,2.28 -0.36,7.32 6.24,8.64 -0.36,2.76 2.28,2.4 0.48,3.6 -2.64,14.51 -5.76,9.48 0,0 -9.35,1.08 -7.44,-0.96 -1.92,1.2 -2.28,-0.72 -4.8,-7.32 0,0 -0.96,-12 -0.96,-1.79 0.24,-6 -1.2,-3.48 -3.24,-0.96 -4.2,3.12 -2.76,-1.08 -3,-3.36 -1.44,-18.48 -5.52,2.28 -6.83,0.08 0,0 0.2,-0.22 0,0 -0.2,-6.19 2.8,-5.3 5.55,-3.6 0,-9.55 -2.3,0 -1.6,1.1 -1.45,-1 -1.3,-7.12 1.15,-1.2 0.25,-2.9 -4.35,0 -4.6100005,-1.45 0,0 1.9800005,-6.96 0,0 1.84,0.06 3.83,2.76 8.4,-0.72 -0.36,-10.56 3.6,-5.52 3.89,2.97 1.35,3.65 4.1,3.9 3.25,-1.85 5.15,-0.3 0,0 2.54,3.97 0.24,3 2.76,4.2 0.24,3.6 -3.6,4.68 -0.6,2.88 0.84,2.28 -0.6,5.27 2.16,0.6 0.24,1.32 -2.4,2.76 1.2,1.56 2.64,0 8.4,-2.52 2.16,0.48 1.56,1.92 z" 
                fill="rgb(151, 144, 238)" 
                stroke="white" 
                stroke-width=".7px"
                title="Grobiņas novads" 
                id="LV-032" 
            />
        </svg>