<svg xmlns="http://www.w3.org/2000/svg" viewBox="845.7110500000003 213.65877999999992 196.45004999999992 143.34999999999985" width="196.45004999999992" height="143.34999999999985">
            <path 
                d="m 893.21105,237.82878 12.64,4.14 14.52,-3.58 -1.68,-6.35 -1.3,0.19 -2.19,2.89 -2.23,0.16 -0.69,-4.55 4.19,-1.21 1.58,1.37 1.68,-5.14 9.37,-0.99 -1.97,-2.28 -1.02,-4.11 -0.83,0.31 -0.89,-1.31 2,-0.84 0.29,-1.71 1.11,-0.56 0.34,1.59 2.32,0.4 3.21,-0.78 1.55,-1.81 0.57,0.81 -1.21,2.34 4.75,2.87 4.44,-3.43 0,0 3.16,3.15 0,0 0.99,1.49 0.46,5.89 6.8,4.45 -1.72,4.52 2.1,0.49 0.58,-1.24 5.53,1.49 -0.49,4.95 6.11,4.2 4.78,0.03 -0.12,-5.32 3.6,-1.03 2.81,0.69 2.64,3.45 2.73,-1.4 4.01,1.27 1.71,-1.52 1.63,0.62 0.41,3.7 1.71,0.94 3.47,0.06 1.55,-1.09 3.82005,0.68 5.16,-2.02 4.9,0 1.21,0.69 0.27,2.14 6.63,5.35 4.39,2.45 3.72,0.87 -0.03,1.49 -4.51,1.71 -0.62,3.57 6.39,1.21 0.96,1.52 11.66,4.5 0,0 -3.62,4.84 -0.52,2.57 -5.81,6.91 0.85,0.47 -0.27,0.99 -1.57,1.67 -4.31,1.49 -5.2,10.18 -7,8.26 0,0 -1.56,2.11 0,0 -2.31,2.99 -1.9,7.42 -4.35,5.93 -6.92005,3.49 -1.62,-0.68 0.73,1.32 -1.35,0.59 0.66,1.3 -0.83,0.61 -0.89,-1.14 0,0 -0.97,-0.15 -0.12,2.13 -1.9,-0.53 0,0 0.06,2.04 0.98,0.83 -1.41,0.15 0.55,2.41 1.42,0.09 0.57,-1.29 0.79,0.71 -2.91,7.61 0,0 -5.22,-1.29 -3.62,0.74 -2.92,-0.87 -1.97,-2.68 -7.81,2.28 -0.64,2.28 -1.5,0.34 -1.86,2.53 -2.78,-2.03 -0.98,1.84 -7.16,0.87 -6.38,3.79 -4.06,3.69 -2.32,-1.29 0,0 -0.1,-4.65 -3.94,-11.62 -0.15,-5.86 -4.83,-6.98 -2.22,-0.98 -0.5,-2.35 -2.81,1.3 -2.81,-3.31 -2.61,-0.12 -0.42,-0.87 -3.03,3.56 -4.81,1.97 -3.49,-0.03 -1.22,1.08 0,0 -3.99,-4.2 -0.56,-3.03 -3.2,-1.88 -0.72,-7.85 -4.05,5.26 -6.19,-0.47 -0.71,-1.11 -2.11,0.25 -3.7,-1.67 -4.69,0.06 -0.94,3.49 0,0 -3.15,-1.67 -6.21,1.09 -2.05,1.91 -1.99,-0.18 -0.72,-1.06 0,0 4.42,-4.63 0.74,-5.81 2.53,-3.47 2.83,-1.36 -0.07,-3.9 -3.8,-6.44 -4.21,-2.44 0.17,-2.23 -3.13,-6.42 0.23,-2.36 -6.36,-3.5 -0.65,0.84 -8.92,-0.41 0,0 -0.19,-1.83 -2.17,-1.98 0.09,-5.31 1.65,-2.01 3.45,0.43 1.54,-1.02 1.52,2.54 2.98,-1.21 -1.82,-5.62 0,0 2.39,-1.18 1.18,-2.33 2.23,-1.52 5.14,1.71 1.24,1.92 1.01,-0.93 1.72,0.69 0.64,-1.81 2.5,-0.74 4.09,0.9 13.9,-1.09 -1.88,-7.58 1.02,-1 2.75,1.28 1.98,-2.36 0.03,-3.02 -1.91,-0.22 z" 
                fill="rgb(151, 144, 238)" 
                stroke="white" 
                stroke-width=".7px"
                title="Gulbenes novads" 
                id="LV-033" 
            />
        </svg>