<svg xmlns="http://www.w3.org/2000/svg" viewBox="509.75105 428.75877999999994 68.23999999999984 61.02000000000004" width="68.23999999999984" height="61.02000000000004">
            <path 
                d="m 572.27105,443.74878 2.2,1.88 0.8,7.04 -0.64,2.56 -9.76,0 0.8,15.68 1.76,2.4 4.16,-0.96 5.6,1.76 0.8,2.88 -0.8,4.32 0,0 -2.08,0.16 -3.52,-3.36 -2.4,3.36 -3.36,-1.92 -8.8,2.56 -3.2,3.52 -1.12,4.15 -3.68,-0.32 -5.43,-2.71 -2.24,-1.28 -0.64,-1.76 -8.32,-1.28 -2.4,-2.56 -6.31,-0.67 0,0 2.71,-1.41 0.58,-3.47 3.26,-5.67 -1.2,-1.1 -11.42,0.83 -0.49,-3.72 -4.09,0.06 -1.78,-5.25 1.18,-1.31 2.66,0.09 -1.17,3.14 3.12,1.32 1.23,-1.07 -2.04,-1.19 0.39,-0.92 1.63,-0.52 0.61,0.95 3.04,-1.07 -0.2,-3.42 -1.31,-2.19 -3.05,-0.19 3.87,-2.62 -5.6,-0.71 -0.07,-1.34 -3.73,-0.18 -2.07,-4.28 0.67,-2.32 2.54,0.24 1.21,0.95 -1.65,1.1 2.48,1.77 3.7,-0.37 -1.37,-10.85 0,0 3.49,-1.43 2.67,2.99 2.85,0.65 1.68,-2.6 0.12,2.87 1.68,3.7 4.73,1.68 1.34,-2.05 0.21,2.75 1.46,0.31 0.12,-2.45 4.44,-1.71 -3.45,-1.77 2.31,-0.61 -0.76,-1.13 0.76,-2.51 1.24,0.55 -0.24,2.17 9.93,-2.32 1.35,-1.99 -1.35,-1.81 0.42,-1.01 0,0 3.69,7.93 2.54,0.18 11.76,7.4 z" 
                fill="rgb(151, 144, 238)" 
                stroke="white" 
                stroke-width=".7px"
                title="Iecavas novads" 
                id="LV-034" 
            />
        </svg>