<svg xmlns="http://www.w3.org/2000/svg" viewBox="583.14105 369.19878 56.51000000000022 29.28000000000003" width="56.51000000000022" height="29.28000000000003">
            <path 
                d="m 594.77105,370.97878 11.19,-1.78 2.16,2.94 13.32,0 10.38,-2.22 0,0 -0.28,1.66 0,0 -0.05,3.04 4.08,4.16 4.08,2.48 -0.64,1.76 -4.96,0.48 -1.52,2.4 -2,0.88 -2.48,-2.24 -1.59,-0.4 -2.17,0.96 -5.75,8.64 -8.24,-2.64 -5.12,2.08 -0.32,2 0,0 -6.88,3.04 0,0 -3.1,0.26 0,0 -3.29,-2.38 -3.57,-5.64 -3.23,-2.15 0,0 -0.32,-3.66 2.51,-4.08 -2.73,-3.69 -1.11,-3.63 1.15,-0.3 5.85,3.35 2.4,3.76 3.2,0.4 1.28,-1.2 -1.38,-3.12 0.98,-1.29 -2,-2.27 z" 
                fill="rgb(151, 144, 238)" 
                stroke="white" 
                stroke-width=".7px"
                title="Ikšķiles novads" 
                id="LV-035" 
            />
        </svg>