<svg xmlns="http://www.w3.org/2000/svg" viewBox="817.4010499999998 592.4687800000002 93.97000000000014 107.03999999999985" width="93.97000000000014" height="107.03999999999985">
            <path 
                d="m 905.37105,620.50878 0.6,7.08 2.04,5.88 -0.48,6 3.36,6.48 0.48,3 -2.28,3.12 -3.6,-1.68 -2.76,0.36 -2.04,3.36 -4.56,1.85 -1.08,1.43 -0.24,2.84 -2.88,0 0,5.56 6.24,0 0.6,1.56 -1.44,1.32 -3.84,0.12 -2.28,2.04 -1.8,5.4 2.88,5.52 4.08,2.64 1.56,2.76 2.76,0.6 1.44,1.68 -0.48,3.6 -1.56,1.32 2.04,3.12 -0.48,1.56 -2.4,0.48 -2.88,-0.72 -1.56,-1.44 -7.94,1.61 0,0 -1.13,-5.8 -4.88,-6.58 -2.42,-2.09 -2.12,0.59 -3.62,-3.23 -5.1,-1.02 -4.72,-5.86 -7.09,-12.2 -0.79,-4.44 -5.7,-3.54 -2.38,0.66 -3.85,-4.74 -3.47,-1.38 -1.69,0.6 -0.39,-1.77 -6.46,-2.4 -1.2,-1.5 -6.66,-0.09 -0.74,-1.77 1.04,-2.04 -0.33,-2.53 -1.23,-1.77 -2.68,-1.17 -1.86,-5.8 0,0 2.35,-0.55 -0.86,-2.52 1.92,-0.87 -0.64,-2.77 5.2,-2.56 0.39,-1.14 -2.07,-0.54 -2.58,-3.83 -1.21,-0.21 -1.93,-6.11 12.43,8.01 3.35,5.42 1.51,0.18 1.08,4.51 2.84,-0.96 0.58,-1.42 2.57,-1.17 1.62,-2.59 2.55,-1.77 2.07,0.09 0,0 3.02,2.28 1.22,3.76 2.21,0.55 3.03,-1.24 0.92,-3.16 1.58,0.18 0.53,-1.74 1.36,0.09 0.18,-3.94 2.68,-3.68 2.59,3.86 2.26,0.33 1.46,-1.87 1.29,-5.09 -2.87,-3.04 11.96,-11.06 0.17,-1.99 2.91,-0.06 3.84,1.63 -0.73,1.65 1.63,1.57 -0.1,2.71 1.25,0.07 1.61,-2.66 3.08,-0.78 1.62,1.66 2.84,0.09 0.2,2.53 1.6,1.08 -2.05,3.08 0.76,9.91 3.19,3.7 0,0 z" 
                fill="rgb(151, 144, 238)" 
                stroke="white" 
                stroke-width=".7px"
                title="Ilūkstes novads" 
                id="LV-036" 
            />
        </svg>