<svg xmlns="http://www.w3.org/2000/svg" viewBox="594.6610499999999 294.14878 48.31000000000006 27.78000000000003" width="48.31000000000006" height="27.78000000000003">
            <path 
                d="m 642.97105,297.93878 -2.19,8.56 -1.76,0.48 -2.4,-1.68 -0.72,1.04 0,2.08 3.92,1.99 -0.08,4.64 -2,0.24 -2,2.32 -4.24,0 -0.24,2.56 -4.48,1.76 -3.92,-1.04 -2.88,-2.08 -1.92,0 -0.59,1.67 0,0 -9.31,-0.23 0,0 -2.3,-2.1 -0.4,-3.1 -1.2,-1.4 -2.6,0.1 -4.3,2.5 -1.7,-1.4 2.4,-4.6 -3.4,-1.2 0,0 0.85,-3.82 0,0 2.37,0.21 6,-3.3 1.5,-4.7 1.6,-1.59 6.69,1.09 7.9,3.3 1.3,-0.8 0,0 1.5,1 4.4,-2.29 3.4,-3.4 2.4,-0.6 1.8,1.5 1.1,-1.3 4,0 z" 
                fill="rgb(151, 144, 238)" 
                stroke="white" 
                stroke-width=".7px"
                title="InÄukalna novads" 
                id="LV-037" 
            />
        </svg>