<svg xmlns="http://www.w3.org/2000/svg" viewBox="306.8910499999999 382.76878 55.23000000000002 52.65999999999991" width="55.23000000000002" height="52.65999999999991">
            <path 
                d="m 330.85105,384.46878 1.37,1.3 -4.29,2 -2.7,3.2 -2.1,0.6 -0.2,1.8 4.2,2.09 1.5,4.6 5.19,0.9 2,1.5 9.8,-2.1 0.6,-2 1.9,-0.8 1.4,0.6 0.9,2 0,4.3 4.9,14.9 2.5,4.7 3.3,1 1,4.2 0,0 0,2.5 0,0 -1.07,3.24 -1.97,-0.85 -2.32,1.28 -3.31,-1.77 -6.23,0.34 -2.3,-7.16 -4.75,0.3 -1.48,1.17 -14.17,-0.34 -2.39,1.47 -2.4,-0.03 0.02,2.72 -2.93,-1.1 -1.58,2.84 -3.74,0 0,0 1.01,-4.13 -1.75,-0.3 -0.94,-1.59 2.35,-1.29 1.53,0.64 -0.94,-5.2 0,0 0.42,-3.03 -1.71,-2.85 0,0 0.85,-5.48 -3.46,-4.87 -0.35,-2.98 -1.62,-0.58 0,0 0.66,-2.45 3.4,-4.2 3.5,-0.89 0.9,-1.5 -2.2,-6.4 0.9,-2.2 4.7,-1.8 2,0 2.2,1.4 z" 
                fill="rgb(151, 144, 238)" 
                stroke="white" 
                stroke-width=".7px"
                title="Jaunpils novads" 
                id="LV-040" 
            />
        </svg>