<svg xmlns="http://www.w3.org/2000/svg" viewBox="806.0310499999999 273.23878 68.78000000000009 43.24000000000012" width="68.78000000000009" height="43.24000000000012">
            <path 
                d="m 833.03105,310.51878 -3.13,-0.83 -2.64,0.84 -1.44,-1.2 -3,-6.48 -3.23,-2.76 -10.56,-2.76 -1.44,-2.39 1.92,-5.4 -2.16,-1.44 -1.32,-2.76 1.68,-4.56 0.07,-4.7 0,0 1.85,-0.22 0,0 4.2,-2.04 3.48,0.36 4.43,7.8 4.08,1.32 6.96,-0.48 2.76,-1.08 10.68,-8.16 1.85,0.09 0,0 8.92,0.41 0.65,-0.84 6.36,3.5 -0.23,2.36 3.13,6.42 -0.17,2.23 4.21,2.44 3.8,6.44 0.07,3.9 -2.83,1.36 -2.53,3.47 -0.74,5.81 -4.42,4.63 0,0 -1.36,-1.88 -5.44,-2.94 -3.13,1.86 -0.22,2.72 -3.43,0.92 -0.91,-1.26 -3.85,-0.16 -1.7,-3.37 -3.85,-0.68 -1.65,-1.97 -5.15,0.65 z" 
                fill="rgb(151, 144, 238)" 
                stroke="white" 
                stroke-width=".7px"
                title="Jaunpiebalgas novads" 
                id="LV-039" 
            />
        </svg>