<svg xmlns="http://www.w3.org/2000/svg" viewBox="673.26105 450.03877999999986 107.6400000000001 71.45000000000005" width="107.6400000000001" height="71.45000000000005">
            <path 
                d="m 771.30105,470.38878 0.45,2.65 3.93,0.06 4.16,-2.5 0.82,0.55 0.24,5.18 -1.11,2.99 -1.15,1.61 -4.93,0.95 -0.45,5.35 -2.46,2.35 -0.03,1.67 1.45,2.01 1.46,0.09 5.27,5.32 0.06,4.14 0,0 -1.09,3.28 -2.56,-0.55 -3.61,5.11 -6.01,-1.91 -2.74,3.85 -1.18,3.95 -2.11,2.73 -2.33,1.16 -6.1,-0.46 -2.84,1.22 -4.53,0.3 -10.73,-3.86 -3.28,0.03 -1.01,0.55 0.13,2.82 0,0 -12.51,-2.05 -6.7,0 -4.4,-1.7 -9.89,1.4 -1.6,-0.8 -0.3,-5.5 -2.7,-8.8 -3.7,-1.9 -1.8,-3.3 0,-3.1 -1.1,-1.1 -0.2,-2.3 -1.26,-0.76 0,0 -0.7,-11.7 -2.6,-3.4 -4.8,-1.5 -1.5,-2.6 0.1,-3.3 0,0 5.07,-2.21 4.98,-0.36 3.72,-2.94 0.12,-3.47 0,0 6.36,-5.82 7.13,1.56 0,0 10.02,8.33 3.24,0.9 1.14,2.7 2.76,0.72 4.86,3.18 1.26,-5.16 1.86,-1.68 4.26,1.5 2.61,-1.38 0,0 8.52,-8.03 0,-2.58 8.4,-3.84 5.22,2.4 8.16,7.44 0,0 0.18,3.53 -1.32,1.68 0.06,2.1 1.5,1.92 2.76,1.44 z" 
                fill="rgb(151, 144, 238)" 
                stroke="white" 
                stroke-width=".7px"
                title="Jaunjelgavas novads" 
                id="LV-038" 
            />
        </svg>