<svg xmlns="http://www.w3.org/2000/svg" viewBox="407.46105000000034 371.58878 110.0999999999998 176.5399999999999" width="110.0999999999998" height="176.5399999999999">
            <path 
                d="m 426.26105,371.58878 16.41,0.3 1.94,4.1 2.68,-2.06 2.72,3.81 5.49,1.85 5.55,4.24 1.72,7.82 1.24,0.4 0.78,2.55 1.29,-0.06 0.89,1.1 -0.82,1.26 2.62,-0.24 0.66,2.39 1.73,0.24 0,0 0.05,0.04 0,0 -0.53,1.68 1.14,0.8 -2.63,8.52 1.42,0.89 -1.99,6.71 0,0 -5.49,1.31 -1.92,1.44 0.16,3.2 -5.6,1.92 0.16,1.6 1.92,1.28 6.88,0 1.92,2.08 -0.16,2.56 -2.08,0.48 0,0 -2.56,1.44 0,0 -5.76,4.47 -5.6,-2.88 -2.4,0.32 -0.96,2.4 0.96,3.84 1.6,2.08 6.56,5.92 0.64,2.72 -1.6,5.12 0.32,3.04 2.4,1.76 2.08,-1.44 1.6,-3.68 11.36,-3.68 0.48,-1.92 -4.96,-2.4 0.48,-1.76 2.08,-1.12 2.4,0.96 0,0 0,0 0,0 1.28,1.28 6.4,0.64 7.36,5.44 6.08,-0.32 3.03,1.28 6.4,11.68 2.56,8.16 0.32,5.28 2.24,2.72 8.36,5.99 0,0 0,0 0,0 -4.5,1.18 -0.76,1.09 -9.45,-0.76 -0.51,3.2 -2.51,1.12 -2.13,2.77 -8.33,1.18 -2.88,8.39 -3.2,2.86 -0.13,3.03 3.1,0.92 0.08,0.85 -2.94,1.64 1.31,1.09 -0.15,3.58 -2.58,0.36 -0.7,3.28 6.1,-0.36 2.86,1.03 -1.98,2.24 -0.93,3.15 0.68,9.49 0,0 -11.06,-0.61 -3.75,6.27 -2.59,-0.78 -0.59,-3.55 3.01,-8.39 -0.1,-1.67 -2.37,-1.73 -22.06,3.76 -14.77,8.76 -5.79,-1.12 -4.44,-3.42 -7.71,-1.31 -3.55,-5.54 -3.38,-0.94 -1.4,-1.34 0,0 2.68,-1.97 5.43,-0.12 5.77,-6.37 -5.52,-7.07 -1.11,-5.38 1.85,-2.7 -4.49,-1.07 0.91,-1.64 -0.79,-1.03 1.61,-1.61 -0.18,-1.01 2.44,-0.27 0.33,-1.46 -3.39,-0.76 -1.7,-2.77 0,0 0,0 0,0 6.81,-3.8 -0.98,-3.1 1.77,-2.56 0.09,-3.99 1.46,-2.37 -0.86,-0.92 1.94,-0.85 -7.47,-4.24 -0.31,-4.72 0.78,-0.79 1.6,0.88 1.49,-0.98 3.12,-0.09 3.53,-1.61 -1.03,-2.99 -4.17,0.7 -9.39,-2.65 0,0 0.15,-1.53 0,0 0.34,-3.36 5.6,-1.95 0.19,-5.65 7.27,-3.82 -2.06,-3.91 -1.63,-0.91 -0.02,-1.87 2.16,0.52 3.72,-1.68 -3.74,-3.85 -8.56,-2.66 0.94,-4.23 5.38,-6.58 10.12,-3.03 1.95,-2.42 -3.75,-18.3 -3.4,0.61 0,0 -3.54,-21.19 3.07,-0.61 0.21,-1.6 2.23,-0.21 0,0 z" 
                fill="rgb(151, 144, 238)" 
                stroke="white" 
                stroke-width=".7px"
                title="Jelgavas novads" 
                id="LV-041" 
            />
        </svg>