<svg xmlns="http://www.w3.org/2000/svg" viewBox="790.77105 494.29878 114.00999999999999 130.57999999999964" width="114.00999999999999" height="130.57999999999964">
            <path 
                d="m 831.44105,494.29878 3.58,5.14 12.99,3.3 8.2,4.49 2.5,3.1 0.5,7.7 2.69,3.91 0,0 3.15,1.82 4.39,0.85 2,1.92 1.31,4.3 4.66,25.11 1.25,4.12 2,2.51 -1.09,5.89 -2.85,3.6 0.56,2.87 3.43,3.38 5.42,1.33 6.44,4.17 1.85,4.92 3.02,2.44 0,0 0.87,0.63 0,0 6.47,8.92 -0.4,18.65 0,0 -0.57,-0.66 0,0 -3.19,-3.7 -0.76,-9.91 2.05,-3.08 -1.6,-1.08 -0.2,-2.53 -2.84,-0.09 -1.62,-1.66 -3.08,0.78 -1.61,2.66 -1.25,-0.07 0.1,-2.71 -1.63,-1.57 0.73,-1.65 -3.84,-1.63 -2.91,0.06 -0.17,1.99 -11.96,11.06 2.87,3.04 -1.29,5.09 -1.46,1.87 -2.26,-0.33 -2.59,-3.86 -2.68,3.68 -0.18,3.94 -1.36,-0.09 -0.53,1.74 -1.58,-0.18 -0.92,3.16 -3.03,1.24 -2.21,-0.55 -1.22,-3.76 -3.02,-2.28 0,0 -1.05,-6.64 -1.14,-1.2 -4.02,-0.12 -1.32,-1.32 -0.3,-2.28 -2.76,-2.4 0.36,-1.74 2.88,-2.46 -0.72,-2.4 -10.02,-4.32 -2.04,-1.79 -1.25,-4.26 0.01,-8.64 -1.84,-1.92 -4.63,-2.72 -3.44,1.04 -5.04,-3.12 -3.44,-0.32 -4.4,1.04 -7.28,-1.12 -3.56,1.42 0,0 0,-5.01 0,0 -2.8,-10.9 0.6,-2.1 2.1,-1.4 7.19,0 0,-9.82 1.4,0 0,-7.8 0,0 9.78,-0.32 0.1,-2.9 1.3,-1.7 4.1,-1.9 -0.3,-6.7 4.4,-1.3 0.3,-2.7 -3,-2 -1.6,-5.1 -2.6,-1.4 -0.1,-1.8 3,-4.29 -1.1,-1.9 1.1,-2.8 0,0 -0.14,-0.92 0,0 2.74,0.54 0.5,1.7 1.8,0.7 4.7,0.1 1.5,-1 1.5,-4.5 z" 
                fill="rgb(151, 144, 238)" 
                stroke="white" 
                stroke-width=".7px"
                title="Jēkabpils novads" 
                id="LV-042" 
            />
        </svg>