<svg xmlns="http://www.w3.org/2000/svg" viewBox="421.46105000000017 338.71878000000004 83.91999999999985 26.46999999999997" width="83.91999999999985" height="26.46999999999997">
            <path 
                d="m 505.38105,342.38878 -8.9,9.7 -7,-1.3 -9,4.4 -2.2,-0.4 -0.7,-3.1 -1.4,-0.9 -2.2,0.4 -1.3,5.6 -13.29,1.3 -1.5,2.9 -8.2,0 -1.4,-2.9 -2,0.3 -1.7,3.2 -0.5,3.6 -8.02,0 -2.9,-2.7 -9.12,-1.17 0,0 -2.59,-2.2 0,0 0,0 0,0 0.87,-8.02 3.49,-0.34 8.95,-3.98 0,0 7.3,2.07 4.39,2.31 10.57,0.43 14.34,-2.53 17.46,-6.1 7.97,-4.24 0,0 3.48,2.37 z" 
                fill="rgb(151, 144, 238)" 
                stroke="white" 
                stroke-width=".7px"
                title="Jūrmala" 
                id="LV-JUR" 
            />
        </svg>