<svg xmlns="http://www.w3.org/2000/svg" viewBox="248.76105000000007 296.10877999999985 83.0800000000001 106.10000000000002" width="83.0800000000001" height="106.10000000000002">
            <path 
                d="m 256.68105,384.37878 3.77,-5.75 -1.25,-2.73 1.86,-1.02 0.16,-4.09 -0.94,1.45 -0.77,-2.37 4.09,-1.41 0.24,-4.75 -9.6,-1.68 -4.88,2.86 0,0 0.78,-2.74 -1.38,-0.74 0.03,-2.92 3.52,-1.39 0.55,-11.27 1.55,0.68 1.41,-5.64 2.14,-1.91 0.49,-4.04 0,0 2.98,0.46 5.38,3.24 0,0 3.42,-2.69 0,0 -0.31,-0.83 -2.12,0.19 0.51,-2.41 3.31,0.86 1.7,-1.66 1.7,0.77 0.66,1.69 5.58,1.05 1.94,-5.73 -1.06,-3.37 0.4,-3.36 -2.3,-4.24 0.47,-8.56 3.65,0.22 2.79,-2.16 5.45,0.09 3.87,-1.58 0.46,-1.17 1.38,0.96 0.92,-1.27 3.81,0.31 0.37,-3.19 3.48,-1.2 2.3,-4.49 2.14,1.67 3.06,-2.41 2.24,1.73 2.91,-1.67 1.7,1.3 4.11,0.09 3.7,2.29 1.23,-0.31 0,0 1.56,1.54 -0.09,2.9 -1.9,0 -1.8,3.3 -4.1,2.3 -1.7,3.6 -5.8,0.7 -2.6,2.6 1.7,3.6 -1.6,6.9 5.5,3.2 0.3,2.5 -1.4,4.6 -5.7,0.4 -1.2,1.3 -0.2,5.69 -1.3,3.5 2.2,2.8 0,5.5 3.2,2 2.9,5.1 8.3,0 0,3.2 1.3,3.4 -0.3,3 -2.3,0.6 -0.1,1.4 4.3,4.6 1.4,2.5 0,2.2 0,0 -7.9,-0.3 -2.2,-1.4 -2,0 -4.7,1.8 -0.9,2.2 2.2,6.4 -0.9,1.5 -3.5,0.89 -3.4,4.2 -0.66,2.45 0,0 -1.8,-1.04 1.19,-1.94 -0.48,-0.82 -2.21,1.99 -2.82,-1.93 -1.18,1.25 -3.96,0.37 -2.84,2.09 -5.25,-4.6 -6.33,1.29 -0.42,-4.55 -1.87,-0.3 -2.49,1.16 -1.02,-3.95 -3.06,-2.92 -9.43,1.29 z" 
                fill="rgb(151, 144, 238)" 
                stroke="white" 
                stroke-width=".7px"
                title="Kandavas novads" 
                id="LV-043" 
            />
        </svg>