<svg xmlns="http://www.w3.org/2000/svg" viewBox="659.6310500000001 131.08877999999999 87.76999999999975 92.44000000000005" width="87.76999999999975" height="92.44000000000005">
            <path 
                d="m 694.36105,136.61878 5.88,0.95 5.6,-4.88 2.79,-1.6 2.16,0.24 2.16,6.64 3.04,1.28 2.88,6.24 4.83,4.72 1.2,5.2 6.88,2.8 3.76,3.52 4.96,9.35 0,0 -0.43,5.47 2.16,5.52 0,0 -1.2,4.72 1.6,3.52 -0.32,3.2 2.08,2.56 -1.84,3.11 3.06,4.28 0,0 1.79,0.75 -2.16,2.5 -1.59,0.12 -0.36,1.22 2.95,4.68 -3.25,3.33 0.82,2.75 -1.27,3.02 0,0 -5.4,1.7 -0.73,-5.67 -3.12,-2 -1.76,-0.24 -3.76,5.04 -5.35,-2.24 -0.8,-3.36 -2.16,-2.16 -4.15,-1.42 -1.29,0.94 0.48,2.8 -1.12,0.32 -2.4,-1.52 -2.8,-4.87 -0.96,-5.28 -5.2,-2.64 -1.04,-1.84 0.48,-8.32 -3.6,-2.32 -3.84,1.6 -1.68,-1.68 0,-1.84 -3.08,-0.42 0,0 2.28,-1.02 0.13,-1.54 -5.49,-0.3 -0.96,-1.04 1.41,-4.43 -1.68,-0.84 -3,-7.74 -3.54,-4.08 -6.12,0.3 -7.56,3.66 -1.98,-1.38 -2.88,-4.08 -0.24,-2.04 1.7,-5.92 -0.03,-3.41 0,0 -0.01,-0.91 0,0 2.64,-0.3 2.52,1.56 6,-4.91 2.22,-4.56 3.42,-1.5 2.94,1.2 1.2,4.8 5.46,0.12 1.62,-1.14 0.42,-1.74 -2.34,-5.75 0.36,-1.62 z" 
                fill="rgb(151, 144, 238)" 
                stroke="white" 
                stroke-width=".7px"
                title="Kocēnu novads" 
                id="LV-045" 
            />
        </svg>