<svg xmlns="http://www.w3.org/2000/svg" viewBox="722.3510500000001 395.00878 73.78000000000009 69.4799999999999" width="73.78000000000009" height="69.4799999999999">
            <path 
                d="m 763.91105,395.00878 5.46,2.16 1.32,2.04 3.84,-2.16 3.48,0.24 12.24,4.8 2.27,1.8 3.61,8.46 0,0 -1.32,3.39 -2.04,0.6 -2.88,-0.36 -6.84,-3.6 -1.2,1.08 1.08,3.84 2.52,1.08 0,9.24 -5.52,0.24 -2.88,1.68 2.88,7.56 -7.08,6.84 -2.16,3.48 -0.36,3.84 -1.44,2.16 -1.56,6.6 -2.64,-0.73 -1.64,0.59 0,0 -8.16,-7.44 -5.22,-2.4 -8.4,3.84 0,2.58 -8.52,8.03 0,0 -2.71,-6.75 -1,-6.09 -0.2,-8 0.9,-2.7 -3.4,-8 0,0 2.25,-8.58 -0.64,-1.84 -5.52,-0.88 -0.08,-2.24 1.76,-0.48 2.88,-3.84 1.99,-1.28 3.12,-0.32 1.36,-1.28 5.6,-0.08 6.56,1.76 1.84,-3.68 1.44,-0.8 4.48,1.2 5.92,-5.6 -0.16,-2.16 2.32,-6.31 z" 
                fill="rgb(151, 144, 238)" 
                stroke="white" 
                stroke-width=".7px"
                title="Kokneses novads" 
                id="LV-046" 
            />
        </svg>