<svg xmlns="http://www.w3.org/2000/svg" viewBox="614.9710500000004 214.96877999999998 55.12999999999977 85.47000000000008" width="55.12999999999977" height="85.47000000000008">
            <path 
                d="m 624.57105,271.71878 1.34,0.31 4.28,-2.08 1.48,-3.38 -4.49,-0.07 0,-6.57 -2.24,-9.6 -5.68,-1.76 -1.28,-4 5.04,-4 2.32,-0.24 4.64,-6.96 -3.12,-10.96 0.96,-1.36 5.12,-1.84 3.44,-4.24 1.52,0 0.8,1.44 -1.68,2.96 0.96,1.44 5.36,-0.16 8.64,1.52 0,0 4.56,8.24 1.44,5.84 3.35,-0.1 2.41,1.03 -1.55,1.74 -0.67,2.92 -0.96,0.81 -1.25,-0.4 -0.47,1.33 2.36,1.19 -0.34,1.08 1.53,0.72 -0.62,1.8 2.79,-0.25 2.07,3.76 3.47,1.96 -0.72,2.89 -1.3,1.12 -0.4,4.56 0,0 -0.37,0.09 0,0 -4.75,5.65 0,0 -0.39,2.36 0,0 -1.61,3.74 -0.59,5.7 -1.3,2 -1.8,1.2 -2,-0.8 -6.5,2.1 -3.1,7.3 0.3,6.4 -2.6,-0.21 0,0 -1.5,-3.59 -4,0 -1.1,1.3 -1.8,-1.5 -2.4,0.6 -3.4,3.4 -4.4,2.29 -1.5,-1 0,0 2.1,-4 -0.8,-9.49 -1.9,-1.9 -7.3,0.3 0,-7.9 6.9,-0.3 z" 
                fill="rgb(151, 144, 238)" 
                stroke="white" 
                stroke-width=".7px"
                title="Krimuldas novads" 
                id="LV-048" 
            />
        </svg>