<svg xmlns="http://www.w3.org/2000/svg" viewBox="802.4410499999998 443.37877999999995 149.55000000000007 78.56" width="149.55000000000007" height="78.56">
            <path 
                d="m 861.90105,521.93878 -2.69,-3.91 -0.5,-7.7 -2.5,-3.1 -8.2,-4.49 -12.99,-3.3 -3.58,-5.14 0,0 0,-3.1 1.3,-1.3 2.6,-0.3 0.3,-2.5 -2.3,-1 -3.1,0.5 -3,-2.5 -4.6,-0.1 -3.9,1.58 0,0 -12.7,-3.06 -0.5,-4.9 -3.1,-5.1 0.1,-2.4 3.5,-4.4 0.21,-6.95 0,0 0.12,0 0,0 4.16,2.14 3.95,-1.41 5.46,-0.15 1.14,-1.65 4.96,-1.19 9.24,-4.88 0,0 5.12,-7.03 2.87,-1.22 2.43,7.06 3.7,1.13 1.08,2.44 -0.49,0.94 1.88,2.23 7.17,-4.58 0.82,-1.4 9.8,-5.44 3.88,4.71 5.19,-1.71 2.1,3.23 -0.74,2.96 1.09,3.79 2.29,3.54 4.27,-3.39 1.33,0.8 1.77,-2.45 2.19,-0.33 1.71,3.32 -0.84,1.56 0.56,5.55 3.92,-1.01 1.28,1.35 7.94,-7.51 3.06,-10.92 0,0 17.97,14.77 18.41,0.06 -0.32,6.28 -2.59,4.17 0.59,5.43 0.59,0.52 4.15,-3.9 0.88,2.74 1.65,0.64 0,1.55 0,0 -4.95,12.36 0.07,1.12 0.91,0.03 1.91,-1.82 -0.32,4.23 -5.77,0.06 0,0 -2.25,0.06 0,0 -3.2,-0.21 0.3,-2.41 -5.8,0.03 -0.35,-1.76 -4.29,0.18 -4.11,2.68 -3.18,5.29 -7.2,3.43 -2.58,2.92 -2.84,0.91 0.03,-7.14 -8.8,-7.81 2.02,-1.56 -0.08,-1.52 -2.64,-2.16 -6.89,-1.43 -0.35,3.84 -2.37,2.31 -3.7,0.91 -1.28,4.2 -1.84,1.03 -0.69,2.62 -2.03,1.43 -0.07,2.37 -6.36,9.35 -2.51,1.1 -0.52,1.54 z" 
                fill="rgb(151, 144, 238)" 
                stroke="white" 
                stroke-width=".7px"
                title="Krustpils novads" 
                id="LV-049" 
            />
        </svg>