<svg xmlns="http://www.w3.org/2000/svg" viewBox="85.42105300000006 282.16877999999963 173.02999699999995 153.90000000000032" width="173.02999699999995" height="153.90000000000032">
            <path 
                d="m 202.16105,402.51878 -4.65,-4.2 -4.96,1.2 -2.16,-1.84 -1.04,-4.4 -7.92,-0.72 -0.48,2.32 -1.52,0.48 -4.72,-2.88 -2.56,0.96 -0.96,2.16 -4.64,2.64 -3.04,6.88 4.96,17.71 -0.32,2.32 -2.64,2.24 -5.6,-2.32 -4.95,1.52 -2.96,3.76 -3.21,-0.32 -2.23,1.44 -0.56,4.08 -1.16,0.52 0,0 -4.13,-0.18 -0.89,-1.74 -6.12,-2.91 2.71,-2.14 0.23,-6.06 -3.18,-0.7 1.23,-1.23 -0.22,-2.66 -3.04,-6.4 -3.74,-1.84 -5.25,-5.61 -6.44,-1.23 -1.94,0.74 -1.98,-2.73 -0.2,-2.73 -1.96,-0.7 -2.05,-3.56 0.12,-3.75 -1.9,-2.52 -5.59,1.17 -5.959997,-1.2 -2.25,1.05 -1.87,-3.72 1.11,-3.93 -3.03,-1.23 -3.08,-3.44 0,0 0,0 0,0 1.08,-1.35 -0.57,-2.03 2.66,-4.46 0,0 2.71,0.16 3.1,2.7 3.4,0.4 4.499997,-8.7 5,0 0.1,1.6 4.4,0 -0.1,-1.8 1.9,-2.3 2.4,-0.3 2,-2.8 3.5,0.4 1.69,-1.6 0.8,-2.5 -2.29,-6.1 -1.5,-1.4 1.1,-2.6 -1,-2 -5.4,-4.6 -4.5,-5.8 -0.3,-2.4 1.6,-1 -0.7,-3.38 -4.3,-0.6 -3.3,-3.89 -2,0 -3.829997,-3.74 0,0 4.329997,-4.39 3.85,1.21 1.9,-2.84 3.08,-1.95 -0.47,-1.46 1.72,-0.52 -0.16,-1.36 2.49,-2.32 1.15,0.83 1.35,-0.43 -0.14,2.13 2.49,-0.64 2.86,1.32 2.05,-4.51 7.86,5.5 3.05,0.59 3.19,-1.05 0.14,3.28 1.19,0.34 -2.28,0.83 -0.36,1.42 2.05,2.82 1.8,-1.18 -0.31,-1.23 2.03,2.07 2.02,0.12 1.36,-4.64 1.87,-2.59 5.91,1.45 2.18,3.03 0.9,-0.4 -0.42,-1.36 0.79,-0.81 0.74,0.84 1.48,-1.42 4.07,0.18 1.23,1.49 2.5,-2.63 2.24,0.12 2.96,-1.36 1.48,0.87 0.69,-2.75 1.49,-0.93 1.37,1.88 1.84,-0.3 1.18,1.57 4.62,1.49 9.29,-0.22 -0.35,-2.97 10.08,-1.45 -0.07,-1.24 2.32,-1.08 -0.05,-7.77 1.26,-1.42 0.05,-3.44 1.38,-2.42 0.04,-4.86 0,0 2.84,3.81 2.12,0.99 2.09,-0.53 -0.66,6.69 -0.97,1.77 2.92,1.42 2.07,3.84 3.08,0.77 1.25,1.43 5.79,0.31 4.4,2.53 0.48,9.8 0.97,1.05 0.83,6.24 -2.53,1.05 0.09,3.71 0.37,2.37 2.97,-0.15 1.35,7.16 9.74,-2.01 2.26,1.36 2.2,-0.71 1.1,1.51 1.12,-2.9 2.21,-0.52 1.02,0.18 0.46,1.58 0,0 -0.49,4.04 -2.14,1.91 -1.41,5.64 -1.55,-0.68 -0.55,11.27 -3.52,1.39 -0.03,2.92 1.38,0.74 -0.78,2.74 0,0 -2.79,4.55 -0.91,4.86 -4.16,-0.09 -1.04,1.72 -2.78,-1.9 -1.19,-2.22 -3.15,-0.8 -1.41,-7.66 -4.56,-2.28 -3.24,-0.36 -2.92,4.3 1.78,1.14 -0.38,3.78 -3.01,0.22 -0.86,4.52 0.49,0.95 1.76,-0.52 1.03,1.32 2.98,-1.78 1.65,1.57 2.59,-0.47 0.3,4.09 3.63,3.14 -2.49,4.08 -3.63,-0.52 -2.46,3.34 0.42,1.57 -8.88,0.77 -1.9,2.61 -2.07,0.21 -0.35,2.88 -2.61,5.65 z" 
                fill="rgb(151, 144, 238)" 
                stroke="white" 
                stroke-width=".7px"
                title="Kuldīgas novads" 
                id="LV-050" 
            />
        </svg>