<svg xmlns="http://www.w3.org/2000/svg" viewBox="1072.6611000000003 377.2787799999999 107.60999999999967 83.39999999999986" width="107.60999999999967" height="83.39999999999986">
            <path 
                d="m 1114.0411,460.57878 1.32,-3.8 -0.3,-3.3 -3.22,0.62 -1.74,-1.98 -2.02,0.18 -0.81,-4.12 -3.33,-2.69 -3.51,-0.67 -3.5,3.57 -3.92,-7.85 4.25,-3.79 -1.34,-1.2 2.91,-3.36 0,-7.9 3.89,-2.9 0.21,-3.3 -1.1,-3.6 -5.9,-2.4 1.6,-4.3 -8.8,0.1 -1.5,1.1 -6.8,0.3 -4.6,-2.6 0,0 -0.75,0.15 0,0 -0.53,-7.36 -1.89,-0.74 0.48,-2.51 3.63,-2.83 2.83,3.38 1.78,-0.49 1.92,-2.03 -0.19,-1.29 1.69,-0.61 -5.47,0.22 -0.61,-1.08 8.08,-3.68 0.5,-1.91 0,0 12.52,0.28 6.53,-2.09 0.24,-0.7 -1.99,-1.48 0,-3.66 5.69,-0.03 3.08,6.64 3.95,-0.55 2.12,3.25 -0.08,1.6 3.4,0.64 1.63,1.45 1.58,-0.83 0,0 5.2,-0.25 2.07,-1.5 0.37,-1.78 2.64,-0.28 2.39,-2.61 1.51,0.68 3.77,-2.49 7.66,-0.43 7.28,-4.49 3.67,0.89 -0.84,2.86 2.36,2.98 3.51,10.71 5.03,-1.32 5.56,-2.97 -0.47,2.7 1.59,0.58 -0.77,1.41 1.01,2.58 -5.4,3.1 -0.67,1.72 0.67,5.7 -1.72,1.13 -2.94,0.03 -2.54,4.26 -0.29,2.3 2.29,0.76 -0.25,2.55 1.11,2.54 3.25,1.9 1.49,3.48 2.11,0.52 0.6,2.21 3.05,0.09 -0.69,4.13 0,0 -3.65,-0.03 -3,1.6 -3.3,0.1 -2.8,-5 -0.4,-3.2 -4.6,-0.1 -2.5,5.9 1.5,5.89 -2.2,3.6 2.4,5 -2.3,3.3 -6.4,-1.1 -5.3,-3.2 0.9,-1.4 2.7,-0.1 2.9,1.5 1.9,-0.1 0.3,-2.1 -2.3,-4.1 -2.7,0.4 -2.1,1.5 -3.9,-0.5 -2.39,-2 -3.9,0 -2.4,1.4 -4.6,0.2 -2.6,2.3 -0.6,2.8 -6,1.9 -2,1.6 -1.2,8.6 -1.6,1.9 z" 
                fill="rgb(151, 144, 238)" 
                stroke="white" 
                stroke-width=".7px"
                title="KÄrsavas novads" 
                id="LV-044" 
            />
        </svg>