<svg xmlns="http://www.w3.org/2000/svg" viewBox="639.90105 394.37877999999995 55.40000000000009 66.18000000000006" width="55.40000000000009" height="66.18000000000006">
            <path 
                d="m 685.49105,459.85878 -4.9,0.7 -8.09,-3 -11,-9.2 -2.1,-3.3 -1.4,-2.54 -0.3,-8.3 -1.8,-2.8 -11,-3.1 -2.4,-1.1 -2.6,-2.8 2.2,-3.1 4.9,0.1 3.5,1.6 2,-1.5 1.1,-1.4 0.1,-9.2 4.5,-1.79 8.4,-11.1 0,0 -0.21,-1.05 0,0 2.42,0 0.7,-2.2 1.1,-0.4 1.2,0.6 0.6,4 8.9,2.5 4.3,-1.3 3.99,6.4 2.6,6.7 3.1,3 0,3.9 0,0 -9.39,0.7 -1.2,2.1 1,3.2 3.79,3.1 0.4,2 -4.29,2.9 -2.1,-1 -1.1,1.4 0.3,7.29 -1.9,8 0.6,1.3 4.1,1 z" 
                fill="rgb(151, 144, 238)" 
                stroke="white" 
                stroke-width=".7px"
                title="LielvÄrdes novads" 
                id="LV-053" 
            />
        </svg>