<svg xmlns="http://www.w3.org/2000/svg" viewBox="2.3910525 459.18878000000007 21.650000500000004 43.10999999999996" width="21.650000500000004" height="43.10999999999996">
            <path 
                d="m 5.4810525,502.19878 -2.4,-14.3 2.32,0.8 -1.01,-0.8 0.5,-0.94 -1.29,0.79 -1.21,-1.12 2.24,-0.22 0.9,-6.45 8.4200005,1.12 -2.07,-1 -0.19,-2.13 -1.24,2.49 -5.4200005,-1.58 -0.39,-2.59 5.19,-17.08 0,0 4.6100005,1.45 4.35,0 -0.25,2.9 -1.15,1.2 1.3,7.12 1.45,1 1.6,-1.1 2.3,0 0,9.55 -5.55,3.6 -2.8,5.3 0.2,6.19 0,0 -1.3,1.4 0,0 -3,0.3 -2.7000005,4.2 z" 
                fill="rgb(151, 144, 238)" 
                stroke="white" 
                stroke-width=".7px"
                title="LiepÄja" 
                id="LV-LPX" 
            />
        </svg>