<svg xmlns="http://www.w3.org/2000/svg" viewBox="577.2910499999994 104.28878 114.38000000000045 167.73999999999998" width="114.38000000000045" height="167.73999999999998">
            <path 
                d="m 622.61105,104.28878 3.4,0 4.8,7.59 4.5,3.7 8.5,-0.2 7.2,4.7 0,10.82 1.5,5 4.6,2.7 1.4,-1 1.3,0.6 1.8,1 1,2.1 -2.3,7.2 0.97,2.2 0,0 0.02,1.85 0,0 0.03,3.41 -1.7,5.92 0.24,2.04 2.88,4.08 1.98,1.38 7.56,-3.66 6.12,-0.3 3.54,4.08 3,7.74 1.68,0.84 -1.41,4.43 0.96,1.04 5.49,0.3 -0.13,1.54 -2.28,1.02 0,0 -0.75,3.57 -1.92,2.78 -6.65,-1.78 1.21,2.46 -0.65,0.81 -0.51,-0.9 -1.51,0.4 -0.51,3.41 -14.58,12.31 -4.48,0.48 -5.49,4.09 -3.24,-2.75 -8.13,-1.92 -0.8,2.99 3.66,2.58 5.63,1.92 1.81,3.89 -0.37,1.42 0,0 -8.64,-1.52 -5.36,0.16 -0.96,-1.44 1.68,-2.96 -0.8,-1.44 -1.52,0 -3.44,4.24 -5.12,1.84 -0.96,1.36 3.12,10.96 -4.64,6.96 -2.32,0.24 -5.04,4 1.28,4 5.68,1.76 2.24,9.6 0,6.57 4.49,0.07 -1.48,3.38 -4.28,2.08 -1.34,-0.31 0,0 -2.39,-3.41 -5.07,-0.39 -2.2,-4.1 0.95,-2.14 -0.45,-2.7 -4.6,-3.75 -1.95,-3.5 -1.9,-0.57 -0.21,-5.31 1.02,-1.02 -1.26,-0.59 -0.2,-1.93 -2,-1 -3.01,0.28 -10.6,4.89 -4.93,0.9 -0.39,1.43 0,0 -2.86,-0.18 -0.6,-1.45 1.2,-3.7 -1.07,-1.85 -0.07,-4.05 -2.12,-4.23 -1.87,-1.59 0,0 -0.7,-15.36 0,0 4.41,-1.1 6.6,-0.1 5.5,-2.49 3.7,-5.3 0,-3.3 1.8,-2.1 6,-0.2 2.6,-3.1 0.5,-2.3 -0.3,-1.9 -5.6,-3.4 -1.3,-11.7 1.9,-3.6 -1.2,-2 -5.9,-0.3 -0.4,-6.3 -2.2,-1.5 -2.3,-0.4 -2.2,1.1 -5.1,-0.5 0.8,-6.69 -1.6,-1 0.3,-12.1 -1.8,-9.34 0.7,-2 1.6,-1.1 6.5,-0.2 4.82,-1.7 3.4,0.7 0.9,2 6.2,-0.1 3,-1.3 -1.3,-1.6 -2.8,0.1 -1.2,-1 1.8,-3 0.4,-2.6 -0.8,-1.6 0.9,-1.6 2.6,-1.4 7.5,-0.2 -2.4,-3.4 1.9,-2.5 -0.1,-1.9 -1.7,-1.9 0.4,-1.5 1.4,-1.49 z" 
                fill="rgb(151, 144, 238)" 
                stroke="white" 
                stroke-width=".7px"
                title="Limbažu novads" 
                id="LV-054" 
            />
        </svg>