<svg xmlns="http://www.w3.org/2000/svg" viewBox="926.8710500000001 341.41878000000014 87.10005000000001 62.1699999999999" width="87.10005000000001" height="62.1699999999999">
            <path 
                d="m 1005.9711,388.48878 -2.11,-3.2 -6.50005,-1.6 -1.3,-5.4 -2.4,-2.1 -3.7,-1.1 -14.4,4 -4.4,-0.8 -1.39,-2.2 -2.1,-0.9 -7.5,7.1 0,4 -6.9,5.2 -5,5.2 -0.6,3.1 -3.3,3.8 -3,-2.3 -2.9,0.3 -1.2,1.7 -2.2,-0.7 -2.3,-1.3 -1.1,-1.9 4,-3.6 -0.5,-2.1 -6.4,-2.3 -1.9,-2.5 0.1,-3.5 14.7,-21.89 0.6,-1.34 -1.2,-4 1.14,-2.44 0,0 2.32,1.29 4.06,-3.69 6.38,-3.79 7.16,-0.87 0.98,-1.84 2.78,2.03 1.86,-2.53 1.5,-0.34 0.64,-2.28 7.81,-2.28 1.97,2.68 2.92,0.87 3.62,-0.74 5.22,1.29 0,0 0.94,2.96 2.57,-1.54 2.86,-0.12 1.89,1.54 1.40005,-0.28 0.45,4.22 -2.96005,7.02 5.45005,3.6 2.78,0.09 1.78,1.85 1.68,9.72 1.84,3.44 1.7,0.71 0,0 0.16,1.96 -4.27,5.84 -1.63,1.81 z" 
                fill="rgb(151, 144, 238)" 
                stroke="white" 
                stroke-width=".7px"
                title="LubÄnas novads" 
                id="LV-057" 
            />
        </svg>