<svg xmlns="http://www.w3.org/2000/svg" viewBox="1096.5711000000017 472.93877999999927 119.62000000000035 120.75000000000045" width="119.62000000000035" height="120.75000000000045">
            <path 
                d="m 1213.7311,524.56878 -3.22,0.11 -5,-1.5 -2.8,0.8 -1.8,3.2 -2.5,-0.1 -3.4,-5 -2.5,-1.5 -7.6,0 -1.3,1.9 4.3,11.4 -1.3,2.5 -9.1,1.6 -14.49,14.16 -2.8,0.8 -0.4,3 3.2,5.3 -0.6,3.3 1.3,1.6 3.59,-1.6 2.5,1.6 4.7,-1.3 0.5,-2.9 -1.5,-1.6 -0.1,-2.1 1.5,-1.7 5.4,0.6 1.9,-1.2 1.3,-3.1 2.4,-1.4 2.2,0.5 5.3,3.9 1,3 4.7,2.2 6.6,8.49 -0.1,2.5 -2.1,2 -0.8,4.6 -3.4,2.7 -0.5,2.1 0,0 -0.7,1.4 0,0 -0.9,1.5 -2.98,0.78 -0.02,-6.08 -2.5,-0.2 -10.98,8.36 -7.1,-0.7 -1.6,0.7 -2.8,4 -1.5,0.5 -2.39,-3.1 -2.2,1.8 -3.2,0.4 -1.9,-1.5 -3.2,-0.1 -3.3,-2.7 -9.3,-0.1 -0.8,-1.2 -5.1,-1.6 -1.84,-4.65 -3.56,-2.15 -1.2,-4.43 0,0 1.86,0.06 3.17,-4.02 -0.12,-1.5 -2.12,-0.26 -1.06,-2.08 0.13,-2.64 4.55,-6.11 1.56,-4.5 -4.59,-6.96 -2.27,-0.55 -0.59,-1.15 2.31,-4.12 0.8,-7.51 -0.64,-1.36 -3.53,0.9 -0.3,-1.36 -1.43,1.03 -4.34,-1.49 0.42,-1.12 -0.86,-1.34 -1.62,-0.06 -0.1,-2 2.64,-0.96 0.4,-1.52 -2.74,-0.73 -0.92,-1.52 2.62,-1.35 -0.32,-1.44 -5.31,-2.61 -0.76,1.54 -2.57,0.37 1.73,-1.37 -0.19,-1.82 -2.72,-1 -4.98,-9.15 1.43,-1.67 -0.96,-2.37 -1.72,-0.21 -3.53,4.53 -2.32,-0.09 -2.28,-4.5 1.07,-3.74 -2.87,-2.1 -0.1,-2.31 1.89,-1.37 -0.25,-0.83 -1.27,0.13 -0.11,-1.43 2.65,-3.32 0.88,-2.74 4.93,1.31 2.79,-1.25 1,1 0.77,-0.94 2.89,0.14 1.44,-1.08 0.24,-7.8 0,0 1.56,-1.08 3.67,0.24 3.24,3.12 8.4,3.72 2.28,-3.72 2.76,0.36 7.67,9.48 6.36,4.67 1.32,-4.79 6.48,-1.56 2.28,4.68 5.4,2.27 1.32,1.92 0.12,2.16 5.52,3.96 -0.24,6 2.76,1.2 3.36,-0.12 0.12,-2.28 3,-4.2 4.2,-0.48 3.72,-5.16 3.96,1.8 1.67,1.92 1.32,4.2 1.68,0 0.96,-4.08 8.22,-0.14 0,0 4.57,7.77 3.77,3.04 -1.98,8.17 2.3,4.7 z" 
                fill="rgb(151, 144, 238)" 
                stroke="white" 
                stroke-width=".7px"
                title="Ludzas novads" 
                id="LV-058" 
            />
        </svg>