<svg xmlns="http://www.w3.org/2000/svg" viewBox="662.18105 257.79878 49.70999999999992 45.01000000000005" width="49.70999999999992" height="45.01000000000005">
            <path 
                d="m 693.65105,302.48878 0,-1.44 0,0 -2.52,-1.32 -3.12,1.44 -1.92,-1.56 -2.4,-0.12 -1.08,1.32 -2.76,0.12 -3.69,-1.17 -2.86,-4.06 1.54,0.37 1.28,-1.7 -1.14,-3.4 -0.27,-8.24 -3.7,-4.5 -1.52,-4.05 -3.76,-3.44 -3.55,-0.29 0,0 0.38,-2.3 0,0 4.75,-5.65 0,0 0.26,-0.06 0,0 10.64,0 2,-1.2 7.28,-0.32 1.92,-1.04 1.04,-2.08 2.24,0.16 0,0 0,5.44 6.24,0.8 0.48,1.92 3.84,0.24 1.36,0.94 1.76,4.88 -1.28,1.2 -0.48,4.64 1.68,2.96 0.4,6.24 2.88,0.16 2.32,1.36 -0.08,2.95 -4.72,4.56 0,1.84 -1.76,1.68 -4.8,-0.32 -4.4,3.36 z" 
                fill="rgb(151, 144, 238)" 
                stroke="white" 
                stroke-width=".7px"
                title="Līgatnes novads" 
                id="LV-055" 
            />
        </svg>