<svg xmlns="http://www.w3.org/2000/svg" viewBox="861.9010500000003 486.98877999999996 88.10000000000048 104.2599999999997" width="88.10000000000048" height="104.2599999999997">
            <path 
                d="m 897.44105,591.16878 -3.02,-2.44 -1.85,-4.92 -6.44,-4.17 -5.42,-1.33 -3.43,-3.38 -0.56,-2.87 2.85,-3.6 1.09,-5.89 -2,-2.51 -1.25,-4.12 -4.66,-25.11 -1.31,-4.3 -2,-1.92 -4.39,-0.85 -3.15,-1.82 0,0 8.36,-4.25 0.52,-1.54 2.51,-1.1 6.36,-9.35 0.07,-2.37 2.03,-1.43 0.69,-2.62 1.84,-1.03 1.28,-4.2 3.7,-0.91 2.37,-2.31 0.35,-3.84 6.89,1.43 2.64,2.16 0.08,1.52 -2.02,1.56 8.8,7.81 -0.03,7.14 2.84,-0.91 2.58,-2.92 7.2,-3.43 3.18,-5.29 4.11,-2.68 4.29,-0.18 0.35,1.76 5.8,-0.03 -0.3,2.41 3.2,0.21 0,0 0.49,-0.01 0,0 0,14.08 1.12,1.92 2.56,0 0,0 0.8,0 0,0 -0.4,5.1 -1.2,1.52 0.08,3.86 -4.56,7.44 -2.24,-0.32 -5.03,-5.6 -3.68,0 0,2.8 -2.96,8.56 3.84,0 1.76,1.36 0.32,2.64 2,1.59 2.95,0.08 4.64,2.32 2.72,2.8 2.24,-1.04 0.64,1.68 -1.52,3.2 0.88,2 2.24,1.2 0.72,4.18 0,0 -4.2,1.92 -1.6,4.24 -3.28,-0.32 -1.84,-1.52 -2.87,0.08 -5.04,-2.71 -2.4,-0.24 -3.76,1.75 -2.32,-1.11 -2.4,0.71 -2.08,-1.11 -3.44,-6.24 -0.4,-4.64 -1.6,-2.16 -2.4,0.48 -1.28,1.52 -0.48,11.04 -4.8,0 -2.8,-3.52 -3.76,-1.52 -1.12,1.68 0,3.51 1.52,0.81 2.64,14.1 -3.28,0.56 2.88,2.64 0.72,5.04 1.28,1.04 1.76,4.72 0,0 -4.8,0.32 -1.31,1.27 0,0 z" 
                fill="rgb(151, 144, 238)" 
                stroke="white" 
                stroke-width=".7px"
                title="Līvānu novads" 
                id="LV-056" 
            />
        </svg>