<svg xmlns="http://www.w3.org/2000/svg" viewBox="801.6010500000002 309.0387799999999 204.37005 158.64000000000004" width="204.37005" height="158.64000000000004">
            <path 
                d="m 976.25105,438.97878 -2.15,0.12 -8.76,-3.84 0,-5.16 -11.27,0.12 -4.08,3.12 -1.08,5.04 -1.44,1.56 -3.48,-3.12 -2.76,0.72 -5.4,4.2 -2.64,0.96 -5.4,-1.56 -16.8,-0.36 -1.43,1.44 1.1,7.03 0,0 -3.06,10.92 -7.94,7.51 -1.28,-1.35 -3.92,1.01 -0.56,-5.55 0.84,-1.56 -1.71,-3.32 -2.19,0.33 -1.77,2.45 -1.33,-0.8 -4.27,3.39 -2.29,-3.54 -1.09,-3.79 0.74,-2.96 -2.1,-3.23 -5.19,1.71 -3.88,-4.71 -9.8,5.44 -0.82,1.4 -7.17,4.58 -1.88,-2.23 0.49,-0.94 -1.08,-2.44 -3.7,-1.13 -2.43,-7.06 -2.87,1.22 -5.12,7.03 0,0 0.2,-3.73 -1.43,-0.67 -0.35,-1.65 4.37,-7.95 -4.59,-3.67 -6.41,0.74 -1.65,-2.51 -3.87,-0.67 -2.09,-1.65 -1.41,-2.39 0.57,-4.9 -2.05,-3.85 4.74,-6.07 -1.75,-8.52 -2.33,-1.72 -2.06,-0.09 -2.13,-3.25 -4.85,-4.33 -0.47,-1.87 -2.36,1.08 0,0 -0.4,-2.82 1.2,-1.92 -3.72,-3 -0.84,-3.96 1.2,-1.32 -0.84,-3.72 1.2,-1.68 2.76,-0.24 0.72,-2.88 7.56,-3.12 3.72,1.32 3.48,-2.88 1.8,-0.24 1.44,2.16 2.04,0.48 1.08,-2.64 8.28,0.24 1.44,-5.75 -4.68,-2.88 -0.72,-2.4 -4,-4.55 0,0 0.03,-0.05 0,0 2.95,-0.86 0.08,-2.03 2.88,-0.71 -0.72,-6.81 0.84,-2.16 -3.81,-2.4 -2.67,0.8 -0.74,-1.21 0.39,-5.73 2.17,-4.17 0.45,-8.68 3.1,-7.63 0,0 0.57,-0.83 5.15,-0.65 1.65,1.97 3.85,0.68 1.7,3.37 3.85,0.16 0.91,1.26 3.43,-0.92 0.22,-2.72 3.13,-1.86 5.44,2.94 1.36,1.88 0,0 0.72,1.06 1.99,0.18 2.05,-1.91 6.21,-1.09 3.15,1.67 0,0 0.12,12.34 -2.08,2.96 1.68,4.4 -1.36,4.64 1.44,7.44 -3.84,3.2 -1.84,3.04 3.67,-0.4 1.52,-1.84 2.24,-0.24 1.36,1.36 0.24,3.12 1.76,1.2 1.2,6.56 7.75,-0.4 3.36,-2.88 1.92,0.4 3.6,2.96 3.28,1.04 2.32,-0.56 0.64,-1.92 -2,-2.88 -0.16,-2 6.8,-1.28 2.72,-8.32 1.84,-1.52 -0.48,-2 -4.32,-1.28 -1.44,-2.48 1.44,-6 -1.2,-1.52 -1.32,-5.99 0,0 1.22,-1.08 3.49,0.03 4.81,-1.97 3.03,-3.56 0.42,0.87 2.61,0.12 2.81,3.31 2.81,-1.3 0.5,2.35 2.22,0.98 4.83,6.98 0.15,5.86 3.94,11.62 0.1,4.65 0,0 -1.14,2.44 1.2,4 -0.6,1.34 -14.7,21.89 -0.1,3.5 1.9,2.5 6.4,2.3 0.5,2.1 -4,3.6 1.1,1.9 2.3,1.3 2.2,0.7 1.2,-1.7 2.9,-0.3 3,2.3 3.3,-3.8 0.6,-3.1 5,-5.2 6.9,-5.2 0,-4 7.5,-7.1 2.1,0.9 1.39,2.2 4.4,0.8 14.4,-4 3.7,1.1 2.4,2.1 1.3,5.4 6.50005,1.6 2.11,3.2 0,0 -2.58,3.23 0,0 -2.17,1.75 -3.50005,6.81 -18.54,28.18 -0.81,2.66 0.49,1.77 -0.89,0.59 0.57,1.8 z" 
                fill="rgb(151, 144, 238)" 
                stroke="white" 
                stroke-width=".7px"
                title="Madonas novads" 
                id="LV-059" 
            />
        </svg>