<svg xmlns="http://www.w3.org/2000/svg" viewBox="650.6810500000001 6.608784700000033 71.15999999999985 87.03000029999998" width="71.15999999999985" height="87.03000029999998">
            <path 
                d="m 695.12105,6.7387847 -0.28,2.3 3.6,4.1000003 -0.4,4.29 -1.2,1.8 0,4.3 -2.5,3.8 2.3,6.7 1.3,1.6 2.9,0.9 1.4,4.3 -2.5,3.12 -0.6,2.8 3.5,6 7.4,3.2 4.6,8.1 0.1,5.59 5.2,2.7 1.7,2 -1.5,3.4 1.7,3.3 -0.4,8.8 0,0 -2.9,2.7 -2.8,-2.8 -5.7,-3.3 -6.2,-9.6 -2.5,-0.1 -3.8,0.9 -1.6,1.7 0,2 3.5,2.3 0.2,7.8 -0.9,2.1 -1.7,0.1 -1.5,-3.1 -5.2,-2.5 -5.59,-0.2 -5.9,5.36 0,0 -5.3,-3.1 -4.3,1.7 -1.7,-1 -0.7,-2.5 -5.9,-2.5 -2,-7.5 -1,-1 0.82,-2.44 -2.42,-13.05 -5.3,-3.4 -0.37,-22.56 0,0 10.72,-5.92 9.02,-6.37 6.93,0.5 2.54,-1.17 12.05,-16.2800003 z" 
                fill="rgb(151, 144, 238)" 
                stroke="white" 
                stroke-width=".7px"
                title="Mazsalacas novads" 
                id="LV-060" 
            />
        </svg>