<svg xmlns="http://www.w3.org/2000/svg" viewBox="643.9310499999998 306.46878000000004 59.35000000000025 55.72999999999985" width="59.35000000000025" height="55.72999999999985">
            <path 
                d="m 648.15105,345.29878 3.76,0.01 1.44,-1.44 0,-3.45 2.16,-2.16 5.4,-2.28 0.12,-2.76 -2.88,-2.88 -0.24,-2.16 2.4,-2.76 0.6,-7.68 -4.44,-5.52 0.36,-5.63 1.68,-0.12 1.08,1.79 0.24,3.6 1.92,1.8 6.84,2.28 3.23,-1.32 3.85,-0.05 -0.07,2.59 1.92,1.92 -1.46,0 0.01,2.84 2.98,1.88 5.15,1.08 0.4,1.77 1.85,1.45 -0.65,3.73 1.6,0.22 1.16,-1.24 1.86,2.65 2.09,0.13 1.51,2.13 3.35,-0.11 3.36,2.52 0,0 0.58,3.29 1.4,1.79 -2.12,2.13 2.69,4.25 -1.4,5.76 0,0 -2.99,-0.49 -7.2,0.9 -4.76,4.88 -4.24,-5.48 -2.1,0 -2.19,2.6 -0.48,3.07 -3.52,-0.97 -1,-4.4 -1.9,-0.6 -3.69,4.83 -2.64,-0.68 -1.2,2.13 -2.25,0.7 -6.52,0.36 -4.7,-2.94 -3.65,-0.13 -1.82,1.48 0,0 -1.1,0.87 0,0 0.94,-4.81 3.2,-3.8 0,0 z" 
                fill="rgb(151, 144, 238)" 
                stroke="white" 
                stroke-width=".7px"
                title="MÄlpils novads" 
                id="LV-061" 
            />
        </svg>