<svg xmlns="http://www.w3.org/2000/svg" viewBox="481.68104999999997 358.78878000000003 40.59000000000009 32.170000000000016" width="40.59000000000009" height="32.170000000000016">
            <path 
                d="m 520.77105,377.36878 -2.99,0 0,0 -1.84,5.84 -2.16,0.32 -2.88,2 -6,-2.56 -2.56,1.68 -4.32,0.24 -2.4,1.68 -4.72,1.04 -4.96,3.35 0,0 -0.16,-4.48 -2.4,-5.1 -1.7,-7.09 1.3,-1.9 3,-0.6 2.7,-3.3 3.8,-0.4 2.9,-4.6 1.3,-0.2 4.2,-4.5 0,0 4.7,1.3 5.3,3.5 2.9,0.3 3.2,3.3 4.19,1.6 1.1,1.6 -1.5,3.5 z" 
                fill="rgb(151, 144, 238)" 
                stroke="white" 
                stroke-width=".7px"
                title="MÄrupes novads" 
                id="LV-062" 
            />
        </svg>