<svg xmlns="http://www.w3.org/2000/svg" viewBox="324.7710499999999 215.92878 41.430000000000064 51.20000000000002" width="41.430000000000064" height="51.20000000000002">
            <path 
                d="m 340.76105,218.47878 1.82,-2.55 0,0 2.62,4.4 3.3,2.9 8.57,3.3 5.53,0.28 1.65,2.15 -1.14,2.65 0.4,4.01 1.8,0.65 -1.35,0.81 0.04,1.59 2.2,3.3 0,0 -5.13,1.77 -1.87,3.92 2.63,14.84 0,0 -4.88,1.15 -0.57,3.48 0,0 -8.26,-6.25 0.32,-2.08 2.4,-1.12 0.64,-3.2 -0.48,-3.84 -3.04,-4.64 -3.04,-0.64 -9.28,3.36 -1.92,-5.76 -5.59,-1.6 -1.44,-5.6 -1.92,-3.36 1.6,-2.56 4.15,-2.08 3.84,1.44 1.92,-0.32 0.8,-2.24 4.48,-0.48 0.32,-2.08 -3.2,-1.76 0,-1.28 1.44,-0.64 z" 
                fill="rgb(151, 144, 238)" 
                stroke="white" 
                stroke-width=".7px"
                title="Mērsraga novads" 
                id="LV-063" 
            />
        </svg>