<svg xmlns="http://www.w3.org/2000/svg" viewBox="659.7710500000002 491.1187799999999 89.4599999999997 110.30000000000007" width="89.4599999999997" height="110.30000000000007">
            <path 
                d="m 729.02105,521.02878 1.45,5.86 -1.63,3.64 -0.22,4.15 1.35,6.97 -1.47,0.61 -0.76,2.36 0.83,1.09 2.37,0.21 2.66,-1.21 2.19,0.46 2.22,-0.58 0.67,-1.73 2.29,1.55 0.34,2.48 -0.21,1.12 -8.53,2.24 -2.64,6.96 5.13,2.42 0.04,2.76 0.84,-0.09 2.78,4.29 3.65,0.09 1.91,4.96 1.81,0.75 -0.02,3.63 -2.27,4.47 1.93,8.81 3.5,3.26 -0.99,3.5 -8.3,0.27 -0.35,2.32 0,0 -3.97,0 -3.55,2.77 -6.06,-4.16 -1.53,-3.56 -2.37,-1.47 -1.08,-2.75 -2.93,-2.38 -2.42,1.38 -3.15,3.84 -8.06,0 -4.62,-2.99 -5.03,-1.12 -0.98,-2.53 -2.19,0.6 -1.06,-4.89 0.61,-2.38 -1.9,-2.57 0.92,-3.69 -1.85,-1.39 0.96,-1.84 -0.98,-0.69 -0.25,-3.93 -2,-0.55 -0.25,-1.84 -1.42,0.51 -2.12,-1.33 -1.16,-4.69 -2.89,-2.45 -0.88,-2.18 -2.57,-1.42 -1.48,-4.81 0.59,-10.97 -2.59,-1.85 -0.78,-1.82 -1.29,0.21 -1.74,-5.4 -3.63,-6.1 -0.79,-2.97 2.04,-5.13 -1.94,-1.95 -2.88,-0.06 -0.55,-0.88 0,0 0.59,-4.61 1.2,-2.3 2.6,-0.7 0.9,-4.4 2.1,-0.8 0.2,-2 15.5,-3.29 0,0 1.26,0.76 0.2,2.3 1.1,1.1 0,3.1 1.8,3.3 3.7,1.9 2.7,8.8 0.3,5.5 1.6,0.8 9.89,-1.4 4.4,1.7 6.7,0 z" 
                fill="rgb(151, 144, 238)" 
                stroke="white" 
                stroke-width=".7px"
                title="Neretas novads" 
                id="LV-065" 
            />
        </svg>