<svg xmlns="http://www.w3.org/2000/svg" viewBox="0.2510525300000073 494.2587799999997 45.31000046999999 101.69" width="45.31000046999999" height="101.69">
            <path 
                d="m 45.561053,538.28878 -2.66,-2.96 -2.72,-0.32 -3.52,2.55 0.16,3.52 1.28,2.56 -0.16,2.4 -1.76,1.6 1.6,6.72 -0.48,2.08 -2.88,3.36 -0.48,1.92 1.28,1.92 -0.64,2.4 -3.68,6.08 -1.76,4.96 -2.56,1.28 -0.8,-2.24 -1.28,-0.48 -1.6,0.8 0.16,11.35 -1.76,1.76 0.48,2.08 1.44,1.28 -0.48,2.24 -2.72,0.8 -2.72,-1.6 -0.32,-3.36 0.96,-3.03 -1.76,-1.6 -0.48,-9.44 -2.4,-2.08 -3.04,-0.16 -0.9600005,-1.76 1.2800005,-1.76 3.04,0 1.12,-1.92 -0.8,-3.2 -2.24,-1.6 -5.4400005,1.6 -3.92,-0.06 0,0 0.18,-12.82 -1.97999997,-11.84 -0.29,-8.3 5.05999997,-20.73 0.17,-10.09 0,0 3.41,0.1 2.7000005,-4.2 3,-0.3 0,0 1.1,-1.18 0,0 6.83,-0.08 5.52,-2.28 1.44,18.48 3,3.36 2.76,1.08 4.2,-3.12 3.24,0.96 1.2,3.48 -0.24,6 0.96,1.79 z" 
                fill="rgb(151, 144, 238)" 
                stroke="white" 
                stroke-width=".7px"
                title="Nīcas novads" 
                id="LV-066" 
            />
        </svg>