<svg xmlns="http://www.w3.org/2000/svg" viewBox="604.8610499999998 341.94877999999994 166.69999999999993 90.99999999999994" width="166.69999999999993" height="90.99999999999994">
            <path 
                d="m 701.88105,355.34878 2.29,2 4.8,0.68 2.77,2 3.99,-0.46 3.42,2.49 1.78,0.18 0.64,-2.06 -2.22,-1.2 3.41,-1.57 -0.95,-2.71 4.25,-1.97 -0.23,-2.9 2.44,-0.06 5.09,-3.48 3.24,-0.61 1.91,2.12 -0.18,2 0.99,0.5 1.43,4.28 -0.2,3.32 4.44,3.33 6.82,-6.81 0.13,-1.97 3.6,-1.54 1.45,-2.49 -1.36,-1.64 -0.61,-3.79 2.34,1.05 0.42,-2.09 1.23,0.46 0,0 1.63,-0.4 0,0 -0.76,3.17 4.13,1.05 2.06,3.79 -1.95,2.03 1.38,0.25 0.52,5.39 3.29,3.75 -0.9,1.17 0,2.86 -4.15,6.31 1.11,1.87 2.89,0.31 0.76,3.54 2.54,1.56 -0.42,0.65 -3.4,-1.51 -0.49,1.54 -2.4,0.64 -1.25,-1.07 -0.82,1.2 -2.17,0.4 0.5,4.39 -2.12,-0.31 3,3.93 2.05,-0.49 -1.28,2.06 1.3,2.09 -0.15,2.43 0,0 -2.45,1.53 -2.32,6.31 0.16,2.16 -5.92,5.6 -4.48,-1.2 -1.44,0.8 -1.84,3.68 -6.56,-1.76 -5.6,0.08 -1.36,1.28 -3.12,0.32 -1.99,1.28 -2.88,3.84 -1.76,0.48 0.08,2.24 5.52,0.88 0.64,1.84 -2.25,8.58 0,0 -5.8,-1.1 -5.2,-3.1 -1.4,0.1 -0.6,2.7 -2.68,0.12 0,0 0,-0.98 0,0 -5.12,-1.28 -0.88,-2.8 -6.64,-2.88 -0.32,-2.8 -2.4,-0.75 0,0 0,-3.9 -3.1,-3 -2.6,-6.7 -3.99,-6.4 -4.3,1.3 -8.9,-2.5 -0.6,-4 -1.2,-0.6 -1.1,0.4 -0.7,2.2 -2.42,0 0,0 -0.09,-0.47 0,0 -3,-2.8 -3.5,-0.7 -2,-4.1 -1.3,0.3 -0.9,2.2 -5.7,-5.2 -2,1.3 -0.8,9.4 -1.1,1.3 -1.8,-0.8 -0.5,-1.8 -2.5,0.9 0.1,5.4 -1.8,1 0,1.9 2.7,-0.3 1.1,0.9 -0.6,2.1 -5.3,2.2 0.5,2.29 -1.5,3 -5.5,0.1 -2.3,1.3 -5.5,-4.1 -5.39,-1.9 -7.6,-12.79 -2.3,-2 -2.95,-0.43 0,0 0.32,-2 5.12,-2.08 8.24,2.64 5.75,-8.64 2.17,-0.96 1.59,0.4 2.48,2.24 2,-0.88 1.52,-2.4 4.96,-0.48 0.64,-1.76 -4.08,-2.48 -4.08,-4.16 0.05,-3.04 0,0 0.4,-2.32 0,0 0.82,-1.05 4.68,-1.01 4.42,-4.1 0,0 3.17,-2.49 0,0 1.82,-1.48 3.65,0.13 4.7,2.94 6.52,-0.36 2.25,-0.7 1.2,-2.13 2.64,0.68 3.69,-4.83 1.9,0.6 1,4.4 3.52,0.97 0.48,-3.07 2.19,-2.6 2.1,0 4.24,5.48 4.76,-4.88 7.2,-0.9 z" 
                fill="rgb(151, 144, 238)" 
                stroke="white" 
                stroke-width=".7px"
                title="Ogres novads" 
                id="LV-067" 
            />
        </svg>