<svg xmlns="http://www.w3.org/2000/svg" viewBox="468.64104999999984 377.36877999999996 84.63000000000022 65.97999999999996" width="84.63000000000022" height="65.97999999999996">
            <path 
                d="m 509.40105,424.40878 11.5,-0.94 5.8,1 11.6,-1.3 3.6,2.6 0,0 8.1,0 0,0 2.34,3 0,0 -0.42,1.01 1.35,1.81 -1.35,1.99 -9.93,2.32 0.24,-2.17 -1.25,-0.55 -0.76,2.51 0.76,1.13 -2.31,0.61 3.45,1.77 -4.44,1.71 -0.12,2.44 -1.46,-0.31 -0.2,-2.75 -1.35,2.05 -4.73,-1.68 -1.68,-3.7 -0.12,-2.87 -1.68,2.6 -2.84,-0.64 -2.67,-3 -3.48,1.44 0,0 -1.63,0.55 -1.92,-2.02 -2.61,-0.49 1.18,-4.89 -2.98,-3 0,0 0.01,-0.23 z m 16.54,-47.04 0,6.4 2.88,4.64 2.56,0.56 0.8,1.6 1.04,4.8 -0.72,2.4 -3.68,3.44 -2.96,8.64 -4.08,0.8 -4.56,-1.36 -6.32,4.8 0,5.6 -1.2,3.49 0,0 -10.97,0.37 -1.61,-3.77 0.13,-3.49 -2.99,2.79 -3.38,-0.86 -8.28,1.78 0.84,2.33 -0.87,1.9 -1.01,-2.14 -1.58,-0.34 -3.72,2.76 -3.89,-2.26 -3.73,-4.29 0,0 1.99,-6.71 -1.41,-0.89 2.63,-8.52 -1.14,-0.8 0.54,-1.69 0,0 -0.04,-0.02 0,0 2.45,0.22 0,-3.84 2.16,-0.96 6.48,4.8 2.4,-3.04 1.28,-5.52 0,0 4.96,-3.36 4.72,-1.04 2.4,-1.68 4.32,-0.24 2.56,-1.68 6,2.56 2.88,-2 2.16,-0.32 1.84,-5.84 0,0 8.12,0 z" 
                fill="rgb(151, 144, 238)" 
                stroke="white" 
                stroke-width=".7px"
                title="Olaines novads" 
                id="LV-068" 
            />
        </svg>