<svg xmlns="http://www.w3.org/2000/svg" viewBox="455.7710499999999 416.2787800000001 74.46999999999986 74.86000000000007" width="74.46999999999986" height="74.86000000000007">
            <path 
                d="m 473.53105,448.98878 2.08,-0.64 0.96,-1.76 -0.16,-2.08 -2.4,-1.28 1.92,-4.32 -1.12,-3.35 -8.16,-0.16 -2.42,-1.5 0,0 0.18,-0.1 0,0 2.08,-0.48 0.16,-2.56 -1.92,-2.08 -6.88,0 -1.92,-1.28 -0.16,-1.6 5.6,-1.92 -0.16,-3.2 1.92,-1.44 5.49,-1.31 0,0 3.74,4.29 3.88,2.26 3.72,-2.75 1.58,0.33 1.01,2.15 0.88,-1.9 -0.84,-2.33 8.28,-1.77 3.38,0.85 2.99,-2.78 -0.13,3.49 1.61,3.76 10.98,-0.37 0,0 -0.29,1.2 0,0 -0.03,0.27 0,0 2.97,3 -1.17,4.9 2.6,0.49 1.92,2.02 1.63,-0.56 0,0 1.37,10.85 -3.7,0.37 -2.48,-1.77 1.65,-1.1 -1.21,-0.95 -2.54,-0.24 -0.67,2.32 2.07,4.28 3.73,0.18 0.07,1.34 5.6,0.71 -3.87,2.62 3.05,0.19 1.31,2.19 0.2,3.42 -3.04,1.07 -0.61,-0.95 -1.63,0.52 -0.39,0.92 2.04,1.19 -1.23,1.07 -3.12,-1.32 1.17,-3.14 -2.66,-0.09 -1.18,1.31 1.78,5.25 4.09,-0.06 0.49,3.72 11.42,-0.83 1.2,1.1 -3.26,5.67 -0.58,3.47 -2.71,1.41 0,0 -0.95,2.83 0.85,1.55 -2.97,3.08 -1.33,3.62 -1.73,0.86 0,0 -8.36,-5.99 -2.24,-2.72 -0.32,-5.28 -2.56,-8.16 -6.4,-11.68 -3.03,-1.28 -6.08,0.32 -7.36,-5.44 -6.4,-0.64 z" 
                fill="rgb(151, 144, 238)" 
                stroke="white" 
                stroke-width=".7px"
                title="Ozolnieku novads" 
                id="LV-069" 
            />
        </svg>