<svg xmlns="http://www.w3.org/2000/svg" viewBox="926.5710500000001 506.33878 70.01999999999987 107.89999999999992" width="70.01999999999987" height="107.89999999999992">
            <path 
                d="m 956.80105,605.27878 -2.56,-3.18 -4.56,-2.32 -1.68,-2.56 -0.08,-2.08 9.36,0 3.6,-1.6 0.64,-2.24 -0.48,-12.48 4.72,0 0,-4.08 -1.68,-4.55 -4.08,0 -1.36,-3.6 1.76,-3.68 -0.8,-2.48 -1.68,-1.28 -5.04,-0.08 -1.28,0.88 -1.6,-1.04 0,0 -0.72,-4.18 -2.24,-1.2 -0.88,-2 1.52,-3.2 -0.64,-1.68 -2.24,1.04 -2.72,-2.8 -4.64,-2.32 -2.95,-0.08 -2,-1.59 -0.32,-2.64 -1.76,-1.36 -3.84,0 2.96,-8.56 0,-2.8 3.68,0 5.03,5.6 2.24,0.32 4.56,-7.44 -0.08,-3.86 1.2,-1.52 0.4,-5.1 0,0 1.36,0 0,0 0.56,-4.96 2,-2.24 2.88,0.16 14.16,9.44 4.32,5.84 3.76,2.56 0.88,2.32 -8.56,1.84 -5.04,3.2 -4.56,5.71 -1.36,4.08 0.4,2.72 4.56,4.16 6.96,1.52 2.88,5.03 5.76,4.16 3.36,0.08 1.04,1.52 2.96,5.92 0.16,4.64 1.44,1.76 -0.24,3.41 4.71,1.92 -1.6,3.28 -0.08,5.04 -1.67,1.28 -2.96,0.32 -0.88,1.76 0.88,1.68 5.43,1.04 2.16,1.51 4.32,5.28 0.04,4.92 0,0 -6.16,6.2 -3.76,-3.92 -1.68,-0.16 -7.6,6.56 -4.24,1.12 -2.16,-0.96 -5.28,0.96 -2.2,-7.8 z" 
                fill="rgb(151, 144, 238)" 
                stroke="white" 
                stroke-width=".7px"
                title="Preiļu novads" 
                id="LV-073" 
            />
        </svg>