<svg xmlns="http://www.w3.org/2000/svg" viewBox="64.281053 470.14878000000016 70.44999699999998 87.43" width="70.44999699999998" height="87.43">
            <path 
                d="m 88.221053,557.05878 -3.41,-4.9 -4,-0.4 -2.4,-3 -2.5,-0.9 -3.3,0 -1.26,-2.85 0,0 5.76,-9.48 2.64,-14.51 -0.48,-3.6 -2.28,-2.4 0.36,-2.76 -6.24,-8.64 0.36,-7.32 -2.39,-2.28 -4.8,0 0.24,-8.4 0,0 3.95,1.44 4.08,-1.08 0.36,-5.52 -1.2,-2.52 2.04,-2.28 11.16,7.56 3.96,4.92 3.48,0 1.2,-1.08 0,-1.68 -1.32,-0.96 -0.24,-3.72 -2.64,-1.68 1.32,-3.36 3.36,-3.71 4.68,-1.8 1.919997,1.32 0.48,1.56 1.82,0 0,0 0.06,0.52 0,0 0.5,1.6 2.7,2.2 2.6,-2.1 2.8,2.1 1.4,-0.2 2.5,-4.8 10.39,3.5 0,0 -0.03,6.86 1.08,5.28 -1.56,1.56 0.36,1.92 4.2,2.4 0.72,4.08 -3.48,2.28 -4.44,0.72 -1.8,1.68 -0.24,2.99 3.48,5.76 -5.76,1.8 -0.72,2.04 7.08,4.08 4.08,6.24 1.44,-1.44 2.52,0.12 1.92,1.32 -0.36,1.92 -3.48,2.28 -2.64,4.08 0.12,3.36 3.48,4.8 0.32,1.94 0,0 -5.05,6.52 -8.23,0.63 -6.51,-3.66 -6.66,0.06 -2.58,1.09 -0.18,1.57 -2.64,-0.48 -1.319997,3.99 -3.38,2.85 -3.06,1.09 -2.32,-1.27 z" 
                fill="rgb(151, 144, 238)" 
                stroke="white" 
                stroke-width=".7px"
                title="Priekules novads" 
                id="LV-074" 
            />
        </svg>