<svg xmlns="http://www.w3.org/2000/svg" viewBox="716.97105 195.03877999999995 73.51999999999964 78.42000000000004" width="73.51999999999964" height="78.42000000000004">
            <path 
                d="m 780.19105,256.40878 0.33,4.36 -0.7,1.4 -7.3,3.7 -1.4,1.5 0.9,2.99 0,0 -1,1.6 -4.1,1.5 -1.8,-0.1 -1.2,-1.9 -3.7,-1.4 0,-1.59 1.8,-1.7 -0.1,-8.1 -4,-3.7 -1.2,-3.4 -8.89,-3.9 -2.3,-2.02 -3.8,0.9 -3.4,-0.9 -5.1,2.8 -2.9,-0.4 -1.6,-1.2 0.1,-1.4 3.6,-1.6 0.5,-1.5 -2.1,-3.3 -8.2,-1.6 -3.5,-2.5 -2.16,-0.16 0,0 0.18,-0.46 0,0 1.79,-6.8 4.3,0.2 1.1,-1.2 4.2,1.4 0.8,1.2 1.4,0.1 0.9,-1.6 3.6,0.2 0.8,1.4 2.8,0 4,-5.1 -0.3,-2.3 0,0 1.27,-3.02 -0.82,-2.75 3.25,-3.33 -2.95,-4.68 0.36,-1.22 1.59,-0.12 2.16,-2.5 -1.79,-0.75 0,0 2.01,-0.81 0.35,-2.09 1.46,0.28 0.98,1.56 0.74,-1 1.77,1.72 1.65,-0.47 0.58,1.97 7.8,-5.12 2.05,1.31 1.21,3 -0.2,3.12 2.14,-0.22 3.12,-1.31 0.64,-5.81 2.65,-0.81 3.88,-3.53 8.62,-0.21 2.03,1.56 0,0 1.4,2.49 -0.17,3.94 0,0 -2.13,0.24 -2.64,4.48 -1.68,7.68 -2.8,2.56 -0.24,5.31 -2.08,-0.16 -1.28,-2.48 -1.76,0.4 -8.07,3.2 -3.36,3.2 0.56,3.36 4.23,4.08 4.8,12.15 3.36,1.28 1.92,2.64 -1.12,3.04 z" 
                fill="rgb(151, 144, 238)" 
                stroke="white" 
                stroke-width=".7px"
                title="Priekuļu novads" 
                id="LV-075" 
            />
        </svg>