<svg xmlns="http://www.w3.org/2000/svg" viewBox="641.2510500000003 186.40878 101.58999999999946 76.02999999999994" width="101.58999999999946" height="76.02999999999994">
            <path 
                d="m 689.26105,186.40878 3.08,0.42 0,1.84 1.68,1.68 3.84,-1.6 3.6,2.32 -0.48,8.32 1.04,1.84 5.2,2.64 0.96,5.28 2.8,4.87 2.4,1.52 1.12,-0.32 -0.48,-2.8 1.29,-0.94 4.15,1.42 2.16,2.16 0.8,3.36 5.35,2.24 3.76,-5.04 1.76,0.24 3.12,2 0.73,5.67 5.4,-1.7 0,0 0.3,2.3 -4,5.1 -2.8,0 -0.8,-1.4 -3.6,-0.2 -0.9,1.6 -1.4,-0.1 -0.8,-1.2 -4.2,-1.4 -1.1,1.2 -4.3,-0.2 -1.79,6.8 0,0 -0.8,2.09 0,0 -2.3,4 2.5,2.9 0.1,1.6 -1.5,1.2 0,0 -0.5,2.4 0,0 -3.3,6.5 -1.6,1.4 -1.9,0.6 -3.4,-3.3 -5.5,0 -2.2,0.7 -2.5,3.2 -1.56,0.34 0,0 -2.24,-0.16 -1.04,2.08 -1.92,1.04 -7.28,0.32 -2,1.2 -10.64,0 0,0 0.11,-0.03 0,0 0.4,-4.56 1.3,-1.12 0.72,-2.89 -3.47,-1.96 -2.07,-3.76 -2.79,0.25 0.62,-1.8 -1.53,-0.72 0.34,-1.08 -2.36,-1.19 0.47,-1.33 1.25,0.4 0.96,-0.81 0.67,-2.92 1.55,-1.74 -2.41,-1.03 -3.35,0.1 -1.44,-5.84 -4.56,-8.24 0,0 0.37,-1.42 -1.81,-3.89 -5.63,-1.92 -3.66,-2.58 0.8,-2.99 8.13,1.92 3.24,2.75 5.49,-4.09 4.48,-0.48 14.58,-12.31 0.51,-3.41 1.51,-0.4 0.51,0.9 0.65,-0.81 -1.21,-2.46 6.65,1.78 1.92,-2.78 z" 
                fill="rgb(151, 144, 238)" 
                stroke="white" 
                stroke-width=".7px"
                title="PÄrgaujas novads" 
                id="LV-070" 
            />
        </svg>