<svg xmlns="http://www.w3.org/2000/svg" viewBox="11.811052999999974 348.25878 76.77999999999999 106.79000000000008" width="76.77999999999999" height="106.79000000000008">
            <path 
                d="m 85.421053,376.81878 -2.76,0.04 -0.8,0.94 -0.55,3.95 2.55,5 -1.05,2.35 -3.09,1.95 -7.2,-0.8 -2.05,2.7 -8.56,1.2 -0.7,5.8 -1,1.05 -3.9,0.02 1.3,12.7 1.05,2.55 -2.7,2.75 0,0 -5.4,-1.25 -2.75,2.4 -1.2,3.16 2.55,3.65 0.15,2.49 4.15,3.8 0,6.3 -2.1,3.2 -3.55,-0.15 0,2.95 -0.95,1.05 0,0 -5.15,0.3 -3.25,1.85 -4.1,-3.9 -1.35,-3.65 -3.89,-2.97 -3.6,5.52 0.36,10.56 -8.4,0.72 -3.83,-2.76 -1.84,-0.06 0,0 3.4,-19.55 0.25,-26.67 -1.24,-10.58 1.19,-5.16 6.73,-5.22 3.85,-5.06 6.67,-4.68 1.01,-1.84 0.42,0.49 6.16,-3.66 6.84,-5.9 6.2,-9.36 2.91,-1.85 4.46,-4.93 1.98,2.28 1.38,-0.74 0.67,1.39 0.49,-1.45 2.02,-0.43 4.76,2.29 0.96,4.9 0,0 -1.18,2.57 1.28,3.76 4.01,2.27 3.5,-1.47 0.67,1.69 -1.45,1.35 7.91,0.56 0.93,1.75 0,0 -2.66,4.46 0.57,2.03 z" 
                fill="rgb(151, 144, 238)" 
                stroke="white" 
                stroke-width=".7px"
                title="PÄvilostas novads" 
                id="LV-071" 
            />
        </svg>