<svg xmlns="http://www.w3.org/2000/svg" viewBox="761.9110499999998 392.8787800000001 76.1600000000002 77.6699999999999" width="76.1600000000002" height="77.6699999999999">
            <path 
                d="m 763.05105,459.87878 1.64,-0.59 2.64,0.73 1.56,-6.6 1.44,-2.16 0.36,-3.84 2.16,-3.48 7.08,-6.84 -2.88,-7.56 2.88,-1.68 5.52,-0.24 0,-9.24 -2.52,-1.08 -1.08,-3.84 1.2,-1.08 6.84,3.6 2.88,0.36 2.04,-0.6 1.32,-3.39 0,0 1.58,-0.24 5.31,-4.17 -0.65,-4.14 3.35,-4.32 -3.54,-3.53 3.18,-1.99 0,0 2.36,-1.08 0.47,1.87 4.85,4.33 2.13,3.25 2.06,0.09 2.33,1.72 1.75,8.52 -4.74,6.07 2.05,3.85 -0.57,4.9 1.41,2.39 2.09,1.65 3.87,0.67 1.65,2.51 6.41,-0.74 4.59,3.67 -4.37,7.95 0.35,1.65 1.43,0.67 -0.2,3.73 0,0 -9.24,4.88 -4.96,1.19 -1.14,1.65 -5.46,0.15 -3.95,1.41 -4.16,-2.14 0,0 -0.28,0 0,0 -5.24,-0.12 -4.4,1.83 -2.26,2.44 -5.32,1.4 -3.19,3.08 -7.48,1.59 -1.8,1.35 -5.1,0.05 0,0 0,0 0,0 -5.07,0.16 -2.76,-1.44 -1.5,-1.92 -0.06,-2.1 1.32,-1.68 z" 
                fill="rgb(151, 144, 238)" 
                stroke="white" 
                stroke-width=".7px"
                title="Pļaviņu novads" 
                id="LV-072" 
            />
        </svg>