<svg xmlns="http://www.w3.org/2000/svg" viewBox="764.2910500000003 203.02878000000004 92.63999999999976 80.2899999999999" width="92.63999999999976" height="80.2899999999999">
            <path 
                d="m 805.16105,256.35878 1.36,-2.95 7.2,-1.18 5.38,1.24 -0.47,2.45 5.55,-2.8 4.02,-0.4 0.42,-1.68 1.65,-0.09 0.47,1.43 1.4,-0.5 0.69,0.71 0.88,-1.12 2.42,-0.4 1.73,1.59 2.07,-1.74 2.19,0.4 6.39,-1.21 3.06,3.48 3,-0.22 0.54,4.29 0,0 1.82,5.62 -2.98,1.21 -1.51,-2.54 -1.55,1.02 -3.45,-0.43 -1.65,2.02 -0.08,5.31 2.17,1.99 0.19,1.83 0,0 -1.85,-0.09 -10.68,8.16 -2.76,1.08 -6.96,0.48 -4.08,-1.32 -4.44,-7.8 -3.48,-0.36 -4.2,2.04 0,0 -3,0.36 0,0 -2.16,-0.84 -1.08,-1.8 -0.12,-2.4 2.16,-6.36 -2.16,-1.92 0.12,-1.68 1.32,-0.96 0.46,-3.92 z m -14.84,-53.33 7.71,12.91 -3.18,1.15 -0.27,1.65 3.77,6.92 -0.23,5.89 2.24,0.25 0.29,1.96 2.83,1.49 0.27,1.37 2.12,-0.06 1.01,1.71 -3.77,0.25 -0.5,1.49 -1.77,0.25 0.14,1.71 1.77,-0.19 0.3,1.37 -3.88,10.71 1.52,1.76 0,0 1.71,0.28 0,0 -1.79,3.48 -1.84,0.16 -2.56,-2.32 -0.24,-2.88 -8.72,0.08 -3.76,2.48 -3.28,-0.48 0,0 -2.16,-2.4 1.12,-3.04 -1.92,-2.64 -3.36,-1.28 -4.8,-12.16 -4.24,-4.08 -0.56,-3.36 3.36,-3.2 8.08,-3.2 1.76,-0.4 1.28,2.48 2.08,0.16 0.24,-5.31 2.8,-2.56 1.68,-7.68 2.64,-4.48 2.11,-0.24 z" 
                fill="rgb(151, 144, 238)" 
                stroke="white" 
                stroke-width=".7px"
                title="Raunas novads" 
                id="LV-076" 
            />
        </svg>