<svg xmlns="http://www.w3.org/2000/svg" viewBox="942.0810500000003 475.13878000000034 93.23004999999978 134.2199999999997" width="93.23004999999978" height="134.2199999999997">
            <path 
                d="m 1006.9211,506.45878 -1.91,-1.01 -3.96,5.44 -0.32,5.59 -2.88005,2.13 -0.47,2.24 10.27005,10.01 0.87,3.85 2.75,2.58 0.69,4.67 2.38,2.81 -1.96,3.88 -1.52,-0.21 -1.97,-2.12 -3.26,1.12 0.42,2.72 1.28,1.3 -0.76,1.25 0.3,3.02 2.75,0.33 0.43,1.58 5.12,4.84 1.23,2.48 2.39,0.45 0.1,1 -4.34,4.65 0.82,1.03 -1.56,2.24 1.7,0.9 2.08,-1.09 1.1,1.48 -0.73,1 1.87,0.85 0.74,1.87 -0.92,2.51 2.96,4.73 0.48,3.81 12.22,0.15 0,0 -0.2,4.35 -1.2,0.36 -1.56,-1.11 -7.21,-0.06 -4.16,2.64 -4.8,-2.24 -4.88,1.52 -1.04,2.08 -4.24,1.52 -1.68,1.92 -0.56,2.24 2.56,2.64 -0.16,2.32 -1.28,0.64 -2.72,-2.24 -4.93005,0.33 0,0 -0.66,-3.01 0,0 -0.04,-4.92 -4.32,-5.28 -2.16,-1.51 -5.43,-1.04 -0.88,-1.68 0.88,-1.76 2.96,-0.32 1.67,-1.28 0.08,-5.04 1.6,-3.28 -4.71,-1.92 0.24,-3.41 -1.44,-1.76 -0.16,-4.64 -2.96,-5.92 -1.04,-1.52 -3.36,-0.08 -5.76,-4.16 -2.88,-5.03 -6.96,-1.52 -4.56,-4.16 -0.4,-2.72 1.36,-4.08 4.56,-5.71 5.04,-3.2 8.56,-1.84 -0.88,-2.32 -3.76,-2.56 -4.32,-5.84 -14.16,-9.44 -2.88,-0.16 -2,2.24 -0.56,4.96 0,0 -2.16,0 0,0 -2.56,0 -1.12,-1.92 0,-14.08 0,0 1.76,-0.05 0,0 5.77,-0.06 0.32,-4.23 -1.91,1.82 -0.91,-0.03 -0.07,-1.12 4.95,-12.36 0,0 4.72,0.18 0.85,-1.82 10.21,-0.49 1.53,2.89 1.36,0.06 1.08,-2.77 -0.02,-3.65 1.1,-0.77 0,0 3.67,0.7 2.5,2.75 5.74,2.86 0.07,1.98 1.24,0.76 -0.22,1.34 -4.12,0.85 -0.17,1.22 -3.29,1.1 -0.69,1.34 4.61,-0.04 0.32,3.38 1.44,1.34 2.78,-0.79 1.41,0.82 1.23,-1.37 1.97,1.16 -0.77,1.64 0.42,2.43 6.73,1.31 3.16005,-1.19 2.12,0.55 0.52,1.04 4.14,0.21 -0.74,2.7 1.3,2.71 z" 
                fill="rgb(151, 144, 238)" 
                stroke="white" 
                stroke-width=".7px"
                title="Riebiņu novads" 
                id="LV-078" 
            />
        </svg>