<svg xmlns="http://www.w3.org/2000/svg" viewBox="263.7510500000002 128.98878000000013 78.82999999999981 95.40999999999991" width="78.82999999999981" height="95.40999999999991">
            <path 
                d="m 342.58105,215.92878 -1.82,2.55 0,0 -1.28,-1.44 -2.4,0 -2.88,-3.04 -3.03,-1.6 -2.24,0.32 -0.96,3.52 1.44,2.08 0.16,2.72 -1.92,2.08 -3.36,1.28 -3.52,-0.64 -4.32,-5.6 -5.76,-4 -3.36,-8.15 -9.6,-8.64 -7.2,4 -2.88,-1.12 -1.44,-1.76 0.16,-2.24 4.16,-3.52 -0.16,-4 -1.76,-1.6 -5.28,0.32 -1.44,-1.28 1.76,-2.56 0,-1.6 -7.31,-0.48 0,0 -0.59,-2.72 0,0 0.32,-2.72 -2.08,-8.48 -2.88,-2.4 1.44,-1.92 0,-4.64 2.4,-0.32 0.32,-2.07 -2.88,-4.93 -3.84,-4.16 -2.24,-0.64 -2.56,-6.24 0,-2.56 1.6,-1.76 0,-5.6 1.6,-1.12 3.28,-0.26 0,0 0.82,6.81 3.52,11.89 7.85,13.07 8.23,8.77 5.89,4.63 12.1,7.78 1.46,-0.31 -0.64,1.72 0.93,0.03 0.22,-1.44 0.07,1.75 5.3,3.91 7.67,11.71 1.68,0.75 -0.34,1.09 3.13,4.03 4.4,4.15 z" 
                fill="rgb(151, 144, 238)" 
                stroke="white" 
                stroke-width=".7px"
                title="Rojas novads" 
                id="LV-079" 
            />
        </svg>