<svg xmlns="http://www.w3.org/2000/svg" viewBox="1.8510525000000169 535.0087800000001 86.37000049999996 88.62999999999988" width="86.37000049999996" height="88.62999999999988">
            <path 
                d="m 71.351053,545.00878 1.26,2.85 3.3,0 2.5,0.9 2.4,3 4,0.4 3.41,4.9 0,0 -4.38,6.47 -2.1,6.41 -3.58,2.39 -2.58,-0.27 -6.02,3.87 -8.75,2.99 -5.02,7.78 -2.55,2.18 -1.59,3.95 -1.51,1.3 -5.82,1.59 -0.89,1.93 0.6,5.37 1.4,2.2 -0.47,4.58 -2.36,2.04 0.36,1.48 -1.77,2.35 -1.87,5.72 -1.6,0.54 -1.95,0 -2,-2.59 -1.67,-0.66 -3.63,2.01 -12.28,2.95 -5.71,-21.95 -7.8900005,-21.11 -0.74,-7.13 0.49,-7.47 0,0 3.92,0.06 5.4400005,-1.6 2.24,1.6 0.8,3.2 -1.12,1.92 -3.04,0 -1.2800005,1.76 0.9600005,1.76 3.04,0.16 2.4,2.08 0.48,9.44 1.76,1.6 -0.96,3.03 0.32,3.36 2.72,1.6 2.72,-0.8 0.48,-2.24 -1.44,-1.28 -0.48,-2.08 1.76,-1.76 -0.16,-11.35 1.6,-0.8 1.28,0.48 0.8,2.24 2.56,-1.28 1.76,-4.96 3.68,-6.08 0.64,-2.4 -1.28,-1.92 0.48,-1.92 2.88,-3.36 0.48,-2.08 -1.6,-6.72 1.76,-1.6 0.16,-2.4 -1.28,-2.56 -0.16,-3.52 3.52,-2.55 2.72,0.32 2.66,2.96 0,0 4.8,7.32 2.28,0.72 1.92,-1.2 7.44,0.96 z" 
                fill="rgb(151, 144, 238)" 
                stroke="white" 
                stroke-width=".7px"
                title="Rucavas novads" 
                id="LV-081" 
            />
        </svg>