<svg xmlns="http://www.w3.org/2000/svg" viewBox="991.01105 308.0387799999999 81.48005 77.62" width="81.48005" height="77.62">
            <path 
                d="m 1013.8111,378.72878 -1.7,-0.71 -1.84,-3.44 -1.68,-9.72 -1.78,-1.85 -2.78,-0.09 -5.45005,-3.6 2.96005,-7.02 -0.45,-4.22 -1.40005,0.28 -1.89,-1.54 -2.86,0.12 -2.57,1.54 -0.94,-2.96 0,0 2.91,-7.61 -0.79,-0.71 -0.57,1.29 -1.42,-0.09 -0.55,-2.41 1.41,-0.15 -0.98,-0.83 -0.06,-2.04 0,0 1.98,0.46 -0.12,-1.72 1.13,-0.19 0,0 0.89,1.14 0.83,-0.61 -0.66,-1.3 1.35,-0.59 -0.73,-1.32 1.62,0.68 6.92005,-3.49 4.35,-5.93 1.9,-7.42 2.31,-2.99 0,0 1.22,-1.65 0,0 19.17,0 -1.2,7.52 1.76,2 2.32,1.04 2.88,-3.2 2.4,0.48 0.08,2.33 7.03,2.4 5.36,3.76 8,1.04 1.2,1.92 2.56,0.16 0.96,-1.04 3.52,-0.56 1.68,1.36 0.4,2.4 -2.88,2.08 -1.44,2.48 -0.16,4.08 -2,4.64 -3.6,2.24 -4.08,-0.4 -1.6,1.52 1.84,4.49 2.08,1.36 2.8,-0.08 1.36,2.08 2.4,-4.72 1.44,1.21 1.12,2.55 -1.2,4.72 2.32,5.28 -3.44,5.2 -4.91,-1.84 -2.48,1.68 -0.88,2.16 -3.52,0.16 -1.44,4.08 -5.04,2.64 -2.16,6.88 -2.4,1.44 -5.59,0.08 -0.96,-2.64 -2.24,-1.44 -10.24,-2.72 z" 
                fill="rgb(151, 144, 238)" 
                stroke="white" 
                stroke-width=".7px"
                title="RugÄju novads" 
                id="LV-082" 
            />
        </svg>