<svg xmlns="http://www.w3.org/2000/svg" viewBox="481.28105 491.13878 57.83999999999986 54.059999999999945" width="57.83999999999986" height="54.059999999999945">
            <path 
                d="m 512.67105,545.13878 -14.57,0.06 -1.73,-0.88 -0.86,-2 -7.5,0.15 0,0 -0.68,-9.49 0.93,-3.15 1.98,-2.24 -2.86,-1.03 -6.1,0.36 0.7,-3.28 2.58,-0.36 0.15,-3.58 -1.31,-1.09 2.94,-1.64 -0.08,-0.85 -3.1,-0.92 0.13,-3.03 3.2,-2.86 2.88,-8.39 8.33,-1.18 2.13,-2.77 2.51,-1.12 0.51,-3.2 9.45,0.76 0.76,-1.09 4.5,-1.18 0,0 2.04,3.22 -0.32,4.96 1.44,6.24 -2.72,2.56 0,2.72 3.84,4.96 4.96,2.72 1.92,2.55 7.84,1.28 2.56,2.56 -0.16,2.72 -1.76,1.44 -8,-0.64 -2.56,-2.72 -2.4,-0.16 -0.96,1.28 0.64,1.92 2.72,2.72 -0.32,2.4 -6.08,0.32 -2.08,6.72 -4.8,1.6 z" 
                fill="rgb(151, 144, 238)" 
                stroke="white" 
                stroke-width=".7px"
                title="RundÄles novads" 
                id="LV-083" 
            />
        </svg>