<svg xmlns="http://www.w3.org/2000/svg" viewBox="976.251050000002 391.71877999999964 161.46004999999798 198.88000000000017" width="161.46004999999798" height="198.88000000000017">
            <path 
                d="m 1136.1511,557.80878 1.56,-4.5 -4.59,-6.96 -2.27,-0.55 -0.59,-1.15 2.31,-4.12 0.8,-7.52 -0.64,-1.36 -3.53,0.9 -0.3,-1.36 -1.43,1.03 -4.34,-1.49 0.42,-1.12 -0.86,-1.33 -1.61,-0.06 -0.1,-2.01 2.64,-0.96 0.4,-1.52 -2.74,-0.73 -0.93,-1.52 2.62,-1.35 -0.32,-1.44 -5.31,-2.61 -0.76,1.55 -2.57,0.36 1.73,-1.37 -0.19,-1.82 -2.73,-1 -4.98,-9.14 1.43,-1.67 -0.96,-2.37 -1.72,-0.21 -3.53,4.53 -2.32,-0.09 -2.27,-4.5 1.06,-3.74 -2.86,-2.1 -0.1,-2.31 1.89,-1.37 -0.25,-0.82 -1.26,0.12 -0.12,-1.43 2.66,-3.32 0.88,-2.74 4.93,1.31 2.79,-1.25 0.99,1 0.77,-0.94 2.89,0.14 1.44,-1.08 0.24,-7.8 -3.9,-1.95 -1.21,-8.29 1.72,-2.71 3.01,-0.48 1.32,-3.8 -0.3,-3.3 -3.22,0.62 -1.73,-1.98 -2.02,0.18 -0.81,-4.12 -3.33,-2.69 -3.52,-0.67 -3.5,3.57 -3.92,-7.85 4.26,-3.79 -1.35,-1.19 2.91,-3.37 0,-7.9 3.9,-2.9 0.2,-3.3 -1.1,-3.6 -5.9,-2.4 1.6,-4.3 -8.8,0.1 -1.5,1.1 -6.8,0.3 -4.6,-2.6 -1.5,0.3 -1,0.9 -5.68,-0.23 -1.82,-1.56 -5.15,-1.81 -15.03,0.61 -3.31,-6.5 -4.29,2.33 -2.69,-2.51 -5.89,1.14 -2.74,-0.83 -0.12,4.2 -6.65,-0.34 -0.57,-0.31 1.28,-4.75 -7.91,-1.56 -2.05,4.94 -1.68,-0.25 0.1,-2.55 -5.74,-6.2 -2.17,1.75 -3.50005,6.81 -18.54,28.18 -0.81,2.66 0.49,1.77 -0.89,0.58 0.57,1.8 -2.29,3.71 0.86,0.73 9.49,-0.43 0.8,2.6 1.9,1.9 2.7,0.3 1.9,-1.4 2.4,0.4 2.8,3.8 -0.1,3.42 3.60005,4.4 0.9,5.4 2.9,1.1 2.2,3.1 8.1,1 3.7,4.6 -1.2,3.6 2.2,3.6 -0.7,2 -1.9,1.3 -0.1,1.7 1.4,1.6 1.7,7.3 2.4,3 -0.9,2.8 4.9,4.1 -0.4,2.9 -4.2,5.4 -6.7,-1.8 -2.6,0.8 -1.2,2.1 -2.8,0.2 -3.37,-4.03 -1.92,-1 -3.95,5.44 -0.32,5.59 -2.88005,2.13 -0.47,2.25 10.27005,10.01 0.88,3.85 2.74,2.58 0.69,4.67 2.39,2.82 -1.97,3.88 -1.51,-0.21 -1.97,-2.12 -3.26,1.12 0.42,2.73 1.28,1.3 -0.76,1.24 0.3,3.03 2.74,0.33 0.44,1.57 5.12,4.84 1.23,2.48 2.39,0.45 0.1,1 -4.34,4.66 0.82,1.03 -1.56,2.24 1.7,0.91 2.09,-1.09 1.09,1.48 -0.72,1 1.87,0.85 0.74,1.87 -0.92,2.51 2.96,4.74 0.49,3.8 12.22,0.15 4.57,-2.66 1.84,-2.32 0.4,-2.4 2,0 4.88,2.4 8.72,-1.2 2.96,2 4.72,-1.28 3.74,0.6 3.76,-2.48 7.33,0.19 2.42,0.39 -0.07,2.46 6.08,0.56 2.16,-3.12 -0.5,-2.26 1.94,-2.11 -2.57,-1.78 0.74,-1.29 3.36,-0.48 3.36,1.76 2.96,-0.16 4.08,-2.48 1.23,-5.35 1.51,0.08 0.17,1.51 1.26,0.06 2.55,2.58 3.28,-0.08 1.6,1.44 2.4,0.32 7.28,-2.56 2.9,0.33 1.4,1.15 1.86,0.07 3.18,-4.02 -0.12,-1.5 -2.12,-0.26 -1.06,-2.08 0.12,-2.64 4.48,-6.18 z m -55.61,-65.23 -2.56,3.36 0.32,3.68 -2.24,4.32 -1.92,0 -1.44,-4 -1.44,-0.48 -1.44,1.44 -1.44,-1.6 -0.32,-6.88 1.92,-6.72 1.6,-0.32 2.08,-2.4 4.32,0 1.44,2.08 1.42,0.45 -1.1,3.71 0.8,3.36 z" 
                fill="rgb(151, 144, 238)" 
                stroke="white" 
                stroke-width=".7px"
                title="Rēzeknes novads" 
                id="LV-077" 
            />
        </svg>