<svg xmlns="http://www.w3.org/2000/svg" viewBox="694.3410499999999 0.32878469999998505 62.52999999999997 97.4900003" width="62.52999999999997" height="97.4900003">
            <path 
                d="m 754.07105,29.948785 -4.56,2.58 -1.04,3.84 1.04,2.64 -1.36,1.36 -2.56,-0.48 -2,-1.68 -2.08,0.08 -2.24,2.88 -1.84,-0.96 -2,-9.04 -1.84,-0.32 -7.76,11.76 -2.08,7.28 4.4,11.21 1.36,-3.76 1.84,1.44 1.92,0 6.96,6.24 1.12,2.88 3.36,0.8 6.64,14.4 0.64,2.32 -1.28,1.84 0.8,1.76 2.4,0.16 0.88,-2.4 1.6,-0.16 -0.08,9.5 0,0 -1.8,0 0,0 -6.2,1.3 -5.5,-0.1 -2.59,-1.4 -11.7,1.9 -1.8,-0.9 -2,-5.9 -3.28,-1.18 0,0 0.4,-8.8 -1.7,-3.3 1.5,-3.4 -1.7,-2 -5.2,-2.7 -0.1,-5.59 -4.6,-8.1 -7.4,-3.2 -3.5,-6 0.6,-2.8 2.5,-3.12 -1.4,-4.3 -2.9,-0.9 -1.3,-1.6 -2.3,-6.7 2.5,-3.8 0,-4.3 1.2,-1.8 0.4,-4.29 -3.6,-4.1000003 0.28,-2.3 0,0 1.24,-3.78 4.45,-0.89 3.55,1.24 5.95,0.16 -0.59,-2.22 0.88,0.38 1.63,-1.3 2.04,1.87 0.18,1.94 -1.36,2.6 1.13,0.83 0.84,4.2200003 1.68,-0.86 -1.61,3.65 1.09,5.71 0.4,0.57 0.44,-1.46 0.83,-0.03 1.88,1.65 -2.76,0.76 2.76,4.31 1.45,-0.06 0.85,3.07 2.46,-0.16 1.92,1.24 2.74,-1.3 -0.72,-5.99 0.97,-1.39 0.37,-4.48 -1.96,-4.31 -3.45,-2.38 -1.53,-3.1100003 0.7,-1.53 1.68,-0.66 1.3,-3.56 1.4,-0.22 7.08,7.46 4.9,9.0100003 7.57,0.38 7.1,4.82 2.27,3.08 -2.88,1.04 -0.85,1.75 z" 
                fill="rgb(151, 144, 238)" 
                stroke="white" 
                stroke-width=".7px"
                title="Rūjienas novads" 
                id="LV-084" 
            />
        </svg>