<svg xmlns="http://www.w3.org/2000/svg" viewBox="566.6510499999999 41.558785000000064 55.960000000000036 174.83999499999993" width="55.960000000000036" height="174.83999499999993">
            <path 
                d="m 622.61105,104.28878 -7.39,3.2 -1.4,1.49 -0.4,1.5 1.7,1.9 0.1,1.9 -1.9,2.5 2.4,3.4 -7.5,0.2 -2.6,1.4 -0.9,1.6 0.8,1.6 -0.4,2.6 -1.8,3 1.2,1 2.8,-0.1 1.3,1.6 -3,1.3 -6.2,0.1 -0.9,-2 -3.4,-0.7 -4.82,1.7 -6.5,0.2 -1.6,1.1 -0.7,2 1.8,9.34 -0.3,12.1 1.6,1 -0.8,6.69 5.1,0.5 2.2,-1.1 2.3,0.4 2.2,1.5 0.4,6.3 5.9,0.3 1.2,2 -1.9,3.6 1.3,11.7 5.6,3.4 0.3,1.9 -0.5,2.3 -2.6,3.1 -6,0.2 -1.8,2.1 0,3.3 -3.7,5.3 -5.5,2.49 -6.6,0.1 -4.41,1.1 0,0 -2.5,-15.53 -0.62,-19.3 -1.14,-5.82 -1.87,-3.41 1.09,-5.07 -0.74,-7.17 1.23,-6.11 2.41,-3.42 0.12,-1.91 -3.25,-9.53 -0.44,-8.36 -1.7,-5.46 -1.93,-2.48 0.8,-28.229995 0.63,1.61 0.06,-0.76 -1.73,-3.87 -0.45,-2.33 0.7,-0.32 -0.99,-1.04 0.69,-1.1 -1.01,-2.27 0.32,-5.46 2.56,-11.81 8.97,1.17 1.23,1.93 7.89,-4.36 -1.15,-5.56 1.2,-2.75 -2.39,-1.39 2.69,-4.58 8.09,-1.93 -0.21,-1.43 1.22,-0.16 1.06,-3.32 3.3,0.29 1.03,-1.52 3.6,-0.89 1.12,-1.19 0,0 2.86,10.02 0.96,7.19 3.35,2.88 0.32,1.44 -2.24,3.52 -3.51,1.28 0.32,1.6 3.84,2.24 2.07,4.8 1.12,8.96 z" 
                fill="rgb(151, 144, 238)" 
                stroke="white" 
                stroke-width=".7px"
                title="Salacgrīvas novads" 
                id="LV-086" 
            />
        </svg>