<svg xmlns="http://www.w3.org/2000/svg" viewBox="542.74105 363.21878000000004 54.27999999999997 27.350000000000023" width="54.27999999999997" height="27.350000000000023">
            <path 
                d="m 583.36105,363.69878 2.03,0.26 0.6,4.83 7.56,1.16 1.22,1.03 0,0 -0.15,1.6 2,2.27 -0.98,1.29 1.38,3.12 -1.28,1.2 -3.2,-0.4 -2.4,-3.76 -5.85,-3.35 -1.15,0.3 1.11,3.63 2.73,3.69 -2.51,4.08 0.32,3.66 0,0 -3.77,0.11 -2.76,1.67 -14.28,-2.88 -10.08,3.36 -3.84,-1.08 -7.2,-7.79 -0.12,-2.04 1.44,-2.04 0,0 1.79,-0.28 4.3,1.8 1.1,2.4 7.4,3 3.6,-1.21 -6.67,-4.75 0,0 -0.12,-4.44 -2.88,-5.28 0.24,-3.6 6.36,-2.04 4.44,0.48 2.52,1.32 -0.12,4.08 1.68,1.68 2.76,-0.72 2.16,-4.68 z" 
                fill="rgb(151, 144, 238)" 
                stroke="white" 
                stroke-width=".7px"
                title="Salaspils novads" 
                id="LV-087" 
            />
        </svg>