<svg xmlns="http://www.w3.org/2000/svg" viewBox="770.7710500000002 458.64878000000004 50.969999999999914 77.33999999999997" width="50.969999999999914" height="77.33999999999997">
            <path 
                d="m 771.30105,470.38878 5.1,-0.05 1.8,-1.35 7.48,-1.59 3.19,-3.08 5.32,-1.4 2.26,-2.44 4.4,-1.83 5.24,0.12 0,0 0.16,0 0,0 -0.21,6.95 -3.5,4.4 -0.1,2.4 3.1,5.1 0.5,4.9 12.7,3.06 0,0 1,2.9 -1.2,4.5 -1.3,0.9 -0.1,3.3 0,0 0.3,2 0,0 -1.1,2.8 1.1,1.9 -3,4.29 0.1,1.8 2.6,1.4 1.6,5.1 3,2 -0.3,2.7 -4.4,1.3 0.3,6.7 -4.1,1.9 -1.3,1.7 -0.1,2.9 -9.78,0.32 0,0 -1.5,-1 0,-3.7 -7.89,0 -3.5,-7.79 -5.3,0.19 0,-4.99 -2.6,0 0,-4.88 -1.2,-0.9 1.6,-7.6 -2.66,-2.51 0,0 -0.06,-4.14 -5.27,-5.32 -1.46,-0.09 -1.45,-2.01 0.03,-1.67 2.46,-2.35 0.45,-5.35 4.93,-0.95 1.15,-1.61 1.11,-2.99 -0.24,-5.18 -0.82,-0.55 -4.16,2.5 -3.93,-0.06 z" 
                fill="rgb(151, 144, 238)" 
                stroke="white" 
                stroke-width=".7px"
                title="Salas novads" 
                id="LV-085" 
            />
        </svg>