<svg xmlns="http://www.w3.org/2000/svg" viewBox="164.86105000000006 360.70878000000033 166.06000000000003 177.9999999999996" width="166.06000000000003" height="177.9999999999996">
            <path 
                d="m 256.68105,384.37878 -2.71,0.57 0,5.46 -3.66,8.96 -1.32,11.7 2.4,4.08 1.26,5.34 1.8,-0.12 1.96,-2.16 0.6,0.78 0,6.24 2.64,2.4 0.24,2.16 -2.04,3.71 2.22,6.84 -0.12,3.45 -1.62,1.92 2.04,4.14 2.4,1.5 3.9,-0.96 1.44,0.72 -0.96,5.57 1.02,1.92 -0.78,4.38 1.02,1.5 3.48,1.5 1.5,-4.14 4.68,-2.64 0,-5.45 1.56,-0.9 7.56,2.03 3.84,3.84 2.34,7.8 4.45,6.55 0,0 -0.49,2.63 1.56,2.16 0,2.52 -3.6,6.48 0.6,7.08 -3.17,1.27 -1.15,1.49 0.6,2.16 4.92,2.4 0.36,1.92 1.29,0.78 -0.5,1.34 2.26,2.19 -5.21,0.36 -1.2,1.2 -0.72,2.64 1.2,4.44 4.97,1.2 6.66,-0.09 6.33,4.98 6.93,1.73 2.37,1.88 2.96,-2.4 3.87,0.73 0,0 0.46,1.52 1.63,0.09 0.17,1.54 -1.72,0.67 0.51,1 -1.25,1.18 -3.38,1.46 -4.73,0.21 -2.24,2.22 -1.46,-0.58 -1.65,0.82 -8.13,-1.18 -4.67,0.3 -2.38,-1.03 -3.61,0.3 -5.1,5.43 -2.86,0.6 -3.62,-3.42 -3.48,-0.49 -3.96,-5.54 -4.42,-0.43 -1.23,-1.88 -4.07,0.85 -3.3,-0.55 -1.5,-1.3 -1.38,0.55 -4.83,-1.61 -2.08,-2.31 -5.02,-0.09 -3.87,-1.58 -3.6,0.67 -2.76,2.18 -3.78,-0.42 -2.71,2.34 -2.75,-2.13 -2.23,0.03 -1.23,-2.18 -11.8,1.88 -1.7,-2.13 -3.03,-0.81 -1.38,-3.71 -7,1.31 -6.59,-3.77 -4.24,1.88 -1.94,-0.6 -1.58,1.64 -1.44,-0.73 -0.76,1.39 -2.51,-0.15 -0.82,1.19 -2.01,-2.13 -3.13,0 -0.53,2.76 -3.1,0.28 -1.99,5.34 0,0 -3.29,-1.64 -2.51,-6.25 0.45,-0.88 5.61,-1.86 3.61,0.79 0.56,-1.48 -1.53,-2.46 1.65,-2.77 -1.65,-2.28 -4.86,-0.76 -2.92,-3.98 0.86,-2.67 -2,-0.95 0.15,-1.85 2.48,-2.13 0.7,-2.65 0,0 5.39,-1.15 1.73,1.18 1.41,-1.15 3.25,4.16 0.98,-0.06 1.12,-2.73 1.35,-0.58 1.14,-4.45 -2.07,-2.92 -4.2,-0.12 -2.34,-2.01 -0.98,-2.19 0.78,-3.14 6.49,-0.49 13.43,-3.41 -0.02,-4.54 -2.44,-3.36 1.06,-4.24 -0.72,-1.19 -1.73,-0.33 -0.36,-2.23 0.59,-1.68 2.14,-0.37 -1.25,-2.78 0.84,-2.26 -3.6,-6.9 0.46,-2.81 -1.45,-1.07 -0.2,-2.94 0.55,-0.49 2.43,2.02 2.89,0.22 1.45,-2.27 5.25,-2.6 2.93,-9.88 2.5,-0.8 -1.46,-1.13 -1.4,-5.42 -0.82,-0.4 0.3,-3.52 -1.45,-8.67 0,0 7.04,1.04 2.61,-5.65 0.35,-2.88 2.07,-0.21 1.9,-2.61 8.88,-0.77 -0.42,-1.57 2.46,-3.34 3.63,0.52 2.49,-4.08 -3.63,-3.14 -0.3,-4.09 -2.59,0.47 -1.65,-1.57 -2.98,1.78 -1.03,-1.32 -1.76,0.52 -0.49,-0.95 0.86,-4.52 3.01,-0.22 0.38,-3.78 -1.78,-1.14 2.92,-4.3 3.24,0.36 4.56,2.28 1.41,7.66 3.15,0.8 1.19,2.22 2.78,1.9 1.04,-1.72 4.16,0.09 0.91,-4.86 2.79,-4.55 0,0 4.88,-2.86 9.6,1.68 -0.24,4.75 -4.09,1.41 0.77,2.37 0.94,-1.45 -0.16,4.09 -1.86,1.02 1.25,2.73 z" 
                fill="rgb(151, 144, 238)" 
                stroke="white" 
                stroke-width=".7px"
                title="Saldus novads" 
                id="LV-088" 
            />
        </svg>