<svg xmlns="http://www.w3.org/2000/svg" viewBox="617.4710500000001 270.44878 85.05999999999995 74.86000000000001" width="85.05999999999995" height="74.86000000000001">
            <path 
                d="m 662.18105,270.44878 3.55,0.29 3.76,3.44 1.52,4.05 3.7,4.5 0.27,8.24 1.14,3.4 -1.28,1.7 -1.54,-0.37 2.86,4.06 3.69,1.17 2.76,-0.12 1.08,-1.32 2.4,0.12 1.92,1.56 3.12,-1.44 2.52,1.32 0,0 0,2.76 0,0 4.44,4.08 4.32,6.12 -1.08,1.56 -4.92,2.64 -0.36,3.12 4.68,5.4 0,2.04 1.56,2.64 0.24,5.64 -1.8,1.08 0,0 -3.36,-2.52 -3.35,0.11 -1.51,-2.13 -2.09,-0.13 -1.86,-2.65 -1.16,1.24 -1.6,-0.22 0.65,-3.73 -1.85,-1.45 -0.4,-1.77 -5.15,-1.08 -2.98,-1.88 -0.01,-2.84 1.46,0 -1.92,-1.92 0.07,-2.59 -3.85,0.05 -3.23,1.32 -6.84,-2.28 -1.92,-1.8 -0.24,-3.6 -1.08,-1.79 -1.68,0.12 -0.36,5.63 4.44,5.52 -0.6,7.68 -2.4,2.76 0.24,2.16 2.88,2.88 -0.12,2.76 -5.4,2.28 -2.16,2.16 0,3.45 -1.44,1.44 -3.76,-0.01 0,0 0.02,-2.22 0,0 -6.5,-3.4 -7.1,0.3 -1.7,0.9 -3.1,-0.8 -2.3,-2.8 -5.9,-2.7 -1,-1.8 0.4,-5.2 -3.3,-4.5 -0.2,-2.6 0,0 0.59,-1.67 1.92,0 2.88,2.08 3.92,1.04 4.48,-1.76 0.24,-2.56 4.24,0 2,-2.32 2,-0.24 0.08,-4.64 -3.92,-1.99 0,-2.08 0.72,-1.04 2.4,1.68 1.76,-0.48 2.19,-8.56 0,0 2.6,0.21 -0.3,-6.4 3.1,-7.3 6.5,-2.1 2,0.8 1.8,-1.2 1.3,-2 0.59,-5.7 1.61,-3.74 0,0 z" 
                fill="rgb(151, 144, 238)" 
                stroke="white" 
                stroke-width=".7px"
                title="Siguldas novads" 
                id="LV-091" 
            />
        </svg>