<svg xmlns="http://www.w3.org/2000/svg" viewBox="135.84105 392.4787800000001 71.14999999999992 101.77999999999997" width="71.14999999999992" height="101.77999999999997">
            <path 
                d="m 139.57105,471.32878 0.66,-0.73 -1.43,-1.86 1.07,-2.77 -4.03,-7.51 4.15,-2.19 1.83,0.15 0.69,-2.11 3.87,-2.76 0.7,-4.4 -2.9,-7.09 0.66,-3.99 0,0 1.16,-0.52 0.56,-4.08 2.23,-1.44 3.21,0.32 2.96,-3.76 4.95,-1.52 5.6,2.32 2.64,-2.24 0.32,-2.32 -4.96,-17.71 3.04,-6.88 4.64,-2.64 0.96,-2.16 2.56,-0.96 4.72,2.88 1.52,-0.48 0.48,-2.32 7.92,0.72 1.04,4.4 2.16,1.84 4.96,-1.2 4.65,4.2 0,0 1.45,8.67 -0.3,3.52 0.82,0.4 1.4,5.42 1.46,1.13 -2.5,0.8 -2.93,9.88 -5.25,2.6 -1.45,2.27 -2.89,-0.22 -2.43,-2.02 -0.55,0.49 0.2,2.94 1.45,1.07 -0.46,2.81 3.6,6.9 -0.84,2.26 1.25,2.78 -2.14,0.37 -0.59,1.68 0.36,2.23 1.73,0.33 0.72,1.19 -1.06,4.24 2.44,3.36 0.02,4.54 -13.43,3.41 -6.49,0.49 -0.78,3.14 0.98,2.19 2.34,2.01 4.2,0.12 2.07,2.92 -1.14,4.45 -1.35,0.58 -1.12,2.73 -0.98,0.06 -3.25,-4.16 -1.41,1.15 -1.73,-1.18 -5.39,1.15 0,0 -0.12,-3.68 -8.8,2.98 -1.21,-1.61 -0.25,-4.26 -5.8,1.67 -4.16,-0.45 -7.19,-3.96 1.96,-2.77 -1.52,-2.32 -2.88,0.3 1.3,-2.01 -0.76,-1.92 1.48,-1.03 z" 
                fill="rgb(151, 144, 238)" 
                stroke="white" 
                stroke-width=".7px"
                title="Skrundas novads" 
                id="LV-093" 
            />
        </svg>