<svg xmlns="http://www.w3.org/2000/svg" viewBox="680.8110499999999 420.17878 30.010000000000105 39.68000000000001" width="30.010000000000105" height="39.68000000000001">
            <path 
                d="m 700.74105,455.37878 -7.13,-1.56 -6.36,5.82 0,0 -1.76,0.22 0,0 0.02,-7.69 -4.1,-1 -0.6,-1.3 1.9,-8 -0.3,-7.29 1.1,-1.4 2.1,1 4.29,-2.9 -0.4,-2 -3.79,-3.1 -1,-3.2 1.2,-2.1 9.39,-0.7 0,0 2.4,0.75 0.32,2.8 6.64,2.88 0.88,2.8 5.12,1.28 0,0 0,1.12 0,0 -3.44,1.2 -1.52,1.6 1.28,3.76 2.48,0.4 1.36,1.28 -1.2,4.4 0.64,2.48 -3.36,2.72 -5.2,0.96 z" 
                fill="rgb(151, 144, 238)" 
                stroke="white" 
                stroke-width=".7px"
                title="Skrīveru novads" 
                id="LV-092" 
            />
        </svg>