<svg xmlns="http://www.w3.org/2000/svg" viewBox="549.46105 348.5787800000001 33.89999999999998 29.999999999999943" width="33.89999999999998" height="29.999999999999943">
            <path 
                d="m 571.42105,351.33878 2.04,7.92 1.2,1.56 1.8,-2.88 5.15,0.24 1.68,2.52 0.07,3 0,0 -10.62,1.68 -2.16,4.68 -2.76,0.72 -1.68,-1.68 0.12,-4.08 -2.52,-1.32 -4.44,-0.48 -6.36,2.04 -0.24,3.6 2.88,5.28 0.12,4.44 0,0 -2.28,-0.96 -3.96,-6.84 0,-11.16 1.68,-2.52 2.52,-1.8 3.84,-0.84 4.44,-2.88 1.32,-1.92 0,0 2.76,-1.08 0,0 2.4,0.48 z" 
                fill="rgb(151, 144, 238)" 
                stroke="white" 
                stroke-width=".7px"
                title="Stopiņu novads" 
                id="LV-095" 
            />
        </svg>