<svg xmlns="http://www.w3.org/2000/svg" viewBox="763.14105 108.47878 80.47000000000003 86.74000000000001" width="80.47000000000003" height="86.74000000000001">
            <path 
                d="m 809.94105,187.24878 6.72,-5.12 0.64,-2.16 -1.36,-3.6 -1.52,-0.4 -3.52,5.6 -4.96,-2.32 -3.52,-5.12 0.16,-1.84 2.24,-1.44 5.68,-0.16 0.64,-1.52 -2.96,-3.84 -8.24,-0.8 -0.48,-1.76 2.88,-2.16 -0.56,-2.48 -2.8,-1.28 -4,-6.8 -1.84,-1.28 -5.76,2.64 -10.63,0.3 0,0 -0.1,-0.54 0,0 -11.75,-4.48 -1.52,-2.32 -0.24,-3.68 1.29,-1.75 2.28,0.22 0.37,-2.78 14.33,-1.27 -1.2,-8.2 1.3,-1.6 2.7,-0.4 1.1,-1.1 -1.2,-4.2 8.99,0 2.4,-5.69 0,0 4.44,1.36 2.24,-0.24 1.28,-1.36 12.4,-5.2 2.64,0.48 0.24,2 -2.56,8.4 0.32,2.08 2.8,0.56 2,1.84 0.96,2.64 20.87,5.69 0.48,1.52 -2.48,2.16 -0.56,8.48 -2.24,1.6 -0.72,2.4 -7.28,5.44 -3.92,0.4 -3.35,-1.52 -1.28,0.32 -0.08,2.08 2.95,2 8,1.44 -0.48,5.53 -6.23,7.12 0.08,2.16 2.47,4.16 2.56,-0.88 0.48,-1.6 3.76,0 0,0 0.16,5.6 1.36,2.8 0.16,3.44 -1.44,5.04 -3.76,3.04 -2,0.32 -1.44,-1.04 -0.08,-2.24 2,-3.36 -3.04,-1.84 -1.6,2 -15.27,0 z" 
                fill="rgb(151, 144, 238)" 
                stroke="white" 
                stroke-width=".7px"
                title="StrenÄu novads" 
                id="LV-096" 
            />
        </svg>