<svg xmlns="http://www.w3.org/2000/svg" viewBox="574.3910499999998 241.30878 50.580000000000155 64.13" width="50.580000000000155" height="64.13">
            <path 
                d="m 585.38105,248.80878 0.39,-1.43 4.93,-0.9 10.6,-4.89 3.01,-0.28 2,1 0.2,1.93 1.26,0.59 -1.02,1.02 0.21,5.31 1.9,0.57 1.95,3.5 4.6,3.75 0.45,2.7 -0.95,2.14 2.2,4.1 5.07,0.39 2.39,3.41 0,0 -2.7,4.43 -6.9,0.3 0,7.9 7.3,-0.3 1.9,1.9 0.8,9.49 -2.1,4 0,0 -1.3,0.8 -7.9,-3.3 -6.69,-1.09 -1.6,1.59 -1.5,4.7 -6,3.3 -2.37,-0.21 0,0 0.16,-3.36 -6.72,-17.68 -6.08,-2.48 -5.12,1.2 -1.92,-1.04 0,0 -1.44,-0.13 0,0 6.69,-8.63 2.7,-5 7.5,-3.3 0.1,-10 -4.4,-2.3 z" 
                fill="rgb(151, 144, 238)" 
                stroke="white" 
                stroke-width=".7px"
                title="Sējas novads" 
                id="LV-090" 
            />
        </svg>