<svg xmlns="http://www.w3.org/2000/svg" viewBox="203.96105000000006 181.52878 153.16999999999996 157.09" width="153.16999999999996" height="157.09">
            <path 
                d="m 356.38105,267.12878 0.75,2.57 -2.12,-1.14 -3.18,3 0.39,1.53 -3.01,4.68 -3.87,2.38 -2.02,-0.83 -3.06,0.77 -2.02,2.6 0.5,1.74 -1.45,0.78 -4.67,-0.04 0.47,6.04 -2.19,4.59 0.32,3.59 -0.94,0.15 0,0 -1.23,0.31 -3.7,-2.29 -4.11,-0.09 -1.7,-1.3 -2.91,1.67 -2.24,-1.73 -3.06,2.41 -2.14,-1.67 -2.3,4.49 -3.48,1.2 -0.37,3.19 -3.81,-0.31 -0.92,1.27 -1.38,-0.96 -0.46,1.17 -3.87,1.58 -5.45,-0.09 -2.79,2.16 -3.65,-0.22 -0.47,8.56 2.3,4.24 -0.4,3.36 1.06,3.37 -1.94,5.73 -5.58,-1.05 -0.66,-1.69 -1.7,-0.77 -1.7,1.66 -3.31,-0.86 -0.51,2.41 2.12,-0.19 0.31,0.83 0,0 -3.42,2.69 0,0 -5.38,-3.24 -2.98,-0.46 0,0 -0.46,-1.58 -1.02,-0.18 -2.21,0.52 -1.12,2.9 -1.1,-1.51 -2.2,0.71 -2.26,-1.36 -9.74,2.01 -1.35,-7.16 -2.97,0.15 -0.37,-2.37 -0.09,-3.71 2.53,-1.05 -0.83,-6.24 -0.97,-1.05 -0.48,-9.8 -4.4,-2.53 -5.79,-0.31 -1.25,-1.43 -3.08,-0.77 -2.07,-3.84 -2.92,-1.42 0.97,-1.77 0.66,-6.69 -2.09,0.53 -2.12,-0.99 -2.84,-3.81 0,0 -1.23,-1.21 -2.98,-0.03 -0.71,-1.95 3.25,0.15 0.22,-1.33 -1.28,-0.53 0.51,-1.86 1.48,-0.4 -0.2,-2.23 0.87,0.43 0.56,-0.81 -0.74,-2.79 1.12,0.9 0.41,-0.71 1.98,2.17 1.28,-8.32 2.95,0.62 1.02,-2.04 -0.65,-2.3 1.8,-0.28 0.16,-2.15 6.97,-0.58 -1.36,-6.12 1.65,-0.41 -2.41,-9.11 -2.56,-1.3 -1.07,-3.36 2.23,-4.64 -1.88,-9.9 1.77,0.03 0.26,-0.94 -1.22,-0.68 -2.01,1.18 -2.17,-1.03 -1.8,-6.45 0,0 -2.06,-3.07 1.28,-2.56 2.72,-0.15 1.6,-2.08 1.76,2.4 0.96,-3.36 1.6,-0.96 3.84,0.8 0.8,2.4 2.4,0.47 1.44,7.36 1.76,0 5.92,-5.12 2.88,-0.8 5.6,2.4 2.4,-0.32 1.44,-1.43 0.16,-3.52 1.6,-2.88 1.28,-7.04 4.79,-3.2 0.8,-2.24 -0.8,-1.92 2.4,-6.08 1.92,-0.96 1.6,0.8 0.64,3.04 2.24,0 8.48,-3.68 0,0 -0.21,-0.96 0,0 7.31,0.48 0,1.6 -1.76,2.56 1.44,1.28 5.28,-0.32 1.76,1.6 0.16,4 -4.16,3.52 -0.16,2.24 1.44,1.76 2.88,1.12 7.2,-4 9.6,8.64 3.36,8.15 5.76,4 4.32,5.6 3.52,0.64 3.36,-1.28 1.92,-2.08 -0.16,-2.72 -1.44,-2.08 0.96,-3.52 2.24,-0.32 3.03,1.6 2.88,3.04 2.4,0 1.28,1.44 0,0 -0.64,1.92 -1.44,0.64 0,1.28 3.2,1.76 -0.32,2.08 -4.48,0.48 -0.8,2.24 -1.92,0.32 -3.84,-1.44 -4.15,2.08 -1.6,2.56 1.92,3.36 1.44,5.6 5.59,1.6 1.92,5.76 9.28,-3.36 3.04,0.64 3.04,4.64 0.48,3.84 -0.64,3.2 -2.4,1.12 -0.32,2.08 z" 
                fill="rgb(151, 144, 238)" 
                stroke="white" 
                stroke-width=".7px"
                title="Talsu novads" 
                id="LV-097" 
            />
        </svg>