<svg xmlns="http://www.w3.org/2000/svg" viewBox="309.95105 262.49878 116.35999999999996 171.44999999999993" width="116.35999999999996" height="171.44999999999993">
            <path 
                d="m 421.46105,359.11878 2.59,2.2 0,0 1.35,1.85 0.78,4.95 0,0 0.13,5.2 0,0 -2.23,0.21 -0.21,1.6 -3.07,0.61 3.54,21.19 0,0 -6.25,5.19 -10.87,1.62 -1.54,-4.41 -1.67,0.79 -4.76,5.12 -0.99,2.64 -4.09,1.38 -0.02,1.04 6.19,6.04 -3.92,6.03 -3.04,1.62 -1.99,3.15 -2.49,1.62 -5.97,-2.72 -3.55,-0.79 -1.65,0.58 -2.24,-1.32 -2.98,4.13 2.21,3.25 -1.73,1.96 -3.83,0.1 -7.04,-3.49 0,0 0,-1.2 0,0 -1,-4.2 -3.3,-1 -2.5,-4.7 -4.9,-14.9 0,-4.3 -0.9,-2 -1.4,-0.6 -1.9,0.8 -0.6,2 -9.8,2.1 -2,-1.5 -5.19,-0.9 -1.5,-4.6 -4.2,-2.09 0.2,-1.8 2.1,-0.6 2.7,-3.2 4.29,-2 -1.37,-1.3 0,0 0,-2.2 -1.4,-2.5 -4.3,-4.6 0.1,-1.4 2.3,-0.6 0.3,-3 -1.3,-3.4 0,-3.2 -8.3,0 -2.9,-5.1 -3.2,-2 0,-5.5 -2.2,-2.8 1.3,-3.5 0.2,-5.69 1.2,-1.3 5.7,-0.4 1.4,-4.6 -0.3,-2.5 -5.5,-3.2 1.6,-6.9 -1.7,-3.6 2.6,-2.6 5.8,-0.7 1.7,-3.6 4.1,-2.3 1.8,-3.3 1.9,0 0.09,-2.9 -1.56,-1.54 0,0 0.94,-0.15 -0.32,-3.59 2.19,-4.59 -0.47,-6.04 4.67,0.04 1.45,-0.78 -0.5,-1.74 2.02,-2.6 3.06,-0.77 2.02,0.83 3.87,-2.38 3.01,-4.68 -0.39,-1.53 3.18,-3 2.12,1.14 -0.75,-2.57 0,0 0.57,-3.48 4.88,-1.15 0,0 0.92,11.67 2.31,0.72 0.08,1.76 -3.59,2.72 -1.2,8.56 -1.6,2 -5.52,1.04 0.08,1.76 1.84,0.08 4.08,2.72 0.88,2.4 3.6,2.88 3.51,-1.52 4.08,3.68 3.52,1.68 1.52,1.92 -0.24,4.64 4.8,6.31 0.4,3.28 -3.44,2.79 -0.24,4.96 -5.04,3.2 -2.72,0.24 -0.24,1.36 2.72,2.87 -1.2,4.16 -0.96,1.28 -2.48,0.4 -0.8,1.52 3.36,3.2 4.08,0.16 0.96,1.44 -0.4,2.08 -1.6,1.44 -5.6,1.52 -4.79,6.08 0.32,1.68 2.07,1.2 2.8,-0.32 8.4,-2.72 6.56,3.84 6.64,-1.12 7.92,2.88 6.4,-0.08 5.76,-2.64 z" 
                fill="rgb(151, 144, 238)" 
                stroke="white" 
                stroke-width=".7px"
                title="Tukuma novads" 
                id="LV-099" 
            />
        </svg>