<svg xmlns="http://www.w3.org/2000/svg" viewBox="362.31104999999997 477.14878000000004 59.02999999999997 56.05000000000001" width="59.02999999999997" height="56.05000000000001">
            <path 
                d="m 411.30105,495.62878 1.7,2.77 3.39,0.76 -0.33,1.46 -2.44,0.27 0.18,1.01 -1.61,1.61 0.79,1.03 -0.91,1.64 4.49,1.07 -1.85,2.7 1.11,5.38 5.52,7.07 -5.77,6.37 -5.43,0.12 -2.68,1.97 0,0 -13.01,-1.73 -5.25,3.61 -16.64,0.46 0,0 -0.29,-2.2 -3.96,-6 -6,-4.92 0.48,-2.52 5.16,-3.84 0.36,-2.04 0,0 -0.84,-1.41 0,0 3.68,-4.33 2.39,-0.84 1.92,1.08 2.4,-2.4 3,-0.6 6.72,1.44 3.36,2.28 2.28,-1.32 2.04,-4.2 -1.68,-1.56 -3,0 -1.56,-6.48 0.6,-2.52 3.96,-1.2 7.44,-7.31 0.36,-4.08 1.08,-1.08 2.76,0.72 2.88,4.44 3.36,10.91 z" 
                fill="rgb(151, 144, 238)" 
                stroke="white" 
                stroke-width=".7px"
                title="Tērvetes novads" 
                id="LV-098" 
            />
        </svg>