<svg xmlns="http://www.w3.org/2000/svg" viewBox="117.69105000000002 471.32877999999994 57.74000000000001 72.59000000000003" width="57.74000000000001" height="72.59000000000003">
            <path 
                d="m 132.17105,543.91878 -0.32,-1.94 -3.48,-4.8 -0.12,-3.36 2.64,-4.08 3.48,-2.28 0.36,-1.92 -1.92,-1.32 -2.52,-0.12 -1.44,1.44 -4.08,-6.24 -7.08,-4.08 0.72,-2.04 5.76,-1.8 -3.48,-5.76 0.24,-2.99 1.8,-1.68 4.44,-0.72 3.48,-2.28 -0.72,-4.08 -4.2,-2.4 -0.36,-1.92 1.56,-1.56 -1.08,-5.28 0.03,-6.86 0,0 4.5,-1.3 3.6,-2.8 5.59,-0.42 0,0 0.67,0.83 -1.48,1.03 0.76,1.92 -1.3,2.01 2.88,-0.3 1.52,2.32 -1.96,2.77 7.19,3.96 4.16,0.45 5.8,-1.67 0.25,4.26 1.21,1.61 8.8,-2.98 0.12,3.68 0,0 -0.7,2.65 -2.48,2.13 -0.15,1.85 2,0.95 -0.86,2.67 2.92,3.98 4.86,0.76 1.65,2.28 -1.65,2.77 1.53,2.46 -0.56,1.48 -3.61,-0.79 -5.61,1.86 -0.45,0.88 2.51,6.25 3.29,1.64 0,0 -0.28,3.55 -1.58,2.52 -2.64,-1.28 -1.74,1.91 -4.14,0.97 -0.28,1.15 -8.32,2.43 -2.2,-2.58 -3.47,-0.91 -2.39,2.52 -2.62,0.48 -3.92,5.07 z" 
                fill="rgb(151, 144, 238)" 
                stroke="white" 
                stroke-width=".7px"
                title="Vaiņodes novads" 
                id="LV-100" 
            />
        </svg>