<svg xmlns="http://www.w3.org/2000/svg" viewBox="758.61105 52.04878500000002 150.89 131.36999499999996" width="150.89" height="131.36999499999996">
            <path 
                d="m 811.42105,57.678785 -0.34,1.83 5.17,11.09 7.14,1.99 2.69,-2.71 0.6,2.36 1.35,0.79 -0.04,2.53 1.77,-1.04 5.74,-0.41 5.08,2.3 6.5,-4.61 1.58,0.47 2.13,3.67 2.16,-0.95 3.38,0.63 -0.57,5.87 -2.91,6.12 -0.74,5.48 -1.38,1.76 0.59,3.82 -1.25,1.13 0.29,1.539995 2.91,-1.16 3.26,2.8 3.65,-1.26 9.56,4.97 0.79,1.42 -0.89,1.79 1.63,2.43 4.65,1.03 3.7,2.71 1.18,1.95 -3.29,8.14 5.27,2.51 0.52,4.43 4.19,2.2 0.34,2.48 -1.41,0.78 2.42,3.33 -0.91,1.41 0.5,4.33 3.99,4.17 3.71,0.55 7.05,3.39 5.13,3.86 0,0 -0.49,3.48 -4.71,5.69 1.31,3.48 -1.5,1.81 2.81,1.54 -0.42,4.31 3.57,0.16 0.62,1.03 -1.28,1.22 -3.21,-0.34 -6,1.44 0,0 -1.8,-5.88 -2.88,-0.48 -2.52,1.2 -2.16,3.12 -5.04,-0.6 -1.92,-1.8 0.48,-3.24 3.84,-2.64 -1.08,-1.92 -5.04,0.36 -1.79,-2.16 -6.84,2.52 -4.68,-3.96 -2.88,-1.2 -5.88,1.08 -3,-0.72 -9.84,0.84 -10.69,7.04 0,0 -3.76,0 -0.48,1.6 -2.56,0.88 -2.47,-4.16 -0.08,-2.16 6.23,-7.12 0.48,-5.53 -8,-1.44 -2.95,-2 0.08,-2.08 1.28,-0.32 3.35,1.52 3.92,-0.4 7.28,-5.44 0.72,-2.4 2.24,-1.6 0.56,-8.48 2.48,-2.16 -0.48,-1.52 -20.87,-5.69 -0.96,-2.64 -2,-1.84 -2.8,-0.56 -0.32,-2.08 2.56,-8.4 -0.24,-2 -2.64,-0.48 -12.4,5.2 -1.28,1.36 -2.24,0.24 -4.44,-1.36 0,0 -1.9,-3.2 -10.99,-5.9 -5.3,-4.5 -7.74,-1.969995 0.43,-1.35 -2.29,0.22 0,0 0.3,-1.9 2.41,-1.92 1.09,-5.18 -1.08,-2.13 -3.02,-0.07 -1.9,-1.8 -6.9,-8.7 1.34,-4.89 1.49,0.06 0.61,1.5 1.43,0.42 2.85,-2.04 1.02,-2.87 4.41,0.53 2.46,-1.32 6.72,4.5 3.42,3.54 3.42,0.54 3,-0.9 1.44,-3.18 -0.18,-3.41 3.12,-2.46 0.11,-7.47 0,0 2.3,-0.2 2.33,-2.28 1.22,-3 1.57,-0.54 2.22,2.15 4.69,1.33 z" 
                fill="rgb(151, 144, 238)" 
                stroke="white" 
                stroke-width=".7px"
                title="Valkas novads" 
                id="LV-101" 
            />
        </svg>