<svg xmlns="http://www.w3.org/2000/svg" viewBox="909.56105 430.09878000000003 71.46000000000004 52.22999999999996" width="71.46000000000004" height="52.22999999999996">
            <path 
                d="m 910.66105,449.24878 -1.1,-7.03 1.43,-1.44 16.8,0.36 5.4,1.56 2.64,-0.96 5.4,-4.2 2.76,-0.72 3.48,3.12 1.44,-1.56 1.08,-5.04 4.08,-3.12 11.27,-0.12 0,5.16 8.76,3.84 2.15,-0.12 0,0 0.86,0.73 0,0 -0.12,2.75 0.98,1.47 -0.66,1.8 1.88,3.15 -2.67,2.84 -0.25,3.05 4.75,7.06 -2.39,3 -7.9,-0.08 -0.92,0.79 1.06,1.71 -2.28,2.8 4.23,5.09 0,0 -1.1,0.77 0.02,3.65 -1.08,2.77 -1.36,-0.06 -1.53,-2.89 -10.21,0.49 -0.85,1.82 -4.72,-0.18 0,0 0,-1.55 -1.65,-0.64 -0.88,-2.74 -4.15,3.9 -0.59,-0.52 -0.59,-5.43 2.59,-4.17 0.32,-6.28 -18.41,-0.06 z" 
                fill="rgb(151, 144, 238)" 
                stroke="white" 
                stroke-width=".7px"
                title="Varakļānu novads" 
                id="LV-102" 
            />
        </svg>