<svg xmlns="http://www.w3.org/2000/svg" viewBox="564.87105 426.95878 117.99000000000001 121.02000000000004" width="117.99000000000001" height="121.02000000000004">
            <path 
                d="m 599.23105,426.95878 0.64,2.48 16.84,-1.01 0.93,11.4 -8.84,0.43 -0.3,6.08 1.73,8.1 3.91,7.47 3.12,0.92 5.51,-0.89 0.7,1.41 -1.56,2.98 3.18,-1.34 2.35,2.11 -0.67,1.31 1.04,1.64 -0.23,1.56 -4.58,-0.46 -1.26,0.98 2.12,6.54 4.51,-1.2 5.36,1.92 4.96,-2.08 7.52,-5.12 5.44,-2.08 4.4,1.28 1.92,-0.16 3.52,-2.4 2.78,1.65 2.1,-1.89 3.52,-0.8 2.4,-0.08 1.07,0.91 0,0 -0.1,3.3 1.5,2.6 4.8,1.5 2.6,3.4 0.7,11.7 0,0 -15.5,3.29 -0.2,2 -2.1,0.8 -0.9,4.4 -2.6,0.7 -1.2,2.3 -0.59,4.61 0,0 -1.77,0.27 -3.06,4.01 -0.02,2.86 1.2,2.18 -0.74,1.16 -5.88,1.39 -0.6,-2.21 -3.08,-1.13 -0.3,2.68 -4.24,4 -2.6,-1.24 -4.57,1.09 -4.82,-0.39 0.53,3.97 -3.02,3.76 -5.23,0.03 -1.75,-0.94 -3.3,0.64 -0.48,8.27 -2.19,1.4 -1.09,2.21 -3.54,1.45 -1.8,3 0,0 -7.33,-2.58 -3.04,2.88 -6.32,-3.92 -1.2,-2.08 0,-1.36 4.32,-2.08 2.8,-2.64 0.88,-2.4 -0.8,-1.6 -8.8,-2.32 -0.55,-2.64 5.99,-3.92 5.76,-1.67 1.36,-2.24 0.48,-5.7 1.6,-2.4 -4.48,-1.44 -0.88,-2.64 1.2,-2.96 1.92,-0.32 0.88,-1.76 -4.48,-2 -3.92,-5.6 -3.76,3.28 -2.15,-0.32 -0.48,-2.56 -3.36,-3.19 -0.32,-4.96 -2.48,-0.8 -1.52,1.36 -1.12,-1.04 -0.43,-4.75 0,0 0.8,-4.32 -0.8,-2.88 -5.6,-1.76 -4.16,0.96 -1.76,-2.4 -0.8,-15.68 9.76,0 0.64,-2.56 -0.8,-7.04 -2.2,-1.88 0,0 2.12,-1.01 -0.4,-0.83 -2.54,0 2.3,-2.2 9.9,-2.32 9.92,-10.22 z" 
                fill="rgb(151, 144, 238)" 
                stroke="white" 
                stroke-width=".7px"
                title="Vecumnieku novads" 
                id="LV-105" 
            />
        </svg>