<svg xmlns="http://www.w3.org/2000/svg" viewBox="60.65105300000005 135.95878 165.29999699999985 220.54000000000002" width="165.29999699999985" height="220.54000000000002">
            <path 
                d="m 92.951053,221.92878 1.61,0.26 1.8,2.3 2.2,5.4 2.699997,2.4 1.4,-0.3 0.7,-4.9 1.1,-1.7 1.2,0.3 1.3,3.7 1.3,0.3 1.89,-2.3 0.3,-1.6 -2.39,-3.4 0.69,-3.3 9.6,-4.09 0.3,-2 -3.2,-15.7 -1.9,-0.3 -2.55,-3.88 5.8,-10.58 4.22,-15.67 4.97,-5.29 20.49,-7.21 22.09,-1.16 9.95,-2.6 28.28,-14.65 4.38,6.46 -2.93,1.7 -0.52,2.79 4.39,-2.82 5.13,7.84 -2.07,0.15 -0.38,6.24 1.7,5.82 2.67,3.64 0.14,9.13 1.78,6.22 -1.36,1.47 -3.74,-1.15 -3.01,3.06 -0.51,2.13 -3.48,0.28 -3.13,4.21 -2.72,0.04 -1.89,-1.25 1.21,4.62 2.81,1.06 -2.15,3.43 -8.08,5.37 -8.24,2.71 9.92,6.74 8.06,1.59 3.49,0.09 6.83,-3.33 1.8,6.45 2.17,1.03 2,-1.19 1.23,0.69 -0.27,0.93 -1.77,-0.03 1.89,9.9 -2.24,4.64 1.08,3.36 2.56,1.31 2.4,9.11 -1.65,0.4 1.37,6.12 -6.97,0.59 -0.17,2.14 -1.8,0.28 0.66,2.3 -1.03,2.05 -2.94,-0.62 -1.28,8.31 -1.99,-2.17 -0.4,0.71 -1.13,-0.9 0.74,2.8 -0.55,0.8 -0.88,-0.43 0.2,2.23 -1.48,0.4 -0.5,1.86 1.28,0.53 -0.22,1.33 -3.25,-0.15 0.71,1.95 2.97,0.03 1.22,0.93 -0.02,5.15 -1.38,2.41 -0.05,3.44 -1.26,1.42 0.05,7.77 -2.32,1.08 0.06,1.24 -10.08,1.45 0.36,2.97 -9.29,0.22 -4.63,-1.48 -1.18,-1.58 -1.83,0.31 -1.38,-1.89 -1.48,0.93 -0.69,2.75 -1.48,-0.86 -2.96,1.36 -2.24,-0.13 -2.51,2.63 -1.23,-1.48 -4.07,-0.19 -1.48,1.42 -0.74,-0.83 -0.79,0.8 0.42,1.36 -0.89,0.4 -2.19,-3.03 -5.63,-1.51 -4.13,7.48 -3.4,-2.38 0.36,1.11 -1.48,1.18 -1.95,-1.05 -0.39,-2.75 2.54,-1.15 -1.2,-0.34 -0.13,-3.28 -3.2,1.06 -3.04,-0.59 -7.86,-5.51 -2.05,4.52 -2.86,-1.33 -2.49,0.65 0.13,-2.14 -1.35,0.44 -1.14,-0.84 -2.49,2.32 0.15,1.36 -1.72,0.53 0.48,1.45 -3.08,1.95 -1.9,2.84 -3.86,-1.2 -4.319997,4.39 -6.92,-0.99 -0.07,5.08 -3.71,1.71 1.36,8.85 -4.5,-0.01 1.6,17.33 -1.4,-0.05 -0.05,2.3 -2.11,1.03 0.71,4.5 -9.56,0.01 -0.96,-4.89 -4.76,-2.3 -2.02,0.44 -0.49,1.44 -0.67,-1.38 -1.38,0.74 -1.99,-2.28 3.47,-2.68 3.8,-5.77 4.68,-10.3 2.44,-9.6 0.28,-15.7 -1.6,-18.42 1.45,-11.81 -0.62,-17.6 0.91,-4.75 1.92,-5.32 11.02,-15.49 z" 
                fill="rgb(151, 144, 238)" 
                stroke="white" 
                stroke-width=".7px"
                title="Ventspils novads" 
                id="LV-106" 
            />
        </svg>