<svg xmlns="http://www.w3.org/2000/svg" viewBox="968.59105 439.27878000000004 59.60004999999978 71.21000000000015" width="59.60004999999978" height="71.21000000000015">
            <path 
                d="m 1006.9211,506.45878 1.27,-0.52 -1.3,-2.71 0.74,-2.7 -4.14,-0.21 -0.52,-1.04 -2.12,-0.55 -3.16005,1.19 -6.73,-1.31 -0.42,-2.43 0.77,-1.64 -1.97,-1.16 -1.23,1.37 -1.41,-0.82 -2.78,0.79 -1.44,-1.34 -0.32,-3.38 -4.61,0.04 0.69,-1.34 3.29,-1.1 0.17,-1.22 4.12,-0.85 0.22,-1.34 -1.24,-0.76 -0.07,-1.98 -5.74,-2.86 -2.5,-2.75 -3.67,-0.7 0,0 -4.23,-5.09 2.28,-2.8 -1.06,-1.71 0.92,-0.79 7.9,0.08 2.39,-3 -4.75,-7.06 0.25,-3.05 2.67,-2.84 -1.88,-3.15 0.66,-1.8 -0.98,-1.47 0.12,-2.75 0,0 9.49,-0.43 0.8,2.6 1.9,1.9 2.7,0.3 1.9,-1.4 2.4,0.4 2.8,3.8 -0.1,3.42 3.60005,4.4 0.9,5.4 2.9,1.1 2.19,3.1 8.1,0.99 3.7,4.6 -1.2,3.6 2.2,3.6 -0.7,2 -1.9,1.3 -0.1,1.7 1.4,1.6 1.7,7.3 2.4,3 -0.9,2.8 4.9,4.1 -0.4,2.9 -4.2,5.4 -6.7,-1.8 -2.6,0.8 -1.2,2.1 -2.8,0.2 z" 
                fill="rgb(151, 144, 238)" 
                stroke="white" 
                stroke-width=".7px"
                title="Viļānu novads" 
                id="LV-109" 
            />
        </svg>