<svg xmlns="http://www.w3.org/2000/svg" viewBox="1084.9611 225.5687800000001 76.45999999999981 114.58999999999995" width="76.45999999999981" height="114.58999999999995">
            <path 
                d="m 1135.6911,337.00878 -2.26,-0.57 -4.32,3.72 -1.08,-1.32 -4.8,-0.24 0,0 -1.67,-4.92 -3.6,-0.48 -2.28,-1.44 -2.52,0.24 -2.4,2.88 -1.2,-0.96 -1.68,-2.88 -0.12,-4.92 0.36,-3.24 2.16,-1.08 0.12,-2.28 -1.2,-1.68 -2.4,1.08 -0.6,2.04 -1.68,-0.24 -8.76,-10.07 -8.04,-6.96 -2.76,-4.2 0.36,-4.08 3.24,-8.04 0.6,-10.34 7.92,-10.44 4.44,-3.12 3.72,0.12 1.92,-1.68 0.19,-3.25 0,0 0.46,0.06 0,0 2.09,-0.66 0.24,-3.69 3.78,-0.72 0.56,-7.95 8.06,-1.34 3.4,-3.64 2.05,0.5 1.53,-2.43 2.24,-1.18 -0.24,-12.04 0,0 10.54,4.39 0.89,1.74 3.28,1.87 -0.69,4.54 1.73,2.58 7.47,-0.56 2.9,5.85 2.27,0.43 1.29,3.3 -1.65,9.22 0.96,0.66 -0.13,2.88 1.04,0.53 -4.14,6.77 -0.47,5.08 -2.1,2.76 -0.44,3.13 1.46,2.7 -1.11,2.82 0.71,2.04 -1.72,2.11 -0.92,4.92 -3.15,2.63 -8.26,3.07 -2.64,2.59 0,2.05 3.09,1.45 -0.42,2.94 -1.66,-1.98 -4.49,0.55 0.72,2.82 3.97,0.46 0.89,2.32 2.54,-1.02 1.03,0.8 -3.85,4.45 0.65,5.16 -2.42,2.38 z" 
                fill="rgb(151, 144, 238)" 
                stroke="white" 
                stroke-width=".7px"
                title="Viļakas novads" 
                id="LV-108" 
            />
        </svg>