<svg xmlns="http://www.w3.org/2000/svg" viewBox="896.1310500000001 547.5587800000002 69.62999999999988 60.12000000000012" width="69.62999999999988" height="60.12000000000012">
            <path 
                d="m 903.65105,589.65878 -1.76,-4.72 -1.28,-1.04 -0.72,-5.04 -2.88,-2.64 3.28,-0.56 -2.64,-14.1 -1.52,-0.81 0,-3.51 1.12,-1.68 3.76,1.52 2.8,3.52 4.8,0 0.48,-11.04 1.28,-1.52 2.4,-0.48 1.6,2.16 0.4,4.64 3.44,6.24 2.08,1.11 2.4,-0.71 2.32,1.11 3.76,-1.75 2.4,0.24 5.04,2.71 2.87,-0.08 1.84,1.52 3.28,0.32 1.6,-4.24 4.2,-1.92 0,0 1.6,1.04 1.28,-0.88 5.04,0.08 1.68,1.28 0.8,2.48 -1.76,3.68 1.36,3.6 4.08,0 1.68,4.55 0,4.08 -4.72,0 0.48,12.48 -0.64,2.24 -3.6,1.6 -9.36,0 0.08,2.08 1.68,2.56 4.56,2.32 2.56,3.18 0,0 -2.88,2.4 -2.19,-0.29 -3.82,-4.04 -2.49,0.48 -0.06,-2.35 -1.31,-1.14 0.35,-2.99 -1.55,-1.23 -1.73,0.6 -1.12,1.68 -0.59,3.32 1.19,3.32 -1.16,2.08 -5.75,0.56 -1.76,-2.25 -0.79,-10.82 -6.92,-7.27 -6.12,4.86 -6.16,-6.97" 
                fill="rgb(151, 144, 238)" 
                stroke="white" 
                stroke-width=".7px"
                title="VÄrkavas novads" 
                id="LV-103" 
            />
        </svg>