<svg xmlns="http://www.w3.org/2000/svg" viewBox="1159.8210999999994 520.57878 64.34999999999968 83.70000000000016" width="64.34999999999968" height="83.70000000000016">
            <path 
                d="m 1198.8111,583.42878 0.5,-2.1 3.4,-2.7 0.8,-4.6 2.1,-2 0.1,-2.5 -6.6,-8.49 -4.7,-2.2 -1,-3 -5.3,-3.9 -2.2,-0.5 -2.4,1.4 -1.3,3.1 -1.9,1.2 -5.4,-0.6 -1.5,1.7 0.1,2.1 1.5,1.6 -0.5,2.9 -4.7,1.3 -2.5,-1.6 -3.59,1.6 -1.3,-1.6 0.6,-3.3 -3.2,-5.3 0.4,-3 2.8,-0.8 14.49,-14.16 9.1,-1.6 1.3,-2.5 -4.3,-11.4 1.3,-1.9 7.6,0 2.5,1.5 3.4,5 2.5,0.1 1.8,-3.2 2.8,-0.8 5,1.5 3.22,-0.11 0,0 -2.44,6.23 4.4,4.97 2.6,11.39 4.26,7.66 1.62,6.96 -4.01,7.62 -3.31,2.3 -2.06,3.83 0.24,2.12 2.49,0.75 0.47,1.18 -0.94,1.63 -3.84,1.21 1.38,2.17 -1.34,5.4 -3.37,2.69 -3.33,-0.12 -3.55,3.25 -3.48,4.44 -0.37,3.82 -3.72,-1.02 -1.13,1.23 0,0 -2.62,-3.74 9.2,-13.36 -0.48,-2.72 -1.88,-0.46 0,0 z" 
                fill="rgb(151, 144, 238)" 
                stroke="white" 
                stroke-width=".7px"
                title="Zilupes novads" 
                id="LV-110" 
            />
        </svg>