<svg xmlns="http://www.w3.org/2000/svg" viewBox="550.57105 281.38877999999994 45.09999999999991 48.66000000000014" width="45.09999999999991" height="48.66000000000014">
            <path 
                d="m 550.57105,319.14878 1.35,-1.04 0.4,-2.56 3.04,-2.88 -1.28,-3.52 0.48,-1.76 4.64,-1.04 6.16,-3.44 1.36,-1.92 2.56,-8.56 -0.08,-11.04 0,0 4,0.24 0,0 2.63,0.24 0,0 1.92,1.04 5.12,-1.2 6.08,2.48 6.72,17.68 -0.16,3.36 0,0 -0.85,3.82 0,0 -5.59,5.8 -0.7,2.3 -6.6,1.3 -5.7,3.6 -3.2,-1.4 -2.3,1.8 -5.1,7.4 -2.3,0.2 -6.7,-2 -4.4,-2.6 z" 
                fill="rgb(151, 144, 238)" 
                stroke="white" 
                stroke-width=".7px"
                title="Ādažu novads" 
                id="LV-011" 
            />
        </svg>