<svg xmlns="http://www.w3.org/2000/svg" viewBox="758.9910499999999 339.69877999999994 78.49000000000012 72.65000000000003" width="78.49000000000012" height="72.65000000000003">
            <path 
                d="m 796.13105,412.34878 -3.61,-8.46 -2.27,-1.8 -12.24,-4.8 -3.48,-0.24 -3.84,2.16 -1.32,-2.04 -5.46,-2.16 0,0 0.15,-2.43 -1.3,-2.09 1.28,-2.06 -2.05,0.49 -3,-3.93 2.12,0.31 -0.5,-4.39 2.17,-0.4 0.82,-1.2 1.25,1.07 2.4,-0.64 0.49,-1.54 3.4,1.51 0.42,-0.65 -2.54,-1.56 -0.76,-3.54 -2.89,-0.31 -1.11,-1.87 4.15,-6.31 0,-2.86 0.9,-1.17 -3.29,-3.75 -0.52,-5.39 -1.38,-0.25 1.95,-2.03 -2.06,-3.79 -4.13,-1.05 0.76,-3.17 0,0 1.78,-2.31 3.27,2.77 5.87,1.63 0.67,2.81 2.56,0.95 0.76,-0.74 -0.54,-1.01 5,-0.47 5.95,-5.27 0.19,1.79 -1.4,1.45 1.08,0.96 0.1,2.31 -2.44,2.06 0.5,3.11 1.65,1.02 3.82,-4.28 0.58,0.4 7.06,-4.16 1.9,-4.16 3.64,0.77 1.19,-0.83 1.32,0.8 -0.26,3.02 2.39,2.15 2.63,0.71 1.53,-3.11 2.96,-0.8 2.54,1.66 -0.12,1.82 1.23,0.16 -0.35,1.23 2.56,1.23 0.4,3.36 7.32,-0.74 0,0 0.1,-0.14 0,0 4,4.55 0.72,2.4 4.68,2.88 -1.44,5.75 -8.28,-0.24 -1.08,2.64 -2.04,-0.48 -1.44,-2.16 -1.8,0.24 -3.48,2.88 -3.72,-1.32 -7.56,3.12 -0.72,2.88 -2.76,0.24 -1.2,1.68 0.84,3.72 -1.2,1.32 0.84,3.96 3.72,3 -1.2,1.92 0.4,2.82 0,0 -3.18,1.99 3.54,3.53 -3.35,4.32 0.65,4.14 -5.31,4.17 z" 
                fill="rgb(151, 144, 238)" 
                stroke="white" 
                stroke-width=".7px"
                title="Ērgļu novads" 
                id="LV-030" 
            />
        </svg>