<svg xmlns="http://www.w3.org/2000/svg" viewBox="596.6210499999999 386.2087799999999 90.63000000000011 93.18000000000012" width="90.63000000000011" height="93.18000000000012">
            <path 
                d="m 687.25105,459.63878 -0.12,3.47 -3.72,2.94 -4.98,0.36 -5.07,2.21 0,0 -1.07,-0.91 -2.4,0.08 -3.52,0.8 -2.1,1.89 -2.78,-1.65 -3.52,2.4 -1.92,0.16 -4.4,-1.28 -5.44,2.08 -7.52,5.12 -4.96,2.08 -5.36,-1.92 -4.51,1.2 -2.12,-6.54 1.26,-0.98 4.58,0.46 0.23,-1.56 -1.04,-1.64 0.67,-1.31 -2.35,-2.11 -3.18,1.34 1.56,-2.98 -0.7,-1.41 -5.51,0.89 -3.12,-0.92 -3.91,-7.47 -1.73,-8.1 0.3,-6.08 8.84,-0.43 -0.93,-11.4 -16.84,1.01 -0.64,-2.48 0,0 -0.49,-6.76 1.26,-2.39 -1.03,-2.09 0,0 2.51,-4.74 -1.42,-5.51 -3.44,-2.24 0.25,-4.92 0,0 1.11,-0.09 0,0 6.88,-3.04 0,0 2.95,0.43 2.3,2 7.6,12.79 5.39,1.9 5.5,4.1 2.3,-1.3 5.5,-0.1 1.5,-3 -0.5,-2.29 5.3,-2.2 0.6,-2.1 -1.1,-0.9 -2.7,0.3 0,-1.9 1.8,-1 -0.1,-5.4 2.5,-0.9 0.5,1.8 1.8,0.8 1.1,-1.3 0.8,-9.4 2,-1.3 5.7,5.2 0.9,-2.2 1.3,-0.3 2,4.1 3.5,0.7 3,2.8 0,0 0.3,1.52 0,0 -8.4,11.1 -4.5,1.79 -0.1,9.2 -1.1,1.4 -2,1.5 -3.5,-1.6 -4.9,-0.1 -2.2,3.1 2.6,2.8 2.4,1.1 11,3.1 1.8,2.8 0.3,8.3 1.4,2.54 2.1,3.3 11,9.2 8.09,3 4.9,-0.7 0,0 z" 
                fill="rgb(151, 144, 238)" 
                stroke="white" 
                stroke-width=".7px"
                title="Ķeguma novads" 
                id="LV-051" 
            />
        </svg>