<svg xmlns="http://www.w3.org/2000/svg" viewBox="509.4010499999998 368.85877999999985 92.08000000000027 56.90999999999997" width="92.08000000000027" height="56.90999999999997">
            <path 
                d="m 584.79105,388.30878 3.23,2.15 3.57,5.64 3.29,2.38 0,0 1.99,-0.17 0,0 -0.25,4.92 3.44,2.24 1.42,5.51 -2.51,4.74 0,0 -1.7,-1.85 -8.3,-3.2 -9,-5.4 -7.7,-1.3 -9.6,4 -2.2,-0.4 -2.3,-3.6 -1.6,-0.3 -2.6,2.5 -0.1,3 1.4,1.9 2.1,0.9 0.2,4.9 -1,1.4 -1.5,0.2 -2.1,-3.9 -7.09,4.4 -0.71,1.9 2.9,2.5 0.18,2.4 0,0 -6.35,0 0,0 -3.6,-2.6 -11.6,1.3 -5.8,-1 -11.5,0.94 0,0 0.01,-0.05 0,0 0.29,-1.2 0,0 1.2,-3.48 0,-5.6 6.32,-4.8 4.56,1.36 4.08,-0.8 2.96,-8.64 3.68,-3.44 0.71,-2.4 -1.04,-4.8 -0.79,-1.59 -2.56,-0.56 -2.88,-4.64 0,-6.4 0,0 2.29,-4.91 4.43,-2.04 0.96,1.68 2.04,0.72 2.16,-3.96 2.28,0.24 3.84,6.36 0.24,2.16 0,0 -1.44,2.04 0.12,2.04 7.2,7.79 3.84,1.08 10.08,-3.36 14.28,2.88 2.76,-1.67 z" 
                fill="rgb(151, 144, 238)" 
                stroke="white" 
                stroke-width=".7px"
                title="Ķekavas novads" 
                id="LV-052" 
            />
        </svg>