<svg xmlns="http://www.w3.org/2000/svg" viewBox="174.04232999999994 366.6462800000001 93.97000000000008 128.03999999999968" width="93.97000000000008" height="128.03999999999968">
            <path 
                d="m 241.11233,469.42628 -1.67,2.4 -5.61,7.07 -0.62,-3.3 -0.75,-2.85 0.08,-0.67 -0.69,-2.63 0.94,-3.84 4.02,-4.3 0.36,-0.39 1.22,-2.49 2.42,-2.29 2.37,-0.45 0.31,6.18 -1.09,2.4 -0.19,3.99 -1.1,1.17 z m 6.69,-24.42 -0.44,-1.65 0.1,-4.08 -0.75,0.48 -0.57,2.66 -1.2,1.9 -0.31,2.85 2.45,-2.4 0.72,0.24 z m -5.7,-28.06 -0.29,-0.78 -3.93,-3.17 -0.7,0.45 1.87,4.26 3.52,2.19 0.26,-0.62 -0.1,-0.45 0.1,-0.73 -2.4,-0.92 1.44,-0.15 0.23,-0.08 z m -5.3,-10.69 0.74,-1.28 0.43,1.27 0.73,-0.1 0.16,-0.81 -1.74,-2.17 -2,0.65 0.03,1.99 1.64,-0.31 -0.54,0.77 0.55,-0.01 z m 9.44,46.97 -0.34,-3.33 -3.1,0.39 -1.69,5.2 3.44,-0.56 1.69,-1.7 z m -13.26,33.68 1.59,-1.26 -0.14,-0.86 -0.74,-1.18 -0.76,0.65 0.05,2.65 z m 6.09,-9.04 0.81,-0.41 1.09,-1.21 -1.15,-0.33 -2.26,2.06 1.51,-0.11 z m -43.02,8.52 -2.42,2.23 -1.92,-0.16 -2.74,-2.19 0.64,-3.85 -0.62,-0.42 0.68,-2.13 3.59,-2.07 0.66,-1.26 -0.15,-2.34 1.59,-4.03 4.6,-4.1 1.65,-2.95 2.83,0.84 2.57,-1.4 0.9,-4.37 1.31,-2.64 -0.83,-3.4 -1.04,-0.28 0.05,-3.63 -1.25,-4.5 0.31,-2.32 0.66,-0.73 2.28,0.53 1.22,-0.56 1.2,-2.2 0.62,-4.91 2.68,-2.35 0.65,-3.39 3.83,-0.17 0.96,-1.34 0.03,-1.36 1.34,0.83 3.79,0.73 1.07,2.63 1.87,-1.6 -1.38,-3.7 3.34,-2.6 -1.4,-4.26 5.88,-0.94 5.45,3.78 0.75,1.14 0.57,2.94 1.64,2.72 -1.12,2.03 -0.52,-1.17 -0.03,4.17 3.95,4.98 -2.63,9.87 -1.17,1.93 -4.99,4.79 -1.43,3.61 -1.69,1.17 -0.58,1.3 -5.97,7.6 -3.97,-1.12 -1.18,0.49 -4.07,3.3 -2.52,6.87 -1.94,-1.19 -2.04,1.69 -0.71,2.24 -1.46,-0.8 -1.09,-1.64 -2.3,-0.97 -0.21,0.53 -2.93,0.62 -0.87,-0.7 -1.04,0.36 -1.82,2.82 1.04,2.31 -2.5,0.17 -0.63,0.87 0.23,1.68 -1.27,1.97 z m 44.46,-101.37 0.75,0.33 1.62,0.15 0.36,-1.97 -2.5,0.84 -0.23,0.65 z m 1.32,-9.36 -2.09,-4.28 -0.61,-1.23 -2.7,1.06 -0.76,-0.29 0.49,-0.29 2.57,-1.11 0.02,-0.84 -1.9,-0.28 -1.48,0.74 -2.71,2.32 -0.17,0.1 -4.27,1.29 -1.87,1.32 3.1,0.68 2.74,1.84 1.11,0.8 0.57,-0.61 3.47,7.03 2.75,-0.49 1.93,-1.66 0.47,-1.4 -0.66,-4.7 z m -49.76,101.18 -3.93,-0.58 -1.78,-1.73 -0.83,-3.44 3.81,-1.63 0.7,-1.76 -0.47,-3.71 0.42,-2.32 3.67,-3.21 -1.04,-1.68 -3.51,-1.79 3.88,-1.43 1.25,-1.26 0.7,-3.83 1.77,-0.87 0.76,-1.65 -0.08,-2.35 -1.43,-3.75 1.82,-1.73 2.07,-3.6 3.42,-3.09 0.03,-2.74 1.77,-3.08 0.18,-0.76 1.48,-1.43 -0.68,-1.21 -1.93,0.45 0.52,-3.22 1.43,-2.94 -1.85,-1.65 -0.75,-3.2 3.05,-1.21 2.84,0.7 2.37,-0.95 1.38,0.34 1.2,-2.66 3.12,0.17 1.01,1.6 0.78,-0.08 2.97,-5.22 1.34,-0.65 -0.29,-2.86 1.12,-0.1 0.9,1.4 2.13,-0.48 0.6,-0.87 -0.96,-1.21 1.07,-1.21 2.07,0.52 2.95,2.89 0.94,2.25 -1.02,0.94 1.01,-0.21 0.4,10.42 -5.86,1.6 1.13,4.4 -2.44,1.96 -0.23,1.04 1.09,2.77 -1.08,1.1 -1.19,-1.97 -3.35,-0.62 -1.59,-1.01 -0.81,0.25 -0.44,2.16 -1.26,0.62 -1.86,-0.5 -1.48,0.48 -0.34,2.71 -3.35,4.1 -0.83,5.5 -0.89,0.35 -1.2,-0.53 -2.39,0.9 -0.7,1.18 0.92,9.98 2.03,3.72 -1.5,2.67 -0.83,3.89 -4.66,0.18 -2.82,3.72 -3.58,2.71 -2.01,3.63 -0.86,4.68 z m 40.09,-79.12 -0.97,-1.77 -1.21,-0.06 0.15,1.31 1.82,1.57 0.21,-1.05 z m 14.55,27.64 -2.26,1.15 -2.29,4.48 4.87,5.57 -0.36,-3.83 0.6,-3.98 -0.03,-0.56 0.34,-2.18 -0.87,-0.65 z m 1.31,51.89 -2.66,4.4 -1.18,4.07 2,-0.33 1.39,-0.13 2.33,-2.93 1.15,-1.32 1.49,-3.84 -2.29,-0.17 -2.23,0.25 z m -3.95,-3.24 -1.92,-2.36 -1.63,1.58 -0.63,2.15 1.7,0.48 0.26,-0.01 1.68,0.99 1.37,-1.2 -0.83,-1.63 z m -4.4,4.28 -3.17,0.54 -2.05,2.94 -0.07,1.55 0.77,2.26 5.35,0.69 -0.13,-1.31 1.2,-1.45 1.44,-4.86 0.37,-1.16 -1.77,-1.29 -1.94,2.09 z m 16.81,3.61 -1.5,1.35 -0.99,2.3 0.35,3.27 1.31,-0.17 2.45,-4.99 -0.74,-1.45 -0.88,-0.31 z m 6.1,1.65 -1.45,0.14 -1.53,3.01 1.36,-0.03 -0.11,-1.11 0.97,-0.84 0.09,0.94 0.58,0 0.91,-0.8 -0.19,-0.72 -0.63,-0.59 z m -14.47,-63.63 -2,-0.84 -2.19,0.42 -0.96,1.29 0.47,1.54 1.33,0.78 0.81,1.82 2,0.39 -0.21,-2.69 -0.44,-1.43 0.42,-0.64 0.77,-0.64 z m 10.91,-0.22 8.99,11.16 -0.48,3.23 -1.97,3.54 0.08,10.43 -1.67,11.32 -1.09,2.93 -2.4,3.86 -4.35,3.24 -4.08,4.57 -3.79,1.12 -2.27,0.2 -1.18,-1.26 -1.8,-2.41 -0.26,-1.58 2.16,-6.7 0.42,-7.52 2.36,-2.87 2.55,-6.19 0.63,-5.67 -0.94,-3.78 -0.55,-16.7 -1.46,-2.2 -2.95,-0.95 -0.36,0.46 -1.6,-0.72 -2.57,-3.17 -3.63,-1.82 1.03,-1.69 2.88,-1.76 0.16,-1.78 -0.94,-3.06 -0.67,-0.44 -1.71,-0.11 0.13,-3.69 -0.42,-0.56 -0.85,-0.73 -0.03,4.21 -1.04,0.55 -2.55,-3.72 -0.59,-3.06 -1.19,-1.18 -0.81,0.23 -0.72,-2.29 -1.02,0.23 -1.2,1.66 -0.52,-0.03 0.51,1.04 0.47,1.46 -1.78,1.95 1.07,1.39 -1.65,1.01 -0.75,-1.74 -1.33,-0.14 -0.52,0.93 0.18,2.61 -0.99,0.65 -3.2,5.3 -1.12,-1.63 -3.41,-0.39 -1.27,2.83 -1.72,-0.42 -1.9,1.04 -2.81,-0.84 -3.36,1.32 0.73,3.79 1.85,1.43 -1.25,1.74 -0.91,4.15 0.62,0.67 1.98,-0.45 0.21,0.64 -1.64,1.32 -1.82,3.73 -0.08,2.77 -2.97,2.32 -2.68,4.45 -2.11,1.99 0.03,1.6 1.33,2.24 -0.73,2.4 -1.9,2.74 -0.62,3.69 -3.67,0.89 -1.07,0.98 0.34,2.54 3.65,1.37 -2.86,1.68 -1.38,1.82 -0.24,1.73 0.94,2.85 -3.66,3.14 -1.12,2.14 1.6,6.6 -1,1.39 -1.81,0.65 -2.04,-1.14 -0.5,-4.58 -1.4,-2.2 -1.54,-4.89 1.01,-6.68 -3.09,-8.9 -0.91,-5.52 5.01,-11.57 5.15,-4.38 1.16,-5.4 2.68,-0.15 -0.29,-0.66 -1.82,-0.28 -2.47,1.24 0.84,0.47 -0.44,3.33 -7.34,6.38 -2.23,-2.31 0.89,-2.79 0.09,1.23 3.04,-1.83 2.19,-0.45 0.81,-1.19 -1.07,-1.17 -2.18,0.39 -2.04,-0.6 -0.6,-1.28 0.67,-1.6 2.49,-0.05 4.37,1.17 -0.04,-1.33 -4.05,-0.26 2.89,-3.67 1.05,-4.22 -0.95,-1.05 -3.32,-0.48 0.83,-3.94 -3.23,-1.76 0.83,-1.72 1.36,1.52 0.88,-0.41 1.29,-1.16 -0.77,-0.9 -2.34,-0.8 -2.85,0.54 -0.91,-0.86 4.07,-2.93 2.19,0.49 0.28,-2.98 -1.89,0.13 0.12,-1.4 -0.89,-0.9 3.39,-0.6 -0.48,-1.57 -1.83,-0.22 1.91,-2.22 1.06,-0.68 -0.91,-3.77 2.34,1.1 5.04,-1.55 1.63,-6.28 2.26,-0.52 0.14,-3.46 1.06,-0.06 2.42,-3.51 2.67,-0.15 0.79,-3.22 0.73,-0.68 -0.74,-0.59 1.63,-0.48 0.97,-1.42 2.81,1.12 2.17,-1.46 1.83,2.34 -0.41,3.56 0.51,0.48 -0.9,1.87 0.88,2.21 0.68,-1.02 1.6,0.01 -0.56,0.84 0.37,0.65 1.63,-1.56 1.04,0.63 3.65,-0.29 0.23,-2.59 -1.55,-3.05 0.87,-2.38 4.82,-0.2 4.84,1.59 0.21,0.68 -1.17,1.09 -2.49,0.55 3.72,0.75 -2.4,0.92 5.35,2.23 0.7,0.39 4.01,3.15 2.08,4.38 -3.38,2.78 0.03,0.51 -1.61,3.06 0.54,2.19 0.92,0.58 0.13,0.65 1.33,-1.74 -1.98,-2.3 2.71,-3.03 0.18,-0.87 1.38,-0.67 9.11,1.71 3.1,2.67 1.61,2.61 -1.07,0.96 -2.03,0.45 -5.75,-0.45 -4.24,1.8 -2.71,-0.98 -1.04,0.36 2.43,0.69 1.04,1.68 2.51,-2.16 3.18,-0.48 0.68,0 0.34,0 2.63,0.51 1.64,0.91 4.74,14.58 2.11,2.3 2.42,1.32 1.55,6.18 z m -44.87,56.51 1.13,1.09 -0.31,2.03 -3.43,7.8 -0.57,3.48 -3.45,2.94 -2.43,1.14 -2.95,-0.06 -4.89,-1.58 -2.35,-2.1 -0.02,-2.2 1.22,-0.38 1.71,-3.55 -0.06,-2.54 2.01,0.05 0.78,-0.6 -0.9,-2.69 2.07,-2.52 1.02,0.74 3.93,-0.96 1.74,1.22 0.22,1.22 0.54,-0.15 2.08,1.29 1.11,-3.13 1.8,-0.54 z m 10.1,-0.88 -0.15,-1.82 -3.88,2.91 -4.77,9.99 0.45,2.5 0.95,1.08 3.35,-0.5 1.66,-1.81 -1.81,-4.67 4.2,-7.68 z m -0.67,-5.55 3.29,-2.78 -1.57,-0.48 -1.75,-0.55 -2.68,2.53 -2.25,4.08 0.19,1.85 -0.16,1.1 4.71,-5.2 0.22,-0.55 z m 2.42,16.68 2.71,-0.66 0.89,-1.26 0.39,-1.1 -3.51,1.47 -0.48,1.55 z m 1.29,3.56 -0.22,1.28 2.69,-0.56 -0.23,-2.2 -2.24,1.48 z m 4.3,-18.41 -1.27,-2.46 -4.62,2.52 -0.25,0.32 -0.94,1.16 0.38,2.37 -3.06,5.46 -0.88,1.82 0.49,3.14 1.66,1.22 0.83,-0.09 0.95,-1.89 5.16,-2.42 2.71,-3.14 -1.16,-8.01 z m 3.31,18.99 0.11,-1.34 -0.77,-0.28 -2.43,1.38 -0.53,1.86 0.45,1.2 1.37,0.11 2.94,-1.87 0.26,-0.61 -0.63,0.45 -0.77,-0.9 z m 2.76,-3.44 -1.66,-1.12 -1.88,2.1 3.94,1 0.6,-0.4 -0.42,-1.05 -0.58,-0.53 z" 
                fill="rgb(151, 144, 238)" 
                stroke="white" 
                stroke-width=".7px"
                title="Barisal" 
                id="BD-A" 
            />
        </svg>