<svg xmlns="http://www.w3.org/2000/svg" viewBox="237.45233 244.73628000000028 200.0500000000002 355.9999999999999" width="200.0500000000002" height="355.9999999999999">
            <path 
                d="m 270.13233,436.57628 -0.31,3.81 -0.63,0.57 -0.38,-0.4 0.78,-2.27 -0.75,-0.56 -0.26,-0.81 1.22,-2.41 0.33,2.07 z m 2.38,8.41 0.88,-0.57 1.17,-3.22 -0.62,-2.27 -2.08,5.15 0.65,0.91 z m 5.74,-7.85 0.88,-1.58 0.03,-1.47 -1.17,-1.82 -1.9,1.09 -0.05,2.57 1.12,1.26 1.09,-0.05 z m 2.32,8.62 -1.72,-6.49 -1.38,0.42 -0.03,6.27 -7.52,19.23 1.22,1.31 1.17,1 0.83,-0.33 0.6,-2.85 4.14,-6.4 1.85,-4.56 0.84,-7.6 z m 5.08,-6.74 -1.2,-1.93 -2.29,2.02 1.33,1.76 2,-1.06 0.16,-0.79 z m -1.9,5.34 -0.57,-1.51 -1.17,1.09 0.78,2.85 0.96,-2.43 z m -4.07,-15.5 -0.31,0.98 1.32,7.28 1.25,1.01 1.64,-1.68 0.67,-2.36 0.64,-3.97 -2.6,-1.73 -2.61,0.47 z m 1.49,13.07 0.68,1.71 1.28,-1.29 -1.43,-1.54 -0.53,1.12 z m -27.32,-61.27 -0.41,-0.68 -2.46,-3.08 -0.67,-0.34 -1.18,0.82 2.52,4.1 0.23,0.2 2.81,4.58 0.37,-0.39 0.39,-1.15 -1.59,-3.71 -0.01,-0.35 z m -10.24,-27.84 0,-0.02 -0.14,0.17 0.14,-0.15 z m 33.92,78.92 -0.23,-2.07 -1.74,0.76 0.68,1.46 1.29,-0.15 z m 4.99,34.53 -2,-0.78 -0.83,0.45 -1.64,3.55 0.34,2.1 1.01,0.89 2.13,-1.17 1.48,-1.98 -0.36,-0.39 0.68,-1.4 -0.81,-1.27 z m -9.99,-42.9 0.31,1.37 2.11,0.36 0.6,0.06 3.64,-1.37 -2.39,-3.56 -1.59,0.45 1.25,-0.87 -3.33,-2.83 -4.37,-0.39 -1.93,-1.32 -1.46,1.32 0.08,0.73 6.56,6.78 0.52,-0.73 z m 30.61,8.54 0.47,1.35 1.3,0.81 0.7,-2.16 -0.91,-1.12 -1.56,1.12 z m 12.57,-25.84 -0.31,-1.06 -1.33,-1.63 -3.38,-1.77 -2.52,1.54 1.15,4.8 2.47,3.08 2.89,0.87 2.27,1.65 1.33,-3.78 -0.05,-1.66 -2.52,-2.04 z m -8.59,5.58 -1.43,-0.05 -0.55,-0.33 -0.73,1.73 0.88,3.64 1.77,-2.8 0.06,-2.19 z m 0.18,7.38 -1.41,2.72 -0.57,1.79 1.02,1.12 3.44,-4.31 0.29,-1.82 -0.83,-0.7 -1.94,1.2 z m 22.88,2.6 -5.99,-7.93 -1.64,-1.15 -2.4,1.35 0.34,0.67 -1.22,-0.14 -0.62,1.43 0.63,0.51 -0.75,0.25 1.64,7.73 1.69,4.48 3.41,5.88 2.79,1.23 2.21,-0.25 3.31,-1.51 0.76,-1.82 -0.39,-3.02 -3.77,-7.71 z m 33.78,62.9 -1.61,-2.24 -2.68,2.19 -0.56,2.54 1.13,5.08 -0.86,2.19 0.16,3.08 -0.91,1.83 0.54,1.46 0.71,-0.12 4.53,-12.24 -0.45,-3.77 z m 70.95,54.44 -2.69,-13.81 -1.7,-20.35 0.75,-10.7 0.86,-1.93 -0.56,-1.21 1.33,-4.75 -1.34,-5.6 -0.08,-6.01 -1.17,-3.78 0.56,-2 -3.24,-7.19 1.61,-1.06 2.09,1.85 0.37,-5.19 -0.86,-0.96 -0.66,-7.51 -1.08,-3.24 0.13,-3.18 -2.05,-7.14 -1.2,-12.97 -1.05,-3.39 -0.95,-0.83 0.85,-1.66 -0.06,-2.56 -1.2,-7.27 -2.13,-6.01 -1.13,-1.84 -1.01,-0.87 0.49,-1.05 -0.83,-1.16 0.01,-1.42 -1.75,-2.55 0.53,-0.93 -0.02,-1.06 -0.01,-1.29 -0.57,-1.61 -1.01,-2.19 -1.37,0.67 -1.32,-2.63 -1.23,-0.32 -0.85,-1.57 -1.98,-0.33 0.94,-5.27 0,-5.17 0.77,-2.04 -0.92,-2.96 -1.69,-1.88 0.72,-2.22 -0.81,-0.97 0.65,-2.26 -0.19,-2.45 -0.69,-0.82 -0.1,-4.61 4.45,-0.87 -0.77,-2.36 -1.07,-1.97 -0.12,-2 -1.39,-1.46 1,-2.77 -0.29,-1.25 -0.57,-0.87 -0.49,-0.8 -0.87,-0.24 0.18,-2.82 -0.87,-0.58 -0.21,-1.98 -0.88,0.31 -0.16,-2.52 -0.1,-0.86 -0.52,-1.44 -0.85,-1.17 -0.02,-3.51 -0.97,-0.93 0.49,-2.12 -1.52,-3.4 -0.77,-0.8 -0.02,-1.99 0.64,-0.99 -1.75,-0.49 1.26,-6.53 -2.41,-3.45 -1.63,0.16 -0.97,1.31 0.51,2.23 -0.82,2.19 -1.68,1.19 -0.69,-0.57 0.45,-3.15 -1.35,-1.2 -1.57,-0.36 -0.52,-3.16 -0.86,-0.09 -2,1.01 -4.18,5.7 -1.43,-0.07 -0.34,2.37 -1.53,0.94 -3.29,-1.73 -1.16,0.38 -3.7,-7.3 -2.02,0.21 -0.45,2.91 -1.41,1.76 1.35,6.5 -0.53,3.21 1.21,0.77 -0.27,4.19 0.65,0.88 -0.77,0.89 1.37,1.61 0.09,2.23 -3.12,1.35 0.5,2.55 -0.51,0.66 -3.59,-0.39 -5.26,4.19 -0.86,1.6 0.55,0.42 -3.35,4.23 -3.5,7.6 0.39,1.81 1.6,1.68 -0.07,1.91 0.75,1.4 0.59,3.86 0.72,0.78 -0.12,2.05 0.82,0.81 0.13,2.02 0.06,1.67 0.17,0.81 -0.9,0.86 -3.26,0.13 -0.46,2.33 -2.28,3.59 -2.39,2.1 -2.55,-1.35 -0.92,1.49 -1.22,0.01 -1.72,0.12 -0.41,0.36 -3.13,2.36 -1.35,0.38 0.67,-1.75 -1.36,-0.24 -1.32,1.27 -1.93,-1.34 -0.02,-1.34 -1.28,-0.51 0.41,-2.13 0.09,-1.82 -1.47,-0.09 0.27,-1.59 -0.2,-1.18 -0.75,-1.75 0.38,-0.78 -1.85,-1.87 0.75,-0.88 -1.37,-1.31 0.64,-0.95 -0.5,-1.42 -0.61,-1.54 -0.52,-0.76 -0.88,-2.6 -0.27,-1.35 -2.56,-0.32 1.52,-1.03 -0.76,-1.3 -1.41,-0.5 0.75,-1.14 -3.9,0.04 -1.02,1.16 -0.3,1.69 -0.77,0.28 -0.65,4.46 0.25,2.73 1.74,4.64 -0.19,1.22 0.4,1.15 0.96,0.42 -0.05,2.02 -1.85,0.75 -2.31,-1.24 -2.25,-3.66 -1.34,-5.15 -0.84,-0.68 -0.45,-8.41 -0.02,-1.33 -0.83,-2.12 0.57,-0.75 -1.51,-0.86 1.42,-1.18 -0.53,-1.23 -1.75,-0.68 0.49,-2.05 1.17,-0.36 1,-1.78 -2.41,0 -0.84,-0.97 -0.41,-0.63 -0.41,-3.87 -2.09,-3.28 -0.57,-4.19 -1.53,-0.49 0.15,-0.87 -1.12,-1.11 -1.9,-0.38 -0.25,-0.66 1.3,-2.45 -1.74,0.04 -0.05,-1.8 -1.81,-2.04 0.23,-0.81 -1.45,-0.51 -0.5,-7.31 1.4,1.36 1.79,0.19 0.34,0.85 1.03,-0.98 0.02,-3.15 -0.85,-0.5 -4,0.12 -0.36,-1.89 0.56,-3.01 1.12,-1.29 2.17,-0.12 1.76,0.32 0.97,1.02 0.89,-2.98 -0.19,-2.81 2.39,-4.34 -2.35,-4.44 -0.03,-1.66 1.62,-1.41 -1.33,-1.56 3.85,0.24 -0.95,-2.28 0.54,-1.53 1.11,-1.99 0.54,1.54 0.95,-0.48 0.63,-2.64 -0.91,-0.46 0.12,-1.57 1.01,0.12 0.49,-2.41 -0.94,-1.99 -1.48,-0.18 0.33,-3.59 -1.19,0.28 -0.93,-0.69 0.27,-1.33 1.85,-0.67 -1.92,-0.66 0.02,-1.63 -0.85,-0.22 1.34,-1.98 0.33,-1.81 2.3,-1.11 1.03,0.35 -0.16,-1.59 -2.85,0.9 -0.66,-0.62 0.76,-1.76 1.12,0.58 0.19,-1.2 0.82,0.33 0.93,-1.05 0.79,0.02 -0.02,-3.04 -1.29,-0.65 -1.03,0.48 -1.25,1.69 -0.34,1.63 0.46,0.56 -1.09,0.21 -7.35,-1.4 -1.98,-2.57 -3.39,2.45 -5.44,0.12 -0.4,2.07 1.42,0.98 -0.18,0.45 -5.06,-0.31 -1.97,2.88 -3.11,1.95 1.53,2.6 4.27,2.39 0.89,2.07 -1.02,1.94 -5.64,3.81 -1.53,2.86 0.4,4.1 -2.38,1.95 0.22,2.56 -2.42,1.98 -0.75,3.27 -2.01,1.68 -1.07,-0.06 -2.05,-1.94 -2.38,1.23 -5.02,-0.29 -1.95,0.89 -0.62,1.36 1.06,1.87 0.06,2.77 -3.45,4.13 -0.6,1.65 0.15,1.68 1.81,2.88 -0.83,2.85 -2.02,0.53 -2.98,-1.74 -3.32,0.62 -1.53,5.51 2.59,0.46 1.07,2.46 -1.29,0.27 -0.81,1.4 3.66,1.65 2.45,5.46 -2.48,1.57 -3.79,-1.47 -2.16,1.29 -2.67,0.35 -5.05,10.41 1.16,3.36 2.65,1.86 -0.52,3.17 3.68,8.43 2.26,-0.23 0.11,5.24 1.35,4.62 -1.33,3.27 -0.31,7 0.6,2.7 1.9,2.87 1.12,-1.18 1.33,0.06 2.47,3.5 2.27,5.13 2.13,2.56 -0.03,0.11 1.95,3.93 -0.47,5.03 3.88,7.58 2.55,3.42 0.91,0.11 0.63,0.45 2.63,0.53 1.02,1.88 9.18,6.06 7.01,8.12 3.67,-4.06 1.48,0 1.27,0.48 0.96,-0.62 0.5,0.34 0.39,0.48 -0.7,0.87 1.09,0.48 5.88,-3.76 1.43,0.51 1.75,-1.54 -1.85,-4.51 1.67,-2.16 1.87,-0.53 -0.86,-0.59 0.1,-1.32 -1.82,-2.33 -1.61,0.25 -0.52,-0.51 1.2,-0.03 -0.91,-2.08 -2.11,-0.11 -0.91,-2.05 -1.4,-0.17 0.26,-0.42 0.89,0.03 1.61,1.91 0.94,-0.9 0.76,0.37 2.21,2.16 3.83,-4.6 0.78,-0.37 3.12,-0.7 3.23,0.34 1.07,-0.45 0.23,-1.15 -2.57,-0.82 1.87,-1.29 2.27,1.63 0.18,1.35 1.07,0.76 1.2,-2.55 -0.91,-1.35 0.18,-1.07 -1.35,-0.87 1.74,-3.43 0.13,1.55 -1.07,1.43 2.84,2.81 0.68,3.37 -0.03,0.59 0.96,2.36 7.83,4.91 4.09,4.68 0.73,1.77 6.35,6.45 3.77,5.66 0.89,3.64 1.41,1.99 -0.36,0.73 1.04,1.29 2.66,11.7 -0.34,2.35 3.12,4.64 0.93,-0.68 0.6,0.32 -0.08,3.49 1.67,6.01 1.09,2.01 0.55,0.22 0.89,-0.94 0.36,0.83 -0.08,2.65 1.27,4.22 0.26,2.51 -0.81,1.9 1.52,2.51 2.52,8.83 0.35,3.46 -0.59,3.78 -5.15,14.16 0.64,1.51 1.45,1.46 0.62,-0.11 0.32,-0.75 0.67,0.89 -0.86,1.29 0.11,1.38 -0.7,0.08 0.08,2.29 -0.67,1.29 0.75,1.1 1.75,-0.56 -0.98,1.23 -0.95,-0.29 -0.59,0.73 0.16,0.7 1.1,0.81 -1.02,0.76 -1.31,-0.62 -0.89,1.54 0.3,0.7 3.44,4.09 1.42,0.65 0.48,-0.91 -1.02,-0.7 0.91,-0.4 -0.51,-0.89 0.75,-0.38 0.64,0.56 2.82,0.03 2.39,-0.81 1.21,-12.12 0.67,-1.56 1.22,4.51 -0.32,0.51 -1.08,1.83 0.6,5.93 -1.13,3.15 -1.31,1.32 -0.51,-0.1 -1.21,1.28 -0.48,-0.3 0.04,1.23 6.22,8.45 2.86,6.92 0.16,11.99 12.65,15.89 1.67,5.92 2.39,5.07 4.58,6.99 3.44,7.92 2.16,1.91 0.62,-1.58 -2.16,-8.44 -1.9,-4.67 -2.58,-2.68 -0.96,-3.47 0.1,-2.86 -1.09,-5.57 1.2,-2.83 -3.46,-4.13 -0.29,-2.55 0.27,-0.58 -1.92,-0.74 -1.62,-3.32 1.7,-3.9 0.52,0.35 1.46,-1.85 -2.29,-5.93 -0.51,-3.32 3.14,-2.84 2.23,-0.66 -0.09,-2.96 1.16,-0.81 0.25,-2.74 1.82,-0.03 1.4,1.04 1.48,-0.45 2.01,-3.7 2.35,-1.78 2.07,0.19 3.13,4.28 0.66,2.74 -0.43,2.17 0.9,1.57 6.16,1.85 0.97,-0.38 0.13,-1.4 1.53,0.31 1.82,-1.14 1.17,0.75 1.26,5.03 1.89,4.03 0.24,2.82 1.7,0.19 1.49,-2.19 4.08,-2.72 -2.59,-6.87 z m -149.03,-70.15 -0.49,3.38 3.07,-2.65 -0.44,-1.45 -2.14,0.72 z m 19.8,-38.97 1.31,1.67 0.97,0.01 0.15,-0.64 -1.62,-1.71 -0.81,0.67 z m -11.66,-6.51 0.53,-1.99 -0.37,-0.16 -1.23,-0.05 -0.45,-0.39 -1.12,0 -2.19,2.14 -1.01,2.33 -0.08,3.08 0.94,0.03 3.54,-4.12 1.44,-0.87 z m 2.09,18.76 -1.33,-4.25 -1.95,-2.02 -0.13,-1.57 -5.65,-2.6 0.1,6.13 -0.62,3.72 0.34,8.25 -1.54,5.95 -3.54,7.52 0.63,1.28 3.49,2.35 4.24,-3.91 3.07,-1.42 0.18,-1.54 0.57,0.17 1.12,-1.98 1.04,-0.56 0.21,-2.26 0.65,-0.05 1.67,-5.09 -0.23,-4.28 -2.32,-3.84 z m 0.99,-19.18 2.06,0.93 0.21,-1.46 -1.04,-0.2 -1.23,0.73 z m -2.55,1.23 -2.73,3.42 2.32,0.06 2.92,-1.63 1.72,-1.88 -1.74,-1.06 -2.49,1.09 z" 
                fill="rgb(151, 144, 238)" 
                stroke="white" 
                stroke-width=".7px"
                title="Chittagong" 
                id="BD-B" 
            />
        </svg>