<svg xmlns="http://www.w3.org/2000/svg" viewBox="121.28232999999997 125.55627999999984 183.14000000000007 266.65000000000003" width="183.14000000000007" height="266.65000000000003">
            <path 
                d="m 236.80233,364.18628 2.08,1.1 -0.05,1.33 -1.02,0.24 0.79,0.85 -1.71,0.08 -2.46,0.99 0.3,-1.21 1.46,-2.28 0,0 0.61,-1.1 z m 64.18,-129.8 1.29,0.25 2.15,-1.46 -1.62,-2.77 -0.97,0.21 -0.83,-0.64 -0.17,-1.35 2.07,0.07 0.3,-0.84 -1.34,-4.78 -1.42,-0.08 0.81,1.34 -1.63,-0.62 -1.64,2.25 -0.17,-1.51 1.02,-0.53 -2.49,-0.68 -1.03,0.78 -0.63,-0.32 2,-2.43 0.77,1.43 0.68,-0.63 2.49,-2.98 1.88,-4.58 -3.36,-1.78 0.64,-0.91 -0.3,-1.24 -2.15,-0.86 -0.24,-1.48 1.78,0.9 0,-0.86 0.89,0.02 0.19,-1.69 1.42,-0.03 0.82,-0.88 -1.02,-1.5 1.79,-0.31 0.06,-1.57 -1.85,-0.81 0.84,-0.99 -0.46,-1.61 -1.54,1.55 -2.46,-1.57 -1.7,0.86 -0.35,-0.74 -1.62,-0.02 1.02,-0.77 -0.4,-1.36 0.69,0.36 0.38,-0.74 -0.69,0.05 0.03,-0.73 -1.2,-0.15 -0.18,-0.59 0.92,-0.62 1.38,0.29 -0.12,-0.93 1.3,-0.93 -1.39,-0.84 1.41,-2.26 -0.17,-1.88 -1.54,-0.91 -1.01,1.4 0.29,0.81 -1.33,1.04 1.25,1.51 -1.49,0.22 -1.51,-2.36 0.59,-1.99 0.83,-0.65 -0.4,-0.8 -0.98,-0.04 -1.15,-3.82 -2.12,-1.64 -3.46,-0.54 -1.25,2.26 -0.9,-0.21 -0.44,-1.08 -1.3,0.4 -1.08,-2.19 -3.36,-0.08 -0.11,-2.55 -0.63,0.05 1.95,-0.87 0.37,-1.25 -1.05,-1.43 -1.57,-0.39 0.34,-3 -1.25,-1.68 0.52,-0.86 2.35,-0.99 -2.93,-0.86 -0.2,-3.38 1.38,-0.33 1.18,1.06 1.5,-0.48 -0.26,-1.86 -1.96,-1.81 0.6,-1.13 -0.25,-2.88 1.64,-0.72 -0.52,-1.45 -3.62,0.85 -4.14,-0.38 -3.01,0.87 -3.16,-1.04 -0.88,-0.6 -2.35,-1.26 -1.47,0.73 -0.49,1.09 -1.69,0.78 -0.67,0.44 -1.81,-1.25 -1.45,1.16 -1.57,-1.13 -1.37,-0.04 -0.75,-1.95 -1.56,0.37 0.05,0.89 -2.14,0.1 -0.91,-0.62 -3.13,0.79 -6.19,-0.44 -0.09,0.54 -5.26,1.81 -0.68,0.8 -3.55,-1.6 -3.27,-0.44 -3.56,-3.01 -2.2,0.4 -7.18,-1.77 -1.2,0.35 -5.03,-2.12 -5.59,-0.3 -5.19,-3.71 -2.38,-0.42 -2.44,-1.59 -2.09,0.01 -1.38,-2.13 -1.67,0.76 -0.45,-0.86 -1.11,0.35 -2.39,-0.83 -2.79,2.23 -4.42,-0.89 1.23,-1.5 -1.12,-0.97 0.14,-1.5 -1.35,-2.22 -0.07,-3.06 0.77,-2.9 -5.36,-1.65 0.06,0.14 0.35,1.3 0.9,0.59 -0.28,2.15 -1.63,0.89 -1.11,-0.04 -0.25,0.11 -2.44,2.46 2.97,7.28 -0.63,2.51 0,0.32 0.59,1.46 -0.96,1.23 -0.21,0.08 -3.83,0.37 -2.45,4.47 -0.05,1.63 -2.11,2.88 0.15,3.1 -0.06,0.27 -1.14,2.06 0.66,1.05 0.33,0.25 0.33,-0.16 0.1,0.17 0.23,2.51 -0.71,0.98 1.08,5.15 0.2,0.59 1.35,2.7 -0.03,1.08 -0.47,2.36 1.13,1.75 -0.17,0.14 -0.45,0.01 -0.6,0.37 -1.09,0.74 0.04,0.58 2.09,5.53 2.03,2.06 2.5,1.3 1.06,-0.13 0.26,0.58 -1.48,0.2 -0.84,1.11 -0.15,0.77 1.29,1 0.28,0.12 0.6,-1.11 1.48,1.21 1.2,-1.05 0.95,0.88 0.1,2.13 0.62,0.42 0.23,0.35 -0.37,0.98 -0.99,0.61 1.65,1.82 0,1.38 0.49,0.41 -0.01,1.17 -1.18,0.79 0.04,4.1 -1.94,0.89 -0.03,0.64 1.4,4.44 -0.24,0.43 -0.66,0.39 -0.24,0.3 0,0.91 -0.13,0.29 -2.18,1.04 -0.07,1.67 -0.21,0.17 -0.41,-0.2 -0.55,0.32 0.4,0.59 0.81,0.25 0.36,0.14 0.45,1.26 -0.91,1.87 0.15,0.28 0.67,-0.27 0.1,0.19 -1.46,1.13 -0.06,1.18 -1.61,0.97 0.64,1 0.77,3.12 0.55,0.23 1.22,-0.28 0.71,3.46 -1.62,2.72 1.9,1.86 0.2,0.48 0.04,1.76 1.15,1.91 0.15,0.59 -0.56,4 0.05,0.78 1.43,6.54 -0.14,0.16 -1.18,0.27 -0.34,0.45 0.41,0.7 0.3,0.23 1.58,-0.23 0.41,1.29 1.14,0.7 -0.31,2.89 0.58,3.51 -0.85,1.65 -3.98,3.25 -0.38,0.04 -0.96,-0.22 -0.61,0.11 -4.28,3.31 -0.8,6.52 0.16,0.3 0.73,-0.01 0.41,0.61 0.14,1.97 0.14,0.35 -0.68,2.96 0.15,0.16 0.68,-1.34 2.74,4.94 -0.98,0.54 -1.15,0.29 -1.06,1.5 -1.21,-0.07 -1.28,0.46 -0.98,0.08 -4.14,-0.24 -0.34,0.32 -2.64,-0.19 -1.25,0.79 -0.51,0.05 -1.28,-0.11 -0.65,-0.88 -2.98,-0.16 -1.34,-0.77 -11.87,-9.23 -1.07,0.28 0.08,1.42 -0.35,0.35 -0.39,-0.62 -0.23,1.47 0.66,1.38 -2.46,4.32 -1.14,3.4 0.44,0.95 -0.48,0.82 -1.16,0.16 -0.16,0.54 1.04,0.27 -0.6,1.83 -1.83,1.42 1.3,0.66 1.3,2.81 2.59,3.22 2.31,0.56 3.09,-1.56 2.72,2.48 0.29,1.56 4.34,1.21 0.2,1.04 -1.81,1.93 1.59,0.6 1.22,1.41 0.71,3.02 2.58,1.2 -3.11,1.21 -1.29,2.44 3.85,-0.89 4.18,2.02 2.81,2.25 -0.06,4.88 1.24,3.27 -0.34,0.43 -2,-0.51 0.64,4.71 1.08,2.93 1.92,1.57 0.88,2.37 -1.96,3.83 5.7,-0.46 -0.39,1.92 0.8,1.74 -0.76,2.42 1.44,1.9 3.76,-2.42 2.22,0 0.64,0.6 -0.47,0.69 -3.24,0.69 -0.06,0.74 1.66,1.88 -0.17,1.33 -2.77,0.53 -1.1,1.02 -1.31,-1.15 -0.22,-1.51 -0.87,1.01 0.19,1.25 1.94,2.22 2.72,1.17 -0.27,0.88 1.25,0.92 -0.82,1.87 2.01,0.87 0.85,3.59 3.26,1.4 -0.33,1.56 1.84,-0.06 0.65,0.65 -1.07,2.7 2.8,0.67 1.23,1.95 1.97,1.39 -0.09,0.61 -1.42,-0.3 0.43,1.17 -0.42,0.28 -1.21,-0.52 -1.27,0.37 0.01,1 -0.9,-0.32 1.07,1.78 1.75,1.37 2.3,-0.58 1.59,1.04 2.14,0.12 1.22,-0.86 1.07,2.73 1.06,-0.68 -0.91,-3.77 2.34,1.1 5.04,-1.55 1.63,-6.28 2.26,-0.52 0.14,-3.46 1.06,-0.06 2.42,-3.51 2.67,-0.15 0.79,-3.22 0.73,-0.68 -0.74,-0.59 1.63,-0.48 0.97,-1.42 2.81,1.12 2.17,-1.46 1.83,2.34 -0.41,3.56 0.51,0.48 -0.9,1.87 0.88,2.21 0.68,-1.02 1.6,0.01 -0.56,0.84 0.37,0.65 1.63,-1.56 1.04,0.63 3.65,-0.29 0.23,-2.59 -1.55,-3.05 0.87,-2.38 4.82,-0.2 4.84,1.59 0.21,0.68 -1.17,1.09 -2.49,0.55 3.72,0.75 5.39,-1.66 1.51,-1.66 0.29,-1.69 2.33,-3.64 2.52,-1.15 -0.01,0.53 1.16,0.94 2.23,-7.67 -0.42,-0.91 0.57,-0.02 1.14,-2.8 0.14,-0.17 0.66,-1.16 -3.68,-8.43 0.52,-3.17 -2.65,-1.86 -1.16,-3.36 5.05,-10.41 2.67,-0.35 2.16,-1.29 3.79,1.47 2.48,-1.57 -2.45,-5.46 -3.66,-1.65 0.81,-1.4 1.29,-0.27 -1.07,-2.46 -2.59,-0.46 1.53,-5.51 3.32,-0.62 2.98,1.74 2.02,-0.53 0.83,-2.85 -1.81,-2.87 -0.15,-1.68 0.6,-1.65 3.46,-4.13 -0.06,-2.77 -1.06,-1.87 0.62,-1.36 1.95,-0.89 5.02,0.3 2.38,-1.23 2.05,1.94 1.07,0.06 2.01,-1.68 0.75,-3.27 2.42,-1.97 -0.22,-2.56 2.38,-1.95 -0.4,-4.1 1.53,-2.86 5.64,-3.81 1.02,-1.93 -0.89,-2.07 -4.27,-2.39 -1.52,-2.6 3.11,-1.95 1.97,-2.88 5.06,0.31 0.18,-0.45 -1.42,-0.98 0.4,-2.07 5.44,-0.11 3.39,-2.45 1.89,-2.66 -0.7,-0.34 -2.82,1.02 1.22,-3.73 5.9,0.28 0.16,-1.5 -2.13,-3.1 0.34,-0.92 z" 
                fill="rgb(151, 144, 238)" 
                stroke="white" 
                stroke-width=".7px"
                title="Dhaka" 
                id="BD-C" 
            />
        </svg>