<svg xmlns="http://www.w3.org/2000/svg" viewBox="51.79232500000016 250.78627999999978 131.57000499999992 258.8900000000002" width="131.57000499999992" height="258.8900000000002">
            <path 
                d="m 131.66233,421.87628 0.83,0.87 1.02,0.07 -0.86,0.57 0.83,3 0.36,5.99 1.2,0.92 -0.18,3.78 -1.2,1.65 3.83,5.1 0.1,0.62 1.56,3.44 0.16,0.17 -1.72,3.41 3.85,12.85 0.68,0.64 0.96,1.27 -0.05,2.48 -2.27,4.29 2.14,2.32 4.79,-13.24 -4.09,-7.7 2.97,-3.38 0.03,-1.62 0.12,-0.18 0.43,1.33 0.7,-0.26 -0.36,-3.55 2.29,-2.94 1.82,-4.06 -0.94,-4.51 -2.71,-5.07 -0.47,-5.99 -1.56,-5.44 -3.3,-4.29 -0.33,-0.43 -0.65,-2.48 -2.14,-1.61 -1.19,-0.21 -0.78,0.24 -1.52,-0.22 0.15,2.09 -5.29,4.69 2.21,2.69 -0.05,1.12 -1.37,1.58 z m 12.27,65.02 -0.33,-7.73 0.54,-0.6 2.17,2.61 -2.38,5.72 z m -31.38,10.72 -1.55,-0.91 -0.88,-3.26 1.4,-1.41 4.92,1.04 1.4,-1.67 0.71,1.66 1.04,1.88 -1.09,0.45 1.15,0.17 0.37,3.78 -2.66,-0.73 -3.83,1.08 -0.98,-2.08 z m 11.34,-11.37 2.99,-1.61 -0.61,-2.65 -1.61,-3.5 -2.87,-3.53 -0.1,-0.27 -2.7,-5.94 1.66,-2.7 -3.13,0.44 -0.97,-1.25 -1.58,-0.26 -0.82,0.28 2.14,1.9 0.44,1.77 -3.21,4.9 2.17,1.12 0.86,1.45 -0.68,1.13 -3.15,1.94 2.31,1.04 2.44,2.55 1.69,-0.43 1.4,0.88 0.03,1.73 -1.58,1.98 0.64,3.14 0.85,0.21 -1.12,0.67 1.53,1.69 1.33,-4.64 1.65,-2.04 z m -17.18,13.29 0.19,1.77 -1.13,1.36 -2.59,-0.03 -3.540005,-4.9 -2.46,-1.74 1.52,-6.7 -0.66,-2.28 -1.88,-1.95 -0.06,-1.53 0.23,-0.82 1.29,-0.35 0.93,0.32 0.16,3.27 2.240005,3.02 -0.74,3.73 0.87,2.41 4.38,2.64 0.04,0.9 1.21,0.88 z m 11.65,5.53 2.34,1.1 -1.53,1.84 -1.91,-0.15 0.51,0.62 -0.41,0.52 -4.42,0.68 -0.46,-1.51 1.54,-3.31 0.49,0.16 1.61,0.83 1.06,-0.32 1.18,-0.46 z m -12.16,-26.24 2.85,-3.76 -0.57,-2.48 0.94,-0.11 0.97,0.03 1.03,1.95 4.31,1.67 -3.61,2.35 0.57,2.52 1.05,0.86 1.89,-0.09 0.52,1.5 0.95,0.58 2.7,0.26 -1.48,2.16 -0.15,0.2 0.58,2.68 -2.4,3.38 -5.11,-1.09 1.55,-8.52 -2.71,-0.76 -0.46,-0.03 -1.56,0.14 -1.72,-1.33 -0.14,-2.11 z m 18.36,-22.36 0.34,2.43 -0.88,2.63 1.92,-0.56 -0.07,1.79 2.32,1.96 0.68,-2.18 2.19,-0.92 0,-0.42 0.11,-2.39 2.96,-1.28 2.13,2.33 1.03,-1.57 -1.3,-3.34 -0.14,-2.29 0.09,-2.77 -3.58,1.55 -0.18,0.27 -0.88,-1.44 0.29,-1.13 -2.36,-1.14 -1.04,1 -1.01,-1.21 -1.78,1.4 0.97,0.26 0.2,0.69 -0.8,0.79 -0.34,1.93 -1.29,0.41 0.12,1.44 -0.81,0.84 1.11,0.92 z m 15.99,9.35 -1.84,-0.58 -1.19,-1.62 -0.22,-3.07 0.75,-0.29 1.09,0.99 0.73,2.37 0.68,2.2 z m -22.75,33.07 1.9,0.78 0.47,2.02 -0.78,2.53 -1.2,0.28 -0.37,0.06 -1.57,0.96 -2.19,-1.22 -0.4,-4.21 4.14,-1.2 z m 17.43,-31.33 4.05,-1.87 1.77,1.27 -3.84,2.92 -2.15,-1.6 0.17,-0.72 z m 26.14,18.18 1.42,4.12 -0.23,1.06 -1.66,0.58 -2.09,-0.43 -0.24,-0.66 -2.6,0.53 -0.24,-3.4 -1.01,-1.44 1.95,-1.98 1.35,-3.79 -0.62,-4.89 0.96,-1.38 0.4,0.43 0.28,1.51 0.69,0.81 0.96,0.18 -0.98,1.82 1.51,2.94 -1.48,2.67 1.63,1.32 z m 12.58,-7.18 1.29,5.08 -1.01,2.7 -1.56,1.07 -0.69,-0.81 -0.52,0.31 0.07,2.55 -4.42,0.95 -1.15,1.13 -0.97,-0.48 0.42,-1.59 -2.19,-0.32 -1.23,-3.49 -1.81,-1.52 1.47,-1.49 -0.54,-2.09 -1.02,-1.91 1.28,-0.88 -0.47,-1.22 -0.72,-0.17 -0.8,-0.39 -0.07,-2.04 -0.84,-0.24 0.61,-2.53 -2.47,-1.74 3,-2.14 0.24,-5.59 3.25,-0.51 0.72,0.06 0.86,1.48 0.91,3.11 4.65,3.61 0.4,0.17 1.1,-0.02 1.76,2.47 0.45,6.48 z m -21.62,8.64 0.16,-1.11 1.18,-0.85 1.38,2.66 -1.02,1.23 -1.7,-1.93 z m 26.14,-59.94 -2.04,-0.6 -0.6,-1.28 0.67,-1.6 2.49,-0.05 4.37,1.17 -0.04,-1.33 -4.05,-0.26 2.89,-3.67 1.05,-4.22 -0.95,-1.05 -3.32,-0.48 0.83,-3.94 -3.23,-1.76 0.83,-1.72 1.36,1.52 0.88,-0.41 1.29,-1.16 -0.77,-0.9 -2.34,-0.8 -2.85,0.54 -0.91,-0.86 4.07,-2.93 2.19,0.49 0.28,-2.98 -1.89,0.13 0.12,-1.4 -0.89,-0.9 3.39,-0.6 -0.48,-1.57 -1.83,-0.22 1.91,-2.22 -1.06,-2.73 -1.22,0.86 -2.14,-0.12 -1.59,-1.04 -2.3,0.58 -1.75,-1.37 -1.06,-1.78 0.9,0.32 -0.01,-0.99 1.27,-0.37 0.99,0.35 0.43,-0.28 -0.43,-1.17 1.42,0.3 0.09,-0.61 -1.97,-1.39 -1.23,-1.95 -2.8,-0.67 1.07,-2.7 -0.65,-0.65 -1.84,0.06 0.33,-1.56 -3.26,-1.4 -0.85,-3.59 -2.01,-0.87 0.82,-1.87 -1.25,-0.92 0.27,-0.87 -2.72,-1.17 -1.93,-2.22 -0.19,-1.25 0.88,-1.01 0.22,1.52 1.31,1.15 1.1,-1.02 2.77,-0.53 0.17,-1.33 -1.66,-1.88 0.06,-0.74 3.24,-0.69 0.47,-0.69 -0.63,-0.6 -2.22,0 -3.76,2.42 -1.44,-1.89 0.76,-2.41 -0.8,-1.74 0.39,-1.92 -5.7,0.46 1.96,-3.83 -0.88,-2.37 -1.92,-1.57 -1.08,-2.93 -0.64,-4.71 2,0.51 0.34,-0.43 -1.24,-3.27 0.06,-4.88 -2.81,-2.25 -4.18,-2.02 -3.84,0.9 1.3,-2.44 3.11,-1.21 -2.58,-1.2 -0.71,-3.02 -1.22,-1.4 -1.59,-0.6 1.81,-1.93 -0.2,-1.04 -4.34,-1.21 -0.29,-1.56 -2.72,-2.48 -3.09,1.56 -2.31,-0.56 -2.59,-3.22 -1.39,-2.82 -1.3,-0.66 1.83,-1.42 0.6,-1.83 -1.04,-0.27 0.16,-0.54 1.16,-0.16 0.48,-0.82 -0.43,-0.95 1.14,-3.4 2.46,-4.32 -0.66,-1.37 0.23,-1.47 0.39,0.62 0.36,-0.35 -0.08,-1.42 -3.76,-2.7 -0.45,-0.46 -1.07,-1.8 -5.18,-2.11 -0.77,-0.19 -0.67,1.21 -0.79,2.58 -1.96,1.28 -0.93,-0.39 -1.35,-3.99 -0.28,-0.01 -0.92,1.61 -1.02,0.47 -3.93,-1.37 -2.31,0.02 -0.26,-1.19 -3.010005,-1.05 -1.85,-5.96 -0.3,-0.44 -2.12,-6.49 -0.63,-0.96 -5.17,-0.55 -0.81,-0.2 -0.78,-0.41 -1.65,0.82 0.18,-1.08 -0.1,-0.05 -0.92,0.28 -0.22,0.18 0.19,1.13 -0.12,0.14 -3.04,1.22 -0.22,-0.01 0.66,-1.33 -0.16,-0.17 -1.28,0.51 -0.41,-0.07 -7.11,-2.46 -2.94,-3.01 -2.15,-4.1 -0.08,1.26 -1.38,-0.29 -0.58,2.4 -1.08,1.09 1,4.81 -1.45,0.56 0.49,1.89 2.4,-0.1 -0.3,3.07 1.43,0.65 -1.34,0.71 1.14,0.61 0.35,1.22 -0.13,2.13 -0.99,1.96 2.96,-1.39 1.15,2.39 -2.75,0.01 -0.62,0.66 0.69,4.31 -0.87,0.63 -0.13,1.71 -2.76,0.01 0.16,1.43 -1.1,-0.08 -0.63,1.09 -1.73,0.52 -0.78,1.62 -2.74,0.64 -1.07,-1.4 -1.33,1.14 -1.18,-0.64 -1.43,1.12 -0.04,0.55 1.06,0.37 0.07,1.66 1.32,1.79 -1.41,0.47 0.51,1.17 -0.96,0.47 -0.15,0.83 -1.97,0.39 1.83,1.91 -1.37,5.15 0.9,4.79 -1.14,2.61 2.88,0.56 -0.19,2.21 -0.89,1.43 1.7,-0.28 0.3,0.55 4,-1.01 -0.58,1.5 0.91,0.92 1.01,3.22 2.35,1.39 1.04,2.18 3,0.93 1.46,2.8 1.13,0.27 0.44,-0.81 1.02,0.64 -0.02,-1.22 0.86,-0.6 1.79,0.28 0.11,1.8 -1.05,1.25 0.24,2.39 -1.22,0.56 -1.19,-0.7 -0.74,2.42 0.25,1.33 -0.67,1.66 0.88,2.82 -2.69,1.57 1.17,3.7 -0.57,0.32 -1.22,-1.03 -0.39,1.8 -1.23,-0.97 -1.15,1.23 2.47,2.72 -0.31,1.72 2.51,1.55 1.98,-0.21 1.45,2.13 1.22,0.29 1.63,-0.1 -0.57,-2.72 0.09,-0.65 0.83,-0.12 1.22,0.64 0.64,0.69 1.41,1.35 5.69,-0.55 0.53,2.2 0.9,-0.44 2.16,1.02 2.61,-1.98 1.41,0.98 -0.67,0.55 -0.53,2.6 -1.24,-1.1 -0.67,0.23 -0.7,1.43 -1.51,0.67 -0.61,3.1 -0.81,-0.09 -0.17,1.36 -1.2,0.46 -0.99,1.57 -2.61,1.09 -0.29,2.68 1.2,2.98 -0.55,3.55 -2.5,0.19 1.99,1.3 0.07,2.11 -0.68,1.38 3.18,0.47 0.14,2.4 1.58,0.82 -0.98,1.49 0.56,2.68 2.18,0.96 1.26,-0.96 2.02,3.53 -0.85,4.88 -1.83,0.78 -1.71,2.14 -0.11,2.81 3.73,4.72 -1.13,3.12 -1.44,1.44 0.43,2.67 1.68,-0.37 0.7,0.62 -1.98,2.56 0.06,2.94 1.99,1.25 1.66,6 1.85,1.96 -0.78,2.38 0.99,1.81 -2.57,2.13 2.12,2.14 -1.2,1.25 0.64,0.99 -0.52,3.86 1.52,0.27 2.28,2.81 -2.47,0.03 -0.27,1.06 2.19,1.42 -0.32,1.54 1.75,-0.33 0.82,3.13 2.680005,2.82 0.29,0.53 -0.940005,2.21 0.44,1.87 0.420005,0.39 1.77,-1.26 0.65,0.64 -0.13,1.03 -4.920005,4.92 0.68,3.15 2.820005,0.98 -1.630005,0.06 2.110005,3.66 0.03,0.52 0.63,7.41 -0.57,-0.76 -0.7,2.07 -0.36,2.13 1.91,3.36 0.3,5.07 -0.36,0.84 5.12,1.94 1.39,-0.94 0.95,-3.5 0.64,-3.76 1.5,-3.59 -5.3,-0.48 -1.34,-3.25 0.6,-2.32 2.39,-2.21 -1.56,-4.53 0.67,-1.52 1.82,-0.82 -1.84,2.41 0.88,1.06 2.32,0.31 1.69,2.23 3.77,-5.53 -0.81,-1.7 -1.98,-1.34 -0.89,-2.91 -0.25,-1.17 0.88,-0.52 -0.54,-1.42 3.22,-1.44 -1.8,-3.89 1.82,-1.69 -0.53,-1.41 0.49,-1.62 0.51,-2.43 1.33,-1.2 -0.99,1.59 -0.36,4.36 5.39,0.39 0.22,-1.27 -1.06,-2.08 1.59,1.48 -0.37,2.22 1.59,1.8 0.24,-1.48 1.18,-0.78 0.24,-1.09 1.04,-1.45 -1.53,-0.61 1.03,-0.87 0.19,-0.21 0.84,-0.68 1.23,0.13 0.23,0.63 0.83,-0.72 2.63,1.12 1.38,-2.12 -0.75,-1.03 -1.22,-1.54 0.99,-1.57 -1.98,-1.45 0.44,-1.15 -1.67,-0.28 -0.03,-2.32 -1.72,0.2 0.34,-1.93 -1.01,-2.74 1.17,-3.89 -1.41,0.45 -0.91,-1.26 -8.17,1.09 0.16,-1.48 2.47,-0.84 -1.6,-1.24 5.5,-2.77 0.05,1.38 2.22,1.02 -0.86,1.45 0.2,0.89 0.93,-0.6 2.94,0.88 0.61,-0.93 2.36,-0.07 0,-1.71 -1.09,-2.47 0,-0.28 1.43,-2.83 -3.02,-3.72 -0.62,-2.42 1.85,-1.09 0.63,-2.07 0.34,-0.44 0.27,0.37 0.76,2.04 -1.02,2.93 4.18,-3.45 -0.01,-2.22 1.63,0.26 1.21,-0.67 3.2,2.23 0.55,1.26 0.31,0.45 0.31,0.28 3.9,5.93 2.09,8.07 1.69,-3.72 2.07,-0.94 -0.4,-1.68 0.52,-2.08 1.89,0.63 0.32,0.06 2.17,-2.31 0.83,0.36 -1.17,1.46 0.32,0.44 2.76,-0.85 3.76,2.19 1.49,1.21 1.53,0.63 0.13,1.24 1.37,1.52 3.64,0.11 3.71,4.87 0.09,1.23 3.04,-1.83 2.19,-0.45 0.81,-1.19 -1.07,-1.17 -2.3,0.27 z m -46.29,-15.2 -1.74,4.36 -0.71,-0.98 -0.59,-2.1 1.74,-0.77 0.59,-2.11 0.71,1.6 z m 22.8,80.46 3.7,2.95 -0.16,2.09 -2.78,1.74 -1.64,0.04 -0.54,-0.58 -0.92,0.28 -2.49,-0.78 0.83,-2.18 -0.37,-1.54 -5.58,-5.3 0.22,-0.56 -0.93,-1.61 2.55,-5.99 1.24,-1.06 1.8,-0.14 1.45,0.29 2.27,3.39 -1.92,2.77 0.05,2.06 3.22,4.13 z m 20.17,-62.01 -3.75,-4.62 -3.53,-0.3 -1.94,-2.74 -2.44,-1.89 -3.55,-2.08 -2.76,1.03 -0.6,-0.96 -1.37,0.97 -1.87,-0.26 -0.32,1.07 0.25,2.17 -2.17,1.18 -2.33,4.24 2.64,5.2 1.13,5.68 -0.58,2.96 -3.34,4.79 0.52,2.27 -0.86,2.71 -1.22,1.09 -1.95,0.45 -0.21,0.76 4.95,7.55 -1,4.09 -2.06,3.45 -2.38,9.2 1.86,1.96 0.73,0 0.68,-1.03 0.49,0.22 3.54,0.15 0.27,0.34 2.68,4.27 1.08,-0.49 0.76,-1.44 0.88,-3.38 -0.93,-3.18 2.13,-4.56 -1.87,-0.85 -0.65,-1.06 0.86,-1.52 0.52,-0.02 1.7,-0.83 0.22,-2.95 0.12,-2.44 -1.76,-4.78 -0.24,-2.21 0.49,0.26 1.38,-0.73 0.68,0.98 -0.42,0.92 -1.53,0.11 0.23,1.31 1.63,3.67 2.78,-0.52 1.41,0.52 1.19,2.02 0.36,2.01 2.46,2.15 0.53,-0.27 1.32,0.93 2.28,0.2 2.94,-3.31 0.75,-2.66 -0.75,-6.66 -1.43,-1.98 -1.92,-0.98 -0.49,-1.9 1.31,-5.52 3.72,-7.09 0.03,-1.68 -2.08,-3.22 0.8,-2.77 z m -43.43,13.05 1.13,-1.75 -0.21,-2.05 3.24,3.38 2,4.16 -1.6,1.93 -0.97,0.25 -2.85,1.45 -0.4,-0.81 1.58,-3.33 -0.63,-1.47 -1.29,-1.76 z m -10.39,9.53 1.04,2.6 -3.88,3.91 -0.75,1.37 0.13,2.21 -1.02,1.07 -3.46,0.46 -0.93,-2.76 1.83,-0.67 -1.26,-1.22 3.01,-1.51 -1.77,-3.89 1.88,-1.77 5.18,0.2 z m -2.31,9.85 0.22,0.43 -1.51,2.27 3.33,-0.84 0.82,1 -0.03,1.31 -0.26,0.32 -1.49,1.06 3.3,6.72 2.19,2.27 -0.6,-5.75 4.1,-6.05 -3.43,-2.36 -0.03,-1.94 -1.26,0.8 -0.82,-0.47 0.74,-2.32 -0.18,-2.87 -0.67,-0.33 -3.33,3.23 -1.09,3.52 z m 20.21,8.71 -1.42,-1.91 3.51,-2.68 0.42,0.62 -0.45,1.43 -2.06,2.54 z m 8.9,27.19 1.89,3.85 -1.7,0.75 -1.94,-0.13 -1.34,-1.02 -1.99,-4.49 0.46,-0.5 0.96,0.73 -0.44,-1.97 0.53,-0.59 -1.81,-3.05 0.98,-2.82 5.94,4.98 -0.14,2.38 -1.3,1.05 -0.1,0.83 z m -7.06,-19.2 -0.14,1.63 0.05,0.41 -0.62,2.12 -4.92,-0.14 0.88,-1.53 -0.15,-1.48 -2.1,-1.01 -1.47,-2.02 1.61,-2.08 -0.68,-6.13 0.89,-0.93 2.19,1.57 0.61,0.15 3.13,7.79 0.14,0.28 0.58,1.37 z m -15.14,11.79 -1.27,1.65 -0.13,2.93 -2.09,-4.25 -0.33,-2.18 5.22,-3.27 -1.4,5.12 z m 9.93,0.31 -0.24,-1.48 -2.68,-0.26 -0.33,-0.41 2.39,0.05 0.73,-0.58 0.34,-3.26 1.19,-1.34 -2.28,-0.49 -0.18,-0.86 1.11,-1.83 -2.59,-1.43 -1.15,-2.06 0.66,-1.6 0.81,-0.57 -0.7,-5.78 2.13,-2.57 0.1,-0.14 3.31,-1.45 -2.5,-3.1 0.39,-2.32 -2.42,-1.98 -2.37,0.9 -0.34,2.76 -2.29,0.98 0.7,3.69 -3.62,5.51 1.02,6.7 1.58,3.28 0.23,4.58 -3.23,7.43 0.68,0.9 0.47,4.88 1.38,1.65 2.19,1.16 1.94,-0.72 0.6,-1.48 1.77,-1.31 0.22,-1.38 0.7,0.45 1.93,-2.77 -0.15,-1.77 -1.5,-1.98 z" 
                fill="rgb(151, 144, 238)" 
                stroke="white" 
                stroke-width=".7px"
                title="Khulna" 
                id="BD-D" 
            />
        </svg>