<svg xmlns="http://www.w3.org/2000/svg" viewBox="0.35232509999990125 141.86627999999985 169.47000490000002 150.97000000000014" width="169.47000490000002" height="150.97000000000014">
            <path 
                d="m 154.26233,165.58628 1.08,5.15 0,0 0.2,0.59 0,0 1.35,2.7 0,0 -0.03,1.08 0,0 -0.47,2.36 1.13,1.75 0,0 -0.17,0.14 0,0 -0.45,0.01 0,0 -0.6,0.37 0,0 -1.09,0.74 0,0 0.04,0.58 0,0 2.09,5.53 2.03,2.06 2.5,1.3 1.06,-0.13 0,0 0.26,0.58 0,0 -1.48,0.2 -0.84,1.11 0,0 -0.15,0.77 0,0 1.29,1 0,0 0.28,0.12 0,0 0.6,-1.11 1.48,1.21 1.2,-1.05 0.95,0.88 0.1,2.13 0.62,0.42 0,0 0.23,0.35 0,0 -0.37,0.98 0,0 -0.99,0.61 0,0 1.65,1.82 0,1.38 0,0 0.49,0.41 0,0 -0.01,1.17 -1.18,0.79 0.04,4.1 -1.94,0.89 0,0 -0.03,0.64 0,0 1.4,4.44 0,0 -0.24,0.43 0,0 -0.66,0.39 0,0 -0.24,0.3 0,0 0,0.91 0,0 -0.13,0.29 0,0 -2.18,1.04 -0.07,1.67 0,0 -0.21,0.17 0,0 -0.41,-0.2 0,0 -0.55,0.32 0.4,0.59 0,0 0.81,0.25 0,0 0.36,0.14 0,0 0.45,1.26 -0.91,1.87 0,0 0.15,0.28 0,0 0.67,-0.27 0,0 0.1,0.19 0,0 -1.46,1.13 -0.06,1.18 -1.61,0.97 0,0 0.64,1 0,0 0.77,3.12 0,0 0.55,0.23 0,0 1.22,-0.28 0.71,3.46 -1.62,2.72 1.9,1.86 0,0 0.2,0.48 0,0 0.04,1.76 1.15,1.91 0,0 0.15,0.59 0,0 -0.56,4 0,0 0.05,0.78 0,0 1.43,6.54 0,0 -0.14,0.16 0,0 -1.18,0.27 0,0 -0.34,0.45 0,0 0.41,0.7 0,0 0.3,0.23 0,0 1.58,-0.23 0.41,1.29 1.14,0.7 -0.31,2.89 0.58,3.51 -0.85,1.65 -3.98,3.25 0,0 -0.38,0.04 0,0 -0.96,-0.22 0,0 -0.61,0.11 0,0 -4.28,3.31 -0.8,6.52 0,0 0.16,0.3 0,0 0.73,-0.01 0,0 0.41,0.61 0,0 0.14,1.97 0,0 0.14,0.35 0,0 -0.68,2.96 0,0 0.15,0.16 0,0 0.68,-1.34 2.74,4.94 0,0 -0.98,0.54 0,0 -1.15,0.29 -1.06,1.5 0,0 -1.21,-0.07 0,0 -1.28,0.46 0,0 -0.98,0.08 0,0 -4.14,-0.24 0,0 -0.34,0.32 0,0 -2.64,-0.19 -1.25,0.79 0,0 -0.51,0.05 0,0 -1.28,-0.11 0,0 -0.65,-0.88 0,0 -2.98,-0.16 0,0 -1.34,-0.77 0,0 -11.87,-9.23 0,0 -1.07,0.28 0,0 -3.76,-2.7 0,0 -0.45,-0.46 0,0 -1.07,-1.8 -5.18,-2.11 0,0 -0.77,-0.19 -0.67,1.21 0,0 -0.79,2.58 -1.96,1.28 0,0 -0.93,-0.39 0,0 -1.35,-3.99 0,0 -0.28,-0.01 0,0 -0.92,1.61 -1.02,0.47 -3.93,-1.37 -2.31,0.02 0,0 -0.26,-1.19 0,0 -3.010005,-1.05 -1.85,-5.96 0,0 -0.3,-0.44 0,0 -2.12,-6.49 0,0 -0.63,-0.96 0,0 -5.17,-0.55 0,0 -0.81,-0.2 0,0 -0.78,-0.41 -1.65,0.82 0.18,-1.08 0,0 -0.1,-0.05 0,0 -0.92,0.28 0,0 -0.22,0.18 0,0 0.19,1.13 0,0 -0.12,0.14 0,0 -3.04,1.22 0,0 -0.22,-0.01 0,0 0.66,-1.33 0,0 -0.16,-0.17 0,0 -1.28,0.51 0,0 -0.41,-0.07 0,0 -7.11,-2.46 -2.94,-3.01 -2.15,-4.07 0.44,-5.94 -1.39,-3 -1.59,-1.23 -3.03,-0.64 -4.1,0.93 -0.39,-0.9 -1.66,-0.18 -0.36,0.59 -1.41,-0.45 -0.26,-1.09 -1.55,-0.16 -1.38,3.17 -2.46,-4.88 -2.02,-0.05 -5.51,-3.31 -2.01,-0.51 -3.28,1.01 -2.35,-0.08 -3.16,-1.05 -5.42,-5.68 -7.05,-2.24 -2.27,-3.05 -2.62,-1.57 -4.1299999,-4.43 -5.4,-9.07 -3.38,-3.09 5.08,-5.61 0.85,-2.03 -0.61,-0.88 0.7,-0.98 -0.4,-1.03 0.97,-0.14 0.83,-1.21 1.51,0.32 0.14,-2.57 1.4099999,-1.76 1.18,-1.04 1.18,-1.9 1.56,-0.6 -0.19,-1.22 0.03,-1.18 -0.71,-0.73 1.46,-0.37 -2.81,-2.79 -0.08,-1.93 1.41,0.28 2.38,-2.11 4.49,-0.57 3.34,4.23 1.3,2.32 0.19,0.87 1.97,0.23 0.37,1.51 1.73,-1.14 2.36,-1.09 -2.02,-1.9 0.92,-0.73 0.52,-2.18 2.03,-1.28 1.97,1.4 1.6,-0.81 -0.74,-1.66 0.37,-0.74 1.86,-0.5 -0.36,-2.01 1.01,-1.37 1.14,0.04 1.62,-3 -1.62,-1.5 1.53,-2.99 -0.94,-4.83 1.86,-1.62 -0.4,-2.34 -1.28,-1.24 0.1,-2 2.41,-0.16 0.58,-1.59 2.06,0.17 0.11,0.65 3.36,0.48 -0.1,1.06 2.21,-0.36 -0.06,1.51 0.67,0.17 1.33,-0.18 1.07,-1.5 2.4,-1.25 5,0.56 1.1,-0.97 2.54,0.05 2.17,0.93 0.27,1.27 1.57,1.08 1.96,-1.36 0.45,1.1 2.44,0.83 1.02,-0.34 1.58,-3.15 1.25,-0.51 0.79,1.06 1.17,-0.03 1.04,2.08 1.94,-0.36 1.42,0.51 0.16,0.98 0.81,0.3 0.63,-1.84 1.65,0.1 -0.14,-1.72 -0.96,-0.19 -0.08,-1.6 1.32,0.49 0.94,-0.64 -0.72,-2.24 0.35,-1.54 2.25,-1.6 0,0 3.31,3.06 7.190005,0 0.9,1.48 5.84,0.99 4.5,-0.49 0,1.48 -1.35,1.98 0.45,1.98 1.35,2.96 3.15,1.98 1.35,3.46 2.7,0.99 2.7,-1.48 2.7,0 3.15,3.95 2.25,1.48 0.9,0 0.9,-1.48 2.7,0 8.09,4.44 1.8,0 4.05,-2.47 4.51,-0.59 z" 
                fill="rgb(151, 144, 238)" 
                stroke="white" 
                stroke-width=".7px"
                title="Rajshahi" 
                id="BD-E" 
            />
        </svg>