<svg xmlns="http://www.w3.org/2000/svg" viewBox="7.642325099999965 0.5562811999999417 168.85000490000004 167.97999880000003" width="168.85000490000004" height="167.97999880000003">
            <path 
                d="m 154.26233,165.58628 -4.58,0.48 -4.04,2.47 -1.8,0 -8.09,-4.44 -2.7,0 -0.9,1.48 -0.9,0 -2.24,-1.48 -3.15,-3.95 -2.7,0 -2.69,1.48 -2.7,-0.98 -1.35,-3.46 -3.14,-1.97 -1.35,-2.97 -0.45,-1.97 1.35,-1.98 0,-1.48 -4.5,0.49 -5.84,-0.99 -0.9,-1.48 -7.190005,0 -3.31,-3.05 0,0 0.76,-0.8 1.87,0.44 0.37,-2.09 -2.03,-0.01 -0.59,-1.05 -0.66,0.39 -1.85,-0.59 -1.07,0.62 -0.73,-0.96 -1.07,0.78 -1.79,-3.3 -1.43,0.24 -0.24,1.11 -1.54,-1.63 -0.05,-1.01 -2.63,-1.48 0.13,-3.05 -2.64,-1.67 1.33,-0.51 0.56,-1.23 -0.78,-1.63 1.26,-1.29 -0.29,-1.67 -0.67,-1.64 -1.63,-0.17 -0.39,-3.37 -1.21,-0.19 -1.42,0.92 -1.82,-0.9 -0.01,1.34 0.94,0.95 -0.34,0.71 -2.45,0.65 -0.39,-1.67 -2.6,0.53 -0.09,1.83 -1.05,0.97 -3.17,-0.08 -0.5,-0.93 -0.93,0.28 -0.17,-1.85 -2.2,-0.04 -1.41,-1.84 -1.07,0.95 -1.87,-0.16 -2.32,-1.26 -0.98,1.14 -0.19,-2.5 -0.67,-0.95 -0.98,0.72 -1.2,-0.95 -1.29,-1.6 0.32,-2.43 -2.58,0.02 -1.32,-1.57 -1.13,-0.07 0.38,-2.44 0.72,-0.75 -0.13,-3.38 -4.65,-0.91 -0.06,-1.359999 -1.1,0.07 -0.24,-0.97 -1.61,-0.38 0.33,-1.83 -1.61,-0.55 -0.13,-0.81 -3.18,-0.97 -0.64,-1.62 -4.45,-3.02 0.37,-1.75 -0.54,-1.17 -0.64,-0.39 -1.06,0.13 -0.4,0.74 -0.8,-0.34 -0.48,1.24 -1.4,-0.28 -0.97,1.25 -1.29,-1.37 -0.8,-0.01 -1.07,1.48 -0.95,-0.22 -1.21,1.33 -0.72,-0.52 -0.24,-1.56 -2.28,-0.29 0.29,-1.4 -0.8599999,-0.32 -0.61,-1.3 0.66,-1.08 -0.76,-0.72 1.1099999,-0.96 -1.1299999,-3.31 0.47,-0.54 -1.47,-0.42 -0.15,-0.87 -0.25,-1.78 0.69,-1.25 1.66,-0.46 0.4599999,-2.37 0.97,-0.86 -0.35,-1.07 2.04,-2.43 -0.26,-1.15 4.04,-1.27 -1.31,-0.91 0.48,-0.62 0.29,-0.81 -0.24,-1.06 0.76,-0.36 -0.07,-0.87 -1.73,-1.54 -0.57,-1.15 1.82,-3 -0.45,-0.26 0.4,-2.04 1.59,-0.54 0.99,-0.75 2.01,-0.96 0.88,-0.81 -0.32,-0.76 1.35,-0.71 0.41,0.54 2.06,-0.26 1.64,-1.49 0.64,0.53 1.85,-0.56 1.21,-1.34 1.81,-0.61 0.77,-2.1 -0.83,-0.48 -0.01,-3.82 3.53,-3.34 2.5,-0.24 -0.86,-1.5 0.74,-0.65 2.18,-0.04 1.86,-3.81 0.39,1.45 2.34,1.1 0.3,-1.11 1.74,-0.05 -0.28,1.29 1.78,-1.24 -0.8,-0.39 -0.02,-0.93 0.43,-1.6 -0.65,0.11 -0.68,-1.22 0.4,-0.76 -1.34,-0.26 -0.2,-0.83 0.38,-0.98 -0.02,-0.89 -1.75,-1.89 0.35,-0.9 -4.28,-0.47 -1.44,0.05 -1.66,-2.11 -1.24,0.66 -2.21,-0.83 -1.1,4.3 -0.63,-2.14 -1.39,-1.28 0.02,-1.56 1.69,-1.92 0.82,-3.7299998 1.11,-1.33 -0.28,-1.46 0.69,-1.97 1.19,-0.99 -0.14,-0.82 2.25,-2.45 1,6.85 1.12,2.28 1.39,1.1399998 1.12,-1.1799998 2.24,0.6099998 0.73,2.84 2.89,0.83 0.18,2.54 3.22,-0.75 -0.83,1.18 1.03,0.51 -0.57,1.65 3.74,0.77 -0.17,-2.33 2.39,0.08 0.36,3.71 2.35,0.85 -0.34,0.95 1.4,0.15 0.9,1 1.58,-0.38 0.03,0.98 0.15,1.45 -0.7,0.73 1.39,1.8 -0.01,1.94 0.73,1.04 2.89,-2.15 1.31,0.19 1.16,2.02 -0.45,1.46 0.45,1.99 3.5,-1.3 2.12,1.29 -0.55,2.17 0.33,2.09 1.58,0.8 -0.28,0.63 1.29,1.22 3.59,-0.48 -1.6,-1.97 0.01,-2.04 1.89,-1.47 4.36,0.34 2.2,4.2 1.13,0.66 6.32,-0.88 1.67,0.66 0.51,-1.51 0.8,0.3 -0.74,-2.37 0.73,-0.32 -0.41,-1.33 -1.1,-0.27 -0.13,0.94 -1.75,0.21 -0.91,-0.71 -0.73,-1.23 -1.1,1.14 -0.08,-0.89 -1.07,-0.31 0.03,-1.61 0.73,-0.47 0.72,-0.4 -1.42,-0.84 -0.1,-1.61 -2.16,-0.22 -0.43,2.25 -0.52,-1.07 -0.43,-0.63 -0.17,-1.08 -1.56,-0.86 -0.83,0.53 -0.6,-0.77 -0.13,-0.61 -0.25,-0.78 0.84,-0.73 0.1,-1.16 -1.37,-1.1 2.25,-0.17 -0.36,-1.49 0.22,-0.87 1.65,0.75 0.62,-1.08 -0.44,-1.25 1.03,-1.21 2.41,1.34 -0.39,1.07 0.96,1.75 0.55,-0.3 0.58,0.04 0.6,1.06 1.34,-0.08 1.14,1.91 0.84,-0.5 3.110005,0.83 0.97,-0.47 0.83,0.6 -0.53,2.38 -0.93,0.47 1.5,0.44 0.4,2.48 -0.23,0.87 1.63,1.09 2.1,-0.17 -0.12,1.13 -0.25,1.07 -0.94,1.16 -1.68,-2.96 -0.35,1.05 0.57,1.62 -0.61,0.93 2.07,1.61 -0.2,1.36 1.74,1.91 0.04,1.88 0.75,0.9 -1.38,2.96 2.02,2.01 -0.75,0.26 0.55,1.66 1.26,1.38 2.27,0.73 1,-0.51 2.04,0.44 2.55,3.16 1.39,0.06 -1,2.87 1.47,0.32 0.54,1.23 2.03,-0.03 2.22,1.27 2.26,2.75 4.3,0.38 -0.12,-1.38 1.39,-1.06 0.16,-0.94 1.49,-0.64 0.88,1 -0.56,2.12 0.52,0.72 3.73,1.23 1.43,-1 1.38,0.63 1.22,-0.83 1.97,0.3 1.06,0.57 -1.17,1.11 0.23,1.94 1.34,0.61 1.07,-1.41 0.81,-0.12 1.19,0.39 0.1,-1.91 -0.76,-0.95 0.46,-2.18 0.14,-1.27 0.56,-0.81 1.94,-0.9 1.38,-0.89 1.99,-0.21 -1.46,-1.52 0.59,-1.25 -1.01,-1.73 -0.68,0.72 -0.5,0.54 -0.8,0.69 -1.39,-1.32 0.13,-0.68 0.31,-0.57 1.64,0.67 1.32,-1.29 -0.42,-0.93 -1.26,0.1 -0.64,1.07 -1.27,-4.19 0.47,-0.37 1.3,0.74 -0.08,-0.8 0.12,-0.99 0.52,-0.77 0.49,0.69 0.85,-0.04 1.69,0.74 0.68,-1.49 -1.66,0.02 -1.08,-0.77 0.4,-0.88 1.24,1.08 0.53,-0.59 -1.54,-2.1 0.1,-1.82 1.83,0.96 1.51,-0.02 0.83,-1.77 0.67,0.94 0.3,0.61 0.13,1.09 -1.34,0.26 -0.3,0.67 1.02,0.37 0.24,1.7 1.44,1.01 -1.62,0.39 -0.31,0.78 2.49,0.78 0.67,-1.52 0.41,1.3 2.64,-0.06 1.85,2.92 -1.08,1.91 2.62,0.39 -0.11,2.29 1.18,-0.07 -0.29,0.94 0.76,1.78 -1.42,0.34 0.36,0.86 -0.19,0.67 0.53,0.6 0.78,-0.57 0.84,-0.27 1.22,3.41 -0.79,1.74 0.5,0.77 1.57,0.4 -0.51,-1.71 0.49,-1.34 0.92,0.78 0.35,1.59 2.09,1.19 -0.31,0.69 -2.87,0.57 0.94,1.81 -1.7,-0.51 -0.48,0.81 1.67,0.79 2.93,-0.74 1.22,0.3 -0.83,2.16 -4.07,5.12 0.16,1.42 -0.87,0.3 0.04,1.63 -1.53,2.13 1.45,0.99 1.27,4.06 -1.11,4.47 0.57,1.35 1.67,0.5 -0.26,2.04 2.08,3.249999 1.09,3.61 -1.4,6.32 0.21,1.84 -1.52,0.75 0.59,2.54 -0.84,2.25 0.14,2.68 -2.51,5.06 -5.36,-1.65 0,0 0.06,0.14 0,0 0.36,1.3 0.9,0.58 -0.28,2.16 0,0 -1.63,0.89 0,0 -1.12,-0.04 0,0 -0.25,0.11 0,0 -2.44,2.46 2.96,7.28 -0.63,2.52 0,0 0,0.32 0,0 0.59,1.46 -0.96,1.22 0,0 -0.21,0.08 0,0 -3.83,0.37 -2.45,4.47 -0.04,1.63 -2.11,2.88 0.15,3.1 0,0 -0.06,0.27 0,0 -1.14,2.05 0.66,1.06 0,0 0.32,0.24 0,0 0.33,-0.16 0,0 0.1,0.16 0,0 0.23,2.51 z" 
                fill="rgb(151, 144, 238)" 
                stroke="white" 
                stroke-width=".7px"
                title="Rangpur" 
                id="BD-F" 
            />
        </svg>