<svg xmlns="http://www.w3.org/2000/svg" viewBox="274.21232999999955 148.74628000000016 147.2500000000005 125.78" width="147.2500000000005" height="125.78">
            <path 
                d="m 307.41233,149.66628 0.94,0.49 -0.25,0.49 2.94,0.36 1.5,1.04 1.65,0.22 0.76,-0.57 0.68,0.87 2.62,0.31 1.55,-0.61 0.97,1.45 1.48,0.71 2.37,-0.11 0.27,1.68 2.67,-0.17 0.94,-0.99 4.33,-0.43 0.76,-0.97 1.15,-0.19 0.1,-1.26 3.48,-0.32 0.14,0.6 -1.46,1.05 0.21,1.45 1.9,0.08 0.23,1.72 1.52,0.58 3.23,-1.6 1.58,-0.09 1.07,-2.03 3.44,0.78 0.83,-2.94 2.72,1.19 4.95,-1.46 3.07,0.47 5.13,-0.95 6.24,1.18 2.36,-1.5 1.55,0.84 4.14,-0.73 6.09,2.75 0.52,0.35 -0.54,1.39 2.64,0.91 1.86,1.52 1.48,-0.66 2.72,0.9 -1.88,0.32 1.99,2 7.63,2.54 1.41,-0.97 1.67,0.36 0.82,1.08 -0.88,1.61 2.1,0.1 0.54,0.7 5.39,1.37 -0.87,3.59 0.46,2.42 1.63,0.58 1.37,-0.95 1.24,1.96 -1.4,-0.24 -0.63,0.62 1.55,1.13 0.99,-0.01 0.94,-1.22 0.2,3.29 1.25,1.85 -0.89,0.45 0.46,1.8 -0.78,0.87 -2.01,0.33 -1.98,-0.66 -0.21,1.47 -1.29,0.35 -0.08,0.76 -2.16,0.08 -1.33,-0.41 -0.99,-1.21 -1.3,-0.47 -0.49,-1.03 -0.93,0.13 -1.87,-1.3 -1.49,-0.16 -1.99,-2.61 -1.43,1.57 -1.45,-0.1 -0.93,-0.11 -0.25,-0.73 -0.92,0.38 -0.44,1.13 0.94,1.99 -0.94,0.94 0.33,2.19 1.24,0.83 2.09,1.36 0.5,3.37 0.79,0.6 -0.63,2.05 0.71,0.71 -0.86,1.93 1.24,0.73 -3.33,4.92 -1.11,3.23 -1.42,7.91 -0.46,8.23 -4.9,-2.45 -0.49,-1.07 -1.64,1 0.53,1.22 -0.85,1.23 1.04,3.24 -0.55,0.8 0.86,1.43 -0.35,0.78 0.91,0.85 -0.56,0.9 -2.59,-0.24 -1.45,3.8 -3.25,1.42 -7.39,-0.87 -0.95,-1.03 -1.3,0.67 -1.13,-0.32 -0.89,0.69 3.16,4.35 -0.27,1.85 -1.96,-1.06 -0.04,-1.41 -1.59,-1.11 -3.44,2.1 2.01,6.97 -2.8,9.79 -0.2,3.01 -2.02,0.53 -0.91,-1.1 -0.62,-2.68 -2.83,-2.42 0.77,-0.46 -0.08,-1.2 -0.61,-0.79 -2.53,1.31 -0.74,-1.07 -1.55,-0.16 -4.47,-2.67 1.76,10.59 -2.86,0.1 -2.03,-0.97 -0.68,-1.09 -0.97,0.34 -0.7,-1.03 -1.56,-4.13 -0.07,-2.1 -1.83,1.63 1.14,2.74 -0.35,1.16 -0.97,0.12 0.02,2.01 -0.97,1.64 0.59,2.35 -0.77,1.4 -2.07,0.81 -1.1,-0.39 -0.56,0.39 0.18,1.47 -0.82,0.34 -3.96,0.08 -4.57,-1.28 -0.55,-0.93 -4.35,-0.02 -3.17,-1.34 -3.02,0.16 -0.09,2.89 1.82,3.05 -0.53,2.27 -1.55,2.16 0.36,3.16 -6.72,-2.21 0,0 -0.91,-0.46 0.13,-1.57 1.01,0.12 0.49,-2.41 -0.94,-1.98 -1.47,-0.19 0.32,-3.58 -1.19,0.28 -0.93,-0.7 0.27,-1.33 1.85,-0.67 -1.92,-0.66 0.02,-1.62 -0.85,-0.23 1.34,-1.97 0.33,-1.82 2.3,-1.1 1.03,0.34 -0.17,-1.59 -2.85,0.9 -0.67,-0.62 0.76,-1.76 1.12,0.58 0.2,-1.21 0.82,0.33 0.93,-1.05 0.79,0.03 -0.03,-3.04 -1.28,-0.65 -1.03,0.47 -1.25,1.7 -0.34,1.63 0.46,0.55 -1.09,0.21 -7.35,-1.4 -1.99,-2.57 0,0 1.89,-2.66 -0.7,-0.35 -2.82,1.03 1.22,-3.74 5.91,0.28 0.16,-1.49 -2.13,-3.1 0.36,-0.86 1.29,0.25 2.15,-1.46 -1.62,-2.78 -0.98,0.21 -0.82,-0.63 -0.18,-1.35 2.07,0.06 0.29,-0.84 -1.34,-4.78 -1.43,-0.08 0.81,1.34 -1.63,-0.63 -1.64,2.25 -0.17,-1.51 1.02,-0.53 -2.49,-0.68 -1.02,0.78 -0.64,-0.32 2,-2.43 0.76,1.43 0.68,-0.62 2.49,-2.98 1.89,-4.58 -3.36,-1.78 0.64,-0.91 -0.3,-1.24 -2.16,-0.86 -0.23,-1.48 1.78,0.9 -0.01,-0.86 0.89,0.02 0.19,-1.69 1.42,-0.02 0.81,-0.89 -1.01,-1.5 1.78,-0.31 0.06,-1.57 -1.85,-0.81 0.84,-0.99 -0.46,-1.61 -1.53,1.55 -2.47,-1.57 -1.7,0.86 -0.35,-0.74 -1.62,-0.02 1.03,-0.77 -0.41,-1.36 0.69,0.36 0.38,-0.74 -0.68,0.05 0.02,-0.73 -1.2,-0.14 -0.18,-0.6 0.92,-0.61 1.37,0.29 -0.12,-0.93 1.3,-0.93 -1.39,-0.84 1.4,-2.27 -0.17,-1.88 -1.54,-0.91 -1.01,1.4 0.3,0.81 -1.33,1.05 1.25,1.5 -1.49,0.22 -1.51,-2.35 0.59,-2 0.83,-0.64 -0.41,-0.81 -0.97,-0.04 -1.16,-3.82 -2.12,-1.64 -3.47,-0.54 -1.25,2.26 -0.9,-0.22 -0.44,-1.07 -1.3,0.39 -1.08,-2.19 -3.37,-0.08 -0.1,-2.55 -0.64,0.05 1.96,-0.87 0.37,-1.25 -1.05,-1.44 -1.57,-0.39 0.33,-3 -1.24,-1.68 0.52,-0.86 2.35,-0.99 -2.93,-0.86 -0.2,-3.37 1.39,-0.33 1.18,1.06 1.5,-0.48 -0.26,-1.86 -1.96,-1.81 0.59,-1.13 -0.25,-2.88 1.64,-0.72 -0.52,-1.45 0,0 10.68,-2.95 4.64,0.43 6.7,-0.66 4.5,0.53 2.08,-1 z" 
                fill="rgb(151, 144, 238)" 
                stroke="white" 
                stroke-width=".7px"
                title="Sylhet" 
                id="BD-G" 
            />
        </svg>