<svg xmlns="http://www.w3.org/2000/svg" viewBox="0.262894999999973 385.1315 189.27998500000004 163.4199999999998" width="189.27998500000004" height="163.4199999999998">
            <path 
                d="m 47.112885,391.2815 4.42,0.43 8.01,-3.9 2.7,-0.38 5.97,-2.3 1,0.2 0.48,0.9 -0.65,3.93 0.52,1.28 8.21,5.93 1.95,4.2 2.07,13.7 2,2.3 0.33,2.65 2.93,3.85 3.6,2.6 4.37,-2.35 5.960005,1.52 1.9,-2.82 2.5,-0.5 6.13,-3.05 4.52,-0.92 4.1,-3.6 2.23,1.57 1.27,1.6 -0.25,2.08 -6.82,6.34 -1.08,2.43 6.08,6.55 2.1,4.2 0.22,11.44 2.08,2.57 -0.47,5.42 0.45,0.55 4.9,4.27 6.38,2.15 3.66999,4.67 1.25,0.68 3.30001,-0.21 2.91,1.2 3.44999,-0.8 4.85,-3.19 3.03,-7.02 2.4,-0.23 3.12,0.66 0.53,0.67 -0.22999,3.75 1.19999,2.14 4.2,5.32 5.43,2.4 1.08001,1.97 5.75,4.02 0.94999,3.95 3.75,4.12 0.83001,1.87 0,0 0.34999,4.92 -2.62999,10.98 2.65,5.86 0.47999,4.67 0,0 -9.21,4.49 -14.33,4.99 -16.73,7.85 -6.08,2.02 -2.82,-0.3 -1.75,-1.62 -0.63,-2.07 -0.97,-0.82 -5.11,2.94 -5.66999,1.75 -2.61001,-5.54 0.53,-3.34 -1.94999,-4.89 -0.05,-1.62 -3.88,-0.48 -2.44999,0.93 0.28,1.27 -3.73,5.41 1.75,2.35 1.3,8.25 -0.27,1.55 -2.63,-0.77 -1.6,0.82 -8.43,-0.6 -5.420005,-2.89 -6.43,4.39 -1.83,0.57 -2.8,0.3 -3.25,-1.92 -1.15,0.1 -1.08,1.5 -21.13,0.12 -3.23,4.39 -1.87,0.9 -1.43,-0.6 -3.95,-4.47 -2.03,-1.32 -6.6,1.77 -16.43,-2.32 0,0 0.7,-0.44 -1.3,-4.42 0.21,-1.03 1.41,-1.2 -2.24,-8.72 -1.62,-1.61 -6.63,-1.32 -4.17,-3.58 -0.43,-1.12 2.32,-2.14 -0.43,-0.89 2.61,-5.08 0.01,-1.67 2.15,-1.17 0.22,-5.89 2.4,-3.69 -1.71,-2.82 -1.52,-4.45 2.96,-9.97 -0.6,-17.78 -1.01,-1.88 -0.91,-0.32 -3.19,1.97 -0.81,-0.58 -3.66,0.63 -1.92,-1.46 -2.01,-4.88 -3.16,-3.05 -1.28,-2.63 0.79,-3.58 -0.45,-1.2 4.2,-1.16 2.99,-2.64 2.61,-3.72 2.47,-1.94 14.61,-4.89 2.38,-1.49 5.87,-8.94 -0.62,-2.17 0.39,-2.21 z" 
                fill="rgb(151, 144, 238)" 
                stroke="white" 
                stroke-width=".7px"
                title=" Nana-Mambéré" 
                id="CF-NM" 
            />
        </svg>