<svg xmlns="http://www.w3.org/2000/svg" viewBox="400.0728900000002 112.51150000000001 317.8999999999999 249.12000000000006" width="317.8999999999999" height="249.12000000000006">
            <path 
                d="m 574.92288,142.5015 3.72,5.49 2.08001,-0.2 1.79999,0.71 4.23,-5.27 2.52,-1.15 1.6,0.37 2.23001,-1.48 3.5,-6.07 5.35,-2.68 3.35,0.16 2.46,-1.24 3.62,0.25 4.45,-1.66 3.28,-3 1.5,-3.68 2.4,-1.28 1.5,-2.27 6.58,-3.28 2.08,-3.71 4.12,0.38 1.18,3.46 -0.58,2.69 1.25,4.26 0.38,4.79 1.8,1.21 3.13,-0.65 3.87,0.25 1.95,3.68 5.86,5.06 1.27,4.18 5.1,4.08 1.38,9.4 2.97,3.55 2.2,7.27 4.61,2.24 2.75,4.23 6.05,3.62 1.85,5.76 6.3,3.35 -0.67,3.07 3.65,15.61 1.42,1.41 4.48,2.01 2.05,2.16 6.41,1.86 3.95,-0.02 4.85,1.33 1.22,1.46 -0.2,5.35 0,0 -1.7,2.16 -1.67,0.23 -16.66,-1.51 -3.18,-0.85 -3.6,-2.64 -1.62,-0.25 -7.5,2.38 -1.78,1.94 -1.45,4.65 0.65,3.87 2.6,4.02 0.85,2.81 -0.12,1.73 -3.78,8.77 0.37,1.95 2.93,2.99 -0.48,1.51 -8.15,2.03 -3.47,-0.58 -2.23,-5.52 -4.3,-2.84 -1.55,-3.46 -1.48,-0.38 -7.73,4.45 -4.47,0.6 -1.9,4.37 -5.11,-2.06 -5.5,0.3 -0.5,3.16 -2.62,2.16 -4.63,2.14 -1.38,1.8 2,5.07 4.68,8.43 -29.79,0.08 0.68,8.78 -2.5,4.97 2.15,4.38 0.47,8.63 0,0 -1.95,1.45 -1.35001,5.72 -3.5,2.61 -0.02,2.88 2.27,4.49 -5.48,4.73 -5.85,8.85 -2.87,3.25 -1.08,2.73 -1.95,1.13 -1.03,1.48 -3.2,1.03 -4.15,2.75 -6.55,-2.08 -3.6,0.58 -1.2,1.93 -1.15,5.05 -1.4,3.01 -6.63,5.73 -1.98,0.48 -2.97,-0.33 -2,2.38 -1.91,0.5 -1.7,1.38 -2.05,-0.05 -1.8,-1.93 -1.2,1.33 -2.5,-0.43 -1.9,1.15 -2.98,-1.5 -7.3,0.15 -1.82,-2.45 -4.06,-1.1 -0.67,-1.81 0,0 -0.63,-0.57 -1.22,0.62 -0.78,-0.35 -0.37,-2.37 -2.02999,0.37 -2.4,-1.38 -0.27,-0.95 -3.48,-2.15 -0.2,-1.63 -1.43,-0.52 -1.02,-1.41 -2.53,-0.72 -1.37,-1.13 -2.18,0.07 -0.17,-1 -3.36,-2.93 -0.67,-3.38 0.3,-2.73 -1.38,-1.15 -0.62,-1.76 -0.83,-0.35 -0.72,1.13 -1.43,-0.4 -2.72,-3.48 -0.85,-2.81 -1.68,0.65 -1.7,-0.82 0.02,-5.27 -0.77,-1 -1.93,-0.15 -0.07,-2.83 -1.38,0.15 -1.27,-1.8 -2.78,1.5 -1.4,-1.68 -2,-0.1 -0.5,-0.7 -4.18,-0.18 -0.27,-3.16 1.27,-1.25 0.23,-2.66 -2.78,-1.2 1.88,-1.88 0.17,-1.1 -2.67,0.72 -2.95,-1.85 0.12,-0.9 -1.68,-1.48 -3.6,1.1 -2.75,-2.86 -0.45,1.81 -0.77,0.47 -3.35,-3.48 -1.6,2.21 -3.43,-3.94 -0.9,-2.13 2.72,-2.19 -0.3,-0.9 -1.7,-0.83 -0.6,-1.83 2.88,-3.26 -1.75,-2.58 2.22,-2.66 -1.27,-4.17 3.15,-2.33 -2.55,-1.88 1.33,-4.07 -1.13,-0.75 0.2,-1.38 -1.2,-0.68 -0.45,-2.56 -5.2,-4.21 -1.53,-3.12 -1.65,-0.63 0.45,-1.48 -1.32,-0.57 1.05,-2.11 -1.46,-1.08 -0.8,-2.74 -2.7,-2.86 -2.7,-1.13 -1.35,-1.76 -1.9,-4.82 -1.72,-0.86 -1.5,-8.21 -1.28,-0.88 0,0 0,0 0,0 -2.7,-0.09 0,0 0.12,-2.44 1.56,-1.83 0.22,-1.81 4.93,-2.84 0.08,-0.6 -1.48,-2.11 -5.7,-2.6 -2.46,-3.47 -4.87,-2.02 -1.24,-2.23 -2.12,1.11 -1.2,-0.59 -0.31,-3.6 -0.49,-0.35 -1.1,-0.07 -0.65,0.99 -1.7,-1.1 0.52,-2.09 2.2,-1.26 1.14,-0.75 1.56,-2.54 3.39,-0.15 1.41,-1.26 1.04,-3.05 2,-0.26 1.22,-1.54 3.18,-0.06 2.98,-2.24 1.16,1.08 2.75,0.37 3.59,-1.81 1.57,0.26 2.33,-0.9 3.09,0.51 2.02,1.27 3.07,0.37 2.58,-1.14 2.51,0.66 6.61,-1.64 1.81,1.22 1.79,0.3 1.35,-0.36 0.43,-1.23 0.71,-0.2 1.46,1.62 2.82,-1.72 2.1,-0.43 2.19,1.87 6.31,-0.13 2.69,-0.61 1.76,-1.53 9.09,-1.8 0.93,1.75 0.83,0.09 2.03,-1.86 1.95,0.32 1.69,-0.66 2,0.68 1.1,-2.38 3.68,-0.45 1.59,-2.21 1.31,-0.87 2.1,-0.2 1.52,-1.3 2.59,0.84 1.8,-2.11 2.63,1.67 5.45,-0.09 2.71,-1.15 4.72,2.69 4,-0.13 3.16,-0.42 3.57,-2.02 3.72,-0.31 1.45,-1.06 4.3,-9.65 -0.59,-1.82 0.39,-1.35 2.53,-0.05 0.42,-2.67 3.49,0.62 1.22,-1.14 2.11,2.39 3.02,-0.12 0.24,-0.48 0.65,-1.74 1.35,-4.81 8.83,-0.53 0.66,-0.61 0,-1.83 z" 
                fill="rgb(151, 144, 238)" 
                stroke="white" 
                stroke-width=".7px"
                title="Bamingui-Bangoran" 
                id="CF-BB" 
            />
        </svg>