<svg xmlns="http://www.w3.org/2000/svg" viewBox="543.23288 477.48149999999987 152.95999999999992 135.50000000000034" width="152.95999999999992" height="135.50000000000034">
            <path 
                d="m 543.23288,585.2615 4.3,-1.39 6.68,-3.96 7.55,-7.98 4.75,-6.48 3.48,-0.92 5.35,-3.54 5.2,0.9 2.81,-1.45 0.7,-1.12 0.12,-3.84 -1.22,-6.91 1.1,-2.87 2.77,-3.96 0.18,-1.42 -3.43,-8.08 1.4,-3.75 2.23,-1.97 1.2,-2.59 0.87,-9.06 -0.95,-5.94 3.23,-3.89 -0.9,-5.69 -3.03,-1.37 -0.64999,-1.37 0.95,-1.25 4.35,-0.45 2.63,-1.35 -0.5,-4.32 2.88,-2.99 0.47,-1.55 -2.53,-3.95 0.43,-1.94 2.7,-0.03 1.48,0.68 1.27,0.99 2.53,4.15 3.65,-0.43 1.42,-1.39 5.01,2.37 5.41999,-2.5 3.81,-3.84 1.1,0.6 0.77,1.59 0.98,0.03 2.57,-3.55 1.78,3.1 2.98,0.82 1.22001,3.4 1.6,1.55 0.65,3.02 -0.70001,1.44 2.25,3.77 0.55,3.17 2.88,0.48 1.55,2.92 2.08,0.35 4.62,-1.67 2.38,-6.02 0,0 8,0.67 4.58,2.5 1.67,-0.08 7.13,3.35 0,0 0.43,1.97 -1.13,3.15 1.3,4.91 -1.42,4.42 0.2,7.43 -0.55,3.72 -2.58,4.71 -5.9,4.42 0.25,1.94 2.67,3.4 0.53,3.09 -5,7.16 -0.48,9.57 -2.15,3.94 0.18,3.19 -0.78,1.02 -0.07,2.05 0.37,0.82 3.28,0.25 1,-0.72 0.72,1.09 1.83,-0.37 1.9,2.62 1.45,0.37 1.85,-0.5 0.98,2.05 2.37,-0.53 -0.55,1.87 0.43,1.42 3.82,3.44 -1.37,2.62 1.05,0.8 4.48,0.94 3.62,-1.87 1.58,0.25 1.47,-0.74 4.15,0.34 2.16,1.52 0,0 0.52,1.28 0,0 -1.47,2.19 -0.16,1.64 -3,3.69 -0.42,2.02 -2.83,3.89 0.95,6 -3.25,2.84 -0.25,3.42 0,0 -3.82,-1.69 -3.03,1.5 -2.17,-0.8 -6.85,-0.66 -4.91999,-2.69 -2.96001,-0.01 -3.35,-3.03 -5.2,0.74 -1.47,-1.21 -0.89,0 -7.72,5.54 -6.26,-0.95 -2.4,-0.98 -3.67,0.74 -8.42,-2.99 -4.7,-3.94 -2.85,0.77 -1.22,3.04 -2.31,0.75 -1.77,-1.56 -1.46,0.19 -5.09,-3.03 -1.6,-3.07 -2.32,-1.98 -4.59,-0.87 -4.93,-2.33 -7.64,-0.85 -1.74,-0.74 -6.39,2.86 -3.34,0.05 -2.63,-0.69 -10.4,1.74 -5.18,-3.24 -2,-0.42 -2.18,-3.03 -2.78,-0.83 -1.42999,-1.56 z" 
                fill="rgb(151, 144, 238)" 
                stroke="white" 
                stroke-width=".7px"
                title="Basse-Kotto" 
                id="CF-BK" 
            />
        </svg>