<svg xmlns="http://www.w3.org/2000/svg" viewBox="381.01287999999977 221.6015 135.7600000000001 192.70000000000005" width="135.7600000000001" height="192.70000000000005">
            <path 
                d="m 419.18288,221.6015 1.28,0.88 1.5,8.21 1.72,0.86 1.9,4.82 1.35,1.76 2.7,1.13 2.7,2.86 0.8,2.74 1.46,1.08 -1.05,2.11 1.32,0.57 -0.45,1.48 1.65,0.63 1.53,3.12 5.2,4.21 0.45,2.56 1.2,0.68 -0.2,1.38 1.13,0.75 -1.33,4.07 2.55,1.88 -3.15,2.33 1.27,4.17 -2.22,2.66 1.75,2.58 -2.88,3.26 0.6,1.83 1.7,0.83 0.3,0.9 -2.72,2.19 0.9,2.13 3.43,3.94 1.6,-2.21 3.35,3.48 0.77,-0.47 0.45,-1.81 2.75,2.86 3.6,-1.1 1.68,1.48 -0.12,0.9 2.95,1.85 2.67,-0.72 -0.17,1.1 -1.88,1.88 2.78,1.2 -0.23,2.66 -1.27,1.25 0.27,3.16 4.18,0.18 0.5,0.7 2,0.1 1.4,1.68 2.78,-1.5 1.27,1.8 1.38,-0.15 0.07,2.83 1.93,0.15 0.77,1 -0.02,5.27 1.7,0.82 1.68,-0.65 0.85,2.81 2.72,3.48 1.43,0.4 0.72,-1.13 0.83,0.35 0.62,1.76 1.38,1.15 -0.3,2.73 0.67,3.38 3.36,2.93 0.17,1 2.18,-0.07 1.37,1.13 2.53,0.72 1.02,1.41 1.43,0.52 0.2,1.63 3.48,2.15 0.27,0.95 2.4,1.38 2.03,-0.37 0.37,2.37 0.78,0.35 1.22,-0.62 0.63,0.57 0,0 -1.15,3.13 0.65,4.48 -0.93,3.48 -1.72,2.33 -1.48,5.58 -5.1,4.16 -0.35,2.15 -1.35,2.23 -1.53,0.32 -5.45,5.91 -1.9,1.02 -6.18,7.48 -0.6,3.3 1.98,12.08 -1.65,0.45 -4.05,-2.9 -4.31,-0.25 -2.3,0.57 0,0 -21.18,-2.67 -5.68,1.02 -9.8,3.08 -4.93,0.68 -3.32,-0.38 -4.33,1.8 -2.98,0.33 -3.75,-1 -3.32,-1.81 -1.18,-1.15 -2.93,-5.65 -2.17,-1.17 -2.55,0.02 -14.61,3.1 -6.45,0.33 0,0 0.62,-3.5 1.35,-3 2.91,-2.28 4.95,-2.2 1.05,-1.15 0.25,-1.58 -1.23,-1.87 -5,-1.65 -5.5,-4.18 -0.63,-2.2 1.65,-3.38 -2.7,-0.23 -1.72,-6.45 -5.16,-4.63 0.43,-2.38 3.7,-2.3 1.58,-6.11 2.82,-1.6 0.08,-1.81 -3.23,-0.67 -0.07,-1.55 4.22,-2.21 0.98,-1.1 0.17,-3.93 0.63,-0.75 5.45,-2.28 0.85,-1.35 -11.55,-31.6 1.02,-1.75 2.7,-1.46 23.61,-11.1 -0.92,-0.73 -1.88,0.37 -0.95,-0.9 -0.3,-2.66 1.43,-2.35 -1.5,-2.21 2.82,-2.73 -1.87,-2.49 2.65,-1.05 1.2,-1.33 0.27,-1 -1.15,-1.31 0.98,-2.16 -0.43,-2.63 0.43,-0.88 1.27,-0.4 0.08,-1.73 1.2,-1.33 -1.63,-2.06 1.78,-1.83 -1.15,-3.11 1.8,-1.81 -0.68,-1.78 0.5,-2.59 -0.62,-0.6 -0.05,-1.73 -1.3,-0.03 -1.88,-1.25 -0.6,-1.84 0.35,-2.66 2.05,-1.03 0.35,-2.21 -0.72,-1.7 1.9,-0.98 -0.48,-3.24 1.63,-0.18 0.4,-0.88 -0.8,-0.53 -0.9,-2.76 0.32,-1.61 1.2,-1.28 -1.47,-1.63 0.17,-1.13 1.43,-0.93 z" 
                fill="rgb(151, 144, 238)" 
                stroke="white" 
                stroke-width=".7px"
                title="Gribingui" 
                id="CF-KB" 
            />
        </svg>