<svg xmlns="http://www.w3.org/2000/svg" viewBox="23.38288499999997 508.06149999999997 219.99999500000004 153.67999999999967" width="219.99999500000004" height="153.67999999999967">
            <path 
                d="m 189.54288,518.5215 4.3,-2.13 12.53,-8.33 6.98,3.94 4.47,-0.37 4.88,-1.87 2.4,0.1 10.51,7.28 1.9,1.92 2.67,5.37 3.2,3.86 -0.6,1.78 -0.85,0.52 -3.37,0.75 -3.86,2.89 -2.87,0.78 3.97,6.06 0,0 0.41,2.64 -1.35,2.39 -4.48,0.95 -1.15,0.7 -1,1.77 -2.68,1.12 -0.85,1.07 -4.63,2.3 -2.63,0.29 0.51,3.37 -0.83,1.62 0.53,1.28 -0.68,7.05 1.63,6.66 3.35,3.39 3.83,7.05 0.22,2.17 4.8,2.91 3.33,7.63 2.25,2.61 2.43,0.4 0.2,2.15 -7.78,-0.8 -3.73,-3.66 -5.07,-2.97 -1.76,0.2 -8.22,7.35 -3.71,8.23 0,0 -6.57,-1.87 -5.81,10.98 -0.39,4.21 0.42,4.88 -1.23,3.59 -3.55,4.75 -6.47,5.46 -0.86,3.56 -1.95,1.86 -1.2,-0.47 -4.15,-4.86 -2,-0.57 -5.03,0.28 -2.4,-2.34 -4.8,-2.39 -9.55,-2.3 -3.08,-2.11 -14.53,1.27 -4.08,0.57 -11.68,4.33 -9.4,4.81 -3.75,3.51 -2.3,5.85 -1.65,1.54 -2.899995,0.83 -2.51,-0.08 -1.35,-3.43 -3.47,-0.35 -2.1,0.87 -2.38,2.41 -10.41,6.01 0,0 -2.99,-3.25 -8.75,-14.05 -3.92,-6.66 -1.51,-4.56 -2.93,-0.12 0.88,-1.41 7.07,-1.84 3.37,-1.86 -0.89,-1.3 -2.21,0.26 -1,-3.06 -2.12,-1.66 -0.68,-1.57 0.62,-1.17 -0.07,-2.04 -0.6,-0.54 0.09,-3.47 -0.94,-1.71 0.42,-1.84 -1.37,-4.54 -1.67,-1.35 -1.91,-3.78 -1.2,0.08 -1.54,-4.81 -2.62,-0.48 -0.47,-0.91 -1.11,-0.32 -1.88,0.12 -0.48,-0.97 -4.72,-1.95 -1.54,-2.2 -1.37,-0.54 -0.28,-0.97 -1.67,-0.21 -1.94,-1.26 -3.91,-4.86 -1.26,-0.23 -0.87,-1.66 -1.46,-0.85 0.25,-0.84 -0.97,-2.03 -0.33,-8.88 -1.58,-2.13 1.07,-0.55 0.6,-1.59 -1.26,-5.99 0.78,-0.76 -2.73,-5.79 0.92,-2.97 -1.55,-2.36 0.49,-2.7 0,0 16.43,2.32 6.6,-1.77 2.03,1.32 3.95,4.47 1.43,0.6 1.87,-0.9 3.23,-4.39 21.13,-0.12 1.08,-1.5 1.15,-0.1 3.25,1.92 2.8,-0.3 1.83,-0.57 6.43,-4.39 5.419995,2.89 8.43,0.6 1.6,-0.82 2.63,0.77 0.27,-1.55 -1.3,-8.25 -1.75,-2.35 3.73,-5.41 -0.28,-1.27 2.45,-0.93 3.88,0.48 0.05,1.62 1.95,4.89 -0.53,3.34 2.61,5.54 5.67,-1.75 5.11,-2.94 0.97,0.82 0.63,2.07 1.75,1.62 2.82,0.3 6.08,-2.02 16.73,-7.85 14.33,-4.99 z" 
                fill="rgb(151, 144, 238)" 
                stroke="white" 
                stroke-width=".7px"
                title="Haute-Sangha" 
                id="CF-HS" 
            />
        </svg>