<svg xmlns="http://www.w3.org/2000/svg" viewBox="377.1428800000001 403.5215 126.72001 145.55000000000013" width="126.72001" height="145.55000000000013">
            <path 
                d="m 390.17288,406.9715 6.45,-0.33 14.61,-3.1 2.55001,-0.02 2.17,1.17 2.93,5.65 1.18,1.15 3.32,1.81 3.75,1 2.98,-0.33 4.33,-1.8 3.32,0.38 4.93,-0.68 9.8,-3.08 5.68,-1.02 21.18,2.67 0,0 -0.55,2.45 1.43,2.58 2.75,2.15 4.73,1.52 1.85,1.43 1.72,2.55 -3.12,8.92 2.1,3.93 -3.33,2.9 0.05,1.42 1.53,2.02 -1.8,1.43 -3.61,5.97 -0.49,0.37 -3.56,-0.65 -1.77,0.58 -1.7,3.49 -8.36,5.23 -1.35,1.45 -0.22,0.87 2.92,10.44 -1.52,1.25 -0.18,1.02 0.7,0.8 5.11,1.75 0.62,1.45 -0.4,3.59 -1.52,2.77 -8.81,7.09 -7.53,1.25 -0.72,1.72 2.57,2.58 1.58,2.97 45.39,-0.7 -0.35,5.11 -2.15,2.65 -3.02,7.41 0.52,5.04 -1.07,2.97 0.42,2.94 -1.32,6.69 -2.38,3.31 -5.12,2.24 0,0 -2.64,-2.64 -4.47,-0.76 -7.12,-2.8 -7.55001,0.46 -5.19,-1.6 -5.88,2.1 -5.37999,-0.69 -3.42001,1.55 -2.98,3.57 -10.58,5.94 -3.5,5.81 -4.88,0.03 -2.92,0.71 0,0 -1.06,-1.1 0.49,-4.14 -1.58,-2.27 -0.1,-2.52 -3.3,-2.14 -1.18,-3.59 -3.12,-2.57 -1.58,-2.57 -0.32,-1.85 0.65,-4.39 3.27,-9.15 -1.3,-3.47 -3.2,-5.24 -2.5,-0.98 -3.68,-2.59 -2.57,-3.1 -0.2,-8.93 -0.78,-1.75 -1.22,-0.7 -10.08,-1.67 -4.9,-0.2 -2.01,-1.67 -3.12,-5.01 0,0 -1.05,-5.21 0.57,-3.59 -1.87,-4.67 2.52,-5.65 -1.2,-2.8 -0.1,-1.92 6.51,-2.52 0.77,-1.5 3.95,-1.75 2.13,-1.8 2.8,-3.47 3.63,-1.75 1.42,-2.27 4.33,-1.33 0.82,-1.42 -0.25,-1.25 -3.02,-0.95 -1.2,-1.6 -0.45,-4.75 0.4,-6.08 -10.93,-10.8 -0.08,-1.67 z" 
                fill="rgb(151, 144, 238)" 
                stroke="white" 
                stroke-width=".7px"
                title="Kémo-Gribingui" 
                id="CF-KG" 
            />
        </svg>