<svg xmlns="http://www.w3.org/2000/svg" viewBox="208.74288999999996 539.5415 170.85998999999995 140.7199999999999" width="170.85998999999995" height="140.7199999999999">
            <path 
                d="m 235.80288,541.0715 8.73,-1.53 2.13,4.19 6.03,2.3 2.2,3.76 3.6,1.45 1.33,3.14 6.57,3.64 6.66,2.39 1.75,1.98 0.07,1.29 3.53,2.87 2.57,13.86 1.53,1.87 0.45,1.72 2.53,1.79 5.95,1.42 1.4,-1.64 4.68,0.27 3.3,-1.35 5.42,2.3 1.1,3.96 0.63,0.4 2.48,-0.75 3.07,2.12 2.2,-2.22 2.2,-0.37 4.76,1.32 3.62,0.15 0.08,1.64 1.62,0.65 5.25,-2.32 1.36,0.9 2.4,2.89 3.2,6.88 2.87,1.27 5.31,0.57 2.02,2.69 3.03,6.25 -0.5,3.49 0.97,4.11 -1.27,3.59 0.25,1.79 1.1,1.75 4.5,3.48 1.4,3.54 1.18,-0.08 0.72,0.9 2.43,0.82 0.05,2.02 1,1.17 2.8,2.07 2.02,-0.38 4.25,2.35 1.79,2.36 0,0 0.12,4.71 -0.96,4.63 0.38,4.27 1.33,3.99 1.11,11.28 1.5,5.58 -3.61,-0.54 -1.77,-4.81 -2.17,-2.94 -1.41,-4.17 -4.4,-3.87 -2.85,2.66 -0.58,2.01 -2.61,-0.71 -0.51,0.46 -0.31,2.33 -5.82,-2.66 -3.35,1.85 -3.69,-0.41 -2.36,8.17 -0.9,0.87 -3.83,0.85 -1.16,-0.63 -1.14,-3.52 -1.69,-2.31 -3.56,-1.63 -3.09,-0.35 -1.98,0.64 -4.39,-0.95 -0.39,2.48 -2.37,-0.83 -2.85,-3.77 -1.66,2.6 -5.42,3.63 -2.71,-8.4 -2.99,-0.22 -5.65,-1.98 -2.52,1.5 -1.57,-0.62 -7.32,0.02 -1.69,-1.53 -2.7,-0.98 -1.25,-1.49 -3.34,-0.55 -1.33999,-0.91 -2.68,0.26 -1.88,1.69 -2.34,0.71 0,0 -4.26,-7.99 -4.37,-5.01 -13.96,-6.32 -6.68,-1.27 -5.12,-3.39 -5.63,-0.52 -3.03,-2.49 -1.5,-1.6 -1.8,-4.31 -3.98,-5.15 -2.72,-5.13 -3.65,-3.07 -1.95,-3.48 -2.36,-1.54 0,0 3.71,-8.23 8.22,-7.35 1.76,-0.2 5.07,2.97 3.72999,3.66 7.78,0.8 -0.19999,-2.15 -2.43,-0.4 -2.25,-2.61 -3.33001,-7.63 -4.8,-2.91 -0.22,-2.17 -3.83,-7.05 -3.35,-3.39 -1.63,-6.66 0.68,-7.05 -0.53,-1.28 0.83,-1.62 -0.50999,-3.37 2.63,-0.29 4.62999,-2.3 0.85,-1.07 2.68,-1.12 1,-1.77 1.15001,-0.7 4.48,-0.95 1.35,-2.39 z" 
                fill="rgb(151, 144, 238)" 
                stroke="white" 
                stroke-width=".7px"
                title="Lobaye" 
                id="CF-LB" 
            />
        </svg>