<svg xmlns="http://www.w3.org/2000/svg" viewBox="659.0828699999997 385.5515 310.6700200000005 237.11000000000075" width="310.6700200000005" height="237.11000000000075">
            <path 
                d="m 886.11288,385.5515 7.91,8.26 10,12.06 12.36,12.93 3.35,-1.8 5.98001,0.62 7.25,-8.05 8.83,-0.98 2,0.95 3.05,3.33 3.6,1.05 7.92999,6.38 1.08001,2.37 -0.15,3.72 -1.6,0.8 -3.93,0.08 -1.05,4.37 -0.65,0.45 -2.9,0.68 -1.65,1.82 -1.4,0.28 -6.53,-2.13 -0.9,1 12.4,10.57 2.08,3.6 3.65,0 0.68,1.3 -0.45,1.72 3.1,2.55 1.32,3.57 5.1,-0.77 3.18,4.52 0,0.9 -2.63,3.27 -0.75,3.85 0.28,1.9 -0.95,3.27 -2.45,-3.37 -0.85,0.35 -1.4,2.24 -2.55,0.28 -2.73,1.4 1.5,1.97 -1,2.07 0.28,2.07 -0.98,2.05 0.9,2.67 -1.3,1.05 -0.03,1.12 0.35,1.45 1.31,0.55 -2.46,1.72 2.68,0.83 -2.18,1.45 -1.12,3.81 -2.25,1.9 -1.45,0.03 -1.05,0.79 1.37,2.4 -2.2,0.8 -0.82001,0.97 -2.98,-0.87 0.63,2.17 -2.16,0.92 0.18,1.63 -1.9,-0.78 0.77,2.8 -0.8,2.84 -1.87,-0.42 -1.2,-1.03 -1.78,2.55 -2.67,1 -0.05,1.62 -0.63,0.62 -2.43,-1.22 -1.82,0.65 -1.58001,2.04 -1.72,0.75 -2.79999,-0.6 -3.88,0.4 -1.3,-1.17 -0.68,1.77 -1.12,0.68 0.02,1.82 -1.35,1.72 0.08,2.57 -0.38,0.25 -1.95,-1.67 -1.07,1.92 0.95,0.87 -1.2,1.07 0.41999,1.4 1.83001,0.22 0.02,1.35 -1.87001,1.15 -2.1,-1.55 -1.02999,-0.05 -2.16,2.26 0,0 -2.18,-0.47 -1.34,0.61 0.75,2.95 -1.2,0.46 -2.44001,-4.67 -1.59,0.19 -1.25,3.31 -1.23,0.32 -0.35,0.78 0.42,0.98 0.99,0.35 2.22,-0.75 0.99,0.8 0.14,1.2 -3.19,2.06 -6.94,0.48 -2.1,1.95 -0.21,0.84 0.99,1.97 -0.7,1.16 -2.11,0.19 0.1,-1.51 -1.55,-0.7 -4.07,2.58 -2.76,3.22 -2.13,0.14 -2.33,-1.61 -1.86,0.09 -4.63,2.97 -5.64,1.89 -0.85,-1.84 -0.62,-0.04 -0.82,0.93 0.41,3.96 -0.49,1.18 -3.04,-0.68 -0.81,-1.05 -1.34,-0.35 -3.7,1.96 -1.59,-1.67 -5.66,4.47 -5.53,-0.25 -8.04,3.75 -3.41,0.68 -2.76,2.65 -4.56,2.71 -3.23,-0.01 -3.05,2.08 -0.54,1.62 0.38,2.81 -0.74,1.07 -3.45,0 -2.01,-1.7 -2.62,0.51 -3.27,-2.26 -1.3,0.16 -1.57,-3.42 -2.23,-0.41 -2.69,-2.15 -1.16,-2.5 -2.15,-1.62 -5.25,2.71 -2.99,-0.68 -4.12,-3.03 -1.94,-0.37 -2.62,-6.27 -1.49,-1.3 -2.33,2.01 -3.12,-0.22 -1.03,0.97 -0.68,2.02 1.35,2.46 -2.5,1.7 -0.82,2.73 -1.81,0.54 -1.54,-1.76 -1.75,-0.34 -2.31,1.86 -1.9,4.82 -2.06,2.31 -0.52,6.18 -2.45,3.62 0.06,2.19 -0.74,1.75 -1.69,0.9 -1.57,-1.69 -3.2,-0.37 -2.52,1.16 -0.11,4.24 -1.12,2.21 0.4,0.95 2.71,1.05 -0.06,2.43 -4,1.95 -2.61,4.51 -0.41,2.15 0.95,1.46 -0.14,2.04 -8.67,7.85 -10.26,1.28 -6.65,-0.06 -4.25,-1.09 -4.99,-2.48 -3.35,-3.38 -2.81,-1.78 -5.38,-0.89 0,0 0.25,-3.42 3.25,-2.84 -0.95,-6 2.83,-3.89 0.42,-2.02 3,-3.69 0.16,-1.64 1.47,-2.19 0,0 -0.52,-1.28 0,0 -2.16,-1.52 -4.15,-0.34 -1.47,0.74 -1.58,-0.25 -3.62,1.87 -4.48,-0.94 -1.05,-0.8 1.37,-2.62 -3.82,-3.44 -0.43,-1.42 0.55,-1.87 -2.37,0.53 -0.98,-2.05 -1.85,0.5 -1.45,-0.37 -1.9,-2.62 -1.83,0.37 -0.72,-1.09 -1,0.72 -3.28,-0.25 -0.37,-0.82 0.07,-2.05 0.78,-1.02 -0.18,-3.19 2.15,-3.94 0.48,-9.57 5,-7.16 -0.53,-3.09 -2.67,-3.4 -0.25,-1.94 5.9,-4.42 2.58,-4.71 0.55,-3.72 -0.2,-7.43 1.42,-4.42 -1.3,-4.91 1.13,-3.15 -0.43,-1.97 0,0 0.95,-1.47 3.13,-1.75 1.82,-3.05 6.23,-4.09 0.95,-1.47 -0.42,-0.78 -1.7,-0.12 0.85,-1.57 3.82001,0.45 0.75,-0.53 -0.42,-2.94 -2.15,-2.73 -0.55,-2.49 2.2,-2.65 -0.33,-4.49 0.53,-6.9 4.37,-5.34 -0.17,-1.53 -1.3,-1.17 4.98,-4.32 6.1,-1.97 1,-1.78 2.55,-0.1 1.8,2.55 5.18,-0.87 3.02,0.92 7.86,-4.15 2.55,-3.92 1.1,-5.02 3.32,-5.83 12.26,-2.55 6.2,1.3 5.66,-1.25 2.35,1.25 3.17,6.55 35.84,9.45 2.13,-2.13 -0.33,-2.65 0.53,-1.27 -0.6,-1.82 0.41999,-0.78 1.4,-0.45 0.43,-2.35 1.7,-0.72 1.4,1.05 3.83,-0.33 1.57001,-1.3 0.48,-3.12 2.47,-3.58 3.35,-1.55 7.78,-5.32 z" 
                fill="rgb(151, 144, 238)" 
                stroke="white" 
                stroke-width=".7px"
                title="Mbomou" 
                id="CF-MB" 
            />
        </svg>