<svg xmlns="http://www.w3.org/2000/svg" viewBox="186.41287999999997 461.8215 236.47000000000003 183.98000000000002" width="236.47000000000003" height="183.98000000000002">
            <path 
                d="m 230.43288,465.9915 0.3,1.78 -0.78,2.92 5.06,8.79 51.29001,-0.7 18.51,-10.56 2.4,-1.9 2.02999,-3.15 2.47001,-1.29 2.3,-0.06 7.27999,4.82 1.45,-0.19 0.3,3.67 1.88,1.39 5.27,-1.59 3.38,2.44 2.15,-0.85 8.23,-0.67 2.17,1.2 0.23001,2.95 0.87999,1.14 2.22001,-1.22 4.08,0.03 4.8,1.87 0.33,1.92 -2.91001,2.72 2.45,4.7 -0.12,5.36 0.97,1.33 8.61001,-3.25 8.44999,-4.39 1.75,-3.8 -0.3,-4.22 0.98,-0.4 0.95,0.69 0,0 3.12,5.01 2.01,1.67 4.9,0.2 10.08,1.67 1.22,0.7 0.78,1.75 0.2,8.93 2.57,3.1 3.68,2.59 2.5,0.98 3.2,5.24 1.3,3.47 -3.27,9.15 -0.65,4.39 0.32,1.85 1.58,2.57 3.12,2.57 1.18,3.59 3.3,2.14 0.1,2.52 1.58,2.27 -0.49,4.14 1.06,1.1 0,0 -3.54,3.5 -1.54,4.58 -3.62,5.15 -0.85,2.98 -5.61,5.14 -1.39,2.69 -2.35,0.9 -1.93,3.76 -4.74,5.01 -1.86,8.74 -1.84,3.92 -5.17,4.81 -2.74,0.98 -3.18,0.05 0,0 -1.24,-4.51 -1.61,-2.22 -5.86,0.61 -1.42,1.61 -0.81,2.42 2.02,3.58 0,0 -1.75,1.72 -0.26,1.32 6.51,12.1 2.74,8.09 0.3,8.83 -1.46,3.48 -2.54,2.68 -1.02,4.81 0,0 -1.79,-2.36 -4.25,-2.35 -2.02,0.38 -2.8,-2.07 -1,-1.17 -0.05,-2.02 -2.43,-0.82 -0.72,-0.9 -1.18,0.08 -1.4,-3.54 -4.5,-3.48 -1.1,-1.75 -0.25,-1.79 1.27,-3.59 -0.97,-4.11 0.5,-3.49 -3.03,-6.25 -2.02,-2.69 -5.31,-0.57 -2.87,-1.27 -3.2,-6.88 -2.4,-2.89 -1.36,-0.9 -5.25,2.32 -1.62,-0.65 -0.08,-1.64 -3.62,-0.15 -4.76,-1.32 -2.2,0.37 -2.2,2.22 -3.07,-2.12 -2.48,0.75 -0.63,-0.4 -1.1,-3.96 -5.42,-2.3 -3.3,1.35 -4.68,-0.27 -1.4,1.64 -5.95,-1.42 -2.53,-1.79 -0.45,-1.72 -1.53,-1.87 -2.57,-13.86 -3.53,-2.87 -0.07,-1.29 -1.75,-1.98 -6.66,-2.39 -6.57,-3.64 -1.33,-3.14 -3.6,-1.45 -2.2,-3.76 -6.03,-2.3 -2.13,-4.19 -8.73,1.53 0,0 -3.97,-6.06 2.87,-0.78 3.86,-2.89 3.37,-0.75 0.85,-0.52 0.6,-1.78 -3.2,-3.86 -2.67,-5.37 -1.9,-1.92 -10.51,-7.28 -2.4,-0.1 -4.88,1.87 -4.47,0.37 -6.98,-3.94 -12.53,8.33 -4.3,2.13 0,0 -0.48,-4.67 -2.65,-5.86 2.63,-10.98 -0.35,-4.92 0,0 3,-0.93 2.37,-2.69 3.05,-1.35 2.33,-3.69 4.13,-2.95 -0.1,-2.8 0.82,-1.2 3.51,-1.77 3.27,-3.22 3.35,0.23 6.53,-2.63 5.45,-0.42 1.93,-2.12 z" 
                fill="rgb(151, 144, 238)" 
                stroke="white" 
                stroke-width=".7px"
                title="Ombella-Mpoko" 
                id="CF-MP" 
            />
        </svg>