<svg xmlns="http://www.w3.org/2000/svg" viewBox="454.3228900000003 299.8315 223.3099999999999 285.42999999999995" width="223.3099999999999" height="285.42999999999995">
            <path 
                d="m 604.30288,299.8315 2.9,1.83 4.58,5.72 2.8,1.17 6.91,1.01 6.37,4.93 2.83,5.72 -1.33,12.2 1.03,2.63 2.4,0.8 4.53,0.18 5.05,-0.85 1.97,1.32 0.71,2.73 -0.68,8.17 1.73,7.06 0.85,9.56 2.77,1 -0.22,5.01 1.9,4.05 -1.45,2.58 0.75,1.78 -0.23,1.82 -3.22,2.26 -0.05,1.57 2.37,2.05 0.53,5.33 2.45,4.2 2.25,1.51 0.85,2.75 1.2,0.57 5.2,0.18 2,2.12 -1.85,10.78 0.98,3.1 2.2,3.4 0.22001,2.4 -1.55,3.4 -5.17,7.6 0.85,1.4 3.9,2.22 1.07,5.37 1.75,2.68 -0.22,3.65 0.72,0.6 5.51,0.54 1.95,7.75 2.9,2.72 0.32,1 -0.45,7.99 -1.37,6.15 -1.68,2.82 -0.47,4.44 -3.13,2.77 -0.73,2.25 -7.05,-5.37 -1.55,-0.1 -9.08,7.14 0.08,4.32 0,0 -2.38,6.02 -4.62,1.67 -2.08,-0.35 -1.55,-2.92 -2.88,-0.48 -0.55,-3.17 -2.25,-3.77 0.7,-1.44 -0.65,-3.02 -1.6,-1.55 -1.22,-3.4 -2.98,-0.82 -1.78,-3.1 -2.57,3.55 -0.98,-0.03 -0.77,-1.59 -1.1,-0.6 -3.81,3.84 -5.42,2.5 -5.01,-2.37 -1.42,1.39 -3.65,0.43 -2.53,-4.15 -1.27,-0.99 -1.48,-0.68 -2.7,0.03 -0.43,1.94 2.53,3.95 -0.47,1.55 -2.88,2.99 0.5,4.32 -2.63,1.35 -4.35,0.45 -0.95,1.25 0.65,1.37 3.03,1.37 0.9,5.69 -3.23,3.89 0.95,5.94 -0.87,9.06 -1.2,2.59 -2.23,1.97 -1.4,3.75 3.43,8.08 -0.18,1.42 -2.77,3.96 -1.1,2.87 1.22,6.91 -0.12,3.84 -0.7,1.12 -2.81,1.45 -5.2,-0.9 -5.35,3.54 -3.48,0.92 -4.75,6.48 -7.55,7.98 -6.68,3.96 -4.3,1.39 0,0 -0.25,-3 1.04,-3.14 -0.71,-2.54 -6.21,-6.02 -3.72,-5.09 -3.19,-1.98 -2.42,-0.18 -7.61,-4.67 -3.55,-4.36 -5.82,-2.74 -6.14,-5.34 -4.7,-1.17 -2.77,0.61 -2.34,-0.67 -3.71,-3.37 -1.74,-4.21 0,0 5.12,-2.24 2.38,-3.31 1.32,-6.69 -0.42,-2.94 1.07,-2.97 -0.52,-5.04 3.02,-7.41 2.15,-2.65 0.35,-5.11 -45.39,0.7 -1.58,-2.97 -2.57,-2.58 0.72,-1.72 7.53,-1.25 8.81,-7.09 1.52,-2.77 0.4,-3.59 -0.62,-1.45 -5.11,-1.75 -0.7,-0.8 0.18,-1.02 1.52,-1.25 -2.92,-10.44 0.22,-0.87 1.35,-1.45 8.36,-5.23 1.7,-3.49 1.77,-0.58 3.56,0.65 0.49,-0.37 3.61,-5.97 1.8,-1.43 -1.53,-2.02 -0.05,-1.42 3.33,-2.9 -2.1,-3.93 3.12,-8.92 -1.72,-2.55 -1.85,-1.43 -4.73,-1.52 -2.75,-2.15 -1.43,-2.58 0.55,-2.45 0,0 2.3,-0.57 4.31,0.25 4.05,2.9 1.65,-0.45 -1.98,-12.08 0.6,-3.3 6.18,-7.48 1.9,-1.02 5.45,-5.91 1.53,-0.32 1.35,-2.23 0.35,-2.15 5.1,-4.16 1.48,-5.58 1.72,-2.33 0.93,-3.48 -0.65,-4.48 1.15,-3.13 0,0 0.67,1.81 4.05999,1.1 1.82001,2.45 7.29999,-0.15 2.98001,1.5 1.89999,-1.15 2.5,0.43 1.20001,-1.33 1.79999,1.93 2.05,0.05 1.7,-1.38 1.91,-0.5 2,-2.38 2.97,0.33 1.98,-0.48 6.63,-5.73 1.4,-3.01 1.15,-5.05 1.2,-1.93 3.60001,-0.58 6.54999,2.08 4.15,-2.75 3.2,-1.03 1.03,-1.48 1.95001,-1.13 1.08,-2.73 2.87,-3.25 5.85,-8.85 5.48,-4.73 -2.27,-4.49 0.02,-2.88 3.5,-2.61 1.35,-5.72 z" 
                fill="rgb(151, 144, 238)" 
                stroke="white" 
                stroke-width=".7px"
                title="Ouaka" 
                id="CF-UK" 
            />
        </svg>