<svg xmlns="http://www.w3.org/2000/svg" viewBox="203.24289000000027 221.51149999999987 216.13998999999973 271.33000000000015" width="216.13998999999973" height="271.33000000000015">
            <path 
                d="m 419.18288,221.6015 0.15,4.22 -1.43,0.93 -0.17,1.13 1.47,1.63 -1.2,1.28 -0.32,1.61 0.9,2.76 0.8,0.53 -0.4,0.88 -1.62999,0.18 0.48,3.24 -1.9,0.98 0.72,1.7 -0.35,2.21 -2.05,1.03 -0.35,2.66 0.6,1.84 1.88,1.25 1.3,0.03 0.05,1.73 0.62,0.6 -0.5,2.59 0.68,1.78 -1.8,1.81 1.15,3.11 -1.78,1.83 1.63,2.06 -1.2,1.33 -0.08,1.73 -1.27,0.4 -0.43,0.88 0.43,2.63 -0.98,2.16 1.15,1.31 -0.27,1 -1.2,1.33 -2.65,1.05 1.87,2.49 -2.82,2.73 1.5,2.21 -1.43,2.35 0.3,2.66 0.95,0.9 1.88,-0.37 0.92,0.73 -23.61,11.1 -2.7,1.46 -1.02,1.75 11.55,31.6 -0.85,1.35 -5.45,2.28 -0.63,0.75 -0.17,3.93 -0.98,1.1 -4.22,2.21 0.07,1.55 3.23,0.67 -0.08,1.81 -2.82,1.6 -1.58,6.11 -3.7,2.3 -0.43,2.38 5.16,4.63 1.72,6.45 2.7,0.23 -1.65,3.38 0.63,2.2 5.5,4.18 5,1.65 1.23,1.87 -0.25,1.58 -1.05,1.15 -4.95,2.2 -2.91,2.28 -1.35,3 -0.62,3.5 0,0 -0.98,1.75 0.08,1.67 10.93,10.8 -0.4,6.08 0.45,4.75 1.2,1.6 3.02,0.95 0.25,1.25 -0.82,1.42 -4.33,1.33 -1.42,2.27 -3.63,1.75 -2.8,3.47 -2.13,1.8 -3.95,1.75 -0.77,1.5 -6.51,2.52 0.1,1.92 1.2,2.8 -2.52,5.65 1.87,4.67 -0.57,3.59 1.05,5.21 0,0 -0.95,-0.69 -0.98,0.4 0.3,4.22 -1.75,3.8 -8.45,4.39 -8.61,3.25 -0.97,-1.33 0.12,-5.36 -2.45,-4.7 2.91,-2.72 -0.33,-1.92 -4.8,-1.87 -4.08,-0.03 -2.22,1.22 -0.88,-1.14 -0.23,-2.95 -2.17,-1.2 -8.23,0.67 -2.15,0.85 -3.38,-2.44 -5.27,1.59 -1.88,-1.39 -0.3,-3.67 -1.45,0.19 -7.28,-4.82 -2.3,0.06 -2.47,1.29 -2.03,3.15 -2.4,1.9 -18.51,10.56 -51.29,0.7 -5.06,-8.79 0.78,-2.92 -0.3,-1.78 0,0 -1.23,-1.57 0.05,-2.65 -2.92,-3.79 0.27,-1.68 -1.27,-4.72 0.57,-1.82 -1.3,-1.77 -0.82,-4.55 0.65,-1.2 1.82,0.7 2,-1.7 -1.12,-2.37 -0.38,-5.33 1.55,-6.97 1.43,-1.03 1.42,1.05 0.85,-0.9 1.8,0.03 -0.25,-1.42 1.41,-1.03 -1.1,-1.38 0.32,-1.44 0.62,-0.61 1.31,0.38 2.17,-2.8 2.35,0.22 0.85,-4.97 -5.5,-3.38 -1.9,1.15 -5.13,-0.92 -0.72,0.55 -0.5,2.07 -1,-0.3 -2.13,0.65 -2.05,-1.07 -1,-1.5 -1.55,-0.1 -1.03,-0.88 -2,-4.62 -2.67,-0.55 -0.58,-0.65 -0.32,-3.86 1.99,-2.07 -2.17,1.8 -1.8,-0.6 -0.5,-1 -0.75,-2.65 0.15,-4.98 -2.65,-5.85 -0.08,-9.99 -1.05,-1.4 -0.2,-2.95 -2.22,-1.48 0.25,-1.98 -1.13,-2 2.33,-1.37 -0.45,-3.03 2.78,-0.63 1.14,-2.6 1.76,-1.36 0.85,-3 -1.53,-6.69 0.75,-3.05 1.58,-2.83 0.35,-8.39 1.22,-1.23 -0.37,-1.9 2.92,-1.98 0.75,-1.76 -0.05,-1.6 -1.87,-2.43 0.98,-5.03 0,0 1.94,0.26 2.16,-0.79 0.57,-1.6 1.96,0.55 1.09,-0.72 -0.06,-1.01 -1.06,-0.47 0.91,-2.04 -0.43,-1.74 2.47,-0.57 2.58,-1.19 2.71,0.04 4.79,0.04 0.8,-1.81 1.63,0.33 2.1,-0.81 0.06,-2.86 2.19,0.41 1.48,2.2 2.56,-0.32 0.21,-1.3 1.02,-0.66 -0.76,-1.29 4.76,-2.15 -0.14,-1.41 1.4,-1.91 2.71,1.48 0.61,-1.32 -0.43,-2.03 1.73,-1.76 2.23,-2.18 3.31,-1.2 2.1,-0.78 3.61,-1.49 2.19,-1 2.38,-0.59 0.73,-0.93 4.26,2.29 0.76,-2.01 1.2,0.34 0.93,-3.08 1.31,-0.12 0.7,1.31 2.44,-2.22 1.8,0.53 1.5,-1.67 1.41,-0.03 0.85,-2.57 1.2,-0.78 2.01,0.1 3.53,0.3 16.97,1.78 2.1,-0.38 4.56,-2.7 3.28,-1.5 21.46,-1.06 30.88,-2.63 1.01,-0.86 1.12,-2.83 -0.8,-4.53 3.47,-5.84 3.95,-2.33 8.45,-2.63 2.95,-2.56 1.8,-3.15 -0.6,-2.12 2.32,0.56 1.03,-1.43 1.07,-0.65 1,-2.07 1.19,-0.31 0.28,-0.99 -0.87,-0.45 0.39,-1.61 0.78,-0.15 0.18,-0.97 2.23,-2.11 1.2,-0.39 0.22,-1.58 2.2,-1.65 -0.7,-1.18 3.56,-1.76 1.41,-3.41 0,0 z" 
                fill="rgb(151, 144, 238)" 
                stroke="white" 
                stroke-width=".7px"
                title="Ouham" 
                id="CF-AC" 
            />
        </svg>