<svg xmlns="http://www.w3.org/2000/svg" viewBox="47.11289500000006 283.8615000000002 194.369995 208.23000000000002" width="194.369995" height="208.23000000000002">
            <path 
                d="m 195.86288,285.5015 -0.96,2.55 1.27,2.61 -0.3,3.25 1.61,0.97 1.7,-0.37 3.31,2.17 -0.07,6.28 2.06,1.61 3.30001,0.05 6.05,5.86 0.21,2.13 2.34,2.62 0,0 -0.98,5.03 1.87,2.43 0.05,1.6 -0.75,1.76 -2.92,1.98 0.37,1.9 -1.22,1.23 -0.35,8.39 -1.58,2.83 -0.75,3.05 1.53,6.69 -0.85,3 -1.76,1.36 -1.14,2.6 -2.78,0.63 0.45,3.03 -2.33,1.37 1.13,2 -0.25,1.98 2.22,1.48 0.2,2.95 1.05,1.4 0.08,9.99 2.65,5.85 -0.15,4.98 0.75,2.65 0.5,1 1.8,0.6 2.17,-1.8 -1.99,2.07 0.32,3.86 0.58,0.65 2.67,0.55 2,4.62 1.03,0.88 1.55,0.1 1,1.5 2.05,1.07 2.13,-0.65 1,0.3 0.5,-2.07 0.72,-0.55 5.13,0.92 1.9,-1.15 5.5,3.38 -0.85,4.97 -2.35,-0.22 -2.17,2.8 -1.31,-0.38 -0.62,0.61 -0.32,1.44 1.1,1.38 -1.41,1.03 0.25,1.42 -1.8,-0.03 -0.85,0.9 -1.42,-1.05 -1.43,1.03 -1.55,6.97 0.38,5.33 1.12,2.37 -2,1.7 -1.82,-0.7 -0.65,1.2 0.82,4.55 1.3,1.77 -0.57,1.82 1.27,4.72 -0.27,1.68 2.92,3.79 -0.05,2.65 1.23,1.57 0,0 -2.1,0.56 -1.93,2.12 -5.45,0.42 -6.53,2.63 -3.34999,-0.23 -3.27001,3.22 -3.51,1.77 -0.81999,1.2 0.1,2.8 -4.13,2.95 -2.33001,3.69 -3.05,1.35 -2.37,2.69 -3,0.93 0,0 -0.83,-1.87 -3.75,-4.12 -0.95,-3.95 -5.75,-4.02 -1.08,-1.97 -5.43,-2.4 -4.2,-5.32 -1.2,-2.14 0.23,-3.75 -0.53,-0.67 -3.12,-0.66 -2.4,0.23 -3.03,7.02 -4.85,3.19 -3.45,0.8 -2.91,-1.2 -3.3,0.21 -1.25,-0.68 -3.67,-4.67 -6.38,-2.15 -4.9,-4.27 -0.44999,-0.55 0.47,-5.42 -2.08001,-2.57 -0.22,-11.44 -2.1,-4.2 -6.08,-6.55 1.08,-2.43 6.82,-6.34 0.25,-2.08 -1.27,-1.6 -2.23,-1.57 -4.1,3.6 -4.52,0.92 -6.13,3.05 -2.5,0.5 -1.9,2.82 -5.959995,-1.52 -4.37,2.35 -3.6,-2.6 -2.93,-3.85 -0.33,-2.65 -2,-2.3 -2.07,-13.7 -1.95,-4.2 -8.21,-5.93 -0.52,-1.28 0.65,-3.93 -0.48,-0.9 -1,-0.2 -5.97,2.3 -2.7,0.38 -8.01,3.9 -4.42,-0.43 0,0 2.57,-5.4 4.55,-1.53 2.72,0.44 1.35,-1.36 0.75,-3.54 1.37,-1.94 2.63,-6.82 2.25,-3.06 -0.41,-1.82 0.8,-5.51 1.9,-3.49 2.42,-0.34 2.58,-6.04 -0.82,-0.63 -0.26,-2.81 2.27,-3.45 -2.01,-0.98 0.77,-1.35 1.21,-0.78 1.23,-2.36 0.95,-0.2 14.9,-12.46 2.85,-3.59 0.57,-2.3 2.82,-2.33 0.51,-1.72 5.179995,1.32 15.09,-0.78 -0.03,1.28 1.38,2.39 1.12,0.35 0.99,1.52 1.7,-0.37 1.32,0.63 0.87,1.24 8.98,-2.34 1.95,-1.05 3.94,-0.42 5.79,-4.55 0.92,-3.33 1.52,-1.01 3.46,-0.88 5.31,-0.27 1.98,-1.79 4.49,0.71 4.59,-2.35 1.36,-1.73 8.22,-1.74 3.4,-4.3 -1.18,-0.81 -0.06,-1.16 0.85,-0.56 -1.23,-1.91 2.38,-3.36 1.47,0.25 0.4,1.58 2.64,-0.49 0.59,-1.65 1.66,-1.69 0.43,-1.66 2.1,-0.92 1.65,0.11 0.28,-1.24 2.91,-1.07 z" 
                fill="rgb(151, 144, 238)" 
                stroke="white" 
                stroke-width=".7px"
                title="Ouham-Pendé" 
                id="CF-OP" 
            />
        </svg>