<svg xmlns="http://www.w3.org/2000/svg" viewBox="77.61288500000015 609.0715000000004 192.1400049999999 183.16999999999962" width="192.1400049999999" height="183.16999999999962">
            <path 
                d="m 208.74288,610.9415 2.36001,1.54 1.94999,3.48 3.65,3.07 2.72,5.13 3.98,5.15 1.8,4.31 1.5,1.6 3.03,2.49 5.63001,0.52 5.12,3.39 6.68,1.27 13.96,6.32 4.37,5.01 4.26,7.99 0,0 -1.88,0.97 -2.84,4.9 -1.26,0.18 -4.49,-2.26 -4.17,1.74 -0.38,2.46 -0.8,0.37 -6.05,1.24 -1.36001,-0.88 -8.91,2.42 -0.5,1.59 -1.55,1.52 -2.21,-1.41 -0.57,-1.56 -2.56,0.55 -1.69,-1.74 -4.25,0.88 -3.28,-0.67 -0.02,2.72 -1.14,1.4 -0.8,0.08 -2.81,-0.97 -1.62,-1.96 -4.33,-1.23 -7.43,1.37 -5.53,3.99 -1.56,2.74 -1.46,11.11 -2.03,3.31 -0.39,2.07 0.74,2.61 -4.74,8.39 0.59,3.52 2.9,4.91 -4.6,5.5 -0.29,8.51 3.11,2.58 -0.42,3.42 -29.53999,55.66 -2.45,-2.23 0.57,-2.52 -2.02001,-6.8 -2.97,-3.9 -1.12,-3.15 -1.75,-1.43 -0.74,-1.87 0.85,-2.34 -1.6,-3.18 1.58,-6.3 -1.56999,-3.81 0.69999,-3.17 1.31,-2.25 -2.47999,-0.97 0.24,-3.64 -1.24,-3.51 2,-1 1.43,-1.73 0.11,-1.17 -1.55,-6.16 -1.25,-1.1 -2.03,-3.86 -0.07,-1.4 -1.67,-0.63 -1.11,-1.73 -2.04,0.07 -1.2,1.11 -3.84,-4.28 -3.44,-5.46 -1.5,-0.13 -0.93,-0.99 -4.41,0.62 -0.63,0.76 -0.64,-0.59 -26.190005,-30.5 -20.37,-21.26 0,0 10.41,-6.01 2.38,-2.41 2.1,-0.87 3.47,0.35 1.35,3.43 2.51,0.08 2.900005,-0.83 1.65,-1.54 2.3,-5.85 3.75,-3.51 9.4,-4.81 11.68,-4.33 4.08,-0.57 14.53,-1.27 3.08,2.11 9.55,2.3 4.8,2.39 2.4,2.34 5.03,-0.28 2,0.57 4.15,4.86 1.2,0.47 1.95,-1.86 0.86,-3.56 6.47,-5.46 3.55,-4.75 1.23,-3.59 -0.42,-4.88 0.39,-4.21 5.81,-10.98 z" 
                fill="rgb(151, 144, 238)" 
                stroke="white" 
                stroke-width=".7px"
                title="Sangha" 
                id="CF-SE" 
            />
        </svg>