<svg xmlns="http://www.w3.org/2000/svg" viewBox="574.9228799999997 0.2714993000000615 260.5100000000002 220.1200007" width="260.5100000000002" height="220.1200007">
            <path 
                d="m 731.41288,1.1014993 2.35,1.27 3.93,-1.17 3.91,1.6 7.08,0.46 1.95,1.14 1.14,1.62 10.14,1.21 -0.37,1.22 0.73,2.0699997 3.19001,2.93 0.07,1.49 4.93,6.2 2,4.86 11.84,7.72 2.66,3.9 2.84,2.34 1.65,2.35 2.87,1.72 2.03,2.92 3.42999,1.81 32.98,53.000001 2.67,20.31 -6.24,11.4 2.44,0.51 -1.27999,1.88 -0.71001,3.8 0.93,2.55 2.16,-1.01 0.86,1.64 -1.24,2.93 -1.16,1.13 -1.05,4.6 0.05,1.77 1.41,3.45 -0.37,1.15 -1.69,0.13 -1.1,1.11 -0.84,2.61 -5.86,4.79 -1.64,0.35 -2,0.05 -1.21,0.05 -0.17,2.06 -1.46,1.92 0,0 -1.32,-1.8 -0.93,-2.84 0.8,-3.65 1.08,-1.34 -2.43,-0.63 -2.42,0.23 -3.91,2.24 -2.27,3.75 -2.43,13.21 -4.57,3.25 -6.18,0.85 -9.75,7.12 -1.11,2.06 0,8.43 -0.7,1.86 -1.4,1.2 -1.7,0.21 -2.65,-0.99 -6.33,1.01 -11.1,4.55 -12.93,0.1 -8.13,4.93 -5.33,5.37 -3.52,0.33 -4.33,-1.58 -3.93,0.75 0,0 0.2,-5.35 -1.22,-1.46 -4.85,-1.33 -3.95,0.02 -6.41,-1.86 -2.05,-2.16 -4.48,-2.01 -1.42,-1.41 -3.65,-15.61 0.67,-3.07 -6.3,-3.35 -1.85,-5.76 -6.05,-3.62 -2.75,-4.23 -4.61,-2.24 -2.2,-7.27 -2.97,-3.55 -1.38,-9.4 -5.1,-4.08 -1.27,-4.18 -5.86,-5.06 -1.95,-3.68 -3.87,-0.25 -3.13,0.65 -1.8,-1.21 -0.38,-4.79 -1.25,-4.26 0.58,-2.69 -1.18,-3.46 -4.12,-0.38 -2.08,3.71 -6.58,3.28 -1.5,2.27 -2.4,1.28 -1.5,3.68 -3.28,3 -4.45,1.66 -3.62,-0.25 -2.46,1.24 -3.35,-0.16 -5.35,2.68 -3.5,6.07 -2.23,1.48 -1.6,-0.37 -2.52,1.15 -4.23,5.27 -1.8,-0.71 -2.08,0.2 -3.72,-5.49 0,0 1.16,1.32 0.9,-0.22 -0.04,-2.94 1.6,-1.95 1.96,-0.28 -0.22,-1.04 1.13,-1.47 -0.18,-0.75 3.67,-0.19 1.09,-4.14 1.51,0.69 0.67,-0.4 -0.01,-4.4 3.29,-0.39 -0.06,-1.23 -1.4,-0.13 -0.42,-0.62 2.39,-0.28 -0.01,-0.83 -1.1,-0.96 1.55,-1.78 -2.77,-1.57 3.29,-0.31 -1.03,-1.95 0.18,-1.8 1.38,1.34 1.82,0.34 0.72,-0.82 -1.23,-1.91 0.51,-1.4 0.79,-0.24 2.16,1.02 0.98,-1.2 1.66,0.17 2.05,-1.38 0.19,-2.43 1.41,-2.65 4.56,-3.98 1.37,-0.33 0.34,-3.210001 0.81,-0.45 0.28,-1.42 2.49,-1.28 1.04,-2.27 0.79,-0.3 1.78,0.73 1.37,1.6 1.05,-2 1.02,1.62 1.4,0.63 1.65,-0.45 0.69,-1.7 1.34,0.34 1.49,-1.45 1.26,-3.63 1.14,-0.82 1.89,-2.79 1.22,-0.55 -0.44,-3.34 1.7,-1.13 -0.08,-1.46 1.76,-1.13 0.56,-2.03 1.46,-0.26 1.16,-2.34 1.89,-1.12 1.56,1.59 2.47,-0.08 2,-0.63 1.03,-1.2 1.3,0.43 1.14,-0.66 1.7,0.19 0.66,-0.52 -1.35,-1.41 1.98,-1.02 -0.56,-1.25 2.62,0.16 2.04,-2.31 0.83,-1.68 -1.29,-2.44 0.44,-0.88 1.15,0.22 0.2,-2.49 2.52,-2.73 -1.52,-1.38 0.4,-1.55 -0.69,-1.82 -1.64,-1.27 -1.36,-2.73 1.38,-4.22 -0.53,-3.9 0.57,-1.33 0.03,-3.85 0.62,-0.17 1.63,1.24 2.7,-2.47 -0.49,-3.09 0.59,-2.6 -0.49,-1.83 0.38,-3.88 2.3,-1.43 1.67,-2.66 1.06,-0.73 1.87,0.09 1.41,-2.13 1.66,0.66 1.96,-0.84 1.85,0.24 1.01,1.1 0.67,-0.09 0.18,-1.19 1.83,0.69 1.73,-0.89 1.33,-1.06 1.76,0.18 3.43,-1.16 2.77,1.38 4.22,0.43 2.06,-0.71 1.88,-2.2599997 3.66,-0.82 2.64,-0.5 2.19,-0.76 3.33,-2.22 3.9,-0.24 1.28,-0.32 1.62,-0.8 1.97,0 1.67,-1.62 1.24,0.06 1.08,-1.04 2.29,0.18 1.35,-0.91 z" 
                fill="rgb(151, 144, 238)" 
                stroke="white" 
                stroke-width=".7px"
                title="Vakaga" 
                id="CF-VK" 
            />
        </svg>