<svg xmlns="http://www.w3.org/2000/svg" viewBox="300.6499999999999 75.36000000000001 46.290000000000134 39.249999999999986" width="46.290000000000134" height="39.249999999999986">
            <path 
                d="m 320.79,80.86 -0.63,-1.35 -0.13,-0.41 -3.89,-3.07 -1,-0.67 -2.87,0.16 -0.37,0 -0.12,0.14 0,0.14 -1.36,1.77 -0.24,0.54 0.12,0.27 0.14,1.35 0.26,1.49 -0.25,0.41 -0.24,0.27 -0.75,0.01 -3.62,-0.78 -1.63,-0.53 -0.5,-0.13 -0.74,0.14 -0.75,0.28 -0.12,0.14 -0.49,0.54 -0.13,0.14 -0.47,2.85 -0.36,2.16 0,0.28 0.04,4.59 0.02,2.3 0.26,0.81 0.87,0.67 1.25,0.53 0.64,1.35 -0.62,0.68 0.88,1.07 -0.61,1.9 0,0.14 0.51,0.67 0.88,1.34 2,0.93 1.87,0.39 0.62,0 0.25,0.81 -0.12,0.4 0.13,0.41 0.38,0.81 1.13,1.74 1.37,-0.01 1,-0.14 0.25,-0.14 0.37,-0.54 0.37,-0.14 0.75,0.13 0.5,0.13 0.62,0.26 2.24,0.12 0.25,-0.01 0.5,0 0.25,0 1.25,1.07 0.63,0.53 0.75,1.08 0.13,0.95 0.25,0.54 0.26,0.26 1,1.35 0,0.13 1.62,-0.55 0.12,0 1.24,-0.28 1.88,1.33 1.37,-0.28 0.12,-0.41 0.24,-0.27 0.25,-0.41 -0.25,-0.81 0.24,-0.4 0.37,-0.41 0.74,-0.82 0.62,-0.55 0.37,-1.08 0.99,-0.15 0.88,1.08 1.99,-0.15 0.13,-0.14 2.23,-0.42 2.49,-0.29 0.5,0.27 0.63,0.4 0.87,-0.15 0.25,-0.13 0.97,-2.85 0.37,-1.22 0.36,-2.31 -1.74,0.56 -0.02,-2.71 1.48,-1.9 0.12,-0.27 1.61,-1.37 0.13,-0.27 -0.13,-0.54 -1.25,-0.94 -0.63,-0.4 -1,-0.67 -1.25,-0.93 -0.38,-0.54 -0.76,-1.62 0.49,-1.49 0.37,-0.55 0.13,-0.4 -0.13,-0.41 0,-0.13 -1.26,-1.35 -0.37,-0.27 -1.38,-1.74 -0.13,-0.27 -0.13,0 -3.86,0.03 -6.5,-2.65 -1.98,1.5 -0.12,0 -4.24,-0.64 -0.13,-0.13 -1.12,-0.53 -0.13,-0.14 0,-0.27 -0.26,-1.21 z" 
                fill="rgb(151, 144, 238)" 
                stroke="white" 
                stroke-width=".7px"
                title="Adjuntas" 
                id="PR-AJ" 
            />
        </svg>