<svg xmlns="http://www.w3.org/2000/svg" viewBox="191.95999999999984 28.569999999999997 30.33000000000004 29.059999999999814" width="30.33000000000004" height="29.059999999999814">
            <path 
                d="m 213.56,30.61 0.23,-1.62 -0.4,-0.42 -0.03,0 0,0.08 -0.07,0 0,0.24 -0.08,0 0,0.08 -0.37,0 0,0.08 -0.15,0 0,0.07 -0.07,0 0,0.08 -0.08,0 0,0.24 -0.07,0 0,0.08 -0.08,0 0,0.08 -0.3,0 0,0.08 -0.22,0 0,0.08 -0.15,0 0,0.07 -0.15,0 0,0.08 -0.08,0 0,0.08 -0.07,0 0,0.08 -0.08,0 0,0.08 -0.22,0 0,0.08 -0.15,0 0,0.08 -0.15,0 0,0.08 -0.08,0 0,0.08 -0.07,0 0,0.07 -0.08,0 0,0.08 -0.29,0 0,0.08 -0.15,0 0,0.08 -0.53,0 0,0.08 -0.07,0 0,0.08 -0.38,0 0,0.08 -0.22,0 0,0.24 -0.08,0 0,0.15 -0.07,0 0,-0.08 -0.23,0 0,0.08 -0.22,0 0,0.08 -0.15,0 0,0.08 -0.15,0 0,0.08 -0.08,0 0,0.08 -0.3,0 0,0.08 -0.07,0 0,0.08 -0.15,0 0,0.07 -0.15,0 0,0.08 -0.15,0 0,0.08 -0.15,0 0,0.16 -0.07,0 0,0.08 -0.15,0 0,0.08 -0.3,0 0,0.08 -0.15,0 0,0.08 -0.23,0 0,0.07 -0.22,0 0,0.08 -0.08,0 0,0.08 -0.07,0 0,0.08 -0.15,0 0,0.08 -0.15,0 0,0.08 -0.08,0 0,0.16 -0.15,0 0,0.08 -0.07,0 0,0.07 -0.08,0 0,0.16 0.08,0 0,0.32 -0.08,0 0,0.16 -0.07,0 0,0.07 -0.08,0 0,0.08 -0.15,0 0,0.08 -0.07,0 0,0.16 -0.08,0 0,0.24 -0.14,0 0,0.15 -0.23,0 0,0.08 -0.07,0 0,0.08 -0.15,0 0,0.08 -0.08,0 0,0.08 -0.15,0 0,0.08 -0.3,0 0,0.08 -0.07,0 0,0.08 -0.45,0 0,0.08 -0.08,0 0,0.08 -0.22,0 0,0.07 -0.22,0 0,0.08 -0.16,0 0,0.08 -0.45,0 0,0.08 -0.22,0 0,0.16 -0.45,0 0,0.08 0.08,0 0,0.23 -0.08,0 0,0.08 -0.3,0 0,0.08 -0.07,0 0,0.08 -0.08,0 0,0.08 -0.45,0 0,0.16 -0.22,0 0,0.08 -0.23,0 0,0.15 -0.29,0 0,0.08 -0.08,0 0,0.08 -0.07,0 0,0.08 -0.08,0 0,0.24 -0.45,0 0,0.08 -0.22,0 0,0.07 -0.15,0 0,0.08 -0.08,0 0,0.08 -0.15,0 0,0.08 -0.22,0 0,0.08 -0.08,0 0,-0.08 -0.07,0 0,0.08 -0.08,0 0,0.08 -0.45,0 0,0.08 -0.15,0 0,0.08 -0.22,0 0,0.08 -0.3,0 0,0.07 -0.07,0 0,0.08 -0.23,0 0,0.08 -0.15,0 0,0.08 -0.07,0 0,0.08 -0.08,0 0,0.08 -0.22,0 0,0.08 -0.23,0 0,0.08 -0.07,0 0,0.08 -0.3,0 0,0.08 -0.68,0 0,0.07 -0.45,0 0,0.08 -0.67,0 0,0.08 -0.15,0 0,0.08 -0.07,0 0,0.08 -0.23,0 0,0.08 -0.67,0 0,0.08 -0.15,0 0,0.08 -0.08,0 0,0.07 -0.07,0 0,0.08 -0.07,0 0.12,0.12 3.17,4.15 0.38,0.95 -0.35,2.44 4.28,3.32 0.26,0.27 0.25,0.13 0.12,0 3.01,1.04 0.63,0.4 2.04,4.16 1.38,0.8 0.5,-0.28 0.62,-0.41 1.36,-0.7 0.25,-0.14 2.13,0.92 0.99,-0.15 0.12,-0.54 0.87,-0.42 1.25,-0.42 1.11,-0.42 3.14,1.58 1.86,-0.43 0,-0.27 -1.16,-3.23 0.86,-1.77 -0.65,-1.89 -0.12,-0.27 -0.14,-0.67 0.13,-0.14 0.74,-0.55 0.85,-1.63 0.24,-1.5 -0.26,-1.08 0.35,-2.17 -1.01,-1.2 -0.42,-3.92 -1.62,0.7 -0.63,-0.4 -0.25,-0.27 -1.25,-0.66 -0.25,-0.13 -2.38,-0.38 -0.13,0.01 0.49,-0.96 -0.13,-0.81 -1.15,-2.42 z" 
                fill="rgb(151, 144, 238)" 
                stroke="white" 
                stroke-width=".7px"
                title="Aguada" 
                id="PR-AD" 
            />
        </svg>