<svg xmlns="http://www.w3.org/2000/svg" viewBox="474.6599999999999 60.49 33.520000000000095 29.919999999999995" width="33.520000000000095" height="29.919999999999995">
            <path 
                d="m 507.81,62.38 0,-0.54 0.37,-1.35 -1.37,1.08 -0.5,0.41 -1,0.4 -0.99,-0.27 -3,1.22 -0.62,0.27 -1.49,2.98 -1.62,0.82 -0.75,0.27 -1,-0.54 -2.37,-0.54 -6.23,0.55 -4.24,-0.94 -0.5,0.14 -1.37,0.81 -0.25,0.41 -1.37,-0.13 -1.12,0.68 -0.49,1.08 -0.88,0.68 -0.74,0.54 -1.62,2.71 0.63,0.81 2.74,2.97 0.01,2.84 0.5,1.62 2,1.49 1.62,0.94 0.12,0 0.13,0.14 0.37,0.13 0.37,-0.13 0.38,-0.14 0.62,-0.14 1.49,-1.08 0.25,-0.54 0.75,-0.95 0.62,0.67 0,0.14 0,0.95 0,0.4 0.26,3.65 0.38,3.52 1.12,0 2.99,-2.44 0.24,-0.14 1.75,-0.81 0.24,-0.14 2.62,-1.22 1.37,-0.54 0.62,-0.68 0.5,-0.54 0.87,-1.08 2.86,-3.25 0.25,-0.54 1.87,-3.39 0.12,-2.7 0.5,-2.44 1.12,-4.33 0.87,-3.79 z" 
                fill="rgb(151, 144, 238)" 
                stroke="white" 
                stroke-width=".7px"
                title="Aguas Buenas" 
                id="PR-AB" 
            />
        </svg>