<svg xmlns="http://www.w3.org/2000/svg" viewBox="210.81999999999985 0.7899999999999999 30.550000000000153 35.83999999999998" width="30.550000000000153" height="35.83999999999998">
            <path 
                d="m 230.22,1.03 -1.36,-0.24 -0.07,0 0,0.16 -0.23,0 0,0.08 -0.67,0 0,0.15 -1.13,0 0,-0.07 -0.29,0 0,-0.16 -0.23,0 0,-0.08 -0.07,0 0,-0.08 -0.45,0 0,0.08 -0.38,0 0,0.08 -0.82,0 0,0.08 -0.53,0 0,0.08 -0.37,0 0,0.07 -0.6,0 0,0.08 -0.3,0 0,0.08 -0.07,0 0,0.08 -0.15,0 0,0.08 -0.23,0 0,0.08 -0.3,0 0,0.08 -0.3,0 0,0.08 -0.07,0 0,0.08 -0.08,0 0,0.15 -0.15,0 0,0.16 -0.22,0 0,0.08 -0.08,0 0,0.08 -0.22,0 0,-0.08 -0.07,0 0,0.08 -0.08,0 0,0.08 -0.37,0 0,-0.08 -0.08,0 0,-0.08 -0.22,0 0,-0.08 -0.3,0 0,0.08 -0.15,0 0,0.08 -0.38,0 0,0.24 -0.15,0 0,0.15 -0.07,0 0,0.08 -0.3,0 0,0.08 -0.23,0 0,0.08 -0.07,0 0,0.08 -0.15,0 0,0.08 -0.15,0 0,0.08 -0.07,0 0,0.16 -0.08,0 0,0.07 -0.07,0 0,0.08 -0.08,0 0,0.08 -0.22,0 0,0.08 -0.23,0 0,0.08 -0.07,0 0,0.08 -0.08,0 0,0.08 -0.07,0 0,0.08 -0.08,0 0,0.08 -0.07,0 0,0.08 -0.08,0 0,0.07 -0.07,0 0,0.08 -0.08,0 0,0.16 -0.07,0 0,0.08 -0.08,0 0,0.08 -0.07,0 0,0.08 -0.08,0 0,0.08 -0.07,0 0,0.08 -0.15,0 0,0.07 -0.15,0 0,0.08 -0.15,0 0,0.08 -0.15,0 0,0.08 -0.07,0 0,0.08 -0.08,0 0,0.32 -0.07,0 0,0.08 -0.16,0 0,-0.08 -0.07,0 0,0.08 -0.07,0 0,0.15 -0.08,0 0,0.24 -0.07,0 0,0.16 0.07,0 0,0.23 -0.07,0 0,0.16 -0.08,0 0,0.08 -0.07,0 0,0.16 -0.08,0 0,0.08 -0.07,0 0,0.16 -0.08,0 0,0.08 -0.22,0 0,0.15 -0.15,0 0,0.08 -0.15,0 0,0.08 -0.15,0 0,-0.08 -0.38,0 0,0.08 -0.22,0 0,-0.08 -0.23,0 0,0.08 -0.22,0 0,0.08 -0.07,0 0,0.08 -0.15,0 0,0.08 -0.08,0 0,0.08 -0.07,0 0,-0.08 -0.08,0 0,0.08 -0.07,0 0,-0.08 -0.15,0 0,0.08 -0.08,0 0,0.08 -0.07,0 0,0.08 -0.08,0 0,0.07 -0.07,0 0,0.24 -0.08,0 0,0.24 -0.07,0 0,0.15 -0.08,0 0,0.08 -0.15,0 0,0.16 -0.07,0 0,0.08 -0.08,0 0,0.32 -0.07,0 0,0.63 -0.08,0 0,0.08 -0.15,0 0,0.08 -0.15,0 0,0.07 -0.07,0 0,0.08 -0.08,0 0,0.24 0.08,0 0,0.08 -0.08,0 0,0.24 0.08,0 0,0.47 -0.08,0 0,0.24 -0.07,0 0,0.71 0.07,0 0,0.47 -0.07,0 0,0.24 0.07,0 0,1.02 0.08,0 0,0.4 0.07,0 0,0.31 0.08,0 0,0.16 0.07,0 0,0.32 0.08,0 0,0.16 0.07,0 0,0.15 0.08,0 0,0.08 0.15,0 0,0.08 0.07,0 0,0.16 0.15,0 0,0.24 0.08,0 0,0.07 0.07,0 0,0.16 0.08,0 0,0.08 0.07,0 0,0.24 0.08,0 0,0.16 0.07,0 0,0.08 0.15,0 0,0.07 0.15,0 0,0.08 0.15,0 0,0.48 0.08,0 0,0.07 -0.08,0 0,0.24 0.08,0 0,0.08 0.07,0 0,0.16 0.08,0 0,0.08 0.07,0 0,0.16 0.08,0 0,0.55 0.07,0 0,0.23 -0.07,0 0,0.08 0.07,0 0,0.24 0.07,0 0,0.16 0.08,0 0,0.16 0.07,0 0,0.07 0.08,0 0,0.24 0.07,0 0,0.16 -0.15,0 0,0.08 -0.07,0 0,0.16 0.07,0 0,-0.08 0.15,0 0,-0.08 0.15,0 0,0.08 0.08,0 0,0.31 0.07,0 0,0.08 0.08,0 0,0.08 0.07,0 0,0.4 0.08,0 0,0.23 0.07,0 0,0.16 0.08,0 0,0.16 0.07,0 0,0.71 0.08,0 0,0.55 0.07,0 0,0.16 0.08,0 0,0.16 0.07,0 0,0.07 0.08,0 0,0.24 -0.08,0 0,0.4 0.08,0 0,0.31 -0.08,0 0,0.16 -0.07,0 0,0.32 -0.08,0 0,0.15 -0.07,0 0,0.24 -0.08,0 0,0.16 0.08,0 0,0.08 0.07,0 0,0.15 0.15,0 0,0.16 0.08,0 0,0.48 -0.08,0 0,0.07 -0.07,0 0,0.24 -0.08,0 0,0.47 -0.07,0 0,0.4 -0.08,0 0,0.31 -0.07,0 0,0.08 -0.08,0 0,0.08 -0.07,0 0,0.08 -0.08,0 0,0.16 -0.07,0 0,0.08 -0.08,0 0,0.08 -0.07,0 0,0.08 -0.08,0 0,0.08 -0.07,0 0,0.07 -0.08,0 0,0.08 -0.07,0 0,0.08 -0.05,0 0.4,0.42 -0.23,1.62 1.15,2.42 0.13,0.81 -0.49,0.96 0.13,-0.01 2.38,0.38 0.25,0.13 1.25,0.66 0.25,0.27 0.63,0.4 1.62,-0.7 1.47,-2.18 0.86,-1.77 -0.01,-0.41 -0.26,-0.81 -0.25,-0.54 1.6,-1.64 2.1,-2.33 3.58,-3.97 0.75,0.26 0.75,-0.01 0.74,-0.41 0.38,-0.28 1.48,-1.64 1.74,-0.29 0.12,-0.41 0.61,-1.23 -0.01,-1.35 4.86,-1.28 -0.02,-2.16 -0.38,0 -0.25,0.01 -0.15,-2.17 -1.02,-2.29 -2.76,-1.05 -1.62,0.02 -0.13,0.01 -0.75,-0.4 -0.13,-0.54 0.11,-1.22 -0.76,-1.07 -1.76,-1.2 -1.02,-1.61 -0.51,-0.94 z" 
                fill="rgb(151, 144, 238)" 
                stroke="white" 
                stroke-width=".7px"
                title="Aguadilla" 
                id="PR-AL" 
            />
        </svg>