<svg xmlns="http://www.w3.org/2000/svg" viewBox="439.6299999999999 95.33999999999997 28.000000000000114 29.510000000000034" width="28.000000000000114" height="29.510000000000034">
            <path 
                d="m 460.63,95.34 -1.37,1.63 -0.37,1.22 0.26,1.22 -2,-0.13 -0.12,-1.22 -0.13,-0.14 -2.62,-0.39 -1.86,-0.4 -1.25,-0.14 -0.37,0.14 -3.61,2.45 -1.49,0 -0.37,1.09 -0.13,0.27 -0.49,0.4 -0.13,-0.13 -1.37,-0.13 -0.37,0.14 -0.13,0 -0.24,0 -0.5,0.54 -0.74,1.63 -0.61,3.38 1.12,0.54 0,0.13 -0.13,0.41 -1.98,2.85 2.62,2.15 4.24,3.51 4.86,2.96 0.63,0.67 1.5,2.02 1.74,0.13 0.62,0.68 0.13,0.13 0.62,1.9 2.12,-0.15 2.11,-0.14 0.5,-1.76 0.12,-0.4 0,-0.81 -0.13,-0.41 0,-1.08 1.37,-0.41 1.49,-0.28 1.37,0 -0.26,-2.84 0,-0.27 -0.38,-2.98 1.37,-0.68 0.37,-0.4 -0.13,-2.3 0,-0.81 0.38,-0.28 0.24,-0.27 0.38,-0.67 0.12,-0.55 0,-1.48 -1,-0.54 0.12,-1.36 -2.12,-0.26 1.12,-1.36 -1.37,-0.8 2.11,-1.9 -5.86,-4.32 z" 
                fill="rgb(151, 144, 238)" 
                stroke="white" 
                stroke-width=".7px"
                title="Aibonito" 
                id="PR-AI" 
            />
        </svg>