<svg xmlns="http://www.w3.org/2000/svg" viewBox="500.400000000001 134.8899999999997 20.290000000000077 25.12000000000026" width="20.290000000000077" height="25.12000000000026">
            <path 
                d="m 517.16,155.92 0.08,0 0,-0.08 0.07,0 0,-0.08 0.07,0 0,-0.16 0.08,0 0,-0.08 0.08,0 0,-0.08 0.07,0 0,-0.15 0.07,0 0,-0.16 0.08,0 0,-0.08 0.07,0 0,-0.08 0.08,0 0,-0.08 0.15,0 0,-0.08 0.07,0 0,-0.07 0.08,0 0,-0.08 0.07,0 0,-0.08 0.08,0 0,-0.08 0.15,0 0,-0.16 0.07,0 0,-0.16 0.15,0 0,-0.07 0.08,0 0,-0.08 0.07,0 0,-0.08 0.15,0 0,-0.16 0.08,0 0,-0.08 0.07,0 0,-0.16 0.08,0 0,-0.07 0.07,0 0,-0.08 0.08,0 0,-0.08 0.07,0 0,-0.08 0.08,0 0,-0.08 0.07,0 0,-0.08 0.3,0 0,-0.08 0.07,0 0,-0.07 0.08,0 0,-0.08 0.15,0 0,-0.08 0.08,0 0,-0.08 0.14,0 0,-0.08 0.24,0 -0.02,-0.14 -0.62,-1.08 -0.13,-0.13 -0.25,-0.68 -0.12,-1.35 -0.62,-0.81 -0.38,-0.41 -2.11,-1.08 -0.99,-1.49 -1.37,-0.81 -0.75,-0.81 1.49,-2.3 -0.25,-0.81 0,-0.54 -0.12,-1.08 -0.25,-1.09 -1.12,-1.62 -2.37,-1.35 -0.24,-0.14 -4.85,0.95 -1,0.68 -0.74,0.68 -0.62,1.22 -1.37,1.08 -0.25,0 -0.99,0.27 -0.25,0.41 0,0.13 0.99,1.08 3.99,5.01 1.37,1.75 -0.13,1.9 -0.12,2.43 0.6,3.51 0.1,0 0,-0.07 0.23,0 0,0.07 0.15,0 0,0.08 0.15,0 0,0.16 0.07,0 0,0.24 0.15,0 0,0.08 0.08,0 0,0.07 0.07,0 0,0.08 0.08,0 0,0.32 0.07,0 0,0.08 0.38,0 0,0.07 0.07,0 0,0.16 -0.07,0 0,0.24 0.07,0 0,0.08 0.23,0 0,0.08 0.44,0 0,0.07 0.15,0 0,0.08 0.3,0 0,0.08 0.23,0 0,0.08 0.15,0 0,0.08 0.07,0 0,0.08 0.6,0 0,-0.08 0.38,0 0,0.08 0.15,0 0,0.08 0.07,0 0,0.15 0.08,0 0,0.08 0.22,0 0,0.08 0.3,0 0,0.08 0.15,0 0,0.08 0.07,0 0,0.08 0.08,0 0,0.08 0.07,0 0,0.08 0.08,0 0,0.07 0.22,0 0,0.24 0.08,0 0,0.39 0.07,0 0,0.16 0.08,0 0,0.08 0.07,0 0,0.08 0.08,0 0,-0.08 0.15,0 0,-0.08 0.07,0 0,-0.08 0.08,0 0,-0.16 0.07,0 0,-0.47 0.08,0 0,-0.08 0.45,0 0,-0.07 0.15,0 0,-0.08 0.3,0 0,-0.48 0.07,0 0,-0.31 0.08,0 0,-0.08 0.07,0 0,-0.08 0.07,0 0,-0.08 0.08,0 0,-0.08 0.07,0 0,-0.07 0.08,0 0,-0.16 0.07,0 0,-0.08 0.08,0 0,-0.16 0.07,0 0,-0.08 0.15,0 0,-0.08 0.23,0 0,-0.07 0.22,0 0,-0.08 0.3,0 0,0.08 0.08,0 0,0.07 0.15,0 0,0.08 0.07,0 0,0.08 0.23,0 0,-0.08 0.07,0 0,-0.23 0.08,0 0,-0.24 0.07,0 0,-0.16 0.07,0 0,-0.23 0.08,0 0,-0.24 0.07,0 0,-0.16 0.08,0 0,-0.07 z" 
                fill="rgb(151, 144, 238)" 
                stroke="white" 
                stroke-width=".7px"
                title="Arroyo" 
                id="PR-AR" 
            />
        </svg>