<svg xmlns="http://www.w3.org/2000/svg" viewBox="195.61999999999992 54.57 50.740000000000066 23.00999999999994" width="50.740000000000066" height="23.00999999999994">
            <path 
                d="m 229.19,56.12 -2.88,-0.5 -2.5,-1.05 -1.36,1.37 -0.87,0.14 -0.13,0.14 -1.86,0.43 -3.14,-1.58 -1.11,0.42 -1.25,0.42 -0.87,0.42 -0.12,0.54 -0.99,0.15 -2.13,-0.92 -0.25,0.14 -1.36,0.7 -0.62,0.41 -0.5,0.28 0.26,0.4 -0.25,0.14 -2.98,0.99 -0.75,0.01 -0.76,-0.81 -0.62,0.01 -1.86,1.11 -3.11,0.18 -0.62,0.82 -0.85,1.77 -0.09,0.1 0,0.06 0.15,0 0,0.08 0.45,0 0,-0.08 0.08,0 0,0.08 0.3,0 0,-0.08 0.22,0 0,-0.08 0.6,0 0,0.08 0.07,0 0,0.08 0.23,0 0,0.08 0.07,0 0,0.08 0.15,0 0,0.08 0.83,0 0,0.07 0.07,0 0,-0.07 0.68,0 0,0.07 0.29,0 0,0.08 0.3,0 0,0.08 0.08,0 0,0.08 0.07,0 0,0.16 0.08,0 0,0.08 0.3,0 0,0.08 0.07,0 0,-0.08 0.38,0 0,0.08 0.07,0 0,-0.08 0.08,0 0,0.08 0.44,0 0,0.08 0.31,0 0,0.07 0.37,0 0,0.08 0.15,0 0,0.08 0.07,0 0,0.08 0.38,0 0,0.08 0.22,0 0,0.08 0.23,0 0,0.08 0.15,0 0,0.08 0.15,0 0,0.07 0.15,0 0,0.32 0.07,0 0,0.08 0.08,0 0,0.16 0.15,0 0,0.08 0.07,0 0,0.07 0.08,0 0,0.08 0.07,0 0,0.08 0.08,0 0,0.08 0.07,0 0,0.16 0.07,0 0,0.16 0.08,0 0,0.07 0.07,0 0,0.08 0.08,0 0,0.08 0.07,0 0,0.08 0.08,0 0,0.24 0.07,0 0,0.08 0.08,0 0,0.47 0.07,0 0,0.32 0.08,0 0,0.23 0.07,0 0,0.16 0.08,0 0,0.16 0.07,0 0,1.18 0.08,0 0,0.71 0.07,0 0,0.08 -0.07,0 0,0.47 0.07,0 0,0.47 -0.07,0 0,0.08 -0.08,0 0,0.48 0.08,0 0,0.08 1.95,-0.32 2.11,-0.16 2.12,-0.57 0.62,-0.28 0.49,-0.41 0.25,-0.27 3.12,0.5 4.01,1.97 -0.24,0.95 -0.33,4.07 3.63,1.17 3.1,-1.53 1.48,-1.37 1.62,0.11 1.25,0.53 1,0.39 0.88,-0.01 0.5,0.13 1.35,-1.64 0.98,-1.23 2.87,-0.04 0.62,-0.54 0.12,-0.14 0.72,-2.45 0.51,0.4 1,0.4 0.87,0.39 0.38,0 1.98,-1.38 1.12,-0.28 -0.16,-2.84 0,-0.41 0.86,-1.77 -0.78,-3.1 -3.26,-1.72 -0.25,-0.13 -2.64,-1.32 -1.62,-0.26 -2.25,-0.1 -2.37,-0.79 -4,-0.76 z" 
                fill="rgb(151, 144, 238)" 
                stroke="white" 
                stroke-width=".7px"
                title="Añasco" 
                id="PR-AN" 
            />
        </svg>