<svg xmlns="http://www.w3.org/2000/svg" viewBox="468.5299999999999 24.120000000000005 25.540000000000077 48.999999999999986" width="25.540000000000077" height="48.999999999999986">
            <path 
                d="m 483.31,26.82 -0.37,-1.08 -0.63,-0.81 -1,-0.54 -0.87,-0.27 -0.37,0.41 0,0.13 0.25,0.95 -0.13,0.41 -0.62,0.95 -0.37,0.13 -0.25,0.14 -1,0.27 -0.25,-0.27 -0.75,-0.54 -0.88,0.14 -0.5,0.27 -0.12,0.41 -0.5,0.13 -0.5,0.14 -1.74,0.95 0.37,1.76 -0.37,1.35 0.38,1.08 0.25,0.95 -0.37,2.17 -0.62,4.6 -0.12,0.95 0.13,0.27 0.37,0.94 0.13,0.95 0,0.41 -0.62,1.62 -0.25,2.3 0.26,1.9 -1.12,0.95 0.63,2.16 -1.12,3.52 -0.12,2.84 -0.12,0 -0.63,0 -1.12,-0.13 -0.12,0.14 0,0.27 0,0.13 0.5,3.66 0,0.13 0.63,2.03 0.25,0.81 0.5,1.49 0.88,-0.01 0.25,0 0.25,0.14 0.12,0.13 0.25,0.41 -0.12,0.81 1.87,1.08 0.75,2.57 1.62,-2.71 0.74,-0.54 0.88,-0.68 0.49,-1.08 1.12,-0.68 1.37,0.13 0.25,-0.41 1.37,-0.81 0.5,-0.14 4.24,0.94 1.62,-5.28 -0.88,-0.81 -0.13,-2.3 2.37,-1.09 0.13,0 0,-0.13 -2,-1.35 -0.38,-0.68 -0.12,-1.08 0,-1.35 2.11,-1.63 0.13,-0.13 -0.38,-1.63 -0.12,-0.27 -0.13,-1.35 -0.13,-0.95 -0.99,-1.62 -0.51,-0.54 0,-1.08 0.13,-0.27 1.61,-2.85 -0.62,-1.35 0,-0.54 0.25,-0.41 1,-0.27 2.87,1.48 1,-0.67 0,-0.14 -2.13,-4.73 0.37,-2.85 0.12,-0.27 0.13,-0.81 0.62,-0.95 0.13,-0.27 0.12,-0.13 -0.5,-0.54 -0.63,-0.68 -1,-0.27 -0.87,-0.27 0.12,-1.08 -1.12,0.68 -1.25,-0.27 -2.24,0 -0.88,0.14 -0.25,0.13 -1.24,0.28 -0.26,-0.14 z" 
                fill="rgb(151, 144, 238)" 
                stroke="white" 
                stroke-width=".7px"
                title="Bayamón" 
                id="PR-BY" 
            />
        </svg>