<svg xmlns="http://www.w3.org/2000/svg" viewBox="198.46999999999971 98.59 31.890000000000242 71.88000000000011" width="31.890000000000242" height="71.88000000000011">
            <path 
                d="m 230.28,168.19 -0.15,0 0,0.08 -0.15,0 0,0.16 -0.07,0 0,0.23 -0.08,0 0,0.08 -0.15,0 0,0.08 -0.44,0 0,0.08 -0.38,0 0,0.16 -0.07,0 0,0.08 -0.08,0 0,0.07 -0.15,0 0,0.08 -0.07,0 0,0.08 -0.15,0 0,0.08 -0.08,0 0,0.08 -0.22,0 0,0.08 -0.08,0 0,0.08 -0.3,0 0,0.08 -1.64,0 0,0.15 -0.08,0 0,-0.08 -0.07,0 0,-0.07 -0.23,0 0,-0.08 -0.07,0 0,-0.08 -0.6,0 0,0.08 -0.15,0 0,0.08 -0.83,0 0,-0.08 -0.07,0 0,-0.16 -0.15,0 0,-0.08 -0.3,0 0,-0.16 -0.15,0 0,-0.08 -0.15,0 0,0.48 -0.15,0 0,-0.16 -0.07,0 0,-0.47 -0.3,0 0,0.08 -0.08,0 0,0.07 -0.07,0 0,0.08 -0.08,0 0,0.16 0.08,0 0,0.16 0.07,0 0,0.16 0.08,0 0,0.07 0.07,0 0,0.16 0.23,0 0,-0.08 0.15,0 0,0.08 0.07,0 0,0.16 0.08,0 0,0.08 0.15,0 0,-0.16 0.22,0 0,-0.08 0.23,0 0,-0.08 0.07,0 0,0.08 0.52,0 0,0.08 0.68,0 0,0.08 0.52,0 0,0.16 -0.15,0 0,0.15 0.68,0 0,-0.15 0.07,0 0,-0.08 0.38,0 0,0.16 0.14,0 0,-0.08 0.08,0 0,-0.08 0.15,0 0,-0.08 0.82,0 0,-0.08 0.08,0 0,-0.08 0.15,0 0,-0.08 0.22,0 0,-0.15 0.23,0 0,-0.08 0.15,0 0,-0.08 0.07,0 0,-0.08 0.08,0 0,-0.08 0.22,0 0,-0.16 0.38,0 0,0.08 0.29,0 0,-0.08 0.15,0 0,-0.08 0.08,0 0,-0.07 0.07,0 0,-0.08 0.08,0 0,-0.16 0.07,0 0,-0.16 0.08,0 0,-0.23 0.15,0 0,-0.24 -0.08,0 0,-0.08 z m -22.68,-69.6 -0.22,0 0,0.08 -0.08,0 0,0.08 -0.15,0 0,0.07 -0.07,0 0,0.08 -0.08,0 0,0.08 -0.07,0 0,0.08 -0.08,0 0,0.08 -0.07,0 0,0.08 -0.08,0 0,0.08 -0.07,0 0,0.08 -0.08,0 0,0.08 -0.07,0 0,0.07 0.07,0 0,0.16 0.08,0 0,0.08 -0.08,0 0,0.08 0.08,0 0,0.16 0.07,0 0,0.08 0.08,0 0,0.07 0.15,0 0,0.08 0.07,0 0,0.08 0.08,0 0,0.4 0.15,0 0,0.15 0.07,0 0,0.08 0.15,0 0,0.08 0.22,0 0,0.08 0.23,0 0,0.08 0.22,0 0,0.08 0.08,0 0,0.08 0.07,0 0,0.08 0.15,0 0,0.15 0.08,0 0,0.32 0.07,0 0,0.31 -0.07,0 0,0.32 0.07,0 0,0.31 0.08,0 0,0.32 0.15,0 0,0.47 0.07,0 0,0.16 -0.07,0 0,0.63 -0.08,0 0,0.16 -0.07,0 0,0.31 -0.08,0 0,0.08 -0.15,0 0,0.16 0.08,0 0,0.16 -0.08,0 0,0.31 -0.07,0 0,0.16 -0.08,0 0,0.23 -0.07,0 0,0.16 -0.08,0 0,0.08 0.08,0 0,0.08 -0.08,0 0,0.16 -0.07,0 0,0.08 -0.08,0 0,0.15 -0.07,0 0,0.08 -0.08,0 0,0.08 -0.07,0 0,0.08 -0.08,0 0,0.08 -0.07,0 0,0.08 -0.08,0 0,0.08 -0.14,0 0,0.07 -0.15,0 0,0.08 -0.08,0 0,0.08 -0.15,0 0,0.08 -0.37,0 0,0.08 -0.23,0 0,0.08 -0.07,0 0,0.23 -0.08,0 0,0.24 -0.07,0 0,0.87 0.07,0 0,0.08 0.08,0 0,0.08 0.07,0 0,0.23 0.08,0 0,0.08 0.07,0 0,0.16 0.08,0 0,0.16 0.22,0 0,0.15 0.08,0 0,0.16 0.07,0 0,0.08 0.08,0 0,0.16 0.07,0 0,0.23 0.08,0 0,0.55 -0.08,0 0,0.08 -0.07,0 0,0.32 -0.08,0 0,0.24 -0.07,0 0,0.15 -0.08,0 0,0.32 -0.15,0 0,0.39 0.08,0 0,0.32 0.07,0 0,0.15 0.08,0 0,0.24 0.07,0 0,0.32 0.08,0 0,0.15 0.07,0 0,0.16 0.08,0 0,0.24 0.07,0 0,0.08 0.08,0 0,0.15 0.07,0 0,0.08 0.07,0 0,0.55 -0.07,0 0,0.16 -0.07,0 0,0.47 -0.08,0 0,0.08 -0.07,0 0,0.24 -0.08,0 0,0.31 -0.07,0 0,0.32 -0.08,0 0,0.08 -0.07,0 0,0.15 -0.08,0 0,0.16 -0.07,0 0,0.16 -0.08,0 0,0.16 -0.22,0 0,0.08 -0.15,0 0,0.07 -0.08,0 0,0.08 -0.15,0 0,0.08 -0.52,0 0,0.16 -0.08,0 0,0.08 -0.15,0 0,0.08 -0.22,0 0,0.08 -0.08,0 0,0.07 0.08,0 0,0.16 -0.15,0 0,0.16 -0.15,0 0,0.08 -0.15,0 0,0.08 -0.15,0 0,0.08 -0.37,0 0,0.15 -0.15,0 0,0.08 -0.08,0 0,0.24 -0.07,0 0,0.39 -0.08,0 0,0.16 -0.07,0 0,0.16 -0.23,0 0,0.15 -0.15,0 0,0.08 -0.07,0 0,0.08 -0.15,0 0,0.08 -0.08,0 0,0.08 -0.07,0 0,0.16 -0.08,0 0,0.08 -0.07,0 0,0.39 0.15,0 0,0.08 0.15,0 0,0.08 0.22,0 0,0.08 0.15,0 0,0.47 -0.07,0 0,0.08 -0.38,0 0,-0.08 -0.3,0 0,0.08 -0.07,0 0,0.63 0.15,0 0,0.08 0.07,0 0,0.23 -0.07,0 0,0.08 -0.08,0 0,0.08 -0.29,0 0,0.08 -0.23,0 0,0.24 -0.07,0 0,0.15 -0.08,0 0,0.08 0.08,0 0,0.16 0.07,0 0,0.16 0.07,0 0,0.08 0.08,0 0,0.15 0.3,0 0,0.08 0.07,0 0,0.24 0.08,0 0,0.08 0.07,0 0,0.15 0.15,0 0,0.08 0.08,0 0,0.16 0.07,0 0,0.08 -0.45,0 0,0.08 -0.07,0 0,0.31 0.07,0 0,0.16 0.15,0 0,0.16 0.23,0 0,0.08 0.3,0 0,-0.08 0.15,0 0,0.08 0.07,0 0,0.15 -0.15,0 0,0.08 -0.07,0 0,0.16 -0.08,0 0,0.39 0.15,0 0,0.08 0.23,0 0,-0.23 0.07,0 0,-0.16 0.08,0 0,-0.08 0.07,0 0,-0.16 0.08,0 0,-0.08 0.15,0 0,-0.07 0.15,0 0,-0.08 0.07,0 0,-0.08 0.08,0 0,-0.08 0.07,0 0,-0.32 0.07,0 0,-0.23 0.08,0 0,-0.16 0.15,0 0,0.08 0.3,0 0,0.16 0.15,0 0,0.23 0.07,0 0,0.16 0.08,0 0,0.08 0.07,0 0,0.16 0.15,0 0,0.08 0.15,0 0,-0.08 0.3,0 0,0.08 0.3,0 0,0.15 0.08,0 0,0.08 0.07,0 0,0.08 0.08,0 0,0.16 0.07,0 0,0.16 0.08,0 0,0.47 -0.08,0 0,0.31 -0.15,0 0,0.16 -0.22,0 0,0.08 -0.15,0 0,0.08 -0.15,0 0,0.16 -0.15,0 0,0.07 -0.08,0 0,0.08 -0.15,0 0,0.08 -0.22,0 0,0.08 -0.08,0 0,0.08 -0.15,0 0,0.08 -0.52,0 0,-0.08 -0.15,0 0,-0.08 -0.3,0 0,-0.08 -0.22,0 0,-0.08 -0.15,0 0,-0.08 -0.15,0 0,-0.07 -0.23,0 0,0.23 -0.07,0 0,0.24 -0.08,0 0,0.08 -0.07,0 0,0.31 -0.08,0 0,0.32 -0.07,0 0,0.07 -0.08,0 0,0.08 -0.07,0 0,0.08 -0.08,0 0,0.16 -0.07,0 0,0.08 -0.08,0 0,0.16 -0.07,0 0,0.08 -0.15,0 0,0.07 -0.07,0 0,0.16 -0.08,0 0,0.08 -0.08,0 0,0.08 -0.07,0 0,0.31 -0.07,0 0,0.48 0.07,0 0,0.47 0.07,0 0,0.16 0.08,0 0,0.08 0.08,0 0,0.23 0.07,0 0,0.08 0.15,0 0,0.24 0.07,0 0,0.15 0.08,0 0,0.24 0.07,0 0,0.31 -0.07,0 0,0.32 -0.08,0 0,0.24 -0.15,0 0,0.07 -0.07,0 0,0.08 -0.07,0 0,0.08 -0.08,0 0,0.08 -0.08,0 0,0.08 -0.07,0 0,0.08 -0.07,0 0,0.16 -0.15,0 0,0.07 -0.08,0 0,0.08 -0.08,0 0,0.08 -0.07,0 0,0.08 -0.08,0 0,0.08 -0.07,0 0,0.08 -0.07,0 0,0.16 -0.08,0 0,0.07 -0.07,0 0,0.08 -0.08,0 0,0.08 -0.07,0 0,0.08 -0.15,0 0,0.16 -0.15,0 0,0.08 -0.15,0 0,0.08 -0.08,0 0,0.07 -0.07,0 0,0.16 -0.08,0 0,0.08 -0.07,0 0,0.08 -0.08,0 0,0.08 -0.07,0 0,0.08 -0.08,0 0,0.08 -0.07,0 0,0.07 -0.08,0 0,0.16 -0.07,0 0,0.08 -0.08,0 0,0.47 0.6,0 0,-0.08 0.15,0 0,-0.07 0.3,0 0,-0.08 0.6,0 0,0.31 0.07,0 0,0.08 0.15,0 0,0.08 0.08,0 0,0.08 0.08,0 0,0.08 0.07,0 0,0.08 0.15,0 0,0.07 0.07,0 0,0.08 0.16,0 0,-0.08 0.07,0 0,0.08 0.3,0 0,0.08 0.15,0 0,0.08 0.15,0 0,0.08 0.15,0 0,-0.08 0.22,0 0,0.08 0.08,0 0,-0.08 0.15,0 0,0.16 0.6,0 0,0.08 0.15,0 0,0.07 0.14,0 0,0.08 0.23,0 0,0.08 0.15,0 0,0.08 0.45,0 0,0.08 0.15,0 0,0.08 0.15,0 0,0.08 0.3,0 0,-0.08 0.07,0 0,-0.08 0.08,0 0,-0.08 0.15,0 0,0.08 0.15,0 0,0.39 -0.08,0 0,0.16 0.08,0 0,0.16 0.07,0 0,-0.08 0.08,0 0,0.08 0.22,0 0,0.16 0.53,0 0,-0.16 0.07,0 0,-0.08 0.07,0 0,-0.08 0.08,0 0,-0.39 0.15,0 0,0.08 0.22,0 0,0.07 0.08,0 0,0.16 -0.08,0 0,0.32 -0.07,0 0,0.31 0.07,0 0,0.08 0.53,0 0,-0.08 0.07,0 0,-0.08 0.08,0 0,-0.15 0.22,0 0,0.39 0.23,0 0,0.08 0.15,0 0,0.08 0.07,0 0,0.08 0.15,0 0,0.07 0.08,0 0,0.08 0.07,0 0,0.08 0.08,0 0,0.08 0.07,0 0,0.08 0.08,0 0,0.08 0.07,0 0,0.08 0.08,0 0,0.08 0.07,0 0,0.23 0.08,0 0,0.87 -0.08,0 0,0.39 -0.07,0 0,0.32 -0.08,0 0,0.31 -0.07,0 0,0.4 -0.08,0 0,0.39 -0.07,0 0,0.08 -0.08,0 0,0.15 -0.07,0 0,0.08 -0.08,0 0,0.08 -0.07,0 0,0.08 -0.08,0 0,0.08 -0.07,0 0,0.08 -0.08,0 0,0.08 -0.07,0 0,0.08 -0.08,0 0,0.07 -0.07,0 0,0.08 -0.08,0 0,0.08 -0.15,0 0,0.08 -0.15,0 0,-0.08 -0.3,0 0,-0.08 -0.6,0 0,0.08 -0.22,0 0,0.08 -0.22,0 0,0.08 -0.23,0 0,0.08 -0.15,0 0,0.08 -0.3,0 0,0.08 -0.15,0 0,0.07 -0.22,0 0,0.08 -0.15,0 0,0.08 -0.15,0 0,0.08 -0.23,0 0,0.08 -0.15,0 0,0.08 -0.07,0 0,0.08 -0.15,0 0,0.08 -0.15,0 0,0.07 -0.15,0 0,0.08 -0.23,0 0,0.08 -0.15,0 0,0.08 -0.14,0 0,0.08 -0.15,0 0,0.08 -0.08,0 0,0.08 -0.07,0 0,0.07 -0.38,0 0,0.08 -0.52,0 0,0.08 -0.38,0 0,0.08 -0.15,0 0,0.08 -0.15,0 0,0.08 -0.14,0 0,0.08 -0.08,0 0,0.08 -0.15,0 0,0.07 -0.07,0 0,0.08 -0.15,0 0,0.08 0,0.08 -0.75,0 0,0.08 -0.15,0 0,0.08 -0.08,0 0,0.08 -0.22,0 0,0.08 -0.08,0 0,0.07 -0.15,0 0,0.08 -0.07,0 0,0.08 -0.08,0 0,0.08 -0.07,0 0,0.08 -0.15,0 0,0.16 -0.15,0 0,0.15 -0.08,0 0,0.08 -0.07,0 0,0.16 -0.08,0 0,0.08 -0.15,0 0,0.08 -0.07,0 0,0.08 -0.07,0 0,0.15 -0.08,0 0,0.16 -0.15,0 0,0.08 -0.15,0 0,0.08 -0.15,0 0,0.24 0.08,0 0,0.23 0.07,0 0,0.32 -0.07,0 0,0.07 -0.08,0 0,0.08 -0.07,0 0,0.08 -0.08,0 0,0.08 -0.07,0 0,0.32 -0.08,0 0,0.07 -0.07,0 0,0.32 -0.08,0 0,0.16 -0.07,0 0,0.86 0.07,0 0,0.24 0.08,0 0,0.08 0.07,0 0,0.23 0.08,0 0,0.32 0.07,0 0,0.16 0.08,0 0,0.23 0.07,0 0,0.16 0.08,0 0,0.24 0.07,0 0,0.47 -0.07,0 0,0.55 0.07,0 0,0.39 0.08,0 0,0.24 0.07,0 0,0.39 -0.07,0 0,0.16 -0.08,0 0,0.31 -0.07,0 0,0.24 -0.08,0 0,0.16 -0.07,0 0,0.23 -0.08,0 0,0.32 -0.07,0 0,0.16 -0.08,0 0,0.31 0.08,0 0,0.31 0.07,0 0,0.24 0.08,0 0,0.32 0.07,0 0,0.07 0.08,0 0,0.24 0.07,0 0,0.08 0.08,0 0,0.16 0.07,0 0,0.47 0.08,0 0,0.39 -0.08,0 0,0.32 -0.15,0 0,0.08 -0.07,0 0,0.07 -0.23,0 0,0.08 -0.15,0 0,0.08 -0.07,0 0,0.08 -0.08,0 0,0.32 0.08,0 0,0.07 0.22,0 0,-0.15 0.08,0 0,-0.08 0.07,0 0,-0.08 0.08,0 0,-0.08 0.07,0 0,0.24 0.23,0 0,-0.16 0.07,0 0,-0.24 0.08,0 0,-0.08 0.29,0 0,-0.07 0.38,0 0,-0.08 0.3,0 0,-0.08 0.75,0 0,0.08 0.15,0 0,0.08 0.29,0 0,0.07 0.23,0 0,0.08 0.67,0 0,0.08 0.15,0 0,0.08 0.23,0 0,0.08 0.15,0 0,0.08 0.22,0 0,0.08 0.08,0 0,0.08 0.07,0 0,0.07 0.08,0 0,0.08 0.15,0 0,0.08 0.15,0 0,0.08 0.07,0 0,0.08 0.08,0 0,0.08 0.07,0 0,0.15 0.08,0 0,0.4 0.07,0 0,0.31 -0.07,0 0,0.16 -0.08,0 0,0.16 -0.07,0 0,0.55 0.07,0 0,0.08 0.08,0 0,0.08 0.22,0 0,0.63 0.08,0 0,0.23 -0.08,0 0,0.08 -0.07,0 0,0.08 -0.15,0 0,0.08 -0.15,0 0,0.16 -0.23,0 0,0.07 -0.22,0 0,0.08 -0.08,0 0,0.16 -0.07,0 0,0.63 0.07,0 0,0.24 0.15,0 0,0.39 0.15,0 0,0.08 0.08,0 0,0.08 0.15,0 0,0.08 0.07,0 0,0.07 0.67,0 0,-0.07 0.08,0 0,-0.08 0.22,0 0,-0.08 0.15,0 0,-0.08 0.08,0 0,-0.08 0.07,0 0,-0.16 0.08,0 0,-0.23 -0.08,0 0,-0.24 0.45,0 0,0.08 0.08,0 0,0.16 0.07,0 0,0.08 -0.07,0 0,0.15 -0.08,0 0,0.55 0.08,0 0,0.24 0.15,0 0,0.08 0.22,0 0,0.08 0.68,0 0,-0.16 0.15,0 0,-0.08 0.07,0 0,-0.08 0.08,0 0,-0.23 0.07,0 0,-0.08 -0.07,0 0,-0.63 0.07,0 0,-0.16 -0.07,0 0,-0.47 -0.23,0 0,-0.16 0.08,0 0,-0.31 -0.08,0 0,-0.08 -0.15,0 0,-0.08 -0.15,0 0,-0.08 -0.15,0 0,-0.08 -0.22,0 0,-0.08 -0.08,0 0,-0.08 -0.15,0 0,-0.07 -0.07,0 0,-0.08 -0.23,0 0,-0.16 -0.07,0 0,-0.08 -0.08,0 0,-0.16 -0.07,0 0,-0.07 -0.08,0 0,-0.16 -0.07,0 0,-0.08 -0.08,0 0,-0.16 -0.07,0 0,-0.63 0.07,0 0,-0.55 -0.07,0 0,-0.24 -0.08,0 0,-0.07 -0.07,0 0,-0.08 -0.08,0 0,-0.08 -0.15,0 0,-0.16 -0.07,0 0,-0.39 -0.08,0 0,-0.08 0.08,0 0,-0.39 0.07,0 0,-0.16 0.15,0 0,-0.16 0.08,0 0,-0.08 0.07,0 0,-0.08 0.08,0 0,-0.31 0.07,0 0,-0.08 0.08,0 0,-0.08 0.07,0 0,-0.08 0.08,0 0,-0.08 0.07,0 0,-0.07 0.08,0 0,-0.08 0.15,0 0,-0.08 0.07,0 0,-0.16 0.08,0 0,-0.08 0.15,0 0,-0.16 0.07,0 0,-0.07 0.15,0 0,-0.16 0.08,0 0,-0.08 0.15,0 0,-0.08 0.07,0 0,-0.08 0.08,0 0,-0.08 0.07,0 0,-0.15 0.08,0 0,-0.08 0.22,0 0,-0.08 0.08,0 0,-0.08 0.15,0 0,0.08 0.07,0 0,-0.08 0.15,0 0,-0.16 0.37,0 0,-0.08 0.08,0 0,-0.07 0.07,0 0,-0.08 0.53,0 0,0.08 0.3,0 0,0.15 0.15,0 0,-0.08 0.07,0 0,-0.15 0.38,0 0,-0.08 0.07,0 0,0.08 0.23,0 0,0.08 0.07,0 0,-0.08 0.15,0 0,0.08 0.15,0 0,0.07 0.08,0 0,0.08 0.22,0 0,-0.08 0.37,0 0,0.08 0.08,0 0,0.08 0.15,0 0,0.08 0.15,0 0,0.08 0.15,0 0,0.08 0.22,0 0,0.08 0.38,0 0,0.07 0.07,0 0,0.08 0.23,0 0,0.08 0.15,0 0,0.08 0.15,0 0,0.08 0.07,0 0,0.16 0.08,0 0,0.15 0.07,0 0,0.08 0.08,0 0,0.08 0.07,0 0,0.08 0.15,0 0,0.16 0.07,0 0,0.08 0.15,0 0,0.08 0.08,0 0,0.15 0.07,0 0,0.08 0.08,0 0,0.08 0.07,0 0,0.94 0.45,0 0,-0.15 0.83,0 0,-0.08 0.44,0 0,-0.08 0.38,0 0,-0.08 0.08,0 0,-0.08 0.29,0 0,0.08 0.15,0 0,0.08 0.15,0 0,0.08 0.08,0 0,0.16 0.15,0 0,0.07 0.3,0 0,-0.07 0.3,0 0,-0.08 0.6,0 0,0.08 0.37,0 0,0.07 0.45,0 0,0.08 0.3,0 0,0.08 0.15,0 0,0.08 0.67,0 0,0.08 0.15,0 0,0.16 0.08,0 0,0.15 0.07,0 0,0.24 0.15,0 0,0.08 0.3,0 0,0.08 0.15,0 0,0.08 0.15,0 0,0.07 0.08,0 0,0.08 0.22,0 0,0.08 0.07,0 0,0.08 0.08,0 0,-0.08 0.37,0 0,-0.08 0.08,0 0,-0.08 0.07,0 0,-0.07 0.08,0 0,-0.16 0.07,0 0,-0.08 0.08,0 0,-0.08 0.22,0 0,0.16 0.08,0 0,0.16 -0.08,0 0,0.15 -0.15,0 0,0.08 -0.07,0 0,0.08 -0.15,0 0,0.16 -0.08,0 0,0.24 0.08,0 0,0.07 0.15,0 0,0.08 0.15,0 0,-0.08 0.3,0 0,0.16 0.22,0 0,0.08 0.15,0 0,-0.08 0.45,0 0,0.08 0.08,0 0,-0.08 0.07,0 0,0.08 0.08,0 0,-0.08 0.07,0 0,0.08 0.08,0 0,-0.08 0.15,0 0,-0.08 0.14,0 0,-0.08 0.08,0 0,-0.15 0.15,0 0,0.08 0.07,0 0,0.07 0.23,0 0,0.08 0.07,0 0,-0.08 0.08,0 0,0.08 0.07,0 0,-0.08 0.08,0 0,0.08 0.15,0 0,-0.08 0.07,0 0,-0.07 0.15,0 0,-0.16 -0.15,0 0,-0.08 -0.15,0 0,-0.08 -0.07,0 0,-0.24 -0.08,0 0,-0.15 0.08,0 0,-0.08 0.07,0 0,-0.08 0.45,0 0,0.16 0.08,0 0,0.23 0.07,0 0,0.48 0.08,0 0,0.07 0.3,0 0,-0.23 0.22,0 0,0.31 0.08,0 0,0.08 0.07,0 0,0.08 0.08,0 0,0.08 0.44,0 0,0.08 0.15,0 0,-0.08 0.05,0 -0.01,-0.68 0.49,-0.95 0.35,-1.5 0,-0.27 -0.14,-1.75 0.24,-0.95 0.12,-0.14 0.49,-0.82 0.48,-1.22 -0.38,-0.4 -1.12,-0.26 -0.25,-0.13 -0.12,0 -0.25,-0.4 0.19,-5.15 0,-0.13 -0.3,-4.19 -0.27,-2.02 -0.51,-1.22 -0.64,-2.15 0,-0.14 1.34,-2.18 -0.76,-0.94 -0.13,-0.94 1.34,-2.86 0.6,-1.63 1.11,-1.1 0.74,-0.28 0.25,-0.14 0.12,-0.54 -0.01,-0.4 0,-0.14 -0.75,-0.8 -0.13,-0.14 -0.37,0.01 -0.75,0.01 -0.01,-1.49 0.23,-1.9 0.11,-0.95 1.2,-4.61 -6.38,-2.22 -0.62,-0.4 -0.26,-1.08 -0.26,-0.26 -0.37,-0.13 -0.25,0 -0.75,-0.26 -0.38,-0.54 -0.13,-0.27 -0.26,-1.08 -0.63,-1.34 -0.76,-0.53 -0.51,-1.48 -2.25,-0.92 -0.77,-1.88 -1.38,-0.93 -1.13,-0.53 -0.87,-0.12 -1.13,-1.07 -0.51,-0.8 -0.5,-0.54 -0.63,-0.26 -0.96,-1.02 -0.17,0 0,-0.08 z" 
                fill="rgb(151, 144, 238)" 
                stroke="white" 
                stroke-width=".7px"
                title="Cabo Rojo" 
                id="PR-CR" 
            />
        </svg>