<svg xmlns="http://www.w3.org/2000/svg" viewBox="494.2399999999999 57.78 32.3900000000001 56.42000000000006" width="32.3900000000001" height="56.42000000000006">
            <path 
                d="m 516.16,58.45 -1.25,-0.54 -0.12,-0.13 -0.25,0 -0.75,0.27 -0.5,0.67 -0.12,0.68 0.12,0.68 0.5,1.49 -0.5,0.27 -0.37,0.13 -0.12,-0.13 -1,-1.36 -3.62,0.01 -0.37,1.35 0,0.54 -0.87,3.79 -1.12,4.33 -0.5,2.44 -0.12,2.7 -1.87,3.39 -0.25,0.54 -2.86,3.25 -0.87,1.08 -0.5,0.54 -0.62,0.68 -1.37,0.54 -2.62,1.22 2.37,2.57 2,5.14 -0.87,3.25 0.63,0.54 0.62,-0.14 1.37,0.27 1.87,2.44 2.12,2.29 2.49,0.68 1.12,0.4 0.37,0.14 -0.12,0.27 0,0.27 -0.75,0.95 -0.12,0.13 0.12,0.68 0.88,2.43 0.5,0.95 0.49,0.94 0.25,0.41 0.25,1.35 0.5,0.68 0.5,0.54 0.37,0.14 0.63,0 2.73,-0.14 0.62,-0.54 0.5,-0.41 0.87,-0.54 0.63,-1.62 0.12,-0.55 -0.12,-0.67 1.74,-1.22 0.62,-0.54 0,-0.27 0.99,-2.03 0,-0.41 -0.74,-2.3 0.25,-2.84 0,-0.54 0.49,-0.95 1.87,-3.65 0.13,-0.27 2.36,-0.95 0.13,0 0.24,-0.27 0.5,-0.67 0.5,-0.55 0.25,-0.4 -0.37,-1.08 -0.13,-0.41 0.62,-2.7 -0.49,-2.98 0,-0.14 -0.25,-0.27 -0.38,0 -2.36,-0.54 -0.5,-0.54 -0.38,-0.68 0,-0.4 0.13,-0.27 0.5,-0.54 0.87,-1.09 0,-1.21 -1.12,-1.36 -0.5,-0.54 -0.13,-0.27 0.13,-0.54 0.99,-0.81 0,-0.14 -0.87,-2.97 -0.12,-0.82 0,-0.13 1.99,-0.68 -0.5,-1.49 0.25,-1.48 0,-0.14 -2.49,-0.95 -2.37,-1.48 -0.62,-0.55 -0.25,-0.27 -0.25,-0.4 -0.13,-2.57 0,-0.41 0.25,-0.54 1.12,-0.13 0.5,0 0.5,-0.41 -1.74,-1.49 -1.25,0.27 -0.38,0 -0.62,-0.27 z" 
                fill="rgb(151, 144, 238)" 
                stroke="white" 
                stroke-width=".7px"
                title="Caguas" 
                id="PR-CG" 
            />
        </svg>