<svg xmlns="http://www.w3.org/2000/svg" viewBox="283.0300000000001 6.71 24.579999999999984 42.370000000000005" width="24.579999999999984" height="42.370000000000005">
            <path 
                d="m 292.64,6.71 -0.15,0 0,0.08 -0.07,0 0,0.08 -0.07,0 0,0.31 -0.08,0 0,0.08 -0.15,0 0,0.08 -0.37,0 0,-0.08 -0.23,0 0,0.08 -0.07,0 0,0.16 -0.08,0 0,0.16 -0.37,0 0,0.08 -0.38,0 0,-0.08 -0.15,0 0,-0.08 -0.22,0 0,-0.08 -0.15,0 0,0.08 -0.45,0 0,0.08 -0.82,0 0,0.08 -0.6,0 0,0.08 -0.23,0 0,0.08 -0.22,0 0,0.07 -0.08,0 0,0.08 -0.07,0 0,0.08 -0.3,0 0,-0.08 -0.75,0 0,0.08 -0.22,0 0,0.08 -0.08,0 0,0.08 -0.07,0 0,0.08 -0.08,0 0,0.08 -0.07,0 0,0.08 -0.08,0 0,0.07 -0.3,0 0,0.08 -0.52,0 0,0.08 -0.15,0 0,0.08 -0.3,0 0,-0.08 -0.6,0 0,0.08 -0.23,0 0,0.08 -0.07,0 0,0.08 -0.3,0 0,0.08 -0.22,0 0,0.08 -0.08,0 0,0.08 -0.15,0 0,-0.08 -0.03,0 0,0.06 0.04,4.47 0.02,2.44 0.16,3.78 -0.1,3.12 -0.08,4.87 0.28,3.11 0,0.54 0.4,2.43 -0.6,3.12 0.13,0.95 0.54,4.46 1.5,-0.29 2.12,0.12 0.25,0.26 0.38,0.27 0.63,0.67 1.01,1.61 3.74,0.24 4.51,1.44 4.75,1.85 1.25,0.4 1.35,-2.86 0.85,-3.12 1.45,-6.51 -1.64,-1.47 -0.38,-0.95 -0.89,-2.83 -0.64,-1.89 -0.56,-7.3 0.1,-2.71 -0.27,-2.57 0,-0.27 -2.29,-4.58 -0.76,-1.89 -0.26,-0.94 0,-0.14 0.48,-0.94 0,-0.06 -0.07,0 0,-0.08 -0.22,0 0,0.08 -0.38,0 0,-0.08 -0.37,0 0,-0.07 -0.53,0 0,-0.08 -0.07,0 0,-0.24 -0.23,0 0,0.08 -0.07,0 0,0.08 -0.08,0 0,0.08 -0.37,0 0,-0.08 -0.15,0 0,-0.16 -0.07,0 0,-0.08 -0.08,0 0,-0.08 -0.22,0 0,-0.08 -0.38,0 0,0.08 -0.37,0 0,-0.08 -0.08,0 0,-0.08 -0.07,0 0,-0.08 -0.08,0 0,-0.07 -0.22,0 0,0.07 -0.08,0 0,0.08 -0.82,0 0,-0.08 -0.15,0 0,-0.07 -0.15,0 0,0.07 -0.22,0 0,0.08 -0.68,0 0,-0.08 -0.15,0 0,-0.07 -0.15,0 0,0.07 -0.22,0 0,0.08 -0.38,0 0,-0.08 -0.45,0 0,-0.07 -0.15,0 0,-0.08 -0.07,0 0,-0.08 -0.08,0 0,-0.24 z" 
                fill="rgb(151, 144, 238)" 
                stroke="white" 
                stroke-width=".7px"
                title="Camuy" 
                id="PR-CA" 
            />
        </svg>