<svg xmlns="http://www.w3.org/2000/svg" viewBox="544.61 28.96 25.530000000000086 45.89000000000002" width="25.530000000000086" height="45.89000000000002">
            <path 
                d="m 561.09,30.42 -8.07,-1.46 -2.64,3.75 -2.54,-0.03 0.01,0.2 -2.87,1.22 -0.25,0.27 -0.12,0.41 0.62,1.89 1.5,0 0.37,0 1.87,1.22 0.5,0.95 0,0.14 -0.12,0.13 -0.75,0.81 -0.75,0.68 0,0.27 0.12,2.71 0,0.27 0.25,0.94 0.5,1.36 -0.88,1.89 -0.12,0.54 0,0.14 0.75,0.4 0.25,0.14 0.74,-0.14 1.37,-0.13 0.5,3.11 -0.62,0.95 -0.25,0.41 0,0.4 0.12,0.81 0.25,0.27 1.25,0.55 0.12,0.27 0.25,0.95 0,0.13 -0.75,1.76 -0.37,0.4 -1.25,0.41 0.12,0.68 1.12,1.76 0,0.13 -0.62,0.68 -1.12,0 -0.75,0.27 -0.13,0.4 0.13,0.27 1.49,1.9 0,1.22 0.62,2.03 -0.25,0.81 -2.12,0.13 0,0.54 1.37,0.95 2.25,0.54 1.74,0.68 1.12,-0.13 0.87,0 0.63,0.41 0.25,0.13 1.49,0.82 1.74,1.22 1.25,-0.14 0.37,-0.13 0.38,-0.68 1.25,-0.4 2.49,0.68 1.62,-0.95 1.62,-1.89 0.13,-0.13 0.13,-1.63 0.12,-0.67 0.75,-0.54 -0.75,-0.55 -0.87,-0.54 -0.99,-0.67 -2.25,-1.09 -0.37,-0.27 -0.37,-0.54 -1,-0.95 -0.75,-0.68 -0.62,0 -0.62,0 0.37,-0.95 0.37,0 0,-0.13 0.76,-1.49 -0.13,-0.41 -0.25,-0.95 0,-0.54 -1.24,0 -0.13,-0.27 -0.25,-0.54 0.13,-1.35 1.12,0 0.38,-0.27 0.37,-0.81 -0.99,-2.98 -0.5,-0.41 -1.25,-0.54 -0.12,-0.27 0,-0.27 -0.12,-1.09 -0.25,-1.62 0,-1.49 -0.12,-0.41 -0.25,-0.67 -0.25,-1.76 0,-0.14 0.12,-0.27 0.38,-0.4 0.12,-0.14 0.25,-0.27 0.01,-0.27 0.12,-0.67 0,-0.41 -0.25,-0.68 0.13,-0.27 1.12,-0.4 0.37,-0.27 0.26,-0.54 0.06,-0.1 -2.72,0.09 1.92,-8.7 z" 
                fill="rgb(151, 144, 238)" 
                stroke="white" 
                stroke-width=".7px"
                title="Canóvanas" 
                id="PR-CV" 
            />
        </svg>