<svg xmlns="http://www.w3.org/2000/svg" viewBox="514.3999999999985 16.5 38.05000000000007 53.73000000000002" width="38.05000000000007" height="53.73000000000002">
            <path 
                d="m 527.94,16.5 -0.3,0 0,0.55 -0.07,0 0,0.24 -0.08,0 0,0.23 -0.07,0 0,0.24 -0.08,0 0,0.24 -0.07,0 0,0.08 -0.08,0 0,0.08 -0.07,0 0,0.15 -0.08,0 0,0.16 -0.07,0 0,0.08 -0.08,0 0,0.24 -0.15,0 0,0.08 -0.15,0 0,0.07 -0.15,0 0,0.08 -0.07,0 0,0.08 -0.23,0 0,0.08 -0.07,0 0,0.16 -0.08,0 -0.15,0 0,0.08 -0.15,0 0,0.08 -0.07,0 0,0.55 -0.08,0 0,-0.08 -0.22,0 0,0.08 -0.15,0 0,0.08 -0.15,0 0,0.08 -0.3,0 0,0.08 -0.07,0 0,0.08 -0.45,0 0,0.07 -0.45,0 0,-0.07 -0.08,0 0,-0.08 -0.22,0 0,0.08 -0.23,0 0,0.07 -0.45,0 0,-0.07 -0.15,0 0,-0.08 -0.14,0 0,-0.08 -0.23,0 0,-0.08 -0.15,0 0,-0.08 -0.07,0 0,-0.16 -0.08,0 0,-0.08 -0.07,0 0,-0.08 -0.08,0 0,-0.08 -0.3,0 0,0.08 -0.07,0 0,0.16 -0.08,0 0,0.16 -0.22,0 0,0.08 -0.23,0 0,0.08 -0.07,0 0,0.08 -0.15,0 0,0.08 -0.45,0 0,0.07 -0.82,0 0,-0.07 -0.38,0 0,-0.08 -0.22,0 0,-0.08 -0.23,0 0,-0.08 -0.22,0 0,-0.08 -0.15,0 0,-0.08 -0.23,0 0,-0.08 -0.15,0 0,-0.08 -0.07,0 0,-0.08 -0.45,0 0,-0.15 -0.07,0 0,-0.08 -0.08,0 0,-0.08 -0.15,0 0,-0.08 -0.08,0 0,-0.08 -0.07,0 0,-0.08 -0.07,0 0,-0.08 -0.15,0 0,-0.08 -0.08,0 0,-0.15 -0.07,0 0,-0.08 -0.15,0 0,-0.08 -0.08,0 0,-0.08 -0.07,0 -0.04,0.04 -1.75,1.76 1.12,0.94 0.75,0.41 1,0.81 0.25,1.22 0.5,1.22 0.25,0.4 2.25,1.76 3.12,2.03 2.12,1.08 2.12,0.54 0.38,2.17 0,0.27 0.12,0.14 -0.25,0 -2.74,0.94 -0.13,2.71 0.88,1.49 0.12,0 2,0.94 0.62,3.12 3.74,3.79 1.75,4.33 0.5,2.03 1.12,1.49 0.37,0.54 1.37,1.35 3.87,1.76 0.12,0 0.38,0.28 0.37,0.67 -0.87,4.33 0.74,1.62 1.75,2.17 1.24,0.95 1.87,1.49 0.75,0.4 0.62,0.41 0,-0.54 2.12,-0.13 0.25,-0.81 -0.62,-2.03 0,-1.22 -1.49,-1.9 -0.13,-0.27 0.13,-0.4 0.75,-0.27 1.12,0 0.62,-0.68 0,-0.13 -1.12,-1.76 -0.12,-0.68 1.25,-0.41 0.37,-0.4 0.75,-1.76 0,-0.13 -0.25,-0.95 -0.12,-0.27 -1.25,-0.55 -0.25,-0.27 -0.12,-0.81 0,-0.4 0.25,-0.41 0.62,-0.95 -0.5,-3.11 -1.37,0.13 -0.74,0.14 -0.25,-0.14 -0.75,-0.4 0,-0.14 0.12,-0.54 0.88,-1.89 -0.5,-1.36 -0.25,-0.94 0,-0.27 -0.12,-2.71 0,-0.27 0.75,-0.68 0.75,-0.81 0.12,-0.13 0,-0.14 -0.5,-0.95 -1.87,-1.22 -0.37,0 -1.5,0 -0.62,-1.89 0.12,-0.41 0.25,-0.27 2.87,-1.22 -0.01,-0.2 -0.23,-2.91 -3,-3.25 -1.62,-2.16 -3.49,-1.36 -1.88,0.4 -1.12,0.14 -1.13,0.13 -0.24,0.14 -0.26,-0.14 -0.74,-1.35 -0.38,-0.81 -2.49,-0.54 -1,-0.14 -0.25,-0.27 -0.13,-0.27 0,-0.41 0.25,-1.08 -1.45,-1.58 -0.45,-0.48 -0.08,-0.08 -0.06,0 0,-0.08 -0.15,0 0,-0.08 z" 
                fill="rgb(151, 144, 238)" 
                stroke="white" 
                stroke-width=".7px"
                title="Carolina" 
                id="PR-CN" 
            />
        </svg>