<svg xmlns="http://www.w3.org/2000/svg" viewBox="480.19 16.02 16.15999999999991 10.939999999999994" width="16.15999999999991" height="10.939999999999994">
            <path 
                d="m 488.94,16.02 -0.08,0 -2.31,1.19 -0.5,1.08 -0.25,0.27 -0.62,0.68 -0.63,0.68 -0.25,0 -1,0 -0.37,0 -0.87,0 -0.13,0.54 0,0.68 -0.37,0.95 -0.25,0.54 -0.87,0.27 -0.13,0 -0.12,0.27 0,0.28 0.25,0.67 0.87,0.27 1,0.54 0.63,0.81 0.37,1.08 0.26,0.14 1.24,-0.28 0.25,-0.13 0.88,-0.14 2.24,0 1.25,0.27 1.12,-0.68 2.37,-2.44 1.25,-1.35 0.75,-0.68 0.37,-0.14 0.53,0.17 0,-0.25 0.08,0 0,-0.08 0.15,0 0,-0.23 0.07,0 0,-0.08 0.08,0 0,-0.08 0.07,0 0,-0.16 0.08,0 0,-0.31 -0.15,0 0,-0.08 -0.15,0 0,-0.08 -0.15,0 0,-0.08 -0.82,0 0,0.08 -0.08,0 0,0.08 -0.07,0 0,0.08 -0.3,0 0,-0.08 -0.3,0 0,0.08 -0.08,0 0,0.31 -0.07,0 0,0.08 -0.08,0 0,0.08 -0.3,0 0,0.08 -0.07,0 0,0.08 -0.3,0 0,0.08 -0.6,0 0,-0.08 -0.45,0 0,-0.08 -0.3,0 0,-0.08 -0.15,0 0,-0.08 -0.07,0 0,-0.08 -0.38,0 0,-0.08 -0.37,0 0,-0.08 -0.15,0 0,-0.08 -0.15,0 0,-0.07 -0.08,0 0,-0.08 -0.15,0 0,-0.16 -0.22,0 0,-0.08 -0.08,0 0,-0.08 -0.07,0 0,-0.08 -0.08,0 0,-0.16 -0.15,0 0,-0.08 -0.07,0 0,-0.23 -0.08,0 0,-0.08 -0.07,0 0,-0.16 -0.08,0 0,-0.08 -0.14,0 0,-0.23 -0.15,0 0,-0.08 -0.08,0 0,-0.08 -0.15,0 0,-0.08 -0.07,0 0,-0.08 -0.08,0 0,-0.08 -0.07,0 0,-0.31 -0.08,0 0,-0.16 -0.07,0 0,-0.24 -0.08,0 0,-0.16 -0.07,0 0,-0.08 -0.08,0 0,-0.08 -0.07,0 0,-0.07 -0.08,0 0,-0.08 -0.07,0 0,-0.24 0.07,0 0,-0.08 0.08,0 0,-0.08 0.07,0 0,-0.08 0.15,0 0,-0.07 0.08,0 0,-0.08 0.15,0 0,0.08 0.07,0 0,0.07 0.08,0 0,0.16 0.07,0 0,0.08 0.08,0 0,0.08 0.07,0 0,0.08 0.08,0 0,0.08 0.15,0 0,0.15 0.07,0 0,0.08 0.45,0 0,0.08 0.15,0 0,0.08 0.22,0 0,0.08 0.3,0 0,0.08 0.08,0 0,0.16 0.07,0 0,0.16 0.08,0 0,0.15 0.07,0 0,0.32 -0.07,0 0,0.08 -0.15,0 0,0.08 -0.15,0 0,0.08 -0.08,0 0,0.03 0,0.12 0.08,0 0,0.08 0.17,0 0.05,0 0,-0.08 0.15,0 0,-0.08 0.08,0 0,-0.07 0.07,0 0,-0.08 0.08,0 0,-0.08 0.07,0 0,-0.48 -0.07,0 0,-0.15 -0.08,0 0,-0.16 -0.07,0 0,-0.16 -0.08,0 0,-0.16 -0.07,0 0,-0.08 -0.15,0 0,-0.08 -0.3,0 0,-0.07 -0.23,0 0,-0.08 -0.15,0 0,-0.08 -0.45,0 0,-0.08 -0.07,0 0,-0.08 -0.07,0 0,-0.08 -0.08,0 0,-0.08 -0.07,0 0,-0.15 -0.08,0 0,-0.08 -0.07,0 0,-0.08 -0.08,0 0,-0.08 -0.07,0 0,-0.16 -0.08,0 0,-0.16 -0.07,0 0,-0.16 z" 
                fill="rgb(151, 144, 238)" 
                stroke="white" 
                stroke-width=".7px"
                title="Cataño" 
                id="PR-CT" 
            />
        </svg>