<svg xmlns="http://www.w3.org/2000/svg" viewBox="588.8399999999999 62.19999999999998 51.620000000000346 28.11999999999997" width="51.620000000000346" height="28.11999999999997">
            <path 
                d="m 640.39,75.5 -0.08,0 0,0.08 -0.15,0 0,0.07 -0.22,0 0,-0.07 -0.15,0 0,0.07 -0.15,0 0,0.16 -0.08,0 0,0.16 -0.07,0 0,0.08 -0.15,0 0,0.08 -0.15,0 0,0.08 -0.15,0 0,0.23 0.07,0 0,0.08 0.08,0 0,0.08 0.82,0 0,-0.16 0.08,0 0,-0.08 0.07,0 0,-0.07 0.15,0 0,-0.08 0.08,0 0,-0.16 0.07,0 0,-0.47 -0.07,0 0,-0.08 z m -2.7,-1.34 0.07,0 0,-0.16 0.08,0 0,-0.39 -0.23,0 0,0.07 -0.07,0 0,0.16 -0.15,0 0,0.08 -0.07,0 0,0.08 -0.08,0 0,0.63 0.08,0 0,0.08 -0.08,0 0,0.08 -0.07,0 0,-0.08 -0.08,0 0,-0.08 -0.07,0 0,-0.08 -0.3,0 0,-0.08 -0.15,0 0,-0.08 -0.15,0 0,-0.08 -0.08,0 0,-0.07 -0.07,0 0,-0.16 -0.08,0 0,-0.08 -0.15,0 0,-0.08 -0.6,0 0,0.08 -0.14,0 0,0.08 -0.53,0 0,0.08 -0.52,0 0,-0.08 -0.38,0 0,0.39 0.08,0 0,0.24 0.07,0 0,0.08 0.08,0 0,0.08 0.07,0 0,0.08 0.15,0 0,0.07 -0.07,0 0,0.63 -0.08,0 0,0.16 -0.07,0 0,0.24 0.07,0 0,0.16 0.08,0 0,0.15 0.22,0 0,-0.07 0.15,0 0,-0.08 0.3,0 0,-0.24 -0.15,0 0,-0.08 -0.07,0 0,-0.08 -0.08,0 0,-0.23 0.37,0 0,0.07 0.15,0 0,0.16 0.6,0 0,-0.08 0.38,0 0,0.08 0.07,0 0,0.08 0.15,0 0,0.08 0.15,0 0,0.08 0.08,0 0,0.08 0.3,0 0,0.08 0.15,0 0,0.08 0.3,0 0,-0.08 0.52,0 0,-0.08 0.07,0 0,-0.08 0.23,0 0,-0.08 0.07,0 0,0.08 0.08,0 0,0.08 0.15,0 0,-0.32 -0.08,0 0,-0.16 -0.07,0 0,-0.15 -0.08,0 0,-0.08 -0.07,0 0,-0.16 -0.08,0 0,-0.24 -0.07,0 0,-0.07 -0.08,0 0,-0.08 -0.07,0 0,-0.16 -0.08,0 0,-0.16 -0.07,0 0,-0.39 z m -41.12,-5.73 -0.62,-1.35 0.87,-0.81 -0.74,-0.95 -0.87,-0.68 -1.74,-1.63 -1,-0.81 -0.37,0.4 -0.76,1.08 -0.37,0.27 -0.37,0.41 -0.5,0.13 -0.5,0.81 -0.38,0.68 -0.38,1.08 0.5,0.27 0.12,0.27 0.38,0.68 0.25,1.21 1.61,1.09 0.62,0.68 0.5,0.41 0.75,0.27 2.12,0.41 0.62,0.14 0.37,0.54 0.62,0.68 0.87,0.68 0.63,0.27 2.12,0.28 0.24,-0.13 0,-0.14 -0.12,-0.27 0,-0.68 0,-0.27 0.5,-0.13 0.87,0 0.13,0 1.12,0.68 1.12,-0.13 0.5,-0.13 0.12,-0.14 0.76,-0.81 0.12,0.14 0.5,0.68 0.74,0 0.5,0.41 0.25,0.13 0.37,1.09 1.25,-0.14 1,-0.67 0.24,0.14 0.38,0.27 -0.01,0.81 -0.25,0.68 -0.74,0.27 -0.88,1.07 -0.5,0.68 -0.37,0.54 0.37,0.27 0.74,0.28 0.13,1.35 0.74,0.41 1.37,0.81 0.12,0.14 1.12,0.41 1.12,0.41 0.62,0.27 0.63,-0.13 0.5,0 0.37,-0.4 0.5,-0.14 1,0.14 0.12,0.68 0,0.13 -0.63,1.22 -0.37,0.4 -0.75,0.41 0,0.27 0.87,1.22 0.32,0.83 0.28,0 0,0.08 0.22,0 0,0.08 0.3,0 0,0.08 0.06,0 0.12,0 0.12,0 0,0.08 0.07,0 0,0.08 0.15,0 0,0.07 0.08,0 0,0.08 0.07,0 0,0.16 0.08,0 0,0.08 0.07,0 0,0.08 0.15,0 0,0.08 0.08,0 0,0.08 0.07,0 0,0.15 0.08,0 0,0.16 0.07,0 0,0.11 0,0.21 0.08,0 0,0.08 0.07,0 0,0.07 0.19,0 0.34,0 0,-0.07 0.3,0 0,0.07 0.07,0 0,0.16 0.3,0 0,0.08 0.22,0 0,0.08 0.15,0 0,0.08 0.08,0 0,0.08 0.07,0 0,0.08 0.15,0 0,0.08 0.3,0 0,-0.08 0.08,0 0,-0.32 0.07,0 0,-0.08 0.08,0 0,-0.16 0.07,0 0,-0.07 0.08,0 0,0.07 0.22,0 0,0.16 0.23,0 0,-0.08 0.15,0 0,-0.08 0.07,0 0,-0.07 -0.07,0 0,-0.08 -0.15,0 0,-0.08 -0.08,0 0,-0.16 -0.07,0 0,-0.16 0.07,0 0,-0.23 0.08,0 0,-0.16 0.15,0 0,-0.08 0.07,0 0,-0.24 0.08,0 0,-0.15 0.07,0 0,-0.24 0.08,0 0,-0.16 0.3,0 0,0.24 0.07,0 0,0.08 0.08,0 0,0.23 0.07,0 0,0.16 0.08,0 0,0.08 0.14,0 0,0.16 0.08,0 0,0.39 0.07,0 0,0.63 0.68,0 0,-0.08 0.15,0 0,-0.08 0.45,0 0,-0.15 -0.08,0 0,-0.24 -0.07,0 0,-0.16 0.3,0 0,-0.16 0.15,0 0,-0.07 0.07,0 0,-0.08 0.08,0 0,-0.16 0.07,0 0,-0.16 0.08,0 0,-0.08 0.15,0 0,-0.31 0.07,0 0,-0.08 0.08,0 0,-0.63 -0.3,0 0,-0.08 -0.08,0 0,-0.16 -0.07,0 0,-0.16 -0.08,0 0,-0.07 -0.15,0 0,0.07 -0.07,0 0,0.08 -0.08,0 0,0.16 -0.07,0 0,0.08 -0.15,0 0,0.08 -0.08,0 0,0.16 -0.07,0 0,0.23 -0.15,0 0,0.08 -0.23,0 0,0.08 -0.07,0 0,0.16 -0.08,0 0,0.08 -0.22,0 0,-0.08 -0.15,0 0,-0.95 0.07,0 0,-0.23 0.08,0 0,-0.08 0.07,0 0,-0.08 0.08,0 0,0.16 0.67,0 0,-0.16 0.15,0 0,-0.08 0.08,0 0,-0.08 0.07,0 0,-0.24 -0.07,0 0,-0.23 -0.08,0 0,-0.08 -0.15,0 0,-0.16 -0.07,0 0,-0.08 -0.08,0 0,-0.08 -0.07,0 0,-0.31 0.07,0 0,-0.63 -0.07,0 0,-0.16 -0.68,0 0,-0.08 -0.44,0 0,-0.08 -0.08,0 0,-0.08 -0.37,0 0,-0.15 -0.08,0 0,-0.08 -0.07,0 0,-0.08 -0.08,0 0,-0.08 -0.07,0 0,-0.08 0.22,0 0,-0.16 0.08,0 0,-0.15 0.07,0 0,-0.08 0.23,0 0,-0.08 0.07,0 0,-0.08 0.08,0 0,-0.16 0.07,0 0,-0.08 0.07,0 0,-0.08 0.15,0 0,-0.23 -0.22,0 0,-0.08 -0.07,0 0,-0.08 -0.08,0 0,-0.08 -0.07,0 0,-0.94 0.07,0 0,-0.08 0.15,0 0,-0.08 0.07,0 0,-0.08 0.08,0 0,-0.08 0.07,0 0,-0.08 0.08,0 0,-0.08 0.07,0 0,-0.08 0.23,0 0,-0.15 0.07,0 0,-0.08 0.3,0 0,-0.16 0.08,0 0,-0.08 0.07,0 0,-0.08 0.08,0 0,-0.08 0.07,0 0,-0.08 0.08,0 0,-0.07 0.22,0 0,-0.08 0.6,0 0,0.08 0.08,0 0,0.07 0.07,0 0,0.08 0.23,0 0,0.08 0.07,0 0,0.08 0.15,0 0,-0.08 0.3,0 0,-0.08 0.3,0 0,0.08 0.22,0 0,0.08 0.15,0 0,0.08 0.08,0 0,0.24 0.07,0 0,0.39 -0.07,0 0,0.24 -0.08,0 0,0.08 -0.07,0 0,0.15 -0.08,0 0,0.08 -0.07,0 0,0.08 -0.08,0 0,0.16 -0.07,0 0,0.08 -0.08,0 0,0.08 -0.07,0 0,0.15 -0.08,0 0,0.08 -0.07,0 0,0.08 -0.08,0 0,0.16 -0.07,0 0,0.08 -0.07,0 0,0.08 0.07,0 0,0.08 0.22,0 0,-0.16 0.08,0 0,-0.08 0.07,0 0,-0.08 0.08,0 0,-0.16 0.07,0 0,-0.08 0.08,0 0,-0.08 0.07,0 0,-0.15 0.08,0 0,-0.08 0.07,0 0,-0.08 0.08,0 0,-0.16 0.07,0 0,-0.08 0.08,0 0,-0.08 0.07,0 0,-0.15 0.08,0 0,-0.08 0.22,0 0,0.16 0.08,0 0,0.23 0.15,0 0,0.08 0.07,0 0,-0.08 0.08,0 0,-0.08 0.15,0 0,-0.08 0.07,0 0,0.08 0.07,0 0,0.08 0.08,0 0,0.08 0.15,0 0,0.16 -0.08,0 0,0.08 -0.07,0 0,0.15 -0.08,0 0,0.4 -0.07,0 0,0.24 -0.22,0 0,0.07 -0.15,0 0,0.08 -0.08,0 0,0.24 0.08,0 0,0.08 0.15,0 0,-0.08 0.07,0 0,-0.08 0.08,0 0,-0.08 0.07,0 0,-0.08 0.15,0 0,0.08 0.3,0 0,0.08 0.08,0 0,0.08 0.07,0 0,0.08 0.08,0 0,0.08 0.07,0 0,0.08 0.08,0 0,0.07 0.14,0 0,0.08 0.08,0 0,0.08 0.15,0 0,0.16 0.07,0 0,0.08 0.08,0 0,0.08 0.07,0 0,0.15 0.08,0 0,0.16 0.07,0 0,0.55 -0.07,0 0,0.4 0.07,0 0,0.23 0.08,0 0,0.56 0.07,0 0,0.15 0.08,0 0,0.16 0.07,0 0,0.08 0.3,0 0,-0.24 0.08,0 0,-0.71 0.07,0 0,-0.07 0.23,0 0,-0.08 0.22,0 0,0.08 0.15,0 0,0.07 0.07,0 0,0.08 0.15,0 0,0.08 0.08,0 0,0.08 0.07,0 0,0.08 0.15,0 0,0.08 0.08,0 0,0.24 -0.08,0 0,0.23 0.16,0 0,0.08 0.07,0 0,0.16 0.67,0 0,-0.32 0.15,0 0,0.08 0.23,0 0,0.08 0.07,0 0,0.16 0.53,0 0,-0.16 0.07,0 0,-0.55 -0.07,0 0,-0.08 -0.15,0 0,-0.08 -0.75,0 0,-0.08 -0.82,0 0,-0.08 -0.23,0 0,-0.08 -0.15,0 0,-0.15 -0.08,0 0,-0.08 -0.07,0 0,-0.16 -0.08,0 0,-0.24 0.08,0 0,-0.07 0.07,0 0,-0.16 0.23,0 0,0.16 0.15,0 0,-0.08 0.15,0 0,-0.08 0.15,0 0,-0.63 0.07,0 0,-0.4 -0.07,0 0,-0.08 -0.08,0 0,-0.07 -0.22,0 0,-0.16 -0.08,0 0,-0.32 -0.07,0 0,-0.23 -0.08,0 0,-0.08 0.08,0 0,-0.24 -0.08,0 0,-0.16 0.08,0 0,-0.08 0.07,0 0,-0.15 0.08,0 0,-0.24 0.08,0 0,-0.08 0.07,0 0,-0.08 0.07,0 0,-0.08 0.15,0 0,-0.15 0.08,0 0,-0.16 0.07,0 0,-0.08 0.08,0 0,-0.08 0.22,0 0,-0.08 0.08,0 0,0.08 0.07,0 0,0.08 0.15,0 0,0.24 0.08,0 0,0.08 0.07,0 0,0.07 0.15,0 0,0.08 0.08,0 0,0.08 0.22,0 0,0.08 0.3,0 0,0.08 0.08,0 0,0.08 0.07,0 0,0.08 0.08,0 0,0.08 0.07,0 0,0.07 0.07,0 0,0.08 0.08,0 0,0.08 0.22,0 0,0.16 0.08,0 0,0.08 0.08,0 0,0.08 0.14,0 0,0.16 0.53,0 0,-0.16 0.07,0 0,-0.79 0.08,0 0,-0.08 0.07,0 0,-0.08 0.53,0 0,-0.31 -0.08,0 0,-0.08 -0.07,0 0,-0.08 -0.08,0 0,-0.08 -0.07,0 0,-0.08 -0.3,0 0,-0.08 -0.08,0 0,-0.08 -0.07,0 0,-0.23 -0.23,0 0,0.08 -0.44,0 0,-0.08 -0.08,0 0,-0.08 -0.08,0 0,-0.08 -0.07,0 0,-0.08 -0.08,0 0,-0.08 -0.07,0 0,-0.08 -0.08,0 0,-0.23 -0.07,0 0,-0.08 -0.07,0 0,-0.08 -0.08,0 0,-0.08 -0.22,0 0,-0.08 -0.08,0 0,-0.08 -0.15,0 0,-0.08 -0.07,0 0,-0.07 -0.08,0 0,-0.08 -0.15,0 0,-0.08 -0.22,0 0,-0.08 -0.15,0 0,-0.08 -0.08,0 0,-0.16 -0.07,0 0,-0.08 -0.15,0 0,-0.08 -0.08,0 0,-0.55 -0.07,0 0,-0.15 -0.08,0 0,-0.32 0.08,0 0,-0.39 -0.08,0 0,-0.16 -0.07,0 0,-0.08 -0.08,0 0,-0.08 -0.07,0 0,-0.08 -0.08,0 0,-0.24 -0.07,0 0,-0.15 -0.07,0 0,-0.08 -0.08,0 0,-0.08 -0.08,0 0,-0.24 -0.07,0 0,-0.15 -0.08,0 0,-0.08 -0.07,0 0,-0.4 -0.15,0 0,-0.08 -0.08,0 0,-0.08 -0.14,0 0,-0.15 -0.08,0 0,-0.08 -0.07,0 0,-0.08 -0.08,0 0,-0.16 -0.07,0 0,-0.31 -0.08,0 0,-0.08 -0.07,0 0,-1.03 0.07,0 0,-0.08 0.08,0 0,-0.07 0.44,0 0,-0.08 0.3,0 0,-0.4 0.08,0 0,-0.08 0.07,0 0,-0.08 0.23,0 0,-0.07 0.07,0 0,-0.48 -0.14,0 0,-0.08 -0.68,0 0,0.08 -0.15,0 0,0.08 -0.07,0 0,0.08 -0.08,0 0,0.08 -0.3,0 0,-0.08 -0.3,0 0,0.08 -0.07,0 0,0.08 -0.08,0 0,0.16 -0.07,0 0,0.63 -0.08,0 0,0.08 -0.22,0 0,0.07 -0.08,0 0,0.08 -0.07,0 0,0.08 -0.15,0 0,0.08 -0.15,0 0,0.08 -0.15,0 0,0.08 -0.15,0 0,0.08 -0.07,0 0,0.08 -0.75,0 0,-0.08 -0.23,0 0,-0.08 -0.07,0 0,0.08 -0.23,0 0,0.08 -0.15,0 0,-0.08 -0.22,0 0,-0.08 -0.15,0 0,-0.08 -0.23,0 0,-0.08 -0.15,0 0,-0.08 -0.07,0 0,-0.08 -0.08,0 0,-0.08 -0.07,0 0,-0.07 -0.15,0 0,-0.08 -0.08,0 0,-0.08 -0.07,0 0,-0.08 -0.07,0 0,-0.08 -0.08,0 0,-0.08 -0.07,0 0,-0.08 -0.08,0 0,-0.16 -0.07,0 0,-0.07 -0.15,0 0,-0.48 -0.15,0 0,-0.15 -0.15,0 0,-0.16 -0.08,0 0,-0.08 -0.07,0 0,-0.08 -0.08,0 0,-0.08 -0.07,0 0,-0.08 -0.08,0 0,-0.16 -0.07,0 0,-0.78 -0.08,0 0,-0.16 -0.07,0 0,-0.55 0.07,0 0,-0.16 0.08,0 0,-0.08 0.07,0 0,-0.08 0.15,0 0,-0.16 0.3,0 0,-0.23 0.23,0 0,-0.08 0.22,0 0,-0.08 0.08,0 0,-0.08 0.07,0 0,-0.08 0.08,0 0,-0.08 0.07,0 0,-0.08 0.07,0 0,-0.15 -0.37,0 0,-0.08 -0.07,0 0,-0.08 -0.15,0 0,-0.08 -0.15,0 0,-0.08 -0.08,0 0,-0.47 0.08,0 0,-0.24 0.07,0 0,-0.08 0.08,0 0,-0.08 0.15,0 0,-0.08 0.59,0 0,-0.07 0.15,0 0,-0.32 -0.07,0 0,-0.24 -0.08,0 0,-0.31 -0.15,0 0,-0.08 -0.14,0 0,-0.08 -0.23,0 0,0.08 -0.07,0 0,0.16 -0.08,0 0,0.08 -0.3,0 0,-0.08 -0.3,0 0,0.08 -0.07,0 0,0.08 -0.08,0 0,0.07 -0.52,0 0,-0.07 -0.15,0 0,-0.08 -0.15,0 0,-0.08 -0.08,0 0,-0.08 -0.07,0 0,-0.61 -0.11,-0.02 -0.63,-0.27 -0.25,0.13 -1.99,0.67 -0.38,0.13 -2.12,-0.41 -2.24,-1.09 -0.99,-0.41 -0.63,0.94 -0.37,0.14 -0.88,0.26 -0.49,0 -0.01,1.09 -0.25,0.4 -0.88,1.08 -0.62,-0.14 -0.37,-0.13 -0.87,-0.82 -0.37,-0.27 -0.87,-1.09 -0.75,-0.68 -0.5,-0.13 -1.88,3.1 0.62,0.55 -0.12,0 -0.25,0.27 -0.63,0.26 -3.36,1.08 -0.75,-0.41 -2.49,-0.82 -1.87,-0.96 -0.62,0.41 -0.25,-0.41 z" 
                fill="rgb(151, 144, 238)" 
                stroke="white" 
                stroke-width=".7px"
                title="Ceiba" 
                id="PR-CB" 
            />
        </svg>