<svg xmlns="http://www.w3.org/2000/svg" viewBox="460.1299999999999 81.07999999999998 40.23000000000013 27.75000000000003" width="40.23000000000013" height="27.75000000000003">
            <path 
                d="m 487.26,83.24 0,-0.4 0,-0.95 0,-0.14 -0.62,-0.67 -0.75,0.95 -0.25,0.54 -1.49,1.08 -0.62,0.14 -0.38,0.14 -0.37,0.13 -0.37,-0.13 -0.13,-0.14 -0.12,0 -1.62,-0.94 -0.25,1.89 -0.12,0.27 -0.5,0.28 -1.75,0.81 -1.61,1.63 -0.13,1.62 -0.24,0.14 -2.87,0.82 -0.99,0.27 -1.75,0 -0.62,0.95 -1.11,2.17 -0.13,0.68 0.63,2.7 -0.12,0.27 -0.62,0 -2.62,-0.67 -1.12,-0.67 -0.5,-0.81 -0.26,-1.08 -2.73,0 -0.75,0.14 -0.25,0.27 0.13,0.54 0.12,0.14 0.25,0.13 5.86,4.32 -2.11,1.9 1.37,0.8 -1.12,1.36 2.12,0.26 -0.12,1.36 1,0.54 1.99,0.94 1.74,-0.41 2.12,1.35 3.61,-0.96 2.37,2.03 2.86,-1.23 -0.25,-2.3 7.47,2.7 1.99,-1.36 3.23,0.13 2.12,-1.9 2.74,-1.89 0.74,-4.47 -1.37,-0.27 -0.62,0.14 -0.63,-0.54 0.87,-3.25 -2,-5.14 -2.37,-2.57 -0.24,0.14 -1.75,0.81 -0.24,0.14 -2.99,2.44 -1.12,0 -0.38,-3.52 -0.26,-3.65 z" 
                fill="rgb(151, 144, 238)" 
                stroke="white" 
                stroke-width=".7px"
                title="Cidra" 
                id="PR-CD" 
            />
        </svg>