<svg xmlns="http://www.w3.org/2000/svg" viewBox="406.21 96.36999999999998 50.379999999999995 45.85999999999996" width="50.379999999999995" height="45.85999999999996">
            <path 
                d="m 414.57,100.11 -1.25,-0.4 -0.75,-0.4 -0.25,-0.54 0,-0.54 -0.25,-0.4 -0.25,-0.14 -3.24,-1.06 -1.12,-0.13 -1.25,-0.13 0.38,0.27 0.87,0.67 0.25,0.13 2.75,2.29 -0.12,0.41 0,1.89 2.5,2.69 0.13,0.41 -0.49,2.71 -0.86,1.08 -1.6,4.88 2.38,4.99 -1.61,1.37 -0.37,0.4 -0.37,1.22 0.01,1.35 0.76,2.98 -0.62,1.62 -0.49,0.68 2,3.1 -0.37,0.68 -0.24,1.9 -0.12,0.27 8.58,1.45 1.87,-0.82 0.49,0.13 2.37,1.48 0.25,0.13 1.37,0.4 0.75,-0.27 3.35,-0.83 1.25,1.48 0.87,1.35 0.88,0.54 1.24,0.54 1.24,-0.01 0.13,0.27 0.37,0.41 0.76,1.62 3.34,-4.21 0.99,0 0.75,-1.09 -0.13,-2.57 -0.01,-0.27 0.87,-1.22 1.61,-0.81 1.37,-1.63 0.25,-0.14 3.35,-0.69 0.62,-1.08 0.74,-1.36 0.38,-0.4 1.99,0.13 0.62,-0.01 0.62,-0.27 1.99,-1.09 0.37,-0.27 0.12,-0.4 -0.62,-1.9 -0.13,-0.13 -0.62,-0.68 -1.74,-0.13 -1.5,-2.02 -0.63,-0.67 -4.86,-2.96 -4.24,-3.51 -2.62,-2.15 1.98,-2.85 0.13,-0.41 0,-0.13 -1.12,-0.54 0.61,-3.38 -0.38,-0.14 -1.87,-1.34 0.24,-2.03 -1.24,-0.54 -1.13,-0.67 -2.98,0.14 -0.13,0 -1.12,0.14 -0.74,0.41 -0.5,0.14 -3.62,-1.2 -0.87,-0.68 -1.38,-0.94 -0.49,0.14 -0.87,0.68 -2.99,0.15 -0.74,1.63 -1,0.27 -1.49,0.14 -1.25,-0.26 -1.11,0.82 -1,-0.14 z" 
                fill="rgb(151, 144, 238)" 
                stroke="white" 
                stroke-width=".7px"
                title="Coamo" 
                id="PR-CO" 
            />
        </svg>