<svg xmlns="http://www.w3.org/2000/svg" viewBox="453.00999999999993 67.98000000000002 27.530000000000086 29.370000000000005" width="27.530000000000086" height="29.370000000000005">
            <path 
                d="m 475.29,73.93 -0.63,-0.81 -0.75,-2.57 -1.87,-1.08 0.12,-0.81 -0.25,-0.41 -0.12,-0.13 -0.25,-0.14 -0.25,0 -0.88,0.01 -3.11,0.55 -0.38,0.13 -0.12,0.41 -0.99,2.3 -1.12,2.84 -0.12,0.14 -0.13,0.14 -1.74,-0.41 -1.87,0.15 -0.74,1.49 -0.88,0.27 -1.99,0.28 -1.99,0.27 -1,0.28 -0.49,1.21 0.75,2.17 -1.36,4.06 0,0.14 -0.12,0.4 0.25,0.68 1.5,2.7 0.13,2.57 0.13,3.11 1.87,0.81 0.25,-0.41 0,-0.41 0.5,-0.67 0.87,-0.41 0.62,-0.68 1.12,-0.54 0.37,0.54 0.51,2.02 2.73,0 0.26,1.08 0.5,0.81 1.12,0.67 2.62,0.67 0.62,0 0.12,-0.27 -0.63,-2.7 0.13,-0.68 1.11,-2.17 0.62,-0.95 1.75,0 0.99,-0.27 2.87,-0.82 0.24,-0.14 0.13,-1.62 1.61,-1.63 1.75,-0.81 0.5,-0.28 0.12,-0.27 0.25,-1.89 -2,-1.49 -0.5,-1.62 -0.01,-2.84 -2.74,-2.97 z" 
                fill="rgb(151, 144, 238)" 
                stroke="white" 
                stroke-width=".7px"
                title="Comerío" 
                id="PR-CM" 
            />
        </svg>