<svg xmlns="http://www.w3.org/2000/svg" viewBox="422.7999999999999 41.980000000000004 28.37000000000012 36.81" width="28.37000000000012" height="36.81">
            <path 
                d="m 441.04,42.63 -0.87,-0.4 -3,-0.12 -1,-0.13 -0.75,0 -0.5,0 -0.12,0.14 -0.12,0.13 -0.13,0.27 -0.49,1.22 0,0.55 0.25,0.54 -0.12,0.13 -0.88,0 -0.75,-0.67 -0.87,-0.26 -0.88,-0.14 -0.37,0.14 -0.12,0.13 0,0.28 0,0.81 0,0.27 0.13,0.27 1,0.4 0.5,0.54 0.12,0.27 -0.12,0.27 -0.62,0.14 -0.13,0.13 -0.37,0.28 -0.75,0.54 -0.12,0.27 -0.25,0.27 -0.12,0.68 0.13,1.9 -0.37,1.21 -1.75,-0.8 -0.13,0.41 -0.73,2.84 -0.99,3.25 -0.12,0.41 -0.12,1.89 -0.12,0.27 -0.62,0.95 -0.62,1.09 0,0.13 0.13,2.17 -0.25,0.41 -0.5,0.27 -0.12,0.41 -0.49,0.81 -0.12,1.22 0.12,0.27 1.5,0.13 0.25,0.13 1.12,1.08 2.13,2.83 0.5,0.68 1.14,2.97 1.62,1.21 0.25,0.27 2.87,0.8 1.12,-0.28 2.49,-1.36 0.24,-0.95 2,-0.14 1.49,-0.28 1.25,-0.54 0.62,-0.41 3.36,-2.31 1.73,-3.52 0.23,-5.82 0.37,-2.98 1.85,-7.31 0.12,-0.28 -1.63,-3.78 -0.25,-0.54 -0.62,-1.35 -0.38,-0.68 -0.38,-0.54 -0.37,-0.27 -0.75,-0.8 -0.5,-0.27 -2,-1.89 -0.26,-0.27 -0.74,0.41 -0.25,0.27 -0.87,0.14 -0.38,0 -0.75,-0.41 z" 
                fill="rgb(151, 144, 238)" 
                stroke="white" 
                stroke-width=".7px"
                title="Corozal" 
                id="PR-CZ" 
            />
        </svg>