<svg xmlns="http://www.w3.org/2000/svg" viewBox="689.5000000000001 46.870000000000005 46.56000000000029 21.1399999999998" width="46.56000000000029" height="21.1399999999998">
            <path 
                d="m 728.13,61.78 -0.3,0 0,0.08 -0.08,0 0,0.16 -0.08,0 0,0.07 0.08,0 0,0.08 0.08,0 0,0.08 0.07,0 0,0.08 0.15,0 0,0.08 0.45,0 0,-0.16 0.07,0 0,-0.31 -0.07,0 0,-0.08 -0.37,0 0,-0.08 z m -21.42,-5.05 -0.22,0 0,0.08 -0.15,0 0,0.08 -0.08,0 0,0.08 -0.07,0 0,0.31 -0.07,0 0,0.16 -0.08,0 0,0.08 -0.15,0 0,0.47 -0.07,0 0,0.08 -0.08,0 0,0.08 -0.3,0 0,0.08 -0.22,0 0,0.08 -0.38,0 0,0.24 -0.07,0 0,0.15 -0.15,0 0,-0.07 -0.15,0 0,-0.08 -0.08,0 0,-0.08 -0.15,0 0,-0.08 -0.37,0 0,0.08 -0.08,0 0,0.08 -0.07,0 0,0.08 0.07,0 0,0.07 0.23,0 0,0.08 0.15,0 0,0.16 0.22,0 0,0.08 0.08,0 0,0.16 0.07,0 0,0.23 0.08,0 0,0.16 0.07,0 0,0.55 -0.07,0 0,0.24 -0.08,0 0,0.24 -0.15,0 0,0.15 -0.15,0 0,0.32 0.08,0 0,0.08 0.22,0 0,-0.08 0.08,0 0,-0.08 0.15,0 0,-0.08 0.15,0 0,-0.08 0.67,0 0,0.08 0.08,0 0,0.08 0.15,0 0,0.08 0.07,0 0,0.08 0.08,0 0,0.08 0.07,0 0,0.08 0.08,0 0,0.39 -0.08,0 0,0.47 0.08,0 0,0.24 0.07,0 0,0.16 0.07,0 0,0.08 0.08,0 0,0.08 0.07,0 0,0.07 0.15,0 0,0.08 0.08,0 0,0.08 0.52,0 0,-0.08 0.08,0 0,-0.15 0.07,0 0,-0.48 -0.07,0 0,-0.16 -0.08,0 0,-0.23 -0.15,0 0,-0.08 -0.15,0 0,-0.08 -0.15,0 0,-0.08 0.08,0 0,-0.16 0.07,0 0,-0.23 0.15,0 0,-0.08 0.08,0 0,-0.16 0.15,0 0,-0.55 -0.08,0 0,-0.16 -0.07,0 0,-0.63 0.07,0 0,-0.08 0.08,0 0,-0.08 0.07,0 0,-0.08 0.08,0 0,-0.23 -0.08,0 0,-0.24 -0.07,0 0,-0.08 -0.08,0 0,-0.23 -0.07,0 0,-0.08 -0.08,0 0,-0.08 -0.15,0 0,-0.08 -0.07,0 0,-0.08 -0.08,0 0,-0.08 -0.07,0 0,-0.39 0.07,0 0,-0.16 0.08,0 0,-0.08 0.07,0 0,-0.71 -0.07,0 0,-0.08 -0.08,0 0,-0.08 z m 27.63,-2.13 -0.3,0 0,0.08 -0.22,0 0,0.32 0.3,0 0,0.16 0.14,0 0,0.07 0.15,0 0,0.4 0.08,0 0,0.08 0.07,0 0,0.15 -0.15,0 0,0.16 -0.07,0 0,0.08 -0.3,0 0,0.16 -0.3,0 0,-0.16 -0.15,0 0,-0.08 -0.08,0 0,-0.16 -0.07,0 0,-0.23 -0.08,0 0,-0.08 -0.07,0 0,-0.08 -0.6,0 0,-0.08 -0.22,0 0,-0.08 -0.83,0 0,0.08 -0.22,0 0,0.16 -0.08,0 0,0.16 -0.07,0 0,0.23 0.07,0 0,0.16 0.08,0 0,0.08 0.15,0 0,0.08 0.15,0 0,0.08 0.07,0 0,0.08 0.23,0 0,0.08 0.37,0 0,0.08 0.08,0 0,0.07 0.07,0 0,0.08 0.08,0 0,0.08 0.22,0 0,0.08 0.15,0 0,0.08 0.15,0 0,0.31 0.08,0 0,0.16 0.07,0 0,0.32 0.07,0 0,0.31 0.08,0 0,0.08 0.07,0 0,0.08 0.08,0 0,0.08 0.23,0 0,0.08 0.59,0 0,0.08 0.45,0 0,0.08 0.83,0 0,-0.16 0.07,0 0,-0.08 0.3,0 0,-0.39 -0.07,0 0,-0.16 -0.3,0 0,0.16 -0.45,0 0,-0.24 0.07,0 0,-0.24 0.15,0 0,-0.16 -0.07,0 0,-0.07 -0.23,0 0,0.15 -0.22,0 0,-0.23 -0.08,0 0,-0.32 -0.07,0 0,-0.39 0.07,0 0,-0.08 0.68,0 0,-0.08 0.07,0 0,-0.32 0.08,0 0,-0.23 0.07,0 0,-0.08 0.08,0 0,-0.4 -0.08,0 0,-0.07 -0.07,0 0,-0.08 -0.23,0 0,-0.08 -0.22,0 0,-0.08 -0.23,0 0,-0.08 -0.07,0 0,-0.08 -0.08,0 0,-0.08 -0.52,0 0,-0.08 z m -41.18,-0.79 -0.3,0 0,0.16 0.08,0 0,0.24 0.15,0 0,0.16 0.07,0 0,0.08 0.08,0 0,0.07 0.15,0 0,0.08 0.07,0 0,0.32 0.23,0 0,0.08 0.15,0 0,0.08 0.07,0 0,0.08 0.08,0 0,0.07 0.22,0 0,0.08 0.08,0 0,0.08 0.22,0 0,-0.08 0.08,0 0,-0.08 0.07,0 0,-0.15 -0.07,0 0,-0.24 -0.08,0 0,-0.16 -0.07,0 0,-0.16 -0.08,0 0,-0.23 0.08,0 0,-0.32 -0.15,0 0,-0.08 -0.15,0 0,0.08 -0.15,0 0,0.08 -0.15,0 0,0.08 -0.45,0 0,-0.08 -0.08,0 0,-0.08 -0.15,0 0,-0.16 z m -3.37,-2.83 -0.22,0 0,0.31 0.08,0 0,0.08 0.07,0 0,0.24 -0.07,0 0,0.08 -0.15,0 0,0.15 0.07,0 0,0.08 0.15,0 0,0.16 0.07,0 0,0.39 0.08,0 0,0.16 0.15,0 0,-0.08 0.15,0 0,-0.39 -0.08,0 0,-0.08 0.08,0 0,-0.08 0.07,0 0,-0.08 0.23,0 0,-0.39 -0.15,0 0,-0.08 -0.15,0 0,-0.08 -0.08,0 0,-0.32 -0.3,0 0,-0.07 z m 43.13,-1.11 -0.15,0 0,0.08 -0.15,0 0,0.47 0.07,0 0,0.08 0.23,0 0,0.08 0.07,0 0,0.08 0.08,0 0,0.16 0.07,0 0,0.16 0.6,0 0,-0.08 0.15,0 0,-0.16 -0.07,0 0,-0.16 -0.08,0 0,-0.08 -0.3,0 0,-0.08 -0.15,0 0,-0.23 -0.07,0 0,-0.08 -0.15,0 0,-0.08 -0.08,0 0,-0.08 -0.07,0 0,-0.08 z m -6.37,-0.63 -1.34,0 0,0.08 -0.08,0 0,0.08 -0.07,0 0,0.16 -0.38,0 0,-0.16 -0.67,0 0,0.08 -0.15,0 0,0.08 -0.08,0 0,0.07 -0.15,0 0,0.24 0.08,0 0,0.16 0.07,0 0,0.24 0.08,0 0,0.07 0.3,0 0,0.08 0.15,0 0,0.08 0.15,0 0,0.08 0.07,0 0,0.08 0.08,0 0,0.08 0.07,0 0,0.08 0.08,0 0,0.16 0.22,0 0,0.15 0.08,0 0,0.16 0.07,0 0,0.08 0.15,0 0,0.16 0.08,0 0,0.08 0.07,0 0,0.08 0.07,0 0,0.07 0.08,0 0,0.08 0.45,0 0,0.16 1.12,0 0,-0.08 0.08,0 0,-0.08 0.07,0 0,-0.08 0.15,0 0,-0.07 0.15,0 0,-0.08 0.45,0 0,0.08 0.23,0 0,0.07 0.22,0 0,0.08 0.15,0 0,0.08 0.37,0 0,-0.16 0.23,0 0,-0.07 0.07,0 0,-0.24 -0.07,0 0,-0.08 -0.08,0 0,-0.16 0.08,0 0,-0.08 0.15,0 0,-0.08 0.07,0 0,-0.07 0.08,0 0,-0.16 0.07,0 0,-0.16 -0.07,0 0,-0.08 -0.3,0 0,0.24 -0.08,0 0,0.23 -0.3,0 0,-0.15 -0.07,0 0,-0.08 -0.3,0 0,-0.08 -0.15,0 0,-0.08 -0.15,0 0,-0.16 -0.07,0 0,-0.08 -0.15,0 0,-0.08 -0.08,0 0,-0.31 -0.07,0 0,-0.16 -0.08,0 0,-0.08 -0.15,0 0,-0.08 -0.22,0 0,-0.08 -0.08,0 0,-0.07 -0.07,0 0,-0.08 -0.15,0 0,-0.08 -0.3,0 0,-0.08 -0.23,0 0,-0.08 z m -22.23,-2.37 -0.23,0 0,0.08 -0.07,0 0,0.24 -0.23,0 0,0.08 -0.07,0 0,0.31 -0.08,0 0,0.16 -0.22,0 0,-0.16 -0.08,0 0,-0.15 -0.29,0 0,-0.16 -0.08,0 0,-0.08 -0.15,0 0,0.08 -0.75,0 0,0.24 0.08,0 0,0.07 0.15,0 0,0.08 0.45,0 0,0.32 0.07,0 0,0.08 0.15,0 0,0.08 0.15,0 0,0.07 0.15,0 0,0.08 0.15,0 0,0.16 0.15,0 0,0.16 0.07,0 0,0.08 0.08,0 0,0.08 0.15,0 0,0.23 0.07,0 0,0.16 0.08,0 0,0.32 0.07,0 0,0.39 0.08,0 0,0.08 0.07,0 0,0.16 0.08,0 0,0.08 0.07,0 0,0.08 0.15,0 0,0.07 0.3,0 0,0.08 0.08,0 0,0.16 0.07,0 0,0.24 0.08,0 0,0.39 0.07,0 0,0.16 0.15,0 0,0.24 0.08,0 0,0.23 0.07,0 0,0.08 0.08,0 0,0.08 0.15,0 0,0.16 0.07,0 0,0.16 0.08,0 0,0.15 0.07,0 0,0.16 0.15,0 0,0.16 0.08,0 0,0.08 0.07,0 0,0.24 0.07,0 0,0.15 0.08,0 0,0.16 0.07,0 0,0.08 0.08,0 0,0.24 0.07,0 0,0.15 0.08,0 0,0.4 -0.08,0 0,0.16 -0.07,0 0,0.15 -0.15,0 0,0.08 -0.08,0 0,0.24 -0.07,0 0,0.08 -0.07,0 0,0.39 0.14,0 0,-0.08 0.15,0 0,-0.08 0.15,0 0,-0.07 0.08,0 0,-0.24 0.07,0 0,-0.08 0.08,0 0,-0.08 0.15,0 0,-0.08 0.37,0 0,0.08 0.23,0 0,0.08 0.07,0 0,0.08 0.15,0 0,0.08 0.23,0 0,0.08 0.15,0 0,0.08 0.07,0 0,0.07 0.08,0 0,0.16 0.15,0 0,0.24 0.07,0 0,0.71 0.15,0 0,-0.24 0.08,0 0,-0.08 0.07,0 0,-0.16 0.15,0 0,-0.07 0.08,0 0,0.07 0.22,0 0,0.08 0.37,0 0,0.16 0.15,0 0,0.08 0.08,0 0,0.08 0.07,0 0,0.87 -0.07,0 0,0.15 0.07,0 0,0.08 0.08,0 0,0.08 0.07,0 0,0.24 0.08,0 0,1.02 0.15,0 0,0.08 0.22,0 0,0.08 0.3,0 0,0.08 0.08,0 0,0.08 0.07,0 0,0.08 0.08,0 0,0.23 0.07,0 0,0.08 0.08,0 0,0.32 0.07,0 0,0.08 0.08,0 0,0.08 0.07,0 0,0.08 0.07,0 0,0.07 0.08,0 0,0.08 0.08,0 0,0.16 0.07,0 0,0.16 0.08,0 0,0.08 0.14,0 0,0.08 0.23,0 0,0.15 0.07,0 0,0.08 0.15,0 0,0.16 0.68,0 0,-0.16 0.15,0 0,-0.08 0.22,0 0,0.08 0.38,0 0,0.24 0.07,0 0,0.16 0.08,0 0,0.08 0.14,0 0,0.15 -0.07,0 0,0.16 -0.07,0 0,0.08 -0.08,0 0,0.08 0.15,0 0,0.08 0.07,0 0,0.08 0.16,0 0,-0.08 0.07,0 0,0.08 0.08,0 0,0.39 -0.08,0 0,0.55 -0.07,0 0,0.16 0.15,0 0,0.08 0.14,0 0,-0.08 0.45,0 0,0.08 0.15,0 0,0.08 0.08,0 0,0.08 0.07,0 0,0.08 0.23,0 0,0.23 0.15,0 0,0.08 0.15,0 0,0.08 0.07,0 0,0.08 0.08,0 0,0.08 0.07,0 0,0.08 0.08,0 0,0.31 0.07,0 0,0.32 0.08,0 0,0.23 0.07,0 0,0.08 0.08,0 0,0.16 0.07,0 0,0.24 0.15,0 0,0.08 0.22,0 0,0.07 0.08,0 0,0.08 0.07,0 0,0.08 0.08,0 0,0.08 0.07,0 0,0.16 0.08,0 0,0.16 0.07,0 0,0.15 0.08,0 0,0.08 0.3,0 0,0.08 0.22,0 0,0.08 0.23,0 0,0.16 0.07,0 0,0.16 0.08,0 0,0.39 -0.08,0 0,0.08 -0.07,0 0,0.08 -0.08,0 0,0.08 -0.07,0 0,0.15 -0.08,0 0,0.24 0.08,0 0,0.08 0.3,0 0,0.08 0.07,0 0,0.08 0.3,0 0,-0.55 0.23,0 0,-0.16 0.3,0 0,-0.08 0.15,0 0,-0.32 -0.08,0 0,-0.07 -0.07,0 0,-0.08 -0.23,0 0,-0.16 -0.3,0 0,-0.16 -0.07,0 0,-0.31 0.15,0 0,-0.08 0.9,0 0,-0.16 0.07,0 0,-0.08 -0.07,0 0,-0.24 -0.15,0 0,-0.08 -0.08,0 0,-0.15 -0.07,0 0,-0.08 -0.08,0 0,-0.08 -0.07,0 0,-0.08 -0.08,0 0,-0.24 0.3,0 0,0.16 0.37,0 0,-0.08 0.08,0 0,-0.08 0.07,0 0,-0.47 -0.07,0 0,-0.16 -0.08,0 0,-0.08 -0.14,0 0,-0.15 -0.08,0 0,-0.16 -0.15,0 0,-0.08 -0.07,0 0,-0.39 -0.15,0 0,-0.08 -0.23,0 0,0.08 -0.07,0 0,0.08 -0.08,0 0,0.07 -0.37,0 0,0.08 -0.23,0 0,0.08 -0.15,0 0,0.08 -0.07,0 0,0.08 -0.3,0 0,-0.24 0.07,0 0,-0.08 0.08,0 0,-0.07 0.07,0 0,-0.08 0.23,0 0,-0.4 -0.08,0 0,-0.39 0.3,0 0,-0.08 0.08,0 0,-0.47 -0.08,0 0,-0.32 -0.15,0 0,-0.08 -0.15,0 0,-0.08 -0.3,0 0,-0.16 -0.07,0 0,-0.07 -0.22,0 0,-0.08 -0.08,0 0,-0.08 -0.38,0 0,-0.08 -0.52,0 0,-0.08 -0.07,0 0,-0.08 -0.23,0 0,-0.08 -0.07,0 0,-0.08 -0.15,0 0,-0.15 -0.15,0 0,-0.08 -0.23,0 0,0.16 -0.45,0 0,-0.24 -0.07,0 0,-0.24 -0.15,0 0,-0.08 -0.15,0 0,-0.08 -0.07,0 0,-0.15 -0.23,0 0,-0.16 -0.07,0 0,-0.16 -0.08,0 0,-0.47 -0.15,0 0,-0.47 0.08,0 0,-0.08 0.15,0 0,0.15 0.22,0 0,-0.15 0.52,0 0,0.15 0.23,0 0,0.08 0.22,0 0,0.08 0.08,0 0,0.08 0.15,0 0,0.08 0.3,0 0,0.08 0.15,0 0,0.08 0.45,0 0,0.08 0.22,0 0,-0.08 0.07,0 0,-0.24 -0.07,0 0,-0.08 -0.08,0 0,-0.08 -0.07,0 0,-0.08 -0.07,0 0,-0.15 -0.08,0 0,-0.08 0.08,0 0,-0.24 0.14,0 0,-0.08 0.15,0 0,0.32 0.08,0 0,0.08 0.07,0 0,0.15 0.08,0 0,0.08 0.07,0 0,0.08 0.08,0 0,0.08 0.08,0 0,0.08 0.07,0 0,0.08 0.07,0 0,0.08 0.15,0 0,0.08 0.08,0 0,0.07 0.07,0 0,0.16 0.08,0 0,0.08 0.3,0 0,-0.16 0.3,0 0,-0.08 0.07,0 0,0.08 0.08,0 0,0.16 0.22,0 0,0.16 1.2,0 0,0.16 0.07,0 0,0.08 0.08,0 0,0.07 -0.08,0 0,0.08 -0.07,0 0,0.08 -0.23,0 0,0.08 -0.15,0 0,0.08 -0.22,0 0,0.16 0.08,0 0,0.08 0.07,0 0,0.15 0.3,0 0,-0.07 0.07,0 0,-0.08 0.08,0 0,0.15 -0.08,0 0,0.08 -0.07,0 0,0.16 -0.08,0 0,0.16 0.08,0 0,0.08 0.07,0 0,0.08 0.23,0 0,0.07 0.15,0 0,0.16 0.22,0 0,-0.16 0.08,0 0,0.08 0.07,0 0,0.08 -0.07,0 0,0.16 -0.08,0 0,0.39 0.08,0 0,0.08 0.07,0 0,0.16 0.08,0 0,0.08 0.07,0 0,0.16 0.08,0 0,0.08 0.07,0 0,0.08 0.15,0 0,0.07 0.9,0 0,-0.15 0.15,0 0,-0.08 0.08,0 0,-0.08 0.15,0 0,-0.08 0.14,0 0,-0.08 0.23,0 0,-0.08 0.22,0 0,-0.08 0.53,0 0,0.08 0.22,0 0,0.08 0.15,0 0,0.08 0.08,0 0,0.08 0.07,0 0,0.08 0.15,0 0,0.23 0.08,0 0,0.32 -0.08,0 0,0.16 0.08,0 0,0.08 0.07,0 0,0.55 -0.07,0 0,0.08 -0.08,0 0,0.23 0.3,0 0,0.16 0.23,0 0,-0.08 0.22,0 0,-0.08 0.23,0 0,-0.08 0.07,0 0,-0.07 0.07,0 0,-0.16 0.08,0 0,-0.08 0.07,0 0,-0.24 0.08,0 0,-0.08 0.07,0 0,-0.15 0.08,0 0,-0.08 0.22,0 0,-0.08 0.15,0 0,0.08 0.23,0 0,0.16 0.45,0 0,-0.48 -0.45,0 0,-0.16 -0.08,0 0,-0.15 -0.07,0 0,-0.08 -0.08,0 0,-0.08 -0.07,0 0,-0.16 -0.08,0 0,-0.08 0.23,0 0,-0.08 0.07,0 0,-0.08 0.08,0 0,-0.55 0.37,0 0,-0.47 -0.07,0 0,-0.08 -0.15,0 0,-0.08 -0.15,0 0,-0.08 -0.08,0 0,-0.15 -0.07,0 0,-0.08 -0.23,0 0,-0.56 -0.07,0 0,-0.23 -0.08,0 0,-0.16 -0.07,0 0,-0.08 -0.08,0 0,-0.55 0.08,0 0,-0.08 0.07,0 0,-0.08 0.15,0 0,-0.08 0.08,0 0,0.08 0.07,0 0,0.4 0.08,0 0,0.15 0.07,0 0,0.08 0.08,0 0,0.08 0.22,0 0,0.08 0.15,0 0,-0.08 0.08,0 0,-0.08 0.37,0 0,0.08 0.3,0 0,0.08 0.23,0 0,0.16 0.07,0 0,0.08 0.08,0 0,0.08 0.07,0 0,0.07 0.08,0 0,0.08 0.22,0 0,0.08 0.22,0 0,0.08 0.3,0 0,0.08 0.08,0 0,0.16 0.52,0 0,-0.08 0.08,0 0,-0.08 0.15,0 0,-0.32 0.07,0 0,-0.07 -0.07,0 0,-0.71 -0.08,0 0,-0.08 -0.07,0 0,-0.16 -0.08,0 0,-0.63 -0.07,0 0,-0.4 -0.23,0 0,-0.07 -0.07,0 0,-0.08 -0.15,0 0,-0.16 -0.15,0 0,-0.08 -0.08,0 0,-0.16 -0.07,0 0,-0.08 -0.23,0 0,-0.08 -0.07,0 0,-0.07 -0.07,0 0,-0.16 -0.08,0 0,-0.16 -0.07,0 0,-0.31 -0.08,0 0,-0.24 -0.07,0 0,-0.16 -0.08,0 0,-0.08 -0.07,0 0,-0.08 -0.16,0 0,-0.08 -0.59,0 0,-0.08 -0.08,0 0,-0.07 -0.15,0 0,-0.08 -0.07,0 0,-0.08 -0.15,0 0,-0.08 -0.08,0 0,-0.08 -0.15,0 0,-0.08 -0.07,0 0,-0.08 -0.15,0 0,-0.08 -0.08,0 0,-0.07 -0.15,0 0,-0.08 -0.07,0 0,-0.08 -0.15,0 0,-0.08 -0.08,0 0,-0.08 -0.15,0 0,-0.08 -0.07,0 0,-0.08 -0.15,0 0,-0.08 -0.07,0 0,-0.08 -0.15,0 0,-0.07 -0.08,0 0,-0.08 -0.15,0 0,-0.08 -0.07,0 0,-0.08 -0.15,0 0,-0.16 -0.15,0 0,-0.08 -0.15,0 0,-0.08 -0.15,0 0,-0.08 -0.08,0 0,-0.07 -0.15,0 0,-0.08 -0.15,0 0,-0.08 -0.15,0 0,-0.08 -0.15,0 0,-0.08 -0.15,0 0,-0.08 -0.07,0 0,-0.08 -0.15,0 0,-0.08 -0.15,0 0,-0.07 -0.15,0 0,-0.08 -0.08,0 0,-0.08 -0.14,0 0,-0.08 -0.08,0 0,-0.08 -0.15,0 0,-0.08 -0.07,0 0,-0.08 -0.15,0 0,-0.08 -0.08,0 0,-0.08 -0.37,0 0,-0.07 -0.3,0 0,-0.08 -0.23,0 0,-0.08 -0.22,0 0,-0.08 -0.15,0 0,-0.08 -0.38,0 0,0.08 -0.07,0 0,0.08 -0.08,0 0,0.23 -0.22,0 0,0.08 -0.23,0 0,0.08 -0.07,0 0,0.08 -0.07,0 0,0.16 -0.08,0 0,0.08 -0.52,0 0,-0.08 -0.38,0 0,-0.08 -0.15,0 0,-0.08 -0.15,0 0,-0.08 -0.22,0 0,-0.08 -0.15,0 0,-0.08 -0.15,0 0,-0.07 -0.15,0 0,-0.08 -0.08,0 0,-0.08 -0.07,0 0,-0.16 -0.07,0 0,-0.08 -0.08,0 0,-0.08 -0.08,0 0,-0.08 -0.07,0 0,-0.08 0.15,0 0,-0.23 0.08,0 0,-0.16 0.07,0 0,-0.16 0.07,0 0,-0.47 0.08,0 0,-0.08 -0.08,0 0,-0.08 -0.37,0 0,0.32 -0.08,0 0,0.08 -0.07,0 0,0.15 -0.15,0 0,0.08 -0.37,0 0,0.08 -0.08,0 0,0.08 -0.07,0 0,0.24 -0.08,0 0,0.08 -0.07,0 0,0.15 -0.08,0 0,0.08 -0.07,0 0,0.16 -0.08,0 0,0.24 -0.07,0 0,0.15 -0.23,0 0,0.16 -0.07,0 0,-0.16 -0.15,0 0,0.16 -0.75,0 0,-0.08 -0.07,0 0,-0.08 -0.3,0 0,-0.07 -0.45,0 0,-0.08 -0.23,0 0,-0.08 -0.3,0 0,-0.08 -0.07,0 0,-0.08 -0.08,0 0,-0.08 -0.07,0 0,-0.24 -0.08,0 0,-0.15 -0.07,0 0,-0.08 -0.08,0 0,-0.08 -0.15,0 0,-0.08 -0.07,0 0,-0.08 -0.15,0 0,-0.08 -0.08,0 0,-0.08 -0.07,0 0,-0.15 -0.08,0 0,-0.08 -0.07,0 0,-0.08 -0.08,0 0,-0.16 -0.07,0 0,-0.16 -0.37,0 0,0.08 -0.08,0 0,0.16 -0.07,0 0,0.16 -0.08,0 0,0.15 -0.08,0 0,0.24 -0.14,0 0,0.08 -0.08,0 0,0.16 -0.07,0 0,1.02 -0.08,0 0,0.32 -0.15,0 0,0.16 -0.07,0 0,0.08 -0.08,0 0,0.07 -0.15,0 0,0.08 -0.6,0 0,0.08 -0.37,0 0,-0.08 -0.15,0 0,-0.08 -0.08,0 0,-0.07 -0.07,0 0,-0.08 -0.08,0 0,-0.08 -0.07,0 0,-0.08 -0.08,0 0,-0.16 -0.07,0 0,-0.08 -0.07,0 0,-0.16 -0.08,0 0,-0.07 -0.07,0 0,-0.08 -0.08,0 0,-0.24 -0.07,0 0,-0.24 -0.08,0 0,-0.15 -0.07,0 0,-0.08 -0.08,0 0,-0.08 -0.07,0 0,-0.08 -0.08,0 0,-0.08 -0.07,0 0,-0.16 -0.08,0 0,-0.08 -0.07,0 0,-0.08 -0.08,0 0,-0.07 -0.07,0 0,-0.08 -0.08,0 0,-0.08 -0.6,0 0,-0.08 -0.37,0 0,-0.08 -0.23,0 0,-0.08 -0.15,0 0,-0.08 -0.07,0 0,-0.08 -0.08,0 0,-0.08 -0.22,0 0,-0.07 -0.07,0 0,-0.16 -0.08,0 0,-0.16 -0.07,0 0,-0.08 -0.08,0 0,-0.08 -0.07,0 0,-0.08 -0.08,0 0,-0.08 -0.07,0 0,-0.15 -0.08,0 0,-0.16 -0.07,0 0,-0.08 -0.15,0 0,-0.08 -0.08,0 0,-0.08 -0.07,0 0,-0.16 0.07,0 0,-0.23 -0.07,0 0,-0.32 -0.08,0 0,-0.08 -0.07,0 0,-0.08 -0.08,0 0,-0.07 -0.07,0 0,-0.08 -0.08,0 0,-0.55 -0.07,0 0,-0.08 -0.08,0 0,-0.16 -0.07,0 0,-0.16 -0.15,0 0,-0.16 -0.15,0 0,-0.08 z" 
                fill="rgb(151, 144, 238)" 
                stroke="white" 
                stroke-width=".7px"
                title="Culebra" 
                id="PR-CU" 
            />
        </svg>