<svg xmlns="http://www.w3.org/2000/svg" viewBox="440.47000000000054 10.03 28.590000000000032 27.71" width="28.590000000000032" height="27.71">
            <path 
                d="m 453.3,10.03 -0.15,0 0,0.07 -0.07,0 0,0.08 -0.08,0 0,0.08 -0.07,0 0,0.08 -0.08,0 0,0.08 -0.07,0 0,0.08 -0.23,0 0,0.08 -0.22,0 0,-0.08 -0.23,0 0,-0.08 -0.15,0 0,0.08 -0.15,0 0,0.08 -0.07,0 0,0.08 -0.15,0 0,0.08 -0.08,0 0,0.15 -0.07,0 0,0.16 -0.08,0 0,0.08 -0.15,0 0,0.08 -0.07,0 0,0.08 -0.08,0 0,0.16 -0.07,0 0,0.08 -0.07,0 0,0.07 -0.15,0 0,0.08 -0.23,0 0,0.08 -0.3,0 0,0.08 -0.07,0 0,0.08 -0.08,0 0,0.08 -0.15,0 0,0.24 -0.07,0 0,0.07 -0.15,0 0,0.08 -0.23,0 0,0.08 -0.07,0 0,0.08 -0.08,0 0,0.16 -0.22,0 0,-0.08 -0.15,0 0,-0.08 -1.12,0 0,-0.08 -0.3,0 0,-0.08 -0.08,0 0,-0.08 -0.22,0 0,-0.07 -0.23,0 0,-0.08 -0.22,0 0,-0.08 -0.15,0 0,-0.08 -0.08,0 0,-0.08 -0.07,0 0,-0.08 -0.08,0 0,-0.08 -0.15,0 0,-0.08 -0.07,0 0,-0.08 -0.15,0 0,-0.15 -0.07,0 0,-0.08 -0.08,0 0,-0.08 -0.15,0 0,-0.08 -0.07,0 0,-0.08 -0.15,0 0,-0.08 -0.08,0 0,-0.08 -0.07,0 0,0.08 -0.08,0 0,0.08 -0.15,0 0,0.08 -0.15,0 0,0.08 -0.15,0 0,0.08 -0.07,0 0,0.08 -0.15,0 0,0.08 -0.6,0 0,0.07 -0.15,0 0,0.08 -0.08,0 0,-0.08 -0.52,0 0,-0.07 -0.15,0 0,-0.08 -0.15,0 0,-0.08 -0.3,0 0,0.23 0.08,0 0,0.08 0.15,0 0,0.08 0.15,0 0,0.08 0.07,0 0,0.08 0.15,0 0,0.08 0.15,0 0,0.08 0.07,0 0,0.08 0.08,0 0,0.08 0.07,0 0,0.07 0.08,0 0,0.4 -0.23,0 0,-0.08 -0.74,0 0,0.08 -0.08,0 0,0.16 -0.07,0 0,0.08 -0.08,0 0,0.08 -0.07,0 0,-0.08 -0.08,0 0,-0.24 0.08,0 0,-0.32 -0.08,0 0,-0.15 -0.07,0 0,-0.08 -0.08,0 0,-0.32 0.08,0 0,-0.24 -0.15,0 0,-0.07 -0.15,0 0,0.07 -0.08,0 0,0.08 -0.15,0 0,0.08 -0.61,0 -0.21,1.64 -0.36,3.25 0,0.95 -0.12,1.08 1.13,2.57 0.25,0.54 1,1.62 1.75,-0.14 0.01,1.49 0.5,0.94 0.13,0.68 0,0.68 -0.25,0.68 -0.25,0.13 -0.12,0.14 -0.5,1.76 0.01,2.3 0,0.68 0.02,4.73 4.11,-0.42 0.63,0.68 1,-0.01 2.99,-0.14 0.25,-0.54 0.25,-0.14 1.49,-0.55 1,0.27 0.63,-0.13 0.87,-0.68 0.62,-1.22 -1,-0.54 -1.01,-3.65 1,-0.82 0.12,0 -0.12,-0.4 -0.13,-0.68 -0.37,-0.27 -1.13,0.55 -0.37,-0.55 -0.13,-1.08 0,-0.13 1,-0.55 0.25,-0.27 0.37,-2.03 0.74,-2.17 0.12,-0.13 -0.12,-0.41 -1.01,-2.43 0,-0.41 0.25,-1.35 1.12,0.27 1.63,0.8 0.62,-0.68 0.38,-0.27 0.75,-0.27 0.62,0.13 1,0.68 1.37,0.67 -0.12,-1.08 1.74,-1.22 1.62,-1.09 1.88,-1.17 -0.26,0 0,0.08 -0.52,0 0,0.08 -0.76,0 0,-0.08 -0.07,0 0,0.08 -0.45,0 0,0.08 -0.37,0 0,-0.08 -0.53,0 0,-0.08 -0.37,0 0,-0.08 -0.45,0 0,-0.08 -0.15,0 0,-0.08 -0.37,0 0,-0.08 -0.23,0 0,-0.07 -0.75,0 0,-0.08 -0.15,0 0,0.08 -0.52,0 0,-0.08 -1.05,0 0,-0.08 -0.6,0 0,-0.08 -0.3,0 0,-0.08 -0.3,0 0,-0.08 -0.3,0 0,-0.08 -0.3,0 0,-0.08 -0.07,0 0,-0.08 -0.15,0 0,-0.07 -0.23,0 0,-0.08 -0.29,0 0,-0.08 -0.15,0 0,-0.08 -0.08,0 0,-0.08 -0.07,0 0,-0.08 -0.15,0 0,-0.08 -0.75,0 0,-0.08 -0.15,0 0,-0.08 -0.15,0 0,-0.08 -0.53,0 0,0.08 -0.15,0 0,0.08 -0.22,0 0,0.08 -0.08,0 0,0.08 -0.15,0 0,0.08 -0.07,0 0,-0.24 0.07,0 0,-0.16 0.08,0 0,-0.15 0.07,0 0,-0.16 0.08,0 0,-0.47 -0.08,0 0,-0.16 0.08,0 0,-0.08 0.07,0 0,-0.08 0.23,0 0,-0.24 -0.08,0 0,-0.08 -0.22,0 0,0.08 -0.08,0 0,0.08 -0.15,0 0,0.08 -0.22,0 0,0.08 -0.07,0 0,0.08 -0.15,0 0,-0.16 -0.08,0 0,-0.08 -0.07,0 0,-0.08 -0.38,0 0,-0.08 -0.52,0 0,-0.07 -0.15,0 0,-0.08 -0.15,0 0,-0.08 -0.08,0 0,-0.08 -0.22,0 0,-0.08 -0.15,0 0,-0.08 -0.38,0 0,-0.08 -0.37,0 0,-0.08 -0.15,0 0,-0.08 -0.22,0 0,-0.08 -0.23,0 0,-0.07 z" 
                fill="rgb(151, 144, 238)" 
                stroke="white" 
                stroke-width=".7px"
                title="Dorado" 
                id="PR-DO" 
            />
        </svg>