<svg xmlns="http://www.w3.org/2000/svg" viewBox="592.4699999999972 33.38000000000001 60.94000000000278 37.23999999999994" width="60.94000000000278" height="37.23999999999994">
            <path 
                d="m 631.4,57.13 -0.3,0 0,0.15 -0.07,0 0,0.16 -0.08,0 0,0.08 -0.15,0 0,0.24 0.08,0 0,0.08 0.07,0 0,0.15 0.15,0 0,0.08 0.23,0 0,0.16 0.3,0 0,-0.16 0.07,0 0,-0.23 -0.07,0 0,-0.48 -0.08,0 0,-0.15 -0.15,0 0,-0.08 z m -3.14,-7.73 -0.38,0 0,0.16 -0.07,0 0,0.47 0.07,0 0,0.16 0.08,0 0,0.08 0.07,0 0,0.15 0.15,0 0,0.08 0.08,0 0,-0.08 0.22,0 0,0.08 0.45,0 0,0.16 -0.07,0 0,0.16 -0.15,0 0,0.16 -0.08,0 0,0.23 0.15,0 0,0.08 0.3,0 0,-0.08 0.07,0 0,-0.16 0.08,0 0,-0.07 0.08,0 0,-0.08 0.07,0 0,-0.16 0.08,0 0,-0.32 -0.08,0 0,-0.08 -0.23,0 0,0.08 -0.15,0 0,-0.08 -0.07,0 0,-0.07 -0.07,0 0,-0.4 -0.08,0 0,-0.16 -0.07,0 0,-0.08 -0.08,0 0,-0.07 -0.15,0 0,-0.08 -0.22,0 0,-0.08 z m 14.15,-3 -0.45,0 0,0.08 -0.15,0 0,0.08 -0.15,0 0,0.16 -0.08,0 0,-0.08 -0.07,0 0,-0.08 -0.38,0 0,-0.08 -0.37,0 0,0.08 -0.08,0 0,0.16 0.53,0 0,0.07 0.07,0 0,0.08 0.08,0 0,0.08 0.07,0 0,0.08 0.08,0 0,0.16 0.07,0 0,0.24 0.08,0 0,0.23 0.07,0 0,0.08 0.08,0 0,0.08 0.22,0 0,0.08 0.08,0 0,0.39 0.07,0 0,0.63 0.08,0 0,0.08 0.3,0 0,-0.08 0.15,0 0,-0.15 0.07,0 0,-0.24 0.23,0 0,-0.08 0.22,0 0,-0.16 0.08,0 0,-0.15 0.07,0 0,-0.4 -0.07,0 0,-0.31 -0.08,0 0,-0.16 -0.07,0 0,-0.08 -0.08,0 0,-0.08 -0.07,0 0,-0.08 -0.08,0 0,-0.08 -0.15,0 0,-0.08 -0.07,0 0,-0.08 -0.08,0 0,-0.07 -0.07,0 0,-0.24 -0.15,0 0,-0.08 z m 10.4,-3.71 -0.15,0 0,0.08 -0.07,0 0,0.08 -0.23,0 0,0.08 -0.15,0 0,0.08 -0.07,0 0,0.24 0.52,0 0,0.07 0.08,0 0,0.08 0.07,0 0,0.16 -0.3,0 0,-0.16 -0.37,0 0,0.16 -0.08,0 0,0.4 0.38,0 0,0.07 0.15,0 0,-0.07 0.3,0 0,-0.16 0.37,0 0,-0.08 0.08,0 0,-0.4 0.07,0 0,-0.23 -0.22,0 0,-0.08 -0.15,0 0,-0.08 -0.08,0 0,-0.08 -0.07,0 0,-0.08 -0.08,0 0,-0.08 z m -4.49,-1.89 -0.15,0 0,0.55 -0.07,0 0,0.08 -0.08,0 0,0.08 -0.07,0 0,0.16 -0.08,0 0,0.08 -0.07,0 0,0.08 -0.15,0 0,0.07 -0.08,0 0,0.4 -0.15,0 0,0.16 0.08,0 0,0.08 0.15,0 0,-0.08 0.07,0 0,-0.08 0.08,0 0,-0.08 0.07,0 0,-0.08 0.38,0 0,-0.08 0.15,0 0,-0.08 0.07,0 0,-0.08 0.07,0 0,-0.15 0.08,0 0,-0.48 -0.08,0 0,-0.23 -0.07,0 0,-0.08 -0.07,0 0,-0.16 -0.08,0 0,-0.08 z m -1.57,-0.08 0.3,0 0,-0.47 -0.23,0 0,0.08 -0.07,0 0,0.08 -0.15,0 0,0.07 -0.08,0 0,0.08 -0.07,0 0,0.08 -0.23,0 0,0.16 -0.07,0 0,0.08 -0.07,0 0,0.16 -0.08,0 0,0.08 -0.3,0 0,0.07 -0.07,0 0,0.08 -0.08,0 0,0.24 0.3,0 0,-0.16 0.23,0 0,0.08 0.29,0 0,-0.08 0.15,0 0,-0.08 0.15,0 0,-0.08 0.15,0 0,-0.15 0.08,0 0,-0.08 -0.08,0 0,-0.08 -0.07,0 0,-0.16 z m -4.87,-2.84 -0.37,0 0,0.08 -0.08,0 0,0.08 -0.07,0 0,0.24 0.22,0 0,0.07 0.23,0 0,0.08 0.15,0 0,0.32 -0.15,0 0,-0.16 -0.15,0 0,-0.08 -0.3,0 0,0.48 0.15,0 0,0.08 0.07,0 0,0.23 -0.07,0 0,0.16 -0.08,0 0,0.08 -0.07,0 0,0.23 -0.08,0 0,0.08 0.08,0 0,0.16 0.15,0 0,-0.08 0.07,0 0,-0.08 0.15,0 0,-0.08 0.3,0 0,-0.07 0.08,0 0,-0.08 0.07,0 0,-0.08 0.23,0 0,-0.08 0.15,0 0,-0.08 0.15,0 0,0.16 0.07,0 0,0.16 0.15,0 0,-0.08 0.08,0 0,-0.08 0.15,0 0,-0.08 0.07,0 0,-0.08 0.08,0 0,-0.08 -0.08,0 0,-0.08 -0.15,0 0,-0.08 -0.07,0 0,-0.07 -0.08,0 0,-0.08 -0.15,0 0,-0.08 -0.15,0 0,-0.16 -0.15,0 0,-0.55 -0.07,0 0,-0.08 -0.23,0 0,-0.08 -0.15,0 0,-0.08 -0.15,0 0,-0.08 z m -12.8,-1.58 -0.3,0 0,0.08 -0.15,0 0,0.08 -0.07,0 0,0.08 -0.15,0 0,0.08 -0.08,0 0,0.16 -0.07,0 0,0.08 -0.08,0 0,-0.08 -0.07,0 0,-0.08 -0.08,0 0,-0.16 -0.15,0 0,-0.08 -0.6,0 0,0.08 -0.07,0 0,0.16 -0.08,0 0,0.31 0.15,0 0,0.16 0.15,0 0,-0.16 0.08,0 0,0.71 -0.38,0 0,0.08 -0.07,0 0,0.08 -0.15,0 0,0.16 -0.07,0 0,0.08 -0.15,0 0,0.16 -0.08,0 0,0.23 -0.07,0 0,0.32 0.07,0 0,0.16 0.08,0 0,0.47 -0.08,0 0,0.08 -0.07,0 0,0.23 -0.08,0 0,0.16 -0.07,0 0,0.08 -0.08,0 0,0.08 -0.07,0 0,0.16 -0.15,0 0,0.08 -0.08,0 0,0.08 -0.07,0 0,0.15 -0.08,0 0,0.08 -0.15,0 0,0.08 -0.07,0 0,0.08 -0.08,0 0,0.08 -0.15,0 0,0.08 -0.07,0 0,0.08 -0.08,0 0,0.08 -0.07,0 0,0.07 -0.08,0 0,0.08 -0.07,0 0,0.08 -0.15,0 0,0.08 -0.23,0 0,0.08 -0.07,0 0,0.08 -0.15,0 0,0.08 -0.23,0 0,0.16 -0.07,0 0,-0.08 -0.08,0 0,-0.08 -0.59,0 0,-0.08 -0.08,0 0,-0.08 -0.07,0 0,-0.16 -0.08,0 0,-0.08 -0.07,0 0,-0.15 -0.08,0 0,-0.08 -0.07,0 0,-0.16 -0.08,0 0,-0.55 0.15,0 0,-0.16 0.08,0 0,-0.16 0.07,0 0,-0.31 0.08,0 0,-0.08 -0.08,0 0,-0.08 -0.07,0 0,-0.08 -0.23,0 0,0.08 -0.3,0 0,-0.08 -0.15,0 0,-0.08 -0.07,0 0,-0.24 0.07,0 0,-0.39 -0.07,0 0,-0.16 -0.08,0 0,-0.08 -0.07,0 0,-0.08 -0.08,0 0,-0.08 -0.3,0 0,0.32 0.08,0 0,0.08 0.07,0 0,0.32 -0.07,0 0,0.07 -0.08,0 0,0.08 -0.07,0 0,0.16 -0.08,0 0,0.16 -0.07,0 0,0.08 -0.08,0 0,0.08 -0.07,0 0,0.07 -0.15,0 0,0.08 -0.23,0 0,0.08 -0.07,0 0,0.08 -0.15,0 0,0.08 -0.07,0 0,0.24 -0.08,0 0,0.15 -0.07,0 0,0.16 -0.08,0 0,0.16 -0.07,0 0,0.16 -0.08,0 0,0.16 -0.22,0 0,0.07 -0.08,0 0,-0.07 -0.15,0 0,0.07 -0.07,0 0,0.08 -0.08,0 0,0.48 -0.07,0 0,0.15 -0.08,0 0,0.16 0.08,0 0,0.16 -0.08,0 0,0.08 -0.07,0 0,0.08 -0.08,0 0,0.08 -0.07,0 0,0.08 -0.15,0 0,0.07 -0.08,0 0,0.08 -0.07,0 0,0.08 -0.08,0 0,0.08 -0.07,0 0,0.08 -0.08,0 0,0.08 -0.22,0 0,0.08 -0.23,0 0,-0.08 -0.15,0 0,0.16 -0.29,0 0,0.08 -0.23,0 0,0.07 -0.22,0 0,0.08 -0.3,0 0,0.08 -0.23,0 0,0.08 -0.07,0 0,0.08 -0.38,0 0,0.08 -0.22,0 0,-0.08 -0.38,0 0,0.08 -0.15,0 0,0.08 -0.59,0 0,-0.08 -0.21,0 -1.26,2.04 -1.25,2.02 -0.25,0.41 0,0.4 0.12,0.27 0.13,0.14 0.25,0.27 -0.26,0.68 -1,2.02 -0.13,0.27 -0.75,0.54 0.37,1.76 0,0.14 -0.37,0.13 -0.25,0.14 -1.25,-0.55 -1,-0.14 -0.62,0.27 -0.63,0.27 -0.24,0.27 -0.26,0.27 -0.24,0.13 -0.38,0 -0.25,0.54 0,0.81 0.12,0.55 0,1.35 -0.13,0.13 -1.12,0.54 -0.25,0.14 -0.25,0 -0.37,-0.14 -0.13,0.13 -0.25,-0.13 -1.5,0.13 -0.37,0.67 -0.13,1.35 0.12,0.95 -1.25,0.27 -0.12,0.81 -0.88,0.54 -0.87,0.54 -0.37,0.13 -1.12,-2.44 -1.62,-0.81 -1.37,-0.41 -0.37,-0.14 -0.25,0.41 -0.63,0.81 1,0.81 1.74,1.63 0.87,0.68 0.74,0.95 -0.87,0.81 0.62,1.35 0.25,0.41 0.62,-0.41 1.87,0.96 2.49,0.82 0.75,0.41 3.36,-1.08 0.63,-0.26 0.25,-0.27 0.12,0 -0.62,-0.55 1.88,-3.1 0.5,0.13 0.75,0.68 0.87,1.09 0.37,0.27 0.87,0.82 0.37,0.13 0.62,0.14 0.88,-1.08 0.25,-0.4 0.01,-1.09 0.49,0 0.88,-0.26 0.37,-0.14 0.63,-0.94 0.99,0.41 2.24,1.09 2.12,0.41 0.38,-0.13 1.99,-0.67 0.25,-0.13 0.63,0.27 0.11,0.02 0,-0.1 0.15,0 0,-0.08 0.15,0 0,-0.08 0.22,0 0,-0.08 0.08,0 0,-0.08 0.3,0 0,-0.39 -0.08,0 0,-0.24 -0.07,0 0,-0.15 -0.08,0 0,-0.24 -0.07,0 0,-0.08 -0.08,0 0,-0.16 -0.07,0 0,-0.08 -0.23,0 0,0.32 -0.15,0 0,0.16 -0.22,0 0,-0.16 -0.15,0 0,-0.08 -0.08,0 0,-0.16 -0.07,0 0,-0.39 0.07,0 0,-0.24 0.08,0 0,-0.08 0.07,0 0,-0.08 0.15,0 0,-0.07 0.23,0 0,-0.08 0.15,0 0,-0.08 0.15,0 0,-0.08 0.07,0 0,-0.08 0.08,0 0,-0.39 0.15,0 0,-0.08 0.3,0 0,-0.08 0.15,0 0,-0.08 0.07,0 0,-0.08 0.3,0 0,-0.08 0.08,0 0,-0.31 0.07,0 0,-0.08 0.15,0 0,-0.16 0.15,0 0,-0.24 0.08,0 0,-0.39 -0.08,0 0,-0.16 0.15,0 0,-0.47 0.07,0 0,-0.08 0.15,0 0,-0.32 -0.07,0 0,-0.23 -0.15,0 0,-0.08 -0.07,0 0,-0.08 0.07,0 0,-0.4 0.07,0 0,-0.23 0.08,0 0,-0.32 -0.08,0 0,-0.15 -0.44,0 0,-0.08 -0.15,0 0,-0.24 0.07,0 0,-0.24 -0.07,0 0,-0.55 -0.08,0 0,-0.79 0.08,0 0,-0.55 0.07,0 0,-0.24 0.08,0 0,-0.23 0.07,0 0,-0.63 -0.07,0 0,-0.4 0.07,0 0,-0.63 0.08,0 0,-0.31 -0.08,0 0,-0.08 -0.07,0 0,-0.08 -0.08,0 0,-0.16 0.08,0 0,-0.31 0.07,0 0,-0.08 0.08,0 0,-0.71 -0.08,0 0,-0.08 -0.07,0 0,-0.08 -0.08,0 0,-0.08 -0.07,0 0,-0.08 -0.23,0 0,-0.16 -0.07,0 0,-0.23 -0.15,0 0,-0.08 -0.08,0 0,-0.24 -0.07,0 0,-0.16 -0.08,0 0,-0.08 -0.37,0 0,0.08 -0.3,0 0,-0.08 -0.08,0 0,-0.07 0.08,0 0,-0.08 -0.08,0 0,-0.08 -0.07,0 0,-0.08 -0.15,0 0,-0.24 0.07,0 0,-0.31 0.15,0 0,-0.08 0.15,0 0,-0.08 0.15,0 0,-0.08 0.23,0 0,-0.08 0.07,0 0,-0.55 0.08,0 0,-0.24 -0.08,0 0,-0.08 -0.07,0 0,-0.08 -0.98,0 0,-0.07 -0.07,0 0,-0.08 -0.23,0 0,-0.08 -0.07,0 0,-0.16 -0.08,0 0,-0.24 0.68,0 0,0.08 0.07,0 0,0.08 0.15,0 0,-0.39 -0.07,0 0,-0.71 0.07,0 0,-0.24 0.15,0 0,-0.08 0.08,0 0,-0.08 0.07,0 0,-0.16 0.15,0 0,-0.07 0.23,0 0,-0.16 0.15,0 0,-0.08 0.07,0 0,-0.08 0.3,0 0,-0.08 0.08,0 0,-0.08 0.07,0 0,-0.08 0.08,0 0,-0.07 0.07,0 0,-0.08 0.15,0 0,-0.08 0.15,0 0,-0.08 0.08,0 0,-0.08 0.14,0 0,-0.24 0.15,0 0,-0.15 0.08,0 0,-0.24 0.07,0 0,-0.16 0.08,0 0,-0.16 0.15,0 0,-0.08 0.07,0 0,-0.31 -0.07,0 0,-0.16 -0.08,0 0,-0.16 -0.07,0 0,-0.63 -0.08,0 0,-0.08 -0.07,0 0,-0.15 -0.08,0 0,-0.16 0.08,0 0,-0.08 0.22,0 0,-0.08 0.08,0 0,-0.08 0.45,0 0,-0.08 0.22,0 0,-0.08 0.23,0 0,-0.08 0.22,0 0,-0.07 0.08,0 0,-0.24 0.07,0 0,-0.24 0.08,0 0,-0.23 0.07,0 0,-0.24 0.07,0 0,-0.16 0.08,0 0,-0.63 0.07,0 0,-0.47 0.08,0 0,-1.19 0.08,0 0,-0.07 0.07,0 0,-0.24 0.15,0 0,-0.16 0.23,0 0,-0.08 0.07,0 0,-0.08 0.15,0 0,-0.08 0.15,0 0,-0.39 -0.15,0 0,-0.24 0.07,0 0,-0.08 0.08,0 0,-0.08 0.07,0 0,-0.23 -0.07,0 0,-0.08 -0.23,0 0,0.08 -0.22,0 0,-0.08 -0.07,0 0,-0.08 -0.23,0 0,-0.16 -0.07,0 0,-0.16 -0.08,0 0,-0.15 -0.08,0 0,-0.4 -0.07,0 0,-0.08 z m 6.89,-1.02 0.15,0 0,-0.16 -0.3,0 0,0.08 -0.15,0 0,0.16 -0.23,0 0,0.08 -0.07,0 0,0.08 0.07,0 0,0.07 0.15,0 0,0.24 0.08,0 0,0.16 0.07,0 0,0.08 0.08,0 0,0.16 0.07,0 0,0.15 0.08,0 0,0.08 0.07,0 0,0.24 0.08,0 0,0.47 0.07,0 0,0.24 0.08,0 0,0.08 0.07,0 0,0.15 0.15,0 0,0.08 0.08,0 0,0.08 0.15,0 0,0.08 0.3,0 0,0.08 0.07,0 0,0.08 0.08,0 0,0.08 0.67,0 0,-0.16 0.15,0 0,-0.16 0.07,0 0,-0.08 0.08,0 0,-0.31 -0.08,0 0,-0.08 0.15,0 0,-0.16 0.08,0 0,-0.08 0.15,0 0,0.08 0.07,0 0,0.16 0.38,0 0,-0.08 0.07,0 0,0.24 0.08,0 0,0.15 0.15,0 0,0.08 0.07,0 0,0.08 -0.07,0 0,0.08 -0.38,0 0,0.24 -0.07,0 0,0.08 0.07,0 0,0.08 0.3,0 0,0.07 0.15,0 0,0.16 0.23,0 0,-0.08 0.07,0 0,-0.08 0.08,0 0,-0.31 0.07,0 0,-0.32 -0.07,0 0,-0.15 -0.15,0 0,-0.08 -0.08,0 0,-0.08 -0.07,0 0,-0.24 -0.08,0 0,-0.16 -0.3,0 0,-0.08 -0.15,0 0,-0.07 -0.15,0 0,-0.08 -0.15,0 0,-0.08 -0.07,0 0,-0.08 -0.15,0 0,-0.08 -0.08,0 0,-0.08 -0.07,0 0,-0.08 -0.08,0 0,-0.08 -0.07,0 0,-0.15 -0.3,0 0,-0.08 -0.15,0 0,-0.08 -0.3,0 0,-0.08 -0.07,0 0,-0.08 -0.08,0 0,-0.08 -0.15,0 0,-0.08 -0.15,0 0,-0.08 -0.22,0 0,-0.07 -0.15,0 0,0.07 -0.08,0 0,-0.07 -0.37,0 0,-0.24 z m -1.5,-1.9 -0.45,0 0,0.08 -0.15,0 0,0.16 0.08,0 0,0.08 0.15,0 0,0.47 0.45,0 0,-0.23 0.07,0 0,-0.08 0.08,0 0,-0.16 0.07,0 0,-0.24 -0.3,0 0,-0.08 z" 
                fill="rgb(151, 144, 238)" 
                stroke="white" 
                stroke-width=".7px"
                title="Fajardo" 
                id="PR-FJ" 
            />
        </svg>