<svg xmlns="http://www.w3.org/2000/svg" viewBox="366.84999999999997 29.049999999999997 16.040000000000077 21.549999999999997" width="16.040000000000077" height="21.549999999999997">
            <path 
                d="m 381.99,35.75 -1.52,-2.56 -0.66,-1.53 -2.05,-0.38 -0.61,-1.47 -3.51,-0.76 -1.65,0.74 -1.15,1.55 -1.76,4.66 -1.52,-0.13 -0.16,4.16 1.74,0.24 0.02,0.16 -0.24,2.98 -1.48,2.18 -0.36,1.89 -0.12,1.22 -0.11,1.9 4.35,-1.25 0.38,-0.14 3.62,0.52 2.12,-0.15 4.23,-1.92 0.62,-0.95 0.72,-5.42 -0.51,-2.43 -0.14,-1.76 -0.13,-0.81 -0.12,-0.54 z" 
                fill="rgb(151, 144, 238)" 
                stroke="white" 
                stroke-width=".7px"
                title="Florida" 
                id="PR-FL" 
            />
        </svg>