<svg xmlns="http://www.w3.org/2000/svg" viewBox="467.3799999999994 115.94999999999942 44.32000000000056 52.87000000000123" width="44.32000000000056" height="52.87000000000123">
            <path 
                d="m 511.7,115.95 -1.74,1.09 -0.87,0.13 -0.25,0.14 -1.24,0.27 -0.5,0 -0.25,-0.13 -1.99,-0.27 -1.12,-0.27 -1.5,-0.95 -1.49,0.14 -1.12,0 -0.75,0.27 -0.12,0.14 -0.37,0.13 -1.74,1.36 -0.01,0.13 -0.99,2.71 -3.73,-1.89 -0.13,0.14 -0.37,0.81 -0.12,1.22 0.75,1.89 -0.12,1.49 0.24,0.54 0.13,0.27 0.99,0.4 0.25,0.81 -0.12,1.9 -0.62,2.03 -0.12,0.68 -0.25,0.27 -0.87,1.35 -0.25,2.16 0.01,0.14 0,0.27 -1,0.27 -0.74,0.27 -1,0.14 -1.24,-1.08 -0.13,-0.27 -1.74,-0.13 -1.12,-0.27 -0.12,-0.14 -0.25,0 -0.38,-1.21 -2.36,-0.67 -2.36,4.87 -3.23,2.31 -2.73,1.22 -0.25,0.14 -0.62,0.27 -1.36,1.62 -0.13,0.55 0.01,3.65 0,0.13 0.01,4.33 0,0.14 0,1.08 -0.11,4.48 0.05,0 0,0.08 0.07,0 0,0.07 0.38,0 0,0.08 0.15,0 0,0.08 0.45,0 0,0.08 0.15,0 0,0.08 0.37,0 0,0.08 0.08,0 0,0.08 0.22,0 0,0.08 0.08,0 0,0.07 0.15,0 0,0.08 0.07,0 0,0.08 0.08,0 0,0.16 0.07,0 0,0.08 0.08,0 0,0.08 0.07,0 0,0.08 0.08,0 0,0.07 0.15,0 0,0.08 0.14,0 0,0.08 0.08,0 0,0.08 0.15,0 0,0.08 0.07,0 0,0.08 0.15,0 0,0.08 0.08,0 0,0.08 0.15,0 0,0.07 0.07,0 0,0.08 0.15,0 0,0.08 0.08,0 0,0.08 0.07,0 0,0.08 0.08,0 0,0.08 0.15,0 0,0.08 0.07,0 0,0.07 0.15,0 0,0.08 0.15,0 0,0.08 0.3,0 0,0.08 0.3,0 0,0.08 0.08,0 0,0.08 0.15,0 0,0.08 0.15,0 0,0.08 0.07,0 0,0.07 0.07,0 0,0.08 0.08,0 0,0.08 0.22,0 0,-0.08 0.08,0 0,-0.08 0.3,0 0,0.08 0.07,0 0,0.08 0.15,0 0,0.08 0.08,0 0,0.08 0.07,0 0,0.08 0.23,0 0,-0.08 0.07,0 0,-0.08 0.75,0 0,0.08 0.15,0 0,0.08 0.08,0 0,0.08 0.07,0 0,0.07 0.08,0 0,0.16 0.07,0 0,0.08 0.08,0 0,0.08 0.07,0 0,0.32 0.08,0 0,0.31 -0.08,0 0,0.08 -0.45,0 0,0.08 -0.15,0 0,0.08 -0.37,0 0,-0.08 -0.15,0 0,0.08 -0.38,0 0,0.07 -0.07,0 0,0.08 -0.08,0 0,0.08 -0.07,0 0,0.08 -0.08,0 0,0.08 -0.07,0 0,0.16 -0.08,0 0,0.31 0.08,0 0,0.08 0.15,0 0,0.47 -0.23,0 0,0.08 -0.22,0 0,0.08 -0.15,0 0,0.16 -0.08,0 0,0.23 0.15,0 0,0.16 -0.15,0 0,-0.08 -0.07,0 0,-0.08 -0.08,0 0,-0.08 -0.15,0 0,-0.07 -0.07,0 0,-0.08 -0.6,0 0,-0.08 -0.15,0 0,-0.08 -0.07,0 0,-0.24 -0.08,0 0,-0.08 -0.22,0 0,-0.07 -0.53,0 0,-0.08 -0.22,0 0,-0.08 -0.3,0 0,-0.08 -0.23,0 0,-0.08 -0.15,0 0,-0.08 -0.22,0 0,-0.08 -0.37,0 0,-0.07 -0.3,0 0,-0.08 -0.15,0 0,-0.08 -0.08,0 0,-0.08 -0.15,0 0,-0.08 -0.15,0 0,-0.08 -0.22,0 0,0.16 -0.23,0 0,-0.39 -0.07,0 0,-0.08 -0.08,0 0,-0.08 -0.07,0 0,0.08 -0.08,0 0,0.08 -0.82,0 0,0.07 -0.22,0 0,0.08 -0.45,0 0,0.16 -0.45,0 0,-0.16 -0.23,0 0,-0.08 -0.45,0 0,-0.07 -0.07,0 0,0.07 -0.15,0 0,0.32 0.07,0 0,0.79 0.08,0 0,0.07 0.07,0 0,0.08 0.15,0 0,0.08 0.08,0 0,0.08 0.07,0 0,0.08 0.08,0 0,0.08 0.07,0 0,0.08 0.08,0 0,0.15 0.07,0 0,0.08 0.08,0 0,0.08 0.15,0 0,0.16 0.15,0 0,0.08 0.07,0 0,0.15 0.08,0 0,0.16 0.07,0 0,0.16 0.08,0 0,0.08 0.07,0 0,0.23 -0.07,0 0,0.08 -0.23,0 0,0.08 -0.22,0 0,0.08 -0.08,0 0,0.08 -0.15,0 0,0.24 0.08,0 0,0.15 0.22,0 0,-0.15 0.23,0 0,-0.08 0.3,0 0,0.08 -0.08,0 0,0.07 -0.07,0 0,0.08 -0.15,0 0,0.08 -0.3,0 0,0.08 -0.08,0 0,0.16 0.08,0 0,0.15 0.07,0 0,0.08 -0.07,0 0,0.08 -0.23,0 0,0.24 -0.07,0 0,0.16 -0.08,0 0,0.31 -0.07,0 0,0.16 -0.15,0 0,-0.08 -0.15,0 0,-0.08 -0.08,0 0,0.24 0.08,0 0,0.23 -0.08,0 0,0.08 -0.15,0 0,0.08 -0.07,0 0,0.08 -0.08,0 0,0.23 -0.14,0 0,-0.07 -0.08,0 0,-0.16 -0.15,0 0,0.08 -0.08,0 0,0.15 -0.07,0 0,0.16 -0.15,0 0,-0.08 -0.08,0 0,0.08 -0.07,0 0,0.16 -0.08,0 0,0.08 -0.07,0 0,0.08 -0.07,0 0,0.07 0.07,0 0,0.08 0.22,0 0,0.08 0.3,0 0,0.08 0.53,0 0,-0.08 0.07,0 0,-0.08 0.08,0 0,-0.08 0.07,0 0,-0.07 0.08,0 0,-0.08 0.07,0 0,-0.08 0.15,0 0,-0.08 0.23,0 0,-0.08 0.07,0 0,-0.39 0.45,0 0,-0.08 0.15,0 0,-0.08 0.23,0 0,-0.08 0.07,0 0,-0.16 0.08,0 0,-0.07 0.07,0 0,-0.08 0.07,0 0,-0.08 0.08,0 0,0.08 0.37,0 0,-0.08 0.08,0 0,-0.24 0.07,0 0,-0.08 0.6,0 0,-0.07 0.08,0 0,-0.24 0.07,0 0,-0.08 0.38,0 0,-0.08 0.15,0 0,-0.08 0.07,0 0,-0.08 0.08,0 0,-0.07 0.07,0 0,-0.08 0.08,0 0,-0.24 0.07,0 0,-0.08 0.08,0 0,-0.08 0.07,0 0,-0.15 0.08,0 0,-0.08 0.07,0 0,-0.63 0.08,0 0,-0.16 0.15,0 0,-0.08 0.14,0 0,-0.08 0.08,0 0,-0.08 0.07,0 0,-0.07 0.3,0 0,-0.08 0.15,0 0,-0.08 0.15,0 0,-0.08 0.15,0 0,-0.08 0.38,0 0,0.08 0.15,0 0,0.08 0.22,0 0,0.08 0.23,0 0,0.08 0.15,0 0,0.07 0.15,0 0,0.08 0.15,0 0,0.08 0.15,0 0,0.08 0.22,0 0,0.08 0.07,0 0,0.08 0.08,0 0,-0.08 0.07,0 0,0.08 0.23,0 0,-0.08 0.07,0 0,-0.08 0.9,0 0,0.08 0.3,0 0,-0.08 0.23,0 0,0.08 0.07,0 0,-0.08 0.08,0 0,-0.08 0.07,0 0,-0.08 0.3,0 0,-0.08 0.38,0 0,-0.07 0.29,0 0,0.07 0.23,0 0,0.16 0.07,0 0,0.08 0.15,0 0,0.08 0.15,0 0,0.08 0.15,0 0,0.08 0.08,0 0,0.08 0.15,0 0,0.07 0.07,0 0,0.08 0.15,0 0,0.08 0.15,0 0,0.08 0.15,0 0,0.08 0.08,0 0,0.08 0.22,0 0,0.08 0.68,0 0,0.08 0.07,0 0,0.07 0.3,0 0,0.08 0.37,0 0,-0.08 0.08,0 0,0.08 0.3,0 0,-0.94 0.07,0 0,-0.24 0.08,0 0,-0.16 0.07,0 0,-0.07 0.08,0 0,-0.08 0.15,0 0,-0.08 0.45,0 0,0.08 0.15,0 0,0.08 0.07,0 0,0.15 0.07,0 0,0.4 -0.07,0 0,0.15 -0.07,0 0,0.24 -0.08,0 0,0.16 -0.07,0 0,0.08 -0.08,0 0,0.08 -0.07,0 0,0.07 -0.08,0 0,0.08 -0.07,0 0,0.08 -0.08,0 0,0.32 0.08,0 0,0.07 -0.08,0 0,0.08 -0.07,0 0,0.08 -0.08,0 0,0.16 -0.07,0 0,0.08 -0.08,0 0,0.08 -0.07,0 0,0.08 -0.08,0 0,0.15 0.15,0 0,-0.08 0.08,0 0,-0.07 0.07,0 0,-0.08 0.08,0 0,-0.16 0.07,0 0,-0.16 0.83,0 0,0.08 0.14,0 0,-0.08 0.15,0 0,-0.08 0.08,0 0,-0.08 0.08,0 0,-0.07 0.14,0 0,-0.08 0.08,0 0,-0.08 0.07,0 0,-0.08 0.23,0 0,-0.08 0.07,0 0,-0.08 0.08,0 0,-0.08 0.15,0 0,-0.07 0.07,0 0,-0.08 0.23,0 0,-0.08 0.07,0 0,-0.08 0.08,0 0,-0.08 0.07,0 0,-0.08 0.38,0 0,-0.08 0.07,0 0,-0.08 0.08,0 0,-0.07 0.07,0 0,-0.08 0.08,0 0,-0.08 0.07,0 0,-0.08 0.15,0 0,-0.08 0.07,0 0,-0.16 0.08,0 0,-0.08 0.07,0 0,-0.15 0.08,0 0,-0.08 0.07,0 0,-0.16 0.08,0 0,-0.08 0.15,0 0,-0.08 0.07,0 0,-0.15 0.08,0 0,-0.16 0.15,0 0,-0.24 0.07,0 0,-0.08 0.08,0 0,-0.07 0.15,0 0,-0.08 0.15,0 0,-0.08 0.22,0 0,0.08 0.15,0 0,0.08 0.23,0 0,0.07 0.22,0 0,0.08 0.08,0 0,-0.08 0.07,0 0,-0.07 0.15,0 0,-0.08 0.23,0 0,-0.08 0.14,0 0,-0.08 0.08,0 0,-0.08 0.3,0 0,-0.08 0.07,0 0,-0.23 0.08,0 0,-0.08 0.07,0 0,-0.08 0.08,0 0,-0.08 0.07,0 0,-0.08 0.23,0 0,-0.08 0.07,0 0,-0.15 0.08,0 0,-0.16 0.15,0 0,-0.16 0.07,0 0,-0.08 0.3,0 0,-0.08 0.6,0 0,0.08 0.23,0 0,0.08 0.07,0 0,-0.08 0.15,0 0,-0.08 0.08,0 0,-0.07 0.22,0 0,-0.08 0.37,0 0,-0.08 0.15,0 0,-0.08 0.83,0 0,-0.08 0.3,0 0,-0.08 0.22,0 0,-0.08 0.83,0 0,0.16 0.22,0 0,-0.08 0.07,0 0,-0.08 0.08,0 0,-0.08 0.07,0 0,-0.08 0.15,0 0,-0.15 0.3,0 0,-0.08 0.08,0 0,-0.08 0.07,0 0,-0.08 0.08,0 0,-0.08 0.07,0 0,-0.08 0.23,0 0,-0.07 0.07,0 0,-0.08 0.15,0 0,-0.08 0.15,0 0,-0.08 0.15,0 0,-0.08 0.08,0 0,-0.08 0.14,0 0,-0.08 0.16,0 0,-0.08 0.15,0 0,-0.07 0.07,0 0,-0.08 0.07,0 0,-0.08 0.08,0 0,-0.08 0.15,0 0,-0.08 0.08,0 0,-0.08 0.07,0 0,-0.08 0.07,0 0,-0.07 0.15,0 0,-0.08 0.15,0 0,-0.08 0.23,0 0,-0.08 0.22,0 0,-0.08 0.15,0 0,-0.08 0.15,0 0,-0.08 0.08,0 0,-0.08 0.07,0 0,-0.07 0.15,0 0,-0.08 0.15,0 0,-0.08 0.15,0 0,-0.08 0.15,0 0,-0.08 0.22,0 0,-0.08 0.08,0 0,-0.08 0.07,0 0,-0.08 0.08,0 0,-0.07 0.23,0 0,-0.08 0.07,0 0,-0.08 0.15,0 0,-0.08 0.07,0 0,-0.08 0.08,0 0,-0.08 0.15,0 0,-0.08 0.15,0 0,-0.08 0.07,0 0,-0.07 0.08,0 0,-0.08 0.15,0 0,-0.08 0.07,0 0,-0.08 0.15,0 0,-0.08 0.38,0 0,-0.08 0.22,0 0,-0.08 0.08,0 0,-0.15 0.15,0 0,-0.08 0.29,0 0,-0.08 0.15,0 0,-0.08 0.15,0 0,-0.08 0.15,0 0,-0.08 0.31,0 0,-0.08 0.59,0 0,-0.15 0.23,0 0,-0.08 0.22,0 0,0.08 0.15,0 0,0.15 0.08,0 0,0.08 0.07,0 0,0.08 0.08,0 0,0.08 0.15,0 0,0.08 0.07,0 0,0.08 0.15,0 0,-0.08 0.15,0 0,-0.08 0.15,0 0,-0.08 0.15,0 0,-0.08 0.15,0 0,-0.08 0.22,0 0,-0.07 0.3,0 0,0.07 0.08,0 0,0.08 0.07,0 0,-0.08 0.05,0 -0.6,-3.51 0.12,-2.43 0.13,-1.9 -1.37,-1.75 -3.99,-5.01 -0.99,-1.08 0,-0.13 0.25,-0.41 0.99,-0.27 0.25,0 1.37,-1.08 0.62,-1.22 -0.87,-0.95 -0.13,-0.27 -0.37,-1.62 0,-0.27 0.49,-1.35 -0.99,-2.3 0.99,-2.03 1.24,-0.14 0.25,-0.54 0.13,-1.22 -0.5,-0.95 0.37,-0.4 1.37,-0.14 1.87,-0.95 0.62,-0.94 0.49,-0.82 0.38,-0.54 0.49,-0.67 0.13,-0.41 0,-0.68 0,-0.67 -0.13,-0.81 1.99,-2.58 z" 
                fill="rgb(151, 144, 238)" 
                stroke="white" 
                stroke-width=".7px"
                title="Guayama" 
                id="PR-GM" 
            />
        </svg>