<svg xmlns="http://www.w3.org/2000/svg" viewBox="296.15999999999974 107.57000000000001 32.28999999999894 53.2200000000001" width="32.28999999999894" height="53.2200000000001">
            <path 
                d="m 316.26,108.09 -0.62,-0.26 -0.5,-0.13 -0.75,-0.13 -0.37,0.14 -0.37,0.54 -0.25,0.14 -1,0.14 -1.37,0.01 0.14,2.03 0.26,1.22 0.01,0.27 -1.86,1.23 -1.36,0.69 -0.5,0.14 -0.13,0.14 0.01,0.67 1.03,4.46 0.38,0.4 0.75,0.81 -3.07,4.62 -0.62,0.96 -0.37,0.68 -0.23,1.49 -0.12,0.95 0.13,0.81 -1.59,3.12 0,0.68 1.53,3.91 0.12,0.27 -0.12,0.4 -2.96,2.6 -0.36,2.44 1.13,0.67 0.14,2.29 -0.62,0.28 -0.62,0.01 -0.37,0.54 0,0.14 -0.85,2.3 -0.22,2.71 -0.11,2.3 0.01,1.35 -4.43,3.27 0,0.3 0.75,0 0,0.08 0.08,0 0,0.08 0.22,0 0,0.08 0.23,0 0,-0.08 0.67,0 0,0.08 0.08,0 0,0.16 0.07,0 0,0.08 0.07,0 0,0.07 -0.07,0 0,0.32 -0.07,0 0,0.08 0.37,0 0,-0.16 0.6,0 0,0.08 0.15,0 0,0.08 0.45,0 0,0.15 0.3,0 0,-0.07 0.07,0 0,-0.08 0.15,0 0,-0.08 0.15,0 0,-0.08 0.15,0 0,0.08 0.08,0 0,0.16 0.07,0 0,-0.08 0.07,0 0,-0.16 0.08,0 0,-0.08 0.15,0 0,0.08 0.07,0 0,-0.08 0.15,0 0,-0.08 0.23,0 0,-0.08 0.15,0 0,-0.07 0.37,0 0,-0.08 0.08,0 0,-0.08 0.07,0 0,-0.08 0.15,0 0,-0.16 0.08,0 0,-0.08 0.07,0 0,-0.08 0.3,0 0,0.16 0.3,0 0,-0.08 0.15,0 0,-0.15 0.07,0 0,-0.24 0.08,0 0,-0.08 0.22,0 0,0.24 0.38,0 0,0.08 0.07,0 0,0.07 0.23,0 0,-0.15 0.15,0 0,-0.08 0.07,0 0,-0.16 0.23,0 0,-0.08 0.07,0 0,-0.08 0.3,0 0,0.08 0.15,0 0,0.08 0.38,0 0,-0.16 0.07,0 0,-0.15 0.08,0 0,-0.4 0.07,0 0,-0.23 0.08,0 0,-0.16 0.22,0 0,-0.08 0.15,0 0,-0.08 0.22,0 0,0.08 0.08,0 0,-0.31 0.22,0 0,-0.16 0.08,0 0,-0.08 0.15,0 0,-0.08 0.15,0 0,-0.08 0.07,0 0,-0.08 0.15,0 0,-0.08 0.23,0 0,-0.07 0.15,0 0,-0.48 0.07,0 0,-0.07 0.15,0 0,-0.08 0.08,0 0,-0.08 0.07,0 0,-0.08 0.08,0 0,-0.08 0.15,0 0,-0.08 0.37,0 0,0.08 0.08,0 0,-0.08 0.14,0 0,-0.08 0.23,0 0,-0.08 0.22,0 0,-0.07 0.15,0 0,-0.08 0.15,0 0,-0.08 0.38,0 0,-0.08 0.07,0 0,-0.08 0.15,0 0,-0.08 0.15,0 0,-0.08 0.15,0 0,-0.07 0.45,0 0,-0.08 0.3,0 0,-0.08 0.08,0 0,-0.08 0.82,0 0,0.08 0.15,0 0,-0.08 0.15,0 0,-0.16 0.07,0 0,-0.08 0.08,0 0,-0.08 0.07,0 0,-0.07 0.15,0 0,-0.08 0.15,0 0,-0.08 0.23,0 0,-0.08 0.22,0 0,-0.08 0.08,0 0,-0.08 0.15,0 0,-0.08 0.07,0 0,-0.08 0.15,0 0,-0.39 0.07,0 0,-0.31 0.08,0 0,-0.08 0.08,0 0,-0.08 0.07,0 0,-0.16 0.08,0 0,-0.08 0.07,0 0,-0.15 0.08,0 0,-0.16 0.07,0 0,-0.16 0.08,0 0,-0.08 0.07,0 0,-0.08 0.07,0 0,-0.15 0.08,0 0,-0.08 0.07,0 0,-0.48 -0.15,0 0,-0.39 0.08,0 0,-0.08 0.07,0 0,-0.55 -0.07,0 0,-0.16 -0.08,0 0,-0.08 -0.07,0 0,-0.07 -0.15,0 0,-0.08 -0.37,0 0,0.08 -0.16,0 0,0.07 -0.07,0 0,0.16 -0.08,0 0,0.08 -0.07,0 0,0.08 -0.07,0 0,0.16 -0.08,0 0,0.08 -0.07,0 0,0.15 -0.08,0 0,0.16 -0.07,0 0,0.16 -0.08,0 0,0.08 -0.07,0 0,0.08 -0.08,0 0,0.15 -0.07,0 0,0.08 -0.08,0 0,0.08 -0.07,0 0,0.16 -0.08,0 0,0.08 -0.07,0 0,0.08 -0.08,0 0,0.07 -0.15,0 0,0.08 -0.07,0 0,0.08 -0.08,0 0,0.08 -0.07,0 0,0.08 -0.15,0 0,0.08 -0.3,0 0,0.08 -0.37,0 0,0.08 -0.3,0 0,0.15 -0.3,0 0,-0.08 -1.28,0 0,0.08 -0.07,0 0,0.08 -0.15,0 0,0.08 -0.15,0 0,0.08 -0.3,0 0,0.08 -0.15,0 0,-0.08 -0.15,0 0,-0.08 -0.07,0 0,-0.16 -0.08,0 0,-0.15 -0.07,0 0,-0.24 -0.08,0 0,-0.63 0.08,0 0,-0.08 -0.08,0 0,-0.24 0.08,0 0,-0.23 0.07,0 0,-0.16 0.08,0 0,-0.24 0.15,0 0,-0.07 0.14,0 0,-0.08 0.08,0 0,-0.08 0.3,0 0,0.08 0.15,0 0,0.08 0.3,0 0,0.07 0.07,0 0,0.08 0.08,0 0,0.08 0.07,0 0,0.16 0.08,0 0,0.31 0.15,0 0,0.08 0.22,0 0,-0.08 0.45,0 0,-0.07 0.15,0 0,-0.08 0.08,0 0,-0.16 0.07,0 0,-0.16 0.08,0 0,-0.16 0.07,0 0,-0.07 0.15,0 0,-0.4 -0.07,0 0,-0.16 -0.08,0 0,-0.07 -0.07,0 0,-0.08 -0.08,0 0,-0.08 -0.07,0 0,-0.08 -0.08,0 0,-0.08 -0.07,0 0,-0.55 -0.08,0 0,-0.08 -0.07,0 0,-0.31 -0.08,0 0,-0.24 -0.07,0 0,-0.39 0.07,0 0,-0.16 0.08,0 0,-0.08 0.15,0 0,-0.16 0.15,0 0,-0.07 0.15,0 0,0.07 0.15,0 0,0.08 0.15,0 0,0.08 0.07,0 0,0.08 0.08,0 0,0.08 0.07,0 0,0.08 0.22,0 0,0.08 0.98,0 0,-0.08 0.07,0 0,-0.08 0.08,0 0,-0.08 0.07,0 0,-0.08 0.08,0 0,-0.08 0.07,0 0,-0.08 0.08,0 0,-0.07 0.07,0 0,-0.08 0.08,0 0,-0.08 0.07,0 0,-0.08 0.15,0 0,0.08 0.6,0 0,-0.08 0.15,0 0,-0.08 0.08,0 0,-0.08 0.07,0 0,-0.16 0.07,0 0,-0.07 0.15,0 0,-0.24 0.08,0 0,-0.16 0.07,0 0,-0.08 0.08,0 0,-0.08 0.07,0 0,-0.07 0.08,0 0,-0.08 0.07,0 0,-0.08 0.15,0 0,-0.16 0.3,0 0,-0.08 0,-0.08 0.6,0 0,0.08 0.23,0 0,-0.08 0.22,0 0,-0.08 0.07,0 0,-0.07 0.08,0 0,-0.08 0.23,0 0,-0.08 0.07,0 0,-0.08 0.08,0 0,-0.16 0.14,0 0,-0.16 0.08,0 0,-0.07 0.07,0 0,-0.08 0.08,0 0,-0.16 0.07,0 0,-0.16 0.15,0 0,-0.08 0.08,0 0,-0.07 0.07,0 0,-0.08 0.15,0 0,-0.08 0.15,0 0,-0.08 0.08,0 0,0.08 0.07,0 0,-0.08 0.75,0 0,0.08 -0.07,0 0,0.55 0.15,0 0,-0.32 0.22,0 0,-0.07 0.22,0 0,0.07 0.08,0 0,0.08 0.15,0 0,0.08 0.07,0 0,0.32 0.08,0 0,0.78 0.07,0 0,0.08 0,0.08 -0.15,0 0,0.16 0.3,0 0,-0.08 0.3,0 0,0.08 0.23,0 0,-0.08 0.15,0 0,-0.08 0.15,0 0,-0.12 0,-0.04 0.37,0 0,-0.08 0.15,0 0,-0.07 0.08,0 0,-0.08 0.59,0 0,0.08 0.15,0 0,0.15 -0.15,0 0,0.08 0,0 0,0.08 0,0.08 0.08,0 0,0.17 0.05,0 0.86,-2.17 0.86,-1.22 0.74,-0.28 0.62,-0.27 1.49,-0.15 0.87,-0.14 0,-0.14 0.37,-0.82 -0.38,-0.94 -0.76,-1.21 -1.25,-1.61 1.59,-3.4 -0.12,-0.27 -0.64,-1.07 -0.24,0 -1.86,0.69 -2.27,-3.23 -0.12,0 -0.25,0.14 -2.33,4.76 -0.37,-0.27 -0.52,-2.57 -0.14,-1.75 -0.01,-1.63 0.11,-2.43 -0.13,-0.41 0.24,-0.68 0.5,-0.41 0.12,-0.94 -0.01,-0.41 -0.25,-1.08 -0.76,-0.94 0.12,-0.95 0.85,-2.44 0.13,-0.14 0.24,-0.41 0,-0.13 -0.26,-1.49 0.99,-1.36 0.24,-0.27 -0.38,-0.94 -0.63,-2.03 -1.01,-1.34 -0.13,-1.22 -0.01,-0.95 -0.25,0.01 -2.24,-0.12 z" 
                fill="rgb(151, 144, 238)" 
                stroke="white" 
                stroke-width=".7px"
                title="Guayanilla" 
                id="PR-GL" 
            />
        </svg>