<svg xmlns="http://www.w3.org/2000/svg" viewBox="487.23999999999995 21.389999999999997 17.08000000000004 46.28000000000003" width="17.08000000000004" height="46.28000000000003">
            <path 
                d="m 495.82,21.56 -0.53,-0.17 -0.37,0.14 -0.75,0.68 -1.25,1.35 -2.37,2.44 -0.12,1.08 0.87,0.27 1,0.27 0.63,0.68 0.5,0.54 -0.12,0.13 -0.13,0.27 -0.62,0.95 -0.13,0.81 -0.12,0.27 -0.37,2.85 2.13,4.73 0,0.14 -1,0.67 -2.87,-1.48 -1,0.27 -0.25,0.41 0,0.54 0.62,1.35 -1.61,2.85 -0.13,0.27 0,1.08 0.51,0.54 0.99,1.62 0.13,0.95 0.13,1.35 0.12,0.27 0.38,1.63 -0.13,0.13 -2.11,1.63 0,1.35 0.12,1.08 0.38,0.68 2,1.35 0,0.13 -0.13,0 -2.37,1.09 0.13,2.3 0.88,0.81 -1.62,5.28 6.23,-0.55 2.37,0.54 1,0.54 0.75,-0.27 1.62,-0.82 1.49,-2.98 0.62,-0.27 3,-1.22 -1.13,-0.67 -0.12,-0.14 0.5,-1.35 0.24,-0.81 -1.49,-2.98 -0.13,-0.4 0,-1.09 0,-0.54 0.5,-1.89 -0.13,-0.27 -2.49,-1.35 -0.88,-1.36 0.37,-2.16 0.5,-0.95 0.5,-0.41 1.25,-0.4 0.37,-0.27 -1.13,-4.2 -0.37,-1.08 -0.25,-0.54 -2,-0.54 -1,-0.81 -0.5,-1.76 0,-2.44 0.25,-1.21 0.12,-0.14 2.62,0.54 0.38,-0.54 0.12,-0.41 -0.87,-3.92 -0.26,-0.54 -1.99,-2.17 -0.25,-0.27 -0.15,-0.26 -0.4,0 0,-0.15 -0.15,0 0,-0.71 0.15,0 0,-1.11 0.07,0 0,-0.24 -0.07,0 0,-0.23 -0.15,0 0,-0.08 -0.15,0 0,-0.08 -0.08,0 0,-0.16 -0.15,0 0,-0.08 -0.07,0 0,-0.31 -0.08,0 0,-0.07 z" 
                fill="rgb(151, 144, 238)" 
                stroke="white" 
                stroke-width=".7px"
                title="Guaynabo" 
                id="PR-GB" 
            />
        </svg>