<svg xmlns="http://www.w3.org/2000/svg" viewBox="517.78 58.18 30.170000000000073 29.50000000000002" width="30.170000000000073" height="29.50000000000002">
            <path 
                d="m 534.62,58.45 -1.5,0 -3.37,-0.27 -2.37,1.22 -0.74,0.27 -2.37,0.4 -0.25,0 -0.25,0 -2,-1.08 -0.25,-0.13 -1.37,1.08 -0.5,0.41 -0.5,0 -1.12,0.13 -0.25,0.54 0,0.41 0.13,2.57 0.25,0.4 0.25,0.27 0.62,0.55 2.37,1.48 2.49,0.95 0,0.14 -0.25,1.48 0.5,1.49 -1.99,0.68 0,0.13 0.12,0.82 0.87,2.97 0,0.14 -0.99,0.81 -0.13,0.54 0.13,0.27 0.5,0.54 1.12,1.36 0,1.21 -0.87,1.09 -0.5,0.54 -0.13,0.27 0,0.4 0.38,0.68 0.5,0.54 2.36,0.54 0.38,0 0.25,0.27 0,0.14 0.49,2.98 1.38,-0.95 0.24,-0.41 0.38,-1.76 0.12,-0.4 0.38,-0.14 0.62,-0.13 0.37,0.13 0.63,-0.13 0.24,-0.14 2.75,-2.3 2.61,-0.13 2.87,0.13 2.62,-0.81 0.49,-0.54 -0.87,-1.35 -1.37,-0.81 -0.37,-0.68 0.75,-2.43 2.74,-1.9 1,-1.35 1.37,-1.21 0.87,-0.27 1.5,-0.28 -0.75,-0.4 -1.87,-1.49 -1.24,-0.95 -1.75,-2.17 -0.74,-1.62 -2.87,-0.27 -2.87,-1.76 -0.5,-0.95 -0.74,-1.76 z" 
                fill="rgb(151, 144, 238)" 
                stroke="white" 
                stroke-width=".7px"
                title="Gurabo" 
                id="PR-GR" 
            />
        </svg>