<svg xmlns="http://www.w3.org/2000/svg" viewBox="300.0200000000002 6.389999999999983 19.71999999999997 49.05000000000001" width="19.71999999999997" height="49.05000000000001">
            <path 
                d="m 311.66,6.39 -0.15,0 0,0.08 -0.07,0 0,0.08 -0.23,0 0,0.08 -0.15,0 0,-0.08 -0.15,0 0,0.08 -0.22,0 0,0.08 -0.75,0 0,0.08 -0.15,0 0,0.08 -0.3,0 0,0.08 -0.3,0 0,0.08 -0.9,0 0,0.08 -0.3,0 0,0.07 -0.22,0 0,0.08 -0.53,0 0,0.08 -0.3,0 0,-0.16 -0.07,0 0,-0.07 -0.53,0 0,0.07 -0.37,0 0,0.08 -0.3,0 0,-0.08 -0.9,0 0,0.08 -0.52,0 0,-0.08 -0.38,0 0,0.08 -0.07,0 0,0.08 -0.07,0 0,0.08 -0.08,0 0,0.16 -0.15,0 0,0.16 -0.08,0 0,0.08 -0.07,0 0,0.08 -0.08,0 0,0.07 -0.07,0 0,0.08 -0.15,0 0,0.08 -0.3,0 0,0.08 -0.6,0 0,-0.08 -0.3,0 0,-0.08 -0.15,0 0,0.08 -0.15,0 0,-0.08 -0.52,0 0,0.08 -0.15,0 0,0.08 -0.22,0 0,-0.08 -0.16,-0.02 -0.48,0.94 0,0.14 0.26,0.94 0.76,1.89 2.29,4.58 0,0.27 0.27,2.57 -0.1,2.71 0.56,7.3 0.64,1.89 0.89,2.83 0.38,0.95 1.64,1.47 -1.45,6.51 -0.85,3.12 -1.35,2.86 -0.23,1.62 0.01,1.22 -0.35,2.84 8.6,0.33 2.37,0.11 4.12,0.24 -0.01,-1.22 0.27,-13.8 0.59,-5.15 -0.26,-0.81 -0.52,-2.97 0,-0.82 0.6,-2.17 -0.01,-2.43 -0.01,-0.95 -0.13,-0.41 -0.51,-1.34 -0.13,-0.68 0,-0.27 0.61,-2.03 -0.01,-0.68 0.23,-2.85 -0.01,-1.49 0.46,-5.82 0.1,-0.36 0,-0.03 -0.22,0 0,-0.08 -0.22,0 0,-0.08 -0.08,0 0,-0.08 -0.15,0 0,-0.08 -0.07,0 0,-0.08 -0.08,0 0,-0.16 -0.07,0 0,-0.07 -0.08,0 0,-0.08 -0.22,0 0,-0.08 -0.23,0 0,-0.08 -0.22,0 0,-0.08 -0.23,0 0,-0.08 -0.07,0 0,-0.08 -0.08,0 0,-0.08 -0.15,0 0,-0.07 -0.22,0 0,-0.08 -0.3,0 0,-0.08 -0.08,0 0,-0.08 -0.22,0 0,-0.08 -0.15,0 0,-0.08 -0.3,0 0,-0.08 -0.07,0 0,-0.08 -0.15,0 0,-0.08 -0.15,0 0,-0.08 -0.08,0 0,-0.07 -0.22,0 0,-0.08 -0.15,0 0,-0.08 -0.15,0 0,-0.08 -0.45,0 0,0.08 -0.15,0 0,-0.08 -0.15,0 0,-0.08 -0.3,0 0,-0.08 -0.6,0 0,-0.08 -0.07,0 0,-0.08 -0.23,0 0,0.08 -0.07,0 0,0.08 -0.15,0 0,0.08 -0.08,0 0,-0.08 -0.22,0 0,-0.08 -0.08,0 0,0.08 -0.82,0 0,-0.08 -0.15,0 0,-0.08 -0.07,0 0,-0.08 -0.08,0 0,-0.08 z" 
                fill="rgb(151, 144, 238)" 
                stroke="white" 
                stroke-width=".7px"
                title="Hatillo" 
                id="PR-HA" 
            />
        </svg>