<svg xmlns="http://www.w3.org/2000/svg" viewBox="213.49999999999997 101.07000000000001 22.150000000000006 15.760000000000005" width="22.150000000000006" height="15.760000000000005">
            <path 
                d="m 228.55,101.59 -1,-0.39 -0.37,-0.13 -0.63,0.14 -0.99,0.02 -0.99,0.42 -0.62,0.54 -0.75,-0.53 -0.63,-0.12 -0.87,0.01 -0.62,0.55 -0.37,0.27 -1.11,0.96 -0.5,-0.53 -1.13,-0.53 -3.98,-0.08 -0.49,0.82 1.38,0.93 0.77,1.88 2.25,0.92 0.51,1.48 0.76,0.53 0.63,1.34 0.26,1.08 0.13,0.27 0.38,0.54 0.75,0.26 0.25,0 0.37,0.13 0.26,0.26 0.26,1.08 0.62,0.4 6.38,2.22 2.61,0.37 1,0.13 1.61,-0.7 0.37,-0.55 0.24,-0.54 0.24,-0.68 0,-0.27 0.12,-0.54 -0.5,-0.27 -3.77,-3.06 -0.27,-2.03 0.11,-1.89 -0.01,-0.27 1.99,-0.57 0.25,-0.14 0.36,-0.95 -0.5,-0.4 -0.75,-0.4 -0.25,-0.13 -2.14,-2 -0.99,0.28 -0.63,-0.13 z" 
                fill="rgb(151, 144, 238)" 
                stroke="white" 
                stroke-width=".7px"
                title="Hormigueros" 
                id="PR-HO" 
            />
        </svg>