<svg xmlns="http://www.w3.org/2000/svg" viewBox="558.99 87.74 40.069999999999936 39.010000000000005" width="40.069999999999936" height="39.010000000000005">
            <path 
                d="m 581.24,126.71 -0.31,0 0.31,0.04 0,-0.04 z m 17.52,-25.44 -0.22,0 0,0.08 -0.08,0 0,0.15 -0.07,0 0,0.08 -0.15,0 0,-0.08 -0.08,0 0,-0.07 -0.22,0 0,-0.08 -0.38,0 0,0.08 -0.07,0 0,1.57 0.52,0 0,-0.08 0.08,0 0,-0.08 0.07,0 0,-0.15 -0.07,0 0,-0.56 -0.08,0 0,-0.47 0.15,0 0,0.16 0.08,0 0,0.16 0.07,0 0,0.15 0.45,0 0,-0.07 0.08,0 0,-0.08 0.22,0 0,-0.4 -0.08,0 0,-0.08 -0.07,0 0,-0.15 -0.15,0 0,-0.08 z m -16.81,-13.53 -2,1.21 -1.87,-0.68 -3.36,-0.14 -1.75,1.49 0,2.43 -0.63,1.35 -1.12,0.68 -0.25,0.27 -0.5,1.08 -0.37,1.35 -2.49,-0.82 -0.25,0 -2,0.27 -0.74,1.08 0.37,1.76 -0.38,0.68 -1.37,2.57 0.12,2.84 -0.38,1.48 -0.49,0.27 -0.75,0.41 -0.25,0.54 -1.5,2.16 -0.87,2.16 -0.13,0.82 1.75,1.49 0.24,1.21 0.13,0 1.24,0.14 0.5,-0.27 -0.12,-0.67 0.12,-0.41 0.87,-0.81 1,-0.4 0.37,-0.14 1,-0.13 0.12,-0.14 1.5,0.95 0.74,0.81 0.12,0.55 -0.37,0.81 -1.25,2.3 1.25,0.4 0.24,0.41 0.5,0.54 0.13,0.41 0.62,0.81 2.11,1.22 2.24,1.22 2.11,0.01 0.62,1.08 0.37,0.95 0.37,0.81 0.38,0.14 1.61,0.27 1.27,0.14 0.1,0.01 0,-0.08 -0.08,0 0,-0.31 0.15,0 0,-0.08 0.15,0 0,-0.08 0.08,0 0,-0.16 0.07,0 0,-0.08 0.08,0 0,-0.16 0.07,0 0,-0.23 -0.07,0 0,-0.08 -0.15,0 0,-0.08 -0.08,0 0,-0.16 -0.07,0 0,-0.08 -0.08,0 0,-0.15 0.08,0 0,-0.16 0.07,0 0,-0.08 0.08,0 0,-0.08 0.07,0 0,-0.16 0.08,0 0,-0.15 0.07,0 0,-0.24 -0.07,0 0,-0.16 -0.08,0 0,-0.08 -0.07,0 0,-0.07 -0.08,0 0,-0.24 -0.07,0 0,-0.95 0.07,0 0,-0.15 0.08,0 0,-0.24 0.07,0 0,-0.08 0.08,0 0,-0.16 0.07,0 0,-0.07 0.08,0 0,-0.08 0.07,0 0,-0.08 0.08,0 0,-0.08 0.07,0 0,-0.16 0.08,0 0,-0.16 0.07,0 0,-0.07 0.08,0 0,-0.08 0.15,0 0,-0.08 0.07,0 0,-0.08 0.15,0 0,-0.08 0.37,0 0,-0.08 0.53,0 0,-0.16 -0.07,0 0,-0.15 -0.08,0 0,-0.16 -0.08,0 0,-0.16 -0.07,0 0,-0.08 -0.07,0 0,-0.23 -0.08,0 0,-0.71 0.08,0 0,-0.48 0.07,0 0,-0.07 0.07,0 0,-0.24 0.16,0 0,-0.16 0.07,0 0,-0.08 0.08,0 0,-0.15 0.07,0 0,-0.32 0.07,0 0,-0.08 0.08,0 0,-0.39 0.07,0 0,-0.08 0.08,0 0,-0.16 0.07,0 0,-0.23 0.08,0 0,-0.16 0.07,0 0,-0.08 0.08,0 0,-0.08 0.07,0 0,-0.08 0.08,0 0,-0.08 0.07,0 0,-0.23 0.08,0 0,-0.16 0.07,0 0,-0.16 0.15,0 0,-0.08 0.08,0 0,-0.15 0.07,0 0,-0.08 0.08,0 0,-0.24 0.07,0 0,-0.16 0.08,0 0,-0.07 0.07,0 0,-0.08 0.08,0 0,-0.24 0.22,0 0,-0.08 0.15,0 0,-0.08 0.3,0 0,-0.08 0.37,0 0,-0.15 0.08,0 0,-0.95 -0.15,0 0,-0.08 -0.07,0 0,-0.08 -0.08,0 0,-0.15 -0.23,0 0,-0.08 -0.07,0 0,-0.08 -0.08,0 0,-0.08 -0.07,0 0,-1.34 0.07,0 0,-0.32 0.08,0 0,-0.31 0.07,0 0,-0.16 0.08,0 0,-0.39 0.07,0 0,-0.08 0.08,0 0,-0.08 0.08,0 0,-0.39 0.07,0 0,-0.08 0.07,0 0,-0.08 0.08,0 0,-0.24 0.07,0 0,-0.08 0.08,0 0,-0.15 0.07,0 0,-0.08 0.08,0 0,-0.16 0.07,0 0,-0.16 0.08,0 0,-0.08 0.07,0 0,-0.15 0.08,0 0,-0.16 0.07,0 0,-0.16 0.08,0 0,-0.08 0.07,0 0,-0.16 0.08,0 0,-0.07 0.07,0 0,-0.08 0.08,0 0,-0.16 0.07,0 0,-0.16 0.08,0 0,-0.08 0.07,0 0,-0.08 0.08,0 0,-0.07 0.07,0 0,-0.08 0.08,0 0,-0.08 0.07,0 0,-0.08 0.08,0 0,-0.16 0.07,0 0,-0.16 0.08,0 0,-0.07 0.07,0 0,-0.16 0.08,0 0,-0.08 0.07,0 0,-0.08 0.08,0 0,-0.08 0.07,0 0,-0.08 0.07,0 0,-0.08 0.08,0 0,-0.07 0.07,0 0,-0.08 0.08,0 0,-0.08 0.07,0 0,-0.08 0.08,0 0,-0.08 0.15,0 0,-0.16 0.07,0 0,-0.15 -0.07,0 0,-0.08 -0.08,0 0,-0.08 -0.07,0 0,-0.08 -0.08,0 0,-0.47 0.08,0 0,-0.24 0.07,0 0,-0.16 0.08,0 0,-0.08 0.07,0 0,-0.08 0.15,0 0,-0.07 0.08,0 0,-0.08 0.07,0 0,-0.08 0.08,0 0,-0.08 0.07,0 0,-0.16 0.3,0 0,-0.08 0.08,0 0,-0.15 0.07,0 0,-0.08 0.08,0 0,-0.08 0.22,0 0,-0.24 0.08,0 0,-0.16 0.15,0 0,-0.15 0.07,0 0,-0.08 0.15,0 0,-0.08 0.08,0 0,-0.08 0.15,0 0,-0.08 0.07,0 0,-0.08 0.23,0 0,-0.15 0.07,0 0,-0.08 0.15,0 0,-0.08 0.07,0 0,-0.08 0.23,0 0,-0.08 0.22,0 0,-0.08 0.15,0 0,-0.08 0.08,0 0,-0.08 0.15,0 0,-0.07 0.15,0 0,-0.08 0.22,0 0,-0.08 0.15,0 0,-0.16 0.23,0 0,-0.08 0.15,0 0,-0.08 0.15,0 0,-0.08 0.3,0 0,-0.15 0.22,0 0,-0.08 0.22,0 0,-0.08 0.08,0 0,-0.08 0.22,0 0,-0.08 0.3,0 0,-0.08 0.08,0 0,-0.08 0.15,0 0,-0.08 0.07,0 0,-0.07 0.15,0 0,-0.08 0.15,0 0,-0.08 0.15,0 0,-0.08 0.08,0 0,-0.08 0.07,0 0,-0.08 0.08,0 0,-0.08 0.07,0 0,-0.08 0.08,0 0,-0.15 0.07,0 0,-0.24 0.08,0 0,-1.1 0.07,0 0,-0.24 0.08,0 0,-0.24 0.07,0 0,-0.15 0.07,0 0,-0.16 0.08,0 0,-0.24 0.04,0 -0.33,-1.93 -0.12,-0.27 -1.99,0.67 -0.88,0.95 -0.74,-0.27 -0.13,-0.01 -3.11,-1.36 1,-2.29 0.63,-1.49 -8.71,-3.27 z" 
                fill="rgb(151, 144, 238)" 
                stroke="white" 
                stroke-width=".7px"
                title="Humacao" 
                id="PR-HU" 
            />
        </svg>