<svg xmlns="http://www.w3.org/2000/svg" viewBox="228.85999999999996 -2.4341639814906557e-14 48.650000000000034 39.930000000000014" width="48.650000000000034" height="39.930000000000014">
            <path 
                d="m 231.63,0 0,0.08 -0.37,0 0,0.08 -1.57,0 -0.15,0 0,0.08 -0.08,0 0,0.08 -0.15,0 0,0.08 -0.15,0 0,0.07 -0.07,0 0,0.16 -0.15,0 0,0.08 -0.08,0 0,0.08 1.36,0.24 0.51,0.94 1.02,1.61 1.76,1.2 0.76,1.07 -0.11,1.22 0.13,0.54 0.75,0.4 0.13,-0.01 1.62,-0.02 2.76,1.05 1.02,2.29 0.15,2.17 0.25,-0.01 0.38,0 0.02,2.16 0.65,2.3 0.39,1.48 0.38,1.08 6.39,14.27 5.74,-0.2 1,0.39 1.25,0.53 1.51,0.66 1.88,0.92 0.12,0.14 1.37,-0.42 1.5,0.11 3.88,1.18 2.89,1.46 0.87,0.39 2.37,-0.43 0,-0.67 -0.13,-0.54 0,-0.14 -0.01,-0.81 0.49,-0.82 0.12,-0.27 1.12,-0.96 0.49,-0.28 1.87,-0.15 0,-0.95 -0.13,-0.4 -0.25,-0.13 -0.25,0 -0.63,0 -1.25,0.02 -2.37,-0.25 -0.62,0.01 -1.26,-0.66 -0.26,-0.54 0.25,-0.82 0.37,-0.54 0.49,-0.41 0.63,-0.01 0.62,-0.28 1.24,-1.36 0.12,-0.28 0,-0.27 -0.26,-0.27 -1.63,-0.92 -0.5,-0.68 -1.04,-3.64 -0.12,-0.27 -0.5,-0.13 -2.38,-0.65 -2.28,-2.68 0.86,-1.64 1.23,-2.71 -1.27,-1.89 0.25,-0.41 2.61,-0.97 0.12,-0.14 -1.21,-3.25 -0.38,0 0,-0.08 -0.07,0 0,-0.08 -0.07,0 0,-0.32 0,-0.08 -0.06,0 -0.1,0 0,-0.07 -0.14,0 0,0.07 -0.15,0 0,-0.07 -0.08,0 0,-0.24 -0.15,0 0,0.08 -0.15,0 0,0.08 -0.07,0 0,0.08 -0.15,0 0,-0.08 -0.3,0 0,-0.08 -0.15,0 0,-0.08 -0.15,0 0,-0.08 -0.75,0 0,-0.08 -0.3,0 0,-0.08 -0.15,0 0,-0.08 -0.37,0 0,-0.08 -0.08,0 0,-0.15 0.08,0 0,-0.08 -0.3,0 0,0.15 -0.15,0 0,0.08 -0.08,0 0,0.16 -0.07,0 0,0.08 -0.15,0 0,0.08 -0.3,0 0,0.08 -0.15,0 0,0.08 -0.67,0 0,0.08 -0.23,0 0,-0.08 -0.07,0 0,-0.08 -0.15,0 0,-0.08 -0.08,0 0,-0.08 -0.07,0 0,-0.08 -0.08,0 0,-0.08 -0.52,0 0,-0.08 -0.08,0 0,-0.08 -0.07,0 0,-0.07 -0.08,0 0,-0.08 -0.15,0 0,-0.08 -0.07,0 0,-0.08 -0.3,0 0,-0.08 -0.08,0 0,-0.08 -0.07,0 0,-0.08 -0.08,0 0,-0.08 -0.07,0 0,-0.08 -0.08,0 0,-0.15 -0.07,0 0,-0.08 -0.08,0 0,-0.08 -0.07,0 0,-0.24 -0.3,0 0,0.08 -0.15,0 0,-0.08 -0.15,0 0,-0.16 -0.07,0 0,-0.15 -0.15,0 0,0.07 -0.15,0 0,-0.07 -0.08,0 0,-0.24 -0.07,0 0,-0.08 -0.38,0 0,0.08 -0.3,0 0,-0.08 -0.07,0 0,-0.32 -0.15,0 0,-0.07 -0.08,0 0,-0.08 -0.22,0 0,0.08 -0.15,0 0,0.07 -0.15,0 0,-0.07 -0.08,0 0,-0.08 -0.07,0 0,-0.08 -0.08,0 0,-0.08 -0.15,0 0,-0.08 -0.29,0 0,0.08 -0.08,0 0,-0.16 -0.07,0 -0.6,0 0,-0.16 -0.38,0 0,-0.16 -0.07,0 0,-0.15 -0.45,0 0,-0.08 -0.08,0 0,-0.08 -0.07,0 0,-0.16 -0.15,0 0,-0.08 -0.3,0 0,-0.08 -0.23,0 0,0.08 -0.22,0 0,-0.16 -0.08,0 0,-0.15 -0.14,0 0,0.08 -0.08,0 0,0.15 -0.15,0 0,-0.08 -0.07,0 0,-0.07 -0.08,0 0,-0.08 -0.07,0 0,-0.08 -0.15,0 0,-0.24 -0.23,0 0,0.08 -0.3,0 0,-0.08 -0.07,0 0,-0.08 -0.15,0 0,-0.39 -0.08,0 0,-0.08 -0.07,0 0,-0.08 -0.15,0 0,-0.08 -0.08,0 0,-0.08 -0.29,0 0,-0.08 -0.53,0 0,-0.08 -0.45,0 0,0.32 0.37,0 0,0.16 -0.07,0 0,0.08 -0.15,0 0,0.07 -0.07,0 0,0.08 -0.08,0 0,0.08 -0.15,0 0,0.16 -0.52,0 0,-0.16 -0.9,0 0,0.08 -0.23,0 0,-0.08 -0.07,0 0,-0.08 -0.07,0 0,-0.08 -0.15,0 0,-0.15 -0.23,0 0,-0.08 -0.45,0 0,-0.08 -0.45,0 0,-0.16 0.08,0 0,-0.08 -0.38,0 0,-0.08 -0.22,0 0,-0.08 -0.08,0 0,-0.07 -0.52,0 0,-0.08 -0.45,0 0,-0.16 -1.2,0 0,0.08 -0.3,0 0,0.08 -0.22,0 0,-0.16 -0.9,0 0,-0.24 -0.08,0 0,-0.16 -0.07,0 0,-0.15 -0.22,0 0,-0.08 -0.15,0 0,-0.08 -0.75,0 0,0.16 -0.08,0 0,0.23 -0.52,0 0,0.08 -0.08,0 0,0.08 -0.15,0 0,-0.08 -0.07,0 0,-0.08 -0.23,0 0,-0.08 -0.22,0 0,0.08 -0.38,0 0,0.08 -0.07,0 0,0.08 -0.45,0 0,-0.08 -0.07,0 0,-0.08 -0.23,0 0,0.08 -0.3,0 0,0.08 -0.3,0 0,0.16 -0.97,0 0,-0.08 -0.9,0 0,-0.24 -0.15,0 0,-0.15 -0.52,0 0,0.07 -0.08,0 0,0.08 -0.07,0 0,0.08 -0.08,0 0,0.08 -0.15,0 0,0.08 -1.12,0 0,-0.08 -0.08,0 0,-0.08 -0.15,0 0,-0.08 -0.74,0 0,-0.08 -0.08,0 0,-0.07 -0.82,0 0,-0.08 -0.23,0 0,-0.08 -0.07,0 0,-0.08 -0.3,0 0,-0.08 -0.3,0 0,-0.08 -0.45,0 z" 
                fill="rgb(151, 144, 238)" 
                stroke="white" 
                stroke-width=".7px"
                title="Isabela" 
                id="PR-IS" 
            />
        </svg>