<svg xmlns="http://www.w3.org/2000/svg" viewBox="350.27999999999975 61.79 32.6400000000001 41.92000000000002" width="32.6400000000001" height="41.92000000000002">
            <path 
                d="m 374.9,63.13 -1.63,-1.34 -1.74,1.09 -0.99,2.44 -0.24,0.41 -0.13,0.13 -0.25,0.01 -1.24,0.01 -1.62,0.28 -1.38,-0.53 -0.49,0.13 -0.13,0.14 -0.37,0.54 0.13,0.81 0.63,0.81 -0.12,0.95 -0.74,1.76 -0.1,4.06 -0.12,0.14 -4.73,1.25 -0.25,-0.4 -0.13,0 -0.25,-0.14 -0.74,0.14 -0.63,0.41 -0.12,0.14 -0.11,3.11 -0.23,1.77 -0.5,1.08 -0.36,1.49 -1.1,2.72 -1.49,1.09 -0.13,0.14 -1.1,3.52 0.52,3.11 -0.25,0.14 -2.49,0.15 0.15,3.65 0.27,2.57 0.25,0.54 2.75,1.87 2.12,0.39 0.48,-2.03 1.25,-0.14 2.49,-0.16 1.73,-1.09 1.12,-1.09 2.48,-1.37 1.37,-0.15 4.36,1.06 2.01,2.42 2.25,1.74 1.75,0.4 1.49,-0.28 0,-0.27 1.1,-2.58 0.37,-1.63 0.86,-2.03 1.49,-0.14 0.13,-0.14 0.37,-0.95 -1.51,-2.15 0.98,-2.58 -1.26,-4.46 -3.13,-2.28 -1.01,-2.7 -0.64,-2.02 -1.87,-0.8 -0.13,-0.14 -0.5,-0.54 0.12,-0.4 0.37,-1.63 0.12,-1.08 0.25,-0.14 1.49,0.13 0,-0.14 0,-0.4 0.1,-3.93 -0.75,-1.75 0.12,-0.27 0.87,-1.36 -1.64,-3.51 z" 
                fill="rgb(151, 144, 238)" 
                stroke="white" 
                stroke-width=".7px"
                title="Jayuya" 
                id="PR-JY" 
            />
        </svg>