<svg xmlns="http://www.w3.org/2000/svg" viewBox="373.65 103.01999999999961 38.84999999999923 65.2500000000004" width="38.84999999999923" height="65.2500000000004">
            <path 
                d="m 402.92,165.36 -0.67,0 0,0.31 0.07,0 0,0.08 0.07,0 0,0.47 0.08,0 0,0.16 0.07,0 0,0.4 0.08,0 0,0.07 0.07,0 0,0.16 0.08,0 0,0.39 0.07,0 0,0.48 -0.07,0 0,0.31 0.52,0 0,0.08 0.45,0 0,-0.08 0.15,0 0,-0.08 0.08,0 0,-0.39 -0.08,0 0,-0.16 0.08,0 0,-0.08 -0.08,0 0,-0.08 -0.15,0 0,-0.07 -0.07,0 0,-0.32 0.07,0 0,-0.31 -0.07,0 0,-0.16 -0.08,0 0,-0.08 -0.07,0 0,-0.16 -0.08,0 0,-0.47 -0.07,0 0,-0.08 -0.08,0 0,-0.08 -0.07,0 0,-0.07 -0.08,0 0,-0.08 -0.07,0 0,-0.08 -0.15,0 0,-0.08 z m -24.32,-62.34 -1.49,0.28 -0.99,1.49 -0.62,0.28 -0.25,0 -0.75,0.41 -0.24,0.27 -0.37,1.09 0,0.27 -0.24,2.43 0.26,1.36 0.76,2.83 1.62,-0.14 1.26,3.78 0.01,0.27 0.5,1.75 -1.72,2.99 0,0.13 1,0.67 0.5,0.68 1.26,3.1 2.03,7.56 0.12,0.27 -0.36,1.09 -0.25,0.4 -0.74,0.69 -0.13,0.27 0.89,1.75 0.12,0.13 0.38,1.22 0.5,1.35 0,0.13 1.39,4.33 -1.48,2.44 -1.48,0.55 0.59,4.73 0.18,0 0.12,0 0,-0.08 0.15,0 0,-0.08 0.15,0 0,-0.08 0.15,0 0,-0.08 0.15,0 0,-0.15 0.08,0 0,-0.08 0.3,0 0,-0.08 0.22,0 0,-0.16 0.3,0 0,-0.08 0.15,0 0,-0.07 0.15,0 0,-0.08 0.23,0 0,-0.08 0.22,0 0,-0.08 0.07,0 0,-0.08 0.15,0 0,-0.08 0.3,0 0,-0.08 0.15,0 0,-0.08 0.15,0 0,-0.07 0.15,0 0,-0.08 0.23,0 0,-0.08 0.07,0 0,-0.08 0.3,0 0,-0.08 0.08,0 0,-0.08 0.22,0 0,-0.08 0.15,0 0,-0.15 0.37,0 0,-0.08 0.08,0 0,-0.08 0.38,0 0,-0.08 0.22,0 0,-0.08 0.15,0 0,-0.08 0.3,0 0,-0.08 0.15,0 0,-0.08 0.15,0 0,-0.07 0.22,0 0,-0.08 0.15,0 0,-0.08 0.15,0 0,-0.08 0.23,0 0,-0.08 0.07,0 0,-0.08 0.23,0 0,-0.08 0.52,0 0,-0.08 0.22,0 0,-0.07 0.15,0 0,-0.08 0.23,0 0,-0.08 0.07,0 0,0.08 0.15,0 0,-0.08 0.23,0 0,-0.08 0.07,0 0,-0.08 0.15,0 0,-0.08 0.08,0 0,-0.08 0.6,0 0,-0.07 0.37,0 0,-0.08 0.3,0 0,-0.08 0.15,0 0,-0.08 0.15,0 0,-0.08 0.37,0 0,-0.08 0.38,0 0,-0.08 0.22,0 0,-0.08 1.13,0 0,-0.07 0.15,0 0,0.07 0.07,0 0,-0.07 0.08,0 0,-0.08 1.19,0 0,0.08 0.15,0 0,-0.08 0.38,0 0,0.08 0.3,0 0,0.07 0.15,0 0,0.08 0.07,0 0,0.08 0.15,0 0,0.08 0.15,0 0,0.08 0.08,0 0,0.08 0.07,0 0,0.08 0.08,0 0,0.23 0.14,0 0,0.08 0.23,0 0,-0.16 0.45,0 0,-0.07 0.15,0 0,-0.08 0.07,0 0,-0.08 0.08,0 0,-0.16 0.6,0 0,-0.08 0.45,0 0,-0.08 0.07,0 0,-0.08 0.15,0 0,-0.07 0.08,0 0,-0.08 0.45,0 0,-0.08 1.12,0 0,0.08 0.6,0 0,0.08 0.44,0 0,0.07 0.23,0 0,0.08 0.23,0 0,0.08 0.14,0 0,0.08 0.15,0 0,0.08 0.15,0 0,0.08 0.08,0 0,0.08 0.15,0 0,0.08 0.15,0 0,0.07 0.07,0 0,0.08 0.08,0 0,0.08 0.22,0 0,0.08 0.15,0 0,0.39 0.08,0 0,0.24 0.07,0 0,0.63 0.08,0 0,0.08 0.07,0 0,0.08 0.15,0 0,0.08 0.11,0 0.03,0 0.65,-0.78 0.74,-0.95 2.48,-1.09 0.25,-0.27 0.62,-1.22 -0.26,-1.76 0.24,-1.22 0.99,-0.82 0.75,0.13 0.74,-0.68 1.12,-1.9 -1.26,-3.51 -0.26,-1.75 0,-1.49 0.12,-0.27 0.24,-1.9 0.37,-0.68 -2,-3.1 0.49,-0.68 0.62,-1.62 -0.76,-2.98 -1,-0.4 -0.87,-0.26 -0.5,-0.14 -1.24,0.15 -0.75,0.14 -1.61,0.28 -2,-0.13 -5.23,-1.19 -1.62,-1.21 -1.12,-0.8 -0.63,-0.41 -0.37,0.01 -2.36,0.15 -0.87,0.54 -0.12,0.54 0.87,0.95 0.12,0.27 -0.12,0.54 -0.74,0.95 -0.62,0.41 -0.87,-0.27 -2,-0.93 -1.12,-1.35 -2.14,-4.86 0.87,-0.81 0.97,-3.53 -1.38,-2.69 0.12,-0.68 0,-0.27 0.24,-1.09 0.12,-0.54 0.87,-1.22 0.36,-1.9 -1.86,-0.26 -0.38,0.01 -1.74,0.68 -1.24,0.82 -1.5,-1.61 z" 
                fill="rgb(151, 144, 238)" 
                stroke="white" 
                stroke-width=".7px"
                title="Juana Díaz" 
                id="PR-JD" 
            />
        </svg>