<svg xmlns="http://www.w3.org/2000/svg" viewBox="538.97 69.82 26.920000000000073 36.129999999999995" width="26.920000000000073" height="36.129999999999995">
            <path 
                d="m 552.19,71.72 -2.25,-0.54 -1.37,-0.95 -0.62,-0.41 -1.5,0.28 -0.87,0.27 -1.37,1.21 -1,1.35 -2.74,1.9 -0.75,2.43 0.37,0.68 1.37,0.81 0.87,1.35 -0.49,0.54 -2.62,0.81 -0.25,3.79 1.12,1.63 0.25,0.27 2.24,2.3 0.37,0.41 0.38,0.4 1.74,0.27 0.37,2.3 0.12,3.39 -0.99,2.57 -0.26,1.89 0.63,1.62 0.37,3.66 2.12,-3.11 0.5,-0.95 0.62,-1.49 0.5,-1.62 0.12,-0.27 1,-1.62 1,-1.49 1,-1.35 0.12,-1.08 0.13,-0.82 0.87,-1.21 0.75,-1.9 2.24,1.09 1.37,-2.71 2.12,-2.16 1.62,-1.08 0.38,-1.21 0.5,-1.22 2,-3.92 1.62,-1.76 -0.25,-0.67 -0.12,-0.68 0.25,-0.54 -2.49,-0.68 -1.25,0.4 -0.38,0.68 -0.37,0.13 -1.25,0.14 -1.74,-1.22 -1.49,-0.82 -0.25,-0.13 -0.63,-0.41 -0.87,0 -1.12,0.13 -1.74,-0.68 z" 
                fill="rgb(151, 144, 238)" 
                stroke="white" 
                stroke-width=".7px"
                title="Juncos" 
                id="PR-JC" 
            />
        </svg>