<svg xmlns="http://www.w3.org/2000/svg" viewBox="225.32999999999996 127.86000000000003 42.28000000000034 38.13000000000001" width="42.28000000000034" height="38.13000000000001">
            <path 
                d="m 230.36,165.36 -0.15,0 0,0.16 0.07,0 0,0.08 0.08,0 0,0.07 0.3,0 0,0.08 0.15,0 0,0.08 0.82,0 0,0.16 0.45,0 0,-0.08 0.07,0 0,-0.08 0.38,0 0,-0.23 -1.5,0 0,-0.08 -0.15,0 0,-0.08 -0.52,0 0,-0.08 z m 21.34,-1.18 -0.38,0 0,0.08 -0.3,0 0,0.23 0.07,0 0,0.08 0.16,0 0,0.08 0.74,0 0,-0.31 -0.07,0 0,-0.08 -0.22,0 0,-0.08 z m -8.76,-0.32 -0.3,0 0,0.08 -0.08,0 0,0.24 0.08,0 0,0.08 0.22,0 0,-0.08 0.23,0 0,0.08 0.29,0 0,-0.16 -0.07,0 0,-0.08 -0.15,0 0,-0.08 -0.22,0 0,-0.08 z m 2.84,-0.55 -0.3,0 0,0.08 -0.07,0 0,0.08 -0.08,0 0,-0.08 -0.37,0 0,0.32 0.15,0 0,0.08 0.52,0 0,-0.08 0.15,0 0,-0.24 0.08,0 0,-0.08 -0.08,0 0,-0.08 z m 10.26,-1.65 -0.23,0 0,0.39 0.08,0 0,0.08 -0.15,0 0,0.08 -0.08,0 0,0.08 -0.07,0 0,-0.16 -0.23,0 0,0.08 -0.07,0 0,0.08 -0.75,0 0,0.08 -0.07,0 0,0.08 -0.08,0 0,-0.08 -0.15,0 0,-0.08 -0.08,0 0,-0.08 -0.67,0 0,-0.08 -0.3,0 0,-0.08 -0.15,0 0,0.08 -0.15,0 0,0.32 0.38,0 0,-0.16 0.15,0 0,0.08 0.07,0 0,0.08 0.15,0 0,0.08 0.08,0 0,0.08 0.29,0 0,-0.08 0.08,0 0,0.08 0.6,0 0,0.07 0.07,0 0,0.08 0.45,0 0,-0.08 0.08,0 0,-0.07 0.37,0 0,-0.08 0.53,0 0,0.15 0.15,0 0,-0.31 -0.08,0 0,-0.16 -0.07,0 0,-0.31 -0.08,0 0,-0.08 -0.07,0 0,-0.16 z m 4.34,-1.26 -0.08,0 0,0.08 -0.82,0 0,-0.08 -0.15,0 0,0.08 -0.07,0 0,0.08 -0.08,0 0,0.08 -0.07,0 0,0.08 -0.08,0 0,0.07 -0.15,0 0,0.08 -0.07,0 0,0.08 -0.15,0 0,0.08 -0.08,0 0,0.08 -0.22,0 0,-0.08 -0.08,0 0,-0.08 -0.15,0 0,0.08 -0.15,0 0,0.24 0.08,0 0,0.08 0.15,0 0,0.08 0.3,0 0,-0.08 0.15,0 0,-0.08 0.15,0 0,-0.08 0.15,0 0,-0.08 0.07,0 0,-0.08 0.23,0 0,-0.08 0.37,0 0,-0.08 0.6,0 0,0.08 0.22,0 0,0.08 0.15,0 0,0.08 0.15,0 0,0.08 0.23,0 0,0.08 0.3,0 0,0.08 0.07,0 0,0.08 0.08,0 0,0.07 0.3,0 0,0.08 0.15,0 0,0.08 0.15,0 0,0.08 0.52,0 0,-0.08 0.3,0 0,-0.16 -0.08,0 0,-0.07 -0.07,0 0,-0.08 -0.08,0 0,-0.08 -0.22,0 0,-0.08 -0.07,0 0,0.08 -0.08,0 0,-0.08 -0.22,0 0,-0.08 -0.08,0 0,-0.08 -0.07,0 0,-0.08 -0.15,0 0,-0.08 -0.08,0 0,0.08 -0.3,0 0,-0.08 -0.15,0 0,-0.08 -0.15,0 0,-0.07 -0.07,0 0,-0.08 -0.15,0 0,-0.08 -0.23,0 0,-0.08 -0.22,0 0,-0.08 z m -13.48,-3.3 0.15,0 0,-0.08 0.45,0 0,-0.08 0.08,0 0,-0.16 0.22,0 0,-0.08 0.08,0 0,-0.08 -0.38,0 0,0.08 -0.3,0 0,0.08 -0.45,0 0,0.08 -0.07,0 0,0.24 -0.08,0 0,0.07 -0.15,0 0,0.32 -0.07,0 0,0.08 -0.52,0 0,0.08 -0.38,0 0,0.15 0.08,0 0,0.16 0.3,0 0,-0.08 0.07,0 0,-0.08 0.6,0 0,-0.07 0.07,0 0,-0.08 0.08,0 0,-0.16 0.07,0 0,-0.08 0.23,0 0,-0.24 -0.08,0 0,-0.07 z m -5.25,-28.61 -1.62,-0.39 -2.37,-0.24 -1.86,0.57 -2.98,0.57 -0.49,0.01 -1.74,0.16 -3.47,1.26 -1.34,2.86 0.13,0.94 0.76,0.94 -1.34,2.18 0,0.14 0.64,2.15 0.51,1.22 0.27,2.02 0.3,4.19 0,0.13 -0.19,5.15 0.25,0.4 0.12,0 0.25,0.13 1.12,0.26 0.38,0.4 -0.48,1.22 -0.49,0.82 -0.12,0.14 -0.24,0.95 0.14,1.75 0,0.27 -0.35,1.5 -0.49,0.95 0.01,0.68 0.18,0 0,0.08 0.9,0 0,-0.08 0.22,0 0,0.08 0.23,0 0,-0.08 0.37,0 0,-0.08 0.3,0 0,-0.08 0.23,0 0,-0.08 0.22,0 0,-0.08 0.15,0 0,-0.07 0.07,0 0,-0.08 0.08,0 0,-0.08 0.07,0 0,-0.08 0.15,0 0,-0.08 0.15,0 0,-0.08 0.08,0 0,-0.08 0.07,0 0,-0.08 0.08,0 0,-0.08 0.07,0 0,-0.07 0.08,0 0,-0.24 0.07,0 0,-0.08 0.15,0 0,0.08 0.15,0 0,0.08 0.15,0 0,-0.08 0.08,0 0,-0.08 0.07,0 0,-0.08 0.08,0 0,-0.08 0.07,0 0,-0.31 0.08,0 0,-0.08 0.07,0 0,0.08 0.15,0 0,0.16 0.08,0 0,0.08 0.07,0 0,0.07 0.15,0 0,0.08 0.15,0 0,-0.15 0.15,0 0,-0.08 0.08,0 0,-0.08 0.07,0 0,-0.16 0.07,0 0,-0.31 0.08,0 0,-0.48 0.07,0 0,-0.39 0.08,0 0,-0.24 0.07,0 0,-0.07 0.08,0 0,-0.16 0.07,0 0,-0.24 -0.07,0 0,-0.39 -0.08,0 0,-0.16 -0.07,0 0,-0.16 -0.08,0 0,-0.15 0.08,0 0,-0.08 0.3,0 0,0.08 0.22,0 0,-0.08 0.08,0 0,-0.16 0.07,0 0,-0.08 -0.22,0 0,-0.08 -0.23,0 0,-0.08 -0.07,0 0,-0.07 -0.08,0 0,-0.16 0.08,0 0,-0.08 0.15,0 0,0.08 0.15,0 0,-0.08 0.15,0 0,-0.08 0.07,0 0,-0.08 0.38,0 0,-0.08 0.07,0 0,-0.08 0.23,0 0,0.16 0.07,0 0,0.16 0.08,0 0,0.24 -0.15,0 0,0.07 -0.23,0 0,0.08 -0.07,0 0,0.16 -0.08,0 0,0.24 0.08,0 0,0.39 -0.23,0 0,-0.08 -0.22,0 0,-0.08 -0.3,0 0,0.08 -0.08,0 0,0.16 0.08,0 0,0.08 0.75,0 0,-0.08 0.07,0 0,0.08 0.15,0 0,0.08 0.23,0 0,0.15 0.07,0 0,0.08 0.15,0 0,0.08 0.22,0 0,-0.08 0.08,0 0,-0.08 0.3,0 0,0.32 -0.07,0 0,0.08 0.14,0 0,0.08 0.23,0 0,-0.08 0.15,0 0,-0.08 0.07,0 0,-0.08 0.08,0 0,-0.16 0.07,0 0,-0.39 0.08,0 0,-0.32 0.07,0 0,-0.23 -0.07,0 0,-0.24 -0.15,0 0,-0.08 -0.23,0 0,-0.08 -0.07,0 0,-0.07 -0.08,0 0,-0.4 0.08,0 0,-0.08 0.07,0 0,-0.15 0.08,0 0,-0.08 0.15,0 0,-0.08 0.07,0 0,-0.08 0.23,0 0,-0.08 0.07,0 0,-0.08 0.15,0 0,-0.08 0.08,0 0,-0.07 0.07,0 0,-0.08 0.15,0 0,-0.08 0.08,0 0,-0.24 0.15,0 0,-0.31 0.07,0 0,-0.08 0.15,0 0,-0.16 0.08,0 0,-0.24 0.44,0 0,0.08 0.08,0 0,0.24 0.08,0 0,0.16 0.37,0 0,-0.08 0.15,0 0,-0.08 0.15,0 0,-0.08 0.3,0 0,-0.08 0.15,0 0,-0.08 0.07,0 0,-0.15 0.3,0 0,-0.08 0.23,0 0,-0.08 0.15,0 0,-0.08 0.15,0 0,-0.08 0.07,0 0,-0.08 0.08,0 0,-0.08 0.07,0 0,-0.08 0.15,0 0,0.08 0.08,0 0,0.08 0.07,0 0,0.08 0.07,0 0,0.16 0.15,0 0,0.08 0.15,0 0,0.08 0.08,0 0,0.07 0.15,0 0,0.08 0.07,0 0,0.08 0.08,0 0,0.08 0.15,0 0,0.16 0.3,0 0,-0.16 0.22,0 0,-0.08 0.08,0 0,0.08 0.07,0 0,-0.08 0.08,0 0,-0.08 0.37,0 0,0.08 0.08,0 0,0.08 0.15,0 0,0.08 0.07,0 0,0.08 0.08,0 0,0.08 0.07,0 0,0.15 0.23,0 0,-0.07 0.15,0 0,-0.08 0.29,0 0,0.08 0.15,0 0,0.07 0.08,0 0,0.08 0.22,0 0,0.08 0.15,0 0,0.24 0.08,0 0,0.08 0.07,0 0,0.08 0.08,0 0,0.07 0.15,0 0,0.08 0.22,0 0,0.08 0.3,0 0,-0.08 0.08,0 0,-0.08 0.07,0 0,-0.07 0.15,0 0,-0.08 0.07,0 0,-0.08 0.08,0 0,-0.16 0.08,0 0,-0.08 0.07,0 0,-0.16 0.08,0 0,-0.07 0.3,0 0,-0.08 0.07,0 0,-0.16 0.08,0 0,-0.08 0.14,0 0,-0.08 0.15,0 0,-0.08 0.15,0 0,-0.08 0.23,0 0,-0.07 0.07,0 0,-0.08 0.23,0 0,0.08 0.07,0 0,0.07 0.08,0 0,0.32 0.15,0 0,0.08 0.15,0 0,0.16 0.3,0 0,-0.08 0.15,0 0,-0.08 0.22,0 0,-0.08 0.08,0 0,0.08 0.52,0 0,0.08 0.08,0 0,-0.16 0.37,0 0,-0.08 0.22,0 0,0.08 0.08,0 0,0.08 0.3,0 0,0.16 0.15,0 0,0.07 0.15,0 0,0.08 0.07,0 0,0.16 0.08,0 0,0.24 0.07,0 0,0.15 0.08,0 0,0.16 0.45,0 0,0.08 0.59,0 0,-0.16 0.08,0 0,-0.08 0.08,0 0,-0.15 0.44,0 0,-0.08 0.08,0 0,-0.08 0.07,0 0,-0.16 0.08,0 0,-0.23 -0.08,0 0,-0.4 0.08,0 0,-0.08 -0.08,0 0,-0.15 0.08,0 0,-0.08 0.15,0 0,-0.08 0.3,0 0,0.08 0.3,0 0,0.08 0.15,0 0,-0.08 0.07,0 0,0.08 0.23,0 0,0.07 0.07,0 0,0.32 -0.15,0 0,0.08 -0.3,0 0,0.08 -0.22,0 0,0.08 -0.23,0 0,0.15 -0.07,0 0,0.08 -0.08,0 0,0.16 -0.07,0 0,0.24 0.15,0 0,0.15 0.15,0 0,0.16 0.15,0 0,0.08 0.15,0 0,0.08 0.22,0 0,0.15 0.15,0 0,0.08 0.15,0 0,0.16 0.08,0 0,0.08 0.07,0 0,0.08 0.08,0 0,0.08 -0.08,0 0,0.08 0.08,0 0,0.31 0.07,0 0,0.16 0.07,0 0,0.08 -0.07,0 0,0.39 0.07,0 0,0.08 0.15,0 0,0.08 0.08,0 0,-0.16 0.07,0 0,-0.71 -0.07,0 0,-0.23 0.07,0 0,-0.08 0.15,0 0,0.08 0.16,0 0,0.07 0.07,0 0,0.08 0.07,0 0,0.08 0.08,0 0,0.08 0.15,0 0,0.39 0.15,0 0,0.08 0.07,0 0,0.08 0.23,0 0,0.08 0.15,0 0,0.08 0.07,0 0,0.08 0.15,0 0,0.08 0.3,0 0,-0.08 0.08,0 0,-0.08 0.07,0 0,-0.08 0.15,0 0,-0.08 0.08,0 0,-0.24 0.07,0 0,-0.31 -0.07,0 0,-0.24 -0.08,0 0,-0.07 -0.07,0 0,-0.16 -0.08,0 0,-0.16 -0.15,0 0,-0.08 -0.07,0 0,-0.08 -0.15,0 0,-0.08 -0.08,0 0,-0.07 -0.07,0 0,-0.08 -0.08,0 0,-0.08 0.08,0 0,-0.16 0.07,0 0,0.08 0.15,0 0,0.08 0.08,0 0,0.16 0.15,0 0,-0.16 0.22,0 0,-0.16 0.08,0 0,-0.39 -0.15,0 0,-0.08 -0.38,0 0,0.08 -0.15,0 0,-0.24 -0.15,0 0,-0.31 0.08,0 0,0.08 0.22,0 0,0.07 0.08,0 0,-0.07 0.15,0 0,-0.08 0.15,0 0,-0.08 0.15,0 0,-0.08 0.07,0 0,-0.08 0.08,0 0.07,0 0,0.24 0.08,0 0,0.39 0.07,0 0,-0.08 0.15,0 0,-0.08 0.07,0 0,-0.08 0.38,0 0,-0.39 0.07,0 0,-0.08 0.08,0 0,-0.08 0.15,0 0,0.4 -0.07,0 0,0.15 0.07,0 0,0.08 0.37,0 0,-0.31 0.08,0 0,-0.08 0.07,0 0,-0.08 0.15,0 0,0.08 0.08,0 0,0.39 0.07,0 0,0.08 0.08,0 0,0.08 0.07,0 0,-0.08 0.08,0 0,-0.08 0.07,0 0,-0.08 0.08,0 0,-0.15 0.6,0 0,0.08 0.22,0 0,0.07 0.15,0 0,0.08 0.07,0 0,0.08 0.08,0 0,0.08 0.07,0 0,0.08 0.08,0 0,0.08 0.07,0 0,0.16 0.08,0 0,0.07 0.07,0 0,0.08 0.08,0 0,0.16 0.07,0 0,0.08 0.08,0 0,0.39 -0.08,0 0,0.08 -0.07,0 0,0.08 -0.08,0 0,0.08 -0.15,0 0,0.16 -0.07,0 0,0.07 -0.15,0 0,0.32 0.07,0 0,0.16 0.15,0 0,-0.16 0.15,0 0,-0.08 0.15,0 0,-0.08 0.08,0 0,-0.08 -0.08,0 0,-0.08 0.08,0 0,-0.07 0.15,0 0,0.07 0.07,0 0,0.24 -0.07,0 0,0.24 0.07,0 0,0.07 -0.07,0 0,0.08 -0.15,0 0,0.08 -0.08,0 0,0.16 0.08,0 0,0.08 0.15,0 0,-0.08 0.15,0 0,-0.08 0.3,0 0,0.08 0.15,0 0,0.08 0.07,0 0,0.16 0.08,0 0,0.15 0.07,0 0,0.08 -0.15,0 0,0.08 -0.07,0 0,0.08 -0.08,0 0,0.16 -0.07,0 0,0.39 0.07,0 0,0.39 0.08,0 0,0.16 -0.08,0 0,0.24 0.08,0 0,0.08 -0.08,0 0,0.07 0.15,0 0,0.08 0.08,0 0,0.41 5.42,-11.34 0.22,-2.57 0.11,-1.9 0.1,-1.62 0.11,-1.76 0.22,-3.65 -0.39,-1.22 -1.87,-0.52 -4.11,-0.76 -0.28,-3.11 0,-0.14 -2.36,0.03 -2.62,-0.78 -1.63,-1.47 -2.74,0.43 -2.37,-0.64 -3.73,0.18 -3.86,-0.77 z" 
                fill="rgb(151, 144, 238)" 
                stroke="white" 
                stroke-width=".7px"
                title="Lajas" 
                id="PR-LJ" 
            />
        </svg>