<svg xmlns="http://www.w3.org/2000/svg" viewBox="280.03999999999996 42.220000000000006 25.800000000000125 55.91000000000003" width="25.800000000000125" height="55.91000000000003">
            <path 
                d="m 303.19,77.36 -0.12,-0.13 0.09,-4.33 0.24,-0.82 0.12,-1.08 -0.27,-2.03 -1.01,-1.34 0.23,-2.71 1.32,-6.23 -0.63,-1.35 -0.13,-0.14 0,-0.13 0.36,-2.31 0.35,-2.84 -0.01,-1.22 0.23,-1.62 -1.25,-0.4 -4.75,-1.85 -4.51,-1.44 -3.74,-0.24 -1.01,-1.61 -0.63,-0.67 -0.38,-0.27 -0.25,-0.26 -2.12,-0.12 -1.31,7.32 -1.7,5.3 -0.12,0.4 0,0.55 -1.33,4.61 -0.11,1.9 0.02,2.43 -0.22,2.71 0.53,3.51 0.4,3.65 0.02,2.03 -0.49,1.22 -0.97,2.45 2.18,7.01 1.79,5.94 0.75,0.12 2,0.12 2.36,-0.16 0.75,-0.01 0.37,0 1.13,0.12 0.87,-0.14 0.99,0.13 0.01,0.54 0.12,0.27 0.64,2.02 0.13,0.4 0.5,0.54 2.25,0.93 0.63,-0.15 0.37,-0.14 0.62,-0.14 1.99,0.39 2.62,-0.16 0.62,-0.68 -0.64,-1.35 -1.25,-0.53 -0.87,-0.67 -0.26,-0.81 -0.02,-2.3 -0.04,-4.59 0,-0.28 0.36,-2.16 0.47,-2.85 0.13,-0.14 0.49,-0.54 0.12,-0.14 0.75,-0.28 0.74,-0.14 0.5,0.13 1.63,0.53 -2.65,-3.77 z" 
                fill="rgb(151, 144, 238)" 
                stroke="white" 
                stroke-width=".7px"
                title="Lares" 
                id="PR-LR" 
            />
        </svg>