<svg xmlns="http://www.w3.org/2000/svg" viewBox="545.31 68.37 30.430000000000064 44.62999999999998" width="30.430000000000064" height="44.62999999999998">
            <path 
                d="m 570.76,69.04 -0.62,-0.67 -0.75,0.54 -0.12,0.67 -0.13,1.63 -0.13,0.13 -1.62,1.89 -1.62,0.95 -0.25,0.54 0.12,0.68 0.25,0.67 -1.62,1.76 -2,3.92 -0.5,1.22 -0.38,1.21 -1.62,1.08 -2.12,2.16 -1.37,2.71 -2.24,-1.09 -0.75,1.9 -0.87,1.21 -0.13,0.82 -0.12,1.08 -1,1.35 -1,1.49 -1,1.62 -0.12,0.27 -0.5,1.62 -0.62,1.49 -0.5,0.95 -2.12,3.11 0.62,1.08 0.25,1.22 0,0.13 -0.13,0.82 -0.5,2.7 0.37,0.54 0.38,-0.13 1.87,-0.54 0.24,0 0.75,-0.27 0.38,-0.14 1.24,-0.54 0.5,0 1.49,0 1.62,0.41 2.11,0.68 2.49,1.09 0.13,-0.82 0.87,-2.16 1.5,-2.16 0.25,-0.54 0.75,-0.41 0.49,-0.27 0.38,-1.48 -0.12,-2.84 1.37,-2.57 0.38,-0.68 -0.37,-1.76 0.74,-1.08 2,-0.27 0.25,0 2.49,0.82 0.37,-1.35 0.5,-1.08 0.25,-0.27 1.12,-0.68 0.63,-1.35 0,-2.43 -1.49,-3.93 0.25,-1.22 0.38,-2.7 0.25,-0.95 1.88,-4.33 1,-1.62 0.5,-2.84 -0.49,-0.68 -0.62,-0.81 -1.13,-0.41 -0.12,-1.08 -0.75,-0.14 -1.25,0.41 -0.62,-0.28 z" 
                fill="rgb(151, 144, 238)" 
                stroke="white" 
                stroke-width=".7px"
                title="Las Piedras" 
                id="PR-LP" 
            />
        </svg>