<svg xmlns="http://www.w3.org/2000/svg" viewBox="234.49 64.3 49.52000000000004 28.94999999999999" width="49.52000000000004" height="28.94999999999999">
            <path 
                d="m 247.86,65.23 -1.5,-0.93 -0.86,1.77 0,0.41 0.16,2.84 -1.12,0.28 -1.98,1.38 -0.38,0 -0.87,-0.39 -1,-0.4 -0.51,-0.4 -0.72,2.45 -0.12,0.14 -0.62,0.54 -2.87,0.04 -0.98,1.23 0.5,0.4 1.14,1.34 0.5,0.26 3.12,0.78 1.25,-0.29 0.37,0.13 1.28,3.1 0,0.4 0.14,1.08 0.26,0.54 1.12,0.8 2.38,1.33 0.25,0.13 0.88,0.39 -0.1,2.85 3.88,1.3 -0.35,2.31 4.36,0.49 3.1,-1.53 0.12,-0.27 0.25,-0.14 0.12,-0.4 0.37,-0.95 2.73,-0.71 0.38,-0.14 0.12,0.13 2.25,0.25 0.24,0 2.64,2 11.6,2.17 4.62,1.31 -1.79,-5.94 -2.18,-7.01 0.97,-2.45 0.49,-1.22 -0.02,-2.03 -2.87,-0.64 -2.49,0.02 -2.75,-0.78 -0.25,-0.13 -1.25,-0.53 -0.13,-0.41 -0.53,-3.1 -0.12,-0.14 -0.25,0.14 -2.87,0.3 -0.62,0.15 -0.49,0.41 -0.99,1.09 -0.49,0.68 -0.63,0.01 -0.12,-0.14 -0.13,-0.53 -0.26,-1.22 -0.51,-1.08 -1.38,-0.52 -0.25,0 -0.37,0 -1.74,0.3 -1.5,-0.26 -3.5,-0.91 -0.38,0.01 -2.24,0.43 -0.62,0.14 -2.75,-0.51 -0.24,0.01 -0.9,-2.16 z" 
                fill="rgb(151, 144, 238)" 
                stroke="white" 
                stroke-width=".7px"
                title="Las Marías" 
                id="PR-LM" 
            />
        </svg>