<svg xmlns="http://www.w3.org/2000/svg" viewBox="527.9399999999978 15.790000000000138 43.94000000000244 23.329999999999853" width="43.94000000000244" height="23.329999999999853">
            <path 
                d="m 528.23,16.74 0.45,0.48 0.01,-0.33 -0.15,0 0,-0.08 -0.15,0 0,-0.07 -0.16,0 z m 0,0 0.01,-0.08 -0.09,0 0.08,0.08 z m 0.45,0.48 1.45,1.58 -0.25,1.08 0,0.41 0.13,0.27 0.25,0.27 1,0.14 2.49,0.54 0.38,0.81 0.74,1.35 0.26,0.14 0.24,-0.14 1.13,-0.13 1.12,-0.14 1.88,-0.4 3.49,1.36 1.62,2.16 3,3.25 0.23,2.91 2.54,0.03 2.64,-3.75 8.07,1.46 -1.92,8.7 2.72,-0.09 0.19,-0.31 0.24,-0.27 0.63,-0.27 0.62,0 0.25,0 0.88,-2.43 0,-0.68 0.13,-0.54 0.5,-1.35 0.37,-0.68 0.75,-0.54 1,-0.27 0.63,-0.4 0.37,-0.81 1.13,-0.95 0.87,-0.81 0.38,-0.95 0.25,-0.67 0.8,-0.58 0,-0.39 -0.07,0 0,-0.16 -0.07,0 0,-0.08 -0.08,0 0,-0.24 -0.07,0 0,-0.08 -0.08,0 0,-0.08 -0.07,0 0,-0.07 -0.08,0 0,-0.08 -0.07,0 0,-0.16 -0.08,0 0,-0.47 -0.07,0 0,-0.08 -0.08,0 0,-0.16 -0.07,0 0,-0.08 -0.08,0 0,-0.08 -0.15,0 0,-0.08 -0.15,0 0,-0.08 -0.22,0 0,-0.08 -0.15,0 0,-0.08 -0.08,0 0,-0.07 -0.15,0 0,-0.08 -0.52,0 0,0.08 -0.08,0 0,0.07 -0.15,0 0,0.08 -1.12,0 0,-0.08 -0.22,0 0,-0.07 -0.3,0 0,-0.08 -0.08,0 0,-0.08 -0.07,0 0,-0.08 -0.08,0 0,-0.08 -0.15,0 0,-0.08 -0.15,0 0,-0.08 -0.15,0 0,-0.08 -0.45,0 0,0.08 -0.3,0 0,-0.08 -0.07,0 0,-0.08 -0.15,0 0,-0.07 -0.15,0 0,-0.08 -0.07,0 0,-0.08 -0.15,0 0,-0.08 -0.3,0 0,0.08 -0.38,0 0,0.08 -0.07,0 0,-0.08 -0.15,0 0,0.08 -0.45,0 0,-0.08 -0.6,0 0,0.08 -0.15,0 0,-0.08 -0.37,0 0,-0.08 -0.15,0 0,-0.08 -0.23,0 0,-0.08 -0.45,0 0,-0.08 -0.15,0 0,0.08 -0.22,0 0,-0.08 -0.6,0 0,-0.08 -0.15,0 0,0.08 -0.3,0 0,-0.08 -0.07,0 0,-0.08 -0.08,0 0,-0.07 -0.45,0 0,-0.08 -0.07,0 0,-0.08 -1.13,0 0,0.08 -0.22,0 0,0.08 -0.08,0 0,0.07 -0.07,0 0,0.08 -0.15,0 0,0.08 -0.08,0 0,0.08 -0.15,0 0,0.08 -0.07,0 0,0.08 -0.15,0 0,0.08 -0.07,0 0,0.08 -0.15,0 0,0.15 -0.23,0 0,0.16 -0.07,0 0,0.08 -0.08,0 0,0.08 -0.07,0 0,0.08 -0.08,0 0,0.08 -0.07,0 0,0.08 -0.08,0 0,0.08 -0.07,0 0,0.07 -0.08,0 0,0.08 -0.07,0 0,0.08 -0.08,0 0,0.08 -0.07,0 0,0.08 -0.08,0 0,0.08 -0.07,0 0,0.08 -0.08,0 0,0.08 -0.07,0 0,0.08 -0.08,0 0,0.15 -0.07,0 0,0.08 -0.08,0 0,0.08 -0.07,0 0,0.16 -0.08,0 0,0.08 -0.07,0 0,0.08 -0.08,0 0,0.08 -0.07,0 0,0.15 -0.08,0 0,0.08 -0.07,0 0,0.08 -0.08,0 0,0.08 -0.07,0 0,0.08 -0.08,0 0,0.16 -0.07,0 0,0.08 -0.08,0 0,0.08 -0.07,0 0,0.07 -0.07,0 0,0.08 -0.08,0 0,0.16 -0.07,0 0,0.08 -0.08,0 0,0.08 -0.07,0 0,0.08 -0.08,0 0,0.08 -0.07,0 0,0.15 -0.08,0 0,0.08 -0.07,0 0,0.08 -0.08,0 0,0.08 -0.07,0 0,0.08 -0.08,0 0,0.16 -0.07,0 0,0.08 -0.08,0 0,0.08 -0.07,0 0,0.07 -0.08,0 0,0.08 -0.07,0 0,0.16 -0.08,0 0,0.08 -0.07,0 0,0.08 -0.08,0 0,0.16 -0.07,0 0,0.08 -0.08,0 0,0.08 -0.07,0 0,0.15 -0.08,0 0,0.08 -0.07,0 0,0.08 -0.22,0 0,-0.08 0.07,0 0,-0.16 0.07,0 0,-0.15 0.08,0 0,-0.08 0.07,0 0,-0.16 0.08,0 0,-0.16 0.07,0 0,-0.16 0.08,0 0,-0.08 0.07,0 0,-0.07 0.08,0 0,-0.08 0.07,0 0,-0.16 0.08,0 0,-0.08 0.07,0 0,-0.08 0.08,0 0,-0.08 0.07,0 0,-0.08 0.08,0 0,-0.08 0.07,0 0,-0.15 0.08,0 0,-0.08 0.07,0 0,-0.08 0.08,0 0,-0.08 0.07,0 0,-0.08 0.08,0 0,-0.08 0.07,0 0,-0.16 0.08,0 0,-0.07 0.07,0 0,-0.08 0.08,0 0,-0.08 0.07,0 0,-0.08 0.08,0 0,-0.16 0.07,0 0,-0.08 0.07,0 0,-0.08 0.08,0 0,-0.15 0.07,0 0,-0.08 0.08,0 0,-0.08 0.07,0 0,-0.16 0.08,0 0,-0.08 0.07,0 0,-0.08 0.08,0 0,-0.16 0.07,0 0,-0.07 0.08,0 0,-0.08 0.07,0 0,-0.16 0.08,0 0,-0.08 0.07,0 0,-0.08 0.08,0 0,-0.08 0.07,0 0,-0.08 0.15,0 0,-0.08 0.08,0 0,-0.08 0.07,0 0,-0.07 0.08,0 0,-0.08 0.07,0 0,-0.08 0.08,0 0,-0.08 0.15,0 0,-0.08 0.07,0 0,-0.08 0.08,0 0,-0.08 0.07,0 0,-0.08 0.08,0 0,-0.15 0.07,0 0,-0.08 0.08,0 0,-0.08 0.07,0 0,-0.08 0.15,0 0,-0.16 0.15,0 0,-0.08 0.08,0 0,-0.08 0.15,0 0,-0.15 0.07,0 0,-0.16 0.07,0 0,-0.08 0.08,0 0,-0.08 0.15,0 0,-0.32 -0.15,0 0,-0.07 -0.15,0 0,-0.08 -0.07,0 0,-0.08 -0.15,0 0,-0.08 -0.15,0 0,-0.08 -0.15,0 0,-0.08 -0.3,0 0,-0.08 -0.15,0 0,-0.08 -0.15,0 0,-0.08 -0.08,0 0,-0.07 -0.07,0 0,-0.08 -0.15,0 0,-0.08 -0.08,0 0,-0.08 -0.07,0 0,-0.08 -0.08,0 0,-0.08 -0.07,0 0,-0.08 -0.23,0 0,-0.08 -0.22,0 0,-0.08 -0.08,0 0,-0.07 -0.37,0 0,-0.08 -0.15,0 0,-0.08 -0.08,0 0,-0.08 -0.07,0 0,-0.08 -0.15,0 0,-0.08 -0.3,0 0,-0.08 -0.07,0 0,-0.08 -0.15,0 0,-0.08 -0.08,0 0,-0.08 -0.15,0 0,-0.07 -0.15,0 0,-0.08 -0.07,0 0,-0.08 -0.08,0 0,-0.32 0.08,0 0,-0.23 -0.15,0 0,-0.08 -0.15,0 0,-0.08 -0.08,0 0,-0.08 -0.07,0 0,-0.16 -0.08,0 0,-0.08 -0.07,0 0,-0.08 -0.08,0 0,-0.08 -0.6,0 0,-0.07 -0.07,0 0,-0.08 -0.15,0 0,-0.08 -0.52,0 0,-0.08 -0.15,0 0,-0.08 -0.38,0 0,0.08 -0.3,0 0,0.08 -0.3,0 0,0.16 -0.07,0 0,0.15 0.07,0 0,0.08 0.15,0 0,0.08 0.53,0 0,0.16 -0.08,0 0,0.08 -0.07,0 0,0.08 -0.08,0 0,0.47 -0.07,0 0,0.08 -0.08,0 0,0.08 -0.07,0 0,0.08 -0.15,0 0,0.08 -0.15,0 0,0.07 -1.05,0 0,0.08 -0.15,0 0,0.08 -0.08,0 0,0.08 -0.07,0 0,0.08 -0.15,0 0,0.08 -0.15,0 0,0.08 -0.37,0 0,0.08 -0.15,0 0,0.08 -0.23,0 0,0.08 -0.15,0 0,-0.08 -0.45,0 0,-0.08 -0.22,0 0,-0.08 -0.22,0 0,0.08 -0.08,0 0,-0.08 -0.68,0 0,0.08 -0.14,0 0,0.08 -0.53,0 0,-0.08 -0.3,0 0,-0.08 -0.22,0 0,-0.08 -0.15,0 0,0.08 -0.08,0 0,-0.08 -0.07,0 0,-0.08 -0.23,0 0,-0.08 -1.19,0 0,-0.08 -0.45,0 0,-0.08 -0.3,0 0,-0.08 -0.98,0 0,-0.07 -0.3,0 0,-0.08 -0.22,0 0,-0.08 -0.22,0 0,-0.08 -0.08,0 0,-0.08 -0.45,0 0,-0.08 -0.22,0 0,-0.08 -0.23,0 0,-0.08 -0.07,0 0,-0.08 -0.08,0 0,-0.07 -0.6,0 0,-0.08 -0.22,0 0,-0.08 -0.9,0 0,-0.08 -0.3,0 0,-0.08 -0.52,0 0,-0.08 -0.3,0 0,-0.08 -0.3,0 0,-0.08 -0.23,0 0,-0.08 -0.07,0 0,-0.07 -0.3,0 0,-0.08 -0.15,0 0,-0.08 -0.3,0 0,-0.08 -0.15,0 0,-0.08 -0.22,0 0,-0.08 -0.23,0 0,-0.08 -0.22,0 0,-0.08 -0.15,0 0,-0.08 -0.3,0 0,-0.08 -0.15,0 0,-0.07 -0.23,0 0,-0.08 -0.15,0 0,-0.08 -0.37,0 0,-0.08 -0.45,0 0,-0.08 -0.37,0 0,-0.08 -0.15,0 0,-0.08 -0.15,0 0,-0.08 -0.08,0 0,-0.07 -0.07,0 0,-0.16 -0.15,0 0,-0.08 -0.08,0 0,-0.08 -0.15,0 0,-0.08 -0.07,0 0,-0.16 -0.08,0 0,-0.08 -0.07,0 0,-0.08 -0.08,0 0,-0.07 -0.52,0 0,0.07 -0.08,0 0,0.16 0.08,0 0,0.16 0.07,0 0,0.16 -0.07,0 0,0.16 -0.08,0 0,0.08 -0.07,0 0,0.07 -0.22,0 0,0.08 -0.53,0 0,-0.08 -0.15,0 0,-0.15 -0.07,0 0,-0.08 -0.15,0 0,-0.08 -0.23,0 0,-0.08 -0.07,0 0,-0.08 -0.15,0 0,-0.08 -0.23,0 0,-0.08 -0.52,0 0,-0.08 -0.08,0 0,-0.08 -0.15,0 0,-0.07 -0.07,0 0,-0.08 -0.08,0 0,-0.08 -0.37,0 0,0.08 -0.22,0 0,0.23 -0.08,0 0,0.16 0.15,0 0,0.08 0.22,0 0,0.08 0.15,0 0,0.08 0.3,0 0,0.08 0.08,0 0,0.16 0.07,0 0,0.07 0.08,0 0,0.08 0.07,0 0,0.08 0.3,0 0,-0.08 0.15,0 0,-0.08 0.3,0 0,0.08 0.08,0 0,0.24 -0.08,0 0,0.16 -0.07,0 0,0.15 -0.08,0 0,0.08 -0.3,0 0,-0.08 -0.15,0 0,-0.07 -0.22,0 0,-0.08 -0.15,0 0,-0.08 -0.16,0.01 z" 
                fill="rgb(151, 144, 238)" 
                stroke="white" 
                stroke-width=".7px"
                title="Loíza" 
                id="PR-LZ" 
            />
        </svg>