<svg xmlns="http://www.w3.org/2000/svg" viewBox="587.8999999999993 35.91 27.200000000000045 28.87000000000002" width="27.200000000000045" height="28.87000000000002">
            <path 
                d="m 601.23,35.91 -0.67,0 0,0.08 -0.23,0 0,0.08 -0.15,0 0,0.08 -0.07,0 0,0.08 -0.08,0 0,0.07 -0.29,0 0,-0.07 -0.46,0 0,0.07 -0.07,0 0,0.24 0.07,0 0,0.24 -0.15,0 0,0.15 -0.07,0 0,0.08 -0.08,0 0,0.16 -0.07,0 0,0.08 -0.07,0 0,0.08 -0.08,0 0,0.16 -0.07,0 0,0.15 -0.08,0 0,0.08 -0.15,0 0,0.08 -0.22,0 0,0.08 -0.15,0 0,0.08 -0.08,0 0,0.08 -0.07,0 0,0.08 -0.3,0 0,0.08 -0.38,0 0,0.08 -0.3,0 0,0.07 -0.22,0 0,0.08 -0.07,0 0,0.08 -0.15,0 0,0.08 -0.38,0 0,0.08 -0.07,0 0,0.08 -0.15,0 0,-0.08 -0.08,0 0,-0.08 -0.22,0 0,-0.08 -0.3,0 0,-0.08 -0.08,0 0,-0.08 -0.15,0 0,-0.07 -0.15,0 0,-0.08 -0.07,0 0,-0.08 -0.08,0 0,-0.08 -0.07,0 0,-0.08 -0.23,0 0,-0.08 -0.15,0 0,-0.08 -0.07,0 0,-0.08 -0.15,0 0,-0.08 -0.15,0 0,-0.07 -0.07,0 0,-0.08 -0.08,0 0,-0.08 -0.07,0 0,-0.08 -0.08,0 0,-0.16 -0.15,0 0,-0.08 -0.04,0 -0.08,0.08 -1,1.35 -2.12,1.61 -0.63,0.54 -0.63,0.95 -1.12,0.94 0,0.14 0.37,2.03 0.12,0.54 0.13,0.27 0.87,0.27 0.37,0.68 0.62,0.68 0.63,0.54 0.74,1.36 0.5,0.27 0.25,0.27 -0.13,1.76 -0.62,0.4 -0.01,1.22 0.13,0.27 1.12,0.14 0.75,0.68 -0.25,0.68 -0.63,0.81 -0.75,0.27 -0.75,0.13 -0.12,0.13 -0.38,0.81 -0.5,1.76 -0.38,0.95 0.37,1.08 0.87,1.36 0,0.4 -0.25,0.54 0,0.95 0.37,-0.27 0.76,-1.08 0.37,-0.4 0.63,-0.81 0.25,-0.41 0.37,0.14 1.37,0.41 1.62,0.81 1.12,2.44 0.37,-0.13 0.87,-0.54 0.88,-0.54 0.12,-0.81 1.25,-0.27 -0.12,-0.95 0.13,-1.35 0.37,-0.67 1.5,-0.13 0.25,0.13 0.13,-0.13 0.37,0.14 0.25,0 0.25,-0.14 1.12,-0.54 0.13,-0.13 0,-1.35 -0.12,-0.55 0,-0.81 0.25,-0.54 0.38,0 0.24,-0.13 0.26,-0.27 0.24,-0.27 0.63,-0.27 0.62,-0.27 1,0.14 1.25,0.55 0.25,-0.14 0.37,-0.13 0,-0.14 -0.37,-1.76 0.75,-0.54 0.13,-0.27 1,-2.02 0.26,-0.68 -0.25,-0.27 -0.13,-0.14 -0.12,-0.27 0,-0.4 0.25,-0.41 1.25,-2.02 1.26,-2.04 -0.47,0 0,-0.08 -0.6,0 0,-0.08 -0.22,0 0,-0.08 -0.15,0 0,-0.08 -0.15,0 0,-0.08 -0.08,0 0,-0.07 -0.14,0 0,-0.08 -0.08,0 0,-0.16 -0.07,0 0,-0.16 -0.15,0 0,-0.08 -0.15,0 0,-0.08 -0.08,0 0,-0.08 -0.07,0 0,-0.15 -0.08,0 0,-0.4 -0.07,0 0,-0.08 -0.6,0 0,0.08 -0.08,0 0,0.08 -0.07,0 0,0.08 -0.45,0 0,-0.08 -0.15,0 0,-0.08 -0.08,0 0,0.08 -0.15,0 0,0.08 -0.22,0 0,0.08 -0.15,0 0,0.08 -0.08,0 0,0.16 -0.07,0 0,0.07 -0.15,0 0,0.08 -0.45,0 0,-0.08 -0.52,0 0,-0.15 -0.6,0 0,-0.08 -0.23,0 0,-0.08 -0.15,0 0,-0.08 -0.07,0 0,0.08 -0.23,0 0,-0.16 -0.22,0 0,-0.08 -0.23,0 0,0.08 -0.37,0 0,-0.08 -0.3,0 0,-0.08 -0.3,0 0,-0.08 -0.3,0 0,-0.07 -0.07,0 0,-0.08 -0.08,0 0,-0.08 -0.07,0 0,-0.08 -0.08,0 0,-0.08 -0.07,0 0,-0.08 -0.38,0 0,-0.08 -0.15,0 0,-0.08 -0.15,0 0,-0.08 -0.15,0 0,-0.07 -0.15,0 0,-0.08 -0.07,0 0,-0.08 -0.22,0 0,-0.08 -0.38,0 0,-0.08 -0.15,0 0,-0.08 -0.07,0 0,-0.08 -0.15,0 0,-0.08 -0.08,0 0,-0.08 -0.15,0 0,-0.15 -0.07,0 0,-0.24 -0.08,0 0,-0.16 -0.07,0 0,-0.08 -0.15,0 0,-0.08 -0.23,0 0,-0.15 -0.07,0 0,-0.16 -0.08,0 0,-0.08 -0.15,0 0,-0.08 -0.15,0 0,-0.08 -0.07,0 0,-0.23 0.07,0 0,-0.08 -0.07,0 0,-0.4 -0.08,0 0,-0.08 -0.07,0 0,-0.15 -0.08,0 0,-0.08 -0.22,0 0,-0.08 -0.08,0 0,0.08 -0.07,0 0,-0.08 -0.15,0 0,-0.08 -0.15,0 0,-0.08 -0.15,0 0,-0.08 -0.07,0 0,-0.16 -0.08,0 0,-0.15 -0.07,0 0,-0.08 -0.08,0 0,-0.32 0.08,0 0,-0.16 0.07,0 0,-0.15 0.08,0 0,-0.71 -0.08,0 0,-0.16 -0.15,0 0,-0.08 z" 
                fill="rgb(151, 144, 238)" 
                stroke="white" 
                stroke-width=".7px"
                title="Luquillo" 
                id="PR-LQ" 
            />
        </svg>