<svg xmlns="http://www.w3.org/2000/svg" viewBox="379.57000000000085 8.45 28.26000000000016 38.66" width="28.26000000000016" height="38.66">
            <path 
                d="m 407.83,8.54 -0.05,-0.09 0,0.08 -0.15,0 0,0.07 -0.14,0 0,0.08 -0.08,0 0,0.08 -0.15,0 0,0.08 -0.15,0 0,0.16 -0.07,0 0,0.16 -0.08,0 0,0.55 -0.07,0 0,0.08 -0.08,0 0,0.31 -0.07,0 0,0.56 -0.08,0 0,0.16 -0.07,0 0,0.15 -0.38,0 0,0.08 -0.07,0 0,0.16 -0.08,0 0,0.24 -0.15,0 0,0.08 -0.07,0 0,0.07 -0.08,0 0,0.08 -0.07,0 0,0.08 -0.08,0 0,0.08 -0.07,0 0,0.08 -0.08,0 0,0.24 -0.07,0 0,0.23 -0.08,0 0,0.08 -0.07,0 0,0.08 -0.08,0 0,0.08 -0.07,0 0,0.08 -0.08,0 0,0.08 -0.07,0 0,0.08 -0.15,0 0,0.08 -0.22,0 0,0.08 -0.3,0 0,0.07 -0.15,0 0,0.08 -0.15,0 0,0.08 -0.23,0 0,-0.08 -0.15,0 0,0.08 -0.3,0 0,0.08 -0.45,0 0,0.08 -0.22,0 0,0.08 -0.15,0 0,-0.08 -0.38,0 0,-0.08 -0.59,0 0,-0.08 -0.45,0 0,-0.08 -0.23,0 0,-0.08 -0.07,0 0,0.08 -0.3,0 0,0.08 -0.15,0 0,0.08 -0.45,0 0,0.08 -0.15,0 0,-0.08 -0.3,0 0,-0.08 -0.15,0 0,-0.08 -0.23,0 0,-0.08 -1.12,0 0,-0.07 -0.52,0 0,-0.08 -0.23,0 0,-0.08 -0.3,0 0,-0.08 -0.74,0 0,-0.08 -0.08,0 0,-0.08 -0.15,0 0,-0.08 -0.07,0 0,-0.08 -0.08,0 0,-0.23 0.08,0 0,-0.16 -0.08,0 0,-0.08 -0.37,0 0,0.08 -0.08,0 0,-0.16 -0.07,0 0,-0.08 -0.08,0 0,0.08 -0.15,0 0,-0.08 -0.37,0 0,-0.08 -0.15,0 0,0.08 -0.08,0 0,-0.08 -0.22,0 0,-0.08 -0.08,0 0,-0.08 -0.22,0 0,-0.07 -0.37,0 0,-0.08 -0.23,0 0,-0.08 -0.15,0 0,-0.08 -0.22,0 0,-0.08 -0.38,0 0,-0.08 -0.37,0 0,-0.08 -0.15,0 0,-0.08 -0.68,0 0,0.08 -0.07,0 0,0.24 0.07,0 0,0.08 -0.07,0 0,0.16 -0.08,0 0,0.07 -0.14,0 0,0.08 -0.38,0 0,-0.08 -0.3,0 0,-0.07 -0.07,0 0,-0.08 -0.08,0 0,-0.08 -0.15,0 0,-0.08 -0.3,0 0,-0.08 -0.07,0 0,-0.24 -0.45,0 0,-0.08 -0.08,0 0,-0.07 -0.44,0 0,0.15 -0.23,0 0,0.08 -0.52,0 0,-0.08 -0.08,0 0,-0.08 -0.07,0 0,-0.07 -0.08,0 0,-0.08 -0.07,0 0,-0.16 -0.08,0 0,-0.08 -0.22,0 0,-0.08 -0.53,0 0,-0.08 -0.07,0 0,-0.08 -0.15,0 0,-0.08 -0.15,0 0,-0.08 -0.08,0 0,-0.23 -0.22,0 0,0.08 -0.6,0 0,-0.08 -0.15,0 0,-0.08 -0.15,0 0,-0.08 -0.15,0 0,-0.16 -0.15,0 0,-0.23 0.08,0 0,-0.08 -0.08,0 0,-0.16 -0.22,0 0,-0.08 -0.15,0 0,-0.08 -0.6,0 0,0.16 -0.15,0 0,0.08 -0.15,0 0,0.08 -0.15,0 0,0.08 -0.15,0 0,0.07 -0.15,0 0,0.08 -0.15,0 0,0.08 -0.38,0 0,0.08 -0.29,0 0,0.4 0.07,0 0,0.07 -0.07,0 0,0.24 -0.08,0 0,0.08 -0.15,0 0,0.16 -0.12,0 0.17,0.27 0.76,1.35 0.12,0.54 0.01,1.35 -0.37,1.22 -0.24,0.41 -1.25,1.09 -0.12,0.54 0,0.27 0.25,0.13 1.75,-0.95 0.62,0.13 0.38,0.27 0.12,0.4 -1.11,1.09 -0.5,0.28 -1.37,0.54 -0.25,0.14 -0.37,0.54 -0.13,0.41 0.64,2.16 0.12,0.14 0.13,0.13 0.37,0.14 1.13,-0.01 1.5,1.07 -0.37,1.22 -0.74,0.55 -1.62,0.82 -2.12,0.82 0,0.14 0.26,0.95 -0.12,1.08 -0.12,0.95 0,0.4 0.22,0.5 0.66,1.53 1.52,2.56 0.12,0.54 0.13,0.81 0.14,1.76 0.51,2.43 -0.72,5.42 0.75,0.4 0.62,0 1.49,-1.36 1.87,-1.23 1.24,-0.82 4.11,-1.11 1.62,0.13 3.5,-0.29 1.12,-0.28 0.5,-0.41 1.24,-0.82 1,0.13 5.11,0.11 -0.25,-1.76 -0.13,-0.81 -0.38,-0.94 -0.5,-1.08 0,-0.54 0.12,-0.68 1.73,-2.99 0.49,-1.35 0.13,-0.82 -0.15,-5.68 -0.01,-2.84 0.11,-2.3 0,-0.95 0.11,-3.11 0.22,-6.77 z" 
                fill="rgb(151, 144, 238)" 
                stroke="white" 
                stroke-width=".7px"
                title="Manatí" 
                id="PR-MT" 
            />
        </svg>