<svg xmlns="http://www.w3.org/2000/svg" viewBox="242.57999999999993 87.39 57.91000000000014 19.959999999999923" width="57.91000000000014" height="19.959999999999923">
            <path 
                d="m 262.66,87.52 -0.12,-0.13 -0.38,0.14 -2.73,0.71 -0.37,0.95 -0.12,0.4 -0.25,0.14 -0.12,0.27 -3.1,1.53 -4.36,-0.49 0.52,2.02 -0.37,0.41 -1.12,0.56 -2.99,-0.24 -0.49,0.82 -1.11,1.23 -0.74,0.28 -0.62,0.28 -0.25,0 -1.36,0.69 0.25,0 0.5,0.53 0.37,0.27 1.01,0.53 2.36,0.38 2.25,0.38 0.13,-0.01 1.24,0.13 2.38,1.05 1.5,0.93 0.75,0.53 0.63,0.13 0.87,-0.01 0.37,0.13 0.25,0 0.5,0.4 0.26,0.54 0,0.27 0,0.13 0.13,0.14 0.13,0.27 0.87,0.53 3.13,1.32 2,0.51 0.61,-0.81 1.11,-0.96 0.88,0.66 0.75,0 1.86,-0.16 0.37,-0.14 2.99,-0.3 0.25,-0.01 0.74,-0.14 0.13,-0.14 2.24,-0.56 0.24,-0.14 2.74,-0.7 1,0.66 2,1.47 0.25,0.13 0.5,-0.14 2.73,-0.43 0.25,-0.27 0.12,-0.95 0.24,-0.28 0.38,0 0.37,0.27 2.01,1.6 0.88,1.21 1.38,1.07 1.99,0.11 0.37,0 0.5,-0.01 0.38,0.14 0.37,-0.14 0.25,-0.28 0.48,-1.89 1.08,-4.75 0.63,0.13 1.12,0.39 1.35,-1.77 0.25,-0.27 0.24,-0.68 -1.99,-0.39 -0.62,0.14 -0.37,0.14 -0.63,0.15 -2.25,-0.93 -0.5,-0.54 -0.13,-0.4 -0.64,-2.02 -0.12,-0.27 -0.01,-0.54 -0.99,-0.13 -0.87,0.14 -1.13,-0.12 -0.37,0 -0.75,0.01 -2.36,0.16 -2,-0.12 -0.75,-0.12 -4.62,-1.31 -11.6,-2.17 -2.64,-2 -0.24,0 -2.25,-0.25 z" 
                fill="rgb(151, 144, 238)" 
                stroke="white" 
                stroke-width=".7px"
                title="Maricao" 
                id="PR-MR" 
            />
        </svg>