<svg xmlns="http://www.w3.org/2000/svg" viewBox="529.12 129.07 37.24000000000308 22.90999999999994" width="37.24000000000308" height="22.90999999999994">
            <path 
                d="m 533.1,130.97 -1.12,-1.9 -2.49,0.54 -0.37,0.14 0.25,1.35 0.5,2.44 1.12,2.97 2.48,2.71 0.13,0.27 0.12,0 0.37,0 1.25,-1.08 0.62,-0.14 0.87,0.14 1.99,1.49 -0.62,1.48 0,0.41 0,0.81 0.37,1.9 0.25,0.13 2.48,3.92 0.37,0.14 1.99,0.54 1.87,0.82 0.49,0.4 1.5,0.27 0.74,-0.27 0.75,0.28 0.49,0 1,1.21 0,0.04 0.05,0 0,-0.08 0.07,0 0,-0.04 0,-0.12 0.08,0 0,-0.15 0.07,0 0,-0.08 0.08,0 0,-0.08 0.07,0 0,-0.08 0.08,0 0,-0.08 0.07,0 0,-0.08 0.08,0 0,-0.08 0.07,0 0,-0.07 0.08,0 0,-0.08 0.07,0 0,-0.08 0.08,0 0,-0.08 0.07,0 0,-0.08 0.15,0 0,-0.08 0.15,0 0,-0.08 0.08,0 0,-0.15 0.07,0 0,-0.08 0.15,0 0,-0.08 0.15,0 0,-0.08 0.08,0 0,-0.08 0.07,0 0,-0.08 0.08,0 0,-0.08 0.07,0 0,-0.07 0.15,0 0,-0.08 0.3,0 0,-0.08 0.07,0 0,-0.08 0.08,0 0,-0.08 0.15,0 0,-0.08 0.22,0 0,-0.08 0.15,0 0,-0.08 0.08,0 0,-0.31 0.07,0 0,0.08 0.08,0 0,0.16 0.22,0 0,-0.16 0.23,0 0,-0.08 0.22,0 0,-0.08 0.15,0 0,-0.08 0.15,0 0,-0.08 0.15,0 0,-0.07 0.37,0 0,0.07 0.15,0 0,-0.07 0.23,0 0,0.15 0.07,0 0,0.16 0.08,0 0,0.08 0.07,0 0,0.16 0.08,0 0,0.07 0.15,0 0,0.16 0.07,0 0,-0.08 0.08,0 0,0.16 0.07,0 0,0.08 0.08,0 0,0.16 0.15,0 0,0.08 0.07,0 0,0.07 0.08,0 0,0.08 0.15,0 0,0.16 0.15,0 0,-0.16 0.07,0 0,-0.08 0.08,0 0,-0.07 -0.08,0 0,-0.48 0.08,0 0,-0.15 0.07,0 0,-0.08 0.15,0 0,-0.16 0.08,0 0,-0.16 0.07,0 0,-0.08 0.08,0 0,-0.07 0.07,0 0,-0.08 0.15,0 0,-0.08 0.08,0 0,-0.08 0.07,0 0,-0.08 0.08,0 0,-0.08 0.07,0 0,-0.16 0.07,0 0,-0.15 0.08,0 0,-0.16 0.07,0 0,-0.08 0.08,0 0,-0.16 0.07,0 0,-0.08 0.08,0 0,-0.23 0.07,0 0,-0.08 0.08,0 0,-0.16 -0.08,0 0,-0.16 0.08,0 0,-0.07 0.07,0 0,-0.08 0.08,0 0,-0.08 0.15,0 0,-0.08 0.22,0 0,-0.08 0,-0.08 0,-0.08 0.08,0 0,-0.15 0.07,0 0,-0.16 0.08,0 0,-0.16 0.15,0 0,-0.08 0.07,0 0,-0.08 0.08,0 0,-0.08 0.15,0 0,-0.07 0.15,0 0,-0.08 0.07,0 0,-0.08 0.08,0 0,-0.08 0.15,0 0,-0.08 0.07,0 0,-0.16 0.08,0 0,-0.07 0.07,0 0,-0.16 0.08,0 0,-0.08 0.07,0 0,-0.08 0.08,0 0,-0.08 0.15,0 0,-0.08 0.29,0 0,0.08 0.15,0 0,0.08 0.15,0 0,0.08 0.15,0 0,0.08 0.3,0 0,-0.16 0.08,0 0,-0.16 0.15,0 0,-0.08 0.07,0 0,0.08 0.15,0 0,0.08 0.08,0 0,0.08 0.52,0 0,0.08 0.08,0 0,0.08 0.29,0 0,0.08 0.23,0 0,0.08 0.15,0 0,0.07 0.08,0 0,0.08 0.59,0 0,-0.08 0.08,0 0,-0.07 0.07,0 0,-0.08 0.08,0 0,-0.08 0.07,0 0,-0.24 0.15,0 0,-0.08 0.3,0 0,-0.08 0.15,0 0,-0.07 0.15,0 0,-0.08 0.08,0 0,-0.08 0.07,0 0,-0.24 0.08,0 0,-0.23 0.07,0 0,-0.08 0.15,0 0,-0.08 0.07,0 0,-0.16 0.08,0 0,-0.08 0.07,0 0.02,-0.08 -0.06,-0.07 -0.25,-0.27 -0.62,-0.67 -1,-0.55 -1.24,-1.49 -0.25,-0.4 -0.37,-0.68 -0.87,0 -1.12,0.4 -0.75,0.27 -1.74,0.81 -0.25,-0.54 -1.61,-2.17 -2.61,-1.08 -2.36,-0.41 -0.25,-0.14 -1.24,0.81 -2.99,-0.54 -1.87,-0.54 -0.99,0 -0.13,0 -1.86,-0.95 -2.86,-1.36 -0.12,0.14 -1.49,-1.9 -0.13,-0.27 -1.74,-0.54 -0.5,0 -0.75,0.27 -0.87,0.14 -0.37,-0.54 z" 
                fill="rgb(151, 144, 238)" 
                stroke="white" 
                stroke-width=".7px"
                title="Maunabo" 
                id="PR-MB" 
            />
        </svg>