<svg xmlns="http://www.w3.org/2000/svg" viewBox="-6.938893903907228e-17 100.56 29.42999999999996 31.11000000000007" width="29.42999999999996" height="31.11000000000007">
            <path 
                d="m 24.48,111.67 -0.37,0 0,0.08 -0.15,0 0,0.07 -0.15,0 0,0.08 -0.15,0 0,0.08 -0.3,0 0,0.08 -0.37,0 0,0.08 -0.23,0 0,0.08 -0.15,0 0,0.08 -0.07,0 0,0.08 -0.23,0 0,0.07 -0.07,0 0,0.08 -0.15,0 0,0.08 -0.08,0 0,0.08 -0.07,0 0,0.08 -0.08,0 0,0.08 -0.15,0 0,0.16 -0.14,0 0,0.15 -0.23,0 0,0.08 -0.15,0 0,0.08 -0.07,0 0,0.08 -0.08,0 0,0.08 -0.08,0 0,0.08 -0.22,0 0,0.08 -0.07,0 0,-0.08 -0.08,0 0,0.08 -0.07,0 0,0.07 -0.08,0 0,0.08 -0.15,0 0,0.08 -0.22,0 0,-0.08 -0.15,0 0,0.08 -0.23,0 0,-0.08 -0.07,0 0,0.08 -0.38,0 0,0.08 -0.3,0 0,0.08 -0.67,0 0,0.16 -1.5,0 0,-0.08 -0.07,0 0,-0.08 -0.23,0 0,-0.08 -0.3,0 0,-0.08 -0.07,0 0,-0.08 -0.15,0 0,-0.08 -0.22,0 0,-0.07 -0.75,0 0,-0.08 -0.68,0 0,0.08 -0.3,0 0,-0.08 -0.3,0 0,-0.08 -0.15,0 0,-0.08 -0.07,0 0,-0.08 -0.08,0 0,-0.08 -0.07,0 0,-0.08 -0.08,0 0,-0.08 -0.15,0 0,-0.07 -0.07,0 0,-0.08 -0.07,0 0,-0.08 -0.08,0 0,-0.08 -0.15,0 0,-0.08 -0.22,0 0,-0.08 -0.08,0 0,-0.08 -0.3,0 0,-0.08 -0.07,0 0,-0.07 -0.15,0 0,-0.08 -0.75,0 0,-0.08 -0.08,0 0,0.08 -0.37,0 0,0.08 -0.23,0 0,0.07 -0.44,0 0,0.08 -0.3,0 0,0.08 -0.08,0 0,0.08 -0.15,0 0,0.08 -0.22,0 0,0.08 -0.23,0 0,0.08 -0.07,0 0,0.08 -0.38,0 0,0.07 -0.3,0 0,0.08 -0.22,0 0,0.08 -0.3,0 0,0.08 -0.08,0 0,0.16 -0.37,0 0,0.08 -0.15,0 0,0.08 -0.45,0 0,0.07 -0.15,0 0,0.08 -0.52,0 0,0.08 -0.08,0 0,0.08 -0.15,0 0,0.08 -0.82,0 0,0.08 -0.07,0 0,0.08 -0.08,0 0,0.08 -0.08,0 0,0.07 -0.07,0 0,0.16 -0.08,0 0,0.24 -0.07,0 0,0.16 -0.08,0 0,0.26 0,0.04 -0.07,0.01 0.01,0.09 -0.08,-0.01 0,0.19 0,0.04 -0.08,0.01 0,0.11 0,0.04 0,0.32 0.08,0 0,0.23 0.07,0 0,0.24 0.15,0 0,0.16 -0.08,0 0,0.16 -0.14,0 0,0.15 0.07,0 0,0.08 -0.07,0 0,0.32 -0.08,0 0,0.63 -0.07,0 0,0.23 -0.08,0 0,0.08 -0.07,0 0,0.08 -0.08,0 0,0.39 -0.07,0 0,0.24 -0.08,0 0,0.32 -0.07,0 0,0.23 -0.08,0 0,0.24 -0.07,0 0,0.39 -0.08,0 0,0.32 0.08,0 0,0.47 -0.08,0 0,0.16 -0.07,0 0,0.16 -0.08,0 0,0.07 -0.07,0 0,0.08 -0.23,0 0,0.08 -0.22,0 -0.38,0 0,0.08 -0.07,0 0,0.08 -0.07,0 0,0.08 -0.08,0 0,0.08 -0.07,0 0,0.08 -0.08,0 0,0.15 -0.08,0 0,0.16 -0.07,0 0,0.08 -0.08,0 0,0.08 -0.07,0 0,0.08 -0.08,0 0,0.08 -0.07,0 0,0.07 -0.07,0 0,0.17 0,0.23 0.07,0 0,0.08 0.07,0 0,0.08 0.15,0 0,0.07 0.15,0 -0.01,0.48 0.09,0 0,0.06 0.15,0.02 0,0.06 0.15,0.01 0,0.03 0,0.05 0.15,0 0,-0.08 0.22,0 0,0.08 0.3,0 0,-0.08 0.08,0 0.15,0 0,0.05 0,0.03 0.07,0 0.23,0 -0.01,0.1 0.16,-0.02 0,-0.08 0.15,0 0,0.08 0.15,0 0,0.08 0.07,0 0,0.08 0.15,0 0,0.08 0.08,0 0,0.08 0.14,0 0,0.15 0.08,0 0,0.08 0.07,0 0,0.16 0.08,0 0,0.16 0.15,0 0,0.16 0.15,0 0,0.15 0.07,0 0,0.08 0.08,0 0,0.08 0.08,0 0,0.16 0.07,0 0,0.16 0.07,0 0,0.23 0.15,0 0,0.16 0.08,0 0,0.08 0.07,0 0,0.16 0.15,0 0,0.07 0.08,0 0,0.16 0.15,0 0,0.08 0.15,0 0,0.08 0.15,0 0,0.16 0.07,0 0,0.16 0.3,-0.01 0,0.08 0.08,0 0,0.08 0.15,0 0,0.08 0.07,0 0,0.08 0.08,0 0,0.16 0.07,0 0,0.15 0.08,0 0,0.08 0.14,0 0,0.08 0.15,0 0,0.08 0.08,0 0,0.08 0.15,0 0,0.08 0.15,0 0,0.08 0.15,0 0,0.08 0.15,0 0,0.07 0.22,0 0,0.15 0.15,0.01 0,0.04 0,0.04 0.14,0 0.01,0.08 0.16,0 -0.01,0.08 0.23,0 0,0.08 0.22,0 0,0.07 0.23,0 0,0.08 0.3,0 0,0.08 0.3,0 0,0.08 0.14,0 0,-0.08 0.08,0 0,0.03 0,0.05 0.07,-0.02 0,-0.06 0.15,0 0,0.08 0.23,0 0,0.08 0.07,0 0,0.09 0.15,-0.01 0,0.07 0,0.09 0.16,0 -0.01,0.08 0.15,0 0,0.07 0.08,0 0,0.08 0.22,0 0,0.08 0.45,0 0,-0.08 0.53,0 0,0.08 0.07,0 0,0.24 0.08,0 0,0.16 0.22,0 0,0.07 0.22,0 0,0.08 0.08,0 0,0.08 0.07,0 0,0.08 0.15,0 0,0.08 0.08,0 0,0.08 0.07,0 0,0.08 0.15,0 0,0.08 0.08,0 0,0.07 0.07,0 0,0.16 0.08,0 0,0.08 0.15,0 0,0.08 0.15,0 0,0.16 0.07,0 0,0.08 0.15,0 0,0.11 0,0.04 0.08,0 0,0.08 0.15,0 0,0.08 0.07,0 0,-0.08 0.15,0 0,-0.08 0.23,0 0,0.08 0.07,0 0,-0.08 0.3,0 0,0.08 0.08,0 0,-0.08 0.29,0 0,-0.09 0.68,0.01 0,-0.07 0.07,0 0,-0.06 0,-0.02 0.23,0 0,-0.08 0.22,0 0,0.06 0.15,0.02 0,-0.04 0,-0.04 0.23,0.01 0,-0.09 0.15,0 0,-0.08 0.72,0 0.1,-0.02 0,0.1 0.37,0 0,-0.08 0.08,0 0,-0.08 0.15,0 0,-0.08 0.07,0 0,-0.09 0.08,0.01 0,-0.04 0,-0.03 0.07,-0.01 0,-0.07 0.15,0 0,-0.08 0.23,0 0,-0.08 0.15,0 0,-0.08 0.15,0 0,0.09 0.09,0 0.06,-0.01 0,-0.04 0,-0.12 0.3,-0.02 0,-0.06 0.12,0 0.18,0 0,-0.08 0.14,0 0.01,-0.06 0.07,-0.01 0,-0.03 0,-0.05 0.14,0 0.46,0 0,-0.08 0.07,0 0,-0.08 0.08,0 0,-0.08 0.07,0 0,-0.08 0.08,0 0,-0.08 0.07,0 0,0.08 0.08,0 0,-0.16 0.15,0 0,-0.15 0.07,0 0,-0.08 0.08,0 0,-0.16 0.07,0 0,-0.16 0.08,0 0,-0.16 0.07,0 0,-0.07 0.08,0 0,-0.16 0.07,0 0,-0.08 0.15,0 0,-0.08 -0.07,0 0,-0.08 0.07,0 0,-0.08 0.08,0 0,-0.15 0.07,0 0,-0.16 0.08,0 0,-0.08 0.07,0 0,-0.08 0.08,0 0,-0.16 0.15,0 0,-0.15 0.07,0 0,-0.08 0.08,0 0,-0.08 0.07,0 0,-0.08 0.15,0 0,-0.08 0.07,0 0,-0.08 0.08,0 0,-0.08 0.15,0 0,0.08 0.07,0 0,-0.23 0.08,0 0,-0.16 0.07,0 0,-0.16 0.15,0 0,-0.08 0.08,0 0,-0.15 0.07,0 0,-0.08 0.08,0 0,-0.08 0.15,0 0,-0.08 0.07,0 0,-0.16 0.08,0 0,-0.08 0.07,0 0,-0.08 0.15,0 0,-0.15 0.08,0 0,-0.16 0.07,0 0,-0.08 0.08,0 0,-0.08 0.07,0 0,-0.16 0.08,0 0,-0.15 0.07,0 0,-0.08 0.15,0 0,-0.08 0.08,0 0,-0.08 0.07,0 0,-0.08 0.08,0 0,-0.08 0.07,0 0,-0.08 0.15,0 0,-0.07 0.08,0 0,-0.08 0.15,0 0,-0.08 0.07,0 0,-0.08 0.08,0 0,-0.08 0.22,0 0,-0.08 0.22,0 0,-0.16 0.15,0 0,-0.07 0.15,0 0,-0.16 0.08,0 0,-0.08 0.3,0 0,-0.08 0.3,0 0,-0.08 0.67,0 0,-0.31 0.08,0 0,-0.16 0.15,0 0,-0.08 0.07,0 0,-0.39 0.08,0 0,-0.16 0.07,0 0,-0.87 0.08,0 0,-0.23 0.07,0 0,-0.32 0.08,0 0,-0.08 -0.08,0 0,-0.86 -0.07,0 0,-0.4 -0.08,0 0,-0.39 -0.07,0 0,-0.16 -0.08,0 0,-0.31 -0.07,0 0,-0.16 -0.08,0 0,-0.16 -0.07,0 0,-0.63 0.07,0 0,-0.16 -0.07,0 0,-0.08 -0.08,0 0,-0.07 -0.07,0 0,-0.24 -0.08,0 0,-0.08 -0.07,0 0,-0.08 -0.08,0 0,-0.16 -0.07,0 0,-0.23 -0.08,0 0,-0.24 -0.07,0 0,-0.16 -0.08,0 0,-0.23 -0.07,0 0,-0.32 -0.08,0 0,-0.31 -0.07,0 0,-0.16 -0.08,0 0,-0.16 -0.07,0 0,-0.07 -0.08,0 0,-0.08 -0.07,0 0,-0.08 -0.08,0 0,-0.08 -0.07,0 0,-0.08 -0.08,0 0,-0.08 -0.22,0 0,-0.08 -0.15,0 0,-0.08 -0.15,0 0,-0.08 -0.45,0 0,-0.07 -0.07,0 0,-0.08 -0.08,0 0,-0.08 -0.07,0 0,-0.08 -0.08,0 0,-0.08 -0.07,0 0,-0.08 -0.08,0 0,-0.08 -0.07,0 0,-0.08 -0.08,0 0,-0.15 -0.07,0 0,-0.32 -0.08,0 0,-0.08 -0.07,0 0,-0.15 -0.08,0 0,-0.08 -0.07,0 0,-0.08 -0.08,0 0,-0.08 -0.07,0 0,-0.08 -0.08,0 0,-0.08 -0.07,0 0,-0.08 -0.08,0 0,-0.15 -0.07,0 0,-0.08 -0.08,0 0,-0.08 -0.07,0 0,-0.08 -0.08,0 0,-0.08 -0.07,0 0,-0.08 -0.08,0 0,-0.16 -0.07,0 0,-0.07 -0.08,0 0,-0.08 z m -23.73,-11.11 -0.02,0 -0.28,0 0,0.08 -0.15,0 0,0.08 -0.07,0 0,0.15 -0.15,0 0,0.16 -0.08,0 0,0.44 0,0.11 0.08,0 0,0.08 0.07,0 0,0.08 0.9,0 0,0.08 0.23,0 0,-0.08 0.07,0 0,-0.08 0.08,0 0,-0.39 -0.08,0 0,-0.24 -0.07,0 0,-0.16 -0.08,0 0,-0.08 -0.07,0 0,-0.07 -0.15,0 0,-0.08 -0.15,0 -0.08,0 0,-0.08 z" 
                fill="rgb(151, 144, 238)" 
                stroke="white" 
                stroke-width=".7px"
                title="Mayagüez" 
                id="PR-MG2" 
            />
        </svg>