<svg xmlns="http://www.w3.org/2000/svg" viewBox="124.88000000000001 35.83 126.75000000000018 68.13999999999967" width="126.75000000000018" height="68.13999999999967">
            <path 
                d="m 216.24,69.42 -3.12,-0.5 -0.25,0.27 -0.49,0.41 -0.62,0.28 -2.12,0.57 -2.11,0.16 -1.95,0.32 0,0.15 0.07,0 0,0.08 0.08,0 0,0.08 0.07,0 0,0.08 0.15,0 0,0.08 0.08,0 0,0.08 0.07,0 0,0.08 0.08,0 0,0.07 0.07,0 0,0.16 0.08,0 0,0.08 0.07,0 0,0.08 0.08,0 0,0.08 0.07,0 0,0.16 0.08,0 0,0.15 0.07,0 0,0.08 0.15,0 0,0.08 0.08,0 0,0.16 0.07,0 0,0.24 0.08,0 0,0.07 0.07,0 0,0.08 0.08,0 0,0.08 0.07,0 0,0.08 0.08,0 0,0.08 0.07,0 0,0.16 0.07,0 0,0.08 0.08,0 0,0.15 0.15,0 0,0.16 0.07,0 0,0.08 0.08,0 0,0.16 0.15,0 0,0.23 0.07,0 0,0.16 0.08,0 0,0.16 0.07,0 0,0.24 0.08,0 0,0.15 0.07,0 0,0.08 0.15,0 0,0.16 0.08,0 0,0.08 0.07,0 0,0.08 0.08,0 0,0.16 0.07,0 0,0.07 0.08,0 0,0.16 0.07,0 0,0.08 0.08,0 0,0.24 0.07,0 0,0.31 0.08,0 0,0.32 0.07,0 0,0.16 0.08,0 0,0.07 0.07,0 0,0.32 0.08,0 0,0.24 0.07,0 0,0.31 0.08,0 0,0.63 0.07,0 0,0.55 -0.07,0 0,0.56 0.07,0 0,1.26 -0.07,0 0,0.16 0.07,0 0,0.78 -0.15,0 0,0.4 0.08,0 0,0.15 0.07,0 0,0.08 0.15,0 0,0.08 0.08,0 0,0.16 0.07,0 0,0.16 0.15,0 0,0.08 0.15,0 0,0.08 0.07,0 0,0.15 0.08,0 0,0.08 0.15,0 0,0.47 0.15,0 0,0.08 0.22,0 0,0.08 0.08,0 0,0.16 0.07,0 0,0.08 0.15,0 0,0.08 0.08,0 0,0.08 0.3,0 0,0.07 0.15,0 0,0.08 0.15,0 0,0.08 0.07,0 0,0.08 0.08,0 0,-0.08 0.37,0 0,0.08 0.08,0 0,0.08 0.45,0 0,0.08 0.14,0 0,0.08 0.08,0 0,0.16 0.22,0 0,-0.08 0.3,0 0,0.15 0.08,0 0,0.56 -0.08,0 0,0.15 -0.07,0 0,0.08 -0.08,0 0,0.08 -0.07,0 0,0.16 -0.08,0 0,0.24 0.08,0 0,0.15 0.15,0 0,0.08 0.15,0 0,-0.08 0.07,0 0,0.08 0.23,0 0,0.08 0.3,0 0,0.08 0.15,0 0,0.16 0.07,0 0,0.39 0.08,0 0,0.16 0.07,0 0,0.16 0.08,0 0,0.08 0.07,0 0,0.15 0.08,0 0,0.4 0.07,0 0,0.31 0.08,0 0,0.08 -0.08,0 0,0.08 0.08,0 0,0.24 -0.08,0 0,0.07 0.08,0 0,0.08 -0.08,0 0,0.24 -0.07,0 0,0.63 -0.08,0 0,0.24 -0.07,0 0,0.23 -0.08,0 0,0.08 0.08,0 0,0.08 -0.08,0 0,0.16 -0.07,0 0,0.16 -0.08,0 0,0.08 -0.07,0 0,0.15 -0.08,0 0,0.08 -0.07,0 0,0.16 -0.08,0 0,0.16 -0.07,0 0,0.08 -0.08,0 0,0.15 -0.07,0 0,0.08 -0.15,0 0,0.16 -0.08,0 0,0.08 -0.07,0 0,0.16 -0.08,0 0,0.08 -0.15,0 0,0.15 -0.15,0 0,0.08 -0.15,0 0,0.08 -0.07,0 0,0.08 -0.08,0 0,0.08 -0.14,0 0,0.08 -0.15,0 0,0.08 -0.08,0 0,0.07 -0.15,0 0,0.08 -0.15,0 0,0.08 -0.07,0 0,0.08 -0.15,0 0,0.08 -0.15,0 0,0.08 -0.15,0 0,0.08 -0.08,0 0,0.08 -0.22,0 0,0.07 -0.08,0 0,0.16 -0.07,0 0,0.08 -0.08,0 0,0.16 -0.15,0 0,0.08 -0.07,0 0,0.08 -0.08,0 0,0.07 -0.07,0 0,0.08 -0.08,0 0,0.08 -0.07,0 0,0.08 -0.08,0 0,0.08 -0.07,0 0,0.08 -0.08,0 0,0.08 -0.07,0 0,0.16 -0.08,0 0,0.07 -0.07,0 0,0.08 -0.08,0 0,0.24 -0.07,0 0,0.08 -0.07,0 0,0.08 -0.08,0 0,0.08 -0.07,0 0,0.15 -0.08,0 0,0.08 -0.07,0 0,0.16 -0.08,0 0,0.16 -0.07,0 0,0.08 -0.15,0 0,0.07 -0.08,0 0,0.08 -0.07,0 0,0.16 -0.08,0 0,0.16 -0.07,0 0,0.08 -0.08,0 0,0.08 -0.07,0 0,0.07 -0.08,0 0,0.08 0.08,0 0,0.08 -0.08,0 0,0.08 -0.15,0 0,0.24 -0.07,0 0,0.23 -0.23,0 0,0.16 -0.07,0 0,0.16 -0.23,0 0,0.08 -0.15,0 0,0.23 -0.07,0 0,0.08 -0.08,0 0,0.08 -0.07,0 0,0.16 -0.08,0 0,0.08 -0.07,0 0,0.08 -0.13,0 0.96,1.02 0.63,0.26 0.5,0.54 0.51,0.8 1.13,1.07 0.87,0.12 1.13,0.53 0.49,-0.82 3.98,0.08 1.13,0.53 0.5,0.53 1.11,-0.96 0.37,-0.27 0.62,-0.55 0.87,-0.01 0.63,0.12 0.75,0.53 0.62,-0.54 0.99,-0.42 0.99,-0.02 0.63,-0.14 0.37,0.13 1,0.39 0.63,0.13 0.99,-0.28 2.14,2 0.25,0.13 0.75,0.4 -0.26,-1.08 -0.01,-0.54 0.36,-1.76 0.36,-0.82 0.61,-0.95 0.13,-0.01 2.35,-1.38 0.25,0 2.98,-0.31 0.13,0 2.37,-0.03 1.36,-0.69 0.25,0 0.62,-0.28 0.74,-0.28 1.11,-1.23 0.49,-0.82 2.99,0.24 1.12,-0.56 0.37,-0.41 -0.52,-2.02 0.35,-2.31 -3.88,-1.3 0.1,-2.85 -0.88,-0.39 -0.25,-0.13 -2.38,-1.33 -1.12,-0.8 -0.26,-0.54 -0.14,-1.08 0,-0.4 -1.28,-3.1 -0.37,-0.13 -1.25,0.29 -3.12,-0.78 -0.5,-0.26 -1.14,-1.34 -0.5,-0.4 -1.35,1.64 -0.5,-0.13 -0.88,0.01 -1,-0.39 -1.25,-0.53 -1.62,-0.11 -1.48,1.37 -3.1,1.53 -3.63,-1.17 0.33,-4.07 0.24,-0.95 -4.01,-1.97 z m -89.72,-33.59 -0.67,0 0,0.08 -0.08,0 0,0.08 -0.15,0 0,0.71 -0.07,0 0,0.08 -0.08,0 0,0.08 -0.22,0 0,0.07 -0.15,0 0,0.08 -0.15,0 0,0.08 -0.07,0 0,0.55 0.15,0 0,0.16 0.07,0 0,0.16 0.15,0 0,0.08 0.07,0 0,0.08 0.08,0 0,0.16 0.07,0 0,0.15 0.08,0 0,0.08 0.07,0 0,0.08 0.3,0 0,0.08 0.23,0 0,0.08 0.15,0 0,0.08 0.22,0 0,0.08 0.08,0 0,0.08 0.15,0 0,0.08 0.15,0 0,0.15 0.3,0 0,0.16 0.52,0 0,-0.16 0.3,0 0,-0.08 0.08,0 0,-0.07 0.07,0 0,-0.48 0.22,0 0,-0.08 0.08,0 0,-0.08 0.07,0 0,-0.08 0.08,0 0,-0.07 0.15,0 0,-0.08 0.07,0 0,-0.08 0.08,0 0,-0.08 0.07,0 0,-0.08 0.23,0 0,-0.24 0.07,0 0,-0.23 -0.22,0 0,-0.08 -0.3,0 0,-0.08 -0.23,0 0,-0.16 -0.07,0 0,-0.08 -0.08,0 0,-0.08 -0.07,0 0,-0.08 -0.08,0 0,-0.07 -0.07,0 0,-0.16 -0.07,0 0,-0.08 -0.08,0 0,-0.08 -0.07,0 0,-0.08 -0.15,0 0,-0.16 -0.15,0 0,-0.15 -0.08,0 0,-0.08 -0.22,0 0,-0.08 -0.08,0 0,-0.08 -0.75,0 0,-0.08 z" 
                fill="rgb(151, 144, 238)" 
                stroke="white" 
                stroke-width=".7px"
                title="Mayagüez" 
                id="PR-MG" 
            />
        </svg>