<svg xmlns="http://www.w3.org/2000/svg" viewBox="220.2399999999999 15.64 28.940000000000083 43.84000000000002" width="28.940000000000083" height="43.84000000000002">
            <path 
                d="m 242.79,20.5 -0.38,-1.08 -0.39,-1.48 -0.65,-2.3 -4.86,1.28 0.01,1.35 -0.61,1.23 -0.12,0.41 -1.74,0.29 -1.48,1.64 -0.38,0.28 -0.74,0.41 -0.75,0.01 -0.75,-0.26 -3.58,3.97 -2.1,2.33 -1.6,1.64 0.25,0.54 0.26,0.81 0.01,0.41 -0.86,1.77 -1.47,2.18 0.42,3.92 1.01,1.2 -0.35,2.17 0.26,1.08 -0.24,1.5 -0.85,1.63 -0.74,0.55 -0.13,0.14 0.14,0.67 0.12,0.27 0.65,1.89 -0.86,1.77 1.16,3.23 0,0.27 0.13,-0.14 0.87,-0.14 1.36,-1.37 2.5,1.05 2.88,0.5 4,0.76 2.37,0.79 2.25,0.1 1.62,0.26 2.64,1.32 0.25,0.13 3.07,-4.23 1.11,-1.37 0.24,-0.81 -0.14,-1.22 -0.75,-1.07 -0.89,-1.08 -1.15,-2.55 -0.13,-0.81 -0.13,-0.27 1.49,-0.7 0.12,-0.27 0.12,-0.41 0.61,-1.9 0.12,-0.54 0,-0.13 -0.01,-0.82 0.24,-0.54 0,-0.14 0.24,-1.35 1.22,-2.32 1.48,-2.18 -6.39,-14.27 z" 
                fill="rgb(151, 144, 238)" 
                stroke="white" 
                stroke-width=".7px"
                title="Moca" 
                id="PR-MC" 
            />
        </svg>