<svg xmlns="http://www.w3.org/2000/svg" viewBox="400.71999999999986 39.23 26.88000000000011 34.529999999999994" width="26.88000000000011" height="34.529999999999994">
            <path 
                d="m 414.21,40.85 -0.25,-0.27 -0.38,-0.4 0.12,-0.81 -0.37,-0.14 -0.88,0.01 -0.74,0.54 -1,1.36 -0.24,0.14 -4.13,-0.12 -5.11,-0.11 -0.36,2.98 -0.12,2.44 0.26,0.81 0.12,0.4 0.63,1.08 1.76,3.24 0.14,1.35 -0.11,4.33 -0.11,3.12 0,0.4 0,0.14 -0.37,0 -0.25,0 -1.13,0.14 -0.97,4.61 0.12,0.13 0.88,0.68 0.25,0.54 0,0.27 -0.25,0.27 0.51,2.03 0.39,2.43 -0.25,0.27 0.25,0.54 0.62,0.13 0.13,0 2.86,-0.01 1.88,0.39 0.25,-0.13 1.74,-0.96 0.49,-0.14 0.63,-0.13 3.73,-0.56 0.88,-0.14 0.99,-0.68 1.74,-0.82 2.12,-1.37 0.62,-0.95 0.61,-2.03 0.62,-1.76 0.62,-0.55 1,-0.54 0.62,-1.09 0.62,-0.95 0.12,-0.27 0.12,-1.89 0.12,-0.41 0.99,-3.25 0.73,-2.84 0.13,-0.41 -0.13,-0.14 -1.25,-0.94 -0.25,-0.27 0,-0.67 -1.63,-1.08 -0.49,0.41 -0.63,0.14 -1.25,-0.67 -0.25,-0.81 -0.5,-1.63 -0.01,-2.43 0,-0.27 -0.51,-0.95 -0.12,-0.13 -1.13,-1.49 -1.49,2.31 -1.12,-0.67 -2.63,-1.75 z" 
                fill="rgb(151, 144, 238)" 
                stroke="white" 
                stroke-width=".7px"
                title="Morovis" 
                id="PR-MV" 
            />
        </svg>