<svg xmlns="http://www.w3.org/2000/svg" viewBox="571.48 62.30000000000002 46.7300000000032 34.71000000000006" width="46.7300000000032" height="34.71000000000006">
            <path 
                d="m 613.21,91.18 -0.22,0 0,0.08 -0.08,0 0,0.16 -0.07,0 0,0.31 0.07,0 0,0.16 0.08,0 0,0.08 0.07,0 0,0.08 0.6,0 0,-0.47 -0.37,0 0,-0.16 -0.08,0 0,-0.24 z m -28.35,-26.57 -0.25,-0.68 -0.62,-0.94 -1,-0.01 -1.24,-0.68 -0.38,1.49 -1.5,0.4 -1.37,0.54 -0.5,-0.27 -1.12,-0.27 -0.12,0 -0.51,0.94 -0.62,0.95 -0.88,1.08 -1.37,1.89 0.12,1.08 1.13,0.41 0.62,0.81 0.49,0.68 -0.5,2.84 -1,1.62 -1.88,4.33 -0.25,0.95 -0.38,2.7 -0.25,1.22 1.49,3.93 1.75,-1.49 3.36,0.14 1.87,0.68 2,-1.21 8.71,3.27 -0.63,1.49 -1,2.29 3.11,1.36 0.13,0.01 0.74,0.27 0.88,-0.95 1.99,-0.67 0.12,0.27 0.33,1.93 0.04,0 0,-0.08 0.07,0 0,-0.15 0.08,0 0,-0.24 0.07,0 0,-0.16 0.08,0 0,-0.16 0.22,0 0,-0.07 0.07,0 0,-0.08 0.08,0 0,-0.08 0.07,0 0,-0.16 0.08,0 0,-0.16 0.07,0 0,-0.08 0.08,0 0,-0.15 0.07,0 0,-0.08 0.08,0 0,-0.08 0.07,0 0,-0.16 0.08,0 0,-0.08 0.07,0 0,-0.08 0.15,0 0,-0.07 0.15,0 0,-0.08 0.08,0 0,-0.08 0.07,0 0,-0.08 0.15,0 0,-0.08 0.08,0 0,-0.08 0.15,0 0,-0.08 0.07,0 0,-0.08 0.08,0 0,-0.08 0.07,0 0,-0.07 0.08,0 0,-0.16 0.07,0 0,-0.08 0.07,0 0,-0.08 0.08,0 0,-0.08 0.07,0 0,-0.08 0.08,0 0,-0.08 0.23,0 0,-0.07 0.15,0 0,-0.08 0.15,0 0,-0.08 0.14,0 0,-0.08 0.08,0 0,-0.16 0.07,0 0,-0.08 0.23,0 0,-0.08 0.3,0 0,-0.07 0.07,0 0,-0.08 0.38,0 0,-0.08 0.45,0 0,-0.08 0.82,0 0,0.08 0.07,0 0,0.08 0.08,0 0,0.08 0.52,0 0,-0.08 0.08,0 0,-0.08 0.45,0 0,0.08 0.07,0 0,0.08 0.08,0 0,0.07 0.07,0 0,0.24 0.08,0 0,0.39 0.07,0 0,0.08 0.08,0 0,0.24 0.07,0 0,0.08 0.08,0 0,0.08 0.15,0 0,0.08 0.07,0 0,0.07 0.08,0 0,0.16 0.07,0 0,0.24 0.08,0 0,0.08 0.15,0 0,0.08 0.22,0 0,-0.24 -0.08,0 0,-0.24 0.08,0 0,-0.08 0.15,0 0,-0.07 0.22,0 0,0.07 0.15,0 0,0.08 0.15,0 0,0.16 0.53,0 0,-0.16 0.15,0 0,0.16 0.07,0 0,0.32 0.15,0 0,0.23 0.53,0 0,-0.15 0.07,0 0,-0.16 0.08,0 0,-0.24 0.07,0 0,-0.16 0.08,0 0,-0.08 0.15,0 0,0.08 0.07,0 0,0.08 0.15,0 0,0.08 0.07,0 0,0.79 0.08,0 0,0.08 0.07,0 0,0.08 0.08,0 0,0.08 0.07,0 0,0.07 0.08,0 0,0.08 0.07,0 0,0.08 0.08,0 0,0.08 0.07,0 0,0.08 0.9,0 0,-0.08 0.15,0 0,-0.31 -0.07,0 0,-0.24 -0.08,0 0,-0.16 -0.07,0 0,-0.47 -0.08,0 0,-0.08 -0.07,0 0,-0.08 -0.08,0 0,-0.08 -0.07,0 0,-0.08 -0.08,0 0,-0.08 -0.15,0 0,-0.07 -0.07,0 0,-0.32 0.07,0 0,-0.24 -0.07,0 0,-0.07 -0.15,0 0,-0.08 -0.08,0 0,-0.16 -0.07,0 0,-0.16 0.15,0 0,-0.08 0.15,0 0,-0.08 0.15,0 0,-0.07 0.07,0 0,-0.32 -0.15,0 0,-0.08 0.08,0 0,-0.16 0.07,0 0,-0.07 0.08,0 0,-0.08 0.07,0 0,-0.08 0.08,0 0,-0.08 0.07,0 0,-0.08 0.08,0 0,-0.16 0.07,0 0,-0.23 0.08,0 0,-0.08 0.07,0 0,-0.24 0.08,0 0,-0.08 0.07,0 0,-0.08 0.08,0 0,-0.15 0.07,0 0,-0.08 0.15,0 0,-0.08 0.23,0 0,-0.08 0.15,0 0,-0.08 0.15,0 0,-0.16 0.29,0 0,-0.08 0.3,0 0,-0.07 0.23,0 0,-0.08 0.15,0 0,-0.08 0.3,0 0,-0.08 0.45,0 0,0.08 0.3,0 0,0.23 0.07,0 0,0.16 0.23,0 0,-0.16 0.07,0 0,-0.15 0.08,0 0,-0.08 0.15,0 0,-0.16 0.07,0 0,-0.08 0.08,0 0,-0.08 0.07,0 0,-0.08 0.37,0 0,-0.15 0.08,0 0,-0.08 0.3,0 0,0.08 0.15,0 0,0.07 0.07,0 0,0.08 0.23,0 0,0.08 0.3,0 0,-0.16 0.07,0 0,-0.07 0.15,0 0,-0.16 0.23,0 0,-0.08 0.15,0 0,-0.08 0.07,0 0,-0.16 0.07,0 0,-0.39 0.23,0 0,-0.08 0.08,0 0,-0.08 0.07,0 0,-0.08 0.15,0 0,-0.08 0.07,0 0,-0.15 0.08,0 0,-0.08 0.15,0 0,-0.08 0.07,0 0,-0.08 0.08,0 0,-0.16 0.07,0 0,-0.08 0.23,0 0,-0.08 0.3,0 0,0.08 0.22,0 0,0.16 0.3,0 0,-0.08 0.1,0 -0.32,-0.83 -0.87,-1.22 0,-0.27 0.75,-0.41 0.37,-0.4 0.63,-1.22 0,-0.13 -0.12,-0.68 -1,-0.14 -0.5,0.14 -0.37,0.4 -0.5,0 -0.63,0.13 -0.62,-0.27 -1.12,-0.41 -1.12,-0.41 -0.12,-0.14 -1.37,-0.81 -0.74,-0.41 -0.13,-1.35 -0.74,-0.28 -0.37,-0.27 0.37,-0.54 0.5,-0.68 0.88,-1.07 0.74,-0.27 0.25,-0.68 0.01,-0.81 -0.38,-0.27 -0.24,-0.14 -1,0.67 -1.25,0.14 -0.37,-1.09 -0.25,-0.13 -0.5,-0.41 -0.74,0 -0.5,-0.68 -0.12,-0.14 -0.76,0.81 -0.12,0.14 -0.5,0.13 -1.12,0.13 -1.12,-0.68 -0.13,0 -0.87,0 -0.5,0.13 0,0.27 0,0.68 0.12,0.27 0,0.14 -0.24,0.13 -2.12,-0.28 -0.63,-0.27 -0.87,-0.68 -0.62,-0.68 -0.37,-0.54 -0.62,-0.14 -2.12,-0.41 -0.75,-0.27 -0.5,-0.41 -0.62,-0.68 -1.61,-1.09 -0.25,-1.21 -0.38,-0.68 -0.12,-0.27 -0.5,-0.27 -1.12,-0.28 -0.87,-0.27 -1.37,-1.22 -0.62,-0.68 z" 
                fill="rgb(151, 144, 238)" 
                stroke="white" 
                stroke-width=".7px"
                title="Naguabo" 
                id="PR-NG" 
            />
        </svg>