<svg xmlns="http://www.w3.org/2000/svg" viewBox="441.6399999999999 51.76 29.000000000000114 26.32" width="29.000000000000114" height="26.32">
            <path 
                d="m 468.39,54.32 -0.63,-2.29 -0.25,-0.27 -1.12,0.27 -1.12,0.81 -1.37,1.5 -0.62,0.27 -0.25,0 0,-0.14 -1.13,-2.16 -0.12,-0.27 -0.25,0 -1.63,0.28 -0.24,0.13 0,0.14 -0.62,1.35 -1.13,-0.67 -1.62,-1.08 -1.12,0.68 -2.25,0.28 -0.5,-0.13 -1.12,-0.14 -0.25,0.01 -1.85,7.31 -0.37,2.98 -0.23,5.82 -1.73,3.52 -3.36,2.31 -0.62,0.41 -1.25,0.54 1.63,2.16 0.12,0.14 2.87,-1.36 1.12,0.13 0.12,0 3.12,0.53 3.61,-0.55 1,-0.28 1.99,-0.27 1.99,-0.28 0.88,-0.27 0.74,-1.49 1.87,-0.15 1.74,0.41 0.13,-0.14 0.12,-0.14 1.12,-2.84 0.99,-2.3 0.12,-0.41 0.38,-0.13 3.11,-0.55 -0.5,-1.49 -0.25,-0.81 -0.63,-2.03 0,-0.13 -0.5,-3.66 0,-0.13 0,-0.27 0.12,-0.14 1.12,0.13 0.63,0 0.12,0 0.12,-2.84 -0.5,-2.03 -1.5,0.01 -0.25,-0.28 z" 
                fill="rgb(151, 144, 238)" 
                stroke="white" 
                stroke-width=".7px"
                title="Naranjito" 
                id="PR-NR" 
            />
        </svg>