<svg xmlns="http://www.w3.org/2000/svg" viewBox="378.59999999999974 63.00000000000002 52.99000000000024 41.63" width="52.99000000000024" height="41.63">
            <path 
                d="m 428.42,73.54 -0.5,-0.68 -2.13,-2.83 -1.12,-1.08 -0.25,-0.13 -1.5,-0.13 -0.12,-0.27 0.12,-1.22 0.49,-0.81 0.12,-0.41 0.5,-0.27 0.25,-0.41 -0.13,-2.17 0,-0.13 -1,0.54 -0.62,0.55 -0.62,1.76 -0.61,2.03 -0.62,0.95 -2.12,1.37 -1.74,0.82 -0.99,0.68 -0.88,0.14 -3.73,0.56 -0.63,0.13 -0.49,0.14 -1.74,0.96 -0.25,0.13 -1.88,-0.39 -2.86,0.01 -0.13,0 0.26,1.08 0,0.54 0.13,0.27 -2.62,1.1 -0.37,0.14 -0.37,0.14 -0.75,0 -1.25,-0.54 -1,-0.8 -1.37,-0.54 -0.88,-0.13 -1.61,0.15 -0.13,0 -1.25,0.14 -0.12,-0.27 -0.88,-1.08 -0.12,0.14 -1.86,2.18 -1.11,1.76 0.12,0 0.63,1.08 0.63,1.08 -0.62,1.49 -1,-0.13 -1.24,0.01 0,0.13 0.13,0.68 0.12,0.95 0.51,2.16 0.76,1.48 0.27,3.38 0,0.27 -0.87,1.77 0.9,3.91 0.12,0.27 -0.36,2.85 0,0.13 -0.25,0.27 -1.86,0.56 -0.87,0.68 -1.61,1.23 -2.5,-0.94 -1.12,-0.66 -0.13,-0.14 -1.1,2.58 0,0.27 1.5,1.61 1.24,-0.82 1.74,-0.68 0.38,-0.01 1.86,0.26 2.24,-1.09 0.74,-0.95 0.13,-0.28 1.24,-1.08 0.37,-0.14 0.87,-0.01 0.5,-0.13 0.74,-0.55 2.24,0.12 2.99,-0.96 1.11,-0.68 0.62,-1.5 0.12,-0.13 0.38,0 2.12,0.26 0.74,-0.01 1.25,-0.41 0.37,0 2.12,0.53 1.25,0.13 1.12,0.13 3.24,1.06 0.25,0.14 0.25,0.4 0,0.54 0.25,0.54 0.75,0.4 1.25,0.4 1,0.14 1.11,-0.82 1.25,0.26 1.49,-0.14 1,-0.27 0.74,-1.63 2.99,-0.15 0.87,-0.68 0.49,-0.14 1.49,-2.84 -0.01,-2.44 0,-0.81 0.99,-1.09 1,0.4 0,0.14 0.37,0.4 0.76,1.35 0,0.14 0.99,-0.55 0.12,0 0.37,-3.25 -0.26,-3.38 0,-0.27 -0.01,-1.89 0.12,-0.14 0.13,-0.67 -0.26,-1.09 0.12,-2.7 -0.25,-0.27 -1.62,-1.21 -1.14,-2.97 z" 
                fill="rgb(151, 144, 238)" 
                stroke="white" 
                stroke-width=".7px"
                title="Orocovis" 
                id="PR-OR" 
            />
        </svg>