<svg xmlns="http://www.w3.org/2000/svg" viewBox="502.0099999999999 115.14 48.49000000000217 40.46000000000022" width="48.49000000000217" height="40.46000000000022">
            <path 
                d="m 515.93,117.17 -1.37,-0.27 -0.49,-0.27 -1.12,-0.68 -0.63,-0.54 -0.12,-0.27 -0.5,0.81 -1.99,2.58 0.13,0.81 0,0.67 0,0.68 -0.13,0.41 -0.49,0.67 -0.38,0.54 -0.49,0.82 -0.62,0.94 -1.87,0.95 -1.37,0.14 -0.37,0.4 0.5,0.95 -0.13,1.22 -0.25,0.54 -1.24,0.14 -0.99,2.03 0.99,2.3 -0.49,1.35 0,0.27 0.37,1.62 0.13,0.27 0.87,0.95 0.74,-0.68 1,-0.68 4.85,-0.95 0.24,0.14 2.37,1.35 1.12,1.62 0.25,1.09 0.12,1.08 0,0.54 0.25,0.81 -1.49,2.3 0.75,0.81 1.37,0.81 0.99,1.49 2.11,1.08 0.38,0.41 0.62,0.81 0.12,1.35 0.25,0.68 0.13,0.13 0.62,1.08 0.02,0.14 0.06,0 0,-0.08 0.23,0 0,-0.08 0.22,0 0,-0.08 0.9,0 0,-0.07 0.3,0 0,0.07 0.08,0 0,-0.07 0.14,0 0,-0.08 0.53,0 0,-0.08 0.07,0 0,-0.08 0.38,0 0,-0.08 0.07,0 0,-0.08 0.45,0 0,0.08 0.08,0 0,0.08 0.07,0 0,0.31 0.15,0 0,0.08 0.08,0 0,0.08 0.07,0 0,0.08 0.15,0 0,0.08 0.15,0 0,0.08 0.15,0 0,-0.08 0.15,0 0,-0.08 0.45,0 0,-0.08 0.37,0 0.08,0 0,-0.08 0.15,0 0,-0.08 0.07,0 0,0.08 0.68,0 0,0.08 0.3,0 0,-0.08 0.3,0 0,0.08 0.15,0 0,0.08 0.15,0 0,0.08 0.22,0 0,0.08 0.15,0 0,0.16 0.07,0 0,0.07 0.08,0 0,0.16 0.07,0 0,0.08 0.15,0 0,0.08 0.08,0 0,0.08 0.07,0 0,0.08 0.08,0 0,0.07 0.07,0 0,0.08 0.15,0 0,0.08 0.15,0 0,0.08 0.08,0 0,0.08 0.07,0 0,0.08 0.08,0 0,0.08 0.07,0 0,0.08 0.08,0 0,0.07 0.15,0 0,0.08 0.07,0 0,0.08 0.15,0 0,0.16 0.08,0 0,0.16 0.07,0 0,0.23 0.15,0 0,0.08 0.08,0 0,0.08 0.07,0 0,0.16 0.15,0 0,0.08 0.07,0 0,0.08 0.31,0 0,0.07 0.15,0 0,0.08 0.14,0 0,0.08 0.38,0 0,-0.08 0.45,0 0,0.08 0.15,0 0,-0.08 0.07,0 0,-0.08 0.08,0 0,-0.07 0.07,0 0,-0.08 0.08,0 0,-0.08 0.07,0 0,-0.16 0.08,0 0,-0.08 0.07,0 0,-0.16 0.08,0 0,-0.07 0.07,0 0,-0.08 0.08,0 0,-0.08 0.07,0 0,-0.08 0.22,0 0,-0.08 0.08,0 0,-0.08 0.08,0 0,-0.08 0.07,0 0,-0.08 0.07,0 0,-0.07 0.08,0 0,-0.08 0.15,0 0,-0.08 0.15,0 0,-0.08 0.15,0 0,-0.08 0.22,0 0,-0.16 0.3,0 0,0.08 0.08,0 0,0.08 0.15,0 0,0.16 0.07,0 0,0.08 0.75,0 0,-0.08 0.45,0 0,0.08 0.07,0 0,0.08 0.08,0 0,0.07 0.07,0 0,0.08 0.08,0 0,0.08 0.15,0 0,0.08 0.15,0 0,0.08 0.15,0 0,0.08 0.15,0 0,0.08 0.37,0 0,0.08 0.08,0 0,0.07 0.97,0 0,-0.07 0.08,0 0,-0.08 0.22,0 0,-0.08 0.15,0 0,-0.08 0.67,0 0,-0.08 0.15,0 0,-0.08 0.3,0 0,-0.08 0.45,0 0,-0.08 0.3,0 0,-0.07 0.68,0 0,0.07 0.07,0 0,0.08 0.15,0 0,0.08 0.08,0 0,0.08 0.97,0 0,-0.08 0.07,0 0,-0.08 0.3,0 0,-0.08 0.08,0 0,-0.07 0.07,0 0,-0.16 0.08,0 0,-0.16 0.15,0 0,-0.08 0.07,0 0,-0.08 0.08,0 0,-0.08 0.15,0 0,-0.07 0.07,0 0,-0.08 0.08,0 0,-0.08 0.15,0 0,-0.08 0.15,0 0,-0.08 0.15,0 0,-0.08 0.22,0 0,-0.08 0.9,0 0,0.08 0.15,0 0,0.08 0.75,0 0,0.08 0.07,0 0,0.08 0.08,0 0,0.08 0.29,0 0,0.08 0.08,0 0,0.07 1.35,0 0,-0.15 0.15,0 0,-0.08 0.15,0 0,-0.08 0.67,0 0,-0.08 0.15,0 0,-0.08 0.08,0 0,-0.15 0.07,0 0,-0.08 0.08,0 0,-0.08 0.14,0 0,-0.08 0.08,0 0,-0.08 0.07,0 0,-0.16 0.08,0 0,-0.08 0.07,0 0,-0.07 0.16,0 0,-0.08 0.07,0 0,-0.08 0.08,0 0,-0.08 0.14,0 0,-0.08 0.03,0 0,-0.04 -1,-1.21 -0.49,0 -0.75,-0.28 -0.74,0.27 -1.5,-0.27 -0.49,-0.4 -1.87,-0.82 -1.99,-0.54 -0.37,-0.14 -2.48,-3.92 -0.25,-0.13 -0.37,-1.9 0,-0.81 0,-0.41 0.62,-1.48 -1.99,-1.49 -0.87,-0.14 -0.62,0.14 -1.25,1.08 -0.37,0 -0.12,0 -0.13,-0.27 -2.48,-2.71 -1.12,-2.97 -0.5,-2.44 -0.25,-1.35 -2.74,-0.41 -3.23,-2.16 0,-0.27 0.13,-0.81 -0.01,-1.09 -2.11,-1.75 -0.37,-0.55 0.12,-0.4 1.37,-2.17 0.37,-0.27 0,-0.81 -1.86,-1.89 -0.75,0.13 -1.37,0.27 -1,-0.13 -0.62,0 -1.12,-0.27 z" 
                fill="rgb(151, 144, 238)" 
                stroke="white" 
                stroke-width=".7px"
                title="Patillas" 
                id="PR-PT" 
            />
        </svg>