<svg xmlns="http://www.w3.org/2000/svg" viewBox="318.5999999999999 108.20000000000002 24.639999999999134 48.27000000000007" width="24.639999999999134" height="48.27000000000007">
            <path 
                d="m 323.26,155.68 -0.3,0 0,0.08 -0.22,0 0,0.08 -0.15,0 0,0.23 0.15,0 0,0.08 0.22,0 0,0.08 0.16,0 0,0.08 0.07,0 0,0.08 0.07,0 0,0.08 0.68,0 0,-0.08 0.15,0 0,-0.08 0.07,0 0,-0.32 -0.07,0 0,-0.07 -0.08,0 0,-0.08 -0.3,0 0,-0.08 -0.45,0 0,-0.08 z m 5.62,-1.42 -0.38,0 0,0.08 -0.15,0 0,0.08 -0.07,0 0,0.08 -0.07,0 0,0.16 0.07,0 0,0.47 -0.07,0 0,0.16 -0.08,0 0,0.31 0.08,0 0,0.08 0.07,0 0,0.08 0.22,0 0,0.08 0.3,0 0,0.08 0.08,0 0,-0.08 0.07,0 0,-0.08 0.08,0 0,-0.08 -0.08,0 0,-0.31 -0.07,0 0,-0.24 0.07,0 0,-0.08 0.08,0 0,-0.47 0.07,0 0,-0.08 -0.07,0 0,-0.16 -0.15,0 0,-0.08 z m -4.79,-1.18 -0.08,0 0,0.08 -0.15,0 0,0.08 -0.15,0 0,0.16 -0.07,0 0,0.39 0.15,0 0,0.08 0.37,0 0,0.08 0.15,0 0,0.08 0.08,0 0,0.08 0.37,0 0,0.07 0.3,0 0,0.08 0.08,0 0,0.08 0.29,0 0,-0.08 0.08,0 0,-0.08 0.07,0 0,-0.07 0.08,0 0,-0.08 -0.08,0 0,-0.08 -0.07,0 0,-0.08 -0.15,0 0,-0.08 -0.07,0 0,-0.08 -0.08,0 0,-0.08 -0.15,0 0,-0.08 -0.07,0 0,-0.07 -0.6,0 0,-0.08 -0.08,0 0,-0.08 -0.07,0 0,-0.16 -0.15,0 0,-0.08 z m 8.91,-1.1 -0.45,0 0,0.08 -0.08,0 0,0.08 -0.07,0 0,0.47 -0.08,0 0,0.16 0.08,0 0,0.08 0.3,0 0,-0.08 0.15,0 0,-0.08 0.22,0 0,-0.16 0.08,0 0,-0.47 -0.15,0 0,-0.08 z m -5.47,-1.34 -0.3,0 0,0.08 -0.07,0 0,0.08 -0.08,0 0,0.08 -0.07,0 0,0.08 -0.08,0 0,0.08 -0.07,0 0,0.07 -0.08,0 0,0.08 -0.15,0 0,0.08 -0.15,0 0,0.16 -0.07,0 0,0.16 -0.08,0 0,0.08 -0.07,0 0,0.07 -0.08,0 0,-0.07 -0.15,0 0,0.07 -0.07,0 0,0.08 -0.08,0 0,0.08 0.08,0 0,0.16 0.15,0 0,0.08 0.22,0 0,-0.08 0.15,0 0,-0.08 0.53,0 0,-0.08 0.3,0 0,-0.08 0.22,0 0,-0.08 0.08,0 0,-0.07 0.07,0 0,-0.16 0.08,0 0,-0.08 0.07,0 0,-0.16 0.08,0 0,-0.23 -0.08,0 0,-0.08 -0.07,0 0,-0.16 -0.08,0 0,-0.08 -0.15,0 0,-0.08 z m -3.76,-36.66 -1,-1.35 -0.26,-0.26 -0.25,-0.54 -0.13,-0.95 -0.75,-1.08 -0.63,-0.53 -1.25,-1.07 -0.25,0 -0.5,0 0.01,0.95 0.13,1.22 1.01,1.34 0.63,2.03 0.38,0.94 -0.24,0.27 -0.99,1.36 0.26,1.49 0,0.13 -0.24,0.41 -0.13,0.14 -0.85,2.44 -0.12,0.95 0.76,0.94 0.25,1.08 0.01,0.41 -0.12,0.94 -0.5,0.41 -0.24,0.68 0.13,0.41 -0.11,2.43 0.01,1.63 0.14,1.75 0.52,2.57 0.37,0.27 2.33,-4.76 0.25,-0.14 0.12,0 2.27,3.23 1.86,-0.69 0.24,0 0.64,1.07 0.12,0.27 -1.59,3.4 1.25,1.61 0.76,1.21 0.38,0.94 -0.37,0.82 0,0.14 -0.87,0.14 -1.49,0.15 -0.62,0.27 -0.74,0.28 -0.86,1.22 -0.86,2.17 -0.05,0 0,0.07 -0.08,0 0,0.31 -0.07,0 0,0.16 -0.07,0 0,0.08 -0.08,0 0,0.08 -0.15,0 0,0.07 -0.07,0 0,0.08 -0.23,0 0,0.08 -0.22,0 0,0.08 -0.15,0 0,0.16 -0.38,0 0,-0.08 -0.07,0 0,0.08 -0.15,0 0,-0.08 -0.15,0 0,-0.08 -0.3,0 0,-0.16 -0.23,0 0,-0.08 -0.07,0 0,-0.07 -0.23,0 0,0.23 0.08,0 0,0.08 0.07,0 0,0.24 0.15,0 0,0.15 0.6,0 0,0.16 0.23,0 0,-0.16 0.37,0 0,-0.07 0.23,0 0,0.07 0.15,0 0,0.08 0.07,0 0,0.08 0.08,0 0,0.47 0.07,0 0,0.16 0.08,0 0,0.32 0.15,0 0,0.55 0.07,0 0,0.15 0.08,0 0,0.24 -0.08,0 0,0.16 -0.07,0 0,0.15 -0.08,0 0,0.08 -0.07,0 0,0.24 -0.08,0 0,0.16 -0.07,0 0,0.08 -0.08,0 0,0.07 -0.07,0 0,0.16 -0.08,0 0,0.08 -0.07,0 0,0.16 -0.08,0 0,0.08 -0.22,0 0,-0.08 -0.08,0 0,-0.08 -0.07,0 0,-0.08 -0.23,0 0,-0.08 -0.07,0 0,-0.08 -0.08,0 0,-0.31 0.08,0 0,-0.08 -0.15,0 0,-0.08 -0.08,0 0,0.08 -0.15,0 0,0.08 -0.15,0 0,0.23 -0.15,0 0,0.4 0.08,0 0,0.31 -0.08,0 0,0.16 0.08,0 0,0.08 0.07,0 0,0.08 0.08,0 0,-0.08 0.45,0 0,0.08 0.15,0 0,0.08 0.07,0 0,0.08 0.15,0 0,0.15 0.08,0 0,0.16 0.07,0 0,0.32 0.08,0 0,0.15 0.07,0 0,0.08 -0.07,0 0,0.08 -0.08,0 0,0.08 -0.07,0 0,0.08 -0.08,0 0,0.15 -0.07,0 0,0.08 -0.08,0 0,0.08 -0.07,0 0,0.08 -0.15,0 0,-0.24 -0.08,0 0,0.08 -0.07,0 0,0.16 -0.08,0 0,0.47 0.08,0 0,0.16 0.15,0 0,-0.39 0.15,0 0,-0.08 0.07,0 0,-0.08 0.08,0 0,-0.08 0.07,0 0,-0.16 0.08,0 0,-0.08 0.07,0 0,-0.07 0.08,0 0,-0.08 0.07,0 0,-0.08 0.08,0 0,-0.08 0.07,0 0,-0.08 0.15,0 0,0.16 0.15,0 0,-0.16 0.08,0 0,-0.23 0.15,0 0,0.07 0.07,0 0,0.16 0.22,0 0,-0.08 0.08,0 0,-0.08 0.07,0 0,-0.39 0.08,0 0,-0.24 -0.08,0 0,-0.15 0.08,0 0,-0.16 0.07,0 0,-0.16 0.08,0 0,-0.08 0.07,0 0,-0.78 0.08,0 0,-0.16 0.08,0 0,-0.55 -0.08,0 0,-0.08 0.15,0 0,0.08 0.22,0 0,-0.24 0.15,0 0,-0.08 0.08,0 0,-0.08 0.15,0 0,-0.07 0.15,0 0,-0.08 0.22,0 0,-0.08 0.08,0 0,-0.16 0.3,0 0,-0.08 0.15,0 0,-0.08 0.15,0 0,-0.08 0.22,0 0,-0.07 1.05,0 0,0.07 0.15,0 0,-0.07 0.15,0 0,-0.08 0.45,0 0,0.08 0.07,0 0,0.07 0.08,0 0,0.08 0.07,0 0,0.08 0.15,0 0,0.08 0.15,0 0,0.08 0.38,0 0,-0.08 0.07,0 0,-0.08 0.08,0 0,-0.08 0.15,0 0,-0.08 0.07,0 0,-0.15 0.08,0 0,-0.08 0.07,0 0,-0.08 0.15,0 0,-0.08 0.15,0 0,0.08 0.22,0 0,0.71 0.08,0 0,0.47 0.15,0 0,-1.26 0.07,0 0,-0.08 0.08,0 0,-0.08 0.67,0 0,0.08 0.15,0 0,0.16 0.38,0 0,-0.16 0.07,0 0,-0.08 0.15,0 0,0.08 0.52,0 0,0.08 0.08,0 0,0.08 0.07,0 0,0.08 0.15,0 0,0.08 0.15,0 0,0.15 0.38,0 0,0.08 0.15,0 0,0.08 0.07,0 0,0.08 0.08,0 0,-0.08 0.07,0 0,-0.08 0.08,0 0,-0.08 0.52,0 0,0.08 0.08,0 0,0.24 0.07,0 0,0.08 0.08,0 0,0.08 0.07,0 0,-0.08 0.15,0 0,0.08 0.15,0 0,0.08 -0.08,0 0,0.07 -0.07,0 0,0.32 0.07,0 0,0.08 0.16,0 0,0.23 0.07,0 0,0.08 0.08,0 0,0.08 0.37,0 0,0.32 0.07,0 0,0.07 -0.07,0 0,0.08 0.07,0 0,0.08 -0.07,0 0,0.32 0.07,0 0,0.15 0.08,0 0,0.08 0.07,0 0,0.08 0.15,0 0,0.08 0.15,0 0,0.08 0.23,0 0,0.08 0.15,0 0,0.08 0.07,0 0,-0.08 0.08,0 0,-0.08 0.22,0 0,-0.08 0.3,0 0,0.08 0.08,0 0,-0.24 0.37,0 0,0.08 0.07,0 0,0.08 0.08,0 0,0.08 0.07,0 0,0.08 0.08,0 0,0.23 0.07,0 0,0.08 0.3,0 0,0.08 0.08,0 0,0.24 0.15,0 0,0.08 0.22,0 0,0.08 0.47,0 0.11,-1.19 0.87,-0.28 0.49,-0.41 0.37,-0.41 1.36,-1.63 -0.13,-0.54 -0.13,-1.76 -0.63,-1.35 0.97,-3.39 -0.01,-0.54 -0.12,-0.81 -0.64,-2.7 -0.01,-1.35 -0.01,-1.49 0.59,-3.93 0.61,-1.49 1.35,-3.26 0.12,-0.27 0,-0.27 0.35,-3.92 0,-0.54 -0.15,-3.79 -0.01,-0.54 -0.63,-0.95 -2.77,-5.11 -0.76,-1.62 -2.23,0.42 -0.13,0.14 -1.99,0.15 -0.88,-1.08 -0.99,0.15 -0.37,1.08 -0.62,0.55 -0.74,0.82 -0.37,0.41 -0.24,0.4 0.25,0.81 -0.25,0.41 -0.24,0.27 -0.12,0.41 -1.37,0.28 -1.88,-1.33 -1.24,0.28 -0.12,0 -1.62,0.55 0,-0.13 z" 
                fill="rgb(151, 144, 238)" 
                stroke="white" 
                stroke-width=".7px"
                title="Peñuelas" 
                id="PR-PN" 
            />
        </svg>