<svg xmlns="http://www.w3.org/2000/svg" viewBox="337.72999999999956 97.67999999999999 50.96999999999986 82.00000000000001" width="50.96999999999986" height="82.00000000000001">
            <path 
                d="m 383.53,179.68 0,-0.08 0.07,0 0,-0.08 0.15,0 0,-0.16 0.08,0 0,-0.15 0.07,0 0,-0.16 0.08,0 0,-0.32 0.07,0 0,-0.07 0.08,0 0,-0.08 0.07,0 0,-0.08 0.3,0 0,-0.08 0.15,0 0,-0.08 0.08,0 0,-0.08 0.07,0 0,-0.08 0.08,0 0,-0.08 0.07,0 0,-0.07 0.08,0 0,-0.16 0.15,0 0,-0.08 0.07,0 0,-0.08 0.07,0 0,-0.08 0.15,0 0,-0.08 0.23,0 0,-0.07 0.07,0 0,-0.08 0.15,0 0,-0.08 0.68,0 0,-0.08 0.15,0 0,-0.08 0.15,0 0,-0.08 0.15,0 0,-0.08 0.07,0 0,-0.07 0.08,0 0,-0.16 0.15,0 0,-0.08 0.07,0 0,-0.08 0.08,0 0,-0.16 0.07,0 0,-0.08 0.08,0 0,-0.15 0.07,0 0,-0.08 0.08,0 0,-0.08 0.07,0 0,-0.08 0.08,0 0,-0.08 0.07,0 0,-0.16 0.08,0 0,-0.07 0.07,0 0,-0.08 0.07,0 0,-0.08 0.08,0 0,-0.08 0.15,0 0,-0.08 0.15,0 0,-0.08 0.08,0 0,-0.39 -0.08,0 0,-0.31 -0.08,0 0,-0.16 -0.15,0 0,-0.08 -0.07,0 0,-0.08 -0.08,0 0,-0.08 -0.14,0 0,-0.08 -0.08,0 0,-0.08 -0.07,0 0,-0.07 -0.45,0 0,0.15 -0.08,0 0,0.08 -0.22,0 0,0.08 -0.08,0 0,0.08 -0.07,0 0,0.08 -0.08,0 0,0.08 -0.15,0 0,0.08 -0.3,0 0,0.07 -0.15,0 0,0.16 -0.15,0 0,0.08 -0.22,0 0,0.16 -0.15,0 0,0.08 -0.3,0 0,0.07 -0.08,0 0,0.08 -0.07,0 0,0.08 -0.08,0 0,0.08 -0.07,0 0,0.08 -0.07,0 0,0.08 -0.08,0 0,0.08 -0.15,0 0,0.07 -0.15,0 0,0.08 -0.07,0 0,0.08 -0.08,0 0,0.16 -0.07,0 0,0.08 -0.08,0 0,0.08 -0.07,0 0,0.08 -0.08,0 0,0.07 -0.07,0 0,0.08 -0.08,0 0,0.16 -0.07,0 0,0.39 -0.08,0 0,0.24 -0.07,0 0,0.24 -0.08,0 0,0.23 -0.07,0 0,0.16 -0.08,0 0,0.31 -0.07,0 0,0.4 0.07,0 0,0.15 0.08,0 0,0.08 -0.08,0 0,0.08 -0.15,0 0,0.08 -0.37,0 0,0.16 -0.07,0 0,0.08 -0.08,0 0,0.07 0.08,0 0,0.08 0.07,0 0,0.16 0.07,0 0,0.16 0.23,0 z m -40.8,-20.22 -0.15,0 0,0.08 -0.15,0 0,-0.08 -0.15,0 0,0.15 -0.23,0 0,0.16 -0.15,0 0,0.08 -0.07,0 0,0.16 0.07,0 0,0.16 0.08,0 0,0.07 0.07,0 0,0.08 0.3,0 0,-0.23 0.15,0 0,-0.08 0.15,0 0,0.16 0.23,0 0,-0.08 0.07,0 0,-0.16 0.08,0 0,-0.24 -0.08,0 0,-0.08 -0.07,0 0,-0.07 -0.15,0 0,-0.08 z m 34.21,-2.21 0.15,0 0,-0.08 0.08,0 0,-0.07 0.07,0 0,-0.32 -0.37,0 0,0.08 -0.9,0 0,0.08 -0.23,0 0,0.08 -0.15,0 0,0.08 -0.07,0 0,0.23 0.07,0 0,0.08 0.15,0 0,-0.16 0.23,0 0,0.08 0.07,0 0,0.08 0.3,0 0,-0.08 0.6,0 0,-0.08 z m 0.17,-53.95 -1.75,-0.4 -2.25,-1.74 -2.01,-2.42 -4.36,-1.06 -1.37,0.15 -2.48,1.37 -1.12,1.09 -1.73,1.09 -2.49,0.16 -1.25,0.14 -0.48,2.03 -2.12,-0.39 -2.75,-1.87 -0.13,-0.14 -0.5,0.01 -0.49,0.14 -0.87,0.54 -1.86,0.83 -0.62,0.14 -1.12,0.14 -0.36,2.31 -0.37,1.22 -0.97,2.85 -0.25,0.13 -0.87,0.15 -0.63,-0.4 -0.5,-0.27 -2.49,0.29 0.76,1.62 2.77,5.11 0.63,0.95 0.01,0.54 0.15,3.79 0,0.54 -0.35,3.92 0,0.27 -0.12,0.27 -1.35,3.26 -0.61,1.49 -0.59,3.93 0.01,1.49 0.01,1.35 0.64,2.7 0.12,0.81 0.01,0.54 -0.97,3.39 0.63,1.35 0.13,1.76 0.13,0.54 -1.36,1.63 -0.37,0.41 -0.49,0.41 -0.87,0.28 -0.11,1.19 0.21,0 0,0.07 0.07,0 0,0.08 0.15,0 0,0.08 0.08,0 0,0.08 0.07,0 0,0.08 0.15,0 0,0.08 0.08,0 0,0.08 0.15,0 0,0.07 0.07,0 0,0.08 0.15,0 0,-0.15 0.67,0 0,0.07 0.23,0 0,0.08 0.37,0 0,0.08 0.08,0 0,0.08 0.15,0 0,0.16 0.75,0 0,-0.08 0.15,0 0,0.24 0.15,0 0,0.07 0.07,0 0,-0.07 0.45,0 0,-0.08 0.22,0 0,-0.08 0.45,0 0,0.08 0.23,0 0,0.08 0.15,0 0,0.07 0.07,0 0,0.08 0.15,0 0,0.08 0.15,0 0,0.08 0.08,0 0,0.16 0.07,0 0,0.16 0.15,0 0,0.07 0.23,0 0,0.08 0.07,0 0,0.08 0.08,0 0,0.16 0.07,0 0,0.08 0.08,0 0,0.08 0.07,0 0,0.08 0.08,0 0,0.07 -0.08,0 0,0.08 -0.07,0 0,0.24 0.22,0 0,0.08 0.08,0 0,0.08 0.14,0 0,0.07 0.15,0 0,0.08 0.3,0 0,-0.08 0.08,0 0,-0.15 0.52,0 0,-0.08 0.23,0 0,0.08 0.07,0 0,-0.08 0.08,0 0,-0.08 0.15,0 0,-0.24 0.07,0 0,-0.15 0.45,0 0,0.08 0.15,0 0,0.15 0.3,0 0,-0.08 0.15,0 0,-0.07 0.15,0 0,-0.16 -0.07,0 0,-0.08 -0.08,0 0,-0.08 -0.15,0 0,-0.08 -0.07,0 0,-0.08 -0.08,0 0,-0.08 -0.07,0 0,-0.15 0.15,0 0,0.08 0.07,0 0,0.07 0.15,0 0,0.08 0.15,0 0,-0.08 0.07,0 0,-0.07 0.08,0 0,-0.16 0.07,0 0,-0.16 0.08,0 0,-0.16 0.15,0 0,-0.08 0.07,0 0,-0.07 0.08,0 0,-0.08 0.15,0 0,-0.08 0.07,0 0,-0.08 0.15,0 0,-0.08 0.15,0 0,-0.08 0.08,0 0,-0.08 0.07,0 0,-0.08 0.08,0 0,-0.07 0.07,0 0,-0.08 0.08,0 0,-0.08 0.22,0 0,-0.08 0.15,0 0,-0.08 0.08,0 0,-0.08 0.07,0 0,-0.08 0.15,0 0,-0.07 0.07,0 0,-0.08 0.16,0 0,-0.08 0.15,0 0,-0.08 0.3,0 0,-0.16 0.07,0 0,-0.08 0.3,0 0,-0.08 0.07,0 0,-0.07 0.08,0 0,-0.08 0.07,0 0,-0.08 0.45,0 0,-0.08 0.45,0 0,-0.08 0.45,0 0,-0.08 0.08,0 0,-0.08 0.29,0 0,0.08 0.08,0 0,0.24 0.07,0 0,0.08 0.08,0 0,-0.08 0.08,0 0,-0.16 -0.08,0 0,-0.24 0.9,0 0,-0.07 0.22,0 0,-0.08 0.75,0 0,-0.08 0.3,0 0,-0.08 0.9,0 0,-0.08 0.45,0 0,0.16 0.15,0 0,-0.08 0.07,0 0,-0.08 0.38,0 0,0.08 0.07,0 0,0.08 0.3,0 0,0.08 0.15,0 0,0.08 0.15,0 0,0.07 0.23,0 0,0.08 0.29,0 0,0.08 0.08,0 0,0.08 0.07,0 0,0.16 0.08,0 0,0.16 0.15,0 0,0.07 0.15,0 0,0.08 0.15,0 0,0.08 0.22,0 0,0.08 0.3,0 0,0.08 0.15,0 0,0.08 0.08,0 0,0.16 -0.08,0 0,0.07 -0.07,0 0,0.08 -0.08,0 0,0.08 -0.07,0 0,0.16 -0.08,0 0,0.47 0.08,0 0,0.08 0.07,0 0,0.08 0.15,0 0,0.08 0.15,0 0,0.15 0.08,0 0,0.08 0.07,0 0,0.08 0.08,0 0,0.16 -0.15,0 0,0.08 -0.15,0 0,0.08 -0.38,0 0,0.08 -0.07,0 0,0.15 -0.08,0 0,0.08 -0.15,0 0,0.08 -0.07,0 0,0.08 -0.08,0 0,0.08 -0.07,0 0,0.16 -0.08,0 0,0.55 0.08,0 0,-0.08 0.07,0 0,-0.08 0.08,0 0,-0.16 0.15,0 0,-0.08 0.15,0 0,0.08 0.15,0 0,0.08 0.15,0 0,0.08 0.07,0 0,0.16 0.08,0 0,0.23 -0.08,0 0,0.08 -0.07,0 0,0.08 -0.08,0 0,0.08 -0.07,0 0,0.08 -0.08,0 0,0.08 -0.07,0 0,0.15 -0.08,0 0,0.24 -0.07,0 0,0.08 -0.08,0 0,0.08 0.15,0 0,0.07 1.05,0 0,-0.07 0.6,0 0,-0.08 0.08,0 0,-0.08 0.07,0 0,-0.24 0.3,0 0,0.08 0.37,0 0,-0.31 0.08,0 0,-0.08 0.07,0 0,-0.08 0.08,0 0,-0.08 -0.08,0 0,-0.24 0.15,0 0,-0.07 0.08,0 0,-0.16 0.07,0 0,-0.08 0.08,0 0,-0.08 0.07,0 0,-0.08 0.15,0 0,-0.08 0.15,0 0,-0.07 0.23,0 0,-0.08 0.45,0 0,-0.08 0.37,0 0,-0.08 0.3,0 0,0.08 0.08,0 0,-0.08 0.14,0 0,0.16 0.15,0 0,0.08 0.23,0 0,0.31 0.15,0 0,-0.31 0.07,0 0,-0.08 0.15,0 0,-0.08 0.23,0 0,-0.08 0.07,0 0,-0.16 0.08,0 0,-0.08 0.07,0 0,-0.08 0.08,0 0,-0.07 0.15,0 0,-0.08 0.22,0 0,-0.08 0.23,0 0,0.08 0.07,0 0,0.08 0.15,0 0,0.07 0.3,0 0,0.08 0.08,0 0,0.08 0.15,0 0,0.08 0.29,0 0,0.08 0.15,0 0,0.08 0.15,0 0,0.08 0.08,0 0,0.08 0.22,0 0,0.07 0.15,0 0,0.08 0.08,0 0,0.08 0.07,0 0,0.08 0.08,0 0,0.08 0.07,0 0,0.08 0.08,0 0,0.08 0.07,0 0,0.07 0.08,0 0,0.24 0.07,0 0,0.47 0.08,0 0,0.16 0.07,0 0,0.39 0.08,0 0,0.16 0.22,0 0,0.16 0.15,0 0,-0.16 0.22,0 0,-0.08 0.23,0 0,-0.08 0.3,0 0,0.08 0.45,0 0,-0.08 0.07,0 0,-0.08 0.15,0 0,-0.07 0.23,0 0,-0.08 0.15,0 0,-0.08 0.22,0 0,-0.08 0.08,0 0,-0.08 0.07,0 0,-0.08 0.15,0 0,-0.08 0.08,0 0,-0.07 0.07,0 0,-0.08 0.08,0 0,-0.08 0.15,0 0,-0.08 0.22,0 0,-0.08 0.22,0 0,-0.08 0.15,0 0,-0.08 0.15,0 0,-0.08 0.08,0 0,0.08 0.07,0 0,-0.08 0.08,0 0,-0.07 0.3,0 0,-0.08 0.22,0 0,-0.08 0.15,0 0,0.08 0.6,0 0,-0.08 0.15,0 0,-0.08 0.53,0 0,-0.08 0.37,0 0,-0.08 0.07,0 0,0.08 0.38,0 0,-0.08 0.07,0 0,-0.08 0.15,0 0,-0.15 0.08,0 0,-0.08 0.07,0 0,-0.08 0.08,0 0,-0.08 0.07,0 0,-0.08 0.08,0 0,-0.08 0.07,0 0,-0.08 0.08,0 0,-0.07 0.15,0 0,-0.08 0.15,0 0,-0.16 0.22,0 0,-0.08 0.08,0 0,-0.08 0.15,0 0,-0.08 0.15,0 0,-0.08 0.22,0 0,-0.07 0.15,0 0,-0.08 0.08,0 0,-0.08 0.14,0 0,-0.08 0.3,0 0,-0.08 0.08,0 0,-0.08 0.6,0 0,-0.08 0.75,0 0,0.08 0.22,0 0,0.24 0.45,0 0,0.08 0.15,0 0,-0.08 0.37,0 0,-0.08 0.15,0 -0.59,-4.73 1.48,-0.55 1.48,-2.44 -1.39,-4.33 0,-0.13 -0.5,-1.35 -0.38,-1.22 -0.12,-0.13 -0.89,-1.75 0.13,-0.27 0.74,-0.69 0.25,-0.4 0.36,-1.09 -0.12,-0.27 -2.03,-7.56 -1.26,-3.1 -0.5,-0.68 -1,-0.67 0,-0.13 1.72,-2.99 -0.5,-1.75 -0.01,-0.27 -1.26,-3.78 -1.62,0.14 -0.76,-2.83 -0.26,-1.36 0.24,-2.43 0,-0.27 0.37,-1.09 0.24,-0.27 0.75,-0.41 0.25,0 0.62,-0.28 0.99,-1.49 z" 
                fill="rgb(151, 144, 238)" 
                stroke="white" 
                stroke-width=".7px"
                title="Ponce" 
                id="PR-PO" 
            />
        </svg>