<svg xmlns="http://www.w3.org/2000/svg" viewBox="265.5000000000002 6.869999999999999 18.31999999999988 35.650000000000006" width="18.31999999999988" height="35.650000000000006">
            <path 
                d="m 271.83,6.87 -0.15,0 0,0.08 -0.59,0 0,0.08 -0.23,0 0,-0.08 -0.15,0 0,-0.08 -0.15,0 0,0.08 -0.08,0 0,0.08 -0.07,0 0,0.08 -0.15,0 0,0.07 -0.15,0 0,-0.07 -0.07,0 0,-0.08 -0.15,0 0,0.08 -0.08,0 0,0.07 -0.15,0 0,0.08 -0.07,0 0,0.08 -0.08,0 0,0.08 -0.15,0 0,0.08 -0.07,0 0,0.08 -0.08,0 0,0.08 -0.15,0 0,0.08 -0.22,0 0,0.08 -0.15,0 0,-0.08 -0.45,0 0,-0.08 -0.15,0 0,0.08 1.21,3.25 -0.12,0.14 -2.61,0.97 -0.25,0.41 1.27,1.89 -1.23,2.71 -0.86,1.64 2.28,2.68 2.38,0.65 0.5,0.13 0.12,0.27 1.04,3.64 0.5,0.68 1.63,0.92 0.26,0.27 0,0.27 -0.12,0.28 -1.24,1.36 -0.62,0.28 -0.63,0.01 -0.49,0.41 -0.37,0.54 -0.25,0.82 0.26,0.54 1.26,0.66 0.62,-0.01 2.37,0.25 1.25,-0.02 0.63,0 0.25,0 0.25,0.13 0.13,0.4 0,0.95 -0.36,1.76 0.26,0.41 0.13,0.54 0.63,1.34 1.51,0.93 1.13,0.53 0.63,0.54 0.51,1.35 0.25,0.26 0.37,0 1.25,-0.01 -0.54,-4.46 -0.13,-0.95 0.6,-3.12 -0.4,-2.43 0,-0.54 -0.28,-3.11 0.08,-4.87 0.1,-3.12 -0.16,-3.78 -0.02,-2.44 -0.04,-4.47 0,-0.06 -0.34,0 0,0.08 -0.08,0 0,-0.08 -0.15,0 0,-0.16 -0.3,0 0,0.08 -0.22,0 0,0.08 -0.08,0 0,0.08 -0.52,0 0,-0.08 -0.22,0 0,-0.08 -0.3,0 0,0.08 -0.53,0 0,-0.08 -0.15,0 0,-0.08 -0.3,0 0,-0.08 -0.07,0 0,-0.08 -0.08,0 0,0.08 -0.3,0 0,0.08 -0.22,0 0,-0.08 -0.15,0 0,-0.08 -0.52,0 0,-0.08 -0.3,0 0,-0.08 -0.23,0 0,-0.08 -0.07,0 0,-0.07 -0.15,0 0,-0.08 -0.15,0 0,-0.08 -0.45,0 0,-0.08 -0.15,0 0,-0.08 -0.08,0 0,-0.08 -0.15,0 0,-0.08 -0.52,0 0,-0.08 -0.08,0 0,-0.07 -0.07,0 0,-0.08 -0.22,0 0,0.08 -0.15,0 0,0.07 -0.15,0 0,0.08 -0.15,0 0,-0.08 -0.15,0 0,-0.15 -0.08,0 0,-0.08 -0.15,0 0,-0.08 -0.37,0 0,-0.08 -0.15,0 0,-0.08 -0.45,0 0,-0.08 -0.23,0 0,-0.08 -0.15,0 0,-0.16 -0.3,0 0,0.08 -0.07,0 0,0.08 -0.15,0 0,-0.08 -0.07,0 0,-0.15 -0.08,0 0,-0.08 -0.3,0 0,-0.08 -0.3,0 0,0.08 -0.07,0 0,0.08 -0.38,0 0,-0.08 -0.07,0 0,-0.08 -0.08,0 0,-0.08 z" 
                fill="rgb(151, 144, 238)" 
                stroke="white" 
                stroke-width=".7px"
                title="Quebradillas" 
                id="PR-QB" 
            />
        </svg>