<svg xmlns="http://www.w3.org/2000/svg" viewBox="183.26999999999995 39.85 24.24000000000038 22.499999999999766" width="24.24000000000038" height="22.499999999999766">
            <path 
                d="m 192.08,39.97 -0.12,-0.12 -0.16,0 0,0.08 -0.15,0 0,0.08 -0.15,0 0,0.08 -0.07,0 0,0.08 -0.38,0 0,-0.08 -0.07,0 0,-0.08 -0.37,0 0,0.08 -0.08,0 0,0.08 -0.07,0 0,0.08 -0.08,0 0,0.08 -0.07,0 0,0.08 -0.23,0 0,0.07 -0.07,0 0,0.08 -0.08,0 0,0.32 -0.07,0 0,0.08 -0.08,0 0,0.16 -0.15,0 0,-0.16 -0.07,0 0,-0.4 -0.45,0 0,0.08 -0.15,0 0,0.08 -0.38,0 0,0.08 -0.3,0 0,0.08 -0.37,0 0,0.08 -0.52,0 0,0.08 -0.08,0 0,0.08 -0.07,0 0,0.07 -0.3,0 0,0.08 -0.08,0 0,-0.08 -0.67,0 0,0.08 -0.22,0 0,0.08 -0.23,0 0,0.16 -0.07,0 0,0.08 -0.08,0 0,0.08 -0.08,0 0,0.08 -0.22,0 0,0.08 -0.6,0 0,0.07 -0.22,0 0,0.08 -0.23,0 0,0.08 -0.07,0 0,0.08 -0.08,0 0,0.16 -0.15,0 0,0.08 -0.22,0 0,0.08 -0.08,0 0,0.55 -0.07,0 0,0.16 -0.08,0 0,0.08 -0.07,0 0,0.07 -0.15,0 0,0.71 0.07,0 0,0.08 0.08,0 0,0.16 0.07,0 0,0.16 0.08,0 0,0.24 0.07,0 0,0.23 0.08,0 0,0.08 0.07,0 0,0.24 0.08,0 0,0.47 0.07,0 0,0.16 0.08,0 0,0.08 0.07,0 0,0.08 0.08,0 0,0.08 0.07,0 0,0.07 0.08,0 0,0.24 0.07,0 0,0.08 0.08,0 0,0.08 0.07,0 0,0.08 0.08,0 0,0.08 0.07,0 0,0.15 0.08,0 0,0.16 0.07,0 0,0.08 0.08,0 0,0.08 0.15,0 0,0.08 0.15,0 0,0.08 0.07,0 0,0.08 0.07,0 0,0.15 0.08,0 0,0.4 0.07,0 0,0.08 0.08,0 0,0.15 0.15,0 0,0.08 0.08,0 0,0.16 0.07,0 0,0.16 0.08,0 0,0.16 0.07,0 0,0.08 0.07,0 0,0.07 0.15,0 0,0.08 0.15,0 0,0.08 0.08,0 0,-0.08 0.07,0 0,-0.08 0.23,0 0,0.08 0.15,0 0,0.08 0.07,0 0,0.16 0.08,0 0,0.16 0.15,0 0,0.08 0.07,0 0,0.08 0.08,0 0,0.07 0.07,0 0,0.08 0.08,0 0,0.16 0.07,0 0,0.16 0.08,0 0,0.16 0.07,0 0,0.15 0.08,0 0,0.16 0.07,0 0,0.24 0.08,0 0,0.16 0.07,0 0,0.39 0.07,0 0,0.08 0.08,0 0,0.71 0.07,0 0,0.08 0.08,0 0,0.31 0.07,0 0,0.08 0.08,0 0,0.16 0.07,0 0,0.24 0.08,0 0,0.23 0.15,0 0,0.16 0.15,0 0,0.08 0.07,0 0,0.39 0.08,0 0,0.32 0.07,0 0,0.08 0.08,0 0,0.24 0.15,0 0,0.31 0.07,0 0,0.24 0.08,0 0,0.16 0.07,0 0,0.31 0.08,0 0,0.08 0.07,0 0,0.08 0.08,0 0,0.23 0.07,0 0,0.08 0.08,0 0,0.16 0.07,0 0,0.08 0.08,0 0,0.08 0.07,0 0,0.08 0.08,0 0,0.08 0.07,0 0,0.08 0.08,0 0,0.15 0.15,0 0,0.08 0.07,0 0,0.24 0.08,0 0,0.08 0.07,0 0,0.16 0.08,0 0,0.07 0.14,0 0,0.24 0.08,0 0,0.08 0.07,0 0,0.24 0.08,0 0,0.23 0.15,0 0,0.16 0.07,0 0,0.16 0.08,0 0,0.08 0.07,0 0,0.23 0.08,0 0,0.16 0.07,0 0,0.24 0.08,0 0,0.47 0.15,0 0,0.16 0.07,0 0,0.24 0.08,0 0,0.15 0.07,0 0,0.16 0.08,0 0,0.16 0.07,0 0,0.08 0.08,0 0,0.16 0.07,0 0,0.07 0.08,0 0,0.08 0.07,0 0,0.16 0.08,0 0,0.08 0.07,0 0,0.16 0.08,0 0,0.08 0.07,0 0,0.07 0.08,0 0,0.08 0.07,0 0,0.08 0.15,0 0,0.08 0.08,0 0,0.08 0.15,0 0,0.08 0.22,0 0,0.08 0.15,0 0,0.08 0.6,0 0,0.08 0.37,0 0,0.07 0.15,0 0,0.08 0.15,0 0,0.08 0.15,0 0,0.08 0.3,0.02 0.09,-0.1 0.85,-1.77 0.62,-0.82 3.11,-0.18 1.86,-1.11 0.62,-0.01 0.76,0.81 0.75,-0.01 2.98,-0.99 0.25,-0.14 -0.26,-0.4 -1.38,-0.8 -2.04,-4.16 -0.63,-0.4 -3.01,-1.04 -0.12,0 -0.25,-0.13 -0.26,-0.27 -4.28,-3.32 0.35,-2.44 -0.38,-0.95 -3.17,-4.15 z" 
                fill="rgb(151, 144, 238)" 
                stroke="white" 
                stroke-width=".7px"
                title="Rincón" 
                id="PR-RC" 
            />
        </svg>