<svg xmlns="http://www.w3.org/2000/svg" viewBox="559.2 26.52 34.54000000000008 42.80000000000004" width="34.54000000000008" height="42.80000000000004">
            <path 
                d="m 571.96,26.52 -0.08,0 -0.8,0.58 -0.25,0.67 -0.38,0.95 -0.87,0.81 -1.13,0.95 -0.37,0.81 -0.63,0.4 -1,0.27 -0.75,0.54 -0.37,0.68 -0.5,1.35 -0.13,0.54 0,0.68 -0.88,2.43 -0.25,0 -0.62,0 -0.63,0.27 -0.24,0.27 -0.19,0.31 -0.06,0.1 -0.26,0.54 -0.37,0.27 -1.12,0.4 -0.13,0.27 0.25,0.68 0,0.41 -0.12,0.67 -0.01,0.27 -0.25,0.27 -0.12,0.14 -0.38,0.4 -0.12,0.27 0,0.14 0.25,1.76 0.25,0.67 0.12,0.41 0,1.49 0.25,1.62 0.12,1.09 0,0.27 0.12,0.27 1.25,0.54 0.5,0.41 0.99,2.98 -0.37,0.81 -0.38,0.27 -1.12,0 -0.13,1.35 0.25,0.54 0.13,0.27 1.24,0 0,0.54 0.25,0.95 0.13,0.41 -0.76,1.49 0,0.13 -0.37,0 -0.37,0.95 0.62,0 0.62,0 0.75,0.68 1,0.95 0.37,0.54 0.37,0.27 2.25,1.09 0.99,0.67 0.87,0.54 0.75,0.55 0.62,0.67 0.62,0.28 1.25,-0.41 0.75,0.14 1.37,-1.89 0.88,-1.08 0.62,-0.95 0.51,-0.94 0.12,0 1.12,0.27 0.5,0.27 1.37,-0.54 1.5,-0.4 0.38,-1.49 1.24,0.68 1,0.01 0.62,0.94 0.25,0.68 0.62,0.68 1.37,1.22 0.87,0.27 1.12,0.28 0.38,-1.08 0.38,-0.68 0.5,-0.81 0.5,-0.13 0.37,-0.41 0,-0.95 0.25,-0.54 0,-0.4 -0.87,-1.36 -0.37,-1.08 0.38,-0.95 0.5,-1.76 0.38,-0.81 0.12,-0.13 0.75,-0.13 0.75,-0.27 0.63,-0.81 0.25,-0.68 -0.75,-0.68 -1.12,-0.14 -0.13,-0.27 0.01,-1.22 0.62,-0.4 0.13,-1.76 -0.25,-0.27 -0.5,-0.27 -0.74,-1.36 -0.63,-0.54 -0.62,-0.68 -0.37,-0.68 -0.87,-0.27 -0.13,-0.27 -0.12,-0.54 -0.37,-2.03 0,-0.14 1.12,-0.94 0.63,-0.95 0.63,-0.54 2.12,-1.61 1,-1.35 0.08,-0.08 -0.33,0 0,-0.39 -0.08,0 0,-0.24 -0.07,0 0,-0.08 -0.15,0 0,-0.08 -0.08,0 0,-0.07 -0.45,0 0,-0.08 -0.07,0 0,-0.08 -0.08,0 0,-0.08 -0.15,0 0,-0.08 -0.15,0 0,-0.08 -0.22,0 0,-0.08 -0.08,0 0,-0.08 -0.15,0 0,-0.08 -0.15,0 0,-0.07 -0.07,0 0,-0.08 -0.07,0 0,-0.08 -0.3,0 0,-0.08 -0.08,0 0,-0.24 -0.07,0 0,-0.24 -0.08,0 0,-0.07 -0.07,0 0,-0.16 -0.08,0 0,-0.08 -0.07,0 0,-0.4 -0.08,0 0,-0.15 -0.07,0 0,-0.16 -0.08,0 0,-0.08 -0.22,0 0,-0.08 -0.83,0 0,-0.08 -0.52,0 0,-0.08 -0.08,0 0,-0.08 -0.07,0 0,-0.07 -0.08,0 0,-0.08 -0.07,0 0,-0.08 -0.15,0 0,-0.08 -0.07,0 0,-0.08 -0.15,0 0,-0.08 -0.23,0 0,-0.16 -0.07,0 0,-0.08 -0.08,0 0,-0.07 -0.07,0 0,-0.08 -0.08,0 0,-0.63 0.08,0 0,-0.32 0.07,0 0,-0.39 0.08,0 0,-0.16 0.07,0 0,-0.08 0.08,0 0,-0.08 0.07,0 0,-0.24 0.08,0 0,-0.23 0.07,0 0,-0.08 0.08,0 0,-0.63 -0.08,0 0,-0.16 -0.07,0 0,-0.16 -0.08,0 0,-0.08 -0.07,0 0,-0.08 -0.08,0 0,-0.08 -0.22,0 0,-0.07 -0.53,0 0,-0.08 -0.15,0 0,0.08 -0.07,0 0,0.07 -0.08,0 0,0.16 -0.07,0 0,0.08 -0.08,0 0,0.08 -0.07,0 0,0.08 -0.08,0 0,0.08 -0.07,0 0,0.08 -0.23,0 0,0.08 -0.22,0 0,0.07 -0.08,0 0,0.08 -0.15,0 0,0.08 -0.15,0 0,0.08 -0.14,0 0,0.08 -0.23,0 0,0.08 -0.15,0 0,0.08 -0.07,0 0,0.08 -0.45,0 0,0.08 -0.15,0 0,0.07 -0.08,0 0,0.08 -0.07,0 0,0.08 -0.08,0 0,0.08 -0.15,0 0,0.08 -0.15,0 0,0.08 -0.15,0 0,0.08 -0.15,0 0,0.08 -0.29,0 0,0.08 -0.53,0 0,0.08 -0.6,0 0,0.07 -0.37,0 0,0.08 -0.23,0 0,0.08 -0.37,0 0,-0.08 -0.15,0 0,-0.08 -0.08,0 0,-0.07 -0.07,0 0,-0.08 -0.08,0 0,-0.08 -0.07,0 0,-0.08 -0.08,0 0,-0.16 -0.07,0 0,-0.32 0.07,0 0,-0.07 0.23,0 0,-0.16 0.07,0 0,-0.16 0.08,0 0,-0.08 0.07,0 0,-0.08 0.08,0 0,-0.23 0.07,0 0,-0.16 0.08,0 0,-0.08 0.07,0 0,-0.16 0.08,0 0,-0.08 0.07,0 0,-0.08 0.08,0 0,-0.08 0.07,0 0,-0.07 0.08,0 0,-0.08 0.15,0 0,-0.08 0.07,0 0,-0.08 0.08,0 0,-0.08 0.07,0 0,-0.08 0.15,0 0,-0.08 0.08,0 0,-0.08 0.07,0 0,-0.15 0.08,0 0,-0.08 0.07,0 0,-0.08 0.08,0 0,-0.08 0.07,0 0,-0.16 0.07,0 0,-0.08 0.08,0 0,-0.08 0.08,0 0,-0.16 0.07,0 0,-0.23 -0.07,0 0,-0.08 0.07,0 0,-0.24 -0.07,0 0,-0.16 -0.08,0 0,-0.07 -0.15,0 0,-0.08 -0.22,0 0,0.08 -0.15,0 0,0.07 -0.23,0 0,0.08 -0.15,0 0,0.08 -0.07,0 0,0.08 -0.08,0 0,0.16 -0.15,0 0,0.08 -0.07,0 0,0.08 -0.15,0 0,0.08 -0.08,0 0,0.07 -0.07,0 0,0.16 -0.08,0 0,0.08 -0.07,0 0,0.16 -0.08,0 0,0.08 -0.07,0 0,0.16 -0.08,0 0,0.08 -0.07,0 0,0.07 -0.08,0 0,0.16 -0.07,0 0,0.16 -0.08,0 0,0.08 -0.07,0 0,0.08 -0.08,0 0,0.08 -0.07,0 0,0.08 -0.15,0 0,0.07 -0.23,0 0,0.08 -0.07,0 0,0.08 -0.07,0 0,0.08 -0.15,0 0,0.08 -0.08,0 0,0.08 -0.07,0 0,0.16 -0.08,0 0,0.08 -0.07,0 0,0.07 -0.08,0 0,0.08 -0.07,0 0,0.08 -0.08,0 0,0.16 -0.07,0 0,0.08 -0.3,0 0,-0.16 -0.08,0 0,-0.08 -0.3,0 0,0.08 -0.07,0 0,0.16 -0.08,0 0,0.08 -0.15,0 0,0.08 -1.12,0 0,-0.08 -0.97,0 0,-0.16 -0.15,0 0,-0.08 -0.15,0 0,-0.08 -0.15,0 0,-0.08 -0.08,0 0,-0.08 -0.07,0 0,-0.07 -0.15,0 0,-0.08 -0.08,0 0,-0.08 -0.07,0 0,-0.08 -0.08,0 0,-0.16 -0.07,0 0,-0.16 -0.08,0 0,-0.15 -0.07,0 0,-0.08 -0.07,0 0,-0.08 -0.08,0 0,-0.08 -0.07,0 0,-0.24 -0.08,0 0,-0.39 -0.07,0 0,-0.16 -0.08,0 0,-0.08 -0.07,0 0,-0.16 -0.08,0 0,-0.16 -0.07,0 0,-0.15 -0.08,0 0,-0.08 -0.15,0 0,-0.08 -0.52,0 0,-0.08 -0.08,0 0,-0.08 -0.07,0 0,-0.08 -0.15,0 0,-0.08 -0.08,0 0,-0.08 -0.15,0 0,-0.07 -0.15,0 0,-0.08 -0.07,0 0,-0.08 -0.15,0 0,-0.08 -0.23,0 0,0.08 -0.15,0 0,-0.08 -0.07,0 0,-0.08 z" 
                fill="rgb(151, 144, 238)" 
                stroke="white" 
                stroke-width=".7px"
                title="Río Grande" 
                id="PR-RG" 
            />
        </svg>