<svg xmlns="http://www.w3.org/2000/svg" viewBox="260.7099999999998 103.61 26.81000000000006 36.17" width="26.81000000000006" height="36.17">
            <path 
                d="m 276.39,103.75 0,-0.14 -2.24,0.56 -0.13,0.14 -0.74,0.14 -0.25,0.01 -2.99,0.3 -0.37,0.14 -1.86,0.16 -0.75,0 -0.88,-0.66 -1.11,0.96 -0.61,0.81 -2,-0.51 2.02,3.36 -0.11,1.08 -0.12,0.14 -0.99,0.68 -1.11,1.1 -0.6,2.85 -0.49,0.68 -0.24,0.54 -0.11,1.35 0.12,0.14 0.04,3.79 0.77,2.96 -0.68,7.18 0,0.14 0.28,3.11 4.11,0.76 1.87,0.52 0.39,1.22 1.49,-0.43 1.61,0.12 1.63,0.52 0.75,0.4 0.62,0.26 0.62,-0.41 0.87,-0.01 2.87,1.06 2.49,0.92 0.37,-0.14 1,-0.55 0.12,-0.14 1.74,0.66 1,0.26 1.25,-0.01 1.48,-0.43 -0.51,-2.02 -1.01,-1.34 -0.62,-0.27 -0.63,-0.67 -0.25,-0.4 -0.63,-0.8 -0.38,-0.68 -0.27,-2.16 -0.64,-2.02 0,-0.14 -0.12,0 -1.63,-1.2 -0.89,-2.42 -0.01,-1.08 -0.13,-0.41 -0.13,-1.22 -0.13,-0.26 -1.13,-1.34 -0.01,-0.28 -0.12,-0.26 0,-0.28 0.47,-2.57 -1.14,-1.88 -0.64,-1.89 1.61,-1.23 0.12,-0.14 0.13,-0.27 0.11,-1.49 -0.51,-1.48 -1.65,-3.23 -0.26,-0.81 -0.13,-1.35 z" 
                fill="rgb(151, 144, 238)" 
                stroke="white" 
                stroke-width=".7px"
                title="Sabana Grande" 
                id="PR-SB" 
            />
        </svg>