<svg xmlns="http://www.w3.org/2000/svg" viewBox="433.6599999999998 119.40999999999997 47.57999999999862 51.85000000000028" width="47.57999999999862" height="51.85000000000028">
            <path 
                d="m 458.39,168.82 -0.37,0 0,0.08 -0.23,0 0,0.08 -0.07,0 0,0.08 -0.08,0 0,0.08 -0.07,0 0,0.15 0.07,0 0,0.08 0.08,0 0,0.08 0.37,0 0,0.16 0.08,0 0,0.08 0.07,0 0,0.08 0.08,0 0,0.07 0.07,0 0,0.08 0.08,0 0,0.08 0.07,0 0,0.08 0.15,0 0,0.16 0.08,0 0,0.08 0.3,0 0,0.08 0.15,0 0,0.07 0.3,0 0,0.08 0.37,0 0,-0.08 0.15,0 0,-0.07 0.07,0 0,-0.08 0.08,0 0,0.08 0.15,0 0,0.15 0.07,0 0,0.08 0.08,0 0,0.08 0.07,0 0,0.08 0.23,0 0,0.08 0.15,0 0,0.08 0.15,0 0,0.07 0.22,0 0,0.08 0.23,0 0,0.08 0.37,0 0,-0.08 0.08,0 0,-0.15 0.07,0 0,-0.08 0.08,0 0,-0.08 0.07,0 0,-0.08 0.08,0 0,-0.08 0.15,0 0,0.08 0.07,0 0,0.08 0.15,0 0,0.08 0.07,0 0,0.08 0.08,0 0,0.07 0.07,0 0,0.08 0.15,0 0,0.08 0.68,0 0,-0.08 0.15,0 0,-0.08 0.15,0 0,0.08 0.07,0 0,0.08 0.45,0 0,0.08 0.52,0 0,-0.08 0.16,0 0,-0.08 0.07,0 0,-0.08 0.08,0 0,-0.55 -0.08,0 0,-0.15 -0.82,0 0,-0.08 -0.08,0 0,-0.08 -0.15,0 0,-0.08 -0.07,0 0,-0.08 -0.08,0 0,-0.23 -0.45,0 0,0.07 -0.07,0 0,0.08 -0.15,0 0,0.08 -0.38,0 0,0.08 -0.74,0 0,-0.08 -0.08,0 0,-0.08 -0.07,0 0,-0.08 -0.08,0 0,-0.07 -0.3,0 0,-0.08 -0.15,0 0,-0.08 -0.15,0 0,-0.08 -0.3,0 0,0.08 -0.15,0 0,0.08 -0.6,0 0,-0.08 -0.37,0 0,0.08 -0.15,0 0,-0.08 -0.15,0 0,-0.08 -0.3,0 0,-0.08 -0.07,0 0,0.08 -0.23,0 0,-0.08 -0.15,0 0,-0.08 -0.15,0 0,-0.08 -0.07,0 0,-0.15 -0.08,0 0,-0.16 -0.15,0 0,-0.08 -0.15,0 0,-0.08 z m -2.99,-1.34 -0.38,0 0,0.08 -0.07,0 0,0.4 0.07,0 0,0.23 0.08,0 0,0.08 0.22,0 0,0.08 0.08,0 0,0.08 0.15,0 0,0.08 0.07,0 0,0.07 0.15,0 0,0.08 0.23,0 0,0.08 0.22,0 0,-0.08 0.23,0 0,-0.08 0.07,0 0,-0.23 -0.07,0 0,-0.08 -0.08,0 0,-0.08 -0.3,0 0,-0.08 -0.15,0 0,-0.08 -0.07,0 0,-0.07 -0.08,0 0,-0.16 -0.07,0 0,-0.08 -0.08,0 0,-0.08 -0.07,0 0,-0.08 -0.15,0 0,-0.08 z m -7.94,-2.99 -0.22,0 0,0.08 -0.15,0 0,0.16 -0.08,0 0,0.08 0.08,0 0,0.39 0.15,0 0,0.08 0.15,0 0,0.08 0.07,0 0,0.08 0.08,0 0,0.08 0.45,0 0,0.08 1.42,0 0,-0.08 0.52,0 0,-0.08 0.08,0 0,-0.08 0.07,0 0,-0.16 -0.07,0 0,-0.08 -0.08,0 0,-0.08 -0.07,0 0,-0.07 -0.9,0 0,-0.08 -0.07,0 0,-0.08 -0.16,0 0,-0.08 -0.14,0 0,-0.08 -0.23,0 0,0.08 -0.3,0 0,-0.08 -0.15,0 0,-0.08 -0.45,0 0,-0.08 z m -1.79,-0.31 -0.15,0 0,0.08 -0.15,0 0,0.08 -0.15,0 0,0.07 -0.08,0 0,0.08 -0.07,0 0,0.08 -0.08,0 0,0.08 -0.15,0 0,0.08 -0.07,0 0,0.31 0.07,0 0,0.08 0.45,0 0,0.08 0.68,0 0,-0.08 0.15,0 0,-0.08 0.07,0 0,-0.23 -0.07,0 0,-0.16 -0.08,0 0,-0.16 -0.07,0 0,-0.08 -0.15,0 0,-0.07 -0.15,0 0,-0.16 z m 8.38,-1.89 -0.67,0 0,0.08 0.07,0 0,0.08 0.08,0 0,0.16 0.15,0 0,0.07 0.15,0 0,0.08 0.14,0 0,0.16 0.3,0 0,0.08 0.15,0 0,-0.08 0.08,0 0,-0.08 0.07,0 0,-0.39 -0.15,0 0,-0.08 -0.37,0 0,-0.08 z m -7.26,-3.78 -0.15,0 0,0.08 -0.08,0 0,0.08 -0.15,0 0,0.16 -0.44,0 0,0.23 0.07,0 0,0.08 0.08,0 0,0.32 0.07,0 0,0.63 0.07,0 0,0.23 0.08,0 0,0.32 -0.08,0 0,0.08 0.08,0 0,0.07 0.07,0 0,0.08 0.15,0 0,0.08 0.23,0 0,0.08 0.37,0 0,-0.08 0.15,0 0,-0.31 0.08,0 0,-0.32 -0.08,0 0,-0.23 -0.07,0 0,-0.16 -0.08,0 0,-0.47 -0.15,0 0,-0.08 -0.07,0 0,-0.08 -0.08,0 0,-0.71 -0.07,0 0,-0.08 z m 22.99,-32.21 -1.87,-2.43 0,-0.81 0.12,-1.09 -0.37,-0.94 -0.5,-0.81 -0.5,-0.41 -1,-0.4 -0.12,0 -1.37,0 -1.49,0.28 -1.37,0.41 0,1.08 0.13,0.41 0,0.81 -0.12,0.4 -0.5,1.76 -2.11,0.14 -2.12,0.15 -0.12,0.4 -0.37,0.27 -1.99,1.09 -0.62,0.27 -0.62,0.01 -1.99,-0.13 -0.38,0.4 -0.74,1.36 -0.62,1.08 -3.35,0.69 -0.25,0.14 -1.37,1.63 -1.61,0.81 -0.87,1.22 0.01,0.27 0.13,2.57 -0.75,1.09 -0.99,0 -3.34,4.21 -0.99,1.76 -2.1,4.2 0.38,2.43 0.37,0.95 0.51,1.51 0.03,0 0.61,0 0,-0.08 0.15,0 0,0.08 0.07,0 0,-0.08 0.23,0 0,-0.07 0.22,0 0,-0.08 0.23,0 0,-0.08 0.37,0 0,-0.08 0.08,0 0,0.08 0.07,0 0,-0.08 0.52,0 0,0.08 0.08,0 0,-0.08 0.22,0 0,0.08 0.08,0 0,-0.08 0.3,0 0,-0.08 0.15,0 0,-0.08 0.22,0 0,-0.08 0.45,0 0,0.08 0.3,0 0,0.08 0.45,0 0,0.08 0.15,0 0,0.08 0.23,0 0,0.08 0.22,0 0,0.08 0.22,0 0,0.07 0.08,0 0,0.16 0.07,0 0,0.16 0.08,0 0,0.08 0.07,0 0,0.23 0.08,0 0,0.24 0.07,0 0,0.31 0.08,0 0,0.16 0.07,0 0,0.16 0.08,0 0,0.16 0.07,0 0,0.31 0.08,0 0,0.08 0.07,0 0,0.08 0.08,0 0,0.24 0.22,0 0,0.07 0.08,0 0,0.08 0.22,0 0,0.08 0.23,0 0,0.08 0.15,0 0,0.08 0.15,0 0,0.08 0.15,0 0,0.08 0.15,0 0,0.07 0.15,0 0,0.08 0.07,0 0,0.08 0.3,0 0,0.08 0.07,0 0,0.08 0.15,0 0,0.08 0.15,0 0,0.08 0.15,0 0,0.15 0.15,0 0,0.08 0.15,0 0,0.08 0.15,0 0,0.08 0.08,0 0,0.08 0.07,0 0,0.08 0.15,0 0,0.15 0.15,0 0,0.08 0.15,0 0,0.08 0.08,0 0,0.08 0.07,0 0,0.08 0.08,0 0,0.08 0.15,0 0,0.08 0.07,0 0,0.15 0.08,0 0,0.08 0.15,0 0,0.08 0.07,0 0,0.16 0.38,0 0,0.08 0.14,0 0,-0.08 0.3,0 0,0.08 0.08,0 0,0.16 0.22,0 0,-0.16 0.08,0 0,-0.32 -0.08,0 0,-0.08 -0.07,0 0,-0.07 -0.08,0 0,-0.16 -0.07,0 0,-0.08 -0.08,0 0,-0.24 0.15,0 0,-0.08 0.08,0 0,-0.07 0.3,0 0,0.07 0.3,0 0,0.08 0.07,0 0,0.08 0.08,0 0,0.24 0.07,0 0,0.47 0.08,0 0,0.08 0.07,0 0,0.31 0.08,0 0,0.87 -0.15,0 0,0.08 -0.08,0 0,0.31 0.08,0 0,0.08 0.07,0 0,0.16 0.08,0 0,0.08 0.07,0 0,0.31 0.08,0 0,0.47 -0.08,0 0,0.24 -0.07,0 0,0.08 -0.08,0 0,0.16 -0.07,0 0,0.08 -0.08,0 0,0.15 -0.07,0 0,0.32 0.07,0 0,0.08 0.08,0 0,0.23 0.07,0 0,0.16 0.15,0 0,0.32 0.08,0 0,0.07 0.07,0 0,0.16 0.08,0 0,0.08 0.14,0 0,-0.08 0.08,0 0,-0.08 0.08,0 0,-0.08 0.15,0 0,-0.07 0.22,0 0,-0.08 0.08,0 0,-0.16 0.14,0 0,-0.08 0.15,0 0,-0.08 0.08,0 0,-0.16 0.07,0 0,-0.07 0.08,0 0,-0.08 0.37,0 0,-0.08 0.23,0 0,0.08 0.15,0 0,-0.08 0.22,0 0,-0.16 0.08,0 0,-0.08 0.07,0 0,-0.08 0.08,0 0,-0.07 0.37,0 0,0.07 0.22,0 0,-0.15 0.08,0 0,-0.16 0.07,0 0,-0.08 0.08,0 0,-0.08 0.15,0 0,-0.08 0.22,0 0,0.08 0.08,0 0,0.16 0.07,0 0,0.24 0.08,0 0,0.07 0.07,0 0,0.08 0.23,0 0,-0.08 0.07,0 0,-0.07 0.53,0 0,0.07 0.15,0 0,0.08 0.15,0 0,0.08 0.22,0 0,0.08 0.23,0 0,0.08 0.07,0 0,0.08 0.15,0 0,0.08 0.3,0 0,0.07 0.07,0 0,0.08 0.08,0 0,0.08 0.07,0 0,0.08 0.23,0 0,0.08 0.15,0 0,0.08 0.07,0 0,0.08 0.08,0 0,0.08 0.07,0 0,0.07 0.08,0 0,0.08 0.15,0 0,0.08 0.07,0 0,0.32 0.08,0 0,0.07 0.07,0 0,0.16 -0.15,0 0,0.08 -0.22,0 0,-0.08 -0.08,0 0,-0.08 -0.07,0 0,-0.08 -0.15,0 0,-0.07 -0.15,0 0,0.07 0.08,0 0,0.32 0.07,0 0,0.16 0.07,0 0,0.15 0.08,0 0,0.08 0.15,0 0,0.16 0.07,0 0,0.08 0.15,0 0,0.08 0.15,0 0,0.08 0.08,0 0,0.07 0.07,0 0,0.08 0.08,0 0,0.16 0.6,0 0,0.08 0.3,0 0,-0.08 0.15,0 0,0.08 0.07,0 0,0.08 0.07,0 0,0.08 0.08,0 0,0.08 0.52,0 0,-0.08 0.08,0 0,0.08 0.07,0 0,0.15 -0.07,0 0,0.32 0.07,0 0,0.08 0.3,0 0,0.08 0.3,0 0,0.07 0.08,0 0,-0.07 0.07,0 0,-0.08 0.15,0 0,0.08 0.15,0 0,0.07 0.15,0 0,0.16 0.08,0 0,0.08 0.15,0 0,0.08 0.15,0 0,0.08 0.15,0 0,0.08 0.07,0 0,0.07 0.15,0 0,-0.07 0.08,0 0,-0.08 0.22,0 0,-0.08 0.07,0 0,-0.08 0.08,0 0,-0.16 0.15,0 0,0.08 0.07,0 0,0.16 -0.07,0 0,0.08 0.07,0 0,0.08 0.3,0 0,-0.16 0.08,0 0,-0.08 -0.08,0 0,-0.31 -0.07,0 0,-0.08 -0.08,0 0,-0.08 -0.15,0 0,-0.08 -0.15,0 0,0.08 -0.15,0 0,-0.08 -0.07,0 0,-0.08 -0.15,0 0,-0.24 0.07,0 0,-0.07 0.15,0 0,-0.08 0.23,0 0,-0.08 0.07,0 0,-0.24 -0.15,0 0,-0.08 -0.07,0 0,-0.15 -0.45,0 0,-0.08 -0.07,0 0,-0.08 -0.38,0 0,-0.08 0.08,0 0,-0.31 0.22,0 0,0.07 0.15,0 0,-0.07 0.15,0 0,0.07 0.15,0 0,-0.07 0.07,0 0,-0.08 0.15,0 0,-0.16 0.23,0 0,0.16 0.07,0 0,0.08 0.08,0 0,0.07 0.22,0 0,0.08 0.23,0 0,0.08 0.07,0 0,-0.08 0.45,0 0,0.08 0.08,0 0,0.08 -0.23,0 0,0.08 -0.07,0 0,0.08 -0.08,0 0,0.39 0.08,0 0,0.08 0.07,0 0,0.47 0.15,0 0,0.16 0.23,0 0,0.08 0.14,0 0,0.08 0.08,0 0,0.08 0.08,0 0,0.07 -0.08,0 0,0.16 -0.08,0 0,0.47 -0.07,0 0,0.16 -0.15,0 0,-0.08 -0.07,0 0,-0.08 -0.3,0 0,0.08 -0.08,0 0,0.08 0.08,0 0,0.16 0.07,0 0,0.08 0.3,0 0,0.23 -0.07,0 0,0.47 0.29,0 0,-0.07 0.16,0 0,-0.08 0.15,0 0,-0.08 0.07,0 0,-0.08 0.08,0 0,-0.08 0.07,0 0,-0.08 0.08,0 0,-0.08 0.07,0 0,-0.15 0.07,0 0,-0.08 0.08,0 0,-0.08 0.15,0 0,-0.08 0.07,0 0,-0.55 -0.07,0 0,-0.08 -0.08,0 0,-0.08 -0.07,0 0,-0.08 -0.08,0 0,-0.07 -0.07,0 0,-0.08 -0.07,0 0,-0.08 -0.15,0 0,-0.08 -0.08,0 0,-0.08 -0.15,0 0,-0.08 -0.07,0 0,-0.08 -0.08,0 0,-0.15 0.45,0 0,0.07 0.08,0 0,0.08 0.07,0 0,0.08 0.07,0 0,0.08 0.08,0 0,0.08 0.07,0 0,0.08 0.08,0 0,0.08 0.3,0 0,0.08 0.07,0 0,0.15 0.08,0 0,0.08 0.07,0 0,0.08 0.08,0 0,0.08 0.15,0 0,-0.08 0.07,0 0,-0.08 0.08,0 0,-0.08 0.15,0 0,-0.08 0.07,0 0,-0.07 0.15,0 0,-0.08 0.08,0 0,-0.08 0.07,0 0,-0.16 0.08,0 0,-0.24 0.07,0 0,-0.15 0.08,0 0,-0.08 -0.08,0 0,-0.08 -0.15,0 0,-0.08 -0.07,0 0,-0.08 -0.08,0 0,-0.39 0.08,0 0,-0.32 -0.08,0 0,-0.07 -0.15,0 0,-0.08 -0.07,0 0,-0.08 -0.08,0 0,-0.08 -0.07,0 0,-0.16 0.07,0 0,-0.08 -0.07,0 0,-0.15 0.07,0 0,-0.16 0.08,0 0,-0.16 -0.08,0 0,-0.55 -0.07,0 0,-0.08 -0.08,0 0,-0.16 -0.6,0 0,-0.23 0.08,0 0,-0.16 0.07,0 0,-0.08 0.08,0 0,-0.08 0.15,0 0,-0.07 0.15,0 0,-0.08 0.3,0 0,-0.08 0.37,0 0,-0.08 0.23,0 0,-0.08 0.15,0 0,0.08 0.07,0 0,0.08 0.15,0 0,0.08 0.15,0 0,0.08 0.07,0 0,-0.08 0.08,0 0,-0.08 0.08,0 0,-0.08 0.07,0 0,-0.08 -0.07,0 0,-0.39 -0.08,0 0,-0.08 -0.08,0 0,-0.16 -0.07,0 0,-0.16 0.07,0 0,-0.08 0.16,0 0,-0.07 0.07,0 0,-0.08 0.08,0 0,-0.08 0.07,0 0,-0.08 0.07,0 0,-0.08 0.6,0 0,0.39 0.08,0 0,0.24 0.07,0 0,-0.63 0.08,0 0,-0.16 0.07,0 0,-0.08 0.3,0 0,-0.07 0.08,0 0,-0.08 0.15,0 0,-0.16 0.07,0 0,-0.08 0.08,0 0,-0.08 0.22,0 0,-0.15 0.08,0 0,-0.24 -0.08,0 0,-0.24 0.22,0 0,0.08 0.15,0 0,0.08 0.16,0 0,0.08 0.07,0 0,0.08 0.07,0 0,0.08 0.08,0 0,0.08 0.07,0 0,0.07 0.38,0 0,-0.39 -0.08,0 0,-0.16 -0.07,0 0,-0.08 -0.07,0 0,-0.07 -0.08,0 0,-0.08 -0.08,0 0,-0.08 -0.15,0 0,-0.08 -0.07,0 0,-0.16 0.07,0 0,-0.16 0.23,0 0,-0.07 0.3,0 0,0.07 0.3,0 0,0.08 0.07,0 0,0.08 0.23,0 0,-0.16 0.07,0 0,-0.07 0.08,0 0,-0.08 0.07,0 0,-0.08 0.08,0 0,-0.16 0.07,0 0,-0.16 0.6,0 0,-0.08 0.15,0 0,-0.07 0.08,0 0,-0.08 0.17,0 0.11,-4.48 0,-1.08 0,-0.14 -0.01,-4.33 0,-0.13 -0.01,-3.65 0.13,-0.55 1.36,-1.62 0.62,-0.27 0.25,-0.14 2.73,-1.22 3.23,-2.31 2.36,-4.87 -1.99,-0.95 -1.25,0.01 -0.49,0.27 -3.49,0.82 -1.61,0.68 -0.75,0.27 -0.75,-2.43 0,-0.14 0.13,0 0.49,-0.27 0.25,-0.41 0,-0.4 0,-1.22 0.12,-0.27 -0.25,-0.95 -1.87,-0.94 z" 
                fill="rgb(151, 144, 238)" 
                stroke="white" 
                stroke-width=".7px"
                title="Salinas" 
                id="PR-SA" 
            />
        </svg>