<svg xmlns="http://www.w3.org/2000/svg" viewBox="491.78000000000003 12.159999999999936 36.59999999999951 50.21999999999997" width="36.59999999999951" height="50.21999999999997">
            <path 
                d="m 492.46,12.16 -0.38,0 0,0.08 -0.15,0 0,0.07 -0.07,0 0,0.08 -0.08,0 0,0.4 0.15,0 0,0.08 0.3,0 0,0.16 0.08,0 0,0.39 0.07,0 0,0.16 0.08,0 0,0.08 0.07,0 0,0.08 0.07,0 0,0.07 0.15,0 0,0.08 0.15,0 0,0.08 0.15,0 0,0.08 0.15,0 0,0.08 0.08,0 0,0.08 0.15,0 0,0.08 0.15,0 0,0.08 0.15,0 0,0.39 0.07,0 0,0.16 0.08,0 0,0.16 0.07,0 0,0.08 0.08,0 0,0.08 -0.08,0 0,0.07 0.08,0 0,0.08 0.07,0 0,0.16 0.08,0 0,0.16 0.07,0 0,0.08 0.08,0 0,0.08 0.07,0 0,0.08 0.08,0 0,0.23 0.07,0 0,0.08 0.08,0 0,0.08 0.07,0 0,-0.08 0.08,0 0,-0.08 0.07,0 0,-0.08 0.08,0 0,-0.08 0.07,0 0,-0.07 0.08,0 0,-0.08 0.07,0 0,-0.08 -0.07,0 0,-0.16 -0.08,0 0,-0.16 -0.07,0 0,-0.08 0.07,0 0,-0.08 0.15,0 0,0.08 0.08,0 0,0.08 0.29,0 0,-0.16 0.08,0 0,-0.07 0.07,0 0,-0.08 0.15,0 0,-0.08 0.08,0 0,-0.08 0.15,0 0,-0.08 0.15,0 0,0.16 0.07,0 0,0.16 -0.07,0 0,0.15 0.07,0 0,0.16 0.08,0 0,0.24 0.07,0 0,0.08 0.08,0 0,-0.08 0.07,0 0,-0.08 0.15,0 0,-0.4 0.08,0 0,-0.15 0.52,0 0,0.08 0.08,0 0,0.07 0.37,0 0,0.08 0.3,0 0,0.08 0.23,0 0,0.08 0.29,0 0,0.08 0.38,0 0,0.08 0.37,0 0,0.08 0.23,0 0,-0.08 0.07,0 0,-0.08 0.08,0 0,-0.08 0.22,0 0,-0.08 0.67,0 0,0.08 0.08,0 0,0.24 0.23,0 0,0.08 0.15,0 0,0.08 0.14,0 0,0.07 0.23,0 0,-0.07 0.15,0 0,0.07 0.07,0 0,0.32 0.08,0 0,0.08 0.07,0 0,0.08 0.08,0 0,0.16 -0.23,0 0,0.08 -0.52,0 0,-0.24 0.07,0 0,-0.24 -0.07,0 0,-0.08 -0.45,0 0,-0.08 -0.37,0 0,-0.08 -0.75,0 0,0.08 -0.15,0 0,0.16 -0.08,0 0,0.08 -0.15,0 0,-0.08 -0.07,0 0,-0.16 -0.08,0 0,-0.08 -0.15,0 0,-0.07 -0.07,0 0,-0.08 -0.08,0 0,-0.08 -0.07,0 0,-0.08 -0.3,0 0,0.08 -0.07,0 0,0.08 -0.08,0 0,0.08 -0.15,0 0,-0.08 -0.15,0 0,-0.08 -0.22,0 0,0.08 -0.16,0 0,0.08 -0.07,0 0,0.07 -0.07,0 0,0.08 -0.08,0 0,0.24 -0.07,0 0,0.08 0.07,0 0,0.08 -0.07,0 0,0.08 -0.08,0 0,0.08 0.08,0 0,0.15 -0.08,0 0,0.16 0.08,0 0,0.08 0.15,0 0,0.24 0.07,0 0,0.15 0.07,0 0,0.16 0.16,0 0,0.08 0.07,0 0,0.08 0.08,0 0,0.08 0.07,0 0,0.08 0.07,0 0,0.08 0.16,0 0,0.31 -0.08,0 0,0.08 -0.08,0 0,0.24 -0.07,0 0,0.08 0.07,0 0,0.08 0.16,0 0,0.08 0.07,0 0,-0.08 0.22,0 0,-0.08 0.08,0 0,-0.08 0.07,0 0,-0.16 0.15,0 0,-0.08 0.15,0 0,0.08 0.38,0 0,0.08 0.22,0 0,0.08 0.08,0 0,0.08 0.3,0 0,0.08 0.07,0 0,0.08 0.15,0 0,0.07 0.08,0 0,0.08 0.15,0 0,0.08 0.07,0 0,0.16 0.07,0 0,0.08 0.08,0 0,0.24 0.15,0 0,0.07 0.07,0 0,-0.07 0.31,0 0,0.07 0.07,0 0,0.08 0.07,0 0,0.08 0.08,0 0,0.24 0.07,0 0,-0.16 0.08,0 0,-0.08 0.07,0 0,-0.16 0.15,0 0,-0.07 0.15,0 0,-0.08 0.15,0 0,-0.08 0.23,0 0,-0.08 0.07,0 0,0.08 0.53,0 0,0.08 0.3,0 0,0.08 0.07,0 0,0.15 0.07,0 0,0.08 0.08,0 0,0.08 0.07,0 0,0.24 0.08,0 0,0.08 0.15,0 0,0.08 0.07,0 0,0.71 -0.07,0 0,0.08 -0.08,0 0,0.15 -0.07,0 0,0.16 -0.15,0 0,0.08 -0.82,0 0,0.08 -0.23,0 0,0.08 -0.45,0 0,0.16 -0.07,0 0,0.07 -0.08,0 0,0.16 -0.07,0 0,0.08 -0.08,0 0,0.08 -0.07,0 0,0.08 -0.08,0 0,0.16 -0.07,0 0,0.08 -0.08,0 0,0.07 -0.07,0 0,0.08 -0.22,0 0,0.08 -0.08,0 0,0.08 -0.23,0 0,0.08 -0.15,0 0,0.08 -0.44,0 0,0.08 -0.08,0 0,0.08 -0.15,0 0,0.15 -0.15,0 0,0.08 -0.07,0 0,0.08 -0.08,0 0,0.08 -0.07,0 0,0.16 -0.08,0 0,0.08 -0.07,0 0,0.08 -0.08,0 0,0.08 -0.15,0 0,0.07 -0.22,0 0,0.08 -0.15,0 0,0.08 -0.15,0 0,0.08 -0.22,0 0,0.08 -0.15,0 0,0.08 -0.16,0 0,0.08 -0.07,0 0,0.08 -0.07,0 0,0.08 -0.08,0 0,0.15 -0.87,0 0.15,0.26 0.25,0.27 1.99,2.17 0.26,0.54 0.87,3.92 -0.12,0.41 -0.38,0.54 -2.62,-0.54 -0.12,0.14 -0.25,1.21 0,2.44 0.5,1.76 1,0.81 2,0.54 0.25,0.54 0.37,1.08 1.13,4.2 -0.37,0.27 -1.25,0.4 -0.5,0.41 -0.5,0.95 -0.37,2.16 0.88,1.36 2.49,1.35 0.13,0.27 -0.5,1.89 0,0.54 0,1.09 0.13,0.4 1.49,2.98 -0.24,0.81 -0.5,1.35 0.12,0.14 1.13,0.67 0.99,0.27 1,-0.4 0.5,-0.41 1.37,-1.08 3.62,-0.01 1,1.36 0.12,0.13 0.37,-0.13 0.5,-0.27 -0.5,-1.49 -0.12,-0.68 0.12,-0.68 0.5,-0.67 0.75,-0.27 0.25,0 0.12,0.13 1.62,-2.16 -0.12,-0.41 -0.25,-0.68 0.12,-1.22 0.63,-2.03 -0.88,-3.11 1,-2.43 0,-0.54 -0.63,-3.39 0.25,-0.4 0.5,-0.82 2.12,-2.03 3.12,0.27 1.5,0 1.75,-0.27 0.12,0 0.5,-0.13 -0.12,0 -0.88,-1.49 0.13,-2.71 2.74,-0.94 0.25,0 -0.12,-0.14 0,-0.27 -0.38,-2.17 -2.12,-0.54 -2.12,-1.08 -3.12,-2.03 -2.25,-1.76 -0.25,-0.4 -0.5,-1.22 -0.25,-1.22 -1,-0.81 -0.75,-0.41 -1.12,-0.94 1.75,-1.76 0.04,-0.04 0,-0.08 -0.03,0 -0.05,0 0,-0.08 -0.07,0 0,-0.08 -0.08,0 0,-0.16 -0.07,0 0,-0.15 -0.08,0 0,-0.16 -0.07,0 0,-0.16 -0.08,0 0,-0.16 -0.07,0 0,-0.08 -0.08,0 0,-0.08 -0.22,0 0,0.08 -0.15,0 0,0.08 -0.08,0 0,-0.08 -0.22,0 0,0.08 -0.15,0 0,0.08 -0.07,0 0,0.08 -0.15,0 0,0.08 -0.3,0 0,0.08 -0.08,0 0,-0.08 -0.15,0 0,0.08 -0.15,0 0,-0.08 -0.07,0 0,0.08 -0.45,0 0,0.08 -0.3,0 0,-0.08 -0.3,0 0,-0.08 -0.15,0 0,-0.16 -0.23,0 0,-0.08 -0.15,0 0,-0.08 -0.37,0 0,-0.08 -0.15,0 0,-0.07 -0.15,0 0,0.07 -0.9,0 0,0.08 -0.07,0 0,-0.08 -0.83,0 0,-0.15 -0.37,0 0,-0.08 -0.15,0 0,-0.08 -0.08,0 0,-0.08 -0.07,0 0,-0.08 -0.07,0 0,-0.08 -0.08,0 0,-0.08 -0.15,0 0,-0.07 -0.07,0 0,-0.08 -0.38,0 0,-0.16 -0.22,0 0,0.08 -0.3,0 0,0.08 -0.6,0 0,-0.08 -0.08,0 0,0.08 -0.22,0 0,-0.08 -0.23,0 0,0.08 -0.07,0 0,-0.08 -0.08,0 0,-0.08 -0.15,0 0,-0.08 -0.15,0 0,-0.08 -0.07,0 0,-0.16 -0.07,0 0,-0.08 -0.08,0 0,-0.08 -0.07,0 0,-0.07 -0.15,0 0,-0.08 -0.38,0 0,-0.08 -0.15,0 0,-0.08 -0.22,0 0,-0.08 -0.15,0 0,-0.08 -0.08,0 0,-0.08 -0.45,0 0,-0.08 -0.37,0 0,0.08 -0.15,0 0,0.08 -0.08,0 0,0.16 -0.07,0 0,0.24 0.15,0 0,0.07 0.82,0 0,0.16 0.23,0 0,0.08 0.22,0 0,0.08 0.08,0 0,0.08 0.07,0 0,0.08 0.15,0 0,0.16 0.08,0 0,0.31 0.07,0 0,0.08 -0.07,0 0,0.16 -0.08,0 0,0.08 -0.45,0 0,-0.16 -0.15,0 0,-0.08 -0.07,0 0,-0.08 -0.08,0 0,-0.08 -0.07,0 0,-0.08 -0.08,0 0,-0.07 -0.37,0 0,-0.08 -0.07,0 0,-0.08 -0.9,0 0,-0.16 -0.08,0 0,-0.08 -0.07,0 0,-0.08 -0.08,0 0,-0.31 -0.07,0 0,-0.24 0.07,0 0,-0.16 0.08,0 0,-0.08 0.15,0 0,-0.08 0.14,0 0,-0.08 0.15,0 0,-0.07 0.08,0 0,-0.32 -0.08,0 0,-0.24 -0.07,0 0,-0.08 -0.37,0 0,0.08 -0.08,0 0,-0.08 -0.07,0 0,-0.08 -0.08,0 0,-0.23 -0.07,0 0,-0.08 -0.08,0 0,-0.16 0.3,0 0,-0.16 -0.07,0 0,-0.08 -0.08,0 0,-0.07 -0.07,0 0,-0.08 -0.23,0 0,-0.08 -0.3,0 0,-0.16 -0.07,0 0,0.24 -0.15,0 0,0.08 -0.08,0 0,0.07 -0.22,0 0,0.08 -0.15,0 0,0.08 -0.23,0 0,-0.08 -0.07,0 0,0.08 -0.22,0 0,-0.08 -0.08,0 0,0.08 -0.3,0 0,0.08 -0.3,0 0,0.08 -0.9,0 0,-0.08 -0.15,0 0,-0.08 -0.07,0 0,-0.08 -0.15,0 0,-0.08 -0.15,0 0,-0.07 -0.08,0 0,-0.16 -0.07,0 0,-0.24 -0.23,0 0,0.08 -0.14,0 0,0.08 -0.08,0 0,0.08 -0.15,0 0,0.08 -0.22,0 0,0.08 -0.31,0 0,-0.08 -0.07,0 0,-0.16 -0.15,0 0,-0.08 -0.15,0 0,-0.08 -0.15,0 0,0.08 -0.67,0 0,0.08 -0.15,0 0,-0.08 -0.68,0 0,-0.08 -0.07,0 0,-0.08 -0.3,0 0,-0.08 -0.22,0 0,-0.08 -0.15,0 0,-0.07 -0.08,0 0,0.07 -0.3,0 0,-0.07 -0.15,0 0,0.07 -0.15,0 0,-0.07 -0.52,0 0,-0.16 -0.15,0 0,-0.08 -0.08,0 0,-0.08 -0.22,0 0,-0.08 -0.08,0 0,-0.08 -0.22,0 0,-0.08 -0.15,0 0,-0.08 -0.08,0 0,-0.08 -0.07,0 0,-0.07 -0.07,0 0,-0.08 z" 
                fill="rgb(151, 144, 238)" 
                stroke="white" 
                stroke-width=".7px"
                title="San Juan" 
                id="PR-SJ" 
            />
        </svg>