<svg xmlns="http://www.w3.org/2000/svg" viewBox="511.8299999999999 81.32000000000001 34.350000000000136 43.690000000000026" width="34.350000000000136" height="43.690000000000026">
            <path 
                d="m 539.22,81.45 -2.87,-0.13 -2.61,0.13 -2.75,2.3 -0.24,0.14 -0.63,0.13 -0.37,-0.13 -0.62,0.13 -0.38,0.14 -0.12,0.4 -0.38,1.76 -0.24,0.41 -1.38,0.95 -0.62,2.7 0.13,0.41 0.37,1.08 -0.25,0.4 -0.5,0.55 -0.5,0.67 -0.24,0.27 -0.13,0 -2.36,0.95 -0.13,0.27 -1.87,3.65 -0.49,0.95 0,0.54 -0.25,2.84 0.74,2.3 0,0.41 -0.99,2.03 0,0.27 -0.62,0.54 -1.74,1.22 0.12,0.67 -0.12,0.55 -0.63,1.62 -0.87,0.54 -0.5,0.41 -0.62,0.54 -2.73,0.14 0.37,0.94 0.12,0.27 0.63,0.54 1.12,0.68 0.49,0.27 1.37,0.27 1.12,0.27 0.62,0 1,0.13 1.37,-0.27 0.75,-0.13 1.86,1.89 0,0.81 -0.37,0.27 -1.37,2.17 -0.12,0.4 0.37,0.55 2.11,1.75 0.88,0 0.49,-0.13 1.5,-1.76 1.61,-2.17 2.37,0.41 1.99,-1.89 1.99,1.49 1.49,0.81 0.13,0 0.49,0.13 1.12,-0.81 0.13,-0.27 0.5,-0.4 0.87,-0.27 0.62,0 0.99,0.4 0.63,0.41 0.37,0.13 0.25,0 1.49,-0.67 0.75,-0.54 0.75,-0.95 0.74,-1.89 0.38,-1.49 0.25,-0.81 -0.13,-2.3 -0.37,-0.54 0.5,-2.7 0.13,-0.82 0,-0.13 -0.25,-1.22 -0.62,-1.08 -0.37,-3.66 -0.63,-1.62 0.26,-1.89 0.99,-2.57 -0.12,-3.39 -0.37,-2.3 -1.74,-0.27 -0.38,-0.4 -0.37,-0.41 -2.24,-2.3 -0.25,-0.27 -1.12,-1.63 0.25,-3.79 z" 
                fill="rgb(151, 144, 238)" 
                stroke="white" 
                stroke-width=".7px"
                title="San Lorenzo" 
                id="PR-SL" 
            />
        </svg>