<svg xmlns="http://www.w3.org/2000/svg" viewBox="242.3199999999999 34.57 43.000000000000085 40.029999999999966" width="43.000000000000085" height="40.029999999999966">
            <path 
                d="m 260.56,37.07 -1.88,-0.92 -1.51,-0.66 -1.25,-0.53 -1,-0.39 -5.74,0.2 -1.48,2.18 -1.22,2.32 -0.24,1.35 0,0.14 -0.24,0.54 0.01,0.82 0,0.13 -0.12,0.54 -0.61,1.9 -0.12,0.41 -0.12,0.27 -1.49,0.7 0.13,0.27 0.13,0.81 1.15,2.55 0.89,1.08 0.75,1.07 0.14,1.22 -0.24,0.81 -1.11,1.37 -3.07,4.23 3.26,1.72 0.78,3.1 1.5,0.93 0.9,2.16 0.24,-0.01 2.75,0.51 0.62,-0.14 2.24,-0.43 0.38,-0.01 3.5,0.91 1.5,0.26 1.74,-0.3 0.37,0 0.25,0 1.38,0.52 0.51,1.08 0.26,1.22 0.13,0.53 0.12,0.14 0.63,-0.01 0.49,-0.68 0.99,-1.09 0.49,-0.41 0.62,-0.15 2.87,-0.3 0.25,-0.14 0.12,0.14 0.53,3.1 0.13,0.41 1.25,0.53 0.25,0.13 2.75,0.78 2.49,-0.02 2.87,0.64 -0.4,-3.65 -0.53,-3.51 0.22,-2.71 -0.02,-2.43 0.11,-1.9 1.33,-4.61 0,-0.55 0.12,-0.4 1.7,-5.3 1.31,-7.32 -1.5,0.29 -1.25,0.01 -0.37,0 -0.25,-0.26 -0.51,-1.35 -0.63,-0.54 -1.13,-0.53 -1.51,-0.93 -0.63,-1.34 -0.13,-0.54 -0.26,-0.41 0.36,-1.76 -1.87,0.15 -0.49,0.28 -1.12,0.96 -0.12,0.27 -0.49,0.82 0.01,0.81 0,0.14 0.13,0.54 0,0.67 -2.37,0.43 -0.87,-0.39 -2.89,-1.46 -3.88,-1.18 -1.5,-0.11 -1.37,0.42 -0.12,-0.14 z" 
                fill="rgb(151, 144, 238)" 
                stroke="white" 
                stroke-width=".7px"
                title="San Sebastián" 
                id="PR-SS" 
            />
        </svg>