<svg xmlns="http://www.w3.org/2000/svg" viewBox="227.11999999999983 97.09 37.36000000000013 34.450000000000045" width="37.36000000000013" height="34.450000000000045">
            <path 
                d="m 247.07,98.8 -2.36,-0.38 -1.01,-0.53 -0.37,-0.27 -0.5,-0.53 -0.25,0 -2.37,0.03 -0.13,0 -2.98,0.31 -0.25,0 -2.35,1.38 -0.13,0.01 -0.61,0.95 -0.36,0.82 -0.36,1.76 0.01,0.54 0.26,1.08 0.5,0.4 -0.36,0.95 -0.25,0.14 -1.99,0.57 0.01,0.27 -0.11,1.89 0.27,2.03 3.77,3.06 0.5,0.27 -0.12,0.54 0,0.27 -0.24,0.68 -0.24,0.54 -0.37,0.55 -1.61,0.7 -1,-0.13 -2.61,-0.37 -1.2,4.61 -0.11,0.95 -0.23,1.9 0.01,1.49 0.75,-0.01 0.37,-0.01 0.13,0.14 0.75,0.8 0,0.14 0.01,0.4 -0.12,0.54 -0.25,0.14 -0.74,0.28 -1.11,1.1 -0.6,1.63 3.47,-1.26 1.74,-0.16 0.49,-0.01 2.98,-0.57 1.86,-0.57 2.37,0.24 1.62,0.39 3.86,0.77 3.73,-0.18 2.37,0.64 2.74,-0.43 1.63,1.47 2.62,0.78 2.36,-0.03 0.68,-7.18 -0.77,-2.96 -0.04,-3.79 -0.12,-0.14 0.11,-1.35 0.24,-0.54 0.49,-0.68 0.6,-2.85 1.11,-1.1 0.99,-0.68 0.12,-0.14 0.11,-1.08 -2.02,-3.36 -3.13,-1.32 -0.87,-0.53 -0.13,-0.27 -0.13,-0.14 0,-0.13 0,-0.27 -0.26,-0.54 -0.5,-0.4 -0.25,0 -0.37,-0.13 -0.87,0.01 -0.63,-0.13 -0.75,-0.53 -1.5,-0.93 -2.38,-1.05 -1.24,-0.13 -0.13,0.01 -2.25,-0.38 z" 
                fill="rgb(151, 144, 238)" 
                stroke="white" 
                stroke-width=".7px"
                title="San Germán" 
                id="PR-SG" 
            />
        </svg>