<svg xmlns="http://www.w3.org/2000/svg" viewBox="454.8500000000002 11.29 35.209999999999695 24.760000000000005" width="35.209999999999695" height="24.760000000000005">
            <path 
                d="m 475.91,13.1 -0.07,0 0,0.08 -0.08,0 0,0.08 -0.15,0 0,0.08 -0.15,0 0,0.08 -0.15,0 0,0.16 -0.15,0 0,0.08 -0.15,0 0,0.08 -0.22,0 0,0.07 -0.08,0 0,0.08 -0.3,0 0,0.08 -0.15,0 0,0.08 -0.37,0 0,0.08 -0.15,0 0,0.08 -0.08,0 0,-0.08 -1.04,0 0,-0.08 -0.08,0 0,-0.08 -0.07,0 0,-0.47 -0.08,0 0,-0.08 -0.22,0 0,0.32 -0.08,0 0,0.15 -0.07,0 0,0.08 -0.15,0 0,0.08 -0.23,0 0,0.08 -0.15,0 0,-0.08 -0.22,0 0,0.08 -0.3,0 0,0.08 -0.38,0 0,-0.08 -0.07,0 0,-0.08 -0.37,0 0,-0.08 -0.08,0 0,0.08 -1.01,0 -1.88,1.17 -1.62,1.09 -1.74,1.22 0.12,1.08 -1.37,-0.67 -1,-0.68 -0.62,-0.13 -0.75,0.27 -0.38,0.27 -0.62,0.68 -1.63,-0.8 -1.12,-0.27 -0.25,1.35 0,0.41 1.01,2.43 0.12,0.41 -0.12,0.13 -0.74,2.17 -0.37,2.03 -0.25,0.27 -1,0.55 0,0.13 0.13,1.08 0.37,0.55 1.13,-0.55 0.37,0.27 0.13,0.68 0.12,0.4 -0.12,0 -1,0.82 1.01,3.65 1,0.54 2.12,-0.15 0.13,0 1.12,-0.67 0.75,-0.41 0.62,-0.68 0.25,-0.14 0.37,0.14 9.62,3.36 0.37,-2.17 -0.25,-0.95 -0.38,-1.08 0.37,-1.35 -0.37,-1.76 1.74,-0.95 0.5,-0.14 0.5,-0.13 0.12,-0.41 0.5,-0.27 0.88,-0.14 0.75,0.54 0.25,0.27 1,-0.27 0.25,-0.14 0.37,-0.13 0.62,-0.95 0.13,-0.41 -0.25,-0.95 0,-0.13 0.37,-0.41 -0.25,-0.67 0,-0.28 0.12,-0.27 0.13,0 0.87,-0.27 0.25,-0.54 0.37,-0.95 0,-0.68 0.13,-0.54 0.87,0 0.37,0 1,0 0.25,0 0.63,-0.68 0.62,-0.68 0.25,-0.27 0.5,-1.08 2.31,-1.19 0,-0.07 -0.07,0 0,-0.08 -0.08,0 0,-0.16 -0.07,0 0,-0.16 -0.08,0 0,-0.16 -0.07,0 0,-0.23 -0.08,0 0,-0.4 0.08,0 0,-0.24 -0.23,0 0,0.08 -0.22,0 0,0.32 -0.23,0 0,-0.08 -0.15,0 0,-0.08 -0.07,0 0,0.08 -0.15,0 0,0.08 -0.23,0 0,0.08 -0.07,0 0,0.08 -0.08,0 0,0.08 -0.07,0 0,0.08 -0.08,0 0,0.07 -0.07,0 0,0.16 -0.07,0 0,0.16 -0.15,0 0,0.08 -0.08,0 0,0.16 -0.07,0 0,0.08 -0.08,0 0,0.15 -0.07,0 0,0.16 -0.23,0 0,0.08 -0.07,0 0,0.08 -0.15,0 0,0.08 -0.08,0 0,0.08 -0.22,0 0,0.08 -0.08,0 0,0.15 -0.07,0 0,0.16 -0.15,0 0,0.08 -0.08,0 0,0.08 -0.07,0 0,0.08 -0.15,0 0,0.08 -0.08,0 0,0.08 -0.07,0 0,0.07 -0.08,0 0,0.16 -0.07,0 0,0.08 -0.23,0 0,-0.08 -0.15,0 0,0.08 -0.07,0 0,0.08 -0.23,0 0,0.08 -0.14,0 0,0.08 -0.15,0 0,0.08 -0.08,0 0,-0.08 -0.15,0 0,0.08 -0.22,0 0,0.16 -0.23,0 0,0.07 -0.15,0 0,0.08 -0.07,0 0,0.16 -0.15,0 0,-0.08 -0.08,0 0,-0.16 -0.07,0 0,-0.07 -0.15,0 0,0.07 -0.08,0 0,0.08 -0.07,0 0,0.08 -0.15,0 0,-0.08 -0.22,0 0,0.08 -0.15,0 0,0.08 -0.08,0 0,0.08 -0.53,0 0,-0.08 -0.22,0 0,0.08 -0.3,0 0,-0.08 -0.45,0 0,-0.08 -0.15,0 0,0.08 -0.15,0 0,-0.08 -0.15,0 0,-0.08 -0.07,0 0,-0.08 -0.3,0 0,-0.07 -0.08,0 0,-0.08 -0.15,0 0,-0.08 -0.14,0 0,-0.08 -0.15,0 0,-0.08 -0.15,0 0,-0.08 -0.23,0 0,-0.08 -0.22,0 0,-0.08 -0.08,0 0,-0.08 -0.07,0 0,-0.08 -0.23,0 0,-0.07 -0.07,0 0,-0.32 -0.15,0 0,-0.16 -0.08,0 0,0.08 -0.15,0 0,-0.08 -0.15,0 0,-0.15 -0.15,0 0,-0.08 -0.07,0 0,-0.16 -0.08,0 0,-0.08 -0.07,0 0,-0.08 -0.08,0 0,-0.08 -0.07,0 0,-0.08 -0.08,0 0,-0.08 -0.07,0 0,-0.08 -0.08,0 0,-0.15 -0.07,0 0,-0.16 0.07,0 0,-0.24 -0.07,0 0,-0.23 -0.08,0 0,-0.24 -0.07,0 0,-0.08 0.07,0 0,-0.08 -0.07,0 0,-0.08 -0.08,0 0,-0.16 -0.07,0 0,-0.15 -0.07,0 0,-0.32 0.07,0 0,-0.24 -0.07,0 0,-0.08 -0.08,0 0,-0.71 z m 0.97,-1.81 -0.07,0 0,0.08 -0.97,0 0,0.08 -0.15,0 0,0.23 0.15,0 0,-0.08 0.15,0 0,0.16 0.07,0 0,0.08 -0.07,0 0,0.63 0.07,0 0,0.08 0.07,0 0,-0.08 0.08,0 0,-0.08 0.07,0 0,-0.08 0.08,0 0,-0.15 0.07,0 0,-0.08 0.08,0 0,-0.08 0.15,0 0,-0.08 0.15,0 0,-0.08 0.15,0 0,-0.08 0.07,0 0,-0.08 0.3,0 0,0.16 0.08,0 0,0.24 0.07,0 0,0.08 0.23,0 0,-0.08 0.07,0 0,-0.16 0.08,0 0,-0.32 -0.08,0 0,-0.07 -0.6,0 0,-0.08 -0.15,0 0,-0.08 -0.15,0 0,-0.08 z m 11.61,0 -0.15,0 0,0.16 -0.15,0 0,0.23 0.07,0 0,0.16 0.08,0 0,0.08 0.15,0 0,0.08 0.15,0 0,0.16 0.15,0 0,0.08 0.07,0 0,0.15 0.08,0 0,0.16 0.07,0 0,0.71 0.08,0 0,0.16 0.07,0 0,0.16 -0.07,0 0,0.31 0.07,0 0,0.08 0.15,0 0,-0.08 0.08,0 0,-0.15 0.07,0 0,-0.79 0.15,0 0,-0.16 0.15,0 0,-0.08 0.15,0 0,-0.08 0.05,0 0.1,0 0,-0.24 -0.06,0 -0.24,0 0,-0.23 0.15,0 0,-0.08 0.07,0 0,-0.16 -0.07,0 0,-0.08 -0.45,0 0,0.08 -0.07,0 0,0.08 0.07,0 0,0.08 -0.22,0 0,-0.16 -0.08,0 0,-0.16 -0.07,0 0,-0.08 -0.08,0 0,-0.08 -0.37,0 0,-0.07 -0.08,0 0,-0.16 -0.07,0 0,-0.08 z" 
                fill="rgb(151, 144, 238)" 
                stroke="white" 
                stroke-width=".7px"
                title="Toa Baja" 
                id="PR-TB" 
            />
        </svg>