<svg xmlns="http://www.w3.org/2000/svg" viewBox="440.03999999999996 32.55 32.930000000000064 24.07" width="32.930000000000064" height="24.07">
            <path 
                d="m 472.97,36.05 -9.62,-3.36 -0.37,-0.14 -0.25,0.14 -0.62,0.68 -0.75,0.41 -1.12,0.67 -0.13,0 -2.12,0.15 -0.62,1.22 -0.87,0.68 -0.63,0.13 -1,-0.27 -1.49,0.55 -0.25,0.14 -0.25,0.54 -2.99,0.14 -1,0.01 -0.63,-0.68 -4.11,0.42 -0.38,0 -0.87,0.28 -1.5,0.68 -0.12,0.13 -0.62,1.5 -0.62,0.95 0.13,1.21 0.87,0.4 0.75,0.41 0.38,0 0.87,-0.14 0.25,-0.27 0.74,-0.41 0.26,0.27 2,1.89 0.5,0.27 0.75,0.8 0.37,0.27 0.38,0.54 0.38,0.68 0.62,1.35 0.25,0.54 1.63,3.78 -0.12,0.28 0.25,-0.01 1.12,0.14 0.5,0.13 2.25,-0.28 1.12,-0.68 1.62,1.08 1.13,0.67 0.62,-1.35 0,-0.14 0.24,-0.13 1.63,-0.28 0.25,0 0.12,0.27 1.13,2.16 0,0.14 0.25,0 0.62,-0.27 1.37,-1.5 1.12,-0.81 1.12,-0.27 0.25,0.27 0.63,2.29 0.25,0.28 1.5,-0.01 0.5,2.03 1.12,-3.52 -0.63,-2.16 1.12,-0.95 -0.26,-1.9 0.25,-2.3 0.62,-1.62 0,-0.41 -0.13,-0.95 -0.37,-0.94 -0.13,-0.27 0.12,-0.95 0.62,-4.6 z" 
                fill="rgb(151, 144, 238)" 
                stroke="white" 
                stroke-width=".7px"
                title="Toa Alta" 
                id="PR-TA" 
            />
        </svg>