<svg xmlns="http://www.w3.org/2000/svg" viewBox="302.23999999999995 47.36 71.03000000000026 56.309999999999974" width="71.03000000000026" height="56.309999999999974">
            <path 
                d="m 331.81,53.7 -0.63,-1.35 0.74,-1.09 0.12,-0.27 -0.25,-0.4 -0.75,-0.54 -0.76,-1.07 -1.13,-1.62 -1.25,0.28 -0.87,0.42 -0.24,0.27 -0.38,0.41 -1.36,0.69 -1.87,0.83 -1.12,0.55 -3.59,3.41 0.01,1.22 -4.12,-0.24 -2.37,-0.11 -8.6,-0.33 -0.36,2.31 0,0.13 0.13,0.14 0.63,1.35 -1.32,6.23 -0.23,2.71 1.01,1.34 0.27,2.03 -0.12,1.08 -0.24,0.82 -0.09,4.33 0.12,0.13 2.65,3.77 3.62,0.78 0.75,-0.01 0.24,-0.27 0.25,-0.41 -0.26,-1.49 -0.14,-1.35 -0.12,-0.27 0.24,-0.54 1.36,-1.77 0,-0.14 0.12,-0.14 0.37,0 2.87,-0.16 1,0.67 3.89,3.07 0.13,0.41 0.63,1.35 0.26,1.21 0,0.27 0.13,0.14 1.12,0.53 0.13,0.13 4.24,0.64 0.12,0 1.98,-1.5 6.5,2.65 3.86,-0.03 0.13,0 0.13,0.27 1.38,1.74 0.37,0.27 1.26,1.35 0,0.13 0.13,0.41 -0.13,0.4 -0.37,0.55 -0.49,1.49 0.76,1.62 0.38,0.54 1.25,0.93 1,0.67 0.63,0.4 1.25,0.94 0.13,0.54 -0.13,0.27 -1.61,1.37 -0.12,0.27 -1.48,1.9 0.02,2.71 1.74,-0.56 1.12,-0.14 0.62,-0.14 1.86,-0.83 0.87,-0.54 0.49,-0.14 0.5,-0.01 0.13,0.14 -0.25,-0.54 -0.27,-2.57 -0.15,-3.65 2.49,-0.15 0.25,-0.14 -0.52,-3.11 1.1,-3.52 0.13,-0.14 1.49,-1.09 1.1,-2.72 0.36,-1.49 0.5,-1.08 0.23,-1.77 0.11,-3.11 0.12,-0.14 0.63,-0.41 0.74,-0.14 0.25,0.14 0.13,0 0.25,0.4 4.73,-1.25 0.12,-0.14 0.1,-4.06 0.74,-1.76 0.12,-0.95 -0.63,-0.81 -0.13,-0.81 0.37,-0.54 0.13,-0.14 0.49,-0.13 1.38,0.53 1.62,-0.28 1.24,-0.01 0.25,-0.01 0.13,-0.13 0.24,-0.41 0.99,-2.44 1.74,-1.09 -1.64,-2.97 -2.38,-1.47 -0.37,-0.68 -0.26,-1.08 -0.25,-0.67 -2.62,-0.26 -4.24,0.3 -0.25,0.01 1.23,-1.64 -1.5,-0.93 -1.87,-0.13 -0.62,0.28 -0.62,0.68 -0.75,0.14 -0.62,0.01 -0.38,-0.14 -0.5,0.01 -0.99,0.68 -0.62,0.28 -0.38,0.13 -1.49,-0.26 -0.88,-0.26 -1.25,-0.4 -0.37,0.68 -0.49,0.82 -0.25,0.14 -1.49,0.68 -2.38,-1.33 -0.37,0 -1.37,0.69 -0.37,0.14 -0.63,-0.27 -0.37,0.41 -0.63,0 -0.74,0.28 -0.25,-0.13 -0.38,-0.41 -1.62,0.02 -0.37,0.27 -0.38,0 -0.99,0.15 -1,1.09 -0.49,0 -0.87,0.28 -0.38,0.14 -1.12,-0.26 -0.25,-0.54 -0.01,-0.81 -0.37,0 -0.27,-1.76 z" 
                fill="rgb(151, 144, 238)" 
                stroke="white" 
                stroke-width=".7px"
                title="Utuado" 
                id="PR-UT" 
            />
        </svg>