<svg xmlns="http://www.w3.org/2000/svg" viewBox="424.34 8.369999999999955 20.90000000000009 44.32000000000004" width="20.90000000000009" height="44.32000000000004">
            <path 
                d="m 434.73,8.37 -0.29,0 0,0.16 -0.08,0 0,0.07 0.15,0 0,0.16 0.08,0 0,0.16 0.07,0 0,0.4 0.07,0 0,0.31 -0.07,0 0,0.08 -0.07,0 0,0.08 -0.15,0 0,0.08 -0.53,0 0,0.08 -0.52,0 0,-0.08 -0.15,0 0,-0.08 -0.08,0 0,-0.08 -0.15,0 0,-0.08 -0.07,0 0,-0.08 -0.15,0 0,-0.08 -0.22,0 0,-0.08 -0.15,0 0,-0.07 -0.23,0 0,-0.08 -0.37,0 0,1.09 0.01,0.67 0,0.55 0.27,6.76 0,0.81 -0.62,1.63 0.14,3.79 0,0.81 -0.62,0.14 -0.37,0.27 -0.75,0.54 -0.5,0.68 -0.36,3.79 -0.74,3.52 -0.36,1.49 -0.13,0.41 -1.36,2.04 -0.99,3.38 0.13,2.44 0.01,0.81 -0.13,0.14 -0.74,0.81 -0.37,2.98 1.63,1.08 0,0.67 0.25,0.27 1.25,0.94 0.13,0.14 1.75,0.8 0.37,-1.21 -0.13,-1.9 0.12,-0.68 0.25,-0.27 0.12,-0.27 0.75,-0.54 0.37,-0.28 0.13,-0.13 0.62,-0.14 0.12,-0.27 -0.12,-0.27 -0.5,-0.54 -1,-0.4 -0.13,-0.27 0,-0.27 0,-0.81 0,-0.28 0.12,-0.13 0.37,-0.14 0.88,0.14 0.87,0.26 0.75,0.67 0.88,0 0.12,-0.13 -0.25,-0.54 0,-0.55 0.49,-1.22 0.13,-0.27 0.12,-0.13 0.12,-0.14 0.5,0 0.75,0 1,0.13 3,0.12 -0.13,-1.21 0.62,-0.95 0.62,-1.5 0.12,-0.13 1.5,-0.68 0.87,-0.28 0.38,0 -0.02,-4.73 0,-0.68 -0.01,-2.3 0.5,-1.76 0.12,-0.14 0.25,-0.13 0.25,-0.68 0,-0.68 -0.13,-0.68 -0.5,-0.94 -0.01,-1.49 -1.75,0.14 -1,-1.62 -0.25,-0.54 -1.13,-2.57 0.12,-1.08 0,-0.95 0.36,-3.25 0.21,-1.64 -0.29,0 0,-0.08 -0.07,0 0,-0.31 -0.08,0 0,-0.16 -0.22,0 0,0.08 -0.22,0 0,0.08 -0.23,0 0,0.08 -0.52,0 0,-0.08 -0.08,0 0,-0.08 -0.07,0 0,-0.32 0.07,0 0,-0.23 0.08,0 0,-0.08 -0.08,0 0,-0.24 -0.07,0 0,-0.08 -0.23,0 0,0.08 -0.15,0 0,0.08 -0.07,0 0,0.08 -0.08,0 0,0.24 -0.07,0 0,0.07 -0.38,0 0,-0.07 -0.15,0 0,-0.32 0.08,0 0,-0.24 -0.15,0 0,-0.08 -0.23,0 0,-0.08 -0.07,0 0,-0.07 -0.08,0 0,-0.16 -0.07,0 0,-0.08 -0.23,0 0,0.08 -0.07,0 0,-0.08 -0.15,0 0,-0.08 -0.15,0 0,-0.08 -0.15,0 0,-0.08 -0.3,0 0,-0.08 -0.45,0 0,-0.08 -0.07,0 0,-0.07 -0.08,0 0,-0.08 -0.07,0 0,-0.08 -0.08,0 0,-0.16 -0.07,0 0,-0.08 -0.15,0 0,-0.08 -0.15,0 0,0.08 -0.22,0 0,-0.08 -0.08,0 0,-0.08 -0.08,0 0,-0.08 -0.3,0 0,-0.15 -0.07,0 0,-0.08 -0.08,0 0,-0.08 z" 
                fill="rgb(151, 144, 238)" 
                stroke="white" 
                stroke-width=".7px"
                title="Vega Alta" 
                id="PR-VA" 
            />
        </svg>