<svg xmlns="http://www.w3.org/2000/svg" viewBox="405.08000000000004 6.16 27.020000000000095 43.18000000000002" width="27.020000000000095" height="43.18000000000002">
            <path 
                d="m 418.41,6.16 -0.52,0 0,0.16 -0.07,0 0,0.07 0.15,0 0,0.08 0.89,0 0,0.24 -0.07,0 0,0.08 -0.07,0 0,0.08 -0.08,0 0,0.08 -0.07,0 0,0.08 -0.08,0 0,0.08 -0.08,0 0,0.07 -0.15,0 0,0.08 -0.07,0 0,0.08 -0.15,0 0,0.08 -0.07,0 0,0.08 -0.15,0 0,0.08 -0.3,0 0,0.08 -0.23,0 0,0.08 -0.75,0 0,-0.08 -0.3,0 0,-0.08 -0.37,0 0,-0.08 -0.15,0 0,-0.08 -0.45,0 0,0.08 -0.67,0 0,0.08 -0.08,0 0,0.08 -0.15,0 0,0.08 -0.22,0 0,0.08 -0.3,0 0,0.08 -0.9,0 0,-0.08 -0.3,0 0,0.08 -0.45,0 0,-0.08 -0.3,0 0,-0.08 -0.45,0 0,0.08 -0.22,0 0,0.08 -0.53,0 0,0.07 -0.44,0 0,0.08 -0.68,0 0,0.08 -0.3,0 0,0.08 -0.22,0 0,-0.08 -0.3,0 0,0.08 -0.15,0 0,0.08 -0.45,0 0,0.08 -0.23,0 0,0.08 -0.15,0 0.05,0.09 -0.22,6.77 -0.11,3.11 0,0.95 -0.11,2.3 0.01,2.84 0.15,5.68 -0.13,0.82 -0.49,1.35 -1.73,2.99 -0.12,0.68 0,0.54 0.5,1.08 0.38,0.94 0.13,0.81 0.25,1.76 4.13,0.12 0.24,-0.14 1,-1.36 0.74,-0.54 0.88,-0.01 0.37,0.14 -0.12,0.81 0.38,0.4 0.25,0.27 2.63,1.75 1.12,0.67 1.49,-2.31 1.13,1.49 0.12,0.13 0.51,0.95 0,0.27 0.01,2.43 0.5,1.63 0.25,0.81 1.25,0.67 0.63,-0.14 0.49,-0.41 0.37,-2.98 0.74,-0.81 0.13,-0.14 -0.01,-0.81 -0.13,-2.44 0.99,-3.38 1.36,-2.04 0.13,-0.41 0.36,-1.49 0.74,-3.52 0.36,-3.79 0.5,-0.68 0.75,-0.54 0.37,-0.27 0.62,-0.14 0,-0.81 -0.14,-3.79 0.62,-1.63 0,-0.81 -0.27,-6.76 0,-0.55 -0.01,-0.67 0,-1.09 0,-0.08 -0.15,0 0,-0.08 -0.15,0 0,-0.08 -0.15,0 0,-0.08 -0.3,0 0,-0.08 -0.15,0 0,-0.08 -0.23,0 0,-0.08 -0.22,0 0,-0.08 -0.15,0 0,-0.07 -0.3,0 0,0.07 -0.23,0 0,-0.07 -0.52,0 0,-0.08 -0.38,0 0,0.08 -0.07,0 0,0.07 -0.07,0 0,0.08 -0.15,0 0,0.08 -0.08,0 0,0.08 -0.37,0 0,0.08 -0.53,0 0,-0.08 -0.3,0 0,-0.08 -0.15,0 0,-0.08 -0.22,0 0,-0.08 -0.22,0 0,-0.07 -0.38,0 0,-0.08 -0.22,0 0,-0.08 -0.15,0 0,-0.08 -0.15,0 0,-0.08 -0.15,0 0,-0.08 -0.38,0 0,-0.08 -0.75,0 0,-0.08 -0.15,0 0,-0.07 -0.15,0 0,-0.08 -0.15,0 0,0.08 -0.07,0 0,0.07 -0.08,0 0,0.16 -0.14,0 0,0.4 0.14,0 0,0.07 0.08,0 0,0.16 0.07,0 0,0.08 -0.07,0 0,0.16 -0.08,0 0,0.08 -0.07,0 0,0.08 -0.15,0 0,0.08 -0.15,0 0,0.08 -0.07,0 0,0.07 -0.3,0 0,-0.07 -0.15,0 0,-0.08 -0.08,0 0,-0.08 -0.15,0 0,-0.08 -0.07,0 0,-0.08 -0.08,0 0,-0.08 -0.07,0 0,-0.08 -0.08,0 0,-0.08 -0.22,0 0,-0.08 -0.08,0 0,-0.08 -0.07,0 0,-0.15 -0.08,0 0,-0.08 -0.07,0 0,-0.08 -0.15,0 0,-0.08 -0.23,0 0,-0.08 -0.15,0 0,-0.08 -0.15,0 0,-0.08 -0.29,0 0,-0.07 -0.45,0 0,-0.08 -0.15,0 0,-0.08 -0.53,0 0,-0.08 -0.15,0 0,-0.08 -0.07,0 0,-0.08 -0.15,0 0,-0.08 -0.08,0 0,-0.08 -0.07,0 0,-0.08 0.07,0 0,-0.15 -0.07,0 0,-0.16 -0.08,0 0,-0.16 -0.07,0 0,-0.16 0.9,0 0,-0.24 -1.05,0 0,-0.07 -0.08,0 0,-0.08 -0.6,0 0,-0.08 z" 
                fill="rgb(151, 144, 238)" 
                stroke="white" 
                stroke-width=".7px"
                title="Vega Baja" 
                id="PR-VB" 
            />
        </svg>