<svg xmlns="http://www.w3.org/2000/svg" viewBox="639.8599999999985 100.23999999999988 155.7200000000015 46.23000000000012" width="155.7200000000015" height="46.23000000000012">
            <path 
                d="m 795.58,146.47 0,-0.08 -0.08,0 0,0.08 0.08,0 z m -127.34,-25.59 -0.23,0 0,0.08 -0.23,0 0,0.24 -0.07,0 0,0.39 0.07,0 0,0.16 0.08,0 0,0.08 0.3,0 0,0.08 0.15,0 0,-0.08 0.22,0 0,-0.79 -0.07,0 0,-0.08 -0.22,0 0,-0.08 z m 23.8,-5.67 -0.15,0 0,0.08 -0.07,0 0,0.24 -0.15,0 0,0.23 0.07,0 0,0.08 0.08,0 0,0.08 0.07,0 0,0.16 -0.07,0 0,0.39 0.07,0 0,0.16 0.08,0 0,0.08 0.37,0 0,-0.16 0.23,0 0,-0.16 -0.08,0 0,-0.31 -0.07,0 0,-0.32 -0.08,0 0,-0.15 -0.07,0 0,-0.16 -0.08,0 0,-0.16 -0.15,0 0,-0.08 z m -2.62,-14.97 -0.52,0 0,0.08 -0.15,0 0,0.08 -0.08,0 0,-0.08 -0.15,0 0,-0.08 -0.37,0 0,0.08 -0.3,0 0,0.08 -0.98,0 0,0.08 -0.52,0 0,0.08 -0.37,0 0,0.08 -0.38,0 0,0.08 -0.15,0 0,0.07 -0.6,0 0,0.08 -0.22,0 0,0.08 -0.15,0 0,0.08 -0.23,0 0,0.08 -1.34,0 0,0.08 -0.6,0 0,0.08 -1.42,0 0,0.08 -0.9,0 0,0.08 -0.75,0 0,0.07 -0.15,0 0,0.08 -0.97,0 0,-0.08 -0.75,0 0,0.08 -0.3,0 0,0.08 -0.08,0 0,0.08 -0.22,0 0,0.08 -0.08,0 0,0.08 -0.22,0 0,0.08 -0.08,0 0,0.08 -0.22,0 0,0.07 -0.07,0 0,0.08 -0.08,0 0,0.08 -0.07,0 0,0.08 -0.08,0 0,0.24 -0.07,0 0,0.63 0.07,0 0,0.15 0.15,0 0,0.16 -0.07,0 0,0.16 -0.08,0 0,0.16 -0.07,0 0,0.08 -0.15,0 0,0.55 -0.08,0 0,0.08 -0.07,0 0,0.08 -0.38,0 0,0.07 -0.45,0 0,0.08 -0.3,0 0,0.08 -0.3,0 0,0.08 -2.32,0 0,0.08 -0.37,0 0,0.08 -0.38,0 0,0.08 -0.45,0 0,0.15 -0.14,0 0,0.08 -0.75,0 0,0.08 -0.68,0 0,0.08 -0.45,0 0,0.08 -0.22,0 0,0.08 -0.3,0 0,0.08 -0.08,0 0,0.08 -0.07,0 0,0.15 -0.67,0 0,0.24 -0.3,0 0,-0.08 -0.3,0 0,0.08 -0.45,0 0,0.16 -0.23,0 0,0.08 -0.22,0 0,0.07 -0.08,0 0,0.08 -0.14,0 0,0.08 -0.38,0 0,0.08 -0.07,0 0,0.08 -0.08,0 0,0.08 -0.08,0 0,0.08 -0.07,0 0,0.08 -0.22,0 0,0.07 -0.15,0 0,0.08 -0.08,0 0,0.08 -0.07,0 0,0.16 -0.15,0 0,0.08 -0.15,0 0,-0.16 -0.23,0 0,0.08 -0.22,0 0,0.08 -0.15,0 0,0.08 -0.3,0 0,0.08 -0.52,0 0,0.07 -0.6,0 0,0.08 -0.15,0 0,0.08 -0.08,0 0,0.08 -0.3,0 0,-0.16 -0.3,0 0,-0.08 -0.3,0 0,-0.15 -0.82,0 0,0.08 -0.08,0 0,0.07 -0.07,0 0,0.24 -0.08,0 0,0.24 -0.07,0 0,0.08 -0.15,0 0,0.08 -0.37,0 0,0.07 -0.45,0 0,-0.07 -0.15,0 0,0.07 -0.53,0 0,-0.07 -0.22,0 0,-0.08 -0.15,0 0,-0.48 -0.08,0 0,-0.78 -0.07,0 0,-0.79 -0.08,0 0,-0.79 -0.07,0 0,-0.79 -0.08,0 0,-0.79 -0.07,0 0,-0.47 -0.23,0 0,0.79 -0.07,0 0,-0.08 -0.07,0 0,-0.08 -0.3,0 0,0.16 0.15,0 0,0.08 0.15,0 0,0.08 0.14,0 0,0.39 0.08,0 0,0.63 0.07,0 0,0.71 0.08,0 0,0.71 0.07,0 0,0.63 0.08,0 0,0.71 0.07,0 0,0.63 -0.07,0 0,0.08 -0.3,0 0,0.08 -0.08,0 0,0.15 -0.07,0 0,0.16 -0.07,0 0,0.08 -0.08,0 0,0.08 -0.07,0 0,0.08 -0.15,0 0,0.08 -0.08,0 0,0.08 -0.22,0 0,0.07 -0.6,0 0,0.08 -0.75,0 0,0.08 -0.15,0 0,0.08 -0.3,0 0,0.08 -0.3,0 0,0.08 -0.15,0 0,0.08 -0.15,0 0,0.08 -0.07,0 0,0.07 -0.3,0 0,0.08 -0.3,0 0,0.08 -0.3,0 0,0.08 -0.08,0 0,0.08 -0.15,0 0,0.08 -0.15,0 0,0.08 -0.15,0 0,0.08 -0.15,0 0,0.07 -0.29,0 0,0.08 -0.23,0 0,0.08 -0.15,0 0,0.08 -0.15,0 0,0.08 -0.08,0 0,0.08 -0.15,0 0,0.08 -0.22,0 0,0.08 -0.22,0 0,0.08 -0.23,0 0,0.07 -0.3,0 0,0.08 -0.22,0 0,0.08 -0.08,0 0,0.08 -0.3,0 0,0.08 -0.22,0 0,0.08 -0.38,0 0,0.08 -0.14,0 0,0.08 -0.31,0 0,0.07 -0.59,0 0,0.08 -0.15,0 0,0.08 -0.83,0 0,-0.08 -0.07,0 0,-0.08 -0.45,0 0,-0.07 -0.15,0 0,-0.08 -0.52,0 0,0.15 -0.45,0 0,-0.07 -0.08,0 0,-0.08 -0.22,0 0,-0.08 -0.3,0 0,-0.08 -0.38,0 0,0.08 -0.07,0 0,0.08 -0.23,0 0,0.08 -0.07,0 0,0.07 -0.08,0 0,0.08 -0.07,0 0,-0.08 -0.3,0 0,0.08 -0.3,0 0,-0.08 -0.07,0 0,-0.07 -0.3,0 0,-0.08 -0.08,0 0,-0.08 -0.45,0 0,0.08 -0.15,0 0,0.08 -0.07,0 0,0.07 -0.08,0 0,0.08 -0.07,0 0,0.08 -0.15,0 0,0.08 -0.23,0 0,0.16 -0.45,0 0,-0.08 -0.15,0 0,-0.08 -0.3,0 0,-0.08 -0.15,0 0,-0.08 -0.52,0 0,0.08 -0.07,0 0,0.32 0.07,0 0,0.08 0.08,0 0,0.15 0.07,0 0,0.24 0.08,0 0,0.08 0.07,0 0,0.47 -0.07,0 0,0.32 0.07,0 0,0.31 -0.07,0 0,0.16 0.07,0 0,0.08 0.08,0 0,0.23 0.07,0 0,0.4 -0.07,0 0,0.23 -0.08,0 0,0.16 -0.07,0 0,0.63 -0.08,0 0,0.08 0.08,0 0,0.31 -0.08,0 0,0.08 -0.15,0 0,0.08 -0.07,0 0,0.08 -0.08,0 0,0.39 0.08,0 0,0.08 0.3,0 0,0.08 0.07,0 0,0.08 0.15,0 0,0.08 0.15,0 0,0.08 0.15,0 0,0.08 0.15,0 0,0.08 0.07,0 0,0.15 0.15,0 0,0.08 0.23,0 0,0.08 0.07,0 0,0.16 0.08,0 0,0.08 0.07,0 0,0.71 0.08,0 0,0.07 0.15,0 0,0.08 0.07,0 0,0.32 0.08,0 0,0.55 0.07,0 0,0.24 0.15,0 0,0.08 0.23,0 0,0.07 0.3,0 0,0.08 0.07,0 0,0.08 0.15,0 0,0.08 0.08,0 0,0.08 0.07,0 0,0.31 0.15,0 0,-0.15 0.37,0 0,0.08 0.15,0 0,0.07 0.23,0 0,0.08 0.15,0 0,0.08 0.15,0 0,0.16 0.15,0 0,0.16 0.15,0 0,0.08 0.07,0 0,0.07 0.08,0 0,0.08 0.07,0 0,0.08 0.08,0 0,0.08 0.07,0 0,0.16 0.08,0 0,0.16 0.37,0 0,-0.08 0.07,0 0,-0.08 0.75,0 0,0.08 0.23,0 0,0.08 0.52,0 0,0.07 0.15,0 0,0.08 0.08,0 0,0.08 0.07,0 0,0.08 0.45,0 0,0.08 0.38,0 0,0.08 0.15,0 0,0.08 0.07,0 0,0.08 0.38,0 0,0.07 0.15,0 0,0.08 0.29,0 0,0.08 0.15,0 0,0.08 0.9,0 0,-0.08 0.08,0 0,-0.08 0.15,0 0,-0.08 0.97,0 0,0.08 0.07,0 0,0.08 0.15,0 0,0.08 0.08,0 0,0.24 0.07,0 0,0.08 0.6,0 0,-0.32 0.15,0 0,-0.16 0.08,0 0,0.08 1.49,0 0,-0.16 0.23,0 0,-0.07 0.07,0 0,-0.08 0.23,0 0,-0.08 0.22,0 0,-0.08 0.15,0 0,-0.08 0.15,0 0,-0.08 0.08,0 0,-0.08 0.07,0 0,-0.08 0.15,0 0,-0.07 0.08,0 0,-0.16 0.07,0 0,-0.08 0.08,0 0,-0.16 0.07,0 0,-0.08 0.15,0 0,-0.08 0.15,0 0,-0.07 0.08,0 0,-0.08 0.07,0 0,-0.08 0.08,0 0,-0.08 0.3,0 0,-0.08 0.15,0 0,-0.08 0.07,0 0,-0.16 0.08,0 0,-0.07 0.22,0 0,-0.08 0.22,0 0,-0.08 0.3,0 0,-0.08 0.08,0 0,-0.08 0.07,0 0,-0.08 0.08,0 0,-0.16 0.45,0 0,-0.07 0.45,0 0,-0.08 0.15,0 0,-0.08 0.07,0 0,-0.08 0.23,0 0,-0.08 0.3,0 0,-0.16 0.44,0 0,-0.08 0.23,0 0,-0.08 1.27,0 0,-0.07 0.6,0 0,-0.08 0.08,0 0,-0.08 0.15,0 0,-0.08 0.22,0 0,-0.08 0.15,0 0,-0.08 0.15,0 0,-0.08 0.6,0 0,0.08 0.07,0 0,0.08 0.08,0 0,0.16 0.07,0 0,0.16 0.15,0 0,0.07 0.15,0 0,-0.07 0.08,0 0,-0.08 0.3,0 0,-0.08 0.3,0 0,-0.08 0.29,0 0,-0.08 0.08,0 0,-0.08 0.23,0 0,-0.08 0.37,0 0,-0.08 0.07,0 0,-0.07 0.23,0 0,-0.08 0.22,0 0,-0.08 0.3,0 0,0.08 0.15,0 0,0.08 0.08,0 0,-0.08 0.07,0 0,0.08 0.08,0 0,0.07 0.15,0 0,0.08 0.67,0 0,0.08 0.3,0 0,0.08 0.15,0 0,0.08 0.23,0 0,0.08 0.14,0 0,0.08 0.15,0 0,0.15 0.38,0 0,0.08 0.3,0 0,0.24 0.07,0 0,0.32 -0.15,0 0,0.07 -0.07,0 0,0.4 0.07,0 0,0.08 0.08,0 0,0.15 0.15,0 0,0.08 0.15,0 0,0.16 0.07,0 0,0.16 0.38,0 0,-0.08 0.07,0 0,-0.08 0.08,0 0,-0.16 0.07,0 0,-0.47 -0.07,0 0,-0.16 -0.08,0 0,-0.15 -0.07,0 0,-0.08 -0.15,0 0,-0.16 -0.15,0 0,-0.08 -0.08,0 0,-0.24 -0.07,0 0,-0.31 0.15,0 0,-0.08 0.07,0 0,-0.08 0.08,0 0,-0.16 0.15,0 0,-0.15 0.07,0 0,-0.08 0.08,0 0,-0.08 0.22,0 0,-0.08 0.15,0 0,-0.08 0.97,0 0,0.08 0.53,0 0,0.08 0.15,0 0,0.08 0.37,0 0,0.08 0.08,0 0,0.07 0.07,0 0,0.16 0.23,0 0,0.08 0.07,0 0,0.08 0.15,0 0,0.55 -0.07,0 0,0.16 -0.08,0 0,0.31 -0.07,0 0,0.24 -0.08,0 0,0.08 -0.15,0 0,0.08 -0.07,0 0,0.08 -0.08,0 0,0.08 -0.07,0 0,0.07 -0.08,0 0,0.16 0.08,0 0,0.08 0.07,0 0,0.08 0.23,0 0,0.08 0.52,0 0,0.08 0.07,0 0,0.08 0.45,0 0,0.15 0.23,0 0,-0.15 0.07,0 0,-0.56 -0.07,0 0,-0.39 -0.08,0 0,-0.16 0.08,0 0,-0.08 0.07,0 0,-0.07 0.23,0 0,0.07 0.15,0 0,0.16 0.07,0 0,0.4 -0.07,0 0,0.07 0.07,0 0,0.4 0.23,0 0,-0.08 0.15,0 0,-0.08 0.15,0 0,-0.16 0.07,0 0,-0.15 0.08,0 0,-0.08 0.07,0 0,-0.08 0.08,0 0,0.08 0.22,0 0,-0.08 0.08,0 0,-0.47 -0.08,0 0,-0.16 0.15,0 0,-0.16 0.52,0 0,-0.08 0.08,0 0,-0.55 0.15,0 0,-0.16 0.07,0 0,-0.08 0.08,0 0,-0.08 0.07,0 0,-0.07 0.15,0 0,-0.32 0.08,0 0,-0.39 -0.15,0 0,-0.08 -0.23,0 0,-0.08 -0.07,0 0,-0.08 -0.15,0 0,-0.08 -0.75,0 0,-0.08 -0.3,0 0,-0.08 -0.52,0 0,-0.07 -0.23,0 0,0.07 -0.15,0 0,-0.07 -0.22,0 0,-0.08 -0.08,0 0,-0.08 -0.07,0 0,-0.87 0.07,0 0,-0.08 0.08,0 0,-0.08 0.22,0 0,-0.07 0.08,0 0,-0.08 0.45,0 0,-0.08 0.15,0 0,-0.08 0.3,0 0,0.08 0.15,0 0,0.08 0.37,0 0,0.08 0.15,0 0,0.07 0.15,0 0,0.08 0.22,0 0,0.08 0.15,0 0,-0.08 0.45,0 0,0.08 0.08,0 0,0.08 0.07,0 0,0.39 -0.07,0 0,0.32 -0.15,0 0,0.08 -0.23,0 0,0.08 0.15,0 0,0.08 0.08,0 0,0.07 0.07,0 0,0.16 0.08,0 0,0.24 0.07,0 0,0.16 0.08,0 0,0.63 -0.08,0 0,0.23 -0.07,0 0,0.08 -0.08,0 0,0.32 0.08,0 0,0.07 0.22,0 0,0.16 0.08,0 0,0.16 0.07,0 0,0.16 1.28,0 0,-0.16 0.15,0 0,-0.08 0.07,0 0,-0.08 0.3,0 0,-0.08 0.07,0 0,-0.08 0.08,0 0,-0.15 0.15,0 0,0.15 0.22,0 0,-0.07 0.45,0 0,-0.08 0.08,0 0,-0.08 0.45,0 0,-0.08 0.07,0 0,-0.08 0.08,0 0,-0.08 0.15,0 0,-0.08 0.22,0 0,-0.08 0.08,0 0,-0.07 0.07,0 0,-0.08 0.07,0 0,-0.16 -0.07,0 0,-0.08 -0.15,0 0,-0.16 0.08,0 0,-0.08 0.07,0 0,-0.07 0.07,0 0,-0.08 0.08,0 0,-0.08 0.07,0 0,-0.08 0.08,0 0,-0.08 0.08,0 0,-0.24 -0.08,0 0,-0.07 -0.15,0 0,-0.08 -0.22,0 0,-0.08 -0.08,0 0,-0.08 -0.08,0 0,-0.08 -0.14,0 0,-0.08 -0.15,0 0,-0.16 -0.08,0 0,-0.15 -0.07,0 0,-0.16 -0.08,0 0,-0.16 -0.07,0 0,0.08 -0.08,0 0,-0.08 -0.82,0 0,-0.08 -0.08,0 0,-0.15 -0.07,0 0,-0.16 -0.08,0 0,-0.08 -0.52,0 0,-0.08 -0.3,0 0,0.08 -0.15,0 0,-0.16 -0.15,0 0,-0.08 -0.22,0 0,-0.08 -0.08,0 0,-0.15 0.53,0 0,-0.16 0.07,0 0,-0.16 0.08,0 0,-0.08 0.22,0 0,-0.07 0.15,0 0,-0.08 0.07,0 0,-0.08 0.23,0 0,-0.08 0.07,0 0,-0.08 0.23,0 0,-0.08 0.07,0 0,-0.16 0.08,0 0,-0.07 0.22,0 0,-0.08 0.23,0 0,0.08 0.15,0 0,-0.08 0.3,0 0,0.08 0.07,0 0,0.07 0.08,0 0,0.16 0.07,0 0,0.16 0.15,0 0,0.16 0.07,0 0,0.08 0.08,0 0,0.07 -0.08,0 0,0.08 0.08,0 0,0.08 -0.08,0 0,0.08 -0.14,0 0,0.16 0.07,0 0,0.08 0.07,0 0,0.07 0.08,0 0,0.08 0.08,0 0,0.08 0.07,0 0,0.24 0.07,0 0,0.08 0.08,0 0,0.08 0.07,0 0,0.23 0.08,0 0,0.08 0.15,0 0,0.47 0.3,0 0,0.08 0.22,0 0,0.08 0.23,0 0,-0.08 0.3,0 0,-0.08 0.15,0 0,-0.08 0.07,0 0,-0.07 0.08,0 0,-0.24 -0.08,0 0,-0.08 -0.07,0 0,-0.08 -0.23,0 0,-0.08 -0.07,0 0,-0.23 0.07,0 0,-0.4 0.08,0 0,-0.08 0.07,0 0,-0.15 0.08,0 0,-0.16 0.07,0 0,-0.08 0.15,0 0,-0.08 0.3,0 0,-0.08 0.15,0 0,-0.07 0.6,0 0,0.07 0.15,0 0,0.16 0.07,0 0,0.55 0.6,0 0,-0.08 0.08,0 0,-0.08 0.37,0 0,-0.07 0.15,0 0,-0.4 -0.07,0 0,-0.08 -0.08,0 0,-0.07 0.08,0 0,-0.08 -0.45,0 0,-0.32 -0.08,0 0,-0.16 -0.07,0 0,-0.07 -0.08,0 0,-0.08 -0.15,0 0,-0.16 0.08,0 0,-0.16 0.07,0 0,-0.08 0.08,0 0,-0.23 0.37,0 0,-0.08 0.3,0 0,0.08 0.38,0 0,0.15 0.15,0 0,0.56 -0.08,0 0,0.15 -0.07,0 0,0.08 -0.08,0 0,0.24 -0.07,0 0,0.23 0.07,0 0,0.16 0.23,0 0,-0.16 0.22,0 0,-0.07 0.52,0 0,-0.16 0.08,0 0,-0.4 0.07,0 0,-0.07 0.08,0 0,-0.08 0.07,0 0,-0.08 0.3,0 0,0.08 0.08,0 0,0.63 0.07,0 0,0.08 0.23,0 0,-0.08 0.07,0 0,-0.08 0.08,0 0,-0.08 0.07,0 0,-0.24 0.08,0 0,-0.23 0.15,0 0,-0.08 0.22,0 0,0.08 0.08,0 0,0.08 0.07,0 0,0.07 0.08,0 0,0.08 0.07,0 0,0.08 0.23,0 0,0.08 0.07,0 0,0.71 0.08,0 0,0.08 0.44,0 0,-0.16 0.08,0 0,-0.63 0.22,0 0,-0.31 0.08,0 0,-0.24 0.07,0 0,-0.24 1.2,0 0,0.08 0.3,0 0,0.08 0.08,0 0,0.08 0.07,0 0,0.08 0.15,0 0,-0.08 0.08,0 0,-0.08 0.15,0 0,-0.08 0.3,0 0,-0.08 0.14,0 0,0.08 0.08,0 0,0.08 0.07,0 0,0.08 0.08,0 0,0.24 0.22,0 0,-0.08 0.08,0 0,-0.08 0.07,0 0,0.08 0.23,0 0,0.08 0.07,0 0,0.15 0.08,0 0,0.32 -0.08,0 0,0.16 -0.07,0 0,0.07 -0.08,0 0,0.24 -0.07,0 0,0.24 0.22,0 0,-0.08 0.08,0 0,-0.24 0.07,0 0,-0.08 0.08,0 0,0.16 0.07,0 0,0.08 0.23,0 0,0.08 0.15,0 0,0.08 0.37,0 0,-0.24 0.07,0 0,-0.31 -0.07,0 0,-0.08 -0.15,0 0,-0.08 -0.07,0 0,-0.4 -0.23,0 0,-0.07 -0.15,0 0,-0.08 -0.07,0 0,-0.08 0.07,0 0,-0.4 0.08,0 0,-0.15 0.07,0 0,-0.48 0.08,0 0,-0.15 -0.08,0 0,-0.16 -0.07,0 0,-0.08 -0.08,0 0,-0.16 0.08,0 0,-0.08 0.15,0 0,-0.08 0.07,0 0,-0.07 0.08,0 0,0.07 0.22,0 0,0.16 0.07,0 0,0.16 0.08,0 0,0.08 0.15,0 0,0.08 0.08,0 0,0.08 0.22,0 0,-0.16 0.08,0 0,-0.32 -0.08,0 0,-0.23 -0.15,0 0,-0.16 -0.07,0 0,-0.08 -0.15,0 0,-0.08 -0.08,0 0,-0.08 -0.08,0 0,-0.08 -0.07,0 0,-0.15 -0.07,0 0,-0.08 0.07,0 0,-0.4 -0.07,0 0,-0.15 0.07,0 0,-0.24 0.15,0 0,-0.16 0.3,0 0,-0.16 0.52,0 0,-0.07 0.53,0 0,-0.08 0.07,0 0,0.08 0.08,0 0,0.15 0.07,0 0,0.32 0.08,0 0,0.16 0.07,0 0,0.08 0.3,0 0,0.55 0.08,0 0,0.08 0.37,0 0,-0.16 0.08,0 0,-0.32 -0.08,0 0,-0.23 -0.07,0 0,-0.08 -0.08,0 0,-0.32 -0.07,0 0,-0.31 0.15,0 0,-0.08 0.15,0 0,-0.08 0.07,0 0,-0.08 0.08,0 0,-1.18 0.52,0 0,0.08 0.08,0 0,0.08 0.07,0 0,0.23 0.15,0 0,0.24 0.07,0 0,0.08 0.15,0 0,0.08 0.08,0 0,0.08 0.07,0 0,0.07 0.08,0 0,0.95 0.22,0 0,-0.39 0.08,0 0,-0.32 0.15,0 0,-0.08 0.15,0 0,-0.08 0.15,0 0,0.08 0.22,0 0,0.08 0.15,0 0,0.24 0.15,0 0,-0.08 0.08,0 0,-0.08 0.07,0 0,0.08 0.23,0 0,0.08 0.14,0 0,-0.16 0.15,0 0,-0.08 0.3,0 0,-0.08 0.08,0 0,-0.08 0.08,0 0,0.08 0.07,0 0,0.16 -0.07,0 0,0.08 -0.08,0 0,0.31 -0.08,0 0,0.32 0.08,0 0,0.08 0.15,0 0,0.08 0.07,0 0,0.15 0.15,0 0,-0.07 0.15,0 0,-0.08 0.23,0 0,0.31 0.45,0 0,-0.08 0.07,0 0,-0.15 0.08,0 0,0.31 0.15,0 0,0.08 0.15,0 0,0.08 0.15,0 0,0.08 0.07,0 0,-0.08 0.23,0 0,-0.08 0.44,0 0,0.16 0.15,0 0,0.39 -0.07,0 0,0.08 -0.08,0 0,0.08 -0.22,0 0,0.08 -0.15,0 0,0.08 -0.07,0 0,0.07 -0.15,0 0,0.08 -0.08,0 0,0.08 -0.07,0 0,0.32 0.07,0 0,0.08 -0.45,0 0,-0.08 -0.15,0 0,0.08 -0.37,0 0,0.07 -0.3,0 0,0.16 -0.3,0 0,0.08 -0.38,0 0,0.08 -0.07,0 0,0.08 -0.08,0 0,0.08 -0.3,0 0,0.08 -0.07,0 0,0.07 -0.67,0 0,-0.07 -0.23,0 0,0.23 0.15,0 0,0.08 0.23,0 0,0.08 0.67,0 0,0.08 0.07,0 0,0.08 0.38,0 0,-0.08 0.08,0 0,-0.08 0.29,0 0,-0.08 0.08,0 0,0.08 0.07,0 0,0.08 0.08,0 0,0.08 0.07,0 0,0.08 0.08,0 0,0.08 0.07,0 0,0.15 0.3,0 0,-0.31 0.08,0 0,-0.16 0.15,0 0,0.08 0.45,0 0,0.08 0.15,0 0,0.16 0.15,0 0,-0.16 0.14,0 0,-0.08 0.08,0 0,-0.32 0.07,0 0,-0.31 -0.07,0 0,-0.24 0.07,0 0,-0.16 0.08,0 0,-0.15 0.07,0 0,-0.08 0.08,0 0,0.08 0.3,0 0,0.31 -0.08,0 0,0.16 -0.07,0 0,0.47 0.07,0 0,0.08 0.08,0 0,0.08 0.3,0 0,-0.16 0.07,0 0,-0.16 0.08,0 0,-0.07 0.07,0 0,-0.08 0.08,0 0,-0.08 0.22,0 0,-0.08 0.15,0 0,-0.55 -0.07,0 0,-0.24 -0.23,0 0,-0.16 -0.07,0 0,-0.15 -0.08,0 0,-0.08 -0.15,0 0,-0.24 -0.07,0 0,-0.16 0.15,0 0,-0.23 0.15,0 0,0.08 0.07,0 0,0.08 0.08,0 0,0.39 0.15,0 0,0.08 0.07,0 0,0.08 0.08,0 0,0.08 0.07,0 0,0.07 0.08,0 0,0.08 0.15,0 0,0.08 0.15,0 0,0.08 0.15,0 0,-0.55 -0.15,0 0,-0.08 -0.08,0 0,-0.16 -0.15,0 0,-0.15 -0.07,0 0,-0.16 -0.08,0 0,-0.16 0.08,0 0,0.08 0.07,0 0,0.08 0.15,0 0,-0.16 0.08,0 0,-0.08 0.07,0 0,-0.47 -0.07,0 0,-0.08 -0.08,0 0,-0.08 -0.07,0 0,-0.16 0.07,0 0,-0.23 0.08,0 0,-0.08 0.15,0 0,-0.08 0.59,0 0,0.16 0.15,0 0,0.15 0.08,0 0,0.64 0.07,0 0,0.07 0.23,0 0,0.08 0.07,0 0,0.08 0.08,0 0,0.16 0.07,0 0,0.24 0.15,0 0,0.07 0.15,0 0,-0.78 -0.07,0 0,-0.24 0.07,0 0,-0.24 0.08,0 0,-0.08 0.07,0 0,-0.07 0.15,0 0,-0.08 0.15,0 0,-0.08 0.3,0 0,-0.08 0.15,0 0,-0.08 0.38,0 0,-0.08 0.07,0 0,-0.08 0.3,0 0,-0.08 0.3,0 0,-0.07 0.07,0 0,0.07 0.15,0 0,0.08 0.08,0 0,0.24 0.22,0 0,0.08 0.08,0 0,0.08 0.07,0 0,0.31 0.15,0 0,0.08 0.08,0 0,0.16 0.15,0 0,-0.08 0.07,0 0,-0.24 0.08,0 0,-0.23 0.15,0 0,0.08 0.52,0 0,-0.16 0.08,0 0,-0.08 0.15,0 0,-0.08 0.45,0 0,-0.08 0.07,0 0,-0.08 0.07,0 0,-0.08 0.15,0 0,0.08 0.08,0 0,0.08 0.15,0 0,0.16 0.22,0 0,-0.08 0.08,0 0,-0.39 0.07,0 0,-0.4 -0.07,0 0,-0.08 -0.15,0 0,0.08 -0.3,0 0,-0.08 -0.08,0 0,-0.07 -0.07,0 0,-0.08 -0.08,0 0,-0.63 0.08,0 0,-0.24 0.07,0 0,-0.08 0.08,0 0,-0.16 0.07,0 0,-0.07 0.08,0 0,-0.08 0.07,0 0,-0.08 0.08,0 0,-0.08 0.07,0 0,-0.08 0.08,0 0,-0.08 0.22,0 0,-0.08 0.23,0 0,0.08 0.07,0 0,0.24 0.08,0 0,0.16 0.3,0 0,-0.24 -0.08,0 0,-0.24 0.15,0 0,0.08 0.15,0 0,0.24 0.15,0 0,0.08 0.53,0 0,-0.4 0.3,0 0,0.08 0.29,0 0,0.16 0.08,0 0,0.08 0.07,0 0,0.63 0.08,0 0,0.16 0.07,0 0,0.15 0.08,0 0,0.08 0.07,0 0,0.16 0.08,0 0,0.55 0.07,0 0,0.24 0.08,0 0,0.08 0.15,0 0,0.07 0.15,0 0,-0.07 0.07,0 0,-0.08 0.08,0 0,-0.16 0.07,0 0,-0.08 0.08,0 0,-0.16 0.07,0 0,-0.08 0.23,0 0,-0.07 0.07,0 0,-0.08 0.15,0 0,-0.08 0.52,0 0,-0.08 0.45,0 0,-0.08 0.23,0 0,-0.08 0.22,0 0,-0.08 0.15,0 0,-0.08 0.08,0 0,-0.07 0.22,0 0,-0.08 0.15,0 0,-0.08 0.08,0 0,-0.08 0.15,0 0,-0.08 0.07,0 0,-0.08 0.15,0 0,0.08 0.3,0 0,0.08 0.45,0 0,0.08 0.6,0 0,0.08 0.52,0 0,0.08 0.15,0 0,0.07 0.08,0 0,0.24 0.37,0 0,0.08 0.08,0 0,0.08 0.07,0 0,0.08 0.08,0 0,0.23 0.15,0 0,-0.08 0.07,0 0,-0.47 0.08,0 0,-0.08 0.07,0 0,-0.08 0.08,0 0,-0.31 0.07,0 0,-0.16 0.08,0 0,-0.16 0.07,0 0,-0.07 0.15,0 0,-0.08 0.15,0 0,0.15 0.37,0 0,-0.07 0.15,0 0,-0.08 0.08,0 0,-0.4 -0.08,0 0,-0.08 -0.07,0 0,-0.08 -0.08,0 0,-0.07 -0.3,0 0,0.07 -0.15,0 0,0.08 -0.07,0 0,0.08 -0.37,0 0,0.08 -0.15,0 0,0.08 -0.08,0 0,0.16 -0.3,0 0,-0.08 -0.15,0 0,0.08 -0.15,0 0,0.08 -0.07,0 0,0.08 -0.23,0 0,-0.08 -0.07,0 0,-0.08 -0.08,0 0,-0.16 -0.15,0 0,-0.08 -0.07,0 0,-0.08 -0.08,0 0,-0.08 -0.07,0 0,-0.08 -0.08,0 0,-0.07 -0.07,0 0,-0.08 -0.08,0 0,-0.32 -0.07,0 0,-0.08 0.07,0 0,-0.08 0.08,0 0,-0.07 0.07,0 0,-0.08 0.08,0 0,-0.08 -0.6,0 0,-0.08 -0.08,0 0,-0.08 -0.07,0 0,-0.08 -0.08,0 0,-0.08 -0.07,0 0,-0.47 -0.08,0 0,-0.16 -0.07,0 0,-0.08 -0.07,0 0,-0.07 -0.08,0 0,-0.16 -0.07,0 0,-0.16 -0.08,0 0,-0.31 -0.07,0 0,-0.08 -0.08,0 0,-0.08 -0.37,0 0,0.16 -0.08,0 0,0.15 -0.07,0 0,0.16 -0.45,0 0,-0.31 -0.08,0 0,-0.48 -0.07,0 0,-0.08 -0.08,0 0,-0.07 -0.07,0 0,-0.08 -0.08,0 0,-0.16 -0.07,0 0,-0.08 -0.37,0 0,0.08 -0.31,0 0,0.08 -0.07,0 0,0.16 -0.08,0 0,0.07 -0.07,0 0,0.16 -0.15,0 0,0.08 -0.07,0 0,0.08 -0.45,0 0,0.08 -0.08,0 0,0.08 -0.07,0 0,0.08 -0.08,0 0,0.47 -0.15,0 0,0.16 -0.37,0 0,-0.08 -0.08,0 0,-0.08 -0.22,0 0,-0.08 -0.23,0 0,-0.08 -0.37,0 0,-0.08 -0.37,0 0,0.08 -0.16,0 0,0.08 0.08,0 0,0.47 -0.15,0 0,0.08 -0.07,0 0,0.08 -0.15,0 0,-0.08 -0.08,0 0,-0.08 -0.3,0 0,-0.08 -0.15,0 0,-0.08 -0.07,0 0,-0.07 -0.08,0 0,-0.08 -0.15,0 0,-0.08 -0.07,0 0,-0.08 -0.15,0 0,-0.08 -0.08,0 0,-0.08 -0.15,0 0,-0.16 -0.07,0 0,-0.07 -0.08,0 0,-0.08 -0.37,0 0,0.08 -0.22,0 0,0.07 -0.31,0 0,0.08 -0.29,0 0,0.08 -0.23,0 0,-0.08 -0.07,0 0,-0.08 -0.38,0 0,0.08 -0.15,0 0,-0.08 -0.22,0 0,-0.07 -0.08,0 0,-0.08 -0.22,0 0,-0.08 -0.08,0 0,0.08 -0.22,0 0,-0.08 -0.23,0 0,-0.08 -0.07,0 0,-0.08 -0.08,0 0,-0.08 -0.14,0 0,0.08 -0.15,0 0,-0.08 -0.15,0 0,-0.08 -0.08,0 0,-0.08 -0.07,0 0,-0.23 -0.08,0 0,-0.24 -0.07,0 0,-0.08 -0.08,0 0,-0.08 -0.22,0 0,-0.08 -0.15,0 0,-0.07 -0.6,0 0,0.07 -0.15,0 0,0.16 -0.08,0 0,0.08 -0.07,0 0,0.08 -0.15,0 0,-0.08 -0.15,0 0,0.08 -0.08,0 0,0.16 -0.07,0 0,0.31 -0.38,0 0,-0.15 -0.07,0 0,-0.24 -0.07,0 0,-0.08 -0.08,0 0,-0.08 -0.22,0 0,0.08 -0.3,0 0,0.08 -0.3,0 0,-0.08 -0.08,0 0,-0.24 0.23,0 0,-0.31 -0.53,0 0,0.08 -0.37,0 0,0.08 -0.23,0 0,0.07 -0.37,0 0,0.08 -0.23,0 0,-0.15 -0.22,0 0,-0.08 -0.15,0 0,-0.08 -0.3,0 0,-0.08 -0.37,0 0,-0.16 -0.23,0 0,-0.08 -0.22,0 0,-0.08 -0.23,0 0,-0.07 -0.37,0 0,-0.08 -0.3,0 0,-0.08 -0.15,0 0,-0.08 -0.08,0 0,-0.08 -0.07,0 0,-0.16 -0.15,0 0,-0.08 -0.08,0 0,-0.07 -0.07,0 0,-0.08 -0.15,0 0,-0.08 -0.15,0 0,-0.08 -0.3,0 0,-0.08 -0.3,0 0,-0.08 -0.22,0 0,-0.08 -0.15,0 0,0.24 -0.08,0 0,0.08 -0.07,0 0,0.08 -0.15,0 0,0.08 -0.15,0 0,0.07 -0.15,0 0,0.08 -0.15,0 0,0.08 -0.15,0 0,0.08 -0.15,0 0,-0.08 -0.07,0 0,-0.08 -0.23,0 0,-0.15 -0.08,0 0,-0.08 -0.07,0 0,-0.08 -0.08,0 0,-0.16 -0.07,0 0,-0.08 -0.08,0 0,-0.16 -0.07,0 0,-0.07 -0.07,0 0,-0.08 -0.08,0 0,-0.08 -0.07,0 0,-0.08 -0.08,0 0,-0.08 -0.07,0 0,-0.08 -0.15,0 0,-0.08 -0.83,0 0,0.16 -0.07,0 0,-0.08 -0.53,0 0,0.16 -1.12,0 0,-0.08 -0.07,0 0,-0.08 -0.6,0 0,-0.08 -0.38,0 0,-0.08 -0.07,0 0,-0.07 -0.15,0 0,-0.08 -0.08,0 0,-0.08 -0.15,0 0,-0.08 -0.15,0 0,-0.08 -0.07,0 0,-0.08 -0.22,0 0,0.08 -0.15,0 0,-0.08 -0.23,0 0,-0.08 -0.07,0 0,-0.08 -0.08,0 0,-0.08 -0.15,0 0,0.08 -0.45,0 0,-0.08 -0.22,0 0,0.08 -0.38,0 0,0.08 -0.22,0 0,-0.08 -0.15,0 0,-0.08 -0.08,0 0,-0.07 -0.07,0 0,-0.16 -0.15,0 0,-0.08 -0.23,0 0,-0.08 -0.07,0 0,-0.08 -0.45,0 0,-0.08 z" 
                fill="rgb(151, 144, 238)" 
                stroke="white" 
                stroke-width=".7px"
                title="Vieques" 
                id="PR-VQ" 
            />
        </svg>