<svg xmlns="http://www.w3.org/2000/svg" viewBox="383.1499999999998 95.83999999999999 29.820000000000164 27.68000000000002" width="29.820000000000164" height="27.68000000000002">
            <path 
                d="m 404.09,95.84 -0.37,0 -1.25,0.41 -0.74,0.01 -2.12,-0.26 -0.38,0 -0.12,0.13 -0.62,1.5 -1.11,0.68 -2.99,0.96 -2.24,-0.12 -0.74,0.55 -0.5,0.13 -0.87,0.01 -0.37,0.14 -1.24,1.08 -0.13,0.28 -0.74,0.95 -2.24,1.09 -0.36,1.9 -0.87,1.22 -0.12,0.54 -0.24,1.09 0,0.27 -0.12,0.68 1.38,2.69 -0.97,3.53 -0.87,0.81 2.14,4.86 1.12,1.35 2,0.93 0.87,0.27 0.62,-0.41 0.74,-0.95 0.12,-0.54 -0.12,-0.27 -0.87,-0.95 0.12,-0.54 0.87,-0.54 2.36,-0.15 0.37,-0.01 0.63,0.41 1.12,0.8 1.62,1.21 5.23,1.19 2,0.13 1.61,-0.28 0.75,-0.14 1.24,-0.15 0.5,0.14 0.87,0.26 1,0.4 -0.01,-1.35 0.37,-1.22 0.37,-0.4 1.61,-1.37 -2.38,-4.99 1.6,-4.88 0.86,-1.08 0.49,-2.71 -0.13,-0.41 -2.5,-2.69 0,-1.89 0.12,-0.41 -2.75,-2.29 -0.25,-0.13 -0.87,-0.67 -0.38,-0.27 -2.12,-0.53 z" 
                fill="rgb(151, 144, 238)" 
                stroke="white" 
                stroke-width=".7px"
                title="Villalba" 
                id="PR-VL" 
            />
        </svg>