<svg xmlns="http://www.w3.org/2000/svg" viewBox="523.1499999999999 110.82000000000001 58.32000000000164 32.42000000000003" width="58.32000000000164" height="32.42000000000003">
            <path 
                d="m 554.39,111.23 -1.62,-0.41 -1.49,0 -0.5,0 -1.24,0.54 -0.38,0.14 -0.75,0.27 -0.24,0 -1.87,0.54 -0.38,0.13 0.13,2.3 -0.25,0.81 -0.38,1.49 -0.74,1.89 -0.75,0.95 -0.75,0.54 -1.49,0.67 -0.25,0 -0.37,-0.13 -0.63,-0.41 -0.99,-0.4 -0.62,0 -0.87,0.27 -0.5,0.4 -0.13,0.27 -1.12,0.81 -0.49,-0.13 -0.13,0 -1.49,-0.81 -1.99,-1.49 -1.99,1.89 -2.37,-0.41 -1.61,2.17 -1.5,1.76 -0.49,0.13 -0.88,0 0.01,1.09 -0.13,0.81 0,0.27 3.23,2.16 2.74,0.41 0.37,-0.14 2.49,-0.54 1.12,1.9 0.37,0.54 0.87,-0.14 0.75,-0.27 0.5,0 1.74,0.54 0.13,0.27 1.49,1.9 0.12,-0.14 2.86,1.36 1.86,0.95 0.13,0 0.99,0 1.87,0.54 2.99,0.54 1.24,-0.81 0.25,0.14 2.36,0.41 2.61,1.08 1.61,2.17 0.25,0.54 1.74,-0.81 0.75,-0.27 1.12,-0.4 0.87,0 0.37,0.68 0.25,0.4 1.24,1.49 1,0.55 0.62,0.67 0.25,0.27 0.06,0.07 0.29,0 0,-0.03 0,-0.05 0.29,0 0,-0.07 0.08,0 0,-0.24 0.15,0 0,-0.08 0.07,0 0,-0.08 0.08,0 0,-0.08 0.07,0 0,-0.23 0.08,0 0,-0.08 0.07,0 0,-0.08 0.15,0 0,-0.08 0.08,0 0,-0.08 0.15,0 0,-0.08 0.3,0 0,0.08 0.15,0 0,0.08 0.3,0 0,0.08 0.37,0 0,0.08 0.45,0 0,0.08 0.23,0 0,0.08 0.14,0 0,0.08 0.08,0 0,0.07 0.07,0 0,0.08 0.08,0 0,0.16 0.15,0 0,0.08 0.15,0 0,0.08 0.15,0 0,0.15 0.22,0 0,-0.07 0.08,0 0,-0.16 -0.08,0 0,-0.32 -0.07,0 0,-0.7 0.07,0 0,0.07 0.15,0 0,0.16 0.08,0 0,0.16 0.07,0 0,0.16 0.23,0 0,-0.4 -0.08,0 0,-0.55 0.08,0 0,-0.16 0.15,0 0,-0.07 0.15,0 0,-0.08 0.07,0 0,-0.08 0.08,0 0,-0.08 0.07,0 0,-0.24 0.07,0 0,-0.31 -0.07,0 0,-0.16 -0.07,0 0,-0.08 -0.45,0 0,-0.08 -0.08,0 0,-0.47 0.08,0 0,-0.47 0.07,0 0,-0.79 0.08,0 0,-0.08 0.07,0 0,-0.08 0.15,0 0,-0.08 0.08,0 0,-0.07 0.14,0 0,-0.08 0.15,0 0,-0.16 0.23,0 0,-0.24 -0.08,0 0,-0.08 -0.07,0 0,-0.15 -0.08,0 0,-0.08 -0.15,0 0,-0.08 -0.07,0 0,-0.08 -0.07,0 0,-0.16 -0.15,0 0,-0.23 -0.08,0 0,-0.08 -0.07,0 0,-0.08 -0.08,0 0,-0.08 -0.07,0 0,-0.55 -0.08,0 0,-0.39 -0.15,0 0,-0.08 -0.07,0 0,-0.79 0.07,0 0,-0.39 0.08,0 0,-0.16 0.07,0 0,-0.55 0.08,0 0,-0.47 0.07,0 0,-0.16 0.08,0 0,-0.4 0.07,0 0,-0.23 0.08,0 0,-0.16 -0.08,0 0,-0.16 -0.07,0 0,-0.07 -0.15,0 0,-0.08 -0.23,0 0,0.08 -0.15,0 0,0.07 -0.07,0 0,0.16 -0.15,0 0,0.08 -0.08,0 0,0.08 -0.37,0 0,-0.08 -0.08,0 0,-0.08 -0.07,0 0,-0.16 -0.08,0 0,-0.47 0.08,0 0,-0.16 0.07,0 0,-0.07 0.23,0 0,-0.08 0.15,0 0,-0.08 0.07,0 0,-0.08 0.08,0 0,-0.08 0.15,0 0,-0.16 0.07,0 0,-0.08 0.3,0 0,-0.07 0.08,0 0,0.15 0.07,0 0,0.08 0.15,0 0,0.08 0.15,0 0,0.24 0.08,0 0,0.08 0.14,0 0,0.07 0.08,0 0,0.08 0.22,0 0,0.16 0.45,0 0,-0.16 -0.07,0 0,-0.08 -0.08,0 0,-0.63 0.15,0 0,-0.07 0.23,0 0,-0.08 0.07,0 0,-0.08 0.08,0 0,-0.08 0.15,0 0,-0.08 0.07,0 0,-0.16 0.08,0 0,-0.08 0.07,0 0,-0.07 0.08,0 0,-0.16 0.07,0 0,-0.08 0.08,0 0,-0.16 0.07,0 0,-0.16 0.15,0 0,-0.07 0.23,0 0,-0.08 0.07,0 0,-0.08 0.15,0 0,-0.16 0.15,0 0,-0.24 0.08,0 0,-0.08 0.15,0 0,-0.07 0.14,0 0,-0.08 0.3,0 0,-0.08 0.53,0 0,0.08 0.07,0 0,0.08 0.08,0 0,0.07 0.07,0 0,0.08 0.08,0 0,0.24 -0.08,0 0,0.08 0.08,0 0,0.08 0.07,0 0,0.08 0.23,0 0,0.08 0.37,0 0,0.07 0.08,0 0,0.08 0.07,0 0,0.16 0.08,0 0,0.08 0.07,0 0,0.24 0.08,0 0,0.07 0.07,0 0,0.08 0.15,0 0,0.08 0.15,0 0,0.08 0.52,0 0,-0.08 0.08,0 0,-0.08 0.07,0 0,-0.08 0.9,0 0,-0.07 0.23,0 0,-0.08 0.22,0 0,-0.08 0.15,0 0,-0.16 0.08,0 0,-0.39 0.07,0 0,-0.24 0.45,0 0,-0.24 -0.07,0 0,-0.31 -0.08,0 0,-0.08 0.08,0 0,-0.24 0.15,0 0,-0.15 0.44,0 0,0.08 0.23,0 0,-0.56 -0.08,0 0,-0.15 0.08,0 0,-0.24 0.07,0 0,-0.16 0.08,0 0,-0.08 0.45,0 0,-0.15 -0.08,0 0,-0.08 -0.15,0 0,-0.04 -0.31,-0.04 -0.06,0 -0.1,-0.01 -1.27,-0.14 -1.61,-0.27 -0.38,-0.14 -0.37,-0.81 -0.37,-0.95 -0.62,-1.08 -2.11,-0.01 -2.24,-1.22 -2.11,-1.22 -0.62,-0.81 -0.13,-0.41 -0.5,-0.54 -0.24,-0.41 -1.25,-0.4 1.25,-2.3 0.37,-0.81 -0.12,-0.55 -0.74,-0.81 -1.5,-0.95 -0.12,0.14 -1,0.13 -0.37,0.14 -1,0.4 -0.87,0.81 -0.12,0.41 0.12,0.67 -0.5,0.27 -1.24,-0.14 -0.13,0 -0.24,-1.21 -1.75,-1.49 -2.49,-1.09 -2.11,-0.68 z" 
                fill="rgb(151, 144, 238)" 
                stroke="white" 
                stroke-width=".7px"
                title="Yabucoa" 
                id="PR-YB" 
            />
        </svg>