<svg xmlns="http://www.w3.org/2000/svg" viewBox="217.38717999999997 441.9904099999999 42.87000000000009 51.01000000000016" width="42.87000000000009" height="51.01000000000016">
            <path 
                d="m 260.01718,447.12041 -2.15,6.42 0.23,0.79 2.05,1.97 0.11,1.59 -1.04,1.45 -5.82,3.97 -0.84,1.79 0.23,3.55 -4.26,8.69 0,0 -0.79,0.51 -4.62,0.04 -1.52,0.58 -2.4,4.46 -2.58,8.99 -2.21,1.08 -2.58,0 -1.59,-1.05 -2.06,-3.06 -3.68,-2.13 -1.3,-1.54 0.26,-4.43 -0.91,-3.89 0.31,-5.29 -0.97,-1.52 -3.65,-1.1 -0.67,-0.7 -0.18,-1.41 4.01,-4.1 7.73,-1.86 1.37,-3.56 2.69,-4.63 0.12,-2.35 -1.11,-4.55 0.7,-2.11 1.36,-1.42 2.26,-0.31 1.43,0.61 1.21,1.45 1.28,3.78 1.92,1.46 4.61,-1.77 4.17,0.2 5.41,-2.75 1.49,0.22 z" 
                fill="rgb(151, 144, 238)" 
                stroke="white" 
                stroke-width=".7px"
                title="Al Bāḩah" 
                id="SA-11" 
            />
        </svg>