<svg xmlns="http://www.w3.org/2000/svg" viewBox="78.77717599999998 192.83041000000011 183.48000400000012 185.61999999999998" width="183.48000400000012" height="185.61999999999998">
            <path 
                d="m 130.84718,324.65041 -0.9,-0.61 -0.33,0.61 -0.7,-0.29 -0.33,-0.44 -1.1,-1 0.38,-0.9 -1,0.41 -1.03,-1.53 -1.82,-1.19 0.16,-0.31 -0.62,-0.34 -1.13,0.46 -3.64,-2.84 0.62,-0.51 -0.59,-0.29 0.58,-1.68 -1.39,0.76 0.45,0.38 -0.44,1.27 -1.68,-0.19 -2.75,-2.06 -1.19,-2.11 -0.79,0.16 -0.38,-0.71 -0.69,-0.14 -0.09,-0.83 -1.55,0.6 -1.04,-0.36 -0.08,0.81 0.54,0.16 -0.37,0.91 -1.51,0.05 -0.66,-0.98 -1.17,0.09 -1.82,-2.71 -1.49,-1.07 0.31,-1.82 0.67,0.46 0.26,-1.12 -1.18,-1.47 -0.42,-1.45 -1.040004,-0.88 0,0 0.550004,-3.24 0.95,-1.47 5.65,-0.48 0,0 2.36,-0.91 0,0 0.79,-0.71 0,0 1.17,-1.81 0,0 0.55,-0.71 0,0 1.55,-0.41 2.31,0.45 0,0 2.58,-0.03 1.61,-0.83 0.92,-1.54 0.22,-1.56 0,0 -0.11,-3.18 0,0 -0.22,-10.27 0,0 0.84,-4.77 0,0 0.1,-0.74 0,0 0.25,-2.3 0,0 -1.12,-1.4 0,0 -3.17,-0.13 0,0 -0.74,-0.31 0,0 -1.79,-6.32 0,0 -1.8,-3.88 -3.72,-3.33 0,0 -2.17,-1.85 -0.67,-1.64 0,0 -0.54,-2.27 -0.73,-0.61 0,0 -2.23,-1.15 0,0 -4.010004,-2.52 -1.53,0.17 0,0 -1.95,1.78 -0.28,-1.56 0,0 -0.81,-3.12 -1.69,-3.17 0,0 -0.67,-1.68 0,0 0.16,-2.33 0,0 3.15,-5.54 0.26,-1.76 0,0 -0.36,-1.18 0,0 -1.54,-0.95 0,0 -4.78,-1.35 0,0 -1.6,-1.31 0,0 -1,-1.58 -0.69,-2.63 0.81,-8.93 0,0 -0.99,-4.2 0,0 -1.43,-1.38 0,0 -1.54,-0.18 0,0 -3.12,0.69 0,0 -0.81,-0.48 -0.09,-0.75 1,-1.47 0,0 3.12,-0.69 0,0 1.62,-0.43 0,0 1.67,-0.81 0,0 1.59,-0.57 0,0 3.22,-1.5 0,0 1.64,-1.06 0,0 0.76,-0.34 0,0 1.55,-0.39 0,0 3.96,1.66 0,0 2.360004,1.74 0,0 2.42,0.31 1.73,-0.42 5.85,-3.33 0,0 1.55,-0.46 0,0 0.78,0.31 0,0 1.11,1.52 0,0 0.8,3.16 0,0 0.56,1.68 0,0 2.45,4.27 0,0 1.09,1.55 0,0 0.81,0.56 0,0 1.52,0.26 0,0 5.38,0.24 1,1.24 0,0 -0.2,1.59 0,0 0.15,0.79 1.47,1.04 0,0 2.27,1.42 0,0 0.15,0.75 0,0 -0.43,2.4 0.19,0.75 0.74,0.34 0,0 0.75,-0.01 1.57,-1.19 0,0 1.54,-1.37 0,0 1.69,-1.29 1.65,-0.33 6.16,2.51 0.8,-0.64 -0.52,-1.5 0,0 -0.31,-1.5 0.42,-0.73 0.75,-0.04 0,0 1.28,1.18 0.96,3.08 0,0 2.36,0.83 0,0 2.36,0.58 2.27,1.43 0,0 1.52,1.23 0,0 2.42,1.83 2.26,0.41 0,0 6.57,-0.52 0,0 10.45,-2.02 0,0 1.53,-0.07 0,0 0.77,0.43 0,0 1.22,1.43 0,0 0.56,1.01 0,0 0.68,1.56 0.24,2.66 -0.75,2.42 -1.62,2.25 0,1.63 1.18,1.5 0.77,0.24 3.27,-0.84 0.73,0.25 0.36,0.79 -0.11,4.16 -1.9,10.91 2.08,9.8 -0.52,10.14 0.63,1.61 1.3,1.49 1.56,0.71 1.55,0.03 9.37,-3.24 8.06,-0.39 2.41,-1.18 3.87,-4.64 3.27,-1.25 6.68,-0.15 11.8,2.31 0,0 6.92,1.83 1.35,1.16 0.28,1.98 -0.57,11.32 1.74,2.02 5.3,1.39 1.41,1.13 3.15,10.79 4.08,3.38 0,0 -0.4,3.14 -2.95,4.25 0.94,3.6 -1.41,4.88 0.04,9.03 0,0 -5.05,-0.85 -3.23,1.03 -0.58,2.32 1.11,2.52 0.16,3.23 -0.69,2.21 -1.06,1.53 -11.75,5.84 -3.59,2.87 0.2,1.49 0.76,0.66 5.35,2.94 0.4,1.57 -0.56,0.76 -5.67,2.31 -2.45,1.77 -5.12,5.33 -9.34,7.12 -4.47,6.66 -1.62,0.02 -6.79,-2.21 -4.63,4.1 -2.33,1.12 -4.76,-0.56 -0.65,-1.58 0.83,-3.86 -0.45,-2.31 -2.09,-1.91 -3.98,-1.18 -0.59,-0.74 -0.06,-0.86 2.65,-6.92 -0.28,-3.25 -1.07,-1.39 -4.76,0.31 -10.44,3.25 -0.7,-0.58 -0.43,-3.86 -1.58,-0.37 -4.88,1.11 -1.55,-0.23 -1.67,-1.3 -3.42,-4.08 -2.42,-1.84 -2.12,-3.42 -0.82,-0.34 -3.08,0.92 -5.12,0.4 0,0 -0.21,0.03 0,0 -0.12,0.02 0,0 -0.64,-3.24 -1.32,-1.32 0.21,-1.05 -0.97,0.4 -0.65,-0.35 -0.13,0.75 0.84,0.4 -0.37,0.4 -0.86,-0.5 0.1,-1.51 -0.57,-1.35 0.13,-0.52 -0.78,-0.4 -0.7,-0.82 -0.95,-2.79 -0.01,-1.63 -1.02,-1.12 -0.92,-0.09 -0.87,-1.56 -2.41,-1.65 -0.58,-1.03 -0.44,-0.28 z" 
                fill="rgb(151, 144, 238)" 
                stroke="white" 
                stroke-width=".7px"
                title="Al Madīnah" 
                id="SA-03" 
            />
        </svg>