<svg xmlns="http://www.w3.org/2000/svg" viewBox="238.57718 195.45041 118.32000000000005 103.66" width="118.32000000000005" height="103.66">
            <path 
                d="m 238.57718,264.11041 1.2,-1.37 4.95,-0.74 6,-3.57 5.95,-0.77 0.81,-0.65 0.05,-0.82 -2.4,-4.78 0.32,-2.44 1.26,-1.51 0.86,-0.19 3.95,1.42 2.43,0.25 0.47,-0.77 -0.82,-6.33 1.89,-4.8 0.77,-0.41 1.6,0.52 3.32,-0.78 0.87,-4.3 4.75,-4.83 11.89,-9.24 11.31,-5.23 2.76,-5.79 2.72,-2.76 14.5,-7.43 4.15,-1.34 2.37,0.86 4.44,4.49 5.99,4.12 7.47,0.54 5.05,-5.84 0,0 2.35,0.93 3.6,2.99 1.34,2.5 0.15,2.5 -0.62,1.48 -4.18,1.84 -2.46,2.11 -4.5,5.87 -4.01,1.1 0.43,5.12 -0.84,5.74 0.49,1.52 3.6,3.57 6.69,10.16 0.14,0.86 -1.08,2.91 2.52,4.86 0.31,3.16 -0.84,3.9 -5.53,-0.22 -7.2,0.68 -8.3,-1.06 -3.13,0.82 -2.02,1.97 -2.28,4.47 -3.09,1.74 -2.84,2.81 -12.88,3.15 -3.27,2.52 -5.42,6.69 -0.15,2.3 1.91,3.83 -0.85,2.18 -2.43,1.79 -5.69,-0.87 -5.67,0.89 -5.73,-0.5 -3.87,-0.81 -5.17,-2.55 -1.5,-0.12 -2.17,1.58 -3.04,5.08 0,0 -4.08,-3.38 -3.15,-10.8 -1.4,-1.13 -5.31,-1.39 -1.74,-2.01 0.58,-11.32 -0.28,-1.98 -1.35,-1.16 z" 
                fill="rgb(151, 144, 238)" 
                stroke="white" 
                stroke-width=".7px"
                title="Al Qaşīm" 
                id="SA-05" 
            />
        </svg>