<svg xmlns="http://www.w3.org/2000/svg" viewBox="116.28718000000022 0.15041460000004037 287.6099999999998 190.57999539999997" width="287.6099999999998" height="190.57999539999997">
            <path 
                d="m 403.89718,130.68041 -12.46,4.39 -8.25,8.72 -12.66,23.68 -9.15,12.15 -1.29,4.67 0.39,1.52 1.47,1.83 0,0 -1.3,2.23 -1.8,0.86 -1.51,-0.52 -1.94,-2.12 0,0 -1.03,-1.87 -6.08,-5.52 -1.62,-0.95 -3.28,-1.26 -9.98,-1.29 -2.44,-1.44 -2.02,-2.48 -2.78,-7.7 -5.28,-9.66 -1.08,-1.62 -1.58,-1.23 -1.57,0.21 -5.05,3.38 -2.52,0.84 -6,-3.12 -6.49,0.31 -0.96,-0.31 -1.42,-1.46 -0.88,-6.22 -0.67,-0.8 -2.68,0.47 -4.62,2.48 -3.99,0.21 -2.52,-1.46 -4.2,-5.16 -2.37,-1.99 -14.47,-3.51 -4.45,0.36 -4.76,1.35 -12.17,-3.53 -20.96,4.87 -2.37,-0.37 -4.38,-1.9 0,0 5.62,-5.69 0.89,-6.06 0.39,-9.36 1.4,-2.47 6.16,-4.72 27.27,-16.849995 5.26,-4.73 -0.1,-1.57 -7.78,-6.26 -3.13,-6.39 -2.09,-2.5 -3.6,-1.59 -5.45,0.04 -3.23,-0.65 -7.57,-6.08 -2.7,-1.26 -7.01,0.88 -17.95,-0.62 -3.7,-1.12 -3.98,-3.44 -1.78,-0.77 -4.38,-0.08 -19.01,-3.45 -8.05,0.14 -7.25,1.36 -13.58,1.49 -3.42,-0.04 -2.31,-0.62 -2.19,-1.9 -3.89,-6.96 -4.7,-3.69 -0.58,-6.72 2.84,-8.34 1.27,-6.06 0,0 35.03,-10.31 10.52,-9.1700004 -0.45,-2.01 1.16,1.54 2.33,1.41 18.56,5.42 6.07,2.8400004 3.42,2.31 88.69,62.66 66.05,45.649995 7,1.62 z" 
                fill="rgb(151, 144, 238)" 
                stroke="white" 
                stroke-width=".7px"
                title="Al Ḩudūd ash Shamālīyah" 
                id="SA-08" 
            />
        </svg>