<svg xmlns="http://www.w3.org/2000/svg" viewBox="258.00717999999983 187.64041000000006 218.33999999999986 309.44999999999993" width="218.33999999999986" height="309.44999999999993">
            <path 
                d="m 456.82718,487.03041 -10.13,2.63 -16.39,2.39 -58.85,5.04 -8.85,-0.7 -3.24,-0.72 -5.22,-2.39 -8.51,-5.59 0,0 -13.54,-12.09 -3.91,-6.36 -2.75,-2.96 -0.22,-1.6 1.23,-6.11 3.34,-6.09 0.08,-2.96 -1.06,-1.73 -3.6,-3.6 -3.07,-4.93 -5.76,-5.01 0,0 -4.34,-7.06 -4.77,-6.36 -0.58,-1.47 1.76,-8.48 -0.54,-6.95 2.33,-3.42 0.68,-2.34 -1.79,-13.1 0.96,-6.16 -0.31,-1.57 -6.45,-1.41 -5.65,1.47 -3.7,-1.28 -1.26,-2.3 0.28,-5.34 0.86,-2.93 -1.84,-1.88 -3.09,-0.85 -14.1,-0.63 -3.01,-1.63 -5.15,-11.26 -0.91,-5.64 -2.1,-4.72 -1.13,-4.86 -4.16,-3.3 -0.36,-3.13 0.44,-3.64 0,0 -0.04,-9.03 1.41,-4.88 -0.94,-3.6 2.95,-4.25 0.4,-3.14 0,0 3.04,-5.08 2.17,-1.58 1.5,0.12 5.17,2.55 3.87,0.81 5.73,0.5 5.67,-0.89 5.69,0.87 2.43,-1.79 0.85,-2.18 -1.91,-3.83 0.15,-2.3 5.42,-6.69 3.27,-2.52 12.88,-3.15 2.84,-2.81 3.09,-1.74 2.28,-4.47 2.02,-1.97 3.13,-0.82 8.3,1.06 7.2,-0.68 5.53,0.22 0.84,-3.9 -0.31,-3.16 -2.52,-4.86 1.08,-2.91 -0.14,-0.86 -6.69,-10.16 -3.6,-3.57 -0.49,-1.52 0.84,-5.74 -0.43,-5.12 4.01,-1.1 4.5,-5.87 2.46,-2.11 4.18,-1.84 0.62,-1.48 -0.15,-2.5 -1.34,-2.5 -3.6,-2.99 -2.35,-0.93 0,0 -0.68,-1.88 0.06,-1.59 0.99,-3.1 2.42,-3.32 3.15,-1.64 0,0 1.94,2.12 1.51,0.52 1.8,-0.86 1.3,-2.23 0,0 3.32,2.32 2.12,2.21 1.4,5.11 1.24,1.53 10.41,6.08 5.75,1.06 3.46,4.22 4.06,3.38 2.34,0.63 5.64,0.11 3.01,0.81 9.86,6.94 2.49,1.19 2.36,0.05 4.41,-1.01 1.55,0.22 6.45,6.08 1.47,2.52 8.88,3.16 3.86,2.08 1.09,2.56 0.43,4.96 0.38,22.63 -0.63,15.07 0.35,7.41 0.68,3.7 1.12,1.79 2.28,1.8 9.44,6.3 9.19,9.16 1.68,2.06 2.95,5.78 1.36,6.89 -0.02,7.75 z" 
                fill="rgb(151, 144, 238)" 
                stroke="white" 
                stroke-width=".7px"
                title="Ar Riyāḑ" 
                id="SA-01" 
            />
        </svg>