<svg xmlns="http://www.w3.org/2000/svg" viewBox="244.02718000000002 530.62041 60.99999999999986 69.53000000000009" width="60.99999999999986" height="69.53000000000009">
            <path 
                d="m 260.53718,593.84041 0.42,0.19 0.18,-0.09 0.34,0.26 -0.65,1.12 -0.68,-0.76 0.39,-0.72 z m -0.48,-3.22 0.36,0.53 -0.42,1.5 -0.08,-0.96 -0.49,0.77 -0.56,-1.17 0.35,-0.56 0.84,-0.11 z m -6.48,-0.49 1.42,1.06 -0.8,-0.19 -0.62,-0.87 z m -3.48,-2.47 1.93,0.5 1.13,1.63 -3.2,-1.03 -0.65,-0.76 0.79,-0.34 z m 9.66,-3.75 0.49,0.34 -1.62,0.14 1.13,-0.48 z m -9.18,-1.81 3.17,1.84 1.47,3.11 2.35,0.67 1.59,-0.36 0.99,1.34 1.6,-0.47 -0.28,-0.9 -0.44,-0.07 0.28,0.62 -0.84,0.04 -0.43,-0.61 0.52,-0.58 0.1,-1.28 0.59,0.1 0.18,-0.63 0.86,0.1 0.21,1.43 0.76,1.02 0.42,-0.08 0.59,1 0.91,-0.21 0.03,0.51 0.47,-0.06 -0.08,0.94 -0.62,0.65 0.44,2.97 -0.93,0.11 -1.24,-1.42 -1.81,-0.37 1.24,-0.6 -0.09,-1.26 -1.8,-0.44 -3.04,0.93 -1.97,-1.64 -1.14,-0.32 -1.19,-1.03 -0.96,-1.9 -1.33,-0.03 0.46,-1.25 -1,-0.81 -0.04,-1.06 z m -6.47,-0.16 2.05,3.05 -1.59,-0.6 0.21,-0.33 -0.75,-0.69 0.08,-1.43 z m 11.93,-2.08 1.14,0.78 -0.56,0.94 0.58,0.92 1.38,0.42 -0.13,0.87 -1.3,-0.32 -0.74,0.59 2.19,1.66 0.74,1.04 -0.28,0.45 -0.76,-1.15 -3.02,-1 -1.83,-2.61 0.01,-1.08 1.64,-0.2 0.94,-1.31 z m -8.03,-0.22 1.51,1.1 -0.69,1.16 -1,0.31 -0.94,-1.16 1.12,-1.41 z m 3.62,-0.86 1.13,0.65 -0.47,0.57 -0.44,-0.06 -0.22,-1.16 z m 5.16,0.24 0.42,1.41 -2.06,-2.08 1.64,0.67 z m -5.78,-47.93 4.46,-0.47 1.26,1.03 -0.82,7.27 0.28,1.5 0.74,0.47 2.95,-0.45 2.15,0.23 1.08,1.35 0.85,2.89 0.73,0.64 8.28,0.4 1.28,1.24 1.59,3.73 3.25,3.17 1.52,0.63 1.41,-0.14 0.56,-0.66 1.67,-6.75 1.21,-2.1 2.87,-2.16 2.21,-0.88 1,1.12 -0.13,4.42 3.6,1.82 2.64,4.64 0.69,0.57 2.95,0.6 1.98,3.01 0,0 0.97,1.39 -1.92,2.92 0.09,2.37 1.55,0.9 0,0.65 0.81,0.35 0.26,0.69 -4.49,1.41 0.42,1.87 -1.52,1.37 0.05,1.45 -0.62,0.32 -0.06,0.88 0.09,0.35 0.98,-0.4 1.63,0.48 0.82,1.64 -0.55,0.91 -2.27,-0.26 0.26,2.81 -1.5,0.7 -0.04,0.6 1.45,1.89 1.55,0.34 0.33,0.83 1.01,0.48 -0.22,1.26 0.48,0.86 -1.43,0.11 -0.32,0.81 0.49,2.6 -0.84,0.15 -2.07,-1.11 -0.66,0.18 0.44,0.9 -1.03,2.74 0.05,1.06 -4.42,1.16 -1.67,1.19 0.42,2.71 -1.71,0.38 -4.82,-0.49 -0.34,-0.69 0.6,-1.77 -1.21,-1.16 -0.84,-2.21 0.56,-3.56 -0.33,-0.29 -0.47,-0.6 0,-0.93 0.01,-0.57 -2.51,-3.11 -1.41,-0.69 -0.64,0.25 -0.39,-1.35 -0.51,-0.19 -0.69,-0.31 1.07,-0.96 -0.53,-1.39 0.31,-1.85 -1.37,-1.12 -2.17,-0.67 -1.33,-1.88 0.23,-1.83 -0.46,-0.18 -1.12,-0.67 -0.26,0.3 1.13,1.95 -0.66,0.66 0.05,1.98 -0.3,0.95 -0.18,-3.73 -0.98,-3.19 -0.53,-4.16 -0.56,-0.31 0.66,-2.11 -0.29,-1.63 -1.44,-0.38 -1.57,-2.47 -1.97,-1.51 -0.98,0.05 -0.2,-1.49 -0.79,-0.94 -7.32,-5.21 -0.65,-1.03 -1.45,-0.33 -1.24,-1.02 -1.05,-0.03 0.19,-0.8 -3.78,-3.48 0.69,-0.01 -1.01,-0.91 0.26,-1.07 -0.59,0.79 -0.49,-0.33 -0.12,-0.55 0.59,-0.18 -0.22,-1.01 -1.39,-0.54 -0.76,-1.79 0,0 1.97,-3.15 3.55,-2.05 0.98,-2.11 z" 
                fill="rgb(151, 144, 238)" 
                stroke="white" 
                stroke-width=".7px"
                title="Jīzān" 
                id="SA-09" 
            />
        </svg>