<svg xmlns="http://www.w3.org/2000/svg" viewBox="143.70718 323.3604100000006 172.6799999999999 214.9899999999995" width="172.6799999999999" height="214.9899999999995">
            <path 
                d="m 143.70718,343.80041 0,0 0.12,-0.02 -0.12,0.02 z m 114.74,-19.79 -0.44,3.64 0.36,3.13 4.15,3.3 1.13,4.86 2.11,4.72 0.91,5.64 5.15,11.26 3.01,1.63 14.1,0.63 3.09,0.85 1.84,1.88 -0.85,2.93 -0.29,5.33 1.26,2.31 3.7,1.28 5.65,-1.47 6.45,1.41 0.31,1.57 -0.96,6.17 1.79,13.1 -0.68,2.34 -2.33,3.43 0.55,6.94 -1.76,8.48 0.58,1.47 4.77,6.36 4.34,7.06 0,0 -4.02,1.47 -5.71,3.77 -5.22,-1.3 -2.26,0.25 -3.16,1.52 -4.55,0.28 -4.26,3.81 -6.41,3.06 -10.11,9.24 -2.31,1.14 -2.29,-0.24 -1.4,-1.02 -4.67,-9.07 0,0 -1.98,-1.93 -1.48,-0.22 -5.42,2.76 -4.16,-0.2 -4.61,1.77 -1.91,-1.46 -1.28,-3.77 -1.22,-1.45 -1.43,-0.61 -2.26,0.32 -1.36,1.41 -0.7,2.12 1.11,4.54 -0.12,2.36 -2.69,4.63 -1.37,3.56 -7.73,1.86 -4,4.1 0.17,1.42 0.67,0.7 3.66,1.09 0.97,1.53 -0.31,5.28 0.91,3.89 -0.27,4.44 1.3,1.54 3.69,2.13 2.06,3.06 1.59,1.05 2.59,0 2.21,-1.08 2.58,-8.98 2.4,-4.46 1.52,-0.59 4.61,-0.04 0.79,-0.5 0,0 1.51,-0.74 2.29,0.13 1.85,1.88 0.21,1.52 -1.31,6.92 2.19,4.44 -1.27,4.6 -0.76,1.42 -1.52,0.75 -4.74,-0.43 -2.24,0.37 -3.88,2.82 -0.75,0.06 -1.97,-1.87 -0.49,10 0.61,2.97 1.02,1.48 1.44,0.48 6.71,0.21 2.11,1.21 2.98,9.14 -1.5,6.41 0,0 -1.01,1.94 -3.55,2.05 -1.97,3.15 0,0 -0.4,-1.87 -0.27,-0.33 -0.95,-1.23 0.03,-0.49 -0.32,-0.57 -0.37,-0.37 -0.51,0.76 -0.36,-0.35 0.36,-1.15 -0.46,-0.24 -0.48,-0.65 0.15,-0.87 -0.73,-0.87 -0.54,-2.04 0.05,-0.8 -0.17,-1.41 -0.82,-0.8 0.15,-1.21 -1.41,-1.06 -0.63,-1.3 -2.26,-0.09 -1.06,-0.83 -0.19,-1.62 -1.74,-2.17 1.24,-4.89 -1.56,-0.4 -1.15,-0.92 -1.2,-2.73 1.29,-3 -0.2,-1.69 -3.05,-1.3 -1.11,-2.63 0.38,-1.51 -0.45,-1.44 -0.82,-0.58 -0.56,-1.36 -1.58,-0.81 0.3,-0.43 -0.48,-2.03 0.5,-2.77 -1.22,-1.31 -2.27,-0.56 -2.79,-2.11 -0.28,-1.02 1.04,0.93 0.34,-2.1 -1.13,-3.14 -1.43,-1.64 -2.06,0.57 -1.01,-0.32 0.18,0.78 1.11,0.52 -0.3,0.28 -1.35,-0.84 -0.43,-1.5 -1.42,-0.71 -0.3,-2 -1.3,-0.58 0.42,-1.26 -0.41,-1.12 -5.69,-3.91 -2.98,-0.95 -1.24,-2.03 -0.65,-0.05 0.14,-1.25 -2.29,0.07 -1.45,-1.52 -0.51,-1.48 -1.65,-0.59 -1.89,0.26 0.06,0.51 -0.75,0.13 -2.1,-1.56 -1.14,0.2 1.53,0.77 0.28,0.74 -2.67,-1.27 -5.15,-3.89 -1.76,-1.95 0.58,-0.54 -1.07,-0.75 0.18,-1.07 -0.96,0.31 -0.7,-0.68 -1.01,-1.32 0.23,-0.37 1,0.68 -0.4,-1.17 -0.99,0.09 -1.48,-1.98 -1.64,-3.02 0.52,-0.77 -0.17,-0.74 -1.45,-0.9 -0.15,0.64 0.6,0.97 -0.58,-0.22 -0.8,-2.17 0.89,0.43 0.34,-0.2 -0.53,-0.43 0.29,-0.25 -0.67,-0.12 -0.55,0.19 -2.05,-1.72 0.25,-1.31 -0.84,-0.77 -1.29,-0.07 -1.24,-1.94 0.16,-1.2 -1.32,-2.35 -1.66,-1 -0.89,-4.24 -0.83,-0.7 -1.27,-2.5 0.11,-0.78 0.87,-0.39 1.29,-0.9 0.7,-1.87 -1.22,-1.02 0.13,-0.82 -0.26,-0.74 0.9,-0.1 -0.92,-1.34 0.25,-0.39 -0.59,0 -0.24,0.29 -0.78,-0.67 -0.93,-6.07 -1.43,-3.12 -3.24,-4.23 -0.38,-1.86 0.39,-0.47 -0.51,-1.44 0.59,-0.78 1.37,-0.28 -1.02,1.88 0.52,0.64 0.46,-0.88 0.79,0.17 0.2,-2.75 1.22,0.1 -0.24,-0.86 0.56,-2.21 -0.34,-0.69 -0.56,2.85 -0.58,-0.26 0.8,-1.95 -0.32,-1.47 2.25,-4.19 -0.02,-1.7 0.44,-0.72 0.84,-0.18 0.32,-1.38 -1.17,-0.01 -0.15,0.92 -0.33,-0.19 -0.72,-0.57 0.48,-2.14 -0.1,-3.6 -1.88,-3.15 -0.39,-1.76 -1.17,-1.43 0.89,-0.9 -0.93,-0.07 -0.43,0.31 -4.27,-7.13 1.3,0.49 1.37,2.24 -0.19,0.47 1.19,0.21 0.51,-0.72 -1.58,-2.25 -0.05,-1.49 -2.29,0 0.32,-0.53 -0.89,0.1 -0.26,0.35 -1.44,-2.19 0.74,-1.65 -0.73,-3.8 -0.25,-0.76 -0.68,0.68 -1.68,-2.45 -0.09,-1.34 -0.33,-0.39 -0.23,-0.15 -0.98,-2.23 -0.07,-2.6 0,0 5.12,-0.4 3.08,-0.92 0.82,0.34 2.13,3.42 2.42,1.85 3.42,4.08 1.68,1.3 1.55,0.23 4.88,-1.11 1.58,0.37 0.43,3.86 0.7,0.58 10.44,-3.25 4.76,-0.31 1.07,1.39 0.28,3.25 -2.65,6.93 0.06,0.86 0.59,0.74 3.98,1.18 2.09,1.91 0.45,2.31 -0.83,3.87 0.65,1.58 4.76,0.56 2.33,-1.12 4.63,-4.1 6.79,2.21 1.62,-0.02 4.47,-6.66 9.34,-7.12 5.12,-5.32 2.45,-1.77 5.67,-2.31 0.56,-0.76 -0.4,-1.57 -5.35,-2.94 -0.76,-0.66 -0.2,-1.49 3.59,-2.87 11.75,-5.83 1.06,-1.53 0.69,-2.21 -0.16,-3.22 -1.11,-2.52 0.58,-2.32 3.24,-1.03 5.03,0.65 z" 
                fill="rgb(151, 144, 238)" 
                stroke="white" 
                stroke-width=".7px"
                title="Makkah" 
                id="SA-02" 
            />
        </svg>