<svg xmlns="http://www.w3.org/2000/svg" viewBox="315.23717999999997 487.0304100000001 141.5900000000001 92.66000000000008" width="141.5900000000001" height="92.66000000000008">
            <path 
                d="m 399.93718,569.40041 -17.23,-2.36 -6.25,-0.42 -6.25,-4.03 -19.73,0 -1.39,0.98 -1.95,0.27 -2.64,-1.39 -2.7,0.12 -8.79,1.12 -0.82,1.52 -1.08,-1.34 -2.95,0.53 -1.37,1.92 -2.61,-0.72 -1.6,0.43 -1.97,-0.29 -0.68,-0.89 -2.02,0.36 -2.59,-2.7 0.07,-1.04 0,0 1.15,-3.24 -1.3,-5.93 0.67,-1.47 0.77,-8.37 -1.38,-6.12 0.08,-1.66 0.88,-1.69 3.08,-3.43 8.21,-7.56 1.08,-1.48 1.06,-3.02 0.95,-1.05 6.32,-2.02 2.38,-1.42 1.22,-1.41 0.97,-2.22 0.17,-2.12 -1.76,-8.57 0.69,-1.59 3.85,-1.94 1.12,-1.39 0.04,-6.08 0,0 8.51,5.59 5.22,2.39 3.24,0.72 8.85,0.7 58.85,-5.04 16.39,-2.39 10.13,-2.63 0,0 -7.99,63.49 -2.59,24.45 0,0 -7.48,4.72 -7.03,-0.36 -8.18,-11.04 -10.7,1.53 z" 
                fill="rgb(151, 144, 238)" 
                stroke="white" 
                stroke-width=".7px"
                title="NajrÄn" 
                id="SA-10" 
            />
        </svg>