<svg xmlns="http://www.w3.org/2000/svg" viewBox="0.27717620000000226 131.0904099999998 195.56000379999992 170.93000000000006" width="195.56000379999992" height="170.93000000000006">
            <path 
                d="m 89.197176,284.95041 1.2,0.84 0,0.66 -1.49,-0.68 0.29,-0.82 z m -7.94,-17.27 0.92,0.6 0.42,-0.21 0.96,2.68 -0.7,0 0.08,-1.17 -2.04,-1.11 0.36,-0.79 z m 4.56,-1.3 0.65,0.16 0.38,1.27 0.55,-0.18 -0.26,0.83 -0.21,-0.47 -1.25,0.04 0.41,-1.09 -0.67,-0.43 0.4,-0.13 z m -0.81,-1.47 0.9,0.87 -1.33,-0.1 0.43,-0.77 z m -3.62,-2.17 0.56,0.93 -0.85,0.56 -0.43,-0.67 0.72,-0.82 z m 2.01,-0.4 0.94,2.34 -1.03,-0.85 0.09,-1.49 z m 0.41,-0.85 0.41,0.44 -0.26,0.62 -0.63,-0.79 0.48,-0.27 z m -14.24,-2.19 1.39,1.61 -1.55,0.1 -0.63,-1.01 0.79,-0.7 z m 2.62,-1.99 0.67,0.53 -0.74,0.07 -1.33,-1.36 -0.02,-1.67 0.47,1.79 1.05,-0.63 -0.1,1.27 z m -65.0999998,-86.2 0.88,0.19 0.6,1.53 -1.02,0.43 -0.73,-1.53 -0.45,0.03 -0.06,0.82 -0.6,-0.11 0.24,-0.9 1.14,-0.46 z m -5.35,-2.13 0.48,0.71 -1.23,0.49 -0.45,-0.32 0.02,0.38 1.1,0.84 1.93,-0.34 -0.1,0.81 1.17,1.07 -2.38,0.35 -1.67,-1.25 -0.33,-2.16 1.46,-0.58 z m 47.9399998,-37.38 5.08,1.55 0,0 2.51,1.93 1.99,2.37 0,0 1.17,1.64 0,0 6.23,8.13 0,0 1.72,0.64 1.81,-0.32 0,0 3.28,-1.38 4.39,-1.03 0,0 4.46,-0.83 0,0 5.16,0.72 4.62,1.8 8.550004,0.72 0,0 1.57,-0.57 0,0 2.58,-6.05 0,0 1.26,-1.48 0,0 1.58,-0.72 0,0 2.87,-2.88 0,0 0.77,-0.41 1.57,0.95 0,0 0.46,1.64 0,0 -0.45,7.19 0.31,4.39 0,0 0.57,2.64 0,0 0.75,1.64 0,0 3.48,3.55 2.42,1.21 0,0 3.31,1.1 0,0 10.14,1.18 0,0 2.4,-1.75 0.79,-0.04 0,0 1.54,1.26 0,0 0.78,0.47 0,0 1.64,-0.31 0,0 0.75,0.21 0.79,2.47 1.29,1.08 0,0 1.73,-0.09 3.56,-1.88 0,0 3.39,-0.99 1.64,0.49 1.4,1.22 0,0 1.13,1.32 2.36,0.52 0,0 4.08,0.72 0,0 1.54,0.24 0,0 4.95,1.31 2.94,2.27 0,0 1.3,1.6 0,0 2.31,0.67 0,0 0.75,0.31 1.33,2.42 0.78,0.46 0,0 2.36,0.99 1.41,1.64 0,0 1.04,2.51 2.24,9.37 0,0 0.39,1.63 0,0 0.14,0.92 0,0 1.4,3.91 3.73,2.15 0,0 0.81,0.36 0,0 2.96,1.84 0,0 0.35,0.76 0,0 -0.29,2.41 -4.44,4.13 0,0 -3.13,3.74 -2.33,7.77 -1.99,2.39 0,0 -0.56,-1.01 0,0 -1.22,-1.43 0,0 -0.77,-0.43 0,0 -1.53,0.08 0,0 -10.45,2.03 0,0 -6.57,0.52 0,0 -2.26,-0.4 -2.42,-1.83 0,0 -1.52,-1.23 0,0 -2.27,-1.43 -2.36,-0.58 0,0 -2.35,-0.83 0,0 -0.96,-3.08 -1.28,-1.17 0,0 -0.75,0.04 -0.42,0.73 0.31,1.51 0,0 0.52,1.5 -0.8,0.64 -6.15,-2.51 -1.65,0.33 -1.68,1.29 0,0 -1.54,1.37 0,0 -1.57,1.19 -0.75,0.01 0,0 -0.74,-0.34 -0.19,-0.75 0.43,-2.4 0,0 -0.15,-0.75 0,0 -2.27,-1.42 0,0 -1.47,-1.04 -0.15,-0.79 0,0 0.2,-1.59 0,0 -1,-1.24 -5.38,-0.23 0,0 -1.52,-0.26 0,0 -0.81,-0.56 0,0 -1.09,-1.55 0,0 -2.45,-4.27 0,0 -0.56,-1.68 0,0 -0.8,-3.16 0,0 -1.11,-1.52 0,0 -0.77,-0.31 0,0 -1.55,0.46 0,0 -5.85,3.33 -1.73,0.42 -2.42,-0.31 0,0 -2.350004,-1.74 0,0 -3.96,-1.66 0,0 -1.55,0.39 0,0 -0.76,0.34 0,0 -1.64,1.06 0,0 -3.22,1.5 0,0 -1.59,0.57 0,0 -1.67,0.81 0,0 -1.62,0.43 0,0 -3.12,0.69 0,0 -1,1.47 0.09,0.75 0.81,0.48 0,0 3.12,-0.68 0,0 1.54,0.18 0,0 1.43,1.38 0,0 0.99,4.2 0,0 -0.81,8.93 0.69,2.63 1,1.58 0,0 1.6,1.31 0,0 4.78,1.35 0,0 1.54,0.95 0,0 0.36,1.18 0,0 -0.26,1.76 -3.15,5.54 0,0 -0.16,2.33 0,0 0.67,1.68 0,0 1.69,3.17 0.81,3.12 0,0 0.28,1.56 1.95,-1.78 0,0 1.53,-0.17 4.010004,2.52 0,0 2.23,1.16 0,0 0.73,0.62 0.54,2.27 0,0 0.67,1.64 2.17,1.85 0,0 3.72,3.33 1.8,3.88 0,0 1.79,6.32 0,0 0.74,0.31 0,0 3.17,0.13 0,0 1.12,1.4 0,0 -0.25,2.3 0,0 -0.1,0.74 0,0 -0.84,4.77 0,0 0.22,10.27 0,0 0.12,3.18 0,0 -0.22,1.56 -0.92,1.54 -1.61,0.83 -2.58,0.03 0,0 -2.31,-0.45 -1.55,0.41 0,0 -0.55,0.71 0,0 -1.17,1.81 0,0 -0.79,0.71 0,0 -2.36,0.91 0,0 -5.65,0.48 -0.95,1.47 -0.550004,3.24 0,0 -1.62,-2.9 0.14,-0.69 -0.84,0.33 -0.56,-1.64 -2.78,-1.51 0.33,-0.45 -0.77,-1.66 0.84,0.07 -0.05,-1.24 -0.92,-0.35 0.42,0.41 -0.78,0.58 -1.33,-1.78 0.74,-0.6 1.35,0.3 -0.89,0.44 1.2,0.37 0.35,-1.18 1.15,-0.94 -0.69,-1.49 1.33,-3.11 -1.45,-2.83 0.79,-1.46 -0.59,-2.62 -4.67,-5.22 -1.37,-3.49 0.09,-1.57 -2.7,-2.19 0.04,-1.78 -0.93,-0.25 -0.22,-2.07 -1.07,-1.57 -2.11,-0.91 -2.23,-3.18 -0.39,0.01 0.53,1.51 -0.37,0.18 -0.61,-0.06 -0.53,-0.89 -0.9,-0.06 -1.1,-0.86 0.18,-1.06 -0.49,0.39 -0.45,-0.52 -0.58,-1.92 -0.96,-0.3 1.62,-2.56 0.64,-2.31 -0.24,-1.94 -1.79,-1.12 -2.77,-0.16 -0.28,-0.17 -2.35,-1.96 -1.09,-3.69 -3.07,-4.99 -2.17,-5.7 -2.64,-4.47 -2.02,-2.17 -1.02,-1.98 -1.75,-0.97 -1.79,-4.21 -0.16,-1.73 -3.01,-3.32 -1.93,-1.1 -0.29,-0.81 -3.08,-3.08 -0.43,-2.1 1.01,-1.06 -0.31,-1.15 -2.3,-3.78 -2.56,-1.31 -2.59,-2.96 -0.18,-1.36 -1.79,-2.4 -0.4,-3.1 -1.48,-1.89 -0.38,-1.99 -1.02,-1.86 -0.85,-0.86 -1.85,-0.56 -0.19,-2.51 -2.49,-2 -0.65,-1.62 -3.32,-1.72 -0.19,-0.58 2.18,-0.65 -0.07,-0.59 -2,-0.36 -0.68,-0.59 -1.3,0.06 -1.7,-1.66 -0.56,0.22 -0.9,-0.6 0,0.26 0.51,0.81 -1.1,-0.65 -2.4,1.32 -2.25,-0.17 -0.53,0.41 -0.23,-0.96 1.02,-0.56 -1.66,0.11 -0.58,1.35 -0.27,-0.42 0.64,-1.12 -0.56,0.08 -0.54,0.73 -1.0199998,-0.16 0.44,1.27 -0.96,0.02 0.44,-1.68 -1.35,-0.19 0.32,-0.33 -0.44,-0.83 -0.25,0.49 -0.72,-0.3 -1.13,1.56 0.59,1.1 -0.68,0.14 -0.71,1.44 -0.78,-1.45 0.2,-1.28 -0.53,-0.22 -0.75,0.5 0.01,-0.79 1.96,-2.53 0.97,0.36 -0.42,-1.04 0.6,-0.43 0.76,-2.54 -0.34,-0.08 3.31,-8.17 1.1499998,-1.73 -0.27,-3.51 -0.7699998,-1.93 1.9199998,-5.76 0.03,-2.95 0,0 3.23,0.16 1.64,-0.61 2.49,0.78 0,0 5.25,0.69 0,0 1.92,-0.12 2.31,-2.25 0,0 3.26,-0.84 0,0 6.03,-1.09 0,0 2.35,0.22 0,0 3.31,-0.69 0,0 3.38,-0.17 0,0 2.61,0.51 z" 
                fill="rgb(151, 144, 238)" 
                stroke="white" 
                stroke-width=".7px"
                title="Tabūk" 
                id="SA-07" 
            />
        </svg>