<svg xmlns="http://www.w3.org/2000/svg" viewBox="155.53717999999998 135.12041000000002 199.85999999999984 137.5299999999999" width="199.85999999999984" height="137.5299999999999">
            <path 
                d="m 183.65718,221.36041 1.99,-2.39 2.34,-7.76 3.13,-3.74 0,0 4.44,-4.13 0.29,-2.41 0,0 -0.36,-0.76 0,0 -2.95,-1.84 0,0 -0.82,-0.36 0,0 -3.73,-2.16 -1.4,-3.91 0,0 -0.14,-0.92 0,0 -0.39,-1.63 0,0 -2.24,-9.37 -1.05,-2.51 0,0 -1.4,-1.64 -2.37,-0.99 0,0 -0.77,-0.46 -1.33,-2.43 -0.75,-0.31 0,0 -2.31,-0.67 0,0 -1.3,-1.59 0,0 -2.94,-2.27 -4.95,-1.3 0,0 -1.54,-0.24 0,0 -4.08,-0.72 0,0 -2.36,-0.52 -1.13,-1.33 0,0 3.69,-4.2 6.27,-3.54 9.93,-4.38 4.29,-0.69 13.07,-7.6 12.9,-5.53 3.04,0.66 0,0 4.38,1.9 2.37,0.37 20.96,-4.87 12.17,3.53 4.76,-1.35 4.45,-0.36 14.47,3.51 2.37,1.99 4.2,5.16 2.52,1.46 3.99,-0.21 4.62,-2.48 2.68,-0.47 0.67,0.8 0.88,6.22 1.42,1.46 0.96,0.31 6.49,-0.31 6,3.12 2.52,-0.84 5.05,-3.38 1.57,-0.21 1.58,1.23 1.08,1.62 5.28,9.66 2.78,7.7 2.02,2.48 2.44,1.44 9.98,1.29 3.28,1.26 1.62,0.95 6.08,5.52 1.03,1.87 0,0 -3.15,1.64 -2.42,3.32 -0.99,3.1 -0.06,1.59 0.68,1.88 0,0 -5.05,5.84 -7.47,-0.54 -5.99,-4.12 -4.44,-4.49 -2.37,-0.86 -4.15,1.34 -14.5,7.43 -2.72,2.76 -2.76,5.79 -11.31,5.23 -11.89,9.24 -4.75,4.83 -0.87,4.3 -3.32,0.78 -1.6,-0.52 -0.77,0.41 -1.89,4.8 0.82,6.33 -0.47,0.77 -2.43,-0.25 -3.95,-1.42 -0.86,0.19 -1.26,1.51 -0.32,2.44 2.4,4.78 -0.05,0.82 -0.81,0.65 -5.95,0.77 -6,3.57 -4.95,0.74 -1.2,1.37 0,0 -11.8,-2.31 -6.69,0.15 -3.27,1.25 -3.87,4.64 -2.41,1.18 -8.06,0.39 -9.37,3.24 -1.55,-0.03 -1.56,-0.7 -1.3,-1.49 -0.63,-1.61 0.51,-10.14 -2.07,-9.81 1.9,-10.9 0.12,-4.16 -0.37,-0.79 -0.73,-0.24 -3.27,0.83 -0.76,-0.24 -1.18,-1.5 0,-1.62 1.62,-2.26 0.74,-2.41 -0.24,-2.66 z" 
                fill="rgb(151, 144, 238)" 
                stroke="white" 
                stroke-width=".7px"
                title="Ḩā'il" 
                id="SA-06" 
            />
        </svg>