<svg xmlns="http://www.w3.org/2000/svg" viewBox="197.37700999999996 227.37458 364.6870000000001 227.52600000000015" width="364.6870000000001" height="227.52600000000015">
            <path 
                d="m 465.57301,237.08458 1.37,-1.24 0.866,-1.65 0.151,-3.253 0.317,-0.714 2.348,-1.236 1.177,-0.359 0.654,-0.402 1.397,-0.292 0.659,-0.41 0.982,-0.154 1.071,0.063 0.986,0.513 1.268,1.411 0.819,1.939 0.228,1.94 2.276,3.29 1.378,1.006 1.806,0.399 0.468,0.52 0.508,1.118 1.359,0.715 1.413,0.27 0.652,0.404 3.089,0.981 2.613,1.115 1.814,0.205 1.114,0.513 3.042,0.153 0.383,0.248 0.885,1.382 0.383,0.249 2.878,0.09 0.726,0.248 0.593,0.61 0.156,0.456 0.015,3.002 -0.144,0.842 -0.426,0.64 -0.668,1.764 -0.006,0.626 0.635,1.355 0.473,0.528 1.125,0.759 1.332,0.409 0.994,0.724 0.137,1.509 -0.643,1.959 0.12,0.851 2.332,2.57 0.995,0.368 1.703,-0.137 1.582,-1.734 0.608,-0.202 0.582,0.118 0.282,0.33 0.282,1.001 0.78,1.507 1.252,0.953 0.991,0.37 0.767,0.822 -0.061,0.904 -0.723,1.328 -1.067,1.196 -0.654,1.884 1.145,3.706 -0.046,1.183 -0.426,0.861 0.089,0.403 0.356,0.414 0.959,0.664 0.993,0.391 1.309,1.148 2.412,1.245 0.942,0.149 3.892,0.057 1.161,0.523 1.914,0.257 0.839,0.433 2.648,0.23 1.512,1.441 0.392,0.982 0.834,1.114 1.916,1.649 0.469,0.173 1.689,-0.006 0.932,-0.552 0.814,-1.285 0.21,-2.618 0.413,-0.423 1.074,-0.53 4.252,-0.386 1.433,0.426 1.519,0.763 1.298,1.26 0.264,0.761 0.06,3.311 0.488,1.003 0.127,0.683 0.038,9.324 0.835,1.838 1.224,1.827 1.122,1.011 0.795,1.112 0.143,1.039 0.027,4.989 0,0 -1.642,1.709 -2.104,0.303 -0.818,0.428 -1.41,0.284 -1.254,0.906 -0.623,0.85 -0.723,0.623 -1.162,-0.11 -0.415,0.182 -0.825,1.038 -0.378,1.001 -0.699,1.018 -0.923,0.91 -0.678,0.273 -1.956,0.132 -0.639,0.29 -1.362,1.531 -0.849,0.627 -0.917,1.242 -0.084,1.172 0.334,1.27 -0.481,1.757 -0.779,0.835 -1.642,1.072 -0.418,1.643 -0.297,0.239 -1.958,0.129 -0.984,0.954 -2.404,1.325 -0.244,0.493 0.415,1.089 -0.18,0.57 -1.55,0.492 -0.483,0.901 -1.484,1.398 -0.718,1.085 -0.617,0.395 -1.353,0.127 -41.623,-0.055 -1.389,0.112 -0.687,0.342 -0.111,0.522 0.146,0.264 1.082,0.252 0.432,0.402 0.927,3.588 0.779,1.89 1.896,0.778 3.346,0.996 1.852,1.299 0.907,1.53 0.062,2.421 -0.197,0.619 -0.972,1.087 -0.491,1.069 -0.615,0.595 -0.987,0.394 -2.653,1.984 -0.707,1.477 -2.237,2.048 -0.948,1.59 -1.065,1.351 -1.251,0.872 -1.515,0.028 -0.615,0.242 -0.29,0.521 -0.079,1.313 -0.213,0.565 -0.937,0.446 -1.34,1.087 -0.222,0.666 -0.155,1.957 -0.45,1.169 -0.275,1.495 -0.443,0.804 -0.212,1.888 -0.54,1.598 0.284,0.804 1.587,1.107 0.136,0.672 -0.122,1.034 0,0 -3.119,0.129 -3.603,1.769 -1.399,0.368 -2.208,1.078 -2.237,0.732 -1.641,0.22 -2.24,0.724 -1.537,0.767 -1.353,1.036 -1.395,0.676 -1.402,0.36 -4.028,2.001 -1.354,1.021 -1.522,0.809 -1.573,0.698 -2.484,0.251 -1.389,0.683 -1.679,1.148 -1.099,0.121 -9.676,-0.002 -1.706,0.551 -1.602,0.236 -1.17,0.458 -1.779,0.269 -1.4,0.671 -2.216,1.473 -2.053,1.736 -4.163,2.064 -1.816,0.247 -1.659,0.787 -0.584,0.697 -0.967,1.962 -1.369,2.051 -0.573,0.487 -2.222,0.743 -2.845,0.175 -1.672,0.573 -3.87,0.11 -1.32,0.504 -1.631,0.239 -1.137,0.472 -1.36,0.283 -1.348,-0.107 -1.424,0.452 -3.029,-0.642 -1.163,-0.464 -2.849,-0.198 -1.66,-0.594 -1.446,0.108 -0.576,0.378 -0.762,0.927 -0.658,1.405 -0.79,2.426 0.006,1.272 0.608,1.841 -0.078,3.217 -1.341,0.977 -0.851,1.368 -0.729,0.534 -0.759,0.098 -2.373,-1.858 -4.166,-2.09 -3.476,-1.062 -2.357,-1.131 -2.095,-0.686 -1.604,-0.23 -1.332,-0.507 -6.645,-0.027 -1.51,0.534 -1.601,0.237 -1.154,0.459 -1.165,0.117 -0.343,0.564 10e-4,0.394 1.316,2.69 0.628,0.435 1.913,0.621 1.956,0.301 1.822,0.948 0.805,0.89 0.786,1.529 0.651,1.402 0.155,1.232 -0.065,4.577 -0.823,1.611 -1.268,0.736 -1.038,0.148 -2.342,-0.054 -1.605,-0.598 -0.877,0.063 -0.325,0.516 -0.169,2.062 -0.876,1.651 0,0 -0.629,0.181 -1.58,0.904 -0.601,-0.029 -0.728,-0.319 -1.306,0.523 -0.889,-0.261 -1.451,-2.36 0.022,-0.69 0.574,-1.682 -0.035,-0.909 -0.199,-0.504 -1.528,-1.423 -0.67,-1.097 -1.371,-0.318 -1.221,-0.637 -0.837,-1.162 -1.104,-0.124 -0.533,0.337 -0.343,0.817 -0.94,1.127 -0.409,0.982 -0.645,0.744 -0.742,0.65 -0.959,0.462 -0.671,0.742 -0.678,0.168 -0.896,-0.429 -0.975,0.002 -0.986,0.83 -0.558,1.429 -1.444,1.769 -0.273,0.781 -0.514,0.771 -0.432,1.393 -0.901,1.244 -0.913,1.748 -0.449,0.346 -0.569,0.011 -0.917,-0.829 -0.291,-0.788 -0.292,-0.141 -0.35,-2.65 -0.521,-1.514 -0.195,-2.14 -1.104,-3.076 -0.254,-2.493 -0.809,-2.071 -0.972,-0.274 -5.636,0.015 -2.456,-0.66 -5.431,-0.03 -0.258,-0.185 -0.101,-0.414 0.848,-1.263 0.003,-0.321 -0.27,-0.397 -2.218,-1.114 -3.277,-2.281 -1.578,-0.489 -3.09,-1.792 -25.614,-0.071 -2.273,-0.638 -4.17,-0.072 -2.064,-0.623 -4.171,-0.072 -2.075,-0.624 -4.115,-0.07 -1.762,-0.555 -1.162,-0.12 -10.058,0.022 -1.702,0.33 -1.182,-0.163 -1.135,0.392 -1.373,0.123 -23.475,-0.012 -2.1,0.157 0,0 0.174,-4.299 -0.112,-0.914 -0.48,-0.957 0.103,-0.754 2.869,-2.822 0.768,-0.203 1.45,0.012 0.621,-0.385 0.264,-0.491 0.041,-0.553 -0.542,-1.484 0.004,-0.671 0.268,-0.388 0.789,-0.339 0.715,-0.663 0.815,-1.68 0.114,-1.939 -0.11,-1.935 -1.873,-3.582 -0.095,-1.826 0.232,-0.721 0.94,-1.381 0.42,-1.782 0.688,-0.684 0.797,-0.34 0.293,-0.38 0.151,-6.449 1.979,-4.083 0.064,-0.721 -0.692,-0.692 0,0 0.747,-0.463 0.986,0.117 1.485,-0.447 0.465,-0.267 1.5,-1.593 1.249,-0.142 0.947,0.123 1.745,0.573 5.32,0.049 2.29,0.643 4.837,0.072 1.912,0.6 4.314,0.092 1.735,0.569 3.112,0.126 2.355,0.629 2.504,0.062 1.547,0.523 1.137,0.121 0.824,1.988 0.483,0.531 0.519,0.201 1.982,0.2 1.376,1.072 1.798,0.429 1.64,1.707 0.973,0.116 0.611,-0.18 1.366,-1.412 0.344,-2.229 1.493,-2.489 0.936,-0.838 1.07,-1.674 0.628,-0.605 1.082,-0.476 2.753,-2.078 1.043,-2.921 0.9,-0.925 1.858,-0.765 0.878,0.046 1.156,0.453 0.729,0.097 2.101,-0.585 5.302,-0.047 0.635,-0.193 1.225,-1.028 1.387,-0.306 0.841,-0.445 6.304,-0.096 0.512,-0.1 1.35,-0.687 0.287,-0.393 0.105,-0.696 0.014,-7.871 0.201,-0.716 1.116,-1.906 0.067,-1.642 -0.171,-1.508 -2.764,-4.311 -0.828,-0.797 -2.727,-1.702 -0.447,-0.738 0.3,-0.423 1.995,-0.731 0.414,-0.433 0.171,-5.932 2.519,-4.467 0.138,-0.933 -0.268,-0.519 -1.574,-0.917 -1.255,-1.042 -0.518,-1.343 -1.565,-2.278 0,0 24.666,-10e-4 1.132,0.109 1.177,0.433 1.313,0.217 0.49,0.62 0.114,2.954 1.162,1.422 0.699,2.081 0.225,2.191 0.772,1.49 0.435,0.205 0.66,0.024 0.601,-0.191 1.091,-0.982 1.388,-0.568 0.998,-1.21 0.139,-1.323 -0.483,-1.542 0.718,-1.581 0.603,-0.227 0.816,0.095 0.974,1.082 0.522,0.308 0.869,-0.298 0.348,-1.512 0.661,-1.391 1.109,-1.364 0.335,-2.032 1.162,-0.735 0.311,-1.629 0.859,-1.124 0.629,-0.221 0.638,0.169 1.406,0.961 1.535,0.743 5.431,0.056 0.934,0.343 0.646,1.115 0.301,1.246 1.044,2.21 1.007,3.313 1.051,2.205 0.426,1.404 0.84,1.212 0.52,1.224 1.668,0.703 0.695,-0.017 1.614,-0.979 2.464,-0.292 1.37,-0.494 6.026,-0.143 0.402,-0.209 1.529,-1.519 0.547,-0.204 0.463,0.055 0.786,0.448 1.353,0.245 1.556,0.533 2.713,0.007 1.481,-0.614 1.643,-0.063 2.905,0.856 0.796,0.447 3.038,0.04 1.177,-0.529 1.76,-0.211 0.841,-0.434 1.494,-0.281 1.372,-0.492 4.763,-0.025 0.821,-0.275 0.236,-0.467 0.045,-1.306 -0.18,-1.092 -0.505,-1.018 -0.038,-2.126 0.264,-1.124 0.573,-0.734 0.732,-0.697 1.701,-1.022 1.769,-1.728 1.588,-0.948 1.188,-1.113 1.663,-1.088 1.916,-2.721 1.262,-1.028 2.533,-1.314 1.231,-0.307 0.521,-0.317 0.833,-1.32 1.929,-2.045 0.74,-1.273 1.748,-2.104 0,0 0.44,-0.394 1.944,-0.914 0.914,-0.659 1.348,-0.499 0.687,0.03 1.271,0.693 1.043,1.227 0.575,0.872 0.574,1.573 0.183,0.094 0.473,-0.19 1.235,-1.407 1.32,-0.611 0.867,-0.84 3.047,-1.076 0.614,-0.85 0.117,-1.277 0.272,-0.507 1.161,0.776 0.788,0.21 0.358,-0.258 0.213,-0.647 0.412,-0.414 1.192,0.077 1.432,-0.502 1.939,-0.343 1.771,-1.852 0.256,-0.549 0.892,-0.199 0.741,-1.51 0.761,-0.448 0.715,-0.684 0.557,-0.151 1.374,0.143 0.951,-0.759 0.753,-0.084 1.149,0.803 1.594,0.697 0.477,0.075 1.622,-0.799 0.445,0.606 -0.238,0.704 0.509,1.012 -0.41,0.497 -0.901,0.507 -0.396,0.456 0.024,0.545 0.546,0.773 -0.302,1.769 -0.351,0.664 -0.372,0.301 -2.206,0.307 -0.262,0.188 0.02,0.39 0.547,0.76 -0.365,0.707 0.157,0.906 2.133,1.738 0.478,0.061 0.788,-0.518 0.714,0.055 1.299,1.249 0.649,0.268 1.59,-0.338 1.525,-0.786 0.728,-0.014 0.478,0.145 1.434,0.961 0.14,-12.788 -0.158,-7.396 z" 
                fill="rgb(151, 144, 238)" 
                stroke="white" 
                stroke-width=".7px"
                title="Central" 
                id="ZM-02" 
            />
        </svg>