<svg xmlns="http://www.w3.org/2000/svg" viewBox="285.46901000000014 240.68858000000014 133.777 103.25700000000003" width="133.777" height="103.25700000000003">
            <path 
                d="m 336.74701,244.58058 0.531,0.147 1.392,-0.24 0.936,0.171 0.972,-0.277 2.766,0.483 0.402,-0.173 0.632,-0.76 2.499,-0.866 0.148,-0.365 -0.377,-1.194 0.29,-0.24 2.812,0.857 3.105,-0.22 0.438,0.426 0.483,1.779 1.199,2.256 -0.286,1.578 0.091,0.613 0.31,0.219 0.403,-0.061 1.635,-0.857 1.375,0.665 2.873,0.004 0.894,0.184 0.646,0.367 1.507,3.215 0.336,1.097 0.409,0.329 1.277,-0.449 -0.081,-0.849 0.161,-0.449 1.086,-1.186 0.526,-0.258 0.419,0.008 0.461,1.109 1.455,0.315 0.421,0.204 0.483,0.634 0.393,0.148 0.431,-0.034 0.997,-0.557 0.362,-0.005 0.914,0.475 2.049,-0.098 0.702,0.352 4.585,4.607 2.26,0.93 0.44,0.482 0.033,0.362 -0.395,1.624 0.146,0.388 2.65,1.817 1.571,1.512 0.372,0.581 -0.306,1.972 -0.225,0.813 -0.274,0.339 -0.528,0.204 -1.352,0.089 -0.804,0.403 -0.468,0.481 -0.118,0.505 0.68,1.651 0.855,1.16 2.906,2.889 0.591,1.248 0.329,2.119 1.392,1.289 0.306,0.946 0.441,-0.01 0.727,-0.942 0.75,-2.12 1.293,-1.347 0.472,-0.174 1.455,0.201 0.495,0.369 0.643,0.898 1.196,0.568 1.686,1.552 0.415,0.581 0.113,0.976 0.304,0.666 0.682,0.73 0.25,0.806 0.522,0.313 0.569,-0.246 0.956,0.39 0.176,0.486 -0.13,0.631 0.288,0.554 1.364,1.348 0.504,0.929 0.393,0.958 0.057,1.815 0.695,0.604 0.117,0.334 -0.145,0.548 -0.906,0.168 0.944,1.327 0.186,1.129 -0.162,1.276 0.599,0.689 0.387,-0.342 0.363,-0.02 0.241,0.248 0.106,0.488 0.602,0.046 0.68,-0.332 0.395,0.245 2.264,6.69 0.242,1.969 0.264,0.695 1.091,1.648 0.052,1.454 0.401,0.567 0.364,-0.006 0.636,-0.472 0.382,0.203 -0.001,0.812 -0.483,0.428 0.467,1.14 0.285,0.317 0.982,0.109 0.707,-0.479 0,0 -1.748,2.104 -0.74,1.273 -1.929,2.045 -0.833,1.32 -0.521,0.317 -1.231,0.307 -2.533,1.314 -1.262,1.028 -1.916,2.721 -1.663,1.088 -1.188,1.113 -1.588,0.948 -1.769,1.728 -1.701,1.022 -0.732,0.697 -0.573,0.734 -0.264,1.124 0.038,2.126 0.505,1.018 0.18,1.092 -0.045,1.306 -0.236,0.467 -0.821,0.275 -4.763,0.025 -1.372,0.492 -1.494,0.281 -0.841,0.434 -1.76,0.211 -1.177,0.529 -3.038,-0.04 -0.796,-0.447 -2.905,-0.856 -1.643,0.063 -1.481,0.614 -2.713,-0.007 -1.556,-0.533 -1.353,-0.245 -0.786,-0.448 -0.463,-0.055 -0.547,0.204 -1.529,1.519 -0.402,0.209 -6.026,0.143 -1.37,0.494 -2.464,0.292 -1.614,0.979 -0.695,0.017 -1.668,-0.703 -0.52,-1.224 -0.84,-1.212 -0.426,-1.404 -1.051,-2.205 -1.007,-3.313 -1.044,-2.21 -0.301,-1.246 -0.646,-1.115 -0.934,-0.343 -5.431,-0.056 -1.535,-0.743 -1.406,-0.961 -0.638,-0.169 -0.629,0.221 -0.859,1.124 -0.311,1.629 -1.162,0.735 -0.335,2.032 -1.109,1.364 -0.661,1.391 -0.348,1.512 -0.869,0.298 -0.522,-0.308 -0.974,-1.082 -0.816,-0.095 -0.603,0.227 -0.718,1.581 0.483,1.542 -0.139,1.323 -0.998,1.21 -1.388,0.568 -1.091,0.982 -0.601,0.191 -0.66,-0.024 -0.435,-0.205 -0.772,-1.49 -0.225,-2.191 -0.699,-2.081 -1.162,-1.422 -0.114,-2.954 -0.49,-0.62 -1.313,-0.217 -1.177,-0.433 -1.132,-0.109 -24.666,10e-4 0,0 -0.649,-0.544 -0.975,-0.297 -1.268,-0.689 -1.366,-1.403 -0.219,-1.58 0.13,-4.897 0.847,-2.085 1.497,-1.015 0.247,-0.371 0.271,-1.227 0.471,-0.987 0.048,-3.059 1.686,0.253 0.928,-0.171 1.238,-1.034 0.755,-1.811 1.545,-0.699 0.651,-0.575 0.584,-0.978 0.249,-0.817 0.015,-2.078 -0.207,-0.86 -1.082,-2.185 0.1,-1.267 1.002,-1.609 1.093,-0.843 0.99,-0.4 1.99,-1.249 0.805,-0.801 0.792,-1.659 0.189,-2.481 0.447,-0.818 0.304,-1.484 0.527,-1.464 -0.215,-0.629 -0.443,-0.207 -2.422,-0.162 -0.611,-1 -1.335,-1.351 -1.974,-0.476 -5.862,-3.382 -0.049,-0.685 1.701,-2.732 0.18,-0.934 -0.316,-0.88 -1.19,-1.127 -1.128,-0.676 -1.148,-2.064 0.041,-0.619 0.838,-1.319 0.268,-2.871 0.702,-0.879 0.891,-0.682 1.41,-0.272 1.944,-0.89 1.016,-1.206 1.021,-1.685 1.84,-1.998 1.811,-0.776 1.395,-0.212 0.328,-0.261 -0.026,-0.906 -1.266,-2.814 0.126,-0.592 0.868,-1.267 0.221,-0.611 -0.005,-1.374 -0.455,-1.274 -0.125,-1.129 0.695,-0.685 2.867,-0.049 1.524,-0.535 0.898,-0.086 2.415,0.642 5.072,0.054 1.388,-1.31 2.094,-0.937 0.645,-0.948 0.915,-0.462 1.675,-1.575 1.157,-0.325 1.698,0.134 0.388,0.307 0.328,0.879 0.443,0.495 1.189,0.298 0.917,0.515 0.499,-0.065 1.298,-0.579 3.482,-2.025 1.064,-1.67 0,0 0.448,0.222 0.369,0.526 0.485,2.237 0.228,0.347 z" 
                fill="rgb(151, 144, 238)" 
                stroke="white" 
                stroke-width=".7px"
                title="Copperbelt" 
                id="ZM-08" 
            />
        </svg>