<svg xmlns="http://www.w3.org/2000/svg" viewBox="475.9700099999986 206.59758000000014 212.36000000000132 203.25699999999986" width="212.36000000000132" height="203.25699999999986">
            <path 
                d="m 671.44701,233.59358 -0.436,1.163 0.166,0.1 0.06,1.099 0.223,0.43 0.883,0.52 0.689,0.257 0.816,-0.047 0.249,0.294 0.148,2.13 -0.15,2.656 0.732,0.634 0.364,0.049 0.334,1.558 1.071,1.015 0.472,0.722 0.231,0.509 0.176,1.767 1.699,-0.542 1.713,0.095 0.574,-0.202 1.26,-0.923 1.279,-0.005 0.426,0.631 1.252,0.169 0.481,0.404 0.21,-0.012 0.622,-0.589 0.075,0.134 0.612,-0.103 0.652,1.503 -0.132,0.708 -2.232,1.52 -0.331,0.319 -0.126,0.535 -0.657,0.032 -0.504,0.393 -0.306,-0.104 -0.284,0.668 0.098,0.347 -0.235,0.065 0.525,0.974 -0.077,0.4 -0.576,0.375 -0.458,-0.055 -0.701,0.646 -0.84,0.426 -1.056,1.486 -0.09,0.878 -1.143,0.669 -1.014,1.201 -0.776,0.626 -0.329,-0.021 -0.561,-0.682 -0.681,-0.051 -0.457,-0.547 -0.921,-0.607 -1.213,0.495 -1.453,0.171 -0.518,0.303 0.052,0.642 -1.831,2.443 -1.512,0.658 -0.479,0.472 -0.343,1.309 -0.716,0.539 -0.321,-0.017 -0.095,-0.363 0.261,-1.463 -0.582,-0.618 -0.96,-0.356 -0.921,0.091 -0.476,0.108 -0.829,0.761 -0.517,0.052 -1.22,-1.112 -1.221,0.912 -0.561,0.163 -0.956,0.955 -0.835,1.487 -0.39,0.053 -0.268,0.304 -0.523,2.703 -0.89,1.264 -1.646,1.564 -0.2,0.445 -0.259,4.703 0.079,0.545 0.208,0.239 1.153,0.792 1.206,1.224 0.905,0.454 0.617,1.43 -0.514,1.504 0.01,0.629 -0.302,1.059 -0.012,1.523 -0.298,0.571 -0.478,0.415 -0.456,1.128 -0.268,0.236 0.053,0.447 0.443,0.549 0.05,0.699 -0.988,1.264 0.031,1.355 -0.341,0.739 0.369,2.84 0.889,0.791 0.65,0.942 0.604,1.556 -0.9,0.622 -1.165,0.439 -0.187,0.767 -0.311,0.305 -0.229,0.712 -0.127,0.139 -0.741,-0.02 -0.58,0.806 -0.779,2.833 0.068,0.295 -0.629,1.743 -0.016,1.903 -0.431,1.424 -1.956,2.922 -0.408,0.179 -1.835,-0.058 -0.072,2.073 -0.192,0.287 0.375,0.707 -0.112,0.318 -0.174,-0.006 -1.369,1.427 -0.794,0.08 -0.572,0.531 -0.833,0.263 -0.938,-0.051 -1.122,1.755 -1.414,-0.118 -1.086,-0.759 -0.595,0.006 -0.471,0.235 0.164,0.339 -0.576,0.177 0.032,0.412 0.399,0.692 -0.422,0.386 -0.111,0.406 -0.337,0.148 -0.114,0.348 0.14,0.168 0.936,0.119 0.905,0.653 0.728,0.09 0.613,0.426 1.651,0.28 0.384,-0.493 1.967,0.797 0.281,0.402 0.024,0.393 -0.263,0.69 1.286,0.614 1.176,1.116 0.526,1.002 -0.44,0.514 -1.309,-0.325 -0.578,0.36 -0.71,1.157 -0.797,-0.164 -0.198,1.386 -0.398,0.427 -0.03,0.285 0.391,-0.163 0.889,0.209 0.805,1.245 0.262,-0.089 0.292,-1.108 1.176,0.122 0.808,0.679 0.801,-0.146 0.13,0.408 -0.096,0.487 0.55,-0.303 1.045,0.781 0.374,0.521 0.089,1.024 0.402,0.704 0.78,0.693 1.2,0.711 0.953,1.844 -0.119,0.204 0.792,1.87 0.202,-0.198 0.414,0.041 1.551,0.811 0.186,0.406 0.016,0.676 -0.512,0.909 0.101,0.697 -0.245,0.601 0.05,0.339 0.478,1.02 0.892,0.153 0.35,0.339 0.091,0.37 0.373,0.158 0.077,0.346 0.58,0.148 1.302,-1.491 0.128,-0.359 -0.148,-1.411 0.954,-1.216 1.508,-0.949 1.319,0.009 0.324,-0.137 0.668,-1.299 0.535,-0.137 1.884,1.206 0.405,0.77 -0.038,0.711 0.534,0.909 0.627,0.602 -7.418,2.574 -8.137,3.176 -9.163,3.108 -10.931,4.014 -9.505,4.175 -3.294,0.711 -4.44,0.671 -4.708,1.073 -8.629,2.883 -2.458,1.139 -4.803,0.956 -1.663,0.514 -8.157,4.004 -3.566,0.828 -0.128,0.152 -0.732,-0.009 -3.172,0.747 -2.646,1.385 -1.971,1.296 -4.22,2.376 -3.724,1.904 -2.693,0.437 -6.08,1.383 -3.482,0.541 -4.66,1.296 -0.357,0.29 -6.205,2.005 -0.421,-0.077 -1.767,0.62 -1.071,0.125 -13.419,3.393 -7.933,3.205 -2.25,0.695 -4.536,1.88 -2.08,0.627 -3.662,1.767 -0.215,0.235 -5.181,2.373 -1.624,0.254 -0.922,0.392 -6.22,1.646 0,0 -0.651,-0.903 -0.185,-1.026 0.032,-7.325 -0.274,-1.236 -0.877,-0.837 -0.438,-0.957 -0.684,-0.722 -2.242,-1.322 -1.973,-2.905 -0.65,-0.575 -1.079,-0.372 -0.412,-0.33 -0.528,-1.482 -0.324,-0.431 -0.611,-0.311 -1.124,-0.086 0,0 0.122,-1.034 -0.136,-0.672 -1.587,-1.107 -0.284,-0.804 0.54,-1.598 0.212,-1.888 0.443,-0.804 0.275,-1.495 0.45,-1.169 0.155,-1.957 0.222,-0.666 1.34,-1.087 0.937,-0.446 0.213,-0.565 0.079,-1.313 0.29,-0.521 0.615,-0.242 1.515,-0.028 1.251,-0.872 1.065,-1.351 0.948,-1.59 2.237,-2.048 0.707,-1.477 2.653,-1.984 0.987,-0.394 0.615,-0.595 0.491,-1.069 0.972,-1.087 0.197,-0.619 -0.062,-2.421 -0.907,-1.53 -1.852,-1.299 -3.346,-0.996 -1.896,-0.778 -0.779,-1.89 -0.927,-3.588 -0.432,-0.402 -1.082,-0.252 -0.146,-0.264 0.111,-0.522 0.687,-0.342 1.389,-0.112 41.623,0.055 1.353,-0.127 0.617,-0.395 0.718,-1.085 1.484,-1.398 0.483,-0.901 1.55,-0.492 0.18,-0.57 -0.415,-1.089 0.244,-0.493 2.404,-1.325 0.984,-0.954 1.958,-0.129 0.297,-0.239 0.418,-1.643 1.642,-1.072 0.779,-0.835 0.481,-1.757 -0.334,-1.27 0.084,-1.172 0.917,-1.242 0.849,-0.627 1.362,-1.531 0.639,-0.29 1.956,-0.132 0.678,-0.273 0.923,-0.91 0.699,-1.018 0.378,-1.001 0.825,-1.038 0.415,-0.182 1.162,0.11 0.723,-0.623 0.623,-0.85 1.254,-0.906 1.41,-0.284 0.818,-0.428 2.104,-0.303 1.642,-1.709 0,0 1.671,-0.258 3.691,0.12 1.433,-0.188 1.773,-1.808 1.981,-1.257 0.985,-0.4 0.829,-0.724 0.627,-0.801 0.293,-1.351 0.443,-0.859 0.233,-3.996 1.511,-2.818 1.376,-0.607 0.803,-0.775 1.496,-3.714 0.999,-0.557 2.108,-0.55 1.246,-1.339 1.089,-0.428 1.649,-0.974 1.379,-0.505 0.605,-0.617 0.192,-0.656 -0.088,-2.445 0.144,-1.807 0.196,-0.49 1.332,-1.108 3.779,-1.736 1.304,-1.271 0.233,-0.569 0.186,-1.752 0.731,-1.622 1.643,-1.398 0.86,-2.369 0.22,-2.007 0.507,-1.085 0.09,-2.347 0.564,-1.417 0.284,-1.483 0.442,-0.83 0.256,-1.899 0.44,-0.83 0.179,-2.298 0.585,-1.476 0.101,-2.636 0.471,-0.998 0.275,-1.203 0.27,-0.347 0.972,-0.592 0.581,-0.998 0.431,-1.369 0.862,-0.851 0.493,-0.935 1.646,-1.056 0.733,-0.7 2.439,-3.664 2.636,0.961 1.042,0.158 1.971,-0.076 1.331,-0.493 1.599,-0.221 0.913,-0.54 1.093,-1.179 1.209,-3.754 0.696,-1.345 0.727,-0.543 2.626,-0.749 6.622,-0.105 3.933,-1.858 1.606,-0.22 1.169,-0.453 1.603,-0.233 1.33,-0.491 2.498,-0.125 1.67,-0.551 2.304,-0.237 4.16,-1.367 2.211,-1.06 3.348,-0.969 1.034,-0.557 0.924,-1.272 1.361,-2.75 1.058,-3.437 3.118,-6.138 0.355,-1.387 0.668,-1.365 0.643,-0.626 2.099,-0.997 1.191,-0.802 0,0 -0.219,0.828 0.277,1.042 -0.159,0.656 0.181,0.557 -0.159,0.969 0.311,1.334 0.304,0.541 -0.31,0.714 0.207,0.669 0.285,0.142 0.272,0.513 0.173,1.142 -0.555,1.398 -1.018,1.311 -0.236,0.851 0.121,0.369 0.78,0.661 0.309,1.424 -0.043,0.688 -0.277,1.124 -0.484,0.693 0.09,0.793 -0.313,0.898 0.183,0.717 -0.223,0.98 -0.296,0.681 -0.54,0.503 -0.675,1.75 -0.497,0.618 0.019,1.024 z" 
                fill="rgb(151, 144, 238)" 
                stroke="white" 
                stroke-width=".7px"
                title="Eastern" 
                id="ZM-03" 
            />
        </svg>