<svg xmlns="http://www.w3.org/2000/svg" viewBox="379.0990099999998 9.5055761 125.35500000000002 246.39500390000012" width="125.35500000000002" height="246.39500390000012">
            <path 
                d="m 451.52501,9.5055761 0.128,1.1519999 -0.516,0.478 -0.14,1.019 -1.417,2.865 -2.256,2.075 -2.1,0.267 -2.777,1.344 -1.532,2.091 -1.711,3.547 -1.173,1.285 -1.332,2.481 -0.737,2.204 -0.242,1.564 -0.454,1.153 -0.284,2.406 -2.146,5.588 -0.631,1.076 -0.733,0.673 -1.531,0.708 -1.412,0.255 -0.841,0.751 -0.326,1.603 -0.433,1.17 -0.223,1.952 -0.3,0.358 -1.163,0.253 -0.358,0.264 -0.869,3.024 0.352,0.511 2.531,1.046 1.083,0.645 1.32,1.129 1.019,0.365 0.83,-0.255 0.528,-0.008 0.573,0.219 0.612,0.599 0.962,1.515 1.575,0.535 0.617,0.845 0.47,0.075 0.766,-0.262 0.483,0.219 0.603,1.892 -0.084,0.391 -0.407,0.367 0.059,2.462 0.483,0.933 0.673,2.232 -0.634,1.194 -0.802,0.632 -0.386,0.594 -0.123,2.65 0.144,0.852 0.422,0.659 0.65,1.768 0.321,1.642 0.283,0.335 1.339,1.017 0.452,0.156 1.563,-0.503 0.92,-0.011 0.652,0.179 0.817,0.79 1.023,2.343 0.612,0.593 2.21,1.004 0.554,1.013 0.83,0.757 1.4,0.282 0.768,0.327 1.228,-0.296 0.908,0.369 1.525,0.274 1.804,1.057 2.084,0.285 2.205,1.132 3.05,0.096 0.708,0.232 0.5,0.514 0.974,1.767 1.631,1.489 0.539,2.008 0.754,0.65 1.397,0.252 0.969,0.829 1.261,2.606004 0.107,0.592 -1.172,2.28 -0.305,1.371 -0.455,0.808 -0.086,2.162 0.827,2.481 0.896,1.008 -0.485,1.046 -0.899,0.778 -0.928,1.217 -0.711,1.959 -0.245,2.833 -0.731,1.502 -0.712,0.679 -0.831,0.209 -1.551,0.004 -1.094,-0.121 -0.84,-0.445 -0.687,-0.128 -4.72,0.062 -1.684,0.792 -3.167,3.014 -4.306,2.093 -1.815,0.343 -1.012,0.578 -1.329,1.527 -2.224,1.283 -0.208,0.597 -0.155,2.311 -1.759,2.522 -0.154,0.441 0.02,1.032 0.655,1.557 0.031,0.919 -0.22,0.483 -1.129,1.134 -1.274,1.944 -0.35,2.167 -0.704,0.363 -2.281,0.151 -1.634,1.656 -2.28,1.15 -1.353,0.982 -2.133,1.026 -0.951,0.891 -0.348,1.228 0.034,5.517 -0.151,1.388 -1.831,2.037 -0.932,0.526 -1.002,0.907 -0.786,1.057 -0.061,0.401 0.169,0.388 0.437,0.372 1.394,0.626 3.105,0.935 1.111,0.756 0.848,0.813 0.844,1.307 1.23,0.834 0.822,1.229 1.157,0.899 0.593,0.162 2.468,0.117 2.365,1.113 1.325,0.153 0.101,-1.611 0.588,-1.205 -0.011,-1.352 -1.915,-2.961 -0.234,-2.183 -1.789,-2.838 -0.086,-0.449 0.205,-0.573 0.59,-0.456 1.251,-0.549 1.412,-0.378 1.227,-0.9 2.249,-1.127 1.36,-1.009 1.377,-0.702 1.265,-0.579 1.542,-0.451 1.224,-0.899 2.248,-1.135 1.361,-1.024 1.332,-0.624 0.542,0.047 3.536,2.301 1.83,0.347 1.521,0.727 0.734,0.638 0.644,0.728 1.208,2.764 2.964,2.68 1.462,2.332 0.158,2.528 0.547,1.496 0.04,0.892 -0.654,2.2 -0.092,4.067 -0.575,1.257 -0.148,2.362 -0.568,1.69 -0.132,2.409 -0.537,1.493 -0.211,2.1 -0.56,1.491 -0.082,1.384 0.252,0.684 0.542,0.075 1.817,-0.892 1.193,-2.421 0.623,-0.583 0.992,-0.379 0.71,-0.676 0.72,-1.509 0.217,-1.216 0.293,-0.37 1.005,-0.177 8.625,0.093 0.806,0.373 1.464,1.297 1.076,0.649 0.743,0.807 1.391,0.574 1.623,1.383 3.086,1.92 1.757,1.497 3.047,1.913 1.172,1.507 1.221,0.755 2.189,1.817 0.597,1.149 0,0 -1.021,2.434 -0.083,2.99 -0.306,0.98 -1.27,1.614 -1.015,0.729 -1.137,1.139 -2.053,3.195 -1.523,1.738 -1.823,2.663 -2.429,2.026 -0.83,0.29 -1.954,0.155 -1.347,0.486 -2.629,0.151 -1.523,0.534 -3.159,0.12 -2.043,0.611 -3.51,0.07 -1.693,0.563 -2.808,0.188 -1.351,0.496 -2.641,0.132 -2.259,0.858 -0.916,2.761 0.111,0.789 0.531,1.113 0.06,4.068 0.241,0.546 1.742,1.66 0.591,0.866 -0.439,1.333 -0.435,2.397 0,0 -0.113,-0.197 -0.308,-0.049 -1.053,0.34 -1.31,-0.058 -1.391,0.905 -0.93,0.91 -3.339,1.025 -2.007,-0.032 -2.218,-0.822 -1.255,-0.018 -2.134,1.419 -1.553,0.405 -1.432,0.947 -0.532,0.636 -0.753,1.463 -0.713,2.941 0.026,0.711 1.485,2.677 0.87,0.988 0.254,0.163 1.646,0.053 0.397,0.271 0.189,1.238 -0.631,1.295 -1.631,1.578 -1.463,0.097 -3.676,-1.942 -2.089,-1.357 -0.716,-0.252 -0.67,-0.03 -1.305,0.372 -1.159,-0.104 -0.702,-0.239 -0.366,-0.231 0.02,-1.185 -1.728,-1.532 -0.584,0.108 -0.828,0.461 -0.613,0.066 -2.501,-0.249 -0.958,0.225 -1.146,0.676 -1.566,0.598 -0.544,-0.074 -0.769,-0.894 -1.178,0.425 -1.266,0.175 -1.162,-0.274 -0.637,-0.561 -0.696,-1.578 -1.17,-1.625 -0.357,-2.127 -3.086,-4.576 -2.124,-2 -3.328,-2.468 -0.512,-0.632 -0.861,-1.616 -1.656,-1.631 -1.565,-1.132 -0.83,-2.312 -0.021,-1.35 -0.283,-0.274 -0.633,-0.38 -1.651,0.401 -1.259,-0.411 -2.054,-1.305 -1.513,-0.618 -0.651,-0.714 -0.861,-1.671 -2.271,-0.119 -0.746,-0.573 -1.619,-0.282 -1.965,-1.042 -0.13,-1.251 -0.76,-1.533 -0.423,-0.384 -2.571,0.219 -0.176,-0.568 0.057,-0.85 0.548,-1.538 0.073,-0.752 -0.221,-0.832 -0.498,-0.744 -1.166,-0.776 -0.059,-0.277 0.147,-0.35 0.703,-0.441 0.351,-0.784 -0.13,-0.318 -0.633,-0.464 -0.244,-0.553 0.037,-0.292 0.779,-0.93 -0.024,-0.708 -0.329,-0.649 -1.125,-0.818 -1.505,-2.189 -0.023,-0.639 0.5,-2.94 0.55,-1.342 -0.275,-1.761 0.312,-0.533 0.783,-0.567 0.408,-0.631 0.016,-0.806 0.476,-0.716 0.105,-0.474 -0.282,-1.205 0.132,-0.487 0.219,-0.184 1.081,-0.155 0.511,-0.243 0.08,-0.252 -0.262,-0.829 0.156,-0.669 -0.455,-0.771 -0.05,-0.5 0.445,-1.909 0.84,-0.499 0.261,-1.142 0.758,-1.344 -0.313,-1.439 0.196,-0.85 0.7,-1.454 -0.028,-1.915 -1.044,-2.067 -0.163,-0.649 0.927,-1.166 0.221,-1.96 0.742,-1.371 0.156,-0.793 -0.122,-2.578 0.473,-0.853 1.003,-0.611 0.285,-0.462 0.402,-4.611 0.538,-2.059 0.433,-0.686 0.944,-0.846 0.333,-0.878 1.267,-1.489 0.241,-0.558 -0.075,-1.274 0.225,-0.697 0.493,-0.437 0.717,-0.19 1.889,0.22 0.325,-0.49 0.013,-0.984 0.311,-0.476 0.936,-0.389 0.483,-1.06 -0.209,-0.967 -0.369,-0.534 -0.615,-0.379 -0.649,-0.738 -0.051,-1.481 0.474,-1.628 -0.103,-0.414 -0.412,-0.644 -1.654,-1.277 -0.148,-0.621 0.319,-1.736 -0.196,-1.049 0.409,-1.349 -0.012,-0.748 -0.306,-1.033 -0.671,-1.305 -0.284,-1.366 0.135,-1.109 0.778,-2.586 -0.036,-0.498 -0.355,-0.603 -0.993,-0.677 -0.939,-1.674 -1.068,-1.118 -0.173,-0.468 0.301,-1.125 1.495,-1.737 0.086,-0.749 0.574,-0.437 0.202,-0.376 0.232,-3.792 -0.075,-1.271 0.463,-1.363 -0.218,-0.729 0.469,-0.961 -0.408,-1.404 0.185,-0.527 -0.459,-1.97 1.066,-2.614 0.662,-1.005 0.158,-1.342004 0.868,-2.017 0.008,-1.202 0.189,-0.321 1.173,-0.128 0.172,-0.445 -0.583,-1.054 -0.81,-0.637 -0.325,-1.307 -1.509,-0.239 -0.516,-0.31 -0.609,-1.026 -0.078,-0.565 0.4,-0.903 -0.136,-0.799 0.129,-1.534 -0.163,-0.688 -0.834,-1.271 -0.076,-0.482 0.318,-0.888 -0.092,-0.565 -0.787,-0.912 -0.972,-0.414 0.628,-0.396 0.787,-0.025 0.658,-0.314 0.14,-0.734 -0.347,-0.16 -1.398,0.656 -0.455,0.007 -0.503,-0.392 -0.202,-0.591 -0.244,-3.376 -0.311,-0.451 -0.347,-0.174 -1.176,-0.217 -0.219,-0.811 -1.177,-1.182 -0.05,-0.579 0.433,-1.469 0.554,-0.835 0.154,-0.761 -0.406,-1.318 -0.266,-0.23 -0.954,-0.207 -0.559,0.436 -1.092,1.684 -0.898,0.841 -1.602,0.838 -1.198,0.169 -1.095,-0.385 -0.821,-0.47 -1.009,-1.089 -0.381,-0.671 -0.191,-0.796 0.127,-1.726 0.198,-1.575 0.265,-0.761 1.542,-3.014 3.116,-2.76 2.181,-1.686 3.412,-2.186 2.542,-1.443 2.018,-1.395 1.817,-0.937 2.887,-2.234 3.092,-3.023 6.684,-8.325 2.195,-2.995 0.251,-0.65 2.523,-3.908 0.609,-1.468 0.63,-3.463 -0.268,-2.099 -0.665,-1.956 -1.379,-2.782 -1.567,-2.49 0.187,-0.36 z" 
                fill="rgb(151, 144, 238)" 
                stroke="white" 
                stroke-width=".7px"
                title="Luapula" 
                id="ZM-04" 
            />
        </svg>