<svg xmlns="http://www.w3.org/2000/svg" viewBox="343.13300999999984 389.03458 158.70800000000014 79.1640000000001" width="158.70800000000014" height="79.1640000000001">
            <path 
                d="m 477.85501,389.03458 1.124,0.086 0.611,0.311 0.324,0.431 0.528,1.482 0.412,0.33 1.079,0.372 0.65,0.575 1.973,2.905 2.242,1.322 0.684,0.722 0.438,0.957 0.877,0.837 0.274,1.236 -0.032,7.325 0.185,1.026 0.651,0.903 0,0 1.005,2.513 -0.104,0.349 -0.458,0.401 -0.253,0.742 0.228,0.68 -0.18,1.405 0.673,1.012 -0.196,1.447 0.953,1.13 0.157,0.707 0.548,0.869 0.154,0.848 -0.232,1.208 0.594,0.658 0.818,1.607 2.296,1.703 1.325,1.645 0.989,0.68 1.115,1.584 0.229,1.484 0.365,0.894 -0.239,2.463 1.173,3.151 -0.093,0.478 -1.573,2.851 -0.471,1.134 0.019,0.494 1.445,1.365 1.081,1.952 0.598,0.629 -0.317,0.308 -1.385,0.892 -1.821,0.787 -2.465,-0.297 -1.85,0.038 -0.798,-0.424 -0.524,-0.729 -0.267,-0.061 -2.594,2.197 -0.45,-0.078 -0.327,-0.67 -1.123,-1.163 -1.062,-0.626 -2.47,-0.031 -1.73,0.42 -2.19,0.03 -1.715,0.433 -1.833,0.113 -1.96,0.396 -1.93,-1.189 -1.963,-0.06 -1.466,-0.62 -2.121,-0.17 -2.681,0.067 -1.25,0.292 -3.568,1.65 -5.157,1.198 -1.13,-0.035 -1.971,-1.177 -0.889,-0.04 -1.026,0.288 -1.854,2.01 -0.797,0.41 -3.949,0.228 -0.8,0.255 -1.25,1.166 -2.234,-0.13 -0.785,0.31 -1.141,0.882 -1.462,0.379 -2.334,1.411 -1.321,0.362 -1.003,-0.039 -0.812,0.438 -1.066,1.232 -7.789,5.487 -1.286,1.66 -0.53,1.224 -0.499,0.616 -0.63,0.306 -1.751,-0.241 -0.807,0.156 -2.223,-0.063 -0.727,0.125 -0.661,0.338 0,0 -0.458,-1.062 -1.106,-0.321 -0.991,0.107 -0.815,0.451 -2.554,0.196 -1.723,0.58 -2.213,-0.01 -0.452,-0.192 -0.7,-0.788 -1.082,-0.737 -0.692,-0.799 -1.498,-0.8 -5.682,-0.229 -2.51,-1.781 -0.977,-0.426 -1.624,-1.133 -1.479,-0.06 -0.654,-0.226 -1.509,-1.931 -0.559,-0.438 -2.193,-0.287 -1.16,-0.529 -1.615,0.048 -1.111,0.494 -0.452,-0.057 -0.939,-0.48 -0.984,0.011 -1.027,0.778 -0.674,0.891 -0.374,0.822 -0.588,0.242 -0.815,-0.052 -2.043,-1.715 -0.863,-1.548 -1.624,-0.362 -3.89,-1.759 -2.749,-0.293 -0.322,-0.354 -1.086,-2.263 -0.534,-0.511 -1.256,-0.484 -1.374,-0.943 -1.621,-0.112 -1.344,0.509 -1.491,0.3 -0.835,0.47 -1.432,0.07 -0.615,-0.255 -0.433,-0.935 -0.684,-0.696 -2.099,-0.315 -0.814,-0.401 0,0 0.876,-1.651 0.169,-2.062 0.325,-0.516 0.877,-0.063 1.605,0.598 2.342,0.054 1.038,-0.148 1.268,-0.736 0.823,-1.611 0.065,-4.577 -0.155,-1.232 -0.651,-1.402 -0.786,-1.529 -0.805,-0.89 -1.822,-0.948 -1.956,-0.301 -1.913,-0.621 -0.628,-0.435 -1.316,-2.69 -10e-4,-0.394 0.343,-0.564 1.165,-0.117 1.154,-0.459 1.601,-0.237 1.51,-0.534 6.645,0.027 1.332,0.507 1.604,0.23 2.095,0.686 2.357,1.131 3.476,1.062 4.166,2.09 2.373,1.858 0.759,-0.098 0.729,-0.534 0.851,-1.368 1.341,-0.977 0.078,-3.217 -0.608,-1.841 -0.006,-1.272 0.79,-2.426 0.658,-1.405 0.762,-0.927 0.576,-0.378 1.446,-0.108 1.66,0.594 2.849,0.198 1.163,0.464 3.029,0.642 1.424,-0.452 1.348,0.107 1.36,-0.283 1.137,-0.472 1.631,-0.239 1.32,-0.504 3.87,-0.11 1.672,-0.573 2.845,-0.175 2.222,-0.743 0.573,-0.487 1.369,-2.051 0.967,-1.962 0.584,-0.697 1.659,-0.787 1.816,-0.247 4.163,-2.064 2.053,-1.736 2.216,-1.473 1.4,-0.671 1.779,-0.269 1.17,-0.458 1.602,-0.236 1.706,-0.551 9.676,0.002 1.099,-0.121 1.679,-1.148 1.389,-0.683 2.484,-0.251 1.573,-0.698 1.522,-0.809 1.354,-1.021 4.028,-2.001 1.402,-0.36 1.395,-0.676 1.353,-1.036 1.537,-0.767 2.24,-0.724 1.641,-0.22 2.237,-0.732 2.208,-1.078 1.399,-0.368 3.603,-1.769 z" 
                fill="rgb(151, 144, 238)" 
                stroke="white" 
                stroke-width=".7px"
                title="Lusaka" 
                id="ZM-09" 
            />
        </svg>