<svg xmlns="http://www.w3.org/2000/svg" viewBox="463.1310099999996 53.836576 234.58000000000015 260.1920039999998" width="234.58000000000015" height="260.1920039999998">
            <path 
                d="m 621.83201,53.836576 0.915,0.788 0.796,0.1 1.945,1.162 -0.404,1.159 2.905,4.032 0.318,0.886 1.967,-0.478 0.635,-0.008 2.061,0.695 1.647,0.87 0.881,0.146 2.8,-0.141 2.216,0.516 0.903,0.918 0.446,0.941 -0.004,0.35 0.925,0.03 0.398,0.224 0.551,0.374 0.583,0.863 1.098,0.699 2.349,1.164 1.493,-0.484 0.033,1.104 0.176,0.304 0.469,0.087 0.434,-0.714 0.832,1.097 1.694,0.259 -0.803,1.033 0.215,0.426 0.245,3.657 0.357,0.237 1.288,-0.555 1.125,0.796 1.125,-0.14 0.531,0.365 0.231,-0.093 0.132,0.143 -0.067,0.386 0.218,0.375 -0.127,0.773 -1.037,1.978 0.048,1.05 -0.395,1.298 0.44,0.723 -0.032,0.362 0.359,0.203 0.067,0.751 0.337,0.522 0.755,0.09 0.251,-0.3 0.039,-0.524 0.294,-0.141 0.601,0.028 0.359,0.235 0.047,0.518 1.089,1.635 0.214,0.857 0.411,0.417 0.499,-0.051 0.562,-1.473 0.02,-0.786 0.442,-0.093 -0.143,-0.778 -0.387,-0.207 -0.168,-0.468 0.467,-1.349 0.413,-0.326 0.249,0.385 0.871,0.43 0.522,-0.004 0.145,0.344 0.154,0.008 0.618,-0.332 0.252,-0.609 1.377,-0.066 0.019,0.26 0.574,0.53 0.885,0.52 0.188,0.27 -0.212,0.727 0.475,0.516 0.273,0.875 -0.277,1.569 0.151,1.999 0.574,0.836 1.594,1.351 0.428,0.641 0.317,0.078 0.284,0.368 0.459,0.018 0.072,1.072 0.331,0.386 0.067,0.558 0.437,0.709 0.991,0.151 0.359,0.338 1.349,0.302 0.802,2.045 0.299,0.173 -0.04,0.857 0.708,1.865004 -1.205,0.638 -0.305,0.464 -0.402,1.193 -0.077,1.187 -1.126,3.084 0.009,0.757 -0.821,1.43 0.362,0.133 0.033,0.239 0.724,0.862 0.392,0.025 0.533,0.58 -0.117,0.945 0.3,0.127 0.297,-0.585 0.348,0.31 0.635,0.003 0.574,-0.239 0.593,0.305 0.061,0.258 0.651,0.123 0.089,0.389 0.617,0.653 0.68,0.394 1.501,1.734 0.093,0.316 1.175,0.328 1.404,0.152 0.334,0.398 0.46,0.04 0.105,0.875 0.421,0.557 1.039,0.438 0.181,1.242 0.441,-0.333 0.728,0.056 0.228,0.197 -0.175,0.875 -0.525,1.078 -0.148,1.658 -0.613,0.73 0.301,1.131 -0.329,0.503 0.746,0.999 -0.104,1.3 0.481,0.612 0.421,1.469 0.496,0.765 -0.035,1.042 0.798,-0.085 0.11,0.232 1.081,0.688 -0.128,-0.424 0.987,0.348 0.644,1.291 0.067,0.526 -0.587,0.841 0.247,0.403 0.514,-0.122 0.371,0.404 0.411,0.958 1.299,0.602 0.616,1.346 -0.02,1.08 0.178,0.375 0.347,0.058 1.055,-0.493 0.039,0.332 -0.251,0.622 -0.836,0.785 -0.169,0.484 -1.238,0.935 -1.055,0.493 -1.355,1.779 -0.443,0.053 -0.817,-0.227 -0.306,0.248 -1.636,2.622 -0.586,0.551 -0.602,1.174 -0.321,0.234 -0.4,-0.169 -0.319,0.081 0.103,1.248 -0.161,0.23 -0.188,0.193 -0.329,-0.078 -0.517,0.668 -0.66,0.031 -0.5,0.844 -1.225,0.274 -0.388,0.286 -0.196,0.844 -0.316,0.39 -0.368,0.197 -0.596,0.01 -1.578,-0.454 -1.636,-0.038 -0.739,0.702 -0.738,0.3 -1.747,-0.039 -1.403,2.472 -1.486,0.392 -0.108,-0.515 -0.596,-0.101 -0.514,0.177 -1.09,1.24 -0.085,0.277 0.3,0.806 0.29,0.072 0.377,-0.345 0.553,0.199 0.323,-0.428 1.35,1.327 0.619,0.919 0.191,0.431 -0.311,2.883 0.16,1.124 0.478,1.113 0.105,0.971 0.538,0.545 0.132,0.847 2.042,1.942 0.618,1.156 -0.241,0.623 0.094,0.555 0.289,0.418 0.807,-0.133 0.788,0.491 0.038,0.597 -0.283,0.831 -0.463,0.691 -0.075,0.999 -0.577,1.217 -0.032,0.458 -0.256,0.369 -0.389,0.021 -0.446,0.559 -0.656,0.343 -0.037,0.819 -0.387,0.397 -0.064,0.625 -0.482,0.698 0.022,0.612 -0.566,0.362 -0.257,0.85 -0.546,0.067 -0.35,0.353 -0.048,0.275 0.662,1.511 -0.336,0.401 -0.562,0.106 -0.508,-0.127 -0.437,0.27 -0.123,0.776 0.399,0.609 -0.159,1.558 0.489,0.706 -0.907,0.259 -0.551,-0.152 -0.414,-0.335 -0.082,-0.33 -0.437,-0.132 -0.465,-0.415 -0.011,-0.389 -0.379,-0.626 -0.546,0.285 -0.547,1.374 0.287,0.831 1.001,1.317 -0.074,0.763 -0.358,0.316 -0.129,0.646 0.551,0.814 0.3,0.047 0.072,0.571 -0.214,0.984 -0.853,0.784 -0.426,0.095 -0.189,0.218 -0.35,2.515 0.976,-0.136 1.832,-0.699 0.584,0.449 0.446,-0.381 0.327,0.074 0.318,0.619 0.786,0.252 0.442,0.718 0.286,1.66 -0.299,0.969 0.019,0.628 0,0 -1.191,0.802 -2.099,0.997 -0.643,0.626 -0.668,1.365 -0.355,1.387 -3.118,6.138 -1.058,3.437 -1.361,2.75 -0.924,1.272 -1.034,0.557 -3.348,0.969 -2.211,1.06 -4.16,1.367 -2.304,0.237 -1.67,0.551 -2.498,0.125 -1.33,0.491 -1.603,0.233 -1.169,0.453 -1.606,0.22 -3.933,1.858 -6.622,0.105 -2.626,0.749 -0.727,0.543 -0.696,1.345 -1.209,3.754 -1.093,1.179 -0.913,0.54 -1.599,0.221 -1.331,0.493 -1.971,0.076 -1.042,-0.158 -2.636,-0.961 -2.439,3.664 -0.733,0.7 -1.646,1.056 -0.493,0.935 -0.862,0.851 -0.431,1.369 -0.581,0.998 -0.972,0.592 -0.27,0.347 -0.275,1.203 -0.471,0.998 -0.101,2.636 -0.585,1.476 -0.179,2.298 -0.44,0.83 -0.256,1.899 -0.442,0.83 -0.284,1.483 -0.564,1.417 -0.09,2.347 -0.507,1.085 -0.22,2.007 -0.86,2.369 -1.643,1.398 -0.731,1.622 -0.186,1.752 -0.233,0.569 -1.304,1.271 -3.779,1.736 -1.332,1.108 -0.196,0.49 -0.144,1.807 0.088,2.445 -0.192,0.656 -0.605,0.617 -1.379,0.505 -1.649,0.974 -1.089,0.428 -1.246,1.339 -2.108,0.55 -0.999,0.557 -1.496,3.714 -0.803,0.775 -1.376,0.607 -1.511,2.818 -0.233,3.996 -0.443,0.859 -0.293,1.351 -0.627,0.801 -0.829,0.724 -0.985,0.4 -1.981,1.257 -1.773,1.808 -1.433,0.188 -3.691,-0.12 -1.671,0.258 0,0 -0.027,-4.989 -0.143,-1.039 -0.795,-1.112 -1.122,-1.011 -1.224,-1.827 -0.835,-1.838 -0.038,-9.324 -0.127,-0.683 -0.488,-1.003 -0.06,-3.311 -0.264,-0.761 -1.298,-1.26 -1.519,-0.763 -1.433,-0.426 -4.252,0.386 -1.074,0.53 -0.413,0.423 -0.21,2.618 -0.814,1.285 -0.932,0.552 -1.689,0.006 -0.469,-0.173 -1.916,-1.649 -0.834,-1.114 -0.392,-0.982 -1.512,-1.441 -2.648,-0.23 -0.839,-0.433 -1.914,-0.257 -1.161,-0.523 -3.892,-0.057 -0.942,-0.149 -2.412,-1.245 -1.309,-1.148 -0.993,-0.391 -0.959,-0.664 -0.356,-0.414 -0.089,-0.403 0.426,-0.861 0.046,-1.183 -1.145,-3.706 0.654,-1.884 1.067,-1.196 0.723,-1.328 0.061,-0.904 -0.767,-0.822 -0.991,-0.37 -1.252,-0.953 -0.78,-1.507 -0.282,-1.001 -0.282,-0.33 -0.582,-0.118 -0.608,0.202 -1.582,1.734 -1.703,0.137 -0.995,-0.368 -2.332,-2.57 -0.12,-0.851 0.643,-1.959 -0.137,-1.509 -0.994,-0.724 -1.332,-0.409 -1.125,-0.759 -0.473,-0.528 -0.635,-1.355 0.006,-0.626 0.668,-1.764 0.426,-0.64 0.144,-0.842 -0.015,-3.002 -0.156,-0.456 -0.593,-0.61 -0.726,-0.248 -2.878,-0.09 -0.383,-0.249 -0.885,-1.382 -0.383,-0.248 -3.042,-0.153 -1.114,-0.513 -1.814,-0.205 -2.613,-1.115 -3.089,-0.981 -0.652,-0.404 -1.413,-0.27 -1.359,-0.715 -0.508,-1.118 -0.468,-0.52 -1.806,-0.399 -1.378,-1.006 -2.276,-3.29 -0.228,-1.94 -0.819,-1.939 -1.268,-1.411 -0.986,-0.513 -1.071,-0.063 -0.982,0.154 -0.659,0.41 -1.397,0.292 -0.654,0.402 -1.177,0.359 -2.348,1.236 -0.317,0.714 -0.151,3.253 -0.866,1.65 -1.37,1.24 0,0 -0.04,-0.07 0,0 0.435,-2.397 0.439,-1.333 -0.591,-0.866 -1.742,-1.66 -0.241,-0.546 -0.06,-4.068 -0.531,-1.113 -0.111,-0.789 0.916,-2.761 2.259,-0.858 2.641,-0.132 1.351,-0.496 2.808,-0.188 1.693,-0.563 3.51,-0.07 2.043,-0.611 3.159,-0.12 1.523,-0.534 2.629,-0.151 1.347,-0.486 1.954,-0.155 0.83,-0.29 2.429,-2.026 1.823,-2.663 1.523,-1.738 2.053,-3.195 1.137,-1.139 1.015,-0.729 1.27,-1.614 0.306,-0.98 0.083,-2.99 1.021,-2.434 0,0 1.772,-0.861 0.735,-0.6 2.865,-2.857 1.185,-1.814 2.998,-2.947 0.791,-0.42 1.861,-0.265 1.683,-0.961 0.716,-1.202 1.541,-1.765 3.042,-6.032 2.434,-3.397 1.191,-2.037 1.317,-0.682 2.928,-0.202 0.263,-0.339 0.168,-1.347 0.303,-0.525 2.981,-1.671 1.766,-1.791 0.976,-1.602 0.862,-0.669 0.654,-0.111 0.792,0.163 1.374,0.723 1.678,1.492 0.426,0.042 0.429,-0.324 0.839,-1.415 1.968,-2.092 0.715,-1.543 0.131,-2.098 0.177,-0.436 0.412,-0.327 0.769,0.071 0.4,-0.136 0.714,-0.78 -0.062,-0.557 -0.542,-0.763 -1.405,-0.27 -0.421,-0.395 -0.071,-2.374 0.141,-0.498 0.375,-0.481 1.803,-0.864 2.147,-0.161 1.336,-0.485 2.212,-0.243 0.755,-1.025 0.421,-1.488 0.478,-0.57 2.204,-1.404 2.489,-0.254 1.988,-0.717 1.189,-1.73 1.1,-0.7 0.612,-0.129 0.581,0.12 0.795,0.883 0.553,0.201 0.448,-0.07 4.399,-1.497 0.848,-0.535 0.82,-1.105 0.814,-0.608 3.019,-0.201 2.394,-0.769 0.563,-0.481 0.85,-1.197 3.476,-1.688 0.804,-0.628 0.517,-0.668 1.022,-2.069 0.959,-1.212 0.513,-0.965 1.421,-1.441 1.821,-0.925 1.964,-0.275 1.043,-0.541 0.406,-0.395 0.649,-1.34 0.075,-5.723 0.592,-1.763 0.234,-2.284 0.602,-0.82 3.05,-2.913 3.1,-1.189 1.129,-1.021 0.937,-2.641 0.169,-2.82 0.915,-2.478 3.909,-3.889004 2.768,-1.872 1.71,-0.751 2.783,0.02 -1.011,-1.837 -0.134,-2.575 -0.531,-1.499 -0.189,-2.749 -0.495,-1.324 -0.151,-2.573 -0.531,-1.499 -0.139,-2.575 -0.732,-1.546 0.131,-2.943 -0.113,-1.802 -2.121,-6.263 -2.505,-5.705 -0.111,-1.206 0.113,-3.366 0,0 0.784,0.27 2.514,-0.204 1.074,0.119 z" 
                fill="rgb(151, 144, 238)" 
                stroke="white" 
                stroke-width=".7px"
                title="Muchinga" 
                id="ZM-10" 
            />
        </svg>