<svg xmlns="http://www.w3.org/2000/svg" viewBox="0.26401216999979216 160.07558000000012 333.99899783000035 232.44699999999995" width="333.99899783000035" height="232.44699999999995">
            <path 
                d="m 123.90001,160.49358 1.168,0.74 1.359,-0.053 0.748,0.846 -0.125,0.79 -0.376,0.791 0.139,0.43 1.219,1.028 0.097,0.485 -0.195,1.068 -0.696,1.747 0.624,0.763 1.359,0.515 0.236,-0.041 0.625,-0.707 0.485,-0.208 3.996,0.974 1.734,-0.165 2.22,0.611 3.483,2.083 0.25,0.318 0.499,1.264 -0.278,3.76 0.25,0.542 0.597,0.596 -0.167,4.388 -0.292,1.124 -1.014,1.43 -0.597,1.806 -0.987,1.624 -0.681,0.319 -1.958,0.014 -0.57,0.152 -0.334,0.194 -0.083,0.695 0.805,0.764 1,0.348 1.542,0.153 1.14,-0.305 0.556,0.014 0.555,0.237 0.903,0.833 0.709,0.264 1.542,1.139 0.084,1.292 0.5,0.487 1.556,-0.904 1.071,-0.097 1.389,0.25 0.598,-0.07 1,-0.848 0.653,-0.097 1.96,0.596 0.5,-0.472 0.068,-1.182 0.334,-0.625 2.125,-0.89 0.624,-0.654 1.263,-2.112 1.263,-0.668 0.708,-0.806 0.721,-0.334 0.223,0.152 1.056,-0.112 0.207,-0.347 -0.195,-0.667 0.319,-0.361 0.292,-0.125 0.708,0.11 1.097,-0.376 1.472,0.29 0.667,-0.126 0.555,-0.334 2.055,-0.226 0.472,-0.5 0.387,-1.098 0.36,-0.264 1.931,0.469 1.457,-0.822 0.93,-0.071 0.82,0.262 1.54,-0.544 4.013,-0.023 1.042,0.289 2.179,-0.297 1.803,-0.726 3.18,-0.23 2.095,-0.395 2.828,-1.55 1.816,-0.63 0.723,0.026 0.834,0.33 0.901,-0.225 0.403,0.138 -0.039,0.596 -1.121,1.212 -0.095,0.778 -0.649,1.043 0.029,0.389 0.864,1.01 0.029,0.236 -0.331,0.529 -0.499,0.266 -1.374,0.323 -0.165,0.459 0.223,0.458 0.766,0.636 0.183,0.666 -0.234,0.612 -0.638,0.405 -0.736,0.044 -0.485,0.293 -0.11,0.57 0.798,1.845 0.488,0.457 0.154,0.458 -0.261,0.723 0.447,0.943 -0.078,1.584 0.28,0.639 1.031,0.789 0.029,0.347 -0.902,0.503 -1.014,0.156 -0.305,0.404 0.391,0.388 0.612,0.179 0.238,0.43 -0.024,1.07 -0.289,0.904 0.14,0.431 1.114,0.719 0.21,0.416 0.033,1.293 0.392,0.833 1.686,1.023 1.057,0.233 2.663,1.715 2.101,0.312 0.878,0.386 0.572,0.582 0.435,0.916 0.063,1.891 -0.331,0.78 -0.346,0.349 -0.012,0.598 0.266,0.431 0.544,0.345 0.487,0.082 0.736,-0.476 0.862,-0.114 1.805,-0.981 0.877,0.066 0.401,-0.406 0.566,-1.115 0.931,-0.157 1.531,0.23 0.637,-0.545 0.279,0.013 0.28,0.263 1.334,2.928 1.228,0.593 0.574,0.916 0.656,0.553 6.252,0.748 1.541,-0.786 0.789,-0.783 0.555,-0.24 0.502,0.137 0.405,0.318 0.169,0.444 0.485,2.07 0.477,0.846 0.756,0.804 0.879,0.357 1.544,-0.176 0.936,0.538 0.699,0.705 0.227,0.709 -0.743,1.396 0.182,0.277 0.489,0.193 1.266,-0.078 3.467,0.217 4.051,-0.177 1.974,-0.292 0.754,0.26 0.529,-0.031 0.539,-0.616 0.667,-0.074 2.345,0.959 2.146,0.251 1.482,0.95 1.06,0.174 4.685,-2.79 1.167,-0.328 0.961,0.035 1.422,0.295 1.09,0.549 1.36,1.271 0.727,0.44 0.669,0.147 1.569,1.172 0.656,0.19 0.807,-0.118 0.845,-0.55 0.222,0.013 0.519,0.371 0.864,0.133 0.657,0.356 1.615,-0.013 1.702,0.404 0.963,1.017 0.63,-0.011 1.441,-1.24 0.73,-0.883 1.192,-0.623 1.395,0.211 1.067,1.146 0.701,0.454 1.691,-0.767 1.632,0.236 0.788,-0.592 0.685,-1.203 2.696,-2.154 0.575,-0.994 0.475,-1.381 0.54,-0.214 0.354,-0.867 0.58,-0.478 0.334,-0.013 0.359,-0.436 0.05,-0.786 -0.576,-1.036 0.405,-1.086 0.16,-1.9 0.294,-0.861 0.636,-0.631 0.489,-1.201 0.691,-0.451 0.247,-0.448 0.05,-0.571 -0.219,-1.096 -1.199,-1.727 -0.006,-2.099 0.219,-0.35 0.955,-0.509 2.671,0.169 0.625,-0.104 1.177,-0.526 2.241,0.284 1.658,-1.003 0.909,-0.913 0.334,0.011 0.211,0.276 0.799,3.383 0.211,1.625 0.103,7.371 0.243,0.54 0.857,0.854 1.462,0.151 1.174,0.392 1.654,1.221 0.769,0.34 1.18,1.031 1.063,0.433 0.871,0.757 0.796,0.241 0.583,1.149 1.662,0.567 0.911,0.56 0.789,0.841 0.313,0.623 0.224,1.306 -0.464,3.416 0.18,1.112 0.388,1.068 1.036,0.531 0.352,0.359 0.609,2.068 0.052,2.186 0.39,1.222 0.68,1.009 2.282,2.176 0.659,0.326 1.788,0.31 0,0 -1.064,1.67 -3.482,2.025 -1.298,0.579 -0.499,0.065 -0.917,-0.515 -1.189,-0.298 -0.443,-0.495 -0.328,-0.879 -0.388,-0.307 -1.698,-0.134 -1.157,0.325 -1.675,1.575 -0.915,0.462 -0.645,0.948 -2.094,0.937 -1.388,1.31 -5.072,-0.054 -2.415,-0.642 -0.898,0.086 -1.524,0.535 -2.867,0.049 -0.695,0.685 0.125,1.129 0.455,1.274 0.005,1.374 -0.221,0.611 -0.868,1.267 -0.126,0.592 1.266,2.814 0.026,0.906 -0.328,0.261 -1.395,0.212 -1.811,0.776 -1.84,1.998 -1.021,1.685 -1.016,1.206 -1.944,0.89 -1.41,0.272 -0.891,0.682 -0.702,0.879 -0.268,2.871 -0.838,1.319 -0.041,0.619 1.148,2.064 1.128,0.676 1.19,1.127 0.316,0.88 -0.18,0.934 -1.701,2.732 0.049,0.685 5.862,3.382 1.974,0.476 1.335,1.351 0.611,1 2.422,0.162 0.443,0.207 0.215,0.629 -0.527,1.464 -0.304,1.484 -0.447,0.818 -0.189,2.481 -0.792,1.659 -0.805,0.801 -1.99,1.249 -0.99,0.4 -1.093,0.843 -1.002,1.609 -0.1,1.267 1.082,2.185 0.207,0.86 -0.015,2.078 -0.249,0.817 -0.584,0.978 -0.651,0.575 -1.545,0.699 -0.755,1.811 -1.238,1.034 -0.928,0.171 -1.686,-0.253 -0.048,3.059 -0.471,0.987 -0.271,1.227 -0.247,0.371 -1.497,1.015 -0.847,2.085 -0.13,4.897 0.219,1.58 1.366,1.403 1.268,0.689 0.975,0.297 0.649,0.544 0,0 1.565,2.278 0.518,1.343 1.255,1.042 1.574,0.917 0.268,0.519 -0.138,0.933 -2.519,4.467 -0.171,5.932 -0.414,0.433 -1.995,0.731 -0.3,0.423 0.447,0.738 2.727,1.702 0.828,0.797 2.764,4.311 0.171,1.508 -0.067,1.642 -1.116,1.906 -0.201,0.716 -0.014,7.871 -0.105,0.696 -0.287,0.393 -1.35,0.687 -0.512,0.1 -6.304,0.096 -0.841,0.445 -1.387,0.306 -1.225,1.028 -0.635,0.193 -5.302,0.047 -2.101,0.585 -0.729,-0.097 -1.156,-0.453 -0.878,-0.046 -1.858,0.765 -0.9,0.925 -1.043,2.921 -2.753,2.078 -1.082,0.476 -0.628,0.605 -1.07,1.674 -0.936,0.838 -1.493,2.489 -0.344,2.229 -1.366,1.412 -0.611,0.18 -0.973,-0.116 -1.64,-1.707 -1.798,-0.429 -1.376,-1.072 -1.982,-0.2 -0.519,-0.201 -0.483,-0.531 -0.824,-1.988 -1.137,-0.121 -1.547,-0.523 -2.504,-0.062 -2.355,-0.629 -3.112,-0.126 -1.735,-0.569 -4.314,-0.092 -1.912,-0.6 -4.837,-0.072 -2.29,-0.643 -5.32,-0.049 -1.745,-0.573 -0.947,-0.123 -1.249,0.142 -1.5,1.593 -0.465,0.267 -1.485,0.447 -0.986,-0.117 -0.747,0.463 0,0 -1.365,0.66 -1.938,0.04 -0.77,-0.293 -1.092,-1.304 -0.403,-0.258 -0.513,0.01 -0.629,0.341 -0.8,0.059 -1.455,-0.588 -1.307,-0.053 -0.746,0.146 -2.402,1.123 -2.185,0.259 -3.764,1.884 -5.944,0.07 -1.843,0.606 -0.692,-0.142 -1.091,-0.628 -1.214,-1.018 -1.646,-2.102 -0.044,-5.757 0.168,-0.484 0.714,-0.693 1.54,-0.329 1.403,-0.633 0.899,-0.936 0.193,-2.437 0.513,-1.189 0.212,-1.757 1.146,-1.53 0.323,-1.377 0.478,-0.98 -0.033,-1.223 -0.699,-1.975 -0.781,-0.846 -0.608,-0.168 -0.812,0.073 -1.336,0.599 -2.107,-0.043 -1.496,-1.222 -1.142,-0.626 -0.995,-0.306 -1.217,-1.035 -1.518,-0.754 -1.934,-0.241 -1.004,-0.482 -1.768,-0.202 -0.84,-0.427 -1.494,-0.257 -0.501,-0.236 -0.929,-0.93 -0.748,-1.559 -0.256,-3.759 -0.708,-0.88 -1.35,-1.197 -0.566,-1.267 -0.345,-0.295 -0.856,-0.042 -1.748,0.608 -0.842,-0.544 -0.584,-0.028 -0.355,0.243 -0.269,0.632 -0.353,0.285 -1.356,0.014 -0.604,-0.377 -0.561,-0.667 -1.043,-0.541 -1.45,-1.778 -0.737,-0.407 -1.076,0.497 -0.466,0.897 -0.494,0.325 -1.074,0.228 -0.83,0.427 -2.563,0.02 -2.689,-0.99 -0.43,-0.761 -0.193,-1.547 -0.427,-0.535 -0.446,-0.125 -0.386,0.152 -0.519,0.622 -0.103,1.418 -0.383,0.384 -0.786,-0.019 -1.31,-1.167 -1.21,-0.587 -0.536,-0.033 -2.162,1.003 -1.665,0.356 -0.944,0.987 -1.094,0.786 -0.762,-0.05 -0.706,-0.747 -0.438,-0.062 -0.369,0.266 -0.519,0.901 -0.475,0.431 -1.628,0.236 -1.239,1.021 -1.639,0.793 -0.616,-0.045 -0.797,-0.465 -1.11,-0.209 -1.39,0.208 -1.096,0.509 -1.421,-0.503 -2.144,-0.138 -0.514,-0.353 -0.354,-1.418 -0.731,-0.16 -0.267,0.143 -0.563,0.945 -1.798,0.442 -2.962,1.65 -0.715,-0.126 -1.401,-0.942 -1.198998,-0.5 -1.453,1.547 -2.247,0.339 -2.605,1.735 -1.523,0.746 -1.406,0.288 -0.985,0.478 -2.593,0.163 -2.002,0.711 -1.271,0.892 -1.801,1.741 -0.777,0.537 -3.17,0.258 -1.955,1.141 -2.459,0.752 -0.552,-0.287 -0.336,-1.154 -1.187,0.123 -0.463,-0.198 -0.232,-0.441 0.158,-1.356 1.171,-1.049 0.426,-0.602 0.214,-0.424 -0.117,-0.56 -0.583,-0.229 -2.13,-0.059 -0.834,-0.427 -1.486,-0.257 -0.475,-0.247 -1.036,-1.365 -0.254,-2.779 -1.401,-0.874 -0.922,-0.042 -2.155,1.205 -0.827,0.069 -0.612,-0.175 -0.692,-0.718 -0.337,-1.126 -0.6,-1.153 -0.798,-0.826 -2.987,-1.625 -2.695,-1.872 -0.869,-0.15 -1.077,0.113 -0.402,0.255 -0.936,1.161 -0.62,0.419 -2.566,0.169 -0.608,0.232 -0.816,2.072 -0.229,2.189 -0.969,0.76 -0.809,0.143 -1.914,-1.103 -1.531,-0.359 -0.698,-0.688 -0.518,-1.069 -1.947,-1.29 -2.237,-0.342 -1.532,-0.737 -0.681,-0.708 -0.397,-0.971 -0.686,-0.7 -0.98,-0.405 -2.492,-1.651 -0.98,-0.408 -3.844,-3.764 -1.696,-1.029 -2.444,-2.423 -2.755,-1.374 -0.605,-0.117 -0.554,0.21 -0.569,0.614 -0.433,0.968 -1.491,1.044 -0.708,1.099 -1.3459998,0.731 -1.944,0.652 -0.808,-0.152 -2.185,-1.167 -2.553,-2.488 -0.89800003,-0.423 0,0 -0.032,-41.83 25.84399983,-0.043 95.724998,-0.817 -0.475,-0.7 -0.179,-1.495 -0.237,-0.476 -0.865,-0.713 -1.994,-2.225 -0.364,-0.237 -0.712,-0.043 -1.688,-1.135 -0.306,-0.825 -1.241,-0.966 -0.083,-0.712 0.337,-1.312 0.23,-3.56 0.226,-0.935 0.784,-1.366 0.183,-0.698 -0.319,-1.815 0.156,-0.796 1.468,-2.327 0.31,-0.809 0.114,-1.8 -0.387,-2.051 0.182,-0.376 0.516,-0.432 0.24,-1.088 1.186,-0.472 0.267,-1.046 0.991,-0.542 0.434,-1.352 0.392,-0.529 1.647,-1.42 0.949,-0.431 0.364,-0.92 0.045,-3.151 -0.152,-0.516 -1.24,-0.963 0.908,-0.891 0.279,-0.557 -0.542,-1.673 0.266,-0.641 -0.905,-0.824 -0.779,-1.073 -1.169,-0.574 -0.39,-0.543 -0.666,-2.036 -1.028,-1.687 -0.164,-2.591 0.355,-3.982 -0.171,-6.057 0.226,-2.616 0.756,-3.324 1.045,-0.777 0.266,-0.724 -0.941,-3.41 -0.5,-0.598 -0.139,-0.502 -0.163,-2.239 -0.749,-1.294 -0.179,-1.308 -0.514,-0.738 0.321,-0.416 0.556,-0.18 0.293,-0.542 0.295,-1.807 0.461,-1.389 1.38,-2.222 0.586,-1.403 -0.594,-3.28 0.015,-0.764 0.251,-0.737 0.391,-0.638 0.528,-0.402 1.46,-0.554 0.445,-0.444 0.223,-0.805 -0.04,-0.806 -1.26,-4.266 -1.385,-2.306 -0.138,-0.764 0.161,-5.65 -0.138,-1.18 -0.207,-0.694 -0.291,-0.264 -0.943,-0.293 -0.264,-0.181 -0.055,-0.277 0.126,-0.694 0.654,-0.86 0.028,-0.79 -0.455,-1.985 0.84,-4.839 -0.624,-0.529 0.307,-0.776 -0.277,-0.527 -1.468,-1.112 -0.264,-0.43 0.001,-0.582 0.779,-1.053 3.508,0.185 z" 
                fill="rgb(151, 144, 238)" 
                stroke="white" 
                stroke-width=".7px"
                title="North-Western" 
                id="ZM-06" 
            />
        </svg>