<svg xmlns="http://www.w3.org/2000/svg" viewBox="422.5010099999997 0.274576049999703 197.21000000000038 197.04500395000017" width="197.21000000000038" height="197.04500395000017">
            <path 
                d="m 523.75201,1.9725761 1.275,3.464 4.225,5.8629999 4.263,5.329 0.186,0.471 1.496,1.961 1.932,2.284 1.046,0.937 1.295,0.803 0.562,0.16 1.116,0.814 1.341,0.473 2.143,0.183 0.786,-0.085 1.82,-1.252 0.437,-0.777 1.426,-0.598 0.94,0.123 0.564,0.531 0.946,0.151 0.793,1.359 0.544,0.475 1.129,-0.094 0.978,-1.045 0.567,-0.226 0.502,0.529 0.416,-0.31 0.855,0.217 0.46,-0.478 0.346,-0.078 -0.071,-0.798 0.135,-0.247 0.625,-0.141 0.171,0.732 0.503,0.351 0.72,1.578 0.888,0.412 2.325,-0.007 0.397,0.129 0.909,0.907 0.065,0.472 0.861,1.244 2.217,-0.191 1.744,0.761 0.862,0.952 0.688,2.154 0.057,0.936 -0.24,1.539 -0.54,1.34 0.885,1.773 0.914,0.487 0.615,0.644 2.872,1.333 1.269,1.876 1.716,0.367 0.981,-0.165 0.571,0.517 0.269,-0.279 0.609,-0.209 0.436,-0.723 0.57,-0.462 0.788,-0.279 1.461,-0.078 1.526,0.142 3.855,1.272 3.136,1.427 -0.936,2.73 0.434,1.422 -0.118,0.714 1.033,1.142 0.448,0.955 0.739,0.718 1.342,0.663 1.102,-0.481 0.059,-0.339 2.68,-0.657 1.819,0.006 1.826,0.556 1.473,0.183 0.869,-0.128 0.549,0.794 2.168,1.662 2.775,1.58 0,0 -0.113,3.366 0.111,1.206 2.505,5.705 2.121,6.263 0.113,1.802 -0.131,2.943 0.732,1.546 0.139,2.575 0.531,1.499 0.151,2.573 0.495,1.324 0.189,2.749 0.531,1.499 0.134,2.575 1.011,1.837 -2.783,-0.02 -1.71,0.751 -2.768,1.872 -3.909,3.889004 -0.915,2.478 -0.169,2.82 -0.937,2.641 -1.129,1.021 -3.1,1.189 -3.05,2.913 -0.602,0.82 -0.234,2.284 -0.592,1.763 -0.075,5.723 -0.649,1.34 -0.406,0.395 -1.043,0.541 -1.964,0.275 -1.821,0.925 -1.421,1.441 -0.513,0.965 -0.959,1.212 -1.022,2.069 -0.517,0.668 -0.804,0.628 -3.476,1.688 -0.85,1.197 -0.563,0.481 -2.394,0.769 -3.019,0.201 -0.814,0.608 -0.82,1.105 -0.848,0.535 -4.399,1.497 -0.448,0.07 -0.553,-0.201 -0.795,-0.883 -0.581,-0.12 -0.612,0.129 -1.1,0.7 -1.189,1.73 -1.988,0.717 -2.489,0.254 -2.204,1.404 -0.478,0.57 -0.421,1.488 -0.755,1.025 -2.212,0.243 -1.336,0.485 -2.147,0.161 -1.803,0.864 -0.375,0.481 -0.141,0.498 0.071,2.374 0.421,0.395 1.405,0.27 0.542,0.763 0.062,0.557 -0.714,0.78 -0.4,0.136 -0.769,-0.071 -0.412,0.327 -0.177,0.436 -0.131,2.098 -0.715,1.543 -1.968,2.092 -0.839,1.415 -0.429,0.324 -0.426,-0.042 -1.678,-1.492 -1.374,-0.723 -0.792,-0.163 -0.654,0.111 -0.862,0.669 -0.976,1.602 -1.766,1.791 -2.981,1.671 -0.303,0.525 -0.168,1.347 -0.263,0.339 -2.928,0.202 -1.317,0.682 -1.191,2.037 -2.434,3.397 -3.042,6.032 -1.541,1.765 -0.716,1.202 -1.683,0.961 -1.861,0.265 -0.791,0.42 -2.998,2.947 -1.185,1.814 -2.865,2.857 -0.735,0.6 -1.772,0.861 0,0 -0.597,-1.149 -2.189,-1.817 -1.221,-0.755 -1.172,-1.507 -3.047,-1.913 -1.757,-1.497 -3.086,-1.92 -1.623,-1.383 -1.391,-0.574 -0.743,-0.807 -1.076,-0.649 -1.464,-1.297 -0.806,-0.373 -8.625,-0.093 -1.005,0.177 -0.293,0.37 -0.217,1.216 -0.72,1.509 -0.71,0.676 -0.992,0.379 -0.623,0.583 -1.193,2.421 -1.817,0.892 -0.542,-0.075 -0.252,-0.684 0.082,-1.384 0.56,-1.491 0.211,-2.1 0.537,-1.493 0.132,-2.409 0.568,-1.69 0.148,-2.362 0.575,-1.257 0.092,-4.067 0.654,-2.2 -0.04,-0.892 -0.547,-1.496 -0.158,-2.528 -1.462,-2.332 -2.964,-2.68 -1.208,-2.764 -0.644,-0.728 -0.734,-0.638 -1.521,-0.727 -1.83,-0.347 -3.536,-2.301 -0.542,-0.047 -1.332,0.624 -1.361,1.024 -2.248,1.135 -1.224,0.899 -1.542,0.451 -1.265,0.579 -1.377,0.702 -1.36,1.009 -2.249,1.127 -1.227,0.9 -1.412,0.378 -1.251,0.549 -0.59,0.456 -0.205,0.573 0.086,0.449 1.789,2.838 0.234,2.183 1.915,2.961 0.011,1.352 -0.588,1.205 -0.101,1.611 -1.325,-0.153 -2.365,-1.113 -2.468,-0.117 -0.593,-0.162 -1.157,-0.899 -0.822,-1.229 -1.23,-0.834 -0.844,-1.307 -0.848,-0.813 -1.111,-0.756 -3.105,-0.935 -1.394,-0.626 -0.437,-0.372 -0.169,-0.388 0.061,-0.401 0.786,-1.057 1.002,-0.907 0.932,-0.526 1.831,-2.037 0.151,-1.388 -0.034,-5.517 0.348,-1.228 0.951,-0.891 2.133,-1.026 1.353,-0.982 2.28,-1.15 1.634,-1.656 2.281,-0.151 0.704,-0.363 0.35,-2.167 1.274,-1.944 1.129,-1.134 0.22,-0.483 -0.031,-0.919 -0.655,-1.557 -0.02,-1.032 0.154,-0.441 1.759,-2.522 0.155,-2.311 0.208,-0.597 2.224,-1.283 1.329,-1.527 1.012,-0.578 1.815,-0.343 4.306,-2.093 3.167,-3.014 1.684,-0.792 4.72,-0.062 0.687,0.128 0.84,0.445 1.094,0.121 1.551,-0.004 0.831,-0.209 0.712,-0.679 0.731,-1.502 0.245,-2.833 0.711,-1.959 0.928,-1.217 0.899,-0.778 0.485,-1.046 -0.896,-1.008 -0.827,-2.481 0.086,-2.162 0.455,-0.808 0.305,-1.371 1.172,-2.28 -0.107,-0.592 -1.261,-2.606004 -0.969,-0.829 -1.397,-0.252 -0.754,-0.65 -0.539,-2.008 -1.631,-1.489 -0.974,-1.767 -0.5,-0.514 -0.708,-0.232 -3.05,-0.096 -2.205,-1.132 -2.084,-0.285 -1.804,-1.057 -1.525,-0.274 -0.908,-0.369 -1.228,0.296 -0.768,-0.327 -1.4,-0.282 -0.83,-0.757 -0.554,-1.013 -2.21,-1.004 -0.612,-0.593 -1.023,-2.343 -0.817,-0.79 -0.652,-0.179 -0.92,0.011 -1.563,0.503 -0.452,-0.156 -1.339,-1.017 -0.283,-0.335 -0.321,-1.642 -0.65,-1.768 -0.422,-0.659 -0.144,-0.852 0.123,-2.65 0.386,-0.594 0.802,-0.632 0.634,-1.194 -0.673,-2.232 -0.483,-0.933 -0.059,-2.462 0.407,-0.367 0.084,-0.391 -0.603,-1.892 -0.483,-0.219 -0.766,0.262 -0.47,-0.075 -0.617,-0.845 -1.575,-0.535 -0.962,-1.515 -0.612,-0.599 -0.573,-0.219 -0.528,0.008 -0.83,0.255 -1.019,-0.365 -1.32,-1.129 -1.083,-0.645 -2.531,-1.046 -0.352,-0.511 0.869,-3.024 0.358,-0.264 1.163,-0.253 0.3,-0.358 0.223,-1.952 0.433,-1.17 0.326,-1.603 0.841,-0.751 1.412,-0.255 1.531,-0.708 0.733,-0.673 0.631,-1.076 2.146,-5.588 0.284,-2.406 0.454,-1.153 0.242,-1.564 0.737,-2.204 1.332,-2.481 1.173,-1.285 1.711,-3.547 1.532,-2.091 2.777,-1.344 2.1,-0.267 2.256,-2.075 1.417,-2.865 0.14,-1.019 0.516,-0.478 -0.128,-1.1519999 0,0 17.099,-2.267 8.296,-1.47 7.347,-0.247 14.448,-1.857 4.424,-0.788 0.439,0.09 5.081,-0.696 1.283,-0.35 1.51,0.108 1.062,-0.271 10.537,-1.48300005 z" 
                fill="rgb(151, 144, 238)" 
                stroke="white" 
                stroke-width=".7px"
                title="Northern" 
                id="ZM-05" 
            />
        </svg>