<svg xmlns="http://www.w3.org/2000/svg" viewBox="175.2030100000001 427.1485800000001 236.89400000000003 173.12599999999992" width="236.89400000000003" height="173.12599999999992">
            <path 
                d="m 197.79501,427.99758 2.1,-0.157 23.475,0.012 1.373,-0.123 1.135,-0.392 1.182,0.163 1.702,-0.33 10.058,-0.022 1.162,0.12 1.762,0.555 4.115,0.07 2.075,0.624 4.171,0.072 2.064,0.623 4.17,0.072 2.273,0.638 25.614,0.071 3.09,1.792 1.578,0.489 3.277,2.281 2.218,1.114 0.27,0.397 -0.003,0.321 -0.848,1.263 0.101,0.414 0.258,0.185 5.431,0.03 2.456,0.66 5.636,-0.015 0.972,0.274 0.809,2.071 0.254,2.493 1.104,3.076 0.195,2.14 0.521,1.514 0.35,2.65 0.292,0.141 0.291,0.788 0.917,0.829 0.569,-0.011 0.449,-0.346 0.913,-1.748 0.901,-1.244 0.432,-1.393 0.514,-0.771 0.273,-0.781 1.444,-1.769 0.558,-1.429 0.986,-0.83 0.975,-0.002 0.896,0.429 0.678,-0.168 0.671,-0.742 0.959,-0.462 0.742,-0.65 0.645,-0.744 0.409,-0.982 0.94,-1.127 0.343,-0.817 0.533,-0.337 1.104,0.124 0.837,1.162 1.221,0.637 1.371,0.318 0.67,1.097 1.528,1.423 0.199,0.504 0.035,0.909 -0.574,1.682 -0.022,0.69 1.451,2.36 0.889,0.261 1.306,-0.523 0.728,0.319 0.601,0.029 1.58,-0.904 0.629,-0.181 0,0 0.814,0.401 2.099,0.315 0.684,0.696 0.433,0.935 0.615,0.255 1.432,-0.07 0.835,-0.47 1.491,-0.3 1.344,-0.509 1.621,0.112 1.374,0.943 1.256,0.484 0.534,0.511 1.086,2.263 0.322,0.354 2.749,0.293 3.89,1.759 1.624,0.362 0.863,1.548 2.043,1.715 0.815,0.052 0.588,-0.242 0.374,-0.822 0.674,-0.891 1.027,-0.778 0.984,-0.011 0.939,0.48 0.452,0.057 1.111,-0.494 1.615,-0.048 1.16,0.529 2.193,0.287 0.559,0.438 1.509,1.931 0.654,0.226 1.479,0.06 1.624,1.133 0.977,0.426 2.51,1.781 5.682,0.229 1.498,0.8 0.692,0.799 1.082,0.737 0.7,0.788 0.452,0.192 2.213,0.01 1.723,-0.58 2.554,-0.196 0.815,-0.451 0.991,-0.107 1.106,0.321 0.458,1.062 0,0 -1.345,2.508 -0.243,0.766 -1.505,2.368 -0.826,0.718 -0.128,0.428 0.862,0.864 -0.543,0.752 -0.132,0.738 0.145,0.604 0.565,0.407 0.234,0.714 -1.28,2.486 -0.034,2.094 -0.327,0.873 -0.036,0.681 0.269,0.897 1.061,0.434 0.086,0.478 -0.156,0.487 -1.623,1.974 -0.425,1.826 0.27,0.473 0.756,0.189 0.265,0.317 -0.183,1.408 0.516,1.103 -0.351,0.534 0.013,0.893 -0.258,0.8 -0.97,1.178 -0.21,0.559 0.028,2.295 -1.045,1.505 -1.284,0.649 -1.115,1.111 -0.836,0.378 -0.721,0.98 -5.567,1.039 -22.196,9.06 -7.975,6.593 -18.248,8.553 -11.826,17.559 -0.209,0.689 -0.048,1.354 -0.566,3.734 -0.533,0.854 -3.855,4.438 -13.863,10.874 -5.531,7.619 -4.233,4.947 -0.199,0.633 0.25,0.865 0.093,1.427 -3.739,3.164 -2.919,4.059 -1.576,-0.691 -1.98,0.934 -1.049,-0.191 -1.208,0.315 -2.835,1.124 -0.905,-0.165 -0.88,0.477 -1.794,-0.402 -0.306,0.364 -0.021,0.944 -0.151,0.291 -0.429,0.009 -1.269,0.859 -1.295,-0.343 -1.679,0.437 -0.776,0.461 -2.551,2.723 -0.753,-0.24 -1.599,-0.903 -1.819,0.011 -1.089,-0.532 -0.328,-1.522 -0.807,-0.273 -0.364,-0.321 -0.281,-1.081 -0.194,-0.382 -0.422,-0.306 -2.232,-0.039 -0.603,-0.131 -0.798,-0.512 -0.931,-0.081 -0.426,-0.492 -1.25,-0.106 -1.058,-0.812 -0.875,-0.157 -0.583,-0.647 -0.518,-0.206 -1.584,0.197 -1.827,-0.643 -0.939,0.315 -0.674,-0.19 -0.626,0.24 -0.301,-0.04 -0.716,-0.959 -0.288,-0.154 -1.801,0.029 -0.412,0.177 -0.504,-0.263 -0.57,-0.735 -0.619,-0.277 0.116,-0.859 -1.068,0.274 -1.061,0.73 -1.322,0.568 -1.351,0.118 -1.018,0.619 -1.438,0.327 -0.367,0.279 -0.191,0.517 0.642,0.66 -0.502,0.682 -0.335,1.222 -1.065,-0.353 -0.842,0.115 -0.822,-0.385 -0.555,0.496 -1.306,-0.282 -1.151,0.516 -0.184,0.16 -0.119,0.646 -0.924,0.413 -0.778,-0.419 -0.456,0.136 -0.834,-0.319 -1.399,0.234 -0.352,-0.639 -1.207,-0.385 -0.428,0.064 -0.364,-0.496 -0.688,-0.106 -0.281,-0.654 0.148,-0.716 -0.789,-0.205 -0.119,-0.341 0.153,-0.346 0.594,-0.507 -0.671,-1.006 -0.403,-1.253 -0.861,-0.318 -1.105,0.03 -0.542,-0.208 -0.184,-0.53 -1.726,-1.501 -1.103,-0.125 -1.815,-0.856 -0.741,0.112 -0.133,-1.155 -0.205,-0.34 -0.944,-0.027 -0.811,0.198 -0.839,0.955 -0.823,0.51 -0.925,0.297 -1.159,-0.059 -0.809,0.482 -0.591,-0.422 -0.713,0.079 -0.532,-0.294 -0.743,0.009 -0.482,0.362 -0.505,0.877 -0.368,0.29 -0.841,0.181 -0.373,-0.096 -1.742,-1.153 -1.274,-0.215 -0.414,0.018 -0.525,0.377 -0.472,-0.023 -0.332,-0.354 -1.042,0.097 -1.382,0.386 -0.458,-0.068 -0.813,-0.882 -0.455,-0.105 -0.941,0.253 -1.903,-1.101 -0.458,0.006 -1.99,-1.621 0.092,-0.324 -0.189,-0.283 -0.484,0.121 -1.989,-1.274 -2.022,0.162 -0.603,-0.381 -0.652,-0.994 -0.805,-0.649 -0.132,-0.327 0.076,-1.114 -0.719,-0.551 -1.026,0.195 0.235,-0.759 -0.287,-0.24 -0.357,-0.012 -0.595,0.563 -0.769,0.149 -0.159,-0.156 0.392,-0.902 0.122,-0.786 -0.204,-0.483 0.179,-0.701 -0.317,-0.384 -0.481,0.504 -0.314,-0.04 -1.563,-2.488 -0.201,-0.112 -0.409,0.376 -0.286,-0.083 -0.219,-0.353 0.186,-1.13 -0.491,-0.464 -1.026,0.04 -0.837,0.452 -1.322,-2.009 -0.649,-0.564 -0.75,0.761 -0.527,0.033 -0.287,-0.212 -0.529,-1.106 0,0 0.744,0.005 0.566,-0.207 0.32,-1.188 0.165,-3.744 2.38,-2.52 0.248,-0.586 -0.017,-1.472 -0.434,-1.101 0.264,-1.24 -0.424,-1.061 0.069,-1.145 0.923,-1.266 1.539,-1.377 0.42,-0.977 1.048,-1.246 0.903,-1.866 -0.146,-1.513 -0.612,-1.333 -0.031,-1.153 0.214,-0.935 0.706,-1.071 2.48,-1.171 0.642,-0.601 0.563,-0.943 0.276,-1.436 -0.108,-0.725 -0.518,-1.32 0.162,-0.835 1.057,-0.68 1.597,-0.441 1.637,-1.001 1.446,-0.602 0.954,-1.137 0.602,-1.273 0.149,-0.954 -0.093,-1.295 -0.459,-0.834 -0.319,-1.681 -1.183,-3.494 0.007,-2.738 0.657,-1.636 -0.158,-1.119 -0.701,-0.71 -1.677,-0.785 -3.734,-0.141 -1.15,-0.521 -1.591,-0.147 -0.474,-0.191 -0.755,-1.245 -0.414,-1.941 -1.298,-1.288 -1.084,-0.481 -1.943,-1.866 -0.356,-0.713 0.004,-0.531 0.468,-0.685 1.522,-0.329 1.437,-1.365 0.952,-1.6 1.206,-1.306 3.182,-4.479 1.57,-0.989 1.108,-0.996 1.664,-0.423 2,-1.869 1.045,-0.547 1.431,-0.365 0.961,-0.584 0.287,-0.573 0.075,-2 0.169,-0.632 1.672,-2.487 0.364,-1.133 0.621,-1.161 1.421,-1.386 1.019,-0.54 0.259,-1.152 1.656,-0.139 -0.392,-0.887 -0.405,-0.282 -0.925,-0.065 -0.971,0.329 -0.516,-0.852 -2.41,-2.464 -0.216,-0.837 0.142,-1.511 1.06,-1.394 -0.426,-1.529 0.066,-1.005 0.265,-0.365 0.831,-0.517 0.78,-2.645 0.166,-3.318 0.641,-2.155 -0.091,-2.314 -0.853,-0.992 -1.098,-0.418 -0.432,0.206 -1.123,1.424 -0.868,0.746 -1.299,0.051 -0.933,-0.697 -1.428,-1.525 -0.319,-1.401 0.251,-0.908 1.175,-1.304 0.137,-0.806 -0.116,-0.642 -0.792,-0.835 -0.99,-0.383 -0.766,-0.616 -0.65,-0.712 -0.125,-0.456 0.176,-0.623 1.668,-1.017 0.714,-0.726 0.174,-0.475 -0.057,-1.629 -1.204,-1.487 0.046,-0.925 0.871,-0.74 1.75,-0.162 0.56,-0.314 0.752,-1.511 0.211,-3.354 1.83,-2.017 -0.056,-0.917 z" 
                fill="rgb(151, 144, 238)" 
                stroke="white" 
                stroke-width=".7px"
                title="Southern" 
                id="ZM-07" 
            />
        </svg>