<svg xmlns="http://www.w3.org/2000/svg" viewBox="0.2500121700002169 329.01158000000004 208.89199782999992 243.87500000000028" width="208.89199782999992" height="243.87500000000028">
            <path 
                d="m 0.29601217,330.09958 0.89800003,0.423 2.553,2.488 2.185,1.167 0.808,0.152 1.944,-0.652 1.3459998,-0.731 0.708,-1.099 1.491,-1.044 0.433,-0.968 0.569,-0.614 0.554,-0.21 0.605,0.117 2.755,1.374 2.444,2.423 1.696,1.029 3.844,3.764 0.98,0.408 2.492,1.651 0.98,0.405 0.686,0.7 0.397,0.971 0.681,0.708 1.532,0.737 2.237,0.342 1.947,1.29 0.518,1.069 0.698,0.688 1.531,0.359 1.914,1.103 0.809,-0.143 0.969,-0.76 0.229,-2.189 0.816,-2.072 0.608,-0.232 2.566,-0.169 0.62,-0.419 0.936,-1.161 0.402,-0.255 1.077,-0.113 0.869,0.15 2.695,1.872 2.987,1.625 0.798,0.826 0.6,1.153 0.337,1.126 0.692,0.718 0.612,0.175 0.827,-0.069 2.155,-1.205 0.922,0.042 1.401,0.874 0.254,2.779 1.036,1.365 0.475,0.247 1.486,0.257 0.834,0.427 2.13,0.059 0.583,0.229 0.117,0.56 -0.214,0.424 -0.426,0.602 -1.171,1.049 -0.158,1.356 0.232,0.441 0.463,0.198 1.187,-0.123 0.336,1.154 0.552,0.287 2.459,-0.752 1.955,-1.141 3.17,-0.258 0.777,-0.537 1.801,-1.741 1.271,-0.892 2.002,-0.711 2.593,-0.163 0.985,-0.478 1.406,-0.288 1.523,-0.746 2.605,-1.735 2.247,-0.339 1.453,-1.547 1.198998,0.5 1.401,0.942 0.715,0.126 2.962,-1.65 1.798,-0.442 0.563,-0.945 0.267,-0.143 0.731,0.16 0.354,1.418 0.514,0.353 2.144,0.138 1.421,0.503 1.096,-0.509 1.39,-0.208 1.11,0.209 0.797,0.465 0.616,0.045 1.639,-0.793 1.239,-1.021 1.628,-0.236 0.475,-0.431 0.519,-0.901 0.369,-0.266 0.438,0.062 0.706,0.747 0.762,0.05 1.094,-0.786 0.944,-0.987 1.665,-0.356 2.162,-1.003 0.536,0.033 1.21,0.587 1.31,1.167 0.786,0.019 0.383,-0.384 0.103,-1.418 0.519,-0.622 0.386,-0.152 0.446,0.125 0.427,0.535 0.193,1.547 0.43,0.761 2.689,0.99 2.563,-0.02 0.83,-0.427 1.074,-0.228 0.494,-0.325 0.466,-0.897 1.076,-0.497 0.737,0.407 1.45,1.778 1.043,0.541 0.561,0.667 0.604,0.377 1.356,-0.014 0.353,-0.285 0.269,-0.632 0.355,-0.243 0.584,0.028 0.842,0.544 1.748,-0.608 0.856,0.042 0.345,0.295 0.566,1.267 1.35,1.197 0.708,0.88 0.256,3.759 0.748,1.559 0.929,0.93 0.501,0.236 1.494,0.257 0.84,0.427 1.768,0.202 1.004,0.482 1.934,0.241 1.518,0.754 1.217,1.035 0.995,0.306 1.142,0.626 1.496,1.222 2.107,0.043 1.336,-0.599 0.812,-0.073 0.608,0.168 0.781,0.846 0.699,1.975 0.033,1.223 -0.478,0.98 -0.323,1.377 -1.146,1.53 -0.212,1.757 -0.513,1.189 -0.193,2.437 -0.899,0.936 -1.403,0.633 -1.54,0.329 -0.714,0.693 -0.168,0.484 0.044,5.757 1.646,2.102 1.214,1.018 1.091,0.628 0.692,0.142 1.843,-0.606 5.944,-0.07 3.764,-1.884 2.185,-0.259 2.402,-1.123 0.746,-0.146 1.307,0.053 1.455,0.588 0.8,-0.059 0.629,-0.341 0.513,-0.01 0.403,0.258 1.092,1.304 0.77,0.293 1.938,-0.04 1.365,-0.66 0,0 0.692,0.692 -0.064,0.721 -1.979,4.083 -0.151,6.449 -0.293,0.38 -0.797,0.34 -0.688,0.684 -0.42,1.782 -0.94,1.381 -0.232,0.721 0.095,1.826 1.873,3.582 0.11,1.935 -0.114,1.939 -0.815,1.68 -0.715,0.663 -0.789,0.339 -0.268,0.388 -0.004,0.671 0.542,1.484 -0.041,0.553 -0.264,0.491 -0.621,0.385 -1.45,-0.012 -0.768,0.203 -2.869,2.822 -0.103,0.754 0.48,0.957 0.112,0.914 -0.174,4.299 0,0 1.365,2.1 0.056,0.917 -1.83,2.017 -0.211,3.354 -0.752,1.511 -0.56,0.314 -1.75,0.162 -0.871,0.74 -0.046,0.925 1.204,1.487 0.057,1.629 -0.174,0.475 -0.714,0.726 -1.668,1.017 -0.176,0.623 0.125,0.456 0.65,0.712 0.766,0.616 0.99,0.383 0.792,0.835 0.116,0.642 -0.137,0.806 -1.175,1.304 -0.251,0.908 0.319,1.401 1.428,1.525 0.933,0.697 1.299,-0.051 0.868,-0.746 1.123,-1.424 0.432,-0.206 1.098,0.418 0.853,0.992 0.091,2.314 -0.641,2.155 -0.166,3.318 -0.78,2.645 -0.831,0.517 -0.265,0.365 -0.066,1.005 0.426,1.529 -1.06,1.394 -0.142,1.511 0.216,0.837 2.41,2.464 0.516,0.852 0.971,-0.329 0.925,0.065 0.405,0.282 0.392,0.887 -1.656,0.139 -0.259,1.152 -1.019,0.54 -1.421,1.386 -0.621,1.161 -0.364,1.133 -1.672,2.487 -0.169,0.632 -0.075,2 -0.287,0.573 -0.961,0.584 -1.431,0.365 -1.045,0.547 -2,1.869 -1.664,0.423 -1.108,0.996 -1.57,0.989 -3.182,4.479 -1.206,1.306 -0.952,1.6 -1.437,1.365 -1.522,0.329 -0.468,0.685 -0.004,0.531 0.356,0.713 1.943,1.866 1.084,0.481 1.298,1.288 0.414,1.941 0.755,1.245 0.474,0.191 1.591,0.147 1.15,0.521 3.734,0.141 1.677,0.785 0.701,0.71 0.158,1.119 -0.657,1.636 -0.007,2.738 1.183,3.494 0.319,1.681 0.459,0.834 0.093,1.295 -0.149,0.954 -0.602,1.273 -0.954,1.137 -1.446,0.602 -1.637,1.001 -1.597,0.441 -1.057,0.68 -0.162,0.835 0.518,1.32 0.108,0.725 -0.276,1.436 -0.563,0.943 -0.642,0.601 -2.48,1.171 -0.706,1.071 -0.214,0.935 0.031,1.153 0.612,1.333 0.146,1.513 -0.903,1.866 -1.048,1.246 -0.42,0.977 -1.539,1.377 -0.923,1.266 -0.069,1.145 0.424,1.061 -0.264,1.24 0.434,1.101 0.017,1.472 -0.248,0.586 -2.38,2.52 -0.165,3.744 -0.32,1.188 -0.566,0.207 -0.744,-0.005 0,0 -0.307,-0.015 -0.296,0.417 -0.712,0.219 -1.159,-0.505 -0.864,-1.106 -0.812,0.177 -1.056,-0.121 -0.902,-0.465 -0.74,0.148 -0.553,0.517 -0.428,-0.011 -0.957,-0.222 -0.806,-0.992 -1.309,0.307 -0.504,-0.68 -0.743,-0.196 -0.687,-0.508 -0.443,-0.012 -1.408,0.521 -0.371,-0.054 -1.66,0.782 -1.397,0.057 -1.798,1.342 -1.2,-0.117 -1.31,0.154 -0.973,-0.39 -1.302,0.734 -0.414,-0.027 -0.561,-0.923 0.043,-1.248 -1.38,-1.499 -1.371,-0.55 -1.702,-0.133 -2.456,-0.612 -2.561,1.06 0.295,0.371 -0.719,0.492 -3.014,-0.704 -1.399,-0.006 -1.144,-0.632 -0.571,0.019 -48.190998,10.012 -0.247,-1.668 -1.93,-1.864 -0.572,-0.284 -1.056,0.088 -1.586,-1.537 -0.685,10e-4 -0.769,0.458 -0.572,-0.513 -1.142,-0.525 -2.609,0.289 -0.8,-0.67 -0.101,-0.741 -0.514,-0.256 -0.543,-0.798 -0.642,-0.498 -0.8,-1.382 -0.728,-0.284 -1.468,-0.228 -0.3,-0.227 0.328,-0.472 -1.056,-0.91 -0.044,-1.055 -0.17,-0.142 -1.269,-0.128 -0.713,-0.37 -0.471,-0.513 -0.713,-1.567 -0.758,-2.492 -0.724,-0.1 -0.471,-0.313 -0.801,-1.219 -0.951,-0.789 -0.085,-1.067 -0.67,-0.257 -0.2,-0.442 -0.626,-0.64 -0.64,-0.227 -0.157,-0.299 -2.918,-1.753 -0.541,-0.442 -0.582,-0.896 -4.312,-1.527 -1.394,-0.656 -0.255,-0.612 0.385,-0.854 -1.151,-1.764 -3.154,-2.48 -0.127,-0.284 0.086,-0.384 -0.711,-0.357 -0.254,-1.109 -1.634,-0.457 -0.242,-0.371 0.328,-0.468 -0.07,-0.271 -3.306,-3.176 -0.98,-0.67 -0.253,-0.825 -2.012,-2.405 -1.758,-1.454 -1.56,-0.955 -0.68,-0.684 -1.132,-1.281 -0.011,-1.15 -1.771,-1.127 -4.921,-5.339 -1.742,-0.872 0.072,-0.483 -0.168,-0.482 -0.848,-0.713 -1.41,-2.232 -1.94,-0.732 -0.79,-0.968 -0.125,-0.952 -0.266,-0.41 -0.707,-0.442 -1.531,-0.15 -0.689,-1.123 -1.414,-0.743 -0.705,-0.77 -0.633,-1.108 -0.8169998,-0.996 -1.375,0.063 -0.31,-0.228 0.669,-0.634 0.144,-0.353 -0.642,-1.902 0.242,-0.281 -0.174,-2.026 -0.54,-2.269 -0.74,-2.057 -0.762,-0.555 -0.546,-1.065 -1.026,-1.349 0.36,-1.017 -0.025,-0.708 -1.059,-0.431 -0.659,-0.937 -0.861,-0.542 -1.16700003,-1.11 -0.534,-0.626 -0.208,-0.623 z" 
                fill="rgb(151, 144, 238)" 
                stroke="white" 
                stroke-width=".7px"
                title="Western" 
                id="ZM-01" 
            />
        </svg>