<svg xmlns="http://www.w3.org/2000/svg" viewBox="467.6302500000005 366.6003999999997 76.59999999999957 128.57000000000028" width="76.59999999999957" height="128.57000000000028">
            <path 
                d="m 498.77025,372.8004 0,0 0.8,-0.17 1.55,-0.65 0.98,-0.17 0.55,-0.02 5.03,1.62 1.26,0.71 0.76,0.78 0.13,0.65 -0.03,0.51 -0.09,0.4 -0.14,0.39 -0.03,0.37 0.12,0.39 0.44,0.44 0.51,0.19 0.55,0.09 2.39,0.09 0.93,0.13 0.53,0.24 0.24,0.23 0,0.33 -0.05,0.43 0,0.63 0.35,0.51 0.33,0.19 0.4,-0.03 0.34,-0.15 0.35,-0.23 0.33,-0.33 0.3,-0.36 0.42,-0.67 0.31,-0.32 0.48,-0.35 0.79,-0.07 0.58,0.15 0.73,0.37 0.5,0.18 0.54,0.09 0.42,-0.07 0.96,-0.29 0.57,-0.08 0.31,0.11 0.28,0.31 0.69,1.82 0.38,0.6 0.45,0.52 0.63,0.28 5.03,0.75 1.89,0.57 1.83,0.77 1.54,0.33 1.63,0.01 1.54,-0.16 1.69,-0.01 0.92,0.12 1.48,0.65 0.04,0.02 -0.83,2.54 -1.88,2.76 -0.5,1.18 -3.01,13.14 -0.59,2.49 -0.13,1.35 0.06,1.22 0.53,1.4 1.67,2.79 0.21,1.37 -0.6,1.27 -2.21,2.06 -0.79,1.29 -1.45,4.74 -1.63,2.59 -1.22,1.62 -1.88,1.72 -1.46,2.7 -0.78,2.56 -0.13,0.82 -0.04,1.56 0.26,1.61 0.65,1.32 0.46,1.37 -0.17,1.74 -0.38,1.75 -0.02,0.16 -0.13,1.27 1.05,2.35 0.19,1.47 -1,0.65 -2.31,-0.13 -0.6,0.69 -0.02,1.92 1.2,3.81 0.19,1.44 0.32,0.98 1.48,1.84 0.44,0.88 -0.11,1.61 -0.63,1.3 -0.72,1.15 -0.34,1.19 0.52,3.29 0.06,1.36 -0.58,1.1 -0.55,0.19 -1.59,0.1 -0.54,0.25 -0.4,0.79 0.04,0.73 0.22,0.76 0.33,2.22 0.7,2.34 -0.04,1.64 -1.35,4.67 0.25,1.11 1.19,1.44 0.23,0.94 -0.42,0.82 -0.75,1.08 -0.54,0.97 -0.04,0.19 -0.04,0 -0.12,0 -3.74,-0.3 -0.73,-0.18 -0.39,-0.45 -0.13,-0.47 -0.01,-0.47 0.08,-0.51 0,-0.36 -0.07,-0.3 -0.16,-0.23 -0.26,-0.25 -0.33,-0.24 -1.26,-0.65 -0.96,-0.36 -1.25,-0.25 -1.01,0.01 -0.53,0.16 -0.55,0.3 -0.88,0.76 -0.39,0.25 -0.36,0.16 -0.5,0.01 -0.5,-0.17 -0.61,-0.49 -0.16,-0.38 0.04,-0.5 0.28,-1.05 0.04,-0.37 -0.04,-0.34 -0.12,-0.2 -0.2,-0.1 -0.3,-0.01 -0.41,0.17 -0.31,0.24 -0.37,0.44 -0.47,0.71 -0.99,1.82 -0.28,0.34 -0.45,0.44 -0.45,0.29 -0.4,0.17 -0.88,0.21 -2.17,0.2 -0.43,0.47 -0.26,0.34 -0.2,0.52 -0.12,0.17 -0.16,0.14 -0.25,0.17 -0.4,-0.04 -0.53,-0.25 -1.01,-0.77 -0.68,-0.41 -2.12,-0.54 -1.66,-0.71 -0.64,-0.18 -0.54,-0.11 -1.29,-0.06 -4.87,0.24 -1.36,-1.31 -2.23,-7.08 3.43,-2.04 0.54,-0.52 0.3,-0.69 -0.02,-0.61 -0.41,-0.54 -0.42,-0.25 -0.5,-0.13 -1.26,-0.1 -0.52,-0.19 -0.41,-0.33 -0.35,-0.39 -0.23,-0.3 -0.27,-0.31 -0.4,-0.3 -0.39,-0.07 -2.08,0.63 -1.16,0.23 -1.87,0.12 -1.58,-0.06 -0.55,0.09 -0.87,0.43 -0.49,-0.09 -0.52,-0.21 -0.88,-0.48 -2.71,-1.1 -0.31,-0.24 -0.38,-0.56 -0.23,-0.79 0.23,-2.01 0,-0.68 -0.43,-1.47 -0.02,-0.72 0.22,-0.8 -0.2,-0.72 -0.32,-0.45 -0.34,-0.59 0,-0.77 0.43,-1.3 1.3,-2.9 0.2,-0.27 1.37,-1.17 0.41,-0.52 0.28,-0.68 1.03,-3.22 0.22,-1 0.1,-1.65 0.39,-0.98 0.5,-0.75 1.66,-1.53 0.39,-0.57 0.12,-0.49 -0.09,-0.54 -0.29,-0.49 -0.85,-1.13 -0.27,-0.68 -0.11,-0.61 -0.02,-0.55 -0.15,-0.43 -0.33,-0.36 -0.9,-0.25 -0.61,-0.05 -2.35,0.67 15.27,-21.37 1.94,-2.17 0.75,0.02 1.22,0.86 1.67,1.69 0.68,0.38 1.57,0.58 0.83,0.2 0.73,-0.05 -0.06,-0.7 -0.35,-1.44 -0.04,-0.76 0.41,0.45 0.63,1.02 0.41,0.48 0.52,0.35 0.52,0.19 1.12,0.21 0.92,0.39 0.51,0.64 0.25,0.82 0.12,0.99 0.88,1.56 1.68,0.24 1.74,0.05 1.49,-0.45 -0.02,-0.9 -0.07,-0.4 -0.12,-0.36 -0.16,-0.32 -0.42,-0.59 -0.18,-0.32 -0.14,-0.34 -0.07,-0.39 0,-0.44 0.15,-1.32 -0.07,-0.38 -0.19,-0.29 -0.29,-0.2 -1.75,-0.7 -0.35,-0.2 -0.24,-0.21 -0.21,-0.27 -0.14,-0.31 -0.01,-0.37 0.4,-1.41 0.05,-0.44 -0.04,-0.41 -0.18,-0.3 -0.26,-0.24 -5.5,-3.99 -5.29,-5.04 -0.38,-0.57 -0.22,-0.25 -0.3,-0.14 -0.36,0.01 -0.38,0.05 -0.36,0 -0.31,-0.12 -0.26,-0.23 -0.23,-0.27 -0.25,-0.24 -0.32,-0.15 -0.38,-0.07 -1.2,0.17 -0.43,0 -0.45,-0.03 -0.41,-0.1 -0.36,-0.15 -0.31,-0.2 -0.28,-0.22 -0.46,-0.51 -0.21,-0.28 -0.18,-0.3 -0.28,-0.73 0,0 -0.25,-0.66 -0.32,-0.65 -0.81,-1.16 -0.15,-0.46 -0.04,-0.68 0.25,-0.88 0.02,-0.58 -0.03,-0.46 -0.11,-0.37 -0.08,-0.42 -0.01,-0.48 0.09,-1.13 -0.01,-0.46 -0.08,-0.39 -0.13,-0.34 -0.12,-0.45 -0.04,-0.49 0.06,-0.77 0.44,-0.48 0.68,-1.05 0.1,-0.66 -0.04,-0.64 -0.57,-1.72 -0.3,-1.36 0.14,-0.79 0.26,-0.45 0.5,-0.33 0.47,-0.42 0.43,-0.85 0.14,-0.87 -0.08,-2.96 0.27,-0.69 0.7,-1.24 0.07,-0.62 -0.08,-0.73 -0.4,-1.61 -0.09,-1.08 0.09,-0.7 0.2,-0.6 0.31,-0.49 1.99,-2.36 1.7,-2.43 7.27,-2.5 1.41,0.37 -0.28,2.66 0.07,0.8 0.31,0.87 0.96,0.94 0.95,0.42 0.86,0.14 z" 
                fill="rgb(151, 144, 238)" 
                stroke="white" 
                stroke-width=".7px"
                title="Alto Paraná" 
                id="PY-10" 
            />
        </svg>