<svg xmlns="http://www.w3.org/2000/svg" viewBox="381.27024999999975 195.72039999999976 87.17000000000024 127.57000000000022" width="87.17000000000024" height="127.57000000000022">
            <path 
                d="m 434.94025,210.8004 0,0 0.87,-0.25 0.84,-0.47 0.88,0.43 0.94,0.75 1.02,0.53 4.09,0.39 1.22,0.75 0.15,-0.51 0.72,-1.47 3.3,4.51 2.66,2.01 0.65,0.75 0.57,1.72 0.22,6.01 0.46,2.57 1.13,2.31 1.71,1.84 2.18,1.22 1.33,0.49 0.87,0.51 0.49,0.84 0.21,1.47 -0.07,0.55 -0.36,1.18 -0.05,0.6 0.14,0.62 0.42,1.15 0.06,0.62 -0.67,2.37 -1.14,2.06 -0.86,2.16 0.16,2.66 1.46,5.49 0,1.23 -0.37,2.4 0.14,1.21 1.73,2.02 0.71,1.1 0.36,1.39 -0.33,2.6 0.05,1.18 0.71,0.93 1.82,1.13 0.24,0.63 1.44,5.31 -0.03,1.19 -1.53,3.25 -0.2,1.18 0.43,1.6 2.01,2.16 0.72,1.35 -0.11,2.2 -1.76,3.98 0.16,2.48 0.41,2.14 -0.04,0.03 -0.63,0.47 -0.65,1.05 -1.17,3.21 -0.54,2.76 -0.44,0.74 -0.74,0.7 -2.69,1.59 -0.56,0.22 -0.6,0.15 -1.83,0.04 -0.96,0.41 -1.41,0.85 -6.79,5.02 -2.8,1.58 -0.66,0.65 -0.92,1.64 -0.4,0.45 -0.63,0.42 -1.68,0.69 -1.63,0.39 -2.35,0.21 -0.52,0.2 -0.54,0.29 -0.35,0.14 -0.36,0.07 -0.42,-0.06 -0.4,-0.13 -0.97,-0.46 -0.78,-0.54 0.51,-0.09 0.61,-0.27 2.21,-1.64 0.15,-0.15 0.12,-0.25 0.35,-1.2 1.14,-2.16 0.28,-0.71 0.1,-0.39 0.05,-0.44 0.02,-1.84 -0.19,-1.74 -0.32,-1.11 -0.03,-0.35 0.13,-0.31 1.46,-1.96 0.7,-0.77 0.4,-0.58 0.44,-1.04 0.09,-0.39 0.05,-0.42 -0.24,-2.64 0.06,-0.92 0.15,-0.82 -0.01,-0.34 -0.17,-0.27 -0.66,-0.1 -0.9,0.03 -4.01,0.8 -0.58,0.25 -0.27,0.22 -0.07,0.38 0.03,1.04 -0.08,0.62 -0.16,0.46 -0.23,0.34 -0.36,0.24 -0.73,0.37 -0.46,0.31 -1.01,0.84 -0.36,0.19 -0.34,0.01 -0.66,-0.48 -0.82,-0.91 -1.17,-2.1 -0.53,-1.2 -0.33,-0.94 -0.16,-0.62 -0.01,-0.49 0.23,-0.36 5.42,-4.49 0.55,-0.64 0.44,-0.65 0.15,-0.38 0.08,-0.38 -0.02,-0.26 -0.1,-0.4 -0.21,-0.5 -0.27,-0.45 -0.25,-0.29 -1.11,-0.97 -0.3,-0.45 -0.09,-0.35 0.1,-0.39 0.33,-0.71 0.16,-0.46 0.02,-0.41 -0.14,-0.47 -0.31,-0.49 -0.52,-0.48 -0.57,-0.33 -0.94,-0.26 -2.77,-0.15 -0.86,-0.15 -1.04,-0.32 -0.33,0.05 -0.6,0.32 -0.73,0.18 -1.37,0.21 -1.24,0.33 -1.53,0.82 -0.73,0.54 -0.54,0.27 -0.28,0.09 -0.69,-0.5 0.31,-0.27 0.12,-0.17 0.13,-0.25 0.06,-0.19 0.17,-0.7 0.21,-1.75 0.09,-0.39 0.15,-0.35 0.2,-0.3 0.23,-0.25 0.27,-0.23 0.6,-0.36 0.23,-0.27 0.29,-0.68 0.18,-0.32 0.24,-0.24 0.26,-0.23 0.58,-0.41 2.53,-1.37 0.27,-0.21 0.13,-0.39 -0.02,-0.58 -0.26,-1.01 -0.01,-0.6 0.05,-0.49 0.09,-0.39 0.14,-0.36 0.19,-0.29 0.28,-0.23 0.32,-0.15 0.26,-0.19 0.06,-0.31 -0.12,-0.76 -0.01,-0.44 0.07,-0.4 0.18,-0.3 0.26,-0.16 0.32,0.03 0.64,0.31 0.35,0.1 0.38,-0.01 0.32,-0.15 0.24,-0.25 0.14,-0.34 0.07,-0.41 0.08,-2.55 0.12,-0.79 -0.05,-0.44 -9.41,-24.59 -0.23,-0.41 -0.31,-0.38 -0.96,-0.39 -0.4,-0.1 -0.34,-0.01 -0.35,0.08 -0.31,0.16 -1.66,1.29 -0.3,0.19 -0.33,0.14 -0.76,0.17 -0.35,0.15 -0.3,0.2 -0.25,0.26 -0.21,0.3 -0.77,1.32 -0.43,0.59 -0.25,0.26 -0.28,0.21 -0.64,0.32 -0.36,0.11 -3.47,0.62 -0.33,0.13 -0.33,0.17 -0.56,0.42 -0.4,0.42 -0.08,0.12 -0.07,0.14 -0.23,0.63 -0.11,0.42 -0.21,1.38 -0.13,0.41 -0.19,0.34 -0.68,0.89 -0.52,1.07 -0.24,0.26 -0.31,0.17 -0.75,0.17 -1.27,0.58 -0.35,0.09 -0.39,0.05 -0.43,-0.05 -0.4,-0.11 -0.41,-0.27 -0.42,-0.34 -0.58,-0.62 -0.42,-0.29 -0.42,-0.08 -0.3,0.16 -0.51,0.5 -0.29,0.18 -0.35,0.13 -1.22,0.12 -0.89,-0.02 -0.39,0.03 -0.25,-0.08 -0.06,-0.24 0.17,-0.87 0.36,-0.56 0.43,-0.5 1.45,-0.95 0.31,-0.48 0.07,-0.74 -0.41,-1.28 -0.51,-2.87 -0.53,-1.41 -0.55,-0.91 -0.43,-0.5 -0.34,-0.27 -0.37,-0.22 -0.31,-0.32 -0.15,-0.5 0.21,-1.07 0.02,-0.5 -0.13,-0.53 -0.61,-0.8 -0.31,-0.52 -0.13,-0.66 0.12,-0.79 0.19,-0.57 0.11,-0.66 0.03,-0.81 -0.16,-1.34 0.06,-1.34 -0.03,-0.41 -0.34,-1.43 -0.02,-0.51 0.16,-0.38 0.64,-0.45 0.23,-0.4 0.07,-0.54 -0.31,-1.54 0.05,-0.49 0.19,-0.42 0.26,-0.39 0.36,-0.37 2.1,-1.43 0.48,-0.41 2.8,-4.02 0.37,-0.26 1.53,-0.82 0.26,-0.23 -2.66,-1.05 -13.87,-3.47 -0.58,-0.65 1.53,-1.67 0.42,-0.66 0.08,-0.46 0.24,-0.12 0.9,0.32 0.5,-0.05 2.14,-0.65 0.49,0.09 0.08,0.32 0.14,0.14 0.68,-0.45 0.3,-0.47 0.53,-1.27 0.34,-0.29 1.1,0.57 2.23,2.59 1.03,0.25 0.31,-0.57 -0.7,-1.28 0.42,-0.43 0.73,-0.22 0.53,-0.25 2.19,-1.65 0.71,-0.77 1.12,-2 0.17,-0.17 0.48,-0.25 0.22,-0.3 0.36,-1.12 0.21,-0.44 1,-1.49 0.59,-0.65 0.68,-0.6 1.15,-0.34 4.72,-0.86 0.93,0.1 0.68,0.73 1.73,4.33 1.55,2.34 2,1.93 3.65,2.19 1.94,1.9 1.13,0.71 1.15,0.28 11.29,0.57 z" 
                fill="rgb(151, 144, 238)" 
                stroke="white" 
                stroke-width=".7px"
                title="Amambay" 
                id="PY-13" 
            />
        </svg>