<svg xmlns="http://www.w3.org/2000/svg" viewBox="0.3502499999998717 54.470400000000275 219.4800000000001 269.46999999999974" width="219.4800000000001" height="269.46999999999974">
            <path 
                d="m 178.84025,193.5504 0,0 6.07,-0.16 3.61,-0.57 23.69,0.92 1.89,0.61 3.23,1.98 2.31,7.01 0.19,0.96 -0.22,0.41 -0.99,0.88 -4.07,2.52 -1.57,0.75 -0.35,0.03 -0.43,-0.13 -0.54,-0.32 -0.51,-0.38 -0.61,-0.59 -0.51,-0.37 -0.68,-0.35 -0.89,0.22 -0.93,0.34 -6.74,4.08 -0.88,0.84 -0.55,0.78 -0.35,0.79 -0.13,0.4 -0.1,0.73 0.02,0.54 0.15,0.56 0.85,1.69 0.1,0.45 -0.08,0.54 -0.47,0.93 -0.72,0.44 -0.99,0.22 -3.77,0.01 -1.07,0.17 -0.97,0.5 -0.4,0.59 -0.12,0.81 0.4,3.29 0.01,0.29 -0.13,1.09 -0.41,0.89 -12.69,18.97 -0.62,1.4 -0.22,1.15 0,1.83 -0.16,0.94 -0.61,2.25 -0.13,0.82 0.25,3.59 -0.15,3.26 0.47,3.38 -0.14,1.18 -0.34,1.47 -1.79,4.86 0.02,0.47 0.14,0.5 0.54,1.28 0.19,0.79 -0.21,1.21 -0.72,2.08 -2.96,6.04 -0.82,2.56 -0.6,2.8 -0.61,6.36 -0.03,0.05 -0.52,0.35 -6.53,3.52 -1.55,0.61 -2.29,0.44 -21.24,1.19 -0.9,0.19 -0.89,0.37 -2.05,1.13 -2.34,1.01 -4.72,0.77 -0.9,0.29 -1.09,0.57 -0.59,0.61 -0.37,0.63 -0.45,2.55 -0.25,0.82 -0.86,1.51 -0.2,0.46 -0.05,0.48 0.32,9.2 0,0.01 -1.9,0.05 -1.37,-0.17 -1.88,-1.14 -2.2,-1.82 -2.41,-1.19 -2.51,0.73 -2.06,-1.33 -0.62,-0.63 -0.95,-1.59 -0.39,-0.41 -0.12,-0.96 -0.79,-1.49 -1.06,-1.36 -1.73,-0.99 -1.12,-1.88 -0.6,-0.66 0.59,-1.18 0.23,-1.62 -0.23,-1.45 -0.81,-0.63 -1.14,-0.39 -0.98,-0.89 -0.87,-0.99 -0.82,-0.67 -0.49,-0.07 -1.31,0.1 -0.44,-0.03 -0.6,-0.42 -1.27,-1.3 -0.59,-0.28 -1.36,-0.4 -0.68,-0.98 -0.39,-1.13 -0.52,-0.91 -4.26,-1.9 -1.51,-0.08 -0.91,-0.26 -0.66,-0.46 -0.77,-0.71 -1,-0.71 -1.06,-0.45 -1.2,-0.24 -1.42,-0.06 -0.6,-0.39 -0.61,-1.68 -1.05,-0.68 0.06,-0.72 0.3,-0.82 0.31,-0.59 -1.17,-0.03 -0.77,-0.14 -0.59,-0.3 -3.31,-3.51 -0.95,-0.46 -3.1,0 -0.88,-0.25 -0.55,-0.34 -1.03,-1.15 -0.93,-0.65 -0.94,-0.42 -0.74,-0.62 -0.3,-1.24 -0.05,-1.32 -0.18,-0.84 -0.41,-0.69 -0.7,-0.85 -0.71,-0.62 -1.48,-0.85 -0.77,-0.7 -1.48,-2.17 -0.53,-0.53 -7.31,-4.48 -2.34,-2.59 -0.9,-1.37 -0.01,-0.32 -0.19,-0.33 0.33,-1.66 -0.14,-0.68 -0.73,-1.08 -1.23,-2.62 -0.96,-1.45 -1.39,-1.47 -0.6,-0.82 -0.25,-0.87 -0.31,-0.01 -0.65,-0.44 -0.56,-0.52 -0.06,-0.25 -0.47,-0.23 -0.25,-0.54 -0.18,-0.64 -0.24,-0.53 -1.8,-1.99 -0.41,-0.75 -0.28,-0.8 -0.44,-0.61 -0.88,-0.26 -0.27,-0.38 0.81,-1.67 -1.25,-0.8 0.03,-0.93 0.45,-1.56 -0.34,-0.74 -0.24,-0.12 -0.39,0.05 -0.82,-0.21 -1.62,-0.75 -0.86,-0.71 -0.01,-0.89 0.93,-1.29 0.36,-1.19 -0.52,-1.27 -1.45,-1.7 -0.36,-0.1 -0.44,0.03 -0.38,-0.1 -0.16,-0.51 0.01,-0.79 -0.06,-0.36 -0.18,-0.33 -0.48,-0.3 -0.73,-0.22 -2.34,-0.31 -0.48,-0.07 -1.28,-0.49 -4.58,-3.18 -1.11,-1.12 -0.46,-1.07 -0.56,-0.49 -2.64,-0.83 -0.83,-0.37 -1.59,-2.1 -1.12,-0.94 -1.54,-0.4 -0.75,-0.09 -0.88,-0.26 -0.8,-0.46 -0.49,-0.64 0.13,-0.59 0.43,-0.62 0.26,-0.74 -0.41,-0.95 0.45,0 -0.34,-0.55 -0.46,-0.46 -0.56,-0.32 -0.66,-0.13 1.5,-3.54 1.85,-6.7 1.74,-6.3 2.86,-9.6 2.39,-8 3.06,-10.23 2.24,-7.48 2.39,-8.2 2.3,-7.86 2.14,-7.28 2.11,-7.23 0.25,-4.61 0,-0.04 -0.13,-10.22 -0.08,-6.75 -0.07,-6.16 -0.08,-6.38 0.56,-1.87 2.39,-3.64 1.43,-2.09 1.37,-1.99 2.93,-4.25 2.94,-4.26 2.93,-4.25 2.93,-4.26 1.09,-1.66 1.09,-1.67 1.09,-1.66 1.1,-1.67 0.84,-1.81 0.44,-0.92 0.87,0.77 6.08,3.9 122.51,36.37 4.54,1.94 1.72,1.32 -1.33,5.46 0.01,0.31 0.09,0.42 0.24,0.41 1.37,1.79 0.77,1.4 0.37,0.93 0.41,1.65 0.03,0.65 -0.02,0.58 -0.25,1.85 0.05,0.57 0.18,0.52 1.34,2.39 3.52,4.92 0.37,0.65 0.63,1.51 2.7,18.06 0.02,0.67 -0.05,0.6 -0.1,0.48 -0.11,0.37 -0.16,0.3 -0.21,0.24 -0.35,0.3 -6.63,4.03 -1,0.79 -0.96,1.05 -0.39,0.63 -0.29,0.7 -5.91,26.52 -0.93,2.81 -0.14,0.91 0,0.68 1.06,6.51 0.07,2.16 0.18,0.72 0.59,0.24 z" 
                fill="rgb(151, 144, 238)" 
                stroke="white" 
                stroke-width=".7px"
                title="Boquerón" 
                id="PY-19" 
            />
        </svg>