<svg xmlns="http://www.w3.org/2000/svg" viewBox="383.1202499999999 369.1003999999999 122.35000000000025 87.50999999999999" width="122.35000000000025" height="87.50999999999999">
            <path 
                d="m 484.99025,407.5804 0,0 0.43,0 1.2,-0.17 0.38,0.07 0.32,0.15 0.25,0.24 0.23,0.27 0.26,0.23 0.31,0.12 0.36,0 0.38,-0.05 0.36,-0.01 0.3,0.14 0.22,0.25 0.38,0.57 5.29,5.04 5.5,3.99 0.26,0.24 0.18,0.3 0.04,0.41 -0.05,0.44 -0.4,1.41 0.01,0.37 0.14,0.31 0.21,0.27 0.24,0.21 0.35,0.2 1.75,0.7 0.29,0.2 0.19,0.29 0.07,0.38 -0.15,1.32 0,0.44 0.07,0.39 0.14,0.34 0.18,0.32 0.42,0.59 0.16,0.32 0.12,0.36 0.07,0.4 0.02,0.9 -1.49,0.45 -1.74,-0.05 -1.68,-0.24 -0.88,-1.56 -0.12,-0.99 -0.25,-0.82 -0.51,-0.64 -0.92,-0.39 -1.12,-0.21 -0.52,-0.19 -0.52,-0.35 -0.41,-0.48 -0.63,-1.02 -0.41,-0.45 0.04,0.76 0.35,1.44 0.06,0.7 -0.73,0.05 -0.83,-0.2 -1.57,-0.58 -0.68,-0.38 -1.67,-1.69 -1.22,-0.86 -0.75,-0.02 -1.94,2.17 -15.27,21.37 -1.08,1.71 -0.14,0.9 0.02,0.33 -0.14,0.53 -0.31,0.5 -0.62,0.72 -0.36,0.52 -0.62,0.53 -0.74,0.43 -3.23,1.25 -1.66,-0.53 -0.76,-0.94 -0.35,-0.13 -0.59,-0.04 -3.94,1.66 -3.98,1.23 -2.06,0.27 -1.67,-0.12 -0.88,-0.49 -0.84,-0.75 -1.36,-1.67 -0.75,-0.76 -0.88,-0.64 -1.34,-0.55 -1.21,-0.21 -7.04,0.2 -1.01,-0.2 -0.8,-0.4 -0.54,-0.55 -0.74,-0.41 -5.3,-0.2 -1.92,-0.35 -0.96,-0.04 -1.85,0.16 -7.4,-0.34 -1.3,0.12 -1.12,0.35 -1.99,1.27 -0.75,0.33 -0.85,0.25 -2.06,0.36 -1.12,0.41 -0.88,0.57 -3.11,2.96 -0.66,0.41 -3.61,1.75 -1.43,0.86 -2.11,-0.28 -0.38,-0.19 -0.56,-0.33 -1.42,-1.82 -2.05,-1.52 -0.24,-0.56 -0.05,-0.17 -3.8,-7.88 -0.34,-0.92 -0.06,-0.68 0.36,-0.5 16.1,-11.39 1.31,-4.52 3.23,-19.22 4.78,-4.95 0.69,-0.47 2,-1.11 0.65,-0.68 0.49,-0.83 0.3,-0.75 0.39,-0.72 0.7,-0.62 2.84,-1.68 0.86,-0.89 0.6,-0.99 0.32,-0.87 0.44,-0.89 0.54,-0.75 0.63,-0.66 0.71,-0.38 0.59,0.06 0.84,0.76 0.28,0.88 0.05,0.77 -0.26,1.11 -0.06,0.53 0.05,0.59 0.18,0.53 0.46,0.49 0.66,0.46 3.01,1.15 0.41,0.24 0.43,0.35 2.24,2.55 3.05,2.87 0.57,0.26 0.56,-0.51 0.57,-0.84 2.88,-5.74 0.96,-1.18 1.35,-1.1 5.28,-2.2 7.74,-2.08 1.73,-2.12 1.85,-2.9 0.92,-1.06 3.27,-2.53 7.19,-7.77 0.85,-0.49 1.32,-0.44 17.19,-2.93 -1.7,2.43 -1.99,2.36 -0.31,0.49 -0.2,0.6 -0.09,0.7 0.09,1.08 0.4,1.61 0.08,0.73 -0.07,0.62 -0.7,1.24 -0.27,0.69 0.08,2.96 -0.14,0.87 -0.43,0.85 -0.47,0.42 -0.5,0.33 -0.26,0.45 -0.14,0.79 0.3,1.36 0.57,1.72 0.04,0.64 -0.1,0.66 -0.68,1.05 -0.44,0.48 -0.06,0.77 0.04,0.49 0.12,0.45 0.13,0.34 0.08,0.39 0.01,0.46 -0.09,1.13 0.01,0.48 0.08,0.42 0.11,0.37 0.03,0.46 -0.02,0.58 -0.25,0.88 0.04,0.68 0.15,0.46 0.81,1.16 0.32,0.65 0.25,0.66 0,0 0.28,0.73 0.18,0.3 0.21,0.28 0.46,0.51 0.28,0.22 0.31,0.2 0.36,0.15 0.41,0.1 0.45,0.03 z" 
                fill="rgb(151, 144, 238)" 
                stroke="white" 
                stroke-width=".7px"
                title="Caaguazú" 
                id="PY-5" 
            />
        </svg>