<svg xmlns="http://www.w3.org/2000/svg" viewBox="385.1702499999999 444.6804 102.13000000000011 89.86000000000007" width="102.13000000000011" height="89.86000000000007">
            <path 
                d="m 474.01025,478.4804 0,0 0.87,-0.43 0.55,-0.09 1.58,0.06 1.87,-0.12 1.16,-0.23 2.08,-0.63 0.39,0.07 0.4,0.3 0.27,0.31 0.23,0.3 0.35,0.39 0.41,0.33 0.52,0.19 1.26,0.1 0.5,0.13 0.42,0.25 0.41,0.54 0.02,0.61 -0.3,0.69 -0.54,0.52 -3.43,2.04 -0.85,-0.18 -0.25,-0.14 -0.25,-0.1 -0.23,0.08 -0.14,0.22 -0.11,0.58 0,0.48 -0.06,0.45 -0.15,0.49 -0.1,0.6 0.06,3.5 -0.18,0.62 -0.4,0.65 -0.53,0.63 -2.72,2.66 -5.52,4.38 -1.18,0.67 -4.46,1.69 -1.36,0.25 -0.9,0.07 -0.92,-0.22 -1.16,-0.02 -1.37,0.16 -2.77,0.82 -3.86,1.66 -0.69,0.85 -0.56,1.46 -0.45,0.57 -1.23,1.04 -3.06,3.26 -1.04,0.71 -1.15,0.54 -4.55,0.84 -3.29,1.07 -0.97,0.74 -1.46,2.21 -0.32,0.72 -0.6,1.79 -0.64,0.98 -0.76,0.88 -0.94,0.8 -0.56,0.63 -0.41,0.69 -0.61,2.27 -0.49,0.54 -1.05,0.45 -2,0.32 -4,1.3 -5.63,3.06 -7.6,2.99 -1.12,0.02 -1.03,-0.25 -0.97,-0.64 -2.05,-1.7 -0.43,-0.25 -4.94,-1.09 -0.13,-0.63 0.02,-0.17 0.08,-0.36 0.3,-0.79 0.14,-0.63 -0.12,-0.64 -0.57,-0.6 -1.12,-0.34 -2.07,-0.04 -0.95,-0.2 -0.97,-0.44 -2.78,-1.89 -1.08,-1.01 -1.21,-1.97 -0.53,-1.04 -0.57,-0.9 -0.39,-0.48 -1.9,-1.2 0.66,-1.65 0.91,-0.78 0.79,-0.52 1.26,-1.1 0.57,-0.86 0.29,-0.92 0.07,-0.83 0.25,-0.85 0.41,-0.59 0.87,-0.9 0.3,-0.77 0.07,-0.71 -0.16,-0.66 -0.04,-0.7 0.12,-0.45 0.25,-0.38 1.35,-0.98 0.32,-0.56 0.16,-0.66 0.23,-2.63 0.67,-2.74 0.49,-0.86 2.27,-2.62 0.31,-0.65 0.5,-2.34 2.11,0.01 1.65,0.2 0.93,-0.36 0.55,-0.61 0.45,-3.22 0.42,-1.25 0.7,-1.2 0.7,-0.57 0.93,-0.29 3.21,-0.15 1.07,-0.39 0.54,-0.56 0.26,-0.81 0.1,-0.87 0.24,-0.84 0.53,-0.92 0.54,-0.27 0.42,0.01 0.43,0.26 0.46,0.13 0.62,-0.04 3.22,-1.43 0.96,-0.25 0.78,-0.02 0.54,0.28 0.3,0.2 1.8,1.48 2.61,1.71 1.21,0.14 3.7,-1.86 1.63,-1.11 0.11,-0.16 0.06,-0.13 0.2,-0.6 1.38,-5.64 0.33,-0.69 0.58,-0.76 0.82,-0.38 2.15,-0.61 0.84,-0.52 1.23,-1.09 0.78,-0.34 2.35,-0.5 0.74,-0.34 1.61,-1.26 0.88,-0.53 5.87,-2.43 0.87,-0.49 0.33,-0.41 0.69,-1.43 0.48,-0.65 0.97,-0.85 0.66,-0.18 0.62,0.04 0.58,0.2 0.61,0.05 0.8,-0.22 0.6,-0.62 0.41,-0.73 0.85,-2.33 0.5,-1.02 0.19,-0.31 0.39,-0.8 1.66,0.53 3.23,-1.25 0.74,-0.43 0.62,-0.53 0.36,-0.52 0.62,-0.72 0.31,-0.5 0.14,-0.53 -0.02,-0.33 0.14,-0.9 1.08,-1.71 2.35,-0.67 0.61,0.05 0.9,0.25 0.33,0.36 0.15,0.43 0.02,0.55 0.11,0.61 0.27,0.68 0.85,1.13 0.29,0.49 0.09,0.54 -0.12,0.49 -0.39,0.57 -1.66,1.53 -0.5,0.75 -0.39,0.98 -0.1,1.65 -0.22,1 -1.03,3.22 -0.28,0.68 -0.41,0.52 -1.37,1.17 -0.2,0.27 -1.3,2.9 -0.43,1.3 0,0.77 0.34,0.59 0.32,0.45 0.2,0.72 -0.22,0.8 0.02,0.72 0.43,1.47 0,0.68 -0.23,2.01 0.23,0.79 0.38,0.56 0.31,0.24 2.71,1.1 0.88,0.48 0.52,0.21 0.49,0.09 z" 
                fill="rgb(151, 144, 238)" 
                stroke="white" 
                stroke-width=".7px"
                title="Caazapá" 
                id="PY-6" 
            />
        </svg>