<svg xmlns="http://www.w3.org/2000/svg" viewBox="426.1602499999997 299.3203999999998 125.49000000000024 90.02000000000015" width="125.49000000000024" height="90.02000000000015">
            <path 
                d="m 484.26025,333.0104 0,0 0.01,0 0.01,0 0,0 2.33,0.87 2.36,0.49 2.33,-0.19 2.24,-1.17 0,0 0.01,0 0,-0.01 1.67,-0.85 4.15,0.03 2.02,-0.6 1.11,-0.54 2.2,-0.1 1.14,-0.18 1.11,-0.67 1.44,-1.93 0.85,-0.89 4.23,-2.41 8.56,-3 1.12,-0.61 1.65,-1.81 1.01,-0.5 1.75,0.48 11.11,6.37 1.33,0.99 3.63,5.09 6.16,3.72 1.83,1 0.03,0.02 -1.37,1.1 -2.29,1.72 -1.55,2.03 -0.65,2.21 0.18,1.16 0.85,2.28 0.32,2.69 0.51,0.9 1.55,2.06 0.54,1.65 0.88,2.25 -0.08,2.09 -0.62,2.22 -0.82,1.58 -2.54,3.82 -0.76,2.33 -0.02,2.21 0.92,4.95 -0.04,2.34 -2.43,7.44 -0.04,-0.02 -1.48,-0.65 -0.92,-0.12 -1.69,0.01 -1.54,0.16 -1.63,-0.01 -1.54,-0.33 -1.83,-0.77 -1.89,-0.57 -5.03,-0.75 -0.63,-0.28 -0.45,-0.52 -0.38,-0.6 -0.69,-1.82 -0.28,-0.31 -0.31,-0.11 -0.57,0.08 -0.96,0.29 -0.42,0.07 -0.54,-0.09 -0.5,-0.18 -0.73,-0.37 -0.58,-0.15 -0.79,0.07 -0.48,0.35 -0.31,0.32 -0.42,0.67 -0.3,0.36 -0.33,0.33 -0.35,0.23 -0.34,0.15 -0.4,0.03 -0.33,-0.19 -0.35,-0.51 0,-0.63 0.05,-0.43 0,-0.33 -0.24,-0.23 -0.53,-0.24 -0.93,-0.13 -2.39,-0.09 -0.55,-0.09 -0.51,-0.19 -0.44,-0.44 -0.12,-0.39 0.03,-0.37 0.14,-0.39 0.09,-0.4 0.03,-0.51 -0.13,-0.65 -0.76,-0.78 -1.26,-0.71 -5.03,-1.62 -0.55,0.02 -0.98,0.17 -1.55,0.65 -0.8,0.17 -0.86,-0.14 -0.95,-0.42 -0.96,-0.94 -0.31,-0.87 -0.07,-0.8 0.28,-2.66 -1.41,-0.37 -7.27,2.5 -17.19,2.93 -1.32,0.44 -0.85,0.49 -7.19,7.77 -3.27,2.53 -0.92,1.06 -1.85,2.9 -1.73,2.12 -3.5,-2.1 -0.66,-0.57 -0.42,-0.76 -0.48,-1.04 -0.58,-1.67 -1.27,-1.36 -1.1,-0.92 -1.93,-1.23 -0.74,-1.01 -0.69,-1.57 -0.95,-3 -1.41,-2.9 -3.47,-4.88 -1.36,-3.17 -0.31,-0.44 -0.38,-0.36 -0.5,-0.25 -1.23,-0.42 -0.6,-0.3 -0.54,-0.38 -0.55,-0.54 -0.45,-0.57 -0.37,-0.69 -0.35,-0.87 -0.28,-1.12 -0.28,-2.34 -0.17,-0.81 -0.27,-0.67 -0.36,-0.4 -1.41,-1.23 -0.13,-0.91 0,-1.38 0.39,-3.36 -0.06,-1.6 0.3,-1.1 0.2,-0.36 1.28,-1.74 0.28,-0.22 0.29,-0.19 0.33,-0.17 1.6,-0.36 0.33,-0.15 0.27,-0.23 0.84,-1.12 1.49,-1.46 0.83,-1.14 0.99,-0.98 0.29,-0.17 0.27,-0.12 0.29,-0.01 0.16,0.01 0.41,0.1 0.12,-0.51 -0.34,-1.64 -4.04,-10.86 0.78,0.54 0.97,0.46 0.4,0.13 0.42,0.06 0.36,-0.07 0.35,-0.14 0.54,-0.29 0.52,-0.2 2.35,-0.21 1.63,-0.39 1.68,-0.69 0.63,-0.42 0.4,-0.45 0.92,-1.64 0.66,-0.65 2.8,-1.58 6.79,-5.02 1.41,-0.85 0.96,-0.41 1.83,-0.04 0.6,-0.15 0.56,-0.22 2.69,-1.59 0.74,-0.7 0.44,-0.74 0.54,-2.76 1.17,-3.21 0.65,-1.05 0.63,-0.47 0.04,-0.03 0.04,0.25 -0.05,2.58 0.22,2.39 1.26,1.86 2.91,3.14 1.42,4.46 0.99,13.84 0.63,1.87 1.48,1.6 2.02,0.92 4.13,0.32 2.07,0.45 0,0.01 z" 
                fill="rgb(151, 144, 238)" 
                stroke="white" 
                stroke-width=".7px"
                title="Canindeyú" 
                id="PY-14" 
            />
        </svg>