<svg xmlns="http://www.w3.org/2000/svg" viewBox="306.6102499999997 196.1904000000006 121.59000000000009 101.28999999999988" width="121.59000000000009" height="101.28999999999988">
            <path 
                d="m 311.52025,199.5804 0,0 0.71,0 1.13,-0.49 0.45,-0.06 0.56,0.33 0.93,1.02 0.32,0.24 0.79,-0.18 1.05,-0.91 0.67,0.02 0.67,0.17 0.51,-0.09 0.8,-0.41 -0.16,-0.11 0.02,-0.38 0.12,-0.41 0.13,-0.24 0.25,-0.03 0.63,0.24 0.27,-0.01 1.3,-0.49 0.86,0.07 0.87,0.27 1.33,0.06 0.73,-0.21 0.51,-0.28 0.46,-0.13 0.61,0.28 1.02,2.83 0.77,1.46 0.86,0.84 1.14,0.29 1.57,-0.24 0.57,-0.23 0.27,-0.2 0.34,-0.1 0.82,0.09 0.5,0.21 1.54,1.01 2.54,-0.6 0.55,0.01 1.37,0.54 0.71,0.05 0.95,0.36 2.15,1.38 0.42,0.01 0.24,-0.44 0.55,0.14 1.01,0.57 0.74,-0.02 0.34,-0.37 0.11,-0.45 0.09,-0.21 1.01,0.09 2.93,0.72 1.26,-0.23 1.64,-1.37 0.89,-0.22 0.29,0.28 0.2,1.09 0.45,0.38 0.63,0.05 0.41,-0.19 0.38,-0.25 0.49,-0.11 1.07,0.16 1.96,0.74 0.6,0.31 0.03,0.15 0.09,0.31 0.31,0.29 1.16,0.21 0.38,0.12 0.38,0.03 0.5,-0.2 0.79,-0.21 2.09,0.16 1.08,-0.08 1.62,0.53 0.71,0.02 0.73,-0.48 -0.06,1.14 0.33,0.27 0.55,-0.08 0.62,0.03 1.16,0.59 0.67,0.03 0.72,-1.83 0.77,1.08 0.67,1.77 0.15,0.9 1.54,0.23 0.86,-0.29 0,0 0.58,0.65 13.87,3.47 2.66,1.05 -0.26,0.23 -1.53,0.82 -0.37,0.26 -2.8,4.02 -0.48,0.41 -2.1,1.43 -0.36,0.37 -0.26,0.39 -0.19,0.42 -0.05,0.49 0.31,1.54 -0.07,0.54 -0.23,0.4 -0.64,0.45 -0.16,0.38 0.02,0.51 0.34,1.43 0.03,0.41 -0.06,1.34 0.16,1.34 -0.03,0.81 -0.11,0.66 -0.19,0.57 -0.12,0.79 0.13,0.66 0.31,0.52 0.61,0.8 0.13,0.53 -0.02,0.5 -0.21,1.07 0.15,0.5 0.31,0.32 0.37,0.22 0.34,0.27 0.43,0.5 0.55,0.91 0.53,1.41 0.51,2.87 0.41,1.28 -0.07,0.74 -0.31,0.48 -1.45,0.95 -0.43,0.5 -0.36,0.56 -0.17,0.87 0.06,0.24 0.25,0.08 0.39,-0.03 0.89,0.02 1.22,-0.12 0.35,-0.13 0.29,-0.18 0.51,-0.5 0.3,-0.16 0.42,0.08 0.42,0.29 0.58,0.62 0.42,0.34 0.41,0.27 0.4,0.11 0.43,0.05 0.39,-0.05 0.35,-0.09 1.27,-0.58 0.75,-0.17 0.31,-0.17 0.24,-0.26 0.52,-1.07 0.68,-0.89 0.19,-0.34 0.13,-0.41 0.21,-1.38 0.11,-0.42 0.23,-0.63 0.07,-0.14 0.08,-0.12 0.4,-0.42 0.56,-0.42 0.33,-0.17 0.33,-0.13 3.47,-0.62 0.36,-0.11 0.64,-0.32 0.28,-0.21 0.25,-0.26 0.43,-0.59 0.77,-1.32 0.21,-0.3 0.25,-0.26 0.3,-0.2 0.35,-0.15 0.76,-0.17 0.33,-0.14 0.3,-0.19 1.66,-1.29 0.31,-0.16 0.35,-0.08 0.34,0.01 0.4,0.1 0.96,0.39 0.31,0.38 0.23,0.41 9.41,24.59 0.05,0.44 -0.12,0.79 -0.08,2.55 -0.07,0.41 -0.14,0.34 -0.24,0.25 -0.32,0.15 -0.38,0.01 -0.35,-0.1 -0.64,-0.31 -0.32,-0.03 -0.26,0.16 -0.18,0.3 -0.07,0.4 0.01,0.44 0.12,0.76 -0.06,0.31 -0.26,0.19 -0.32,0.15 -0.28,0.23 -0.19,0.29 -0.14,0.36 -0.09,0.39 -0.05,0.49 0.01,0.6 0.26,1.01 0.02,0.58 -0.13,0.39 -0.27,0.21 -2.53,1.37 -0.58,0.41 -0.26,0.23 -0.24,0.24 -0.18,0.32 -0.29,0.68 -0.23,0.27 -0.6,0.36 -0.27,0.23 -0.23,0.25 -0.2,0.3 -0.15,0.35 -0.09,0.39 -0.21,1.75 -0.17,0.7 -0.06,0.19 -0.13,0.25 -0.12,0.17 -0.31,0.27 -2.13,0.89 -0.82,1 -0.53,0.91 -0.89,0.68 -0.88,0.85 -1.56,0.8 -0.49,0.06 -0.4,-0.03 -0.42,-0.08 -0.58,-0.02 -2.62,0.71 -2.92,1.49 -0.46,0.17 -0.63,0 -0.95,0.1 -2.09,0.48 -0.99,0.11 -0.6,-0.07 -0.44,-0.51 -0.54,-0.15 -0.8,-0.07 -1.71,0.19 -0.87,0 -0.64,-0.06 -1.57,-0.87 -0.67,-0.11 -0.94,-0.04 -3.81,0.21 -3.3,-0.78 -1.59,-0.19 -0.57,0.06 -0.43,0.16 -0.57,0.53 -0.42,0.31 -0.42,0.13 -0.56,0.05 -1.66,-0.11 -0.7,0.1 -0.9,0.22 -1.27,0.59 -0.49,0.1 -0.42,-0.02 -0.52,-0.18 -0.51,-0.12 -0.67,-0.08 -0.48,0.06 -0.39,0.14 -0.3,0.2 -0.26,0.23 -0.47,0.28 -2.9,0.93 -4.69,0.74 -3.06,-0.03 -0.68,0.08 -0.5,0.17 -1.11,0.61 -1.32,0.51 -0.71,0.15 -0.49,0.04 -0.16,-0.04 -4.36,0.32 -0.44,-0.04 -0.72,-0.18 -0.31,-0.11 -1.68,-0.94 -0.34,-0.15 -0.31,-0.18 -0.79,-0.33 -1.69,-0.23 0.26,-0.7 -0.01,-0.52 -0.25,-0.73 -0.43,-2.14 -0.06,-0.57 -0.2,-0.39 -0.9,-0.72 -0.44,-0.79 -1.16,-1.07 -0.39,-0.71 -0.19,-1.02 0.15,-0.49 0.38,-0.46 0.55,-0.96 0.34,-0.75 0.12,-0.41 -0.01,-1.54 -0.24,-0.43 -1.09,-1.08 -0.69,-0.55 -1.6,-2.11 -0.58,-0.53 -0.43,-0.31 -2.46,-1.2 -1.32,-0.86 -1.05,-1.05 -0.43,-1.17 0.03,-1.49 -0.09,-1.2 -0.51,-0.88 -1.22,-0.56 -2.61,-0.02 -1.04,-0.39 -0.42,-1.34 -0.62,-0.83 -2.92,-1.42 -0.98,-0.96 1.42,-2.83 -0.34,-1.49 -0.86,-1.14 -2.2,-2.06 -0.1,-0.7 0.64,-0.64 0.87,-0.64 0.57,-0.71 0.07,-0.85 -0.27,-0.66 -0.66,-0.92 -0.42,-1.24 -0.2,-0.37 -0.5,-0.58 -0.61,-0.27 -1.5,0.08 -0.59,-0.29 -0.41,-0.79 -0.33,-1.67 -0.36,-0.7 -0.56,-0.36 -1.5,-0.4 -0.63,-0.3 -1.42,-2.18 0.72,-2.13 2.19,-1.53 2.99,-0.43 2.84,0.49 1.46,-0.03 0.62,-0.7 -0.29,-1.53 -0.72,-1.18 -1.67,-1.94 -0.95,-2.19 -0.84,-8.04 -0.37,-1.63 -0.17,-0.79 0.41,-0.52 1.22,-1.13 -0.29,-0.81 -3.04,-3.83 -0.65,-2.37 -0.61,-0.74 -1.23,-0.28 -1.66,-0.08 -1.01,-0.36 -0.63,-0.87 -0.52,-1.6 -0.23,-1.68 0.68,-4.41 -0.48,-1.14 -0.46,-2.97 0.52,-0.64 0.01,-0.01 0.02,0.01 0.75,0.63 0.58,1.12 0.82,0.88 2.21,0.75 z" 
                fill="rgb(151, 144, 238)" 
                stroke="white" 
                stroke-width=".7px"
                title="Concepción" 
                id="PY-1" 
            />
        </svg>