<svg xmlns="http://www.w3.org/2000/svg" viewBox="341.1202499999999 398.92040000000037 63.000000000000114 54.21999999999974" width="63.000000000000114" height="54.21999999999974">
            <path 
                d="m 404.12025,406.6304 0,0 -3.23,19.22 -1.31,4.52 -16.1,11.39 -0.36,0.5 0.06,0.68 0.34,0.92 3.8,7.88 0.05,0.17 0.24,0.56 -2.74,-1.08 -0.49,-0.08 -0.69,-0.03 -0.73,0.36 -0.62,0.42 -0.46,0.39 -0.42,0.27 -0.46,0.25 -0.49,0.13 -0.46,0.04 -2.01,-0.14 -0.54,-0.18 -0.46,-0.28 -0.19,-0.48 0.05,-0.29 0.23,-0.27 0.82,-0.73 0.8,-0.89 0.19,-0.37 0.07,-0.34 -0.01,-0.32 -0.09,-0.28 -0.4,-0.87 -0.18,-0.55 -0.35,-1.84 -0.24,-0.62 -0.38,-0.51 -0.85,-0.2 -0.68,-0.02 -4.88,0.3 -0.55,-0.05 -1.16,-0.25 -1.52,-0.52 -0.78,-0.14 -1.76,-0.09 -1,-0.71 -0.6,-0.57 -3.22,-6.04 -1.34,-2.2 -0.74,-0.83 -0.41,-0.04 -0.29,0.08 -0.34,0.24 -0.46,0.43 -0.25,0.18 -0.4,0.1 -0.45,0.01 -0.47,-0.19 -0.42,-0.33 -0.66,-0.9 -2.27,-4.18 -0.41,-1.39 -0.18,-1.09 -0.35,-0.93 -0.83,-1.26 -1.98,-2.18 -2.01,-3.46 -0.63,-0.63 -2.64,-1.7 -0.22,-0.21 -1.49,-2.21 2.15,0 0.49,-0.31 1.22,-1.36 0.55,-0.31 0.65,-0.13 0.77,-0.35 0.79,-0.47 0.68,-0.53 3.17,-4.25 0.66,-1.71 1.54,-0.17 1.78,0.46 1.4,0.19 1.2,0.84 4.28,1.98 2.25,0.66 1.22,0.13 1.2,-0.1 1.31,-0.47 0.72,-0.51 0.36,-0.43 0.12,-0.36 0.04,-0.31 -0.01,-0.28 -0.11,-0.47 -0.02,-0.26 0.02,-0.38 0.08,-0.42 0.12,-0.25 0.21,-0.25 0.6,-0.39 0.51,-0.27 0.89,-0.29 10.36,-1.95 3.59,-1.04 4.42,-0.52 1.02,0.13 6.13,2.48 1.13,0.76 2.42,2.76 0.33,0.21 0.31,0.27 2.45,1.1 z" 
                fill="rgb(151, 144, 238)" 
                stroke="white" 
                stroke-width=".7px"
                title="Cordillera" 
                id="PY-3" 
            />
        </svg>