<svg xmlns="http://www.w3.org/2000/svg" viewBox="392.45025 446.9704000000002 68.73000000000008 43.80999999999989" width="68.73000000000008" height="43.80999999999989">
            <path 
                d="m 420.41025,447.3104 0,0 1.85,-0.16 0.96,0.04 1.92,0.35 5.3,0.2 0.74,0.41 0.54,0.55 0.8,0.4 1.01,0.2 7.04,-0.2 1.21,0.21 1.34,0.55 0.88,0.64 0.75,0.76 1.36,1.67 0.84,0.75 0.88,0.49 1.67,0.12 2.06,-0.27 3.98,-1.23 3.94,-1.66 0.59,0.04 0.35,0.13 0.76,0.94 -0.39,0.8 -0.19,0.31 -0.5,1.02 -0.85,2.33 -0.41,0.73 -0.6,0.62 -0.8,0.22 -0.61,-0.05 -0.58,-0.2 -0.62,-0.04 -0.66,0.18 -0.97,0.85 -0.48,0.65 -0.69,1.43 -0.33,0.41 -0.87,0.49 -5.87,2.43 -0.88,0.53 -1.61,1.26 -0.74,0.34 -2.35,0.5 -0.78,0.34 -1.23,1.09 -0.84,0.52 -2.15,0.61 -0.82,0.38 -0.58,0.76 -0.33,0.69 -1.38,5.64 -0.2,0.6 -0.06,0.13 -0.11,0.16 -1.63,1.11 -3.7,1.86 -1.21,-0.14 -2.61,-1.71 -1.8,-1.48 -0.3,-0.2 -0.54,-0.28 -0.78,0.02 -0.96,0.25 -3.22,1.43 -0.62,0.04 -0.46,-0.13 -0.43,-0.26 -0.42,-0.01 -0.54,0.27 -0.53,0.92 -0.24,0.84 -0.1,0.87 -0.26,0.81 -0.54,0.56 -1.07,0.39 -3.21,0.15 -0.93,0.29 -0.7,0.57 -0.7,1.2 -0.42,1.25 -0.45,3.22 -0.55,0.61 -0.93,0.36 -1.65,-0.2 -2.11,-0.01 -4.38,-8.12 -0.39,-0.95 -0.27,-1.06 -0.36,-2.78 -0.05,-0.16 -0.03,-0.39 0.08,-0.46 0.37,-0.49 0.44,-0.25 2.8,-0.7 0.65,-0.35 0.32,-0.75 0,-1.09 -0.63,-2.02 -0.56,-1.09 -1.56,-2.03 -0.49,-0.84 -0.45,-1.11 -0.67,-2.27 -0.38,-2.23 -0.08,-1.27 0.12,-1.2 0.46,-1.31 1.1,-1.04 1.43,-0.86 3.61,-1.75 0.66,-0.41 3.11,-2.96 0.88,-0.57 1.12,-0.41 2.06,-0.36 0.85,-0.25 0.75,-0.33 1.99,-1.27 1.12,-0.35 1.3,-0.12 7.4,0.34 z" 
                fill="rgb(151, 144, 238)" 
                stroke="white" 
                stroke-width=".7px"
                title="Guairá" 
                id="PY-4" 
            />
        </svg>