<svg xmlns="http://www.w3.org/2000/svg" viewBox="391.28025000000025 483.3903999999997 132.92999999999972 110.94000000000011" width="132.92999999999972" height="110.94000000000011">
            <path 
                d="m 483.03025,483.8104 0,0 2.23,7.08 1.36,1.31 4.87,-0.24 1.29,0.06 0.54,0.11 0.64,0.18 1.66,0.71 2.12,0.54 0.68,0.41 1.01,0.77 0.53,0.25 0.4,0.04 0.25,-0.17 0.16,-0.14 0.12,-0.17 0.2,-0.52 0.26,-0.34 0.43,-0.47 2.17,-0.2 0.88,-0.21 0.4,-0.17 0.45,-0.29 0.45,-0.44 0.28,-0.34 0.99,-1.82 0.47,-0.71 0.37,-0.44 0.31,-0.24 0.41,-0.17 0.3,0.01 0.2,0.1 0.12,0.2 0.04,0.34 -0.04,0.37 -0.28,1.05 -0.04,0.5 0.16,0.38 0.61,0.49 0.5,0.17 0.5,-0.01 0.36,-0.16 0.39,-0.25 0.88,-0.76 0.55,-0.3 0.53,-0.16 1.01,-0.01 1.25,0.25 0.96,0.36 1.26,0.65 0.33,0.24 0.26,0.25 0.16,0.23 0.07,0.3 0,0.36 -0.08,0.51 0.01,0.47 0.13,0.47 0.39,0.45 0.73,0.18 3.74,0.3 0.12,0 0.04,0 -0.07,0.36 0.16,1.43 0,3.3 -1.01,2.3 -0.09,0.4 -0.2,0.41 -0.63,4.47 -0.3,1.19 -0.58,1 -2.01,2.3 -1.85,1.53 -0.98,1.2 -0.63,1.32 0.07,1.03 0.35,1.04 0.21,1.36 -0.07,1.68 -0.24,1.8 -0.53,1.63 -0.91,1.2 -0.68,0.33 -0.36,-0.18 -0.3,-0.38 -0.5,-0.28 -2.91,0 -1.57,0.41 -1.09,1.04 -0.71,1.46 -0.86,3.38 -0.48,1.29 -0.64,1.08 -0.94,1.14 -1.08,0.5 -3.21,0.28 -1.33,0.5 -4.25,4.29 -0.45,1.25 0.9,2.9 -0.22,1.6 -1.06,0.88 -1.52,0.27 -2.6,-0.14 -1.01,-0.31 -1.22,-0.66 -1.4,-0.57 -1.58,-0.02 -3.2,1.78 -3.07,0.4 -1.32,0.4 -1.16,0.77 -1.1,1.22 -0.78,1.41 -0.4,1.5 -0.16,3.4 -0.7,1.17 -1.61,0.16 -1.81,-0.19 -1.3,0.14 -0.75,1.17 -0.28,1.51 -0.38,1.33 -1.07,0.57 -1.74,0.44 -0.05,1.11 1.58,3.02 0.28,0.87 0.13,0.79 -0.14,0.77 -0.87,1.5 0.05,0.49 0.17,0.61 -0.06,1.02 -0.64,1.68 -1.06,1.27 -1.39,0.8 -1.63,0.28 -1.85,1.43 -2.34,2.8 -2.45,1.94 -3.96,-2.18 -1.77,-0.5 -0.79,-0.45 -0.56,-0.75 -0.99,-2.77 -0.98,-1.38 -1.33,-0.52 -1.53,0.03 -1.59,0.24 -0.36,0.01 -1.23,0.04 -1.44,-0.29 -0.01,0 -4.38,-1.73 -0.03,0 -1.62,-0.32 -1.68,-0.12 -1.67,0.95 -1.24,0.96 -2.4,2.76 -1.48,0.67 -1.88,0.52 -1.52,0.84 -0.36,1.6 0.26,2.02 -0.26,1.65 -0.76,1.48 -1.28,1.44 -1.28,1.86 -0.9,2.28 -1.17,1.79 -2.11,0.46 -0.04,-0.01 -2.04,-0.84 -1.97,-1.59 -1.7,-1.97 -1.24,-2 -2.63,-3.33 -0.04,-0.01 -4.33,-0.64 -1.64,0.49 0,-0.03 -0.34,-5.17 0.06,-0.43 0.27,-0.58 0.19,-0.32 0.22,-0.45 0.02,-0.39 -0.25,-0.58 -0.31,-0.42 -2.31,-2.19 -0.46,-0.55 -0.4,-0.63 -0.12,-1.22 0.2,-1.58 0.88,-3.02 0.59,-1.16 0.65,-0.75 0.64,-0.36 0.56,-0.52 1.7,-1.92 0.61,-0.38 0.48,-0.19 3.33,-0.42 0.6,-1.24 0.14,-2.55 -2.64,-26.77 4.94,1.09 0.43,0.25 2.05,1.7 0.97,0.64 1.03,0.25 1.12,-0.02 7.6,-2.99 5.63,-3.06 4,-1.3 2,-0.32 1.05,-0.45 0.49,-0.54 0.61,-2.27 0.41,-0.69 0.56,-0.63 0.94,-0.8 0.76,-0.88 0.64,-0.98 0.6,-1.79 0.32,-0.72 1.46,-2.21 0.97,-0.74 3.29,-1.07 4.55,-0.84 1.15,-0.54 1.04,-0.71 3.06,-3.26 1.23,-1.04 0.45,-0.57 0.56,-1.46 0.69,-0.85 3.86,-1.66 2.77,-0.82 1.37,-0.16 1.16,0.02 0.92,0.22 0.9,-0.07 1.36,-0.25 4.46,-1.69 1.18,-0.67 5.52,-4.38 2.72,-2.66 0.53,-0.63 0.4,-0.65 0.18,-0.62 -0.06,-3.5 0.1,-0.6 0.15,-0.49 0.06,-0.45 0,-0.48 0.11,-0.58 0.14,-0.22 0.23,-0.08 0.25,0.1 0.25,0.14 0.85,0.18 z" 
                fill="rgb(151, 144, 238)" 
                stroke="white" 
                stroke-width=".7px"
                title="Itapúa" 
                id="PY-7" 
            />
        </svg>