<svg xmlns="http://www.w3.org/2000/svg" viewBox="324.69025 507.1703999999997 76.96999999999991 81.2400000000003" width="76.96999999999991" height="81.2400000000003">
            <path 
                d="m 380.65025,513.2104 0,0 0.77,-0.22 0.82,0.27 0.58,0.28 2.35,3.74 1.9,1.2 0.39,0.48 0.57,0.9 0.53,1.04 1.21,1.97 1.08,1.01 2.78,1.89 0.97,0.44 0.95,0.2 2.07,0.04 1.12,0.34 0.57,0.6 0.12,0.64 -0.14,0.63 -0.3,0.79 -0.08,0.36 -0.02,0.17 0.13,0.63 2.64,26.77 -0.14,2.55 -0.6,1.24 -3.33,0.42 -0.48,0.19 -0.61,0.38 -1.7,1.92 -0.56,0.52 -0.64,0.36 -0.65,0.75 -0.59,1.16 -0.88,3.02 -0.2,1.58 0.12,1.22 0.4,0.63 0.46,0.55 2.31,2.19 0.31,0.42 0.25,0.58 -0.02,0.39 -0.22,0.45 -0.19,0.32 -0.27,0.58 -0.06,0.43 0.34,5.17 0,0.03 -2.96,0.87 -3.35,2.64 -2.42,0.47 -0.03,-0.02 -2.35,-1.46 -4.06,-4.09 -2.3,-0.94 -0.01,0 -2.39,0.25 -2.39,0.98 -6.48,3.59 -2.15,0.49 -2.57,-0.12 -0.56,-0.09 -1.54,-0.03 -0.02,-0.01 -0.71,-0.22 -0.6,-0.39 -1.75,-1.5 -0.66,-0.33 -0.03,0 -2.98,-0.83 -0.62,-0.17 -0.69,-0.38 -0.46,-0.47 0.03,-0.09 1.2,-4.91 5.85,-16.79 0.41,-2.82 -0.51,-1.15 -1.87,-0.54 -11.95,-1.83 -0.49,-0.26 -7.54,-8.88 -5.44,-7.77 -0.59,-1.44 -0.4,-1.29 -4.64,-27.02 2.23,1.15 1.09,1.54 0.45,0.32 0.76,0.42 0.39,0.51 0.34,0.69 0.47,1.31 0.23,0.51 0.43,0.51 1.66,0.97 0.45,0.49 0.41,0.64 0.49,0.59 0.88,0.47 4.77,1.06 0.87,0.46 0.45,0.62 0.67,0.66 0.92,0.49 1.75,0.47 1.06,0.76 1.43,0.65 1.74,0.16 5.78,-1.29 3.38,-1.19 0.86,-0.57 0.44,-0.72 0.1,-0.84 0,-1.13 0.1,-0.97 0.37,-0.67 0.56,-0.44 0.96,-0.38 0.47,-0.39 0.25,-0.3 0.11,-0.34 0.21,-0.36 0.35,-0.46 0.71,-0.35 0.32,-0.4 0.25,-0.53 0.18,-0.68 0.37,-0.88 0.61,-0.95 0.76,-0.81 1.03,-0.81 0.4,-0.22 0.5,-0.21 0.69,-0.18 0.67,-0.09 0.61,0.02 0.58,0.11 0.48,0.17 3.9,2.05 1.39,0.96 2.17,1.81 1.23,0.77 1.23,0.15 z" 
                fill="rgb(151, 144, 238)" 
                stroke="white" 
                stroke-width=".7px"
                title="Misiones" 
                id="PY-8" 
            />
        </svg>