<svg xmlns="http://www.w3.org/2000/svg" viewBox="324.69024999999976 435.8903999999999 73.4000000000002 87.43999999999983" width="73.4000000000002" height="87.43999999999983">
            <path 
                d="m 370.95025,444.2604 0,0 4.88,-0.3 0.68,0.02 0.85,0.2 0.38,0.51 0.24,0.62 0.35,1.84 0.18,0.55 0.4,0.87 0.09,0.28 0.01,0.32 -0.07,0.34 -0.19,0.37 -0.8,0.89 -0.82,0.73 -0.23,0.27 -0.05,0.29 0.19,0.48 0.46,0.28 0.54,0.18 2.01,0.14 0.46,-0.04 0.49,-0.13 0.46,-0.25 0.42,-0.27 0.46,-0.39 0.62,-0.42 0.73,-0.36 0.69,0.03 0.49,0.08 2.74,1.08 2.05,1.52 1.42,1.82 0.56,0.33 0.38,0.19 2.11,0.28 -1.1,1.04 -0.46,1.31 -0.12,1.2 0.08,1.27 0.38,2.23 0.67,2.27 0.45,1.11 0.49,0.84 1.56,2.03 0.56,1.09 0.63,2.02 0,1.09 -0.32,0.75 -0.65,0.35 -2.8,0.7 -0.44,0.25 -0.37,0.49 -0.08,0.46 0.03,0.39 0.05,0.16 0.36,2.78 0.27,1.06 0.39,0.95 4.38,8.12 -0.5,2.34 -0.31,0.65 -2.27,2.62 -0.49,0.86 -0.67,2.74 -0.23,2.63 -0.16,0.66 -0.32,0.56 -1.35,0.98 -0.25,0.38 -0.12,0.45 0.04,0.7 0.16,0.66 -0.07,0.71 -0.3,0.77 -0.87,0.9 -0.41,0.59 -0.25,0.85 -0.07,0.83 -0.29,0.92 -0.57,0.86 -1.26,1.1 -0.79,0.52 -0.91,0.78 -0.66,1.65 -2.35,-3.74 -0.58,-0.28 -0.82,-0.27 -0.77,0.22 -1.23,-0.15 -1.23,-0.77 -2.17,-1.81 -1.39,-0.96 -3.9,-2.05 -0.48,-0.17 -0.58,-0.11 -0.61,-0.02 -0.67,0.09 -0.69,0.18 -0.5,0.21 -0.4,0.22 -1.03,0.81 -0.76,0.81 -0.61,0.95 -0.37,0.88 -0.18,0.68 -0.25,0.53 -0.32,0.4 -0.71,0.35 -0.35,0.46 -0.21,0.36 -0.11,0.34 -0.25,0.3 -0.47,0.39 -0.96,0.38 -0.56,0.44 -0.37,0.67 -0.1,0.97 0,1.13 -0.1,0.84 -0.44,0.72 -0.86,0.57 -3.38,1.19 -5.78,1.29 -1.74,-0.16 -1.43,-0.65 -1.06,-0.76 -1.75,-0.47 -0.92,-0.49 -0.67,-0.66 -0.45,-0.62 -0.87,-0.46 -4.77,-1.06 -0.88,-0.47 -0.49,-0.59 -0.41,-0.64 -0.45,-0.49 -1.66,-0.97 -0.43,-0.51 -0.23,-0.51 -0.47,-1.31 -0.34,-0.69 -0.39,-0.51 -0.76,-0.42 -0.45,-0.32 -1.09,-1.54 -2.23,-1.15 1.29,-1.49 1.4,-1.09 0.77,-1.14 2.53,-4.95 8.72,-8.75 0.28,-0.53 0.08,-0.75 -1.82,-10.65 3.07,-2.95 1.5,-1.94 1.76,-3.37 0.26,-1.58 -0.13,-1.29 -1.53,-4.99 -0.09,-1.63 0.24,-2.15 0.82,-2.51 0.72,-1.46 0.78,-1.11 2.34,-2.28 2.13,-2.5 5.52,-8.93 0.44,-0.55 1.91,-1.73 2.68,-1.67 3.22,6.04 0.6,0.57 1,0.71 1.76,0.09 0.78,0.14 1.52,0.52 1.16,0.25 0.55,0.05 z" 
                fill="rgb(151, 144, 238)" 
                stroke="white" 
                stroke-width=".7px"
                title="Paraguarí" 
                id="PY-9" 
            />
        </svg>