<svg xmlns="http://www.w3.org/2000/svg" viewBox="122.20024999999981 196.33039999999986 242.82000000000022 229.71999999999994" width="242.82000000000022" height="229.71999999999994">
            <path 
                d="m 229.77025,201.9304 0,0 10.12,-0.38 13.99,1.18 3.42,-0.38 30.81,2.12 1.68,0.47 0.93,0.7 0.46,3.37 0.53,0.72 0.93,0.61 22.64,10.08 0.37,1.63 0.84,8.04 0.95,2.19 1.67,1.94 0.72,1.18 0.29,1.53 -0.62,0.7 -1.46,0.03 -2.84,-0.49 -2.99,0.43 -2.19,1.53 -0.72,2.13 1.42,2.18 0.63,0.3 1.5,0.4 0.56,0.36 0.36,0.7 0.33,1.67 0.41,0.79 0.59,0.29 1.5,-0.08 0.61,0.27 0.5,0.58 0.2,0.37 0.42,1.24 0.66,0.92 0.27,0.66 -0.07,0.85 -0.57,0.71 -0.87,0.64 -0.64,0.64 0.1,0.7 2.2,2.06 0.86,1.14 0.34,1.49 -1.42,2.83 0.98,0.96 2.92,1.42 0.62,0.83 0.42,1.34 1.04,0.39 2.61,0.02 1.22,0.56 0.51,0.88 0.09,1.2 -0.03,1.49 0.43,1.17 1.05,1.05 1.32,0.86 2.46,1.2 0.43,0.31 0.58,0.53 1.6,2.11 0.69,0.55 1.09,1.08 0.24,0.43 0.01,1.54 -0.12,0.41 -0.34,0.75 -0.55,0.96 -0.38,0.46 -0.15,0.49 0.19,1.02 0.39,0.71 1.16,1.07 0.44,0.79 0.9,0.72 0.2,0.39 0.06,0.57 0.43,2.14 0.25,0.73 0.01,0.52 -0.26,0.7 -0.13,0.82 -0.58,1.34 -0.18,0.77 0.01,0.87 0.31,1.52 0.08,0.78 0.21,1 1.62,3.16 1.82,1.98 4.73,2.66 2,1.76 0.99,1.15 0.29,0.59 0.03,0.75 -0.38,0.66 -1.17,0.46 -0.24,0.54 0.22,0.7 0.49,0.51 0.49,0.4 0.22,0.4 -0.03,0.55 -0.46,2.14 -0.18,2.23 -0.27,0.71 -1.49,1.02 -0.26,0.22 -0.22,0.36 -0.49,0.53 -0.49,0.71 -0.22,0.85 0.34,0.52 0.79,0.13 0.9,-0.01 0.66,0.12 1.2,1.45 0.3,1.78 0.12,1.89 0.65,1.79 1.3,-0.46 1.08,0.7 0.52,1.24 -0.43,1.17 -0.41,0.64 -0.08,0.74 0.29,0.61 0.65,0.26 2.34,-0.15 0.61,0.15 1.02,1.38 -0.6,1.41 -1.15,1.41 -0.53,1.21 -1.19,1.37 -0.25,0.38 -0.06,0.3 -0.03,0.43 0.09,0.92 0.19,0.61 0.28,0.53 1.26,1.39 0.51,0.75 0.71,1.34 0.25,0.93 0.38,4.46 0.51,2.13 0.71,5.13 0.31,1.02 0.74,1.82 -0.1,0.7 -0.59,2.31 -0.3,2.96 0.05,1.45 0.25,0.96 0.47,0.9 0.48,0.91 0.88,0.55 1.03,0.9 0.45,1.15 -1.41,2.89 -0.3,1.37 -0.37,1.13 -1.01,0.75 -0.76,0.04 -0.57,-0.25 -0.58,-0.14 -0.77,0.35 -0.22,0.51 -0.99,4.13 -3.38,4.68 0.01,0.42 0.55,0.66 0.58,0.07 0.57,-0.39 0.43,-0.04 0.17,1.13 -0.15,0.81 -0.22,0.66 0.02,0.67 0.57,0.82 0.76,0.85 0.24,0.61 -0.31,0.44 -0.91,0.35 -1.4,-0.19 -1.78,-0.46 -1.54,0.17 -0.66,1.71 -3.17,4.25 -0.68,0.53 -0.79,0.47 -0.77,0.35 -0.65,0.13 -0.55,0.31 -1.22,1.36 -0.49,0.31 -2.15,0 -1.88,0 -1.84,-0.4 -0.79,0.16 -0.32,0.98 -0.24,1.84 -0.6,1.99 -0.86,1.89 -0.99,1.5 -0.9,0.88 -0.82,0.42 -1.86,0.59 -0.98,0.56 -0.74,0.68 -1.41,1.76 -1.99,-1.37 -1.28,-1.8 -2.11,-4.73 -0.79,-0.94 -2.05,-1.01 -0.99,-0.74 -2.89,-3.4 -0.93,-0.83 -1.3,-0.48 -5.2,-0.02 -0.92,-0.3 -0.4,-0.74 -0.25,-0.82 -0.44,-0.61 -0.62,-0.13 -1.46,0.19 -0.65,-0.06 -4.56,-2.31 -0.82,0.04 -0.65,-1.09 -5.91,-4.1 -1.21,0.04 -1.09,0.81 -1.85,1.94 -0.79,0.58 -0.83,0.42 -0.74,0.12 -0.83,-0.25 -0.35,-0.41 -0.2,-0.57 -0.41,-0.7 -4.21,-4.74 -1.56,-2.19 -0.8,-0.8 -1.49,-0.75 -14.48,-2.84 -0.34,-0.34 -0.16,-0.58 -0.41,-0.3 -0.52,-0.24 -0.47,-0.37 -0.94,-0.28 -3.34,-0.09 -1.36,-0.35 -12.58,-9.57 -2.08,-0.52 -0.64,-0.47 -1.31,-1.31 -0.64,-0.4 -0.4,-0.08 -1.24,-0.02 -1.3,-0.47 -2.45,-1.63 -1.54,-0.54 -1.88,-1.34 -2.73,-0.94 -0.62,-0.5 -0.36,-0.49 -0.49,-0.38 -0.99,-0.15 -0.62,-0.23 -0.85,-1.02 -2.16,-0.8 -1.08,-1.34 -1.33,-2.56 -0.62,-0.7 -2.55,-2.25 -1.59,-0.73 -0.23,-0.57 -0.16,-0.65 -0.23,-0.5 -0.4,-0.36 -1.43,-0.63 -1.49,-0.87 -0.71,-0.55 -0.71,-0.79 -0.52,-0.38 -1.21,-0.25 -1.12,-0.68 -1.64,-0.22 -0.66,-0.23 -0.47,-0.44 -1.16,-1.59 -2.51,-2.59 -23.61,-15.7 -1.19,-0.29 -1.35,0.14 -3.08,1.1 -1.57,0.36 -4.91,0.16 -5.14,-0.79 -2.07,0.11 -0.61,-0.11 -0.7,-0.4 -1.29,-1.16 -0.7,-0.44 -0.6,-0.1 -2.33,0.1 -4.06,-0.8 -2.15,-1.56 -1.2,-0.58 -2.35,-0.11 -0.38,-0.14 -1.05,-2.29 -0.07,-0.41 -0.6,-0.13 -1.14,-0.64 -0.72,-0.25 -0.76,-0.07 -3.01,0.17 -0.64,-0.17 -1.34,-1.17 -0.62,-0.2 -3.84,0.09 0,-0.01 -0.32,-9.2 0.05,-0.48 0.2,-0.46 0.86,-1.51 0.25,-0.82 0.45,-2.55 0.37,-0.63 0.59,-0.61 1.09,-0.57 0.9,-0.29 4.72,-0.77 2.34,-1.01 2.05,-1.13 0.89,-0.37 0.9,-0.19 21.24,-1.19 2.29,-0.44 1.55,-0.61 6.53,-3.52 0.52,-0.35 0.03,-0.05 0.61,-6.36 0.6,-2.8 0.82,-2.56 2.96,-6.04 0.72,-2.08 0.21,-1.21 -0.19,-0.79 -0.54,-1.28 -0.14,-0.5 -0.02,-0.47 1.79,-4.86 0.34,-1.47 0.14,-1.18 -0.47,-3.38 0.15,-3.26 -0.25,-3.59 0.13,-0.82 0.61,-2.25 0.16,-0.94 0,-1.83 0.22,-1.15 0.62,-1.4 12.69,-18.97 0.41,-0.89 0.13,-1.09 -0.01,-0.29 -0.4,-3.29 0.12,-0.81 0.4,-0.59 0.97,-0.5 1.07,-0.17 3.77,-0.01 0.99,-0.22 0.72,-0.44 0.47,-0.93 0.08,-0.54 -0.1,-0.45 -0.85,-1.69 -0.15,-0.56 -0.02,-0.54 0.1,-0.73 0.13,-0.4 0.35,-0.79 0.55,-0.78 0.88,-0.84 6.74,-4.08 0.93,-0.34 0.89,-0.22 0.68,0.35 0.51,0.37 0.61,0.59 0.51,0.38 0.54,0.32 0.43,0.13 0.35,-0.03 1.57,-0.75 4.07,-2.52 0.99,-0.88 0.22,-0.41 -0.19,-0.96 -2.31,-7.01 7.36,4.1 2.47,1.01 1.55,0.41 1.06,0.08 z" 
                fill="rgb(151, 144, 238)" 
                stroke="white" 
                stroke-width=".7px"
                title="Presidente Hayes" 
                id="PY-15" 
            />
        </svg>