<svg xmlns="http://www.w3.org/2000/svg" viewBox="340.8102500000006 283.3704000000003 112.08999999999969 124.50000000000006" width="112.08999999999969" height="124.50000000000006">
            <path 
                d="m 430.55025,305.3004 0,0 0.34,-0.01 0.36,-0.19 1.01,-0.84 0.46,-0.31 0.73,-0.37 0.36,-0.24 0.23,-0.34 0.16,-0.46 0.08,-0.62 -0.03,-1.04 0.07,-0.38 0.27,-0.22 0.58,-0.25 4.01,-0.8 0.9,-0.03 0.66,0.1 0.17,0.27 0.01,0.34 -0.15,0.82 -0.06,0.92 0.24,2.64 -0.05,0.42 -0.09,0.39 -0.44,1.04 -0.4,0.58 -0.7,0.77 -1.46,1.96 -0.13,0.31 0.03,0.35 0.32,1.11 0.19,1.74 -0.02,1.84 -0.05,0.44 -0.1,0.39 -0.28,0.71 -1.14,2.16 -0.35,1.2 -0.12,0.25 -0.15,0.15 -2.21,1.64 -0.61,0.27 -0.51,0.09 4.04,10.86 0.34,1.64 -0.12,0.51 -0.41,-0.1 -0.16,-0.01 -0.29,0.01 -0.27,0.12 -0.29,0.17 -0.99,0.98 -0.83,1.14 -1.49,1.46 -0.84,1.12 -0.27,0.23 -0.33,0.15 -1.6,0.36 -0.33,0.17 -0.29,0.19 -0.28,0.22 -1.28,1.74 -0.2,0.36 -0.3,1.1 0.06,1.6 -0.39,3.36 0,1.38 0.13,0.91 1.41,1.23 0.36,0.4 0.27,0.67 0.17,0.81 0.28,2.34 0.28,1.12 0.35,0.87 0.37,0.69 0.45,0.57 0.55,0.54 0.54,0.38 0.6,0.3 1.23,0.42 0.5,0.25 0.38,0.36 0.31,0.44 1.36,3.17 3.47,4.88 1.41,2.9 0.95,3 0.69,1.57 0.74,1.01 1.93,1.23 1.1,0.92 1.27,1.36 0.58,1.67 0.48,1.04 0.42,0.76 0.66,0.57 3.5,2.1 -7.74,2.08 -5.28,2.2 -1.35,1.1 -0.96,1.18 -2.88,5.74 -0.57,0.84 -0.56,0.51 -0.57,-0.26 -3.05,-2.87 -2.24,-2.55 -0.43,-0.35 -0.41,-0.24 -3.01,-1.15 -0.66,-0.46 -0.46,-0.49 -0.18,-0.53 -0.05,-0.59 0.06,-0.53 0.26,-1.11 -0.05,-0.77 -0.28,-0.88 -0.84,-0.76 -0.59,-0.06 -0.71,0.38 -0.63,0.66 -0.54,0.75 -0.44,0.89 -0.32,0.87 -0.6,0.99 -0.86,0.89 -2.84,1.68 -0.7,0.62 -0.39,0.72 -0.3,0.75 -0.49,0.83 -0.65,0.68 -2,1.11 -0.69,0.47 -4.78,4.95 -2.45,-1.1 -0.31,-0.27 -0.33,-0.21 -2.42,-2.76 -1.13,-0.76 -6.13,-2.48 -1.02,-0.13 -4.42,0.52 -3.59,1.04 -10.36,1.95 -0.89,0.29 -0.51,0.27 -0.6,0.39 -0.21,0.25 -0.12,0.25 -0.08,0.42 -0.02,0.38 0.02,0.26 0.11,0.47 0.01,0.28 -0.04,0.31 -0.12,0.36 -0.36,0.43 -0.72,0.51 -1.31,0.47 -1.2,0.1 -1.22,-0.13 -2.25,-0.66 -4.28,-1.98 -1.2,-0.84 0.91,-0.35 0.31,-0.44 -0.24,-0.61 -0.76,-0.85 -0.57,-0.82 -0.02,-0.67 0.22,-0.66 0.15,-0.81 -0.17,-1.13 -0.43,0.04 -0.57,0.39 -0.58,-0.07 -0.55,-0.66 -0.01,-0.42 3.38,-4.68 0.99,-4.13 0.22,-0.51 0.77,-0.35 0.58,0.14 0.57,0.25 0.76,-0.04 1.01,-0.75 0.37,-1.13 0.3,-1.37 1.41,-2.89 -0.45,-1.15 -1.03,-0.9 -0.88,-0.55 -0.48,-0.91 -0.47,-0.9 -0.25,-0.96 -0.05,-1.45 0.3,-2.96 0.59,-2.31 0.1,-0.7 -0.74,-1.82 -0.31,-1.02 -0.71,-5.13 -0.51,-2.13 -0.38,-4.46 -0.25,-0.93 -0.71,-1.34 -0.51,-0.75 -1.26,-1.39 -0.28,-0.53 -0.19,-0.61 -0.09,-0.92 0.03,-0.43 0.06,-0.3 0.25,-0.38 1.19,-1.37 0.53,-1.21 1.15,-1.41 0.6,-1.41 -1.02,-1.38 -0.61,-0.15 -2.34,0.15 -0.65,-0.26 -0.29,-0.61 0.08,-0.74 0.41,-0.64 0.43,-1.17 -0.52,-1.24 -1.08,-0.7 -1.3,0.46 -0.65,-1.79 -0.12,-1.89 -0.3,-1.78 -1.2,-1.45 -0.66,-0.12 -0.9,0.01 -0.79,-0.13 -0.34,-0.52 0.22,-0.85 0.49,-0.71 0.49,-0.53 0.22,-0.36 0.26,-0.22 1.49,-1.02 0.27,-0.71 0.18,-2.23 0.46,-2.14 0.03,-0.55 -0.22,-0.4 -0.49,-0.4 -0.49,-0.51 -0.22,-0.7 0.24,-0.54 1.17,-0.46 0.38,-0.66 -0.03,-0.75 -0.29,-0.59 -0.99,-1.15 -2,-1.76 -4.73,-2.66 -1.82,-1.98 -1.62,-3.16 -0.21,-1 -0.08,-0.78 -0.31,-1.52 -0.01,-0.87 0.18,-0.77 0.58,-1.34 0.13,-0.82 1.69,0.23 0.79,0.33 0.31,0.18 0.34,0.15 1.68,0.94 0.31,0.11 0.72,0.18 0.44,0.04 4.36,-0.32 0.16,0.04 0.49,-0.04 0.71,-0.15 1.32,-0.51 1.11,-0.61 0.5,-0.17 0.68,-0.08 3.06,0.03 4.69,-0.74 2.9,-0.93 0.47,-0.28 0.26,-0.23 0.3,-0.2 0.39,-0.14 0.48,-0.06 0.67,0.08 0.51,0.12 0.52,0.18 0.42,0.02 0.49,-0.1 1.27,-0.59 0.9,-0.22 0.7,-0.1 1.66,0.11 0.56,-0.05 0.42,-0.13 0.42,-0.31 0.57,-0.53 0.43,-0.16 0.57,-0.06 1.59,0.19 3.3,0.78 3.81,-0.21 0.94,0.04 0.67,0.11 1.57,0.87 0.64,0.06 0.87,0 1.71,-0.19 0.8,0.07 0.54,0.15 0.44,0.51 0.6,0.07 0.99,-0.11 2.09,-0.48 0.95,-0.1 0.63,0 0.46,-0.17 2.92,-1.49 2.62,-0.71 0.58,0.02 0.42,0.08 0.4,0.03 0.49,-0.06 1.56,-0.8 0.88,-0.85 0.89,-0.68 0.53,-0.91 0.82,-1 2.13,-0.89 0.69,0.5 0.28,-0.09 0.54,-0.27 0.73,-0.54 1.53,-0.82 1.24,-0.33 1.37,-0.21 0.73,-0.18 0.6,-0.32 0.33,-0.05 1.04,0.32 0.86,0.15 2.77,0.15 0.94,0.26 0.57,0.33 0.52,0.48 0.31,0.49 0.14,0.47 -0.02,0.41 -0.16,0.46 -0.33,0.71 -0.1,0.39 0.09,0.35 0.3,0.45 1.11,0.97 0.25,0.29 0.27,0.45 0.21,0.5 0.1,0.4 0.02,0.26 -0.08,0.38 -0.15,0.38 -0.44,0.65 -0.55,0.64 -5.42,4.49 -0.23,0.36 0.01,0.49 0.16,0.62 0.33,0.94 0.53,1.2 1.17,2.1 0.82,0.91 0.66,0.48 z" 
                fill="rgb(151, 144, 238)" 
                stroke="white" 
                stroke-width=".7px"
                title="San Pedro" 
                id="PY-2" 
            />
        </svg>