<svg xmlns="http://www.w3.org/2000/svg" viewBox="262.1902500000001 463.62039999999945 95.9299999999999 119.0500000000003" width="95.9299999999999" height="119.0500000000003">
            <path 
                d="m 322.60025,464.2204 0,0 0.4,-0.04 1.39,-0.32 0.41,-0.01 0.44,0.21 0.52,0.45 0.88,1.19 0.89,0.96 1.44,1.27 1.54,0.99 1.73,1.49 0.69,0.39 1.33,0.59 0.28,0.33 0.22,0.45 0.1,0.77 0.19,0.63 0.37,0.72 1.65,2.18 0.87,2.06 1.82,10.65 -0.08,0.75 -0.28,0.53 -8.72,8.75 -2.53,4.95 -0.77,1.14 -1.4,1.09 -1.29,1.49 4.64,27.02 0.4,1.29 0.59,1.44 5.44,7.77 7.54,8.88 0.49,0.26 11.95,1.83 1.87,0.54 0.51,1.15 -0.41,2.82 -5.85,16.79 -1.2,4.91 -0.03,0.09 -1.07,-1.06 -0.58,-0.39 -1.39,-0.38 -0.26,-0.07 -1.73,0 -6.62,0.96 -1.69,-0.17 -0.43,-0.15 -1.03,-0.36 -10.63,-5.44 -0.03,-0.01 -0.73,-0.27 -6.71,-1.41 -0.02,-0.01 -2.81,-0.96 -0.02,0 -2.91,-0.63 -0.91,-0.2 -2.01,-0.86 -0.02,-0.01 -3.89,-0.83 -1.2,-0.25 -0.01,0 -2.07,-0.06 -3.96,0.73 -0.97,0.05 -7.18,-0.93 -17.88,1.58 -5.86,2.55 -0.26,0.24 0,-0.05 0.28,-3.65 -0.11,-1.51 -0.82,-1.4 -1.62,-1.22 -0.89,-0.89 -0.4,-0.95 0.34,-2.13 0.94,-1.5 1.49,-0.89 3.32,-0.58 0.33,-0.77 -0.12,-1.14 0.01,-1.32 0.16,-0.65 0.22,-0.58 0.31,-0.54 0.41,-0.52 0.6,-0.35 0.02,-0.01 0.36,0.32 0.16,0.53 0,0.29 0.07,0.19 0.46,0.31 0.01,0.01 0.54,0.12 0.26,-0.38 0.06,-1.22 0.12,-0.51 0.23,-0.58 0.59,-1.03 1.17,-1.44 0.52,-1.04 -0.98,-0.89 -0.14,-0.98 0.54,-0.93 1.03,-0.72 2.9,-0.78 1.42,-0.58 0.6,-0.93 0.66,-0.7 1.53,-0.12 1.47,-0.13 0.86,-0.73 -0.41,-1.28 -1.2,-0.9 -0.79,-1.03 0.81,-1.61 1.1,-0.35 1.17,0.39 1.11,0.17 0.9,-0.96 -0.24,-0.6 -0.53,-0.85 -0.09,-0.74 1.08,-0.32 0.8,0.02 0.49,-0.09 0.25,-0.38 0.18,-5.72 0.3,-1.39 0.34,-0.84 0.21,-0.09 0.34,0.25 2.06,0.4 0.78,-0.05 0.34,-0.45 -0.18,-0.67 -0.38,-0.58 -0.32,-0.66 -0.02,-0.86 0.25,-0.23 1.12,-0.82 0.43,-0.46 -0.37,-0.4 -0.58,-1.04 -0.4,-0.56 -1.48,-1.09 -0.35,-0.41 -0.26,-1.25 0.21,-1.11 0.36,-1.14 0.18,-1.28 0.21,-0.57 0.92,-0.7 0.21,-0.76 -1.58,-1.5 -0.23,-0.92 0.45,-1.16 2.2,-3.92 0.33,-1.04 0.18,-1.2 -0.34,-2.35 0.01,-1.18 0.53,-0.52 1.04,-0.23 1.49,-0.63 1.13,-0.88 -0.04,-0.98 -0.96,-0.69 -1.04,-0.53 -0.77,-0.74 -0.16,-1.3 0.67,0.24 0.52,0.31 0.36,0.41 0.24,0.53 0.58,-0.8 0.58,-1.51 0.63,-2.45 0.67,-0.7 4.26,-1.57 2.19,-1.25 7.57,-5.71 0.86,-1.17 0,-0.98 -3.03,-0.89 0.5,-1.1 2.29,-1.9 0.41,-0.56 0.37,-0.84 -0.06,-0.76 -1.51,-0.56 -0.19,-0.52 0.19,-0.51 1.39,-0.53 1.37,-0.73 0.89,-0.66 0.22,0.11 1.58,0.35 0.34,-0.12 0.36,-0.23 0.08,-0.31 0.02,-0.51 -0.08,-1.23 0.05,-0.6 0.16,-0.32 0.26,-0.23 0.31,-0.06 0.34,0.04 1.31,0.49 0.45,0.07 z" 
                fill="rgb(151, 144, 238)" 
                stroke="white" 
                stroke-width=".7px"
                title="Ñeembucú" 
                id="PY-12" 
            />
        </svg>