<svg xmlns="http://www.w3.org/2000/svg" viewBox="56.64075999999997 0.2513000000000363 195.03000000000006 117.02999999999997" width="195.03000000000006" height="117.02999999999997">
            <path 
                d="m 157.54076,1.6413 0,0 3.82,-0.66 3.89,-0.11 3.7,2.58 1.91,3.22 0.98,1.23 6.39,4.4 3.18,1.53 1.74,1.19 1.54,1.5 0.94,1.61 0.34,2.4 -0.32,1.24 0.11,0.78 1.64,1.03 1.04,0.27 0.99,-0.03 1,0.14 1.11,0.7 0.55,0.66 0.91,1.49 3.8,4.37 1.28,1.03 1.72,1.59 5.46,3.5 1.71,1.76 2.48,4.21 1.49,2 1.37,1.21 4.73,2.67 6.01,5.1 3.37,1.7 2.05,1.97 3.24,3.89 0.58,1.31 0.28,1.25 0.44,1.16 1.15,0.98 1.98,1.29 0.89,0.85 0.68,1 3.4,6.66 1.54,1.94 6.72,5.48 1.65,3.29 0.65,3.59 -0.5,3.54 -1.8,3.25 -0.42,2.6 -0.09,7.84 -0.62,5.47 0.02,2.59 0.53,0.85 -0.09,-0.07 -3.83,-2.99 -0.81,-0.83 -1.03,-1.43 -0.76,-0.86 -2.62,-2.25 -1.18,-1.41 -1.54,-2.5 -0.73,-0.91 -2.11,-1.83 -1.68,-1.03 -0.67,-0.26 -16.29,-3.6 -5.7,-2.09 -0.82,-0.2 -1.02,-0.15 -1.86,0.19 -1.02,0.24 -0.73,0.36 -0.39,0.44 -0.36,0.48 -0.59,1.1 -0.75,1.79 -0.61,1.08 -0.37,0.48 -0.88,0.75 -0.46,0.26 -2.31,0.96 -1.02,0.61 -0.44,0.38 -1.47,1.84 -0.44,0.37 -0.51,0.31 -1.2,0.39 -3.43,0.45 -1.17,0.4 -0.96,0.6 -6.02,5.06 -0.94,0.5 -1.12,0.46 -1.27,0.3 -4.93,0.47 -2.44,0.69 -1.46,-0.07 -11.64,-2.12 -2.46,-0.14 -6.75,0.85 -0.68,0.26 -0.99,0.54 -2.77,2.12 -0.55,0.25 -0.61,0.19 -0.67,0.1 -1.03,-0.09 -6.17,-1.85 -2.48,-1.32 -1.95,-1.39 -4.72,-4.72 -0.05,-0.04 -1.53,-1.28 -0.8,-0.48 -4.89,-1.59 -13.58,-7.25 -3.38,-2.41 -0.62,-0.61 -1.68,-1.3 -0.83,-0.35 -1.1,-0.31 -2.1,-0.29 -3.63,0.01 -0.91,-0.17 -0.95,-0.33 -1.23,-0.79 -0.68,-0.58 -0.5,-0.55 -1.7,-2.37 -0.77,-0.87 -1.72,-1.58 -6.66,-5.02 -1.41,-0.83 -1.11,-0.36 -2.81,-0.32 -1.03,0.04 -0.71,0.5 -0.53,0.46 -2.46,3.67 -0.01,0.01 -0.25,-2.17 -0.7,-3.1 -0.94,-4.21 -0.86,-2.67 -2.29,-4.98 -1.51,-2.3 -2.31,-4.62 -0.41,-4.66 1.3,-4.28 2.82,-3.52 20.2,-18.58 2.22,-3.81 0.76,-4.63 -1.46,-5.11 -0.46,-2.61 0.87,-1.13 2.28,-0.07 2.55,2.5 1.99,6.21 3.23,2.15 2.57,0.27 4.49,-0.81 2.47,-0.05 1.37,0.71 1.53,2.41 1.6,0.41 1.01,-0.51 2.34,-2.1 1.31,-0.62 2,0.08 1.29,0.85 1.11,1.01 1.49,0.6 0.8,-0.31 1.27,-1.55 0.6,-0.3 0.82,0.41 1.27,1.4 0.51,0.35 3.33,-0.71 2.97,-2.36 2.04,-3.35 0.56,-3.73 0.77,-3.04 2.18,-3.83 2.8,-3.43 2.58,-1.79 1.02,0.09 1.92,0.92 1.09,0.01 2.01,-1.05 0.72,-0.27 3.76,-0.71 2.06,-0.08 4.94,1.39 z" 
                fill="rgb(151, 144, 238)" 
                stroke="white" 
                stroke-width=".7px"
                title="Artigas" 
                id="UY-AR" 
            />
        </svg>