<svg xmlns="http://www.w3.org/2000/svg" viewBox="202.12075999999993 498.64129999999966 112.67000000000004 84.47000000000048" width="112.67000000000004" height="84.47000000000048">
            <path 
                d="m 304.58076,550.1613 0,0 1.55,3.53 1.08,1.33 1.52,1.18 1.26,1.21 0.51,0.89 0.22,0.87 -0.53,3.07 -0.06,0.86 0.07,1.04 0.3,0.67 0.38,0.53 0.76,0.8 2.02,3 0.87,1.69 0.19,0.95 0.07,0.96 -0.32,-0.17 -2.56,-0.19 -6.81,-0.57 -4.25,0.46 -5.28,-1.4 -4.17,-1.93 -4.61,1.08 -4.8,-2.04 -6.47,2.24 -3.64,-1.07 -6.85,2.37 -3.11,1.3 -6.7,4.49 -5.1,3.71 -3.52,2.09 -0.75,-1.15 -0.37,-1.24 -0.35,-2.34 -0.01,-2.38 0.09,-0.8 0.13,-0.68 1.08,-2.57 0.4,-1.36 0.04,-0.76 -0.31,-0.6 -0.62,-0.36 -1.37,0.06 -0.86,0.21 -0.86,0.08 -0.74,-0.15 -0.87,-0.69 -0.43,-0.6 -0.31,-0.53 -0.22,-0.26 -0.44,-0.3 -0.58,-0.22 -0.55,-0.34 -0.47,-0.39 -0.6,-1.14 -0.23,-0.57 -0.45,-0.86 -0.57,-0.17 -0.94,-0.02 -2.04,0.66 -0.98,0.56 -0.68,0.63 -0.71,1.09 -0.39,0.49 -0.43,0.43 -0.48,0.37 -0.54,0.29 -1.07,0.41 -0.57,-0.08 -0.87,-0.23 -1.45,-0.79 -0.65,-0.47 -0.45,-0.47 -1.2,-2.06 -0.36,-0.48 -0.82,-0.9 -0.58,-0.37 -0.74,-0.29 -1.11,-0.18 -0.88,-0.02 -1.87,0.56 -3.39,2.02 -0.75,-1.23 -1.56,-1.87 -3.68,-3.24 -3.32,-1.96 -0.48,-0.39 -0.35,-0.65 -0.21,-0.9 -0.15,-3.42 -0.56,-3.48 0.12,-0.85 0.32,-0.84 0.74,-0.95 0.67,-0.47 1.23,-0.6 0.49,-0.34 0.45,-0.4 0.38,-0.49 0.68,-1.09 0.77,-0.97 1.73,-1.67 0.23,-0.78 -0.01,-1 -0.48,-1.69 -0.38,-0.85 -0.35,-0.61 -0.07,-0.54 0.01,-0.91 0.66,-2.99 0.05,-2.34 1.79,-6.31 1.04,-1.91 1.04,-0.64 1.33,-0.55 1.72,-0.44 3.07,-0.22 1.5,0.06 1.02,0.17 1.17,0.4 4.53,2.54 1.19,0.13 1.72,-0.12 5.1,-1.13 1.05,-0.49 0.78,-0.98 0.9,-1.73 1.32,-4.01 0.28,-0.61 0.63,-0.72 0.97,-0.82 9.17,-6.06 0.99,-0.1 1.37,0.1 2.12,0.63 5.42,2.67 0.84,0.16 1.19,0.03 2.32,-0.31 1.17,-0.32 0.88,-0.34 6.97,-4.29 2.83,-0.96 12.84,-1.82 2.79,11.25 1.37,4.06 4.27,8.01 0.39,1.15 0.15,1.05 -0.08,0.8 -1.23,6.18 -0.07,1.09 0.09,2.72 0.23,0.51 0.56,0.97 4.24,5.2 1.69,3.24 0.57,1.82 -0.01,3.47 z" 
                fill="rgb(151, 144, 238)" 
                stroke="white" 
                stroke-width=".7px"
                title="Canelones" 
                id="UY-CA" 
            />
        </svg>