<svg xmlns="http://www.w3.org/2000/svg" viewBox="317.77075999999994 187.65130000000036 229.20999999999987 165.25999999999985" width="229.20999999999987" height="165.25999999999985">
            <path 
                d="m 440.74076,217.3013 0,0 1.15,-0.11 0.98,-1.27 1.87,-1.76 1.93,-0.7 2.02,0.22 1.95,0.87 1.76,1.32 0.61,0.82 0.92,1.78 0.92,0.84 1.01,0.39 3.38,0.33 1.77,0.54 1.47,0.68 2.93,2.02 1.2,1.31 0.45,1.24 0.25,1.23 0.6,1.3 1.06,1.23 1.34,1.18 2.84,1.85 6.01,1.28 1.49,0.97 0.61,1.66 0.14,4.27 2.93,7.08 5.22,7.75 1.23,3.39 0.69,4.12 0.33,6.11 0.49,2.06 0.93,1.6 2.62,2.32 1.06,1.47 1.74,3.14 2.12,2.89 2.43,2.51 6.46,4.63 6.06,6.8 5.8,1.97 4.42,2.73 1.73,0.54 3.31,0.03 3.4,2.1 3.31,1.53 1.58,1.16 6.8,7.4 0.92,1.83 -0.33,2.21 -1.31,1.74 -3.72,2.92 -2.03,2.58 -0.05,-0.01 -12.36,-2.6 -2.56,-0.31 -0.83,0.08 -1.03,0.21 -1.69,1.03 -0.82,0.27 -0.89,0.06 -1.34,-0.17 -0.82,-0.27 -0.65,-0.36 -1.35,-1.17 -0.79,-0.24 -1.12,-0.09 -1.95,0.13 -1.03,-0.17 -0.69,-0.33 -0.7,-0.96 -0.41,-0.44 -0.47,-0.35 -0.47,-0.24 -0.51,-0.13 -11.04,1.33 -2.46,-0.1 -3.66,-0.68 -17.12,1.37 -1.03,-0.1 -0.82,-0.19 -0.58,-0.28 -1.06,-0.67 -6.51,-5.32 -1.06,-0.62 -0.63,-0.25 -0.93,0.04 -1.17,0.29 -2.85,1.66 -0.52,0.42 -0.67,0.8 -2.22,1.98 -0.37,0.46 -0.29,0.53 -0.09,0.63 0.13,0.59 0.24,0.56 0.6,1.05 0.26,0.58 0.15,0.63 -0.25,0.65 -0.59,0.48 -1.42,0.1 -0.83,-0.21 -0.68,-0.32 -0.46,-0.39 -5.56,-3.8 -0.56,-0.27 -0.62,-0.19 -0.69,-0.03 -2.17,0.16 -0.77,-0.03 -0.73,-0.11 -0.68,-0.19 -0.53,-0.32 -0.98,-0.7 -0.6,-0.27 -2.87,-0.34 -2.11,-0.72 -3.89,-0.52 -0.66,-0.2 -0.57,-0.28 -0.48,-0.36 -0.86,-0.82 -0.49,-0.36 -1.02,0.1 -1.52,0.62 -5.09,2.88 -2.13,0.67 -5.75,0.39 -1.45,-0.22 -0.74,0.07 -0.66,0.36 -0.6,1 -0.52,1.57 -0.26,0.6 -0.54,0.51 -0.77,0.4 -1.48,0.24 -0.91,-0.1 -0.76,-0.18 -0.64,0 -0.57,0.3 -0.52,0.7 -0.71,1.23 -0.72,0.98 -0.6,0.49 -0.83,0.36 -1.56,0.31 -0.99,-0.04 -0.85,-0.14 -1.86,-0.75 -1.4,-0.33 -1.38,-0.04 -0.93,0.16 -4.76,1.97 -1.63,0.35 -3.32,-0.03 -2.89,0.3 -1.3,0.33 -6.03,3.1 -1.76,1.52 -1.59,1.78 -0.89,0.77 -0.53,0.31 -3.51,1.43 -1.21,0.88 -0.81,0.84 -0.63,0.49 -2.28,1.33 -0.54,0.43 -0.64,0.76 -0.53,0.87 -0.36,0.74 -0.07,0.89 0.22,1.04 1.49,2.6 0.16,0.84 -0.02,2.22 -5.28,-0.77 -7.36,0.3 -1.62,-0.13 -1.08,-0.29 -0.4,-0.43 -1.15,-1.69 -0.02,-0.03 -0.02,-0.03 -0.27,-0.3 -9.77,-6.3 -1.35,-1.19 -1.93,-2.25 -1.13,-1.97 -0.51,-1.32 -0.24,-1.32 0.03,-0.75 0.58,-2.89 0.16,-2.32 -0.06,-0.7 -0.16,-0.63 -0.4,-0.81 -1.72,-2.61 -0.47,-1.01 -0.18,-0.91 0.17,-0.63 0.28,-0.54 0.45,-0.39 0.55,-0.27 1.35,-0.26 0.55,-0.25 0.37,-0.46 0.18,-0.65 0.01,-0.7 -0.14,-0.74 -2.64,-6.19 -0.18,-0.71 0.02,-1.47 0.37,-1.34 1.38,-3.84 1.47,-6.4 0.1,-1.51 -0.05,-1.47 -0.47,-2.65 -2.09,-3.98 9.11,-4.25 3.54,-0.22 6.68,2.66 3.5,0.74 3.6,-0.54 3.16,-1.46 2.7,-2.09 2.17,-2.48 2.08,-3.55 1.57,-1.6 3.65,-1.1 0.85,-1.08 0.71,-1.37 0.94,-1.26 1.05,-0.73 2.15,-1.02 1,-0.73 1.69,-2.21 2.18,-4.99 1.45,-2.44 0.41,-1.33 -0.42,-1.36 -0.68,-1.34 -0.36,-1.32 0.16,-1.15 0.38,-1.21 0.86,-1.78 2.37,-2.68 0.82,-1.64 0.32,-2.79 1.12,-1.26 2.52,0.87 4.12,2.46 1.53,-0.18 2.21,-0.61 2.17,-0.58 2.15,-0.29 2.36,-0.73 1.48,-1.8 0.35,-2.17 -1.04,-1.91 1.03,-1.46 2.61,-2.04 0.63,-1.54 -0.36,-2.02 -1.29,-0.51 -1.7,-0.27 -1.62,-1.32 3.51,-5.03 1.26,-3.54 1.42,-2.62 2.47,-6.09 0.51,-2.15 -0.49,-2.92 -1.79,-5.34 0.12,-2.91 0.54,-1.16 0.92,-1.36 0.99,-1.12 0.73,-0.47 0.32,-0.49 1.4,-2.88 0.5,-0.66 0.04,-0.04 0.36,0.92 2.79,2.7 3.37,2.46 3.1,2.93 3.13,3.66 7.05,6.53 5.69,4.02 5.05,4.74 2.39,1.69 z" 
                fill="rgb(151, 144, 238)" 
                stroke="white" 
                stroke-width=".7px"
                title="Cerro Largo" 
                id="UY-CL" 
            />
        </svg>