<svg xmlns="http://www.w3.org/2000/svg" viewBox="2.690760000000044 445.4613000000003 151.22 86.40999999999985" width="151.22" height="86.40999999999985">
            <path 
                d="m 47.78076,456.2013 0,0 1.83,-0.07 3.07,-0.56 8.02,0.25 1.03,0.29 1.4,0.72 0.74,0.57 0.55,0.54 0.21,0.34 0.17,0.23 -0.14,-0.15 0.67,0.84 0.48,0.46 1,0.73 14,4.86 2.89,0.24 6.2,-0.61 17.69,-4.83 1.89,0.53 2.21,1.03 1.94,1.17 1.75,1.66 1.94,1.51 0.56,0.31 2.9,0.39 8.48,-0.01 10.7,1.68 1.37,3.03 0.86,3.69 0.46,1.08 0.49,0.75 0.52,0.35 1.74,0.89 0.73,0.56 3.34,3.98 3.79,6.04 0.58,1.31 0.07,0.81 -0.02,0.38 -0.12,0.35 -0.21,0.31 -0.71,0.87 -4.56,3.72 -0.46,0.3 -0.76,0.38 -4.38,1.27 -1.63,0.89 -2.46,1.78 -0.47,0.64 -0.4,0.91 -0.41,1.64 -0.05,1.02 0.12,0.82 0.27,0.57 0.32,0.53 2.03,2.41 0.41,0.7 -0.06,0.86 -0.75,2.57 -0.51,0.97 -0.62,0.75 -0.57,1.33 -0.12,1.37 0.09,2.4 -0.13,1.17 -0.29,0.85 -0.4,0.46 -6.31,5.5 -3.66,-0.77 -9.13,-0.22 -5.62,0.39 -1.88,-1.62 -4.74,0.13 -2.62,1.63 -1.25,-1.62 -2.62,-0.25 -2.87,1.37 -3.62,1.62 -3.24,-3.37 -2.61,-0.13 -3,0.62 -4.12,1.87 -5.74,2.23 -1.87,-0.26 -2.63,1.62 -2.99,-0.26 -3,0.36 -3.37,-0.52 1,-0.99 -0.86,-1.88 -2.87,-0.89 -1.87,-3.01 0.27,-5 -2.58,-2.81 -2.05,-3.41 -7.61,-9.09 -3.38,-1.62 -1.19,-1.9 -1.6,-4.06 -1.8,-1.76 -2.55,-1.07 -2.72,-0.5 -2.38,-0.14 -2.78,-0.57 -1.29,-1.46 -1.19,-4.66 -1.18,-2.63 -8.68,-12.67 -1.88,-1.63 -3.86,-2.35 -1.68,-1.51 -1.43,-2.39 -0.75,-2.54 -0.57,-3.29 0.01,0 0.05,-0.01 3.28,-0.59 1.43,-0.42 9.24,-3.88 9.58,-6.67 1.65,-0.49 1.77,0.21 11.57,3 0.55,0.57 0.64,0.85 0.28,0.52 0.51,1.15 0.38,1.23 0.25,0.59 0.6,1.05 0.34,0.44 0.38,0.33 0.27,0.2 0.46,0.25 0.8,0.21 1.05,0.14 z" 
                fill="rgb(151, 144, 238)" 
                stroke="white" 
                stroke-width=".7px"
                title="Colonia" 
                id="UY-CO" 
            />
        </svg>