<svg xmlns="http://www.w3.org/2000/svg" viewBox="129.57075999999992 280.02129999999926 222.54999999999998 130.8200000000004" width="222.54999999999998" height="130.8200000000004">
            <path 
                d="m 307.47076,281.3813 0,0 0.01,0 0.16,1.93 0.2,0.65 0.4,0.66 0.76,0.71 0.63,0.09 0.61,-0.1 0.74,0.13 3.6,2.1 0.42,0.54 0.45,0.44 0.82,0.17 3.18,-0.59 2.09,3.98 0.47,2.65 0.05,1.47 -0.1,1.51 -1.47,6.4 -1.38,3.84 -0.37,1.34 -0.02,1.47 0.18,0.71 2.64,6.19 0.14,0.74 -0.01,0.7 -0.18,0.65 -0.37,0.46 -0.55,0.25 -1.35,0.26 -0.55,0.27 -0.45,0.39 -0.28,0.54 -0.17,0.63 0.18,0.91 0.47,1.01 1.72,2.61 0.4,0.81 0.16,0.63 0.06,0.7 -0.16,2.32 -0.58,2.89 -0.03,0.75 0.24,1.32 0.51,1.32 1.13,1.97 1.93,2.25 1.35,1.19 9.77,6.3 0.27,0.3 0.02,0.03 0.02,0.03 1.15,1.69 0.4,0.43 1.08,0.29 1.62,0.13 7.36,-0.3 5.28,0.77 -0.96,1.91 -0.33,0.49 -0.73,0.82 -0.91,0.78 -5.75,3.74 -0.88,1.1 -0.81,2.58 -5.21,2.87 -1.74,1.2 -5.64,5.4 -1.39,1 -1.12,0.54 -0.73,-0.06 -0.66,-0.19 -1.69,-0.92 -0.69,-0.22 -0.92,-0.05 -2.26,1.12 -2.33,1.54 -5.59,2.89 -0.87,0.9 -2.03,2.64 -19.59,11.14 -2.33,0.94 -0.75,0.02 -3.8,-0.68 -0.93,-0.04 -1.25,0.17 -0.73,0.34 -0.51,0.49 -0.35,0.51 -0.66,0.75 -0.98,0.86 -2.7,1.76 -6.3,2.89 -3.44,1.09 -0.76,0.11 -1.48,-0.09 -0.7,-0.16 -0.63,-0.23 -1.68,-0.94 -0.65,-0.19 -0.75,-0.08 -0.75,0.02 -5.38,1.07 -3.47,0.3 -0.95,0.38 -0.55,0.47 -0.25,0.67 -0.26,1.41 -0.33,0.75 -0.59,0.69 -2.13,1.6 -0.98,0.9 -0.76,0.31 -0.78,0.07 -5,-1.52 -2.85,-0.33 -5.82,0.46 -0.73,-0.12 -0.66,-0.23 -0.57,-0.31 -0.45,-0.39 -0.36,-0.49 -0.28,-0.54 -0.77,-2.48 -0.24,-0.57 -0.32,-0.52 -0.4,-0.44 -0.5,-0.35 -0.67,-0.18 -0.8,0.01 -4.78,0.54 -0.75,-0.08 -0.69,-0.19 -1.21,-0.54 -1.55,-1.04 -0.46,-0.39 -0.89,-0.91 -0.61,-0.39 -1.03,-0.2 -0.54,0.3 -0.3,0.59 -0.05,0.72 0.03,0.76 0.35,2.9 0.06,3.08 -0.25,0.85 -0.57,0.83 -1.33,1.08 -0.95,0.43 -0.83,0.21 -8.11,-0.19 -1.95,-2.31 -0.68,-1.45 -0.1,-0.69 -0.18,-2.97 -0.1,-0.68 -0.34,-1.14 -0.32,-0.69 -0.56,-0.87 -0.67,-0.78 -0.47,-0.65 -6.34,-7 -2.03,-3.75 -0.36,-0.47 -1.09,-0.68 -5.69,-2.24 -3.41,-0.83 -4,-0.19 -0.9,-0.31 -0.94,-0.5 -1.25,-1.17 -0.55,-0.83 -0.31,-0.81 -0.3,-2.1 -0.41,-1.22 -0.57,-1.06 -0.77,-0.92 -0.46,-0.39 -1.19,-0.49 -5.92,-1.4 -3.4,-0.42 -5.55,0.79 -1.12,-0.28 -4.19,-2.41 -4.84,-4.81 0,-0.73 -0.57,-3.67 0.25,-1.46 -2.23,-0.91 -0.98,0.47 -1.07,-0.09 -0.72,-0.7 0.04,-1.35 0.52,-0.54 1.8,-0.28 0.8,-0.47 1.33,-1.44 1.72,-1.48 1.86,-1.17 1.77,-0.47 1.9,0.4 4.18,1.78 2.01,0.4 2.33,0 1.27,-0.25 0.01,-0.85 -1.48,-1.86 -0.18,-1.19 1.73,-0.42 2.26,-0.13 1.45,-0.31 -0.09,-0.57 -0.42,-0.95 0.02,-1.03 1.19,-0.87 1.06,0.04 0.87,0.6 0.7,0.7 0.55,0.33 1.69,1.53 1,0.32 0.43,-1.39 -0.5,-2.29 -0.07,-1.22 0.57,-1.12 1.76,-0.49 1.93,0.34 1.32,-0.42 -0.04,-1.94 -0.01,-0.82 1.14,-2.66 0.9,-0.97 1.39,-1.31 1.8,-0.8 3.04,-0.11 2.02,-0.92 1.16,-1.49 1.87,-0.64 1.95,0.64 3.06,1.82 1.86,-0.48 1.96,-1.49 1.72,-0.79 2.49,-0.44 2.05,-0.06 1.77,0.06 2.61,-0.36 2.61,0.21 2.12,1.24 2.21,2.26 2.23,0.2 1.08,-2.17 0.73,-1.21 2.82,-2.27 3.33,0.28 3.46,0.74 3.93,0.17 3.31,-0.19 0.63,-3.59 1.81,-3.17 1.89,-2.58 1.35,-2.5 4.51,-0.69 4.28,-1.59 3.61,-0.23 3.57,-0.66 2.81,-3.26 2.88,-2.87 1.44,-2.28 1.77,-2 2.44,-1.33 2.21,-0.12 2.5,2.85 2.77,0.94 2.2,-1.55 1.66,-1.59 0.5,-2.04 0.53,-1.45 1,-1.12 -0.06,-1.69 -0.83,-2.24 0.22,-1.46 1.18,-0.65 2.01,0.21 2.2,1.9 1.68,1.2 1.88,-0.15 1.67,-0.81 1.36,-3.52 1.3,-1.71 1.63,-0.19 2.19,0.96 2.34,0.62 2.63,0.28 2.32,-0.22 2.14,-0.68 1.37,-1.6 0.41,-2.04 0.53,-1.78 0.24,-1.69 0.93,-1.28 1.61,-0.83 1.78,0.51 0.91,0.85 z" 
                fill="rgb(151, 144, 238)" 
                stroke="white" 
                stroke-width=".7px"
                title="Durazno" 
                id="UY-DU" 
            />
        </svg>