<svg xmlns="http://www.w3.org/2000/svg" viewBox="195.85076000000026 364.33130000000045 147.95000000000005 162.29999999999978" width="147.95000000000005" height="162.29999999999978">
            <path 
                d="m 340.36076,396.6713 0,0 0.66,0.95 0.54,1.03 0.21,0.63 0.13,0.68 0.1,2.26 -0.13,1.6 -0.31,0.98 -0.51,1.05 -1.23,1.53 -0.64,0.65 -0.56,0.41 -3.51,1.28 -1.07,0.59 -0.86,0.61 -0.28,0.26 -0.04,0.07 -0.08,0.07 -0.23,0.29 -0.51,0.85 -0.68,1.47 -1.83,5.13 -0.51,0.79 -0.99,1.05 -0.7,0.59 -0.64,0.43 -1.16,0.49 -3.24,0.83 -1.18,0.48 -0.49,0.35 -0.47,0.68 -0.4,0.97 -0.37,1.93 -0.03,1.11 0.12,0.88 0.23,0.59 0.27,0.55 2.58,4.12 0.27,0.55 0.21,0.62 0.14,0.68 0.05,0.74 -0.01,0.75 -0.3,3.25 -0.34,1.5 -3.5,8.01 -0.4,1.24 -0.27,4.08 -0.33,0.88 -0.57,0.89 -1.28,1.17 -2.04,1.36 -0.92,0.79 -0.4,0.46 -0.86,1.54 -1.28,3.31 -1.09,1.57 -1.19,1.29 -0.7,0.92 -0.51,0.83 -0.39,1.58 0.01,0.01 0.04,0.93 -0.03,0.68 -0.12,0.74 -0.2,0.68 -0.45,0.74 -0.65,0.78 -4.97,4.32 -1.21,1.36 -0.51,0.79 -0.55,1.06 -0.87,2.09 -0.68,2.27 -0.45,0.93 -0.72,1.01 -2.87,3.04 -2.99,4.3 -12.84,1.82 -2.83,0.96 -6.97,4.29 -0.88,0.34 -1.17,0.32 -2.32,0.31 -1.19,-0.03 -0.84,-0.16 -5.42,-2.67 -2.12,-0.63 -1.37,-0.1 -0.99,0.1 -9.17,6.06 -0.97,0.82 -0.63,0.72 -0.28,0.61 -1.32,4.01 -0.9,1.73 -0.78,0.98 -1.05,0.49 -5.1,1.13 -1.72,0.12 -1.19,-0.13 -4.53,-2.54 -1.17,-0.4 -1.02,-0.17 -1.5,-0.06 -3.07,0.22 -1.72,0.44 -1.33,0.55 -1.04,0.64 -1.04,1.91 -1.79,6.31 -0.76,-1.6 -0.52,-0.75 -5.65,-6.13 -0.24,-0.61 0.01,-0.78 0.43,-1.06 0.48,-0.63 0.56,-0.39 1.97,-1.07 0.46,-0.4 0.37,-0.48 0.29,-0.58 0.22,-1.18 0.45,-8.21 -0.11,-1.2 -0.5,-1.85 -1.88,-4.78 -0.17,-0.65 -0.02,-0.75 0.26,-0.94 0.3,-0.71 2.23,-3.95 0.24,-0.65 0.16,-1.04 0.06,-1.36 -0.42,-5.11 -3.11,-14.91 -1.4,-4.03 1.25,-1.03 0.86,-0.91 0.36,-0.49 0.32,-0.54 0.29,-0.59 0.23,-0.65 0.2,-0.71 0.11,-0.8 0.57,-11.51 -0.23,-1.1 -0.44,-1.31 -1.77,-3.48 -1.53,-2.35 -5.85,-21.47 -1.59,-3.24 8.11,0.19 0.83,-0.21 0.95,-0.43 1.33,-1.08 0.57,-0.83 0.25,-0.85 -0.06,-3.08 -0.35,-2.9 -0.03,-0.76 0.05,-0.72 0.3,-0.59 0.54,-0.3 1.03,0.2 0.61,0.39 0.89,0.91 0.46,0.39 1.55,1.04 1.21,0.54 0.69,0.19 0.75,0.08 4.78,-0.54 0.8,-0.01 0.67,0.18 0.5,0.35 0.4,0.44 0.32,0.52 0.24,0.57 0.77,2.48 0.28,0.54 0.36,0.49 0.45,0.39 0.57,0.31 0.66,0.23 0.73,0.12 5.82,-0.46 2.85,0.33 5,1.52 0.78,-0.07 0.76,-0.31 0.98,-0.9 2.13,-1.6 0.59,-0.69 0.33,-0.75 0.26,-1.41 0.25,-0.67 0.55,-0.47 0.95,-0.38 3.47,-0.3 5.38,-1.07 0.75,-0.02 0.75,0.08 0.65,0.19 1.68,0.94 0.63,0.23 0.7,0.16 1.48,0.09 0.76,-0.11 3.44,-1.09 6.3,-2.89 2.7,-1.76 0.98,-0.86 0.66,-0.75 0.35,-0.51 0.51,-0.49 0.73,-0.34 1.25,-0.17 0.93,0.04 3.8,0.68 0.75,-0.02 2.33,-0.94 19.59,-11.14 2.03,-2.64 0.87,-0.9 5.59,-2.89 2.33,-1.54 2.26,-1.12 0.92,0.05 0.69,0.22 1.69,0.92 0.66,0.19 0.73,0.06 1.12,-0.54 1.39,-1 5.64,-5.4 1.74,-1.2 5.21,-2.87 0.94,6.67 0.1,4.24 1.01,5.54 -0.16,1.2 -0.38,1.56 -1.15,2.94 -0.75,1.26 -0.69,0.83 -1.52,1.03 -0.4,0.45 -0.36,0.52 -0.29,0.64 -0.18,0.78 0.15,1.26 0.24,0.82 2.05,2.6 z" 
                fill="rgb(151, 144, 238)" 
                stroke="white" 
                stroke-width=".7px"
                title="Florida" 
                id="UY-FD" 
            />
        </svg>