<svg xmlns="http://www.w3.org/2000/svg" viewBox="289.6207600000001 391.1612999999995 153.22999999999996 159.0000000000001" width="153.22999999999996" height="159.0000000000001">
            <path 
                d="m 405.20076,404.9513 0,0 0.94,-0.06 4.08,-1.68 0.5,-0.33 0.46,-0.4 0.38,-0.46 0.35,-0.5 0.54,-1.18 0.3,-1.39 0.22,-0.65 0.35,-0.51 0.46,-0.41 0.56,-0.31 1.16,-0.51 0.54,-0.29 3.32,-2.63 0.8,-0.35 3,-0.73 1.17,-0.05 0.95,0.11 0.58,0.26 0.47,0.38 0.33,0.5 1.04,2.28 1.53,2.63 1.59,1.74 0.89,0.77 2.19,1.25 3.71,1.51 2.7,1.76 2.54,1.24 -0.49,0.58 -0.59,0.45 -0.72,0.37 -2.46,0.41 -2.41,0.04 -1.82,0.83 -2.2,7.61 -3.86,3.5 -8.24,4.82 -2.19,2.45 -0.96,1.91 -0.46,2.55 0.97,7.03 -0.16,1.05 -0.45,1.34 -2.27,3.75 -0.66,0.85 -0.4,0.75 -0.37,1.02 -0.34,1.99 -0.19,3.7 -0.26,1.44 -0.43,0.77 -3.12,3.6 -2.49,4 -4.28,3.24 -1.16,1.72 -0.17,0.73 -0.11,0.77 -0.86,2.79 -1.31,2.83 -0.82,1.22 -0.73,0.78 -2.38,0.94 -5.04,0.65 -1.02,0.36 -1.23,0.6 -2.18,1.43 -0.97,0.9 -0.62,0.79 -0.23,0.67 -0.45,1 -2.97,4.52 -1.52,3.42 -2.2,3.82 -0.31,0.98 0.05,0.39 0.27,0.91 0.09,0.4 0.06,0.52 -0.01,0.65 -0.1,0.7 -0.19,0.69 -0.32,2.53 -0.37,1.24 -0.5,0.77 -0.67,0.61 -0.96,0.69 -0.54,0.65 -0.32,0.75 -1.81,6.17 -0.28,1.51 -0.2,2.65 -0.35,1.25 -0.46,0.65 -0.59,0.41 -1.83,0.95 -1.54,1.3 -0.96,0.61 -0.86,0.33 -1.89,0.31 -3.18,1.67 -1.25,0.41 -2.2,0.24 -1.4,0.8 -1.89,1.4 -5.63,5.38 -1.27,0.97 -0.63,0.2 -1.41,0.21 -3.19,-0.25 -1.51,0.04 -0.69,0.12 -1.25,0.42 -11.64,9.89 -0.75,0.49 -2.44,1.17 -2.68,0.67 -13.85,0.78 0.01,-3.47 -0.57,-1.82 -1.69,-3.24 -4.24,-5.2 -0.56,-0.97 -0.23,-0.51 -0.09,-2.72 0.07,-1.09 1.23,-6.18 0.08,-0.8 -0.15,-1.05 -0.39,-1.15 -4.27,-8.01 -1.37,-4.06 -2.79,-11.25 2.99,-4.3 2.87,-3.04 0.72,-1.01 0.45,-0.93 0.68,-2.27 0.87,-2.09 0.55,-1.06 0.51,-0.79 1.21,-1.36 4.97,-4.32 0.65,-0.78 0.45,-0.74 0.2,-0.68 0.12,-0.74 0.03,-0.68 -0.04,-0.93 -0.01,-0.01 0.39,-1.58 0.51,-0.83 0.7,-0.92 1.19,-1.29 1.09,-1.57 1.28,-3.31 0.86,-1.54 0.4,-0.46 0.92,-0.79 2.04,-1.36 1.28,-1.17 0.57,-0.89 0.33,-0.88 0.27,-4.08 0.4,-1.24 3.5,-8.01 0.34,-1.5 0.3,-3.25 0.01,-0.75 -0.05,-0.74 -0.14,-0.68 -0.21,-0.62 -0.27,-0.55 -2.58,-4.12 -0.27,-0.55 -0.23,-0.59 -0.12,-0.88 0.03,-1.11 0.37,-1.93 0.4,-0.97 0.47,-0.68 0.49,-0.35 1.18,-0.48 3.24,-0.83 1.16,-0.49 0.64,-0.43 0.7,-0.59 0.99,-1.05 0.51,-0.79 1.83,-5.13 0.68,-1.47 0.51,-0.85 0.23,-0.29 0.08,-0.07 0.04,-0.07 0.28,-0.26 0.86,-0.61 1.07,-0.59 3.51,-1.28 0.56,-0.41 0.64,-0.65 1.23,-1.53 0.51,-1.05 0.31,-0.98 0.13,-1.6 -0.1,-2.26 -0.13,-0.68 -0.21,-0.63 -0.54,-1.03 -0.66,-0.95 5.01,-2.99 2,-0.89 5.34,-0.94 0.54,-0.03 0.31,0.11 0.98,0.55 2.02,0.6 0.57,0.3 0.45,0.4 0.69,0.44 0.9,0.38 1.78,0.28 1.02,-0.06 0.81,-0.2 4.6,-2.36 2.62,-1.01 1.02,-0.09 0.78,0.15 1.56,0.59 1.31,0.32 0.81,0.33 0.59,0.41 2.82,3.06 3.53,2.4 3.09,0.87 8.34,1.34 0.67,0.21 0.61,0.26 1.34,1.19 0.55,0.31 6.98,2.21 1.2,0.14 z" 
                fill="rgb(151, 144, 238)" 
                stroke="white" 
                stroke-width=".7px"
                title="Lavalleja" 
                id="UY-LA" 
            />
        </svg>