<svg xmlns="http://www.w3.org/2000/svg" viewBox="304.5807600000001 463.7513000000005 103.88000000000005 130.32999999999964" width="103.88000000000005" height="130.32999999999964">
            <path 
                d="m 404.25076,522.1313 0,0 -0.56,-0.12 -0.58,-0.23 -0.7,0 -0.71,0.34 -0.75,1.56 -0.27,1.51 -0.15,2.41 0.12,1.23 0.21,0.9 0.7,0.99 0.34,0.78 0.21,1.11 0.23,3.3 0.17,0.92 0.33,0.52 0.87,1.08 0.44,0.82 0.44,1.49 0.06,1.03 -0.1,0.88 -0.18,0.72 -0.49,1.27 -1.58,2.78 -0.36,0.86 -0.85,3.29 -0.29,2.74 0.24,4.99 0.24,1.42 1.36,4.62 0.04,0.69 -0.08,0.58 -0.26,0.5 -0.79,1.07 -0.43,0.73 -0.39,1.25 -0.05,0.97 0.09,0.68 0.49,1.33 0.03,0.11 -1.16,0.61 -6.37,1.83 -3.32,2.8 -2.09,0.97 -4.37,1.36 -17.78,8.6 -2.15,0.38 -2.05,0.75 -2.63,3.09 -1.98,0.44 0.48,-1.27 0.22,-0.79 0,-0.51 -1.07,-1.66 -1.39,-1.4 -1.82,-0.94 -4.06,-0.52 -0.25,-0.49 0.1,-0.8 -0.68,-1.11 -1.03,-0.78 -0.94,-0.45 -2.23,-0.48 -4.89,0.25 -9.44,2.23 -3.95,-0.77 -2.69,-2.67 -5.32,-7.19 -3.64,-1.99 -0.07,-0.96 -0.19,-0.95 -0.87,-1.69 -2.02,-3 -0.76,-0.8 -0.38,-0.53 -0.3,-0.67 -0.07,-1.04 0.06,-0.86 0.53,-3.07 -0.22,-0.87 -0.51,-0.89 -1.26,-1.21 -1.52,-1.18 -1.08,-1.33 -1.55,-3.53 13.85,-0.78 2.68,-0.67 2.44,-1.17 0.75,-0.49 11.64,-9.89 1.25,-0.42 0.69,-0.12 1.51,-0.04 3.19,0.25 1.41,-0.21 0.63,-0.2 1.27,-0.97 5.63,-5.38 1.89,-1.4 1.4,-0.8 2.2,-0.24 1.25,-0.41 3.18,-1.67 1.89,-0.31 0.86,-0.33 0.96,-0.61 1.54,-1.3 1.83,-0.95 0.59,-0.41 0.46,-0.65 0.35,-1.25 0.2,-2.65 0.28,-1.51 1.81,-6.17 0.32,-0.75 0.54,-0.65 0.96,-0.69 0.67,-0.61 0.5,-0.77 0.37,-1.24 0.32,-2.53 0.19,-0.69 0.1,-0.7 0.01,-0.65 -0.06,-0.52 -0.09,-0.4 -0.27,-0.91 -0.05,-0.39 0.31,-0.98 2.2,-3.82 1.52,-3.42 2.97,-4.52 0.45,-1 0.23,-0.67 0.62,-0.79 0.97,-0.9 2.18,-1.43 1.23,-0.6 1.02,-0.36 5.04,-0.65 2.38,-0.94 0.73,-0.78 0.82,-1.22 1.31,-2.83 0.86,-2.79 0.11,-0.77 0.17,-0.73 1.16,-1.72 4.28,-3.24 2.18,20.92 -0.06,0.61 -0.28,1.34 -0.22,0.67 -1.16,2.38 -0.24,0.64 -0.19,0.69 -1.05,6.84 0.25,7.63 0.38,2.12 0.23,2.84 -0.39,7.48 -0.52,3.47 -0.26,0.42 -0.25,0.21 -0.45,0.12 z" 
                fill="rgb(151, 144, 238)" 
                stroke="white" 
                stroke-width=".7px"
                title="Maldonado" 
                id="UY-MA" 
            />
        </svg>