<svg xmlns="http://www.w3.org/2000/svg" viewBox="207.37076000000005 561.5713000000001 39.48999999999995 28.470000000000027" width="39.48999999999995" height="28.470000000000027">
            <path 
                d="m 228.12076,567.9113 0,0 1.07,-0.41 0.54,-0.29 0.48,-0.37 0.43,-0.43 0.39,-0.49 0.71,-1.09 0.68,-0.63 0.98,-0.56 2.04,-0.66 0.94,0.02 0.57,0.17 0.45,0.86 0.23,0.57 0.6,1.14 0.47,0.39 0.55,0.34 0.58,0.22 0.44,0.3 0.22,0.26 0.31,0.53 0.43,0.6 0.87,0.69 0.74,0.15 0.86,-0.08 0.86,-0.21 1.37,-0.06 0.62,0.36 0.31,0.6 -0.04,0.76 -0.4,1.36 -1.08,2.57 -0.13,0.68 -0.09,0.8 0.01,2.38 0.35,2.34 0.37,1.24 0.75,1.15 -3.2,1.9 -3.65,-0.32 -3.13,1.8 -1.46,0.94 -0.64,2.61 -2.17,-3.11 -1.77,-0.35 -1.89,-0.73 0.85,-1.13 0.12,-1.4 -1.14,-0.99 -1.64,-0.23 -0.61,1.9 -2.03,1.66 -0.97,0.01 -2.28,-0.35 -2.39,0.34 -3.23,-2.78 -6.17,-3.65 -1.59,-1.47 -0.24,-1.85 1.74,-1.52 1.74,-1.77 2.62,-0.66 -0.34,-0.38 0.57,-0.58 0.3,-0.46 0.18,-1.05 0.01,-0.9 -1.01,-4.44 3.39,-2.02 1.87,-0.56 0.88,0.02 1.11,0.18 0.74,0.29 0.58,0.37 0.82,0.9 0.36,0.48 1.2,2.06 0.45,0.47 0.65,0.47 1.45,0.79 0.87,0.23 0.57,0.08 z" 
                fill="rgb(151, 144, 238)" 
                stroke="white" 
                stroke-width=".7px"
                title="Montevideo" 
                id="UY-MO" 
            />
        </svg>