<svg xmlns="http://www.w3.org/2000/svg" viewBox="24.54075999999981 164.31129999999996 200.8800000000001 138.46000000000004" width="200.8800000000001" height="138.46000000000004">
            <path 
                d="m 141.86076,205.1313 0,0 0.99,-0.15 1.41,-0.52 0.79,-0.43 0.63,-0.45 0.44,-0.38 0.64,-0.21 0.78,-0.03 4.51,1.73 2.12,0.52 1.18,-0.05 8.87,-1.94 1.23,0 1.74,0.26 0.98,0.3 0.73,0.36 2,1.36 0.63,0.23 0.71,0.13 4.28,0.04 1.14,0.16 0.85,0.25 5.18,3.31 1.31,0.42 0.71,0.12 5.29,0.18 7.28,2.22 0.66,0.08 1.11,-0.03 1.69,-0.3 1.35,-0.45 0.57,-0.43 0.49,-0.55 0.52,-1.02 0.2,-0.58 0.29,-1.35 0.64,-0.91 3.13,-3.36 0.9,-1.22 0.56,-1.03 0.2,-0.68 1.54,-1.16 5.41,-1.42 3.36,4.05 0.49,1.06 0.44,1.19 0.04,0.79 -0.16,2.63 0.11,2.83 0.25,0.97 0.3,0.73 2.45,3.07 0.38,0.73 0.22,0.76 -0.08,0.86 -0.24,0.6 -0.37,0.36 -0.45,0.15 -0.87,0.15 -1.09,0.39 -0.52,0.3 -0.46,0.37 -0.33,0.86 -0.24,1.22 0.04,5.15 -0.06,0.84 -0.01,0.02 -0.43,5.13 -0.68,2.53 -0.53,1.22 -1.18,2.15 -0.49,1.42 -2.95,13.48 -0.75,2.13 -3.1,3.64 -3.44,3.23 -3.82,2.8 -3.02,2.79 -1.73,2.67 -5.47,16.52 -3.28,-1.75 -1.4,-0.93 -5.63,-4.77 -1.09,-0.66 -5.62,-1.74 -1.78,-0.23 -0.72,0.04 -1.27,0.3 -1,0.07 -1.35,-0.1 -3.98,-0.76 -1.09,-0.07 -2.57,0.6 -2.22,0.13 -2.27,-0.14 -2.5,-0.59 -3.24,-1.99 -5.61,-2.59 -1.54,-0.4 -1.12,-0.11 -0.53,0.2 -1.04,0.57 -1.93,1.45 -1.03,0.59 -0.57,0.24 -1.33,0.25 -6.51,0.08 -0.96,0.21 -1.09,0.54 -6.71,4.88 -0.78,0.35 -0.99,0.3 -1.85,0.29 -1.03,-0.1 -0.97,-0.31 -2.2,-0.99 -0.88,-0.08 -0.73,0.11 -1.57,0.92 -1.76,0.64 -2.67,0.46 -0.98,-0.06 -3.68,-0.64 -1.36,-0.06 -1.04,0.09 -0.53,0.28 -0.92,0.74 -0.81,0.86 -0.33,0.44 -0.95,0.9 -0.48,0.27 -2.42,0.77 -0.57,0.25 -0.46,0.37 -0.38,0.47 -0.49,0.98 -0.1,0.24 -0.04,0.09 -0.67,1.74 -0.3,0.57 -0.74,0.96 -0.42,0.45 -1,0.7 -17.83,2.69 -0.46,0.39 -0.33,0.51 -0.28,0.6 -0.17,0.72 -0.36,2.45 -0.48,0.66 -0.73,0.68 -1.54,0.71 -0.93,0.1 -0.76,-0.16 -0.54,-0.33 -8.99,-0.92 -1.25,-0.28 -1.02,-0.71 -2.14,-0.62 -2.44,-0.26 -1.23,-0.29 -0.81,-0.35 -0.28,-0.38 -0.13,-0.26 -0.64,-2.1 -0.55,-1.07 -0.34,-0.48 -0.44,-0.4 -2.24,-1.23 -0.49,-0.35 -0.45,-0.4 -2.78,-3.29 -0.02,-0.03 -0.33,-0.39 -0.47,-0.4 -0.67,-0.42 -1.14,-0.49 -0.87,-0.16 -5.24,0.31 -3,0.56 -0.01,0 -0.61,-2.68 -0.28,-2.76 0,0 0.04,-0.29 1,-1.32 2.57,-5.4 6.5,-9.49 0.52,-3.69 -1.07,-3.53 -7.01,-9.43 -1.16,-2.57 0.58,-2.48 2.27,-3.74 1.07,-4.68 0.31,-5.45 -0.38,-5.16 -1,-3.79 -3.24,-3.7 -1.26,-2.44 0.68,-2.48 2.81,-3.21 1.62,-1.21 2.26,-0.99 4.86,-0.97 2.48,-1 1.07,-1.73 6.18,-18.62 0.93,-5.3 -0.75,-5.38 -2.72,-3.43 -2.63,-2.05 0.33,-0.18 1.68,-0.86 1.54,-0.43 1.62,0.21 1.77,0.47 1.15,-0.04 0.52,-0.08 0.13,-0.1 0.02,-0.06 0.11,-1.15 0.11,-0.64 0.33,-0.45 0.48,-0.3 3.79,-0.96 0.81,-0.02 1.06,0.18 2.7,1.04 6.79,3.84 0.89,0.79 0.36,0.45 0.29,0.52 1.31,4.24 0.23,0.56 0.29,0.52 0.38,0.46 0.47,0.37 0.52,0.31 0.74,0.28 15.1,3.31 7.33,3.79 3.45,2.46 1.1,0.63 2.45,0.96 2.48,0.35 2.9,0.1 1.89,0.45 1.07,0.43 0.49,0.5 2.24,3.49 0.75,0.88 1.39,1.12 2.32,1.13 8.14,2.35 1.12,0.59 3.79,2.94 1.19,0.32 8.67,1.06 1.32,0.39 0.92,0.01 z" 
                fill="rgb(151, 144, 238)" 
                stroke="white" 
                stroke-width=".7px"
                title="Paysandú" 
                id="UY-PA" 
            />
        </svg>