<svg xmlns="http://www.w3.org/2000/svg" viewBox="231.23075999999972 89.12130000000009 176.58000000000018 153.94999999999993" width="176.58000000000018" height="153.94999999999993">
            <path 
                d="m 344.19076,147.0413 0,0 1.34,-0.75 1.34,-1.88 1.93,-3.88 1.33,-0.45 1.83,2.28 1.66,2.88 2.64,3.49 2.96,2.98 4.16,1.97 1.28,1.34 1.19,1.58 1.31,1.36 1.39,0.89 3.09,1.23 16.99,2.46 3.54,-0.01 1.55,0.5 1.34,1.35 1.81,3.78 1.18,1.62 5.4,4.38 1.51,1.6 1.21,2.21 0.43,2.11 0.17,4.9 1.04,2.67 -0.04,0.04 -0.5,0.66 -1.4,2.88 -0.32,0.49 -0.73,0.47 -0.99,1.12 -0.92,1.36 -0.54,1.16 -0.12,2.91 1.79,5.34 0.49,2.92 -0.51,2.15 -2.47,6.09 -1.42,2.62 -1.26,3.54 -3.51,5.03 1.62,1.32 1.7,0.27 1.29,0.51 0.36,2.02 -0.63,1.54 -2.61,2.04 -1.03,1.46 1.04,1.91 -0.35,2.17 -1.48,1.8 -2.36,0.73 -2.15,0.29 -2.17,0.58 -1.52,-1.67 -0.68,-1.13 -1.26,-2.8 -1.3,-1.99 -3.78,-3.74 -1.68,-2.44 -4.27,-4.91 -1.78,-3.16 -1.54,-1.75 -2.79,-2.25 -0.4,-0.43 -2.04,-2.91 -0.39,-0.43 -0.44,-0.38 -2.31,-1.19 -4.46,-1.66 -1.25,-0.29 -7.89,-0.7 -2.07,-0.68 -3.9,-1.77 -1.59,-0.34 -3.19,-0.14 -4.23,0.49 -6.34,-0.51 -10.01,-2.52 -2.97,-0.32 -1.5,0.08 -2.56,0.64 -8.98,0.62 -2.86,-0.34 -2.82,-0.66 -0.75,-0.02 -0.67,0.12 -1.68,0.72 -0.66,0.12 -0.71,0.03 -0.73,-0.1 -0.8,-0.41 -0.79,-0.75 -1.1,-1.64 -0.95,-1.77 -0.43,-1.18 -0.05,-0.7 0.23,-2.17 -0.1,-0.64 -0.23,-0.55 -0.61,-1.02 -0.25,-0.55 -0.14,-0.65 -0.04,-0.74 0.12,-1.57 0.34,-1.43 0.85,-2.57 0.12,-0.71 0.02,-0.73 -0.15,-0.64 -0.43,-1.17 -0.92,-3.91 -0.43,-1.21 -0.57,-1.03 -0.67,-0.56 -0.94,-0.6 -1.96,-0.86 -3.38,-1.1 -0.72,-0.36 -0.75,-0.54 -3.44,-3.21 -0.44,-0.54 -0.29,-0.48 -0.35,-0.77 -0.04,-0.06 -0.2,-0.42 -1.55,-4.68 -0.08,-0.68 0.16,-2.3 -0.09,-1.47 -0.16,-0.63 -0.42,-1.18 -1.06,-2.17 -0.41,-0.55 -0.53,-0.56 -1.73,-1.34 -7.42,-3.13 -4.9,-2.78 -8.39,-6.71 -0.56,-0.29 -1.5,-0.39 -1.94,-0.01 -0.71,0.15 -1.73,0.69 -1.3,1.2 -2.45,3.79 -0.9,-1.21 -1.59,-1.74 -0.38,-0.63 -0.23,-0.72 0.03,-0.73 0.11,-0.69 0.42,-0.84 0.74,-0.94 1.45,-1 1.37,-0.67 7.12,-2.09 1.3,-0.79 1.05,-1 1.27,-2.51 0.7,-1.75 2.74,-9.4 2.53,-0.37 6.76,0.43 3.19,-0.66 2.46,-0.02 0.99,-0.26 0.82,-0.63 0.46,-0.65 0.38,-0.69 0.61,-0.77 5.57,-3.75 1.5,-1.43 0.83,-1.86 1.09,-4.11 1.33,-1.58 1.96,-0.23 2.51,0.52 2.31,0.18 1.34,-1.24 0.17,-2.27 -0.36,-4.93 0.51,-2.13 1.6,-1.59 2.17,-0.51 2.16,0.6 2.87,3.36 3.73,2.16 1.66,1.38 2.28,2.82 4.77,4.29 7.6,8.6 1.51,2.27 0.55,1.96 0.36,4.29 0.71,2.06 1.14,1.11 3.41,2.24 1.18,1.85 1.38,4.98 0.9,2.17 1.6,1.91 1.73,1.07 4.03,1.56 1.91,1.19 4.86,4.46 2.03,1.29 1.56,0.3 z" 
                fill="rgb(151, 144, 238)" 
                stroke="white" 
                stroke-width=".7px"
                title="Rivera" 
                id="UY-RV" 
            />
        </svg>