<svg xmlns="http://www.w3.org/2000/svg" viewBox="400.53076000000016 365.16130000000044 118.92999999999978 208.08999999999992" width="118.92999999999978" height="208.08999999999992">
            <path 
                d="m 505.87076,434.6413 0,0 2.1,0 1.83,-0.36 1.69,0.02 1.67,1.18 0.99,2.02 0.74,2.16 1.26,1.39 3.31,-0.19 -1.77,1.22 -1.9,1.71 -3.7,4.58 -2.27,4.08 -1.29,4.29 -2.05,10.26 -1.96,6.2 -0.54,5.66 -0.98,1.77 -3.59,2.51 -1.72,1.58 -5,6.47 -5.5,4.23 -1.79,2.12 -3.66,7.27 -0.95,1.27 -0.24,1.35 -2.22,7.14 1.67,4.53 -0.13,2.23 -4.19,1.32 -9.5,5.34 -7.58,5.39 -15.64,15.35 -1.25,1.68 -0.42,2.13 0.04,1.92 -0.55,1.39 -9.33,2.11 -2.34,0.19 0.41,-1.06 0.63,-0.81 1.76,-1.61 -0.72,-0.63 -0.65,-0.77 -0.49,-0.94 -0.24,-1.07 0.16,-1.55 1.04,-3.03 0.26,-0.53 -1.51,-1.52 -2.78,-1.2 -2.93,-0.72 -2.02,-0.05 1.16,0.85 3.82,1.71 -0.83,1.56 -1.67,1.71 -1.91,1.35 -1.58,0.57 -0.63,0.83 -0.02,1.7 0.76,1.31 1.67,-0.28 -0.15,-0.97 1.53,0.33 1.89,1.61 0.94,2.75 -0.82,1.58 -1.89,1.59 -23.01,12.39 -0.03,-0.11 -0.49,-1.33 -0.09,-0.68 0.05,-0.97 0.39,-1.25 0.43,-0.73 0.79,-1.07 0.26,-0.5 0.08,-0.58 -0.04,-0.69 -1.36,-4.62 -0.24,-1.42 -0.24,-4.99 0.29,-2.74 0.85,-3.29 0.36,-0.86 1.58,-2.78 0.49,-1.27 0.18,-0.72 0.1,-0.88 -0.06,-1.03 -0.44,-1.49 -0.44,-0.82 -0.87,-1.08 -0.33,-0.52 -0.17,-0.92 -0.23,-3.3 -0.21,-1.11 -0.34,-0.78 -0.7,-0.99 -0.21,-0.9 -0.12,-1.23 0.15,-2.41 0.27,-1.51 0.75,-1.56 0.71,-0.34 0.7,0 0.58,0.23 0.56,0.12 0.45,-0.12 0.25,-0.21 0.26,-0.42 0.52,-3.47 0.39,-7.48 -0.23,-2.84 -0.38,-2.12 -0.25,-7.63 1.05,-6.84 0.19,-0.69 0.24,-0.64 1.16,-2.38 0.22,-0.67 0.28,-1.34 0.06,-0.61 -2.18,-20.92 2.49,-4 3.12,-3.6 0.43,-0.77 0.26,-1.44 0.19,-3.7 0.34,-1.99 0.37,-1.02 0.4,-0.75 0.66,-0.85 2.27,-3.75 0.45,-1.34 0.16,-1.05 -0.97,-7.03 0.46,-2.55 0.96,-1.91 2.19,-2.45 8.24,-4.82 3.86,-3.5 2.2,-7.61 1.82,-0.83 2.41,-0.04 2.46,-0.41 0.72,-0.37 0.59,-0.45 0.49,-0.58 0.44,-0.76 1.21,-1.12 5.41,-1.38 2.5,-1.52 2.42,-2 2.07,-2.43 2.6,-5.45 1.09,-1.07 3.5,-1.02 2.4,-1.6 3.22,-4.52 1.85,-2.03 1.4,-0.83 2.46,-1.07 1.08,-1.14 0.54,-1.3 0.31,-1.41 0.49,-1.41 1.09,-1.33 0.57,-0.51 8.17,-2.36 7.47,-3.23 9.72,-2.28 0.07,-0.01 -1.66,5.62 0.07,9.05 2.27,18.45 -2.34,20.29 -0.29,11.01 2.89,5.06 z" 
                fill="rgb(151, 144, 238)" 
                stroke="white" 
                stroke-width=".7px"
                title="Rocha" 
                id="UY-RO" 
            />
        </svg>