<svg xmlns="http://www.w3.org/2000/svg" viewBox="2.350759999999801 272.2513000000003 190.80000000000018 129.65999999999985" width="190.80000000000018" height="129.65999999999985">
            <path 
                d="m 160.15076,278.0713 0,0 2.22,-0.13 2.57,-0.6 1.09,0.07 3.98,0.76 1.35,0.1 1,-0.07 1.27,-0.3 0.72,-0.04 1.78,0.23 5.62,1.74 1.09,0.66 5.63,4.77 1.4,0.93 3.28,1.75 -0.47,5.55 -3.24,13.59 -0.43,1.8 -2.04,2.42 -1.02,1.82 -0.38,2.27 0,1.51 0.26,2.42 -1.02,4.09 -1.78,3.64 -0.91,3.65 -1.95,-0.64 -1.87,0.64 -1.16,1.49 -2.02,0.92 -3.04,0.11 -1.8,0.8 -1.39,1.31 -0.9,0.97 -1.14,2.66 0.01,0.82 0.04,1.94 -1.32,0.42 -1.93,-0.34 -1.76,0.49 -0.57,1.12 0.07,1.22 0.5,2.29 -0.43,1.39 -1,-0.32 -1.69,-1.53 -0.55,-0.33 -0.7,-0.7 -0.87,-0.6 -1.06,-0.04 -1.19,0.87 -0.02,1.03 0.42,0.95 0.09,0.57 -1.45,0.31 -2.26,0.13 -1.73,0.42 0.18,1.19 1.48,1.86 -0.01,0.85 -1.27,0.25 -2.33,0 -2.01,-0.4 -4.18,-1.78 -1.9,-0.4 -1.77,0.47 -1.86,1.17 -1.72,1.48 -1.33,1.44 -0.8,0.47 -1.8,0.28 -0.52,0.54 -0.04,1.35 0.72,0.7 1.07,0.09 0.98,-0.47 2.23,0.91 -0.25,1.46 0.57,3.67 0,0.73 -0.9,0.33 -2.57,1.6 -4.6,2.05 -1.13,0.2 -1.22,-0.53 -0.56,-1.31 -0.61,-3.26 -1.05,1.58 -1.68,1.82 -1.55,0.43 -1.14,-4.81 -1.23,-1.48 -1.8,-0.97 -4.19,-1.41 -1.06,-0.18 -1.14,0.08 -1.22,0.55 -2.12,1.56 -1.18,0.33 -1.11,-0.51 -0.52,-1.21 -0.15,-1.52 0,-1.36 -0.39,-0.93 -0.95,-0.77 -4.5,-2.39 -2.29,-0.35 -2.18,0.5 -1.98,1.39 -0.78,0.35 -3.43,0.94 -0.7,0.55 -1.02,2.66 -0.76,0.97 -1.98,0.43 -3.93,-1.61 -3.08,-0.76 -1.49,-1.13 -1.14,-0.27 -1.22,0.16 -2.15,0.64 -1.25,0.03 -1.59,-0.56 -2.87,-1.73 -1.78,-0.29 -1.88,0.54 -1.21,1.1 -1.06,1.36 -1.46,1.33 -1.53,0.65 -3.05,0.79 -1.02,1 -0.36,1.86 0.22,1.49 -0.43,1.03 -2.3,0.56 -1.73,-0.22 -1.5,-0.57 -1.47,-0.35 -1.67,0.45 -1.06,0.89 -0.04,0.86 1.1,2.44 0.04,0.83 -0.07,1.09 0.02,0.95 0.58,0.69 1.31,1.26 0.29,0.2 0.13,2.02 -0.42,2.02 -0.82,1.06 -1.06,-0.92 -0.54,-0.08 -1.75,-1.68 -1.21,-0.75 -3.45,1.87 -1.1,1.1 -0.3,1.24 -0.05,4.63 -0.47,2.08 -1.16,0.54 -2.93,-0.49 -4.9,0 -1.89,1.19 -5.53,7.28 -9.79,5.82 -0.02,0.01 -2.16,-1.83 -0.65,-2.42 0.65,-2.24 1.58,-1.97 3.69,-3.66 1.07,-2.46 0.16,-2.82 -1.73,-10.64 -0.09,-5.19 1.6,-3.93 4.21,-1.57 9.54,0.57 4.4,-0.37 3.77,-1.88 3.85,-3.62 1.69,-2.21 0.69,-2.06 0.17,-2.84 0.48,-2.2 1.52,-4.61 0.76,-4.9 -0.89,-3.66 -2.06,-2.92 -4.44,-4.71 -1.06,-2.03 -0.55,-2.23 -0.16,-2.56 0.19,-5.5 -0.19,-2.78 -0.76,-2.12 0.76,-0.91 -0.87,-3.13 -1.13,-8.51 -1.22,-1.74 -0.82,-1.93 -1.47,-6.46 0.01,0 3,-0.56 5.24,-0.31 0.87,0.16 1.14,0.49 0.67,0.42 0.47,0.4 0.33,0.39 0.02,0.03 2.78,3.29 0.45,0.4 0.49,0.35 2.24,1.23 0.44,0.4 0.34,0.48 0.55,1.07 0.64,2.1 0.13,0.26 0.28,0.38 0.81,0.35 1.23,0.29 2.44,0.26 2.14,0.62 1.02,0.71 1.25,0.28 8.99,0.92 0.54,0.33 0.76,0.16 0.93,-0.1 1.54,-0.71 0.73,-0.68 0.48,-0.66 0.36,-2.45 0.17,-0.72 0.28,-0.6 0.33,-0.51 0.46,-0.39 17.83,-2.69 1,-0.7 0.42,-0.45 0.74,-0.96 0.3,-0.57 0.67,-1.74 0.04,-0.09 0.1,-0.24 0.49,-0.98 0.38,-0.47 0.46,-0.37 0.57,-0.25 2.42,-0.77 0.48,-0.27 0.95,-0.9 0.33,-0.44 0.81,-0.86 0.92,-0.74 0.53,-0.28 1.04,-0.09 1.36,0.06 3.68,0.64 0.98,0.06 2.67,-0.46 1.76,-0.64 1.57,-0.92 0.73,-0.11 0.88,0.08 2.2,0.99 0.97,0.31 1.03,0.1 1.85,-0.29 0.99,-0.3 0.78,-0.35 6.71,-4.88 1.09,-0.54 0.96,-0.21 6.51,-0.08 1.33,-0.25 0.57,-0.24 1.03,-0.59 1.93,-1.45 1.04,-0.57 0.53,-0.2 1.12,0.11 1.54,0.4 5.61,2.59 3.24,1.99 2.5,0.59 2.27,0.14 z" 
                fill="rgb(151, 144, 238)" 
                stroke="white" 
                stroke-width=".7px"
                title="Río Negro" 
                id="UY-RN" 
            />
        </svg>