<svg xmlns="http://www.w3.org/2000/svg" viewBox="37.61076000000018 78.2413000000001 211.91999999999987 134.39999999999998" width="211.91999999999987" height="134.39999999999998">
            <path 
                d="m 91.10076,92.0113 0,0 3.63,-0.01 2.1,0.29 1.1,0.31 0.83,0.35 1.68,1.3 0.62,0.61 3.38,2.41 13.58,7.25 4.89,1.59 0.8,0.48 1.53,1.28 0.05,0.04 4.72,4.72 1.95,1.39 2.48,1.32 6.17,1.85 1.03,0.09 0.67,-0.1 0.61,-0.19 0.55,-0.25 2.77,-2.12 0.99,-0.54 0.68,-0.26 6.75,-0.85 2.46,0.14 11.64,2.12 1.46,0.07 2.44,-0.69 4.93,-0.47 1.27,-0.3 1.12,-0.46 0.94,-0.5 6.02,-5.06 0.96,-0.6 1.17,-0.4 3.43,-0.45 1.2,-0.39 0.51,-0.31 0.44,-0.37 1.47,-1.84 0.44,-0.38 1.02,-0.61 2.31,-0.96 0.46,-0.26 0.88,-0.75 0.37,-0.48 0.61,-1.08 0.75,-1.79 0.59,-1.1 0.36,-0.48 0.39,-0.44 0.73,-0.36 1.02,-0.24 1.86,-0.19 1.02,0.15 0.82,0.2 5.7,2.09 16.29,3.6 0.67,0.26 1.68,1.03 2.11,1.83 0.73,0.91 1.54,2.5 1.18,1.41 2.62,2.25 0.76,0.86 1.03,1.43 0.81,0.83 3.83,2.99 0.09,0.07 0.58,0.94 0.16,-0.02 -2.74,9.4 -0.7,1.75 -1.27,2.51 -1.05,1 -1.3,0.79 -7.12,2.09 -1.37,0.67 -1.45,1 -0.74,0.94 -0.42,0.84 -0.11,0.69 -0.03,0.73 0.23,0.72 0.38,0.63 1.59,1.74 0.9,1.21 -0.6,2.25 -0.93,2.07 -0.77,4.56 -0.31,1.19 -0.38,0.82 -0.48,0.34 -1.25,1.3 -1.01,1.4 -0.66,0.73 -0.63,0.52 -0.54,0.27 -1.91,0.68 -0.73,0.47 -0.54,0.77 -1.74,3.67 -0.47,0.7 -3.34,3.22 -0.49,0.85 -3.04,8.44 -0.29,1.24 0.2,0.55 0.28,0.52 0.7,0.95 0.59,1.05 0.4,1.18 0.23,1.35 0.31,5.13 0.24,1.32 0.36,1.24 0.2,1.66 -0.19,3.33 -5.41,1.42 -1.54,1.16 -0.2,0.68 -0.56,1.03 -0.9,1.22 -3.13,3.36 -0.64,0.91 -0.29,1.35 -0.2,0.58 -0.52,1.02 -0.49,0.55 -0.57,0.43 -1.35,0.45 -1.69,0.3 -1.11,0.03 -0.66,-0.08 -7.28,-2.22 -5.29,-0.18 -0.71,-0.12 -1.31,-0.42 -5.18,-3.31 -0.85,-0.25 -1.14,-0.16 -4.28,-0.04 -0.71,-0.13 -0.63,-0.23 -2,-1.36 -0.73,-0.36 -0.98,-0.3 -1.74,-0.26 -1.23,0 -8.87,1.94 -1.18,0.05 -2.12,-0.52 -4.51,-1.73 -0.78,0.03 -0.64,0.21 -0.44,0.38 -0.63,0.45 -0.79,0.43 -1.41,0.52 -0.99,0.15 -0.92,-0.01 -1.32,-0.39 -8.67,-1.06 -1.19,-0.32 -3.79,-2.94 -1.12,-0.59 -8.14,-2.35 -2.32,-1.13 -1.39,-1.12 -0.75,-0.88 -2.24,-3.49 -0.49,-0.5 -1.07,-0.43 -1.89,-0.45 -2.9,-0.1 -2.48,-0.35 -2.45,-0.96 -1.1,-0.63 -3.45,-2.46 -7.33,-3.79 -15.1,-3.31 -0.74,-0.28 -0.52,-0.31 -0.47,-0.37 -0.38,-0.46 -0.29,-0.52 -0.23,-0.56 -1.31,-4.24 -0.29,-0.52 -0.36,-0.45 -0.89,-0.79 -6.79,-3.84 -2.7,-1.04 -1.06,-0.18 -0.81,0.02 -3.79,0.96 -0.48,0.3 -0.33,0.45 -0.11,0.64 -0.11,1.15 -0.02,0.06 -0.13,0.1 -0.52,0.08 -1.15,0.04 -1.77,-0.47 -1.62,-0.21 -1.54,0.43 -1.68,0.86 -0.33,0.18 -1.21,-0.94 -2.51,-3.08 1.3,-3.72 1.95,-1.64 3.86,-2.36 1.61,-1.4 1,-2.26 0.51,-5.46 0.94,-2.47 0.71,-0.79 1.69,-1.34 0.76,-0.78 2.13,-4.54 1,-1.38 0.01,-3.11 -0.69,-5.33 1.3,-5.3 2.6,-4 1.89,-4.08 -0.82,-5.6 -4.33,-6.39 -0.64,-1.37 0.79,-2.12 1.92,-1.3 4.36,-1.15 2.38,0.29 1.27,-0.48 0.55,-1.81 0.59,-2.88 0.12,-1.24 -0.11,-4.99 -0.35,-2.96 0.01,-0.01 2.46,-3.67 0.53,-0.46 0.71,-0.5 1.03,-0.04 2.81,0.32 1.11,0.36 1.41,0.83 6.66,5.02 1.72,1.58 0.77,0.87 1.7,2.37 0.5,0.55 0.68,0.58 1.23,0.79 0.95,0.33 0.91,0.17 z" 
                fill="rgb(151, 144, 238)" 
                stroke="white" 
                stroke-width=".7px"
                title="Salto" 
                id="UY-SA" 
            />
        </svg>