<svg xmlns="http://www.w3.org/2000/svg" viewBox="130.7507600000001 454.32129999999955 83.43999999999994 117.26000000000062" width="83.43999999999994" height="117.26000000000062">
            <path 
                d="m 203.07076,460.8313 0,0 1.4,4.03 3.11,14.91 0.42,5.11 -0.06,1.36 -0.16,1.04 -0.24,0.65 -2.23,3.95 -0.3,0.71 -0.26,0.94 0.02,0.75 0.17,0.65 1.88,4.78 0.5,1.85 0.11,1.2 -0.45,8.21 -0.22,1.18 -0.29,0.58 -0.37,0.48 -0.46,0.4 -1.97,1.07 -0.56,0.39 -0.48,0.63 -0.43,1.06 -0.01,0.78 0.24,0.61 5.65,6.13 0.52,0.75 0.76,1.6 -0.05,2.34 -0.66,2.99 -0.01,0.91 0.07,0.54 0.35,0.61 0.38,0.85 0.48,1.69 0.01,1 -0.23,0.78 -1.73,1.67 -0.77,0.97 -0.68,1.09 -0.38,0.49 -0.45,0.4 -0.49,0.34 -1.23,0.6 -0.67,0.47 -0.74,0.95 -0.32,0.84 -0.12,0.85 0.56,3.48 0.15,3.42 0.21,0.9 0.35,0.65 0.48,0.39 3.32,1.96 3.68,3.24 1.56,1.87 0.75,1.23 1.01,4.44 -0.01,0.9 -0.18,1.05 -0.3,0.46 -0.57,0.58 -1.18,-1.35 -2.01,-0.86 -5.41,-2.2 -3.76,-0.59 -3.63,0.16 -2.2,1.53 -1.65,-0.25 -1.6,-0.76 -3.84,-2.44 -1.8,-0.85 -1.83,-1.25 -6.89,-1.94 -8.39,-1.07 -8.07,-3.53 -1.72,-1.26 -1.38,-3.07 -1.6,-1.53 -3.4,-2.47 -2.43,-2.79 -2.14,-2.11 -1.88,-1.5 -2.77,-1.73 -1.51,-1.37 0.16,-1.71 -0.67,-0.86 -1.5,-1.04 -0.63,-0.57 -1.93,-2.21 -1.85,-1.6 -3.28,-1.5 -1.59,-0.33 6.31,-5.5 0.4,-0.46 0.29,-0.85 0.13,-1.17 -0.09,-2.4 0.12,-1.37 0.57,-1.33 0.62,-0.75 0.51,-0.97 0.75,-2.57 0.06,-0.86 -0.41,-0.7 -2.03,-2.41 -0.32,-0.53 -0.27,-0.57 -0.12,-0.82 0.05,-1.02 0.41,-1.64 0.4,-0.91 0.47,-0.64 2.46,-1.78 1.63,-0.89 4.38,-1.27 0.76,-0.38 0.46,-0.3 4.56,-3.72 0.71,-0.87 0.21,-0.31 0.12,-0.35 0.02,-0.38 -0.07,-0.81 -0.58,-1.31 -3.79,-6.04 -3.34,-3.98 -0.73,-0.56 -1.74,-0.89 -0.52,-0.35 -0.49,-0.75 -0.46,-1.08 -0.86,-3.69 -1.37,-3.03 4.39,0.26 14.83,2.88 1.17,-0.11 1.41,-0.35 2.53,-1 1.2,-0.62 0.84,-0.55 4.26,-5.21 1.71,-1.48 0.3,-0.2 0.43,-0.22 7.04,-1.77 2.35,-0.94 2.11,-1.25 4.15,-3.44 3.16,0.77 11.23,5.74 z" 
                fill="rgb(151, 144, 238)" 
                stroke="white" 
                stroke-width=".7px"
                title="San José" 
                id="UY-SJ" 
            />
        </svg>