<svg xmlns="http://www.w3.org/2000/svg" viewBox="0.2507600000000032 352.4712999999999 139.70999999999998 115.84999999999997" width="139.70999999999998" height="115.84999999999997">
            <path 
                d="m 103.94076,361.5113 0,0 1.18,-0.33 2.12,-1.56 1.22,-0.55 1.14,-0.08 1.06,0.18 4.19,1.41 1.8,0.97 1.23,1.48 1.14,4.81 1.55,-0.43 1.68,-1.82 1.05,-1.58 0.61,3.26 0.56,1.31 1.22,0.53 1.13,-0.2 4.6,-2.05 2.57,-1.6 0.9,-0.33 -1.4,3.86 -0.67,1.13 -7.32,9.38 -1.35,1.17 -10.76,12.89 -1.12,1.98 -0.04,1.12 0.11,0.8 0.23,0.65 0.31,0.51 0.41,0.46 2.62,1.75 0.46,0.39 0.4,0.46 0.31,0.53 0.25,0.56 1.15,5.27 0.21,0.6 0.28,0.54 1.67,2.19 0.02,0.05 0.01,0.02 0.12,0.33 0.23,1.58 0.05,1.45 0.14,0.95 0.21,0.74 0.34,0.51 0.39,0.46 0.42,0.42 2.11,2.91 0.89,0.82 1.03,0.71 0.61,0.26 2.83,0.75 0.6,0.36 0.51,0.46 0.32,0.81 0,0.73 -0.18,0.66 -0.22,0.59 -0.28,0.55 -0.22,0.65 -0.18,0.71 -1.54,12.09 -0.04,1.54 0.11,0.41 0.17,0.44 4.28,7.4 1.21,2.91 0.19,0.71 0.29,1.82 0.41,1.43 0.26,0.71 0.24,0.86 0.46,3.1 0.38,1.27 0.23,0.59 0.29,0.53 1.81,2.49 0.82,1.37 -10.7,-1.68 -8.48,0.01 -2.9,-0.39 -0.56,-0.31 -1.94,-1.51 -1.75,-1.66 -1.94,-1.17 -2.21,-1.03 -1.89,-0.53 -17.69,4.83 -6.2,0.61 -2.89,-0.24 -14,-4.86 -1,-0.73 -0.48,-0.46 -0.67,-0.84 0.14,0.15 -0.17,-0.23 -0.21,-0.34 -0.55,-0.54 -0.74,-0.57 -1.4,-0.72 -1.03,-0.29 -8.02,-0.25 -3.07,0.56 -1.83,0.07 -1.05,-0.14 -0.8,-0.21 -0.46,-0.25 -0.27,-0.2 -0.38,-0.33 -0.34,-0.44 -0.6,-1.05 -0.25,-0.59 -0.38,-1.23 -0.51,-1.15 -0.28,-0.52 -0.64,-0.85 -0.55,-0.57 -11.57,-3 -1.77,-0.21 -1.65,0.49 -9.58,6.67 -9.24,3.88 -1.43,0.42 -3.28,0.59 -0.05,0.01 -0.01,0 -1.95,-11.2 -0.49,-10.67 1.4,-10.55 -0.34,-2.57 -0.62,-2.42 -0.33,-2.58 0.52,-2.91 1.4,-2.41 3.51,-4.66 0.7,-2.66 -0.65,-2.41 -0.68,-0.57 0.02,-0.01 9.79,-5.82 5.53,-7.28 1.89,-1.19 4.9,0 2.93,0.49 1.16,-0.54 0.47,-2.08 0.05,-4.63 0.3,-1.24 1.1,-1.1 3.45,-1.87 1.21,0.75 1.75,1.68 0.54,0.08 1.06,0.92 0.82,-1.06 0.42,-2.02 -0.13,-2.02 -0.29,-0.2 -1.31,-1.26 -0.58,-0.69 -0.02,-0.95 0.07,-1.09 -0.04,-0.83 -1.1,-2.44 0.04,-0.86 1.06,-0.89 1.67,-0.45 1.47,0.35 1.5,0.57 1.73,0.22 2.3,-0.56 0.43,-1.03 -0.22,-1.49 0.36,-1.86 1.02,-1 3.05,-0.79 1.53,-0.65 1.46,-1.33 1.06,-1.36 1.21,-1.1 1.88,-0.54 1.78,0.29 2.87,1.73 1.59,0.56 1.25,-0.03 2.15,-0.64 1.22,-0.16 1.14,0.27 1.49,1.13 3.08,0.76 3.93,1.61 1.98,-0.43 0.76,-0.97 1.02,-2.66 0.7,-0.55 3.43,-0.94 0.78,-0.35 1.98,-1.39 2.18,-0.5 2.29,0.35 4.5,2.39 0.95,0.77 0.39,0.93 0,1.36 0.15,1.52 0.52,1.21 1.11,0.51 z" 
                fill="rgb(151, 144, 238)" 
                stroke="white" 
                stroke-width=".7px"
                title="Soriano" 
                id="UY-SO" 
            />
        </svg>