<svg xmlns="http://www.w3.org/2000/svg" viewBox="337.92076000000026 313.83129999999994 201.6699999999999 93.11000000000013" width="201.6699999999999" height="93.11000000000013">
            <path 
                d="m 472.78076,321.2613 0,0 17.12,-1.37 3.66,0.68 2.46,0.1 11.04,-1.33 0.51,0.13 0.47,0.24 0.47,0.35 0.41,0.44 0.7,0.96 0.69,0.33 1.03,0.17 1.95,-0.13 1.12,0.09 0.79,0.24 1.35,1.17 0.65,0.36 0.82,0.27 1.34,0.17 0.89,-0.06 0.82,-0.27 1.69,-1.03 1.03,-0.21 0.83,-0.08 2.56,0.31 12.36,2.6 0.05,0.01 -2.15,2.75 -6.87,5.05 -2.88,3.1 -0.84,2.21 -0.26,4.54 -0.69,2.24 -1.13,1.34 -12.5,8.37 -3.51,3.09 -2.89,3.91 -0.01,0.01 0,0.02 -0.93,3.13 -0.07,0.01 -9.72,2.28 -7.47,3.23 -8.17,2.36 -0.57,0.51 -1.09,1.33 -0.49,1.41 -0.31,1.41 -0.54,1.3 -1.08,1.14 -2.46,1.07 -1.4,0.83 -1.85,2.03 -3.22,4.52 -2.4,1.6 -3.5,1.02 -1.09,1.07 -2.6,5.45 -2.07,2.43 -2.42,2 -2.5,1.52 -5.41,1.38 -1.21,1.12 -0.44,0.76 -2.54,-1.24 -2.7,-1.76 -3.71,-1.51 -2.19,-1.25 -0.89,-0.77 -1.59,-1.74 -1.53,-2.63 -1.04,-2.28 -0.33,-0.5 -0.47,-0.38 -0.58,-0.26 -0.95,-0.11 -1.17,0.05 -3,0.73 -0.8,0.35 -3.32,2.63 -0.54,0.29 -1.16,0.51 -0.56,0.31 -0.46,0.41 -0.35,0.51 -0.22,0.65 -0.3,1.39 -0.54,1.18 -0.35,0.5 -0.38,0.46 -0.46,0.4 -0.5,0.33 -4.08,1.68 -0.94,0.06 -1.2,-0.14 -6.98,-2.21 -0.55,-0.31 -1.34,-1.19 -0.61,-0.26 -0.67,-0.21 -8.34,-1.34 -3.09,-0.87 -3.53,-2.4 -2.82,-3.06 -0.59,-0.41 -0.81,-0.33 -1.31,-0.32 -1.56,-0.59 -0.78,-0.15 -1.02,0.09 -2.62,1.01 -4.6,2.36 -0.81,0.2 -1.02,0.06 -1.78,-0.28 -0.9,-0.38 -0.69,-0.44 -0.45,-0.4 -0.57,-0.3 -2.02,-0.6 -0.98,-0.55 -0.31,-0.11 -0.54,0.03 -5.34,0.94 -2,0.89 -5.01,2.99 -2.05,-2.6 -0.24,-0.82 -0.15,-1.26 0.18,-0.78 0.29,-0.64 0.36,-0.52 0.4,-0.45 1.52,-1.03 0.69,-0.83 0.75,-1.26 1.15,-2.94 0.38,-1.56 0.16,-1.2 -1.01,-5.54 -0.1,-4.24 -0.94,-6.67 0.81,-2.58 0.88,-1.1 5.75,-3.74 0.91,-0.78 0.73,-0.82 0.33,-0.49 0.96,-1.91 0.02,-2.22 -0.16,-0.84 -1.49,-2.6 -0.22,-1.04 0.07,-0.89 0.36,-0.74 0.53,-0.87 0.64,-0.76 0.54,-0.43 2.28,-1.33 0.63,-0.49 0.81,-0.84 1.21,-0.88 3.51,-1.43 0.53,-0.31 0.89,-0.77 1.59,-1.78 1.76,-1.52 6.03,-3.1 1.3,-0.33 2.89,-0.3 3.32,0.03 1.63,-0.35 4.76,-1.97 0.93,-0.16 1.38,0.04 1.4,0.33 1.86,0.75 0.85,0.14 0.99,0.04 1.56,-0.31 0.83,-0.36 0.6,-0.49 0.72,-0.98 0.71,-1.23 0.52,-0.7 0.57,-0.3 0.64,0 0.76,0.18 0.91,0.1 1.48,-0.24 0.77,-0.4 0.54,-0.51 0.26,-0.6 0.52,-1.57 0.6,-1 0.66,-0.36 0.74,-0.07 1.45,0.22 5.75,-0.39 2.13,-0.67 5.09,-2.88 1.52,-0.62 1.02,-0.1 0.49,0.36 0.86,0.82 0.48,0.36 0.57,0.28 0.66,0.2 3.89,0.52 2.11,0.72 2.87,0.34 0.6,0.27 0.98,0.7 0.53,0.32 0.68,0.19 0.73,0.11 0.77,0.03 2.17,-0.16 0.69,0.03 0.62,0.19 0.56,0.27 5.56,3.8 0.46,0.39 0.68,0.32 0.83,0.21 1.42,-0.1 0.59,-0.48 0.25,-0.65 -0.15,-0.63 -0.26,-0.58 -0.6,-1.05 -0.24,-0.56 -0.13,-0.59 0.09,-0.63 0.29,-0.53 0.37,-0.46 2.22,-1.98 0.67,-0.8 0.52,-0.42 2.85,-1.66 1.17,-0.29 0.93,-0.04 0.63,0.25 1.06,0.62 6.51,5.32 1.06,0.67 0.58,0.28 0.82,0.19 1.03,0.1 z" 
                fill="rgb(151, 144, 238)" 
                stroke="white" 
                stroke-width=".7px"
                title="Treinta y Tres" 
                id="UY-TT" 
            />
        </svg>