<svg xmlns="http://www.w3.org/2000/svg" viewBox="277.9499999999999 85 48.970000000000084 50.829999999999984" width="48.970000000000084" height="50.829999999999984">
            <path 
                d="m 315.25,85.41 3.72,-0.41 0.74,1.97 -1.7,1.41 -1.65,0.18 -0.21,4.38 -0.54,0.88 0.46,0.77 -0.62,0.98 1.4,5 4.03,0.36 2.84,-3.44 2.58,-0.7 0.62,2.18 -2.46,0.990001 -0.29,1.019999 0.69,0.83 -1.23,2.29 0.36,0.28 -0.16,1.23 -1.65,-0.28 -0.92,4.87 -1.52,-0.07 -0.44,0.23 -0.44,-0.85 -0.18,0.26 -1.06,-0.03 -2.12,-0.55 -0.97,0.88 -0.38,1.63 -1.03,-0.33 -0.15,0.39 -0.41,-0.13 -1.15,0.43 0.41,1.4 0.94,0.72 0.18,2.18 2.44,0.79 0.08,1.82 0.7,0.1 0.14,0.45 0.99,0.6 1.83,-0.79 1.65,-0.17 1.13,2.34 -2.9,1.42 -0.06,1.72 -3.22,0.24 -0.23,0.87 -1.68,-0.24 -1.1,0.85 -0.01,0.91 -1,0.07 -0.12,1.12 -1.16,0.1 -0.13,0.45 -1.08,0.2 -0.53,1.85 0.5,0.23 0.2,0.77 -1.4,0.47 0.01,0.43 -0.85,0.26 -0.01,1.01 0.54,0.32 -0.64,1.28 0,0 -0.9,-0.7 -0.91,0.46 -0.67,-0.07 -0.76,-1.26 -0.77,1.18 -0.64,-1.37 -1.22,-0.57 -1.2,-1.2 -0.86,-1.77 0.21,-1.12 -0.84,-0.56 -0.89,0.32 -1.2,1.4 -2.49,0.41 -0.56,1.03 -1.07,-0.68 -2.12,0.13 -0.1,-0.75 -0.26,-0.14 -1.36,0.26 0.02,0.67 -0.88,0.32 0,0 0.75,-4.15 -0.9,-1.13 0.6,-0.14 0.51,-2.42 0.26,-0.07 0.37,-1.19 -2.48,0.09 -0.31,-0.86 -0.47,-0.38 -3.64,0.81 0.24,0.74 -3.43,1.32 -0.01,-1.35 -1.1,-2.03 1.55,-1.47 2.06,-1.37 -0.91,-3.96 1.72,0.2 0.08,-1.09 1.5,-0.22 1.24,-5.16 -0.06,-1.98 4.52,-2.45 0.3,1.17 0.88,1.22 1.33,-0.71 0.1,1.14 2.2,-0.73 2.06,-0.27 0,-0.56 1.19,0.13 0.01,-0.61 0.68,-0.43 -0.41,-1.51 0.75,-0.27 -1.16,-2.93 2.08,-0.32 0.76,-0.5 0.34,-1.04 1.16,-0.83 -0.88,-3.85 1.15,-0.46 0.82,0.14 0.01,0.4 -0.69,0.23 0.24,0.86 0.57,-0.01 0.54,-0.55 1.38,0.09 2.09,-0.65 0,-2.76 0,0 1.93,-0.48 0.17,0.85 3.1,-0.61 0.19,-1.35 2.45,0.01 0.44,0.68 1.09,-0.66 0.56,-1.1 -0.92,0.05 z" 
                fill="rgb(151, 144, 238)" 
                stroke="white" 
                stroke-width=".7px"
                title="Gauteng" 
                id="ZA-GT" 
            />
        </svg>