<svg xmlns="http://www.w3.org/2000/svg" viewBox="319.01000000000016 132.65000000000006 107.44999999999987 126.17999999999998" width="107.44999999999987" height="126.17999999999998">
            <path 
                d="m 406.24,132.96 0.17,0.46 1.74,0.88 1.14,-0.81 1.42,0.51 2.62,0.36 11.29,0.18 1.84,-0.3 -0.27,0.98 -0.61,0.27 -0.28,0.96 0.19,0.46 0.69,-1.52 -0.84,5.31 -4.47,12.36 0.09,1.12 -2.01,7.87 -0.32,2.28 0.13,1.2 -1.04,6.28 -3.4,6.81 0.1,1.22 -0.68,2.91 -1.04,1.6 -9.1,8.93 -6.4,2.51 -3.32,3.61 -1.82,2.55 -2.9,2.75 -0.81,1.25 -2.26,2.3 -3.9,5.48 -3.37,6.15 -0.5,1.59 0.22,0.97 0.43,0.15 -0.02,0.31 -4.56,5.32 -6.73,13.61 -5.93,9.74 -2.29,2.95 -2.08,3.68 -0.81,0.63 0,0 -0.58,-0.47 -0.29,-1.19 -0.78,-0.49 0.12,-0.93 -0.52,-0.5 0.25,-0.78 -0.19,-0.59 -0.64,-0.65 -0.68,-0.06 -0.34,-1.28 -1.07,-0.1 -0.35,-0.5 -0.72,0.19 -0.24,-0.83 -0.6,-0.24 0.01,-0.75 -0.89,0.34 -0.68,-0.36 -0.38,-0.47 -1.24,-0.57 -0.37,-1 -0.89,-0.07 -0.38,0.58 -0.26,-0.38 -1.7,-0.42 -0.39,-0.43 -1.53,0.31 -0.63,-0.65 -0.93,-0.25 -1.95,-1.37 -1.35,0.6 -1.57,0 -0.36,0.49 -0.5,0.09 -1.78,-0.88 -4.6,-1.19 0.07,-1.58 -1.99,-0.98 -0.55,0.21 -0.3,1.94 -0.5,0.07 -2.32,-0.47 -1.07,-1.62 -1.19,-0.19 -0.5,-1.12 0.64,-1.23 -0.83,-1.59 0.92,-2.24 2.24,0.91 0.7,-1.83 1.2,0.32 0.35,-0.96 0.99,-0.62 -0.36,-0.92 1.42,-0.85 1,0.11 1.17,-1.53 -0.02,-1.1 -1.02,-0.64 -1.33,-1.71 0,0 1.59,-1.2 0.62,0.17 0.33,-0.83 1.06,-0.28 0.13,-0.35 -0.46,-1.49 -0.68,-0.68 0.68,-2.67 -0.17,-0.97 0.72,-0.65 0.15,-0.95 0.7,-0.14 0.78,-0.63 1.42,-0.25 -0.01,-1.16 0.97,-0.35 -0.7,-0.48 0.02,-2.2 0.73,-0.32 0.35,-0.65 2.09,-0.77 0.97,-2.5 -0.61,-0.71 0.09,-1.05 -0.92,-1.2 -0.46,-1.48 -1.29,-1.56 0.12,-1.08 -0.32,-0.53 -1.11,-0.36 -0.79,0.34 -0.85,-0.94 -0.21,-0.8 -1.41,-0.57 -0.69,-0.65 -1.51,-0.5 -0.21,-1.09 -1.16,-0.78 -0.73,0.14 -0.96,-1.1 -1.23,-2.39 -1.22,-1.06 0,0 0.76,-2.35 0.89,-0.75 -0.01,-1.15 1.05,-1.17 2.65,-0.86 1.61,0.2 0.51,-0.51 1,0.02 0.21,-0.39 -0.27,-1.1 0.97,-1.26 1.91,-0.5 1.09,-1.34 1.84,-0.84 2.1,-2.74 2.62,-0.41 0.61,-1.56 1.18,-0.85 0.09,-1.71 -1.09,-1.15 -0.15,-0.84 0.32,-1.06 0.8,-0.82 -0.04,-1.73 1.5,-2.89 -0.55,-1.05 0.14,-1.79 -0.64,-1.21 0,-0.54 2.54,-1.89 -0.36,-1.45 -1.38,-0.61 0.27,-0.99 -0.32,-0.29 1.54,-0.69 0,0 0.79,0.37 1.21,-2.33 2.13,-0.69 0.83,0.52 1.34,0.19 1.1,-0.74 2.37,0.71 0.82,-0.99 1.14,-0.31 1.43,-1.19 1.21,-0.35 0.85,0.08 0.65,-0.76 0.98,0.2 0.17,0.95 0.43,0.16 1.57,-0.21 1.97,0.38 1.54,-1.1 1.23,-0.12 1.33,0.48 0.7,0.71 0.62,-0.1 1.17,0.83 0.97,-0.82 1.24,-0.23 0.23,0.94 0.81,0.58 2.55,-0.61 0.58,0.21 0.71,-0.19 1.19,0.95 0.74,0.06 2.83,-3.65 0,0 5.5,2.06 12.28,0.04 0.2,-7.42 0.8,-7.25 2.24,-0.13 0.31,0.31 z" 
                fill="rgb(151, 144, 238)" 
                stroke="white" 
                stroke-width=".7px"
                title="KwaZulu-Natal" 
                id="ZA-NL" 
            />
        </svg>