<svg xmlns="http://www.w3.org/2000/svg" viewBox="0.2512159300001585 0.2516164999999178 253.05000406999983 189.42000350000018" width="253.05000406999983" height="189.42000350000018">
            <path 
                d="m 32.241216,1.8516165 1.25,1.14 1.6,-0.26 0.82,0.35 2.6,2.34 2.4,-0.45 0.98,0.31 1.28,0.75 0.82,0.16 1.23,-0.01 0.74,0.09 1.91,0.32 1.11,-0.04 0.84,-0.54 0.85,-0.7 0.57,-0.33 2.28,1.46 2.38,0.31 1.14,0.71 1,1.42 1.21,0.52 1.27,0.45 2.09,0.3799995 2.89,1.04 0.94,0.08 1.8,-0.99 2.93,-3.5299995 0.95,-0.63 1.05,-0.21 0.77,-0.28 0.81,-0.48 1.18,-0.91 1.25,0.02 0.71,0.17 1.01,0.91 0.64,1.03 0.61,1.25 0.67,0.57 1.07,0.43 0.98,0.23 2.03,0.09 1.39,0.65 1.77,0.9699995 1.18,0.84 1.07,1.07 1.43,0.78 2.41,1.07 1.42,0.78 1.55,1.14 4.160004,-0.07 1.42,0.13 1.53,0.94 0.61,0.61 0.15,0.82 -0.42,1.52 0.07,0.48 0.51,0.63 1.06,0.38 1.08,0.68 0.88,0.84 1.21,2.75 1.57,0.55 1.85,-0.15 1.06,-0.36 0.67,-0.88 0.49,-0.38 0.73,-0.12 0.87,0.34 1.27,1.05 1.33,0.86 1.35,0.65 0.76,1.02 0.62,1.08 0.12,1.98 0.27,0.25 1.87,1.11 3.39,0.81 1.33,-0.06 0.59,-0.52 0.37,-0.91 0.54,-0.75 0.67,-0.62 0.74,-0.06 1.56,0.12 1.49,0.49 1.46,0.75 1.75,0.52 2.63,1.01 2.12,0.68 1.94,1 2.03,1.49 3.68,0.71 0.93,0.42 1.1,1 1.25,1.74 1.45,-0.08 0.89,0.06 -0.03,0.22 0.26,-0.51 1.04,-0.61 0.95,-0.91 1.3,-2.1 0.83,-0.54 0.52,0.14 0.68,0.36 0.44,0 1.23,-0.55 1.02,-0.13 0.74,0.21 1.47,1.35 0.31,7.04 0.31,0.61 0.59,0.32 0.85,0.19 2.79,0.45 0.79,-0.05 1.26,0.53 0.6,0.66 0.41,0.66 0.83,0.87 1.12,0.84 2.58,1.28 2.32,1.51 0.64,0.79 0.42,1.15 2.24,0.85 1.09,1.32 1.96,0.34 2.81,1.42 0.91,0.25 1.19,-0.16 1.09,-0.91 0.89,-0.09 0.51,0.19 3.09,1.65 0.46,0.33 0.92,0.22 0.9,0.04 0.98,-0.52 0.8,-0.91 0.6,-1.21 0.43,-0.25 0.57,0.03 1.42,0.93 1.76,1.83 2.22,0.64 1.42,0.13 2.48,1.15 0.63,-0.01 1.25,-0.28 2.55,-0.85 1.3,-0.79 0.55,-1.15 -0.69,-1.52 -0.14,-0.78 0.24,-0.8 0.39,-0.59 0.67,-0.2 0.74,0.14 1.46,1.5 3.12,1.37 2.37,0.22 0.66,0.27 0.46,0.53 0.91,1.53 0.59,0.45 0.92,-0.08 1.52,-0.76 2.46,-0.14 1.99,0.21 1.47,1.32 1.01,1.52 1.13,0.35 1.11,0.1 2.76,-1.67 2.7,-0.15 1.06,-0.35 2.82,-2.13 1.02,-0.07 1.14,0.37 0,0 -0.34,0.77 -0.29,1.16 -0.98,2 -0.26,1.01 -1.01,2.15 -0.13,0.62 -0.01,4.03 1.11,2.26 0.1,0.96 -0.47,1.16 -0.28,1.68 -1,2.07 -0.2,0.89 -1.91,3.93 -0.25,0.39 -1.66,1.71 -0.94,0.79 -1.13,0.65 -0.52,0.48 -0.33,0.48 -0.54,1.13 -0.17,0.61 -0.14,1.2 -0.46,0.95 -0.24,0.28 -0.41,0.18 -1.2,0.17 -0.95,0.34 -0.85,0.1 -2.22,0.05 -1.53,0.5 -1.96,0.17 -3.29,1.58 -1.76,0.31 -1.05,0.39 -1.8,0.14 -0.56,0.14 -2.45,1.14 -0.35,0.32 -0.21,0.43 0.05,0.55 0.4,1.060004 0.17,1.31 0.6,1.03 0.22,0.17 0.42,0.1 1.86,0.04 0.46,0.27 0.16,0.75 -0.1,0.63 -0.4,0.91 -0.14,0.65 0,3.78 0.28,0.68 0.41,0.41 0.59,0.29 0.4,0.48 0.15,0.46 0.08,1.8 0.17,0.57 0.87,0.9 0.16,0.51 -0.07,0.68 -0.68,1.47 -0.66,0.9 -1.03,0.39 -1.64,0.81 -0.7,0.74 -0.41,0.75 -0.66,0.84 -0.16,0.45 0.17,0.48 1.44,1.44 0,0.65 0.56,1.6 0.12,2.88 0.09,0.48 0.36,0.74 0.08,0.48 0.04,6.92 0.1,1.16 0.39,0.89 0.26,1.02 0.4,0.68 2.36,2.42 0.52,0.94 0.66,0.86 0.3,0.62 0.1,0.73 -0.02,2.54 -0.08,0.56 -0.39,0.96 -0.26,1.62 -0.37,0.91 -0.26,1.01 -0.6,0.67 -1.12,0.58 -2,0.68 -1.11,1.36 -0.89,1.83 -1.56,1.81 -0.57,1.02 -2.43,2.5 -0.85,1.37 -1.74,1.72 -0.9,0.48 -1.02,0.77 -0.99,0.54 -1.75,1.47 -1.01,0.54 -1.04,0.8 -7.51,3.66 -1.86,0.29 -0.87,0.35 -0.9,0.2 -1.42,0.63 -0.44,0.32 -0.5,0.55 -0.8,1.3 -2.25,2.3 -0.33,0.44 -0.33,0.67 -0.75,0.86 -2.9,1.47 -3.07,1.43 -2.46,1.33 0,0 -0.29,-1.1 -0.13,-1.33 -0.3,-1.46 -0.26,-1.68 -0.3,-2.08 -0.45,-4.03 -0.07,-1.29 -0.23,-1.46 -0.16,-2.13 -0.13,-1.06 -0.99,-6.29 -0.19,-0.98 -0.3,-1.15 -0.2,-0.49 -0.26,-1.46 -0.16,-0.76 -0.13,-0.85 -0.43,-0.97 -0.3,-1.02 -0.68,-2.44 -0.27,-2 -2.88,-8.62 -0.79,-2.31 -0.92,-1.86 -0.26,-0.58 -0.2,-0.62 -0.39,-0.76 -0.92,-1.56 -0.95,-1.06 -0.46,-0.05 -1.21,0.27 -0.1,0.04 -0.29,-0.71 -0.4,-0.31 -0.39,-0.67 -0.75,-0.93 -1.41,-0.85 -1.81,-0.58 -0.88,0.05 -0.53,0 -0.72,-0.22 -0.52,-0.14 -0.59,-0.13 -0.4,-0.27 -0.95,-0.4 -0.49,-0.13 -0.52,-0.14 -0.53,-0.04 -0.33,0.13 -0.32,0 -0.79,-0.13 -0.52,-0.22 -0.73,-0.54 -0.59,-0.53 -1.05,-0.8 -0.91,-0.22 -0.66,-0.27 -0.82,-0.27 -0.59,-0.13 -1.7,-0.45 -0.69,-0.22 -0.69,-0.18 -0.62,-0.4 -1.25,-0.35 -1.74,-0.09 -1.14,0.35 -0.3,0.14 -0.56,0.44 -0.62,0.54 -0.59,0.31 -0.56,0 -0.46,-0.12 -0.52,-0.11 -0.79,-0.26 -0.95,-0.14 -0.36,-0.08 -0.52,-0.54 -0.1,-0.22 -0.36,-0.94 -0.07,-0.71 -0.19,-0.27 -0.3,-0.17 -0.43,-0.58 -0.36,-0.45 -0.75,-0.53 -0.16,-0.27 -0.07,-0.53 -0.79,-0.98 -0.69,-0.5 -0.29,-0.53 -0.43,-1.34 -0.06,-1.07 -0.2,-1.24 -0.29,-1.07 -0.23,-1.56 -0.23,-1.92 -0.72,-4.06 -0.37,-1.83 -0.42,-2.01 -0.43,-1.11 -0.52,-1.16 -0.23,-0.89 -0.23,-0.5 -0.43,-0.890004 -0.23,-0.4 -0.36,-0.54 -0.36,-0.58 -0.23,-0.8 -0.36,-0.58 -0.85,-0.81 -0.56,-0.53 -1.15,-0.45 -0.91,0.05 -0.2,0.35 -0.75,0.27 -1.48,-0.22 -0.95,0.04 -0.66,0.72 -0.23,0.22 -0.46,0.49 -0.29,0.32 -0.49,0.49 -0.66,0.18 -0.56,-0.23 -0.22,-0.18 -0.2,-0.22 -0.36,-1.16 -0.59,-0.63 -0.89,-0.98 -0.29,-0.36 -0.92,-0.44 -0.13,-0.18 -0.33,-0.9 -0.29,-0.76 -0.17,-0.35 -1.08,-1.39 -0.49,-0.45 -1.12,-0.66 -0.39,-0.76 -0.52,-0.23 -0.27,-0.71 -0.26,-0.45 -0.39,-0.63 -0.63,-1.07 -0.72,-0.89 -0.36,-0.41 -1.41,-1.2 -0.69,-0.23 -1.670004,-0.09 -1.15,-0.58 -1.57,-0.36 -1.44,-0.04 -0.33,-0.18 -0.43,0 -0.45,0.13 -0.56,0.32 -0.33,0 -0.39,-0.14 -0.23,-0.22 -0.89,-0.22 -2.95,-0.41 -2.23,0.05 -0.65,0.22 -0.89,0.09 -0.39,0 -1.38,-0.18 -0.56,-0.13 -0.46,0 -0.36,0.18 -0.72,-0.05 -0.78,-0.13 -1.74,-0.76 -1.22,-0.99 -1.14,-0.26 -0.43,-0.18 -0.36,0 -1.25,0.62 -2.39,0.67 -1.44,0.32 -1.31,0.09 -0.76,-0.05 -0.36,-0.13 -0.49,-0.32 -1.38,-1.65 -0.59,-1.16 -0.49,-0.63 -0.88,-1.16 -0.23,-0.54 -0.43,-0.67 -0.33,-0.27 -0.75,-0.49 -0.39,-0.41 -0.37,-0.4 -0.52,-0.36 -0.75,-0.31 -0.53,-0.05 -0.59,0 -0.46,0.05 -0.26,0.22 -0.52,0 -0.89,-0.04 -0.39,-0.18 -0.33,0 -0.33,0.09 -0.33,0.27 -0.26,0.18 -0.26,0.13 -0.49,-0.54 -0.2,-0.49 -0.43,-0.36 -0.79,-0.45 -0.32,-0.18 -0.3,-0.13 -0.45,0 -0.27,0.13 -0.85,-0.35 -0.36,-0.27 -0.52,-0.58 -0.43,-0.23 -0.26,-0.04 -0.46,-0.18 -0.63,-0.54 -0.22,-0.36 -0.4,-0.27 -1.28,-0.67 -1.05,-0.09 -1.44,0.36 -1.08,0.63 -0.43,0.36 -0.42,0.4 -0.59,0.81 -0.33,0.4 -0.59,0.54 0.06,0.4 0.04,0.27 -0.17,0.31 -0.13,0.14 -0.39,-0.09 -0.66,-0.54 -0.46,-0.72 -0.55,-0.36 -0.63,-0.58 -0.45,-0.4 -0.89,-1.3 -0.39,-0.31 -0.79,0 -0.36,-0.18 -0.76,-0.81 -0.39,-0.45 -0.26,-0.22 -0.76,-0.72 -0.16,-0.36 -0.43,-2.24 -0.39,-5.94 -0.46,-3.97 -0.66,-3.14 -0.52,-1.97 -0.49,-1.48 -0.49,-1.04 -0.46,-0.67 -0.33,-0.31 -0.75,-0.45 -1.02,-0.41 -0.49,-0.09 -0.26,-0.04 -0.3,-0.23 -0.29,-0.36 -0.63,-0.31 -0.52,-0.27 -1.94,-0.31 -0.65,-0.27 -1.51,-0.36 -1.15,-0.54 -1.08,-0.72 -2.36,-1.93 -0.72,-0.36 -1.18,0.04 -0.13,-0.13 -0.03,-0.18 -1.54,-1.04 -0.79,-0.49 -0.17,-0.09 -1.5700001,-1.03 -0.82,-0.23 -1.47,0 -1.48,-0.09 -1.93,-0.45 -1.09,-0.31 -0.64999997,-0.23 -0.64,0.05 -0.1,-2.24 0.57,-2.59 -0.15,-1.26 0.26,-0.88 0.56999997,-0.77 2.03,-3.86 0.33,-1.17 0.52,-2.91 0.71,-0.82 1.34,-1.78 0.12,-0.94 0.38,-0.85 0.78,-0.67 2.5000001,-2.5999995 0.4,-0.95 -0.04,-0.71 -0.6200001,-1.68 0.03,-1.2 0.4000001,-1.04 0.58,-0.71 0.57,-0.13 2.12,0.48 1.18,-0.19 1.47,-0.57 1.72,-0.8 1.7,-0.39 0.78,0.01 1.16,0.44 2.31,-0.04 0.86,-0.33 0.86,-0.69 1.13,-0.41 1.45,-0.12 1.72,0.27 z" 
                fill="rgb(151, 144, 238)" 
                stroke="white" 
                stroke-width=".7px"
                title="Abkhazia" 
                id="GE-AB" 
            />
        </svg>