<svg xmlns="http://www.w3.org/2000/svg" viewBox="181.67122000000006 269.37162 122.88000000000005 73.92999999999984" width="122.88000000000005" height="73.92999999999984">
            <path 
                d="m 207.90122,269.58162 0.31,-0.21 0.88,0.07 0.63,0.09 0.91,0.38 0.49,0.1 6.16,0.05 0.66,0.13 0.92,0.39 0.5,0.09 5.14,0.03 1.04,0.15 2.6,1.24 0.57,0.82 0.07,0.73 -0.07,3.03 0.09,0.44 0.28,0.35 0.45,0.12 0.8,0.03 3.21,-0.06 0.92,0.2 0.5,0.34 0.35,0.38 0.72,1.19 0.44,0.54 0.5,0.32 1.2,0.35 0.59,0.28 1.96,0.32 0.82,0.44 0.29,0.25 0.17,0.54 0.09,1.23 0.35,0.47 0.41,0.07 0.52,-0.16 3.16,-1.58 0.99,-0.22 1.2,-0.45 0.5,-0.06 4.1,0.03 0.83,0.03 0.48,0.14 2.52,1.19 0.59,0.6 0.64,1.2 0.54,1.52 1.39,-0.41 0.9,-0.39 2.26,-0.24 0.76,-0.32 0.85,-0.2 6.04,0.1 2.84,-2.72 2.3,-1.17 1.74,-1.46 0.44,-0.15 0.47,-0.05 2.61,0.01 0.79,0.09 0.42,0.2 1.73,1.65 0.47,0.62 1.46,3.01 0.48,0.49 0.42,0.16 0.47,0.05 4.09,0.03 0,0 0.28,1.16 1.63,3.21 0.12,0.45 0.03,0.65 0.02,3.42 -0.11,0.81 -0.39,0.64 -1.7,1.68 -0.33,0.68 -0.05,1.5 0.14,0.58 0.41,0.85 0.18,0.83 1.38,2.77 1.51,1.73 0.47,0.85 0.42,0.35 1.92,0.91 0.85,0.75 1.24,2.39 2.22,2.21 0.38,0.47 0.24,0.56 0.19,1.45 0.35,0.72 0.48,1.31 0.82,2.69 0,0 -0.61,0.35 -0.5,0.65 -0.22,0.69 0.08,1.79 -0.14,0.94 -1.46,2.99 0.36,0.5 0.15,1.76 -0.79,0.33 -0.75,0.68 -0.89,1.73 -1.54,-0.13 -0.5,0.43 -0.14,0.83 -0.47,0.46 -0.86,0.3 -0.36,0.36 -0.71,1.65 1.27,2.15 0.29,1.25 -0.03,0.58 -0.32,0.5 -0.79,0.04 -1.08,-0.89 -0.93,0.04 -2.98,0.91 -2.87,-0.16 -0.9,-0.39 -1.15,-1.14 -1.77,-1.1 -0.83,-1.47 -2.62,0.05 -1.68,0.27 -1.05,-0.61 -1.19,-0.71 -1.36,0.12 -0.79,0.18 -1.04,-0.42 -0.87,-1.07 -0.87,-0.53 -0.86,-0.28 -1.7,-1.32 -0.83,-0.17 -2.08,0.34 -1.69,-0.64 -4.77,0.22 -0.65,0.33 -0.66,-1.93 -0.36,-0.36 -0.61,-0.21 -0.73,-0.78 -1.47,-0.06 -2.29,0.88 -0.76,0.01 -1,0.15 -0.9,0.3 -1.07,0.08 -0.23,-1.11 -0.79,-0.14 -1.14,0.7 -1.77,-0.38 -0.96,0.37 -3,2.18 -0.64,0.15 -0.8,-0.24 -2.71,-1.48 -0.97,-0.13 -1.58,0.02 -0.5,-0.07 -0.37,-0.64 -0.04,-0.86 -1.42,-1.43 -2.58,0.11 -0.92,1.26 -2.89,2.01 -0.57,0.23 -1.25,0.3 -0.49,1.37 -0.82,0.73 -0.06,1.22 -1.23,1.44 -0.81,1.42 -3.15,1.01 -0.24,0.83 -1.01,1.44 -1.61,0.89 -0.54,-0.02 -0.95,-1.25 -0.48,-0.96 -1.3,-0.59 -1.15,-0.31 -0.3,-1.11 -0.76,-0.42 -1.59,-0.7 -1.63,-0.8 -3.01,0.11 -1.52,-0.33 -0.25,-0.5 0.27,-0.76 0.57,-0.44 0.1,-0.61 -0.33,-0.71 -1.16,-0.53 -3.89,1.71 -1.43,0.35 -1.04,0.16 -1.05,-0.45 -2.97,-1.97 -1.53,-1.41 -2.97,-1.1 -0.48,-0.79 -0.9,-0.34 -1.58,-0.12 -1.12,-0.52 0.1,-1.17 0.13,-0.22 0.23,-0.26 0.06,-0.57 0.2,-0.18 0.26,-0.04 0.23,-0.17 0.4,-0.35 0.23,-1.01 0.16,-1.35 0.1,-1.83 -0.03,-1.53 0.32,-1.84 0.59,-1.74 0.63,-0.88 0.42,-0.39 0.2,-0.35 0.29,-0.61 0.56,-0.74 0.49,-0.4 0.66,-0.87 0.23,-0.44 1.02,-1.27 1.14,-1.09 1.08,-0.96 0.5,-0.31 0.19,-0.08 0.43,0 0.39,0.17 0,0.44 0.13,0.39 0.27,0.66 0.68,-0.13 0.43,0.13 -0.06,-0.31 0.06,-0.3 0.3,-0.27 0.19,0.35 0.53,0.05 0.52,-0.35 0.17,-0.13 0.36,-0.48 0.29,-0.31 0.53,-0.88 0.65,-0.69 0.72,-1.05 0.69,-1.23 0.49,-0.87 0.27,-0.48 0.16,-0.57 0.23,-0.18 0.39,-0.04 0.26,-0.57 0.46,-0.66 0.43,-1.18 0.43,-1 1.21,-3.37 0.82,-2.98 0.46,-0.26 0.23,-0.27 0.32,-0.79 0.53,-0.74 0.75,-2.01 0.14,-0.66 0.81,-2.24 0.23,-0.96 0.56,-3.86 0.13,-2.15 0.17,-2.45 -0.1,-0.92 -0.63,-2.72 -0.03,-0.84 -0.13,-0.65 z" 
                fill="rgb(151, 144, 238)" 
                stroke="white" 
                stroke-width=".7px"
                title="Ajaria" 
                id="GE-AJ" 
            />
        </svg>