<svg xmlns="http://www.w3.org/2000/svg" viewBox="200.03121999999982 228.85162000000003 111.65 58.35999999999984" width="111.65" height="58.35999999999984">
            <path 
                d="m 206.09122,233.21162 0.59,-0.37 0.42,-0.12 1.35,-0.2 0.9,-0.35 0.63,-0.09 8.01,0.07 0.61,-0.07 1.41,-0.42 2.21,-0.25 0.91,-0.35 1.77,-0.31 1.85,-0.85 0.66,-0.2 5.67,0.01 0.67,-0.12 0.76,-0.33 2.42,-0.41 1.45,0.79 1.68,0.25 0.92,0.38 1.63,0.26 0.89,0.38 1.07,0.28 0.82,0.65 2.88,2.9 0.92,0.6 1.63,0.23 0.76,0.35 0.47,0.09 5.26,0.06 1.11,0.13 0.9,0.42 0.97,0.22 1.09,0.6 0.3,0.42 0.35,0.95 0,0 -0.98,0.53 -0.74,0.54 -0.91,0.97 -0.17,0.28 -0.11,0.44 -0.06,1.48 0.16,0.47 1.26,2.5 0.58,0.58 1.12,0.56 0.45,0.13 3.21,0.06 0.81,0.13 1.39,0.71 1.11,0.84 0.61,0.2 0.49,0.05 0.64,0 0.7,-0.22 0.58,-0.86 0.38,-0.89 0.47,-0.78 0.17,-0.19 0.42,-0.17 0.98,-0.05 2.95,0.08 0.49,0.11 0.89,0.38 1.04,0.19 0.67,0.23 1.74,3.5 0.24,1.59 0.39,0.89 0.28,1.14 0.66,1.39 0.63,0.97 0.69,0.2 1.96,0 0.78,0.09 2.81,1.34 1.53,0.84 2.59,2.45 0.43,0.21 0.87,0.19 0.91,0.38 1.26,0.36 0.62,0.48 1.37,1.34 0.67,0.4 0.94,0.11 5.69,-0.04 0.84,0.06 0.62,0.21 0.48,0.47 1.13,1.7 0.2,0.65 0.04,8.48 0.18,0.98 0.36,0.91 0.14,2.12 0,0 -3.19,-0.03 -0.61,0.13 -0.57,0.35 -0.81,0.77 -0.49,0.64 -0.59,1.26 -0.18,1.44 -0.13,0.44 -0.54,0.87 -0.35,0.22 -1.23,0.19 -1.06,0.41 -0.73,0 -0.71,-0.31 -1.45,-1.28 -0.46,-0.18 -0.5,-0.06 -2.22,0 -0.65,0.14 -0.74,0.34 -0.31,0.05 -2.31,0.1 0,0 -4.09,-0.03 -0.47,-0.05 -0.42,-0.16 -0.48,-0.49 -1.46,-3.01 -0.47,-0.62 -1.73,-1.65 -0.42,-0.2 -0.79,-0.09 -2.61,-0.01 -0.47,0.05 -0.44,0.15 -1.74,1.46 -2.3,1.17 -2.84,2.72 -6.04,-0.1 -0.85,0.2 -0.76,0.32 -2.26,0.24 -0.9,0.39 -1.39,0.41 -0.54,-1.52 -0.64,-1.2 -0.59,-0.6 -2.52,-1.19 -0.48,-0.14 -0.83,-0.03 -4.1,-0.03 -0.5,0.06 -1.2,0.45 -0.99,0.22 -3.16,1.58 -0.52,0.16 -0.41,-0.07 -0.35,-0.47 -0.09,-1.23 -0.17,-0.54 -0.29,-0.25 -0.82,-0.44 -1.96,-0.32 -0.59,-0.28 -1.2,-0.35 -0.5,-0.32 -0.44,-0.54 -0.72,-1.19 -0.35,-0.38 -0.5,-0.34 -0.92,-0.2 -3.21,0.06 -0.8,-0.03 -0.45,-0.12 -0.28,-0.35 -0.09,-0.44 0.07,-3.03 -0.07,-0.73 -0.57,-0.82 -2.6,-1.24 -1.04,-0.15 -5.14,-0.03 -0.5,-0.09 -0.92,-0.39 -0.66,-0.13 -6.16,-0.05 -0.49,-0.1 -0.91,-0.38 -0.63,-0.09 -0.88,-0.07 -0.31,0.21 0,0 -0.07,-0.85 -0.19,-0.97 -0.17,-0.39 -0.23,-3.43 -0.19,-3.12 -0.46,-3.82 -0.04,-2.29 0.07,-0.83 -0.3,-0.66 -0.36,-1.58 0.04,-0.57 0.19,-0.22 0.2,-1.23 -0.13,-0.05 -0.26,0.62 -0.1,0.7 -0.23,0.09 -0.62,-0.97 -0.2,-0.7 -0.56,-0.18 -0.23,-0.57 -0.42,-0.62 -0.2,-0.44 -0.82,-1.89 -0.26,-1.1 -1.08,-1.89 -0.27,-0.48 -0.06,-0.44 -0.36,-0.57 -0.17,-0.45 -0.39,-0.48 0,-0.26 0.16,-0.31 0.27,0 0.23,0.04 -0.07,-0.44 0.03,-0.13 0.17,-0.13 0.16,0 0,0.44 0.33,0.83 0.1,0.31 0,0.53 0.23,0.31 0.16,0.44 0,0.22 -0.13,0.17 -0.1,0.49 0.43,0.26 0.23,0.05 0.09,-0.22 0.37,0.08 0.29,0.75 0.13,0 0.23,-0.39 0.13,-0.14 0,-0.3 -0.19,-0.36 -0.07,-0.17 0,-0.22 0.13,-0.27 0.23,0.05 0.13,-0.13 -0.1,-0.22 -0.26,-0.05 -0.03,-0.13 0.13,-0.17 0.39,-0.23 0.13,-0.13 0,-0.13 -0.13,-0.22 -0.46,0.04 -0.19,-0.08 -0.13,-0.44 -0.13,-0.44 -0.66,-0.14 -0.13,-0.3 -0.4,-0.09 -0.09,-0.35 -0.27,0.08 -0.13,-0.3 0.2,-0.36 0.2,0 0.16,0 0.43,0.18 0.32,0.13 0.37,-0.17 0.19,-0.09 0.23,-0.09 0.89,-0.31 0.65,-0.31 0.56,0 0.33,-0.04 0.23,-0.13 0.23,-0.31 0.16,-0.44 -0.13,-0.62 0,-0.75 0.13,-0.26 0.3,-0.09 0.23,-0.09 0.39,-0.13 0.29,-0.13 0,-0.18 -0.32,-0.26 -0.27,-0.09 -0.39,-0.09 -0.16,-0.04 -0.23,-0.18 z" 
                fill="rgb(151, 144, 238)" 
                stroke="white" 
                stroke-width=".7px"
                title="Guria" 
                id="GE-GU" 
            />
        </svg>