<svg xmlns="http://www.w3.org/2000/svg" viewBox="259.06121999999993 170.7516199999998 185.36999999999978 114.8199999999998" width="185.36999999999978" height="114.8199999999998">
            <path 
                d="m 307.52122,170.92162 1.28,1.52 0.28,0.75 -0.01,1.47 -0.12,0.46 -0.44,1.04 -0.08,1.78 0.17,0.94 0.9,1.23 0.19,0.6 0.03,2.93 -0.12,1.42 1.27,0.16 1.19,-0.09 0.89,-0.38 1.14,-0.29 0.75,-0.33 1.15,-0.27 1.14,-0.53 0.63,-0.53 1.07,-2.1 0.31,-0.28 0.42,-0.17 1.21,0.03 1.17,0.49 1.5,0.21 0.52,0.3 1.27,1.16 0.23,0.16 0.62,0.17 0.99,0 1.23,-0.45 1.07,-0.16 0.26,-0.11 0.22,-0.25 0.31,-1.59 0.42,-1.23 0.2,-0.36 0.49,-0.16 0.42,0.03 2.23,0.9 0.19,0.18 0.55,0.98 0.66,0.68 0.27,0.17 1.51,0.28 0.17,0.1 0.06,0.16 1.42,0.44 1.27,0.91 1.03,0.59 5.31,5.22 0.55,0.75 0.29,1.13 0.38,0.89 0.17,2.75 0.38,0.88 0.21,0.77 0.15,0.22 0.36,0.18 0.42,0.05 2.82,-0.01 0.72,0.17 2.53,1.28 1.5,1.32 1.15,0.67 1.1,1.03 0.46,0.28 0.28,0 0.24,-0.11 1.19,-1.09 0.53,-0.29 1.98,-0.15 1.03,-0.42 0.59,-0.11 1.09,0.02 0.91,0.25 1.21,-0.75 1.79,-0.26 1.39,-0.67 1.13,-0.86 0.9,-0.47 1.57,-1.45 0.64,-0.81 0.86,-1.77 0.35,-0.41 4.23,-2.13 1.02,-0.96 0.09,-0.44 0.13,-0.21 0.57,-0.25 1.82,-0.01 1.95,0.13 1.4,-0.16 1.04,-0.41 0.64,-0.11 6.03,0.01 0.81,0.14 0.75,0.35 1,0.25 1.04,0.43 1.95,0.19 1.22,0.47 1.3,0.11 0.81,-0.09 0.9,-0.39 1.14,-0.29 0.76,-0.33 1.62,-0.25 1.06,-0.43 1.15,-0.06 0.62,0.16 5.67,2.85 1.62,0.26 1.19,0.46 1.6,0.15 0,0 1.78,1.76 0.77,0.54 1.63,0.26 0.89,0.38 0.46,0.1 2.93,0.13 1.03,0.43 0.59,0.1 0.72,-0.13 2.39,-1.19 1.86,-1.56 1.55,-0.73 0.97,-0.1 1.49,0.05 0.59,0.16 0.82,0.46 0.29,0.26 0.62,1.03 0.6,1.26 0.09,0.59 -0.1,0.58 -0.35,0.73 -0.29,1.13 -0.36,0.74 -0.28,1.13 -0.95,1.85 -0.14,0.41 -0.04,0.75 0.08,0.6 0.41,0.88 0.34,1.04 -1.26,0.24 -1.05,0.41 -1.62,0.24 -1.27,0.61 -1.1,0.82 -0.43,0.2 -0.82,0.1 -2.72,-0.03 -0.77,0.19 -0.52,0.38 -0.69,0.7 -0.4,0.5 -0.49,0.93 -1,1.06 -0.65,0.47 -1.79,0.83 -0.51,0.46 -0.69,1.35 -0.24,1 -0.4,0.87 -0.08,0.43 0.08,0.73 0.36,0.73 0.3,1.12 0.4,0.89 0.09,0.77 -0.02,3.36 -0.13,0.6 -0.42,1.02 -0.13,1.69 -2.41,1.17 -0.59,0.57 -0.61,1.24 -0.27,1.14 -0.35,0.73 -0.23,1.62 -0.39,0.88 -0.33,1.25 -0.64,1.25 -1.42,1.59 -0.73,1.22 -0.87,0.73 -4.33,2.06 -0.69,0.5 -0.11,1.04 -0.38,0.88 -0.13,0.79 0.02,8.55 -0.1,0.96 -0.4,0.57 -1.13,0.66 -1.98,1.77 -0.93,0.5 -0.52,0.39 -1.21,1.16 -0.61,0.76 -0.63,1.24 -0.13,0.95 0.07,1.13 0.47,1.18 0.11,1.05 0,0 -1.07,0.09 -1.03,0.41 -1.35,0.15 -0.42,0.12 -1.4,0.71 -1.74,1.63 -0.64,0.43 -1.64,0.24 -1.03,0.4 -1.35,0.15 -0.42,0.12 -1.4,0.7 -1.61,1.4 -2.54,1.23 -0.42,0.12 -1.49,0.19 -0.75,0.34 -1.15,0.27 -0.75,0.34 -1.15,0.27 -0.75,0.34 -1.01,0.22 -0.89,0.39 -1.14,0.26 -7.06,3.43 -1.58,0.68 -1.49,-0.69 -1.29,-0.73 -0.69,0.15 -1.49,0.13 -1.55,0.5 -3.98,0.05 -1.7,0.53 -3.21,0.05 -0.63,0.11 -1.07,0.39 -1.78,0.13 -0.46,0.15 -0.4,0.27 -1.32,1.31 -1.42,0.06 -1.01,-0.1 -0.27,-0.09 -3.01,-1.52 -0.44,-0.13 -0.83,-0.08 -3.12,0.03 -0.84,-0.06 -0.62,-0.16 -2.02,-0.98 -0.67,-0.1 -2.22,0 -0.7,0.15 -3.75,1.79 -0.65,0.49 -1.56,1.49 -0.42,0.25 -1.32,0.16 -1.21,-0.02 -1.01,-0.14 -2.3,-1.06 -0.75,-0.09 -1.29,0.02 -0.64,-0.47 -0.71,-1.21 -2.03,-2.08 0,0 -0.14,-2.12 -0.36,-0.91 -0.18,-0.98 -0.04,-8.48 -0.2,-0.65 -1.13,-1.7 -0.48,-0.47 -0.62,-0.21 -0.84,-0.06 -5.69,0.04 -0.94,-0.11 -0.67,-0.4 -1.37,-1.34 -0.62,-0.48 -1.26,-0.36 -0.91,-0.38 -0.87,-0.19 -0.43,-0.21 -2.59,-2.45 -1.53,-0.84 -2.81,-1.34 -0.78,-0.09 -1.96,0 -0.69,-0.2 -0.63,-0.97 -0.66,-1.39 -0.28,-1.14 -0.39,-0.89 -0.24,-1.59 -1.74,-3.5 -0.67,-0.23 -1.04,-0.19 -0.89,-0.38 -0.49,-0.11 -2.95,-0.08 -0.98,0.05 -0.42,0.17 -0.17,0.19 -0.47,0.78 -0.38,0.89 -0.58,0.86 -0.7,0.22 -0.64,0 -0.49,-0.05 -0.61,-0.2 -1.11,-0.84 -1.39,-0.71 -0.81,-0.13 -3.21,-0.06 -0.45,-0.13 -1.12,-0.56 -0.58,-0.58 -1.26,-2.5 -0.16,-0.47 0.06,-1.48 0.11,-0.44 0.17,-0.28 0.91,-0.97 0.74,-0.54 0.98,-0.53 0,0 0.9,-0.15 0.69,0.02 0.49,0.1 0.9,0.38 0.84,0.01 0.47,-0.2 0.95,-0.69 0.64,-0.35 0.36,-0.32 0.18,-0.28 0.13,-0.49 0.1,-1.53 0.45,-1.23 0.11,-1.21 -0.01,-11.22 -0.12,-0.85 -0.47,-1.18 0.09,-0.6 0.33,-0.29 1.5,-0.48 1.37,-0.2 0.34,-0.27 0.16,-0.57 0.01,-0.99 -0.09,-1.02 -0.21,-0.76 1.08,-2.02 1.03,-1.57 1.11,-1.38 1.03,-2.03 0.94,-1.21 2.93,-5.77 1.3,-1.29 1.04,-0.56 0.49,-0.38 2.2,-2.13 0.74,-0.82 0.67,-1.15 1.57,-1.59 0.38,-0.49 0.15,-0.43 0.06,-0.61 -0.04,-6.69 0.05,-0.77 0.16,-0.41 0.39,-0.39 1.89,-0.88 0.33,-0.25 0.24,-0.34 0.15,-0.79 -0.01,-3.01 0.18,-0.61 0.74,-0.79 1.17,-0.64 0.58,-0.52 0.37,-0.5 0.84,-1.76 0.26,-0.32 0.34,-0.24 0.97,-0.15 4.6,0.05 0.77,-0.21 0.98,-0.73 0.55,-0.24 1.43,-0.07 z" 
                fill="rgb(151, 144, 238)" 
                stroke="white" 
                stroke-width=".7px"
                title="Imereti" 
                id="GE-IM" 
            />
        </svg>