<svg xmlns="http://www.w3.org/2000/svg" viewBox="591.6012199999994 164.95162000000016 200.64999999999975 236.16999999999985" width="200.64999999999975" height="236.16999999999985">
            <path 
                d="m 782.44122,394.45162 -2.41,-0.06 -0.95,0.81 -1.34,-0.14 -1.88,-2.15 -2.7,-1.08 -2.82,-0.67 -2.29,1.62 -3.36,4.84 -1.62,3.1 -1.61,0.4 -2.69,-3.57 -0.54,-3.36 -2.69,-1.08 -2.56,1.35 -2.15,0 -3.69,-4.65 -1.7,-2.48 -3.76,-4.58 -3.5,-3.23 -6.87,-0.27 -4.71,0.54 -2.69,-1.34 -1.88,0 -0.61,0.72 -2.21,0.59 -0.83,3.05 -1.61,0.9 -1.9,-0.71 -1.46,-0.27 -3.04,0.17 -2.64,-0.28 -1.09,0.32 -2.33,0.38 -3.82,-0.25 -3.05,-1.72 -2.49,-2.24 -2.74,-1.46 -2,-0.93 -1.42,-0.37 -2.83,0.11 -1.74,-0.34 -2.19,-0.83 -2.41,-1.87 -2.56,-1.28 -3.32,-2.26 -3.11,-4.38 -1.24,-1.83 -0.47,-0.85 0.03,-0.53 0.35,-0.68 0.64,-0.14 0.61,-0.89 0.57,-1.29 0.74,-0.57 0.49,-0.67 0.52,-0.24 0.61,-0.13 1.82,-0.06 0.62,-0.2 0.27,-0.42 -0.16,-0.48 -1.81,-1.78 -0.72,-0.84 -0.68,-0.05 -2.48,1.54 -0.87,-0.09 -1.17,-0.4 -3.16,-1.91 -1.32,-0.32 -2.09,0.18 -2.14,0.62 -1.97,-0.77 -0.66,-0.5 -0.63,-0.75 -0.4,-2.34 -0.56,-1.3 -1.58,-0.73 -3.93,-0.96 -2.27,-0.79 -1.06,-0.64 -0.66,-0.63 -1.97,-2.36 -0.85,-0.46 -0.93,-0.13 -0.93,0 -0.54,-0.12 -1.86,2.28 -0.96,0.9 -0.7,0.45 -0.9,0.12 -0.9,-0.07 -2.96,-1.85 -2.56,-1.87 -1.78,-1.88 0,0 -0.33,-1.22 -2.21,-4.28 0.01,-0.56 0.85,-1.74 -0.05,-0.37 -0.42,-0.54 -1.87,-1.79 -0.75,-0.46 -1.01,-0.23 -1.04,-0.42 -2.93,-0.11 -1.5,-0.51 -1.53,-0.09 -0.58,-0.12 -0.35,-0.24 -0.26,-0.31 -1.24,-2.47 -0.11,-0.58 0.02,-0.75 0.11,-0.43 0.41,-0.85 0.03,-0.72 -0.11,-0.41 -1.62,-3.05 -0.09,-0.43 0.05,-0.59 0.29,-0.53 1.68,-1.67 0.78,-1.25 1.43,-1.57 0.63,-1.22 0.07,-0.4 -0.08,-0.41 -0.32,-0.72 -0.22,-1.46 -0.39,-0.88 -0.29,-1.12 -0.34,-0.73 -0.25,-1.6 -0.47,-1.17 -0.05,-3.02 -0.09,-0.77 -1.68,-3.36 -0.27,-1.13 -0.33,-0.74 -0.21,-0.76 -0.15,-0.22 -0.24,-0.14 -0.88,-0.1 -2.61,0.07 -0.45,0.11 -0.73,0.35 -0.44,0.09 -0.59,-0.05 -0.38,-0.2 -0.36,-0.41 -0.92,-1.89 -1.4,-1.58 -0.51,-0.91 -0.85,-1.09 -1.74,-3.4 -1.34,-1.38 -0.91,-0.66 0,0 0,-1.79 -0.08,-0.74 -0.82,-1.65 -0.79,-0.76 -0.92,-0.49 -1.11,-0.84 -1.58,-0.61 5.7,-5.51 0.26,-0.12 0.44,-0.04 1.38,0.63 0.82,0.66 1.73,1.73 0.7,0.54 1.28,0.6 1.64,0.25 1.01,0.4 0.55,-0.07 2,-0.96 1.99,-0.14 1.17,-0.45 1.94,-0.24 -0.35,-1.04 -0.8,-1.51 -1.93,-1.99 -1.01,-0.78 -1.14,-0.3 -1.04,-0.41 -2.32,-0.12 -1.48,-0.51 -1.98,-0.18 -1.04,-0.42 -1.65,-0.25 -0.74,-0.33 -0.78,-0.22 -0.3,-0.25 -0.25,-1.35 -0.38,-0.88 -0.1,-0.44 -0.05,-0.91 0.07,-0.76 0.24,-0.55 0.76,-0.95 0.51,-0.88 1.33,-1.44 0.13,-0.26 0.04,-0.43 -1.01,-2.08 -0.28,-1.14 -0.61,-1.25 -0.48,-0.63 -1.38,-1.34 -0.27,-0.47 0.06,-0.47 1.2,-2.39 0.08,-0.47 -0.45,-1.09 -1.58,-2.93 -0.13,-0.54 0.05,-0.28 0.22,-0.39 1.69,-1.66 0.39,-0.66 0.15,-2.58 0.42,-1.01 0.13,-0.6 0.08,-3.36 0.46,-1.17 0.21,-1.47 0.37,-0.88 0.3,-1.12 0.56,-0.76 1.99,-1.93 0.4,-0.67 0.1,-0.93 -0.04,-3.68 0.05,-0.46 0.16,-0.44 0.49,-0.61 3.36,-3.31 0.59,-1.03 0.84,-1.1 0.58,-0.95 0.48,-0.29 0.99,-0.23 0.75,-0.32 1.65,-0.22 0.9,-0.37 1.13,-0.28 0.52,-0.43 1.27,-2.47 0.17,-0.72 0,-0.61 -0.08,-0.44 -0.39,-0.89 -0.24,-1.39 -0.45,-0.91 -0.23,-0.7 -0.95,-1.86 -0.13,-0.42 -0.08,-3.53 0.09,-0.94 0.3,-0.54 0.32,-0.34 0.49,-0.37 1.05,-0.56 1.89,-1.72 1.11,-0.64 0.39,-0.57 0.11,-0.9 -0.05,-5.11 -0.12,-0.63 -0.35,-0.74 -0.26,-0.99 -0.43,-1.01 -0.01,-0.89 1.95,-3.88 0.93,-1.22 1.02,-2.03 1.45,-1.61 0.45,-0.88 0.57,-0.67 0,0 1.02,2.21 1.27,1.5 1.07,0.91 1.01,0.43 1.16,0.15 1.29,-0.3 1.33,-0.54 2.43,-0.7 0.82,-0.41 0.77,-0.16 2.97,-0.2 2.95,0.34 3.69,0.12 3,-0.16 3.15,-1.33 2.01,-0.05 1.53,0.27 0.9,0.43 1.66,1.77 1.24,1.1 3.3,1.9 3.57,1.47 5.72,3.45 0.44,0.12 3.4,-0.29 1.21,0.05 1.1,0.76 0.84,1.09 0.5,1.33 0.35,1.55 -0.06,1.68 -0.2,1.49 -0.78,1.54 -4.13,6.5 -0.4,1.15 -0.19,1.02 0.56,3.04 -0.05,1.42 -0.73,2.09 0.35,0.48 1.45,1.26 0.45,0.59 0.19,1.76 -0.42,0.64 -0.79,0.63 -2.51,1.08 -1.32,0.25 -0.77,0.3 -1.46,-0.01 -1.26,0.61 -0.8,-0.03 -0.67,-0.68 -0.71,-0.38 -0.91,-0.11 -0.7,0.23 -0.39,0.76 -1.62,5.22 -1.2,3.24 -0.87,1.97 0.27,0.7 0.49,0.49 0.87,0.21 0.61,0.27 2.03,2.18 2.7,0.85 3.05,2.03 1.01,0.43 0.77,0.68 2.56,1.65 1.48,1.29 0.53,1.61 0.68,0.17 0.78,0.54 0.88,0.9 0.48,0.78 1.78,0.97 1.3,0.22 0.95,0.8 0.72,0.32 1.12,0.14 2.23,-0.53 1.52,0.09 2.62,0.92 1.38,0.78 2.64,2.27 0.15,1.02 -0.03,1.82 0.17,1.27 0.47,1.11 1.35,1.61 0.3,1.75 0.49,0.49 1.06,0.69 0.79,0.17 0.85,-0.54 2.14,-1.85 0.77,-0.11 1,0.39 1.22,0.3 0.89,-0.54 1.17,-0.29 0.5,0.2 0.34,0.67 0.23,1.46 0.2,0.51 0.57,0.24 0.73,-0.11 0.67,-0.34 0.71,-0.66 1.37,-1.77 0.9,0.33 0.63,0.6 0.26,2.55 0.28,1.1 0.57,1.18 1.18,1.32 1.32,0.74 0.66,-0.2 0.27,-0.53 0.28,-2.56 0.54,-0.85 0.48,-0.2 0.61,0.2 0.67,0.43 3.79,4.1 1.33,0.23 1.78,-0.07 1.35,-0.38 2.72,-1.82 1.14,-0.24 0.64,0.17 0.52,0.57 0.43,1.17 1.16,1.57 3.6,3.34 0.7,1.33 1.04,0.3 0.45,0.45 0.2,0.48 -0.14,0.75 0.06,0.29 1.88,0.15 0.48,-0.41 0.25,-0.71 0.13,-1.38 0.43,-0.63 0.65,-0.05 0.57,0.28 0.78,1.16 0.67,0.39 0.56,-0.38 1.16,-1.65 0.52,-0.34 0.54,0.02 0.24,0.37 0.23,1.5 -0.14,1.51 0.41,2.16 0.33,0.81 3.18,1.94 -0.41,4.4 -0.59,1.93 -1.27,2.58 -0.69,0.95 -1.93,1.98 -1.84,0.94 -2.57,1.73 -5.14,4.63 -5.92,1.23 -5.26,1.92 -3.11,4.06 1.68,8.62 1.67,5.02 0.24,7.42 2.15,2.63 3.35,-3.35 2.05,0.3 -0.07,0.23 3.48,1.51 0.92,1.83 -0.51,1.34 0.28,1.7 0.82,1.77 1.37,1.72 0.31,0.54 1.56,2.17 0.26,1.38 -0.31,2.25 0.51,0.91 1.14,0.99 3.99,1.47 3.04,1.34 0.19,0.66 0.05,1.44 0.31,0.23 2.65,0.14 0.74,0.39 1.07,1.09 0.96,1.8 0.9,0.73 2.27,1.57 1.73,0.57 6.81,2.67 0.12,0.09 0.17,0.64 0.88,0.35 2.66,0.79 0.15,0.41 0.48,0.34 0.09,-0.4 0.34,-0.65 0.4,0.02 0.4,0.49 -0.1,0.57 -0.26,0.64 0.07,0.65 0.65,0.01 0.49,-0.39 0.32,0.41 0.22,0.58 0.57,0.17 0.43,-1.12 0.64,0.34 0.39,0.74 -0.6,1.28 -0.58,0.23 -0.56,0.07 -0.34,0.47 -0.09,0.41 0.88,0.18 0.57,0.02 0.63,0.66 0.34,-0.32 0.25,-0.56 -0.06,-0.65 0.1,-0.8 0.17,-0.32 0.56,0.17 0.3,0.9 -0.03,1.46 -0.42,0.64 0.32,0.17 0.65,-0.15 0.32,0.25 0.06,0.65 -0.18,0.73 0.07,0.4 0.81,0.18 1.22,-0.37 0.56,0.18 0.15,0.41 -0.41,0.39 0.14,0.65 0.31,0.58 -0.27,0.96 0.47,0.82 0.79,0.75 0.15,0.49 -0.26,0.64 0.32,0.13 2.77,0.23 0.64,0.85 0.04,0.69 -0.57,0.61 -1.13,0.6 -1.2,1.73 -0.67,0.65 -0.11,3.19 -2.07,2.09 -0.44,1.16 -0.83,0.93 -1.24,1.88 0.26,1.55 0.66,1.06 0.35,0.88 -0.43,0.4 0,1.83 -0.77,0.41 -0.39,1.22 0.23,4.68 -0.84,1.32 -0.08,1.12 z" 
                fill="rgb(151, 144, 238)" 
                stroke="white" 
                stroke-width=".7px"
                title="K'akheti" 
                id="GE-KA" 
            />
        </svg>