<svg xmlns="http://www.w3.org/2000/svg" viewBox="432.3912200000014 278.4216199999999 195.63999999999913 108.36000000000018" width="195.63999999999913" height="108.36000000000018">
            <path 
                d="m 576.36122,290.57162 0.38,-0.12 0.59,-0.43 1.71,-1.63 0.58,-0.7 0.19,-0.72 0.01,-2.3 0.17,-0.87 0.65,-1.24 0.87,-1.07 0.41,-0.77 0.83,-1.1 0.38,-0.74 0.4,-0.36 0.41,-0.1 0.41,0.08 0.73,0.33 1,0.26 2.16,1.04 0.79,0.09 3.09,0.07 2.11,0.92 0.39,-0.06 1.07,-0.76 1.21,-0.51 0,0 0.91,0.66 1.34,1.38 1.74,3.4 0.85,1.09 0.51,0.91 1.4,1.58 0.92,1.89 0.36,0.41 0.38,0.2 0.59,0.05 0.44,-0.09 0.73,-0.35 0.45,-0.11 2.61,-0.07 0.88,0.1 0.24,0.14 0.15,0.22 0.21,0.76 0.33,0.74 0.27,1.13 1.68,3.36 0.09,0.77 0.05,3.02 0.47,1.17 0.25,1.6 0.34,0.73 0.29,1.12 0.39,0.88 0.22,1.46 0.32,0.72 0.08,0.41 -0.07,0.4 -0.63,1.22 -1.43,1.57 -0.78,1.25 -1.68,1.67 -0.29,0.53 -0.05,0.59 0.09,0.43 1.62,3.05 0.11,0.41 -0.03,0.72 -0.41,0.85 -0.11,0.43 -0.02,0.75 0.11,0.58 1.24,2.47 0.26,0.31 0.35,0.24 0.58,0.12 1.53,0.09 1.5,0.51 2.93,0.11 1.04,0.42 1.01,0.23 0.75,0.46 1.87,1.79 0.42,0.54 0.05,0.37 -0.85,1.74 -0.01,0.56 2.21,4.28 0.33,1.22 0,0 -1.51,-0.83 -1.22,-0.22 -0.87,0.26 -1.25,0.94 -0.89,-0.06 -0.91,0.26 -1.54,0.02 -0.78,0.88 -0.98,2.85 -0.98,0.44 -1.65,1.17 -0.86,1.02 -1.14,1.01 -3.28,0.66 -0.77,0.45 -1.71,2.1 -1.54,1.32 -1.57,2.54 -2.21,3.24 -1.11,1.26 -1.42,0.86 -1.62,0.46 -0.98,0.37 -2.67,1.98 -2.57,1.08 -1.7,0.56 -0.74,0.45 -0.98,-0.06 -0.91,0.44 -3.66,3.24 -0.41,0.6 -0.22,1.32 -0.67,1.16 -1.11,0.12 -1.25,-0.06 -2.67,-0.71 -0.54,-0.02 -0.93,0.3 -0.54,0.03 -0.81,-0.56 -1.54,-1.36 -0.5,-0.12 -0.61,0.02 -0.86,-0.13 -2.09,-0.94 -1.5,-2.83 -0.39,-0.4 -0.47,0.06 -0.36,0.21 -0.68,1.77 -0.17,0.75 0.49,0.62 0.13,0.54 -0.91,0.8 -0.23,2.07 2.07,3.52 0.84,0.42 2.24,0.58 1.73,0.98 0.74,0.48 0.49,0.58 -0.16,0.68 -2.29,0.19 -1.18,-0.13 -2.86,-1.39 -1.11,-0.28 -0.86,0.09 -0.9,0.48 -0.96,-0.38 -2.31,0.77 -1.64,0 -0.93,0.16 -1.1,0.94 -1.29,0.37 -0.64,-0.34 -0.11,-1.32 -0.35,-0.37 -0.53,-0.22 -1.11,0.04 -1.19,0.41 -0.68,-0.05 -0.68,-0.2 -0.66,-0.83 -0.34,-0.9 -0.6,-0.3 -3.58,0.07 -1.28,-0.39 -0.78,-0.12 -0.36,0.24 -0.9,2.02 -0.36,1.75 -0.26,2.03 -0.15,0.57 -0.44,0.56 -0.4,0.25 -0.83,0.3 0.01,-2.18 -0.38,-0.65 -0.57,0.06 -1.84,0.57 -2.64,1.38 -0.43,0.06 -0.74,-0.26 -2.67,-0.56 -0.79,0.06 -1.55,0.44 -2.34,1.17 -0.86,0.13 -0.79,-0.02 -1.42,-0.53 -3.53,-2.38 -2.21,-2.08 -4.07,-2.51 -0.68,-0.22 -0.57,0.06 -0.69,0.38 -0.37,0.68 -0.16,1.46 0.02,0.54 -0.3,0.71 -0.47,0.27 -0.78,-0.19 -2.31,-1 -2.28,-0.22 -2.4,0.32 -1.32,-0.31 -0.39,-0.33 -0.46,-2.54 -0.59,-0.8 -0.74,-0.55 -0.4,-0.15 -1.34,1.45 -0.5,0.1 -0.97,-0.02 -0.82,-0.22 -1.44,-1.32 -0.68,0.03 -0.48,0.53 -0.19,0.5 0.1,0.71 0.76,1.59 0.14,0.58 -1.3,3.09 -0.58,0.56 -0.8,0.52 -1.51,0.45 -1.11,0.09 -4.89,-0.18 -2.28,-0.22 -1,0.06 -1.11,0.23 -1.91,1.01 -1.22,0.38 -1.14,0.13 -1.47,0.51 -1.16,0.85 -1.92,2.26 -0.25,0.04 0,0 -0.77,-3.02 -0.18,-1.02 -0.38,-0.86 -0.11,-0.45 -0.02,-4.05 -0.14,-0.93 -0.7,-1.37 -1.41,-1.55 -0.51,-0.9 -0.83,-1.09 -0.38,-1.23 -0.42,-1.03 -0.07,-1.52 0.16,-1.16 0.33,-0.73 0.37,-1.25 0.65,-1.22 0.81,-1.05 0.18,-0.46 0.07,-1.01 -0.08,-3.78 -0.45,-1.21 -0.26,-1.58 -0.57,-1.26 -0.55,-0.88 -0.32,-0.26 -0.29,-0.09 -2.08,-0.1 -0.26,-0.15 -0.21,-0.39 -0.02,-8.39 -0.14,-0.81 -0.38,-0.9 -0.11,-1 0.04,-1.04 0.26,-0.91 -1.64,-0.73 -1.12,-0.82 -0.75,-0.39 -0.45,-0.52 -0.14,-0.63 0.03,-0.64 0.12,-0.47 0.42,-0.87 0.1,-0.63 -0.01,-0.49 -0.2,-0.59 -0.62,-0.53 -4.67,-2.29 -0.7,-0.19 -0.74,0.07 -0.74,0.33 -1.14,0.3 -2.16,0.99 -1.96,0.15 -1.53,0.5 -9.55,-0.02 -0.07,-2.09 0.17,-0.94 0.45,-0.5 1.87,-0.87 0.42,-0.36 0.26,-0.53 0.19,-1.41 0.4,-1.05 0.09,-1.03 -0.02,-4.52 -0.09,-0.67 -0.45,-1.03 -0.08,-0.98 0.13,-0.63 0.38,-0.88 0.23,-1.42 0.37,-0.89 0.1,-0.46 0.07,-5.79 0.15,-0.56 0.63,-1.61 0.88,-0.56 0.39,-0.15 1.56,-0.08 1.08,0.09 1.18,0.46 1.64,0.26 0.75,0.34 1.14,0.29 0.89,0.39 1.5,0.22 1,0.39 0.43,-0.03 0.27,-0.13 0.59,-0.48 4.81,-4.72 0.5,-0.6 0.46,-0.87 0.89,-1.09 0,0 4.54,0.05 0.88,0.07 0.48,0.15 1.85,0.91 0.68,0.13 9.92,0.09 0.68,0.13 1.07,0.41 3.49,0.12 0.5,0.11 0.91,0.38 1.41,0.13 1.43,-0.02 0.68,-0.12 3.76,-1.77 2.41,0.08 0.92,0.18 1.15,0.56 0.79,0.53 1.92,0.03 1.47,0.54 1.23,0.08 1.03,-0.19 5.55,-2.7 1.4,-0.37 1.28,-0.62 1.22,-0.94 0.85,-0.38 0.37,-0.08 0.53,0.24 0.68,0.65 0.5,0.64 0.48,0.91 1.07,1.18 0.82,0.75 0.56,0.28 0.97,0.11 8.4,0.05 0.97,-0.09 0.39,-0.2 0.37,-0.4 0.33,-0.62 0.61,-0.81 0.13,-0.37 -0.03,-0.24 -0.66,-1.74 0,0 1.89,0.2 1.03,0.42 0.46,0.1 2.44,0.14 0.9,0.39 1.15,0.29 0.75,0.34 1.15,0.27 0.95,0.51 0.29,0.26 0.55,0.9 1.7,3.39 1.1,1.16 1.34,1.2 0.97,-0.07 0.84,0.04 0.48,0.11 0.9,0.39 0.64,0.11 0.82,0.02 0.64,-0.1 0.59,-0.39 0.66,-1.08 1.02,-1.38 0.53,-0.53 0,0 0.76,0.14 1.06,0.32 0.79,0.45 0.27,0.24 0.09,0.24 -0.05,0.37 -0.94,2.29 0.03,0.37 0.31,0.27 0.58,0.08 4.62,-0.01 0.6,0.12 1.03,0.42 1.98,0.16 0.77,0.47 2.25,2.18 1.05,0.6 1.25,0.89 0.79,0.15 3.03,0 0.98,0.1 6.1,2.97 0.81,0.1 0.99,-0.04 1.52,-0.52 2.12,-0.07 0.76,-0.16 2.54,-1.2 0.91,-0.54 0.26,-0.28 0.55,-0.9 0.59,-1.25 0.24,-1.61 0.42,-1.01 0.24,-1.46 0.37,-0.78 -0.02,-0.37 -0.3,-0.27 -0.57,-0.08 -1.46,0.03 -0.75,0.21 -0.47,0.48 -0.84,1.75 -0.55,0.72 -1.02,0.91 -0.42,0.19 -0.47,0.08 -2.13,-0.01 -0.94,-0.14 -2.53,-1.24 -1.13,-0.83 -0.99,-0.56 -0.34,-0.43 -0.12,-0.44 0,-2.23 -0.09,-0.78 -1.28,-2.64 -0.37,-0.49 -0.58,-0.52 -1.84,-0.95 -0.17,-0.21 -0.1,-0.39 0.09,-0.56 0.36,-0.5 0.59,-0.5 0.93,-0.46 0.74,-0.58 1.36,-1.35 z" 
                fill="rgb(151, 144, 238)" 
                stroke="white" 
                stroke-width=".7px"
                title="Kvemo Kartli" 
                id="GE-KK" 
            />
        </svg>