<svg xmlns="http://www.w3.org/2000/svg" viewBox="493.22121999999956 134.39162000000022 131.64000000000033 169.77999999999975" width="131.64000000000033" height="169.77999999999975">
            <path 
                d="m 594.45122,143.06162 4.42,0.63 2.44,-0.71 3.17,-0.72 3.03,0.3 1.3,0.62 1.11,1.13 1.19,1.94 2.39,2.37 2.85,3.93 2.93,3.71 1,1.01 2.93,2.35 0.8,1.23 0.66,3.68 0.19,0.42 0,0 -0.57,0.67 -0.45,0.88 -1.45,1.61 -1.02,2.03 -0.93,1.22 -1.95,3.88 0.01,0.89 0.43,1.01 0.26,0.99 0.35,0.74 0.12,0.63 0.05,5.11 -0.11,0.9 -0.39,0.57 -1.11,0.64 -1.89,1.72 -1.05,0.56 -0.49,0.37 -0.32,0.34 -0.3,0.54 -0.09,0.94 0.08,3.53 0.13,0.42 0.95,1.86 0.23,0.7 0.45,0.91 0.24,1.39 0.39,0.89 0.08,0.44 0,0.61 -0.17,0.72 -1.27,2.47 -0.52,0.43 -1.13,0.28 -0.9,0.37 -1.65,0.22 -0.75,0.32 -0.99,0.23 -0.48,0.29 -0.58,0.95 -0.84,1.1 -0.59,1.03 -3.36,3.31 -0.49,0.61 -0.16,0.44 -0.05,0.46 0.04,3.68 -0.1,0.93 -0.4,0.67 -1.99,1.93 -0.56,0.76 -0.3,1.12 -0.37,0.88 -0.21,1.47 -0.46,1.17 -0.08,3.36 -0.13,0.6 -0.42,1.01 -0.15,2.58 -0.39,0.66 -1.69,1.66 -0.22,0.39 -0.05,0.28 0.13,0.54 1.58,2.93 0.45,1.09 -0.08,0.47 -1.2,2.39 -0.06,0.47 0.27,0.47 1.38,1.34 0.48,0.63 0.61,1.25 0.28,1.14 1.01,2.08 -0.04,0.43 -0.13,0.26 -1.33,1.44 -0.51,0.88 -0.76,0.95 -0.24,0.55 -0.07,0.76 0.05,0.91 0.1,0.44 0.38,0.88 0.25,1.35 0.3,0.25 0.78,0.22 0.74,0.33 1.65,0.25 1.04,0.42 1.98,0.18 1.48,0.51 2.32,0.12 1.04,0.41 1.14,0.3 1.01,0.78 1.93,1.99 0.8,1.51 0.35,1.04 -1.94,0.24 -1.17,0.45 -1.99,0.14 -2,0.96 -0.55,0.07 -1.01,-0.4 -1.64,-0.25 -1.28,-0.6 -0.7,-0.54 -1.73,-1.73 -0.82,-0.66 -1.38,-0.63 -0.44,0.04 -0.26,0.12 -5.7,5.51 1.58,0.61 1.11,0.84 0.92,0.49 0.79,0.76 0.82,1.65 0.08,0.74 0,1.79 0,0 -1.21,0.51 -1.07,0.76 -0.39,0.06 -2.11,-0.92 -3.09,-0.07 -0.79,-0.09 -2.16,-1.04 -1,-0.26 -0.73,-0.33 -0.41,-0.08 -0.41,0.1 -0.4,0.36 -0.38,0.74 -0.83,1.1 -0.41,0.77 -0.87,1.07 -0.65,1.24 -0.17,0.87 -0.01,2.3 -0.19,0.72 -0.58,0.7 -1.71,1.63 -0.59,0.43 -0.38,0.12 0,0 -1.16,-0.43 -1.37,-0.15 -0.42,-0.12 -1.39,-0.71 -1.78,-1.69 -0.59,-0.44 -1.28,-0.61 -1.01,-0.25 -0.82,-0.37 -0.38,0.01 -0.29,0.23 -0.52,0.89 -0.58,1.26 -0.26,1.13 -0.69,1.35 -0.39,0.38 -0.87,0.46 -1.01,0.78 -0.99,0.45 -0.35,0.08 -0.36,-0.1 -1.59,-0.78 -0.74,-0.11 -0.57,0.12 -0.91,0.53 -0.22,0.36 -0.06,0.61 0.1,0.63 0.42,0.87 0.12,0.47 0.02,0.62 -0.12,0.43 -0.27,0.3 -0.69,0.38 -1.41,0.35 -1.16,0.61 -0.7,0.76 -0.67,1.82 0,0 -0.53,0.53 -1.02,1.38 -0.66,1.08 -0.59,0.39 -0.64,0.1 -0.82,-0.02 -0.64,-0.11 -0.9,-0.39 -0.48,-0.11 -0.84,-0.04 -0.97,0.07 -1.34,-1.2 -1.1,-1.16 -1.7,-3.39 -0.55,-0.9 -0.29,-0.26 -0.95,-0.51 -1.15,-0.27 -0.75,-0.34 -1.15,-0.29 -0.9,-0.39 -2.44,-0.14 -0.46,-0.1 -1.03,-0.42 -1.89,-0.2 0,0 -0.22,-0.33 -0.2,-1.19 -0.45,-1.04 -0.08,-0.63 0.03,-0.47 0.27,-0.49 2.49,-1.29 0.2,-0.17 0.17,-0.39 0.06,-0.76 -0.06,-2.96 -0.12,-0.62 -0.43,-1.03 -0.08,-1.44 0.1,-1.12 0.66,-1.74 0.34,-0.25 0.44,-0.08 3.6,0.05 1,0.12 1.01,0.44 0.42,0.04 0.52,-0.15 0.65,-0.95 0.72,-1.7 0.08,-1.33 -0.07,-1.66 -0.17,-0.46 -1.38,-1.58 -0.51,-0.9 -0.41,-0.51 -2.87,-2.83 -0.83,-1 -1.83,-3.61 -0.13,-0.44 -0.06,-0.65 0.02,-5.66 -0.14,-0.73 -0.33,-0.51 -0.42,-0.44 -3.09,-2.93 -2,0.07 -2.36,-0.06 -0.47,-0.1 -0.91,-0.38 -1.46,-0.22 -1.06,-0.42 -2.11,-0.23 -1.21,-0.46 -0.82,-0.08 -0.98,0.06 -1.07,0.4 -0.98,0.24 -0.37,0.2 -0.37,0.4 -0.9,1.88 -0.64,0.99 -1.01,0.62 -0.78,0.35 -1.2,0.78 0.05,-4.22 -0.05,-0.49 -0.21,-0.41 -0.6,-0.24 -1.06,-0.01 -0.89,0.11 -0.85,0.34 -0.39,0.04 -0.23,-0.1 -0.17,-0.24 -0.09,-0.92 0.04,-1.75 0.11,-0.99 0.39,-0.89 0.29,-1.12 0.95,-1.84 0.16,-0.56 -0.03,-1.05 -0.43,-1.02 -0.13,-0.61 -0.04,-2.98 0.15,-1.28 0.95,-1.83 0.12,-0.41 -0.04,-0.73 -0.46,-1.14 0.06,-0.88 1.24,-2.48 0.37,-0.5 0.58,-0.51 1.73,-0.91 0.37,-0.35 0.48,-0.79 0.6,-1.26 0.37,-1.39 0.62,-1.01 1.16,-0.64 1.28,-0.3 0.8,-0.45 0.27,-0.28 0.25,-1.37 0.45,-1.19 0.07,-0.82 -0.02,-2.51 -0.14,-0.63 -0.23,-0.4 -0.67,-0.84 -0.43,-0.77 -0.94,-1.22 -0.62,-1.26 -0.12,-0.62 -0.03,-3.8 0.07,-0.79 0.34,-0.62 1.03,-0.63 0.35,-0.42 0.17,-0.93 -0.11,-1.3 -0.71,-1.54 -0.59,-1.11 -0.26,-0.33 -0.45,-0.32 -1.92,-0.89 -0.86,-0.58 -0.21,-0.69 -0.04,-1.75 -0.1,-0.46 -0.41,-1.06 -0.06,-1.91 -0.13,-0.57 -0.28,-0.29 -0.68,-0.38 -1.14,-0.36 -0.19,-0.18 -0.14,-0.53 0.08,-0.87 0.42,-0.88 0.41,-1.22 0.62,-0.76 1.08,-0.62 0.38,-0.39 0.18,-0.55 0.06,-1.67 0.14,-0.42 0.57,-0.7 1,-0.95 1.06,-0.85 -0.72,-1.11 -0.33,-1.26 -0.66,-1.15 -1.03,-0.61 -1.13,-0.28 -0.37,-0.2 -0.29,-0.29 -0.49,-0.87 -0.77,-0.98 -0.74,-1.55 -0.08,-2.22 -0.2,-0.52 -0.34,-0.2 -1.71,-0.58 -2.61,-0.06 -0.78,-0.14 -0.78,-0.57 -1.98,-2.03 -0.34,-0.48 -1.24,-2.52 -0.24,-1.63 -0.48,-1.26 0,0 2.5,-0.56 0.97,-0.65 0.48,-0.46 1.01,-3.58 1.13,-2.1 1.13,-1.85 0.9,-1.27 2.63,-1.83 2.44,-1.09 2.76,-1.02 2.5,-0.43 1.76,0.03 3.88,0.54 1.53,0.07 0.96,-0.28 1.33,-0.6 1.3,-0.78 2.49,-2.04 2.08,-1.36 2.04,-0.91 1.76,-0.37 2.02,0.07 9.36,1.18 3.09,-0.31 1.95,-0.5 1.99,-0.22 2.95,0.69 1.2,0.57 1.12,0.69 0.71,0.93 0.93,0.9 0.79,0.97 2.25,12.25 0.77,1.7 0.64,0.56 1.12,0.69 1.13,0.13 0.7,-0.09 1.74,-1.03 2.33,-5.62 1.67,-5.56 2.25,-3.73 1.06,-1.48 1.06,-1.18 1.08,-0.86 1.59,-0.47 1.69,-0.33 2.54,-0.12 3.24,0.67 1.9,0.63 2.91,2.35 4.64,4.59 z" 
                fill="rgb(151, 144, 238)" 
                stroke="white" 
                stroke-width=".7px"
                title="Mtskheta-Mtianeti" 
                id="GE-MM" 
            />
        </svg>