<svg xmlns="http://www.w3.org/2000/svg" viewBox="276.61122000000034 103.86162 184.8799999999997 97.59999999999998" width="184.8799999999997" height="97.59999999999998">
            <path 
                d="m 395.16122,112.44162 0.35,0.02 1.51,-0.4 1.21,-0.51 2.35,-0.13 3.05,0.24 4.3,0.57 2.85,1.24 0.95,0.92 1.06,0.74 1.32,0.38 3.09,0.21 0.99,0.15 1.13,0.34 1.9,1.08 2.41,1.97 0.76,0.74 0.44,0.88 0.46,1.66 0.51,0.74 0.94,0.74 0.95,0.93 1.45,1.88 0.58,0.26 0.66,0.15 1.77,-0.49 1.13,0.23 1.06,0.41 1.24,1 1.05,1.48 1.67,1.23 6.1,2.48 1.97,1.23 0.97,1.26 0.54,1.1 0.17,1.1 -0.16,1.61 -4.35,8.68 -1.36,1.19 -0.78,0.51 -0.77,0.28 -0.56,0.87 -0.52,0.62 -0.26,0.51 -0.08,0.59 0.14,1.28 3.53,5.27 1.05,1.1 0.69,0.05 0.59,-0.07 2.27,-0.89 0.73,-0.1 0.77,0.12 1.69,2.21 0.91,0.3 0.88,-0.28 0.97,-0.94 0.84,-0.21 0.73,0.26 1.41,1.48 0.73,0.12 1.28,0.01 1.84,0.77 0,0 0.12,0.95 0.38,0.89 0.26,0.99 0.39,0.87 0.08,0.44 -0.08,0.73 -0.42,1.01 -0.18,1.34 -0.37,0.89 -0.3,1.12 -0.44,0.51 -2.03,1 -1.25,0.92 -3.19,1.52 -1.02,0.61 -0.67,1.14 -0.18,1.49 -0.12,0.42 -0.45,0.81 -0.26,0.29 -1.06,0.57 -1.65,0.21 -0.89,0.38 -1.01,0.24 -1.22,0.46 -3.47,0.08 -0.51,0.1 -0.92,0.37 -0.7,0.09 -7.43,0.01 -0.44,0.09 -0.91,0.37 -1.62,0.25 -0.75,0.33 -1,0.24 -1.06,0.41 -1.63,0.22 -0.92,0.5 -0.33,0.43 -0.19,1.22 -0.37,0.9 -0.1,0.47 0.01,2.06 0,0 -1.6,-0.15 -1.19,-0.46 -1.62,-0.26 -5.67,-2.85 -0.62,-0.16 -1.15,0.06 -1.06,0.43 -1.62,0.25 -0.76,0.33 -1.14,0.29 -0.9,0.39 -0.81,0.09 -1.3,-0.11 -1.22,-0.47 -1.95,-0.19 -1.04,-0.43 -1,-0.25 -0.75,-0.35 -0.81,-0.14 -6.03,-0.01 -0.64,0.11 -1.04,0.41 -1.4,0.16 -1.95,-0.13 -1.82,0.01 -0.57,0.25 -0.13,0.21 -0.09,0.44 -1.02,0.96 -4.23,2.13 -0.35,0.41 -0.86,1.77 -0.64,0.81 -1.57,1.45 -0.9,0.47 -1.13,0.86 -1.39,0.67 -1.79,0.26 -1.21,0.75 -0.91,-0.25 -1.09,-0.02 -0.59,0.11 -1.03,0.42 -1.98,0.15 -0.53,0.29 -1.19,1.09 -0.24,0.11 -0.28,0 -0.46,-0.28 -1.1,-1.03 -1.15,-0.67 -1.5,-1.32 -2.53,-1.28 -0.72,-0.17 -2.82,0.01 -0.42,-0.05 -0.36,-0.18 -0.15,-0.22 -0.21,-0.77 -0.38,-0.88 -0.17,-2.75 -0.38,-0.89 -0.29,-1.13 -0.55,-0.75 -5.31,-5.22 -1.03,-0.59 -1.27,-0.91 -1.42,-0.44 -0.06,-0.16 -0.17,-0.1 -1.51,-0.28 -0.27,-0.17 -0.66,-0.68 -0.55,-0.98 -0.19,-0.18 -2.23,-0.9 -0.42,-0.03 -0.49,0.16 -0.2,0.36 -0.42,1.23 -0.31,1.59 -0.22,0.25 -0.26,0.11 -1.07,0.16 -1.23,0.45 -0.99,0 -0.62,-0.17 -0.23,-0.16 -1.27,-1.16 -0.52,-0.3 -1.5,-0.21 -1.17,-0.49 -1.21,-0.03 -0.42,0.17 -0.31,0.28 -1.07,2.1 -0.63,0.53 -1.14,0.53 -1.15,0.27 -0.75,0.33 -1.14,0.29 -0.89,0.38 -1.19,0.09 -1.27,-0.16 0.12,-1.42 -0.03,-2.93 -0.19,-0.6 -0.9,-1.23 -0.17,-0.94 0.08,-1.78 0.44,-1.04 0.12,-0.46 0.01,-1.47 -0.28,-0.75 -1.28,-1.52 0,0 -0.82,-1.45 -0.28,-1.77 -1.25,-2.52 -0.94,-1.23 -1.03,-2.05 -0.86,-1.1 -0.41,-0.79 -0.86,-1.1 -0.4,-0.78 -1.52,-1.74 -0.74,-1.53 -0.09,-0.94 -0.01,-4.02 0.15,-1.08 0.34,-0.52 0.46,-0.43 1.15,-0.62 1.26,-0.9 -1.09,-1.05 -0.63,-1.12 -1.32,-1.5 -0.55,-1.02 -0.81,-0.81 -3.31,-1.65 -1.24,-0.96 -1.26,-0.64 -1.28,-0.34 -0.9,-0.39 -1.64,-0.24 -1.73,-1.02 -2.56,-2.38 -0.89,-0.47 -1.13,-0.88 -2.28,-1.16 -0.69,-0.74 -0.7,-1.23 -1.05,-0.95 0.74,-1.21 2.67,-5.42 0.33,-0.45 0.34,-0.24 0.64,-0.13 4.46,0 0.48,-0.1 0.9,-0.37 1.78,-0.12 0.59,-0.19 0.4,-0.36 1.29,-2 0.26,-1.62 0.36,-0.91 0.15,-1.08 0.22,-0.53 0.24,-0.15 0.6,-0.1 2.52,0.06 0.81,0.14 4.69,2.33 0.98,0.1 4.49,0.04 0.59,0.12 1.04,0.42 1.98,0.18 1.42,0.65 3.13,1.62 0.74,0.18 4.21,0.04 0.76,0.15 0.88,0.39 0.89,0.02 2.8,-1.36 1.74,-1.5 0.78,-0.41 0.96,-0.75 0.56,-0.17 0.53,0.13 3,1.54 1.14,0.29 0.9,0.38 1.64,0.25 1.27,0.61 0.73,0.57 1.98,2 0.4,0.29 0.44,0.15 0.74,-0.03 0.88,-0.37 0.49,-0.11 2.23,-0.11 1.56,-0.51 6.16,-0.02 0.67,-0.09 1.22,-0.48 0.95,-0.02 0.51,0.26 0.54,0.91 0.11,0.43 0.12,1.36 0.53,1.08 0.43,0.31 0.69,0.01 0.88,-0.39 1,-0.25 0.42,-0.2 0.98,-0.87 0.57,-0.78 0.14,-1.06 -0.05,-6.02 0.05,-0.47 0.2,-0.4 0.22,-0.14 2.54,-0.86 0.64,-0.99 0.37,-1.4 0.55,-1.15 0.37,-0.5 0.7,-0.6 1.02,-0.55 1.82,-1.72 1.23,-0.69 1.08,-1 0.68,0.51 0.94,0.48 0,0 0.45,0.39 1.44,0.41 6.79,1.6 6.93,3.27 1.06,1.11 1.61,0.74 z" 
                fill="rgb(151, 144, 238)" 
                stroke="white" 
                stroke-width=".7px"
                title="Rach'a-Lechkhumi-Kvemo Svaneti" 
                id="GE-RL" 
            />
        </svg>