<svg xmlns="http://www.w3.org/2000/svg" viewBox="291.3512199999998 266.78162 177.33000000000015 127.0299999999998" width="177.33000000000015" height="127.0299999999998">
            <path 
                d="m 403.33122,267.39162 1.06,-0.11 1.21,-0.46 0.66,-0.04 0.66,0.08 2.31,1.09 2.27,0.11 0.63,0.14 0.53,0.35 1.08,0.98 0.41,0.25 0.47,0.12 1.3,0.07 0.64,0.11 2.53,1.21 0.41,0.36 0.25,0.54 0.01,2.5 0.14,0.8 0.25,0.4 0.43,0.44 1.43,0.83 0.73,0.8 0.15,0.45 0.16,1.28 0.35,0.91 0.18,1.2 0.19,0.38 0.39,0.2 0.45,0.05 5.99,-0.01 -0.07,1.14 0.06,0.99 0.43,1.21 0.16,1.04 0.1,0.26 0.2,0.2 0.51,0.14 2.14,0.09 1.41,0.64 0.64,0.48 2.22,2.16 0.71,0.34 2.92,0.07 0.8,-0.06 0.43,-0.13 2.09,-1.05 4.66,0.02 1.34,0.15 0.89,0.38 1,0.26 0.76,0.33 1.14,0.29 1.44,0.65 0.86,0.54 0.17,0.22 0.15,0.75 -0.14,2.64 0,0 -0.89,1.09 -0.46,0.87 -0.5,0.6 -4.81,4.72 -0.59,0.48 -0.27,0.13 -0.43,0.03 -1,-0.39 -1.5,-0.22 -0.89,-0.39 -1.14,-0.29 -0.75,-0.34 -1.64,-0.26 -1.18,-0.46 -1.08,-0.09 -1.56,0.08 -0.39,0.15 -0.88,0.56 -0.63,1.61 -0.15,0.56 -0.07,5.79 -0.1,0.46 -0.37,0.89 -0.23,1.42 -0.38,0.88 -0.13,0.63 0.08,0.98 0.45,1.03 0.09,0.67 0.02,4.52 -0.09,1.03 -0.4,1.05 -0.19,1.41 -0.26,0.53 -0.42,0.36 -1.87,0.87 -0.45,0.5 -0.17,0.94 0.07,2.09 9.55,0.02 1.53,-0.5 1.96,-0.15 2.16,-0.99 1.14,-0.3 0.74,-0.33 0.74,-0.07 0.7,0.19 4.67,2.29 0.62,0.53 0.2,0.59 0.01,0.49 -0.1,0.63 -0.42,0.87 -0.12,0.47 -0.03,0.64 0.14,0.63 0.45,0.52 0.75,0.39 1.12,0.82 1.64,0.73 -0.26,0.91 -0.04,1.04 0.11,1 0.38,0.9 0.14,0.81 0.02,8.39 0.21,0.39 0.26,0.15 2.08,0.1 0.29,0.09 0.32,0.26 0.55,0.88 0.57,1.26 0.26,1.58 0.45,1.21 0.08,3.78 -0.07,1.01 -0.18,0.46 -0.81,1.05 -0.65,1.22 -0.37,1.25 -0.33,0.73 -0.16,1.16 0.07,1.52 0.42,1.03 0.38,1.23 0.83,1.09 0.51,0.9 1.41,1.55 0.7,1.37 0.14,0.93 0.02,4.05 0.11,0.45 0.38,0.86 0.18,1.02 0.77,3.02 0,0 -0.43,0.06 -1.28,-0.23 -2.27,-1.21 -5.51,0.11 -1.57,0.13 -3.89,-0.37 -1.04,0.13 -2.55,1.12 -3.99,2.74 -1.43,0.56 -0.83,0.67 -0.55,0.85 -1.73,2.16 -0.68,0.31 -1.78,-0.34 -1.57,-0.83 -1.2,-0.44 -1.67,-1.45 -1.95,-1.09 -1,0.1 -1.73,1.16 -1.86,0.74 -2.75,-0.03 -1.49,-1.01 -1.35,-1.26 -1.74,-1.16 -1.06,-0.29 -1.43,-0.08 -1.43,0.16 -4.48,2.19 -1.54,0.84 -0.65,0.1 -1.63,-0.1 -0.96,-1.84 -0.38,-1.76 -0.49,-1.32 -0.53,-0.97 -1.63,-1.9 -1.53,-0.62 -2.25,-0.76 -0.82,-0.51 -1.67,-1.26 -1.11,-0.36 -1.1,-0.08 -1.18,0.17 -4.44,1.3 -5.12,1.77 -3.11,0.66 -2.54,0.21 0.83,-1.75 -0.21,-0.86 -3.97,-8.56 -0.71,-0.72 -0.79,-0.25 -1.11,-0.15 -0.89,0.32 -1.79,1.1 -2.58,-0.65 -0.89,-0.68 0.5,-0.54 1.47,-0.85 1.22,-0.53 1,-0.29 1.83,-1.07 1.54,-1.57 1.01,-0.67 0.07,-0.47 0.47,-0.36 0.22,-0.42 -0.07,-0.47 -0.4,-0.5 -0.89,-0.47 -0.79,-0.29 -1.14,-0.18 -1,0.06 -0.79,-0.21 -0.57,-0.79 -3.01,-0.37 -0.6,-0.97 -2.18,-4.05 -0.53,-0.72 -4.16,-2.23 -2.25,-0.15 -1.26,-0.82 -1.39,-0.51 -0.97,-1.43 -0.82,-1.55 -1.9,-1.54 -0.46,-0.83 0.03,-0.93 -0.68,-1.33 -0.86,-0.64 -0.39,-0.43 0,-1.98 -0.46,-0.82 -2.91,-1.05 -1.61,-2.26 -3.16,-1.29 -0.25,-0.61 0.1,-1.15 -0.14,-1.12 -0.79,-0.71 -2.3,0.14 -1.15,0.58 -0.57,2.37 -0.61,1.36 -0.5,0.4 -0.58,0.03 -0.68,-0.53 -0.65,-0.72 -0.61,-0.43 -0.93,-0.22 -1.55,-1.25 0.04,-0.9 -0.32,-0.75 -1.52,-1.44 -0.1,-0.65 0.5,-1.36 0.82,-0.58 0.87,-0.29 1.04,-0.82 -0.29,-3.42 0.25,-0.43 1.4,-0.72 0.75,-0.9 -0.29,-1.91 -0.82,-0.79 -4.25,-0.1 -0.49,0.6 -0.26,0.51 -0.4,0.51 -0.43,-0.11 -0.86,-0.61 -1.15,-0.25 -2.7,-1.54 -0.79,-0.03 -1.41,-0.43 -1.54,-0.14 -3.59,0.11 -4.07,1.2 -0.61,0.08 -1.19,0.4 -0.79,0.36 -1.68,-0.24 -0.58,0.32 -0.64,1.18 -0.9,0.6 0,0 -0.82,-2.69 -0.48,-1.31 -0.35,-0.72 -0.19,-1.45 -0.24,-0.56 -0.38,-0.47 -2.22,-2.21 -1.24,-2.39 -0.85,-0.75 -1.92,-0.91 -0.42,-0.35 -0.47,-0.85 -1.51,-1.73 -1.38,-2.77 -0.18,-0.83 -0.41,-0.85 -0.14,-0.58 0.05,-1.5 0.33,-0.68 1.7,-1.68 0.39,-0.64 0.11,-0.81 -0.02,-3.42 -0.03,-0.65 -0.12,-0.45 -1.63,-3.21 -0.28,-1.16 0,0 2.31,-0.1 0.31,-0.05 0.74,-0.34 0.65,-0.14 2.22,0 0.5,0.06 0.46,0.18 1.45,1.28 0.71,0.31 0.73,0 1.06,-0.41 1.23,-0.19 0.35,-0.22 0.54,-0.87 0.13,-0.44 0.18,-1.44 0.59,-1.26 0.49,-0.64 0.81,-0.77 0.57,-0.35 0.61,-0.13 3.19,0.03 0,0 2.03,2.08 0.71,1.21 0.64,0.47 1.29,-0.02 0.75,0.09 2.3,1.06 1.01,0.14 1.21,0.02 1.32,-0.16 0.42,-0.25 1.56,-1.49 0.65,-0.49 3.75,-1.79 0.7,-0.15 2.22,0 0.67,0.1 2.02,0.98 0.62,0.16 0.84,0.06 3.12,-0.03 0.83,0.08 0.44,0.13 3.01,1.52 0.27,0.09 1.01,0.1 1.42,-0.06 1.32,-1.31 0.4,-0.27 0.46,-0.15 1.78,-0.13 1.07,-0.39 0.63,-0.11 3.21,-0.05 1.7,-0.53 3.98,-0.05 1.55,-0.5 1.49,-0.13 0.69,-0.15 1.29,0.73 1.49,0.69 1.58,-0.68 7.06,-3.43 1.14,-0.26 0.89,-0.39 1.01,-0.22 0.75,-0.34 1.15,-0.27 0.75,-0.34 1.15,-0.27 0.75,-0.34 1.49,-0.19 0.42,-0.12 2.54,-1.23 1.61,-1.4 1.4,-0.7 0.42,-0.12 1.35,-0.15 1.03,-0.4 1.64,-0.24 0.64,-0.43 1.74,-1.63 1.4,-0.71 0.42,-0.12 1.35,-0.15 1.03,-0.41 z" 
                fill="rgb(151, 144, 238)" 
                stroke="white" 
                stroke-width=".7px"
                title="Samtskhe-Javakheti" 
                id="GE-SJ" 
            />
        </svg>