<svg xmlns="http://www.w3.org/2000/svg" viewBox="402.68121999999954 155.10162 136.05000000000035 143.8399999999996" width="136.05000000000035" height="143.8399999999996">
            <path 
                d="m 493.22122,155.10162 0.48,1.26 0.24,1.63 1.24,2.52 0.34,0.48 1.98,2.03 0.78,0.57 0.78,0.14 2.61,0.06 1.71,0.58 0.34,0.2 0.2,0.52 0.08,2.22 0.74,1.55 0.77,0.98 0.49,0.87 0.29,0.29 0.37,0.2 1.13,0.28 1.03,0.61 0.66,1.15 0.33,1.26 0.72,1.11 -1.06,0.85 -1,0.95 -0.57,0.7 -0.14,0.42 -0.06,1.67 -0.18,0.55 -0.38,0.39 -1.08,0.62 -0.62,0.76 -0.41,1.22 -0.42,0.88 -0.08,0.87 0.14,0.53 0.19,0.18 1.14,0.36 0.68,0.38 0.28,0.29 0.13,0.57 0.06,1.91 0.41,1.06 0.1,0.46 0.04,1.75 0.21,0.69 0.86,0.58 1.92,0.89 0.45,0.32 0.26,0.33 0.59,1.11 0.71,1.54 0.11,1.3 -0.17,0.93 -0.35,0.42 -1.03,0.63 -0.34,0.62 -0.07,0.79 0.03,3.8 0.12,0.62 0.62,1.26 0.94,1.22 0.43,0.77 0.67,0.84 0.23,0.4 0.14,0.63 0.02,2.51 -0.07,0.82 -0.45,1.19 -0.25,1.37 -0.27,0.28 -0.8,0.45 -1.28,0.3 -1.16,0.64 -0.62,1.01 -0.37,1.39 -0.6,1.26 -0.48,0.79 -0.37,0.35 -1.73,0.91 -0.58,0.51 -0.37,0.5 -1.24,2.48 -0.06,0.88 0.46,1.14 0.04,0.73 -0.12,0.41 -0.95,1.83 -0.15,1.28 0.04,2.98 0.13,0.61 0.43,1.02 0.03,1.05 -0.16,0.56 -0.95,1.84 -0.29,1.12 -0.39,0.89 -0.11,0.99 -0.04,1.75 0.09,0.92 0.17,0.24 0.23,0.1 0.39,-0.04 0.85,-0.34 0.89,-0.11 1.06,0.01 0.6,0.24 0.21,0.41 0.05,0.49 -0.05,4.22 1.2,-0.78 0.78,-0.35 1.01,-0.62 0.64,-0.99 0.9,-1.88 0.37,-0.4 0.37,-0.2 0.98,-0.24 1.07,-0.4 0.98,-0.06 0.82,0.08 1.21,0.46 2.11,0.23 1.06,0.42 1.46,0.22 0.91,0.38 0.47,0.1 2.36,0.06 2,-0.07 3.09,2.93 0.42,0.44 0.33,0.51 0.14,0.73 -0.02,5.66 0.06,0.65 0.13,0.44 1.83,3.61 0.83,1 2.87,2.83 0.41,0.51 0.51,0.9 1.38,1.58 0.17,0.46 0.07,1.66 -0.08,1.33 -0.72,1.7 -0.65,0.95 -0.52,0.15 -0.42,-0.04 -1.01,-0.44 -1,-0.12 -3.6,-0.05 -0.44,0.08 -0.34,0.25 -0.66,1.74 -0.1,1.12 0.08,1.44 0.43,1.03 0.12,0.62 0.06,2.96 -0.06,0.76 -0.17,0.39 -0.2,0.17 -2.49,1.29 -0.27,0.49 -0.03,0.47 0.08,0.63 0.45,1.04 0.2,1.19 0.22,0.33 0,0 0.66,1.74 0.03,0.24 -0.13,0.37 -0.61,0.81 -0.33,0.62 -0.37,0.4 -0.39,0.2 -0.97,0.09 -8.4,-0.05 -0.97,-0.11 -0.56,-0.28 -0.82,-0.75 -1.07,-1.18 -0.48,-0.91 -0.5,-0.64 -0.68,-0.65 -0.53,-0.24 -0.37,0.08 -0.85,0.38 -1.22,0.94 -1.28,0.62 -1.4,0.37 -5.55,2.7 -1.03,0.19 -1.23,-0.08 -1.47,-0.54 -1.92,-0.03 -0.79,-0.53 -1.15,-0.56 -0.92,-0.18 -2.41,-0.08 -3.76,1.77 -0.68,0.12 -1.43,0.02 -1.41,-0.13 -0.91,-0.38 -0.5,-0.11 -3.49,-0.12 -1.07,-0.41 -0.68,-0.13 -9.92,-0.09 -0.68,-0.13 -1.85,-0.91 -0.48,-0.15 -0.88,-0.07 -4.54,-0.05 0,0 0.14,-2.64 -0.15,-0.75 -0.17,-0.22 -0.86,-0.54 -1.44,-0.65 -1.14,-0.29 -0.76,-0.33 -1,-0.26 -0.89,-0.38 -1.34,-0.15 -4.66,-0.02 -2.09,1.05 -0.43,0.13 -0.8,0.06 -2.92,-0.07 -0.71,-0.34 -2.22,-2.16 -0.64,-0.48 -1.41,-0.64 -2.14,-0.09 -0.51,-0.14 -0.2,-0.2 -0.1,-0.26 -0.16,-1.04 -0.43,-1.21 -0.06,-0.99 0.07,-1.14 -5.99,0.01 -0.45,-0.05 -0.39,-0.2 -0.19,-0.38 -0.18,-1.2 -0.35,-0.91 -0.16,-1.28 -0.15,-0.45 -0.73,-0.8 -1.43,-0.83 -0.43,-0.44 -0.25,-0.4 -0.14,-0.8 -0.01,-2.5 -0.25,-0.54 -0.41,-0.36 -2.53,-1.21 -0.64,-0.11 -1.3,-0.07 -0.47,-0.12 -0.41,-0.25 -1.08,-0.98 -0.53,-0.35 -0.63,-0.14 -2.27,-0.11 -2.31,-1.09 -0.66,-0.08 -0.66,0.04 -1.21,0.46 -1.06,0.11 0,0 -0.11,-1.05 -0.47,-1.18 -0.07,-1.13 0.13,-0.95 0.63,-1.24 0.61,-0.76 1.21,-1.16 0.52,-0.39 0.93,-0.5 1.98,-1.77 1.13,-0.66 0.4,-0.57 0.1,-0.96 -0.02,-8.55 0.13,-0.79 0.38,-0.88 0.11,-1.04 0.69,-0.5 4.33,-2.06 0.87,-0.73 0.73,-1.22 1.42,-1.59 0.64,-1.25 0.33,-1.25 0.39,-0.88 0.23,-1.62 0.35,-0.73 0.27,-1.14 0.61,-1.24 0.59,-0.57 2.41,-1.17 0.13,-1.69 0.42,-1.02 0.13,-0.6 0.02,-3.36 -0.09,-0.77 -0.4,-0.89 -0.3,-1.12 -0.36,-0.73 -0.08,-0.73 0.08,-0.43 0.4,-0.87 0.24,-1 0.69,-1.35 0.51,-0.46 1.79,-0.83 0.65,-0.47 1,-1.06 0.49,-0.93 0.4,-0.5 0.69,-0.7 0.52,-0.38 0.77,-0.19 2.72,0.03 0.82,-0.1 0.43,-0.2 1.1,-0.82 1.27,-0.61 1.62,-0.24 1.05,-0.41 1.26,-0.24 -0.34,-1.04 -0.41,-0.88 -0.08,-0.6 0.04,-0.75 0.14,-0.41 0.95,-1.85 0.28,-1.13 0.36,-0.74 0.29,-1.13 0.35,-0.73 0.1,-0.58 -0.09,-0.59 -0.6,-1.26 -0.62,-1.03 -0.29,-0.26 -0.82,-0.46 -0.59,-0.16 -1.49,-0.05 -0.97,0.1 -1.55,0.73 -1.86,1.56 -2.39,1.19 -0.72,0.13 -0.59,-0.1 -1.03,-0.43 -2.93,-0.13 -0.46,-0.1 -0.89,-0.38 -1.63,-0.26 -0.77,-0.54 -1.78,-1.76 0,0 -0.01,-2.06 0.1,-0.47 0.37,-0.9 0.19,-1.22 0.33,-0.43 0.92,-0.5 1.63,-0.22 1.06,-0.41 1,-0.24 0.75,-0.33 1.62,-0.25 0.91,-0.37 0.44,-0.09 7.43,-0.01 0.7,-0.09 0.92,-0.37 0.51,-0.1 3.47,-0.08 1.22,-0.46 1.01,-0.24 0.89,-0.38 1.65,-0.21 1.06,-0.57 0.26,-0.29 0.45,-0.81 0.12,-0.42 0.18,-1.49 0.67,-1.14 1.02,-0.61 3.19,-1.52 1.25,-0.92 2.03,-1 0.44,-0.51 0.3,-1.12 0.37,-0.89 0.18,-1.34 0.42,-1.01 0.08,-0.73 -0.08,-0.44 -0.39,-0.87 -0.26,-0.99 -0.38,-0.89 -0.12,-0.95 0,0 2.67,0.82 1.99,1.02 0.92,0.01 1.8,-0.53 1.14,-1.04 1.08,-1.27 3.11,-3.1 1.15,-1.01 1.03,-0.5 2.99,0.37 3.16,-0.98 2.03,-0.82 1.1,-0.16 0.77,0.04 1.74,0.69 1.69,-0.16 1.14,-0.38 1.29,-0.86 0.7,-0.32 z" 
                fill="rgb(151, 144, 238)" 
                stroke="white" 
                stroke-width=".7px"
                title="Shida Kartli" 
                id="GE-SK" 
            />
        </svg>