<svg xmlns="http://www.w3.org/2000/svg" viewBox="130.96115999999995 202.85818999999998 186.71000000000004 147.28000000000003" width="186.71000000000004" height="147.28000000000003">
            <path 
                d="m 151.66116,217.87819 1.54,0.75 3.63,-2.53 1.69,2.29 2.8,-2.01 0.76,1.62 1.68,-0.18 -0.68,0.99 3.67,0.84 1.6,-2.36 2.32,0.93 0.58,-1.77 1.4,0.76 1.52,-2.87 -0.47,-1.6 1.27,0.32 1.41,-1.6 3.08,0.44 -0.07,3.89 2.62,0.06 0.46,-1.03 1.68,1.15 -0.35,-1.48 2.55,1.19 4.22,-1.08 1.22,0.78 1.56,-4.28 4.31,-0.49 2.25,3.02 0.61,-0.71 2.57,1.47 -0.24,1.72 0.84,-0.83 2.32,0.85 1.85,-2.32 2.43,0.86 -0.67,-2.99 1.85,2.32 1.49,-1.01 1.92,2.46 1.15,-1.99 7.5,1.99 2.62,-1.77 -0.65,3.56 4.69,-0.17 1.14,2.22 0.29,-2.16 2.95,-2.68 4.8,-1.43 -1.27,-2.63 0.7,-4.13 1.52,0.28 -0.33,-1.39 1.8,-0.64 0.44,-1.65 1.08,2.27 0,0 0.7,0 0,0 2.38,0.41 2.89,3.72 0.94,-1.76 1.92,0.21 1.28,4.65 2.35,1.27 0,0 0.89,-0.27 0,0 0.48,-0.57 0,0 0.92,3.59 -3.29,-0.03 -0.51,1.33 2.96,4.36 -1.33,1.25 0.71,2.48 -2.34,3.97 1.26,0.47 -2.37,6.67 4.08,2.89 -2.64,3.15 6.77,8.02 1.14,0.24 3.47,-3.19 2.94,3.44 3.79,0.3 -0.34,2.83 -2.3,-0.56 2.15,1.68 2.21,-0.91 1.46,3.59 0,0 0.87,0 0,0 1.49,0.7 2.26,-2.77 5.92,2.53 -0.36,1.74 1.29,-1.36 6.8,-0.19 0.8,3.24 -1.25,3.68 7.9,6.7 1.55,-2.06 2.39,1.87 3.17,0.03 1.28,-1.64 1.68,0.81 0.76,-1.43 2.09,0.93 0.5,1.74 -1.5,0.12 3.26,1.45 -0.81,0.77 1.7,1.64 -1.04,0.38 0.57,1.3 -3.93,-0.25 0.11,2.13 -1.26,0.44 0.72,2.07 -2.05,0.75 0.75,1.65 -4.18,3.85 0.6,1.13 1.28,-1.25 1.4,0.58 0.04,2.47 5.01,1.4 -0.58,1.36 1.14,1.02 0,0 -1.7,0.89 -0.69,1.86 0.95,0.13 -1.79,0.55 -0.86,2.14 0,0 -2.35,-0.7 -1.22,-3.17 -2.96,-2.13 -1.12,0.91 -2.78,-0.86 -5.29,-4.16 -6.28,0.2 -1.67,-2.01 -1.56,5.67 -3.34,-0.9 -3.18,2.33 -2.61,0.1 0.79,-2.61 -1.73,-2.63 0.53,-1.73 -8.02,-0.85 -0.64,-2.24 -5.83,0.07 0.14,3.22 -1.94,3.07 1.41,8.92 -0.7,4.05 -1.16,0.2 1.19,4.24 -1.12,0.05 -1.69,6.06 2.42,2.58 -0.36,1.41 -1.86,1.44 -6.11,-1.64 -0.67,-1.4 -6.43,0.19 -0.12,6.18 -7.34,6.38 -1.33,5 0.79,6.74 -1.78,2.57 -3.32,0.07 -1.48,-3.82 -2.18,0.45 -1.16,-3.02 -4.52,3.32 -1.48,-1.43 -3.83,-0.3 -2.96,-4.24 -2.35,0.71 1.05,2.47 -2.28,4.95 -3.9,-0.64 0.18,2.86 -2.84,-0.33 -2.15,3.08 -0.85,-1.62 -4.77,-2.37 -2.69,0.53 -4.56,-2.13 -5.41,-0.65 -1.42,1.16 -1.82,-0.41 0.05,-1.04 -2.66,0.64 0.15,-1.58 -2.43,-0.86 0.49,-2.1 -1.6,0.26 -1.72,-1.73 1.3,-1.88 2.54,0.01 0.61,-2.91 -2.3,-0.34 -2.8,-4.33 -4.24,-0.69 -7.45,-7.37 -5.56,-0.93 0.18,-3.22 -1.98,-4.35 -2.6,-0.77 -2.33,-6.95 -2,1.14 -3.99,-0.31 -4.43,-8.05 0.65,-1.38 -1.92,1.51 -2.54,-4.47 -2.68,0.35 0,0 -1.28,-2.47 0.68,-4.62 2.51,-4.29 1.47,0.8 1.45,-1.54 -0.54,-4.51 -1.64,-2.28 1.57,-0.48 -0.76,-2.52 0.96,-1.97 -1.01,-0.71 3.77,1.4 2.52,-3.21 3.25,-0.55 -0.85,-0.33 0.65,-2.97 2.47,-1.14 -2.45,-3.4 0,0 0,-0.58 0,0 0.59,-1.93 1,0.3 -0.4,-1.16 1.8,0.21 0.32,-2.03 -1.97,-0.04 -0.64,-2.96 2.44,0.2 0.74,-1.98 -1.38,-0.89 0.23,-1.66 4.51,-1.95 -0.28,-2.32 1.92,-3.18 -2.86,-4.77 0.44,-3.21 2.14,-1.67 -2.02,-2.5 0.42,-4.44 -1.87,-0.3 0.33,-1.05 0,0 0,-0.5 0,0 z" 
                fill="rgb(151, 144, 238)" 
                stroke="white" 
                stroke-width=".7px"
                title="Jihočeský" 
                id="CZ-JC" 
            />
        </svg>