<svg xmlns="http://www.w3.org/2000/svg" viewBox="312.17116000000016 201.46818999999985 190.55000000000007 139.8800000000002" width="190.55000000000007" height="139.8800000000002">
            <path 
                d="m 502.72116,309.14819 -4.38,2.01 -0.72,1.92 -4.05,1.29 -2.77,0.16 -5.74,-4.19 -5.07,4.31 -2.94,0.08 -3.91,-4.23 -1.39,0.38 -2.45,-2.44 -7.53,-2.26 -3.68,4.14 -3.95,2.04 -1.99,6.08 -4.03,2.75 -3.96,7.35 0.88,2.05 -3.62,3.62 0.47,2.87 -3.12,4.27 -2.03,-0.85 0.79,-2.71 -2.28,-10.27 -2.03,-0.75 -1.12,1.58 -3.04,-0.72 -3.01,1.52 -3.86,-1.39 -0.95,-2.23 -2,-0.75 -3.88,1.34 -1.65,-7.23 -6.32,-0.15 -4.82,-4.35 -1.92,2.05 -4.54,-1.03 -1.8,0.89 -1.29,4.64 -5.02,5.03 -1.76,0.19 -1.66,-2.61 -0.9,2.08 -4.95,-1.35 -15.74,-0.52 -9.9,-4.58 -3.89,-3.63 0.61,-2.46 -1.36,-0.62 -0.85,1.14 -1.27,-2.67 -2.3,0.58 -0.06,-1.11 1.12,0.55 -0.66,-1.3 -1.09,0.89 -0.95,-2.49 -0.9,1.04 -2.06,-0.97 0.86,-1.08 -1.14,-1.36 -5.47,0.37 -2.42,3.18 -3.86,-1.26 -1.56,0.73 -6.74,-5.59 -3.55,0 -3.38,-1.63 0,0 0.86,-2.14 1.79,-0.55 -0.95,-0.12 0.69,-1.87 1.71,-0.89 0,0 0.02,-0.97 2.36,-0.4 1.09,2.32 2.19,0.51 1.15,-3.53 4.05,-0.55 2.09,2.88 2.61,-4.64 3.21,-0.59 2.17,-3.56 5.14,0.23 0.89,-4.1 2.93,1.32 1.48,-1.32 -0.2,-1.66 2.61,-0.73 0.73,2.43 2.48,1.62 2.34,-0.61 0.98,-2.3 4.82,2.31 0.23,-1.16 5.32,-0.96 -1.63,-1.68 0.88,-1.11 6.38,-0.58 1.25,-3.66 2.18,-0.34 1.76,-2.16 0.24,-1.83 -1.55,-0.68 0.63,-1.45 -2.21,1.05 0.3,-2.65 -1.17,-1.13 0.6,-1.37 3.72,-1.48 0.04,-2.11 -3.28,-1.63 1.37,-5.55 3.18,-0.69 -2.69,-2.54 0.11,-2.13 1.93,-0.87 0.8,-3.76 6.12,-3 0,0 0.8,0 0,0 1.88,-1.77 -1.36,-3.59 1.15,-4.06 -1.32,-0.28 -0.43,-3.71 2.23,-4.54 -3.23,-3.25 2.89,0.89 2.96,-4.25 -0.81,-2.19 -1.98,0.06 -1.34,-1.76 1.69,-1.61 -0.05,-2.59 0,0 1.35,1.2 0.98,-3.06 2.28,-0.63 0.34,1.68 3.87,-1.82 1.56,1.4 3.17,0.04 1.36,-5.65 4.5,1.38 1.63,-1.53 2.48,1.73 1.32,-1.1 3.12,0.54 6.93,3.71 2.54,-0.36 0,0 -1.43,1.15 0.61,2.36 -4.5,-1.1 -0.81,5.42 8.72,1.6 -2.02,0.07 -0.52,2.57 -1.56,0.42 0.83,7.3 1.92,0.79 0.9,2.09 -2.54,1.07 -0.33,2.25 5.7,4.27 2.93,-2.92 1.77,-4.35 -2.78,-6.38 2.03,-2.01 3.28,0.74 4.08,9.03 1.27,0.5 0.06,3.71 3.73,1.05 0.94,-2.52 0.64,1.72 -2.66,2.08 0.24,1.94 9.72,5.26 1.76,6.94 0,0 -2.66,4.08 1.62,1.97 -0.92,2.22 2.63,3.34 -1.83,2.1 3.54,0.23 1.09,-1.37 0.46,1.27 -1.38,5 -3.24,0.68 -0.81,4.09 -2.48,0.11 -0.34,3.47 3.09,0.5 6.31,-2.55 1.58,3.76 -0.89,4.47 2.58,-0.87 0.09,1.06 1.37,-0.41 0.84,2.74 5.36,-0.15 2.24,1.29 -0.58,3.82 2.08,0.51 1.6,-1.08 3.49,4.38 2.97,-1.66 1.51,0.75 1.38,-1.51 0.95,2.06 3.69,0.88 -0.9,3.4 5.65,1.67 4.22,7.86 z" 
                fill="rgb(151, 144, 238)" 
                stroke="white" 
                stroke-width=".7px"
                title="Jihomoravský" 
                id="CZ-JM" 
            />
        </svg>