<svg xmlns="http://www.w3.org/2000/svg" viewBox="0.291156780000021 85.19819000000004 109.41000322 79.99999999999997" width="109.41000322" height="79.99999999999997">
            <path 
                d="m 72.661157,89.24819 5.08,3.73 0,0 2.42,2.04 4.14,-0.62 2.4,1.74 1.52,-1.23 1.51,1.47 1.6,-0.26 -0.03,3.31 1.59,1.67 1.66,-1.75 4.48,1.38 2.340003,-1.58 2.48,3.59 -0.92,2.43 0,0 -0.22,0 0,0 0.8,2.99 -1.62,3.2 1.68,0.38 0.2,3.26 -1.34,0.85 3.05,2.21 -1.97,2.71 2.53,0.34 1.26,5.26 1.08,0.04 -0.33,1.55 -1.62,-0.04 1.54,2.81 -4.14,-0.64 0,0 -0.05,0.11 0,0 -0.62,1.04 1.44,1.15 2.56,-0.3 2.54,3.99 0,0 -1.79,0.04 -0.37,3.09 1.89,0.35 -1.55,3.15 -4.4,0.42 0.06,7.31 -2.85,-0.76 -1.440003,-2.06 -0.52,0.96 -1.81,-2.07 -4.74,0.09 -0.94,-1.48 -7.14,6.75 -1.19,-0.46 -0.49,1.61 -3.62,0.68 0,0 0,1.09 0,0 0.55,3.19 -2.74,2.64 -1.05,-0.38 0.32,0.87 -2.84,-1.86 -3.96,1.45 -3.86,-2.2 -1.96,-0.11 -1.35,1.58 -1.07,-0.67 0,0 0.03,0.18 0,0 -1.69,-0.18 -1.17,1.51 -2.42,-0.44 0.84,1.98 -3.58,0.44 0.71,2.41 -3.11,-3.49 -2.28,0.49 -2.38,2.7 -3.93,-1.66 0,0 -0.56,-2.36 -6.65,-2.98 2.5,-3.97 -0.83,-1.29 -2.67,-1.95 -2.56,1.48 -0.09,-2.5 -2.61,-0.35 -0.14,-1.53 -2.97,-0.21 -2.71,-3.12 -0.91,0.99 -0.95,-2.85 -5.1,-0.78 1.26,-2.54 -2.44,-2.95 -1.5,0.44 -2.88,-2.11 -0.4900002,-4.63 1.9500002,-3.71 -2.4200002,-3.64 0.73,-0.63 -1.28,-0.07 -0.77,-2.02 -1.32,0.38 -0.87,-3.49 -2.08,0.39 -3.21000002,-2.32 0.56,-1.84 3.82000002,-1.87 -1.9,-3.04 0.56,-1.29 -2.2,-1.64 7.54,-0.58 1.3800002,2.29 0.1,4.74 4.89,0.25 1.01,2.87 -1.88,-1.15 -0.52,1.79 4.89,3.54 -1.7,3.41 1.36,2.8 4.25,0.57 -1.22,-1.23 1.38,-1.52 -1.38,-2.08 1.06,-1.67 -0.39,-3.22 2.64,-0.05 -0.65,-2.87 1.67,-3.21 2.53,-1.1 0.02,-4.1 2.88,-0.1 0.95,-2.69 2.45,-1.88 1.88,0.77 -0.23,-3.03 2.28,-3.68 14.5,-2.82 3.05,2.77 2.6,-4.98 5.41,-2.4 1.36,2.55 0.82,-4.03 z" 
                fill="rgb(151, 144, 238)" 
                stroke="white" 
                stroke-width=".7px"
                title="Karlovarský" 
                id="CZ-KA" 
            />
        </svg>