<svg xmlns="http://www.w3.org/2000/svg" viewBox="272.58115999999984 39.7481899999999 134.10000000000014 104.78000000000003" width="134.10000000000014" height="104.78000000000003">
            <path 
                d="m 313.93116,40.15819 3.96,0.09 6.82,3.03 2.34,2.57 6.6,-0.79 3.3,-1.81 3.32,6.64 0.83,4.86 2.1,0.49 6.64,-2.93 2.93,1.04 1.02,5.64 1.83,2.06 -3.19,2.37 3.3,2.06 1.79,-2.13 1.36,0.5 0.85,-4.1 3.18,-3.4 6.08,2.51 1.55,2.54 2.83,-0.96 1.45,-5.27 3.86,0.44 0.72,1.11 5.2,-0.24 7.15,7.84 2.06,4 -3.59,1.45 0.56,2.92 -2.07,0.86 1.17,1.97 -3.62,3.78 -1.43,0.83 -2.89,-1.55 -1.62,3.83 -3.29,-0.03 -0.31,1.78 -2.98,1.12 0.82,2.3 -1.62,-1.22 -1.56,2.69 1.38,3.1 2.41,-0.45 1.4,1.28 -0.53,1.21 1.46,0.56 1.47,3.59 2.28,-2.23 5.09,0.49 0.12,4.33 1.87,2.8 1.47,1.35 3.3,-0.24 4.77,7.96 6.33,6.09 -0.01,7.13 2.49,2.38 -0.33,1.48 0,0 -1.11,0.64 -7.35,-3.81 -1.57,4.05 -4.29,2.53 -2.73,0.14 -1.53,2.28 -3.12,1.13 1.09,2.26 -3.98,2.28 1.95,2.94 -4.57,-1.48 -3.05,1.18 -0.09,-1.8 -0.65,1.3 -3.94,1.01 -2.55,-3.2 -2.69,-0.11 -2.46,-2.99 -3.25,-0.46 -1,-3.55 -4.81,0.05 0.01,-4.65 -1.74,-0.12 -0.01,-1.64 -4.62,-0.32 -2.04,-1.58 -0.01,0.95 -2.67,0.28 -0.16,2.15 -2.91,-0.05 -1.67,2.33 -2.76,-1.24 0.5,-2.85 -3.21,-2.1 -3.07,1.94 -0.08,2.6 -1.31,1.13 -1.86,-0.65 -1.49,1.93 -3.68,-2.12 -0.21,1.09 -4.46,-0.9 0.48,0.88 -1.43,-0.07 -1.64,-2.37 -1.43,2.21 -1.31,-0.91 -1.38,0.76 -0.05,2.58 -2.97,0.41 0,0 0,0.63 0,0 -3.2,1.92 -1.01,-1.31 0,0 0.3,-2.55 -2.73,-2.25 -1.25,0.76 -1.76,-1.52 -3.07,-0.05 2.33,-1.42 -1.62,-1.55 3.63,-4.04 -0.46,-3.13 -1.75,-1.4 -0.31,-2.8 1.44,-1.06 -0.6,-4.18 -2.43,-2.24 -4.01,2.63 -3.72,-1.75 -2.55,1.1 -2.74,-1.32 0.85,-3.31 -3.13,-1.33 0.64,-1.58 -5.23,-0.81 -0.77,-1.65 0.92,-0.91 -2.66,-1.96 1.28,-1.74 2.23,0.25 -0.48,-2.23 1.85,-0.68 -0.19,-4.25 -2.18,-1.75 1.25,-3.34 -2.82,-4.03 2.8,-2.82 0,0 7.07,4.01 1.71,-0.42 -0.36,-1.35 2.56,-2.74 4.18,2.14 2.2,-0.25 2.95,2.51 0.98,-1.83 1.13,4.01 4.5,-1.25 0.92,-1.54 -1.42,-3.11 3.73,-1.61 -0.06,-1.91 1.66,1.05 -0.18,2.06 0.46,-1.01 3.36,2.54 2.39,-1.77 2.83,2.31 -0.39,-1.53 3.88,-0.3 -1.99,-3.88 -1.73,-0.88 1,-0.4 -1.49,-1.11 0.71,-1.05 -2.04,-0.97 2.79,-4.74 -3.33,-3.25 1.53,-2.21 -2.21,-8.45 1.46,-3.35 -3.2,-3.19 -0.41,-3.05 0,0 z" 
                fill="rgb(151, 144, 238)" 
                stroke="white" 
                stroke-width=".7px"
                title="Královéhradecký" 
                id="CZ-KR" 
            />
        </svg>