<svg xmlns="http://www.w3.org/2000/svg" viewBox="203.8011600000001 4.83819 116.61999999999995 78.51999999999997" width="116.61999999999995" height="78.51999999999997">
            <path 
                d="m 265.09116,4.83819 1.75,1.68 1.45,-0.03 0.5,-1.46 3.95,1.69 -0.01,3.08 3.35,-0.31 0.04,-2.75 2.42,-1.29 0.19,4.8 1.65,0.91 4.63,-2.62 -0.17,1.89 3.18,0.82 0.05,2.55 1.57,1.14 -2.16,3.12 0.83,6 2.89,4.12 4.07,1.53 1.21,2.17 0.48,8.14 1.98,0.34 3.84,-4.62 8.73,4.01 0,0 0.41,3.05 3.2,3.19 -1.46,3.35 2.21,8.45 -1.53,2.21 3.33,3.25 -2.79,4.74 2.04,0.97 -0.71,1.05 1.49,1.11 -1,0.4 1.73,0.88 1.99,3.88 -3.88,0.3 0.39,1.53 -2.83,-2.31 -2.39,1.77 -3.36,-2.54 -0.46,1.01 0.18,-2.06 -1.66,-1.05 0.06,1.91 -3.73,1.61 1.42,3.11 -0.92,1.54 -4.5,1.25 -1.13,-4.01 -0.98,1.83 -2.95,-2.51 -2.2,0.25 -4.18,-2.14 -2.56,2.74 0.36,1.35 -1.71,0.42 -7.07,-4.01 0,0 -3.99,-1.36 -0.55,-3.12 -2.7,-2.35 -2.31,0.86 -3.07,-5.62 -2.71,0.3 -0.69,1.51 -3.93,-3.85 -1.49,0.27 0.68,1.38 -1.73,0.74 0.58,2.03 -5.31,2.4 0.3,1.97 -1.84,3.12 -1.64,1.25 -0.92,-0.78 -1.12,2.99 -5.48,-1.24 -0.66,2.79 -2.38,0.98 -0.14,1.63 -3.21,-0.63 -0.8,0.91 -1.25,-1.08 -1.87,1.99 -1.96,-0.2 -1.12,-5.23 -2.74,2.11 -3.3,-1.91 -0.88,2.43 -1.55,-1.84 0,0 -1.12,-3 -2.74,-0.42 -3.16,-8.3 -2.35,-1.7 -1.82,-3.98 0.2,-4.03 -1.75,-0.15 0.57,-2.55 2.66,-2.19 -0.05,-4.14 1.38,-0.53 0,0 0.79,-0.29 0,0 1.01,-1.93 0.22,0.98 1.32,-0.46 -1.16,-0.95 0.95,-3.34 2.69,-2.05 -0.86,-0.78 0.88,-2.87 -1.25,-0.77 2.87,-0.7 4.37,2.84 2.55,-0.2 1.48,-5.73 3.14,-0.45 1.49,-2.47 0,0 6.28,2.83 1.66,-0.43 0.98,2.62 2.31,-0.87 2.28,1.42 2.67,-0.4 3.03,-7.32 1.71,0.52 1.86,-1.19 2.29,1.49 0.32,-1.19 5.31,1.96 3.87,-0.66 -0.7,-3.58 1.11,-1.93 -1.53,-2.51 2.22,-2.29 0.71,-4.02 -1.34,-2.63 -1.7,1.06 -1.79,-1.77 1.51,-2.93 z" 
                fill="rgb(151, 144, 238)" 
                stroke="white" 
                stroke-width=".7px"
                title="Liberecký" 
                id="CZ-LI" 
            />
        </svg>