<svg xmlns="http://www.w3.org/2000/svg" viewBox="457.39115999999956 103.82818999999992 154.76999999999998 130.94000000000005" width="154.76999999999998" height="130.94000000000005">
            <path 
                d="m 510.79116,107.63819 1.3,0.28 -2.48,5.91 3.59,2.96 -0.58,4.17 -3.56,0.1 -1.14,2.96 -9.4,2.07 -0.87,1.46 4.6,4.52 0.58,2.32 2.4,1.06 0.59,-1.83 1.28,0 2.98,2.67 3.67,6.94 0.6,4.04 4.58,1.24 -0.12,2.31 3.87,3.04 4.57,-0.75 3.03,-3.76 2.64,-0.04 1.98,-1.86 0.3,1.11 3.37,0.77 -0.06,-4.39 -1.78,-0.36 -1.33,1.22 -0.52,-1.17 0.06,-2.05 2.59,-1.78 5.03,3.1 -0.33,1.53 1.54,1.35 -0.81,1.22 2.01,2.79 1.56,-0.46 1.89,2.17 1.61,-1.06 -0.36,-1.19 3.5,0.05 0.74,3.66 5.66,1.04 0.41,4.13 3.36,2.8 1.02,-2.17 0.93,0.72 1.06,-1.26 -1.69,-1.99 3.21,1.71 5.5,-0.23 0.26,1.38 5.08,3.38 3.97,0.4 1.26,-1.03 -0.64,-2.42 2.97,0.63 0.6,2.3 -1.23,3.46 3.56,2.62 -1.96,1.29 -1.16,3.41 5.28,11.26 -0.32,3.43 3.9,2.69 3.66,-0.18 0.83,2.98 2.14,0.99 3.66,-1.28 2.53,1.62 -0.36,3.09 1.77,7.49 1.17,0.33 -0.05,4.74 1.87,1.55 -1.59,4.07 -5.14,1.86 -2.52,2.43 -6.9,-2.52 -5.41,1.63 -1.61,-0.25 -0.52,-1.68 -2.76,0.32 -2.76,2.26 0.95,3.43 -4.91,4.28 -1.42,3.75 -3.42,2.35 -2.99,-0.55 0,0 -3.58,-1.28 0.11,-3.7 -5.36,-4.49 -0.84,-3.64 -2.65,-0.26 -1.53,1.33 -4.58,-0.94 -3.35,-3.78 -2.6,1.08 -0.81,-1.57 -11.7,2.34 -2.21,-4.74 -5.23,-0.1 0,0 -0.98,-3.61 -2.04,-0.14 -1.67,2.82 -0.85,-0.86 -1.06,-1.72 1.88,-2.41 -4.42,-5.73 -3.29,-1.39 -0.41,-2.81 -2.56,-3.37 -2.15,1.54 -2.66,-1.59 -0.92,-3.93 1.32,-4.21 0,0 -0.22,0 0,0 -0.65,0.87 -3.16,-2.58 0,0 -0.72,0.04 0,0 -0.95,-0.67 -3.43,2.57 -5.48,-3.81 -1.35,2.89 -2.29,-0.55 -1.05,-2.02 -4.89,0.39 -5.17,-7.02 -1.28,-0.86 -1.72,0.87 0,0 -0.46,0 0,0 -0.87,1.14 -0.17,-1.15 -6.43,-2.76 -3.16,1.09 0.78,-5.74 -3.49,2 -3.47,-4.67 0.21,-1.54 0,0 0.45,0.04 0,0 1.87,-3.04 -1.22,-1.44 1.92,-1.6 0,0 0.4,0 0,0 1.13,-3.61 -4.08,-3.49 1.51,-0.87 -0.03,-3.44 5.8,-6.87 -1.17,-5.76 2.61,-2.63 -0.8,-2.98 3.86,-4.15 1.71,0.01 0.64,-2.09 2.7,0.43 3.47,-5.34 3.55,1.85 1.2,-6.34 0,0 2.18,-0.37 0.18,-1.85 3.39,-0.72 4.61,0.75 4.12,-1.28 2.1,1.76 6.6,-4.85 -0.02,-3.84 2.7,1.01 z" 
                fill="rgb(151, 144, 238)" 
                stroke="white" 
                stroke-width=".7px"
                title="Moravskoslezský" 
                id="CZ-MO" 
            />
        </svg>