<svg xmlns="http://www.w3.org/2000/svg" viewBox="418.0811600000003 87.34819 108.74999999999977 164.60000000000014" width="108.74999999999977" height="164.60000000000014">
            <path 
                d="m 436.58116,87.34819 5.19,3.68 2.11,-1.32 4.93,2.95 5.2,0.25 0.08,1.64 2.94,1.76 5.46,-0.68 -0.26,3.01 4.32,4.52 3.97,2.06 5.22,-1.44 -1,2.09 1.36,0.68 -1.22,3.49 0.91,2.65 1.25,-0.06 0.18,-2.31 2.25,-0.13 2.81,0.79 0.84,3.25 0,0 -1.2,6.34 -3.55,-1.85 -3.47,5.34 -2.7,-0.43 -0.64,2.09 -1.71,-0.01 -3.86,4.15 0.8,2.98 -2.61,2.63 1.17,5.76 -5.8,6.87 0.03,3.44 -1.51,0.87 4.08,3.49 -1.13,3.61 0,0 -0.4,0 0,0 -1.92,1.6 1.22,1.44 -1.87,3.04 0,0 -0.45,-0.04 0,0 -0.21,1.54 3.47,4.67 3.49,-2 -0.78,5.74 3.16,-1.09 6.43,2.76 0.17,1.15 0.87,-1.14 0,0 0.46,0 0,0 1.72,-0.87 1.28,0.86 5.17,7.02 4.89,-0.39 1.05,2.02 2.29,0.55 1.35,-2.89 5.48,3.81 3.43,-2.57 0.95,0.67 0,0 0.72,-0.04 0,0 3.16,2.58 0.65,-0.87 0,0 0.22,0 0,0 -1.32,4.21 0.92,3.93 2.66,1.59 2.15,-1.54 2.56,3.37 0.41,2.81 3.29,1.39 4.42,5.73 -1.88,2.41 1.06,1.72 0.85,0.86 1.67,-2.82 2.04,0.14 0.98,3.61 0,0 -1.35,3.78 -5.24,-1.61 -0.31,2.61 -4.68,2.25 1.12,2.4 -2.01,1.64 -0.07,2 0,0 0,0 0,0 -0.4,0.94 -4.7,-0.04 -2.51,-3.48 -2.44,0.9 -0.13,2.38 -1.41,-1.68 -2.29,0.31 2.48,4.66 -1.92,2.23 -3.52,0.28 -0.86,-1.39 -4.76,1.53 -2.2,-0.73 1.06,2.51 -3.79,3.95 -2.31,-3.3 -1.7,0.5 -3.46,-1.74 -1.52,1.05 1.02,-3.44 -1.46,-1.27 -3.25,4.26 2.02,5.53 -3.07,1.69 -2.52,4.08 -1.97,1.03 -3.86,-0.55 -1.53,1.3 -1.67,-1.06 -1.49,3.96 -1.71,-0.94 0,0 0,0 0,0 -1.77,-6.94 -9.72,-5.26 -0.24,-1.93 2.66,-2.08 -0.64,-1.72 -0.94,2.52 -3.73,-1.05 -0.06,-3.71 -1.27,-0.5 -4.08,-9.03 -3.28,-0.74 -2.03,2.01 2.77,6.38 -1.77,4.36 -2.93,2.92 -5.69,-4.27 0.33,-2.24 2.54,-1.07 -0.9,-2.1 -1.92,-0.79 -0.83,-7.3 1.55,-0.41 0.52,-2.57 2.02,-0.07 -8.72,-1.6 0.81,-5.42 4.5,1.1 -0.6,-2.36 1.43,-1.16 0,0 0.29,-3.16 1.09,-0.14 -1.7,-2.08 0.22,-2.44 3.88,-3.53 0.11,-4.9 -1.4,-1.87 -3.86,0.36 2.03,-2.93 -1.78,-1.45 1.1,-1.31 -3.98,-4.08 0.04,-2.99 -2.23,-1.54 0.19,-4.4 2.67,-2.06 -5.02,-17.3 3.17,-0.31 0.15,0.9 0,0 0.43,-0.66 0,0 1.28,-2.47 4.01,-2.05 0.25,-3.83 -1.44,-1.45 2.2,-2.27 -1.62,-3.21 1.98,-1.15 3.57,-8.61 -0.11,-2.97 0,0 1.67,-0.23 1.46,-3.25 5.14,0.05 1.76,-3.07 2.1,4 2.63,-1.91 -2.35,-3.73 1.63,-3.01 -1.53,-3.45 -5.06,-1.86 -3.41,-10.44 -4.58,-2.59 2.02,-4.99 z" 
                fill="rgb(151, 144, 238)" 
                stroke="white" 
                stroke-width=".7px"
                title="Olomoucký" 
                id="CZ-OL" 
            />
        </svg>