<svg xmlns="http://www.w3.org/2000/svg" viewBox="296.63115999999997 120.79819000000006 135.43 88.84" width="135.43" height="88.84">
            <path 
                d="m 431.81116,122.05819 0.14,0.02 0,0 0.11,2.97 -3.57,8.61 -1.98,1.15 1.62,3.21 -2.2,2.27 1.44,1.45 -0.25,3.83 -4.01,2.05 -1.28,2.47 0,0 -0.43,0.66 0,0 -0.15,-0.9 -3.17,0.31 5.02,17.3 -2.67,2.06 -0.19,4.4 2.23,1.54 -0.04,2.99 3.98,4.08 -1.1,1.31 1.78,1.45 -2.03,2.93 3.86,-0.36 1.4,1.87 -0.11,4.9 -3.88,3.53 -0.22,2.44 1.7,2.08 -1.09,0.14 -0.29,3.16 0,0 -2.54,0.36 -6.93,-3.71 -3.12,-0.55 -1.32,1.1 -2.48,-1.72 -1.62,1.53 -4.51,-1.38 -1.35,5.65 -3.18,-0.04 -1.55,-1.41 -3.87,1.83 -0.34,-1.69 -2.28,0.63 -0.98,3.06 -1.35,-1.2 0,0 -3.83,-4.32 -4.15,-1.59 -1.42,0.61 -1.56,-1.31 0.29,-1.54 -7.08,-5.46 -4.12,0.15 -0.69,-1.59 -3.37,0.88 -2.23,-3.69 -1.88,-0.82 0,0 -0.58,0 0,0 -3.08,-0.27 -1.5,-2.93 -2.83,3.22 0,0 0,0.7 0,0 0.16,1.03 -1.63,0.42 0.7,1.38 -3.78,0.78 -6.47,-4.61 1.43,-3.67 -1.27,1.02 -3.86,-2.96 -2.89,0.31 0.64,-3.37 -4.03,0.2 -2.64,-3.38 -1.77,0.4 -0.16,-1.49 -1.93,-0.63 -1.69,1.27 -0.79,-1.38 -4.12,1.16 -1.66,-2.98 -7.01,-4.53 0,0 -0.01,-5.15 2.14,-0.62 1.49,-3.54 -1.87,-2 1.35,-2.83 -6.07,-3.18 0.97,-2.36 -1.41,0.6 -0.03,-1.79 -2.86,0.26 0.27,-1.12 -2.75,-0.28 -2.8,-2.82 0.95,-1.31 2.09,0.1 -1.96,-1.84 2.98,-0.38 -0.92,-3.44 2.2,-0.15 -2.55,-1.09 0.68,-1.23 2.86,0.81 0.3,-0.91 0,0 1.01,1.31 3.2,-1.92 0,0 0,-0.63 0,0 2.97,-0.41 0.05,-2.58 1.38,-0.76 1.31,0.91 1.43,-2.21 1.64,2.37 1.43,0.07 -0.48,-0.88 4.46,0.9 0.21,-1.09 3.68,2.12 1.49,-1.93 1.86,0.65 1.31,-1.13 0.08,-2.6 3.07,-1.94 3.21,2.1 -0.5,2.85 2.76,1.24 1.67,-2.33 2.91,0.05 0.16,-2.15 2.67,-0.28 0.01,-0.95 2.04,1.58 4.62,0.32 0.01,1.64 1.74,0.12 -0.01,4.65 4.81,-0.05 1,3.55 3.25,0.46 2.46,2.99 2.69,0.11 2.55,3.2 3.94,-1.01 0.65,-1.3 0.09,1.8 3.05,-1.18 4.57,1.48 -1.95,-2.94 3.98,-2.28 -1.09,-2.26 3.12,-1.13 1.53,-2.28 2.73,-0.14 4.29,-2.53 1.57,-4.05 7.35,3.81 1.11,-0.64 0,0 4.68,4.39 6.54,2.1 3.69,-5.38 3.37,-1.42 2.66,-6.56 0.93,0.41 2.2,-2.62 z" 
                fill="rgb(151, 144, 238)" 
                stroke="white" 
                stroke-width=".7px"
                title="Pardubický" 
                id="CZ-PA" 
            />
        </svg>