<svg xmlns="http://www.w3.org/2000/svg" viewBox="28.341157000000027 135.51819 129.49000299999994 161.41000000000008" width="129.49000299999994" height="161.41000000000008">
            <path 
                d="m 109.70116,136.07819 2.05,-0.56 0.91,2.25 1.92,-2.1 1.49,3.36 3.39,-1.6 0,0 1.88,3.83 -1.51,0.13 -1.32,4.1 3.21,0.63 1.08,-1.92 2.6,-0.14 1.06,1.49 2.49,-1.38 1.92,1.43 -3.05,0.63 1.82,2 2.76,0.47 1.5,2.08 5.05,-0.14 0,0 0.51,0 0,0 1.31,-0.88 2,0.71 2.99,4.57 4.24,-0.12 -0.36,3.51 3.57,-0.18 2.52,2.05 1.87,-0.09 -1.24,2.55 1.47,5.75 -2.37,0.03 -0.89,5.15 1.07,2.75 -1.79,1.48 0.83,2.83 -1.49,2.71 1.69,-0.57 1.58,1.56 -3.42,1.58 -1.79,3.39 -2.22,-1.88 -3.68,2.03 -2.15,2.9 0.77,2.85 1.77,-1.37 2.47,0.95 -3.46,0.88 -0.2,1.46 2.72,2.34 -1.68,0.93 1.54,0.39 -0.71,0.98 4.15,1.15 -1.5,10.47 0.65,-0.87 1.78,0.82 0.16,4.43 0,0 -1.19,2.22 0,0 0,0.5 0,0 -0.33,1.05 1.87,0.3 -0.42,4.44 2.02,2.5 -2.14,1.67 -0.44,3.21 2.86,4.77 -1.92,3.18 0.28,2.32 -4.51,1.95 -0.23,1.66 1.38,0.89 -0.74,1.98 -2.44,-0.2 0.64,2.96 1.97,0.04 -0.32,2.03 -1.8,-0.21 0.4,1.16 -1,-0.3 -0.59,1.93 0,0 0,0.58 0,0 2.45,3.4 -2.47,1.14 -0.65,2.97 0.85,0.33 -3.25,0.55 -2.52,3.21 -3.77,-1.4 1.01,0.71 -0.96,1.97 0.76,2.52 -1.57,0.48 1.64,2.28 0.54,4.51 -1.45,1.54 -1.47,-0.8 -2.51,4.29 -0.68,4.62 1.28,2.47 0,0 -3.89,-0.2 0,3.65 -1.09,0.18 -8.37,-6.25 -0.91,-9.21 -9.41,-8.93 -4.86,0.64 -5.140003,-3.19 -0.62,-4.9 -5.45,-4.11 0.25,-2.18 -2.36,-1.34 -0.62,-2.61 -1.82,-0.55 -0.66,-1.81 -1.84,-0.11 -0.43,-5.47 -2.05,-0.25 -3.1,-3.89 -7.5,-2.35 -0.61,2.96 -3.08,-2.09 -6.05,-0.29 -2.16,-6.66 -4.42,-4.14 -4.62,-1.36 -0.05,-2.62 -2.1,-3.3 0.95,-6.46 -0.7,-1.24 -1.34,0.82 -2.87,-1.58 -2.66,-11.35 -2.92,0.21 -0.57,-9.49 -3.1,-0.1 -4.11,-2.29 -3.46,-5.44 -0.16,-2.54 6.4,-3.6 -0.71,-3.38 0.92,-3.49 2.11,-0.34 -0.05,-2.56 1.26,-0.35 3.59,-6.5 0,0 3.93,1.66 2.38,-2.7 2.28,-0.49 3.11,3.49 -0.71,-2.41 3.58,-0.44 -0.84,-1.98 2.42,0.44 1.17,-1.51 1.69,0.18 0,0 -0.03,-0.18 0,0 1.07,0.67 1.35,-1.58 1.96,0.11 3.86,2.2 3.96,-1.45 2.84,1.86 -0.32,-0.87 1.05,0.38 2.74,-2.64 -0.55,-3.19 0,0 0,-1.09 0,0 3.62,-0.68 0.49,-1.61 1.19,0.46 7.14,-6.75 0.94,1.48 4.74,-0.09 1.81,2.07 0.52,-0.96 1.440003,2.06 2.85,0.76 -0.06,-7.31 4.4,-0.42 1.55,-3.15 -1.89,-0.35 0.37,-3.09 z" 
                fill="rgb(151, 144, 238)" 
                stroke="white" 
                stroke-width=".7px"
                title="Plzeňský" 
                id="CZ-PL" 
            />
        </svg>