<svg xmlns="http://www.w3.org/2000/svg" viewBox="192.89115999999996 125.24818999999994 43.51999999999998 33.03" width="43.51999999999998" height="33.03">
            <path 
                d="m 220.88116,126.08819 0.17,0.32 0,0 1.82,0.57 0,0 0.84,1.07 0,0 -1.46,1.46 4.19,-1.1 0.57,3.38 4.92,1.05 0.69,2.94 3.79,1.31 -0.44,2.85 -5.38,2.15 0.32,2.04 1.48,-0.49 0,0 -0.45,2.27 1.15,1.56 -0.99,1.92 0,0 -1.02,-0.69 -0.48,2.29 -5.22,-3.14 -0.91,0.92 -1.41,-0.83 -1.05,1.35 -1.47,-0.67 0,0 -0.02,0.17 0,0 -0.08,1.44 -2.67,-0.11 -3.31,3.86 -3.48,1.13 -1.99,-0.71 -0.43,3.88 -1.32,-1.4 -4.02,0.5 -1.14,-1.54 1.72,-1.33 -1.5,-0.39 1.46,-2.82 -3.17,-0.68 -0.38,-4.77 -2.43,-0.21 -0.64,-3.28 -1.98,-0.72 0.96,-1.6 3.2,-0.9 -4.11,-3.33 -2.32,-0.14 3.11,-1.78 2.37,0.15 1.94,-2.21 1.07,0.13 -0.45,1.94 4.56,-0.24 -0.65,-2.98 1.08,-1.51 2.54,0.99 3.02,-2.31 3.72,0.59 -0.35,-0.9 0,0 -0.03,-0.73 0,0 4.61,-1.24 0,0 1.41,-0.32 0,0 -0.07,0.62 0,0 z" 
                fill="rgb(151, 144, 238)" 
                stroke="white" 
                stroke-width=".7px"
                title="Prague" 
                id="CZ-PR" 
            />
        </svg>