<svg xmlns="http://www.w3.org/2000/svg" viewBox="118.53115999999996 62.63819000000001 193.29000000000008 157.03000000000017" width="193.29000000000008" height="157.03000000000017">
            <path 
                d="m 216.54116,78.71819 1.55,1.84 0.88,-2.44 3.3,1.91 2.74,-2.11 1.12,5.23 1.96,0.2 1.87,-1.98 1.25,1.08 0.8,-0.91 3.21,0.62 0.14,-1.63 2.38,-0.98 0.66,-2.79 5.48,1.25 1.12,-2.99 0.92,0.78 1.64,-1.25 1.84,-3.12 -0.3,-1.97 5.31,-2.4 -0.58,-2.03 1.73,-0.74 -0.68,-1.38 1.49,-0.27 3.92,3.85 0.7,-1.51 2.7,-0.3 3.07,5.61 2.31,-0.85 2.69,2.34 0.55,3.12 3.99,1.36 0,0 -2.8,2.82 2.82,4.03 -1.25,3.34 2.18,1.76 0.19,4.25 -1.84,0.68 0.48,2.23 -2.23,-0.25 -1.28,1.74 2.67,1.96 -0.92,0.9 0.77,1.65 5.23,0.81 -0.64,1.58 3.13,1.33 -0.85,3.32 2.74,1.31 2.55,-1.1 3.72,1.75 4.01,-2.63 2.43,2.24 0.6,4.18 -1.44,1.06 0.31,2.81 1.75,1.4 0.46,3.13 -3.63,4.04 1.62,1.55 -2.32,1.42 3.07,0.06 1.76,1.52 1.25,-0.76 2.73,2.25 -0.3,2.54 0,0 -0.3,0.91 -2.87,-0.82 -0.68,1.24 2.55,1.08 -2.2,0.15 0.91,3.44 -2.97,0.38 1.96,1.84 -2.1,-0.1 -0.95,1.31 2.8,2.82 2.75,0.28 -0.26,1.12 2.86,-0.27 0.03,1.8 1.41,-0.6 -0.97,2.36 6.07,3.18 -1.35,2.84 1.86,2 -1.48,3.54 -2.14,0.62 0.01,5.15 0,0 -2.83,3.33 -1.82,-1.16 -2.28,1.89 -0.47,1.71 2.02,2.24 -1.45,1.63 0,0 -0.52,-0.04 0,0 -3.04,-0.99 -1.33,3.24 -1.82,1.03 -5.63,0.47 -1.88,2.11 -1.21,-0.53 0.37,-1.17 -1.53,0.82 0,0 -0.38,-0.01 0,0 -1.13,0.63 -0.49,3.59 -3.13,2.37 -0.31,3.05 0.7,2.76 4.4,0.54 1.29,2.83 -0.61,2.95 -1.84,1.28 -2.93,-1 -0.52,1.36 -1.18,-0.38 -0.8,3.39 -4.05,-2.99 -1.57,1.61 -4.01,0.71 -2.05,-1.39 -0.93,1.04 -1.7,-1.64 -2.2,0.33 -0.92,1.42 1.53,2.18 -4.18,0.11 0.45,2.99 -1.1,0.07 0,0 0.03,0.74 0,0 -0.03,0.22 0,0 -0.48,0.57 0,0 -0.9,0.26 0,0 -2.34,-1.26 -1.28,-4.66 -1.92,-0.21 -0.94,1.77 -2.89,-3.73 -2.38,-0.4 0,0 -0.71,0 0,0 -1.08,-2.27 -0.44,1.64 -1.8,0.64 0.33,1.39 -1.53,-0.28 -0.7,4.13 1.27,2.63 -4.8,1.43 -2.96,2.68 -0.29,2.17 -1.14,-2.22 -4.68,0.17 0.64,-3.56 -2.61,1.76 -7.5,-1.99 -1.15,1.99 -1.92,-2.46 -1.49,1.01 -1.85,-2.32 0.67,2.99 -2.42,-0.86 -1.85,2.32 -2.32,-0.85 -0.83,0.83 0.24,-1.72 -2.57,-1.47 -0.61,0.71 -2.25,-3.02 -4.3,0.49 -1.56,4.28 -1.22,-0.78 -4.21,1.08 -2.55,-1.19 0.34,1.49 -1.68,-1.15 -0.45,1.03 -2.62,-0.06 0.06,-3.89 -3.07,-0.44 -1.41,1.6 -1.27,-0.32 0.46,1.6 -1.52,2.88 -1.4,-0.76 -0.58,1.78 -2.31,-0.93 -1.6,2.36 -3.67,-0.85 0.68,-0.99 -1.68,0.18 -0.76,-1.63 -2.79,2.01 -1.69,-2.29 -3.63,2.53 -1.54,-0.75 0,0 -0.16,-4.43 -1.78,-0.82 -0.65,0.88 1.5,-10.47 -4.15,-1.16 0.71,-0.97 -1.55,-0.39 1.68,-0.93 -2.72,-2.34 0.21,-1.46 3.45,-0.88 -2.47,-0.95 -1.77,1.37 -0.77,-2.84 2.15,-2.9 3.68,-2.04 2.22,1.88 1.79,-3.39 3.43,-1.58 -1.58,-1.56 -1.69,0.57 1.49,-2.71 -0.83,-2.83 1.79,-1.48 -1.07,-2.75 0.89,-5.15 2.37,-0.03 -1.46,-5.75 1.24,-2.55 -1.87,0.08 -2.52,-2.04 -3.57,0.18 0.36,-3.52 -4.24,0.13 -2.98,-4.57 -2.01,-0.71 -1.3,0.88 0,0 -0.52,0 0,0 -5.05,0.14 -1.5,-2.08 -2.77,-0.48 -1.82,-1.99 3.06,-0.63 -1.93,-1.43 -2.49,1.38 -1.06,-1.49 -2.6,0.14 -1.08,1.92 -3.21,-0.63 1.32,-4.1 1.51,-0.13 -1.88,-3.84 0,0 -0.35,-1.21 1.76,-1.42 3.36,0.35 0.71,-3.66 1.8,0.69 -0.92,-2.11 1.17,-0.84 -0.46,-2.53 1.17,0.08 0,0 0.33,0 0,0 3.79,-3.66 2.08,0.89 3.47,-0.97 0.73,-2.54 1.5,0.03 3.42,-3.33 0.01,1.47 7.18,-0.11 0.3,-1.48 1.59,0.34 3.81,-4.4 2.57,3.19 2.16,-0.34 1.13,-3.79 3.76,-0.39 3.32,-2.64 -0.33,-2.19 3.56,0.51 -0.86,-4.26 2.31,-1.81 12.11,2.25 3.44,-0.41 0.23,-1.64 5.92,2.29 0.52,-0.97 0,0 0.16,0.03 0,0 1.73,-2.67 1.83,0.75 0,0 0.75,-0.47 0,0 1.86,-0.82 3.79,0.96 1.23,-6.3 -1.82,-4.7 1.74,-0.93 3.86,1.92 -1,-1.29 1.42,-1.25 -0.26,-1.87 4.48,0.54 -1.49,-6.73 1.65,-0.41 -0.35,-1.39 1.19,0.53 z m -1.69,48.82 0,0 0.34,0.9 -3.72,-0.59 -3.02,2.31 -2.54,-0.98 -1.08,1.5 0.64,2.98 -4.56,0.24 0.45,-1.94 -1.07,-0.13 -1.94,2.21 -2.37,-0.15 -3.11,1.79 2.31,0.14 4.11,3.33 -3.2,0.9 -0.96,1.6 1.98,0.72 0.64,3.29 2.42,0.21 0.38,4.77 3.17,0.67 -1.46,2.82 1.5,0.39 -1.73,1.33 1.14,1.54 4.02,-0.5 1.32,1.4 0.42,-3.88 2,0.71 3.47,-1.14 3.32,-3.86 2.67,0.11 0.08,-1.44 0,0 0.02,-0.17 0,0 1.46,0.67 1.06,-1.35 1.41,0.83 0.9,-0.93 5.23,3.14 0.48,-2.29 1.02,0.69 0,0 0.99,-1.92 -1.18,-1.81 0.48,-2.02 0,0 -1.47,0.49 -0.32,-2.04 5.37,-2.15 0.44,-2.85 -3.79,-1.31 -0.69,-2.94 -4.92,-1.05 -0.58,-3.38 -4.19,1.1 1.46,-1.46 0,0 -0.84,-1.07 0,0 -1.83,-0.56 0,0 -0.28,-0.55 0,0 0.07,-0.62 0,0 -1.41,0.32 0,0 -4.61,1.24 0.1,0.74 z" 
                fill="rgb(151, 144, 238)" 
                stroke="white" 
                stroke-width=".7px"
                title="Středočeský" 
                id="CZ-ST" 
            />
        </svg>