<svg xmlns="http://www.w3.org/2000/svg" viewBox="253.15115999999986 169.44819 138.36000000000004 127.89000000000004" width="138.36000000000004" height="127.89000000000004">
            <path 
                d="m 308.21116,169.44819 7.01,4.53 1.66,2.98 4.12,-1.16 0.79,1.38 1.69,-1.27 1.93,0.63 0.16,1.49 1.77,-0.4 2.64,3.38 4.03,-0.2 -0.64,3.37 2.89,-0.31 3.86,2.96 1.27,-1.02 -1.43,3.67 6.47,4.61 3.78,-0.78 -0.7,-1.38 1.63,-0.42 -0.16,-1.03 0,0 0,-0.7 0,0 2.83,-3.22 1.5,2.93 3.08,0.27 0,0 0.58,0 0,0 1.88,0.82 2.23,3.69 3.37,-0.88 0.69,1.59 4.12,-0.15 7.08,5.46 -0.29,1.54 1.56,1.31 1.42,-0.61 4.15,1.59 3.83,4.32 0,0 0.06,2.59 -1.69,1.61 1.33,1.77 1.98,-0.06 0.82,2.19 -2.96,4.25 -2.89,-0.89 3.23,3.25 -2.24,4.54 0.44,3.71 1.32,0.28 -1.15,4.06 1.36,3.59 -1.89,1.77 0,0 -0.79,0 0,0 -6.12,3 -0.81,3.76 -1.92,0.87 -0.11,2.13 2.68,2.54 -3.18,0.69 -1.37,5.55 3.28,1.63 -0.04,2.11 -3.72,1.48 -0.6,1.36 1.17,1.13 -0.3,2.65 2.21,-1.05 -0.64,1.45 1.55,0.68 -0.25,1.83 -1.76,2.16 -2.18,0.34 -1.25,3.67 -6.38,0.57 -0.88,1.12 1.63,1.68 -5.32,0.96 -0.23,1.15 -4.82,-2.31 -0.98,2.3 -2.34,0.61 -2.47,-1.63 -0.74,-2.43 -2.61,0.73 0.2,1.66 -1.48,1.32 -2.93,-1.32 -0.89,4.1 -5.14,-0.24 -2.17,3.56 -3.21,0.59 -2.62,4.65 -2.09,-2.89 -4.05,0.55 -1.15,3.53 -2.18,-0.51 -1.1,-2.32 -2.36,0.4 -0.02,0.98 0,0 -1.14,-1.02 0.58,-1.36 -5.01,-1.4 -0.04,-2.47 -1.4,-0.58 -1.28,1.25 -0.6,-1.13 4.18,-3.85 -0.75,-1.65 2.05,-0.75 -0.72,-2.07 1.26,-0.44 -0.11,-2.13 3.93,0.25 -0.57,-1.3 1.04,-0.38 -1.7,-1.64 0.81,-0.77 -3.26,-1.45 1.5,-0.12 -0.5,-1.74 -2.09,-0.93 -0.76,1.43 -1.68,-0.81 -1.28,1.64 -3.17,-0.03 -2.39,-1.87 -1.55,2.06 -7.9,-6.7 1.25,-3.68 -0.8,-3.24 -6.8,0.19 -1.29,1.36 0.36,-1.74 -5.92,-2.53 -2.26,2.77 -1.49,-0.7 0,0 -0.87,0 0,0 -1.46,-3.59 -2.21,0.91 -2.15,-1.68 2.3,0.56 0.34,-2.83 -3.79,-0.3 -2.94,-3.44 -3.47,3.19 -1.14,-0.24 -6.77,-8.02 2.64,-3.15 -4.08,-2.89 2.37,-6.67 -1.26,-0.47 2.34,-3.97 -0.71,-2.48 1.33,-1.25 -2.96,-4.36 0.51,-1.33 3.29,0.03 -0.92,-3.59 0,0 0.03,-0.22 0,0 -0.03,-0.74 0,0 1.1,-0.06 -0.45,-2.99 4.18,-0.12 -1.53,-2.18 0.92,-1.42 2.2,-0.33 1.7,1.64 0.93,-1.04 2.05,1.39 4.01,-0.71 1.57,-1.62 4.05,3 0.81,-3.4 1.18,0.38 0.52,-1.37 2.93,1.01 1.83,-1.29 0.62,-2.95 -1.3,-2.82 -4.4,-0.55 -0.69,-2.76 0.3,-3.05 3.13,-2.37 0.49,-3.58 1.13,-0.63 0,0 0.38,0.01 0,0 1.53,-0.82 -0.37,1.17 1.21,0.53 1.88,-2.11 5.63,-0.47 1.82,-1.03 1.33,-3.24 3.04,0.99 0,0 0.51,0.04 0,0 1.45,-1.64 -2.02,-2.23 0.47,-1.71 2.28,-1.88 1.82,1.16 z" 
                fill="rgb(151, 144, 238)" 
                stroke="white" 
                stroke-width=".7px"
                title="VysoÄina" 
                id="CZ-VY" 
            />
        </svg>