<svg xmlns="http://www.w3.org/2000/svg" viewBox="454.1011599999999 214.46819000000005 117.64000000000004 94.68000000000006" width="117.64000000000004" height="94.68000000000006">
            <path 
                d="m 571.16116,234.21819 0,0 -3.58,-1.28 0.11,-3.7 -5.36,-4.49 -0.84,-3.64 -2.65,-0.26 -1.53,1.33 -4.58,-0.94 -3.35,-3.78 -2.6,1.08 -0.81,-1.57 -11.7,2.34 -2.21,-4.74 -5.23,-0.1 0,0 -1.35,3.78 -5.24,-1.61 -0.31,2.61 -4.68,2.25 1.12,2.4 -2.01,1.64 -0.47,2.94 -4.7,-0.04 -2.51,-3.48 -2.44,0.9 -0.13,2.38 -1.41,-1.68 -2.16,0.25 2.35,4.72 -1.92,2.23 -3.52,0.28 -0.86,-1.39 -4.76,1.53 -2.2,-0.73 1.06,2.51 -3.79,3.95 -2.31,-3.3 -1.7,0.5 -3.46,-1.74 -1.52,1.05 1.02,-3.44 -1.46,-1.27 -3.25,4.26 2.02,5.53 -3.07,1.69 -2.52,4.08 -1.97,1.03 -3.86,-0.55 -1.53,1.3 -1.67,-1.06 -1.49,3.96 -1.71,-0.94 0,0 -2.66,4.08 1.62,1.97 -0.93,2.23 2.64,3.33 -1.83,2.1 3.54,0.24 1.1,-1.37 0.46,1.27 -1.38,5 -3.24,0.68 -0.82,4.09 -2.47,0.11 -0.35,3.47 3.1,0.49 6.31,-2.54 1.58,3.76 -0.9,4.47 2.58,-0.87 0.09,1.06 1.37,-0.41 0.84,2.73 5.36,-0.15 2.24,1.29 -0.58,3.82 2.08,0.51 1.6,-1.09 3.49,4.39 2.98,-1.67 1.51,0.76 1.37,-1.51 0.95,2.06 3.69,0.88 -0.9,3.4 5.65,1.67 4.21,7.89 0,0 5,-0.81 7.14,-8.79 9.08,-0.48 2.62,-11.3 1.67,-1.63 8.5,-0.15 4.13,-2.02 2.6,-3.04 1.59,-4.77 -0.5,-5.64 2.26,-3.74 -0.45,-3.62 2.18,-4.04 -0.73,-4.16 3.5,-3.38 -0.03,-2.14 7.27,-1.37 9.08,-3.83 3.44,-3.72 0.67,-4.38 z" 
                fill="rgb(151, 144, 238)" 
                stroke="white" 
                stroke-width=".7px"
                title="Zlínský" 
                id="CZ-ZL" 
            />
        </svg>