<svg xmlns="http://www.w3.org/2000/svg" viewBox="77.15115700000017 0.32818999999999265 154.68000299999977 138.70000000000002" width="154.68000299999977" height="138.70000000000002">
            <path 
                d="m 203.16116,2.57819 2.48,-0.76 2.22,2.78 2.79,0.98 3.26,-2.48 3.45,1.8 0.71,-3.34 -0.18,3.53 2.96,0.77 0.31,1.89 2.69,-0.88 3.28,4.24 -3.15,8.81 1.58,0.73 6.04,-2.59 0.23,3.74 -1.42,1.13 -1.56,5.63 0,0 -1.49,2.47 -3.14,0.45 -1.48,5.73 -2.55,0.2 -4.37,-2.84 -2.87,0.7 1.25,0.77 -0.88,2.87 0.86,0.78 -2.69,2.05 -0.95,3.34 1.16,0.95 -1.32,0.46 -0.22,-0.98 -1.01,1.93 0,0 -0.79,0.29 0,0 -1.38,0.53 0.05,4.14 -2.66,2.19 -0.57,2.55 1.75,0.15 -0.2,4.03 1.82,3.98 2.35,1.7 3.16,8.3 2.74,0.42 1.12,3 0,0 -1.23,-0.55 0.35,1.39 -1.65,0.41 1.49,6.73 -4.47,-0.54 0.26,1.87 -1.42,1.25 1,1.28 -3.86,-1.92 -1.73,0.93 1.82,4.7 -1.23,6.31 -3.79,-0.97 -1.87,0.82 0,0 -0.75,0.47 0,0 -1.82,-0.75 -1.73,2.67 0,0 -0.16,-0.03 0,0 -0.52,0.98 -5.92,-2.29 -0.23,1.64 -3.44,0.41 -12.11,-2.25 -2.3,1.81 0.86,4.27 -3.57,-0.51 0.33,2.19 -3.32,2.63 -3.76,0.4 -1.13,3.79 -2.16,0.34 -2.57,-3.19 -3.81,4.4 -1.59,-0.34 -0.3,1.49 -7.17,0.11 -0.01,-1.47 -3.42,3.33 -1.5,-0.03 -0.73,2.54 -3.48,0.97 -2.08,-0.89 -3.78,3.66 0,0 -0.34,0 0,0 -1.17,-0.08 0.47,2.53 -1.17,0.84 0.92,2.11 -1.8,-0.69 -0.71,3.66 -3.37,-0.35 -1.76,1.42 0.35,1.21 0,0 -3.39,1.6 -1.49,-3.36 -1.92,2.1 -0.91,-2.25 -2.05,0.56 0,0 -2.54,-3.99 -2.56,0.3 -1.44,-1.15 0.62,-1.04 0,0 0.05,-0.11 0,0 4.14,0.64 -1.54,-2.81 1.62,0.04 0.33,-1.55 -1.08,-0.04 -1.26,-5.26 -2.53,-0.34 1.97,-2.71 -3.05,-2.21 1.34,-0.85 -0.2,-3.26 -1.68,-0.38 1.62,-3.2 -0.8,-2.99 0,0 0.22,0 0,0 0.92,-2.43 -2.48,-3.59 -2.340003,1.58 -4.48,-1.38 -1.66,1.75 -1.59,-1.67 0.03,-3.31 -1.6,0.26 -1.51,-1.47 -1.52,1.23 -2.4,-1.74 -4.14,0.62 -2.42,-2.04 0,0 -0.59,-1.07 3.49,-0.96 3.66,-4.18 1.01,-8.69 4.85,1.44 4.17,-2.67 0.59,1.67 5.150003,0.47 4.7,-12.57 2.82,-0.03 1.12,2.49 2.89,-0.7 0.23,-3.91 4.65,-2.85 -0.42,-3.22 1.68,0.5 2.24,4.28 4.65,1.85 2.66,-3.84 2.58,-1.27 -1.02,-2.03 2.67,-3.36 -1.49,-4.02 2.89,-1.3 4,0.64 5.61,-3.06 3.86,2.05 1.77,-2.35 1.24,0.95 3.33,-1.24 7.12,1.17 0.51,-2.15 3.27,-0.27 -1.02,-3.46 1.2,-3.48 3.36,0.41 1.53,-2.47 3.2,-1.71 3.64,2.24 4.26,-1.14 1.05,-2 12.24,-4.85 0.85,-3.89 3.01,-1.1 3.35,1.58 4.12,-1.24 0.06,-1.3 3.36,0.51 0.92,-5.43 -7.8,-2.66 0.57,-0.75 -1.26,-0.84 2.29,-1.09 -0.3,-1.63 -3.73,1.13 -2.21,-1.58 0.09,-2.93 1.84,-0.88 0.45,-1.83 -1.11,-1.71 3.72,-2.32 z" 
                fill="rgb(151, 144, 238)" 
                stroke="white" 
                stroke-width=".7px"
                title="Ústecký" 
                id="CZ-US" 
            />
        </svg>