<svg xmlns="http://www.w3.org/2000/svg" viewBox="21.262694000000025 79.352578 174.64999599999993 115.94000199999999" width="174.64999599999993" height="115.94000199999999">
            <path 
                d="m 27.942694,130.50258 -0.68,2.28 1.7,0.97 3.39,-1.21 1.69,2.18 5.33,2.66 -1.69,1.94 3.63,0.49 3.39,-1.7 3.15,0.97 0.97,2.42 8.23,0 0.97,-3.15 1.69,-0.72 1.21,2.66 2.43,1.7 3.14,-2.18 4.12,0.24 2.42,1.21 1.46,-3.15 -2.91,-1.94 -1.21,-2.66 2.9,-3.15 3.15,-1.45 0.49,-4.12 5.57,-4.36 6.29,3.39 2.91,-1.21 1.45,-7.26 4.85,0.48 0.72,-1.94 -3.15,-4.35 2.91,-7.03 1.01,-0.28 0,0 3.349996,0.19 0,0 10.65,5.81 3.64,0.24 2.18,-2.91 0,-4.84 5.32,-6.300002 0,-3.87 -2.18,-1.7 1.94,-2.66 4.12,-1.21 8.29,-5.63 0,0 0.91,0.3 0,0 9.2,0.73 4.6,2.66 6.06,0 10.17,2.91 2.18,3.15 0,1.84 0,0 -3.54,0 0,0 -2.42,2.9 2.18,6.780002 -8.47,0.73 -1.46,1.7 0.73,3.14 7.75,-1.69 -0.24,4.36 -3.64,1.69 0.25,3.63 5.08,-1.69 3.63,1.21 -3.14,3.39 -7.51,4.36 1.94,3.39 -1.7,2.91 -0.48,4.6 1.69,2.66 2.67,-2.66 2.9,-5.81 2.67,1.69 0.96,3.15 3.39,0.97 1.22,3.15 -0.97,6.05 3.39,1.21 3.63,-3.15 1.45,3.88 -0.72,2.42 -1.94,1.94 0,4.6 2.18,2.9 4.6,1.7 2.42,2.18 -1.45,2.66 -5.33,3.63 11.38,11.87 2.91,5.33 -2.42,3.63 -4.6,3.63 1.45,3.88 0,0 -2.26,1.43 0,0 -6.22,-7.49 -3.87,0.73 -5.81,-0.48 -0.97,-2.43 -2.42,-0.72 -5.57,5.81 -3.64,-0.48 -1.45,-1.94 1.94,-1.94 0.24,-3.87 -3.15,-0.49 -4.12,5.33 -0.96,3.15 -1.94,1.45 -6.3,1.21 -7.02,-0.97 -4.36,0.73 -1.45,1.69 -3.15,-1.69 -4.6,-0.24 -4.85,0 -3.14,1.93 -7.27,-0.72 -5.81,0.48 -3.149996,-1.21 -3.15,0 -5.81,-3.39 -2.91,0.49 -4.6,4.35 -6.74,-5.89 0,0 -0.24,-2.69 1.23,-2.12 -0.66,-6.37 -7.63,-0.11 -11.55,-1.93 -18.33,-9.64 -2.78,-7.35 -8.32,-1.55 -5.73,-4.91 -0.56,-2.19 2.97,-3.48 1.92,-0.07 1.25,-3.5 -4.43,-5.21 0.65,-6.51 1.35,-1.88 z" 
                fill="rgb(151, 144, 238)" 
                stroke="white" 
                stroke-width=".7px"
                title=" Južnobački okrug" 
                id="RS-06" 
            />
        </svg>