<svg xmlns="http://www.w3.org/2000/svg" viewBox="385.37268999999975 272.05257999999986 126.75999999999993 147.0300000000001" width="126.75999999999993" height="147.0300000000001">
            <path 
                d="m 390.68269,385.92258 2.4,-3.42 5.52,0.82 2.21,-3.03 6.08,0.27 2.21,-1.93 1.1,-3.59 -1.38,-4.42 3.04,-5.8 -2.76,-3.31 0.27,-3.31 -1.1,-3.87 -2.21,1.1 -1.66,3.32 -3.04,-1.93 -0.83,-11.88 -4.14,-3.04 -7.73,-1.38 1.93,-1.93 -1.38,-3.86 -1.93,-2.21 4.7,-5.25 0.55,-3.04 4.69,0 1.38,-3.86 4.14,-0.28 2.21,-2.48 -0.27,-5.25 1.38,-3.04 -0.28,-7.18 3.32,-0.27 0.27,-1.94 2.21,-1.93 0.83,-4.69 2.01,-1.13 0,0 2.23,2.37 1.38,8.97 4.19,2.83 1.42,5.57 7.43,4.54 5.44,-0.65 7.69,-16.66 3.02,-4.31 1.87,-6.16 3.11,-2.5 1.15,-3.93 4.09,-3.05 6.58,-0.66 3.38,-4.32 6.77,-2.17 14.07,15.18 6.04,3.39 6.57,-0.49 1.46,1.84 3,0.91 5.7,6.73 1.12,4.73 -8.34,4.33 -8.99,-5.98 -5.51,-0.09 -2.64,2.81 -0.9,7.56 -1.24,2.03 -3.83,1.79 -6.39,-1.29 -1.58,1.45 0.92,4.62 4.57,4.5 0.37,5.99 2.62,7.56 4.64,6.75 3.4,1.48 9.76,1.81 3.23,3.57 0.04,3.27 -1.69,3.93 -0.27,3.66 -0.66,-1.4 -1.53,1.76 -1.19,-0.7 0.18,1.73 -1.27,1.6 0.49,0.8 -1.61,0.3 1.01,1.55 -1.18,0.72 -0.77,-0.52 -0.86,1.59 1.92,1.38 -0.01,2.08 -1.11,-0.38 -1.2,7.43 1.26,1.84 -0.63,3.38 1.09,0.97 -0.35,1.66 -4.78,0.2 -0.57,1.51 -2.35,-0.56 -3.46,0.93 -0.13,0.89 0,0 -1.98,0 -0.55,-1.66 -4.42,2.76 -2.76,-1.38 -0.27,-6.9 3.03,-0.83 1.93,-2.48 -3.86,-4.14 -3.04,0 -3.86,-6.08 -8.29,1.11 -6.35,-1.39 -4.14,-1.65 -2.76,-3.87 -1.66,6.08 -3.31,2.21 3.03,3.86 0,3.32 1.94,2.76 -0.28,5.52 1.66,3.59 -6.9,7.45 -2.49,5.25 -0.83,6.9 -3.31,1.11 -1.38,2.48 -4.14,2.21 0,-2.76 -3.32,-0.83 -4.69,-10.77 -3.04,0.56 -1.93,2.76 -4.42,-1.11 -4.97,-3.03 -3.59,-6.63 -5.25,0 -1.93,1.65 -3.59,-1.37 -2.48,1.93 -3.02,-1.21 0,0 0.66,-1.99 0,0 2.15,-8.22 2.5,-2.14 0,0 z" 
                fill="rgb(151, 144, 238)" 
                stroke="white" 
                stroke-width=".7px"
                title="Borski okrug" 
                id="RS-14" 
            />
        </svg>