<svg xmlns="http://www.w3.org/2000/svg" viewBox="288.37269000000003 252.21258000000003 126.05000000000001 133.71000000000006" width="126.05000000000001" height="133.71000000000006">
            <path 
                d="m 299.57269,345.19258 0.42,-4.29 6.78,-2.18 -0.97,-4.36 -5.32,-1.93 -0.49,-4.12 5.33,-6.05 0.48,-5.09 -5.08,-10.9 1.21,-10.17 -8.96,-3.39 -1.21,-2.9 0.48,-3.64 -3.15,-2.9 -0.72,-3.64 0.54,-8.1 0,0 0,0 0,0 4.1,-0.15 4.81,-2.35 5.27,-1.23 3.11,-3.95 5.64,-4.06 17.9,-7.58 0,0 3.34,2.72 2.39,5.77 9.17,0.11 4.78,1.15 3.45,-0.48 6.51,2.39 2.14,2.93 1.61,5.22 0.26,6.6 2.11,2.94 7.95,-0.53 3.88,2.02 9.06,-1.67 1.82,1.65 7.91,0.56 3.12,1.08 3.93,-0.38 4.42,2.23 4.79,0.42 2.04,5.24 0,0 -2.01,1.13 -0.83,4.69 -2.21,1.93 -0.27,1.94 -3.32,0.27 0.28,7.18 -1.38,3.04 0.27,5.25 -2.21,2.48 -4.14,0.28 -1.38,3.86 -4.69,0 -0.55,3.04 -4.7,5.25 1.93,2.21 1.38,3.86 -1.93,1.93 7.73,1.38 4.14,3.04 0.83,11.88 3.04,1.93 1.66,-3.32 2.21,-1.1 1.1,3.87 -0.27,3.31 2.76,3.31 -3.04,5.8 1.38,4.42 -1.1,3.59 -2.21,1.93 -6.08,-0.27 -2.21,3.03 -5.52,-0.82 -2.4,3.42 0,0 -2.15,-3.93 0,0 -4.64,0 -4.64,-2.86 -7.51,0 -4.28,-3.93 -11.79,-0.71 -0.72,-5 -6.07,-5.36 -5,0.35 -2.5,-2.5 -4.65,0 -3.21,2.5 -3.94,-2.5 1.08,-2.14 2.14,-1.43 -3.57,-2.14 -3.58,-7.86 -3.21,-1.79 -3.57,6.43 -4.65,-0.71 -1.43,-4.65 -4.64,-3.21 z" 
                fill="rgb(151, 144, 238)" 
                stroke="white" 
                stroke-width=".7px"
                title="BraniÄevski okrug" 
                id="RS-11" 
            />
        </svg>