<svg xmlns="http://www.w3.org/2000/svg" viewBox="207.33269 159.38258000000005 148.50000000000017 123.22000000000006" width="148.50000000000017" height="123.22000000000006">
            <path 
                d="m 257.88269,282.52258 -3.94,-0.58 -5.01,-3.2 -6.83,-9.85 -5.36,-3.68 -1.63,-5.88 2.74,-7.92 -4.11,-16.34 -2,-1.06 -6.67,0.2 -3.37,-7.47 0.26,-2.08 -6.57,-3 -2.4,-5.75 -5.37,-5.08 -0.29,-6.71 0,0 0.78,-0.04 0,0 0.97,-3.15 2.67,-1.94 -0.49,-7.75 2.42,-4.6 2.91,-3.15 2.18,-1.21 6.3,0.97 1.69,-5.08 1.94,-0.97 1.69,1.93 8.48,1.46 9.44,9.68 5.57,-8.23 6.54,-4.12 3.39,-0.97 0.97,-2.17 -5.33,-3.4 7.99,-3.14 5.57,-4.6 10.66,-1.7 1.83,-1.95 0,0 0.29,0.71 5.85,-1.32 -0.19,2.77 2.55,-0.16 2.03,3.89 6.2,-1.69 2.04,-3.54 0.66,0.97 1.11,-0.9 1.13,0.72 -0.37,2.3 1.31,3.8 2.21,2.2 -0.67,1.8 1.98,2.85 1.13,-0.31 6.19,4.14 2.19,-2.31 4.38,0.52 4.35,3.15 1.28,-0.6 3.22,1.39 1.68,-1.87 3.71,4.49 5.98,2.3 1.68,3.74 2.88,0.47 1.4,3.4 -0.15,2.18 -6.33,3.06 -0.95,2.85 1.57,2.64 -3.37,3.68 -0.87,2.83 0.66,2.86 -4.35,1.37 -2.13,-0.71 -1.39,1.62 -2.15,-0.18 -2.37,1.37 3.43,2.93 -0.53,0.51 4.14,2.76 -0.96,1.42 4.04,3.33 4.13,0.36 9.78,4.99 0.98,1.4 0.95,6.3 -6.47,1.57 -2.09,1.64 -3.1,-0.15 -0.44,0.82 -1.99,-1.58 -1.59,1.07 -1.67,-0.58 -2.62,0.99 -4.72,-0.19 -1.48,2.99 0.61,1.75 -1.31,0 1.05,0.82 -0.73,0.66 1.17,0.49 -0.92,0.42 0.21,1.02 0,0 -17.9,7.58 -5.64,4.06 -3.11,3.95 -5.27,1.23 -4.81,2.35 -4.1,0.15 0,0 -2.01,-0.29 0,0 -4.21,0.61 -9.14,8.2 -7.01,1.91 -6.75,0.64 0,0 z" 
                fill="rgb(151, 144, 238)" 
                stroke="white" 
                stroke-width=".7px"
                title="Južnobanatski okrug" 
                id="RS-04" 
            />
        </svg>