<svg xmlns="http://www.w3.org/2000/svg" viewBox="253.86269 555.8825800000003 94.86000000000001 181.1899999999997" width="94.86000000000001" height="181.1899999999997">
            <path 
                d="m 253.86269,648.63258 1.05,-2.36 0.72,-7.15 6.07,-2.14 0.72,-3.93 5,-1.79 2.86,3.22 2.86,-3.93 3.57,-1.08 2.86,2.5 0.71,3.22 4.64,-1.07 7.15,-5.36 2.86,-6.79 -1.79,-4.64 2.5,-2.86 5.01,-1.43 -1.43,-5 -5,-2.5 -1.08,-14.29 1.43,-4.65 0.36,-6.43 -6.79,-6.07 -2.5,-5.01 0,-6.43 -3.12,-4.37 0,0 0.31,-0.11 0,0 2.09,-1.38 4.62,2.09 6.6,-3.01 3.06,3.12 1.9,5.55 2.31,-2.08 1.93,-0.13 1.56,5.88 0.26,16.31 3.36,-4.72 2.67,-0.67 1.79,1.34 1.89,5.64 -2.84,8.61 0.52,1.43 5.81,-0.55 6.13,1.54 3.4,3.37 2.28,4.51 3.92,-0.97 0,0 0.95,1.34 0,0 -0.89,6.27 -3.11,5.55 0.48,4.7 9.44,0.7 5.68,2.98 0,0 0.08,0.03 0,0 -2.7,7.06 -5.36,-1.79 -3.57,1.07 6.43,6.08 0.36,6.07 -4.65,0 -6.07,1.79 -0.72,3.21 -3.21,4.29 -3.58,1.43 -5.35,6.43 5.35,4.65 -1.78,4.28 -2.86,1.08 -0.36,5 3.22,3.21 1.07,2.86 -2.5,1.43 1.79,6.79 -5.72,2.5 -1.43,1.79 2.86,0.71 0,3.57 -1.43,4.65 2.86,2.14 0,2.5 1.43,1.43 10,1.79 1.21,1.82 0,0 -5.38,5.16 -2.9,5.21 -3.16,9.9 -2.35,2.77 -2.58,0.56 -5.41,-0.84 -2.54,-6.2 -3.46,-3.5 -1.38,-5.72 -2.36,-2.04 -4.06,-0.28 -4.95,3.49 -1.97,2.93 -8.54,5.39 0,0 -0.9,-5.43 -5.72,-3.58 -5,0.36 -3.22,-2.14 0.36,-2.86 7.15,-6.43 3.93,-1.43 2.85,-3.57 0.36,-5.36 -2.5,-8.94 -4.64,-2.14 3.93,-3.57 1.07,-3.93 -3.57,-4.65 -2.86,-1.42 -1.07,-4.65 -10.72,-5.72 0,0 -3.22,0 0,0 -0.71,-4.64 1.43,-2.14 -2.15,-3.93 1.43,-2.86 -3.21,-1.79 0,0 z" 
                fill="rgb(151, 144, 238)" 
                stroke="white" 
                stroke-width=".7px"
                title="Kosovski okrug" 
                id="RS-25" 
            />
        </svg>