<svg xmlns="http://www.w3.org/2000/svg" viewBox="218.69269000000008 531.5825799999999 81.95999999999992 117.04999999999984" width="81.95999999999992" height="117.04999999999984">
            <path 
                d="m 282.52269,558.29258 3.12,4.37 0,6.43 2.5,5.01 6.79,6.07 -0.36,6.43 -1.43,4.65 1.08,14.29 5,2.5 1.43,5 -5.01,1.43 -2.5,2.86 1.79,4.64 -2.86,6.79 -7.15,5.36 -4.64,1.07 -0.71,-3.22 -2.86,-2.5 -3.57,1.08 -2.86,3.93 -2.86,-3.22 -5,1.79 -0.72,3.93 -6.07,2.14 -0.72,7.15 -1.05,2.36 0,0 -1.45,-0.58 0,0 -2.14,-2.86 -1.79,-0.71 -2.5,-8.57 -1.43,-0.36 -2.14,2.5 -2.86,-0.36 -1.07,-4.64 -2.14,-1.43 -0.72,-3.22 3.22,-0.71 0,-6.43 -2.15,-1.43 2.86,-2.5 0.36,-7.86 -5,-8.93 -5.36,-2.15 -3.57,3.22 -2.39,-0.53 0,0 0.24,-0.53 0,0 0.09,-1.08 -4.99,-7.48 -0.24,-2.06 1.48,-3.11 9.78,-6.85 5,-1.8 3.74,1.87 -0.05,-2.35 7.51,-1.09 0.49,-1.38 -0.14,-3.82 -2.05,-6.63 0.06,-4.39 -2.35,0.42 -0.98,-1.18 -0.6,-2.55 0.86,-4.73 -5.55,-5.67 -0.61,-2.73 8.3,-2.55 7.64,-4.77 3.17,-0.92 3.93,-3.48 2.66,-0.64 0,0 0.65,0 0,0 2.55,0.09 3.43,2.16 6.88,11.78 -0.28,2.16 -4.59,-1.58 -2.23,0.27 -1.34,1.2 0.9,4.17 3.24,3.24 3.46,0.78 3.49,2.1 0,0 0.83,0.36 0,0 2.02,0.85 2.09,-0.71 0,0 z" 
                fill="rgb(151, 144, 238)" 
                stroke="white" 
                stroke-width=".7px"
                title="Kosovsko-MitrovaÄki okrug" 
                id="RS-28" 
            />
        </svg>