<svg xmlns="http://www.w3.org/2000/svg" viewBox="345.66268999999994 431.67257999999987 112.5899999999998 135.36000000000007" width="112.5899999999998" height="135.36000000000007">
            <path 
                d="m 456.87269,511.36258 0,3.13 0,0 -1.66,4.69 -7.46,1.93 -1.65,0 -2.49,-2.21 -3.86,-1.65 -2.77,0 -3.86,-2.21 -0.83,1.1 -0.83,3.04 1.38,3.87 -0.27,1.65 3.31,2.76 0,3.32 -4.69,3.03 -2.49,6.63 0.83,2.49 6.63,3.03 6.35,5.25 7.18,0.83 1.38,2.76 -1.11,5.25 -2.76,0.27 -3.31,1.77 0,0 0,-0.3 0,0 -1.94,1.1 -1.93,3.87 -2.21,0.27 -1.1,-2.21 -4.97,0.56 -0.28,-3.87 -3.04,-1.1 -9.11,-9.39 -4.42,-1.38 -4.41,-0.28 -7.46,4.97 -0.28,-3.86 -2.21,-1.94 -4.96,2.21 -6.16,0.99 0,0 -0.52,-1.39 0,0 -2.86,-8.58 -1.07,-7.14 -3.57,-2.5 -5,-0.36 -1.79,7.5 -1.78,-2.14 -5.36,-1.79 -1.79,-3.21 1.79,-2.15 0,-3.21 -4.29,-0.72 -3.22,-2.5 -1.07,-3.21 2.5,-3.22 0.72,-3.93 -6.79,1.07 -6.43,-0.35 0,0 -1.43,-3.15 0,0 3.21,-2.93 2.15,-3.57 3.57,-0.36 2.86,-3.57 -2.86,-3.22 -1.43,-5.35 3.22,-4.65 0.35,-5.36 -3.57,-2.14 -1.43,-11.08 -3.93,-1.43 -3.93,-7.5 1.43,-4.29 3.57,-2.5 1.08,-2.86 -2.86,-1.78 0,-3.57 0,0 -1.04,-2.85 0,0 7.83,-7.59 12.14,-0.71 0,0 2.13,-1.77 0,0 1.05,3.01 4.14,5.53 -2.21,3.86 2.21,2.49 0.55,2.48 -1.65,3.59 0.27,4.14 4.42,7.18 2.76,2.49 0.83,3.59 2.76,1.93 7.18,2.21 2.76,-1.93 4.42,8.01 1.93,1.38 0.83,3.31 2.49,0 0.83,-1.93 2.2,0 1.39,2.21 3.03,-0.28 0,-3.04 -4.42,-4.42 -0.82,-3.03 2.76,-0.83 3.59,1.66 4.97,5.24 -0.28,1.93 1.93,3.32 -0.55,1.93 5.52,0.55 2.21,2.21 3.04,0.28 1.38,3.59 7.18,-0.55 2.49,-1.94 6.62,6.35 3.59,-1.1 1.38,-2.49 2.77,1.94 2.76,6.07 -1.11,2.49 z" 
                fill="rgb(151, 144, 238)" 
                stroke="white" 
                stroke-width=".7px"
                title="Nišavski okrug" 
                id="RS-20" 
            />
        </svg>