<svg xmlns="http://www.w3.org/2000/svg" viewBox="160.10269000000005 598.39258 99.81999999999988 116.40000000000009" width="99.81999999999988" height="116.40000000000009">
            <path 
                d="m 259.20269,664.84258 -2.14,0 0,0 -3.57,2.15 -5.36,0.35 -3.93,-6.43 -2.15,-0.71 -4.28,3.57 -9.65,-0.71 -6.43,5.71 1.43,12.15 -0.72,9.65 4.29,3.93 7.5,3.21 -3.93,1.08 -4.28,5 -4.65,3.57 -2.39,7.43 0,0 -0.49,-1.95 -4.98,-5.31 -7.03,-2.44 -1.29,-2.24 -5.29,-1.9 0.13,-1.23 -2.19,-2.02 -1.53,0.05 -2.46,2.11 -2.12,-1.52 -4.26,0.93 -1.75,-1.05 0.22,-1.85 -1.3,-2.24 0.99,-0.8 0.16,-2.89 -0.7,-1.84 -4.04,-3.63 2.35,-2.93 -0.91,-3.09 -3.53,-3.09 0.64,-1.87 -1.92,-2.03 -2.14,-5.59 -8.43,-4.58 -1.7,-3.17 -1.82,-0.77 1.97,-5.7 -0.66,-5.66 7.25,-7.97 -4.42,-5.57 -5.6,-3.29 -1.99,-5.49 2.45,-5.4 12.82,3.83 10.95,0.83 1.37,-0.63 4.44,-5.86 -1.05,-3.26 0.78,-1.39 5.11,-3.82 3.5,0.52 0,0 19.01,-2.99 2.08,-1.22 1.52,-2.54 0,0 0.51,-1.16 0,0 2.39,0.53 3.57,-3.22 5.36,2.15 5,8.93 -0.36,7.86 -2.86,2.5 2.15,1.43 0,6.43 -3.22,0.71 0.72,3.22 2.14,1.43 1.07,4.64 2.86,0.36 2.14,-2.5 1.43,0.36 2.5,8.57 1.79,0.71 2.14,2.86 0,0 3.58,1.43 0,0 3.21,1.79 -1.43,2.86 2.15,3.93 -1.43,2.14 z" 
                fill="rgb(151, 144, 238)" 
                stroke="white" 
                stroke-width=".7px"
                title="Pećki okrug" 
                id="RS-26" 
            />
        </svg>