<svg xmlns="http://www.w3.org/2000/svg" viewBox="428.70269 508.5525800000001 115.09999999999985 94.94000000000011" width="115.09999999999985" height="94.94000000000011">
            <path 
                d="m 443.89269,562.09258 3.31,-1.77 2.76,-0.27 1.11,-5.25 -1.38,-2.76 -7.18,-0.83 -6.35,-5.25 -6.63,-3.03 -0.83,-2.49 2.49,-6.63 4.69,-3.03 0,-3.32 -3.31,-2.76 0.27,-1.65 -1.38,-3.87 0.83,-3.04 0.83,-1.1 3.86,2.21 2.77,0 3.86,1.65 2.49,2.21 1.65,0 7.46,-1.93 1.66,-4.69 0,0 0,-3.87 0,0 3.03,0 4.7,2.48 2.76,0.28 3.59,3.04 4.42,-1.66 0.82,-1.66 2.77,-1.1 0.27,3.59 3.04,3.31 5.8,0.83 7.45,-8.56 2.76,-2.21 2.07,-0.41 0,0 1.3,1.12 5.55,-0.24 5.65,3.27 0.48,2.38 3.25,3.66 4.03,2.33 2.35,5.84 -0.24,2.49 3.26,2.89 0.17,1.7 3.54,5.52 5.59,4.11 2.71,-0.71 5.81,2.77 -2.61,4.48 1.4,1.47 -0.27,3.93 -1.86,4.78 -7.96,5.13 -2.9,7.93 -4.24,2.22 -2.08,3.33 -8.27,3.79 -0.12,4.1 -1.7,1.96 1.21,2.98 -4.44,7.84 -4.06,-0.07 -1.05,1.28 -1.12,-0.79 -2.31,2.96 -0.63,-1.6 -2.2,-1.13 -2.23,0.81 -2.84,-3.14 -4.46,0.69 -1.32,2.57 0.04,2.29 -4.86,-2.9 -2.23,1.31 0,0 -10.85,-2.28 -7.45,-8.56 3.31,-3.87 -11.04,-6.35 -4.97,-1.93 -3.32,0 -0.83,-1.94 -3.59,-1.1 -1.93,-3.04 2.21,-2.48 3.87,-0.28 0.27,-1.93 1.94,-1.11 -1.39,-2.48 -3.03,-0.28 0,0 z" 
                fill="rgb(151, 144, 238)" 
                stroke="white" 
                stroke-width=".7px"
                title="Pirotski okrug" 
                id="RS-22" 
            />
        </svg>