<svg xmlns="http://www.w3.org/2000/svg" viewBox="273.90269 344.48258000000004 116.77999999999986 105.82" width="116.77999999999986" height="105.82">
            <path 
                d="m 347.84269,441.74258 -0.39,-1.08 0,0 -4.29,4.64 -2.86,1.43 -3.21,0 -0.36,-2.5 -3.21,-0.36 -2.15,-1.79 4.29,-2.14 -2.86,-1.07 -0.71,-2.5 -3.58,-0.36 -1.43,2.86 -6.78,0.36 -1.08,-7.51 2.51,-1.43 -1.08,-4.64 -3.21,2.86 -0.72,10.36 -2.86,1.07 -3.57,3.57 -3.57,0 -2.86,-1.07 -0.36,2.86 1.79,3.57 -3.93,1.43 -3.93,-1.43 -3.93,0 -7.5,-2.86 -2.86,1.79 0,0 -3.6,-3.3 0,0 -4.97,-7.85 0,0 -0.67,-3.99 0,0 1.74,-0.29 15,-9.29 -3.93,-1.07 -1.07,-4.65 2.86,-2.86 3.21,-1.07 0.36,-2.5 1.79,-2.14 -1.07,-3.93 -3.58,-2.5 4.65,-2.86 5,-1.08 -0.36,-5 -2.5,-3.93 1.79,-3.93 6.43,-4.28 1.79,-4.29 -4.29,-2.5 -2.5,-5.36 0,0 1.78,-5 0,0 1.43,-4.65 2.5,-3.21 -6.43,-8.93 1.07,-2.15 0,0 8.58,-0.71 4.64,3.21 1.43,4.65 4.65,0.71 3.57,-6.43 3.21,1.79 3.58,7.86 3.57,2.14 -2.14,1.43 -1.08,2.14 3.94,2.5 3.21,-2.5 4.65,0 2.5,2.5 5,-0.35 6.07,5.36 0.72,5 11.79,0.71 4.28,3.93 7.51,0 4.64,2.86 4.64,0 0,0 2.15,3.93 0,0 -2.5,2.14 -2.15,8.22 0,0 -2.14,6.43 0,0 -3.93,6.79 -2.14,6.79 -5,0.36 -0.36,1.78 2.14,8.22 -4.64,5 0,0 -2.15,1.79 0,0 -12.14,0.71 z" 
                fill="rgb(151, 144, 238)" 
                stroke="white" 
                stroke-width=".7px"
                title="Pomoravski okrug" 
                id="RS-13" 
            />
        </svg>