<svg xmlns="http://www.w3.org/2000/svg" viewBox="218.9426900000001 660.2025799999999 64.02999999999989 132.04999999999995" width="64.02999999999989" height="132.04999999999995">
            <path 
                d="m 282.97269,730.30258 -6.52,2.07 -5.33,5.74 -4.59,0.04 -2.83,1.67 -5.91,1.53 -5.34,8.81 0.41,8.13 1.71,4 -0.44,3.59 1.94,3.63 -5.98,6.53 -8.56,5.24 -5.77,9.91 -1.54,1.06 -1.99,-0.76 -3.28,0.64 -2.23,-6.97 -0.03,-7.39 1.65,-1.31 2.7,-0.33 -2.28,-6.69 5.57,-4.25 0.61,-6.13 -1.65,-2.26 -2.24,-9.36 -3.1,-3.01 -2.03,-3.93 1.4,-2.68 -0.61,-1.81 0.8,-2.53 -1.26,-4.2 -1.89,-2.37 -2.48,-9.1 -2.94,-3.02 0,0 2.39,-7.43 4.65,-3.57 4.28,-5 3.93,-1.08 -7.5,-3.21 -4.29,-3.93 0.72,-9.65 -1.43,-12.15 6.43,-5.71 9.65,0.71 4.28,-3.57 2.15,0.71 3.93,6.43 5.36,-0.35 3.57,-2.15 0,0 5.36,0 0,0 10.72,5.72 1.07,4.65 2.86,1.42 3.57,4.65 -1.07,3.93 -3.93,3.57 4.64,2.14 2.5,8.94 -0.36,5.36 -2.85,3.57 -3.93,1.43 -4.65,3.93 -2.5,2.5 -0.36,2.86 3.22,2.14 5,-0.36 5.72,3.58 z" 
                fill="rgb(151, 144, 238)" 
                stroke="white" 
                stroke-width=".7px"
                title="Prizrenski okrug" 
                id="RS-27" 
            />
        </svg>