<svg xmlns="http://www.w3.org/2000/svg" viewBox="357.79269000000005 609.2825799999999 127.90999999999991 102.76999999999987" width="127.90999999999991" height="102.76999999999987">
            <path 
                d="m 471.36269,610.35258 -0.82,0.55 0.27,2.97 1.86,2.4 0.53,2.52 5.11,6.49 -0.39,3.17 -1.17,0.19 -2.32,4.99 -1.45,0.83 2.19,2.46 -2.83,4.81 1.4,1.37 -3.39,8.98 -0.24,3.63 4.11,1.05 3.58,4.42 3.09,1.61 3.19,3.26 1.62,4.03 -1.95,3.89 -1.15,6.99 -1.57,1.59 -0.35,2.66 -5.33,0.89 0.23,2.42 -2.69,3.28 0.37,2.78 -1.22,2.03 -2.51,1.75 -1.06,-1.36 -2.55,-0.02 -0.81,1 -4.26,0.64 -0.62,1.52 -2,0.84 -10.46,-8.51 -3.07,3.04 -4.91,1.92 0.13,2.35 1.38,2.13 -0.46,1.25 -1.4,-1.31 -3.11,0.11 -2.46,-1.75 -5.51,3.27 -9.39,-2.55 -1.92,0.78 -3.72,-2.84 -8.26,-3.78 -1.08,1.31 -1.04,5.19 -2.85,0.75 -5.14,-2.06 -5.29,0.82 -7.75,8.04 -12.63,2.91 -7.71,-2.34 0,0 0.13,-7.65 -2.52,-1.22 -1.4,-3.04 0.23,-3.32 2.02,-3.74 3.87,-2.8 1.38,-6.6 -1.05,-2.36 0.94,-2.75 3.71,-3.41 6.67,-3.38 2.52,-2.98 2.59,-11.51 3.41,-5.91 5.15,-2.95 -1.84,-3.04 -0.56,-5.94 -2.9,-2.56 0,0 -0.89,-0.53 0,0 0.1,-1.82 3.59,-1.11 1.1,-7.17 2.49,-3.04 0,-2.21 1.93,-3.04 4.14,0 2.21,-1.66 3.04,-0.27 3.04,2.21 6.07,-0.83 2.49,-5.52 2.48,0 3.32,2.76 3.86,-3.04 5.8,0.55 -0.28,3.87 1.11,2.48 7.45,-3.59 2.77,4.42 0.82,-1.38 1.66,0 0,5.8 5.25,1.66 3.86,0 1.9,-1.19 0.86,-2.59 4.32,-0.87 3.02,-2.15 1.72,-3.89 2.16,0 2.59,-2.15 z" 
                fill="rgb(151, 144, 238)" 
                stroke="white" 
                stroke-width=".7px"
                title="PÄinjski okrug" 
                id="RS-24" 
            />
        </svg>