<svg xmlns="http://www.w3.org/2000/svg" viewBox="164.12268999999998 424.51257999999984 115.42000000000002 184.48000000000025" width="115.42000000000002" height="184.48000000000025">
            <path 
                d="m 279.54269,444.50258 -0.69,-0.63 0,0 -4.28,6.79 -0.36,5.36 -2.5,3.57 -0.36,2.86 6.79,5 -0.72,3.22 -3.93,0 0,2.85 1.79,3.22 0.36,4.64 1.78,4.29 -3.93,2.5 -4.28,-1.07 -2.86,-2.14 -2.86,-0.36 -2.86,2.14 -3.93,-1.78 -1.79,2.85 4.65,3.94 -2.86,10 0.36,5.36 5.72,0.71 4.28,4.29 -0.71,6.43 -5.36,5 2.86,2.5 -2.67,5.54 0,0 -0.2,0 0,0 -2.66,0.64 -3.93,3.48 -3.17,0.92 -7.64,4.77 -8.3,2.55 0.61,2.73 5.55,5.67 -0.86,4.73 0.6,2.55 0.98,1.18 2.35,-0.42 -0.06,4.39 2.05,6.63 0.14,3.82 -0.49,1.38 -7.51,1.09 0.05,2.35 -3.74,-1.87 -5,1.8 -9.78,6.85 -1.48,3.11 0.24,2.06 4.99,7.48 -0.09,1.08 0,0 -0.75,1.69 0,0 -1.52,2.54 -2.08,1.22 -19.01,2.99 0,0 2.16,-2.85 0.19,-8.85 -1.22,-2.51 -6.02,-3.21 -0.48,-2.43 -5.91,-1.12 -3.15,-2.49 -9.87,-4.45 -4.32,1.58 -4.64,-4.46 -3.09,-1.59 0,0 0.4,-3.12 3.58,-5 1.78,-4.65 2.5,-3.57 5.01,-0.36 1.78,-6.43 15.01,-3.57 -1.07,-4.65 -2.86,-0.35 -1.43,-2.86 -3.93,-3.22 2.14,-2.85 3.93,-0.72 -1.78,-5.36 1.78,-4.29 0,0 3.58,0 0,0 3.93,3.22 3.57,1.43 0.71,-4.29 4.29,-5.71 4.64,-1.79 0.36,-9.29 -2.86,-2.5 2.86,-10.72 -4.29,-3.21 -2.14,-4.65 -5.36,-1.07 -3.21,-3.93 7.14,-6.43 2.86,-7.5 -3.57,-3.58 1.43,-3.57 3.21,-1.79 4.29,1.79 2.5,-2.5 -0.71,-5 -2.86,-4.29 -0.72,-3.22 5.72,-0.35 2.5,-2.15 2.86,-4.64 6.79,-3.22 -0.36,-6.07 3.57,-4.29 5.72,-1.78 0,0 3.21,1.43 0,0 7.86,12.14 6.08,-0.35 3.93,-2.86 -2.5,-1.79 0.71,-3.21 3.57,-1.43 3.58,-1.08 6.07,0.72 3.57,2.14 0,0 1.08,6.43 0,0 z" 
                fill="rgb(151, 144, 238)" 
                stroke="white" 
                stroke-width=".7px"
                title="Raški okrug" 
                id="RS-18" 
            />
        </svg>