<svg xmlns="http://www.w3.org/2000/svg" viewBox="61.15269400000003 0.3225782000000179 79.19999600000003 108.15000179999997" width="79.19999600000003" height="108.15000179999997">
            <path 
                d="m 136.78269,79.352578 -8.29,5.63 -4.12,1.21 -1.94,2.66 2.18,1.7 0,3.87 -5.32,6.300002 0,4.84 -2.18,2.91 -3.64,-0.24 -10.65,-5.81 0,0 -4.359996,-0.25 0,0 5.809996,-4.110002 -1.69,-3.39 -6.539996,-4.36 2.18,-1.94 0.24,-2.42 -7.99,-4.12 -2.91,4.36 -6.78,-6.54 -2.42,-5.57 -7.75,-7.99 -1.94,-5.33 0.73,-3.87 -2.42,-4.85 2.42,-2.9 2.18,-0.73 0.97,-2.66 -4.6,1.45 0.24,-4.36 -5,-5.16 0,0 0.5,-0.55 -2.54,-4.19 10.55,-6.72 2.14,2.87 4.45,-1.92 6.51,-6.48 -0.05,-2.67 7.73,-4.47 -2.17,-2.59 -0.44,-2.0499998 1.49,-1.29 1.49,0.45 3.49,-2.65 1.44,-2.86 8.709996,1.48 3.8,-3.72 2.53,1.74 1.81,-1.24 2.77,3.29 1.86,-0.04 3.65,4.46 7.44,3.3799998 4.64,-4.0099998 3.87,-0.87 0,0 1.49,5.0599998 -1.21,2.66 -2.18,1.94 -1.45,10.17 -6.05,12.83 -1.21,9.69 2.18,3.88 0,2.66 -2.91,0.73 -0.48,3.14 2.42,4.6 -0.24,5.09 1.45,1.94 0.72,3.39 2.67,1.69 0.72,2.18 0,0 z" 
                fill="rgb(151, 144, 238)" 
                stroke="white" 
                stroke-width=".7px"
                title="SevernobaÄki okrug" 
                id="RS-01" 
            />
        </svg>