<svg xmlns="http://www.w3.org/2000/svg" viewBox="25.952694000000093 181.99257999999983 174.9599959999999 105.42000000000004" width="174.9599959999999" height="105.42000000000004">
            <path 
                d="m 188.08269,195.29258 -0.41,0.26 0,0 3.64,3.15 2.9,5.57 3.51,1.85 0,0 -1.23,1.59 0,0 2.74,0.73 1.24,2.51 0.44,3.64 -0.83,2.71 -1.8,2.26 -4.67,1.39 -1.5,1.61 -0.68,2.94 1.09,3.74 -11.69,5.63 -4.98,4.12 -2,4.05 0.06,3.17 3.22,3.89 -0.22,2.22 -2.24,1.57 -6.58,1.73 -0.32,2.42 1.66,3.59 -1.47,3.2 -4.51,3.24 -0.13,1.46 5.82,4.5 -12.29,5.86 -2.83,2.53 -1.67,3.01 -2.72,1.98 0,0 -4.84,-1.2 -0.62,-2.74 2.03,-1.36 4.58,-0.88 3.33,-2.59 -0.14,-2.39 -7.5,1.15 -3.26,-0.76 -6.01,-3.02 -9.32,-7.59 -9.16,-0.62 -2.67,-2.74 -1.28,-3.97 0.23,-5.21 8.05,-16.25 -1.28,-1.44 -3.28,0.69 -2.63,-3.05 -4.74,-0.2 -7.08,4.42 -9.629996,0.57 -3.42,-0.62 -2.36,-3.4 -3.84,4.16 -5.71,-3.17 -1.44,1.82 -1.14,-2.43 -2.37,1.57 -7.12,-1.71 -0.69,1.75 4.25,2.46 0.13,0.97 -1.07,0.68 -5.46,-3.54 -3.43,0.84 -2.87,-1.74 -5.78,2.99 -1.6,-3.74 -2.75,-0.85 -3.4,2.86 -3.32,1.39 -1.41,2.13 -3.91,1.35 -1.97,2.85 -6.11,1.42 -1.67,-8.61 8.79,-1.17 3.18,-3.87 4.94,-2.06 1.57,-2.06 -0.85,-0.88 0.29,-3.11 -0.99,-0.85 -3.77,1.86 -7.74,-1.22 5.36,-3.35 1.24,-2.32 -0.92,-5.25 2.28,-2.38 0.08,-2.96 -2.36,-2.65 1.16,-2.22 -2.03,-3.06 0.11,-3.42 5.17,0.66 1.8,-0.88 5.27,-7.72 0.45,-2.33 -1.85,-2.12 0.21,-0.92 1.27,-0.09 10.07,5.5 2.96,0 0.96,-4.95 3.06,-0.29 4.9,5.75 5.27,-0.61 0,0 6.74,5.89 4.6,-4.35 2.91,-0.49 5.81,3.39 3.15,0 3.149996,1.21 5.81,-0.48 7.27,0.72 3.14,-1.93 4.85,0 4.6,0.24 3.15,1.69 1.45,-1.69 4.36,-0.73 7.02,0.97 6.3,-1.21 1.94,-1.45 0.96,-3.15 4.12,-5.33 3.15,0.49 -0.24,3.87 -1.94,1.94 1.45,1.94 3.64,0.48 5.57,-5.81 2.42,0.72 0.97,2.43 5.81,0.48 3.87,-0.73 z" 
                fill="rgb(151, 144, 238)" 
                stroke="white" 
                stroke-width=".7px"
                title="Sremski okrug" 
                id="RS-07" 
            />
        </svg>