<svg xmlns="http://www.w3.org/2000/svg" viewBox="277.0726900000001 505.68258000000003 112.88999999999999 99.35000000000002" width="112.88999999999999" height="99.35000000000002">
            <path 
                d="m 336.40269,604.49258 -0.31,-0.43 0,0 -3.92,0.97 -2.28,-4.51 -3.4,-3.37 -6.13,-1.54 -5.81,0.55 -0.52,-1.43 2.84,-8.61 -1.89,-5.64 -1.79,-1.34 -2.67,0.67 -3.36,4.72 -0.26,-16.31 -1.56,-5.88 -1.93,0.13 -2.31,2.08 -1.9,-5.55 -3.06,-3.12 -6.6,3.01 -4.62,-2.09 -2.09,1.38 0,0 -0.75,0.27 0,0 -2.09,0.71 -2.02,-0.85 0,0 -0.63,-0.27 0,0 -0.27,-5.2 1.07,-3.57 2.14,-2.86 0,-8.93 1.79,-0.72 1.07,-4.64 2.14,-1.43 2.5,2.86 4.65,-2.5 3.57,3.57 2.86,1.43 5,-3.22 2.15,-4.29 0.71,-6.07 3.93,-0.36 1.79,-2.86 -0.36,-5.71 1.78,-2.5 6.44,-0.36 4.28,-2.5 2.86,0 0.72,-2.14 3.21,-0.36 3.93,3.21 3.57,-1.78 8.22,2.86 0,0 1.79,3.93 0,0 6.43,0.35 6.79,-1.07 -0.72,3.93 -2.5,3.22 1.07,3.21 3.22,2.5 4.29,0.72 0,3.21 -1.79,2.15 1.79,3.21 5.36,1.79 1.78,2.14 1.79,-7.5 5,0.36 3.57,2.5 1.07,7.14 2.86,8.58 0,0 1.07,2.86 0,0 -4.28,5.71 -6.43,2.86 -2.86,0.36 -5.72,5.36 -4.64,0.35 -2.15,2.86 -6.43,3.22 -6.07,0 -1.79,2.86 -7.14,4.64 2.5,4.65 0,3.92 -1.79,0.72 -0.36,3.57 1.43,2.86 -2.5,4.29 z" 
                fill="rgb(151, 144, 238)" 
                stroke="white" 
                stroke-width=".7px"
                title="TopliÄki okrug" 
                id="RS-21" 
            />
        </svg>