<svg xmlns="http://www.w3.org/2000/svg" viewBox="0.3426944699999963 28.422577999999998 103.92999553 113.57000199999997" width="103.92999553" height="113.57000199999997">
            <path 
                d="m 99.472694,102.23258 -1.01,0.28 -2.91,7.03 3.15,4.35 -0.72,1.94 -4.85,-0.48 -1.45,7.26 -2.91,1.21 -6.29,-3.39 -5.57,4.36 -0.49,4.12 -3.15,1.45 -2.9,3.15 1.21,2.66 2.91,1.94 -1.46,3.15 -2.42,-1.21 -4.12,-0.24 -3.14,2.18 -2.43,-1.7 -1.21,-2.66 -1.69,0.72 -0.97,3.15 -8.23,0 -0.97,-2.42 -3.15,-0.97 -3.39,1.7 -3.63,-0.49 1.69,-1.94 -5.33,-2.66 -1.69,-2.18 -3.39,1.21 -1.7,-0.97 0.68,-2.28 0,0 2.07,0.71 5.4,-0.55 1.75,-2.23 0.33,-2.73 -4.42,-3.19 -4.3,-0.65 -1.55,-4.08 -2.94,0.15 -1.15,2.68 -5.17,1.27 -2.41,-1.03 -4.99,-5.27 0.47,-2.41 2.42,-3.53 -1.48,-2.74 1.18,-1.22 3.44,-0.18 0.65,-3.83 2.68,-3.310002 0.25,-2.72 -4.84,-2.48 -2.63,-2.9 -3.0099995,-12.76 -1.3,-2.19 -2.46,-1.13 -0.69,-1.69 0.77,-10.18 -3.49,-2.75 -0.49,-4.66 -1.69000003,-2.39 0.87000003,-0.67 0.88,1.72 5.1,-1.15 -0.52,-1.87 2.09,0.78 3.5399995,-3.52 7.15,1.66 3.21,-1.1 1.14,1.64 1.67,-0.17 -1.68,-4.37 2.37,-2.95 8.62,-0.17 -1.8,-6.62 5.27,-7.3 3.82,0.67 1.56,7.24 7.16,0.62 -0.35,-1.01 4.27,-0.11 0.55,0.71 6.21,-0.25 1.72,1.39 0,0 5,5.16 -0.24,4.36 4.6,-1.45 -0.97,2.66 -2.18,0.73 -2.42,2.9 2.42,4.85 -0.73,3.87 1.94,5.33 7.75,7.99 2.42,5.57 6.78,6.54 2.91,-4.36 7.99,4.12 -0.24,2.42 -2.18,1.94 6.539996,4.36 1.69,3.39 -5.809996,4.110002 0,0 z" 
                fill="rgb(151, 144, 238)" 
                stroke="white" 
                stroke-width=".7px"
                title="ZapadnobaÄki okrug" 
                id="RS-05" 
            />
        </svg>