<svg xmlns="http://www.w3.org/2000/svg" viewBox="54.04269400000005 371.80258000000043 140.899996 204.8099999999999" width="140.899996" height="204.8099999999999">
            <path 
                d="m 165.51269,382.76258 -0.6,0.18 0,0 0.24,3.64 -1.21,3.39 2.67,5.08 -3.39,6.78 6.53,7.99 -1.69,3.64 0,5.32 1.69,5.57 0,4.85 3.64,2.18 -1.7,7.26 3.15,7.27 4.6,6.54 0,4.35 1.94,4.12 -2.91,2.42 -4.11,-1.93 -3.88,2.18 -0.48,3.39 -3.15,1.69 -3.88,0.24 -3.39,2.91 -4.6,7.02 -4.12,0.24 -0.48,-2.18 -1.69,0.73 -2.67,4.6 0.73,3.88 4.36,0.97 7.26,7.75 4.36,7.5 0.73,4.36 3.87,3.39 0.97,3.63 2.42,3.15 -0.97,5.09 4.36,2.66 4.12,0.73 3.15,-2.18 7.75,-1.94 3.15,0.24 2.66,1.7 -0.58,2.45 0,0 -3.4,0 0,0 -1.78,4.29 1.78,5.36 -3.93,0.72 -2.14,2.85 3.93,3.22 1.43,2.86 2.86,0.35 1.07,4.65 -15.01,3.57 -1.78,6.43 -5.01,0.36 -2.5,3.57 -1.78,4.65 -3.58,5 -0.4,3.12 0,0 -12.35,-13.61 -2.48,-5.52 -4.45,2.9 -6.87,-0.2 -2.25,-1.63 -1.77,1.23 -1.49,-2.02 -4.68,-0.64 -2.27,-8.41 -1.43,-2.02 -1.48,0.16 -1.45,3.31 -1.99,-1.4 -6.21,-1.7 -4.48,-2.82 -3.98,-7.23 -8.899996,-5.56 -2.87,-8.78 -6.2,-2.42 -1.82,-2.52 -1.21,-5.03 -3.73,-1.12 -5.72,-5.05 -5.9,-2.35 -4.59,-3.06 -9.02,-10.08 -0.49,-6.32 2.54,0.53 0.82,-1.09 0.45,-10.73 2.34,-0.95 7.79,1.66 4.8,-2.23 1.27,0.66 0.56,1.85 1.28,0.02 1.84,4.07 1.71,0.25 3.8,-2.69 6.11,0.17 0.92,-1.1 -1.15,-1.73 -0.83,0.07 1.06,-3.32 -1.48,-3 1.43,-1.11 1.61,1.91 1.76,-1.44 -2.51,-15.6 -5.74,-4.85 -1.07,-3.74 -2.32,-1.93 -4.54,-1.66 -1.49,-9.01 -2.08,-1.78 -2.45,-4.76 -3.46,-2.01 -0.51,-4.38 -3.4,-1.51 -0.45,-2.78 -4.87,-3.91 -2.61,-4.78 -0.46,-5.04 1.63,-0.44 2.91,3.2 5.26,0.49 3.76,2.66 1.85,-0.17 1.52,2.16 3.17,1.78 1.94,-1.17 3.29,1.54 12.66,0.31 1.86,-3.2 3.38,-1.95 -0.26,-2.57 7.299996,-3.04 -0.79,-3.4 1.2,-2.64 -0.65,-0.79 -1.86,0.43 -0.46,-3.15 -1.71,-0.37 -0.799996,3.74 -0.92,0.5 -2.75,-4.3 -4.85,-1.56 -1.51,-1.76 12.069996,-8.43 2.42,0.72 1.69,1.94 0.97,-3.15 -0.24,-3.87 2.66,-0.49 0,0 14.29,8.48 2.91,4.12 0.97,3.63 4.11,0 1.21,-2.18 -1.21,-3.63 -2.9,-2.42 -1.21,-2.67 3.39,0 2.66,2.42 2.18,-2.66 3.88,-1.94 3.87,0.97 2.66,5.09 3.39,2.42 3.64,-2.42 3.87,-0.49 7.51,0.73 z" 
                fill="rgb(151, 144, 238)" 
                stroke="white" 
                stroke-width=".7px"
                title="Zlatiborski okrug" 
                id="RS-16" 
            />
        </svg>