<svg xmlns="http://www.w3.org/2000/svg" viewBox="206.56268999999995 321.43258000000014 99.45000000000002 116.64999999999998" width="99.45000000000002" height="116.64999999999998">
            <path 
                d="m 254.69269,342.54258 6.31,0.54 0,0 1.21,0.73 -1.21,5.08 5.09,0.49 6.29,2.66 5.33,0 4.36,-1.69 1.7,4.6 5.57,3.15 3.63,4.11 1.94,-1.69 3.63,0.73 -0.49,3.87 2.49,0.31 0,0 -1.32,3.7 0,0 2.5,5.36 4.29,2.5 -1.79,4.29 -6.43,4.28 -1.79,3.93 2.5,3.93 0.36,5 -5,1.08 -4.65,2.86 3.58,2.5 1.07,3.93 -1.79,2.14 -0.36,2.5 -3.21,1.07 -2.86,2.86 1.07,4.65 3.93,1.07 -15,9.29 -1.74,0.29 0,0 -0.41,-2.44 0,0 -3.57,-2.14 -6.07,-0.72 -3.58,1.08 -3.57,1.43 -0.71,3.21 2.5,1.79 -3.93,2.86 -6.08,0.35 -7.86,-12.14 0,0 -2.23,-1 0,0 0.38,-2.28 -3.87,-2.66 -3.39,-5.09 -3.15,-2.91 -2.91,-6.53 9.45,-8 3.63,-0.48 0.73,-2.18 -3.39,-4.84 -9.45,-7.51 -0.24,-4.36 -2.42,-5.09 -2.42,-2.66 -3.39,-0.24 -4.36,-5.81 -0.25,-6.3 -2.42,-2.91 0,0 -0.07,0.12 0,0 -1.14,-1.33 -0.24,-8.23 -2.91,-0.24 0,0 0.49,-4.6 0,0 5.57,-7.03 -1.46,-3.15 -2.17,-1.21 -1.22,-2.66 1.7,-1.94 0.73,-3.39 3.39,0.97 1.45,1.7 7.99,1.45 1.94,8.48 4.84,-1.22 1.21,-1.69 2.42,-0.73 2.67,1.21 0.24,3.64 2.18,2.9 4.12,0.49 1.93,-1.7 3.64,0.24 0.97,2.91 3.39,0.73 z" 
                fill="rgb(151, 144, 238)" 
                stroke="white" 
                stroke-width=".7px"
                title="Šumadijski okrug" 
                id="RS-12" 
            />
        </svg>