<svg xmlns="http://www.w3.org/2000/svg" viewBox="116.33299999999996 339.9300000000003 84.27600000000002 116.98799999999983" width="84.27600000000002" height="116.98799999999983">
            <path 
                d="m 171.644,356.712 1.813,3.298 2.891,-0.642 -0.361,2.309 0,3.547 2.95,1.815 -0.15,5.563 0.374,0.67 2.289,3.893 1.19,1.504 4.787,2.223 4.245,2.904 5.586,3.128 3.351,2.235 -0.223,3.574 -1.341,1.564 -2.234,0.447 -3.156,0.218 -0.23,0.319 -1.672,3.749 -2.485,5.628 -2.064,0.363 -0.447,2.235 -0.671,3.575 1.359,-0.215 2.216,1.109 2.681,1.564 2.012,3.352 0.669,3.128 0.224,5.138 -1.564,2.011 -1.787,1.787 0.893,2.905 -0.67,2.681 -0.67,1.564 -1.171,0.901 0,0.242 -1.761,0.545 -6.516,2.64 -0.818,0.689 -0.617,1.351 -0.066,1.488 -0.266,1.251 -0.504,1.025 -0.806,0.994 -1.903,1.996 -7.731,6.682 -3.356,1.235 -3.699,0.024 -0.747,-4.532 0.507,-1.888 -0.264,-0.977 -2.894,-1.953 -0.621,-2.718 0.389,-1.399 1.117,-1.563 2.011,-1.341 0.223,-2.904 -2.011,-0.894 -2.681,0.446 -1.34,1.565 -1.788,1.563 0.015,0.1 -0.252,0.087 -0.244,2.458 -0.449,3.845 -0.742,1.855 -3.296,2.377 -0.023,-0.421 -0.872,-2.109 -1.18,-1.498 -2.781,-4.097 -2.608,-4.407 -4.578,-10.067 -2.655,-6.795 -0.724,-2.499 0.463,-2.068 -0.053,-1.226 -3.958,-4.933 -1.657,-2.674 -1.008,-4.104 -0.166,-4.126 -1.47,-2.793 -1.945,-1.41 -1.209,-3.998 -0.297,-2.769 -2.311,-2.398 -2.778,-2.028 -1.025,-4.414 0.316,0 1.402,-0.302 1.068,-2.562 -0.276,-1.505 0.172,-1.61 1.12,-1.878 1.044,-1.048 0.848,-0.328 5.97,-1.949 5.816,-2.038 1.245,-2.337 -0.03,-0.998 3.118,-8.528 1.545,-3.363 2.76,-2.458 0.653,-0.559 1.434,-0.917 0.854,-0.321 1.523,-1.012 3.433,-4.974 8.265,-1.594 0.948,0.119 0.213,1.261 0.914,2.725 0.378,0.785 0.902,0.917 2.135,2.011 1.517,0.761 0.866,0.358 z" 
                fill="rgb(151, 144, 238)" 
                stroke="white" 
                stroke-width=".7px"
                title="Ancash" 
                id="PE-ANC" 
            />
        </svg>