<svg xmlns="http://www.w3.org/2000/svg" viewBox="321.7220000000001 563.3800000000001 75.74499999999995 70.08799999999985" width="75.74499999999995" height="70.08799999999985">
            <path 
                d="m 365.826,628.27 -2.449,-0.49 -3.339,-0.29 -3.085,-1.785 -0.663,0.781 -0.956,-0.716 -2.905,0.446 -4.692,1.788 -3.799,0.223 -4.915,2.011 -1.788,2.011 -2.316,1.219 -0.213,-0.212 -0.403,-0.799 -0.641,-2.908 -0.894,-1.545 0.446,-4.023 -0.67,-3.797 -1.788,-3.352 1.788,-2.904 1.117,-1.788 1.341,-2.457 0,-2.033 -0.64,-0.957 -1.932,-2.582 -0.748,-1.676 -0.498,-1.659 -2.561,-7.17 -2.431,-4.787 0.363,-1.044 1.511,-0.224 0.572,-0.682 -2.259,-3.587 -1.325,-0.51 -0.877,-0.338 -0.753,-1.637 -0.386,-1.151 -1.043,-7.089 -0.142,-1.054 -0.131,-1.35 0.848,-3.954 1.12,-2.505 0.836,-0.314 1.145,0.653 0.892,1.64 10.781,7.89 0.399,0.073 2.733,-0.372 3.797,-1.118 0.697,-2.484 0.669,0.848 2.317,1.716 4.92,0.144 4.89,0.132 1.389,-0.563 3.018,-0.145 4.159,1.528 1.491,0.785 6.593,4.278 9.272,4.682 5.242,1.829 2.501,1.6 2.443,2.39 0.474,0.74 1.151,2.168 1.541,2.966 0.284,0.91 0.143,1.056 -0.102,5.587 -0.325,1.652 -1.133,3.695 -0.717,1.349 -0.948,0.559 -0.712,0.504 -3.089,3.259 -0.462,0.773 -0.279,1.252 -0.629,0.876 -2.288,1.047 -2.525,1.204 -3.43,1.802 -1.2,1.375 -0.409,1.071 0.278,0.908 0.693,1.254 0.06,1.711 -0.214,1.035 -2.454,0.523 -2.977,0.536 -3.728,-0.401 -1.53,-0.932 -1.352,-0.469 -0.931,0.091 z" 
                fill="rgb(151, 144, 238)" 
                stroke="white" 
                stroke-width=".7px"
                title="Apurímac" 
                id="PE-APU" 
            />
        </svg>