<svg xmlns="http://www.w3.org/2000/svg" viewBox="268.4110000000001 626.8960000000001 182.11699999999973 114.73799999999983" width="182.11699999999973" height="114.73799999999983">
            <path 
                d="m 427.658,737.505 -2.11,0.968 -2.714,1.9 -4.287,1.261 -3.39,-1.428 -0.948,-0.283 -2.62,-0.469 -2.485,-0.457 -1.286,-0.567 -2.289,-1.697 -0.906,-1.676 -0.677,-0.808 -2.139,-1.491 -1.672,-0.789 -1.311,-0.531 -3.432,-2.156 -4.542,-3.425 -2.783,-2.77 -1.947,-2.672 -0.902,-0.923 -3.989,-2.302 -1.495,-0.694 -3.693,-1.089 -1.501,-0.357 -1.511,-0.049 -0.878,-0.049 -1.376,-0.111 -1.175,-0.142 -2.654,-0.83 -1.037,-0.866 -1.4,-1.427 -1.405,-1.052 -0.966,-0.589 -1.299,-0.406 -3.746,-1.475 -9.024,-3.908 -3.376,-2.93 -3.964,-1.994 -2.003,-0.761 -6.415,-2.173 -1.495,-0.356 -8.41,-3.015 -5.498,-4.443 -1.47,-1.276 -2.004,-2.746 -5.354,-2.898 -3.634,-1.097 -3.729,-0.946 -2.141,-1.038 -1.055,-0.6 -0.984,-0.925 -0.403,-1.329 -1.313,-1.867 -1.497,-0.802 -5.064,-2.055 -2.679,-1.212 -4.612,-2.508 -2.348,-1.333 -4.921,-2.263 -3.166,-1.155 -1.127,-1.107 -0.996,-1.047 0.992,-2.55 1.341,-4.022 3.351,-4.245 4.022,-2.234 1.936,-0.969 3.921,-0.604 0.093,0.293 0.33,-0.132 0.265,1.255 0.818,0.854 1.678,0.464 1.102,0.159 3.474,0.818 3.647,0.958 1.286,3.914 1.094,3.504 4.876,4.826 1.252,0.763 1.363,0.319 1.287,0.017 0.948,-0.262 1.239,-0.807 1.008,-0.807 0.985,-0.186 0.652,2.668 0.236,3.216 0.424,1.184 1.449,-0.033 1.546,-0.886 0.314,-3.658 1.787,-3.798 1.117,-2.458 4.022,-2.011 2.458,-1.117 -0.224,2.458 1.117,3.128 1.806,1.016 5.742,-0.7 2.383,-1.122 0.984,-0.561 1.825,-0.886 0.991,0.091 1.673,0.939 2.024,-0.9 1.117,-2.234 1.787,-2.234 3.799,-0.894 2.011,-2.905 2.68,-3.575 1.341,-3.128 -0.446,-2.904 -0.224,-3.352 0.894,-2.904 1.341,-2.234 1.563,-0.67 2.458,-0.671 0.698,-2.795 1.313,0.114 2.449,0.49 1.238,-1.283 0.931,-0.091 1.352,0.469 1.53,0.932 3.728,0.401 2.977,-0.536 2.454,-0.523 -0.322,1.906 0.559,1.225 1.637,2.035 0.954,1.145 0.718,0.488 2.508,0.591 1.108,-0.018 4.56,-0.903 4.381,1.732 0.75,0.908 1.124,-0.049 1.066,-1.652 0.753,-2.449 -0.077,-1.744 -0.575,-0.98 -0.445,-0.999 0.641,-1.315 1.191,-0.074 0.937,0.574 3.456,4.355 2.49,3.449 -0.213,6.542 -0.557,0.958 0.16,1.053 1.334,0.814 0.889,0.318 5.964,1.598 4.103,-1.916 2.525,-1.512 0.087,-0.989 4.455,1.239 1.56,1.317 1.321,1.386 0.949,0.561 0.913,-0.189 0.984,-1.142 0.664,-0.561 1.037,-0.262 0.691,0.251 0.334,3.117 -0.446,7.821 2.681,3.128 2.681,0.669 2.85,-0.356 -0.058,2.464 0.52,4.464 1.236,1.676 0.865,0.942 1.056,0.77 0.836,0.673 0.568,0.667 0.309,0.901 -0.19,0.972 -1.112,1.784 -0.316,1.733 2.249,3.748 1.657,1.241 0.492,0.998 -0.237,1.269 -0.417,1.431 -0.288,1.891 -0.012,2.158 0.089,2.196 -0.059,1.803 -0.083,1.178 -0.338,2.252 -0.647,1.062 -1.102,1.326 -0.949,0.884 -0.936,0.884 -0.51,1.038 0,1.117 0.369,1.105 -1.596,0.639 -2.906,-0.894 -3.351,-2.458 -1.787,-0.894 -2.011,0 -0.894,1.565 0.894,1.34 1.564,1.564 1.117,0.67 0.486,1.033 -2.539,1.208 -4.126,5.634 0.414,2.642 -0.414,2.322 -1.027,0.489 -1.458,0.524 -2.762,2.296 -0.511,0.726 -0.267,0.929 0.031,1.115 0.355,1.441 1.435,3.111 0.795,0.758 2.027,2.772 z" 
                fill="rgb(151, 144, 238)" 
                stroke="white" 
                stroke-width=".7px"
                title="Arequipa" 
                id="PE-ARE" 
            />
        </svg>