<svg xmlns="http://www.w3.org/2000/svg" viewBox="266.2970000000001 519.3059999999991 95.76699999999988 149.35800000000074" width="95.76699999999988" height="149.35800000000074">
            <path 
                d="m 327.423,661.305 -1.806,-1.016 -1.117,-3.128 0.224,-2.458 -2.458,1.117 -4.022,2.011 -1.117,2.458 -1.787,3.798 -0.314,3.658 -1.546,0.886 -1.449,0.033 -0.424,-1.184 -0.236,-3.216 -0.652,-2.668 -0.985,0.186 -1.008,0.807 -1.239,0.807 -0.948,0.262 -1.287,-0.017 -1.363,-0.319 -1.252,-0.763 -4.876,-4.826 -1.094,-3.504 -1.286,-3.914 -3.647,-0.958 -3.474,-0.818 -1.102,-0.159 -1.678,-0.464 -0.818,-0.854 -0.265,-1.255 1.018,-1.966 0.379,-1.477 0.143,-1.086 0,-2.097 -0.16,-1.317 -0.109,-0.26 -2.837,-2.451 -2.458,-4.915 -2.457,-4.692 -1.341,-1.787 -1.62,-0.579 -0.517,0.715 -0.999,0.821 -2.911,0.307 -0.057,-0.239 -1.716,-0.132 -1.787,-4.916 -0.671,-4.691 1.118,-2.682 0.446,-5.138 0.377,-7.722 0.3,0.093 -0.006,-0.192 1.787,0 3.798,1.117 4.692,-1.339 0.894,-1.788 1.564,-4.469 0.223,-4.692 0.135,-3.107 -0.141,-0.289 -0.326,-1.628 0.095,-1.436 0.435,-1.655 -1.087,-1.455 -2.111,-2.738 -0.735,-0.509 -1.031,-0.497 -0.985,-0.806 1.387,-4.741 4.429,-1.313 1.121,0.502 0.111,0.256 1.384,-0.692 2.682,-2.905 2.01,-2.681 2.682,-1.341 3.128,-2.01 2.011,-4.022 3.351,-1.117 2.139,-1.528 -0.93,-1.563 0.336,-1.25 -0.875,-4.373 -1.117,-4.469 -1.34,-4.915 -1.168,-4.379 -0.57,-0.83 -0.923,-0.129 -0.467,-1.589 -1.788,-2.234 -0.868,-0.806 1.263,-3.541 0.169,-0.36 2.788,0.239 2.234,-1.564 1.159,-1.256 0.012,0.021 1.957,-0.217 3.351,2.458 3.575,0.67 2.681,-0.448 1.787,-1.117 2.906,0 1.34,0.224 -0.124,1.994 -0.359,-0.023 0.866,1.9 5.689,11.242 2.23,2.558 0.727,-0.526 2.311,2.185 0.557,0.676 1.404,2.949 0.329,1.214 3.127,2.084 2.681,4.916 2.011,4.691 1.117,4.469 2.904,3.798 2.012,3.351 -0.227,1.056 0.029,0.035 -0.697,2.484 -3.797,1.118 -2.733,0.372 -0.399,-0.073 -10.781,-7.89 -0.892,-1.64 -1.145,-0.653 -0.836,0.314 -1.12,2.505 -0.848,3.954 0.131,1.35 0.142,1.054 1.043,7.089 0.386,1.151 0.753,1.637 0.877,0.338 1.325,0.51 2.259,3.587 -0.572,0.682 -1.511,0.224 -0.363,1.044 2.431,4.787 2.561,7.17 0.498,1.659 0.748,1.676 1.932,2.582 0.64,0.957 0,2.033 -1.341,2.457 -1.117,1.788 -1.788,2.904 1.788,3.352 0.67,3.797 -0.446,4.023 0.894,1.545 0.641,2.908 0.403,0.799 0.213,0.212 2.316,-1.219 1.788,-2.011 4.915,-2.011 3.799,-0.223 4.692,-1.788 2.905,-0.446 0.956,0.716 0.663,-0.781 3.085,1.785 2.026,0.176 -0.698,2.795 -2.458,0.671 -1.563,0.67 -1.341,2.234 -0.894,2.904 0.224,3.352 0.446,2.904 -1.341,3.128 -2.68,3.575 -2.011,2.905 -3.799,0.894 -1.787,2.234 -1.117,2.234 -2.024,0.9 -1.673,-0.939 -0.991,-0.091 -1.825,0.886 -0.984,0.561 -2.383,1.122 z" 
                fill="rgb(151, 144, 238)" 
                stroke="white" 
                stroke-width=".7px"
                title="Ayacucho" 
                id="PE-AYA" 
            />
        </svg>