<svg xmlns="http://www.w3.org/2000/svg" viewBox="82.06199999999991 193.04499999999982 73.14600000000006 135.10000000000016" width="73.14600000000006" height="135.10000000000016">
            <path 
                d="m 115.01,210.092 -1.5,3.001 0,3.751 0,3.751 3,3 2.023,0.107 0.089,0.55 1.639,0.468 1.875,1.126 0,3.75 -1.875,2.626 -1.5,3.751 -0.375,3 -1.126,3.001 -1.5,3.375 0,3.751 2.251,1.875 2.625,2.251 -0.156,2.964 0.693,0.422 4.102,3.056 2.318,3.88 0.944,2.302 0.563,1.467 0.426,0.966 0.746,1.099 1.415,0.785 1.497,0.427 4.093,2.46 1.747,2.655 5.243,10.642 0.007,0.379 1.327,1.327 1.117,1.564 0.671,4.469 0,1.787 -0.121,0.028 0.121,0.642 1.34,2.905 2.011,3.798 2.011,4.022 1.788,4.692 0.669,4.022 -1.563,2.234 -1.788,2.011 -2.458,2.457 -1.493,0.499 -0.612,1.419 -2.174,0.537 -1.604,-1.404 -2.626,-0.75 -3.001,2.626 -3,1.125 -2.81,1.405 -0.276,-1.319 -0.226,-0.916 -1.727,-1.076 -0.212,-2.97 0,-3.001 -2.251,-1.5 -1.875,0 -4.876,1.125 -2.625,-0.75 -0.751,-3.376 -3,-1.875 -2.251,1.125 -2.625,1.5 -2.251,2.251 -0.75,1.5 -1.875,1.5 -2.626,1.126 -2.382,-0.149 0.086,-0.338 -0.153,-0.962 -1.714,-3.518 -3.871,-3.243 -0.854,-0.309 -2.763,-0.605 -0.518,-0.163 -1.333,-3.466 0,-2.625 -0.809,-1.156 0.015,-0.101 -0.378,-7.271 -0.07,-1.145 0.941,-0.351 0.362,-1.406 -0.167,-1.311 0.244,-2.332 2.753,-1.323 3.587,-3.624 0.211,-1.642 -0.512,-0.97 -2.666,-0.655 -3.409,-0.543 -5.745,-6.827 -0.675,-5.72 0.177,-0.947 0.711,-1.186 1.008,-0.853 1.091,-0.682 1.96,-0.853 1.468,0.178 1.226,0 1.032,-1.528 0.652,-1.753 1.428,-7.004 -0.355,-0.798 -3.859,-1.883 -0.264,0.053 -0.631,-0.672 -0.791,-2.085 0.174,-0.138 -0.439,-1.332 -0.415,-0.752 -0.741,-0.74 -0.598,-1.131 -0.849,-3.602 0.849,-6.815 2.579,-3.142 0.93,0.13 -0.243,-7.052 -1.524,-2.099 -1.467,-5.183 3.518,-5.083 2.491,-2.766 0.902,-0.841 1.209,-0.058 0.853,0.059 3.558,0.475 1.582,1.076 1.133,-0.203 1.079,-0.993 3.533,-4.422 0.433,-3.646 0.003,-1.77 0.525,-1.037 1.281,-1.678 0.717,-0.668 1.517,-1.087 1.405,-0.928 1.008,-0.437 1.868,-0.638 0.617,-0.175 0.99,2.337 1.434,4.869 0.166,1.247 0.368,0.81 0.393,0.599 -1.244,4.56 z" 
                fill="rgb(151, 144, 238)" 
                stroke="white" 
                stroke-width=".7px"
                title="Cajamarca" 
                id="PE-CAJ" 
            />
        </svg>