<svg xmlns="http://www.w3.org/2000/svg" viewBox="317.20300000000003 478.32199999999983 150.29100000000005 181.74299999999988" width="150.29100000000005" height="181.74299999999988">
            <path 
                d="m 360.674,481.224 1.149,0.949 3.368,1.814 5.94,0.673 3.001,1.31 2.122,0.559 1.678,-0.487 2.988,-1.947 2.371,-2.151 4.832,-1.67 0.501,0.076 0,3.765 -0.894,5.14 -2.01,3.35 -2.905,3.129 -1.34,1.564 2.904,3.351 0.789,1.334 -0.383,1.746 1.382,1.613 0.894,4.691 3.574,1.787 4.022,2.906 2.457,3.351 1.341,3.128 3.352,1.564 -1.131,2.261 0.276,0.073 0.24,0.184 -1.396,1.28 -3.128,2.457 1.117,1.789 1.787,2.457 1.565,1.564 0.446,4.021 0.224,2.682 2.458,1.787 1.69,-0.169 0.097,0.169 2.68,-0.893 3.576,-0.224 4.916,-1.341 2.01,-0.223 2.681,3.128 2.234,3.798 3.576,2.458 4.021,1.34 2.458,0.447 0.532,1.777 0.468,0.245 0.117,2.224 1.34,4.021 0.671,3.128 2.011,0.447 2.68,-1.787 1.789,-1.564 1.684,-1.992 0.419,0.071 0.577,-1.877 1.787,-0.671 3.352,1.341 5.139,0.447 4.246,1.34 2.922,-0.127 0.086,-0.12 3.47,0.694 -0.446,6.256 -0.224,4.692 -4.245,4.692 -3.575,4.021 -3.128,3.799 -1.34,2.458 -3.128,3.574 -3.575,1.565 -0.447,3.128 -0.224,2.68 0.895,4.023 -0.671,4.245 -0.67,4.021 -1.341,3.352 -2.458,4.021 -0.67,4.022 -1.117,2.904 -2.904,2.012 -1.118,1.787 0.982,0.982 -0.006,0.182 1.299,2.029 1.031,1.133 1.127,0.286 1.98,2.967 0.738,4.564 -0.572,1.106 -0.854,1.269 -0.249,0.903 0.309,4.752 0.414,0.781 0.759,1.081 0.267,0.928 0.143,1.355 0.017,0.891 -0.267,3.655 -2.009,1.097 0.224,1.98 -0.025,1.105 -2.85,0.356 -2.681,-0.669 -2.681,-3.128 0.446,-7.821 -0.334,-3.117 -0.691,-0.251 -1.037,0.262 -0.664,0.561 -0.984,1.142 -0.913,0.189 -0.949,-0.561 -1.321,-1.386 -1.56,-1.317 -4.455,-1.239 -0.087,0.989 -2.525,1.512 -4.103,1.916 -5.964,-1.598 -0.889,-0.318 -1.334,-0.814 -0.16,-1.053 0.557,-0.958 0.213,-6.542 -2.49,-3.449 -3.456,-4.355 -0.937,-0.574 -1.191,0.074 -0.641,1.315 0.445,0.999 0.575,0.98 0.077,1.744 -0.753,2.449 -1.066,1.652 -1.124,0.049 -0.75,-0.908 -4.381,-1.732 -4.56,0.903 -1.108,0.018 -2.508,-0.591 -0.718,-0.488 -0.954,-1.145 -1.637,-2.035 -0.559,-1.225 0.322,-1.906 0.214,-1.035 -0.06,-1.711 -0.693,-1.254 -0.278,-0.908 0.409,-1.071 1.2,-1.375 3.43,-1.802 2.525,-1.204 2.288,-1.047 0.629,-0.876 0.279,-1.252 0.462,-0.773 3.089,-3.259 0.712,-0.504 0.948,-0.559 0.717,-1.349 1.133,-3.695 0.325,-1.652 0.102,-5.587 -0.143,-1.056 -0.284,-0.91 -1.541,-2.966 -1.151,-2.168 -0.474,-0.74 -2.443,-2.39 -2.501,-1.6 -5.242,-1.829 -9.272,-4.682 -6.593,-4.278 -1.491,-0.785 -4.159,-1.528 -3.018,0.145 -1.389,0.563 -4.89,-0.132 -4.92,-0.144 -2.317,-1.716 -0.698,-0.883 0.227,-1.056 -2.012,-3.351 -2.904,-3.798 -1.117,-4.469 -2.011,-4.691 -2.681,-4.916 -3.127,-2.084 -0.329,-1.214 -1.404,-2.949 -0.557,-0.676 -2.311,-2.185 -0.727,0.526 -2.23,-2.558 -5.689,-11.242 -0.866,-1.9 0.359,0.023 0.104,-1.684 4.488,-1.204 2.905,-0.223 2.01,0.447 1.129,0.94 0.061,-0.019 1.045,2.207 1.341,1.117 3.127,-2.234 3.128,-2.458 3.352,-2.681 2.011,-2.682 -1.787,-4.245 -1.788,-2.68 -0.447,-1.565 -1.159,-1.685 -2.192,-0.549 -1.341,-0.894 -0.67,-3.574 0.552,-2.317 -0.335,-0.118 0.9,-3.151 0.828,-3.036 0.274,-0.285 0.805,-0.997 0.498,-0.71 0.688,-1.13 1.577,-3.245 0.498,-1.322 0.359,-1.32 0.916,0.373 6.717,-0.796 1.044,-0.143 3.082,-0.481 1.53,-0.264 1.387,-0.409 1.079,-0.39 0.916,-0.751 3.252,-0.607 z" 
                fill="rgb(151, 144, 238)" 
                stroke="white" 
                stroke-width=".7px"
                title="Cusco" 
                id="PE-CUS" 
            />
        </svg>