<svg xmlns="http://www.w3.org/2000/svg" viewBox="235.9109999999999 509.9220000000005 66.26300000000009 90.59899999999982" width="66.26300000000009" height="90.59899999999982">
            <path 
                d="m 302.174,552.521 -2.139,1.528 -3.351,1.117 -2.011,4.022 -3.128,2.01 -2.682,1.341 -2.01,2.681 -2.682,2.905 -1.384,0.692 -0.111,-0.256 -1.121,-0.502 -4.429,1.313 -1.387,4.741 0.985,0.806 1.031,0.497 0.735,0.509 2.111,2.738 1.087,1.455 -0.435,1.655 -0.095,1.436 0.326,1.628 0.141,0.289 -0.135,3.107 -0.223,4.692 -1.564,4.469 -0.894,1.788 -4.692,1.339 -3.798,-1.117 -1.787,0 0.006,0.192 -1.347,-0.414 -3.128,0 -1.736,0.809 -0.315,-0.363 -2.641,0 -3.575,-2.011 -0.967,-1.583 -0.243,-0.036 -4.358,-2.04 -1.298,-2.33 -0.208,-4.24 1.37,-2.615 -1.034,-5.229 1.081,-1.316 0.89,-0.655 0.486,-0.727 0.64,-1.491 0.001,-1.044 -0.352,-0.146 0.641,-1.795 -0.224,-2.011 -1.34,-1.34 -2.681,0.223 -2.235,1.787 -1.637,1.2 -0.354,-0.023 -1.957,0.085 -1.37,0.133 -1.055,0.012 -0.77,-0.406 -0.18,-0.627 -1.391,0.074 -1.34,-1.789 1.787,-2.457 1.788,-3.128 0.67,-3.798 0,-2.681 0.353,-2.047 0.008,-10e-4 -0.138,-1.304 2.682,-1.117 1.117,-2.458 1.117,-1.564 1.341,-2.457 1.564,-1.565 -0.671,-2.01 0.447,-2.905 0.91,-1.95 -0.677,-0.456 -0.056,-0.163 3.398,0 4.469,-4.692 5.138,-4.469 4.693,-4.245 3.797,-5.809 0.331,-0.826 0.117,-0.067 0.446,-5.14 2.458,-1.564 5.716,-0.889 6.126,0.22 2.011,-0.224 0.792,0.603 0.332,0.067 3.344,0 6.033,1.341 2.458,2.234 0.67,2.904 -1.577,0.43 1.172,2.001 -1.159,1.256 -2.234,1.564 -2.788,-0.239 -0.169,0.36 -1.263,3.541 0.868,0.806 1.788,2.234 0.467,1.589 0.923,0.129 0.57,0.83 1.168,4.379 1.34,4.915 1.117,4.469 0.875,4.373 -0.336,1.25 z" 
                fill="rgb(151, 144, 238)" 
                stroke="white" 
                stroke-width=".7px"
                title="Huancavelica" 
                id="PE-HUV" 
            />
        </svg>