<svg xmlns="http://www.w3.org/2000/svg" viewBox="175.98700000000002 350.7959999999999 117.70400000000006 93.10399999999964" width="117.70400000000006" height="93.10399999999964">
            <path 
                d="m 178.787,372.602 0.15,-5.563 -2.95,-1.815 0,-3.547 0.361,-2.309 1.674,-0.372 3.375,-2.25 2.249,3.474 0.519,-0.227 1.251,-0.059 0.812,0.529 0.388,0.991 1.705,0 2.681,0 1.701,0 -0.204,-0.774 1.651,-0.184 3.751,-0.75 3,0.75 4.126,-1.5 3.001,1.125 1.875,1.126 1.5,-3.001 1.501,-1.875 1.77,0.885 0.076,-0.506 1.946,1.575 1.36,0.486 1.637,2.81 2.757,6.947 1.11,1.49 2.158,0.259 0.754,-0.561 0.734,-1.185 -0.8,-3.199 -1.125,-9.377 3.751,-3.75 4.022,-1.449 1.468,2.308 -0.141,0.19 -0.439,1.001 -0.391,2.655 -0.19,1.834 -0.355,1.238 -0.137,0.472 0.361,2.076 0.983,2.592 0.049,-0.021 -0.138,3.462 -0.675,4.049 1.311,4.901 2.372,5.295 0.705,0.763 0.646,1.431 0.212,1.19 0.791,0.692 0.67,1.341 2.235,4.022 1.787,3.128 1.787,2.457 2.237,0.699 0.811,-0.425 1.992,-1.587 4.162,-2.171 2.416,0.58 3.352,-0.894 2.234,-2.011 1.788,-1.787 -0.224,-4.469 2.235,-2.681 0.541,-3.924 0.34,-0.478 2.693,-0.514 3.128,-0.446 1.118,2.234 2.01,0 1.118,-2.011 0.223,-2.904 1.564,-4.246 0.92,-3.495 0.432,-0.297 3.459,-1.411 0.96,-0.238 1.447,-0.108 2.371,0.167 1.636,0.202 0.789,0.411 1.055,1.028 0.635,1.457 0.284,1.442 -0.129,1.106 -2.04,1.324 -2.514,4.889 -0.68,3.23 0.759,3.252 0,4.469 1.788,2.234 0.893,3.352 -1.788,2.234 -0.893,2.458 0.056,0.614 -0.95,0.949 -2.458,2.905 -2.234,2.458 -0.894,3.128 -1.564,1.787 -1.34,1.341 -2.681,0.223 -2.234,1.565 -1.341,0.67 -0.646,1.292 -0.759,-0.079 -0.829,1.245 -2.234,1.563 -2.011,-1.563 -0.967,-1.451 -0.404,0.105 -1.087,-0.889 -2.681,-0.223 -2.235,1.787 -2.681,2.01 -2.542,2.035 -0.865,0.147 -0.538,0.039 -3.428,3.142 -2.904,2.458 -2.235,1.564 -2.234,3.128 -2.011,3.351 -1.476,0.812 -0.982,0.082 -1.117,1.787 -2.234,0.894 -0.67,3.352 -0.693,1.979 -0.223,0.099 -0.201,0.602 -3.128,-0.222 -4.022,-1.118 -2.234,-0.671 -4.245,-0.446 -2.012,-0.893 -2.234,-2.235 -3.128,-0.223 -3.351,1.117 -3.352,2.234 -2.904,2.011 -3.808,0.895 -0.116,-0.129 -0.61,0.083 -1.109,-0.407 -0.824,-0.683 -0.445,-0.748 -0.388,-2.106 -0.952,-0.655 -1.867,0.425 -1.091,-0.661 -0.498,-1.273 0.036,-0.748 0,-0.242 1.171,-0.901 0.67,-1.564 0.67,-2.681 -0.893,-2.905 1.787,-1.787 1.564,-2.011 -0.224,-5.138 -0.669,-3.128 -2.012,-3.352 -2.681,-1.564 -2.216,-1.109 -1.359,0.215 0.671,-3.575 0.447,-2.235 2.064,-0.363 2.485,-5.628 1.672,-3.749 0.23,-0.319 3.156,-0.218 2.234,-0.447 1.341,-1.564 0.223,-3.574 -3.351,-2.235 -5.586,-3.128 -4.245,-2.904 -4.787,-2.223 -1.19,-1.504 -2.289,-3.893 z" 
                fill="rgb(151, 144, 238)" 
                stroke="white" 
                stroke-width=".7px"
                title="Huánuco" 
                id="PE-HUC" 
            />
        </svg>