<svg xmlns="http://www.w3.org/2000/svg" viewBox="213.49400000000014 553.602 72.44299999999998 106.66800000000012" width="72.44299999999998" height="106.66800000000012">
            <path 
                d="m 233.297,553.602 2.457,0.893 4.246,0 0.318,1.113 0.191,-0.031 -0.353,2.047 0,2.681 -0.67,3.798 -1.788,3.128 -1.787,2.457 1.34,1.789 1.391,-0.074 0.18,0.627 0.77,0.406 1.055,-0.012 1.37,-0.133 1.957,-0.085 0.354,0.023 1.637,-1.2 2.235,-1.787 2.681,-0.223 1.34,1.34 0.224,2.011 -0.641,1.795 0.352,0.146 -0.001,1.044 -0.64,1.491 -0.486,0.727 -0.89,0.655 -1.081,1.316 1.034,5.229 -1.37,2.615 0.208,4.24 1.298,2.33 4.358,2.04 0.243,0.036 0.967,1.583 3.575,2.011 2.641,0 0.315,0.363 1.736,-0.809 3.128,0 1.047,0.321 -0.377,7.722 -0.446,5.138 -1.118,2.682 0.671,4.691 1.787,4.916 1.716,0.132 0.057,0.239 2.911,-0.307 0.999,-0.821 0.517,-0.715 1.62,0.579 1.341,1.787 2.457,4.692 2.458,4.915 2.837,2.451 0.109,0.26 0.16,1.317 0,2.097 -0.143,1.086 -0.379,1.477 -1.018,1.966 -0.33,0.132 -0.093,-0.293 -3.921,0.604 -1.936,0.969 -4.022,2.234 -3.351,4.245 -1.341,4.022 -0.992,2.55 -0.154,-0.163 -2.223,-3.77 -3.148,-4.611 -0.557,-0.684 -0.712,-0.806 -1.506,-1.388 -4.269,-3.031 -4.588,-6.941 -0.789,-0.915 -1.126,-0.878 -1.002,-0.572 -1.648,-0.793 -4.471,-2.609 -5.336,-3.156 -4.019,-3.292 -0.131,-1.64 -0.219,-1.711 -1.849,-4.529 -3.623,-3.643 -0.688,-0.535 -1.366,-2.78 -0.946,-3.629 -2.704,-2.466 -1.12,-0.706 -3.23,-1.373 0.265,-9.781 -1.829,-1.166 -1.929,-0.643 0.673,-2.209 1.814,-0.673 1.147,0.581 1.244,1.816 1.495,-3.816 0.38,-1.322 1.173,-4.123 0.321,-2.461 0.551,-5.399 -0.658,-1.726 -2.081,-3.761 -0.348,-0.359 -0.315,-0.447 0.107,-2.03 1.565,-1.357 1.787,-4.021 2.904,-1.788 3.128,-2.235 2.235,-2.01 z" 
                fill="rgb(151, 144, 238)" 
                stroke="white" 
                stroke-width=".7px"
                title="Ica" 
                id="PE-ICA" 
            />
        </svg>