<svg xmlns="http://www.w3.org/2000/svg" viewBox="208.89900000000029 453.5059999999998 133.36400000000003 84.12100000000004" width="133.36400000000003" height="84.12100000000004">
            <path 
                d="m 272.336,454.04 0.587,0.275 2.088,-0.139 5.139,2.681 3.128,1.564 3.351,1.564 1.824,1.303 1.954,-0.196 1.446,-0.036 1.846,0.161 0.526,2.765 0.367,1.896 0.216,0.635 2.993,1.069 4.468,0 6.033,-0.447 0.907,0.26 1.533,-0.437 3.558,-0.541 0.481,2.729 1.117,3.351 4.246,0.894 2.01,-1.118 0.894,-2.904 0.223,-4.021 0,-2.235 -0.089,-1.889 0.366,-0.516 0.89,-1.775 0.966,-1.824 5.466,1.662 1.5,1.194 1.571,2.044 0.177,0.28 0.102,2.947 0.446,3.798 2.398,0.661 -0.02,0.107 1.867,1.467 0.895,6.479 -0.364,3.988 0.081,0.054 -0.359,1.32 -0.498,1.322 -1.577,3.245 -0.688,1.13 -0.498,0.71 -0.805,0.997 -0.274,0.285 -0.828,3.036 -0.9,3.151 0.335,0.118 -0.552,2.317 0.67,3.574 1.341,0.894 2.192,0.549 1.159,1.685 0.447,1.565 1.788,2.68 1.787,4.245 -2.011,2.682 -3.352,2.681 -3.128,2.458 -3.127,2.234 -1.341,-1.117 -1.045,-2.207 -0.061,0.019 -1.129,-0.94 -2.01,-0.447 -2.905,0.223 -4.488,1.204 0.02,-0.31 -1.34,-0.224 -2.906,0 -1.787,1.117 -2.681,0.448 -3.575,-0.67 -3.351,-2.458 -1.957,0.217 -1.184,-2.022 1.577,-0.43 -0.67,-2.904 -2.458,-2.234 -6.033,-1.341 -3.344,0 -0.332,-0.067 -0.792,-0.603 -2.011,0.224 -6.126,-0.22 -5.716,0.889 -2.458,1.564 -0.446,5.14 -0.117,0.067 -0.331,0.826 -3.797,5.809 -4.693,4.245 -5.138,4.469 -4.469,4.692 -3.398,0 -0.326,-0.953 0.08,-0.452 -0.847,-1.835 -0.224,-5.585 0.846,-4.396 -0.234,-0.43 -2.478,-4.63 0.106,-1 0.694,-1.049 -0.326,-1.302 -0.911,-0.715 -0.132,-4.353 -6.479,0 -1.23,0.427 -1.445,-0.66 -1.272,-0.345 -0.805,0.163 -1.504,-0.925 -4.065,-1.316 -0.293,-0.762 -3.385,-4.339 -2.586,-2.534 -0.337,-0.812 -0.196,-2.912 -0.125,-2.634 -0.358,-1.425 -0.987,-0.673 -0.937,0.15 -1.542,-0.049 -1.873,-0.793 -1.44,-2.435 -4.115,-8.365 -0.528,-5.314 0.024,-1.213 0.273,-2.165 0.1,-0.843 -0.387,-0.939 2.648,-0.398 2.458,0.67 0.823,1.442 0.441,-0.061 0.673,-0.093 1.638,1.17 2.905,-0.447 2.234,-2.234 3.128,0.447 3.128,-1.341 0.893,-2.234 -0.446,-2.011 -3.575,0.224 -0.257,-2.402 0.004,0 0.476,-1.62 1.341,-0.447 1.564,-1.341 2.234,0.224 2.011,1.564 3.128,-0.671 3.351,-0.67 2.682,-1.34 4.692,-1.788 2.904,-1.564 1.117,0 1.788,2.012 1.342,1.509 0.909,-0.085 1.968,0.18 1.144,-0.03 1.169,-0.318 0.963,-0.353 0.771,-1.351 1.788,-1.117 3.575,-1.787 2.904,-0.447 1.272,0.489 z" 
                fill="rgb(151, 144, 238)" 
                stroke="white" 
                stroke-width=".7px"
                title="Junín" 
                id="PE-JUN" 
            />
        </svg>