<svg xmlns="http://www.w3.org/2000/svg" viewBox="71.7230000000001 293.95500000000015 120.92699999999994 86.25599999999969" width="120.92699999999994" height="86.25599999999969">
            <path 
                d="m 165.263,322.13 0.223,3.798 0.447,4.469 1.854,0.292 0.083,0.296 1.638,0.082 1.564,1.341 0.67,4.245 0.508,3.214 0.521,0 4.501,-1.875 3.375,-0.375 2.626,1.875 4.501,0.75 2.25,3.376 1.5,2.25 1.126,4.126 -0.924,0.462 0.3,1.422 -0.02,0.809 -1.232,0.308 -4.126,0.75 -3.375,1.125 -1.876,1.876 -3.375,2.25 -4.565,1.014 -1.813,-3.298 -5.158,-7.845 -0.866,-0.358 -1.517,-0.761 -2.135,-2.011 -0.902,-0.917 -0.378,-0.785 -0.914,-2.725 -0.213,-1.261 -0.948,-0.119 -8.265,1.594 -3.433,4.974 -1.523,1.012 -0.854,0.321 -1.434,0.917 -0.653,0.559 -2.76,2.458 -1.545,3.363 -3.118,8.528 0.03,0.998 -1.245,2.337 -5.816,2.038 -5.97,1.949 -0.848,0.328 -1.044,1.048 -1.12,1.878 -0.172,1.61 0.276,1.505 -1.068,2.562 -1.402,0.302 -0.316,0 0.091,-0.286 -0.056,-1.52 -2.695,-4.143 -1.233,-4.553 0.16,-1.055 -0.068,-2.068 -0.436,-1.679 -0.38,-1.013 -3.07,-3.466 -3.489,-3.799 0.37,-1.066 -0.065,-0.875 -3.249,-6.515 -7.013,-7.565 -0.76,-0.726 -0.972,-0.523 -0.854,-0.345 -3.272,-2.712 -0.948,-0.814 -0.878,-0.928 -1.435,-2.099 -2.384,-4.126 -0.699,-2.722 -0.486,-1.533 -1.909,-3.387 -1.387,-1.592 -0.729,-0.773 -1.577,-2.566 -0.22,-1.467 0.356,-1.247 -0.89,-2.714 -0.332,-0.855 -1.067,-2.482 -0.474,-0.712 -2.56,-2.535 1.125,-1.301 5.977,-6.178 1.724,-1.537 0.967,-0.516 4.215,1.051 1.407,1.169 0.07,1.145 0.378,7.271 -0.015,0.101 0.809,1.156 0,2.625 1.333,3.466 0.518,0.163 2.763,0.605 0.854,0.309 3.871,3.243 1.714,3.518 0.153,0.962 -0.086,0.338 2.382,0.149 2.626,-1.126 1.875,-1.5 0.75,-1.5 2.251,-2.251 2.625,-1.5 2.251,-1.125 3,1.875 0.751,3.376 2.625,0.75 4.876,-1.125 1.875,0 2.251,1.5 0,3.001 0.212,2.97 1.727,1.076 0.226,0.916 0.276,1.319 2.81,-1.405 3,-1.125 3.001,-2.626 2.626,0.75 1.604,1.404 2.174,-0.537 0.612,-1.419 1.493,-0.499 2.458,-2.457 1.788,-2.011 1.563,-2.234 -0.669,-4.022 -1.788,-4.692 -2.011,-4.022 -2.011,-3.798 -1.34,-2.905 -0.121,-0.642 2.726,-0.623 2.86,-1.045 1.29,-0.282 0.211,0.625 0.665,0.76 0.645,0.397 1.761,3.092 3.795,4.594 0.653,1.211 -0.244,1.211 -1.121,2.215 0.179,2.238 1.137,3.017 0.671,1.384 1.404,0.909 0.426,0.203 0.267,3.861 z" 
                fill="rgb(151, 144, 238)" 
                stroke="white" 
                stroke-width=".7px"
                title="La Libertad" 
                id="PE-LAL" 
            />
        </svg>