<svg xmlns="http://www.w3.org/2000/svg" viewBox="478.44799999999987 646.5240000000005 47.22000000000014 52.658999999999764" width="47.22000000000014" height="52.658999999999764">
            <path 
                d="m 495.494,649.265 3.348,2.739 0.913,3.652 3.044,0 2.435,0.609 1.522,3.044 4.262,0.304 1.826,1.522 1.544,0.662 -3.512,7.476 3.478,9.294 3.439,9.186 1.537,0.8 3.352,2.234 2.986,2.19 -2.171,1.336 -1.826,3.348 -3.957,1.522 -3.349,-0.609 -2.131,-3.348 -2.13,0 -3.957,1.826 -2.435,-2.435 1.218,-3.348 2.131,-2.435 -0.61,-1.826 -4.565,-0.913 -1.767,-0.936 -0.059,0.326 -3.653,0 -1.218,-2.434 -0.913,-2.436 -1.217,0.61 -1.217,2.434 -1.523,-0.608 -2.131,-1.826 -1.826,0 -2.434,0.303 -0.913,-2.739 -0.61,-3.348 -0.913,-3.348 3.044,-1.218 2.131,-0.913 0.913,-2.739 1.826,-0.305 0,-3.957 -2.131,-1.217 -0.608,-3.044 1.521,-1.522 2.436,-1.522 -0.609,-4.261 -1.827,-0.914 -3.652,0.305 -2.739,-0.305 -2.739,0 -0.61,-1.826 0.61,-1.826 3.347,-0.305 3.349,0 3.044,0.914 3.652,0.914 z" 
                fill="rgb(151, 144, 238)" 
                stroke="white" 
                stroke-width=".7px"
                title="Lake Titicaca" 
                id="PE-LKT" 
            />
        </svg>