<svg xmlns="http://www.w3.org/2000/svg" viewBox="33.32800000000001 233.93899999999994 61.74100000000001 69.81100000000006" width="61.74100000000001" height="69.81100000000006">
            <path 
                d="m 76.394,249.261 1.184,1.405 0.176,-0.038 1.277,-0.299 3.063,1.16 0.631,1.362 0.913,-0.544 3.277,-2.586 0.791,2.085 0.631,0.672 0.264,-0.053 3.859,1.883 0.355,0.798 -1.428,7.004 -0.652,1.753 -1.032,1.528 -1.226,0 -1.468,-0.178 -1.96,0.853 -1.091,0.682 -1.008,0.853 -0.711,1.186 -0.177,0.947 0.675,5.72 5.745,6.827 3.409,0.543 2.666,0.655 0.512,0.97 -0.211,1.642 -3.587,3.624 -2.753,1.323 -0.244,2.332 0.167,1.311 -0.362,1.406 -0.941,0.351 -1.407,-1.169 -4.215,-1.051 -0.967,0.516 -1.724,1.537 -5.977,6.178 -1.125,1.301 -0.072,-1.241 -0.19,-1.531 -0.676,-1.093 -3.711,-4.486 -0.97,-0.679 -1.568,-0.97 -2.354,-2.433 -0.604,-0.848 -0.694,-2.509 -0.735,-1.851 -5.822,-5.26 -1.127,-0.67 -2.122,-0.913 -5.312,-2.514 -5.787,-3.189 -3.222,-2.033 -1.295,-1.416 -1.008,-0.77 -1.126,-0.7 0.438,-0.296 1.103,-1.505 2.229,-3.282 1.491,-2.376 0.438,-1.659 1.028,-2.008 2.378,-3.014 1.838,-2.067 0.961,-0.912 0.777,-0.545 1.512,-0.639 3.864,-1.193 0.785,-0.735 2.356,-1.886 1.98,-1.507 2.639,-3.3 0.848,-1.508 0.283,-3.393 0.746,-1.091 -0.061,-0.931 0.504,-0.858 0.818,0.503 1.009,0.751 4.783,3.823 2.064,3.824 0.83,2.438 1.749,0.778 1.508,0.471 1.131,0.849 z" 
                fill="rgb(151, 144, 238)" 
                stroke="white" 
                stroke-width=".7px"
                title="Lambayeque" 
                id="PE-LAM" 
            />
        </svg>