<svg xmlns="http://www.w3.org/2000/svg" viewBox="149.16800000000003 436.74899999999974 99.71799999999993 129.38100000000003" width="99.71799999999993" height="129.38100000000003">
            <path 
                d="m 247.682,524.406 -0.846,4.396 0.224,5.585 0.847,1.835 -0.08,0.452 0.382,1.116 0.677,0.456 -0.91,1.95 -0.447,2.905 0.671,2.01 -1.564,1.565 -1.341,2.457 -1.117,1.564 -1.117,2.458 -2.682,1.117 0.138,1.304 -0.199,0.032 -0.318,-1.113 -4.246,0 -2.457,-0.893 -2.681,1.117 -2.235,2.01 -3.128,2.235 -2.904,1.788 -1.787,4.021 -1.565,1.357 10e-4,-0.016 -1.723,-0.143 -3.455,-4.358 -1.085,-1.331 -1.138,-1.07 -1.369,-1.192 -0.593,-0.629 -0.606,-0.883 -0.545,-2.008 -0.332,-1.45 -0.308,-2.744 -3.522,-5.022 -1.482,-1.685 -4.838,-9.309 -1.556,-3.986 1.705,-1.28 -0.446,-4.021 2.234,-2.904 1.788,-3.352 0.223,-5.586 -2.011,-3.574 -2.904,-3.352 -3.129,-1.34 1.117,-3.352 1.788,-0.447 -1.117,-2.234 -3.352,-3.351 -3.351,-3.352 -2.905,-2.904 -2.904,-0.671 -2.234,2.234 -2.235,1.118 -1.553,2.108 -2.813,-4.173 -2.976,-2.597 -4.707,-2.866 -2.727,-1.526 -0.819,-0.385 -1.41,-0.433 -2.001,-1.415 -0.76,-1.961 0.701,-1.424 1.407,-0.149 0.222,-1.549 -2.925,-10.635 -1.72,-3.564 -2.715,-4.389 -1.886,-2.243 -2.863,-3.69 3.296,-2.377 0.742,-1.855 0.449,-3.845 0.244,-2.458 0.252,-0.087 -0.015,-0.1 1.788,-1.563 1.34,-1.565 2.681,-0.446 2.011,0.894 -0.223,2.904 -2.011,1.341 -1.117,1.563 -0.389,1.399 0.621,2.718 2.894,1.953 0.264,0.977 -0.507,1.888 0.747,4.532 3.699,-0.024 3.356,-1.235 7.731,-6.682 1.903,-1.996 0.806,-0.994 0.504,-1.025 0.266,-1.251 0.066,-1.488 0.617,-1.351 0.818,-0.689 6.516,-2.64 1.761,-0.545 -0.036,0.748 0.498,1.273 1.091,0.661 1.867,-0.425 0.952,0.655 0.388,2.106 0.445,0.748 0.824,0.683 1.109,0.407 0.61,-0.083 0.745,0.838 0.669,1.693 0.442,1.469 0.142,1.607 0.522,1.108 1.12,1.426 0.427,1.037 0.332,1.439 0.131,1.331 0.408,1.343 0.612,0.876 1.825,1.939 0.32,1.274 0.048,1.428 0.095,1.062 -0.048,1.673 -0.26,1.237 0.527,1.242 0.694,0.527 1.838,1.18 0.681,1.653 -0.1,0.843 -0.273,2.165 -0.024,1.213 0.528,5.314 4.115,8.365 1.44,2.435 1.873,0.793 1.542,0.049 0.937,-0.15 0.987,0.673 0.358,1.425 0.125,2.634 0.196,2.912 0.337,0.812 2.586,2.534 3.385,4.339 0.293,0.762 4.065,1.316 1.504,0.925 0.805,-0.163 1.272,0.345 1.445,0.66 1.23,-0.427 6.479,0 0.132,4.353 0.911,0.715 0.326,1.302 -0.694,1.049 -0.106,1 2.478,4.63 z" 
                fill="rgb(151, 144, 238)" 
                stroke="white" 
                stroke-width=".7px"
                title="Lima" 
                id="PE-LIM" 
            />
        </svg>