<svg xmlns="http://www.w3.org/2000/svg" viewBox="151.7670000000002 0 336.5149999999999 365.1619999999999" width="336.5149999999999" height="365.1619999999999">
            <path 
                d="m 266.879,0.359 4.935,3.295 2.598,2.014 0.96,1.202 3.32,1.425 0.817,-0.306 1.216,-0.831 0.884,-0.229 0.835,0.323 0.991,1.172 0.664,1.078 0.533,1.219 0.179,0.93 0.047,0.931 0.302,1.189 3.237,1.903 1.085,-0.972 2.158,1.449 6.961,5.324 0.758,1.048 0.249,0.403 0.522,2.353 0.818,3.11 0.972,3.192 1.103,1.19 1.814,1.86 -0.699,1.921 -0.795,1.331 1.174,2.391 0.623,1.113 1.078,0.931 5.876,1.608 8.953,5.761 1.155,2.396 3.788,1.043 1.673,-0.447 2.537,0.223 4.18,3.853 0.349,2.603 0.203,1.332 0.971,1.084 1.838,2.498 1.273,2.454 -1.273,1.116 -0.427,0.754 -0.877,3.983 0.723,0.789 3.166,2.11 5.099,2.413 2.478,-1.188 1.787,-1.659 2.743,1.812 1.807,3.159 1.376,9.416 -0.836,2.322 -1.002,1.344 -1.301,0.607 0.703,3.501 0.45,0.772 1.316,1.037 3.024,1.662 1.198,-0.377 1.726,-0.07 1.369,2.274 0.877,2.241 2.869,-0.696 5.609,-2.122 3.978,-1.391 5.947,1.45 5.252,1.768 1.21,0.354 3.07,0.318 6.724,-3.866 3.747,-1.627 2.17,0.405 1.775,-0.051 0.785,-2.441 2.686,-3.795 3.694,-3.042 1.228,-0.477 0.426,0.79 -0.041,1.255 0.42,1.226 4.168,0.495 2.414,-0.089 4.606,1.981 2.158,2.788 7.411,0.577 3.711,-2.062 5.324,-1.427 5.013,-2.248 6.466,4.241 3.962,0 3.834,3.355 4.313,1.917 2.56,2.275 0.343,-0.21 0.86,-0.245 1.719,0.377 3.268,2.931 0.425,1.659 7.599,-1.515 0,2.396 -1.565,5.322 -14.715,22.893 -1.494,2.325 -5.063,7.822 -2.632,4.06 -1.909,2.915 -2.217,3.482 4.971,2.115 3.403,1.264 1.159,0.003 0.913,-0.395 2.371,-1.44 0.742,-0.579 1.891,-0.625 0.877,0.094 0.794,0.39 3.783,3.063 2.244,2.813 0.821,1.591 0.433,1.316 0.35,1.104 0.35,0.809 0.556,0.915 3.51,2.899 0.843,0.567 1.387,0.939 1.363,1.423 -0.01,1.166 0.283,1.09 -0.438,0.879 -0.813,1.247 -1.595,1.082 -7.72,-0.225 -2.477,-1.755 -1.944,-1.76 -0.315,-0.838 0.445,-1.329 -0.059,-1.057 -0.872,-1.465 -4.663,-0.327 -1.532,0.965 -1.483,1.063 -3.591,0.673 -1.774,-1.488 -5.837,-0.546 -2.043,0.972 -0.936,0.699 -1.566,2.725 -0.155,1.234 -3.573,4.342 -1.573,-0.006 -2.537,2.255 -4.793,0 -4.313,2.396 -6.23,0.958 -6.23,2.397 -6.23,-0.48 -6.231,0 -3.834,3.355 -4.313,3.834 -4.792,3.355 -6.231,2.396 -6.71,4.314 -6.709,7.188 -6.23,2.397 -4.793,7.668 -1.438,7.189 -1.437,9.105 -5.751,4.793 -5.273,8.626 4.314,10.544 1.917,6.709 -6.231,6.231 -6.709,3.354 -10.544,4.793 -4.313,2.396 -1.917,10.065 -2.092,0.597 0.041,0.373 0.835,0.623 2.372,3.669 0.605,3.684 -1.381,1.057 -8.236,1.078 0.026,3.585 -1.362,3.608 -1.055,0.063 -0.406,-0.473 -0.789,-0.6 -0.125,-0.068 -0.085,-1.36 -2.905,-2.235 -2.904,-2.458 -4.246,-0.447 -3.128,-0.223 -1.563,-1.787 -2.235,-0.224 -1.564,0.447 -0.893,1.564 -0.061,0.283 -0.117,-0.096 -0.118,-0.078 -1.715,2.573 -1.564,1.563 -0.825,1.443 0.363,1.929 0.296,1.776 0.652,8.469 -0.154,3.769 -0.213,1.1 -0.759,1.124 -1.34,0.939 -0.752,0.422 -1.066,2.489 -2.458,1.341 -5.586,0.447 -4.469,-0.447 -0.43,-0.503 -0.522,0.155 -1.282,-0.769 -4.916,-0.447 -2.233,2.681 -2.012,1.788 -1.09,1.211 -1.428,-0.16 -2.763,-0.476 -2.67,2.011 -0.986,1.882 0,3.798 -0.223,2.681 0,2.595 -1.478,1.149 -2.294,0.574 -0.127,-0.108 -1.008,-0.952 -0.984,-0.882 -1.364,-0.827 -1.862,0 -5.632,4.9 -2.609,2.776 -0.782,1 -0.759,0.62 -1.567,0.684 -0.983,-2.592 -0.361,-2.076 0.137,-0.472 0.355,-1.238 0.19,-1.834 0.391,-2.655 0.439,-1.001 0.141,-0.19 -1.739,-2.735 0.75,-5.626 1.875,-3.375 2.398,-2.227 -0.485,-0.9 -1.001,-2.124 -2.948,0 -0.73,-2.556 -2.646,-3.461 -1.222,-4.071 -1.018,-6.921 -3.46,-3.461 -1.221,-3.664 0,-3.256 0.157,-2.684 2.801,-0.933 0.118,-0.714 0.241,-0.954 4.14,-2.957 0,-3.751 -1.125,-9.002 2.068,-2.067 0.795,-0.249 1.755,-0.102 1.246,0.285 1.255,0.356 1.175,0.474 1.138,0.831 1.127,0.854 0.452,0.566 4.742,-0.198 3.751,-0.75 1.605,-0.642 0.05,-0.079 0.392,-1.198 0.71,-3.334 -0.118,-1.683 0.048,-1.447 0.189,-2.537 0.261,-3.035 0.32,-2.098 0.403,-2.039 0.083,-1.126 -0.148,-1.292 -0.414,-0.938 1.87,-2.181 0.375,-3.751 -2.251,-3 -3.75,-1.876 -5.251,1.125 -2.797,2.131 -3.855,-0.811 -1.244,-0.166 -3.155,0.022 -1.912,0.152 -2.415,1.673 -4.126,2.626 -3.001,-1.501 -3,-3.75 -4.126,-3.751 -3.857,-0.386 -0.834,0.671 -1.514,1.047 -1.503,0.681 -2.373,0.358 -2.109,-0.869 -2.128,-1.487 -0.841,-1.272 -0.961,-1.918 -0.338,-1.57 -0.889,-2.534 -0.652,-1.183 -0.688,-1.232 -4.34,-2.983 -2.146,-0.68 -1.186,0.118 -1.66,0.065 -2.075,-0.059 -3.735,-0.272 -1.198,-0.297 -1.244,-0.355 -1.127,-0.58 -1.766,-1.952 -0.819,-0.947 -0.901,-1.414 -1.292,-1.036 -2.087,-0.976 -2.668,-0.846 -2.502,-0.805 -1.34,-0.816 -2.431,-1.804 -0.415,-0.799 -0.427,-0.556 -2.572,-5.548 -0.415,-1.242 -0.438,-2.384 -0.29,-0.145 -4.126,-3.376 0,-3 2.753,-3.097 -0.342,-1.987 -0.083,-1.3 0.237,-2.47 0.592,-2.069 0.747,-1.832 0.772,-1.181 0.77,-1.005 0.889,-0.945 0.801,-0.644 1.043,-1.648 2.733,-5.755 0.297,-1.24 0.356,-2.421 -0.238,-1.418 -0.278,-0.945 0.065,-2.232 0.628,-7.44 0.415,-0.856 -0.379,-6.252 -0.213,-0.957 -0.356,-0.791 -0.474,-0.708 -1.625,-2.089 -0.581,-1.157 -0.261,-0.909 -0.095,-1.062 0.119,-1.688 0.243,-1.8 -1.82,-8.172 -0.344,-1.091 -1.435,-2.885 -1.665,-2.702 -0.422,-1.303 -0.106,-1.34 -0.178,-4.282 -1.563,-6.824 0.674,-0.205 15.141,-5.178 9.202,-3.148 7.719,-2.653 5.929,-2.04 10.407,-3.588 10.959,-8.142 14.075,-10.574 4.126,-4.867 8.372,-9.946 2.632,-3.135 3.946,-4.737 1.67,-1.725 1.034,-0.668 0.441,-1.106 2.988,-11.534 0.937,-3.746 0.747,-2.886 0.522,-2.015 1.268,-4.888 1.079,1.189 0.741,0.719 1.245,0.506 4.849,-0.439 -1.985,-6.558 -1.257,-3.568 0.399,-3.153 0.265,-0.251 0.438,-0.18 0.766,-0.698 0.198,-2.909 -0.774,-1.608 -3.299,-2.476 -1.028,0.085 -1.091,-0.836 -1.021,-1.161 -0.9,-1.501 -0.605,-1.605 -0.45,-2.176 -0.238,-0.907 -0.7,-1.749 -3.844,-2.215 -2.276,-0.344 0.371,-2.777 4.131,0.439 1.672,1.14 2.341,0.871 3.214,-0.553 1.897,-0.702 0.83,-0.635 1.14,0.117 1.418,-1.124 0.395,-1.172 L 263.977,0 Z" 
                fill="rgb(151, 144, 238)" 
                stroke="white" 
                stroke-width=".7px"
                title="Loreto" 
                id="PE-LOR" 
            />
        </svg>