<svg xmlns="http://www.w3.org/2000/svg" viewBox="418.54700000000014 685.2790000000001 66.93299999999994 80.91500000000008" width="66.93299999999994" height="80.91500000000008">
            <path 
                d="m 452.105,685.96 0.197,0.233 2.457,-0.433 3.351,-0.224 2.682,0.224 0.718,0.719 0.271,-0.078 6.445,1.717 0.83,1.091 1.915,5.435 0.426,3.89 -0.225,0.983 -0.06,1.203 1.507,4.582 0.397,1.118 4.536,4.843 2.958,2.846 1.303,0.548 2.492,0.427 1.175,1.282 -3.529,3.399 -0.157,3.307 -0.224,3.575 -1.256,1.508 0.122,0.206 -1.323,0.074 -2.234,0.669 -0.595,-1.486 -0.746,-0.144 0,-1.497 -0.447,-3.128 -2.011,-1.118 -1.662,0.454 -0.281,-0.151 -2.17,0.062 -1.363,0.769 -1.424,1.81 -1.043,3.239 -0.178,1.232 0.711,1.682 0.309,0.858 -0.036,1.306 -2.407,2.971 -2.692,3.133 -0.937,0.592 -1.487,0.574 -1.436,0.383 -0.699,0.518 -0.859,1.302 -1.494,2.802 -2.064,4.075 -1.434,2.866 -0.814,1.167 0,2.095 -2.234,5.138 -2.457,2.235 -3.799,1.563 -2.904,1.788 -1.88,0 -0.059,-0.042 -0.427,-0.513 -0.37,-0.777 -1.005,-0.77 -3.889,-2.252 -2.348,-3.995 -0.45,-3.363 -0.338,-2.323 -1.032,-4.213 -0.812,-0.42 -2.881,-2.63 -0.308,-0.419 -0.051,-0.852 -2.119,-1.271 -1.71,-0.72 4.287,-1.261 2.714,-1.9 2.11,-0.968 1.219,-4.637 -2.027,-2.772 -0.795,-0.758 -1.435,-3.111 -0.355,-1.441 -0.031,-1.115 0.267,-0.929 0.511,-0.726 2.762,-2.296 1.458,-0.524 1.027,-0.489 0.414,-2.322 -0.414,-2.642 4.126,-5.634 2.539,-1.208 -0.486,-1.033 -1.117,-0.67 -1.564,-1.564 -0.894,-1.34 0.894,-1.565 2.011,0 1.787,0.894 3.351,2.458 2.906,0.894 1.596,-0.639 -0.369,-1.105 0,-1.117 0.51,-1.038 0.936,-0.884 0.949,-0.884 1.102,-1.326 0.647,-1.062 0.338,-2.252 0.083,-1.178 0.059,-1.803 -0.089,-2.196 0.012,-2.158 0.288,-1.891 1.164,-0.163 z" 
                fill="rgb(151, 144, 238)" 
                stroke="white" 
                stroke-width=".7px"
                title="Moquegua" 
                id="PE-MOQ" 
            />
        </svg>