<svg xmlns="http://www.w3.org/2000/svg" viewBox="0 172.549 92.082 97.78799999999998" width="92.082" height="97.78799999999998">
            <path 
                d="m 11.212,258.505 -0.715,-1.33 -1.167,-2.665 0.667,-2.666 1.666,-1.999 2.832,0.166 1.999,-0.666 0.794,-1.587 0.026,0.007 0.519,-0.05 0.328,-1.036 1.166,-1 1.333,-3.665 -0.334,-4.332 -1.666,-3.832 -3.165,-4.998 -2.999,-1.833 -3.499,-1.666 -3.665,-2.999 0.333,-2.333 1.499,-2.499 1.239,-0.66 0.578,-2.989 1.088,-0.511 1.59,0.183 0.782,-0.243 -1.445,-1.445 L 9.33,208.858 4.999,205.526 0,200.028 l 0.167,-3.832 1.333,-6.997 1.166,-5.498 1.614,-2.186 0.531,-1.397 0.8,-1.252 5.992,-5.491 1.255,-0.826 0.948,2.845 2.765,2.262 5.656,0 6.158,-0.378 3.393,-1.256 0.37,-0.987 0.516,-0.09 2.49,-2.19 0.646,1.13 0.88,1.132 2.513,3.016 1.006,2.387 0.252,1.83 -1.645,2.445 -0.054,1.19 0.747,1.079 2.307,1.269 0.818,0.296 1.363,-0.555 1.044,-0.556 3.072,-2.339 1.529,-1.405 0.803,-0.867 1.201,-0.124 2.387,0.503 2.263,1.507 3.896,1.509 3.519,1.256 2.136,1.886 1.226,-0.865 0.103,0.059 1.36,0.133 1.433,-0.453 1.408,0.497 4.399,0.126 2.333,0.713 0.868,0.771 0.83,2.567 0.189,1.669 2.716,6.21 0.283,1.32 3.392,3.775 3.409,3.34 2.296,-0.031 -0.902,0.841 -2.491,2.766 -3.518,5.083 1.467,5.183 1.524,2.099 0.243,7.052 -0.93,-0.13 -2.579,3.142 -0.849,6.815 0.849,3.602 0.598,1.131 0.741,0.74 0.415,0.752 0.439,1.332 -3.451,2.724 -0.913,0.544 -0.631,-1.362 -3.063,-1.16 -1.277,0.299 -0.176,0.038 -1.183,-1.405 -1.038,-1.885 -1.13,-0.849 -1.509,-0.471 -1.749,-0.778 -0.83,-2.438 -2.064,-3.824 -4.783,-3.823 -1.009,-0.752 -0.818,-0.502 -0.504,0.858 0.061,0.931 -0.746,1.091 -0.283,3.393 -0.848,1.508 -2.639,3.3 -1.98,1.507 -2.356,1.886 -0.785,0.735 -3.864,1.193 -1.512,0.639 -0.777,0.545 -0.961,0.912 -1.838,2.067 -2.378,3.014 -1.028,2.008 -0.438,1.659 -1.491,2.376 -2.229,3.282 -1.103,1.505 -0.438,0.296 -0.261,-0.165 -1.911,0.359 -3.332,1.499 -3.499,-2.332 -3.832,-3.166 -2.166,-1.666 -0.728,-1.578 -3.967,-1.66 z" 
                fill="rgb(151, 144, 238)" 
                stroke="white" 
                stroke-width=".7px"
                title="Piura" 
                id="PE-PIU" 
            />
        </svg>