<svg xmlns="http://www.w3.org/2000/svg" viewBox="437.1079999999999 550.9279999999999 97.00400000000019 192.62299999999993" width="97.00400000000019" height="192.62299999999993">
            <path 
                d="m 500.119,685.159 1.767,0.936 4.565,0.913 0.61,1.826 -2.131,2.435 -1.218,3.348 2.435,2.435 3.957,-1.826 2.13,0 2.131,3.348 3.349,0.609 3.957,-1.522 1.826,-3.348 2.171,-1.336 0.365,0.268 1.521,1.901 0.463,0.007 0.473,1.22 1.117,2.457 0,4.023 -0.284,1.613 -0.086,0.037 -1.849,2.359 -0.309,3.3 0.4,2.699 0.756,0.918 0.082,1.224 -1.635,1.185 -2.43,1.234 -3.6,2.944 -5.495,6.57 -2.828,5.618 -0.83,0.857 -2.519,1.102 -2.823,1.457 -2.615,2.435 -1.114,1.332 -1.592,3.222 -0.887,0.27 -1.517,0.322 -0.877,-0.037 -4.448,-2.271 -3.627,-1.882 -4.055,-2.954 -0.724,-0.807 -4.387,-7.445 1.256,-1.508 0.224,-3.575 0.157,-3.307 3.529,-3.399 -1.175,-1.282 -2.492,-0.427 -1.303,-0.548 -2.958,-2.846 -4.536,-4.843 -0.397,-1.118 -1.507,-4.582 0.06,-1.203 0.225,-0.983 -0.426,-3.89 -1.915,-5.435 -0.83,-1.091 -6.445,-1.717 -0.271,0.078 -0.718,-0.719 -2.682,-0.224 -3.351,0.224 -2.457,0.433 -0.197,-0.233 -1.067,-0.681 -1.164,0.163 0.417,-1.431 0.237,-1.269 -0.492,-0.998 -1.657,-1.241 -2.249,-3.748 0.316,-1.733 1.112,-1.784 0.19,-0.972 -0.309,-0.901 -0.568,-0.667 -0.836,-0.673 -1.056,-0.77 -0.865,-0.942 -1.236,-1.676 -0.52,-4.464 0.083,-3.569 -0.224,-1.98 2.009,-1.097 0.267,-3.655 -0.017,-0.891 -0.143,-1.355 -0.267,-0.928 -0.759,-1.081 -0.414,-0.781 -0.309,-4.752 0.249,-0.903 0.854,-1.269 0.572,-1.106 -0.738,-4.564 -1.98,-2.967 -1.127,-0.286 -1.031,-1.133 -1.299,-2.029 0.006,-0.182 -0.982,-0.982 1.118,-1.787 2.904,-2.012 1.117,-2.904 0.67,-4.022 2.458,-4.021 1.341,-3.352 0.67,-4.021 0.671,-4.245 -0.895,-4.023 0.224,-2.68 0.447,-3.128 3.575,-1.565 3.128,-3.574 1.34,-2.458 3.128,-3.799 3.575,-4.021 4.245,-4.692 0.224,-4.692 0.427,-5.979 2.701,-0.5 6.256,0.669 5.586,2.458 4.915,2.682 8.6,1.525 0.914,0.446 4.785,-0.407 4.915,-1.118 2.458,-2.68 2.458,-1.117 4.468,-1.789 3.352,-0.893 3.575,-1.787 4.245,-1.565 3.281,-2.088 3.585,-2.596 -0.543,4.342 0.272,4.614 0.814,1.9 -1.357,5.971 -2.194,3.615 0.016,2.859 -0.077,2.356 -0.765,2.588 -1.875,3.313 -1.694,2.87 2.075,3.639 0.533,2.111 1.133,5.541 0.606,0.911 1.007,0.801 0.785,0.547 -0.364,3.454 0.814,2.986 -2.985,1.085 -2.171,1.629 -0.815,5.157 -2.714,3.257 -2.715,2.985 -3.256,4.071 -2.714,3.8 -1.9,4.071 0.131,1.443 -0.342,0.342 -0.708,7.205 3.688,5.036 4.15,3.478 1.15,1.283 1.44,1.751 -0.258,1.179 -1.14,0.391 -1.116,-0.073 -3.087,2.871 -2.741,4.924 -0.264,0.566 -1.544,-0.662 -1.826,-1.522 -4.262,-0.304 -1.522,-3.044 -2.435,-0.609 -3.044,0 -0.913,-3.652 -3.348,-2.739 -3.044,-0.913 -3.652,-0.914 -3.044,-0.914 -3.349,0 -3.347,0.305 -0.61,1.826 0.61,1.826 2.739,0 2.739,0.305 3.652,-0.305 1.827,0.914 0.609,4.261 -2.436,1.522 -1.521,1.522 0.608,3.044 2.131,1.217 0,3.957 -1.826,0.305 -0.913,2.739 -2.131,0.913 -3.044,1.218 0.913,3.348 0.61,3.348 0.913,2.739 2.434,-0.303 1.826,0 2.131,1.826 1.523,0.608 1.217,-2.434 1.217,-0.61 0.913,2.436 1.218,2.434 3.653,0 z" 
                fill="rgb(151, 144, 238)" 
                stroke="white" 
                stroke-width=".7px"
                title="Puno" 
                id="PE-PUN" 
            />
        </svg>