<svg xmlns="http://www.w3.org/2000/svg" viewBox="153.834 227.09400000000008 100.703 143.22299999999976" width="100.703" height="143.22299999999976">
            <path 
                d="m 183.56,239.993 2.075,0.059 1.66,-0.065 1.186,-0.118 2.146,0.68 4.34,2.983 0.688,1.232 0.652,1.183 0.889,2.534 0.338,1.569 0.961,1.919 0.841,1.272 2.128,1.487 2.109,0.869 2.373,-0.358 1.503,-0.681 1.514,-1.047 0.834,-0.671 3.857,0.386 4.126,3.751 3,3.75 3.001,1.501 4.126,-2.626 2.415,-1.673 1.912,-0.152 3.154,-0.022 1.245,0.166 3.855,0.811 2.797,-2.13 5.251,-1.126 3.75,1.876 2.251,3 -0.375,3.751 -1.87,2.181 0.414,0.938 0.148,1.292 -0.083,1.126 -0.403,2.038 -0.32,2.099 -0.261,3.035 -0.189,2.537 -0.048,1.447 0.118,1.683 -0.71,3.334 -0.392,1.198 -0.05,0.079 -1.605,0.642 -3.751,0.75 -4.743,0.198 -0.451,-0.566 -1.127,-0.854 -1.138,-0.831 -1.175,-0.474 -1.255,-0.356 -1.246,-0.285 -1.755,0.102 -0.795,0.249 -2.068,2.067 1.125,9.002 0,3.751 -4.14,2.957 -0.241,0.954 -0.118,0.714 -2.801,0.933 -0.157,2.684 0,3.256 1.221,3.664 3.46,3.461 1.018,6.921 1.222,4.071 2.646,3.461 0.73,2.556 2.948,0 1.001,2.124 0.485,0.9 -2.398,2.227 -1.875,3.375 -0.75,5.626 0.271,0.427 -4.022,1.449 -3.751,3.75 1.125,9.377 0.8,3.199 -0.734,1.185 -0.754,0.561 -2.158,-0.259 -1.11,-1.49 -2.757,-6.947 -1.637,-2.81 -1.36,-0.486 -1.946,-1.575 -0.076,0.506 -1.77,-0.885 -1.501,1.875 -1.5,3.001 -1.875,-1.126 -3.001,-1.125 -4.126,1.5 -3,-0.75 -3.751,0.75 -1.651,0.184 0.204,0.774 -1.701,0 -2.681,0 -1.705,0 -0.388,-0.991 -0.812,-0.529 -1.251,0.059 -0.519,0.227 -2.249,-3.474 1.876,-1.876 3.375,-1.125 4.126,-0.75 1.232,-0.308 0.02,-0.809 -0.3,-1.422 0.924,-0.462 -1.126,-4.126 -1.5,-2.25 -2.25,-3.376 -4.501,-0.75 -2.626,-1.875 -3.375,0.375 -4.501,1.875 -0.521,0 -0.508,-3.214 -0.67,-4.245 -1.564,-1.341 -1.638,-0.082 -0.083,-0.296 -1.854,-0.292 -0.447,-4.469 -0.223,-3.798 -0.67,-2.458 -0.267,-3.861 -0.426,-0.203 -1.404,-0.909 -0.671,-1.384 -1.137,-3.017 -0.179,-2.238 1.121,-2.215 0.244,-1.211 -0.653,-1.211 -3.795,-4.594 -1.761,-3.092 -0.645,-0.397 -0.665,-0.76 -0.521,-1.542 0.071,-1.59 0.723,-2.065 0.688,-1.477 0.558,-4.255 2.269,-1.92 2.251,-0.375 4.501,0.375 3,2.25 2.251,-1.125 2.25,-2.625 0,-1.854 0.374,-0.214 0.451,-0.972 0.421,-1.677 0.355,-1.21 0.682,-1.357 0.83,-1.008 1.008,-0.758 1.577,-0.978 1.548,-1.268 0.919,-1.743 -0.688,-2.778 -0.814,-1.979 -0.524,-1.232 -1.06,-1.721 -2.093,-2.191 -3.826,-1.347 -1.661,-0.41 -1.872,-0.436 -1.935,-0.394 -1.19,-0.3 -1.128,-0.488 -1.767,-1.977 -4.434,-8.466 -0.629,-1.362 -0.586,-1.538 0.385,-8.959 0.237,-1.243 0.498,-0.858 0.961,-1.272 1.066,-0.887 0.534,-0.26 0.415,0.799 2.431,1.804 1.34,0.816 2.502,0.805 2.668,0.846 2.087,0.976 1.292,1.036 0.901,1.414 0.819,0.947 1.766,1.952 1.127,0.581 1.244,0.354 1.198,0.297 z" 
                fill="rgb(151, 144, 238)" 
                stroke="white" 
                stroke-width=".7px"
                title="San Martín" 
                id="PE-SAM" 
            />
        </svg>