<svg xmlns="http://www.w3.org/2000/svg" viewBox="12.858000000000008 145.775 36.516000000000005 31.881" width="36.516000000000005" height="31.881">
            <path 
                d="m 44.087,167.906 -1.404,-0.618 -1.328,-0.042 -1.927,0.308 -1.548,2.762 0.02,0.216 -0.434,0.275 -0.902,0.708 -3.9,3.43 -0.516,0.09 -0.37,0.987 -3.393,1.256 -6.158,0.378 -5.656,0 -2.765,-2.262 -0.948,-2.845 1.167,-0.767 1.73,-3.408 1.346,-1.883 2.045,-1.452 2.473,-1.479 0.8,-0.965 0.331,-1.794 0.416,-1.358 0.593,-1.216 0.652,-0.808 4.067,-2.639 3.059,-1.593 2.051,-1.15 1.91,-2.543 0.414,-0.791 0.662,-1.337 1.242,-0.511 2.496,-0.041 1.055,-0.058 0.937,-0.236 0.836,-0.62 0.088,-0.125 2.124,0.649 1.508,0.503 0.628,2.765 0.754,2.765 0.88,2.639 0.252,4.273 -0.755,3.142 -0.879,2.388 -1.76,1.885 z" 
                fill="rgb(151, 144, 238)" 
                stroke="white" 
                stroke-width=".7px"
                title="Tumbes" 
                id="PE-TUM" 
            />
        </svg>