<svg xmlns="http://www.w3.org/2000/svg" viewBox="233.4489999999998 308.72400000000005 228.46200000000002 177.8049999999999" width="228.46200000000002" height="177.8049999999999">
            <path 
                d="m 304.503,310.958 4.246,0.447 2.904,2.458 2.905,2.235 0.085,1.36 0.125,0.068 0.789,0.6 0.406,0.473 -0.641,0.069 -0.103,1.024 1.299,0.858 1.777,1.486 2.857,2.829 0.581,1.039 0.416,0.761 0.883,0.612 2.97,1.082 1.186,0.321 0.748,0.511 0.55,1.154 -0.189,1.834 -1.16,1.429 -2.204,-0.286 0.215,3.218 0.667,0.815 1.984,0.72 2.484,1.403 2.39,4.485 1.665,5.475 0.652,2.297 0.35,2.125 2.33,1.983 3.154,2.226 2.52,6.51 3.089,3.083 1.381,0.23 1.085,0.279 1.352,0.602 0.735,0.602 0.605,0.894 0.45,1.168 0.392,1.216 0.463,0.727 2.694,4.074 2.264,1.198 1.853,2.496 0.48,2.463 0.13,0.889 -0.046,1.014 -0.262,1.246 -0.474,1.026 -2.442,3.354 -4.091,3.963 -1.648,1.336 -1.062,0.883 -0.759,1.538 9.386,0.433 5.074,0.06 0.902,-0.025 4.731,0.061 5.253,1.421 8.738,1.612 1.305,0.388 2.994,1.744 2.093,5.322 -0.22,1.533 -0.498,1.634 0.383,1.231 1.443,0.801 1.975,1.103 0.663,1.347 0.597,2.252 -0.75,2.903 -0.748,2.069 1.791,0.096 3.913,0 1.791,-0.012 1.327,0 2.088,0 12.307,0 7.802,-0.012 3.89,-0.011 3.058,-0.366 4.951,-2.72 0.918,-1.819 0.87,-1.127 5.318,-1.849 1.221,-1.038 0.684,-1.413 3.73,-4.04 1.636,-1.052 2.751,-1.72 5.798,-4.934 2.336,-2.149 0.877,-0.317 -0.489,2.301 0.099,2.219 -0.582,4 -0.19,6.444 -0.74,0.748 -0.552,1.171 -0.143,3.007 0.012,2.268 -0.005,0.727 -6.653,10.561 -2.436,1.03 0,0.123 -3.263,3.121 -5.089,5.293 -4.682,1.831 -2.849,2.851 -1.426,1.832 -1.425,4.274 -0.071,2.014 -0.244,0.051 -0.295,3.839 -0.815,2.442 -2.646,2.443 -1.832,1.832 -11.603,0.407 -4.658,-0.249 -0.212,0.089 -1.28,0.21 -2.964,0.234 -1.198,0 -1.126,0 -1.636,-0.265 -0.207,-0.176 -2.8,0.361 -3.147,-0.492 0.013,0.018 -2.159,0.27 -0.406,2.036 1.628,1.425 -0.611,2.442 -1.017,3.664 -1.832,2.647 -1.297,1.111 -0.96,-0.146 -4.831,1.67 -2.372,2.151 -2.988,1.947 -1.678,0.487 -2.122,-0.559 -3,-1.31 -5.941,-0.673 -3.367,-1.815 -1.15,-0.949 -1.228,-2.901 -3.252,0.607 -0.916,0.751 -1.079,0.39 -1.387,0.409 -1.53,0.264 -3.082,0.48 -1.044,0.144 -6.717,0.796 -0.916,-0.373 -0.081,-0.054 0.364,-3.988 -0.895,-6.479 -1.867,-1.467 0.02,-0.107 -2.398,-0.661 -0.446,-3.798 -0.102,-2.947 -0.177,-0.28 -1.571,-2.045 -1.5,-1.193 -5.466,-1.662 -0.966,1.824 -0.89,1.775 -0.366,0.516 0.089,1.889 0,2.235 -0.223,4.021 -0.894,2.904 -2.01,1.118 -4.246,-0.894 -1.117,-3.351 -0.481,-2.729 -3.558,0.541 -1.533,0.437 -0.907,-0.26 -6.033,0.447 -4.468,0 -2.993,-1.069 -0.216,-0.635 -0.367,-1.896 -0.526,-2.765 1.699,-0.773 2.906,-2.506 0.533,-0.709 1.329,-1.546 2.976,-2.949 2.43,-1.258 1.304,-0.42 1.388,-0.504 0.202,-0.91 -0.137,-0.171 1.314,-0.658 0.223,-2.01 -0.671,-1.787 -1.117,-0.67 -2.011,-2.011 -1.117,-2.905 0.447,-2.905 1.118,-2.458 0.223,-3.351 -2.905,-0.446 -2.011,-1.565 -2.681,-3.574 -0.223,-3.799 -0.894,-3.352 -1.66,-0.76 -0.823,-2.288 -0.23,-0.614 0.255,-3.711 -1.34,-2.68 -0.894,-2.906 -2.234,-1.563 -1.787,-2.458 -0.224,-2.457 0.894,-2.458 1.787,-2.234 -0.893,-3.352 -1.788,-2.234 0,-4.469 -0.759,-3.252 0.68,-3.23 2.514,-4.889 2.04,-1.324 0.129,-1.106 -0.284,-1.442 -0.635,-1.457 -1.055,-1.028 -0.789,-0.411 -1.636,-0.202 -2.371,-0.167 -1.447,0.108 -0.96,0.238 -3.459,1.411 -0.432,0.297 -0.92,3.495 -1.564,4.246 -0.223,2.904 -1.118,2.011 -2.01,0 -1.118,-2.234 -3.128,0.446 -2.693,0.514 -0.34,0.478 -0.541,3.924 -2.235,2.681 0.224,4.469 -1.788,1.787 -2.234,2.011 -3.352,0.894 -2.416,-0.58 -4.162,2.171 -1.992,1.587 -0.811,0.425 -2.237,-0.699 -1.787,-2.457 -1.787,-3.128 -2.235,-4.022 -0.67,-1.341 -0.791,-0.692 -0.212,-1.19 -0.646,-1.431 -0.705,-0.763 -2.372,-5.295 -1.311,-4.901 0.675,-4.049 0.138,-3.463 1.518,-0.662 0.759,-0.62 0.782,-1 2.609,-2.776 5.632,-4.9 1.862,0 1.364,0.827 0.984,0.882 1.008,0.952 0.127,0.108 2.294,-0.574 1.478,-1.149 0,-2.595 0.223,-2.681 0,-3.798 0.986,-1.882 2.67,-2.011 2.763,0.476 1.428,0.16 1.09,-1.211 2.012,-1.788 2.233,-2.681 4.916,0.447 1.282,0.769 0.522,-0.155 0.43,0.503 4.469,0.447 5.586,-0.447 2.458,-1.341 1.066,-2.489 0.752,-0.422 1.34,-0.939 0.759,-1.124 0.213,-1.1 0.154,-3.769 -0.652,-8.469 -0.296,-1.776 -0.363,-1.929 0.825,-1.443 1.564,-1.563 1.715,-2.573 0.118,0.078 0.117,0.096 0.061,-0.283 0.893,-1.564 1.564,-0.447 2.235,0.224 1.563,1.787 z" 
                fill="rgb(151, 144, 238)" 
                stroke="white" 
                stroke-width=".7px"
                title="Ucayali" 
                id="PE-UCA" 
            />
        </svg>