<svg xmlns="http://www.w3.org/2000/svg" viewBox="141.2933499999999 15.188300000000005 42.210000000000065 39.910000000000004" width="42.210000000000065" height="39.910000000000004">
            <path 
                d="m 162.67335,53.4183 0,0 -0.75,0.61 -0.64,-0.95 0.53,-0.45 0.33,-0.43 0.53,0.82 0,0.4 z m 11.47,1.18 0,0 -0.3,0.5 -0.32,-0.32 0.15,-4.88 -0.18,-0.65 -0.04,-0.4 0.27,-0.07 0.35,0.33 0.27,0.58 0.1,0.31 0.27,0.93 0.22,1.79 -0.42,1.36 -0.37,0.52 z m -1.12,-38.88 0,0 1.23,0.55 0.85,-0.45 0.39,-0.35 0.49,-0.13 0.57,0.16 0.72,0.99 0.1,0.71 -0.61,0.91 -1.43,1.21 -0.06,0.17 0.23,0.34 0.53,0.4 2.63,1.13 0.18,-0.02 0.16,-0.08 0.25,0.19 0.16,0.19 0.65,2.59 -0.1,2.69 0,2.06 -0.88,1.91 -0.58,2.53 0,2.86 1.46,3.01 1.46,2.06 0.9,0.53 0.94,0.59 0.24,0.98 -0.26,1.64 -4.71,0.63 -3.77,-0.93 -0.83,0.17 -1.39,0.72 -0.7,0.17 -3.33,-0.72 -2.54,0.6 -7.55,-2.03 -1.53,0.03 -1.49,0.77 -0.73,1.26 -0.24,1.5 -0.02,1.53 -0.44,1.4 -1.05,0.72 -0.66,0.22 0,0 -0.03,-0.31 -0.21,-0.45 -0.56,-0.84 -2.37,-2.68 -0.32,-0.61 -1.41,-3.3 -0.54,-0.96 -0.46,-0.63 -0.4,-0.31 -0.66,-0.37 -0.25,-0.19 -0.87,-1.17 -1.18,-2.04 -0.36,-0.49 -0.29,-0.27 -0.79,-0.36 -0.16,-0.12 -0.11,-0.14 0.1,-0.15 0.33,-0.14 1.74,-0.2 0.57,-0.21 0.37,-0.32 1.33,-1.58 0.09,-0.69 -0.32,-1.89 -1.81,-3.51 0.26,-1.54 0,-0.36 -0.33,-2.8 0.07,-0.43 0,0 0.14,-0.1 0.77,-1.92 1.01,-1.66 2.32,-0.05 2.56,0.41 1.72,-0.29 1.57,-0.57 6.48,0.31 6.64,-0.88 1.71,-0.71 1.47,0.1 2.63,-1.52 0,0 0.31,0.53 z" 
                fill="rgb(151, 144, 238)" 
                stroke="white" 
                stroke-width=".7px"
                title="Artemisa" 
                id="CU-15" 
            />
        </svg>