<svg xmlns="http://www.w3.org/2000/svg" viewBox="450.44335000000007 64.54829999999997 122.40999999999968 147.54000000000002" width="122.40999999999968" height="147.54000000000002">
            <path 
                d="m 469.89335,208.7183 0,0 1.21,0.57 0.2,-1.19 0.66,-0.24 0.84,0.46 0.75,0.97 0.5,1.5 -0.16,1.05 -0.76,0.25 -1.31,-0.95 -0.84,-0.46 -1.06,-0.31 -0.92,-0.45 -0.94,-2.08 -1.29,-0.92 -2.55,-1.28 1.02,-0.8 1.12,0.26 1.05,0.8 0.77,0.79 1.05,1.43 0.66,0.6 z m -13.9,-7.3 0,0 0.02,0.71 -0.53,0.36 -0.59,0.06 -0.51,-0.18 -0.38,-0.38 -0.38,-0.26 -0.12,-0.33 0.31,-0.21 0.35,0.18 1.73,0.33 -0.06,-0.26 -0.04,-0.12 -0.03,-0.2 0.23,0.3 z m -3.77,0.35 0,0 -1.09,0.06 -0.69,-0.47 0.1,-0.41 0.23,-0.09 0.56,0.13 1,0.34 -0.11,0.44 z m 10.93,-5.82 0,0 0.14,0.25 0.76,-0.4 0.72,-0.05 1.41,0.45 -0.93,1.09 -3.34,0.8 -1.15,0.77 -1.14,-0.62 -1.26,-0.38 0.87,-0.66 2.5,-0.56 1.03,-0.92 0.38,0.16 0.01,0.07 z m 29.57,-104.33 0,0 0.68,0.74 0.95,2.03 1.36,1.3 0.39,0.52 0.47,1.41 1.29,2.28 0.57,0.75 0.85,0.3 0.86,0.61 3.29,3.39 0.24,0.64 1.21,2.24 0.5,0.54 0.86,-0.13 0.41,-0.77 0.34,-5.76 0.39,-0.76 0.79,-0.34 1.92,0.31 1.15,0.03 -0.63,0.8 -2.29,0.41 -0.5,0.66 0.1,1.38 0.29,1.03 0.46,0.82 0.62,0.74 0.82,0.78 0.62,0.29 1.76,-0.01 0.77,0.51 0.54,1.19 0.31,1.33 0.11,0.91 0.26,0.94 0.66,0.67 0.95,0.46 2.02,0.65 0.4,0.07 1.06,-0.51 0.6,0.33 0.58,0.53 0.61,0.28 4.35,-0.66 1.25,0.14 1.2,0.56 3.19,2.06 0.04,-1.06 0.56,-0.54 1.85,-0.5 0.11,0.76 0.42,0.39 0.65,0.09 0.82,-0.14 -0.15,-0.29 -0.19,-0.55 -0.15,-0.26 1,0.33 0.96,0.79 1.45,1.55 -1.03,0.14 -0.71,-0.43 -0.45,-0.03 -0.25,1.33 0.17,1.41 1.05,2.4 0.25,1.23 0.38,0.79 0.91,0.3 2.17,0.28 1.7,0.91 0.48,0.13 0.68,-0.16 0.36,-0.36 0.2,-0.36 0.2,-0.16 -0.02,-0.42 -0.43,-0.92 -0.68,-0.93 -1.86,-0.84 -0.77,-1.03 -0.88,-2.27 -0.4,-1.79 -0.33,-0.53 -0.5,-0.29 -1.41,-0.59 -0.29,-0.22 -0.09,-0.81 -0.37,-1.05 -0.74,-0.57 -1.24,0.64 -1.02,-1.1 -0.97,0.9 -1.02,-0.64 -1.92,-2.41 -2.69,-2.32 -0.76,-1.19 -0.49,-0.13 -0.99,0.48 0.61,-1.32 1.14,-1.39 1.31,-0.89 1.11,0.18 2.49,2.11 0.27,0.63 0.46,1.95 0.25,0.4 7.6,5.55 1.45,0.72 3.65,1.14 1.02,0.73 1.01,1.04 2.42,1.99 0.97,0.36 4.21,3.2 1.05,0.54 1,0.32 1.06,0 1.28,-0.34 -0.55,1.46 0.39,0.93 0.72,0.67 0.42,0.67 -0.25,1.53 -1.72,1.86 -0.47,1.34 -0.63,-0.42 -1.23,-1.39 -0.36,-0.29 -4.6,-2.15 -1.16,-0.34 -1.34,-0.14 0.03,0.14 -0.17,0.28 -0.24,0.27 -0.11,0.07 -0.16,0.28 -0.36,-0.11 -0.42,-0.26 -0.64,-0.29 -0.77,-0.71 -0.63,-0.24 -1.64,0.14 -0.58,0.76 0.24,0.84 0.81,0.41 0.83,0.19 0.59,0.46 0.55,0.52 0.67,0.4 0.71,0.16 2,-0.16 1.41,0.59 0.36,1.27 -0.51,1.28 -1.26,0.58 -0.2,0.64 0.45,1.38 0.63,1.33 0.32,0.52 0.81,0.16 1.6,-0.27 1.13,0.13 -0.57,1.36 0.71,-0.19 1.78,-0.9 0.06,-0.09 0.68,-0.4 0.68,-0.09 0.63,-1.16 0.88,-4.09 1.81,-3.44 0.58,-0.76 1.36,-0.24 1.31,0.8 7.68,9.47 1.13,1.04 0.14,0.1 0,0 -0.17,0.15 -0.58,0.57 -1.14,0.46 -2.04,1.6 -0.9,0.42 -1.94,0.49 -1.28,0.06 -1.67,-0.41 -1.41,-0.17 -1.14,3.52 -0.59,0.71 -0.44,1 -0.06,0.72 0.32,1.26 0.35,0.45 0.32,0.22 2.74,-0.01 0.41,0.11 0.15,0.27 -0.11,0.28 -4.04,3.75 -0.37,0.9 -0.05,0.52 0.32,4.96 -2.61,4.34 -0.47,0.56 -0.92,0.81 -0.46,0.15 -2.1,0.45 -0.35,0.15 -0.67,0.43 -0.85,0.4 -1.01,1.42 -2.06,4.97 -0.59,0.3 -0.59,-0.17 -0.42,-0.22 -0.72,-0.69 -0.34,-0.25 -0.33,-0.08 -0.43,0.23 -0.48,0.38 -0.73,1.6 -0.72,-0.75 -0.23,-0.51 0.01,-0.24 0.05,-0.22 0.48,-0.72 0.06,-0.21 -0.03,-0.17 -0.14,-0.2 -0.35,-0.11 -0.61,-0.12 -1.19,-0.09 -1.25,-0.32 -0.17,-0.16 -0.06,-0.19 0.04,-0.46 -0.06,-0.35 -0.15,-0.35 -0.62,-0.96 -0.21,-0.24 -0.31,-0.41 -0.11,-0.19 -0.09,-0.19 -0.03,-0.16 -0.11,0.01 -0.24,0.17 -0.5,0.6 -1.03,0.51 -0.26,0.18 -0.13,0.26 0.01,0.44 0.05,0.33 0.16,0.58 0,0.11 -0.3,0.67 -0.07,0.53 -0.23,0.53 -0.47,0.61 -1.3,0.26 -0.96,0.1 -0.92,-0.07 -0.19,0.01 -0.18,0.25 -0.2,1.12 -1.04,0.15 -1.45,0.43 -0.72,0.4 -0.38,1.03 0.01,0.97 -0.14,0.24 -0.23,0.19 -0.54,-0.07 -0.37,-0.09 -0.82,-0.05 -0.39,-0.07 -0.27,-0.23 -0.36,-0.49 -0.28,-0.48 -0.4,-0.53 -0.39,-0.17 -0.48,0.08 -0.55,0.38 0,0.61 0.12,0.5 0.06,0.48 -0.05,0.44 -0.3,1.24 -0.07,0.6 -0.01,0.54 0.04,0.44 -0.57,0.41 -1.08,0.44 -4.36,0.85 -1.69,-0.12 -3.72,5.27 -0.95,6.25 -0.01,0.01 -0.69,-0.21 -2.62,-0.3 -1.56,0.38 -1.07,0.83 -0.9,0.88 -1.09,0.53 -4.65,0.13 -2.44,-0.63 -0.77,-1.64 -0.53,0 -0.44,1.09 -2.35,-2.79 -0.85,-0.39 -1.56,-0.32 -0.86,-0.83 -1.27,-2.46 -0.75,-0.87 -1.32,-1.21 -1.45,-0.91 -1.14,0.04 -0.77,0.43 -0.26,-0.39 -0.04,-0.72 -0.13,-0.55 -0.86,-1.04 -0.45,-0.73 -0.2,-0.65 -0.52,-1.11 -5.05,-3.69 -0.98,-0.28 -2.51,0.14 -0.89,-0.52 -0.79,-1.16 -1.07,-2.04 -0.88,-0.87 -2.63,-2.03 -0.64,-0.08 -0.49,-0.71 -0.44,-2.62 -0.25,-4.99 -0.56,-2.15 -1.09,-2.16 -0.76,-2.17 0.46,-2.21 0.65,0.77 0.8,0.12 0.67,-0.52 0.28,-1.1 -0.53,-0.79 -2.32,-0.78 -0.53,-0.56 -0.15,-1.34 -0.67,-2.49 -0.15,-1.46 -0.31,-1.3 -1.34,-2.34 -0.31,-1.1 -0.43,-2.58 -1.1,-2.45 -1.46,-2.11 -0.96,-0.98 0.01,0 2.62,-1.16 3.73,-2.35 0.49,-0.44 0.24,-0.31 0.84,-0.77 0.8,-0.49 1.62,-0.75 1.23,-0.38 0.18,0.05 0.16,0.12 0.36,0.46 0.14,0.2 0.14,0.19 0.18,0.09 0.29,0 0.4,-0.44 0.21,-0.33 0.82,-2.26 0.71,-1.89 0.64,-0.33 0.39,0.08 1.66,0.11 0.96,0.18 1.34,-0.05 0.52,-0.09 0.2,-0.2 -0.14,-0.16 -0.32,-0.21 -0.23,-0.36 -0.11,-0.55 0.86,-1.3 0.35,-0.42 0.45,-0.72 0.24,-0.15 0.38,-0.05 0.17,-0.11 0.13,-0.29 0.05,-0.47 -0.02,-0.61 -0.07,-0.47 -0.37,-1.23 -0.23,-1.44 0.23,-0.43 0.44,-0.63 1.07,-1.06 0.74,-0.45 0.6,-0.23 0.31,0.03 0.19,0.08 0.12,0.16 0.07,0.26 0.01,0.46 0.1,0.37 0.21,0.4 0.44,0.44 0.23,0.42 1.09,1.51 0.75,0.35 0.98,0.04 2.78,-0.38 0.41,-0.15 -0.03,-0.26 -0.3,-1.57 0.01,-0.31 0.11,-0.22 0.23,-0.21 1.02,-0.55 0.9,-0.65 -1.44,-2.44 -1.21,-1.27 -3.51,-2.96 -0.26,-0.27 -0.44,-1.35 0.83,-2.24 0.38,-0.22 0.49,-0.25 0.49,-0.02 0.43,-0.07 1.16,-0.37 1.11,-0.03 0.88,-0.18 0.62,-0.32 0.79,-0.57 1.73,-1.82 1.27,-1.09 0.84,-0.47 0.96,-0.35 0.4,-0.28 0.26,-0.36 0.26,-0.82 0.07,-0.45 -0.01,-0.44 -0.15,-0.41 -0.15,-0.29 -0.61,-0.39 0.12,-0.68 0,0 0.14,0.04 1.06,-0.37 z m 12.66,0.85 0,0 1.17,0.03 0.81,-0.41 0.69,-0.6 0.79,-0.55 1.23,-0.36 1,0.07 0.87,0.35 0.81,0.47 0.27,0.32 0.67,1.04 0.3,0.22 0.62,-0.16 1.03,-0.73 0.53,-0.17 0.78,0.36 2.3,1.51 0.83,0.29 0.92,-0.51 0.59,-0.65 0.7,-0.07 1.25,1.23 0.55,0.94 0.15,0.95 -0.19,1.05 -1.54,3.47 0.22,0.75 0.81,1.27 -1.1,0.04 -0.85,0.33 -1.51,1.16 0.34,-1.38 -0.46,-0.63 -0.77,0.24 -0.58,1.25 0.19,0.23 0.31,0.51 0.05,0.55 -0.55,0.33 -0.41,-0.1 -0.27,-0.37 -0.23,-0.47 -0.88,-1.21 -0.35,-0.73 -0.44,-0.69 -0.88,-0.69 -1.02,0.49 -1.54,-0.33 -1.53,-0.73 -0.99,-0.74 -0.19,-0.67 0.29,-0.82 0.42,-0.86 0.21,-0.81 -0.34,-0.56 -0.78,-0.37 -1.37,-0.39 0.36,0.66 0.14,0.67 -0.11,0.66 -0.39,0.64 -0.49,-1.58 -0.44,0 -0.72,1.1 -1.17,0.32 -1.09,-0.47 -0.49,-1.23 -0.61,-0.92 -1.24,-1.01 -0.9,-1.28 0.36,-1.78 -0.53,-0.52 1.38,0.04 0.99,0.64 0.91,0.81 1.11,0.56 z m 9.32,-7.9 0,0 -1.71,0.04 -1.82,-1.91 -2.86,-4.47 0.54,-1.03 -0.8,-1.17 -1.27,-1 -0.87,-0.54 1.76,-0.28 1.56,1.28 1.13,1.91 0.91,3.32 1.11,1.29 1.3,1.19 1.02,1.37 z m -16.43,-4.51 0,0 0.63,0.27 1.77,-0.26 0.85,0.28 0.49,0.69 0.33,0.79 0.51,0.57 1.06,0.11 -0.93,-0.58 0.29,-0.49 0.31,-0.42 0.37,-0.36 0.41,-0.31 0.54,0.93 0.71,0.47 0.7,-0.11 0.54,-0.81 0.57,1.32 -0.78,0.57 -1.3,0.3 -0.98,0.49 0.83,0.22 0.61,0.46 0.52,0.51 0.53,0.39 0.75,0.26 1.48,0.31 0.74,0.49 -1.61,3.23 -1.07,1.3 -0.78,-0.8 -0.33,0.15 -0.82,0.23 -0.32,0.16 -0.23,-0.6 -0.19,-0.32 -0.56,-0.67 -0.3,-1.55 -1.51,-0.54 -1.2,0.62 0.62,1.96 -0.92,-0.42 -2.52,-1.51 -0.51,-0.43 -0.49,-1.15 -2.28,-1.63 -0.7,-1.2 1.17,-0.43 0.93,-1 0.61,-1.27 0.22,-1.25 0.11,-2.81 -0.25,-0.87 -0.79,-1.33 1.08,0.17 1.11,0.37 0.88,0.69 0.35,1.09 -0.4,0.71 -0.78,0.78 -0.49,0.96 0.42,1.27 z m -15.03,-15.51 0,0 0.57,0.97 1.42,-0.8 1.83,0.47 1.8,1.18 1.34,1.3 0.68,0.96 0.63,1.15 0.46,1.21 0.28,2.56 0.33,0.81 1.52,1.72 0.61,0.01 0.99,0.39 0.89,0.13 -1.19,1.18 -1.72,-0.47 -3.48,-2.3 -1.56,-0.31 -1.73,0 -1.81,-0.37 -1.78,-1.43 1.51,-0.96 -0.68,-1.29 -1.45,-0.75 -0.81,0.65 -0.09,0.72 -0.27,0.8 -0.48,0.5 -0.66,-0.2 -0.45,-0.82 -0.03,-0.96 0.32,-0.61 0.64,0.28 0.02,-1.35 -1.14,-1.53 -1.67,-0.74 -1.6,1.02 -0.37,-0.4 -0.32,-0.09 -0.34,0.02 -0.44,-0.1 0.99,-1.25 1.41,-0.39 2.53,0.06 2.3,-0.92 1,-0.05 z" 
                fill="rgb(151, 144, 238)" 
                stroke="white" 
                stroke-width=".7px"
                title="Camagüey" 
                id="CU-09" 
            />
        </svg>