<svg xmlns="http://www.w3.org/2000/svg" viewBox="516.1733499999993 191.73829999999973 111.42000000000041 72.95000000000019" width="111.42000000000041" height="72.95000000000019">
            <path 
                d="m 565.55335,195.2183 0,0 0.63,-0.02 1.18,-0.38 0.97,-0.04 1.06,-0.15 1.59,-0.54 2.99,0.53 0.57,-0.08 1.43,-0.02 3.04,0.37 1.62,-0.02 1.06,0.27 0.66,0.55 1.33,2.85 0.76,0.33 1.18,-1.02 0.3,-0.2 2.88,-1.17 0.35,0.59 0.3,0.38 0.4,0.26 0.53,0.13 0.71,-0.26 0.68,-0.4 0.23,0 0.25,0.19 0.66,1.11 0.46,0.39 0.58,0.25 1.04,0.22 0.53,0.19 0.69,0.05 0.73,-0.16 1.92,-1.01 0.78,0.04 0.42,1.26 0.08,0.57 0.04,0.89 -0.12,1.13 0,0.33 0.33,0.28 0.66,0.33 3.35,0.81 1.28,0.57 3.31,1.98 2.49,0.76 0.62,0.27 0.22,-0.01 0.21,-0.12 0.2,-0.17 0.15,-0.11 0.32,-0.07 0.21,0.02 0.24,0.09 0.27,0.2 0.21,0.51 0.06,0.39 -0.4,1.61 0.87,0.09 1.6,0.63 1.8,0.32 0.88,0.28 1.46,0.68 1.93,0.46 0.62,0.31 0.75,0.51 2.12,2.18 1.77,2.8 -1.86,2.53 -1,0.81 -0.55,0.05 -0.26,-0.33 -0.35,-1.01 -0.36,-0.72 -0.07,-0.41 0,-0.47 0.06,-0.46 0,-0.47 -0.16,-0.47 -0.37,-0.4 -0.72,-0.44 -0.54,0.04 -0.31,0.11 -0.07,0.34 0.27,1.42 0.02,0.69 -0.12,0.66 -0.24,0.52 -0.34,0.45 -0.43,0.45 -0.25,0.34 -0.12,0.31 -0.06,0.72 -0.07,0.34 -0.24,0.52 -0.38,0.15 -0.67,0 -1.55,-0.3 -0.7,-0.06 -1.14,0.03 -0.55,0.48 -0.45,0.76 -1.5,6.13 0.01,0.36 -0.02,0.23 0.1,0.75 -1.09,1.13 -0.63,0.7 -0.46,0.28 -0.06,0.38 0.22,0.53 0.4,2.25 0.25,6.42 -0.74,1.42 -2.05,1.95 -1.08,0.75 -1.02,0.55 -0.86,0.34 -0.69,0.17 -0.5,0.05 -1.68,-0.11 -2.02,-0.34 -0.48,0.29 0.02,0.21 0.09,0.43 0.57,1.53 -0.09,0.36 -0.5,0.13 -1.99,-0.48 -0.59,-0.22 -0.43,-0.11 -0.14,0.12 -0.25,0.67 -0.25,0.14 -1.68,0.02 -1.27,0.2 -0.62,0.01 -0.39,-0.04 -0.14,-0.08 -0.26,-0.11 -1.18,-0.28 -0.57,-0.22 -0.45,-0.32 -0.62,-0.73 -0.44,-0.36 -0.42,0.01 -1.36,0.35 -0.38,0.15 -0.26,0.18 -0.13,0.24 -0.26,0.28 -0.24,0.01 -0.27,-0.17 -0.18,-0.22 -0.19,-0.14 -0.19,-0.09 -0.25,-0.06 -0.24,-0.08 -0.24,-0.15 -0.3,-0.27 -0.15,-0.19 -0.71,-0.66 -1.16,0.71 -1.19,1.23 -0.69,0.31 -1.11,0.21 -1.56,0.03 -1,-0.09 -1.71,0.11 -0.53,0.12 -0.35,0.18 -2.71,3.66 -0.37,0.26 -0.51,0.15 -4.16,0.46 -0.62,0.2 -0.01,0.23 0.05,0.23 0.22,0.36 0.64,1.33 0.04,1.73 0,0.01 -3.82,0.18 -1.82,-0.3 -3.57,-1.43 -1.83,-0.34 -0.99,0.74 -0.49,0 -0.53,-0.51 -0.73,-0.11 -0.71,0.32 -0.47,0.77 -1.82,-0.6 -2.08,-0.16 -1.85,0.49 -1.13,1.35 1.95,0 0,0.52 -1.27,0.06 -2.01,0.79 -1.34,0.19 -6.63,0.18 -4.54,1.12 -2.57,0.26 -3.01,-0.24 -4.42,1.19 -1.38,0.09 -0.97,-0.17 -0.97,-0.44 -0.78,-0.68 -0.48,-0.83 0.09,-1.41 1.33,-2.51 0.09,-0.71 0.52,-0.16 0.91,-0.1 0.52,-0.26 0.48,-0.47 0.49,-0.79 0.5,-0.3 -0.22,-0.83 0.33,-0.58 1.35,-1.24 1.6,-2.21 0.11,-0.38 0.26,-0.58 3.41,-3.1 -0.14,-0.67 -0.96,-0.96 0.12,-0.46 0.64,0.04 1.89,0.62 0.71,-0.68 1.37,-0.44 0.32,-0.3 0.2,-0.45 1.27,-1.91 1.24,-0.87 3.07,-1.64 1.18,-1.73 1.35,-0.99 7.2,-3.4 1.38,-0.22 1.06,-0.58 1.13,-2.75 1.03,-0.88 0.21,-0.03 0.25,-0.01 0.47,0.04 -0.4,0.89 0.43,0.44 0.92,0.04 1.05,-0.28 0.97,-0.64 0.76,-0.94 0.49,-1.14 0.18,-1.23 0.52,-0.44 2.94,-1.86 0.23,-3.66 0.48,-0.55 0.55,-0.5 0.96,-2.68 -2.22,-3.6 -0.7,-0.65 -1.92,-1.3 -2.56,-0.99 -0.7,-0.1 0.46,0.86 -0.44,0.52 -1.33,-0.92 -1.11,-0.52 -0.74,-0.77 -0.28,-1.7 0.24,-0.52 0.57,-0.3 0.65,-0.21 0.49,-0.28 1.51,-2.09 0,-0.52 -2.6,-1.66 -1.38,-0.29 -0.5,1.43 -1.44,-1.43 -1.22,-1.91 -1.41,-1.68 -1.56,-0.56 0.01,0 0.3,-0.22 1.11,-0.52 0.3,-0.18 0.14,-0.17 0.08,-0.18 0.17,-0.48 0.25,-0.44 0.72,-0.82 0.17,-0.37 0.14,-0.45 0.09,-0.81 0.2,-0.35 0.26,-0.09 0.38,0.44 0.29,0.73 0.29,0 0.46,-0.23 1.11,-0.8 0.55,-0.25 0.46,0 0.27,0.46 0.18,0.46 1.67,0.46 7.02,0.21 2.6,0.98 1.04,0.75 0.47,0.16 z" 
                fill="rgb(151, 144, 238)" 
                stroke="white" 
                stroke-width=".7px"
                title="Granma" 
                id="CU-12" 
            />
        </svg>