<svg xmlns="http://www.w3.org/2000/svg" viewBox="676.9433499999996 209.17829999999998 97.0600000000004 51.35000000000002" width="97.0600000000004" height="51.35000000000002">
            <path 
                d="m 772.08335,230.7583 0,0 0.87,1.08 0.56,1.29 0.33,1.41 0.16,1.47 -0.65,1.67 -1.5,0.92 -1.51,0.6 -1.01,1.05 -1.45,0.84 -0.48,0.17 -0.37,0.41 -0.41,2.71 -2.25,2.01 -2.65,-0.08 -3.01,-0.78 -3.32,-0.11 -4.5,0.94 -3.04,0.23 -5.87,1.37 -2.73,-0.52 -2.26,0.94 -4.5,-0.73 -5.39,0.93 -1.75,0.17 -1.79,0.83 -1.23,1.04 -1.11,1.2 -1.22,0.98 -1.59,0.41 -1.68,0.04 -0.99,0.17 -0.59,0.62 -0.43,1.58 -1.17,1.83 -2.3,0.87 -2.55,0.3 -0.38,-0.89 -0.52,-0.28 -0.37,0.11 -0.21,0.55 0.01,0.72 -1.83,0.59 -0.23,-0.01 0.01,-5.66 -3.01,0 0.13,-0.36 0.39,-0.37 1.05,-0.72 0.93,-0.17 0.85,-1.62 0.38,-0.89 -0.43,-0.73 -0.11,-1.96 -1.46,0.28 -0.68,1.04 -0.45,0.79 -0.51,0.93 -0.58,-0.36 -0.75,-0.39 -1.08,0.42 -0.43,0.9 -0.14,0.75 0.24,0.8 0.38,0.11 0.47,0.12 0.29,-0.07 0.19,-0.28 0.15,-0.32 0.15,0.35 0.31,0.79 -0.87,0.49 -0.08,0.54 -1.33,0 -3.59,2.53 -0.28,2.85 0,0 -3.7,0.89 -6.97,0.44 0,-0.01 -4.34,-6.1 -1.54,-1.44 -0.45,-0.54 -0.94,-1.58 -0.33,-1.14 -0.1,-2.83 0.97,-0.42 0.23,0 0.3,-0.18 0.84,-1.06 1.7,-0.85 0.2,-0.27 0.12,-0.41 -0.06,-0.68 -0.18,-0.34 -0.45,-0.26 -0.29,-0.02 -0.22,-0.06 -0.18,-0.16 -0.23,-0.86 0.05,-2.03 -0.68,-0.49 -0.13,-0.16 -0.06,-0.11 -0.36,-1.01 -0.18,-0.32 -0.36,-1.1 -0.41,-1.83 -0.03,-0.48 0.07,-0.34 0.32,-0.62 0.19,-0.29 0.19,-0.18 0.24,-0.18 0.15,-0.16 0.12,-0.42 0.1,-2.46 -0.17,-1.26 -0.76,-1.55 -0.28,-0.65 0.13,-0.22 0.34,-0.29 0.9,-0.37 0.81,-0.51 0.83,-0.68 0.72,-1.1 0.28,-0.62 0.09,-0.49 0.01,-0.38 0.05,-0.28 0.12,-0.24 0.19,-0.09 0.37,0.07 0.26,0.13 0.67,0.24 0.35,-0.07 0.3,-0.24 0.33,-0.64 0.66,-0.54 0.82,-0.22 1.38,-0.98 0.54,-0.1 0.46,0.14 0.31,0.29 0.68,0.46 0.39,0.39 0.25,0.42 0.09,0.13 0.48,0.43 0.64,0.4 0.31,0.13 0.32,-0.03 1.31,-0.65 0.27,-0.03 0.26,0.18 0.1,0.24 1.05,0.79 0.65,-1.17 0.22,-2.29 0.18,-0.43 0.96,-0.88 1.62,-0.95 0.48,-0.12 0.37,0.07 0.6,0.51 0.35,0.07 0.44,-0.06 1.32,-0.72 1.65,-0.63 0.46,-0.12 0.39,0.05 0.44,0.37 2.03,2.17 1.59,1.31 2.32,0.19 1.93,1.37 0.47,0.09 0.29,-0.07 0.06,-0.28 0.01,-0.22 -0.06,-0.21 -0.09,-0.22 -0.18,-0.33 -0.26,-0.34 -0.43,-0.35 -0.56,-0.06 -0.09,-0.03 -0.01,-0.12 0.04,-0.24 0.15,-0.54 -0.02,-0.2 -0.08,-0.22 -0.28,-0.6 0.15,-0.14 0.39,-0.12 1.93,-0.29 0.67,0.06 0.69,0.38 2.41,1.75 2.61,1.22 0.79,0.48 0.73,0.54 0.96,0.45 0.45,0.1 0.28,-0.13 0.11,-0.24 0.08,-0.44 0.11,-0.3 0.1,-0.23 0.2,-0.22 0.2,-0.15 2.89,-1.19 -0.6,-2.04 0.09,-1.49 0.4,-1.19 0.36,-0.73 0.51,-0.75 0.38,-0.44 0.55,-0.48 0.25,-0.13 0.3,-0.03 0.56,0.01 0.22,-0.05 0.24,-0.14 0.7,-0.56 0.9,-0.48 0.01,0.01 0.38,0.29 2.6,0.86 0.25,1.01 1.38,1.12 3.25,2.09 0.57,0.68 0.77,1.6 2.27,3.16 0.54,0.33 0.23,0.5 3.5,3.69 0.67,0.33 0.97,0.13 1.56,0.46 1.92,1.19 1.6,1.55 0.58,1.58 0.53,0 0.96,-1.07 1.45,0.01 1.59,0.39 1.38,0.1 1.19,-0.53 1.25,-0.79 1.36,-0.64 1.52,-0.12 0.89,0.3 0.71,0.48 1.43,1.3 2.43,1.57 z" 
                fill="rgb(151, 144, 238)" 
                stroke="white" 
                stroke-width=".7px"
                title="Guantánamo" 
                id="CU-14" 
            />
        </svg>