<svg xmlns="http://www.w3.org/2000/svg" viewBox="588.8033500000004 155.89830000000026 143.5400000000002 65.44999999999982" width="143.5400000000002" height="65.44999999999982">
            <path 
                d="m 677.23335,194.3683 0,0 0.25,0.92 -1.34,-0.01 -2.37,-0.65 -1.27,-0.2 -1.13,-0.59 -0.73,-0.97 -0.05,-1.37 3.53,-0.65 0.86,0.12 0.64,0.59 1.03,1.95 0.58,0.86 z m -45.85,-26.98 0,0 0.71,0.82 0.49,-0.06 0.72,-0.76 1.14,-0.64 0.8,-0.19 1.03,0.26 0.73,0.44 0.5,0.55 0.28,0.72 0,0.96 0.45,0 0.14,-0.37 0.23,-0.38 0.15,-0.35 0.49,1.18 0.61,0.26 0.43,-0.59 -0.06,-1.37 0.6,0.1 1.92,0.05 0.89,-0.15 0.45,-0.3 1.12,-1.01 0.61,-0.21 0.89,0.04 0.9,0.19 0.69,0.38 0.59,1.34 0.61,0.12 0.37,-0.33 -0.36,-0.7 3.69,-2.66 0.39,0.09 1.07,0.49 0.22,0.2 0.3,0.58 0.7,0.04 1.25,-0.36 2.47,0 2.02,0.33 1.41,1.22 0.64,2.64 2.82,-0.59 1.63,1.05 2.48,3.78 -1.46,3.14 -0.43,0.53 -0.8,0.66 -0.29,0.43 -0.13,0.49 -0.16,1.14 -0.15,0.45 -0.61,0.88 -1,1.01 -1.17,0.71 -1.17,-0.03 -0.36,-0.73 -0.27,-1.16 -0.43,-0.75 -0.9,0.55 -0.58,-0.37 -0.47,-0.06 -0.42,0.15 -0.43,0.28 0.58,0.09 0.43,0.16 0.27,0.32 0.14,0.52 -2.03,0.15 0.04,0.93 0.93,1.32 0.62,1.31 0.44,0 0.8,-1.21 1.88,-0.56 2.14,-0.1 1.57,0.21 2.96,1.52 0.46,0.38 0.08,1.06 0.29,0.81 0.6,0.46 0.99,0 -0.57,1.82 -1.01,0 -1.14,-0.76 -0.97,-0.5 -0.54,-0.18 -0.23,-0.46 -0.16,-0.55 -0.32,-0.47 -0.52,-0.43 -0.23,-0.12 -3.92,0.61 -1.38,0.49 -4.69,-0.55 0.38,0.88 -0.1,0.98 -0.72,1.85 0.05,0.46 -0.06,0.97 -0.2,0.9 -0.33,0.8 0.67,0.68 0.83,1.65 2.75,1.57 1.12,0.37 0.49,-0.8 0.79,-1.67 3.42,-2.89 0.72,-1.52 1.13,0.91 0.69,1.19 0.14,1.31 -0.49,1.34 1.84,-0.23 0.67,0.23 -0.31,0.8 -0.12,0.75 0.73,0.52 1.59,0.54 -0.4,-1.69 4.21,1 1.11,-1.4 0.45,0 0.34,0.42 0.47,0.43 0.56,0.39 0.63,0.33 0.53,-1.57 -1.18,-0.48 -0.63,-0.1 -0.72,0.06 0.89,-1.19 1.71,-0.5 1.87,-0.04 1.39,0.16 1.25,0.52 1.47,0.94 0.49,0.87 -1.7,0.33 0.62,0.98 0.35,1.06 0.49,0 0.08,-0.33 0.41,-0.71 0.61,1.64 1.74,0.38 4.04,-0.46 -1.24,-0.83 -2.71,-1.36 -1.42,-0.37 0.91,-0.99 1.75,-0.46 1.88,-0.01 1.32,0.37 -0.49,-0.57 1.1,0.09 3.34,0.7 0.88,0.49 0.25,0.53 -1.17,0.33 0,0.52 2,0.52 0.13,-0.16 0.02,-0.1 0.06,-0.11 0.23,-0.15 0.84,0.62 1.23,-0.33 1.18,0.06 0.66,1.78 0.14,-0.41 0.33,-0.69 0.06,-0.51 0.66,0.51 0.65,0.31 0.6,0.03 0.53,-0.33 -1.01,-1.04 5.75,-0.73 1.39,0.47 0.69,0.38 0.73,0.17 0.57,0.29 0.23,0.72 0.51,0.44 1.15,0.03 1.76,-0.21 1.18,0.86 1.02,1.04 1.32,0.86 5.65,0.68 1.48,0.47 1.11,0.79 -0.72,0.41 -0.3,0.11 1.02,1.83 0.05,0.83 0.17,0.21 0.3,0.03 0.46,0.28 0.48,0.36 -0.9,0.48 -0.7,0.56 -0.24,0.14 -0.22,0.05 -0.56,-0.01 -0.3,0.03 -0.25,0.13 -0.55,0.48 -0.38,0.44 -0.51,0.75 -0.36,0.73 -0.4,1.19 -0.09,1.49 0.6,2.04 -2.89,1.19 -0.2,0.15 -0.2,0.22 -0.1,0.23 -0.11,0.3 -0.08,0.44 -0.11,0.24 -0.28,0.13 -0.45,-0.1 -0.96,-0.45 -0.73,-0.54 -0.79,-0.48 -2.61,-1.22 -2.41,-1.75 -0.69,-0.38 -0.67,-0.06 -1.93,0.29 -0.39,0.12 -0.15,0.14 0.28,0.6 0.08,0.22 0.02,0.2 -0.15,0.54 -0.04,0.24 0.01,0.12 0.09,0.03 0.56,0.06 0.43,0.35 0.26,0.34 0.18,0.33 0.09,0.22 0.06,0.21 -0.01,0.22 -0.06,0.28 -0.29,0.07 -0.47,-0.09 -1.93,-1.37 -2.32,-0.19 -1.59,-1.31 -2.03,-2.17 -0.44,-0.37 -0.39,-0.05 -0.46,0.12 -1.65,0.63 -1.32,0.72 -0.44,0.06 -0.35,-0.07 -0.6,-0.51 -0.37,-0.07 -0.48,0.12 -1.62,0.95 -0.96,0.88 -0.18,0.43 -0.22,2.29 -0.65,1.17 -1.05,-0.79 -0.1,-0.24 -0.26,-0.18 -0.27,0.03 -1.31,0.65 -0.32,0.03 -0.31,-0.13 -0.64,-0.4 -0.48,-0.43 -0.09,-0.13 -0.25,-0.42 -0.39,-0.39 -0.68,-0.46 -0.31,-0.29 -0.46,-0.14 -0.54,0.1 -1.38,0.98 -0.82,0.22 -1.86,-2.54 -1.12,-0.98 -0.45,-0.6 -0.08,-0.28 0.3,-0.17 0.26,-0.22 0.17,-0.27 0.12,-0.25 0.07,-0.26 0.14,-0.28 0.18,-0.22 0.27,-0.15 0.48,-0.21 0.12,-0.1 0.12,-0.36 0.23,-1.88 -0.04,-0.51 -0.14,-0.24 -0.66,0.32 -0.36,0.13 -0.3,0.06 -0.88,0 -3.13,0.6 -1.33,-0.42 -1.14,-0.92 -0.41,-0.1 -0.3,0.07 -0.24,0.21 -0.27,0.15 -0.43,0.15 -0.27,0.13 -0.23,0.17 -0.27,0.35 -1.42,1.47 -1.08,0.86 -0.53,0.34 -0.33,0.09 -0.92,-0.49 -0.46,-0.18 -0.53,-0.26 -0.16,0.08 -0.2,0.27 -0.09,0.31 -0.02,0.24 0.07,0.23 0.38,0.84 -0.21,0.68 -0.22,0.55 -3.1,2.16 -3.04,0.28 -2.27,-0.32 -0.8,0.08 -0.58,0.15 -5.17,2.4 -2.26,-0.19 -1.2,-0.63 -0.26,-0.26 -0.1,-0.2 -0.1,-0.26 -0.29,-1.24 -1.19,-0.31 -2.12,-1.45 -0.53,-0.45 -0.24,-0.32 0.09,-0.16 0.18,-0.22 0.18,-0.32 0.18,-0.36 0.07,-0.52 -0.18,-0.2 -0.49,-0.09 -0.88,0.02 -1.24,-0.12 -0.53,-0.22 -0.24,-0.29 0.31,-0.8 -0.67,-1.12 -3.39,-2.53 -0.98,-0.44 -0.18,0.1 -0.16,0.48 0.18,0.65 0.5,1.23 0.06,0.52 -0.17,0.39 -1.28,0.52 -0.36,0.23 -0.9,0.81 -1.12,0.74 -0.17,0.26 0.04,0.2 0.25,0.11 0.19,0.24 0.14,0.71 0.47,1.15 -0.19,1.71 -0.44,1.64 -0.15,0.24 -1.34,1.28 -0.24,-0.58 0.55,-1.21 0.06,-0.32 -0.04,-0.15 -0.36,0.11 -0.32,0.03 -0.37,-0.11 -0.64,-0.33 -0.56,-0.2 -0.59,-0.13 -0.64,-0.03 -1.73,0.1 -1.77,-2.8 -2.12,-2.18 -0.75,-0.51 -0.62,-0.31 -1.93,-0.46 -1.46,-0.68 -0.88,-0.28 -1.8,-0.32 -1.6,-0.63 -0.87,-0.09 0.4,-1.61 -0.06,-0.39 -0.21,-0.51 -0.27,-0.2 -0.24,-0.09 -0.21,-0.02 -0.32,0.07 -0.15,0.11 -0.2,0.17 -0.21,0.12 -0.22,0.01 -0.62,-0.27 -2.49,-0.76 -3.31,-1.98 -1.28,-0.57 -3.35,-0.81 -0.66,-0.33 -0.33,-0.28 0,-0.33 0.12,-1.13 -0.04,-0.89 -0.08,-0.57 -0.42,-1.26 -0.78,-0.04 -1.92,1.01 -0.73,0.16 -0.69,-0.05 -0.53,-0.19 -1.04,-0.22 -0.58,-0.25 -0.46,-0.39 -0.66,-1.11 -0.25,-0.19 -0.23,0 -0.68,0.4 -0.71,0.26 -0.53,-0.13 -0.4,-0.26 -0.3,-0.38 -0.35,-0.59 0.68,-0.26 0.73,-0.49 0.19,-0.34 0.05,-0.47 -0.27,-0.75 -0.37,-0.54 -0.78,-0.86 -0.16,-0.43 -0.02,-0.6 0.11,-1 0.2,-0.7 0.52,-1.01 1.31,-1.71 0.24,-0.73 0.11,-1.07 -0.07,-5.41 0.91,-2.62 0.85,0.39 0.71,0.64 0.4,0.28 0.32,0.13 0.43,0.04 0.5,-0.05 1.16,-0.27 3.77,-1.64 0.93,-0.24 0.67,-0.05 0.42,0.16 0.36,0.06 0.49,-0.07 0.25,-0.22 0.2,-1.14 0.86,-2.14 1.35,-1.39 1.77,-1.41 0.41,-0.22 1.15,-0.98 3.18,-2.06 1.55,-0.65 1.93,-1.21 0.38,-0.51 0.12,-0.48 -0.24,-1.37 0.02,-0.48 0.37,-0.5 0.28,-0.26 0.37,-0.24 0.55,-1.28 0.27,-4.33 0.05,-0.1 1.66,1.4 1.03,0.66 7.6,2.91 2.28,1.53 0.31,1.8 0.25,0.63 -0.05,1.64 0.29,0.92 z" 
                fill="rgb(151, 144, 238)" 
                stroke="white" 
                stroke-width=".7px"
                title="Holguín" 
                id="CU-11" 
            />
        </svg>