<svg xmlns="http://www.w3.org/2000/svg" viewBox="125.99335000000008 101.83829999999999 130.36999999999995 39.80999999999999" width="130.36999999999995" height="39.80999999999999">
            <path 
                d="m 204.92335,131.5983 0,0 -1.54,0.06 -0.31,-0.22 0.87,-0.32 1.43,-1.2 0.78,-0.23 0.67,-0.41 0.53,-0.6 0.44,-0.35 2.04,-0.8 0.85,-0.03 0.81,-0.39 0.64,-0.64 0.25,-0.54 0.09,-0.34 0.12,-0.11 0.54,0.61 0.06,1.35 -1.22,1.03 -2.83,1.06 -2.08,1.05 -0.48,0.13 -0.37,0.25 -0.28,0.33 -1.01,0.31 z m 15.62,-5.48 0,0 -2.24,1.83 -1.25,0.01 -0.97,-1 -0.23,-1.03 0.2,0.13 0.76,0.84 1.19,-0.13 0.96,-0.78 0.29,-0.46 -0.28,-0.02 0.21,-0.15 2.14,-0.94 0.47,-0.16 0.97,-0.2 0.09,0.39 -1.06,0.86 -1.25,0.81 z m 32.37,-2.19 0,0 -5.66,3.8 -2.22,0.97 -2.36,0.22 -0.01,-1.49 0.68,-0.4 1.99,0.32 0.79,-0.57 0.67,-1.14 0.69,-0.88 0.81,0.25 0.93,0.44 1.05,-0.28 0.84,-0.63 0.35,-0.61 0.44,-1.32 1.03,-0.94 2.24,-1.44 0.59,-0.23 0.43,0.32 0.17,0.48 -0.21,0.24 -0.31,0.18 -2.93,2.71 z m -103.11,-20.48 0,0 5.83,1.45 4.01,1.14 1.27,0.56 0.97,0.85 0.39,1.21 -0.25,1.42 -0.38,0.95 0.07,0.87 1.05,1.25 3.21,2.64 0.96,-0.06 0.71,0.37 0.48,0.85 0.36,0.96 0.38,0.72 0.01,0.59 -0.38,0.9 -0.81,1.45 -0.53,0 0.38,0.65 0.12,0.66 -0.14,0.66 -0.36,0.65 1.62,1.03 0.85,0.41 0.99,0.14 0,0.57 -0.51,0.91 0.58,0.98 1.03,0.82 0.85,0.45 -0.72,1.17 -1.47,1.58 -1.66,1.38 -1.29,0.59 -1.34,0.26 -9.14,4.62 -5.46,1.99 -5.06,0.56 -0.85,-0.32 -0.65,-0.72 -4.68,-0.09 -0.69,-0.22 -1.4,-0.62 -0.84,-0.21 -2.57,0.05 -0.64,-0.31 -2.34,-3.12 -0.89,-0.82 -2.01,-1.34 -0.74,-0.87 -0.66,-1.47 -0.49,-2.09 -0.81,-1.91 -0.17,-0.77 0.49,0 0.79,0.79 3.6,2.65 0.47,1.07 1.13,0.92 1.38,0.64 1.2,0.23 2.95,0 0.24,-0.31 2,-1.74 1.13,-0.75 0.55,-0.49 0.23,-0.62 0.23,0.07 0.36,0.46 0.08,0.78 -0.67,1.07 0.49,0.49 1.29,-2.39 -0.36,-0.89 -2.13,-0.35 -0.84,-0.82 -6.14,-10.84 -0.87,-3.06 0.75,-3.3 3.03,-2.4 0.39,-1 0.62,-0.8 1.44,-1.03 1.63,-0.83 1.19,-0.26 -0.79,-0.37 -0.78,-0.15 -0.83,0 -0.86,-0.44 -0.04,-0.15 0.46,-0.18 0.67,-0.51 9.33,1.14 z m 18.32,0.91 0,0 -1.95,0.09 -1.98,-0.87 -0.73,-1.32 1.64,-0.42 2.67,1.22 1.19,0.93 -0.84,0.37 z" 
                fill="rgb(151, 144, 238)" 
                stroke="white" 
                stroke-width=".7px"
                title="Isla de la Juventud" 
                id="CU-99" 
            />
        </svg>