<svg xmlns="http://www.w3.org/2000/svg" viewBox="509.45335000000114 140.0882999999998 108.56000000000006 59.82000000000011" width="108.56000000000006" height="59.82000000000011">
            <path 
                d="m 618.01335,155.8983 0,0 -0.05,0.1 -0.27,4.33 -0.55,1.28 -0.37,0.24 -0.28,0.26 -0.37,0.5 -0.02,0.48 0.24,1.37 -0.12,0.48 -0.38,0.51 -1.93,1.21 -1.55,0.65 -3.18,2.06 -1.15,0.98 -0.41,0.22 -1.77,1.41 -1.35,1.39 -0.86,2.14 -0.2,1.14 -0.25,0.22 -0.49,0.07 -0.36,-0.06 -0.42,-0.16 -0.67,0.05 -0.93,0.24 -3.77,1.64 -1.16,0.27 -0.5,0.05 -0.43,-0.04 -0.32,-0.13 -0.4,-0.28 -0.71,-0.64 -0.85,-0.39 -0.91,2.62 0.07,5.41 -0.11,1.07 -0.24,0.73 -1.31,1.71 -0.52,1.01 -0.2,0.7 -0.11,1 0.02,0.6 0.16,0.43 0.78,0.86 0.37,0.54 0.27,0.75 -0.05,0.47 -0.19,0.34 -0.73,0.49 -0.68,0.26 -2.88,1.17 -0.3,0.2 -1.18,1.02 -0.76,-0.33 -1.33,-2.85 -0.66,-0.55 -1.06,-0.27 -1.62,0.02 -3.04,-0.37 -1.43,0.02 -0.57,0.08 -2.99,-0.53 -1.59,0.54 -1.06,0.15 -0.97,0.04 -1.18,0.38 -0.63,0.02 -0.47,-0.16 -1.04,-0.75 -2.6,-0.98 -7.02,-0.21 -1.67,-0.46 -0.18,-0.46 -0.27,-0.46 -0.46,0 -0.55,0.25 -1.11,0.8 -0.46,0.23 -0.29,0 -0.29,-0.73 -0.38,-0.44 -0.26,0.09 -0.2,0.35 -0.09,0.81 -0.14,0.45 -0.17,0.37 -0.72,0.82 -0.25,0.44 -0.17,0.48 -0.08,0.18 -0.14,0.17 -0.3,0.18 -1.11,0.52 -0.3,0.22 -0.01,0 -0.46,-0.16 -2.04,0.18 -2.25,0.53 -1.88,0.82 -0.93,1.08 -0.68,-0.43 -0.41,0.01 -0.36,0.22 -0.5,0.2 -0.76,0.2 -0.46,0.19 -0.48,0.14 -0.79,-0.01 -1.25,-0.21 -3.63,-1.35 -2.79,1.49 -0.63,0.07 -1.04,-0.79 -0.48,-0.25 -0.54,-0.11 -2.11,0.11 -0.56,-0.07 -1.39,-0.41 -0.48,-0.28 -0.26,0.17 -0.92,0.07 -3.52,-0.21 -1.22,-0.4 -1.9,-1.31 -0.65,-0.19 0.01,-0.01 0.95,-6.25 3.72,-5.27 1.69,0.12 4.36,-0.85 1.08,-0.44 0.57,-0.41 -0.04,-0.44 0.01,-0.54 0.07,-0.6 0.3,-1.24 0.05,-0.44 -0.06,-0.48 -0.12,-0.5 0,-0.61 0.55,-0.38 0.48,-0.08 0.39,0.17 0.4,0.53 0.28,0.48 0.36,0.49 0.27,0.23 0.39,0.07 0.82,0.05 0.37,0.09 0.54,0.07 0.23,-0.19 0.14,-0.24 -0.01,-0.97 0.38,-1.03 0.72,-0.4 1.45,-0.43 1.04,-0.15 0.2,-1.12 0.18,-0.25 0.19,-0.01 0.92,0.07 0.96,-0.1 1.3,-0.26 0.47,-0.61 0.23,-0.53 0.07,-0.53 0.3,-0.67 0,-0.11 -0.16,-0.58 -0.05,-0.33 -0.01,-0.44 0.13,-0.26 0.26,-0.18 1.03,-0.51 0.5,-0.6 0.24,-0.17 0.11,-0.01 0.03,0.16 0.09,0.19 0.11,0.19 0.31,0.41 0.21,0.24 0.62,0.96 0.15,0.35 0.06,0.35 -0.04,0.46 0.06,0.19 0.17,0.16 1.25,0.32 1.19,0.09 0.61,0.12 0.35,0.11 0.14,0.2 0.03,0.17 -0.06,0.21 -0.48,0.72 -0.05,0.22 -0.01,0.24 0.23,0.51 0.72,0.75 0.73,-1.6 0.48,-0.38 0.43,-0.23 0.33,0.08 0.34,0.25 0.72,0.69 0.42,0.22 0.59,0.17 0.59,-0.3 2.06,-4.97 1.01,-1.42 0.85,-0.4 0.67,-0.43 0.35,-0.15 2.1,-0.45 0.46,-0.15 0.92,-0.81 0.47,-0.56 2.61,-4.34 -0.32,-4.96 0.05,-0.52 0.37,-0.9 4.04,-3.75 0.11,-0.28 -0.15,-0.27 -0.41,-0.11 -2.74,0.01 -0.32,-0.22 -0.35,-0.45 -0.32,-1.26 0.06,-0.72 0.44,-1 0.59,-0.71 1.14,-3.52 1.41,0.17 1.67,0.41 1.28,-0.06 1.94,-0.49 0.9,-0.42 2.04,-1.6 1.14,-0.46 0.58,-0.57 0.17,-0.15 1.07,0.76 2.59,1.25 3.95,0.85 0.93,0.72 -0.49,1.05 1.47,0 -0.42,1.58 -0.57,0.79 -0.87,0.27 -2.53,0.16 -1.02,0.42 -0.72,0.73 -0.27,1.08 1,1.9 3.66,-1.93 -0.21,1.91 0.69,-0.5 0.31,-0.79 0.18,-0.94 0.28,-0.92 -0.49,0 1,-1.5 0.3,-0.77 0.12,-0.92 4.4,1.52 0.41,-0.02 0.56,-0.34 0.32,0.13 1.2,0.81 1.93,0.47 0.77,0.05 1.11,0.49 0.97,1.08 0.42,1.09 -0.52,0.49 -1.16,0.26 -4.01,1.84 0.28,-1.15 -0.66,-0.68 -0.71,-0.03 0.11,0.81 -0.35,1.21 0.96,0.5 1.44,0.24 1.14,0.46 1.08,0.84 1.21,0.54 1.35,0.3 1.52,0.1 0,-0.48 -1.56,-0.55 -0.47,-0.34 -0.42,-0.68 -0.48,-1.1 0.04,-0.49 1.38,-0.55 1.25,-0.04 1.7,0.54 1.59,0.95 0.92,1.22 0.45,0 0,-1.62 0.48,0 -0.25,3.07 -0.82,1.01 -3.81,0.16 0,0.52 1.46,0 -0.69,0.42 -0.28,0.11 0.57,0.98 0.71,-0.03 0.79,-0.39 0.86,-0.04 0.61,0.51 0.72,1.34 0.66,0.24 0.37,-0.16 0.49,-0.37 0.43,-0.43 0.18,-0.37 0.17,-0.25 0.4,-0.01 0.47,0.05 0.38,-0.03 2.11,-1.24 0.82,-0.33 -1.11,-0.39 -2.33,-0.32 -0.91,-0.34 -0.87,-1.02 -0.23,-1.23 0.48,-1.03 1.31,-0.43 8.56,0.25 1.76,0.56 1.02,0.85 2.31,0.9 0.21,0.18 z" 
                fill="rgb(151, 144, 238)" 
                stroke="white" 
                stroke-width=".7px"
                title="Las Tunas" 
                id="CU-10" 
            />
        </svg>