<svg xmlns="http://www.w3.org/2000/svg" viewBox="178.50334999999987 5.318299999999962 61.63000000000011 48.56000000000002" width="61.63000000000011" height="48.56000000000002">
            <path 
                d="m 233.86335,8.7083 0,0 -0.1,0.63 -0.72,0.95 0.91,4.08 0.13,0.99 0.02,0.54 -0.11,0.03 -0.19,-0.07 -0.69,-0.41 -0.37,0.01 -0.37,0.21 -0.5,0.71 -0.14,0.39 0.04,0.29 0.61,0.5 0.32,0.42 0.02,0.22 -0.18,0.23 -0.28,0.12 -0.66,0.93 -1.45,1 -0.4,0.35 -0.04,0.06 -0.08,0.16 -0.12,0.28 -0.18,0.6 0.12,0.25 0.25,0.14 0.79,0.1 0.52,0.2 0.52,0.41 0.56,0.52 1.17,1.52 0.83,1.23 0.06,0.24 0.05,0.53 -0.07,0.32 -0.18,2.22 -0.92,2.9 1.17,2.1 1.1,1.04 0.92,0.66 0.3,0.43 0,0.48 -0.78,1.96 -0.03,1.19 0.42,0.73 2.7,1.67 1.17,1.04 0.13,1.16 -0.55,3.92 -0.14,0.54 -0.23,0.57 -0.41,0.68 -0.61,0.8 -0.92,1.49 -0.24,0.23 -0.31,0.23 -0.24,0.11 -0.06,0.05 -0.08,0.13 -0.11,0.16 -0.5,-0.17 -1.07,-0.03 -1.96,-1.7 -1.34,-1.09 -2.47,-1.89 -2.51,-0.93 -6.37,-2.3 -2.5,0.09 -5.73,0.53 -7.6,1.3 -2.3,-1 -4.86,-1.39 -5.43,0.01 -3.03,0.36 -1.56,0.18 -1.49,-0.17 -2.27,-0.59 0.26,-1.64 -0.24,-0.98 -0.94,-0.59 -0.9,-0.53 -1.46,-2.06 -1.46,-3.01 0,-2.86 0.58,-2.53 0.88,-1.91 0,-2.06 0.1,-2.69 1.16,-0.47 0.55,-0.17 0.5,0.33 0.77,0.95 0.4,0.09 0.49,-0.21 0.94,-0.84 0.28,-0.55 0.64,-0.64 2.81,0.26 1.84,-0.12 0.75,0.34 0.71,0.09 0.85,0 0.63,-0.25 0.43,-0.6 0.54,-1 2.44,-2.72 0.06,-0.28 -0.1,-0.37 -0.6,-1.25 -0.11,-0.68 0.03,-0.5 0.17,-0.65 0.05,-0.39 -0.01,-0.38 -0.11,-0.3 -0.05,-0.22 0.08,-0.11 0.41,-0.03 0.4,0.43 0.51,0.73 0.24,0.04 0.41,-0.28 0.47,-0.44 0.36,-0.97 0.08,-0.42 0.12,-0.25 0.25,-0.24 0.3,-0.1 0.63,0.32 0.42,0.3 2.51,2.97 0.69,-1.27 0.09,-1.32 0.09,-0.35 0.17,-0.22 0.39,-0.33 0.07,-0.33 -0.2,-0.7 -0.03,-0.44 0.17,-0.27 0.68,-0.04 0.37,-0.31 -1.21,-1.52 -0.4,-0.69 0.13,-0.78 -0.23,-0.76 0,0 0.84,-0.22 1.67,-0.17 0.72,-0.17 0.78,-0.3 0.77,-0.14 0.7,0.35 2.69,1.91 2.12,0.61 4.59,0.45 2.12,0.53 1.6,-0.53 11.17,0.07 z" 
                fill="rgb(151, 144, 238)" 
                stroke="white" 
                stroke-width=".7px"
                title="Mayabeque" 
                id="CU-16" 
            />
        </svg>