<svg xmlns="http://www.w3.org/2000/svg" viewBox="347.08335 46.2083 83.97000000000003 86.91000000000003" width="83.97000000000003" height="86.91000000000003">
            <path 
                d="m 401.39335,66.4183 0,0 2.1,0.99 1.9,-0.31 0.73,0.73 1.34,0.97 1.3,0.46 0.59,-0.84 0.77,-0.09 3.74,0.81 1.35,0.02 0.77,-0.55 0.16,-0.49 0.18,-0.35 0.89,-0.1 0.72,0.18 1.11,0.69 0.83,0.15 1.54,-0.23 2.68,-1.02 1.37,-0.34 1.63,-0.02 3.96,0.45 -0.3,1.09 -0.21,2.37 -0.52,0.56 -0.62,0.56 -0.42,0.9 -0.73,1.58 -0.62,2.47 -0.73,1.47 -1.04,1.8 -0.94,1.68 -0.63,1.8 -0.93,0.9 0.1,2.14 -1.04,2.47 0.1,1.58 1.15,1.01 2.19,1.8 1.56,0.78 0.94,0.45 0.31,1.35 0,1.8 -1.04,1.91 -1.25,1.91 -0.42,0.9 -1.04,-0.23 -1.15,-0.11 -0.83,0.56 -0.42,1.57 -0.83,1.69 -1.04,2.02 -0.73,1.68 -0.73,3.03 -1.56,3.36 -0.52,1.24 1.14,1.79 0.53,1.23 -0.32,2.13 -0.41,1.35 0.62,0.89 1.98,0 2.08,-0.89 0.84,-1.01 0,-1.23 1.04,-1.57 1.77,0.78 1.56,1.12 0.42,1.01 -0.21,2.02 0.21,2.35 0.35,1.6 -0.76,0.31 -0.49,-0.58 -1.23,0.69 -1.3,0.31 -3.09,0.06 -1.4,0.24 -3.77,1.86 -2.94,0.79 -2.83,0.25 -2.9,-0.27 -5.73,-1.67 -1.19,-0.73 -1.32,-1.24 -1.01,-0.15 -3.71,0.45 -1.41,-0.01 -1.57,-0.5 -0.68,-0.41 -0.68,-0.67 -1.09,-1.83 -0.63,-0.68 -0.28,0.65 -0.21,0.78 -0.54,0.51 -0.71,0.11 -0.72,-0.38 -0.68,-0.62 -0.41,-0.22 -3.06,-0.86 -0.43,-0.17 -0.57,-0.49 -0.42,-0.72 -0.34,-0.87 -0.5,-0.73 -0.91,-0.3 -5.06,-0.14 -4.82,-1.4 -1.83,0.03 -0.81,1.24 -0.49,1.35 -1.21,-0.19 -1.58,-0.83 -1.61,-0.59 0,-0.53 1.47,-0.57 0,-0.48 -1.11,-0.26 -0.23,-0.86 0.07,-1.09 -0.2,-0.94 -1.21,0.89 -1.26,0.39 -1.39,0.02 -1.59,-0.26 -1.46,-0.53 -0.83,-0.19 -0.65,0.15 -0.19,0.55 0.45,0.52 0.71,0.38 0.59,0.13 -0.88,0.96 -1.33,-0.64 -1.22,-1.38 -0.53,-1.26 -0.16,-1.65 -0.49,-1.45 -0.85,-1.03 -1.22,-0.39 -1.2,-0.2 0,-0.01 0.16,-3.2 0.08,-0.39 0.26,-0.38 0.49,-0.54 1.94,-1.57 2.58,-2.68 2.54,-1.19 1.33,-1.09 0.49,-0.14 1.06,0.09 0.36,-0.23 0.2,-0.4 0.15,-0.65 0.27,-0.61 0.71,-0.91 0.73,-0.31 0.68,-0.09 4.15,1 0.52,0.22 0.35,0.27 1.02,0.54 2.13,0.16 1.77,-1.52 1.41,-2.32 1.18,-2.38 0.38,-1.42 0.06,-1.01 -0.27,-0.42 -0.32,-0.16 -0.42,-0.02 -0.36,0.04 -0.31,-0.07 -0.22,-0.23 -0.26,-0.5 -0.32,-0.87 -1.04,-2.05 -0.46,-1.33 -0.03,-0.8 0.15,-0.53 0.78,-0.7 2.37,0.06 0.83,0.69 0.26,0.5 0.36,0.53 0.75,0.66 0.74,0.19 0.62,-0.04 0.52,-0.28 1.02,-0.7 0.95,-0.1 0.66,0.05 2.93,0.89 1.46,-0.47 0.97,0.44 0.62,0.42 1.01,0.42 1.01,-0.13 0.8,-0.34 0.64,-0.59 0.61,-0.82 0.53,-1.08 0.37,-0.97 0.39,-1.39 1.28,-1.32 0.85,-0.45 1.26,-0.47 0.88,-0.06 0.7,0.16 1.78,0.94 1.84,0.3 0.22,-1.39 -0.08,-1.23 0.18,-0.93 0.28,-0.96 -0.05,-0.57 -2.03,-2.81 -2.4,-4.82 -0.6,-0.97 -0.83,-0.65 1.32,-2.48 -0.03,-1.78 0.04,-0.08 5.36,4.6 z m 9.69,-16.36 0,0 -0.49,0 0,-0.52 -0.23,-0.43 -0.58,-0.24 0.63,-0.26 2.78,-0.12 -0.92,0.78 -1.19,0.79 z m 17.54,-1.92 0,0 -1.65,0.89 -0.4,-1.07 -1.05,-0.41 -4.29,-0.28 -0.73,-0.3 -0.9,-0.59 1.21,-0.17 6.71,0.43 1.12,0.65 -0.02,0.85 z" 
                fill="rgb(151, 144, 238)" 
                stroke="white" 
                stroke-width=".7px"
                title="Sancti Spíritus" 
                id="CU-07" 
            />
        </svg>