<svg xmlns="http://www.w3.org/2000/svg" viewBox="565.4833499999993 207.83829999999986 119.63000000000068 52.95000000000002" width="119.63000000000068" height="52.95000000000002">
            <path 
                d="m 643.84335,213.3583 0,0 0.88,-0.02 0.49,0.09 0.18,0.2 -0.07,0.52 -0.18,0.36 -0.18,0.32 -0.18,0.22 -0.09,0.16 0.24,0.32 0.53,0.45 2.12,1.45 1.19,0.31 0.29,1.24 0.1,0.26 0.1,0.2 0.26,0.26 1.2,0.63 2.26,0.19 5.17,-2.4 0.58,-0.15 0.8,-0.08 2.27,0.32 3.04,-0.28 3.1,-2.16 0.22,-0.55 0.21,-0.68 -0.38,-0.84 -0.07,-0.23 0.02,-0.24 0.09,-0.31 0.2,-0.27 0.16,-0.08 0.53,0.26 0.46,0.18 0.92,0.49 0.33,-0.09 0.53,-0.34 1.08,-0.86 1.42,-1.47 0.27,-0.35 0.23,-0.17 0.27,-0.13 0.43,-0.15 0.27,-0.15 0.24,-0.21 0.3,-0.07 0.41,0.1 1.14,0.92 1.33,0.42 3.13,-0.6 0.88,0 0.3,-0.06 0.36,-0.13 0.66,-0.32 0.14,0.24 0.04,0.51 -0.23,1.88 -0.12,0.36 -0.12,0.1 -0.48,0.21 -0.27,0.15 -0.18,0.22 -0.14,0.28 -0.07,0.26 -0.12,0.25 -0.17,0.27 -0.26,0.22 -0.3,0.17 0.08,0.28 0.45,0.6 1.12,0.98 1.86,2.54 -0.66,0.54 -0.33,0.64 -0.3,0.24 -0.35,0.07 -0.67,-0.24 -0.26,-0.13 -0.37,-0.07 -0.19,0.09 -0.12,0.24 -0.05,0.28 -0.01,0.38 -0.09,0.49 -0.28,0.62 -0.72,1.1 -0.83,0.68 -0.81,0.51 -0.9,0.37 -0.34,0.29 -0.13,0.22 0.28,0.65 0.76,1.55 0.17,1.26 -0.1,2.46 -0.12,0.42 -0.15,0.16 -0.24,0.18 -0.19,0.18 -0.19,0.29 -0.32,0.62 -0.07,0.34 0.03,0.48 0.41,1.83 0.36,1.1 0.18,0.32 0.36,1.01 0.06,0.11 0.13,0.16 0.68,0.49 -0.05,2.03 0.23,0.86 0.18,0.16 0.22,0.06 0.29,0.02 0.45,0.26 0.18,0.34 0.06,0.68 -0.12,0.41 -0.2,0.27 -1.7,0.85 -0.84,1.06 -0.3,0.18 -0.23,0 -0.97,0.42 0.1,2.83 0.33,1.14 0.94,1.58 0.45,0.54 1.54,1.44 4.34,6.1 0,0.01 -0.09,0 -0.78,-0.08 -2.39,-0.54 -0.7,-0.38 -0.5,-0.08 -0.21,0.15 -0.59,0.7 -0.45,0.23 -1.93,0.26 -2.29,-0.04 -2.14,-0.42 -1.49,-0.88 -2.37,0.35 -2.92,-1.56 -2.96,-2.11 -2.49,-1.31 -1.57,-0.18 -5.12,0.18 -1.36,-0.17 -2.79,-0.74 -1.46,-0.18 -2.75,0.32 -1.43,0.41 -0.95,0.6 -1.05,0.15 -9.44,-2.29 -6.45,-0.75 -3.28,0.13 -5.71,1.56 -2.73,0.39 -5.19,0 -1.55,0.22 -3,1.05 -1.58,0.34 -9.1,-0.55 -9.26,0.79 -1.48,0.76 -1.57,-0.06 -1.57,-0.36 -1.49,-0.11 -1.1,0.48 -2.31,1.88 -1.52,0.76 -1.68,0.43 -5.42,0.25 0,-0.01 -0.04,-1.73 -0.64,-1.33 -0.22,-0.36 -0.05,-0.23 0.01,-0.23 0.62,-0.2 4.16,-0.46 0.51,-0.15 0.37,-0.26 2.71,-3.66 0.35,-0.18 0.53,-0.12 1.71,-0.11 1,0.09 1.56,-0.03 1.11,-0.21 0.69,-0.31 1.19,-1.23 1.16,-0.71 0.71,0.66 0.15,0.19 0.3,0.27 0.24,0.15 0.24,0.08 0.25,0.06 0.19,0.09 0.19,0.14 0.18,0.22 0.27,0.17 0.24,-0.01 0.26,-0.28 0.13,-0.24 0.26,-0.18 0.38,-0.15 1.36,-0.35 0.42,-0.01 0.44,0.36 0.62,0.73 0.45,0.32 0.57,0.22 1.18,0.28 0.26,0.11 0.14,0.08 0.39,0.04 0.62,-0.01 1.27,-0.2 1.68,-0.02 0.25,-0.14 0.25,-0.67 0.14,-0.12 0.43,0.11 0.59,0.22 1.99,0.48 0.5,-0.13 0.09,-0.36 -0.57,-1.53 -0.09,-0.43 -0.02,-0.21 0.48,-0.29 2.02,0.34 1.68,0.11 0.5,-0.05 0.69,-0.17 0.86,-0.34 1.02,-0.55 1.08,-0.75 2.05,-1.95 0.74,-1.42 -0.25,-6.42 -0.4,-2.25 -0.22,-0.53 0.06,-0.38 0.46,-0.28 0.63,-0.7 1.09,-1.13 -0.1,-0.75 0.02,-0.23 -0.01,-0.36 1.5,-6.13 0.45,-0.76 0.55,-0.48 1.14,-0.03 0.7,0.06 1.55,0.3 0.67,0 0.38,-0.15 0.24,-0.52 0.07,-0.34 0.06,-0.72 0.12,-0.31 0.25,-0.34 0.43,-0.45 0.34,-0.45 0.24,-0.52 0.12,-0.66 -0.02,-0.69 -0.27,-1.42 0.07,-0.34 0.31,-0.11 0.54,-0.04 0.72,0.44 0.37,0.4 0.16,0.47 0,0.47 -0.06,0.46 0,0.47 0.07,0.41 0.36,0.72 0.35,1.01 0.26,0.33 0.55,-0.05 1,-0.81 1.86,-2.53 1.73,-0.1 0.64,0.03 0.59,0.13 0.56,0.2 0.64,0.33 0.37,0.11 0.32,-0.03 0.36,-0.11 0.04,0.15 -0.06,0.32 -0.55,1.21 0.24,0.58 1.34,-1.28 0.15,-0.24 0.44,-1.64 0.19,-1.71 -0.47,-1.15 -0.14,-0.71 -0.19,-0.24 -0.25,-0.11 -0.04,-0.2 0.17,-0.26 1.12,-0.74 0.9,-0.81 0.36,-0.23 1.28,-0.52 0.17,-0.39 -0.06,-0.52 -0.5,-1.23 -0.18,-0.65 0.16,-0.48 0.18,-0.1 0.98,0.44 3.39,2.53 0.67,1.12 -0.31,0.8 0.24,0.29 0.53,0.22 1.24,0.12 z" 
                fill="rgb(151, 144, 238)" 
                stroke="white" 
                stroke-width=".7px"
                title="Santiago de Cuba" 
                id="CU-13" 
            />
        </svg>