<svg xmlns="http://www.w3.org/2000/svg" viewBox="300.77335000000016 8.8883 101.68999999999994 94.19000000000001" width="101.68999999999994" height="94.19000000000001">
            <path 
                d="m 385.07335,36.1183 0,0 3.72,4.23 1.55,1.28 3.29,1.02 2.68,2.22 2.92,1.14 1.44,1.5 1.17,1.75 0.62,1.41 -1.62,-1.46 -0.57,-0.18 -0.63,-0.13 -0.66,-0.3 -0.96,-0.63 -1.06,-0.95 -2.4,-2.7 -1.29,0.47 -1.32,-0.15 -1.22,-0.6 -1.63,-1.27 -0.46,-0.18 -0.28,-0.33 -0.11,-0.89 -0.24,-0.3 -1.14,-0.86 -0.35,-0.18 -0.59,-0.5 -0.37,-1.09 -0.62,-1.09 -1.35,-0.5 -2.12,0.9 -0.95,-0.06 -0.12,-1.42 2.03,-0.62 1.46,-0.08 1.18,0.55 z m -7.88,-4.29 0,0 0.99,0.57 0.39,0.54 -0.64,0.69 -1.11,0.2 -0.5,-0.51 0,-0.54 -0.21,-0.26 -0.28,-0.15 -0.39,0.05 -0.5,-0.13 -1.38,-0.98 -0.64,-0.75 0.08,-0.78 0.9,-0.25 -0.15,-0.49 0.05,-0.67 0.38,-0.25 0.48,0.86 -0.2,1.25 0.5,0.17 1.38,0.3 0.44,0.67 0.41,0.46 z m -16.51,-8.31 0,0 1.11,0.56 0.59,-0.04 -0.05,1.04 -0.76,0.75 -1.53,-0.98 -0.68,0.22 -0.74,1.06 -0.71,0.34 -0.55,-1.91 1.03,-0.63 1.12,-0.4 1.17,-0.01 z m 5.44,4.24 0,0 -0.83,0.11 -0.82,-0.51 -0.47,-0.7 0.22,-0.46 0.44,-0.37 0.17,-0.39 -0.64,-0.1 -0.66,-0.37 0.72,-1.15 1.61,-0.43 0.88,0.27 0.56,0.8 0.1,0.55 -0.44,0.37 -0.85,0.27 -0.51,0.56 0.32,0.44 0.62,0.11 0.12,0.43 -0.54,0.57 z m -29.81,-5.8 0,0 0.65,0.3 0.46,0.46 0.26,0.6 0.05,0.76 -7.21,-1.25 -1.09,-0.87 0.44,-0.35 0.42,-0.18 0.49,0.08 0.6,0.45 3.48,-1.73 1.59,-0.17 1.28,0.84 -0.37,0.22 -0.7,0.61 -0.35,0.23 z m -14.55,1.12 0,0 0.74,0.91 0.94,0.81 1.3,0.34 4.04,-0.01 0.89,0.28 1.08,0.95 1.15,0.66 1.19,0.44 1.22,0.28 2.35,0.08 2.22,-0.47 4.27,-1.68 -0.54,-1.85 1.2,-0.04 3.8,1.9 1.69,0.53 1.43,-0.27 0.27,-1.86 0.77,0.42 0.78,0.55 0.61,0.67 0.24,0.75 1.62,2.94 0.16,0.5 2.71,1.59 0.39,0.07 1.27,-0.07 0.49,0.18 0.21,0.38 0.04,0.38 -0.01,0.17 1.49,-0.45 2.33,-2.22 4.39,-1.24 0.63,0.15 0,0.59 -0.67,0.62 -1.33,0.91 -1.64,-0.79 -0.8,0.63 -0.93,2.82 0.78,1.2 0.45,0.52 0.68,0.44 0.76,0.21 2.94,0.27 1.27,0.43 4.2,3.01 0.23,0.37 0.27,0.34 0.43,0.14 0.39,-0.18 0.43,-0.38 0.32,-0.38 0.08,-0.17 1.63,-0.21 0.61,0.4 1.77,7.85 0.04,0.05 1.07,0.35 0.87,0.45 0.77,0.62 0.81,0.89 0.82,1.23 0.98,2.4 0.66,1.13 1.82,2.05 0.4,0.35 1.07,0.21 2.06,0.04 0.83,0.23 1.9,2.96 0.37,0.89 0.57,0.48 -0.04,0.08 0.03,1.78 -1.32,2.48 0.83,0.65 0.6,0.97 2.4,4.82 2.03,2.81 0.05,0.57 -0.28,0.96 -0.18,0.93 0.08,1.23 -0.22,1.39 -1.84,-0.3 -1.78,-0.94 -0.7,-0.16 -0.88,0.06 -1.26,0.47 -0.85,0.45 -1.28,1.32 -0.39,1.39 -0.37,0.97 -0.53,1.08 -0.61,0.82 -0.64,0.59 -0.8,0.34 -1.01,0.13 -1.01,-0.42 -0.62,-0.42 -0.97,-0.44 -1.46,0.47 -2.93,-0.89 -0.66,-0.05 -0.95,0.1 -1.02,0.7 -0.52,0.28 -0.62,0.04 -0.74,-0.19 -0.75,-0.66 -0.36,-0.53 -0.26,-0.5 -0.83,-0.69 -2.37,-0.06 -0.78,0.7 -0.15,0.53 0.03,0.8 0.46,1.33 1.04,2.05 0.32,0.87 0.26,0.5 0.22,0.23 0.31,0.07 0.36,-0.04 0.42,0.02 0.32,0.16 0.27,0.42 -0.06,1.01 -0.38,1.42 -1.18,2.38 -1.41,2.32 -1.77,1.52 -2.13,-0.16 -1.02,-0.54 -0.35,-0.27 -0.52,-0.22 -4.15,-1 -0.68,0.09 -0.73,0.31 -0.71,0.91 -0.27,0.61 -0.15,0.65 -0.2,0.4 -0.36,0.23 -1.06,-0.09 -0.49,0.14 -1.33,1.09 -2.54,1.19 0.06,-1.05 -0.11,-0.16 -1.45,-1.11 -0.24,-0.67 -0.11,-0.73 0.05,-1.16 -0.12,-2.05 -0.18,-0.63 -0.38,-0.53 -1.34,-1.12 -0.48,-0.95 -0.37,-1.05 -0.75,-3.06 -0.05,-0.65 0.05,-1.52 -0.27,-2.99 0.08,-0.7 0.28,-0.64 0.26,-0.45 0.78,-2.49 -1.8,-0.83 -0.88,-1.16 -0.62,-1.15 -0.4,-0.88 -0.19,-0.7 -0.23,-1.73 -0.12,-0.28 -0.17,-0.14 -0.3,-0.07 -0.37,0.04 -1.07,0.33 -0.51,0.04 -0.51,-0.1 -0.88,-0.46 -2.6,-2.55 -0.44,-0.61 -0.25,-0.5 -0.03,-0.83 1.36,-1.49 0.23,-1.02 -0.2,-0.33 -0.27,-0.3 -0.51,-0.27 -0.29,-0.56 -0.04,-0.44 0.12,-0.56 0.28,-0.67 -0.22,-0.79 -1.36,-0.77 -0.25,-0.4 -0.8,-1.87 -0.08,-0.68 0.02,-0.4 0.22,-0.19 0.23,-0.11 0.28,-0.08 0.21,-0.11 0.17,-0.38 0.11,-0.65 0,-1.37 -0.1,-0.51 -0.15,-0.23 -0.19,0.15 -0.33,0.38 -0.21,0.14 -0.43,0.08 -0.46,0 -1,-0.09 -0.42,0.01 -0.25,0.1 -0.24,0.29 -0.26,0.51 -0.54,1.72 -0.14,0.21 -0.23,0.13 -0.39,0.02 -0.55,-0.02 -0.39,0.03 -0.33,0.13 -0.8,0.53 -0.46,0.23 -0.81,0.28 -0.39,0.01 -0.32,-0.1 -0.11,-0.18 -0.05,-0.21 0.06,-0.34 0.35,-1.03 0.14,-0.73 0.04,-1.12 -0.34,-0.42 -0.6,-0.12 -1.77,0.35 -1.71,-1.42 -0.37,-0.13 -0.6,-0.05 -0.34,0.19 -0.27,0.25 -0.2,0.3 -0.87,1.01 -2.97,1.74 -1.04,-1.79 -0.44,-0.49 -0.32,-0.77 -0.2,-0.78 -0.17,-1.53 -0.35,-0.6 -0.32,-0.37 -0.17,-0.32 -0.07,-0.57 0.37,-3.64 -0.03,-0.67 -0.12,-0.51 -0.33,-0.53 -0.52,-0.55 -0.12,-0.34 0.09,-0.44 0.4,-0.59 0.67,-0.29 0.37,-0.22 0.1,-0.4 -0.19,-0.58 -1.08,-1.86 -0.51,-1.6 -0.31,-0.68 -0.08,-0.26 -0.3,-0.68 -0.2,-0.3 -0.53,-0.23 -0.69,0.01 -1.4,0.54 -1.41,1.04 -0.53,0.23 -1.15,0.08 -1.44,-1.26 -1.2,-0.79 -0.29,-0.27 -0.21,-0.3 -0.21,-0.43 -0.45,-0.65 -0.74,-0.81 -0.24,-0.37 -0.14,-0.36 -0.08,-0.51 -0.14,-0.25 -0.26,-0.19 -0.27,-0.15 -0.12,-0.22 0.09,-0.29 0.51,-0.29 0.36,-0.37 0.39,-0.56 0.18,-1.13 -0.08,-0.63 -0.29,-1.18 -0.04,-0.87 0.05,-0.61 0.2,-0.74 0.24,-0.33 0.38,-0.2 1.78,0.05 0.3,-0.04 1.01,-0.38 0.34,-0.09 0.39,-0.02 0.27,0.05 0.29,0.14 0.62,0.43 0.33,0.07 0.42,-0.04 0.72,-0.23 0.52,-0.42 0.35,-0.61 0.04,-1.3 -0.05,-0.8 0.21,-1.78 1.14,-2.21 0.44,-0.19 0.01,0 2.59,4.72 1.47,1.04 1.14,0.08 2.9,0.56 1.09,0.42 0.68,0.64 z m 27.93,-6.68 0,0 0.23,0.64 0.27,0.57 0.29,1.03 -0.2,0.2 -0.4,-0.59 -0.33,-0.36 -0.3,0.02 -0.47,0.1 -0.58,-0.08 -0.41,-0.35 -0.26,-0.43 0.02,-0.18 0.25,0.05 0.11,-0.42 0.13,-0.93 0.78,-0.19 0.87,0.92 z m -5.57,-1.39 0,0 -1.43,0.67 -1.45,-0.29 -3.02,-1.44 0.16,-0.8 0.38,-0.57 0.47,-0.57 0.45,-0.76 0.54,0 0.45,1 0.78,0.87 0.95,0.6 0.99,0.23 1.15,0.04 0.38,0.16 -0.2,0.32 -0.6,0.54 z m -7.31,-0.73 0,0 -0.41,0.03 -0.48,-0.34 -0.34,-0.54 -0.29,-0.59 -0.56,-0.19 -1.06,-0.61 -0.32,-0.14 -0.12,-0.35 -0.13,-0.17 -0.46,-0.3 -0.2,-0.63 0.7,-0.46 0.53,-0.1 0.53,-0.05 0.62,0.18 -0.01,0.44 0.51,0.54 1.04,0.95 0.45,0.6 0.18,0.25 0.28,0.52 -0.09,0.52 -0.37,0.44 z m -9.54,-4.85 0,0 -0.58,0.14 -0.56,-0.05 -1.84,0.24 -0.69,0.56 -1.08,0.47 -0.98,0.26 -0.12,-0.14 -0.17,-0.51 0.27,-0.16 0.64,0.08 -0.12,-0.69 0.36,-0.43 1.02,-0.15 0.53,-0.02 1.64,-0.14 0.82,0.01 0.98,0.18 -0.12,0.35 z" 
                fill="rgb(151, 144, 238)" 
                stroke="white" 
                stroke-width=".7px"
                title="Villa Clara" 
                id="CU-05" 
            />
        </svg>