<svg xmlns="http://www.w3.org/2000/svg" viewBox="414.0648600000001 107.0928699999999 51.539999999999964 77.03000000000004" width="51.539999999999964" height="77.03000000000004">
            <path 
                d="m 425.83486,109.20287 0,0 4.26,-0.31 -0.02,9.47 -0.83,3.51 3.56,2.6 1.16,3.6 13.16,6.41 -0.17,10.47 0.69,17.07 2.51,0.95 8.24,4.44 1.05,2.32 2.31,2.63 1.22,2.93 2.37,1.95 0.26,1.25 -1.44,0.84 -3.2,0.07 -7.69,0.93 -6.69,-0.79 -6.81,-0.08 -6.31,3.56 -3.02,0.89 -3.21,0.21 -2.22,-3.04 -3.12,-2.3 -6.84,-9.24 -0.99,-7.53 2.9,-6.96 5.33,-4.99 0.01,-3.6 -0.75,-3.15 -1.56,-2.67 -0.41,-3.12 -0.68,-2.8 0.17,-3.11 -1.46,-18.81 -0.39,-5.71 5.56,0.58 3.05,1.53 z" 
                fill="rgb(151, 144, 238)" 
                stroke="white" 
                stroke-width=".7px"
                title="Abim" 
                id="UG-317" 
            />
        </svg>