<svg xmlns="http://www.w3.org/2000/svg" viewBox="193.18486000000001 66.36287000000002 67.84999999999997 74.82" width="67.84999999999997" height="74.82">
            <path 
                d="m 261.03486,69.16287 0,0 0,0.08 -0.51,14.87 -0.68,1.3 -1.29,0.69 -0.2,2.12 0.22,2.2 0.89,1.83 0.25,1.77 -2.05,3.75 -0.23,2.17 0.51,2.24 -0.59,1.94 -1.08,1.86 -1.25,1.66 -1.56,1.42 -0.64,1.99 -0.14,2.23 -3.84,6.25 -0.23,2.12 -0.42,2.07 -20.84,6.47 -10.99,1.74 -3.24,4.53 -2.59,3.75 -1.46,0.92 -1.93,0.05 -1.34,-0.7 -0.91,-1.48 -2.72,-0.76 -2.19,-2.84 -2.51,-2.12 -4.29,-1.16 1.36,-3.99 1.54,-2.19 4.73,-5.02 3.83,-5.79 1.26,-2.72 2.78,-5.97 1.22,-4.4 0.45,-2.81 0.33,-0.82 0.53,-0.7 0.71,-0.7 0.63,-0.8 0.89,-3.59 1.53,-1.94 3.59,-3.59 0.67,-1.96 0.5,-2.63 0.71,-2.32 1.82,-1.43 0.52,-0.98 0.69,-0.98 1.09,-0.44 2.29,-0.21 2.37,-0.51 1.01,-0.63 2.54,-2.28 2.19,-0.82 1.19,-0.2 -0.22,1.35 1.06,0.2 1.88,-0.14 0.94,0.83 1.19,0.77 1.27,0.6 1.23,0.32 2.35,-0.2 2.06,-1.13 1.43,-1.81 0.54,-2.26 1.16,-1.47 5.26,-1.55 1.4,-0.85 0.82,0.05 1.19,0.63 1.32,2.12 z" 
                fill="rgb(151, 144, 238)" 
                stroke="white" 
                stroke-width=".7px"
                title="Adjumani" 
                id="UG-301" 
            />
        </svg>