<svg xmlns="http://www.w3.org/2000/svg" viewBox="365.28486000000004 96.27287000000007 57.019999999999925 74.07999999999998" width="57.019999999999925" height="74.07999999999998">
            <path 
                d="m 414.30486,99.82287 0,0 2.4,-0.34 0.52,7.61 0.39,5.71 1.46,18.81 -0.17,3.11 0.68,2.8 0.41,3.12 1.56,2.67 0.75,3.15 -0.01,3.6 -5.33,4.99 -2.9,6.96 0.99,7.53 -5.95,0.27 -4.68,-3.7 -1.63,1.75 -1.89,0.83 -2.4,-0.9 -2.25,-0.28 -1.72,1.77 -1.97,1.07 -4.26,-1.39 -4.39,0.39 -1.67,-0.5 -1.67,-0.13 -2.39,0.82 -1.78,-0.92 -1.5,-1.13 -2.06,0.44 -5.12,-6.64 -2.44,-3.66 2.74,-3.04 13.39,-0.61 3.35,-3.66 0.6,-7 -2.13,-3.66 -6.69,-0.3 -5.48,-0.92 -0.6,-3.65 3.04,-2.44 2.13,-2.44 0,-4.26 3.65,-9.75 2.48,-8.01 6.1,1.03 4.14,-1.44 4.92,-0.42 -0.89,-6.92 6.79,0.24 -2.85,-4.11 8.45,0.88 1.85,1.08 1.73,1.4 2.3,0.19 z" 
                fill="rgb(151, 144, 238)" 
                stroke="white" 
                stroke-width=".7px"
                title="Agago" 
                id="UG-322" 
            />
        </svg>