<svg xmlns="http://www.w3.org/2000/svg" viewBox="347.94486 183.82286999999994 68.59000000000003 45.83000000000004" width="68.59000000000003" height="45.83000000000004">
            <path 
                d="m 400.27486,196.31287 0,0 10.04,0 2.74,-1.83 3.24,0.11 -0.12,2.72 0.36,4.16 -3.01,2.95 -3.68,2.59 -4.18,0.07 1.12,1.63 1.61,1.33 0.63,2.04 -0.51,2.31 -0.33,0.89 -0.42,0.85 0.27,1.2 0.42,0.96 -1.47,1.74 -2.1,0.62 -1.17,-1.68 -1.62,-0.35 -4.15,3.47 -0.54,4.11 0.69,3.45 -3.97,-2.03 -4.36,-0.07 -1.37,-2.36 -1.65,-2.04 -5.14,-0.99 -4.1,-2.11 -1.87,0.77 -2,-0.41 -1.88,3.03 -3.36,1.32 -0.67,-16.27 -2.13,-3.66 -3.96,-2.13 -3.95,-3.04 -1.52,-3.66 -3.65,-1.21 -4.57,0 0.61,-2.44 4.57,-1.83 2.73,-3.04 0,-3.05 5.48,1.22 4.87,0 2.43,-1.83 3.96,0 4.56,1.83 1.52,3.96 2.13,2.13 4.87,1.22 7.91,0.3 5.17,1.83 1.52,1.22 z" 
                fill="rgb(151, 144, 238)" 
                stroke="white" 
                stroke-width=".7px"
                title="Alebtong" 
                id="UG-323" 
            />
        </svg>