<svg xmlns="http://www.w3.org/2000/svg" viewBox="397.40486 188.66287000000005 56.45999999999992 73.36999999999995" width="56.45999999999992" height="73.36999999999995">
            <path 
                d="m 453.71486,199.97287 0,0 -1.98,4.83 -0.85,5.04 0.63,1.74 1.18,1.38 1.02,4.56 0.15,2.4 -1.06,2.25 -0.63,1.79 0.18,1.96 0.72,1.07 0.22,1.1 -0.68,1.01 -0.56,1.07 -0.06,1.72 0.78,1.58 -0.46,4.71 0.59,2.17 -0.1,2.07 -3.44,2.67 -1.27,2.66 1.76,3.62 0.14,4.1 -2.42,3.77 -3.92,2.79 -1.1,-1.24 -0.88,-1.2 -0.31,-2.25 -0.56,-2.15 -3.01,-3.45 -3.59,-2.92 -0.92,-1.23 -1.02,-1.08 -2.25,-1.13 -1.9,-1.61 -0.41,-1.79 -0.68,-1.8 -2.09,-0.85 -2.23,-0.48 -3.44,-1.95 -2.59,-2.85 -1.96,-3.74 -4.03,-0.88 -2.48,1.84 -0.59,3.38 -1.21,4.26 -0.76,4.47 -2.75,-3.12 -0.1,-4.2 -1.39,-1.32 -1.95,-0.99 -0.88,-1.96 -0.48,-2.14 -0.69,-3.45 0.54,-4.11 4.15,-3.47 1.62,0.35 1.17,1.68 2.1,-0.62 1.47,-1.74 -0.42,-0.96 -0.27,-1.2 0.42,-0.85 0.33,-0.89 0.51,-2.31 -0.63,-2.04 -1.61,-1.33 -1.12,-1.63 4.18,-0.07 3.68,-2.59 3.01,-2.95 -0.36,-4.16 0.12,-2.72 3.11,1.91 3.54,0.57 2.89,-2.94 3.68,-0.17 5.26,-5.3 2.6,1.11 16.34,10.2 z" 
                fill="rgb(151, 144, 238)" 
                stroke="white" 
                stroke-width=".7px"
                title="Amuria" 
                id="UG-216" 
            />
        </svg>