<svg xmlns="http://www.w3.org/2000/svg" viewBox="189.57485999999997 69.16286999999998 103.00999999999996 98.19999999999997" width="103.00999999999996" height="98.19999999999997">
            <path 
                d="m 271.60486,74.14287 0,0 1.27,-0.05 0.68,-0.9 0.14,-0.66 2.1,2.71 0.49,1.95 1.09,1.71 0.59,2.09 4.13,4.16 1.25,3.37 5.37,6.27 3.87,2.82 -3.99,3.61 -3.9,5.37 -6.57,5.6 -1.95,3.17 -2.19,6.58 -0.24,6.1 1.78,4.38 2.36,17.31 -0.25,2.43 -1.32,3.52 -2.21,-1.11 -4.43,-1.11 -3.69,-2.58 -4.79,0 -3.69,-0.37 -3.69,-2.22 -24.71,0.37 -2.95,2.59 -1.48,4.06 -12.17,0 -4.43,2.22 -4.79,5.17 -3.32,3.32 -4.57,1.34 -0.74,-2.2 0.33,-2.45 0.55,-0.57 1.79,-0.94 0.57,-0.56 0.18,-1.26 -0.27,-1.25 -0.42,-1.18 -0.57,-3.67 -1.02,-1.23 -1.57,-0.81 -2.02,-1.4 -2.27,-3.71 -0.36,-4.34 0.95,-4.25 2.66,-5.42 4.29,1.16 2.51,2.12 2.19,2.84 2.72,0.76 0.91,1.48 1.34,0.7 1.93,-0.05 1.46,-0.92 2.59,-3.75 3.24,-4.53 10.99,-1.74 20.84,-6.47 0.42,-2.07 0.23,-2.12 3.84,-6.25 0.14,-2.23 0.64,-1.99 1.56,-1.42 1.25,-1.66 1.08,-1.86 0.59,-1.94 -0.51,-2.24 0.23,-2.17 2.05,-3.75 -0.25,-1.77 -0.89,-1.83 -0.22,-2.2 0.2,-2.12 1.29,-0.69 0.68,-1.3 0.51,-14.87 0,-0.08 0.69,1.1 1.59,1.65 1.75,0.91 6.54,1.32 z" 
                fill="rgb(151, 144, 238)" 
                stroke="white" 
                stroke-width=".7px"
                title="Amuru" 
                id="UG-319" 
            />
        </svg>