<svg xmlns="http://www.w3.org/2000/svg" viewBox="265.95486 212.88287000000005 96.07999999999998 55.44999999999996" width="96.07999999999998" height="55.44999999999996">
            <path 
                d="m 317.82486,213.05287 0,0 7.61,0 1.83,2.14 2.12,1.82 3.96,0.31 2.13,1.82 4.5,1.4 1.6,1.57 1.82,1.09 2.28,-0.13 2.13,0.81 -0.87,4.77 -1.6,4.55 0.41,3.68 4.63,0.7 3.54,1.6 -0.35,6.31 8.47,5.18 -3.68,10.62 -10.52,-9.66 -11.96,0.69 -8.11,7.17 -6.87,6.35 -3.61,2.06 -7.32,-0.08 -18.32,-0.26 -4.74,0.69 -7.04,-2.05 -2.41,-0.84 -3.58,-0.12 -3.81,1.07 -3.83,2.02 -0.28,-1.86 1.07,-3.28 -0.79,-1.9 1.17,-1.42 3.21,-3.01 0.66,-0.97 1.06,-1.14 4.82,-1.02 1.29,-1.1 1.17,0.5 0.85,-0.29 0.82,-0.56 1.06,-0.3 1.2,-0.48 0.41,-1.16 0.14,-1.33 0.38,-1.04 1.78,-0.68 2.7,-0.7 1.98,-1.18 -0.41,-2.09 0.53,-0.68 0.19,-0.9 -0.01,-2.3 0.2,-0.9 0.54,-0.73 1.45,-1.54 -1.35,-0.46 -1.13,-0.25 -0.78,-0.51 -0.29,-1.26 0.3,-1.38 1.42,-2.76 0.41,-1.26 -0.05,-1.96 -0.47,-2.34 7.9,3.3 4.99,-1 6.39,-9.77 1.84,-3.74 5.22,0.17 z" 
                fill="rgb(151, 144, 238)" 
                stroke="white" 
                stroke-width=".7px"
                title="Apac" 
                id="UG-302" 
            />
        </svg>