<svg xmlns="http://www.w3.org/2000/svg" viewBox="124.66486000000002 91.21286999999994 79.97999999999998 79.11000000000003" width="79.97999999999998" height="79.11000000000003">
            <path 
                d="m 192.79486,104.63287 0,0 2.16,4.5 0.51,4.74 9.18,1.26 -3.83,5.79 -4.73,5.02 -1.54,2.19 -1.36,3.99 -2.66,5.42 -0.95,4.25 0.36,4.34 2.27,3.71 -4.64,2.44 -1.94,0.86 -0.48,1.41 -0.9,1.62 -1.5,1.16 -0.54,1.57 0.17,2.14 -1.1,1.5 -3.73,2.92 -10.12,1.32 -4.15,2.37 -6.93,1.17 -6.19,-2.69 0.01,-4.74 -1.36,-3.83 -1.02,-4.19 -4.32,0.61 -5.86,2.01 -3.54,2.32 -6.6,1.45 2.8,-7.55 0.13,-0.54 0.02,-1.03 0.26,-0.59 0.44,-0.29 1.26,-0.24 0.41,-0.21 0.71,-1.03 2.57,-7.01 0.15,-4.15 -1.13,-4.13 -2.4,-4.2 -1.8,-1.66 -4.85,-3.38 -1.24,-1.55 -0.13,-1.99 0.42,-2.22 1.61,-4.87 4.61,0.15 11.25,0.5 3.64,-4.05 4.38,-2.93 2.92,-3.17 0.73,-5.36 2.69,-4.89 2.19,2.16 2.95,-0.59 2.01,-1.56 0.86,-2.47 2.11,-1.2 2.66,0.43 3.01,0.94 2.06,2.14 4.26,3.14 5.28,1.51 1.95,1.69 1.26,2.46 2.44,0.75 2.84,0.36 z" 
                fill="rgb(151, 144, 238)" 
                stroke="white" 
                stroke-width=".7px"
                title="Arua" 
                id="UG-303" 
            />
        </svg>