<svg xmlns="http://www.w3.org/2000/svg" viewBox="421.5848599999999 363.56287 37.48000000000013 42.799999999999955" width="37.48000000000013" height="42.799999999999955">
            <path 
                d="m 434.96486,367.19287 0,0 1.95,-2.56 3.21,4.56 3.22,-0.1 3.27,-1.02 1.44,0.13 1.44,0.4 1.81,3.78 1.35,4.11 6.41,4.64 -0.87,1.71 -1.94,0.39 -3.68,4.99 -0.23,2.3 -3.55,2.09 -2.04,2.86 -1.02,4.49 -3.27,-0.2 -3.47,1.43 -3.68,2.65 -4.6,2.52 0.9,-4.86 -5.51,-1.27 -2.11,-2.71 -2.41,-1.51 1.24,-2.2 0.1,-1.16 -0.03,-1.14 -0.08,-4 0.91,-4.11 2.61,-2.86 1.97,-3.15 0.73,-4.15 -0.27,-4.16 -2.82,-2.81 -0.87,-2.71 3.32,1.78 3.46,1.44 3.11,0.41 z" 
                fill="rgb(151, 144, 238)" 
                stroke="white" 
                stroke-width=".7px"
                title="Bugiri" 
                id="UG-201" 
            />
        </svg>