<svg xmlns="http://www.w3.org/2000/svg" viewBox="318.3548599999999 378.7528700000001 69.5 109.17999999999995" width="69.5" height="109.17999999999995">
            <path 
                d="m 369.71486,383.20287 0,0 6.15,5.16 2.4,3.06 0.68,3.86 -0.37,3.74 3.21,2.4 6.07,1.97 -4.98,2.74 -3.38,2.63 -0.75,3.7 -1.17,4.33 -4.23,4.14 -5.74,9.44 -6.71,24.77 -17.33,32.79 0,-31.12 -25.21,0 17.49,-20.82 9.12,-10.76 0.16,-3.53 3.03,-3.36 2.86,-5.21 6.05,-5.88 4.53,-4.87 0.84,-5.72 -2.85,-4.03 -1.68,-5.88 0.33,-5.04 4.52,-2.96 1.36,1.61 5.6,2.84 z" 
                fill="rgb(151, 144, 238)" 
                stroke="white" 
                stroke-width=".7px"
                title="Buikwe" 
                id="UG-117" 
            />
        </svg>