<svg xmlns="http://www.w3.org/2000/svg" viewBox="455.89486000000005 277.92287 35.54000000000002 40.860000000000014" width="35.54000000000002" height="40.860000000000014">
            <path 
                d="m 485.81486,310.61287 0,0 -2.32,5.07 -3.64,3.1 -2.19,-0.41 -2.01,-1.12 -4.88,-1.26 -2.06,-1.15 -2.12,-0.76 -9.06,-1.87 -1.64,-2.07 3.64,-2.7 4.22,-2.41 -0.3,-6.02 0,-4.22 2.11,-1.81 3.01,-2.11 -0.6,-6.63 4.52,-2.71 6.32,-1.2 8.62,-2.41 -0.2,6.92 0.19,2.48 1.35,1.74 2.66,5.1 -1.14,5.55 -0.95,2.74 -0.55,2.88 -1.22,2.77 -1.76,2.51 z" 
                fill="rgb(151, 144, 238)" 
                stroke="white" 
                stroke-width=".7px"
                title="Bukedea" 
                id="UG-224" 
            />
        </svg>