<svg xmlns="http://www.w3.org/2000/svg" viewBox="520.3548600000004 292.10287000000005 27.51999999999964 33.96999999999986" width="27.51999999999964" height="33.96999999999986">
            <path 
                d="m 544.78486,297.06287 0,0 0.2,1.96 1.81,4.23 1.08,4.15 -1.31,4.22 -3.31,1.51 -8.56,0.87 -2.16,1.33 -3.55,3.41 -5.05,1.15 -0.71,1.9 -0.17,2.35 -0.53,0.9 -0.59,1.01 -0.12,0.02 -0.01,-0.02 -0.28,-0.62 -1.17,-5.24 0.25,-5.28 2.29,-5.02 3.46,-4.21 2.55,-1.65 2.77,-1.08 2.19,-0.34 2.02,-1 3.33,-4.25 1.56,-5.26 3.95,4.9 0.06,0.06 z" 
                fill="rgb(151, 144, 238)" 
                stroke="white" 
                stroke-width=".7px"
                title="Bukwa" 
                id="UG-218" 
            />
        </svg>