<svg xmlns="http://www.w3.org/2000/svg" viewBox="485.81486000000007 277.18287000000004 32.289999999999964 41.700000000000045" width="32.289999999999964" height="41.700000000000045">
            <path 
                d="m 493.59486,278.76287 0,0 9.24,-1 4.55,3.01 3.27,4.29 -2.04,4.32 -4.92,2.22 -3.23,2.09 -2.65,2.74 -1.62,2.77 -0.5,3.12 2.02,2.22 10.68,4.29 7.01,3.85 2.7,2.64 -0.02,3.56 -3.12,-0.59 -4.22,-0.9 -5.12,-0.61 -2.71,-2.71 -7.83,-2.11 -9.27,-1.35 1.76,-2.51 1.22,-2.77 0.55,-2.88 0.95,-2.74 1.14,-5.55 -2.66,-5.1 -1.35,-1.74 -0.19,-2.48 0.2,-6.92 1.62,-0.51 1.62,-0.23 1.41,0.93 1.51,0.65 z" 
                fill="rgb(151, 144, 238)" 
                stroke="white" 
                stroke-width=".7px"
                title="Bulambuli" 
                id="UG-225" 
            />
        </svg>