<svg xmlns="http://www.w3.org/2000/svg" viewBox="37.25486000000001 340.4928700000001 36.219999999999985 57.11999999999995" width="36.219999999999985" height="57.11999999999995">
            <path 
                d="m 64.98486,365.46287 0,0 -1.62,2.7 -1.3,2.82 -0.98,3.21 -2.2,2.37 -2.56,4.47 -2.01,4.91 -1.07,1.3 -1,1.48 -1.19,0.77 -1.38,0.54 -1.54,2.19 -1.08,2.5 -2.08,1.11 -0.62,0.65 -1.33,0.67 -1.32,0.46 -0.8,-0.11 -0.7,-0.37 -1.15,-1 -0.92,-0.95 -0.88,-0.95 1.97,-2.28 0.33,-0.72 1.5,-3.25 -0.26,-4.06 -1.92,-8.41 0.05,-2.14 1.28,-8.79 -0.57,-5.38 0.15,-1.06 1.98,-4.12 1.35,-0.78 2.28,-1.76 1.48,-1.14 4.37,-1.97 11.11,-2.52 1.01,-0.58 1.13,-1.33 1.85,-3.45 2.37,6.2 4.76,4.38 -2.62,1.24 -1.82,2.38 -0.72,5 -0.85,0.89 -0.99,1.24 -1.49,3.64 z" 
                fill="rgb(151, 144, 238)" 
                stroke="white" 
                stroke-width=".7px"
                title="Bundibugyo" 
                id="UG-401" 
            />
        </svg>