<svg xmlns="http://www.w3.org/2000/svg" viewBox="450.73486 379.80287000000004 26.490000000000066 39.35999999999996" width="26.490000000000066" height="39.35999999999996">
            <path 
                d="m 477.22486,380.58287 0,0 -2.51,10.27 -0.32,0.88 -0.73,1.09 -1.8,2.13 -0.46,0.95 0.11,1.91 1.17,3.8 -0.29,2.12 -0.89,1.37 -3.75,2.91 -8.36,11.15 -0.04,-0.03 -0.89,-0.72 -1.6,-1.97 -3.27,-4.5 -2.4,-4.8 -0.46,-3.12 1.28,-2.61 1.74,-1.71 1.23,-1.89 -0.31,-2.65 -2.33,-4.64 0.23,-2.3 3.68,-4.99 1.94,-0.39 0.87,-1.71 2,0.27 1.98,0.01 1.73,-0.96 1.84,-0.65 10.08,0.68 0.48,0.09 0.05,0.01 z" 
                fill="rgb(151, 144, 238)" 
                stroke="white" 
                stroke-width=".7px"
                title="Busia" 
                id="UG-202" 
            />
        </svg>