<svg xmlns="http://www.w3.org/2000/svg" viewBox="436.77486000000005 332.22287 38.84000000000003 36.379999999999995" width="38.84000000000003" height="36.379999999999995">
            <path 
                d="m 472.37486,345.93287 0,0 -2.12,0.16 -1.74,0.96 -1.5,1.26 -1.81,0.72 -1.96,0.01 -1.9,0.24 -3.36,2.28 -2.42,3.27 -5.19,11.62 -0.09,1.23 -0.79,0.92 -1.44,-0.4 -1.44,-0.13 -1.56,-3.56 -1.48,-1 -1.01,-0.95 -0.8,-3.3 -1.49,-3.54 -0.33,-3.65 0.16,-3.8 -0.87,-3.37 -2.46,-2.49 4.97,-1.32 5.51,1.03 5.94,1.22 5.62,-2.18 5.67,-4.86 6.24,-4.08 2.68,0.29 2.21,0.98 -0.49,1.97 -0.74,1.92 -0.32,4.47 -1.69,4.08 z" 
                fill="rgb(151, 144, 238)" 
                stroke="white" 
                stroke-width=".7px"
                title="Butaleja" 
                id="UG-219" 
            />
        </svg>