<svg xmlns="http://www.w3.org/2000/svg" viewBox="345.3348599999998 220.05286999999998 44.43000000000018 42.829999999999984" width="44.43000000000018" height="42.829999999999984">
            <path 
                d="m 389.76486,227.55287 0,0 -0.91,8.35 -0.57,1.09 -0.97,0.76 -1.24,2.12 -1.6,1.8 -9.36,5.82 -1.32,0.52 -0.9,1.01 -0.68,3.42 -2.12,5.99 -0.35,1.5 -0.45,1.19 -1.58,0.87 -1.66,0.64 -3.79,0.25 -3.91,-1.59 3.68,-10.62 -8.47,-5.18 0.35,-6.31 -3.54,-1.6 -4.63,-0.7 -0.41,-3.68 1.6,-4.55 0.87,-4.77 4.22,0.32 3.84,0.71 3.47,2.25 3.61,1.87 3.14,-0.88 2.31,-3.39 3.36,-1.32 1.88,-3.03 2,0.41 1.87,-0.77 4.1,2.11 5.14,0.99 1.65,2.04 1.37,2.36 z" 
                fill="rgb(151, 144, 238)" 
                stroke="white" 
                stroke-width=".7px"
                title="Dokolo" 
                id="UG-318" 
            />
        </svg>