<svg xmlns="http://www.w3.org/2000/svg" viewBox="186.15485999999999 404.7128700000002 83.94 30.639999999999986" width="83.94" height="30.639999999999986">
            <path 
                d="m 231.74486,412.98287 0,0 5.06,-2.6 2.68,0.83 2.43,3.85 1.88,1.1 2.38,0.68 2.01,-0.19 1.5,-1.12 2.33,0.53 1.87,-0.63 1.11,-1.09 2.2,-0.14 12.9,-0.98 -1.67,2.36 -5.92,1.48 -6.82,3.85 -3.85,5.04 -5.03,2.37 -7.7,3.26 -5.21,3.05 -3.85,-1.71 -6.18,-0.94 -2.64,1.36 -2.38,1.6 -2.92,0.41 -3.02,-0.65 -7.69,-5.21 -8.15,-4.48 -2.13,-0.91 -2.34,-3.65 -1.74,-1.13 -4.7,-0.35 0.22,-5.46 3.85,-1.48 6.52,-1.19 6.51,-2.07 7.9,-4.06 4.55,0.21 3.85,1.18 7.11,2.37 5.08,4.51 z" 
                fill="rgb(151, 144, 238)" 
                stroke="white" 
                stroke-width=".7px"
                title="Gomba" 
                id="UG-121" 
            />
        </svg>