<svg xmlns="http://www.w3.org/2000/svg" viewBox="104.29485999999991 248.2528700000001 100.4900000000001 83.08999999999997" width="100.4900000000001" height="83.08999999999997">
            <path 
                d="m 188.93486,258.92287 0,0 0.4,1.35 0.13,1.49 0.87,1.24 -1.19,5.64 1.37,3.88 2.44,-0.76 2.3,-0.41 0.73,2.16 1.31,14.41 0.48,5.36 1.81,1.96 2.37,1.8 2.83,1.12 -7.9,7.89 -3.03,1.17 -5.95,3.01 -3.52,1.06 -2.83,2.25 -4.46,-0.69 -3.93,0.07 -1.61,1.93 -2.1,0.92 -2.86,-0.27 -2.8,0.19 -2.33,3.29 -2.71,-0.22 -1.98,-0.37 -4.02,2.2 -4.83,0.62 -9.95,3.59 -6.94,-1.95 -3.7,1.36 -2.75,3.03 -7.04,2.87 -8.57,1.23 -4.68,-3.3 0.19,-9.07 0.39,-18.14 4.53,-5.84 8.79,-11.31 14.08,-11.36 14.3,-11.58 7.43,-5.99 5.18,-6.5 26.16,2.05 3.5,3.21 0.09,5.41 z" 
                fill="rgb(151, 144, 238)" 
                stroke="white" 
                stroke-width=".7px"
                title="Hoima" 
                id="UG-403" 
            />
        </svg>