<svg xmlns="http://www.w3.org/2000/svg" viewBox="73.23485999999997 422.83287 50.440000000000026 47.21999999999997" width="50.440000000000026" height="47.21999999999997">
            <path 
                d="m 116.73486,427.33287 0,0 6.94,0 -4.73,8.98 -5.07,4.9 -3.68,6.13 -2.04,6.94 8.83,2.87 -2.59,1.38 -1.89,2.02 -0.57,2.94 -6.28,0.83 -6,2.15 -1.95,-0.78 -2.28,0.47 -1.09,0.84 -0.37,1.38 -0.82,1.36 -1.57,0.31 -1.13,-0.96 -0.73,-1.38 -8.81,-5.84 -2.74,-1.82 -1.56,-0.19 -1.08,-4.03 -2.29,-3.51 2.99,0.24 2.94,0.57 8.56,3.84 2.87,0.85 2.42,-1.03 2.54,-0.72 -1.84,-2.37 -1.96,-1.29 -1.23,-5.93 -1.57,-3.69 2.88,-4.94 4.83,-8.45 3.15,-1.43 5.61,-1.38 3.58,-1.79 5.28,-1.97 2.45,4.5 z" 
                fill="rgb(151, 144, 238)" 
                stroke="white" 
                stroke-width=".7px"
                title="Ibanda" 
                id="UG-416" 
            />
        </svg>