<svg xmlns="http://www.w3.org/2000/svg" viewBox="403.21485999999976 348.16287 25.82000000000022 45.64999999999998" width="25.82000000000022" height="45.64999999999998">
            <path 
                d="m 425.07486,363.56287 0,0 0.87,2.71 2.82,2.81 0.27,4.16 -0.73,4.15 -1.97,3.15 -2.61,2.86 -0.91,4.11 0.08,4 0.03,1.14 -0.1,1.16 -4.49,-0.87 -0.54,-1.8 -1.62,-1.42 -0.49,-2.15 0.25,-2.26 -2.67,-2.45 -0.41,-7.03 0,-5.42 -6.03,-3.32 -3.61,-3.01 0.3,-4.22 1.51,-4.82 -1.09,-5.89 3.38,0.26 1.77,0.6 1.68,0.2 4.04,-2.05 1.07,6.84 1.39,1.87 2.29,0.65 4.71,1.92 0.81,4.12 z" 
                fill="rgb(151, 144, 238)" 
                stroke="white" 
                stroke-width=".7px"
                title="Iganga" 
                id="UG-203" 
            />
        </svg>