<svg xmlns="http://www.w3.org/2000/svg" viewBox="95.20485999999993 502.7628700000002 85.31000000000002 48.79000000000002" width="85.31000000000002" height="48.79000000000002">
            <path 
                d="m 126.88486,502.81287 0,0 4.73,2.16 3.65,3.4 0.87,2.21 1.17,1.6 2.29,-0.52 2.26,-0.1 4.59,0.42 4.6,-0.11 4.38,-1.07 3.69,-3.03 4.93,2.95 4.22,3.92 1.9,2.47 0.94,2.95 -0.4,2.63 1.48,4.65 -1.84,2.37 1.39,2.22 2.38,1.57 2.16,2.15 0.74,2.65 0.43,2.61 1.98,2.12 1.08,1.14 0.01,0.01 -2.22,0 -19.05,0 -19.06,0 -6.72,0 -1.66,-0.81 -3.68,-0.93 -3.91,2.04 -3.95,1.25 -1.51,0.79 -3.72,3.93 -1.32,1.1 -2.51,-0.78 -2.27,-0.25 -5.25,0.48 -1.93,0.46 -1.26,0.09 -0.58,-0.27 -0.54,-0.58 -0.77,-0.51 -1.3,-0.12 -0.83,0.68 -0.13,0.12 -1.14,-0.35 0.23,-0.79 2.15,-3.4 1.54,-3.67 0.29,-1.67 0.7,-1.65 1.32,-1.24 2.11,-3 1.64,-0.6 2,-2.47 1.34,-2.7 0.13,-5.64 5.22,0.85 -0.07,-9.11 -0.42,-4.45 0.57,-1.94 -0.14,-1.95 0.82,-3.55 4.26,0.55 1.98,-0.35 2.21,-0.98 3.8,0.05 z" 
                fill="rgb(151, 144, 238)" 
                stroke="white" 
                stroke-width=".7px"
                title="Isingiro" 
                id="UG-417" 
            />
        </svg>