<svg xmlns="http://www.w3.org/2000/svg" viewBox="364.55486000000013 368.56287000000003 53.77999999999997 39.79000000000008" width="53.77999999999997" height="39.79000000000008">
            <path 
                d="m 382.48486,369.92287 0,0 5.37,-0.72 3.66,3.12 2.74,1.11 2.53,1.62 0.89,0.73 0.79,0.81 2.33,1.36 0.72,1.84 0.5,1.87 2.95,1.22 3.42,0.22 3,2.05 1.88,-2.29 2.67,2.45 -0.25,2.26 0.49,2.15 1.62,1.42 0.54,1.8 -1.86,3.12 -2.65,2.55 -0.99,2.97 -0.9,2.16 -1.44,0.9 -1.35,0.18 -1.44,0.36 -4.72,2.62 -3.25,0.55 -9.58,-4.21 -2.3,-0.75 -6.07,-1.97 -3.21,-2.4 0.37,-3.74 -0.68,-3.86 -2.4,-3.06 -6.15,-5.16 -1.43,-1.8 -3.56,-8.37 -0.17,-2.21 2.71,1.16 2.28,-1.47 3.22,0.59 0.57,-2.18 2.56,0.19 2.49,-0.55 1.73,0.76 2.37,0.6 z" 
                fill="rgb(151, 144, 238)" 
                stroke="white" 
                stroke-width=".7px"
                title="Jinja" 
                id="UG-204" 
            />
        </svg>