<svg xmlns="http://www.w3.org/2000/svg" viewBox="414.3748599999997 0.30286999999998976 105.93 119.25" width="105.93" height="119.25">
            <path 
                d="m 474.77486,36.89287 0,0 1.63,-0.32 4.13,-1.48 2.02,0.01 2.31,1.21 0.26,1.43 -1.12,1.4 -4.97,2.58 0.19,0.57 1.63,0.61 1.31,1.59 -2.08,1.33 -0.69,0.81 1.32,0.5 0.89,-0.06 1.79,-0.47 2.05,-0.13 2.06,-0.59 1.1,-0.09 0.06,0.51 2.32,2.99 1.57,4.21 1.2,0.68 0.49,-0.43 0.45,-1 1.08,-1.02 2.83,-0.82 1.87,0.75 3.38,3.61 1.96,1.02 1.95,0.6 1.52,0.99 0.7,2.19 -0.26,8.39 -0.98,4.18 -1.97,3.04 -0.97,0.49 -1.07,0.28 -0.94,0.42 -0.58,0.91 0.08,1.13 1.28,2.23 0.43,1.15 -0.16,0.99 -1.04,2.55 -0.31,1.18 0.26,1.25 0.82,1.11 0.98,1.07 0.76,1.12 1.35,4.16 1.03,12.8 1.13,2.38 2.17,1.39 4.91,1.4 2.18,1.45 1.22,2.19 -0.04,0.01 -0.03,0.02 -1.88,1.26 -1.95,0.66 -2.36,-0.87 -2.29,0.23 -3.93,0.91 -4.1,-0.57 -6.01,-0.13 -5.32,-2.87 -12.46,-9.03 -12.64,-4.41 -13.53,-0.45 0.74,-3.12 -1.02,-2.39 -2.97,-0.64 -3.03,1.3 -5.28,-2.63 -5.38,-3.93 -2.93,-5.89 -4.23,-4.99 -1.99,-5.72 -2.66,-5.3 -6.79,-9.61 -3.68,-11.63 -0.17,-0.48 0.51,-0.29 7.66,-7.7 9.96,-10.01 11.63,-11.68 8.58,-8.59 8.43,-8.49 3.01,1.46 2.35,1.85 1.3,2.42 -0.14,3.21 0.13,1.42 0.91,1.14 1.16,1.07 0.87,1.17 0.33,1.21 0.03,1.23 -0.3,2.43 -0.41,1.45 -0.45,0.99 -0.05,1.06 0.82,1.66 1.24,1.16 1.53,1.02 1.2,1.2 0.26,1.68 -1.11,2.68 -1.32,2.4 -0.15,1.81 2.42,0.87 z" 
                fill="rgb(151, 144, 238)" 
                stroke="white" 
                stroke-width=".7px"
                title="Kaabong" 
                id="UG-315" 
            />
        </svg>