<svg xmlns="http://www.w3.org/2000/svg" viewBox="29.834859999999978 337.23286999999993 74.17000000000002 78.92000000000002" width="74.17000000000002" height="78.92000000000002">
            <path 
                d="m 104.00486,343.10287 0,0 -2.45,2.35 -2.11,2.63 -1.64,2.98 0.42,0.76 0.55,0.63 -1.3,3.5 -2.05,3.01 -2.32,1.58 -0.6,5.86 -0.63,3.15 -1.62,1.52 -1.7,2.14 0.13,2.63 1.61,1.62 4.44,3.26 -1.46,0.52 -1.47,2.28 -1.26,1.31 -2.61,1.92 -1.53,2.58 0.37,1.6 0.07,1.6 -1.54,3.25 2.17,2.77 0.28,2.7 -1.06,6.24 -1.79,8.66 -7.13,-1.92 -2.56,-1.81 -2.59,-1.84 -2.86,-2.04 -5.31,0.41 -2.86,-4.91 -8.17,-2.45 -11.03,2.45 -12.56,0.73 0.72,-2.24 1.2,-1.94 5.5,-6.36 0.88,0.95 0.92,0.95 1.15,1 0.7,0.37 0.8,0.11 1.32,-0.46 1.33,-0.67 0.62,-0.65 2.08,-1.11 1.08,-2.5 1.54,-2.19 1.38,-0.54 1.19,-0.77 1,-1.48 1.07,-1.3 2.01,-4.91 2.56,-4.47 2.2,-2.37 0.98,-3.21 1.3,-2.82 1.62,-2.7 7.23,-3.9 4.9,-3.26 2.45,-7.76 4.9,4.08 7.76,-7.76 4.09,-5.31 5.8,-4.32 1.89,5.87 z" 
                fill="rgb(151, 144, 238)" 
                stroke="white" 
                stroke-width=".7px"
                title="Kabarole" 
                id="UG-405" 
            />
        </svg>