<svg xmlns="http://www.w3.org/2000/svg" viewBox="18.88485999999999 546.5228699999998 58.64 46.86000000000013" width="58.64" height="46.86000000000013">
            <path 
                d="m 33.69486,550.57287 0,0 1.33,-1.79 1.83,-0.27 3.29,0.61 14.22,3.82 0.82,3.02 1.3,2.55 3.55,1.13 3.8,0.28 2.07,1.1 -0.19,3.04 3.34,-0.9 2.59,-2.51 3.16,-0.97 2.65,0.12 0.07,0 -0.35,0.29 -0.3,0.63 -0.23,1.49 -0.2,0.69 -1.12,1.88 -1.36,1.75 -4.63,4.4 -1.61,0.95 -0.77,0.23 -0.83,0.07 -0.83,0.14 -0.81,0.48 -0.74,1.42 -0.64,4.03 -0.54,1.59 -1.13,1.05 -4.25,1.66 -3.07,1.64 -0.54,0.29 -1.35,1.4 -0.95,2.27 -1.08,0.23 -7.06,3.91 -2.29,0.85 -2.19,0.24 -2.03,-0.58 -1.79,-1.67 -1.01,-2.2 -0.24,-4.29 -0.47,-2.18 -2.92,-4.25 -1.14,-0.58 -0.01,0 -0.32,-0.91 -5.38,-11.65 2.77,-2.09 -3.21,-2.49 -3.71,-4.21 -0.31,-1.14 1.6,-1.52 1.23,-1.83 0.15,-1.34 1.13,-0.86 0.51,-3.07 5.64,0.34 2.2,2.28 2.35,1.43 z" 
                fill="rgb(151, 144, 238)" 
                stroke="white" 
                stroke-width=".7px"
                title="Kabale" 
                id="UG-404" 
            />
        </svg>