<svg xmlns="http://www.w3.org/2000/svg" viewBox="353.5648600000001 227.55286999999993 53.409999999999854 69.82" width="53.409999999999854" height="69.82">
            <path 
                d="m 398.09486,229.65287 0,0 0.48,2.14 0.88,1.96 1.95,0.99 1.39,1.32 0.1,4.2 2.75,3.12 1.05,2.16 0.28,2.32 -1.84,3.34 -0.02,1.95 -0.08,2.05 -3.85,2.3 -4.86,3.65 -4.26,1.83 -6.09,0 -0.61,4.56 -0.27,4.12 -3.29,4.56 -0.78,11.37 0.08,9.78 -7.77,-1.01 -3.05,-3 -3.65,-2.57 -5.69,-2.9 -1.76,-0.62 -1.89,0.36 -1.56,-1.16 0.11,-9.25 -2.28,-8.66 3.71,-1.95 1.08,-5.32 3.91,1.59 3.79,-0.25 1.66,-0.64 1.58,-0.87 0.45,-1.19 0.35,-1.5 2.12,-5.99 0.68,-3.42 0.9,-1.01 1.32,-0.52 9.36,-5.82 1.6,-1.8 1.24,-2.12 0.97,-0.76 0.57,-1.09 0.91,-8.35 4.36,0.07 3.97,2.03 z" 
                fill="rgb(151, 144, 238)" 
                stroke="white" 
                stroke-width=".7px"
                title="Kaberamaido" 
                id="UG-213" 
            />
        </svg>