<svg xmlns="http://www.w3.org/2000/svg" viewBox="247.04485999999991 453.0328700000001 96.52000000000004 91.14999999999986" width="96.52000000000004" height="91.14999999999986">
            <path 
                d="m 281.21486,456.32287 0,0 14.5,0.15 11,0.34 11.64,0 25.21,0 0,31.12 0,56.24 0,0.01 -12.84,0 -0.17,0 -18.88,0 -19.07,0 -19.05,0 -19.06,0 -0.54,0 0,-0.01 0,-23.79 0,-37.54 2.19,-1.64 2.2,-1.37 2.46,-1.37 1.65,-2.19 -0.27,-2.74 -3.06,-1.28 -0.67,-1.76 -0.9,-1.64 -0.85,-1.16 -0.3,-0.7 -0.11,-0.8 -0.26,-0.68 -0.78,-0.27 -0.88,0.05 -0.62,-0.03 -0.5,-0.4 -0.52,-1.04 0.58,-2.66 0.05,-1.6 -0.95,-0.71 -1.04,0.1 -3.62,1.25 0.92,-4.2 0.5,-1.55 -0.61,-0.11 -1.52,-0.53 1.65,-0.78 2.85,2.35 3.59,0.92 26.08,0.02 z" 
                fill="rgb(151, 144, 238)" 
                stroke="white" 
                stroke-width=".7px"
                title="Kalangala" 
                id="UG-101" 
            />
        </svg>