<svg xmlns="http://www.w3.org/2000/svg" viewBox="218.84486000000004 431.98286999999993 34.51999999999998 35.440000000000055" width="34.51999999999998" height="35.440000000000055">
            <path 
                d="m 233.89486,434.63287 0,0 2.02,0.89 4.47,5.09 2.51,2.86 5.8,9.56 -1.65,0.78 1.52,0.53 0.61,0.11 -0.5,1.55 -0.92,4.2 3.62,-1.25 1.04,-0.1 0.95,0.71 -0.05,1.6 -0.58,2.66 -4.15,1.23 -4.45,2.37 -17.77,-0.3 2.96,-3.55 0.59,-2.37 -2.07,-4.15 -0.89,-4.74 -1.78,-4.44 -2.37,-5.63 -1.48,-3.55 -2.48,-3.75 2.38,-1.6 2.64,-1.36 6.18,0.94 3.85,1.71 z" 
                fill="rgb(151, 144, 238)" 
                stroke="white" 
                stroke-width=".7px"
                title="Kalungu" 
                id="UG-122" 
            />
        </svg>