<svg xmlns="http://www.w3.org/2000/svg" viewBox="352.81486 316.85287 37.579999999999984 55.129999999999995" width="37.579999999999984" height="55.129999999999995">
            <path 
                d="m 390.39486,341.62287 0,0 -0.01,3.78 -0.33,1.82 -0.65,1.72 -0.23,1.53 0.58,1.56 -0.36,1.23 -0.73,1 -0.42,2.39 -1.28,1.92 -1.46,0.83 -1.33,0.98 -0.79,1.69 -1.14,4.77 0.24,3.08 -2.37,-0.6 -1.73,-0.76 -2.49,0.55 -2.56,-0.19 -0.57,2.18 -3.22,-0.59 -2.28,1.47 -2.71,-1.16 0.18,-4.67 -0.47,-4.96 -1.31,-4.43 -2.01,-4.03 -4.97,-7.74 -1.26,-4.03 -1.9,-13.8 0.33,-2.24 2.25,-1.82 0.46,-2.03 0,-2.36 -0.42,-1.86 8.02,0.84 7.83,3.61 1.51,4.22 0.6,4.52 2.41,1.81 2.71,0.9 4.82,3.92 3.01,3.01 4.05,1.94 z" 
                fill="rgb(151, 144, 238)" 
                stroke="white" 
                stroke-width=".7px"
                title="Kamuli" 
                id="UG-205" 
            />
        </svg>