<svg xmlns="http://www.w3.org/2000/svg" viewBox="67.85485999999996 383.52287 75.12000000000002 74.30000000000007" width="75.12000000000002" height="74.30000000000007">
            <path 
                d="m 104.53486,408.88287 0,0 2.68,-0.35 5.72,-2.51 5.01,-3.22 4.11,-4.11 3.57,-1.43 2.87,-1.07 3.03,0.89 2.51,0.9 3,-1.11 2.18,-0.15 2.51,0.18 1.25,1.43 -0.18,4.12 -1.61,2.14 1.25,2.68 0.54,3.04 -1.07,1.97 -3.76,0.72 -1.25,1.61 -0.89,5.9 -4.83,0 -8.41,0 -3.93,0.17 -4.55,2.15 -5.28,1.97 -3.58,1.79 -5.61,1.38 -3.15,1.43 -4.83,8.45 -2.88,4.94 1.57,3.69 1.23,5.93 1.96,1.29 1.84,2.37 -2.54,0.72 -2.42,1.03 -2.87,-0.85 -8.56,-3.84 -2.94,-0.57 -2.99,-0.24 -5.38,-2.32 0.4,-0.99 0.49,-0.92 3.06,-21.99 3.41,-13.68 2.56,1.81 7.13,1.92 1.79,-8.66 1.06,-6.24 -0.28,-2.7 -2.17,-2.77 1.54,-3.25 -0.07,-1.6 -0.37,-1.6 1.53,-2.58 2.61,-1.92 1.26,-1.31 3.78,3.01 1.26,4.47 1.61,2.51 3.3,1.49 0.02,3.51 1.24,3.68 0.28,3.97 1.24,2.72 z" 
                fill="rgb(151, 144, 238)" 
                stroke="white" 
                stroke-width=".7px"
                title="Kamwenge" 
                id="UG-413" 
            />
        </svg>