<svg xmlns="http://www.w3.org/2000/svg" viewBox="0.5748599999999984 484.8328699999999 36.27999999999999 66.9600000000001" width="36.27999999999999" height="66.9600000000001">
            <path 
                d="m 21.33486,503.82287 0,0 2.58,-0.12 -0.3,3.12 0.95,2.78 5.99,9.22 -1.68,8.5 2,2.24 0.4,2.36 -1.39,1.91 -0.3,2.17 7.27,12.51 -1.83,0.27 -1.33,1.79 -2.35,-1.43 -2.2,-2.28 -5.64,-0.34 -0.51,3.07 -1.13,0.86 -0.15,1.34 -4.84,-2.09 -2.51,0.04 -1.54,-0.61 -1.19,-0.7 -4.31,-1.7 -1.28,-0.1 -0.93,-0.53 -0.49,-1.19 -1.09,-0.71 -2.96,-1.29 0.52,-0.89 0.4,-1.01 -0.12,-1.54 -0.41,-1.96 -0.06,-1.03 0.14,-0.95 1.16,-1.82 3.08,-1.05 1.17,-1.4 0.29,-1.5 0.27,-6.26 -0.24,-2.2 -0.92,-4.05 0.08,-2.18 1.3,-8.19 0.35,-0.54 0.58,-0.43 0.51,-0.53 0.13,-0.8 -0.24,-0.63 -0.81,-1.11 -0.17,-0.62 0.42,-1.14 0.97,-0.28 1.1,-0.08 0.84,-0.57 0.23,-1.45 -0.35,-6.38 -0.48,-1.6 -1.09,-2.28 -0.29,-0.6 -0.25,-1.96 8.39,-1.05 0.09,6.1 -0.64,6.13 0.42,3.44 1.92,2.8 2.47,0.52 z" 
                fill="rgb(151, 144, 238)" 
                stroke="white" 
                stroke-width=".7px"
                title="Kanungu" 
                id="UG-414" 
            />
        </svg>