<svg xmlns="http://www.w3.org/2000/svg" viewBox="14.074860000000003 401.59286999999995 61.14 56.430000000000064" width="61.14" height="56.430000000000064">
            <path 
                d="m 64.45486,408.95287 0,0 5.31,-0.41 2.86,2.04 2.59,1.84 -3.41,13.68 -3.06,21.99 -2.33,-0.39 -5.35,0 -13.36,10.26 -6.35,0.06 -11.21,-1.69 -7.76,-0.41 -8.31,-1.73 1.33,-7.78 1.56,-3.83 0.56,-1.96 -0.09,-1.99 -1.24,-4.54 0.15,-1.8 0.91,-2.81 4.58,-6.38 0.57,-1.17 1.23,0.48 0.76,0.66 0.71,0.28 1.03,-0.66 0.37,-0.8 3.33,-17.12 12.56,-0.73 11.03,-2.45 8.17,2.45 2.86,4.91 z" 
                fill="rgb(151, 144, 238)" 
                stroke="white" 
                stroke-width=".7px"
                title="Kasese" 
                id="UG-406" 
            />
        </svg>