<svg xmlns="http://www.w3.org/2000/svg" viewBox="443.27486000000005 199.97287 42.310000000000116 70.91000000000003" width="42.310000000000116" height="70.91000000000003">
            <path 
                d="m 485.57486,236.38287 0,0 -0.01,33.67 -17.64,-1.15 -4.95,0.68 -5.19,1.3 -5.09,-1.58 -4.09,-2.66 -4.79,-0.44 -0.54,-1.81 0.38,-2.36 3.92,-2.79 2.42,-3.77 -0.14,-4.1 -1.76,-3.62 1.27,-2.66 3.44,-2.67 0.1,-2.07 -0.59,-2.17 0.46,-4.71 -0.78,-1.58 0.06,-1.72 0.56,-1.07 0.68,-1.01 -0.22,-1.1 -0.72,-1.07 -0.18,-1.96 0.63,-1.79 1.06,-2.25 -0.15,-2.4 -1.02,-4.56 -1.18,-1.38 -0.63,-1.74 0.85,-5.04 1.98,-4.83 27.02,16.86 3.91,3.23 0.94,5.1 -0.01,11.22 z" 
                fill="rgb(151, 144, 238)" 
                stroke="white" 
                stroke-width=".7px"
                title="Katakwi" 
                id="UG-207" 
            />
        </svg>