<svg xmlns="http://www.w3.org/2000/svg" viewBox="326.9848600000001 286.3028700000001 42.73000000000002 96.89999999999986" width="42.73000000000002" height="96.89999999999986">
            <path 
                d="m 355.43486,316.85287 0,0 0.42,1.86 0,2.36 -0.46,2.03 -2.25,1.82 -0.33,2.24 1.9,13.8 1.26,4.03 4.97,7.74 2.01,4.03 1.31,4.43 0.47,4.96 -0.18,4.67 0.17,2.21 3.56,8.37 1.43,1.8 -5.6,-2.84 -1.36,-1.61 -5.19,-6.12 -3.19,-2.52 -5.55,-2.35 -4.08,-3.21 -3.77,-6.14 -3.09,-6.54 -1.7,-12.22 0.41,-12.34 1.36,-10.56 -1.55,-10.5 -0.21,-2.25 0.09,-1.28 -0.11,-1.4 -0.37,-1.13 -0.68,-0.46 -0.99,-0.33 -0.8,-1.52 -1.12,-0.34 -1.91,-1.1 -3.03,-1.06 -0.29,-8.59 12.84,-0.49 2.05,7.68 2.1,4.5 4.36,4.87 0.58,2.13 2.42,2.88 0.96,3.37 3.14,5.12 z" 
                fill="rgb(151, 144, 238)" 
                stroke="white" 
                stroke-width=".7px"
                title="Kayunga" 
                id="UG-112" 
            />
        </svg>