<svg xmlns="http://www.w3.org/2000/svg" viewBox="102.11485999999995 312.85287 103.46000000000008 62.21999999999997" width="103.46000000000008" height="62.21999999999997">
            <path 
                d="m 181.55486,313.54287 0,0 2.99,2.22 3.22,1.8 3.09,0.84 2.87,1.18 4.25,6.29 5.74,4.94 1.86,2.11 -0.24,2.75 -1.06,1.59 -1.65,0.78 -1.7,0.31 -0.88,1.4 -2.62,1.7 -1.64,2 1.14,3.36 -0.01,3.37 -1.44,2.57 0.04,1.95 -1.33,1.21 -1.02,1.54 -1.07,5.6 -2.86,4.06 -4.76,-1.93 -4.55,1.01 -6.3,8.88 -1.72,-1.11 -1.93,0.15 -2.36,-1.26 -2.83,-0.37 -4.65,-2.22 -5,-1.25 -4.65,-0.72 -5.69,-1.08 -1.79,-1.57 -1.29,-2.34 -5.18,-6.9 -4.06,-3.53 -4.89,-1.01 -4.64,-2.25 -9.87,-2.44 -9.07,-4.07 -1.89,-5.87 1.52,-6.59 0.66,-2.6 4.68,3.3 8.57,-1.23 7.04,-2.87 2.75,-3.03 3.7,-1.36 6.94,1.95 9.95,-3.59 4.83,-0.62 4.02,-2.2 1.98,0.37 2.71,0.22 2.33,-3.29 2.8,-0.19 2.86,0.27 2.1,-0.92 1.61,-1.93 3.93,-0.07 4.46,0.69 z" 
                fill="rgb(151, 144, 238)" 
                stroke="white" 
                stroke-width=".7px"
                title="Kibale" 
                id="UG-407" 
            />
        </svg>