<svg xmlns="http://www.w3.org/2000/svg" viewBox="221.53486000000004 324.95287 56.960000000000036 48.85999999999996" width="56.960000000000036" height="48.85999999999996">
            <path 
                d="m 274.50486,366.74287 0,0 -4.6,2.04 -5.03,3.45 -2.01,1.44 -4.21,0.14 -5.49,-0.84 -2.62,-0.62 -1.21,-0.87 -1.42,-0.69 -0.93,-1.1 -0.2,-1.43 -8.52,-12.02 -4.09,-1.6 -5.7,-0.03 -6.94,-4.9 4.49,-5.72 4.08,-3.67 4.49,-2.45 3.27,-2.86 1.22,-4.9 3.27,-3.27 8.14,-1.89 4.85,8.63 0.2,1.91 -0.1,2.18 4.45,7.51 6.67,4.57 6.15,1.15 5.49,4.84 0.29,5.04 -1.18,2.96 -2.81,3 z" 
                fill="rgb(151, 144, 238)" 
                stroke="white" 
                stroke-width=".7px"
                title="Kiboga" 
                id="UG-103" 
            />
        </svg>