<svg xmlns="http://www.w3.org/2000/svg" viewBox="108.15486000000003 418.79287000000005 58.55999999999999 93.39000000000004" width="58.55999999999999" height="93.39000000000004">
            <path 
                d="m 159.39486,444.47287 0,0 0.69,8.64 -2.06,8.66 0.11,6.82 0.99,3.62 1.85,3.44 2.92,8.29 1.96,3.38 0.86,3.79 -1.37,3.72 -1.76,4.81 -4.47,8.13 -3.69,3.03 -4.38,1.07 -4.6,0.11 -4.59,-0.42 -2.26,0.1 -2.29,0.52 -1.17,-1.6 -0.87,-2.21 -3.65,-3.4 -4.73,-2.16 0.94,-3.24 0.56,-3.16 3.13,-4.77 -11.47,-8.85 -2.52,-2.69 0.43,-3.74 -1.42,-2.25 -2.89,-0.68 -3.42,-3.68 1.71,-6.26 0.57,-2.94 1.89,-2.02 2.59,-1.38 -8.83,-2.87 2.04,-6.94 3.68,-6.13 5.07,-4.9 4.73,-8.98 -6.94,0 -2.45,-4.5 4.55,-2.15 3.93,-0.17 8.41,0 4.83,0 8.04,-0.36 7.35,-1.36 1.79,4.16 2.16,3.91 0.43,4.14 0.08,6.7 -0.89,2.25 -1.34,1.37 -0.66,1.74 2.94,0.39 3.49,1.02 z" 
                fill="rgb(151, 144, 238)" 
                stroke="white" 
                stroke-width=".7px"
                title="Kiruhura" 
                id="UG-418" 
            />
        </svg>