<svg xmlns="http://www.w3.org/2000/svg" viewBox="228.95486000000005 193.42286999999985 64.46999999999997 75.94000000000003" width="64.46999999999997" height="75.94000000000003">
            <path 
                d="m 244.83486,194.05287 0,0 1.04,-0.03 1.17,0.17 1.12,0.61 2.53,1.79 2.2,0.98 4.17,3.73 1.06,0.35 3.2,0.37 1.07,0.45 2.54,1.39 3.3,0.99 3.47,2.7 2.4,0.09 1.18,-0.58 1.66,-1.65 0.72,-0.55 1.02,-0.2 3.66,0.2 0.11,0.05 1.72,0.81 1.62,1.95 1.89,3.59 1.06,7.29 0.75,1.66 1.15,1.65 0.84,2.23 0.47,2.34 0.05,1.96 -0.41,1.26 -1.42,2.76 -0.3,1.38 0.29,1.26 0.78,0.51 1.13,0.25 1.35,0.46 -1.45,1.54 -0.54,0.73 -0.2,0.9 0.01,2.3 -0.19,0.9 -0.53,0.68 0.41,2.09 -1.98,1.18 -2.7,0.7 -1.78,0.68 -0.38,1.04 -0.14,1.33 -0.41,1.16 -1.2,0.48 -1.06,0.3 -0.82,0.56 -0.85,0.29 -1.17,-0.5 -1.29,1.1 -4.82,1.02 -1.06,1.14 -0.66,0.97 -3.21,3.01 -1.17,1.42 0.79,1.9 -1.07,3.28 -3.53,-2.1 -4.5,0.5 0,3.99 -3.5,0.5 -1.99,-2.99 -4,-1 -3,-1.5 0,-4 -1.5,-4 -2.49,-4.5 0,-4.99 1,-6.5 0,-4.5 -2,-3 -2,-2.99 -3,-1 -3.99,-0.5 -2,-2.5 -0.5,-12 0.98,-12.8 3.37,-3.74 1.6,-1.23 1.94,-0.67 4.22,-0.72 1.72,-0.81 1.06,0.55 0.99,0.08 z" 
                fill="rgb(151, 144, 238)" 
                stroke="white" 
                stroke-width=".7px"
                title="Kiryandongo" 
                id="UG-420" 
            />
        </svg>