<svg xmlns="http://www.w3.org/2000/svg" viewBox="334.25485999999995 47.062870000000025 102.57000000000022 78.58999999999997" width="102.57000000000022" height="78.58999999999997">
            <path 
                d="m 436.82486,90.68287 0,0 -0.89,1.31 -0.67,1.37 0.66,2.91 -2.43,2.8 -3.12,2.21 -3.11,0.13 -2.98,-1.35 -3.77,-0.71 -3.81,0.13 -2.4,0.34 -2.3,-0.19 -1.73,-1.4 -1.85,-1.08 -8.45,-0.88 2.85,4.11 -6.79,-0.24 0.89,6.92 -4.92,0.42 -4.14,1.44 -6.1,-1.03 -2.48,8.01 -3.65,9.75 -2.89,-4.91 -3.3,-2.8 -3.27,-4.26 -7.86,-4.26 -5.99,-0.65 -0.34,7.4 -3.8,-2.16 -5.59,-3.61 -3.91,-0.55 -1.83,-1.12 -0.47,-5.93 0,-4.27 -2.13,-4.27 0,-4.87 1.22,-2.75 10.04,-0.6 3.95,-0.92 2.44,-1.83 0,-2.13 1.22,-2.44 17.64,0 1.52,-1.52 1.22,-4.27 2.13,-1.22 2.74,0 4.56,5.18 0,5.49 5.78,0.3 0.3,-13.71 -1.21,-5.8 -2.44,-3.35 -0.6,-3.35 0.91,-3.05 1.23,-4.5 2.37,0.12 16.74,0.85 4.51,-0.56 3.85,-2.27 0.17,0.48 3.68,11.63 6.79,9.61 2.66,5.3 1.99,5.72 4.23,4.99 2.93,5.89 z" 
                fill="rgb(151, 144, 238)" 
                stroke="white" 
                stroke-width=".7px"
                title="Kitgum" 
                id="UG-305" 
            />
        </svg>