<svg xmlns="http://www.w3.org/2000/svg" viewBox="440.86486 268.90287000000006 47.06999999999999 41.23999999999995" width="47.06999999999999" height="41.23999999999995">
            <path 
                d="m 485.56486,270.05287 0,0 1.36,0.09 1.01,0.41 -0.5,7.37 -8.62,2.41 -6.32,1.2 -4.52,2.71 0.6,6.63 -3.01,2.11 -2.11,1.81 0,4.22 0.3,6.02 -4.22,2.41 -3.64,2.7 -1.97,-1.54 -2.89,-0.45 -2.74,-0.77 -2,-1.83 -1.83,-2.14 -2.88,-0.28 -0.72,-7.74 2.41,-3.01 3.92,-1.51 0.6,-6.63 -0.91,-9.94 2.11,-3.62 3.7,-1.38 5.09,1.58 5.19,-1.3 4.95,-0.68 17.64,1.15 z" 
                fill="rgb(151, 144, 238)" 
                stroke="white" 
                stroke-width=".7px"
                title="Kumi" 
                id="UG-208" 
            />
        </svg>