<svg xmlns="http://www.w3.org/2000/svg" viewBox="502.83486000000016 274.1628699999998 37.93999999999994 40.75000000000006" width="37.93999999999994" height="40.75000000000006">
            <path 
                d="m 523.09486,276.60287 0,0 1.89,-0.11 4.87,2.97 4.57,2.8 6.35,9.84 -1.56,5.26 -3.33,4.25 -2.02,1 -2.19,0.34 -2.77,1.08 -2.55,1.65 -3.46,4.21 -2.29,5.02 -0.22,-7.77 2.41,-6.02 -0.3,-4.22 -3.62,-2.41 -6.62,-1.81 -3.64,-3.3 2.04,-4.32 -3.27,-4.29 -4.55,-3.01 5.78,0.2 7.24,-3.8 2.8,0.8 1.42,0.67 1.16,0.88 1.86,0.09 z" 
                fill="rgb(151, 144, 238)" 
                stroke="white" 
                stroke-width=".7px"
                title="Kween" 
                id="UG-228" 
            />
        </svg>