<svg xmlns="http://www.w3.org/2000/svg" viewBox="136.00485999999998 367.21286999999995 41.70000000000002 53.300000000000125" width="41.70000000000002" height="53.300000000000125">
            <path 
                d="m 169.97486,374.11287 0,0 1.93,-0.15 1.72,1.11 2.67,2.55 1.41,3.25 -0.34,1.61 -0.71,1.56 0.07,1.27 -1.46,0.79 -7.31,1.25 -2.3,2.01 -0.92,3.43 -2,3.57 0.1,4.01 0.99,1.79 0.65,1.79 -1.12,1.32 -1.44,1.25 -2.22,3.21 -2.65,2.92 -2.97,2.39 -1.84,3.29 -0.84,0.46 -7.35,1.36 -8.04,0.36 0.89,-5.9 1.25,-1.61 3.76,-0.72 1.07,-1.97 -0.54,-3.04 -1.25,-2.68 1.61,-2.14 0.18,-4.12 -1.25,-1.43 -2.51,-0.18 0.18,-5 3.58,-0.18 0,-9.48 1.07,-1.43 2.33,-0.36 0,-6.25 -1.79,-0.9 -3.4,-1.79 -1.25,-2.14 2.14,-0.54 2.72,-1.44 5.69,1.08 4.65,0.72 5,1.25 4.65,2.22 2.83,0.37 2.36,1.26 z" 
                fill="rgb(151, 144, 238)" 
                stroke="white" 
                stroke-width=".7px"
                title="Kyegegwa" 
                id="UG-421" 
            />
        </svg>