<svg xmlns="http://www.w3.org/2000/svg" viewBox="88.55485999999999 343.10287000000017 57.82000000000002 65.77999999999997" width="57.82000000000002" height="65.77999999999997">
            <path 
                d="m 144.79486,367.21287 0,0 -2.72,1.44 -2.14,0.54 1.25,2.14 3.4,1.79 1.79,0.9 0,6.25 -2.33,0.36 -1.07,1.43 0,9.48 -3.58,0.18 -0.18,5 -2.18,0.15 -3,1.11 -2.51,-0.9 -3.03,-0.89 -2.87,1.07 -3.57,1.43 -4.11,4.11 -5.01,3.22 -5.72,2.51 -2.68,0.35 -1.24,-2.72 -0.28,-3.97 -1.24,-3.68 -0.02,-3.51 -3.3,-1.49 -1.61,-2.51 -1.26,-4.47 -3.78,-3.01 1.47,-2.28 1.46,-0.52 -4.44,-3.26 -1.61,-1.62 -0.13,-2.63 1.7,-2.14 1.62,-1.52 0.63,-3.15 0.6,-5.86 2.32,-1.58 2.05,-3.01 1.3,-3.5 -0.55,-0.63 -0.42,-0.76 1.64,-2.98 2.11,-2.63 2.45,-2.35 9.07,4.07 9.87,2.44 4.64,2.25 4.89,1.01 4.06,3.53 5.18,6.9 1.29,2.34 1.79,1.57 z" 
                fill="rgb(151, 144, 238)" 
                stroke="white" 
                stroke-width=".7px"
                title="Kyenjojo" 
                id="UG-415" 
            />
        </svg>