<svg xmlns="http://www.w3.org/2000/svg" viewBox="273.58485999999994 35.16287 115.43 78.16999999999999" width="115.43" height="78.16999999999999">
            <path 
                d="m 386.90486,48.92287 0,0 -1.23,4.5 -0.91,3.05 0.6,3.35 2.44,3.35 1.21,5.8 -0.3,13.71 -5.78,-0.3 0,-5.49 -4.56,-5.18 -2.74,0 -2.13,1.22 -1.22,4.27 -1.52,1.52 -17.64,0 -1.22,2.44 0,2.13 -2.44,1.83 -3.95,0.92 -10.04,0.6 -1.22,2.75 0,4.87 2.13,4.27 0,4.27 0.47,5.93 -4.91,1.02 -5.78,3.49 -17.16,0.09 -0.59,-2.3 -12.84,-11.25 -2.99,-2.17 -3.87,-2.82 -5.37,-6.27 -1.25,-3.37 -4.13,-4.16 -0.59,-2.09 -1.09,-1.71 -0.49,-1.95 -2.1,-2.71 0.32,-1.47 0.02,-1.62 -0.45,-3.73 0.12,-1.35 1.23,-1.42 19.15,-11.67 4.55,-1.06 19.12,-1.57 16.36,-1.32 8.73,-2.64 8.17,-4.16 6.32,-4.7 1.84,-0.66 2.08,0.87 13.14,10.76 2.18,1.15 3.22,0.62 7.11,0.36 z" 
                fill="rgb(151, 144, 238)" 
                stroke="white" 
                stroke-width=".7px"
                title="Lamwo" 
                id="UG-327" 
            />
        </svg>