<svg xmlns="http://www.w3.org/2000/svg" viewBox="334.5648599999999 165.20287000000002 33.829999999999984 63.829999999999984" width="33.829999999999984" height="63.829999999999984">
            <path 
                d="m 357.64486,177.07287 0,0 3.34,-0.95 -0.26,2.83 -1.52,3.35 -3.35,2.13 0,3.05 -2.73,3.04 -4.57,1.83 -0.61,2.44 4.57,0 3.65,1.21 1.52,3.66 3.95,3.04 3.96,2.13 2.13,3.66 0.67,16.27 -2.31,3.39 -3.14,0.88 -3.61,-1.87 -3.47,-2.25 -3.84,-0.71 -4.22,-0.32 -2.13,-0.81 -2.28,0.13 -1.82,-1.09 -1.6,-1.57 0.89,-10.59 0.66,-1.93 -1.9,-3.09 -2.63,-5.58 -2.43,-3.35 1.52,-3.95 2.13,-3.96 1.58,-5.89 1.24,-4.28 -4.96,-6.53 3.23,-2.42 1.65,-3.73 1.36,-0.04 1.18,1.61 1.97,0.92 2.48,0.28 1.96,1.24 2.76,0.92 1.4,5.18 2.08,0.23 1.5,1.49 z" 
                fill="rgb(151, 144, 238)" 
                stroke="white" 
                stroke-width=".7px"
                title="Lira" 
                id="UG-307" 
            />
        </svg>