<svg xmlns="http://www.w3.org/2000/svg" viewBox="382.24485999999996 327.51286999999996 31.02000000000004 57.64000000000004" width="31.02000000000004" height="57.64000000000004">
            <path 
                d="m 403.93486,349.15287 0,0 1.09,5.89 -1.51,4.82 -0.3,4.22 3.61,3.01 6.03,3.32 0,5.42 0.41,7.03 -1.88,2.29 -3,-2.05 -3.42,-0.22 -2.95,-1.22 -0.5,-1.87 -0.72,-1.84 -2.33,-1.36 -0.79,-0.81 -0.89,-0.73 -2.53,-1.62 -2.74,-1.11 -3.66,-3.12 -5.37,0.72 -0.24,-3.08 1.14,-4.77 0.79,-1.69 1.33,-0.98 1.46,-0.83 1.28,-1.92 0.42,-2.39 0.73,-1 0.36,-1.23 -0.58,-1.56 0.23,-1.53 0.65,-1.72 0.33,-1.82 0.01,-3.78 0.34,-3.72 1.58,-2.58 1.28,-2.61 -0.59,-1.48 -0.15,-1.4 1.86,-2.32 2.11,1.18 1.52,1.94 0.94,1.66 1.11,1.57 1.65,3.45 -1.77,7.17 0.65,3.31 3.01,1.36 z" 
                fill="rgb(151, 144, 238)" 
                stroke="white" 
                stroke-width=".7px"
                title="Luuka" 
                id="UG-229" 
            />
        </svg>