<svg xmlns="http://www.w3.org/2000/svg" viewBox="289.77485999999993 320.7228700000001 48.110000000000014 62.59999999999991" width="48.110000000000014" height="62.59999999999991">
            <path 
                d="m 330.96486,327.94287 0,0 5.63,-0.63 -0.41,12.34 1.7,12.22 -0.42,9.68 -1.63,10.2 -2.04,6.94 -8.66,3.24 -4.75,0.03 -4.65,-1.59 -3.98,2.95 -3.89,-1.02 -5.13,0.04 -9.83,-1.12 -1.58,0.72 -1.55,1.06 0.47,-4.08 1.97,-3.72 1.58,-1.64 1.91,-1.33 2.43,-0.47 2.53,-0.11 2.06,0.2 1.15,-1.1 1.14,-1.95 1.35,-1.62 -0.42,-1.75 -1.37,-1.14 -0.9,-1.76 -0.09,-12.82 -5.31,-8.17 -1.22,-6.53 0.59,-8.66 6.53,7.66 9.46,4.22 6.69,0.86 -0.41,-5.31 0.82,-6.53 1.25,-5.62 3.65,-0.91 2.85,2.86 2.48,4.36 z" 
                fill="rgb(151, 144, 238)" 
                stroke="white" 
                stroke-width=".7px"
                title="Luweero" 
                id="UG-104" 
            />
        </svg>