<svg xmlns="http://www.w3.org/2000/svg" viewBox="174.52486 466.99287 51.84 35.680000000000064" width="51.84" height="35.680000000000064">
            <path 
                d="m 199.24486,472.61287 0,0 5.84,-0.13 7.14,-1.09 1.99,-0.71 0.3,-3.56 11.85,0 -2.67,2.67 0,5.04 -3.55,2.07 -4.44,2.37 -0.6,2.37 1.78,3.55 -0.89,3.56 -2.37,2.67 -3.55,1.77 -3.95,0.2 -2.27,2.17 -0.89,5.33 -3.85,1.78 -4.86,-1.75 -6.99,-2.69 -6.82,-4.74 -4.46,-5.35 -1.46,-4.43 1.19,-4.74 1.77,-4.74 0.98,-5.3 0.69,-1.16 1.12,-0.78 5.8,3.39 8.61,1.44 2.27,0.28 2.29,0.51 z" 
                fill="rgb(151, 144, 238)" 
                stroke="white" 
                stroke-width=".7px"
                title="Lwengo" 
                id="UG-124" 
            />
        </svg>