<svg xmlns="http://www.w3.org/2000/svg" viewBox="158.02485999999996 442.70286999999996 25.660000000000025 52.57000000000005" width="25.660000000000025" height="52.57000000000005">
            <path 
                d="m 176.98486,449.47287 0,0 1.34,-3.61 2.94,1.89 2.22,2.54 -0.45,2.88 0.51,1.51 0.14,1.56 -0.4,2.82 -1.07,2.49 -0.79,2.88 -1.15,2.56 -1.12,0.78 -0.69,1.16 -0.98,5.3 -1.77,4.74 -1.19,4.74 1.46,4.43 -0.87,6.24 -4.44,0.89 -5.33,-0.44 1.37,-3.72 -0.86,-3.79 -1.96,-3.38 -2.92,-8.29 -1.85,-3.44 -0.99,-3.62 -0.11,-6.82 2.06,-8.66 -0.69,-8.64 2.28,-0.82 1.43,-0.95 2.45,0.46 5.59,1.84 0.33,1.83 5.51,2.64 z" 
                fill="rgb(151, 144, 238)" 
                stroke="white" 
                stroke-width=".7px"
                title="Lyantonde" 
                id="UG-116" 
            />
        </svg>