<svg xmlns="http://www.w3.org/2000/svg" viewBox="215.10486000000006 463.82286999999974 47.34999999999994 56.56000000000017" width="47.34999999999994" height="56.56000000000017">
            <path 
                d="m 254.37486,465.29287 0,0 0.88,-0.05 0.78,0.27 0.26,0.68 0.11,0.8 0.3,0.7 0.85,1.16 0.9,1.64 0.67,1.76 3.06,1.28 0.27,2.74 -1.65,2.19 -2.46,1.37 -2.2,1.37 -2.19,1.64 0,37.54 -9.32,0 -3.83,-0.27 -3.29,-0.82 -1.91,-0.82 -3.84,-1.37 -2.2,-1.08 -2.43,-2.95 -2.17,-4.79 -1.82,-2.09 -1.43,-2.65 0.16,-2.66 0.71,-0.69 0.41,-0.78 -0.81,-2.71 0.91,-2.71 -3.07,-4.51 -4.03,-0.73 0.89,-3.56 -1.78,-3.55 0.6,-2.37 4.44,-2.37 3.55,-2.07 0,-5.04 2.67,-2.67 17.77,0.3 4.45,-2.37 4.15,-1.23 0.52,1.04 0.5,0.4 0.62,0.03 z" 
                fill="rgb(151, 144, 238)" 
                stroke="white" 
                stroke-width=".7px"
                title="Masaka" 
                id="UG-105" 
            />
        </svg>