<svg xmlns="http://www.w3.org/2000/svg" viewBox="188.9348599999999 200.59286999999983 77.30000000000001 101.49000000000012" width="77.30000000000001" height="101.49000000000012">
            <path 
                d="m 254.42486,269.36287 0,0 3.5,-0.5 0,-3.99 4.5,-0.5 3.53,2.1 0.28,1.86 -1.84,1.88 -1.8,4.39 -2.99,3.81 -2.31,1.41 -2.45,0.95 -3.67,5.45 -3.61,3.2 -4.25,2.54 -6.42,6.64 -2.09,0.33 -2,0.64 -2.3,2.51 -4.65,-0.49 -4.75,-1.35 -16.32,-2.08 -2.83,-1.12 -2.37,-1.8 -1.81,-1.96 -0.48,-5.36 -1.31,-14.41 -0.73,-2.16 -2.3,0.41 -2.44,0.76 -1.37,-3.88 1.19,-5.64 -0.87,-1.24 -0.13,-1.49 -0.4,-1.35 6.06,0.95 6.49,0.5 6.99,-3.5 3,-4.5 0,-6.99 3,-2.5 2.99,-0.5 1,-2.5 -1.5,-3 -2.99,-2.5 -3,-4.99 -3.5,-4.5 0,-8 1,-7 -0.34,-7.16 7.13,0 0.95,0.22 1.13,0.97 0.83,0.23 1.95,-0.26 9.81,-3.3 -0.98,12.8 0.5,12 2,2.5 3.99,0.5 3,1 2,2.99 2,3 0,4.5 -1,6.5 0,4.99 2.49,4.5 1.5,4 0,4 3,1.5 4,1 1.99,2.99 z" 
                fill="rgb(151, 144, 238)" 
                stroke="white" 
                stroke-width=".7px"
                title="Masindi" 
                id="UG-409" 
            />
        </svg>