<svg xmlns="http://www.w3.org/2000/svg" viewBox="470.72486000000004 317.25287 29.96999999999997 36.41000000000008" width="29.96999999999997" height="36.41000000000008">
            <path 
                d="m 479.85486,318.78287 0,0 2.37,1.01 2.68,-0.52 1.25,2.17 1.56,1.98 1.66,0.47 1.51,1.02 1.45,0.08 1.56,-0.36 3.45,0.83 3.35,1.31 -4.22,1.22 -2.49,3.29 -1.32,2.43 -1.71,2.14 -0.4,2.19 0.07,1.92 -3.7,1.78 -1.3,2.08 -0.85,2.29 -1.03,4.58 -3.18,2.97 -1.17,-2.9 -1.96,-2.17 -2.38,-1.51 -2.68,-1.15 1.69,-4.08 0.32,-4.47 0.74,-1.92 0.49,-1.97 -2.21,-0.98 -2.68,-0.29 0.85,-1.76 2.16,-0.23 1.6,-1.61 1.71,-4.77 -0.19,-2.54 -1.12,-1.89 -0.08,-2.17 2.01,1.12 2.19,0.41 z" 
                fill="rgb(151, 144, 238)" 
                stroke="white" 
                stroke-width=".7px"
                title="Mbale" 
                id="UG-209" 
            />
        </svg>