<svg xmlns="http://www.w3.org/2000/svg" viewBox="74.15486 463.49286999999987 57.36 62.63000000000005" width="57.36" height="62.63000000000005">
            <path 
                d="m 126.88486,502.81287 0,0 -3.8,-0.05 -2.21,0.98 -1.98,0.35 -4.26,-0.55 -0.82,3.55 0.14,1.95 -0.57,1.94 0.42,4.45 0.07,9.11 -5.22,-0.85 -2.76,0.11 -0.79,0.59 -0.7,0.73 -1.03,0.43 -1.08,0.21 -1.51,-0.82 -1.67,0.4 -1.61,0.78 -2.78,-0.59 -2.27,-1.75 -2.17,-0.94 -2.1,1.36 -3.07,0.75 -6.95,-0.61 -3.59,-1.18 -0.42,-2.02 1.48,-2.73 6.84,-4.24 9.02,-8.73 1.59,-3.94 0.66,-3.31 2.3,-7.63 0.12,-4.31 -0.31,-3.49 3.09,-2.98 -0.4,-7.08 1.11,-6.23 6,-2.15 6.28,-0.83 -1.71,6.26 3.42,3.68 2.89,0.68 1.42,2.25 -0.43,3.74 2.52,2.69 11.47,8.85 -3.13,4.77 -0.56,3.16 -0.94,3.24 z" 
                fill="rgb(151, 144, 238)" 
                stroke="white" 
                stroke-width=".7px"
                title="Mbarara" 
                id="UG-410" 
            />
        </svg>