<svg xmlns="http://www.w3.org/2000/svg" viewBox="236.80486000000005 366.74287 46.51999999999995 50.10000000000008" width="46.51999999999995" height="50.10000000000008">
            <path 
                d="m 278.56486,380.09287 0,0 -0.36,7.35 4.56,7.17 0.52,5.58 -0.2,2.05 0.24,4.1 -0.38,5.69 -3.56,1.48 -7.33,-0.44 -1.96,0.15 -12.9,0.98 -2.2,0.14 -1.11,1.09 -1.87,0.63 -2.33,-0.53 -1.5,1.12 -2.01,0.19 -2.38,-0.68 -1.88,-1.1 -2.43,-3.85 -2.68,-0.83 13.26,-1.31 1.83,-4.39 -1.17,-4.81 0.4,-2.38 1.04,-1.94 -0.93,-3.03 -1.78,-2.74 -0.42,-2.33 -1.68,-2.11 0.24,-1.05 0.82,-0.8 0.63,-0.92 -0.14,-1.11 -1.25,-0.54 -1.42,-0.34 -1.02,-2.78 1.43,-2.72 2.64,-0.92 1.26,-1.81 2.62,0.62 5.49,0.84 4.21,-0.14 2.01,-1.44 5.03,-3.45 4.6,-2.04 1.92,4.41 1.49,6.14 0.65,2.8 z" 
                fill="rgb(151, 144, 238)" 
                stroke="white" 
                stroke-width=".7px"
                title="Mityana" 
                id="UG-114" 
            />
        </svg>