<svg xmlns="http://www.w3.org/2000/svg" viewBox="489.7248600000002 117.33286999999997 69.92000000000002 102.56000000000002" width="69.92000000000002" height="102.56000000000002">
            <path 
                d="m 531.60486,142.44287 0,0 0.65,-0.22 1.16,-0.95 0.43,-0.21 0.26,-0.19 0.46,-0.81 0.26,-0.17 0.4,0.19 0.22,0.36 0.17,0.36 0.21,0.19 0.19,0.28 2.95,1.42 0.55,0.13 0.71,0.88 0.42,0.93 2.11,6.56 1.59,9.06 4.38,9.13 0.98,0.95 1.43,0.11 0.84,-0.77 0.69,-0.86 0.95,-0.15 1.04,1.42 0.59,5.19 0.6,1.98 2.84,2.92 0.96,1.78 -0.28,2.36 -1.54,1.85 -2.09,1.19 -1.89,1.45 -0.91,2.58 0.68,4.09 4.02,9.71 1.88,4.53 -3.9,6.18 -4.5,4 -1.68,-5.69 -0.82,-14.8 -3.49,-10 -3.06,-8.17 -1.44,-3.83 -3.99,-4 -6,-2 0,-6.5 -3.49,-1 -5,-1.5 -5.49,-5 -7.49,-6.5 -6,-2.5 -7.49,-1 -5.95,-2.49 0.66,-4.63 1.71,-4.22 6.42,-8.16 5.21,-8.92 4.1,0.57 3.93,-0.91 2.29,-0.23 2.36,0.87 1.95,-0.66 1.88,-1.26 0.03,-0.02 0.04,-0.01 0.01,0.01 3.02,15.76 1.04,1.82 3.31,3.67 1.55,2.49 0.95,0.98 1.42,0.38 z" 
                fill="rgb(151, 144, 238)" 
                stroke="white" 
                stroke-width=".7px"
                title="Moroto" 
                id="UG-308" 
            />
        </svg>