<svg xmlns="http://www.w3.org/2000/svg" viewBox="198.77486000000007 42.37286999999999 58.92999999999992 70.04" width="58.92999999999992" height="70.04">
            <path 
                d="m 234.69486,43.41287 0,0 0.61,0.29 2.47,2.07 7.41,8.3 1.49,2.5 0.39,1.98 0.32,4.8 0.72,1.76 1.42,0.74 8.18,0.51 -1.4,0.85 -5.26,1.55 -1.16,1.47 -0.54,2.26 -1.43,1.81 -2.06,1.13 -2.35,0.2 -1.23,-0.32 -1.27,-0.6 -1.19,-0.77 -0.94,-0.83 -1.88,0.14 -1.06,-0.2 0.22,-1.35 -1.19,0.2 -2.19,0.82 -2.54,2.28 -1.01,0.63 -2.37,0.51 -2.29,0.21 -1.09,0.44 -0.69,0.98 -0.52,0.98 -1.82,1.43 -0.71,2.32 -0.5,2.63 -0.67,1.96 -3.59,3.59 -1.53,1.94 -0.89,3.59 -0.63,0.8 -0.71,0.7 -0.53,0.7 -0.33,0.82 -0.45,2.81 -1.22,4.4 -2.78,5.97 -6.64,-7.78 -0.49,-13.89 0.81,-10.99 7.43,-10.92 5.38,-7.25 2.82,-6.75 5.68,-0.84 1.9,-0.81 0.97,-0.88 8.28,-9.33 0.23,-0.6 0.32,0.07 2.1,0.97 z" 
                fill="rgb(151, 144, 238)" 
                stroke="white" 
                stroke-width=".7px"
                title="Moyo" 
                id="UG-309" 
            />
        </svg>