<svg xmlns="http://www.w3.org/2000/svg" viewBox="240.38486 394.61287 60.74999999999994 61.710000000000036" width="60.74999999999994" height="61.710000000000036">
            <path 
                d="m 281.21486,456.32287 0,0 -26.08,-0.02 -3.59,-0.92 -2.85,-2.35 -5.8,-9.56 -2.51,-2.86 7.31,-3.7 6.51,-5.04 3.85,-4.14 5.34,-2.08 5.33,0.89 4.44,-2.66 5.04,-3.26 2.96,-2.37 2.07,-2.08 -0.29,-4.14 0.38,-5.69 -0.24,-4.1 0.2,-2.05 -0.52,-5.58 11.02,0 7.35,7.76 -1.65,9.91 -1.43,3.96 -1.38,1.98 -2.47,1.15 -1.54,1.36 -0.85,2.11 -1.32,2.32 -1.99,1.68 -2.28,0.7 -1.88,1.14 -1.04,2.89 -2.25,1.79 -2.05,1.32 -0.72,2.15 0.44,4.89 2.54,4.24 0.33,4.92 -0.38,5.44 z" 
                fill="rgb(151, 144, 238)" 
                stroke="white" 
                stroke-width=".7px"
                title="Mpigi" 
                id="UG-106" 
            />
        </svg>