<svg xmlns="http://www.w3.org/2000/svg" viewBox="152.23486000000003 349.71287000000007 99.92999999999998 72.53000000000003" width="99.92999999999998" height="72.53000000000003">
            <path 
                d="m 246.78486,368.26287 0,0 0.2,1.43 0.93,1.1 1.42,0.69 1.21,0.87 -1.26,1.81 -2.64,0.92 -1.43,2.72 1.02,2.78 1.42,0.34 1.25,0.54 0.14,1.11 -0.63,0.92 -0.82,0.8 -0.24,1.05 1.68,2.11 0.42,2.33 1.78,2.74 0.93,3.03 -1.04,1.94 -0.4,2.38 1.17,4.81 -1.83,4.39 -13.26,1.31 -5.06,2.6 -5.08,-4.51 -7.11,-2.37 -3.85,-1.18 -4.55,-0.21 -7.9,4.06 -6.51,2.07 -6.52,1.19 -3.85,1.48 -0.22,5.46 -4.72,0.2 -3.14,3.07 -4.31,-0.13 -3.39,-2.58 -2.89,-3.39 -3.95,-0.36 -3.97,2.03 -3.7,0.61 -3.85,-0.09 1.84,-3.29 2.97,-2.39 2.65,-2.92 2.22,-3.21 1.44,-1.25 1.12,-1.32 -0.65,-1.79 -0.99,-1.79 -0.1,-4.01 2,-3.57 0.92,-3.43 2.3,-2.01 7.31,-1.25 1.46,-0.79 -0.07,-1.27 0.71,-1.56 0.34,-1.61 -1.41,-3.25 -2.67,-2.55 6.3,-8.88 4.55,-1.01 4.76,1.93 2.86,-4.06 1.07,-5.6 1.02,-1.54 1.33,-1.21 -0.04,-1.95 1.44,-2.57 15.08,1.7 5.86,-2.17 3.68,0 6.94,4.9 5.7,0.03 4.09,1.6 8.52,12.02 z" 
                fill="rgb(151, 144, 238)" 
                stroke="white" 
                stroke-width=".7px"
                title="Mubende" 
                id="UG-107" 
            />
        </svg>