<svg xmlns="http://www.w3.org/2000/svg" viewBox="306.7148600000001 351.8728699999999 56.039999999999964 104.94" width="56.039999999999964" height="104.94">
            <path 
                d="m 362.75486,378.75287 0,0 -4.52,2.96 -0.33,5.04 1.68,5.88 2.85,4.03 -0.84,5.72 -4.53,4.87 -6.05,5.88 -2.86,5.21 -3.03,3.36 -0.16,3.53 -9.12,10.76 -17.49,20.82 -11.64,0 3.03,-4.03 4.67,-6.19 5.68,-7 -0.19,-13.67 1.21,-8.5 1.16,-4.42 2.24,-3.09 2.28,-4.89 -1.92,-6.1 -0.48,-3.44 0.38,-3.49 0.51,-2.32 -1.26,-2.25 1.16,-2.63 -0.05,-2.86 8.66,-3.24 2.04,-6.94 1.63,-10.2 0.42,-9.68 3.09,6.54 3.77,6.14 4.08,3.21 5.55,2.35 3.19,2.52 5.19,6.12 z" 
                fill="rgb(151, 144, 238)" 
                stroke="white" 
                stroke-width=".7px"
                title="Mukono" 
                id="UG-108" 
            />
        </svg>