<svg xmlns="http://www.w3.org/2000/svg" viewBox="251.17486000000005 265.2428699999997 86.77999999999994 73.85000000000002" width="86.77999999999994" height="73.85000000000002">
            <path 
                d="m 286.90486,268.25287 0,0 1.55,2.58 6.89,2.15 4.73,3.02 2.53,0.72 2.26,1.63 3.2,3.15 2.12,0.56 3.02,-0.48 2.02,3.37 2.71,2.65 9.05,-0.81 0.29,8.59 3.03,1.06 1.91,1.1 1.12,0.34 0.8,1.52 0.99,0.33 0.68,0.46 0.37,1.13 0.11,1.4 -0.09,1.28 0.21,2.25 1.55,10.5 -1.36,10.56 -5.63,0.63 -2.48,-4.36 -2.85,-2.86 -3.65,0.91 -1.25,5.62 -0.82,6.53 0.41,5.31 -6.69,-0.86 -9.46,-4.22 -6.53,-7.66 -1,-6.45 -5.06,-4.97 -10.45,-4.83 -17.25,-17.32 -12.71,-6.56 3.67,-5.45 2.45,-0.95 2.31,-1.41 2.99,-3.81 1.8,-4.39 1.84,-1.88 3.83,-2.02 3.81,-1.07 3.58,0.12 2.41,0.84 7.04,2.05 z" 
                fill="rgb(151, 144, 238)" 
                stroke="white" 
                stroke-width=".7px"
                title="Nakasongola" 
                id="UG-109" 
            />
        </svg>