<svg xmlns="http://www.w3.org/2000/svg" viewBox="236.89486000000002 286.22287000000006 69.47 97.5" width="69.47" height="97.5">
            <path 
                d="m 297.64486,326.35287 0,0 -0.59,8.66 1.22,6.53 5.31,8.17 0.09,12.82 0.9,1.76 1.37,1.14 0.42,1.75 -1.35,1.62 -1.14,1.95 -1.15,1.1 -2.06,-0.2 -2.53,0.11 -2.43,0.47 -1.91,1.33 -1.58,1.64 -1.97,3.72 -0.47,4.08 -2.91,0.72 -2.49,-1.18 -2.78,-1.7 -3.03,-0.75 -0.65,-2.8 -1.49,-6.14 -1.92,-4.41 2.81,-3 1.18,-2.96 -0.29,-5.04 -5.49,-4.84 -6.15,-1.15 -6.67,-4.57 -4.45,-7.51 0.1,-2.18 -0.2,-1.91 -4.85,-8.63 -2.09,-12.23 -3.84,-6.64 -7.67,-7.48 6.42,-6.64 4.25,-2.54 3.61,-3.2 12.71,6.56 17.25,17.32 10.45,4.83 5.06,4.97 1,6.45 z" 
                fill="rgb(151, 144, 238)" 
                stroke="white" 
                stroke-width=".7px"
                title="Nakaseke" 
                id="UG-115" 
            />
        </svg>