<svg xmlns="http://www.w3.org/2000/svg" viewBox="485.5648600000001 181.23287000000008 67.5499999999999 98.22999999999999" width="67.5499999999999" height="98.22999999999999">
            <path 
                d="m 551.11486,219.89287 0,0 2,11.99 -5.5,0.5 -0.49,9 0,13.49 -1.5,10 -4,6.99 -5.49,3.5 -6.28,4.1 -4.87,-2.97 -1.89,0.11 -1.86,-0.09 -1.16,-0.88 -1.42,-0.67 -2.8,-0.8 -7.24,3.8 -5.78,-0.2 -9.24,1 -1.51,-0.65 -1.41,-0.93 -1.62,0.23 -1.62,0.51 0.5,-7.37 -1.01,-0.41 -1.36,-0.09 0.01,-33.67 4.11,0 5.99,-1 4,-1.5 0.99,-3.49 3.5,-2 5.99,-4 15.99,-1 2.99,-4.5 0.5,-36.99 12.43,-0.67 3.06,8.17 3.49,10 0.82,14.8 1.68,5.69 z" 
                fill="rgb(151, 144, 238)" 
                stroke="white" 
                stroke-width=".7px"
                title="Nakapiripirit" 
                id="UG-311" 
            />
        </svg>