<svg xmlns="http://www.w3.org/2000/svg" viewBox="425.20486000000005 390.52287 34.19 153.65999999999997" width="34.19" height="153.65999999999997">
            <path 
                d="m 459.39486,419.16287 0,0 -0.89,1.18 -6.05,8.07 -0.32,2.06 3.23,10.72 3.22,10.69 0.11,4.02 -1.92,16.53 -2.47,21.45 -1.72,14.93 0.38,14.19 0.6,21.18 -8.53,0 -19.05,0 -0.78,0 0,-0.01 0,-93.56 11.02,-3.69 0.32,-2.85 -4.9,-4.08 -4.09,-7.76 0.65,-18.14 3.08,-3.36 0,-2.09 0,-0.68 -0.57,-1.6 4.6,-2.52 3.68,-2.65 3.47,-1.43 3.27,0.2 1.02,-4.49 2.04,-2.86 3.55,-2.09 2.33,4.64 0.31,2.65 -1.23,1.89 -1.74,1.71 -1.28,2.61 0.46,3.12 2.4,4.8 3.27,4.5 1.6,1.97 0.89,0.72 0.04,0.03 z" 
                fill="rgb(151, 144, 238)" 
                stroke="white" 
                stroke-width=".7px"
                title="Namayingo" 
                id="UG-230" 
            />
        </svg>