<svg xmlns="http://www.w3.org/2000/svg" viewBox="414.80486 326.64287 31.809999999999945 42.55000000000001" width="31.809999999999945" height="42.55000000000001">
            <path 
                d="m 436.77486,342.41287 0,0 2.46,2.49 0.87,3.37 -0.16,3.8 0.33,3.65 1.49,3.54 0.8,3.3 1.01,0.95 1.48,1 1.56,3.56 -3.27,1.02 -3.22,0.1 -3.21,-4.56 -1.95,2.56 -3.11,-0.41 -3.46,-1.44 -3.32,-1.78 -0.81,-4.12 -4.71,-1.92 -2.29,-0.65 -1.39,-1.87 -1.07,-6.84 4.62,-11.73 1.75,-2.11 1.29,-2.35 1.19,-2.77 1.67,-2.56 4.93,3.59 1.6,1.67 -0.02,5.03 1.19,1.96 3.75,3.52 z" 
                fill="rgb(151, 144, 238)" 
                stroke="white" 
                stroke-width=".7px"
                title="Namutumba" 
                id="UG-222" 
            />
        </svg>