<svg xmlns="http://www.w3.org/2000/svg" viewBox="425.83485999999994 144.91287000000005 116.23000000000002 91.46999999999994" width="116.23000000000002" height="91.46999999999994">
            <path 
                d="m 542.06486,181.23287 0,0 -12.43,0.67 -0.5,36.99 -2.99,4.5 -15.99,1 -5.99,4 -3.5,2 -0.99,3.49 -4,1.5 -5.99,1 -4.11,0 0.01,-11.22 -0.94,-5.1 -3.91,-3.23 -27.02,-16.86 -16.34,-10.2 -2.6,-1.11 -5.26,5.3 -3.68,0.17 1.98,-4.79 -0.58,-5.22 3.21,-0.21 3.02,-0.89 6.31,-3.56 6.81,0.08 6.69,0.79 7.69,-0.93 3.2,-0.07 1.44,-0.84 -0.26,-1.25 -2.37,-1.95 -1.22,-2.93 -2.31,-2.63 -1.05,-2.32 1.32,-11.01 4.99,-3.5 9.3,0.84 4.55,-0.39 8.5,2.84 2.67,-11.28 5.95,2.49 7.49,1 6,2.5 7.49,6.5 5.49,5 5,1.5 3.49,1 0,6.5 6,2 3.99,4 1.44,3.83 z" 
                fill="rgb(151, 144, 238)" 
                stroke="white" 
                stroke-width=".7px"
                title="Napak" 
                id="UG-328" 
            />
        </svg>