<svg xmlns="http://www.w3.org/2000/svg" viewBox="147.99485999999996 149.84286999999995 58.360000000000014 66.04999999999995" width="58.360000000000014" height="66.04999999999995">
            <path 
                d="m 195.39486,167.36287 0,0 1.35,1.94 1.47,1.65 1.25,2.17 1.58,4.47 1.82,1.54 0.89,-0.08 1.16,-0.37 1.01,-0.06 0.43,0.87 -0.14,1.17 -0.44,1.04 -0.77,0.76 -1.14,0.29 -1.56,0.74 -1.03,1.81 -0.52,2.35 -0.02,1.5 -0.39,2.81 -0.43,2.67 -1.6,1.54 -2.44,1.47 -5.38,2.54 -3.83,4.11 -0.8,2.8 1.43,5.87 -3.81,2.51 -3.02,0.42 0.04,-0.21 -0.18,-0.27 -1.17,-1.79 -5.89,-3.35 -2.16,-1.68 -0.8,-1.79 -0.35,-2.19 -0.16,-4.5 -5.02,1.9 -1.74,0.27 -1.41,-0.06 -4.56,-0.79 -1.51,-0.8 -0.54,-0.94 0.34,-0.42 0.58,-0.3 0.17,-0.6 -0.25,-0.77 -0.24,-0.44 -5.87,-6.6 -1.75,-1.13 0.87,-2.14 4.38,-0.61 0.6,-3.78 3.17,-1.96 1.51,-3.93 -2.18,-6.69 6.93,-1.17 4.15,-2.37 10.12,-1.32 3.73,-2.92 1.1,-1.5 -0.17,-2.14 0.54,-1.57 1.5,-1.16 0.9,-1.62 0.48,-1.41 1.94,-0.86 4.64,-2.44 2.02,1.4 1.57,0.81 1.02,1.23 0.57,3.67 0.42,1.18 0.27,1.25 -0.18,1.26 -0.57,0.56 -1.79,0.94 -0.55,0.57 -0.33,2.45 0.74,2.2 z" 
                fill="rgb(151, 144, 238)" 
                stroke="white" 
                stroke-width=".7px"
                title="Nebbi" 
                id="UG-310" 
            />
        </svg>