<svg xmlns="http://www.w3.org/2000/svg" viewBox="51.19486 514.3928700000002 57.460000000000015 49.66999999999973" width="57.460000000000015" height="49.66999999999973">
            <path 
                d="m 66.74486,515.27287 0,0 2.27,2.58 3.01,0.65 3.61,-0.09 -1.48,2.73 0.42,2.02 3.59,1.18 6.95,0.61 3.07,-0.75 2.1,-1.36 2.17,0.94 2.27,1.75 2.78,0.59 1.61,-0.78 1.67,-0.4 1.51,0.82 1.08,-0.21 1.03,-0.43 0.7,-0.73 0.79,-0.59 2.76,-0.11 -0.13,5.64 -1.34,2.7 -2,2.47 -1.64,0.6 -2.11,3 -1.32,1.24 -0.7,1.65 -0.29,1.67 -1.54,3.67 -2.15,3.4 -0.23,0.79 -1.58,-0.5 -1.41,0.2 -1.37,0.61 -1.63,0.41 -1.76,-0.23 -1.77,-0.51 -1.72,-0.26 -1.6,0.57 -0.87,1.48 -0.67,4.31 -0.54,1.58 -0.64,0.53 -1.74,0.78 -0.38,0.31 -0.07,0 -2.65,-0.12 -3.16,0.97 -2.59,2.51 -3.34,0.9 0.19,-3.04 -2.07,-1.1 -3.8,-0.28 -3.55,-1.13 -1.3,-2.55 -0.82,-3.02 -2.04,-2.1 -0.59,-2.41 0.11,-1.91 0.46,-1.64 2.03,-1.77 0.86,-1.86 -0.15,-2.18 0.3,-2.28 -1.88,-1.73 -2.27,-1.46 0.28,-2.87 1.74,-3.77 0.5,-4.02 -0.4,-4 2.59,-0.45 2.77,0.19 2.37,-2.26 2.54,-2.03 3.16,0.88 z" 
                fill="rgb(151, 144, 238)" 
                stroke="white" 
                stroke-width=".7px"
                title="Ntungamo" 
                id="UG-411" 
            />
        </svg>