<svg xmlns="http://www.w3.org/2000/svg" viewBox="185.86485999999988 148.29287000000016 107.2400000000001 64.66999999999993" width="107.2400000000001" height="64.66999999999993">
            <path 
                d="m 261.19486,150.88287 0,0 4.79,0 3.69,2.58 4.43,1.11 2.21,1.11 -1.35,3.31 -1.95,2.68 -0.73,2.92 1.46,3.17 2.92,1.71 6.57,0.46 -0.46,1.29 0.21,2.08 0.49,2.05 1.62,2.72 2.73,1.77 3.34,1.02 1.94,1.89 -4.3,0.49 -4.31,-0.45 -3.92,0.91 -0.56,4.26 0.49,8.62 1.95,8.33 -0.11,-0.05 -3.66,-0.2 -1.02,0.2 -0.72,0.55 -1.66,1.65 -1.18,0.58 -2.4,-0.09 -3.47,-2.7 -3.3,-0.99 -2.54,-1.39 -1.07,-0.45 -3.2,-0.37 -1.06,-0.35 -4.17,-3.73 -2.2,-0.98 -2.53,-1.79 -1.12,-0.61 -1.17,-0.17 -1.04,0.03 -0.99,-0.08 -1.06,-0.55 -1.72,0.81 -4.22,0.72 -1.94,0.67 -1.6,1.23 -3.37,3.74 -9.81,3.3 -1.95,0.26 -0.83,-0.23 -1.13,-0.97 -0.95,-0.22 -7.13,0 -1.54,0.45 -3.56,2.01 -5.03,1.3 -5.18,3.82 -2.82,0.95 -0.62,0.32 -2.09,1.38 -1.43,-5.87 0.8,-2.8 3.83,-4.11 5.38,-2.54 2.44,-1.47 1.6,-1.54 0.43,-2.67 0.39,-2.81 0.02,-1.5 0.52,-2.35 1.03,-1.81 1.56,-0.74 1.14,-0.29 0.77,-0.76 0.44,-1.04 0.14,-1.17 -0.43,-0.87 -1.01,0.06 -1.16,0.37 -0.89,0.08 -1.82,-1.54 -1.58,-4.47 -1.25,-2.17 -1.47,-1.65 -1.35,-1.94 4.57,-1.34 3.32,-3.32 4.79,-5.17 4.43,-2.22 12.17,0 1.48,-4.06 2.95,-2.59 24.71,-0.37 3.69,2.22 3.69,0.37 z" 
                fill="rgb(151, 144, 238)" 
                stroke="white" 
                stroke-width=".7px"
                title="Nwoya" 
                id="UG-329" 
            />
        </svg>