<svg xmlns="http://www.w3.org/2000/svg" viewBox="355.85485999999986 166.11286999999996 71.9600000000001 30.960000000000036" width="71.9600000000001" height="30.960000000000036">
            <path 
                d="m 409.10486,169.81287 0,0 5.95,-0.27 6.84,9.24 3.12,2.3 2.22,3.04 0.58,5.22 -1.98,4.79 -2.89,2.94 -3.54,-0.57 -3.11,-1.91 -3.24,-0.11 -2.74,1.83 -10.04,0 -1.52,-1.22 -5.17,-1.83 -7.91,-0.3 -4.87,-1.22 -2.13,-2.13 -1.52,-3.96 -4.56,-1.83 -3.96,0 -2.43,1.83 -4.87,0 -5.48,-1.22 3.35,-2.13 1.52,-3.35 0.26,-2.83 3.03,-3.68 4.18,-2.59 4.65,-1.92 2.06,-0.44 1.5,1.13 1.78,0.92 2.39,-0.82 1.67,0.13 1.67,0.5 4.39,-0.39 4.26,1.39 1.97,-1.07 1.72,-1.77 2.25,0.28 2.4,0.9 1.89,-0.83 1.63,-1.75 4.68,3.7 z" 
                fill="rgb(151, 144, 238)" 
                stroke="white" 
                stroke-width=".7px"
                title="Otuke" 
                id="UG-330" 
            />
        </svg>