<svg xmlns="http://www.w3.org/2000/svg" viewBox="280.0148600000001 166.88287000000003 61.01999999999987 60.51000000000005" width="61.01999999999987" height="60.51000000000005">
            <path 
                d="m 324.45486,168.77287 0,0 11.62,2.62 4.96,6.53 -1.24,4.28 -3.65,2.88 -4.51,-1.49 -4.39,-0.2 -7.2,9.25 -4.12,1.15 2.22,12.27 -2.43,1.9 -1.86,2.36 -1.25,2.56 -1.84,3.74 -6.39,9.77 -4.99,1 -7.9,-3.3 -0.84,-2.23 -1.15,-1.65 -0.75,-1.66 -1.06,-7.29 -1.89,-3.59 -1.62,-1.95 -1.72,-0.81 -1.95,-8.33 -0.49,-8.62 0.56,-4.26 3.92,-0.91 4.31,0.45 4.3,-0.49 3.71,0.1 4.37,-1.02 4.78,-13.49 8.96,-1.46 9.53,1.89 z" 
                fill="rgb(151, 144, 238)" 
                stroke="white" 
                stroke-width=".7px"
                title="Oyam" 
                id="UG-321" 
            />
        </svg>