<svg xmlns="http://www.w3.org/2000/svg" viewBox="304.72486000000004 108.73286999999995 80.63999999999999 68.34000000000002" width="80.63999999999999" height="68.34000000000002">
            <path 
                d="m 351.98486,116.17287 0,0 0.34,-7.4 5.99,0.65 7.86,4.26 3.27,4.26 3.3,2.8 2.89,4.91 0,4.26 -2.13,2.44 -3.04,2.44 0.6,3.65 5.48,0.92 6.69,0.3 2.13,3.66 -0.6,7 -3.35,3.66 -13.39,0.61 -2.74,3.04 2.44,3.66 5.12,6.64 -4.65,1.92 -4.18,2.59 -3.03,3.68 -3.34,0.95 -1.5,-1.49 -2.08,-0.23 -1.4,-5.18 -2.76,-0.92 -1.96,-1.24 -2.48,-0.28 -1.97,-0.92 -1.18,-1.61 -1.36,0.04 -1.65,3.73 -3.23,2.42 -11.62,-2.62 0.16,-1.91 1.54,-1.21 1.39,-1.75 -0.52,-2.31 -0.72,-1.78 0.92,-1.35 2.76,-0.79 1.63,-2.26 -1.35,-1.55 -1.97,-1.02 -1.26,-2.4 -1.01,-2.6 -1.29,-1.16 -1.29,-0.69 -1.58,-2.07 -10.45,-19.58 -6.69,-8.92 1.06,-0.85 2,0 1.22,-1.24 17.16,-0.09 5.78,-3.49 4.91,-1.02 1.83,1.12 3.91,0.55 5.59,3.61 3.8,2.16 z" 
                fill="rgb(151, 144, 238)" 
                stroke="white" 
                stroke-width=".7px"
                title="Pader" 
                id="UG-312" 
            />
        </svg>