<svg xmlns="http://www.w3.org/2000/svg" viewBox="401.61485999999996 300.3228699999999 75.43 26.400000000000034" width="75.43" height="26.400000000000034">
            <path 
                d="m 438.47486,303.70287 0,0 3.11,-0.57 2.88,0.28 1.83,2.14 2,1.83 2.74,0.77 2.89,0.45 1.97,1.54 1.64,2.07 9.06,1.87 2.12,0.76 2.06,1.15 4.88,1.26 0.08,2.17 1.12,1.89 0.19,2.54 -4.55,-1.95 -3.92,-1.8 -6.93,-2.11 -8.13,0.3 -5.12,2.11 -7.83,3.61 -7.23,2.71 -8.01,-0.08 -2.26,-3.1 -1.55,-3.6 -2.2,-2.47 -2.69,-2.21 -1.49,-0.41 -1.12,-0.2 -2.65,-3.71 -2.73,-2.77 -3.12,-2.34 -2.87,-1.21 -1.03,-3.78 2.42,-0.35 1.04,2.03 1.69,0.4 2.04,-0.86 2.47,0.51 6.39,-1.17 15.34,-1.02 2.48,-0.06 1.02,1.74 1.97,1.64 z" 
                fill="rgb(151, 144, 238)" 
                stroke="white" 
                stroke-width=".7px"
                title="Pallisa" 
                id="UG-210" 
            />
        </svg>