<svg xmlns="http://www.w3.org/2000/svg" viewBox="159.11485999999996 488.14287 94.84 56.04000000000008" width="94.84" height="56.04000000000008">
            <path 
                d="m 199.11486,502.67287 0,0 3.85,-1.78 0.89,-5.33 2.27,-2.17 3.95,-0.2 3.55,-1.77 2.37,-2.67 4.03,0.73 3.07,4.51 -0.91,2.71 0.81,2.71 -0.41,0.78 -0.71,0.69 -0.16,2.66 1.43,2.65 1.82,2.09 2.17,4.79 2.43,2.95 2.2,1.08 3.84,1.37 1.91,0.82 3.29,0.82 3.83,0.27 9.32,0 0,23.79 0,0.01 -18.51,0 -19.05,0 -19.05,0 -16.83,0 -0.01,-0.01 -1.08,-1.14 -1.98,-2.12 -0.43,-2.61 -0.74,-2.65 -2.16,-2.15 -2.38,-1.57 -1.39,-2.22 1.84,-2.37 -1.48,-4.65 0.4,-2.63 -0.94,-2.95 -1.9,-2.47 -4.22,-3.92 -4.93,-2.95 4.47,-8.13 1.76,-4.81 5.33,0.44 4.44,-0.89 0.87,-6.24 4.46,5.35 6.82,4.74 6.99,2.69 4.86,1.75 z" 
                fill="rgb(151, 144, 238)" 
                stroke="white" 
                stroke-width=".7px"
                title="Rakai" 
                id="UG-110" 
            />
        </svg>