<svg xmlns="http://www.w3.org/2000/svg" viewBox="10.18486 447.70287000000013 70.72 35.57999999999987" width="70.72" height="35.57999999999987">
            <path 
                d="m 68.74486,448.09287 0,0 -0.49,0.92 -0.4,0.99 5.38,2.32 2.29,3.51 1.08,4.03 1.56,0.19 2.74,1.82 -4.2,3.44 -6.94,1.64 -4.91,2.85 -2.45,2.05 -0.81,11.43 -4.9,-1.63 -3.68,-4.49 -3.27,-0.82 -4.08,2.04 -4.09,2.45 -3.26,0.82 -7.1,-3.28 -21.03,-1.27 0.74,-4.33 0.32,-1.82 1.72,-10.21 0.63,-3.72 0.48,-2.83 8.31,1.73 7.76,0.41 11.21,1.69 6.35,-0.06 13.36,-10.26 5.35,0 2.33,0.39 z" 
                fill="rgb(151, 144, 238)" 
                stroke="white" 
                stroke-width=".7px"
                title="Rubirizi" 
                id="UG-424" 
            />
        </svg>