<svg xmlns="http://www.w3.org/2000/svg" viewBox="8.684860000000004 477.1028699999999 46.66 75.83999999999997" width="46.66" height="75.83999999999997">
            <path 
                d="m 38.31486,481.65287 0,0 3,4.31 0.5,2.22 -0.2,2.63 -0.34,1.59 -0.23,2.9 -1.22,2.43 -0.28,1.51 -1.58,0.59 -1.39,0.8 1.66,3.9 3.97,1.99 3,3.44 1.92,4.48 6.19,4.5 0.4,4 -0.5,4.02 -1.74,3.77 -0.28,2.87 2.27,1.46 1.88,1.73 -0.3,2.28 0.15,2.18 -0.86,1.86 -2.03,1.77 -0.46,1.64 -0.11,1.91 0.59,2.41 2.04,2.1 -14.22,-3.82 -3.29,-0.61 -7.27,-12.51 0.3,-2.17 1.39,-1.91 -0.4,-2.36 -2,-2.24 1.68,-8.5 -5.99,-9.22 -0.95,-2.78 0.3,-3.12 -2.58,0.12 -2.47,-0.52 -1.92,-2.8 -0.42,-3.44 0.64,-6.13 -0.09,-6.1 -8.39,1.05 1.5,-8.78 21.03,1.27 7.1,3.28 z" 
                fill="rgb(151, 144, 238)" 
                stroke="white" 
                stroke-width=".7px"
                title="Rukungiri" 
                id="UG-412" 
            />
        </svg>