<svg xmlns="http://www.w3.org/2000/svg" viewBox="151.3948599999999 415.7828700000001 63.12000000000006 56.82999999999987" width="63.12000000000006" height="56.82999999999987">
            <path 
                d="m 178.29486,422.24287 0,0 3.14,-3.07 4.72,-0.2 4.7,0.35 1.74,1.13 2.34,3.65 2.13,0.91 8.15,4.48 7.69,5.21 -4.31,3.24 1.48,7.56 2.37,12.15 2.07,9.47 -0.3,3.56 -1.99,0.71 -7.14,1.09 -5.84,0.13 -2.29,-0.51 -2.27,-0.28 -8.61,-1.44 -5.8,-3.39 1.15,-2.56 0.79,-2.88 1.07,-2.49 0.4,-2.82 -0.14,-1.56 -0.51,-1.51 0.45,-2.88 -2.22,-2.54 -2.94,-1.89 -1.34,3.61 -5.51,-2.64 -0.33,-1.83 -5.59,-1.84 -2.45,-0.46 -1.43,0.95 -2.28,0.82 -3.49,-1.02 -2.94,-0.39 0.66,-1.74 1.34,-1.37 0.89,-2.25 -0.08,-6.7 -0.43,-4.14 -2.16,-3.91 -1.79,-4.16 0.84,-0.46 3.85,0.09 3.7,-0.61 3.97,-2.03 3.95,0.36 2.89,3.39 3.39,2.58 4.31,0.13 z" 
                fill="rgb(151, 144, 238)" 
                stroke="white" 
                stroke-width=".7px"
                title="Sembabule" 
                id="UG-111" 
            />
        </svg>