<svg xmlns="http://www.w3.org/2000/svg" viewBox="381.02486000000005 261.15287000000006 52.889999999999986 41.76999999999987" width="52.889999999999986" height="41.76999999999987">
            <path 
                d="m 419.74486,276.67287 0,0 6.7,-0.61 7.47,-1.88 -5.05,18.58 -4.31,2.13 -1.27,0.77 -1.28,0.11 -1.21,0.77 -1.96,2.27 -1.17,2.59 -6.39,1.17 -2.47,-0.51 -2.04,0.86 -1.69,-0.4 -1.04,-2.03 -2.42,0.35 -1.28,-2 -1.51,-1.65 -4.73,0.24 -4.68,1.34 -8.31,-1.4 -0.08,-9.78 0.78,-11.37 3.29,-4.56 0.27,-4.12 0.61,-4.56 6.09,0 4.26,-1.83 1.52,2.44 7,1.82 3.04,6.39 4.56,3.05 7.3,1.82 z" 
                fill="rgb(151, 144, 238)" 
                stroke="white" 
                stroke-width=".7px"
                title="Serere" 
                id="UG-232" 
            />
        </svg>