<svg xmlns="http://www.w3.org/2000/svg" viewBox="396.32485999999994 229.43287000000015 47.490000000000066 47.23999999999995" width="47.490000000000066" height="47.23999999999995">
            <path 
                d="m 443.65486,262.03287 0,0 -0.38,2.36 0.54,1.81 -2.57,1.24 -3.24,-0.58 -2.18,1.67 -1.19,2.99 -0.72,2.66 -7.47,1.88 -6.7,0.61 -7.3,-1.82 -4.56,-3.05 -3.04,-6.39 -7,-1.82 -1.52,-2.44 4.86,-3.65 3.85,-2.3 0.08,-2.05 0.02,-1.95 1.84,-3.34 -0.28,-2.32 -1.05,-2.16 0.76,-4.47 1.21,-4.26 0.59,-3.38 2.48,-1.84 4.03,0.88 1.96,3.74 2.59,2.85 3.44,1.95 2.23,0.48 2.09,0.85 0.68,1.8 0.41,1.79 1.9,1.61 2.25,1.13 1.02,1.08 0.92,1.23 3.59,2.92 3.01,3.45 0.56,2.15 0.31,2.25 0.88,1.2 1.1,1.24 z" 
                fill="rgb(151, 144, 238)" 
                stroke="white" 
                stroke-width=".7px"
                title="Soroti" 
                id="UG-211" 
            />
        </svg>