<svg xmlns="http://www.w3.org/2000/svg" viewBox="449.49485999999996 345.9328699999999 44.87000000000006 35.47999999999996" width="44.87000000000006" height="35.47999999999996">
            <path 
                d="m 480.56486,353.66287 0,0 6.86,5.49 6.89,2.95 0.05,0.02 -0.42,2.4 -1.67,4.46 -2.51,2.69 -3.37,1.71 -4.22,1.53 -3.08,2.11 -1.78,3.2 -0.09,0.36 -0.05,-0.01 -0.48,-0.09 -10.08,-0.68 -1.84,0.65 -1.73,0.96 -1.98,-0.01 -2,-0.27 -6.41,-4.64 -1.35,-4.11 -1.81,-3.78 0.79,-0.92 0.09,-1.23 5.19,-11.62 2.42,-3.27 3.36,-2.28 1.9,-0.24 1.96,-0.01 1.81,-0.72 1.5,-1.26 1.74,-0.96 2.12,-0.16 2.68,1.15 2.38,1.51 1.96,2.17 1.17,2.9 z" 
                fill="rgb(151, 144, 238)" 
                stroke="white" 
                stroke-width=".7px"
                title="Tororo" 
                id="UG-212" 
            />
        </svg>