<svg xmlns="http://www.w3.org/2000/svg" viewBox="278.20486000000005 380.0928699999999 46.97999999999996 76.71999999999997" width="46.97999999999996" height="76.71999999999997">
            <path 
                d="m 286.86486,383.72287 0,0 2.91,-0.72 1.55,-1.06 1.58,-0.72 9.83,1.12 5.13,-0.04 3.89,1.02 3.98,-2.95 4.65,1.59 4.75,-0.03 0.05,2.86 -1.16,2.63 -2.23,0.26 -2.03,0.59 -0.66,1.85 -1.57,1.17 -1.88,0.14 -1.3,-1.14 -1.83,-0.76 -1.37,4.25 0.89,1.3 1.57,1.28 -0.41,0.75 0.12,0.91 0.7,0.59 0.17,0.77 -0.63,2.87 -1.44,1.83 -2.25,4.19 2.47,3.08 6.26,-1.53 5.91,0.09 -2.24,3.09 -1.16,4.42 -1.21,8.5 0.19,13.67 -5.68,7 -4.67,6.19 -3.03,4.03 -11,-0.34 -14.5,-0.15 0.38,-5.44 -0.33,-4.92 -2.54,-4.24 -0.44,-4.89 0.72,-2.15 2.05,-1.32 2.25,-1.79 1.04,-2.89 1.88,-1.14 2.28,-0.7 1.99,-1.68 1.32,-2.32 0.85,-2.11 1.54,-1.36 2.47,-1.15 1.38,-1.98 1.43,-3.96 1.65,-9.91 -7.35,-7.76 -11.02,0 -4.56,-7.17 0.36,-7.35 3.03,0.75 2.78,1.7 2.49,1.18 z" 
                fill="rgb(151, 144, 238)" 
                stroke="white" 
                stroke-width=".7px"
                title="Wakiso" 
                id="UG-113" 
            />
        </svg>