<svg xmlns="http://www.w3.org/2000/svg" viewBox="155.18486000000007 44.882870000000004 60.02999999999997 70.25" width="60.02999999999997" height="70.25">
            <path 
                d="m 205.82486,59.09287 0,0 1.12,-0.98 0.11,-0.1 1.21,-1.51 1.83,-0.92 5.12,-0.75 -2.82,6.75 -5.38,7.25 -7.43,10.92 -0.81,10.99 0.49,13.89 6.64,7.78 -1.26,2.72 -9.18,-1.26 -0.51,-4.74 -2.16,-4.5 -2.84,-0.36 -2.44,-0.75 -1.26,-2.46 -1.95,-1.69 -5.28,-1.51 -4.26,-3.14 -2.06,-2.14 -3.01,-0.94 -2.66,-0.43 -2.11,1.2 -0.86,2.47 -2.01,1.56 -2.95,0.59 -2.19,-2.16 -0.52,-11.64 -1.21,-11.28 1.52,-13.72 1.76,-7.03 0.94,-0.37 2.78,-2.17 3.86,-3.02 2.72,-0.76 4.91,0 4.26,0.6 4.09,1.3 8.6,4.68 13.3,7.24 1.9,0.39 z" 
                fill="rgb(151, 144, 238)" 
                stroke="white" 
                stroke-width=".7px"
                title="Yumbe" 
                id="UG-313" 
            />
        </svg>