<svg xmlns="http://www.w3.org/2000/svg" viewBox="120.89486000000002 154.8728700000001 37.629999999999995 42.20999999999992" width="37.629999999999995" height="42.20999999999992">
            <path 
                d="m 156.34486,170.32287 0,0 2.18,6.69 -1.51,3.93 -3.17,1.96 -0.6,3.78 -4.38,0.61 -0.87,2.14 -3.87,-0.01 -1.71,2.86 -1.44,3.35 -3,1.45 -1.75,-0.8 -1.94,-1.73 -1.72,-2.05 -1.05,-1.7 -0.28,-1.53 0.01,-1.58 -0.23,-1.27 -1.03,-0.6 -7.29,-0.07 -1.5,-0.45 -0.3,-1.79 0.95,-2.17 1.31,-2.12 0.8,-1.67 0.08,-1.87 -0.4,-3.85 0.13,-1.94 0.43,-1.07 2.04,-3.17 0.24,-0.82 0.08,-0.43 0.24,-1.32 0.67,-1.82 6.6,-1.45 3.54,-2.32 5.86,-2.01 4.32,-0.61 1.02,4.19 1.36,3.83 -0.01,4.74 6.19,2.69 z" 
                fill="rgb(151, 144, 238)" 
                stroke="white" 
                stroke-width=".7px"
                title="Zombo" 
                id="UG-331" 
            />
        </svg>