<svg xmlns="http://www.w3.org/2000/svg" viewBox="341.55530000000044 96.90393 80.66999999999973 66.83999999999997" width="80.66999999999973" height="66.83999999999997">
            <path 
                d="m 379.4053,96.90393 0.51,0.92 1.69,0.13 0.88,1.5 0.33,1.2 0.03,1.99 1.18,2 -0.34,1.12 0.55,0.03 0.04,-0.4 0.6,0 1.37,0.6 0.78,1.26 0.73,0.33 0.37,0.64 2.74,-0.16 0.57,-0.39 0.98,0.09 -0.35,1.68 -2.39,3.64 0.05,1.04 0.47,1.24 1.26,1.76 -0.22,1.2 -0.95,1.22 -0.13,0.64 0.42,2.81 -0.45,1.16 2.12,0.99 1.36,-0.68 1.82,0.83 0.83,-0.31 2.98,-0.23 1.51,1.06 1.62,2.26 0.53,-0.33 1.02,-1.85 1.57,-1.02 0.79,0.05 2.22,-1.22 0,0 -0.13,0.72 -0.71,0.53 -0.43,0.8 -0.11,0.76 0.37,0.66 3.72,1.27 0.44,1.2 1.51,0.51 1.76,1.71 2.14,1.03 0.33,1.65 1.67,0.72 0.35,0.44 -0.07,0.66 -0.65,0.49 -1.7,0.35 -0.09,1.71 0.57,0.48 0.64,-0.01 1.77,-0.78 0.74,0.3 0.25,1.26 1.36,1.82 -0.79,0.51 -0.09,0.37 0.34,0.5 -0.2,1.27 0.34,0.63 0,0 -0.98,0.88 -0.51,0.98 -1.4,0.85 -3.76,0.38 -2.78,1.07 -4.05,0.09 -0.72,-0.21 -2.11,0.21 -1.54,-0.71 -2.13,-0.4 -1.93,0.34 -0.58,0.59 -0.52,0.12 -0.23,0.39 0.49,0.5 -0.17,0.49 -1.75,-0.19 -1.07,-0.56 -1.9,-0.07 -1.22,-0.56 -0.41,0.08 -0.31,0.62 -1.57,0.2 -1.25,1.11 -1.82,0.66 -0.85,0 -0.84,-0.93 -0.88,-0.25 0.16,0.52 -0.44,1.21 -0.25,4.05 -1.78,4.82 -2.14,2.2 0,0 -0.55,-0.79 -1.46,-0.16 -0.7,-1.03 -1.13,-0.39 -1.3,-1.15 -2.42,-0.28 -1.71,-2.4 -2.92,0.15 -1.12,0.62 -0.5,-0.39 -0.37,0.25 0.04,0.82 -1.74,1.09 -1.26,0.11 -0.81,-0.55 -0.31,0.47 -0.37,0 -1.08,-1.78 -1.02,-2.56 -0.52,-0.84 -1.06,-0.41 -1.39,-3.22 -0.54,-0.66 -0.58,-0.39 -1.27,-0.16 -1.06,-0.92 -3.5,-1.08 -0.19,-1.13 -1.65,-2.36 -0.61,-1.73 -0.83,-0.03 0,0 0.57,-0.59 -0.04,-0.19 -0.81,-0.02 0.06,-0.45 0.75,-0.42 -0.21,-0.21 -0.75,-0.18 -0.83,0.68 -1,0.02 1.04,-0.89 -0.84,-0.47 0.18,-1.32 0.35,-0.39 -0.94,-0.86 0.75,-0.35 -0.19,-0.45 -0.65,-0.35 0.58,-0.39 -0.15,-0.58 0.58,-0.56 -0.55,-0.68 0.19,-0.27 0.61,0.02 0.02,-0.31 -0.76,-0.87 0.32,-2.11 -0.19,-0.25 -0.69,0.38 -0.33,-0.19 0.41,-0.62 -1.03,-0.78 -0.07,-0.83 -0.54,-0.12 -0.21,0.37 -0.23,-0.06 0,-0.35 -0.5,-0.49 0.06,-0.35 0.9,-0.15 0.66,-1.16 0.2,-1.12 0.67,-0.31 0.92,0.29 1.38,-0.11 0.56,-0.83 -0.9,-0.43 1.59,-0.67 1.21,-1.64 -1.07,-0.39 -0.17,-0.97 -0.46,0.15 -0.3,-0.39 1.15,-0.79 -0.65,-0.66 0.81,-1.31 -0.49,-0.35 -0.17,-0.78 -1.48,-1.95 0,0 1.59,-0.88 1.13,-0.14 1.54,-0.74 0,0 0.2,0.82 0.86,0.88 1.12,-0.46 0.75,0.27 0.6,-0.14 0.66,0.67 0.73,-0.31 0.42,0.33 0.78,-0.28 0.43,0.65 1.13,0.47 0.17,0.93 1.69,-0.73 0.56,0.69 0.7,-0.47 1.3,0.09 1.69,0.66 0.19,0.14 -2.09,0.64 -1.3,0.71 0.63,2.24 0.51,0.27 0.85,-0.05 0.91,-1.66 0.43,-1.75 1.96,-1.6 1,-0.19 0.07,-0.53 1.75,-0.23 -0.52,-1.11 0.74,-0.26 0.27,-0.52 0.49,0.24 0.4,-0.19 -0.28,-1.22 -0.68,-0.42 -0.36,-1.07 0.44,-1.2 -0.57,-0.58 0.18,-0.95 -0.22,-0.22 0.5,-1.06 -0.28,-0.4 1.43,-0.37 -0.48,-1.04 0.98,-1.1 -0.02,-0.6 0,0 0,0 0,0 -0.03,0 0,0 0,-0.17 0.18,-0.06 0.13,-0.35 1.03,-0.57 1.87,-1.77 0.71,-0.24 0.34,-0.43 0.39,0.01 -0.01,-0.34 1.66,-0.06 0.55,-0.48 0.37,-0.03 0.59,-0.54 0.31,0.34 0.36,-0.43 z" 
                fill="rgb(151, 144, 238)" 
                stroke="white" 
                stroke-width=".7px"
                title="Chaouia-Ouardigha" 
                id="MA-09" 
            />
        </svg>