<svg xmlns="http://www.w3.org/2000/svg" viewBox="291.7052999999996 113.76393 57.09000000000043 79.19000000000001" width="57.09000000000043" height="79.19000000000001">
            <path 
                d="m 345.9653,113.76393 1.48,1.95 0.17,0.78 0.49,0.35 -0.81,1.31 0.65,0.66 -1.15,0.79 0.3,0.39 0.46,-0.15 0.17,0.97 1.07,0.39 -1.21,1.64 -1.59,0.67 0.9,0.43 -0.56,0.83 -1.38,0.11 -0.92,-0.29 -0.67,0.31 -0.2,1.12 -0.66,1.16 -0.9,0.15 -0.06,0.35 0.5,0.49 0,0.35 0.23,0.06 0.21,-0.37 0.54,0.12 0.07,0.83 1.03,0.78 -0.41,0.62 0.33,0.19 0.69,-0.38 0.19,0.25 -0.32,2.11 0.76,0.87 -0.02,0.31 -0.61,-0.02 -0.19,0.27 0.55,0.68 -0.58,0.56 0.15,0.58 -0.58,0.39 0.65,0.35 0.19,0.45 -0.75,0.35 0.94,0.86 -0.35,0.39 -0.18,1.32 0.84,0.47 -1.04,0.89 1,-0.02 0.83,-0.68 0.75,0.18 0.21,0.21 -0.75,0.42 -0.06,0.45 0.81,0.02 0.04,0.19 -0.57,0.59 0,0 -0.78,0.24 -0.91,1.03 -0.22,1.13 0.46,1.09 -0.33,0.41 0,0.72 -1.39,1.08 0.25,0.47 -0.25,0.74 1.07,1.64 0.21,1.11 -0.26,1.28 -0.23,0.21 -0.44,-0.2 -1.34,1.92 -0.97,0.7 -0.56,0.83 -1.14,0.52 -0.52,0.62 -2.37,0.04 -0.62,0.52 0.03,1.54 -0.23,0.35 -1.66,-0.01 -1.12,0.48 -0.8,1.3 -2.93,0.94 -0.29,1.47 0.13,0.92 1.18,2.91 1.61,2.22 1.52,1.34 1.31,0.24 2.3,1.27 1.54,1.3 0.15,0.65 -0.05,0.8 -0.48,-0.68 -0.64,-0.1 -0.15,1.97 -1.42,0.85 -1.66,1.47 -1.41,2.53 -0.24,1.51 -0.92,1.17 -0.16,0.68 -1.73,2.17 0.7,2.34 0.62,0.14 1.23,1.69 -1.11,0.42 -0.51,-0.1 -1.26,-0.91 -2.75,1.17 -1.98,-0.66 -0.73,-1.2 -1.12,-0.66 -3.19,0.48 -0.61,0.33 -0.93,-0.48 -0.51,0.11 -0.77,1.01 -0.29,0.08 -0.36,-0.61 -0.53,0.82 -0.43,-0.08 -1.33,-1.17 -1.02,0.4 -0.5,-0.38 0.03,-0.84 -2.28,-0.53 -0.29,-0.71 -2.07,-1.18 -0.55,-2.47 -0.63,-1.16 -1.97,-0.69 -4.96,-0.47 -2.66,0.44 -2.07,-0.19 -3.65,-1.32 0,0 2.99,-3.5 0.42,-0.36 0.06,-0.12 0.15,-0.63 -0.25,0.02 0.63,-0.84 0.26,-2.1 2.31,-2.79 0.32,-1.15 0.05,-1.02 -0.54,-1.27 0.82,-2.15 -0.06,-0.29 -0.18,-0.55 -1.15,-0.47 -0.37,-1.54 0.19,-0.6 1.41,-1.75 0.65,-2.68 -1.18,-1.25 -0.36,-1.11 -0.53,-0.65 6.3,-5.37 2.91,-3.46 0.18,0.25 0.37,-0.49 -0.44,0.11 5.31,-4.39 4.18,-4.62 0.4,-0.63 0.88,-0.93 0.45,0 0.32,-0.64 -0.29,0.09 -0.04,0.39 -0.52,0.05 1.58,-1.89 0.59,-0.31 0.03,-0.33 0.79,-1.37 1.9,-2.14 0.12,-0.3 0.13,-0.29 0.14,-0.38 -0.88,0.41 0.43,-0.45 0.74,-0.21 -0.65,-0.99 0.17,-0.43 1.48,-1.69 1.19,-0.64 -0.13,-0.41 0.48,-0.63 1.36,-0.96 0.36,0.1 0.22,0.36 -0.2,0.23 0.43,0.35 1.66,-0.31 1.88,-1.12 1.67,-1.58 0.62,-0.28 1.25,-2.14 3.42,-0.89 1.19,-0.86 1.95,-0.4 4.69,-2.07 z" 
                fill="rgb(151, 144, 238)" 
                stroke="white" 
                stroke-width=".7px"
                title="Doukhala-Abda" 
                id="MA-10" 
            />
        </svg>