<svg xmlns="http://www.w3.org/2000/svg" viewBox="443.8353 74.26392999999999 93.5399999999999 77.14999999999986" width="93.5399999999999" height="77.14999999999986">
            <path 
                d="m 443.8353,74.31393 1.6,1.71 1.36,-0.53 0.65,0.93 1.8,-0.69 1.24,-0.06 0.35,-0.28 0.86,0.27 0.8,-0.79 1.58,-0.61 1.83,0.31 0.43,0.33 -0.04,0.81 0.37,0.11 1.17,-0.87 0.4,0.04 -0.24,0.45 0.13,0.34 0.41,-0.04 0.42,-0.65 3.18,0.27 0.44,0.74 -0.57,0.65 0.24,0.4 0.68,-0.19 0.7,-0.69 0.46,0.06 0.65,0.95 -0.98,0.14 -0.12,0.44 0.64,0.41 0.02,0.79 1.83,-0.01 0.93,-0.5 0.54,0.19 0.19,0.63 -0.15,1.41 0.61,0.1 0.89,-0.29 0.28,1.23 -0.18,0.85 0.88,1.66 1.37,0.3 0.41,0.43 1.49,0.08 1.06,0.87 1.39,0.08 0.52,0.38 -0.11,0.69 0.8,0.98 0.12,0.63 -0.03,3.22 1.11,1.13 1.37,0.6 1.32,0.17 1.39,1.12 0.54,0.12 2.75,-2 0.94,-0.01 1.05,0.74 1.03,0.02 0.2,0.21 0.52,2.05 0.59,0.06 0.47,0.41 2.5,-0.11 0.45,0.3 -1.98,1.22 -0.92,1.52 -0.18,3.14 1.02,1.73 1.37,-0.95 0.71,-0.09 0.78,0.02 0.98,0.6 -0.09,0.74 -1.35,2.04 1.55,1.95 4,-0.34 1.3,-0.88 3.16,-1.4 0.82,-1.31 0.38,-0.21 0.25,-1.36 1.41,-0.91 1.34,-1.45 0.31,-0.74 1.43,-0.53 1.51,-1.22 2.04,-3.7 0.98,-0.58 0.58,-1.61 0.51,-0.14 0.51,0.02 0.5,0.85 1.04,0.46 0.29,0.43 0.89,0.27 1.75,2.11 0.57,0.32 3.25,0.71 2.76,2.02 1.47,0.53 3.39,0.61 0,0 -0.76,2.94 -1.09,1.72 -2.49,2.72 -0.93,2.09 -0.01,0.94 0.73,1.49 2.45,1.52 2.68,2.44 1.54,2.58 3.01,3.58 0.55,1.54 -0.32,1.85 -0.83,1.24 -2.4,0.86 -1.71,0.29 -4.29,1.75 -2.25,0.49 -2.74,0.13 -3.61,-0.58 -3.92,-0.05 -4.79,0.52 -1.92,1.14 -2.99,2.98 -1.95,3.09 -3.34,6.38 -2.23,2.44 -2.09,3.29 0.16,0.74 0,0 -1.36,0.55 -1.11,0.07 -2.77,-0.05 -1.41,-0.36 -1.1,0.22 -0.91,-0.32 -0.31,-0.56 -0.12,-3.17 -3.48,-3.51 -1.54,-0.98 -0.94,-2.04 -0.62,-0.69 -0.56,-0.37 -2.54,-0.21 -4.59,0.69 -1.71,-0.7 -1.5,-1.16 -0.36,-0.89 0.11,-1.07 0.48,-0.75 0.13,-0.82 -3.53,-3.99 -1.97,-6.3 -1.37,-3.13 -2.33,-2.07 -0.71,-1.38 -0.12,-0.89 0.25,-0.78 3.9,-5.65 0.3,-1.02 -0.25,-1.47 -1.62,-1.72 -2.16,-1.75 -3.65,-0.5 -0.86,-0.54 -0.41,-0.86 -0.02,-1.01 1.75,-4.58 -0.23,-2.27 -1.28,-2.04 -0.89,-0.52 -0.82,-3.1 -2.23,-0.63 -1.15,0.04 -0.55,-0.66 -0.65,-1.57 -0.48,-0.39 -1,-0.21 -1.24,0.6 -0.54,-0.18 -0.38,-2.17 0.2,-3 -0.21,-2.11 -0.41,-1.45 -0.45,-0.48 0,0 -0.99,-1.44 z" 
                fill="rgb(151, 144, 238)" 
                stroke="white" 
                stroke-width=".7px"
                title="Fès-Boulemane" 
                id="MA-05" 
            />
        </svg>