<svg xmlns="http://www.w3.org/2000/svg" viewBox="395.1752999999999 43.84393 59.460000000000036 40.920000000000016" width="59.460000000000036" height="40.920000000000016">
            <path 
                d="m 412.7153,43.84393 3.63,0.35 2.53,-0.15 5.26,0.95 2.3,0.9 2.08,0.17 0.85,0.99 1.7,0.25 0.73,0.82 1.45,0.68 1.36,2.03 0.65,0.43 1.62,-0.07 1.27,0.26 1.23,-0.88 0.27,0.09 0.53,0.79 1.11,0.59 1.51,2.41 1.86,1.07 4.14,0.87 3.25,-1.39 2.59,0.68 0,0 -0.45,1.49 -0.01,1.65 -0.57,2.56 0.05,0.52 0.58,0.29 -0.21,0.69 -0.44,0.37 -1.03,-0.19 -1.27,0.53 -0.2,0.89 -0.48,0.43 -0.63,0.47 -1.39,0.32 -0.27,0.5 0.03,1.09 -0.56,0.49 -1.07,0.25 -0.56,1.07 -2.52,1.51 -1.72,0.46 -0.31,0.64 0.72,0.83 -0.31,0.56 0.19,0.73 0.5,0.11 0.71,-0.42 0.52,0.24 -0.13,0.53 0,0 0,1.13 0.99,1.44 0,0 -0.5,0.45 -1.08,-0.02 -0.15,1.75 -0.83,1 -0.92,0.5 -0.25,0.58 0.75,1.04 -2.29,0.66 -1.44,1.87 -0.56,-0.18 -0.34,-0.78 0.29,-0.7 -0.09,-0.83 -0.6,-0.41 -2.31,-0.4 -1.35,0.27 -0.86,-0.27 -0.24,-0.69 0.84,-1.61 -0.49,-0.61 -1.35,-0.13 -0.49,-0.7 -1.35,-0.13 -1.37,1.04 0.08,1.19 -0.47,0.51 -0.53,0.33 -1.39,0.21 -0.37,0.33 0.42,1.09 0.76,-0.11 0.46,0.26 0.65,2.39 0,0 -2.11,-0.06 -1.86,-0.57 -1.62,-0.02 -6.97,-2.14 -6.64,0.55 -3.79,-0.94 -3.52,1.58 -0.43,-0.28 -1.58,-0.06 -0.65,-0.34 -0.73,-1.1 -1.83,0.16 -0.52,-0.97 0,0 1.23,-3.15 0.15,-0.43 5.76,-9.42 5.09,-10.4 3.31,-7.91 0.64,0.18 -0.37,1.05 0.11,0.41 0.87,0.31 0.13,0.35 0.36,-0.75 0.34,-0.1 -0.03,-0.99 -1.27,-0.41 -0.25,-0.32 -0.31,0.08 1.78,-5.23 z" 
                fill="rgb(151, 144, 238)" 
                stroke="white" 
                stroke-width=".7px"
                title="Gharb-Chrarda-Beni Hssen" 
                id="MA-02" 
            />
        </svg>