<svg xmlns="http://www.w3.org/2000/svg" viewBox="172.31529999999995 249.49393000000003 235.68000000000004 189.55999999999977" width="235.68000000000004" height="189.55999999999977">
            <path 
                d="m 250.8753,309.74393 -4.38,3.03 -6.06,3.53 -8.39,4.46 -1.32,0.44 -1.3,0.9 -0.02,0.46 -1.47,1.91 -0.74,0.37 -1.27,1.44 -1.71,1.24 -1.57,2.05 -2,1.61 -1.74,2.17 0.03,0.42 -1.45,1.35 -0.69,1.46 -1.35,1.2 -0.76,1.71 -2.34,1.53 -0.19,0.45 0.37,0.48 -0.58,-0.17 -0.03,-0.32 -0.31,-0.11 -3.23,1.38 -0.22,0.05 -1.41,0.41 -3.95,1.57 0,0 2.33,6.17 2.66,2.76 1.27,3.79 1.78,2.87 3.22,3.82 -3.24,-0.05 -1.28,0.34 0.6,3.26 -7.94,-0.03 -1.96,1.19 -2.91,2.59 -5.02,7.43 -1.55,3.99 -1.72,7.31 -2,3.7 -2.59,6.66 -2.31,2.92 -3.77,3.68 -3.3,3.96 -1.88,3.82 -0.77,2.94 -0.1,1.68 0.34,1.55 1.36,3.77 0.22,1.84 0.84,1.28 0.69,2.53 0.37,2.59 0.69,2.12 0.53,3.81 16.75,-0.07 0,0 126.51,-0.07 0.25,-115.58 7.9,-3.59 5.27,-5.13 5.45,-4.32 1.02,-0.03 2.75,-2.13 4.36,-2.58 0.28,-0.7 0.91,-1 3.36,-1.97 2.22,-1.96 3.89,-1.82 0.77,-0.2 0.48,0.16 0.99,-1.52 -0.06,-1.02 1.03,-0.82 3.98,0.5 3.15,-0.72 0.8,0.07 0.58,-0.51 1.53,-0.45 3.63,-3.63 3.42,-1.62 1.6,0.01 3.24,1.26 1.26,-0.45 0.93,0.41 1.88,-0.13 0.93,0.54 1.32,0.1 0.85,0.64 2.15,0.26 0.77,-0.22 1.37,-1.68 0.99,-0.41 2.41,-0.2 0.48,-0.43 3.46,0.38 0.49,-0.62 2.02,-1.15 0.79,-0.18 1.6,0.26 0,0 0.14,-1.21 -0.39,-2.79 0.52,-3.87 -0.19,-3.58 0.8,-3.73 -0.2,-6.45 -1.57,-3.71 -5.79,-9.14 -1.63,-1.75 -1.87,-1.01 -1.01,0.06 -0.83,0.31 -1.15,1.04 -1.86,2.58 -1.06,0.31 -1.95,1.13 -1.89,0 -3.6,-1.66 -1.57,-0.24 -0.56,0.21 -1.74,1.88 -1.7,3.91 -0.64,3.24 -0.9,0.65 -5.82,-0.26 -1.9,-0.35 -1.11,-1.12 -0.36,-2.38 -0.35,-0.7 -0.58,-0.72 -2.97,-1.92 -1.68,0.96 -1.49,1.29 -1.12,2.19 -0.12,0.84 1.13,5.49 -0.07,0.65 -0.71,0.85 -0.61,0.34 -2.13,-0.08 -2.77,-0.83 -1.46,0.21 -1.63,1.06 -2.55,2.67 -1.84,0.46 -0.57,0.41 -1.46,-0.28 -2.59,-1.11 -4.3,-3.07 -1.06,-0.23 -0.83,0.18 -1.21,1.04 -1.21,3 -0.83,1.13 -0.74,0.45 -1.2,0.04 -6.2,-3.05 -1.03,-0.28 -1.66,-0.07 -1.32,0.35 -1.34,1.21 0.07,2.14 0.67,0.58 1.57,-0.61 1.03,0.06 0.22,0.32 -0.19,1.36 -1.43,1.5 -1.15,1.78 -0.38,1.48 -0.12,5.21 0.77,1.82 1.25,0.92 0.32,0.81 -0.48,0.89 -8.37,2.48 -1.06,0.55 -2.6,0.06 -2.4,-0.36 -0.53,0.29 -0.9,0.63 -1.29,2.63 -1.45,6.12 -0.16,-0.66 -1.23,-1.59 -0.58,-1.49 -1.41,-0.77 -1.65,0.05 -1.06,-0.45 -1.56,0.41 -0.77,1.52 -1.41,1.16 -2.93,0.54 -2.38,1.26 -2.4,0.64 -0.58,-0.28 -1.46,0.22 -0.36,-0.19 -0.96,-1.73 -1.23,-1.06 -1.42,-0.14 -0.95,0.29 -1.16,1.38 -1.56,4.38 -0.45,0.43 -1.42,0.59 -1.54,-0.42 -1.41,0.45 -4.01,2.96 -1.13,0.15 -0.53,-0.3 -0.43,-0.77 -0.93,-0.27 -1.81,0.37 -4.14,-0.51 -1.27,0.27 -0.72,-0.15 -1.79,-1.4 0,0 -0.3,0.05 z" 
                fill="rgb(151, 144, 238)" 
                stroke="white" 
                stroke-width=".7px"
                title="Guelmim-Es Smara" 
                id="MA-14" 
            />
        </svg>