<svg xmlns="http://www.w3.org/2000/svg" viewBox="495.95529999999997 22.863929999999932 116.28000000000009 169.39" width="116.28000000000009" height="169.39">
            <path 
                d="m 537.6053,22.86393 0.51,0.59 -0.55,0.68 0.36,0.4 -0.63,1.82 0.58,0.84 -0.14,2.66 1.41,0.99 0.15,0.41 2.81,2.93 -1.08,-0.58 -0.23,-0.59 -0.9,-0.64 -0.57,-0.88 -0.43,0.15 0.2,1.22 0.33,0.4 0.37,-0.1 0.26,0.26 -0.15,0.33 -0.32,-0.26 -0.54,0.59 0.04,0.69 0.78,1.04 0.13,0.71 0.82,0.69 2.53,1.27 2.34,0.04 0.16,-0.5 -0.19,-0.31 -1.26,-0.9 -0.2,-0.6 -0.8,-0.5 -1.25,-1.45 3.65,3.23 3.81,1.58 3.01,0.41 1.79,-0.36 1.48,-0.71 2.29,-2.03 0.05,0.35 0.52,0.22 2.56,0.59 4.75,1.75 -0.06,1.76 1.1,0.72 0.65,0.99 1.75,0.73 0.1,0.55 1.19,1.27 1.94,1.38 2.48,-0.46 0.13,2.67 2.95,1.63 0.2,1.58 1.12,0.22 1.44,0.96 0.54,-0.22 -0.07,0.54 2.65,1.42 -1.27,0.91 -0.14,1.17 -2.9,3.78 0.52,-0.07 0.87,0.59 1,1.54 0,0.47 0.84,0.79 0.1,0.58 0.42,0.17 0.2,0.63 2.32,0.99 -3.66,4.67 0.53,0.87 1.39,1.29 1.01,1.6 -0.29,3.23 2.44,6.04 -1.95,10.78 1.09,4.44 -2.21,1.7 -0.33,1.59 1.01,0.56 0.16,0.44 2.03,-0.19 0.86,2.33 1.21,0.73 0.13,0.45 -0.26,1.32 0.31,0.09 -0.01,0.34 -0.36,0.43 0.58,1.22 -1.23,1.75 -0.16,2 -0.29,0.71 -0.49,0.35 -0.69,2 0.09,3.47 -0.32,1.07 1.43,2.43 1.14,0.95 1,2.54 1.58,1.87 0.76,0.61 1.02,0.35 0.63,0.75 0.36,1.23 -0.57,0.92 0.17,0.81 -0.52,1.28 -0.4,0.37 -0.54,-0.11 -1.26,0.53 6.14,9.82 4.22,1.97 10.29,7.92 0.07,0.29 -1.84,1.62 -0.8,1.2 -1.36,0.81 -0.71,0.78 -1.12,-0.16 -1.82,0.64 -0.39,0.53 -0.53,2.11 -1.01,0.79 0.53,0.76 -0.43,2.64 0.18,2.04 -2.21,1.72 0.48,0.36 2.73,-0.74 1.29,0.55 0.41,1.23 0.61,0.33 -0.02,0.79 -1.15,0.36 -0.72,0.79 -1.88,0.38 -0.65,-0.45 -2.06,0.18 -1.33,-0.4 -0.78,0.23 -1.56,-0.08 -2.28,-0.31 -0.81,-0.39 -2.87,0.52 -4,-1.05 -1.09,0.07 -4.24,-1.42 -1.84,-0.04 -0.91,-0.69 -0.86,0 -0.23,0.5 -0.67,-0.33 -0.92,0.05 -0.76,-0.75 -1,-0.36 -3.32,1.28 -2.63,0.49 -0.71,-0.02 -3.32,-1.14 -0.97,0.55 -6.1,-0.15 -3.15,0.65 -2.03,1.44 -2.41,-0.22 -2.47,0.31 -3.47,-0.2 -2.33,0.19 -1.16,-0.43 -0.75,1.14 -0.34,2.87 1.77,2.96 0.19,1.4 1.34,2.23 0.2,1.15 -0.19,0.97 0.85,0.98 -0.06,0.67 -6.4,1.51 0.02,0.26 -10,2.16 0,0 -1.27,-8.51 -0.08,-2.48 0.5,-4.2 1.56,-3.04 -0.34,-1.13 -1.35,-0.42 -6.62,-1.04 -3.59,-0.36 -2.79,0.49 -1.43,-0.14 -0.62,-0.37 -0.07,-0.69 0.68,-1.46 -0.66,-0.84 -1.36,-0.4 -1.2,-1.15 -0.75,-0.29 -1.84,0.01 -0.99,-0.47 -0.84,-3.88 -4.42,-9 -1.26,-1.52 -1.32,-0.58 0,0 -0.16,-0.74 2.09,-3.29 2.23,-2.44 3.34,-6.38 1.95,-3.09 2.99,-2.98 1.92,-1.14 4.79,-0.51 3.92,0.05 3.61,0.57 2.74,-0.12 2.26,-0.49 4.28,-1.75 1.71,-0.29 2.41,-0.86 0.83,-1.24 0.32,-1.85 -0.55,-1.54 -3.01,-3.58 -1.54,-2.58 -2.68,-2.44 -2.45,-1.53 -0.74,-1.49 0.01,-0.93 0.93,-2.09 2.5,-2.73 1.09,-1.71 0.76,-2.94 0,0 -0.09,-2.17 -1.01,-2.31 -2.65,-3.66 -1.74,-1.34 0.15,-2.15 0.35,-0.67 3.75,-1.4 1.01,-0.65 1.44,-3.14 -0.04,-0.64 -1.6,-1.37 -0.24,-4.61 -1.76,-1.17 -1.13,-1.18 -0.68,-0.9 -0.16,-0.87 0.38,-0.38 -0.13,-0.46 0.35,-0.77 2.38,-1.18 0.49,-0.83 0.85,-0.2 0.26,-0.52 -0.22,-0.96 1.35,-0.09 0.65,-2.53 -0.15,-1.43 2.27,-1.09 2.08,0.91 0.38,-0.17 -0.11,-0.65 -1.45,-0.76 0.66,-1.74 -0.13,-0.49 -1.55,-0.54 -0.54,-0.7 -1.86,-1.09 -1.23,0.04 -1.34,-1.79 -0.81,-0.46 -4.83,-0.08 -0.49,0.32 0.04,1.28 -0.58,1.19 -2.5,1.43 -1.14,1.33 -1.28,-0.4 -0.11,1.02 -0.78,0.32 -0.89,2.97 -0.69,0.05 -1.9,-0.75 -0.31,-0.38 -0.06,-0.99 -0.64,-0.74 -1.94,0.68 -0.15,-0.32 0.87,-0.8 0.14,-0.64 -0.42,-1.93 0.25,-0.26 1.42,0.01 0.59,-0.28 -0.06,-0.54 -0.95,-0.49 -0.35,-0.6 0.9,-1.55 0.14,-1.38 -0.45,-0.87 0.43,-0.66 -0.43,-0.48 -1.64,0.21 -1.54,-0.99 -2.02,0.25 -0.32,-0.46 0.59,-0.5 -0.12,-0.27 -1.69,0.21 -0.39,-0.17 -0.08,-0.85 -0.54,-0.3 0.14,-5.57 -0.3,-0.43 -0.01,-2.4 -0.37,-1.63 0.51,-2.95 -0.31,-1.31 0,0 1.29,-0.89 0.81,-2.44 1.59,-0.63 1.15,0.1 0.44,0.8 2.88,1.96 2.07,0.44 1.73,0.85 1.48,-0.33 0.9,0.63 3.42,0.32 1.27,-0.89 1.74,-0.37 0.76,-0.48 0.43,0.08 0.34,-0.28 0.96,0.21 1.37,-1.35 0.87,-1.52 1.09,0.62 1.5,-1.06 2.04,-3.83 0.05,-0.82 0.05,-0.3 0.54,-0.75 0.06,-0.83 1.19,-0.24 z" 
                fill="rgb(151, 144, 238)" 
                stroke="white" 
                stroke-width=".7px"
                title="L'Oriental" 
                id="MA-04" 
            />
        </svg>