<svg xmlns="http://www.w3.org/2000/svg" viewBox="80.26529799999997 344.76393000000013 133.79000200000004 161.27999999999992" width="133.79000200000004" height="161.27999999999992">
            <path 
                d="m 202.2353,344.95393 -3.06,1.3 -0.23,0.09 -1.08,0.4 -6.81,3.56 -5.72,1.41 -0.9,-0.01 -11.87,2.5 -9.54,1.22 -1.59,0.47 -2.02,0.09 -0.53,0.49 -0.22,0.5 -0.84,0.39 -0.25,0.71 -0.65,0.7 -0.98,3.4 -0.72,0.57 -0.86,1.87 -0.79,0.68 -1.6,0.62 -2.05,1.3 -1.18,2.92 -1.21,5.01 -1.95,5.45 -0.78,1.38 -0.12,0.86 -3.95,6.75 -0.31,2.3 -0.21,0.57 0.17,0.5 -0.47,1.08 0.01,0.21 -1.63,4 -0.98,3.72 -1.21,3.06 -1.64,2.94 -1.64,1.78 -2.3,1.85 -9.2,5.5 -2.2,1.89 -3.92,1.53 -3.88,0.42 -0.86,1.77 -1.5,1.91 -3.15,2.55 -2.87,0.6 -3.020002,4.06 -0.72,1.61 0.6,1.43 -0.07,2.44 -0.4,2.04 -2.62,5.87 -1.79,2.6 -0.88,0.72 -1.05,4.34 -0.81,1.95 0.03,1.45 -0.46,1.65 -0.88,1.76 -2.52,3.5 -0.22,1.86 -1.35,3.29 0.1,1.79 -0.76,2.02 0.34,1.8 -0.34,1.51 0.33,1.04 -0.16,0.78 0.48,0.31 0.37,1.03 -0.2,3.09 -0.35,1.33 0.2,1.47 -2.06,5.81 -0.2,1.16 0.2,1.62 -2.38,2.12 -1.53,0.78 -0.24,1.4 -0.32,0.47 0,0 3.08,0.48 5.17,2.09 1.19,0.79 2.25,3.25 1.19,0.67 1.21,0.27 4.85,-0.79 8.020002,-2.04 8.17,-0.44 10.02,2.31 2.91,1.18 1.75,0.41 6.7,-1.82 2.93,-1.36 5.36,-1.9 6.65,-0.6 11.23,2.2 8.23,2.83 3.35,0.01 8.93,-1.9 6.3,-0.01 2.01,0.5 2.35,-0.51 0,0 -0.01,-64.5 0,0 -16.75,0.07 -0.53,-3.81 -0.69,-2.12 -0.37,-2.59 -0.69,-2.53 -0.84,-1.28 -0.22,-1.84 -1.36,-3.77 -0.34,-1.55 0.1,-1.68 0.77,-2.94 1.88,-3.82 3.3,-3.96 3.77,-3.68 2.31,-2.92 2.59,-6.66 2,-3.7 1.72,-7.31 1.55,-3.99 5.02,-7.43 2.91,-2.59 1.96,-1.19 7.94,0.03 -0.6,-3.26 1.28,-0.34 3.24,0.05 -3.22,-3.82 -1.78,-2.87 -1.27,-3.79 -2.66,-2.76 -2.33,-6.17 0,0 -0.18,0.13 z" 
                fill="rgb(151, 144, 238)" 
                stroke="white" 
                stroke-width=".7px"
                title="Laâyoune-Boujdour-Sakia el Hamra" 
                id="MA-15" 
            />
        </svg>