<svg xmlns="http://www.w3.org/2000/svg" viewBox="276.25530000000026 142.8139299999999 108.87999999999971 89.17000000000007" width="108.87999999999971" height="89.17000000000007">
            <path 
                d="m 346.6453,142.81393 0.83,0.03 0.61,1.73 1.65,2.36 0.19,1.13 3.5,1.08 1.06,0.92 1.27,0.16 0.58,0.39 0.54,0.66 1.39,3.22 1.06,0.41 0.52,0.84 1.02,2.56 1.08,1.78 0.37,0 0.31,-0.47 0.81,0.55 1.26,-0.11 1.74,-1.09 -0.04,-0.82 0.37,-0.25 0.5,0.39 1.12,-0.62 2.92,-0.15 1.71,2.4 2.42,0.28 1.3,1.15 1.13,0.39 0.7,1.03 1.46,0.16 0.55,0.79 0,0 0.06,2.49 -0.38,1.41 0.77,3.52 -0.4,1.6 0.44,3.85 1.1,1.84 1.29,0.55 0.44,1.74 -0.87,0.96 -0.11,0.67 0.45,0.53 -0.15,0.78 1.92,2.35 -0.31,0.45 -0.84,0.1 -0.19,0.71 0.38,1.59 -0.64,0.59 -1.8,-0.29 -2.47,0.57 -1.52,-0.83 -1.01,-0.06 -0.86,0.16 -1.13,0.68 -0.62,0.86 -0.01,2.83 0.35,0.69 1.56,0.93 -0.25,1.57 0.68,0.41 0.41,-0.31 1.95,-0.37 0.74,0.14 0.22,0.85 -0.13,1.43 -1.22,3.46 -0.15,1.26 0.08,1.34 0.43,1.24 0,0 -2.25,0.67 -0.98,0.65 -1.99,2.75 -2.52,0.56 -3.5,0.19 -1.86,0.9 -3.09,3.24 -1.02,0.63 -1.45,0.39 -2.23,0.03 -2.15,1.05 -3.13,2.94 -2.7,1.46 -0.16,0.29 0.35,0.57 -0.28,1.18 -3.18,2.8 -2.57,1.5 -0.51,-0.14 0.14,-1.42 -1.21,-1 -3.18,1.5 -1.34,0.37 -3.94,0.67 -1.82,-0.47 -0.82,0.21 -1.26,1.31 -6.17,-0.15 -1.12,0.25 -1.32,1.25 -1.34,0.16 -0.99,-3.58 -0.72,-0.74 -1.51,-0.39 -0.4,-0.97 -0.66,-0.15 -0.8,0.07 -1.49,1.76 -1.07,0.74 -4.12,1.83 -0.9,1.51 -0.95,0.46 -3.47,-0.53 -1.98,0.87 -1.89,0.04 -1.19,0.72 -2.08,-0.22 -0.89,-0.8 -2.5,0.27 -0.68,0.47 -1.03,0.15 -1.31,-0.71 -1.27,-0.29 -0.17,-0.26 0.27,-1.03 -0.39,-0.28 -1.39,1.99 -1.09,0.5 -1.93,-0.81 -0.89,0.3 -2.07,-0.07 0.16,-0.27 -0.86,-2.24 -2.85,-2.88 0,0 -0.25,-0.55 0.11,-0.61 0.61,-1.3 -0.36,-0.85 -0.03,-1.25 -0.25,-0.18 0.32,-1.48 -0.97,-0.58 0.32,-0.79 -0.2,-0.66 0.37,-0.88 -0.12,-0.32 0.67,-1.19 -0.29,-0.33 0.07,-1.68 0.89,-1.95 0.14,-1.76 -0.14,-1.43 -0.42,-1.03 -0.32,-0.34 -0.93,-0.15 0.29,-1.14 1.28,-1.32 0.99,-1.93 0.21,0.11 0.13,-0.99 -0.59,-0.09 1.59,-1.33 1.95,-2.8 0.49,-1.53 -0.16,-2.83 1.66,-1.33 1.85,-2.85 1.08,-0.95 1.42,-2.06 3.24,-3.65 0,0 3.65,1.32 2.07,0.19 2.66,-0.44 4.96,0.47 1.97,0.69 0.63,1.16 0.55,2.47 2.07,1.18 0.29,0.71 2.28,0.53 -0.03,0.84 0.5,0.38 1.02,-0.4 1.33,1.17 0.43,0.08 0.53,-0.82 0.36,0.61 0.29,-0.08 0.77,-1.01 0.51,-0.11 0.93,0.48 0.61,-0.33 3.19,-0.48 1.12,0.66 0.73,1.2 1.98,0.66 2.75,-1.17 1.26,0.91 0.51,0.1 1.11,-0.42 -1.23,-1.69 -0.62,-0.14 -0.7,-2.34 1.76,-2.16 0.16,-0.68 0.92,-1.17 0.24,-1.51 1.41,-2.53 1.66,-1.47 1.42,-0.85 0.15,-1.97 0.64,0.1 0.48,0.68 0.05,-0.8 -0.15,-0.65 -1.54,-1.3 -2.3,-1.27 -1.31,-0.24 -1.52,-1.34 -1.61,-2.22 -1.18,-2.91 -0.13,-0.92 0.29,-1.47 2.93,-0.94 0.8,-1.3 1.12,-0.48 1.66,0.01 0.23,-0.35 -0.03,-1.54 0.62,-0.52 2.37,-0.04 0.52,-0.62 1.14,-0.52 0.56,-0.83 0.97,-0.7 1.34,-1.92 0.44,0.2 0.23,-0.21 0.26,-1.28 -0.21,-1.11 -1.07,-1.64 0.25,-0.74 -0.25,-0.47 1.39,-1.08 0,-0.72 0.33,-0.41 -0.46,-1.09 0.22,-1.13 0.91,-1.03 0.73,-0.23 z" 
                fill="rgb(151, 144, 238)" 
                stroke="white" 
                stroke-width=".7px"
                title="Marrakech-Tensift-Al Haouz" 
                id="MA-11" 
            />
        </svg>