<svg xmlns="http://www.w3.org/2000/svg" viewBox="407.1053000000004 76.89393 119.81999999999971 190.37999999999994" width="119.81999999999971" height="190.37999999999994">
            <path 
                d="m 444.8353,76.89393 0.45,0.48 0.41,1.45 0.21,2.11 -0.2,3 0.38,2.17 0.54,0.18 1.24,-0.6 1,0.21 0.48,0.39 0.65,1.57 0.55,0.66 1.15,-0.04 2.23,0.63 0.82,3.1 0.89,0.52 1.28,2.04 0.23,2.27 -1.75,4.58 0.02,1.01 0.41,0.86 0.86,0.54 3.65,0.5 2.16,1.75 1.62,1.72 0.25,1.47 -0.3,1.02 -3.9,5.65 -0.25,0.78 0.12,0.89 0.71,1.38 2.33,2.07 1.37,3.13 1.97,6.3 3.53,3.99 -0.13,0.82 -0.48,0.75 -0.11,1.07 0.36,0.89 1.5,1.16 1.71,0.7 4.59,-0.69 2.54,0.21 0.56,0.37 0.62,0.69 0.94,2.04 1.54,0.98 3.48,3.51 0.12,3.17 0.31,0.56 0.91,0.32 1.1,-0.22 1.41,0.36 2.77,0.05 1.11,-0.07 1.36,-0.55 0,0 1.31,0.58 1.27,1.52 4.42,8.99 0.83,3.88 0.99,0.47 1.84,-0.01 0.75,0.3 1.2,1.14 1.36,0.41 0.66,0.84 -0.68,1.45 0.08,0.69 0.62,0.38 1.43,0.14 2.79,-0.5 3.59,0.36 6.62,1.04 1.35,0.42 0.34,1.13 -1.55,3.04 -0.51,4.19 0.09,2.48 1.27,8.51 0,0 -15.24,3.4 0,10.29 0.67,0.34 -0.52,0.71 -0.46,-0.32 -0.25,0.64 -1.22,0.38 -0.06,0.53 -0.36,0.35 -0.49,-0.07 -0.21,-0.66 -0.31,-0.1 -0.33,0.63 0.14,0.3 -0.39,0.26 0.07,1.04 -0.87,0.79 0.13,0.27 0.28,-0.23 0.2,0.6 0.49,-0.18 -0.08,0.83 -0.93,0.65 0.13,0.3 -0.42,0.26 0.31,0.64 0.39,-0.06 0.22,1.71 0.28,0.19 -0.67,1.43 0.17,1.23 0.46,-0.26 0.72,0.04 0.41,0.34 0.26,-0.8 -0.39,-0.48 0.89,-0.36 -0.13,-0.51 0.45,-0.45 0.29,0.4 0.51,0.08 0.36,0.61 0.06,1.39 -0.36,1.47 0.49,-0.16 0.07,-0.54 0.76,0.4 0.31,-0.28 -0.29,-0.46 -0.02,-0.88 -0.26,-0.19 0.49,-0.32 0.07,1.34 0.27,0.21 0.52,-0.57 -0.06,0.89 0.47,0.17 0.08,0.96 0.44,-0.03 -0.02,0.71 0.69,0.67 0.07,-0.38 0.49,0.11 -0.08,-0.51 0.34,-0.14 -0.1,1.04 0.25,0.38 0.24,-0.3 0.16,2.86 -0.41,0.45 0.29,0.03 0.02,0.34 -0.64,0.3 0.18,0.42 -0.23,-0.06 -0.04,0.48 -0.59,-0.21 -0.01,0.51 -0.42,0.14 0.14,0.5 -0.4,0.59 -0.43,-0.01 -0.42,1.28 -0.32,0.04 -0.33,-0.15 -0.66,0.93 -0.15,1.76 -0.39,0.35 0.24,1.34 0.53,-0.22 0.61,0.34 0.47,1.42 -0.51,0.27 -0.43,1.09 -7.74,3.29 -5.76,1.54 -5.73,0.33 -6.63,2.48 -10.88,10.79 -12.5,6.22 -6.92,5.85 0,0 -1.32,-3.82 -0.52,-0.28 -1,-1.38 -0.36,-1.85 -0.5,-0.96 0.24,-3.31 -0.1,-5.52 0.43,-2.26 -0.03,-7.21 -1.89,-2.59 -0.19,-0.88 -1.12,-1.4 -2.02,-3.52 -0.71,-3.39 -0.08,-1.33 1.14,-5.58 0.86,-6.67 1.59,-3.72 0.92,-3.36 0.18,-2.63 -0.26,-1.36 -0.47,-1.08 -1.14,-1.28 -0.94,-0.6 -2.96,-0.91 -2.76,-1.69 -0.99,-1.83 -0.6,-0.48 -5.3,-1.45 -2.72,0.64 -2.73,-0.39 -0.48,-0.49 0.45,-1.38 8.67,-9.18 1.01,-2.12 -0.44,-0.58 -5.2,-3.55 -0.94,-0.05 -2.5,1.78 -1.5,0.37 0,0 0.27,-0.75 -0.35,-1.33 -0.85,-0.29 -0.34,-0.74 0.26,-0.63 0.86,-0.38 -0.2,-1.55 0.99,-0.69 0.03,-1.55 0.85,-0.82 1.37,-0.07 0.75,-0.71 0.57,-0.74 0.2,-1.31 0.28,-0.3 0.89,-0.44 2.32,-0.44 1.92,0.46 0.63,-0.44 0.2,-1.1 -0.99,-0.84 0.88,-2.01 -0.46,-0.82 0.68,-1.02 0.12,-1.06 0.84,-1.23 -0.96,-2.21 -1.39,-1.99 -0.4,-1.46 -2.24,-0.21 -0.34,-0.56 -1.59,-1.11 -1.13,-0.2 -1.27,1.07 -0.99,-0.07 -0.5,-2.59 -0.39,-0.79 -0.78,-0.4 -0.83,-1.08 -0.77,0.16 -0.65,-0.32 -0.66,-1.38 -1.7,-0.99 -2.34,0.37 -0.44,-0.18 0,0 -0.33,-0.63 0.2,-1.27 -0.34,-0.5 0.08,-0.37 0.8,-0.51 -1.36,-1.82 -0.25,-1.26 -0.74,-0.29 -1.77,0.78 -0.65,0.01 -0.57,-0.48 0.09,-1.7 1.7,-0.36 0.65,-0.48 0.07,-0.66 -0.35,-0.44 -1.67,-0.72 -0.33,-1.65 -2.14,-1.03 -1.76,-1.71 -1.51,-0.5 -0.44,-1.2 -3.73,-1.27 -0.36,-0.67 0.11,-0.76 0.43,-0.8 0.71,-0.53 0.13,-0.72 0,0 -0.97,-1.89 0.77,-1.77 -0.41,-0.69 0.5,-1.79 0.57,-0.48 2.31,-0.53 1.03,-0.02 1.17,0.72 0.55,-0.12 0.55,-0.64 0.53,0.28 0.43,0.91 0.43,0.19 0.92,-0.13 0.31,0.29 -0.01,0.81 0.33,0.44 0.13,2.19 0.55,0.77 1.52,0.16 0.42,0.56 0.73,0.13 0.77,-0.38 1.51,-1.74 1.44,-0.46 4.74,1.39 0.88,-0.32 0.71,-1.35 0.06,-1.28 -0.59,-1.6 -0.13,-3.39 0.41,-4.93 0.72,-2.76 0.55,-5.65 -0.09,-1.73 -0.44,-0.69 -1,-0.64 -0.28,-0.67 -0.06,-0.87 0.37,-1.03 -0.62,-0.28 -0.78,0.25 -0.24,-0.52 0.02,-0.96 2.05,-1.94 -0.34,-1.71 -2.46,-2.04 -0.49,-0.73 -0.14,-2.29 0,0 -0.64,-2.4 -0.46,-0.26 -0.76,0.12 -0.42,-1.09 0.36,-0.33 1.4,-0.21 0.53,-0.33 0.48,-0.51 -0.08,-1.19 1.37,-1.04 1.34,0.12 0.5,0.7 1.34,0.13 0.49,0.61 -0.83,1.62 0.23,0.69 0.86,0.26 1.35,-0.26 2.31,0.39 0.6,0.41 0.15,0.86 -0.29,0.7 0.34,0.78 0.56,0.18 1.44,-1.87 2.29,-0.67 -0.75,-1.03 0.24,-0.58 0.92,-0.5 0.83,-1.01 0.15,-1.75 1.08,0.02 z" 
                fill="rgb(151, 144, 238)" 
                stroke="white" 
                stroke-width=".7px"
                title="Meknès-Tafilalet" 
                id="MA-06" 
            />
        </svg>