<svg xmlns="http://www.w3.org/2000/svg" viewBox="0.2852977600000467 497.86392999999975 193.98000224 156.34000000000003" width="193.98000224" height="156.34000000000003">
            <path 
                d="m 80.265298,497.86393 3.09,0.48 5.16,2.09 1.2,0.79 2.25,3.25 1.19,0.67 1.21,0.27 4.85,-0.79 8.020002,-2.04 8.17,-0.45 10.02,2.31 2.9,1.18 1.75,0.42 6.7,-1.83 2.93,-1.35 5.36,-1.91 6.65,-0.6 11.24,2.21 8.22,2.82 3.35,0.01 8.93,-1.91 6.3,0 2.02,0.49 2.34,-0.51 0,0 0.15,41.23 -28.87,2.76 -3.44,2.41 -4.05,4.76 -3.36,5.34 -1.51,3.64 -2.01,8.54 -0.28,2.25 5.47,57.08 -74.430002,-0.52 -74.4000002,0.54 -0.78,0.15 -2.41,9 -1.4,2.6 -0.34,2.43 -0.67,2.31 -0.01,3.36 0.56,2.65 0.22,0.1 -0.23,0.11 -1.16,-2.28 -0.51000004,0.01 -0.37,-0.77 1.03000004,-1.63 -0.68000004,-1.5 1.20000004,-3.17 -0.03,-3.18 0.79,-3.35 -0.25,-0.91 0.88,-4.33 -0.17,-1.48 1.91,-9.41 -0.13,-2 0.43,-2.11 -0.31,-2.35 1.19,-1.67 -0.01,-0.38 -0.55,-0.15 0.24,-2.21 2.22,-2.92 0.26,-0.87 -0.14,-0.87 0.96,-1.9 2.4700002,-7.09 1.26,-0.58 0.18,-0.42 -0.24,-0.62 0.26,-0.63 1.96,-1.53 0.64,-1.06 0.71,-0.59 1.09,0.07 0.63,1.02 1.08,-0.1 2.3,-0.8 1.99,-1.35 -0.02,-1.02 0.68,-0.53 0.68,-1.23 0.29,-2.8 0.49,-0.89 -0.03,-0.77 0.48,-0.89 1.57,-1.02 1.01,-1.24 0.18,-1.91 0.47,-0.98 -0.04,-3.09 0.27,-1.33 1.85,-3.19 -0.08,-0.59 -0.54,-0.15 0.59,-2.14 0.58,0.36 2.25,-0.9 1.57,-1.52 0.99,-1.63 0.2,-1.6 -0.24,-1.03 -0.54,-0.83 -0.74,-0.49 -0.7,0.13 -0.4,0.43 0.42,-1.23 0.38,-0.83 0.97,-0.64 1.51,-1.91 0.38,-0.8 -0.06,-0.98 2.11,-3.21 -0.25,-0.74 2.18,-1.98 1.08,-1.5 1.11,-2.47 -0.9,-1.46 1.31,-0.74 0.72,-1.19 0.59,-0.35 1.17,-2.59 0.6,-0.21 0.44,-0.54 0.54,-1.17 1.21,-1.48 0.79,-1.72 1.31,-1.08 0.45,-1.26 0.77,-0.52 -0.13,-0.37 -1.08,0.81 0.39,-1.89 0.98,-1.53 -0.39,-1.09 0.83,-2.35 -0.6,0.31 -0.7,0.71 -0.62,0.15 0.11,0.98 -0.54,1.02 -0.12,-0.31 -0.02,-0.23 -0.14,-0.39 -0.58,0.4 -0.81,1.71 -0.93,0.6 -0.22,0.03 -0.08,-0.36 -0.54,0.39 -1.65,2.34 -1.11,4.06 -1.25,1.08 -0.09,0.1 -0.82,1.24 -0.08,0.55 -0.63,-0.18 -0.25,-0.73 0.81,-1.26 0.96,-0.88 0.11,-1.05 1.25,-1.26 -0.07,-0.54 0.8,-1.98 2.41,-2.89 1.29,-0.99 0.09,-0.41 2.13,-1.46 3.31,-1.7 2.61,-1.86 0.61,-0.88 -0.28,-0.43 0.41,-0.77 1.47,-1.02 0.54,-1.07 0.65,-0.4 3.26,-3.58 3.24,-2.53 3.33,-4.67 2.94,-3.08 1.63,-0.93 3.88,-1.55 0.59,-0.53 0.26,-1.11 z" 
                fill="rgb(151, 144, 238)" 
                stroke="white" 
                stroke-width=".7px"
                title="Oued ed Dahab-Lagouira" 
                id="MA-16" 
            />
        </svg>