<svg xmlns="http://www.w3.org/2000/svg" viewBox="253.56530000000026 177.82393 202.17999999999972 131.77000000000007" width="202.17999999999972" height="131.77000000000007">
            <path 
                d="m 429.4653,179.98393 1.5,-0.37 2.5,-1.79 0.94,0.05 5.2,3.55 0.44,0.58 -1.02,2.12 -8.67,9.18 -0.45,1.38 0.48,0.49 2.73,0.39 2.72,-0.64 5.3,1.45 0.6,0.48 0.99,1.84 2.76,1.68 2.95,0.91 0.95,0.6 1.14,1.27 0.47,1.08 0.26,1.36 -0.18,2.63 -0.92,3.36 -1.59,3.72 -0.86,6.67 -1.14,5.59 0.08,1.33 0.71,3.39 2.02,3.52 1.12,1.4 0.19,0.89 1.89,2.59 0.03,7.21 -0.42,2.26 0.1,5.52 -0.24,3.31 0.5,0.96 0.36,1.85 0.99,1.38 0.53,0.28 1.32,3.82 0,0 -0.76,0.24 -3.88,2.94 -0.46,0.79 -1.26,0.79 -1.58,2.65 0.26,1.7 -0.53,1.28 -7.69,10.94 -0.65,0.27 0.28,0.45 -0.43,0.95 -0.27,0.09 -0.48,-0.56 -1.06,0.03 -0.9,-0.55 -0.8,-0.13 -1.44,-1.52 -0.98,0.86 -1.32,0.07 0.19,-1.3 0.75,-1.12 0.04,-0.53 -0.86,-0.63 -2.06,-0.61 -2.42,0.29 -0.62,0.52 -2.95,0.25 -2.27,0.76 -0.79,-0.03 -0.95,0.47 -3.9,-0.86 -2.11,0.2 0,0.21 -1.01,0.33 -1.6,-0.22 -3.2,0.12 -0.46,0.28 -0.16,0.49 -0.33,-0.43 0,0 0.14,-1.21 -0.39,-2.79 0.52,-3.86 -0.19,-3.59 0.8,-3.73 -0.19,-6.44 -1.57,-3.72 -5.79,-9.14 -1.63,-1.75 -1.86,-1.01 -1.01,0.06 -0.83,0.3 -1.14,1.05 -1.86,2.58 -1.06,0.3 -1.95,1.13 -1.89,0 -3.6,-1.66 -1.56,-0.24 -0.57,0.2 -1.73,1.88 -1.7,3.91 -0.64,3.24 -0.89,0.65 -5.82,-0.26 -1.91,-0.35 -1.11,-1.12 -0.37,-2.38 -0.34,-0.7 -0.59,-0.72 -2.96,-1.92 -1.68,0.95 -1.48,1.3 -1.12,2.18 -0.12,0.85 1.13,5.49 -0.06,0.64 -0.71,0.85 -0.61,0.35 -2.13,-0.09 -2.78,-0.83 -1.46,0.21 -1.62,1.06 -2.56,2.67 -1.84,0.46 -0.57,0.41 -1.46,-0.27 -2.59,-1.11 -4.3,-3.07 -1.05,-0.23 -0.83,0.19 -1.21,1.03 -1.21,3 -0.83,1.13 -0.75,0.45 -1.19,0.05 -6.2,-3.05 -1.03,-0.27 -1.66,-0.07 -1.31,0.35 -1.35,1.21 0.07,2.14 0.67,0.58 1.57,-0.61 1.03,0.06 0.22,0.32 -0.2,1.36 -1.43,1.5 -1.14,1.78 -0.38,1.48 -0.13,5.21 0.77,1.82 1.25,0.92 0.32,0.81 -0.48,0.88 -8.37,2.48 -1.05,0.55 -2.61,0.06 -2.4,-0.36 -0.52,0.29 -0.91,0.62 -1.28,2.63 -1.45,6.12 -0.16,-0.66 -1.23,-1.59 -0.59,-1.5 -1.41,-0.77 -1.64,0.06 -1.06,-0.46 -1.56,0.41 -0.77,1.52 -1.41,1.16 -2.93,0.55 -2.38,1.26 -2.4,0.63 -0.58,-0.28 -1.45,0.22 -0.36,-0.19 -0.96,-1.73 -1.23,-1.07 -1.42,-0.13 -0.95,0.29 -1.16,1.38 -1.56,4.38 -0.45,0.43 -1.42,0.6 -1.54,-0.43 -1.41,0.46 -4.01,2.96 -1.13,0.15 -0.53,-0.3 -0.44,-0.77 -0.92,-0.27 -1.81,0.37 -4.15,-0.5 -1.27,0.27 -0.72,-0.15 -1.79,-1.4 0,0 0.58,-1.48 0.7,-0.35 0.13,-0.77 2.34,-2.68 0.41,-0.82 1.32,-1.16 1.66,-0.84 1.39,-1.34 1.27,-2.77 1,-1.47 1.33,-1.24 0.81,-1.83 0.81,-0.84 0.28,-0.58 -0.14,-0.77 0.35,-0.24 -0.05,-0.43 0.39,-0.23 -0.14,-0.48 0.31,-0.15 0.02,-0.62 0.51,-0.35 0.45,-1.12 1.22,-1.5 0.4,-1.11 5.73,-5.65 0.25,-0.73 1.37,-1.86 -0.06,-0.51 1.04,-1.54 0.06,-0.69 2.54,-5.37 0.82,-1.09 0.13,-0.1 0.07,-0.61 0.96,-3.34 0.01,-1.55 1.32,-6.69 0.13,-0.23 0.17,-0.04 -0.3,-0.57 0.38,-0.79 -0.17,-0.67 -0.45,-0.65 -0.14,0.23 -0.34,-0.04 -0.2,0.05 -0.53,-0.45 -0.03,-0.29 -0.52,-0.39 -0.66,-2.4 -0.39,-0.38 -0.51,-1.44 -1.47,-0.44 -0.24,-1 -1.4,-1.59 -1.59,-0.76 -1.6,0.16 -0.83,-0.31 0.44,-2.69 1.06,-1.33 -0.07,-0.53 1.75,-3.58 -0.04,-0.86 -0.27,-0.31 -0.35,0.17 -0.15,-0.44 0.73,-1.95 -0.48,-0.86 0,-1.77 0,0 2.85,2.88 0.86,2.24 -0.16,0.27 2.07,0.07 0.89,-0.3 1.93,0.81 1.09,-0.5 1.39,-1.99 0.39,0.28 -0.27,1.03 0.17,0.26 1.27,0.29 1.31,0.71 1.03,-0.15 0.68,-0.47 2.5,-0.27 0.89,0.8 2.08,0.22 1.19,-0.72 1.89,-0.04 1.98,-0.87 3.47,0.53 0.95,-0.46 0.9,-1.51 4.12,-1.83 1.07,-0.74 1.49,-1.76 0.8,-0.07 0.66,0.15 0.4,0.97 1.51,0.39 0.72,0.74 0.99,3.58 1.34,-0.16 1.32,-1.25 1.12,-0.25 6.17,0.15 1.26,-1.31 0.82,-0.21 1.82,0.47 3.94,-0.67 1.34,-0.37 3.18,-1.5 1.21,1 -0.14,1.42 0.51,0.14 2.57,-1.5 3.18,-2.8 0.28,-1.18 -0.35,-0.57 0.16,-0.29 2.7,-1.46 3.13,-2.94 2.15,-1.05 2.23,-0.03 1.45,-0.39 1.02,-0.63 3.09,-3.24 1.86,-0.9 3.5,-0.19 2.52,-0.56 1.99,-2.75 0.98,-0.65 2.25,-0.67 0,0 2.64,0.04 6.19,1.85 1.07,-0.55 1.88,-0.22 0.47,0.73 0.88,-0.36 0.78,0.18 0.81,-2.36 0.54,-0.51 -0.6,-1.65 0.15,-0.73 1.09,-1.38 1.82,-0.26 1.17,-0.55 1.92,0.49 2.34,-0.79 5.73,-3.56 6.09,-2.39 0.93,-1.3 1.46,-0.93 1.57,0.3 0.74,-0.28 1.41,-0.01 0.42,-0.99 0.1,-1.87 3.6,-1.6 1.41,-1.86 1.9,0.08 0.15,-0.57 1.84,-1.41 0.4,-0.65 0.01,-0.84 -0.32,-0.74 0.08,-1.32 z" 
                fill="rgb(151, 144, 238)" 
                stroke="white" 
                stroke-width=".7px"
                title="Souss-Massa-Drâa" 
                id="MA-13" 
            />
        </svg>