<svg xmlns="http://www.w3.org/2000/svg" viewBox="374.14529999999985 145.05393 67.0399999999999 62.85000000000002" width="67.0399999999999" height="62.85000000000002">
            <path 
                d="m 421.8153,145.24393 0.44,0.18 2.34,-0.37 1.7,0.99 0.66,1.38 0.65,0.32 0.77,-0.16 0.83,1.08 0.78,0.4 0.39,0.79 0.5,2.59 0.99,0.07 1.27,-1.07 1.13,0.2 1.59,1.11 0.34,0.56 2.24,0.21 0.4,1.46 1.39,1.99 0.96,2.21 -0.84,1.23 -0.12,1.06 -0.68,1.02 0.46,0.82 -0.88,2.01 0.99,0.84 -0.2,1.1 -0.63,0.44 -1.92,-0.46 -2.32,0.44 -0.89,0.44 -0.28,0.3 -0.2,1.31 -0.57,0.74 -0.75,0.71 -1.37,0.07 -0.85,0.82 -0.03,1.55 -0.99,0.69 0.2,1.55 -0.86,0.38 -0.26,0.63 0.34,0.74 0.85,0.29 0.35,1.33 -0.27,0.75 0,0 -0.08,1.37 0.31,0.73 -0.01,0.84 -0.4,0.65 -1.84,1.4 -0.15,0.57 -1.9,-0.08 -1.41,1.87 -3.6,1.59 -0.1,1.88 -0.42,0.99 -1.41,0.01 -0.74,0.28 -1.57,-0.29 -1.46,0.92 -0.94,1.3 -6.09,2.39 -5.73,3.56 -2.34,0.79 -1.91,-0.5 -1.17,0.55 -1.82,0.26 -1.1,1.38 -0.14,0.73 0.6,1.65 -0.54,0.51 -0.8,2.35 -0.78,-0.18 -0.88,0.36 -0.47,-0.73 -1.88,0.23 -1.07,0.54 -6.18,-1.84 -2.64,-0.04 0,0 -0.43,-1.24 -0.08,-1.34 0.15,-1.26 1.22,-3.46 0.13,-1.43 -0.23,-0.85 -0.73,-0.14 -1.95,0.36 -0.41,0.31 -0.68,-0.41 0.25,-1.56 -1.56,-0.94 -0.34,-0.69 0,-2.83 0.62,-0.86 1.13,-0.68 0.87,-0.16 1,0.06 1.52,0.83 2.46,-0.57 1.81,0.29 0.64,-0.6 -0.39,-1.59 0.19,-0.71 0.84,-0.1 0.31,-0.45 -1.92,-2.35 0.15,-0.77 -0.45,-0.54 0.11,-0.67 0.86,-0.96 -0.44,-1.74 -1.29,-0.55 -1.11,-1.84 -0.44,-3.84 0.4,-1.6 -0.77,-3.52 0.38,-1.42 -0.06,-2.49 0,0 2.14,-2.2 1.78,-4.82 0.25,-4.05 0.44,-1.21 -0.16,-0.52 0.88,0.25 0.85,0.93 0.84,0 1.83,-0.66 1.24,-1.1 1.58,-0.2 0.31,-0.62 0.41,-0.08 1.22,0.56 1.9,0.07 1.07,0.55 1.76,0.2 0.17,-0.5 -0.5,-0.49 0.24,-0.39 0.51,-0.12 0.59,-0.59 1.92,-0.34 2.13,0.4 1.54,0.71 2.11,-0.22 0.72,0.21 4.05,-0.09 2.78,-1.06 3.77,-0.38 1.39,-0.85 0.51,-0.98 z" 
                fill="rgb(151, 144, 238)" 
                stroke="white" 
                stroke-width=".7px"
                title="Tadla-Azilal" 
                id="MA-12" 
            />
        </svg>