<svg xmlns="http://www.w3.org/2000/svg" viewBox="441.5653 31.12393 96.6400000000001 77.60000000000008" width="96.6400000000001" height="77.60000000000008">
            <path 
                d="m 500.9753,31.12393 0.47,0.32 -0.44,0.49 0.27,0.17 -0.09,0.41 0.87,1.03 1.88,0.6 1.65,-0.28 0,0 0.31,1.31 -0.51,2.95 0.37,1.63 0.01,2.4 0.3,0.43 -0.14,5.57 0.54,0.3 0.08,0.85 0.39,0.17 1.69,-0.21 0.12,0.27 -0.59,0.5 0.32,0.46 2.02,-0.25 1.54,0.99 1.64,-0.21 0.43,0.48 -0.43,0.66 0.45,0.87 -0.14,1.38 -0.9,1.55 0.35,0.6 0.95,0.49 0.06,0.54 -0.59,0.28 -1.42,-0.01 -0.25,0.26 0.42,1.93 -0.14,0.64 -0.87,0.8 0.15,0.32 1.94,-0.68 0.64,0.74 0.06,0.99 0.31,0.38 1.9,0.75 0.69,-0.05 0.89,-2.97 0.78,-0.32 0.11,-1.02 1.28,0.4 1.14,-1.33 2.5,-1.43 0.58,-1.19 -0.04,-1.28 0.49,-0.32 4.83,0.08 0.81,0.46 1.34,1.79 1.23,-0.04 1.86,1.09 0.54,0.7 1.55,0.54 0.13,0.49 -0.66,1.74 1.45,0.76 0.11,0.65 -0.38,0.17 -2.08,-0.91 -2.27,1.09 0.15,1.43 -0.65,2.53 -1.35,0.09 0.22,0.96 -0.26,0.52 -0.85,0.2 -0.49,0.83 -2.38,1.18 -0.35,0.77 0.13,0.46 -0.38,0.38 0.16,0.87 0.68,0.9 1.13,1.18 1.76,1.17 0.24,4.61 1.6,1.37 0.04,0.64 -1.44,3.14 -1.01,0.65 -3.75,1.4 -0.35,0.67 -0.15,2.15 1.74,1.34 2.65,3.66 1.01,2.31 0.09,2.17 0,0 -3.39,-0.61 -1.47,-0.53 -2.76,-2.02 -3.25,-0.71 -0.57,-0.32 -1.75,-2.11 -0.89,-0.27 -0.29,-0.43 -1.03,-0.46 -0.51,-0.85 -0.5,-0.02 -0.51,0.14 -0.58,1.61 -0.97,0.58 -2.04,3.7 -1.51,1.22 -1.43,0.54 -0.31,0.73 -1.35,1.45 -1.41,0.91 -0.25,1.35 -0.39,0.21 -0.81,1.31 -3.17,1.4 -1.3,0.88 -4,0.35 -1.55,-1.96 1.34,-2.04 0.09,-0.74 -0.98,-0.59 -0.78,-0.03 -0.72,0.1 -1.36,0.94 -1.02,-1.73 0.17,-3.14 0.92,-1.52 1.98,-1.21 -0.45,-0.31 -2.51,0.12 -0.47,-0.41 -0.59,-0.06 -0.53,-2.05 -0.2,-0.21 -1.03,-0.02 -1.04,-0.74 -0.95,0.01 -2.75,2 -0.54,-0.12 -1.39,-1.12 -1.32,-0.17 -1.37,-0.6 -1.12,-1.13 0.04,-3.22 -0.12,-0.63 -0.81,-0.98 0.11,-0.69 -0.52,-0.38 -1.39,-0.08 -1.07,-0.86 -1.49,-0.09 -0.41,-0.43 -1.37,-0.3 -0.88,-1.66 0.18,-0.86 -0.27,-1.23 -0.9,0.29 -0.61,-0.1 0.15,-1.41 -0.19,-0.63 -0.54,-0.18 -0.92,0.5 -1.84,0.01 -0.02,-0.79 -0.64,-0.41 0.12,-0.43 0.98,-0.14 -0.64,-0.96 -0.46,-0.05 -0.7,0.69 -0.68,0.19 -0.24,-0.4 0.57,-0.65 -0.44,-0.74 -3.18,-0.27 -0.42,0.66 -0.4,0.03 -0.14,-0.34 0.25,-0.45 -0.4,-0.03 -1.17,0.87 -0.38,-0.11 0.05,-0.81 -0.43,-0.32 -1.83,-0.32 -1.58,0.61 -0.8,0.79 -0.86,-0.27 -0.35,0.28 -1.25,0.06 -1.79,0.69 -0.65,-0.93 -1.37,0.53 -1.59,-1.71 0,0 0.13,-0.53 -0.52,-0.24 -0.71,0.42 -0.5,-0.11 -0.19,-0.73 0.31,-0.56 -0.72,-0.83 0.31,-0.64 1.72,-0.46 2.52,-1.51 0.56,-1.07 1.07,-0.25 0.56,-0.49 -0.03,-1.09 0.27,-0.5 1.39,-0.32 0.63,-0.47 0.48,-0.43 0.2,-0.89 1.27,-0.53 1.03,0.19 0.44,-0.37 0.21,-0.69 -0.58,-0.29 -0.05,-0.52 0.57,-2.56 0.01,-1.65 0.45,-1.49 0,0 1.13,-1.3 2.48,-1.17 0.89,0 0.63,-0.42 1.01,0.32 2.81,-0.74 1.15,0.05 1.49,-0.77 0.81,-0.12 0.75,-1.3 0.63,-0.51 0.83,-0.04 4.02,-3.51 3.84,-0.68 2.54,-1.66 0.93,-2.41 -0.18,-2.36 -0.66,-0.69 0.17,-1.35 1.09,-1.26 0,0 0.98,0.33 0.84,-0.21 1.88,0.51 0.56,-0.45 0.57,-0.05 0.4,-0.45 0.95,-0.21 0.27,-0.26 1.15,-0.48 1.31,0.15 0.13,-0.26 1.88,-0.53 0.51,0.23 0.58,-0.13 3.21,-1.35 0.26,-0.39 0.39,0.17 0.71,-0.31 0.26,0.36 1.12,-0.19 1.42,-1.05 0.64,-0.11 z" 
                fill="rgb(151, 144, 238)" 
                stroke="white" 
                stroke-width=".7px"
                title="Taza-Al Hoceima-Taounate" 
                id="MA-03" 
            />
        </svg>