<svg xmlns="http://www.w3.org/2000/svg" viewBox="378.40476999999987 200.77265000000003 66.9500000000001 96.06999999999991" width="66.9500000000001" height="96.06999999999991">
            <path 
                d="m 445.35477,207.27265 -1,1.29 -1.19,5.33 -0.91,2.23 -0.88,1.49 -1.5,1.21 -0.55,0.81 0.2,0.53 2.09,0.32 0.95,0.81 -0.24,1 -1.76,1.56 -0.8,1.41 0.26,1.03 1.8,2.29 0.43,2.09 -0.18,1.5 -0.98,2.1 -2.89,2.9 0,0 -1.31,0.3 -4.18,2.51 -2.15,3.22 -1.29,4.13 -0.47,4.38 0.44,3.09 1.52,4.45 0.38,3.03 -1.24,9.1 0,0 -1.39,1.2 -0.84,1.44 -0.18,1.19 0.43,1.39 0,0 -2.15,2.17 -1.38,0.85 -1.01,1.84 -1.87,1.45 -0.3,0.75 -2.27,1.53 -1.47,-0.19 -1.72,0.58 -0.59,-0.45 -1.21,0.01 -1.64,1.05 -0.84,1.74 0.91,-0.42 -0.22,0.47 0.23,0.71 0.52,-1.15 0,-0.31 -0.48,-0.03 0.23,-0.38 0.78,-0.18 0.03,0.51 0.25,0.14 -0.16,0.87 1.81,-0.22 0.2,-0.21 -0.42,-0.16 0,-0.37 1.08,0.75 -3.2,2.23 -0.46,0.78 -0.31,2.37 -0.69,0.64 -1.37,0.56 -0.48,0.77 -0.42,0.14 -0.5,-0.44 -1.84,-0.49 -2.79,-0.34 -1.03,0.32 0,0.63 -2.8,1.72 -0.22,-0.62 -1.08,-0.7 -12.54,-7.43 -1.87,-0.65 -2.25,0.03 0,0 1,-0.91 0,0 -0.02,-0.25 0.27,0.21 0,0 0.41,-0.32 0.13,0.32 0.35,-0.1 0.16,-0.96 0.2,0.42 0.81,-0.44 0.49,0.03 0.53,0.47 -0.28,-0.69 0.19,-0.13 0.8,0.57 0.02,-1.1 0.31,0.02 0.38,0.66 1.29,-1.71 0.82,0.75 1.27,-0.45 0.29,0.06 0.17,0.51 0.29,-0.13 -0.21,-0.27 0.79,-0.46 0.23,-0.82 -0.67,-3.38 -0.01,-3.39 -0.88,-3.1 0.1,-2.1 -0.57,-0.79 -0.6,-0.57 -2.41,-1.2 -1.69,-0.01 -0.29,-1.3 -0.63,-1.02 -0.99,-0.63 -0.86,-0.14 -0.34,-0.5 0.02,-1.54 0.53,-0.84 1.49,-1.05 -0.08,-1.23 -1.15,-1.89 -1.6,-1.36 0.2,-0.51 -1.31,-0.29 -2.23,-3.07 0.14,-2.21 -0.84,-1.45 0,0 0.05,-0.49 2.58,-1.6 -0.76,-1.45 1,-1.36 0.77,-3.56 0.04,-2.24 0.75,-1.26 1.5,-0.35 2.29,1.04 1.27,-0.08 0.83,-0.71 2.45,-4.29 1.31,-1.13 3.23,-1.58 0,0 4.93,1.27 0.51,0.63 1.32,-0.34 0.48,0.27 0.43,1.17 0.36,0.24 1.1,-0.25 4.33,0.72 1.71,-0.04 1.23,-2.07 -0.22,-1.66 0.67,-2.1 0.84,-5.59 0.67,-0.42 1.5,-0.26 1.1,-0.74 0.89,-0.85 1.19,-1.89 1.13,-0.44 1.15,-1.51 5.24,-1.63 1.34,-0.85 1.37,-2.25 1.15,-4.28 2,-1.95 1.65,-3.03 3.83,-1.42 1.29,-0.08 2.7,2.06 1.68,2.64 2.07,1.8 z" 
                fill="rgb(151, 144, 238)" 
                stroke="white" 
                stroke-width=".7px"
                title="Adana" 
                id="TR-01" 
            />
        </svg>