<svg xmlns="http://www.w3.org/2000/svg" viewBox="486.84476999999987 210.45265 75.72000000000008 41.579999999999984" width="75.72000000000008" height="41.579999999999984">
            <path 
                d="m 557.62477,211.54265 0.78,0.14 1.37,-1.22 1.16,-0.01 0.43,0.77 0.95,0.74 0.25,1.39 -0.17,0.69 -0.9,0.94 -0.7,2.75 -0.79,0.31 -0.23,0.67 -1.32,1.51 0,0 -0.63,0.24 -1.06,-0.18 -1.35,0.55 -0.24,0.49 -1.04,0.64 -0.27,1.59 -1.05,2.05 -1.1,0.18 -1.12,0.77 0.76,0.7 -0.15,0.8 -0.59,0.58 0.17,1.69 -2.13,-0.03 -0.93,0.61 -0.31,0.6 0.15,0.42 1.67,-0.6 0.68,0.13 0.05,2.59 -1.7,0.54 -0.28,0.41 0.06,1.02 -1.25,0.84 -1.39,0.5 -0.89,-0.3 -0.39,0.33 0.16,1.14 0.82,0.2 0.56,0.45 -0.12,0.24 -3.98,1.2 -4.3,0.49 -3.41,2.7 -3.3,3.16 -2.07,1.08 -4.82,0.21 -0.67,0.51 -1.37,-0.2 -1.09,1.72 -1.27,-0.49 -0.7,0.15 -0.38,0.79 0.04,0.88 -0.52,0.42 -0.29,-0.02 -0.09,-0.55 -1.1,0.05 -2.33,-1.54 0,0 -1.73,-1.1 -3.9,-1.29 -3.81,-0.35 -2.85,0.37 -0.93,-0.28 -1.69,-1.85 -1.99,0.27 -2.34,1.08 -0.7,-0.09 -1.09,-0.75 0,0 -1.09,-1.96 -0.33,-1.71 -1.49,0.04 -1.34,-0.5 -1.09,0.04 -0.12,-1.07 -0.56,-0.89 0.79,-0.72 -0.03,-0.56 0.58,-0.69 -0.17,-1.48 0.44,-1.65 0.86,-1.21 1.7,-1.46 0.25,-3.35 -0.4,-1.23 1.07,-0.83 1.54,-0.47 0.67,-0.57 1.46,-2.63 0,0 0.69,0.43 0.17,0.5 -0.44,1.82 3.16,-0.72 0.37,0.37 0.24,1.63 0.43,0.49 0.65,0.05 0.85,-1.03 0.54,-0.15 2.04,0.63 2.35,0.31 2.41,-0.69 2.27,-0.21 1.45,-2.03 1.99,-0.46 0.57,-1.24 -0.76,-2.12 0.05,-1.19 -1.35,-1.83 0.39,-1.09 2.31,-1.26 4.89,-1.48 0.91,-0.92 0.73,-1.36 1.42,-0.54 4.09,-0.27 1.15,0.83 2.17,0.86 1.22,0.96 1.35,0.23 0.71,1.13 2.05,0.39 1.51,1.71 1.57,0.29 2.22,2.25 1.62,0.5 4.56,-1.77 1.3,-0.89 2.6,-0.73 0.45,-1.38 2.67,-1.35 z" 
                fill="rgb(151, 144, 238)" 
                stroke="white" 
                stroke-width=".7px"
                title="Adıyaman" 
                id="TR-02" 
            />
        </svg>