<svg xmlns="http://www.w3.org/2000/svg" viewBox="167.53476999999992 152.89265000000003 85.2100000000001 79.07000000000002" width="85.2100000000001" height="79.07000000000002">
            <path 
                d="m 198.21477,155.87265 1.51,-0.21 1.72,0.8 1.6,2.98 0.45,1.95 2.86,1.36 1.41,1.27 1.28,1.8 0.53,0.2 0.6,-0.39 0.23,-2.93 0.89,-0.71 4.38,0.35 2.78,0.69 0.96,-0.16 0.82,-1.1 0.15,-0.91 -3.01,-2.01 -0.41,-0.57 0.18,-0.59 0.75,-0.29 1.71,0.1 3.21,1.36 0.56,-1.6 0.44,-0.27 1.52,-0.07 0.23,-1.42 0.96,-1.69 0.84,-0.84 0.56,-0.08 3.86,2.67 1.64,-0.1 1.35,-0.9 0.58,-0.01 1.56,2.05 2.93,2.13 0.29,0.45 0.32,2.41 0.94,0.47 1.57,0 0.99,0.51 1.11,2.33 0.66,0.38 0,0 1.16,2.26 5.3,0.91 0.45,0.36 0.11,0.56 -0.39,0.59 -2.12,-0.06 -0.93,0.51 -1.65,-0.14 -0.86,0.31 0.79,1.49 -0.68,1.5 0.35,2.92 -0.17,1.1 -1.27,3.46 -0.34,0.63 -1.27,0.88 -0.51,1.33 0.44,1.77 1.79,0.96 0.44,1.06 -0.77,0.63 -1.57,0.4 -9.96,6.98 -0.42,1.11 -0.11,1.62 -0.68,1.02 0,0 -1.29,0.21 -1.87,-2.96 -1.74,-1.61 -0.8,-0.39 -1.69,-0.08 -3.88,0.96 -3.11,3.03 -2.33,0.7 -1.37,0.97 -2.18,4.31 -0.91,1.03 -3.17,1.42 -2.76,2.33 -1.03,-0.01 -1.29,0.74 -1.85,-0.07 -1.28,0.7 -2.79,2.43 -0.88,1.84 -1.36,1.1 -1.8,2.18 -0.87,0.58 -1.69,0.35 -1.46,0.92 -1.07,1.2 -0.67,1.33 -1.39,1.45 0.2,3.53 -1.95,3.07 -0.2,1.26 0,0 0,0 0,0 -4.83,-0.46 -2.97,0.13 0,0 -1.53,-0.84 -1.05,-0.08 -1.58,-1.14 -2.36,-1.14 -1.16,-1.17 -0.73,-1.04 -0.63,-2.01 0.33,-2.84 3.09,-3.15 2.14,-1.73 2.03,-3.27 0.69,-0.38 3.7,0.16 1.9,-3.1 0.85,-0.73 1.71,-0.71 0.2,-0.81 -1.28,-4.28 -1.17,-2.46 -2.64,-1.1 -1.14,-1.78 -1.76,-0.2 -1.37,-1.56 -1.64,-0.02 -2.07,-1.4 0,0 2.39,-2.28 2.3,-3.85 1.55,-0.89 0.05,-1.12 -1.1,-1.18 0.05,-1.72 0.42,-0.69 1.01,-0.52 0.79,-1.25 1.71,-0.92 0.62,-1.42 -0.02,-1.16 0,0 0.97,-0.03 1.11,-0.56 1.06,-1.06 1.57,-2.44 2.85,-1.18 0.85,-2.01 1.61,-1.9 -0.58,-2.82 0.29,-1.21 -0.4,-1.89 0.21,-1.23 1.44,-1.27 1.91,-0.92 2.01,0.1 0.72,-0.22 1.16,-1.57 z" 
                fill="rgb(151, 144, 238)" 
                stroke="white" 
                stroke-width=".7px"
                title="Afyonkarahisar" 
                id="TR-03" 
            />
        </svg>