<svg xmlns="http://www.w3.org/2000/svg" viewBox="311.8347699999999 165.85265 54.38000000000011 58.05999999999986" width="54.38000000000011" height="58.05999999999986">
            <path 
                d="m 339.70477,165.85265 1.12,0.98 2.16,-0.95 0.41,0.11 0.37,0.98 2.47,-0.34 0.39,1.18 1.18,1.85 -0.23,1.56 0.21,0.79 4.31,4.32 0.96,0.67 1.29,0.18 2.65,-0.52 0,0 0.74,0.34 0.33,0.62 -0.28,1.5 0.07,2.39 -1.3,1.89 -0.22,0.92 0.38,2.6 0.8,0.79 1.61,0.37 2.12,1.26 0.65,1.75 1.38,0.89 0.9,1.85 0.44,3.74 0.85,0.45 0.75,1.09 0,0 -0.3,0.42 -2.8,1.39 -0.41,1.39 -0.38,4.42 -0.31,0.62 -1.55,1.21 -1.51,3.15 -2.1,1.6 -4.38,1.1 -1.43,1.73 -1.93,1.59 0,0 -1.04,0.61 -2.31,0.64 -22.72,4.93 -2.88,-3.21 -1.74,-3.85 -1.23,-1.23 -1.99,-0.99 -0.82,-0.71 -0.37,-0.86 -0.08,-3.5 -1.71,-2.35 -0.39,-1.2 0.19,-1.45 1.09,-2.25 1.71,-5.86 3.12,-3.44 1.3,-3.94 1.59,-0.94 3.72,-0.78 0,0 3.96,-0.09 6.76,-2.67 2.64,-5.66 -1.33,-3.34 0.05,-0.87 1.7,-2.61 0.33,-1.73 -0.15,-1.71 0.45,-1.62 z" 
                fill="rgb(151, 144, 238)" 
                stroke="white" 
                stroke-width=".7px"
                title="Aksaray" 
                id="TR-68" 
            />
        </svg>