<svg xmlns="http://www.w3.org/2000/svg" viewBox="387.01476999999994 57.052652 61.37000000000006 44.24999800000004" width="61.37000000000006" height="44.24999800000004">
            <path 
                d="m 390.57477,57.242652 1.44,-0.19 3.66,0.82 0.68,0.47 0.34,1.35 0.63,0.26 5.42,-0.91 1.22,0.86 1.06,-0.11 0.47,0.7 1.44,-1.05 0.4,0.33 0.16,0.91 0.76,-0.93 0.61,-0.09 0.68,2.52 0.9,1.29 0.4,0.32 1.33,0.19 1.32,1.02 0.13,0.57 -0.47,1.12 0.8,1.05 1.84,0.47 2.47,-0.3 0.84,1.1 0.65,0.34 1.64,0 3.44,-1.21 4.55,1.64 2.36,1.19 0.79,-1.12 0.87,-3.85 1.25,-0.44 0.32,-0.64 0.02,-1.1 0.64,-0.36 3.05,0.73 2.48,1.31 0.41,0.45 -0.12,0.64 -1.43,1.34 -0.22,0.57 1.8,1.05 1.99,0.34 0.92,0.51 0,0 -0.11,0.73 0.61,1.04 3.37,1.79 -1.67,0.84 -1.58,2.08 -0.16,1.12 0.4,1.33 -0.26,0.93 -0.83,1.08 -0.99,0.48 -2.8,-0.45 -1.83,0.41 -0.29,0.61 0.57,0.66 2.32,0.19 0.36,0.25 -0.5,0.98 -1.54,0.7 -0.88,2.2 -0.65,-0.04 -0.42,0.76 -1.85,1.01 -2.52,0.76 -1.05,0.86 -0.11,0.77 -1.55,-0.92 -2.27,-0.49 -0.2,-0.56 0.29,-0.38 -1.65,-0.87 -0.27,0.24 -0.75,-0.21 -0.76,0.3 -1.08,-0.25 -0.26,0.29 -1.11,-0.12 -0.21,0.23 -1.15,-0.19 -1.07,3.09 -2.54,1.62 -0.17,1.71 -1.22,0.5 -1.25,1.17 -2.79,0.33 -1.98,0.75 -4.77,3.049998 0,0 -1.55,0.52 -1.17,-0.03 0,0 0.04,-0.76 0.9,-1.639998 1.44,-1.61 -0.12,-0.42 -1.63,-0.62 -0.29,-0.47 1.34,-2.82 -0.65,-1.91 1.92,-0.8 0.01,-1.71 1.61,-1.13 0.54,-1.16 0.04,-0.9 -0.65,-0.78 -0.14,-1.25 -1.62,-2.2 -2.02,-0.59 -2.13,-0.19 -0.43,-0.31 0.65,-3.02 -0.47,-0.67 -0.97,-0.2 -2.17,0.25 -0.8,-0.51 -1.8,0.05 -2.44,0.96 -1.53,0.18 -2.55,-1.57 -1.31,-1.37 -0.37,-0.94 -0.01,-2.45 1.44,-3.11 1.53,-2.45 -0.3,-0.88 -1.91,-1.42 -0.34,-0.96 0.61,-0.93 2.5,-1.51 0.22,-0.86 z" 
                fill="rgb(151, 144, 238)" 
                stroke="white" 
                stroke-width=".7px"
                title="Amasya" 
                id="TR-05" 
            />
        </svg>