<svg xmlns="http://www.w3.org/2000/svg" viewBox="213.8747700000003 76.812652 125.82999999999976 110.53999800000001" width="125.82999999999976" height="110.53999800000001">
            <path 
                d="m 285.22477,77.192652 2.57,-0.38 1.35,0.11 7.34,4.32 1.79,0.65 3.09,0.54 0.66,1.56 -0.95,3.58 3.76,0.03 2.67,1.36 2.71,0.79 1.85,4 1.93,3.02 0.8,0.53 0.98,-1.05 1.35,-0.1 0.77,-2.03 0.81,-0.46 2.6,0.49 1.18,1.49 3.43,-0.41 3.73,0.92 2.84,0.22 0.7,0.36 0.1,0.68 0,0 -0.46,0.29 -0.48,-0.36 -0.2,0.31 -0.41,-0.23 -0.44,0.48 -0.48,0 0.07,1.44 -0.5,0.09 -0.39,0.799998 -0.41,-0.309998 -0.3,1.229998 -0.48,0.24 0.55,0.66 -0.73,0.73 -0.41,1.6 0.69,1.29 -0.18,2.07 -0.67,2.34 1.1,1.65 -2.39,2.29 -2.66,0.75 -1.07,0.81 -2.96,0.8 -2.46,6.74 -1.06,-0.01 -0.24,0.41 0.49,2.56 -0.07,1 -3.18,5.32 0.51,0.67 3.87,2.61 1.26,1.56 0.46,1.78 0.17,2.83 -0.2,0.4 0.25,0.6 -0.21,0.63 0.27,0.68 -0.33,1.22 0.36,0.65 -0.53,0.6 0.9,0.93 0.66,-0.19 0,0 0.01,0.75 0.52,1.05 0.4,0.5 0.57,-0.08 0.12,0.7 0.46,0.29 -0.34,0.68 -0.63,-0.11 -0.13,0.53 0.56,0.38 0.13,0.52 1.89,0.69 1.05,2.14 0.66,0.4 1.09,2.46 2.97,1.18 1.22,1.8 1.27,0.35 0.39,0.91 1.06,0.3 0.44,0.45 0.23,1.35 4.07,0.26 0.7,0.98 0,0 -0.74,1.2 -0.45,1.62 0.15,1.71 -0.33,1.73 -1.7,2.61 -0.05,0.87 1.33,3.34 -2.64,5.66 -6.76,2.67 -3.96,0.09 0,0 -2.62,-3.66 -1.86,-3.25 -0.9,-4.02 -0.38,-3.26 -0.07,-1.15 0.71,-2.82 -0.32,-1.99 -0.39,-0.7 -0.7,-0.45 -3.11,-1.34 -1.63,-1.16 -2.27,-2.84 -0.63,-2.4 -0.2,-2.56 0.79,-1 1.35,-0.08 0.8,-0.52 0.07,-1.06 -0.75,-0.46 -1.3,0.04 -1.83,0.98 -1.57,1.54 -0.81,1.31 -1.2,0.48 -0.76,-0.19 -0.44,-0.66 -0.14,-1.36 0.49,-2.55 -0.69,-0.68 -0.94,-0.01 -1.5,1.03 -3.77,0.72 -0.64,0.59 -0.57,1.25 -0.77,4.43 -0.69,0.64 -1.58,0.36 -0.48,0.37 0.25,2.58 -0.61,1.4 -1.46,0.57 -0.74,1.16 -1.19,0.35 -1.29,-0.31 -1.38,-1.42 -1.37,-0.16 -1.12,0.99 -1.2,2.42 -1.29,0.51 -2.58,-0.31 -3.5,-2.63 -0.82,-0.12 -1.04,1.17 -0.65,0.07 -0.42,-0.24 -0.33,-0.94 -0.31,-0.06 -0.75,0.52 -1.48,3.01 -0.92,0.84 -1.76,0.31 -2.34,-0.73 -1.9,-1.88 -3.54,-7 -1.07,-0.46 0,0 0.34,-2.51 1.44,-1.14 2.53,-3.65 1.67,-0.85 0.56,-1.15 -0.13,-1.08 -2.77,-1.15 0.1,-1.32 0.66,-0.18 -0.12,-0.59 -0.93,-0.92 0,-0.66 0.29,-0.16 -0.19,-0.3 0.32,-0.19 -0.45,-1.73 0.7,-1.03 -0.34,-0.33 -0.79,0.19 -0.55,-0.46 0.38,-1.39 -0.89,-0.26 -0.99,-1.69 -1.39,-5.58 -2.65,-3.7 0.01,-0.82 1.63,-3.78 1.23,-1.08 -0.72,0.11 -0.08,-0.29 -0.44,0.14 0.05,0.32 -0.22,-0.22 -0.6,0.26 -0.25,-0.39 1.12,-0.8 -0.49,-0.21 -0.07,-0.39 -2.22,0.34 -1.41,-1.22 -0.19,-0.74 -1.11,-1.13 -0.12,-1.93 -0.57,0.22 -0.7,-0.27 -0.46,-0.74 0.66,-1.89 -0.48,-0.08 -1.03,0.74 -0.51,-0.21 0.39,-2.27 -1.96,1.59 -3.49,-0.77 -1.41,0.96 -1.73,-1.27 -0.39,0.82 -0.77,0.42 -0.89,-0.13 -0.49,0.34 -0.57,-1.03 0.77,-0.3 0.3,0.15 0.57,-0.38 -1.49,-0.93 -2.13,0.89 -1.1,-0.64 -1.88,-0.25 -2.14,0.3 -0.91,0.57 -1.34,-0.22 -0.58,-0.77 -0.98,0.01 -0.39,-0.36 -0.71,1.05 -0.35,-0.29 -0.67,0.46 -0.94,-0.2 -1.05,0.41 -0.39,0.37 -0.02,0.62 -2.58,-0.35 -0.59,0.25 -1.15,-0.47 -0.58,-0.77 -0.43,0.25 -1.28,-0.82 -0.21,-0.66 0.2,-0.35 -0.58,-0.58 0.22,-1.04 -0.68,-2.11 0,0 1.62,-1.36 2.47,-1.15 2.24,-2.75 1.17,-0.56 1.49,-1.429998 0.29,-0.99 2.04,-3.1 1.19,-0.58 4.31,0.66 6.46,-1.36 0.87,0.09 0.99,0.68 0.27,1.94 0.38,0.56 3.89,0.24 2.39,0.53 1.98,-0.2 4.29,-1.08 1.7,0.03 1.72,0.57 2.69,-0.37 2.97,-2.39 2.85,-0.5 3.4,0.49 1.08,1.57 0.73,0.31 2.92,-0.35 0.88,-0.81 0.01,-1.08 -1.78,-1.96 -0.62,-1.52 0.27,-1.69 0.95,-2.13 0.79,-0.81 1.27,-0.66 2.49,-0.72 1.96,-0.94 3.39,-0.81 0.26,-0.57 -0.14,-0.73 -1.52,-1.82 0.18,-1.58 0.41,-0.59 0.88,-0.48 z" 
                fill="rgb(151, 144, 238)" 
                stroke="white" 
                stroke-width=".7px"
                title="Ankara" 
                id="TR-06" 
            />
        </svg>