<svg xmlns="http://www.w3.org/2000/svg" viewBox="149.05477000000013 249.40265000000016 139.83999999999992 70.2999999999999" width="139.83999999999992" height="70.2999999999999">
            <path 
                d="m 235.12477,249.68265 0.35,1.05 2.91,2.15 2.5,0.8 2.73,0.01 3.71,1.27 2.8,-0.4 3.47,-2.07 0.92,-0.19 0.8,0.29 0.53,0.87 0.53,2.05 2.15,2.11 0.07,1.69 0.63,0.81 1.6,4.39 2.35,2.72 1.91,3.23 1.09,1.01 6.38,2.43 1.44,1.74 0.14,2.63 0.7,1.77 1.04,0.91 3.48,1.84 0.43,0.57 0,0 -0.87,5.4 0.5,1.84 0.59,0.93 2.7,2.32 2.72,2.95 0,0 0.93,4.43 2.54,6.03 -0.37,1.76 -1.35,1.68 0.17,1.18 -0.33,0.29 0,0.69 -0.43,0.72 0.79,1.13 -0.03,1.14 -0.9,1.44 -0.02,0.79 -0.66,0.42 -0.28,0.79 0,0 -1.03,0.41 -2.03,-0.86 -1.17,-1.23 -3.3,-2 -1.21,-1.83 -2.06,-1.18 -0.88,-1.56 -0.14,-1.18 -2.42,-2.48 -2.16,-4.24 -1.42,-1.35 -0.58,-1.16 -1.62,-1.9 -2.31,-1.89 -0.7,-0.1 -0.21,0.6 -0.44,0.05 -0.06,-0.58 -1.1,-0.89 -1.79,-0.29 -2.65,-1.27 -1.96,-0.38 -0.8,-0.56 -0.52,0.13 -0.01,-0.52 -1.39,-1.16 -3.13,-0.64 -1.17,-1.1 -3.51,-2.21 -3.72,-1.69 -3.11,-0.84 0.22,-0.44 -0.26,-0.47 -1,-0.85 -1.36,-0.59 -8.26,-1.27 -5.11,-1.21 -8.61,0.54 -0.35,-0.3 -1.14,0.29 -1.25,-0.53 -1.31,-1.43 -1.15,0.23 -1.6,1.19 -2.33,3.03 -0.51,3.72 0.44,1.22 -0.17,1.37 -0.64,1.39 0.06,1.38 0.46,1.02 0.4,0.31 0.47,-0.15 0.15,0.36 -1.43,2.58 -0.08,0.61 -0.6,0.38 0.1,0.59 -1.11,2.06 -0.39,0.13 0.38,0.56 -0.31,0.79 -1.21,0.36 0.33,0.39 -0.49,1.39 0.38,0.92 0.84,0.61 0.23,1.23 0.65,0.05 0.07,0.5 -2.61,1.09 0.17,0.78 0.59,-0.19 0.14,0.2 -0.02,0.98 -1.71,1.38 -0.47,0.55 0.03,0.39 -1.17,1.11 -0.23,-0.19 0.2,-1.35 -0.34,-0.32 0.46,-0.47 0.1,-0.7 -1,-0.2 -0.82,0.27 -1.72,-1.41 -1.8,-0.87 -3.88,0.03 -1.51,0.66 -0.01,1.45 -0.4,0.33 -0.11,-0.63 -1.02,1.62 -1.2,-0.16 -1.2,-1.31 -0.62,0.5 0,0.23 0.54,0.09 -0.19,0.29 -2.45,1.53 -0.21,0.38 -1.67,-0.2 -0.62,-0.68 -0.87,0.41 -0.12,0.52 -0.72,0.16 0.38,0.51 -0.53,0.36 -1.17,0.29 0.31,-0.36 -1.02,0.08 0.4,0.22 -2.07,1.41 1.25,-0.23 -2.17,1.57 -0.75,-0.38 0.92,-0.69 -0.43,-0.12 -0.67,0.32 -0.34,-0.35 -0.26,0.22 -0.58,-0.33 -1.85,1.36 -0.12,-0.79 -0.96,0.27 -0.16,-0.49 -0.83,-0.7 0.38,-0.49 0.43,0.25 -0.2,-1.11 -1.05,-0.09 -0.45,0.49 -1.04,0.07 1.12,-0.87 0.86,-0.07 -0.98,-0.15 -1.23,0.28 -0.3,-0.33 -2.96,-0.01 -1.22,-0.25 -1.36,-0.85 -0.61,-0.04 -0.41,0.37 -0.34,-1 0.53,-0.78 -0.65,0.05 -0.49,-0.33 -0.86,0.09 0.18,0.34 -0.25,1.01 -0.54,0.34 -1.61,-0.97 -2.18,-2.12 0.16,-0.19 0,0 0.65,-0.12 -0.34,-0.52 0.65,-0.08 0.18,-0.35 0.39,0.35 0.46,-0.64 -0.12,-3.42 0.88,-0.38 -0.44,-0.6 0.08,-0.68 -0.43,-0.4 0.33,-0.68 0.65,0.18 0.72,-0.98 1.74,-0.89 4.02,0.06 1.11,-0.36 2.29,-2.03 0.57,-1.44 1.59,-2.3 3.88,-2.45 1.29,-3.22 -0.36,-3.43 0.33,-2.73 2.19,-3.29 0.2,-0.9 -0.53,-2.24 -1.6,-1.35 0,0 1.03,-1.33 2.58,-1.95 -0.72,-3.76 0.98,-1.82 2.32,-1.69 2.07,-2.27 3.25,-1.15 1.55,-1.81 2.08,-1.07 2.96,-2.13 3.05,-0.66 2.68,0.28 1.41,0.85 1.67,1.65 3.99,1.8 12.51,0.42 1.1,-0.46 0.44,-0.53 1.26,-3.68 1.91,-2.82 0.05,-0.72 -1.18,-0.87 0,0 1.43,-0.2 1.22,0.25 2.03,2.33 1.54,0.66 0.73,-1.06 1.51,-0.34 0.39,-0.72 1.48,-1 6.76,-1.34 1.45,0.28 z" 
                fill="rgb(151, 144, 238)" 
                stroke="white" 
                stroke-width=".7px"
                title="Antalya" 
                id="TR-07" 
            />
        </svg>