<svg xmlns="http://www.w3.org/2000/svg" viewBox="688.8247700000003 28.082652 49.86999999999989 51.33000000000004" width="49.86999999999989" height="51.33000000000004">
            <path 
                d="m 704.66477,28.082652 1.67,0.49 1.55,0.86 0.67,-0.6 1.83,0.21 -0.25,1.34 -0.4,0.28 -0.16,0.88 -0.75,1.14 0.29,0.55 -0.14,0.67 1.95,1.35 0.31,-0.04 0.38,-1.36 0.54,-0.35 0.83,0.17 0,1.2 1.11,0.35 0.71,0.82 1,0.39 -0.01,0.95 0.89,0.46 -0.03,0.68 0.68,0.37 0.66,1.68 0.54,0.29 0.45,-0.41 0.56,0.61 1.55,0.48 1.7,2.14 1.99,0.78 0.54,-0.22 0.59,0.2 -0.02,0.85 -3.45,1.94 1.08,0.42 0.95,-0.46 0.72,0.12 0.34,1.2 1.38,2.43 -0.12,0.57 4.83,-1.47 1.2,0.02 2.87,1.45 1.1,2.86 -0.63,0.16 -0.51,1.2 0.48,1.26 0.51,0.37 -0.09,2.04 0.69,0.79 1.45,0.11 0,0 -1.66,1.71 -2.02,0.47 -2.3,-0.07 -0.7,0.68 -1.17,0.4 -2.94,-0.31 -1.68,0.58 -1.85,-0.66 -1.71,1.09 -1.34,0.18 -2.06,-1.03 -2.29,2.51 -2.07,0.77 -1.6,1.15 -0.42,1.92 -1.3,0.73 -3.02,4 -0.15,1.67 0.22,0.75 -0.6,1.01 -0.78,-0.18 -2.92,0.37 -1.33,1.37 0,0 -0.86,0 -0.88,-0.39 -1.11,-2.02 -0.79,-2.73 -0.62,-0.51 -2.71,-0.81 -2.89,-0.03 -1.46,-0.8 -1.8,-2.37 -0.35,-2.33 -0.71,-0.95 0,0 0.96,-0.54 1.56,-1.67 0.7,-1.27 0.12,-1.14 -0.21,-0.71 -1.72,-1 -1.29,-1.9 -0.05,-1.2 1.92,-1.46 0.34,-2.59 0.45,-0.62 1.64,-0.49 0.93,-1.23 2.53,-0.88 1.09,-1.42 1.71,-1.39 0.88,-1.4 -0.03,-0.61 -0.85,-1.11 -0.7,-2 -2.05,-1.73 -0.18,-0.89 0.42,-2.17 0,0 0.29,0.15 0.17,-0.43 -0.46,-1.56 0.55,-0.38 0.26,-0.66 1.65,-0.96 -0.31,-0.96 0.61,-0.98 -0.13,-1.16 1.02,-1.1 z" 
                fill="rgb(151, 144, 238)" 
                stroke="white" 
                stroke-width=".7px"
                title="Ardahan" 
                id="TR-75" 
            />
        </svg>