<svg xmlns="http://www.w3.org/2000/svg" viewBox="640.5447700000003 32.472652000000025 59.83999999999969 51.94" width="59.83999999999969" height="51.94">
            <path 
                d="m 675.01477,32.502652 0.57,0.97 1.94,0.55 1.68,-0.87 2.59,0.21 1.4,-0.47 0.63,0.38 0.51,0.92 0.75,-0.4 2.46,0.29 1.4,0.8 0.47,0.62 0.76,-0.25 0.65,0.32 1.52,-0.04 2,1.55 0.88,0.18 0.86,-0.55 0.91,0.34 0,0 -0.42,2.17 0.18,0.89 2.05,1.73 0.7,2 0.85,1.11 0.03,0.61 -0.88,1.4 -1.71,1.39 -1.09,1.42 -2.53,0.88 -0.93,1.23 -1.64,0.49 -0.45,0.62 -0.34,2.59 -1.92,1.46 0.05,1.2 1.29,1.9 1.72,1 0.21,0.71 -0.12,1.14 -0.7,1.27 -1.56,1.67 -0.96,0.54 0,0 -0.47,-0.03 -0.91,-0.76 -1.06,-1.79 -0.93,-0.58 -4.31,0.31 -3.74,-0.83 -1.14,0.21 -1,0.75 -1.04,1.37 -1.86,1.29 -1.42,1.63 -0.22,1.54 0.85,2.62 -0.12,1.36 -0.61,0.94 -2.02,1.63 -0.37,1.04 -0.06,2.01 -0.88,0.52 -0.76,0.96 -1.18,0.3 -0.5,-0.23 -0.34,-0.96 -0.07,-2.11 -0.3,-0.33 -0.53,-0.02 -1.79,0.98 -2.44,0.66 -3.27,1.57 -4.28,3.63 -1.03,0.26 -1.57,-0.3 -0.63,-2.21 -0.06,-3.69 1.6,-0.93 -0.03,-0.82 -2.35,-2.51 -3.22,-0.96 -1.13,-1.08 -2.24,-0.37 -0.85,-0.88 0,0 1.51,-1.52 2.13,-3.44 0.81,-3.09 1.6,-1.31 3.15,-4.1 2.11,-0.88 0.6,-0.88 -0.18,-1.15 -3.55,-3.52 -0.74,-1.98 -1.26,-1.06 -0.2,-2.85 -1.31,-2.28 0,0 1.91,-0.81 1.46,-1.06 2.37,-0.46 3.08,-4.42 1.9,-1.16 1.13,-2.04 1.13,-0.02 1.91,1.02 0.53,0.76 2.21,0.07 1.02,-0.52 0.29,0.38 -0.35,0.83 1.32,0.09 1.27,0.64 0.54,-0.04 0.24,0.68 0.56,0.1 0.72,0.77 2.51,-1.56 0.76,-1.53 1.11,-1.03 1.12,-0.82 z" 
                fill="rgb(151, 144, 238)" 
                stroke="white" 
                stroke-width=".7px"
                title="Artvin" 
                id="TR-08" 
            />
        </svg>