<svg xmlns="http://www.w3.org/2000/svg" viewBox="55.71477399999991 215.2526499999999 78.01999600000008 40.529999999999944" width="78.01999600000008" height="40.529999999999944">
            <path 
                d="m 122.99477,217.40265 0.45,0.72 2.34,0.51 0.21,0.42 0.99,0.58 0.4,0.78 3.19,0.17 1.35,0.66 0,1.1 -1.48,1.73 -0.55,0.14 -1.32,-0.39 -1.14,0.58 0.5,2.16 -0.03,3.43 0.53,1.18 0.86,0.9 3.44,1.7 1,1.13 -0.21,0.79 -2.21,2.25 -0.47,1.17 -0.3,2.23 -4.04,3.1 -2.29,2.19 -0.47,1.18 0.01,2.96 -0.72,0.47 0,0 -1.34,0.24 -1.4,-1.5 -3.14,-2.12 -0.93,-0.31 -6.39,-0.53 -2.74,0.16 -0.21,-0.2 0.03,-1.57 -0.49,-0.3 -0.93,0.24 -1.34,1.74 -1.18,0.71 -0.98,1.39 -0.9,0.2 -1.569996,-0.21 -1.87,0.19 -3.93,-0.56 -5,0.87 -1.26,-0.46 -1.18,-1.83 -0.54,-0.36 -2.62,0.16 -3.16,-1.6 -1.12,-0.21 -3.01,0.48 -1.1,0.46 -1.49,1.51 -0.62,1.89 -0.05,1.92 0,0 -1.55,0.56 -0.92,1.81 -0.46,0.07 -0.6,-0.44 -0.34,0.88 0.56,0.66 -0.3,0.25 -1.59,-0.69 -0.48,0.1 -0.67,0.87 -0.47,0.07 -2.25,-0.95 0.48,-0.62 0.22,-1.67 0.77,-0.28 -0.42,-0.83 0.34,-2.7 -0.27,-0.6 -0.81,-0.16 -0.31,-3.01 -0.82,0.32 -0.17,-0.3 0.12,-0.45 0.71,-0.38 0.23,-0.72 0.76,-0.01 0.31,-0.67 -1.24,-1.1 -2.71,-1.16 -3.97,-0.99 -0.44,0.14 0.08,-0.37 -0.65,-0.24 0.5,-1.3 0.62,-0.28 2.76,0.46 4.8,-1.63 0.81,-0.63 0.7,-1.01 0.77,-3.36 -0.38,-0.78 -0.49,-0.06 -0.47,-0.79 0.3,-0.98 0.74,-0.38 0.26,-1.55 0,0 0.66,0.85 1.57,0.02 1.08,0.59 0.17,2.04 0.62,0.33 1.11,-0.38 1.71,-1.85 0.05,-2.68 0.65,-1.6 1.71,-1.52 1.77,-0.74 2.73,-0.09 1.09,1.14 1.88,0.11 0.44,0.58 1.27,0.27 0.63,0.63 2.45,-0.6 2.81,-1.27 2.42,-0.39 4.12,-1.36 4.729996,-0.09 5.45,-0.85 1.94,-1.47 0.69,-1.72 3.05,-0.98 0.94,0.09 1.55,1.41 0.94,0.25 1.2,-2.21 0,0 1.97,0.33 2.96,1.82 z" 
                fill="rgb(151, 144, 238)" 
                stroke="white" 
                stroke-width=".7px"
                title="Aydın" 
                id="TR-09" 
            />
        </svg>