<svg xmlns="http://www.w3.org/2000/svg" viewBox="38.874773999999995 79.182652 99.16999600000003 86.03999799999993" width="99.16999600000003" height="86.03999799999993">
            <path 
                d="m 40.144774,147.79265 0.86,0.43 0.8,-0.19 -0.38,0.73 -1.51,-0.25 -0.05,0.52 0.42,0.69 0.81,-0.31 -0.02,0.52 0.54,0.77 1.32,-0.5 0.04,0.3 -0.63,0.18 0.37,0.32 -1.44,0.09 -0.36,0.34 -0.97,-0.06 -0.46,-0.66 0.1,-0.73 -0.33,0.08 0.11,-0.31 0.53,0.02 -0.38,-0.66 0.12,-0.55 -0.76,-0.34 0.6,-0.47 0.67,0.04 z m 41.03,-59.909998 0.19,0.57 0.37,0.13 0.22,-0.26 0.5,0.37 -0.73,1.33 0.93,0.61 0.31,-0.48 0.11,1.09 -1.56,-0.63 -2.11,-0.28 0.2,-1.05 0.58,0.22 0.48,-0.21 -0.36,-1.45 0.87,0.04 z m 5.51,-0.96 1,-0.06 -0.1,0.78 0.41,0.31 1.31,-0.69 0.71,0.5 0.48,-0.36 0.58,0.02 6.5,1.55 0.67,0.47 -0.63,1.69 -1.91,1.3 -0.82,0.09 -0.22,0.44 -1.04,0.37 -0.98,0.99 0.16,0.52 0.47,-0.04 0.53,0.79 1.15,0.61 0.38,0.14 0.84,-0.61 1.34,-0.43 5.119996,-1.11 0,0 0.3,1.31 1.67,1.77 0.03,2.14 -1.01,2.119998 -1.88,2.36 -0.24,0.93 1.36,0.78 0.55,0.88 0.24,2.33 -0.16,1.85 1.39,1.84 -0.24,0.2 0.1,0.47 0.4,0.37 -0.31,0.25 0.01,0.58 0.5,0.97 1.89,1.73 -0.04,3.27 1.63,2.37 1.62,1.12 3.78,0.27 2.06,2.51 2.35,1.7 2.28,0.96 0.77,0.01 1.94,-0.76 1.55,-1.63 1.41,0.34 0.41,0.49 -0.15,0.52 0.34,0 -0.36,1.19 0.2,1.7 -0.19,0.67 0.39,1.2 0.43,0.12 0.63,-0.38 0.36,0.21 0.11,1.26 0.65,0.14 -0.33,0.48 0.43,-0.17 0.05,0.58 0.96,0.56 1.01,0.18 0.41,-0.26 0.76,0.28 1.19,-0.54 1.8,0.04 1.72,0.79 0.45,-0.12 0,0 -0.27,0.34 0.1,0.52 0.36,-0.17 0,0.89 -0.4,0.04 -0.09,0.74 -1.34,0.42 0.11,0.33 -0.4,0.13 0.33,0.59 -1.08,0.8 -0.14,1.85 1.1,1.65 -0.3,1.04 0.32,0.62 -0.08,1.43 -0.92,1.14 -1.32,0.98 -1.2,1.92 -1.43,0.96 -0.52,1.26 -0.76,0.78 -1.67,0.84 -4.23,-0.01 -1.38,0.51 -0.14,0.54 1.08,1.79 0.31,1.49 0.35,0.22 0,0 -0.5,0.23 -3.01,-0.6 -1.41,0.69 -2.14,1.78 -3.56,1.43 -1.78,-0.53 -2.52,-0.27 -0.79,0.64 -0.34,0.73 -0.8,0.24 -0.85,0.79 -1.84,0.28 -1.15,-0.77 -1.72,-3.53 -1.42,-1.94 -4.529996,-3.46 -0.15,-1.07 -1.17,-2.63 -1.35,-1.35 -0.81,-0.06 -0.53,0.32 -2.96,2.62 -1.01,-0.52 -1.41,-2.54 -1.06,-0.54 -6.36,1.04 -0.73,-0.44 -0.89,-1.42 -3.04,-1.87 -0.92,0.29 -1.57,1.24 0,0 0,0 0,0 -3.59,0.59 -2.96,1.03 -3.18,-0.94 -2.1,0.84 -1.5,0.26 -3.16,3.6 -3.21,0.53 -1.77,1.6 -1.96,0.11 -2.64,3.66 0,0 -0.25,-0.77 -1.15,-1.31 0.12,-1.46 -0.64,-1.3 -0.69,-0.38 -2.63,-0.18 -1.26,-0.48 0.75,-1.19 0.01,-0.72 1.01,-0.52 0.26,0.32 -0.1,0.7 -0.86,-0.07 -0.18,0.38 0.28,0.27 0.8,-0.16 -0.1,0.5 0.68,0.33 -0.36,-1.23 0.54,-0.48 0.57,-0.06 0.52,-1.25 2.92,-1.66 1.36,-1.32 -0.28,-2.17 0.58,-0.23 0.57,0.34 1.14,-0.47 0.11,-1.95 1.08,0.12 1.88,-0.53 0.49,-3.02 0.44,-0.63 -1.08,-1.6 -1.93,-0.18 -0.56,1.1 -0.6,-0.08 -0.58,0.47 -0.64,-0.49 -1.93,-0.23 -0.67,0.4 -1.19,-0.2 -3.59,0.67 0,0 -0.14,-1.46 0.42,-1.54 2.56,-3.56 0.86,-0.52 3.52,-0.47 3.29,-2.38 1.27,-0.06 2.53,0.5 3.54,1.88 2.91,-0.23 2.67,0.71 2,1 1.75,0.06 0.55,-0.21 2.85,-3.16 4.99,-2.95 1.02,-1.47 -0.07,-2.16 0.29,-1.25 -0.27,-0.54 0.69,-0.34 0.03,-1.21 -0.41,-1.07 -2.12,-3.22 0.33,-1.86 -0.21,-1.5 -2.87,-1.91 -0.49,-1.17 0.97,-1.99 1.82,-2.33 2.25,-1.31 0.83,-0.89 0.54,-1.89 -0.71,-1.579998 0,0 1.02,-0.29 1.63,-1.03 1.12,-0.16 1.89,1.1 1.46,-0.45 0.69,0.45 1.2,0.1 0.98,-0.4 1.7,-1.74 2.34,-1.49 -0.23,-0.44 -2.16,-1 -1.07,0.89 -0.53,-1.35 -1.53,-1.16 0.34,-0.67 -0.22,-0.47 -1.34,-0.3 -1.19,-0.93 -0.14,-1.58 1.41,-1.11 1.43,-0.12 z m -9.09,-0.2 0.78,0.46 -1.16,1.06 0.47,0.74 -1.32,0.47 -0.32,0.56 -0.31,0.03 0.09,-0.63 -0.47,-0.73 0.63,-0.76 0.09,-0.74 0.82,-0.93 0.7,0.47 z m 4.39,-7.43 0.18,0.33 0.62,-0.17 0.05,0.32 0.41,0.09 0.09,-0.36 0.41,0.69 1.02,-0.11 1.48,1 -0.68,0.75 -1.79,0.87 -0.76,-0.02 0.05,0.55 -0.26,0.19 -2.09,0.85 -0.83,-0.33 -0.62,0.28 -1.8,-1.16 0.15,-1.31 -0.36,-0.74 0.33,-0.72 0.65,-0.38 0.38,0.64 0.49,-0.16 0.21,-0.45 1.23,-0.42 0.26,0.33 0.96,-0.67 0.22,0.11 z" 
                fill="rgb(151, 144, 238)" 
                stroke="white" 
                stroke-width=".7px"
                title="Balıkesir" 
                id="TR-10" 
            />
        </svg>