<svg xmlns="http://www.w3.org/2000/svg" viewBox="267.6747699999998 14.542652 33.60000000000019 30.379999999999992" width="33.60000000000019" height="30.379999999999992">
            <path 
                d="m 292.55477,14.542652 0.61,2.13 1.54,1.1 -0.85,2.29 0.99,1.47 0.95,0.23 1.62,-0.28 2.32,-1.16 0.84,0.11 0.65,0.66 0.05,0.66 -1.5,2.87 -0.25,2.14 -1.51,1.59 0,0.94 0,0 -2.04,0.39 -1.09,1.94 -1.68,0.73 -0.97,-0.15 -3.04,1.84 -0.37,1.29 1.5,3.51 0.26,1.39 -0.41,1.94 -0.91,1.16 -2.11,-1.52 -1.43,1.19 -0.91,0.13 -1.42,-0.58 -0.14,-0.61 -0.87,0.18 -2.37,2.22 -1.49,0.58 -3.32,-1.08 -1.98,-0.34 0,0 1.56,-3.31 -0.46,-1.23 0.46,-1.14 -1.54,-1.42 -0.36,-0.81 0.02,-2.88 -2.82,-0.44 -1.84,-2.51 -0.57,-1.39 0,0 1.83,-1.64 0.2,-0.51 -0.27,-0.21 2.12,-1.54 -0.02,-0.79 0.29,-0.38 0.63,-0.17 1.51,-1.47 2.2,-0.05 0.48,-0.78 0.61,0.08 0.1,-0.55 0.82,-0.37 0.3,0.47 0.91,0.11 0.36,-0.93 1.25,-1.02 0.44,0.09 0.84,-0.4 0.64,-0.73 -0.03,-0.42 3,-0.56 0.28,-0.84 3.87,-0.17 1.44,-0.45 0.25,-0.51 z" 
                fill="rgb(151, 144, 238)" 
                stroke="white" 
                stroke-width=".7px"
                title="Bartın" 
                id="TR-74" 
            />
        </svg>