<svg xmlns="http://www.w3.org/2000/svg" viewBox="633.4947700000002 191.74265 34.359999999999786 55.76000000000002" width="34.359999999999786" height="55.76000000000002">
            <path 
                d="m 654.70477,191.74265 2.85,1.1 2.59,2.2 0.28,1.73 -1.16,2.97 0.01,0.84 1.02,1.87 0.69,4.06 2.04,2.48 0,0 -1.09,1.16 -1.26,3.97 -0.9,1.26 -2.01,1.37 -3.1,0.64 -1.47,0.71 -5.14,4.96 -0.44,0.99 -0.06,1.02 4.43,3 1.62,1.6 0.55,1.12 2.89,1.52 1.26,2.25 2.83,0.4 2.22,1.28 2.32,-0.48 2.01,0.8 0.17,0.67 0,0 0,0 0,0 0,0 0,0 -1.58,1.63 -0.58,0.24 -5.11,0.26 -0.91,0.3 -4.3,3.75 -3.28,1.87 -3.05,1.23 -4.24,0.44 -3.53,-0.13 -3.65,0.68 -2.39,-9.23 -0.92,-2.12 0,0 2.09,-3.1 -1.6,-0.96 -1.31,-0.31 0.8,-2.85 0.33,-0.25 0.62,-1.87 1.95,-2.04 1.58,-2.32 2.31,-6.53 2.1,-1.84 0.48,-0.8 -0.91,-0.59 -0.04,-0.49 -0.5,-0.07 -0.12,-0.67 -0.54,0.22 -0.33,-0.25 0.35,-1.59 -0.26,-4.27 0.18,-0.94 1.92,-4.76 0.9,-1.56 1.13,-0.96 0.41,-1.04 2.4,-0.29 1.24,-0.89 0,0 0.71,-0.37 2.42,-0.19 1.46,-1.4 z" 
                fill="rgb(151, 144, 238)" 
                stroke="white" 
                stroke-width=".7px"
                title="Batman" 
                id="TR-72" 
            />
        </svg>