<svg xmlns="http://www.w3.org/2000/svg" viewBox="581.5547700000001 85.842652 40.610000000000014 31.819998" width="40.610000000000014" height="31.819998">
            <path 
                d="m 617.36477,85.842652 -0.07,1.48 -1.51,4.23 0.19,0.95 0.57,0.88 0.05,1 -0.89,3.77 -1.23,1.8 -0.59,2.479998 0.46,0.9 1.07,0.65 2.61,-0.51 3.83,0.56 0.31,0.89 -0.17,1.53 -0.95,1.76 -0.91,0.87 -7.74,4.62 -0.81,0.24 -4.63,-0.5 0,0 -2.19,0.24 -5.49,-0.13 -5.74,-0.73 -1.92,0.07 -1.49,0.57 -1.58,1.04 -3.22,3.16 0,0 -1.46,-1.57 -2.15,-1.4 -0.16,-0.92 4.45,-5.7 1.26,-4.42 1.69,-2.69 -0.22,-7.069998 0.46,-1.93 0.77,-1.6 0.54,-0.5 1.11,-0.25 7.79,-0.98 2.29,0.19 2.65,-0.91 0,0 1.43,-0.45 3.19,0.3 4.1,-0.79 0,0 2.19,-0.86 z" 
                fill="rgb(151, 144, 238)" 
                stroke="white" 
                stroke-width=".7px"
                title="Bayburt" 
                id="TR-69" 
            />
        </svg>