<svg xmlns="http://www.w3.org/2000/svg" viewBox="167.36476999999994 87.452652 39.849999999999994 44.51999799999999" width="39.849999999999994" height="44.51999799999999">
            <path 
                d="m 177.88477,87.452652 1.89,4.13 0.85,0.92 1.04,0.29 0.67,-1.3 0.81,-0.26 0.89,1.08 0.79,1.85 2.13,1.4 2.05,0.2 0.35,0.27 0.2,-0.29 1.57,-0.13 1.04,-0.73 1.36,-0.29 0.88,1.02 1.07,0.1 1.07,-0.27 1.44,-1.1 0.84,-0.17 1.75,1.81 1.24,0.11 0.72,-0.25 0,0 1.1,1.39 0.53,3.179998 1.24,2.3 0.35,2.59 1.46,2.26 0,0 -3.32,1.21 -1.89,2.31 -2.84,1.87 -0.74,1.37 -2.15,1.09 -0.86,1.76 -1.4,0.72 -1.04,1.04 -0.61,2.36 -1.2,1.48 -2.06,0.5 -3.46,-0.04 -0.96,0.72 -1.91,2.02 -1.45,2.15 -1.16,3.85 0,0 -6.08,-0.25 -1.55,-0.78 -1.17,-1.6 -1.67,-0.68 -0.63,-0.69 -0.54,-3.27 -1.16,-2.39 0,0 3.06,-2.29 0.65,-1.15 -0.71,-1.45 -1.21,-0.56 -0.42,-0.53 -0.2,-1.34 1.22,-1.22 -0.68,-5.98 0.26,-0.44 2.17,-1.14 0.11,-1.42 -0.55,-1.97 1.53,-1.65 -0.11,-1.989998 0.6,-1.19 0.16,-2.39 1.81,-1.94 0.15,-1.75 -0.73,-1.64 0.23,-0.9 0.65,-0.86 z" 
                fill="rgb(151, 144, 238)" 
                stroke="white" 
                stroke-width=".7px"
                title="Bilecik" 
                id="TR-11" 
            />
        </svg>