<svg xmlns="http://www.w3.org/2000/svg" viewBox="588.89477 140.69265 58.950000000000045 55.44999999999996" width="58.950000000000045" height="55.44999999999996">
            <path 
                d="m 610.10477,141.25265 1.23,-0.38 5.93,-0.18 1.58,0.29 1.32,0.71 0,0 -0.6,0.68 -0.29,1.45 0.52,0.95 1,0.4 2.68,0.51 8.57,-1.34 4.75,-0.23 2.99,3.38 2.03,1.37 0,0 -1.73,2.26 -0.26,1.54 0.13,1.4 2.96,4.63 0.86,2.01 3.5,2 0.41,0.67 0.16,1.29 -0.14,0.83 -0.54,0.72 -4.57,1.93 -2.66,3.17 -0.77,5.58 0.42,2.31 0.16,3.86 0,0 -5.48,1.6 -1.93,0.9 -2.6,3.96 -1.35,0.98 -1.26,0.37 -1.17,-0.1 -1.78,-1.65 -1.5,-0.07 -1.59,-1.15 -0.62,0.55 -0.12,2.23 -0.46,0.56 -0.73,0.14 -1.36,-0.37 -0.8,-1.21 -1.65,-0.96 -0.66,-0.11 -0.96,0.32 -0.62,-0.59 -1.17,0.08 -1.29,1 -1.35,1.81 -0.13,2.94 -0.92,0.96 -2.88,0.21 -1.3,0.68 0,0 -2.78,-4.56 -2.25,-5.41 0.12,-0.35 2.24,-1.44 1.18,-2.16 1.41,-0.42 2.67,0.21 1.04,-0.79 0.04,-1.02 -0.61,-0.87 -3.76,-2.7 -0.49,-2.34 -0.7,-1.02 0.27,-2.11 -0.87,-0.79 1.94,-3.39 -0.07,-2.87 2.83,-3.4 0.05,-1.99 -0.65,-0.64 -0.61,-0.11 -2.06,0.68 -1.24,1.03 -1.79,0 -2.86,0.76 -0.25,0.53 -0.26,-0.08 -1.32,1.15 -2.21,1.17 -0.77,-0.3 -0.48,0.55 -0.66,-0.07 -1.1,-0.54 -0.92,0.32 0,0 -0.25,-0.56 1.1,-1.47 -0.04,-1.69 0.54,-1.02 0.64,-2.48 0.88,-1.04 1,-0.45 0.75,-0.79 -0.04,-1.23 -1.42,-2.1 0.27,-0.92 1.11,-0.14 3.74,0.95 2.71,-0.29 3.43,-2.29 2.22,-2.83 2.78,-1.66 z" 
                fill="rgb(151, 144, 238)" 
                stroke="white" 
                stroke-width=".7px"
                title="Bingöl" 
                id="TR-12" 
            />
        </svg>