<svg xmlns="http://www.w3.org/2000/svg" viewBox="654.7047700000002 166.96265 71.49999999999977 57.309999999999945" width="71.49999999999977" height="57.309999999999945">
            <path 
                d="m 716.64477,166.96265 1.11,0.64 2.02,1.91 1.03,2.39 3.95,1.53 1.15,0.77 0.3,0.68 -0.11,0.77 -0.82,1.59 -1.39,1.59 -5.67,3.38 -4.04,3.75 -6.47,9.67 -0.55,2.12 0.19,4.03 -1.86,1.29 -1.66,0.69 -1.13,1.23 0.01,1.21 1.29,0.64 0.37,0.62 0.41,2.41 -0.81,3.91 -0.42,0.69 0,2 -0.46,1.25 -0.17,2.28 0,0 -0.67,1.16 -2.25,0.9 0.34,0.96 -0.59,0.17 -0.07,0.82 -0.72,0.26 -0.5,-0.74 -0.43,-0.14 0.25,-0.42 -1.95,-0.33 -1.11,-0.71 -1.13,-1.94 -4.01,-3.79 -3.64,-4.67 -1.42,-1.16 -1.53,-0.37 -2.68,0.26 -1.5,0.39 -1.92,1.69 -1.57,0.04 -0.91,-0.35 -0.14,-1.26 -4.45,0.8 -1.72,-0.61 -1.25,-1.95 -0.93,-0.12 -2,0.42 -1.39,-0.32 0,0 -2.04,-2.48 -0.69,-4.06 -1.02,-1.87 -0.01,-0.84 1.16,-2.97 -0.28,-1.73 -2.59,-2.2 -2.85,-1.1 0,0 0.26,-0.89 1.49,-0.2 0.97,-1.09 0.57,-0.18 0.85,0.18 2.91,-0.22 2.11,0.56 1.98,-0.1 4.65,1.31 2.43,0.35 0.56,-0.6 0.59,-2.17 1.54,-0.74 1.59,-2.63 2.29,-1.38 0.4,-0.53 0.29,-1.58 -0.56,-1.07 -0.05,-0.79 0.83,-0.94 1.38,-0.11 0.82,-2.92 0.76,-1.15 0.7,-0.5 3.05,-0.71 1.94,-1.08 3.27,-0.45 1.73,-0.8 3.13,0.08 4.6,0.8 2.37,-0.01 0,0 3.45,0.79 1.3,-0.12 2.46,-1.35 2.8,-0.98 0.25,-2.82 1.21,-0.69 z" 
                fill="rgb(151, 144, 238)" 
                stroke="white" 
                stroke-width=".7px"
                title="Bitlis" 
                id="TR-13" 
            />
        </svg>