<svg xmlns="http://www.w3.org/2000/svg" viewBox="202.53476999999998 55.872652 83.71999999999997 51.68999799999996" width="83.71999999999997" height="51.68999799999996">
            <path 
                d="m 271.20477,55.872652 5.02,0.71 0,0 0.46,2.82 1.61,4.07 -0.24,2.45 0.29,0.97 0.84,0.49 2.72,-0.67 1.19,0.06 3.09,4.71 0.07,0.8 -1.03,3.2 0,1.71 0,0 -3.27,0.58 -0.88,0.48 -0.41,0.59 -0.18,1.58 1.52,1.82 0.14,0.73 -0.26,0.57 -3.39,0.81 -1.96,0.94 -2.49,0.72 -1.27,0.66 -0.79,0.81 -0.95,2.13 -0.27,1.69 0.62,1.52 1.78,1.96 -0.01,1.08 -0.88,0.81 -2.92,0.35 -0.73,-0.31 -1.08,-1.57 -3.4,-0.49 -2.85,0.5 -2.97,2.39 -2.69,0.37 -1.72,-0.57 -1.7,-0.03 -4.29,1.08 -1.98,0.2 -2.39,-0.53 -3.89,-0.24 -0.38,-0.56 -0.27,-1.94 -0.99,-0.68 -0.87,-0.09 -6.46,1.36 -4.31,-0.66 -1.19,0.58 -2.04,3.1 -0.29,0.99 -1.49,1.429998 -1.17,0.56 -2.24,2.75 -2.47,1.15 -1.62,1.36 0,0 -1.01,-0.69 -0.99,-0.12 -2.1,0.23 -2.56,0.97 0,0 -1.46,-2.26 -0.35,-2.59 -1.24,-2.3 -0.53,-3.179998 -1.1,-1.39 0,0 0.8,-1.82 -0.53,-4.99 0.24,-1.04 0.99,-0.4 5.74,0.65 2.87,-0.9 1.6,0.17 1.2,-0.47 2.32,-2.25 -0.14,-0.8 -1.39,-1.62 -0.33,-1.08 0.37,-1.51 1.1,-0.93 0,0 3.98,0.77 2.63,0.11 3.11,-0.01 1.48,-0.68 1.81,-2.25 1.14,-2.28 0.58,-2.6 0.68,-1.38 1.17,-0.94 3.72,-0.8 1.4,-1.05 0.67,-1.9 0.45,-2.95 -0.16,-2.7 0,0 1.86,-1.02 2.85,-0.78 2.66,0.35 4.98,-0.39 1.92,1.42 1.32,0.11 3.64,-1.31 4,-0.52 4.15,-1.45 z" 
                fill="rgb(151, 144, 238)" 
                stroke="white" 
                stroke-width=".7px"
                title="Bolu" 
                id="TR-14" 
            />
        </svg>