<svg xmlns="http://www.w3.org/2000/svg" viewBox="152.35476999999983 229.59265 65.43000000000015 53.92999999999995" width="65.43000000000015" height="53.92999999999995">
            <path 
                d="m 184.37477,231.96265 2.42,0.49 2.52,0.03 5.52,-2.59 1.59,-0.3 0.35,0.16 0.86,0.8 0.42,0.87 -0.86,2.74 0.68,1.35 1.22,0.46 2.38,0.21 2.23,-0.59 1.39,0.07 3.87,1.62 1.6,1.34 0.53,0.9 -0.15,1.18 0.47,1.28 -0.1,1.81 3.25,3.35 0.42,1.35 0.08,1.97 1.54,0.38 0,0 1.18,0.86 -0.05,0.72 -1.91,2.82 -1.27,3.68 -0.44,0.53 -1.09,0.45 -12.51,-0.42 -3.99,-1.8 -1.67,-1.65 -1.41,-0.85 -2.68,-0.29 -3.05,0.66 -2.96,2.13 -2.08,1.07 -1.55,1.81 -3.25,1.15 -2.07,2.28 -2.33,1.69 -0.98,1.81 0.72,3.77 -2.58,1.95 -1.03,1.33 0,0 -1.74,-0.52 -0.8,-0.61 -0.9,-0.13 -1.44,0.3 -1.4,0.93 -1.62,0.62 -0.36,0.34 -0.43,2.15 -2.21,4.79 -1.07,-0.27 -0.11,1.14 -0.39,0.24 -2.71,-0.82 1.22,-1.79 -0.06,-0.83 -2.3,-0.02 -0.93,-1.12 0,0 0.49,-1.88 1.39,-2.47 -0.3,-1.1 -1.11,-1.21 0.36,-1.39 0.98,-1.18 3.2,-1.54 -0.09,-2.16 0.67,-3.24 1.49,-3.39 1.05,-1.56 4.44,-3.35 0.63,-1.45 -0.05,-0.73 -0.76,-0.95 -4.09,-2.05 -0.44,-0.57 -0.23,-1.12 0.55,-1.1 0.59,-0.37 0.42,-0.74 -0.48,-1.48 -0.84,-1.07 -0.06,-1.12 0.73,-1.04 3.1,-0.93 4.06,0.97 0.25,-0.85 -1.03,-1.89 0.53,-0.77 0.83,-0.76 1.22,-0.49 3.91,-0.75 2.81,-3.58 0,0 2.97,-0.13 z" 
                fill="rgb(151, 144, 238)" 
                stroke="white" 
                stroke-width=".7px"
                title="Burdur" 
                id="TR-15" 
            />
        </svg>