<svg xmlns="http://www.w3.org/2000/svg" viewBox="101.50476999999997 82.872652 76.93000000000002 53.929998000000026" width="76.93000000000002" height="53.929998000000026">
            <path 
                d="m 119.79477,84.762652 -0.77,0.86 0.38,1.12 -0.12,0.57 -0.73,0.42 -0.36,-0.62 0.44,-1.5 -0.33,-0.88 1.49,0.03 z m 36.5,0.52 3.42,0.89 1.05,-0.02 4.84,-2.01 5.54,-1.27 4.64,0.98 2.59,0.9 0,0 0.06,1.19 -0.55,1.51 0,0 -2.53,1.06 -0.65,0.86 -0.24,0.9 0.74,1.64 -0.15,1.75 -1.81,1.94 -0.16,2.39 -0.6,1.18 0.1,1.989998 -1.53,1.66 0.55,1.97 -0.11,1.42 -2.16,1.14 -0.26,0.44 0.69,5.98 -1.22,1.22 0.2,1.34 0.41,0.53 1.21,0.56 0.72,1.45 -0.66,1.15 -3.05,2.29 0,0 -0.95,-0.26 -3.2,0.64 -0.96,-0.06 -1.75,-1.57 -3.66,-1.28 -0.49,0.52 -0.28,1.02 -0.1,2.96 -0.67,1.73 -4.36,3.88 -0.77,2.53 -2.89,2.14 -1.02,1.84 -1.31,0.4 -4.01,-0.75 -3.1,0.12 0,0 -0.45,0.12 -1.72,-0.79 -1.8,-0.04 -1.19,0.54 -0.76,-0.28 -0.41,0.26 -1.01,-0.18 -0.96,-0.56 -0.05,-0.58 -0.43,0.17 0.33,-0.48 -0.65,-0.14 -0.11,-1.26 -0.36,-0.21 -0.63,0.38 -0.43,-0.12 -0.39,-1.2 0.19,-0.67 -0.2,-1.7 0.36,-1.19 -0.34,0 0.15,-0.52 -0.41,-0.49 -1.41,-0.34 -1.55,1.63 -1.94,0.76 -0.77,-0.01 -2.28,-0.96 -2.35,-1.7 -2.06,-2.51 -3.78,-0.27 -1.62,-1.12 -1.63,-2.37 0.04,-3.27 -1.89,-1.73 -0.5,-0.97 -0.01,-0.58 0.31,-0.25 -0.4,-0.37 -0.1,-0.47 0.24,-0.2 -1.39,-1.84 0.16,-1.85 -0.24,-2.33 -0.55,-0.88 -1.36,-0.78 0.24,-0.93 1.88,-2.36 1.01,-2.119998 -0.03,-2.14 -1.67,-1.77 -0.3,-1.31 0,0 4.56,-0.57 2.42,0.18 1.35,-0.19 3.23,0.46 3.8,-0.22 3.08,1.31 3.21,0.63 0.62,-0.3 -0.09,-0.4 1.35,-0.12 2.55,-0.94 0.93,-0.01 1.52,0.56 2.01,0.09 1.92,1.38 2.15,0.03 3.25,-0.43 0.57,-0.71 0.36,-1.61 0.65,-0.63 0.45,0.19 2.01,-0.45 -0.18,-0.77 -2.75,-2.13 -2.28,-0.07 -2.08,1.21 -0.22,-0.13 0,0 0.63,-1.78 0,-3.66 2.7,1.05 2.85,0.06 3.3,0.72 1.84,-0.41 3.09,-1.35 2.06,-0.04 1.1,0.33 1.7,-0.19 z" 
                fill="rgb(151, 144, 238)" 
                stroke="white" 
                stroke-width=".7px"
                title="Bursa" 
                id="TR-16" 
            />
        </svg>