<svg xmlns="http://www.w3.org/2000/svg" viewBox="122.99477000000005 194.85265 61.17999999999989 86.16999999999999" width="61.17999999999989" height="86.16999999999999">
            <path 
                d="m 171.10477,194.85265 2.07,1.4 1.64,0.02 1.37,1.56 1.76,0.2 1.14,1.78 2.64,1.1 1.17,2.46 1.28,4.28 -0.2,0.81 -1.71,0.71 -0.85,0.73 -1.9,3.1 -3.7,-0.16 -0.69,0.38 -2.03,3.27 -2.14,1.73 -3.09,3.15 -0.33,2.84 0.63,2.01 0.73,1.04 1.16,1.17 2.36,1.14 1.58,1.14 1.05,0.08 1.53,0.84 0,0 -2.81,3.58 -3.91,0.75 -1.22,0.49 -0.83,0.76 -0.53,0.77 1.03,1.89 -0.25,0.85 -4.06,-0.97 -3.1,0.93 -0.73,1.04 0.06,1.12 0.84,1.07 0.48,1.48 -0.42,0.74 -0.59,0.37 -0.55,1.1 0.23,1.12 0.44,0.57 4.09,2.05 0.76,0.95 0.05,0.73 -0.63,1.45 -4.44,3.35 -1.05,1.56 -1.49,3.39 -0.67,3.24 0.09,2.16 -3.2,1.54 -0.98,1.18 -0.36,1.39 1.11,1.21 0.3,1.1 -1.39,2.47 -0.49,1.88 0,0 -0.38,-0.1 -1.89,1.61 -3.76,0.57 -1.24,-0.06 -1.66,-1.11 -1.16,-3.21 0.09,-3.77 -0.41,-0.99 -2.51,-3.2 -0.35,-1.13 0.17,-1.73 -0.2,-0.74 -2.13,0.6 -1.96,0.01 -1.55,-0.24 -1.01,-0.64 -1.32,-1.51 -0.47,-2.1 -1.33,-0.22 -0.91,-0.56 -0.37,-0.97 -0.67,-0.22 0.08,-0.39 -0.4,-0.61 0.26,-0.23 0.19,-1.57 -0.91,-0.65 -0.7,-1.49 -2.12,-0.31 -0.71,-2.73 0,0 0.72,-0.47 -0.01,-2.96 0.47,-1.18 2.29,-2.2 4.05,-3.1 0.29,-2.23 0.47,-1.17 2.21,-2.25 0.22,-0.79 -1,-1.12 -3.44,-1.71 -0.87,-0.89 -0.52,-1.18 0.03,-3.43 -0.5,-2.16 1.14,-0.59 1.32,0.39 0.55,-0.14 1.47,-1.73 0,-1.1 -1.35,-0.66 -3.19,-0.17 -0.4,-0.78 -0.99,-0.58 -0.21,-0.42 -2.34,-0.52 -0.44,-0.71 0,0 4.59,-2.69 0.5,-1.95 0.94,-1.53 2.45,-2.03 0,0 2.58,-0.46 3.24,0.67 1.57,-0.41 1.79,0.37 2.82,-0.38 1.93,0.32 0.54,2.63 0.83,0.76 0.51,-1.3 0.04,-1.18 1.2,-0.34 -0.32,-1.38 0.83,-0.55 1.7,-2.83 0.92,-0.58 0.91,-0.13 2.11,0.34 2.4,1.18 2.9,0.35 1.9,0.98 1.38,-0.17 0.81,-0.64 0.48,-1.05 -0.36,-2.25 0.17,-1.69 -0.39,-1.26 0.2,-0.64 2.11,-1.09 z" 
                fill="rgb(151, 144, 238)" 
                stroke="white" 
                stroke-width=".7px"
                title="Denizli" 
                id="TR-20" 
            />
        </svg>