<svg xmlns="http://www.w3.org/2000/svg" viewBox="556.09477 183.06265 93.40999999999997 63.44" width="93.40999999999997" height="63.44">
            <path 
                d="m 639.74477,183.06265 1.86,1.66 0.39,0.05 1.78,-1.31 0.49,-0.15 0.46,0.23 -0.44,3.07 0.19,1.54 0.59,0.98 0.29,1.79 2.01,1.58 1.38,-0.57 0.48,0.2 0.26,1.07 -0.32,1.07 0.34,0.28 -0.01,0.58 0,0 -1.24,0.89 -2.4,0.29 -0.41,1.04 -1.13,0.96 -0.9,1.56 -1.92,4.76 -0.18,0.94 0.26,4.27 -0.35,1.59 0.33,0.25 0.54,-0.22 0.12,0.67 0.5,0.07 0.04,0.49 0.91,0.59 -0.48,0.8 -2.1,1.84 -2.31,6.53 -1.58,2.32 -1.95,2.04 -0.62,1.87 -0.33,0.25 -0.8,2.85 1.31,0.31 1.6,0.96 -2.09,3.1 0,0 -0.55,1.82 -0.48,0.46 -1.07,0.51 -2.09,0.15 -0.56,0.31 -1.11,-0.03 -3.12,-1.53 -2.35,0.01 -0.98,-1 -0.86,0.11 -0.61,2.48 0.89,3.31 -0.14,0.77 -0.61,0.61 -1.25,-0.43 -3.04,-0.12 -1.46,-0.88 -3.07,-0.81 -0.29,0.27 0.19,1.08 -0.46,0.55 -3.82,1.71 -2.87,0.92 -1.17,0.08 -0.82,-0.26 -1.35,-0.8 -1.5,-1.47 -1.88,-0.58 -2.56,0.78 -3.07,1.89 -1.02,0.05 -0.74,-0.39 -0.63,0.28 0,0 -0.99,-0.83 -1.97,-2.7 0.09,-3.93 -0.82,-2.63 0.23,-3.61 -0.67,-2.81 -1.06,-1.57 -1.06,-0.03 -1.06,0.91 -1.39,-0.01 -1.46,2.21 -1.06,0.54 -1.49,-2.07 -1.29,-1.07 -4.08,-0.43 -1.64,-0.57 -0.8,-0.85 -0.47,-1.07 -1.09,-0.42 -0.95,-1.52 -2.17,-0.38 -2.1,-1.59 -1.64,-0.57 -1.85,-0.12 -0.62,-0.66 0,0 1.32,-1.51 0.23,-0.67 0.79,-0.31 0.7,-2.75 0.9,-0.94 0.17,-0.69 -0.25,-1.39 -0.95,-0.74 -0.43,-0.77 -1.16,0.01 -1.37,1.22 -0.78,-0.14 0,0 -0.8,-0.06 -0.73,-0.82 1.32,-1.34 0.53,-3.66 0,0 1.95,-0.77 1.31,0.07 0.52,-0.45 0.7,0.01 1.3,-0.83 0.84,-0.13 1.83,1.14 1.4,-0.62 0.8,0.09 0.8,1.42 1.17,0.38 0.66,0.98 1.87,0.5 0.58,-0.41 0.11,-2.58 0.69,-1.04 1.9,-0.05 3.32,0.42 2.18,-0.76 0.68,-0.71 2.46,-1.08 0.65,0.56 1.41,0.04 0.38,0.61 0.65,0.2 0.71,-0.63 0.94,-3.9 1.67,-1.17 2.07,-0.47 2.8,-0.09 2.12,0.02 2.03,0.53 2.84,-0.41 0.78,-0.39 0,0 1.3,-0.68 2.88,-0.21 0.92,-0.96 0.13,-2.94 1.35,-1.81 1.29,-1 1.17,-0.08 0.62,0.59 0.96,-0.32 0.66,0.11 1.65,0.96 0.8,1.21 1.36,0.37 0.73,-0.14 0.46,-0.56 0.12,-2.23 0.62,-0.55 1.59,1.15 1.5,0.07 1.78,1.65 1.17,0.1 1.26,-0.37 1.35,-0.98 2.6,-3.96 1.93,-0.9 z" 
                fill="rgb(151, 144, 238)" 
                stroke="white" 
                stroke-width=".7px"
                title="Diyarbakır" 
                id="TR-21" 
            />
        </svg>