<svg xmlns="http://www.w3.org/2000/svg" viewBox="212.51477000000003 54.522652 27.680000000000007 25.21" width="27.680000000000007" height="25.21">
            <path 
                d="m 233.59477,54.522652 0.99,1.73 0,3.03 0.69,1.1 2.52,0.5 2.24,-0.69 0,0 0.16,2.7 -0.45,2.95 -0.67,1.9 -1.4,1.05 -3.72,0.8 -1.17,0.94 -0.68,1.38 -0.58,2.6 -1.14,2.28 -1.81,2.25 -1.48,0.68 -3.11,0.01 -2.63,-0.11 -3.98,-0.77 0,0 1.16,-1.38 0.23,-1.42 -0.33,-0.43 -1.94,-0.62 -1.58,-0.89 -0.34,-1.1 0.47,-1.98 1.52,-0.87 0.42,-0.91 -1.44,-2.15 -0.83,-0.18 -1.68,0.35 -0.48,-0.36 -0.04,-0.63 0.35,-0.93 1.1,-1.18 2.63,-0.47 1.65,-1.61 1.26,-0.72 0,-0.92 0.92,-0.4 0.17,-0.66 0.96,-0.87 -0.69,-0.04 -0.1,-0.91 -0.79,-0.44 0,0 3.81,-0.23 1.66,-0.62 4.42,-0.53 z" 
                fill="rgb(151, 144, 238)" 
                stroke="white" 
                stroke-width=".7px"
                title="Düzce" 
                id="TR-81" 
            />
        </svg>