<svg xmlns="http://www.w3.org/2000/svg" viewBox="522.5747700000001 111.25265 101.02999999999997 56.58" width="101.02999999999997" height="56.58">
            <path 
                d="m 541.60477,111.25265 8.46,1.19 0.97,-0.26 0,0 3.11,2.49 6.95,1.81 0.06,0.71 -0.46,1.14 0.29,0.48 2.93,0.26 6.57,3.16 3.05,-0.63 2.68,0.62 2.82,-0.81 4.26,-2.07 2.03,-1.68 0,0 3.22,-3.16 1.58,-1.04 1.49,-0.57 1.92,-0.07 5.74,0.73 5.49,0.13 2.19,-0.24 0,0 -1.96,1.07 -1.21,1.65 -0.38,3.3 2.2,-0.37 2.6,0.36 1.38,-0.23 0.98,1.17 3.92,1.14 1.63,1.01 0.63,1.3 0.13,1.41 -1.52,2.48 0.13,1.45 1.07,1.05 2.1,1.03 2.43,0.61 0.56,0.44 0.46,1.14 -1.09,2.59 0,0.74 2.59,2.85 -0.06,0.64 -0.64,0.57 -2.74,0.85 0,0 -1.32,-0.71 -1.58,-0.29 -5.93,0.18 -1.23,0.38 0,0 -1.29,-2 -1.76,-1.05 -4.32,-0.61 -1.61,-0.52 -2.62,1.24 -2.35,0.6 -1.75,-1.17 -1.91,-0.09 -1.74,-0.82 -2.88,-0.34 -1.23,-0.69 -1.8,0.73 -1.19,2.02 -0.44,3.36 -1.67,1.14 -8.8,-1.26 -3.73,1.4 -2.28,0.41 -2.78,-0.22 -3.73,-0.96 -1,0.03 -8.36,3.97 -4.73,3.8 -0.33,1.66 1.09,2.56 -0.07,0.43 -2.2,1.55 -3.14,0.66 -0.49,0.31 -0.3,0.77 0.47,0.7 0.74,0.37 -0.68,1.56 -0.55,0.31 -0.08,0.6 0.05,0.78 0.48,0.47 -0.16,1.56 0.27,2.17 0.27,0.38 0,0 -0.26,0.47 -0.98,0.3 -0.81,-0.2 -0.71,-0.68 0,0 -0.8,-1.11 -1.42,-0.67 -1.66,-2.21 -3.23,0.11 -2.61,-1.64 -2,1.5 -1.04,0.22 -1.58,-0.87 -0.92,-1.12 0,0 0.25,-0.89 2.47,-3.62 0.31,-1.43 -0.64,-1.8 -2.36,-2.89 -0.08,-0.57 1.02,-0.7 1.77,0 0.44,-0.69 0.13,-1.1 -0.35,-0.75 -1.64,-0.27 -0.91,-0.71 -1.32,-3.49 0.25,-1.24 1.31,-1.56 0.32,-1.07 0.03,-1.09 -0.88,-4.02 1.67,-3.61 0.06,-1.73 4,-2.66 0.55,-0.7 -0.24,-0.49 -1.96,-0.85 -0.56,-1.19 -1.38,-0.92 -0.28,-1.14 0.15,-1.12 0.83,-1.07 1.7,-1.12 4.72,0.48 1.39,-1.55 1.82,-1.27 0.75,-0.22 1.19,0.41 0.69,-0.47 1.64,-0.19 0.68,-0.66 z" 
                fill="rgb(151, 144, 238)" 
                stroke="white" 
                stroke-width=".7px"
                title="Erzincan" 
                id="TR-24" 
            />
        </svg>