<svg xmlns="http://www.w3.org/2000/svg" viewBox="603.4047699999995 62.792651999999975 99.99000000000012 97.25999799999994" width="99.99000000000012" height="97.25999799999994">
            <path 
                d="m 640.54477,70.662652 0.85,0.88 2.24,0.37 1.13,1.08 3.22,0.96 2.35,2.51 0.03,0.82 -1.6,0.93 0.06,3.69 0.63,2.21 1.57,0.3 1.03,-0.26 4.28,-3.63 3.27,-1.57 2.44,-0.66 1.79,-0.98 0.53,0.02 0.3,0.33 0.07,2.11 0.34,0.96 0.5,0.23 1.18,-0.3 0.76,-0.96 0.88,-0.52 0.06,-2.01 0.37,-1.04 2.02,-1.63 0.61,-0.94 0.12,-1.36 -0.85,-2.62 0.22,-1.54 1.42,-1.63 1.86,-1.29 1.04,-1.37 1,-0.75 1.14,-0.21 3.74,0.83 4.31,-0.31 0.93,0.58 1.06,1.79 0.91,0.76 0.47,0.03 0,0 0.71,0.95 0.35,2.33 1.8,2.37 1.46,0.8 2.89,0.03 2.71,0.81 0.62,0.51 0.79,2.73 1.11,2.02 0.88,0.39 0.86,0 0,0 0.39,0.53 -0.24,0.86 -2.16,1.38 -2.08,2.02 -2.27,3.36 -1.13,3.97 0.2,0.88 0.87,1.26 -0.9,1.52 -1.73,0.88 -1.63,0.1 -2.24,-0.49 -3.12,1.05 -4.19,0.66 -1.23,0.78 -0.94,1.7 0.01,1.069998 0.3,0.4 2.22,1.74 0.66,1.07 2.18,1.13 0.53,1.35 2.84,0.28 2.86,2.24 0.57,0.69 0.1,1.88 0.48,0.91 4.79,2.17 0.56,1.04 0.13,1.23 -0.38,0.74 -1.67,1.55 0.07,0.88 0,0 -2.52,0.6 -2.82,1.41 -3.37,0.91 -0.78,0.48 -0.41,0.75 0.11,0.82 1.8,3.52 3.41,1.56 1.93,1.22 2.39,2 0.55,1.07 -0.06,0.72 -0.61,0.77 -3.39,2.67 -1.52,2.83 0,0 -0.4,0.6 -1.64,1.01 -2.68,2.52 -1.96,0.93 0.12,1.68 -1.36,1.54 0.58,0.84 -0.32,0.63 -1.67,0.88 -3.26,0.31 -0.1,2.22 -4.1,2.82 -2.73,0.93 -2.18,0.12 -2.64,0.97 -2.5,-0.22 -3.38,0.7 -1.19,-0.29 -0.41,-0.63 -0.03,-2.94 -0.52,-1.31 -6.92,-4.83 -2.11,-0.61 -5.86,0.37 -2.49,-0.95 0,0 -2.03,-1.37 -2.99,-3.38 -4.75,0.23 -8.57,1.34 -2.68,-0.51 -1,-0.4 -0.52,-0.95 0.29,-1.45 0.6,-0.68 0,0 2.74,-0.85 0.64,-0.57 0.06,-0.64 -2.59,-2.85 0,-0.74 1.09,-2.59 -0.46,-1.14 -0.56,-0.44 -2.43,-0.61 -2.1,-1.03 -1.07,-1.05 -0.13,-1.45 1.52,-2.48 -0.13,-1.41 -0.63,-1.3 -1.63,-1.01 -3.92,-1.14 -0.98,-1.17 -1.38,0.23 -2.6,-0.36 -2.2,0.37 0.38,-3.3 1.21,-1.65 1.96,-1.07 0,0 4.63,0.5 0.81,-0.24 7.74,-4.62 0.91,-0.87 0.95,-1.76 0.17,-1.53 -0.31,-0.89 -3.83,-0.56 -2.61,0.51 -1.07,-0.65 -0.46,-0.9 0.59,-2.479998 1.23,-1.8 0.89,-3.77 -0.05,-1 -0.57,-0.88 -0.19,-0.95 1.51,-4.23 0.07,-1.48 0,0 3.92,-2.07 4.13,-1.51 2.75,-1.45 7.67,-7.23 z" 
                fill="rgb(151, 144, 238)" 
                stroke="white" 
                stroke-width=".7px"
                title="Erzurum" 
                id="TR-25" 
            />
        </svg>