<svg xmlns="http://www.w3.org/2000/svg" viewBox="180.16476999999995 106.36264999999986 84.82000000000002 59.660000000000025" width="84.82000000000002" height="59.660000000000025">
            <path 
                d="m 213.87477,107.17265 0.68,2.11 -0.22,1.04 0.58,0.58 -0.2,0.35 0.21,0.66 1.28,0.82 0.43,-0.25 0.58,0.77 1.15,0.47 0.59,-0.25 2.58,0.35 0.02,-0.62 0.39,-0.37 1.05,-0.41 0.94,0.2 0.67,-0.46 0.35,0.29 0.71,-1.05 0.39,0.36 0.98,-0.01 0.58,0.77 1.34,0.22 0.91,-0.57 2.14,-0.3 1.88,0.25 1.1,0.64 2.13,-0.89 1.49,0.93 -0.57,0.38 -0.3,-0.15 -0.77,0.3 0.57,1.03 0.49,-0.34 0.89,0.13 0.77,-0.42 0.39,-0.82 1.73,1.27 1.41,-0.96 3.49,0.77 1.96,-1.59 -0.39,2.27 0.51,0.21 1.03,-0.74 0.48,0.08 -0.66,1.89 0.46,0.74 0.7,0.27 0.57,-0.22 0.12,1.93 1.11,1.13 0.19,0.74 1.41,1.22 2.22,-0.34 0.07,0.39 0.49,0.21 -1.12,0.8 0.25,0.39 0.6,-0.26 0.22,0.22 -0.05,-0.32 0.44,-0.14 0.08,0.29 0.72,-0.11 -1.23,1.08 -1.63,3.78 -0.01,0.82 2.65,3.7 1.39,5.58 0.99,1.69 0.89,0.26 -0.38,1.39 0.55,0.46 0.79,-0.19 0.34,0.33 -0.7,1.03 0.45,1.73 -0.32,0.19 0.19,0.3 -0.29,0.16 0,0.66 0.93,0.92 0.12,0.59 -0.66,0.18 -0.1,1.32 2.77,1.15 0.13,1.08 -0.56,1.15 -1.67,0.85 -2.53,3.65 -1.44,1.14 -0.34,2.51 0,0 -0.77,0.87 -1.42,-0.23 -1.12,0.39 -0.66,1.67 -1.11,1 -1.73,0.34 -2.19,-0.03 -2.61,0.79 -1.11,-0.08 0,0 -0.66,-0.38 -1.11,-2.33 -0.99,-0.51 -1.57,0 -0.94,-0.47 -0.32,-2.41 -0.29,-0.45 -2.93,-2.13 -1.56,-2.05 -0.58,0.01 -1.35,0.9 -1.64,0.1 -3.86,-2.67 -0.56,0.08 -0.84,0.84 -0.96,1.69 -0.23,1.42 -1.52,0.07 -0.44,0.27 -0.56,1.6 -3.21,-1.36 -1.71,-0.1 -0.75,0.29 -0.18,0.59 0.41,0.57 3.01,2.01 -0.15,0.91 -0.82,1.1 -0.96,0.16 -2.78,-0.69 -4.38,-0.35 -0.89,0.71 -0.23,2.93 -0.6,0.39 -0.53,-0.2 -1.28,-1.8 -1.41,-1.27 -2.86,-1.36 -0.45,-1.95 -1.6,-2.98 -1.72,-0.8 -1.51,0.21 0,0 -1.09,0.3 -1.37,-0.67 -0.3,-0.95 0.31,-1.21 -0.25,-0.77 -0.28,-0.4 -1.07,-0.44 -0.74,-0.86 0.05,-1.15 0.87,-0.88 -0.74,-3.64 0.18,-0.69 0.95,-1.18 -0.37,-3.16 -0.52,-1.19 -1.45,-1.34 -3.13,-1.1 -1.21,-1.35 -0.13,-0.53 -1.51,-0.79 -0.06,-0.77 1.21,-0.45 0.12,-0.33 -0.65,-0.8 -1.71,-0.07 -2.76,1.1 -2.4,-0.58 0,0 1.16,-3.85 1.45,-2.15 1.91,-2.02 0.96,-0.72 3.46,0.04 2.06,-0.5 1.2,-1.48 0.61,-2.36 1.04,-1.04 1.4,-0.72 0.86,-1.76 2.15,-1.09 0.74,-1.37 2.84,-1.87 1.89,-2.31 3.32,-1.21 0,0 2.56,-0.97 2.1,-0.23 0.99,0.12 z" 
                fill="rgb(151, 144, 238)" 
                stroke="white" 
                stroke-width=".7px"
                title="Eskişehir" 
                id="TR-26" 
            />
        </svg>