<svg xmlns="http://www.w3.org/2000/svg" viewBox="446.65476999999987 245.47265 67.24000000000012 43.160000000000025" width="67.24000000000012" height="43.160000000000025">
            <path 
                d="m 492.86477,245.98265 1.09,0.75 0.7,0.09 2.34,-1.08 1.99,-0.27 1.69,1.85 0.93,0.28 2.85,-0.37 3.81,0.35 3.9,1.29 1.73,1.1 0,0 -0.86,1.05 -1.11,-0.72 -1.21,0.38 -0.87,-0.28 -0.57,0.25 -0.34,0.93 -1.1,0.91 -0.23,0.73 -2.44,2.21 -0.04,0.41 0.57,0.54 -1.08,0.49 -0.87,2.74 0.31,0.6 0.78,0.46 0.64,1.18 -0.03,0.33 -0.36,0.11 -0.71,-0.71 -0.55,0 -0.29,1.02 0.37,1.36 1.45,2.08 -0.64,3.66 2.19,1.42 1.83,-0.86 0.74,0.26 -0.67,2.47 0.19,1.02 0.34,0.75 1.28,0.46 -0.09,1.93 1.11,1.98 0.63,0.32 -1,1.35 0.23,1.1 0,0 -0.43,0.36 -0.95,-0.3 -2.15,0.62 -1.68,1.4 -4.2,1.45 -0.66,0.73 -3.45,-0.41 -0.79,0.68 -0.93,-0.26 -1.82,1.38 -2.25,1.08 0,0 -1.52,-3.18 -1.95,-0.86 -3.89,0.43 -1.49,-0.65 -0.87,-3.82 -1.1,-1.13 -1.95,-0.64 -3.06,-0.24 -2.4,-0.98 -0.81,-1.83 -0.44,-2.34 -1.91,-0.44 -1.55,0.43 -1.1,1.74 -1.5,1.5 -1.3,0.86 -0.85,0.21 -0.71,-0.18 -1.2,1 -1.36,2.46 -0.88,2.67 0,0 -1.44,-0.97 -3.85,-0.77 0,0 -1.58,-1.66 -0.71,-1.77 -3.1,-0.66 -1.41,-0.72 -1.08,-1.4 -0.52,-1.75 0,0 4.28,-4.25 1.51,-2.87 1.27,-1.71 2.17,-2.13 0,0 0.92,-0.34 1.6,-0.03 0.64,-1.67 2.39,-0.87 1.8,-1.61 0.75,-1.79 1.09,-0.4 2.72,1.27 0.89,1.62 2.2,1.85 1.56,0.57 1.35,-0.28 2.35,-3.67 2.35,-2.4 2.25,-0.54 2,0.23 5.66,-0.77 0.25,-0.63 -0.49,-1.65 0.72,-0.32 1.24,0.44 0.47,-0.34 1.09,-2.06 0.43,-2.67 z" 
                fill="rgb(151, 144, 238)" 
                stroke="white" 
                stroke-width=".7px"
                title="Gaziantep" 
                id="TR-27" 
            />
        </svg>