<svg xmlns="http://www.w3.org/2000/svg" viewBox="508.73476999999997 56.752652000000026 50.829999999999984 55.68999799999999" width="50.829999999999984" height="55.68999799999999">
            <path 
                d="m 559.05477,57.032652 -0.19,4.78 0.46,0.31 0.24,2.01 -0.63,2.73 0.3,1.58 -0.57,2.13 0.48,1.48 -0.35,1.48 0.2,0.86 0,0 -5.09,2.1 -1.41,0.15 -1.95,-0.49 -4.29,2.49 -1.16,1.31 -1.19,2.17 -0.54,1.74 -2.03,2.85 0.08,0.42 0.58,0.39 8.71,3.36 0.88,0.76 0.78,1.28 0.18,0.99 -0.22,2.8 -0.61,2.79 -1.84,2.629998 -1.36,-0.47 -0.71,0.22 -0.39,0.59 0.51,3.96 1.84,2.01 1.19,1.85 0.38,1.04 -0.3,0.85 0,0 -0.97,0.26 -8.46,-1.19 0,0 -2.04,0.08 -1.99,-0.58 -1.77,0.16 -2.75,-1.29 -0.55,-0.45 -0.16,-2.45 -0.61,-0.88 -0.48,0.05 -2.09,1.75 -0.67,-0.24 -0.27,-0.76 -0.82,0.25 -0.07,0.33 -0.41,-0.16 -0.37,0.45 -0.92,-0.23 -1.4,-1.09 -0.58,-0.01 -0.34,-0.84 -3.37,-0.46 -0.87,-0.36 -0.73,-0.69 -0.4,-1.72 -1.13,-1.55 0.1,-2.679998 -0.31,-3.84 0.98,-2.91 -0.1,-1.02 -0.84,-0.58 -2.84,-0.72 -0.86,-0.63 0,0 0.27,-3.66 -1.31,-1.26 -0.14,-1.13 0.05,-0.53 0.74,-0.53 0.15,-0.73 -2.39,-1.38 -0.31,-1.4 -0.81,-0.77 -0.01,-1.24 -0.45,-0.56 0.73,-0.04 0,-0.36 0.34,-0.02 0.02,-0.32 1.08,-1.02 0.07,-0.66 -0.67,-1.72 3.04,-4.43 1.01,-3.29 0,0 3.87,1.32 3.77,-0.33 1.69,1.3 1.39,0.65 0.47,-0.01 0.94,-0.81 0.49,0.52 0.74,-0.06 0.33,0.27 1.81,-0.41 0.26,0.2 2.21,-0.16 1.6,-0.97 2.28,-2.06 0.95,0.17 0.45,0.68 1.12,0.57 1.2,-0.21 4.04,-3.19 0.51,0.24 0.94,-0.39 0.97,0.02 2.55,-1.76 0.45,0.31 2.19,-0.02 0.93,0.33 3.83,-0.99 2.2,-1.59 z" 
                fill="rgb(151, 144, 238)" 
                stroke="white" 
                stroke-width=".7px"
                title="Giresun" 
                id="TR-28" 
            />
        </svg>