<svg xmlns="http://www.w3.org/2000/svg" viewBox="541.3347700000004 74.392652 63.00999999999988 47.839997999999966" width="63.00999999999988" height="47.839997999999966">
            <path 
                d="m 558.99477,74.392652 0.99,0.14 0.83,0.97 0.76,0.34 2.01,0.02 1.69,0.85 2.28,0.46 1.16,0.83 1.17,1.76 1.58,0.32 0.53,1.95 0.86,0.24 1.83,-0.43 1.2,1.49 1.34,0.81 4.32,-0.18 1.47,-1.18 0.68,-1.18 0.44,-3.96 0.59,-0.36 0.93,0.29 0.73,-0.13 0.43,0.23 0.16,1.39 -0.93,2.78 0.11,0.46 1.29,0.16 1.56,1.01 1.68,0.63 0.53,1.55 0.41,0.34 0.72,0.07 0.78,-0.79 1.37,0.03 0.36,-0.74 -0.56,-1.11 -2.83,-1.28 -0.23,-0.76 0.22,-0.67 3.02,-0.44 2.19,1.58 -0.56,1.13 0.09,0.81 1.07,0.4 1.11,1.23 2.44,-0.59 0.92,1.12 1.82,0.81 0.79,1.12 0,0 -2.65,0.91 -2.29,-0.19 -7.79,0.98 -1.11,0.25 -0.54,0.5 -0.77,1.6 -0.46,1.93 0.22,7.069998 -1.69,2.69 -1.26,4.42 -4.45,5.7 0.16,0.92 2.15,1.4 1.46,1.57 0,0 -2.03,1.68 -4.26,2.07 -2.82,0.81 -2.68,-0.62 -3.05,0.63 -6.57,-3.16 -2.93,-0.26 -0.29,-0.48 0.46,-1.14 -0.06,-0.71 -6.95,-1.81 -3.11,-2.49 0,0 0.3,-0.85 -0.38,-1.04 -1.19,-1.85 -1.84,-2.01 -0.51,-3.96 0.39,-0.59 0.71,-0.22 1.36,0.47 1.84,-2.629998 0.61,-2.79 0.22,-2.8 -0.18,-0.99 -0.78,-1.28 -0.88,-0.76 -8.71,-3.36 -0.58,-0.39 -0.08,-0.42 2.03,-2.85 0.54,-1.74 1.19,-2.17 1.16,-1.31 4.29,-2.49 1.95,0.49 1.41,-0.15 z" 
                fill="rgb(151, 144, 238)" 
                stroke="white" 
                stroke-width=".7px"
                title="Gümüşhane" 
                id="TR-29" 
            />
        </svg>