<svg xmlns="http://www.w3.org/2000/svg" viewBox="729.3647699999999 231.12265000000005 62.899999999999864 43.81000000000003" width="62.899999999999864" height="43.81000000000003">
            <path 
                d="m 736.59477,233.01265 1.85,0.61 1.55,0 1.3,0.43 1.42,-0.44 1.89,0.01 2.47,-1.29 1.84,-0.47 5.77,0.55 2.79,-1.07 2.37,-0.22 1.78,0.64 0.99,0.75 0.68,1.88 0.58,0.66 2.82,-0.02 2.74,0.54 0.62,-0.22 1.36,-1.28 3.76,0.28 1.91,-1.01 0,0 0.95,0.29 0.3,-0.35 1.92,-0.61 1.1,0.2 1.49,0.83 1.27,1.82 0.35,1.41 -2.12,1.81 -0.33,1.24 1.91,2.13 -0.19,0.73 -0.46,0.21 0.69,1.05 -0.47,2.6 -0.76,0.26 0.11,2.56 -0.31,0.58 0.28,0.38 1.32,0.13 0.67,0.45 0.3,0.91 0.61,0.52 -0.02,0.77 2.65,0.52 0.15,1.05 0.53,0.82 1.28,0.54 1.36,1.16 0.6,1.33 -0.09,0.51 -0.78,0.89 -0.77,0.17 -0.74,1.17 0.3,2.24 0.7,0.77 0.07,1.36 -0.58,-0.59 0.02,-0.47 -0.53,-0.25 -0.16,0.18 -1.6,-0.39 -0.69,0.18 -0.33,-0.41 -0.71,0.43 -1.04,-1.05 -0.51,-0.11 -1.57,1.26 -0.8,0.22 -1.24,1.42 -0.08,0.66 -0.92,0.45 -0.63,0.83 -1.65,1.24 -0.94,0.14 -1.3,0.92 -1.39,-0.19 -1.45,0.73 0.75,1.03 -1.49,1.22 -0.43,1.69 -0.69,-0.4 -1.08,-0.1 -1.04,-1.08 -1.12,-1.83 0.41,-0.44 -0.29,-0.77 -1.25,-1.01 -0.52,-1.04 0.01,-0.5 1.66,-2.76 1.02,0.12 1.05,-0.47 0.37,-1.15 -0.7,-0.65 0.23,-0.56 -0.17,-1.77 -0.78,-0.48 -0.85,-1.41 -0.67,0.1 -1.14,-0.89 -1.34,-0.2 -1.09,-1.11 -1.83,0.49 -1.67,-0.7 -0.64,0.54 -0.26,-0.65 -1.05,1.59 -1.53,0.31 0.05,1.06 -0.52,0.18 -0.05,0.98 -1.14,1.29 -2.76,0.12 -0.4,0.36 -0.07,0.83 -0.3,0.3 -1.05,-1.8 -1.25,0.08 -1.16,-0.44 -1.8,0.22 -0.49,-0.22 -1.82,0.51 -0.22,0.32 -0.91,-0.16 -0.4,-0.89 -0.64,0.28 -0.46,-0.26 -0.72,-1.04 -2.39,0.81 -1.45,-0.54 0.03,-0.44 -0.64,-0.45 -1.89,-0.62 -1.03,-1.03 -0.79,-0.36 -0.29,-0.85 -0.63,-0.1 0,0 -0.25,-7.62 -0.41,-1.83 -1.27,-1.12 -0.24,-0.81 1.41,-2.31 4.52,-4.34 1.11,-3.01 z" 
                fill="rgb(151, 144, 238)" 
                stroke="white" 
                stroke-width=".7px"
                title="Hakkari" 
                id="TR-30" 
            />
        </svg>