<svg xmlns="http://www.w3.org/2000/svg" viewBox="418.5347699999997 270.61265000000003 37.8900000000001 63.57999999999987" width="37.8900000000001" height="63.57999999999987">
            <path 
                d="m 429.90477,271.39265 2.38,-0.78 1.5,0 6.69,3.09 3.09,-0.47 3.09,0.71 0,0 0.52,1.75 1.08,1.4 1.41,0.72 3.1,0.66 0.71,1.77 1.58,1.66 0,0 0.37,1.59 -1.16,0.67 -0.1,0.89 -1.22,1.31 0.7,1.47 -0.08,0.47 -0.6,1.35 -1.55,1.24 0.15,2.19 0.49,1.48 -0.62,2.75 -1.1,1.31 -0.22,1.11 0.67,1.09 -0.2,0.88 0.43,0.37 0,0.87 0.48,0.36 0.41,1.13 0.75,-0.1 -0.23,1.14 0.77,0.7 -0.77,0.51 0.27,1.14 0.29,-0.68 0.83,-0.21 1.05,0.28 0.28,0.52 -0.34,1.49 1.6,0.19 -0.63,1.09 0.65,0.87 0,0.49 -1.31,0.88 -1.64,-0.49 0.05,0.93 -0.25,0.25 -2.14,-1.01 -0.69,0.51 -0.68,-0.87 -1.3,0.05 -0.12,0.89 -0.63,-0.37 0.07,0.62 -0.81,1.08 -1.71,-0.48 -1.12,-0.83 -0.72,0.34 0.68,1.26 -1.01,0.7 -0.29,0.62 0.79,1.03 -0.27,1.29 -0.34,0.22 0.65,0.7 0.04,0.35 -0.31,-0.27 -0.16,0.25 0.6,0.74 -0.53,0.49 -0.08,3.24 -1.6,1.02 -1.22,-0.96 -0.65,-0.16 -0.3,1.12 0.57,1.41 -0.36,0.45 -0.6,0.14 -0.98,-0.63 -2.28,0.78 -0.87,1.43 -0.22,1.9 0.23,0.98 -0.48,2.28 -0.46,0.45 -0.41,-0.48 -0.29,-1.21 -0.89,-1.04 -4.73,-0.99 0.71,-2.01 -0.49,-0.87 -1.2,-0.01 -1.71,0.87 -0.8,-0.32 0.27,-1.48 2.22,-2.43 0.14,-0.47 -3.42,-7.3 -4.37,-6.28 -0.43,-0.99 -0.04,-1.18 1.07,-0.89 0.5,-1.05 1.48,-0.55 0.28,-1.32 0.76,-0.99 0.66,-0.06 0.51,-1.38 2.86,-1.43 2.58,-3.21 2.12,-1.05 2.43,-1.79 1.75,-0.28 0.3,-1.73 0.58,-0.7 -0.02,-1.52 -0.77,-1.68 0.36,-1.13 -0.49,-0.93 0.66,-1.12 -0.12,-1.06 -1.96,-3.16 -1.67,-1.87 -2.36,-1.59 -2.12,-0.9 0,0 -0.43,-1.39 0.18,-1.19 0.85,-1.44 z" 
                fill="rgb(151, 144, 238)" 
                stroke="white" 
                stroke-width=".7px"
                title="Hatay" 
                id="TR-31" 
            />
        </svg>