<svg xmlns="http://www.w3.org/2000/svg" viewBox="184.37477 194.61265 61.140000000000015 59.26999999999998" width="61.140000000000015" height="59.26999999999998">
            <path 
                d="m 184.37477,231.96265 0.2,-1.26 1.95,-3.07 -0.2,-3.53 1.39,-1.45 0.67,-1.33 1.07,-1.2 1.46,-0.92 1.69,-0.35 0.87,-0.58 1.8,-2.18 1.36,-1.1 0.88,-1.84 2.79,-2.43 1.28,-0.7 1.85,0.07 1.29,-0.74 1.03,0.01 2.76,-2.33 3.17,-1.42 0.91,-1.03 2.18,-4.31 1.37,-0.97 2.33,-0.7 3.11,-3.03 3.88,-0.96 1.69,0.08 0.8,0.39 1.74,1.61 1.87,2.96 1.29,-0.21 0,0 0.9,3.07 2.59,3.3 1.58,1.65 3.6,2.69 2.12,0.5 0.86,0.57 0.56,0.62 0.45,2.2 -0.06,3.41 -0.24,0.68 -1.17,1.4 -1.84,0.82 -0.51,2.68 -2.28,1.19 -0.94,1.25 -0.38,3.14 0.32,1.29 0.47,0.45 -0.21,0.76 0.84,0.8 0.46,1.23 -0.03,1.93 -0.26,0.78 -3.33,1.19 -1.05,1.67 -0.01,1.92 1.03,2.68 0.1,1.16 -1.3,5.21 0,0 -1.43,-0.25 -6.76,1.34 -1.48,1 -0.39,0.72 -1.51,0.33 -0.73,1.06 -1.54,-0.66 -2.04,-2.33 -1.21,-0.25 -1.43,0.2 0,0 -1.54,-0.38 -0.08,-1.97 -0.42,-1.35 -3.25,-3.35 0.1,-1.81 -0.47,-1.28 0.15,-1.18 -0.53,-0.9 -1.6,-1.34 -3.87,-1.62 -1.39,-0.07 -2.23,0.59 -2.38,-0.21 -1.22,-0.46 -0.68,-1.35 0.86,-2.74 -0.42,-0.87 -0.86,-0.8 -0.35,-0.16 -1.59,0.3 -5.52,2.59 -2.52,-0.03 z" 
                fill="rgb(151, 144, 238)" 
                stroke="white" 
                stroke-width=".7px"
                title="Isparta" 
                id="TR-32" 
            />
        </svg>