<svg xmlns="http://www.w3.org/2000/svg" viewBox="727.97477 108.08265000000003 64.31000000000029 27.189999999999998" width="64.31000000000029" height="27.189999999999998">
            <path 
                d="m 744.09477,108.49265 0.29,0.79 0.71,0.28 0.02,0.45 0.69,0.08 0.83,0.81 2.23,-0.15 0.92,0.77 1.36,0.53 0.1,0.66 1.29,0.24 2.05,1.05 2.25,0.09 1.39,-0.52 0.83,0.44 4.15,-0.63 3.07,0.22 0.05,-0.41 3.49,-0.54 3.38,1.51 0.94,0.92 1.61,0.17 0.54,0.68 2.08,1.17 1.38,1.94 1.47,1.35 -0.01,0.99 1.75,1.52 0.13,0.81 -0.29,0.5 0.23,0.51 0.93,-0.21 0.18,0.28 -0.37,0.45 0.65,0.06 1.71,1.13 0.69,-0.21 0.37,0.22 -0.33,1.08 0.97,0.11 0.58,1.55 0.49,-0.26 0.35,0.16 0.14,1.42 0.84,0.17 -0.14,0.54 0.58,0.08 0.98,0.96 -0.17,0.49 0.31,0.13 -0.29,0.72 0.79,0.35 -0.47,1.33 -0.36,-1.09 -3.51,-3.42 -1.98,-0.23 -1.21,-1.56 -0.91,-2.01 -5.63,4.89 -0.26,0.54 0,0 -3.83,0.47 -2.3,-0.57 -3.08,-1.76 -3.76,0.46 -4.26,-1.34 -6.34,0 -3.6,-2.71 -2.46,-0.04 -4.69,-0.63 -0.96,-0.54 -1.51,-1.76 -0.9,-0.33 -1.71,0.45 -1.64,2.58 -1.67,0.34 -0.74,-0.12 -0.47,-0.77 0.37,-3.72 -0.44,-2.53 -2.03,-2.77 -0.85,-0.64 -3.11,-0.83 0,0 1.53,-3.45 1.85,-2.79 0.88,-0.68 2.54,-0.03 2,0.87 1.91,-0.76 1.43,0.2 1.79,-0.23 1.64,-0.68 0.53,0.35 0,0 z" 
                fill="rgb(151, 144, 238)" 
                stroke="white" 
                stroke-width=".7px"
                title="Iğdir" 
                id="TR-76" 
            />
        </svg>