<svg xmlns="http://www.w3.org/2000/svg" viewBox="95.81477400000001 29.272652 81.189996 42.45999999999997" width="81.189996" height="42.45999999999997">
            <path 
                d="m 149.44477,48.532652 3.2,0.92 1.84,0.01 4.59,1.51 3.54,0.77 0.97,-0.56 2.65,1.01 2.2,0.37 1.86,-0.2 2.69,1.06 1.31,-0.21 2.62,0.15 0,0 0.09,2.6 -1.14,1.43 -1.23,2.51 -1.63,0.55 -2.67,-1.1 -1.51,0.17 -0.87,0.94 -0.83,2.63 -0.65,0.25 -3.88,-1 -2.18,0.15 -0.96,0.44 -0.92,0.81 -1.05,2.5 -2.09,1.32 -0.72,1.21 -0.51,0.02 -0.92,1.93 -0.54,-0.02 -0.26,0.99 0,0 -1.03,-0.72 -0.45,0.36 -0.5,-0.2 -1.28,0.28 -0.12,0.32 -0.21,-0.15 -0.14,-0.36 1,-0.54 -0.59,-0.87 0.62,0.33 0.51,-0.51 -0.17,-0.57 -1.14,-0.04 0.15,-0.28 -0.32,-0.53 -0.69,-0.34 -0.44,0.3 -3.45,-1.69 -1.44,-2.14 -2.56,-1.59 -0.27,0.27 -0.34,-0.99 -0.49,0.26 -0.64,-2.35 1.87,-1.48 0.13,-1.35 0.47,-0.55 0.04,-1.08 1.15,-0.78 -0.19,-0.95 -0.76,-0.46 0.26,-0.5 -0.14,-0.7 0.51,-0.31 0.06,-0.45 1.03,-0.29 0.31,-0.93 1.9,-1.28 1.29,0.2 0.82,-0.27 -0.08,-0.3 1.65,-0.19 0.67,0.26 z m -45.33,-18.77 0.41,0.23 -0.2,0.2 0.2,0.53 1.45,1.34 -0.01,0.28 0.45,0.07 1.66,1.46 9.24,4.99 2.86,1.24 2.37,1.47 1.99,0.67 0.65,-0.22 0.08,0.33 4.11,2.1 6.84,2.59 2.99,0.6 0.46,-0.03 0.21,-0.59 0.91,0.07 0.49,0.38 0.25,-0.22 1.37,0.79 0.14,0.26 -0.37,0.77 0.21,0.44 -0.78,0.66 -0.8,1.34 -1.45,1.03 1.39,1.77 -0.81,1.51 0.1,0.79 -0.52,0.26 0.1,0.55 -0.57,0.98 -1.48,0.67 -0.35,0.51 -0.11,1.22 -2.03,0.27 -0.5,0.69 -0.52,0.02 -0.45,0.47 -2.1,0.29 -0.73,0.96 -0.96,-0.08 -1.94,-1.22 -0.9,0.48 -1.71,-0.1 -1.27,0.57 -1.96,0.13 -1.03,-0.66 0.22,-1.95 -0.54,-0.47 -0.93,-0.04 -0.78,1.01 -0.22,0.79 -3.11,-2.17 -1.98,-0.95 -3.02,-0.89 -3.58,-0.26 -1.09,-0.84 -0.51,0 -0.44,0.38 -1.75,-0.14 -1.52,0.37 -0.39,0.35 -1.959996,0.2 -3.11,1.77 0,0 -0.9,-1.97 0.26,-0.63 -0.33,-0.4 0.14,-1.13 0.27,-0.21 -0.18,-0.5 1.74,-3.51 -0.2,-1.28 0.19,-1.16 2.389996,-4.07 0.74,-3.31 0.89,-6.77 1.53,-5.57 0,0 0.79,0.49 z" 
                fill="rgb(151, 144, 238)" 
                stroke="white" 
                stroke-width=".7px"
                title="İstanbul" 
                id="TR-34" 
            />
        </svg>