<svg xmlns="http://www.w3.org/2000/svg" viewBox="23.61477400000007 148.61265 94.41999599999994 81.99999999999997" width="94.41999599999994" height="81.99999999999997">
            <path 
                d="m 43.194774,192.82265 0.43,-0.04 0.71,0.74 0.01,1.61 0.73,0.88 -0.28,1.15 -0.74,-0.1 0.12,-0.64 -1.32,-0.36 0.34,-3.24 z m 28.73,-44.21 0.77,4.68 0.91,1.31 0.76,0.12 0.56,0.82 -0.6,4.13 0.71,2.81 0.99,1.26 1.3,2.84 0.03,1.2 -0.59,3.21 -0.27,0.56 -1.29,0.99 -2.7,0.67 -1.87,1.25 -2.06,-0.59 -0.74,0.92 -1.97,0.07 -2.04,1.12 -0.52,0.66 0.34,1.32 -2,2.14 -0.19,1.05 0.61,1.38 0.9,0.17 0.57,0.44 1.9,3.41 0.24,5.04 1.94,1.36 2.86,-0.59 1.55,0.25 1.85,0.98 1.11,2.37 2.9,-0.35 0.45,0.23 1.04,2.12 1.64,-0.26 1.55,1.51 1.84,-0.03 0.94,0.37 1.02,2.97 1.01,1.05 1.23,0.46 1.46,-0.38 0.8,1.34 0.67,-0.18 0.46,-1.38 -0.03,-0.98 -0.57,-1.61 0.15,-0.46 1.9,-0.41 1.43,1.19 1.78,-0.74 2.26,-0.22 1.979996,1.47 2.06,0.37 1.09,1.56 1.77,0.61 1.95,0.04 1.58,0.94 1.36,1.69 1.92,0.42 3.36,1.36 0.4,0.83 -0.73,0.85 -0.09,1.99 2.47,2.96 0,0 -1.2,2.21 -0.94,-0.25 -1.55,-1.41 -0.94,-0.09 -3.05,0.98 -0.69,1.72 -1.94,1.47 -5.45,0.85 -4.729996,0.09 -4.12,1.36 -2.42,0.39 -2.81,1.27 -2.45,0.6 -0.63,-0.63 -1.27,-0.27 -0.44,-0.58 -1.88,-0.11 -1.09,-1.14 -2.73,0.09 -1.77,0.74 -1.71,1.52 -0.65,1.6 -0.05,2.68 -1.71,1.85 -1.11,0.38 -0.62,-0.33 -0.17,-2.04 -1.08,-0.59 -1.57,-0.02 -0.66,-0.85 0,0 0.12,-0.43 -0.32,-0.08 -0.1,-0.4 0.64,-0.61 -0.08,-0.8 -0.78,-1.68 -0.55,-0.45 -1.24,-0.54 -1.65,0.41 -1.66,-0.29 -1.36,-1.43 -1.23,-0.2 -0.11,-0.77 -0.89,-0.85 -1.25,-0.26 -1.39,-1.08 -1.36,-0.08 -1.78,0.59 -0.96,0.71 -0.48,1.08 -0.27,-0.08 -0.85,-2.32 0.25,-1.34 -0.72,-1.17 0.14,-0.35 -0.69,-0.65 0.17,-0.7 -0.89,-0.71 -0.46,-0.05 -0.27,0.37 -0.79,-0.55 0.28,-1.13 0.43,0.1 0.26,-0.26 -1.33,-1.17 -1.27,0.66 -2.72,-0.04 -1.16,0.53 -0.36,3.21 -0.74,-0.07 0.36,1.51 -0.41,0.41 -0.49,-0.03 -0.45,-0.34 0.09,-0.8 -0.6,-0.92 -0.29,-0.04 0.15,0.9 -0.28,0.48 -1.18,-0.62 -0.8,-1.94 0.16,-0.88 -0.76,0.24 -0.38,-0.24 0.06,-0.65 -1.29,0.19 0.17,-0.59 -0.73,-0.75 -0.93,-0.25 0.33,1.14 -1.65,-1.23 0.02,-0.7 0.49,-0.33 -0.43,-0.87 -0.5,0.13 0.26,0.61 -0.85,0.98 -1.22,0.08 -1.16,-0.75 -0.82,-1.22 -1.16,-0.3 -0.86,0.33 -0.42,-0.36 0.14,-1.26 0.44,0.01 0.3,0.47 0.89,-0.28 0.39,-0.49 -0.04,-1.18 0.92,0.15 -0.75,-1.28 -0.07,-1.28 0.74,0.62 0.91,0.15 -0.34,0.28 0.08,0.83 0.86,0.44 0.25,-0.53 0.07,0.79 1.07,0.58 0.52,-0.34 -0.01,-1.98 0.75,1.04 -0.25,0.5 0.24,-0.04 1.29,-1.19 0.72,-0.11 0.86,-1.28 0.47,-0.22 -0.39,-0.52 -0.08,-1.12 -0.52,-0.11 0.13,-0.42 -0.41,-0.16 -0.04,-0.38 0.75,0.07 0.88,1.37 0.54,-0.25 0.55,-1.2 -0.88,-1.01 -2.49,-1.58 -0.65,0.09 -0.29,0.94 -0.55,0.61 -0.29,-0.07 -0.08,-0.82 0.89,-1.58 -1.25,-1.4 0.01,-0.64 -0.87,-2.01 -0.29,-3.67 0.31,-0.98 1.56,-0.45 0.77,-0.63 1.05,0.35 1.22,-0.07 1.75,1.42 0.34,-0.15 0.26,0.34 -0.27,0.27 1.32,1.99 0.36,-0.03 0.33,2.19 1.84,1.58 0.45,-0.1 0.62,3.34 -0.4,0.25 -0.5,-0.51 -1.31,0.16 0.12,0.52 0.51,0.06 0.09,0.39 -0.21,0.94 -0.65,0.43 0.67,0.48 0.45,-0.29 0.25,0.27 0.57,1.85 0.58,0.49 0.02,1.7 1.24,1.55 0.74,-0.05 0.45,-0.38 -0.9,-2.32 -0.26,-1.6 0.37,-0.39 0.02,-0.75 0.8,-0.8 1.26,0 0.18,0.42 -0.22,0.38 1.27,2.48 1.49,0.61 1.4,-0.8 4.2,-0.69 3.59,-1.56 1.47,-0.02 0.63,0.76 0.53,0.13 1.36,-0.64 0.96,-1.68 1.12,0.02 -0.46,-1.34 -1.05,0.12 -0.88,0.83 -1.39,-0.95 -0.75,0.29 -0.62,-0.2 -1.35,0.17 -1.8,0.71 -0.67,0.59 -1.23,-1.42 -0.57,-1.16 -1,-0.94 -0.26,-0.71 0.23,-0.91 -1.44,-0.44 -0.77,-0.73 0.68,-0.52 0.02,-0.45 -0.34,-0.29 -0.38,0.15 -1.78,-1.9 -1.24,-0.06 -0.15,-0.66 0.63,-0.36 -0.14,-0.27 -0.65,0.3 -0.67,-0.64 0.08,-1.03 0.75,-0.22 -0.85,-0.84 -0.16,-0.69 -0.11,-1.44 0.5,-0.81 0.81,0.12 2.2,-0.67 0.68,-0.51 0.31,1.01 0.82,-0.55 0.89,0.97 0.69,0.02 0.5,-1.7 0.93,0.54 0.4,-0.47 -1.72,-2.41 -0.18,-0.74 0.86,0.39 1.23,-0.98 -0.07,1.16 0.31,0.5 1.03,-0.12 0.38,-0.91 -0.91,-0.47 0.36,-0.75 2.35,-1.25 -0.15,0.84 0.51,0.08 0.41,-0.72 0.53,0.14 0.2,-0.26 -0.19,-1.01 -0.87,-0.33 0.84,-0.98 -0.18,-0.93 -0.38,-0.43 -0.71,0.15 0,0.42 -0.63,0.31 0.29,0.57 -0.3,0.06 -1.05,-0.35 -1.33,-1.12 -1.37,-0.06 -2.22,1.16 -0.46,-0.21 -0.27,-0.67 -1.17,-0.14 -0.3,-0.68 -0.55,-0.11 -0.17,-1.77 0.46,-1.57 -0.37,-0.04 0.02,-0.87 3.43,-1.75 0.21,-0.56 -0.47,-1.23 -1.59,-2.19 -1.17,-0.95 -1.75,-0.36 0,0 2.64,-3.66 1.96,-0.11 1.77,-1.6 3.21,-0.53 3.16,-3.6 1.5,-0.26 2.1,-0.84 3.18,0.94 2.96,-1.03 3.61,-0.61 z" 
                fill="rgb(151, 144, 238)" 
                stroke="white" 
                stroke-width=".7px"
                title="İzmir" 
                id="TR-35" 
            />
        </svg>