<svg xmlns="http://www.w3.org/2000/svg" viewBox="437.0547699999997 190.42264999999998 63.370000000000346 72.55999999999995" width="63.370000000000346" height="72.55999999999995">
            <path 
                d="m 460.44477,192.47265 7.29,-1.83 2.19,-0.22 6.86,1.29 4.41,-0.37 0.71,0.32 0.36,0.55 0,0 -0.28,1.06 -1.72,2.07 -0.21,1.12 0.25,0.8 1.7,1.19 3.51,1.09 0.55,0.91 1.04,-0.39 1.36,0.42 0.96,-0.38 0.78,0.89 3.53,2.5 1.47,0.5 2.23,0.2 0.28,0.57 -0.9,1.77 0.01,2.24 0.4,0.31 2,-0.11 0.95,0.28 0.25,1.39 -0.17,0.93 -2.04,3.21 -0.8,0.96 -3.91,3.18 -0.01,0.42 0.57,0.61 0.07,2.2 1.47,0.93 0,0 -1.46,2.63 -0.67,0.57 -1.54,0.47 -1.07,0.83 0.4,1.23 -0.25,3.35 -1.7,1.46 -0.86,1.21 -0.44,1.65 0.17,1.48 -0.58,0.69 0.03,0.56 -0.79,0.72 0.56,0.89 0.12,1.07 1.09,-0.04 1.34,0.5 1.49,-0.04 0.33,1.71 1.09,1.96 0,0 -0.75,0.94 -0.43,2.67 -1.09,2.06 -0.47,0.34 -1.24,-0.44 -0.72,0.32 0.49,1.65 -0.25,0.63 -5.66,0.77 -2,-0.23 -2.25,0.54 -2.35,2.4 -2.35,3.67 -1.35,0.28 -1.56,-0.57 -2.2,-1.85 -0.89,-1.62 -2.72,-1.27 -1.09,0.4 -0.75,1.79 -1.8,1.61 -2.39,0.87 -0.64,1.67 -1.6,0.03 -0.92,0.34 0,0 0.54,-0.81 -0.11,-1.79 -1.66,-3.27 1.2,-2.63 -0.06,-0.73 -0.3,-0.24 -1.18,0.25 -2.95,-0.39 -2.71,0.05 -3.19,0.73 -0.36,0.33 -0.3,-0.21 -0.48,0.74 -1.15,0.14 -0.84,-0.77 -0.48,0.37 -0.67,-0.41 -1.9,0.58 -0.56,-0.45 -0.19,-2.76 -0.44,-0.01 0.27,-0.84 -0.21,-0.24 0.14,-1.2 -0.43,-0.89 0.08,-0.96 -0.68,-2.13 0.37,-3.79 -0.58,-2.13 0.58,-1.64 0.57,-0.71 0,0 2.89,-2.9 0.98,-2.11 0.19,-1.49 -0.43,-2.09 -1.8,-2.29 -0.26,-1.03 0.8,-1.41 1.76,-1.56 0.24,-1 -0.95,-0.81 -2.09,-0.33 -0.2,-0.53 0.55,-0.8 1.5,-1.21 0.88,-1.49 0.91,-2.23 1.18,-5.33 1,-1.29 0,0 5.52,-2.62 4.09,-1.07 1.99,-1.21 1.15,-3.34 0.44,-3.54 z" 
                fill="rgb(151, 144, 238)" 
                stroke="white" 
                stroke-width=".7px"
                title="Kahramanmaraş" 
                id="TR-46" 
            />
        </svg>