<svg xmlns="http://www.w3.org/2000/svg" viewBox="269.49477000000013 29.292652 38.58999999999986 31.47000000000001" width="38.58999999999986" height="31.47000000000001">
            <path 
                d="m 298.01477,29.292652 -0.03,1.25 1.27,0.91 2.68,-1.33 1.17,0.99 1.31,-0.66 1.53,0.49 0.18,1.11 -0.38,1.84 0.43,0.68 1.45,0.42 0.46,2.13 -0.18,2.93 -1.18,2.12 -1.4,0.59 -1.36,-0.16 -2.39,2.44 -1.04,2.93 0.92,2.8 -0.19,1.31 0,0 -0.95,-0.19 -0.63,0.91 -0.78,0.35 -3.03,-0.3 -1.28,0.35 -0.11,0.76 1.14,1.8 -0.45,3.39 -0.24,0.73 -0.34,0.18 -4.71,-1.84 -0.58,0.1 -1.23,2.27 -0.94,0.17 -1.41,-2.24 -2.99,-0.11 -2.8,-1.56 -2.07,0.05 -1.64,-0.32 0,0 -5.02,-0.71 0,0 -1.59,-3.3 -0.12,-1.48 0.84,-1.49 0.45,-3.48 0.41,-0.83 0.72,-0.99 1.31,-0.8 0,0 1.98,0.34 3.32,1.08 1.49,-0.58 2.37,-2.22 0.87,-0.18 0.14,0.61 1.42,0.58 0.91,-0.13 1.43,-1.19 2.11,1.52 0.91,-1.16 0.41,-1.94 -0.26,-1.39 -1.5,-3.51 0.37,-1.29 3.04,-1.84 0.97,0.15 1.68,-0.73 1.09,-1.94 z" 
                fill="rgb(151, 144, 238)" 
                stroke="white" 
                stroke-width=".7px"
                title="Karabük" 
                id="TR-78" 
            />
        </svg>