<svg xmlns="http://www.w3.org/2000/svg" viewBox="680.6047699999999 60.30265200000005 67.38999999999999 59.939997999999974" width="67.38999999999999" height="59.939997999999974">
            <path 
                d="m 740.48477,61.482652 0.5,-0.03 0.92,0.54 3.14,2.67 -0.13,1.15 0.41,0.53 -0.25,0.94 0.12,2.08 1.16,1.45 1.63,4.71 -0.36,0.96 0.37,0.84 -0.09,1.69 -1.09,0.73 0.12,1.17 -0.69,1.41 -1.49,1.95 0.01,0.4 -1.04,0.3 0.27,1.61 -0.58,-0.12 -0.05,-0.3 -0.3,0.13 0.45,0.82 -0.17,0.18 -0.69,-0.12 -2.49,1.47 0.02,0.68 -0.45,0.29 0.01,0.48 2.48,1.65 0.5,0.8 -0.1,1.76 -0.72,0.94 -0.36,1.45 1.82,2.73 -0.13,0.649998 0.41,0.58 0.95,0.12 0.71,0.62 -0.19,0.53 0.29,0.43 -0.26,0.44 0.23,0.29 -1.25,0.09 2.4,2.71 0.17,0.66 -2.24,0.47 -0.43,0.46 0.05,0.96 0,0 -0.53,-0.35 -1.64,0.68 -1.79,0.23 -1.43,-0.2 -1.91,0.76 -2,-0.87 -2.54,0.03 -0.88,0.68 -1.85,2.79 -1.53,3.45 0,0 -3.96,-1.18 -3.46,0 -1.93,0.39 -5.43,1.84 -3.61,-0.06 -3.96,1.66 -8.77,1.96 0,0 -0.07,-0.88 1.67,-1.55 0.38,-0.74 -0.13,-1.23 -0.56,-1.04 -4.79,-2.17 -0.48,-0.91 -0.1,-1.88 -0.57,-0.69 -2.86,-2.24 -2.84,-0.28 -0.53,-1.35 -2.18,-1.13 -0.66,-1.07 -2.22,-1.74 -0.3,-0.4 -0.01,-1.069998 0.94,-1.7 1.23,-0.78 4.19,-0.66 3.12,-1.05 2.24,0.49 1.63,-0.1 1.73,-0.88 0.9,-1.52 -0.87,-1.26 -0.2,-0.88 1.13,-3.97 2.27,-3.36 2.08,-2.02 2.16,-1.38 0.24,-0.86 -0.39,-0.53 0,0 1.33,-1.37 2.92,-0.37 0.78,0.18 0.6,-1.01 -0.22,-0.75 0.15,-1.67 3.02,-4 1.3,-0.73 0.42,-1.92 1.6,-1.15 2.07,-0.77 2.29,-2.51 2.06,1.03 1.34,-0.18 1.71,-1.09 1.85,0.66 1.68,-0.58 2.94,0.31 1.17,-0.4 0.7,-0.68 2.3,0.07 2.02,-0.47 1.66,-1.71 0,0 z" 
                fill="rgb(151, 144, 238)" 
                stroke="white" 
                stroke-width=".7px"
                title="Kars" 
                id="TR-36" 
            />
        </svg>