<svg xmlns="http://www.w3.org/2000/svg" viewBox="292.55477 5.162651899999995 77.38999999999987 65.6000001" width="77.38999999999987" height="65.6000001">
            <path 
                d="m 319.45477,5.2626519 0.89,0.13 0.31,0.34 4.26,0.26 2.6,0.79 5.02,0.49 2.68,-0.09 0.84,0.4 5.68,0.08 5.48,-0.45 2.07,0.25 5.58,1.42 0,0 0.01,1.6500001 1.81,1.62 0.03,1.39 0.57,1.31 -0.57,0.92 0.13,0.76 -0.93,0.56 0.19,0.67 0.9,0.33 1.93,-0.41 2.08,0.31 0.64,0.99 0.13,1.71 0.81,0.74 1.67,0.79 3.19,0.24 1.77,1.06 0.66,0.84 0.06,1.31 -1.5,4.27 -3.27,2.47 -0.31,0.58 0.07,0.75 0.91,1.42 -0.05,0.75 -0.48,1.9 -1.68,2.14 -0.78,1.92 1.02,2.7 0,0 -1.57,1.78 -0.89,0.43 -0.34,-0.44 0.31,-0.89 -0.22,-0.24 -1.62,-0.63 -0.95,0.1 -0.33,0.53 0.06,1.75 -1.04,0.55 -1.67,2.04 -1.13,0.34 -0.67,0.65 -0.22,0.67 0.58,2.25 -0.21,1.67 0.24,1.04 0.35,0.39 2.4,-0.75 2.19,1.01 1.46,2.35 -0.06,1.17 -1.57,0.44 -0.82,0.75 -0.53,2.42 -1.33,2.05 -0.47,2.04 -0.91,1.08 -4.42,1.4 -2.05,0.24 0,0 -1.46,-0.31 -2.32,-1.11 -3.79,-0.68 -1.74,-1.5 -2.26,-3.22 -0.26,-0.84 0.14,-0.77 1.61,-2.28 1.14,-2.75 0.21,-1.36 -0.33,-0.54 -2.08,0.6 -2.84,1.7 -6.62,1.6 -1.75,-0.32 -1.59,-2.07 -0.82,-0.36 -1.27,0.58 -1.18,1.3 -1.13,0.27 -1.4,1.02 -1.1,0.12 -1.21,-0.28 -0.78,-1 -4.23,-1.65 -2.13,0.01 -1.37,0.47 -0.89,-0.12 -1.14,-1.03 -0.26,-1.71 -1.41,-1.73 -0.65,-0.48 -2.27,-0.24 0,0 0.19,-1.31 -0.92,-2.8 1.04,-2.93 2.39,-2.44 1.36,0.16 1.4,-0.59 1.18,-2.12 0.18,-2.93 -0.46,-2.13 -1.45,-0.42 -0.43,-0.68 0.38,-1.84 -0.18,-1.11 -1.53,-0.49 -1.31,0.66 -1.17,-0.99 -2.68,1.33 -1.27,-0.91 0.03,-1.25 0,0 0,-0.94 1.51,-1.59 0.25,-2.14 1.5,-2.87 -0.05,-0.66 -0.65,-0.66 -0.84,-0.11 -2.32,1.16 -1.62,0.28 -0.95,-0.23 -0.99,-1.47 0.85,-2.29 -1.54,-1.1 -0.61,-2.13 0,0 1.3,-0.03 0.77,-0.6 4.29,-0.42 3.64,-1.5 0.46,-0.3 -0.17,-0.35 1.62,-0.58 0.31,-0.58 3.69,-1.1300001 1.92,-0.27 0.64,-0.67 3.1,-1.3 1.82,-1.18 1.66,-0.47 z" 
                fill="rgb(151, 144, 238)" 
                stroke="white" 
                stroke-width=".7px"
                title="Kastamonu" 
                id="TR-37" 
            />
        </svg>