<svg xmlns="http://www.w3.org/2000/svg" viewBox="460.34477 272.95265 31.840000000000032 19.1099999999999" width="31.840000000000032" height="19.1099999999999">
            <path 
                d="m 460.34477,283.64265 0.88,-2.67 1.36,-2.46 1.2,-1 0.71,0.18 0.85,-0.21 1.3,-0.86 1.5,-1.5 1.1,-1.74 1.55,-0.43 1.91,0.44 0.44,2.34 0.81,1.83 2.4,0.98 3.06,0.24 1.95,0.64 1.1,1.13 0.87,3.82 1.49,0.65 3.89,-0.43 1.95,0.86 1.52,3.18 0,0 -2.8,1.45 -0.15,0.9 -0.62,1.07 -1.24,0.01 -0.88,-0.56 -5.83,-1.41 -0.17,0.39 -2.57,-0.56 -2.24,1.04 -0.83,-1.15 -0.55,0.53 -0.82,-0.31 -0.43,1.38 -0.58,0.54 -0.99,-0.39 -0.24,-0.72 -1.4,-0.54 -0.25,-1.01 0.26,-0.54 0.82,-0.35 0.33,-0.86 -0.44,-0.85 -1.07,0.06 -0.66,-0.28 -0.07,-0.7 -0.36,-0.36 -2.69,-1.14 -1.38,0.33 z" 
                fill="rgb(151, 144, 238)" 
                stroke="white" 
                stroke-width=".7px"
                title="Kilis" 
                id="TR-79" 
            />
        </svg>