<svg xmlns="http://www.w3.org/2000/svg" viewBox="152.11477000000002 49.77265200000001 42.829999999999984 36.42999999999998" width="42.829999999999984" height="36.42999999999998">
            <path 
                d="m 191.78477,50.162652 1.54,0.34 1.62,0.93 0,0 -1.55,1.07 -0.36,1.64 -0.91,0.76 -1.49,2.4 0.53,1.56 -0.6,1.37 0.68,1.78 1.99,3.07 0.28,1.53 -0.44,1.3 -0.96,1.26 -2.81,0.93 -0.29,0.33 -0.12,0.68 0.97,2.64 -0.09,1.99 -0.47,0.55 -2.75,0.82 -0.68,1.34 -0.68,2.8 -0.83,1.23 -0.54,0.36 -2.02,0.39 -1.63,1.25 -1.8,0.3 0,0 -2.59,-0.9 -4.64,-0.98 -5.54,1.27 -4.84,2.01 -1.05,0.02 -3.42,-0.89 0,0 -0.21,-0.48 0.73,-0.35 0.26,-0.86 -0.36,-3.78 0.24,-2.09 0,0 0.43,-0.16 0.3,-0.71 1.74,-1.61 0.24,0.99 1.5,1.91 0.33,0.01 3.36,-0.52 0.86,-0.47 5.16,-0.95 0.79,-0.38 0.92,0.4 0.68,-0.37 0.77,0.06 0.86,0.73 1.17,0 0.82,-0.3 0.13,-1.2 -0.3,-0.31 0.19,-0.44 -0.21,-0.29 -0.72,0 -1.64,0.16 -0.85,0.42 -0.64,-0.1 -0.38,0.3 -0.69,-0.17 -1.25,0.49 -0.53,-0.13 -1.12,-1.38 -0.53,-0.19 -1.43,-0.26 -2.22,0.1 -1.05,-0.45 -1.8,0.9 -0.81,-0.29 -1.5,0.26 -0.54,-0.66 -0.5,-0.05 -1.67,0.65 -0.95,-0.03 -1.61,0.85 -1.45,-0.45 -0.13,-1.07 -0.57,-0.3 0.14,-0.29 0.39,0.01 -0.17,-0.78 0,0 0.26,-0.99 0.54,0.02 0.92,-1.93 0.51,-0.02 0.72,-1.21 2.09,-1.32 1.05,-2.5 0.92,-0.81 0.96,-0.44 2.18,-0.15 3.88,1 0.65,-0.25 0.83,-2.63 0.87,-0.94 1.51,-0.17 2.67,1.1 1.63,-0.55 1.23,-2.51 1.14,-1.43 -0.09,-2.6 0,0 4.23,0.2 5.7,-0.38 0.46,-0.18 0.23,-0.7 0.58,-0.14 0.58,0.25 0.26,-0.27 -0.32,-0.6 0.3,-0.59 1.13,-0.22 0.43,-0.95 1.26,0.39 z" 
                fill="rgb(151, 144, 238)" 
                stroke="white" 
                stroke-width=".7px"
                title="Kocaeli" 
                id="TR-41" 
            />
        </svg>