<svg xmlns="http://www.w3.org/2000/svg" viewBox="313.55476999999996 97.34265199999997 38.090000000000146 50.21999800000002" width="38.090000000000146" height="50.21999800000002">
            <path 
                d="m 320.99477,147.37265 -0.66,0.19 -0.9,-0.93 0.53,-0.6 -0.36,-0.65 0.33,-1.22 -0.27,-0.68 0.21,-0.63 -0.25,-0.6 0.2,-0.4 -0.17,-2.83 -0.46,-1.78 -1.26,-1.56 -3.87,-2.61 -0.51,-0.67 3.18,-5.32 0.07,-1 -0.49,-2.56 0.24,-0.41 1.06,0.01 2.46,-6.74 2.96,-0.8 1.07,-0.81 2.66,-0.75 2.39,-2.29 -1.1,-1.65 0.67,-2.34 0.18,-2.07 -0.69,-1.29 0.41,-1.6 0.73,-0.73 -0.55,-0.66 0.48,-0.24 0.3,-1.229998 0.41,0.309998 0.39,-0.799998 0.5,-0.09 -0.07,-1.44 0.48,0 0.44,-0.48 0.41,0.23 0.2,-0.31 0.48,0.36 0.46,-0.29 0,0 3.66,0.7 2.04,2.149998 4.51,0.44 0,0 0.85,0.81 0.23,1.42 0.42,0.61 0.74,0.44 2.51,0.4 0.69,0.53 0,0.66 -0.67,1.64 0.65,0.91 0.36,1.62 -0.55,2.52 2.72,4.33 0.2,0.73 -0.48,0.17 0,0 -2.43,0.54 -0.97,0.78 0.15,1.03 1.52,1.08 0.29,1.64 0.69,1.3 -0.27,1.55 0,0 -0.49,0.95 -0.55,0.32 -2.99,0.11 -1.95,4.72 -1.49,0.82 -0.88,1.75 -1.01,1.25 -1.93,1.04 -3.33,3.15 -3.25,1.22 -4.71,4.02 -1.67,0.94 z" 
                fill="rgb(151, 144, 238)" 
                stroke="white" 
                stroke-width=".7px"
                title="Kırıkkale" 
                id="TR-71" 
            />
        </svg>