<svg xmlns="http://www.w3.org/2000/svg" viewBox="51.33477399999997 0.29265190000001595 51.46999599999998 49.70000009999998" width="51.46999599999998" height="49.70000009999998">
            <path 
                d="m 65.794774,0.6026519 0.85,-0.22 0.22,0.37 0.71,-0.03 0.28,0.56 0.49,0.04 0.24,0.44 0.36,-0.09 0.41,1.16 1.24,0.11 1.15,2.87 0.74,0.23 0.27,0.57 0.63,-0.02 0.69,1.29 0.75,-0.01 0.15,0.51 1.35,0.35 0.32,-0.36 1.29,2.3600001 0.85,0.67 0.48,-0.1 -0.4,-0.5 0.56,-0.25 -0.39,-0.22 0.31,-0.7500001 0.56,0.03 0.05,0.3 0.66,-0.9 0.11,0.47 0.28,-0.08 0.61,-0.55 -0.31,-0.47 0.48,0.2 0.17,-0.23 0.16,0.25 0.56,-0.36 0.14,0.33 0.43,-0.32 0.11,0.34 0.55,-0.87 0.74,0.03 -0.2,-0.39 1.42,0.25 0.19,-0.34 1.18,0.66 0.23,0.47 0.19,-0.36 0.37,0.09 -0.29,0.62 0.5,-0.07 0.12,0.35 0.39,-0.28 0.49,0.59 0.01,-0.65 0.85,0.33 -0.1,-0.79 -0.52,-0.08 0.22,-0.57 -0.29,-0.15 0.01,-0.54 0.49,-0.65 0.57,0.42 0.27,-0.68 0.19,0.62 0.25,-0.23 -0.09,-0.56 0.75,0.6 0.89,0.14 0.04,0.6 0.46,0.5 0.45,-0.55 0.12,0.34 0.41,-0.3 0.44,0.24 0.4,-0.27 0.16,0.29 0.71,-0.71 0.71,0.47 1.29,0.07 0.91,1.92 -0.2,1.7200001 0.51,1.72 -0.6,0.11 -1.14,-0.76 -0.7,0.46 -0.66,1 0.06,2.25 0.94,2.22 1.51,1.88 -0.11,1.01 0.23,0.54 2.469996,3.07 -0.7,0.68 0.5,1.43 1.86,2.2 0,0 -0.55,-0.27 -0.11,0.2 -0.99,-0.07 -0.39,0.58 0.23,0.13 -0.21,0.62 -0.71,0.05 -1.569996,1.33 -2.48,0.97 -3.65,2.64 -3.54,0.39 -2.62,1.36 -2.16,0.34 -1.57,0.63 -2.16,1.86 -1.66,6.39 -1.66,1.28 -1.21,1.68 -3.17,1.15 -0.29,0.05 -4.54,-3.82 -1.1,-3.01 -1.75,-1.3 -3.16,0.05 -3.82,0.92 -2.52,-0.15 -0.53,-0.45 -1.04,0.63 -1.2,1.44 0,0 -0.91,-0.3 -0.43,-0.85 0.15,-0.73 1.06,-1.29 0.02,-0.39 -0.8,-1.73 -0.34,-2.61 0.58,-1.72 1.27,-1.08 0.42,-1.11 -0.35,-0.58 -0.03,-0.89 1.52,-1.47 0.66,-1.36 -1.15,-1.09 -0.74,0.4 -0.95,1.46 -0.51,-0.07 -0.48,-0.85 0,-0.55 0.86,-1.43 1.59,-1.31 -0.44,-1.74 0.05,-1.07 1.55,-3.39 -1.47,-3.16 0.33,-3.4 -0.41,-3.4400001 0.36,-2.6 0,0 0.75,-0.98 -0.11,-0.97 1.05,-0.07 0.75,-0.96 -0.05,-1.38 1.1,-0.13 0.72,-0.51 1.7,0.38 0.95,1.06 0.9,-0.27 0.62,0.38 0.53,-0.28 0.19,0.4 0.63,0.18 -0.03,-1.22 0.62,-0.16 0.25,-0.76 0.7,-0.37 z" 
                fill="rgb(151, 144, 238)" 
                stroke="white" 
                stroke-width=".7px"
                title="Kırklareli" 
                id="TR-39" 
            />
        </svg>