<svg xmlns="http://www.w3.org/2000/svg" viewBox="320.99477 125.24265 53.56999999999988 51.940000000000026" width="53.56999999999988" height="51.940000000000026">
            <path 
                d="m 350.14477,125.41265 0.49,0.26 1.23,-0.01 0.4,-0.42 0.86,0.17 0.71,0.84 0.52,2.33 0.44,0.64 3.03,2.09 2.08,0.57 2.3,1.16 0.87,0.81 0.81,2.43 5.03,0.91 -0.03,0.65 0.73,0.04 -0.01,0.33 -2.31,2.1 0.04,0.7 0.61,0.66 2.77,0.93 0.86,0.61 1.39,1.62 0.2,1.2 0,0 -1.8,2.19 -1.79,1.26 -1.11,1.82 0.25,1.52 0.93,0.78 4.15,-0.02 0.77,0.54 -1,1.01 -0.07,0.51 -0.48,0.18 -2.49,2.71 -1.84,3.11 -0.09,2.61 1.64,1.07 0.13,0.85 -0.55,0.33 -2,-0.38 -0.88,0.12 -3.15,3.03 -0.79,1.41 -2.21,6.16 -0.53,0.15 -0.84,-0.26 -0.77,-1.12 -1.92,-1.51 -0.21,0.44 0.48,2.12 0,0 -2.65,0.52 -1.29,-0.18 -0.96,-0.67 -4.31,-4.32 -0.21,-0.79 0.23,-1.56 -1.18,-1.85 -0.39,-1.18 -2.47,0.34 -0.37,-0.98 -0.41,-0.11 -2.16,0.95 -1.12,-0.98 0,0 -0.7,-0.98 -4.07,-0.26 -0.23,-1.35 -0.44,-0.45 -1.06,-0.3 -0.39,-0.91 -1.27,-0.35 -1.22,-1.8 -2.97,-1.18 -1.09,-2.46 -0.66,-0.4 -1.05,-2.14 -1.89,-0.69 -0.13,-0.52 -0.56,-0.38 0.13,-0.53 0.63,0.11 0.34,-0.68 -0.46,-0.29 -0.12,-0.7 -0.57,0.08 -0.4,-0.5 -0.52,-1.05 -0.01,-0.75 0,0 4.9,-1.67 1.67,-0.94 4.71,-4.02 3.25,-1.22 3.33,-3.15 1.93,-1.04 1.01,-1.25 0.88,-1.75 1.49,-0.82 1.95,-4.72 2.99,-0.11 0.55,-0.32 z" 
                fill="rgb(151, 144, 238)" 
                stroke="white" 
                stroke-width=".7px"
                title="Kırşehir" 
                id="TR-40" 
            />
        </svg>