<svg xmlns="http://www.w3.org/2000/svg" viewBox="480.05476999999973 161.07265000000004 77.88999999999999 66.58000000000001" width="77.88999999999999" height="66.58000000000001">
            <path 
                d="m 523.48477,161.16265 0.92,1.12 1.58,0.87 1.04,-0.22 2,-1.5 2.61,1.64 3.23,-0.11 1.66,2.21 1.42,0.67 0.8,1.11 0,0 -3.29,3.58 -0.24,0.68 0.46,1.36 -1.03,1.04 0.91,3.22 1.1,1.72 0.18,1.6 -0.57,0.32 0.77,1.02 -0.86,0.7 -0.87,-0.54 -1.54,0.03 -1.28,-0.59 -0.47,0.08 -0.62,0.85 -1.07,-0.35 -0.49,0.16 -0.18,0.34 0.38,1.39 -0.36,0.8 -0.53,0.5 -1.46,0.54 -1.68,1.98 -0.61,1.19 -0.24,1.97 0.68,2.74 0.78,0.8 0.86,0.24 0.5,1.24 0.89,0.56 4.87,1.2 4.72,1.83 2.74,-0.17 2.06,-0.44 0.82,-0.45 0.74,0.57 0.04,1.15 1.61,1.03 0.55,1.51 1.52,0.48 1.52,1.56 0.9,0.25 1.14,-0.77 3.44,-0.43 0.61,-0.36 1.8,2.58 0,0 -0.53,3.66 -1.32,1.34 0.73,0.82 0.8,0.06 0,0 -2.45,2.21 -2.67,1.35 -0.45,1.38 -2.6,0.73 -1.3,0.89 -4.56,1.77 -1.62,-0.5 -2.22,-2.25 -1.57,-0.29 -1.51,-1.71 -2.05,-0.39 -0.71,-1.13 -1.35,-0.23 -1.22,-0.96 -2.17,-0.86 -1.15,-0.83 -4.09,0.27 -1.42,0.54 -0.73,1.36 -0.91,0.92 -4.89,1.48 -2.31,1.26 -0.39,1.09 1.35,1.83 -0.05,1.19 0.76,2.12 -0.57,1.24 -1.99,0.46 -1.45,2.03 -2.27,0.21 -2.41,0.69 -2.35,-0.31 -2.04,-0.63 -0.54,0.15 -0.85,1.03 -0.65,-0.05 -0.43,-0.49 -0.24,-1.63 -0.37,-0.37 -3.16,0.72 0.44,-1.82 -0.17,-0.5 -0.69,-0.43 0,0 -1.47,-0.93 -0.07,-2.2 -0.57,-0.61 0.01,-0.42 3.91,-3.18 0.8,-0.96 2.04,-3.21 0.17,-0.93 -0.25,-1.39 -0.95,-0.28 -2,0.11 -0.4,-0.31 -0.01,-2.24 0.9,-1.77 -0.28,-0.57 -2.23,-0.2 -1.47,-0.5 -3.53,-2.5 -0.78,-0.89 -0.96,0.38 -1.36,-0.42 -1.04,0.39 -0.55,-0.91 -3.51,-1.09 -1.7,-1.19 -0.25,-0.8 0.21,-1.12 1.72,-2.07 0.28,-1.06 0,0 2.38,-2.08 0.66,-1.99 0.16,-2 0.59,-0.95 4.36,-1.86 1.75,-0.95 0.24,-0.52 -0.42,-0.85 -3.57,-4.31 0.26,-0.81 1.63,-1.56 0.52,-1.9 -0.22,-1.52 -2.03,-2.68 -0.03,-0.52 0.39,-0.42 2.21,-0.13 5.01,1.05 2.41,0.82 2.3,0.19 0.96,-0.76 0.12,-0.79 -1.31,-2.07 -0.2,-0.85 0.46,-1.03 0.8,-0.41 2.43,0.03 1.97,0.92 1.36,0.28 9.65,-0.14 1.07,-0.32 2.83,-2.42 1.92,-0.59 z" 
                fill="rgb(151, 144, 238)" 
                stroke="white" 
                stroke-width=".7px"
                title="Malatya" 
                id="TR-44" 
            />
        </svg>