<svg xmlns="http://www.w3.org/2000/svg" viewBox="61.46477400000001 147.08265 80.24999600000007 70.32000000000005" width="80.24999600000007" height="70.32000000000005">
            <path 
                d="m 71.924774,148.61265 1.57,-1.25 0.92,-0.28 3.04,1.86 0.89,1.42 0.73,0.43 6.35,-1.03 1.07,0.53 1.44,2.54 1.02,0.52 2.95,-2.62 0.53,-0.33 0.81,0.06 1.35,1.36 1.17,2.63 0.15,1.07 4.519996,3.46 1.42,1.94 1.73,3.53 1.14,0.78 1.85,-0.28 0.84,-0.79 0.8,-0.25 0.34,-0.73 0.8,-0.64 2.52,0.27 1.78,0.52 3.56,-1.43 2.15,-1.78 1.41,-0.69 3.01,0.6 0.5,-0.23 0,0 1.54,3.35 0.84,0.96 1.35,0.86 3.37,0.85 4.25,0.03 0.99,0.71 0.24,0.88 -0.13,1.41 -1.22,1.64 1,1.8 0.53,2.08 1.27,1.2 3.37,2.26 0,0 0.03,0.68 -1.19,1.37 -0.61,2.4 -0.73,1.03 -0.63,0.59 -1.73,0.64 -1.21,0.83 -2.62,0.2 -1.05,1.36 -0.25,3.26 -0.94,5.29 -0.74,1.29 0.01,2.16 -2.76,4.54 0.17,0.51 1.38,1.15 0.42,1.69 1.51,1.08 0.73,1.3 0,0 -2.45,2.03 -0.94,1.53 -0.5,1.95 -4.59,2.69 0,0 -2.99,-1.78 -1.97,-0.33 0,0 -2.47,-2.96 0.09,-1.99 0.73,-0.84 -0.4,-0.83 -3.36,-1.36 -1.92,-0.42 -1.36,-1.7 -1.58,-0.94 -1.95,-0.04 -1.77,-0.61 -1.08,-1.56 -2.06,-0.37 -1.979996,-1.47 -2.27,0.22 -1.77,0.73 -1.43,-1.19 -1.9,0.41 -0.16,0.46 0.57,1.61 0.03,0.98 -0.45,1.38 -0.67,0.18 -0.8,-1.33 -1.46,0.38 -1.23,-0.46 -1.01,-1.05 -1.02,-2.98 -0.94,-0.36 -1.84,0.03 -1.55,-1.52 -1.64,0.26 -1.04,-2.12 -0.44,-0.23 -2.9,0.35 -1.11,-2.37 -1.86,-0.98 -1.54,-0.25 -2.87,0.59 -1.94,-1.37 -0.24,-5.04 -1.9,-3.41 -0.57,-0.44 -0.9,-0.17 -0.61,-1.39 0.19,-1.04 1.99,-2.14 -0.34,-1.31 0.52,-0.66 2.04,-1.12 1.96,-0.07 0.75,-0.91 2.06,0.59 1.87,-1.26 2.7,-0.66 1.29,-0.99 0.27,-0.56 0.59,-3.21 -0.03,-1.2 -1.3,-2.84 -0.99,-1.25 -0.71,-2.82 0.6,-4.13 -0.56,-0.82 -0.76,-0.13 -0.91,-1.31 z" 
                fill="rgb(151, 144, 238)" 
                stroke="white" 
                stroke-width=".7px"
                title="Manisa" 
                id="TR-45" 
            />
        </svg>