<svg xmlns="http://www.w3.org/2000/svg" viewBox="589.8647699999997 236.15265 81.20000000000016 41.72999999999996" width="81.20000000000016" height="41.72999999999996">
            <path 
                d="m 634.31477,236.15265 0.92,2.12 2.39,9.23 3.65,-0.68 3.53,0.13 4.24,-0.44 3.05,-1.23 3.28,-1.87 4.3,-3.75 0.91,-0.3 5.11,-0.26 0.58,-0.24 1.58,-1.63 0,0 0.49,3.12 2.72,3.11 -0.46,0.88 -1.28,0.75 -0.47,1.93 -1.19,0.64 -1.64,0.4 -4.18,0.02 -1.91,0.36 -0.84,1.55 -0.18,2.12 -0.83,3.38 -0.29,5.13 0.49,1.08 1.17,-0.75 0.76,0.08 1.1,3.49 -0.37,2.73 0,0 -3.69,1.51 -2.2,0.38 -9.72,-0.02 -1.29,0.25 -0.8,0.62 -0.36,-0.06 -0.4,-0.94 -1.41,-0.68 -2,-0.02 -8.52,-1.87 -2.48,0.52 -0.19,0.56 -0.39,0.18 -0.93,-0.92 -0.68,0.28 -1.21,-0.39 -0.36,0.62 -2.6,0.65 -2.48,1.5 -1.99,0.66 -2.14,1.58 -5.11,0.81 -2.14,2.57 -5.23,2.84 0,0 -0.56,-2.31 -0.42,-0.58 -1.76,-1.02 0.17,-0.72 -0.89,-1.5 0.05,-2.31 -0.49,-0.21 -0.59,-1.92 -0.55,-0.23 -0.57,-1.06 -0.17,-1.76 -0.74,0.51 -0.84,-0.35 -0.63,-1.08 -1.08,-0.63 -0.63,-2.55 0.2,-0.76 -0.94,-1.58 -0.95,-3.52 -0.7,-1.18 0.14,-1.24 -0.39,-0.79 0.04,-0.67 1.21,-1.65 -1.67,-2.77 0,0 0.63,-0.28 0.74,0.39 1.02,-0.05 3.07,-1.89 2.56,-0.78 1.88,0.58 1.5,1.47 1.35,0.8 0.82,0.26 1.17,-0.08 2.87,-0.92 3.82,-1.71 0.46,-0.55 -0.19,-1.08 0.29,-0.27 3.07,0.81 1.46,0.88 3.04,0.12 1.25,0.43 0.61,-0.61 0.14,-0.77 -0.89,-3.31 0.61,-2.48 0.86,-0.11 0.98,1 2.35,-0.01 3.12,1.53 1.11,0.03 0.56,-0.31 2.09,-0.15 1.07,-0.51 0.48,-0.46 z" 
                fill="rgb(151, 144, 238)" 
                stroke="white" 
                stroke-width=".7px"
                title="Mardin" 
                id="TR-47" 
            />
        </svg>