<svg xmlns="http://www.w3.org/2000/svg" viewBox="285.38476999999966 249.19264999999996 107.6800000000004 74.35999999999984" width="107.6800000000004" height="74.35999999999984">
            <path 
                d="m 378.39477,249.19265 0.84,1.45 -0.14,2.21 2.23,3.07 1.31,0.29 -0.2,0.51 1.6,1.36 1.15,1.89 0.08,1.23 -1.49,1.05 -0.53,0.84 -0.02,1.54 0.34,0.5 0.86,0.14 0.99,0.63 0.63,1.02 0.29,1.3 1.69,0.01 2.41,1.2 0.6,0.57 0.57,0.79 -0.1,2.1 0.88,3.1 0.01,3.39 0.67,3.38 -0.23,0.82 -0.79,0.46 0.21,0.27 -0.29,0.13 -0.17,-0.51 -0.29,-0.06 -1.27,0.45 -0.82,-0.75 -1.29,1.71 -0.38,-0.66 -0.31,-0.02 -0.02,1.1 -0.8,-0.57 -0.19,0.13 0.28,0.69 -0.53,-0.47 -0.49,-0.03 -0.81,0.44 -0.2,-0.42 -0.16,0.96 -0.35,0.1 -0.13,-0.32 -0.41,0.32 0,0 -0.17,-0.24 -0.08,0.28 0,0 -1,0.91 0,0 -0.72,-1.58 -0.88,-0.93 -2.31,-1.4 -2.02,-0.57 -4.39,0.28 -0.12,-0.24 -1.36,1.2 -2.41,0.89 -0.52,0.56 -0.25,0.94 -2.89,1.57 -1.81,2.27 -2.95,1.49 -1.57,1.61 -2.09,1.33 -1.79,2.57 -1.72,1.58 -0.67,1.51 -1.63,0.87 -0.78,1.24 -1.22,0.75 -0.24,4.66 -1.18,1.3 -0.72,-0.37 -0.76,0.36 -1.39,1.46 -0.57,1.76 -0.61,-0.14 0.06,-1.39 -0.57,-1.24 -1.35,-1.23 -1.49,-0.3 -1.39,1.48 0.26,0.57 -1.06,0.1 0.29,0.49 -1.04,1.71 -1.92,1.03 -2.2,1.95 -0.41,0.66 0.5,0.38 -0.03,0.58 -0.64,0.41 -0.46,-0.67 0.13,-0.59 -0.65,-0.05 0.03,-1.41 -0.54,-0.37 -1.59,0.43 -0.7,0.52 -1.27,2.51 -0.91,0 -0.13,-0.46 0.43,-0.19 -3.29,-0.97 -2.09,0.85 -0.69,0.69 -0.62,-0.66 -1.11,-0.06 -0.23,-0.61 -2.3,1.17 -3.68,0.06 -2.42,-0.44 -0.95,0.38 -1.88,3.1 -0.01,-0.58 -1.22,-0.67 -4.23,-0.49 -3.1,1.54 -1.22,1.33 -1.24,0.7 -0.45,0.84 -1.27,-0.65 -4.39,-0.74 -4.3,-2.87 0,0 0.26,-0.79 0.66,-0.42 0.02,-0.79 0.9,-1.44 0.03,-1.14 -0.79,-1.13 0.43,-0.72 0,-0.69 0.33,-0.29 -0.17,-1.18 1.35,-1.68 0.37,-1.76 -2.54,-6.03 -0.93,-4.43 0,0 4.68,0.11 3.2,1.47 4.18,0.72 1.42,1.12 3.05,0.14 2.35,0.75 2.29,-0.38 3.34,-1.54 3.42,-2.66 0.54,-0.96 -0.78,-1.47 -1.91,-1.73 -3.1,-1.9 -0.69,-1.64 -1.45,-1.81 -0.29,-1.45 0.81,-2.01 0.03,-1 -0.29,-0.83 -1.46,-1.74 0.21,-0.71 2.03,-1.21 0.88,0 1.19,1.51 0.72,0.16 0.63,-0.41 1.63,-2.07 0.91,-0.57 2.11,-0.12 4.38,-1.3 3.28,0.23 1.78,-1.07 0.98,-0.19 1.16,0.44 1.36,1.39 0.86,0.04 2.09,-0.76 2.52,-2.13 2.43,-1.21 0,0 2.09,-0.64 5.8,-0.45 4.19,-1.88 3.71,-0.9 1.48,-1.34 -0.68,-1.8 0.46,-1.2 6.72,-2.06 2.49,-1.88 3.37,-0.99 1.73,-1.2 0.06,-0.9 -1.21,-1.12 -0.39,-0.75 0.42,-1.34 0.64,-0.8 0,0 0.19,0.25 0.77,0.03 2.4,-0.36 5.28,-2.75 3,-0.74 z" 
                fill="rgb(151, 144, 238)" 
                stroke="white" 
                stroke-width=".7px"
                title="Mersin" 
                id="TR-33" 
            />
        </svg>