<svg xmlns="http://www.w3.org/2000/svg" viewBox="64.82477400000008 245.1326500000001 106.93999600000004 64.37000000000003" width="106.93999600000004" height="64.37000000000003">
            <path 
                d="m 72.574774,251.66265 0.05,-1.92 0.62,-1.89 1.49,-1.51 1.1,-0.46 3.01,-0.48 1.12,0.21 3.16,1.6 2.62,-0.16 0.54,0.36 1.18,1.83 1.26,0.46 5,-0.87 3.93,0.56 1.87,-0.19 1.569996,0.21 0.9,-0.2 0.98,-1.39 1.18,-0.71 1.34,-1.74 0.93,-0.24 0.49,0.3 -0.03,1.57 0.21,0.2 2.74,-0.16 6.39,0.53 0.93,0.31 3.14,2.12 1.4,1.5 1.34,-0.24 0,0 0.72,2.73 2.12,0.31 0.7,1.49 0.91,0.65 -0.19,1.57 -0.26,0.23 0.4,0.61 -0.08,0.39 0.67,0.22 0.38,0.97 0.91,0.56 1.32,0.22 0.48,2.1 1.31,1.51 1.01,0.64 1.55,0.24 1.96,-0.01 2.13,-0.6 0.19,0.73 -0.17,1.73 0.35,1.13 2.51,3.2 0.41,0.99 -0.08,3.78 1.15,3.21 1.67,1.11 1.24,0.07 3.75,-0.58 1.89,-1.61 0.39,0.1 0,0 0.93,1.12 2.3,0.02 0.05,0.83 -1.22,1.79 2.71,0.82 0.4,-0.24 0.11,-1.14 1.07,0.27 2.21,-4.79 0.43,-2.15 0.36,-0.35 1.62,-0.62 1.41,-0.93 1.43,-0.29 0.91,0.13 0.8,0.6 1.74,0.53 0,0 1.6,1.35 0.53,2.24 -0.2,0.9 -2.19,3.29 -0.33,2.73 0.36,3.43 -1.29,3.22 -3.88,2.45 -1.59,2.3 -0.57,1.44 -2.29,2.03 -1.11,0.36 -4.02,-0.06 -1.74,0.89 -0.72,0.98 -0.65,-0.18 -0.33,0.68 0.43,0.4 -0.08,0.68 0.44,0.6 -0.88,0.38 0.12,3.42 -0.46,0.64 -0.39,-0.35 -0.18,0.35 -0.65,0.08 0.34,0.52 -0.65,0.12 0,0 -0.31,0.06 -1.49,-1.83 -0.83,-0.04 -0.4,-0.37 -0.19,0.16 -0.6,-0.59 -0.43,0.18 -0.3,-0.79 -0.75,-0.12 0.36,-0.92 -1.27,0.05 0.4,-0.38 -0.25,-0.41 -0.84,0.2 0.07,-0.73 0.62,-0.59 0.61,-0.09 -0.35,-0.51 0.43,-0.13 -0.56,-1.38 0.24,-0.36 -0.48,-0.03 -0.47,-0.63 0.5,-1.11 0.48,-0.1 -0.33,-0.35 0.34,-1.84 -0.57,-0.68 -0.41,0.04 0.27,0.34 -0.68,-0.06 -0.22,-0.91 -0.28,0.39 -1.25,0.12 0,0.87 -1.02,0.03 -0.64,-0.31 0.2,-0.23 0.36,0.14 0.82,-0.77 -0.17,-0.34 -0.41,-0.05 0.41,-2.58 1.46,0.26 0.07,-1.61 0.55,0.07 0.44,0.52 -0.36,0.15 -0.18,0.59 1.13,-0.27 0.26,-1.11 -1.05,-1.52 -1.72,-0.29 -1.46,-1.74 -0.98,0.3 -1.04,-1.1 -0.76,-0.24 -0.45,-0.95 -0.51,-0.08 -0.33,0.21 0.31,0.7 -0.62,0.43 -0.11,0.68 -0.57,0.18 0.31,0.2 -0.3,0.51 -0.79,-0.1 -0.09,0.4 -0.53,-0.13 0.07,0.8 -0.31,0.22 0.42,0.31 -0.75,0.44 0.58,0.37 0.1,0.94 0.41,0.1 0.04,-0.72 0.85,-0.07 0.31,0.49 -0.77,0.17 -0.86,1.08 0.32,0.73 -0.54,-0.02 -0.64,0.64 -0.91,-1.22 0,-0.72 1.1,-0.56 -0.37,-0.22 -0.48,0.17 -0.53,-1.06 -0.99,0.43 0.46,-0.96 -0.79,-0.92 -2.54,-0.89 -2.24,0.66 0.18,-0.72 -0.33,-0.09 -0.05,-0.54 -0.7,-0.23 -0.63,1.17 -0.62,-0.17 -0.1,-0.57 0.31,-0.17 0.05,-0.56 -0.25,-0.35 -0.38,0.23 -0.06,-0.21 1.07,-1.06 -0.61,-0.02 -0.22,-0.44 0.7,-0.7 -1.82,-1.94 -0.74,-0.07 -0.38,-0.72 -0.38,0.09 0.01,0.8 -0.84,0.42 0.5,0.57 -0.25,0.51 -0.57,-0.29 -0.14,-0.46 -0.75,0.43 -0.4,-0.67 0.52,-0.6 -0.15,-0.26 -1.6,0.28 -0.4,-0.56 0.02,-0.55 0.18,-0.77 0.55,-0.17 -0.04,-0.77 -0.5,-0.46 -0.27,-0.07 -0.37,0.71 -0.79,0.57 -0.52,0.11 -0.21,-0.68 -0.33,0.61 -0.62,0.37 0.33,0.77 0.6,-0.28 1.02,0.17 -0.03,0.75 -0.96,1.65 -0.77,-0.08 -1.14,-0.95 -1.75,-0.45 -0.4,0.48 0.4,0.57 -1.6,-0.01 -0.37,-1.06 0.67,0.1 1.27,-0.54 -1.48,-1.42 -0.37,0.1 -0.93,0.91 -0.38,1.44 0.82,0.62 -0.22,0.9 0.77,0.33 0.05,0.92 0.93,0.03 0.49,1.04 -0.74,0.49 -0.33,-0.85 -1.06,0.3 -0.21,0.59 -0.98,0.78 -0.1,0.7 -1.85,0.45 -0.64,-0.12 -0.39,0.45 0.3,0.39 -0.77,0.91 0.02,0.54 -1.63,2.44 -0.66,0.37 -0.35,-0.2 0.07,-0.37 -0.329996,0.03 -1,1.09 -1,0.57 0.07,-0.39 -0.53,-0.37 -1.17,1.37 -0.16,-0.67 -0.6,-0.54 0.54,-0.43 -0.9,-0.7 0.3,-0.38 0.82,-0.22 1.84,0.43 0.83,-0.29 0.5,0.23 1.369996,-2.03 -0.57,-0.86 -0.389996,0.06 -0.07,0.38 -0.72,-0.16 0.73,-1.22 -0.82,-0.03 0.1,-0.4 -0.5,-0.4 -0.21,0.19 0.16,0.58 -0.62,0.32 -0.37,-0.22 -0.97,0.43 -1.13,-0.33 0.03,-0.37 0.49,-0.5 0.79,-0.2 0.44,-0.71 0.45,-0.07 0.45,0.07 1.04,-0.78 1.759996,-0.35 -0.43,0.59 0.15,0.43 0.43,0.05 0.58,-0.56 0.07,-0.57 0.5,0.18 -0.24,-0.49 -1.51,-0.49 -0.04,-0.36 0.55,-0.89 0.54,0.25 0.19,-0.52 0.33,-0.09 0.27,-1.12 -2,0.08 -0.289996,0.33 0.189996,0.58 -0.599996,0.14 -0.09,0.55 -0.38,0.18 -0.46,-0.53 -0.85,0.49 -0.46,-0.11 -0.72,0.54 -0.78,0.01 -0.36,0.31 -0.55,-0.39 -0.86,0.87 -0.8,-0.64 -0.62,-0.09 0.12,0.72 -0.41,0.07 0,-0.66 -0.26,-0.2 -0.44,0.23 -0.04,0.44 -0.52,0.16 -0.44,-0.33 -0.43,0.16 -0.15,-0.58 -0.77,-0.32 -0.41,-0.07 -0.39,0.45 -2.78,-0.34 -1.7,1.89 0.37,0.67 -0.21,0.48 -0.63,0.13 -0.08,1.95 -0.58,-0.33 -0.51,0.1 -0.39,-0.43 -0.85,0.09 -0.45,-0.49 -0.94,0.24 -0.42,-0.3 -0.47,0.5 -0.33,-0.36 -0.93,0.6 -0.65,-0.37 -1.61,1.21 -0.4,-0.64 -2.39,0.08 -0.38,-0.18 0,-0.63 -1.6,-0.26 0.42,-0.26 -0.46,-0.99 1.78,0.31 0.64,-0.51 0.14,-0.58 -0.35,-0.43 0.63,-0.87 0.68,0.22 0.74,-0.9 0.38,0.22 0,0.41 0.57,-0.2 0.68,0.26 3.23,-0.97 1.08,0.24 0.87,-0.92 -0.18,-0.72 0.65,-0.21 0.03,-0.56 1.54,0.5 0.46,0.67 0.53,0.11 1.72,0.05 3.11,-1.43 1.41,0.42 2.11,-0.25 0.66,0.62 3.57,-0.07 0.62,0.21 0.99,-0.28 0.58,-0.39 -0.14,-0.54 0.34,-0.43 -0.31,-0.67 -1.22,0.35 -0.97,-0.32 0.78,-0.38 -0.96,-0.55 0.82,-0.57 0.49,0.29 0.31,-0.43 0.31,0.05 0.01,-0.37 0.39,-0.03 0.08,-0.49 -0.67,-0.07 0.4,-0.64 -1.46,-0.46 1.17,-0.25 -0.24,-0.38 -0.62,-0.12 -0.01,-0.34 1.01,0.19 0.99,-0.4 -1,-0.13 -0.06,-0.23 2.099996,-0.23 0.71,0.43 0.49,-0.2 0.6,0.18 0.34,0.27 0.48,0.14 0.12,1.01 0.36,-0.8 -0.45,-0.79 0.41,-0.16 -0.49,-0.37 0.64,-0.25 0.61,0.54 0.57,-0.5 -0.12,-1.04 0.58,-0.29 -0.67,-0.23 0.62,-0.18 0,-0.5 1.41,0.5 0.33,-0.32 -0.47,-0.45 3.49,-1.35 -0.24,-1.12 -2.03,0.13 -1.42,0.53 -1.9,-0.03 -1.11,0.5 -2.76,-0.25 -0.13,0.28 0.67,0.3 0.05,0.35 -0.68,0.23 -0.38,-0.87 -2.779996,0.34 -1.88,-0.52 -0.41,0.57 -0.87,0.24 -0.76,-0.72 -0.91,0.35 -0.6,-0.27 -2.82,0.83 -0.79,0.75 -0.28,0.07 0.11,-0.31 -0.48,-0.17 -0.28,0.69 -0.91,0.14 -0.01,-0.5 -0.6,0.16 -0.99,-0.29 -0.67,0.29 -0.76,-0.36 -0.84,0.44 -0.61,-0.12 -0.49,0.94 -1.16,-0.23 -0.62,-0.44 -0.83,0.04 -0.51,0.3 0.55,0.21 -0.41,0.47 -0.7,-0.64 -1.22,-0.3 -0.35,0.41 -1.19,-0.07 -1.26,-1.31 -0.62,-1.18 -0.53,-0.16 -0.44,0.95 -0.4,-0.4 0.24,-0.27 -0.53,0.05 -0.34,1.19 -0.5,0.42 0.22,-1.5 -2.13,0.68 0.06,1.38 -1.31,0.83 0.12,0.83 -0.42,-0.59 -1.24,0.19 -0.34,-0.65 0.14,-1.36 -0.38,-1.54 -0.79,-0.41 -0.18,-0.94 0.52,-0.44 0.07,-0.84 0.44,0.11 0.14,-0.67 1.55,-0.65 0.08,-0.28 -0.18,-0.42 -1.41,0.4 -0.07,-0.89 0.84,-0.57 1.6,1.24 0.28,-0.19 -0.29,-0.92 0.64,-0.34 -0.16,-0.78 0.78,0.45 -0.1,0.94 0.2,0.08 0.83,-1.3 0.53,0.25 0,0.46 0.51,-0.15 -0.55,0.61 0.49,0.7 0.29,0 0.22,-0.58 1.23,0.15 0.57,1.37 0.64,0.33 -0.15,0.56 0.61,0.18 0.77,-0.74 -0.02,-0.34 1.73,-0.88 0.25,-0.47 1.41,0 0.38,-0.41 -1,-0.08 0.03,-0.81 -0.59,0.02 -0.12,-0.47 0.38,-0.19 -0.37,-0.13 0.24,-0.85 -0.57,-0.39 1.1,-0.16 0.46,-0.84 0.75,0.62 -0.65,0.85 0.12,0.23 0.61,-0.23 0.31,-0.54 -0.12,-0.38 -0.81,-0.75 1.35,-2.09 0.22,-1.23 -0.55,0.22 0.09,-0.52 -0.28,-0.1 -0.61,0.82 -1,-0.3 -1.01,1.88 -0.47,0.06 0.28,0.49 -0.22,0.16 -0.96,-0.53 0.54,-0.15 0.32,-0.37 -0.22,-0.35 0.43,-0.17 -0.31,-0.54 0.2,-0.31 -0.5,-0.29 -0.47,0.12 -0.21,0.51 -0.67,0.05 -0.03,0.52 -0.8,0.28 -0.13,-0.29 0.65,-0.75 0.27,-0.85 0.43,-0.25 0.45,-1.54 -0.98,-1.25 -0.18,0.13 0.3,0.76 -1.37,1.34 -1.3,-0.13 -0.96,-0.93 -0.25,-1.72 1.23,-1.06 0.8,-0.24 -0.05,-0.96 -0.72,-0.82 z" 
                fill="rgb(151, 144, 238)" 
                stroke="white" 
                stroke-width=".7px"
                title="Muğla" 
                id="TR-48" 
            />
        </svg>