<svg xmlns="http://www.w3.org/2000/svg" viewBox="639.1647699999999 141.57265 65.59000000000003 53.559999999999945" width="65.59000000000003" height="53.559999999999945">
            <path 
                d="m 691.56477,141.57265 3.5,3.61 1.55,4.06 1.19,0.13 1.56,-0.58 0.69,0.39 0.13,1.99 0.42,1.42 2.47,4.32 0.78,3.03 0.9,1.8 -0.52,1.54 -0.29,2.46 0.21,6.44 0,0 -2.37,0.01 -4.6,-0.8 -3.13,-0.08 -1.73,0.8 -3.27,0.45 -1.94,1.08 -3.05,0.71 -0.7,0.5 -0.76,1.15 -0.82,2.92 -1.38,0.11 -0.83,0.94 0.05,0.79 0.56,1.07 -0.29,1.58 -0.4,0.53 -2.29,1.38 -1.59,2.63 -1.54,0.74 -0.59,2.17 -0.56,0.6 -2.43,-0.35 -4.65,-1.31 -1.98,0.1 -2.11,-0.56 -2.91,0.22 -0.85,-0.18 -0.57,0.18 -0.97,1.09 -1.49,0.2 -0.26,0.89 0,0 -0.62,1.43 -1.46,1.4 -2.42,0.19 -0.71,0.37 0,0 0.01,-0.58 -0.34,-0.28 0.32,-1.07 -0.26,-1.07 -0.48,-0.2 -1.38,0.57 -2.01,-1.58 -0.29,-1.79 -0.59,-0.98 -0.19,-1.54 0.44,-3.07 -0.46,-0.23 -0.49,0.15 -1.78,1.31 -0.39,-0.05 -1.86,-1.66 0,0 -0.16,-3.86 -0.42,-2.31 0.77,-5.58 2.66,-3.17 4.57,-1.93 0.54,-0.72 0.14,-0.83 -0.16,-1.29 -0.41,-0.67 -3.5,-2 -0.86,-2.01 -2.96,-4.63 -0.13,-1.4 0.26,-1.54 1.73,-2.26 0,0 2.49,0.95 5.86,-0.37 2.11,0.61 6.92,4.83 0.52,1.31 0.03,2.94 0.41,0.63 1.19,0.29 3.38,-0.7 2.5,0.22 2.64,-0.97 2.18,-0.12 2.73,-0.93 4.1,-2.82 0.1,-2.22 3.26,-0.31 1.67,-0.88 0.32,-0.63 -0.58,-0.84 1.36,-1.54 -0.12,-1.68 1.96,-0.93 2.68,-2.52 1.64,-1.01 z" 
                fill="rgb(151, 144, 238)" 
                stroke="white" 
                stroke-width=".7px"
                title="Muş" 
                id="TR-49" 
            />
        </svg>