<svg xmlns="http://www.w3.org/2000/svg" viewBox="356.33477 146.03265 36.88000000000005 58.31999999999999" width="36.88000000000005" height="58.31999999999999">
            <path 
                d="m 373.16477,146.03265 0.1,1.13 0.48,0.52 3.19,1.43 2.6,0.19 2.76,0.64 1.75,0.89 2.02,2.16 0.4,0.65 0.31,1.72 -0.71,2.09 0.79,0.83 0.88,2.83 -0.07,3.39 1.55,2.05 0.39,1.47 0,0 0.04,1.39 -0.65,2.96 -2.97,6.95 2.01,0.59 1.33,1.26 3.56,7.39 0.29,1.73 -0.29,0.83 -2.1,2.23 -0.71,1.8 -1.57,1.84 -2.21,1.33 -2.76,0.9 -0.72,1.37 -0.25,1.41 0,0 -1.81,0.05 -2.31,-0.49 -1.24,0.17 -3.46,2.55 -1.8,0.07 -1.63,-0.43 -2.35,-1.38 -0.93,-1.27 -0.86,-2.16 0,0 -0.75,-1.09 -0.85,-0.45 -0.44,-3.74 -0.9,-1.85 -1.38,-0.89 -0.65,-1.75 -2.12,-1.26 -1.61,-0.37 -0.8,-0.79 -0.38,-2.6 0.22,-0.92 1.3,-1.89 -0.07,-2.39 0.28,-1.5 -0.33,-0.62 -0.74,-0.34 0,0 -0.48,-2.12 0.21,-0.44 1.92,1.51 0.77,1.12 0.84,0.26 0.53,-0.15 2.21,-6.16 0.79,-1.41 3.15,-3.03 0.88,-0.12 2,0.38 0.55,-0.33 -0.13,-0.85 -1.64,-1.07 0.09,-2.61 1.84,-3.11 2.49,-2.71 0.48,-0.18 0.07,-0.51 1,-1.01 -0.77,-0.54 -4.15,0.02 -0.93,-0.78 -0.25,-1.52 1.11,-1.82 1.79,-1.26 z" 
                fill="rgb(151, 144, 238)" 
                stroke="white" 
                stroke-width=".7px"
                title="Nevşehir" 
                id="TR-50" 
            />
        </svg>