<svg xmlns="http://www.w3.org/2000/svg" viewBox="349.11477000000025 199.11265 48.42999999999989 53.91000000000008" width="48.42999999999989" height="53.91000000000008">
            <path 
                d="m 366.21477,199.11265 0.86,2.16 0.93,1.27 2.35,1.38 1.63,0.43 1.8,-0.07 3.46,-2.55 1.24,-0.17 2.31,0.49 1.81,-0.05 0,0 2.05,3.08 3.31,2.45 0.11,1.34 0.69,0.85 0,1.83 0.42,0.66 5.66,0.54 1.35,0.54 1.05,1.19 0.3,9.84 -1.84,5.8 0,0 -3.23,1.58 -1.3,1.13 -2.46,4.29 -0.83,0.71 -1.27,0.08 -2.29,-1.05 -1.49,0.36 -0.76,1.26 -0.03,2.24 -0.77,3.56 -1.01,1.36 0.76,1.46 -2.58,1.6 -0.05,0.49 0,0 -2.96,0.73 -5.27,2.74 -2.4,0.36 -0.77,-0.02 -0.18,-0.25 0,0 -1.09,-1.96 -1.37,-1.48 -1.1,-0.51 -2.65,-0.32 -0.29,-0.89 1.28,-2.31 -0.31,-0.38 -1.9,-0.33 -0.83,-0.72 0.11,-0.84 3.71,-3.56 0.25,-0.58 0.27,-1.96 -1.28,-3.61 -2.66,-3.23 -2.7,-4.61 -0.7,-0.58 -2.23,-0.66 -0.92,-0.93 -1.24,-2.75 -1.58,-1.53 -0.47,-1.28 0,0 1.93,-1.59 1.43,-1.73 4.38,-1.1 2.1,-1.6 1.51,-3.15 1.55,-1.21 0.31,-0.62 0.38,-4.42 0.41,-1.39 2.8,-1.39 z" 
                fill="rgb(151, 144, 238)" 
                stroke="white" 
                stroke-width=".7px"
                title="Niğde" 
                id="TR-51" 
            />
        </svg>