<svg xmlns="http://www.w3.org/2000/svg" viewBox="456.72477000000003 53.192651999999995 57.629999999999995 42.59" width="57.629999999999995" height="42.59">
            <path 
                d="m 477.22477,53.212652 3.88,-0.02 -0.2,0.69 0.38,0.49 4.16,1.14 1.06,1.24 0.91,0.18 1.4,0.8 0.41,1.12 0.55,0.52 1.55,0.55 2.09,-0.77 0.76,-0.64 0.38,-1.24 1.54,-2.52 1.12,-1.04 0.85,1.13 2.28,-0.23 0.66,0.34 0.55,-0.2 -0.57,2.37 0.18,0.64 1.21,1.87 2.53,0.77 0.4,1.4 0.66,0.25 1.69,-0.16 2.7,0.35 4,0.89 0,0 -1.01,3.29 -3.04,4.43 0.67,1.72 -0.07,0.66 -1.08,1.02 -0.02,0.32 -0.34,0.02 0,0.36 -0.73,0.04 0.45,0.56 0.01,1.24 0.81,0.77 0.31,1.4 2.39,1.38 -0.15,0.73 -0.74,0.53 -0.05,0.53 0.14,1.13 1.31,1.26 -0.27,3.66 0,0 -1.95,1.57 -2.09,-0.18 -0.92,0.51 -0.62,0.79 0.01,1.37 -1.63,2.03 -2.07,1.45 -0.53,0.06 -1.51,-1.42 -0.86,0.19 -0.79,1.18 -4.27,-0.81 0,0 0.9,-2.06 -1.58,-1.37 -0.93,0.07 -0.12,-0.24 0.5,-1.54 1.4,-1.37 -0.36,-0.9 -4.82,-1.37 -3.15,0.34 -1.81,-0.38 -1.28,0.13 -0.92,-0.89 -1.68,-0.86 -4.16,-4.44 -1.69,-0.64 -0.3,-1.13 -1.1,0.11 -1.37,-1.15 -4.06,1.33 -0.95,-0.24 -1.32,-1.4 -2.35,0.1 -0.84,-1.04 -0.06,-2.69 -0.93,-0.71 -0.59,0.18 -0.8,-0.39 -0.54,0.23 -1.05,-0.98 -0.9,0.08 -0.26,-1.44 -1.87,-1.19 0,0 0.26,-1.4 3.3,-2.22 1.59,-0.46 1.17,-1.91 3.94,-0.2 1.27,-0.96 0.55,-1.02 1.27,-1.15 -0.53,-1.04 -0.06,-1.38 0.95,-0.29 0.25,-0.89 0.53,-0.47 3.13,0.13 0.06,-0.45 1.32,-0.84 -0.22,-0.76 0.49,-0.54 0,0 z" 
                fill="rgb(151, 144, 238)" 
                stroke="white" 
                stroke-width=".7px"
                title="Ordu" 
                id="TR-52" 
            />
        </svg>