<svg xmlns="http://www.w3.org/2000/svg" viewBox="428.8147700000002 237.17265 27.6099999999999 36.7699999999999" width="27.6099999999999" height="36.7699999999999">
            <path 
                d="m 438.20477,237.17265 -0.57,0.71 -0.58,1.64 0.58,2.13 -0.37,3.79 0.68,2.13 -0.08,0.96 0.43,0.89 -0.14,1.2 0.21,0.24 -0.27,0.84 0.44,0.01 0.19,2.76 0.56,0.45 1.9,-0.58 0.67,0.41 0.48,-0.37 0.84,0.77 1.15,-0.14 0.48,-0.74 0.3,0.21 0.36,-0.33 3.19,-0.73 2.71,-0.05 2.95,0.39 1.18,-0.25 0.3,0.24 0.06,0.73 -1.2,2.63 1.66,3.27 0.11,1.79 -0.54,0.81 0,0 -2.17,2.13 -1.27,1.71 -1.51,2.87 -4.28,4.25 0,0 -3.09,-0.71 -3.09,0.47 -6.69,-3.09 -1.5,0 -2.38,0.78 0,0 1.25,-9.1 -0.38,-3.03 -1.52,-4.45 -0.44,-3.1 0.47,-4.38 1.29,-4.13 2.15,-3.22 4.17,-2.52 z" 
                fill="rgb(151, 144, 238)" 
                stroke="white" 
                stroke-width=".7px"
                title="Osmaniye" 
                id="TR-80" 
            />
        </svg>