<svg xmlns="http://www.w3.org/2000/svg" viewBox="606.13477 42.602652 46.319999999999936 44.37000000000001" width="46.319999999999936" height="44.37000000000001">
            <path 
                d="m 645.21477,42.602652 1.31,2.28 0.2,2.85 1.26,1.06 0.74,1.98 3.55,3.52 0.18,1.15 -0.6,0.88 -2.11,0.88 -3.15,4.1 -1.6,1.31 -0.81,3.09 -2.13,3.44 -1.51,1.52 0,0 -4.71,2.92 -7.67,7.23 -2.75,1.45 -4.13,1.51 -3.92,2.07 0,0 -2.11,0.27 -2.19,0.86 0,0 0.04,-1.19 -1.34,-2.12 -0.18,-0.95 0.5,-1.41 1.79,-1.93 0.39,-1.47 -0.37,-1 -2.19,-2.2 -0.65,-1.72 -0.06,-0.97 0.96,-1.94 0.1,-1.52 -1.2,-0.82 -0.87,-1.21 -0.28,-1.15 0.35,-1.18 -0.35,-0.59 -0.96,0.14 -1.93,-0.65 -0.68,-0.73 0,0 1.4,-1.78 1.29,-0.85 1.72,-0.03 3.05,-0.85 0.94,0.82 0.74,0 1.67,-1.03 1.08,-0.12 1.63,-1.04 2.81,-0.96 3.72,-4.16 3.01,-1.18 0.96,-0.12 1.44,0.43 1.38,-0.77 1.13,-0.18 2.52,-1.12 2.97,-2.34 1.15,-1.36 1.02,-0.33 2.49,-1.61 z" 
                fill="rgb(151, 144, 238)" 
                stroke="white" 
                stroke-width=".7px"
                title="Rize" 
                id="TR-53" 
            />
        </svg>