<svg xmlns="http://www.w3.org/2000/svg" viewBox="384.2347700000002 20.642651999999977 91.77999999999986 50.35999999999999" width="91.77999999999986" height="50.35999999999999">
            <path 
                d="m 426.44477,20.792652 0.58,1.12 1.87,0.68 1.6,1.4 1.87,2.83 0.76,3.81 -0.54,3.47 0.66,1.86 3.99,4.8 0.3,0.8 1.47,1.08 2.72,1.28 -0.12,1.03 0.38,0.65 1.38,0.92 0.51,0.77 2.68,0.45 1.25,-0.28 2.43,-1.4 0.71,-0.58 0.72,-1.57 1.06,-1.34 0.34,-1.36 1.64,-1.38 0.71,0.41 -0.14,0.37 0.41,0.35 2.5,0.15 5.36,1.33 5.22,3.07 1.28,1.48 -0.04,2.94 0.44,0.96 1.77,1.15 3.8,1.18 0,0 -0.49,0.54 0.22,0.76 -1.32,0.84 -0.07,0.45 -3.13,-0.13 -0.53,0.47 -0.26,0.89 -0.94,0.29 0.06,1.38 0.53,1.03 -1.27,1.15 -0.55,1.02 -1.27,0.97 -3.94,0.19 -1.17,1.92 -1.6,0.46 -3.3,2.22 -0.26,1.41 0,0 -0.61,-0.82 -1.33,-0.68 -2.53,0.09 -2.3,0.57 -1.13,0.83 -0.91,-0.45 -0.67,0.15 -0.74,0.4 -0.88,1.12 -1.11,0.13 0,0 -0.92,-0.51 -1.99,-0.34 -1.81,-1.05 0.22,-0.57 1.43,-1.34 0.12,-0.64 -0.41,-0.45 -2.48,-1.31 -3.04,-0.73 -0.64,0.36 -0.02,1.1 -0.31,0.64 -1.26,0.45 -0.87,3.85 -0.78,1.12 -2.36,-1.19 -4.56,-1.64 -3.44,1.21 -1.64,0.01 -0.65,-0.35 -0.84,-1.1 -2.46,0.3 -1.84,-0.47 -0.8,-1.05 0.48,-1.12 -0.14,-0.57 -1.31,-1.02 -1.34,-0.19 -0.4,-0.32 -0.9,-1.29 -0.68,-2.52 -0.61,0.09 -0.76,0.93 -0.17,-0.91 -0.4,-0.33 -1.44,1.05 -0.46,-0.7 -1.07,0.11 -1.22,-0.86 -5.42,0.91 -0.63,-0.26 -0.33,-1.34 -0.68,-0.48 -3.66,-0.81 -1.44,0.19 0,0 -0.74,0.11 -3.06,-0.55 -1.12,-0.49 -0.77,-0.85 0.14,-1.16 1.95,-2.55 -0.5,-0.88 -0.05,-0.93 -1.31,-1.28 -0.14,-1.4 -0.75,-1.4 0.14,-2.45 0,0 0.54,0.04 1.6,-1.05 0.53,-0.06 0.01,-0.53 0.51,-0.35 0.88,-0.1 1.21,-0.96 1.67,-0.8 0.91,3.49 0.69,0.67 0.8,0.11 0.62,0.65 -0.24,1.23 0.39,0.82 3.93,1.35 0.1,0.35 0.77,0.22 0.68,-0.46 1.33,-0.19 1.22,-1.87 -0.06,-2.35 -0.71,-0.87 0.21,-0.52 1.76,-0.38 2.34,1.39 0.98,-0.02 -0.01,-3.59 -0.75,-3.26 -0.81,-0.78 -3.51,-1.34 -0.43,-2.13 -0.9,-2.14 0.34,-1.56 1.18,-1.33 0.4,-1.07 1.78,-1.53 0,0 1.27,1.03 2.2,0.77 4.38,-0.13 4.88,-1.47 6.62,-2.74 2.27,-1.35 0.49,0.15 z" 
                fill="rgb(151, 144, 238)" 
                stroke="white" 
                stroke-width=".7px"
                title="Samsun" 
                id="TR-55" 
            />
        </svg>