<svg xmlns="http://www.w3.org/2000/svg" viewBox="647.55477 208.89265 64.12 32.859999999999985" width="64.12" height="32.859999999999985">
            <path 
                d="m 663.02477,208.99265 1.39,0.32 2,-0.42 0.93,0.12 1.25,1.95 1.72,0.61 4.45,-0.8 0.14,1.26 0.91,0.35 1.57,-0.04 1.92,-1.69 1.5,-0.39 2.68,-0.26 1.53,0.37 1.42,1.16 3.64,4.67 4.01,3.79 1.13,1.94 1.11,0.71 1.95,0.33 -0.25,0.42 0.43,0.14 0.5,0.74 0.72,-0.26 0.07,-0.82 0.59,-0.17 -0.34,-0.96 2.25,-0.9 0.67,-1.16 0,0 1.6,1.19 1.37,2.58 0.86,0.7 1,0.25 1.94,4.95 1.7,1.31 0,0 -0.46,1.01 0.75,3.67 -0.05,2.9 -5.36,-1.96 -4.8,-0.26 -3.7,-2.38 -0.88,-0.12 -1.68,0.56 -6.83,6.29 -2.48,1.06 -3.35,-0.04 -0.62,-0.95 -1.12,-0.4 -1.28,0.33 -0.72,0.88 -0.96,0.07 -0.48,-0.44 -0.36,0.27 -0.83,-0.16 -0.18,-0.37 -0.5,-0.01 -0.74,-0.53 -2.18,0.54 -1.23,-0.22 -1.02,-0.76 -1.84,-2.38 -0.63,-0.35 0,0 -0.17,-0.67 -2.01,-0.8 -2.32,0.48 -2.22,-1.28 -2.83,-0.4 -1.26,-2.25 -2.89,-1.52 -0.55,-1.12 -1.62,-1.6 -4.43,-3 0.06,-1.02 0.44,-0.99 5.14,-4.96 1.47,-0.71 3.1,-0.64 2.01,-1.37 0.9,-1.26 1.26,-3.97 z" 
                fill="rgb(151, 144, 238)" 
                stroke="white" 
                stroke-width=".7px"
                title="Siirt" 
                id="TR-56" 
            />
        </svg>