<svg xmlns="http://www.w3.org/2000/svg" viewBox="354.86477 0.8226519000000239 52.160000000000025 49.23000009999999" width="52.160000000000025" height="49.23000009999999">
            <path 
                d="m 384.58477,0.9626519 2.35,0.11 1.52,1.85 -0.26,0.98 1.47,0.84 2.26,0.1 1.48,-0.89 0.81,0.02 0.76,1.09 -0.04,0.37 -2.55,-0.55 -1.13,0.75 -0.55,1.9 -0.36,0.35 -0.22,2.6100001 1.49,2.69 0.11,0.85 1.8,2.15 1.24,0.8 -0.43,0.54 0.46,1.27 2.5,1.88 -0.07,0.58 0.51,0.57 5.85,1.88 0.74,0.84 0,0 -1.77,1.53 -0.4,1.07 -1.18,1.33 -0.34,1.56 0.9,2.14 0.43,2.13 3.51,1.34 0.81,0.77 0.73,3.22 0.01,3.6 -0.98,0.02 -2.34,-1.4 -1.75,0.39 -0.21,0.51 0.71,0.87 0.06,2.34 -1.22,1.88 -1.32,0.19 -0.68,0.46 -0.77,-0.22 -0.1,-0.35 -3.93,-1.35 -0.39,-0.82 0.24,-1.23 -0.62,-0.65 -0.8,-0.11 -0.69,-0.68 -0.91,-3.48 -1.67,0.79 -1.21,0.96 -0.88,0.11 -0.52,0.34 -0.01,0.53 -0.53,0.06 -1.61,1.05 -0.54,-0.04 0,0 -0.31,-0.15 0.02,0.49 -0.73,0.2 0.43,0.54 -0.39,1.13 -1.57,0.64 -0.82,1.61 -1.06,0.23 -1.83,-0.17 -1.79,1.72 -0.88,0.41 -2.57,-0.13 -2.38,-1.56 -1.23,-2.82 -1.47,-0.33 -1.86,-1.67 -0.75,0.04 -1.29,0.99 0,0 -1.02,-2.7 0.78,-1.92 1.68,-2.14 0.48,-1.9 0.05,-0.75 -0.91,-1.42 -0.07,-0.75 0.31,-0.58 3.27,-2.47 1.5,-4.27 -0.06,-1.31 -0.66,-0.84 -1.77,-1.06 -3.19,-0.24 -1.67,-0.79 -0.81,-0.74 -0.13,-1.71 -0.64,-0.99 -2.08,-0.31 -1.93,0.41 -0.9,-0.33 -0.19,-0.67 0.93,-0.56 -0.13,-0.76 0.57,-0.92 -0.57,-1.31 -0.03,-1.39 -1.81,-1.62 -0.01,-1.6500001 0,0 2.39,0.49 1.24,-0.12 0.37,-0.35 0.69,0.22 1.56,-0.29 1.17,-0.64 2.38,-0.19 0.57,-0.58 0.47,0.25 0.16,0.78 1.58,0.53 5.06,0.38 2.28,-0.03 2.58,-0.43 1.85,-0.91 3.19,-3.02 1.79,-2.96 -0.19,-1.19 z" 
                fill="rgb(151, 144, 238)" 
                stroke="white" 
                stroke-width=".7px"
                title="Sinop" 
                id="TR-57" 
            />
        </svg>