<svg xmlns="http://www.w3.org/2000/svg" viewBox="420.0447699999998 88.182652 121.56000000000012 104.28999800000001" width="121.56000000000012" height="104.28999800000001">
            <path 
                d="m 512.94477,88.182652 0.86,0.63 2.84,0.72 0.84,0.58 0.1,1.02 -0.98,2.91 0.31,3.84 -0.1,2.679998 1.13,1.55 0.4,1.72 0.73,0.69 0.87,0.36 3.37,0.46 0.34,0.84 0.58,0.01 1.4,1.09 0.92,0.23 0.37,-0.45 0.41,0.16 0.07,-0.33 0.82,-0.25 0.27,0.76 0.67,0.24 2.09,-1.75 0.48,-0.05 0.61,0.88 0.16,2.45 0.55,0.45 2.75,1.29 1.77,-0.16 1.99,0.58 2.04,-0.08 0,0 -0.58,1.95 -0.68,0.66 -1.64,0.19 -0.69,0.47 -1.19,-0.41 -0.75,0.22 -1.82,1.27 -1.39,1.55 -4.72,-0.48 -1.7,1.12 -0.83,1.07 -0.15,1.12 0.28,1.14 1.38,0.92 0.56,1.19 1.96,0.85 0.24,0.49 -0.55,0.7 -4,2.66 -0.06,1.73 -1.67,3.61 0.88,4.02 -0.03,1.09 -0.32,1.07 -1.31,1.56 -0.25,1.24 1.32,3.49 0.91,0.71 1.64,0.27 0.35,0.75 -0.13,1.1 -0.44,0.69 -1.77,0 -1.02,0.7 0.08,0.57 2.36,2.89 0.64,1.8 -0.31,1.43 -2.47,3.62 -0.25,0.89 0,0 -0.56,-0.09 -1.92,0.59 -2.83,2.42 -1.07,0.32 -9.65,0.14 -1.36,-0.28 -1.97,-0.92 -2.43,-0.03 -0.8,0.41 -0.46,1.03 0.2,0.85 1.31,2.07 -0.12,0.79 -0.96,0.76 -2.3,-0.19 -2.41,-0.82 -5.01,-1.05 -2.21,0.13 -0.39,0.42 0.03,0.52 2.03,2.68 0.22,1.52 -0.52,1.9 -1.63,1.56 -0.26,0.81 3.57,4.31 0.42,0.85 -0.24,0.52 -1.75,0.95 -4.36,1.86 -0.59,0.95 -0.16,2 -0.66,1.99 -2.38,2.08 0,0 -0.36,-0.55 -0.71,-0.32 -4.41,0.37 -6.86,-1.29 -2.19,0.22 -7.29,1.83 0,0 -0.29,-1.37 -2.89,-4.58 -0.23,-1.26 0.63,-1.21 2.06,-1.13 0.96,-0.9 0.26,-0.86 -0.14,-1.97 0.5,-2.16 1.99,-3.72 1.51,-1.17 1.6,-1.77 -0.17,-1.32 -1.8,-4.02 -2.65,-2.24 -2.09,-1.08 -2.05,-0.66 -2.2,0.04 -3.66,0.88 -2.01,-0.05 -2.53,-0.66 -4.56,0.06 -6.58,1.68 -4.16,-0.12 -0.75,-0.53 -1.04,-2.16 -1.92,-1.12 -0.44,-1.8 -0.59,-0.81 -5.93,-2.87 -1.23,-0.23 0,0 0.49,-1.4 3.06,-3.58 0.07,-5.34 0.72,-1.4 3.2,-1.25 2.51,1.18 1.97,-0.34 3.9,-3.6 0.39,-0.78 0.06,-0.63 -0.72,-2.34 -0.11,-2.52 -0.43,-0.68 -1.53,-1.06 -1.54,-2.43 0.05,-2 0.57,-2.62 -0.41,-0.3 -2.23,-0.38 -0.82,-0.69 -0.43,-1.01 0.24,-2.15 0,0 0.8,0.15 1.97,2.02 1.56,0.17 0.52,-0.34 0.29,-2.48 1.88,-0.98 1.66,-0.19 11.49,0.5 1.64,-0.36 2.88,-1.26 0.75,-0.55 0.7,-1.44 0.43,-4.86 0.32,-0.84 1.62,-0.58 1.63,-3.12 1.92,-0.97 3.63,0.14 5.8,-0.34 1.89,1.31 0.82,-0.42 1.48,-0.23 3.79,0.19 1.87,1.07 2.52,-0.04 1.28,1.29 1.81,-0.13 0.37,-0.37 0,-1.96 1.16,-0.69 2.71,-0.76 1.54,-0.78 0.38,-0.46 -0.82,-0.22 -0.17,-0.609998 0.64,-0.76 2.1,-1.32 1.8,-2.9 0,0 4.27,0.81 0.79,-1.18 0.86,-0.19 1.51,1.42 0.53,-0.06 2.07,-1.45 1.63,-2.03 -0.01,-1.37 0.62,-0.79 0.92,-0.51 2.09,0.18 z" 
                fill="rgb(151, 144, 238)" 
                stroke="white" 
                stroke-width=".7px"
                title="Sivas" 
                id="TR-58" 
            />
        </svg>