<svg xmlns="http://www.w3.org/2000/svg" viewBox="41.784774000000006 28.412652 61.50999599999998 57.549999999999976" width="61.50999599999998" height="57.549999999999976">
            <path 
                d="m 52.674774,44.302652 1.2,-1.44 1.04,-0.63 0.53,0.45 2.52,0.15 3.82,-0.92 3.16,-0.05 1.75,1.3 1.1,3.01 4.54,3.82 0.29,-0.05 3.17,-1.15 1.21,-1.68 1.66,-1.28 1.66,-6.39 2.16,-1.86 1.57,-0.63 2.16,-0.34 2.62,-1.36 3.54,-0.39 3.65,-2.64 2.48,-0.97 1.569996,-1.33 0.71,-0.05 0.21,-0.62 -0.23,-0.13 0.39,-0.58 0.99,0.07 0.11,-0.2 0.55,0.27 0,0 0.49,0.61 0,0 -1.52,5.57 -0.89,6.77 -0.74,3.31 -2.389996,4.07 -0.19,1.16 0.21,1.27 -1.75,3.51 0.18,0.5 -0.27,0.21 -0.14,1.13 0.33,0.39 -0.26,0.64 0.89,1.96 0,0 -0.58,0.84 -0.12,1.33 -0.94,0.48 0.03,0.32 0.39,0.08 -0.33,0.26 -1.45,-0.3 -1.9,0.21 -0.53,-0.24 -0.97,-1.15 -3.58,-1.3 -3.22,0.62 -2.94,0.98 -3.85,0.63 -1.79,3.43 -0.6,3.59 -2.58,2.11 -2.02,2.21 -1.05,2.83 -0.86,1.02 -2.29,1.8 -2.19,1.17 -0.49,0.71 -2.08,0.85 -2.49,0.31 -1,0.41 -1.76,1.56 -0.34,0.74 -2.72,0.68 0,0 -0.33,-0.98 0.28,-1.97 1.42,-2.95 0.39,-1.51 1.43,-2.54 0.08,-0.8 -0.93,-0.59 -2.18,-0.46 -2.12,0.33 -3.84,-0.05 0,0 -1.36,-1.91 -1.9,-1.81 -0.7,-1.44 -0.03,-0.92 0.8,-2.37 -0.51,-2.79 0.66,-0.93 0.18,-1.25 -0.32,-0.65 -1.68,-0.74 -0.06,-0.51 0.86,-1.05 4.33,-0.66 4.09,-4.06 2.39,-4.17 -0.02,-1.36 -0.78,-2.38 z" 
                fill="rgb(151, 144, 238)" 
                stroke="white" 
                stroke-width=".7px"
                title="Tekirdağ" 
                id="TR-59" 
            />
        </svg>