<svg xmlns="http://www.w3.org/2000/svg" viewBox="405.34477000000015 67.57265199999998 91.26999999999992 52.80999800000005" width="91.26999999999992" height="52.80999800000005">
            <path 
                d="m 444.51477,70.402652 1.12,-0.12 0.87,-1.12 0.74,-0.4 0.67,-0.15 0.91,0.46 1.14,-0.84 2.3,-0.57 2.52,-0.09 1.33,0.68 0.61,0.82 0,0 1.87,1.19 0.26,1.44 0.9,-0.08 1.05,0.98 0.54,-0.23 0.8,0.39 0.59,-0.18 0.93,0.71 0.06,2.69 0.84,1.04 2.35,-0.1 1.32,1.4 0.95,0.24 4.06,-1.33 1.37,1.15 1.1,-0.11 0.3,1.13 1.69,0.64 4.16,4.44 1.68,0.86 0.92,0.89 1.28,-0.13 1.81,0.38 3.15,-0.34 4.82,1.37 0.36,0.9 -1.4,1.37 -0.5,1.54 0.12,0.24 0.93,-0.07 1.58,1.37 -0.9,2.06 0,0 -1.8,2.9 -2.1,1.32 -0.64,0.76 0.17,0.609998 0.82,0.22 -0.38,0.46 -1.54,0.78 -2.71,0.76 -1.16,0.69 0,1.96 -0.37,0.37 -1.81,0.13 -1.28,-1.29 -2.52,0.04 -1.87,-1.07 -3.79,-0.19 -1.48,0.23 -0.82,0.42 -1.89,-1.31 -5.8,0.34 -3.63,-0.14 -1.92,0.97 -1.63,3.12 -1.62,0.58 -0.32,0.84 -0.43,4.86 -0.7,1.44 -0.75,0.55 -2.88,1.26 -1.64,0.36 -11.49,-0.5 -1.66,0.19 -1.88,0.98 -0.29,2.48 -0.52,0.34 -1.56,-0.17 -1.97,-2.02 -0.8,-0.15 0,0 -0.89,-0.32 -0.65,-1.16 -0.07,-4.45 -0.72,-1.87 -1,-0.3 -3.34,0.39 -3.28,-0.37 -2.41,0.83 -1.99,0.12 -1.5,-1.02 -4.52,-0.59 -0.49,-0.78 0.35,-2.33 -1.03,-1.18 -1.71,-1.09 -0.45,-1.34 -0.01,-1.8 0,0 4.77,-3.049998 1.98,-0.75 2.79,-0.33 1.25,-1.17 1.22,-0.5 0.17,-1.71 2.54,-1.62 1.07,-3.09 1.15,0.19 0.21,-0.23 1.11,0.12 0.26,-0.29 1.08,0.25 0.76,-0.3 0.75,0.21 0.27,-0.24 1.65,0.87 -0.29,0.38 0.2,0.56 2.27,0.49 1.55,0.92 0.11,-0.77 1.05,-0.86 2.52,-0.76 1.85,-1.01 0.42,-0.76 0.65,0.04 0.88,-2.2 1.54,-0.7 0.5,-0.98 -0.36,-0.25 -2.32,-0.19 -0.57,-0.66 0.29,-0.61 1.83,-0.41 2.8,0.45 0.99,-0.48 0.83,-1.08 0.26,-0.93 -0.4,-1.33 0.16,-1.12 1.58,-2.08 1.67,-0.84 -3.37,-1.79 -0.61,-1.04 z" 
                fill="rgb(151, 144, 238)" 
                stroke="white" 
                stroke-width=".7px"
                title="Tokat" 
                id="TR-60" 
            />
        </svg>