<svg xmlns="http://www.w3.org/2000/svg" viewBox="558.6647699999996 55.25265200000001 55.60000000000025 32.65999999999998" width="55.60000000000025" height="32.65999999999998">
            <path 
                d="m 569.59477,55.592652 2.24,0.56 3.4,3.67 2.5,0.87 0.64,0.61 1.01,0.07 2.05,-0.84 1.09,0.57 1.35,-0.13 2.05,0.98 1.01,1.41 0.78,0.27 2.5,-0.02 2.54,-0.52 0.63,0.38 1.24,-0.05 1.71,1.88 1.7,0.58 2.47,-0.09 2.05,-0.76 3.58,-2.67 0,0 0.68,0.73 1.93,0.65 0.96,-0.14 0.35,0.59 -0.35,1.18 0.28,1.15 0.87,1.21 1.2,0.82 -0.1,1.52 -0.96,1.94 0.06,0.97 0.65,1.72 2.19,2.2 0.37,1 -0.39,1.47 -1.79,1.93 -0.5,1.41 0.18,0.95 1.34,2.12 -0.04,1.19 0,0 -4.1,0.79 -3.19,-0.3 -1.43,0.45 0,0 -0.79,-1.12 -1.82,-0.81 -0.92,-1.12 -2.44,0.59 -1.11,-1.23 -1.07,-0.4 -0.09,-0.81 0.56,-1.13 -2.19,-1.58 -3.02,0.44 -0.22,0.67 0.23,0.76 2.83,1.28 0.56,1.11 -0.36,0.74 -1.37,-0.03 -0.78,0.79 -0.72,-0.07 -0.41,-0.34 -0.53,-1.55 -1.68,-0.63 -1.56,-1.01 -1.29,-0.16 -0.11,-0.46 0.93,-2.78 -0.16,-1.39 -0.43,-0.23 -0.73,0.13 -0.93,-0.29 -0.59,0.36 -0.44,3.96 -0.68,1.18 -1.47,1.18 -4.32,0.18 -1.34,-0.81 -1.2,-1.49 -1.83,0.43 -0.86,-0.24 -0.53,-1.95 -1.58,-0.32 -1.17,-1.76 -1.16,-0.83 -2.28,-0.46 -1.69,-0.85 -2.01,-0.02 -0.76,-0.34 -0.83,-0.97 -0.99,-0.14 0,0 -0.2,-0.86 0.35,-1.48 -0.48,-1.48 0.57,-2.13 -0.3,-1.58 0.63,-2.73 -0.24,-2.01 -0.46,-0.31 0.19,-4.78 0,0 1.13,0.04 0.76,0.87 1,0.51 1.26,-0.01 2.86,-1.2 2.9,-1.99 z" 
                fill="rgb(151, 144, 238)" 
                stroke="white" 
                stroke-width=".7px"
                title="Trabzon" 
                id="TR-61" 
            />
        </svg>