<svg xmlns="http://www.w3.org/2000/svg" viewBox="540.59477 135.80264999999997 69.50999999999999 45.30999999999992" width="69.50999999999999" height="45.30999999999992">
            <path 
                d="m 541.50477,167.06265 -0.27,-0.38 -0.27,-2.17 0.16,-1.56 -0.48,-0.47 -0.05,-0.78 0.08,-0.6 0.55,-0.31 0.68,-1.56 -0.74,-0.37 -0.47,-0.7 0.3,-0.77 0.49,-0.31 3.14,-0.66 2.2,-1.55 0.07,-0.43 -1.09,-2.56 0.33,-1.66 4.73,-3.8 8.36,-3.97 1,-0.03 3.73,0.96 2.78,0.22 2.28,-0.41 3.73,-1.4 8.8,1.26 1.67,-1.14 0.44,-3.36 1.19,-2.02 1.8,-0.73 1.23,0.69 2.88,0.34 1.74,0.82 1.91,0.09 1.75,1.17 2.35,-0.6 2.62,-1.24 1.61,0.52 4.32,0.61 1.76,1.05 1.29,2 0,0 -1.54,1.91 -2.78,1.66 -2.22,2.83 -3.43,2.29 -2.71,0.29 -3.74,-0.95 -1.11,0.14 -0.27,0.92 1.42,2.1 0.04,1.23 -0.75,0.79 -1,0.45 -0.88,1.04 -0.64,2.48 -0.54,1.02 0.04,1.69 -1.1,1.47 0.25,0.56 0,0 -1.93,2.35 0.01,0.56 0.82,0.42 0.81,1.49 -0.69,1.34 -0.62,2.32 -0.02,1.32 -0.37,0.6 -0.74,0.32 0.1,0.71 -0.94,0.39 -0.54,1.41 -0.16,1.59 -0.46,0.13 -1.27,-0.83 -3.51,0.96 -3.05,-0.3 -2.32,0.77 -0.62,-0.39 -0.49,1.14 -0.45,0.22 0.06,1.11 -0.94,0.31 -1.34,-0.19 -0.86,-0.97 -1.68,0.8 -0.16,-1.07 -0.58,-0.65 -1.16,-0.65 -1.63,-0.32 -1.92,-2.06 -3.3,-0.18 -1.98,-0.66 -1.13,-0.06 -1.35,-0.7 -3.36,-0.08 -1.21,-0.39 -1.67,0.61 -2.65,1.65 -4.02,-1.34 -0.49,-0.68 -0.07,-0.69 1.93,-3.31 -0.31,-1.75 -1,-0.68 z" 
                fill="rgb(151, 144, 238)" 
                stroke="white" 
                stroke-width=".7px"
                title="Tunceli" 
                id="TR-62" 
            />
        </svg>