<svg xmlns="http://www.w3.org/2000/svg" viewBox="127.26477000000001 171.98265000000004 53.62999999999998 40.71999999999997" width="53.62999999999998" height="40.71999999999997">
            <path 
                d="m 141.68477,177.83265 4.93,-0.54 1.75,0.55 0.84,0.95 1.6,-0.01 1.41,-0.96 1.04,-1.57 1.16,-0.92 8.58,-2.92 4.21,-0.43 9.37,1.14 0.88,0.86 1,2.98 0.54,0.41 1.88,0.48 0,0 0.02,1.16 -0.62,1.42 -1.71,0.92 -0.79,1.25 -1.01,0.52 -0.42,0.69 -0.05,1.72 1.1,1.18 -0.05,1.12 -1.55,0.89 -2.3,3.85 -2.39,2.28 0,0 -4.83,3.62 -2.11,1.09 -0.2,0.64 0.39,1.26 -0.17,1.69 0.36,2.25 -0.48,1.05 -0.81,0.64 -1.38,0.17 -1.9,-0.98 -2.9,-0.35 -2.4,-1.18 -2.11,-0.34 -0.91,0.13 -0.92,0.58 -1.7,2.83 -0.83,0.55 0.32,1.38 -1.2,0.34 -0.04,1.18 -0.51,1.3 -0.83,-0.76 -0.54,-2.63 -1.93,-0.32 -2.82,0.38 -1.79,-0.37 -1.57,0.41 -3.24,-0.67 -2.58,0.46 0,0 -0.73,-1.3 -1.51,-1.08 -0.42,-1.69 -1.38,-1.15 -0.17,-0.51 2.76,-4.54 -0.01,-2.16 0.74,-1.29 0.94,-5.29 0.25,-3.26 1.05,-1.36 2.62,-0.2 1.21,-0.83 1.73,-0.64 0.63,-0.59 0.73,-1.03 0.61,-2.4 1.19,-1.37 z" 
                fill="rgb(151, 144, 238)" 
                stroke="white" 
                stroke-width=".7px"
                title="Uşak" 
                id="TR-64" 
            />
        </svg>