<svg xmlns="http://www.w3.org/2000/svg" viewBox="702.6947700000011 148.57265000000007 76.92999999999961 87.95999999999998" width="76.92999999999961" height="87.95999999999998">
            <path 
                d="m 759.96477,149.24265 0.88,0.56 0.79,1.33 0.19,1.93 0.95,0.41 -0.76,1.67 0.67,0.84 -0.3,1.13 0.12,0.69 0.89,0.94 1.97,0.59 1.94,2.32 -0.17,0.93 0.62,1.1 -0.9,0.34 -0.4,0.83 0.51,0.79 -0.32,0.78 0.59,1.15 -1.29,0.59 -0.38,0.96 0.71,0.71 -0.29,1.14 0.73,0.38 -0.37,0.82 0.34,0.62 0.85,0.3 -0.32,1.41 1.42,1.1 -0.16,0.67 0.2,0.28 0.47,0.25 0.82,-0.42 0.94,0.8 -0.21,0.69 0.78,0.96 -0.42,0.22 -0.15,0.7 -0.55,0.32 0.16,1.04 -0.58,1.1 0.08,0.61 -0.77,0.94 0.02,0.53 0.4,0.11 0.05,1.07 0.39,0.25 0.01,0.86 -0.46,0.69 1.42,0.68 0.72,1 -0.24,0.92 0.34,1.11 -0.5,0.85 -0.12,1.69 0.66,2.34 -0.49,0.42 -0.43,1.61 0.57,0.81 0.09,1.11 -0.31,0.7 -0.36,0.15 0.74,1.12 1.63,-0.15 0.83,0.88 2.81,-1.43 0.6,1.38 1.19,0.14 0.82,0.76 -0.05,0.37 -0.56,0.11 -0.02,1.46 -1.3,0.69 -2.64,2.11 -0.14,0.71 0.47,0.93 -0.76,3.83 -0.51,0.49 -1.17,0.21 0.7,1.54 -1.59,0.23 0.1,0.65 -0.81,0.9 -0.13,1.55 -1.38,1.36 -0.14,1.15 -1.16,1.56 0.41,1.12 -0.32,0.71 -0.37,0.09 -0.13,1.33 -0.37,0.7 1.79,1.07 0.83,-0.27 0.33,0.38 1.04,-0.58 1.82,0.76 1.09,-0.03 0.61,0.82 -0.44,0.75 0.08,0.62 0.75,0.28 0.5,0.9 0.96,-0.47 -0.22,1.66 0.19,0.29 0,0 -1.91,1.01 -3.76,-0.28 -1.36,1.28 -0.62,0.22 -2.74,-0.54 -2.82,0.02 -0.58,-0.66 -0.68,-1.88 -0.99,-0.75 -1.78,-0.64 -2.37,0.22 -2.79,1.07 -5.77,-0.55 -1.84,0.47 -2.47,1.29 -1.89,-0.01 -1.42,0.44 -1.3,-0.43 -1.55,0 -1.85,-0.61 0,0 -1.21,-0.3 -1.38,0.15 -2.87,3.16 -1.01,0.42 -1.34,0.09 -2.69,-0.69 -1.7,0.16 -2.3,-1.03 -2.79,-0.04 -3.3,-2.58 -3.87,-1.68 -0.75,0.31 0,0 -1.7,-1.31 -1.94,-4.95 -1,-0.25 -0.86,-0.7 -1.37,-2.58 -1.6,-1.19 0,0 0.17,-2.28 0.46,-1.25 0,-2 0.42,-0.69 0.81,-3.91 -0.41,-2.41 -0.37,-0.62 -1.29,-0.64 -0.01,-1.21 1.13,-1.23 1.66,-0.69 1.86,-1.29 -0.19,-4.03 0.55,-2.12 6.47,-9.67 4.04,-3.75 5.67,-3.38 1.39,-1.59 0.82,-1.59 0.11,-0.77 -0.3,-0.68 -1.15,-0.77 -3.95,-1.53 -1.03,-2.39 -2.02,-1.91 -1.11,-0.64 0,0 1.05,-2.55 1.2,-1.06 0.9,-1.98 0.89,-0.97 3.17,-2.31 0.6,-2.65 -1,-2.71 0.15,-2.07 0.42,-0.54 3.29,-1.24 1.4,-0.15 2.26,-0.08 3.14,0.45 0.8,0.4 1.05,1.07 2.36,3.27 1.01,0.87 4.3,2.27 3.24,0.41 3.25,-2.87 1.46,-3.06 1.55,-1.81 0.77,-0.41 3.11,0.02 2.93,-0.69 0,0 z" 
                fill="rgb(151, 144, 238)" 
                stroke="white" 
                stroke-width=".7px"
                title="Van" 
                id="TR-65" 
            />
        </svg>