<svg xmlns="http://www.w3.org/2000/svg" viewBox="129.11477000000002 77.362652 27.96999999999997 13.200000000000017" width="27.96999999999997" height="13.200000000000017">
            <path 
                d="m 155.74477,78.062652 1.22,-0.33 0,0 -0.24,2.08 0.36,3.78 -0.26,0.86 -0.74,0.35 0.21,0.48 0,0 -1.67,0.2 -1.1,-0.33 -2.07,0.04 -3.09,1.35 -1.84,0.41 -3.3,-0.72 -2.85,-0.06 -2.7,-1.05 0,3.65 -0.63,1.79 0,0 -3.01,-0.79 -1.85,-1.76 -3.05,-0.67 -0.02,-0.98 0.55,-0.85 0.94,-0.7 2.93,-0.91 1.85,-1.08 0.81,-0.69 0.62,-1.1 1.05,-0.54 2.51,-0.23 2.33,0.25 1.19,-0.31 0.26,-0.64 0.88,0.33 4.51,-0.19 2.86,-0.81 1.46,-1.51 0.65,-0.02 z" 
                fill="rgb(151, 144, 238)" 
                stroke="white" 
                stroke-width=".7px"
                title="Yalova" 
                id="TR-77" 
            />
        </svg>