<svg xmlns="http://www.w3.org/2000/svg" viewBox="347.7647699999998 100.78265 88.65000000000009 69.66000000000004" width="88.65000000000009" height="69.66000000000004">
            <path 
                d="m 405.34477,100.78265 0.01,1.8 0.45,1.34 1.71,1.09 1.03,1.18 -0.35,2.33 0.49,0.78 4.52,0.59 1.5,1.02 1.99,-0.12 2.41,-0.83 3.28,0.37 3.34,-0.39 1,0.3 0.72,1.87 0.07,4.45 0.65,1.16 0.89,0.32 0,0 -0.24,2.15 0.43,1.01 0.82,0.69 2.23,0.38 0.41,0.3 -0.57,2.62 -0.05,2 1.54,2.43 1.53,1.06 0.43,0.68 0.11,2.52 0.72,2.34 -0.06,0.63 -0.39,0.78 -3.9,3.6 -1.97,0.34 -2.51,-1.18 -3.2,1.25 -0.72,1.4 -0.07,5.34 -3.06,3.58 -0.49,1.4 0,0 -2.11,3.06 -2.06,1.06 -2.66,0.67 -6.32,0.18 -1.3,0.53 -0.95,0.88 -0.14,0.79 1.46,2.99 -0.05,0.69 -1.42,0.93 -1.84,1.92 -2.51,1.32 -2.07,0.34 -3.22,1.72 -0.82,-0.58 0.09,-2.74 -0.37,-0.77 -1.19,-0.02 -2.96,1.69 0,0 -0.39,-1.47 -1.55,-2.05 0.07,-3.39 -0.88,-2.83 -0.79,-0.83 0.71,-2.09 -0.31,-1.72 -0.4,-0.65 -2.02,-2.16 -1.75,-0.89 -2.76,-0.64 -2.6,-0.19 -3.19,-1.43 -0.48,-0.52 -0.1,-1.13 0,0 -0.2,-1.2 -1.39,-1.62 -0.86,-0.61 -2.77,-0.93 -0.61,-0.66 -0.04,-0.7 2.31,-2.1 0.01,-0.33 -0.73,-0.04 0.03,-0.65 -5.03,-0.91 -0.81,-2.43 -0.87,-0.81 -2.3,-1.16 -2.08,-0.57 -3.03,-2.09 -0.44,-0.64 -0.52,-2.33 -0.71,-0.84 -0.86,-0.17 -0.4,0.42 -1.23,0.01 -0.49,-0.26 0,0 0.27,-1.55 -0.69,-1.3 -0.29,-1.64 -1.52,-1.08 -0.15,-1.03 0.97,-0.78 2.43,-0.54 0,0 -0.1,1.2 0.5,0.6 3.59,-1.08 3.67,0.71 1.3,-0.09 0.91,-0.53 -0.04,-1.1 0.27,-0.26 2.37,-2.06 1.48,-0.68 1.71,0.4 1.73,1.78 2.65,0.58 2.75,-1.21 5.22,-0.3 0.9,-0.85 1.51,-2.36 1.19,-0.61 0.85,0.54 0.05,2 0.26,0.33 4.28,-0.09 2.65,-0.78 3.71,0.08 0.67,-0.65 0.22,-0.81 -1.69,-2.17 -0.33,-1.37 0.46,-0.81 1.34,-0.49 0.26,-0.46 -0.21,-0.54 -1.94,-1.97 -0.02,-0.98 0.61,-0.45 0.57,0.04 1.46,1.64 0.97,0.25 2.14,-2.6 1.33,-0.69 2.21,-0.38 0,0 1.17,0.03 z" 
                fill="rgb(151, 144, 238)" 
                stroke="white" 
                stroke-width=".7px"
                title="Yozgat" 
                id="TR-66" 
            />
        </svg>