<svg xmlns="http://www.w3.org/2000/svg" viewBox="233.59477 28.372652 41.190000000000026 32.510000000000005" width="41.190000000000026" height="32.510000000000005">
            <path 
                d="m 267.67477,28.372652 0.57,1.39 1.84,2.51 2.82,0.44 -0.02,2.88 0.36,0.81 1.54,1.42 -0.46,1.14 0.46,1.23 -1.56,3.31 0,0 -1.31,0.8 -0.72,0.99 -0.41,0.83 -0.45,3.48 -0.84,1.49 0.12,1.48 1.59,3.3 0,0 -3.79,0.73 -4.15,1.45 -4,0.52 -3.64,1.31 -1.32,-0.11 -1.92,-1.42 -4.98,0.39 -2.66,-0.35 -2.85,0.78 -1.86,1.02 0,0 -2.24,0.69 -2.52,-0.5 -0.69,-1.1 0,-3.03 -0.99,-1.73 0,0 1.39,-0.95 0.16,-0.85 1.6,-1.41 0.06,-0.59 0.94,-1.12 -0.13,-1.78 0.68,-1.77 -0.44,-0.65 -0.55,-0.01 -0.18,-0.29 0.26,-1.25 0.86,0 0.47,-0.56 1.01,-0.2 1.91,-1.36 2.4,-0.92 2.19,-0.44 5.68,-3.42 0.35,-0.7 2.72,-1.42 1.85,-1.6 5.6,-2.24 1.82,-1.71 z" 
                fill="rgb(151, 144, 238)" 
                stroke="white" 
                stroke-width=".7px"
                title="Zonguldak" 
                id="TR-67" 
            />
        </svg>