<svg xmlns="http://www.w3.org/2000/svg" viewBox="276.2247699999997 51.89265200000002 75.60000000000014 48.809998" width="75.60000000000014" height="48.809998">
            <path 
                d="m 301.26477,52.082652 2.27,0.24 0.65,0.48 1.41,1.73 0.26,1.71 1.14,1.03 0.89,0.12 1.37,-0.47 2.13,-0.01 4.23,1.65 0.78,1 1.21,0.28 1.1,-0.12 1.4,-1.02 1.13,-0.27 1.18,-1.3 1.27,-0.58 0.82,0.36 1.59,2.07 1.75,0.32 6.62,-1.6 2.84,-1.7 2.08,-0.6 0.33,0.54 -0.21,1.36 -1.14,2.75 -1.61,2.28 -0.14,0.77 0.26,0.84 2.26,3.22 1.74,1.5 3.79,0.68 2.32,1.11 1.46,0.31 0,0 0.07,1.95 -0.8,2.11 -0.11,1.24 0.64,1.08 2.64,1.49 0.57,0.78 -1.23,2.7 0.17,1.57 0.48,1.08 -0.83,1.89 0.24,0.67 1.25,0.98 0.29,3.62 -3.34,5.66 -2.03,1.98 -2.72,0.659998 -0.24,0.48 0,0 -4.51,-0.44 -2.04,-2.149998 -3.66,-0.7 0,0 -0.1,-0.68 -0.7,-0.36 -2.84,-0.22 -3.73,-0.92 -3.43,0.41 -1.18,-1.49 -2.6,-0.49 -0.81,0.46 -0.77,2.03 -1.35,0.1 -0.98,1.05 -0.8,-0.53 -1.93,-3.02 -1.85,-4 -2.71,-0.79 -2.67,-1.36 -3.76,-0.03 0.95,-3.58 -0.66,-1.56 -3.09,-0.54 -1.79,-0.65 -7.34,-4.32 -1.35,-0.11 -2.57,0.38 0,0 0,-1.71 1.03,-3.2 -0.07,-0.8 -3.09,-4.71 -1.19,-0.06 -2.72,0.67 -0.84,-0.49 -0.29,-0.97 0.24,-2.45 -1.61,-4.07 -0.46,-2.82 0,0 1.64,0.32 2.07,-0.05 2.8,1.56 2.99,0.11 1.41,2.24 0.94,-0.17 1.23,-2.27 0.58,-0.1 4.71,1.84 0.34,-0.18 0.24,-0.73 0.45,-3.39 -1.14,-1.8 0.11,-0.76 1.28,-0.35 3.03,0.3 0.78,-0.35 0.63,-0.91 z" 
                fill="rgb(151, 144, 238)" 
                stroke="white" 
                stroke-width=".7px"
                title="Çankırı" 
                id="TR-18" 
            />
        </svg>