<svg xmlns="http://www.w3.org/2000/svg" viewBox="0.28477395999999855 74.16265199999998 78.31000004 70.42999800000001" width="78.31000004" height="70.42999800000001">
            <path 
                d="m 16.624774,123.77265 0.42,0.16 0.33,0.79 -0.24,0.56 0.35,0.69 -1.06,0.68 -1.96,-1.29 -1.87,-0.68 0.01,-0.81 1.42,-0.28 1.66,0.19 0.55,-0.29 0.39,0.28 z m -4.65,-21.21 0.05,0.58 1.09,0.51 -0.33,1.9 0.2,0.49 -0.36,0.39 0.1,0.83 0.82,0.26 0.25,-0.5 0.31,0.07 0.5,-0.56 0.05,0.81 -0.79,0.81 -1.47,0.47 -1.05,-0.21 -3.89,1.43 -1.62,-0.24 -0.26,0.44 -1.19,-0.18 -1.01,0.45 -1.5,-1.35 -1.59000004,-0.44 0.26,-1.51 4.70000004,-3.04 2.37,-0.1 2.41,-1.35 1.83,-0.19 0.12,0.23 z m 56.27,-11.549998 0.36,0.28 0.17,0.93 0.56,0.89 -0.81,0.18 -0.38,0.47 0.19,0.68 0.72,0.85 4.66,2.66 2.24,0.79 1.93,0.32 0,0 0.71,1.579998 -0.54,1.89 -0.83,0.89 -2.25,1.31 -1.82,2.33 -0.97,1.99 0.49,1.17 2.87,1.91 0.21,1.5 -0.33,1.86 2.12,3.22 0.41,1.07 -0.03,1.21 -0.69,0.34 0.27,0.54 -0.29,1.25 0.07,2.17 -0.98,1.49 -4.99,2.95 -2.85,3.16 -0.55,0.21 -1.75,-0.06 -2,-1 -2.67,-0.71 -2.91,0.23 -3.54,-1.88 -2.53,-0.5 -1.27,0.06 -3.29,2.38 -3.52,0.47 -0.86,0.52 -2.56,3.56 -0.42,1.54 0.14,1.46 0,0 -3.61,1.07 -3.3,0.48 -4.05,1.55 -0.36,0.86 -0.84,-0.38 -0.95,0.36 -1.57,-0.29 -1.36,0.38 -0.59,0.9 -0.38,-0.58 -0.33,-0.02 -0.82,0.69 -2.23,0.13 -0.57,0.27 -0.83,-0.1 -1.85,-0.91 -0.29,-0.41 0.23,-1.2 0.57,-0.6 -0.15,-0.43 0.36,-0.41 0.68,-3.08 1.34,-1.1 0.96,-2.66 0.09,-1.41 -1.01,-4.04 0.7,-0.78 -0.08,-1.33 0.36,-1.22 -1.15,-1.15 0.37,-0.38 0.05,-1.08 0.58,-1.55 -0.44,-0.73 1.26,-4.44 0.74,-0.78 2.93,0.41 2.08,-0.87 1.5,-2.3 0.37,-2.08 0.24,-0.26 1.03,-0.02 0.56,-0.73 -0.47,-1.54 0.48,-0.59 -0.26,-0.69 0.23,-1.09 -0.19,-0.35 0.55,-0.2 1.02,0.32 3.61,-1.6 1.68,-2.94 0.66,-0.27 0.73,0.16 1.49,-1.929998 2.16,-1.86 -0.07,-0.74 2.67,-2.06 0.93,-0.16 1.76,0.53 1.48,-0.22 1.22,0.2 1.1,-0.56 1.13,1.01 0.89,0.29 3.3,-0.49 2.21,-2.75 2.68,-0.48 1.36,0.95 0.74,-0.03 0.1,-0.32 3.23,-1.82 0.85,1.29 z m -21.54,-16.57 3.84,0.05 2.13,-0.33 2.17,0.46 0.93,0.6 -0.08,0.8 -1.43,2.54 -0.39,1.51 -1.42,2.95 -0.28,1.97 0.33,0.98 0,0 -1.29,0.39 -1.83,1.33 -4.56,1.86 -1.11,1.09 -0.67,0.14 -0.3,0.38 0.27,1.46 -0.64,0.12 -0.32,0.82 -0.5,-0.25 -1,0.29 -0.06,0.6 -0.53,0.34 0.23,1.1 -1.76,2.33 -0.58,0.04 -0.49,0.75 -2.04,0.84 -0.81,0.669998 -0.63,1.26 -1.41,1.12 -0.72,0.23 -0.13,0.47 -1.43,0.4 -0.79,0.61 -0.52,-0.07 0.13,1.32 0.78,1.93 -1.38,0.92 -0.64,0.93 -1.58,1.35 -2.56,1.25 -0.32,0.55 -0.74,-0.16 -0.68,0.64 -0.66,-0.11 -0.19,-0.67 1.59,-2.46 1.18,-2.88 0.65,-0.53 0.83,-1.58 -0.17,-0.65 0.39,-0.47 -0.08,-0.9 0.29,-0.64 -0.91,-1.55 -1.22,-0.919998 0.54,-0.18 0.23,-0.63 -0.41,-0.61 -0.8,-0.18 1.79,-1.43 1.34,-0.34 0.54,-0.71 0.5,-0.18 0.15,0.32 0.31,-0.09 0.52,-0.73 0.83,-0.41 0.04,-0.33 0.91,-0.42 0.44,-0.55 0.6,-0.1 1.79,-1.59 1.8,-0.5 2.11,-1.6 2.35,-1.27 1.14,-0.39 2.47,0.18 0.5,-0.21 0.55,-1.43 1.14,-1.09 -0.06,0.46 1.01,0.21 1.1,-0.51 1.64,-1.51 -0.24,-2.04 -0.51,-1.37 -0.45,-0.41 -1.36,-0.15 -1.27,0.68 -1.12,-0.01 0,0 0.33,-1.61 0.68,-1.25 1.65,-1.86 0.33,-1.38 z" 
                fill="rgb(151, 144, 238)" 
                stroke="white" 
                stroke-width=".7px"
                title="Çanakkale" 
                id="TR-17" 
            />
        </svg>