<svg xmlns="http://www.w3.org/2000/svg" viewBox="343.4947700000001 43.25265199999999 64.27999999999997 76.039998" width="64.27999999999997" height="76.039998">
            <path 
                d="m 384.35477,43.402652 -0.14,2.46 0.75,1.4 0.14,1.4 1.32,1.28 0.05,0.93 0.5,0.88 -1.95,2.55 -0.14,1.16 0.77,0.84 1.11,0.5 3.07,0.55 0.74,-0.11 0,0 0.19,1.35 -0.22,0.86 -2.5,1.51 -0.61,0.93 0.34,0.96 1.91,1.42 0.3,0.88 -1.53,2.45 -1.44,3.11 0.01,2.45 0.37,0.94 1.31,1.37 2.55,1.57 1.53,-0.18 2.44,-0.96 1.8,-0.05 0.8,0.51 2.17,-0.25 0.97,0.2 0.47,0.67 -0.65,3.02 0.43,0.31 2.13,0.19 2.02,0.59 1.62,2.2 0.14,1.25 0.65,0.78 -0.04,0.9 -0.54,1.16 -1.61,1.13 -0.01,1.71 -1.92,0.8 0.65,1.91 -1.34,2.82 0.29,0.47 1.63,0.62 0.12,0.42 -1.44,1.61 -0.9,1.639998 -0.04,0.76 0,0 -2.21,0.38 -1.33,0.69 -2.14,2.6 -0.97,-0.25 -1.46,-1.64 -0.57,-0.04 -0.61,0.45 0.02,0.98 1.94,1.97 0.21,0.54 -0.26,0.46 -1.34,0.49 -0.46,0.81 0.33,1.37 1.69,2.17 -0.22,0.81 -0.67,0.65 -3.71,-0.08 -2.65,0.78 -4.28,0.09 -0.26,-0.33 -0.05,-2 -0.85,-0.54 -1.19,0.61 -1.51,2.36 -0.9,0.85 -5.22,0.3 -2.75,1.21 -2.65,-0.58 -1.73,-1.78 -1.71,-0.4 -1.48,0.68 -2.37,2.06 -0.27,0.26 0.04,1.1 -0.91,0.53 -1.3,0.09 -3.67,-0.71 -3.59,1.08 -0.5,-0.6 0.1,-1.2 0,0 0.48,-0.17 -0.2,-0.73 -2.72,-4.33 0.55,-2.52 -0.36,-1.62 -0.65,-0.91 0.67,-1.64 0,-0.66 -0.69,-0.53 -2.51,-0.4 -0.74,-0.44 -0.42,-0.61 -0.23,-1.42 -0.85,-0.81 0,0 0.24,-0.48 2.72,-0.659998 2.03,-1.98 3.34,-5.66 -0.29,-3.62 -1.25,-0.98 -0.24,-0.67 0.83,-1.89 -0.48,-1.08 -0.17,-1.57 1.23,-2.7 -0.57,-0.78 -2.64,-1.49 -0.64,-1.08 0.11,-1.24 0.8,-2.11 -0.07,-1.95 0,0 2.05,-0.24 4.42,-1.4 0.91,-1.08 0.47,-2.04 1.33,-2.05 0.53,-2.42 0.82,-0.75 1.57,-0.44 0.06,-1.17 -1.46,-2.35 -2.19,-1.01 -2.4,0.75 -0.35,-0.39 -0.24,-1.04 0.21,-1.67 -0.58,-2.25 0.22,-0.67 0.67,-0.65 1.13,-0.34 1.67,-2.04 1.04,-0.55 -0.06,-1.75 0.33,-0.53 0.95,-0.1 1.62,0.63 0.22,0.24 -0.31,0.89 0.34,0.44 0.89,-0.43 1.57,-1.78 0,0 1.29,-0.99 0.75,-0.04 1.86,1.67 1.47,0.33 1.23,2.82 2.38,1.56 2.57,0.13 0.88,-0.41 1.79,-1.72 1.83,0.17 1.06,-0.23 0.82,-1.61 1.57,-0.64 0.39,-1.13 -0.43,-0.54 0.73,-0.2 -0.02,-0.49 z" 
                fill="rgb(151, 144, 238)" 
                stroke="white" 
                stroke-width=".7px"
                title="Çorum" 
                id="TR-19" 
            />
        </svg>