<svg xmlns="http://www.w3.org/2000/svg" viewBox="503.53477000000004 220.22265 99.08999999999997 70.08000000000004" width="99.08999999999997" height="70.08000000000004">
            <path 
                d="m 558.45477,220.22265 0.62,0.66 1.85,0.12 1.64,0.57 2.1,1.59 2.17,0.38 0.95,1.52 1.09,0.42 0.47,1.07 0.8,0.85 1.64,0.57 4.08,0.43 1.29,1.07 1.49,2.07 1.06,-0.54 1.46,-2.21 1.39,0.01 1.06,-0.91 1.06,0.03 1.06,1.57 0.67,2.81 -0.23,3.61 0.82,2.63 -0.09,3.93 1.97,2.7 0.99,0.83 0,0 1.67,2.77 -1.21,1.65 -0.04,0.67 0.39,0.79 -0.14,1.24 0.7,1.18 0.95,3.52 0.94,1.58 -0.2,0.76 0.63,2.55 1.08,0.63 0.63,1.08 0.84,0.35 0.74,-0.51 0.17,1.76 0.57,1.06 0.55,0.23 0.59,1.92 0.49,0.21 -0.05,2.31 0.89,1.5 -0.17,0.72 1.76,1.02 0.42,0.58 0.56,2.31 0,0 -2.12,1.69 -4.81,1.1 -1.35,1.48 -1.62,0.36 -5.2,2.05 -1.93,1.23 -4.4,0.32 -2.9,1.28 -2.29,0.18 -3.85,1.08 -5.95,0.55 -5.78,1.1 -6.06,-1.85 -1.71,-0.25 -5.88,0.42 -5.88,-0.33 -2.58,-1.92 -3.44,-3.13 -1.72,-1.97 -6.82,-2.99 -2.72,0.01 -3.17,-1.11 -1.23,0.79 -1.91,-0.15 -0.26,0.62 -3.46,1.27 -0.43,0.56 -1.21,0.2 -0.36,0.41 -0.09,1.02 0,0 -0.23,-1.1 1,-1.35 -0.63,-0.32 -1.11,-1.98 0.09,-1.93 -1.28,-0.46 -0.34,-0.75 -0.19,-1.02 0.67,-2.47 -0.74,-0.26 -1.83,0.86 -2.19,-1.42 0.64,-3.66 -1.45,-2.08 -0.37,-1.36 0.29,-1.02 0.55,0 0.71,0.71 0.36,-0.11 0.03,-0.33 -0.64,-1.18 -0.78,-0.46 -0.31,-0.6 0.87,-2.74 1.08,-0.49 -0.57,-0.54 0.04,-0.41 2.44,-2.21 0.23,-0.73 1.1,-0.91 0.34,-0.93 0.57,-0.25 0.87,0.28 1.21,-0.38 1.11,0.72 0.86,-1.05 0,0 2.33,1.54 1.1,-0.05 0.09,0.55 0.29,0.02 0.52,-0.42 -0.04,-0.88 0.38,-0.79 0.7,-0.15 1.27,0.49 1.09,-1.72 1.37,0.2 0.67,-0.51 4.82,-0.21 2.07,-1.08 3.3,-3.16 3.41,-2.7 4.3,-0.49 3.98,-1.2 0.12,-0.24 -0.56,-0.45 -0.82,-0.2 -0.16,-1.14 0.39,-0.33 0.89,0.3 1.39,-0.5 1.25,-0.84 -0.06,-1.02 0.28,-0.41 1.7,-0.54 -0.05,-2.59 -0.68,-0.13 -1.67,0.6 -0.15,-0.42 0.31,-0.6 0.93,-0.61 2.13,0.03 -0.17,-1.69 0.59,-0.58 0.15,-0.8 -0.76,-0.7 1.12,-0.77 1.1,-0.18 1.05,-2.05 0.27,-1.59 1.04,-0.64 0.24,-0.49 1.35,-0.55 1.06,0.18 z" 
                fill="rgb(151, 144, 238)" 
                stroke="white" 
                stroke-width=".7px"
                title="Şanlıurfa" 
                id="TR-63" 
            />
        </svg>