<svg xmlns="http://www.w3.org/2000/svg" viewBox="92.35705 216.05062999999993 55.209999999999994 108.0600000000002" width="55.209999999999994" height="108.0600000000002">
            <path 
                d="m 102.88705,229.89063 0,0 -0.08,-0.96 0.97,-1.15 -0.22,-0.78 1.07,-1.4 1.22,-0.61 0.93,-2.46 0.44,-0.54 0.59,-3.65 -0.77,-0.37 -0.19,-0.77 0.89,-1.15 17.42,28.26 4.42,-0.08 8.17,10.27 1.34,-0.11 0.56,1.55 0.7,0.15 0.26,0.43 0.84,0.08 0.37,0.38 -0.14,1.14 0.53,1.27 0.41,0.3 0.87,-0.1 0.66,1.01 0.89,0.74 0.91,0.1 1.62,1.32 -0.88,0.47 -3.93,6.94 -3.43,3.31 -3.2,0.84 -0.73,0.74 1.05,3.79 -3.7,7.93 -2.61,6.42 1.79,3.55 -0.76,1 -1.39,0.36 0.32,0.47 0.66,0.22 0.12,0.98 -2.84,0.77 -1.18,7.23 -1.26,-0.12 0.39,3.16 -1.06,1.13 -2.42,-1.04 -0.62,-0.95 -1.95,-0.58 -0.53,-1.64 -1.85,0.16 0.01,-1.2 -0.25,-0.54 -1.18,-0.45 -0.61,1.47 2.76,3.12 -0.33,1.39 -0.69,1.31 -0.65,1.11 -1.22,1.18 0.05,0.29 -0.6,0.27 -0.98,-1.93 -0.35,0.2 -1,-0.89 -3.15,4.77 -0.84,-1.11 -0.94,0.66 0.03,2.89 -1.02,1.72 0.46,0.15 -0.96,1.72 -0.44,0.08 -0.62,-0.4 -0.64,0.05 -0.5,-0.45 -0.15,-2.25 0.39,-0.73 -1.33,-2.14 -0.77,-0.75 -0.25,-0.78 0.05,-1.15 -1.17,-0.12 -1.08,0.42 -0.85,-1.54 0.22,-0.23 -0.35,-0.81 -1.26,-0.2 -1.58,-1.42 -2.23,0.05 -1.18,-1.37 0.2,-1.8 0.85,-0.04 -0.19,-0.62 0.39,-0.79 -0.31,-0.45 0.08,-0.56 1.83,1.29 0.06,-2.66 0.91,-2.01 -0.13,-1.17 6.13,-0.03 -0.19,-1.12 1.69,-1.33 -0.09,-1.27 -0.68,-1.38 0.39,-2.45 -0.24,-0.53 0.66,-2.27 -1.35,-1.02 -0.13,0.3 -0.43,-0.41 -0.51,0.03 -0.65,-0.48 -0.1,-0.45 -0.38,0.01 -0.31,-0.71 0.31,-0.97 -0.4,-0.59 -0.09,-1.19 -0.35,-0.26 0.07,-0.54 -0.83,-1.21 -0.04,-1.2 -1.02,-0.45 -0.07,-0.78 -0.54,-0.59 -0.02,-1.25 0.6,-1.05 0.02,-0.98 -0.85,-0.69 -0.11,-0.54 0.05,-0.69 0.7,-1.16 -0.22,-1.6 1.15,-0.32 -0.09,-0.39 0.31,-0.06 -0.11,-0.17 0.46,-0.63 -0.26,-1.18 -0.61,-0.97 0.31,-0.39 0.46,-2.27 0.22,-0.14 -0.19,-1.27 0.49,-0.62 -0.36,-0.29 -0.02,-0.55 0.4,-0.28 -0.99,-0.79 -0.16,-0.81 0.16,-2.28 0.4,-0.11 0.21,-0.45 -0.36,-1.96 0.36,-0.42 -0.04,-1.05 0.22,-0.22 -0.36,-0.65 0.64,-1.3 -0.11,-0.5 0.31,-0.27 0.39,0.08 0.05,-0.27 0.49,-0.14 0.09,-0.49 0.29,-0.06 -0.17,-0.23 0.41,-0.89 -0.2,-0.54 0.24,-0.12 0.04,-0.59 0.38,-0.12 0.12,-0.55 0.73,-0.37 0.11,-1.35 0.5,-1.19 -0.33,-0.2 0.15,-1.41 -0.2,-1.26 -0.36,-0.22 0.42,-1.33 -0.28,-0.67 0.26,-0.46 -0.19,-0.68 0.39,-0.75 -0.26,-0.02 -0.42,-0.66 -0.05,-0.81 0.24,-0.4 -0.23,-0.02 0.31,-1.29 -0.69,-1.13 0.19,-1.16 0.65,-1.02 -0.19,-0.13 0.17,-0.64 0.55,-0.12 -0.3,-0.28 0.28,-0.36 -0.2,-0.55 z" 
                fill="rgb(151, 144, 238)" 
                stroke="white" 
                stroke-width=".7px"
                title="Baringo" 
                id="KE-01" 
            />
        </svg>