<svg xmlns="http://www.w3.org/2000/svg" viewBox="63.137049999999974 332.06063 32.87000000000003 38.200000000000045" width="32.87000000000003" height="38.200000000000045">
            <path 
                d="m 81.19705,334.44063 0,0 2.74,-0.14 0.27,-0.23 0.59,0.19 0.54,-0.23 0.51,0.31 2.41,-2.28 7.75,12.73 -10.9,3.25 1.69,4.36 5.96,4.78 -1.3,1.1 -1.24,0.41 -0.46,0.54 -0.14,0.87 -0.46,0.47 -0.41,0.03 0.03,0.54 -0.34,0.24 -0.01,0.39 -0.12,-0.19 -0.41,0.11 -0.43,0.29 0.07,0.4 -0.52,0 -0.02,0.47 -0.35,0.09 0.21,0.69 -0.27,0.11 0.13,0.8 -0.29,0.78 -1,0.12 -0.29,0.51 -1.15,0.15 -0.69,0.88 -0.07,-0.28 -0.34,0.07 -0.3,-0.35 -0.19,0.71 -0.26,-0.4 -0.36,0.4 -0.35,-0.15 -0.2,0.28 0.16,0.23 -0.98,0.34 -0.3,0.6 -0.41,-0.02 -1.69,0.96 0.03,0.2 -0.55,-0.11 -0.18,0.43 -0.54,0.08 -0.09,0.29 -0.48,-0.02 -9.03,-7.3 -3.96,-0.92 -0.07,-0.51 0.36,-0.55 0.43,0.14 -0.25,-1.52 0.59,-0.13 0.73,0.46 2.68,-2.98 -2.49,-5.38 0.51,-0.5 0.86,-0.31 -0.96,-2.01 0,-0.68 0.46,-0.72 -0.36,-0.78 0.31,-0.8 -0.85,-1.95 0.27,-1.61 -0.18,-0.35 0.21,-0.14 -0.26,-0.68 0.47,-0.82 -0.21,-0.66 0.34,-0.28 0.85,-0.08 0.6,-0.99 0.74,0.04 0.15,-0.37 0.29,0.09 0.84,-0.52 0.76,0.11 0.15,0.25 0.38,-0.52 0.47,0.55 0.45,-0.12 0.52,0.42 0.35,-0.12 0.26,0.69 0.19,-0.08 0.2,0.31 1.94,-0.34 0.11,-0.5 -0.66,-0.27 0.54,-0.6 0.8,-1.9 1.55,0.12 0.93,-0.37 1.57,0.42 1.03,-0.48 0.39,-0.56 z" 
                fill="rgb(151, 144, 238)" 
                stroke="white" 
                stroke-width=".7px"
                title="Bomet" 
                id="KE-02" 
            />
        </svg>