<svg xmlns="http://www.w3.org/2000/svg" viewBox="25.90704999999998 245.4006299999999 40.33 41.78999999999988" width="40.33" height="41.78999999999988">
            <path 
                d="m 38.49705,245.40063 0,0 1.9,2.4 1.07,0.81 1.78,0.6 -0.59,1.45 4.86,6.93 1.67,0.97 0.96,-0.18 0.77,0.76 0.07,0.37 -0.78,0.86 1.47,3.92 -0.17,0.9 3.46,-1.22 3.33,-1.64 0.29,0.1 0.53,-0.98 0.97,-0.14 0.36,-0.41 1.19,-0.41 -0.03,0.28 1.87,-0.34 -0.32,1.57 0.67,0.55 -0.02,1.16 0.4,0.58 0.55,0.11 0.63,1 0.64,0.31 0.21,0.76 -0.2,1.09 -1.09,0.13 -0.37,0.3 0.12,0.39 -0.5,-0.19 -0.21,0.48 -0.42,0.04 -0.5,-0.58 -0.39,0.45 -0.45,0.06 -1.11,-0.66 -1.12,0.45 -0.49,-0.24 -0.51,0.71 -0.62,-0.04 -0.41,0.89 0.41,0.99 -1.09,1.22 -0.71,0 -0.32,-0.27 -0.59,0.47 -1.1,-0.08 -0.42,0.69 -0.6,0.2 -0.36,1.09 -0.32,0.21 0.14,0.53 -0.21,0.7 -0.88,0.45 -0.97,0.98 0.63,0.76 -0.75,0.11 -1.85,1.19 -0.26,0.93 -0.65,0.67 -0.57,0.2 -0.23,0.76 -0.43,0.43 -0.31,0.21 -0.38,-0.11 -0.29,0.3 -0.46,-0.17 -0.75,1.25 -0.75,0.12 0.16,0.65 -0.66,0.68 -1.36,0.52 -0.65,-0.16 -0.24,-0.56 -0.54,0.39 -0.09,0.75 -0.63,-0.42 -0.76,0.31 -0.1,1.45 -0.5,-0.63 -0.08,-1.34 -0.98,-0.22 -0.66,-0.69 -0.75,0.5 -0.33,1.05 -1.97,-0.86 -0.86,-1.52 -1.27,0.87 -1.21,0.34 -1.29,-0.71 -1.56,0.35 -0.21,-1.48 1.09,-0.3 0.19,-0.42 -1.04,-1.76 -1.24,-1.32 0.49,-0.97 -0.39,-0.65 -0.01,-0.94 0.32,0 0.19,-0.36 0.24,-1.77 1.95,-0.9 -0.45,-1.24 0.37,-0.5 -0.72,-2.22 1.1,-0.15 0.52,0.29 0.12,-0.82 -0.54,-1.5 -0.7,-0.03 -0.32,0.58 -0.36,0.05 -1.02,-1 -0.74,0.1 -0.5,-0.35 0.56,-0.38 0.3,-0.69 0.24,-0.1 0.15,0.23 0.15,-0.56 0.63,0.04 0.92,-0.44 -0.36,-1 0.49,-0.4 -0.04,-0.41 1.85,-1.21 0.23,-2.1 0.8,-0.65 0.86,-1.55 0.83,-5.99 0.56,-1.45 1.37,-2.04 0.02,-0.92 2.84,1.22 0.19,-2.87 z" 
                fill="rgb(151, 144, 238)" 
                stroke="white" 
                stroke-width=".7px"
                title="Bungoma" 
                id="KE-03" 
            />
        </svg>