<svg xmlns="http://www.w3.org/2000/svg" viewBox="192.01705000000007 319.8106299999997 38.319999999999936 43.65000000000015" width="38.319999999999936" height="43.65000000000015">
            <path 
                d="m 229.90705,335.51063 0,0 0.43,0.09 -0.2,0.7 -1.09,1.44 -1.83,4 0.31,1.1 -0.26,1.58 1.03,0.81 1.21,1.57 -1.65,1.23 0.1,2.03 0.52,0.27 -0.27,1.3 0.71,-0.03 0.22,1.19 -0.71,1.67 -0.7,0.54 0.11,0.63 -0.5,0.2 -0.23,0.71 0.19,0.49 -0.64,0.4 -1.89,-0.03 -0.23,0.21 -0.34,-0.44 -0.5,-0.07 -0.71,0.59 -0.14,-0.79 -0.56,0.91 -0.48,0.29 -1.67,0.06 -0.94,-2.62 -0.5,-0.16 -0.47,0.33 -0.97,0.04 -0.5,0.18 -0.49,0.7 -0.46,-0.05 -0.04,1.52 -0.55,0.37 -0.37,0.96 -0.41,0.09 -0.66,-0.31 -0.33,0.19 -0.28,-0.38 -0.34,0 -0.18,0.76 -1.17,0.15 -0.21,0.42 -0.79,0.1 0.19,0.37 -0.23,0.44 -1.27,0.13 -0.29,-0.31 -0.49,0.52 -0.34,-0.07 -0.74,0.74 0.04,0.94 -0.75,0.25 -0.28,-0.83 -0.69,-0.16 -0.57,0.43 -1.31,-1.07 0.13,-0.59 -1.54,-0.32 -0.35,-0.45 -0.83,0.21 -0.74,-0.28 -0.06,-0.62 -0.81,0.33 -0.76,-0.24 -0.28,0.32 -0.2,-0.41 -0.82,-0.35 -1.89,0.02 -1.33,-1.81 -0.06,-0.73 -1.07,-0.98 -1.06,0.14 -0.06,-0.42 0.52,-1.28 2.4,-0.36 0.56,0.82 1.82,0.29 0.57,-0.3 0.07,-0.29 0.35,0.11 1.43,-0.66 1.03,-0.04 1.12,-0.83 1.32,0.15 0.06,-0.33 0.59,-0.25 1.29,0.33 -0.5,-0.78 -0.5,-0.21 0.04,-1.18 -0.3,-0.45 0.21,-0.99 -0.31,-1.05 0.87,-2 -0.65,-0.87 0.41,-1.02 -0.34,-0.31 -0.26,-0.97 -1.32,-0.65 -0.33,-1.14 -1.01,-1.04 0.11,-0.87 -0.33,-0.73 0.22,-1.85 -0.3,-0.36 0.22,-0.57 -0.07,-1.45 -6.61,-14.71 14.06,11.93 1.77,0.51 0.97,0.82 1.64,0.31 1.81,1.87 1.15,0.27 0.68,0.67 1.08,0.28 0.42,0.42 0.69,0.01 0.46,-0.29 1.07,0.21 1.46,-0.13 0.99,-0.59 1.55,-1.37 -0.12,-0.19 0.29,-0.26 0.78,-0.06 0.37,-0.81 0.8,-0.41 -0.06,-0.7 0.32,-0.25 0.16,-0.93 0.75,-0.39 0.47,0.58 -0.28,0.75 0.39,0.26 -0.41,1.21 0.66,0.31 -0.04,0.43 0.45,0.53 0.73,0.06 0,0.52 0.45,0.13 z" 
                fill="rgb(151, 144, 238)" 
                stroke="white" 
                stroke-width=".7px"
                title="Embu" 
                id="KE-06" 
            />
        </svg>