<svg xmlns="http://www.w3.org/2000/svg" viewBox="271.79704999999996 254.30063 165.81000000000006 173.11" width="165.81000000000006" height="173.11">
            <path 
                d="m 308.12705,259.27063 0,0 0.86,-0.96 2.63,-1.65 5.85,-2.36 1.09,0.83 0.73,1.03 0.31,1.62 1.96,4.38 1.79,5.72 2.92,4.15 1.81,1.53 1.08,2.48 1.39,1.98 1.98,2.05 0.5,1.03 1.68,0.79 0.73,0.97 1.41,0.71 2.89,0.32 1.4,1.08 1.73,-0.22 2.23,1.85 2.01,1.15 1.94,0.61 2.66,0.37 3.93,2.85 1.86,0.96 4.15,4.19 5.59,3.04 2.51,0.15 1.55,0.74 1.36,-0.37 2.74,0.22 1.2,-0.65 0.7,0.29 0.39,-0.88 1.1,-1.04 1.82,0.6 1.2,0.03 0.51,-0.59 0.54,0.01 0.44,-0.42 2.03,0.04 1.95,-1.5 0.1,-0.73 0.63,-0.4 1.21,-2.4 1.11,-0.31 0.96,-1.03 1.21,-0.6 5.12,-1.42 1.33,-0.77 1.86,-1.8 3.37,-1.66 0.82,-0.66 0.04,73.95 32.57,43.94 -0.01,3.49 -37.68,3.2 -39.73,18.21 -0.63,-1.84 0,-1.16 -0.62,-1.18 0.19,-1.35 -0.11,-4.19 -1.4,-2.26 -0.3,-3.42 0.75,-2.28 -0.72,-1.51 0.1,-3.02 -0.34,-2.1 -0.62,-1.23 -1.62,-1.91 -0.55,-2.58 -1.03,-1.92 -0.93,-0.19 -1.84,1.13 -0.35,-0.19 -0.07,-0.29 0.39,-0.12 -0.36,-1 0.19,-0.41 -0.32,-0.18 0.26,-1.13 -0.17,-0.48 -0.38,-0.12 -0.15,-1.21 -0.74,-1.23 0.33,-0.28 -0.31,-0.82 -0.41,0.06 -0.07,-0.76 0.62,-1.07 -0.43,-0.27 -0.4,-1.41 0.4,-0.36 -0.29,-0.44 0.41,-0.42 -0.1,-0.5 0.41,-0.3 -0.18,-0.42 -0.42,-0.15 0.38,-0.83 -0.72,-0.1 0.26,-0.27 -0.24,-0.39 0.27,-0.67 -0.54,-0.13 -0.1,-0.59 -0.54,-0.01 0.07,-0.53 -1.04,-1.46 -0.4,-1.32 -0.62,-0.33 -0.07,-0.43 -0.42,0.1 -0.23,-0.22 -0.37,-2.94 -0.42,-0.09 -0.29,-0.65 0.21,-0.36 -0.5,-0.41 0.24,-0.5 -0.78,-0.82 -0.03,-1.22 -0.51,-0.06 -0.21,-0.3 0.33,-0.62 -0.39,-0.71 0.5,-0.21 -0.45,-0.32 -0.31,0.08 0.09,-1.05 -0.71,0.41 -0.03,-0.66 0.55,-0.57 -0.34,-0.51 -0.68,-0.1 0.22,-0.58 -0.73,-1.05 0.23,-0.29 -0.34,-0.26 0.55,-0.33 -0.47,-0.63 0.44,-1.25 -0.56,-0.37 -0.16,0.56 -0.28,0 0.09,-0.37 -0.35,-0.45 0.6,0.05 -0.11,-1.11 -0.55,-0.5 0.36,-0.38 -0.96,-0.03 0.5,-0.62 -0.51,-0.02 0.12,-0.67 -0.85,-0.24 -0.21,-0.31 0.42,-0.24 -0.42,-0.46 0.49,-0.2 -0.09,-0.51 0.47,-0.23 -0.91,-0.38 -0.15,-0.51 0.34,0.07 0.06,-1.28 -0.42,-0.07 0.15,-0.57 -0.29,0.2 -0.26,-0.39 -0.14,-0.57 0.24,-0.59 -0.53,0.05 -0.09,-0.65 -0.54,0.07 0.13,-0.55 -0.76,-1.3 0.44,-0.96 -0.63,-0.1 -0.52,-0.56 -0.38,0.23 -0.55,-0.52 -0.06,-0.48 -0.45,0.34 -1.94,-0.11 0.18,-0.54 -0.39,0.21 -0.03,-0.42 -0.41,-0.23 0.05,-1.3 -0.6,0.32 -0.21,-0.57 -0.52,0.09 -0.1,-0.63 0.38,-0.08 0.03,-0.28 -1.21,-0.86 -0.41,-0.54 -0.01,-0.67 -0.54,-0.31 -0.1,-1.09 0.37,-0.78 -0.91,-0.65 -0.01,-0.43 -0.27,0.24 -0.21,-0.16 0.19,-1.71 -0.69,-0.02 0.1,-0.65 -0.33,-0.22 -0.02,-0.83 -0.28,-0.2 0.3,-0.41 -0.23,-0.29 0.16,-0.3 -0.41,-0.11 0.13,-0.28 -0.26,-0.6 -0.39,0.16 -0.15,-0.43 -0.93,-0.46 -1.09,-2.2 -0.42,0.24 -0.54,-0.44 -0.3,0.55 -0.46,0.11 0.27,-0.93 -0.42,-0.27 -0.69,-1.65 -0.44,0.06 -0.1,-0.3 -0.65,-0.16 -0.42,-0.48 -0.14,-0.68 -0.8,-0.6 -0.48,-0.04 -1.01,-1.15 -1.19,0.04 -0.35,0.28 -0.19,-0.4 -0.73,0.12 -1.24,-1.59 -0.46,0.33 -0.1,-0.5 -0.77,0.42 -0.3,-0.58 -0.53,0.05 0.18,-0.7 -0.83,-0.72 -0.48,0.38 -0.54,-0.2 -0.76,0.3 -0.4,-0.24 -1.02,0.54 -0.15,-0.45 -0.47,0.17 -1.08,-0.19 -0.07,-0.48 -0.71,0.13 -0.65,0.6 -1.1,-0.43 -0.73,0.09 -0.41,-0.58 -1.59,0.22 -0.12,-0.63 -0.74,0.07 -0.03,-0.6 -1.05,-0.69 -0.22,-0.58 -1.36,-1.32 -0.5,-1.06 -1.68,0.42 -0.9,-0.62 -0.73,0.72 -0.33,-0.01 -0.23,-0.36 -0.61,0.6 -0.86,-0.03 -0.28,1.33 -0.7,0.21 -0.94,0.76 -0.41,-0.06 -0.63,-0.7 -1.18,0.55 -4.04,-0.19 -3.44,-1.34 -0.43,-0.35 0.29,-0.51 -0.73,-0.37 0.09,-0.58 -0.91,-2.47 -0.02,-1.07 -0.35,-0.91 -0.2,-2.57 0.25,-3.03 0.18,-0.59 1.15,-1.37 -0.07,-1.11 -4.52,-17.28 -0.84,-0.82 1.87,-0.06 0.6,0.21 0.27,-0.36 0.73,0.1 -0.1,-0.55 0.21,-0.22 0.66,0.36 0.88,-0.28 0.25,0.46 0.61,0.23 2.35,-2.31 1,-1.61 1.97,-1.12 0.66,-0.05 0.26,0.32 2,-0.26 0.88,-0.4 0.8,-1.29 2.15,0.41 0.49,-0.27 1.35,0.09 0.19,-0.87 0.59,-0.32 0.15,-1.06 0.43,-0.06 1.14,-1.2 1.81,0.61 0.68,-0.28 0.23,-0.51 2.31,-0.09 0.36,-0.9 1.57,-0.83 0.23,-1.73 1.27,-2.4 1.28,-1.46 0.68,-1.46 3.52,-3.64 z" 
                fill="rgb(151, 144, 238)" 
                stroke="white" 
                stroke-width=".7px"
                title="Garissa" 
                id="KE-07" 
            />
        </svg>