<svg xmlns="http://www.w3.org/2000/svg" viewBox="0.7270499999999618 325.92063 62.96000000000002 34.71000000000009" width="62.96000000000002" height="34.71000000000009">
            <path 
                d="m 32.93705,328.28063 0,0 2.8,-1.58 9.94,-0.78 2.76,1.8 0.31,1.38 0.5,-0.22 0.72,0.75 0.24,-0.05 0.26,0.49 -0.42,0.1 0.15,0.51 0.41,0 -0.14,0.37 0.46,0.36 0.71,-0.16 0.69,1.12 0.06,0.96 1.94,0.25 0.25,0.3 0.25,-0.18 1.08,0.15 0.14,0.27 0.36,-0.44 1.2,-0.5 -0.06,1.03 0.85,-0.02 0.04,0.52 1.15,0.23 1.42,-0.36 0.69,0.21 0.17,-0.31 0.78,-0.18 0.43,-0.78 0.61,0.85 -0.1,0.38 -1.07,0.88 -1.84,0.79 -1.71,1.36 -2.04,1.05 -1.3,0.29 -1.79,1.26 -2.68,0.91 -2,0.98 -0.9,0.78 -2.69,0.96 -1.06,1.47 -1.35,0.23 -1.01,1.68 -0.4,1.8 -1.89,-0.76 -0.97,0.09 0.04,0.5 -1.59,0.24 -1.19,2.28 -0.35,2.38 -0.49,0.75 -1.03,0.06 -0.27,0.17 0.25,0.29 -1.22,0.83 0.08,0.47 -0.34,0.1 0.55,0.24 0.37,0.67 -1.17,1.15 -0.72,1.78 -1.78,-1.39 -2.39,-1.3 -0.26,0.16 0.38,0.76 -0.63,0.88 -2.58,0.5 -0.08,0.37 -0.92,0.22 -1.2,-1.6 -1.95,-1.32 -0.78,-0.2 -1.05,-1.65 -1.13,-0.81 -0.59,-0.98 -0.62,0.84 -0.72,-0.29 -0.38,0.65 -0.44,0.05 -0.48,-0.36 -0.96,0.71 -0.19,-0.34 -0.73,0.6 -0.58,-0.28 -0.91,0.24 -0.91,1.15 -8.73,0 -0.47,-13.75 0.46,-6.12 1.12,-6.72 16.7,0.01 2.42,4.33 0.67,0.59 0.78,0.11 0.94,-0.44 5.63,-4.81 3.49,-1.96 z" 
                fill="rgb(151, 144, 238)" 
                stroke="white" 
                stroke-width=".7px"
                title="Homa Bay" 
                id="KE-08" 
            />
        </svg>