<svg xmlns="http://www.w3.org/2000/svg" viewBox="119.64705000000002 371.16063 110.86 122.21000000000038" width="110.86" height="122.21000000000038">
            <path 
                d="m 138.71705,371.16063 0,0 8.89,4.19 2.54,1.9 -1.32,4.82 -1.28,1.81 9.68,1.89 0.36,0.59 -0.23,0.4 0.53,0.12 -0.17,0.12 0.37,0.3 0.19,-0.09 0.98,1.41 0.42,-0.12 1.79,1.48 2.32,0.58 1.15,-0.2 0.71,0.22 0.73,-0.45 0.93,0.46 0.46,-0.17 0.33,0.62 1.23,0.61 1.21,0.16 -0.83,3.94 0.38,0.55 2.25,-1.74 0.77,-0.18 0.76,0.11 -0.19,0.36 1.75,0.82 -0.41,0.85 0.23,0.45 -0.63,0.79 -0.21,1.52 0.26,0.47 0.96,0.49 7.51,10.07 1.33,0.52 0.51,-0.39 0.32,0.16 -0.14,0.83 0.15,0.4 0.49,0.25 -0.35,0.66 0.51,0.17 -0.54,0.79 0.05,0.42 -0.59,0.7 0.23,0.35 -0.14,0.52 0.3,0.23 -0.36,0.41 0.71,0.31 0.42,0.71 -0.13,1.48 -0.41,0.3 1.04,1.67 0.68,0.36 0.23,0.62 2.84,0.13 0.59,0.75 1.03,0.5 0.64,1.01 0.28,1.06 1.08,0.63 0.56,-0.13 0.29,0.26 2.65,0.27 5.23,3.49 4.76,1.82 0.46,0.47 -0.1,0.45 0.44,0.26 0.83,-0.04 1.73,1.56 1.56,0.43 2.46,-0.35 1.95,0.54 0.49,0.96 0.93,0.39 0.04,0.24 -0.61,-0.07 -0.56,0.34 -1.1,1.54 -0.57,0.29 0.19,2 -0.37,0.91 -0.24,0.06 0.11,0.41 -0.86,0 -0.5,0.66 -0.81,-0.24 0,0.33 -0.47,0.22 -0.33,-0.46 -0.28,0.05 -0.35,0.63 -0.49,0.16 14.41,16.77 1.64,3.17 0.72,0.81 0.59,1.66 1.18,0.11 0.5,1.1 -0.35,0.99 0.21,1.12 0.66,0.94 -1.21,5.24 -1.33,1 -1.39,10.96 -0.95,0.07 -0.07,5.68 -0.29,0.26 -0.86,0.18 -0.61,-0.68 -1.01,-0.45 -0.62,0.37 -5.89,0.38 -1.1,-6.88 -8.64,-5.87 -86.89,-48.74 0,-1.22 1.6,-0.01 0,-2.47 0.54,-1.89 -0.02,-1.98 0.24,-0.68 -0.21,-0.62 0.3,-0.61 -0.52,-1.26 0.57,-0.43 -0.98,-1.08 0.61,0.01 0.03,-0.76 0.38,0.03 0.32,-1.16 -0.07,-0.87 -0.38,-0.42 -0.15,-0.75 -0.6,0.2 0,-0.88 -0.67,-0.12 -0.07,-0.21 0.86,-1.02 0.02,-0.34 -0.58,-0.24 0.59,-0.47 0.22,-1.38 0.34,-0.22 -0.04,-0.42 0.34,0.14 0.16,-0.31 -0.12,-0.57 -0.55,-0.54 0.39,0.04 0.16,-0.3 0.5,0.34 0.07,-0.5 0.4,-0.23 -0.99,-2.82 0.28,-0.15 0.19,-1.62 0.45,-0.1 -0.05,-0.35 0.57,-0.98 0.36,0.08 0.37,-1.18 -0.09,-0.78 -1.81,-3.99 16.82,-18.02 -0.71,-7.23 z" 
                fill="rgb(151, 144, 238)" 
                stroke="white" 
                stroke-width=".7px"
                title="Kajiado" 
                id="KE-10" 
            />
        </svg>