<svg xmlns="http://www.w3.org/2000/svg" viewBox="24.92705000000001 259.68063 46.349999999999994 46.11999999999989" width="46.349999999999994" height="46.11999999999989">
            <path 
                d="m 63.47705,260.43063 0,0 0.34,-0.39 0.79,-0.11 0.05,-0.24 0.46,0.17 0.26,-0.18 1.56,0.34 0.26,0.71 1.05,0.52 0.62,-0.38 -0.04,1.44 0.72,2.01 0.03,-0.4 0.31,-0.15 0.89,0.15 0.08,4.98 0.41,-0.02 -0.06,3.77 -0.21,0.43 0.28,0.26 -1.83,0.51 -0.55,0.7 -0.55,-0.36 -1.01,0.99 -0.88,0.05 -0.36,-0.24 -0.62,0.17 0.04,-0.41 -0.92,-0.25 0.09,0.61 -0.68,0.97 -1.67,-1.26 -0.2,0.35 -1.01,0.3 -0.69,0.85 -1.18,0.15 -1.36,0.89 -1.78,-0.81 0.4,0.37 -2.61,3.05 3.2,2.47 0.01,0.55 0.96,1.03 1.87,3.42 -0.11,2.76 -0.4,0.72 -0.67,-0.17 0.5,2.38 1.9,4.3 -1.27,-0.04 -0.78,1.94 -0.78,-0.01 -0.15,0.46 -1.27,0.21 -0.61,-0.64 -0.5,0.53 -0.55,-0.14 -0.41,0.28 -0.41,-0.22 -0.78,0.9 -1.28,-0.24 -0.72,0.19 0.25,0.38 0.01,0.89 -0.6,-0.13 -0.85,0.38 -0.26,-0.12 -2.19,1.35 -0.53,-0.34 0.02,-0.41 -1.23,0.53 -0.71,0.01 -0.01,0.48 -0.49,-0.19 -0.75,0.74 -0.36,-0.47 -3.2,0.17 -1.94,0.65 0.03,0.64 -0.79,0.49 -0.73,0.1 -0.29,-0.31 0.32,-0.43 -0.9,-0.38 0.47,-0.26 0.12,-0.57 -0.78,-0.6 -0.97,0.82 -0.63,-0.36 -0.3,0.7 -0.47,-0.53 -0.27,0.32 0.44,0.35 -0.47,0.27 -0.11,0.51 -0.78,-0.2 -0.34,0.17 0.02,-0.58 0.36,-0.14 -1.21,-0.45 -0.13,-0.43 0.85,-0.03 0.58,-0.41 0.01,-0.76 -0.85,-0.34 -1.74,0.66 -0.67,-0.37 0.56,-0.24 0.4,-0.65 -0.9,-1.07 0.59,-0.88 0.87,-0.26 -0.38,-0.68 -0.95,0.35 -1.59,1.53 -0.9,0.22 0.41,-1.45 -0.46,-1.26 0.82,-0.27 0.19,-1.57 -0.68,-0.79 0.42,-0.58 -1.5,-1.21 0.72,-0.67 0.17,-1.1 0.64,-0.37 0.27,-1.07 1.21,-0.67 -2.55,-1.76 -1.02,-0.07 -1,-1.08 1.02,-0.67 0.06,-1.18 0.74,-0.22 0.45,0.14 0.55,-0.56 0.96,-0.42 1.73,0.75 1.19,-0.34 1.27,-0.87 0.86,1.52 1.97,0.86 0.33,-1.05 0.75,-0.5 0.66,0.69 0.85,0.1 0.21,1.46 0.5,0.63 0.12,-1.46 0.74,-0.3 0.63,0.42 0.09,-0.75 0.54,-0.39 0.24,0.56 0.65,0.16 1.36,-0.52 0.66,-0.68 -0.16,-0.65 0.75,-0.12 0.75,-1.25 0.46,0.17 0.29,-0.3 0.38,0.11 0.31,-0.21 0.43,-0.43 0.23,-0.76 0.57,-0.2 0.65,-0.67 0.26,-0.93 1.85,-1.19 0.75,-0.11 -0.63,-0.77 0.97,-0.97 0.88,-0.45 0.36,-1.87 0.4,-0.66 0.73,-0.33 0.16,-0.51 1.22,0.03 0.59,-0.47 0.83,0.33 1.12,-0.93 0.18,-0.46 -0.42,-0.9 0.41,-0.87 0.62,0.04 0.51,-0.71 0.49,0.24 1.12,-0.45 1.15,0.67 0.81,-0.52 0.74,0.57 0.38,-0.51 0.5,0.19 -0.12,-0.39 0.37,-0.3 1.11,-0.15 0.18,-1.07 -0.2,-0.74 -0.65,-0.33 -0.63,-1 -0.77,-0.38 -0.16,-1.47 -0.67,-0.52 0.32,-1.6 z" 
                fill="rgb(151, 144, 238)" 
                stroke="white" 
                stroke-width=".7px"
                title="Kakamega" 
                id="KE-11" 
            />
        </svg>