<svg xmlns="http://www.w3.org/2000/svg" viewBox="71.16705000000009 235.76062999999982 32.54999999999991 65.72000000000003" width="32.54999999999991" height="65.72000000000003">
            <path 
                d="m 102.63705,239.91063 0,0 -0.26,0.46 0.28,0.67 -0.42,1.33 0.36,0.22 0.2,1.26 -0.15,1.41 0.33,0.2 -0.5,1.19 -0.11,1.35 -0.33,0 -0.52,0.5 -0.02,0.45 -0.36,0.09 -0.31,0.91 0.21,0.6 -0.4,0.64 0.18,0.22 -0.29,0.06 -0.09,0.49 -0.49,0.14 -0.05,0.27 -0.39,-0.08 -0.31,0.27 0.11,0.5 -0.64,1.3 0.36,0.65 -0.22,0.22 0.04,1.05 -0.36,0.42 0.36,1.96 -0.21,0.45 -0.4,0.11 -0.16,2.28 0.16,0.81 0.99,0.79 -0.4,0.28 0.02,0.55 0.36,0.29 -0.49,0.62 0.19,1.27 -0.22,0.14 -0.46,2.27 -0.31,0.39 0.61,0.97 0.26,1.18 -0.46,0.63 0.11,0.17 -0.31,0.06 0.09,0.39 -1.15,0.32 0.22,1.6 -0.7,1.16 -0.05,0.69 0.11,0.54 0.85,0.69 -0.02,0.98 -0.6,1.05 0.02,1.25 0.54,0.59 0.07,0.78 1.02,0.45 0.04,1.2 0.83,1.21 -0.07,0.54 0.35,0.26 0.09,1.19 0.4,0.59 -0.31,0.97 0.31,0.71 0.38,-0.01 0.1,0.45 0.65,0.48 0.51,-0.03 0.43,0.41 0.13,-0.3 1.35,1.02 -0.66,2.27 0.24,0.53 -0.39,2.45 0.68,1.38 0.09,1.27 -1.69,1.33 0.19,1.12 -6.24,0.03 -0.59,-0.85 -0.46,-0.15 -0.03,-0.57 -0.65,0.43 -2.49,0.04 1.6,-2.12 -0.71,-0.3 -1.27,0.35 -1.13,-1.48 0.53,-0.42 -0.2,-0.31 0.48,-0.79 0.03,-1.64 -0.32,-0.4 0.09,-1.62 -0.75,-0.48 -0.18,-0.57 -0.66,-0.55 0.76,-1.17 -0.17,-1.19 -0.93,-1.04 -0.09,-1.2 0.16,-3.19 0.94,-4.76 -4.08,-6.57 5.37,0.07 0.04,-0.46 -0.63,-0.91 0.4,-1.94 0.28,-0.32 -0.38,-2.98 -0.96,-0.08 0.61,-1.9 -0.24,-1.3 -1.83,0.04 0.73,-1.42 -3.08,-0.43 0.25,-1.73 -1.91,-0.34 -0.39,0.47 -1.05,-0.52 -0.93,-0.11 -0.21,-0.93 0.17,-0.17 -0.38,-0.1 0.14,-0.32 0.73,-0.34 -0.55,-1.55 0.98,-0.15 0.03,-0.56 -2.45,-0.86 -2.36,-1.55 -1.87,-0.8 -1.35,-2.38 -0.94,-0.07 -2.42,-3.61 -0.45,-1.08 9.85,4.74 1.78,-0.89 10.76,-8.75 1.82,-0.37 0.55,0.48 1.3,0.18 1.78,-1.33 3.24,-0.9 -0.09,2.04 0.42,0.66 0.26,0.02 -0.39,0.75 0.19,0.68 z" 
                fill="rgb(151, 144, 238)" 
                stroke="white" 
                stroke-width=".7px"
                title="Keiyo-Marakwet" 
                id="KE-05" 
            />
        </svg>