<svg xmlns="http://www.w3.org/2000/svg" viewBox="62.93704999999994 309.61062999999996 37.970000000000056 30.119999999999834" width="37.970000000000056" height="30.119999999999834">
            <path 
                d="m 87.32705,309.71063 0,0 1.73,-0.1 0.31,0.42 -0.72,0.28 0.07,0.25 1.12,-0.27 1.99,0.39 0.14,-0.42 0.39,0.03 1.18,1.37 2.23,-0.05 1.58,1.42 1.26,0.2 0.35,0.81 -0.22,0.23 0.32,0.39 -0.93,1.14 -0.51,0.19 -0.03,0.41 0.49,0.66 -1.1,1.14 -0.29,-0.02 -0.1,0.39 0.16,1.01 0.58,0.68 0.81,-0.48 0.85,0 0.45,0.05 0.4,0.77 0.9,-0.1 -0.28,1.28 0.45,0.19 -0.55,0.3 -0.14,0.62 -0.32,0.09 0.1,1.69 -0.63,2.01 -0.82,0.25 -0.05,0.69 -0.61,0.35 -0.52,-0.29 -0.39,0.27 -0.17,-0.59 -0.54,-0.32 -0.64,1.74 -0.68,-0.26 0.19,-1.22 -2.48,-1.29 -0.2,0.6 -1.25,-0.06 -1.91,0.5 -3.25,1.41 2.21,3.6 -2.38,2.27 -0.54,-0.3 -3,0.45 -0.93,-0.18 -0.62,0.72 -1.09,0.47 -1.49,-0.43 -0.93,0.37 -1.55,-0.12 -0.8,1.9 -0.54,0.6 0.66,0.27 -0.11,0.5 -1.94,0.34 -0.2,-0.31 -0.19,0.08 -0.26,-0.69 -0.35,0.12 -0.52,-0.42 -0.45,0.12 -0.48,-0.55 -0.37,0.52 -0.15,-0.25 -0.76,-0.11 -0.84,0.52 -0.29,-0.09 -0.15,0.37 -0.74,-0.04 -0.6,0.99 -0.85,0.08 -0.4,0.47 -1.03,-0.1 0.66,-2.92 -0.73,-1.56 -0.7,-0.38 0.09,-0.44 -0.52,-0.78 -0.23,-3.02 2.53,-2.53 0.31,-3.42 0.32,-1.08 0.51,-0.4 1.8,-0.4 1.39,-2.61 0.54,0.43 0.99,0.16 0.47,-0.2 1.15,0.19 0.18,-0.35 1.64,0.86 0.2,1.1 0.75,-0.02 0.27,0.4 0.47,0.04 0.16,0.65 0.78,0.62 0.03,0.56 0.51,0.24 1.58,0.02 0.86,0.6 1.54,-0.5 -0.57,-3.64 -1.98,-0.02 -0.36,-0.62 -0.52,0.05 0.25,-0.51 -0.42,-0.7 -0.4,0.44 -0.97,-1.83 -0.96,-0.05 -0.57,-0.75 3.06,-0.41 1.59,-0.72 1.89,1.3 1.75,0.05 1.75,-1.32 1.25,-0.52 -1.16,-3.07 0.56,-1.7 1.37,-0.77 -0.15,-0.39 z" 
                fill="rgb(151, 144, 238)" 
                stroke="white" 
                stroke-width=".7px"
                title="Kericho" 
                id="KE-12" 
            />
        </svg>