<svg xmlns="http://www.w3.org/2000/svg" viewBox="147.54705000000013 354.53063 49.990000000000066 31.83000000000004" width="49.990000000000066" height="31.83000000000004">
            <path 
                d="m 151.23705,363.77063 0,0 0.9,-0.51 -0.39,-0.41 1.44,-0.98 0.63,-1.43 -0.47,-0.74 -0.22,-1.28 1.87,0.19 -0.59,-1.38 2.4,-2.35 0.47,0.18 0.75,-0.53 0.8,0.36 1.97,2.38 1.06,0.67 0.52,0.77 1.51,0.14 1.8,1.3 1.04,0.41 0.78,0.78 1.11,0.26 0.34,0.45 0.74,0.14 0.21,0.32 0.4,-0.08 0.33,0.85 0.82,0.1 0.3,0.86 2.44,1.57 0.58,1.01 0.83,0.19 2.44,1.98 0.83,1.11 0.8,0.17 1.2,-0.45 0.83,0.45 1.16,0.12 0.53,0.31 0.4,0.68 0.53,-0.27 1.26,0.31 1.15,-0.54 0.14,-0.56 0.94,0.47 1.22,-0.47 1,-0.94 0.71,0.4 1.16,-0.47 2.61,2.81 0.27,-0.12 0.56,0.75 0.55,0.27 0.3,-0.11 0.56,0.69 0.78,0.16 -1.13,1.3 -2.58,-2.64 -0.96,-0.3 -0.75,0.09 -1.32,0.7 -0.79,-0.27 -1.15,0.28 -2.04,2.06 0.64,1.29 -0.38,1.09 0.13,0.52 -1.15,1.52 -0.37,0.12 0.24,0.59 -0.37,0.2 0.09,0.71 -0.74,0.24 -0.34,0.41 -0.88,0.12 -0.1,0.63 -0.52,0.07 -0.03,0.75 -0.37,0.06 -0.92,-0.78 0.43,-0.23 -0.36,-0.66 -0.52,0.3 -1.04,-1.83 -1.03,0.24 -2.16,1.54 -1.06,-0.78 -1.79,0.33 -1.49,-0.42 -1.12,-0.87 1.72,-1.85 -1.31,-0.72 -1.16,-0.05 -0.63,0.66 0.66,1.17 -1.38,0.17 -0.76,-0.36 -0.15,0.73 -0.51,0.05 -0.12,0.49 -1.06,-0.3 0.2,0.48 -2.42,-1.34 -0.39,0.64 0.38,0.4 -0.81,1.17 -1.18,-0.51 -0.49,0.84 -1.05,-0.18 -0.5,1.66 -1.56,-0.15 0.07,0.54 -0.4,0.36 -0.01,0.61 -1.16,1.71 -0.36,-0.59 -9.68,-1.89 1.28,-1.81 1.77,-6.47 1.27,-1.54 0.18,0.08 1.22,-2.18 -0.23,-1.08 0.55,-3.49 -0.52,-0.23 0,-1 -0.28,-0.79 -0.43,-0.33 0.32,-0.74 -0.55,-0.45 -0.41,0.16 -0.48,-0.24 z" 
                fill="rgb(151, 144, 238)" 
                stroke="white" 
                stroke-width=".7px"
                title="Kiambu" 
                id="KE-13" 
            />
        </svg>