<svg xmlns="http://www.w3.org/2000/svg" viewBox="296.4070500000001 443.26063000000005 65.68000000000018 96.35999999999996" width="65.68000000000018" height="96.35999999999996">
            <path 
                d="m 346.49705,505.25063 0,0 -0.11,-0.05 0.06,-0.02 0.05,0.07 z m 0.63,-1.62 0,0 -0.07,-0.29 0.41,-0.14 -0.34,0.43 z m -0.88,-0.45 0,0 -0.27,0.49 -0.64,-0.27 0.81,-0.2 0.12,-0.37 -0.02,0.35 z m 1.32,-0.41 0,0 -0.06,-0.09 0.07,-0.07 -0.01,0.16 z m -0.74,0.08 0,0 -0.37,-0.2 0.11,-0.55 0.26,0.75 z m 11.07,-21.23 0,0 -0.07,-0.1 0.37,-0.41 -0.3,0.51 z m 0.53,-0.31 0,0 -0.39,-0.89 0.35,0.48 0.04,0.41 z m -0.9,-0.31 0,0 -0.21,-0.38 0.14,-0.46 0.07,0.84 z m 0.16,-1.79 0,0 -0.05,0.51 -0.2,-1.09 0.55,-1.76 -0.44,1.7 0.14,0.64 z m 0.35,-3.26 0,0 -0.18,-0.54 0.2,-0.29 -0.02,0.83 z m 0.83,-3.83 0,0 -0.15,-0.14 0.12,-0.15 0.03,0.29 z m -0.25,-0.33 0,0 -0.08,-0.07 0.08,-0.02 0,0.09 z m -0.36,-1.16 0,0 -0.02,0.27 -0.32,-0.38 0.34,0.11 z m -0.48,-0.04 0,0 -0.28,-0.39 0.24,-0.01 0.04,0.4 z m 0.97,-0.34 0,0 0.08,-0.61 0.1,0.12 -0.18,0.49 z m -0.5,-0.29 0,0 0,-0.31 0.14,-0.1 -0.14,0.41 z m 0.11,-0.61 0,0 -0.01,-0.13 0.31,-0.28 -0.3,0.41 z m 0.56,-0.7 0,0 0.2,-0.61 0.14,-0.02 -0.34,0.63 z m 0.03,-0.42 0,0 -0.04,-0.09 0.09,-0.23 -0.05,0.32 z m -0.21,-0.07 0,0 -0.48,0.04 0.36,-0.35 0.12,0.31 z m -0.78,-0.34 0,0 -0.13,-0.07 0.15,-0.15 -0.02,0.22 z m 0.19,-0.32 0,0 -0.15,-0.07 0.05,-0.12 0.1,0.19 z m 0.33,-0.56 0,0 0.17,0.39 -0.36,0.4 0.16,-1.21 0.03,0.42 z m -0.13,-0.58 0,0 -0.14,0.2 -0.62,-0.08 0.16,0.8 -0.49,-0.03 0.46,0.82 0.3,0.15 0.12,-0.26 0.11,0.88 -0.39,0.55 -0.28,-0.55 0.07,0.58 -0.23,0.08 0.37,0.11 0.04,0.44 -0.49,-0.04 0.12,0.46 -0.28,0.24 0.31,0.13 0.15,0.46 0.26,-0.43 0.75,1.39 -0.14,0.68 0.18,-0.13 0.12,0.21 -0.54,0.5 0.09,0.34 -0.34,0.81 0.05,-0.36 -0.15,0.17 -0.34,1.42 -0.29,0 -0.13,-0.76 -0.14,1.3 -0.27,-0.17 -0.2,0.29 0.22,0.5 1.22,-0.68 -0.43,1.35 -0.36,-0.51 -0.44,0.33 -0.01,0.51 0.67,-0.2 -0.12,1.31 -0.45,0.16 0.15,1.36 -0.28,2.61 0.24,-0.12 -0.49,0.49 0.11,1.62 0.38,-0.27 -0.26,-0.19 0.44,-0.5 0.24,0.33 0.31,-0.12 0.15,-0.79 0.64,-0.43 0.37,-1 0.91,-0.22 1.03,0.15 1.05,-0.93 0.25,0.52 -0.21,0.51 -0.31,-0.2 -0.6,0.49 -0.96,0.25 -0.54,0.66 -0.05,0.64 -0.78,0.27 -0.5,0.52 -0.2,0.6 0.2,0.78 -1.08,1.14 0.32,0.72 0.07,1.9 -1.32,1.6 -0.7,-0.56 0.38,0.53 -0.08,0.39 0.21,-0.08 -0.76,1.29 -0.2,1.01 0.62,1.06 -0.12,1.42 0.33,0.52 -0.67,1.86 -3.8,2.66 -1.62,0.8 -0.02,0.29 -0.6,0.1 -0.02,0.32 -0.42,-0.07 -1.82,1.6 -0.3,-0.09 0.12,-0.65 0.64,-0.47 0.55,0.13 0.26,-0.21 -0.35,-0.08 0.13,-0.71 -0.54,-1.05 0.74,-1.09 -2.66,1.03 0.31,0.59 -0.44,0.4 -0.37,-0.17 -0.22,0.2 0.14,0.9 -0.31,0.32 0.53,0.25 -0.47,0.73 0.63,-0.6 0.31,0.42 0.75,0.22 0.12,1.1 -2.32,4.8 -1.46,4.33 -1.96,3.76 -1.29,-0.05 -1.71,-1.66 -1.28,0.14 -0.11,-0.2 -0.11,0.35 -0.36,0.06 -0.25,-0.86 0.23,0.07 -0.06,-0.55 0.39,-0.12 -0.07,-0.27 -0.82,0.61 -0.01,0.47 0.49,0.75 1.33,0.05 0.05,0.43 0.3,0.14 -0.74,0.28 -0.37,-0.41 -0.58,0.16 0.76,0.6 0.14,0.71 0.32,-0.25 0.25,0.44 0.75,-0.1 0.42,-0.69 0.17,0.21 0.45,-0.47 0.41,0.39 1.02,0.23 0.32,0.71 -0.12,1.29 -0.6,0.17 -0.91,-0.2 0.91,0.29 0.6,-0.17 0.27,0.97 -1.49,3.91 -0.81,3.25 -3.29,7.07 -1.17,0.71 -0.9,-0.49 -0.59,0.24 -0.68,-0.18 -0.23,-0.39 0.1,-0.49 -0.46,-0.49 0.84,-1.49 -0.01,-0.22 -0.31,0.04 -0.21,0.68 -0.76,0.37 -0.25,-0.29 -0.12,0.88 -1.05,-0.18 -1.64,0.25 0.06,0.49 0.37,0.09 0.19,0.55 -0.37,0.33 0.19,0.54 -0.51,-0.13 -0.74,0.35 -0.47,-0.42 -0.63,0.22 -0.59,-0.63 -0.85,1.14 -0.86,0.41 0.33,0.63 -0.38,0.43 -0.77,-0.56 -0.64,0.47 0.09,-1.27 -1.08,-1.33 0.15,-0.93 -0.42,-0.11 -0.28,-1 -0.89,-0.52 -0.33,-0.98 -0.62,-0.23 -1,-1.28 -1.2,-0.59 -1.42,-1.61 -0.73,0.16 -0.33,-0.16 -0.28,0.23 -1.11,-0.97 -0.11,-0.97 0.75,-0.48 -0.04,-0.37 -0.42,-0.24 0.64,-0.31 -0.04,-1.7 -1.05,0.23 -0.92,-0.73 -0.19,-1.16 -0.37,-0.31 0.18,-0.52 0.22,0.02 0.04,-2.27 -0.35,-0.9 -0.33,-0.08 0.26,-2.03 -0.48,-0.54 -0.68,-0.2 -0.45,-1.35 -1.09,0.26 -11.87,-0.07 7.22,-28.51 38.37,-43.45 16.35,23.1 z" 
                fill="rgb(151, 144, 238)" 
                stroke="white" 
                stroke-width=".7px"
                title="Kilifi" 
                id="KE-94" 
            />
        </svg>