<svg xmlns="http://www.w3.org/2000/svg" viewBox="185.00705000000005 319.8106299999997 20.139999999999986 36.2300000000003" width="20.139999999999986" height="36.2300000000003">
            <path 
                d="m 201.17705,340.39063 0,0 0.99,1 0.33,1.14 1.32,0.65 0.26,0.97 0.34,0.31 -0.41,1.02 0.65,0.87 -0.87,2 0.31,1.05 -0.21,0.99 0.3,0.45 -0.04,1.18 0.5,0.21 0.5,0.78 -1.29,-0.33 -0.59,0.25 -0.06,0.33 -1.32,-0.15 -1.12,0.83 -1.03,0.04 -1.43,0.66 -0.35,-0.11 -0.07,0.29 -0.57,0.3 -1.82,-0.29 -0.56,-0.82 -2.4,0.36 -0.52,1.67 -0.62,-1.72 0.28,-0.21 0.54,0.15 -0.46,-0.39 0.19,-0.16 -0.51,-0.97 -0.38,-0.17 0.28,-0.22 -0.3,-0.74 -0.28,0.02 -0.11,-0.29 0.09,-0.63 -0.44,-0.85 0.06,-0.53 -0.64,0.31 -0.75,0.9 -0.77,-1.44 -1.15,0.21 -0.14,-0.76 -0.42,-0.26 -0.02,-0.81 0.43,-0.12 -0.26,-0.35 0.1,-0.6 0.25,-0.09 -0.03,-0.75 -0.56,-0.59 -0.5,0.02 -0.89,-1.42 0.34,-0.69 -0.18,-1.18 1.24,-1.55 -0.37,-0.87 0.87,-0.51 -0.11,-2.31 1.07,0.03 0.35,-0.23 -0.02,-0.51 0.35,-0.29 -0.01,-0.5 5.86,-15.16 6.61,14.71 0.07,1.45 -0.22,0.57 0.3,0.36 -0.22,1.85 0.33,0.73 -0.09,0.91 z" 
                fill="rgb(151, 144, 238)" 
                stroke="white" 
                stroke-width=".7px"
                title="Kirinyaga" 
                id="KE-15" 
            />
        </svg>