<svg xmlns="http://www.w3.org/2000/svg" viewBox="40.65704999999999 339.83063 22.55000000000001 26.979999999999905" width="22.55000000000001" height="26.979999999999905">
            <path 
                d="m 54.57705,339.83063 0,0 1.19,1.29 0.06,0.96 -0.66,1.93 0.51,0.63 -0.17,0.28 0.67,0.59 -0.19,0.83 -0.37,0.28 -0.34,-0.49 -0.21,0.48 -1.11,-1.37 -0.3,-0.03 -0.63,0.48 -0.18,0.67 -0.91,0.92 -0.35,1.15 0.15,1.02 -0.77,-0.24 -0.73,0.47 0.48,0.86 0.75,-0.17 0.74,0.34 0.23,0.77 0.67,0.19 0.97,0.96 1.95,1.24 0.49,-0.07 0.61,0.83 0.91,0.04 1.22,0.7 3.95,6.65 -19.27,4.79 -1.45,-0.46 -1.02,0.02 -0.81,-3.7 0.73,-9.78 0.73,-1.4 -0.43,-2.01 0.46,-2.09 1.01,-1.68 1.35,-0.23 1.06,-1.47 2.69,-0.96 0.9,-0.78 4.68,-1.89 0.74,-0.55 z" 
                fill="rgb(151, 144, 238)" 
                stroke="white" 
                stroke-width=".7px"
                title="Kisii" 
                id="KE-16" 
            />
        </svg>