<svg xmlns="http://www.w3.org/2000/svg" viewBox="28.827049999999986 309.80062999999996 53.2 25.149999999999977" width="53.2" height="25.149999999999977">
            <path 
                d="m 35.82705,312.05063 0,0 0.78,0.37 0.41,-0.36 0.46,0.01 -0.09,1.12 0.21,0.27 0.62,-0.24 0.38,-0.27 0.55,-1.36 -0.18,-0.49 0.85,-0.64 0.57,0.75 1.36,0 1.44,0.79 1.59,-0.22 -0.21,0.91 0.42,-0.33 0.79,0.06 0.39,-0.66 0.72,-0.22 0.71,1.1 0.41,-0.06 0.43,0.5 0.48,-0.91 1.03,0.22 0.36,-0.81 0.92,-0.99 0.35,-0.05 0.52,-0.62 0.69,-0.12 -1.54,2.1 0.3,0.58 1.01,0.32 5.4,-0.1 -0.07,0.38 0.22,0.19 1.79,-0.33 -0.13,-0.23 0.68,0.31 0.8,-0.44 0.64,0.01 -0.03,-0.27 1,0.54 2.47,0.35 0.89,1.89 0.36,-0.66 1.11,-0.69 0.2,-0.76 0.37,-0.29 -0.06,-1.32 2.95,2.03 0.55,-0.45 1.84,-0.28 0.7,0.16 0.86,0.48 0.32,1.72 0,2.22 0.57,0.75 0.96,0.05 0.97,1.83 0.4,-0.44 0.42,0.7 -0.25,0.51 0.52,-0.05 0.36,0.62 1.98,0.02 0.01,0.91 0.67,2.53 -1.63,0.71 -0.88,-0.61 -1.59,-0.02 -0.51,-0.25 -0.02,-0.55 -0.78,-0.62 -0.16,-0.65 -0.47,-0.04 -0.27,-0.4 -0.75,0.02 -0.2,-1.1 -0.65,-0.52 -1,-0.34 -0.17,0.35 -1.15,-0.19 -0.47,0.2 -0.99,-0.16 -0.54,-0.43 -1.39,2.61 -1.8,0.4 -0.51,0.4 -0.32,1.08 -0.31,3.42 -2.53,2.53 0.23,3.02 -0.52,0.75 -0.78,0.18 -0.15,0.31 -0.71,-0.21 -0.89,0.37 -1.67,-0.24 -0.01,-0.49 -0.24,-0.1 -0.64,0.1 0.05,-1.04 -1.2,0.5 -0.36,0.44 -0.14,-0.27 -1.08,-0.15 -0.25,0.18 -0.25,-0.3 -1.94,-0.25 -0.06,-0.96 -0.69,-1.12 -0.71,0.16 -0.46,-0.36 0.14,-0.37 -0.41,0 -0.15,-0.51 0.42,-0.1 -0.26,-0.49 -0.24,0.05 -0.72,-0.75 -0.5,0.22 -0.31,-1.38 -2.76,-1.8 -9.94,0.78 -2.8,1.58 -4.11,-12.63 2.79,-2.06 1.45,-0.71 2.48,-0.52 0.28,-0.31 z" 
                fill="rgb(151, 144, 238)" 
                stroke="white" 
                stroke-width=".7px"
                title="Kisumu" 
                id="KE-17" 
            />
        </svg>