<svg xmlns="http://www.w3.org/2000/svg" viewBox="259.48704999999984 515.0306299999996 68.27000000000021 65.26000000000033" width="68.27000000000021" height="65.26000000000033">
            <path 
                d="m 314.37705,580.29063 0,0 -0.16,-0.09 0.21,-0.07 -0.05,0.16 z m -0.28,-1 0,0 -0.1,-0.07 0.12,-0.02 -0.02,0.09 z m -0.15,0 0,0 -0.18,-0.07 0.08,-0.04 0.1,0.11 z m -1.96,-1.71 0,0 1.61,0.21 0.33,-0.22 0.27,0.78 -0.23,0.14 -0.86,-0.42 -1.38,0 0.23,-0.22 -0.2,-0.39 0.23,0.12 z m -7.64,-0.21 0,0 0.08,-0.29 0.09,0.12 -0.17,0.17 z m -0.73,-0.39 0,0 -0.06,-0.18 0.22,0.11 -0.16,0.07 z m 0.66,0.19 0,0 -0.39,-0.31 0.24,-0.12 0.15,0.43 z m -0.54,-0.46 0,0 -0.04,-0.02 0.04,-0.1 0,0.12 z m 0.71,-0.11 0,0 -0.21,0.03 0.12,-0.22 0.09,0.19 z m 0.31,-0.54 0,0 -0.09,-0.06 0.13,-0.29 -0.04,0.35 z m 0.45,-0.43 0,0 -0.22,-0.13 -0.01,-0.37 0.23,0.5 z m 0.29,-0.28 0,0 -0.11,-0.11 0.46,-0.27 -0.35,0.38 z m 0.8,-0.27 0,0 -0.3,-0.07 -0.07,-0.1 0.37,0.17 z m 1.43,-0.93 0,0 0.11,0.27 -0.31,-0.25 0.1,-0.41 0.1,0.39 z m 6.84,-1.09 0,0 -0.54,0.03 0.53,-0.18 0.01,0.15 z m -0.48,-0.12 0,0 -0.23,-0.08 0.15,0 0.08,0.08 z m -5.25,0.01 0,0 -0.41,0.9 -0.22,-0.85 0.52,-0.21 0.11,0.16 z m 5.33,-0.11 0,0 -0.08,-0.08 0.08,0 0,0.08 z m 0.71,-0.12 0,0 -0.09,-0.1 0.1,-0.06 -0.01,0.16 z m 2.18,-0.66 0,0 -0.01,0.89 -0.71,0.85 -0.26,-0.07 -0.16,-1.43 -0.43,-0.44 0.29,0.24 0.07,-0.45 0.1,0.24 0.64,0.16 0.44,-1.52 0.47,0.26 -0.06,0.92 -0.38,0.35 z m 4.57,-6.57 0,0 -0.08,-0.19 0.22,-0.1 -0.14,0.29 z m -12.26,-50.46 0,0 0.45,1.35 0.68,0.2 0.48,0.54 -0.26,2.03 0.33,0.08 0.35,0.9 -0.04,2.27 -0.22,-0.02 -0.18,0.52 0.37,0.31 0.19,1.16 0.92,0.73 1.05,-0.23 0.04,1.7 -0.64,0.31 0.42,0.24 0.04,0.37 -0.75,0.48 0.11,0.97 1.11,0.97 0.28,-0.23 0.33,0.16 0.73,-0.16 1.42,1.61 1.2,0.59 1,1.28 0.62,0.23 0.33,0.98 1.15,0.85 -0.16,0.26 0.18,0.41 0.42,0.11 -0.15,0.93 1.08,1.33 -0.09,1.27 0.64,-0.47 0.78,0.56 0.15,0.59 -0.41,0.94 0.79,1.01 0.12,2.76 0.45,0.97 -0.57,0.98 1.05,-0.25 0.01,-0.77 0.73,-0.72 1.33,1.78 0.36,0.03 -0.71,1.39 0.88,0.59 -1.57,2.65 -0.87,3.06 -0.86,0.07 0.76,0.05 0.03,0.74 -2.79,6.8 -0.6,2.72 -0.29,-0.04 0.18,-0.89 -0.24,-0.8 -0.29,-0.22 -0.27,0.17 -0.14,-0.37 -0.12,0.2 -0.52,-0.15 -0.12,1.22 0.17,-0.29 0.15,0.27 -0.2,0.89 -0.38,0.3 -0.7,-0.12 0.56,0.26 -0.12,1.29 -1.16,1.17 -0.81,2.52 -0.22,-0.11 -0.07,-0.61 -0.8,-0.82 -0.28,0.78 -0.6,-0.33 -0.3,0.19 0.24,1.07 -0.65,-0.08 -0.32,0.92 -0.25,-0.14 -0.82,0.4 0.09,-0.52 -0.89,0 -0.09,-0.21 -0.06,0.88 0.64,0.42 0.15,1.54 0.34,-0.48 -0.28,0.79 0.78,2.76 -1.34,0.14 -1.8,-0.6 -1.09,0.35 -0.53,-0.53 -0.09,0.18 -0.06,-0.25 -0.18,0.2 -0.23,-0.13 -0.06,-0.52 0.28,-0.53 0.33,0.27 0.02,-0.37 0.33,0.06 -0.41,-0.57 -0.57,0.25 0.68,-0.69 -0.24,-0.23 0.15,-0.82 0.63,-0.65 0.35,0.08 -0.16,-0.43 -0.57,0.09 -0.57,-0.51 0.33,0.69 -1.39,0.16 -0.88,0.99 -0.12,-0.28 -0.16,0.3 -0.18,-0.34 -0.52,0.22 -1,-0.87 -0.15,0.14 0.57,1.3 0.97,0.45 -0.36,0.16 -0.27,-0.3 -0.55,0.89 0.03,-0.54 -0.21,-0.09 -0.41,0.83 -0.23,-0.29 -0.45,0.27 0.37,0.21 -0.37,0.13 -0.2,0.54 0.56,-0.03 -0.84,0.15 -0.39,0.76 0.16,0.33 0.4,-0.1 -0.28,0.7 -0.29,-0.2 0.14,0.34 0.33,0.27 0.36,-0.29 -0.41,0.67 -0.66,-0.11 -0.24,-0.52 -0.48,0.08 -0.15,-0.53 -42.58,-29.86 28.52,-10.22 5.24,-11.41 -6.26,-3.69 2.15,-3.64 5.5,3.29 1.77,-7 11.87,0.07 1.09,-0.26 z" 
                fill="rgb(151, 144, 238)" 
                stroke="white" 
                stroke-width=".7px"
                title="Kwale" 
                id="KE-19" 
            />
        </svg>