<svg xmlns="http://www.w3.org/2000/svg" viewBox="130.1370500000001 261.47062999999997 69.18999999999988 66.63000000000022" width="69.18999999999988" height="66.63000000000022">
            <path 
                d="m 147.56705,262.76063 0,0 -0.36,1.9 10.7,0.01 1.01,-0.23 1.21,0.17 1.5,-0.61 1.23,-1.9 2.13,-0.63 1.27,0.77 1.06,3.17 0.56,0.32 -0.17,0.28 1.42,2.99 1.19,0.24 0.95,-0.39 0.62,0.67 0.33,-0.55 0.69,-0.27 -0.27,0.8 -0.2,3.63 -0.13,0.27 -0.46,-0.03 -0.21,1.63 -0.69,0.11 -0.23,0.5 -0.2,-0.06 -0.12,0.77 -0.25,-0.2 -0.95,0.92 -0.15,1.79 28.85,3.1 -0.55,0.64 0.03,1.5 -0.63,1.04 -0.04,0.94 0.34,1.62 0.48,0.21 0.43,1.45 0.53,0.29 -0.07,0.76 0.79,0.6 0.12,3.64 -0.33,0.22 -0.14,0.64 -0.64,0.19 -0.12,0.48 -0.73,0.52 0.41,0.41 -1.08,2.24 0.03,0.63 -0.86,0.23 0.26,0.46 -1.77,0.26 -1.51,1.56 -0.1,1.38 -1.46,1.72 -0.31,-0.4 -0.74,0.15 -0.09,1.08 -0.6,0.39 -1.96,1.02 -2,0.44 -0.8,0.6 -1.66,0.09 -1.29,0.95 0.86,0.92 0.41,1.11 1.21,0.97 -0.45,1.4 -2.69,-2.96 0.02,-0.71 -0.33,0.51 -0.45,-0.06 -0.67,0.68 -1.55,2.24 -2.71,1.24 0.38,3.67 0.58,0.61 0.74,0.26 -0.13,1.52 0.7,0.23 -0.56,2.31 0.27,0.6 -0.6,0.97 -0.75,0.4 0.44,0.89 -0.59,1.42 -1.38,-0.65 -4.77,-1.4 -0.52,-0.64 -0.8,0.3 -0.98,-3.24 0.71,0 1.09,-1.14 -0.72,-1.3 0.17,-0.66 -1.74,-0.44 0,-1.84 -2.19,0.18 -1.47,0.46 -0.11,-0.31 -0.62,0.66 -2.08,0.5 -0.29,0.41 -3.26,0.99 -1.19,-2.59 -3.42,-0.21 -1.2,-0.78 0.3,-0.61 -0.73,-0.71 2.01,-2.64 3.99,-0.3 -0.85,-1.89 -2.03,0.73 -0.58,-1.4 -0.05,-0.93 -0.82,-1.53 -3,1.27 -0.62,-2.09 -2.75,-3.15 -1.22,2.79 -1.03,0.35 -1.28,1.47 1.33,0.78 -0.6,0.37 -0.83,-0.03 0.02,0.41 -0.39,0.14 -0.4,-0.39 -0.04,0.32 -1.22,-0.96 -0.52,-1.15 -0.32,-0.11 -0.7,0.44 0.52,1.82 -2.46,0.85 -0.23,0.62 -0.29,0.03 -0.04,-0.41 -1.23,0.74 -0.23,1.17 -0.67,0.03 0.55,-2.76 -0.57,-1.71 0.82,-1.83 1,-1.33 -0.19,-0.92 -0.44,-1.18 -2.3,-3.48 -1.94,-1.47 0.76,-1 -1.79,-3.55 2.61,-6.42 3.7,-7.93 -1.05,-3.79 0.73,-0.74 3.2,-0.84 3.43,-3.31 3.93,-6.94 0.88,-0.47 z" 
                fill="rgb(151, 144, 238)" 
                stroke="white" 
                stroke-width=".7px"
                title="Laikipia" 
                id="KE-20" 
            />
        </svg>