<svg xmlns="http://www.w3.org/2000/svg" viewBox="360.1870499999997 406.0006300000001 77.41000000000003 46.30000000000001" width="77.41000000000003" height="46.30000000000001">
            <path 
                d="m 389.06705,442.41063 0,0 0.36,0.14 -0.04,0.37 -0.47,-0.23 -0.02,-0.39 0.17,0.11 z m 3.99,-0.52 0,0 -0.32,0.03 0.39,-0.46 -0.07,0.43 z m -1.34,-0.54 0,0 -0.09,-0.16 0.14,0.09 -0.05,0.07 z m 1.64,0.07 0,0 -0.01,-0.33 0.17,0.1 -0.16,0.23 z m -1.68,-0.82 0,0 0.54,-0.04 -0.72,0.28 -0.09,-0.37 0.27,0.13 z m -0.78,-0.47 0,0 0.24,0.1 -0.09,0.24 -0.39,-0.18 0.24,-0.16 z m -1.14,0.05 0,0 -0.12,-0.12 0.07,-0.01 0.05,0.13 z m 9.53,-0.47 0,0 1.34,2.38 -0.11,0.3 -2.55,0.13 -3.12,1.97 -0.04,-1.94 0.19,0.02 0.06,-0.88 0.32,-0.43 1.25,0.15 -0.63,-0.61 0.48,-0.52 1.3,-0.03 0.21,-0.29 0.12,0.27 0.52,-0.54 0.48,-0.16 0.18,0.18 z m -4.31,0.18 0,0 0.45,-0.47 -0.15,0.33 -0.3,0.14 z m -0.22,-0.44 0,0 0.05,-0.13 0.17,-0.02 -0.22,0.15 z m 0.2,-0.55 0,0 0.01,0.13 -0.4,0.05 0.39,-0.18 z m 6.65,-0.21 0,0 -0.15,-0.12 0.13,0 0.02,0.12 z m 0.55,-0.09 0,0 -0.1,-0.1 -0.01,-0.12 0.11,0.22 z m 2.51,-0.25 0,0 0.27,-0.03 0.08,0.28 -0.55,-0.29 0.2,0.04 z m -0.75,-0.11 0,0 0.87,2.08 -0.84,0.85 -1.05,1.93 -0.95,0.52 -1.13,-0.05 -0.33,-0.44 0.49,-0.66 0.09,0.26 0.16,-0.34 0.66,-0.32 1.04,0.32 0.5,-0.96 -0.55,0.42 -0.57,-0.35 -0.59,0.15 -0.37,-0.2 -1.05,-1.47 -0.44,-1.72 0.81,0.12 0.46,0.44 0.07,-0.17 0.16,0.44 0.56,0.01 -0.36,1.02 0.43,0.27 0.17,-0.18 -0.33,-0.24 0.73,-0.91 -0.15,-0.39 0.53,0.03 0.46,0.58 -0.51,0.51 0.31,0.4 0.76,-0.46 -0.27,-0.28 0.23,-0.6 -0.44,-0.47 0.21,-0.26 0.23,0.12 z m 0.26,-3.49 0,0 -0.06,-0.03 0.03,-0.07 0.03,0.1 z m 4.63,-0.1 0,0 -0.72,-0.04 -0.15,-0.44 0.68,-0.12 0.34,0.3 -0.15,0.3 z m -4.13,-1.05 0,0 0.19,0.27 -0.79,0.34 0.18,-0.55 0.42,-0.06 z m 2.33,-0.08 0,0 -0.41,0.05 0.15,-0.27 0.26,0.22 z m 3.02,-0.52 0,0 0.18,0.23 -0.24,-0.05 0.06,-0.18 z m -4.77,-1.92 0,0 -0.22,-0.13 0.16,-0.15 0.06,0.28 z m 0.04,-0.4 0,0 0.14,0.09 -0.15,-0.01 0.01,-0.08 z m 8.18,0.81 0,0 0.44,-0.2 0.36,0.45 -0.66,0.29 -0.87,-0.4 -0.11,-0.3 0.28,-0.23 0.06,-0.62 0.31,0.21 -0.13,0.58 0.32,0.22 z m -4.95,-1.05 0,0 0.41,0.32 -0.51,0.93 -0.94,0.08 -0.92,0.94 -0.61,0.02 0.47,0.45 -0.22,0.25 -0.95,0.04 -0.66,-0.39 -0.08,-0.81 -0.75,-0.2 0.21,-0.56 0.95,-0.33 0.32,0.03 -0.09,0.51 0.63,0.46 0.06,-1.11 0.76,0.25 0.58,-0.54 0.79,-0.23 -0.03,-0.2 0.58,0.09 z m 1.83,-1.91 0,0 0.67,0.22 -0.11,-0.31 0.28,-0.06 0.98,0.97 -0.15,-0.46 0.31,-0.11 0.7,0.62 -0.29,0.27 0.83,-0.13 -0.43,-0.45 0.17,-0.07 0.53,0.43 0.85,0.18 0.13,0.52 -0.73,0.8 -0.11,-0.35 -0.58,0.36 -0.23,-0.77 -1.45,-0.07 -0.56,0.98 -0.3,0.01 0.67,0.42 0.16,0.51 -0.24,0.53 0.53,0.35 -0.55,0.48 -1.1,-0.16 0.28,-0.24 -0.32,-0.08 -0.05,-0.59 0.48,-0.2 -0.13,-0.27 -0.15,0.33 -0.32,-0.03 -0.08,-0.31 -0.29,0.1 0.28,0.4 -0.69,0.33 0.53,0.13 -1.16,0.42 -0.65,-0.07 0.45,-0.2 0.27,-0.62 -0.31,-0.02 0.28,-1.18 0.61,-0.05 -0.51,-0.82 0.96,-0.36 0.35,-0.65 -0.31,-0.23 0.41,-0.71 0.09,0.21 z m 1.44,0.06 0,0 -0.16,-0.16 0.15,-0.14 0.01,0.3 z m -0.3,-0.13 0,0 -0.13,-0.21 0.15,0.06 -0.02,0.15 z m -7.65,-0.2 0,0 0.11,0.16 -0.38,0.02 0.13,-0.58 0.14,0.4 z m 13.19,-2.58 0,0 0.35,0.1 0.3,0.6 -0.72,-0.38 0.07,-0.32 z m -1.35,-0.96 0,0 -0.22,0.24 0.02,-0.27 0.2,0.03 z m -1.23,-0.58 0,0 0.32,0.1 -0.04,0.39 -0.31,0.07 -0.13,-0.29 -0.11,0.28 -0.58,-0.1 0.44,-0.16 0.13,-0.35 0.28,0.06 z m 1.69,0.35 0,0 -0.3,-0.41 0.34,-0.32 -0.04,0.73 z m 5.27,1.12 0,0 -1.31,1.57 -0.36,0.06 1.37,-2.01 1.76,-1.73 -1.46,2.11 z m -1.52,-2.38 0,0 0.1,0.1 -0.4,-0.15 0.3,0.05 z m -0.75,-0.17 0,0 0.29,0.14 -0.39,-0.07 0.1,-0.07 z m 0.24,-0.1 0,0 0.02,0.11 -0.24,-0.08 0.22,-0.03 z m -4.5,0.18 0,0 0.01,0.24 0.52,-0.21 0.14,0.36 -1.86,0.22 0.32,-0.61 0.17,0.15 0.17,-0.28 0.37,0.13 0.2,-0.22 -0.04,0.22 z m 4.12,-0.12 0,0 -0.11,-0.12 0.15,-0.01 -0.04,0.13 z m 2.31,-0.56 0,0 0.17,0.2 -0.28,0.44 0.11,-0.64 z m -0.72,0.09 0,0 -0.13,-0.11 0.28,-0.02 -0.15,0.13 z m -4.48,0.01 0,0 -0.07,0.22 -0.19,-0.24 0.21,-0.24 0.05,0.26 z m 1.27,-0.99 0,0 -0.15,-0.1 0.21,-0.17 -0.06,0.27 z m 1.42,-0.13 0,0 -0.13,-0.29 0.15,0.18 -0.02,0.11 z m 6.3,-0.18 0,0 -1.08,1.05 0.77,-1.21 0.31,0.16 z m -7.42,-0.18 0,0 -0.25,0.08 0.11,-0.16 0.14,0.08 z m 1.48,0.07 0,0 0.02,-0.2 0.19,-0.03 -0.21,0.23 z m -0.92,-0.32 0,0 -0.12,-0.13 0.19,-0.12 -0.07,0.25 z m -0.77,-0.23 0,0 0.08,0.27 -0.3,0.09 -0.02,-0.32 0.24,-0.04 z m 7.85,0.03 0,0 -0.58,0.25 0.25,-0.33 0.33,0.08 z m -7.89,-0.36 0,0 0.19,0.05 -0.23,0.17 0.04,-0.22 z m 9.11,-0.06 0,0 -0.03,-0.04 0.07,-0.04 -0.04,0.08 z m -1.11,0.77 0,0 0.47,-0.85 0.23,0.01 -0.7,0.84 z m -7.05,-0.51 0,0 0.13,-0.35 0.37,0 -0.5,0.35 z m 7.95,-0.31 0,0 -0.04,-0.04 0.16,-0.07 -0.12,0.11 z m 0.48,-0.73 0,0 0.2,-0.44 0.19,0.03 -0.39,0.41 z m 1.44,-2.2 0,0 0.2,0.13 -0.53,0.22 0.33,-0.35 z m 2.26,-1.06 0,0 -3.07,2.81 1.51,-1.94 1.06,-0.57 0.22,-0.38 0.28,0.08 z m 0.1,-0.08 0,0 -0.05,-0.08 0.09,-0.1 -0.04,0.18 z m 0.58,-0.66 0,0 -0.04,-0.04 0.06,-0.1 -0.02,0.14 z m -0.74,0.01 0,0 -0.05,-0.11 0.14,-0.18 -0.09,0.29 z m 0.87,-0.27 0,0 0.17,-0.48 0,0.2 -0.17,0.28 z m 1.3,-0.89 0,0 -0.09,-0.02 0.16,-0.19 -0.07,0.21 z m 0.53,-1.03 0,0 -0.06,-0.01 0.05,-0.14 0.01,0.15 z m 0.08,-0.2 0,0 -0.07,-0.01 -0.01,-0.08 0.08,0.09 z m 1.07,-1.53 0,0 -0.61,0.78 0.33,-0.81 0.75,-0.38 -0.47,0.41 z m 0.3,-0.44 0,0 -0.1,-0.34 0.17,0.23 -0.07,0.11 z m -5.07,3.94 0,0 0.2,0.01 -0.38,0.62 -1.3,1.02 -0.16,0.34 0.19,0.11 -0.46,0.51 -0.21,0.09 -0.36,-0.5 -0.65,0.29 -0.02,0.23 0.64,-0.2 0,0.25 0.46,0.22 0.27,-0.2 -1.65,1.48 -0.57,1.11 -0.67,0.17 -0.91,1.2 -0.01,0.51 -0.56,0.38 -0.11,0.63 -0.03,-0.39 -0.44,0 -0.49,0.8 -1,0.78 -0.13,-1.09 0.43,-0.5 -0.14,-0.88 -0.7,-0.25 -0.18,0.25 -0.13,-0.37 -0.38,0.4 -0.34,-0.11 0.17,0.37 -0.35,0.15 0.11,0.32 -0.71,-0.14 0.31,-0.32 -0.3,0 0,-0.34 0.4,0.02 -0.03,-0.3 0.52,-0.33 -0.21,-0.82 0.19,-0.28 -0.77,0.6 0.14,-0.66 -0.3,0.23 0.04,-0.63 -1,0.57 0.35,-0.77 -0.28,-0.1 0.33,-0.44 -0.92,0.63 -0.44,0 -0.28,0.6 -0.77,0.62 -0.24,-0.1 -0.09,0.46 -0.31,-0.19 0.01,0.34 -0.56,0.15 0.11,0.42 -0.94,0.87 0.07,-0.31 -0.84,0.75 -0.35,-0.09 -0.12,0.35 -0.22,-0.35 -0.2,0.72 -0.33,-0.69 -0.97,0.5 -0.21,-0.15 -1.27,0.87 -0.24,-0.14 0.05,0.47 -0.35,-0.01 0.15,0.43 -0.22,0.22 0.25,0.19 -0.26,0.03 0.03,0.65 -0.13,-0.52 -0.27,-0.01 -0.19,0.44 -0.45,0.23 0.05,0.31 -0.66,1.1 -0.56,-0.3 -0.05,0.34 -0.48,0.35 -0.28,-0.36 0.22,-0.43 -0.2,-0.3 -0.87,0.42 -0.17,-0.8 -0.38,-0.32 0.44,-0.35 -0.39,-0.94 0.24,-0.62 0.26,0.06 -0.13,-1.36 0.22,-0.07 -0.61,-0.71 0.29,-0.06 0.9,-1.5 0.18,0.25 0.08,-0.36 0.28,0.12 -0.05,-0.67 0.49,-0.17 0.22,0.22 0.15,-0.44 0.94,-0.72 0.21,0.11 -0.08,-0.35 0.32,-0.27 -0.38,-0.77 -0.24,-0.02 -0.27,0.66 -0.96,0.87 -0.48,-0.1 -0.2,0.3 -0.26,-0.55 0.01,0.48 -0.39,0.38 0.28,0.13 -0.64,0.31 0.19,0.16 -0.42,-0.02 -0.35,-0.39 0.27,0.63 0.41,0.11 -0.24,0.46 -0.26,0.07 -0.47,-0.38 0.27,0.44 -0.34,0.05 -0.73,0.94 0.2,0.04 0.02,0.73 0.41,0.11 -0.37,0.79 0.24,0.54 -0.41,0.47 0.02,0.49 -0.21,-0.36 0.13,0.57 -0.68,1.29 0.38,0.21 0.05,0.65 0.21,0.01 -0.17,0.73 0.26,0.55 -0.22,0.36 -0.37,-0.38 -0.17,0.35 0.25,0.26 -0.33,0.09 -0.26,-0.04 -0.36,-0.78 0.37,-0.57 -1.16,-1.06 0.13,-0.14 -0.33,-0.03 0.4,-0.48 0.27,0.17 -0.27,-0.35 0.43,0.03 0.15,-0.61 -0.89,-0.06 -0.32,-0.91 -1.02,-0.07 0.29,-0.44 -0.44,0.08 -0.16,0.48 -0.33,-0.05 0.46,-0.19 -0.9,0.01 -0.28,-0.35 0.36,-0.71 -0.35,0.06 -0.03,-1.18 -0.54,1.19 -0.67,-0.22 0.19,-0.54 -0.26,-0.69 -0.62,-0.32 0.04,-0.56 -0.28,0.55 0.5,0.87 -0.14,0.25 -0.61,-0.07 0.03,-0.24 -1.04,0.05 0.26,-0.14 -0.34,0.02 0.19,-0.42 -0.35,0.37 -0.36,-0.47 -0.93,-0.04 -0.05,-0.33 -0.23,0.3 -0.44,-0.15 -0.06,-0.36 -0.27,0.5 0.94,0.31 0.39,0.26 -0.14,0.23 0.27,-0.07 0.38,0.44 1.01,0.32 -0.29,0.35 0.52,-0.02 0.67,0.39 0.51,-0.13 0.69,0.49 -0.13,0.23 0.59,0.04 0.49,0.48 -0.05,0.23 -0.47,-0.08 -0.26,0.35 -1.46,0.07 -0.24,0.4 1.11,-0.13 0.63,0.3 0.43,-0.53 0.72,0.33 0.59,-0.17 0.17,-0.31 0.6,0.12 -0.17,2.03 -0.72,-0.54 0,-0.27 -0.58,0.03 0.38,0.3 -0.52,0.37 0.88,0.34 0.22,0.63 -0.78,-0.4 -0.41,0.57 -1.3,0.32 1.03,0.07 0,0.32 0.9,-0.84 0.03,0.33 -0.5,0.37 0.4,0.13 0.35,-0.35 0.32,0.16 0.17,-0.17 -0.12,0.76 0.48,-0.35 0.47,0.69 -0.1,2.18 0.44,1.76 -0.17,1.42 0.23,1.55 0.38,0.62 -1.31,-0.51 -0.22,-0.79 -0.14,0.24 -0.3,-0.2 -0.27,0.22 0.12,-0.76 -0.38,-0.18 -0.09,0.54 -0.67,0.27 0.53,0.15 0.23,0.55 -1.29,-0.06 1.08,0.55 -0.26,0.06 0.14,0.22 -0.51,-0.16 -0.37,0.49 0.88,0.03 -1.54,0.41 0.33,-0.32 -0.32,-0.05 -1.25,0.58 0.77,-0.7 -1.24,-0.18 -1.05,0.54 -0.07,-0.29 -0.27,0 -0.32,0.39 0.31,-0.02 0.25,0.36 -1.06,0.87 -0.19,-0.89 -0.37,0.31 -0.03,-0.56 0.23,-0.17 -0.34,0.06 -0.33,0.8 -0.29,0.01 -0.52,-0.38 -0.17,-1.08 -0.11,1.02 -0.34,-0.46 -0.41,0.02 -0.25,-1.02 -0.12,0.43 -0.27,-0.57 -0.86,-0.55 0.07,-0.27 -0.59,0.12 1.03,0.78 0.71,1.23 -0.04,0.59 -0.17,-0.23 -0.37,0.64 -0.56,0.06 -0.37,-0.31 0.3,0.47 0.85,0 0.28,0.32 0.56,-0.6 0.25,0.62 1,0.47 -0.73,-0.28 -0.32,0.67 0.63,0.31 0.29,0.64 0.09,-0.17 0.15,0.65 -0.56,-0.75 -1.29,-0.49 0.24,-0.55 -0.27,-0.25 -0.27,0.37 -0.34,-0.1 -0.09,-0.34 -0.41,-0.02 0.57,0.9 -0.55,-0.13 -0.1,-0.27 -0.77,0.58 0.72,0.29 0.04,0.86 0.36,-0.17 0.89,0.3 0.05,-0.43 1.82,0.78 0.4,1.45 -0.12,0.44 0.45,0.07 0.07,0.52 0.48,0 -0.3,0.52 -0.55,0.03 0.16,0.31 0.49,-0.07 -0.52,0.34 -0.01,0.36 -0.53,0.49 0.49,-0.32 0.26,0.28 -0.08,-0.72 0.37,0.02 0.52,-0.65 -0.06,-0.49 0.3,-0.14 -0.21,-0.8 0.52,0.28 -0.08,-0.63 0.4,0.65 0.8,0.24 0.43,0.81 -0.05,1.13 -2.64,2.08 -0.47,1.39 -1.32,-0.04 -0.8,0.39 -3.83,0.68 -12.75,-4.03 -10.93,0.03 0,-8.54 -2.38,-12.35 39.73,-18.21 37.68,-3.2 -2.42,2.37 -1.54,2.46 -0.75,0.39 -2.4,2.7 -0.51,0.28 -0.44,0.82 z" 
                fill="rgb(151, 144, 238)" 
                stroke="white" 
                stroke-width=".7px"
                title="Lamu" 
                id="KE-21" 
            />
        </svg>