<svg xmlns="http://www.w3.org/2000/svg" viewBox="169.7070499999998 355.3806300000001 56.73000000000013 57.56999999999988" width="56.73000000000013" height="57.56999999999988">
            <path 
                d="m 192.86705,356.00063 0,0 0.3,-0.05 1.09,1.01 0.01,0.68 0.29,0.13 0.54,1.16 0.32,-0.01 -0.16,0.28 0.32,0.23 1.91,0 0.82,0.35 0.2,0.41 0.28,-0.32 0.76,0.24 0.81,-0.33 0.06,0.62 0.74,0.28 0.83,-0.21 0.35,0.45 1.54,0.32 -0.13,0.59 1.31,1.07 0.57,-0.43 0.69,0.16 0.28,0.83 0.75,-0.25 -0.04,-0.94 0.74,-0.74 0.34,0.07 0.49,-0.52 0.29,0.31 1.27,-0.13 0.23,-0.44 -0.19,-0.37 0.79,-0.1 0.21,-0.42 1.17,-0.15 0.18,-0.76 0.34,0 0.28,0.38 0.33,-0.19 0.66,0.31 0.41,-0.09 0.37,-0.96 0.55,-0.37 0.04,-1.52 0.46,0.05 0.49,-0.7 0.5,-0.18 0.97,-0.04 0.47,-0.33 0.5,0.16 0.94,2.62 1.67,-0.06 0.48,-0.29 0.56,-0.91 0.14,0.79 0.71,-0.59 0.5,0.07 0.28,0.43 0.66,-0.13 0.21,1.2 -0.44,0.2 0.19,0.34 -0.73,0.69 0,0.6 -0.3,0.14 -0.35,0.91 0.25,0.51 -0.37,0.39 0.64,0.21 0.27,0.61 0.27,-0.15 -0.04,0.59 0.23,-0.04 0.01,0.47 0.45,0.26 0.11,0.38 -0.3,0.06 -0.03,0.41 0.42,0.87 -0.18,-0.17 -0.33,0.32 0.73,0.04 0.59,0.58 -0.35,0.16 0.2,0.23 -1.09,0.7 0.17,0.63 -0.27,2.41 -0.86,1.22 -0.6,0.12 -0.11,0.57 -0.6,0.72 -0.59,1.96 -3.34,-2.84 -8.24,0.48 0.17,3.5 0.83,-0.29 0.74,0.41 2.3,4.05 1.35,1.15 -0.1,0.33 1.49,2.58 1.09,2.8 0.33,0.1 0.42,0.84 1.14,-0.12 0.55,0.36 1.23,1.52 0.1,0.49 0.34,-0.07 0.52,2.53 0.37,0.49 -1.16,0.38 -1.07,0.95 -0.39,0.88 -2.2,0.58 -1.43,-0.43 -0.87,0.57 0.42,0.58 0.64,0.07 1.11,1.85 0.99,0.75 0.2,0.63 -1.11,0.52 -0.2,0.29 0.2,0.83 -0.86,0.76 -0.44,-0.21 -0.61,-1.25 -0.26,0.24 -0.19,-0.22 -0.6,0.15 -0.05,2.26 -1.25,1.13 -0.99,-2 -0.09,-1.36 -0.56,0.13 -0.81,-1.34 -1.06,-0.25 -0.06,-0.56 -1.04,0.78 -0.37,0.01 0.06,-0.43 -1.06,-0.02 0.38,-0.28 -0.71,-0.33 0.2,-0.41 -1.83,-0.1 -0.36,-0.72 -0.55,0.16 -1,-0.61 -0.74,0.26 -0.54,-0.19 -1.67,0.83 -2.05,-0.65 -1.13,-0.06 -2.57,2.37 1.63,1.62 2.86,5.63 -2.29,0.95 -0.64,-0.17 -0.27,0.26 -0.67,-0.15 -1.52,0.23 -0.43,-0.45 -1.42,1.03 0.86,2 -0.61,0.02 -0.67,0.97 -2.01,-1.99 -1.36,1.94 -0.8,0.34 -2.66,0.26 -0.5,-0.21 0.35,-0.66 -0.53,-0.32 -0.01,-1.22 -0.36,-0.06 -0.43,0.35 -1.33,-0.52 -7.51,-10.07 -0.77,-0.29 -0.4,-0.55 0.16,-1.64 0.63,-0.79 -0.23,-0.45 0.41,-0.85 -1.75,-0.82 0.19,-0.36 -0.46,-0.14 -1.05,0.19 -1.95,1.66 -0.32,0.1 -0.38,-0.55 0.67,-3.64 2.53,1.06 0.74,-0.05 0.81,0.61 0.12,-0.27 -0.86,-0.89 -0.26,-1.07 -1.12,-0.64 -0.4,-0.98 -0.59,-0.63 2.02,-1.89 2.24,-0.91 0.21,-0.27 -0.57,-1.29 1.27,-0.45 0.43,1.09 1.27,-0.5 2.95,0.64 -0.21,-0.4 0.25,-0.64 0.33,0.01 0.26,-0.42 0.61,-0.28 0.23,0.1 0.05,-0.77 0.43,-0.1 -0.05,-0.68 0.52,-0.07 0.1,-0.63 0.88,-0.12 0.34,-0.41 0.65,-0.12 0,-0.83 0.37,-0.2 -0.24,-0.59 0.37,-0.12 1.14,-1.48 -0.12,-0.56 0.38,-1.09 -0.64,-1.29 0.73,-0.59 0.24,-0.61 1.15,-0.9 1.07,-0.24 0.79,0.27 1.32,-0.7 0.71,-0.1 1,0.31 2.58,2.64 2.66,-3.44 1.75,-1.28 -0.85,-1.22 -1.31,-0.81 -1.21,-0.68 -1.29,-0.17 -0.09,-0.41 1.67,-0.86 -0.7,-0.95 -0.99,1.09 -0.55,-0.67 0.02,-0.51 -0.47,0.18 -0.34,-0.41 0.63,-0.45 -0.38,-0.82 -2.31,-1.47 -1.47,-1.83 -1.52,-0.5 0.57,-0.89 1.28,0.12 0.28,-2.62 0.29,-0.39 0.79,-0.07 z" 
                fill="rgb(151, 144, 238)" 
                stroke="white" 
                stroke-width=".7px"
                title="Machakos" 
                id="KE-22" 
            />
        </svg>