<svg xmlns="http://www.w3.org/2000/svg" viewBox="184.8770500000002 397.9006299999999 78.75999999999996 84.29000000000002" width="78.75999999999996" height="84.29000000000002">
            <path 
                d="m 208.19705,399.09063 0,0 0.26,0.16 -0.25,0.35 0.68,0.28 -0.34,0.33 1,-0.01 -0.06,0.41 0.3,0.06 1.14,-0.82 0.06,0.56 1.06,0.25 0.81,1.34 0.55,-0.14 0.1,1.37 0.99,2 1.25,-1.13 0.05,-2.26 0.6,-0.15 0.19,0.22 0.26,-0.24 0.61,1.25 0.4,0.22 0.9,-0.77 -0.2,-0.83 0.73,-0.67 0.58,-0.14 0.4,0.61 0.65,0.37 1.81,3.37 -0.17,0.36 1.12,0.95 0.05,0.94 0.55,0 0.36,0.51 -0.14,1.08 0.57,0.21 0.61,2.35 -0.22,0.77 -0.62,0 -0.15,0.65 0.5,1.02 1.84,1.94 0.68,0.4 -0.4,0.82 0.2,0.41 0.75,0.22 -0.13,0.34 0.46,1.35 -0.05,0.61 0.7,0.04 -0.55,1.66 0.34,0.5 -0.06,0.7 0.92,2.09 -0.1,0.28 0.47,0.28 -0.08,0.3 0.28,0.24 -0.12,0.46 0.27,0.2 -0.28,0.59 0.69,0.18 0.27,0.7 -0.07,0.53 0.37,0.83 -0.36,3.43 0.5,0.6 0.11,1.37 3.24,-1.11 0.39,0.85 1.22,0.39 -0.08,0.64 0.36,0.36 0.29,1.14 0.6,0.43 -0.36,0.45 0.31,0.2 0.37,2.03 0.44,-0.02 0.26,0.63 0.61,0.02 0.17,0.48 0.63,0.33 -0.17,0.8 0.37,0.15 0.11,0.61 0.42,0.33 1.3,0.18 1.55,0.99 0.65,-0.02 0.74,0.85 0.76,0.09 0.65,2.55 0.55,0.11 0.25,0.46 0.5,0 0.4,0.64 1.23,0.19 0.78,3.37 0.47,0.25 0.35,0.7 0.58,0.22 -0.04,0.5 0.56,1.01 0.07,1.11 0.89,0.42 -0.39,0.46 0.41,1.19 0.5,0.22 0.86,2.78 0.31,0.25 -0.04,0.41 0.88,0.8 0.55,2.06 2.29,5.08 -0.53,0.52 -0.24,0.88 0.48,0.42 0.27,1.18 -0.21,0.59 0.67,0.34 -0.07,0.45 0.43,0.32 -0.11,0.6 0.62,0.09 -0.22,0.64 0.58,0.21 0.86,2.3 0.69,0 0.28,1.08 1.51,1.12 -0.31,0.47 -1.2,0.02 -0.26,-0.34 -1.75,0.73 -0.5,-1.03 -1.11,-0.94 -1.18,-1.57 -0.71,-0.05 -0.84,-0.53 -1.73,-1.79 -1.79,-3.08 -2.82,-3.61 -5.91,-4.33 -0.32,-0.83 -0.61,1.1 -1.33,-0.01 -1.08,1 -7.72,4.13 -1.69,-0.45 -0.93,-1.16 -0.21,-1.12 0.35,-0.99 -0.5,-1.1 -1.18,-0.11 -0.59,-1.66 -0.72,-0.81 -1.64,-3.17 -14.41,-16.77 0.49,-0.16 0.35,-0.63 0.28,-0.05 0.33,0.46 0.47,-0.22 0,-0.33 0.81,0.24 0.5,-0.66 0.86,0 -0.11,-0.41 0.24,-0.06 0.37,-0.91 -0.19,-2 0.57,-0.29 1.1,-1.54 0.56,-0.34 0.61,0.07 -0.04,-0.24 -0.93,-0.39 -0.49,-0.96 -1.95,-0.54 -2.46,0.35 -1.56,-0.43 -1.73,-1.56 -0.83,0.04 -0.44,-0.26 0.1,-0.45 -0.46,-0.47 -4.76,-1.82 -5.23,-3.49 -2.65,-0.27 -0.29,-0.26 -0.56,0.13 -1.15,-0.69 -0.21,-1 -0.64,-1.01 -1.03,-0.5 -0.59,-0.75 -2.8,-0.12 -0.28,-0.65 -0.69,-0.37 -1.04,-1.68 0.41,-0.2 0.15,-1.54 -0.42,-0.71 -0.71,-0.31 0.36,-0.41 -0.3,-0.23 0.14,-0.52 -0.23,-0.35 1.07,-1.87 2.66,-0.26 0.8,-0.34 1.36,-1.94 2.01,1.99 0.67,-0.97 0.61,-0.02 -0.86,-2 1.42,-1.03 0.43,0.45 1.52,-0.23 0.67,0.15 0.27,-0.26 0.64,0.17 2.3,-0.96 -2.87,-5.62 -1.63,-1.62 2.77,-2.4 2.98,0.74 1.67,-0.83 0.54,0.19 0.72,-0.26 1.02,0.61 0.55,-0.16 0.36,0.72 1.64,0.02 z" 
                fill="rgb(151, 144, 238)" 
                stroke="white" 
                stroke-width=".7px"
                title="Makueni" 
                id="KE-23" 
            />
        </svg>