<svg xmlns="http://www.w3.org/2000/svg" viewBox="335.4570499999999 66.11062999999996 121.82 120.57" width="121.82" height="120.57">
            <path 
                d="m 440.98705,83.65063 0,0 0.28,-0.44 0.32,0.27 0.23,-0.39 0,0.5 0.4,-0.11 0.71,0.74 0.88,-0.12 0.33,0.5 0.33,-1.01 0.31,0.31 0.27,-0.52 1.16,-0.3 0.28,-0.48 0.24,0.36 0.51,0.1 0.16,-0.43 0,0.56 0.34,-0.21 0.81,0.19 0.1,0.6 1.08,0.01 0.37,-0.5 0.39,0.28 0.39,-0.27 -0.02,0.49 0.32,0.13 -0.28,0.14 0.24,0.62 1.26,0.01 -0.02,0.47 0.28,0.14 0.18,-0.27 0.39,0.44 0.04,-0.51 0.37,-0.03 0.45,0.39 0.23,-0.15 0.02,-0.59 0.63,0.05 0.15,-0.4 0.22,0.24 0.55,-0.21 0.11,-0.37 0.84,-0.48 0.44,0.27 -33.04,47.12 -19.2,18.83 -0.03,36.94 -2.65,0.12 -1.71,-0.82 -2.25,-1.9 -1.93,-2.24 -0.22,-0.62 -1.45,-0.18 -1.92,-1.54 -1.34,-0.56 -1.35,-0.19 -0.74,-0.58 -0.55,-1.18 -1.88,-1.53 -0.06,-0.49 -0.6,-0.71 0.11,-0.56 -0.38,-1.32 -1.56,-0.74 -1.51,-1.96 -0.21,-0.92 -0.66,-0.51 0.31,-0.63 -0.9,-0.88 -0.02,-1.27 -1.26,-1.64 0.17,-0.45 -0.48,-0.39 -0.43,-2.21 -1.05,-1.85 -0.39,-1.81 -1.06,-1.18 -0.08,-0.41 0.43,-0.23 0.28,-0.62 0.44,-0.15 0.05,-1.98 -0.99,-0.49 0,-0.6 -0.66,-0.28 0.63,-0.68 -0.57,-0.37 0.23,-0.89 -0.26,-0.25 0.15,-0.78 -0.2,-0.95 -12.76,-5.87 -4.98,-5.85 -7.92,-8.67 -14.71,-6.25 -0.66,-19.17 5.28,-11.42 14.47,-7.6 2.02,-0.78 1.57,-1.07 0.37,-0.75 0.34,-0.12 0.57,0.3 10.37,-4.22 0.44,0.12 0.38,-0.51 16.96,-6.88 0.16,-0.35 1.49,-0.18 1.07,-0.69 0.68,-1.01 1.39,-0.06 0.56,0.79 2.46,1.17 0.12,-0.22 0.62,0.19 0.42,1.14 0.72,0.04 1.01,0.81 0.08,1.2 0.72,0.55 0.38,1.5 2.83,0.78 1.14,0.94 0.36,0.79 1.01,0.09 1.16,1.64 0.51,0.12 0.12,0.38 0.65,0 0.4,0.86 0.95,0.87 0.35,1.02 0.6,0.13 0.12,0.41 1.19,0.56 -0.33,0.36 0.28,0.77 0.62,-0.04 0.62,0.55 -0.11,0.26 0.68,0.13 -0.32,0.3 1.39,0.52 0.99,0.86 0.37,-0.11 1.61,0.53 0.02,-0.56 0.5,-0.22 -0.04,-0.23 0.88,0.14 0.5,-0.55 0.29,0.58 0.21,-0.3 0.4,0.18 0.37,-0.21 0.89,0.31 0.18,-0.25 0.03,0.41 0.85,0 -0.1,-0.37 0.19,-0.09 0.51,0.52 0.66,0.13 -0.04,-0.19 0.6,0.34 1.43,-0.52 0.23,-0.61 1.29,0.49 0.14,-0.47 0.39,0.07 0.38,-0.33 1.39,0.91 1.09,-0.04 0.07,-0.46 0.54,0.14 0.81,-0.24 0.33,0.27 0.42,-0.19 0.27,0.21 0.19,-0.46 0.65,0.02 0.3,-0.38 0.37,0.39 -0.11,0.34 0.4,0.1 0.52,-0.33 0.28,-0.75 1.32,-0.66 0.72,0.48 0.22,0.45 3.15,-0.42 z" 
                fill="rgb(151, 144, 238)" 
                stroke="white" 
                stroke-width=".7px"
                title="Mandera" 
                id="KE-24" 
            />
        </svg>