<svg xmlns="http://www.w3.org/2000/svg" viewBox="122.52705 56.09063 188.42999999999998 182.87999999999997" width="188.42999999999998" height="182.87999999999997">
            <path 
                d="m 122.52705,56.16063 0,0 10.36,0.29 0.8,-0.36 0.96,0.38 16.19,0.36 4.54,-0.55 1.03,0.03 0.97,0.68 1.07,0.02 9.35,-0.49 2.05,1.04 1.71,0.39 2.87,1.23 -0.01,0.31 1.53,0.15 1.1,1 0.27,-0.13 0.65,0.49 0.67,-0.8 0.65,0.62 0.24,-0.07 0.98,1.66 0.74,-0.09 0.73,0.33 1.32,2.05 1.05,0.78 0.34,-0.1 16.14,10.56 0.18,-0.1 19.61,13.95 8.68,5.79 4.07,2.25 2.53,2.58 5.4,4.78 0.41,-0.32 2.61,-0.54 15.24,1.04 4.27,-1.41 -0.01,-0.75 -0.37,-0.53 1.06,-0.27 0.72,0.55 0.59,1.41 1.08,0.8 1.33,0.07 0.69,-0.44 3.09,1.16 0.62,-0.97 -0.23,-0.64 0.57,-0.27 0.32,0.16 1.48,2.96 10.9,3.42 3.1,-0.17 -0.03,-0.58 0.52,-0.28 0.67,0.15 0.08,0.24 1.13,-0.23 0.25,-0.31 0.31,0.46 0.58,0.26 0.16,-0.66 0.57,0 0.3,-0.26 1.01,0.4 1.34,-0.57 0.03,-0.49 0.5,0.01 1.02,0.98 1.46,0.66 1.2,0.09 -0.03,0.52 1.57,0.66 0.6,-0.2 0.17,0.8 1.95,-0.17 2.33,0.61 1.38,-0.46 1.48,0.49 -0.77,0.92 -0.28,0.87 0.12,0.8 0.67,1.14 0.84,6.76 0.58,0.65 0.19,1.26 0.29,10.61 -1.3,0.99 -1.98,1 -2.28,2.26 -0.08,0.39 -2.63,1.84 -3.13,0.23 -0.56,0.81 -0.8,0.42 -0.67,2.75 -2.67,0.06 0.05,8.28 -0.77,0.64 -0.24,1.27 -0.71,0.82 0.43,0.79 -3.81,6.25 -5.04,1.39 0.78,3.68 1.47,3.75 0.39,2.29 -0.19,1.54 0.27,1.71 -0.58,1.82 0.7,3.96 -0.14,3.07 1.05,3.15 0.48,0.5 -33.13,19.23 -2.48,10.51 -22.55,17.99 0.31,-7.1 -5.63,-4.12 -0.54,1.9 -0.96,0.29 -0.51,-0.12 -1.34,0.5 -0.66,-0.31 -0.52,0.56 -0.26,-0.24 -1.19,0.03 -0.62,0.34 -1.53,0.01 -1.51,0.48 -0.55,-0.24 -0.95,0.45 -0.25,-0.32 -1.33,0.98 -0.41,0 -0.06,0.39 -0.84,0.04 -0.5,-0.88 -0.6,1.33 -0.46,0.17 0.15,-0.32 -0.29,-0.51 -1.1,-0.94 -5.06,-9.04 -1.5,-1.89 -5.29,-8.85 -2.54,-1.33 -2.29,-6.48 -1.23,-0.23 -0.71,-1 -2.36,-1.73 -0.64,-1.64 -4.74,-1.38 -5.12,-0.11 -3.27,-2.28 -1.46,0.48 -0.49,-0.08 0.3,-2.3 -0.06,-2.36 -0.42,-0.03 0.15,-1.47 -0.7,-1.77 -0.35,-2.01 -1.78,-3.55 -1.27,-1.2 -4.97,-13.8 -2.43,0.43 -0.82,-0.22 0.2,1.91 -0.33,0.73 0.06,0.63 -0.81,-0.16 -0.76,0.72 -0.85,1.46 -0.53,0.37 -0.2,-0.28 -0.32,1.52 0.1,-1.08 -0.32,0.3 -0.62,-0.6 -0.24,0.92 -0.58,0.19 -1.03,-1.01 -0.34,0.39 -1.05,0.14 -0.39,0.44 -1.1,-0.42 -1.01,-2.51 0.33,-4.23 -0.33,-0.25 -0.56,-1.95 -1.18,-0.82 -1.22,-1.97 -1.1,-0.15 -0.86,-1.23 -0.25,-2.53 0.77,-1.56 -1.07,-0.83 -0.41,-0.93 -0.13,-1.5 -1.32,-2.16 -0.83,-2.12 -1.21,-1.37 -0.82,-0.12 -2.64,-1.38 -0.95,-0.24 -0.73,-0.95 -0.87,-3.29 -0.01,0.62 -0.4,0.3 -0.73,-0.44 -0.55,-0.1 -0.11,0.21 -1.77,-0.77 -3.29,0.08 0.17,-0.7 -0.44,0.3 0.02,-0.39 -0.33,0.03 1.01,-3.25 0,-2.06 0.43,-0.16 0.26,-0.57 -0.05,-2.62 -0.67,-1.27 0.68,-2.07 0.05,-1.55 -0.33,-0.41 -0.25,0.8 -0.67,-0.06 -1.05,-0.58 -2.19,-0.34 -1.31,-0.76 -0.08,-69.66 z" 
                fill="rgb(151, 144, 238)" 
                stroke="white" 
                stroke-width=".7px"
                title="Marsabit" 
                id="KE-25" 
            />
        </svg>