<svg xmlns="http://www.w3.org/2000/svg" viewBox="181.8370499999999 273.0106299999999 76.18000000000004 50.54000000000008" width="76.18000000000004" height="50.54000000000008">
            <path 
                d="m 248.53705,299.78063 0,0 0.71,0.98 1.79,1.26 0.55,2.66 1.24,0.96 -0.29,1.07 0.93,0.5 0.01,0.4 0.49,-0.03 -0.27,0.95 0.72,0.35 0.01,1.03 1.13,0.92 0.14,0.45 1.23,0.7 -0.05,0.44 0.38,0.3 -0.04,0.81 0.39,0.54 -0.12,0.65 0.53,0.41 -0.98,0.32 -0.61,-0.14 -0.65,0.75 -2.03,-1.41 -0.97,0.25 -0.61,-0.63 -1.01,-0.36 0.15,-0.32 -0.84,-1.15 -1.83,-0.58 -0.32,0 -0.28,0.38 -0.85,-0.64 -0.16,-0.73 -0.44,-0.09 0.16,-0.33 -1.02,-0.4 -0.78,0.26 -0.91,-0.66 -0.9,-0.16 -1.35,-1.18 -1.08,-0.03 -0.19,-0.39 -0.56,0.55 -0.55,-0.08 -0.7,1.12 -0.43,-0.15 -0.19,0.34 -0.73,0.09 -0.31,-0.24 -0.65,0.14 -0.82,-1.44 -0.39,-0.09 -0.34,-0.47 -1.22,-0.44 -1.72,0.04 -1,1.26 0.58,0.39 -0.5,0.63 -0.45,0.06 0.12,0.44 -0.35,0.73 -1.1,0.07 -0.96,-0.26 -0.47,1.65 -0.43,0 -0.63,-0.47 -1.09,0.09 -0.23,0.39 -0.1,0.67 0.8,2.2 -0.73,2.06 0.31,0.22 -0.19,0.25 0.32,0.45 -3.47,2.34 -0.69,-0.42 -0.38,0.24 -0.54,-0.15 -1.06,1.81 -0.32,-0.01 -0.68,0.65 -2.83,0.48 -0.99,-0.19 -0.22,0.71 -1.05,-0.24 -0.21,-0.3 -0.87,-0.08 -0.57,-0.63 -0.67,-0.02 -0.69,-0.63 -3.61,-0.11 -12.56,-1.73 -9.86,-6.28 -0.28,-0.25 0.06,-0.4 -1.21,-0.97 -0.41,-1.11 -0.86,-0.92 1.29,-0.95 1.66,-0.09 0.8,-0.6 2,-0.44 1.96,-1.02 0.6,-0.39 0.09,-1.08 0.74,-0.15 0.31,0.4 1.46,-1.72 0.1,-1.38 1.51,-1.56 1.77,-0.26 -0.26,-0.46 0.86,-0.23 -0.03,-0.63 1.08,-2.24 -0.41,-0.41 0.73,-0.52 0.12,-0.48 1.42,-0.74 0,-0.69 1.62,-0.09 2.08,0.84 4.16,1.09 0.61,-0.86 0.16,-1.55 -0.18,-0.49 0.31,-0.53 0.16,-0.22 1.45,0.02 1.28,-1.9 -0.26,-2.33 -0.75,-0.02 -0.24,-1.04 -0.01,-2.33 0.31,-0.45 -0.01,-0.72 13.69,-4.61 13.45,-6.04 6.59,19.29 1.11,0.43 0.03,5.37 1.86,0.69 1.48,0.99 z" 
                fill="rgb(151, 144, 238)" 
                stroke="white" 
                stroke-width=".7px"
                title="Meru" 
                id="KE-26" 
            />
        </svg>