<svg xmlns="http://www.w3.org/2000/svg" viewBox="1.1970499999999968 348.43062999999995 45.87 42.14999999999998" width="45.87" height="42.14999999999998">
            <path 
                d="m 41.74705,349.19063 0,0 0.37,2.3 -0.73,1.4 -0.73,9.78 0.81,3.7 0.53,0.16 -2.95,2.82 0.36,1.88 1.16,1.26 -0.17,0.75 0.41,1.37 0.42,0.55 0.35,1.68 -0.14,0.61 1.26,0.84 -0.06,0.59 1.03,0.69 0.12,0.66 0.88,0.15 2.4,10.2 -36.97,-20.81 -0.58,-0.08 -1.28,1.04 -0.72,0.22 -0.49,-0.4 -0.26,-1.6 -0.5,-0.47 -4.68,-0.08 -0.39,-11.36 8.73,0 0.91,-1.15 0.91,-0.24 0.58,0.28 0.73,-0.6 0.19,0.34 0.96,-0.71 0.48,0.36 0.44,-0.05 0.38,-0.65 0.72,0.29 0.62,-0.84 0.59,0.98 1.13,0.81 1.05,1.65 0.78,0.2 1.95,1.32 1.2,1.6 0.92,-0.22 0.08,-0.37 2.58,-0.5 0.63,-0.88 -0.38,-0.76 0.26,-0.16 2.39,1.3 1.78,1.39 0.72,-1.78 1.17,-1.15 -0.37,-0.67 -0.55,-0.24 0.34,-0.1 -0.08,-0.47 1.22,-0.83 -0.25,-0.29 0.27,-0.17 1.03,-0.06 0.49,-0.75 0.35,-2.38 0.97,-2.08 1.56,-0.56 0.25,0.12 -0.04,-0.5 0.97,-0.09 1.89,0.76 z" 
                fill="rgb(151, 144, 238)" 
                stroke="white" 
                stroke-width=".7px"
                title="Migori" 
                id="KE-27" 
            />
        </svg>