<svg xmlns="http://www.w3.org/2000/svg" viewBox="323.54705 535.3706299999998 11.259999999999934 13.540000000000305" width="11.259999999999934" height="13.540000000000305">
            <path 
                d="m 324.53705,546.78063 0,0 -0.43,0.09 0.26,-0.21 0.17,0.12 z m 3.27,-3.23 0,0 0.41,0.73 -0.14,0.32 0.36,-0.43 1.25,0.63 -0.2,0.84 -1.71,3.27 -0.9,-0.58 0.71,-1.39 -0.36,-0.03 -1.33,-1.78 -0.73,0.72 -0.01,0.77 -0.51,0.1 0.39,-0.66 -0.52,-0.9 0.3,-0.37 -0.15,-0.45 0.41,-0.42 0.21,0.14 -0.22,-0.46 0.48,-0.03 0.09,0.23 0.24,-0.23 0.04,0.23 0.52,-0.16 0.25,0.44 -0.29,-0.67 0.63,0.17 0.45,-0.21 0.07,-0.54 0.26,0.72 z m 0.33,-1.46 0,0 -0.09,-0.11 0.1,0.04 -0.01,0.07 z m 0.96,-0.42 0,0 0.56,0.31 -0.32,0.24 0.13,0.32 0.31,0 -0.09,0.49 0.42,0.91 -0.7,0.51 -0.43,-0.25 -0.02,-0.39 -0.03,0.24 -0.81,-0.68 -0.39,-1.12 1.37,-0.58 z m 0.12,-2.06 0,0 -0.12,-0.13 0.15,-0.12 -0.03,0.25 z m -2.96,-1.82 0,0 -0.16,-0.06 0.17,-0.03 -0.01,0.09 z m 1.9,-0.1 0,0 0.41,0.05 -0.19,0.37 0.48,0.91 -0.1,0.24 -0.45,-0.13 0.11,-0.36 -0.85,-0.53 -0.42,0.6 -0.84,-0.42 0.26,-0.8 0.45,0.22 0.74,-0.35 0.4,0.2 z m -2.56,0.36 0,0 0.24,-0.08 0.04,0.65 -0.63,0.56 0.85,-0.26 0.19,0.23 -0.19,0.14 0.7,0.16 -0.05,0.34 0.27,-0.47 0.41,0.07 0.28,2.14 0.56,0.06 -0.09,0.27 -0.62,-0.09 -0.15,0.29 0.23,0.3 -3.11,0.13 0.19,-1.11 -0.76,0.02 -0.41,-0.33 0.03,-1.45 0.37,-0.43 -0.36,-0.58 0.89,-0.46 0.85,-1.14 0.44,0.32 -0.17,0.72 z m 4.77,-2.41 0,0 0.57,0.02 -0.34,0.56 0.29,-0.14 0.06,0.51 0.61,0.29 -0.49,0.21 -0.66,-0.3 -0.03,0.36 0.83,-0.01 -0.13,0.25 0.5,-0.22 -0.23,0.32 0.31,0.17 0.05,-0.68 0.84,0.32 0.68,-0.25 1.58,0.56 -2.03,2.32 -0.18,0.73 0.25,0.46 -1.54,2.06 -0.82,0.38 -0.46,-0.46 -0.01,-0.67 -0.42,-0.09 0.19,-0.49 -0.31,-0.1 -0.1,-0.4 0.28,-0.09 0.04,-0.46 -0.12,0.41 -0.68,-0.07 0,-0.44 0.6,-0.38 -0.25,-0.6 0.32,-0.44 -0.25,-0.14 -0.02,-0.78 -0.19,0.48 -0.23,-0.44 0.12,-1.35 -0.22,-0.2 -0.13,0.63 -0.47,-0.26 0.27,-0.47 -0.18,-0.55 -0.44,-0.27 0,-0.31 1.64,-0.25 0.9,0.27 z" 
                fill="rgb(151, 144, 238)" 
                stroke="white" 
                stroke-width=".7px"
                title="Mombasa" 
                id="KE-28" 
            />
        </svg>