<svg xmlns="http://www.w3.org/2000/svg" viewBox="159.74704999999983 343.56063000000023 41.070000000000135 30.200000000000045" width="41.070000000000135" height="30.200000000000045">
            <path 
                d="m 170.28705,346.02063 0,0 2.01,-0.02 0,-0.28 3.75,-1.62 0.54,0.47 1.1,0.03 0.63,0.39 1.25,0.19 0.6,0.87 2.28,1 0.1,0.53 0.5,0.24 0.76,0.14 1.01,-0.31 0.65,0.17 0.16,-0.32 0.84,0.01 0.02,0.78 0.42,0.26 0.14,0.76 1.15,-0.21 0.74,1.44 0.78,-0.9 0.63,-0.32 -0.05,0.54 0.44,0.85 -0.09,0.63 0.11,0.29 0.28,-0.02 0.3,0.74 -0.28,0.22 0.38,0.17 0.51,0.97 -0.19,0.16 0.47,0.42 -0.53,-0.18 -0.29,0.18 0.34,1.47 0.33,0.31 -0.3,0.42 -0.27,2.59 -1.28,-0.12 -0.57,0.89 1.52,0.5 1.47,1.83 2.31,1.47 0.38,0.82 -0.63,0.45 0.34,0.41 0.47,-0.18 -0.02,0.51 0.55,0.67 0.99,-1.09 0.7,0.95 -1.67,0.86 0.09,0.41 1.29,0.17 1.21,0.68 1.31,0.81 0.85,1.22 -1.75,1.28 -1.53,2.14 -0.78,-0.16 -0.56,-0.69 -0.3,0.11 -0.55,-0.27 -0.56,-0.75 -0.27,0.12 -2.61,-2.81 -1.16,0.47 -0.71,-0.4 -1,0.94 -1.22,0.47 -0.94,-0.47 -0.14,0.56 -1.15,0.54 -1.26,-0.31 -0.53,0.27 -0.4,-0.68 -0.53,-0.31 -1.16,-0.12 -0.83,-0.45 -1.2,0.45 -0.67,-0.12 -0.96,-1.16 -2.44,-1.98 -0.83,-0.19 -0.58,-1.01 -2.44,-1.57 -0.3,-0.86 -0.82,-0.1 -0.38,-0.89 -0.35,0.12 -0.21,-0.32 -0.74,-0.14 -0.34,-0.45 -1.11,-0.26 -0.78,-0.78 -1.04,-0.41 -1.8,-1.3 -1.51,-0.14 -0.52,-0.77 -1.06,-0.67 0.1,-1.07 -0.24,-0.43 0.86,-0.04 -0.83,-0.97 -0.83,-3.61 -0.11,-2.87 0.34,-1.57 -0.1,-1.95 0.87,-0.91 0.73,-0.29 0.72,0.29 1.83,-0.29 1.47,0.23 0.38,0.55 1.55,0.87 0.37,-0.1 0.89,0.83 1.49,0.08 z" 
                fill="rgb(151, 144, 238)" 
                stroke="white" 
                stroke-width=".7px"
                title="Murang'a" 
                id="KE-29" 
            />
        </svg>