<svg xmlns="http://www.w3.org/2000/svg" viewBox="157.35705 377.52062999999976 25.310000000000002 16.210000000000207" width="25.310000000000002" height="16.210000000000207">
            <path 
                d="m 182.66705,383.30063 0,0 -0.03,0.74 -0.23,-0.1 -0.61,0.28 -0.26,0.42 -0.33,-0.01 -0.25,0.64 0.21,0.4 -2.95,-0.64 -1.27,0.5 -0.43,-1.09 -1.27,0.45 0.57,1.29 -0.21,0.27 -2.24,0.91 -2.02,1.89 0.59,0.63 0.4,0.98 1.12,0.64 0.26,1.07 0.86,0.89 -0.12,0.27 -0.81,-0.61 -0.74,0.05 -2.53,-1.06 0.21,-0.27 -0.39,-0.19 -1.26,-0.18 -0.85,-0.44 -0.32,-0.61 -0.46,0.17 -0.94,-0.46 -0.72,0.45 -0.71,-0.22 -1.15,0.2 -2.1,-0.49 -2.01,-1.57 -0.42,0.12 -0.98,-1.41 -0.19,0.09 -0.37,-0.3 0.17,-0.12 -0.53,-0.12 1.39,-2.11 0.01,-0.61 0.4,-0.36 -0.12,-0.46 1.61,0.07 0.5,-1.66 1.05,0.18 0.49,-0.84 1.18,0.51 0.81,-1.17 -0.38,-0.4 0.39,-0.64 2.42,1.34 -0.2,-0.48 1.06,0.3 0.12,-0.49 0.51,-0.05 0.15,-0.73 0.76,0.36 1.38,-0.17 -0.66,-1.17 0.63,-0.66 1.16,0.05 1.31,0.72 -1.72,1.85 0.66,0.65 1.93,0.64 1.81,-0.33 1.06,0.78 2.16,-1.54 1.03,-0.24 1.04,1.83 0.52,-0.3 0.36,0.66 -0.43,0.23 0.92,0.78 z" 
                fill="rgb(151, 144, 238)" 
                stroke="white" 
                stroke-width=".7px"
                title="Nairobi" 
                id="KE-30" 
            />
        </svg>