<svg xmlns="http://www.w3.org/2000/svg" viewBox="86.04705 297.75062999999966 67.62000000000002 79.50000000000028" width="67.62000000000002" height="79.50000000000028">
            <path 
                d="m 134.23705,312.43063 0,0 -0.27,1.62 -0.25,0.23 0.21,2.01 -0.32,1.81 -1.05,-0.13 0,-0.43 -0.36,-0.14 -1.22,1.78 0.66,3.73 0.36,0.52 0.28,-0.09 1.3,2.57 -2.02,0.94 0.79,4.7 0.39,-0.74 1.05,0.2 0.78,-0.17 0.68,2.9 0.97,-0.94 0.99,-0.37 0.16,1.08 1.23,0.12 1.55,-0.75 0.31,0.96 0.72,0.52 0.05,1 0.33,0.24 0.2,0.84 -0.14,1.21 0.49,0.6 0.01,1.48 0.37,0.38 -0.09,0.58 0.27,0.45 -0.33,0.42 0.41,1.2 -0.24,1.14 0.45,0.38 2.19,-0.46 0.2,2.4 0.86,1.01 2.06,-0.4 0.52,-0.81 0.04,0.63 0.37,0.19 -0.19,0.41 0.47,0.33 0.16,0.69 -0.4,0.23 1.25,2.49 -1.3,0.85 0.82,1.97 1.53,5.26 -0.56,0.7 0.12,1.06 -0.43,2.26 0.57,0.68 0.48,0.24 0.41,-0.16 0.55,0.45 -0.32,0.74 0.43,0.33 0.28,1.79 0.52,0.23 0.08,0.48 -0.63,3.01 0.23,1.08 -1.22,2.18 -0.18,-0.08 -1.27,1.54 -0.45,1.65 -2.54,-1.9 -8.89,-4.19 -4.08,-7.78 -3.37,1.16 -0.59,-1.02 -0.49,-0.01 0.25,-0.41 -1.16,-2.06 -0.67,-2.02 1.72,-1.85 0.16,-1.11 -0.46,-0.36 0.57,-0.73 -1.78,-1.22 -0.44,-1.73 -0.64,-0.14 -2.37,-2.07 -0.16,-2.08 -3.94,2.25 -1,-0.88 -3.73,2.91 -0.97,-0.5 0.03,-0.52 -2.18,-2.68 -0.87,0.05 0.16,-0.4 -0.19,-0.37 2.25,-0.11 1.97,1.75 1.83,-2.02 -2.17,-4.3 -2.31,-0.45 -0.85,-1.17 -3.3,-1.85 0.44,-1.25 -0.17,-0.35 -1.22,0.58 -0.17,-1.09 -0.66,-0.09 -1.61,4.62 -1.92,-0.33 -1.22,1.26 -0.43,0.05 0.04,1.36 -1.06,1.28 -0.6,2.98 -0.71,0.65 -0.27,0.98 -0.63,0.3 -0.39,0.94 -1.06,-1.05 -1.49,-0.72 -0.79,-4.75 -9.97,-16.35 3.25,-1.41 1.91,-0.5 1.25,0.06 0.2,-0.6 2.48,1.29 -0.19,1.22 0.68,0.26 0.64,-1.74 0.54,0.32 0.17,0.59 0.39,-0.27 0.52,0.29 0.61,-0.35 0.05,-0.69 0.82,-0.25 0.36,-0.78 0.27,-1.23 -0.1,-1.69 0.32,-0.09 0.14,-0.62 0.55,-0.3 -0.45,-0.19 0.28,-1.28 -0.9,0.1 -0.4,-0.77 -0.45,-0.05 -0.85,0 -0.81,0.48 -0.58,-0.68 -0.16,-1.04 0.1,-0.36 0.29,0.02 1.1,-1.14 -0.49,-0.66 0.03,-0.41 0.51,-0.19 0.93,-1.14 0.53,1.15 1.08,-0.42 1.17,0.12 -0.05,1.15 0.25,0.78 0.77,0.75 1.33,2.14 -0.39,0.73 0.15,2.25 0.53,0.46 1.67,0.26 0.96,-1.72 -0.46,-0.15 1.02,-1.72 -0.03,-2.89 0.94,-0.66 0.84,1.11 3.15,-4.77 1,0.89 0.35,-0.2 0.98,1.93 0.58,-0.25 -0.03,-0.31 1.25,-1.21 1.14,-2 0.5,-1.66 -0.13,-0.44 -2.63,-2.8 0.61,-1.47 1.18,0.45 0.25,0.54 -0.01,1.2 1.85,-0.16 0.53,1.64 1.95,0.58 0.62,0.95 2.42,1.04 1.06,-1.13 -0.39,-3.16 1.26,0.12 1.18,-7.23 2.84,-0.77 -0.12,-0.98 -0.66,-0.22 -0.32,-0.47 1.39,-0.36 1.94,1.47 2.3,3.48 0.44,1.18 0.19,0.92 -1,1.33 -0.82,1.83 0.57,1.71 -0.55,2.76 z" 
                fill="rgb(151, 144, 238)" 
                stroke="white" 
                stroke-width=".7px"
                title="Nakuru" 
                id="KE-31" 
            />
        </svg>