<svg xmlns="http://www.w3.org/2000/svg" viewBox="47.55705000000001 279.07063000000005 39.919999999999995 38.409999999999854" width="39.919999999999995" height="38.409999999999854">
            <path 
                d="m 53.90705,279.97063 0,0 11.1,-0.9 3.1,1.28 0.38,-0.88 0.58,0.55 0.68,0.08 0.7,0.5 0.95,-0.2 0.51,-0.45 -0.3,2.4 -1.18,1.86 2.07,3 1.01,2.37 1.73,2.87 4.56,6.64 2.1,1 -0.23,2.9 2,0.91 0.86,1.45 0.59,-0.41 0.43,0.21 1.93,4.95 -1.37,0.77 -0.56,1.7 1.16,3.07 -1.25,0.52 -1.75,1.32 -1.75,-0.05 -1.89,-1.3 -1.59,0.72 -3.06,0.41 0,-2.22 -0.32,-1.72 -0.85,-0.48 -0.71,-0.16 -1.84,0.28 -0.55,0.45 -2.95,-2.03 0.06,1.32 -0.37,0.29 -0.2,0.76 -1.11,0.69 -0.36,0.66 -0.89,-1.89 -2.47,-0.35 -1,-0.54 0.03,0.27 -0.64,-0.01 -0.8,0.44 -0.68,-0.31 0.13,0.23 -1.79,0.33 -0.22,-0.19 0.07,-0.38 -5.4,0.1 -1.01,-0.32 -0.3,-0.58 1.54,-2.1 -0.69,0.12 -0.52,0.62 -0.35,0.05 -0.92,0.99 -0.36,0.81 -1.02,-0.22 -0.47,0.9 -0.25,-0.01 -0.65,-1.74 0.08,-0.48 0.96,-0.2 0.29,0.73 2.74,-2.31 1.55,0.04 0.08,-0.58 0.58,-0.8 -0.05,-0.5 0.63,-0.84 -0.01,-2.11 1.31,-0.93 0.13,-0.37 1.76,-0.67 0.31,-0.62 -0.26,-0.33 0.68,-2.03 0.78,0.01 0.78,-1.94 1.27,0.04 -1.9,-4.3 -0.5,-2.38 0.67,0.17 0.4,-0.72 0.11,-2.76 -1.87,-3.42 -0.96,-1.03 -0.01,-0.55 -3.2,-2.47 z" 
                fill="rgb(151, 144, 238)" 
                stroke="white" 
                stroke-width=".7px"
                title="Nandi" 
                id="KE-32" 
            />
        </svg>