<svg xmlns="http://www.w3.org/2000/svg" viewBox="39.047050000000056 337.24063 100.37999999999998 94.26000000000022" width="100.37999999999998" height="94.26000000000022">
            <path 
                d="m 101.89705,345.79063 0,0 1.07,-1.42 0.03,-1.55 0.41,-0.03 1.22,-1.26 1.92,0.33 1.61,-4.62 0.66,0.09 0.17,1.09 1.22,-0.58 0.17,0.35 -0.44,1.25 3.3,1.85 0.85,1.17 1.64,0.22 0.2,0.3 0.61,0.09 2.03,4.14 -1.83,2.02 -1.97,-1.75 -2.25,0.11 0.19,0.37 -0.16,0.4 0.87,-0.05 2.18,2.68 -0.03,0.52 0.97,0.5 3.73,-2.91 1,0.88 3.94,-2.25 0.16,2.08 2.37,2.07 0.64,0.14 0.44,1.73 1.78,1.22 -0.57,0.73 0.46,0.36 -0.16,1.11 -1.72,1.85 0.67,2.02 1.16,2.06 -0.25,0.41 0.49,0.01 0.59,1.02 3.37,-1.16 4.08,7.78 0.71,7.23 -16.82,18.02 1.81,3.99 0.09,0.78 -0.37,1.18 -0.36,-0.08 -0.57,0.98 0.05,0.35 -0.45,0.1 -0.19,1.62 -0.28,0.15 0.99,2.82 -0.4,0.23 -0.07,0.5 -0.5,-0.34 -0.16,0.3 -0.39,-0.04 0.55,0.54 0.12,0.57 -0.16,0.31 -0.34,-0.14 0.04,0.42 -0.34,0.22 -0.22,1.38 -0.59,0.47 0.58,0.24 -0.02,0.34 -0.86,1.02 0.07,0.21 0.67,0.12 0,0.88 0.6,-0.2 0.15,0.75 0.38,0.42 0.07,0.87 -0.32,1.16 -0.38,-0.03 -0.03,0.76 -0.61,-0.01 0.98,1.08 -0.57,0.43 0.52,1.26 -0.3,0.61 0.21,0.62 -0.24,0.68 0.02,1.98 -0.54,1.89 0,2.47 -1.6,0.01 0,1.22 -72.58,-40.92 -2.4,-10.2 -0.88,-0.15 -0.12,-0.66 -1.03,-0.69 0.06,-0.59 -1.26,-0.84 0.14,-0.61 -0.35,-1.68 -0.42,-0.55 -0.41,-1.37 0.17,-0.75 -1.27,-1.55 -0.25,-1.59 3.26,-2.96 1.63,0.42 19.27,-4.79 3.96,0.92 9,7.29 0.51,0.03 0.09,-0.29 0.54,-0.08 0.18,-0.43 0.55,0.11 -0.03,-0.2 1.69,-0.96 0.43,0.01 0.28,-0.59 0.98,-0.34 -0.16,-0.23 0.2,-0.28 0.35,0.15 0.36,-0.4 0.26,0.4 0.26,-0.73 0.64,0.58 0.69,-0.88 1.15,-0.15 0.29,-0.51 1,-0.12 0.29,-0.78 -0.13,-0.8 0.27,-0.11 -0.21,-0.69 0.35,-0.09 0.02,-0.47 0.52,0 -0.07,-0.4 0.43,-0.29 0.41,-0.11 0.12,0.19 0.01,-0.39 0.34,-0.24 -0.03,-0.54 0.41,-0.03 0.46,-0.47 0.14,-0.87 0.46,-0.54 1.24,-0.41 1.3,-1.1 -5.96,-4.78 -1.69,-4.36 10.9,-3.25 0.8,4.77 1.49,0.72 1,1.07 0.46,-0.97 0.62,-0.29 0.28,-0.99 0.7,-0.64 0.54,-2.67 z" 
                fill="rgb(151, 144, 238)" 
                stroke="white" 
                stroke-width=".7px"
                title="Narok" 
                id="KE-33" 
            />
        </svg>