<svg xmlns="http://www.w3.org/2000/svg" viewBox="50.23704999999998 334.7506300000001 17.440000000000012 27.269999999999925" width="17.440000000000012" height="27.269999999999925">
            <path 
                d="m 65.39705,339.73063 0,0 0.27,0.45 -0.47,0.84 0.26,0.68 -0.21,0.14 0.18,0.35 -0.27,1.61 0.83,1.82 -0.29,0.93 0.36,0.67 -0.46,0.83 -0.01,0.64 0.97,2.05 -0.86,0.31 -0.51,0.5 2.49,5.38 -2.68,2.98 -0.73,-0.46 -0.59,0.13 0.25,1.52 -0.43,-0.14 -0.36,0.55 0.07,0.51 -3.95,-6.65 -1.22,-0.7 -0.91,-0.04 -0.61,-0.83 -0.49,0.07 -1.95,-1.24 -0.97,-0.96 -0.67,-0.19 -0.23,-0.77 -0.74,-0.34 -0.75,0.17 -0.48,-0.86 0.73,-0.47 0.77,0.24 -0.15,-1.02 0.35,-1.15 0.91,-0.92 0.18,-0.67 0.63,-0.48 0.3,0.03 1.11,1.37 0.21,-0.48 0.34,0.49 0.37,-0.28 0.19,-0.83 -0.67,-0.59 0.17,-0.28 -0.51,-0.63 0.66,-1.93 -0.06,-0.96 -1.19,-1.29 1.05,-0.71 1.3,-0.29 2.04,-1.05 1.71,-1.36 1.84,-0.79 1.07,-0.88 0.71,0.4 0.73,1.56 -0.26,1.86 -0.39,0.31 -0.04,0.71 1.06,0.14 z" 
                fill="rgb(151, 144, 238)" 
                stroke="white" 
                stroke-width=".7px"
                title="Nyamira" 
                id="KE-34" 
            />
        </svg>