<svg xmlns="http://www.w3.org/2000/svg" viewBox="130.97705 303.15063000000004 30.54000000000002 60.620000000000005" width="30.54000000000002" height="60.620000000000005">
            <path 
                d="m 157.21705,319.92063 0,0 1.62,1.22 -0.41,0 0.19,0.64 -3.97,7.2 -0.35,1.33 0.41,1.24 -0.71,0.94 1.68,0.95 -0.46,0.81 1.59,1.84 -0.1,1.46 0.79,0.22 0.09,0.99 -0.54,1.95 0.39,0.48 0.44,2.89 0.57,0.3 0.06,0.9 1.38,1.83 -0.03,4.04 0.83,3.61 0.83,0.97 -0.86,0.04 0.24,0.43 -0.1,1.07 -1.97,-2.38 -0.8,-0.36 -0.75,0.53 -0.47,-0.18 -2.4,2.35 0.59,1.38 -1.87,-0.19 0.22,1.28 0.47,0.74 -0.63,1.43 -1.44,0.98 0.39,0.41 -0.9,0.51 -0.57,-0.68 0.43,-2.26 -0.12,-1.06 0.56,-0.7 -1.53,-5.26 -0.82,-1.97 1.3,-0.85 -1.25,-2.49 0.4,-0.23 -0.16,-0.69 -0.47,-0.33 0.19,-0.42 -0.37,-0.18 -0.04,-0.63 -0.52,0.81 -2.06,0.4 -0.86,-1.01 -0.2,-2.4 -2.19,0.46 -0.45,-0.37 0.24,-1.15 -0.41,-1.2 0.33,-0.42 -0.27,-0.45 0.09,-0.58 -0.37,-0.38 -0.01,-1.48 -0.49,-0.6 0.14,-1.21 -0.2,-0.84 -0.33,-0.24 -0.05,-1 -0.72,-0.52 -0.31,-0.96 -1.55,0.75 -1.23,-0.12 -0.16,-1.08 -0.99,0.37 -0.97,0.94 -0.68,-2.9 -0.78,0.17 -1.05,-0.2 -0.39,0.74 -0.79,-4.7 2.02,-0.94 -1.3,-2.57 -0.28,0.09 -0.36,-0.52 -0.66,-3.73 1.22,-1.78 0.36,0.14 0,0.43 1.05,0.13 0.32,-1.81 -0.21,-2.01 0.25,-0.23 0.27,-1.62 0.67,-0.03 0.23,-1.17 1.23,-0.74 0.04,0.41 0.29,-0.03 0.23,-0.62 2.46,-0.85 -0.52,-1.82 0.7,-0.44 0.32,0.11 0.52,1.15 1.22,0.96 0.04,-0.32 0.4,0.39 0.39,-0.14 -0.02,-0.41 0.83,0.03 0.6,-0.37 -1.33,-0.78 1.28,-1.47 1.03,-0.35 1.22,-2.79 2.75,3.15 0.62,2.09 3,-1.27 0.82,1.53 0.05,0.93 0.58,1.4 2.03,-0.73 0.85,1.89 -3.88,0.24 -0.46,0.73 -0.84,0.62 -0.82,1.35 0.73,0.71 -0.3,0.61 0.41,0.08 0.53,0.62 3.68,0.29 1.19,2.59 0.21,-0.06 z" 
                fill="rgb(151, 144, 238)" 
                stroke="white" 
                stroke-width=".7px"
                title="Nyandarua" 
                id="KE-35" 
            />
        </svg>