<svg xmlns="http://www.w3.org/2000/svg" viewBox="153.9970500000001 310.61063 40.400000000000006 37.35000000000008" width="40.400000000000006" height="37.35000000000008">
            <path 
                d="m 194.39705,319.81063 0,0 -5.86,15.16 0.01,0.5 -0.35,0.29 0.02,0.51 -0.35,0.23 -1.07,-0.03 0.11,2.31 -0.87,0.51 0.37,0.87 -1.24,1.55 0.18,1.18 -0.32,0.85 0.87,1.26 0.5,-0.02 0.53,0.52 0.06,0.82 -0.25,0.09 -0.1,0.6 0.26,0.36 -1.27,0.13 -0.16,0.32 -0.65,-0.17 -1.01,0.31 -0.76,-0.14 -0.5,-0.24 -0.1,-0.53 -2.28,-1 -0.6,-0.87 -1.25,-0.19 -0.63,-0.39 -1.1,-0.03 -0.56,-0.47 -3.73,1.62 0,0.28 -3.5,-0.06 -0.89,-0.83 -0.37,0.1 -1.55,-0.87 -0.38,-0.55 -1.5,-0.24 -1.8,0.3 -0.72,-0.29 -0.73,0.29 -0.94,1.06 0.12,1.97 -0.15,0.23 -0.42,-0.36 -1,-1.56 -0.02,-0.81 -0.57,-0.3 -0.44,-2.89 -0.39,-0.48 0.54,-1.95 -0.09,-0.99 -0.79,-0.22 0.1,-1.46 -1.59,-1.84 0.46,-0.81 -1.68,-0.95 0.71,-0.94 -0.41,-1.24 0.35,-1.33 3.97,-7.2 -0.19,-0.64 0.41,0 -1.62,-1.22 3.05,-0.93 0.29,-0.41 2.08,-0.5 0.62,-0.66 0.11,0.31 1.47,-0.46 2.19,-0.18 0,1.84 1.74,0.44 -0.17,0.66 0.72,1.3 -1.09,1.14 -0.71,0 0.98,3.24 0.8,-0.3 0.52,0.64 4.77,1.4 1.38,0.65 0.59,-1.42 -0.44,-0.89 0.75,-0.4 0.6,-0.97 -0.27,-0.6 0.56,-2.31 -0.7,-0.23 0.13,-1.52 -0.74,-0.26 -0.58,-0.61 -0.41,-3.61 2.74,-1.3 1.55,-2.24 0.67,-0.68 0.45,0.06 0.33,-0.51 -0.02,0.71 2.69,2.96 0.39,-1 10.14,6.53 z" 
                fill="rgb(151, 144, 238)" 
                stroke="white" 
                stroke-width=".7px"
                title="Nyeri" 
                id="KE-36" 
            />
        </svg>