<svg xmlns="http://www.w3.org/2000/svg" viewBox="136.01704999999995 167.29063 102.55000000000001 111.57000000000014" width="102.55000000000001" height="111.57000000000014">
            <path 
                d="m 161.73705,167.42063 0,0 1.15,-0.13 4.97,13.8 1.27,1.2 1.78,3.55 0.35,2.01 0.7,1.77 -0.15,1.47 0.42,0.03 0.06,2.36 -0.3,2.3 0.49,0.08 1.46,-0.48 3.27,2.28 5.12,0.11 4.74,1.38 0.64,1.64 2.36,1.73 0.71,1 1.23,0.23 2.29,6.48 2.54,1.33 5.29,8.85 1.5,1.89 5.06,9.04 1.1,0.94 0.29,0.51 -0.15,0.32 0.46,-0.17 0.6,-1.33 0.5,0.88 0.84,-0.04 0.06,-0.39 0.41,0 1.33,-0.98 0.25,0.32 0.95,-0.45 0.55,0.24 1.51,-0.48 1.53,-0.01 0.62,-0.34 1.19,-0.03 0.26,0.24 0.52,-0.56 0.66,0.31 1.34,-0.5 0.51,0.12 0.96,-0.29 0.54,-1.9 5.63,4.12 -0.31,7.1 0.17,3.92 4.72,6.24 0.96,16.02 1.88,1.4 -1.74,0.11 -0.18,-0.34 -1.31,-0.71 -0.48,0 0.02,-0.31 -0.25,-0.08 -0.23,0.21 0.12,0.43 -1.68,1.31 -0.49,0.87 -0.77,0.18 -1.02,0.71 -0.23,0.49 -1.36,1.05 -1.38,-1.54 -0.66,-0.3 -0.26,0.48 0.16,0.31 -1.64,1.07 -0.23,0.46 0.13,0.8 -0.72,0.56 -2.43,0.43 -0.89,-0.33 -0.92,0.31 -0.64,-0.21 -1.31,1.23 -0.84,-0.72 -1.05,0.24 -0.55,1.17 -0.92,0.57 -0.83,0.03 -0.68,0.61 -0.07,0.38 0.26,0.13 -0.52,0.88 -0.81,-0.17 -0.73,0.49 -1.28,0.18 -0.15,0.9 -1.34,0.1 -0.71,-0.4 -0.75,0.73 -2.27,-0.63 -0.03,-0.72 -0.79,0.04 -0.43,-0.3 -1.33,0.74 -1.09,-0.16 -0.23,0.21 -1.88,0.17 -0.95,-0.63 -0.54,0.03 -0.09,-0.7 -0.54,-0.08 -0.07,-1.19 -0.58,-1.39 -0.63,-0.26 -1.79,-4.03 -0.64,-0.89 -0.8,-0.42 -1.12,-1.18 -0.49,0.08 -1.54,1.35 -0.79,-0.12 -0.23,-0.29 -1.92,0.22 -0.38,-0.51 -0.54,-0.08 -0.04,-0.45 -0.87,0.08 -0.47,-0.41 -0.23,-0.65 -0.39,-0.31 -0.43,0.15 -0.4,-0.38 -1.75,0.48 -0.16,0.76 -0.67,-0.37 -2.81,1.18 -1.61,0.41 -0.38,-0.15 -0.43,0.28 -1.05,-0.1 -0.76,-0.59 -0.19,0.65 -0.66,0.27 -0.18,0.51 -0.36,0.04 -0.11,-0.51 -0.33,-0.16 -1.24,0.4 -0.19,-0.27 -0.68,0.02 -1.42,-2.99 0.17,-0.28 -0.56,-0.32 -1.06,-3.17 -1.27,-0.77 -2.13,0.63 -1.23,1.9 -1.5,0.61 -1.21,-0.17 -1.01,0.23 -10.7,-0.01 0.25,-2.11 -1.51,-1.11 -0.91,-0.1 -0.89,-0.74 -0.66,-1.01 -0.87,0.1 -0.41,-0.3 -0.16,-0.75 1.47,-1.03 1.42,-1.96 0.16,-0.75 -0.34,-1.04 0.36,0.15 0.15,1.11 0.63,0.11 -0.05,-1.04 -0.31,-0.05 0.02,-0.98 -0.68,-1.61 -0.06,-1.4 0.2,-0.34 -0.38,-0.75 0.42,-1.54 -0.65,-1.61 0.51,-1.8 -1.35,-0.78 -1.51,0.77 -0.04,-0.64 -0.26,-0.13 0.54,-0.42 -0.14,-1.49 0.27,-0.38 0.78,-0.33 0.1,0.34 0.23,-0.03 0.2,-0.55 -0.47,-0.57 0,-0.74 -0.54,0.47 -0.93,-0.69 0.19,-0.35 0.28,0 -0.06,-0.42 0.53,0.24 0.23,-0.37 0.84,0.69 0.9,0.33 0.44,0.58 0.41,-0.19 0,-0.41 -0.16,-0.63 -0.86,-0.96 0.12,-0.76 -0.29,-0.09 -0.76,0.56 -0.91,-0.34 -0.09,-0.44 -0.65,-0.27 0.87,-0.35 0.25,-0.55 0.63,-0.47 0.07,-0.63 0.73,-0.24 0.14,-0.46 0.9,-0.52 0.28,0.02 0.47,-1.7 -0.31,-0.28 -0.34,0.3 -0.44,-0.79 -1.13,0.22 -0.04,-0.39 -0.56,-0.15 -1.58,-1.56 -1.92,0.51 -0.46,-0.16 -1.69,-1.78 -1.7,0.34 -0.11,-0.34 0.63,-1.05 -0.22,-0.79 0.13,-1.78 0.21,-0.51 2.3,-2.05 0.05,0.41 1.1,-0.07 -0.13,-0.9 0.52,-0.45 0.45,0.62 -0.31,1.21 0.15,0.9 0.74,1.44 0.49,0 0.94,-2.19 1.22,-1.34 -0.01,-0.77 0.53,-1.01 0.37,-0.16 0.38,0.34 0.69,-0.13 -0.2,-0.44 0.48,-1.2 -0.03,-0.85 0.51,-0.59 -0.05,-0.51 0.42,-0.31 -0.07,-1.14 0.96,-0.33 -0.09,-0.51 0.32,-0.23 0.04,-0.56 0.74,-0.55 0.03,-0.29 -0.3,-0.14 0.65,-0.37 -0.21,-0.67 -0.47,0.6 0.1,-0.26 -0.43,-0.61 0.51,0.36 0.08,-0.47 -0.25,-0.2 0.35,-0.1 0.15,-0.43 -0.21,-0.3 0.4,-0.03 0.23,-0.77 -0.59,-0.04 -0.33,-0.57 -0.12,-0.57 0.45,0.06 0.13,-0.4 -0.23,-0.2 0.32,-0.63 -0.29,-0.38 -0.34,0.2 -0.03,-1.54 0.67,-0.39 0.04,-0.51 0.71,-0.37 -0.14,-0.46 0.32,-1.14 -0.2,-0.28 0.01,-1.84 -0.56,0.58 0.18,-0.6 0.47,-0.41 0.24,-1.01 -0.16,-0.75 0.06,-0.27 0.34,-0.02 -0.08,-1.34 0.25,-0.06 0.37,-0.99 0.71,-0.53 -0.26,-2.62 0.89,-0.97 0.45,-1.42 0.43,-0.05 0.87,-0.92 0.01,0.37 1.51,-0.44 1.14,-0.55 1.46,-1.14 1.09,-0.31 -0.05,-1.11 0.65,-0.35 -0.13,-0.76 0.27,-0.58 -0.41,-0.81 0.93,-0.75 0.05,-1.49 -7.02,-3.37 0,-2.62 0.45,0.53 0.58,-0.19 0.18,-0.9 0.47,0.15 0.21,0.43 0.3,-0.32 -0.08,1.1 0.32,-1.52 0.2,0.28 0.53,-0.37 0.85,-1.46 0.76,-0.72 0.81,0.16 -0.06,-0.63 0.33,-0.73 -0.2,-1.91 0.51,0.24 1.59,-0.32 z" 
                fill="rgb(151, 144, 238)" 
                stroke="white" 
                stroke-width=".7px"
                title="Samburu" 
                id="KE-37" 
            />
        </svg>