<svg xmlns="http://www.w3.org/2000/svg" viewBox="2.3070500000000003 293.1506299999998 35.05 42.34000000000003" width="35.05" height="42.34000000000003">
            <path 
                d="m 26.48705,293.64063 0,0 1.5,1.21 -0.42,0.58 0.68,0.79 -0.19,1.57 -0.82,0.27 0.46,1.26 -0.38,1.53 0.9,-0.32 1.58,-1.53 0.93,-0.33 0.38,0.68 -0.87,0.26 -0.59,0.88 0.9,1.07 -0.4,0.65 -0.56,0.24 0.67,0.37 1.74,-0.66 0.85,0.34 -0.01,0.76 -0.58,0.41 -0.85,0.03 0.13,0.43 1.21,0.45 -0.36,0.14 -0.02,0.58 0.34,-0.17 0.78,0.2 0.11,-0.51 0.47,-0.27 -0.44,-0.35 0.27,-0.32 0.47,0.53 0.3,-0.7 0.63,0.36 0.97,-0.82 0.78,0.63 -0.12,0.54 -0.47,0.27 0.9,0.37 -0.32,0.43 0.29,0.31 -0.3,0.3 0.3,0.97 -0.01,1.42 -0.34,0.19 -0.17,1.45 -0.79,0.73 0.26,0.68 -0.73,0.82 -2.48,0.52 -1.45,0.71 -2.79,2.06 4.11,12.63 -3.49,1.96 -5.63,4.81 -0.94,0.44 -0.78,-0.11 -0.67,-0.59 -2.42,-4.33 -16.7,-0.01 1.97,-11.88 -1.81,-5.91 3.94,0.05 1.3,-1.53 1.36,-5.18 0.45,-0.82 -0.11,-0.85 0.87,-0.39 0.25,0.13 0.48,-0.67 0.3,0.01 -0.11,0.59 0.63,-1.13 -0.12,-1.77 -0.38,-0.61 0.61,-1.9 0.02,-1.3 1.27,-0.89 1.09,-1.79 0.06,-0.62 0.97,0.33 0.73,1.08 0.84,0.47 0.07,0.43 0.18,-1.61 1.7,-0.08 0.72,-1.36 0.78,-0.1 1.33,0.45 2.67,-0.23 1.32,0.32 0.3,0.46 0.5,-0.51 z" 
                fill="rgb(151, 144, 238)" 
                stroke="white" 
                stroke-width=".7px"
                title="Siaya" 
                id="KE-38" 
            />
        </svg>