<svg xmlns="http://www.w3.org/2000/svg" viewBox="210.22705 464.4306300000001 93.35999999999993 83.45999999999987" width="93.35999999999993" height="83.45999999999987">
            <path 
                d="m 265.18705,481.59063 0,0 1,0.39 1.17,0.04 0.58,0.65 0.84,-0.22 -0.04,0.63 1.98,0.37 1.07,0.95 0.22,0.61 1.8,-0.15 0.6,-0.28 1.62,0.64 2.22,0.05 0.32,0.27 1.67,0.25 -0.09,0.35 -0.57,0.1 0.44,0.43 1.68,-0.48 0.39,-0.39 0.32,0.44 0.92,-0.2 1.72,-1.08 1.21,0.35 0.96,-0.25 0.3,-0.33 2.07,0.34 0.44,-0.07 0.65,-0.76 1.95,-0.32 0.47,0.22 0.51,-0.19 0.03,0.55 0.91,0.56 1.03,0.1 0.07,0.45 0.34,0.15 0.13,-0.54 0.87,-0.41 0.48,-0.66 0.89,-0.31 0.33,1.28 0.45,0.02 0.14,0.42 0.49,-0.24 0.69,1.19 0.32,-0.03 0.33,-0.48 0.42,0.37 0.78,-0.13 1.28,0.44 -8.95,35.54 -5.5,-3.29 -2.15,3.65 6.25,3.68 -5.23,11.41 -28.51,10.22 -37.89,-26.58 -1.32,-3.22 -0.95,-4.27 -0.94,-0.31 -0.41,-0.48 -1.37,-0.17 -0.7,-0.87 -0.85,-0.26 -2.84,0.7 -0.87,0 -0.15,-0.5 0.62,-0.68 0.56,-2 -0.22,-0.31 -0.55,0.16 -0.66,-0.25 -0.73,0.23 0,-1.23 4.38,-4.77 1.04,-0.14 0.28,-0.36 0,-1.51 1.53,-0.69 -1.18,-7.39 5.89,-0.38 0.61,-0.37 1.02,0.45 0.63,0.68 1.13,-0.42 0.07,-5.7 0.95,-0.07 1.39,-10.96 1.33,-1 1.21,-5.24 1.96,0.67 7.72,-4.13 1.08,-1 1.33,0.01 0.61,-1.1 0.32,0.83 5.91,4.33 2.82,3.61 1.79,3.08 1.73,1.79 0.84,0.53 0.71,0.05 1.18,1.57 1.11,0.94 0.5,1.03 1.75,-0.73 0.26,0.34 1.18,-0.01 0.33,-0.48 1.12,-0.07 0.43,0.35 z" 
                fill="rgb(151, 144, 238)" 
                stroke="white" 
                stroke-width=".7px"
                title="Taita Taveta" 
                id="KE-39" 
            />
        </svg>