<svg xmlns="http://www.w3.org/2000/svg" viewBox="258.7870500000001 312.0506299999996 131.27999999999992 174.88" width="131.27999999999992" height="174.88">
            <path 
                d="m 277.90705,315.10063 0,0 1.02,0.57 2.76,0.85 3.7,0.11 1.18,-0.55 0.63,0.7 0.41,0.06 0.94,-0.76 0.7,-0.21 0.28,-1.33 0.86,0.03 0.61,-0.6 0.23,0.36 0.33,0.01 0.73,-0.72 0.9,0.62 1.68,-0.42 0.5,1.06 1.36,1.32 0.22,0.58 1.05,0.69 0.03,0.6 0.74,-0.07 0.07,0.61 1.64,-0.2 0.41,0.58 0.73,-0.09 1.1,0.43 0.65,-0.6 0.71,-0.13 0.07,0.48 1.08,0.19 0.47,-0.17 0.15,0.45 1.02,-0.54 0.4,0.24 0.76,-0.3 0.54,0.2 0.48,-0.38 0.83,0.72 -0.18,0.7 0.53,-0.05 0.3,0.58 0.77,-0.42 0.1,0.5 0.46,-0.33 1.24,1.59 0.73,-0.12 0.19,0.4 0.35,-0.28 1.19,-0.04 1.01,1.15 0.48,0.04 0.8,0.6 0.14,0.68 0.42,0.48 0.65,0.16 0.1,0.3 0.44,-0.06 0.69,1.65 0.42,0.27 -0.27,0.93 0.46,-0.11 0.3,-0.55 0.54,0.44 0.42,-0.24 1.09,2.2 0.93,0.46 0.15,0.43 0.39,-0.16 0.26,0.6 -0.13,0.28 0.41,0.11 -0.16,0.3 0.23,0.29 -0.3,0.41 0.28,0.2 0.02,0.83 0.33,0.22 -0.1,0.65 0.69,0.02 -0.19,1.71 0.21,0.16 0.27,-0.24 0.01,0.43 0.91,0.65 -0.37,0.78 0.1,1.09 0.54,0.31 0.01,0.67 0.41,0.54 1.21,0.86 -0.03,0.28 -0.38,0.08 0.1,0.63 0.52,-0.09 0.21,0.57 0.6,-0.32 -0.05,1.3 0.41,0.23 0.03,0.42 0.39,-0.21 -0.18,0.54 1.94,0.11 0.45,-0.34 0.06,0.48 0.55,0.52 0.38,-0.23 0.52,0.56 0.63,0.1 -0.44,0.96 0.76,1.3 -0.13,0.55 0.54,-0.07 0.09,0.65 0.53,-0.05 -0.24,0.59 0.14,0.57 0.26,0.39 0.29,-0.2 -0.15,0.57 0.42,0.07 -0.06,1.28 -0.34,-0.07 0.15,0.51 0.91,0.38 -0.47,0.23 0.09,0.51 -0.49,0.2 0.42,0.46 -0.42,0.24 0.21,0.31 0.85,0.24 -0.12,0.67 0.51,0.02 -0.5,0.62 0.96,0.03 -0.36,0.38 0.55,0.5 0.11,1.11 -0.6,-0.05 0.35,0.45 -0.09,0.37 0.28,0 0.16,-0.56 0.56,0.37 -0.44,1.25 0.47,0.63 -0.55,0.33 0.34,0.26 -0.23,0.29 0.73,1.05 -0.22,0.58 0.68,0.1 0.34,0.51 -0.55,0.57 0.03,0.66 0.71,-0.41 -0.09,1.05 0.31,-0.08 0.45,0.32 -0.5,0.21 0.39,0.71 -0.33,0.62 0.21,0.3 0.51,0.06 0.03,1.22 0.78,0.82 -0.24,0.5 0.5,0.41 -0.21,0.36 0.29,0.65 0.42,0.09 0.37,2.94 0.23,0.22 0.42,-0.1 0.07,0.43 0.62,0.33 0.4,1.32 1.04,1.46 -0.07,0.53 0.54,0.01 0.1,0.59 0.54,0.13 -0.27,0.67 0.24,0.39 -0.26,0.27 0.72,0.1 -0.38,0.83 0.42,0.15 0.18,0.42 -0.41,0.3 0.1,0.5 -0.41,0.42 0.29,0.44 -0.4,0.36 0.4,1.41 0.43,0.27 -0.62,1.07 0.07,0.76 0.41,-0.06 0.31,0.82 -0.33,0.28 0.74,1.23 0.15,1.21 0.38,0.12 0.17,0.48 -0.26,1.13 0.32,0.18 -0.19,0.41 0.36,1 -0.39,0.12 0.07,0.29 0.35,0.19 1.84,-1.13 0.93,0.19 1.03,1.92 0.55,2.58 1.62,1.91 0.62,1.23 0.34,2.1 -0.1,3.02 0.72,1.51 -0.75,2.28 0.3,3.42 1.4,2.26 0.11,4.19 -0.19,1.35 0.62,1.18 0,1.16 0.44,0.83 2.56,13.36 0,8.54 10.94,-0.03 12.74,4.03 3.83,-0.68 -3.15,2.21 -2.04,2.38 -1.88,1.21 -0.41,-0.04 -1.72,-0.5 -1.25,-0.81 -0.89,-0.1 -0.75,-0.69 -0.47,-0.03 -0.15,-0.17 0.42,-0.65 -0.36,-0.48 -0.57,-0.14 0.03,0.59 -0.39,-0.17 0.04,-0.45 -0.23,-0.16 0.04,0.26 -0.68,0.04 -0.21,0.36 -0.51,-0.23 0.45,0.62 -0.25,0.08 -0.37,-0.46 -0.44,1.08 -0.63,0.14 0.01,0.45 0.89,0.16 1.92,-0.94 1.31,0.52 -3.15,0.54 -3.49,1.36 -4.08,2.11 -3.57,2.58 0.39,-0.79 0.5,0 0.55,-0.73 2.15,-1.17 0.63,-0.64 -2.85,1.65 -1.2,0.98 -0.57,0.75 0.14,0.34 -1.64,1.63 -2.12,3.14 -0.2,-0.11 0.15,-0.45 -0.42,0.04 0.5,-0.17 -0.13,-0.25 0.24,-0.18 -0.33,-0.13 0.6,-0.59 -0.2,-0.18 0.28,-0.33 -0.16,-0.72 -1.14,0.12 -0.4,1.25 0.49,-0.24 0.41,0.34 -0.67,0.78 -16.54,-23.36 -38.44,43.66 -0.07,-0.43 -0.68,0.05 -0.52,-0.31 -0.76,0.13 -0.42,-0.37 -0.33,0.48 -0.32,0.03 -0.69,-1.19 -0.49,0.24 -0.14,-0.42 -0.45,-0.02 -0.28,-1.27 -0.94,0.3 -0.48,0.66 -0.87,0.41 -0.05,0.5 -0.42,-0.11 -0.01,-0.41 -25.85,-36.19 1.12,0.42 2.21,-0.26 1.66,-1.02 0.16,-0.41 0.89,-0.6 0.28,-0.69 1.05,-0.24 0.85,-0.53 0.66,0.07 0.33,-0.72 0.43,-0.07 12.57,-24.35 -3.24,-12.08 1.45,-0.5 0.91,-0.98 -2.65,-36.89 -7.06,-15.53 -22.62,-39.18 0.23,-0.26 1.17,0.83 1.35,-0.58 0.44,-0.91 1.76,0.21 0.63,-0.49 -0.05,-0.68 0.6,0.01 0.08,-0.65 0.69,-0.88 0.83,0.1 1.91,0.91 0.57,-0.25 1.54,1.34 0.56,-0.01 0.48,-0.39 1.45,0.49 0.42,-0.8 1.37,1.16 2.15,0.67 0.94,-0.17 z" 
                fill="rgb(151, 144, 238)" 
                stroke="white" 
                stroke-width=".7px"
                title="Tana River" 
                id="KE-40" 
            />
        </svg>