<svg xmlns="http://www.w3.org/2000/svg" viewBox="38.49705000000001 237.75063 44.52999999999998 27.44000000000017" width="44.52999999999998" height="27.44000000000017">
            <path 
                d="m 52.18705,239.14063 0,0 5.17,-1.39 -0.26,1.84 3.77,0.33 1.2,-0.65 1.09,0.19 0.62,1.09 1.23,1.13 -0.53,0.67 0.37,0.53 2.37,1.45 0.22,-0.81 1.72,-0.27 0.41,0.24 1.6,-0.89 0.45,1.08 2.42,3.61 0.94,0.07 1.35,2.38 1.87,0.8 2.36,1.55 2.45,0.86 -0.03,0.56 -0.98,0.15 0.55,1.55 -0.73,0.34 -0.14,0.32 0.38,0.1 -0.17,0.17 0.21,0.93 0.93,0.11 -0.62,1.41 -1.11,-0.68 -1.39,2.36 -0.72,-1.36 -0.85,-0.36 -0.51,-0.78 -0.85,-0.32 -1.83,1.2 -1.8,-0.31 -1.04,0.27 -0.39,-0.15 -0.62,0.31 -1.5,-0.12 -0.13,0.4 -0.61,0.35 -0.19,0.76 0.23,0.47 -0.81,0.62 -0.92,-0.37 -0.53,-0.92 -2.16,-0.28 -0.07,0.25 -0.79,0.11 -0.34,0.39 -1.87,0.34 0.03,-0.28 -1.19,0.41 -0.36,0.41 -0.96,0.13 -0.54,0.99 -0.29,-0.1 -3.33,1.64 -3.46,1.22 0.17,-0.9 -1.47,-3.92 0.78,-0.86 -0.07,-0.37 -0.77,-0.76 -0.96,0.18 -1.67,-0.97 -4.86,-6.93 0.59,-1.45 -1.78,-0.6 -1.07,-0.81 -1.9,-2.4 3.3,-1.24 1.44,-1.12 0.43,-0.93 4.2,-0.71 1.34,0.22 0.4,-0.25 1.1,0.08 0.97,-1 0.51,-1.31 z" 
                fill="rgb(151, 144, 238)" 
                stroke="white" 
                stroke-width=".7px"
                title="Trans Nzoia" 
                id="KE-42" 
            />
        </svg>