<svg xmlns="http://www.w3.org/2000/svg" viewBox="4.887050000000091 0.25062999999970614 156.1199999999999 258.39" width="156.1199999999999" height="258.39">
            <path 
                d="m 107.96705,5.20063 0,0 0.55,-0.15 0.77,0.31 0.19,0.37 1.05,0.06 0.04,0.32 0.8,0.57 0.45,-0.09 0.05,0.72 -0.25,0.97 -0.36,0.06 -0.62,0.99 -0.71,0.58 -0.14,1.16 0.62,1.77 0.92,0.53 0.54,1.12 -0.13,1.45 -2.86,3.54 0.02,17.97 7.84,8.83 -0.6,2.53 0.29,2.09 6.1,5.26 0.08,69.66 1.31,0.76 2.19,0.34 1.05,0.58 0.67,0.06 0.25,-0.8 0.33,0.41 -0.05,1.55 -0.68,2.07 0.67,1.27 0.05,2.62 -0.26,0.57 -0.43,0.16 0,2.06 -1.01,3.25 0.33,-0.03 -0.02,0.39 0.44,-0.3 -0.17,0.7 3.29,-0.08 1.77,0.77 0.11,-0.21 0.55,0.1 0.73,0.44 0.4,-0.3 0.01,-0.62 0.87,3.29 0.73,0.95 4.51,1.84 1.19,1.39 0.75,2 1.3,2.13 0.15,1.53 0.41,0.93 1.07,0.8 -0.77,1.59 0.25,2.53 0.86,1.23 1.1,0.15 1.22,1.97 1.18,0.82 0.56,1.95 0.33,0.25 -0.33,4.23 0.88,2.38 1.23,0.55 0.39,-0.44 1.05,-0.14 0.35,-0.38 0.57,0.47 0,2.62 7.02,3.37 -0.05,1.49 -0.93,0.75 0.41,0.81 -0.27,0.58 0.13,0.76 -0.65,0.35 0.09,1.06 -1.13,0.36 -1.46,1.14 -1.14,0.55 -1.51,0.44 -0.01,-0.37 -0.87,0.92 -0.43,0.05 -0.45,1.42 -0.89,0.97 0.26,2.62 -0.71,0.53 -0.37,0.99 -0.25,0.06 0.08,1.34 -0.34,0.02 -0.06,0.27 0.16,0.75 -0.24,1.01 -0.47,0.41 -0.18,0.6 0.56,-0.58 -0.01,1.84 0.2,0.28 -0.32,1.14 0.14,0.46 -0.71,0.37 -0.04,0.51 -0.67,0.39 0.03,1.54 0.34,-0.2 0.29,0.38 -0.32,0.63 0.23,0.2 -0.13,0.4 -0.45,-0.06 0.12,0.57 0.33,0.57 0.59,0.04 -0.23,0.77 -0.4,0.03 0.21,0.3 -0.15,0.43 -0.35,0.1 0.25,0.2 -0.08,0.47 -0.51,-0.36 0.43,0.61 -0.1,0.26 0.47,-0.6 0.21,0.67 -0.65,0.37 0.3,0.14 -0.03,0.29 -0.74,0.55 -0.04,0.56 -0.32,0.23 0.09,0.51 -0.96,0.33 0.07,1.14 -0.42,0.31 0.05,0.51 -0.51,0.59 0.03,0.85 -0.48,1.2 0.2,0.44 -0.69,0.13 -0.38,-0.34 -0.37,0.16 -0.53,1.01 0.01,0.77 -1.22,1.34 -0.94,2.19 -0.49,0 -0.74,-1.44 -0.15,-0.9 0.31,-1.21 -0.45,-0.62 -0.52,0.45 0.13,0.9 -1.1,0.07 -0.05,-0.41 -2.3,2.05 -0.21,0.51 -0.13,1.78 0.22,0.79 -0.63,1.05 0.11,0.34 1.7,-0.34 1.69,1.78 0.46,0.16 1.92,-0.51 1.58,1.56 0.56,0.15 0.04,0.39 1.13,-0.22 0.44,0.79 0.34,-0.3 0.31,0.28 -0.47,1.7 -0.28,-0.02 -0.9,0.52 -0.14,0.46 -0.73,0.24 -0.07,0.63 -0.63,0.47 -0.25,0.55 -0.87,0.35 0.65,0.27 0.09,0.44 0.91,0.34 0.76,-0.56 0.29,0.09 -0.12,0.76 0.86,0.96 0.16,0.63 0,0.41 -0.41,0.19 -0.44,-0.58 -0.9,-0.33 -0.84,-0.69 -0.23,0.37 -0.53,-0.24 0.06,0.42 -0.28,0 -0.19,0.35 0.93,0.69 0.54,-0.47 0,0.74 0.47,0.57 -0.2,0.55 -0.23,0.03 -0.1,-0.34 -0.78,0.33 -0.27,0.38 0.14,1.49 -0.54,0.42 0.26,0.13 0.04,0.64 1.51,-0.77 1.35,0.78 -0.51,1.8 0.65,1.61 -0.42,1.54 0.38,0.75 -0.2,0.34 0.06,1.4 0.68,1.61 -0.02,0.98 0.31,0.05 0.05,1.04 -0.63,-0.11 -0.15,-1.11 -0.36,-0.15 0.34,1.04 -0.16,0.75 -1.42,1.96 -1.47,1.03 -0.37,-0.52 0.13,-1.16 -0.36,-0.36 -0.84,-0.08 -0.26,-0.43 -0.7,-0.15 -0.56,-1.55 -1.34,0.11 -8.17,-10.27 -4.42,0.08 -17.4,-28.29 -1.71,-0.39 -2.42,-2.06 -1.27,-0.06 -1.6,-0.93 -0.74,-0.78 -1.69,-0.52 -0.04,0.21 -0.53,-0.09 -0.89,-0.76 -1.07,0.39 -2.34,-0.86 -1.03,-0.1 -0.81,0.25 -0.28,-0.66 -0.8,-0.77 -0.53,-0.12 -0.02,-0.35 -0.22,0.09 -0.03,-0.45 -0.77,-0.28 0.33,-0.51 -0.29,-0.23 0.24,-0.55 -0.28,-0.66 -0.79,-0.16 -0.03,-0.28 -0.43,-0.11 -4.38,-4.4 0.39,-0.85 0.41,-0.24 -0.33,-1.04 0.09,-1.49 -0.52,-2.52 -2.34,-7.47 -1.53,-5.94 -1.54,-2.81 -0.57,-0.68 -1.66,-1.12 0.26,-1.57 -0.77,-1.91 0.48,-1.68 -0.52,-1.19 -0.13,-1.45 0.27,-2.43 -2.89,-6.11 -0.79,-0.66 -1.62,-0.04 -1.57,5.39 0.32,1.48 -0.17,1.36 -0.81,1.52 -1.38,0.91 -2.15,-4.26 -0.28,-1.56 -0.6,-0.18 -0.43,0.96 -0.66,4.13 1.43,2.02 -0.04,0.55 -0.72,0.51 0.17,1.21 -2.32,-1.88 -1.74,-0.95 0.6,-0.29 0.09,-0.8 -0.32,-0.03 -0.88,-2.51 -1.1,-0.01 -0.89,-4.08 -0.23,-0.3 -0.78,0.21 -0.07,0.96 -0.62,0.11 -0.88,-0.72 -1.24,-2.13 -1.81,-2 -0.52,-1.62 -0.83,-0.79 0.51,-2.99 -0.98,-4.15 -0.39,-0.36 -0.6,0.17 -0.71,-1.68 -1.41,-0.58 -0.57,-0.73 -0.55,0.87 -2.24,-0.27 -0.76,-2.29 -2.35,-1.06 -0.62,-4.47 -0.62,-1.1 -0.11,-4.34 -0.93,-0.79 -0.67,-1.48 -1.96,-0.7 -1.06,0.55 -0.68,-1.33 -1.26,-0.55 -0.3,-0.48 -0.44,-5.74 -1.06,-3.45 -1.64,-1.61 0.05,-2.45 0.47,-0.22 0.53,-0.9 -0.13,-0.97 -1.46,-1.85 -0.13,-0.52 0.44,0.19 1.54,-0.16 1.57,-1.57 0.32,-3.43 -0.19,-1.89 0.56,-3.31 -0.47,-0.42 -2.95,-0.92 -0.2,-0.76 -1.7,-1.66 -0.93,-0.01 -1.68,0.45 -1.24,2.37 0.29,-1.51 -2.31,-2 -1.24,-2.11 -0.72,0.18 -0.23,0.37 -0.45,-0.57 -2.82,0.97 -0.37,-0.36 1.43,-0.54 -0.1,-0.69 -2,-0.28 -0.02,-0.4 0.55,-0.18 0.95,-1.22 2.63,0.05 0,-1.18 -0.57,-1.73 -2.29,0.09 -0.47,0.56 -2.25,-0.11 -2.25,0.6 0.16,-1.37 1.61,-0.94 0.85,-3.42 -1.62,-0.87 -1.4,-1.53 -1.12,-0.33 -0.12,-1.07 1.75,-0.55 0.15,-1.78 -0.64,-0.94 -1.02,-0.47 -0.75,-1.58 0.92,-1.22 -1.05,-2.08 -3.19,-2.53 21.32,-20.3 47.38,-40.17 5.56,-8.84 11.04,0.05 4.28,0.39 1.59,0.43 0.28,0.27 -0.15,0.22 0.61,0.49 0.25,-0.01 0.03,-0.3 0.64,-0.01 -0.03,0.5 0.24,0.16 -0.13,0.69 0.81,-0.11 1.12,-0.65 0.21,0.37 0.91,0.17 0.47,-0.3 0.56,0.25 0.53,-0.36 1.02,0.02 -0.05,0.34 0.39,-0.06 -0.02,0.82 0.3,-0.33 0.12,0.25 0.34,-0.27 0.11,0.31 0.48,-0.06 0.07,0.26 0.22,-0.24 0.26,0.3 -0.21,0.13 0.18,0.51 1.13,0.57 -0.09,-0.53 0.54,0.08 0.77,0.6 z" 
                fill="rgb(151, 144, 238)" 
                stroke="white" 
                stroke-width=".7px"
                title="Turkana" 
                id="KE-43" 
            />
        </svg>