<svg xmlns="http://www.w3.org/2000/svg" viewBox="53.907049999999934 257.18063 42.27 53.50000000000006" width="42.27" height="53.50000000000006">
            <path 
                d="m 83.02705,257.18063 0,0 1.05,0.52 0.39,-0.47 1.91,0.34 -0.25,1.73 3.08,0.43 -0.73,1.42 1.83,-0.05 0.25,1.02 -0.62,2.19 0.96,0.08 0.38,2.98 -0.28,0.32 -0.4,1.94 0.63,0.91 -0.04,0.46 -5.37,-0.07 4.08,6.57 -0.94,4.76 -0.16,3.19 0.09,1.2 0.93,1.04 0.17,1.19 -0.76,1.17 0.66,0.55 0.18,0.57 0.75,0.48 -0.09,1.62 0.32,0.4 -0.03,1.64 -0.48,0.79 0.2,0.31 -0.53,0.42 1.13,1.48 1.27,-0.35 0.71,0.3 -1.6,2.12 2.49,-0.04 0.65,-0.43 0.03,0.57 0.46,0.15 0.7,0.85 0.13,1.17 -0.91,2.01 -0.06,2.66 -1.83,-1.29 -0.08,0.56 0.31,0.45 -0.39,0.79 0.19,0.62 -0.85,0.04 -0.2,1.8 -0.39,-0.03 -0.14,0.42 -1.99,-0.39 -1.12,0.27 -0.07,-0.25 0.72,-0.28 -0.31,-0.42 -1.73,0.1 -1.78,-4.56 -0.43,-0.21 -0.59,0.41 -0.86,-1.45 -2,-0.91 0.23,-2.9 -2.1,-1 -4.56,-6.64 -1.73,-2.87 -1.01,-2.37 -2.07,-3 1.18,-1.86 0.3,-2.4 -0.51,0.45 -0.95,0.2 -0.7,-0.5 -0.68,-0.08 -0.58,-0.55 -0.38,0.88 -3.1,-1.28 -11.1,0.9 2.61,-3.05 -0.4,-0.37 1.78,0.81 1.36,-0.89 1.18,-0.15 0.69,-0.85 1.01,-0.3 0.2,-0.35 1.67,1.26 0.68,-0.97 -0.09,-0.61 0.92,0.25 -0.04,0.41 0.62,-0.17 0.36,0.24 0.88,-0.05 1.01,-0.99 0.55,0.36 0.55,-0.7 1.03,-0.46 0.79,-0.02 -0.27,-0.29 0.21,-0.43 0.06,-3.77 -0.41,0.02 -0.08,-4.98 -0.89,-0.15 -0.31,0.15 -0.03,0.4 -0.72,-2.01 0.04,-1.44 0.24,-0.28 -0.24,-0.43 0.21,-0.78 0.59,-0.33 0.09,-0.39 1.54,0.11 0.62,-0.31 0.39,0.15 1.04,-0.27 1.8,0.31 1.83,-1.2 0.85,0.32 0.51,0.78 0.85,0.36 0.72,1.36 1.39,-2.36 1.11,0.68 0.62,-1.41 z" 
                fill="rgb(151, 144, 238)" 
                stroke="white" 
                stroke-width=".7px"
                title="Uasin Gishu" 
                id="KE-44" 
            />
        </svg>