<svg xmlns="http://www.w3.org/2000/svg" viewBox="35.82705 299.35063 22.36 14.109999999999957" width="22.36" height="14.109999999999957">
            <path 
                d="m 58.18705,299.78063 0,0 -0.58,2.52 -1.76,0.67 -0.13,0.37 -1.31,0.93 0.01,2.11 -0.63,0.84 0.05,0.5 -0.58,0.8 -0.08,0.58 -1.55,-0.04 -2.74,2.31 -0.29,-0.73 -0.85,0.12 -0.2,0.54 0.46,1.28 -0.41,0.06 -0.71,-1.1 -0.72,0.22 -0.39,0.66 -0.79,-0.06 -0.43,0.32 0.22,-0.9 -1.59,0.22 -1.44,-0.79 -1.36,0 -0.57,-0.75 -0.85,0.64 0.18,0.49 -0.55,1.36 -0.38,0.27 -0.62,0.24 -0.21,-0.27 0.09,-1.12 -0.46,-0.01 -0.41,0.36 -0.78,-0.37 0.54,-0.63 -0.35,-0.56 0.79,-0.73 0.17,-1.45 0.34,-0.19 0.01,-1.42 -0.3,-0.97 0.43,-0.43 0.6,0.03 0.79,-0.49 -0.03,-0.64 2.94,-0.8 1.48,0.16 0.72,-0.18 0.36,0.47 0.75,-0.74 0.49,0.19 0.01,-0.48 0.71,-0.01 1.18,-0.53 0.03,0.41 0.53,0.34 2.19,-1.35 0.26,0.12 0.85,-0.38 0.6,0.13 -0.01,-0.89 -0.27,-0.37 0.3,-0.11 1.7,0.16 0.8,-0.91 0.41,0.22 0.41,-0.28 0.55,0.14 0.5,-0.53 0.61,0.64 1.27,-0.21 z" 
                fill="rgb(151, 144, 238)" 
                stroke="white" 
                stroke-width=".7px"
                title="Vihiga" 
                id="KE-45" 
            />
        </svg>