<svg xmlns="http://www.w3.org/2000/svg" viewBox="284.7670500000002 101.33062999999999 120.2399999999999 199.32999999999998" width="120.2399999999999" height="199.32999999999998">
            <path 
                d="m 309.31705,112.57063 0,0 1.02,0.32 2.31,-0.11 1.55,0.28 0.57,-0.2 0.26,0.35 0.63,-0.32 0.13,0.5 0.31,-0.18 0.33,0.26 0.18,-0.26 0.68,0.28 0.91,-0.34 0.71,0.1 0.42,-0.43 0.38,0.15 0.1,-0.3 1.36,0.2 0.85,-0.35 0.73,0.38 3.23,-2 9.48,-9.57 0.66,19.17 14.71,6.25 7.92,8.67 4.98,5.85 12.76,5.87 0.2,0.95 -0.15,0.78 0.26,0.25 -0.23,0.89 0.57,0.37 -0.63,0.68 0.66,0.28 0,0.6 0.99,0.49 -0.05,1.98 -0.44,0.15 -0.28,0.62 -0.43,0.23 0.08,0.41 1.06,1.18 0.39,1.81 1.05,1.85 0.43,2.21 0.48,0.39 -0.17,0.45 1.26,1.64 0.02,1.27 0.9,0.88 -0.31,0.63 0.66,0.51 0.21,0.92 1.51,1.96 1.56,0.74 0.38,1.32 -0.11,0.56 0.6,0.71 0.06,0.49 1.88,1.53 0.55,1.18 0.74,0.58 1.35,0.19 1.34,0.56 1.92,1.54 1.45,0.18 0.22,0.62 1.93,2.24 2.25,1.9 1.71,0.82 2.65,-0.12 -0.01,98.06 -0.82,0.66 -3.37,1.66 -1.86,1.8 -1.33,0.77 -5.12,1.42 -1.21,0.6 -0.96,1.03 -1.11,0.31 -1.21,2.4 -0.63,0.4 -0.1,0.73 -1.95,1.5 -2.03,-0.04 -0.44,0.42 -0.54,-0.01 -0.51,0.59 -1.2,-0.03 -1.82,-0.6 -1.1,1.04 -0.39,0.88 -0.7,-0.29 -1.2,0.65 -2.74,-0.22 -1.36,0.37 -1.55,-0.74 -2.51,-0.15 -5.59,-3.04 -4.15,-4.19 -1.86,-0.96 -3.93,-2.85 -2.66,-0.37 -1.94,-0.61 -2.01,-1.15 -2.23,-1.85 -1.73,0.22 -1.4,-1.08 -2.89,-0.32 -1.41,-0.71 -0.73,-0.97 -1.69,-0.8 -0.49,-1.02 -1.98,-2.05 -1.39,-1.98 -1.08,-2.48 -1.81,-1.53 -2.92,-4.15 -1.79,-5.72 -1.96,-4.38 -0.31,-1.62 -0.73,-1.03 -1.09,-0.83 -3.59,-8.66 -7.06,-18.39 9.88,-3.4 -0.49,-0.13 -1.3,-1.19 -0.91,-0.15 -0.29,-0.7 -0.42,-0.03 -0.08,-0.5 -0.72,-0.62 -1.61,-2.32 -1.1,-0.53 -0.4,-0.52 -0.32,0.06 -0.3,-0.65 -0.44,-0.01 -1.45,-1.07 -0.53,-0.01 -2.03,-1.21 -0.95,-0.15 -1.91,-3.2 -0.59,-2.16 -1.49,-2.25 0.04,-0.66 -0.74,-1.32 -1.7,-1.42 -0.4,0 -1.52,-1.41 -0.29,-0.78 -0.53,-0.31 -1.09,-1.92 -0.88,-0.59 -1.43,-1.79 -0.29,-1.09 0.19,-0.71 -0.49,-0.75 0.06,-0.93 -1.78,-2.09 -1.04,-3.1 0.13,-3.12 -0.7,-3.89 0.58,-1.89 -0.27,-1.71 0.19,-1.54 -0.39,-2.29 -1.47,-3.75 -0.78,-3.68 5.04,-1.39 3.81,-6.25 -0.43,-0.79 0.71,-0.82 0.24,-1.27 0.77,-0.64 -0.05,-8.28 2.67,-0.06 0.67,-2.75 0.8,-0.42 0.56,-0.81 3.13,-0.23 2.63,-1.84 0.08,-0.39 2.28,-2.26 1.98,-1 1.3,-0.99 -0.29,-10.61 -0.19,-1.26 -0.58,-0.65 -0.84,-6.76 -0.67,-1.14 -0.12,-0.8 0.28,-0.87 0.77,-0.92 z" 
                fill="rgb(151, 144, 238)" 
                stroke="white" 
                stroke-width=".7px"
                title="Wajir" 
                id="KE-46" 
            />
        </svg>