<svg xmlns="http://www.w3.org/2000/svg" viewBox="50.377050000000004 159.53063 57.42999999999997 87.81" width="57.42999999999997" height="87.81">
            <path 
                d="m 69.74705,161.18063 0,0 0.4,-1.65 0.15,0.32 1.35,-0.13 0.79,0.66 2.89,6.11 -0.27,2.43 0.13,1.45 0.52,1.19 -0.48,1.68 0.77,1.91 -0.26,1.57 1.66,1.12 0.57,0.68 1.74,3.42 0.96,4.04 3.04,10.14 0.1,2.63 0.33,1.04 -0.41,0.24 -0.39,0.85 4.38,4.4 0.43,0.11 0.03,0.28 0.79,0.16 0.28,0.66 -0.24,0.55 0.29,0.23 -0.33,0.51 0.77,0.28 0.03,0.45 0.22,-0.09 0.02,0.35 0.53,0.12 0.8,0.77 0.28,0.66 0.81,-0.25 1.03,0.1 2.34,0.86 1.07,-0.39 0.89,0.76 0.53,0.09 0.04,-0.21 1.69,0.52 0.74,0.78 1.6,0.93 1.27,0.06 2.42,2.06 1.71,0.39 -0.91,1.18 0.19,0.77 0.77,0.37 -0.59,3.65 -0.44,0.54 -0.91,2.43 -1.24,0.64 -0.53,0.56 0.06,0.31 -0.61,0.57 0.23,0.6 -0.15,0.54 -0.82,0.75 0.02,1.28 0.26,0.19 -0.28,0.4 0.3,0.28 -0.5,0.03 -0.22,0.7 0.18,0.21 -0.83,1.55 0.24,0.85 -0.21,0.07 0.41,0.13 0.25,0.66 -0.18,0.48 -3.24,0.9 -1.78,1.33 -1.3,-0.18 -0.55,-0.48 -1.82,0.37 -10.76,8.75 -1.78,0.89 -9.85,-4.74 -1.6,0.89 -0.41,-0.24 -1.72,0.27 -0.22,0.81 -2.37,-1.45 -0.37,-0.53 0.53,-0.67 -1.23,-1.13 -0.62,-1.09 -1.09,-0.19 -1.2,0.65 -3.77,-0.33 0.26,-1.84 -5.05,1.24 0.57,-0.52 -0.14,-2.15 -2.09,-2.95 0.61,-0.72 -0.88,-2.46 2.97,-2.08 1.02,0.01 0.3,-4.23 0.97,-0.54 0.36,-1.13 0.88,0.19 0.45,-0.67 0.58,0.05 1.25,-0.74 2.61,-5.09 0.73,-9.9 1.45,-4.91 -2.4,-3.23 -0.05,-1.07 -1.1,-3.68 1.63,-1.67 -1.49,-5.38 -1.85,-3.5 -1.7,-4.14 -1.26,-3.75 -0.12,-1.43 1.16,-1.65 1.27,-0.74 1.16,-0.16 -0.12,0.14 1.74,0.95 2.32,1.88 -0.17,-1.21 0.72,-0.51 0.04,-0.55 -1.43,-2.02 0.88,-4.76 0.33,-0.39 0.47,0.22 0.21,1.38 1.58,2.93 0.48,1.47 0.59,-0.15 1.12,-0.87 0.65,-1.35 0.17,-1.36 -0.32,-1.48 0.65,-2.69 0.64,-1.2 z" 
                fill="rgb(151, 144, 238)" 
                stroke="white" 
                stroke-width=".7px"
                title="West Pokot" 
                id="KE-47" 
            />
        </svg>