<svg xmlns="http://www.w3.org/2000/svg" viewBox="537.1121600000002 178.78692 26.659999999999627 52.989999999999895" width="26.659999999999627" height="52.989999999999895">
            <path 
                d="m 540.09216,180.85692 0.53,0.02 0.54,-0.11 1.72,-0.39 0.29,-0.13 0.2,-0.12 0.93,2.02 1.11,1.67 2.23,-0.28 1.11,-2.78 0.56,-1.12 1.09,-0.85 0.46,0.13 0.41,0.25 0.46,0.31 0.39,0.37 0.33,0.34 1.87,2.18 0.17,0.26 0.2,0.67 -0.03,0.63 -0.08,0.44 1.97,0.56 1.11,0.56 2.51,1.11 1.71,0.16 0,0 0.03,0.14 0.04,0.73 -0.1,0.45 -0.07,0.44 0.09,0.37 0.18,0.26 0.46,0.31 0.04,0.12 0.14,1.29 -0.04,1.94 -0.16,0.91 -0.09,0.42 0.88,1.7 0.31,0.27 0.18,0.39 -0.04,0.76 -0.96,2.2 -0.56,0.78 -0.85,0.37 -0.45,0.05 -0.31,-0.05 -1.17,0.74 -1.1,1.96 -0.58,1.29 -0.24,0.67 -0.67,2.41 -0.16,1.09 -0.06,0.67 0.05,0.42 0.52,0.64 -0.05,0.56 -0.95,1.05 -0.97,0.34 -0.3,-0.32 -0.99,1.07 -0.15,0.37 -0.41,2.33 -0.11,2.44 -0.16,1.01 -0.11,0.56 1.82,4.47 0.17,0.27 0.24,0.33 0.26,0.17 0.55,0.12 0.98,-0.06 0.28,0.16 0.67,0.77 0.07,0.45 -0.46,1.29 -0.6,0.09 -0.6,0.65 0.46,2.37 -0.06,0.62 0,0 -1.34,0.17 -0.4,-0.24 -0.12,-0.39 -0.22,-0.8 -0.4,-0.34 -0.39,-0.12 -0.29,-0.01 -0.39,0.01 -0.65,-0.11 -0.66,-0.48 -0.02,-0.41 -0.05,-0.55 -0.98,-0.6 -4.34,0.13 -0.44,0.71 -0.68,0.76 -0.3,0.2 -2.96,0.68 -0.6,-0.03 0,0 -0.39,-0.14 -0.65,-0.33 0,0 -0.4,0.01 -0.33,0.22 -0.31,0.34 0,0 0.09,-1.59 0.15,-0.8 0.09,-0.39 0.12,-0.67 0.01,-1.44 -0.08,-2.02 -0.41,-0.98 -0.35,-1.69 -0.01,-1.03 -0.06,-0.44 -0.73,-3.45 -0.55,-2.22 -0.1,-0.31 0,-0.52 0.18,-0.89 0.07,-1.51 -0.17,-0.58 -0.22,-0.39 -0.07,-0.37 -0.31,-2.36 0.01,-1.71 0.05,-1.61 0.04,-0.88 0.25,-2.69 0.47,-1.13 0.43,-0.16 0.17,0.27 0.47,0.18 0.34,0.02 0.51,-0.25 1.49,-1.5 0.28,-0.5 0.66,-3.29 0.71,-0.72 -0.03,-1.23 -0.43,-0.45 -0.26,-0.97 0.06,-3.2 0.21,-1.23 0.18,-0.55 -0.01,-0.37 -0.46,-1.53 -0.2,-0.34 -0.35,-0.34 -0.76,-0.55 -0.35,-0.2 -0.3,-0.23 -0.16,-0.36 z" 
                fill="rgb(151, 144, 238)" 
                stroke="white" 
                stroke-width=".7px"
                title="Coquimbo" 
                id="CL-CO" 
            />
        </svg>