<svg xmlns="http://www.w3.org/2000/svg" viewBox="508.02216 354.35691999999995 30.079999999999927 26.5" width="30.079999999999927" height="26.5">
            <path 
                d="m 535.20216,377.30692 -2.59,-0.35 -2.23,0.28 -1.11,1.67 -1.67,1.95 -2.78,-1.12 -2.51,-2.22 -1.95,-1.4 -1.39,-2.5 -2.22,-0.83 -2.23,1.67 -1.39,-0.28 -0.84,-1.39 -4.27,-0.36 0,0 0.3,-1.74 0.96,-1.16 -0.07,-1.08 -0.15,-0.49 -0.37,-0.45 -0.19,-0.4 0.29,-0.46 0.21,-0.24 2.68,-1.31 1.24,0.22 0.37,-0.56 -0.03,-2.18 1.05,-2.69 0.22,-0.41 0.51,-1.31 0.44,-1.46 -0.31,-0.57 0,0 0.48,0.14 0.36,0.09 0.4,0.05 0.44,-0.05 0.44,-0.23 0.38,-0.39 0.28,-0.48 0.7,-0.87 2.06,-0.04 0.32,0.25 0.15,1.05 0.42,0.77 0.42,0.47 0.36,0.25 0.41,0.09 0.44,0.04 0.41,-0.02 1.07,-0.2 0.42,0.01 2.1,0.73 0.66,0.33 0.54,0.08 1.35,-0.52 0.36,-0.2 0.28,-0.31 0.42,-0.4 0.36,-0.18 0.38,-0.07 2.27,0.2 0.36,0.12 0.45,0.31 0.39,0.38 0.8,0.56 0.96,0.02 0.3,0.05 0.17,0.44 0.09,0.46 0.04,0.4 0,0 -0.11,0.15 -0.27,0.94 0.05,1.86 0.51,2.34 0.51,1.77 -0.47,1.79 -1.19,0.78 -0.58,0.47 -0.38,1.66 0.38,0.77 1.02,1.05 0.24,-0.43 0.48,0.33 0.07,0.7 -0.54,1.3 -0.2,0.35 -0.28,0.08 -0.33,-0.32 -0.3,-0.03 z" 
                fill="rgb(151, 144, 238)" 
                stroke="white" 
                stroke-width=".7px"
                title="Los Ríos" 
                id="CL-LR" 
            />
        </svg>