<svg xmlns="http://www.w3.org/2000/svg" viewBox="492.21216000000004 372.42691999999977 45.00000000000023 70.19000000000028" width="45.00000000000023" height="70.19000000000028">
            <path 
                d="m 495.41216,435.93692 -0.27,0.26 -0.32,0.03 -0.38,-0.05 -0.21,0.05 -0.28,0.11 -0.17,0.09 -0.51,0.42 -0.12,-0.02 -0.22,-0.13 -0.49,-0.78 -0.09,-0.17 -0.08,-0.19 -0.06,-0.19 0.04,-0.32 1.2,-0.6 0.17,0.01 1.21,0.61 0.14,0.13 0.32,0.35 0.12,0.39 z m 17.34,-20.92 -0.03,0.66 -0.27,-0.05 -0.13,-0.51 -0.07,-0.19 -0.09,-0.17 -0.22,-0.18 -1.33,-0.7 -0.19,-0.08 -0.46,-0.1 -0.2,-0.14 -0.39,-1.11 0.04,-0.19 0.23,-0.09 0.33,-0.04 0.49,-0.01 0.34,0.08 0.27,0.2 1.68,2.62 z m -6.69,-13.39 -0.28,0.39 -0.4,0 -0.36,-0.26 -0.29,-0.09 -0.22,0.4 0.49,0.54 1.26,0.45 0.37,-0.29 0.58,-0.4 1.5,-0.93 1.4,-0.19 0.42,0.05 0.99,0.67 -0.32,2.5 1.09,1.71 -0.23,0.63 -0.39,0.15 -0.1,0.42 0.17,0.53 0.96,0.65 0.37,0.09 0.36,1.1 -0.16,0.69 -0.18,0.43 -1.49,0.35 -0.78,-0.11 -0.34,0.03 -0.97,0.52 -0.32,0.2 -0.23,0.37 -0.1,1.62 0.45,0.47 0.38,0.2 0.23,0.26 -1.54,0.64 -0.79,-0.71 0.27,-0.76 -0.46,0.14 -0.38,0.77 0.17,1.76 2.68,2.69 0.69,0.24 0.78,0.56 0.24,0.26 0.2,1.03 -0.11,0.44 -1.1,0.18 -0.54,-0.05 -0.47,0.26 -0.13,0.75 0.44,0.55 0.73,0.59 0.08,0.3 0.49,0.94 0.37,0.52 0.17,0.6 -0.33,0.28 -3.19,-0.28 -0.58,0.23 0.21,1.63 0.34,0.39 0.4,0.28 0.26,0.7 -0.29,1.73 -0.28,0.12 -1.88,0.43 -0.5,-0.38 -0.38,-0.37 -0.37,-0.12 -1.32,-0.06 -1.5,-0.2 -1.83,-0.53 -1.27,-0.68 -0.26,-0.22 -0.24,-0.41 1.03,-2.66 1.35,-1.65 -0.2,-0.63 0.44,-0.43 0.62,-1.59 0.47,-4.61 -0.08,-1.36 -0.27,-1 -0.25,-0.21 -0.35,-0.25 0.25,-1.63 0.29,-3.49 0.14,-0.34 0.27,-0.4 0.29,-0.37 0.67,-0.65 0.44,-1.5 0.48,-2.88 -0.55,-1.11 -0.16,-0.41 0.01,-0.38 0.47,-0.75 1.66,0.15 0.34,0.76 z m 1.96,-29.2 4.27,0.36 0.84,1.39 1.39,0.28 2.23,-1.67 2.23,0.83 1.39,2.5 1.95,1.39 2.5,2.23 2.78,1.11 1.67,-1.95 1.11,-1.67 2.23,-0.28 2.59,0.35 0,0 -0.05,0.79 0.02,0.51 -0.28,0.8 -0.28,0.4 -0.3,0.31 -0.43,0.37 -0.28,0.48 0.51,1.48 0.91,1.99 0.17,0.81 -0.3,1.05 0.27,0.89 -0.3,3.44 -0.06,0.46 -0.25,0.53 -0.22,1.18 0.08,0.57 0.36,0.87 0.25,2.21 -0.6,1.03 -0.32,0.37 0,0.54 0.91,2.17 0.89,1.8 0.15,0.49 0.2,1.12 0.05,1.02 0.4,0.57 0.07,1.25 -0.72,0.67 -1.85,0.88 -0.44,-0.08 -0.14,-0.49 -0.2,-0.33 -0.46,-0.09 -0.34,0.18 -0.3,0.29 -1.31,2.61 0.3,0.58 0.74,0.64 0.17,0.38 -0.95,3.03 -0.21,0.4 -0.13,0.42 -0.06,0.41 0.15,1.5 0.25,1 0.05,0.77 0.07,1.82 -0.04,0.52 -0.13,0.63 -0.18,0.43 -0.1,0.38 -0.05,0.96 0.26,0.65 0.57,0.96 0.36,0.31 0.76,0.33 0.57,-0.01 0.4,0.02 0.89,0.09 0.46,0.12 1.36,0.84 0.09,1.99 -0.1,0.37 -0.27,0.19 -0.52,-0.13 -1.43,0.48 -0.48,1.2 -0.08,1.3 1.23,0.92 2.09,1.98 0.16,1.26 -0.18,0.45 -0.9,0.6 -0.28,0.11 -0.3,0.17 0,0.57 0.73,1.1 0.82,0.93 0,0 -1.07,-0.5 -0.48,0.02 -2,0.98 -0.2,0.79 -1.99,0.22 -0.11,-0.77 -0.26,-0.53 -0.47,-0.6 -0.42,-0.29 -0.64,-0.06 -0.3,-0.13 -1.09,-1.82 -0.07,-0.83 -0.68,-0.27 -0.47,0.33 -0.61,0.63 -0.47,0.7 -0.2,0.78 -2.75,-0.47 -0.89,-0.23 -0.29,-0.23 -0.94,-0.02 0,0 0,-0.81 -0.22,0.67 0,0 -0.24,-0.02 -0.36,-0.14 -0.54,-0.57 -0.71,0.14 -0.62,0.43 0,0 -0.06,-0.68 0.1,-2.3 -0.95,-2.27 -0.14,-0.45 0.49,-2.51 0.3,-0.35 0.55,-0.37 0.41,-0.25 0.33,-0.19 0.29,-0.1 0.5,-0.22 -0.02,-1.42 -0.25,-0.82 0.11,-0.48 0.57,-1.06 0.51,-0.58 0.47,0.02 1,0.68 0.04,-2.63 -0.44,-0.55 -0.42,-0.26 -0.41,-0.42 -0.22,-0.56 -0.2,-1.13 -0.02,-1.03 0.07,-2.72 0.5,-1.27 0.32,-0.13 1.27,0.07 0.41,0.08 0.3,0.39 1.11,0.73 0.42,0.12 0.18,-0.24 -0.36,-0.59 -0.67,-0.18 -0.46,-0.22 -0.57,-0.47 -2.34,-3.64 0.69,-0.82 0.7,-0.51 2.09,-0.67 0.45,0.25 0.41,0.75 -0.01,0.42 1.29,3.75 0.25,0.19 0.2,-0.35 -0.12,-1.43 -0.5,-2.54 -0.19,-0.82 -0.18,-1.4 0.03,-0.53 0.09,-0.73 0.1,-0.51 0.13,-0.48 0.04,-0.61 -0.26,-0.2 -0.61,0.01 -0.49,0.56 -0.93,0.55 -1.79,-0.27 -1.1,-0.6 -0.59,-0.84 0.12,-0.49 0.76,-1.21 2.15,-2.19 0.59,0.02 0.48,0.1 1.47,-0.35 1,-0.5 0.79,-0.71 0.25,-0.31 0.32,-3.79 -0.52,0.19 -0.5,3.38 -0.32,0.6 -1.02,0.51 -1.46,0.48 -0.48,0.01 -0.33,-0.14 -0.57,-0.45 -0.42,-1.27 -0.48,-0.68 -0.94,-1.12 -0.55,-0.31 -1.31,-0.33 -1.09,0.33 -0.47,0.2 -0.88,1.39 0.2,0.75 0.27,0.25 0.2,1.11 -1,1.05 -0.94,0.71 -0.48,0.08 -1,-0.23 -0.46,-0.15 -0.94,0.03 -0.28,0.12 -0.69,0.33 -0.38,0.13 -0.24,0.01 -0.91,-0.58 -1.69,-0.34 -0.74,-0.04 0.22,-1.45 0.64,-0.97 0.26,-0.18 0.47,-0.02 0.47,0.07 0.53,-0.16 0.93,-1.73 -0.44,0.42 -0.29,0.65 -0.28,0.38 -0.41,0.13 -1.71,-0.17 -0.87,-0.56 -1.32,-1.61 -0.03,-0.7 0.26,-0.61 -0.05,-1.27 -0.17,-0.73 -0.49,-1.38 -0.45,-0.57 -0.22,-0.48 -0.29,-1.8 -0.31,-2.11 0.68,-2.05 1.63,-4.4 0.65,-0.85 0.58,-1.25 -0.11,-0.69 -0.4,-1.02 0.6,-2.73 z" 
                fill="rgb(151, 144, 238)" 
                stroke="white" 
                stroke-width=".7px"
                title="Los Lagos" 
                id="CL-LL" 
            />
        </svg>