<svg xmlns="http://www.w3.org/2000/svg" viewBox="537.8921600000003 242.69692000000012 26.650000000000546 23.129999999999853" width="26.650000000000546" height="23.129999999999853">
            <path 
                d="m 560.66216,265.82692 -0.01,-0.36 -0.1,-0.34 -0.36,-0.26 -0.68,-0.27 -0.46,-0.49 -0.07,-0.35 0.05,-1.13 -0.17,-0.7 -0.25,-0.19 -0.39,0.03 -0.4,0.29 -0.34,0.09 -1,-0.34 0.13,-0.87 -0.56,-1.85 -0.32,-0.29 -0.5,-0.17 -0.5,0 -1.67,0.65 -0.56,0.35 -1.04,0.08 -0.39,-0.13 -1.17,0.73 -1.87,2.17 -0.06,0.39 0.05,0.72 -1.17,0.27 -1.36,0.04 -0.04,-0.02 -1.16,-1.7 -1.79,-0.77 -0.9,-1.66 -2.3,0.13 -1.41,-0.58 0,0 0.76,-0.49 0,0 0.46,-1.57 0.31,-0.01 0.81,0.04 0.72,0.22 0.47,-0.03 0.7,-0.75 0.62,-2.34 -0.53,-1.3 -0.21,-1.17 0.01,-0.34 0.38,-0.2 1,-1.01 0.44,-0.57 0.12,-0.39 -0.03,-1.2 0.19,-0.36 0.88,-0.15 0.87,-0.02 0.99,-0.67 -0.05,-2.12 -0.18,-0.77 0.13,-0.63 0.29,-0.14 1.64,-0.63 1.96,0 1.34,0.33 0.73,0.27 0.58,0.55 0.19,0.66 0.49,0.71 0.34,0.03 0.92,-0.78 0.33,0.04 0.99,1.1 1.46,0.65 1.19,-1.04 0.72,-0.39 0,0 0.21,0.42 -0.09,0.78 -0.14,0.51 0.08,0.45 1.35,2.02 0.35,-0.05 0.29,-0.52 0.4,-0.41 0.35,-0.06 0.39,0.13 1.02,0.57 0.41,1.84 -0.12,0.43 -0.37,0.43 -0.86,1.99 -0.5,3.8 0.01,0.83 0.28,1.1 0.51,3.51 0.44,2.35 -1,0.75 -0.66,-0.05 -0.33,-0.09 -0.41,-0.01 -0.61,0.12 z" 
                fill="rgb(151, 144, 238)" 
                stroke="white" 
                stroke-width=".7px"
                title="Región Metropolitana de Santiago" 
                id="CL-RM" 
            />
        </svg>