<svg xmlns="http://www.w3.org/2000/svg" viewBox="557.2921599999997 21.656923999999997 26.18000000000029 38.22999999999998" width="26.18000000000029" height="38.22999999999998">
            <path 
                d="m 557.32216,26.496924 2.29,-0.11 2.23,-1.39 2.22,-1.67 3.9,0 2.23,1.67 2.22,-0.28 0.28,-1.67 1.39,-1.39 2.15,0 0,0 -0.18,0.41 0.93,1.67 1.67,1.16 0.6,0.53 1.17,1.34 0.23,0.22 0.48,0.23 0.37,0.1 0.44,0.23 0.85,0.75 0.68,0.97 -1.53,1.59 -0.3,0.4 -0.42,0.62 -1.21,1.44 -0.04,0.58 0.91,0.65 0.84,0.72 0.62,1.25 -0.77,2.06 -0.47,-0.03 -0.57,0.08 -1.8,0.49 -0.11,0.38 0.26,0.33 0.65,1.52 0.25,1.52 -0.45,0.21 -0.28,0.32 0.03,0.76 0.19,0.4 0.21,0.31 0.48,0.51 0.41,0.28 0.46,0.23 0.42,0.17 0.42,0.14 0.3,0.13 0.81,0.56 0.36,0.39 -0.07,0.3 -0.53,0.32 -0.28,0.24 -0.51,0.7 -0.01,2.07 0.08,0.32 0.03,0.04 0,0 -1.07,-0.07 -2.58,-0.34 -1.25,0.16 -0.32,0.08 -0.27,0.16 -0.15,0.36 0.21,0.3 0.4,0.24 1.12,0.44 0.39,0 0.36,-0.03 0.78,-0.17 0.41,0.1 0.17,0.38 -0.11,0.65 -0.14,0.41 -0.58,1.07 -0.23,0.36 -0.18,0.39 -0.09,0.43 0,0.48 -1.32,0.57 -1.78,0.19 -3.82,1.15 -4.56,1.07 -1.07,0.24 -0.99,-0.36 -0.88,-0.15 -1.6,-0.18 -0.36,-0.03 -1.55,0.08 -0.21,0.08 0,0 -0.46,-0.89 -0.07,-0.48 0.33,-0.51 -0.78,-2.97 -0.34,-0.77 -0.31,-0.65 0.24,-0.83 0.26,-0.49 -0.11,-0.79 -0.23,-0.42 -0.24,-0.19 -0.53,-0.47 0.59,-6.15 0.42,-1.37 0.07,-0.41 -0.37,-0.94 0.16,-1.14 0.19,-0.44 0.14,-0.44 0.03,-1.17 -0.01,-0.42 -0.2,-1 -0.51,-3.96 -0.43,-2.31 -0.5,-1.83 -0.63,-1.15 z" 
                fill="rgb(151, 144, 238)" 
                stroke="white" 
                stroke-width=".7px"
                title="Tarapacá" 
                id="CL-TA" 
            />
        </svg>