<svg xmlns="http://www.w3.org/2000/svg" viewBox="0.2521599099999695 146.83691999999996 561.81000009 113.46999999999997" width="561.81000009" height="113.46999999999997">
            <path 
                d="m 541.54216,230.18692 0.6,0.03 2.96,-0.68 0.31,-0.2 0.68,-0.76 0.44,-0.71 4.34,-0.13 0.98,0.6 0.06,0.55 0.02,0.41 0.66,0.48 0.65,0.11 0.38,-0.01 0.3,0.01 0.39,0.12 0.4,0.34 0.22,0.8 0.12,0.38 0.4,0.24 1.34,-0.17 0,0 0.11,0.32 0.98,0.43 0.19,0.53 1.09,2.25 0.11,0.51 -0.08,0.62 0.57,0.63 0.89,0.89 1.28,1.66 0.13,1.41 -0.61,1.02 -0.4,1.23 -0.72,0.96 -0.4,0.78 0,0 -0.72,0.39 -1.19,1.04 -1.46,-0.65 -0.99,-1.1 -0.33,-0.04 -0.92,0.78 -0.34,-0.03 -0.49,-0.71 -0.19,-0.66 -0.58,-0.56 -0.73,-0.26 -1.33,-0.34 -1.97,0 -1.64,0.63 -0.29,0.15 -0.13,0.63 0.18,0.76 0.06,2.12 -0.99,0.67 -0.87,0.02 -0.89,0.15 -0.19,0.36 0.03,1.2 -0.12,0.39 -0.43,0.57 -1.01,1 -0.38,0.2 -0.01,0.34 0.21,1.17 0.54,1.31 -0.62,2.33 -0.7,0.75 -0.47,0.03 -0.72,-0.22 -0.81,-0.03 -0.31,0.01 -0.46,1.57 0,0 -1.34,0.87 0,0 -0.5,0.63 -0.5,-0.09 -0.54,-0.12 -0.37,-0.31 -0.67,0.02 0,0 0.43,-1.56 0.49,-1.16 0.38,-0.14 0.5,-0.1 0.41,-0.21 0.5,-0.44 0.26,-0.67 0.08,-0.34 0.09,-0.54 0.13,-1.29 -0.78,-3.11 -0.17,-1.97 -0.71,-2.53 0.14,-0.31 0.68,0.04 1.83,-1.35 0.66,-1.85 0.35,-2.31 0.59,-1.16 0.16,-0.49 0.06,-0.52 0.01,-2.41 0.5,-1.63 -0.9,-1.56 -0.59,-0.89 -0.39,-1.01 0,0 0.32,-0.35 0.33,-0.22 0.4,-0.01 0,0 0.65,0.33 0.38,0.14 z m -538.3400001,-82.26 -0.74,0.29 -0.44,-0.01 -0.17,0.04 -0.78,0.41 -0.37999999,0.26 -0.17,0.14 -0.25,-0.06 -0.02,-0.34 0.35,-1.17 0.08,-0.19 0.09,-0.13 0.22,-0.27 0.34999999,-0.06 2.12,0.54 0.03,0.18 -0.09,0.2 -0.2,0.17 z" 
                fill="rgb(151, 144, 238)" 
                stroke="white" 
                stroke-width=".7px"
                title="Valparaíso" 
                id="CL-VS" 
            />
        </svg>