<svg xmlns="http://www.w3.org/2000/svg" viewBox="236.79304 450.6895 8.759999999999991 18.359999999999957" width="8.759999999999991" height="18.359999999999957">
            <path 
                d="m 245.38304,463.1295 0,0 -1.73,-7.26 0,0 -3.34,-3.93 -3.52,-1.25 0.72,1.43 -0.06,0.1 0.09,0.31 0.47,0.92 0.09,0.37 0.13,0.17 0.19,-0.07 0.03,-0.2 0.19,0.13 -0.03,0.14 -0.22,0.03 -0.03,0.2 0.41,0.78 -0.09,0.31 0.44,0.75 0.28,0.85 0.03,0.41 -0.28,0.1 -0.03,0.14 0.47,-0.17 0.19,0.03 0,-0.14 -0.25,-0.14 0,-0.2 0.19,-0.54 0.28,-0.2 -0.06,-0.17 -0.22,0.03 0.09,-0.13 0.44,-0.07 0.57,0.34 0,0.58 -0.13,0.14 -0.25,0 0,0.41 0.25,-0.07 0.13,0.1 -0.06,0.1 -0.35,0 0.19,0.24 0.06,0.51 -0.16,0.2 0.09,0.44 -0.19,0.14 0,0.24 -0.25,0.1 -0.1,-0.1 -0.19,-1.05 -0.47,0.03 0,0.17 0.22,0.03 0.03,0.71 0.16,0.34 -0.13,0.1 0,0.64 -0.6,0.54 -0.31,0.03 -0.66,0.78 0.03,0.37 -0.13,0.31 0.06,0.27 -0.1,0.51 0.25,0.92 0.19,0.17 0.25,0.71 0.6,0.54 0.32,0.71 -0.22,0.41 0.38,0.13 0.06,0.44 0.09,0.1 0.38,-0.14 0.25,0.1 0.5,-0.17 1.35,0.61 0.06,-0.41 0.22,-0.14 0.09,0.07 0,0.2 -0.22,0.37 0.5,0.17 -0.03,0.2 0.22,0.17 0.28,0.88 2.07,-1.15 -0.17,-4.77 z" 
                fill="rgb(151, 144, 238)" 
                stroke="white" 
                stroke-width=".7px"
                title="Kaohsiung" 
                id="TW-KH" 
            />
        </svg>