<svg xmlns="http://www.w3.org/2000/svg" viewBox="300.6760099999995 350.1802100000003 252.44000000000023 428.98999999999984" width="252.44000000000023" height="428.98999999999984">
            <path 
                d="m 408.09601,363.86021 -1.25,3.77 0.07,3.01 1.6,2.58 2.79,1.94 1.32,0.22 2.99,-0.86 3.41,-2.8 1.26,-7.75 1.74,-2.16 4.38,-1.5 4.39,-0.43 5.15,-0.11 2.58,0.97 3.41,4.63 1.6,3.01 6.54,7.11 2.02,3.22 6.34,7.75 2.44,4.74 1.67,1.18 8.63,3.34 8.98,1.5 1.18,3.88 2.3,1.72 1.53,0.11 6.2,-3.66 1.25,2.26 1.39,0.53 6.2,0 2.51,-2.36 3.34,-4.52 6.12,-5.17 5.36,3.55 2.02,2.05 1.67,3.66 3.28,2.26 1.53,0.53 3.83,-0.32 6.4,3.23 2.99,6.78 1.47,0.86 1.81,-1.08 1.53,-2.69 1.04,-3.55 0.42,-4.09 2.85,-0.21 2.65,1.83 0.77,1.07 1.32,4.2 -0.28,1.07 -1.95,1.94 -2.92,4.95 -2.65,2.69 -6.82,3.65 -2.09,1.94 0.28,2.37 0.97,1.5 1.26,1.29 4.17,2.04 0.84,0.97 0.14,1.29 -2.86,3.98 -0.83,1.93 -0.42,3.01 0.49,1.4 3.62,4.19 0.69,6.13 -1.11,2.9 -4.18,3.33 -4.8,2.58 -1.11,1.18 -0.56,0.86 -0.49,3.66 0,1.18 1.39,3.44 -0.34,10.31 0.41,3.54 2.65,2.8 7.03,4.94 0.14,1.93 -1.88,1.72 -2.37,0.11 -3.13,-3.76 -2.65,-2.15 -2.29,-0.43 -1.67,0.54 -0.56,0.86 -0.21,2.89 3.13,3.44 4.6,3.65 0.42,1.18 -0.42,1.51 -6.82,4.93 -9.54,12.13 -2.79,2.47 -3.34,1.08 -2.37,1.39 -7.58,2.26 -1.74,1.93 -0.84,3.11 -5.08,8.37 -3.2,3.54 -9.89,7.51 -2.71,5.36 0.27,2.15 0.84,1.5 6.26,0 2.65,2.36 0.21,3.11 -1.32,4.93 -6.97,15.87 -4.17,14.57 -1.46,3.11 -1.81,2.36 -2.44,1.5 -3.55,3.75 -3.48,5.03 -1.19,2.79 -1.81,2.14 -2.29,1.5 -3.76,1.28 -3.21,0.22 -1.95,1.28 -5.36,5.9 -1.32,2.67 0.21,5.14 1.25,2.57 2.65,2.14 0.9,3.64 -0.55,1.08 -0.98,0.74 -1.53,0 -1.39,-0.53 -2.65,-2.14 -2.92,0.43 -3.97,2.24 -2.99,4.07 -0.07,2.25 2.5,3.21 6.83,4.6 6.19,5.03 1.53,2.36 -0.2,1.82 -2.37,5.67 -3.2,3.64 -4.88,6.84 -3.48,2.68 -3.13,5.03 -0.7,2.35 0.07,1.71 7.24,24.17 0.14,13.89 1.32,4.71 -0.97,8.22 -0.28,11.12 0.56,10.78 -2.37,0.97 -0.97,-0.33 -3.14,-2.24 -4.38,-5.12 -1.19,-0.22 -2.99,1.18 -3.13,-2.67 -1.19,0.85 -1.39,-0.53 -2.64,1.06 -1.05,-0.74 -0.55,-1.29 -1.47,-0.64 -1.67,-2.56 -4.66,-5.02 -4.6,-0.86 -0.48,-1.49 -1.47,-0.11 -4.31,2.25 -5.43,-3.1 -1.33,-1.18 0.07,-1.17 2.86,-5.45 -1.18,-0.86 -1.26,0.86 -2.71,0.1 -0.91,2.89 -1.46,-0.11 -1.74,-3.85 -0.97,-1.06 -0.35,-1.82 0.21,-0.96 2.57,0.64 0.63,-2.78 -1.39,-0.53 -2.65,1.17 -1.67,-0.32 -0.84,-1.07 -0.62,-2.99 0.41,-4.49 -0.55,-1.39 -1.46,0 -2.93,-1.18 -6.82,0.32 -0.7,-1.06 0,-1.5 -2.71,-1.6 -0.49,-3.21 -1.88,-0.11 -4.25,2.25 -1.6,-0.97 -1.18,-2.46 -1.6,-0.53 -1.39,-1.82 0,0 -0.35,-2.24 -1.26,-1.18 -1.25,-0.21 -0.07,-1.93 -0.62,-0.43 2.71,-5.45 -2.85,-3.64 3.13,-2.56 -2.58,-3.43 -0.55,0.43 -1.6,-1.39 -1.05,-1.82 -0.28,-1.6 -1.53,0 0.49,-2.68 -1.05,-0.64 0.7,-1.92 -0.84,-0.86 1.33,-1.39 -0.63,-0.86 -1.11,0.75 -1.39,-2.35 0.62,-0.32 -0.97,-0.43 -3.35,-5.14 -0.48,-2.46 5.08,-2.78 2.58,4.5 2.08,-0.97 0.84,0.86 0.63,-0.54 0.21,-0.43 -2.02,-1.81 -1.47,-2.68 1.26,-2.68 -0.84,-1.71 1.46,-2.89 -1.11,-2.14 0.56,-0.53 -1.12,-1.07 -0.14,-2.25 1.26,0.75 3.83,-0.22 1.81,2.79 0.69,0.32 3.69,0.1 4.04,-0.74 3.69,-2.15 -1.95,-2.14 0.21,-3.1 1.74,-3.64 0.9,-0.54 3.9,0.32 0,-1.17 1.47,-0.11 -0.28,-1.39 0.9,-2.14 -0.14,-0.75 1.46,-1.18 4.74,-0.54 5.36,-1.6 6.4,0 2.93,1.5 2.57,2.67 0.35,-0.32 0.63,-1.39 -0.07,-2.46 -0.91,-4.18 -0.97,-0.75 0,-1.5 -2.44,-2.89 -1.11,-3.86 -3.27,-0.32 -0.63,-0.43 -0.63,-2.03 -1.74,-0.32 -0.55,-0.75 -3.07,0.21 -1.25,0.75 -0.97,-0.21 -0.14,0.64 -1.54,0.43 -0.69,-0.75 2.23,-3.86 11,-12.43 7.24,-9 2.43,-2.14 0.7,-0.96 -0.14,-3.76 -0.77,-1.6 -2.15,-1.18 -0.91,-3.11 -0.56,0.21 -0.21,-0.42 -2.36,1.07 -1.74,-0.22 -0.07,-1.93 -1.81,0.11 -1.88,-2.68 0.21,-3.75 -0.7,-2.47 0.35,-0.53 -0.77,-1.29 0.56,-0.32 -0.56,-1.29 -3.83,-2.04 -0.83,-0.96 -0.35,-6.11 -0.83,0.1 -0.08,-0.43 3.49,-0.75 0.55,-6.22 -3.13,-0.1 -1.39,0.43 -0.77,-4.62 0.42,-0.86 0.07,-6.86 -0.77,-1.61 -3.89,3 -0.84,-2.68 -1.04,-0.1 -0.49,1.28 -0.7,0.22 -0.62,-4.94 -1.19,-1.93 -0.28,-1.5 -3.34,-0.97 -2.02,-1.5 -0.14,0.64 -2.29,0.65 -1.05,-0.32 -0.35,0.85 -2.15,-1.18 -7.45,2.37 -1.54,-0.11 -1.25,-1.83 -1.53,0.43 -1.81,-0.21 -0.84,-0.75 -1.11,0.32 -1.39,1.61 -0.7,-1.61 -5.29,0.32 -2.02,-4.4 -6.4,0.97 -4.18,0.1 -0.84,0.86 0.07,0.86 1.26,1.72 -3.48,2.68 -1.54,-1.61 -6.33,-1.07 -0.97,0 -0.49,1.5 -0.56,-0.21 0.56,-3.01 -3.48,0.11 -0.91,0.86 -1.88,0 -2.02,-1.18 3.76,-2.69 2.09,-0.75 0.77,0.86 1.11,-1.39 0.42,0.32 0.76,-0.32 0.7,-2.15 0.91,-0.64 -2.44,-2.69 0.07,-0.75 3.06,-2.04 0.91,-6.01 1.6,-2.36 -1.12,-1.93 0.77,-1.61 0.14,-3.65 -1.53,-2.36 7.86,-5.37 2.23,-0.22 2.37,-1.39 -0.35,-1.72 3.83,-0.97 0.07,-0.86 -1.67,-2.04 2.23,-1.5 3.83,-0.97 -0.28,-0.97 3.9,-3.65 0.07,-0.86 2.36,-3.54 0.21,-3.01 2.99,-9.45 0.35,-0.33 1.53,1.4 3.42,0.43 3.89,1.4 4.53,0.32 2.16,0.65 7.31,-0.33 1.88,0.86 0.42,-0.21 0.48,-2.47 4.88,-5.91 0.41,-4.95 2.51,-1.61 1.74,-3.76 -2.23,-0.54 -0.55,-1.5 3.48,-3.44 -0.07,-1.18 -2.09,0.1 -0.98,-1.72 -1.46,0.11 -2.71,1.51 -0.56,0 -0.49,-0.76 -0.83,0.43 0.07,-0.75 -1.05,0.65 -1.11,-0.11 -0.63,-5.59 -0.97,-2.47 1.39,-0.32 -0.56,-2.26 -3.2,1.5 -2.58,-0.97 -2.15,1.94 -2.79,-4.3 -0.56,0.32 -0.34,-0.54 -1.26,0.97 -1.04,-2.15 -3.55,0.86 -0.28,-1.18 2.44,-0.75 1.04,-1.19 2.02,-0.21 2.51,-1.08 0,0 2.36,-0.96 -1.18,-3.45 -3.69,-3.97 0.42,-3.23 6.26,-3.44 0.7,-1.29 2.64,-2.48 -3.48,-7.63 -0.69,-0.65 3.34,0.65 4.32,-0.54 -0.42,-2.05 1.04,-1.29 -0.55,-1.61 1.39,0 1.18,-1.4 0.7,-0.11 0.21,-1.29 0.41,-3.33 -7.38,-1.94 -2.29,-1.08 -0.63,-1.83 -0.56,-5.05 11.35,-12.06 -3.55,-0.86 -2.09,-3.23 4.94,-4.63 11.28,2.37 2.02,-0.86 3.48,0 2.23,-1.08 1.39,0.32 3.14,2.26 4.94,-0.86 -0.84,-7.53 -1.81,-3.13 5.5,-2.8 0,0 2.93,5.17 2.36,2.37 0.35,1.29" 
                fill="rgb(151, 144, 238)" 
                stroke="white" 
                stroke-width=".7px"
                title="Grevenmacher" 
                id="LU-G" 
            />
        </svg>