<svg xmlns="http://www.w3.org/2000/svg" viewBox="52.00601300000008 377.5302099999995 346.13999699999977 414.7699999999996" width="346.13999699999977" height="414.7699999999996">
            <path 
                d="m 103.93601,512.11021 2.16,-1.07 1.95,-0.11 4.46,-2.68 2.22,0.53 -0.35,1.4 3.28,0 2.78,-1.07 0.91,1.07 -0.77,4.72 3.13,4.3 6.55,1.61 5.43,-0.54 6.54,-3.22 3.97,-3.76 3.13,-0.21 0.21,-1.93 1.32,-1.08 0.91,-1.93 2.02,-0.97 4.25,-3.75 4.17,-2.37 0.56,-2.14 1.46,1.71 3.55,-0.1 2.37,-0.97 1.53,-1.5 3.48,-1.19 1.39,0 0,3.76 1.05,0.76 8.84,-2.9 -1.25,-2.47 2.09,-0.97 -0.35,-1.29 1.18,-0.54 -1.74,-1.93 0.97,-2.79 -2.5,-3.01 3.41,-1.72 0.49,-1.07 -2.37,-1.72 -1.04,0 -2.72,-4.83 -0.42,0.21 0.28,0.64 -1.67,1.08 -0.9,-1.61 -3.35,1.18 0.07,-0.86 -0.97,-0.75 2.09,-1.61 -1.95,-3.01 -1.67,-0.86 0.9,-1.4 1.67,-0.75 -0.21,-1.83 -0.76,-1.07 0.9,-1.08 -0.34,-1.18 3.2,-2.47 0.21,-1.4 1.53,-1.93 -0.42,-0.43 3.13,-1.5 -0.97,-2.8 -0.49,-0.11 -0.42,-2.9 0.21,-1.18 1.05,-0.86 -1.4,-0.43 -0.55,-1.51 0.69,-0.75 1.74,-0.21 0.84,-0.86 1.39,0.1 0.42,-1.72 -1.81,-0.21 -1.04,-0.86 1.32,-1.83 -0.98,-3.01 -1.39,-2.04 0.77,-1.08 -0.07,-1.18 2.71,-2.79 1.74,-0.86 5.64,0.21 -0.07,-2.47 -0.55,-0.97 1.6,-1.08 0.48,-2.04 -0.27,-2.58 4.03,-1.4 -0.83,-1.93 6.4,-2.8 3.76,-2.58 3,-0.22 -5.71,-4.3 0.34,-1.51 -1.81,-1.18 0.42,-1.72 -0.28,-1.18 2.58,-5.71 0.21,-1.61 3.9,-3.12 1.88,-0.32 -0.28,-3.12 1.39,-0.76 1.74,0.11 3.2,2.26 1.4,-0.97 -0.49,-1.18 5.85,-3.55 1.6,-0.43 1.11,-1.62 -0.28,-1.61 0.91,-1.51 0.9,0.86 -0.9,1.18 0.28,2.27 5.43,0.43 1.04,0.53 0.28,0.54 -0.7,3.34 0.35,0.64 7.66,3.23 3.62,-0.54 0.28,0.54 2.23,0.32 1.81,3.13 -0.07,1.39 -0.91,0.86 0.98,2.05 3.2,0.43 4.11,1.29 2.36,3.87 8.64,-5.48 5.22,-4.31 0.55,0.54 0.98,-2.15 9.4,-6.78 0.35,0.65 0.83,-0.22 1.74,3.12 0.14,2.05 0.56,0.96 -0.49,0.54 0.35,2.69 6.68,-3.87 1.26,-1.19 3.55,0.33 4.17,1.61 8.15,-2.58 2.09,0.64 0.28,4.52 1.53,2.26 0.69,3.45 -0.28,3.65 -1.53,3.45 0.56,1.72 1.53,0.32 -0.76,1.29 1.39,0.11 0.34,-0.65 2.02,2.05 1.68,0.43 -0.08,1.07 0.49,0.22 -0.55,0.75 1.74,0.43 1.25,0.97 1.46,0.11 1.26,0.96 1.74,3.98 2.22,1.94 3.83,2.26 1.12,-2.05 1.25,0.11 0.49,-2.79 1.18,-0.86 5.43,-1.94 1.11,3.12 0.56,-0.54 1.18,1.83 0.91,5.7 2.37,0.32 1.67,0.97 2.09,-2.69 1.88,3.33 0,0 -2.51,1.08 -2.02,0.21 -1.04,1.19 -2.44,0.75 0.28,1.18 3.55,-0.86 1.04,2.15 1.26,-0.97 0.34,0.54 0.56,-0.32 2.79,4.3 2.15,-1.94 2.58,0.97 3.2,-1.5 0.56,2.26 -1.39,0.32 0.97,2.47 0.63,5.59 1.11,0.11 1.05,-0.65 -0.07,0.75 0.83,-0.43 0.49,0.76 0.56,0 2.71,-1.51 1.46,-0.11 0.98,1.72 2.09,-0.1 0.07,1.18 -3.48,3.44 0.55,1.5 2.23,0.54 -1.74,3.76 -2.51,1.61 -0.41,4.95 -4.88,5.91 -0.48,2.47 -0.42,0.21 -1.88,-0.86 -7.31,0.33 -2.16,-0.65 -4.53,-0.32 -3.89,-1.4 -3.42,-0.43 -1.53,-1.4 -0.35,0.33 -2.99,9.45 -0.21,3.01 -2.36,3.54 -0.07,0.86 -3.9,3.65 0.28,0.97 -3.83,0.97 -2.23,1.5 1.67,2.04 -0.07,0.86 -3.83,0.97 0.35,1.72 -2.37,1.39 -2.23,0.22 -7.86,5.37 1.53,2.36 -0.14,3.65 -0.77,1.61 1.12,1.93 -1.6,2.36 -0.91,6.01 -3.06,2.04 -0.07,0.75 2.44,2.69 -0.91,0.64 -0.7,2.15 -0.76,0.32 -0.42,-0.32 -1.11,1.39 -0.77,-0.86 -2.09,0.75 -3.76,2.69 2.02,1.18 1.88,0 0.91,-0.86 3.48,-0.11 -0.56,3.01 0.56,0.21 0.49,-1.5 0.97,0 6.33,1.07 1.54,1.61 3.48,-2.68 -1.26,-1.72 -0.07,-0.86 0.84,-0.86 4.18,-0.1 6.4,-0.97 2.02,4.4 5.29,-0.32 0.7,1.61 1.39,-1.61 1.11,-0.32 0.84,0.75 1.81,0.21 1.53,-0.43 1.25,1.83 1.54,0.11 7.45,-2.37 2.15,1.18 0.35,-0.85 1.05,0.32 2.29,-0.65 0.14,-0.64 2.02,1.5 3.34,0.97 0.28,1.5 1.19,1.93 0.62,4.94 0.7,-0.22 0.49,-1.28 1.04,0.1 0.84,2.68 3.89,-3 0.77,1.61 -0.07,6.86 -0.42,0.86 0.77,4.62 1.39,-0.43 3.13,0.1 -0.55,6.22 -3.49,0.75 0.08,0.43 0.83,-0.1 0.35,6.11 0.83,0.96 3.83,2.04 0.56,1.29 -0.56,0.32 0.77,1.29 -0.35,0.53 0.7,2.47 -0.21,3.75 1.88,2.68 1.81,-0.11 0.07,1.93 1.74,0.22 2.36,-1.07 0.21,0.42 0.56,-0.21 0.91,3.11 2.15,1.18 0.77,1.6 0.14,3.76 -0.7,0.96 -2.43,2.14 -7.24,9 -11,12.43 -2.23,3.86 0.69,0.75 1.54,-0.43 0.14,-0.64 0.97,0.21 1.25,-0.75 3.07,-0.21 0.55,0.75 1.74,0.32 0.63,2.03 0.63,0.43 3.27,0.32 1.11,3.86 2.44,2.89 0,1.5 0.97,0.75 0.91,4.18 0.07,2.46 -0.63,1.39 -0.35,0.32 -2.57,-2.67 -2.93,-1.5 -6.4,0 -5.36,1.6 -4.74,0.54 -1.46,1.18 0.14,0.75 -0.9,2.14 0.28,1.39 -1.47,0.11 0,1.17 -3.9,-0.32 -0.9,0.54 -1.74,3.64 -0.21,2.78 0.35,1.07 1.6,1.39 -3.69,2.15 -4.04,0.74 -3.69,-0.1 -0.69,-0.32 -1.81,-2.79 -3.83,0.22 -1.26,-0.75 0.14,2.25 1.12,1.07 -0.56,0.53 1.11,2.14 -1.46,2.89 0.84,1.71 -1.26,2.68 1.47,2.68 2.02,1.81 -0.21,0.43 -0.63,0.54 -0.84,-0.86 -2.08,0.97 -2.58,-4.5 -5.08,2.78 0.48,2.46 3.35,5.14 0.97,0.43 -0.62,0.32 1.39,2.35 1.11,-0.75 0.63,0.86 -1.33,1.39 0.84,0.86 -0.7,1.92 1.05,0.64 -0.49,2.68 1.53,0 0.28,1.6 1.05,1.82 1.6,1.39 0.55,-0.43 2.58,3.43 -3.13,2.56 2.85,3.64 -2.71,5.45 0.62,0.43 0.07,1.93 1.25,0.21 1.26,1.18 0.35,2.24 0,0 -0.98,0 -0.9,5.03 -0.98,0.53 -4.04,-1.49 -1.11,1.17 -1.18,-0.96 -4.39,1.5 -2.71,-1.39 0.07,2.67 -0.49,1.5 -6.55,0.21 -2.64,-0.75 -4.46,1.39 -2.22,-1.71 -3.9,0.43 -2.65,-1.28 -4.52,0.64 -0.84,-1.29 0,-1.81 -1.46,0.1 -2.44,2.36 -5.5,2.99 -4.87,0.75 -1.32,2.46 0,1.38 2.01,4.71 2.09,2.24 0.21,1.71 -2.57,0.96 -1.47,-2.35 -1.04,0.64 -1.25,2.25 -1.4,0.53 -4.66,3.74 -1.18,-0.1 0.9,-2.67 -0.07,-1.93 -1.39,0.11 -4.66,1.92 -1.26,-0.43 -1.67,-2.88 -1.25,-0.54 -0.7,2.68 -0.07,9.29 -2.43,5.35 -0.35,3.95 -5.99,2.78 -2.44,-2.25 -1.88,0.22 -2.08,1.17 -2.23,2.35 -2.37,6.3 1.81,7.8 -0.07,2.67 -4.52,-0.43 -3,-0.96 -6.05,-3.95 -0.49,-0.85 0.28,-5.66 -0.91,-1.07 -1.74,-0.32 -2.85,0.42 0.69,-1.17 -0.28,-0.53 -3.2,1.7 -2.57,0.22 -2.09,-0.11 -3.13,-1.39 -1.4,0.32 -3.06,4.7 -2.09,4.38 -1.04,4.27 -3.21,6.73 -5.36,-2.35 -3.41,0.11 -1.11,0.53 -0.63,-0.85 1.05,-2.78 -1.26,-2.56 -1.39,-0.75 -6.13,1.5 -1.39,0.96 -1.18,-0.54 -1.12,0.22 -1.04,0.85 -1.11,-0.32 -2.86,-3.52 -2.57,-0.64 -12.19,6.51 -1.25,-0.64 -0.98,-2.03 0.56,-2.56 1.46,-1.07 1.74,0.75 1.33,0 1.04,-4.92 0,-2.13 -2.3,-0.96 -0.97,0.32 -1.11,2.13 -1.54,0.64 -3.34,-5.55 -1.6,-8.33 1.74,-2.57 0.49,-2.77 -0.7,-3.64 -2.99,-2.03 -1.18,-4.06 0.07,-4.17 -1.26,-1.81 -2.37,-0.43 -4.45,0.53 -2.44,-0.32 -2.99,-2.67 -1.32,-0.53 -1.54,-2.03 -2.92,-1.93 -2.58,-0.43 -5.49,2.68 -1.12,0 -8.7,-3.96 -3.55,0.64 -4.94,3.42 -5.99,1.71 -8.36,-3.1 -4.589997,1.18 -1.39,-1.28 -1.12,-0.11 -2.02,0.85 -1.53,-1.06 -2.5,-2.46 -1.74,-3.21 -3.48,-2.35 -3.7,-1.71 -0.2,-4.06 -0.63,-2.14 -4.04,-1.82 -4.11,-3.32 -1.32,-2.03 -0.56,-4.7 0.49,-1.5 5.36,-2.67 1.19,-1.5 -3.35,-5.99 -1.46,-3.64 0.35,-1.82 -0.63,-0.96 -5.36,1.82 -5.57,3.1 -2.85,0.96 -4.87,-6.09 -0.07,-1.5 3.41,-0.86 0.56,-0.64 0.2,0.53 0.63,-0.21 2.58,-3.1 2.5,-1.93 1.74,-0.43 1.33,0.86 3.06,-2.03 5.22,-1.39 1.25,-0.86 1.81,-2.78 -0.97,-3.43 0.83,-2.46 3.07,-1.18 2.3,-2.46 1.74,-0.75 2.22,-0.21 0.91,-0.96 0.49,-2.9 1.6,-0.64 3.48,-3.31 1.25,0.21 0.49,-0.54 -0.28,-3.74 0.42,-1.93 -2.16,-0.64 1.46,-3.22 1.39,-0.85 -0.9,-4.29 -2.16,-1.07 -1.25,2.04 -1.19,0.75 -5.57,0 -2.43,-1.07 -1.74,-3.11 -0.98,-6.21 2.09,-3.11 5.15,-2.67 5.43,-4.82 3.9,-1.5 1.67,-1.29 0.7,-4.71 -1.05,-2.79 0.91,-4.93 3.969997,-5.25 3.2,-2.79 0,-0.85 -1.67,-2.15 -0.07,-1.39 2.58,-3.96 3.13,-0.97 3.83,-0.11 3.06,2.15 3.27,-3.33 0.49,-1.5 -1.67,-2.68 -0.07,-3.11 -1.18,-0.75 0,-5.89 -0.49,-1.61 0.7,-2.15 1.6,-1.5 -1.81,-2.89 1.88,-3.43 3.27,-1.83 0.42,-1.18 -1.05,-1.18 -1.11,-0.21 -1.95,1.39 -1.6,-0.32 -0.14,-1.29 0.76,-1.93 -0.69,-0.53 -2.3,1.39 -1.95,-1.82 -2.37,0.86 -1.6,-2.15 -1.6,1.61 -1.18,0.11 -2.37,-1.83 -0.21,-1.71 -2.299997,-2.15 -3.27,0 -1.81,-1.61 -3.76,-0.53 -3.06,-5.91 0.42,-4.39 1.39,-5.58 0.77,-1.18 0.06,-2.79 3.49,-5.16 4.52,-3.54 2.369997,-3.54 3.34,-3.65" 
                fill="rgb(151, 144, 238)" 
                stroke="white" 
                stroke-width=".7px"
                title="Luxembourg" 
                id="LU-L" 
            />
        </svg>