<svg xmlns="http://www.w3.org/2000/svg" viewBox="0.26257404000000184 192.83114000000015 114.93999595999999 63.059999999999974" width="114.93999595999999" height="63.059999999999974">
            <path 
                d="m 30.732574,238.03114 -2.08,-0.04 0.54,-1.81 -0.21,-0.83 -0.25,-0.49 -1.25,-0.7 -0.14,-0.45 0.27,-1.15 -0.77,-1.95 -1.09,-0.64 -5.6,-1.25 -7.34,-0.19 0.27,-0.56 2.49,-2.26 0.89,-1.23 0.29,-1.2 -0.22,-1.23 -0.68,-0.91 -0.83,-0.44 -1.68,-2.95 -0.77,-0.44 -0.9,-0.19 -1.13,-1.13 -0.92,-2.38 -2,-1.53 -0.98,-3.62 -0.87,-1.64 -1.88,-1.08 -0.08,-1.17 0.81,0.1 0.42,-0.52 0.07,-0.67 -0.2,-0.42 -2.12,-0.93 -0.36,-0.66 -2.16999996,-1.89 0.04,-0.37 0.62,-0.05 0.49999996,-1.32 -0.01,-1.31 3.01,-0.39 0.5,-0.39 -0.22,-1.35 -1.17,-1.57 0,0 17.95,7.48 23.66,5.66 12.14,3.14 26.44,14.17 28.509996,12.13 0,0 2.97,1.26 0,0 -0.3,0.48 -1.57,0.66 -2.09,1.59 -2.86,2.79 -1.65,0.86 -0.66,-0.18 -1.53,0.18 -0.05,0.56 -1.92,1.3 -2.08,0.99 -1.439996,1.83 -0.44,1.18 -0.61,0.28 -1.17,-0.75 -0.76,-0.13 -2.37,0.05 -0.68,0.26 -0.63,0.45 -0.36,0.86 -2.44,3.48 -3.77,1.25 -0.84,0.69 -1.94,0.51 -1.03,0.03 0.08,-2.11 -1.36,0.2 -3.55,-0.77 -5.24,-0.47 -5.09,0.38 -0.66,-0.58 -2.27,-0.17 -3.56,1.83 -2.73,0.62 -1.68,-0.67 -1.4,-1.44 -1.64,1.16 0.04,-17.55 0.05,-1.1 0.47,-0.71 0.07,-2.35 -0.26,-0.88 0.97,-1.18 0.48,-1.14 -1.16,0.2 -2.97,2.59 -1.6,1.01 -2.06,2.38 -1.95,0.67 -0.65,1.08 -1.81,0.99 z" 
                fill="rgb(151, 144, 238)" 
                stroke="white" 
                stroke-width=".7px"
                title="Acre" 
                id="BR-AC" 
            />
        </svg>