<svg xmlns="http://www.w3.org/2000/svg" viewBox="558.54257 219.58114000000003 48.15999999999963 26.240000000000038" width="48.15999999999963" height="26.240000000000038">
            <path 
                d="m 562.17257,230.56114 -0.2,-0.73 -1.42,-0.78 -0.45,0.09 -1.02,-0.29 -0.54,-1.4 0,0 1.32,-1.07 0.64,-1.09 2.17,-0.76 2.38,-3.29 0.09,-0.69 0.82,-0.6 1,1.22 1.67,0.3 1.08,-0.12 2.55,2.02 1.9,2.12 1.78,1.05 1.91,0.48 2.5,-0.65 3.14,0.29 1.17,-0.11 1.86,-1.06 1.16,0.05 1.81,-1.11 2.18,-2.29 0.12,-0.45 1.55,-1.24 2,-0.24 2.24,0.85 2.56,-1.29 1.47,-0.19 1.92,0.81 2.9,0.27 0.27,0.21 0,0 -2.78,4.96 -4.55,5.13 -3.58,3.58 -3.04,4.58 -3.33,2.88 -1,2.03 -1.32,1.79 0,0 -0.6,-1.31 -3.59,-2.23 -0.46,-0.03 -1.66,-0.79 -1.76,-1.45 -1.3,-2.45 -5.42,-3.07 -3.68,-0.95 z" 
                fill="rgb(151, 144, 238)" 
                stroke="white" 
                stroke-width=".7px"
                title="Alagoas" 
                id="BR-AL" 
            />
        </svg>