<svg xmlns="http://www.w3.org/2000/svg" viewBox="300.36257 14.091144000000005 76.37000000000006 86.269996" width="76.37000000000006" height="86.269996">
            <path 
                d="m 345.24257,99.961144 -0.94,-0.06 -0.77,0.339996 -1.3,0.12 -2.79,-0.679996 -1.45,-1.03 -0.43,-1.5 -1.87,-1.39 -0.11,-1.3 0.21,-0.69 -0.31,-1.58 -0.33,-0.47 -0.95,-0.19 -0.41,-0.94 0.08,-2.43 -2.93,-3.28 -0.78,0.36 -0.82,-0.19 -1.5,-3.48 0.13,-1.58 -0.59,-1.81 -0.62,-0.56 -0.67,-1.51 -0.19,-2.11 0.43,-3.14 -0.17,-0.33 -2.57,-0.73 -2.02,-2.26 -0.76,-2.83 0.19,-0.72 0.68,-0.23 -0.49,-1.18 -0.68,0.03 -2.84,-2.66 -0.94,0.14 -0.38,0.42 -1.33,0.14 -0.84,-0.27 -0.8,-0.98 -1.14,-0.84 -1.19,-0.12 -0.49,-1.28 -0.67,-0.8 -1.93,-1.05 -1.29,-0.49 -3.39,-0.37 -1.08,0.29 -1.17,-0.02 -0.31,-0.54 -0.24,-1.44 0.25,-4.54 0.62,-1.3 -0.37,-2.3 -0.62,-0.57 0,0 0.35,-0.21 0.99,0.3 -0.01,0.81 -0.29,0.18 0.34,0.97 1.47,-0.06 0.82,0.23 0.35,0.9 0.84,0.71 2.25,0.78 3.29,0.75 2.76,-1.78 0.35,-0.76 1.73,-1.17 0.83,-0.29 0.69,0.94 2.71,0.94 1.08,-0.12 1.72,-1.01 0.12,-0.42 0.32,0.03 1.46,1.3 -0.2,0.87 2.37,-0.17 0.51,0.5 0.95,0.17 0.62,-0.01 0.91,-0.48 1.67,-1.5 1.78,-1.1 1.75,-2.3 0.37,-1 -0.2,-0.54 3.13,-6.5 0.11,-1.82 1.11,-1.3 0.73,-0.19 3.6,-5.79 0.23,-1.15 0.84,-1.2 1.79,-1.55 0.63,-1.66 2.11,-1.14 0.47,-0.92 1.04,-0.58 0.56,1.46 0.88,1.36 -1.67,-4.8 -0.07,-1.29 0.18,-0.33 3.37,2.42 1.14,1.21 0.91,1.22 0.52,1.19 0.03,1.58 0.44,0.31 0.32,-0.48 0.38,-0.1 0.21,0.4 0.21,7.89 0.66,3.87 2.71,6.05 2.66,8.94 3.32,5 1.01,0.35 3.27,-0.08 2.78,0.94 1.29,0.85 0.77,2.65 -0.16,3.33 -1.29,0.96 -1.73,0.43 -0.38,0.33 1.79,-0.15 1.04,-0.42 0.28,0.23 0.12,0.59 -0.17,0.73 -5.03,4.06 -1.17,2.1 -2.15,1.41 -1.94,3.72 -2.91,3.5 -0.7,0.46 -0.94,-0.09 -1.45,0.52 -2.08,2.98 0,0 -1.34,0.07 -0.75,0.9 0,0 -1.47,1.68 -0.97,2.22 -1.12,1.87 -0.84,0.65 -3.01,3.45 -0.36,2.4 0.17,1.8 -1.95,1.81 -0.98,0.12 z m 23.36,-46.99 -0.45,-0.33 -1.1,-1.86 0.07,-0.88 0.23,-0.41 1.66,-0.45 0.43,0.39 0.83,2.27 -0.99,1.1 -0.68,0.17 z m 2.49,17.61 -0.4,-0.25 -0.08,-0.71 1.11,-1.1 0.88,-0.15 1.25,0.24 0.46,-0.11 0.44,-0.64 0.05,0.59 -0.97,1.44 -0.99,0.5 -1.75,0.19 z m 3.44,-2.87 -0.78,-0.23 0,-0.56 0.72,-1.04 1.25,-0.1 0.18,0.35 -0.1,0.51 -1.27,1.07 z m -7.19,-18.42 -0.76,-0.5 0.26,-0.83 0.88,-0.17 0.86,0.32 0.01,0.73 -1.25,0.45 z" 
                fill="rgb(151, 144, 238)" 
                stroke="white" 
                stroke-width=".7px"
                title="Amapá" 
                id="BR-AP" 
            />
        </svg>