<svg xmlns="http://www.w3.org/2000/svg" viewBox="508.55256999999995 125.48114000000004 65.5 78.78999999999994" width="65.5" height="78.78999999999994">
            <path 
                d="m 574.05257,157.11114 -4.89,1.59 -2.61,2.01 -3.3,6.69 -0.84,1.12 -0.87,0.57 -0.65,1.67 0.15,0.74 -1.4,2.44 -1.46,1.51 -0.57,1.1 -1.03,0.26 -0.78,-0.51 -0.51,0.07 -0.84,0.88 -1.41,2.25 -0.34,1.97 0.64,0.17 0.66,-0.38 0,0 -0.08,0.54 -0.84,1.15 -1.03,3 0.52,1.31 -0.66,1.31 -1.09,0.63 -0.17,0.38 -0.12,0.93 0.24,0.41 0.58,0.29 0.35,0.72 -0.02,1.66 1.24,0.89 0.69,0.08 0.34,1.19 -1.61,3.49 -1.19,1.12 0.17,0.25 0,0 -1.59,0.49 -1.07,0.83 -1.54,2.29 -1.65,0.05 -0.63,-1.64 -0.78,-0.57 -1.36,-0.48 -1.01,-1.07 -0.46,-0.99 -1.83,-0.83 -2.85,-1.9 -3.08,-0.42 -1.29,0.1 -2.14,0.8 -1.63,0.19 -0.89,-0.24 -4.93,-0.2 0,0 0.06,-1.32 -0.68,-0.68 -0.08,-0.97 1.14,-3.11 1.5,-2.25 0.01,-0.69 -0.77,-1.16 -2.56,-0.47 -1.31,-0.65 -1.01,-2.67 -1.05,-5.2 -0.76,-2.57 0.24,-0.45 -0.94,-8.16 -0.11,-0.38 -0.92,-0.69 0.8,-0.58 0.59,-1.58 -0.6,-2.99 -1,-2.01 0.48,-1.6 -0.79,-3.87 0.74,-1.36 0.02,-0.76 -1.36,-1.59 -0.44,-1.73 -3.15,-6.42 -1.8,-4.72 -0.29,-1.29 0.18,-1.46 1.58,-1.97 1.09,-1.85 0.11,-0.8 0,0 0.19,-0.14 -0.04,-0.62 -0.4,-0.66 0.65,-0.81 6.74,-0.22 2.89,-0.43 2.07,-0.66 7.4,0.79 2.12,1.12 1.94,1.5 4.12,2.18 1.46,0.52 4.82,3 1.21,0.2 2.22,2.29 2.99,2.11 2.57,0.72 2.44,2.91 1.22,0.61 2.96,3.81 4.16,3.08 1.46,2 1.04,0.99 1.5,0.82 1.15,0.03 2.37,0.92 0.79,0.67 z" 
                fill="rgb(151, 144, 238)" 
                stroke="white" 
                stroke-width=".7px"
                title="Ceará" 
                id="BR-CE" 
            />
        </svg>