<svg xmlns="http://www.w3.org/2000/svg" viewBox="501.60256999999996 364.2311399999999 34.56 55.69999999999999" width="34.56" height="55.69999999999999">
            <path 
                d="m 501.89257,411.63114 -0.29,-0.14 0.44,-2.34 0.57,-1.3 -0.59,-3.12 0.16,-0.42 1.72,-2.06 5.15,0.03 0.55,-0.32 0.97,-3.24 1.11,-1.27 0.88,-2.29 0.24,-1.72 0.26,-0.44 1.24,-0.86 1.71,-2.09 0.54,-2.97 -0.29,-2.43 -1.27,-2.81 -1.1,-1.27 -0.52,-0.09 -0.45,0.29 -0.76,-0.28 -0.49,-0.71 0.43,-0.55 1.48,-0.09 0.8,0.35 0.97,0.03 0.95,-0.24 0.32,-0.42 -0.17,-1.72 -1.31,-0.35 -0.21,-0.41 0.3,-1.54 0.03,-1.92 -0.52,-0.66 -1.33,-0.67 -0.3,-0.7 1.17,-1.93 2.17,-1.31 0.31,-0.02 1.05,0.74 1.13,0.11 0.02,-0.81 -1.67,-2.27 1.34,0.13 2.18,-0.29 0.84,-0.61 1.08,-0.32 1.58,-0.08 2.54,0.81 0.91,0.55 0,0 0,0 0,0 0.3,0.53 8.1,5.14 0,0 -0.93,3.35 -0.31,2.86 0.12,3.59 0.72,6.15 -0.31,2.47 -1.49,3.18 -2.75,1.39 -0.55,0.6 -1.67,3.33 -0.98,3.8 -0.77,1.47 -0.83,-0.68 -0.88,-0.13 -0.29,1.28 1.35,0.52 -1.94,4.24 -3.45,3.84 -0.24,-0.27 -1.86,0.66 -0.8,1.23 -0.06,1.39 -0.42,1.25 -1.59,2.02 -0.29,1.13 0,0 -1.62,-1.06 -2.99,0.37 -4.34,-1.01 -2.5,-1.13 -0.67,-4.71 z" 
                fill="rgb(151, 144, 238)" 
                stroke="white" 
                stroke-width=".7px"
                title="Espírito Santo" 
                id="BR-ES" 
            />
        </svg>