<svg xmlns="http://www.w3.org/2000/svg" viewBox="394.36257000000035 98.84114400000001 108.23999999999955 144.119996" width="108.23999999999955" height="144.119996">
            <path 
                d="m 458.83257,129.18114 -0.04,0.33 -2.04,2.15 -0.43,0.17 -0.04,1.44 1.97,-1.7 0.68,-1.21 2.12,-1.58 0.89,-1.14 1.03,-6.33 1.15,-0.7 1.11,-0.12 1.67,-0.92 0.65,-0.13 0.46,0.12 0.08,1.63 -0.2,0.45 -1.42,1.87 -3.21,1.75 -0.03,0.72 0.73,0.12 0.45,-0.81 1.15,-0.31 0.22,0.83 -0.59,0.51 0.25,0.3 4.21,-4.97 0.86,0.33 2.58,-0.93 4.04,0.43 -0.46,-2.41 0.61,-0.23 2.42,0.08 1.78,0.38 2.63,1.05 1.04,0.11 2.15,1.38 1.4,0.03 1.26,1.3 1.89,1.32 2.5,0.58 1.16,-0.19 0.56,0.76 0.34,0.05 1.59,-0.09 2.46,0.66 0.26,-0.9 -0.67,-0.47 1.67,-0.38 0.57,0.11 -0.09,0.42 0,0 -0.46,1.43 0.23,0.72 0.63,0.54 -0.38,1.53 -1.79,2.27 -4.13,3.97 -3.32,0.46 -0.8,-0.16 -2.92,3.4 0.04,1.8 -0.88,1.83 -1.89,1.85 -0.82,1.98 -0.64,0.17 -0.77,1.05 0.36,1.92 1.23,0.83 0.38,1.28 -0.28,1.46 -1.14,2.87 1.58,2.81 0.55,2.98 -0.11,2.43 -0.21,0.55 -4.1,4.42 -0.17,2.48 0.12,2.11 0.51,2.3 1.78,2.04 1.61,0.91 0.17,0.5 0.13,0.84 -0.39,2.2 -0.29,0.44 -0.12,1.21 -0.5,1.46 -1.21,1.31 -2.29,0.29 -0.65,-0.28 -0.83,0.04 -2.43,0.86 -1.52,0.11 -2.5,-1.82 -1.01,-0.21 -1.46,0.19 -1.01,0.6 -1.12,0.26 -0.23,-0.3 -0.84,0.24 -0.5,0.22 -1.9,1.91 0.01,0.46 -0.63,0.87 -2.01,2 -2.34,0.91 -2.87,2.56 -1.33,0.53 -1.05,0.04 -1.7,1.53 -1.08,0.36 -2.61,0.32 -2.72,0.76 -2.13,1.95 -0.98,2.97 -0.39,2.97 -0.63,2.32 -1.45,2.74 -0.3,0.22 -0.34,0.82 -0.13,1.52 -1.2,2.48 -1.7,1.4 -0.73,2 0.71,1.94 0.47,3.18 1.73,3.06 -0.04,0.52 -0.76,1.4 -0.13,6.36 -1.15,2.45 -0.26,1.06 -0.05,1.92 0,0 -1.28,-0.66 -0.61,-0.82 -0.82,-0.45 -0.99,-0.29 -1.78,0.2 -0.71,-0.18 -1.35,-2 -0.99,-2.86 -2.13,-1.62 -0.14,-1.65 1.64,-1.81 -0.08,-0.53 -3.88,-1.95 -0.62,-1.05 -0.06,-1.66 -0.75,-1.59 -0.94,-0.69 -2.08,-0.28 -0.2,-0.42 0.26,-0.71 2.63,-2.54 -0.37,-1.31 0.73,-2.68 0.69,-1.43 0.57,-0.55 1.34,-0.54 3.39,-0.35 -0.39,-1.35 0.64,-3.25 -0.08,-1.76 -1.8,-1.21 -4.27,0.94 -2.15,1.34 -2.27,-3.02 -0.91,-0.85 -3,-4.15 -0.88,0.07 -0.84,-1.44 0.61,-1.19 -0.11,-0.88 -0.25,-0.34 -1.37,-0.24 -0.42,0.27 -1.93,-1.33 0.18,-0.71 1.76,-0.66 1.75,-2.04 0.25,-1.59 -0.28,-1 0.31,-2.36 1.77,-6.16 0.01,-0.43 -0.68,-1.14 -0.23,-1.08 0.21,-3.72 -0.64,-1.5 -0.47,-3.49 -0.84,-1.03 -3.4,-1.44 -1.22,-0.02 -0.28,-0.32 -0.08,-1.03 -0.59,-0.69 -1.74,-0.29 -0.96,0.52 -1.4,-0.09 -2.78,-1.51 -0.86,-0.06 -1.96,0.53 -2.62,1.85 -0.53,0.64 0,0 -0.49,-0.08 14.71,-11.83 2.35,0.23 1.17,-0.92 1.55,-2.17 0.43,-1.15 1.55,-1.17 0.62,-2.88 1.12,-0.46 2.44,-2.32 0.47,-1.21 0.29,-1.9 1.6,-4.69 1.96,-1.54 1.48,-1.76 0.83,-1.45 0.46,-1.28 -0.18,-1.82 0.79,-0.81 -1.04,-1.58 3.68,-3.09 -0.13,-1.64 0.5,-2.38 1.74,-1.57 0.36,-0.71 0.9,-3.02 0.08,-1.61 -0.43,-0.53 -0.99,0.16 -0.27,-0.49 0.05,-0.62 1.14,-0.15 0.57,-0.74 0.71,-4.39 -0.16,-1.38 0.47,-1.03 0.77,-0.45 0,0 0.63,0 0.24,-0.24 -0.06,-0.54 0.34,-0.749996 0.58,-0.53 1.34,0.98 0.45,1.839996 1.19,0.12 0.77,-1.36 0.61,2.93 0.99,0.04 0.29,-0.49 0.07,-0.94 0.85,-0.04 1.69,0.53 0.5,0.69 -1.43,1.7 0.67,0.7 0.02,0.55 1.21,-2.04 0.49,-1.54 0.45,0 0.4,1.02 0,0.58 -0.87,0.92 -0.27,0.99 0.08,2.71 0.26,0.33 0.47,0.12 0.58,-0.14 0.96,-0.93 -0.47,-1 0.14,-0.6 1.32,-1.43 1.05,-0.25 2.13,0.59 1.5,-1.11 0.05,0.92 -0.36,0.21 -1.13,1.53 0.59,0.58 0.1,-0.37 1.25,-0.6 0.58,0.79 -0.14,1.21 1.63,1.75 0.86,-0.44 1.58,0.67 0.77,2.4 -0.11,0.95 -2.19,2.73 -0.38,0.89 0.1,0.66 0.6,-1.03 1.75,-1.68 0.83,-0.03 0.87,0.81 0.52,1.89 -0.27,1.23 -0.97,0.19 -1.03,0.91 -1.16,1.49 0.07,0.77 -1.16,2.35 -0.62,3.52 0.21,0.34 0.87,0.23 z m 0.52,0.45 -0.06,-0.79 0.53,-1.53 -0.41,-1.07 0.13,-0.66 0.91,-1.24 0.55,-0.19 0.05,2.35 -0.22,1.34 -0.8,0.6 -0.68,1.19 z m -6.3,-25.76 -0.44,-0.46 -0.08,-0.6 0.8,-1.12 0.84,-0.03 0.68,0.42 0.1,0.34 -0.19,0.36 -1.71,1.09 z m 3.5,4.18 -0.29,-0.3 0.06,-0.53 1.06,-0.89 0.48,0.07 0.5,0.85 -0.14,0.61 -0.4,-0.17 -1.27,0.36 z m -14.16,-4.81 -0.21,-0.05 0.95,-3.579996 0.3,0.09 0.03,0.23 -0.41,3.059996 -0.66,0.25 z" 
                fill="rgb(151, 144, 238)" 
                stroke="white" 
                stroke-width=".7px"
                title="Maranhão" 
                id="BR-MA" 
            />
        </svg>