<svg xmlns="http://www.w3.org/2000/svg" viewBox="247.5725699999999 352.69113999999973 112.92999999999975 113.95000000000005" width="112.92999999999975" height="113.95000000000005">
            <path 
                d="m 359.21257,400.07114 -0.4,2.46 -0.28,0.4 -1.5,0.78 -1.32,0.04 -0.47,0.22 -1.22,1.03 -1.99,2.68 -0.73,0.65 -1.01,0.3 -0.62,1.68 -0.16,2.93 -2.59,3.64 -0.96,0.52 -0.23,0.38 0.31,1.93 -0.08,0.95 -1.21,2.34 -2,2.26 0.35,0.85 -0.28,1.21 -1.44,1.03 -0.4,1.21 -1.73,1.69 -1.26,2.44 -1.95,1.87 -7.56,4.53 -1.26,1.14 -0.74,1.54 -0.84,1.08 0,0 -5.41,2.27 -1.11,0.82 -0.93,2.33 0.02,1.15 -1.45,3.56 -0.67,0.68 -1.66,1.01 -1.11,0.32 -0.33,0.35 -1.57,7.92 -0.36,0.82 -2.38,1.56 0,0 -2.55,-2.33 -3.41,-1.89 -3.99,1.97 -0.68,0.75 -1.66,0.49 -2.58,0.43 -2.36,-0.46 -1.01,-0.65 -0.47,-4.27 -0.32,-0.7 -0.9,-0.95 -0.23,-2.47 0.51,-1.34 -0.64,-0.79 -0.09,-0.44 0,-2.87 -0.89,-1.97 -0.6,-2.74 -0.05,-0.72 0.59,-1.36 0.02,-1.61 -1.57,-1.09 -0.38,-0.8 -0.16,-2.16 -1.65,-1.82 -2.17,-0.26 -1.51,0.31 -1.83,-0.29 -2.46,-1.96 -0.56,-1.49 -1.54,0.33 -2.17,2.74 -1,-0.6 -1.72,0.81 -1.08,0.16 -1.74,-0.69 -2.56,-0.49 -3.46,0.23 -3.66,-0.71 -0.48,-0.91 -1.99,-0.13 -0.89,0.52 -2.5,-0.88 0.91,-7.27 -0.43,-2.38 0.6,-1.42 0.98,-1.46 0.6,-6.03 -0.66,-2.33 -0.05,-1.73 -0.76,-0.96 -0.43,-0.09 -0.49,0.65 -0.64,-3.26 -0.79,-1.87 -1.21,-2.02 -0.35,-1.83 4.03,-2.3 0.76,-0.88 -4.2,-3.86 5.38,-11.42 1.12,-0.06 -0.28,-2.13 -0.74,-0.13 3.23,-10.33 0.66,-1.16 -3.09,-5.85 0.03,-1.91 0,0 0.7,0.2 1.02,1.1 2.15,1.52 5.62,-1.97 2.05,-2 2.02,-2.95 0.09,-1.17 1.4,-1.45 2.59,0.03 1.56,-0.22 0.77,0.34 1.66,-0.51 1.35,-1.25 2.02,-0.49 1.27,0.2 0.76,1.15 2.79,1.25 2.62,0.47 0.65,0.35 0.27,0.86 0.78,1.02 3.03,1.16 1.26,1.11 1.24,0.57 4.52,-0.63 1.26,-0.8 0.49,-0.85 1.43,-0.61 2.44,0.07 1.59,1.04 0.3,1.37 0.24,0.25 0.99,0.04 2.13,-0.88 1.01,0.06 5.62,-6.01 1.34,-0.13 -1.23,6.61 -1.8,0.7 -1.66,2.83 -0.19,0.46 0.15,0.53 1.3,0.11 1.74,1.27 4.62,0.27 0.57,-0.57 2.66,-0.08 0.87,0.08 1.17,0.57 1.55,-0.31 0,0 0.19,1.77 -0.26,2.58 0.23,1.11 0.28,0.41 0.66,0.19 1.14,-0.67 2.25,0.9 0.08,0.42 -1.31,1.76 -0.57,1.17 -0.26,0.84 0.13,0.33 3.8,0.7 2.78,-0.16 2.7,1.68 1.14,0.17 1.44,0.71 0.67,0.61 3.07,1.56 0.68,0.85 3.35,1.34 1.49,0.04 1.9,0.43 1.62,1.55 3.15,0.61 2.66,2.24 0.24,0.45 0,0 -0.58,0.25 -0.99,4.18 0.59,3.21 z" 
                fill="rgb(151, 144, 238)" 
                stroke="white" 
                stroke-width=".7px"
                title="Mato Grosso do Sul" 
                id="BR-MS" 
            />
        </svg>