<svg xmlns="http://www.w3.org/2000/svg" viewBox="358.93256999999994 305.29114000000044 174.25 141.8099999999996" width="174.25" height="141.8099999999996">
            <path 
                d="m 527.76257,365.59114 -0.91,-0.55 -2.54,-0.81 -1.58,0.08 -1.08,0.32 -0.84,0.61 -2.18,0.29 -1.34,-0.13 1.67,2.27 -0.02,0.81 -1.13,-0.11 -1.05,-0.74 -0.31,0.02 -2.17,1.31 -1.17,1.93 0.3,0.7 1.33,0.67 0.52,0.66 -0.03,1.92 -0.3,1.54 0.21,0.41 1.31,0.35 0.17,1.72 -0.32,0.42 -0.95,0.24 -0.97,-0.03 -0.8,-0.35 -1.48,0.09 -0.43,0.55 0.49,0.71 0.76,0.28 0.45,-0.29 0.52,0.09 1.1,1.27 1.27,2.81 0.29,2.43 -0.54,2.97 -1.71,2.09 -1.24,0.86 -0.26,0.44 -0.24,1.72 -0.88,2.29 -1.11,1.27 -0.97,3.24 -0.55,0.32 -5.15,-0.03 -1.72,2.06 -0.16,0.42 0.59,3.12 -0.57,1.3 -0.44,2.34 0.29,0.14 0,0 -2.53,2.35 -1.24,0.27 -0.56,0.5 0.74,0.7 -2.36,6.05 -1.9,3.71 -0.09,0.75 1.44,0.13 0.29,0.61 -0.21,0.52 -2.53,0.98 -9.51,4.53 -1.37,0.2 0.02,-0.46 -0.49,-0.17 -2.53,-0.27 -0.57,0.06 -1.62,0.94 -1.25,0.16 -3.2,0.08 -0.36,-0.32 -0.51,0.08 -4.1,1.78 -1.05,0.77 -1.71,0.77 -0.5,-0.28 -2.59,0.17 -2.91,1.34 -2.42,0.74 -0.68,0.49 0,0 -1.25,0.73 -2.2,0.22 -1.93,1.02 -1.23,1.24 -1.79,0.67 -2.38,0.25 -2.34,-0.08 -0.01,-0.49 0.35,-0.49 -0.09,-0.35 -1.19,0.33 -0.18,2.3 0.24,0.23 -0.05,0.84 -0.75,0.98 -1.3,0.32 -0.57,-0.43 -3.61,1 -0.19,-0.53 -2.01,0.24 -1.12,-0.25 -2.03,-3.31 1.22,-0.71 -0.52,-1.71 -1.8,-0.83 -1.79,-1.23 -0.71,-1.61 0.53,-1.56 0.19,-3.45 -0.26,-2.94 1.86,-2.72 0.7,-2.18 0.05,-1.27 -0.23,-0.37 -3.7,-1.32 -1,0.05 -0.28,0.36 -0.78,0.31 -1.61,0.05 0.03,-0.85 -0.83,-1.99 -1.3,-1.79 -0.37,-2.21 -0.31,-0.62 -0.79,-0.74 0.19,-1.94 1.52,-2.03 0.06,-0.56 -0.4,-1.55 -1.88,-1.21 -0.58,-0.61 0.29,-2.37 0.57,-1.01 -0.2,-1.04 -3.27,-3.35 -1.3,0.29 -0.85,0.64 -1.65,-0.78 -2.38,0.11 -0.31,0.61 0.2,0.46 -0.44,0.99 -2.78,0.68 -1.11,-0.43 -1.51,-1.45 -1.01,1.25 -8.18,0.68 -0.46,0.48 -0.48,1.19 0.27,2.54 -0.41,0.44 -1.19,-0.52 -0.01,-2.78 -0.25,-0.96 -0.36,-0.39 -0.56,-0.05 -0.26,0.19 -0.41,1.13 -0.67,0.94 -0.54,0.32 -0.62,-0.02 -1.21,-2.1 -0.33,-1.42 0.14,-0.91 -1.68,-0.79 -2.18,-1.42 -1.99,0.59 -1.62,-0.22 -1.67,0.35 -4.29,-0.96 -2.55,-0.08 -1.73,-1.55 -0.75,-0.14 -1.5,0.61 -1.43,1.69 -1.92,0.37 -2.15,1.11 -1.22,1.13 0,0 0.31,-2.62 -0.59,-3.21 0.99,-4.18 0.58,-0.25 0,0 0.86,0.46 0.36,-0.23 0.01,-0.34 -0.56,-0.61 0.57,-1.9 1.64,-2.1 0.94,-0.74 0.45,-0.14 0.84,0.16 0.82,-0.28 0.84,-1.3 -0.06,-1 1.21,-2.46 1.41,-2.1 2.23,-0.54 2.48,-0.96 3.71,0.62 3.19,-1.64 1.52,0.3 1.31,1.42 0.33,0 2.91,-2.92 4.13,-2.64 2.01,0.89 3.86,-0.16 1.48,0.28 1.75,-0.01 0.58,-0.09 0.55,-0.48 4.35,1.86 0.7,0.77 4.89,-2.74 0.48,-1.12 0.86,-0.9 1.16,-0.2 3.09,-2.06 -1.19,-3.46 0.51,-1.89 0.73,-0.9 0.17,-0.71 -0.18,-1 -0.47,-0.61 -1.58,-0.57 -0.9,0.47 -1.09,-1.11 0.43,-2.14 3.24,-3.01 2.32,-2.71 0,-0.6 -1.65,-4.56 -1.42,-1.03 -0.85,-0.34 -0.85,-1.21 0.41,-1.47 1.04,-1.25 0.68,-1.59 -0.31,-1.57 0.53,-1.52 1.27,-0.12 2.29,-1.51 3.36,-0.9 0.53,-0.53 -0.69,-4.26 -0.53,-0.19 -0.42,-0.61 -0.04,-1.9 0.73,-0.7 0.57,-0.94 -0.49,-1.16 -0.72,-0.1 0.72,-3.18 0.37,-0.28 1.17,-0.23 2.78,1.14 0.4,-0.13 0.57,-0.54 -0.58,-3.77 1.17,-1.49 2.42,1.48 0.9,1.76 3.23,0.34 1,-1.01 0,0 0.51,2.41 -1.43,3.44 0.4,0.23 1.34,-0.91 0.7,-1 0.72,-0.13 2.13,0.38 1.04,-0.77 1.85,-2.57 0.99,0.15 1.43,-0.53 1.81,-1.55 0.95,-1.17 2.02,-0.41 3.37,-1.86 0.64,-1.11 4.27,-3.03 3.82,-1.58 1.8,0.09 1.2,0.5 2.18,0.03 2.28,0.53 0.85,0.46 -1.29,2.74 -0.15,0.89 0.26,1.49 0.61,0.5 5.33,1.46 0.64,-0.17 0.81,-1.12 1.88,-0.89 1.77,-0.26 2.73,0.75 1.1,0.54 4.35,3.64 0.98,-0.18 2.17,1.62 2.53,1.22 0.93,0.22 0.51,-0.21 1.53,1.24 4.39,-1.23 0.38,0.18 6.52,6.2 0.44,3.96 0.57,-0.21 2.61,0.45 1.47,-0.5 1.32,-0.99 1.99,0.15 2.73,0.56 2.26,1.08 2.19,0.61 2.12,-0.03 2.83,2.47 0.73,0.38 0.89,0.07 0.78,1.02 0.42,1.17 -1.47,3.08 -4.96,4.22 -0.15,2.65 0.56,1.02 0,0.42 -1.02,0.71 -2.48,-0.24 -0.82,0.88 -0.82,3.3 -0.53,4.4 0.22,0.25 0.35,-0.19 0.2,-0.45 0.64,-0.24 0.58,1.23 -0.22,1.51 0.15,0.51 4.14,3.06 0.53,1.04 0.01,0.53 -0.68,1.35 z" 
                fill="rgb(151, 144, 238)" 
                stroke="white" 
                stroke-width=".7px"
                title="Minas Gerais" 
                id="BR-MG" 
            />
        </svg>