<svg xmlns="http://www.w3.org/2000/svg" viewBox="550.5325700000001 175.6111399999998 61.72999999999968 35.3900000000001" width="61.72999999999968" height="35.3900000000001">
            <path 
                d="m 610.69257,199.41114 -2.5,-2.06 -0.82,-0.26 -2.65,-0.21 -2.31,1.07 -1.48,1.28 -0.45,1.8 -1.9,1.03 -2.01,0.45 -1.14,-0.02 0,0.6 -0.8,0.53 -2.18,0.29 -3.88,-0.26 -1.61,0.88 -0.55,0.64 -1.82,0.1 -0.89,0.69 -0.54,0.76 0.39,0.73 0.01,0.54 -0.4,0.48 -1.78,1.53 -1.34,0.16 -1.65,0.84 -1.6,-0.79 -0.95,-0.94 -0.35,-2.24 0.24,-0.49 -0.18,-0.3 -1.14,-0.32 -0.44,0.29 -1.51,0.25 0.04,-0.45 2.53,-2.64 0.17,-0.43 -0.72,-1.87 -0.04,-0.47 0.37,-0.78 3,-1.07 0.11,-0.3 -0.5,-1.39 -3.5,-1.92 -1.48,0.41 -2.22,1.26 -0.93,1.51 -1.48,0.87 -1.05,0.31 -2.7,1.88 -1.52,1.64 -1.63,0.23 -2.63,0.97 -0.77,-0.33 0.05,-0.68 -0.63,-1.24 -0.38,-0.08 -0.93,0.73 -1.51,0.32 -0.99,-0.33 -1.4,-1.91 -0.4,-0.09 0,0 -0.17,-0.25 1.19,-1.12 1.61,-3.49 -0.34,-1.19 -0.69,-0.08 -1.24,-0.89 0.02,-1.66 -0.35,-0.72 -0.58,-0.29 -0.24,-0.41 0.12,-0.93 0.17,-0.38 1.09,-0.63 0.66,-1.31 -0.52,-1.31 1.03,-3 0.84,-1.15 0.08,-0.54 0,0 0.57,-0.46 1.93,1.64 0.9,0.42 2.88,0.61 1.16,-1.13 3.23,-1.66 0.82,-0.71 0.1,-1.04 0.41,-0.95 3.18,-1.21 1.43,-0.12 3.26,-1.04 0.64,0.08 0.53,0.44 0.01,1.19 -2.99,3.21 -0.44,0.96 -0.38,1.74 -0.41,0.38 -0.85,0.25 -0.21,0.31 -0.08,1.72 3.53,0.52 0.32,0.23 0.31,1.38 0.29,0.23 3.15,-1.26 1.77,-0.08 1.95,0.3 0.89,1.17 -0.52,1.54 0.83,0.74 2.35,-0.93 0.5,-0.74 0.55,-1.21 -0.47,-0.94 -0.16,-1.42 0.48,-0.59 1.01,0.32 -0.53,-1.53 -0.72,-0.78 0.31,-1.48 1.82,-1.35 1.38,-0.05 0.42,0.39 -0.1,1 0.62,0.49 3.42,0.4 0.53,0.35 5.83,-0.39 2.17,0.3 2.46,1.1 1.04,-0.4 3.5,0.21 0.93,-0.24 0,0 0.09,2.4 1.45,4.39 0.06,0.64 -0.18,0.94 -0.37,0.45 -0.03,0.88 0.58,-0.74 0.51,-1.5 0.01,1.98 0.59,1.01 -0.27,5.18 -0.36,0.6 z" 
                fill="rgb(151, 144, 238)" 
                stroke="white" 
                stroke-width=".7px"
                title="Paraíba" 
                id="BR-PB" 
            />
        </svg>