<svg xmlns="http://www.w3.org/2000/svg" viewBox="234.85256999999996 42.58114399999997 201.12999999999965 192.91999600000003" width="201.12999999999965" height="192.91999600000003">
            <path 
                d="m 371.29257,235.50114 -62.97,-3.48 -34.04,-2.42 -3.69,-1.49 -1.37,0.45 -0.35,-0.31 -0.2,-1.09 -0.55,-0.72 -1.63,-0.45 -0.82,0.17 -0.95,-0.39 -0.23,-0.5 0.04,-1.1 -0.23,-0.94 -3.38,-1.7 -3,-2.76 -1.54,-1.11 -0.72,-2.2 -0.48,-2.39 0.23,-2.44 -0.77,-1.63 -1.33,-1.93 -1.37,-3.95 -0.39,-1.76 -2.45,-4.06 -1.18,-1.08 0,0 -0.57,-0.56 -0.15,-1.96 -0.64,-1.26 -1.59,-1.56 -1.07,-0.58 -0.37,-0.57 -0.83,-2.34 0.03,-1.13 0.58,-0.97 1.45,-1.13 0.78,-1.31 29.9,-64.24 -1.81,-1.67 0.13,-0.78 -0.19,-0.48 -1.39,0.35 -0.85,0.61 -1.87,-0.78 -1.1,-2.17 -2.69,-1.45 -1.27,-1.34 -0.08,-0.6 -1.32,-0.82 -1.37,-0.15 -2.25,-0.65 -2.38,-1.31 -1.88,-0.67 -1.35,-1.09 -0.63,-0.9 -4.58,-2.54 -4.64,-3.769996 -0.3,-0.44 -0.04,-0.93 -0.55,-1.83 -1.84,-1.23 -0.7,0.19 -0.36,-0.2 -1.83,-1.98 0.05,-2.11 0.35,-0.69 -0.18,-0.41 -1.69,-0.85 -0.24,-0.68 -0.18,-2.27 0.43,-1.45 -0.4,-4.86 0,0 -1.59,-16.97 0,0 0.75,0.32 0.43,0.58 -0.02,0.48 0.45,0.4 0.92,0.28 1.37,-0.71 0.47,-0.81 2.71,0.23 0.81,-1.05 -0.54,-1.81 1.79,-0.36 1.41,-1.63 2.64,1.01 1.88,0.03 0.54,-1.52 3.33,-1.62 1.97,0.39 1.16,-0.11 0.49,-0.25 1.2,-1.48 0.4,-1.4 1.46,-1.1 0.86,-0.11 0.65,0.46 2.11,-1.13 0.41,0.11 0.37,0.99 0.73,0.45 2.03,0.48 1.61,0.25 0.56,-0.6 1.67,-0.39 0.78,0.28 0.82,-0.01 0.86,-0.34 2.24,0.3 4.67,1.38 0.96,-0.14 1,-0.87 -0.03,-2.28 -2.07,-2.5 -1.24,-0.63 0.49,-1.68 1.31,-1.45 0.28,-1.11 0.31,-0.17 0.71,0.19 0.83,0.76 2.35,1.11 11.62,-2.33 1.57,1.69 1.02,0.06 0.44,-0.29 0,0 0.62,0.57 0.37,2.3 -0.62,1.3 -0.25,4.54 0.24,1.44 0.31,0.54 1.17,0.02 1.08,-0.29 3.39,0.37 1.29,0.49 1.93,1.05 0.67,0.8 0.49,1.28 1.19,0.12 1.14,0.84 0.8,0.98 0.84,0.27 1.33,-0.14 0.38,-0.42 0.94,-0.14 2.84,2.66 0.68,-0.03 0.49,1.18 -0.68,0.23 -0.19,0.72 0.76,2.83 2.02,2.26 2.57,0.73 0.17,0.33 -0.43,3.14 0.19,2.11 0.67,1.51 0.62,0.56 0.59,1.81 -0.13,1.58 1.5,3.48 0.82,0.19 0.78,-0.36 2.93,3.28 -0.08,2.43 0.41,0.94 0.95,0.19 0.33,0.47 0.31,1.58 -0.21,0.69 0.11,1.3 1.87,1.39 0.43,1.5 1.45,1.03 2.79,0.679996 1.3,-0.12 0.77,-0.339996 0.94,0.06 0,0 -0.53,0.739996 0.29,1.59 -0.17,0.53 -1.29,1.11 -1.39,0.17 -0.5,-0.18 -0.84,-0.79 -0.66,-0.15 -3.38,1.58 -0.37,0.54 -1.6,0.72 -0.63,-0.02 -1.55,0.59 0.04,0.58 6.46,-1.06 0.88,0.66 0.13,0.46 0,0.66 -0.62,0.5 0.3,0.36 0.63,-0.2 0.86,-1 1.02,-0.01 0.53,-0.27 0.6,0.12 1.07,-0.42 1.14,-0.57 3.28,-2.34 1.5,-0.35 1.84,-0.81 3.16,-1.84 0.54,-0.999996 0.67,-0.52 2.09,-1.01 0.66,-0.72 -0.25,-0.67 0.21,-0.41 1.13,-0.28 1.09,0.06 0.41,0.21 0.38,3.799996 -0.52,2.58 0.33,1.62 0.81,1.6 1.31,1.35 0.3,1.64 -0.12,0.47 -1.84,1.84 -0.47,0.13 -0.87,-0.52 -1.82,-0.52 -1.26,-0.31 -0.93,0.14 -2.13,-1.04 -0.26,-1.12 -0.88,-0.53 -2.28,3.82 -0.61,2.37 0.68,2.97 0.48,0.64 0.92,0.62 -1.01,-1.14 -0.43,-2.69 0.12,-0.52 2.57,-4.22 2.31,1.18 0.11,0.45 2.53,2.45 -0.25,2.02 -0.74,0.55 0.4,2.33 0.52,1.13 1.12,0.75 0.74,0.15 0.52,0.49 -0.34,-0.64 -0.77,-0.24 -1.2,-1.04 -0.22,-0.68 0.34,-4.2 0.82,-1.19 1.43,0.73 0.83,1.2 -0.09,0.79 1.2,0.86 0.25,-0.29 -1,-1.26 -0.92,-2.1 0,-0.44 2.26,-2.32 1.62,0.09 1.93,0.64 0.34,0.56 -0.61,0.59 0.32,0.28 0.48,0.03 1.03,-0.17 1.33,-0.9 4.09,-0.96 0.77,0.2 1.74,1.06 3.17,-0.42 1.07,-0.41 1.02,-1.01 0.98,-0.59 1.74,-0.51 0.77,0.07 0.06,0.75 -2.04,4.02 -0.24,1.5 -0.46,1.07 -0.83,1.03 -0.01,0.88 0.58,1.42 -0.32,2.47 0.88,-1.19 0.01,-1.4 1.54,-3 1.13,-3.19 1.12,-1.56 0.27,-0.27 0.76,-0.05 0.58,-0.35 1.82,-0.23 0.88,-1.35 1.51,-1.69 1.36,-2.26 0.52,-0.46 0.79,0.49 0.62,-0.46 1.62,2.34 1.19,0.59 -0.05,-0.74 -0.35,-0.75 0.62,-1.01 3.51,-0.51 -1.03,-0.32 -3.51,0.46 -0.31,-0.21 0.29,-2.43 0.51,-0.29 0.67,0.38 1.02,0.11 1.07,-3.099996 -0.68,-1.39 0.03,-0.68 1.17,-1.81 2.84,-2.48 0.36,-0.08 1.11,1.14 2.93,-2.09 0.46,-0.07 0.4,0.45 0.1,0.57 -0.32,0.67 1.07,-0.16 0.81,-0.58 0.36,-0.78 0.63,-0.19 0.28,0.15 0.74,1.39 1.33,1.2 0.2,-0.56 -0.11,-0.38 -0.96,-0.49 -0.14,-0.29 -0.13,-1.2 0.17,-0.42 0.44,-0.19 2.28,0.26 1.18,0.65 0.62,1.02 1.63,0.71 1.65,-0.78 0.53,2.14 -0.5,0.31 -0.03,0.59 0.92,-0.52 1.16,-2.35 0.38,0.23 -0.23,1.33 0.41,0.44 2.51,-0.26 0.45,0.65 0.46,1.68 -0.6,0.95 0.85,-0.5 0.26,0.37 1.89,0.14 3.53,-1.24 -0.31,1.58 -0.75,1.829996 1.47,-0.489996 0.59,-0.62 0.63,1.619996 0,0 -0.77,0.45 -0.47,1.03 0.16,1.38 -0.71,4.39 -0.57,0.74 -1.14,0.15 -0.05,0.62 0.27,0.49 0.99,-0.16 0.43,0.53 -0.08,1.61 -0.9,3.02 -0.36,0.71 -1.74,1.57 -0.5,2.38 0.13,1.64 -3.68,3.09 1.04,1.58 -0.79,0.81 0.18,1.82 -0.46,1.28 -0.83,1.45 -1.48,1.76 -1.96,1.54 -1.6,4.69 -0.29,1.9 -0.47,1.21 -2.44,2.32 -1.12,0.46 -0.62,2.88 -1.55,1.17 -0.43,1.15 -1.55,2.17 -1.17,0.92 -2.35,-0.23 -14.71,11.83 0.49,0.08 0,0 2.29,0.81 1.87,-0.24 1.29,0.12 1.02,1.66 0.39,0.31 0.87,0.14 1.26,1.17 -0.04,0.63 -0.37,0.67 -0.72,0.37 -0.97,0.07 -0.29,0.28 0.09,1.41 1.01,1.34 -0.92,2.75 -0.64,0.48 -1.46,0.46 -0.25,0.46 0.29,1.2 -0.19,1.34 -1.3,0.15 -1.51,1.34 -0.85,1.27 0.15,1.51 -0.24,0.5 -2.5,1.2 -3.41,1.14 -2.47,1.78 -0.19,0.35 0.43,2.19 0.06,2.67 -1.28,2.1 -1.41,1.68 -0.15,0.57 0.17,0.88 0.59,0.96 1.67,1.74 0.75,0.32 0.15,0.3 -0.66,4.04 -1.76,5.15 -1.08,0.81 -1.7,3.24 -0.18,0.99 -0.94,1.54 -0.74,0.85 -1.05,0.16 -1.37,0.92 -1.03,1.92 -1.21,1.68 -1.18,1.09 -1.15,1.58 -1.13,4.46 -1.6,3.66 z m 21.16,-130.31 -4.52,1.96 -3.39,0.52 -2.02,-0.31 -0.65,1.13 -1.84,1.19 -0.72,-0.61 -0.61,-1.53 -0.23,0.28 0.42,1.23 -0.34,0.81 -0.71,0.41 -3.77,-1.64 -0.8,0.72 -4.19,1.26 -3.2,-0.57 -0.81,-0.61 -0.24,-1.85 -0.23,-0.41 -1.11,-1.02 -1.06,-1.6 -0.21,-1.78 0.52,-2.75 0.62,-0.379996 1.76,0.359996 0.93,-0.749996 0.08,-0.56 -1.3,0.43 -1.22,-0.13 -0.94,-0.71 -0.18,-1.05 0.34,-5.08 0.73,-0.76 0.35,0.75 1.76,0.6 0.55,-0.06 -0.46,-0.42 -1.27,-0.22 -0.9,-2.16 0.36,-1.68 0.89,-1.97 1.33,-1.33 0.96,-0.57 1.34,-0.49 1.32,-0.13 3.46,0.52 7.21,1.77 3.7,-0.46 0.11,-0.3 1.14,-0.62 2.16,-0.37 2.89,0.29 2.8,0.82 6.48,0.85 0.63,0.47 -0.05,1.23 -0.7,0.74 -0.68,1.5 -0.36,2.65 -0.86,3.3 -1.29,0.68 -0.35,0.69 0.23,1.19 -1.98,2.579996 -1.39,3.5 -0.49,0.45 z m -47.21,-0.17 -0.75,-0.51 1.1,-2.25 -0.09,-1.79 0.25,-0.21 2.33,-0.479996 0.9,-0.86 0.15,-0.5 -0.2,-2.34 0.86,-2.58 1.26,-1.49 2.29,-1.47 2.87,-0.2 0.72,2.36 -1.1,2.19 -0.85,3.04 -1.1,0.67 -1.34,2.029996 -0.78,0.72 -4.94,3.31 -1.58,0.36 z m 28.48,-22.899996 -1.03,-0.25 -2.45,0.08 -0.79,-0.16 -0.29,-0.26 -0.38,-1.09 0.01,-1.24 1.51,-0.42 1.89,0.04 2.19,-1.29 4.81,-0.6 0.77,0.26 0.68,0.68 -0.18,1.02 -2.56,1.39 -1.78,2.48 -1.1,0.5 -1.3,-1.14 z m 4.79,0 1.86,-1.2 1.98,0.03 1.65,0.62 0.53,0.99 0.05,0.62 -0.88,0.77 -2.85,0.28 -1.17,0.32 -2.26,-0.89 -0.2,-0.53 1.29,-1.01 z m -16.98,4.39 -0.5,-0.26 -0.61,0.04 -1.54,-0.69 0.21,-1.16 0.64,-0.92 1.92,-0.4 2.36,-0.9 1.32,0.08 0.8,0.68 0.09,0.13 -1.93,1.61 -1.07,0.34 -1.69,1.45 z m 9.42,-9.69 -0.82,-0.3 -0.17,-1.66 0.15,-0.6 1.17,-1.31 2.45,-0.92 0.25,0.12 0.53,0.68 0.04,0.89 -1.95,1.99 -1.65,1.11 z m -13.83,20.22 -0.14,-0.41 0.19,-0.93 1.04,-2.81 2.59,-1.69 0.72,-0.28 0.69,0.14 -0.16,1.79 -1.56,0.44 -1.62,2.19 -1.75,1.56 z m 10.91,-17.57 -1.19,-0.31 -0.3,-0.48 0.88,-0.96 0.71,-3.95 0.89,-1.23 0.29,0.13 0.07,0.32 -0.02,2.48 0.6,1.87 -0.32,0.88 -1.03,0.4 -0.58,0.85 z m -14.81,10.19 -0.27,-0.19 0.12,-0.61 0.55,-0.36 1.19,-1.71 0.76,-1.54 0.73,-0.66 1.45,-0.54 -0.2,1.49 -0.4,1 -1.72,1.66 -2.21,1.46 z m 13.87,-7.03 -0.6,-0.15 -0.84,-0.71 -0.96,-1.64 -0.05,-0.38 0.23,-0.29 0.81,-0.58 1.85,0.84 0.29,0.43 0.24,2.09 -0.97,0.39 z m -5.38,30.559996 -0.65,-0.11 -0.88,-0.52 -0.69,0.46 -0.75,-0.28 -1.68,-1.74 0,-0.61 1.28,-0.01 3.06,1.32 0.31,1.49 z m -21.15,-5.54 0.04,-1.03 -0.2,-0.3 0.6,-0.99 2.36,-0.88 0.78,0.38 0.87,0.86 -0.29,0.35 -1.03,0.47 -2.54,0.41 -0.59,0.73 z m 12.7,-6.69 -0.18,-0.03 0.01,-0.35 0.54,-0.939996 1.79,-1.62 0.42,-1.24 0.05,-1.3 0.24,-0.3 0.32,0.44 0,1.51 -0.89,2.73 -0.62,0.649996 -1.68,0.45 z m 6.3,-9.899996 1.65,-2.96 0.88,-0.21 0.71,0.19 0.27,0.87 -0.58,0.71 -2.93,1.4 z m 31.42,18.969996 -0.84,-0.35 -0.34,-1.06 1.04,-1.72 1.07,-0.33 0.19,0.1 -0.02,0.74 -0.74,2.24 -0.36,0.38 z m -33.48,-19.469996 -0.54,-0.2 0.32,-2.04 1.33,-1.81 0.23,0.04 1.29,0.88 -0.01,0.25 -1.55,0.64 -1.07,2.24 z m 2.23,5.03 0.72,0.03 -0.4,0.45 -0.94,0.31 -0.11,1.12 -0.79,0.71 -1.69,0.84 -0.16,-0.18 0.27,-0.83 0.47,-0.63 1.73,-1.67 0.9,-0.15 z m -22.56,10.209996 -0.55,-0.19 -0.07,-0.35 0.43,-0.4 3.56,-1.6 0.54,0.7 -0.01,0.2 -1.4,0.73 -2.5,0.91 z m 63.53,-4.78 -1.03,-0.19 -0.82,-0.79 0.87,-1.249996 1.34,-0.01 0.19,1.19 -0.1,0.589996 -0.45,0.46 z m -37.25,-18.899996 -2.36,0.7 -0.59,0.01 -0.18,-0.21 1.03,-1.04 1.04,-0.51 1.04,0.17 0.44,0.34 0.15,0.23 -0.15,0.21 -0.42,0.1 z m -5.27,8.59 -0.08,-0.76 0.25,-0.5 2.48,-1.46 -0.9,2 -0.81,0.63 -0.94,0.09 z m 2.14,4.53 -0.45,-0.12 -0.07,-0.23 0.78,-1.5 1.19,0.02 -0.12,1.35 -1.33,0.48 z m 28.04,15.829996 -0.28,-0.23 0.9,-1.6 0.68,-0.4 0.23,0.75 0.51,0.37 -0.26,0.52 -0.43,0.34 -0.63,-0.18 -0.72,0.43 z m -26.66,-23.319996 -0.89,-0.07 0.02,-0.19 2.36,-1.84 0.04,0.96 -0.23,0.63 -0.25,0.34 -1.05,0.17 z m 67.46,10.22 -0.38,-0.53 0.19,-0.76 1.02,-0.91 0.25,0.15 0.23,1.75 -1.31,0.3 z" 
                fill="rgb(151, 144, 238)" 
                stroke="white" 
                stroke-width=".7px"
                title="Pará" 
                id="BR-PA" 
            />
        </svg>