<svg xmlns="http://www.w3.org/2000/svg" viewBox="509.5925699999998 195.14114000000004 102.52999999999986 34.76999999999995" width="102.52999999999986" height="34.76999999999995">
            <path 
                d="m 558.54257,227.45114 -1.22,-3.04 -0.01,-0.94 -2.11,-0.86 -0.5,-0.37 -0.45,-0.83 0.61,-0.89 -0.02,-0.62 -0.45,-0.32 -1,0.01 -0.43,0.44 -0.29,1.74 -0.43,0.15 -0.39,-0.26 -0.54,-1.65 -1.58,-1.15 -2.99,-0.4 -2.36,-0.77 -1.35,-0.81 -0.83,-1.44 -1.49,-0.56 -0.59,0.11 -2.53,1.46 -1.65,0.44 -0.77,2.05 -2.23,0.45 -0.29,0.25 0.25,1.36 -0.17,0.59 -1.1,1.24 -2.39,1.03 -0.64,-0.06 -0.77,-0.53 -0.76,0.17 -0.5,0.87 -0.77,3.57 -2.87,0.88 -0.82,0.92 -0.96,0.23 -1.84,-0.62 0.92,-1.68 -0.26,-2 -2.21,-0.91 -0.72,-1.94 0.06,-2.73 -0.44,-0.51 -2.81,-1.38 -2.2,-0.29 -1.16,0.26 -0.9,-0.4 0,0 2.62,-1.27 1.97,-1.71 0.54,-0.87 2.29,-1.33 0.97,-0.28 3.89,-3.87 0.74,-1.76 0.06,-2.27 -0.29,-0.54 -1.62,-1.58 0.07,-2.19 -0.6,-1.13 -0.06,-0.95 0.11,-0.45 0.52,-0.33 1.79,-0.16 0,0 4.93,0.2 0.89,0.24 1.63,-0.19 2.14,-0.8 1.29,-0.1 3.08,0.42 2.85,1.9 1.83,0.83 0.46,0.99 1.01,1.07 1.36,0.48 0.78,0.57 0.63,1.64 1.65,-0.05 1.54,-2.29 1.07,-0.83 1.59,-0.49 0,0 0.4,0.09 1.4,1.91 0.99,0.33 1.51,-0.32 0.93,-0.73 0.38,0.08 0.63,1.24 -0.05,0.68 0.77,0.33 2.63,-0.97 1.63,-0.23 1.52,-1.64 2.7,-1.88 1.05,-0.31 1.48,-0.87 0.93,-1.51 2.22,-1.26 1.48,-0.41 3.5,1.92 0.5,1.39 -0.11,0.3 -3,1.07 -0.37,0.78 0.04,0.47 0.72,1.87 -0.17,0.43 -2.53,2.64 -0.04,0.45 1.51,-0.25 0.44,-0.29 1.14,0.32 0.18,0.3 -0.24,0.49 0.35,2.24 0.95,0.94 1.6,0.79 1.65,-0.84 1.34,-0.16 1.78,-1.53 0.4,-0.48 -0.01,-0.54 -0.39,-0.73 0.54,-0.76 0.89,-0.69 1.82,-0.1 0.55,-0.64 1.61,-0.88 3.88,0.26 2.18,-0.29 0.8,-0.53 0,-0.6 1.14,0.02 2.01,-0.45 1.9,-1.03 0.45,-1.8 1.48,-1.28 2.31,-1.07 2.65,0.21 0.82,0.26 2.5,2.06 0,0 0.88,0.23 0.55,1.22 -1.27,1.72 -0.11,0.55 0.01,0.48 0.7,0.37 0.27,0.5 0.19,1.06 -1.96,6.38 -3.25,8.95 0,0 -0.27,-0.21 -2.9,-0.27 -1.92,-0.81 -1.47,0.19 -2.56,1.29 -2.24,-0.85 -2,0.24 -1.55,1.24 -0.12,0.45 -2.18,2.29 -1.81,1.11 -1.16,-0.05 -1.86,1.06 -1.17,0.11 -3.14,-0.29 -2.5,0.65 -1.91,-0.48 -1.78,-1.05 -1.9,-2.12 -2.55,-2.02 -1.08,0.12 -1.67,-0.3 -1,-1.22 -0.82,0.6 -0.09,0.69 -2.38,3.29 -2.17,0.76 -0.64,1.09 z" 
                fill="rgb(151, 144, 238)" 
                stroke="white" 
                stroke-width=".7px"
                title="Pernambuco" 
                id="BR-PE" 
            />
        </svg>