<svg xmlns="http://www.w3.org/2000/svg" viewBox="437.6725699999999 125.03114000000005 86.87000000000006 127.04999999999998" width="86.87000000000006" height="127.04999999999998">
            <path 
                d="m 505.96257,127.17114 1.31,0.12 0.69,-0.23 2.24,0.51 0.99,0.85 0.32,0.6 0,0 -0.11,0.8 -1.09,1.85 -1.58,1.97 -0.18,1.46 0.29,1.29 1.8,4.72 3.15,6.42 0.44,1.73 1.36,1.59 -0.02,0.76 -0.74,1.36 0.79,3.87 -0.48,1.6 1,2.01 0.6,2.99 -0.59,1.58 -0.8,0.58 0.92,0.69 0.11,0.38 0.94,8.16 -0.24,0.45 0.76,2.57 1.05,5.2 1.01,2.67 1.31,0.65 2.56,0.47 0.77,1.16 -0.01,0.69 -1.5,2.25 -1.14,3.11 0.08,0.97 0.68,0.68 -0.06,1.32 0,0 -1.79,0.16 -0.52,0.33 -0.11,0.45 0.06,0.95 0.6,1.13 -0.07,2.19 1.62,1.58 0.29,0.54 -0.06,2.27 -0.74,1.76 -3.89,3.87 -0.97,0.28 -2.29,1.33 -0.54,0.87 -1.97,1.71 -2.62,1.27 0,0 -0.45,1.16 -1.5,2.3 -1.05,0.67 -0.79,-0.18 -2,0.38 0.11,2.4 -1.86,1.8 -0.32,-0.05 -0.62,-0.62 -2.16,-0.01 -0.82,0.98 -0.77,0.36 -2.73,0.34 -1.51,1.34 -0.82,1.22 -1.7,0.1 -1.48,0.64 -3,0.11 -0.82,-0.28 -0.19,-0.28 0.13,-0.66 -1.71,-0.98 -1.33,-0.39 -1.39,0.55 -2.13,0.43 -0.32,-0.18 -0.41,-0.93 -1.5,-0.46 -1.95,0.02 -3.24,1.65 -0.06,0.93 2.24,4.44 0.12,1.15 -0.29,2.57 -0.25,0.91 -0.72,0.86 -2.95,5.05 -2.97,2.42 -1.35,0.42 -1.48,-0.53 -1.34,-0.17 -2.2,0.75 -1.17,0.89 -0.67,0.87 -1.14,0.38 -0.75,1.45 -0.33,0.21 -2.11,-0.18 -1.8,0.52 -4.18,-1.85 -1.77,-2.49 -0.53,-2.21 -0.66,-1.04 -1.44,-1.34 -2.33,0.02 0,0 -2.94,-0.21 0,0 0.05,-1.92 0.26,-1.06 1.15,-2.45 0.13,-6.36 0.76,-1.4 0.03,-0.51 -1.73,-3.06 -0.47,-3.19 -0.7,-1.94 0.73,-2 1.7,-1.4 1.2,-2.48 0.13,-1.51 0.34,-0.83 0.3,-0.21 1.44,-2.74 0.63,-2.32 0.39,-2.97 0.98,-2.98 2.13,-1.95 2.72,-0.76 2.61,-0.31 1.07,-0.37 1.7,-1.53 1.05,-0.04 1.34,-0.52 2.86,-2.57 2.34,-0.91 2.01,-2 0.63,-0.87 0,-0.46 1.9,-1.92 0.5,-0.22 0.84,-0.24 0.23,0.3 1.12,-0.26 1,-0.6 1.46,-0.19 1.01,0.21 2.51,1.82 1.51,-0.1 2.44,-0.86 0.83,-0.04 0.65,0.28 2.28,-0.29 1.21,-1.31 0.5,-1.46 0.12,-1.21 0.29,-0.44 0.39,-2.2 -0.13,-0.85 -0.17,-0.5 -1.61,-0.91 -1.78,-2.03 -0.51,-2.3 -0.11,-2.11 0.17,-2.48 4.1,-4.43 0.21,-0.55 0.1,-2.43 -0.55,-2.98 -1.58,-2.8 1.14,-2.87 0.28,-1.47 -0.38,-1.27 -1.23,-0.84 -0.35,-1.92 0.77,-1.05 0.64,-0.17 0.82,-1.98 1.89,-1.85 0.88,-1.83 -0.04,-1.79 2.92,-3.41 0.81,0.16 3.31,-0.46 4.13,-3.97 1.79,-2.27 0.39,-1.53 -0.64,-0.53 -0.22,-0.72 0.46,-1.44 0,0 0.73,0.12 1.47,0.87 0.51,0.51 -0.13,0.31 z" 
                fill="rgb(151, 144, 238)" 
                stroke="white" 
                stroke-width=".7px"
                title="Piauí" 
                id="BR-PI" 
            />
        </svg>