<svg xmlns="http://www.w3.org/2000/svg" viewBox="455.0925700000001 411.6411400000002 60.88999999999993 43.13999999999993" width="60.88999999999993" height="43.13999999999993">
            <path 
                d="m 468.61257,450.54114 -0.07,-0.78 0.38,-0.27 3.19,0.22 2.59,-0.59 -2.53,-1.55 -1.4,-0.5 -2.81,0.68 -1.36,1.6 -1.03,0.32 -0.7,-0.05 -1.35,-2.15 -0.48,0 -0.9,0.42 -0.96,1.06 -3.15,0.8 -0.34,0.91 -0.19,1.9 2.19,0.13 1.07,1.01 -1.15,1.08 -0.94,-0.17 -1.42,0.17 0,0 -0.48,-0.26 -1.63,-1.73 -0.05,-0.41 1.09,-3.5 1.09,-1.15 2.35,-1.01 0.5,0.15 2.77,-0.36 1.5,-0.71 1.65,-2.15 -0.75,-1.64 -1.7,-0.01 -3.15,0.53 -1.77,-0.39 -1.23,-1.59 -0.56,-1.17 -1.27,-0.54 0,0 0.68,-0.49 2.42,-0.74 2.91,-1.34 2.58,-0.17 0.5,0.27 1.72,-0.77 1.05,-0.77 4.09,-1.79 0.52,-0.07 0.36,0.31 3.2,-0.07 1.25,-0.17 1.63,-0.94 0.57,-0.06 2.53,0.27 0.49,0.17 -0.02,0.47 1.38,-0.2 9.51,-4.53 2.53,-0.99 0.21,-0.52 -0.28,-0.61 -1.44,-0.13 0.09,-0.75 1.89,-3.71 2.36,-6.04 -0.73,-0.71 0.56,-0.49 1.24,-0.27 2.53,-2.36 0,0 1.93,0.76 0.67,4.71 2.5,1.13 4.33,1.01 2.99,-0.37 1.62,1.06 0,0 -0.08,1.27 -0.94,1.61 -0.22,2.13 1.14,6.78 -0.5,0.68 -3.08,1.75 -5.97,1.94 -2.83,1.72 -3.5,3.69 -0.11,1.66 0.31,1.19 -0.19,1.62 -0.73,1.48 -1.82,0.51 -6.55,-0.17 -5.79,0.7 -2.39,-0.46 -0.49,-0.38 -0.06,-0.68 1.03,-1.48 0.67,-1.45 -0.09,-0.62 -0.78,-0.18 -2.79,1.15 -0.26,0.69 0.31,0.79 1.38,1.17 0.25,0.97 -0.59,0.52 -1.63,0.51 -1.57,-0.03 -8.04,1.07 -1.46,0.45 z m -5.11,1.99 -0.67,-0.97 2.11,-1.55 1.86,0.94 0.43,0.7 -2.46,0.5 -0.41,-0.35 -0.47,0 -0.39,0.73 z" 
                fill="rgb(151, 144, 238)" 
                stroke="white" 
                stroke-width=".7px"
                title="Rio de Janeiro" 
                id="BR-RJ" 
            />
        </svg>