<svg xmlns="http://www.w3.org/2000/svg" viewBox="256.17257000000006 518.74114 123.43000000000012 120.05000000000007" width="123.43000000000012" height="120.05000000000007">
            <path 
                d="m 322.25257,638.78114 -0.36,0.01 -1.94,-1.11 -0.2,-0.46 0.52,-4.27 -0.46,-4.25 0.15,-1.07 0.63,-1.24 2.84,-2.38 0.83,-1.56 2.3,-2.56 -1.46,-1.65 -1.07,-0.62 -2.25,-0.6 -2.32,-2.25 -1.21,-1.62 -0.1,-1.59 -0.43,-1.18 -1.23,-2.03 -2.06,-2.24 -0.67,-0.59 -2.39,-1.21 -1.45,0.21 -1.9,-1.51 -1.52,-1.63 -1.25,-0.78 -0.14,-1.7 -1.9,-2.16 -3.32,-0.46 -0.92,-0.47 -1.73,-1.66 -1.76,0.13 -2.17,-1.38 -1.91,-3.71 -1.11,-1.49 -2.53,-2.12 -0.7,0.08 -0.67,1.79 -2.59,2.24 -2.67,0.12 0.1,-2.86 0.4,-1.28 -0.39,-1 -3.65,-4.29 -2.37,-1.77 -2.18,-2.06 -1.75,-2.11 -2.69,-2.21 -1.9,-0.14 -2.15,0.21 -1.14,1.36 -0.06,0.96 -1.03,0.97 -1.11,0.02 -0.58,-0.48 -3.16,0.14 -0.65,-0.48 -0.16,-0.91 -0.49,-0.22 0.85,-0.22 1.04,-0.72 2.52,-2.77 0.11,-1.84 0.6,-1.25 0.82,-0.45 1.29,-0.07 0.64,-0.26 0.92,-1 5.45,-6.48 0.63,-1.42 0.17,-1.11 0.82,-1.07 1.2,-0.85 1.37,-0.41 1.96,-4.22 0.1,-0.61 0.31,-0.37 1.64,-0.86 1.63,-1.8 0.85,-1.15 0.51,-1.29 1.34,-2.1 0.93,-0.29 1.57,0.18 0.55,0.79 0.47,-1.28 -0.21,-0.58 -1.35,-0.82 -0.05,-0.36 0.35,-0.33 1.08,-0.38 0.82,-0.96 2.79,-0.95 1.05,-1.07 0.1,-0.92 0.82,-0.91 2.21,-1.15 2.47,-0.4 1.77,-1.81 0.15,-1.06 1.32,-2.36 0.33,-0.04 0.05,0.36 0.29,0.2 1.33,-0.17 2.44,-1.13 2.68,-0.59 1.21,-0.57 2.1,-2.35 0.5,0.01 0.67,-0.39 1.01,-1.35 2.31,-0.73 0.3,0.38 0,0 3.52,0.39 3.26,-1.15 0.56,-0.81 1.35,0.58 -0.15,0.92 3.08,-0.03 1.63,0.99 2.56,-0.37 1.92,1.15 2.58,-0.41 1.54,0.18 2.8,-0.16 2.26,0.92 2.48,1.4 1,2.44 1.59,0.19 0.09,-0.48 1.81,-0.35 5.56,3.54 1.37,1.55 0.71,-0.03 1.56,0.98 3.03,3.49 1.64,2.21 0.48,1.48 2.17,2.66 1.17,0.55 6.69,1.06 2.11,-0.4 3.35,0.34 0.88,2.34 -2.08,1.58 -1.27,0.41 -0.73,1.86 0.22,2.19 -0.38,1.56 -0.52,1.3 -1.18,0.2 -1.29,1.69 -0.03,1.41 1.8,1.17 0.27,-0.2 -0.28,-0.97 0.01,-0.96 1.49,-0.82 1.58,0.64 0.73,0.91 1.17,0.85 0.45,-0.03 0,0 -1.4,1.73 -3.9,7.04 -4.21,11.6 -6.3,10.48 -5.44,6.66 -6.51,5.96 -6.09,3.68 -3.1,4.31 -0.18,-0.43 0.65,-1.58 0.34,-2.18 -1.18,-1.71 0.1,-0.42 0.93,-0.17 1.01,0.4 0.56,0.58 1.02,0.04 2.58,-1.41 0.82,-0.68 2.85,-3.71 0.75,-0.69 0.45,0.19 1.02,-0.19 1.05,-0.84 0.93,-1.27 0.37,-1.48 0.18,-0.93 -0.23,-2.1 0.2,-1.37 1.57,-0.07 0.74,0.3 0.27,0.83 0.35,-0.26 -0.29,-1.4 0.51,-2.07 0.48,-0.57 2.74,-1.59 0.73,-1.08 0.47,-2.75 -0.21,-2.28 0.56,-0.68 0.5,0.8 0.37,0.03 0.43,-0.42 0.47,-3.08 -0.1,-0.44 -0.95,-1.22 -0.67,-0.03 -0.26,0.69 0.17,0.39 -0.14,0.57 -0.35,0.2 -1.51,-0.02 -2.01,0.4 -0.34,1.61 -0.53,0.05 -0.81,-0.44 0.1,-1.71 -0.82,-0.89 -1.04,0.33 -0.6,-0.48 -0.73,-1.26 -0.4,-1.45 0.12,-0.57 -0.64,-0.69 -0.61,2.71 0.44,2.25 1.25,2.11 -0.57,0.81 -0.74,2.54 0.38,3.03 -0.18,0.77 -0.48,-0.37 0.26,-0.24 -0.03,-0.71 -0.47,-1.28 -0.45,-0.39 -0.53,0.66 -0.03,1.37 -1.41,3.27 -0.05,1.89 0.22,0.52 -0.72,0.7 -1.61,0.64 -0.61,1.58 -4.09,1.57 -0.72,0.53 -0.53,1.59 -0.1,2.27 -0.97,2.27 -2.36,1.3 -0.11,1.76 0.48,0.83 0.25,1.02 -0.95,0.56 -0.25,1.51 0.43,0.6 0.68,-0.14 1.3,0.63 0.15,0.91 -2.13,1.65 -2.32,4.52 -1.93,6.88 -2.01,4.49 -1.68,2.52 -7.79,7.53 z" 
                fill="rgb(151, 144, 238)" 
                stroke="white" 
                stroke-width=".7px"
                title="Rio Grande do Sul" 
                id="BR-RS" 
            />
        </svg>