<svg xmlns="http://www.w3.org/2000/svg" viewBox="112.23257000000001 206.5611400000001 108.91000000000014 89.74999999999991" width="108.91000000000014" height="89.74999999999991">
            <path 
                d="m 187.58257,291.21114 -1.29,-1.45 -0.44,-1.88 -1.56,-0.52 -0.86,0.32 -1.81,0.08 -4.07,-1.81 -0.01,-0.4 -0.66,-0.61 -1.27,0.59 -1.98,-1.68 -1.52,-0.97 -0.86,-1.46 -0.28,-1.39 -1.04,-0.39 -1.77,1.12 -1.22,-0.03 -1.41,-0.8 -0.87,-1.33 -3.13,-1.58 -1.96,-0.17 -1.14,0.54 -0.9,0.85 -1.43,-0.17 -0.31,-0.3 -2.14,-0.51 -3.06,-0.28 -0.76,-0.43 -1.18,-1.19 -0.3,-1.97 -1.58,-0.49 -1.89,-0.97 -0.82,-1.72 -0.29,-0.2 -2.72,-0.28 -0.38,-0.35 -0.84,-3.71 -0.88,-0.89 -0.48,1.16 -0.66,-0.32 -0.27,-0.64 0.62,-1.53 -0.84,-1.52 -1.36,-0.39 -1.26,-3.47 -0.17,-1.66 1.55,-2.91 -0.21,-1.66 -1.16,-1.97 -0.75,-2.16 -0.06,-2.29 0.62,-0.5 0.38,-1.37 1.04,-1.05 0.36,-1.47 -0.24,-1.49 -0.42,-0.89 -0.09,-1.53 0.54,-1.65 -1.17,-2.18 -1.02,-0.38 -1.09,0.98 -0.06,0.51 -0.84,0.96 -0.57,0 -2.18,-1.02 -5.18,0.08 -5.61,1.78 -1.69,-0.01 -1.48,0.48 0,0 -2.97,-1.26 0,0 3.26,-2.56 1.92,-0.58 1.55,-1.81 0.15,-0.56 -0.16,-1.29 3.96,0.26 2.87,-0.33 0.72,0.37 2.31,2.33 0.37,-0.02 1.22,-0.79 0.13,-0.72 0.41,-0.53 1.08,-0.5 0.77,0.13 1.37,-0.39 1.3,-1.21 1.84,-1.02 0.38,0.09 0.64,2.26 0.68,0.53 0.68,-0.08 2.54,-3.16 -0.26,-1.75 0.53,-0.84 1.75,-1.26 0.46,0.02 0.84,0.55 1.79,0.1 1.2,-1.07 2.13,-0.38 3.87,0.46 -0.24,-1.46 0.11,-1.81 2.06,-1.21 0.81,-1.15 0.36,-1.02 -0.17,-0.45 -0.9,-0.7 0.05,-0.67 1.19,-1.59 2.48,-0.53 0.26,-0.22 -0.09,-1.17 1.72,-0.5 1.38,-2.56 10.79,-0.06 2.15,1.13 0.45,0.49 0.8,1.91 1.33,1.27 2.54,0.98 1.25,3.27 0.46,0.21 0.98,-0.13 0.62,0.2 0.68,2.88 3.24,1.48 0.68,-0.19 0.54,-1.74 1.92,-1.08 1.39,0.28 0.36,0.38 -0.04,0.7 0,0 1.4,0.97 0.6,1.24 -0.76,1.42 -1.29,4.99 0.06,0.35 0.78,0.47 0.26,0.61 0.15,1.39 0.83,2.27 -0.94,1.67 0.38,1.93 -1,3.52 -0.03,0.8 0.27,1.76 1.5,2.75 -0.9,9 17.16,0.05 -0.24,0.56 1.22,1.11 3.5,-0.09 1.11,0.11 1.07,0.43 1.41,3.59 -0.17,0.75 -1.4,1.75 -1.36,1.08 -0.14,1.32 0.43,3.25 0.58,0.51 0.9,-0.03 1.53,3.34 -0.04,2.05 0.58,1.49 -0.07,1.71 -0.56,2.24 -1.66,2.01 -0.52,2.25 -0.58,0.84 -0.43,0.41 -1.64,0.53 -0.93,1.08 -1.43,3.78 -0.52,2.45 -4.11,2.57 -1.47,1.43 0,0 -0.74,-0.04 -2.59,-1.55 -1.27,-1.43 -7.08,0.96 -1.32,-0.43 -0.25,-0.3 -3.38,0.66 -0.48,-0.16 -0.52,-1.35 z" 
                fill="rgb(151, 144, 238)" 
                stroke="white" 
                stroke-width=".7px"
                title="Rondônia" 
                id="BR-RO" 
            />
        </svg>