<svg xmlns="http://www.w3.org/2000/svg" viewBox="143.89256999999992 0.2611441999999602 92.58000000000007 103.97999580000001" width="92.58000000000007" height="103.97999580000001">
            <path 
                d="m 234.87257,61.661144 1.6,16.97 0,0 -18.49,-0.07 0.03,0.68 -2.33,3.26 -1.66,3.03 -0.07,1.13 -1.15,2.64 -0.11,0.66 0.23,0.73 1.14,1.41 -0.02,0.53 -0.42,0.39 -2.03,0.55 -1.41,1.41 -1.25,0.46 -1.82,-0.23 -0.92,-2.51 -1.87,-2.04 -2.83,-0.93 -1.6,0.06 -0.55,0.89 -2.09,0.71 -1.28,0.69 -1.02,1.26 -0.82,2.97 0.37,1.8 -0.25,1.73 -0.75,2.289996 0.44,2.11 -2.36,-1.04 -1.34,0.42 -0.53,-0.07 -1.04,-2.04 -1.48,-1.649996 -1.96,-1.31 -0.52,-0.04 -5.01,-4.42 0.14,-1.14 1.84,0.33 1.14,-1.32 0.06,-0.58 -1.13,-4.33 -0.58,-0.9 -1.22,-0.84 -0.88,-2.17 -0.29,-4.98 0.57,-0.96 0.77,-3.04 -0.66,-1.58 -0.36,-1.59 1.62,-1.46 -0.05,-0.45 -0.87,-1.12 -0.19,-2.26 -1.66,-4.76 -2.73,-3.74 0.71,-1.5 0.91,-3.32 -0.49,-0.66 -1.95,-0.95 -1.36,-0.11 -0.88,0.21 -0.97,-0.37 -1.21,-1.17 -0.06,-0.96 -0.63,-0.11 -1.13,0.42 -0.61,-0.01 -0.75,-0.34 -0.72,-0.78 0,0 0.3,-0.46 0.23,-2.28 -0.3,-0.22 -3.37,-0.23 -3.75,0.14 -3.31,-0.7 -0.2,-0.6 0.8,-1.76 0.12,-1.48 -0.73,-1.77 -1.94,-3.54 -0.73,-2.06 -0.47,-3.72 0.79,-1.48 -0.08,-0.96 -1.84,-2 -2.16,-1.06 -2.81,-2.78 -1.06,-1.81 -0.29,-0.96 -1.14,-0.65 -0.25,-0.39 0.03,-0.84 0.29,-0.33 0.9,0.07 1.12,0.66 0.94,1.73 0.61,0.09 3.39,-0.5 1.35,0.1 1.91,0.59 0.61,1.2 0.55,1.93 0.54,0.35 0.96,-0.08 0.74,-0.65 0.95,-0.4 3.18,0.16 0.47,0.05 1.31,1.21 0.6,0.15 0.52,-0.14 0.61,-1.56 1.31,0.14 1.45,0.93 3.93,4.57 1.05,0.57 0.71,0.11 1.51,-0.68 0.74,-1.13 0.1,-0.84 -0.83,-2.76 0.36,-1.74 0.46,-0.28 1.93,-0.05 1.01,-1.1 1.55,-1.09 0.75,0.05 3.9,1.34 0.59,-0.17 0.8,-0.72 1.03,-0.3 1.13,0.35 1.03,-0.21 1.34,-1.28 1,-0.25 1.15,0.23 1.11,-0.07 0.68,-0.85 0.05,-1.35 3.03,-1.81 2.33,0.19 2.76,-0.39 0.89,-1.13 0.09,-0.71 0.59,-1.1199998 0.75,-0.13 1.85,-0.9 1.1,-1.04 1.11,-1.71 -1.2,-3.56 -1.17,-0.36 0.64,-0.18 1.43,0.07 0.8,0.32 3.57,-0.1 1.06,-0.95 0.74,-0.22 1.37,0.42 0.53,1.31 1.04,0.8 0.48,1.37 -0.67,4.9 -0.72,1.3799998 -1.25,0.7 0.06,0.83 1.61,0.41 1.62,-0.22 2.35,0.81 1.82,1.1 -0.88,1.43 -0.01,1.15 2.34,3.42 0.2,1.55 -1.51,2.92 -1.88,1.41 -0.72,1.5 0.27,0.39 0.06,2.17 -1.47,2.41 -0.9,2.77 -0.31,2.57 -0.09,2.67 0.98,1.87 0.51,1.76 -0.01,1.4 1.57,1.03 0.9,0.2 0.13,0.68 -0.46,5.15 0.12,0.74 1.81,0.29 -0.66,1.17 0.46,0.5 2.15,0.74 1.46,1.92 2.66,2.74 z" 
                fill="rgb(151, 144, 238)" 
                stroke="white" 
                stroke-width=".7px"
                title="Roraima" 
                id="BR-RR" 
            />
        </svg>