<svg xmlns="http://www.w3.org/2000/svg" viewBox="314.99256999999983 499.60114000000004 85.35000000000025 59.25000000000006" width="85.35000000000025" height="59.25000000000006">
            <path 
                d="m 379.56257,558.27114 -0.45,0.03 -1.17,-0.85 -0.73,-0.92 -1.59,-0.63 -1.48,0.82 -0.01,0.96 0.28,0.97 -0.27,0.2 -1.8,-1.17 0.04,-1.41 1.28,-1.69 1.18,-0.2 0.53,-1.31 0.37,-1.55 -0.22,-2.19 0.73,-1.86 1.27,-0.42 2.08,-1.58 -0.88,-2.34 -3.35,-0.34 -2.11,0.4 -6.69,-1.06 -1.16,-0.54 -2.17,-2.66 -0.49,-1.48 -1.63,-2.21 -3.03,-3.49 -1.57,-0.99 -0.71,0.03 -1.37,-1.55 -5.56,-3.54 -1.81,0.34 -0.09,0.48 -1.6,-0.19 -1,-2.44 -2.47,-1.39 -2.27,-0.93 -2.79,0.16 -1.54,-0.18 -2.59,0.41 -1.91,-1.15 -2.57,0.36 -1.63,-0.98 -3.08,0.03 0.15,-0.93 -1.35,-0.58 -0.56,0.81 -3.26,1.16 -3.52,-0.39 0,0 1.45,-2.93 0.73,-2.09 -0.58,-3.25 0.41,-3.21 -0.04,-2.55 0.96,-1.75 0,0 3.63,0.02 0.71,-0.38 0.53,0.01 1.06,0.24 0.31,0.51 2.03,1.41 2.68,0.03 2.34,-0.58 5.29,1.68 4.26,0.36 1.02,0.63 0.17,0.41 1.57,1.18 3.77,0.42 4.25,-0.13 1.33,1.9 0.18,-0.5 0.74,-0.38 0.92,-0.02 0.87,-0.86 -0.85,-2.99 0.69,-1.58 0.72,-0.78 2,-1.14 3.57,0.4 1.87,-0.97 0.73,-0.87 0.59,-1.48 1.53,-0.65 1.11,-0.14 1.42,0.76 0.81,0.03 2.33,-0.17 2.84,-0.73 0.75,0.01 1.04,0.4 3.12,2.6 1.23,0.62 1.44,0.16 3.35,-2.13 1.35,-1.43 1.56,-0.57 0.12,0.39 0.76,0.07 1.74,-0.23 0.33,-0.44 5.24,0.03 0,0 -0.39,1.32 0.51,1.65 -0.07,0.39 -1.5,1.14 -0.98,-0.48 -0.82,-2.53 -0.02,1.12 0.59,2.72 1.71,1.66 0.56,0.95 -1.01,2.29 -0.16,2.32 0.1,0.43 0.76,0.73 0.26,5.86 0.31,0.55 0.43,0.2 0.77,-0.51 0.35,0.72 0.1,0.87 -0.47,0.06 -0.43,-0.28 -1.19,0.63 -0.34,3.84 0.57,2.59 -0.57,0.75 0.31,1.93 0.91,1.88 -0.86,2.34 -0.52,4.01 -1.71,4.68 -0.34,-0.1 -0.36,-0.76 0.21,-0.97 -0.92,-1.18 -0.26,0.33 0.18,2.43 1.16,0.83 -0.92,1.66 -1.64,0.65 -4.13,3.04 -2.8,2.56 -3.75,4.44 -1.04,1.88 z m 17.88,-26.55 -0.15,-0.47 0.25,-1.75 0.76,-2.4 -0.4,-1.18 0.16,-1.02 1.4,-0.76 0.22,0.06 0.66,0.94 -0.54,2.56 -0.82,0.86 -0.59,1.22 0.2,1.17 -1.15,0.77 z m -0.45,-24.37 -1.87,-2.02 2.55,-2.44 0.25,0.04 0.65,1.05 -0.86,1.32 -0.72,2.05 z" 
                fill="rgb(151, 144, 238)" 
                stroke="white" 
                stroke-width=".7px"
                title="Santa Catarina" 
                id="BR-SC" 
            />
        </svg>