<svg xmlns="http://www.w3.org/2000/svg" viewBox="558.3925700000002 230.56113999999994 28.710000000000036 32.28000000000006" width="28.710000000000036" height="32.28000000000006">
            <path 
                d="m 570.20257,261.95114 -2.9,0.89 -1.55,-0.64 -0.54,-0.34 -0.48,-0.72 -1.92,-0.92 -0.6,-0.52 -0.12,-0.41 0.34,-0.39 0.13,-1.42 -0.15,-0.39 -1.43,-1.51 -0.52,-1.49 -1.09,-0.67 -0.96,-1.6 -0.02,-0.77 0.59,-1.58 0.32,-0.3 1.7,0.01 1.13,0.75 2.55,-0.99 0.69,-0.55 0.3,-0.58 -0.76,-2.75 0.08,-0.88 0.66,-1.62 0.08,-3.11 -0.75,-1.15 -1.99,-1.95 -1.27,-2.5 -0.22,-2.14 0.67,-1.15 0,0 6.46,2.98 3.68,0.95 5.42,3.07 1.3,2.45 1.76,1.45 1.66,0.79 0.46,0.03 3.59,2.23 0.6,1.31 0,0 -2.38,0.76 -4.57,2.94 -0.97,0.89 -1.55,2.21 -0.32,-0.02 0.11,-1.1 -1.05,-1.82 -0.99,0.16 0.34,1.16 1.24,0 0.23,0.24 -0.52,1.97 -1.27,2.09 -0.53,-0.35 -0.37,-0.67 -0.99,-0.16 0.2,0.68 1.13,0.62 -0.26,1.77 -0.86,1.15 -0.93,2.03 -0.78,0.15 -0.3,-0.46 0.48,-1.4 0.41,-0.13 0.31,-0.43 0.37,-1.04 -0.81,-0.37 0.1,0.68 -0.45,1.13 -0.48,0.5 -0.26,1.09 0.28,0.72 -0.26,0.52 z" 
                fill="rgb(151, 144, 238)" 
                stroke="white" 
                stroke-width=".7px"
                title="Sergipe" 
                id="BR-SE" 
            />
        </svg>