<svg xmlns="http://www.w3.org/2000/svg" viewBox="323.67940999999996 79.21169999999996 54.10999999999996 64.33000000000011" width="54.10999999999996" height="64.33000000000011">
            <path 
                d="m 363.62941,117.0217 1.04,-0.08 -0.69,0.82 0.41,1.36 -0.51,1.07 -1.66,-1.94 0.92,-0.08 -0.11,-1.2 0.6,0.05 z m -0.7,-4.24 0.89,0.08 0.42,0.66 -0.41,0.71 -0.5,-0.28 -1,0.67 0.46,1.46 -0.87,1.5 -0.68,0 -0.55,-0.03 -0.59,-0.31 -1.01,-0.21 -0.48,-0.36 0.35,-0.51 -1.4,-0.04 0.37,-0.59 -1.06,-0.77 -1.06,1.04 -0.05,-1.98 1.13,-0.2 0.09,0.84 1.68,-0.91 0.29,0.98 1.23,0.03 0.23,-1.08 1.64,0.06 0.88,-0.76 z m -9.92,-0.98 0.76,0.58 -0.25,2.1 -0.64,0.65 -0.42,-0.6 -0.48,0.83 -1.97,0.14 -0.49,-0.82 0.44,-0.94 2.02,-0.07 1,-1.04 0.03,-0.83 z m -2.95,-16.32 1.48,1.16 -0.18,1.92 -0.41,-0.67 -1.19,0.45 0.22,-0.4 -0.92,-0.56 1,-1.9 z m 9.88,-10.69 0.88,0.64 -0.65,2.39 -1.94,-0.57 0.05,-1.68 1.66,-0.78 z m -17.87,-1.16 3.26,4.8 4,1.46 -0.03,0.72 -1.01,0.64 0.2,0.85 -0.63,-0.04 -0.19,0.03 0.39,1.45 0.63,-0.17 1.33,1.08 1.14,-0.2 -0.84,0.73 -0.97,-0.2 -1.24,0.65 -1.84,0.35 -0.52,-0.48 0.09,1.74 0.69,0.68 1.2,-0.05 -0.12,0.37 -1.24,1.44 -0.75,0.92 0.2,-1.98 -0.7,-0.38 -0.48,1.02 -0.53,0.77 1.24,0.66 0.15,2.4 -0.88,-0.26 0.41,1.08 -0.6,0.03 -0.13,0.63 1.57,2.27 1.27,0.18 0.32,-0.96 2.55,-0.67 -0.19,1.31 -2.37,0.23 -0.54,0.85 -1.24,0.2 1.4,2.42 -0.54,0.93 1.01,3.51 1.46,2.04 -1.3,-0.13 0.52,-0.42 -1.11,-0.95 -0.95,0.9 -1.66,0.34 -1.38,-2.51 0.53,-1.05 -1.23,1.18 0.01,0.6 0.11,0.95 0.44,0.45 -0.09,1.82 1.38,1.4 0.46,-1.52 0.89,0.09 0.65,-0.9 1.66,0.28 0.23,1.03 0.62,0.12 0.44,-0.88 2.21,0.03 0.53,1.21 -1.14,1.84 1.81,-1.62 0.37,-0.08 1.87,1.87 1.16,-0.19 -0.3,-1.32 2.1,-0.35 1.25,1.49 0.41,0.41 0.94,1.57 1.47,-0.89 0.69,1.12 1.22,-1 2.25,1.33 1.36,2.22 0,0 -0.45,1.06 -2.59,0.74 -1.33,-1.09 -0.76,0.28 -0.07,1.88 -2.73,-0.31 -0.55,-0.86 -1.73,2.22 -0.81,2.68 -1.29,-0.05 -0.8,-0.77 -0.49,0.71 0.29,0.96 0.38,-0.4 0.94,0.98 0.97,2.03 -0.73,1.33 -2.34,-0.2 0.54,0.86 -0.63,0.5 -0.09,1.36 -2.61,-0.64 -0.09,1.36 -1.61,0.96 0,0 -1.89,1 -0.24,-0.43 -0.51,0.51 0.15,1.18 -0.65,0.57 -1.58,-1.47 -5.77,-13.3 -0.02,-1.26 0.98,-0.43 1.68,0.31 0.8,-0.64 1.24,0.4 0.23,1.21 -0.61,0.81 0.77,1.02 -0.27,1.62 1.09,0.38 0.74,4.16 1.08,0.2 -1.28,-3.88 0.9,0.35 0.83,0.23 1.72,-0.27 -3.39,-0.58 -0.61,-0.71 1.97,-0.58 1.39,-1.79 0.71,0.13 -0.14,0.92 2.39,-2.63 1,0.6 0.73,-0.37 0.21,0.76 1.09,-0.89 -0.94,-0.69 -0.69,0.72 -0.58,-0.17 -0.57,-0.2 -1.64,-1.99 -1.97,0.43 0.32,-0.49 -1.24,-0.8 1.29,-1.16 -0.72,-1.36 1.3,-0.27 1.11,0.67 0.44,-0.73 -1.51,-0.26 -0.71,-0.19 -1.65,0.71 -0.91,-0.61 -0.99,0.37 -1.88,2.19 -0.54,-0.33 -0.62,1.4 0.32,0.94 -1.49,-0.47 -0.25,-0.57 -0.38,1.1 -1.78,1.3 -1,0.06 -0.74,-4.9 -1.49,-3.39 -0.47,-3.38 -5,-8.68 -4.92,-7.06 0.27,-1.73 1.26,-0.66 1.34,-0.32 2.6,4.8 2.93,1.79 -0.48,1.78 0.43,0.23 1.04,0.96 1.28,-0.74 0.17,-0.65 -1.23,-0.62 0.44,-0.99 0.93,-0.43 -1.48,-3.78 0.87,-2.79 -1.4,-1.3 -0.33,0.68 -1.04,0.28 -1.24,-1.32 -0.43,0.49 -1.35,-0.11 -1.13,-0.74 0.64,-3.13 0.6,-0.37 2.3,1.06 2,-0.81 0.25,-1.03 0,0 2.15,-1.76 0.54,0.38 0.39,-1.41 2.02,-0.75 0.12,-1.34 2,-0.76 0.1,-1.34 1.32,-1.02 0,0 0.51,1.05 z m 29.76,-4.42 0.64,0.44 -0.35,1.48 0.64,-0.37 0.13,0.99 0.8,0.08 -0.82,0.48 0.15,1.1 0.34,0.07 2.66,1.48 -0.85,0.94 0.14,1.56 -0.68,0.33 0.8,1.59 0.74,-0.01 1.33,1.38 0.29,1.08 -1.08,1.67 -1.97,-0.87 0.22,-0.63 0.58,0.15 -0.24,-0.96 -1.09,0.55 -1.06,-0.2 0.24,-2.31 -1.45,0.38 -0.27,-0.78 -0.55,0.07 -1.88,-1.55 -0.5,0.68 -0.4,-1.12 -0.03,-1.28 0.71,0.13 0.42,0.86 0.83,0.01 -0.45,-1 0.18,-0.81 -0.49,-0.52 0.62,-0.39 -1.78,-0.56 0.19,-0.67 0.52,0.47 1.84,-0.69 -1.37,-1.16 0.07,-1.25 2.23,-0.84 z" 
                fill="rgb(151, 144, 238)" 
                stroke="white" 
                stroke-width=".7px"
                title="Auckland" 
                id="NZ-AUK" 
            />
        </svg>