<svg xmlns="http://www.w3.org/2000/svg" viewBox="387.93941000000007 143.27170000000012 89.46999999999991 88.97000000000014" width="89.46999999999991" height="88.97000000000014">
            <path 
                d="m 394.82941,148.0517 0.9,0.49 2.87,4.25 2.97,3.18 -0.36,0.44 -2.61,-2.4 -0.34,1.2 -1.67,-0.92 -0.09,-1.52 1.61,0.48 -3.42,-3.94 0.14,-1.26 z m 9.66,80.28 0.99,-0.93 0.92,-0.09 0.04,-1.37 -0.73,-1.07 0.84,-1.15 -0.88,-1.28 -0.18,-2.64 -1.06,-0.12 -0.33,0.94 -1.47,-0.24 0,0 -2.01,-2.46 0,0 -0.76,-1.6 0.66,0.01 -0.99,-0.97 0,0 -0.47,-1.17 0,0 0.51,-0.2 0.26,-2 4.02,1.13 1.61,-1.44 -3.28,-3.85 1.29,-2.39 0.04,-1.36 0.51,-0.2 -3.24,-1.44 -0.77,0.3 -0.47,-1.17 -2.08,0.27 -0.32,-0.95 0.63,-0.51 -0.21,-1.26 1.06,0.13 2.31,-2.78 0.65,1.9 0.8,0.23 0.07,1.05 1.97,0.04 1.9,-1.01 -0.03,-0.52 1.17,-0.18 0.73,1.06 -0.92,1.97 2.29,0.99 1.25,-2.91 3.49,1.33 -0.32,-0.95 1.32,-5.63 -1.56,-1.81 -2.25,-0.47 -1.41,-1.6 -1.16,0.18 -1.49,-0.76 -0.07,-1.05 -0.43,-0.64 -0.51,0.2 -1.11,-3.06 0.51,-0.2 -1.14,-3.58 0.48,-0.72 -0.57,-0.85 -0.51,0.2 0.08,-0.83 -1.91,-1.4 -2.61,-0.06 -1.91,-1.41 -0.21,-1.26 -1.37,-1.08 -1.71,-0.15 -0.06,-1.04 -0.8,-0.23 -0.49,-1.68 1.39,-0.79 -0.68,-0.54 0.23,-0.62 -0.94,-0.44 0.23,-0.62 -0.71,-1.06 0.51,-0.19 -1.33,-0.56 0.76,-2.68 -0.94,-2.83 -2.54,-3.83 0.17,-1.66 -1.29,-2.45 1,-0.9 -1.01,-2.03 0.98,-1.42 0.98,1.51 1.56,-0.04 -0.59,-1.38 -0.51,0.19 -0.42,-0.65 0.86,-1.1 0.54,0.34 0.73,-0.79 -0.48,-1.16 0.63,0.04 0.33,-0.92 -0.54,-0.34 0.98,-0.35 0,0 -0.01,1.21 2.02,3.23 -0.54,0.12 -0.34,-0.88 -0.98,0.54 -0.53,1.69 0.76,0.04 0.01,-0.6 1.1,1.45 -2.26,0.97 1.3,0.99 -0.92,0.28 -0.24,0.91 0.75,-0.47 0.43,1.11 0.71,-0.85 0.28,0.89 -0.77,0.38 1.25,0.55 -0.42,0.62 0.35,0.77 1,-0.75 0.8,0.7 0.69,-0.58 -0.67,1.56 2.16,0.25 0.13,1.14 1.62,-1.28 0.69,0.46 -0.1,1.28 0.63,-1.32 0.28,0.97 -0.89,1.34 0.29,0.6 0.99,-1 1.78,0.25 0.21,-0.74 -0.85,-0.46 -1.36,-1.03 0.04,-1.42 -0.57,-0.38 0.33,-0.33 3.21,2.9 6.83,3.88 0.87,-0.24 0.57,-0.97 0.56,1.05 7.02,4.74 3.37,1.38 7.21,1.66 3.24,0.99 0.66,1.26 4.2,1.14 -2.89,-0.29 0.04,0.84 1.53,0.25 0.42,0.77 0.73,0.14 0.89,-0.6 -0.14,-0.98 9.13,-0.14 3.7,-1.74 -0.04,-0.74 2.38,-1.36 0.29,-1.17 1.17,-0.98 0.15,-1.3 0.95,-1.28 1.35,-1.16 1.44,-1.45 -0.61,-0.98 1.51,-0.82 0.79,-2.17 2.19,-0.16 1.25,-0.89 1.35,0.15 1.31,-1.08 0.75,-1.67 0.44,0.75 1.45,-0.13 1.53,-1.96 -0.32,-1.95 0.96,0.79 1.14,-0.56 1.67,0.11 0,0 1.02,2.64 -2.58,-0.04 -2.41,0.74 -0.21,0.62 1.05,3.28 -0.62,0.52 0.33,0.93 -0.73,0.84 0.89,1.24 1.61,-1.47 1.44,1.54 -4.04,4.1 -4.21,13 -0.51,0.21 -4.89,-4.41 -0.92,0.11 -0.45,-0.61 -0.77,0.32 1.25,2.16 -0.98,0.94 0.56,0.31 0.09,1.03 -1.28,0.52 0,0 -0.42,1.24 0,0 0.45,0.62 -2.19,0.63 -0.06,0.83 -1.81,1.14 -2.51,0.61 0.3,0.42 -0.61,0.52 0.74,1.04 -1.43,3.52 -8.89,4.6 0.7,4.29 -0.66,0 -0.58,1.04 -0.95,-0.43 -0.65,1.88 -0.77,0.31 0.29,0.42 -1.68,0.41 0,0 -0.8,1.68 -0.91,0.1 -0.04,-0.53 -1.52,0.61 -0.94,1.46 0.29,0.43 -1.55,1.97 -2.35,-0.15 -1.41,-1.6 -1.12,0.71 -0.55,-0.33 -0.98,0.93 -1.09,-0.65 -0.76,0.3 -0.44,1.25 -0.65,-0.01 0.18,0.74 -1.31,-0.03 -0.43,3.14 0.4,0.11 -0.73,0.82 0.3,2.32 -4.15,4.32 0.74,2.96 -6.44,0.09 -1.24,2.93 1.15,3.08 -1.21,-0.34 -1.8,0.71 1.03,1.5 -2.2,0.6 -4.28,-3.91 z" 
                fill="rgb(151, 144, 238)" 
                stroke="white" 
                stroke-width=".7px"
                title="Bay of Plenty" 
                id="NZ-BOP" 
            />
        </svg>