<svg xmlns="http://www.w3.org/2000/svg" viewBox="144.20941000000013 372.1917 175.56000000000031 162.64000000000004" width="175.56000000000031" height="162.64000000000004">
            <path 
                d="m 267.80941,381.9817 0.4,1.58 -0.33,0.99 0.62,0.92 1.11,0.16 0.91,-0.63 0.57,0.36 0.09,1.12 1.06,-0.4 0.31,0.46 -0.75,0.86 0.13,1.69 0.47,0.69 1.1,0.16 0.04,0.56 -0.81,1.76 1.04,1.05 1.59,-0.61 0.62,0.92 -0.33,1 1.15,0.72 -0.33,1 1.31,0.95 1.37,0.06 -0.53,0.2 -1.03,2.43 0,0 1.1,0.16 0,0 0.79,-0.31 0.89,0.82 -0.33,1 0.73,0.59 0.79,-0.31 0.17,-1.23 3.22,-0.66 0.28,-1.56 1.32,-0.5 0.96,-1.53 -0.09,-1.12 0.94,-0.07 -2.61,-0.45 0.22,-0.66 0.94,-0.07 0.06,-0.89 3.58,-2.52 -0.2,-0.79 1.72,-0.37 0.22,-0.66 0.05,0.56 0.68,0.03 0.06,-0.89 2.09,-0.8 0.57,0.36 0.21,-0.66 1.04,-0.4 -0.2,-0.79 0.94,-0.07 -0.9,-2.84 0.89,-0.64 -0.09,-1.12 1,-0.97 1.35,0.05 0.91,-2.1 1.3,-0.51 0.06,-0.9 1.5,0.28 0.69,-1.44 2.18,-1.17 -0.2,-0.79 0.79,-1.78 1.08,0.14 1.1,2.17 1.1,-1.33 5.27,-1.05 0.76,1.14 3.25,-0.21 -0.41,1.89 0,0 -4.38,6.34 -0.56,1.99 0.45,2.29 -1.81,1.07 -3.23,3.98 -1.64,0.9 -0.63,0.84 0.04,1.14 -2.21,2.09 -0.34,2.41 1.49,1.05 -1.28,0.63 -0.73,-1.23 -2.06,0.41 -3.49,3.02 -1.11,3.46 0.82,0.45 -1.69,2.13 -4.28,10.86 -2.12,2.75 0.2,1.78 -3,3.68 -4.01,1.89 -2.27,3.29 -1.51,-0.21 -1.91,1.35 -4.16,1.39 -1.67,1.79 -0.97,0.04 -1.61,2.35 -1.97,4.59 -0.63,6.93 0.33,4.1 1.29,4.63 -0.24,0.28 -0.72,-1.9 -0.96,1.49 1.31,0.08 0.31,0.56 1.24,0.18 0.07,0.75 1.2,0.24 -3.32,1.22 -1.75,-0.13 -1.06,0.79 0.34,1.76 0.43,0.4 0.48,-1.45 0.25,1.03 0.63,-0.18 0.48,-1.48 0.96,-0.12 0.4,0.82 0.89,-1.19 0.22,0.37 1.75,-1.01 -0.58,2.92 0.4,0.27 1.52,-3.28 0.88,0.89 0.37,-0.25 0.76,0.51 -1.01,2.61 0.26,0.84 1.52,-3.5 0.62,0.88 0.56,-0.27 0.62,-0.06 0.64,0.42 -0.13,1.04 0.09,0.84 1.08,-1.18 1.03,-0.09 -0.48,0.5 1.16,0.9 -0.29,0.79 0.76,0.36 0.41,-0.83 0.89,0.91 -0.45,1.06 0.83,0.39 0.4,1.08 -0.05,1.61 -0.62,1.21 -0.65,0.35 0.25,1.46 -0.8,0.15 -0.16,0.91 -0.83,-0.83 -0.73,1.92 -2.72,0.79 -0.02,-0.72 -1.15,-1.12 0.24,-1.84 0.95,-0.97 -0.79,-0.06 -0.27,-0.67 0.93,-0.25 -0.12,-0.96 -0.79,-0.09 -0.34,-0.7 -0.88,0.67 0.35,2.42 -0.64,0.81 0.25,1.83 1.28,1.39 0.03,0.94 -1.4,-0.52 -0.93,0.45 -1.05,-0.58 -1.26,0.1 -0.52,-0.54 -0.39,-0.91 -0.8,0.33 -0.91,-0.93 -0.69,-1.08 -1.37,-0.27 -15.39,2.23 -12.13,5.49 -13.99,8.12 -7.87,5.62 -4.2,3.91 -3.29,4.53 0.68,0.69 -0.25,2.99 -2.3,4.16 -1.33,4.12 0.41,12.6 -1.02,5.87 0,0 -1.19,-0.46 -1.5,0.29 -2.28,-0.95 -0.8,0.33 -0.9,-0.88 -1.65,0.06 -1.59,-0.9 -1.23,0.19 -0.05,-0.6 -2.67,-0.48 -7.61,-3.46 -1.79,1.95 -0.51,2.37 -0.43,-0.14 -0.6,1.17 -2.15,0.85 -0.76,0.92 -0.58,-0.39 -1.46,0.88 -0.9,-0.88 0.02,-1.56 -1.12,-0.18 -0.76,0.92 -1.51,0.28 -0.32,-0.49 -1.3,1.13 -4.85,0.34 -0.2,-0.85 -0.86,-0.28 0.65,-0.56 -0.52,-1.34 -1.6,-0.92 -1.31,-2.58 0.18,-1.3 -2.15,-8.1 -1.99,-0.46 -2.12,1.43 -2.89,-1.35 -1.17,-4.46 -0.66,0.56 -0.02,1.54 -2.96,-0.4 0.75,-3.04 -0.95,-1.48 0.73,-1.5 -0.2,-0.84 -1.99,-0.47 -0.81,0.31 -1.33,-1.02 0.66,-0.55 -0.47,-0.74 0.89,-1.25 -0.63,-0.98 0.66,-0.55 -0.2,-0.84 0.66,-0.55 -0.31,-0.49 0,0 -0.36,-1.08 0,0 0.54,-0.2 0.05,-3.06 -1.57,-2.44 0.81,-0.3 0.3,-1.63 1.47,-0.85 -0.31,-0.49 0.93,-0.65 -0.2,-0.83 0.97,-0.06 -0.09,-1.17 0.81,-0.3 -0.2,-0.83 0.81,-0.3 0.3,-1.62 1.24,-0.16 -0.58,-3.99 0,0 0.81,-0.3 0.72,-1.47 0.7,0.04 0.41,-1.95 2.65,-1.6 0.83,-1.81 1.39,0.07 -0.09,-1.16 1.61,-0.61 0.22,-0.68 1.12,0.17 -0.09,-1.16 0.65,-0.55 -0.47,-0.72 1.23,-0.17 1.02,-0.99 -0.04,-2.09 2.24,-1.17 0.44,-1.37 -0.46,-2.22 2.02,-0.48 0.44,-1.36 0,0 1.22,-0.17 0,0 1.72,-2.45 1.65,-0.04 2.2,-1.73 0.95,1.42 1.88,-0.72 0.98,-1.56 1.23,-0.18 0.44,-1.36 1.88,-0.72 0.49,-0.78 0.48,0.71 1.24,-0.18 0.21,0.81 1.24,-0.18 0.06,-0.92 1.68,-1.54 -0.63,-0.94 1.03,-0.99 1.78,-0.39 -0.52,-1.28 2.1,0.09 1.58,-1.2 0.32,0.47 0.81,-0.31 0.07,-0.92 1.78,-0.39 0.02,-1.49 0.81,-0.31 1.38,-2.01 0.86,0.27 -0.07,0.92 1.51,-0.28 1.26,-1.67 0.07,-0.91 1.35,-0.52 -0.63,-0.94 1.19,-0.75 -0.2,-0.81 0.81,-0.31 -0.31,-0.47 1.01,0.5 0.65,-0.55 -0.2,-0.81 0.81,-0.31 0.31,0.47 1.58,-1.2 0.58,0.37 1.08,-0.41 -0.09,-1.15 0.92,-0.65 0,0 -0.4,-1.62 0,0 3.04,-2.05 -0.43,-0.13 0.23,-0.68 1.39,0.06 0.92,-0.65 1.28,0.39 -0.22,0.68 0.54,-0.21 1.3,-1.09 -0.31,-0.47 0.5,-0.78 0.85,0.26 1.03,-0.99 0.9,0.84 2.84,-0.81 1.01,0.5 1.99,-1.07 1.05,1.07 0.81,-0.31 1.41,-1.43 -0.74,-0.6 0.23,-0.68 1.07,-0.42 -0.06,-2.63 2.19,-0.26 1.19,-0.75 0.34,-1.02 1.23,-0.18 -0.13,-1.72 1.3,-1.09 0.29,-1.59 2.14,-0.83 -0.2,-0.81 0,0 1.76,-0.39 0,0 0.58,0.36 2.67,-1.03 -0.31,-0.47 0.53,-0.21 -0.31,-0.47 0.82,-1.79 2.25,-1.16 0.02,-1.48 1.94,-1.63 0.18,-1.24 2.02,-0.49 2.38,-2.96 2.13,-0.82 0.58,0.36 1.18,-0.74 0.09,-2.37 0.69,0.03 -0.09,-1.13 0.87,-1.2 -0.31,-0.46 0,0 1.75,-0.38 1.46,-2.3 1.86,-0.71 0.49,-0.76 -0.29,-1.92 1.28,-1.06 -0.4,-1.58 1.86,-0.7 0.2,0.79 0.96,-0.36 z" 
                fill="rgb(151, 144, 238)" 
                stroke="white" 
                stroke-width=".7px"
                title="Canterbury" 
                id="NZ-CAN" 
            />
        </svg>