<svg xmlns="http://www.w3.org/2000/svg" viewBox="672.3094099999996 466.44169999999997 28.860000000000355 35.809999999999945" width="28.860000000000355" height="35.809999999999945">
            <path 
                d="m 698.47941,495.1317 1.03,0.42 1.27,1.77 0.37,-0.16 0.02,0.64 -1.25,0.84 -0.62,2.09 -0.95,0.39 -0.69,1.13 -0.52,-0.57 0.33,-0.89 -0.7,-0.18 0.57,-0.8 -0.46,-0.58 0.32,-0.52 -0.54,-0.19 1.19,-1.11 -1.48,-1.29 1.57,-0.07 0.54,-0.92 z m -15.71,-28.69 3.45,1.6 1.73,-0.15 0.23,0.97 1.98,0.57 2.68,-0.17 0.79,-0.6 1.86,0.71 2.03,-1.09 0.9,0.39 0.78,-0.4 0.51,0.62 -1.37,0.2 -0.52,1.77 -0.73,-0.68 -0.96,0.05 -2.11,1.51 -2.45,4.17 -0.68,3.05 -0.44,-0.47 0.47,-1.53 -0.5,-2.7 0.3,0.53 0.76,-1.47 1.52,-1.01 -1.15,-1.74 -1.64,-0.95 -1.61,-0.21 -0.92,0.87 -0.74,-1.17 -1.33,-0.02 -0.31,1.72 0.81,1.08 3.81,0.79 -1.34,1.03 -0.63,-0.22 -1.21,1.68 0.45,1.78 1.52,1.56 -0.38,1.92 1.85,0.85 0.39,-1.86 -0.45,-0.63 0.6,0.07 1.24,4.96 2.54,0.95 0.02,0.92 -5.93,1.35 -0.51,0.9 -1.28,0.36 -2.1,1.88 -2.27,-0.43 -0.53,-2.58 -0.6,-0.29 0.28,-1.54 -1.13,-1.76 4.13,-2.56 0.28,-1.17 0.78,0.61 0.71,-0.77 -0.39,-2.83 -1.96,-3.35 -0.67,-0.71 -1.75,-0.07 -0.25,-0.62 -0.28,0.59 -0.64,-0.51 -0.1,1.01 -0.69,-0.5 0.26,0.77 -0.55,0.42 -1.59,0.17 -1.5,-0.67 0.4,0.77 -1.32,0.57 -0.95,-0.5 -0.24,0.44 -1.3,-0.18 0.34,-0.58 -0.86,-0.4 0.79,-0.32 0.3,-1.53 2.16,-0.29 -0.51,-1.41 0.35,-0.61 2.62,1.09 3.48,-0.94 1,-1.09 -0.27,-1.35 0.54,-0.62 z" 
                fill="rgb(151, 144, 238)" 
                stroke="white" 
                stroke-width=".7px"
                title="Chatham Islands Territory" 
                id="NZ-CIT" 
            />
        </svg>