<svg xmlns="http://www.w3.org/2000/svg" viewBox="439.2694099999999 150.94169999999986 55.440000000000055 71.2300000000001" width="55.440000000000055" height="71.2300000000001">
            <path 
                d="m 479.96941,150.9417 5.74,1.16 -0.97,1.09 0.26,0.83 0.68,0.29 0.93,0.94 1.2,0.59 4.19,0.34 2.25,1.66 0.46,0.94 -4.04,6.31 0.3,0.68 -1.79,1.54 -0.77,2.64 0.14,2.07 -2.18,2.45 -0.02,1.26 1.44,0.65 -0.39,0.9 0.43,1.22 -0.57,0.84 -1.44,0.51 -0.21,1.07 1.51,1.76 -0.7,0.74 -0.05,1.36 -1.03,0.75 0.96,1.23 0.03,1.07 -0.25,1.01 0.03,2.52 0.41,1.28 0.27,1.86 -1.36,0.85 -1.14,1.93 0.42,2.83 -3.4,2.74 -0.25,1.03 -1.57,1.27 -0.46,1.08 -0.8,-0.08 -1.81,1.37 -0.47,1.51 -2.18,-1.88 -1.61,0.57 -1.25,1.44 -0.23,1.89 1.51,0.35 -1.74,1.65 -0.6,1.92 0.32,1.78 -0.7,1.22 0.34,0.91 -0.47,3.29 0,0 -2.14,-0.68 -0.45,-0.63 0.59,-1.04 -0.46,-0.63 -0.63,0.52 -0.72,-0.52 0.07,-0.83 -1,0.94 -1.02,-0.95 -0.84,1.15 -0.35,-0.94 -0.37,0.42 -2.17,-0.22 0.31,-2.83 -0.73,0.84 -1.01,-0.94 -0.78,0.31 -0.3,-2.3 -1.08,-0.11 -0.89,0.63 -1.07,-1.98 -0.77,0.31 -1.03,-1.46 0.48,-0.73 -0.37,-1.46 -1.47,-0.21 -0.04,-0.52 -0.77,0.31 1.51,-3.03 -2.17,-0.74 -1.58,0.1 -1.8,-1.16 0.07,2.93 -7.09,-3.6 0,0 1.68,-0.41 -0.29,-0.42 0.77,-0.31 0.66,-1.88 0.95,0.43 0.58,-1.04 0.66,0.01 -0.7,-4.29 8.9,-4.6 1.43,-3.52 -0.74,-1.04 0.62,-0.52 -0.3,-0.41 2.51,-0.61 1.81,-1.14 0.06,-0.83 2.19,-0.63 -0.45,-0.62 0,0 0.42,-1.24 0,0 1.28,-0.52 -0.09,-1.03 -0.56,-0.31 0.98,-0.94 -1.25,-2.16 0.77,-0.31 0.45,0.62 0.92,-0.11 4.89,4.41 0.51,-0.21 4.21,-13 4.04,-4.1 -1.44,-1.54 -1.61,1.47 -0.89,-1.24 0.73,-0.84 -0.33,-0.93 0.62,-0.52 -1.05,-3.28 0.21,-0.62 2.41,-0.74 2.58,0.04 -1.02,-2.64 0,0 3.29,0.44 0.29,-1.05 z" 
                fill="rgb(151, 144, 238)" 
                stroke="white" 
                stroke-width=".7px"
                title="Gisborne District" 
                id="NZ-GIS" 
            />
        </svg>