<svg xmlns="http://www.w3.org/2000/svg" viewBox="399.09940999999986 203.06169999999986 74.39999999999998 92.50000000000011" width="74.39999999999998" height="92.50000000000011">
            <path 
                d="m 419.58941,295.5617 -1.33,-0.08 -1.03,-0.97 -0.47,0.75 -2.11,-1.1 -0.21,0.65 -1.91,-0.35 -0.36,-0.98 -1.66,-0.45 0.21,-0.65 -0.98,-0.45 1.52,-1.17 -0.88,-0.77 0.53,-1.62 -0.87,-0.77 0.32,-0.97 -1.05,-2.94 0.8,-1.72 -1.28,-0.88 -0.5,-1.2 -0.82,-0.23 0.54,-1.61 -0.98,-0.44 -0.04,-0.54 -1.34,-0.01 0,0 0.22,-0.64 0,0 -1.17,-1.2 -1.08,-0.12 -0.04,-0.54 -2.16,-0.24 -0.74,0.85 -1.62,-1.85 1.17,-2.14 -0.71,-0.54 0.48,-0.75 -0.3,-0.43 0.85,-1.17 -0.56,-0.33 2.24,-7.25 -0.23,-1.28 0.52,-0.21 0.03,-1.39 0.89,-0.63 -1.56,-1.3 0.65,-1.91 -1.56,-1.3 1.7,-0.4 0.91,-2.01 1.18,-0.2 0.48,-0.74 2.06,-0.82 0.81,0.22 -0.8,-3.51 0.48,-0.74 -0.41,-0.11 0.99,-0.94 -0.45,-0.64 0.66,0.01 -0.04,-0.53 -1.26,-0.86 -1.33,-0.02 -0.19,-0.74 0.52,-0.2 0.03,-1.38 1.14,-0.72 -0.41,-2.02 -1.81,-1.19 -1.58,0.08 -1.1,-2.56 0,-1.9 0,0 0.07,-0.84 2.17,-1.13 -0.29,-0.43 0,0 4.23,3.77 2.2,-0.6 -1.03,-1.49 1.8,-0.71 1.21,0.34 -1.15,-3.08 1.24,-2.93 6.44,-0.09 -0.74,-2.96 4.15,-4.32 -0.3,-2.32 0.73,-0.82 -0.4,-0.11 0.43,-3.14 1.31,0.03 -0.18,-0.74 0.65,0.01 0.44,-1.25 0.76,-0.3 1.09,0.65 0.98,-0.92 0.55,0.33 1.12,-0.71 1.41,1.61 2.35,0.15 1.55,-1.97 -0.29,-0.43 0.94,-1.46 1.52,-0.61 0.04,0.53 0.91,-0.1 0.8,-1.67 0,0 7.09,3.61 -0.07,-2.93 1.8,1.16 1.58,-0.1 2.17,0.74 -1.51,3.03 0.77,-0.31 0.04,0.52 1.48,0.21 0.37,1.46 -0.48,0.73 1.03,1.46 0.78,-0.31 1.07,1.98 0.89,-0.62 1.08,0.11 0.31,2.3 0.78,-0.31 1.01,0.95 0.74,-0.84 -0.3,2.83 2.17,0.22 0.37,-0.42 0.35,0.94 0.85,-1.15 1.02,0.95 1,-0.93 -0.06,0.83 0.72,0.53 0.63,-0.52 0.46,0.63 -0.59,1.04 0.45,0.63 2.14,0.69 0,0 -0.54,2.26 0.6,2.72 0.57,0.67 1.25,0.46 0.51,-0.33 1.67,1.06 -3.04,2.98 -0.72,3.08 -1.7,1.94 -0.84,-4.15 -0.84,-1.28 0.64,-0.33 1.39,-3.46 -1.2,-1.22 -0.72,0.92 -2.98,-1.08 -3.1,-0.28 -9.95,0.65 -8.38,3.06 -4.31,2.23 -1.82,1.56 -0.87,3.16 -2.97,3.64 -1.11,0.56 -1.18,2.5 -0.41,2.72 0.6,1.42 1.41,-0.35 -0.04,3.96 1.76,3.69 2.42,1.26 1.85,-0.8 0.74,0.5 -3.11,4.45 -0.88,3.43 0.47,2.13 -2.86,4.74 -1.73,4.58 -0.33,1.5 0.58,1.1 -0.89,1.19 0.04,1.53 -1.03,0.62 -2.27,4.14 -0.31,-0.38 -1.59,0.57 -2.37,1.92 -0.2,2.93 -2.06,5.22 z" 
                fill="rgb(151, 144, 238)" 
                stroke="white" 
                stroke-width=".7px"
                title="Hawke's Bay" 
                id="NZ-HKB" 
            />
        </svg>