<svg xmlns="http://www.w3.org/2000/svg" viewBox="347.01941000000005 201.14169999999996 72.98999999999995 112.53000000000003" width="72.98999999999995" height="112.53000000000003">
            <path 
                d="m 418.25941,295.4717 0,0 0,0 1.33,0.09 0,0 0.42,1.29 -0.41,1.91 -2.28,0.28 -3.2,2.26 -0.41,1.67 -2.15,1.64 -1.55,3.24 -2.56,2.53 -1.72,3.29 0,0 -0.25,-0.82 0.47,-0.75 -0.99,-0.46 -0.57,-1.76 -2.34,-0.48 -0.79,-1.1 -0.78,0.31 -1.67,-0.46 -0.1,1.74 -0.42,-0.11 0.31,0.43 -1.62,0.09 -1.15,-0.66 -0.58,1.08 -1.1,-0.12 0.21,0.76 -1.2,0.21 -0.42,1.3 -0.89,-0.77 -1.52,1.18 -0.88,-0.77 -0.37,0.43 -0.58,-0.34 -0.73,0.87 -1.67,-0.46 1,-2.38 -0.58,-0.34 0.37,-0.43 -0.73,-0.55 -0.37,0.43 -0.73,-0.55 -1.88,0.19 0,0 -0.31,0.98 0,0 0.05,0.54 -0.84,-0.23 -0.32,0.98 -1.3,0.53 -5.84,-3.02 -1.26,2.48 -1.77,-0.14 -0.88,-0.78 -0.78,0.32 -0.16,1.19 -1.51,-0.24 -1.67,0.94 -1.14,-0.67 -0.62,0.53 -1.24,-0.36 -0.21,-0.76 0.94,-0.09 -0.05,-0.54 -1.4,-0.58 -0.06,-0.54 -1.3,-0.14 0,0 1.06,-2.22 2.18,-9.44 0.31,-8.91 -1.18,-6.88 -1.88,-4.02 -4.61,-5.98 -5.08,-4.35 -3.85,-1.32 -0.78,0.18 0,0 -0.66,-0.44 1.68,-2.44 1.5,-0.24 0.36,-0.94 1.44,-0.81 -0.04,-0.54 1.72,-0.39 -0.29,-0.44 0.63,-0.52 -0.6,-0.88 0.49,-0.74 -0.3,-0.44 2.58,-1.02 -0.99,-0.99 0.52,-0.21 -0.54,-2.27 1.15,-2.67 -1.13,-1.2 -0.39,-2.05 -0.92,0.08 -1.87,-2.3 0.23,-0.63 -1.02,-1.53 0.66,0.02 -0.03,-0.54 0,0 0.34,-0.96 0,0 -1.54,-1.32 -1.07,-0.13 -0.32,-0.98 1.83,-2.63 0.05,-1.39 0.95,0.45 0.49,-0.73 0.81,0.23 -0.29,-0.43 1.6,-1.99 -0.55,-0.34 0.77,-0.3 -0.54,-0.33 1.69,-0.39 -0.58,-0.87 0.92,-0.08 -0.29,-0.44 0.66,0.02 -0.29,-0.43 0.74,-0.84 2.13,0.27 -1.27,-1.42 0.23,-0.63 -3.31,-0.09 0.08,-0.85 0,0 0.52,-0.2 0,0 -0.93,-2.37 -0.92,0.09 -0.23,0.63 -0.46,-1.18 -1.17,0.18 -0.29,-0.44 0.48,-0.73 -0.54,-0.33 0.48,-0.74 -0.58,-0.86 0.46,-1.27 0,0 -0.83,-0.77 0,0 -1.26,1.03 -1.01,-1.52 -0.34,-1.5 0.37,-0.41 -0.72,-1.09 0.92,-0.08 0.31,-1.48 1.8,-0.69 0,0 1.51,-1.12 1.58,-0.06 -0.32,-0.97 0.82,-1.67 0.41,0.11 -0.5,-1.71 1.98,0.06 1.54,-0.59 1.11,-1.24 0.95,0.45 0.74,-0.82 0.95,0.45 1.43,-0.28 1.09,0.67 1.28,-0.5 0.23,-0.62 0.91,-0.09 0.71,-1.35 0.95,0.45 -0.2,-1.27 0.85,-1.14 0.49,1.7 1.55,-0.59 0.22,-0.63 1.43,-0.28 1.09,0.67 2.09,-0.27 1.55,1.84 2.72,-0.78 0.99,-0.92 -0.39,2.31 -1.99,1.85 0.32,0.96 -0.45,1.25 -2.04,3.23 0.9,1.82 0.52,-0.2 1.01,1.5 -1.45,2.19 1.6,2.37 -1.19,2.09 0.36,1.49 2.61,-0.47 2.12,0.26 -1.47,1.66 -0.05,1.38 -1.29,0.51 0.55,0.33 -0.45,1.26 1.39,1.09 -0.75,2.75 -2.93,5.8 4.3,1.04 1.44,-0.3 1.62,0.46 0.23,-0.64 2.17,0.79 1.22,-1.58 1.18,-0.19 -0.59,-0.86 1.51,-1.14 0.22,-0.63 -0.55,-0.33 3.09,-1.22 0.3,-1.48 4.38,0.18 2.42,-1.23 1.36,0.55 0,0 0,1.91 1.11,2.56 1.58,-0.08 1.81,1.19 0.41,2.01 -1.14,0.73 -0.03,1.38 -0.52,0.2 0.19,0.75 1.33,0.01 1.25,0.87 0.04,0.53 -0.66,-0.01 0.45,0.64 -1,0.95 0.41,0.11 -0.48,0.73 0.8,3.52 -0.81,-0.23 -2.07,0.83 -0.47,0.74 -1.19,0.2 -0.91,2.01 -1.7,0.4 1.56,1.3 -0.65,1.91 1.57,1.3 -0.89,0.63 -0.02,1.38 -0.52,0.21 0.23,1.28 -2.24,7.25 0.56,0.33 -0.85,1.17 0.31,0.43 -0.48,0.75 0.71,0.54 -1.17,2.14 1.62,1.84 0.74,-0.85 2.16,0.24 0.04,0.54 1.09,0.12 1.17,1.2 0,0 -0.22,0.64 0,0 1.34,0.02 0.05,0.54 0.97,0.44 -0.53,1.61 0.82,0.23 0.5,1.19 1.29,0.89 -0.63,0.53 -0.17,1.19 1.06,2.94 -0.33,0.97 0.88,0.77 -0.54,1.62 0.88,0.77 -1.51,1.18 0.98,0.44 -0.21,0.65 1.66,0.45 0.36,0.98 1.91,0.35 0.21,-0.64 2.11,1.1 0.47,-0.74 z" 
                fill="rgb(151, 144, 238)" 
                stroke="white" 
                stroke-width=".7px"
                title="Manawatu-Wanganui" 
                id="NZ-MWT" 
            />
        </svg>