<svg xmlns="http://www.w3.org/2000/svg" viewBox="268.0294099999992 309.10169999999994 64.60000000000082 93.25000000000023" width="64.60000000000082" height="93.25000000000023">
            <path 
                d="m 332.16941,329.4317 0.46,0.29 -0.06,1.28 -0.98,4.39 -0.91,-0.59 -0.72,1.03 -0.59,-0.55 -1.05,0.39 -1.13,1.44 -0.84,0 -0.14,-0.76 -0.72,0.75 -1.86,0.33 1.25,-1.74 1.44,0.33 0.9,-0.66 0.41,-0.34 -0.58,-0.18 0.32,-0.58 1.19,0.02 0.08,-0.79 1.17,-0.34 -0.34,0.86 1.13,-0.04 -0.31,-0.43 1.21,-0.64 0.37,-1.54 -1.15,1.05 -0.61,0.05 -1.64,-0.26 0.68,-0.78 1.13,0.15 0.96,-0.64 0.93,-1.5 z m -11.69,-7.59 0.24,1.51 -1.07,1.33 -0.42,-0.85 0.99,-1.12 -0.95,-0.3 1.21,-0.57 z m -3.41,-1.56 1.15,0.04 -0.35,1.33 -0.69,0.56 -0.42,-1.8 -0.59,0.05 -0.48,0.49 0.6,0.06 -0.3,0.65 -0.62,0.39 0.25,1.13 -0.38,0.33 -0.84,-0.55 -1,0.79 0.15,0.56 1.04,-0.28 -0.42,0.67 -1.13,0.63 -0.5,-0.31 -0.57,0.98 -1.76,-0.07 0.4,-1.57 -0.93,1.28 -0.71,-0.37 -0.49,0.69 1.47,0.63 -1.63,1.06 0.71,0.18 -0.3,1.53 -0.27,0.39 0.02,0.58 0.53,0.29 -0.25,-0.65 0.55,-0.26 0.56,-0.05 0.84,-2.02 1.06,0.54 0.4,-0.52 0.62,0.45 1.15,-0.36 1.51,0.38 -1.71,0.36 -0.2,0.77 -1.31,-0.26 -0.39,0.95 1.14,0.16 -0.18,1.08 -1.48,-0.38 0.32,0.93 -0.84,0.19 0.19,0.47 -2.29,0.46 0.3,1.07 2.43,-1.15 -0.75,1.08 1.12,-0.23 0.29,1.16 -0.85,1.4 0.22,1.22 -1.07,0.45 -1.1,-0.76 0.42,0.94 -1.74,0.49 0.47,1.06 0.29,-1.11 1.07,1.24 1.36,0.24 0.28,-0.53 -0.87,0.26 -0.66,-1.06 2.28,-0.46 2.31,-1.65 -1.76,0.29 -0.86,-0.14 0.08,-0.42 3.27,-0.96 0.04,0.56 0.88,0.31 1.72,-0.99 0.73,0.15 -0.5,-0.77 2.08,0.43 1.89,-1.16 -2.7,0.37 -0.47,-0.22 0.19,-0.83 -2.25,1.18 -0.63,0.58 -0.1,-1.05 -1.55,1.3 -1.19,-0.06 -0.98,0.65 0.31,-1.62 0.62,-0.5 -0.74,-0.06 -0.38,-1.36 2.07,-0.83 -0.79,-0.18 0.27,-0.6 0.86,0.24 0.14,-1.56 0.39,0.3 1.25,-0.62 -0.96,1.9 0.61,1.86 0.29,-1.16 0.77,0.4 0.03,-1.73 0.65,-0.39 1.04,0.95 0.32,-0.34 -1.04,-2.02 0.23,-0.59 0.85,-0.1 0.08,-1.68 -0.56,0.31 -0.99,-0.5 -0.71,1.05 -1.06,0.35 -1.16,-0.27 0.76,-0.46 -0.68,-0.63 2.03,-0.16 -0.91,-1.21 0.27,-0.43 0.96,0.53 -0.06,-1.27 0.79,-0.2 0.31,0.57 -0.39,0.54 0.38,1.5 0.52,-0.33 0.42,0.43 0.79,-1.1 -0.05,0.92 0.68,0.2 0.94,1.77 -0.41,-2.96 1.76,1.28 0.04,-1.16 0.76,-0.71 0.72,1.41 1.96,-1.32 -0.54,1.22 -0.84,0.16 0.14,1.45 -0.39,0.13 -0.19,-0.67 -0.65,0.72 2,1.43 0.88,-1.6 0.73,0.15 0.4,-0.74 1.1,0.3 -0.99,0.49 -0.05,1.26 -1.46,1.22 0.58,0.66 -0.11,0.91 -0.87,-0.56 -0.59,0.35 -0.04,0.75 -0.86,0.32 0.39,-0.77 -0.55,-0.05 -0.07,-1.79 -0.64,1.43 -0.67,-0.38 0.07,0.93 0.72,0.47 -0.21,0.71 1.53,0.2 -0.6,1.04 0.6,-0.08 0.11,0.61 -1.31,0.93 0.08,-0.87 -0.73,-0.6 0.15,2.08 -1.16,-0.48 -0.05,-0.6 -0.47,0.64 0.26,0.77 -0.56,0.1 -0.43,-1.02 -0.69,1.43 -0.5,-0.37 0.26,-0.87 -0.59,0.53 -0.31,-0.31 -0.65,0.06 -0.56,0.83 -0.63,-0.48 -0.05,1.35 -1.05,-0.91 0.06,1.39 -2.31,0.58 -0.31,0.71 4.07,-1.02 -0.01,1.43 1.03,-1.65 1.15,-0.13 0.67,-0.27 2.46,-0.76 -0.45,1.32 0.62,-0.47 0.34,0.72 0.67,-0.64 0.96,1.35 0.34,-0.51 -0.98,-0.74 0.47,-0.41 0.55,0.57 1.41,-0.55 1.08,-0.05 -0.04,-0.58 1.42,-0.93 -0.86,1.06 0.3,0.78 -0.8,0.43 0.33,0.59 -1.04,-0.04 -1.25,1.19 0.79,0.85 -0.31,0.6 -0.92,0.28 -0.45,-0.74 -0.38,1.37 -1.47,0.1 0.16,0.64 -1.05,0.06 -0.25,-0.5 0.83,-0.49 -0.27,-0.47 0.76,0.13 1.18,-1.75 -1.12,-0.28 0.11,0.59 -0.95,0.78 0.41,-1.55 -1.26,0.73 -0.32,1.79 -1.58,2.85 -0.62,0.1 -0.81,2.52 0.13,2.04 2.18,2.57 -1.16,0.43 -0.05,0.81 1.19,0.37 1.38,-0.6 0.95,0.54 0.72,2.43 -0.33,3.32 0.84,2.14 1.25,0.96 0.4,-0.31 1.42,0.65 0.72,-0.37 -0.11,0.98 -2.24,2.42 -0.11,1.02 -2.02,3.16 -4.36,4.88 0,0 0.41,-1.89 -3.25,0.21 -0.76,-1.14 -5.27,1.05 -1.1,1.33 -1.1,-2.17 -1.08,-0.14 -0.79,1.78 0.2,0.79 -2.18,1.17 -0.69,1.44 -1.49,-0.28 -0.06,0.9 -1.3,0.51 -0.9,2.1 -1.35,-0.05 -1,0.97 0.09,1.13 -0.89,0.64 0.9,2.84 -0.93,0.07 0.2,0.79 -1.04,0.4 -0.21,0.66 -0.57,-0.36 -2.09,0.8 -0.06,0.89 -0.68,-0.03 -0.05,-0.56 -0.21,0.66 -1.72,0.37 0.2,0.79 -3.58,2.52 -0.06,0.89 -0.94,0.07 -0.22,0.66 2.62,0.45 -0.94,0.07 0.09,1.12 -0.96,1.53 -1.32,0.51 -0.28,1.56 -3.21,0.66 -0.17,1.23 -0.79,0.31 -0.73,-0.59 0.33,-1 -0.88,-0.82 -0.79,0.31 0,0 -1.1,-0.16 0,0 1.03,-2.43 0.53,-0.2 -1.37,-0.05 -1.3,-0.95 0.33,-1 -1.15,-0.72 0.33,-1 -0.62,-0.92 -1.59,0.61 -1.04,-1.05 0.82,-1.76 -0.04,-0.56 -1.1,-0.16 -0.46,-0.69 -0.13,-1.69 0.75,-0.86 -0.31,-0.46 -1.06,0.4 -0.09,-1.12 -0.57,-0.36 -0.91,0.63 -1.1,-0.16 -0.62,-0.92 0.33,-0.99 -0.4,-1.58 0,0 0,0 0,0 0.53,-0.2 -0.35,-1.02 0.51,-2.21 0.95,-0.07 1.02,-0.96 -0.35,-1.02 1.17,-0.73 0.29,-1.55 1.32,-0.5 0.07,-0.89 0.53,-0.2 0.22,-0.66 -1.03,-1.05 0.33,-0.98 0.79,-0.3 -0.09,-1.11 2.88,-3.09 -0.81,-1.7 0.37,-0.43 0.72,0.59 2.06,-1.35 2.19,-3.12 -0.02,-1.99 2.63,-1.01 0.07,-0.88 0.68,0.03 0.7,-1.41 0,0 -0.04,-0.56 0,0 0.29,-1.54 0.57,0.35 1.57,-0.61 0.98,0.48 1.98,-0.49 -0.5,-1.24 -1.59,-1.38 0.96,-1.52 0.78,-0.31 -0.39,-1.56 2.09,-0.83 0.8,-1.75 2.29,-1.5 -0.14,-1.67 2.09,-2.3 0.43,-1.33 1.19,-0.2 0.32,-1 1.97,-0.52 0.49,-2.21 -0.35,-1.01 0.93,-3.53 0,0 1.25,1.06 -0.84,1.18 1.23,-0.72 0.21,1.06 0.5,0.1 0.38,-0.49 -0.45,-1.23 2.3,-0.5 0.05,-0.48 1.51,-0.64 -0.88,0.06 0.2,-0.72 -2.17,1.2 -0.71,-1.06 1.12,-1.12 0.73,-0.54 0.28,0.48 0.36,-0.87 0.5,0.46 0.67,-1.63 0.54,0.84 0.7,-0.28 -0.44,-0.94 0.9,0.12 -0.14,-0.81 0.97,-0.39 0.22,-1.11 0.78,0.32 -0.88,2.7 1.07,0.27 0.88,-1.61 0.57,0.18 0.79,-0.91 -0.44,-0.78 1,-0.12 1.81,-1.88 0.37,1.02 z m -1.44,-11.18 0.44,0.8 -0.31,2.88 -0.68,0.53 0.13,1.07 -1.56,3.32 -1.28,0.61 -1.49,2.46 -2.3,1.08 0.86,-2.59 -1.08,0.44 0.44,-3.32 0.45,1.21 1.54,0.56 0.47,-0.3 -1.32,-0.69 -0.32,-1.94 1.26,-2.11 -0.36,-0.79 1.28,-0.56 0.5,-0.88 0.5,0.52 -0.87,1.61 0.51,0.37 -0.3,1.57 1.04,-1.48 1.26,0.31 0.21,-0.82 -1.86,0.03 2,-1.53 0.06,-0.59 0.51,0.06 0.27,-1.83 z" 
                fill="rgb(151, 144, 238)" 
                stroke="white" 
                stroke-width=".7px"
                title="Marlborough District" 
                id="NZ-MBH" 
            />
        </svg>