<svg xmlns="http://www.w3.org/2000/svg" viewBox="264.9594099999999 0.3216999999999859 76.59999999999997 95.40999999999998" width="76.59999999999997" height="95.40999999999998">
            <path 
                d="m 278.75941,0.3217 1.62,1.08 -1.71,0.56 0.01,3.83 -1.62,0.63 0.19,-1.31 -1.87,-0.14 -0.65,0.48 0.63,0.67 -1.85,-0.03 0.79,0.66 -0.85,0.65 1.63,0.04 1.17,-0.75 -0.46,1.27 1.09,0.12 0.39,0.8 0.03,0.38 -0.5,0.75 0.63,0.21 0.42,-1.39 -1.24,-1.82 1.26,-0.23 1.93,6.8 1.58,2.11 1.53,0.87 2.27,3.11 -0.26,1.09 -0.52,-0.09 -0.9,-0.77 -0.33,-1.35 -0.79,-0.44 0.71,2.24 0.99,0.21 1.87,2.25 3.33,1.04 -0.45,1.45 -1.16,0.67 0.14,2.8 0.83,-0.98 0.14,1.13 1.52,0.29 -0.13,-0.58 -0.81,0.07 0.26,-1.18 0.94,-0.74 0.25,0.93 0.61,-0.84 -1.92,-4.36 2.36,-0.33 1.61,-0.91 0.39,-2.6 0.64,0.75 -0.06,1.69 1.45,-0.44 -0.3,0.56 1.13,0.66 -2.23,1.52 -1.35,-0.22 -0.37,0.93 0.57,2.24 1.18,1.49 0.74,0.5 3.21,0.2 0.9,-1 -0.53,-0.91 1.22,-1 0.07,-0.76 1.02,1.26 1.4,-0.07 0.96,1.38 1.81,-0.89 0.6,0.32 0.28,1.95 0.6,0.42 0.81,0.48 -0.41,1.15 -1.27,0.61 0.59,1.08 1.01,-0.03 0.03,-1.72 0.7,0.62 0.44,-0.62 -0.2,-0.88 -0.65,-0.18 0.26,-0.41 1.49,-0.23 0.67,-0.75 0.41,0.74 1,0.02 0.27,0.81 0.91,0.14 0.51,-0.62 0.93,0.87 -0.28,0.49 1.06,0.75 -0.53,0.34 0.5,1.73 1.07,1.07 4.16,-0.4 0.94,1.86 1.09,0.26 -0.13,0.76 -1.37,0 -0.8,1.06 -1.1,-1.24 -1.19,-1.33 -0.99,0.77 0.82,0.07 0.58,1.14 -0.13,0.35 -1.59,0.88 3.76,0.19 -0.5,0.83 0.93,0.67 -0.06,1.51 0.89,0.46 -0.02,0.89 1.19,0.58 0.36,0.24 1.42,-0.46 1.48,0.75 -1.12,-1.17 -2.46,0.19 -0.58,-1.03 1.36,0.04 -1.25,-1.24 0.14,-0.86 2,1.72 0.74,-0.22 0.81,0.54 0.16,-1.46 1.29,-0.8 0.29,-0.86 1.19,0.43 0.41,-1.92 1.21,-0.16 0.37,-0.57 0.2,1.04 -0.76,0.12 -0.48,0.63 0.55,0.17 -0.23,0.4 -0.97,0.59 1.27,0.98 -1.07,0.12 -0.01,0.71 1.68,2.57 1.53,-0.35 -0.19,0.72 -0.9,0.05 1.03,0.52 0.22,0.73 -0.43,0.96 -0.57,-0.37 -0.09,-1.17 -0.62,0.1 -0.27,-0.64 -0.4,1.07 0.78,0.23 0.62,2.38 0.64,-0.07 -0.4,1.1 1.2,-0.3 0.54,0.64 0.57,-0.37 -0.21,-0.52 0.61,0.17 -0.18,1.28 1,0.58 0.07,1.07 0.56,-0.21 0.46,1.23 -0.14,0.4 -0.49,-0.53 -0.32,0.5 0.69,1.75 1.44,0.01 1.01,1.13 -0.02,2.94 -0.89,-0.5 -0.39,1.92 0.78,2.05 1.74,0.14 -0.65,0.55 0.45,0.73 -0.1,0.93 -0.49,1.14 1.7,3.2 -1.43,0.34 -1.23,-0.48 0.47,-0.32 -0.43,-0.91 -1.12,0.12 0.28,-0.76 -0.57,-1.17 -0.44,-0.73 -1.8,0.37 -1.78,-0.9 -0.98,0.71 -0.37,-1.3 -0.91,0.78 0.55,1.98 -0.49,0.39 0.61,0.38 0.88,-1.66 0.36,1.34 2.15,0.56 0.88,-0.45 0.75,0.87 1.15,0.05 -1.15,1.49 -0.36,3.87 1.56,3.68 1.3,1.05 1.84,-0.27 0.74,1.89 -0.05,0.63 0.66,1.3 0,0 -1.32,1.02 -0.1,1.34 -2,0.76 -0.12,1.34 -2.01,0.75 -0.14,0.56 0,0 0,0 0,0 -0.25,0.85 -0.54,-0.37 -2.15,1.76 0,0 -0.69,-0.22 -0.26,-0.36 -1.29,1.96 -1.04,-0.13 -0.52,-1.06 -1.17,-0.29 -0.02,-1.18 1.44,-0.89 0.64,1.1 1.35,0.38 -1.45,-1.8 2.15,-1.53 0.45,-3.3 -0.96,3.19 -2.01,1.11 0.07,-1.04 -0.75,0.36 -1.22,-1.34 1.09,-0.29 -1.22,-0.25 -0.3,0.54 -0.74,-0.57 -0.04,-1.22 0.68,-1.19 -0.8,0.57 -0.4,-0.31 -0.96,0.09 -0.03,1.82 0.59,-0.41 1,1.12 -1.07,-0.27 -0.19,0.52 0.99,0.84 1.29,-0.54 1.24,2.14 -0.73,-0.19 -1,0.68 0.04,0.54 -0.9,0.24 -1.14,-1.51 -0.56,0.19 -1.18,-1.08 -1.27,-2.1 -2.36,0.13 -2.9,-2.49 1.96,3.06 1.38,0.84 1.01,2.1 2.31,1.49 0.94,2.83 0.05,1.36 -1.48,1.26 -3.83,0.27 -1.31,-2.46 -0.48,-3.42 -3.66,-6.44 -21.14,-28.34 0.12,-0.7 0.79,0.02 0.15,-1.36 0.79,-0.93 -0.36,-0.61 0.59,-0.14 0.24,-2.37 1.78,-0.77 1.06,0.74 0.36,-1.32 0.56,0.75 1.44,-1.66 0.04,-0.76 1.04,0.12 0.22,-0.62 -1.73,-0.51 -0.69,2.44 -1.01,-0.55 -0.8,1.24 -2.48,-0.14 -0.69,0.67 0.33,0.91 -0.78,0.09 -0.51,3.97 -0.69,0.35 -5.64,-6.89 -2.28,-3.74 0.35,-0.33 -4.17,-4.66 0.37,-1.42 2.66,0.6 1.34,-1.9 0.25,-3.52 -1.14,-3.62 -3.16,-5.38 -8.34,-11.61 -4.6,-4.63 -1.06,-0.21 -0.61,-1.65 -1.31,-0.66 0.94,-2.64 5.13,1.58 1.55,-0.9 0.22,-0.97 4.36,0.54 1.6,-1.6 z" 
                fill="rgb(151, 144, 238)" 
                stroke="white" 
                stroke-width=".7px"
                title="Northland" 
                id="NZ-NTL" 
            />
        </svg>