<svg xmlns="http://www.w3.org/2000/svg" viewBox="88.33941299999991 480.60170000000016 416.659997 327.68999999999994" width="416.659997" height="327.68999999999994">
            <path 
                d="m 504.40941,804.9217 0.59,0.71 -1.09,1.7 0.15,0.72 -1.27,0.24 -1.15,-1.87 2.77,-1.5 z m -407.439997,-294.88 0.82,-0.31 1.02,0.54 3.329997,-0.62 1.44,-1.46 2.19,-0.81 0.86,0.29 2.89,-2.91 1.1,-0.4 0.47,0.74 1.73,0.59 -0.2,-0.84 1.6,-1.2 0,0 0.94,-0.65 0,0 1.28,-1.7 -0.32,-0.49 1.04,-3.13 -0.24,-1.44 0.82,-0.3 0.07,-0.94 3.71,-1.05 -0.36,-1.09 1.21,-0.75 -0.52,-1.33 1.64,-0.6 -0.2,-0.84 2.5,-0.3 -0.04,-0.59 2.57,-1.24 0.68,1.57 3.79,0.13 0.82,-0.3 0.19,-1.28 0.55,-0.2 -0.32,-0.49 1.09,-0.4 0.88,2.4 1.61,0.92 2.79,-1.94 0.46,-1.37 1.67,-0.01 1.15,-1.33 1.94,-0.12 0.57,-1.71 -0.63,-0.97 0.45,-1.37 1.55,0.32 2.05,-0.46 0.74,0.62 0,0 0.58,3.99 -1.24,0.16 -0.29,1.62 -0.81,0.3 0.2,0.83 -0.81,0.3 0.09,1.18 -0.97,0.06 0.2,0.83 -0.92,0.65 0.31,0.49 -1.47,0.85 -0.3,1.63 -0.81,0.31 1.58,2.44 -0.05,3.06 -0.54,0.2 0,0 0.36,1.08 0,0 0.32,0.49 -0.66,0.55 0.2,0.84 -0.66,0.55 0.63,0.98 -0.66,0.55 0.25,1.44 -0.66,0.55 1.33,1.02 0.81,-0.31 1.99,0.47 0.2,0.84 -0.73,1.5 0.95,1.48 -0.75,3.04 2.96,0.4 0.02,-1.54 0.66,-0.56 1.17,4.46 2.89,1.35 2.12,-1.43 1.99,0.46 2.15,8.1 -0.18,1.3 1.31,2.58 1.6,0.92 0.52,1.34 -0.65,0.56 0.86,0.28 0.21,0.85 4.85,-0.34 1.3,-1.13 0.32,0.5 1.51,-0.28 0.76,-0.92 1.13,0.18 -0.02,1.56 0.9,0.89 1.46,-0.88 0.59,0.39 0.76,-0.92 2.15,-0.85 0.6,-1.17 0.43,0.14 0.51,-2.37 1.79,-1.95 7.61,3.46 2.67,0.48 0.05,0.6 1.23,-0.19 1.59,0.9 1.65,-0.06 0.9,0.88 0.8,-0.32 2.28,0.95 1.5,-0.29 1.19,0.46 0,0 -2.36,4.34 -4.17,4.16 -0.32,0.86 0.39,0.86 -2.34,1.74 -2.32,4.8 -0.04,1.56 -1.44,3.04 0.23,1.64 1.28,0.11 0.29,0.89 -0.08,1.38 -0.48,-0.38 -0.75,0.66 -1.01,2.09 -0.1,0.89 0.92,1 -2.99,3.3 -1.07,1.88 -0.12,1.56 -1.22,1.39 -0.29,-0.57 -0.65,0.34 -0.38,1.24 -0.18,0.51 -0.09,1.36 -3.24,2.92 -0.02,1.15 1.12,-0.7 1.12,0.47 0.47,-0.15 0.96,1.28 1.1,-0.35 0.64,1.35 -3.11,0.98 -0.01,1.32 -0.88,0.05 -1.47,2.28 -2.38,1.36 3,-0.65 0.75,-1.64 1.84,-0.32 0.8,-0.34 -0.09,-1.02 2.06,-0.98 0.27,-1.41 0.92,1.69 -0.77,1.04 -0.05,1.24 -1.4,-0.32 -0.53,0.47 0.49,0.48 2.13,-0.54 -0.09,1.64 -2.4,0.34 0.1,-0.96 -1.01,-0.67 -0.12,0.8 1.13,1.47 -0.93,0.68 -2.19,-0.42 -0.58,0.36 0.01,1 -0.37,0.02 0.03,-1.02 -3.53,0.45 -5.95,1.73 -1.69,1.1 -3.77,5.24 -0.07,2.77 -1.07,2.8 -6.58,4.91 -1.11,1.69 -1.58,0.73 -1.58,1.68 -3.73,1.74 -0.62,2.9 0.73,0.79 0.07,1.91 -0.85,0.48 -0.13,0.86 -0.89,0.79 -3.84,-0.91 -1.55,0.7 0.56,0.59 1.36,-1.07 0.81,0.74 0.71,-0.36 0.77,0.74 -1.13,1.07 0.16,0.59 -1.93,1.1 -1.44,0.11 0.01,0.94 -0.9,0.41 -0.19,0.75 -1.25,-1.14 -0.39,0.37 -0.81,-0.56 -1.69,0.27 -0.39,1.33 -0.86,-0.23 -0.37,1.09 0.36,0.19 -1.6,0.6 -1.09,-0.3 -0.82,0.65 0.42,0.7 -0.48,0.4 -2.83,-0.97 -1.07,0.64 -0.57,0.21 -0.76,1.21 -0.75,0.23 -0.37,-0.43 0,0 0.3,-2.12 0.67,0.03 0.16,-1.36 -1.18,-0.85 0.22,-0.75 1.28,-0.2 1.11,-2.09 -2.72,-1.5 -0.83,-1.29 -0.05,-0.63 1.11,-0.44 -0.1,-1.25 0.56,-0.22 0.06,-0.99 -0.66,-1.03 -1.93,-0.84 0.34,-1.1 1.9,-1.39 -0.6,-0.4 0.79,-0.95 -0.65,-1.02 0.81,-2.56 -0.49,-0.77 0.74,-1.57 -1.2,-0.8 -0.58,-2.01 -1.16,-0.18 0.07,-0.98 1.5,-0.91 -0.09,-1.24 -1.04,-0.55 0.79,-0.94 -0.21,-0.87 -1.91,-0.84 -1.29,-2.04 -0.09,-1.24 0.79,-0.94 0,0 0.35,-1.09 0,0 -0.92,-0.91 0.97,-2.28 -0.92,-0.91 0.39,-0.47 -1.03,-0.55 -0.23,0.72 0,0 -1.7,0.03 0,0 0.31,-1.7 0.67,-0.57 -0.96,-1.52 0.06,-3.18 -0.44,-0.15 0.42,-2.06 0.67,-0.57 0.14,-1.94 1.1,-0.42 0.62,-1.18 0,0 0.19,-1.33 0,0 1.06,-1.04 1.16,-3.58 0.45,-3.62 0.51,-0.82 1.81,-0.38 0.51,-0.82 -0.68,-1.61 -0.55,0.21 -0.64,-1.01 -0.56,-1.97 -2.05,-1.09 -0.09,-1.22 -0.95,-1.51 -2.27,1.8 -4.09,8.12 -0.94,0.67 -0.87,-0.29 0.07,-0.97 -0.59,-0.4 -0.83,0.31 0.04,0.61 -1.19,-0.8 -0.83,0.31 -0.14,-4.01 -0.99,0.06 -1.07,-1.16 -1.3,-0.44 0.51,-0.82 -0.13,-1.82 -0.84,-1.87 0.39,-0.46 -0.59,-0.4 -1.1,0.42 -1.29,1.74 -1.81,0.37 -0.9,1.28 -3.2,0.89 -5.369997,0.14 -0.83,-1.87 0.31,-1.68 -0.79,-1.26 0.51,-0.81 -1.78,-1.2 -0.32,-0.5 0.39,-0.46 -1.07,-1.16 0.4,-0.46 -1.03,-0.55 0.91,-1.27 0,0 0.24,-0.71 0,0 0.55,-0.21 -0.32,-0.5 0.55,-0.2 -0.04,-0.61 0.99,-0.06 0.43,-2.02 -0.43,-0.15 0.79,-0.91 -0.47,-0.75 -2.21,0.82 -1.23,-1.4 0,0 -1.07,-1.15 0,0 -0.67,-1.61 -1.46,-0.7 0.47,-1.41 -1.14,-2.36 0.55,-0.2 0,-2.16 1.69,-0.01 -0.2,-0.85 0.79,-0.91 0,0 0.24,-0.7 0,0 0.04,-1.55 0.55,-0.2 -0.31,-0.5 -0.55,0.2 -0.67,-1.6 0.39,-0.45 -0.31,-0.5 1.06,-1.01 -0.59,-0.4 0,0 0.51,-0.8 0,0 -0.04,-0.6 0.55,-2.35 0.82,-0.31 -0.2,-0.85 0.55,-0.2 -0.28,-2.04 2.23,-2.36 1.81,-0.13 z" 
                fill="rgb(151, 144, 238)" 
                stroke="white" 
                stroke-width=".7px"
                title="Otago" 
                id="NZ-OTA" 
            />
        </svg>