<svg xmlns="http://www.w3.org/2000/svg" viewBox="307.60941 208.8417 51.81999999999999 58.31" width="51.81999999999999" height="58.31">
            <path 
                d="m 341.20941,208.8417 0.14,0.05 0,0 0.36,0.85 0.91,-0.08 0.43,0.66 2.88,-0.01 1.09,0.67 1.8,-0.69 1,1.52 1.35,0.57 0,0 -1.8,0.69 -0.31,1.48 -0.91,0.08 0.72,1.09 -0.37,0.42 0.35,1.5 1.01,1.52 1.26,-1.03 0,0 0.83,0.77 0,0 -0.45,1.26 0.58,0.87 -0.48,0.73 0.55,0.33 -0.48,0.73 0.29,0.43 1.18,-0.18 0.46,1.18 0.23,-0.63 0.92,-0.08 0.93,2.37 0,0 -0.52,0.2 0,0 -0.08,0.85 3.31,0.08 -0.23,0.63 1.27,1.42 -2.13,-0.27 -0.74,0.84 0.29,0.43 -0.66,-0.02 0.29,0.43 -0.92,0.08 0.58,0.87 -1.69,0.39 0.55,0.33 -0.77,0.3 0.55,0.33 -1.6,1.99 0.29,0.44 -0.81,-0.23 -0.48,0.74 -0.95,-0.45 -0.05,1.39 -1.83,2.63 0.32,0.97 1.07,0.13 1.54,1.32 0,0 -0.34,0.96 0,0 0.03,0.54 -0.66,-0.02 1.02,1.53 -0.23,0.64 1.87,2.3 0.92,-0.09 0.39,2.05 1.13,1.21 -1.15,2.66 0.54,2.27 -0.52,0.21 0.99,0.99 -2.58,1.02 0.3,0.44 -0.48,0.74 0.59,0.88 -0.63,0.52 0.3,0.44 -1.72,0.39 0.04,0.54 -1.44,0.81 -0.35,0.95 -1.5,0.24 -1.68,2.44 0.66,0.44 0,0 -2.33,0.32 -4.18,-2.11 -2.13,-0.46 -1.77,-1.91 -1.88,-0.76 -1.87,-1.63 -3.11,-4.22 -4.72,-2.75 -5.46,-0.82 -1.41,-0.91 -2.09,-0.27 -2.98,-1.76 -1.75,-2.7 -2.92,-2.73 -1.57,-6.59 1.56,-4.42 4.72,-3.64 1.37,-0.18 2.17,-1.5 0.98,-1.53 2.36,-0.25 4.34,-3.14 4.35,-0.25 2.05,0.51 2.91,-1.41 2.32,-3.41 2.4,-2.05 2.07,-7.42 z" 
                fill="rgb(151, 144, 238)" 
                stroke="white" 
                stroke-width=".7px"
                title="Taranaki" 
                id="NZ-TKI" 
            />
        </svg>