<svg xmlns="http://www.w3.org/2000/svg" viewBox="241.51940999999997 299.1917000000001 60.48999999999998 93.5399999999998" width="60.48999999999998" height="93.5399999999998">
            <path 
                d="m 283.88941,339.3817 2.08,0.26 -3.19,-1.77 -0.39,0.64 1.5,0.87 z m 17.59,-11.8 -1.83,2.23 -1.28,0.48 -0.29,1.55 -0.89,1.07 -2.01,1 -1.14,-0.97 -3.09,2.4 -0.02,1.1 0,0 0.77,1.3 -0.8,1.12 -0.68,-0.46 -0.41,0.67 0.56,2.04 -3.02,1.74 -1.07,-0.97 0,0 -1.48,-0.68 -0.4,-1.38 -2.65,-0.18 -0.38,-0.48 -0.23,-0.7 1.07,-0.05 0.32,-0.53 -0.92,-1.17 0.03,-0.94 -3.14,-3.3 0.76,-0.45 0.41,-2.01 -1.3,-1.82 0.86,-0.88 0.02,-0.49 -0.09,-0.99 -0.96,-0.1 0.42,-1.22 1.09,-0.11 0.27,-0.83 1.04,-0.62 -0.09,-0.76 -0.33,0.5 -0.61,-0.46 0.76,-0.51 0.06,-1.63 -0.66,-0.87 0.73,-0.52 -0.29,-1.13 -0.56,-0.25 -1.49,1.05 -0.13,-0.53 0.84,-0.34 -0.97,-3.74 -1.78,0.36 -0.21,1.75 -1.04,-1.25 -0.28,0.98 -2.22,1.28 -4.79,-3.62 -1.74,-2.9 -0.1,-1.92 -1.31,-1.07 0.93,-0.43 0.54,-2.73 -0.48,-0.48 2.98,-3.62 5.25,0.26 4.98,1.62 -0.77,-0.68 -2.64,-0.98 -5.11,-0.81 -1.28,0.35 -3.05,-0.68 -2.05,0.7 -3.33,3.05 -0.11,0.67 0.96,-0.05 0.13,-0.8 1.48,0.07 0.41,-0.75 0.26,1.56 -1.89,0.2 -0.55,0.4 0.46,0.81 -0.87,-0.34 -1.81,1.25 -0.11,-0.5 1.41,-1.31 -0.54,-0.55 -3.43,2.4 -2.87,3.47 -4.27,3.35 -1.64,0.58 0,0 1.1,1.8 -0.48,3.29 1.16,-0.72 0.18,0.78 0.96,0.49 -0.49,0.76 1.03,1.6 0.53,-0.2 0.44,0.69 1.87,-0.14 0.44,0.69 -1.36,1.94 -0.94,0.07 -0.72,1.41 0,0 1,1.05 0,0 -0.61,1.09 0.3,0.46 0.94,-0.07 1.22,-2.17 1.12,0.72 1.17,-0.73 2.02,0.09 -0.31,1.55 1.27,0.95 0.22,1.35 1.09,0.16 0.34,1.02 2.3,2 0.69,2.03 1.74,-0.36 0.72,0.59 -1.35,1.93 -2.27,0.56 0,0 -1.32,0.49 0,0 1.22,1.83 -0.56,1.63 0.31,0.46 -0.64,0.52 0.39,1.56 -2.98,1.96 -1.94,-0.42 -0.04,-0.55 -1.7,0.92 0.61,0.91 -0.52,2.18 -1.06,0.39 0.04,0.55 -0.95,0.07 -1.14,1.27 0.28,1.88 -0.8,0.29 0.5,1.24 -0.38,0.42 0,0 -0.07,0.88 0,0 -1.33,0.49 -0.07,0.88 -0.99,-0.49 -1.18,0.72 0.77,1.14 -0.25,2.09 -1.3,-0.95 -0.22,0.65 -2.06,-0.1 -1.67,1.47 0.46,0.69 -1.25,1.61 0.35,1.02 0.53,-0.2 -0.08,4.35 0,0 -0.8,0.3 0,0 -0.07,0.89 -0.95,0.07 0.51,1.25 -1.25,1.62 0.89,0.83 0.44,2.15 1.69,0.53 -0.83,1.76 1.44,2.65 2.6,-0.11 0.82,1.72 0.96,-0.07 0.09,1.13 3.29,-0.08 0.68,3.52 -0.75,0.87 1.09,1.62 -0.07,0.9 0.53,-0.2 2.31,1.45 0.53,-0.2 -0.31,-0.46 0.49,-0.77 1.07,-0.41 0,0 1.75,-0.38 1.46,-2.3 1.86,-0.71 0.49,-0.76 -0.29,-1.92 1.28,-1.06 -0.4,-1.58 1.86,-0.7 0.2,0.79 1.22,-0.17 0,0 0.53,-0.2 -0.35,-1.02 0.51,-2.21 0.95,-0.07 1.02,-0.96 -0.35,-1.02 1.17,-0.73 0.29,-1.55 1.32,-0.5 0.07,-0.89 0.53,-0.2 0.22,-0.66 -1.03,-1.05 0.33,-0.98 0.79,-0.3 -0.09,-1.11 2.88,-3.09 -0.81,-1.7 0.37,-0.43 0.72,0.59 2.06,-1.35 2.19,-3.12 -0.02,-1.99 2.63,-1.01 0.07,-0.88 0.68,0.03 0.7,-1.41 0,0 -0.04,-0.56 0,0 0.29,-1.54 0.57,0.35 1.57,-0.61 0.98,0.48 1.98,-0.49 -0.5,-1.24 -1.59,-1.38 0.96,-1.52 0.78,-0.31 -0.39,-1.56 2.09,-0.83 0.8,-1.75 2.29,-1.5 -0.14,-1.67 2.09,-2.3 0.43,-1.33 1.19,-0.2 0.32,-1 1.97,-0.52 0.49,-2.21 -0.35,-1.01 0.93,-3.53 -0.53,-0.48 z" 
                fill="rgb(151, 144, 238)" 
                stroke="white" 
                stroke-width=".7px"
                title="Tasman District" 
                id="NZ-TAS" 
            />
        </svg>