<svg xmlns="http://www.w3.org/2000/svg" viewBox="341.40940999999975 99.1316999999998 73.91000000000025 139.63000000000005" width="73.91000000000025" height="139.63000000000005">
            <path 
                d="m 370.65941,99.1317 0.83,0.44 0.93,-0.35 0.36,2.07 0.78,-0.48 0.55,1.17 0.66,-1.03 0.62,0.18 1.75,1.57 -0.56,0.73 0.3,1.41 -0.55,0.4 0.92,0.56 0.75,-0.36 0.92,1.09 -0.28,1.37 0.44,0.79 -1.18,-0.04 0.16,1.16 1.03,-0.48 0.85,0.27 0.06,1.21 0.78,0.47 -0.71,1.79 2.11,-0.58 -0.76,-0.8 2.42,0.05 2.97,-1.73 0.62,1.29 0.93,-0.03 0.16,1.1 -1.36,0.07 -1.37,0.83 -0.26,1.55 -1.87,0.81 0.26,1.4 -1.16,0.27 -0.11,1.31 0.71,0.66 1.2,-2.46 0.61,0.22 1.08,-0.82 2.25,1.55 -0.32,1.29 1.71,2.58 -0.73,1.54 1.18,1.81 -0.61,-0.24 -1,2.05 0.19,0.63 1.09,-1.98 0.85,1.01 0.25,1.65 -0.09,2.4 -0.44,1.6 0.55,2.42 -0.41,0.38 -0.81,-1.77 -0.12,1.22 1,1.24 0.62,2.94 1.73,3.29 -0.19,1.44 0,0 -0.98,0.35 0.54,0.34 -0.33,0.92 -0.63,-0.04 0.48,1.16 -0.73,0.79 -0.54,-0.34 -0.86,1.11 0.42,0.65 0.51,-0.18 0.59,1.38 -1.56,0.04 -0.98,-1.51 -0.97,1.43 1.01,2.03 -0.99,0.9 1.3,2.46 -0.17,1.66 2.54,3.83 0.94,2.83 -0.76,2.68 1.34,0.56 -0.51,0.19 0.71,1.06 -0.22,0.62 0.94,0.44 -0.22,0.62 0.68,0.54 -1.39,0.79 0.49,1.68 0.8,0.23 0.06,1.05 1.71,0.15 1.37,1.08 0.21,1.26 1.91,1.41 2.61,0.07 1.91,1.4 -0.08,0.83 0.51,-0.2 0.57,0.85 -0.48,0.72 1.14,3.58 -0.51,0.2 1.11,3.06 0.51,-0.2 0.43,0.64 0.07,1.05 1.49,0.77 1.16,-0.18 1.41,1.6 2.25,0.47 1.56,1.81 -1.32,5.63 0.33,0.95 -3.49,-1.33 -1.25,2.91 -2.29,-0.99 0.92,-1.97 -0.72,-1.06 -1.17,0.19 0.03,0.53 -1.9,1.01 -1.97,-0.04 -0.07,-1.05 -0.8,-0.23 -0.65,-1.9 -2.31,2.78 -1.06,-0.13 0.21,1.26 -0.62,0.51 0.32,0.95 2.08,-0.27 0.47,1.17 0.77,-0.3 3.24,1.44 -0.51,0.2 -0.04,1.36 -1.29,2.39 3.28,3.85 -1.61,1.44 -4.02,-1.13 -0.26,2 -0.51,0.2 0,0 0.47,1.17 0,0 0.99,0.97 -0.66,-0.01 0.76,1.6 0,0 2.01,2.46 0,0 1.47,0.24 0.33,-0.94 1.06,0.13 0.18,2.64 0.88,1.28 -0.84,1.15 0.73,1.07 -0.04,1.37 -0.92,0.09 -0.99,0.94 0,0 0.29,0.43 -2.17,1.13 -0.07,0.85 0,0 -1.36,-0.55 -2.43,1.23 -4.38,-0.18 -0.3,1.48 -3.09,1.22 0.55,0.33 -0.22,0.63 -1.51,1.14 0.59,0.86 -1.18,0.19 -1.22,1.57 -2.17,-0.78 -0.22,0.64 -1.62,-0.46 -1.44,0.29 -4.3,-1.04 2.94,-5.8 0.75,-2.75 -1.39,-1.09 0.45,-1.26 -0.55,-0.33 1.29,-0.5 0.04,-1.38 1.48,-1.66 -2.13,-0.26 -2.61,0.47 -0.36,-1.49 1.19,-2.09 -1.6,-2.37 1.45,-2.19 -1.01,-1.5 -0.51,0.2 -0.9,-1.82 2.04,-3.22 0.45,-1.25 -0.32,-0.96 1.99,-1.85 0.39,-2.31 -1,0.92 -2.71,0.77 -1.55,-1.83 -2.09,0.26 -1.09,-0.66 -1.43,0.28 -0.23,0.63 -1.54,0.59 -0.49,-1.7 -0.85,1.14 0.21,1.27 -0.95,-0.45 -0.71,1.35 -0.92,0.08 -0.23,0.63 -1.29,0.49 -1.09,-0.67 -1.43,0.28 -0.95,-0.45 -0.74,0.83 -0.95,-0.45 -1.11,1.24 -1.54,0.59 -1.97,-0.06 0.49,1.71 -0.4,-0.12 -0.83,1.67 0.32,0.97 -1.57,0.06 -1.51,1.12 0,0 -1.34,-0.57 -1,-1.52 -1.8,0.69 -1.09,-0.67 -2.88,0.02 -0.43,-0.66 -0.91,0.08 -0.36,-0.85 0,0 0.54,-10.02 0.58,-2.41 -0.43,-3.48 0.81,-0.08 0.18,-1.03 2.14,-2.83 -0.06,-5.16 -1.4,-4.37 0.29,-0.33 0.28,0.55 1.65,0.29 1.59,-1.82 -0.53,1.17 0.14,0.36 0.52,-0.41 0,1.13 0.7,0.1 0.35,-0.78 0.44,1.38 1.19,-0.59 0.26,-0.28 -1.36,-0.04 0.37,-1 3.41,-1.62 -0.98,-0.53 -0.11,-0.82 -1.21,0.17 -0.37,0.51 -0.29,-0.99 -1.1,1.84 -1.15,0.15 0.61,-3.08 1.08,-0.66 -0.09,0.59 1,0.26 -0.08,-0.68 1.66,-2.46 -0.79,-0.58 -1.67,0.33 -0.32,1.35 0.57,0.49 -1.47,0.72 -1.49,-7.06 0.78,-1.65 1.88,-0.4 0.75,-0.91 1.33,-0.45 1.41,0.74 0.51,-0.1 -0.3,-0.54 0.61,-0.01 0.5,0.58 0.8,-0.97 -0.68,-0.41 -1.5,0.33 0.57,-0.77 1.5,0.1 -0.62,-1.16 -1.68,0.48 -0.21,1.58 -1.41,-0.81 0.22,0.71 -1.24,0.52 -1.73,-8.04 -0.96,-1.66 -0.03,-1.89 -2.62,-6.17 0.04,-3.11 0.45,0.78 1.04,-0.21 1.68,-2.58 0.92,-0.5 0,0 1.61,-0.96 0.09,-1.36 2.61,0.64 0.09,-1.36 0.63,-0.5 -0.54,-0.86 2.34,0.2 0.74,-1.33 -0.97,-2.03 -0.94,-0.98 -0.37,0.4 -0.29,-0.95 0.49,-0.71 0.8,0.77 1.29,0.06 0.82,-2.68 1.73,-2.22 0.55,0.86 2.73,0.31 0.07,-1.87 0.76,-0.28 1.33,1.09 2.59,-0.74 0.45,-1.06 0,0 0.76,2.49 -0.13,4.04 1.38,3.04 2.64,0.66 4.62,-2.3 0.63,0.25 -0.9,-2.9 0.32,-2.41 -0.97,-4.23 -2.76,-3.57 -0.88,-2.32 1.12,-0.42 -0.26,-0.77 -0.18,-0.47 0.69,-0.62 2.15,-0.08 0.34,-0.82 -0.97,-1.7 -0.29,-0.74 -1.65,-1.02 0.67,-2.58 -0.39,-1.75 -0.05,-0.75 -1.18,-1.46 -2.36,-1.29 -0.71,-1.54 0.02,-2.04 0.57,0.16 0.11,-0.6 0.83,-0.34 z" 
                fill="rgb(151, 144, 238)" 
                stroke="white" 
                stroke-width=".7px"
                title="Waikato" 
                id="NZ-WKO" 
            />
        </svg>