<svg xmlns="http://www.w3.org/2000/svg" viewBox="341.23940999999996 308.14169999999996 64.7299999999999 48.54000000000008" width="64.7299999999999" height="48.54000000000008">
            <path 
                d="m 354.17941,315.7617 0.34,0.35 -0.77,1.29 -1.84,1.81 -0.7,-0.13 1.94,-3.32 1.03,0 z m 7.33,-5.98 1.31,0.14 0.05,0.54 1.4,0.57 0.05,0.54 -0.93,0.09 0.21,0.76 1.24,0.35 0.62,-0.53 1.14,0.67 1.67,-0.94 1.51,0.24 0.16,-1.19 0.78,-0.31 0.88,0.78 1.77,0.14 1.26,-2.48 5.84,3.02 1.31,-0.53 0.32,-0.97 0.84,0.23 -0.05,-0.55 0,0 0.32,-0.98 0,0 1.88,-0.19 0.73,0.55 0.37,-0.43 0.73,0.55 -0.37,0.43 0.57,0.33 -1,2.38 1.67,0.46 0.73,-0.86 0.57,0.33 0.37,-0.43 0.89,0.77 1.52,-1.18 0.89,0.77 0.42,-1.3 1.2,-0.2 -0.21,-0.76 1.1,0.12 0.58,-1.08 1.15,0.67 1.62,-0.09 -0.31,-0.44 0.42,0.11 0.11,-1.74 1.67,0.46 0.78,-0.31 0.78,1.1 2.34,0.48 0.57,1.76 0.99,0.46 -0.46,0.75 0.25,0.82 0,0 -0.34,2.19 -1.44,2.85 0.23,1.23 -3.28,2.9 -0.69,2.33 -0.74,0.56 -0.23,2.12 -1.16,1.9 -0.05,1.48 -2.83,2.87 -1.3,3.44 -3.25,1.62 -0.7,2.1 -2.01,2.3 -5.27,2.74 -3.52,3.81 -3.04,1.19 -0.38,0.94 -2.57,2.3 -2.52,-0.02 -1.75,1.92 -1.24,0.25 -1.37,-0.59 -0.81,0.25 -0.66,-3.5 -0.92,-0.73 1.07,-3.76 -0.19,-1.09 -2.81,-1.76 0.01,-1.56 -1.46,0.75 -2.55,-0.48 -2.07,1.04 -2.76,2.39 -0.65,-1.09 -1.33,-0.43 0.33,-1.18 -1.09,-1.48 2.51,-5.21 -0.97,-1.39 -1.25,-0.3 -2.67,2.16 -0.27,1.03 0.96,-0.05 -0.12,1.51 0.93,-1.58 0.45,0.53 -0.34,1.03 0.44,0.92 -0.73,0.7 -0.77,-0.94 -1.29,1.16 -0.9,-0.19 -1.12,0.88 -0.84,-0.89 -1.42,-0.2 -1.78,-2.93 1.22,-2.51 2.7,-0.93 1.03,-2.45 0.83,-0.29 1.71,-2.85 1.17,-0.2 0.58,-0.96 0.57,0.59 -0.91,0.92 0.09,0.68 0.68,-0.78 0.29,-1.54 -1.11,-1.14 0.31,-0.76 3.63,-2.53 1.15,-2.28 0.58,-3.75 2.97,-2.92 2.78,-6.22 z" 
                fill="rgb(151, 144, 238)" 
                stroke="white" 
                stroke-width=".7px"
                title="Wellington" 
                id="NZ-WGN" 
            />
        </svg>