<svg xmlns="http://www.w3.org/2000/svg" viewBox="85.40941299999997 313.3317 181.329997 197.0599999999999" width="181.329997" height="197.0599999999999">
            <path 
                d="m 247.79941,313.3317 1.1,1.8 -0.48,3.29 1.16,-0.72 0.18,0.78 0.96,0.49 -0.49,0.76 1.03,1.6 0.53,-0.2 0.44,0.69 1.87,-0.14 0.44,0.69 -1.36,1.94 -0.94,0.07 -0.72,1.41 0,0 1,1.05 0,0 -0.61,1.09 0.3,0.46 0.94,-0.07 1.22,-2.17 1.12,0.72 1.17,-0.73 2.02,0.09 -0.31,1.55 1.27,0.95 0.22,1.35 1.09,0.16 0.34,1.02 2.3,2 0.69,2.03 1.74,-0.36 0.72,0.59 -1.35,1.93 -2.27,0.56 0,0 -1.32,0.49 0,0 1.22,1.83 -0.56,1.63 0.31,0.46 -0.64,0.52 0.39,1.56 -2.98,1.96 -1.94,-0.42 -0.04,-0.55 -1.7,0.92 0.61,0.91 -0.52,2.18 -1.06,0.39 0.04,0.55 -0.95,0.07 -1.14,1.27 0.28,1.88 -0.8,0.29 0.5,1.24 -0.38,0.42 0,0 -0.07,0.88 0,0 -1.33,0.49 -0.07,0.88 -0.99,-0.49 -1.18,0.72 0.77,1.14 -0.25,2.09 -1.3,-0.95 -0.22,0.65 -2.06,-0.1 -1.67,1.47 0.46,0.69 -1.25,1.61 0.35,1.02 0.53,-0.2 -0.08,4.35 0,0 -0.8,0.3 0,0 -0.07,0.89 -0.95,0.07 0.51,1.25 -1.25,1.62 0.89,0.83 0.44,2.15 1.69,0.53 -0.83,1.76 1.44,2.65 2.6,-0.11 0.82,1.72 0.96,-0.07 0.09,1.13 3.29,-0.08 0.68,3.52 -0.75,0.87 1.09,1.62 -0.07,0.9 0.53,-0.2 2.31,1.45 0.53,-0.2 -0.31,-0.46 0.49,-0.77 1.07,-0.41 0,0 0.31,0.46 -0.86,1.2 0.09,1.13 -0.69,-0.03 -0.09,2.37 -1.18,0.74 -0.58,-0.36 -2.13,0.82 -2.38,2.96 -2.02,0.49 -0.18,1.24 -1.93,1.63 -0.02,1.48 -2.25,1.16 -0.82,1.79 0.31,0.47 -0.53,0.21 0.31,0.47 -2.67,1.03 -0.58,-0.36 0,0 -1.76,0.39 0,0 0.2,0.81 -2.14,0.83 -0.29,1.59 -1.29,1.09 0.13,1.72 -1.23,0.18 -0.34,1.02 -1.18,0.75 -2.19,0.26 0.06,2.63 -1.07,0.42 -0.22,0.68 0.74,0.6 -1.41,1.44 -0.81,0.31 -1.05,-1.07 -1.99,1.07 -1.01,-0.5 -2.84,0.81 -0.89,-0.83 -1.03,0.99 -0.85,-0.26 -0.49,0.78 0.31,0.47 -1.3,1.09 -0.54,0.21 0.23,-0.68 -1.28,-0.39 -0.92,0.65 -1.39,-0.06 -0.23,0.68 0.43,0.13 -3.03,2.05 0,0 0.4,1.62 0,0 -0.92,0.65 0.09,1.15 -1.22,0.34 -0.58,-0.37 -1.57,1.2 -0.31,-0.47 -0.81,0.31 0.2,0.81 -0.65,0.55 -1.01,-0.5 0.31,0.47 -0.81,0.31 0.2,0.81 -1.19,0.75 0.63,0.94 -1.35,0.52 -0.07,0.92 -1.26,1.67 -1.51,0.28 0.07,-0.91 -0.85,-0.26 -1.38,2.01 -0.81,0.31 -0.02,1.49 -1.78,0.39 -0.07,0.92 -0.81,0.31 -0.31,-0.47 -1.58,1.2 -2.1,-0.09 0.52,1.29 -1.78,0.39 -1.03,0.99 0.63,0.95 -1.68,1.54 -0.06,0.92 -1.24,0.18 -0.2,-0.81 -1.24,0.18 -0.47,-0.71 -0.49,0.78 -1.88,0.72 -0.44,1.36 -1.23,0.18 -0.98,1.56 -1.87,0.72 -0.95,-1.42 -2.2,1.74 -1.65,0.04 -1.72,2.45 0,0 -1.22,0.17 0,0 -0.44,1.36 -2.02,0.48 0.46,2.22 -0.44,1.37 -2.24,1.17 0.04,2.09 -1.02,1 -1.23,0.17 0.47,0.72 -0.65,0.55 0.09,1.17 -1.12,-0.17 -0.22,0.69 -1.61,0.61 0.09,1.17 -1.39,-0.07 -0.83,1.81 -2.65,1.6 -0.41,1.95 -0.7,-0.04 -0.72,1.47 -0.81,0.3 0,0 -0.74,-0.62 -2.05,0.46 -1.55,-0.32 -0.45,1.37 0.63,0.97 -0.57,1.71 -1.94,0.12 -1.15,1.33 -1.67,0.02 -0.46,1.37 -2.79,1.94 -1.6,-0.92 -0.87,-2.4 -1.09,0.4 0.32,0.49 -0.55,0.2 -0.19,1.28 -0.82,0.3 -3.79,-0.13 -0.68,-1.57 -2.57,1.24 0.04,0.59 -2.5,0.3 0.2,0.84 -1.64,0.6 0.52,1.34 -1.21,0.75 0.36,1.09 -3.71,1.05 -0.07,0.94 -0.82,0.3 0.24,1.44 -1.04,3.14 0.32,0.5 -1.28,1.7 0,0 -0.94,0.65 0,0 -1.6,1.2 0.2,0.85 -1.73,-0.59 -0.47,-0.74 -1.09,0.4 -2.88,2.91 -0.86,-0.29 -2.19,0.81 -1.44,1.46 -3.329997,0.63 -1.02,-0.54 -0.82,0.31 0,0 -0.31,-0.49 0.82,-2.45 0,0 0.23,-0.7 0,0 0.39,-0.45 -0.9,-0.88 1.49,-0.86 -0.04,-0.6 0.98,-0.06 0.23,-0.7 -1.72,-0.57 0.23,-0.7 -1.33,-1.02 0.39,-0.45 -0.39,-1.68 -1.4,-0.07 -1.05,-1.11 -1.82,-0.21 -3.38,1.6 -2.22,-0.65 0,0 -1.77,-0.99 2.07,-0.84 1.92,-2.24 2.77,-2.32 1.1,-0.31 0.74,-2.12 2.1,-1.65 0.08,-1.86 1.49,-1.32 -0.07,-0.92 5.759997,-0.29 0.7,-0.63 0.67,0.15 1.18,-1.42 1.83,-0.56 -0.31,1.11 1.09,0.95 2.32,0.02 3.24,-1.11 1.97,-1.09 3.04,-3.36 2.83,-1.29 4.03,-3.44 2.39,-2.9 4.48,-3.06 3.03,-1.22 1.13,-1.64 2.07,-0.89 1.5,-0.07 1.45,0.25 1.97,-2.18 0.43,0.83 0.91,-0.03 2.35,-2.54 1.54,-0.27 4.12,-6.83 1.91,-1.38 3.02,-0.31 2.36,-1.65 2.68,-3.97 1.25,-0.47 3.63,-3.44 3.34,-5.47 4.96,0.06 -0.07,-1.09 -0.97,0.02 1.83,-2.47 3.3,-1.45 1.18,0.16 1.86,-0.68 6.02,-4.08 5.62,-5.52 3.01,-5.25 4.34,-4.34 3.15,-4.92 2.74,-6.81 0.32,-2.05 1.03,-0.53 2.4,-5.39 1.11,-8.23 1.46,-4.07 0.89,-0.78 0.92,-5.29 1.48,-1.49 0.37,-1.51 0.3,-2.11 -0.51,-0.72 -0.06,-2.82 0.46,-0.39 3.05,0.29 1.6,-1.2 3.4,0.62 1.66,-0.92 6.16,-5.94 4.23,-8.42 3.12,-3.09 1.64,-11.33 -0.3,-3.1 0.51,-3.83 -0.53,-6.83 1.19,-1.25 0.09,-1.27 3.32,-3.99 z" 
                fill="rgb(151, 144, 238)" 
                stroke="white" 
                stroke-width=".7px"
                title="West Coast" 
                id="NZ-WTC" 
            />
        </svg>