<svg xmlns="http://www.w3.org/2000/svg" viewBox="409.4781299999996 169.92737 146.5799999999998 139.26000000000005" width="146.5799999999998" height="139.26000000000005">
            <path 
                d="m 464.82813,173.25737 5.98,-3.33 9.9,0.96 3.05,1.19 6.29,5.43 5.07,3.31 5.57,-0.69 2.35,1.6 4.41,-2.99 9.97,1.57 4.68,-0.27 2.27,0.79 -0.65,1.76 0.37,0.87 4.94,2.9 4.1,1.02 4.35,-1.54 3.56,0.21 0,0 1.76,8.65 -1.13,2.86 1.21,4.69 -0.33,1.99 -16.67,-1.01 -1.2,1.74 -0.4,2.67 1.31,1.72 1.67,0.38 -2.1,0.16 -0.85,1.67 -1.83,-0.77 -1.49,1.92 -2.85,-0.3 -1.37,2.07 -0.06,5.94 1.64,3.11 -0.69,0.2 -2.61,-1.57 -1.63,0.89 -1.63,-0.75 -2.38,1.76 -2.08,-1.1 -1.91,0.48 -2.72,3.68 -0.71,5.73 -0.89,-0.74 -0.33,0.37 -0.6,-0.28 -0.61,0.73 -0.17,-0.57 -0.79,0.98 -0.08,2.35 1.67,1.68 0.03,0.99 -0.69,0.59 0.96,1.6 0.93,-0.99 -0.85,-1.15 0.99,-2.63 3.57,4.31 1.48,-1.18 0.87,-2.51 2.17,1.34 1.74,0.13 -0.24,-1 0.85,-1.28 2.35,2.44 1.6,-0.36 0.17,-1.55 0.95,1.47 1.39,-0.32 -0.35,1.51 0.59,0.44 -0.82,1.68 1.45,1.56 1.5,0.3 1.51,-1.24 0.32,-0.88 0.45,-0.21 -0.24,0.86 0.71,0.08 0.15,1.31 2.39,-0.1 -0.45,1.41 -1.6,0.32 0.1,1.72 1.41,0.82 -1.29,0.87 0.15,1.15 2.51,4.46 1.69,0.24 0.32,-0.91 2.67,-0.25 -0.38,1.62 -0.89,0.4 2.1,1.79 -2.37,0.91 0.29,0.7 -1.7,1.04 -0.02,1.34 1.04,1.54 -1.24,0.36 0.01,1.9 2.21,0.78 0.87,0.95 -0.6,0.08 -0.02,1.17 3.84,2.45 1.15,1.8 0.98,0.08 0.39,1.67 1.53,0.94 -0.57,1 0.89,0.11 0.5,0.95 0.67,-0.34 0.26,1.53 1.86,0.86 1.53,2.09 0.31,2.06 1.28,1.1 1.88,-0.18 1.68,2.76 0.49,2.71 0.04,-0.87 2.18,0.96 -0.49,1 2.58,3.32 -0.35,0.68 2.18,3.22 0.32,1.89 -2.54,0.73 -3.04,-1.47 -1.67,1.69 -0.39,-0.68 -1.42,0.6 -0.71,-0.96 -0.4,1.01 -0.7,-0.69 -1.06,1.31 -1.1,-1.18 -0.09,-1.42 -2.1,-0.34 -1.78,-1.43 0.21,1.33 -0.6,0.56 -0.45,-1.47 -0.63,1.61 -1.35,-1 -1.17,1.54 -0.01,1.27 0.69,0.35 -0.53,1.35 1.22,0.18 0.24,1.89 -2.02,-0.8 -0.01,1.55 -1.15,-1.4 -0.92,0.67 -0.29,-0.84 -1.19,0.17 0.69,-1.47 -0.86,-0.21 -0.45,0.85 -0.54,-1.1 -2.28,-0.05 0.55,-0.54 -1.08,-0.98 -0.45,0.8 -3.36,-0.58 0.47,0.91 -1.75,-0.06 -1.3,2.07 -0.26,-0.8 -1,0.73 -0.34,-0.77 -1.31,0.85 -0.38,-0.58 -0.4,0.54 -1.15,-0.47 0.73,1.1 -1.43,1.31 -0.67,0.18 -0.25,-1.1 -1.58,2.12 -0.11,-0.71 -1.32,-0.07 -0.73,1.77 0.91,0.51 -1.32,0.59 0.95,1.19 -1.13,0.24 -2.03,-1.58 -3.03,-5.6 -0.77,0.85 -3.19,-0.81 -0.35,-1.22 -1.78,0.03 -1.62,-3.04 -1.49,0.05 -0.65,-1.36 -1.7,-0.51 -2.57,-6.67 -3.11,-0.41 -0.98,-2.76 -0.85,0.21 -0.58,-1.02 -1.15,-0.09 -0.66,-1.33 -1.66,0.05 -0.54,-0.87 -2.01,0.53 -0.93,-0.74 -1.77,0.87 -0.6,1.8 -1.68,0.71 0.3,2.56 -1.49,-0.42 -0.47,-0.95 -1.24,0.66 -1.48,-0.91 -2.12,0.64 -2.25,-2.51 -4.01,-0.91 -2.98,1.34 0,0 -2.22,-2.98 -5.12,-3 -2.7,-3.63 -0.34,-2.12 2.79,-3.29 -0.16,-1.61 -2.32,-4.6 0.03,-1.65 1.56,-3.4 -2.5,-1.87 -1.81,-3.93 -3.54,-3.03 -0.97,-4.24 1.28,-1.52 7.2,-1.23 1.84,-2.28 0.07,-2.48 -0.84,-0.85 -4.23,1.18 -1.98,-0.88 -1.34,-3.89 -2.54,-3.05 -1.6,-4.4 -3.34,-4.21 -3.86,-8.94 -3.69,-3.39 -4.53,-5.96 0,0 0.37,-3.62 -2.91,-5.52 -1.37,-1.29 -3.98,-0.45 -2.73,-3.35 -0.03,-2.96 1.13,-2.97 -1.98,-7.05 0.44,-2.58 -3.11,-0.05 0,0 1.68,-0.83 4.57,0.59 0.64,0.72 -1.05,1.86 0.92,1.36 7.6,-0.07 6.32,-4.47 4.95,0.25 3.08,-0.61 3.91,1.64 5.55,-1.09 1.23,0.32 1.8,2.89 2.01,0.57 7.24,-3.89 4.9,-0.67 z" 
                fill="rgb(151, 144, 238)" 
                stroke="white" 
                stroke-width=".7px"
                title="Burgas" 
                id="BG-02" 
            />
        </svg>