<svg xmlns="http://www.w3.org/2000/svg" viewBox="474.0281300000002 28.747375000000034 138.23999999999995 94.21999499999995" width="138.23999999999995" height="94.21999499999995">
            <path 
                d="m 547.67813,35.407375 4.28,15.68 11.54,6 12.2,5.46 10.83,0.82 9.72,2.53 13.01,-0.7 -0.54,2.02 0.48,2.54 -1.41,2.25 0.5,4.52 1,2.13 -1.01,5.1 3.99,8.02 -1.15,3.85 -4.15,8.539995 -4.11,4.68 -1.58,0.5 -2.62,3.68 -0.41,2.94 -1.83,-2.85 -3.32,-0.9 -2.69,-2.18 -5.04,-1.58 -5.82,0.39 -2.65,1.4 -4.89,0.72 -4.2,-1.08 -6.39,4.28 -3.45,8.8 0,0 -2.25,-1.88 -2.68,-5.07 -3.16,-3.43 -1.48,-0.6 -4.12,-0.21 -4.47,5.21 -1.27,0.47 -8,-10 -2.21,-1.78 -2.04,-4.05 -5.3,0.25 -5.17,-2.599995 -0.03,-5.13 -1.84,-1.65 -2.08,0.27 -5.8,4.72 -2.4,0.06 -0.82,-0.88 -0.83,-5.69 -2.85,-3.73 -2.83,-1.82 0,0 -2.59,-4.75 -1.11,0.06 -5.84,3.99 -1.5,-0.58 -4.26,-5.93 -4.52,-0.63 -2.49,-2.96 0,0 1.54,-0.23 0.37,-0.85 0.04,-1.38 -1.32,-2.67 0.21,-2.07 6.96,-7.95 5.7,-1.2 9.71,-9.15 1.19,-0.24 2.03,2.31 1.99,-0.37 3.04,-3.65 1.94,-4.91 2.46,2.64 3.05,0.38 0.01,-2.78 3.73,-5.35 2.15,-1.7 4.81,-1.66 0,0 0.64,1.59 2.42,0.73 10.65,-1.73 7.11,-5.64 2.65,3.28 z" 
                fill="rgb(151, 144, 238)" 
                stroke="white" 
                stroke-width=".7px"
                title="Dobrich" 
                id="BG-08" 
            />
        </svg>