<svg xmlns="http://www.w3.org/2000/svg" viewBox="247.37812999999989 136.80736999999996 73.90000000000003 61.08000000000007" width="73.90000000000003" height="61.08000000000007">
            <path 
                d="m 268.83813,139.70737 0.52,3.9 3.11,2.11 3.01,3.93 6.23,1.61 5.01,-2.29 2.71,-0.03 1.03,1.27 -1.35,4.23 0.76,2.03 7.02,-0.35 2.45,2.11 3.29,-0.71 4.11,1.78 2.15,-0.43 2.63,2.22 3.97,1.05 0.8,1.43 -0.16,1.4 -4.02,3.85 -0.09,4.73 2,2.14 4.23,0.54 0.07,3.63 2.03,1 -0.34,2.05 -2.63,1.79 -1.25,1.77 1.64,2.82 0.58,3.38 2.93,2.32 0,0 -0.19,1.66 -2.33,0.96 -3.23,-2.8 -2.91,2.21 -1.83,0.18 -3.55,-0.8 -2.88,-2.92 -3.14,-0.24 0.43,3.62 -1.16,1.03 -11.92,-3.3 -3.7,0.56 -6.24,-3.77 -2.84,2.19 -3.52,0.27 -4.22,2.51 -7.19,-0.91 0,0 0.52,-4.09 -2.83,-5.58 -4.52,-6.06 -3.77,-1.02 -1.17,-1.37 -1.71,-5.82 0,-3.91 1.17,-3.8 1.76,-2.52 4.47,-1.58 -0.05,-3.37 -1,-2.43 0.07,-3.92 1.03,-2.3 2.78,-1.91 -0.28,-8.95 5.69,2.06 z" 
                fill="rgb(151, 144, 238)" 
                stroke="white" 
                stroke-width=".7px"
                title="Gabrovo" 
                id="BG-07" 
            />
        </svg>