<svg xmlns="http://www.w3.org/2000/svg" viewBox="285.5181300000001 266.47737 128.32999999999987 119.03000000000003" width="128.32999999999987" height="119.03000000000003">
            <path 
                d="m 376.57813,266.47737 3.01,2.15 4.32,0.94 3.28,2.99 2.81,0.21 3.16,1.35 2.46,-1.41 2.51,2 3.89,-0.92 1.56,2.76 3.63,-0.4 -1.05,7.49 0.6,6.27 -2.44,2.37 -0.07,2.77 1.36,0.84 0.8,2.5 1.19,1.09 0.23,2.09 3.9,4.73 0,0 2.12,2.91 -1.55,2.38 1.28,1.75 -1.41,0.74 -0.12,1.56 -1.36,1.14 -1.11,2.94 -15,0.06 -1.99,0.74 -3.58,8.68 -0.05,1.86 2.87,3.21 -2.8,-0.48 -2.17,0.86 -2.24,-0.36 -3.13,-1.4 -2.21,-2.35 -1.13,0.96 -1.77,-0.19 -1.86,-0.75 -0.87,-1.21 -4.77,2.48 -1.09,2.26 -2.61,-0.46 -1.58,0.98 -0.8,2.67 1.13,5.38 1.71,0.67 0.57,1.99 2.22,0.43 0.45,-0.94 1.36,-0.28 0.11,2.35 1.52,1.23 -0.58,6.49 2.92,0.33 0.79,4.54 -1.28,1.63 -0.17,1.69 -1.59,0.76 -0.07,0.88 0.47,1.45 1.65,0.72 2.49,3.65 -3.05,0.45 -1.12,1.5 0.55,1.66 -0.48,2.13 -1.01,1.78 -1.17,0.37 -0.59,2.56 -3.18,-0.11 -1.03,1.29 -5.09,-0.49 -2.75,0.92 -0.89,2.27 -2.85,0.93 -3.13,-0.27 0,0 -0.47,-4.21 -1.02,-1.77 -8.46,-8.06 -0.18,-3.42 0.83,-3.31 -1.38,-0.66 -1.68,-2.59 -2.13,-0.94 -0.12,-2.29 1.93,-6.44 1.77,-2.02 2.42,-1.25 -1.65,-5.34 -5.84,-0.78 -1.96,0.86 -0.8,2.28 -2.74,1.83 -3.74,-1.66 -2.39,1.53 -1.02,-2.58 0.99,-1.73 0.39,-2.79 -2.07,-4.14 -0.9,-5.92 -2.21,-2.78 -1.21,-0.27 -4.71,2.02 -8.48,-2.61 -3.44,-2.66 -3.94,-1.51 -2.35,-5.64 -1.26,0.32 -0.93,2.12 -1.42,0.54 -1.91,2.17 -3.11,-12.3 1.32,-4.43 0,0 2.56,-3.16 0.23,-6.41 -0.65,-4.05 3.98,-10.34 0,0 2.76,0.3 4.71,2.91 1.08,-0.06 3.44,-4.56 0.41,-3.26 1.3,-0.3 2.69,2.05 1.64,0.07 0.93,-1.81 -1.65,0.15 -0.18,-0.75 4.23,-2.8 1.67,-2.68 1.19,-0.6 1.24,2.46 0.14,8.79 1.09,-0.06 3.73,-3.4 1.83,-0.05 1.91,4.47 2.39,2.51 1.67,5.55 1.99,0.11 1.34,-1.2 2.24,-0.1 4.02,-2.3 1.53,-5.76 1.35,-0.9 2.76,2.1 3.4,0.1 2.35,2.27 4.26,0.53 4.18,8.54 2.09,0.59 3.25,-3.45 2.21,0.5 3.73,-0.95 -1.68,-8.21 -1.85,-4.23 0.14,-2.98 z" 
                fill="rgb(151, 144, 238)" 
                stroke="white" 
                stroke-width=".7px"
                title="Haskovo" 
                id="BG-26" 
            />
        </svg>