<svg xmlns="http://www.w3.org/2000/svg" viewBox="257.6681299999999 304.80737 93.04000000000002 91.41999999999996" width="93.04000000000002" height="91.41999999999996">
            <path 
                d="m 286.83813,304.80737 -1.32,4.43 3.11,12.3 1.91,-2.17 1.42,-0.54 0.93,-2.12 1.26,-0.32 2.35,5.64 3.94,1.51 3.44,2.66 8.48,2.61 4.71,-2.02 1.21,0.27 2.21,2.78 0.9,5.92 2.07,4.14 -0.39,2.79 -0.99,1.73 1.02,2.58 2.39,-1.53 3.74,1.66 2.74,-1.83 0.8,-2.28 1.96,-0.86 5.84,0.78 1.65,5.34 -2.42,1.25 -1.77,2.02 -1.93,6.44 0.12,2.29 2.13,0.94 1.68,2.59 1.38,0.66 -0.83,3.31 0.18,3.42 8.46,8.06 1.02,1.77 0.47,4.21 0,0 -2.82,1.59 -2.36,0.4 -1.38,-1.09 0.19,-1.94 -1.75,0.08 -2.93,-2.49 -0.69,1.28 -2.65,0.54 -1.1,1.49 -1.67,-0.42 -1.53,1.17 -2.51,-0.28 -1.28,3.4 -2.28,-1.96 -2.55,-0.96 -4.39,1.28 -5.11,-1.71 -1.66,1.19 -1.32,3.99 -2.76,-1.18 -2.66,-0.19 -4.31,1.69 -0.39,1.25 -1.22,-0.17 -3.08,1.22 -1.61,-0.41 -3.11,2.39 -3.61,-0.54 -1.26,1.37 -2.03,-1.23 -3.14,-0.35 -1.08,-4.26 -1.56,-1.51 -2.17,-0.82 -0.33,-1.39 -1.04,-0.51 0,0 0.32,-2.29 -2.03,-1.06 -0.23,-3.71 -0.95,-2.04 3.75,-4.82 -0.43,-0.99 -1.92,0.27 -0.67,-0.58 1.31,-4.61 -0.7,-2.46 -0.94,-1.34 -2.79,-1.25 -5.54,2.66 -5.05,-1.88 -0.26,-3.45 -1.59,-4.69 -0.17,-1.93 1,-1.29 7.16,-2.62 2.1,-2.45 -0.27,-6.12 1.29,-4.77 -2.15,-5.88 -0.74,-3.12 0.4,-1.19 0,0 2.2,-1.07 1.8,-2.63 1.78,-0.96 1.7,-4.49 3.62,-5.09 z" 
                fill="rgb(151, 144, 238)" 
                stroke="white" 
                stroke-width=".7px"
                title="Kardzhali" 
                id="BG-09" 
            />
        </svg>