<svg xmlns="http://www.w3.org/2000/svg" viewBox="0.7281293900000059 207.05737 114.09000060999999 87.61999999999995" width="114.09000060999999" height="87.61999999999995">
            <path 
                d="m 11.768129,207.05737 1.77,0.82 2.24,2.53 3.69,0.76 2.25,1.21 1.35,5.31 2.26,4.18 5.6,2.97 0.42,6.32 4.21,6.64 1.24,4.57 1.02,0.64 4.68,0.38 2.11,3.16 2.85,0 0.43,2.7 0.94,0.38 2.05,-2.08 1.31,0.32 1.64,2.15 1.21,0 1.26,-3.66 3.33,-1.14 1.03,-2.08 1.16,-0.7 1.97,0.45 1.03,1.89 3.78,1.95 3.12,-0.53 2.28,-3.75 0.8,-0.16 1.06,4.37 3.42,1.43 2.28,1.83 3.11,0.44 2.98,-2.26 0,0 2.65,1.14 3.46,-0.2 2.31,0.69 2.3,7.08 6.550001,5.31 0,1.36 -4.9,1.82 -2.480001,5.93 0.26,0.82 1.62,0.76 6.580001,-2.17 1.71,5.63 7.11,3.05 -0.21,2.4 -1.91,0.69 -1.97,3.01 0,0 -3.03,2.83 -6.68,1.81 -3.040001,-2.19 -3.36,-0.27 -12.29,-4.11 -1.22,0.28 -4.83,4.42 -9.47,2.38 -2.25,-2.94 -3.75,0.17 -1.51,-4.9 -0.97,-1.09 -1.88,1.37 -2.09,9.61 -3.92,1.89 0,0 -0.36,-0.92 -1.27,-0.48 -2.67,0.44 -2.45,-3.07 -2.26,0.99 -4.13,-1.08 -1.96,-2.75 -3.87,0.31 -4.71,-3.95 -2.66,-0.48 -1.07,-1.5 -2.14,-0.92 -1.92,-2.27 -1.63,-0.6 -1.77,-1.76 -1.03,-5.45 -3.12,-1.08 -2.0799996,-5.43 -1.53,-1.91 -0.91,0 -2.18,-3.06 -0.18,-1.35 -2.12,-2.37 -1.69000001,-0.62 0.42000001,-1.12 3.26,-0.51 0.62,-0.76 1.92,0.02 0.8,1.03 1.9,-1.32 0.9199996,-1.53 -0.29,-2.1 2.04,-2.48 -0.18,-1.82 4.03,-0.68 0.26,-2.01 1.18,-1.2 0.87,-5.27 1.45,-2.25 -1.2,-3.73 -2.41,-2.46 -2.33,-1.21 -2.7,-3.34 -3.0799996,-0.73 0.15,-2.81 2.5699996,-6.77 -1.0599996,-1.03 1.9799996,-2.87 z" 
                fill="rgb(151, 144, 238)" 
                stroke="white" 
                stroke-width=".7px"
                title="Kyustendil" 
                id="BG-10" 
            />
        </svg>