<svg xmlns="http://www.w3.org/2000/svg" viewBox="160.27813000000017 114.79736999999999 115.14999999999995 84.91000000000007" width="115.14999999999995" height="84.91000000000007">
            <path 
                d="m 164.74813,136.02737 1.5,-0.74 5.5,-0.58 3.19,-2.49 3.31,-0.92 6.36,1.66 6.1,-0.62 4.08,-1.94 1.8,0.12 3.37,-3.6 1.14,2.15 2.82,0.62 3.4,3.29 17.48,2.24 0.74,-1.53 -0.18,-4.48 0.55,-1.1 3.16,3.47 2.42,-4.41 4.52,-3.64 3.96,-1.69 4.58,0.24 2.62,1.84 4.66,1.66 2.84,-1.68 2.21,0 3.68,-3.59 2.49,-5.51 1.51,0.51 1.97,6.26 1.12,1.46 5.36,2.45 2.42,2.14 0,0 -0.24,3.46 -2.82,4.19 -0.11,3.84 -1.28,0.9 -2.14,-0.3 0,0 -5.82,-0.84 -5.69,-2.06 0.28,8.95 -2.78,1.91 -1.03,2.3 -0.07,3.92 1,2.43 0.05,3.37 -4.47,1.58 -1.76,2.52 -1.17,3.8 0,3.91 1.71,5.82 1.17,1.37 3.77,1.02 4.52,6.06 2.83,5.58 -0.52,4.09 0,0 -9.7,4.27 -2.19,-0.06 -4.01,-1.8 -9.18,1.52 -2.65,-0.77 -2.31,-4.37 -4.22,-3.32 -12.77,-1.51 -3.7,4.56 -9.28,0.17 0,0 -9.89,-2.85 -5.4,0.43 -6.97,-1.28 -0.21,-1.35 3.26,-2.17 0.05,-1.78 0.94,-1.54 -2.61,-1.96 -0.38,-4.74 -3.13,-2.21 0.68,-1.36 2.45,-1.8 -6.84,-3.66 -0.86,-6.28 -4.89,-2.44 -0.58,-3.54 -6.09,-0.31 0,0 -0.1,-6.66 5.43,0.01 z" 
                fill="rgb(151, 144, 238)" 
                stroke="white" 
                stroke-width=".7px"
                title="Lovech" 
                id="BG-11" 
            />
        </svg>