<svg xmlns="http://www.w3.org/2000/svg" viewBox="36.79812900000001 50.287375 89.85000099999999 96.819995" width="89.85000099999999" height="96.819995">
            <path 
                d="m 105.05813,50.287375 4.39,1.69 4.16,0.54 3.02,3.17 3.68,1.9 3.94,0.89 1.39,-0.4 0,0 -0.49,4.46 1.5,4.79 -0.32,7.93 -2.6,6.19 -3.11,3.24 -0.65,2.05 0.72,1.42 4.07,3.38 0.66,3.31 -4.62,0 -2.69,4.18 -5.48,-0.6 -2.84,-1.13 -1.85,0.89 -3.87,6.269995 0.59,6.82 -3.82,7.4 -5.310001,5.37 0.08,1.43 2.36,1.79 6.820001,1.42 3.32,2.23 0.36,2.13 -0.6,1.34 -3.7,-0.05 -1.4,1.72 0.03,2.96 1.06,2.3 0,0 -6.400001,-0.37 -2.23,1.72 -2.16,3.03 -4.14,0.1 -4.2,1.31 -11.14,-0.07 -2.3,-1.38 -3.05,-4.45 -3.94,-2.19 -2.5,-3.28 -1.87,-0.12 -2.68,1.45 0,0 -4.1,-2.93 -2.67,-4.17 -0.13,-1.28 -1.93,-1.16 -0.35,-2.9 -1.81,-4.47 -3,-1.7 -2.45,-2.76 -0.36,-1.8 -3.65,-2.05 0,0 1.56,-1.21 2.07,-4.06 0.46,-6.18 0.82,-1.119995 3.51,-1.71 3.02,-7.09 3.54,-3.55 2.25,-8.13 1.83,-2.53 7.29,-3.75 4.54,-0.82 0.95,-1.17 -0.31,-2.39 -0.81,-1.07 -8.47,-3.25 -0.57,-0.76 0.2,-2.08 8.02,-1.04 0.99,-0.47 0.82,-1.73 0,0 8.79,-1.58 7.43,-3.72 5.15,-1.54 z" 
                fill="rgb(151, 144, 238)" 
                stroke="white" 
                stroke-width=".7px"
                title="Montana" 
                id="BG-12" 
            />
        </svg>