<svg xmlns="http://www.w3.org/2000/svg" viewBox="136.74812999999997 209.91737000000023 74.91999999999996 129.78999999999996" width="74.91999999999996" height="129.78999999999996">
            <path 
                d="m 139.35813,272.45737 3.37,-3.4 4.39,-2.58 5.14,-6.81 2.18,2.74 3.19,-1.71 0.28,-1.21 -1.75,-3.46 2,-6.19 1.27,-0.89 3.99,-0.45 1.89,-1.66 3.69,-7.74 -0.18,-2.32 -1.28,-0.89 -5.04,2.18 -2.08,0.06 -1.47,-1.1 -3.75,-5.94 -1.37,-7.51 0.57,-1.6 5.79,-1.28 4.21,2.76 2.18,0.19 6.04,-6.54 2.8,0.55 1.95,-0.46 1.1,-4.92 4.27,-0.38 4.57,-1.98 2.87,1.62 3.26,0.8 1.93,7.44 1.23,2.25 2.88,-1.7 2.55,2.38 0,0 0.16,2.66 -0.76,2 -3.23,3.4 -0.55,2.66 3.79,9.33 0.4,3.8 4.54,4.93 0.19,4.01 -1.87,1.53 1.57,4.68 0.15,6.19 0.37,1.73 4.4,5.71 0.48,1.77 -0.74,1.24 -2.64,-0.2 -2.43,1.23 -0.21,5.08 -1.32,3.62 0.96,5.16 -0.33,4.71 -2.54,7.92 0,0 -0.29,4.3 -1.03,2.62 -1.17,1.55 -4.72,2.03 -2.39,3.21 -0.69,4.2 0.91,4.31 -1.59,0.38 -1.35,1.9 -2.91,1.6 -5.87,-1.47 -8.86,1.21 -1.21,8 0,0 -5.82,-4.57 -7.51,-7.61 -10.33,-6.66 -6.02,-2.12 -2.35,-2.64 -2.47,-17.2 0.35,-1.29 3.21,-3.3 3.88,-1.71 0.06,-0.62 -2.36,-1.84 0.35,-2.7 -1.69,-5.06 0.29,-3.62 -2.21,-1.33 -0.27,-2.57 z" 
                fill="rgb(151, 144, 238)" 
                stroke="white" 
                stroke-width=".7px"
                title="Pazardzhik" 
                id="BG-13" 
            />
        </svg>