<svg xmlns="http://www.w3.org/2000/svg" viewBox="8.548129399999997 178.39737 81.80999960000003 71.95999999999998" width="81.80999960000003" height="71.95999999999998">
            <path 
                d="m 26.288129,178.56737 1.71,2.04 1.68,-0.62 1.67,0.85 0.6,1.22 1.61,-2.24 0.85,0.6 0.79,-0.97 2.64,0.21 1.28,-1.26 0,0 1.13,1.11 0.65,3.36 4.01,-0.28 1.44,1.4 1.74,3.81 4.77,0.75 2.89,2.64 4.26,0.77 1.98,3.14 5.34,2.3 1.35,2.13 0,0 1.12,2.25 3.22,1.76 1.98,3.4 2.31,0.82 1.68,1.62 1.17,6.44 -0.95,2.2 4.52,0.78 3.79,5.68 2.59,-0.54 0.25,1.64 0,0 -1.93,2.6 -1.92,6.58 0.24,8.17 0.9,5.17 0,0 -2.98,2.26 -3.11,-0.44 -2.28,-1.83 -3.42,-1.43 -1.06,-4.37 -0.8,0.16 -2.28,3.75 -3.12,0.53 -3.78,-1.95 -1.03,-1.89 -1.97,-0.45 -1.16,0.7 -1.03,2.08 -3.33,1.14 -1.26,3.66 -1.21,0 -1.64,-2.15 -1.31,-0.32 -2.05,2.08 -0.94,-0.38 -0.43,-2.7 -2.85,0 -2.11,-3.16 -4.68,-0.38 -1.02,-0.64 -1.24,-4.57 -4.21,-6.64 -0.42,-6.32 -5.6,-2.97 -2.26,-4.18 -1.35,-5.31 -2.25,-1.21 -3.69,-0.76 -2.24,-2.53 -1.77,-0.82 0,0 -1.4,-1.33 1.08,-0.56 1.75,-3.76 0.88,-0.15 0.29,-2.39 -3.85,-4.9 -0.4,-1.9 -1.4299996,-1.88 -0.14,-2.36 3.3399996,-1.08 3.06,-2.46 0.92,-1.05 0.36,-2.13 1.37,-0.85 3.92,2.17 -0.03,-1.73 1,-1.94 z" 
                fill="rgb(151, 144, 238)" 
                stroke="white" 
                stroke-width=".7px"
                title="Pernik" 
                id="BG-14" 
            />
        </svg>