<svg xmlns="http://www.w3.org/2000/svg" viewBox="156.6381299999999 62.157374999999995 128.02000000000012 73.86999500000002" width="128.02000000000012" height="73.86999500000002">
            <path 
                d="m 232.91813,72.747375 2.23,-0.42 4.88,-3.07 7.8,0.54 3.84,-1.62 1.02,-1.09 2.47,-0.42 3.78,0.33 5.62,4.68 4.29,1.04 1.89,-0.18 2.13,-1.27 4.1,-0.47 7.69,2.73 0,0 -4.59,2.86 -1.15,1.94 1.18,4.03 -0.31,3.68 -1.38,2.7 2.43,4.03 -1.33,8.349995 -1.09,1.18 -5.47,1.83 -1.1,1.82 0.34,1.61 0.95,0.47 6.92,-0.75 0.52,1.52 -1.36,2.89 -0.23,2.22 3.89,0.76 0.79,2.11 -1.05,3.52 -7.19,7.32 0,0 -2.42,-2.14 -5.36,-2.45 -1.12,-1.46 -1.97,-6.26 -1.51,-0.51 -2.49,5.51 -3.68,3.59 -2.21,0 -2.84,1.68 -4.66,-1.66 -2.62,-1.84 -4.58,-0.24 -3.96,1.69 -4.52,3.64 -2.42,4.41 -3.16,-3.47 -0.55,1.1 0.18,4.48 -0.74,1.53 -17.48,-2.24 -3.4,-3.29 -2.82,-0.62 -1.14,-2.15 -3.37,3.6 -1.8,-0.12 -4.08,1.94 -6.1,0.62 -6.36,-1.66 -3.31,0.92 -3.19,2.49 -5.5,0.58 -1.5,0.74 0,0 -2,-2.39 -4.04,1.26 -0.76,-0.11 -1.31,-1.9 1.82,-15.25 2.36,-1.74 10.96,-0.97 1.17,-3.2 -0.23,-1.28 0.87,-0.75 7.24,-1.61 1.67,0.62 1.43,-0.31 0.39,-4.64 1.23,-2.2 -6.95,-2.939995 -0.15,-7.48 -1.62,-5.45 1.37,-0.8 3.23,1.3 5.7,-7.25 1.74,-0.11 1.81,2.56 0.37,-2.02 1.66,1.06 2.11,-9.53 0,0 3.24,-1.93 2.71,-3.18 10.3,-3.63 11.57,2.78 5.98,5.79 z" 
                fill="rgb(151, 144, 238)" 
                stroke="white" 
                stroke-width=".7px"
                title="Pleven" 
                id="BG-15" 
            />
        </svg>