<svg xmlns="http://www.w3.org/2000/svg" viewBox="196.91812999999988 189.39737000000002 96.0400000000001 148.69999999999993" width="96.0400000000001" height="148.69999999999993">
            <path 
                d="m 200.84813,194.12737 9.28,-0.17 3.7,-4.56 12.77,1.51 4.22,3.32 2.31,4.37 2.65,0.77 9.18,-1.52 4.01,1.8 2.19,0.06 9.7,-4.27 0,0 0,0 0,0 -1.02,2.35 0.45,11.76 -3.18,7.08 1.77,7.5 2.99,5.26 3.44,1.38 2.09,0 8.35,-3.57 1.42,0.67 0.9,2.86 -0.4,2.55 -4.15,4.19 0.16,1.32 2.76,3.12 -0.05,1.89 -0.82,0.36 -3.29,-1.35 -0.71,1.6 -0.01,12.2 1.08,-0.03 2.87,1.94 0.65,1.53 -7.6,2.73 -2.31,1.55 -1.06,4.98 0.44,3.58 2.27,2.16 4.81,1.79 5.07,-1.61 4.35,0.06 3.82,-2.47 2.82,4.27 4.19,3.76 0,0 -3.98,10.34 0.65,4.05 -0.23,6.41 -2.56,3.16 0,0 -9.28,5.5 -3.62,5.09 -1.7,4.49 -1.78,0.96 -1.8,2.63 -2.2,1.07 0,0 -3.36,-3.02 -1.38,-2.67 -1.18,-0.14 -1.86,1.67 -0.3,6.59 -3.77,4.37 -3.14,0.76 -3.74,-0.97 -1.82,2.9 -2.43,0.97 -1.91,3.09 -3.05,-6.58 0.06,-2.15 1.26,-2.81 -0.78,-0.34 -0.58,-2 -1.58,1.34 -1.33,-2.45 1.49,-1.9 0.92,-5.11 -0.16,-1.78 -1.92,-2.35 -1.06,-0.63 -3.74,0.48 -5.6,-1.41 -7.44,2.91 -3.96,0.29 -1.34,-0.85 -3.38,-5.29 -2.69,0.29 -4.27,-1.89 0,0 2.54,-7.92 0.33,-4.71 -0.96,-5.16 1.32,-3.62 0.21,-5.08 2.43,-1.23 2.64,0.2 0.74,-1.24 -0.48,-1.77 -4.4,-5.71 -0.37,-1.73 -0.15,-6.19 -1.57,-4.68 1.87,-1.53 -0.19,-4.01 -4.54,-4.93 -0.4,-3.8 -3.79,-9.33 0.55,-2.66 3.23,-3.4 0.76,-2 -0.16,-2.66 0,0 5.76,-1.01 2.37,-6.1 -5.07,-5.04 -6.11,-2.49 -1.7,-1.82 -0.36,-3.12 z" 
                fill="rgb(151, 144, 238)" 
                stroke="white" 
                stroke-width=".7px"
                title="Plovdiv" 
                id="BG-16" 
            />
        </svg>