<svg xmlns="http://www.w3.org/2000/svg" viewBox="302.4881300000003 25.597375 104.97999999999979 95.65999500000002" width="104.97999999999979" height="95.65999500000002">
            <path 
                d="m 389.43813,25.597375 1.13,4.46 4.14,4.03 -2,4.18 0,0 -0.46,1.63 -2.8,3.06 -2.89,8.82 -2.88,1.62 -0.78,1.26 -0.07,2.99 2.48,1.35 2.49,0.36 4.44,-0.73 0.79,1.27 2.08,-1.71 1.12,0.17 3.66,3.24 3.98,0.73 2.03,1.8 1.56,3.95 0.01,6.82 -3.25,4.98 -5.9,0.73 -5.51,-1.25 -8.58,2.85 -7,-5.33 -3.71,-0.83 -4.32,5.27 -2.36,0.15 -4.26,1.58 0.54,2.03 -0.94,1.29 1.82,2.48 1.72,4.45 0,0 -6.32,3.03 -1.69,8.559995 -1.97,2.38 -1.46,3.22 -2.27,1.69 4.95,4.22 -0.44,4.86 0,0 -4.98,-1.12 -1.88,-4.46 -4.59,1.86 -5.74,-2.26 -4.55,0.24 -3.36,-1.58 -3.98,-3.65 -1.48,0.15 -3,2.41 -9.84,-5.38 1.55,-3.87 -0.09,-2.38 -0.9,-1.14 -1.73,-0.549995 -0.63,-1.96 -1.9,-1.24 -3.64,-9.2 0.2,-1.54 1.72,-2.29 -0.35,-2.39 -1.08,1.14 -1.45,0.05 -2.33,-1.92 0,0 3.82,-1.91 7.3,-0.13 9.92,-6.02 6.95,-0.23 5.11,-2.73 2.79,-4.92 3.8,-1.7 2.75,-2.69 7.33,-11.21 10.16,-6.24 2.42,-5.2 2.58,-2.9 4.02,-2.48 5.15,-0.01 10.26,-5.52 z" 
                fill="rgb(151, 144, 238)" 
                stroke="white" 
                stroke-width=".7px"
                title="Ruse" 
                id="BG-18" 
            />
        </svg>