<svg xmlns="http://www.w3.org/2000/svg" viewBox="408.14813000000004 67.827375 88.18999999999988 110.46999500000008" width="88.18999999999988" height="110.46999500000008">
            <path 
                d="m 455.33813,71.047375 2.51,-0.31 5.34,-2.91 1.04,0.17 1.98,3.48 3.53,3.32 2.19,-0.86 2.1,0.69 0,0 2.49,2.96 4.52,0.63 4.26,5.93 1.5,0.58 5.84,-3.99 1.11,-0.06 2.59,4.75 0,0 -0.72,1.94 -1.24,0.86 -6.08,2.02 -2.74,0.23 -0.71,0.79 -0.01,3.54 2.65,1.18 0,1.47 -1.92,3.559995 1.88,0.41 0.46,1.77 -5.09,7.72 -0.26,3.33 0.91,2.71 0.36,4.79 -1.92,1.72 -2.75,-0.88 -0.45,1.19 0.39,3.59 1.1,2.44 0.2,3.9 1.85,4.07 -8.98,5.3 -1,3.81 2.47,2.7 0,0 0,3.58 0,0 1.56,5.17 -7.46,1.49 -2.61,1.4 -3.47,0 -1.46,1.99 -1.22,0.55 -0.18,0.85 2.92,1.11 0.6,2.68 1.69,0.94 -0.28,3.91 0,0 -5.02,0.58 -7.24,3.89 -2.01,-0.57 -1.8,-2.89 -1.23,-0.32 -5.55,1.09 -3.9,-1.64 -3.09,0.62 -4.95,-0.26 -6.32,4.48 -7.61,0.06 -0.92,-1.35 1.05,-1.87 -0.64,-0.72 -4.57,-0.58 -1.68,0.82 0,0 -1.2,-1.45 0.55,-2.82 6.42,-5.68 0,0 3.21,-1.6 -0.67,-1.71 0.63,-2.87 2.77,-1.8 0.52,-2.42 2.01,-1.21 0.03,-1.62 -1.93,-4.14 -0.82,-3.91 1.73,0.6 2.25,-0.87 1.73,-3.25 0.43,-2.82 4.34,-3.93 1.47,-2.2 -0.49,-2.52 -3.26,-2.98 -0.66,-7.86 1.23,-1.59 0,0 2.97,-2.02 1.28,-2.34 -0.96,-1.96 -3.9,-2.24 0.53,-1.58 -0.85,-1.93 0.48,-0.95 2.47,-0.94 -0.07,-1.77 3.64,-2.639995 0.43,-3.6 -1.18,-0.34 0.44,-2.11 5.72,-4.86 0.94,-4.23 3.1,1.66 2.61,-0.04 1.97,-1.15 1.25,-2.92 4.29,-2.12 1.47,-2.21 0.05,-3.07 z" 
                fill="rgb(151, 144, 238)" 
                stroke="white" 
                stroke-width=".7px"
                title="Shumen" 
                id="BG-27" 
            />
        </svg>