<svg xmlns="http://www.w3.org/2000/svg" viewBox="389.43813000000006 9.99737489999999 134.19999999999987 64.8000001" width="134.19999999999987" height="64.8000001">
            <path 
                d="m 464.02813,11.527375 3.34,-0.26 7.36,3.1 3.08,0.18 3.53,-1.26 1.35,2.45 -0.7,1.5 1.37,3.12 6.43,2.34 4.25,6.1 7.06,-1.37 13.64,1.32 3.13,-4.83 2.88,2.4 2.89,7.48 0,0 -4.81,1.66 -2.15,1.7 -3.73,5.35 -0.01,2.78 -3.05,-0.38 -2.46,-2.64 -1.94,4.91 -3.04,3.65 -1.99,0.37 -2.03,-2.31 -1.19,0.24 -9.71,9.15 -5.7,1.2 -6.96,7.95 -0.21,2.07 1.32,2.67 -0.04,1.38 -0.37,0.85 -1.54,0.23 0,0 -2.1,-0.69 -2.19,0.86 -3.53,-3.32 -1.98,-3.48 -1.04,-0.17 -5.34,2.91 -2.51,0.31 0,0 -4.17,-3.88 -1.37,-4.08 -3.51,-0.38 -2.84,-5.33 -4.41,-1.37 -3.77,-4.61 -3.55,3.66 -0.76,-0.2 -1.27,-2.22 -2.65,0.6 -2.04,-1.24 -3.46,-0.21 -7.25,-2.34 -0.79,-4.33 -2.5,-3.31 -6.73,0.8 -2.35,-3.78 -2.77,-0.8 -6.44,0.24 0,0 2,-4.18 -4.14,-4.03 -1.13,-4.46 0,0 4.84,-1.33 5.87,1.15 9.1,-2.51 6.24,0.38 5.79,-1.5 3.32,-1.69 3.17,0.45 3.21,-0.66 9.17,-5.3 5.48,-2.23 8.17,-0.23 7.13,-2.1300001 z" 
                fill="rgb(151, 144, 238)" 
                stroke="white" 
                stroke-width=".7px"
                title="Silistra" 
                id="BG-19" 
            />
        </svg>