<svg xmlns="http://www.w3.org/2000/svg" viewBox="167.02813000000012 305.86737 109.38999999999996 80.2899999999999" width="109.38999999999996" height="80.2899999999999">
            <path 
                d="m 202.41813,305.86737 4.27,1.89 2.69,-0.29 3.38,5.29 1.34,0.85 3.96,-0.29 7.44,-2.91 5.6,1.41 3.74,-0.48 1.06,0.63 1.92,2.35 0.16,1.78 -0.92,5.11 -1.49,1.9 1.33,2.45 1.58,-1.34 0.58,2 0.78,0.34 -1.26,2.81 -0.06,2.15 3.05,6.58 1.91,-3.09 2.43,-0.97 1.82,-2.9 3.74,0.97 3.14,-0.76 3.77,-4.37 0.3,-6.59 1.86,-1.67 1.18,0.14 1.38,2.67 3.36,3.02 0,0 -0.4,1.19 0.74,3.12 2.15,5.88 -1.29,4.77 0.27,6.12 -2.1,2.45 -7.16,2.62 -1,1.29 0.17,1.93 1.59,4.69 0.26,3.45 5.05,1.88 5.54,-2.66 2.79,1.25 0.94,1.34 0.7,2.46 -1.31,4.61 0.67,0.58 1.92,-0.27 0.43,0.99 -3.75,4.82 0.95,2.04 0.23,3.71 2.03,1.06 -0.32,2.29 0,0 -3.38,-1.18 -1.87,-2.27 -1.53,0.78 -2.17,-0.91 -2.34,-3.07 -7.39,-1.41 -3.6,-1.38 -2.8,-2.79 -1.9,0.28 -1.2,1.74 -0.79,0.12 -5.4,-1.21 0.39,1.81 -0.64,4.12 -1.35,1.06 -5.52,-4.48 -1.65,-4.46 -3.42,-0.39 -1.07,-0.79 -2.41,1.01 0.41,-1.87 -0.79,-0.47 -4.33,1.13 -1.25,-1.95 -0.1,-2.99 -2.31,-1.51 -1.28,-3.49 0.26,-1.82 -1.58,-3.06 0.7,-1.3 -1,-0.94 -0.87,0.19 0.02,-1.04 -0.72,-0.48 -5.15,2.12 -1.12,1.05 -0.12,2.03 -1.09,0.82 -1.12,-0.93 -2.38,-0.11 -0.98,-1.29 -2.02,0.4 -1.8,2.51 -2.65,-1.19 -3.5,1.94 -0.66,-1.96 0.54,-1.51 -3.1,-2.62 0.43,-1.25 -1.22,-0.71 -2.1,1.33 -1.06,1.85 -1.95,-0.28 -1.87,2.5 0.23,1.4 -0.73,0.73 -1.32,-0.21 0.16,-0.69 -1.25,-0.87 -0.22,-1.01 -2.44,0.3 -0.28,-0.88 -2.34,-0.32 -0.39,-0.92 -2.48,1.11 -0.44,1.38 -1.1,0.78 0,0 -0.13,-2.87 2.46,-6.06 -0.35,-3.28 3.17,-4.45 -1.06,-2.27 0,0 1.21,-8 8.86,-1.21 5.87,1.47 2.91,-1.6 1.35,-1.9 1.59,-0.38 -0.91,-4.31 0.69,-4.2 2.39,-3.21 4.72,-2.03 1.17,-1.55 1.03,-2.62 z" 
                fill="rgb(151, 144, 238)" 
                stroke="white" 
                stroke-width=".7px"
                title="Smolyan" 
                id="BG-21" 
            />
        </svg>