<svg xmlns="http://www.w3.org/2000/svg" viewBox="68.678129 176.38737 59.46000099999999 68.02000000000007" width="59.46000099999999" height="68.02000000000007">
            <path 
                d="m 68.678129,199.52737 3.62,-0.54 8.14,0.27 2.33,-1.33 2.82,0.91 0.71,-2.32 -1.52,-1.17 0.07,-1.19 1.68,-2.52 0.19,-2.52 5.1,-12.64 0.87,-0.09 2.03,2.11 1.53,3.96 1.52,1.58 1.81,0.29 11.380001,-2.89 7.86,5.1 2.25,-0.67 1.83,-1.78 1.59,0.23 1.26,4.93 -2.82,10.68 -1.25,1.24 -3.59,1.26 -1.15,3.95 -2.2,0.86 -0.64,2.44 0.73,0.93 3.23,0.81 0.62,0.77 0.85,4.76 -0.48,6.12 3.19,5.11 1.38,0.79 -0.16,1.93 2.45,3.95 2.23,7.4 -5.96,2.16 -4.57,-1.72 -1.86,0.71 -0.68,-2.84 0.42,-3.45 -0.46,-2.26 -2.78,-6.38 -0.84,-0.53 -2.72,-0.31 -1.81,5.03 -0.45,3.9 -1.69,0.99 -1.18,-0.38 -4.350001,-6.26 -2.52,-1.57 -1.07,-1.64 -4.2,-1.03 -1.06,-1.09 0,0 -0.25,-1.64 -2.59,0.54 -3.79,-5.68 -4.52,-0.78 0.95,-2.2 -1.17,-6.44 -1.68,-1.62 -2.31,-0.82 -1.98,-3.4 -3.22,-1.76 z" 
                fill="rgb(151, 144, 238)" 
                stroke="white" 
                stroke-width=".7px"
                title="Sofia" 
                id="BG-23" 
            />
        </svg>