<svg xmlns="http://www.w3.org/2000/svg" viewBox="39.11812900000021 135.61737000000002 171.04000099999988 149.79999999999976" width="171.04000099999988" height="149.79999999999976">
            <path 
                d="m 57.248129,137.06737 2.68,-1.45 1.87,0.12 2.5,3.28 3.94,2.19 3.05,4.45 2.3,1.38 11.14,0.07 4.2,-1.31 4.14,-0.1 2.16,-3.03 2.23,-1.72 6.400001,0.37 0,0 6.23,0.56 2.4,0.88 0.18,1.31 -3.77,5.3 0.85,5.12 5.9,9 2.65,1.73 9.78,-8.62 3.72,2.4 1.32,0 5.53,-3.48 3.82,-0.81 2.55,1.89 9.58,0.26 4.8,2.44 1.08,-1.08 -0.1,-2.93 0,0 6.09,0.31 0.58,3.54 4.89,2.44 0.86,6.28 6.84,3.66 -2.45,1.8 -0.68,1.36 3.13,2.21 0.38,4.74 2.61,1.96 -0.94,1.54 -0.05,1.78 -3.26,2.17 0.21,1.35 6.97,1.28 5.4,-0.43 9.89,2.85 0,0 -3.93,9 0.36,3.12 1.7,1.82 6.11,2.49 5.07,5.04 -2.37,6.1 -5.76,1.01 0,0 -2.55,-2.38 -2.88,1.7 -1.23,-2.25 -1.93,-7.44 -3.26,-0.8 -2.87,-1.62 -4.57,1.98 -4.27,0.38 -1.1,4.92 -1.95,0.46 -2.8,-0.55 -6.04,6.54 -2.18,-0.19 -4.21,-2.76 -5.79,1.28 -0.57,1.6 1.37,7.51 3.75,5.94 1.47,1.1 2.08,-0.06 5.04,-2.18 1.28,0.89 0.18,2.32 -3.69,7.74 -1.89,1.66 -3.99,0.45 -1.27,0.89 -2,6.19 1.75,3.46 -0.28,1.21 -3.19,1.71 -2.18,-2.74 -5.14,6.81 -4.39,2.58 -3.37,3.4 0,0 -2.72,0 -0.53,1.33 1.33,2.4 -1,0.81 -1.53,-0.08 -3.38,-1.53 -1.92,-3.83 -2.86,0.81 -1.32,-0.9 -2.39,0.09 -1.18,1.51 -1.43,7.87 -1.29,2.22 -2.6,2.03 -3.16,-0.75 -2.65,0.98 0,0 1.97,-3.01 1.91,-0.69 0.21,-2.4 -7.11,-3.05 -1.71,-5.63 -6.580001,2.17 -1.62,-0.76 -0.26,-0.82 2.480001,-5.93 4.9,-1.82 0,-1.36 -6.550001,-5.31 -2.3,-7.08 -2.31,-0.69 -3.46,0.2 -2.65,-1.14 0,0 -0.9,-5.17 -0.24,-8.17 1.92,-6.58 1.93,-2.6 0,0 1.06,1.09 4.2,1.03 1.07,1.64 2.52,1.57 4.350001,6.26 1.18,0.38 1.69,-0.99 0.45,-3.9 1.81,-5.03 2.72,0.31 0.84,0.53 2.78,6.38 0.46,2.26 -0.42,3.45 0.68,2.84 1.86,-0.71 4.57,1.72 5.96,-2.16 -2.23,-7.4 -2.45,-3.95 0.16,-1.93 -1.38,-0.79 -3.19,-5.11 0.48,-6.12 -0.85,-4.76 -0.62,-0.77 -3.23,-0.81 -0.73,-0.93 0.64,-2.44 2.2,-0.86 1.15,-3.95 3.59,-1.26 1.25,-1.24 2.82,-10.68 -1.26,-4.93 -1.59,-0.23 -1.83,1.78 -2.25,0.67 -7.86,-5.1 -11.380001,2.89 -1.81,-0.29 -1.52,-1.58 -1.53,-3.96 -2.03,-2.11 -0.87,0.09 -5.1,12.64 -0.19,2.52 -1.68,2.52 -0.07,1.19 1.52,1.17 -0.71,2.32 -2.82,-0.91 -2.33,1.33 -8.14,-0.27 -3.62,0.54 0,0 -1.35,-2.13 -5.34,-2.3 -1.98,-3.14 -4.26,-0.77 -2.89,-2.64 -4.77,-0.75 -1.74,-3.81 -1.44,-1.4 -4.01,0.28 -0.65,-3.36 -1.13,-1.11 0,0 2.52,-4.92 -0.94,-2.14 1.28,-1.48 0.09,-3.09 6.25,-2.87 1.56,-2.51 3.2,-1.68 2.35,-6.19 3.01,-1.32 3.05,-2.65 1.42,-6.12 -1.08,-1.25 1.97,-3.39 -2.98,-1.74 z" 
                fill="rgb(151, 144, 238)" 
                stroke="white" 
                stroke-width=".7px"
                title="Sofia-Grad" 
                id="BG-22" 
            />
        </svg>