<svg xmlns="http://www.w3.org/2000/svg" viewBox="257.10813000000013 190.62736999999998 119.46999999999986 103.13" width="119.46999999999986" height="103.13">
            <path 
                d="m 321.27813,194.98737 3.09,-2.03 6.3,-2.33 3.91,0.71 2.72,-0.28 0,0 0.38,6.89 4.02,8.02 1.18,7.1 3.04,5.11 -0.49,2.38 -2.54,4.15 3.57,8.27 -2.21,4.09 -0.19,1.77 3.76,4.58 2.81,9.67 1.16,1.33 3.58,1.22 1.84,2.12 1.79,0.81 0.03,2.01 1.87,-2.18 1.82,-0.31 10.26,6.15 0,0 3.6,2.24 0,0 -8.09,7.96 -0.14,2.98 1.85,4.23 1.68,8.21 -3.73,0.95 -2.21,-0.5 -3.25,3.45 -2.09,-0.59 -4.18,-8.54 -4.26,-0.53 -2.35,-2.27 -3.4,-0.1 -2.76,-2.1 -1.35,0.9 -1.53,5.76 -4.02,2.3 -2.24,0.1 -1.34,1.2 -1.99,-0.11 -1.67,-5.55 -2.39,-2.51 -1.91,-4.47 -1.83,0.05 -3.73,3.4 -1.09,0.06 -0.14,-8.79 -1.24,-2.46 -1.19,0.6 -1.67,2.68 -4.23,2.8 0.18,0.75 1.65,-0.15 -0.93,1.81 -1.64,-0.07 -2.69,-2.05 -1.3,0.3 -0.41,3.26 -3.44,4.56 -1.08,0.06 -4.71,-2.91 -2.76,-0.3 0,0 -4.19,-3.76 -2.82,-4.27 -3.82,2.47 -4.35,-0.06 -5.07,1.61 -4.81,-1.79 -2.27,-2.16 -0.44,-3.58 1.06,-4.98 2.31,-1.55 7.6,-2.73 -0.65,-1.53 -2.87,-1.94 -1.08,0.03 0.01,-12.2 0.71,-1.6 3.29,1.35 0.82,-0.36 0.05,-1.89 -2.76,-3.12 -0.16,-1.32 4.15,-4.19 0.4,-2.55 -0.9,-2.86 -1.42,-0.67 -8.35,3.57 -2.09,0 -3.44,-1.38 -2.99,-5.26 -1.77,-7.5 3.18,-7.08 -0.45,-11.76 1.02,-2.35 0,0 7.19,0.91 4.22,-2.51 3.52,-0.27 2.84,-2.19 6.24,3.77 3.7,-0.56 11.92,3.3 1.16,-1.03 -0.43,-3.62 3.14,0.24 2.88,2.92 3.55,0.8 1.83,-0.18 2.91,-2.21 3.23,2.8 2.33,-0.96 z" 
                fill="rgb(151, 144, 238)" 
                stroke="white" 
                stroke-width=".7px"
                title="Stara Zagora" 
                id="BG-24" 
            />
        </svg>