<svg xmlns="http://www.w3.org/2000/svg" viewBox="352.00813000000016 90.43737500000002 80.80999999999995 80.499995" width="80.80999999999995" height="80.499995">
            <path 
                d="m 365.71813,93.297375 1.77,1.2 6.25,-0.52 0.99,0.43 2.27,-3.16 1.8,-0.81 1.48,0.16 1.37,1.6 2.46,1.24 2.8,3.68 4.04,0.88 1.32,4.719995 1.16,1.63 5.3,1.27 0.17,1.06 -1.02,1.89 0.27,3.38 -2.85,3.04 -6.97,4.83 0.71,2.4 3.16,1.12 1.29,2.02 -1.36,2.63 1.17,1.92 4.14,-1.99 0.18,-2.61 2.76,-4.69 1.23,-0.66 -0.33,-2.08 2.97,0.53 4.82,-2.18 5.4,2.36 4.04,-0.3 1.61,0.84 0.88,-0.7 1.37,-3.71 1.99,1.65 1.5,-0.99 1.16,1.04 2.62,-0.47 0,0 -1.23,1.59 0.66,7.86 3.26,2.98 0.49,2.52 -1.47,2.2 -4.34,3.93 -0.43,2.82 -1.73,3.25 -2.25,0.87 -1.73,-0.6 0.82,3.91 1.93,4.14 -0.03,1.62 -2.01,1.21 -0.52,2.42 -2.77,1.8 -0.63,2.87 0.67,1.71 -3.21,1.6 0,0 -10.1,-1.55 -6.61,1.91 -3.29,0.18 -2.55,-0.93 -2.27,-1.96 -2.53,2.39 -0.71,-0.75 0.41,-3.6 -0.76,-0.51 -2.88,1.44 -2.29,-0.41 -1.97,5.83 -4.98,4.25 0,0 -11.15,-3.91 0.53,-1.93 2.74,-1.43 0.45,-1.46 -3.63,-3.08 -0.65,-1.45 -0.81,-3.43 0.37,-6.7 1.28,-2.61 0.64,-3.54 3.11,-2.17 0.05,-1.72 -0.42,-1.34 -2.32,-2.37 -0.25,-1.38 -2.32,-1.9 0.95,-2.9 -6.64,-6.36 0,0 0.44,-4.86 -4.95,-4.22 2.27,-1.69 1.46,-3.22 1.97,-2.38 1.69,-8.559995 z" 
                fill="rgb(151, 144, 238)" 
                stroke="white" 
                stroke-width=".7px"
                title="Targovishte" 
                id="BG-25" 
            />
        </svg>