<svg xmlns="http://www.w3.org/2000/svg" viewBox="459.8981299999998 85.427375 98.07000000000005 101.929995" width="98.07000000000005" height="101.929995">
            <path 
                d="m 496.33813,85.427375 2.83,1.82 2.85,3.73 0.83,5.69 0.82,0.88 2.4,-0.06 5.8,-4.72 2.08,-0.27 1.84,1.65 0.03,5.13 5.17,2.599995 5.3,-0.25 2.04,4.05 2.21,1.78 8,10 1.27,-0.47 4.47,-5.21 4.12,0.21 1.48,0.6 3.16,3.43 2.68,5.07 2.25,1.88 0,0 -1.8,6.16 -3.09,5.74 -6.11,1.22 -1.78,1.16 -0.25,2 -0.22,-1.05 -1.42,0.12 1.14,0.42 -0.82,0.84 0.64,1.58 2.9,0.2 0.19,0.56 -3.31,14.15 -2.33,3.14 0.01,5.02 1.59,9.49 -0.94,1.8 0.6,8.09 -1.28,0.4 -0.63,2.02 0,0 -3.56,-0.21 -4.35,1.54 -4.1,-1.02 -4.94,-2.9 -0.38,-0.87 0.65,-1.75 -2.27,-0.79 -4.68,0.27 -9.97,-1.57 -4.42,2.99 -2.34,-1.59 -5.57,0.69 -5.07,-3.32 -6.3,-5.43 -3.05,-1.18 -9.9,-0.96 -5.98,3.33 0,0 0.28,-3.91 -1.69,-0.94 -0.6,-2.68 -2.92,-1.11 0.18,-0.85 1.22,-0.55 1.46,-1.99 3.47,0 2.61,-1.4 7.46,-1.49 -1.56,-5.17 0,0 0,-3.58 0,0 -2.47,-2.7 1,-3.81 8.98,-5.3 -1.85,-4.07 -0.2,-3.9 -1.1,-2.44 -0.39,-3.59 0.45,-1.19 2.75,0.88 1.92,-1.72 -0.36,-4.79 -0.91,-2.71 0.26,-3.33 5.09,-7.72 -0.46,-1.77 -1.88,-0.41 1.92,-3.559995 0,-1.47 -2.65,-1.18 0.01,-3.54 0.71,-0.79 2.74,-0.23 6.08,-2.02 1.24,-0.86 z" 
                fill="rgb(151, 144, 238)" 
                stroke="white" 
                stroke-width=".7px"
                title="Varna" 
                id="BG-03" 
            />
        </svg>