<svg xmlns="http://www.w3.org/2000/svg" viewBox="268.83813 73.527375 105.74999999999994 121.45999500000002" width="105.74999999999994" height="121.45999500000002">
            <path 
                d="m 296.43813,81.507375 6.05,-1.33 0,0 2.33,1.92 1.45,-0.05 1.08,-1.14 0.35,2.39 -1.72,2.29 -0.2,1.54 3.64,9.2 1.9,1.24 0.63,1.96 1.73,0.549995 0.9,1.14 0.09,2.38 -1.55,3.87 9.84,5.38 3,-2.41 1.48,-0.15 3.98,3.65 3.36,1.58 4.55,-0.24 5.74,2.26 4.59,-1.86 1.88,4.46 4.98,1.12 0,0 6.64,6.36 -0.95,2.9 2.32,1.9 0.25,1.38 2.32,2.37 0.42,1.34 -0.05,1.72 -3.11,2.17 -0.64,3.54 -1.28,2.61 -0.37,6.7 0.81,3.43 0.65,1.45 3.63,3.08 -0.45,1.46 -2.74,1.43 -0.53,1.93 11.15,3.91 0,0 -2.64,4.02 -11.45,6.08 -0.5,1.03 1.13,2.06 -0.32,2.51 -6.82,5.42 -1.47,0.08 -4.14,-1.55 -5.83,1.44 -5.25,-0.97 0,0 -2.72,0.28 -3.91,-0.71 -6.3,2.33 -3.09,2.03 0,0 -2.93,-2.32 -0.58,-3.38 -1.64,-2.82 1.25,-1.77 2.63,-1.79 0.34,-2.05 -2.03,-1 -0.07,-3.63 -4.23,-0.54 -2,-2.14 0.09,-4.73 4.02,-3.85 0.16,-1.4 -0.8,-1.43 -3.97,-1.05 -2.63,-2.22 -2.15,0.43 -4.11,-1.78 -3.29,0.71 -2.45,-2.11 -7.02,0.35 -0.76,-2.03 1.35,-4.23 -1.03,-1.27 -2.71,0.03 -5.01,2.29 -6.23,-1.61 -3.01,-3.93 -3.11,-2.11 -0.52,-3.9 0,0 2.14,0.3 1.28,-0.9 0.11,-3.84 2.82,-4.19 0.24,-3.46 0,0 7.19,-7.32 1.05,-3.52 -0.79,-2.11 -3.89,-0.76 0.23,-2.22 1.36,-2.89 -0.52,-1.52 -6.92,0.75 -0.95,-0.47 -0.34,-1.61 1.1,-1.82 5.47,-1.83 1.09,-1.18 1.33,-8.349995 -2.43,-4.03 1.38,-2.7 0.31,-3.68 -1.18,-4.03 1.15,-1.94 4.59,-2.86 0,0 8.07,6.88 z" 
                fill="rgb(151, 144, 238)" 
                stroke="white" 
                stroke-width=".7px"
                title="Veliko Tarnovo" 
                id="BG-04" 
            />
        </svg>