<svg xmlns="http://www.w3.org/2000/svg" viewBox="0.26812939000002034 0.4873748999999221 68.36999961 111.35999510000003" width="68.36999961" height="111.35999510000003">
            <path 
                d="m 31.778129,1.0173749 1.54,1.17 4.97,0.76 6.06,5.74 5.86,2.9900001 5.2,4.02 10.29,1.84 1.47,1.3 0.42,3.84 -3.38,5.7 -7.76,1.3 -2.5,1.02 -2.35,2.19 -3.96,13.06 1.51,4.67 2.07,1.92 6.69,1.78 2.26,1.38 8.34,2.04 0,0 -0.82,1.73 -0.99,0.47 -8.02,1.04 -0.2,2.08 0.57,0.76 8.47,3.25 0.81,1.07 0.31,2.39 -0.95,1.17 -4.54,0.82 -7.29,3.75 -1.83,2.53 -2.25,8.13 -3.54,3.55 -3.02,7.09 -3.51,1.71 -0.82,1.119995 -0.46,6.18 -2.07,4.06 -1.56,1.21 0,0 -4.96,-0.28 -0.91,-0.93 -1,-3.45 -5.93,-1.2 -2.2,-3.58 -2.42,-0.04 -1.65,-1.03 -4.58,-12.489995 0.47,-5.05 -1.38,-2.84 1.14,-2.34 -1.25,-2.3 -2.6799996,-0.9 -2.61,-2.12 -1.63,-2.46 -0.48,-3.17 -0.82,-1.22 0.63,-3.93 -2.16,-2.13 -2.11000001,-4.99 2.80000001,-7.87 0.78,-5.29 -0.56,-2.38 1.9,-1.78 0.03,-5.85 0.71,-1.31 -0.53,-1.6 2.95,-0.84 0.44,-0.91 8.3099996,-0.46 1.43,-1.86 -0.99,-2.36 2.77,-0.82 1.7,0.45 0.51,-1.17 3.59,-0.12 0.28,-1.28 -0.82,-0.73 0.47,-2.55 -0.95,-1.39 0.91,-5.6100001 0.83,0.29 0.01,-1.57 -1.45,-1.04 0.65,-1.2 0.59,0.39 0.89,-0.54 -0.77,-1.17 1.22,-0.23 -0.37,-0.6 0.96,-1.21 -0.14,-1.31 0.9,0.53 1.09,-1.32 0.49,1.08 0.38,-1.28 z" 
                fill="rgb(151, 144, 238)" 
                stroke="white" 
                stroke-width=".7px"
                title="Vidin" 
                id="BG-05" 
            />
        </svg>