<svg xmlns="http://www.w3.org/2000/svg" viewBox="95.52812899999991 56.58737500000002 99.29000100000009 108.629995" width="99.29000100000009" height="108.629995">
            <path 
                d="m 153.71813,64.427375 4.72,0.28 8.32,3.31 3.05,2.41 8.29,2.55 12.77,-2.12 3.95,0.04 0,0 -2.11,9.53 -1.66,-1.06 -0.37,2.02 -1.81,-2.56 -1.74,0.11 -5.7,7.25 -3.23,-1.3 -1.37,0.8 1.62,5.45 0.15,7.48 6.95,2.939995 -1.23,2.2 -0.39,4.64 -1.43,0.31 -1.67,-0.62 -7.24,1.61 -0.87,0.75 0.23,1.28 -1.17,3.2 -10.96,0.97 -2.36,1.74 -1.82,15.25 1.31,1.9 0.76,0.11 4.04,-1.26 2,2.39 0,0 0.96,12.61 -5.43,-0.01 0.1,6.66 0,0 0.1,2.93 -1.08,1.08 -4.8,-2.44 -9.58,-0.26 -2.55,-1.89 -3.82,0.81 -5.53,3.48 -1.32,0 -3.72,-2.4 -9.78,8.62 -2.65,-1.73 -5.9,-9 -0.85,-5.12 3.77,-5.3 -0.18,-1.31 -2.4,-0.88 -6.23,-0.56 0,0 -1.06,-2.3 -0.03,-2.96 1.4,-1.72 3.7,0.05 0.6,-1.34 -0.36,-2.13 -3.32,-2.23 -6.820001,-1.42 -2.36,-1.79 -0.08,-1.43 5.310001,-5.37 3.82,-7.4 -0.59,-6.82 3.87,-6.269995 1.85,-0.89 2.84,1.13 5.48,0.6 2.69,-4.18 4.62,0 -0.66,-3.31 -4.07,-3.38 -0.72,-1.42 0.65,-2.05 3.11,-3.24 2.6,-6.19 0.32,-7.93 -1.5,-4.79 0.49,-4.46 0,0 5.09,-1.37 3.97,-0.12 2.2,0.75 1.28,1.9 4.56,1.42 3.62,2.05 z" 
                fill="rgb(151, 144, 238)" 
                stroke="white" 
                stroke-width=".7px"
                title="Vratsa" 
                id="BG-06" 
            />
        </svg>