<svg xmlns="http://www.w3.org/2000/svg" viewBox="372.0581300000001 202.95737 86.31999999999994 103.33999999999995" width="86.31999999999994" height="103.33999999999995">
            <path 
                d="m 423.51813,204.45737 4.53,5.95 3.69,3.4 3.87,8.94 3.34,4.21 1.59,4.4 2.55,3.06 1.34,3.88 1.98,0.89 4.22,-1.18 0.84,0.85 -0.06,2.48 -1.84,2.29 -7.21,1.23 -1.28,1.51 0.97,4.24 3.54,3.03 1.81,3.93 2.5,1.88 -1.56,3.4 -0.03,1.64 2.32,4.6 0.16,1.6 -2.79,3.29 0.34,2.12 2.7,3.63 5.12,3 2.22,2.98 0,0 -1.43,0.29 0.48,2.63 -1.94,2.76 -2.59,0.22 0.28,2.28 -2.18,3.06 -3.28,-0.52 -2.24,1.82 -3.48,-0.36 -1.99,1.15 -0.67,1.64 -3.03,-0.76 -2.27,-1.92 -3.04,2.85 -0.49,1.29 -3.92,-1.31 -4.62,0.32 -4.07,-1.84 -0.6,1.9 -5.57,5.09 0,0 -3.9,-4.73 -0.23,-2.09 -1.19,-1.09 -0.8,-2.5 -1.36,-0.84 0.07,-2.77 2.44,-2.37 -0.6,-6.27 1.05,-7.49 -3.63,0.4 -1.56,-2.76 -3.89,0.92 -2.51,-2 -2.46,1.41 -3.16,-1.35 -2.81,-0.21 -3.28,-2.99 -4.32,-0.94 -3.01,-2.15 0,0 -3.6,-2.24 0,0 2.37,-7.17 3.41,-5.73 0.63,-8.07 -0.84,-1.65 -2.32,2.61 -1.89,0.92 -2.28,-3.07 0.06,-1.85 1.16,0.16 2.02,1.78 0.95,-0.38 -0.27,-5.93 1.32,-0.83 6.76,1.87 1.46,-2.01 4.1,-0.53 1.99,-3.05 2.54,-1.88 -0.34,-2.18 -1.9,-1.3 3.97,-3.27 5.47,0.9 8.77,-5.48 4.84,-0.49 2.84,-4.56 1.03,1.8 1.07,0.51 2.89,-3.61 0.03,-3.99 -1.92,-3.3 0.04,-1.16 0.63,-0.34 z" 
                fill="rgb(151, 144, 238)" 
                stroke="white" 
                stroke-width=".7px"
                title="Yambol" 
                id="BG-28" 
            />
        </svg>