<svg xmlns="http://www.w3.org/2000/svg" viewBox="717.1001099999988 584.91082 109.55000000000132 97.77999999999952" width="109.55000000000132" height="97.77999999999952">
            <path 
                d="m 718.24011,586.89082 2.25,-0.21 2.07,-1.39 2.08,-0.38 0.43,0.21 1.47,-0.16 3.93,0.76 0.39,0.4 0.26,1.15 0.44,0.25 0.04,1.12 1.68,0.33 0.79,-0.31 1.35,0.09 3.58,3.35 0.67,0.05 0.57,-0.36 0.4,-0.98 1.4,1.5 1.36,0.63 1.19,0.34 2.93,-0.11 0.93,0.59 1.99,3.28 1.1,0.72 0.33,1.49 0.52,0.37 1.3,-0.06 0.05,0.37 1.83,0.62 1.03,-0.5 1.89,0.13 1.53,1.39 1.18,-0.33 1.55,0.52 0.5,0.33 0.13,1.33 0.63,0.15 0.82,-0.14 1.35,0.31 1.35,-0.91 0.24,0.39 1.42,0.33 0.5,-0.88 0.84,-0.29 1.82,0.05 0.64,1.28 1.3,-0.3 0.62,-1.14 0.59,-0.09 0.69,0.72 0.75,-0.33 0.81,0.18 0.43,-0.36 0.72,0.18 1.62,1 0.49,0.66 0.98,0.03 0.86,0.63 0.69,-0.21 0.7,0.28 1.12,-1.01 -0.77,-1.25 0.86,-0.45 0.61,0.07 0.43,-0.42 0.66,0.15 0.51,-0.39 0.76,0.16 0.45,-0.27 1.34,0.36 0.42,-0.31 0.47,0.08 0.48,0.63 0.7,-0.3 0.85,0.27 0.57,-0.54 3,-0.23 1.88,0.91 0,0 0,0 0,0 0.87,0.4 1.15,0.03 3.53,-0.58 0.13,0.49 2.59,-0.32 1.5,-0.68 1.16,0.18 0.56,1.26 0.64,0.47 -0.3,0.77 0.28,0.45 1.81,1.05 -0.23,0.4 -1.23,0.16 -0.91,1.72 -1.4,0.36 -0.02,1.12 -0.35,0.55 -1.89,0.48 -0.81,1.51 -0.72,0.19 -0.43,0.71 -1.35,0.5 -0.18,0.51 -1.29,0.21 -0.3,0.73 -0.98,0.51 -0.01,1.11 -0.86,2.68 -0.39,0.2 -0.85,-0.23 -1.49,0.71 -0.52,0.88 -0.76,0.46 -0.42,2.01 -0.89,1.01 0.72,0.39 1.05,-0.13 0.54,0.64 0.83,0.05 0.73,0.81 0.99,-0.49 1.13,0.56 0.87,-0.18 0.69,0.52 0.5,2.52 -0.23,0.56 0.77,1.65 -0.95,1.62 0.49,0.18 1.49,-0.62 1.02,0.1 0.16,0.36 -0.41,0.4 0.33,0.64 0.67,0.2 0.69,-0.34 0.14,-0.64 1.73,-0.46 0.72,0.29 2.04,-0.2 0.68,0.24 0.62,-0.21 0.38,-0.72 0.59,-0.22 0.37,0.29 0.52,-0.39 -0.11,-1.09 1.32,-0.86 0.93,-0.01 0.4,-0.7 0.7,0.16 0.55,0.78 0.99,-0.16 0.6,0.56 0.63,-0.07 1.93,-1.13 1.1,0.02 0.6,-0.75 2.92,2.29 -0.19,0.39 -1.02,-0.04 -0.17,0.32 0.65,0.49 0.37,0.84 -0.37,0.8 0.17,0.84 -1.69,2.47 0.35,1.34 -0.2,0.81 0.45,0.21 0.16,0.6 -0.92,1.13 0.32,0.48 -0.2,0.85 -3.71,-0.51 -0.58,-0.46 -0.85,-0.09 -4.22,-1.81 -0.48,0.66 0.57,1.33 -0.48,0.52 0.14,0.62 1.09,1.27 -0.12,0.65 -1.36,0.95 -2.41,-0.15 -0.73,0.4 -2.43,2.25 -0.19,1.16 -0.46,0.52 -2.74,0.98 -0.49,-0.11 -1.22,0.63 -1.53,-0.1 -0.35,1.24 0.63,1.58 -0.21,0.77 -0.94,-0.04 -0.71,1.22 -1.1,0.34 -0.95,2.48 -1.27,0.7 0.43,1.05 -1.09,1.89 0.05,0.52 0.31,0.25 0.85,-0.61 0.47,-0.01 0.6,0.94 0.03,0.62 -0.7,0.82 -0.08,0.52 0.47,0.33 0.52,-0.32 0.65,0.11 0.49,0.4 0.45,-0.24 0.18,1.06 0.79,0.25 0.59,1.18 -0.66,0.95 0.52,0.38 0.01,0.94 0.42,0.6 -0.27,0.94 0.2,0.31 -0.92,1.27 0.75,1.3 0.01,1.95 -0.42,1.36 -0.45,0.14 0,0 -1.19,-0.08 -0.53,0.29 -1.02,1.55 -0.33,1.07 -1.23,0.18 -1.28,0.77 -0.3,0.49 0,0 -0.37,0.1 -0.66,-0.53 -1.44,0.38 -2.16,-1.86 -0.07,-0.65 -0.5,-0.25 0.02,-0.52 -0.73,-0.33 -0.21,-0.88 -1.17,-0.14 -0.22,-1.33 -0.35,-0.22 -0.63,0.01 -0.31,0.88 -0.96,-0.53 -0.87,0.51 -0.65,-1.07 -1.75,-0.31 0.18,-1.18 -0.34,-0.06 -0.14,0.3 -1.24,-0.42 -1.1,0.16 -0.94,0.97 -0.15,-0.26 -1.18,-0.21 -0.82,-0.8 -0.33,0.41 -0.65,-0.1 -0.85,-0.85 -0.33,-1.26 -0.64,-0.15 -0.33,-0.49 0.16,-1.01 -0.36,-1.02 0.72,-1.55 0.05,-0.77 -1.41,-0.61 -0.46,-0.53 0.17,-1.09 -0.5,-0.59 0.51,-1.19 -0.56,-1.17 0.1,-0.68 -0.44,-0.34 -0.87,-1.77 -1.36,-1.41 -0.17,-1.49 0.54,-1.5 -0.72,0.11 0.21,0.76 -0.44,-0.14 -0.16,-0.76 0.69,-0.24 0.01,-0.49 -0.91,-0.48 0.31,-1.13 -1.13,-0.79 0.43,-0.43 -0.08,-0.93 -0.48,-0.16 -1.4,-2.5 -0.12,-0.92 0.51,-0.13 0.29,-1.02 -1.85,-1 1.01,-0.91 -0.8,-0.26 0.11,-1.04 -0.61,-0.86 -0.5,0.04 0.04,-0.82 -0.89,-0.76 -0.46,0.22 -0.23,-0.31 -0.02,-0.58 0.64,-0.23 -0.13,-0.74 0.51,-0.29 -0.46,-0.39 -0.58,0.42 -0.97,-1.59 -1.15,0.46 -0.11,-0.62 0.47,-0.3 0.11,-0.54 -0.9,-1.07 -0.24,-0.13 -0.51,0.4 -0.32,-0.65 -2.44,-1.15 -1.47,0.29 -0.31,0.94 -0.3,-0.45 -0.79,-0.2 -0.13,-0.48 -1.96,-0.33 -1.33,-1.78 -0.94,0.26 -1.85,-1.7 -1.28,-0.04 -0.66,-0.7 -0.38,0.63 0.02,-0.59 -0.34,-0.08 -0.1,0.66 -0.23,-0.42 -1.42,-0.35 -0.77,0.68 -0.71,-0.1 -1.47,0.7 -3.01,0.14 -0.69,-0.68 -0.56,0.41 -0.72,-0.04 -0.62,0.56 0,0 -0.34,-1.35 -0.38,-0.24 -0.05,-3.22 -1.06,-1.87 -0.31,-0.17 -0.19,0.4 -0.73,-1.09 0.07,-0.96 0.69,-0.93 -0.52,-2.13 0.3,-0.56 0.65,-0.42 0.26,0.64 0.48,0.01 1.32,-0.63 0.1,-0.48 -0.78,-0.43 -0.39,-0.64 -0.48,-1.15 0.24,-0.97 -0.23,-0.54 -0.85,0.18 -0.46,0.48 -0.07,-0.56 0.28,-1.12 1.74,-1.85 0,-1.54 0.64,-0.62 -0.92,-0.22 0.52,-2.25 -0.15,-0.97 -0.43,-0.93 -1.11,-0.89 -0.5,0.04 -0.38,1.16 -0.55,0.41 -1.29,-0.29 -0.44,-0.61 0.24,-0.65 -0.51,-1.74 0.21,-1.06 -0.39,-0.5 0.02,-1.47 -0.33,-0.47 -2.67,-0.08 -0.45,0.56 -0.57,0.02 -0.55,0.62 -0.66,-0.01 -0.56,0.45 -0.63,0.09 -0.49,-0.53 -1.28,0.52 -0.25,-0.25 -0.11,-3.15 0.87,-0.85 2.01,-0.31 0.22,-0.38 -0.97,-0.51 0.01,-0.69 -0.72,-0.27 0.18,-0.87 -2.41,-0.5 -0.12,-0.57 -1.12,-0.86 0.07,-0.58 0.41,-0.29 -0.13,-0.33 -1.34,-0.72 -0.08,-0.42 1.21,-1.18 z" 
                fill="rgb(151, 144, 238)" 
                stroke="white" 
                stroke-width=".7px"
                title="Амурская область" 
                id="RU-AMU" 
            />
        </svg>