<svg xmlns="http://www.w3.org/2000/svg" viewBox="117.18011000000006 0.25081800000005483 237.39000000000004 534.450002" width="237.39000000000004" height="534.450002">
            <path 
                d="m 143.10011,474.45082 0.9,-0.1 0.79,-1.08 0.03,-0.9 0.65,0.56 1.3,0.44 0.5,0.97 1.2,-0.06 0.68,0.51 0.92,-0.04 -0.87,-2.3 0.02,-1.35 0.34,-0.32 -0.29,-0.35 -0.25,-2.22 -0.67,-0.92 0.05,-0.57 -1.17,-0.67 -0.74,-1.02 -0.2,-0.92 -2.14,-3.11 -0.07,-2.26 0.51,-1.91 0.71,-0.94 2.17,-1.07 2.08,-1.89 1.88,-3.12 3.51,-1.03 1.94,-1.23 1.94,-2.38 0.63,-1.33 0.67,-0.22 1.09,-2.71 1.13,-0.56 2.58,1.51 0.06,0.5 1.49,0.25 3.14,-0.3 0.6,1.44 1.65,0.54 0.67,1.01 -2.63,2.58 0.24,0.94 0.85,-1.65 1.77,-1.09 0.17,0.32 0.17,-0.26 0.62,0.09 0.9,1.67 0.75,0.48 -0.41,1.02 0.8,2.11 0.22,-0.7 -0.55,-1.07 0.57,-1.71 -0.59,-1.34 -0.15,-1.25 1.11,-3.05 0,0 1.72,0.44 1.3,1.82 3.98,1.13 2.96,2.15 0.54,0.08 1.26,-0.55 2.09,1.53 1.89,-0.8 5.21,4.21 2,-0.28 2.39,0.22 0.37,-0.34 -0.88,-1.48 0.71,-1.27 2.37,-2.12 1.62,-0.13 1.02,0.34 1.35,-0.13 1.91,0.38 0,0 0.5,1.49 -0.17,4.03 0.4,2.57 0.15,6.44 4.03,-0.79 0.62,2 2.05,4.15 0.84,1.05 1.38,0.65 0.95,0.07 -1.19,5.53 -2.84,-1.04 -2.2,-0.39 -1.15,2.24 -1.68,-0.51 -1.8,0.17 -0.7,2.17 -2.76,0.09 0.08,1.14 -0.33,0.79 -2.09,-0.5 -0.11,-1.69 -2.06,-0.36 -2.55,0.35 -1.69,-0.21 -4.78,0.38 -1.32,1.21 -0.97,0.03 -2.1,-0.6 -1.69,0.42 -1.97,1.22 1.05,2.38 0.88,0.96 1.04,0.54 1.38,-0.04 1.2,0.8 1.29,0.22 2.47,1.94 1.79,1.86 0.37,0.8 -0.12,1.47 -1.09,1.46 1.18,2.73 3.22,1.95 0.55,0.75 -0.77,1.44 -1.2,1.22 -1.72,1.09 1.22,3.56 -0.25,4.85 1.31,-0.01 0.19,1.98 1.58,0.04 0.36,-1.81 2.07,-0.18 2.45,0.24 0.01,-1.46 -0.61,-0.9 1.01,-3.8 2.01,-0.08 0.79,-1.65 6.16,1.04 -2.02,9.66 -0.48,0.13 -1.36,7.03 3.34,0.98 -1.91,6.45 -1.33,-0.25 -0.99,0.68 -1.11,-0.01 -1.81,1.29 -0.99,1.06 -0.32,1.99 0,0 -2.67,-0.47 -0.09,-1.58 -0.38,-0.36 -2.96,-0.81 -0.69,0.45 -1.43,-0.23 0.08,0.58 -0.45,0.56 -0.47,1.79 0,0 -1.85,-0.07 -0.52,-0.46 0.39,-0.9 -0.38,-0.23 -0.95,0.1 -1.09,-1.03 -1.03,0.94 -2.2,0.15 -1.94,-1.1 0.49,-1.94 -3.74,-0.51 -0.57,4.34 -6.97,-0.71 -0.55,-0.67 0.18,-0.27 -0.24,-0.37 -0.99,-0.05 -1.91,0.78 -0.12,0.84 -0.79,0.21 -0.91,1.05 -0.12,0.76 -0.97,0.26 -1.46,-0.63 -0.92,1.32 -1.12,-1.47 -0.97,-0.68 -0.67,0.18 -0.49,0.86 -0.42,-0.02 -0.72,0.64 -1.71,-0.97 -0.42,-0.81 -0.53,0.6 -1.43,-1.14 -0.42,1.2 -0.94,-0.48 -0.27,-0.67 -1.52,1.08 0.33,1 -0.62,0.87 -1.15,0.68 -1.4,-0.09 -1.88,-1.5 -0.83,0.4 -1.25,-0.59 -0.41,0.07 -0.48,1.06 -1.1,-0.18 -1.22,0.63 -0.97,-0.33 -0.72,-0.89 -0.94,-0.03 -0.85,0.95 -2.02,-0.3 -0.39,0.64 -1.58,-0.34 -0.77,-0.57 -1.16,0.08 -0.75,-1.37 -1.29,-0.43 0.14,-1.47 -0.24,-0.47 -0.63,0.87 -1.05,-0.57 0.4,-1.68 -0.38,-0.93 -0.82,-0.17 -0.44,-0.49 0.16,-0.63 -1.63,-2.89 0.15,-1.76 0,0 0.07,-2.11 0.96,-1.13 0.04,-0.32 -0.57,-0.59 0.7,-1.77 -0.04,-1.09 -0.73,-0.58 0.07,-0.79 -0.81,-1.99 -0.31,-0.32 -0.97,0.16 -0.64,-0.79 -0.07,-0.62 0.51,-0.03 0.55,-1.77 -0.1,-2.65 -0.82,-1.29 -0.71,-0.27 -2.03,0.36 -3.19,-1.95 -2.21,-3.17 -0.2,-1.79 0.9,-1.18 0.09,-0.58 -0.88,0.41 -0.24,-0.25 0.59,-0.78 -0.11,-0.52 -0.76,-0.78 -0.09,-1.29 -2.05,-2.89 1.35,0.21 0.57,-0.37 1.24,0.35 1.83,-2.62 -0.56,-2.02 0.19,-0.62 0,0 0.6,0.61 0.47,0.08 0.19,-0.25 0.63,0.48 0.53,-0.32 0.24,0.37 1.58,0.1 0.51,1.16 1.23,0.33 1.17,-0.46 0.19,-1.1 0.46,-0.32 0.6,0.24 0.79,-0.15 1.32,-1.69 -0.53,-2.27 -0.79,-1.04 0.54,-1.12 0.58,-0.31 -0.87,-0.22 -0.09,-0.3 0.9,-0.1 -0.6,-0.45 -1.21,-0.28 0.4,-1.27 -1.26,0.26 -0.51,0.85 0.13,0.38 -0.34,-0.4 -0.63,-0.03 -1.07,0.68 -1.62,-1.14 -2.85,-4.83 -1.23,-0.22 -0.25,-1.73 0.41,0.08 -0.73,-0.66 -0.18,-1.08 0.42,-0.24 0.5,0.6 0.39,-0.03 0.25,-0.49 1.15,-0.6 0.16,-3.2 1.26,-0.31 2.71,1.15 2.17,1.16 0.14,1.04 0.41,0.55 2.13,1.49 2.13,0.04 -0.23,0.82 -0.61,0.06 -0.22,0.42 -0.43,-0.34 -0.97,0.52 -0.06,0.62 0.82,0.79 -0.89,0.98 0.14,0.55 0.27,-0.12 0.04,-0.78 0.69,-0.16 0.11,-1.09 0.51,-0.01 0.62,-0.51 1.22,0.1 -0.69,-0.96 0.26,-0.27 1.05,0.64 2.35,0.59 1.46,1.17 1.37,0.36 1.96,1.74 z m 94.6,-131.66 0.36,-0.06 0.69,0.59 1.16,1.92 0.03,0.7 0.56,0.15 -0.01,-0.35 0.32,-0.02 -0.01,1.01 0.46,0.43 -0.38,0.18 0.2,0.85 -0.6,0.78 0.18,0.62 -0.86,1.04 0.23,1.1 0.63,0.71 -0.84,0.26 -0.79,-2.19 -1.06,-0.71 -0.02,-1.1 -0.61,-0.68 -0.17,-1.08 -0.62,-0.6 -0.83,0.27 -0.59,-0.28 -0.15,0.26 -1.08,-1.67 0.55,-1.19 0.61,0 0.4,-0.47 0.6,0.15 0.35,-0.44 0.77,0.42 0.52,-0.6 z m 17.46,-47.16 0.25,0.76 1.17,0.64 2.05,-0.2 0.79,0.36 0.25,1.03 0.87,0.05 -0.21,1.31 0.39,-0.8 2.66,0.5 0.62,0.4 0.9,1.54 -0.12,1.13 -2.48,0.95 -2.27,0.22 -0.43,0.35 3.42,-0.11 0.88,0.52 -0.75,0.83 -1.39,-0.02 -2.72,1.17 -0.53,-0.28 -1.07,0.41 1.42,0.26 0.54,-0.29 0.6,0.38 2.17,-0.85 0.44,0.33 -0.33,0.83 0.11,1.43 -0.79,1.74 -0.67,0.17 -0.66,-0.64 -0.11,0.54 -0.27,-0.48 -0.37,-0.04 -0.21,0.16 0.47,0.26 -1.17,0.51 -1.65,-1.07 0.65,0.58 -0.69,0.52 0.89,-0.09 1.83,0.58 0.58,2.16 -1.37,-0.05 -0.58,-0.72 0.3,2.07 -0.16,-0.43 -0.25,0.14 0.14,1.58 -0.38,0.05 0.02,0.43 -0.67,-0.25 0.08,-0.44 -0.5,-0.36 -1.82,-0.57 -0.72,0.2 0.97,-0.07 1.59,0.86 0.19,0.32 -0.37,0.07 0.85,0.46 0.13,1.05 -1.34,0.61 -0.26,-0.22 -0.37,0.26 -1.09,-0.14 1.1,0.33 0.28,-0.21 0.6,0.54 0.37,-0.43 0.13,1.78 -1,1.76 0.34,0.38 -0.6,-0.11 1.13,0.25 -0.14,0.6 0.52,0.33 0.51,1.3 -0.94,0.86 -0.42,1.39 -0.43,0.27 0.84,0.22 -0.52,0.8 0.04,0.9 -0.33,-0.01 0.61,1.14 -1.01,-0.35 0.03,0.52 -0.96,0.38 0.35,0.18 0.73,-0.42 1.01,0.04 0.51,0.7 0.27,3.22 0.23,0.23 -0.23,0.36 0.52,0.8 0.12,1.37 0.58,0.98 -0.05,0.55 0.88,1.08 0.19,1.27 0.55,0.72 1.92,5.27 1.29,1.28 1.74,2.58 1.81,1.82 0.74,1.33 2.16,1.46 0.93,0.06 1.22,1.76 0.02,0.27 -0.41,-0.11 -0.19,0.81 -0.44,0.29 0.21,0.33 -0.69,0.7 0.23,0.55 -3.07,-1.62 -0.11,0.54 -0.9,-0.19 -0.19,-0.52 -0.44,-0.15 0.48,0.91 0.78,0.4 0.9,0.32 0.63,-0.24 1.04,0.99 0.05,0.44 -1.42,-0.25 -0.98,-0.66 -0.48,0.1 -0.28,-0.43 -0.96,-0.32 -0.8,-0.92 -0.32,0.14 0.73,0.77 -0.5,0.01 -0.52,-0.82 -0.1,-1.27 0.64,-0.04 -0.58,-0.49 -1.27,0.8 -0.89,-0.87 -0.24,0.39 0.92,0.73 -0.87,-0.17 -0.17,0.29 1,0.7 -0.53,0.37 1.05,0.21 0.38,-0.22 -0.67,-0.2 -0.03,-0.42 0.63,0.05 0.65,0.72 -0.44,0.16 0.04,0.3 0.48,-0.01 0.79,0.88 -0.48,0.01 0.03,-0.32 -0.39,-0.17 -0.94,0.45 -2.09,-1.85 -0.52,-0.16 0.28,0.38 -0.44,0.17 -1.41,-0.85 0.43,0.59 -0.15,0.22 1.27,1.03 0,0.57 -0.54,-0.42 -0.43,0.24 -0.41,-0.75 -0.21,0.27 -0.61,-0.22 -0.99,-1.52 -0.76,-0.48 -0.32,-0.88 -0.58,0.64 1.08,1.6 -0.33,0.3 -0.18,-0.57 -1,-0.76 -0.04,0.51 -0.35,0.07 0.72,1.15 -0.29,0.04 -0.06,0.54 -0.56,0.1 -0.04,0.53 -0.84,-0.56 -0.7,-1.13 -0.53,-0.06 -0.26,-0.44 -0.39,0.19 -0.84,-1.26 -0.09,-0.4 0.31,-0.27 -1.16,-0.84 -0.74,-0.2 0.33,0.74 -0.57,0.45 -1.09,-1.06 -0.23,0.3 0.55,0.63 -0.41,-0.13 -0.29,0.29 -0.88,-0.45 0.07,0.37 -0.79,-0.19 -0.63,-1.02 -0.21,0.41 -0.31,-0.46 -0.6,0.11 -1.39,-0.96 -0.33,0.06 0.4,0.42 -0.18,0.26 -1.47,-1.73 0.4,0.15 1.25,-0.56 0.77,0.11 0.67,-1.27 -1.73,-2.55 1.03,-0.18 0.29,-0.43 1.76,1.46 -0.38,-1.27 -0.67,-0.94 0.47,0.24 0.17,-0.39 0.51,-0.05 0.76,-1.06 -0.24,-0.87 -0.57,1.3 -0.62,-0.35 -0.11,-0.42 -0.32,0.03 0.02,1.15 -0.7,-0.42 0.03,-0.63 -0.34,0.16 -0.77,-0.32 -0.37,-0.58 -1.32,-2.54 0.03,-1.19 -0.5,-1.44 0.7,-0.41 0.1,-0.85 0.48,-0.76 -0.35,-0.35 -0.58,0.33 -1.2,2.06 0.07,0.79 -0.44,-0.62 -0.57,0.22 -0.09,-0.63 -0.51,-0.37 -0.08,0.5 0.72,0.99 -0.56,0.73 -1.36,-1.35 -1.25,-3.38 0.25,-0.32 -0.55,-1.47 -0.34,0.04 0.21,2.15 -0.31,0.67 -0.62,-0.32 0.41,1.95 -0.95,-1.15 -0.4,-1.96 -0.03,0.83 -0.23,0.42 -0.27,-0.05 -0.13,0.52 0.83,1.3 -0.87,-0.23 -0.56,0.42 -1.07,-0.25 -0.3,0.2 -0.98,-1.27 -1.01,-0.48 -0.38,-0.96 0.05,-0.95 -1.04,-3.97 1.05,-6.13 1.54,-1.24 0.52,-0.87 0.61,1.13 0.87,0.28 0.42,-0.09 0.64,-0.8 0.66,1.67 0.46,0.14 0.43,-0.48 -0.21,-1.72 0.29,-0.47 0.46,0.19 -0.61,-1.33 0.49,0.04 0.42,-0.42 -0.45,-0.07 -0.27,-0.93 1.39,0.8 -0.31,-1.1 0.26,0.24 0.5,-0.29 0.13,-0.61 -1.04,-0.67 -0.04,-0.44 0.68,0.17 0.63,0.75 -0.32,-0.82 0.29,-0.73 -0.45,-0.57 0.79,-0.81 -0.28,-0.21 -0.49,0.33 0.11,-0.71 1.25,-0.56 -0.17,-0.43 0.74,-0.66 -0.46,-0.4 0.52,-0.37 1.03,-0.15 0.97,0.62 0.25,-0.27 -0.96,-0.58 -1.2,-0.01 -1.41,1.13 -0.41,-0.12 0.88,-1.48 -0.2,-0.27 -0.5,0.38 -0.36,-0.4 0.57,-0.41 0.43,0.2 0.5,-0.49 -0.43,-0.56 -0.24,0.6 -1.78,-0.29 -0.78,-1.22 -0.44,-0.15 1.23,-3.19 2.56,-1.44 2.26,0.96 1.51,0.03 -1.15,-0.74 -0.02,-0.3 -0.71,-0.04 -0.76,-0.49 -0.15,-0.46 0.3,-1.34 0.49,0.04 0.2,-0.29 0.59,0.55 0.48,0.01 0.18,-0.48 -0.64,-0.23 -0.85,-1.19 0.15,-0.41 -0.27,-0.23 0.29,-0.45 -0.12,-0.51 1.78,-2.33 0.32,-0.14 0.62,0.32 0.94,-1.06 1.44,-0.68 0.44,0.5 0.51,-0.37 -0.14,0.63 0.21,0.13 1.27,0.09 0.43,-0.69 0.8,-0.23 0.71,0.64 0.2,-0.18 -0.73,-0.8 0.3,-0.95 0.91,-0.81 0.65,0.1 0.68,-0.87 1.1,-0.56 2.06,1.3 z m 39.64,-71.05 0.34,0.03 0.09,-1.29 0.39,-0.57 1.77,-0.3 0.66,-1.36 -0.18,-0.86 -1.23,0.17 -0.38,-0.43 0.65,-1.41 -0.29,-1.4 1.23,-1.04 0.29,0.13 -0.19,0.39 1.78,-0.63 1.24,0.09 0.56,-0.8 0.92,0.86 0.81,-0.53 0.26,0.82 2.22,0.38 0.41,-0.28 0.61,0.09 -0.07,2.18 0.58,-0.09 0.41,0.54 0.4,-1.49 0.54,0.53 0.35,-0.6 -0.16,-0.45 0.4,0.07 -0.14,-0.44 0.29,-0.5 0.58,0.54 -0.15,0.78 0.45,-0.14 0.36,0.32 -0.12,0.34 0.73,0.31 0.57,-0.85 0.5,-0.08 0.91,-1.06 1.88,-0.83 -0.31,-0.37 1.29,-0.79 0.49,0.21 0.94,-0.32 0.82,0.91 0.46,0.12 0.75,-0.62 0.19,-0.56 0.84,-0.55 0.7,0.35 0.39,-1.38 0.67,0.7 0.68,0.04 0.58,0.48 -0.73,-1.27 0.48,-1.42 0.62,0.2 0.2,-0.31 -0.27,-0.37 0.13,-0.55 0.85,-0.59 1.05,0.07 0.35,0.93 0.82,-0.41 0.03,-0.61 0.78,-0.25 0.26,-1.61 0.64,-0.56 0.6,-0.06 0.48,0.7 2.33,1.2 0.41,-0.06 0.42,-0.43 -0.66,-1.12 -0.09,-1.17 -1.12,-1.64 0.43,-1.65 0.75,-1.05 0.59,-0.32 0.54,0.28 0.97,-1.46 0.62,-0.08 0.7,-1.45 0.85,-0.63 0.69,-0.09 0.36,-0.82 1.6,-0.54 0.05,-0.76 0.76,-0.71 1.06,0.52 2.48,-2.03 2.75,-0.34 1.4,0.28 0.63,0.86 0.71,-0.19 0.42,0.41 0.74,-0.05 0.49,1.41 0.59,-0.35 0.28,0.8 1.29,1.05 -0.43,1.56 0.51,0.87 0.82,0.13 -0.14,1.71 0.92,0.85 -1.56,2.2 -0.37,2.33 0.72,0.61 -1.13,1.34 -1.16,2.68 -1.09,0.53 0.21,0.54 -0.91,1.61 -0.92,0.64 0.06,0.53 0.73,0.47 -0.16,0.43 -0.77,0.27 -0.58,-0.22 -1.23,0.55 -2.73,2.06 -0.84,0.33 -2.7,2.51 -0.75,0.04 -1.82,0.82 -1.7,1.64 -0.63,0.13 -0.6,-0.38 -0.01,0.57 -1.24,0.95 -1.24,0.19 -2.78,1.19 -0.17,0.48 -2.32,1.37 -0.29,0.88 -0.43,-0.08 -0.76,0.5 -0.91,-0.18 -0.06,0.34 -1.1,0.21 -0.83,0.76 -2,0.88 -1.61,0.15 -1.08,1.16 -0.82,0.11 -0.64,1.37 -0.29,-0.4 0.46,-0.79 -0.66,-0.36 0.08,-0.74 -0.42,-0.37 -0.2,1.33 -0.79,0.76 -0.3,0.81 -0.72,0.28 -0.31,0.55 -0.73,0.05 -0.02,0.26 -1.12,-0.64 -0.31,1.01 -1.33,1.45 -1.76,0.48 -1.6,1.22 -0.38,0.62 -0.5,0.11 0.33,-0.4 -0.26,-0.34 -0.55,0.28 -1.04,-0.04 -1.3,2.39 -0.23,0.98 -0.08,-1.47 -0.45,0.08 -0.4,1.39 0.19,0.83 -0.45,0.29 0.05,0.59 -0.46,0.06 -0.37,0.97 -0.55,0.39 -0.39,-0.59 0.17,-2.3 -0.59,-0.15 -0.24,0.58 0.36,0.29 -0.66,0.77 -0.55,1.74 -0.62,0.64 -0.76,0.26 -0.07,0.49 -0.92,0.26 -0.27,0.5 0.22,0.63 -0.39,0.3 0.38,0.36 -0.56,1.74 -0.7,-0.13 -0.32,-1.04 0.16,-1.01 -0.67,-0.05 -0.18,0.74 -0.38,0.01 0.23,0.27 -0.69,0.24 0.4,0.39 -0.17,0.97 -1.39,0.79 0.18,-0.23 -0.4,-0.59 -0.22,0.75 -1.01,-0.53 -0.34,0.29 0.8,0.83 0.87,0.35 2.63,-0.21 0.48,0.96 -0.67,1.73 -0.37,0.22 -2.06,-0.12 -0.42,-0.46 0.5,1.89 0.67,0.29 -0.16,1.13 -1.08,0.67 -1.21,0.14 -1.68,-0.58 -0.58,0.27 -0.44,-1.09 -0.73,-0.82 -0.34,-0.01 0.96,1.39 -0.11,0.58 1.1,0.32 0.21,0.83 0.51,0.25 0.24,1.69 -0.53,0.35 -0.18,0.56 -1.15,-0.02 -1.98,-2.83 -0.68,-0.11 -0.37,-0.41 -0.2,-1.1 -0.54,0.26 0.31,1.35 1.12,1.64 -0.79,-0.17 -0.17,0.27 0.18,0.82 -0.56,1.47 0.28,0.78 -0.41,1.02 0.38,0.3 0.13,0.77 -0.47,0.07 -1.83,-0.73 -0.85,-1.22 -0.92,-0.25 -2.27,-1.65 -0.29,0.86 1.11,0.82 0.62,0.04 1.28,2.69 -0.3,0.71 0.57,1.28 -0.39,0.72 0.67,1.17 -0.67,0.31 0.73,0.52 -1.08,0.21 -0.22,-0.28 -0.09,0.47 0.68,-0.01 0.17,0.46 -1.07,-0.23 -0.32,0.32 0.56,0.21 -0.11,0.96 -0.93,-1.08 -1.01,-0.19 0.49,1.36 1.41,0.3 0.03,0.56 -0.35,-0.39 -0.81,-0.06 -0.23,0.22 0.22,0.47 -0.17,0.58 -0.39,-0.21 0.26,-0.56 -0.17,-0.39 -1.27,-0.69 -0.06,0.61 0.7,0.74 -0.13,1.21 0.69,1.26 -0.75,0.05 -0.05,0.53 -1.69,-0.61 -0.99,-1 -0.54,-0.13 -0.49,-1.88 -1.22,-1.96 -0.52,0.48 0.88,2.39 -0.39,0.22 -0.83,-0.35 -1.23,0.19 0.46,0.33 0.85,-0.16 0.94,0.38 0.26,-0.19 2.5,4.16 -0.21,0.36 -0.17,-0.23 -0.65,0.37 0.87,0.44 0.19,2.48 -0.62,0.85 -0.97,0.59 -0.52,-1.77 -0.75,-0.94 -3.81,-1 -1.31,0.12 -0.61,-0.96 -0.78,0.21 1.23,1.02 1.13,-0.03 2.11,1.03 0.76,-0.04 0.64,0.71 -0.14,0.39 0.84,0.37 0.76,2.89 -0.08,0.89 -0.68,0.6 -1.11,0.22 -0.04,0.78 -1.37,-0.43 -1.43,-0.81 -1.14,-2.33 -1.31,-1.06 -1.47,-0.47 1.94,1.15 0.69,0.79 -0.15,0.61 1.04,1.08 -1.23,0.38 1.25,0.02 2.35,2.49 0.04,0.89 -0.63,0.54 -0.1,0.67 -1.66,2.69 -0.66,-1.56 -0.61,0.23 0.35,0.95 0.28,-0.05 -0.62,1.36 0.15,0.47 -0.44,0.12 -2.32,-0.81 -1.66,-0.02 -0.38,-0.68 -0.02,-1.9 -1.52,-2.06 -0.35,-1.37 -0.35,-0.33 0.51,1.73 0.82,1.07 -0.06,2.65 -1.46,-1.04 -2.42,0.25 -0.77,-0.51 -0.53,-1.08 -1.04,-0.77 -1.22,-0.43 -1.42,0.54 -0.87,0.86 -0.55,-0.09 -1.26,1.51 -1.05,0.38 -0.19,-0.57 -0.77,-0.09 -0.18,-0.59 0.71,-0.96 1.02,0.02 0.53,-1.13 1.13,-0.77 0.04,-0.46 -1.37,0.96 -0.75,-0.75 1.25,-1.98 2.2,-1.29 0.3,-0.68 1.32,-0.15 1.49,-1.08 0.99,0.01 0.12,-0.39 0.41,-0.08 -0.13,-0.25 -0.56,0.45 -1.81,0.07 -0.72,0.72 -0.37,-0.46 0.5,-0.76 -1.17,0.78 -1.03,-0.25 -2.47,2.4 -0.85,-0.52 -0.48,0.42 -0.68,-0.42 0.07,-0.49 -0.42,-0.19 -0.4,-0.91 -1.28,-0.98 -0.33,-0.68 0.31,-1.1 0.26,0.61 1.41,0.06 1.06,-1.3 -0.23,-0.33 0.25,-0.46 1.28,-1.43 0.9,-0.56 1.61,-0.24 0.6,-0.65 1.19,0.44 0.29,0.86 1.16,0.11 -1.22,-0.61 0.34,-0.3 -0.38,-0.82 -1.99,-0.65 0.07,-0.61 3.08,-3.54 0.34,0.32 0.7,-0.45 1.34,1.01 1.57,0.06 0.4,0.36 -0.18,0.28 0.79,-0.16 0.5,0.36 0.04,0.46 0.58,0.01 0.88,0.84 1.67,-0.18 0.13,-0.22 -0.61,-0.11 -0.87,0.27 -1.24,-0.87 -0.1,-0.33 0.79,-0.35 0.43,-1.1 -0.56,0.9 -0.54,0.12 -0.5,-0.45 -1.21,-0.29 0.16,-0.34 -0.46,-0.89 -0.69,-0.05 -0.25,-0.4 -0.92,-0.36 -1.27,-0.15 -0.36,-0.59 0.42,-0.81 0.65,-0.43 0.15,0.99 2.5,-0.81 0.44,0.82 0.42,-0.31 0.1,-0.53 -0.63,-0.93 -0.57,0.29 -0.3,-1.04 -0.49,0.23 -1.43,-0.33 0.45,-1.62 0.85,0.14 1.11,-0.76 1.88,0.04 1.55,-0.6 0.28,-0.42 -1.06,-0.29 0.37,-0.44 -0.2,-0.64 -1.41,-0.2 -0.94,0.53 -0.11,-0.69 -1,-0.39 0.38,-1.11 -0.07,-1.03 1.7,-1.53 0.4,0.4 0.37,-0.11 -0.17,0.44 0.35,0.26 0.59,-0.06 0.13,-0.49 1.81,-0.59 0.84,-0.66 0,0.4 1.51,1.26 1.3,-0.03 0.19,-0.49 0.72,0.09 0.21,-0.24 -0.57,-0.74 -0.8,0.62 -1.06,-0.02 -0.49,-1.25 -0.4,-0.26 -0.39,0.24 0.05,-0.63 0.77,-0.37 -0.23,-0.38 -1.02,0.24 -0.42,-0.38 -0.94,0.11 -0.53,0.34 -0.34,-0.15 -0.28,0.37 -0.53,-0.04 -0.6,-0.64 0.03,-0.58 0.94,-1.03 2.45,-1.49 0.68,0.3 0.93,-0.93 0.76,-0.03 0.28,-0.35 -0.92,-0.49 -0.66,0.03 -0.52,0.76 -0.61,0.27 0.35,-0.78 -0.61,0.14 0.01,-0.27 1.04,-0.93 -0.58,-1.06 -1.97,0.72 -0.59,0.83 -0.86,0.07 0.14,-1.56 0.43,-0.96 -0.93,-0.72 -0.47,0.26 0.37,-1.79 0.59,-1.01 1.03,-0.67 0.07,0.72 0.97,-0.35 -0.24,0.56 0.33,0.36 0.89,-0.62 1.05,3.34 0.44,-0.54 0.67,-0.19 -0.09,-1.42 0.78,-0.64 0.41,-1.2 0.67,-0.16 0.46,-1.19 -0.61,-0.73 -0.78,-0.04 -0.15,-0.75 1.72,-1.91 0.54,-0.29 1.61,0.56 0.89,-0.3 -0.12,0.63 1.37,0.94 2.22,-0.15 -0.14,-0.93 -0.92,0.01 -0.19,-0.73 0.21,-1.02 -0.52,-0.97 -0.51,0.02 -0.14,-1.25 0.35,-0.57 1.82,-0.78 0.65,-0.65 0.92,-0.23 0.18,0.19 0.9,-0.77 -0.16,-1.18 -1.24,0.43 -0.49,-0.39 -0.2,0.18 -0.08,-0.39 0.75,-1 0.18,0.29 0.65,-0.41 0.47,0.13 3.03,-1.64 -0.04,-1.04 -0.63,0.09 0.62,-0.73 0.68,-0.17 -0.19,-0.64 1.07,-1.28 0.52,-0.2 1.45,0.43 0.45,-0.89 1.2,-0.1 -0.17,-1.26 1.09,-0.18 1.56,0.71 0.73,-0.77 1.16,-0.17 0,-0.65 0.29,-0.27 1.23,0.11 0.86,-0.35 0.33,-0.54 -0.22,-0.3 -0.65,-0.63 -0.96,-0.13 -0.18,-0.57 1.37,-1.44 1.79,-0.85 0.82,0.33 1.28,-0.01 -1.06,1.16 -0.87,1.63 -0.74,0.53 0.31,0.12 0.15,0.66 0.54,-0.35 0.71,0.29 0.33,-0.33 z m -5.46,-139.580002 0.35,0.05 -0.05,0.27 -1.11,0.66 -0.98,1.6 -1.4,0.01 -0.38,0.89 -0.78,0.15 -0.4,-1.04 -0.85,-0.5 -0.27,-0.53 -1.57,-1.35 -1,-0.21 0.16,-0.52 2.58,-2.18 2.09,-0.89 1.42,0.24 1,0.55 1.19,2.8 z m -62.57,-2.16 0.46,0.08 -0.74,2.77 1.31,1.45 -0.08,0.51 0.41,0.67 -0.3,0.33 -2.04,0.19 -2.53,-0.82 -1.48,0.16 -1.06,-0.46 -0.12,-0.9 -0.92,0.63 -1.19,-0.09 -0.23,-0.4 0.25,-0.59 1.44,-1.1 0.6,0.3 0.27,0.81 0.33,-0.06 0.88,-0.86 0.9,-2.35 1.72,-1.14 0.21,-1.3 1.15,0.86 0.01,0.51 0.75,0.8 z m -6.5,-3.23 -1.48,0.08 -0.27,1.11 0.41,1.7 -0.72,0.69 -0.56,-0.07 -0.6,-0.37 -0.2,-1.43 -1.95,-2.05 -0.25,-0.87 0.57,-0.92 1.73,-1.39 1.71,-0.56 1.2,0.39 0.78,1.12 0.05,1.23 -0.65,0.71 0.23,0.63 z m 36.53,-7.84 0.65,0.05 0.27,0.36 -0.4,2.02 -1.03,0.56 -0.6,0.92 -1.15,0.43 -1.11,-1.34 0.08,-0.25 0.28,-0.19 0.74,0.3 0.06,-0.84 0.91,-0.28 -0.8,-1.07 0.87,-0.77 1.02,-0.65 0.21,0.75 z m 11.29,-1.48 0.16,0.73 1.03,0.73 0.23,0.56 -0.63,3.54 0.69,1.03 -0.86,0.87 -0.06,2.57 0.26,0.52 -0.45,1.55 -0.25,0.26 -1.26,-0.12 -0.54,0.19 -0.06,0.4 -1.81,-0.75 -2.03,0.34 -2.75,-1.3 2.22,-3.79 -0.72,-2.09 0.09,-1.15 -0.84,-1.99 0.81,-0.75 2.05,-0.59 1.15,0.15 0.64,0.91 0.46,0.02 0.29,-0.3 0.08,-1.5 2.1,-0.04 z m -25.92,-1.23 0.31,0.51 -0.36,1.18 4.05,4.64 -1.06,1.83 -0.63,-0.91 -0.8,0.4 -0.32,0.5 -0.07,1.83 -0.57,0.47 -0.52,-0.03 -0.74,-0.72 -4.02,-0.05 -2.38,-1.54 -1.04,-1.54 -0.12,-1.16 0.73,-0.46 2.01,0.14 0.44,-1.2 1.19,-0.2 0.42,-1.47 -0.96,-0.39 -0.13,-0.32 1.25,-1.43 0.79,-0.45 0.95,0.63 0.82,-0.73 0.76,0.47 z m 9.46,1.21 -0.57,0 -0.17,-0.55 2.31,-1.47 -0.77,1.7 -0.8,0.32 z m 24.17,-5.39 0.57,0.53 1.01,-0.1 4.7,2.25 0.86,1.27 0.63,0.39 1.1,2.32 -0.31,0.49 -2.47,-0.04 -1.89,-0.72 -0.28,1.05 -1.06,-0.12 -0.85,1.03 -1.31,0.75 -0.43,1.68 1.22,-0.04 1.19,0.65 0.27,0.48 -0.53,1.04 0.23,1.26 -3.08,-0.76 -0.27,0.3 0.74,1.77 -0.26,1.13 -1.38,-0.34 -1.48,-1.01 -0.45,-0.65 -1.71,-0.84 -0.69,-6.85 0.29,-1.34 -0.52,-0.94 -0.08,-1.29 -1.46,-2.06 2.25,-0.5 0.51,-0.44 1.36,0.39 0.35,-0.53 3.23,-0.21 z m -25.45,4.33 -0.59,-0.38 0.21,-1.85 0.86,-1.32 0.27,-1.02 0.71,0.37 0.84,1.99 -0.5,1.5 -1.8,0.71 z m -1.15,-5.11 0.82,0.13 0.43,0.7 -0.03,0.36 -1.02,0.76 -0.37,1.58 -0.54,-0.09 -1.23,-1.16 -1.49,-0.28 0.02,-2.1 0.53,-0.99 -1,-1.9 0.6,-1.5 0.97,0.02 1.63,0.62 -0.01,0.72 -0.62,0.3 -0.42,0.82 1.81,0.59 0.26,0.58 -0.55,0.66 0.21,0.18 z m 25.31,-5.53 0.51,0.11 0.63,-0.44 0.19,0.67 -1.35,3.62 -0.94,0.09 -0.37,-0.5 -0.58,0.23 -0.28,0.52 -1.98,-1.67 -0.24,-1.23 0.47,-0.1 0.35,-0.63 2.69,-0.65 0.45,-0.52 0.45,0.5 z m -32.24,0.11 0.2,2.95 0.93,1.61 -0.87,1.94 -0.88,-0.72 -0.72,-1.35 0.3,-2.19 0.48,-0.77 -1.88,-1.32 0.8,-0.38 -0.13,-0.85 0.23,-0.15 0.72,0.31 0.82,0.92 z m 22.15,-6.3 2.91,2 0.83,1.87 -0.72,2.13 -1.35,0.81 -1.16,-0.13 -1.08,0.75 -0.4,-0.24 -0.23,-1.21 -1.91,1.13 -3.07,-0.76 -0.45,-0.46 1.31,-2.4 -0.37,-0.36 -1.79,0.44 -0.25,-0.2 0.55,-0.8 1.83,-0.53 0.5,-0.97 0.84,-0.5 4.01,-0.57 z m -63.3,-3.38 2.02,1.72 1.27,-0.53 0.42,0.16 0.7,-0.51 1.56,0.85 0.71,1.02 0.11,1.22 -1.09,0.36 0.01,0.44 0.9,0.6 0.41,1.04 -0.21,0.72 0.79,0.4 0.44,0.65 -0.7,1.5 -0.36,0.09 -0.47,-0.39 -0.57,0.13 -0.2,-0.87 -0.39,-0.26 -1.12,0.24 -0.82,-0.23 -0.91,-1.12 0.12,-2.15 -0.96,0.34 -0.17,-1.91 -0.68,-0.53 -0.74,0.04 -0.83,0.74 0.52,1.08 -1.06,-0.47 -0.24,0.25 0.12,0.99 0.48,0.2 0.1,1.35 -2.04,-0.5 0.02,1.81 0.36,0.24 0.06,0.67 0.58,0.47 -0.01,1.27 -0.95,-0.09 -1.11,-0.73 -1.46,1.6 -0.34,1.65 -1.2,-0.17 -0.69,-0.54 -0.52,0.8 0.36,1.65 -0.74,-0.44 -0.78,0.14 0.06,1.68 -0.72,0.66 -0.79,0 -1.05,-0.52 0.53,-2.58 -0.2,-1.69 -1.03,0.07 -0.61,0.66 -0.56,-0.44 -0.43,0.07 -0.42,1.36 -0.61,0.24 -1,-1.78 -1.04,-0.66 -1.62,-0.32 -0.59,-0.78 -0.56,-0.23 0.94,-0.96 1.72,-0.2 0.43,-0.53 1.5,-0.67 4.22,-0.65 1.75,-1.06 0.92,-1.04 -0.1,-0.34 3.09,-1.07 0.85,-1.4 1.54,-0.69 -0.62,-1.19 0.2,-1.03 1.08,0.18 0.79,-0.83 1.63,0.75 z m 103.8,0.38 0.56,2.73 -0.04,2.76 -0.25,1.95 -0.6,0.48 -0.4,1.03 -0.06,0.98 0.31,0.6 -1.41,1.21 -1.56,0.33 -0.49,2.18 0.39,1.59 -0.81,0.56 -1.63,0.32 0.86,0.28 -0.93,2.45 -0.79,0.33 -0.48,0.64 -2.28,-0.67 -1.46,-0.73 -0.59,-1.16 -1.17,-1.26 -1.17,0.3 0.1,0.53 -0.35,0.42 -0.57,0.02 -2.79,1.73 -1.16,-3.05 -0.65,-0.41 -0.68,-1.01 0.94,-1.54 -0.61,-1.04 0.14,-2.25 -0.34,-0.52 0.7,-0.37 -0.29,-0.79 0.42,-2.51 0.55,-1.25 0.9,-0.96 -0.55,-1.45 0.02,-0.25 0.43,0.24 -0.16,-0.64 1.01,-0.9 0.78,-0.08 1.38,-0.81 1.6,0.77 -0.75,0.59 -1.42,0.19 0,0.36 2.06,-0.45 0.9,0.94 1.8,-0.91 0.55,0.41 0,-0.37 0.5,-0.36 1.51,-0.27 1.52,-0.84 0.88,0.48 1.78,-2.15 3.15,0.18 0.7,1.42 z m -48.96,-0.57 0.27,0.36 0.95,0.22 1.28,1.26 1.08,0.17 1.13,1.3 -4.25,1.54 -1.61,-0.26 -1.33,1.26 -0.57,-0.09 -1.27,-1.07 0.15,-1.52 -0.28,-0.41 -1.49,-0.19 -1.42,0.47 -1.66,-1.26 -0.09,-0.95 0.79,-1.13 1.33,-0.65 0.33,-0.05 0.68,0.59 0.95,-0.74 1.14,-0.11 0.4,0.22 -0.27,0.88 0.25,0.18 0.77,-0.31 0.37,-1.21 0.8,-0.09 0.75,0.19 0.74,0.75 0.08,0.65 z m 25.61,-1.32 0.95,2.21 -0.46,2.8 -1.57,0.17 -1.62,1.48 -1.26,-0.27 -1,-1.07 -0.7,0.17 -1.53,-0.91 -0.21,-1.05 1.25,-0.41 1.25,-2.32 0.94,-0.53 3.01,-0.59 0.95,0.32 z m -56.7,0.79 -1.1,0.74 -1.15,0.16 0.33,0.6 -0.3,0.24 -1.46,0.1 -0.15,0.47 0.87,-0.08 0,0.32 -1.1,0.84 -0.02,0.55 -0.49,-0.12 -0.89,0.78 0.5,0.12 0.6,0.91 0.58,0.18 1.56,-1.99 0.56,0.81 0.58,-1.37 0.82,-0.29 0.48,0.99 0.81,0.03 0,-0.96 1.02,-0.65 1.66,1.78 0.05,0.77 0.69,0.05 1.48,1.21 -0.14,0.48 -2.72,3.11 -1.7,0.59 -0.24,1.5 -1.04,1.68 -1.5,0.78 -4.04,0.39 -1.54,1.1 -1.14,0.46 -1.08,0 -0.22,0.72 0.94,1.15 0.1,2.26 -0.4,0.82 -0.37,0.02 -0.53,0.67 -0.64,0.25 -1.23,-0.19 -1.65,-0.88 -1.23,0.14 -0.61,-0.61 -0.7,0.41 0.2,1.8 -0.69,0.26 -0.67,-0.14 -0.62,0.58 0.03,1.73 0.52,-0.43 0.55,0.31 1.49,-0.22 0.5,0.63 -0.19,0.8 0.45,0.47 -1.06,1.01 0.85,0.67 0.71,0.15 0.34,0.97 -0.59,0.47 -0.91,-0.06 -0.1,0.46 0.27,0.29 -0.72,-0.03 -1.37,-0.79 -0.33,-0.96 -0.64,-0.27 -0.44,0.98 0.57,1.86 -1.16,1.99 -0.61,-1.68 -1.01,-0.19 -1.09,0.86 -0.03,0.43 0.36,0.2 -0.16,0.67 -2.19,0.69 -0.34,-1.26 1.43,-3.43 1.22,-0.38 0.95,-0.89 -2.33,-0.17 0.15,-0.53 0.96,-0.49 0.01,-0.8 -0.93,-0.21 -0.87,0.65 -0.76,-0.16 -0.19,0.51 -0.58,-0.41 -0.15,0.5 -0.83,-0.11 -0.17,0.29 0.72,1 -0.08,0.4 -0.93,-0.17 -0.93,1.11 -0.54,-0.01 -1.23,-1.1 0.45,-1.44 -1.89,-2.63 0.08,-1.35 1.33,-0.82 0.69,-1.24 1.29,-0.6 0.75,0.7 -0.35,2.09 0.34,0.15 0.93,-0.55 0.63,-0.03 0.36,1.1 1.01,-0.55 0.37,0.52 2,-0.15 -1.16,-0.86 -0.09,-0.45 1.66,-0.04 0.16,-0.23 -2.73,-0.69 -0.64,-0.6 -0.45,-1.12 1.19,-0.5 1.37,0.33 0.92,-0.56 1.72,0.76 0.02,-0.65 -1.05,-0.83 0.35,-0.7 -0.25,-0.33 -2.38,-0.46 -2.6,0.73 -0.64,-0.42 2.56,-1.89 1.27,-1.35 0.88,-0.43 0.69,0.57 1.17,-0.93 1.16,0.12 -0.04,0.4 0.59,0.29 -0.17,0.99 0.29,0.18 0.52,-0.27 0.6,1.07 0.92,-0.2 -0.13,-1.5 1.01,0 1.12,0.42 0.41,-0.3 0.13,-0.49 -0.29,-0.72 0.47,-0.57 -0.13,-1.09 0.75,-0.37 0.29,0.18 0.35,-0.35 -1.07,-1.47 1.07,-0.63 0.73,0.29 0.3,-0.18 0.8,-0.98 -0.35,-0.47 0.28,-0.55 -0.49,0 0.25,-0.68 -0.24,-0.6 -2.79,0.95 -0.01,-0.89 0.91,-1.4 -0.31,-0.16 -0.61,0.66 -0.46,-0.17 -0.24,0.97 -0.33,0.09 -0.62,-1.04 1.19,-0.69 0.18,-0.73 -0.37,-0.31 -0.84,0.1 2.46,-1.78 0.77,-0.08 0.4,-0.73 0.95,-0.66 1.14,-2.64 2.94,-1.78 0.68,0.67 0.92,0.23 -0.38,0.54 -1.52,0.34 -1.82,1.13 0.55,-0.01 -0.15,0.48 0.63,0.06 0.26,0.92 0.67,-0.21 0.28,-0.9 2.53,-0.94 1.95,-2.44 1.02,3.65 -0.16,0.81 z m 52.72,-10.16 0.4,0.05 0.4,0.91 1.74,1.3 0.54,0.96 -0.85,1.88 -0.05,1.08 -0.75,0.47 -1.4,-0.2 -1.95,-3.15 -1.02,-0.88 -0.42,-0.84 0.1,-0.36 0.93,-0.47 0,0.5 0.58,-0.17 0.18,-1.51 1.57,0.43 z m -24.42,-0.15 0.31,0.15 0.6,-0.32 0.62,1.02 0.89,0.16 1.53,2.56 1.47,-0.2 2.47,-0.89 1.64,0.71 0.56,1.04 2.31,1.28 0.5,1.83 0.79,0.73 0.42,1.15 1.62,1.15 1.35,0.31 2,1.04 0.69,1.3 0.88,0.82 0.06,0.75 -1.65,2.51 -2.88,1.38 -0.52,-0.05 -0.69,-0.65 -0.49,-1.92 -1.49,-0.91 -0.05,-0.81 -0.42,-0.7 -2.09,-0.59 -1.21,-0.72 -0.49,-0.07 -0.61,0.39 -1.21,-0.9 -0.92,-1.16 0.66,-0.82 -0.28,-0.38 -1.29,-0.17 -1.36,-1.32 -0.5,-1.75 -0.65,-0.06 -0.27,0.81 -1.49,-0.1 -1.43,-1.09 0.48,-0.61 -0.5,-0.81 -0.43,-0.17 -1.12,0.55 -0.88,-0.6 -0.22,-1.6 1.55,-1.56 -0.28,-0.29 -0.05,-0.99 0.41,-0.66 0.8,0.01 0.86,1.22 z m 10.94,-0.32 2.32,-0.04 0.66,0.43 1.06,1.49 1.95,-0.14 0.63,0.62 1.46,0.24 0.31,0.21 -0.16,0.8 1.01,0.87 0.86,1.6 0.65,0.11 0.61,0.92 0.98,-0.15 1.08,0.95 0.1,0.52 -1.76,1.25 -0.46,0.68 -0.48,0.11 0.12,0.87 -0.89,0.93 -2.31,-0.71 -1.43,-1.2 -0.08,-2.01 -0.79,-0.92 -1.23,-0.67 -0.76,-1.15 0.04,-1.07 -0.95,-1.49 -1.97,-0.89 -2.59,-1.97 -0.47,-0.71 0.53,-0.69 0.66,0.88 1.3,0.33 z m 33.67,-1.33 2.31,0.21 1.27,0.7 -0.04,0.4 -0.8,0.58 0.44,1.75 -0.39,1.43 -2.34,3.74 -0.76,0.76 -2.31,0.71 -2.58,-0.7 -0.79,-0.72 -0.25,-0.85 -1.36,-0.69 -0.58,-0.89 1.52,-1.03 0.55,-1.11 0.86,-0.87 1.28,-0.44 0.86,-1.06 3.11,-1.92 z m -74.55,-3.48 0.36,0.67 1.28,0.72 0.28,1.66 -0.8,1.2 -0.89,0.3 -0.18,0.58 0.38,0.78 -1.13,0 -0.97,0.53 -0.5,1.16 -0.48,-0.81 0.7,-1.11 0.07,-0.71 -0.39,-0.54 0.12,-1.19 -0.57,-0.83 -0.04,-0.61 1.13,-0.55 0.06,-0.33 -0.41,-0.16 0.23,-0.32 1.75,-0.44 z m 99.15,-0.12 1.55,0.28 0.74,0.66 0.79,-0.05 1.47,1.91 0.65,1.5 0.18,0.61 -0.29,0.1 0.85,3.17 -1.62,1.69 0.76,0.19 0.2,1.55 0.46,0.65 -0.35,2 -2.82,4.97 -1.2,0.66 -2.51,2.21 -1.04,0.31 -0.95,-0.16 -2.82,1.21 -0.24,-0.08 0.05,-0.6 -3.98,2.3 -0.91,-0.12 0.01,-0.97 -1.89,-3.32 -1.7,-1.61 -0.1,-1.11 2.07,-2.79 2,-1.89 0.72,-1.54 1.04,-0.74 0.81,-0.29 3.71,0.17 1.02,-0.58 0.56,-1.8 -0.47,-2.75 0.63,-2.57 -0.15,-0.64 1.18,-1.54 1.59,-0.99 z m -47.77,-1.57 0.96,0.64 0.33,1.09 -0.77,-0.08 -0.55,0.81 -0.6,2.48 -0.46,0.62 -0.55,-0.13 -0.19,0.36 -1.1,0.11 -1.39,-0.18 -1.81,-1.54 -0.95,-0.44 0.53,-0.98 1.69,-0.69 0.9,-1 3.96,-1.07 z m 18.99,-2.51 0.29,0.82 -1.37,1.02 -1.58,-1.17 -1.72,-0.45 -0.76,-0.9 1.38,-0.82 1.64,0.14 1.47,0.5 0.65,0.86 z m -28.02,-6.26 1.06,0.52 0.36,0.79 1.14,-0.32 2.07,1.98 0.71,-0.3 0.73,2.11 0.93,-0.24 0.25,-0.92 0.48,0.92 1.57,1 -1.99,0.81 -0.84,-0.14 -1.19,0.71 -0.94,0.18 -3.2,2.89 -0.28,0.72 -1.82,1.2 -1.21,-0.25 0.47,-1.65 -1.02,-0.67 -2.43,1.3 -2.41,-0.67 -0.25,-0.51 0.43,-1 -0.07,-1.2 -0.23,-0.24 -0.7,0.21 -0.18,-0.41 0.73,-1.47 -0.54,-0.81 1.4,-1.01 0.21,0.3 -0.22,0.64 0.61,0.38 1.12,-0.06 1.45,1.2 0.5,-0.33 0.53,0.2 0.47,0.93 1.75,0.61 0.43,-0.15 -0.84,-1.67 -0.79,-0.7 0.6,-1.71 -0.91,-2.61 2.06,-0.56 z m 16.94,-0.68 0.63,0.14 0.8,-0.27 0.27,0.25 -0.58,0.29 -0.07,0.71 0.6,0.55 0.8,2.56 -0.05,0.49 -0.65,0.77 -2.04,0.71 -2.4,-1.05 -0.8,-1.44 0.35,-1.36 1.49,-1.73 0.88,-0.7 0.77,0.08 z m -9.67,-6.8 1.25,0.51 -0.15,1.41 0.58,0.3 0.08,0.77 1.03,0.68 0.95,-0.15 1.23,0.52 1.38,1.9 0.23,0.88 -0.22,0.76 -1.8,1.35 -1.22,0.29 -2.11,-0.3 -0.72,-0.76 -1.09,-0.36 -0.45,-1.15 -0.74,-0.66 -0.37,0.3 -0.71,-0.28 -0.58,0.27 -0.46,-0.49 -1.58,-0.1 -0.31,-0.26 -0.12,-1.67 0.78,-0.22 -0.06,-1.99 0.64,-0.51 1.72,0.53 0.71,-0.6 0.39,0.18 0.48,-0.96 1.24,-0.19 z m 40.18,-7.26 1.73,0.31 0.99,0.61 0.75,0.81 0.56,1.63 -0.64,1.92 -1.03,1.12 -1.02,0.54 -2.05,-0.47 -1.33,0.08 -1.55,-0.67 -0.8,-0.73 -0.3,-1.89 -1.96,-0.29 -0.99,-0.85 0.56,-1.1 0.97,-0.5 1.77,0.07 1.25,-0.54 -0.04,0.57 -0.47,0.17 -0.13,0.41 3.73,-1.2 z m -29.93,-7.39 1.34,0.53 0.66,1.14 -0.1,1.45 -0.42,0.6 0.29,1.25 -0.76,1.21 -2.69,0.46 -0.27,0.36 -0.82,-0.42 -1.39,0.18 -0.57,0.77 -0.52,0.04 -1.01,0.92 -0.51,0.02 -1.24,-1.3 -0.08,-1.65 0.71,-1.07 -1.09,-2.14 2.17,-1.14 1.54,0.23 3.01,-1.41 1.75,-0.03 z" 
                fill="rgb(151, 144, 238)" 
                stroke="white" 
                stroke-width=".7px"
                title="Архангельская область" 
                id="RU-ARK" 
            />
        </svg>