<svg xmlns="http://www.w3.org/2000/svg" viewBox="112.7801100000001 653.9708199999999 28.900000000000006 18.289999999999736" width="28.900000000000006" height="18.289999999999736">
            <path 
                d="m 113.12011,658.61082 0.68,0.15 0.35,0.68 1,-0.17 0.6,-0.46 0.62,0.29 0.48,-0.82 0.55,-0.14 0.17,-0.52 -0.44,-0.24 0.63,-0.71 0.6,0.66 0.95,-0.35 0.66,0.47 1.89,0.41 1.4,-1.18 1.81,-0.31 0.72,-1.15 1.49,-0.33 0.47,-0.37 1.5,-0.1 1.09,0.27 0.97,-0.66 0.76,-0.06 2.4,1.68 0,0 1.27,0.35 0.2,0.43 -0.04,0.56 -0.64,0.39 0.09,0.79 1.58,0.53 0.94,-0.82 0.66,0.59 -0.17,0.81 0.53,0.56 -0.25,0.31 -0.73,-0.25 -0.2,0.94 0.75,0.41 -0.11,0.52 0.58,0.75 0.53,-0.03 0.46,0.7 1.09,0.41 -0.12,0.36 -0.67,-0.03 0.29,0.69 -0.53,0.69 0.58,1 -0.23,0.55 0.44,1.93 0.84,0.78 0.07,0.58 -0.6,1.59 -0.45,0.31 0,0 -0.4,-0.64 -0.36,0.48 -1.14,0.37 -0.24,-0.69 -1.3,-0.47 -0.43,-1 -0.17,0.44 -1.15,-0.1 -0.19,-0.35 -0.52,0.13 -0.47,-1.1 -1,0.11 -0.07,0.82 0.26,0.31 -1.38,0.58 0.1,-0.37 -0.94,-1.16 -1.13,-0.4 -0.77,-0.9 -0.04,-1.44 -0.46,0.07 -0.72,-0.61 0.02,-0.93 -0.54,0.29 -0.53,-0.11 -1.21,0.8 -2.21,0.16 -1.42,1.19 -0.63,-0.32 0.16,-0.49 -0.27,0.16 -0.71,-0.54 -1.03,0.46 -0.25,-0.73 -0.9,-1.01 -0.58,-0.17 -1.72,0.16 -0.68,1.01 -0.77,-0.01 -0.35,-1.19 -0.51,-0.17 -0.71,-1.21 0.04,-0.76 0.61,-0.22 -0.09,-1.07 -0.68,-1.22 0.07,-0.61 -0.44,-0.18 0.02,-0.77 z" 
                fill="rgb(151, 144, 238)" 
                stroke="white" 
                stroke-width=".7px"
                title="Белгородская область" 
                id="RU-BEL" 
            />
        </svg>