<svg xmlns="http://www.w3.org/2000/svg" viewBox="134.12010999999987 588.17082 33.08000000000007 21.790000000000305" width="33.08000000000007" height="21.790000000000305">
            <path 
                d="m 142.14011,588.78082 0.4,0.07 1.01,-0.68 1.79,0.56 0.06,0.86 -0.51,1.14 0.64,0.06 0.68,1.85 0.91,0.19 0.65,0.53 0.65,-1.31 0.35,0.1 0.14,-0.37 0.7,-0.05 0.17,-0.37 1.57,-0.42 0.66,0.21 0.25,0.98 1.31,0.33 0.47,0.45 0.19,-0.41 0.73,-0.3 0.24,0.35 1.5,0.09 0.45,0.63 0.55,-0.45 2.09,-0.61 0.24,1.66 0.9,0.38 0.88,-0.76 0.04,-0.56 0.67,-0.19 1.04,0.23 0.17,0.52 1.22,-0.08 0,0 0.68,0.66 0.21,1.42 1.36,0.55 -0.05,0.53 -0.66,0.75 -0.84,0.19 -0.36,0.44 0.26,0.32 -0.09,0.64 -0.77,0.73 -0.8,0.13 -0.34,1.49 -1.16,0.63 -1.25,1.71 -0.04,1.4 0.38,1.12 -0.77,0.94 -0.35,0 -0.31,1.67 -0.44,0.87 -0.51,0.2 0,0 -0.65,-0.1 -0.24,0.26 -0.4,-0.52 -1.23,0.44 -1.32,-1.21 -0.44,-0.06 -0.57,0.56 0.01,0.61 -0.34,-0.06 -0.61,-1.49 -0.68,-0.08 -0.17,0.76 -0.67,-0.3 -0.21,0.37 -1.08,0.04 -0.41,-0.78 0.11,-0.74 -0.42,-0.13 -0.47,0.64 -0.58,0.02 -0.21,-0.4 0.48,-0.16 -0.14,-0.3 -0.93,0.16 0,0 -0.56,-1.11 0.38,-0.99 -0.23,-0.37 -0.79,0.02 0.26,-1.7 -1.21,-0.99 -0.16,-1.23 -1.09,-0.11 -0.6,0.6 -0.93,0.06 -0.28,0.55 -0.12,-0.39 -1,0.03 -0.24,-0.78 0.26,-0.37 -0.51,0.28 -1.07,-0.13 -0.52,-0.74 0.19,-0.36 -0.34,0.08 0.19,-0.2 -1.54,0.24 -0.75,-0.72 -0.92,-0.01 -0.13,-0.22 0.3,-0.19 -0.48,-0.66 -0.35,-1.43 0.18,-0.41 -0.36,0.07 -0.53,-0.77 0.34,-1.63 -0.34,-0.08 0,-0.76 -0.4,0.02 -0.27,-0.51 0.25,-0.24 -0.44,-0.21 0.63,-0.58 -0.41,-1.53 0.59,-0.14 0,0 0.78,0.73 0.1,0.96 0.47,0.15 1.15,-0.77 0.58,0.09 0.59,0.66 1.03,-0.01 0.37,-0.47 0.98,0.73 0.51,-0.18 -0.11,-0.42 0.48,-0.72 -0.24,-0.03 -0.07,-0.71 z" 
                fill="rgb(151, 144, 238)" 
                stroke="white" 
                stroke-width=".7px"
                title="Владимирская область" 
                id="RU-VLA" 
            />
        </svg>