<svg xmlns="http://www.w3.org/2000/svg" viewBox="155.36010999999988 655.95082 44.11000000000013 42.289999999999964" width="44.11000000000013" height="42.289999999999964">
            <path 
                d="m 167.33011,655.95082 3.16,2.38 0.82,0.31 2.27,-1.38 0.64,0.15 0.99,-0.66 0.24,0.17 -0.24,0.68 0.21,0.25 0.83,-0.23 0.99,-0.94 1.6,-0.14 0.63,0.66 0.51,-0.49 1.29,0.03 0.68,0.66 0.85,0.07 1.8,2.6 -0.17,1.66 -0.78,0.68 0.47,1.47 1.13,-0.44 2.19,0.19 0.25,-0.38 -0.52,-1.31 0.66,-0.5 0.59,0.06 1.78,1.29 -0.1,1.23 0.3,0.35 1.33,-0.64 1,0.31 0.72,-0.61 0.19,-0.91 0.38,-0.2 1.32,0.58 0.54,1.09 1.05,0.94 1.01,-0.24 0.52,1.05 1.01,-0.09 0,0 -0.19,0.63 -0.76,0.33 0.18,0.76 -0.47,0.49 0.56,1.05 -0.52,1.08 -0.75,0.91 -1.75,0.64 -0.18,0.32 -0.79,5.59 1.71,1.36 0.23,0.48 -0.58,1.48 -1.39,0.99 -1.23,3.07 0,0 -0.19,-0.62 -1.43,-0.99 -0.9,-0.48 -1.36,-0.06 -1.42,1.75 -2.01,1.33 -2.31,0.24 0,0.38 0.83,0.2 0.06,0.44 -1.46,-0.27 -1.17,1.87 0.39,0.64 0.92,0.29 0.9,0.93 0,0 -0.51,0.25 -1.44,-0.64 -0.65,0.01 -0.18,0.36 0.27,0.53 -0.46,0.25 -0.56,0.04 -0.36,-0.4 -1.05,0.48 -0.25,-0.29 0.2,-1.07 -1.33,-0.37 -0.54,0.65 -0.18,0.83 1.42,0.72 -0.24,0.51 -0.8,0.93 -0.68,0.03 -1.07,-0.54 -0.73,0.36 0.01,0.84 -2.18,1.3 -0.28,0.92 0.12,1.34 0,0 -2.99,0.72 -0.66,-0.48 0.09,-0.88 -0.83,-0.08 -0.24,0.47 -0.53,0.09 -1.78,-2.95 -0.22,-1.08 -1.89,-1.46 -3.23,-0.48 -0.03,-0.71 0.49,-0.67 -0.36,-0.79 0.79,-0.38 -0.42,-1.45 1.43,-1.02 2.72,-0.82 0.29,-0.37 -0.15,-0.83 0.88,-1.69 -1,-1.6 -0.6,-0.34 -1.09,-0.03 0.2,-0.67 -0.59,-0.69 -2,0.01 -0.06,-0.97 0.31,-0.51 -0.34,-1.17 0.97,-2.84 -0.12,-0.87 -2.07,-1.82 -0.58,0.12 -1.18,-0.51 0.22,-1 -1.1,-0.56 -0.19,-0.91 -0.56,-0.3 0,0 0.87,-1.54 -0.16,-2.16 0.64,-0.33 -1.52,-1.82 -0.97,-0.55 0.21,-0.32 1.31,-0.3 0.1,-0.72 0.55,-0.52 0.55,0.07 1.13,-0.72 0.27,-0.93 0.87,-1.07 2.99,0.28 0.75,-0.36 1.37,-0.03 0.45,-0.67 z" 
                fill="rgb(151, 144, 238)" 
                stroke="white" 
                stroke-width=".7px"
                title="Волгоградская область" 
                id="RU-VGG" 
            />
        </svg>