<svg xmlns="http://www.w3.org/2000/svg" viewBox="795.2701100000003 675.73082 31.31000000000006 19.77000000000021" width="31.31000000000006" height="19.77000000000021">
            <path 
                d="m 801.46011,678.32082 0.67,0.3 1.95,-1.28 0.74,0.17 0.36,0.46 0.47,-0.11 -0.04,-0.79 0.38,-0.23 0.15,-0.78 0.78,-0.33 1.64,0.83 0.07,1.03 0.57,0.44 0.62,-0.35 0.7,0.21 0.63,-0.33 0.34,0.89 1.69,0.12 0.87,0.48 0.68,3.08 1.17,1.24 2.37,1.07 3.09,0.5 1.09,-1.1 0.47,0.03 0.44,0.59 0.44,0.08 0.41,0.84 0.26,-0.33 0.67,0.46 0.57,-0.32 0.87,0.31 -0.24,1.3 -0.71,0.46 -1.73,-0.52 -1.61,1.13 0,0 -1.74,0.44 -0.28,0.58 -0.82,0.19 -0.19,0.8 -0.64,-0.13 -2.01,1.33 -2.44,-0.33 -0.92,0.52 -0.17,0.41 -0.94,0.2 -0.51,0.78 -0.98,-0.21 -0.77,2.46 -1.75,-0.38 -0.52,0.49 -1.76,0 -0.24,0.43 -1.17,-0.05 -0.76,-0.4 -0.75,0.5 -1.06,-0.87 -2.98,0.6 -0.54,-0.37 -0.01,-1.05 -0.64,-1.21 -1.33,-1.18 -0.19,-0.63 1.25,-2.13 -0.67,-1.31 0.17,-0.77 -0.98,0.08 -0.14,-1.01 -0.54,-0.37 1.09,-2.56 -0.27,-0.32 -0.51,0.19 0,0 0.3,-0.49 1.28,-0.77 1.23,-0.18 0.33,-1.07 1.02,-1.55 0.53,-0.29 z" 
                fill="rgb(151, 144, 238)" 
                stroke="white" 
                stroke-width=".7px"
                title="Еврейская автономная область" 
                id="RU-YEV" 
            />
        </svg>