<svg xmlns="http://www.w3.org/2000/svg" viewBox="631.7501100000001 566.5708200000004 103.05999999999926 112.90999999999974" width="103.05999999999926" height="112.90999999999974">
            <path 
                d="m 733.14011,630.54082 -3.02,1.2 -0.86,0.01 -0.72,0.49 -0.69,0.1 -0.37,-0.34 -1.43,0.18 -1.36,1.35 -0.39,0.82 -0.7,0.4 -1.78,2.43 -1.82,1.12 0.2,0.79 -0.22,0.87 0.26,0.56 0.87,0.08 0.63,-0.5 1.31,-0.26 1.92,1.16 -0.79,2.29 0.07,0.41 0.98,0.8 -0.14,0.44 0.29,0.56 -0.26,0.93 -0.44,0.42 0.2,0.52 -0.44,0.81 -0.64,0.19 -0.13,0.38 -0.47,-0.05 -0.14,0.46 -2,1.87 -0.59,0.05 -0.36,1.44 -0.51,0.71 0.11,0.44 -0.62,0.77 0.2,0.35 -0.88,0.82 0.03,0.72 -0.36,0.02 -0.1,1.46 -1.66,2.09 -0.24,1.89 -1.48,1.53 -0.24,1.72 -0.89,0.74 0.44,0.44 1.25,0.06 0.11,0.32 -0.37,0.39 0.34,1.14 -0.3,0.78 -0.97,1.07 -4.47,0.92 -0.56,1.02 -0.7,0.11 -0.06,0.53 -1.01,0.48 -0.57,0.8 -0.34,-0.01 -1.84,1.72 -2.7,-1.35 -1.46,-0.04 -2.44,-1.03 -1.63,-1.2 -0.72,-1.19 -2.67,-1.02 -1.27,0.27 -2.13,1.34 -2.58,-0.17 -1.16,-0.85 -1.96,-2.39 -1.84,-0.66 -1.82,0.09 -0.76,-0.43 -2.25,1.09 -1.19,1.13 -0.64,-0.06 -2.05,1.28 -2.12,1.8 -0.7,2.19 -2.48,1.35 -1.73,-0.6 -4.15,1.66 -1.72,-0.1 -1.38,0.67 -0.88,-0.33 -1.77,0.96 -1.27,1.12 -1.21,0.4 -1.36,-0.16 -1.42,-1.06 -0.52,0.74 -0.75,0.29 -2.4,-0.49 -0.31,0.2 -0.63,-0.39 -1.55,0.01 -0.4,-0.68 -1.9,-0.8 -1.27,0.27 -0.55,-0.25 -3.02,0.25 -1.86,-2.11 -1.05,-0.34 -0.81,-0.62 -0.09,-0.66 -0.48,-0.02 0.26,-0.74 -0.25,-1.24 0.2,-0.72 -0.86,-0.01 -0.81,-0.68 0,0 -0.16,-0.94 1.33,-0.88 0.56,-1.34 0.59,0.09 0.92,-0.82 0.8,-0.14 1.1,-0.75 1.06,0.28 0.35,-0.82 -1.03,-0.11 -0.58,-0.81 -1.71,-0.58 -0.73,-0.75 0.17,-0.52 0.95,-0.5 0.34,-2.94 1.06,-0.27 0.77,-0.7 -1.27,-1 0.6,-1.11 0.21,-1.3 0.38,0.19 0.33,-0.22 0.08,-1.02 0.84,0.58 2.46,-0.14 0.09,0.43 1.28,0.66 2.76,-0.88 1.23,-1.32 1.16,-0.6 2.78,0.09 0.43,0.82 1.75,0.2 1.1,-0.83 0.22,-1.07 0.93,-0.66 0.51,-0.92 4.16,-1.63 3.12,-3.95 0.67,-0.18 0.3,0.41 1.54,0.33 0.8,-1.19 0.6,-0.26 2.32,0.13 1.42,-1.2 3.17,-0.34 1.49,-1.78 2.09,-0.6 1.21,-1.7 0.11,-1.24 0.31,-0.16 0.23,-1.5 -1.12,-0.18 -0.27,-0.3 0.47,-0.47 -0.14,-0.73 -0.53,0.06 -1.14,-0.88 -0.01,-0.95 -0.69,-0.67 -0.01,-2.46 0.99,-1.19 2.43,-0.83 0.21,-0.39 1.04,0 0.87,-1.62 1.71,-0.65 2.64,-2.35 1.68,-0.93 0.78,-1.48 5.12,-1.51 1.54,0.15 0.31,-0.3 1.24,-0.15 0.72,-0.94 -0.01,-0.72 0.4,-0.29 0.6,-2.22 -0.9,-2.56 -1.47,-1.02 -1.49,-2.21 -1.64,0.11 -1.6,-0.55 -0.24,-3.58 -0.51,-1.52 0.2,-1.66 -0.61,-1.34 0.42,-1.94 -1.03,-2.43 0.01,-0.8 0.6,-0.17 -0.09,-0.44 -0.35,-0.25 -0.34,-1.15 -1.63,-0.88 1.17,-1.19 -0.21,-1.86 1.16,-1.07 0,0 0.32,-0.1 1.59,0.88 0.81,0.76 0.8,-0.55 0.41,0.07 1.14,1.01 1.8,0.11 0.35,0.32 0.76,-0.55 0.76,0.1 -0.12,-0.52 0.68,0.23 0.29,-0.18 0.38,-0.97 0.81,-0.8 1.01,1.45 0.49,-0.25 0.47,0.31 0.32,-0.63 -0.18,-0.66 0.38,-0.19 0.39,-1.54 -0.62,-1.13 0.77,-0.34 0.3,-0.96 0.48,-0.25 -1.22,-0.63 -0.46,0.06 -0.11,0.57 -0.83,0.58 -0.45,-0.39 0.4,-0.6 -0.13,-0.49 -0.58,0.05 0,-1.42 -0.6,-0.41 -0.25,-0.61 0.59,-1.29 -0.85,-0.07 -0.38,-0.62 0.39,-0.76 -0.25,-0.87 -0.44,-0.3 0.35,-0.4 1.24,0.06 0.21,-0.58 0.36,-0.1 -0.21,-0.53 0.45,-1.8 -0.16,-0.8 0.38,-0.59 0.53,0.58 0.45,-0.18 -0.31,-1.41 -0.74,-0.55 0.25,-0.57 1.14,-0.47 0.57,-0.78 0.61,-0.03 1.56,0.69 0.58,-0.27 0.74,0.19 0.78,0.57 1.06,1.51 1.38,0.67 3.24,-0.64 0,0 0.32,2.39 -0.39,0.87 -0.51,3.45 0.75,0.4 0.24,0.65 -0.13,1.08 0.4,0.73 0.4,-0.33 0.04,-0.84 0.48,-0.2 0.96,0.49 -0.39,2.14 1.95,3.38 -0.44,0.57 0.25,1.83 1.04,0.99 0,0 0.07,0.39 -1.21,1.18 0.08,0.42 1.34,0.72 0.13,0.33 -0.41,0.29 -0.07,0.58 1.12,0.86 0.12,0.57 2.41,0.5 -0.18,0.87 0.72,0.27 -0.01,0.69 0.97,0.51 -0.22,0.38 -2.01,0.31 -0.87,0.85 0.11,3.15 0.25,0.25 1.28,-0.52 0.49,0.53 0.63,-0.09 0.56,-0.45 0.66,0.01 0.55,-0.62 0.57,-0.02 0.45,-0.56 2.67,0.08 0.33,0.47 -0.02,1.47 0.39,0.5 -0.21,1.06 0.51,1.74 -0.24,0.65 0.44,0.61 1.29,0.29 0.55,-0.41 0.38,-1.16 0.5,-0.04 1.11,0.89 0.43,0.93 0.15,0.97 -0.52,2.25 0.92,0.22 -0.64,0.62 0,1.54 -1.74,1.85 -0.28,1.12 0.07,0.56 0.46,-0.48 0.85,-0.18 0.23,0.54 -0.24,0.97 0.48,1.15 0.39,0.64 0.78,0.43 -0.1,0.48 -1.32,0.63 -0.48,-0.01 -0.26,-0.64 -0.65,0.42 -0.3,0.56 0.52,2.13 -0.69,0.93 -0.07,0.96 0.73,1.09 0.19,-0.4 0.31,0.17 1.06,1.87 0.05,3.22 0.38,0.24 0.34,1.35 0,0 z" 
                fill="rgb(151, 144, 238)" 
                stroke="white" 
                stroke-width=".7px"
                title="Забайкальский край" 
                id="RU-ZAB" 
            />
        </svg>