<svg xmlns="http://www.w3.org/2000/svg" viewBox="141.9601100000001 576.20082 31.969999999999914 18.050000000000182" width="31.969999999999914" height="18.050000000000182">
            <path 
                d="m 149.75011,581.91082 0.7,-0.42 0.71,0.17 0.24,-0.38 1.36,-0.18 0.83,0.49 0,-0.42 0.41,0.02 0.46,-0.6 0,-0.55 0.52,0.26 2.72,-0.85 0.31,-1.69 -0.24,-1.56 2.41,0.73 0.13,0.48 1.16,0.69 0.37,-0.3 0.39,0.25 0.84,-0.15 0.21,-0.5 0.63,-0.27 0.29,0.27 1.21,-0.17 0.29,-0.7 0.84,0.29 -0.25,1.23 0.38,1.04 -0.62,0.6 0.78,0.79 1.12,0.11 0.77,-0.5 0.21,-0.47 -0.29,-1.36 0.53,-0.95 0.2,2.61 0.93,-1.18 0.75,-0.32 1.27,0.27 0.45,0.4 0.13,0.63 0,0 -0.11,0.47 1.14,0.68 -0.11,0.3 -0.34,-0.23 -0.2,0.57 -0.44,-0.32 -0.5,0.36 0.19,0.44 -0.86,0.4 -0.35,0.54 -0.07,1.22 0.9,0.22 -0.05,0.26 0.5,0.22 -1.23,2.34 -2.81,0.34 -0.03,0.34 -0.48,0.23 -0.57,-0.32 -0.8,0.32 -0.43,0.58 0.38,0.5 -0.38,0.89 0.35,0.29 0.4,-0.31 0.05,2.48 -1.68,0.07 -0.42,0.81 0,0 -1.22,0.08 -0.17,-0.52 -1.04,-0.23 -0.67,0.19 -0.04,0.56 -0.88,0.76 -0.9,-0.38 -0.24,-1.66 -2.09,0.61 -0.55,0.45 -0.45,-0.63 -1.5,-0.09 -0.24,-0.35 -0.73,0.3 -0.19,0.41 -0.47,-0.45 -1.31,-0.33 -0.25,-0.98 -0.66,-0.21 -1.57,0.42 -0.17,0.37 -0.7,0.05 -0.14,0.37 -0.35,-0.1 -0.65,1.31 -0.65,-0.53 -0.91,-0.19 -0.68,-1.85 -0.64,-0.06 0.51,-1.14 -0.06,-0.86 -1.79,-0.56 -1.01,0.68 -0.4,-0.07 0,0 -0.18,-1 0.38,0.01 0.17,-0.89 0.85,-0.35 -0.5,-0.79 0.42,-0.45 0.4,0.01 -0.04,-0.4 1.04,-0.62 0.18,0.18 0.68,-0.92 0.41,-0.02 0.54,-0.58 0.31,-0.13 0.5,0.49 0.36,-0.06 -0.01,-0.41 0.5,-0.33 -0.73,-0.44 1.74,0.17 z" 
                fill="rgb(151, 144, 238)" 
                stroke="white" 
                stroke-width=".7px"
                title="Ивановская область" 
                id="RU-IVA" 
            />
        </svg>