<svg xmlns="http://www.w3.org/2000/svg" viewBox="544.7101100000006 478.7708199999991 168.7999999999996 178.69000000000068" width="168.7999999999996" height="178.69000000000068">
            <path 
                d="m 713.27011,569.29082 -3.24,0.64 -1.38,-0.67 -1.06,-1.51 -0.78,-0.57 -0.74,-0.19 -0.58,0.27 -1.56,-0.69 -0.61,0.03 -0.57,0.78 -1.14,0.47 -0.25,0.57 0.74,0.55 0.31,1.41 -0.45,0.18 -0.53,-0.58 -0.38,0.59 0.16,0.8 -0.45,1.8 0.21,0.53 -0.36,0.1 -0.21,0.58 -1.24,-0.06 -0.35,0.4 0.44,0.3 0.25,0.87 -0.39,0.76 0.38,0.62 0.85,0.07 -0.59,1.29 0.25,0.61 0.6,0.41 0,1.42 0.58,-0.05 0.13,0.49 -0.4,0.6 0.45,0.39 0.83,-0.58 0.11,-0.57 0.46,-0.06 1.22,0.63 -0.48,0.25 -0.3,0.96 -0.77,0.34 0.62,1.13 -0.39,1.54 -0.38,0.19 0.18,0.66 -0.32,0.63 -0.47,-0.31 -0.49,0.25 -1.01,-1.45 -0.81,0.8 -0.38,0.97 -0.29,0.18 -0.68,-0.23 0.12,0.52 -0.76,-0.1 -0.76,0.55 -0.35,-0.32 -1.8,-0.11 -1.14,-1.01 -0.41,-0.07 -0.8,0.55 -0.81,-0.76 -1.59,-0.88 -0.32,0.1 0,0 2.61,-2.23 0.86,-0.33 -0.99,-1.22 -2.11,0.12 -1.31,1.39 -3.95,0.07 -0.01,1.38 -1.42,2.14 -0.4,1.39 -0.4,0.35 -1.59,0.02 -0.63,0.51 -2.14,-0.33 -1.01,1.04 -0.26,0.83 -0.4,0.1 -0.85,-0.17 -0.27,-0.74 -1.44,-0.78 -2.34,0.45 -2.59,-0.9 -1.35,-1.33 -0.08,-1.83 -0.6,-0.06 -1.23,1.38 -1.53,-0.27 -0.93,-0.91 -1.25,-0.18 -0.4,0.49 -0.38,-0.09 -1.42,-2.4 -0.48,-0.2 -1.07,0.94 -0.64,1.22 0.06,0.61 -1.33,1.25 -0.97,-0.55 -1.21,0.13 -0.64,-0.28 -1.21,0.39 -1.36,-1.12 -2.72,-0.53 -0.67,0.9 -0.26,1.53 -1.26,1.09 -1.45,-0.3 -1.99,0.79 -0.86,-0.05 -1.12,1.09 -1.7,0.24 -0.2,0.33 0.38,0.24 -0.07,0.65 -1.08,1.7 0.95,1.13 1.02,0.4 0.94,2.52 0.52,-0.04 1.26,0.76 -0.38,0.6 -1.25,-0.16 -0.74,0.24 -1.07,3.83 -0.49,0.36 0.17,0.86 -0.42,0.67 0.08,2.06 0.1,0.45 0.61,0.4 -0.45,2.09 0.21,1.49 -0.27,0.84 0.07,2.48 -0.49,0.4 -0.57,1.31 0.52,-0.02 -0.45,0.6 -0.26,5.76 -2.93,8.8 -3.87,3.82 -7.53,4.49 -8.16,9.53 -4.81,2.68 -0.57,1.04 0.02,1.43 -0.48,0.51 -0.43,-0.28 -0.64,0.41 -1.4,0.16 -0.46,0.55 -1.07,0.23 -0.57,0.6 -0.74,0.2 0,-2.92 -1.04,-0.77 -2.37,0 -0.63,-0.6 -0.29,-1.06 0.14,-1.26 -0.69,-1.85 -1.99,-0.93 -1.41,-1.98 -0.47,-0.2 -0.17,-1.2 -1.02,-0.44 -0.8,0.24 -1.31,-0.35 -0.79,0.48 -1.19,-1.11 -1.11,-0.5 -0.59,-1.43 -1.66,-1.68 -3.54,-2.19 -0.91,-1.32 -2.26,-1.53 -0.59,-0.97 -0.04,-1.64 -0.65,-1.56 -0.88,0.27 -0.31,0.77 -1.71,-0.17 -0.06,1.21 -1.73,1.09 -1.77,0.25 0.01,0.64 -0.86,0.64 -0.29,0.95 0,0 -2.38,-1.44 0.53,-0.63 -0.62,-0.45 -0.49,-0.11 -0.62,0.37 -0.69,-0.43 -0.61,0.5 -2.3,0.19 -0.11,-1.32 -1.42,-0.23 -0.5,-0.65 -0.01,-0.84 -1.07,-0.1 -0.55,-0.37 -1.32,0.2 -0.24,-0.79 -1.05,-0.59 -0.24,-0.73 -0.65,-0.64 -1.15,0 -0.34,-0.5 -0.56,-0.14 -0.78,-1.08 -1.02,0.08 -0.1,0.89 0,0 -1.66,-0.39 -0.72,-1.14 -0.66,-0.41 -1.04,-1.85 -0.77,-0.46 -0.04,-0.71 -1.48,-1.06 -0.54,-0.8 -0.81,-0.15 0.13,-1.29 0.68,-0.9 1.38,-0.24 0.88,-1.59 3.16,0.37 -0.06,-0.63 1.25,-3.32 -0.09,-0.89 -0.52,-0.58 0.63,-2.49 -0.37,-1.13 1.81,-0.82 -0.67,-1.2 0.13,-2.28 -0.68,-0.59 0.3,-0.42 -0.11,-1.25 1.31,-1.21 0.28,-1.76 0.93,-0.11 0.27,-0.99 0.89,0.12 0.41,0.49 0.82,-0.83 0.09,-1.23 0.76,0.06 -0.12,-2.19 2.53,-0.33 -0.18,-0.94 0.31,-0.91 -0.14,-0.29 -0.97,-0.14 0.32,-2.76 -2.09,-0.13 -0.28,-0.46 0.09,-0.59 0.83,-0.45 0.2,-0.66 -1.99,-1.07 4.15,-10.01 6.09,0.23 0.44,0.77 1.66,-0.09 0.51,-0.62 0.66,0.13 1.48,-0.34 0.46,-2.1 0.72,-0.47 0.26,-1.1 0.97,-0.22 0.75,0.39 0.92,-0.39 0.82,0.81 -0.55,1.1 0.26,1.15 0.38,0.34 1.43,0.3 -0.08,0.53 0.55,0.48 -0.26,0.76 0.57,0.6 -0.33,0.45 0.17,0.74 1.48,0.84 0.34,0.79 0.47,0.03 0.53,-0.85 0.65,0.16 0.32,-0.32 -0.17,-0.97 -0.59,-0.36 -0.35,-1.08 0.41,-1.36 -0.43,-1.39 1.86,0.1 0.02,-0.8 1.23,-1.46 -0.6,-0.36 0.09,-0.58 1.89,-1.58 0.92,-0.2 1.07,-2.4 0.59,-0.54 2.71,-0.69 1.3,-1.76 1.23,-0.68 0.46,-0.84 -0.18,-1.89 -1.07,-2.17 0.57,-1.71 1.53,-0.75 0.98,0.2 0.18,-0.6 0.82,-0.8 0.95,0.49 0.68,-0.32 1.29,0.17 0.03,0.44 -0.89,0.01 -0.03,0.85 0.79,0.97 0.03,0.72 1.3,1.6 2.94,0.83 0.17,2.08 1.07,-0.52 1.01,0.14 0.11,0.68 0.61,0.11 -0.08,1.21 1.09,0.21 0.46,-0.36 0.87,-0.01 1.57,-1.38 -0.54,-0.4 -0.39,-0.89 0.18,-0.6 2.42,-2.27 1.18,-0.4 0.46,-0.49 -0.16,-1.81 -1.2,-1.25 0.36,-0.65 -0.11,-1.1 -1.02,0.02 -1.2,-1.34 -0.14,-0.96 -0.57,-0.94 1.65,-1.31 0.65,-1.32 3.13,0.12 -0.05,-0.6 -0.58,-0.56 0.4,-1.15 -0.34,-0.8 0.14,-2.85 -0.68,0.14 -0.54,-0.6 -1.25,0.17 -2.01,-1.17 -1.79,-2.08 -0.6,-1.37 0.68,-1.59 -0.25,-0.55 -0.58,-0.16 -0.05,-0.66 0.83,-0.43 -0.06,-2.23 0.3,-0.78 0.77,-0.35 0.04,-0.65 2.17,-1.22 -0.22,-1.01 -0.55,-0.59 0.09,-0.7 2.36,-1.07 0.13,-0.58 2.19,-1.69 0.34,-0.68 1.35,-0.02 1.01,-0.77 -0.44,-1.95 3.39,-3.24 0.55,-2.59 -0.44,-0.4 -0.05,-0.5 0.62,-0.78 0.16,-0.76 1.94,-2.07 -0.09,-0.81 0.53,-0.9 -1.83,-0.53 -0.5,-0.69 0.32,-0.83 -0.99,-1.72 -1.33,-1.27 -0.21,-1.93 1.08,-0.11 0.51,-0.37 0.35,-1.76 -0.64,-0.72 0.28,-1.01 0.6,-0.31 0.76,0.57 0.74,-0.4 0.4,-0.66 -1.26,-1.69 -0.31,-0.88 0.91,-1.24 0.12,-2.04 0.65,-1.7 -0.48,-2.22 0.31,-0.3 2.71,1.47 0.79,-0.97 1.06,1.09 1.12,0.19 0.53,-0.36 0.28,-1.11 1.26,-0.35 2.83,-0.14 0.57,0.64 0.93,-1.98 -0.95,-1.1 -0.45,-1.5 -1.11,-0.52 0,0 0.79,-0.44 1.01,0.42 0.84,-0.84 0.38,0.11 0.06,1.12 0.52,0.43 -0.38,0.96 0.33,1.44 0.3,0.63 1.18,0.2 0.48,0.69 -0.32,1.45 0.39,0.28 0.03,0.58 -0.62,0.63 -2.91,0.2 0,1.07 -1.16,2.12 0.29,0.7 1.7,-0.58 1.14,-0.04 1.87,0.94 1.47,-0.21 1.47,2.94 0.91,-0.28 0.51,6.37 0.3,0.79 1.06,1.2 -0.07,0.49 -1.23,1.16 -0.26,1.19 -0.54,0.38 -0.03,0.6 -0.53,0.48 0,1.3 1.08,1.57 0.84,-0.57 2.12,-0.04 0.71,1.89 -0.31,0.51 0.41,1.3 -0.6,1.2 0.09,0.84 -1.39,0.71 -0.63,0.79 -0.54,1.62 0.37,1.66 1.64,2.58 -0.3,3.32 0.34,0.67 0.47,0.16 0.65,-0.29 0.47,0.36 0.48,1.17 0.85,0.61 1.22,-0.18 0.79,0.57 -0.31,2.16 -1.67,2.33 0.36,0.69 -0.43,1.02 -1.34,0.23 -0.09,0.41 0.56,0.43 -0.04,0.43 -0.67,0.3 -0.1,0.63 -0.76,0.66 0.1,1.04 -0.68,0.46 -0.26,1.15 -0.59,0.76 -0.43,1.89 0.52,1.1 -0.85,1.31 -0.01,0.97 -1.4,2.1 0.32,0.87 -0.27,0.96 -1.24,1.47 -0.19,0.71 0.42,0.32 -0.48,0.51 -0.13,0.73 1.36,0.65 0.21,0.88 0.87,1.04 -0.09,1.06 0.32,0.31 0.78,-0.35 0.33,1.28 0.89,-0.33 2.7,0.13 0.87,-0.53 0.71,-0.06 0.61,-0.65 0.5,-1.69 0.46,-0.59 1.89,0.3 0.89,-0.27 0.43,0.57 0.6,0.06 0.34,-0.6 1.36,-0.34 1.09,0.78 0.71,-0.75 2.01,-0.51 1.92,-2.68 0.6,1 -0.31,1.89 0.96,-0.43 1.46,-0.01 -0.02,1.19 -0.89,0.43 -0.74,0.81 0.19,1.36 -0.31,1.2 0.27,1.42 0.51,0.02 0.49,-0.35 0,-2.61 0.51,-0.4 0.01,0.77 0.77,0.55 0.95,-1.55 2.07,-0.78 0.8,0.09 1.44,-1.32 0.15,-0.73 -0.39,-1.43 1.02,-0.79 0.28,-1.12 0.81,-0.81 0.78,-0.07 0.03,-0.57 0.35,-0.52 0.68,-0.06 -0.08,-0.6 0.38,-0.32 0.51,0.25 0.52,-0.19 -0.01,-0.84 0.59,-0.84 1.44,-1.17 0.78,-0.16 0.15,-0.72 -0.35,-0.78 1.26,-1.8 1.41,0.05 0.56,-0.32 0.55,-0.97 0.26,-1.53 1.02,-1.48 0.51,0.44 0.77,-0.01 1.95,-1.14 0.55,-0.01 0.89,0.63 -0.06,0.56 1.2,0 0.76,0.4 0.03,0.48 0.81,0.01 0.3,0.53 1.41,-0.14 0.73,0.97 0.86,0.18 0.09,0.76 1.05,0.35 0.56,0.62 0.35,0.58 0.05,1.09 0.35,0.38 1.55,-0.38 -0.57,1.62 -0.65,0.26 -0.48,0.63 0.65,0.62 0.1,2.67 -0.23,0.73 0.27,0.68 0.87,0.67 1.39,-0.17 0.71,0.3 1.05,-0.83 0.37,1.34 0.39,0.34 0.77,-0.37 0.23,-1.32 0.47,-0.26 0.36,-0.99 0.14,0.49 1.02,-0.26 0.68,0.8 0.28,1 2.67,0.93 0.63,1.66 -0.98,1.36 0.38,2.68 0.48,0.31 -0.45,0.96 0.5,1.55 -0.37,2.86 2.23,1.47 0.09,0.71 -0.39,0.58 0.63,1.6 z" 
                fill="rgb(151, 144, 238)" 
                stroke="white" 
                stroke-width=".7px"
                title="Иркутская область" 
                id="RU-IRK" 
            />
        </svg>