<svg xmlns="http://www.w3.org/2000/svg" viewBox="0.2001076300000002 607.61082 23.26000037 12.019999999999868" width="23.26000037" height="12.019999999999868">
            <path 
                d="m 1.8701076,615.72082 0.04,0.38 -1.70999997,1.85 1.66999997,-2.23 z m 10.8400004,-8.11 0.81,1.24 1.07,0.08 0.71,0.75 1.11,0.54 0.96,-0.03 0.23,0.73 1.05,-0.47 1.87,0.18 0.72,-0.31 0.58,1.26 0.17,-0.22 0.57,0.86 0.68,0.25 0.22,1.41 -1.06,0.8 0.09,1.05 -0.47,0.59 0.1,1.61 0.62,1.18 -9.44,0.52 -12.0400004,-1.42 1.06,-0.77 0.36,-0.96 0.72,0.27 1.7,-1.33 0.47,-0.04 -0.2,-0.34 -1.17,-0.01 -0.83,0.54 -0.3,-0.91 -0.45,-0.03 -0.25,0.33 0.13,0.74 -0.67,-0.1 0.67,-1.48 -0.24,-1.6 0.35,-0.81 1.12,0.21 0.99,-0.24 0.64,0.32 0.98,-0.38 1.3,-1.1 1.95,-2.77 0.34,0.15 -0.6,0.5 -0.38,0.93 -2.33,2.47 1.31,0.28 0.44,-0.21 0.65,0.58 1.5900004,0.09 1.12,-0.73 -0.49,-3.17 0.55,0.13 0.15,-0.64 0.77,-0.52 z" 
                fill="rgb(151, 144, 238)" 
                stroke="white" 
                stroke-width=".7px"
                title="Калининградская область" 
                id="RU-KGD" 
            />
        </svg>