<svg xmlns="http://www.w3.org/2000/svg" viewBox="99.44010800000005 607.3708199999996 26.92000199999997 24.829999999999927" width="26.92000199999997" height="24.829999999999927">
            <path 
                d="m 113.02011,608.39082 0.34,0.42 0.76,0.03 0.84,-0.76 0.92,-0.12 0.7,0.76 0.83,-0.09 0.45,0.49 0.62,-0.07 0.25,0.39 0.75,-0.21 0.16,0.25 0.54,-1.09 0.26,0.02 0.1,-0.59 0.89,0.02 0.42,-0.47 0.23,1.04 1.1,0.04 0.18,0.6 1.18,-0.46 0,0 -0.01,0.02 0,0 0,0 0,0 0,0 0,0 0.07,0.18 0,0 0,0 0,0 0,0 0,0 0.01,0 0,0 0.02,0.02 0,0 0.03,0.05 0,0 -0.01,0.02 0,0 -0.01,0.01 0,0 0.6,0.81 0,0 0.14,-0.05 0,0 0.22,-0.02 0,0 -0.3,0.1 -0.02,0.37 0.47,0.2 0.01,0.43 -0.26,0.11 0.66,1.12 -0.05,1.23 0.25,0.2 0,0 -0.38,2.65 -0.53,0.99 -0.73,-0.66 -0.81,0.21 0.25,0.58 -0.63,0.43 0.21,0.72 0.72,0.11 -0.21,1.34 0.26,0.38 -1.95,0.15 -0.42,-0.33 -1.02,0.29 -0.63,0.75 -0.8,-0.19 -0.72,0.97 -1.18,-0.18 0.81,0.46 -0.14,0.29 -0.63,0.08 1.4,0.17 -0.71,0.75 0.01,1.07 -0.59,-0.13 -0.57,0.48 0.26,0.4 -0.68,0.39 0.36,0.49 -0.35,0.44 1.04,0.86 -0.54,0.6 0,0 -1.11,0.84 -0.24,0.54 -0.7,0.06 -0.23,-0.42 -0.57,0.38 -0.5,1.24 -0.34,-0.1 0.34,-0.74 -0.48,0.16 -0.52,1.37 -0.95,0.33 0.05,0.52 -0.38,-0.2 -0.61,0.27 0,0 -0.78,-0.94 -0.96,0.13 -1.18,-0.56 -0.67,0 -0.68,-0.52 -0.16,-2.9 -0.74,-0.46 0,-0.49 -1.06,-0.78 -0.2,-0.53 -1.35,0.42 -0.28,-0.35 -0.36,0.15 -0.83,-1.46 -0.97,-0.59 -1.130002,0.16 0,0 -0.43,-0.69 0.720002,-0.11 0.25,-1.17 0.51,-0.25 -0.26,-0.49 0.68,-0.99 -0.65,-0.48 0.38,-0.91 -0.38,-0.26 0.31,-0.68 0.44,0.07 0.8,-0.76 0.2,0.33 0.24,-0.32 0.59,-0.04 0.89,0.43 0.56,-0.12 0.32,0.6 0.47,-0.3 1.16,0.16 0.48,-1.44 -0.71,-0.97 1.54,0.4 1.99,-1.13 0.19,-0.28 -0.56,-0.5 -0.08,-0.6 1.66,-1.7 0.31,0.58 0.17,-0.13 0.49,-1.36 0.24,0.01 0.65,-1.15 z" 
                fill="rgb(151, 144, 238)" 
                stroke="white" 
                stroke-width=".7px"
                title="Калужская область" 
                id="RU-KLU" 
            />
        </svg>