<svg xmlns="http://www.w3.org/2000/svg" viewBox="974.7801099999991 468.2908200000003 135.52998999999852 192.0199999999994" width="135.52998999999852" height="192.0199999999994">
            <path 
                d="m 1040.5701,558.00082 -0.3,1.93 -0.49,0.57 -1.1,-0.02 -1.46,0.85 -0.7,-0.06 -4.17,3.25 -0.71,1.71 -0.54,-1.43 1.28,-0.57 1.22,-2.83 0.07,-1.17 1.2,-1.57 -0.11,-0.36 2.7,-1.21 0.67,-0.9 1.41,-0.84 0.03,0.65 0.31,0.14 0.03,0.73 0.66,1.13 z m 68.71,-40 -1.07,-0.52 -0.87,0.25 0.02,0.66 0.36,0.15 -1.81,1.86 -1.22,-1.36 -0.81,-0.04 -0.43,0.43 -0.08,2.48 -0.92,0.04 -0.38,0.39 0.04,0.79 -1.14,1.02 -0.6,0.11 -1.18,-1.19 -1.01,0.59 -0.16,0.42 1.39,0.88 0.23,0.82 -0.6,0.35 -0.91,-0.72 -0.76,-0.15 1.22,0.77 -1.04,0.88 -0.25,0.62 -0.93,-0.13 -0.8,-0.65 -0.4,0.16 0.19,0.71 0.52,0.43 -0.95,0.43 0.68,-0.12 -0.02,0.91 0.46,-0.38 0.12,0.4 -0.55,0.57 -0.85,0.03 -1.69,-1.33 -0.18,0.18 0.85,0.63 0.55,1.31 -0.56,0.37 -0.57,1.31 -0.46,-0.75 -0.26,0.14 0.05,0.61 -0.37,0.25 -0.68,-0.01 -0.23,-0.34 -0.52,0.17 -0.69,0.85 0.25,0.49 -0.2,0.39 -0.76,0.02 -0.91,0.72 0,0.72 -3.79,1.87 -0.86,1.2 -0.64,-0.07 0.08,0.52 -0.31,0.23 0.52,0.22 -0.05,0.6 -0.81,0.29 -0.41,0.5 -0.65,3.99 -0.78,0.53 -1.33,-0.55 0.18,-0.62 -1.38,-0.79 -0.72,-2.42 -0.6,-0.4 -0.34,-1.89 -2.29,-1.7 -2.27,-0.66 -2.27,-0.12 -0.52,0.33 -1.18,-0.74 -1.28,-0.06 -2.18,0.58 -1.44,0.83 -0.61,-0.38 -0.13,0.88 -0.3,-0.17 -0.77,0.58 -1.34,0.37 -1.58,1.07 -0.71,-0.3 -0.42,-0.6 0.16,1.27 -0.69,0.2 -0.63,0.99 -0.47,0.08 0.22,0.13 -0.83,1.6 -2.29,2.6 -0.87,1.6 -1.37,0.17 -0.13,-0.22 0.64,-2.34 0.17,-2.08 0.57,-0.42 0.17,-0.55 -0.42,-2.5 0.96,-0.67 -0.1,-0.71 -0.72,-0.12 -1.17,0.62 -0.7,0.97 -1.23,0.61 -0.56,0.73 -2.66,1.4 -1.15,1.19 -0.42,-0.35 -0.94,0.18 0.08,0.56 0.53,-0.39 0.43,0.1 -0.2,0.69 0.6,0.6 -0.41,0.3 -0.51,1.51 -0.97,0.38 -0.82,0.79 -0.42,-0.51 -0.14,-1.61 -0.43,-1 -0.67,-0.29 -0.35,-0.7 -0.89,-0.55 -0.9,0.5 0.12,1.14 -0.92,0.4 -0.58,0.72 0.01,0.38 0.56,0.48 -0.94,-0.13 -0.13,-0.44 1.23,-1.25 -0.59,0.07 -0.78,-0.63 -1.23,0.26 -0.41,0.36 -0.77,1.64 -0.3,-0.31 -1.04,-0.08 -1.01,2 0.25,1.84 -0.4,0.4 -0.95,0.18 -0.26,0.66 0.1,0.67 0.93,1.19 0,1.61 -1.84,0.46 0.1,1.01 1.01,0.6 0.15,0.77 -1.56,-0.96 -0.9,0.36 0.73,1.66 0.44,0.17 -0.21,0.48 -1.56,0.97 -0.22,0.75 -1.34,0.84 -1.14,1.19 -2.38,4.64 -0.93,3.51 0.3,2.08 0.75,1.29 2.14,0.9 -0.62,1.53 0.73,-0.29 0.58,-0.9 -0.24,-1.6 0.43,-0.77 1.01,-0.31 2.51,1.75 1.18,0.03 0.77,1.24 -0.67,0.82 -0.03,1.01 -0.57,0.26 -0.35,1.14 -1.36,0.67 -0.79,0.91 -0.21,1.58 0.62,2.73 -0.55,3.46 1.09,1.08 -0.84,-0.38 0.8,0.4 1.06,-0.67 0.42,0.21 0.77,-0.19 -0.03,0.37 0.39,0.3 -0.36,0.92 0.27,0.64 -0.17,1.7 0.75,1.44 0.06,1.82 -1.31,0.65 -1.12,1.65 -1.5,-0.76 -1.29,-2.05 0.55,-0.57 0.23,-0.94 1.44,-0.44 0,-0.44 0.94,-0.56 0.25,-0.8 -0.27,-0.17 -0.49,-0.17 -0.23,0.26 -0.45,1.3 -1.44,-0.84 -1,0.82 -1.11,0.35 -0.04,0.4 0.89,0.53 -0.03,0.37 0.33,-0.02 0.18,0.48 -2.84,1.43 -0.93,0.84 0.01,0.78 -2.34,5.92 -0.11,1.96 0.33,2.31 0.68,1.85 1.99,2.69 -0.36,0.42 0.24,0.83 -1,0.7 -2.17,2.39 -1.54,-0.17 -1.39,0.41 -0.62,-0.52 0.01,-0.7 -0.52,-0.15 -2.2,0.48 -2.46,1.69 -1.42,1.63 -1.12,0.73 -0.95,1.38 -0.97,3.14 -0.04,2.21 0.69,0.97 0.07,1.15 -0.14,0.26 -0.66,-0.33 -0.1,-0.46 -0.41,0.34 0.49,0.29 0.03,0.99 0.53,0.23 -0.05,0.69 0.44,0 -0.51,0.85 0.32,0.55 0.1,-0.49 0.39,-0.12 -0.14,0.4 0.46,1 -0.18,0.55 -2.09,-1.27 0.77,-0.79 -0.27,-0.07 -0.69,0.67 -1.01,-0.38 -0.75,0.31 -0.57,0.89 -0.42,-0.21 -1.71,0.71 -1.46999,1.12 -1.33,1.56 -0.14,-1.1 -0.52,-0.86 -0.56,-0.12 -0.82,0.52 -0.06,0.45 0.42,0.19 -0.4,0.16 0.15,0.68 0.85,0.03 -0.11,-0.26 0.69,-0.07 -0.01,0.54 -0.28,0.06 0.38,0.28 -0.58,0.79 -0.51,-0.21 -0.08,0.24 0.05,0.42 0.82,0.51 -0.48,0.5 0.11,0.29 -0.32,0.13 -0.83,-0.41 0.16,0.59 0.81,0.81 -0.22,0.37 0.21,0.23 -0.92,0.85 0.78,-0.34 0.38,0.23 -0.12,0.6 -0.43,0.25 0.46,0.12 0.07,0.33 -1.17,0.92 0.14,0.64 -0.27,0.51 -0.18,-0.17 -0.33,0.27 0.16,0.58 -0.42,0.7 0.04,0.55 -1.21,1.78 -0.55,0.28 -0.86,1.8 -1,0.86 -1.47,0.59 -0.89,1.77 -0.48,0.01 -0.84,1.41 -1.2,0.81 -3.08,3.21 0.79,-1.41 -0.08,-0.94 -0.4,-0.13 0.09,-1.22 -1.2,-1.01 -0.45,-2.7 0.12,-3.46 -0.33,-4.18 -2.23,-7.88 -1.03,-8.78 -1.88,-10.18 -1.32,-10.13 0.7,-9.22 0.68,-1.76 1.77,-7.51 0.91,-1.63 0.48,-0.27 -0.76,0.95 0.86,-0.48 0.17,-0.8 1.79,-1.31 0.49,-0.9 0.06,-0.99 0.85,0.54 0.46,-0.15 0,-0.5 1.81,-3.8 0.12,-1.31 -0.3,-1.43 -0.62,-1.35 -0.71,-0.29 0.54,-0.99 0.39,-0.03 0.71,-0.77 0.35,0.77 0.88,0.36 0.92,0.1 0.97,-0.33 0.66,-0.48 0.4,-0.94 -0.09,-0.5 0.64,-0.57 0.09,-0.57 2.31,0.5 0,-0.27 0.93,0 1.38,-0.95 2.47,-2.6 2.94999,-2.26 0.8,-1.38 2.47,-2.71 0.73,-1.53 0.32,0.08 0.3,-0.37 0.28,-1.23 -0.3,-0.44 1.05,-2.14 0.97,-0.8 1.41,-1.95 0.83,-0.17 0.75,-0.8 0.56,-2.22 2.76,-0.9 0.45,-1.17 1.21,-0.81 1.12,-1.27 1.66,-2.73 1.98,-1.15 1.08,-1.24 0.17,-1.23 -0.38,-0.17 0.44,-1.68 0.6,-0.17 0.4,-0.75 0.05,0.32 0.49,-0.27 0.3,-0.58 1.47,-0.29 0.75,-0.92 1.35,0.03 0.67,-0.66 0.76,-1.57 0.7,-0.3 0.88,0.36 -0.02,-0.38 0.47,-0.41 1.04,0.09 -0.02,0.65 0.57,-0.88 1.61,-0.8 1.07,0.5 -0.59,-0.28 0.53,-0.98 -1.99,-1.27 0.13,-0.37 0.71,-0.33 0.05,-0.81 0.35,-0.43 1.97,-1.38 0.59,-1.69 -0.75,-1.36 -0.71,-0.09 -0.39,0.4 -0.17,-0.76 0.72,-1.52 0.15,-1.22 1.34,-0.53 0.17,-1.8 -0.23,-0.61 0.36,-0.77 -0.18,-1.4 0.33,-0.55 -0.24,-1.14 0.37,-0.57 0.2,-2.16 2.03,-1.32 0.62,-1.29 1.45,-0.21 0.97,0.49 1.86,0.21 -0.27,-0.51 0.85,-0.35 0.18,-0.37 -0.96,0.04 -2.06,-1.21 -0.28,0.2 -1.17,-1.91 -1.22,-0.23 -1.18,0.49 -1.68,0.14 -0.88,1.1 -0.97,-0.38 -3.51,1.19 -0.35,1.24 -0.87,0.54 0.65,-0.14 0.18,0.64 0.97,0.68 -0.96,0.28 -0.05,0.47 -1.22,0.97 0.53,1.45 -0.23,0.81 0.59,0.23 -0.92,1.46 -0.04,0.98 -0.59,1.41 0.67,0.72 1.9,0.78 -0.03,0.68 -0.81,0.31 0.02,0.56 -0.3,-0.36 -0.51,0.19 -0.27,0.54 0.31,0.48 -0.58,0.51 -0.53,-0.98 -0.8,-0.35 0.63,-0.64 -0.72,-1.01 -1.5,0.74 0.11,0.55 0.78,0.05 0.11,0.48 -2.36,-1.19 0,0 0.21,-0.96 -0.74,-0.75 -0.63,-1.58 0.42,-0.4 0.53,0.09 0.95,-1.13 -0.36,-1.06 -1.64,-0.34 -0.51,-0.52 0.16,-0.61 2.22,-0.71 1.6,-1.07 0.02,-1.83 0.31,-0.9 -0.85,-1.7 0.89,-0.81 0.17,-0.7 -1.68,-0.74 0.54,-0.78 -1.64,-1.58 -1.04,-0.27 -0.07,-0.9 0.5,-2.15 0.48,-0.6 0.6,0.28 0.72,-0.2 0.67,-0.99 0.88,-0.4 0.06,-0.37 -0.61,-0.6 0.35,-0.78 -0.35,-1.33 1.11,-0.38 1.21,-1.73 -0.07,-1.25 -0.45,-0.81 -0.76,-0.32 -0.04,-0.69 -0.7,-0.56 0.69,-1.71 0.61,-0.52 -0.1,-2.04 -0.82,-1.36 0.18,-0.8 0.87,-0.62 1.58,-0.21 0.58,-0.49 -0.38,-0.49 0.11,-0.45 1.86,-1.36 0.02,-0.53 -0.69,-0.79 0.01,-0.72 -1.28,-1.33 -0.05,-2.13 0,0 -0.04,-0.67 -0.54,-0.55 0.04,-0.59 0.36,-0.27 0.77,0.14 1.56,-2.14 0.44,0.38 0.86,0.08 0.58,0.54 1.23,-0.05 0.66,-0.58 0.94,0.01 2.85,2.1 0.86,0.01 1.2,2 0.58,-0.44 -0.34,-1.42 0.32,-0.59 1.15,-0.39 0.66,0.25 0.58,1.26 2.64,0.15 0.85,2.08 -0.27,0.98 0.51,0.31 0.79,-0.17 0.74,-1.06 2.09,0.58 1.18,1.33 1.18,-0.37 0.89,0.16 1.16,-0.48 0.74,-1.08 0.49,-0.16 1.1,1.99 0.74,0.81 1.14,0.58 0.1,1.61 0.48,0.21 1.01,-0.34 0.13,0.84 0.66,0.22 1.12,-0.29 0.7,-0.65 0.39,0.27 1.37,-0.33 0.26,1.35 0.48,0.68 1.41,0.32 0.55,2.82 1.03,1.23 1.74,0.17 0.68,0.35 -0.07,0.94 1.03,0.63 0.81,3.08 -0.48,0.68 0.08,0.4 -0.76,0.64 -1.23,0.31 -1.23,1.64 -0.97,0.37 -0.32,0.89 -0.58,0.4 0.01,1.12 -0.88,1 -0.9,0.19 -0.25,0.53 -0.69,0.27 -0.08,0.7 1.87,1.08 0.48,0.74 1.26,0.52 1.12,-0.27 3.36,2.48 0.85,1.49 0.66,-0.03 0.62,0.6 0.77,0.06 0.29,0.84 -0.21,1.14 0.73,0.76 -0.18,0.63 0.56,0.65 0.28,1.53 0.43,0.37 0.95,-0.83 3.42,1.23 0.21,-0.53 1.24,-0.19 0.03,-0.6 0.68,-0.09 0.24,-0.69 0.42,-0.21 0.24,0.17 -0.1,0.95 0.77,-0.56 0.25,0.07 -0.15,0.72 3.22,-1.14 0.5,-0.89 1.36,-0.74 0.86,0.36 0.35,0.65 1.17,-0.05 0.43,-0.43 0.96,-0.21 1.34,0.52 0.84,0.73 2.23,-1.48 4.25,-1.44 0.78,0.25 0.34,0.67 0.91,0.07 0.63,0.49 0.36,1.17 -1.2,1.4 0.75,0.44 0.15,1.85 0.49,0.36 0.85,-0.21 0.3,1.28 0.58,0.48 0.17,0.95 0.51,0.45 -0.09,0.72 0,0 -0.94,0.37 z m -54.82,97.24 -1.32,-1.36 0.13,-0.52 -0.66,0.08 -0.19,-0.31 -0.06,0.28 -0.63,-1.08 -0.79,-0.53 -1.42,-3.4 -1.61,-0.71 1.61,-0.99 1.06,0.53 0.91,-0.1 0.31,0.36 -0.42,0.44 0.03,1.12 1.41,2.67 1.08,0.62 0.36,0.6 0.2,2.3 z" 
                fill="rgb(151, 144, 238)" 
                stroke="white" 
                stroke-width=".7px"
                title="Камчатский край" 
                id="RU-KAM" 
            />
        </svg>