<svg xmlns="http://www.w3.org/2000/svg" viewBox="151.30011000000007 728.3408199999999 15.509999999999962 12.759999999999877" width="15.509999999999962" height="12.759999999999877">
            <path 
                d="m 159.57011,728.66082 0.37,-0.32 0.78,0.08 0.73,1.2 2.33,0.45 0.79,0.82 0.04,-0.5 0.71,0.05 0.07,-0.6 0.31,-0.08 0.75,1.16 -2.38,1.3 -0.29,1.05 1.19,0.69 0.36,-0.19 -0.09,-0.54 0.52,0.13 0.55,0.92 0.11,1.01 0.39,0.25 0,0 -0.39,1.06 -1.71,1.02 0.11,0.98 -0.57,0.79 -0.1,1 0.3,0.71 0,0 -0.69,-0.27 -0.13,-0.41 -1.06,0.45 -0.54,-0.21 -1.11,0.35 -1.33,-0.52 -0.38,0.43 -0.6,-0.29 -0.75,0.1 -1.47,-0.81 -0.13,-0.55 -0.55,0.28 -1.38,-0.61 -0.56,0.12 -0.46,-0.48 -0.44,0.06 -0.4,-0.59 -1.17,-0.45 0,0 0.05,-1.97 0.69,-1.79 0.82,-0.32 0.06,-1.5 0.57,-0.23 2.56,0.7 0.47,0.84 0.8,0.16 0.56,-1.08 0.65,0 0.6,-1.31 -0.08,-0.86 -0.7,-0.76 z" 
                fill="rgb(151, 144, 238)" 
                stroke="white" 
                stroke-width=".7px"
                title="Карачаево-Черкесская республика" 
                id="RU-KC" 
            />
        </svg>