<svg xmlns="http://www.w3.org/2000/svg" viewBox="464.96010999999993 587.33082 35.70999999999998 57.88000000000022" width="35.70999999999998" height="57.88000000000022">
            <path 
                d="m 494.75011,587.33082 0.52,2.18 -0.1,0.81 -0.33,0.34 -0.66,0.06 -0.25,0.75 0.83,0.68 -0.12,0.55 0.86,1.32 1.12,-0.02 0.4,0.85 1.01,0.07 0.31,1.31 1.01,1.19 -0.06,1 0.65,1.73 0.73,0.34 -0.12,0.93 -1.13,0.52 -0.52,0.7 -1.66,0.39 -2.33,2.89 0,0 0,0 0,0 -0.45,0.97 -0.71,0.34 -0.01,0.78 0.55,3.19 0.73,1.43 0.81,0.73 -0.26,0.93 -0.68,0.32 -0.29,0.72 -0.33,2.98 -1.2,0.63 0.25,0.43 1.28,0.72 0.47,-0.2 0.5,-0.93 0.89,-0.26 0.39,1.01 0.44,0.28 1.19,-0.56 0.21,0.24 0.28,1.78 -0.99,1.15 -0.24,1.56 0.91,0.1 0.47,2.07 -1.39,0.34 -0.67,1.53 -0.89,0.85 0.27,0.87 -0.56,1.59 0.11,0.36 0.64,-0.63 0.9,1.35 0.21,0.52 -0.56,0.27 0.68,0.53 0.06,0.53 -0.84,0.44 -0.17,0.84 0.26,0.45 0.46,-0.08 0.55,1.02 0.72,0.34 0.21,0.64 -0.48,0.1 -0.27,0.63 -0.6,0.35 -0.12,0.48 0.79,0.84 -1.48,1.49 -1.7,1.1 0.12,1.06 -1.33,0.94 -0.66,0.13 0,0 0.16,-1.81 -0.33,-0.92 -0.83,-0.23 -0.84,0.3 -1.78,-1.59 -0.46,0.04 -1.09,1.28 -0.48,0.05 -2.26,-0.92 0.12,-0.45 -0.29,-0.49 -0.95,0.22 -0.34,-0.33 0,0 -0.01,-0.83 -0.23,-0.33 -0.67,0.05 -0.32,-1.09 0.02,-0.8 0.57,-0.57 -0.14,-1.27 -2.22,-1.85 -0.5,-0.75 0.16,-0.38 1.41,-0.67 0.4,-0.92 0.01,-0.97 -2.8,-0.35 -0.43,-1.07 -0.7,-0.57 -0.61,-1.93 -0.61,-0.3 -0.55,-1.71 -1.4,-0.67 -0.09,-0.36 -0.65,-0.27 -0.35,-0.78 -1.76,-0.97 -0.91,0.17 -1.43,-2.45 -0.35,-0.27 -0.4,0.15 0,0 -0.8,-1.97 0.55,-0.77 -0.83,-0.78 0.14,-0.64 0.55,-0.18 0.34,-0.52 -0.29,-0.99 -1.15,-1.32 0.38,-1.55 -0.41,-1.63 0.06,-1.69 -1.74,-0.06 1.06,-0.82 0.2,-1.57 -0.26,-0.61 -0.85,-0.37 -0.66,-1.14 0.18,-0.37 -0.45,-1.44 0.32,-0.44 -0.18,-1.19 -0.65,-0.19 0,0 2.48,-1.46 1.09,0.08 2.16,-0.93 2.66,-0.22 -0.4,-0.15 -0.22,-0.68 1.52,-0.49 0.36,-0.97 1.38,-0.73 0.59,-0.69 0.56,-0.06 0.25,-1.39 0.29,-0.23 0.96,1.01 0.44,0.07 1.29,-0.83 1.47,0.02 -0.23,0.81 0.22,0.26 1.51,-0.07 0.87,-0.37 0.23,-0.99 1.36,-0.01 -0.07,0.88 1.59,-0.92 0.34,1.49 1.63,-0.69 1.27,-1.17 2.73,-1.75 0.96,0.3 z" 
                fill="rgb(151, 144, 238)" 
                stroke="white" 
                stroke-width=".7px"
                title="Кемеровская область" 
                id="RU-KEM" 
            />
        </svg>