<svg xmlns="http://www.w3.org/2000/svg" viewBox="191.5501099999999 528.8908200000001 54.25000000000003 68.46000000000015" width="54.25000000000003" height="68.46000000000015">
            <path 
                d="m 196.87011,532.04082 0.47,-1.79 0.44,-0.56 -0.08,-0.58 1.43,0.23 0.69,-0.45 2.95,0.8 0.38,0.36 0.09,1.59 2.67,0.47 0,0 0.47,0.38 0.85,3.44 -0.08,1.96 1.2,1.07 0.22,0.68 -1.66,1.61 -0.35,0.81 0.32,1.91 -0.02,4.52 4.09,0.69 -0.2,2.46 0.32,0.16 0.48,-0.47 1.32,0.51 0.12,0.82 1.65,0.22 -0.34,2.14 0.6,0.35 0.67,0.14 0.87,-0.54 0.31,-1.59 -0.23,-0.44 0.12,-1.21 -0.28,-0.38 0.23,-2.15 1.52,-0.45 -0.42,-0.73 0.09,-0.52 0.61,-0.23 0.93,0.2 0.6,-0.66 1.12,-0.47 1.9,-0.43 0.98,0.08 1.78,-2.75 1.54,0.25 0.89,1.79 0.63,-0.04 3.13,-5.39 0.89,-0.25 1.48,1.1 0,0 1.27,0.72 6.33,1.04 0.16,-1.01 0.55,-0.24 0,0 1.21,1.76 0.39,1.43 -0.8,4.26 0,0 -0.9,0.13 -0.25,2.01 -1.34,2.76 1.28,2.85 0.87,0.01 1.13,0.65 0.71,-0.18 0.43,0.37 -0.59,1.26 0.32,2.03 0.77,1.01 0,0 0,0 0,0 -1.03,0.57 -0.2,0.62 0.31,0.53 -0.22,0.44 0.28,1.94 0,0 -0.76,0.1 -0.36,0.42 -0.48,-0.19 -0.57,0.33 -0.25,-0.31 -0.3,0.11 -0.08,0.52 -1.1,-0.08 -0.84,-1.63 -1.44,0.53 -0.16,1.04 -0.35,0.36 -2.93,-0.23 -1.75,-0.75 -0.64,0.02 -1.21,0.57 -0.97,1.15 -0.91,2.35 1.15,1.1 0.05,0.87 0.81,0.41 -0.45,0.91 0.27,2.48 -0.4,1.17 -0.79,0.8 -0.11,0.61 -0.97,0.58 0.03,0.55 -0.64,0.23 -0.54,-0.26 -1.08,0.13 -0.58,0.42 -0.74,1.79 2.11,4.74 0.89,0.93 -0.1,0.64 -0.76,0.65 -0.34,1.21 -1.22,-0.05 -0.25,0.69 0.22,0.87 -0.26,0.6 1.09,1.06 0.18,0.73 1.19,0.82 -0.7,0.82 0.72,0.54 -0.52,0.73 0,0 -0.24,0.59 -0.5,0.02 -0.81,-0.64 -0.53,0.17 -0.75,-0.53 -0.77,-1.15 0.27,-1.17 -0.25,-0.82 -0.45,-0.49 -0.52,0.28 0.2,0.85 -1.18,-0.35 -0.67,-1.32 0.12,-0.57 -1.43,-2.1 -0.59,0.62 -0.55,-0.3 -0.42,0.41 -0.64,-0.26 0,0 0.48,-1.67 -0.3,-0.89 -0.62,-0.39 -0.43,0.17 -1.41,-0.41 0.29,-0.98 -0.3,-0.5 0.1,-0.46 -1.01,-0.56 -1.13,0.27 -0.7,0.55 -0.7,-0.31 -0.61,-1.67 -0.02,-0.77 0.45,-0.75 -0.29,-0.46 -1.11,0.32 -0.17,0.72 0.36,0.66 -0.58,0.49 -0.14,0.87 -0.29,0.16 -0.79,-0.31 0.27,-0.72 -0.46,-0.32 -0.93,0.44 -0.88,-0.37 -0.75,0.84 -0.45,-0.56 -0.71,0 -0.25,0.82 -0.54,0.2 -0.03,0.67 -0.74,0.25 -1.34,0.09 -0.85,-0.8 -1.68,1.99 -0.12,0.81 -0.87,-0.3 -1.66,0.52 0.17,-0.6 -0.41,-0.54 -2.6,-0.3 0,0 0.26,-2.17 -0.39,-0.62 0.69,-0.58 -0.81,-1.35 -0.13,-1.41 0.53,-1.13 0.39,-0.25 1.36,0.26 1.62,-1.05 1.14,0.77 0.44,-0.2 0.54,-1.06 0.39,-2.87 1.27,-1.45 -2.86,-0.97 -2.1,-0.24 -4.02,-0.26 -0.86,0.35 -0.11,-0.7 0,0 -0.44,-0.69 0.42,-0.89 0.43,-0.04 0.27,-0.5 -0.34,-1.05 0.52,-0.66 -0.55,-0.33 1.33,-0.62 -0.21,-1.02 0.66,-1.42 0.18,0.21 0.89,-0.16 0.42,-0.39 0.3,0.2 0.86,-0.19 -0.19,-1.01 0.97,-0.95 0.57,0.16 0.87,-0.49 -0.43,-0.67 0.34,-0.31 -0.39,-0.56 0.23,-0.15 2.1,0.21 -0.28,-1.7 -0.7,-1.06 -0.17,-0.86 -0.24,0.51 -0.7,-0.33 -0.46,-0.96 0.26,-0.18 -0.31,-0.5 0.16,-0.99 -1.5,-0.25 0.38,-3.51 0,0 0.11,-1.48 -0.22,-0.52 -1.59,-0.65 0.84,-2.42 0.28,-2.72 -1.42,1.41 -0.83,0.22 -2.23,-1.11 -0.63,-1.73 2.36,-0.39 0.66,0.17 0.36,-0.31 0.63,-3.25 1.29,-1.36 -0.48,-2.44 z" 
                fill="rgb(151, 144, 238)" 
                stroke="white" 
                stroke-width=".7px"
                title="Кировская область" 
                id="RU-KIR" 
            />
        </svg>