<svg xmlns="http://www.w3.org/2000/svg" viewBox="149.1401099999999 550.0108199999993 51.66000000000008 31.900000000000546" width="51.66000000000008" height="31.900000000000546">
            <path 
                d="m 197.24011,550.10082 -0.38,3.51 1.5,0.25 -0.16,0.99 0.31,0.5 -0.26,0.18 0.46,0.96 0.7,0.33 0.24,-0.51 0.17,0.86 0.7,1.06 0.28,1.7 -2.1,-0.21 -0.23,0.15 0.39,0.56 -0.34,0.31 0.43,0.67 -0.87,0.49 -0.57,-0.16 -0.97,0.95 0.19,1.01 -0.86,0.19 -0.3,-0.2 -0.42,0.39 -0.89,0.16 -0.18,-0.21 -0.66,1.42 0.21,1.02 -1.33,0.62 0.55,0.33 -0.52,0.66 0.34,1.05 -0.27,0.5 -0.43,0.04 -0.42,0.89 0.44,0.69 0,0 -3.25,0.62 -0.52,-0.14 -0.22,0.38 -0.31,-0.04 -0.25,0.97 -0.41,0.36 -0.49,-0.02 -1.18,-1.51 -0.88,0.24 -0.86,-0.8 -2.41,0.12 -0.33,0.47 0.26,2.22 -0.38,0.39 0.16,0.67 -0.5,0.34 -0.15,0.93 -1.04,-0.12 -1.59,2.48 -0.89,0.05 -1.34,0.96 -2.51,-0.1 0,0 -0.13,-0.63 -0.45,-0.4 -1.27,-0.27 -0.75,0.32 -0.93,1.18 -0.2,-2.61 -0.53,0.95 0.29,1.36 -0.21,0.47 -0.77,0.5 -1.12,-0.11 -0.78,-0.79 0.62,-0.6 -0.38,-1.04 0.25,-1.23 -0.84,-0.29 -0.29,0.7 -1.21,0.17 -0.29,-0.27 -0.63,0.27 -0.21,0.5 -0.84,0.15 -0.39,-0.25 -0.37,0.3 -1.16,-0.69 -0.13,-0.48 -2.41,-0.73 0.24,1.56 -0.31,1.69 -2.72,0.85 -0.52,-0.26 0,0.55 -0.46,0.6 -0.41,-0.02 0,0.42 -0.83,-0.49 -1.36,0.18 -0.24,0.38 -0.71,-0.17 -0.7,0.42 0,0 -0.49,-0.6 -0.12,-1.99 0.43,-0.25 -0.15,-0.58 0.58,-0.15 -0.08,-0.64 0.32,0.31 0.18,-0.41 0.51,0.27 0.21,-0.4 -0.6,-1.09 0.63,-1.25 -0.55,-1.36 1.07,-0.81 -0.08,-1.46 1.16,-0.84 -0.3,-0.74 0.51,-0.28 0.67,-1.11 0.72,-0.24 0.52,-0.68 -0.74,-0.95 -0.19,-1.11 -0.8,-0.39 0,0 0.35,-0.34 0.27,0.15 -0.18,-0.6 0.71,-0.72 0.53,-0.1 0.55,-1.05 -0.77,-0.91 0.44,-0.87 0.3,0.17 -0.02,-0.76 -0.48,-0.34 0.57,-0.55 -0.01,-0.38 0.35,-0.21 0.29,0.8 0.39,-0.61 1.61,-1.07 1.16,-0.37 0.99,0.16 0.34,-0.6 0.23,0.26 0.4,-0.12 0.12,-1.75 -0.99,-0.67 0.73,-1.99 1.01,0.27 0.21,1.28 0.55,0.7 0.44,-0.49 1.69,-0.37 0.51,1.24 0.35,0.01 0.71,1.26 0.38,-0.13 0.03,-0.73 0.3,0.26 1.03,-0.3 -0.03,-0.33 0.62,-0.46 0.69,0.61 0.2,-0.17 0.24,0.38 0.3,-0.12 -0.04,-0.73 1.14,-0.48 0.26,1.69 0.56,-0.29 -0.1,-0.41 1.32,-0.65 0.02,0.81 0.7,-0.07 0.81,0.42 1.13,-0.37 0.16,0.61 0.84,0.2 0.04,0.41 1.38,-0.33 3.51,0.55 0.49,-0.96 1.54,0.04 0.33,-0.51 2.51,0.39 0.19,-0.4 0.51,0.43 1.16,0.1 0.87,-2.02 0.57,0.1 0.28,-0.49 1.55,-0.18 0.24,-1.37 -0.31,-0.42 0.33,-1.34 1.51,-0.12 0.14,0.43 0.6,-0.12 0.41,-0.51 z" 
                fill="rgb(151, 144, 238)" 
                stroke="white" 
                stroke-width=".7px"
                title="Костромская область" 
                id="RU-KOS" 
            />
        </svg>