<svg xmlns="http://www.w3.org/2000/svg" viewBox="405.1701100000001 29.210817999999996 271.00000000000006 620.9100020000004" width="271.00000000000006" height="620.9100020000004">
            <path 
                d="m 473.52011,266.98082 0.66,-0.67 0.36,-1.85 1.25,-0.56 1.99,1.81 -0.49,1.11 -0.37,0.13 -0.23,-0.87 -0.93,-0.48 -0.33,0.31 0.69,0.32 0.21,0.45 -0.4,0.44 -0.56,-0.14 -0.69,0.69 -0.68,0.14 -0.05,-0.24 0.32,-0.05 -0.12,-0.47 -0.57,0.23 -0.06,-0.3 z m 52.17,-164.4 -0.3,-0.22 0.28,-0.15 0.02,0.37 z m -19.52,-64.240002 -0.76,-0.96 -0.15,-1.28 0.62,-2.42 0.52,-0.63 3.27,-0.78 1.9,-0.06 0.67,-0.47 4.15,1.72 0.15,1.75 0.47,1.36 -1.22,1.79 -1.49,1.41 -1.85,0.37 -2.46,-0.21 -1.07,-0.71 -2.75,-0.88 z m 10.32,33.67 0.47,-0.13 0.43,-0.75 1.2,0.51 0.29,-0.86 1.57,0.61 -1,-0.96 0.21,-0.14 0.97,0.24 0.49,0.65 0.9,-0.53 1.19,0.6 1.33,-0.23 -0.69,-1.01 -2.91,-0.74 -2.01,-1.46 0.74,-0.69 1.63,-0.41 0.83,-0.9 2.1,-0.19 1.1,-0.76 0.04,-3.34 0.48,-3 2.78,-4.58 -0.11,-0.48 0.4,-1.08 -0.52,-0.42 -0.48,0.39 0.29,1.33 -0.2,0.2 -0.8,0.03 -1.47,0.72 -0.4,-0.92 -0.51,1.09 -0.64,0.25 -0.67,-0.08 -0.29,-1.14 0.85,-0.88 1,-1.89 -0.01,-1.5 2.18,-1.76 0.73,0.28 0.31,-0.19 -0.68,-1.39 0.03,-1.37 -0.34,-0.41 0.28,-0.34 0.94,-0.2 1.96,-1.86 1.37,0.55 0.2,-0.27 -0.33,-1.36 1.72,-1.04 1.02,-0.18 0.87,-1.22 0.83,-0.13 0.59,-0.51 0.57,0.11 2.58,-1.52 0.29,-0.74 2.94,-3.25 2.18,-0.19 -0.45,-0.54 -2.19,0.1 -0.87,-0.26 -0.18,-1.4 0.2,-0.21 3.31,-1.05 1.74,0.42 0.67,1 0.19,1.14 -0.86,2.18 1.7,-0.1 0.2,1.1 0.65,0.22 0.29,1.49 0.77,1.31 1.12,1.08 0.19,2.03 1.5,1.24 -0.36,1.44 0.8,2.14 0.77,0.18 1.48,1.27 0.41,1.15 1.86,1.48 0.03,0.63 3.02,0.53 -0.59,1.42 0.69,-0.07 0.43,0.82 -0.1,0.62 -0.73,0.74 0.88,0.4 0.24,1.76 -0.86,0.15 -0.73,0.96 -0.45,-0.28 -0.89,0.16 -0.3,0.83 -0.9,0.4 -0.38,-0.15 -0.08,-1.1 -0.46,0.54 -0.52,-0.35 0.1,0.96 -0.9,4.8 0.93,3.13 0.1,4.13 1.17,0.42 0.32,0.78 -0.01,0.69 -1.21,1.67 0.17,0.85 -1.26,0.06 -1.15,0.55 -1.35,-0.19 -3,0.56 -5.06,0.23 -1.94,1.52 -1.65,0.84 -1.16,0.19 -1.36,-0.31 -1.04,0.91 -0.72,-0.62 -1.62,3.12 -4.5,2.63 -3.83,-2.26 -2.83,-2.59 -3.1,-0.2 -1.36,-0.76 0.17,-0.38 0.79,-0.37 -0.09,-0.93 4.44,2.23 0.46,-0.35 -0.15,-0.64 -0.65,-0.65 -3.68,-2.02 -0.19,-0.74 -1.11,-0.82 2.28,-0.15 2.54,-0.71 1.56,0.43 1.88,1.43 0.65,-0.31 -0.79,-1.45 -2.19,-0.9 -0.87,0.07 -2.94,0.92 -3.34,0.22 -1.8,0.75 -0.28,-0.18 0.36,-0.71 -0.05,-0.68 -0.65,0.8 -1.4,0.43 1.25,-2.38 z m 156.22,196.300002 0.23,1.48 -0.18,1.15 -0.18,0.17 -0.13,-0.4 -1.58,3.91 -0.65,-0.12 -0.71,0.38 -1.15,2.68 -4.47,-1.38 -1.84,-2.27 -2.22,-0.71 -1.04,-1.19 0.17,-1.27 0.56,-0.59 0.97,-0.15 1.18,0.78 1.05,-0.83 -0.24,-0.37 0.36,-1.33 -0.53,-0.68 0.24,-2.39 4.93,0.92 3.27,0.23 1.31,0.87 0.65,1.11 z m 3.38,-41.36 0.08,2.41 -0.32,1.83 -0.63,1.47 -0.5,2.74 -1.19,2.35 -0.8,-0.03 -0.39,-0.4 1.33,-1.87 0.19,-1.11 -2.03,-0.89 -1.21,-0.03 -1.15,0.48 1.1,-0.78 -0.03,-0.35 -0.53,-0.35 0.08,-0.35 -1.08,-0.57 -2.24,-2.4 -0.89,-0.54 -1.02,0.16 -0.63,-0.26 0.59,0.53 0.68,0.07 0.46,1.7 1.17,0.04 1.34,1.07 0.28,0.85 -0.21,0.51 -0.71,-0.03 -0.81,-0.71 -0.24,0.59 0.58,0.43 0.82,0.07 -0.04,0.72 0.54,0.64 0.01,0.48 -0.72,0.86 0.11,1.15 0.82,0.24 0.72,-0.53 0.05,-0.53 -0.36,-0.4 0.16,-0.54 1.79,-1.61 0.3,0.06 0.37,0.49 -0.13,0.98 0.25,0.31 -0.48,0.66 0.76,1.66 1.07,0.43 1.27,0.01 0.23,1.03 -0.08,1.7 -0.66,-0.14 -0.77,0.83 0.56,-0.26 0.63,0.3 -0.38,2.88 -0.91,2 -2.09,2.53 -1.46,2.53 -0.58,0.51 -0.16,-0.15 -0.14,0.86 -0.88,1.18 -1.24,0.65 -0.5,0.78 0.28,-0.85 -2.65,1.2 -0.44,-0.17 0.22,0.48 -1.27,2.86 -0.35,0.26 -0.38,-0.46 0.53,0.87 -0.92,1.21 -0.25,1.1 -1.66,-1.04 -1.04,0.2 -1.63,1.62 -1.46,2.28 -0.61,-0.15 -2.55,1.62 -1.36,-0.6 -1.15,0.23 1.45,0.25 0.15,1.14 -2.08,2.57 -0.63,0.09 0.91,-0.7 -0.56,-0.39 -1.47,1.65 -0.7,0.06 -0.12,0.57 -0.29,-0.73 -0.45,-0.08 -0.26,0.42 -0.45,-0.19 -0.08,0.31 -0.48,0 -0.41,0.65 -0.47,0.15 0.7,-0.02 0.39,-0.69 1.6,0.48 1.23,-0.77 0.15,1.15 -0.48,2.14 -2.5,3 -2.26,0.32 -0.91,0.58 -0.85,1.37 0.19,0.21 -1.14,1.16 -2.13,3.97 -0.62,-0.3 -0.25,-0.65 -0.77,0 0.69,0.2 0.13,1.55 -1.48,2.29 -1.2,0.1 -1.47,1.12 -1.57,-0.19 -0.79,0.32 -1.65,-0.39 -0.79,0.55 -1.55,-0.73 -1,0.27 -0.04,-0.28 -0.95,-0.21 -2.61,0.26 -0.52,-0.81 -0.74,0.4 -0.07,0.37 0.86,0.3 0.19,0.38 2.85,-0.26 2.76,1.57 0,1.83 -1.25,1.24 -0.13,2.17 -0.72,1.12 -0.82,0.25 -2.46,-0.4 -1.23,1.27 -0.68,2.49 -0.29,0.1 0.38,0.14 0.03,0.34 -0.98,0.96 -0.05,2.43 -1.01,1.32 -0.33,1.52 -2.69,2.21 -0.65,0.2 0.44,0.9 1.13,0.23 0.66,-0.31 2.18,-2.56 0.8,0.52 -0.41,-0.69 0.48,-1.26 1.63,-1.3 -0.14,-3.12 0.15,-0.58 0.73,-0.66 0.19,-0.79 0.68,0.04 1.21,0.88 1.27,0.35 2.5,-0.74 1.6,0.28 2.89,-0.11 0.54,-0.24 1.27,-1.49 0.63,-0.25 0.9,2.61 1.04,0.77 0.85,0.04 -0.73,-0.71 0.09,-2.65 1.18,-0.77 -0.45,-0.07 -0.5,0.36 -1.66,-0.38 -0.16,0.41 0.24,-0.95 4.8,-1.36 2.64,-1.26 0.23,-0.25 -0.48,-0.57 0.07,-1.12 0.53,1.16 0.81,0.59 0.64,-0.56 -0.34,-0.21 0.16,-0.59 1.92,0.43 0.54,-0.22 1.17,-1.29 0.79,-0.12 0.37,-1.12 -0.61,0.08 0.23,-0.62 0.61,0.07 1.43,-0.74 -0.18,-0.59 0.67,-0.71 0.82,0.14 1.68,-0.69 0.26,-0.44 0.35,0.13 0.06,-0.57 -0.37,-0.6 0.34,-1.16 -0.77,-0.1 -0.88,-0.65 -0.5,0.93 -1.25,0.61 -1.01,1.26 -1.26,-0.51 -2.32,0.29 -0.3,0.31 0.11,0.71 -0.58,-0.55 -0.69,-1.44 -0.29,-2.28 0.77,-0.3 1.43,-1.27 0.89,-3.09 2.62,-0.47 1.57,0.63 1.83,1.35 0.82,1.01 0.64,0.08 0.62,-0.68 0.09,-0.47 -0.34,-0.09 -0.02,-0.58 0.56,-1.24 1.24,-0.77 1.4,-0.08 0.53,1.12 -1.5,0.65 -0.75,-0.05 -0.44,0.42 0.55,2.46 0,0 -1.88,1.42 -0.57,0.85 -0.26,2.22 1.25,0.28 0.66,1.86 -0.4,0.32 -0.81,-0.54 -0.72,0.05 -1.54,4.51 -3.49,0.05 -0.44,0.78 2.97,1.49 0.15,1.38 -1.48,1.6 0.75,1.19 1.54,-0.6 1.31,0.37 0.29,0.61 -0.46,0.9 0.62,1.07 -0.08,1.03 -0.94,0.2 -0.52,0.98 1.21,0.24 -0.85,2.34 -0.31,1.98 0.44,3.79 0.65,-0.1 0.5,0.35 -0.18,1.21 1.42,0.34 0.74,0.89 -0.02,1.41 -0.72,0.77 -0.36,0.94 0.6,1.03 1.45,-0.07 0.58,0.85 1.08,-0.04 0.78,1 -0.3,2.31 0.79,0.23 0.47,0.94 1.37,0.48 0.31,4.5 -0.22,3.11 0.67,6.01 -0.2,2.19 0.24,0.75 1.5,0.73 1.26,1.71 1.12,0.15 0.63,0.45 -0.01,1.1 -1.03,0.24 -0.21,1.2 0.27,0.71 -0.35,0.94 -1.04,0.12 -0.37,1.08 -0.4,0.21 -0.57,-0.94 -0.46,-0.02 -1.25,1.76 -3.01,0.87 -0.71,1.32 -1.47,0.18 -2.11,1.58 -2.65,0.85 -0.87,1.07 -1.13,0.21 -0.88,0.73 -0.38,0.76 0.27,0.79 -0.51,0.4 -0.05,1.28 1.3,1 0.34,0.92 -4.83,0.78 -0.32,0.54 0.28,1 -0.38,1.2 -1.37,0.55 -0.12,1.21 0.51,0.59 -0.2,1.69 0.97,0.52 -0.05,0.55 -0.54,0.6 -0.19,1.96 -0.85,2.23 -1.31,0.46 -1.41,-0.24 -0.35,-0.52 0.06,-1.04 -0.59,-0.15 -3.69,0.24 -1.6,1.35 -0.62,1.57 -0.42,0.31 -1.31,-0.12 -2,0.69 -0.76,0.75 0,0 0,0 0,0 -2.53,1.53 0,0 0,0 0,0 -2.57,0.25 -1.26,-0.8 -1.03,0.83 -0.57,1.2 -0.68,0.39 -0.26,1.35 2.76,4.87 2.6,5.48 0.4,4.52 -0.19,9.14 -0.86,10.31 -0.11,4.91 -0.33,1.57 -0.7,0.72 -1.3,-0.45 -1.29,1.28 -1.52,0.22 -0.49,2.41 -0.61,0.37 -2.72,-0.02 -0.17,0.58 1.33,1.32 0.77,-0.42 0.81,0.17 0.15,0.92 1.4,-0.25 -0.02,0.95 -0.55,0.92 0.31,0.33 0.74,-0.2 0.14,0.92 0.58,0.72 -0.29,1.32 0.41,2.29 -0.92,1.68 -0.1,4.37 1.89,1.2 0.38,1.04 -0.05,6.4 1.42,0.82 1.14,1.72 1.1,-0.02 0.27,0.38 -1.23,0.91 -0.25,1.53 -0.6,-0.27 -0.82,0.12 -0.77,0.56 -0.61,1.4 0.58,1 -0.79,0 -0.75,1.23 -0.8,0.27 -0.25,0.76 -0.87,0.08 -0.29,0.5 0.07,0.84 0.55,0.47 0.01,0.74 0.71,0.59 -0.78,0.27 -0.44,-0.69 -0.46,0.06 -0.24,0.81 0.25,0.67 -0.76,1.36 0.28,0.81 -0.25,0.41 -1.02,-0.04 0.31,1.34 -0.31,0.4 0.99,1.51 0.92,-0.95 0.96,0.27 0.11,0.77 -0.31,0.55 0.45,0.57 1.03,-0.47 1.88,-0.23 0.33,-0.36 -0.12,-0.65 0.61,-0.35 0.68,1.95 1.27,-0.1 0.41,0.89 1.89,0.17 0.23,1.49 1,0 0.53,-0.45 0.74,0.11 2.24,1.51 0.89,0 0.09,-0.61 0,0 1.11,0.51 0.45,1.5 0.95,1.11 -0.93,1.97 -0.57,-0.64 -2.83,0.13 -1.26,0.36 -0.28,1.11 -0.53,0.36 -1.12,-0.19 -1.06,-1.09 -0.79,0.97 -2.72,-1.47 -0.3,0.3 0.48,2.22 -0.66,1.7 -0.12,2.04 -0.9,1.24 0.31,0.89 1.25,1.69 -0.39,0.65 -0.74,0.4 -0.77,-0.56 -0.59,0.3 -0.28,1.01 0.64,0.72 -0.35,1.76 -0.51,0.37 -1.08,0.11 0.21,1.93 1.33,1.27 0.99,1.72 -0.33,0.83 0.5,0.7 1.83,0.53 -0.53,0.9 0.09,0.81 -1.94,2.07 -0.16,0.76 -0.62,0.78 0.05,0.5 0.45,0.4 -0.56,2.58 -3.38,3.25 0.44,1.94 -1.01,0.77 -1.36,0.02 -0.34,0.68 -2.19,1.69 -0.13,0.58 -2.36,1.07 -0.1,0.71 0.55,0.59 0.23,1.01 -2.17,1.22 -0.05,0.65 -0.77,0.35 -0.3,0.78 0.06,2.23 -0.83,0.42 0.05,0.66 0.58,0.16 0.25,0.56 -0.68,1.59 0.59,1.37 1.79,2.08 2.01,1.16 1.25,-0.17 0.54,0.6 0.68,-0.14 -0.14,2.86 0.34,0.79 -0.4,1.15 0.58,0.56 0.04,0.6 -3.12,-0.12 -0.65,1.32 -1.65,1.3 0.58,0.94 0.14,0.96 1.19,1.34 1.02,-0.02 0.11,1.1 -0.35,0.65 1.19,1.25 0.17,1.81 -0.47,0.49 -1.18,0.4 -2.42,2.27 -0.18,0.61 0.39,0.88 0.54,0.4 -1.57,1.38 -0.87,0.01 -0.46,0.36 -1.09,-0.22 0.08,-1.2 -0.61,-0.11 -0.11,-0.69 -1.01,-0.13 -1.07,0.52 -0.18,-2.08 -2.94,-0.83 -1.29,-1.6 -0.03,-0.73 -0.79,-0.97 0.03,-0.85 0.9,-0.01 -0.03,-0.44 -1.29,-0.17 -0.69,0.32 -0.95,-0.49 -0.81,0.8 -0.18,0.59 -0.99,-0.2 -1.53,0.75 -0.57,1.71 1.08,2.16 0.18,1.89 -0.46,0.84 -1.24,0.68 -1.3,1.76 -2.71,0.69 -0.59,0.54 -1.07,2.4 -0.92,0.2 -1.9,1.58 -0.09,0.58 0.59,0.37 -1.22,1.46 -0.02,0.8 -1.86,-0.1 0.43,1.39 -0.41,1.36 0.36,1.08 0.59,0.36 0.17,0.96 -0.32,0.33 -0.65,-0.16 -0.53,0.85 -0.47,-0.03 -0.34,-0.79 -1.48,-0.84 -0.17,-0.73 0.32,-0.45 -0.57,-0.6 0.26,-0.76 -0.55,-0.48 0.08,-0.53 -1.43,-0.3 -0.38,-0.34 -0.26,-1.14 0.55,-1.1 -0.81,-0.81 -0.92,0.39 -0.75,-0.39 -0.97,0.22 -0.26,1.1 -0.72,0.47 -0.46,2.1 -1.48,0.34 -0.66,-0.14 -0.51,0.62 -1.66,0.08 -0.44,-0.76 -6.09,-0.23 -4.15,10.01 1.99,1.07 -0.2,0.67 -0.83,0.45 -0.1,0.59 0.28,0.45 2.08,0.13 -0.31,2.76 0.97,0.14 0.13,0.29 -0.3,0.91 0.18,0.94 -2.53,0.33 0.12,2.19 -0.76,-0.06 -0.1,1.23 -0.82,0.83 -0.4,-0.48 -0.89,-0.12 -0.28,0.99 -0.92,0.11 -0.28,1.76 -1.31,1.21 0.11,1.25 -0.3,0.42 0.69,0.59 -0.14,2.28 0.67,1.2 -1.81,0.82 0.37,1.13 -0.62,2.48 0.52,0.58 0.09,0.89 -1.24,3.33 0.05,0.63 -3.16,-0.37 -0.87,1.59 -1.39,0.25 -0.68,0.9 -0.12,1.29 0.81,0.15 0.54,0.81 1.48,1.06 0.04,0.71 0.77,0.46 1.04,1.85 0.66,0.41 0.72,1.14 1.65,0.39 0,0 -0.23,0.94 -1.93,0.7 -1.3,-0.63 -0.18,0.64 -0.67,0.16 -0.43,0.62 -1.42,-0.38 -0.76,0.28 -0.25,-0.38 -2.44,1.35 -1.36,-0.76 -1.08,0.87 -0.07,-0.22 -2.16,0.25 -0.72,0.63 0.59,0.55 0,0.43 -0.55,0.42 -0.74,3.35 -1.56,0.19 -0.82,0.43 -1.06,2.39 -0.58,0.33 -0.05,0.88 -1.1,1.07 -0.02,1.22 -0.77,0.57 -0.3,1.51 -1.29,0.25 -0.65,0.46 -3.57,3.41 -1.3,-0.07 -1.84,0.71 -0.95,-0.22 -2.18,0.64 -0.73,-0.2 -0.72,-0.94 -1,0.26 -1.61,-0.66 -1.89,0.29 -0.42,-0.57 -0.56,-0.15 -1.35,0.58 -1.03,-2.09 -1.42,-1.21 0,0 1.78,-3.45 1.43,-1.4 0.69,-0.28 0.3,-0.69 1.46,-1.03 1.11,-1.43 0.08,-0.94 -0.41,-1.55 0.51,-0.37 0,0.3 0.25,-0.01 -0.15,-0.28 0.55,0.02 1.06,-0.62 1.3,-1.55 0.04,-0.76 -0.73,-1.14 -1.97,-0.81 -0.11,-1.11 -0.87,-1.83 -0.05,-0.71 0.99,-1.81 -0.01,-1.1 -1.52,-2.67 -0.66,-2.62 -2.18,-1.71 0.43,-2.04 -0.54,-0.59 -0.9,0.1 -0.22,-0.91 -1.62,0.42 0.18,-0.71 -0.34,-1.1 -1.48,-0.62 -0.24,-1.06 -0.48,0.58 -1.61,0.24 -1.77,1.04 -0.65,-0.69 -0.86,0.24 -0.4,0.81 -0.32,-0.33 -1.05,0.12 -0.38,-1.07 -0.79,-0.1 0.21,-0.6 -0.72,-0.66 -0.11,-1.31 -0.92,-0.73 -0.45,0.04 -0.89,-1.02 0,0 2.33,-2.89 1.67,-0.39 0.51,-0.7 1.14,-0.52 0.12,-0.93 -0.73,-0.34 -0.64,-1.73 0.06,-1 -1.01,-1.19 -0.31,-1.31 -1,-0.07 -0.4,-0.85 -1.12,0.02 -0.87,-1.32 0.12,-0.55 -0.83,-0.68 0.25,-0.75 0.66,-0.05 0.33,-0.34 0.1,-0.81 -0.52,-2.18 0,0 0.82,-1.93 -0.33,-0.72 -1.2,0.13 0.14,-0.54 1.14,-1.1 1.34,-3.07 1.51,-0.73 -0.3,-1.1 2.25,-0.72 0.16,-2.42 -0.13,-1.01 -0.83,-0.84 -0.64,-0.18 -1.52,0.25 -1.52,-0.72 -0.76,-0.95 -3.99,-0.84 -0.1,-0.94 -0.77,-1.26 -0.25,-3.58 2.77,-3.21 1.55,-2.38 2,-1.05 -0.13,-0.85 -1.37,-1.47 -0.12,-1.17 -0.19,-0.32 -1.05,0.05 -3.85,0.56 -1.24,-2.02 -1.51,-3.92 -2.42,-0.08 -0.14,-2.03 -0.33,-0.66 -0.82,-0.34 -4.56,-0.88 -3.27,0.23 -2.36,0.64 -6.44,0.17 -0.48,-1.55 0.57,-1.07 -0.01,-2.08 0.66,-0.58 0.57,-1.34 -3.07,-5.98 -0.84,-0.63 -0.19,-0.82 0,0 2.24,-1.66 7.86,-4.49 -0.06,-2 1.04,-0.83 1.19,-0.3 -0.35,-1.2 -1.87,-0.43 -1.81,-1.66 -1.35,-0.16 -1.87,-1.08 -1.35,-0.29 -0.57,-0.52 -1.23,-2.52 0.01,-2.9 0,0 0.51,-1.34 2.38,-2.8 0.3,-2.05 0.59,-1.4 1.69,-1.69 0.53,-1.33 1.12,-0.96 0.19,-1.3 0.4,-0.32 0.18,-0.79 -0.59,-1.5 0.38,-0.53 -0.16,-0.72 0.33,-1.79 -0.43,-0.26 -0.68,0.12 -0.79,-1.82 -1.4,-0.79 -0.21,-0.75 1.38,-1.43 0.3,-2.76 1.05,-0.59 1.32,-1.44 1.97,-1.45 0.03,-3.52 -0.54,-1.64 0.18,-0.62 -0.69,-1.48 0.74,-1.33 -0.77,-3.58 -0.68,-0.07 -0.2,-0.41 -0.91,-0.38 -1.5,1.08 -0.7,-0.12 -0.68,-0.8 -1.03,-0.36 0.6,-0.71 -0.18,-0.54 -2.59,0.49 -2.09,-0.21 -0.29,-0.43 0.48,-1.04 -0.79,-1.88 0.54,-1.19 1.71,-1.61 -0.76,-3.72 -0.96,-0.85 -1.68,-0.56 1.28,-0.76 -0.34,-0.81 -2.52,-1.74 -1.46,0.35 -0.88,-0.27 -0.44,-0.59 -0.24,-1.9 -0.97,-1.26 -0.24,-0.83 0.67,-0.7 0.02,-0.88 0.99,-0.7 -1.64,-3.33 -1.85,-2.23 -0.07,-0.81 0.79,-1.3 0.69,-0.55 0.27,-0.88 -0.81,-2.4 -1.15,-0.74 -0.13,-1.04 -6.36,-5.85 1.35,-1.61 -0.17,-2.06 0.58,-1.2 -0.05,-0.69 -1.99,-2.03 -0.3,-1.92 -1.01,-0.75 -1.21,-2.54 0.3,-0.34 0.71,0.03 1.29,-0.52 0.98,0.44 1.2,-0.4 0.1,-2.73 1.01,-1.23 0.23,-1.64 1.19,-0.85 0,0 0.15,-3.04 0,0 -0.43,-2.61 1.6,-1.08 -0.12,-1.1 -0.33,-0.99 -1.73,-1.75 -0.51,-2.69 -0.98,-1.88 0.79,-0.99 -0.5,-0.96 -1.43,-0.14 -2.34,-0.87 -0.14,-0.74 1.08,-1.51 0,-1.1 -2.04,-1.5 -0.51,0.86 0.15,1.25 -0.23,0.95 -0.61,0.64 -0.73,0.17 -0.96,-0.26 -1.69,1.04 -0.88,-0.08 -2.34,-1.8 -0.94,0.11 -1.87,-0.78 -2.2,0.19 -0.85,-0.47 -0.78,-1.37 -0.55,-0.12 -1.35,-4.51 -2.84,-0.62 0.25,-1.75 -0.84,-1.6 -0.26,-1.18 1.53,-1.51 1.41,-2.3 0.07,-1.44 0.32,-0.49 0.5,0.12 0.56,0.22 0.12,0.59 1.08,-2.11 3.55,-3.53 0.05,-0.71 0.86,-0.43 1.56,0.03 1.18,0.93 0.82,0.08 0.33,-0.57 -0.12,-0.42 -1.09,-1.25 1.19,-3.29 -1.25,-1.4 0.62,-2.19 -0.77,-1.65 -0.21,-2.8 -0.55,-1.04 -2.44,-0.75 -2.49,-1.21 -2.47,-3.4 -0.84,-0.07 -0.64,-0.57 -0.51,-2.33 0.17,-0.84 0.59,-0.26 0.23,-0.76 -0.14,-2.2 2.86,-0.08 1.36,-0.66 0.96,-1.44 0.59,-3.01 1.56,-0.52 0.2,-0.53 -0.45,-1.18 -2.28,-1.66 -1.4,-0.45 -0.71,-0.88 -2.16,0.37 -1.63,-0.25 -2.09,-1.57 -2.16,-2.24 0.12,-1.33 -1.36,-2.52 0,0 4.8,0.24 1.94,0.41 3.08,3.24 1.01,0.62 -0.2,0.6 0.58,-0.47 3.67,1.77 0.81,2.17 0.94,0.15 0.68,1.32 2.15,2.42 0.6,2.1 2.4,1.43 1.32,0.17 2.82,-0.43 3.35,-1.41 0.98,-0.11 0.66,0.02 0.57,0.85 1.47,0.28 0.53,0.74 0.07,0.71 -0.97,1.89 -1.38,0.86 0.17,2.83 -1.99,0.88 -3.44,2.52 0.59,4.14 -0.93,1.42 0.59,0.52 -0.15,0.77 -0.13,-0.42 -0.12,0.32 1.39,4.49 -1.1,1.28 -0.29,1.65 -0.96,0.92 0.54,1.34 -0.05,0.66 -0.58,1.1 -1.15,0.72 0.08,0.51 -0.5,0.51 0.45,-0.14 0.11,0.94 -0.88,1.83 0.35,0 0.66,-1.83 0.08,-1.84 0.66,-0.21 0.74,-1.29 -0.02,1.52 0.21,-0.03 0.03,0.73 0.54,0.37 0.08,0.74 -0.2,0.31 -0.08,-0.22 -1.18,-0.01 -0.35,0.27 1.19,-0.07 0.33,0.27 0.79,1.35 0.15,0.91 -0.76,0.41 -0.4,0.64 0.05,1.36 0.23,0.14 -0.1,-1.52 0.47,-0.64 0.65,-0.26 0.25,0.39 0.3,-0.62 1.48,0.54 2.39,2.55 -0.37,0.88 -1.29,-0.17 -0.53,-0.54 0.05,0.32 0.49,0.37 1.35,0.19 1.3,0.75 0.4,0.92 1.6,1.79 0.65,1.78 2.45,0.06 -0.08,0.36 0.12,-0.59 0.7,0.02 1.54,3.2 0.81,0.43 0.88,-0.27 1,-0.95 -0.25,-0.4 -0.8,0.41 -0.34,-1.55 -2.06,-0.57 -1.1,-1.67 0.14,-0.16 0.37,0.47 -0.16,-0.44 -1.23,-0.54 -0.64,-0.81 -0.96,-1.8 -0.28,-1.28 -0.65,-0.72 -2.08,-0.62 0.25,-1.38 -1.4,-3.12 0.41,-0.97 0.02,0.25 1.14,0.45 0.91,-0.05 1.15,-0.71 0.41,0.6 -0.08,-0.7 0.42,-0.19 1.34,-2.2 -0.34,-0.93 0.28,-0.38 -0.45,0.12 0.42,-0.41 -0.06,-0.45 -0.58,-0.85 -1.15,-5.26 0.06,-0.83 -0.78,-2.75 -0.78,-1.15 -0.62,-0.13 -0.46,-1.3 0.59,0.31 0.18,-0.73 -0.81,-2.34 1.22,-1.35 0.78,-3.96 0.85,-0.53 0.49,-0.82 0.34,-1.36 -0.12,-0.82 -1.1,-1.71 -0.73,-0.61 0.28,-1.18 -0.94,-1.29 -0.91,-0.55 -2.71,-0.49 -0.31,-0.3 -0.4,0.24 -0.04,0.5 -1.31,-3.83 -1.81,-1.51 0.15,-0.28 0.52,0.37 0.87,-1.05 -0.38,-0.1 0.13,-0.35 -0.33,-0.16 -0.86,-2 -2.57,-1.33 0.37,-0.85 -0.59,0.61 -1.3,-0.25 -0.39,-0.38 -0.85,0.24 -0.24,-0.37 -1.4,0.03 -2.07,-1.53 -0.64,-0.15 -0.44,-0.58 -0.63,-1.61 0.14,-0.51 0.51,-0.23 -0.25,-0.79 0.77,-0.91 -0.42,-0.5 -0.84,0.53 -0.4,-0.27 -0.15,-1.41 0.08,-1.14 1.43,-1.61 -0.28,0.05 -0.22,-0.61 0.43,-2.51 -0.61,-1.98 0.1,-0.48 -0.83,-0.82 -1.31,-0.59 0.81,-0.34 -0.11,-0.94 -1.47,-0.47 -0.17,-0.71 -0.54,0.28 0.63,-0.53 1.4,0.15 -0.04,-0.54 0.61,0.44 0.96,-0.24 -0.81,-0.33 -0.29,-0.6 0.28,-0.08 -1.26,-1.1 -0.5,0.23 -0.71,-0.51 0.7,-1.59 0.42,0.27 0.45,-0.29 -0.17,-0.53 0.75,-0.36 0.62,-1.02 -0.6,-0.07 0.12,-0.67 0.32,-0.21 -0.18,-0.51 -0.51,0.2 -0.07,0.63 -0.21,-0.03 -0.1,-0.73 -0.41,-0.41 0.47,-0.66 -0.28,-0.39 1.65,-0.42 0.71,0.66 0.44,-0.03 -0.01,-0.51 1.31,-0.16 -0.09,-0.28 1.65,0.17 0.57,-0.27 0.06,-0.45 3.6,-0.85 3.17,-0.33 0.48,0.53 0.08,0.63 0.18,-0.31 -0.37,-0.87 7.67,0.17 6.61,-1.78 2.6,-1.18 1.3,0.29 1.11,0.92 1.61,0.14 1.32,-0.41 0.08,-1.46 1.18,-1.06 1.76,-0.08 1.28,-1.02 3.18,-0.59 0.3,0.34 1.3,-0.63 0.14,0.29 0.7,-0.1 0.36,0.47 1.15,0.42 0.8,-0.65 -0.32,0 -0.31,-1.62 -0.37,-0.8 -0.81,-0.43 -0.28,-1.07 1.15,-0.58 1.69,0.03 -0.05,-0.4 1.01,-0.41 -4.04,0.59 -0.54,-0.65 0.29,-0.54 -1.08,-0.57 0.57,-1.33 -0.76,-1.52 -0.5,-0.39 -1.31,-0.08 -0.81,-0.75 -1.14,0.15 -1.37,-0.62 -0.51,-0.81 0.06,-0.94 0.45,-0.83 0.96,-0.15 0.27,0.42 0.24,-0.28 0.96,1.91 0.18,-0.69 -0.34,-1.43 -1.52,-0.75 1.11,-0.19 0.09,-0.24 0.49,0.29 0.02,-0.54 0.38,-0.34 0.29,0.3 0.42,-0.57 0.67,-0.03 1.09,1.25 -0.33,0.7 0.55,-0.31 0.46,0.87 0.18,-0.54 1.16,0 -0.18,0.9 -1.59,1.43 0.81,0.4 0.16,-0.9 0.88,-0.49 -0.16,0.8 0.33,0.45 -0.35,0.72 0.3,0.15 0.4,-0.42 0.08,-0.94 -0.53,-1.35 0.17,-0.34 1.33,0.86 1.11,-0.13 0.02,-0.72 -0.52,-0.24 0.13,-1.17 -0.4,0.07 0.39,1.86 -0.41,0.24 -1.56,-1.39 0.47,-1.15 0.52,-0.21 -0.37,-0.29 0.02,-0.46 -0.69,1.43 -1.37,0.34 -0.57,-0.17 -0.04,-0.33 0.35,-0.2 -0.78,-0.16 0.2,-0.92 -0.31,0.16 -0.31,-0.74 -0.49,0.14 0.04,-0.54 1.37,-0.88 -1.64,0.1 -0.34,-0.26 0.07,-0.36 -0.99,-0.26 0.27,-0.77 -0.85,-0.13 -0.05,0.28 -0.64,-0.08 0.03,-0.26 -1.19,0.04 -0.2,-0.4 -0.29,0.51 -0.44,-0.19 -0.86,0.52 0.66,-0.76 -0.86,-0.57 0.96,-0.79 -0.46,-0.53 0.11,-0.51 0.87,-0.51 0.63,0.51 0.28,-1.32 0.35,0.15 0.2,-0.3 -0.9,-0.69 -0.16,-0.87 0.77,-0.09 0.34,1.06 0.55,-0.68 0.03,0.47 1.06,0.69 0.03,0.59 -0.77,-0.26 -0.34,0.35 0.49,0.43 0.34,1.04 0.49,-0.87 0.58,-0.12 0.3,0.3 -0.19,0.64 0.84,-0.52 -0.06,1.14 -0.5,0.46 0.98,-0.21 0.29,0.35 -0.39,0.37 0.02,0.85 0.72,-0.44 1.25,0.78 -0.67,-1.1 0.18,-0.72 0.41,-0.25 -0.25,-0.23 -0.9,0.13 -0.3,-0.67 0.51,-0.48 -0.23,-0.21 0.5,-0.12 -0.22,-0.27 0.24,-0.36 0.42,0.38 0.49,-0.04 0.59,0.63 -0.18,-0.69 0.47,-0.67 -0.59,0.03 0.33,-2.34 0.67,-0.01 -0.25,-0.41 1.85,-2.08 -0.66,0.1 -0.75,-1.14 0.35,-0.33 1.27,-0.16 0.44,0.71 -0.47,0.58 0.64,0.08 0.4,0.47 0.43,-0.99 0.64,-0.04 0.26,-0.69 -0.13,-0.94 -2.05,-0.17 -0.39,0.3 -2.2,-1.49 -1.08,-0.08 -0.02,0.73 -0.48,-1.26 0.71,-0.84 1.78,-0.46 5.28,1.13 0.93,-0.25 0.74,-0.72 -0.03,0.39 0.5,-0.18 0.68,-0.44 -0.1,-0.48 0.4,-0.02 -0.67,-0.52 1.69,-2.59 0.55,0.29 0.32,0.94 0.42,0.06 -0.76,-1.37 0.08,-0.97 1.12,-0.63 1.35,0.22 -0.52,-0.49 0.13,-0.29 -0.53,0.34 -0.46,-0.16 0.79,-0.87 1.52,-0.32 0.23,1.11 -0.22,0.24 1.02,-0.1 -0.64,-0.22 -0.45,-1.49 -1.15,0.17 -0.79,0.47 -0.44,-0.18 2.46,-1.28 0.34,0.11 1.23,-2.11 1.11,0.07 0.49,0.58 -1.42,-0.3 -0.11,1.06 1.12,0.26 -0.34,0.61 0.52,0.17 0.65,-0.6 0.23,0.28 0.98,0.08 -0.38,-0.76 0.12,-0.73 1.38,-0.38 0.76,0.14 0.19,-0.38 0.31,0.18 -0.95,-1.1 0.08,-0.28 1.17,-0.73 0.68,-0.03 0.47,-0.64 1.23,0.44 1.13,-0.85 0.41,0.22 0.31,-0.4 -0.2,-0.37 1.14,-0.4 0.6,-0.56 -0.1,0.75 0.5,0.98 1.11,-1.42 0.78,-0.51 -0.29,0.91 0.25,0.4 0.78,-0.01 1,-0.96 0.41,0.67 0.99,0.35 -0.37,-1.81 0.43,-0.38 0.03,-0.87 0.82,0.15 -0.27,0.54 1.69,-0.49 -0.05,0.43 0.45,0.25 0.38,-1 2.15,-0.06 -0.05,-0.73 0.52,-0.5 0.95,0.2 0.28,-0.3 2.34,-0.43 1.07,-0.7 0.81,0.15 1.03,-0.28 2.15,-1.27 0.97,-0.15 2.43,-1.6 -0.14,-0.92 -0.3,0.84 -3.15,1.33 -0.47,-0.31 -0.29,-1.39 -0.45,0.9 0.36,0.87 -0.42,0.32 -1.13,-1.75 -0.46,-0.17 0.29,-1.06 0.39,-0.27 -0.56,-0.06 -0.28,0.63 -0.87,0.25 -1.1,0.87 1.4,0.85 -0.82,0.3 -0.77,-0.32 -0.55,0.28 0.48,-0.94 -0.37,-0.35 0.01,-0.77 -0.48,-0.13 1.17,-0.87 -0.06,-1.26 -0.34,-0.44 1.06,-0.53 -0.23,0.92 0.52,0.41 -0.11,0.43 1,-0.62 0.31,-0.55 -0.31,-0.34 0.6,-0.5 -1.14,-0.55 0.62,-0.6 0.44,0.75 0.77,-0.76 0.56,0.47 -0.23,0.48 -0.73,0.42 0.51,0.29 0.21,0.57 -0.4,0.66 0.17,0.2 0.5,-0.06 0.46,-0.56 0,-0.82 0.3,0.49 1.08,-0.75 0.23,0.49 1.72,0.09 -0.35,-0.5 -0.66,-0.23 -0.19,-0.5 -1,-0.13 -0.26,-0.49 0.23,-0.28 1.57,0.29 0.95,-0.18 0.2,-0.35 0.7,0.83 0.82,-0.74 0.78,-0.14 -0.16,0.61 0.61,0.28 0.02,0.86 0.59,-0.33 0.73,0.06 -0.41,-0.83 0.66,-0.24 0.72,0.23 -0.32,-0.41 0.33,-0.4 -1.75,0.02 -0.11,-0.42 0.47,-0.22 1.87,0.04 0.58,1.2 0.92,0.53 0.87,-0.73 0.65,0.5 1.12,-1.74 0.34,0.34 1.05,0.11 0.17,0.37 1.39,-0.11 1.61,1.21 0.39,-0.27 0.06,0.33 0.89,0.33 -0.68,0.51 -0.34,-0.37 -0.81,0.74 0.3,0.43 0.65,0.05 -2.23,3.33 -1.54,1.55 0.71,1.29 0.32,-0.14 0.65,-1.7 1.85,-1.92 0.54,0.74 0.52,-0.46 0.66,0.18 0.21,-0.26 -0.28,-0.1 0.12,-0.51 -0.49,-0.22 0.86,-0.29 0.22,-0.47 0.93,-0.02 -0.36,0.93 1.12,-0.2 0.27,0.25 -0.28,0.8 -1.72,2.34 0.26,0.17 1.13,-0.57 0.51,-0.61 0.71,0.45 0.22,-0.64 0.92,-0.6 0.2,-1.06 0.32,0 1.9,-1.8 0.7,0.06 -1.4,0.96 -0.16,0.35 0.67,0.73 -0.68,0.54 0.03,0.28 0.93,-0.01 0.31,-1.31 0.69,-0.19 0.28,-0.43 0.52,-0.1 1.14,0.83 0.32,-0.36 0.71,0.18 -0.51,-1.5 -0.9,0.03 -0.66,-0.59 1.81,-1.34 0.27,0.07 -0.13,0.45 0.6,0.14 -0.16,0.34 0.25,0.32 0.78,-0.46 0.22,0.2 0.39,-0.65 0.63,0.14 0.18,-0.6 -0.85,-0.06 -0.23,-0.47 -0.34,0.34 -0.55,-0.33 0,-0.37 0.52,-0.43 0.55,0.13 -0.07,-0.33 0.62,-0.56 1.67,-0.26 1.79,-1.88 1.25,-0.8 0.3,0.24 -0.58,1.49 1.01,0.1 0.15,-0.63 1.05,0.42 1.55,0.1 0.11,0.46 -1.09,1.18 0.06,0.27 0.37,0.45 1.41,-0.13 1.05,-0.78 -0.18,1.13 -0.99,0.58 0.13,0.25 1.11,0.06 0.27,-0.81 0.83,-0.68 -0.08,-0.59 -1.03,-1.17 -0.29,-1.45 -1.33,-1.04 -0.02,-0.67 -0.56,-0.98 -1.51,-0.21 -0.52,-2.23 -1.01,-1.49 0.08,-0.64 0.36,-0.46 0.55,-0.04 3.29,1.63 1.71,0.1 2.42,-0.65 1.48,0.09 0.38,0.4 3.66,-1.41 0.71,-0.75 0.41,0 0.14,-0.54 0.82,-0.43 0.52,-3.85 0.61,-0.23 0.27,-0.77 -0.22,-0.98 -1.71,-0.86 -0.72,-2.57 0.95,-3.66 0.74,0.08 0.07,0.44 0.35,-0.03 0.38,-0.71 0.35,-0.03 -0.06,-1.56 0.56,-0.69 -0.49,-0.01 0.1,-0.47 -0.57,0.22 0.95,-1.96 2.29,-3.36 0.68,-1.48 2.04,-2.43 0.23,-0.98 0.6,-0.04 1.27,0.91 -0.66,-1.4 0.79,-0.42 0.72,0.13 -0.37,-0.15 0,-0.61 1.69,-2.83 -0.06,-0.38 0.5,-0.39 0.35,0.13 -0.1,-0.3 1.71,-0.95 0.3,-0.51 -0.12,-0.38 0.35,0.13 1.04,-2.07 1.09,-0.31 0.14,0.98 1.63,-0.28 3.21,-3.51 0.41,0.42 0.75,-0.59 0.44,0.44 0.12,0.69 -0.43,0.39 0.91,0.95 1.68,-1.13 0.54,-0.07 0.62,0.37 0.01,1.21 0.37,0.22 -0.29,0.48 1.19,1.64 0.56,-0.56 2.09,1.51 1.04,0.22 0.73,-0.11 0.51,-0.55 1.74,0.02 -0.29,0.38 0.54,1.3 -0.12,1.18 0.37,1.12 0.35,0.17 -0.14,0.51 1.2,0.86 0.03,0.57 0.81,0.06 -0.48,0.71 -0.66,0.19 -0.5,-0.5 -1.59,-0.47 -0.55,0.46 -1.82,0.29 0.05,0.68 0.4,-0.22 0.07,-0.45 1.57,-0.26 0.14,0.2 -1.65,2.26 -0.5,-0.26 -0.26,0.52 -0.36,-0.11 -1.26,0.77 0.85,-0.41 1.47,-0.08 0.14,0.61 -0.97,1.44 -3.77,2.02 -0.81,-0.33 -0.82,0.12 -1.28,1.33 -1.2,0.06 -0.97,1 0.56,0.39 0.96,0.07 0.57,-0.4 1.3,0.11 0.42,-0.74 0.68,1.04 1.51,0.5 0.99,-1.01 0.52,0.52 0.67,0.08 1.77,-0.98 1.14,0.22 1.01,-1.2 -0.42,0.9 0.07,1.23 -0.94,0.79 0.4,0.55 -0.83,0.23 -0.79,-0.28 -0.75,0.48 0.08,0.37 0.45,-0.26 0.54,1.06 0.62,-0.15 0.34,-0.47 1.12,-0.01 2.03,-2.14 1.66,0.43 0.46,1.28 0.37,-0.06 0.5,-0.75 0.44,1.08 0.64,-0.27 -0.69,-0.29 0.16,-0.52 0.6,-0.01 -0.24,-0.69 0.8,0.01 0.76,0.8 -0.15,0.4 0.97,-0.08 -0.52,0.64 0.17,0.16 2.21,-0.58 -0.69,0.52 0.79,0.76 -0.1,0.7 0.37,0.54 1.06,0.48 -0.26,0.51 -1.84,0.47 1.1,0.55 -1.15,0.88 0.02,0.41 0.53,-0.39 0.12,0.21 -0.56,0.93 -1.43,0.42 -0.04,1.53 -0.48,0.14 -0.46,0.76 -0.93,-0.23 0.09,1.2 0.41,0.17 0.01,0.31 -0.47,0.93 0.05,0.93 -0.46,0.58 0.15,0.54 -0.67,1.03 -0.37,-0.25 -0.35,-1.17 -0.85,0.32 0.66,1.06 -0.43,0.58 0.7,0.85 0.3,-0.04 -0.08,0.43 1.02,-0.29 0.34,-0.4 0.66,1.4 0.16,-1.34 1,0.09 2.28,-0.89 0.81,0.1 1.15,0.79 0.53,-0.05 1.3,-1 0.84,-1.44 0.19,-1.66 -0.42,-1.02 -0.03,-1.9 0.44,-0.43 1.47,0.13 -0.14,-0.42 0.47,-0.23 1.35,0.94 1.51,0.43 1.85,-0.46 1.15,-0.89 1.12,0.13 1.41,-0.99 0.42,0.19 -0.34,0.36 1.65,0.15 1.05,1.18 0.84,0.17 -0.15,0.39 0.99,-0.62 0.21,1.21 0.21,-1.1 2.07,-1.3 1.66,-0.46 0.66,0.1 -0.06,0.69 1.44,0.34 0.85,-0.16 -0.28,-0.31 1.24,-0.72 0.78,0.47 -0.68,1.04 0.4,0.31 -0.11,0.76 0.66,-0.43 1.86,0.45 0.25,-0.41 1.27,0.74 0.1,0.59 -1.25,-1.03 0.25,0.5 -0.66,1.48 0.85,-0.03 -0.62,0.5 0.97,-0.04 1.39,1.06 0.58,0.64 0.16,1.06 0.81,0.51 0.6,1.85 0.49,0.42 0.41,-0.52 0.23,0.71 1.48,1.53 0.67,1.16 0.84,0.56 -0.51,0.79 -0.04,2.76 -0.45,-0.04 -0.76,-0.9 -0.69,0.09 0.71,0.85 -0.17,0.37 0.74,0.19 -0.25,0.36 0.77,-0.02 -0.06,-0.33 0.58,-0.16 -0.08,0.78 0.44,1.05 0.15,0.98 -0.3,0.61 -0.9,0.59 -0.59,-0.14 -0.14,0.32 0.93,0.02 -0.17,0.22 0.41,0.09 0.03,-0.54 0.8,0.31 0.37,0.57 -0.17,-1.01 1.1,-0.47 -0.09,-0.82 -0.39,-0.31 0.36,-0.76 0.52,-0.16 0.35,0.31 0.04,-0.42 0.48,0.08 0.77,0.82 -1.31,-1.87 -1.09,-0.26 -0.39,-1.22 0.26,-0.3 1.39,0.24 0.13,-0.55 0.56,0 0.39,1.01 -0.32,0.21 0.77,0.44 0.38,1.07 0.3,1.69 -0.24,0.65 0.56,1.92 0.22,2.71 -0.3,0.45 0.38,0.68 -0.11,0.36 0.34,0.48 -0.34,-1.71 0.39,-0.3 0.49,0.28 0.46,-0.75 0.52,0.81 0.23,-0.3 0.27,0.53 z m -260.56,-122.65 0.28,1.15 -0.62,0.48 -5.29,0.3 -0.57,-0.55 -0.21,-1.89 -0.83,0.39 -0.46,-0.3 -0.47,0.48 -0.86,-0.73 -1.31,-2.38 -0.02,-1.550002 0.4,-0.44 0.61,0.11 1,0.710002 -0.09,0.41 -0.47,-0.08 -0.11,0.25 0.66,0.51 0.87,-0.89 0.99,0.21 5.09,3.47 1.41,0.34 z m 14.29,206.8 -0.22,0.78 -0.65,-0.05 -0.54,0.39 -0.9,-0.44 -1.39,-0.04 -1.26,-0.48 -0.35,-0.67 -1.37,-0.9 -0.04,-1.27 2.5,-3.37 0.8,-1.79 0.86,-0.75 0.75,0.11 -0.97,0.27 1.44,1.69 0.99,2.27 -0.02,0.3 -0.33,-0.08 0.51,2.39 -0.25,0.45 0.44,1.19 z m -5.71,-261.710002 -0.71,-0.26 -0.4,-0.67 0.4,-1.64 1.48,-2.67 2.66,-1.14 1.35,0.1 2.76,1.1 0.87,0.94 0.05,1.29 -0.34,0.62 -2.62,1.85 -4.21,0.58 -1.29,-0.1 z m 26.09,319.930002 -0.49,-1.39 0.66,1.2 -0.17,0.19 z m 138.2,-253.81 -0.14,0.38 -0.13,-0.45 0.27,0.07 z m -10.98,30.42 0.57,-0.4 0.46,-1.11 0.02,-0.77 -0.38,-0.23 0.55,-0.89 0.19,-1.79 2.2,-1.53 -1.53,0 -0.32,-0.28 0.3,-2.03 2.02,-4.82 0.3,0.03 0.47,1.01 2.6,1.07 0.69,0 -2.19,-1.6 -0.31,-1.16 0.31,-0.37 -0.75,-0.72 1.47,-5.78 0.45,-0.27 2.15,1.62 1.26,0.5 0.38,-0.16 -1.77,-1.26 -0.55,-0.66 0.2,-0.57 -0.43,0.25 -1.38,-0.84 0.34,-1.48 0.81,-1.02 1.62,-0.08 -1.58,-0.83 0.74,-2.98 0.89,-0.52 0.8,0.44 -0.12,-0.45 0.65,0.13 0.23,-0.25 -0.1,-0.98 -0.51,-0.74 -0.06,-1.45 0.47,-1 0.34,0.11 0.38,-0.57 0.8,-0.13 0.91,3.99 -0.19,0.54 2.13,0.99 0.15,0.58 -0.69,-5.85 0.69,-2.48 1.08,-0.49 0.51,0.83 2.55,1.19 0.4,1.47 0.42,-0.13 -0.2,0.74 0.53,-0.23 -0.07,0.76 0.56,-0.34 0.4,0.48 -0.73,1.68 -0.29,-0.15 -0.7,1.58 -0.42,0.11 0.25,0.25 -0.77,2.81 0.28,0.85 -0.84,1.94 0,3.5 0.23,0.15 -0.43,1.52 -1.12,0.97 0.18,0.22 -0.4,0.36 -0.06,1.24 -0.75,2.01 0.71,-0.25 0.26,0.2 0.94,-1.85 0.42,0.3 0.23,-0.28 -0.3,-0.14 -0.05,-1.21 0.56,-0.13 -0.03,-0.68 1.28,-4.15 0.04,-1.34 1.01,1.06 -0.12,-0.51 0.28,-0.33 1.59,-0.96 0.12,-1.11 0.39,0.2 0.5,-0.39 0.18,-1.91 0.35,-0.78 0.24,-0.09 -0.01,0.63 0.38,-0.49 0.05,0.22 -0.14,2.57 0.44,-1.34 0.73,-0.24 -0.05,-0.74 0.41,-0.48 -0.02,1.52 1.21,0.05 0.17,0.26 0.01,1.64 -0.52,0.73 0.75,1.28 -0.19,1.12 0.4,0.18 0.58,-0.43 1,0.42 1.24,2.17 -0.08,1.94 0.47,0.01 -0.13,0.39 0.51,-0.47 0.53,0.36 -1.32,0.81 -2.7,-0.68 -0.35,0.33 0.73,0 0.83,0.6 0.4,-0.18 0.89,0.23 1.21,0.79 0.11,1.18 -0.37,0.4 -0.21,1.29 1.56,-2.88 -0.46,-0.18 0.05,-0.36 0.79,-0.71 1.33,0.73 1.17,1.18 0.78,2.62 -0.49,-0.09 -0.03,0.54 0.6,0.38 -0.12,1.69 0.59,4.16 -0.37,1.67 -1.29,2.91 -2.19,3.5 -0.52,0.3 0.05,-0.43 -0.52,-0.35 -1.53,0.57 -2,-0.05 -2.38,2.06 -1,0.18 -0.15,0.38 -1.51,-0.15 -1.27,0.53 -0.54,0.59 -1.33,-0.33 -0.89,0.64 0.18,0.77 -1.4,1.12 -0.04,-0.57 0.48,-0.28 -0.57,-0.64 0.13,-0.84 -1.63,0.15 -0.53,0.33 -1.05,-0.14 -1.54,0.94 -0.54,-0.54 0.69,-0.75 -0.28,-0.59 -0.63,1.31 -1.88,0.33 -1.19,-0.33 -0.32,0.22 0.46,-0.87 -0.18,-0.1 -0.54,0.97 -1.72,0.63 -2.84,3.12 -1.8,0.98 -3.65,3.49 -1.3,-0.03 -0.06,-0.4 -0.95,0.13 -0.9,0.92 -0.6,-1.04 -0.13,-1.88 -0.52,-0.38 1.83,-5.46 0.58,-0.61 0.46,-1.36 1.97,-3.51 -0.17,-2.44 z m 2.46,-6.41 -0.15,0.44 -0.25,-0.03 0.02,-0.33 0.38,-0.08 z m 2.87,-8.22 -0.09,0.29 -0.26,-0.14 0.35,-0.15 z m 28.16,18.74 -0.08,-0.23 0.32,-0.06 -0.24,0.29 z m -9.64,-29.58 -0.19,0.21 0.1,-0.86 0.09,0.65 z m -26.71,42.08 0.16,-0.34 0.25,0.09 -0.41,0.25 z m -12.9,-81.740002 0.06,0.71 1.14,0.85 0.1,0.59 -1.53,1.58 0.6,1.93 -0.42,0.74 0.65,0.41 -0.4,1.39 -0.93,0.55 -1.06,1.53 -1.09,-0.31 -0.95,0.13 1.18,0.47 0.12,0.31 -4.13,2.12 -0.47,0.68 -1.15,0.08 -2.24,1.91 0.24,0.34 0.66,-0.33 0.5,0.14 1.52,-1.07 0.58,-0.03 0.27,0.83 0.13,-1 0.76,-0.54 0.13,-0.45 0.87,-0.6 3.33,-1.02 -0.07,1.6 -1.13,1.01 -1.4,0.5 -0.34,0.96 -0.76,0.43 -0.34,1.55 0.25,1.03 -0.33,0.710002 0.31,0.93 0.08,-3.190002 2.21,-1.99 1.02,-0.48 0.61,-0.99 0.78,0.5 -0.04,-1.85 0.55,0.01 0.38,-0.59 0.58,0.01 0.98,-0.59 0.49,0.07 -1.05,-3.36 0.41,-0.42 0.29,0.41 0.71,0.11 0.55,-0.87 0.01,-1.41 0.35,-0.23 -0.14,0.75 0.34,-0.31 0.32,0.19 -0.67,1.81 -0.04,1.15 0.44,-0.41 0.27,0.22 -0.15,-1.23 0.6,-1.75 0.06,-1.41 -0.62,-0.83 -0.14,-1.14 0.51,-0.85 1.25,-0.74 0.23,0.12 -0.46,0.96 0.56,0.54 0.5,-0.28 0.39,-0.83 0.28,0.12 0.1,0.62 0.87,-0.73 1.8,0.02 0.01,0.36 -1.06,0.71 0.05,0.41 1.61,-0.41 0.39,0.46 -0.75,0.59 -0.08,0.57 1.54,0.08 -0.45,0.41 1.11,0.15 0.22,0.43 -0.31,0.2 -0.25,1 0.21,0.09 0.34,-0.71 0.59,0.67 -0.19,0.59 0.73,-0.03 0.56,0.94 0.04,1.43 0.69,0.24 -0.1,0.55 0.36,-0.28 0.11,0.19 0.22,1.87 0.36,0.74 -0.42,0.89 -0.73,0.51 -0.76,-0.23 -0.15,0.22 0.14,0.27 0.3,-0.09 -0.05,0.51 0.37,0.21 0.09,1.05 -0.35,2.44 -0.48,-0.18 0.2,0.600002 -0.22,2.28 -0.61,0.7 0.49,0.25 0.5,1.7 -0.76,2.37 0.35,1.24 -0.36,1.74 0.31,1.01 -0.11,2.52 -0.22,0.22 -0.66,-0.39 0.16,0.6 -0.24,0.48 -0.61,0.27 0.29,0.55 -0.67,-0.75 0.17,-0.14 -1.69,-1.65 -0.62,-0.18 -0.35,0.37 0.09,0.71 1.17,1.96 2.71,2.87 -0.8,0.31 -0.2,0.86 2.29,1.08 0.26,1.46 -0.4,0.9 0.8,2.94 -0.11,0.52 -0.45,0.82 -1.55,1.14 -1.14,1.41 -0.41,1.21 -0.86,-0.21 -0.17,-0.32 -1.55,0.87 -3.75,-0.35 -0.67,0.9 -1.08,0.59 -0.52,-1.16 -0.39,-0.27 -0.55,0.18 -0.45,-0.85 -0.31,0.16 0.31,0.47 -0.6,-0.02 -0.41,-0.59 -0.54,-0.15 -1.89,0.8 -0.73,-0.77 -0.77,-0.2 -0.57,-1.26 0.1,-0.69 -0.61,0.28 -0.9,-0.19 -1.42,-1.86 -0.14,-1.96 -0.61,-0.49 -1.3,0.08 -0.48,0.34 -0.42,-0.39 0.37,-0.36 -0.68,0.45 -0.27,0.6 -1.2,-1.22 -1.02,1.25 -1.07,0.03 -0.66,-0.81 -1.38,0.35 -0.17,-1.62 0.3,-0.85 -0.13,-0.24 -0.55,0.34 -0.24,-1.62 -1.11,0.11 -0.77,1.2 -0.51,0.07 -1.08,1.3 -0.97,-0.35 0.43,-0.26 -0.09,-0.46 -0.56,0.47 -0.57,-0.16 -1.65,-2.76 0.27,-2.43 -2.35,-2.33 0.37,-0.23 -0.44,-0.22 0.19,-0.49 0.19,-0.16 0.04,0.26 0.2,-0.47 -0.47,-1.63 0.24,-1.05 -0.4,-2.53 0.46,-0.95 -0.19,-1.75 -0.55,-0.35 -1.32,0.15 -0.61,-0.32 -0.16,1.06 0.31,0.4 -0.34,0.79 -0.87,-0.43 0.06,0.36 -0.54,0.15 0.33,-1.1 -0.74,-0.53 0.73,-0.57 0.45,0.16 -0.21,-1.26 0.69,0.02 -1.19,-0.67 0.19,-0.4 -0.83,-0.3 -0.09,-0.32 -0.29,0.09 -0.13,-0.33 0.1,-0.31 0.85,-0.08 0.03,-0.56 0.64,-0.37 0.13,-1.490002 -1.14,0.640002 -0.29,0.87 0.3,0.72 -0.77,0.19 -1.31,1.73 -0.19,0.8 0.64,0.61 -0.92,1 0.57,0.19 0.04,0.28 -1.45,0.27 -0.6,-0.41 -0.23,-0.82 0.9,-0.43 -0.09,-0.49 0.53,0.08 -0.03,-1.14 -0.8,-0.32 -0.71,0.55 -0.48,-0.53 0.28,-0.51 -0.59,-0.61 -0.73,0.07 0.02,-0.61 0.67,0 0.22,0.45 2.01,0.85 0.17,-0.76 1.6,-2.13 0.83,-0.1 -0.25,-0.150002 0.85,-1.33 0.42,-1.56 1.88,-2.8 1.8,-0.52 2.52,0.42 0.09,-0.27 -0.96,-0.19 0.88,-0.85 -0.11,-0.79 -0.93,-0.49 -1.75,-2.19 0.03,-1.11 0.38,-0.15 0.39,-0.79 -0.41,-0.29 -0.16,-1.31 0.84,0.68 0.92,-0.76 1.23,0.48 -0.8,-0.91 0.46,-0.19 0.18,-1.74 1.39,-0.94 0.23,-1.64 0.33,0.08 0.12,0.68 0.58,0.28 -0.28,0.82 0.83,0.42 0.63,1.2 0.82,-1.27 0.01,-1.55 0.58,-0.61 1.08,0.32 0.78,-0.32 0.49,0.49 1.76,-0.4 0.56,0.62 0.38,-0.16 0.41,-0.84 0.6,0.56 0.9,0.1 0.89,-0.53 0.27,-1.02 0.93,0.67 2.35,-1.08 0.66,-0.79 3.54,0.1 0.34,0.81 1.59,1.54 z m -44.24,17.79 0.15,0.55 0.27,-0.1 -0.31,0.27 -3.24,-2.47 -0.43,-1.56 4.77,0.42 -0.7,0.58 1.31,0.85 0.68,-1.82 0.28,0.08 -0.1,-0.31 0.83,-0.03 0.21,0.56 0.54,0.09 0.25,-1.26 -0.35,-0.79 -1.21,-1.14 -1.24,-0.24 -0.59,0.55 -0.36,-0.4 -1.12,-0.34 -0.82,0.12 -2.29,-0.6 -0.49,-1.4 0.4,-0.73 0.42,0.16 0.63,-0.47 0.2,-0.62 -1.53,-1.95 0.83,-0.61 0.1,-1 -0.7,-0.25 -0.21,-1.34 -1.75,-1.13 3.66,-0.28 1.19,0.31 1.77,-0.5 0.39,0.83 0.52,0.36 1.61,0.35 1.78,-0.06 0.51,0.78 2.99,-0.2 2.53,1.11 2.12,2.36 1.14,0.37 0.58,0.53 -0.58,1.87 -0.67,0.68 0.23,0.46 -0.17,0.52 -1.44,1.06 -0.52,-0.17 0.46,-2.03 -1.26,1.85 -1.18,-0.64 0.97,0.94 0.75,-0.49 -0.16,0.64 0.7,0.39 -0.66,0.97 -0.71,0.36 -0.49,1.26 -0.75,0.76 -2.85,1.13 -1.76,0.27 -2.74,-0.45 -1.35,1.05 -1.04,-0.06 z m 35.76,-2.98 0.04,-0.3 0.21,0.43 -0.25,-0.13 z" 
                fill="rgb(151, 144, 238)" 
                stroke="white" 
                stroke-width=".7px"
                title="Красноярский край" 
                id="RU-KYA" 
            />
        </svg>