<svg xmlns="http://www.w3.org/2000/svg" viewBox="121.78010999999994 703.7208199999994 37.79000000000006 35.420000000000414" width="37.79000000000006" height="35.420000000000414">
            <path 
                d="m 159.57011,728.66082 -1.22,0.91 0.71,0.76 0.08,0.86 -0.6,1.31 -0.65,0 -0.56,1.08 -0.8,-0.15 -0.47,-0.84 -2.56,-0.7 -0.57,0.22 -0.06,1.5 -0.82,0.32 -0.68,1.79 -0.05,1.97 0,0 -0.38,-0.28 -0.65,0.43 -2.32,-0.67 -1.02,0.16 -0.68,1.81 -0.43,-0.13 -0.51,-0.99 -1.07,-0.69 -3.13,-3.7 -1.86,-1.53 -0.27,-0.65 -0.95,-0.35 -0.53,-0.84 -4.23,-1.36 -1.1,-1.33 0.12,-0.26 -0.58,0.09 -0.58,-0.64 0.07,-0.36 -0.8,-0.68 0.07,0.55 -0.53,0.3 -1.83,-0.45 -0.75,-0.65 -0.58,-1.33 0.13,-0.37 -0.56,-0.64 -2.4,-1.16 -1.2,-0.04 -0.99,-0.87 2.83,-0.94 0.03,-0.39 -1.42,0.24 -0.24,-0.74 0.26,0.22 0.39,-0.25 -0.66,-0.36 0.15,-0.28 0.51,-0.09 2.65,1.21 1.6,-0.14 0.69,-0.44 0.43,-0.9 0.06,-1.9 1.57,-0.94 1.01,-2.87 1,-0.21 -0.33,0.89 0.29,0.19 0.56,-1.7 0.42,-0.43 1.54,1.17 0.88,0.05 -0.09,-0.78 -1.59,-0.98 -1.47,-1.73 -1.02,-0.34 -0.06,0.47 -0.54,-0.45 -1.35,-2.91 0.68,0.43 1.28,0.12 2.09,-1.11 0.24,0.78 1.3,0.25 0.64,-0.25 -0.11,-0.6 -1.25,-0.3 0.12,-0.76 0.56,-0.57 0.34,0.25 0.81,-0.17 0,0 0.11,0.42 1.52,-0.03 -0.64,1.46 0,0.69 0.5,-0.59 1.5,0.12 0.72,-0.68 0.08,-0.67 1.39,-0.79 0.54,0.41 3.36,0.35 0.71,0.54 -0.49,1.73 1.5,0.67 0.43,0.98 -0.25,0.54 0.66,0.81 2.7,0 0.75,0.57 1.34,-0.51 0.2,1.34 0.78,0.52 0.68,1.31 0,0 -0.15,0.74 0.68,0.53 0.2,0.98 -0.55,0 -0.49,0.92 -0.76,-0.35 -1.12,0.22 -0.22,1.27 0.7,0.45 0.68,1.05 0.28,1.86 2.46,0.3 -0.02,0.89 0.89,1.23 1.4,0.75 0.08,1 -0.92,1.14 -0.78,0.3 0.54,0.94 2,1.45 z m -14.8,2.11 1.01,1.4 1.07,-0.59 -0.04,-1.25 -0.44,0 -0.33,-0.63 -0.5,0.02 -0.37,-0.38 0.25,-0.8 -0.39,-1.32 0.57,-0.54 -0.02,-0.74 0.95,-0.62 -0.67,-0.47 0.37,-0.39 -0.16,-0.56 -0.61,-0.22 0.22,-0.57 -1.21,-0.08 -0.65,-0.57 -0.64,1.99 -1.16,0.37 -1.89,-0.38 -1.11,0.12 -1.37,-0.57 -0.66,-0.69 -0.84,-0.14 -0.22,-0.44 0.44,-0.57 0.48,0.44 0.8,-0.14 1.03,0.64 1.66,-0.1 2.02,-0.9 1.08,-0.86 1.17,0.2 0.67,0.61 1.11,0.4 0.81,-0.4 1.14,0.07 1.44,1.2 2.25,5.05 -0.65,0.26 -0.92,-2.54 -0.49,-0.46 -0.7,0.06 -0.53,1.54 1.03,2.29 -0.6,1.71 0.47,1.84 -0.38,1.26 -1,0.86 -2.53,-1.55 -1.48,0.1 -0.6,-0.52 0.67,-0.31 -0.17,-0.54 0.54,-0.24 -0.58,-1.01 0,0 0.66,-0.34 z" 
                fill="rgb(151, 144, 238)" 
                stroke="white" 
                stroke-width=".7px"
                title="Краснодарский край" 
                id="RU-KDA" 
            />
        </svg>