<svg xmlns="http://www.w3.org/2000/svg" viewBox="303.60010999999963 587.41082 48.050000000000125 33.750000000000114" width="48.050000000000125" height="33.750000000000114">
            <path 
                d="m 304.14011,596.32082 0.08,-1.58 0.85,-0.57 1.71,-2.73 0.8,-0.59 0.34,0.02 0.65,1.08 0.7,-0.85 1.43,-0.84 1.27,0.66 1.27,-0.09 0.25,0.34 0.37,-0.59 0.78,-0.35 2.09,1.62 2.34,0.28 0.77,-0.27 -0.17,-1.15 1.06,-0.93 -0.06,-1.16 0.29,-0.27 0.49,0.1 1,-1.04 1.88,0.03 0.87,0.87 0,0 0.36,1.26 -0.16,1.65 1.11,1.91 -0.27,0.58 0.22,0.41 3.51,0.43 0.35,0.92 2.28,2.53 1.84,-0.83 1.59,1.68 1.43,-1.18 0.56,0.96 0.7,0.11 0.78,-0.52 0.43,0.72 1.65,0.03 1.01,2.74 1.5,0.36 1.2,-0.4 0.75,0.85 2.03,-0.51 0.37,1.45 3.16,3.1 0.05,1.44 0,0 -0.28,0.89 -3.16,0.02 0.18,0.75 0.61,0.73 -0.49,0.58 -0.13,0.8 -1.28,0.19 -1.11,-0.42 -0.53,0.43 -0.22,0.74 -0.9,0.37 -0.61,0.18 -1.71,-0.35 -0.24,0.57 -1.37,0.26 -0.3,0.32 -1.79,0.1 -0.45,0.51 -2.8,0.44 -2.33,0.88 -0.48,-0.16 -0.05,-1.01 -0.76,0.24 -0.61,1.11 -1.89,-0.58 -0.3,0.42 0.23,0.54 -0.89,-0.1 -1.12,0.69 0.15,2.25 -0.79,0.03 -0.96,-0.98 -1.6,0.75 -0.09,-0.57 -0.72,0.09 -0.81,0.51 -0.38,-0.09 -0.3,0.42 -2.55,0.14 -0.34,0.44 -0.25,-0.36 -0.25,0.44 -1.08,-0.04 -2.11,0.89 -0.99,0.1 0,0 -0.1,-0.8 -0.39,-0.03 -1.44,-1.27 0.31,-0.6 -0.24,-0.64 1.21,-0.77 -0.6,-2.3 -1.53,-0.1 -1.98,0.71 -1.31,-0.16 0.26,-0.52 -0.61,-0.38 -2.14,0.88 -1.01,-1.02 0.28,-0.65 -0.91,-2.15 0.04,-0.71 0.77,-0.21 0.5,0.55 0.37,-0.01 0.45,-1.18 -1.41,-2.45 1.1,-0.45 -0.35,-1.34 1.41,0.17 0.7,-0.26 0.65,-0.39 0.22,-0.83 -0.69,-0.19 0.56,-0.67 -0.38,-1.49 0.26,-0.39 -1.58,-1.53 0.32,-0.62 -0.9,-0.05 -0.28,-1.35 z" 
                fill="rgb(151, 144, 238)" 
                stroke="white" 
                stroke-width=".7px"
                title="Курганская область" 
                id="RU-KGN" 
            />
        </svg>