<svg xmlns="http://www.w3.org/2000/svg" viewBox="58.07010799999995 524.8908200000004 57.33000200000001 41.87999999999977" width="57.33000200000001" height="41.87999999999977">
            <path 
                d="m 64.530108,534.79082 -0.42,-0.12 -0.6,0.24 0.05,0.25 -0.53,-0.17 -0.07,0.87 -1.1,0.41 -0.02,0.89 -0.52,-0.42 -1.19,0.58 -1.49,-0.49 2.73,-3.52 0.48,-0.16 2.13,-2.52 0.86,0.11 0.46,-1.43 0.77,-1.16 0.84,-0.33 1.92,-1.64 0.77,-1.15 0,0 0.78,0.95 0.96,0.4 0.54,0.85 1.18,0 1,0.67 0.85,0.05 18.44,7.19 1.08,0.07 1.25,-1.68 0.61,0.14 0.63,-0.37 0.45,-1.32 1,-1.09 0.78,-0.4 0,-0.65 0.950002,0.11 1.27,0.84 0.26,-0.28 0.81,-2.01 -0.93,-0.42 -0.85,0.49 -1.090002,-0.85 -0.22,-0.61 2.170002,-1.19 2.55,0.32 0.58,-0.27 1.89,1.74 0.24,-1.36 2.13,-1.46 2.53,1.29 1.38,-0.84 -0.02,1.59 0.74,0.52 0.28,0.06 0.8,-1.01 0.52,0.55 0,0 0.26,1.02 -0.38,1.06 -0.98,0.82 0.04,0.49 0.54,0.43 -0.31,0.8 -0.45,0.53 -0.83,-0.4 -0.44,0.15 -0.82,1.06 0.67,1.53 0.33,1.81 -0.74,3.57 -0.55,0.77 -0.14,1.65 0.65,0.53 -0.02,0.57 -0.42,0.41 2.43,0.91 -0.5,0.6 -0.07,2.51 0.19,0.45 1.38,0.3 0.13,1.24 -0.84,-0.61 0.04,1.37 -1.01,1.24 0.59,0.68 -0.62,0.88 -0.23,1.03 -0.81,-0.01 -0.71,0.74 -0.62,-0.19 -0.34,0.57 -0.59,-0.67 -1.07,1.36 0.03,0.58 -0.27,0.12 0.21,0.46 0,0 -1.11,0.05 -2.03,-1.02 -1.18,0.19 -0.35,0.62 -0.5,-0.17 -0.69,-0.58 -0.63,-0.1 -1.45,-2.56 -1.140002,0.28 -0.65,-0.24 -0.73,0.88 -1.54,-1.06 -0.43,-0.7 -0.67,1.07 -1.17,0.93 -0.2,0.85 0.29,0.9 -0.44,0.8 -0.67,0.26 -2.18,-1.31 -0.32,-1.58 -2.37,-1.66 -0.38,0.1 -0.34,1.45 -0.38,0.1 -0.37,-0.04 -0.69,-0.86 -1.01,-0.11 0.39,1.94 -0.53,0.4 -0.01,0.75 -0.87,1.38 -0.94,0.37 -0.84,-0.6 -0.78,-0.02 -0.67,1.84 -1.32,1.1 -0.31,1.45 -0.4,0.17 -0.83,-0.33 -1.22,0.73 -1.39,-0.86 -0.22,0.15 -0.22,0.4 0.28,0.46 -0.42,0.68 0.36,0.98 -0.02,1.13 -0.87,0.61 -0.77,-0.29 0,0 -0.79,0.43 -0.83,-0.09 -0.63,-0.39 -0.42,-1.01 -1.9,-0.6 -0.16,-1.2 -1.86,-1.84 -0.81,0.07 -3.48,-0.95 -0.67,0.07 -0.95,-1.62 -0.94,-0.46 -1.06,-0.14 -1,0.98 -0.37,-0.55 0,0 0.15,-0.59 0,0 0,0 0,0 1.22,-3.3 0.89,-0.72 0.64,-0.01 0.05,-0.51 0.59,-0.46 -1.18,-1.44 0.36,-1.58 -0.67,-1.55 0.18,-0.8 0.51,-0.54 0.63,0.17 0.26,1.3 1.03,0.39 0.48,-0.3 0.29,-2.1 0.61,-0.32 1.23,1.09 1.68,-0.5 0.73,-0.9 -0.01,-0.3 -0.54,-0.29 0.4,-0.12 0.09,-0.52 0.48,-0.41 0.74,-0.13 3.36,0.89 0,0 -0.14,0.99 0.77,0.55 0.48,-0.05 0,0.32 1.53,1.67 1.25,1.05 0.9,0.15 1.08,-0.4 0.39,-0.88 0.82,0.01 0.64,-0.71 -0.09,-0.47 -1.73,-1.06 0.05,-1.93 -1.24,-0.93 0.23,-1.11 -1.82,-0.41 -3.52,-1.58 -0.7,0.15 -0.94,1.34 0,0 -1.9,0.02 -0.86,-0.29 -0.21,-0.83 -0.98,-0.69 -0.34,-0.95 -0.28,0.51 -1.09,-0.51 -1.24,-2.81 0.37,-0.01 0.5,1.02 1.05,0.59 -0.4,-1.19 0.18,-0.55 -0.24,-0.49 -0.29,0.5 -0.4,-0.66 0.17,-0.61 0.31,0.57 0.62,0.17 -0.42,-0.9 0.76,-0.14 -0.19,-0.34 0.27,-0.57 -0.38,-0.68 -0.27,0.05 0.12,0.44 -0.31,0.05 0.08,0.82 -0.33,0.08 z m -6.3,23.66 0,0.01 0,0 0,0 0,0 0,-0.01 z" 
                fill="rgb(151, 144, 238)" 
                stroke="white" 
                stroke-width=".7px"
                title="Ленинградская область" 
                id="RU-LEN" 
            />
        </svg>