<svg xmlns="http://www.w3.org/2000/svg" viewBox="129.65011000000007 628.75082 22.279999999999944 19.689999999999827" width="22.279999999999944" height="19.689999999999827">
            <path 
                d="m 138.37011,628.88082 0.35,0.2 0.51,-0.23 0.34,0.28 0.88,1.9 0.92,-0.38 0.5,0.23 1.13,-0.23 0.2,-1.11 1.29,-0.79 0.17,0.4 0.38,-0.28 0.84,0.5 0,0.87 -0.29,0.07 0.58,0.65 0.81,0.16 0.59,0.7 0,0 -0.5,1.49 0.34,1.91 -0.18,0.51 0.46,0.28 -0.71,0.89 0.49,1.06 -0.26,0.32 -0.63,-0.07 -0.36,0.77 0.78,2.08 2.03,1.1 -0.23,0.57 0.33,0.42 1.34,0.39 1.46,1.25 -0.04,0.65 -0.71,0.35 -0.67,2.3 0,0 -4.3,-0.21 -0.44,0.55 -1.1,0.01 -1.42,-0.53 -0.17,-1.1 -0.66,-0.33 -2.05,-0.09 -0.17,1.05 -0.46,0.2 -0.7,-0.43 -0.43,-0.83 -0.56,-0.2 -0.37,0.29 -0.62,-0.3 -0.43,0.95 -0.83,-0.25 -1.54,0.95 0,0 -0.64,0.4 -0.66,-0.16 -1.11,0.3 -1.15,-0.5 -0.51,-1.11 0,0 -0.01,-1.39 1.38,-1.08 0.37,0.19 0.35,-0.26 0.2,-0.62 -0.56,-0.69 0.05,-0.39 -0.45,0.01 -0.17,-0.41 0.36,-0.34 -0.84,-0.26 -0.12,-0.29 0.42,-0.25 -0.88,-0.77 -0.6,0.06 -0.04,-0.43 0.56,-0.02 0.8,-1.49 -0.32,-0.71 0.29,-0.84 -0.41,-0.5 0.23,-0.88 0,0 0.43,-0.01 -0.06,-0.58 0.65,0.01 0.1,0.28 1.9,-0.14 0.34,1.21 0.6,-0.23 0.02,-0.38 0.34,0.14 0.35,-0.91 0.29,-0.03 0.09,0.67 0.51,-0.06 -0.03,-0.51 0.27,0.08 0.33,-0.65 -0.88,-0.84 0.53,-0.15 -0.91,-1.51 2.05,-0.6 -0.46,-1.07 0.27,-0.13 -0.49,-0.27 0.87,-0.66 0.43,0.29 z" 
                fill="rgb(151, 144, 238)" 
                stroke="white" 
                stroke-width=".7px"
                title="Липецкая область" 
                id="RU-LIP" 
            />
        </svg>