<svg xmlns="http://www.w3.org/2000/svg" viewBox="897.410110000001 443.8808199999995 134.40998999999908 116.95999999999981" width="134.40998999999908" height="116.95999999999981">
            <path 
                d="m 996.41011,443.88082 0.96,0.08 0.26,0.83 1.61,1.03 1.95999,0.11 -0.08,0.65 -1.32999,1.83 -0.49,1.27 -0.07,4.2 1.15999,1.32 4.58,1.67 0.59,0.92 2.01,0.43 0.67,2.05 2.97,3.52 4.78,0.87 1.63,1.18 1.09,0.19 1.59,3.27 1.44,1.01 3.39,0.58 1.5,1.57 3.18,-0.13 0,0 0.05,2.13 1.28,1.33 -0.01,0.72 0.69,0.79 -0.02,0.53 -1.86,1.36 -0.11,0.45 0.38,0.49 -0.58,0.49 -1.58,0.21 -0.87,0.62 -0.18,0.8 0.82,1.36 0.1,2.04 -0.61,0.52 -0.69,1.71 0.7,0.56 0.04,0.69 0.76,0.32 0.45,0.81 0.07,1.25 -1.21,1.73 -1.11,0.38 0.35,1.33 -0.35,0.78 0.61,0.6 -0.06,0.37 -0.88,0.4 -0.67,0.99 -0.72,0.2 -0.6,-0.28 -0.48,0.6 -0.5,2.15 0.07,0.9 1.04,0.27 1.64,1.58 -0.54,0.78 1.68,0.74 -0.17,0.7 -0.89,0.81 0.85,1.7 -0.31,0.9 -0.02,1.83 -1.6,1.07 -2.22,0.71 -0.16,0.61 0.51,0.52 1.64,0.34 0.36,1.06 -0.95,1.13 -0.53,-0.09 -0.42,0.4 0.63,1.58 0.74,0.75 -0.21,0.96 0,0 -0.44,0.06 -0.14,0.83 -0.46,-0.02 0.27,0.36 -0.51,0.61 -0.37,-0.11 0.12,0.58 -0.64,0.35 -0.22,0.85 -0.72,0.04 0.38,0.22 -0.29,0.5 -0.62,0.11 -0.35,-0.81 0.14,1.39 -0.28,0.04 -0.3,-0.56 -0.29,1.09 -1.1,0.71 -0.54,-0.04 0.36,0.31 -0.14,0.68 -0.67,-0.17 -0.65,0.68 0.38,0.47 -1.04,0.97 -0.69,0.04 -0.46,1.31 -1.58,1 -0.94,2.65 -0.71,-0.72 -0.36,0.72 -0.7,-0.35 -0.58,0.67 -0.39,-0.11 0.07,-0.67 -0.57,0.36 0.28,0.18 -0.05,0.56 -0.54,0.44 -0.09,0.48 -0.92,0.54 -0.04,-1.22 0.41,-0.1 -0.03,-0.52 0.36,-0.27 -0.04,-0.88 -0.5,-0.68 0.24,-0.27 0.28,0.16 0.16,-1.05 0.77,-0.01 -0.3,-0.35 0.6,-0.89 0.05,-0.7 -0.48,-0.19 -0.68,0.37 -0.52,-0.28 -1.84,1.48 -0.37,-0.09 0.1,0.43 -0.8,-0.18 1.5,-2.68 -0.19,-0.96 -0.43,-0.53 0.26,-0.19 -0.22,-0.42 -1.01,0.22 0.46,-0.8 0.44,-0.02 0.44,0.41 0.28,-0.32 -0.71,-0.37 0.54,-0.39 -0.04,-0.56 0.7,0 0.23,-0.96 -0.47,-0.16 1.69,-1.47 -0.16,-0.63 0.55,-1.17 -0.42,-0.36 1.05,-1.12 -0.09,-0.57 -0.28,-0.02 0.31,-0.4 -0.16,-1.23 -0.45,-0.42 -2.03,1.47 -1.05,2.01 -0.67,-0.2 -0.09,0.35 -0.41,0 -0.22,-0.35 0.02,0.58 -0.88,0.45 -0.35,-0.2 -0.06,-0.52 0.43,-1.97 -0.43,0.53 -0.69,0.21 -0.55,-0.59 0.4,-0.56 -0.23,-0.4 -1.29,-0.51 -1.24999,-0.05 -0.34,0.43 -0.53,-0.09 -0.38,1.27 -0.61,0.02 -0.39,-0.33 -0.98,0.09 -0.57,0.67 -0.63,-0.52 -0.99,0.02 -1.58,1.41 -1.55,-0.81 -2.38,-0.11 -0.83,0.85 -0.19,0.81 -0.61,-0.26 -1.53,0.71 -1.05,1.71 -0.59,0.3 -1.03,-0.01 -0.32,2.15 0.12,2.59 -0.26,0.17 -0.2,-0.39 -0.67,0.31 -2.71,2.54 -0.62,0.99 -0.69,0.12 -0.14,0.24 0.42,0.33 -0.36,0.5 -0.09,2.31 -0.66,-0.23 -0.68,1.15 -0.72,0.1 -1.05,1.01 -0.3,0.87 -0.77,-0.1 -1.24,1.57 -1.26,0.62 -1.14,1.03 -1.78,2.92 -0.52,-0.03 -0.65,0.44 0.53,2.61 -1.16,-0.16 -0.75,0.31 0.03,1.92 1.04,2.26 -0.59,-0.57 -0.1,-0.6 -0.34,-0.03 -0.58,1.83 -0.29,-0.09 -0.25,0.33 0.4,0.81 1.26,0.31 0.31,-1.14 0.34,-0.23 0.15,0.41 -0.26,0.44 0.34,0.28 -0.02,0.58 0.74,-0.01 -0.53,-1.01 0.25,-0.41 -0.41,-0.11 -0.12,-0.39 0.99,0.54 0.71,-0.4 1.01,1.09 0.87,-0.08 0.43,-0.38 0.82,1.48 0.89,0.63 0.06,0.56 -0.46,0.2 0.33,0.8 -0.46,0.18 0.33,0.68 -2.51,-0.32 -0.29,0.23 0.1,0.74 -0.93,-0.28 -1.01,-0.96 -1.01,0.29 -0.45,-0.19 0.22,0.19 -0.24,0.07 0.18,1.14 -0.17,-0.2 -0.37,0.53 -0.39,-0.27 -0.41,0.13 -0.9,0.66 -0.74,-0.32 -0.71,-1.37 -1.1,-0.21 0.26,-0.46 0.38,-0.01 0.02,-0.47 -0.98,0.85 -1.92,-0.91 -0.17,1.47 -0.25,-0.23 -0.33,0.46 0.59,0.02 -0.08,0.62 -1.57,0 -0.74,0.3 -0.49,0.81 -0.3,1.42 -0.67,-0.29 -0.63,0.29 -0.46,-0.48 -0.79,-0.13 -0.22,-0.51 -0.79,-0.48 -1.7,0.48 -0.21,0.96 -0.54,0.44 -1.63,0.09 -1.14,0.53 -1.5,-0.32 -0.93,0.38 0.12,-0.28 -0.79,-1.1 -0.1,-0.87 -0.97,-1.49 0.83,0.27 1.75,-1.11 0.91,0.24 0.42,-0.21 0.74,0.49 2.35,-0.23 0.85,-0.72 0.8,0 0.08,-0.44 -1.08,-0.98 -0.23,0.23 -0.02,-0.33 -0.92,0.58 -0.8,-0.61 -1.16,0.1 -0.14,-0.38 0.38,-0.4 -0.56,-0.58 -0.11,-0.67 -0.62,-0.74 -0.54,-0.12 -0.78,-1.39 -0.31,0.01 -0.41,0.64 -1.23,-0.34 -1.58,0.24 -0.18,0.32 0.39,0.31 -0.24,0.42 0.35,0.13 -0.15,0.39 -1.29,0.31 -0.08,-0.79 -1.79,0.05 1.86,-0.64 0.09,-0.46 -1.4,0.29 -0.85,-0.49 0.01,-0.54 -0.53,-0.06 -0.5,-0.51 -1.15,-0.03 -3.73,-1.39 -1.05,0.08 -1.3,0.59 -1.85,1.31 0.37,0.06 0.09,1.03 0.74,0.23 0.08,0.84 -0.91,-0.35 -1.21,0.48 -0.5,-0.47 0.46,-0.62 -0.36,-0.28 -1.13,1.26 0.13,1.4 0.53,0.21 0.6,-0.63 0.03,0.63 0.3,-0.1 -0.12,-0.29 0.45,-0.03 -0.44,0.81 0.27,0.52 -0.24,0.66 -0.63,-0.65 -0.35,0.1 -0.18,0.51 -0.31,-0.02 -0.11,-0.41 -0.96,0.4 -1.13,-0.21 0.18,-0.39 -0.31,-1.34 -0.81,-0.42 -2.97,0.32 -0.81,0.41 0.63,0.72 -0.36,0.58 -1.17,-0.63 -0.68,0.41 0.02,0.59 -1.77,-1.39 -0.94,0.23 -0.52,-0.54 -0.94,-0.18 0,0 1.67,-0.65 0.02,-1.82 0.57,-1.41 -0.16,-1.68 -0.45,-0.44 0.37,-0.4 -0.11,-0.65 -0.84,-0.34 -0.05,-0.89 -0.57,0.05 -0.87,0.87 -0.34,-0.11 -0.81,-1.35 0.45,-0.73 -0.26,-0.77 -1.44,-0.32 -0.73,-1.55 -0.85,-0.26 -0.99,0.58 -0.96,-0.26 -1.03,0.55 -2.27,-2.46 0.53,-0.26 -0.68,-1.04 0.23,-0.61 0.68,-0.19 0,-0.88 1.08,-0.79 0.5,0 0.54,-1.19 0.51,-0.05 0.47,-0.54 0.5,-0.13 1.43,1.18 0.76,-0.02 0.36,-0.65 -0.37,-0.68 0.02,-2.12 0.32,-0.46 1.15,-0.13 0.49,-1.41 -0.15,-0.35 0.41,-0.52 0.05,-1.23 -0.74,-2.26 0.24,-1.02 -0.79,-0.99 0.14,-1.77 -1.14,-1.42 0.03,-0.71 -2.08,-2.82 -1.93,-1.33 -1.04,-0.18 -0.42,-0.95 -0.42,0.34 0.13,0.86 -0.34,0.48 -0.59,0.09 -0.21,0.48 -0.58,-0.01 0.26,-0.78 -0.49,0.12 -0.27,-0.46 -0.39,-0.08 -0.52,0.79 -1.29,-0.76 -0.56,-0.9 -1.78,0.21 0,0 -0.09,-0.93 0.53,-0.17 0.51,-0.71 0.39,0.18 0.61,-1.11 0.67,-0.1 0.3,-0.84 -0.18,-1.2 0.57,-1.15 -0.44,-0.73 0.8,-0.77 0.27,0.28 0.8,-0.24 0.26,-0.4 -0.51,-0.62 0.46,-1.66 -0.62,-0.42 -0.08,-0.64 0.62,-0.97 -0.13,-1.92 -1.4,-1.13 0.49,-0.58 -0.01,-0.71 -0.65,-0.89 0.29,-0.92 0.93,-1.21 -0.09,-0.71 0.61,-1.37 -0.15,-0.83 1.08,-1.46 0.5,-1.69 -0.33,-1.95 0.2,-0.69 3.47,-1.45 0.87,-1.2 0.71,-2.54 0.42,-0.33 1.2,0.58 2.2,-0.34 2.4,1.85 0.8,0.05 0.21,-0.99 0.74,0.21 1.26,-0.82 0.43,0.44 -0.5,1.39 1.21,0.95 -0.26,0.59 1.25,0.22 0.71,-0.24 -0.09,-0.99 0.3,-0.84 1.65,-2.55 -1.54,-1.97 -0.26,-1.32 0.82,-0.42 1.47,-1.66 0.82,0.42 0.13,0.92 1.06,0.55 0.82,-0.57 0.84,0.72 0.32,-0.76 1.02,0.3 0.79,0.85 0.97,0.1 -0.16,-0.73 0.83,0.37 2.49,-1.85 0.35,-0.73 1.01,0.16 -0.01,0.65 1.15,0.64 -0.05,0.61 -0.71,0.62 0.29,0.62 -0.12,0.92 1.11,0.93 0.26,0.83 1.04,-0.14 1.09,0.68 0.78,0.03 -0.09,-2.27 0.41,-0.67 1.56,0.38 1.17,-0.14 0.74,-0.61 0.33,0.42 0.75,-0.6 0.79,1.03 0.54,-0.19 0.78,-1.73 0.69,-0.01 1.58,-0.72 1.36,0.6 -0.42,1.04 0.49,0.29 1.76,-0.44 0.33,-0.81 -0.81,-1.26 0.21,-0.43 0.97,-0.18 0.7,-1.33 1.43,-0.83 0.33,-0.78 -0.13,-0.48 -1.11,-0.58 -0.93,-3.71 0.92,-0.51 0.08,-1.85 0.6,-0.78 -0.01,-0.56 1.05,-0.28 0.92,-0.75 1.19,0.39 0.59,-0.21 0.01,-0.64 0.45,-0.47 0.83,0 0.6,-0.83 0.14,-0.83 -0.82,-0.74 0.2,-0.95 1.09,-1.36 -0.26,-0.6 0.3,-1.4 -0.51,-0.19 0.21,-1.52 1.08,-0.34 0.52,-0.57 1.31,0.13 0.94,-0.24 0.39,0.47 -0.15,0.98 0.92,-0.04 1.3,-1.97 0.07,-1.3 -0.93,-0.84 -0.2,-0.79 1.25,-0.79 0.03,-0.83 1.11,-0.69 0.65,0.19 0.45,0.52 0.75,0.05 0.32,0.92 0.96,-0.26 0.49,-0.92 0.81,-0.17 0.44,0.85 1.6,-0.25 1.54,0.48 1.23,-0.8 0.37,1.21 0.95,0.77 1.67,-0.08 0.72,0.37 0.74,-0.49 0.16,-1 1,-1.15 0.32,0.13 0.24,1.42 1.8,1.17 0.08,0.74 -0.56,0.49 1.33,1.06 2.19,0.12 0.32,-0.43 0.02,-0.99 0.86,-0.56 0.83,-1.36 1.4,-0.19 1.63,-0.74 0.99,0.26 0.51,0.96 0.57,-0.22 0.88,0.21 0.42,-0.47 -1.13,-2.21 0.91,-1.55 z" 
                fill="rgb(151, 144, 238)" 
                stroke="white" 
                stroke-width=".7px"
                title="Магаданская область" 
                id="RU-MAG" 
            />
        </svg>