<svg xmlns="http://www.w3.org/2000/svg" viewBox="169.5101100000002 362.91081999999994 161.0500000000001 89.46000000000004" width="161.0500000000001" height="89.46000000000004">
            <path 
                d="m 228.45011,403.86082 -1.2,0.39 -1.03,-0.09 -0.55,0.37 -0.84,-0.08 -0.07,0.44 -1.1,0.55 1.15,-1.37 1.06,-0.67 3.05,0.16 -0.47,0.3 z m 52.53,-17.38 2.2,0.99 0.9,0.72 0.32,0.5 -0.02,0.41 -0.25,0.03 0.42,0.49 0.22,1.48 -0.56,-0.26 -0.54,-2.29 -1.35,-0.97 -0.85,-0.18 -0.99,-0.92 -0.06,-1.02 0.56,1.02 z m -65.07,-0.78 1.83,1.31 -0.38,0 0.22,0.43 0.37,-0.32 0.99,0.95 0.83,1.51 0.18,1.81 -1.13,2.21 -0.17,-0.74 1.07,-3 -0.24,-0.7 -0.01,0.98 -1.18,1.03 0.09,0.55 -1.53,0.92 0.24,0.06 -0.37,0.44 0.1,0.31 0.3,-0.05 -0.82,0.89 -0.88,1.85 -2.12,1.14 -0.31,-0.22 0.08,0.38 -2.73,1.14 -0.04,-0.25 -1.52,0.57 -0.26,-0.61 -0.17,0.83 -1.17,-0.57 0.5,0.16 -2.2,-2.35 0.43,-0.08 -0.45,-0.43 -0.1,0.32 -0.2,-0.15 0.2,1.26 1.11,1.41 -0.47,-0.28 -0.66,-0.68 -0.21,-0.98 -0.03,-5.25 0.45,-2.63 0.97,-2.59 1.84,-2.05 1.21,-0.76 2.64,-0.46 1.38,0.66 2.32,2.03 z m -22.73,48.95 -0.02,0.24 2.35,-0.54 0.28,0.46 0.19,-0.58 0.82,-0.04 2.36,-1.27 1.52,0.67 -0.17,-0.59 1.18,-1.7 0.09,-2.39 -0.58,-0.98 0.79,-0.88 -0.1,-1.78 1.11,-1.92 -0.64,-2.42 1.17,-1.25 0.77,0.49 -0.25,0.07 0.1,0.45 1.15,-1.26 0.68,-0.27 0.91,0.51 1.5,-1.09 0.23,0.15 -0.23,0.26 1.34,-0.15 1.1,0.68 -0.46,0.22 0.2,0.39 0.56,-0.11 -0.42,-0.1 0.35,-0.46 -1.42,-1.27 -0.82,0.3 0.34,-1.28 -0.11,-1.25 -1.23,-1.55 1.72,1.41 1.2,0.14 1.12,-0.35 2.95,-1.91 3.39,-2.81 -0.16,0.7 -1.5,1.03 0.37,0.35 0.51,-0.26 -0.03,-0.32 0.42,0.01 -0.05,-0.5 0.42,-0.13 0.34,-0.67 -0.14,-0.37 5.16,-5 0.8,0.5 2.75,-0.76 0.51,-0.55 0.48,0.03 0.07,-0.39 0.96,0.12 0.3,-0.41 -0.66,-0.1 0.48,-0.73 2.13,-0.45 2.4,-1.23 0.33,0.15 -0.74,1.02 -0.77,0.06 0.07,0.74 0.65,-0.72 0.63,0.4 -0.04,0.62 0.4,-0.3 0.29,0.13 -0.22,0.11 0.08,0.87 -0.76,0.49 -0.21,0.54 1.06,1.01 0.12,-0.32 0.67,-0.09 1.3,-1.37 0.72,-0.36 0.42,-1.11 -1.29,-0.87 -0.25,-0.87 -0.44,-0.23 0.27,-0.91 -0.9,0.98 -0.81,-0.39 7.7,-5.75 3.69,-1.53 4.08,-0.65 0.98,0.32 -0.45,0.31 -0.62,-0.25 -0.64,0.48 -3.27,0.8 -1.93,0.2 0.25,0.25 -0.48,0.38 1.01,0.75 0.13,-0.25 -0.51,-0.47 1.01,0.08 1.43,0.7 -0.28,0.75 -0.62,0.03 -0.32,1.11 0.11,0.88 -0.77,0.8 -0.27,1.02 0.62,0.31 0.85,1.3 0.26,2.23 -0.92,0.68 0.08,0.67 -0.49,-0.2 -0.57,-0.84 -0.47,0.14 -0.24,-0.31 0.03,0.3 0.49,0.21 -0.02,0.91 -0.35,-0.66 -0.9,-0.33 -1.16,0.62 -0.82,1.28 -0.01,1.02 -0.38,-0.03 0.23,1.51 -0.47,0.15 0.23,0.13 0.6,-0.53 -0.08,-0.65 0.39,-0.69 1.14,-0.35 0.83,0.17 1.13,-0.36 0.43,0.33 0.29,-0.12 0.4,0.27 -0.24,0.36 0.3,0.38 0.92,-0.66 -0.42,0.76 0.57,-0.82 0.09,0.45 0.48,-0.6 -0.14,0.98 0.28,1.38 -1.24,2.15 0.28,0.18 1.4,-1.99 0.43,-2.5 0.64,-0.12 1.15,-1.29 0.41,0.17 0.87,2.23 0.47,0.4 0.82,-0.01 -0.23,0.79 0.58,-1.08 -0.09,-0.81 0.53,-0.71 -0.7,-1.4 0.3,0.19 -0.21,-0.3 0.97,-2.03 0.5,0 -0.06,-0.29 0.88,-0.88 0.25,0.13 -0.08,-0.23 1.04,-1.02 2.06,-0.02 2.12,-1.83 0.8,-0.12 1.47,1.09 1.22,0.01 1.29,-0.58 1.06,0.42 0.67,0.87 1.35,0.68 1.91,-0.23 1.11,-1.14 0.03,-0.9 1.29,-1.97 -0.68,-0.21 -1.34,0.72 -1.22,-0.04 5.11,-1.77 0.23,0.17 -0.33,0.48 0.2,0.79 0.54,-0.42 0.14,-0.53 -0.47,-0.4 0.18,-0.3 6.59,-3.37 2.12,-0.07 0.77,0.28 -0.04,0.25 -0.56,-0.23 -0.89,0.36 -0.8,0.78 0.91,0.29 2.1,1.74 0.79,1.61 -0.57,1.26 -1.29,-0.22 -0.61,0.32 -0.04,0.81 -0.67,0.91 0.58,1.29 -0.3,1.94 0.37,0.43 1.47,0.27 1.11,0.71 1.77,-0.52 0.23,-0.48 0.56,-0.05 0.47,-1.08 -1.09,-3.56 0.98,-1.58 0.84,0.74 2.72,-0.34 1.35,-1.08 1.27,-2.35 0.59,-0.5 0.66,0.05 -0.17,0.74 1.15,0.01 0.48,1.11 0.4,-0.02 -0.32,-0.13 0.05,-1.09 -1.56,-1.39 -0.12,0.29 -0.14,-0.19 0.35,-1.47 -0.32,-1.12 0.15,-0.4 -0.69,-1.46 -0.43,-0.39 -0.31,0.17 0.09,1.12 -0.85,-0.57 -0.15,-2.66 -2.35,-3.85 -0.09,-0.65 -0.55,-0.5 0.1,-0.71 -0.36,-0.4 0.24,-1.44 0.92,-0.83 0.74,0.27 1.45,-0.13 -0.09,0.75 0.85,0.28 0.25,-0.29 -0.77,-1.6 0.05,-0.54 0.63,0.17 -0.41,-1.91 0.96,-1.09 1.46,0.64 0.39,-0.74 0.54,0.99 0.82,-0.05 0.36,0.65 0.95,0.27 1.76,0.11 2.23,0.7 5.7,0.45 1.05,0.34 0.01,0.67 0.11,-0.7 4.04,1.56 5.89,2.98 0.89,0.97 -0.2,0.29 0.33,-0.19 2.37,2.06 0.62,1.32 0,0 -0.81,0.8 -0.45,1.15 0.19,1.71 -0.27,0.56 -1.13,0.79 0.6,1.55 -0.27,0.56 0.89,0.74 0.26,-0.72 0.55,0.27 1.68,1.61 1.37,-0.17 0.97,0.61 -0.01,0.89 1.25,0.7 -0.33,1.06 1,2.35 -0.26,1.02 -1.35,1.36 0,0 -1.2,0.72 -0.66,-0.04 -1.18,-0.72 -0.77,0.34 -1.35,0.02 -1.31,1.12 0.19,2.68 -1.04,0.42 -0.28,0.79 -3.53,2.05 0.4,2.12 -1.79,2.15 0.08,0.98 -1.51,-0.72 -1.15,0.34 -1.79,1.82 -1.18,2.57 -0.17,2.53 -8.03,5.62 -0.86,1.53 -1.12,-0.18 -1.19,0.72 -0.8,-0.27 -38.01,0.43 -9.87,-0.28 -17.42,-1.53 -3.75,3.03 -0.8,0.08 0.16,2.32 -18.81,12.03 0,0 -1.91,-0.38 -1.35,0.13 -1.02,-0.34 -1.62,0.13 -2.37,2.12 -0.71,1.27 0.88,1.48 -0.37,0.34 -2.39,-0.22 -2,0.28 -5.21,-4.21 -1.89,0.8 -2.09,-1.53 -1.26,0.55 -0.54,-0.08 -2.96,-2.15 -3.98,-1.13 -1.3,-1.82 -1.72,-0.44 0,0 0.62,-1.41 0.5,-0.23 0.52,-2.59 1.05,-0.31 -0.74,-0.22 -0.93,-2.08 0.91,-0.78 -0.12,-1.22 0.41,-0.23 -0.93,-1.75 -0.72,-0.67 0.09,-0.55 0.51,-0.41 -0.74,0.38 -0.79,-0.89 0.04,-0.45 -1.01,-0.43 -1.28,0.15 -0.61,-0.71 0.02,-1.19 1.28,-5.22 0.95,-2.22 0.35,-0.15 -0.1,0.63 0.37,-0.75 0.23,0.05 -0.42,-0.42 -0.26,0.1 0.51,-1.58 -0.48,-1.36 0.4,-0.75 0.56,0.01 -0.33,-0.44 0.78,-0.24 -0.73,-0.19 -0.24,0.2 0.04,-1.12 1.34,-1.16 -1.06,0.23 0.13,-3.66 -0.28,-1.77 -1.32,-1.64 -4.42,-3.81 -0.98,-1.21 -0.01,-0.55 1.35,-0.01 4.22,2.64 4.78,-0.05 3.71,0.32 2.3,0.52 3.42,1.6 -0.83,-0.38 -0.23,0.36 1.07,1.44 0.02,0.66 0.82,0.49 1.31,1.98 1.54,1.16 0.07,0.33 -0.52,0.2 0.43,-0.12 0.14,1.68 0.97,2.05 -0.06,1.72 -1.84,0.03 -1.06,-0.36 0.18,0.32 -1.71,0.57 -0.68,-0.12 -0.77,0.69 -1.31,0.21 -0.1,-0.35 -1.03,0.28 -1.36,1.04 -0.3,-0.13 -0.17,0.38 0.39,-0.08 0.18,0.48 -0.29,1.56 -0.31,-0.17 -0.72,0.32 -1.15,1.33 -0.52,1.28 -0.12,1.7 -0.56,0.4 0.27,-0.28 0.37,0.41 0.2,-0.17 1.52,1.28 3.13,1.71 -0.1,1.71 0.72,0.65 0.87,2.49 1.46,0.79 0.11,0.28 -0.42,0.39 3.81,-1.03 0.42,0.03 0.3,0.43 -0.25,0.24 z m 89.76,-71.74 -0.03,0.78 0.67,0.3 1.44,1.47 1.71,2.99 1.45,1.26 -0.02,0.5 1.23,0.78 0.52,-0.14 -0.03,0.51 0.47,0.67 1.66,1.94 0.77,0.3 0.06,0.96 0.7,1.71 -0.56,0.92 0.15,0.94 -0.85,-0.52 0.28,0.67 -0.68,0.03 -0.17,0.33 -0.35,-0.23 0.15,0.4 -0.63,-0.25 0.19,0.43 -1.41,-1 0.24,0.67 -0.56,-0.18 0.2,0.77 -0.45,-0.17 -0.17,-0.56 -0.8,0.14 -1.51,-0.51 0.23,-0.62 -0.28,-0.31 0.07,-0.74 0.22,0.34 0.7,-0.13 -1.12,-1.61 -0.93,-0.7 -0.09,0.24 -0.73,-0.31 -0.39,0.19 -0.35,-0.49 -0.61,-0.02 -1.04,-0.72 1.39,1.88 -0.82,-0.02 -0.55,-1.27 -1.3,-1.07 -1.46,-2.11 0.32,-0.79 -0.71,-0.27 0.77,-0.24 -0.52,-0.4 0.33,-0.16 -0.08,-0.34 -0.36,0.33 -0.17,-0.62 -0.19,0.25 -0.27,-0.18 0.66,-0.45 -0.62,-0.54 -0.17,0.26 0.04,-0.41 -0.41,-0.02 0.08,-0.39 1.39,0.28 1.04,0.85 0.48,-0.09 0.01,-0.59 -2.02,-1.64 -0.17,-0.54 0.97,0.43 0,-0.55 0.95,-0.64 0.1,-1.13 0.96,-0.07 0.98,-0.78 z" 
                fill="rgb(151, 144, 238)" 
                stroke="white" 
                stroke-width=".7px"
                title="Ненецкий автономный округ" 
                id="RU-NEN" 
            />
        </svg>