<svg xmlns="http://www.w3.org/2000/svg" viewBox="159.00010999999992 571.25082 42.94000000000011 46.70000000000016" width="42.94000000000011" height="46.70000000000016">
            <path 
                d="m 191.99011,571.25082 0.11,0.7 0.86,-0.35 4.02,0.26 2.1,0.24 2.86,0.97 -1.27,1.45 -0.39,2.87 -0.54,1.06 -0.44,0.2 -1.14,-0.77 -1.62,1.05 -1.36,-0.26 -0.39,0.25 -0.53,1.13 0.13,1.41 0.81,1.35 -0.69,0.58 0.39,0.62 -0.26,2.17 0,0 -0.4,-0.5 -0.38,0.66 -0.56,0.15 -1.5,-0.49 -0.67,0.85 -2.15,0.46 -0.56,0.75 0.12,2.29 -1.04,-0.06 -0.67,0.77 -0.29,1.15 0.19,0.56 0.92,-0.19 1.26,0.83 0.07,0.83 -0.71,0.92 1.63,1.2 -0.08,0.71 0.46,1.27 0,0 -0.42,0.89 0.18,1.72 -1.02,1.37 0.01,0.83 1.45,1.38 1.54,0.66 0.19,0.76 -0.97,0.66 -0.29,1.13 -0.93,0.56 -0.43,0.69 0.41,1.6 0,0 -0.98,0.73 -1.42,0.21 -0.39,-0.42 0.46,-1.89 -0.71,-0.18 -1.33,1.01 -0.49,1 0.29,1.38 -1.33,0.47 -0.49,1.48 -0.47,-0.61 -0.44,0.54 0.19,1.19 -0.64,0.78 1.09,1.1 -0.23,0.43 -0.54,-0.24 -1,0.25 -0.57,-0.44 -1.59,0.57 0.45,-0.91 -0.5,-0.31 -0.58,0.53 -1.18,-0.89 -0.91,-0.04 -0.89,-0.83 0.14,-0.68 -0.22,-0.24 -0.85,0.16 -0.26,-0.22 0.04,-0.64 -2.51,-0.53 0.05,-1.2 -0.8,0.25 -0.8,-0.41 -0.54,0.09 -0.12,0.46 -1.05,0.52 -0.31,1.11 -0.68,-0.46 -0.87,0.65 -0.52,-0.01 -0.36,-0.71 -0.28,-0.01 -0.99,0.55 -1.07,-0.85 0,0 -0.04,-1.35 0.45,-0.37 -0.46,-0.37 -0.36,0.31 -0.29,-0.24 -0.99,0.65 -1.62,-0.39 0.16,-1.28 -1.09,0.64 -0.56,-0.65 0.1,-0.48 0,0 0.51,-0.2 0.44,-0.87 0.31,-1.67 0.35,0 0.77,-0.94 -0.38,-1.12 0.04,-1.4 1.25,-1.71 1.16,-0.63 0.34,-1.49 0.8,-0.13 0.77,-0.73 0.09,-0.64 -0.26,-0.32 0.36,-0.44 0.84,-0.19 0.66,-0.75 0.05,-0.53 -1.36,-0.55 -0.21,-1.42 -0.68,-0.66 0,0 0.42,-0.81 1.68,-0.07 -0.05,-2.48 -0.4,0.31 -0.35,-0.29 0.38,-0.89 -0.38,-0.5 0.43,-0.58 0.8,-0.32 0.57,0.32 0.48,-0.23 0.03,-0.34 2.81,-0.34 1.23,-2.34 -0.5,-0.22 0.05,-0.26 -0.9,-0.22 0.07,-1.22 0.35,-0.54 0.86,-0.4 -0.19,-0.44 0.5,-0.36 0.44,0.32 0.2,-0.57 0.34,0.23 0.11,-0.3 -1.14,-0.68 0.11,-0.47 0,0 2.51,0.1 1.34,-0.96 0.89,-0.05 1.59,-2.48 1.04,0.12 0.15,-0.93 0.5,-0.34 -0.16,-0.67 0.38,-0.39 -0.26,-2.22 0.33,-0.47 2.41,-0.12 0.86,0.8 0.88,-0.24 1.18,1.51 0.49,0.02 0.41,-0.36 0.25,-0.97 0.31,0.04 0.22,-0.38 0.52,0.14 z" 
                fill="rgb(151, 144, 238)" 
                stroke="white" 
                stroke-width=".7px"
                title="Нижегородская область" 
                id="RU-NIZ" 
            />
        </svg>