<svg xmlns="http://www.w3.org/2000/svg" viewBox="397.74011 582.62082 71.70999999999992 49.32000000000073" width="71.70999999999992" height="49.32000000000073">
            <path 
                d="m 405.05011,582.62082 2.31,0.57 1.83,-0.2 1.51,0.61 8.07,0.23 2.47,-0.2 0.9,0.99 5.77,1.27 1.34,1.04 1.82,0.88 3.81,5.41 2.33,-0.3 3.99,-1.05 0.43,0.17 2.42,3.23 0.53,0.16 5.5,-1.55 2.84,-0.29 0.43,-0.53 -0.02,-0.67 1.95,-0.52 0.87,1.65 -1.1,2.02 0.76,0.64 -0.1,0.98 0.73,0.47 -0.07,1.03 0.66,1.98 -0.56,1.25 -0.48,0.2 0.51,0.68 2.33,0.03 1.39,-2.55 1.23,-1.51 1.25,-0.41 0.94,0.73 0.61,-0.07 0.71,-0.63 0,0 0.65,0.19 0.18,1.19 -0.32,0.44 0.45,1.44 -0.18,0.37 0.66,1.14 0.85,0.37 0.26,0.61 -0.2,1.57 -1.06,0.82 1.74,0.06 -0.06,1.69 0.41,1.63 -0.38,1.55 1.15,1.32 0.29,0.99 -0.34,0.52 -0.55,0.18 -0.14,0.64 0.83,0.78 -0.55,0.77 0.8,1.97 0,0 -0.04,0.29 -1.26,0.25 -2.07,1 -1.41,1.78 -0.3,-0.37 -0.99,-0.27 -2.05,1.06 -1.08,-0.19 -2.28,0.35 0.1,1.04 -0.66,0.73 -0.57,-0.23 -0.28,-0.88 -0.94,-0.1 -0.62,0.33 -2.64,2.59 0.13,0.68 -0.63,0.86 0.14,0.48 -0.9,0.89 0.22,0.29 -0.75,0.27 -0.71,-0.15 -1.41,-1.03 0.22,-0.61 -0.38,-0.2 -2.51,-0.54 -0.49,-1.27 0.74,-0.48 0.07,-0.64 -1.88,-0.05 -0.03,-1.13 -0.83,-0.84 -1.2,0.04 -0.5,-0.5 -0.71,0.11 -0.23,-0.96 -0.93,-0.92 -0.26,-1.13 -0.4,-0.04 -0.54,0.58 0.27,0.83 -1.73,0.52 -0.5,0.48 0.15,0.56 -0.85,0.09 -1.19,0.96 -0.42,0.13 -0.29,-0.54 -0.33,0.14 -0.44,0.33 0.2,0.5 -1.58,0.97 -0.18,0.75 -1.58,0.5 -0.14,0.59 -0.85,0.61 -0.69,0.29 -0.73,-0.41 -0.59,0.48 -0.67,0.1 -0.43,-0.31 -0.23,0.45 -0.5,-0.3 -1.68,0.33 -0.38,0.28 -0.35,1.26 -2.15,0.54 -0.81,-0.64 -0.04,-0.89 -0.52,0.57 -1.03,0.06 0.02,0.86 0.74,0.44 -0.73,0.19 0.13,0.55 -0.15,0.32 -0.3,-0.12 -0.32,0.78 0,0 -7.95,-6.78 -1.83,-2.04 -0.58,-1.6 1.31,0.09 0.33,0.42 0.67,-0.42 0.67,-0.9 0.21,-0.92 -0.15,-0.67 -0.49,-0.17 1.09,-0.59 -0.04,-0.39 -1.38,0.5 -0.6,0.87 -1.41,0.26 -1.59,-0.38 -0.05,1 -3.79,1.75 0,0 -0.21,-4.02 0.12,-0.89 0.94,-0.65 -0.17,-1.02 -0.67,-0.36 -0.22,-1.07 -0.63,-0.67 -0.18,0.67 -0.46,-1.36 -1.36,-0.01 0.61,-1.68 -0.55,-0.91 -0.52,-0.03 0.31,-1.14 -0.65,-0.94 -0.09,-0.79 -0.56,-0.15 1.08,-1.51 0.67,-0.22 -1.34,-0.74 -0.21,-0.72 0.3,-0.37 -0.61,-0.95 0.31,-0.39 0.9,0.28 0.5,-0.25 -0.24,-1.53 1.35,-1.54 -0.1,-0.74 1.08,-0.19 0.53,-0.63 0.95,0.02 1.32,-0.79 1.27,0.31 0.83,-0.47 -0.15,-0.68 -1.24,-1.1 -0.12,-1.12 0.28,-0.57 -0.64,-0.52 -1.22,0.82 -0.38,-0.71 1.5,-1.79 0.68,-0.15 0.88,-0.97 0,-2.93 -0.49,-0.6 0.05,-1.12 z" 
                fill="rgb(151, 144, 238)" 
                stroke="white" 
                stroke-width=".7px"
                title="Новосибирская область" 
                id="RU-NVS" 
            />
        </svg>