<svg xmlns="http://www.w3.org/2000/svg" viewBox="223.87010999999984 618.84082 77.72000000000008 45.48000000000002" width="77.72000000000008" height="45.48000000000002">
            <path 
                d="m 236.22011,618.84082 0.35,0.43 1.36,-0.03 1.42,0.77 0.66,-0.54 0.47,0.65 -0.1,0.3 -1.19,0.36 -0.11,0.49 0.76,0.44 -0.12,0.83 1.37,-0.62 0.88,1.03 0.22,-0.09 0,0 0.71,0.81 1.02,2.17 1.31,1.37 1.68,2.6 1.17,0.99 0.8,-0.09 1.31,0.6 0.83,1.42 1.63,-0.35 0.34,0.28 0.5,2.49 0.82,1.26 0.03,0.74 0.56,0.38 1.22,-0.38 0.18,1.22 0.28,0.22 -0.36,0.38 -0.59,-0.15 -0.25,0.58 0.32,0.35 0.54,-0.14 0.75,0.63 0.51,2.12 2.01,0.6 1.62,-2.2 0.31,-1.27 1.67,1.15 0.51,-0.38 0.22,0.22 -0.41,0.79 0.58,0.77 0.15,1.19 -0.28,0.81 -1.18,1.16 0.7,0.73 0.54,-0.9 0.31,-0.01 1.33,1.35 0.79,1.69 -0.66,0.99 1.26,2.03 -0.28,1.08 0.65,0.11 0.39,-0.52 -0.36,-1.18 0.39,-0.24 0.98,0.62 1.13,1.47 1.22,-0.79 0.1,-0.99 1.17,0.33 0.85,-1.8 0.44,-0.1 0.31,0.36 0.65,-0.1 1.55,0.44 0.71,0.92 0.41,0.07 1.12,-0.64 0.99,-0.12 0.58,-0.62 0.8,-2.93 -0.63,-0.67 0.27,-1.51 0.45,-0.32 0.59,0.18 0.44,-0.62 -0.53,-1.28 0.11,-0.34 0,0 1.03,-0.02 0.58,1.13 1.4,0.83 -0.25,-1.09 0.23,-0.63 1.4,-0.59 0.32,-0.05 0.23,0.47 0.88,-0.28 0.85,0.42 0.26,-0.22 0.96,0.66 1.52,-0.17 0.37,1.77 -1.02,0.89 -0.77,1.71 0.95,0.66 0,0 -0.37,0.08 -0.09,0.43 0.35,0.82 0.59,0.2 -0.02,-0.44 1.6,1.04 0.83,0.17 -0.92,1.16 0.6,0.61 0.89,0.35 2.3,0.05 0.07,0.77 0.52,0.9 1.28,0.1 1.22,0.65 0.95,-0.32 0.5,1 0.88,0.87 -0.64,0.21 -1.14,5.14 -4.3,1.5 -2.52,-0.1 -1.15,-0.26 -0.87,-1.09 -0.09,-0.62 -0.81,-0.24 -0.47,0.42 -1.23,2.76 -2.16,0.78 0.07,-1.01 -0.45,-0.62 -1.42,0.13 -0.44,-0.32 -2.22,-0.25 -0.87,-0.82 -0.06,-0.72 -1.29,0.09 -0.24,-1.29 0.28,-0.79 -0.28,-0.58 -1.39,-0.2 -0.57,-0.93 -0.56,0.32 -0.24,0.73 -0.54,-0.13 -0.12,-0.53 -0.63,0.49 -0.53,-0.4 -0.39,0.18 -0.39,-0.42 -0.46,0.11 -0.16,2.26 -0.36,0.23 -0.25,-0.39 -0.57,0.11 -0.41,0.65 -1.15,-0.58 -1.19,-1.89 -1.15,0.5 -0.47,-0.27 -0.39,0.25 -0.51,-0.33 -0.74,0.04 0.02,1.22 -0.68,-0.21 -1,-1.12 -0.24,0.27 0.07,1.01 -0.57,0.07 -0.31,0.69 -1.16,-0.27 -0.4,1.95 -2.86,1.71 -0.3,0.46 -1.49,-1.16 -0.93,0.13 -1.85,-1.63 -0.26,-0.33 0.3,-0.83 -0.37,-0.29 -1.24,1.06 -0.39,-0.51 -0.84,-0.12 -0.37,0.94 0.51,2.06 -0.85,1 -0.72,0 -0.61,-1.05 0.65,-2.43 -1.55,-0.42 -0.83,-1.26 0.07,-0.5 -0.21,-0.3 -0.14,0.15 -0.02,-0.65 -0.76,-0.6 -2.55,-0.73 -0.5,-0.91 0.19,-0.94 -1.83,-1.44 -0.7,0.31 -0.12,-0.24 -1.34,0.08 -0.66,0.36 -0.39,-0.33 -0.41,0.27 0.17,-0.32 -0.82,-0.07 -0.7,0.34 0.05,0.23 -1.02,-0.06 -1.6,-3.47 -0.48,0.56 -0.63,-0.02 -0.47,0.72 -1.79,-0.31 -0.73,1.07 0.28,0.78 -0.9,0.56 -0.3,0.04 0.13,-0.5 -0.57,-0.54 -0.34,0.58 -0.65,0.32 -0.82,-0.08 -0.52,-0.76 0.85,-0.17 -0.01,-0.95 -0.66,-0.42 -1.47,0.25 -1.23,-0.14 -0.38,-0.77 0,0 0.19,-0.56 0,0 2.29,-1.7 1.59,-1.61 0.33,-0.58 -0.46,-2.16 1.32,-1.52 0,-0.45 -0.64,-0.68 0.45,-1.31 0.51,-0.52 0.5,0.19 0.52,-1.36 -0.12,-0.81 1.5,-1.42 1.1,-0.62 0.35,-1.2 -0.47,-0.62 0.62,-1.49 -0.11,-0.53 1.04,-0.44 -1,-0.33 -0.46,-1.09 0.81,-1.2 0.28,-1.72 0.97,-1.51 0.43,-1.62 0.03,-0.65 -0.84,-0.88 -0.07,-0.56 0.35,-0.13 0.21,-1.7 z" 
                fill="rgb(151, 144, 238)" 
                stroke="white" 
                stroke-width=".7px"
                title="Оренбургская область" 
                id="RU-ORE" 
            />
        </svg>