<svg xmlns="http://www.w3.org/2000/svg" viewBox="108.67011000000001 627.95082 23.809999999999988 19.920000000000073" width="23.809999999999988" height="19.920000000000073">
            <path 
                d="m 117.46011,627.95082 0.31,0.79 0.4,-0.12 1.36,0.61 0.4,0.85 1.14,0.85 1.33,-0.23 -0.16,0.22 0.62,1.03 1.31,0.38 0.32,-0.3 1.59,0.72 0.67,-0.24 0.04,-0.55 2.02,0.32 0.01,1.62 0.59,0.42 0.4,-0.41 0.99,1.48 0,0 -0.23,0.88 0.41,0.5 -0.29,0.84 0.32,0.71 -0.8,1.49 -0.56,0.02 0.04,0.43 0.6,-0.06 0.88,0.77 -0.42,0.25 0.12,0.29 0.84,0.26 -0.36,0.34 0.17,0.41 0.45,-0.01 -0.05,0.39 0.56,0.69 -0.2,0.62 -0.35,0.26 -0.37,-0.19 -1.38,1.08 0.01,1.39 0,0 -0.3,-0.07 -0.56,0.9 -0.47,-0.58 -0.65,-0.09 -0.36,0.86 -0.31,0.1 -1.51,-1.6 -2.13,-0.38 -1.03,-0.78 -0.73,-0.05 -0.26,-0.46 -0.94,-0.15 -1.01,-1.63 -0.41,-0.12 -4.67,1.31 -0.32,-0.18 -0.42,-1.92 -0.5,-0.17 -0.15,0.6 -0.67,-0.36 -0.07,0.63 -1.07,-0.37 -0.32,0.47 -1.34,0.25 0,0 -0.46,-0.49 -0.4,0.1 0.03,-0.68 1.34,-1.08 -0.49,-0.43 0.27,-0.39 -0.3,-0.62 0.45,0.15 0.24,-0.35 -0.33,-0.54 0.23,-0.51 -0.52,0.07 -0.47,-0.53 -0.31,0.36 -0.6,-1.1 0.75,-0.25 -0.09,-0.61 0.7,0.11 0.11,-0.56 0.36,0.59 0.83,-0.26 -0.02,-0.65 0.77,-0.01 0.12,-0.81 -1.24,-0.67 0.35,-0.25 -0.09,-1.35 0,0 0.61,-0.27 0.38,0.2 -0.05,-0.52 0.95,-0.33 0.52,-1.37 0.48,-0.16 -0.34,0.74 0.34,0.1 0.5,-1.24 0.57,-0.38 0.23,0.42 0.7,-0.06 0.24,-0.54 z" 
                fill="rgb(151, 144, 238)" 
                stroke="white" 
                stroke-width=".7px"
                title="Орловская область" 
                id="RU-ORL" 
            />
        </svg>