<svg xmlns="http://www.w3.org/2000/svg" viewBox="230.55010999999996 519.5608199999999 55.460000000000036 77.59000000000015" width="55.460000000000036" height="77.59000000000015">
            <path 
                d="m 271.05011,594.22082 -1.38,1.44 -0.13,0.54 -1.79,0.95 -0.63,0 -2.65,-3.47 -0.67,0.04 -1,0.85 -1.15,0.34 -0.43,-0.26 -1.32,-2.47 -0.49,-0.1 -1.57,0.49 -0.89,0.85 -0.66,0.21 -1.23,-0.75 -1.61,0.53 -0.71,-0.68 -0.74,-0.19 -0.35,-0.91 -0.65,-0.21 -1.56,2.41 0,0 -0.41,-1.64 -0.64,-0.2 -1.17,-1.47 0.18,-0.75 -0.41,-0.21 -0.72,0.39 -0.12,0.75 -0.44,-0.55 0.07,-0.96 -0.32,-0.47 0.12,-0.76 1.44,-0.18 0.99,-2.12 1.66,-1.13 -0.13,-0.32 -0.61,-0.07 -0.18,-0.53 0.27,-0.52 -0.29,-1.74 -0.76,0.05 -0.2,-0.33 0.2,-0.9 0.59,-0.58 -0.18,-0.61 -1.38,-1.25 0.47,-0.81 -0.02,-1.11 0.48,-1.19 -0.53,-2.15 -1.23,-1.61 -0.93,-1.92 0.51,-1.18 -0.81,-2.1 0,0 -0.28,-1.94 0.22,-0.44 -0.31,-0.53 0.2,-0.62 1.03,-0.57 -0.77,-1.01 -0.32,-2.03 0.59,-1.26 -0.43,-0.37 -0.71,0.18 -1.13,-0.65 -0.87,-0.01 -1.28,-2.85 1.34,-2.76 0.25,-2.01 0.9,-0.13 0,0 0.67,-2.88 0.02,-2.23 -1.49,-2.34 0,0 -0.55,0.24 -0.16,1.01 -6.33,-1.04 -1.27,-0.72 0,0 0.62,-1.06 -0.35,-0.79 0.14,-0.88 -1.5,-0.52 0.13,-0.73 -2.75,-1.04 1,-4.22 3.15,0.6 0.9,-1.8 2.2,0.17 0.65,-1.79 4.05,0.55 -0.66,2.27 3.48,0.59 0.38,-1.87 7.95,1.23 0.91,-2.13 0.79,0.14 0.65,-1.78 3.26,0.23 0.96,-2.27 2.79,0.69 1.15,-3.14 0.92,0.14 0.44,-1.13 0.38,0.05 0.32,-0.57 2.63,0.87 0.86,-0.49 2.9,0.36 8.72,-0.12 0.43,-0.43 1.17,-0.13 0.56,-1.1 1.75,-1.04 0,0 0.73,1.82 -1.36,3.47 0.01,1.16 0.48,3.32 0.91,1.78 -0.01,2.32 -0.69,2.83 -1.36,3.22 0.08,1.4 -1.13,3.86 -2.1,1.88 -1.05,1.66 -1.01,3.46 0.8,0.69 1,1.68 0.76,0.46 1.02,0.11 1.21,1.57 -0.16,1.28 0.58,1.01 -0.76,1.13 -0.01,1.22 0.48,0.16 0.25,0.8 0.5,0.38 1.09,-0.19 0.17,0.25 -0.3,0.8 0.45,1.8 -0.34,0.65 -1.37,0.93 -0.34,1.07 -0.41,0.28 -0.97,-0.18 -1.34,1.11 -0.4,0.99 -1.13,1.32 0.09,1.31 0.55,0.8 1.15,0.27 0.27,0.47 -0.07,1.28 -1.38,1.01 -1.03,1.24 -0.48,-1.54 -1.25,0.1 -1.01,-0.41 -0.64,0.69 -0.01,0.66 -0.68,0.89 0.2,0.86 -0.73,1.64 0.08,0.53 0.97,0.78 -0.33,1.28 0.66,0.93 -0.26,0.3 0.28,0.56 -0.28,0.19 -0.35,-0.5 -0.37,-0.03 -1.88,2.15 -0.7,0.33 -1.66,-0.67 -0.55,0.46 -0.19,1.12 1.31,2.12 -0.43,1.11 z" 
                fill="rgb(151, 144, 238)" 
                stroke="white" 
                stroke-width=".7px"
                title="Пермский край'" 
                id="RU-PER" 
            />
        </svg>