<svg xmlns="http://www.w3.org/2000/svg" viewBox="161.32010999999997 623.4408199999999 34.930000000000064 20.480000000000246" width="34.930000000000064" height="20.480000000000246">
            <path 
                d="m 163.04011,625.95082 1.21,1.1 -0.13,-0.87 0.47,-0.46 0.4,0.76 0.99,-0.59 1.36,0.14 0.79,-0.35 0.46,0.29 0.6,-0.1 0.3,-0.63 -0.45,-0.88 0.56,-0.92 1.41,0.64 0.86,-0.43 0.39,0.1 0.15,0.47 0.8,0.08 1.36,0.75 0.14,1.19 0.62,0.65 1.84,0.55 1.56,-0.24 0.4,0.48 1.1,-0.3 0.21,-0.35 -0.86,-1.09 -0.09,-0.77 1.75,-1.04 1.52,0.15 1.16,-0.25 0.18,0.81 0.35,0.21 1.61,-0.53 1.58,-0.06 0.46,-0.62 0,0 0.32,0.15 1.09,-0.36 0.82,0.55 0.48,0.59 0.2,1.19 1.75,2.16 -0.05,1.54 0.37,0.31 1.29,-0.19 0.09,0.47 1.32,0.95 0.25,0.68 -0.34,0.95 0.42,0.86 -0.37,2.81 0.51,1.31 -0.13,0.54 -1,0.82 -0.18,0.66 0,0 -0.81,-0.27 -0.3,-0.79 -1.03,0.55 -0.78,-0.11 -0.63,0.94 -0.82,-0.03 -0.5,0.7 -0.87,0.4 0.37,1.02 -0.24,0.37 -2.44,-1.33 -1.06,1.23 -2.31,-0.11 -0.47,0.2 -0.49,0.82 -1.33,-1.5 -1.16,-0.05 -0.71,-0.49 -0.3,0.01 -0.32,1.21 -1.69,1.32 -0.98,-0.74 -1.47,-0.21 -1.08,-0.82 -1.83,0.51 -0.66,0.54 -1.32,-1.14 -0.48,0.03 -0.73,0.62 0,0 0.03,-1.18 1.17,-1.34 -0.04,-0.75 -2.12,-2.69 -2.8,-2.49 0.06,-0.83 -1.13,-1.56 -0.81,-0.04 -0.3,-0.29 0.16,-1.15 -1.34,-0.85 0.2,-3.08 -0.26,-0.23 0,0 z" 
                fill="rgb(151, 144, 238)" 
                stroke="white" 
                stroke-width=".7px"
                title="Пензенская область" 
                id="RU-PNZ" 
            />
        </svg>