<svg xmlns="http://www.w3.org/2000/svg" viewBox="794.3301099999998 687.0408200000002 62.01999999999998 62.80000000000018" width="62.01999999999998" height="62.80000000000018">
            <path 
                d="m 820.32011,705.97082 3.23,-0.72 0.33,-0.81 -0.31,-2.15 0.98,0.46 0.6,-1.79 0.95,0.01 0.46,-0.33 0.72,0.27 0.73,-0.84 1.05,0.49 0.85,0.03 0.06,0.86 0.66,0.46 -0.5,0.83 0.09,0.38 0.68,-0.03 0.49,-0.58 0.35,0 0.01,0.23 1.19,0.08 -0.21,0.47 1.58,1.17 0.58,-0.77 0.35,-0.03 0.35,0.58 1.33,0.5 0.87,-0.48 1.04,0.16 2.81,-2.16 -0.39,-0.85 0.77,-2.14 1.64,0.34 0.17,0.37 0.86,0.3 2.04,-1.64 0.73,0.26 0.79,-0.38 0.06,-0.7 0.56,-0.08 0.58,-0.56 -0.09,-1.09 -0.62,-0.23 0.51,-0.75 -0.45,0.06 -0.61,-0.43 -0.95,0.21 -1.25,-0.89 -1.21,-0.09 0.18,-0.51 0.79,-0.26 0.17,-0.49 -1.34,-0.79 -0.55,-1.15 1.03,-1.02 1.13,-0.31 0.95,0.31 1.06,-0.46 0.29,-0.61 1.51,-0.26 -0.03,-0.65 0.91,-0.73 1.12,0.34 0.29,1.49 0.54,0.37 -0.06,0.53 1.11,0.14 0.03,0.56 -0.57,0.21 -0.37,0.79 1,0.86 0.46,0.91 -0.12,0.73 -1.61,1.02 -0.12,0.37 0.54,0.59 -0.56,1.33 1.21,0.39 1.22,-0.32 1.02,0.72 0,0 0.34,0.12 -0.44,0.97 -0.94,0.28 -2.03,2.55 -0.66,1.98 -0.98,1.74 -0.03,1.58 -1.17,0.92 -0.56,2.21 -2.37,2.99 -0.6,1.41 -2.33,1.99 -1.6,2.45 -2.43,1.8 -0.26,1.07 -0.94,0.66 -1.38,2.01 0.06,0.57 -0.67,-0.29 -0.1,0.47 -0.28,0.05 0.24,0.27 -0.68,0.46 -0.09,0.91 -0.57,0.89 -1.94,0.84 -0.6,1.46 -1.06,0.91 -0.11,1.39 -0.75,0.28 -0.17,0.63 -0.37,-0.05 0.05,0.71 0.48,-0.17 -0.65,1.29 -1.13,0.78 -0.21,-0.26 0.29,-0.28 -0.65,0.27 0.24,0.15 -0.06,0.62 -0.37,0.25 -0.23,1.02 -1.21,0.36 -1.29,1.17 -0.1,0.41 -0.78,0.06 0.03,0.26 -1.86,1.27 -1.65,0.72 -0.43,0.77 -0.74,0.35 -0.71,0.89 -0.24,-0.24 0.27,-0.01 -0.44,-0.15 -1.07,0.99 -0.49,-0.67 -0.47,0.48 -0.58,-0.08 0.08,0.2 -0.65,0.38 -0.93,0 -0.69,0.68 -1.13,0.31 -0.29,-0.43 0.65,-0.26 -0.74,-0.63 0.08,-0.3 -0.71,0.09 0.09,0.41 -0.46,0.52 -0.61,-1.05 0.09,-0.66 -0.42,0.03 -0.17,0.55 -0.89,0.11 -0.01,-0.23 -0.41,0 0.05,-0.43 -0.57,-0.3 -0.88,0.9 -0.2,-0.7 0.2,-1.32 -0.24,-0.21 0.33,-0.18 -0.12,-0.76 0.55,-0.26 -0.06,-0.33 -0.54,-0.01 0.34,-0.54 -0.14,-0.27 -0.37,0.01 0.13,0.21 -0.48,0.58 -0.85,0.35 -1.33,1.26 -0.34,-0.23 0.3,-1.14 0.63,-0.32 0.44,-0.77 -0.42,-0.11 -0.15,0.35 -0.83,-0.27 -0.38,0.25 -0.24,-0.68 -0.2,1.27 -0.53,0.3 -0.27,0.94 -0.73,0.97 -0.24,-0.07 -0.06,0.66 -0.97,0.06 0.11,0.68 0.59,-0.05 -1.51,1.03 -0.42,1.34 0.13,0.77 -0.69,-0.59 -0.1,-0.56 -0.53,0.38 -0.48,-0.08 -0.31,0.47 -0.83,-0.4 0.2,-0.65 -0.81,-0.02 -0.51,0.44 1.45,1.2 -0.11,0.61 -0.43,0.03 -0.25,1.1 -0.5,0.66 -0.81,-2.43 0.41,-0.09 0.04,-0.76 -0.6,-0.69 -0.57,0.14 -0.39,-0.42 1.06,-0.86 0.94,-0.33 0.62,0.14 0.36,-0.41 1.41,0.15 -0.05,-0.59 0.69,0.02 0.2,-0.42 -0.27,-0.61 0.75,-1.13 -0.08,-0.7 0.84,-1.88 -0.05,-0.68 -0.84,-0.87 0.32,-0.41 -0.18,-2.22 0.64,-2.54 -1.37,-6.12 -1.06,-1.64 0.93,-0.36 0.12,-0.41 1.27,0.06 0.48,-0.58 1.05,0.14 -0.1,-0.26 1.5,-1.22 -0.29,-0.42 0.23,-0.62 0.7,0.05 0.36,-0.98 0.46,-0.28 0.29,0.57 0.9,0.45 0.9,2.82 -0.52,2.18 1.47,1.26 1.75,0.6 0.98,-1.36 1.11,-3.69 0.87,0.36 1.17,-1.08 -0.36,-1.11 0.51,-2.33 0.79,-0.57 0.37,0.29 1.14,-1.65 0.01,-0.3 -0.37,-0.1 0.53,-0.91 -0.24,-0.08 0.1,-0.71 0.46,-0.35 0.28,0.27 0.17,-0.73 0.44,-0.07 0.49,-1.21 -0.34,-0.88 0.89,-0.8 0.26,0.24 0.43,-0.66 0.08,-0.59 -0.37,-0.19 0.53,-0.54 -0.66,-0.81 0.45,-1.15 0.84,-0.81 z" 
                fill="rgb(151, 144, 238)" 
                stroke="white" 
                stroke-width=".7px"
                title="Приморский край" 
                id="RU-PRI" 
            />
        </svg>