<svg xmlns="http://www.w3.org/2000/svg" viewBox="55.22010799999999 558.62082 30.430000000000057 45.11999999999989" width="30.430000000000057" height="45.11999999999989">
            <path 
                d="m 58.240108,558.72082 -0.16,0.34 0,0 0.37,0.55 1,-0.99 1.06,0.15 0.94,0.45 0.95,1.62 0.67,-0.07 3.48,0.96 0.81,-0.08 1.86,1.84 0.16,1.2 1.91,0.6 0.41,1.01 0.63,0.38 0.83,0.09 0.78,-0.43 0,0 0,2.1 -1.85,1.36 0.39,0.64 -0.21,0.96 1.27,0.39 1,0.91 0.08,0.73 0.75,0 1.3,0.64 1.9,0.03 -0.05,0.85 -0.58,0.79 0.64,0.34 -0.48,1.25 0.79,0.57 0.69,0.02 -1.48,1.67 0.26,0.26 -0.46,1.25 2.62,1.81 -1.03,2.61 0.29,0.73 0.72,0.48 0.88,-0.49 0.34,0.18 0,0 -0.27,0.08 -0.48,1.77 -0.65,0.64 0.56,0.05 -0.46,0.44 0.45,0.63 1.27,0.65 -0.21,1.95 1.5,0.36 0.26,0.66 -0.33,0.4 0.67,0.48 1.23,0 0.39,0.35 -0.55,0.09 -0.04,0.64 0.5,0.44 -0.53,0.51 0.47,1.29 -0.17,0.47 -0.86,0.56 0.21,0.8 -0.23,0.57 0.46,1.54 0,0 -1.62,0.42 -0.69,-0.32 -0.47,0.15 -0.59,0.4 0.22,0.26 -0.73,0.68 0,0 -0.34,-0.17 -0.44,0.53 -0.34,-0.13 -0.18,-0.65 -0.39,0.15 -0.36,-1.06 -0.71,-0.25 -0.31,-0.73 -0.96,-0.17 -0.62,-0.62 -0.7,-0.09 -0.36,0.58 -1.08,-0.75 -0.15,0.28 -0.65,0.02 -0.44,1.18 -0.32,-0.3 -0.81,0.23 -1.14,0.95 -0.78,-0.77 0.22,-1.76 0.56,-0.25 -0.47,-0.29 0.08,-0.33 -1.57,-0.24 -0.29,-0.51 -0.72,-0.07 -1.57,0.9 -0.84,-0.02 -0.17,-0.8 -0.33,-0.23 0.13,-0.56 -1.87,-0.13 -0.19,0.53 -0.56,-0.05 -0.36,-0.25 0.15,-0.29 -0.85,-0.57 0.54,-1.8 -0.56,-1.13 0.16,-0.85 -0.63,-1.14 0.3,-0.55 -0.73,-0.26 -0.35,-1.52 -0.6,-0.48 0.53,-0.94 -0.52,-0.12 -0.4,-0.64 -1.3,0.5 0.05,-1 0.39,-0.25 0.08,-0.7 0.09,-1.3 -0.22,-0.15 0.75,-0.86 0.22,-1.83 -1.52,-1.44 -0.97,-0.47 0.36,-0.5 -0.1,-0.73 -1.16,0.09 -0.49,-0.65 0.63,-0.44 -0.2,-0.75 0.24,-0.42 0.59,-0.3 0.24,0.18 0.14,-0.32 -0.37,-0.75 0.3,-0.07 0.1,-0.53 1.14,-0.2 0.53,0.24 0.31,-0.38 -0.21,-0.76 -0.71,-0.21 -0.05,-1.1 -0.35,-0.19 0.26,-0.71 -0.78,-0.67 -0.64,-1.79 0.56,-1.68 -0.74,-5.59 0.35,-0.95 z" 
                fill="rgb(151, 144, 238)" 
                stroke="white" 
                stroke-width=".7px"
                title="Псковская область" 
                id="RU-PSK" 
            />
        </svg>