<svg xmlns="http://www.w3.org/2000/svg" viewBox="461.49011 639.7908200000007 42.23999999999984 40.359999999999786" width="42.23999999999984" height="40.359999999999786">
            <path 
                d="m 484.01011,640.36082 0.34,0.33 0.95,-0.22 0.29,0.49 -0.12,0.45 2.26,0.92 0.48,-0.05 1.09,-1.28 0.46,-0.04 1.78,1.59 0.84,-0.3 0.83,0.23 0.33,0.92 -0.16,1.81 0,0 -1.06,1.33 -1.59,0.39 -0.98,2.63 0.67,0.68 0.63,-0.22 0.11,0.55 -0.78,1.32 -0.71,0.23 -0.02,0.59 0.24,0.51 0.95,0.27 0.74,0.86 1.16,0.45 -0.02,0.3 0.54,0.4 1.36,-0.5 0.54,-0.8 0.14,-1.17 0.37,-0.47 0.33,0.09 0,0 1.47,1.71 -0.41,1.21 0.78,1.66 -0.06,0.95 1.09,0.87 0.09,0.73 0.65,0.63 0.53,-0.04 0.44,0.89 0.82,0.71 0.13,0.86 2.03,1.63 0.17,0.48 -0.5,0.96 -0.62,0.27 -0.85,-0.26 -0.36,-0.87 -0.4,-0.1 0.3,1.14 -0.9,0.53 -0.54,0.83 0.04,0.42 1.13,0.23 0.67,0.93 0.16,1.65 0,0 0.25,1.42 0.7,0.27 -0.4,0.94 -1.7,0.56 -0.49,0.71 -0.98,-0.65 -0.36,0.61 0.22,0.57 -1.64,0.76 -0.44,-0.87 -0.28,0.01 -0.32,0.43 0.12,0.73 -1.32,-0.27 -0.34,-0.58 -0.58,0.5 -1.52,-0.29 -0.83,0.2 -0.91,1.27 0.72,0.82 -0.34,0.5 -0.68,-0.13 -0.5,0.95 -2.03,0.11 -0.95,0.46 -0.41,-0.16 -0.06,0.4 -1.02,0.21 -0.35,-0.15 -0.32,-1.28 -0.69,-0.38 -0.97,-0.06 -0.26,-0.45 -0.42,-0.06 -0.24,-1.21 -0.68,-0.39 -0.08,-1.04 -1.21,-0.42 -0.09,-0.66 1.16,-0.77 0.15,-1.02 -1.36,0 -0.04,0.53 -1.3,1.29 -1.35,0.62 -0.5,1.34 -0.46,-0.61 -1.22,0.21 -0.11,-0.63 -1.76,-0.02 -0.88,-0.52 -0.94,0.44 -1.02,-0.29 -0.57,-0.58 0.05,-0.83 -0.72,-1.74 -0.89,-0.51 0.05,-0.83 0.33,-0.08 -0.14,-0.46 -3.85,-2.3 -1.1,0.28 -0.64,-0.87 -0.01,-2.39 -1.31,-1.49 0,0 2.41,-0.81 0.36,0.16 0.52,-0.35 -0.08,-0.53 0.76,-0.6 -0.94,-0.56 0.19,-0.92 -2.17,-0.4 -0.67,-0.67 -0.8,0.09 -0.12,-0.7 0.83,-0.36 0.35,0.38 0.39,-1.78 1.81,-0.25 2.08,-1.61 1.15,-0.09 0.93,-0.64 1.47,-0.16 1.81,-0.75 -0.16,-0.71 1.84,-1.49 0.24,-1.07 0.71,-0.35 -0.33,-1.86 1.71,-0.3 2.22,0.49 0.58,-1.1 2.05,-0.04 -0.07,-1.74 -0.38,-0.3 0.25,-1.52 -0.34,-0.94 1.9,-1.44 0.66,-0.11 z" 
                fill="rgb(151, 144, 238)" 
                stroke="white" 
                stroke-width=".7px"
                title="Республика Алтай" 
                id="RU-AL" 
            />
        </svg>