<svg xmlns="http://www.w3.org/2000/svg" viewBox="69.600108 437.9108200000003 61.890001999999924 97.27999999999963" width="61.890001999999924" height="97.27999999999963">
            <path 
                d="m 109.40011,470.65082 -0.98,0.47 0.57,0.28 0.19,0.85 0.5,0.3 -0.03,0.46 0.42,0.41 -1.36,1.48 0.79,0.57 0.44,-0.18 0.16,1.21 0.51,0.26 0.57,-0.21 0.11,1.08 1.46,0.19 -0.11,0.69 0.57,0.21 0.98,-0.7 0.37,0.25 0.32,-0.45 -0.3,-0.66 0.98,0.47 0.2,0.52 0.42,-0.02 0.42,0.54 0.3,0.51 -0.22,0.5 0.58,0.78 0.59,-0.52 1.35,1.34 -0.37,0.38 0,0.59 0.58,0.25 -0.12,0.93 0.24,0.34 1.26,0.04 0.06,0.3 1.01,0.27 0,0 -0.19,0.62 0.56,2.02 -1.83,2.62 -1.24,-0.35 -0.57,0.37 -1.35,-0.21 2.05,2.89 0.09,1.29 0.76,0.78 0.11,0.52 -0.59,0.78 0.24,0.25 0.88,-0.41 -0.09,0.58 -0.9,1.18 0.2,1.79 2.21,3.17 3.19,1.95 2.03,-0.36 0.71,0.27 0.82,1.29 0.1,2.65 -0.55,1.77 -0.51,0.03 0.07,0.62 0.64,0.79 0.97,-0.16 0.31,0.32 0.81,1.99 -0.07,0.79 0.73,0.58 0.04,1.09 -0.7,1.77 0.57,0.59 -0.04,0.32 -0.96,1.13 -0.07,2.11 0,0 -2.83,0.4 -0.63,-0.33 -0.42,-0.71 -0.42,0.03 -0.83,-0.6 -0.88,0.38 -0.49,0.86 -1.41,-0.54 -1.6,2.54 -5.68,3.19 0,0 0,0 0,0 0,0 0,0 -0.52,-0.55 -0.8,1.01 -0.28,-0.06 -0.74,-0.52 0.02,-1.59 -1.38,0.84 -2.53,-1.29 -2.13,1.46 -0.24,1.36 -1.89,-1.74 -0.58,0.27 -2.55,-0.32 -2.170002,1.19 0.22,0.61 1.090002,0.85 0.85,-0.49 0.93,0.42 -0.81,2.01 -0.26,0.28 -1.27,-0.84 -0.950002,-0.11 0,0.65 -0.78,0.4 -1,1.09 -0.45,1.32 -0.63,0.37 -0.61,-0.14 -1.25,1.68 -1.08,-0.07 -18.44,-7.19 -0.85,-0.05 -1,-0.67 -1.18,0 -0.5,-0.86 -0.96,-0.4 -0.78,-0.95 0,0 1.29,-1.76 0.01,-0.53 0.96,-0.19 1.66,-2.76 1.21,-1.12 0.31,-0.92 1.7,-1.8 -0.02,-0.42 2.13,-2.71 0.33,-0.96 2.15,-1.7 -0.1,-0.34 1.57,-1.76 3.01,-7.19 -0.89,-1.88 -1.29,-1.26 -0.34,-1.79 -3.2,-2.91 -2,-0.85 -3.76,-4.71 1.94,-1.13 1.77,-3.13 0.41,-1.57 -0.59,-1.39 0.28,-0.38 -0.2,-0.58 -0.83,-0.37 -0.75,-0.99 -1.04,-0.36 -0.48,-0.75 0.11,-0.92 -0.42,-1.65 0.09,-0.56 0.87,-1 -0.71,-1.26 0.33,-0.82 -0.32,-0.26 -2.11,0.04 -0.48,-0.5 -0.37,-1.19 -0.26,-1.69 0.21,-1.19 0.78,-0.52 0.77,0.04 0.35,-0.28 -0.45,-0.57 0.49,-0.96 -0.13,-0.32 -1.58,-0.25 -0.35,-0.4 1.14,-1.42 -0.19,-2.27 0.97,-1.71 -1.03,-1.09 1.95,-1.08 0.85,0.42 0.02,-1.21 -0.38,-2.98 -1.19,-4.11 -1.72,-2.72 -0.56,-2.4 -1.27,-2.88 0,0 2.69,-0.63 2.43,0.17 2.91,-0.28 1,-0.36 2.85,0.2 2.05,-0.27 -0.07,0.35 1.64,0.1 0.13,1.88 1.02,0.45 0.8,2.07 3.13,0.11 0.22,-0.33 -0.2,-0.94 1.1,0.39 -1.19,-1.04 1.56,-0.17 0.29,-1.78 0.29,-0.21 1.91,0.26 0,0 2.42,0.92 -2.18,0.25 1.22,0.34 1.32,-0.38 0.48,0.37 -0.22,0.11 0.19,0.43 0.59,0.29 1.02,0.29 0.18,-0.57 0.420002,0 -0.310002,0.63 1.110002,0.52 -1.590002,0.39 1.320002,0.98 -1.450002,0.09 -3.3,1.31 1.73,-0.3 0.71,-0.55 0.55,-0.03 0.04,0.28 1.130002,-0.33 0.21,0.14 -0.35,0.45 1.5,0.14 0.08,0.41 0.79,0.25 -0.14,0.56 0.53,-0.44 1.08,-0.05 0.54,0.65 -0.24,0.44 0.48,-0.1 -0.04,0.24 -0.01,-0.43 0.25,0.05 0.52,0.55 -0.13,0.21 0.34,-0.05 1.27,1.04 0.15,0.65 0.28,-0.12 0.19,0.26 0,0.48 0.66,0.4 0.11,0.38 -0.35,0.08 -0.11,0.63 0.3,0.12 -0.21,0.26 0.17,0.54 0.25,-0.45 0.75,0.2 0.17,0.42 -0.23,0.61 -0.54,0.15 0.72,0.29 -0.87,-0.2 -0.57,0.49 0.27,0.09 -0.16,0.34 0.29,0.54 -0.25,0.6 0.36,-0.28 0.35,0.35 -0.71,0.47 0.45,0.04 0.49,1.24 -0.16,0.26 -0.27,-0.29 0.01,1.08 -0.74,0.67 0.28,0.86 -0.56,0.25 -0.81,-0.2 0.32,0.61 -1.22,-0.12 0.58,0.7 -0.57,-0.26 -0.57,0.18 1.54,0.73 -0.35,0.35 0.2,1.12 0.46,-0.13 -0.06,0.64 0.47,-0.17 0.36,0.48 -0.33,0.04 0.69,0.72 -0.43,0.17 0.32,1.08 0.76,0.12 -0.28,0.61 0.24,0.11 -0.09,0.45 0.21,-0.18 -0.17,0.37 0.38,-0.44 -0.11,0.34 -0.95,0.63 0.66,0.13 0.38,0.92 0.09,-0.27 0.36,0.28 -0.09,0.37 0.59,0.69 -0.57,1.02 z" 
                fill="rgb(151, 144, 238)" 
                stroke="white" 
                stroke-width=".7px"
                title="Республика Карелия" 
                id="RU-KR" 
            />
        </svg>