<svg xmlns="http://www.w3.org/2000/svg" viewBox="170.67011 735.44082 11.210000000000008 11.770000000000095" width="11.210000000000008" height="11.770000000000095">
            <path 
                d="m 177.89011,735.73082 0.33,0.22 1.73,-0.51 0.98,0.16 0.8,0.99 0,0 -0.23,1.06 0,0 -0.71,-0.38 -0.27,0.97 -0.4,-0.07 -0.18,-0.54 -0.81,0.11 -0.1,1.27 0.56,0.51 -0.13,1.61 0.77,0.03 1.28,1.32 0.37,1.55 -0.93,0.94 -0.72,-0.16 -0.26,-0.5 -0.27,1.06 0,0 -1.22,-0.04 -1.32,0.38 -0.82,0.84 -1.25,0.21 -0.62,0.45 -1.27,-0.28 -0.28,-0.39 0.43,-1.19 -1.05,-0.49 -0.6,-0.64 -1.03,-0.29 0,0 0.49,-0.42 0.57,0.36 0.65,-0.29 1.99,-3.26 0.39,0.6 0.47,-0.24 0.27,0.34 -0.36,0.05 0.15,0.24 0.37,0.07 0.38,-0.44 -0.16,-1.04 0.28,-0.32 0.72,0.34 0.72,-0.5 0.66,0.28 0.21,-0.19 0.19,-2.23 -0.84,-0.79 z" 
                fill="rgb(151, 144, 238)" 
                stroke="white" 
                stroke-width=".7px"
                title="Республика Северная Осетия — Алания" 
                id="RU-SE" 
            />
        </svg>