<svg xmlns="http://www.w3.org/2000/svg" viewBox="198.36011000000008 589.51082 49.63000000000005 33.44000000000085" width="49.63000000000005" height="33.44000000000085">
            <path 
                d="m 218.39011,589.98082 0.64,0.26 0.42,-0.41 0.55,0.3 0.59,-0.62 1.43,2.1 -0.12,0.57 0.67,1.32 1.18,0.35 -0.2,-0.85 0.52,-0.28 0.45,0.49 0.25,0.82 -0.27,1.17 0.77,1.15 0.75,0.53 0.53,-0.17 0.81,0.64 0.5,-0.02 0.24,-0.59 0,0 1.53,-0.44 0.36,0.2 -1.1,0.87 -0.71,1.1 -0.06,0.36 0.66,0.49 1.07,-0.48 1.36,0.39 0.82,-0.26 0.49,0.08 0.82,0.9 0.37,-0.07 0.38,-0.56 -0.2,-1.67 0.94,-0.48 0.85,1.02 0.99,-0.64 0.55,0.82 0.52,-0.42 -0.48,-1.23 0.22,-0.24 0.83,0.4 0.18,-0.51 -0.57,-0.68 -1.6,-0.6 -0.02,-0.24 1.21,-1.11 1.02,-0.24 0.52,-0.92 -0.25,-0.52 1.05,-0.8 0.32,0.47 -0.79,1.46 0.21,2.33 1.45,1.19 0.66,0.14 0.38,-0.49 -0.5,-1.29 0.24,-0.37 1.64,0.62 -0.05,1.42 -0.97,0.66 -0.02,0.86 -1.04,0.71 -0.14,0.42 0.9,0.82 2.96,-1.34 0,0 1.06,0.5 0.52,1.17 0.53,0.33 -0.16,0.23 0.9,0.47 0.04,1.02 -1.37,1.25 0.07,0.82 -0.45,0.47 -0.38,1.21 -1.59,0.87 -1.06,1.37 -0.78,-0.02 -1.72,0.69 -0.29,0.65 0.86,0.27 1.08,0.9 0.7,1.08 0.92,-0.04 0.3,0.45 -0.61,1.11 0.24,1.24 -1.18,1.97 -0.29,1.14 -0.39,2.27 0.39,1.75 -0.25,0.82 0,0 -0.22,0.09 -0.88,-1.03 -1.37,0.62 0.12,-0.83 -0.76,-0.44 0.11,-0.49 1.19,-0.36 0.1,-0.3 -0.47,-0.65 -0.66,0.54 -1.42,-0.77 -1.36,0.03 -0.35,-0.43 0,0 -0.32,-0.81 -0.3,-0.09 -0.52,0.43 -0.63,-0.34 -1.7,1.36 -0.13,-0.64 -0.74,-0.54 0.04,-0.78 -0.84,-0.17 -1.76,-1.03 -0.47,-0.77 -0.81,0.99 -0.31,-0.15 0.12,-1.11 -0.68,0.59 -0.93,-0.39 0.03,0.51 -1.19,1.09 0.07,1.17 -0.43,1.14 -1.39,-1.26 -1.58,1.44 -0.37,-0.15 0.16,-0.56 -0.52,-0.85 -0.34,-0.18 -0.57,0.56 -0.61,-0.89 -1.06,-0.38 0,0 -1.46,0.04 -0.76,-0.83 -1.36,0.02 0.15,-0.5 -1.21,-2.32 -1.15,-0.98 -0.4,0.43 -0.15,-0.3 -0.27,0.18 -0.3,0.53 -0.78,0.09 0.89,0.43 -0.95,0.06 -1.15,1.7 -0.88,0.31 -1.47,0.01 -0.65,-0.69 -0.99,-0.25 -0.01,-0.74 -0.64,0.17 -0.57,-0.4 -0.47,0.76 -0.73,-0.12 -0.24,1.24 -0.45,-0.27 -0.08,-1.05 -0.44,-0.33 -0.51,0.18 0.09,0.54 -0.98,1.13 0.16,0.73 -0.29,0.15 -0.86,-0.43 -0.29,0.6 -0.31,-1.15 0.26,-0.31 -0.83,-0.97 0,0 1.25,-0.52 -0.53,-0.81 0.48,-0.41 -0.09,-0.42 0.99,0.76 1.15,0.15 -0.12,-0.7 1,0.05 -0.36,-1.29 2.25,-0.39 0.01,-0.38 -0.94,0.39 -0.42,-0.56 0.14,-0.7 0.95,-0.53 -0.78,-1.99 -0.55,-0.18 0.06,0.72 -0.43,-0.05 -0.52,0.64 -0.45,-0.16 0.11,-1.03 0.14,-0.38 0.78,-0.23 1.19,-1.76 1.08,-0.87 -0.79,-0.41 -0.04,-0.67 1.2,-0.45 0.53,-0.86 1.02,-0.21 -0.03,-0.73 0,0 -0.12,-0.82 1.52,-1.17 0.43,-1.37 0.89,0.27 0.57,-1.12 0.72,0.02 0.57,-0.81 0.08,-0.4 -1.11,-0.02 -0.18,-0.54 0.53,-0.94 1.02,-0.63 1.83,0.43 0.48,-0.98 0.82,0.11 0.41,-0.91 1.05,-0.39 0.58,0.34 -0.34,0.52 0.3,0.46 0.89,-0.61 0.44,0.46 0.51,-0.9 0.82,-0.32 0.05,-0.3 -0.27,-0.45 -0.61,-0.08 z" 
                fill="rgb(151, 144, 238)" 
                stroke="white" 
                stroke-width=".7px"
                title="Республика Татарстан" 
                id="RU-TA" 
            />
        </svg>