<svg xmlns="http://www.w3.org/2000/svg" viewBox="186.54011000000008 581.1508199999997 32.85999999999996 19.559999999999945" width="32.85999999999996" height="19.559999999999945">
            <path 
                d="m 194.64011,586.18082 2.6,0.3 0.41,0.54 -0.17,0.6 1.66,-0.52 0.87,0.3 0.12,-0.81 1.68,-1.99 0.85,0.8 1.34,-0.09 0.74,-0.25 0.03,-0.67 0.54,-0.2 0.25,-0.82 0.71,0 0.45,0.56 0.75,-0.84 0.88,0.37 0.93,-0.44 0.46,0.32 -0.27,0.72 0.79,0.31 0.29,-0.16 0.14,-0.87 0.58,-0.49 -0.36,-0.66 0.17,-0.72 1.11,-0.32 0.29,0.46 -0.45,0.75 0.02,0.77 0.61,1.67 0.7,0.31 0.7,-0.55 1.13,-0.27 1.01,0.56 -0.1,0.46 0.3,0.5 -0.29,0.98 1.41,0.41 0.43,-0.17 0.62,0.39 0.3,0.89 -0.48,1.67 0,0 0.13,0.58 0.61,0.08 0.27,0.45 -0.05,0.3 -0.82,0.32 -0.51,0.9 -0.44,-0.46 -0.89,0.61 -0.3,-0.46 0.34,-0.52 -0.58,-0.34 -1.05,0.39 -0.41,0.91 -0.82,-0.11 -0.48,0.98 -1.83,-0.43 -1.02,0.63 -0.53,0.94 0.18,0.54 1.11,0.02 -0.08,0.4 -0.57,0.81 -0.72,-0.02 -0.57,1.12 -0.89,-0.27 -0.43,1.37 -1.52,1.17 0.12,0.82 0,0 -2.89,-1.54 -0.85,-2.21 -2.16,-0.36 -0.81,-0.47 -0.61,-1.62 -0.43,-0.37 -1.2,0.12 -2.62,1.77 -0.71,0.87 -0.5,0.09 -0.86,-0.45 -2.72,1.8 0,0 -0.46,-1.27 0.08,-0.71 -1.63,-1.2 0.71,-0.92 -0.07,-0.83 -1.26,-0.83 -0.92,0.19 -0.19,-0.56 0.29,-1.15 0.67,-0.77 1.04,0.06 -0.12,-2.29 0.56,-0.75 2.15,-0.46 0.67,-0.85 1.5,0.49 0.56,-0.15 0.38,-0.66 z" 
                fill="rgb(151, 144, 238)" 
                stroke="white" 
                stroke-width=".7px"
                title="Республика Марий Эл" 
                id="RU-ME" 
            />
        </svg>