<svg xmlns="http://www.w3.org/2000/svg" viewBox="183.44011000000003 722.88082 23.70999999999998 37.47000000000003" width="23.70999999999998" height="37.47000000000003">
            <path 
                d="m 187.10011,723.15082 0.86,-0.27 3.99,0.66 1.2,1.01 1.41,0.59 1.06,-0.43 0,0 -0.34,1.43 -0.4,0 0.03,0.59 0.26,0.08 -0.33,0.45 0.48,0.26 -0.73,0.34 0.15,0.35 0.66,-0.08 1.08,0.73 0.58,1.92 0.27,0.21 0.41,-0.33 0.25,0.29 0.36,1.15 1.77,2.59 -0.51,2.28 -0.47,0.38 0.38,0 -0.15,0.37 0.26,0.31 1.23,-3.89 0.66,-0.26 0.27,0.26 -2.03,4.97 0.27,0.64 0.29,-0.49 0.36,0.59 -0.66,0.69 -0.43,1.98 1.7,1.36 0.31,2.39 2.45,3.06 2.14,4.13 0.96,0.45 -0.65,2.27 -1.17,1 -1.48,0.32 -1.19,2.56 -0.9,0.29 -0.93,-0.47 -0.63,0.3 -0.37,-0.57 -1.54,-0.49 -1.1,-2.52 -0.76,0.25 -0.08,-0.7 -0.69,-0.96 -0.41,-0.01 -0.46,-0.52 -0.19,-0.71 -1.39,0.5 -0.2,-0.69 -0.73,-0.15 -0.35,-0.62 -0.53,0.21 -0.48,-0.62 -0.55,0.13 -0.31,-0.29 -0.13,0.26 -0.31,-0.47 -0.86,0.14 -0.4,-0.73 -0.72,-0.17 -1.23,-0.88 0.2,-0.76 0.75,-0.15 -0.14,-0.65 0.34,-0.87 0,0 0.94,-0.54 0.27,-0.66 0.55,0.08 0.22,-0.94 1.32,-0.37 -0.63,-0.87 0.74,-0.61 0.91,-0.3 0.21,0.47 0.31,0.04 0.76,-0.77 -0.27,-0.39 0.11,-0.82 -0.53,-0.27 0.14,-1.34 -0.79,-2.03 1.64,-2.84 0.16,-0.84 -0.1,-0.42 -0.72,-0.38 0.01,-0.45 -0.58,-0.78 -1.09,0.91 0.1,0.59 -0.92,0.14 -0.53,0.51 0.03,-1.21 -1.33,-0.34 -0.84,0.33 -1.55,-0.73 0,0 -0.03,-1.56 -0.56,-0.21 -0.93,0.39 -1.14,-0.54 0.2,-0.4 1.54,-0.46 0.3,-0.49 -0.08,-1 -1.25,-0.28 0.24,-0.31 -0.16,-0.63 1.4,-0.73 0.68,-1.03 0.33,-0.75 -0.39,-1.09 z" 
                fill="rgb(151, 144, 238)" 
                stroke="white" 
                stroke-width=".7px"
                title="Республика Дагестан" 
                id="RU-DA" 
            />
        </svg>