<svg xmlns="http://www.w3.org/2000/svg" viewBox="566.7001100000006 582.5208199999995 131.23999999999967 88.0600000000004" width="131.23999999999967" height="88.0600000000004">
            <path 
                d="m 570.72011,636.34082 0.29,-0.95 0.86,-0.64 -0.01,-0.64 1.77,-0.25 1.73,-1.09 0.06,-1.21 1.71,0.17 0.31,-0.77 0.88,-0.27 0.65,1.56 0.04,1.64 0.59,0.97 2.26,1.53 0.91,1.32 3.54,2.19 1.66,1.68 0.59,1.43 1.11,0.5 1.19,1.11 0.79,-0.48 1.31,0.35 0.8,-0.24 1.02,0.44 0.17,1.2 0.47,0.2 1.41,1.98 1.99,0.93 0.69,1.85 -0.14,1.26 0.29,1.06 0.63,0.6 2.37,0 1.04,0.77 0,2.92 0.74,-0.2 0.57,-0.6 1.07,-0.23 0.46,-0.55 1.4,-0.16 0.64,-0.41 0.43,0.28 0.48,-0.51 -0.02,-1.43 0.57,-1.04 4.81,-2.68 8.16,-9.53 7.53,-4.49 3.87,-3.82 2.93,-8.8 0.26,-5.76 0.45,-0.6 -0.52,0.02 0.57,-1.31 0.49,-0.4 -0.07,-2.48 0.27,-0.84 -0.21,-1.49 0.45,-2.09 -0.61,-0.4 -0.1,-0.45 -0.08,-2.06 0.42,-0.67 -0.17,-0.86 0.49,-0.36 1.07,-3.83 0.74,-0.24 1.25,0.16 0.38,-0.6 -1.26,-0.76 -0.52,0.04 -0.94,-2.52 -1.02,-0.4 -0.95,-1.13 1.08,-1.7 0.07,-0.65 -0.38,-0.24 0.2,-0.33 1.7,-0.24 1.12,-1.09 0.86,0.05 1.99,-0.79 1.45,0.3 1.26,-1.09 0.26,-1.53 0.67,-0.9 2.72,0.53 1.36,1.12 1.21,-0.39 0.64,0.28 1.21,-0.13 0.97,0.55 1.33,-1.25 -0.06,-0.61 0.64,-1.22 1.07,-0.94 0.48,0.2 1.42,2.4 0.38,0.09 0.4,-0.49 1.25,0.18 0.93,0.91 1.53,0.27 1.23,-1.38 0.6,0.06 0.08,1.83 1.35,1.33 2.59,0.9 2.34,-0.45 1.44,0.78 0.27,0.74 0.85,0.17 0.4,-0.1 0.26,-0.83 1.01,-1.04 2.14,0.33 0.63,-0.51 1.59,-0.02 0.4,-0.35 0.4,-1.39 1.42,-2.14 0.01,-1.38 3.95,-0.07 1.31,-1.39 2.11,-0.12 0.99,1.22 -0.86,0.33 -2.61,2.23 0,0 0,0 0,0 0,0 0,0 -1.16,1.07 0.21,1.86 -1.17,1.19 1.63,0.88 0.34,1.15 0.35,0.25 0.09,0.44 -0.6,0.17 -0.01,0.8 1.03,2.43 -0.42,1.94 0.61,1.34 -0.2,1.66 0.51,1.52 0.24,3.58 1.6,0.55 1.64,-0.11 1.49,2.21 1.47,1.02 0.9,2.56 -0.6,2.22 -0.4,0.29 0.01,0.72 -0.72,0.94 -1.24,0.15 -0.31,0.3 -1.54,-0.15 -5.12,1.51 -0.78,1.48 -1.68,0.93 -2.64,2.35 -1.71,0.65 -0.87,1.62 -1.04,0 -0.21,0.39 -2.43,0.83 -0.99,1.19 0.01,2.46 0.69,0.67 0.01,0.95 1.14,0.88 0.53,-0.06 0.14,0.73 -0.47,0.47 0.27,0.3 1.12,0.18 -0.23,1.5 -0.31,0.16 -0.11,1.24 -1.21,1.7 -2.09,0.6 -1.49,1.78 -3.17,0.34 -1.42,1.2 -2.32,-0.13 -0.6,0.26 -0.8,1.19 -1.54,-0.33 -0.3,-0.41 -0.67,0.18 -3.12,3.95 -4.16,1.63 -0.51,0.92 -0.93,0.66 -0.22,1.07 -1.1,0.83 -1.75,-0.2 -0.43,-0.82 -2.78,-0.09 -1.16,0.6 -1.23,1.32 -2.76,0.88 -1.28,-0.66 -0.09,-0.43 -2.46,0.14 -0.84,-0.58 -0.08,1.02 -0.33,0.22 -0.38,-0.19 -0.21,1.3 -0.6,1.11 1.27,1 -0.77,0.7 -1.06,0.27 -0.34,2.94 -0.95,0.5 -0.17,0.52 0.73,0.75 1.71,0.58 0.58,0.81 1.03,0.11 -0.35,0.82 -1.06,-0.28 -1.1,0.75 -0.8,0.14 -0.92,0.82 -0.59,-0.09 -0.56,1.34 -1.33,0.88 0.16,0.94 0,0 -0.35,0.31 -0.81,-0.04 -1.3,-0.19 -0.52,-0.51 -0.4,0.33 -0.89,-0.31 -1.29,-2.26 -1.5,-1.11 -1.36,-0.29 -2.07,0.58 -1.34,-0.62 -0.32,-0.68 -3.13,-0.23 -1.6,-0.53 -0.6,0.05 -1.33,0.92 -1.16,-0.06 -2.64,0.95 -1.32,0.09 -0.86,0.59 -0.41,0.74 -1.2,0.36 -1.84,-0.61 -0.96,0.78 -1.65,-0.86 -0.86,0.16 -0.67,-1.18 -2.23,-0.08 -0.65,-0.72 -1.31,-0.57 -0.8,-1.16 -0.91,-0.21 -0.73,-0.55 -0.06,-0.56 0.46,-1.01 -0.95,-1.15 0.3,-1.41 -0.52,-1.21 -0.31,-2.19 0.44,-0.67 -0.93,-0.81 -2.43,-0.78 -0.62,0.11 -0.57,-0.56 -0.71,0.02 -0.73,0.46 -0.98,-1.01 -0.7,0.04 -4.5,-2.39 -3.74,-0.04 -1.91,-1.71 -2.91,-0.7 -0.35,-0.68 -1.61,-0.6 -0.42,-0.6 0,0 -0.13,-1.08 -0.99,0.1 -0.24,-0.24 0.13,-0.76 -1.22,0.17 0,-1.84 1.2,-1.23 0.11,-0.99 0.73,-0.72 0.23,-1.42 -0.54,0.09 -0.19,-0.26 0.23,-0.94 0.8,-0.52 0.65,0.6 0.71,0.17 z" 
                fill="rgb(151, 144, 238)" 
                stroke="white" 
                stroke-width=".7px"
                title="Республика Бурятия" 
                id="RU-BU" 
            />
        </svg>