<svg xmlns="http://www.w3.org/2000/svg" viewBox="616.0201099999988 218.23081999999997 410.50999 386.6300000000008" width="410.50999" height="386.6300000000008">
            <path 
                d="m 830.95011,274.28082 -0.27,-0.86 1.25,0.43 3.25,3.87 0.52,1.32 1.06,1.07 0.18,1.67 -0.85,1 -0.79,-0.78 0.03,-0.72 -0.86,-1.31 -1.47,-1.23 -0.36,-1.62 -0.76,-0.81 -0.13,-1.04 -0.33,0.2 0.25,0.69 -0.76,-0.3 0.04,-1.58 z m 13.86,66.19 -0.01,0.26 -0.48,-0.63 -0.29,0.09 -0.12,0.68 -0.94,-0.37 -1.23,-1.05 0.16,-0.74 0.53,-0.14 0.78,0.99 -0.35,-0.53 1.61,-0.81 1.58,0.1 0.12,0.39 0.26,-0.3 0.36,0.29 0.39,-0.27 1.22,0.03 0.71,1.06 -0.04,0.71 -1.13,1.83 -0.75,0.29 -0.87,-0.74 -0.17,-0.74 -1.17,-0.15 -0.17,-0.25 z m 18.77,-46.37 2.31,-0.14 2.16,-2.35 1.04,-2.39 0.39,-1.83 0.39,-0.3 -0.34,0.04 0.15,-0.81 0.48,-0.49 0.6,-1.73 0.81,-0.94 0.87,0.57 0.71,-0.06 1.39,-0.93 3.66,-0.92 1.48,1.42 2.08,0.77 4.91,5.26 1.37,2.04 0.97,2.31 -0.07,0.6 -0.53,0.58 -0.12,1.5 0.49,2.73 0.34,0.43 -2.57,1.05 -3.46,-1.3 -2,0.14 -1.28,-0.73 -4.88,-0.98 -1.83,-0.8 -3.49,-2.33 -1.18,-0.26 -2.12,0.35 -3.18,1.85 -0.66,-0.13 -0.67,-1.45 0.4,-0.75 1.38,-0.02 z m 7.62,-18.45 -0.37,0.88 0.31,1.31 -0.24,1.35 -0.54,0.83 -0.89,0.24 -0.93,0.58 -0.69,0.92 -0.39,-0.03 0.12,0.36 0.69,-0.13 -0.13,0.2 -1.16,-0.09 -0.82,-0.71 -1.19,-2.44 -0.33,-1.48 0.2,-3.1 0.41,-0.82 0.93,-0.6 3.39,-0.39 1.3,0.76 0.41,1.07 -0.08,1.29 z m -40.17,-35.18 0.35,-0.28 0.53,-2.1 0.18,-2.32 -0.24,-2.43 0.72,-3.06 0.04,-0.84 -0.39,-0.45 0.36,-1.03 1.6,5.32 1.03,1.28 1.03,0.67 -0.92,1.35 -0.82,2.18 -0.12,0.62 0.65,1.07 -1.34,1.91 -2.17,0.25 -0.27,-0.24 -0.22,-1.9 z m 165.38,203.41 -0.84,1.66 1.13,2.21 -0.42,0.47 -0.88,-0.21 -0.57,0.22 -0.51,-0.96 -0.99,-0.26 -1.63,0.74 -1.4,0.19 -0.83,1.36 -0.86,0.56 -0.02,0.99 -0.32,0.43 -2.19,-0.12 -1.33,-1.06 0.56,-0.49 -0.08,-0.74 -1.8,-1.17 -0.24,-1.42 -0.32,-0.13 -1,1.15 -0.16,1 -0.74,0.49 -0.72,-0.37 -1.67,0.08 -0.95,-0.77 -0.37,-1.21 -1.23,0.8 -1.54,-0.48 -1.6,0.25 -0.44,-0.85 -0.81,0.17 -0.49,0.92 -0.96,0.26 -0.32,-0.92 -0.75,-0.05 -0.45,-0.52 -0.65,-0.19 -1.11,0.69 -0.03,0.83 -1.25,0.79 0.2,0.79 0.93,0.84 -0.07,1.3 -1.3,1.97 -0.92,0.04 0.15,-0.98 -0.39,-0.47 -0.94,0.24 -1.31,-0.13 -0.52,0.57 -1.08,0.34 -0.21,1.52 0.51,0.19 -0.3,1.4 0.26,0.6 -1.09,1.36 -0.2,0.95 0.82,0.74 -0.14,0.83 -0.6,0.83 -0.83,0 -0.45,0.47 -0.01,0.64 -0.59,0.21 -1.19,-0.39 -0.92,0.75 -1.05,0.28 0.01,0.56 -0.6,0.78 -0.08,1.85 -0.92,0.51 0.93,3.71 1.11,0.58 0.13,0.48 -0.33,0.78 -1.43,0.83 -0.7,1.33 -0.97,0.18 -0.21,0.43 0.81,1.26 -0.33,0.81 -1.76,0.44 -0.49,-0.29 0.42,-1.04 -1.36,-0.6 -1.58,0.72 -0.69,0.01 -0.78,1.73 -0.54,0.19 -0.79,-1.03 -0.75,0.6 -0.33,-0.42 -0.74,0.61 -1.17,0.14 -1.56,-0.38 -0.41,0.67 0.09,2.27 -0.78,-0.03 -1.09,-0.68 -1.04,0.14 -0.26,-0.83 -1.11,-0.93 0.12,-0.92 -0.29,-0.62 0.71,-0.62 0.05,-0.61 -1.15,-0.64 0.01,-0.65 -1.01,-0.16 -0.35,0.73 -2.49,1.85 -0.83,-0.37 0.16,0.73 -0.97,-0.1 -0.79,-0.85 -1.02,-0.3 -0.32,0.76 -0.84,-0.72 -0.82,0.57 -1.06,-0.55 -0.13,-0.92 -0.82,-0.42 -1.47,1.66 -0.82,0.42 0.26,1.32 1.54,1.97 -1.65,2.55 -0.3,0.84 0.09,0.99 -0.71,0.24 -1.25,-0.22 0.26,-0.59 -1.21,-0.95 0.5,-1.39 -0.43,-0.44 -1.26,0.82 -0.74,-0.21 -0.21,0.99 -0.8,-0.05 -2.4,-1.85 -2.2,0.34 -1.2,-0.58 -0.42,0.33 -0.71,2.54 -0.87,1.2 -3.47,1.45 -0.2,0.69 0.33,1.95 -0.5,1.69 -1.08,1.46 0.15,0.83 -0.61,1.37 0.09,0.71 -0.93,1.21 -0.29,0.92 0.65,0.89 0.01,0.71 -0.49,0.58 1.4,1.13 0.13,1.92 -0.62,0.97 0.08,0.64 0.62,0.42 -0.46,1.66 0.51,0.62 -0.26,0.4 -0.8,0.24 -0.27,-0.28 -0.8,0.77 0.44,0.73 -0.57,1.15 0.18,1.2 -0.3,0.84 -0.67,0.1 -0.61,1.11 -0.39,-0.18 -0.51,0.71 -0.53,0.17 0.09,0.93 0,0 -0.86,0.86 -0.53,2.21 -1.14,0.4 -0.77,1.04 -1.08,0.04 -0.47,0.34 -0.78,-0.42 -0.13,-0.63 0.44,-0.72 -0.24,-0.71 0.31,-0.94 -0.41,-0.18 -1.1,0.58 -0.58,1.17 -0.86,-1.55 0.26,-0.37 -0.33,-0.77 -0.66,-0.14 -0.86,0.52 0.04,-0.38 -0.68,-0.48 -0.04,-0.8 -0.92,0.39 0.05,1.23 -0.79,0.95 -0.08,0.83 -0.63,0.22 -0.26,-0.75 -1.79,-0.52 -0.92,1.05 -0.77,0.1 -1.11,-0.78 -0.45,-1.88 -0.72,0.02 -0.42,0.59 -1.01,0.35 -0.52,-1.04 -0.87,-0.23 -0.14,-0.5 -0.66,-0.34 -0.47,-0.7 0.03,-1.03 -0.85,-0.53 -0.74,-1.12 -0.17,-0.86 -0.67,0.33 -0.82,-0.06 0.04,-1.01 -0.9,0.05 -0.43,-0.78 -1.01,0.01 -0.71,1.35 -1.45,0.05 -0.66,0.51 -0.69,4.5 0.43,0.65 -0.69,0.76 -0.09,0.54 -1.35,-0.08 -0.66,0.33 0.36,1.14 -1.23,3.64 -0.64,0.3 -1.02,1.79 -1.38,0.3 -0.96,0.7 -0.93,-0.31 -0.46,0.48 0.02,0.85 -0.38,0.45 -1.37,0.01 -0.48,0.37 -0.36,-0.55 -0.43,0.76 0.33,0.87 -0.31,0.56 -1.71,1.5 -0.66,-0.16 -0.22,0.32 0.26,0.74 -1.05,2.4 2.19,2.59 -1.41,3.35 0.45,1.09 -1.07,1.98 -0.01,1.32 -0.27,0.45 0.32,0.85 -0.16,1.37 0.57,0.72 -0.75,1.17 0.18,1.2 0.52,0.28 0.03,0.32 -0.57,0.69 -0.82,0.03 0.15,-0.8 -0.29,-0.66 -0.48,0.41 -2.61,-0.04 -1.17,1.18 0.14,0.92 -0.3,0.47 -1.99,1.83 -1.54,0.26 -1.3,1.22 -0.5,0.04 -1.12,-0.69 -1.58,-0.11 -1.79,-0.56 -0.09,-0.39 -1.44,-0.82 -1,-0.17 -0.8,0.23 -2.25,3.08 0.01,0.9 -0.71,0.76 0,0.36 -0.65,0.35 -1.75,-0.67 -0.43,0.16 -0.88,-1.05 -0.41,-0.03 -0.85,0.71 -0.77,-0.01 -0.76,-0.68 -0.65,0.21 -1.74,-0.91 -2.47,0.54 -0.86,-0.49 -1.93,0.8 -0.95,-0.17 -0.64,0.32 -0.24,1.04 -0.61,0.27 -0.55,-0.15 -0.44,1.15 0.68,0.7 -0.32,0.77 -1.61,0.33 -0.74,2.39 0.38,0.97 -0.68,0.83 -0.25,0.96 -1.81,-0.23 0.46,3.33 -0.53,0.19 -0.37,0.77 0.45,1.86 -1.04,0.06 -0.56,-0.67 -1.2,-0.5 -0.53,-0.83 -1.33,0.32 0.16,1.15 0.7,0.17 -0.18,0.84 0.55,0.67 1.13,0.46 -0.37,0.67 2.23,2.36 -0.26,0.5 -0.41,0.08 -0.14,0.61 -0.57,0.05 -0.8,0.72 -0.1,0.54 -1.12,1.38 -0.03,1.06 -0.45,0.87 -0.39,0.25 -1.08,-0.54 0.01,-0.39 -0.39,0.06 -0.21,0.94 -0.53,0.12 0.26,0.95 0.71,0.08 1.08,1.02 2.6,4 -0.14,0.55 -0.99,0.69 -0.09,1.48 0.55,0.96 -0.27,0.48 -0.58,0.16 -0.68,-0.97 -0.57,0.89 -0.46,0.1 -0.59,-0.65 -0.57,0.2 -0.59,0.89 -0.18,2.26 -1.3,2.3 -0.59,1.96 0.06,0.77 0.6,0.92 0.01,1.12 0,0 -1.88,-0.92 -3,0.24 -0.58,0.54 -0.85,-0.28 -0.7,0.3 -0.48,-0.63 -0.47,-0.08 -0.41,0.31 -1.34,-0.36 -0.46,0.26 -0.75,-0.16 -0.51,0.39 -0.66,-0.15 -0.42,0.42 -0.61,-0.08 -0.86,0.45 0.77,1.25 -1.12,1.01 -0.7,-0.28 -0.69,0.21 -0.86,-0.63 -0.97,-0.03 -0.49,-0.65 -1.63,-1.01 -0.71,-0.18 -0.44,0.36 -0.81,-0.18 -0.75,0.34 -0.69,-0.72 -0.59,0.09 -0.63,1.14 -1.3,0.3 -0.63,-1.28 -1.82,-0.05 -0.84,0.29 -0.5,0.88 -1.42,-0.33 -0.24,-0.39 -1.35,0.92 -1.35,-0.31 -0.82,0.15 -0.63,-0.16 -0.13,-1.33 -0.5,-0.33 -1.55,-0.52 -1.17,0.34 -1.54,-1.4 -1.88,-0.13 -1.03,0.5 -1.84,-0.62 -0.04,-0.38 -1.3,0.07 -0.52,-0.37 -0.33,-1.49 -1.1,-0.72 -1.99,-3.28 -0.93,-0.59 -2.94,0.11 -1.19,-0.34 -1.35,-0.63 -1.4,-1.5 -0.41,0.98 -0.57,0.35 -0.67,-0.04 -3.58,-3.36 -1.35,-0.09 -0.79,0.31 -1.68,-0.33 -0.04,-1.13 -0.44,-0.25 -0.26,-1.15 -0.39,-0.39 -3.92,-0.76 -1.47,0.16 -0.43,-0.21 -2.08,0.38 -2.06,1.39 -2.26,0.2 0,0 -1.04,-0.98 -0.25,-1.84 0.43,-0.57 -1.94,-3.37 0.39,-2.15 -0.96,-0.49 -0.48,0.2 -0.04,0.84 -0.4,0.33 -0.4,-0.73 0.13,-1.08 -0.23,-0.65 -0.76,-0.4 0.51,-3.45 0.39,-0.87 -0.32,-2.38 0,0 0.24,-0.7 -0.63,-1.6 0.39,-0.58 -0.09,-0.71 -2.23,-1.47 0.37,-2.86 -0.5,-1.55 0.45,-0.96 -0.48,-0.31 -0.38,-2.68 0.98,-1.36 -0.63,-1.66 -2.67,-0.93 -0.28,-1 -0.68,-0.8 -1.01,0.26 -0.15,-0.49 -0.35,0.99 -0.48,0.26 -0.23,1.32 -0.77,0.37 -0.38,-0.33 -0.37,-1.34 -1.05,0.83 -0.71,-0.3 -1.39,0.16 -0.88,-0.66 -0.26,-0.68 0.23,-0.73 -0.1,-2.67 -0.65,-0.62 0.47,-0.63 0.66,-0.26 0.56,-1.62 -1.55,0.37 -0.36,-0.38 -0.04,-1.09 -0.35,-0.58 -0.56,-0.62 -1.05,-0.35 -0.09,-0.76 -0.86,-0.18 -0.74,-0.97 -1.41,0.13 -0.29,-0.53 -0.81,-0.01 -0.04,-0.48 -0.76,-0.39 -1.2,-0.01 0.05,-0.55 -0.88,-0.63 -0.55,0.01 -1.94,1.15 -0.77,0 -0.51,-0.44 -1.02,1.48 -0.26,1.53 -0.55,0.97 -0.56,0.32 -1.41,-0.05 -1.26,1.8 0.34,0.79 -0.15,0.72 -0.78,0.15 -1.44,1.17 -0.6,0.83 0.01,0.84 -0.51,0.2 -0.51,-0.25 -0.38,0.32 0.07,0.6 -0.68,0.06 -0.35,0.52 -0.02,0.57 -0.78,0.08 -0.81,0.8 -0.28,1.13 -1.01,0.79 0.38,1.43 -0.15,0.73 -1.44,1.32 -0.8,-0.09 -2.08,0.78 -0.94,1.55 -0.77,-0.55 -0.01,-0.77 -0.5,0.39 0,2.62 -0.49,0.34 -0.51,-0.02 -0.27,-1.42 0.31,-1.2 -0.19,-1.37 0.73,-0.81 0.9,-0.43 0.01,-1.19 -1.46,0.01 -0.97,0.43 0.32,-1.89 -0.6,-1 -1.92,2.68 -2.01,0.5 -0.71,0.75 -1.09,-0.78 -1.36,0.34 -0.34,0.6 -0.6,-0.06 -0.43,-0.57 -0.89,0.27 -1.89,-0.31 -0.46,0.59 -0.5,1.69 -0.6,0.65 -0.71,0.06 -0.87,0.53 -2.7,-0.13 -0.9,0.33 -0.32,-1.28 -0.78,0.35 -0.32,-0.31 0.09,-1.06 -0.87,-1.05 -0.21,-0.87 -1.37,-0.65 0.13,-0.73 0.48,-0.51 -0.42,-0.32 0.19,-0.71 1.24,-1.47 0.27,-0.96 -0.32,-0.87 1.4,-2.11 0.01,-0.97 0.85,-1.3 -0.52,-1.1 0.44,-1.89 0.59,-0.76 0.26,-1.15 0.68,-0.46 -0.1,-1.04 0.77,-0.66 0.1,-0.63 0.67,-0.3 0.04,-0.43 -0.56,-0.42 0.09,-0.41 1.34,-0.23 0.43,-1.01 -0.37,-0.69 1.68,-2.33 0.31,-2.16 -0.79,-0.58 -1.22,0.18 -0.85,-0.61 -0.47,-1.17 -0.47,-0.35 -0.65,0.29 -0.47,-0.16 -0.33,-0.67 0.3,-3.32 -1.64,-2.58 -0.37,-1.67 0.54,-1.62 0.63,-0.79 1.39,-0.7 -0.09,-0.84 0.6,-1.2 -0.41,-1.3 0.31,-0.51 -0.71,-1.89 -2.13,0.04 -0.84,0.57 -1.08,-1.57 0,-1.3 0.54,-0.48 0.03,-0.6 0.53,-0.38 0.26,-1.19 1.23,-1.16 0.07,-0.49 -1.05,-1.2 -0.31,-0.8 -0.51,-6.37 -0.91,0.28 -1.47,-2.94 -1.47,0.21 -1.86,-0.94 -1.14,0.04 -1.71,0.57 -0.29,-0.69 1.16,-2.12 0,-1.08 2.9,-0.2 0.63,-0.63 -0.03,-0.58 -0.4,-0.28 0.33,-1.45 -0.48,-0.69 -1.19,-0.2 -0.3,-0.64 -0.33,-1.44 0.38,-0.96 -0.52,-0.43 -0.06,-1.13 -0.38,-0.11 -0.84,0.85 -1.01,-0.43 -0.79,0.45 0,0 -0.09,0.61 -0.89,0 -2.24,-1.51 -0.74,-0.11 -0.53,0.45 -1,0 -0.23,-1.49 -1.89,-0.17 -0.41,-0.89 -1.27,0.1 -0.68,-1.95 -0.61,0.35 0.12,0.65 -0.33,0.36 -1.88,0.23 -1.03,0.47 -0.45,-0.57 0.31,-0.55 -0.11,-0.77 -0.96,-0.27 -0.92,0.95 -0.99,-1.51 0.31,-0.4 -0.31,-1.34 1.02,0.04 0.25,-0.41 -0.28,-0.81 0.76,-1.36 -0.25,-0.67 0.24,-0.81 0.38,-0.08 0.44,0.69 0.78,-0.27 -0.71,-0.59 -0.01,-0.74 -0.55,-0.47 -0.07,-0.84 0.29,-0.5 0.87,-0.08 0.25,-0.76 0.8,-0.27 0.75,-1.23 0.79,0 -0.58,-1 0.61,-1.4 0.77,-0.56 0.82,-0.12 0.6,0.27 0.25,-1.53 1.23,-0.91 -0.27,-0.38 -1.1,0.02 -1.14,-1.72 -1.42,-0.82 0.05,-6.4 -0.38,-1.04 -1.89,-1.2 0.1,-4.37 0.92,-1.68 -0.41,-2.29 0.29,-1.32 -0.58,-0.72 -0.14,-0.92 -0.74,0.2 -0.31,-0.33 0.55,-0.92 0.02,-0.95 -1.4,0.25 -0.15,-0.92 -0.81,-0.17 -0.77,0.42 -1.33,-1.32 0.17,-0.58 2.72,0.02 0.61,-0.37 0.49,-2.41 1.52,-0.22 1.29,-1.28 1.3,0.45 0.7,-0.72 0.33,-1.57 0.11,-4.91 0.86,-10.31 0.19,-9.14 -0.4,-4.52 -2.6,-5.48 -2.76,-4.87 0.26,-1.35 0.68,-0.39 0.57,-1.2 1.03,-0.83 1.26,0.8 2.57,-0.25 3.29,-2.28 2,-0.69 1.31,0.12 0.42,-0.31 0.62,-1.57 1.6,-1.35 3.69,-0.24 0.59,0.15 -0.06,1.04 0.35,0.52 1.41,0.24 1.31,-0.46 0.85,-2.23 0.19,-1.96 0.54,-0.6 0.05,-0.55 -0.97,-0.52 0.2,-1.69 -0.51,-0.59 0.12,-1.21 1.37,-0.55 0.38,-1.2 -0.28,-1 0.32,-0.54 4.83,-0.78 -0.34,-0.92 -1.3,-1 0.05,-1.28 0.51,-0.4 -0.27,-0.79 0.38,-0.76 0.88,-0.73 1.13,-0.21 0.87,-1.07 2.65,-0.85 2.11,-1.58 1.47,-0.18 0.71,-1.32 3.01,-0.87 1.25,-1.76 0.46,0.02 0.57,0.94 0.4,-0.21 0.37,-1.08 1.04,-0.12 0.35,-0.94 -0.27,-0.71 0.21,-1.2 1.03,-0.24 0.01,-1.1 -0.63,-0.45 -1.12,-0.15 -1.26,-1.71 -1.5,-0.73 -0.24,-0.75 0.2,-2.19 -0.67,-6.01 0.22,-3.11 -0.31,-4.5 -1.37,-0.48 -0.47,-0.94 -0.79,-0.23 0.3,-2.31 -0.78,-1 -1.08,0.04 -0.58,-0.85 -1.45,0.07 -0.6,-1.03 0.36,-0.94 0.72,-0.77 0.02,-1.41 -0.74,-0.89 -1.42,-0.34 0.18,-1.21 -0.5,-0.35 -0.65,0.1 -0.44,-3.79 0.31,-1.98 0.85,-2.34 -1.21,-0.24 0.52,-0.98 0.94,-0.2 0.08,-1.03 -0.62,-1.07 0.46,-0.9 -0.29,-0.61 -1.31,-0.37 -1.54,0.6 -0.75,-1.19 1.48,-1.6 -0.15,-1.38 -2.97,-1.49 0.44,-0.78 3.49,-0.05 1.54,-4.51 0.72,-0.05 0.81,0.54 0.4,-0.32 -0.66,-1.86 -1.25,-0.28 0.26,-2.22 0.57,-0.85 1.88,-1.42 0,0 1.82,2.32 2.46,1.41 3.3,0.68 3.3,-0.39 0.78,-0.55 0.63,-1.53 -1.35,-4.38 0.2,-0.67 1,1.99 1.41,1.38 0.56,2.09 1.19,2.64 0.31,2.18 -1.08,1.21 -0.74,2.5 0.65,0.81 0.27,0.94 1.48,0.89 0.13,1.75 -0.39,0.8 0.59,0.13 0.33,-0.29 1.03,-2 1.18,0.25 0.71,-0.39 0.42,-0.67 -0.52,-0.21 -0.89,0.61 -0.33,-0.2 -1.93,-2.12 -0.36,-0.69 0.08,-0.88 -0.32,-0.36 3.21,-1.05 1.15,-0.98 0.99,-0.29 1.97,0.47 2.63,-0.48 1.35,-1.16 0.5,0.07 -0.46,-0.42 1.17,-0.77 0.64,-0.3 0.81,0.5 -0.3,-0.41 0.23,-0.19 0.9,-0.09 0.6,0.41 0.07,-0.2 2.39,0.27 2.07,0.94 1.68,-0.4 0.85,0.2 5.3,2.23 3.38,0.23 1.25,-0.42 5.04,0.69 0.63,0.46 -0.01,0.99 0.48,0.07 0.69,0.96 -0.72,0.6 -0.69,0.1 -0.69,-1.01 -0.13,0.24 -0.67,-0.28 -0.11,0.5 -0.98,0.98 -0.01,1.06 0.49,0.22 0.02,0.31 -0.77,1.37 0.29,0.5 -0.04,1.13 0.85,1.2 3.08,1.3 1.4,0.99 2.28,0.72 1.61,1.37 1.35,-0.5 0.57,0.1 1.41,0.58 3.54,0.33 3.08,1.24 2.55,-0.89 1.6,-0.16 1.63,0.83 0.05,-0.44 0.76,0 0.16,0.44 1.83,-1.04 0.61,0.97 0.34,-0.36 1.02,0.85 1,0.09 -0.27,-1.11 0.39,0.36 0.69,-0.03 -1.71,-1.54 0.08,-0.32 0.48,-0.07 1.35,1.6 2.13,0.76 0.22,0.79 0.55,0 0.55,-0.42 0.41,-1.2 0.49,-0.1 -0.28,-1.86 0.74,-1.71 -0.1,1.06 0.36,-0.08 0.12,-0.88 0.66,0.56 0.15,-0.34 0.46,-0.03 -0.67,-0.33 -0.58,-0.93 -0.68,-0.01 1.24,-1 0.51,0.39 0.26,-0.64 -0.79,-0.04 -0.12,-0.39 -0.25,0.57 -0.13,-0.88 -0.48,-0.14 0.39,-0.21 0.13,-0.71 -0.37,0.41 -0.06,-0.41 -0.67,-0.17 0.63,-0.42 -0.73,-0.43 -0.2,-0.78 0.15,-0.3 0.97,-0.23 0,-0.31 -0.59,0.23 -0.28,-0.16 0.13,-0.32 -0.39,0.24 -0.72,-0.41 0.29,-0.25 0.14,0.37 0.32,-0.07 -0.38,-0.9 0.32,-0.54 0.25,0.35 -0.16,0.43 0.77,0.84 0.23,-0.09 -0.45,-0.68 0.16,-1.1 -0.24,0.34 -0.49,-0.68 -0.28,0.06 0.38,-0.75 -0.39,-1.04 0.63,0.28 0.27,-0.24 -0.36,-0.13 -0.24,-0.82 0.71,0.84 0.3,-0.29 -0.65,-1 0.36,-0.14 -0.28,-1.16 0.32,0.25 0.25,-0.24 -0.23,0.8 0.31,0.38 0.24,-1.25 0.22,-0.1 0.06,0.71 0.06,-0.59 0.34,-0.09 -0.34,1.13 0.1,0.19 0.25,-0.72 0.34,0.19 -0.19,0.58 0.43,0.35 0.13,0.63 0.62,-1.48 0.37,0.79 0.31,-0.2 -0.27,-0.41 0.3,-0.21 0.46,0.65 0.4,-0.75 -0.05,-0.92 0.75,-0.31 0,-0.53 -0.16,0.14 0.32,-0.61 0.4,-0.16 -0.36,0.38 0.18,0.32 0.37,-0.51 -0.61,-1.17 0.38,-0.1 0.26,0.74 0.24,-0.3 0.16,0.26 0.45,-1.6 0.42,0.05 -0.25,0.92 0.54,-0.18 -0.04,0.8 0.22,-0.58 0.08,0.63 0.84,-0.3 0.19,0.75 0.65,-0.65 -0.33,1.04 0.31,0.36 -0.03,1.03 0.33,-1.03 -0.2,-0.19 0.85,-0.83 0.32,0.27 -0.42,0.38 -0.04,0.55 0.58,-0.4 -0.18,0.73 0.3,0.49 0.56,-1.34 -0.04,2.61 0.15,-0.69 0.49,-0.4 -0.28,-0.64 0.48,-0.38 0.31,0.81 -0.25,-0.21 -0.14,0.69 0.67,-0.15 -0.57,2.21 0.81,-1.67 -0.5,2.63 0.3,-0.11 0.22,-0.91 0.13,0.63 0.13,-0.37 0.5,0.32 0.1,-1.52 0.22,0.54 -0.3,0.43 0.59,0.55 0.07,-1.42 -0.06,0.46 0.35,0.42 -0.16,0.47 0.62,-0.13 0.09,0.47 0.35,-0.48 -0.14,0.51 0.25,0.16 0.25,-0.47 -0.21,0.81 0.18,0.66 0.37,0.17 0.02,0.92 0.23,-0.24 -0.11,-0.69 0.23,-0.03 -0.05,1 0.18,-0.22 0.14,0.53 0.05,-0.7 0.26,-0.05 0.27,0.54 0.14,-0.76 -0.59,-0.18 -0.17,0.23 0.06,-0.5 0.99,0.25 0.17,-0.32 -0.58,-0.26 0.29,-1.1 0.46,0.55 -0.36,0.32 0.38,0.28 0.61,-0.53 0.03,0.77 0.3,-1.03 0.21,0.03 -0.17,0.54 0.85,-1.39 0.09,0.45 0.37,-0.56 0.37,1.23 0.27,-0.35 0.26,0.09 -0.39,0.74 0.35,0.13 -0.46,1.92 0.43,1.3 0.97,-0.69 1.22,0.04 -0.04,-1.04 0.68,-0.88 0.02,1.18 0.4,0.76 0.43,0 -0.35,-1.13 0.16,-0.18 0.54,0.27 -0.23,-0.32 0.38,-1.72 -0.17,-0.32 0.33,-0.39 1.55,-0.01 0.68,0.32 0.63,0.93 -0.27,0.7 0.24,0.38 0.27,-1.03 0.47,0.49 0.91,-0.35 1.72,0.13 0.03,0.33 -0.93,0.89 0.19,0.32 0.78,-0.43 0.21,0.39 1.2,-0.19 -0.74,1.39 1.04,-1.13 -1.11,1.45 0.33,0.3 0.98,-0.54 0.83,0.04 0.56,-0.32 0.83,0.69 -0.4,0.27 0.43,0.13 -0.01,0.65 -1.04,0.64 0.27,0.26 -0.51,0.21 0.54,-0.1 0.38,0.5 2.29,-0.29 0.84,0.68 -0.28,0.01 0.33,0.27 -0.84,0.93 0.6,-0.42 0.3,0.25 -1.07,1.46 0.56,-0.3 -0.03,0.4 0.47,-0.53 0.42,0.64 0.03,0.78 0.88,-0.96 0.66,0.17 0.4,0.61 0.22,-0.16 0.43,0.45 -0.17,0.17 0.38,0.78 -0.19,0.44 0.32,-0.26 0.35,0.74 0.46,-0.39 -0.12,0.34 0.37,-0.11 0.02,0.7 0.54,0.39 -0.46,0.43 0.43,0.17 -1.67,0.08 -1.02,-0.28 -0.28,-0.77 -0.27,-0.12 -0.07,0.25 0.16,0.85 1.6,1.17 0.21,0.72 0.38,0.18 -0.7,0.28 -0.22,0.56 0.33,0.81 0.91,0 -0.26,0.34 -0.9,-0.07 -0.01,0.72 -1.22,0.16 0.67,0.64 0.54,-0.18 -0.01,0.26 -0.5,-0.04 0.32,0.33 1.04,0.05 0.5,0.59 -0.11,0.93 -0.5,0.68 -1.47,-0.62 0.57,0.56 -1.25,-0.52 -0.15,0.21 0.31,0.27 -0.28,0.18 0.46,0.4 -2.23,-0.04 0.1,0.62 -0.46,-0.02 0.4,0.79 -0.42,0.05 0.04,0.52 0.41,-0.05 0.69,0.66 -0.21,0.52 1.46,-0.43 2.14,0.84 -0.2,0.05 0.37,0.33 -0.13,0.32 -0.53,0.3 0.91,0.34 -0.39,0.38 0.6,0.18 -0.21,0.33 0.25,0.19 -0.3,0.04 0.34,0.14 0.02,0.46 -1.05,0.15 0.35,0.36 -0.52,0.47 0.61,-0.19 0.17,0.86 -0.24,-0.45 -0.26,0.34 0.16,0.25 1.1,0.41 -0.81,0.2 -0.7,1.07 0.1,0.52 1.04,-0.47 0.24,0.42 -0.42,-0.05 0.31,0.32 -0.26,0.39 -0.32,-0.21 0.1,0.3 -0.47,0.5 -0.86,-0.65 0.63,0.66 -1.17,0.67 -0.82,-0.15 -0.29,0.41 -0.62,0.1 -0.64,-0.88 -0.21,0.03 0.13,0.48 -1.47,-0.03 -0.1,0.57 0.25,0.15 -0.31,-0.04 -0.28,0.65 1.65,1.74 -0.86,0.24 -0.51,-0.36 -0.44,-0.59 -0.19,-1.13 -0.35,0.1 -0.21,0.95 0.52,1.54 0.8,0.69 0.42,2.28 0.3,0.39 0.96,0.22 0.41,0.59 0.07,-0.4 1.4,-0.72 0.64,-1.04 -0.64,-1.72 -0.53,-3.05 1.51,3 0.35,1.02 -0.07,0.88 1.76,2.26 -0.86,-0.49 -1.04,-0.11 -2.96,1.04 -0.53,0.88 0.37,0.11 0.2,0.56 -0.15,0.8 0.67,0.13 0.32,-0.41 1.32,-0.13 0.72,1.68 0,1.26 -0.34,-0.16 0.31,0.35 -0.3,0.14 0.6,-0.24 0.75,3.75 1.99,1.79 0.27,1.52 0.61,0.72 -0.24,0.4 0.42,-0.17 0.88,0.31 -0.02,0.35 0.43,-0.38 0.39,0.54 0.25,-0.06 0.88,2.13 -0.26,0.57 0.76,1.05 0.65,0.15 0.75,-0.31 0.15,1.17 0.54,0.31 0.92,-0.32 0.34,-0.6 -0.14,-1.34 0.31,-0.43 -0.1,0.87 0.88,3.13 -0.18,0.38 0.85,1.25 0.97,-0.26 1.41,-1.36 2.12,-3.12 0.64,-2.2 -0.04,-2.36 0.5,-0.4 1.22,-3.08 0.4,-2.96 1.33,-5.13 2.29,-5.35 0.84,-1.22 0.63,-0.35 0.78,0.08 1.05,-0.55 0.82,0.09 1.35,1.86 0.05,0.87 -0.56,-1.24 -1.16,-1.1 -0.74,-0.04 -0.78,0.53 0.28,0.25 -0.31,0.39 -0.71,-0.35 0.25,1.81 -0.44,0.88 0.25,0.86 1.21,0.56 1.35,2.87 1.07,1.51 1.75,1.73 1.54,1.01 3.68,1.28 1.63,0.01 1.54,-0.63 0.94,-1.51 1.47,-1.32 1.05,-0.33 2.24,-1.72 -0.09,0.22 1.12,-0.63 0.85,0.25 1.03,-0.38 4.44,1.48 -0.16,0.14 0.44,0.58 0.7,0.36 0.4,-0.27 0.93,0.08 1.89,2.49 1.53,0.31 1.07,0.74 -0.28,0.55 0.7,-0.43 -0.19,0.64 0.54,-0.45 -0.49,1.29 0.33,-0.05 -0.13,0.74 0.41,-0.1 0.08,0.53 0.41,0.11 0.22,-0.51 0.49,-0.17 -0.16,0.44 0.9,0.04 0.01,0.32 0.99,0.62 0.49,0.05 0.75,-0.62 -0.07,-0.83 -0.97,-0.26 -0.02,-1.44 -0.48,0.08 0.03,-0.4 -0.4,0.31 -0.01,-0.47 -0.32,0.24 -0.22,-0.28 0.66,-0.1 0.47,-0.62 1.13,-3.86 1.24,-0.28 0.85,0.16 0.19,1.25 0.28,0.01 0.34,-0.47 0.61,0.13 -0.03,-0.34 0.34,0.02 -0.6,-0.92 0.14,-0.25 1.6,-0.54 1.01,1.02 1.02,0.17 0.12,2.94 0.62,1.08 0.94,-0.27 0.22,0.23 0.61,-1.96 1.61,0.32 0.56,0.9 0.15,-0.47 0.34,-0.03 0.04,0.34 0.56,-1.41 0.36,0.56 0.09,-0.38 0.17,0.2 0.31,-0.31 -0.16,-0.26 0.34,0.02 -0.71,-0.29 -0.17,-0.55 -0.16,0.15 -1.28,-3.35 -0.02,-2.36 0.26,-0.02 -0.27,-0.13 0,-0.79 0.54,-0.27 -0.04,-0.26 -0.56,-0.26 -0.34,-1.18 -2.37,-0.76 1.57,0.32 0.71,-0.23 0.56,-1.25 0.04,-1.09 0.97,-1.1 0.36,-1.43 0.32,-0.29 0.89,0.75 1.12,-0.86 -0.34,-0.91 -1,-0.3 -1.92,0.2 -0.84,-0.25 -0.74,0.2 -1.4,1.73 -1.54,-0.72 -0.24,-2.4 0.73,-1.87 2.44,-3.1 1.9,-0.2 1.76,0.58 0.43,0.59 0.77,-0.61 2.22,-0.1 1.81,-1.04 0.93,0.31 -0.26,-0.48 0.53,-0.78 1.51,-0.64 0.31,0.06 -0.08,0.27 0.33,-0.19 0.07,-0.29 -1.07,-0.3 0.11,-0.28 -0.35,-0.18 0.19,-0.61 -1.05,-1.46 -0.17,0.11 -1.01,-2.13 -0.55,-0.22 0.19,-0.33 -0.36,-0.38 -0.13,-1.11 1.06,-0.07 1.92,0.62 1.16,0.01 0.77,0.42 0.32,0.75 1.26,1.03 2.37,1.01 5.12,0.57 6.24,0.19 1.6,0.67 3.55,0.33 4,1.32 5.61,1.19 3.48,1.43 5.15,2.7 0.58,0.43 -0.02,0.73 0.86,0.56 4.35,-0.79 2.67,0.33 1.02,-0.23 2.37,0.2 6.35,2.79 2.3,1.8 2,2.48 0.87,2.01 0.24,1.62 -0.31,0.7 -3.13,1.96 -0.45,-2.04 -0.2,0.79 -0.31,-0.03 0.36,-0.69 -0.34,-1.13 -0.39,-0.28 -0.76,0.23 0.46,0.35 -0.45,0.31 -0.04,0.46 -0.31,-0.24 -0.2,0.19 -0.6,1.4 -0.68,0.35 -0.29,0.55 -0.15,0.47 0.45,0.9 0.34,-0.6 0.77,0.55 0.65,-0.43 0.97,1.08 0.91,0.11 1.89,-0.22 0.55,-0.43 1.07,0.72 0.13,0.46 0.6,0.21 -0.1,0.67 0.45,0.35 0.04,0.9 0.83,0.26 2.03,-0.14 -0.51,0.35 0.99,0.23 -0.06,2.13 0.6,0.91 2.37,-0.81 0.37,0.57 2.97,1.16 1.86,2.73 -0.41,-0.05 0.67,1.61 0.71,0.83 -0.05,0.4 1.27,1.61 -0.2,0.44 -0.31,-0.26 -0.98,0.28 -1.46,-0.23 -0.04,0.29 0.75,0.54 1.14,0.11 2.01,1.78 2.15,0.92 3.09,-0.08 1.79,-0.45 0.3,0.27 0.29,-0.42 1.93,-0.45 0.43,0.09 0.06,0.46 0.49,-0.46 0.68,0.2 0.96,-0.86 2.83,-1.24 4.4,-1.14 1.15,-0.57 1.56,0 1.53,-0.7 0.57,0.19 2.92,-0.63 3.84,0.19 0.47,-0.38 0.34,0.23 1.54,-0.23 3.09,0.46 5.82,1.54 3.97,1.68 3.04999,1.94 3.23,2.93 2.19,3.39 1.11,3.25 0.53,2.83 -1.04,2.54 0.05,1.22 -0.61,1.27 0.01,0.77 -1.46,2.3 1.26,2.04 2.36,1.82 -0.3,-0.55 0.64,0.06 2.81,1.42 0.31,-0.36 2.09,0.73 0.31,1.74 -0.32,1.88 0.4,4.23 0.55,0.3 0.52,-1.46 -0.66,-1.96 0.03,-1.01 2.73,-2.54 0.46,-0.13 0.54,0.29 0.28,-0.41 -0.24,1.41 0.28,0.81 -1.18,1.19 -0.84,0.42 -0.26,-0.56 0.22,1.13 0.89,-0.02 0.03,-0.29 0.77,-0.2 0.63,-1.2 0.98,-1.02 1.55,-0.45 0.14,-0.85 1.17,-0.72 -0.03,-0.76 0.35,0.22 0.61,-0.16 0,0 0.09,0.84 -0.53,1.53 -0.71,0.35 0.75,1.11 -0.27,1.03 0.92,0.46 0.09,1.54 2.13,2.73 0.04,0.59 -1.44,0.33 -0.48,2.99 0.43,0.81 1.23,0.48 0.73,1.57 -0.7,1.24 -0.89,0.58 0.09,1.12 0.81,0.63 -0.35,0.92 0.11,0.84 -0.88,0.54 0.09,1.88 -0.42,0.77 0.05,1.63 -0.58,0.98 -2.7,-1.26 -4.42,-1.35 -1.02,0.23 -2.26,2.06 -1.54,0.62 -5.34,-0.55 -0.74,0.19 -0.55,0.59 -0.48,1.16 -1.11,-0.51 -0.41,0.3 -0.72,-0.03 -0.61,-0.69 -2.77999,2.4 -2.65,-0.16 -1.31,0.96 -0.63,2.5 -1.07,1.39 0.4,0.98 0.91,0.48 0.07,0.37 -0.41,0.67 -0.99,0.43 -0.9,-0.16 -1.15,0.28 -0.37,2.55 0.15,1.71 0.84,1.53 -0.2,2.15 0.21,0.53 1.33,0.42 1.38,1.87 1.25,0.2 2.18,1.09 0.25,1.13 -0.3,1.69 1.14,1.45 0.15,0.63 -1.09,0.62 -0.47,0.96 0.07,0.88 -1.26,1.86 -0.27,1.17 -0.85,0.6 0.29,1.18 0.53,0.76 z m -125.99,-222.27 -0.31,-0.23 0.98,0.24 -0.17,0.32 -0.5,-0.33 z m 38.29,26.65 -1.2,-1.39 1.01,-1.67 -0.56,-3.27 0.96,-1.58 0.38,-1.47 -0.19,-1.37 0.62,-1.37 1.45,1.13 0.51,1.22 -0.76,2.01 0.63,1.17 0.13,0.93 1.9,1.25 1.02,-0.03 1.08,-0.86 -0.37,-0.26 -0.44,0.41 -0.53,-0.09 1.17,-1.02 0.54,-0.77 -0.18,-0.16 0.77,-0.31 0.5,0.26 0.78,-0.63 2.81,1.42 2.7,-0.32 1.28,0.89 0.12,0.57 -0.59,1.44 0.33,1.11 -0.14,0.64 0.31,0.14 0.29,1 1.28,0.06 4.04,-1.92 2.73,1.03 0.1,0.44 0.24,-0.29 2.57,0.46 1.02,1.02 0.17,0.54 -0.52,0.27 0.08,0.25 0.54,-0.13 1.49,1.18 2.07,-1.42 1.11,0.41 -2.06,3.74 0.28,1.08 -0.49,2.52 -4.12,1.4 -1.27,0.76 -1.09,0.17 -0.79,0.56 -2.97,0.82 -1.69,0.1 -1.74,-0.56 -0.22,0.34 -3.58,-1.08 -1.1,-0.93 -2.89,-4.06 -2.23,-0.64 -1.84,-0.93 -2.53,-2.63 -1.74,-1.18 -1.18,-0.4 z m -65.52,-5.95 -0.21,-1.48 0.76,-0.64 0.18,-0.77 -0.58,-1.2 0.47,-0.17 -0.45,-0.18 -0.22,-0.51 0.78,-0.79 -0.36,-0.66 0.12,-0.53 -0.6,-0.12 -1.11,0.93 1.03,1.13 -0.23,0.42 -0.79,-0.84 -0.22,-0.71 1.04,-0.75 0.59,-1 -0.51,-2.01 0.51,-1.06 0.89,-0.27 0.92,0.45 0.97,-1.24 -0.85,-1.78 -0.21,0.6 -0.26,-1.67 0.32,-1.43 1.25,-1.55 0.69,-0.28 0.71,0.26 0.59,-0.39 1.35,0.03 0.65,-1.73 -0.1,-0.87 0.45,-0.71 0.65,-0.33 0.52,1.55 0.36,0.04 0.39,-2.47 2.25,-1.34 0.37,0.02 0.18,0.52 0.36,-0.4 1.35,-0.15 -0.71,0.38 0.11,1.71 0.55,0.46 -0.61,0.61 0.62,-0.39 0.79,1.11 1.3,0.57 1.35,2.04 2.76,1.08 -0.57,1.31 -0.1,-0.36 -0.46,0.08 -0.13,1.08 0.71,0.37 0.12,0.57 1.06,0.67 0.62,0.84 0.19,-0.38 0.69,-0.16 1.39,0.8 0.35,0.93 -0.05,0.83 -0.43,0.47 0.34,1.13 0.3,0.11 0.32,-0.39 -0.35,-0.92 1.09,0.12 0.84,0.93 0.11,0.85 0.46,0.43 1.06,-0.25 -1.09,-1.94 -0.15,-1.98 0.53,-2.59 -0.33,-0.93 0.1,-1.58 0.85,-3.36 1.8,0.14 2.97,1.63 -0.83,-1.12 -1.24,-3.5 -0.58,-0.09 0.15,-0.54 0.25,0 1.5,1.4 1.36,0.5 1.91,2.85 1.29,0.99 1.03,1.29 0.4,1.25 1.6,1.38 3.24,1.44 1.38,-0.56 0.26,0.2 0.43,-0.81 1.23,-0.42 3.41,1.45 1.98,2.43 0.94,0.52 1.7,0.29 0.65,1.21 0.69,0.61 2.4,1.46 1.22,1.81 0.08,0.58 -1.64,-0.15 -2.24,2.05 -0.57,1.57 0.48,2.28 0.92,0.55 -1.31,0.93 -0.46,2.56 -2.41,2.75 -1.48,0.35 -1.06,0.86 -0.62,-0.22 -0.13,-0.99 -0.37,-0.33 -1.91,-0.22 -0.75,0.34 -0.27,1.54 0.69,-0.09 0.99,1.32 -0.11,0.63 -1.04,0.98 -0.86,0.32 -1.22,-0.22 -1.5,0.55 -0.15,-0.43 -0.32,-0.05 -0.43,0.63 -0.33,-0.17 0.03,0.27 -0.43,-0.58 -0.57,-0.19 -0.76,1.84 0.61,-0.54 0.06,0.27 -1.24,0.99 -0.97,-0.09 -3.31,-3.2 0.31,-0.17 0.25,-0.95 0.74,-0.27 0.86,0.68 0.38,0.83 0.39,0 -0.07,-0.66 -0.87,-1.02 0.03,-1.07 -1.06,0.55 -1.57,-0.16 -0.67,0.78 -1.16,0.56 -0.24,0.58 -5.42,1.36 -4.36,2 -1.75,0.41 1.01,-0.38 -0.48,-2.03 -1.25,-1.03 0.11,-0.4 -0.42,0.07 -0.29,-0.61 -0.47,-0.2 -0.27,0.23 -0.08,-0.46 -0.83,1.45 -0.47,-0.03 0.35,0.32 -0.03,1.53 0.41,0.38 0.76,-0.78 0,0.33 -0.78,0.81 -0.99,3.29 -0.99,1.22 -1.12,0.67 -0.74,-0.09 -2.53,-2.06 -3.75,-1.18 -1.32,-2.16 -0.82,-2.49 0.33,0.03 0.21,-0.4 -0.59,0.16 -1.25,-1.48 0.16,-0.48 -0.21,-0.16 0.51,-0.55 -0.97,0.73 -1.95,-1.5 -2.53,-4.85 0.9,0.54 -0.11,-0.23 -1.11,-0.78 -0.19,-2.63 0.95,-0.74 0.88,-0.18 z" 
                fill="rgb(151, 144, 238)" 
                stroke="white" 
                stroke-width=".7px"
                title="Республика Саха (Якутия)" 
                id="RU-SA" 
            />
        </svg>