<svg xmlns="http://www.w3.org/2000/svg" viewBox="489.63011000000006 605.92082 28.309999999999945 49.56000000000029" width="28.309999999999945" height="49.56000000000029">
            <path 
                d="m 494.91011,605.92082 0.89,1.02 0.45,-0.04 0.92,0.73 0.11,1.31 0.72,0.66 -0.21,0.6 0.79,0.1 0.38,1.07 1.05,-0.12 0.32,0.33 0.4,-0.81 0.86,-0.24 0.65,0.69 1.77,-1.04 1.61,-0.24 0.48,-0.58 0.24,1.06 1.48,0.62 0.34,1.1 -0.18,0.71 1.62,-0.42 0.22,0.91 0.9,-0.1 0.54,0.59 -0.43,2.04 2.18,1.71 0.66,2.62 1.52,2.67 0.01,1.1 -0.99,1.81 0.05,0.71 0.87,1.83 0.11,1.11 1.97,0.81 0.73,1.14 -0.04,0.76 -1.3,1.55 -1.06,0.62 -0.55,-0.02 0.15,0.28 -0.25,0.01 0,-0.3 -0.51,0.37 0.41,1.55 -0.08,0.94 -1.11,1.43 -1.46,1.03 -0.3,0.69 -0.69,0.28 -1.43,1.4 -1.78,3.45 0,0 -1.14,-0.1 -0.26,0.46 -0.59,0.22 -0.65,-0.34 -0.25,0.2 0.17,1.2 -0.63,0.62 -0.2,0.89 0.74,1.73 -0.3,0.34 -1,0.21 -1.11,1.55 -0.74,0.47 -1.3,-0.63 -1.5,0.6 -0.45,-0.19 0.21,-1.03 -1.27,0.32 -0.75,0.58 -0.94,0.1 0,0 -0.33,-0.08 -0.37,0.47 -0.14,1.17 -0.54,0.79 -1.36,0.51 -0.54,-0.41 0.02,-0.3 -1.16,-0.45 -0.74,-0.86 -0.95,-0.27 -0.24,-0.51 0.02,-0.59 0.71,-0.22 0.78,-1.33 -0.1,-0.55 -0.64,0.22 -0.67,-0.68 0.99,-2.63 1.58,-0.4 1.06,-1.33 0,0 0.66,-0.13 1.33,-0.94 -0.11,-1.06 1.69,-1.1 1.48,-1.49 -0.79,-0.84 0.13,-0.48 0.6,-0.36 0.27,-0.63 0.48,-0.1 -0.21,-0.64 -0.72,-0.33 -0.55,-1.02 -0.46,0.08 -0.25,-0.45 0.17,-0.84 0.84,-0.44 -0.06,-0.53 -0.68,-0.54 0.56,-0.27 -0.21,-0.51 -0.9,-1.36 -0.64,0.63 -0.11,-0.36 0.55,-1.59 -0.26,-0.87 0.89,-0.85 0.67,-1.53 1.39,-0.34 -0.47,-2.07 -0.91,-0.11 0.24,-1.56 0.99,-1.15 -0.28,-1.78 -0.21,-0.25 -1.19,0.56 -0.44,-0.28 -0.4,-1.01 -0.88,0.26 -0.5,0.93 -0.47,0.2 -1.28,-0.73 -0.25,-0.43 1.2,-0.62 0.34,-2.99 0.28,-0.72 0.69,-0.32 0.26,-0.93 -0.81,-0.73 -0.74,-1.43 -0.55,-3.19 0.02,-0.78 0.71,-0.34 0.44,-0.89 z" 
                fill="rgb(151, 144, 238)" 
                stroke="white" 
                stroke-width=".7px"
                title="Республика Хакасия" 
                id="RU-KK" 
            />
        </svg>