<svg xmlns="http://www.w3.org/2000/svg" viewBox="179.03010999999998 737.27082 5.210000000000065 9.28999999999985" width="5.210000000000065" height="9.28999999999985">
            <path 
                d="m 179.70011,745.37082 0.27,-1.06 0.26,0.5 0.72,0.16 0.93,-0.94 -0.37,-1.55 -1.28,-1.32 -0.77,-0.03 0.13,-1.61 -0.56,-0.51 0.1,-1.27 0.81,-0.11 0.18,0.54 0.4,0.07 0.27,-0.97 0.71,0.38 0,0 2.08,0.97 -0.14,0.89 0.8,0.38 -0.06,1.18 -0.96,1.81 0.29,1.1 -0.44,0.63 0.09,0.63 -0.51,0.64 0,0 -1.51,-0.5 -0.79,1.18 z" 
                fill="rgb(151, 144, 238)" 
                stroke="white" 
                stroke-width=".7px"
                title="Республика Ингушетия" 
                id="RU-IN" 
            />
        </svg>