<svg xmlns="http://www.w3.org/2000/svg" viewBox="158.09010999999992 689.63082 42.530000000000086 35.54999999999984" width="42.530000000000086" height="35.54999999999984">
            <path 
                d="m 172.92011,697.52082 -0.12,-1.34 0.28,-0.92 2.18,-1.3 -0.01,-0.84 0.73,-0.36 1.07,0.54 0.68,-0.03 0.8,-0.93 0.24,-0.51 -1.42,-0.72 0.18,-0.83 0.54,-0.65 1.33,0.37 -0.2,1.07 0.25,0.29 1.05,-0.48 0.36,0.4 0.56,-0.04 0.46,-0.25 -0.27,-0.53 0.18,-0.36 0.65,-0.01 1.44,0.64 0.51,-0.25 0,0 1.79,1.43 0.66,-0.26 0.67,0.23 -0.1,1.74 1.94,2.43 2.58,2.08 1.98,-2.18 1.11,0.33 -0.26,0.44 -0.92,0.42 -0.83,1.06 2.37,4.38 0.56,0.21 0.51,1.05 0.78,0.08 1.01,1.44 -0.28,0.9 -1.21,0.53 -0.41,0.65 -0.07,1.11 -1.4,0.09 -1.34,1.28 1.01,0.59 0.82,0.06 0.31,0.44 0.04,1.08 0.31,0.22 2,-0.44 0.23,0.42 -1.72,3.66 -0.93,1.29 2.16,0.05 1.28,-0.49 1.43,0.25 -0.52,0.93 0.67,0.6 0,0 -0.58,3.42 -0.97,-1.13 0.38,1.31 -0.39,0.18 0.14,0.47 -0.56,0.81 -0.42,-0.15 -1.03,1.69 -0.49,-0.59 -0.53,0.58 -0.11,-0.35 -0.44,-0.11 0,0 -1.06,0.43 -1.41,-0.59 -1.2,-1.01 -3.99,-0.66 -0.86,0.27 0,0 -0.96,-1.41 -0.83,-0.59 -3.65,-1.69 -0.56,-0.61 -3.16,-0.87 -1.55,-1.65 -1.2,-2.22 -2.28,-0.88 -1.69,-0.17 -0.92,-0.9 -2.32,-0.95 -0.7,-0.69 -0.95,1.38 -0.85,0.18 -0.93,0.83 -1.69,0.22 0.14,-1.5 -0.72,-0.21 -0.36,0.05 0.2,0.73 -0.43,0.42 0.14,0.77 -0.28,0.12 -1.3,-0.65 -1.73,-0.12 0,0 0.13,-0.41 -0.56,-1.08 0.26,-0.37 0.6,-0.22 0.71,0.44 0.73,-0.54 -0.09,-0.95 0.69,-0.37 0.87,0.22 0.35,-0.34 -0.84,-1.23 -0.33,-0.83 0.17,-0.17 2.53,1.07 0.78,0.8 1.16,0.53 1.92,-0.53 3.12,2.5 1.58,-0.03 1.01,-2.47 0.51,0.42 0.04,0.75 0.76,-0.4 0.16,-0.27 -0.53,-1.27 0.31,-0.83 -0.83,-0.3 1.9,-2.59 0.44,0.03 0.81,-0.75 0.06,-1.4 0.49,-1.5 0.09,-2.86 -0.81,-0.49 0.2,-0.41 -0.59,-0.1 -0.25,1.08 -1.24,0.49 -0.29,1.16 -0.36,-0.02 -0.59,-0.29 z" 
                fill="rgb(151, 144, 238)" 
                stroke="white" 
                stroke-width=".7px"
                title="Республика Калмыкия" 
                id="RU-KL" 
            />
        </svg>