<svg xmlns="http://www.w3.org/2000/svg" viewBox="496.00010999999955 626.5608199999999 74.72000000000043 46.21000000000015" width="74.72000000000043" height="46.21000000000015">
            <path 
                d="m 552.43011,627.53082 0.1,-0.89 1.02,-0.08 0.78,1.08 0.56,0.14 0.34,0.5 1.15,0 0.65,0.64 0.24,0.73 1.05,0.59 0.24,0.79 1.32,-0.2 0.55,0.37 1.07,0.1 0.01,0.84 0.5,0.65 1.42,0.23 0.11,1.32 2.3,-0.19 0.61,-0.5 0.69,0.43 0.62,-0.37 0.49,0.11 0.62,0.45 -0.53,0.63 2.38,1.44 0,0 -0.09,0.7 -0.71,-0.17 -0.65,-0.6 -0.8,0.52 -0.23,0.94 0.19,0.26 0.54,-0.09 -0.23,1.42 -0.73,0.72 -0.11,0.99 -1.2,1.23 0,1.84 1.22,-0.17 -0.13,0.76 0.24,0.24 0.99,-0.1 0.13,1.08 0,0 -0.35,-0.33 -0.43,0.14 -0.2,1.15 -1.12,2.56 -2.74,1.18 -0.58,2.95 -1.33,0.28 -0.74,1.31 0.06,1.04 -0.9,2.6 0.28,0.62 1.09,0.93 -0.46,0.97 0.67,1.46 0.7,0.7 1.27,0.48 -0.48,1.54 -0.01,1.74 -0.59,0.57 -0.47,1.26 -1.67,1.55 -0.57,-0.4 -1.51,0.44 0.14,0.74 -2.06,1.38 -0.97,-0.24 -1.28,-1.5 -1.43,-0.35 -0.88,0.46 0,-0.61 -0.33,-0.25 -1.49,0.93 -0.96,-1.04 -1.57,-0.31 -0.72,0.44 -1,-0.68 -0.53,0.32 -0.16,0.53 -1.72,0.49 -2.89,-0.4 -0.93,-1.17 -2.48,0.31 -0.78,-1.51 -0.74,-0.5 -0.42,-2.81 -0.52,-1.24 -5.41,-0.07 -0.37,-0.23 -2.62,0.39 -0.87,-0.71 0.36,-1.5 -0.17,-0.24 -1.37,-0.06 -0.49,0.39 -0.02,0.52 -0.94,0.05 -0.01,-0.6 -1.03,-0.21 -0.71,-1.34 -0.36,0.18 -0.33,1.84 -0.95,0.4 -0.87,-0.03 -1.2,-0.59 -0.7,0.17 -0.73,0.69 -0.07,0.94 -1.47,0.33 -0.08,1 -1.24,-0.3 -0.84,0.3 -2.37,-0.07 -0.51,-0.27 -0.5,1.7 0.55,0.16 0.13,0.84 -0.57,0.38 -0.15,0.56 -0.86,-0.16 -1.25,0.37 -0.68,1.41 -1.34,-0.22 -1.12,0.58 -1.19,-0.16 -0.9,0.23 -0.24,0.36 0,0 -0.16,-1.65 -0.67,-0.93 -1.13,-0.23 -0.04,-0.42 0.54,-0.83 0.9,-0.53 -0.3,-1.14 0.4,0.1 0.36,0.87 0.85,0.26 0.62,-0.27 0.5,-0.96 -0.17,-0.48 -2.03,-1.63 -0.13,-0.86 -0.82,-0.71 -0.44,-0.89 -0.53,0.04 -0.65,-0.63 -0.09,-0.73 -1.09,-0.87 0.06,-0.95 -0.78,-1.66 0.41,-1.21 -1.47,-1.71 0,0 0.93,-0.11 0.75,-0.58 1.27,-0.32 -0.21,1.03 0.45,0.19 1.5,-0.6 1.29,0.64 0.74,-0.47 1.12,-1.55 0.99,-0.21 0.3,-0.35 -0.74,-1.72 0.19,-0.89 0.63,-0.62 -0.17,-1.2 0.25,-0.2 0.66,0.34 0.58,-0.22 0.26,-0.46 1.14,0.09 0,0 1.42,1.21 1.03,2.1 1.35,-0.58 0.56,0.14 0.43,0.58 1.89,-0.29 1.61,0.66 1.01,-0.26 0.71,0.94 0.73,0.19 2.19,-0.64 0.95,0.22 1.84,-0.71 1.3,0.06 3.58,-3.4 0.65,-0.46 1.29,-0.25 0.29,-1.5 0.77,-0.58 0.02,-1.22 1.1,-1.07 0.05,-0.88 0.58,-0.33 1.06,-2.39 0.82,-0.44 1.56,-0.19 0.74,-3.35 0.56,-0.42 0,-0.42 -0.59,-0.56 0.72,-0.63 2.16,-0.25 0.07,0.22 1.08,-0.87 1.36,0.76 2.44,-1.34 0.24,0.37 0.76,-0.28 1.42,0.38 0.43,-0.62 0.67,-0.16 0.18,-0.63 1.3,0.62 1.94,-0.7 z" 
                fill="rgb(151, 144, 238)" 
                stroke="white" 
                stroke-width=".7px"
                title="Республика Тыва" 
                id="RU-TY" 
            />
        </svg>