<svg xmlns="http://www.w3.org/2000/svg" viewBox="417.72011000000003 618.45082 66.29000000000002 44.37000000000012" width="66.29000000000002" height="44.37000000000012">
            <path 
                d="m 469.45011,618.60082 0.4,-0.15 0.35,0.27 1.43,2.45 0.91,-0.17 1.76,0.97 0.35,0.78 0.65,0.27 0.09,0.36 1.4,0.67 0.55,1.71 0.61,0.3 0.61,1.93 0.7,0.57 0.43,1.07 2.8,0.35 -0.01,0.97 -0.4,0.92 -1.41,0.67 -0.16,0.38 0.5,0.75 2.22,1.85 0.14,1.27 -0.57,0.57 -0.02,0.8 0.32,1.09 0.67,-0.05 0.23,0.33 0.01,0.83 0,0 -0.82,-0.57 -0.66,0.11 -1.9,1.44 0.34,0.94 -0.25,1.52 0.38,0.3 0.07,1.74 -2.05,0.04 -0.58,1.1 -2.22,-0.49 -1.71,0.3 0.33,1.86 -0.71,0.35 -0.24,1.07 -1.84,1.49 0.16,0.71 -1.81,0.75 -1.47,0.16 -0.93,0.64 -1.15,0.09 -2.08,1.61 -1.81,0.25 -0.39,1.78 -0.35,-0.38 -0.83,0.36 0.12,0.7 0.8,-0.09 0.67,0.67 2.17,0.4 -0.19,0.92 0.94,0.56 -0.76,0.6 0.08,0.53 -0.52,0.35 -0.36,-0.16 -2.41,0.81 0,0 -0.65,-0.91 -0.12,-0.7 -1.08,-1.16 -2.94,-1.23 -1.06,-0.11 -0.32,0.25 -0.7,-0.55 -0.13,0.53 -0.82,0.83 -1.73,-0.3 -0.19,1.2 -1.17,0.82 -1.92,-0.23 -0.86,0.42 -1.11,-0.69 -0.89,-0.13 -0.49,0.1 -0.22,0.46 -2.24,0.12 0.19,-0.81 -0.46,-0.77 -0.16,-1.08 -2.36,0.42 0.59,-2.32 -0.14,-0.66 -0.53,0.35 -1.05,-0.76 -1.59,-0.59 -0.43,1.16 -1.3,0.01 0.2,2.64 -1.93,0.77 -0.05,0.84 -0.73,0 -0.09,0.85 -6.58,-13.66 -5.14,-9.41 -4.11,-6.58 0,0 0.32,-0.78 0.3,0.12 0.15,-0.32 -0.13,-0.55 0.73,-0.19 -0.74,-0.44 -0.02,-0.86 1.03,-0.06 0.52,-0.57 0.04,0.89 0.81,0.64 2.15,-0.54 0.35,-1.26 0.38,-0.28 1.68,-0.33 0.5,0.3 0.23,-0.45 0.43,0.31 0.67,-0.1 0.59,-0.48 0.73,0.41 0.69,-0.29 0.85,-0.61 0.14,-0.59 1.58,-0.5 0.18,-0.75 1.58,-0.97 -0.2,-0.5 0.44,-0.33 0.33,-0.14 0.29,0.54 0.42,-0.13 1.19,-0.96 0.85,-0.09 -0.15,-0.56 0.5,-0.48 1.73,-0.52 -0.27,-0.83 0.54,-0.58 0.4,0.04 0.26,1.13 0.93,0.92 0.23,0.96 0.71,-0.11 0.5,0.5 1.2,-0.04 0.83,0.84 0.03,1.13 1.88,0.05 -0.07,0.64 -0.74,0.48 0.49,1.27 2.51,0.54 0.38,0.2 -0.22,0.61 1.41,1.03 0.71,0.15 0.75,-0.27 -0.22,-0.29 0.9,-0.89 -0.14,-0.48 0.63,-0.86 -0.13,-0.68 2.64,-2.59 0.62,-0.33 0.94,0.1 0.28,0.88 0.57,0.23 0.66,-0.73 -0.1,-1.04 2.28,-0.35 1.08,0.19 2.05,-1.06 0.99,0.27 0.3,0.37 1.41,-1.78 2.07,-1 1.26,-0.25 z" 
                fill="rgb(151, 144, 238)" 
                stroke="white" 
                stroke-width=".7px"
                title="Республика Алтай" 
                id="RU-ALT" 
            />
        </svg>