<svg xmlns="http://www.w3.org/2000/svg" viewBox="185.06010999999972 404.8908200000001 149.45000000000027 150.61999999999966" width="149.45000000000027" height="150.61999999999966">
            <path 
                d="m 210.20011,447.59082 18.81,-12.02 -0.15,-2.32 0.79,-0.08 3.75,-3.03 17.42,1.53 9.87,0.28 38,-0.44 0.8,0.27 1.19,-0.73 1.12,0.18 0.86,-1.53 8.03,-5.62 0.17,-2.52 1.18,-2.58 1.79,-1.81 1.14,-0.34 1.51,0.72 -0.08,-0.98 1.78,-2.15 -0.39,-2.12 3.53,-2.05 0.28,-0.79 1.04,-0.41 -0.19,-2.68 1.3,-1.12 1.35,-0.02 0.77,-0.34 1.18,0.72 0.66,0.05 1.2,-0.73 0,0 -0.01,0.88 -1.08,1.54 0.34,5.96 1.39,1.3 1.19,-0.09 1.01,-0.61 1.35,-0.08 0.42,0.95 -0.11,0.84 -0.63,0.87 1.28,1.12 0.45,1.47 -0.45,0.46 -1.59,-0.41 -0.49,0.26 -0.64,1.11 1.71,0.64 0.63,1.21 -0.1,0.82 -0.65,0.8 -2.12,0.88 -1.19,1.78 -1.91,1.4 -0.96,1.73 -0.93,0.51 0.46,3.08 -1.69,1.45 -0.89,0.03 -1.13,0.54 -0.27,1.13 -1.41,0.7 -0.58,0.85 -1.88,-0.01 -1.54,1.92 -1.43,1.03 -1.55,0.43 -0.59,1.78 -0.51,0.58 0.6,1.68 -0.72,-0.34 -1.14,1.11 -0.35,1.32 -0.54,0.46 -0.21,0.79 -0.55,0.32 0.44,1.01 -0.76,0.96 -0.1,0.95 -5.12,2.69 0,0 -1.14,0.63 -1.17,1.22 -0.05,0.4 -0.77,0.32 -1.98,3.33 -0.16,0.69 0.33,1.48 -1.05,1.23 -0.75,0.32 -0.31,1.13 -2.08,1.21 -0.17,0.98 -1.2,0.74 -0.18,-0.97 -0.65,-0.33 -0.14,-0.79 -1.94,-0.76 -1.11,1 0.02,1.38 -0.74,0.1 -0.11,0.51 -1.01,0.35 -0.16,0.99 -0.85,0.25 -0.06,1.13 0.82,0.93 -0.49,0.24 -0.48,1.47 -0.82,1.18 1.01,1.09 0.02,4.07 0.28,0.75 1.16,0.04 0.41,1.16 -0.77,0.77 -0.26,1.02 -1.11,0.78 -0.44,1.48 -0.44,0.28 0.24,1.11 -0.29,2.85 -0.7,3.03 0.12,0.81 -0.55,0.43 0.31,0.97 -0.6,0.87 0.34,1.64 -0.61,0.94 0.31,1.17 1.49,1.62 -0.02,1.3 -0.81,0.93 0.57,2.67 0.28,0.42 0.52,0.07 0.51,1.07 0.03,1.85 -1.07,0.62 0.02,1.12 -0.3,0.45 0.13,3.31 0,0 -0.69,1.39 0.19,2.39 0,0 -1.75,1.04 -0.56,1.1 -1.17,0.13 -0.43,0.43 -8.72,0.12 -2.9,-0.36 -0.86,0.49 -2.63,-0.87 -0.32,0.57 -0.38,-0.05 -0.44,1.13 -0.92,-0.14 -1.15,3.14 -2.79,-0.69 -0.96,2.27 -3.26,-0.23 -0.65,1.78 -0.79,-0.14 -0.91,2.13 0,0 0,0 0,0 -7.95,-1.23 -0.38,1.87 -3.48,-0.59 0.66,-2.27 -4.05,-0.55 -0.65,1.79 -2.2,-0.17 -0.9,1.8 -3.15,-0.6 -1,4.22 2.75,1.04 -0.13,0.73 1.5,0.52 -0.14,0.88 0.35,0.79 -0.62,1.06 0,0 -1.48,-1.1 -0.89,0.25 -3.13,5.39 -0.63,0.04 -0.89,-1.79 -1.54,-0.25 -1.78,2.75 -0.98,-0.08 -1.9,0.43 -1.12,0.47 -0.6,0.66 -0.93,-0.2 -0.61,0.23 -0.09,0.52 0.42,0.73 -1.52,0.45 -0.23,2.15 0.28,0.38 -0.12,1.21 0.23,0.44 -0.31,1.59 -0.87,0.54 -0.67,-0.14 -0.6,-0.35 0.34,-2.14 -1.65,-0.22 -0.12,-0.82 -1.32,-0.51 -0.48,0.47 -0.32,-0.16 0.2,-2.46 -4.09,-0.69 0.02,-4.52 -0.32,-1.91 0.35,-0.81 1.66,-1.61 -0.22,-0.68 -1.2,-1.07 0.08,-1.96 -0.85,-3.44 -0.47,-0.38 0,0 0.32,-1.99 0.99,-1.06 1.81,-1.3 1.12,0.01 0.98,-0.68 1.33,0.26 1.92,-6.45 -3.34,-0.98 1.36,-7.03 0.48,-0.13 2.02,-9.66 -6.16,-1.04 -0.8,1.65 -2.01,0.08 -1.01,3.8 0.6,0.89 -0.01,1.47 -2.45,-0.24 -2.07,0.17 -0.36,1.81 -1.58,-0.04 -0.19,-1.98 -1.31,0.01 0.25,-4.85 -1.22,-3.56 1.72,-1.1 1.2,-1.22 0.76,-1.44 -0.55,-0.75 -3.22,-1.95 -1.18,-2.73 1.09,-1.46 0.12,-1.46 -0.37,-0.81 -1.79,-1.86 -2.47,-1.94 -1.28,-0.22 -1.21,-0.8 -1.37,0.03 -1.04,-0.54 -0.88,-0.96 -1.05,-2.38 1.97,-1.22 1.69,-0.42 2.1,0.6 0.97,-0.04 1.32,-1.2 4.78,-0.39 1.69,0.21 2.55,-0.35 2.06,0.36 0.11,1.7 2.09,0.5 0.33,-0.79 -0.08,-1.14 2.76,-0.09 0.69,-2.18 1.8,-0.16 1.68,0.51 1.15,-2.23 2.2,0.39 2.85,1.03 1.19,-5.53 -0.95,-0.06 -1.38,-0.65 -0.85,-1.05 -2.05,-4.16 -0.62,-1.99 -4.03,0.79 -0.15,-6.44 -0.39,-2.57 0.16,-4.03 z" 
                fill="rgb(151, 144, 238)" 
                stroke="white" 
                stroke-width=".7px"
                title="Республика Коми" 
                id="RU-KO" 
            />
        </svg>