<svg xmlns="http://www.w3.org/2000/svg" viewBox="133.4301100000001 668.0008199999999 44.109999999999985 45.32000000000028" width="44.109999999999985" height="45.32000000000028">
            <path 
                d="m 156.50011,668.00082 0.56,0.3 0.19,0.92 1.1,0.56 -0.21,1 1.18,0.51 0.58,-0.12 2.07,1.82 0.13,0.87 -0.98,2.83 0.35,1.17 -0.31,0.52 0.06,0.96 2,-0.01 0.58,0.69 -0.2,0.67 1.09,0.03 0.6,0.33 1,1.6 -0.88,1.7 0.15,0.83 -0.29,0.37 -2.72,0.82 -1.43,1.01 0.42,1.46 -0.79,0.37 0.36,0.79 -0.48,0.67 0.03,0.72 3.23,0.48 1.89,1.46 0.22,1.08 1.77,2.95 0.53,-0.1 0.24,-0.47 0.83,0.08 -0.08,0.88 0.66,0.48 2.99,-0.72 0,0 0.67,1.69 0.59,0.29 0.36,0.01 0.28,-1.15 1.24,-0.5 0.25,-1.08 0.59,0.11 -0.19,0.41 0.81,0.49 -0.09,2.86 -0.49,1.5 -0.06,1.4 -0.81,0.75 -0.44,-0.03 -1.9,2.59 0.83,0.3 -0.31,0.83 0.53,1.27 -0.16,0.27 -0.77,0.4 -0.03,-0.75 -0.51,-0.42 -1.01,2.47 -1.58,0.03 -3.12,-2.5 -1.93,0.53 -1.16,-0.53 -0.78,-0.8 -2.53,-1.07 -0.17,0.17 0.33,0.83 0.84,1.23 -0.35,0.33 -0.87,-0.22 -0.69,0.37 0.09,0.95 -0.73,0.54 -0.71,-0.44 -0.6,0.22 -0.26,0.37 0.55,1.08 -0.13,0.41 0,0 -1.83,-0.08 -0.47,0.68 -1.57,-0.33 0,0 -0.68,-1.31 -0.78,-0.52 -0.2,-1.34 -1.34,0.51 -0.75,-0.57 -2.7,0 -0.66,-0.81 0.25,-0.54 -0.43,-0.98 -1.5,-0.67 0.49,-1.73 -0.71,-0.54 -3.36,-0.35 -0.54,-0.41 -1.39,0.79 -0.08,0.67 -0.72,0.68 -1.5,-0.12 -0.5,0.59 0,-0.69 0.64,-1.46 -1.52,0.03 -0.11,-0.42 0,0 1.26,-0.35 0.43,-0.62 1.5,-0.8 1.35,0.23 0.11,-0.41 -0.37,-0.25 -0.31,-1.13 0.21,-0.76 -0.4,-0.25 -1.66,0.17 -0.02,0.73 -2.76,0.61 -0.03,0.29 -0.43,-0.35 0.39,-0.96 1.04,-0.33 0.56,0.13 -0.03,-0.45 -1.54,0.2 -1.2,0.87 -1.1,0.26 0.03,-0.56 0.63,-0.26 -0.06,-0.5 -0.73,-0.13 0.56,-0.73 -0.06,-1.6 0.56,-0.82 1.74,-0.29 0.38,-0.6 0.7,0.12 0.2,-1.29 0.62,-0.75 1.71,0.4 1.8,-0.41 0.33,0.36 0.33,-0.19 0.48,0.35 1.67,0.04 0.61,-1.79 -0.36,-0.47 0.65,-0.1 0.42,-1.95 0.35,0.05 0.15,-0.3 -0.23,-0.69 -0.42,0.18 -0.55,-0.26 0.69,-0.51 -0.68,-1.1 -0.01,-1.06 -1.16,-0.22 -0.22,-0.36 1,-2.45 1.39,0.53 0.76,-0.9 -0.27,-0.33 -0.44,0.4 -0.59,-0.38 -0.54,0.01 -0.09,0.25 -0.58,-1.13 -0.6,-0.11 0.04,-0.5 1.9,-0.17 0.63,-1.22 1.26,-0.75 -0.28,-2.12 0.41,-0.78 -0.07,-0.61 0,0 0.54,-0.68 2.2,0.48 0.89,-0.55 1.92,-0.54 1.06,-2.46 1.96,-1.81 0.31,-1.37 z" 
                fill="rgb(151, 144, 238)" 
                stroke="white" 
                stroke-width=".7px"
                title="Ростовская область" 
                id="RU-ROS" 
            />
        </svg>