<svg xmlns="http://www.w3.org/2000/svg" viewBox="874.8701100000005 618.3808199999999 106.75999999999954 117.46000000000004" width="106.75999999999954" height="117.46000000000004">
            <path 
                d="m 907.46011,727.90082 1.22,1 1.65,-0.33 -0.58,0.98 -0.44,-0.23 -0.96,1 -1.31,0.11 -0.47,0.8 -0.9,0.47 -0.32,1.15 -0.41,-0.03 -0.29,0.91 -1.37,0.65 -0.22,1.38 -0.9,0.08 -0.21,-1.2 2.42,-2.09 0.02,-0.54 1.76,-2.17 0.64,-1.51 0.67,-0.43 z m 18.78,-10.5 0.75,0.45 -0.49,0.67 0.37,0.52 -0.25,0.58 -1.6,0.04 -0.89,0.78 -1.31,0.38 -1.53,1.07 -1.4,1.55 -0.86,0.14 -0.45,-0.58 -0.5,0.11 -0.29,0.52 0.29,0.24 -0.4,0.68 -1.87,1.38 -0.92,1.47 -0.89,0.07 -0.88,1.32 -0.7,-0.14 0.08,-0.56 0.56,-0.5 -0.04,-0.81 0.34,0.54 0.29,-0.43 -0.18,-0.44 0.63,0.23 0.65,-0.62 0.06,-0.58 -0.6,-0.21 -0.04,-0.45 0.9,0.18 0.22,-0.64 1.73,-1.22 0.2,-0.82 -0.21,-0.47 1.08,0.4 0.56,-1.17 0.98,-0.32 -0.16,-1.44 0.38,-0.64 0.46,0.1 0.64,1.64 1.26,-0.07 1.65,-0.96 0.17,-0.59 1.23,-1.24 0.98,-0.16 z m 12.62,-6.77 -2.38,2.06 -0.17,0.78 -0.47,0.51 -0.75,0.66 -0.71,0.11 -1.83,1.94 -1,0.54 -0.94,-0.06 1.92,-2.75 0.89,-0.14 1.71,-2.23 1.12,-0.28 -0.07,-0.58 0.32,-0.29 0.87,-0.4 0.86,0.27 0.81,-0.29 -0.18,0.15 z m 12.04,-9.92 0.42,0.37 -0.85,0.77 -0.11,0.65 -2.39,2.32 -0.44,-0.01 -0.3,-0.8 1.09,-0.04 0.42,-0.91 0.93,-0.56 1.23,-1.79 z m 1.59,-2.23 0.63,0.27 -0.17,0.56 -0.61,0 -0.14,-0.53 0.29,-0.3 z m 4.28,-4.49 -0.03,0.94 -0.54,0.39 0,-0.8 0.57,-0.53 z m 1.08,-3.43 0.53,0.4 0.03,0.53 -0.81,-0.38 0.25,-0.55 z m 7.08,-8.43 0.31,0.22 -0.21,0.49 -1.42,1.3 -0.18,-0.33 0.76,-0.54 0.15,-0.97 0.59,-0.17 z m 2.11,-2.89 0.86,0.45 -0.06,0.4 -0.65,0.16 -0.35,-0.81 0.2,-0.2 z m 2.63,-5.12 0.52,0.29 -0.76,1.59 0.23,1.54 -0.38,0.48 -0.87,0.17 -0.36,-0.23 -0.07,-0.82 1.69,-3.02 z m 8.55,-12.67 0.85,0.3 -0.22,1.03 0.33,0.55 -0.01,1.07 -0.96,0.51 -0.09,0.71 -0.97,1.7 -0.49,0.16 -0.19,0.47 -1.28,0.06 -0.76,0.5 -0.85,1.56 -0.29,-0.61 -0.89,0.04 0.25,-1.76 -0.35,-0.98 0.96,0.13 0.45,-0.76 1,-0.13 0.24,-0.29 0.48,0.12 0.78,-0.85 0.75,-2.28 1.26,-1.25 z m 3.2,-1.07 0.21,1.12 -0.72,1.45 -0.98,0.03 -0.68,-0.57 0.12,-0.95 2.05,-1.08 z m -98.79,-42 2,3.79 -0.05,0.95 -0.63,1.04 0,0.97 2.29,6.85 0.75,4.59 -0.01,3.98 -0.24,1.53 -0.8,1.48 -0.44,3.27 0.3,0.82 -0.31,-0.09 -0.02,0.62 0.35,0.22 -0.03,0.45 0.46,0.24 0.12,-0.22 0.56,1.42 -0.67,1.54 0.21,0.39 -0.28,0.81 0.99,0.05 0.11,-1.49 0.83,3.34 -0.22,-0.32 -0.51,0.2 0.88,0.72 0.21,0.64 1.7,9.66 1.7,4.03 0.01,0.76 0.91,2.31 0.05,1.4 0.75,1.21 -0.13,0.88 0.44,1.99 0.77,2.21 2.18,1.99 -0.13,1.47 0.54,0.87 -0.55,0.03 -0.13,-1.44 -0.62,-1.23 -1.65,-1.59 -1.42,-2.03 -2.97,-0.96 0.2,-0.06 -0.3,-0.24 -1.08,-0.24 -0.45,0.17 -0.66,-0.72 -1.21,0.28 0.7,0.4 -0.26,0.29 1.02,0.03 -1.89,0.73 -1.48,1.53 -0.16,0.83 0.26,1.45 -1.27,2.62 -1.53,5.03 -0.57,3.14 0.08,1.02 1.14,3.11 1.84,1.61 0.59,1.11 0,1.84 0.53,1.72 0.43,0.36 -0.05,0.4 -0.41,-0.22 -0.15,0.49 0.45,0.2 0.25,0.88 0.62,-0.09 0.71,0.37 0.24,-0.37 -0.28,-0.38 -1.08,-0.28 -0.24,-0.38 1.67,0.26 0.26,-0.56 0.26,0.12 0.54,3.69 0.55,1.13 -1.11,1.92 0.02,0.91 -0.37,0.8 0.06,-1.92 -0.86,-3.15 -1.15,-1.01 -0.55,0.13 -1.23,-0.39 -0.85,0.28 -0.32,-1.39 -0.31,-0.18 -0.04,0.27 -1.15,0.35 -0.76,0.97 -1.19,3.37 -0.51,2.6 -0.6,0.45 -0.12,0.92 -1.18,-1.57 -0.79,-5.71 1.28,-3.13 0.53,-2.18 -0.14,-1.11 -0.56,-0.9 0.24,-0.75 -0.27,-2.66 0.9,-2.58 0.83,-1.29 -0.43,-3.65 -1.82,-3.46 -0.31,-1.33 0.95,-1.19 -0.15,-0.5 0.33,-0.26 0.19,-2.2 0.39,0.12 -0.23,-0.28 0.29,-0.68 -0.18,-1.27 0.54,-1.97 0.17,-3.15 -0.25,-1.63 0.31,-1.1 -0.34,-2.74 0.18,-0.8 -0.78,-2.09 0.3,-3.04 1.05,-2.03 0.16,-1.3 -0.6,-2.34 -0.64,-0.88 0,-0.82 -1.17,-1.21 0.25,-0.35 -0.18,-0.26 -0.28,0.28 -1.55,-1.62 0.76,0.36 0.35,-0.82 -0.48,-0.68 -0.96,-0.51 0.42,-0.75 -0.37,-1.76 0.44,-0.67 -0.47,-1.91 0.17,-0.82 0.73,-0.69 0.52,-1.22 -0.07,-1.94 0.72,-3.66 -0.65,-1.59 -0.46,-2.58 0.89,-0.75 2.62,-1.19 -0.27,0.16 0.19,1.69 0.22,0.25 0.55,-0.29 0.67,0.1 1.07,-1.72 0.59,0.17 -0.1,-0.55 -0.21,0.1 -0.47,-0.65 -0.35,0.65 -0.26,-1.38 1.16,-0.34 0.25,0.9 0.83,-1.12 -0.23,-1.3 -0.38,-0.3 -0.24,1.37 -0.58,0.42 0.71,-1.98 0.05,-1.07 -1.82,-2.25 -0.5,-1.34 -0.82,-0.8 0.9,0.3 1.04,-0.26 0.87,-0.56 0.08,-0.8 0.32,-0.14 z" 
                fill="rgb(151, 144, 238)" 
                stroke="white" 
                stroke-width=".7px"
                title="Сахалинская область" 
                id="RU-SAK" 
            />
        </svg>