<svg xmlns="http://www.w3.org/2000/svg" viewBox="70.220108 540.6908199999999 9.759999999999991 9.469999999999914" width="9.759999999999991" height="9.469999999999914">
            <path 
                d="m 75.680108,546.12082 0.31,-0.21 -0.01,-1.07 -1.73,-0.47 -0.3,-1.92 -2.25,-0.78 -1.48,0.51 0,0 0.94,-1.34 0.7,-0.15 3.52,1.58 1.82,0.41 -0.23,1.11 1.24,0.93 -0.05,1.93 1.73,1.06 0.09,0.47 -0.64,0.71 -0.82,-0.01 -0.39,0.88 -1.08,0.4 -0.9,-0.15 -1.25,-1.05 -1.53,-1.67 0,-0.32 -0.48,0.05 -0.77,-0.55 0.14,-0.99 0,0 0.61,0 1.78,1 1.07,-0.1 -0.04,-0.26 z" 
                fill="rgb(151, 144, 238)" 
                stroke="white" 
                stroke-width=".7px"
                title="Санкт-Петербург" 
                id="RU-SPE" 
            />
        </svg>