<svg xmlns="http://www.w3.org/2000/svg" viewBox="164.4101100000001 637.5708200000006 59.64999999999992 34.649999999999636" width="59.64999999999992" height="34.649999999999636">
            <path 
                d="m 206.29011,637.89082 0.11,0.37 -0.72,1.16 0.2,0.52 1.02,-0.79 0.68,0.17 0.41,0.5 0.49,-0.05 0.57,0.87 1.38,1.1 2.41,-0.21 0.74,0.42 -0.14,0.54 0.63,0.63 0.51,0.11 0.14,-0.6 0.36,-0.04 0.43,0.47 0.1,1.18 1.28,0.9 1.1,0.03 0.48,0.47 0.97,0.2 -0.19,0.3 0.8,0.88 0.51,-0.18 2.01,0.68 1.49,2.2 0,0 -0.19,0.56 0,0 -0.73,-0.05 0.02,0.73 0.4,0.31 -0.28,0.96 -0.64,0.07 0.37,-0.66 -0.67,-0.15 -0.4,-0.01 -0.38,0.48 -0.02,1.45 -0.35,0 -0.02,0.41 -0.79,0.07 0.12,1.06 -3.1,1.22 -1.42,1.36 -1.67,0.07 -0.6,-0.24 -0.69,1.5 0.62,1.58 -2.28,0.85 -1.92,2.07 -1.37,-0.71 -0.54,0.17 0.66,0.85 0.36,3.17 0.57,1.23 -0.18,0.78 0.7,0.27 0.18,0.7 -1.02,1.07 -2.17,0.99 -0.06,0.34 -0.81,-0.68 -0.58,0.01 -0.96,-2.49 -0.76,-0.64 -1.25,-2.04 -1.9,-1.47 -0.84,0.74 0,0 -1.01,0.09 -0.52,-1.05 -1.01,0.24 -1.05,-0.94 -0.54,-1.09 -1.32,-0.58 -0.38,0.2 -0.19,0.91 -0.72,0.61 -1,-0.31 -1.33,0.64 -0.3,-0.35 0.1,-1.23 -1.78,-1.29 -0.59,-0.06 -0.66,0.5 0.52,1.31 -0.25,0.38 -2.19,-0.19 -1.13,0.44 -0.47,-1.47 0.78,-0.68 0.17,-1.66 -1.8,-2.6 -0.85,-0.07 -0.68,-0.66 -1.29,-0.03 -0.51,0.49 -0.63,-0.66 -1.6,0.14 -0.99,0.94 -0.83,0.23 -0.21,-0.25 0.24,-0.68 -0.24,-0.17 -0.99,0.66 -0.64,-0.15 -2.27,1.38 -0.82,-0.31 -3.16,-2.38 0,0 -0.1,-1.57 -0.35,-0.63 -0.33,-0.42 -1.38,-0.43 -0.51,-0.62 0,0 -0.25,-0.64 0.14,-0.65 1.22,-1.83 0.01,-0.77 0.86,-1.77 -0.03,-0.69 0.92,-1.54 0.24,-1.11 0.73,-0.57 0,0 0.73,-0.62 0.48,-0.03 1.32,1.14 0.66,-0.54 1.83,-0.51 1.08,0.82 1.47,0.21 0.98,0.74 1.69,-1.32 0.32,-1.21 0.3,-0.01 0.71,0.49 1.16,0.05 1.33,1.5 0.49,-0.82 0.47,-0.2 2.31,0.11 1.06,-1.23 2.44,1.33 0.24,-0.37 -0.37,-1.02 0.87,-0.4 0.5,-0.7 0.82,0.03 0.63,-0.94 0.78,0.11 1.03,-0.55 0.3,0.79 0.81,0.27 0,0 0.45,0.34 1.12,-0.39 0.42,0.79 0.81,-0.33 0.36,0.37 1.32,0.19 1.22,-0.83 1.28,0.59 0.37,-0.29 -0.38,-0.95 0.53,-0.81 0.68,0.53 0.58,-0.15 0.44,-0.9 0.66,0.14 0.83,-0.56 z" 
                fill="rgb(151, 144, 238)" 
                stroke="white" 
                stroke-width=".7px"
                title="Саратовская область" 
                id="RU-SAR" 
            />
        </svg>