<svg xmlns="http://www.w3.org/2000/svg" viewBox="269.92011000000025 515.37082 64.13999999999976 82.20999999999958" width="64.13999999999976" height="82.20999999999958">
            <path 
                d="m 285.74011,515.78082 0.41,-0.41 3.07,1.35 0.28,0.41 -0.02,1.53 0.59,0.67 2.55,-0.54 5.4,0.97 11.05,7.22 1.27,1.92 0.14,0.85 -0.58,1.91 0.76,2.64 2.51,4.5 0.26,1.13 -0.48,1.13 3.19,1.32 0.49,0.92 0.57,3.31 -0.01,3.92 0.53,1.11 0.82,0.88 0.87,0.37 2.24,0.06 2.85,0.95 1.67,-0.07 0.31,1.27 0.73,-0.06 0.22,0.29 1.87,5.96 1.36,1.53 1.5,0.54 0.27,1.25 0,0 0.44,4.04 1.19,2.82 -2.28,1.29 -0.38,0.65 -0.76,0.25 -0.46,0.81 -0.88,0.65 -0.92,-0.66 -3.73,2.08 0.86,1.02 -0.97,1.65 1.55,6.82 0.21,0.37 0.96,-0.15 0.16,0.29 -0.5,1.47 -1.72,0.3 0,0 -0.87,-0.87 -1.88,-0.03 -1,1.04 -0.49,-0.1 -0.29,0.27 0.06,1.16 -1.06,0.93 0.17,1.15 -0.77,0.27 -2.34,-0.28 -2.09,-1.62 -0.78,0.35 -0.37,0.59 -0.25,-0.34 -1.27,0.09 -1.27,-0.66 -1.43,0.84 -0.7,0.85 -0.65,-1.08 -0.34,-0.02 -0.8,0.59 -1.71,2.73 -0.85,0.57 -0.08,1.58 0,0 -1.05,-0.45 -0.39,-0.91 -0.78,-0.28 -0.09,-0.5 -1.24,0.06 -0.7,-0.77 -0.82,0.28 -0.86,-0.39 -0.96,0.76 0.5,1.23 -2.6,0.27 -0.6,-0.33 -0.84,0.25 -1.19,-0.72 -2.04,0.55 -1.16,-0.41 -1.74,0.42 -0.68,-1.1 -1.75,-0.18 -0.81,-0.46 -0.8,0.42 0.16,1.24 -0.52,0.4 -0.41,-0.11 -0.15,1.04 0,0 -0.76,0.95 -0.77,-0.14 -1.83,-1.2 -1.76,0.98 -0.3,-0.35 -1.01,-0.14 -0.86,0.55 -0.45,-0.08 -1.06,-0.77 -0.66,-0.04 -1.08,0.48 -0.45,-0.47 0.28,-0.65 -0.71,-0.85 -0.15,-0.68 0,0 -0.25,-3.23 0.43,-1.11 -1.31,-2.12 0.19,-1.12 0.55,-0.46 1.66,0.67 0.7,-0.33 1.88,-2.15 0.37,0.03 0.35,0.5 0.28,-0.19 -0.28,-0.56 0.26,-0.3 -0.66,-0.93 0.33,-1.28 -0.97,-0.78 -0.08,-0.53 0.73,-1.64 -0.2,-0.86 0.68,-0.89 0.01,-0.66 0.64,-0.69 1.01,0.41 1.25,-0.1 0.48,1.54 1.03,-1.24 1.38,-1.01 0.07,-1.28 -0.27,-0.47 -1.15,-0.27 -0.55,-0.8 -0.09,-1.31 1.13,-1.32 0.4,-0.99 1.34,-1.11 0.97,0.18 0.41,-0.28 0.34,-1.07 1.37,-0.93 0.34,-0.65 -0.45,-1.8 0.3,-0.8 -0.17,-0.25 -1.09,0.19 -0.5,-0.38 -0.25,-0.8 -0.48,-0.16 0.01,-1.22 0.76,-1.13 -0.58,-1.01 0.16,-1.28 -1.21,-1.57 -1.02,-0.11 -0.76,-0.46 -1,-1.68 -0.8,-0.69 1.01,-3.46 1.05,-1.66 2.1,-1.88 1.13,-3.86 -0.08,-1.4 1.36,-3.22 0.69,-2.83 0.01,-2.32 -0.91,-1.78 -0.48,-3.32 -0.01,-1.16 1.36,-3.47 -0.73,-1.82 0,0 -0.19,-2.39 z" 
                fill="rgb(151, 144, 238)" 
                stroke="white" 
                stroke-width=".7px"
                title="Свердловская область" 
                id="RU-SVE" 
            />
        </svg>