<svg xmlns="http://www.w3.org/2000/svg" viewBox="79.91010800000001 598.1108200000002 33.350002 32.5600000000004" width="33.350002" height="32.5600000000004">
            <path 
                d="m 84.910108,601.79082 0.9,0.44 0.98,-0.05 1.35,0.97 0.07,-0.77 1.28,-0.23 0.19,0.71 0.72,0.04 -0.65,0.34 0.45,0.33 0.68,-0.49 0.75,0.25 0.35,-0.37 0.67,0.27 0.11,0.37 0.27,-0.85 0.52,0.25 -0.41,0.78 0.33,0.1 0.18,-0.53 0.6,0 1.81,0.52 0.4,-0.69 0.42,0.45 0.38,-0.47 0.37,0.55 0.48,-1 0.75,-0.38 0.91,0.08 0.660002,-0.47 -0.06,-0.69 0.52,0.07 0.51,-0.74 -0.31,-0.61 0.28,-0.55 0.15,0.36 0.29,-0.21 0.31,0.25 0.03,0.47 0.26,-0.06 0.31,-0.98 -0.55,-0.4 0.49,-0.66 0.61,-0.08 0.36,0.38 1.55,-0.26 0.6,1.31 0.48,-0.73 0.96,0.85 1.24,0.45 0.55,-0.78 2.43,0.19 0,0 1.01,2.1 0.35,0.09 -0.05,1.62 0.47,0.52 0.04,0.42 -0.67,0.22 0.17,1.82 -0.4,1.34 0.66,0.74 0,0 0.02,0.84 -0.65,1.15 -0.24,-0.01 -0.49,1.36 -0.17,0.13 -0.31,-0.58 -1.66,1.7 0.08,0.6 0.56,0.5 -0.19,0.28 -1.99,1.13 -1.54,-0.4 0.71,0.97 -0.48,1.44 -1.16,-0.16 -0.47,0.3 -0.32,-0.6 -0.56,0.12 -0.89,-0.43 -0.59,0.04 -0.24,0.32 -0.2,-0.33 -0.8,0.76 -0.44,-0.07 -0.31,0.68 0.38,0.26 -0.38,0.91 0.65,0.48 -0.68,0.99 0.26,0.49 -0.51,0.25 -0.25,1.17 -0.720002,0.11 0.43,0.69 0,0 -0.63,0.29 0.2,0.34 -0.34,0.34 -0.56,-0.5 -0.54,1.19 0.53,0.67 -0.34,0.39 -0.4,-0.28 -0.15,1.11 -0.44,-0.12 -0.52,0.94 -1.09,0.9 0.15,0.46 -0.35,0.47 -0.03,0.87 -0.41,-0.27 -0.7,0.39 0,0 0.03,-0.65 -0.69,0.05 -0.18,-0.43 -0.18,0.36 -0.14,-0.48 -1.07,-0.94 0.08,-0.64 -0.31,-0.2 0.66,-0.48 -0.32,-0.51 -0.67,0.14 -0.21,-0.33 -0.55,-0.06 0.21,-0.17 -0.51,0.1 -0.06,-0.31 -0.66,-0.24 -1.36,0.36 -1.2,-0.21 -0.08,-0.39 0.7,-0.84 -0.14,-0.47 0.3,-0.19 -0.27,-0.56 0.33,-0.18 0.01,-0.44 -0.75,-0.17 0.03,-0.52 -0.65,0.03 -0.21,-0.45 -1.06,-0.31 -0.85,-1.13 -0.48,-0.03 -0.04,-1.18 -0.6,-1.31 -1.12,-0.58 0.89,-1.79 -1.52,-0.25 0.05,-0.49 -1.75,-1.08 0.56,-1.82 0.76,-0.13 -0.1,-0.86 0.68,-0.26 -0.29,-1.72 -1.11,-1.44 0.02,-0.5 0.76,-0.8 -0.23,-0.98 0.37,-0.24 -0.31,-0.45 0.31,-0.37 -0.3,-0.75 0,0 0.73,-0.68 -0.22,-0.26 0.59,-0.4 0.47,-0.15 0.69,0.32 z" 
                fill="rgb(151, 144, 238)" 
                stroke="white" 
                stroke-width=".7px"
                title="Смоленская область" 
                id="RU-SMO" 
            />
        </svg>