<svg xmlns="http://www.w3.org/2000/svg" viewBox="146.22010999999998 626.1008200000002 23.480000000000047 26.200000000000045" width="23.480000000000047" height="26.200000000000045">
            <path 
                d="m 147.57011,631.82082 0.71,0.13 0.25,-0.92 0.39,0.44 0.95,-0.54 -0.24,-0.8 0.48,-0.32 0.56,0.7 -0.04,-0.61 0.55,-0.12 0.19,-0.65 0.57,0.04 0.4,0.87 0.24,0.1 0.42,-0.49 1.06,0.46 0.31,0.7 0.45,0.06 0.21,-0.87 0.37,0.19 0.37,-0.21 -0.16,-0.49 0.47,-0.11 0.35,-2.62 0.99,-0.03 0.24,-0.63 0.15,0.44 1.19,-0.35 0.16,0.29 0.84,-0.32 1.32,0.07 0,0 0.26,0.23 -0.2,3.08 1.34,0.85 -0.16,1.15 0.3,0.29 0.81,0.04 1.13,1.56 -0.06,0.83 2.8,2.49 2.12,2.69 0.04,0.75 -1.17,1.34 -0.03,1.18 0,0 -0.73,0.57 -0.24,1.11 -0.92,1.54 0.03,0.69 -0.86,1.77 -0.01,0.77 -1.22,1.83 -0.14,0.65 0.25,0.64 0,0 -0.68,-0.34 -0.58,0.36 -0.56,-1.13 -0.69,-0.05 -0.22,0.79 -0.53,-0.36 -0.85,-0.01 -0.69,-0.79 -0.68,0.23 -1.03,-0.65 -1.86,-0.32 -0.61,0.72 -1.82,0.18 -0.47,-0.35 0.19,-1.19 -0.26,-0.48 -2.81,-0.8 0,0 0.67,-2.3 0.71,-0.35 0.04,-0.65 -1.46,-1.25 -1.34,-0.39 -0.33,-0.42 0.23,-0.57 -2.03,-1.1 -0.78,-2.08 0.36,-0.77 0.63,0.07 0.26,-0.32 -0.49,-1.06 0.71,-0.89 -0.46,-0.28 0.18,-0.51 -0.34,-1.91 z" 
                fill="rgb(151, 144, 238)" 
                stroke="white" 
                stroke-width=".7px"
                title="Тамбовская область" 
                id="RU-TAM" 
            />
        </svg>