<svg xmlns="http://www.w3.org/2000/svg" viewBox="80.32010800000002 560.81082 54.19000200000001 43.07000000000005" width="54.19000200000001" height="43.07000000000005">
            <path 
                d="m 120.87011,565.22082 0.58,0.09 0.62,-1.51 0.39,-0.03 0.22,-1.07 1.36,-0.33 -0.52,-0.94 0.82,-0.56 0.7,0.34 0.27,-0.4 3.84,4.85 0,0 0.28,0.83 -0.16,0.4 -0.38,-0.06 -0.29,0.42 -0.41,-0.13 -0.47,0.68 0.46,0.51 -0.94,0.94 0.55,0.14 0.28,0.68 0.89,0.03 0.92,1.4 -0.82,0.11 -0.29,0.89 -1.36,0.51 -0.07,0.49 0.96,-0.09 0.43,0.39 -1.02,0.01 0.01,0.45 0.43,0.01 -0.56,0.76 1.4,0.5 0.55,0.63 0.43,1.11 0.92,0.72 0.17,1.91 1.28,1.44 0.52,0.16 0.58,-0.17 0.21,-0.44 0.57,-0.01 0.29,1.08 -0.53,0.75 -0.54,-0.1 -0.02,0.76 0.22,0.48 0.43,0.14 -0.34,0.49 0.44,0.94 -0.28,0.39 -0.98,0.32 0.61,0.31 -0.36,0.95 0.27,0.9 0.34,-0.05 0.37,0.56 0,0 -1.65,0.2 -0.51,-1.35 -0.67,-0.15 -1.33,-1.05 -1.17,0.61 0.05,0.96 -0.53,0.72 -0.4,-0.19 -0.64,0.46 -1.06,-0.4 -0.89,0.52 0.38,0.37 0.06,0.63 -0.26,0.4 0.07,1.3 -0.72,0.04 -1.46,-0.66 0.04,0.26 -1.93,0.98 -0.15,0.35 -0.67,-0.16 -1.41,1.07 -0.68,-0.13 -0.39,1 -0.29,-0.47 -1.63,-0.4 -0.41,0.23 -0.11,-0.89 -0.59,-0.36 -0.35,0.45 -0.08,-0.28 -0.4,0.3 -0.18,-0.21 -0.23,0.53 -0.53,-0.35 -0.09,0.97 0.72,-0.05 -0.36,1.01 0.27,0.65 -1.36,0.41 0.33,0.65 -0.55,0.76 0.41,0.32 -1.35,1.67 0,0 -2.43,-0.19 -0.55,0.78 -1.24,-0.45 -0.96,-0.85 -0.48,0.73 -0.6,-1.31 -1.55,0.26 -0.36,-0.38 -0.61,0.08 -0.49,0.66 0.55,0.4 -0.31,0.98 -0.26,0.06 -0.03,-0.47 -0.31,-0.25 -0.29,0.21 -0.15,-0.36 -0.28,0.55 0.31,0.61 -0.51,0.74 -0.52,-0.07 0.06,0.69 -0.660002,0.47 -0.91,-0.08 -0.75,0.38 -0.48,1 -0.37,-0.55 -0.38,0.47 -0.42,-0.45 -0.4,0.69 -1.81,-0.52 -0.6,0 -0.18,0.53 -0.33,-0.1 0.41,-0.78 -0.52,-0.25 -0.27,0.85 -0.11,-0.37 -0.67,-0.27 -0.35,0.37 -0.75,-0.25 -0.68,0.49 -0.45,-0.33 0.65,-0.34 -0.72,-0.04 -0.19,-0.71 -1.28,0.23 -0.07,0.77 -1.35,-0.97 -0.98,0.05 -0.9,-0.44 0,0 -0.46,-1.54 0.23,-0.57 -0.21,-0.8 0.86,-0.56 0.17,-0.47 -0.47,-1.29 0.53,-0.51 -0.5,-0.44 0.04,-0.64 0.55,-0.09 -0.39,-0.35 -1.23,0 -0.67,-0.48 0.33,-0.4 -0.26,-0.66 -1.5,-0.36 0.21,-1.95 -1.27,-0.65 -0.45,-0.63 0.46,-0.44 -0.56,-0.05 0.65,-0.64 0.48,-1.77 0.27,-0.08 0,0 1.68,0.77 0.45,-0.49 2.48,0.4 0.4,-0.93 0.49,-0.13 -0.31,-0.36 0.56,-0.81 0.39,0.21 0.25,-0.43 0.52,-0.11 0.29,0.71 0.3,-0.12 -0.17,-0.47 0.36,-0.06 -0.05,-0.44 0.79,-0.22 0.21,-0.38 0.68,0.14 0.09,-1.06 0.9,0.1 0.05,-0.37 0.65,0.02 0.42,-0.63 0.78,0.03 1.01,-1.69 0.35,-0.15 0.48,0.3 0.33,-0.4 0.54,0.5 0.9,-0.62 0.75,0.9 0.21,-0.68 -0.56,-0.39 0.02,-0.51 0.19,-0.51 0.6,-0.18 -0.22,-0.57 0.28,-0.6 -0.29,-0.36 0.92,-0.33 0.610002,0.25 0.49,-0.46 -0.33,-0.69 0.2,-0.71 0.81,-0.58 0.18,-1.18 -1.13,-0.94 1.18,-1.59 1.32,0.21 1.16,-1.27 0.07,0.34 0.85,-0.13 0.67,0.62 0.61,0 0.31,0.47 0.52,-0.16 1.5,0.89 0.46,-0.48 -0.31,-0.53 0.04,-0.73 0.59,-0.6 0.74,0.4 0.33,-0.18 0.68,0.54 0.29,-0.35 0.74,-0.14 0.98,-1.22 -0.31,-0.64 0.28,-0.34 1.73,-0.87 2.64,0.49 0.18,-0.87 0.64,0.26 0.52,-0.61 0.38,0.23 0.45,-0.48 0.87,0.22 z" 
                fill="rgb(151, 144, 238)" 
                stroke="white" 
                stroke-width=".7px"
                title="Тверская область" 
                id="RU-TVE" 
            />
        </svg>