<svg xmlns="http://www.w3.org/2000/svg" viewBox="397.39011 529.7908199999999 102.87999999999982 73.01000000000033" width="102.87999999999982" height="73.01000000000033">
            <path 
                d="m 398.15011,563.48082 0.27,-0.68 3.57,-3.42 0.18,-0.89 -0.63,-2.4 1.52,-1.38 0.8,-1.79 0.8,-0.15 0.88,-1.43 3.57,-0.62 0.68,-5.82 -0.32,-1.46 1.05,-2.11 -0.26,-1.7 0.2,-1.62 1.4,-0.89 0.14,-0.38 -0.51,-1.39 0.46,-1.12 -0.08,-1.15 0.26,-0.54 0.45,-0.17 1.46,0.57 2.97,0.08 1.83,0.67 0.61,-0.61 3.01,0.31 1.06,-0.83 0.33,0.68 1.07,0.54 0.98,-1.01 0.63,0.05 1.06,0.25 0.4,1.94 1.06,0.25 1.82,-0.41 3.27,-0.01 1.11,-0.78 2,-0.35 0.93,-0.62 0.68,0.05 1.63,0.77 0.25,1.6 2.83,0.29 0.82,-0.36 1.96,0.05 2.07,1.72 0.67,-0.09 1.12,-1.19 0.11,-1.47 0.81,-0.86 4.77,-3.64 2.31,-0.17 3.07,2.63 2.2,-0.14 0,0 0.19,0.82 0.85,0.63 3.07,5.98 -0.57,1.34 -0.66,0.58 0.01,2.09 -0.57,1.07 0.49,1.54 6.44,-0.17 2.36,-0.64 3.27,-0.22 4.56,0.88 0.82,0.34 0.33,0.67 0.14,2.03 2.43,0.08 1.51,3.92 1.23,2.02 3.86,-0.56 1.05,-0.05 0.18,0.32 0.12,1.17 1.37,1.47 0.13,0.85 -2,1.05 -1.55,2.38 -2.77,3.21 0.25,3.58 0.77,1.26 0.1,0.93 3.99,0.85 0.76,0.94 1.52,0.72 1.51,-0.25 0.64,0.18 0.84,0.84 0.12,1.01 -0.15,2.42 -2.25,0.72 0.3,1.1 -1.51,0.73 -1.34,3.06 -1.14,1.1 -0.14,0.54 1.2,-0.14 0.33,0.73 -0.82,1.93 0,0 -0.5,1.15 -0.96,-0.3 -2.73,1.75 -1.27,1.17 -1.63,0.69 -0.34,-1.49 -1.59,0.92 0.07,-0.88 -1.36,0.01 -0.23,0.99 -0.87,0.37 -1.51,0.07 -0.22,-0.26 0.23,-0.81 -1.47,-0.02 -1.29,0.83 -0.44,-0.07 -0.96,-1.01 -0.29,0.23 -0.25,1.39 -0.56,0.06 -0.59,0.69 -1.38,0.73 -0.36,0.97 -1.52,0.49 0.22,0.68 0.4,0.15 -2.66,0.22 -2.16,0.93 -1.09,-0.08 -2.48,1.46 0,0 -0.71,0.63 -0.61,0.07 -0.94,-0.73 -1.25,0.41 -1.23,1.51 -1.39,2.55 -2.33,-0.03 -0.51,-0.68 0.48,-0.2 0.56,-1.25 -0.66,-1.98 0.07,-1.03 -0.73,-0.47 0.1,-0.98 -0.76,-0.64 1.1,-2.02 -0.87,-1.65 -1.95,0.52 0.02,0.67 -0.43,0.53 -2.84,0.29 -5.5,1.55 -0.53,-0.16 -2.42,-3.23 -0.43,-0.17 -3.99,1.05 -2.33,0.3 -3.81,-5.41 -1.82,-0.88 -1.34,-1.04 -5.77,-1.27 -0.9,-0.99 -2.47,0.2 -8.07,-0.23 -1.51,-0.61 -1.83,0.2 -2.31,-0.57 0,0 -1.06,-2.09 -0.79,0.23 -0.18,-1.35 -1.14,-2.15 -0.83,-0.06 0.31,-1.02 -0.51,-3.07 -1.7,-0.81 -1.35,-1.15 -0.05,-0.55 1.06,-1.07 -1.42,-1.36 0.57,-0.78 1.61,-1.02 -1.29,-1.82 0,0 0.33,-0.49 z" 
                fill="rgb(151, 144, 238)" 
                stroke="white" 
                stroke-width=".7px"
                title="Томская область" 
                id="RU-TOM" 
            />
        </svg>