<svg xmlns="http://www.w3.org/2000/svg" viewBox="116.9501099999999 613.3508199999999 22.090000000000103 22.809999999999945" width="22.090000000000103" height="22.809999999999945">
            <path 
                d="m 126.36011,613.39082 0.66,0.32 0.03,-0.23 1.04,0.13 0.49,0.57 0.16,0.78 0.4,-0.19 0.66,0.29 0.56,-0.39 0.01,-1.08 1.2,-0.24 0.78,1.13 -0.08,0.48 0.54,0.14 0.91,0.91 0.35,-0.35 0.74,0.36 0.51,-0.16 0.2,0.43 -0.26,0.81 -0.66,0.13 0.4,1.48 0.59,0.63 -0.35,0.37 0.14,0.48 1.35,0.6 0,0 0.18,0.73 0.75,0.3 -0.26,0.6 -0.58,-0.01 -0.01,0.66 0.58,0.24 -0.21,0.26 0.41,0.19 -0.05,0.53 0.27,0.23 0.69,-0.13 -0.64,0.46 0.13,0.64 -0.35,0.25 0.61,0.07 -0.24,0.43 0.19,0.39 0.84,-0.03 -0.46,0.55 -0.21,1.73 0,0 -0.03,0.46 -0.43,-0.29 -0.87,0.66 0.49,0.27 -0.27,0.13 0.46,1.07 -2.05,0.6 0.91,1.51 -0.53,0.15 0.88,0.84 -0.33,0.65 -0.27,-0.08 0.03,0.51 -0.51,0.06 -0.09,-0.67 -0.29,0.03 -0.35,0.91 -0.34,-0.14 -0.02,0.38 -0.6,0.23 -0.34,-1.21 -1.9,0.14 -0.1,-0.28 -0.65,-0.01 0.06,0.58 -0.43,0.01 0,0 -0.99,-1.48 -0.4,0.41 -0.59,-0.42 -0.01,-1.62 -2.02,-0.32 -0.04,0.55 -0.67,0.24 -1.59,-0.72 -0.32,0.3 -1.31,-0.38 -0.62,-1.03 0.16,-0.22 -1.33,0.23 -1.14,-0.85 -0.4,-0.85 -1.36,-0.61 -0.4,0.12 -0.31,-0.79 0,0 0.54,-0.6 -1.04,-0.86 0.35,-0.44 -0.36,-0.49 0.68,-0.39 -0.26,-0.4 0.57,-0.48 0.59,0.13 -0.01,-1.07 0.71,-0.75 -1.4,-0.17 0.63,-0.08 0.14,-0.29 -0.81,-0.46 1.18,0.18 0.72,-0.97 0.8,0.19 0.63,-0.75 1.02,-0.29 0.42,0.33 1.95,-0.15 -0.26,-0.38 0.21,-1.34 -0.72,-0.11 -0.21,-0.72 0.63,-0.43 -0.25,-0.58 0.81,-0.21 0.73,0.66 0.53,-0.99 z" 
                fill="rgb(151, 144, 238)" 
                stroke="white" 
                stroke-width=".7px"
                title="Тульская область" 
                id="RU-TUL" 
            />
        </svg>