<svg xmlns="http://www.w3.org/2000/svg" viewBox="188.10011000000014 612.4608200000002 31.669999999999874 28.339999999999918" width="31.669999999999874" height="28.339999999999918">
            <path 
                d="m 198.36011,614.69082 0.83,0.97 -0.26,0.31 0.31,1.15 0.29,-0.6 0.86,0.43 0.29,-0.15 -0.16,-0.73 0.98,-1.13 -0.09,-0.54 0.51,-0.18 0.44,0.33 0.08,1.05 0.45,0.27 0.24,-1.24 0.73,0.12 0.47,-0.76 0.57,0.4 0.64,-0.17 0.01,0.74 0.99,0.25 0.65,0.69 1.47,-0.01 0.88,-0.31 1.15,-1.7 0.95,-0.06 -0.89,-0.43 0.78,-0.09 0.3,-0.53 0.27,-0.18 0.15,0.3 0.4,-0.43 1.15,0.98 1.21,2.32 -0.15,0.5 1.36,-0.02 0.76,0.83 1.46,-0.04 0,0 1.02,1.65 -0.08,0.97 0.39,0.84 -0.55,0.85 -0.1,1.34 -1.76,1.48 0.61,0.75 -0.33,0.36 -1.21,-0.49 -1.53,0.86 -1.06,-0.75 -1.25,0.26 -0.65,-0.23 0.36,0.55 -1.4,-0.17 -1.32,1.81 -2.37,-0.88 -0.38,0.42 1.07,0.49 0.11,0.32 -0.28,0.21 -1.35,-0.35 -0.44,0.3 -0.07,0.37 0.48,0.39 0.16,0.8 -0.26,0.74 -1.34,-0.46 -1,0.47 -0.01,0.49 -0.47,0.52 0.77,1.18 0.55,0.26 -0.11,0.95 0.44,0.53 -0.27,1.03 0.18,0.31 0.68,-0.35 0.36,0.19 -0.13,0.43 1,0.12 0.61,0.71 -0.67,1.36 -0.55,0.23 0,0 -0.66,-0.32 -0.83,0.56 -0.66,-0.14 -0.44,0.9 -0.58,0.15 -0.68,-0.53 -0.53,0.81 0.38,0.95 -0.37,0.29 -1.28,-0.59 -1.22,0.83 -1.32,-0.19 -0.36,-0.37 -0.81,0.33 -0.42,-0.79 -1.12,0.39 -0.45,-0.34 0,0 0.18,-0.66 1,-0.82 0.13,-0.54 -0.51,-1.31 0.37,-2.81 -0.42,-0.86 0.34,-0.95 -0.25,-0.68 -1.32,-0.95 -0.09,-0.47 -1.29,0.19 -0.37,-0.31 0.05,-1.54 -1.75,-2.16 -0.2,-1.19 -0.48,-0.59 -0.82,-0.55 -1.09,0.36 -0.32,-0.15 0,0 1.14,-1.94 2.6,-0.77 1.66,-1.29 0.65,-0.17 0.02,-0.98 -0.76,-0.02 -0.17,-0.25 0.58,-0.91 -1.09,0.05 0.58,-0.61 -0.3,-0.42 -0.56,-0.03 0.71,-0.59 -0.53,-1.73 0,0 1.51,1.06 0.78,-0.04 0.52,0.6 0.86,-0.87 0.66,-0.07 0.6,0.51 z" 
                fill="rgb(151, 144, 238)" 
                stroke="white" 
                stroke-width=".7px"
                title="Ульяновская область" 
                id="RU-ULY" 
            />
        </svg>