<svg xmlns="http://www.w3.org/2000/svg" viewBox="794.3801100000006 507.4408199999992 121.03999999999928 198.45999999999896" width="121.03999999999928" height="198.45999999999896">
            <path 
                d="m 798.58011,602.42082 -0.01,-1.12 -0.6,-0.92 -0.06,-0.77 0.59,-1.96 1.3,-2.3 0.18,-2.26 0.59,-0.89 0.57,-0.2 0.59,0.65 0.46,-0.1 0.57,-0.89 0.68,0.97 0.58,-0.16 0.27,-0.48 -0.55,-0.96 0.09,-1.48 0.99,-0.69 0.14,-0.55 -2.6,-4 -1.08,-1.02 -0.71,-0.08 -0.26,-0.95 0.53,-0.12 0.21,-0.94 0.39,-0.06 -0.01,0.39 1.08,0.54 0.39,-0.25 0.45,-0.87 0.03,-1.06 1.12,-1.38 0.1,-0.54 0.8,-0.72 0.57,-0.05 0.14,-0.61 0.41,-0.08 0.26,-0.5 -2.23,-2.36 0.37,-0.67 -1.13,-0.46 -0.55,-0.67 0.18,-0.84 -0.7,-0.17 -0.16,-1.15 1.33,-0.32 0.53,0.83 1.2,0.5 0.56,0.67 1.04,-0.06 -0.45,-1.86 0.37,-0.77 0.53,-0.19 -0.46,-3.33 1.81,0.23 0.25,-0.96 0.68,-0.83 -0.38,-0.97 0.74,-2.39 1.61,-0.33 0.32,-0.77 -0.68,-0.7 0.44,-1.15 0.55,0.15 0.61,-0.27 0.24,-1.04 0.64,-0.32 0.95,0.17 1.93,-0.8 0.86,0.49 2.47,-0.54 1.74,0.91 0.65,-0.21 0.76,0.68 0.77,0.01 0.85,-0.71 0.41,0.03 0.88,1.05 0.43,-0.16 1.75,0.67 0.65,-0.35 0,-0.36 0.71,-0.76 -0.01,-0.9 2.25,-3.08 0.8,-0.23 1,0.17 1.44,0.82 0.09,0.39 1.79,0.56 1.58,0.11 1.12,0.69 0.5,-0.04 1.3,-1.22 1.54,-0.26 1.99,-1.83 0.3,-0.47 -0.14,-0.92 1.17,-1.18 2.61,0.04 0.48,-0.41 0.29,0.66 -0.15,0.8 0.82,-0.03 0.57,-0.69 -0.03,-0.32 -0.52,-0.28 -0.18,-1.2 0.75,-1.17 -0.57,-0.72 0.16,-1.37 -0.32,-0.85 0.27,-0.45 0.01,-1.32 1.07,-1.98 -0.45,-1.09 1.41,-3.35 -2.19,-2.59 1.05,-2.4 -0.26,-0.74 0.22,-0.32 0.66,0.16 1.71,-1.5 0.31,-0.56 -0.33,-0.87 0.43,-0.76 0.36,0.55 0.48,-0.37 1.37,-0.01 0.38,-0.45 -0.02,-0.85 0.46,-0.48 0.93,0.31 0.96,-0.7 1.38,-0.3 1.02,-1.79 0.64,-0.3 1.23,-3.64 -0.36,-1.14 0.66,-0.33 1.35,0.08 0.09,-0.54 0.69,-0.76 -0.43,-0.65 0.69,-4.5 0.66,-0.51 1.45,-0.05 0.71,-1.35 1.01,-0.01 0.43,0.78 0.9,-0.05 -0.04,1.01 0.82,0.06 0.67,-0.33 0.17,0.86 0.74,1.12 0.85,0.53 -0.03,1.03 0.47,0.7 0.66,0.34 0.14,0.5 0.87,0.23 0.52,1.04 1.01,-0.35 0.42,-0.59 0.72,-0.02 0.45,1.88 1.11,0.78 0.77,-0.1 0.92,-1.05 1.79,0.52 0.26,0.75 0.63,-0.22 0.08,-0.83 0.79,-0.95 -0.05,-1.23 0.92,-0.39 0.04,0.8 0.68,0.48 -0.04,0.38 0.86,-0.52 0.66,0.14 0.33,0.77 -0.26,0.37 0.86,1.55 0.58,-1.17 1.1,-0.58 0.41,0.18 -0.31,0.94 0.24,0.71 -0.44,0.72 0.13,0.63 0.78,0.42 0.47,-0.34 1.08,-0.04 0.77,-1.04 1.14,-0.4 0.53,-2.21 0.86,-0.86 0,0 1.78,-0.21 0.56,0.9 1.29,0.76 0.52,-0.79 0.39,0.08 0.27,0.46 0.49,-0.12 -0.26,0.78 0.58,0.01 0.21,-0.48 0.59,-0.09 0.34,-0.48 -0.13,-0.86 0.42,-0.34 0.42,0.95 1.04,0.18 1.93,1.33 2.08,2.82 -0.03,0.71 1.14,1.42 -0.14,1.77 0.79,0.99 -0.24,1.02 0.74,2.26 -0.05,1.23 -0.41,0.52 0.15,0.35 -0.49,1.41 -1.15,0.13 -0.32,0.46 -0.02,2.12 0.37,0.68 -0.36,0.65 -0.76,0.02 -1.43,-1.18 -0.5,0.13 -0.47,0.54 -0.51,0.05 -0.54,1.19 -0.5,0 -1.08,0.79 0,0.88 -0.68,0.19 -0.23,0.61 0.68,1.04 -0.53,0.26 2.27,2.46 1.03,-0.55 0.96,0.26 0.99,-0.58 0.85,0.26 0.73,1.55 1.44,0.32 0.26,0.77 -0.45,0.73 0.81,1.35 0.34,0.11 0.87,-0.87 0.57,-0.05 0.05,0.89 0.84,0.34 0.11,0.65 -0.37,0.4 0.45,0.44 0.16,1.68 -0.57,1.41 -0.02,1.82 -1.67,0.65 0,0 -0.8,0.14 -1.08,-0.42 -0.17,-0.61 -1.67,-0.42 -1.01,1.01 0,1.62 0.35,0.97 -0.28,0.29 -0.79,-0.33 -1.11,0.95 -0.49,-0.05 0.08,-0.51 -1.17,-0.91 1.03,-2.22 -0.34,-0.25 -0.33,0.34 -0.36,-0.2 -0.17,0.67 -0.78,-0.85 -0.1,0.22 -0.78,-0.26 -1.83,0.5 -0.01,-0.34 -0.45,-0.1 -2.08,0.67 -7.81,-0.45 -2.83,1.15 -1.64,-0.6 -5.9,2.39 -2.73,2.5 -2.63,4.56 -0.84,0.95 -1.77,1.45 -2.06,0.93 -1.83,1.88 -1.58,4.04 -0.45,2.16 -1.01,0.7 -0.3,0.59 -0.47,-0.25 -1.71,0.81 -1.53,2.94 -0.51,-0.1 -0.77,0.37 -0.85,1.71 -1.33,0.78 -0.88,0.06 -0.97,1.08 -0.15,0.71 -0.24,-0.24 -0.42,0.16 -0.25,1.49 -0.34,0.24 -0.43,-0.24 0.03,0.33 -1.37,0.67 -0.23,2.23 -0.24,-0.16 0.05,-0.8 -0.84,0.18 0.25,0.38 -0.66,1.23 -0.67,0.36 -0.08,0.95 -0.32,-0.1 -0.83,0.64 0.16,1.1 0.86,0.31 -0.2,0.56 -0.44,-0.3 -0.71,0.12 -0.16,0.78 -0.92,0.19 -0.54,1.68 -0.45,0.22 -0.4,1.05 -0.98,0.25 -1.14,1.03 -0.25,1.16 -0.67,-0.25 -1.49,1.39 -0.27,0.87 -0.56,-0.08 -0.88,0.69 -0.68,1.22 -0.3,-0.31 -0.82,0.69 -0.35,-0.15 -0.08,0.54 -0.86,0.19 -2.05,3.52 -0.51,0.03 -1.15,1.21 -0.62,0.06 -0.8,0.86 -1.31,0.41 -2.43,2.73 -0.04,0.59 0.61,0.97 2.25,0.97 0.65,0.01 0.26,0.17 0.03,0.76 0.56,0.37 3.08,-0.76 0.28,0.25 1.85,0.09 2.3,-0.71 -0.19,0.57 0.57,0.42 -0.57,0.63 0.34,0.32 -0.35,0.28 0.19,0.51 -0.24,0.28 -0.06,-0.4 -0.31,0.24 0.05,0.7 0.5,0.42 -0.51,0.42 0.4,0.33 0.04,0.29 -0.43,0.24 0.49,0.99 -0.34,0.13 0.22,0.15 -0.12,0.61 -0.62,0.59 -0.19,1.18 0.26,1.43 0.62,0.46 0.48,-0.47 -0.05,-0.34 0.66,-0.32 0.88,0.1 0.35,0.47 0.59,-0.51 0.77,-2.24 -0.26,-0.24 -0.77,0.21 -0.54,-1.08 0.75,-1.05 0.72,-0.18 -0.18,-0.26 0.82,-0.34 0.11,-0.38 1.72,0.14 0.71,-0.33 -1.87,2.77 -0.21,0.09 0,-0.75 -0.55,0.13 -0.39,0.26 -0.19,0.78 1.02,0.17 1.16,1.04 1.89,-0.15 -0.38,0.75 -1.4,0.85 -0.07,0.72 -0.72,1.26 -1.21,0.13 -0.98,0.88 0.86,0.63 4.58,-0.58 2.53,-1.83 0.49,-2.08 1.51,-1.1 -0.1,2.34 -1.53,1.87 0.07,0.5 -0.73,0.51 0.04,0.54 1.41,-0.09 1.4,-2.21 0.37,-2.46 0.41,-0.85 0.01,-1.34 -0.78,0.4 0.47,-1.08 0.06,-1.22 -0.56,-0.47 0.64,-0.22 1.97,1.09 2,0.47 1.21,-0.3 1.92,-1.16 0.36,0.07 0.04,1.1 2.89,1.77 0.08,0.69 0.87,0.53 -0.53,0.76 0.4,1.08 1.49,1.12 -0.08,0.39 0.89,0.92 2.2,1.24 -0.24,0.89 0.64,-0.22 -0.07,0.41 0.91,0.17 -0.18,0.28 0.75,0.66 1.63,0.26 -0.16,0.58 -0.37,0.19 0.52,0.06 0.21,0.88 -0.58,0.19 0.04,0.64 -1.06,0.15 0.27,0.33 -0.4,0.49 -0.72,0.05 -1.63,-0.99 -0.4,-0.67 -0.71,0.08 0.78,1.06 0.73,0.04 0.18,1.15 0.62,0.18 0.13,0.48 1.29,0.21 -0.55,0.88 0.6,0.65 0.15,1.71 -0.39,0.98 -0.73,0.29 0.07,0.98 1.91,2.1 1,-0.18 0.13,0.98 -0.59,-0.08 -0.82,0.71 -0.03,1.17 0.56,0.5 -0.23,0.48 -1.42,0.77 -0.62,1.92 -0.7,0.02 -0.95,0.59 0.07,1.53 -1.14,0.35 0.4,0.11 0.08,0.45 0.49,-0.07 -0.03,0.58 -1.37,0.58 0.25,0.81 -0.53,0.21 0.37,2 -0.35,0.7 0.13,0.39 -0.9,0.68 -0.09,0.94 -0.6,1.14 0.46,0.99 -0.57,0.97 0.85,2.28 -0.28,0.44 0.1,1.61 0.26,0.42 1.03,0.33 -1.44,1.03 -0.62,1.27 0.34,0.82 0.58,0.25 -0.21,1.17 0.34,1.28 -0.92,1.76 0.05,1.16 -0.82,0.9 0.25,0.14 0.04,1.09 -0.5,0.11 0.24,0.46 -0.68,0.91 0.82,-0.6 0.41,0.53 -0.21,0.61 -0.88,0.81 -0.4,1.04 -0.06,3.28 -0.64,0.46 -0.35,0.77 -0.81,0.33 -1.44,1.48 -1.31,2.06 -0.95,0.48 -0.92,1.16 -1.63,3.64 0.02,0.69 -0.34,-0.12 0,0 -1.02,-0.72 -1.22,0.32 -1.21,-0.39 0.56,-1.33 -0.54,-0.59 0.12,-0.37 1.61,-1.02 0.12,-0.73 -0.46,-0.91 -1,-0.86 0.37,-0.79 0.57,-0.21 -0.03,-0.56 -1.11,-0.14 0.06,-0.53 -0.54,-0.37 -0.29,-1.49 -1.12,-0.34 -0.91,0.73 0.03,0.65 -1.51,0.26 -0.29,0.61 -1.06,0.46 -0.95,-0.31 -1.13,0.31 -1.03,1.02 0.55,1.15 1.34,0.79 -0.17,0.49 -0.79,0.26 -0.18,0.51 1.21,0.09 1.25,0.89 0.95,-0.21 0.61,0.43 0.45,-0.06 -0.51,0.75 0.62,0.23 0.09,1.09 -0.58,0.56 -0.56,0.08 -0.06,0.7 -0.79,0.38 -0.73,-0.26 -2.04,1.64 -0.86,-0.3 -0.17,-0.37 -1.64,-0.34 -0.77,2.14 0.39,0.85 -2.81,2.16 -1.04,-0.16 -0.87,0.48 -1.33,-0.5 -0.35,-0.58 -0.35,0.03 -0.58,0.77 -1.58,-1.17 0.21,-0.47 -1.19,-0.08 -0.01,-0.23 -0.35,0 -0.49,0.58 -0.68,0.03 -0.09,-0.38 0.5,-0.83 -0.66,-0.46 -0.06,-0.86 -0.85,-0.03 -1.05,-0.49 -0.73,0.84 -0.72,-0.27 -0.46,0.33 -0.95,-0.01 -0.6,1.79 -0.98,-0.46 0.31,2.15 -0.33,0.81 -3.23,0.72 0,0 0.35,-3.22 0.49,-1.21 0.62,-0.32 -0.04,-0.82 -0.47,-0.53 0.23,-0.81 0.82,-1.03 1.42,-0.24 0.53,-0.53 1.48,-2.49 -0.71,-0.99 -0.13,-0.75 -0.49,-0.14 -0.27,-0.93 1.15,-3.02 -0.59,-0.26 -0.43,-0.72 -0.42,0.21 -0.77,-0.41 -0.8,0.12 0,0 1.61,-1.13 1.73,0.52 0.72,-0.45 0.24,-1.3 -0.87,-0.31 -0.57,0.32 -0.67,-0.46 -0.26,0.33 -0.41,-0.84 -0.44,-0.08 -0.44,-0.59 -0.47,-0.04 -1.08,1.11 -3.09,-0.5 -2.37,-1.07 -1.17,-1.24 -0.68,-3.08 -0.87,-0.48 -1.69,-0.12 -0.34,-0.89 -0.63,0.33 -0.7,-0.21 -0.62,0.35 -0.57,-0.44 -0.07,-1.03 -1.64,-0.84 -0.78,0.33 -0.16,0.78 -0.38,0.23 0.04,0.79 -0.48,0.12 -0.36,-0.46 -0.73,-0.17 -1.95,1.27 -0.67,-0.29 0,0 0.44,-0.14 0.43,-1.36 -0.01,-1.95 -0.75,-1.3 0.92,-1.27 -0.2,-0.31 0.27,-0.94 -0.42,-0.6 -0.01,-0.95 -0.51,-0.38 0.65,-0.95 -0.59,-1.18 -0.78,-0.25 -0.19,-1.06 -0.45,0.24 -0.49,-0.4 -0.65,-0.12 -0.52,0.32 -0.46,-0.33 0.07,-0.52 0.7,-0.82 -0.02,-0.62 -0.6,-0.94 -0.47,0.01 -0.85,0.61 -0.31,-0.25 -0.05,-0.51 1.1,-1.89 -0.43,-1.05 1.27,-0.71 0.95,-2.47 1.1,-0.34 0.71,-1.22 0.94,0.04 0.21,-0.77 -0.63,-1.58 0.35,-1.25 1.53,0.11 1.21,-0.64 0.49,0.11 2.74,-0.98 0.46,-0.53 0.2,-1.15 2.42,-2.25 0.73,-0.4 2.41,0.15 1.36,-0.95 0.13,-0.65 -1.09,-1.27 -0.14,-0.62 0.48,-0.52 -0.57,-1.32 0.48,-0.67 4.22,1.81 0.85,0.08 0.57,0.47 3.72,0.5 0.19,-0.85 -0.32,-0.48 0.91,-1.13 -0.16,-0.6 -0.44,-0.22 0.2,-0.81 -0.35,-1.34 1.7,-2.48 -0.18,-0.83 0.38,-0.8 -0.37,-0.83 -0.65,-0.49 0.17,-0.32 1.02,0.03 0.19,-0.38 -2.92,-2.29 -0.6,0.75 -1.1,-0.02 -1.93,1.13 -0.62,0.07 -0.61,-0.56 -0.98,0.16 -0.55,-0.78 -0.7,-0.16 -0.41,0.69 -0.93,0.02 -1.32,0.86 0.12,1.09 -0.52,0.39 -0.38,-0.29 -0.59,0.22 -0.38,0.73 -0.61,0.2 -0.68,-0.24 -2.03,0.2 -0.73,-0.28 -1.72,0.46 -0.14,0.64 -0.7,0.34 -0.66,-0.21 -0.34,-0.64 0.41,-0.4 -0.16,-0.35 -1.03,-0.11 -1.49,0.62 -0.49,-0.17 0.95,-1.62 -0.77,-1.65 0.23,-0.56 -0.5,-2.52 -0.69,-0.52 -0.87,0.19 -1.13,-0.56 -0.99,0.49 -0.74,-0.81 -0.83,-0.05 -0.54,-0.64 -1.04,0.12 -0.72,-0.39 0.89,-1.01 0.42,-2.01 0.75,-0.46 0.52,-0.88 1.49,-0.71 0.85,0.23 0.39,-0.21 0.85,-2.67 0.01,-1.11 0.99,-0.51 0.3,-0.73 1.28,-0.21 0.18,-0.51 1.35,-0.51 0.44,-0.7 0.71,-0.2 0.81,-1.51 1.89,-0.48 0.35,-0.54 0.02,-1.12 1.4,-0.36 0.91,-1.72 1.23,-0.16 0.23,-0.41 -1.81,-1.04 -0.28,-0.45 0.31,-0.77 -0.65,-0.46 -0.56,-1.26 -1.16,-0.19 -1.5,0.68 -2.59,0.31 -0.13,-0.49 -3.53,0.58 -1.15,-0.02 -1.01,-0.33 z" 
                fill="rgb(151, 144, 238)" 
                stroke="white" 
                stroke-width=".7px"
                title="Хабаровский край" 
                id="RU-KHA" 
            />
        </svg>