<svg xmlns="http://www.w3.org/2000/svg" viewBox="284.0801100000004 454.73082 191.66999999999985 109.87999999999965" width="191.66999999999985" height="109.87999999999965">
            <path 
                d="m 304.36011,454.73082 1.71,1.71 0.97,2.02 0.16,1.46 1.67,1.35 1.32,0.56 -0.41,5.25 -0.54,1.29 0.94,2.25 -0.64,1.63 -1.6,1.11 0.22,0.87 2.11,1.39 1.3,-0.67 2.63,1.2 0.53,2 1.26,1.11 1.29,-0.29 1.71,-1.38 2.77,0.02 0.67,-0.57 0.76,0.18 1.57,-0.78 2.44,-0.32 2.23,-0.86 4.45,-0.53 1.6,1.28 3.03,-0.95 0.51,0.42 0.44,1.14 -0.84,2.6 0.28,0.88 0.69,0.72 1.81,0.49 0.38,1.18 3.28,-0.46 0.5,0.93 2.42,-1.6 2.64,-2.41 3.11,1.69 0.08,-1.44 0.64,-1.01 -0.69,-1.39 1.21,-0.38 1.58,0.18 0.91,1.02 2.6,-0.11 0.34,0.95 3.29,-0.5 1.2,1.48 1.79,0.99 0.34,0.62 0.09,0.92 -0.54,0.98 -0.62,0.39 1.71,3.24 0.33,1.82 3.04,0.09 0.54,0.37 0.87,1.55 0.07,2.54 0.81,3.41 2.94,-0.74 0.94,-0.83 2.5,0.32 1.29,-0.25 1.33,-1.91 0.4,-0.11 1.16,0.1 0.46,1.35 0.54,0.29 0.96,1.62 0.76,0.44 4.59,0.01 0.97,0.51 1.61,1.8 3.66,-0.27 1.76,-0.66 3.67,-0.47 3.17,1.44 0.68,0.94 0.5,-0.01 1.23,-1 1.18,-0.05 1.61,0.55 0.55,0.54 0.79,1.96 1.69,1.81 3.22,2.51 1.52,0.71 1.58,-0.74 3.8,-0.62 2.6,0.53 4.85,-0.22 0.89,-3.52 1.91,-0.48 1.98,-1.86 -0.03,-0.3 0.74,-0.1 0.34,-1.52 2.15,-0.83 0.26,0.05 0.56,1.38 1.95,2.03 -0.26,0.84 0.34,0.45 1.19,0.77 0.74,-0.31 0.99,1.5 0.68,0.4 0.57,-0.16 0.38,-1.32 0.41,-0.55 0.63,-0.11 1.95,1.1 2.8,-0.08 0.05,1.73 1.99,0.63 0.19,1.14 0.87,0.67 1.65,0.49 1.1,-1.13 0.11,0.82 1.29,-0.98 0.87,0.36 1.34,2.2 0.79,-0.08 0.62,0.71 0.13,1.02 1.36,1.39 0,0 -0.01,2.89 1.23,2.52 0.57,0.52 1.35,0.3 1.86,1.08 1.36,0.16 1.81,1.66 1.87,0.43 0.35,1.2 -1.19,0.29 -1.04,0.83 0.06,2 -7.86,4.49 -2.24,1.65 0,0 -2.2,0.14 -3.07,-2.63 -2.31,0.17 -4.77,3.64 -0.81,0.86 -0.11,1.47 -1.12,1.19 -0.67,0.09 -2.07,-1.72 -1.96,-0.05 -0.82,0.36 -2.83,-0.29 -0.25,-1.6 -1.63,-0.77 -0.68,-0.05 -0.93,0.62 -2,0.35 -1.11,0.78 -3.27,0.01 -1.82,0.41 -1.06,-0.25 -0.4,-1.94 -1.06,-0.25 -0.63,-0.05 -0.98,1.01 -1.07,-0.54 -0.33,-0.68 -1.06,0.83 -3.01,-0.31 -0.61,0.61 -1.83,-0.67 -2.97,-0.08 -1.46,-0.57 -0.45,0.17 -0.26,0.54 0.08,1.15 -0.46,1.12 0.51,1.39 -0.14,0.38 -1.4,0.89 -0.2,1.62 0.26,1.7 -1.05,2.11 0.32,1.46 -0.68,5.82 -3.57,0.62 -0.88,1.43 -0.8,0.15 -0.8,1.79 -1.52,1.38 0.63,2.4 -0.18,0.89 -3.57,3.42 -0.27,0.68 0,0 -0.96,-0.64 -0.99,0.22 -1.68,-0.37 -3.64,0.06 -1.3,-1.4 -1,0.26 -0.89,-0.8 -2.45,0.78 -1.76,-0.51 -0.94,-0.44 0.96,-1.11 -1.43,-1.33 0.61,-0.84 -0.16,-0.55 -0.96,-0.3 -1.25,0.74 -1.41,-1.33 -0.13,-1.47 -2.57,-3.12 -1.47,-0.18 -1.01,-1.12 -2.59,-1.8 -1.31,-1.45 -1.5,0.71 -0.68,-0.76 -2.14,0.58 -1.95,-0.83 -1.27,-1 -3.13,1.12 -0.04,-0.97 -1,-0.47 -1.32,0.13 -0.92,0.76 1.13,1.87 -3.8,3.1 -1.87,-0.01 -0.42,2.41 -0.93,1.76 -2.41,0.92 -2.3,0.35 -0.95,1.53 -3.36,1.82 -0.31,-0.63 -0.65,-0.19 -1.51,1.25 0.05,3.12 -3.74,1.18 -1.91,-0.36 -0.46,0.44 0,0 -0.27,-1.25 -1.5,-0.54 -1.36,-1.53 -1.87,-5.96 -0.22,-0.29 -0.73,0.06 -0.31,-1.27 -1.67,0.07 -2.85,-0.95 -2.24,-0.06 -0.87,-0.37 -0.82,-0.88 -0.53,-1.11 0.01,-3.92 -0.57,-3.31 -0.49,-0.92 -3.19,-1.32 0.48,-1.13 -0.26,-1.13 -2.51,-4.5 -0.76,-2.64 0.58,-1.91 -0.14,-0.85 -1.27,-1.92 -11.05,-7.22 -5.4,-0.97 -2.55,0.54 -0.59,-0.67 0.02,-1.53 -0.28,-0.41 -3.07,-1.35 -0.41,0.41 0,0 -0.13,-3.31 0.3,-0.45 -0.02,-1.12 1.07,-0.62 -0.03,-1.85 -0.51,-1.07 -0.52,-0.07 -0.28,-0.42 -0.57,-2.67 0.81,-0.93 0.02,-1.3 -1.49,-1.62 -0.31,-1.17 0.61,-0.94 -0.34,-1.64 0.6,-0.87 -0.31,-0.97 0.55,-0.43 -0.12,-0.81 0.7,-3.03 0.29,-2.85 -0.24,-1.11 0.44,-0.28 0.44,-1.48 1.11,-0.78 0.26,-1.02 0.77,-0.77 -0.41,-1.16 -1.16,-0.04 -0.28,-0.75 -0.02,-4.07 -1.01,-1.09 0.82,-1.18 0.48,-1.47 0.49,-0.24 -0.82,-0.93 0.06,-1.13 0.85,-0.25 0.16,-0.99 1.01,-0.35 0.11,-0.51 0.74,-0.1 -0.02,-1.38 1.11,-1 1.94,0.76 0.14,0.79 0.65,0.33 0.18,0.97 1.2,-0.74 0.17,-0.98 2.08,-1.21 0.31,-1.13 0.75,-0.32 1.05,-1.23 -0.33,-1.48 0.16,-0.69 1.98,-3.33 0.77,-0.32 0.05,-0.4 1.17,-1.22 z" 
                fill="rgb(151, 144, 238)" 
                stroke="white" 
                stroke-width=".7px"
                title="Ханты-Мансийский автономный округ" 
                id="RU-KHM" 
            />
        </svg>