<svg xmlns="http://www.w3.org/2000/svg" viewBox="181.50010999999998 733.1108200000001 12.120000000000061 15.029999999999973" width="12.120000000000061" height="15.029999999999973">
            <path 
                d="m 186.10011,733.31082 1.55,0.73 0.84,-0.33 1.33,0.34 -0.03,1.21 0.53,-0.51 0.92,-0.14 -0.1,-0.59 1.09,-0.91 0.58,0.78 -0.01,0.45 0.72,0.38 0.1,0.42 -0.16,0.84 -1.64,2.84 0.79,2.03 -0.14,1.34 0.53,0.27 -0.11,0.82 0.27,0.39 -0.76,0.77 -0.31,-0.04 -0.21,-0.47 -0.91,0.3 -0.74,0.61 0.63,0.87 -1.32,0.37 -0.22,0.94 -0.55,-0.08 -0.27,0.66 -0.94,0.54 0,0 -1.46,-0.83 -1.71,0.15 -1.18,-1.6 -0.56,0.02 0,0 0.51,-0.64 -0.09,-0.63 0.44,-0.63 -0.29,-1.1 0.96,-1.81 0.06,-1.18 -0.8,-0.38 0.14,-0.89 -2.08,-0.97 0,0 0.23,-1.06 0,0 0.33,0.14 0.82,-0.54 0.16,-1.89 0.85,-0.21 0.28,0.82 1.05,0.03 0.53,-0.37 -0.04,-0.93 z" 
                fill="rgb(151, 144, 238)" 
                stroke="white" 
                stroke-width=".7px"
                title="Чеченская республика" 
                id="RU-CE" 
            />
        </svg>