<svg xmlns="http://www.w3.org/2000/svg" viewBox="268.98010999999985 593.3608200000002 44.82000000000022 54.01999999999987" width="44.82000000000022" height="54.01999999999987">
            <path 
                d="m 282.62011,596.63082 0.15,-1.04 0.41,0.11 0.52,-0.4 -0.16,-1.24 0.8,-0.42 0.81,0.46 1.75,0.18 0.68,1.1 1.74,-0.42 1.16,0.41 2.04,-0.55 1.19,0.72 0.84,-0.25 0.6,0.33 2.6,-0.27 -0.5,-1.23 0.96,-0.76 0.86,0.39 0.82,-0.28 0.7,0.77 1.24,-0.06 0.09,0.5 0.78,0.28 0.39,0.91 1.05,0.45 0,0 1.22,1.64 0.28,1.35 0.9,0.05 -0.32,0.62 1.58,1.53 -0.26,0.39 0.38,1.49 -0.56,0.67 0.69,0.19 -0.22,0.83 -0.65,0.39 -0.7,0.26 -1.41,-0.17 0.35,1.34 -1.1,0.45 1.41,2.45 -0.45,1.18 -0.37,0.01 -0.5,-0.55 -0.77,0.21 -0.04,0.71 0.91,2.15 -0.28,0.65 1.01,1.02 2.14,-0.88 0.61,0.38 -0.26,0.52 1.31,0.16 1.98,-0.71 1.53,0.1 0.6,2.3 -1.21,0.77 0.24,0.64 -0.31,0.6 1.44,1.27 0.39,0.03 0.1,0.8 0,0 -1.51,0.06 -0.04,0.8 -0.3,0.24 -2.18,-0.1 -0.12,0.42 -1.48,1.17 -0.31,1.04 -0.78,-0.45 -0.2,-0.72 0.54,-0.37 -0.49,-0.36 -1.54,0.28 -0.95,-0.28 -0.5,0.33 0.28,0.9 -0.43,0.11 -0.77,-0.25 0.24,-0.51 -0.42,-0.02 0.03,-0.28 -0.45,0.59 -0.39,-0.55 -0.56,0.21 -0.33,0.71 -0.23,-0.5 -0.61,-0.3 -0.25,-0.78 -0.48,-0.07 -0.63,0.19 -0.36,0.48 0,1.42 -0.49,-0.07 -0.22,-0.46 -0.93,0.11 -0.27,0.67 1.05,0.2 0.59,1.02 -1.23,1.19 -0.04,0.69 -0.3,-0.34 -0.58,0.03 -0.02,0.6 3.15,0.7 1.06,-0.39 0.61,0.8 -1.03,0.8 -0.48,-0.42 -0.86,-0.12 -0.16,0.79 -0.55,0.61 0.17,1.08 1.53,0.35 0.88,0.64 0.74,-0.03 0.33,-0.43 0.94,1.09 2.24,0.53 0.19,1.32 -0.93,0.64 -0.94,-0.71 -1.16,0.17 -0.53,0.41 -1.3,-0.86 -0.63,0.57 -0.97,-0.53 -0.86,0.73 -0.66,-0.12 0.35,0.81 -1.57,1.65 -0.9,0.25 -0.1,1.15 0.91,0.42 0.05,1.19 0.9,0.16 0.7,1.95 -0.77,0.75 -1.22,0.49 -0.52,0.73 -1.37,0.04 -1.86,1.79 -1.11,0.17 0,0 -0.95,-0.66 0.77,-1.71 1.02,-0.89 -0.37,-1.77 -1.52,0.17 -0.96,-0.66 -0.26,0.22 -0.85,-0.42 -0.88,0.28 -0.23,-0.47 -0.32,0.05 -1.4,0.59 -0.23,0.63 0.25,1.09 -1.4,-0.83 -0.58,-1.13 -1.03,0.02 0,0 -0.34,-0.56 0.36,-0.68 -0.71,-1.15 0.29,-0.63 0.18,-2.94 0.95,-1.13 -0.4,-0.64 -0.15,-1.28 -0.55,-0.64 0.4,-0.33 0.05,-1.74 -0.05,-1.14 -0.41,-0.68 0.64,-1.13 0.31,-3.1 1.03,-0.21 0.73,-0.65 0.8,-1.98 1.94,-0.21 1.07,0.41 0.36,-1.94 -0.9,-0.7 0.6,-0.87 -0.36,-0.78 0.87,-0.79 0.87,-2.17 -0.39,-0.82 0.31,-0.8 -1.1,0.18 -0.44,-0.75 -0.53,0.75 -0.61,0.23 -0.62,1.33 -1.46,1.45 -0.51,0.12 -0.61,-0.34 -2.16,0.8 -0.56,1.08 -0.62,0.04 -1.55,-0.83 -1.29,0.34 -1.22,1.22 -0.6,0.15 -0.49,-0.15 -1.08,-1.3 -0.26,-0.91 -3.92,-3.1 0.71,-1.49 -1.07,-1.26 1,-2.04 2.03,-1.16 3.6,0.78 0.25,0.59 -0.65,1.05 0.32,1.41 -0.56,0.94 0.31,0.11 1,-1.51 0.17,-0.99 0.69,-0.69 1.11,1.69 0.39,0.33 0.39,-0.16 0.58,1.08 0.81,-0.33 0.88,-0.87 -0.42,-1.02 -1.08,-0.46 0.74,-0.78 -0.04,-0.46 0.76,-0.57 1.1,0.56 0.43,-0.18 0.9,-0.87 -0.19,-0.69 0.28,-0.4 2.21,-0.32 1.09,-1.59 -1.02,-0.04 -0.67,-0.6 -0.68,0.24 -0.2,-1.13 0.21,-0.52 -1.35,-0.86 0.74,-1.54 -0.19,-1.2 1.07,-0.82 0.05,-0.36 -0.34,-0.5 -1.06,0.26 -0.45,-0.25 z" 
                fill="rgb(151, 144, 238)" 
                stroke="white" 
                stroke-width=".7px"
                title="Челябинская область" 
                id="RU-CHE" 
            />
        </svg>