<svg xmlns="http://www.w3.org/2000/svg" viewBox="990.9601099999983 338.1608199999997 233.22999000000175 179.65000000000077" width="233.22999000000175" height="179.65000000000077">
            <path 
                d="m 1063.1501,377.29082 -0.76,-0.54 1,-2.08 1.5,-0.95 -0.1,-0.38 0.52,-0.1 0.57,-0.71 0.65,-0.12 -0.05,0.27 1.2,0.04 -0.05,0.4 0.81,0.12 -0.13,0.46 0.62,-0.14 -0.1,0.2 0.55,0.18 -0.13,0.25 0.44,-0.53 0.33,0.72 2.74,0.54 1.45,0.87 0.24,0.96 -0.28,1.07 -0.94,-0.12 -0.13,0.34 0.41,0.5 -0.38,0.22 0.27,1.12 -0.38,1.53 -0.51,0.67 -0.87,-0.22 -1.06,0.17 -3.86,-1.57 -1.73,-1.28 -0.18,-0.69 0.27,-0.16 -1.93,-1.04 z m 140.03,95.59 0.65,-0.23 0.44,0.55 -0.36,0.4 -1.28,-0.13 -0.44,-0.36 0.32,-0.58 0.67,0.35 z m -62.95,-121.12 -0.2,-1.92 1.87,-2.22 0.09,-1.06 2.02,-1.29 2.18,-3.11 1.52,-1.12 -0.09,0.36 0.48,0.09 0.3,-0.64 0.5,-0.1 0.46,-1.06 0.51,-0.27 0.05,0.28 1.47,-0.04 -0.54,-0.36 0.17,-0.34 0.52,0.14 0.4,-0.62 0.07,0.59 0.24,0.03 0.5,-0.8 0.14,0.48 0.55,0.03 0.02,0.46 0.46,-0.29 0.95,0.44 0.4,-0.33 0.31,0.19 0.96,-1.12 3.17,0.46 -0.01,0.29 0.77,-0.01 2.04,0.98 -0.62,0.11 0.76,0.49 -0.11,0.5 0.73,-0.06 0.04,-0.41 0.26,0.15 0.75,0.8 -0.49,0.29 0.4,0.43 -0.54,-0.02 1.05,0.31 0.69,1.2 1.65,1.7 0.65,-0.18 0.03,0.54 0.53,0.65 -0.21,1.47 -0.49,0.3 -0.27,0.79 -2.38,1.81 -1.69,0.27 -1.83,0.88 -2.6,0.39 -3.29,1.54 -2.32,0.54 0.64,-0.46 -0.73,-0.77 -0.9,-0.69 -2.15,-0.57 -0.88,0.29 -1.5,1.68 -1.17,0.69 -0.63,0.08 -0.4,-0.31 0.84,0.16 0.21,-0.18 -0.31,-0.35 -0.43,0.24 -1.21,-0.11 -3.48,2.03 0.21,-0.29 -0.24,-1.8 -0.85,-2.25 z m 83.76,95.28 0.2,1 -0.47,1.29 -0.63,-0.04 -0.69,-0.66 -0.82,0.16 -0.91,0.44 -2.75,2.83 0.38,0.82 -0.36,0.6 0.17,2.05 -0.55,0.89 -1.91,-0.27 -0.13,-0.51 -2.12,-0.9 -0.72,-1.42 -1.11,-0.96 -0.41,-0.02 0.45,0.38 0.27,0.99 0.86,0.7 -0.38,-0.07 -0.03,0.45 0.59,0.75 1.22,0.48 0.57,0.76 -0.05,1.49 -0.47,0.56 -1.6,-1.1 -4.55,1.04 -0.22,-0.08 1.45,-0.58 -1.43,-0.13 -0.89,-0.71 -0.6,0.37 -0.29,-0.29 -0.45,0.07 0.24,-0.65 -0.63,-0.69 0.04,-0.4 -0.77,-0.63 -1.25,0.22 0.08,-0.4 -1.24,0.45 0.84,0.11 0.04,0.87 0.82,-0.03 1.09,0.63 -0.24,0.69 0.61,1.12 -0.96,0.16 0.62,0.75 1.23,-0.29 0.69,-0.81 -0.96,2.93 0.29,0.47 -0.18,1.39 0.89,1.98 -1.35,2.1 -0.89,0.78 -0.93,-0.11 0.08,0.3 -1.77,1.14 -1.35,-0.56 -0.97,0.6 0.16,0.49 -0.9,0.43 0.04,0.39 0.92,-0.38 0.99,-1.09 1.19,1.29 -0.24,0.59 -0.42,0.07 -0.06,0.57 -0.89,0.13 -0.66,0.48 0.04,0.23 0.76,-0.21 0.23,-0.36 0.58,0.3 -1.03,1.55 0.67,-0.04 0.31,-0.69 0.41,-0.07 0.5,0.12 0.09,0.41 0.59,0.01 0.34,0.49 1.11,0.15 0.39,1.13 0.97,1.2 -1.5,0.01 -1.11,0.5 -0.94,-0.47 -0.3,-1.8 -1.36,0.33 -0.52,0.55 0.08,0.26 1.13,-0.37 0.49,0.61 -0.36,2.12 -0.76,0.66 -1.23,0.27 -1.8,-0.86 0.07,-1.23 0.69,-0.6 0.11,0.31 0.62,-0.87 -0.67,0.26 0.3,-1.67 -0.38,0.08 -0.1,-0.98 -0.31,0.01 -0.17,-0.44 0.46,1.98 -0.15,0.79 -1.64,1.74 -0.7,0.09 -2.53,-1.57 -0.41,-1.94 -1.69,-1.51 0.44,-0.15 -0.12,-0.33 -0.95,0.28 -2.96,-2.19 -1.08,-0.45 -0.88,0.44 -1.95,-0.22 -0.23,-0.26 -0.46,0.25 -0.12,-0.42 0.5,-0.64 -0.73,0.04 -0.05,-0.68 -2.04,-1.01 0.01,-0.41 -0.87,-0.48 0.75,-0.64 0.36,-1.75 -0.96,-1.68 -0.32,-2.88 -0.58,-0.43 -7,-2.88 -1.01,0.14 -1.52,1.84 -1.03,0.43 -2.15,0.28 -0.42,-0.28 -0.88,0.18 -1.29,-0.26 -1.02,0.3 -1.9,-0.85 0.84,-3.79 -0.38,-0.59 -0.89,0.29 -0.74,-1.15 -0.08,-0.74 -1.19,-1.09 0.4,-0.46 -0.16,-1.03 0.64,0.15 0.65,-0.78 -0.11,-0.99 1.32,-0.76 -0.2,-0.83 0.45,-0.85 -0.41,-0.41 0.49,-0.68 -0.15,-1.75 -0.28,-0.27 -0.26,0.86 -0.39,-0.09 -0.96,2.88 -0.85,0.61 -0.57,0.07 -0.7,-0.53 0.05,-0.45 -0.43,-0.59 0.29,-0.47 -0.09,-1.81 -0.41,0.35 -0.07,1.34 -0.26,0.15 -1.63,-0.76 0.02,0.55 1.26,1.49 -0.23,0.62 -1.1,0.82 -1.03,-0.19 -0.48,-0.8 -0.63,0.06 0.15,0.29 -0.68,1.08 -0.19,3.28 1.09,2.73 2.5,1.96 -0.41,1.04 0.49,0.64 -1.53,2.14 0.12,0.65 -0.36,0.71 -0.16,1.63 -0.99,1.73 -0.74,0.1 -0.9,1.04 -1.82,1.27 -2.27,3.19 -2.87,0.81 -4.1,3.24 -0.33,-0.39 0.8,0.01 1.31,-0.99 -0.33,-0.49 -2.75,0.61 -1.65,-0.59 -0.88,0.43 -0.13,-0.61 -2.08,-0.16 -0.62,-1.06 -0.67,-0.15 0.06,-0.58 -0.59,0.12 -0.38,-0.4 0.88,-0.5 -0.31,-0.2 0.08,-0.77 -0.28,-0.27 -1.32,0.11 -0.09,1.07 0.58,0.69 -1.91,0.91 -0.25,-0.49 -0.47,-0.02 -0.14,-0.72 -0.36,-0.21 -0.44,0.24 -0.59,-0.41 -0.66,-0.07 -0.82,0.92 -0.68,0.04 -0.12,-0.83 -1.37,-0.6 -0.99,-0.78 -0.02,-0.33 -0.42,0.02 -0.73,0.97 -0.37,1.21 -0.95,0.85 -0.55,0.3 -0.67,-0.53 -1.55,0.71 -0.92,-0.19 -0.4,0.36 1.23,0.44 1.13,-0.72 1.38,0.26 1.54,-1.1 0.5,-0.75 0.08,-0.94 0.97,-0.01 0.47,0.33 0.74,1.87 0.92,1.09 -0.09,0.58 -1.66,0.81 -0.17,0.46 0.19,0.11 0.3,-0.42 0.77,0.18 0.58,-0.37 0.31,-0.76 0.54,0 1.09,0.72 0.4,1.38 2.23,-2.81 1,0.07 1.02,-0.83 1.13,0.17 -0.16,1.98 -0.54,1.07 0.05,1.21 0.53,1.27 2.6,2.85 1.38,0.66 0.86,-0.08 -0.4,-0.5 1.53,-1.76 -0.75,-1.71 3.06,6.86 1.01,5.48 0.12,2.4 0.55,1.89 1.48,2.5 1.65,1.13 0.88,1.32 0.1,0.82 -1.04,0.15 -0.36,1.15 0.48,1.51 1.3,0.27 0.3,0.33 0.49,2.46 -0.23,0.95 -0.96,0.55 -0.09,0.94 -0.6,0.87 -1.08,-0.23 -0.54,0.51 -0.19,0.56 0.52,0.49 -0.27,0.5 0.21,0.58 -0.56,0.66 -0.51,-0.94 -5.04,-1.84 -1.75,-1.11 -3.71,-0.5 -3.15,0.33 -1.35,0.42 -2.51,1.3 -2.48,2.24 -1.73,0.43 -3.06,1.46 -2.41,2.12 -2.92,1.5 -0.64,0.87 -1.6,0.71 -0.53,-0.21 0,0 0.09,-0.72 -0.51,-0.45 -0.17,-0.95 -0.58,-0.48 -0.3,-1.28 -0.85,0.21 -0.49,-0.36 -0.15,-1.85 -0.75,-0.44 1.2,-1.4 -0.36,-1.17 -0.63,-0.49 -0.91,-0.07 -0.34,-0.67 -0.78,-0.25 -4.25,1.44 -2.23,1.48 -0.84,-0.73 -1.34,-0.52 -0.96,0.21 -0.43,0.43 -1.17,0.05 -0.35,-0.65 -0.86,-0.36 -1.36,0.74 -0.5,0.89 -3.22,1.14 0.15,-0.72 -0.25,-0.07 -0.77,0.56 0.1,-0.95 -0.24,-0.17 -0.42,0.21 -0.24,0.69 -0.68,0.09 -0.03,0.6 -1.24,0.19 -0.21,0.53 -3.42,-1.23 -0.95,0.83 -0.43,-0.37 -0.28,-1.53 -0.56,-0.65 0.18,-0.63 -0.73,-0.76 0.21,-1.14 -0.29,-0.84 -0.77,-0.06 -0.62,-0.6 -0.66,0.03 -0.85,-1.49 -3.36,-2.48 -1.12,0.27 -1.26,-0.52 -0.48,-0.74 -1.87,-1.08 0.08,-0.7 0.69,-0.27 0.25,-0.53 0.9,-0.19 0.88,-1 -0.01,-1.12 0.58,-0.4 0.32,-0.89 0.97,-0.37 1.23,-1.64 1.23,-0.31 0.76,-0.64 -0.08,-0.4 0.48,-0.68 -0.81,-3.08 -1.03,-0.63 0.07,-0.94 -0.68,-0.35 -1.74,-0.17 -1.03,-1.23 -0.55,-2.82 -1.41,-0.32 -0.48,-0.68 -0.26,-1.35 -1.37,0.33 -0.39,-0.27 -0.7,0.65 -1.12,0.29 -0.66,-0.22 -0.13,-0.84 -1.01,0.34 -0.48,-0.21 -0.1,-1.61 -1.14,-0.58 -0.74,-0.81 -1.1,-1.99 -0.49,0.16 -0.74,1.08 -1.16,0.48 -0.89,-0.16 -1.18,0.37 -1.18,-1.33 -2.09,-0.58 -0.74,1.06 -0.79,0.17 -0.51,-0.31 0.27,-0.98 -0.85,-2.08 -2.64,-0.15 -0.58,-1.26 -0.66,-0.25 -1.15,0.39 -0.32,0.59 0.34,1.42 -0.58,0.44 -1.2,-2 -0.86,-0.01 -2.85,-2.1 -0.94,-0.01 -0.66,0.58 -1.23,0.05 -0.58,-0.54 -0.86,-0.08 -0.44,-0.38 -1.56,2.14 -0.77,-0.14 -0.36,0.27 -0.04,0.59 0.54,0.55 0.04,0.67 0,0 -3.18,0.13 -1.5,-1.57 -3.39,-0.58 -1.44,-1.01 -1.59,-3.27 -1.09,-0.19 -1.63,-1.18 -4.78,-0.87 -2.97,-3.52 -0.67,-2.05 -2.01,-0.43 -0.59,-0.92 -4.58,-1.67 -1.15999,-1.32 0.07,-4.2 0.49,-1.27 1.32999,-1.83 0.08,-0.65 -1.95999,-0.11 -1.61,-1.03 -0.26,-0.83 -0.96,-0.08 0,0 0,0 0,0 -0.57,-0.76 -0.29,-1.18 0.85,-0.6 0.27,-1.17 1.26,-1.86 -0.07,-0.88 0.47,-0.96 1.09,-0.62 -0.15,-0.63 -1.14,-1.45 0.3,-1.69 -0.25,-1.13 -2.18,-1.09 -1.25,-0.2 -1.38,-1.87 -1.33,-0.42 -0.21,-0.53 0.2,-2.15 -0.84,-1.53 -0.15,-1.71 0.37,-2.55 1.15,-0.28 0.9,0.16 0.99,-0.43 0.39,-0.67 -0.07,-0.37 -0.91,-0.48 -0.4,-0.98 1.07,-1.39 0.63,-2.5 1.31,-0.96 2.65,0.16 2.77999,-2.4 0.61,0.69 0.72,0.03 0.41,-0.3 1.11,0.51 0.48,-1.16 0.55,-0.59 0.74,-0.19 5.34,0.55 1.54,-0.62 2.26,-2.06 1.02,-0.23 4.42,1.35 2.7,1.26 0.58,-0.98 -0.05,-1.63 0.42,-0.77 -0.09,-1.88 0.88,-0.54 -0.11,-0.84 0.35,-0.92 -0.81,-0.63 -0.09,-1.12 0.89,-0.58 0.7,-1.24 -0.73,-1.57 -1.23,-0.48 -0.43,-0.81 0.48,-2.99 1.44,-0.33 -0.04,-0.59 -2.13,-2.73 -0.09,-1.54 -0.92,-0.46 0.27,-1.03 -0.75,-1.11 0.71,-0.35 0.53,-1.53 -0.09,-0.84 0,0 0.11,-0.87 1,0.72 -0.08,-0.28 0.44,-0.27 1.27,0.64 0.8,0 3.24,-1.44 1.31,0.65 1.3,0.11 1.5,-0.41 1.26,-1.33 0.66,0.16 0.91,1.68 2.36,1.79 2.18,0.42 2.14,-0.62 1.62,0.37 2.26,-0.01 3.56,1.34 2.19,0.19 0.98,-0.37 0.59,0.61 1.45,0.1 1.71,-1.47 3.3,-3.97 1.03,-0.51 1.03,1.15 0.92,0.22 0.13,0.37 -0.36,-0.08 -0.34,0.34 -0.19,0.81 1.13,1.11 1.07,0.56 -0.38,4.36 0.41,2.1 0.51,0.42 2.74,0.17 1.22,0.69 1.7,1.55 0.88,0.24 0.53,-0.18 0.73,1.31 0.27,1.86 -0.31,1.15 0.36,1.14 1.05,1.01 0.76,0.05 4.45,-0.97 1,-1.2 2.6,-1.71 1.44,-1.96 0.02,-1.12 -0.31,-0.69 -0.92,-0.6 0.31,-2.37 -0.58,-1.54 -0.46,-0.14 -0.04,-1.77 -0.45,-0.4 0.1,-0.74 -0.42,-1.08 -0.75,-0.59 -1.81,0.43 -0.87,-0.27 0.23,-1.51 0.64,-0.63 -0.17,-0.13 1.63,-0.48 0.78,-0.77 -0.58,-3.08 0.46,-3.46 -0.22,-0.37 -0.78,-0.25 0.09,-0.43 0.67,-0.12 1.65,0.94 1.54,-0.12 1.9,0.67 1.29,0.11 2.9,1.26 2.87,0.48 1.73,0.73 1.75,-0.67 0.49,0.65 0.05,0.66 2.24,1.41 0.47,-0.05 -0.03,-0.88 0.43,-0.59 1.69,-0.58 1.6,1.45 -0.27,0.32 0.72,0.94 1.3,-1.01 1.24,-0.39 0.2,0.21 0.63,-0.21 0.11,0.48 0.34,-0.03 0.08,-0.44 1.11,0.51 4.29,0.19 4.77,-0.88 1.3,0.31 1.27,-0.25 2.21,2.93 3.37,2.03 1.84,0.71 2.35,0.37 2.76,1.98 1.71,0.78 1.17,0.07 0.03,0.47 0.99,-0.53 2.99,1.28 4.29,3.31 4.16,4.89 1.57,1.33 1.26,0.36 0.65,-0.27 0.05,-0.42 0.56,0.28 -0.1,0.21 1.03,1.07 3.36,2.12 2.8,3.53 3.38,2.59 2.55,2.47 11.22,8.4 1.35,0.56 0.3,-0.19 -0.06,0.84 3.91,2.63 0.18,0.28 -0.43,0.35 0.45,1.48 1.26,1.63 0.7,0.36 1.29,1.44 0.54,2.32 -0.49,-1.15 -0.54,0.68 -0.3,3.45 0.39,1.77 0.53,0.96 0.62,0.37 -0.49,0.11 0.37,3.03 -0.43,-0.16 -1.32,1.61 0.72,1.01 1.27,0.19 1.79,1.19 0.16,1.04 -0.28,0.18 -0.14,1.3 0.74,0.93 1.46,-1.18 0.03,-0.93 0.92,-0.28 0.74,0.47 -0.27,0.46 0.27,1.78 -0.56,-0.02 -0.08,0.28 0.72,0.33 0.55,-0.1 0.3,-0.27 -0.63,-0.4 1.24,-0.49 0.2,-1.46 -0.83,-0.58 -0.35,-0.76 -1.53,-0.33 -1.17,-0.78 2.18,-1.66 -0.2,-3.15 -0.6,-2.39 -0.72,-0.3 -0.39,0.25 -0.23,-1.52 -2.05,0.5 -0.88,-0.24 0.02,-0.31 1.01,-0.35 5.46,-0.01 0.58,-0.7 1.47,0.69 2.64,0.71 0.38,-0.13 6.79,1.98 0.99,-0.77 0.8,0.53 0.69,-0.08 0.64,0.7 -0.46,0.65 0.32,0.63 2.24,1.63 -0.22,1.32 1.68,1.86 2.9,2.43 1.14,1.71 2.54,1.17 1.25,1.62 -0.5,-0.18 0.06,0.46 1.8,0.49 0.74,-0.2 0.54,0.42 z m -18.51,22.63 1.49,1.16 -3.78,1.3 -0.35,-0.41 0.98,-1.85 0.74,-0.42 0.92,0.22 z" 
                fill="rgb(151, 144, 238)" 
                stroke="white" 
                stroke-width=".7px"
                title="Чукотский автономный округ" 
                id="RU-CHU" 
            />
        </svg>