<svg xmlns="http://www.w3.org/2000/svg" viewBox="189.02011000000013 594.1408200000001 17.649999999999892 21.659999999999854" width="17.649999999999892" height="21.659999999999854">
            <path 
                d="m 190.28011,598.34082 2.72,-1.8 0.86,0.45 0.5,-0.09 0.71,-0.87 2.62,-1.77 1.2,-0.12 0.43,0.37 0.61,1.62 0.81,0.47 2.16,0.36 0.85,2.21 2.89,1.54 0,0 0.03,0.73 -1.02,0.21 -0.53,0.86 -1.2,0.45 0.04,0.67 0.79,0.41 -1.08,0.87 -1.19,1.76 -0.78,0.23 -0.14,0.38 -0.11,1.03 0.45,0.16 0.52,-0.64 0.43,0.05 -0.06,-0.72 0.55,0.18 0.78,1.99 -0.95,0.53 -0.14,0.7 0.42,0.56 0.94,-0.39 -0.01,0.38 -2.25,0.39 0.36,1.29 -1,-0.05 0.12,0.7 -1.15,-0.15 -0.99,-0.76 0.09,0.42 -0.48,0.41 0.53,0.81 -1.25,0.52 0,0 -0.8,0.68 -0.6,-0.51 -0.66,0.07 -0.86,0.87 -0.52,-0.6 -0.78,0.04 -1.51,-1.06 0,0 -0.45,-1.57 -1.01,-0.86 0.46,-0.74 -0.26,-0.61 -0.39,-0.18 -0.53,1.17 -0.26,0.02 -0.19,-0.82 0,0 -0.41,-1.6 0.43,-0.69 0.93,-0.56 0.29,-1.13 0.97,-0.66 -0.19,-0.76 -1.54,-0.66 -1.45,-1.38 -0.01,-0.83 1.02,-1.37 -0.18,-1.72 z" 
                fill="rgb(151, 144, 238)" 
                stroke="white" 
                stroke-width=".7px"
                title="Чувашская республика" 
                id="RU-CU" 
            />
        </svg>