<svg xmlns="http://www.w3.org/2000/svg" viewBox="873.3745299999998 134.99044999999995 118.66999999999985 89.11000000000007" width="118.66999999999985" height="89.11000000000007">
            <path 
                d="m 913.82453,221.65045 -1.52,0.87 -2.32,0.71 -1.32,0.87 -1.94,-2.33 -1.27,-0.64 -0.46,-2.1 -1.16,-0.04 -1.78,0.72 -1.32,-1.83 -1.65,-0.43 -0.59,-1 -2.03,-0.04 -0.37,-0.35 -0.3,-1.19 -0.84,0.4 -0.83,-0.04 -2.24,1.86 -0.62,0.16 -1.92,-0.76 -3.48,0.32 -2.86,-1.07 -5.8,-3.69 0.59,-1.19 2.54,-1.86 0.43,-0.87 1,-0.95 -0.08,-1.04 0.51,-0.31 -0.08,-0.8 -1.16,-1.78 -0.54,-0.32 -0.38,-1.31 0.43,-2.34 -0.81,-1.78 -0.46,-2.62 -0.83,-0.52 2.86,-2.02 0.73,-0.04 2.1,-1.39 0.7,-1.11 -2.24,-3.77 -0.73,-0.44 -4.39,1.35 -0.08,-0.87 -1.68,-2.27 1.38,-2.78 0.46,-0.11 0.21,-0.48 -0.59,-0.4 -0.27,0.48 -2.21,0.99 -0.25,-1.79 -0.99,-1.86 2.13,0.39 2.53,-0.51 1.14,-0.88 0.73,-1.86 0.37,-0.12 0.6,-1.19 0.56,-0.24 -0.29,-1.15 0.48,-0.76 -0.05,-1.11 -0.76,-0.95 0.11,-0.4 1.78,-2.47 1.76,-1.78 -0.52,-0.88 0.49,-0.36 0.7,0.8 4.59,-1.91 1.08,-0.04 0.73,0.8 1.91,-0.96 0.57,0.68 1.29,-0.56 7.86,2.35 5.45,-1.47 1.32,-1.08 0.75,0 1.22,0.64 2.43,-0.24 7.58,-2.94 2.35,0.12 1.83,0.56 1.81,1.9 2.05,0.04 1.43,-0.63 1.32,-0.16 0.92,-0.84 2.16,-0.47 1.46,-0.68 0.54,-0.99 -0.46,-0.2 -0.03,-0.36 0.41,-0.28 0.38,0.24 0.53,-0.68 -0.51,-1.59 1.4,-1.39 -0.08,-2.1 -0.54,-1.16 0.68,-1.31 0.03,-0.76 0.89,0 0.91,0.44 0.65,-0.32 1.7,1.16 0.54,-0.08 -0.03,-0.44 3.16,-1.19 1.08,-1.12 1.21,-0.39 2.81,-0.2 0.43,-0.44 2.05,-0.36 3.08,-1.63 1.51,-1.51 0.57,-0.24 0.83,0.16 1.38,-0.92 1.24,0.08 0.95,-0.99 0.78,0.16 0.22,-0.32 -1.22,-1.11 -0.3,-1.72 0.41,-0.35 -0.11,-0.36 1.7,-1.87 2.32,-0.36 0.73,0.6 0.51,-0.08 0.38,0.95 -0.57,0.4 0.14,0.32 1.86,-0.52 0.41,0.28 0.75,-0.44 1.32,0.84 1.51,-0.12 3.89,0.63 0.41,0.56 0.99,0.44 0.14,0.91 0.81,-0.47 1.02,0.04 0.41,0.83 3.72,2.63 1.41,0.67 1.29,0.04 0.24,0.4 2.05,0.96 0.27,1.35 -0.54,0.52 -2.86,0.79 0,0 -3.99,0.36 -2.11,0.92 -0.75,0.03 0.03,-0.55 -1.08,0.4 -2.21,0 -0.57,0.35 -0.46,-0.27 -1.67,-0.04 -0.41,-1.24 -0.43,-0.36 -0.59,0 -0.92,0.8 -0.51,0.95 -0.19,0.72 0.38,0.72 -0.14,0.75 -0.94,1.04 -0.09,-0.32 -0.43,0.12 -0.08,-0.28 -0.48,0.08 -0.95,-0.44 -0.16,-0.76 -1.56,-0.75 -0.6,0.08 -0.27,1.75 -0.86,0.95 -2.13,0.56 -0.95,0.76 0.43,0.67 -0.32,0.64 0.35,1.07 -0.94,0.64 0.45,0.67 0.71,0.16 0.21,0.48 0.35,-0.32 0.68,0.36 -1.95,1.31 -1.51,0.64 -0.81,-0.04 -1.54,1.35 0.44,1.91 -1.22,0.67 0.33,0.52 0,0 -1.03,2.34 -0.48,3.14 -0.09,2.39 0.79,0.15 -1.35,1.2 -0.51,0.91 0.43,0.44 -0.43,2.14 0.99,5.04 0,1.27 0,0 -4.07,-1.07 -2.32,1.15 -3.62,0.28 -4.99,-3.69 -0.78,-0.4 -0.76,0.24 -0.16,-0.28 -0.78,0.12 -1.89,-3.81 -0.22,-1.95 -2.05,1.15 -1,-0.59 -1.83,0.36 -1.54,-0.96 -1.54,-2.34 -1.51,-1.19 -0.73,0.12 -0.59,0.87 -1.11,0.16 -0.16,-0.87 -1.67,-0.44 -0.3,-0.52 0.3,-0.43 -0.06,-1.4 -1.99,0.6 -3.51,-0.04 -0.51,0.64 -0.73,-0.28 -0.97,0.51 2.13,1.99 0.11,1.99 -0.3,0.87 2,5.13 -5.05,1.82 -0.59,0.52 -0.19,0.39 0.59,2.43 -1.73,0.55 -1.26,0.8 -1.46,4.13 -4.75,2.42 -0.46,1.46 1.08,0.08 0.73,2.23 -0.27,0.23 0.13,1.27 0.65,1.11 -0.86,1.27 0.51,1.71 -1.02,2.06 0.05,1.75 1.75,3.09 1.05,0.95 2.22,4.48 0.4,2.86 z" 
                fill="rgb(151, 144, 238)" 
                stroke="white" 
                stroke-width=".7px"
                title="Appenzell Ausser-Rhoden" 
                id="CH-AR" 
            />
        </svg>