<svg xmlns="http://www.w3.org/2000/svg" viewBox="905.47453 147.12045 83.16000000000031 81.73999999999984" width="83.16000000000031" height="81.73999999999984">
            <path 
                d="m 959.18453,164.58045 -0.32,-0.52 1.21,-0.67 -0.43,-1.91 1.54,-1.35 0.81,0.04 1.51,-0.64 1.94,-1.31 -0.68,-0.36 -0.35,0.32 -0.22,-0.48 -0.7,-0.16 -0.46,-0.68 0.95,-0.64 -0.35,-1.07 0.32,-0.64 -0.43,-0.68 0.94,-0.76 2.13,-0.56 0.86,-0.95 0.27,-1.75 0.59,-0.08 1.56,0.76 0.16,0.76 0.95,0.44 0.48,-0.08 0.08,0.28 0.43,-0.12 0.08,0.32 0.95,-1.03 0.14,-0.75 -0.38,-0.72 0.19,-0.72 0.51,-0.95 0.92,-0.8 0.59,0 0.43,0.36 0.4,1.23 1.68,0.04 0.46,0.28 0.57,-0.36 2.21,0 1.08,-0.4 -0.02,0.56 0.75,-0.04 2.11,-0.91 3.99,-0.36 0,0 -1.38,1.31 -1.29,0.44 -0.46,0.68 -4.78,2.23 -0.13,0.48 0.35,0.72 -0.21,0.44 1.35,1.07 0.75,0.16 -0.16,0.44 1.35,0.44 1.05,0.91 -1.27,0.12 -1.22,0.8 -1.78,-0.12 -0.7,0.48 -1.81,0 0.57,0.24 -0.03,0.4 -2.05,1.31 0.35,0.68 -2.29,0.99 -4.07,3.18 -1.75,0.68 -0.78,-0.36 0.68,-2.26 -0.59,-0.44 -1.84,0.2 -2.48,0.83 -4.83,1.01 z m -45.36,57.07 -1.94,-4.52 -0.4,-2.85 -2.21,-4.48 -1.05,-0.95 -1.75,-3.09 -0.05,-1.74 1.02,-2.06 -0.51,-1.71 0.86,-1.27 -0.65,-1.11 -0.13,-1.27 0.27,-0.24 -0.73,-2.22 -1.08,-0.08 0.46,-1.47 4.75,-2.42 1.46,-4.13 1.27,-0.79 1.73,-0.56 -0.59,-2.42 0.19,-0.4 0.59,-0.52 5.05,-1.83 -2,-5.12 0.3,-0.87 -0.11,-1.99 -2.13,-1.99 0.97,-0.52 0.73,0.28 0.51,-0.64 3.51,0.04 2,-0.6 0.06,1.39 -0.3,0.44 0.3,0.52 1.67,0.44 0.16,0.87 1.11,-0.16 0.59,-0.87 0.73,-0.12 1.51,1.19 1.54,2.34 1.54,0.95 1.84,-0.36 1,0.6 2.05,-1.15 0.22,1.95 1.89,3.81 0.78,-0.12 0.16,0.28 0.76,-0.24 0.78,0.4 4.99,3.69 3.62,-0.28 2.32,-1.15 4.07,1.07 0,0 -0.24,7.03 -0.43,0.08 0.22,0.44 -0.32,0.4 -0.43,3.45 -0.51,0.44 0.05,0.56 -1.02,1.11 0.14,1.23 0.78,1.67 -1.92,1.71 0.03,2.94 -0.65,1.35 0.27,1.19 -0.7,1.63 -1.43,1.75 -0.94,2.06 -1.05,1.43 -3,2.74 -2.1,1.35 -2.7,2.77 -0.92,0.4 -0.7,0.79 -0.84,0.04 -1.94,1.31 -2.08,-0.08 -0.94,0.36 -1.89,1.23 -1.05,1.82 -0.73,0.59 -2.43,0.4 -3.02,1.07 -5.21,-3.72 -2.05,-0.04 -1.94,-0.59 -1,-0.79 -1.04,-2.07 z" 
                fill="rgb(151, 144, 238)" 
                stroke="white" 
                stroke-width=".7px"
                title="Appenzell Inner-Rhoden" 
                id="CH-AI" 
            />
        </svg>