<svg xmlns="http://www.w3.org/2000/svg" viewBox="385.48453 97.31044999999997 156.21999999999997 89.83000000000007" width="156.21999999999997" height="89.83000000000007">
            <path 
                d="m 540.02453,140.52045 0.6,0.6 -0.06,0.55 -2.1,2.59 -0.62,0.16 -0.27,1.23 1.18,3.86 -0.37,0.6 2.51,3.1 0.81,0.44 0,0 -0.57,0.47 -1.11,0.12 -0.37,2.03 -1.41,-0.28 -4.02,1.91 0.57,1.79 -3.48,2.07 -1,0 -3.05,1.39 -1.24,-1.31 -0.46,-0.04 -0.68,0.47 -2.69,-2.34 -1.06,-0.2 -0.81,0.51 -0.05,1.87 -0.54,0.16 -0.57,-0.32 -0.43,0.28 -0.56,1.24 -1.54,0.79 0.56,1.91 0.71,0.39 0.75,-0.04 0.65,1.59 -0.22,1 -1,-0.2 -1.56,1.11 -1.75,-0.16 -0.87,0.72 -1.99,0.59 -3.3,1.55 -2.4,3.74 -0.65,0.31 -6.66,1.04 -1.46,2.1 -1,3.62 -0.08,2.06 -2.45,1.47 -1.38,-0.32 -1.78,0.4 -1.24,-0.16 0.08,-1.11 -4.24,-0.76 -3.1,-2.62 -2.13,-3.09 -1.57,-4.25 -2.56,-0.84 -5.24,-0.71 -15.03,2.06 -0.21,-3.37 -0.57,-1.24 0.16,-0.67 -1.64,-0.04 -0.6,-0.83 -0.13,-1.04 1.08,-0.36 -1.11,-9.61 6.99,0.27 1,-0.23 0.92,-0.4 3.37,-2.59 0.54,-0.63 1.62,-5.81 -0.84,-2.26 0.08,-1.4 0.78,-2.7 1.73,-1.87 1.7,0 0.43,-0.96 -0.24,-1.35 2.59,-4.1 -0.48,-1.35 -0.79,-0.56 -0.94,-1.51 -1.35,-0.84 -1.11,0.12 -3.37,-1.19 -2.56,-0.36 -0.73,-0.95 -0.6,-1.84 0.33,-1.79 -1.38,0.24 -0.62,0.48 -1.24,-0.36 -0.78,0.36 -0.73,1.27 1.86,0.6 -1.13,0.76 1.21,0.39 -0.7,0.56 -1.43,0.48 -1,-0.28 -0.57,0.96 -0.45,0.16 -2.22,-0.76 -1.18,0.08 -0.87,-0.72 -3.21,-1.43 -1.51,0.04 0.43,3.1 -0.48,2.47 0.32,0.12 -1.08,1.95 2.37,0.24 1.03,0.64 0.65,0.04 1.27,1.79 -0.52,1.59 0.03,1.79 -1.48,3.98 -0.3,4.73 -0.27,-0.28 -3.26,0.84 -2.7,-0.48 -1.95,1.55 -0.75,0 -1,-0.52 0.38,-0.83 -0.57,-0.12 -0.03,-1.03 -0.75,-0.6 -1.86,-0.04 0.4,2.31 -0.51,1.83 0.16,1.98 0.59,0.76 1.46,0.28 0.7,0.63 0.41,0.96 -3.54,0.51 -4.83,-0.31 -4.37,0.43 -2,0.72 1.43,2.34 0.06,1.04 -1.38,2.07 -1.92,3.85 -1.97,-0.44 -0.72,0.28 -1.81,1.67 -2.81,-0.24 -1.86,-0.87 -0.16,-0.76 -1.05,0.12 -0.46,-0.36 -0.62,-4.41 -1.38,0.2 -1.62,-0.91 -0.48,0.04 -0.44,0.51 -0.81,0.08 -0.99,-1.27 -1.49,0.4 0.27,0.75 -0.62,0.68 -1.56,-0.72 -0.38,1.55 0.43,0.44 0.11,3.1 -1.11,1.07 -0.43,2.19 -0.62,0.55 0,0 -6.5,-0.39 1.26,-1.71 -0.56,-1.67 0.05,-2.03 -0.4,-0.39 -3.75,-0.8 -0.81,-2.58 -2,0.08 -1.19,-4.22 0,0 1.03,-0.23 3.59,0.95 5.02,0.44 2.15,-1.59 2.76,0.63 2.34,-0.47 0.81,-0.84 0.3,-1.87 1.35,-2.66 -0.78,-1.12 -0.65,-2.02 -3.48,-3.94 -1.54,0.75 -1.67,0.2 -0.43,-0.04 -0.81,-0.75 0,0 1.1,-1.51 -0.35,-0.44 1.41,-1.2 -0.36,-0.95 0.38,-0.99 3.81,-1.16 0,0 3.29,4.62 0.7,0 3.45,-1.87 2.81,-0.48 2.59,-1.27 2.16,-0.48 2.81,0.52 2.05,-0.84 3.86,-0.28 -0.84,-5.01 0.54,-1.43 1.11,-0.16 0.94,-2.67 -0.3,-0.12 0.25,-2.47 -1,-0.04 -0.3,-2.55 -3.88,0.16 -1.35,-0.59 -0.22,-1 -0.92,-0.12 0,0 0.08,-1.83 -0.32,-1.08 -2.21,-2.19 -0.7,-2.19 0.37,-0.24 1.19,2.43 0.49,0.08 2.45,-1.04 0.81,0.05 0.35,0.99 0.38,-0.28 0.7,0.36 0.16,-1.59 1.68,-2.71 0.27,-1.56 -0.57,-0.87 -0.54,-0.32 -0.49,0.12 -1.51,-1.16 -2.24,2.32 -0.97,0.31 -1.4,-0.08 -0.35,-1.83 -0.76,-1.31 0.41,-1.2 1.75,-1.95 3.16,-0.64 2.27,-2.51 2.4,-1.24 2.29,-1.95 3.64,-1.99 0,0 2.3,2.95 0.19,3.15 1.21,2.19 1.11,0.4 1.83,-0.04 0.92,0.27 0.49,2.16 -0.46,1.83 1.56,4.86 0.84,0.28 0.86,-0.44 1.59,-2.11 2.05,-3.71 1.49,-1.27 1.27,-0.64 -0.43,-1.63 1.21,-2.43 -1.35,-1.72 0,-1.75 2.91,-1.04 1.49,0.08 0,0 -0.11,0.2 2.08,2.08 2.02,3.38 1,0.68 1.81,0.36 0.57,0.6 1.24,2.75 2.43,1.27 1.7,0.36 3.77,-0.04 5.24,-2.99 0,0 0.32,1.04 1.38,0.28 1,-0.32 0.81,1.35 0.51,-0.08 1.19,0.48 1.56,-0.44 0.49,2.19 2.51,0.96 1.48,0.04 0.7,-0.28 6.34,2.19 1.27,-0.04 1,0.72 0.11,0.68 -0.59,1.15 0.29,1.28 -0.11,2.03 0.81,0.83 0.06,1.16 -0.52,1.47 -0.97,1.44 0.7,0.12 0.87,-1.04 0.51,-0.16 0.7,0.32 0.27,-0.32 -0.24,-0.72 0.24,-0.31 1.24,0.67 1.11,0 1.59,-2.19 2.43,-2.23 2.11,-2.51 0.64,-1.03 0.3,-1.24 0,-3.86 0.3,-0.04 0.13,-0.48 -0.54,-0.92 1.59,-0.28 1.97,0.8 1.19,-0.84 0.54,-0.15 0.51,0.23 0.84,0.48 1.38,2.63 0.54,1.88 -0.14,0.95 1.54,0 0.38,-0.84 1.24,-0.59 -0.06,4.02 0.46,-0.32 0.35,0.16 1.49,1.91 2.53,0.96 0.38,1.55 0.87,0.44 0.27,1.71 1.26,1.83 0.14,2.07 0.35,0.76 1.46,0.12 2.18,0.83 2.16,0.08 3.08,-0.15 1.83,-1 -0.21,4.3 -1.11,4.62 2.13,-0.32 0.54,0.36 1.24,1.15 0.73,0.28 z" 
                fill="rgb(151, 144, 238)" 
                stroke="white" 
                stroke-width=".7px"
                title="Basel-Landschaft" 
                id="CH-BL" 
            />
        </svg>