<svg xmlns="http://www.w3.org/2000/svg" viewBox="432.0045300000001 83.23044999999999 36.68000000000018 32.13000000000001" width="36.68000000000018" height="32.13000000000001">
            <path 
                d="m 464.84453,86.78045 -1.51,1.36 -0.21,0.79 0.35,0.72 1.86,0.72 0.89,3.23 1.3,0.8 0.05,0.79 -0.68,1.88 -0.56,-0.64 -0.33,-1.04 -1.1,0.76 -0.35,1.48 -2.3,-0.48 -0.56,0.28 -1.27,-0.08 -3.51,2.07 -2,-0.76 -1.18,-1.07 -0.65,1.11 0,0 -1.49,-0.08 -2.91,1.04 0,1.75 1.35,1.72 -1.21,2.43 0.43,1.63 -1.27,0.64 -1.49,1.27 -2.05,3.71 -1.59,2.11 -0.86,0.44 -0.84,-0.28 -1.56,-4.86 0.46,-1.83 -0.49,-2.16 -0.92,-0.27 -1.83,0.04 -1.11,-0.4 -1.21,-2.19 -0.19,-3.15 -2.3,-2.95 0,0 0.54,-1.4 -0.4,-0.56 0,-0.71 2.43,-2.12 2.13,0.32 1.16,-0.28 1.35,0.64 0.46,-2.95 1.32,-3.07 0.22,0.48 3.91,1.47 0.59,2.99 0.78,0.16 1.17,-0.28 1.07,0.48 0.68,-0.12 1.32,-1.03 3,-3.27 1.32,-0.76 1.43,-1.96 3.72,0.52 1.97,0.96 1.43,0 1.86,-2.16 1.62,-0.35 1.54,-1.08 0.06,0.52 -0.44,0.48 -1.94,0.91 z" 
                fill="rgb(151, 144, 238)" 
                stroke="white" 
                stroke-width=".7px"
                title="Basel-Stadt" 
                id="CH-BS" 
            />
        </svg>