<svg xmlns="http://www.w3.org/2000/svg" viewBox="244.65452999999977 146.61044999999993 430.1300000000007 439.02000000000044" width="430.1300000000007" height="439.02000000000044">
            <path 
                d="m 306.63453,359.59045 0.43,0.35 0.43,-0.24 0.84,1.3 1.59,-0.63 0.08,0.47 -2.48,1.97 -1.05,1.26 -0.54,0.12 -0.27,-0.31 -1.05,-0.16 -0.3,-0.39 0.14,-0.83 0,0 1.48,-0.87 -0.7,-1.06 1.4,-0.98 0,0 0,0 z m 11.9,-5.95 0.03,2.64 0.81,1.73 -2.54,0.79 -1.32,1.18 -0.19,0.79 -1,0.04 -0.54,-1.85 0.3,-0.2 -1.46,-1.97 0.46,-2.16 3,-1.26 0.81,0.35 1.49,-0.51 0.15,0.43 0,0 0,0 z m -73.88,-97.86 0.22,-0.79 2.51,-2.61 1.35,5.1 0.86,1.31 -0.05,1.11 1.03,2.1 2.29,-1.38 3.7,-1.34 3.4,-3.01 3.08,-1.78 1.92,-1.9 1.16,-4 3.02,-1.23 0.14,0.71 0.57,0.59 -0.38,0.48 0.59,0.75 1.67,-0.4 2.05,0.2 1.67,2.34 1.05,0.52 1.7,-1.07 -0.13,-0.32 1.19,-1.74 -0.22,-0.24 1.24,-1.46 0.65,-2.73 4.32,-0.2 3.13,-0.67 1.75,-2.53 1.84,-4.59 1.38,-2.14 0.51,-0.99 -0.13,-0.44 0.97,-1.58 3.08,-1.62 -0.67,-2.57 0.3,-0.32 0.08,-1.19 0.59,-0.51 2.32,-0.59 2.92,-1.35 0.14,1.66 0.62,-0.08 0.73,-0.71 0.38,0.32 0.68,1.23 -0.62,0.56 0,0.44 0.92,0.91 1.81,-0.16 0,-0.56 1.78,-1.74 1.84,0.2 0.35,0.28 4.53,-1.39 3.27,0.79 0.05,-0.4 3.99,-1.43 -0.7,-1.51 -0.84,-0.75 0.65,-0.36 -0.19,-0.44 -0.43,-0.24 -1.83,0.12 0.08,-1.51 0.81,-0.12 -0.03,-0.48 0.86,-0.48 -0.05,-0.36 -0.51,0.16 -0.32,-1.11 1.05,-1.63 5.05,-2.02 -0.24,-2.14 0.14,-0.95 0.46,-0.56 -0.27,-0.71 -0.89,-0.32 -0.13,-1.03 0.08,-0.4 0.76,-0.44 -1.19,-0.59 0.03,-0.48 1.48,-0.24 1.27,0.24 6.23,-0.79 2.27,0.2 0.86,0.24 -0.78,1.11 1.19,1.23 1.51,-0.32 1.32,0.36 3.05,0.16 2.4,1.07 4.61,0.08 0.3,-0.64 1.02,-0.16 3.62,1.23 4.1,-0.4 2.65,-0.79 3.89,-0.12 1.73,-2.9 2.46,-1.63 1.7,-2.62 6.85,-1.31 4.75,-2.58 6.77,1.07 1.73,-0.44 0.38,1.27 2.38,1.19 1.94,0.04 3.32,-0.63 3.97,0.72 5.21,-0.08 0.59,0.87 0.97,0.32 1.05,0.87 2.48,-0.04 1.05,-0.32 7.31,-4.88 8.82,-2.98 -0.65,-0.32 -3.29,0.71 -1.92,0.08 -1.83,-0.2 -0.4,-0.32 1.78,-4.92 4.16,-2.66 -0.14,-0.48 0.73,-1.11 0,0 1.08,0.56 0.16,0.83 1.05,0 0.54,0.48 0,0.68 2.46,3.73 -0.13,1.23 -0.7,0.91 -2.05,1.11 -0.84,-0.32 -2.59,2.38 -0.59,3.69 0.16,0.32 -2.16,1.82 0.05,1.55 -1.75,1.55 -3.29,0.2 -3.83,1.47 -0.11,-0.32 -2.86,1.19 -0.11,0.48 -2.08,1.11 -0.46,-0.12 -2.75,3.33 -0.38,1.51 -1.81,2.74 -7.53,1.07 -3.29,2.58 -1.13,0.2 -1.65,0.8 -0.24,1.51 0.49,1.86 0.76,0.83 -1.32,0.99 -1.08,0 -0.84,0.4 -2.05,1.98 -5.86,2.46 -0.22,0.32 -1.19,0.28 -3.35,3.13 -0.84,-0.16 -0.43,-0.59 -4.59,1.43 1.13,4.08 0.59,-0.08 2.05,6.26 1.75,-0.59 1.16,-1.03 0.59,1.7 2.94,1.7 1.92,3.8 1.67,4.23 -0.35,0.52 -1.48,-0.28 -0.51,0.24 -0.08,1.46 0.38,0.63 2.4,-0.04 1.46,-0.75 1.32,-0.28 1.46,0.36 1.08,-0.16 0.97,-1.11 0.7,-2.41 3.1,-1.27 0.49,-0.67 -0.24,-2.37 0.24,-0.67 1.32,-0.63 0.46,0.36 0.78,1.94 0.49,0.16 1.05,-0.59 0.86,-1.27 -0.43,-2.22 1.94,0.24 5.29,-0.71 0.3,1.07 -0.84,0.67 -0.11,0.52 0.7,2.89 0.73,1.23 1.51,0.59 0.57,-0.28 2.89,1.39 -1.08,1.27 -0.78,0.44 0.73,1.07 -2.16,1.43 -1.46,1.86 -1.05,0.67 -2.27,0.75 -1.19,-0.75 -0.7,-0.04 -0.65,-0.79 -1.94,-0.16 -2.86,2.1 0.16,1.98 -0.22,0.71 -1.81,0.04 -1.91,1.19 0.24,0.91 -1.29,1.15 0.57,0.28 0.81,1.42 0.68,-0.16 0.16,0.83 1.43,-0.67 0.05,1.11 -0.81,0.24 1.89,1.23 -0.13,0.51 -0.46,0.24 -0.57,-0.44 -1.78,-0.16 -1.73,1.07 -0.78,0.2 -0.11,-0.32 -1.02,0.04 -2.94,1.46 -2.35,-1.5 -1.4,0.79 -0.4,-1.27 -0.76,-1.03 -1.05,1.11 -0.65,-0.04 -0.24,-0.47 -1.13,0.4 -0.22,0.51 -0.51,-0.2 -0.38,0.36 0.24,1.11 -0.48,1.03 0.73,1.19 0.51,0.2 0.43,1.46 0.81,0.95 0.84,2.73 0.06,1.35 0.46,0.16 0.24,-0.24 1.21,0.44 0.22,1.3 5.78,-1.34 2.43,-1.54 0.05,0.24 0.51,-0.12 0.19,0.48 2.67,-1.11 0.78,2.17 -0.81,3 0.4,0.51 0.22,2.29 0.57,0.87 0.97,0.59 0.14,0.87 3.24,-0.63 0.32,0.44 0.38,-0.08 0.68,-1.11 2.56,-0.51 0.97,-2.09 0.89,-0.28 0.16,-0.47 -0.27,-0.63 -1.97,-2.61 -0.76,-1.62 -0.73,-2.02 -0.08,-1.74 7.99,-3.44 2.13,-1.9 1.65,-0.47 1.51,-1.38 0.89,-1.58 -0.03,-1.23 0.62,-1.42 0.97,-1.54 1.03,-0.59 0.05,-1.42 0.43,-0.55 1.02,-0.36 -0.27,-1.3 -0.94,-0.91 -0.78,-1.82 -0.46,-0.16 0.81,-0.87 3.02,-1.27 0.14,0.63 1.67,-0.36 0.78,1.27 0.59,-0.12 3.43,-2.97 1.02,-0.04 1.32,1.94 0.62,0.2 1.48,-0.48 1.16,1.35 0.89,1.94 0.78,3.05 0.43,-0.91 0.73,-0.63 1.13,-0.28 0.97,0.32 2.32,-0.43 2.08,-0.71 0.54,-0.79 2.1,1.54 1.19,-0.04 0.73,-0.55 0.27,0.44 0.62,-0.4 0.22,0.55 1.27,-0.4 0.27,0.83 0.84,0.91 0.43,0 1.62,-0.47 0.22,-0.79 -0.16,-1.38 -0.35,-0.44 0.73,-1.7 -0.38,-0.28 2.05,-2.65 0.24,0.2 1.38,-0.44 2.1,0.2 0.22,-2.73 0.73,-0.91 0.22,-1.98 -1,-0.79 -0.65,0.32 0.08,-1.31 0.49,-0.32 0.3,-0.83 -0.92,-1.23 0.03,-0.67 -0.43,0.2 -0.57,-0.75 -0.38,0.04 -0.32,-0.79 -0.35,0.12 -0.54,-1.31 -1.13,0.2 -2.51,-0.35 0.78,-1.94 -1.3,-3.37 0.49,-1.7 -0.65,0.04 -1.35,-0.87 -0.27,-0.56 1,-0.71 -0.86,-1.78 -1.29,0.99 -0.4,-0.79 -0.92,0.87 -0.4,-0.83 -0.86,0.91 -0.35,-1.35 -1.48,0.36 -0.16,-0.99 -0.65,-0.48 0.46,-0.51 -0.76,-0.28 -0.32,-0.79 -1.27,-0.75 -0.05,-0.44 -0.7,0.12 -0.32,-0.99 -0.73,-0.12 -0.94,-1.19 -0.81,-0.32 0.54,-3.33 -1.08,-4.68 -1.78,-1.35 -1.89,-2.54 0.59,-0.4 9.39,-1.86 7.02,-0.12 2.65,-0.52 2.4,-1.71 1.75,-0.59 0.51,0.4 2.08,-0.75 1.81,-1.7 1.19,1.47 3.29,1.43 0.94,1.79 1.05,0.67 0.11,0.75 0.54,0.36 -0.22,0.52 0.76,0.63 0.65,-0.87 2.73,3.09 -0.11,1.15 2.08,2.77 1.67,-0.2 1.35,0.99 2.19,-0.83 1.24,0.24 0.62,-0.28 1.67,-2.85 2.54,-0.4 0.43,2.54 2.13,1.47 0.46,0.67 2.16,-2.1 1.73,-2.46 0.62,-0.32 0.7,0.04 0.51,1.9 2.11,0.87 1.08,-0.4 2.27,-1.59 0,0 0.46,3.61 -0.35,1.66 -0.4,0.6 0.46,0.4 1.08,4.56 0,0 1.62,2.97 -0.03,0.67 1.32,3.49 1.21,1.74 0.43,2.22 2.05,4.28 0.92,0.67 -0.14,0.36 1.57,3.88 0.86,0.48 0.68,0.91 1.62,4.83 -0.27,3.72 0.46,3.8 0.76,1.7 2.62,3.28 -0.19,0.59 0.3,0.48 -0.46,1.54 0.24,0.75 -0.78,0.2 0,1.11 -4.48,2.97 -0.57,0.91 -0.11,0.87 0.54,0.4 -0.27,1.58 1.65,0.59 -0.49,2.25 0.14,0.55 0.41,-0.04 0.22,0.44 -0.19,1.3 -0.35,0.28 1.35,0.83 0.3,0.55 -0.4,0.67 0.57,0.55 0.32,1.15 -0.97,5.61 -0.46,0.36 0,1.3 -1.28,2.67 0.62,0.04 0.11,0.51 -2.16,3.2 0.76,2.65 1.46,2.25 1.89,0.24 0.57,1.38 -0.13,1.11 2.75,2.33 0.16,2.05 1.73,1.94 -0.89,1.7 1.19,2.88 5.07,-1.58 1.13,-0.04 0.59,1.42 1.65,1.14 1.94,-0.63 2,-0.04 0.73,-0.35 1.4,1.15 -0.75,2.56 -0.97,1.38 0.97,5.01 -0.27,0.51 -0.73,0.12 -1.05,1.06 0.35,3.43 -1.43,1.38 -0.67,0.12 -1.65,1.38 0,3.86 -0.62,1.18 -2.24,0.87 0.03,1.18 -2.02,3.86 -2.43,0.12 -1.7,-0.71 -2.1,0.71 -1.7,1.34 -2.16,0.79 -1.03,0.95 -1.51,3.55 -0.03,0.55 2.4,1.65 1.08,0.31 0.67,2.25 -0.65,1.1 0.19,0.87 -0.59,0.16 -2.83,4.64 -1.89,0.28 -0.67,0.43 -0.54,1.26 0.38,1.89 -0.08,2.2 1.62,0.55 0.57,1.57 1.02,0.83 -0.13,1.22 -0.4,0.47 0,3.54 0.76,1.14 -0.08,1.18 2.29,3.3 5.8,2.87 6.15,3.77 6.37,5.66 1.27,2.24 1,3.42 1.65,0.79 0.59,0.79 0.76,0.04 0.43,0.39 0.81,1.89 1,1.02 1.94,0.59 1.08,0.71 2.65,-1.1 0.76,-1.53 1.57,-0.23 3.08,-1.22 0.46,-0.67 1.38,-0.78 3.29,-0.16 2.24,0.82 1.4,0.16 0.4,-0.23 0,0 1.27,-0.23 1.48,0.67 1.75,-0.23 1.3,-0.67 0.49,0.75 0.97,0.35 3.67,-0.35 1.7,2.63 1.62,1.45 0.22,1.26 0.94,0.24 1.59,-0.23 2,1.14 0.76,0.12 6.45,5.97 0.7,-0.12 1.11,-0.94 1.59,-0.55 2.48,-2.12 1.08,0.2 4.8,-2.36 0.97,0.71 0.68,0.04 3.89,-0.51 0.86,1.53 1.78,1.49 0.65,0.28 2.67,-0.16 0.49,-0.35 1.48,-3.22 1.16,1.02 1.05,0.08 1.21,0.9 1.94,0.39 2.38,3.14 0.16,0.94 1.3,-0.2 2.48,0.59 2.51,-1.96 1.19,-0.55 0.51,-0.94 0.54,0.2 0.84,-0.23 1.97,-2.4 6.88,-4.95 4.45,-0.75 1.81,0.04 1.13,-1.3 1.35,-0.79 0,0 0.54,-0.2 1.97,0.94 1.13,2.16 1.13,0.75 1.24,0.31 1.11,2.2 0,0 0.41,2.59 3.18,-1.96 1.67,-1.69 0.57,-0.08 0.62,0.51 0.19,1.06 0.46,0.2 2.16,-0.75 2.4,-0.04 0.7,0.59 1.02,0.2 0.81,-0.2 -0.78,1.65 0.75,0.47 0.16,0.51 0,0 -0.32,2.12 -0.92,1.93 -0.3,-0.23 -1,0.43 1.24,2.12 -0.84,1.96 0.27,0.82 -0.08,1.37 2.46,2.67 -0.78,1.73 0.16,4.67 1.92,1.53 -0.67,2.16 0.7,2 -0.73,4.2 -0.57,0 -0.92,0.63 -0.73,-0.04 -1.13,0.63 -1.86,-0.55 -1.37,0.27 -3.96,-1.9 -3.8,-0.63 0,0 0,1.88 0,0 -0.41,1.84 0.43,0.94 -0.48,2.19 0.92,1.22 0.57,1.41 1.3,0.78 0.7,5.25 0,0 -3.13,-0.55 -1.24,3.65 -0.32,-0.16 -0.94,0.47 -2.64,3.84 -2.13,0.43 -0.78,2.82 -0.05,2.15 0.65,0.43 -0.03,1.61 -0.51,1.21 -0.03,1.06 -1.86,2.86 -0.27,1.61 0.32,1.37 0.38,0.43 -0.76,2.11 0.08,0.9 1.54,0.55 -1.83,2.62 -1.89,1.53 -0.73,2.11 -1.05,1.21 -3.27,1.92 -2.29,0.23 -0.49,0.35 -1.51,-0.08 -0.76,0.35 -0.7,2.11 -2.48,2.82 -0.65,0.31 -2.02,0.08 -1.65,0.78 -1.21,1.96 -1.32,0.82 -2.08,0.12 -0.54,0.55 -1.02,0.16 -1.94,1.64 -1.67,0.2 -2.65,1.1 -0.86,-0.31 -1.37,0.27 -0.4,-0.23 -1.16,0.27 -0.59,-0.19 -4.8,0.98 -0.73,0.59 -0.94,-0.35 -3.05,0.47 -1.62,1.02 -1,-0.08 -0.35,-0.7 -1.59,-1.09 -0.08,-0.9 0.59,-1.45 -0.19,-0.19 -3.08,-0.04 -0.78,0.63 -0.75,-0.47 -2.54,-0.55 -2.13,-1.13 -3.45,-0.63 -0.94,-0.62 -0.08,-0.74 -0.84,-0.39 -1.51,-1.99 -2.37,-0.86 -1.11,0.12 -1.43,-0.39 -0.78,-0.9 -1.02,0.16 -1.62,-0.35 -2.13,-1.45 -1.73,0.78 -2.05,0.47 -0.13,0.35 -2.1,-1.8 -2.78,-0.31 -1.97,-1.02 -1.11,-1.13 -2,0.16 -2.46,-0.47 -0.86,0.24 -2.94,1.92 -1.32,-0.31 -3.24,4.69 -1,-0.59 -1.7,0.39 -1,0.7 -0.67,1.13 -1.54,1.1 -0.05,1.06 0.68,1.29 0.59,0.43 -0.11,0.74 1.54,2.46 -0.65,1.72 0.27,0.59 -0.54,1.21 -0.59,0.7 -0.94,0.39 -2.56,1.95 -0.92,-0.39 -2.37,0.47 -1.81,1.52 -0.78,2.03 -0.35,-0.04 -1.94,1.29 0.35,0.66 -0.35,0.59 -1.92,0.2 -1.38,1.8 -1.16,-0.12 -0.43,0.7 -1.27,0.27 -0.73,0.78 -0.78,0.12 -0.94,-0.35 -0.65,0.23 -1.22,0.9 -1.94,0.55 -0.32,0.7 -1.48,-0.43 -4.51,0.12 -1.97,-0.59 -0.54,0.2 -1,1.17 -3.48,1.76 -0.81,1.6 -0.48,0.35 -7.07,3.05 -1.03,1.72 -1.7,0.74 -0.59,1.02 -1.32,0.94 -0.73,1.48 -1.59,0.47 -0.62,1.17 -1.05,-0.19 -0.35,0.94 -1.94,0.94 -0.4,0.7 -2.35,1.25 -1.4,1.37 -1.75,1.13 -3.37,0.94 -1.29,1.09 -0.54,1.13 -1.48,0.47 -0.81,-0.23 -1.22,-1.44 -2.35,-1.91 -0.38,-0.78 -1.02,0.16 -1.83,-0.74 -1.38,-1.05 -11.5,-4.53 -2.21,-1.76 -1.48,2.42 -0.84,0.51 -2.08,0.47 -0.32,0.39 -0.22,0.62 0.46,2.38 -0.65,1.17 -0.84,0.7 -1.56,0.55 -0.08,1.01 0.4,1.48 -0.73,0.39 -0.65,1.25 -2.62,-1.33 -0.49,-0.86 -1.94,0.08 -1.11,0.74 -2.16,0.59 -0.51,0.47 -0.73,-0.43 -1.54,-0.08 -0.81,0.51 -2.83,0.31 -1.92,0.86 -0.11,0.94 -1.24,2.65 1.86,1.52 3.48,1.25 1.94,1.64 -3.59,1.79 -0.89,1.4 0.05,1.21 -3.24,1.17 -3.72,-0.55 -1.59,0.12 -0.48,1.17 -1,0.94 -0.62,0.23 -1.54,-0.78 -1.62,0.59 -0.7,-0.78 0.05,-1.17 -0.73,-2.69 -0.89,-1.01 -1.7,0.51 -0.03,0.7 -0.92,1.44 -1.43,0.04 -0.65,0.62 -0.89,-0.74 0.24,-1.25 -1.59,-0.19 -0.97,0.31 -1.7,-0.51 -1.19,-0.74 -0.22,-0.66 -3.29,2.34 -3.48,0.47 -3.4,1.95 -0.4,-0.82 -1.65,1.09 -3.02,3.24 -1.16,0.27 -0.75,1.05 -2.43,1.95 -0.92,0.23 -2.29,2.26 -1.62,-0.15 -2.7,1.48 -3.94,1.05 -2.19,0.08 -1.86,-2.73 0.38,-1.79 -0.4,-1.17 1.05,-1.68 0.05,-3.16 -0.54,-1.48 -3.51,3.74 -1.94,-0.62 -5.07,2.22 -1.32,1.13 -1.16,-0.04 -0.46,1.4 0.32,0.9 -0.19,4.87 0.43,0.62 -2.83,3.31 -0.65,0 -0.92,0.74 -1.35,0.39 -2.51,0.23 -2.89,-1.13 0,0 0.11,-6.86 -0.81,-3.97 0.73,-0.47 1.27,-0.04 0.35,-0.86 0.43,-0.23 -1,-1.36 -2,1.09 -0.7,-0.19 -1.29,-2.18 -0.35,-1.71 -0.57,-0.47 0,-1.44 0.32,-0.55 -0.7,-0.35 -0.59,0.35 -2.75,-0.04 0.08,-1.56 1.22,-3.08 0.73,-0.97 0.97,-2.77 0.81,-1.17 -0.11,-2.69 0.65,-2.34 -1,-2.03 -1,-0.74 -0.81,-2.22 -1.81,-2.15 0.62,-2.5 2.4,0.16 0.16,0.47 2.64,-0.23 2.03,-0.74 1.08,-1.17 0.3,-1.72 -0.19,-1.05 1.67,-0.86 -1.51,-1.48 0.78,-1.02 -0.19,-0.7 0.59,-1.64 -1.46,-3.79 -0.4,-4.22 1.05,0.2 0.27,-0.51 1.92,-0.27 -0.19,-1.8 -0.76,-0.82 1.08,-0.23 0.35,-0.43 0.43,0.27 1.19,-1.64 0.3,-0.78 -0.08,-1.06 0.59,-0.59 -0.13,-0.78 0.59,-0.98 -0.38,-1.25 0.54,-1.41 -0.67,-5.32 -0.4,-0.63 0.16,-2.11 -0.3,-0.78 -1.97,-2.5 -0.08,-2.97 0,0 1.65,-0.39 3.51,-2.03 4.48,-7.08 2.4,-2.58 0.81,0 0.78,0.9 2.65,0.98 1.3,0 1.73,-0.9 1.11,-2.78 2.24,-1.06 -1.48,-3.29 0.7,-7.09 -1.51,-1.25 -0.03,-0.7 0.3,-4.82 0.54,-0.31 2.43,-0.27 0.57,-0.31 0.81,-1.33 -0.32,-1.61 -1.86,-3.53 6.61,-0.23 1.13,1.33 0.51,1.76 0.92,0.67 0.08,1.69 0.4,0.94 0.38,-2.08 1.08,-1.29 1.48,-0.98 2.32,-2.19 -1.91,0.04 0,-0.2 0.81,-4.23 -0.35,-0.98 1.35,-2.23 -0.86,-1.84 1.32,-1.33 -0.48,-1.57 1.11,-1.06 -0.84,-0.98 -2.24,0.04 -1,-0.98 -0.73,-1.53 -0.46,0.39 -3.99,-0.27 0.11,-1.14 0.92,-1.45 0.22,-1.29 -0.24,-1.45 -4.83,-1.02 -0.43,-0.39 -1.78,-0.43 -2.56,-0.08 -0.94,-0.31 -0.67,0.35 -2.21,-2.12 -0.27,-1.22 -0.51,-0.74 -0.16,-0.94 0.62,-3.61 -0.16,-0.51 1.54,-1.22 0.4,-0.9 -0.08,-1.61 -0.35,-0.67 0.11,-2.75 -1.59,-2.04 0.32,-0.51 -0.94,0.04 -0.78,-2.28 -0.57,-0.16 0.08,-0.59 1.3,-0.94 0.3,-0.78 1.16,-0.63 0.08,-0.31 -0.32,-0.27 1.24,-1.1 -0.22,-0.59 -0.54,-0.27 0.46,-1.61 -0.54,-0.63 -0.05,-0.79 1.05,-0.86 1.4,-5.34 0.86,-0.55 0.49,-1.14 1.19,-0.71 0.03,-0.35 0,0 -0.46,-0.35 0.67,-1.53 0,0 -0.24,-2.08 2.32,-1.14 0.81,-1.34 -0.49,-0.43 -0.11,-0.71 -1.94,-2.2 -3.86,-2.24 -0.48,-1.49 -1,-0.67 2.59,-1.42 0,-1.14 0.35,-0.28 -0.19,-0.59 0.59,-0.12 -0.05,-0.31 0.4,-0.24 0.46,0.04 -0.03,0.63 1.11,-0.24 1.59,0.51 0.73,0.63 -0.48,0.79 -0.35,0.12 -0.43,-0.31 -0.7,0.83 0.68,1.22 1.57,0.28 0.73,-0.55 0.35,0.71 0.38,-0.08 -0.03,0.35 0.35,0.16 2.65,-1.69 0.46,0.12 0.4,-0.35 0.86,-1.18 0.08,-0.63 0.78,-0.55 0.57,-0.9 -0.43,-0.9 0,-1.85 -0.97,-0.43 -0.48,-1.89 0.35,-4.17 -0.62,-0.75 -0.75,-0.47 -6.21,-1.69 -4.72,0.87 -3.37,-0.87 -1.35,-0.04 -0.89,0.28 -1.35,1.42 -0.81,-0.08 -1.78,-1.06 -1.83,-0.55 -1.48,-1.53 -4.37,-1.02 -0.16,0.94 -1.94,0.12 -0.97,-0.9 -0.94,-0.35 -0.16,-0.83 0.49,-0.35 -1.75,0.35 -1.54,1.97 -0.48,-0.2 -1.03,-1.34 -0.86,-0.35 -1.48,0.28 -1.05,-0.23 -0.84,0.63 -0.43,0.83 -1.83,-0.55 2.97,-1.42 2.27,-2.09 -0.46,-1.26 -0.11,-0.91 0.32,-1.14 -0.48,-1.65 0.49,-0.2 -0.08,-1.06 1.27,-0.12 0,-0.94 0.38,-0.35 -0.24,-1.14 -0.38,0.12 -0.32,-0.94 -0.27,0.12 -1.38,-1.85 0.27,-0.51 -0.22,-0.28 1.81,-1.14 0.08,-1.77 -0.59,-0.83 0.3,-1.97 0.49,-0.95 -1.05,-1.22 -1.83,0.2 -0.62,-0.59 -0.94,-0.24 0.24,-1.02 3.02,-0.12 0.19,-1.3 1.86,0.24 0.03,-1.77 0.89,-0.08 -0.19,-0.43 1.46,-0.67 -0.24,-0.51 1.86,-1.1 1.43,-2.09 0.57,-0.31 -0.51,-1.22 -1.65,-1.46 -1.48,-0.83 1.19,-1.42 -0.05,-0.75 -0.13,-0.16 -0.73,0.47 -0.4,-1.58 -1.46,-1.81 -0.57,0.51 -0.51,-0.39 -0.62,0.87 -1.35,-0.87 -1.54,1.97 -0.73,-0.31 0.03,0.83 -11.04,5.6 -0.48,-0.24 -0.3,0.28 -15.95,3.83 -9.26,-0.24 -2.67,-0.35 0,0 -2.43,-0.71 0,0 -3.37,-8.91 -0.92,-1.66 1.67,-2.17 0.67,-2.17 -0.08,-5.52 1.35,-2.05 3.24,-2.56 3.67,-0.71 3.59,-2.45 2.51,-3.2 0.08,-0.63 -1.65,-2.33 -0.16,-2.65 -0.92,-1.1 2.75,-2.13 -0.08,-1.7 -2.29,-3.04 -0.51,-1.11 -2.94,-0.99 -2.27,-0.35 -2.37,-2.29 -2.13,-1.42 -3.13,2.13 -1.4,-3.32 1.84,-2.92 2.59,-2.1 -0.59,-0.63 -2.1,-0.44 -1.11,1.23 -3.99,0.44 -0.51,-0.47 -0.48,0.04 -0.43,0.59 -0.73,0.16 -1.75,1.23 -2.19,0.75 -9.93,1.7 -2.73,1.31 -1.21,0.28 -1.94,-1.58 -0.75,1.34 -2.43,1.78 -13.84,7.79 1.48,-7.07 2.4,-2.17 2.03,-9.01 -7.53,-13.94 z m 99.46,90.46 -1.13,0.75 -0.13,-0.31 -2.05,1.1 -0.19,0.4 0.35,0.28 -0.16,0.2 -0.38,-0.31 -0.4,0.55 0.89,2.48 1.62,-1.14 0.49,0.08 1.16,-0.71 -0.03,-0.31 0.94,0.04 0.24,-3.51 -1.27,-0.67 -0.32,0.28 0,0 0,0 0.37,0.8 z m 125.73,-87.33 0.97,-1.66 -1.38,-0.08 -1,-1.54 -0.67,-0.2 -2.02,1.7 -0.54,-0.32 -1.32,3.4 0.27,0.44 1.35,-0.32 2.59,0.4 0.35,-0.95 0.86,-0.99 0,0 0,0 0.54,0.12 z m -99.39,-112.3 2.51,0.12 1.54,1.95 2.16,0.76 4.78,0.12 3.24,0.84 0,0 -0.57,4.18 -0.92,2.46 0,0 -4.91,-0.28 0.3,-1.07 -1.59,-0.91 -1.35,-1.35 -1.05,-0.4 -0.7,-1.03 -0.11,-0.87 -1.94,-0.36 -2.05,-0.8 -0.16,-1.27 0.59,-0.87 0.23,-1.22 z" 
                fill="rgb(151, 144, 238)" 
                stroke="white" 
                stroke-width=".7px"
                title="Bern" 
                id="CH-BE" 
            />
        </svg>