<svg xmlns="http://www.w3.org/2000/svg" viewBox="212.44453000000001 318.77045000000004 172.02000000000018 223.19999999999942" width="172.02000000000018" height="223.19999999999942">
            <path 
                d="m 221.55453,419.74045 0.68,-0.75 2.08,1.45 -0.38,0.59 0,2.4 -0.43,1.53 0.24,0.27 -0.49,1.02 -1.43,1.37 -0.24,1.02 0.27,0.2 -1.62,2 -2.4,1.37 -0.48,-0.78 0.19,-0.2 -0.86,-0.67 0.57,-0.47 -0.4,-1.02 -2.02,-1.14 -0.67,-1.29 1.08,-1.81 1.59,-0.59 2.89,-2.83 1,-2.51 0.83,0.84 z m 13.82,-0.24 0.73,-1.22 -0.43,-0.39 0.19,-0.47 1.92,-2.04 2,-1.41 0.11,-0.94 1.16,-1.45 -0.4,-0.2 0.57,-1.49 1.16,0.12 -0.32,0.94 0.65,0.04 0.62,1.45 1.16,1.22 0.03,0.82 -0.75,0.47 0.19,0.27 1.05,-0.75 0.7,0.2 1.05,1.65 1.81,0.87 -0.67,0.51 0.57,0.55 0.65,-0.82 -0.22,0.39 0.38,0.35 -0.16,0.24 1.13,1.45 -5.18,7.34 0.32,0.51 0.84,0.39 -0.89,1.18 -0.24,-0.27 -0.3,0.63 -1.02,-0.59 -2.97,-0.59 -4.02,-3.14 -0.46,0.31 -0.59,-0.39 -0.24,0.31 -2.48,0.51 -2.32,2.39 -1.4,-0.04 -0.67,0.43 -0.59,-0.31 -0.54,0.39 -1.32,0.2 -1.16,-0.94 -0.08,-0.59 0.73,-0.71 0.65,-1.81 0.51,0.24 0.05,-0.43 0.38,-0.04 0.14,0.82 0.57,-0.16 0.11,0.24 1.3,-0.98 0.49,0.43 1.11,-0.67 1.13,-0.04 0.51,-0.39 -0.38,-0.78 1.54,-1.53 0.27,-0.98 0,0 1.32,-1.3 z m 10.49,-62.51 8.12,10.31 0.19,-0.24 0.46,0.39 0.32,-0.08 1.16,1.61 0.22,-0.2 0.27,0.35 1.24,-0.71 2.86,3.58 -2.37,1.46 -0.43,0 -0.32,-0.79 -1.13,0.39 -1.11,0.87 -0.78,-0.16 -1.62,0.87 0.54,1.06 0.41,-0.31 0.22,0.51 2.1,-0.98 0.19,0.35 2.24,-1.1 2.48,2.75 0.49,-0.2 0.78,1.93 0.3,-0.12 0.49,0.83 -2.13,1.93 -0.73,0.24 -1.97,2.56 -1.27,2.4 -0.32,2.09 -0.76,1.02 1.48,3.19 -0.46,0.16 0.46,0.2 -0.19,0.67 0.59,1.42 -1.54,2.63 1.89,0.98 0.84,-1.69 1.43,-1.34 0.49,0.83 1.32,-0.08 1.13,1.38 -0.08,0.59 -0.97,0.94 -0.48,1.22 -1.19,0.71 0,0.83 -1.13,2.08 0.08,1.77 -1.65,1.96 -0.81,-0.98 0.43,-0.35 -0.08,-0.28 -0.86,0.39 -0.3,0.55 -1.62,-0.04 0.19,0.59 -1.11,0.51 -0.27,0.63 -1.73,-0.55 -1.3,0.63 -0.35,-0.24 -1.08,0.35 -0.57,-0.47 0.08,-0.39 -0.46,-0.55 -0.76,0.43 0.03,0.35 -2.24,-1.18 -0.4,-0.9 0.46,-0.35 -0.08,-0.51 -1.24,-1.02 -1.7,1.1 -2.16,2.48 -0.54,-0.04 -0.78,-0.71 -1.19,2.04 -0.76,0.31 -1.4,-0.86 -0.7,1.53 -0.94,-1.33 -1.73,-0.71 -1.35,-1.96 -1.46,-0.94 -1.81,1.02 -3.29,-3.39 -1.29,-0.63 -0.32,0.94 -0.67,0.63 -0.32,-0.27 0.65,-1.57 2.37,-2.12 -0.7,-1.49 -1.62,0.98 -9.8,-10.61 10.26,-9.99 0,0 23.16,-22.09 z m 99.25,-10.24 -0.03,2.56 -0.94,-0.04 0.03,0.32 -1.16,0.71 -0.49,-0.08 -1.62,1.14 -0.89,-2.48 0.41,-0.55 0.38,0.32 0.16,-0.2 -0.35,-0.28 0.19,-0.39 2.05,-1.1 0.14,0.32 1.13,-0.75 -0.38,-0.83 0.32,-0.28 1.27,0.67 -0.22,0.94 0,0 0,0 z m -49.73,-16.52 2.67,0.35 9.26,0.24 15.95,-3.82 0.3,-0.28 0.49,0.24 11.04,-5.6 -0.03,-0.83 0.73,0.32 1.54,-1.97 1.35,0.87 0.62,-0.87 0.51,0.4 0.57,-0.51 1.46,1.81 0.4,1.58 0.73,-0.47 0.14,0.16 0.06,0.75 -1.19,1.42 1.48,0.83 1.65,1.46 0.51,1.22 -0.57,0.32 -1.43,2.09 -1.86,1.1 0.24,0.51 -1.46,0.67 0.19,0.43 -0.89,0.08 -0.03,1.77 -1.86,-0.24 -0.19,1.3 -3.02,0.12 -0.24,1.02 0.94,0.24 0.62,0.59 1.84,-0.2 1.05,1.22 -0.48,0.95 -0.3,1.97 0.59,0.83 -0.08,1.77 -1.81,1.14 0.22,0.28 -0.27,0.51 1.38,1.85 0.27,-0.12 0.32,0.95 0.38,-0.12 0.24,1.14 -0.38,0.35 0,0.95 -1.27,0.12 0.08,1.06 -0.48,0.2 0.49,1.65 -0.32,1.14 0.11,0.91 0.46,1.26 -2.27,2.09 -2.97,1.42 1.84,0.55 0.43,-0.83 0.84,-0.63 1.05,0.24 1.48,-0.28 0.86,0.35 1.03,1.34 0.49,0.2 1.54,-1.97 1.75,-0.35 -0.48,0.35 0.16,0.83 0.94,0.35 0.97,0.91 1.94,-0.12 0.16,-0.94 4.37,1.02 1.48,1.54 1.84,0.55 1.78,1.06 0.81,0.08 1.35,-1.42 0.89,-0.28 1.35,0.04 3.37,0.87 4.72,-0.87 6.21,1.69 0.76,0.47 0.62,0.75 -0.35,4.17 0.49,1.89 0.97,0.43 0,1.85 0.43,0.9 -0.57,0.91 -0.78,0.55 -0.08,0.63 -0.86,1.18 -0.4,0.35 -0.46,-0.12 -2.64,1.69 -0.35,-0.16 0.03,-0.35 -0.38,0.08 -0.35,-0.71 -0.73,0.55 -1.57,-0.28 -0.67,-1.22 0.7,-0.83 0.43,0.31 0.35,-0.12 0.49,-0.79 -0.73,-0.63 -1.59,-0.51 -1.11,0.24 0.03,-0.63 -0.46,-0.04 -0.4,0.24 0.05,0.31 -0.59,0.12 0.19,0.59 -0.35,0.28 0,1.14 -2.59,1.42 1,0.67 0.49,1.49 3.86,2.24 1.94,2.2 0.11,0.71 0.49,0.43 -0.81,1.34 -2.32,1.14 0.24,2.08 0,0 -0.67,1.38 0.46,0.51 0,0 -0.03,0.35 -1.19,0.71 -0.48,1.14 -0.86,0.55 -1.4,5.34 -1.05,0.87 0.05,0.79 0.54,0.63 -0.46,1.61 0.54,0.27 0.22,0.59 -1.24,1.1 0.32,0.27 -0.08,0.31 -1.16,0.63 -0.3,0.79 -1.29,0.94 -0.08,0.59 0.57,0.16 0.78,2.28 0.94,-0.04 -0.32,0.51 1.59,2.04 -0.11,2.75 0.35,0.67 0.08,1.61 -0.4,0.9 -1.54,1.22 0.16,0.51 -0.62,3.61 0.16,0.94 0.51,0.75 0.27,1.22 2.21,2.12 0.68,-0.35 0.94,0.31 2.56,0.08 1.78,0.43 0.43,0.39 4.83,1.02 0.24,1.45 -0.22,1.3 -0.96,1.47 -0.11,1.14 3.99,0.27 0.46,-0.39 0.73,1.53 1,0.98 2.24,-0.04 0.84,0.98 -1.11,1.06 0.49,1.57 -1.32,1.33 0.86,1.84 -1.35,2.23 0.35,0.98 -0.81,4.23 0,0.2 1.92,-0.04 -2.32,2.19 -1.48,0.98 -1.08,1.29 -0.38,2.08 -0.4,-0.94 -0.08,-1.69 -0.92,-0.67 -0.51,-1.76 -1.13,-1.33 -6.61,0.24 1.86,3.53 0.32,1.61 -0.81,1.33 -0.57,0.31 -2.43,0.27 -0.54,0.31 -0.3,4.82 0.03,0.71 1.51,1.25 -0.7,7.09 1.48,3.29 -2.24,1.06 -1.11,2.78 -1.73,0.9 -1.29,0 -2.64,-0.98 -0.78,-0.9 -0.81,0 -2.4,2.58 -4.48,7.08 -3.51,2.03 -1.65,0.39 0,0 -3.64,2.31 -0.51,1.33 -0.7,0.51 -2.78,4.22 -1.97,-2.66 -0.24,-0.9 -2.02,-1.92 -4.29,4.26 -3.67,2.62 -1.43,0.71 -1.27,0 -1.46,-0.59 -0.84,0.59 -0.43,1.92 -0.57,0.23 -0.24,0.59 -0.05,1.17 -0.81,1.76 -0.27,1.68 -1.35,1.41 -0.92,0.35 -1.24,2.23 -0.78,0.04 -2.94,1.37 -0.78,1.02 -0.16,0.9 -1.51,1.09 -0.65,-0.59 -2.27,0.55 -3.18,-0.7 -1.38,0.9 -1.94,-0.94 -1.21,0.59 -0.84,1.06 -2.1,1.25 -1.7,1.99 -1.05,0.55 -3.16,3.32 -0.38,0.94 -1.46,1.29 -0.3,0.43 0.22,0.94 -0.78,3.83 -0.35,-0.12 -3.89,1.76 -3.53,2.11 -1.56,0.04 0.16,-0.86 2.05,-3.24 -0.57,-1.72 -1.97,-2.26 -0.73,-0.16 -0.16,-0.47 -0.32,-5.11 0.81,-0.86 -1.56,-1.33 -0.43,-1.02 -0.35,-1.6 0.03,-1.29 0.27,-0.31 -0.46,-0.82 -0.57,0.12 -0.92,-0.66 -0.76,-1.33 -2.05,-1.33 -0.43,-0.86 -0.97,-0.35 -0.89,0.51 -0.97,0.08 -0.59,-0.27 -1.62,0.27 -0.62,-0.31 0,-0.43 -0.38,-0.04 -0.27,-0.62 -0.92,0.12 -0.59,-1.29 -1.19,-0.31 -1.16,-0.82 -0.4,0.12 -0.54,-0.35 -0.08,-0.62 -0.4,-0.08 -0.76,0.23 -1.89,-0.31 -0.57,1.25 -0.94,0.82 -0.19,-0.98 0.3,-1.17 0.41,-0.43 -0.08,-2.46 -4.24,3.21 -1.92,2.54 -2.45,2.42 -0.76,2.35 -1.35,0.23 -2.64,-0.23 -0.7,-1.21 -0.65,0.2 -0.48,-0.35 -1.48,-1.91 -0.75,-1.33 -0.49,-2.77 -1.7,0.16 -1.83,-1.95 -0.54,-1.52 -1.27,-1.68 1.65,-2.46 0.35,-1.95 0.73,-0.59 -0.05,-0.31 1.16,-1.37 0.03,-0.43 0.51,0.04 0.05,0.27 -0.7,1.17 0.06,0.59 1.51,0.23 2.89,-0.31 3.08,-1.25 0.73,0.12 0.22,1.6 0.95,0.51 -0.27,1.84 0.73,0.27 0.05,-1.76 0.65,0.08 0.05,-0.9 1.35,-2.5 0.81,-0.86 0.49,0 0.43,-0.82 0.59,-0.23 2.81,-3.91 0.86,0.39 -0.03,-0.35 0.65,-0.63 0,0 0.16,0.27 0.59,-0.47 0.49,0.27 1.02,-0.63 0,0 -0.49,-0.7 -0.3,-1.41 0.62,-1.25 -0.92,-0.35 -2.05,1.21 -0.76,0.04 -0.38,1.68 -0.54,0.51 -1.38,-2.07 -1.35,0.82 -1.48,-4.03 -1,-0.55 0.22,-0.43 0,0 -0.62,-0.47 0,0 -0.11,0.2 -0.81,-0.7 -1.92,-0.9 -0.3,0.47 -0.86,-0.98 -0.51,-0.08 -0.22,0.35 -0.84,0.12 -0.76,1.45 -0.67,0.47 0.05,0.35 -0.54,0.43 -0.65,-0.08 -1.65,-0.9 -0.75,0.16 -0.86,-2.43 -1.78,-0.78 -0.03,0.78 -0.65,1.14 0.4,1.02 -0.67,-0.31 -0.43,0.08 -0.24,0.43 -0.94,-0.12 -0.49,1.14 -0.92,0.39 -1.24,-0.47 0.4,-0.82 -0.03,-0.74 0.89,-1.45 -0.22,-1.33 0.67,-2.11 -0.78,-3.05 0.97,-0.27 0.46,-3.02 -0.48,-2.74 0.3,-0.16 0.16,-2.27 -0.48,-1.53 0.24,-0.82 -0.57,-0.43 -0.05,-0.55 -0.54,-0.12 -0.35,-1.25 0.51,-1.33 0.03,-0.98 0.76,-1.84 0.35,0.2 0.16,-0.74 -1.35,-0.9 0,-0.35 0.92,0 1.38,-0.67 1.05,0.08 0.16,0.55 0.49,-0.27 0.32,0.9 1.02,-0.08 0,-0.35 -0.3,-0.08 1.08,-1.33 1.32,-2.51 0.76,-0.71 0.62,0.31 0.57,-1.02 0.59,0.35 0.7,-0.43 0.94,0.39 -0.13,0.24 0.62,0.16 -0.43,0.67 0.65,0.55 0.22,-0.39 2.21,1.25 0.76,-0.55 0.86,-1.33 0.97,0.71 0.73,-0.2 0.51,-0.63 0.19,-0.98 -1.08,-0.74 1.94,-3.33 -1.75,-1.1 -0.59,-1.88 0.59,-0.08 0.14,-0.9 0.76,-0.86 1.27,1.06 2.16,-2.7 0.65,0 0.84,-1.29 1.35,-0.98 0.7,-2.08 -0.51,-0.47 0.81,-1.41 0.32,0.16 0.7,-1.57 1.46,-1.8 0.14,0.2 1.7,-1.65 1.05,-0.19 0.3,-0.55 1.02,-0.23 0.65,-1.26 2.05,-2.43 1.3,-1.06 0.46,-0.67 -0.35,-0.43 0.27,-0.31 -0.03,-0.86 1.21,-2.08 0.11,-0.43 -0.43,-0.24 -0.43,-1.45 -1.32,-0.9 -0.7,-0.94 -2.83,1.14 -0.73,-1.26 -0.67,0.43 -0.78,-0.51 -0.4,0.51 -0.46,-0.59 0.43,-0.39 -0.57,-0.67 1.62,-2.16 0.49,0.39 0.38,-0.39 0.24,0.43 -0.3,0.24 0.78,0.59 2.43,-2.98 0.11,-0.67 1.46,-0.86 -0.24,-0.47 -0.22,0.24 -0.51,-0.19 0.51,-0.79 -0.43,-0.35 1.22,-1.06 0.65,-1.37 0.22,0.24 0.84,-1.22 0.97,-0.2 1.05,0.75 0.51,-1.02 1.46,-0.94 0.22,-0.82 -0.43,-1.53 1.86,-2.44 0.78,-0.47 -0.16,-0.24 0.38,-0.35 -0.89,-0.63 0.32,-0.55 -1.59,-1.69 -0.3,-0.55 0.46,-0.31 -0.81,-1.06 1.02,-1.02 -0.38,-1.26 1.35,-2.71 0.43,-0.47 0.03,0.39 0.68,0.39 0.7,1.02 0.38,0.12 0.16,-0.28 0.46,0.59 2.91,0.47 0.05,-0.47 1.16,-1.26 0.84,-2.63 -1.75,-0.67 0.22,-0.9 -1.02,-0.82 1.13,-1.02 -0.38,-0.35 0.16,-0.75 1.48,-1.18 -0.54,-0.9 -0.62,-0.12 -1.78,1.93 -0.94,-0.28 -0.46,-0.43 0.35,-0.75 -0.89,-1.69 0.73,-0.39 0.35,-1.06 -0.22,-0.79 0.59,-0.79 0.16,-2.24 1.7,-1.61 -0.14,-0.2 0.84,-0.9 -2.29,-3.34 -1.86,-2.16 -0.86,0.43 0.16,0.47 -0.92,0.51 -1.59,0.28 -0.92,0.63 0.68,1.53 0.65,0.39 1.51,3.39 -0.92,0.71 -2.37,-2.4 -0.67,-1.26 -0.76,0.24 -0.13,-0.31 0.35,-0.28 -1.65,-2.64 -0.92,-0.24 -0.13,-0.79 -0.7,-0.47 -0.27,-1.3 -0.65,0.51 -0.75,-1.42 -1.08,-0.31 -1.02,0.16 -0.4,-0.94 1.75,-1.65 -0.94,-0.67 -8.12,-9.61 0,0 8.82,-10.72 0,0 9.58,11.11 1.16,0.47 0.68,0.99 0.46,-0.31 0.19,0.28 1,-1.14 2.4,1.69 0.24,0.59 -1.59,1.73 0.76,0.71 -0.89,1.06 3.43,3.9 4.35,4.01 -1.27,1.61 -0.22,-0.2 -1.29,1.46 -0.14,-0.16 -1.51,1.34 1.51,1.81 2.48,0.47 0.32,-0.75 0.59,-0.08 0.03,-0.43 0.51,-0.43 0.43,0.24 0.3,-1.49 1.35,1.69 0.95,-0.67 0.24,0.63 1.46,0.47 0.3,-0.2 0.92,1.02 -1.62,2.76 2.59,2.4 -0.22,0.43 -1.46,0.67 0.24,0.75 -1.21,1.18 0,0.79 0.41,0.79 0.22,0.2 0.24,-0.31 0.92,1.1 0.51,0.28 2.43,-2.44 0.49,-1.38 0.32,0.12 0.38,-0.43 0.43,0 2.48,-4.37 1.19,-0.75 -0.11,-0.24 1.16,-1.22 0.05,-0.47 -0.59,-1.18 -1.05,-0.59 0.59,-0.23 -0.24,-0.79 -1.22,0.39 0,-1.57 1.67,-1.53 0.22,0.24 1.19,-0.79 -0.19,-0.63 2.13,-1.42 -0.16,-0.28 -1.27,0.43 -0.16,-0.55 2.4,-0.28 0,0 -0.13,0.83 0.3,0.39 1.05,0.16 0.27,0.31 0.54,-0.12 1.05,-1.26 2.48,-1.97 -0.08,-0.47 -1.59,0.63 -0.84,-1.3 -0.43,0.24 -0.43,-0.35 0,0 0.49,-1.26 -0.81,-0.31 -0.84,-1.06 -7.91,-11.46 0.81,-1.02 0.22,-0.98 -0.59,-3.47 -0.67,-1.06 0.81,-0.12 -0.54,-1.58 0.35,-0.16 -0.3,-0.79 0.35,-0.28 -0.4,-0.91 0.94,-0.51 -0.27,-0.87 0.89,-0.75 -0.94,-1.1 -2.98,-1.92 z m 20.7,23.13 -2.99,1.26 -0.46,2.17 1.46,1.97 -0.3,0.2 0.54,1.85 1,-0.04 0.19,-0.79 1.32,-1.18 2.54,-0.79 -0.81,-1.73 0.16,-0.87 -0.35,-2.2 -1.48,0.51 -0.82,-0.36 z" 
                fill="rgb(151, 144, 238)" 
                stroke="white" 
                stroke-width=".7px"
                title="Fribourg" 
                id="CH-FR" 
            />
        </svg>