<svg xmlns="http://www.w3.org/2000/svg" viewBox="786.9945299999999 252.70045 102.75999999999976 148.74000000000007" width="102.75999999999976" height="148.74000000000007">
            <path 
                d="m 823.33453,252.70045 13.23,14.2 3.64,3.4 8.66,-1.15 2.24,0.56 1.22,-0.28 5.91,0.28 5.58,1.26 9.18,1.46 -0.19,2.81 -0.54,0.71 0.78,1.82 0.08,1.5 -1,2.89 0.14,1.46 0.92,2.17 -0.38,2.17 0.54,2.65 0.03,2.57 -0.54,1.58 -0.95,1.34 -0.92,2.49 -1.94,1.93 -1.08,0.36 -0.78,1.03 -2.21,0.19 -3.35,2.02 -2.19,1.89 4.38,3.36 0.75,0 2.54,1.5 1.05,-0.24 1.13,-0.79 0.6,1.07 0.81,0.23 5.58,-3.59 1.06,0.12 0.8,-0.4 1.76,1.11 1.4,0.12 1.19,0.55 1.83,2.29 1.08,0.55 1.57,2.53 0.48,3.9 0.46,1.54 1.35,2.25 -0.02,0.63 -1.44,2.56 0.22,0.87 -0.67,1.62 0,0.71 0.72,1.66 -1.07,4.17 0.8,2.64 -0.32,1.23 -1.86,0.43 -0.24,0.32 -0.06,3.38 1.19,2.84 2.27,1.34 0.37,0.83 0.63,2.44 -1.14,4.41 0,0 -1.11,0.59 -1.29,2.6 -1.32,-0.2 -2.05,1.03 -0.89,2.01 -1.84,2.44 -3.05,3.15 -0.65,1.69 -1.29,0.71 -0.57,0 -2.45,1.49 -1.62,-0.71 -1.94,-0.27 -5.7,0.04 1.03,2.16 -1.16,0.63 -1.35,0.16 -0.92,1.22 -1,2.83 -0.94,-0.04 -1.03,0.79 -1.62,0.51 -0.43,0.98 -0.86,0.48 -0.81,0.04 -1.67,1.06 -0.38,0.78 -1.89,-1.06 -0.46,-2.83 -2.16,-3.07 -0.08,-1.49 -3,-0.56 -2.1,-1.02 -3.78,0.32 -1.81,1.97 -0.24,0.82 -1.75,0.24 -0.54,0.35 -0.41,3.62 0.49,2.79 -1.84,1.06 -0.56,0.87 -0.92,2.08 0.13,1.73 -1.37,1.19 -2.49,5.34 -0.05,0.63 -3.08,2.36 -3.02,0.27 -1.99,0.75 -1.62,0.04 -0.84,0.51 -1.62,-0.2 -2.56,0.51 -2,0.79 -1,-0.27 -1.16,1.14 -1.29,-0.04 -1.19,1.02 -3.4,1.22 -0.54,-0.55 -1.73,-0.04 -1.05,-0.44 -0.54,-1.25 0.3,-2.24 -0.33,-1.46 -1.99,0.55 -1.76,-0.98 -0.27,-0.71 -1.99,0.55 -0.49,-0.63 -3.32,0.63 0,0 -0.4,-1.02 1.24,-1.93 0.27,-2.9 -0.62,-1.58 -1.24,-1.3 -0.65,-2.71 5.02,-2.67 0.99,-0.04 3.51,-4.52 2.51,-0.04 4.48,-2.21 0.16,0.28 0.57,-0.91 0.62,-0.23 0.81,-0.91 3.02,-1.3 0.87,-0.51 0.29,-0.59 0.3,-1.22 -0.16,-3.5 -1.27,-4.17 0.16,-0.71 -0.46,-0.36 -0.83,0 -1.27,-1.73 -2.24,-5.43 0,0 0.67,-0.44 0.41,0.12 0.43,-0.59 0.59,0.08 1.46,-1.34 0.73,0.12 0.97,-0.4 2.19,-0.15 0.29,-0.48 -0.08,-0.82 -0.4,-0.55 -0.87,-0.32 -0.48,-0.87 0.24,-0.23 -0.57,-1.46 0.49,-1.93 1.03,-1.74 0.32,-2.71 2.24,-2.09 -3.54,-0.95 -2.48,-2.36 0.24,-0.6 -1.08,0.91 -3.61,-6.03 2.27,-0.87 0.18,-1.22 -1.16,0.35 -1.35,-1.97 -0.67,-1.93 -1.73,-1.42 -0.35,0.43 -0.48,-0.55 -0.78,-2.13 -1.22,-0.91 -0.4,-3.11 -2.49,-1.27 -1.67,-0.23 -0.54,-0.99 0.46,-0.08 0.35,-0.67 2.02,-0.67 0,-0.95 -0.64,-0.94 -0.08,-1.5 0.56,-0.99 3.21,-0.59 0.35,0.59 0.73,0.24 1.14,-0.24 3.32,-1.7 0.78,-0.59 0.7,-1.22 2.24,-0.87 0.24,-3.08 1.11,-2.57 1.18,-1.42 0.27,-1.03 0.79,-0.43 0.86,-1.31 0.46,-2.33 2.21,-2.09 -4.56,-1.54 -1.11,-0.95 0.9,-2.17 0.78,-1.07 2.86,-1.5 -0.38,-1.66 0.41,-1.5 0.67,-1.03 -0.35,-1.15 -1.11,-0.47 -0.67,-0.79 0.13,-1.31 0.84,-2.37 -0.27,-1.11 0.24,-0.63 -0.43,-0.71 1.73,-1.54 1.08,-2.61 4.1,-6.69 z" 
                fill="rgb(151, 144, 238)" 
                stroke="white" 
                stroke-width=".7px"
                title="Glarus" 
                id="CH-GL" 
            />
        </svg>