<svg xmlns="http://www.w3.org/2000/svg" viewBox="238.93453000000022 121.49044999999994 193.58999999999997 140.5" width="193.58999999999997" height="140.5">
            <path 
                d="m 291.49453,123.64045 0.09,0.6 2.26,-0.2 1.76,1.16 2.56,-0.04 3.21,1.15 0.14,0.84 0.75,0.83 0.95,-0.15 3.39,-2.43 6.35,-0.36 3.45,-3.23 2.54,0.48 0.97,0.56 2.75,1.75 1.38,1.79 0.78,0.56 3.1,0.6 1.54,-0.16 4.48,-1.56 2.29,-0.23 0.3,0.95 -0.56,0.44 -2.51,0.72 -1.33,2.34 -0.97,3.03 -1.51,2.82 0.32,1.4 -0.32,3.06 -1.54,4.74 -0.46,0.47 5.75,1.55 1.05,0.92 0.36,0.79 3.42,-0.07 4.26,-1.71 1.06,-0.04 0.92,0.39 1.61,2.19 -0.35,1.27 0.84,0.88 1.21,0.36 0.22,0.55 -0.59,1.91 0.78,0 2.32,-1.15 4.34,-1.31 2.92,-2.71 0.86,-0.28 2.11,0.64 2.02,-1.31 0.73,-0.84 2.43,0.32 0.86,-0.32 2.03,0 1.64,-0.99 0,0 -0.24,1.19 -0.6,0.88 0.17,1.27 2.05,0.79 1.94,0.36 0.11,0.88 0.7,1.03 1.05,0.4 1.35,1.35 1.59,0.91 -0.29,1.08 4.91,0.28 0,0 0,0 0,0 2.29,0.27 0,0 0,0 0,0 1.19,4.22 2,-0.08 0.81,2.58 3.75,0.8 0.4,0.39 -0.05,2.03 0.56,1.67 -1.26,1.71 6.5,0.39 0,0 0,0 0,0 0.22,0.52 1.18,-0.79 1.27,0.71 0.76,1.07 1.32,0.6 0.67,0.91 2.22,0.68 4.2,-0.44 2.22,0.64 3.13,-0.88 5.29,-0.23 1.48,0.19 0.11,0.8 -0.86,1.82 0.24,0.28 1.35,0.8 0.84,-0.12 0.75,0.4 0.19,0.79 1.54,-0.04 0.59,1.59 -1.21,1.94 0.43,1.35 1.16,0 2.48,0.88 0,0 0,0 0,0 -0.73,1.11 0.14,0.48 -4.16,2.66 -1.78,4.92 0.41,0.32 1.83,0.19 1.92,-0.08 3.29,-0.71 0.65,0.32 -8.83,2.97 -7.31,4.88 -1.05,0.32 -2.49,0.04 -1.05,-0.87 -0.97,-0.32 -0.59,-0.87 -5.21,0.08 -3.97,-0.72 -3.32,0.64 -1.94,-0.04 -2.37,-1.19 -0.38,-1.27 -1.73,0.44 -6.77,-1.08 -4.75,2.58 -6.86,1.31 -1.7,2.62 -2.45,1.63 -1.73,2.89 -3.88,0.12 -2.65,0.79 -4.1,0.4 -3.62,-1.23 -1.02,0.16 -0.3,0.63 -4.61,-0.07 -2.4,-1.08 -3.05,-0.16 -1.33,-0.35 -1.51,0.31 -1.19,-1.22 0.79,-1.12 -0.87,-0.23 -2.26,-0.2 -6.24,0.79 -1.27,-0.24 -1.48,0.24 -0.02,0.48 1.18,0.59 -0.75,0.44 -0.08,0.4 0.13,1.03 0.89,0.32 0.27,0.71 -0.46,0.55 -0.13,0.96 0.24,2.14 -5.05,2.02 -1.05,1.62 0.33,1.11 0.51,-0.15 0.05,0.35 -0.86,0.48 0.03,0.47 -0.82,0.12 -0.08,1.51 1.84,-0.12 0.43,0.24 0.19,0.43 -0.65,0.36 0.84,0.75 0.7,1.51 -3.99,1.43 -0.06,0.39 -3.26,-0.79 -4.53,1.39 -0.36,-0.28 -1.83,-0.2 -1.78,1.74 0,0.56 -1.81,0.16 -0.92,-0.91 0,-0.44 0.62,-0.55 -0.67,-1.23 -0.38,-0.32 -0.73,0.71 -0.62,0.08 -0.13,-1.66 -2.92,1.35 -2.32,0.59 -0.59,0.51 -0.08,1.19 -0.3,0.32 0.67,2.58 -3.07,1.62 -0.97,1.58 0.13,0.44 -0.51,0.99 -1.38,2.14 -1.83,4.59 -1.76,2.54 -3.13,0.67 -4.31,0.2 -0.65,2.73 -1.24,1.46 0.21,0.24 -1.18,1.74 0.13,0.32 -1.7,1.07 -1.05,-0.52 -1.67,-2.33 -2.06,-0.2 -1.67,0.4 -0.59,-0.76 0.38,-0.47 -0.57,-0.6 -0.14,-0.71 -3.02,1.23 -1.16,4 -1.91,1.9 -3.08,1.78 -3.4,3 -3.7,1.35 -2.29,1.38 -1.03,-2.09 0.06,-1.11 -0.87,-1.31 -1.35,-5.1 -2.51,2.61 -0.21,0.79 0,0 -0.97,0.36 0,0 -1.46,-0.71 -1.11,0.31 -1.24,-0.16 -0.78,-0.98 -0.16,-0.91 5.99,-3.21 0.43,-0.48 0.43,-1.54 1.92,0.2 -0.08,-2.18 0.29,-0.91 0.89,-0.87 0.63,-2.18 1.64,-1.42 0.54,-0.12 1.05,-1.23 1.06,-0.55 1.53,-1.51 1.03,-0.51 1.32,-1.82 3,-1.07 1.08,-1.31 0.64,-1.59 1.03,-0.75 1.56,0 0.98,-0.55 0.59,-1.47 -0.05,-0.83 3.26,-2.18 -0.05,-0.87 -2.03,-2.58 -0.11,-1.23 0.49,-0.47 0.59,-1.9 -0.02,-2.98 0.24,-0.75 -1.73,-3.77 -0.1,-1.03 -1.11,-1.35 0.54,-0.75 1.51,-1.39 0.78,-0.32 0.81,-0.08 1.67,0.44 1.62,-0.48 2.03,0.4 0.56,-1.03 0.09,-0.91 1.4,0.47 2.13,-0.59 1.81,0.47 1.73,-2.02 0.43,-0.31 0.48,0.23 0.46,-0.2 0.65,-2.65 0.7,-0.72 0.73,-1.7 -0.03,-1.11 -0.7,-1.47 -1.02,-0.28 0.26,-1.67 5.13,-0.63 0.95,-0.76 3.58,0.52 2.6,-2.74 0.02,-0.48 -0.91,-0.47 0.81,-0.56 0.05,-0.43 0.89,-0.28 0.73,-1.51 0.08,-0.36 -1.22,-0.95 -1.86,-0.52 -0.08,-0.99 0.6,-0.95 -0.95,-3.86 -1.65,-0.83 -1.91,0.28 -0.35,-0.2 -0.41,-2.18 -1.18,0.08 -2.57,-0.56 -0.7,-0.76 -1.29,0.28 -1.19,1.55 -3.48,1.95 -2.89,-0.08 -2.99,1.15 -0.46,-0.16 -1.03,0.44 -3.8,0.28 -0.33,-0.24 -2.72,0.79 -1.65,-0.04 -0.81,-0.35 -2.51,1.19 -1.21,-0.08 -4.05,-1.43 -1.08,0.71 -1.13,-0.04 -0.25,0.56 -2.91,1.55 -1.3,-0.08 0.22,-2.3 0.78,-1.4 0.49,-1.9 -0.19,-2.31 0.22,-0.55 2.99,-2.23 -0.16,-0.63 2.43,-0.32 1.75,-1.27 0.81,-1.23 -0.57,-0.84 0.11,-1.11 -0.4,-0.48 0,-0.55 1.29,-0.48 0.68,-1.95 -0.03,-0.55 -1.05,-0.32 1.67,-0.72 0.41,0.36 4.37,-0.28 0.75,-1.95 0.25,-1.98 -0.3,-5.49 0.22,-0.68 -0.25,-0.67 0.27,-0.32 3.35,-0.44 1.54,0.48 1.94,-1.51 0.92,-2.75 0.54,-0.79 2.13,-0.8 1.86,0.32 2.05,-0.36 2.11,-2.11 0.05,-0.39 -0.38,-0.36 -0.57,-0.04 -0.05,-0.6 0.08,-1.03 0.73,-0.84 -0.32,-0.4 0.1,-1.71 -2.26,0.4 -0.25,-0.52 0.44,-1.59 -1.11,-0.56 -0.49,-1.35 -0.13,-0.56 0.49,-1.43 -0.22,-2.75 -0.51,-1.47 -0.71,-0.87 2.24,-0.76 4.78,-2.43 3.05,-0.92 0.94,-0.04 0.9,1.12 z" 
                fill="rgb(151, 144, 238)" 
                stroke="white" 
                stroke-width=".7px"
                title="Jura" 
                id="CH-JU" 
            />
        </svg>