<svg xmlns="http://www.w3.org/2000/svg" viewBox="506.37453 208.09045 183.8 201.8700000000001" width="183.8" height="201.8700000000001">
            <path 
                d="m 506.37453,226.84045 1.33,0.79 0.35,0.63 0.99,-0.03 1.19,0.67 2.38,0.35 2.78,-1.46 2.91,-0.99 5.67,-1.47 3.59,-0.47 2.94,2.53 3.26,0.84 7.53,-6.98 -2.7,-6.06 -0.27,-2.34 1.41,-0.91 4.29,0.35 0.51,0.68 3.29,-0.56 2.62,-2.26 2.4,2.54 0.32,1.94 3.05,4.28 -0.18,5.99 3.48,1.42 0.43,-0.59 5.34,-0.95 0.54,0.28 2.51,-0.88 0.59,-0.39 -1.59,-2.06 -0.19,-1.31 1.27,-0.36 0.81,0.64 2.16,0 0.32,-0.8 0.84,-0.19 0.4,-1 2.92,-1.22 2.67,1.18 1.78,2.82 -0.02,1.43 0.83,1.82 2.81,0.36 1.81,0.83 1.32,-0.83 0.08,-0.68 1.32,-0.47 7.72,-1.23 2.21,-1.11 0.68,4.87 -0.49,0.12 -0.97,-0.75 -0.65,0.43 -3.18,0.56 -0.06,0.67 1.19,0.28 -0.05,2.02 1.53,1.39 0.41,-0.16 0.54,0.51 0.65,-0.39 0.64,0.63 0.89,2.22 0.98,-0.4 1.35,0.12 1.99,-1.11 0.06,-0.59 2.99,0.31 0.14,-1.5 -0.46,-0.2 0,-2.45 0.35,0.07 0.32,-0.99 -0.27,-1.58 0.76,-1.7 3.34,-2.18 2.19,-8.37 0.46,-0.16 1.7,0.56 1.7,-0.04 -0.24,-0.91 0,-0.44 0.32,-0.2 -0.11,-0.79 0.65,-0.6 0,-0.51 1.13,-0.16 0.52,-1.9 2.4,-0.2 0.48,1.58 2.4,-0.19 0.3,0.99 1.94,-0.56 0.22,0.4 2.37,1.27 1.57,2.06 1.43,0.48 -1.38,2.53 0.46,1.11 0.06,1.31 1.18,2.38 0.79,0.59 0.37,-0.35 1.92,2.85 0.89,2.3 -0.38,1.23 0.79,4.43 1.02,1.31 -0.43,2.26 0.19,0.35 1.32,0.24 0.38,0.52 0.62,2.06 -0.16,0.99 0.64,1.58 0,1.62 2.14,3.61 0.18,4.35 0.57,1.5 0.78,0.4 0.95,1.66 -0.24,0.36 0.62,0.51 -0.06,0.67 2.57,3.17 0.05,1.19 0.68,0.31 0.27,2.65 2.67,1.07 5.18,1.42 0.7,0.52 0.67,-0.32 0.41,0.48 1.51,-0.16 0.84,0.24 1.56,-1.07 0,0 1.03,2.61 0.08,1.42 -0.52,1.31 0.11,0.91 0.89,0.98 0.14,-0.63 0.51,0.44 0.73,-0.32 0.16,0.51 0.43,-0.59 0.65,0.16 0.27,-0.28 0.41,0.32 0.43,-0.55 0.78,-0.16 2.35,-1.78 1.1,0.08 1.3,5.81 0,0 -0.7,-0.08 -0.62,1.5 -1.27,-0.24 -6.56,4.27 -2.48,3.05 -0.06,1.54 0.41,1.34 -0.41,0.35 -0.16,1.07 -0.56,1.03 -2.54,1.9 -0.54,0.75 -1.54,0.9 0.05,1.98 0.22,1.7 2.73,0.55 8.2,-2.37 0.84,0.63 1.72,0.16 1.43,1.14 -0.4,0.64 1.7,0.91 3.51,3.04 1.94,0.9 5.24,5.69 1.86,1.42 1.18,1.58 1.54,0.15 1.11,0.52 0.65,0.67 -0.17,3.59 -0.72,2.25 -0.63,0.55 -1.16,0.47 -0.91,1.03 -1.76,0.39 -3.13,1.34 -1.86,0.44 -1.67,-0.55 0,0 0.59,-4.78 -11.82,-3.15 0.03,5.91 0.27,1.27 -0.46,0.27 -2.97,0.08 -2.94,-1.02 -2.29,0.03 -2.54,1.03 -0.57,-0.71 -0.24,-1.3 -0.13,-5.76 -4.13,-0.79 -8.93,11.95 -3.84,-3.78 -0.45,-0.12 -1.38,0.27 -0.65,-0.31 -2.67,0.59 -1.49,-0.04 -0.32,0.87 -0.78,0.08 -0.57,0.47 -2.4,-0.59 -0.57,-0.71 -3.23,-0.08 -2.78,1.54 -2,2.84 -0.65,0.31 -0.89,-0.15 -1.3,-1.86 -0.61,0.16 -0.25,-0.36 -1.54,-0.27 -2.77,5.01 0.86,1.18 2.13,1.93 0,0 0,0 0,0 -0.27,0.95 -0.97,0.35 -2,-0.12 -4.26,1.03 -3.94,-1.7 -1.19,0.99 -1.7,0.2 -1.13,0.82 -1.43,0.4 -4.27,2.72 0.09,2.24 2.77,3.91 0.68,1.38 -0.08,0.43 -1.43,0.75 -0.46,0.98 -0.67,0.12 -3.3,2.64 -1,1.34 -0.97,0.12 -1.59,2.91 -1.81,2.36 -2.97,6.74 -0.89,-0.87 -0.24,-0.79 -0.21,-1.93 0.56,-2.59 -2.13,-0.44 -1.56,-1.18 -0.36,0.83 -1.75,0.51 -0.3,1.81 -0.43,0.63 -0.43,0.08 -0.08,0.63 -0.65,0.86 -0.59,0.44 -1.7,0.08 -0.35,0.55 -0.08,1.93 -0.71,1.37 0.57,2.05 0.49,0.28 -0.25,0.66 0.38,2.33 -0.51,0.82 -0.11,1.3 -0.84,0.67 0.27,1.61 -0.54,1.5 -0.56,-0.04 -0.27,0.43 -0.6,-0.27 -0.64,0.39 0.29,1.69 -0.67,1.5 -1.67,1.65 -1.06,0.39 -0.91,2.87 1.37,2.13 -0.21,0.86 1.29,1.73 3.4,6.41 -0.05,1.96 -0.16,0.28 -0.71,-0.04 -0.21,0.71 -1.16,0.58 0.11,2.4 -1.97,2.24 0,0 -0.41,0.24 -1.4,-0.16 -2.24,-0.82 -3.29,0.15 -1.38,0.79 -0.46,0.67 -3.07,1.21 -1.57,0.24 -0.76,1.53 -2.64,1.1 -1.08,-0.71 -1.94,-0.59 -1,-1.02 -0.81,-1.88 -0.43,-0.39 -0.76,-0.04 -0.59,-0.79 -1.65,-0.79 -1,-3.42 -1.26,-2.23 -6.37,-5.66 -6.16,-3.78 -5.8,-2.87 -2.29,-3.3 0.08,-1.18 -0.76,-1.14 0,-3.54 0.41,-0.47 0.13,-1.22 -1.02,-0.83 -0.57,-1.57 -1.62,-0.56 0.08,-2.2 -0.37,-1.89 0.54,-1.26 0.67,-0.43 1.89,-0.28 2.83,-4.64 0.6,-0.16 -0.19,-0.86 0.65,-1.11 -0.68,-2.24 -1.08,-0.32 -2.4,-1.65 0.03,-0.55 1.51,-3.55 1.02,-0.94 2.16,-0.79 1.7,-1.34 2.11,-0.71 1.7,0.71 2.43,-0.12 2.02,-3.86 -0.03,-1.18 2.24,-0.87 0.62,-1.18 0,-3.86 1.65,-1.38 0.67,-0.12 1.43,-1.38 -0.35,-3.43 1.05,-1.06 0.73,-0.12 0.27,-0.51 -0.97,-5.01 0.97,-1.38 0.76,-2.57 -1.4,-1.14 -0.73,0.36 -2,0.03 -1.94,0.63 -1.65,-1.14 -0.59,-1.42 -1.13,0.04 -5.08,1.58 -1.19,-2.88 0.89,-1.7 -1.72,-1.93 -0.16,-2.05 -2.76,-2.33 0.14,-1.11 -0.57,-1.38 -1.89,-0.24 -1.45,-2.25 -0.76,-2.64 2.16,-3.2 -0.11,-0.51 -0.62,-0.04 1.21,-2.81 0,-1.3 0.46,-0.35 0.98,-5.61 -0.33,-1.15 -0.57,-0.55 0.41,-0.68 -0.3,-0.55 -1.35,-0.83 0.35,-0.28 0.19,-1.3 -0.21,-0.43 -0.41,0.04 -0.13,-0.56 0.48,-2.25 -1.64,-0.59 0.27,-1.58 -0.54,-0.4 0.1,-0.87 0.57,-0.91 4.48,-2.96 0,-1.11 0.78,-0.2 -0.24,-0.75 0.46,-1.54 -0.3,-0.48 0.19,-0.59 -2.62,-3.28 -0.75,-1.7 -0.46,-3.8 0.27,-3.72 -1.62,-4.83 -0.68,-0.91 -0.86,-0.47 -1.56,-3.88 0.13,-0.36 -0.92,-0.67 -2.05,-4.28 -0.43,-2.22 -1.21,-1.74 -1.32,-3.49 0.02,-0.67 z" 
                fill="rgb(151, 144, 238)" 
                stroke="white" 
                stroke-width=".7px"
                title="Lucerne" 
                id="CH-LU" 
            />
        </svg>