<svg xmlns="http://www.w3.org/2000/svg" viewBox="128.40453000000002 255.78045 176.99 126.03999999999982" width="176.99" height="126.03999999999982">
            <path 
                d="m 244.65453,255.78045 7.2,13.61 -2.02,9.01 -2.4,2.18 -1.49,7.07 13.85,-7.79 2.43,-1.77 0.75,-1.35 1.94,1.58 1.22,-0.27 2.72,-1.31 9.93,-1.7 2.19,-0.75 1.75,-1.22 0.73,-0.16 0.43,-0.59 0.49,-0.04 0.51,0.47 4,-0.43 1.1,-1.23 2.11,0.43 0.59,0.64 -2.59,2.09 -1.83,2.93 1.4,3.32 3.13,-2.14 2.13,1.43 2.37,2.29 2.27,0.35 2.94,0.99 0.52,1.11 2.29,3.04 0.08,1.7 -2.75,2.13 0.92,1.11 0.16,2.64 1.64,2.33 -0.08,0.64 -2.51,3.19 -3.58,2.45 -3.67,0.71 -3.24,2.57 -1.35,2.05 0.08,5.53 -0.68,2.17 -1.67,2.17 0.92,1.65 3.37,8.91 0,0 0,0 0,0 -10.12,-2.91 -19.86,13.4 0,0 0,0 0,0 -8.82,10.72 0,0 0,0 0,0 -8.29,6.26 0,0 -23.18,22.08 0,0 0,0 0,0 -6.58,-6.77 -4.18,-0.75 -1.65,1.38 -0.3,-0.08 0.19,-1.26 0.87,-0.98 0.97,-3.43 -0.06,-0.47 -0.59,-0.23 0.51,-3.98 -5.04,-4.13 -1.22,-0.28 0.27,-4.02 1.51,-5.75 -0.91,-0.75 0.02,-1.37 -13.44,5.94 -6.26,4.34 -0.45,1.77 -5,7 -3.15,-0.11 -2.3,0.74 -2.37,1.3 0,0 -1.19,-0.23 -2.35,0.23 0,0 -3.24,1.5 -3.56,2.28 -2.1,0.39 -1.7,1.74 -2.19,0.74 -2.18,2.8 -1.6,1.18 -11.44,4.01 -3.97,-0.51 -0.29,-1.22 -1.78,-0.55 0,0 1.1,-14.84 -1.59,-4.13 -5.04,-7.24 -0.89,-0.75 -1.11,-2.68 4.86,-3.31 2.69,-2.99 0.76,-1.62 3.16,-4.34 2.88,-3.15 3.19,-2.8 2.18,3.2 4.35,-2.29 1.97,-0.08 2.35,-0.59 5.77,-2.29 1.43,-0.27 3.08,-1.34 5.26,-3.55 1,-0.08 1.89,0.67 1.4,0.04 2.94,-0.79 1.27,-1.18 1.97,-0.95 2.02,-1.97 1.35,-2.25 1.38,-3.95 2.56,-3.51 4.27,-2.88 2.96,-1.07 2.3,0.16 1.78,-1.34 2.43,-2.72 2.13,-1.19 0.14,-0.75 -2,-0.71 -0.7,-1.46 -1,-0.47 -1.03,-0.04 -1.08,-1.66 -1.02,-0.48 -0.7,-0.86 0.37,-0.72 2.16,-0.55 0.76,-1.3 0.67,-0.51 -0.29,-0.64 0.64,-1.26 -1.16,-0.36 -0.19,-0.55 2.11,-0.91 0.94,-0.71 0.27,-0.67 1.97,-0.63 0.95,-0.87 1.4,0.67 1,0.08 1.89,-0.59 0.83,-0.83 0.49,-1.39 -0.03,-0.75 -1.18,-2.33 -0.08,-1.5 1.13,-0.04 0.51,-0.32 1.11,-1.66 3.4,-2.25 1,-0.44 2.15,-0.07 1.3,-0.95 3.05,-1.11 1.11,-0.91 2.48,-0.59 0.48,-0.36 0.49,-1.58 1.81,-0.16 1,-1.62 1.48,-0.95 0.76,-1.34 3.15,-1.9 0.25,-1.78 2.45,-0.99 0.62,-1.15 1.81,-1.9 0.03,-0.51 0,0 z" 
                fill="rgb(151, 144, 238)" 
                stroke="white" 
                stroke-width=".7px"
                title="Neuchâtel" 
                id="CH-NE" 
            />
        </svg>