<svg xmlns="http://www.w3.org/2000/svg" viewBox="610.89453 313.51044999999993 96.0100000000001 97.67000000000002" width="96.0100000000001" height="97.67000000000002">
            <path 
                d="m 613.88453,332.44045 -2.13,-1.93 -0.86,-1.18 2.77,-5.01 1.54,0.27 0.25,0.36 0.61,-0.16 1.3,1.86 0.89,0.15 0.65,-0.31 2,-2.84 2.78,-1.54 3.23,0.08 0.57,0.71 2.4,0.59 0.57,-0.47 0.78,-0.08 0.32,-0.87 1.49,0.04 2.67,-0.59 0.65,0.31 1.38,-0.27 0.45,0.12 3.84,3.78 8.93,-11.95 4.13,0.79 0.13,5.76 0.24,1.3 0.57,0.71 2.54,-1.03 2.29,-0.03 2.94,1.02 2.97,-0.08 0.46,-0.27 -0.27,-1.27 -0.03,-5.91 11.82,3.15 -0.59,4.78 0,0 -0.68,5.12 8.02,2.96 6.53,-1.18 6.47,0 7.56,-4.34 0,0 0.84,3.19 -1.38,2.33 -1.73,1.26 -0.38,2.17 -0.91,1.46 -0.84,0.31 0.43,5.6 0.3,0.91 -0.22,1.81 0.36,0.75 -2.65,0.51 -1.16,-0.32 0.84,2.25 -0.65,2.44 -4.7,1.85 -2.07,0.44 -0.19,0.78 -0.73,0.79 -3.56,1.73 -1.3,-1.77 -3.24,0.04 -0.56,2.52 -0.92,1.54 -4.56,1.85 -1.32,2.05 0.54,0.35 1.61,0.04 0.49,0.28 1.08,1.33 0.14,0.91 0.91,1.02 0.43,1.54 0.14,0.78 -0.35,0.48 -0.76,0.47 -0.37,0.67 -1.22,0.39 -0.19,0.55 0.81,3.43 -0.67,2.63 0.67,2.28 0,0 -1.27,-0.27 -2.91,0.55 -4.51,0.31 -0.75,0.59 -1.78,0.55 -2.67,-0.62 -0.14,-0.91 0.43,-0.9 -0.62,-2.56 -0.76,-0.87 -0.75,-1.81 -0.51,0.59 -0.46,-0.07 -1.19,1.49 -1.11,0.28 -0.64,-0.16 -1.62,2.32 -1.06,0.35 -0.91,1.18 -1.05,-0.55 -1.65,3.07 0.08,-3.38 0.35,-1.1 0.67,-1.18 1.52,-1.34 -1.06,-1.54 0.19,-0.74 -0.29,-0.75 -1.89,-0.28 -0.65,0.83 -0.46,1.46 0.46,2.2 -0.32,2.63 0.43,1.46 -0.7,1.38 0.08,1.18 0.32,0.47 0.3,4.09 1.48,2.95 -0.38,3.69 -0.48,0.87 0.65,-0.32 0.46,0.16 0.59,0.63 2.13,0.98 0.22,0.98 -1.06,2.16 1.03,0.67 2.43,2.71 1.64,0.28 1.16,1.45 3.03,0.67 0.29,1.06 1.33,2.28 0.4,1.77 -3,-0.79 -2.8,1.53 -2.67,0.87 0,0 0,0 0,0 -1.11,-2.2 -1.24,-0.32 -1.13,-0.74 -1.14,-2.16 -1.97,-0.94 -0.54,0.19 0,0 -1.86,-2.28 -3.13,-1.1 -1.11,-1.22 -0.48,-0.15 -0.38,-0.47 -0.05,-0.91 -2.86,-2.95 -0.16,-0.62 -1.38,-0.79 -1.32,-2.28 1.05,-1.22 1.51,-0.71 1.05,-0.98 -0.78,-2.6 -0.13,-2.32 -0.68,-0.62 -0.16,-0.91 -0.06,-0.94 0.81,-2.05 -0.02,-1.96 0.86,-1.85 -0.05,-2.25 -1.08,-1.49 -0.41,-2.72 1.14,-1.53 0,-1.46 1.4,-2.2 0.11,-2.64 -0.54,-2.6 1.8,-2.99 0.06,-0.99 -0.43,-1.33 -0.76,-0.24 0.35,-0.94 0,-3.35 -3.18,0.71 -1.62,0.82 -2.02,0.4 -0.52,-0.36 -1,0.36 -2.91,-2.45 -2.72,-1.26 0.4,-1.3 2.62,-3.86 2.67,-2.05 -0.87,-1.49 1.17,-4.97 -1.14,-3.07 -1.59,-0.6 -4.75,0.67 -3.56,-1.06 -1.97,0.35 -0.27,-0.67 -1.38,-0.27 -0.56,0.08 -1.22,1.46 -0.76,0.39 -2.07,0.67 -1.65,0 z" 
                fill="rgb(151, 144, 238)" 
                stroke="white" 
                stroke-width=".7px"
                title="Nidwalden" 
                id="CH-NW" 
            />
        </svg>