<svg xmlns="http://www.w3.org/2000/svg" viewBox="563.5745299999999 329.25045000000006 125.12999999999988 89.44000000000017" width="125.12999999999988" height="89.44000000000017">
            <path 
                d="m 613.88453,332.44045 0.97,-0.59 1.65,0 2.08,-0.67 0.76,-0.39 1.22,-1.46 0.57,-0.08 1.38,0.28 0.27,0.67 1.97,-0.35 3.56,1.06 4.75,-0.67 1.59,0.59 1.14,3.08 -1.16,4.97 0.87,1.5 -2.67,2.05 -2.62,3.86 -0.4,1.3 2.73,1.26 2.92,2.44 1,-0.35 0.51,0.35 2.02,-0.39 1.62,-0.83 3.18,-0.71 0,3.35 -0.35,0.95 0.76,0.24 0.43,1.34 -0.05,0.98 -1.81,2.99 0.54,2.6 -0.11,2.64 -1.4,2.2 0,1.46 -1.13,1.53 0.41,2.72 1.08,1.49 0.06,2.24 -0.86,1.85 0.03,1.97 -0.81,2.05 0.06,0.94 0.16,0.91 0.67,0.63 0.14,2.32 0.78,2.6 -1.05,0.98 -1.51,0.71 -1.05,1.22 1.32,2.28 1.38,0.79 0.16,0.63 2.86,2.95 0.06,0.9 0.38,0.47 0.49,0.16 1.11,1.22 3.13,1.1 1.86,2.28 0,0 -1.35,0.79 -1.13,1.3 -1.81,-0.04 -4.45,0.75 -6.88,4.95 -1.97,2.4 -0.84,0.24 -0.54,-0.2 -0.51,0.94 -1.19,0.55 -2.51,1.96 -2.48,-0.59 -1.29,0.2 -0.16,-0.94 -2.37,-3.14 -1.94,-0.39 -1.21,-0.9 -1.05,-0.08 -1.16,-1.02 -1.48,3.22 -0.49,0.35 -2.67,0.16 -0.65,-0.28 -1.78,-1.49 -0.86,-1.53 -3.88,0.51 -0.67,-0.04 -0.97,-0.71 -4.8,2.36 -1.08,-0.2 -2.48,2.12 -1.59,0.55 -1.11,0.94 -0.7,0.12 -6.45,-5.97 -0.76,-0.12 -2,-1.14 -1.59,0.24 -0.94,-0.23 -0.22,-1.26 -1.62,-1.45 -1.7,-2.63 -3.67,0.35 -0.97,-0.35 -0.48,-0.75 -1.3,0.67 -1.75,0.24 -1.48,-0.67 -1.27,0.24 0,0 1.97,-2.24 -0.11,-2.4 1.16,-0.59 0.22,-0.71 0.7,0.04 0.16,-0.27 0.05,-1.96 -3.4,-6.41 -1.3,-1.73 0.22,-0.86 -1.38,-2.12 0.92,-2.87 1.05,-0.39 1.67,-1.65 0.68,-1.49 -0.3,-1.69 0.65,-0.39 0.59,0.28 0.27,-0.43 0.57,0.04 0.54,-1.49 -0.27,-1.61 0.84,-0.67 0.11,-1.3 0.51,-0.83 -0.38,-2.32 0.24,-0.67 -0.48,-0.28 -0.57,-2.05 0.7,-1.38 0.08,-1.93 0.35,-0.55 1.7,-0.08 0.59,-0.43 0.65,-0.86 0.08,-0.63 0.43,-0.08 0.43,-0.63 0.3,-1.81 1.75,-0.51 0.35,-0.83 1.57,1.18 2.13,0.44 -0.57,2.6 0.22,1.93 0.24,0.79 0.89,0.87 2.97,-6.73 1.81,-2.36 1.59,-2.91 0.97,-0.12 1,-1.34 3.29,-2.64 0.68,-0.12 0.46,-0.98 1.43,-0.75 0.08,-0.43 -0.67,-1.38 -2.78,-3.9 -0.08,-2.25 4.26,-2.72 1.43,-0.39 1.13,-0.83 1.7,-0.2 1.19,-0.98 3.94,1.7 4.26,-1.02 2,0.12 0.97,-0.35 0.15,-1.09 z m 44.69,78.74 2.67,-0.86 2.81,-1.53 3,0.79 -0.4,-1.77 -1.32,-2.28 -0.3,-1.06 -3.02,-0.67 -1.16,-1.45 -1.65,-0.28 -2.43,-2.71 -1.02,-0.67 1.05,-2.16 -0.22,-0.98 -2.13,-0.98 -0.59,-0.63 -0.46,-0.16 -0.65,0.31 0.49,-0.86 0.38,-3.69 -1.48,-2.95 -0.3,-4.09 -0.32,-0.47 -0.08,-1.18 0.7,-1.38 -0.43,-1.46 0.32,-2.63 -0.46,-2.2 0.46,-1.46 0.65,-0.83 1.89,0.28 0.3,0.75 -0.19,0.75 1.05,1.53 -1.51,1.34 -0.67,1.18 -0.35,1.1 -0.08,3.38 1.65,-3.07 1.05,0.55 0.92,-1.18 1.05,-0.35 1.62,-2.32 0.65,0.16 1.11,-0.28 1.19,-1.49 0.46,0.08 0.51,-0.59 0.76,1.81 0.76,0.87 0.62,2.56 -0.43,0.9 0.14,0.91 2.67,0.63 1.78,-0.55 0.76,-0.59 4.51,-0.31 2.91,-0.55 1.27,0.28 0,0 1.35,-0.08 0.54,-0.83 3.51,1.53 2.03,0.16 2.19,2.87 -0.3,0.28 -0.3,1.53 -1,0.79 -3.13,1.06 -0.22,0.55 -1.13,3.07 -0.27,4.56 -0.84,0.67 0,0.71 0.86,1.18 -0.03,1.77 -1.35,1.22 -1.35,0.59 -2.24,-0.47 0.43,1.18 1.78,0.9 2.19,-1.14 0.24,1.65 -0.97,1.42 0,0.43 1.08,0.79 1.73,2.51 0.65,3.18 -2.7,1.73 -1.81,0.31 -1.24,-0.51 -1.27,-0.04 -0.57,0.67 -0.35,-0.39 -0.62,0.2 -0.78,0.31 -0.19,0.51 -2.05,0.75 0,0 -0.16,-0.51 -0.75,-0.47 0.78,-1.65 -0.81,0.2 -1.02,-0.2 -0.7,-0.59 -2.4,0.04 -2.16,0.75 -0.46,-0.2 -0.19,-1.06 -0.62,-0.51 -0.57,0.08 -1.67,1.69 -3.18,1.96 -0.47,-2.64 z" 
                fill="rgb(151, 144, 238)" 
                stroke="white" 
                stroke-width=".7px"
                title="Obwalden" 
                id="CH-OW" 
            />
        </svg>