<svg xmlns="http://www.w3.org/2000/svg" viewBox="766.8045300000006 100.74044999999998 236.54996999999923 270.45000000000005" width="236.54996999999923" height="270.45000000000005">
            <path 
                d="m 918.70453,119.66045 -0.86,-0.32 -0.27,-0.92 0.78,-0.08 0.59,0.56 -0.24,0.76 z m 41.75,-16.13 -17.19,19.04 -0.24,0.96 0.57,0.84 -0.32,0.68 0.14,0.92 1,0.24 -0.08,0.52 0.24,0.12 2.08,0.56 0.62,-0.12 0.54,0.36 -0.48,0.84 0.16,0.64 9.34,-6.21 11.23,-9.48 0,0 5.77,7.57 -0.21,2.19 0.51,1.99 1.38,1.55 2.97,2.35 2.02,3.42 2.02,4.7 0.67,0.44 1.38,0.08 0.59,-0.91 0.46,-1.75 0.3,-0.32 0.54,0.08 0.59,0.4 1.11,2.35 0.92,1.07 2.43,0.92 4.08,0.36 3.83,1.55 0.32,1.03 -0.24,1.07 -3.21,3.42 -0.49,0.8 -0.03,1.71 1.59,5.33 0.16,5.17 2.05,3.54 0.64997,0.6 2.32,1.07 0.81,0.87 0,3.58 -1.21,2.66 -1.19,1.23 -2.72997,1.67 -5.48,0.36 -2.13,0.76 -0.43,-0.32 -5.12,5.8 -1.32,2.26 -2.78,9.88 -1.65,3.33 -6.99,5.24 -0.94,1.86 -0.92,3.69 -1.13,2.3 -4.26,3.57 -0.38,4.24 -2.54,7.13 -4.51,7.81 -0.94,4.56 -2.73,6.38 -0.94,5.19 1.32,7.24 2.32,5.62 2.13,2.93 0.59,1.78 2.7,13.84 -0.08,2.65 -0.86,3.12 -0.97,1.26 -5.07,4.11 -5.77,3.91 0.03,1.7 0.78,2.92 0,0 1.13,2.61 7.26,10.85 1.32,3.95 2.27,4.06 6.61,8.2 -4.4,0.87 -0.67,0.55 -1.27,0.16 -0.65,0.55 -0.43,0.71 0.19,5.01 -0.46,0.43 -3.29,0.75 -0.43,1.62 -0.75,0 -1.22,3.15 0.06,0.63 -0.7,0.2 0.06,0.75 -1.83,0.87 -0.3,2.01 -1.51,1.97 -0.65,2.13 0.32,1.81 2.46,1.3 -1.29,1.5 -2.16,0.99 -1.24,1.85 -0.81,0.55 -0.24,0.47 0.78,2.72 -0.32,1.38 -0.49,0.91 -3.29,0.2 0.54,0.83 -0.03,1.34 -1.05,2.13 -0.92,0.83 -0.78,-0.98 -2.24,-1.77 -1.43,-2.05 -1,-0.16 -1.11,-1.02 -4.02,-1.61 -2.7,0.04 -4.64,-2.05 -6.75,-0.08 -3.24,-1.14 -0.81,0.12 -1.11,-0.67 -2.56,0.16 -1.19,0.47 -2.08,-0.2 -0.81,-1.18 -1.43,-0.79 -2.38,0.12 -1.78,-0.55 -1.08,0.08 -0.68,0.71 -1.67,-0.87 -1.05,-0.04 -2.64,1.73 -2.51,-2.05 -0.81,-1.85 -1.59,-1.26 0,0 1.13,-4.41 -0.62,-2.44 -0.38,-0.83 -2.27,-1.34 -1.19,-2.84 0.06,-3.39 0.24,-0.31 1.86,-0.43 0.32,-1.22 -0.81,-2.64 1.08,-4.18 -0.73,-1.66 0,-0.71 0.68,-1.62 -0.22,-0.87 1.43,-2.56 0.03,-0.63 -1.35,-2.25 -0.46,-1.54 -0.49,-3.91 -1.56,-2.53 -1.08,-0.55 -1.83,-2.29 -1.19,-0.55 -1.4,-0.12 -1.75,-1.1 -0.81,0.4 -1.05,-0.12 -5.59,3.59 -0.81,-0.24 -0.59,-1.06 -1.13,0.79 -1.05,0.24 -2.54,-1.5 -0.75,0 -4.37,-3.35 2.19,-1.89 3.35,-2.01 2.21,-0.2 0.78,-1.03 1.08,-0.35 1.94,-1.93 0.92,-2.49 0.95,-1.34 0.54,-1.58 -0.03,-2.57 -0.54,-2.65 0.38,-2.17 -0.92,-2.17 -0.14,-1.46 1,-2.88 -0.08,-1.5 -0.78,-1.82 0.54,-0.71 0.19,-2.81 -9.18,-1.46 -5.58,-1.26 -5.91,-0.28 -1.22,0.28 -2.24,-0.55 -8.66,1.15 -3.64,-3.4 -13.22,-14.2 0,0 -3.43,-3.76 -5.48,-12.51 -0.67,-0.79 -4.13,0.4 -4.13,-0.75 -25.2,3.96 -2.72,-0.12 -3.1,-0.91 -4.37,-3.84 0,0 -3.37,-7.49 0.22,-1.35 0.65,0.12 0.06,-0.44 1.27,-1.39 5.78,-1.9 2.54,0.87 1.59,0.95 0.84,-0.04 0.27,-0.63 1.94,-0.87 0.27,0.32 0.05,1.35 0.51,0.63 1.65,0.52 1.32,-0.4 0.16,0.32 1.13,-0.67 -0.13,-0.48 1.02,-0.44 -0.38,-1.66 6.18,-0.71 3.18,-0.99 0.24,0 0.3,0.79 5.13,-1.7 0.24,-0.44 0.95,0.4 2.38,-2.77 0.65,-1.31 -0.81,-1.07 1.24,-0.95 0.49,-0.87 0.22,-1.47 -0.16,-0.48 -0.49,-0.24 -0.59,0.99 -0.67,-0.16 0.19,-0.99 -0.51,-0.87 -1.65,-1.43 4.02,-1.51 0,-0.63 0.75,-0.95 0.97,-2.74 0.76,-0.83 1.67,-0.52 1.16,0.16 1.65,-0.48 2.81,-5.2 -0.94,-0.95 -0.43,-1.31 -0.67,-0.63 -0.05,-1.55 0.59,-2.42 -1.62,-1.03 0.27,-3.06 -0.73,-1.98 -0.51,-0.04 -0.49,-0.71 -2.08,0.2 -0.13,-1.03 -1.97,-4.37 -0.57,-1.98 -0.59,-1.03 -0.89,-0.08 -0.32,-0.32 0,0 1.13,-1.47 1.62,-0.6 1.02,-2.15 2.11,0.52 0.76,-2.46 0.92,-0.04 0.57,-4.81 0.86,-2.98 1.35,-0.52 1.81,0.32 0.38,-0.8 0.54,-3.82 -0.51,-0.95 0.32,-0.52 -0.38,-1.27 0.7,-0.24 0.57,0.32 0.03,-0.28 1.19,-0.32 0.49,-0.36 -0.46,-0.76 0.19,-0.28 1.67,0.24 1.3,-0.4 0.4,0.68 0.57,-0.72 1.3,-0.52 0.35,-1.47 0.62,-0.48 1.08,1.59 0.62,0.24 0.7,-0.16 0.51,-0.99 0.35,0.12 0.57,0.96 -0.84,0.68 0.95,0 0.62,-0.91 -0.65,-0.75 0.38,-0.12 0,-0.79 2.27,0.2 -0.32,-0.64 0.67,0.04 0.11,-0.56 1.67,0.8 0.32,-0.56 1.02,0.16 -0.27,-0.8 0.89,-0.12 -0.08,-0.52 -1.81,-0.48 -0.11,-0.8 -1.4,-1.27 -2.62,-0.36 -2.32,-1.35 -1.02,-0.99 1.02,-0.8 -0.49,-0.52 -0.13,-1.75 -5.21,-1.95 0.59,-0.99 -0.38,-0.04 -0.27,-1.51 -1.27,-0.64 1.62,-1.67 0.76,-1.91 1,0 0.81,0.6 2.46,-0.56 3.21,-1.75 -0.19,-0.52 0.76,0 0.38,0.8 0.84,0.68 0.84,0.04 -0.05,0.76 0.97,-0.04 0.49,1.08 0.86,-0.36 0.24,-0.96 0.51,-0.2 0.22,-0.56 0.62,0.68 2.02,-0.8 0.67,0.16 2.08,-1.07 0.7,1.91 -0.13,0.36 0.65,0.8 0.73,2.03 2.13,-0.56 0.4,-0.64 2.86,0.6 0.76,-0.24 1.46,1.95 0.32,0 1.51,-0.68 -0.13,-0.96 1.97,-0.44 0.03,-0.28 1.35,-0.12 0.95,0.12 -0.13,0.28 0.84,0 1.92,-1.03 1.54,-0.08 0.92,-0.88 0.08,-0.76 1.02,-1.91 -0.57,-0.88 0.49,-0.52 -0.19,-0.36 1.19,-1.19 0.35,0.2 -0.05,0.76 0.49,-0.8 0.76,0.28 -0.78,1.71 1.16,0.96 0.16,0.6 0.19,-0.24 0.59,0.2 0.41,-0.44 -0.13,-0.48 0.67,-0.24 0.86,2.39 1.48,-0.6 1.11,0.6 0.03,1 0.89,-0.56 0.62,0.56 2.97,-0.04 -0.89,0.92 0.32,0.84 -0.21,0.72 0.78,0.32 -0.19,0.76 1.13,0.4 0.16,-0.91 1.08,-0.8 1.81,-0.36 0.95,0.52 0.16,-0.32 0.48,0.16 0.57,0.96 1.05,0.04 0.38,-0.32 0.73,0.6 1.11,-0.04 0.59,1.59 0.89,0.52 0.4,-0.32 3.21,0.52 1.11,-0.95 2.86,-1.03 0.24,-0.84 0.54,-0.52 0.94,0.2 0.49,0.6 0.94,0.44 1.84,0.44 0.51,0.56 2.54,-1.83 0.46,-1.11 1.48,-0.64 0.51,-1.15 1.05,-0.68 -0.43,-1.67 0.19,-0.68 -0.86,-1.51 -1.11,0.36 -0.73,0.76 -0.57,0 0.32,-1.11 -0.3,-1.63 0.43,-0.56 1.54,-0.48 0.41,-0.72 -1.97,-0.96 -1.29,-0.96 -0.3,-0.6 -0.43,0.44 0.22,0.56 -1.05,0.52 -0.22,0.72 -0.4,0.28 -0.32,-0.16 -1.02,0.6 -0.16,0.56 -1.1,-0.24 -1.46,0.56 -0.24,-0.28 -2,-0.36 -0.03,-0.28 -0.51,0.08 -0.08,-0.76 -0.54,-0.08 -0.03,-0.68 0.38,-0.2 0.51,0.32 1.02,-0.6 0.57,0.96 0.62,0.2 -0.3,-1.51 0.73,-0.16 0.06,-0.76 0.65,-1.07 -0.62,-0.64 3.43,-0.92 0.38,-0.68 1.38,0.04 0.3,-0.68 1.54,0.2 0.65,0.96 0.65,0.32 -0.27,-1.99 0.41,-0.44 0.7,-0.04 0,-0.8 0.7,-0.32 1.13,0.16 0.38,0.64 1.05,0.4 0.43,-0.48 2.16,0.2 0.54,-0.84 0.14,1.24 -0.46,1.19 0.54,0.28 0.57,1.16 2.75,0.8 0.89,-0.08 -0.11,1.2 -0.35,0.48 -0.7,0.04 -1.59,1.35 0.62,0.24 -0.65,1.31 -0.43,-0.16 -0.41,0.8 -1.21,-0.32 -0.59,1.83 0.14,0.44 0.54,0.04 0.14,-0.64 0.68,-0.4 1.43,0.88 2.19,0.4 1.94,-0.88 1.54,1 0.7,-0.32 0.73,0.2 0.32,0.6 -0.43,1.95 -0.78,-0.04 -0.32,0.52 0,0.32 1,0.64 -1,0.84 -0.49,1.23 0.19,0.2 1.4,-0.16 0.57,-0.68 1.59,-0.16 -0.19,0.84 1.35,1.39 1.02,0.08 1,2.03 1.24,0.36 -0.05,-1.03 0.62,-0.12 0.51,-1.03 -0.16,-0.72 0.43,-0.52 -0.24,-0.76 0.84,-0.68 0.54,-1.47 -0.08,-0.64 3.19,-0.84 2.51,-2.83 2.32,-1.83 18.43,-19.76 0,0 2.05,2.79 z m -2.95,78.8 -1,-5.04 0.43,-2.14 -0.43,-0.44 0.51,-0.91 1.35,-1.19 -0.78,-0.16 0.08,-2.38 0.49,-3.14 1.02,-2.35 0,0 4.83,-1.03 2.48,-0.83 1.84,-0.2 0.59,0.44 -0.68,2.27 0.78,0.36 1.75,-0.68 4.07,-3.18 2.29,-0.99 -0.35,-0.68 2.05,-1.31 0.03,-0.4 -0.57,-0.24 1.81,0 0.7,-0.48 1.78,0.12 1.22,-0.79 1.27,-0.12 -1.05,-0.91 -1.35,-0.44 0.16,-0.44 -0.75,-0.16 -1.35,-1.07 0.22,-0.44 -0.35,-0.72 0.14,-0.48 4.78,-2.23 0.46,-0.68 1.3,-0.44 1.38,-1.31 0,0 2.86,-0.79 0.54,-0.52 -0.27,-1.35 -2.05,-0.95 -0.24,-0.4 -1.29,-0.04 -1.4,-0.68 -3.72,-2.62 -0.4,-0.84 -1.02,-0.04 -0.81,0.48 -0.13,-0.91 -1,-0.44 -0.4,-0.56 -3.89,-0.64 -1.51,0.12 -1.32,-0.84 -0.76,0.44 -0.4,-0.28 -1.86,0.52 -0.14,-0.32 0.57,-0.4 -0.38,-0.95 -0.51,0.08 -0.73,-0.6 -2.32,0.36 -1.7,1.87 0.11,0.36 -0.4,0.36 0.3,1.71 1.22,1.11 -0.22,0.32 -0.78,-0.16 -0.94,0.99 -1.24,-0.08 -1.38,0.92 -0.84,-0.16 -0.57,0.24 -1.51,1.51 -3.08,1.63 -2.05,0.36 -0.43,0.44 -2.81,0.2 -1.21,0.4 -1.08,1.11 -3.16,1.19 0.03,0.44 -0.54,0.08 -1.7,-1.15 -0.65,0.32 -0.92,-0.44 -0.89,0 -0.03,0.76 -0.68,1.31 0.54,1.15 0.08,2.11 -1.4,1.39 0.51,1.59 -0.54,0.68 -0.38,-0.24 -0.41,0.28 0.03,0.36 0.46,0.2 -0.54,0.99 -1.46,0.68 -2.16,0.48 -0.92,0.84 -1.32,0.16 -1.43,0.64 -2.05,-0.04 -1.81,-1.91 -1.83,-0.56 -2.35,-0.12 -7.58,2.94 -2.43,0.24 -1.22,-0.64 -0.75,0 -1.32,1.07 -5.45,1.47 -7.85,-2.35 -1.29,0.56 -0.57,-0.68 -1.91,0.95 -0.73,-0.79 -1.08,0.04 -4.59,1.91 -0.7,-0.79 -0.48,0.36 0.51,0.87 -1.75,1.79 -1.78,2.46 -0.11,0.4 0.76,0.95 0.05,1.11 -0.48,0.76 0.3,1.15 -0.57,0.24 -0.59,1.19 -0.38,0.12 -0.73,1.87 -1.13,0.87 -2.54,0.52 -2.13,-0.4 1,1.87 0.24,1.79 2.21,-0.99 0.27,-0.48 0.59,0.4 -0.21,0.48 -0.46,0.12 -1.38,2.78 1.67,2.26 0.08,0.87 4.4,-1.35 0.73,0.44 2.24,3.77 -0.7,1.11 -2.1,1.39 -0.73,0.04 -2.86,2.03 0.84,0.52 0.46,2.62 0.81,1.79 -0.43,2.34 0.38,1.31 0.54,0.32 1.16,1.78 0.08,0.79 -0.51,0.32 0.08,1.03 -1,0.95 -0.43,0.87 -2.53,1.86 -0.59,1.19 5.8,3.69 2.86,1.07 3.48,-0.32 1.91,0.75 0.62,-0.16 2.24,-1.86 0.84,0.04 0.84,-0.4 0.3,1.19 0.38,0.36 2.02,0.04 0.59,0.99 1.65,0.44 1.32,1.82 1.78,-0.71 1.16,0.04 0.46,2.1 1.27,0.63 1.94,2.34 1.32,-0.87 2.32,-0.71 1.51,-0.87 0,0 0.97,2.02 1,0.79 1.94,0.6 2.05,0.04 5.21,3.72 3.02,-1.07 2.43,-0.4 0.73,-0.59 1.05,-1.82 1.89,-1.23 0.95,-0.36 2.08,0.08 1.94,-1.31 0.84,-0.04 0.7,-0.79 0.92,-0.4 2.7,-2.77 2.1,-1.35 3,-2.73 1.05,-1.43 0.94,-2.06 1.43,-1.74 0.7,-1.63 -0.27,-1.19 0.65,-1.35 -0.03,-2.94 1.92,-1.7 -0.78,-1.67 -0.13,-1.23 1.02,-1.11 -0.05,-0.56 0.51,-0.44 0.43,-3.45 0.32,-0.4 -0.21,-0.44 0.43,-0.08 0.24,-7.03 0,-1.29 z" 
                fill="rgb(151, 144, 238)" 
                stroke="white" 
                stroke-width=".7px"
                title="Sankt Gallen" 
                id="CH-SG" 
            />
        </svg>