<svg xmlns="http://www.w3.org/2000/svg" viewBox="661.2145299999992 0.2704499999999703 126.95000000000084 101.76" width="126.95000000000084" height="101.76">
            <path 
                d="m 711.73453,81.11045 0.78,0.08 0,0 -0.13,3.27 -1.29,0.8 -2,0.68 -1.24,1.68 -0.32,1.24 0.95,3.47 -1.78,0.64 -0.51,0.52 -0.94,4.27 -2.51,4.03 -0.48,0.24 -0.57,-0.08 -0.97,-1.35 -0.62,-2.91 -0.62,-1.24 -1.35,-1.31 1.4,-0.64 -0.11,-0.96 -0.35,-0.32 -1.86,0.24 -0.78,-0.44 0.43,-0.76 -0.57,-2.03 0.62,-0.68 -0.27,-1.08 3.02,-2.31 1.24,-0.08 0.73,-0.44 0.46,-1.32 1.05,-0.88 0,0 0.49,0.72 0.84,0.48 1.35,-0.36 0.76,1.16 0.38,0.12 0.76,-0.6 1,0 0.7,-1.56 0.38,-0.4 1.05,-0.28 0.88,-1.61 z m -4.67,-77.63 0.81,-0.04 2.54,-1.04 0.84,0.96 0.76,0.32 1.46,-1.28 1.86,0.04 1.81,0.48 1.24,1 0.06,1.4 0.7,0 0.24,0.44 -1.13,3.52 0.7,2.24 0.89,1.4 -1.05,3.6 1.4,1.24 0.86,1.92 0.43,0.24 0.7,0.08 2.29,-2.56 1.27,-0.08 0.62,-0.96 -0.43,-0.72 1.81,-1.52 -0.13,-0.48 -1.22,-0.28 0.62,-3.44 -1.16,-1.12 -0.24,-0.64 0.65,-2.48 0.84,-0.44 0.49,-1.56 0.7,-0.28 0.92,0.36 0.59,1.04 0.03,0.92 -0.38,0.56 1.4,0.68 0.43,1.08 1.43,0.28 1.19,0.72 0.57,0 0.92,-0.6 0.35,0.8 0.57,0.28 0.16,1.6 -0.13,1.04 -0.35,0.32 1.43,1.4 -0.94,1.04 1.46,3.52 -0.21,1.12 1.3,1.4 0.97,-0.32 0.49,-1.4 0.84,-0.28 1.02,-0.88 0.89,-0.12 1.27,-0.92 1.62,0.6 0.78,-0.16 0.24,0.88 1.05,0.44 0.81,1.56 2.48,2.12 -0.22,1.04 0.46,0.56 -0.65,0.76 -3.4,0.04 -0.35,0.6 -0.73,0.08 -0.43,1.28 -1.05,0.8 -1.02,4.48 1.43,2.64 1.54,0.12 0.05,0.4 2,0.56 1.35,1.08 -1.65,2.16 0.11,1 -1.1,3.4 -0.13,1.2 0.27,1.28 0,0 -2.76,0.81 0,0 -0.35,-1.28 -0.51,-0.6 -0.84,0 0.03,-2.04 -2.21,-4.92 -0.46,-0.28 -2.99,0.92 0.24,0.92 -0.19,0.28 -1.4,0.08 -0.46,-0.08 -1.62,-1.44 -3.24,-0.52 -0.65,1.28 0.27,1.52 0.43,0.4 1.67,0.2 0.81,0.48 0.27,1.04 -0.4,1.92 -4.13,1.4 -0.27,1.28 0.4,0.76 1.24,1.04 0,0 -0.03,0.12 0,0 0,0 0,0 -4.88,-3.84 -5.18,1.04 -0.35,0.72 0.81,3.28 -0.13,1.52 -1.08,0.92 -1.02,0.2 -0.94,-1.24 -0.35,0.04 -0.51,0.2 -0.48,1.24 -0.43,3 0.24,1 1.16,1.68 0,0 -1.08,0.28 -1,-1.08 -0.51,-3.47 -0.3,-0.24 -1.51,0.08 -1.7,2 -0.65,-0.12 -0.57,0.28 -1.75,1.56 -1.08,0.32 -1.73,-0.88 -1.02,-0.04 -0.78,-0.64 -0.43,-1.28 -0.46,-0.32 -0.76,0.04 -1.94,0.56 -0.81,0.56 -1.11,0.08 -0.19,0.8 -0.86,0.2 -0.3,0.8 0.3,2.2 -1.75,-0.92 0,-1.24 -0.24,-0.2 -1.81,1.16 0.16,0.68 0.65,0.56 0.14,0.96 0.73,1.4 -0.03,1.4 -0.81,0.92 -0.76,0.32 -1.05,-0.04 -2.64,-1.16 -1.08,0.4 -4.02,-0.08 0,2.12 -0.67,-0.44 -0.49,0.16 -0.4,-1 -1.48,0.32 -0.38,-1.8 -0.62,-0.44 -1.16,-0.16 -0.59,0.36 0.03,0.6 1.16,0.6 0.16,0.52 -0.46,0.52 -1.08,0.24 -0.22,0.48 0.24,0.32 1.35,0.24 0.05,0.32 -0.32,0.12 -1.46,-0.16 -0.76,-0.52 -0.97,-2.48 -0.05,-1.16 1.19,-2.75 -0.89,-0.12 -2.21,1.72 -1.05,-0.68 -2,0.08 -1.22,-0.92 -1.16,-0.24 -3.35,-3.63 -3.16,0.08 -1.75,-3.12 0.14,-1.08 0.51,-0.68 2.11,-0.64 1.35,-1.6 -2.32,-4 -0.7,-0.6 -1,-0.12 -0.05,-1.04 3.27,-4.4 2.51,-0.92 2.1,-2.4 1.27,-0.4 0.89,-1.68 1,-0.2 1.97,0.24 -0.13,-1.56 0.7,-1.32 -1,-0.44 -0.35,-0.52 -0.59,-2.24 0.08,-0.96 1.32,-0.8 0.57,-1.28 -0.13,-1.16 2.48,-2 2.24,-3.88 2.4,-1.8 0.38,-0.92 1.05,-0.72 1.67,0.6 1.73,-1.16 0.95,0.08 1.92,-1.2 2.1,1.96 0.46,0.04 0.51,-2 0.89,-1.08 1.97,0.2 0.86,-0.88 4.18,-1.8 0.7,0 2.05,1.6 0.27,1.16 0.38,0.24 1.4,-1 1.56,-0.48 0.4,-0.72 -0.76,-2.96 -2.91,-0.96 -0.32,-0.6 0.27,-4.37 0.62,-1.12 0.57,-0.24 0.89,0.36 0.57,0.68 0.85,2.17 z m 63.52,28.74 -0.7,0.04 -0.51,0.56 -0.03,-0.48 -0.35,1.04 2.03,0.36 0.97,1.12 0.65,1.48 0.62,0.28 -0.57,1.36 1.67,0.84 0.92,-0.12 1,-0.96 3.13,0.76 0.57,0.6 0.46,1.88 0.59,1 1.27,-0.44 1.59,0.32 1.89,-0.36 1.27,0.44 -0.73,1 0.38,0.32 -0.35,0.96 0.78,-0.16 0.86,0.56 -0.54,1.19 -1.54,-0.2 -1.11,0.52 0.62,-1.24 -0.78,-0.68 -0.54,0.6 -0.62,-0.84 -0.59,0.88 -1.19,-0.16 -0.24,0.32 0.16,0.36 1.35,0.2 0.48,0.88 -0.32,1 -1.16,0.8 -0.11,0.8 -0.27,0.04 -0.38,0.88 0.32,0.52 -0.16,0.32 1.97,0.28 2.38,1.84 1.73,3.24 0.49,1.6 0.22,3.68 0,0 -0.65,0.4 -1.32,-0.76 -0.7,0 -1.16,0.92 -0.69,1.3 -2.56,-0.52 -0.7,-0.76 2.32,-2.83 -3.64,-1.72 -0.94,-2.4 -1.81,-1.48 -1.29,-0.16 -2.19,-1.12 -2.53,0.32 -1.05,-0.6 -2.94,1.52 0,0 -0.13,-2.64 0.94,-3.36 0.95,-1 1.43,0.08 0.76,-0.88 -0.78,-1.08 -2.24,-0.16 0,-2.04 -1.59,-1.2 -2.02,0.24 -4.13,-0.96 -0.11,-0.64 0.97,-2.16 -0.7,-1.8 0.38,-0.48 0.78,0.16 0.7,-1.44 0.92,0.32 0.78,-1.44 1.86,-1.2 0.62,-0.12 1.65,0.72 -0.49,-3.04 2.86,-1.2 0.32,-0.04 0.22,0.44 -0.03,2.44 0.59,0.44 -0.24,0.7 z" 
                fill="rgb(151, 144, 238)" 
                stroke="white" 
                stroke-width=".7px"
                title="Schaffhausen" 
                id="CH-SH" 
            />
        </svg>