<svg xmlns="http://www.w3.org/2000/svg" viewBox="656.6545299999996 233.41045000000045 166.6800000000004 132.74999999999957" width="166.6800000000004" height="132.74999999999957">
            <path 
                d="m 770.10453,234.37045 4.37,3.84 3.1,0.91 2.72,0.12 25.21,-3.96 4.13,0.75 4.13,-0.4 0.67,0.79 5.48,12.52 3.42,3.76 0,0 -3.34,4.07 -4.1,6.69 -1.08,2.61 -1.73,1.54 0.43,0.71 -0.24,0.63 0.27,1.11 -0.84,2.37 -0.13,1.31 0.67,0.79 1.11,0.47 0.35,1.15 -0.67,1.03 -0.41,1.5 0.38,1.66 -2.86,1.5 -0.78,1.07 -0.9,2.17 1.11,0.95 4.56,1.54 -2.21,2.09 -0.46,2.33 -0.86,1.31 -0.79,0.43 -0.27,1.03 -1.18,1.42 -1.11,2.57 -0.24,3.08 -2.24,0.87 -0.7,1.22 -0.78,0.59 -3.32,1.7 -1.14,0.24 -0.73,-0.24 -0.35,-0.59 -3.21,0.59 -0.56,0.99 0.08,1.5 0.64,0.94 0,0.95 -2.02,0.67 -0.35,0.67 -0.46,0.08 0.54,0.99 1.67,0.23 2.49,1.27 0.4,3.11 1.22,0.91 0.78,2.13 0.48,0.55 0.35,-0.43 1.73,1.42 0.67,1.93 1.35,1.97 1.16,-0.35 -0.18,1.22 -2.27,0.87 3.61,6.03 1.08,-0.91 -0.24,0.6 2.48,2.36 3.54,0.95 -2.24,2.09 -0.32,2.71 -1.03,1.74 -0.49,1.93 0.57,1.46 -0.24,0.23 0.48,0.87 0.87,0.32 0.4,0.55 0.08,0.82 -0.29,0.48 -2.19,0.15 -0.97,0.4 -0.73,-0.12 -1.46,1.34 -0.59,-0.08 -0.43,0.59 -0.41,-0.12 -0.67,0.44 0,0 -1.46,1.06 -1.83,0.67 -2.19,1.73 -0.97,0.08 -0.43,0.98 -2.08,0.16 -1.67,1.5 -0.14,0.67 -2.4,0.08 -0.89,0.63 -0.65,1.06 -1.81,1.26 -0.99,0.27 -2.62,-0.23 0,1.22 -0.3,0.47 -1.24,0.75 -0.32,1.14 -0.41,-0.08 -1.21,-2.04 0.32,-3.63 -0.3,-1.81 0.35,-1.89 -0.29,-1.53 -0.33,-0.08 -1.7,1.89 -1.16,0.39 -2.42,-4.76 0.1,-0.95 0.49,-0.75 -0.3,-0.63 0.19,-1.53 -0.59,-2.33 -0.78,0.04 -1.25,-0.86 -1.51,-0.44 -0.89,-1.1 -3.8,1.97 -1.25,2.17 -1.07,0.07 -2.65,-0.9 -1.02,-2.33 -0.46,-0.71 -0.54,-0.23 -5.37,2.72 -0.46,0.11 -1.16,-0.55 -0.19,1.03 -0.86,0.08 -0.33,0.35 -0.62,-0.16 -0.3,0.67 -1.51,0.87 -0.54,-0.04 0,0.43 -0.97,0.48 -1.97,2.87 -0.56,0.36 -1.08,-0.2 -1,0.51 -0.59,-1.1 -1.68,-1.34 -0.7,-2.21 0.92,-1.49 -0.11,-1.15 -0.75,-1.57 -0.06,-1.11 -1.05,-1.97 -2.32,0.56 -1.51,-0.12 -2.65,0.75 -0.97,-0.56 -1.59,-0.35 -0.73,0.16 -3.13,-1.26 -4.7,-0.48 -1.27,-1.1 -0.32,0.59 -4.42,0.2 -0.33,-0.55 0.03,-5.68 -0.65,-2.88 0.78,-3.03 -0.35,-1.66 -0.54,-0.59 -4.69,-1.93 -3.24,1.22 0,0 -7.56,4.34 -6.47,0 -6.53,1.18 -8.02,-2.96 0.68,-5.12 0,0 1.67,0.55 1.86,-0.44 3.13,-1.34 1.76,-0.39 0.91,-1.03 1.16,-0.47 0.63,-0.55 0.72,-2.25 0.17,-3.59 -0.65,-0.67 -1.11,-0.52 -1.54,-0.15 -1.18,-1.58 -1.86,-1.42 -5.24,-5.69 -1.94,-0.9 -3.51,-3.04 -1.7,-0.91 0.4,-0.64 -1.43,-1.14 -1.72,-0.16 -0.84,-0.63 -8.2,2.37 -2.73,-0.55 -0.22,-1.7 -0.05,-1.98 1.54,-0.9 0.54,-0.75 2.54,-1.9 0.56,-1.03 0.16,-1.07 0.41,-0.35 -0.41,-1.34 0.06,-1.54 2.48,-3.05 6.56,-4.27 1.27,0.24 0.62,-1.5 0.7,0.08 0,0 1.02,0.47 0,0 0.22,0.36 0.65,-0.28 0.1,0.55 0.44,-0.23 0.7,0.55 1.64,-0.75 0.49,0.36 0.35,-0.16 0.43,0.27 0.49,2.14 4.4,2.29 0,0 8.12,4.55 0.59,-1.27 1.51,0 3.73,-0.87 4.72,-0.04 0.54,2.85 -0.51,1.54 0.92,0.47 1.99,-0.39 0.92,-0.68 3.02,-0.78 0.65,-0.32 0.16,-0.63 0.81,-0.87 0.51,-0.28 0.6,0.28 2.45,-0.56 0.52,-1.02 0.94,-0.16 4.72,0.55 2.86,0 1.57,-0.91 0.4,-1.7 2.16,-2.92 1.46,-1.19 0.13,-1.54 3.43,-0.47 2.24,-3.28 1.62,-3.96 0,-0.83 -0.51,-0.43 -0.33,-0.87 0.22,-0.95 1.43,-2.02 1.4,-0.99 1.49,-0.55 -0.52,-0.67 -0.19,-2.38 -0.37,-0.27 -0.16,-1.15 -1.08,-0.52 0,0 -0.3,-2.13 -2.08,-1.63 -0.86,-2.49 0.4,-0.83 0,-1.15 1.46,-1.3 1.92,-3.25 1.18,-0.24 1.03,-0.59 0.3,-1.59 3.83,-0.59 6.18,-3.05 13.81,-4.2 0.49,-0.12 z" 
                fill="rgb(151, 144, 238)" 
                stroke="white" 
                stroke-width=".7px"
                title="Schwyz" 
                id="CH-SZ" 
            />
        </svg>