<svg xmlns="http://www.w3.org/2000/svg" viewBox="373.87452999999977 122.41044999999998 186.17000000000024 169.84000000000003" width="186.17000000000024" height="169.84000000000003">
            <path 
                d="m 468.81453,256.46045 0.62,0.71 1.38,0.08 -0.97,1.66 -0.54,-0.12 -0.86,0.99 -0.35,0.95 -2.59,-0.4 -1.35,0.32 -0.27,-0.44 1.32,-3.4 0.54,0.32 2.02,-1.7 0.68,0.2 0.37,0.83 z m -73.34,-111.72 0.81,0.76 0.43,0.04 1.67,-0.2 1.54,-0.76 3.48,3.94 0.65,2.03 0.78,1.11 -1.35,2.67 -0.3,1.87 -0.81,0.83 -2.35,0.48 -2.75,-0.64 -2.16,1.59 -5.02,-0.44 -3.59,-0.95 -1.02,0.24 0,0 -2.29,-0.28 0,0 0.92,-2.46 0.57,-4.18 0,0 1.38,-0.16 1.67,-0.95 2.91,-0.44 0.19,-1.19 4.64,-2.91 z m 146.23,8.91 -0.81,-0.44 -2.51,-3.1 0.38,-0.6 -1.19,-3.86 0.27,-1.23 0.62,-0.16 2.11,-2.58 0.05,-0.56 -0.59,-0.6 0,0 1.21,0 0.22,-1.35 1.73,-1.47 2,1.63 0.35,1.75 -0.32,0.76 1.35,1.31 1,2.39 -0.13,1.87 0.78,2.19 -0.35,0.48 0.65,0.72 -0.49,2.74 -0.4,0 -0.19,-2.19 -0.32,-0.04 -5.42,2.34 z m 0,0 2.92,1.35 2.19,2.19 0.89,-0.24 1.43,0.2 0.46,0.99 1.22,0.52 3.43,0.36 1.48,1.91 -0.19,3.42 1.7,0.8 0.08,-0.68 1.65,0.08 1,3.97 0.08,1.43 -0.78,2.46 0.19,0.99 -0.35,1.91 -0.24,0 -0.59,1.43 -0.94,0.32 -1,1.47 -1.54,1.47 0.54,0.87 -0.35,1.98 -2,1.71 0.03,0.91 0.67,1.59 -0.38,0.95 -2.54,1.39 -1.35,0.24 -0.81,1.51 -0.65,0.56 -0.32,-0.28 -0.51,0.24 -1.83,1.27 -0.51,0.99 -6.5,1.98 -0.75,-0.79 0.46,-4.37 -0.24,-0.91 -7.53,-0.64 -3.43,-3.53 0.08,1.39 -1.08,1.31 -1.81,3.29 0,3.34 -1.59,1.63 -0.54,1.59 -0.75,0.12 -2.19,-0.44 -1.59,0.32 -0.78,0.79 -1.94,0.95 -2.43,6.03 -2.16,3.69 -0.3,2.06 -0.67,1.31 -2.4,2.5 -1.46,0.48 0,0 -2.27,1.59 -1.08,0.4 -2.1,-0.87 -0.51,-1.9 -0.7,-0.04 -0.62,0.32 -1.73,2.46 -2.16,2.1 -0.46,-0.67 -2.13,-1.47 -0.43,-2.54 -2.54,0.4 -1.67,2.85 -0.62,0.28 -1.24,-0.24 -2.19,0.83 -1.35,-0.99 -1.67,0.2 -2.08,-2.77 0.11,-1.15 -2.72,-3.09 -0.65,0.87 -0.76,-0.63 0.22,-0.52 -0.54,-0.36 -0.11,-0.75 -1.05,-0.67 -0.94,-1.79 -3.29,-1.43 -1.19,-1.47 -1.81,1.71 -2.08,0.75 -0.51,-0.4 -1.75,0.6 -2.4,1.71 -2.64,0.52 -7.02,0.12 -9.39,1.86 -0.59,0.4 1.89,2.54 1.78,1.35 1.08,4.68 -0.54,3.33 0.81,0.32 0.94,1.19 0.73,0.12 0.32,0.99 0.7,-0.12 0.05,0.44 1.27,0.75 0.32,0.79 0.76,0.28 -0.46,0.52 0.65,0.48 0.16,0.99 1.48,-0.36 0.35,1.35 0.86,-0.91 0.41,0.83 0.92,-0.87 0.41,0.79 1.3,-0.99 0.86,1.78 -1,0.71 0.27,0.56 1.35,0.87 0.65,-0.04 -0.49,1.7 1.3,3.37 -0.78,1.94 2.51,0.36 1.13,-0.2 0.54,1.31 0.35,-0.12 0.32,0.79 0.38,-0.04 0.57,0.75 0.43,-0.2 -0.03,0.67 0.92,1.23 -0.3,0.83 -0.48,0.32 -0.08,1.31 0.65,-0.32 1,0.79 -0.22,1.98 -0.73,0.91 -0.22,2.73 -2.1,-0.2 -1.38,0.44 -0.24,-0.2 -2.05,2.65 0.38,0.28 -0.73,1.7 0.35,0.44 0.16,1.38 -0.22,0.79 -1.62,0.48 -0.43,0 -0.84,-0.91 -0.27,-0.83 -1.27,0.4 -0.22,-0.55 -0.62,0.4 -0.27,-0.43 -0.73,0.55 -1.19,0.04 -2.1,-1.54 -0.54,0.79 -2.08,0.71 -2.32,0.44 -0.97,-0.32 -1.13,0.28 -0.73,0.63 -0.43,0.91 -0.78,-3.05 -0.89,-1.94 -1.16,-1.35 -1.48,0.48 -0.62,-0.2 -1.32,-1.94 -1.02,0.04 -3.43,2.97 -0.59,0.12 -0.78,-1.27 -1.67,0.36 -0.13,-0.63 -3.02,1.27 -0.81,0.87 0.46,0.16 0.78,1.82 0.94,0.91 0.27,1.31 -1.02,0.36 -0.43,0.55 -0.05,1.42 -1.03,0.59 -0.97,1.54 -0.62,1.42 0.03,1.23 -0.89,1.58 -1.51,1.38 -1.65,0.48 -2.13,1.9 -7.99,3.44 0.08,1.74 0.73,2.02 0.76,1.62 1.97,2.61 0.27,0.63 -0.16,0.48 -0.89,0.28 -0.97,2.09 -2.56,0.51 -0.67,1.11 -0.38,0.08 -0.32,-0.43 -3.24,0.63 -0.13,-0.87 -0.97,-0.59 -0.57,-0.87 -0.22,-2.29 -0.4,-0.51 0.81,-3 -0.78,-2.17 -2.67,1.11 -0.19,-0.47 -0.51,0.12 -0.05,-0.24 -2.43,1.54 -5.77,1.34 -0.22,-1.3 -1.21,-0.43 -0.24,0.24 -0.46,-0.16 -0.05,-1.34 -0.84,-2.73 -0.81,-0.95 -0.43,-1.46 -0.51,-0.2 -0.73,-1.19 0.49,-1.03 -0.24,-1.11 0.38,-0.35 0.51,0.2 0.22,-0.51 1.13,-0.4 0.24,0.48 0.65,0.04 1.05,-1.11 0.76,1.03 0.4,1.27 1.4,-0.79 2.35,1.5 2.94,-1.46 1.02,-0.04 0.11,0.32 0.78,-0.2 1.73,-1.07 1.78,0.16 0.57,0.44 0.46,-0.24 0.14,-0.51 -1.89,-1.23 0.81,-0.24 -0.05,-1.11 -1.43,0.67 -0.16,-0.83 -0.67,0.16 -0.81,-1.42 -0.57,-0.28 1.3,-1.15 -0.24,-0.91 1.92,-1.19 1.81,-0.04 0.22,-0.71 -0.16,-1.98 2.86,-2.1 1.94,0.16 0.65,0.79 0.7,0.04 1.19,0.75 2.27,-0.75 1.05,-0.67 1.46,-1.86 2.16,-1.42 -0.73,-1.07 0.78,-0.43 1.08,-1.27 -2.89,-1.39 -0.57,0.28 -1.51,-0.59 -0.73,-1.23 -0.7,-2.89 0.11,-0.51 0.84,-0.67 -0.3,-1.07 -5.29,0.71 -1.94,-0.24 0.43,2.22 -0.86,1.27 -1.05,0.59 -0.48,-0.16 -0.78,-1.94 -0.46,-0.36 -1.32,0.63 -0.24,0.67 0.24,2.37 -0.49,0.67 -3.1,1.27 -0.7,2.41 -0.97,1.11 -1.08,0.16 -1.46,-0.35 -1.32,0.28 -1.46,0.75 -2.4,0.04 -0.38,-0.63 0.08,-1.46 0.51,-0.24 1.48,0.28 0.35,-0.51 -1.67,-4.23 -1.92,-3.8 -2.94,-1.7 -0.59,-1.7 -1.16,1.03 -1.75,0.59 -2.05,-6.25 -0.59,0.08 -1.13,-4.08 4.59,-1.42 0.43,0.59 0.84,0.16 3.35,-3.13 1.19,-0.28 0.22,-0.32 5.86,-2.46 2.05,-1.98 0.84,-0.4 1.08,0 1.32,-0.99 -0.76,-0.83 -0.48,-1.86 0.24,-1.51 1.57,-0.79 1.13,-0.2 3.29,-2.58 7.53,-1.07 1.81,-2.73 0.38,-1.51 2.75,-3.33 0.46,0.12 2.08,-1.11 0.11,-0.48 2.86,-1.19 0.11,0.32 3.83,-1.47 3.29,-0.2 1.75,-1.55 -0.05,-1.55 2.16,-1.82 -0.16,-0.32 0.59,-3.69 2.59,-2.38 0.84,0.32 2.05,-1.11 0.7,-0.91 0.14,-1.23 -2.45,-3.73 0,-0.67 -0.54,-0.48 -1.05,0 -0.16,-0.83 -1.08,-0.56 0,0 -2.48,-0.87 -1.16,0 -0.43,-1.35 1.22,-1.94 -0.59,-1.59 -1.54,0.04 -0.19,-0.79 -0.75,-0.4 -0.84,0.12 -1.35,-0.79 -0.24,-0.28 0.86,-1.83 -0.11,-0.79 -1.48,-0.2 -5.29,0.24 -3.13,0.87 -2.21,-0.64 -4.21,0.44 -2.21,-0.67 -0.67,-0.91 -1.32,-0.6 -0.76,-1.07 -1.27,-0.71 -1.19,0.79 -0.22,-0.52 0,0 0.62,-0.56 0.43,-2.19 1.11,-1.07 -0.11,-3.1 -0.43,-0.44 0.38,-1.55 1.57,0.72 0.62,-0.68 -0.27,-0.75 1.48,-0.4 1,1.27 0.81,-0.08 0.43,-0.52 0.49,-0.04 1.62,0.91 1.38,-0.2 0.62,4.41 0.46,0.36 1.05,-0.12 0.16,0.76 1.86,0.87 2.81,0.24 1.81,-1.67 0.73,-0.28 1.97,0.44 1.92,-3.85 1.38,-2.07 -0.05,-1.03 -1.43,-2.35 2,-0.72 4.37,-0.44 4.83,0.32 3.54,-0.52 -0.4,-0.95 -0.7,-0.64 -1.46,-0.28 -0.59,-0.75 -0.16,-1.99 0.51,-1.83 -0.4,-2.31 1.86,0.04 0.76,0.6 0.03,1.03 0.57,0.12 -0.38,0.84 1,0.52 0.76,0 1.94,-1.55 2.7,0.48 3.27,-0.83 0.27,0.28 0.3,-4.73 1.48,-3.98 -0.03,-1.79 0.51,-1.59 -1.27,-1.79 -0.65,-0.04 -1.02,-0.64 -2.37,-0.24 1.08,-1.95 -0.32,-0.12 0.49,-2.47 -0.43,-3.1 1.51,-0.04 3.21,1.43 0.86,0.72 1.19,-0.08 2.21,0.76 0.46,-0.16 0.57,-0.96 1,0.28 1.43,-0.48 0.7,-0.56 -1.22,-0.4 1.13,-0.76 -1.86,-0.6 0.73,-1.27 0.78,-0.36 1.24,0.36 0.62,-0.48 1.38,-0.24 -0.32,1.79 0.59,1.83 0.73,0.96 2.56,0.36 3.37,1.2 1.11,-0.12 1.35,0.84 0.94,1.51 0.78,0.56 0.49,1.35 -2.59,4.1 0.24,1.35 -0.43,0.96 -1.7,0 -1.73,1.87 -0.78,2.71 -0.08,1.39 0.84,2.27 -1.62,5.81 -0.54,0.64 -3.37,2.58 -0.92,0.4 -1,0.24 -6.99,-0.28 1.11,9.62 -1.08,0.36 0.14,1.03 0.59,0.83 1.65,0.04 -0.16,0.68 0.57,1.23 0.22,3.38 15.03,-2.06 5.24,0.72 2.56,0.83 1.56,4.25 2.13,3.1 3.1,2.62 4.24,0.75 -0.08,1.11 1.24,0.16 1.78,-0.4 1.38,0.32 2.46,-1.47 0.08,-2.06 1,-3.61 1.46,-2.11 6.67,-1.03 0.65,-0.32 2.4,-3.73 3.29,-1.55 2,-0.6 0.86,-0.71 1.75,0.16 1.56,-1.11 1,0.2 0.22,-0.99 -0.65,-1.59 -0.76,0.04 -0.7,-0.4 -0.57,-1.91 1.54,-0.79 0.57,-1.23 0.43,-0.28 0.57,0.32 0.54,-0.16 0.06,-1.87 0.81,-0.52 1.05,0.2 2.7,2.35 0.68,-0.48 0.46,0.04 1.24,1.31 3.05,-1.39 1,0 3.48,-2.07 -0.57,-1.79 4.02,-1.91 1.4,0.28 0.38,-2.03 1.11,-0.12 0.25,-0.64 z m -122.49,-31.24 0.92,0.12 0.22,1 1.35,0.6 3.89,-0.16 0.3,2.55 1,0.04 -0.24,2.47 0.3,0.12 -0.94,2.67 -1.11,0.16 -0.54,1.43 0.84,5.01 -3.86,0.28 -2.05,0.84 -2.81,-0.52 -2.16,0.48 -2.59,1.27 -2.81,0.48 -3.45,1.87 -0.7,0 -3.29,-4.61 0,0 3.24,-3.7 0.14,-1.07 -1.21,-0.6 -0.62,0.04 -0.22,0.48 -1.4,-1.99 -0.59,0.24 -1.32,-1.03 -0.54,0.24 -1.11,-1 -2.45,0.96 0.84,-2.07 1.59,-2.47 0.38,-1.35 1,-0.99 3.21,1.87 1.3,1.12 1.54,0.68 1.48,0.12 2.08,2.83 1.13,0.44 1.11,-0.08 2.62,-0.84 0.94,-0.92 0.3,-1.03 2.37,-1.59 -0.13,-0.72 0.38,-0.44 1.89,-0.96 0.35,-0.6 -0.57,-1.67 z" 
                fill="rgb(151, 144, 238)" 
                stroke="white" 
                stroke-width=".7px"
                title="Solothurn" 
                id="CH-SO" 
            />
        </svg>