<svg xmlns="http://www.w3.org/2000/svg" viewBox="655.1545300000009 465.85044999999985 209.86999999999932 316.9700000000004" width="209.86999999999932" height="316.9700000000004">
            <path 
                d="m 734.83453,486.37045 0.59,0.24 1,-0.74 1.32,-0.12 1.14,0.31 1.16,-0.47 0.4,0.51 1.08,0.35 0.54,1.96 2.83,1.14 1.7,-0.47 0.38,-0.98 1.13,-0.82 3.1,1.84 1.22,0 1.3,-1.33 0.84,-0.08 1.84,0.94 1.38,-0.43 9.85,4.15 0.78,0.04 7.12,-2.86 0.14,2.15 0.35,0.23 0.35,1.06 1.08,-0.47 2.21,-0.08 2.89,-2.39 1.05,0.04 1.13,-1.13 3.51,-0.55 0.94,-1.29 2.19,-0.63 1.46,-1.13 2.7,-0.78 1.94,-1.64 1.3,-1.6 0.22,-1.6 -0.11,-0.7 -2.4,-2.82 -0.43,-2.23 0.22,-1.45 0.24,-0.31 0.78,-0.12 0.81,-1.25 1.68,-0.31 0.27,-0.78 0.78,-0.43 0.78,0.78 0.78,-0.12 3.54,1.18 2.27,-2.12 0.08,-2.23 0.65,-0.98 1.19,0.94 1.38,4.27 -0.78,3.09 0.7,3.21 1,-0.39 1.7,0.51 1.03,-0.47 0.54,-0.82 1.54,-1.21 3.18,-1.13 2.48,0.12 2.08,1.72 1,1.53 0.78,0 1.78,0.74 0.24,0.82 2,-0.31 0.24,2.94 1.89,1.06 0.4,0.98 -0.38,0.7 0.19,0.55 -1.73,1.17 -0.19,2.27 -1.59,1.72 -0.78,1.76 0.08,1.68 -0.76,1.37 0.3,1.21 -1.4,2.7 0.73,4.26 -0.27,1.29 -1.16,0.82 -0.03,0.59 0.06,0.74 1.62,3.6 -0.24,0.74 0.24,2.93 1.32,2.46 1.75,1.29 0.73,1.21 0.7,1.6 -0.35,0.66 0.35,0.63 1.86,1.21 0.32,0.78 -0.16,1.91 0.51,0.43 0.54,0.04 0.86,0.9 1.51,0.27 3.45,-1.41 1.13,0.7 1.43,0.31 0.62,0.74 0.62,1.21 0.27,1.64 0.59,0.47 1.35,2.54 -0.97,3.4 0,1.33 -1.13,1.68 0.54,2.26 0.03,2.26 2.08,4.45 1.11,1.44 0.51,2.34 -3.05,1.68 -0.54,0.78 1.65,2.19 -1.24,1.68 -0.92,2.85 1,1.95 1.05,3.9 -0.59,0.66 0.14,4.05 -0.3,1.36 -1.13,1.87 0.03,1.48 -1.78,0.08 -2.99,1.95 -1.08,2.81 0.67,1.68 -1.37,2.3 0.19,0.74 0.97,0.74 1.38,1.95 0.46,1.71 -1.1,2.06 -0.81,0.31 -1.94,3.66 -1.59,0.9 -0.32,0.58 0,1.05 0.48,0.74 0.76,3.04 1.16,1.79 0.24,1.44 1.97,1.71 1.56,2.96 -0.08,8.71 2.86,9.45 0.7,0.78 5.67,2.72 1.56,1.24 3.97,4.86 0.35,1.67 1.16,2.02 1.62,0.97 2.91,2.76 1.78,0.23 0,0 -0.78,0.58 -1.59,2.64 -2.59,1.09 -1.51,1.44 -0.95,0.47 -2.19,2.91 -2.19,4.08 -1.94,0.39 -2.64,1.63 -1.19,1.32 -1.02,0.19 -5.96,2.83 -0.05,1.71 1.51,3.06 2.75,7.88 -0.16,0.89 -2.78,4.58 0.05,2.13 -0.35,1.13 -4.69,1.43 -1.86,-0.62 -0.84,0.08 -4.61,3.1 -3.83,1.59 -0.48,0.74 -0.27,2.21 -2.1,2.56 0.11,3.45 2.56,2.83 1.27,2.21 0.46,4.53 1.02,1.9 0.54,2.28 -0.21,0.47 -0.89,0 -1.38,1.16 -1.89,0 -0.35,2.09 -1.02,1.12 -2.94,-0.08 -0.19,0.58 0.46,2.83 -0.27,0.15 -0.68,-0.5 -0.54,0.08 -0.03,1.2 4.72,2.13 1.7,1.55 0.14,2.86 -0.54,3.48 0.16,0.54 1.16,0.35 1.02,1.04 -0.7,2.94 0.11,0.66 1.89,0.04 2.48,0.54 1.86,-0.12 2.11,2.09 2.48,0.27 0.16,0.31 -0.49,1.24 1.73,1.2 0.86,1.08 1.43,-0.66 0.59,0.19 0.27,0.93 -0.22,4.14 2.89,-1.16 1,1.7 -1.19,0.7 -0.43,1.04 -0.68,0.66 -0.59,-0.35 -0.54,0.15 0.7,1.12 -0.38,0.89 -3.59,4.44 -0.89,0.46 -1.64,-0.12 -0.97,2.05 -0.54,0.39 0.16,0.54 -0.49,0.81 -0.24,1.66 0.73,2.24 -2.24,3.48 -1.4,1.35 -0.22,1.39 0.35,1 -0.05,0.93 -1.62,2.59 0.35,1.2 0.86,1.35 0,0.62 -2.05,0.19 -1.78,-0.54 -1.29,0.46 -1.32,-0.08 -1.94,-1.39 -2.13,1.2 -1.83,-0.15 -0.27,-1.31 1.89,-2.01 0.4,-1.27 -0.24,-0.69 -1.51,-0.58 -0.68,-0.85 -0.86,0.27 -0.65,-0.81 -0.49,0.12 -0.89,1.08 -0.73,0.35 -3.54,-0.5 -0.21,-0.31 0.3,-0.81 -0.13,-0.89 -0.43,-0.58 -1,0.19 -0.21,-0.77 -0.54,0.35 -0.65,-0.5 -1.13,0 -1.56,0.5 -2.43,1.04 -1.27,1.55 -2.08,0.5 -2.51,1.2 -0.03,-3.82 0.76,-1.54 3.4,-4.05 0.46,-1.58 1.7,-1 1.19,-0.08 1.59,-1.24 0.08,-0.58 -0.32,-0.66 -0.43,-0.19 -0.46,0.12 -0.16,0.77 -0.46,0.39 -0.92,-0.85 -0.29,-1.04 0.32,-1.27 -0.27,-0.58 -0.62,-0.04 0.38,-1.55 -0.92,-3.48 -1.02,-1.55 -1.48,-0.5 0.16,-1.31 0.7,-1.35 -0.19,-1.55 -4.43,-8.23 -2.56,-2.78 0,-1.74 1.16,-3.36 -0.22,-1.31 -1.16,-2.4 -1.43,-0.85 -3.72,-0.08 -2.29,-0.81 -2.21,-2.59 -3.1,-2.28 -2.56,-4.18 -1.27,-0.66 -1.05,-1.01 -2.89,0.04 -1.84,-1.05 -5.48,-0.58 -0.59,0.27 -0.92,1.32 -0.81,-0.12 -0.22,-0.58 1.7,-5.58 2.54,-4.49 1.62,-1.86 3.81,-1.9 1.16,-1.4 0.22,-0.97 0.81,-0.54 -0.08,-0.97 0.81,-1.01 -0.54,-0.89 1.21,0.04 0.59,-0.54 -0.08,-0.85 -0.51,0.19 -0.89,-0.93 0.7,-1.67 0.32,-0.23 2.7,1.09 2.51,-4.19 0.22,-0.97 -0.35,-4.88 -1.65,-0.43 -1.56,-1.71 -1.43,-0.58 -3.18,-3.3 -0.35,-1.28 -1.38,-0.66 -2.86,-2.21 -0.59,0 -0.92,1.44 -1,0.78 -3.99,0.51 -3.61,-2.37 -2.99,-1.05 -0.49,-1.05 -0.51,-0.08 -0.51,-0.7 -2.94,-5.55 -0.32,-0.04 -3.91,3.73 -2.1,3.3 -3.59,0.08 -3.56,0.66 -1.97,-0.31 -0.94,-1.09 -0.46,-1.63 -1.08,-0.19 -1.92,0.5 -2.99,-1.67 -1.43,-2.4 -1.29,-1.4 -8.39,0.7 -0.92,-0.23 -0.57,-1.12 -0.46,-3.18 -3.21,-3.1 0.14,-1.71 1.43,-1.83 0.08,-2.06 -0.54,-0.35 -1.37,0.16 -1.48,-0.47 -0.62,-0.62 -0.51,-1.4 -0.76,-0.08 -1.24,0.54 -1.27,-1.13 -1.27,-5.17 -1.48,-2.72 -2.08,-0.58 -0.65,-2.21 -3.4,-2.18 -0.78,-1.13 -1.94,-7 -1.24,-0.7 -3.72,-0.27 -1.97,-1.48 -3.16,-1.67 -2.27,-0.5 -2.16,-0.08 -1.54,-0.58 -1.32,-1.05 -0.43,-3.07 -0.54,-0.74 -2.21,-1.09 -2.75,-0.5 -0.65,-1.67 0.38,-1.17 1.65,-1.98 1.81,-1.21 0.08,-0.39 -1.65,-2.88 -4.24,-5.64 -0.7,-2.18 -1.32,-2.41 0.76,-1.05 2.19,-0.97 1.35,-5.92 3.08,-1.09 0.48,-1.64 1.89,-1.4 0.62,-1.71 0.16,-1.87 -0.68,-6.12 0.46,-1.21 1.38,-1.64 0.14,-0.66 -0.67,-1.36 -0.43,-5.3 -1.13,-2.88 0.08,-0.47 2.32,-2.34 0.19,-0.74 -2.16,-3.04 1.24,-1.99 0.08,-1.25 -2.91,-3.55 -0.08,-1.21 1.02,-1.33 -1.16,-2.18 0.4,-0.66 2.62,-2.22 0.32,-0.9 -0.57,-0.94 -1.22,-0.31 -0.62,-2.03 -1.4,-0.7 -0.65,-0.78 -0.05,-0.9 -0.73,-1.64 -1.97,-0.94 -1.32,0 -5.15,1.8 -2.51,0.27 -1.57,1.13 -0.3,0.98 -1.16,-0.59 -0.75,-0.04 -0.43,1.41 -0.7,-0.12 -0.54,-1.01 -0.24,0.78 -0.54,0.16 0,0 -0.57,-3.04 0.95,-0.74 0.03,-1.52 0.51,-0.47 0.86,-0.12 0.32,-0.47 -0.11,-0.35 -0.62,-0.19 -0.11,-1.01 -0.68,-1.13 1.35,-2.89 0.73,-0.27 0.22,-0.43 -0.73,-3.09 1.21,-0.31 1.05,0.27 2.24,-0.08 1.35,-0.74 1.38,0.74 2.21,-0.86 1.08,-0.78 0.97,-0.04 2.1,0.55 0.54,-0.59 0.48,-1.95 1.57,-2.42 0.89,0 0.86,-0.86 2.24,-3.44 1.89,-1.99 1.02,-0.39 -0.13,-0.9 0,0 1.67,-1.96 1.59,-0.27 1.43,-0.66 2.83,-0.31 2.46,-1.33 1.27,-0.04 -0.21,-2.15 -1.05,-2.62 0.19,-1.92 -0.57,-1.29 1.38,-2.58 0.54,-0.43 -0.03,-2.86 0.48,-0.55 -0.11,-1.06 0.84,-0.35 0.43,-1.29 1.35,-1.06 1.16,0.04 0.95,-1.1 1.59,1.06 0.78,0.98 4.45,0.12 2.16,-0.98 0.38,0.08 0.97,0.98 0.49,-0.04 0.65,1.6 0.86,0.12 1.54,1.14 5.67,-0.43 0.95,-1.06 1.59,0.16 0.89,0.47 0.86,0.98 0.22,1.49 0.7,1.49 1.57,0.7 1.24,0.04 2.48,-0.94 2,-1.45 0.48,-0.98 1.24,-0.55 0,-0.31 2.27,-1.17 1.38,-0.36 z m 79.44,240.25 0.73,-3.71 -0.65,-1.55 0.03,-2.48 -2.65,-0.85 -2.05,7.51 2.81,1.24 1.4,0.08 0.38,-0.24 z" 
                fill="rgb(151, 144, 238)" 
                stroke="white" 
                stroke-width=".7px"
                title="Ticino" 
                id="CH-TI" 
            />
        </svg>