<svg xmlns="http://www.w3.org/2000/svg" viewBox="659.2445299999993 323.77045 150.90000000000077 183.0999999999999" width="150.90000000000077" height="183.0999999999999">
            <path 
                d="m 706.06453,324.99045 3.24,-1.22 4.69,1.93 0.54,0.59 0.35,1.66 -0.78,3.03 0.65,2.88 -0.03,5.68 0.33,0.55 4.42,-0.2 0.32,-0.59 1.27,1.1 4.7,0.48 3.13,1.26 0.73,-0.16 1.59,0.35 0.97,0.56 2.65,-0.75 1.51,0.12 2.32,-0.56 1.05,1.97 0.06,1.11 0.75,1.57 0.11,1.15 -0.92,1.49 0.7,2.21 1.68,1.34 0.59,1.1 1,-0.51 1.08,0.2 0.56,-0.36 1.97,-2.87 0.97,-0.48 0,-0.43 0.54,0.04 1.51,-0.87 0.3,-0.67 0.62,0.16 0.33,-0.35 0.86,-0.08 0.19,-1.03 1.16,0.55 0.46,-0.11 5.37,-2.72 0.54,0.23 0.46,0.71 1.02,2.33 2.65,0.9 1.07,-0.07 1.25,-2.17 3.8,-1.97 0.89,1.1 1.51,0.44 1.25,0.86 0.78,-0.04 0.59,2.33 -0.19,1.53 0.3,0.63 -0.49,0.75 -0.1,0.95 2.42,4.76 1.16,-0.39 1.7,-1.89 0.33,0.08 0.29,1.53 -0.35,1.89 0.3,1.81 -0.32,3.63 1.21,2.04 0.41,0.08 0.32,-1.14 1.24,-0.75 0.3,-0.47 0,-1.22 2.62,0.23 0.99,-0.27 1.81,-1.26 0.65,-1.06 0.89,-0.63 2.4,-0.08 0.14,-0.67 1.67,-1.5 2.08,-0.16 0.43,-0.98 0.97,-0.08 2.19,-1.73 1.83,-0.67 1.46,-1.06 0,0 2.24,5.43 1.27,1.73 0.83,0 0.46,0.36 -0.16,0.71 1.27,4.17 0.16,3.5 -0.3,1.22 -0.29,0.59 -0.87,0.51 -3.02,1.3 -0.81,0.91 -0.62,0.23 -0.57,0.91 -0.16,-0.28 -4.48,2.21 -2.51,0.04 -3.51,4.52 -0.99,0.04 -5.02,2.67 0.65,2.71 1.24,1.3 0.62,1.58 -0.27,2.9 -1.24,1.93 0.4,1.02 0,0 -1.16,1.93 -0.92,0.51 -2.78,0.55 -1.62,2 -1.67,0.87 -0.11,1.41 -0.37,0.36 -2.95,-0.63 -1.64,1.37 -0.51,1.46 0.54,2 -0.11,1.61 0.7,3.06 0.94,1.69 -0.81,0.95 -1.53,-0.75 -1.06,1.1 -0.75,0.31 -0.11,1.85 -0.51,0.12 -0.43,0.63 -0.38,1.37 0.19,0.71 -0.97,2.12 0.62,3.21 -3.54,2.05 -1.75,0.15 -3,1.26 -0.35,-0.86 -1.11,-1.03 -0.94,-2.55 -0.24,-0.23 -0.84,0.12 -0.19,-1.89 -1.08,0.04 -1.89,1.02 -1.08,1.3 -1.4,0.98 -1.19,2.71 1.43,2.86 -0.62,1.61 -1.59,1.14 -1.59,0.66 -2.03,2.2 -2.69,0.47 -0.09,1.22 -0.29,0.39 -1.73,0.74 -0.24,0.44 -2.19,-1.69 -1.32,0.12 -0.92,0.31 -0.89,2.43 -0.7,0.63 -2.56,-0.12 -0.68,0.75 -0.24,0.78 0.27,2.24 -0.46,1.06 0.43,1.29 -0.24,3.06 0.76,0.9 0.53,1.53 -0.86,0.78 -0.78,1.34 -1.62,1.33 -1.35,0.08 -1.83,2.43 1.05,0.98 -0.6,1.45 0.11,1.01 -1.08,0.83 -0.29,1.72 1.26,0.94 0.73,2.59 1.43,0.86 0.06,0.66 1.05,0.59 2.27,0.04 0.51,1.45 -0.19,2.51 0.43,1.44 -0.48,1.14 -0.17,1.92 0.54,0.59 0.68,3.01 -0.78,3.91 0,0 -1.43,0.2 -2.27,1.17 0,0.32 -1.24,0.54 -0.49,0.98 -1.99,1.45 -2.49,0.94 -1.24,-0.04 -1.56,-0.7 -0.71,-1.49 -0.21,-1.49 -0.86,-0.98 -0.89,-0.47 -1.6,-0.15 -0.94,1.05 -5.67,0.43 -1.54,-1.13 -0.86,-0.12 -0.65,-1.6 -0.48,0.04 -0.97,-0.98 -0.38,-0.08 -2.16,0.98 -4.45,-0.12 -0.79,-0.98 -1.59,-1.05 -0.94,1.09 -1.16,-0.04 -1.35,1.06 -0.44,1.29 -0.83,0.35 0.11,1.06 -0.49,0.55 0.03,2.85 -0.54,0.43 -1.38,2.59 0.57,1.29 -0.19,1.91 1.05,2.62 0.22,2.15 -1.27,0.04 -2.46,1.33 -2.83,0.32 -1.43,0.66 -1.59,0.27 -1.67,1.96 0,0 -1.43,-0.74 -0.38,-0.94 -1.41,-1.33 -0.59,-0.2 -0.92,0.79 -0.54,-0.04 -0.4,0.93 -0.46,-0.23 -0.3,-1.09 -1.56,-0.51 -1.92,-1.53 -1.02,0.16 -0.97,-1.21 -1.11,-0.24 -1.21,-2.89 -0.41,-2.04 0.03,-1.76 -0.62,-0.35 -1.33,-4.5 -1.64,-2.15 0,-1.29 -0.6,-0.51 0.06,-0.9 -0.46,-0.55 1.08,-4.15 -0.6,-1.37 0.14,-0.51 1.81,-1.96 0.54,-2.11 -0.19,-0.35 1.32,-2.7 -0.32,-2.16 0.62,-0.78 -0.62,-1.33 -0.33,-2 0.44,-2.55 -0.11,-1.1 0.64,-1.48 -0.51,-0.16 -0.56,-1.02 -2.22,-0.31 0,0 0,0 0,0 -0.7,-5.25 -1.29,-0.79 -0.57,-1.41 -0.92,-1.22 0.49,-2.19 -0.44,-0.94 0.41,-1.84 0,0 0,-1.89 0,0 3.81,0.63 3.91,1.84 1.37,-0.27 1.87,0.55 1.13,-0.63 0.73,0.04 0.92,-0.63 0.56,0 0.73,-4.19 -0.7,-2 0.67,-2.16 -1.91,-1.53 -0.16,-4.67 0.78,-1.73 -2.46,-2.67 0.08,-1.37 -0.27,-0.82 0.84,-1.97 -1.24,-2.12 1,-0.43 0.3,0.24 0.91,-1.93 0.33,-2.12 0,0 2.05,-0.74 0.19,-0.51 0.78,-0.32 0.62,-0.2 0.35,0.4 0.57,-0.67 1.26,0.04 1.25,0.51 1.81,-0.31 2.69,-1.73 -0.64,-3.18 -1.73,-2.52 -1.08,-0.78 0,-0.44 0.97,-1.41 -0.24,-1.65 -2.19,1.14 -1.78,-0.91 -0.43,-1.17 2.24,0.47 1.35,-0.59 1.35,-1.22 0.02,-1.77 -0.86,-1.18 0,-0.71 0.84,-0.66 0.27,-4.56 1.13,-3.07 0.22,-0.55 3.13,-1.06 1,-0.79 0.29,-1.53 0.3,-0.28 -2.19,-2.87 -2.02,-0.16 -3.51,-1.53 -0.54,0.82 -1.35,0.08 0,0 -0.67,-2.28 0.67,-2.63 -0.81,-3.43 0.19,-0.55 1.22,-0.39 0.37,-0.67 0.76,-0.47 0.35,-0.48 -0.14,-0.78 -0.43,-1.54 -0.91,-1.02 -0.14,-0.91 -1.08,-1.33 -0.49,-0.28 -1.61,-0.04 -0.54,-0.35 1.32,-2.05 4.56,-1.85 0.92,-1.54 0.56,-2.52 3.24,-0.04 1.3,1.77 3.56,-1.73 0.73,-0.79 0.19,-0.78 2.07,-0.44 4.7,-1.85 0.65,-2.44 -0.84,-2.25 1.16,0.32 2.65,-0.51 -0.36,-0.75 0.22,-1.81 -0.3,-0.91 -0.43,-5.6 0.84,-0.31 0.91,-1.46 0.38,-2.17 1.73,-1.26 1.38,-2.33 z" 
                fill="rgb(151, 144, 238)" 
                stroke="white" 
                stroke-width=".7px"
                title="Uri" 
                id="CH-UR" 
            />
        </svg>