<svg xmlns="http://www.w3.org/2000/svg" viewBox="219.9845300000001 457.1604499999998 460.92999999999995 309.94000000000034" width="460.92999999999995" height="309.94000000000034">
            <path 
                d="m 662.72453,457.71045 2.22,0.31 0.56,1.02 0.51,0.16 -0.64,1.48 0.11,1.1 -0.44,2.55 0.33,2 0.62,1.33 -0.62,0.78 0.32,2.16 -1.32,2.7 0.19,0.35 -0.54,2.11 -1.81,1.96 -0.14,0.51 0.6,1.37 -1.08,4.15 0.46,0.55 -0.06,0.9 0.6,0.51 0,1.29 1.64,2.15 1.33,4.5 0.62,0.35 -0.03,1.76 0.41,2.04 1.21,2.89 1.11,0.24 0.97,1.21 1.02,-0.16 1.92,1.53 1.56,0.51 0.3,1.09 0.46,0.23 0.4,-0.93 0.54,0.04 0.92,-0.79 0.59,0.2 1.41,1.33 0.38,0.94 1.43,0.74 0,0 0.13,0.9 -1.03,0.39 -1.89,1.99 -2.23,3.44 -0.87,0.86 -0.89,0 -1.56,2.43 -0.49,1.95 -0.54,0.59 -2.1,-0.55 -0.97,0.04 -1.08,0.78 -2.22,0.86 -1.37,-0.74 -1.35,0.74 -2.24,0.08 -1.05,-0.28 -1.22,0.32 0.73,3.08 -0.22,0.43 -0.72,0.28 -1.35,2.89 0.67,1.13 0.11,1.02 0.62,0.19 0.11,0.35 -0.33,0.47 -0.86,0.12 -0.51,0.47 -0.03,1.52 -0.94,0.74 0.56,3.05 0,0 -1.56,0.62 -1.43,-0.51 -3.29,0.63 -1.84,1.56 -1.59,2.54 -3.21,3.16 -2.89,1.79 -0.94,1.02 -1.43,0.27 -2.81,-0.31 -1,0.47 -0.81,2.92 -2.24,1.99 -1.05,1.6 0.13,0.28 3.89,1.48 1.78,-0.08 1.65,1.72 0.16,0.82 -0.57,1.99 0.84,1.59 -0.35,0.86 -2.38,2.97 -4.23,1.98 -2.35,3.2 -2.89,-1.01 -3.05,1.01 -0.21,1.17 0.91,1.36 0.46,1.64 -0.32,1.13 -1.08,0.55 0.05,1.24 -0.4,0.2 -1.65,-0.47 -0.78,0.47 0.03,1.24 -0.3,0.36 -1.73,0.42 -2.05,-0.15 -3.18,2.41 -0.7,1.72 0.18,1.87 -1.88,1.79 -0.36,1.79 -0.83,0.51 0.03,1.32 -0.35,1.17 -0.98,0.31 -0.7,0.86 -1.56,1.01 -1.27,-0.39 -0.76,0.12 -2.45,1.87 -3.83,0.81 -2.49,0 -3.29,-2.33 -0.48,-0.2 -1.35,0.2 -4.43,3.54 -2.83,5.18 -1.84,0.81 -3.48,3.54 -1.81,0.63 -0.46,2.14 -2.02,0.93 0.19,0.66 1.21,0.12 1.3,1.32 3.32,0.9 0.81,0.81 2.21,0.32 0.32,2.56 0.7,1.91 1.44,0.54 1.91,3.31 2.3,0.46 1.1,0.74 1.35,5.52 1.84,2.76 0.56,0.16 -0.59,1.63 0.73,2.29 2.88,3.77 0.41,1.13 0,1.12 -0.73,0.82 -1.13,0.35 -0.6,1.55 -1.67,2.18 -0.16,1.98 1,3.26 -0.19,2.6 -0.68,1.28 -1.51,1.17 -5.1,1.12 -0.97,0.35 -1.81,1.32 -0.29,0.54 0.1,1.44 -0.45,2.6 -2.32,2.99 -1.38,0.27 -2.62,1.44 -3.7,0.73 -1.4,-0.27 -1.7,0.2 -1.89,1.2 -6.91,0.97 -1.13,6.94 -1.38,1.98 -0.32,1.59 0.76,4.8 1.35,2.87 0.21,1.28 0.6,1.16 0.67,0.58 -0.03,0.39 -1.35,1.09 -0.54,0.11 -1.05,-0.38 -3.21,3.56 0.41,1.47 0.86,1.36 -2.05,2.01 0.56,1.63 -0.37,1.51 -2.51,-0.12 -0.43,0.24 -1.73,3.56 -0.06,1.93 -1.16,0.59 -1.32,-0.04 -1.94,-1.51 -5.69,1.43 -1.03,-0.93 -0.89,-0.19 -4.16,0.62 -2.32,-0.2 -1.56,0.54 -2.92,-0.34 -0.54,0.62 -0.4,1.66 -2.19,2.71 -1,2.01 -3.31,1.05 -0.38,0.46 -0.06,0.74 0.73,1.82 0.08,1.2 -0.1,0.61 -1.3,1.98 0.62,2.36 -0.49,1.01 -1.48,0.61 -0.48,2.83 0.05,1.89 1.78,2.59 0.24,0.85 -0.27,1.24 -1.05,1.43 -1.32,0.39 -1.05,1 -1.33,-1.81 -1.89,0.27 -1.86,-0.2 -1.75,-0.42 -1.46,-1.01 -2.97,-0.73 -3.15,1.66 -1.46,1.55 -1.32,0.23 -1.16,-0.81 -1.51,-2.44 -1.14,-0.85 -1.35,-0.15 -3.21,-3.45 -1.4,-0.03 -3.21,-0.74 -0.57,0.08 -1.83,3.17 -1.79,0.66 0,1.54 -0.27,0.58 -3.48,0.16 -0.97,-0.54 -2.8,-3.68 -0.14,-0.81 0.43,-0.66 0.35,-2.47 -0.72,-2.13 -2.41,-1.78 -2.91,-0.35 -1.65,-0.73 -0.54,-0.7 -0.64,-1.93 -1.57,-2.29 -1.78,-1.85 -0.27,-1.01 -0.67,-0.08 -4.3,2.44 -1.97,0.7 -5.15,-0.78 -2.62,1.01 -3.45,-0.54 -1.94,0.08 -0.89,-0.32 -0.6,-0.65 -1.13,-4.45 -1.11,-1.2 -1.43,-0.08 -2.78,0.74 -2.26,-0.24 -1.25,0.55 -0.51,1.5 -0.7,0.97 0.24,2.86 0.79,3.45 -0.3,1.04 -1,1.28 -4.83,-0.54 -1.62,-1.55 -2.62,1.2 -2.64,-1.31 -1.11,2.39 -1.72,0.2 -2.27,0.93 -1.97,2.01 -0.08,0.66 0.89,2.66 -0.62,1.86 -1.05,0.27 -0.95,-0.54 -1.46,0 -1.26,1.04 -1.49,0.47 -2.64,2.44 -1.57,2.35 -2.72,1.9 -0.81,1.04 -2.94,1.2 -0.73,-0.08 -1.16,-1.04 -2.03,1.97 0.19,1.32 -2.21,2.2 -0.92,0.27 -0.65,-0.19 -3.86,-2.63 -1.48,0.19 -1.94,-2.82 -2.78,-1.47 -4.4,1.62 -1.7,-0.23 -0.73,-0.23 -0.65,-1.55 -0.56,-0.54 -3.97,-0.42 -1.78,-1.47 -2.21,2.47 -2.51,5.45 -1.7,0.85 -3.24,3.98 -1.05,0.12 -0.79,-1.55 -0.51,-0.34 -2.7,1.15 -2.72,-0.65 -0.97,0.77 -0.92,-0.15 -1.57,0.92 -0.73,1.93 -1.1,0.85 -1.08,0.24 -1.3,1.81 -0.72,1.9 0.64,3.09 -2.53,1.39 -1.25,-0.35 -1.97,-1.24 -1.32,-0.31 -1.35,-1.5 0.27,-0.85 -0.16,-0.47 -1.43,0.08 -0.59,-0.5 -0.06,-0.39 0.89,-1.04 -2.48,-1.43 -0.78,0.15 -1.46,1.05 -1.24,0.27 -2.11,1.24 -0.59,1.69 -2.8,2.09 -1.22,1.35 -3.02,0.39 -1.46,-0.5 -0.65,-0.97 -0.46,-2.01 -1.05,-1.93 0.22,-1.2 -0.22,-0.92 -3.1,-2.75 -1.51,-2.39 -0.06,-1.9 -0.83,-0.11 -2.46,-1.7 0.06,-3.6 -0.79,-1.24 -1.97,-0.85 -2.4,-3.13 -0.08,-2.55 -1.91,-2.94 0.29,-2.16 0.49,-0.78 -0.57,-2.36 0.11,-1.28 -0.86,-0.61 -2.08,-0.39 -2.57,-1.32 -1.83,-2.9 -0.22,-0.81 0.33,-1.01 3.83,-2.13 -1.05,-1.04 -1.41,-2.17 -0.94,-0.04 -0.3,-0.31 0.24,-1.97 -0.4,-0.27 0.16,-0.82 -0.27,-0.58 -1.43,-1.58 -0.56,0.31 -2.05,0 -2.84,-1.82 -0.24,-0.39 0.35,-0.5 -1.24,-4.88 -2.81,-2.48 -1.11,-1.94 -1.02,-0.04 -2.02,-4.07 -1.08,-3.87 -2.38,0.31 -1.29,-1.4 -0.71,-1.28 0.6,-0.89 0.05,-1.36 -1.78,-1.2 -2.24,1.16 -1.91,3.46 -1.14,1.24 -1.35,0.85 -3.4,0.7 -0.73,1.78 -2.45,-0.85 -1.48,-1.32 -0.71,-1.32 0.92,-4.38 0.7,-0.7 0.06,-0.81 1.99,-2.21 1.14,-0.43 -0.79,-1.94 0.98,-1.74 -2.16,-4.73 0.59,-0.39 0.59,-1.47 0.95,-0.78 0.75,-1.9 0.09,-0.66 -0.46,-1.44 1.67,-3.96 -0.16,-0.69 -1.97,-0.31 -1.81,0.81 -1,0.04 -1.13,-0.89 -7.23,-0.78 -1.76,-0.5 -0.75,-1.24 -1.35,-0.28 -4.37,0.59 -0.9,0.77 -1.64,-1.59 -0.38,-1.09 -2.45,0.24 -0.6,-0.82 -0.73,-4.31 -1.05,-2.41 0.62,-3.33 3.29,-3.46 1.95,-3.89 -2.22,-8.27 1.7,-2.96 0.22,-0.93 0.86,-0.5 2.08,-4.01 -0.32,-1.63 0.19,-0.86 0.51,-0.58 1.89,-0.51 0.94,-1.01 1.54,-4.24 1.86,-0.5 1.7,-1.28 0.6,-1.06 -0.14,-1.4 1.32,-1.83 0.25,-1.63 -0.17,-2.57 1.35,-2.29 -0.32,-1.83 -1.11,-0.94 -0.1,-1.13 -0.81,-0.58 -0.92,0 -1.27,0.9 -0.38,-0.28 -0.73,-1.4 -1.35,-0.54 -0.99,-1.41 -1.33,-0.38 -0.51,-0.71 0.27,-1.63 -1.05,-2.03 -0.84,-0.46 -0.7,-0.98 -1.08,-0.42 -1.81,-1.76 -1.89,0.24 -0.64,-0.43 -0.46,-2.42 0.24,-0.97 -0.78,-1.01 -2.38,-0.12 -0.67,-0.66 -1.7,-4.37 -1.03,-0.81 -0.59,-1.29 -0.41,-1.6 0.33,-2.22 1.1,-1.29 1.54,-0.89 2.92,-0.35 1.51,-2.54 1.27,-0.97 0.78,-1.21 0.22,-1.29 -1.08,-1.09 -0.03,-1.75 1.19,-2.89 3.61,-11.47 0,0 11.8,14.32 2.96,3.23 1.3,0.67 1.29,1.32 0.57,4.21 -1.3,3.28 -0.02,1.2 1.81,1.95 1.72,3.2 2.03,0.93 4.07,-0.39 0.81,0.47 2.7,3.47 0.46,2.18 -0.08,3.27 1,4.36 0.26,2.57 0.73,0.86 2.76,1.71 2.53,2.49 0.6,1.33 0.94,4.82 2.48,3.11 3.51,3.08 0.54,3.23 1.4,1.86 0.46,1.32 1.46,1.13 0.35,1.17 0.03,2.14 0.24,0.62 1.35,1.28 0.97,5.6 2.46,1.79 1.19,1.48 0.56,1.51 0.94,1.01 0.52,1.48 0.35,-0.51 0.78,0 1.03,-0.7 1.08,-0.23 3.88,-2.25 1.08,-1.05 1.97,-0.7 1.73,0.66 2.94,-0.86 1.16,-1.01 1,-1.47 0.7,-0.08 2.56,-1.48 1.27,-1.67 0.62,-0.35 0.14,-0.62 1.27,-1.52 0.48,-0.23 -0.24,-2.22 0.86,-2.76 0.43,-0.43 2.57,0.31 1.4,-0.46 1.11,-1.48 1.56,-0.82 0.3,-1.94 0.81,-1.32 2.02,-0.74 1.41,-1.95 0.94,-0.78 1.94,-3.03 1.54,0.23 1.3,-0.93 0.02,-1.6 -0.59,-3.38 1.19,-0.7 0.78,0.07 0.08,-1.55 0.7,0 -2.08,-2.34 -0.02,-3.43 8.77,-9.85 0,0 0,0 0,0 2.89,1.13 2.5,-0.23 1.35,-0.39 0.92,-0.74 0.65,0 2.83,-3.31 -0.43,-0.63 0.19,-4.87 -0.32,-0.89 0.45,-1.41 1.16,0.04 1.33,-1.13 5.07,-2.22 1.94,0.62 3.51,-3.74 0.54,1.48 -0.05,3.16 -1.05,1.68 0.4,1.17 -0.38,1.79 1.86,2.73 2.19,-0.08 3.94,-1.05 2.7,-1.48 1.62,0.15 2.29,-2.26 0.92,-0.23 2.43,-1.95 0.75,-1.05 1.16,-0.28 3.02,-3.23 1.65,-1.09 0.41,0.82 3.4,-1.95 3.48,-0.47 3.29,-2.34 0.22,0.66 1.18,0.74 1.7,0.51 0.97,-0.31 1.6,0.19 -0.25,1.25 0.89,0.74 0.65,-0.62 1.43,-0.04 0.92,-1.45 0.03,-0.7 1.69,-0.5 0.9,1.01 0.72,2.69 -0.05,1.17 0.7,0.78 1.62,-0.58 1.54,0.77 0.62,-0.23 1,-0.93 0.48,-1.18 1.6,-0.11 3.72,0.54 3.24,-1.17 -0.06,-1.2 0.89,-1.41 3.59,-1.79 -1.94,-1.64 -3.48,-1.25 -1.86,-1.52 1.24,-2.65 0.11,-0.94 1.91,-0.86 2.84,-0.31 0.81,-0.5 1.53,0.07 0.73,0.43 0.52,-0.47 2.15,-0.58 1.11,-0.74 1.94,-0.08 0.49,0.86 2.62,1.32 0.64,-1.24 0.73,-0.39 -0.4,-1.49 0.08,-1.01 1.56,-0.55 0.84,-0.7 0.65,-1.17 -0.46,-2.38 0.22,-0.63 0.32,-0.39 2.08,-0.47 0.83,-0.5 1.49,-2.42 2.21,1.75 11.5,4.53 1.37,1.05 1.84,0.75 1.02,-0.16 0.38,0.78 2.35,1.91 1.21,1.45 0.81,0.23 1.49,-0.47 0.54,-1.13 1.29,-1.09 3.37,-0.94 1.76,-1.13 1.4,-1.37 2.35,-1.24 0.4,-0.71 1.95,-0.93 0.35,-0.94 1.05,0.2 0.62,-1.18 1.59,-0.46 0.73,-1.49 1.32,-0.93 0.6,-1.02 1.7,-0.74 1.02,-1.72 7.07,-3.05 0.49,-0.35 0.81,-1.6 3.48,-1.76 1,-1.17 0.54,-0.19 1.97,0.58 4.5,-0.11 1.49,0.43 0.32,-0.71 1.94,-0.54 1.22,-0.9 0.65,-0.24 0.94,0.35 0.78,-0.11 0.73,-0.78 1.27,-0.28 0.43,-0.7 1.16,0.12 1.38,-1.8 1.91,-0.2 0.35,-0.58 -0.35,-0.67 1.95,-1.29 0.35,0.04 0.78,-2.03 1.81,-1.52 2.37,-0.47 0.92,0.39 2.56,-1.96 0.95,-0.39 0.59,-0.7 0.54,-1.21 -0.27,-0.59 0.65,-1.72 -1.54,-2.46 0.11,-0.75 -0.59,-0.42 -0.68,-1.3 0.06,-1.05 1.53,-1.1 0.68,-1.13 1,-0.7 1.7,-0.4 1,0.59 3.23,-4.69 1.33,0.31 2.94,-1.92 0.86,-0.23 2.46,0.47 1.99,-0.16 1.11,1.14 1.97,1.01 2.78,0.32 2.1,1.8 0.14,-0.36 2.05,-0.47 1.73,-0.78 2.13,1.45 1.62,0.35 1.02,-0.15 0.78,0.89 1.44,0.4 1.1,-0.12 2.38,0.86 1.51,1.99 0.83,0.39 0.08,0.75 0.95,0.62 3.45,0.63 2.14,1.13 2.53,0.55 0.76,0.47 0.78,-0.63 3.08,0.04 0.18,0.2 -0.59,1.45 0.08,0.89 1.59,1.1 0.35,0.7 1,0.08 1.62,-1.02 3.05,-0.46 0.95,0.35 0.73,-0.59 4.8,-0.98 0.59,0.2 1.16,-0.27 0.41,0.23 1.37,-0.27 0.87,0.31 2.64,-1.1 1.67,-0.19 1.95,-1.64 1.02,-0.16 0.54,-0.55 2.08,-0.12 1.32,-0.82 1.22,-1.95 1.64,-0.78 2.03,-0.08 0.64,-0.31 2.49,-2.82 0.7,-2.11 0.75,-0.36 1.51,0.08 0.49,-0.35 2.29,-0.23 3.27,-1.92 1.05,-1.21 0.73,-2.12 1.89,-1.52 1.83,-2.62 -1.53,-0.55 -0.08,-0.9 0.75,-2.12 -0.38,-0.43 -0.32,-1.37 0.27,-1.6 1.86,-2.86 0.03,-1.06 0.51,-1.21 0.03,-1.61 -0.65,-0.43 0.06,-2.15 0.78,-2.82 2.13,-0.43 2.64,-3.84 0.95,-0.47 0.32,0.15 1.24,-3.64 z" 
                fill="rgb(151, 144, 238)" 
                stroke="white" 
                stroke-width=".7px"
                title="Valais" 
                id="CH-VS" 
            />
        </svg>