<svg xmlns="http://www.w3.org/2000/svg" viewBox="29.50452999999972 326.67045000000024 319.7299999999999 313.04000000000025" width="319.7299999999999" height="313.04000000000025">
            <path 
                d="m 135.93453,379.54045 1.78,0.55 0.3,1.22 3.97,0.51 11.44,-4.01 1.59,-1.18 2.19,-2.79 2.19,-0.75 1.7,-1.73 2.11,-0.39 3.56,-2.28 3.24,-1.49 0,0 1.43,-0.24 2.1,0.24 0,0 2.38,-1.3 2.29,-0.75 3.16,0.12 4.99,-7.01 0.46,-1.77 6.26,-4.33 13.44,-5.95 -0.03,1.38 0.92,0.75 -1.51,5.75 -0.27,4.02 1.21,0.28 5.05,4.13 -0.51,3.98 0.59,0.24 0.05,0.47 -0.97,3.42 -0.86,0.98 -0.19,1.26 0.3,0.08 1.65,-1.38 4.18,0.75 6.58,6.77 0,0 -10.25,9.99 9.8,10.61 1.62,-0.98 0.7,1.49 -2.37,2.12 -0.65,1.57 0.32,0.27 0.68,-0.63 0.32,-0.94 1.3,0.63 3.29,3.38 1.81,-1.02 1.46,0.94 1.35,1.96 1.73,0.71 0.94,1.34 0.7,-1.53 1.4,0.86 0.76,-0.31 1.19,-2.04 0.78,0.71 0.54,0.04 2.16,-2.47 1.7,-1.1 1.24,1.02 0.08,0.51 -0.46,0.35 0.4,0.9 2.24,1.18 -0.03,-0.35 0.76,-0.43 0.46,0.55 -0.08,0.39 0.57,0.47 1.08,-0.35 0.35,0.24 1.3,-0.63 1.73,0.55 0.27,-0.63 1.11,-0.51 -0.19,-0.59 1.62,0.04 0.3,-0.55 0.86,-0.39 0.08,0.28 -0.43,0.35 0.81,0.98 1.65,-1.96 -0.08,-1.77 1.13,-2.08 0,-0.83 1.19,-0.71 0.49,-1.22 0.97,-0.94 0.08,-0.59 -1.13,-1.37 -1.32,0.08 -0.49,-0.82 -1.43,1.34 -0.84,1.69 -1.89,-0.98 1.54,-2.63 -0.59,-1.41 0.19,-0.67 -0.46,-0.2 0.46,-0.16 -1.48,-3.18 0.76,-1.02 0.32,-2.08 1.27,-2.4 1.97,-2.56 0.73,-0.23 2.13,-1.93 -0.49,-0.83 -0.3,0.12 -0.78,-1.93 -0.48,0.2 -2.48,-2.75 -2.24,1.1 -0.19,-0.35 -2.1,0.98 -0.22,-0.51 -0.4,0.31 -0.54,-1.06 1.62,-0.86 0.78,0.16 1.11,-0.86 1.13,-0.39 0.32,0.79 0.43,0 2.37,-1.46 -2.86,-3.58 -1.24,0.71 -0.27,-0.35 -0.22,0.2 -1.16,-1.61 -0.32,0.08 -0.46,-0.39 -0.19,0.24 -8.12,-10.31 0,0 8.28,-6.26 0,0 8.12,9.61 0.94,0.67 -1.75,1.65 0.4,0.95 1.02,-0.16 1.08,0.32 0.76,1.42 0.65,-0.51 0.27,1.3 0.7,0.47 0.14,0.79 0.92,0.24 1.65,2.64 -0.35,0.28 0.14,0.31 0.76,-0.23 0.68,1.26 2.37,2.4 0.92,-0.71 -1.51,-3.38 -0.65,-0.39 -0.67,-1.53 0.92,-0.63 1.59,-0.28 0.92,-0.51 -0.16,-0.47 0.86,-0.43 1.86,2.17 2.29,3.35 -0.84,0.91 0.14,0.2 -1.7,1.61 -0.16,2.24 -0.59,0.79 0.22,0.79 -0.35,1.06 -0.73,0.39 0.89,1.69 -0.35,0.75 0.46,0.43 0.94,0.28 1.78,-1.93 0.62,0.12 0.54,0.9 -1.48,1.18 -0.16,0.75 0.38,0.35 -1.13,1.02 1.02,0.83 -0.22,0.9 1.75,0.67 -0.84,2.64 -1.16,1.26 -0.05,0.47 -2.91,-0.47 -0.46,-0.59 -0.16,0.28 -0.38,-0.12 -0.7,-1.02 -0.67,-0.39 -0.03,-0.39 -0.43,0.47 -1.35,2.71 0.38,1.26 -1.02,1.02 0.81,1.06 -0.46,0.31 0.3,0.55 1.59,1.69 -0.32,0.55 0.89,0.63 -0.38,0.35 0.16,0.24 -0.78,0.47 -1.86,2.44 0.43,1.53 -0.22,0.83 -1.46,0.94 -0.51,1.02 -1.05,-0.75 -0.97,0.2 -0.84,1.22 -0.22,-0.23 -0.65,1.37 -1.22,1.06 0.43,0.35 -0.51,0.79 0.51,0.2 0.22,-0.23 0.24,0.47 -1.46,0.86 -0.11,0.67 -2.43,2.98 -0.78,-0.59 0.3,-0.23 -0.24,-0.43 -0.38,0.39 -0.48,-0.39 -1.62,2.16 0.57,0.67 -0.43,0.39 0.46,0.59 0.4,-0.51 0.78,0.51 0.68,-0.43 0.73,1.26 2.83,-1.14 0.7,0.94 1.32,0.9 0.43,1.45 0.43,0.24 -0.11,0.43 -1.21,2.08 0.03,0.86 -0.27,0.31 0.35,0.43 -0.46,0.67 -1.29,1.06 -2.05,2.43 -0.65,1.26 -1.02,0.24 -0.3,0.55 -1.05,0.2 -1.7,1.65 -0.13,-0.19 -1.46,1.8 -0.7,1.57 -0.32,-0.16 -0.81,1.41 0.51,0.47 -0.79,1.9 -1.35,0.98 -0.84,1.29 -0.65,0 -2.16,2.71 -1.27,-1.06 -0.75,0.86 -0.13,0.9 -0.59,0.08 0.59,1.88 1.75,1.1 -1.94,3.33 1.08,0.75 -0.19,0.98 -0.51,0.63 -0.73,0.2 -0.97,-0.71 -0.86,1.33 -0.75,0.55 -2.21,-1.25 -0.22,0.39 -0.65,-0.55 0.43,-0.67 -0.62,-0.16 0.14,-0.23 -0.94,-0.39 -0.7,0.43 -0.59,-0.35 -0.57,1.02 -0.62,-0.31 -0.75,0.71 -1.32,2.51 -1.08,1.33 0.3,0.08 0,0.35 -1.02,0.08 -0.32,-0.9 -0.48,0.27 -0.16,-0.55 -1.05,-0.08 -1.38,0.67 -0.92,0 0,0.35 1.35,0.9 -0.16,0.74 -0.35,-0.19 -0.75,1.84 -0.03,0.98 -0.51,1.33 0.35,1.25 0.54,0.12 0.05,0.55 0.57,0.43 -0.24,0.82 0.49,1.53 -0.16,2.27 -0.3,0.16 0.49,2.74 -0.46,3.02 -0.97,0.27 0.78,3.05 -0.67,2.11 0.22,1.33 -0.89,1.45 0.03,0.74 -0.4,0.82 1.24,0.47 0.92,-0.39 0.49,-1.13 0.94,0.12 0.24,-0.43 0.43,-0.08 0.67,0.31 -0.4,-1.02 0.65,-1.13 0.03,-0.78 1.78,0.78 0.86,2.43 0.76,-0.16 1.65,0.9 0.65,0.08 0.54,-0.43 -0.05,-0.35 0.68,-0.47 0.76,-1.45 0.84,-0.12 0.22,-0.35 0.51,0.08 0.86,0.98 0.3,-0.47 1.92,0.9 0.81,0.71 0.11,-0.19 0,0 0.62,0.47 0,0 -0.22,0.43 1,0.55 1.48,4.03 1.35,-0.82 1.38,2.07 0.54,-0.51 0.38,-1.68 0.76,-0.04 2.05,-1.21 0.92,0.35 -0.62,1.25 0.3,1.41 0.49,0.7 0,0 -0.7,0.55 -0.81,-0.19 -0.51,0.47 -0.24,-0.27 0,0 -0.65,0.63 0.03,0.35 -0.86,-0.39 -2.81,3.91 -0.59,0.23 -0.43,0.82 -0.49,0 -0.81,0.86 -1.35,2.5 -0.05,0.9 -0.65,-0.08 -0.05,1.76 -0.73,-0.27 0.27,-1.84 -0.94,-0.51 -0.22,-1.6 -0.73,-0.12 -3.08,1.25 -2.89,0.31 -1.51,-0.23 -0.05,-0.59 0.7,-1.17 -0.05,-0.27 -0.51,-0.04 -0.03,0.43 -1.16,1.37 0.05,0.31 -0.73,0.59 -0.35,1.96 -1.65,2.46 1.27,1.68 0.54,1.53 1.84,1.95 1.7,-0.16 0.49,2.77 0.76,1.33 1.48,1.91 0.49,0.35 0.65,-0.19 0.7,1.21 2.65,0.23 1.35,-0.23 0.76,-2.35 2.46,-2.42 1.92,-2.54 4.24,-3.2 0.08,2.46 -0.4,0.43 -0.3,1.17 0.19,0.98 0.94,-0.82 0.57,-1.25 1.89,0.31 0.76,-0.23 0.4,0.08 0.08,0.63 0.54,0.35 0.4,-0.12 1.16,0.82 1.19,0.31 0.59,1.29 0.92,-0.12 0.27,0.63 0.38,0.04 0,0.43 0.62,0.31 1.62,-0.27 0.59,0.27 0.97,-0.08 0.89,-0.51 0.97,0.35 0.43,0.86 2.05,1.33 0.76,1.33 0.92,0.66 0.57,-0.12 0.46,0.82 -0.27,0.31 -0.03,1.29 0.35,1.6 0.43,1.02 1.57,1.33 -0.81,0.86 0.32,5.12 0.16,0.47 0.73,0.16 1.97,2.26 0.57,1.72 -2.05,3.24 -0.16,0.86 1.57,-0.04 3.54,-2.11 3.89,-1.76 0.35,0.12 0.78,-3.83 -0.22,-0.94 0.3,-0.43 1.46,-1.29 0.38,-0.94 3.16,-3.32 1.05,-0.55 1.7,-1.99 2.11,-1.25 0.84,-1.05 1.21,-0.59 1.94,0.94 1.38,-0.9 3.18,0.7 2.27,-0.55 0.65,0.59 1.51,-1.09 0.16,-0.9 0.78,-1.02 2.94,-1.37 0.78,-0.04 1.24,-2.23 0.92,-0.35 1.35,-1.41 0.27,-1.68 0.81,-1.76 0.05,-1.17 0.24,-0.59 0.57,-0.23 0.43,-1.91 0.84,-0.59 1.46,0.59 1.27,0 1.43,-0.7 3.67,-2.62 4.29,-4.26 2.02,1.92 0.24,0.9 1.97,2.66 2.78,-4.22 0.7,-0.51 0.51,-1.33 3.64,-2.31 0,0 0.08,2.97 1.97,2.5 0.3,0.78 -0.16,2.11 0.4,0.63 0.68,5.32 -0.54,1.41 0.38,1.25 -0.59,0.98 0.14,0.78 -0.59,0.59 0.08,1.06 -0.3,0.78 -1.19,1.64 -0.43,-0.27 -0.35,0.43 -1.08,0.23 0.76,0.82 0.19,1.8 -1.92,0.27 -0.27,0.51 -1.05,-0.19 0.41,4.22 1.46,3.79 -0.59,1.64 0.19,0.7 -0.78,1.02 1.51,1.48 -1.67,0.86 0.19,1.06 -0.3,1.72 -1.08,1.17 -2.02,0.74 -2.64,0.23 -0.16,-0.47 -2.4,-0.16 -0.62,2.5 1.81,2.15 0.81,2.22 1,0.74 1,2.03 -0.65,2.34 0.11,2.69 -0.81,1.17 -0.97,2.77 -0.73,0.98 -1.22,3.08 -0.08,1.56 2.75,0.04 0.59,-0.35 0.7,0.35 -0.32,0.55 0,1.44 0.57,0.47 0.35,1.72 1.3,2.18 0.7,0.2 2,-1.09 1,1.36 -0.43,0.23 -0.35,0.86 -1.27,0.04 -0.73,0.47 0.81,3.98 -0.11,6.86 0,0 -8.77,9.85 0.03,3.43 2.08,2.34 -0.7,0 -0.08,1.56 -0.78,-0.08 -1.19,0.7 0.59,3.39 -0.03,1.6 -1.29,0.93 -1.54,-0.23 -1.94,3.03 -0.94,0.78 -1.4,1.95 -2.02,0.74 -0.81,1.32 -0.3,1.95 -1.56,0.82 -1.11,1.48 -1.4,0.47 -2.56,-0.31 -0.43,0.43 -0.86,2.76 0.24,2.22 -0.48,0.23 -1.27,1.52 -0.13,0.62 -0.62,0.35 -1.27,1.67 -2.56,1.48 -0.7,0.08 -1,1.48 -1.16,1.01 -2.94,0.86 -1.73,-0.66 -1.97,0.7 -1.08,1.05 -3.89,2.25 -1.08,0.23 -1.02,0.7 -0.78,0 -0.35,0.51 -0.51,-1.48 -0.94,-1.01 -0.57,-1.51 -1.19,-1.48 -2.45,-1.79 -0.97,-5.6 -1.35,-1.28 -0.24,-0.62 -0.03,-2.14 -0.35,-1.17 -1.46,-1.13 -0.46,-1.32 -1.4,-1.87 -0.54,-3.23 -3.51,-3.07 -2.48,-3.11 -0.94,-4.82 -0.59,-1.32 -2.54,-2.49 -2.75,-1.71 -0.73,-0.86 -0.27,-2.57 -1,-4.36 0.08,-3.27 -0.46,-2.18 -2.7,-3.47 -0.81,-0.47 -4.07,0.39 -2.02,-0.93 -1.73,-3.19 -1.81,-1.95 0.03,-1.21 1.3,-3.27 -0.57,-4.21 -1.29,-1.33 -1.29,-0.66 -2.97,-3.24 -11.79,-14.32 0,0 -37.24,-10.73 -44.04,-0.94 -24.93,15.46 -45.68,21.25 -1.35,1.09 -2.86,6.47 0,0 -8.69,-4.25 -1.97,-0.19 -1.29,-1.95 -1.89,-0.08 -2.48,-1.91 -1.89,1.09 0.62,0.86 -1.35,0.59 0.92,1.68 1.62,0.58 1.43,1.25 2.4,0.39 -0.11,1.99 0.59,0.43 1.65,1.01 7.99,3.59 0,0 -3.35,7.24 0,0 -5.75,10.71 -7.64,-4.01 -4.59,-1.79 -2.81,-1.79 -1.94,-1.75 -2.99,-3.7 0,0 0.32,-0.08 0.11,-1.32 2.05,-2.18 0.08,-0.66 0.43,-0.08 -0.16,-0.51 0.38,-0.51 -0.11,-0.43 0.87,-0.7 -0.43,-0.62 0.24,-1.21 0.24,0.47 0.22,-0.97 0.65,-0.51 0.54,0.27 0.86,-0.7 2.37,-2.92 0.35,-0.55 -0.08,-1.36 0.46,-1.32 2.65,-3.31 -1.86,-2.3 -0.73,-2.3 -1.24,-0.12 -1.43,0.62 -3.43,-3.59 -6.53,-5.19 -0.22,0.2 0.32,1.01 -1.21,-0.94 -1.11,-0.27 -2.75,-3.7 -6.75,-2.07 -1.48,-0.55 -0.13,-0.43 2.65,-4.57 0.38,-1.64 2.29,-2.81 0.51,-1.33 -0.57,-1.64 -2.16,-1.84 -0.03,-2.22 -0.81,-1.72 1.24,-2.15 5.21,-5.15 1.86,-5.16 2.78,-6.14 6.56,-8.17 1.51,1.33 0.67,-0.74 2.13,-2.58 -1.38,-1.37 2.1,-2.11 -12.52,-12.28 2.91,-2.74 1.38,-2.27 3.43,-3.05 1.43,-0.78 1.43,-1.37 1.08,-0.27 2.13,-2.55 0.89,-0.04 3.83,-2.15 0.27,-1.84 3.86,-2.7 1.92,-3.21 0.59,-0.31 1.24,0.08 1.73,-2.27 0.92,-0.39 -0.08,-0.39 0.84,-0.9 0.49,0.04 1.86,-1.45 1.75,-2.7 8.04,-7.29 0.86,-1.37 0.4,-0.12 -0.3,-1.53 2,-1.02 1.57,-1.96 3,-1.1 8.23,-5.06 0.92,-0.04 3.21,-1.22 2.7,-1.96 0.78,-0.08 0.43,-1.29 1.38,-1.53 1.59,-0.04 0.59,-0.51 0.89,-0.12 0.38,-0.59 -0.11,-1.14 -0.46,-0.82 3.67,-0.39 1.11,-1.06 1.24,-1.92 -0.92,-1.81 1.59,-1.84 1.62,-1.06 1.67,-0.12 4.83,-1.49 1.38,-0.9 2.48,-2.4 -0.16,-1.69 3.72,-3.02 -0.03,-1.73 1.7,-3.69 -6.21,-4.91 -1.21,-4.24 2.46,-1.38 -0.19,-3.18 0.89,-3.62 4.37,-7.89 z m 98.03,41.26 0,0 -0.27,0.98 -1.54,1.53 0.38,0.78 -0.51,0.39 -1.13,0.04 -1.11,0.67 -0.49,-0.43 -1.29,0.98 -0.11,-0.23 -0.57,0.16 -0.13,-0.82 -0.38,0.04 -0.05,0.43 -0.51,-0.23 -0.65,1.81 -0.73,0.71 0.08,0.59 1.16,0.94 1.32,-0.2 0.54,-0.39 0.59,0.31 0.68,-0.43 1.4,0.04 2.32,-2.39 2.48,-0.51 0.24,-0.31 0.59,0.39 0.46,-0.31 4.02,3.14 2.97,0.59 1.02,0.59 0.3,-0.63 0.24,0.27 0.89,-1.18 -0.84,-0.39 -0.32,-0.51 5.18,-7.34 -1.13,-1.45 0.16,-0.23 -0.38,-0.35 0.22,-0.39 -0.65,0.82 -0.57,-0.55 0.68,-0.51 -1.81,-0.86 -1.05,-1.65 -0.7,-0.2 -1.05,0.75 -0.19,-0.27 0.76,-0.47 -0.03,-0.82 -1.16,-1.22 -0.62,-1.45 -0.65,-0.04 0.32,-0.94 -1.16,-0.12 -0.57,1.49 0.41,0.2 -1.16,1.45 -0.11,0.94 -2,1.41 -1.91,2.04 -0.19,0.47 0.43,0.39 -0.73,1.22 0,0 0,0 -1.39,1.26 z m -12.38,7.85 0.24,-1.02 1.43,-1.37 0.49,-1.02 -0.24,-0.27 0.43,-1.53 0,-2.39 0.38,-0.59 -2.08,-1.45 -0.67,0.75 -0.86,-0.82 -1,2.51 -2.89,2.83 -1.59,0.59 -1.08,1.81 0.68,1.3 2.02,1.14 0.41,1.02 -0.57,0.47 0.86,0.67 -0.19,0.2 0.49,0.78 2.4,-1.37 1.62,-2 0,0 0,0 -0.28,-0.24 z m -162.88,148.01 -1.32,2.57 1.05,0.82 0.76,-2.22 1.86,1.13 0.84,-0.82 -2.13,-2.03 -0.62,0.12 -0.11,0.62 -0.33,-0.19 z m 236.68,-246.43 2.83,1.66 0.94,1.1 -0.89,0.75 0.27,0.87 -0.94,0.51 0.41,0.91 -0.35,0.28 0.3,0.79 -0.35,0.16 0.54,1.58 -0.81,0.12 0.68,1.06 0.59,3.47 -0.22,0.99 -0.81,1.02 7.91,11.46 0.84,1.06 0.81,0.32 -0.48,1.26 0,0 -1.4,0.98 0.7,1.06 -1.48,0.87 0,0 -2.4,0.28 0.16,0.55 1.27,-0.43 0.16,0.28 -2.13,1.42 0.19,0.63 -1.19,0.79 -0.22,-0.24 -1.67,1.54 0,1.57 1.22,-0.39 0.24,0.79 -0.59,0.24 1.05,0.59 0.59,1.18 -0.05,0.47 -1.16,1.22 0.11,0.24 -1.19,0.75 -2.48,4.37 -0.43,0 -0.38,0.43 -0.32,-0.12 -0.49,1.38 -2.43,2.44 -0.51,-0.28 -0.92,-1.1 -0.24,0.31 -0.22,-0.2 -0.4,-0.79 0,-0.79 1.21,-1.18 -0.24,-0.75 1.46,-0.67 0.22,-0.43 -2.59,-2.4 1.62,-2.75 -0.92,-1.02 -0.3,0.2 -1.46,-0.47 -0.24,-0.63 -0.94,0.67 -1.35,-1.69 -0.3,1.5 -0.43,-0.24 -0.51,0.43 -0.03,0.43 -0.59,0.08 -0.32,0.75 -2.48,-0.47 -1.51,-1.81 1.51,-1.34 0.14,0.16 1.3,-1.46 0.22,0.2 1.27,-1.61 -4.34,-4.01 -3.43,-3.9 0.89,-1.06 -0.76,-0.71 1.59,-1.73 -0.24,-0.59 -2.4,-1.69 -1,1.14 -0.19,-0.28 -0.46,0.32 -0.67,-0.98 -1.16,-0.47 -9.58,-11.11 0,0 19.86,-13.4 10.12,2.92 0,0 2.37,0.64 z" 
                fill="rgb(151, 144, 238)" 
                stroke="white" 
                stroke-width=".7px"
                title="Vaud" 
                id="CH-VD" 
            />
        </svg>