<svg xmlns="http://www.w3.org/2000/svg" viewBox="658.1945300000009 222.76045 82.89999999999941 66.26999999999987" width="82.89999999999941" height="66.26999999999987">
            <path 
                d="m 662.05453,222.76045 1.1,1.23 0.38,2.97 0.57,0.79 0.24,3.09 0.24,0.95 0.95,0.71 -0.08,0.56 2.7,-0.36 1.78,0.36 0.83,-0.6 0.65,0.99 0.49,-0.35 0.83,1.46 1.35,0.64 0.95,-0.12 1.46,2.14 1.18,-0.16 1.87,1.03 -0.3,0.35 0.27,0.48 0.62,-0.48 1.83,0.44 0.19,0.36 1.7,-1.23 1,-0.36 1.32,-0.12 0.78,0.36 1.25,-1.27 1.78,-0.63 0.16,-1.35 4.21,0.28 0.67,0.28 0.41,-1.31 1.83,-0.75 1.54,0.51 2.62,-0.2 1.54,0.99 0.83,0.04 3.38,1.43 1.56,0.16 2.13,1.26 1.87,1.99 0.37,3.2 0.03,6.14 2.05,4.23 9.1,0.4 0.35,1.03 0.43,0.16 3.02,-0.83 0.73,0.39 1.27,-0.24 0.24,3.6 1.59,0.87 2.27,0 0.59,-0.63 4,-1.07 0,0 1.08,0.52 0.16,1.15 0.37,0.27 0.19,2.38 0.52,0.67 -1.49,0.55 -1.4,0.99 -1.43,2.02 -0.22,0.95 0.33,0.87 0.51,0.43 0,0.83 -1.62,3.96 -2.24,3.28 -3.43,0.47 -0.13,1.54 -1.46,1.19 -2.16,2.92 -0.4,1.7 -1.57,0.91 -2.86,0 -4.72,-0.55 -0.94,0.16 -0.52,1.02 -2.45,0.56 -0.6,-0.28 -0.51,0.28 -0.81,0.87 -0.16,0.63 -0.65,0.32 -3.02,0.78 -0.92,0.68 -1.99,0.39 -0.92,-0.47 0.51,-1.54 -0.54,-2.85 -4.72,0.04 -3.73,0.87 -1.51,0 -0.59,1.27 -8.12,-4.55 0,0 0.19,-5.22 -3.59,-5.02 -3.81,3.28 -2.7,1.86 0,0 -1.02,-0.47 0,0 -1.3,-5.81 -1.1,-0.08 -2.35,1.78 -0.78,0.16 -0.43,0.55 -0.41,-0.32 -0.27,0.28 -0.65,-0.16 -0.43,0.59 -0.16,-0.51 -0.73,0.32 -0.51,-0.44 -0.14,0.63 -0.89,-0.98 -0.11,-0.91 0.52,-1.31 -0.08,-1.42 -1.03,-2.61 0,0 0.76,-1.7 -0.11,-1.51 -0.68,-2.05 0.89,-1.94 0,-2.26 -1.1,-3.83 -0.76,-0.56 -1.51,-0.35 -0.24,-0.44 -0.41,-3.56 0.22,-0.99 1.08,-1.78 0.11,-0.87 -0.92,-2.34 -0.46,-2.77 0.19,-2.34 -1.16,-1.78 -0.54,-2.69 0.59,-1.75 2.54,-2.77 0.11,-1.47 1.21,-2.25 z" 
                fill="rgb(151, 144, 238)" 
                stroke="white" 
                stroke-width=".7px"
                title="Zug" 
                id="CH-ZG" 
            />
        </svg>