<svg xmlns="http://www.w3.org/2000/svg" viewBox="648.5045300000006 45.45045000000027 169.24999999999966 212.81999999999982" width="169.24999999999966" height="212.81999999999982">
            <path 
                d="m 730.83453,49.29045 1.57,0.16 0.27,0.36 -0.19,3.39 2.37,1.36 0.41,1.84 -0.3,1.48 0.62,2 1.49,1.35 -0.06,0.56 0.38,0.08 0.65,1.52 1.16,0.64 1.32,0.16 0.16,0.48 0.57,0 0.08,0.44 1.83,1.2 1.65,-0.88 0.14,0.68 0.51,0.51 0.81,0.24 1.43,-0.75 1.48,0.16 1.22,0.55 0.37,-0.32 1.68,-0.19 0.24,1.11 1.05,0.32 0.7,-1.04 1.43,-0.2 0.06,-0.35 0.78,-0.12 0.46,-0.88 2.18,-1.84 2.3,0.36 0.43,-0.64 0.97,-0.56 1.08,-1.32 0.22,-2.11 0.59,-2 0.78,0.36 3.51,0 -0.35,1.52 0.54,0.16 -0.22,3.47 1.27,0.2 1.32,0.8 2.19,0.48 1.08,0.6 0.14,3.63 -0.73,1.28 0.13,0.32 -1.16,1.2 0.03,0.48 -0.54,-0.08 -0.14,0.59 -0.56,-0.03 -0.73,0.59 0.19,1.04 -0.27,0.04 -0.22,0.64 0.68,0.68 -0.7,0.8 0.48,0.91 -2.35,1.16 -0.7,3.87 0.35,1.08 -3.86,-0.96 -0.29,-0.24 0.56,-1.51 -0.11,-0.52 -0.56,0.12 0.03,-0.24 -2.27,-1.28 -0.84,-0.04 -0.62,-0.8 -1.1,-0.04 -2.19,-1.27 -0.86,-0.08 -0.6,0.67 -2.4,-2.35 -0.46,0.64 0.22,1.04 -0.35,2.07 -0.52,-0.04 -0.21,0.44 -0.65,-0.12 -0.16,1.4 0.67,0.44 0.03,1.11 0.4,0.88 0.49,0.24 0.38,0.76 0.56,0.12 -0.89,1.39 0.38,0.2 0.24,1.52 3.92,-0.24 11.68,3.91 -0.13,0.52 -0.81,-0.28 -0.3,0.76 1.49,0.43 -0.44,1.84 0.92,0.28 -0.3,1.2 1.97,0.51 0.52,-0.12 0.21,-0.63 0.49,0.24 0.3,-0.48 0.45,0.36 0.14,-0.6 1.89,0.72 0.32,-0.88 2.08,0.95 -0.24,0.76 0.32,0.04 -0.03,1.32 1.62,-0.08 -0.1,1.15 1.77,-0.11 0.09,0.95 -0.22,0.16 -2.05,0.12 -1.11,1.12 -2.53,-0.04 0.13,0.59 -0.32,0 1.54,4.55 -0.14,0.24 0.7,0.48 0.57,1.35 0.43,0.04 -0.3,0.32 0.06,0.52 0.43,0 0.08,1.15 2.51,1.32 5.56,0.16 2.48,1.11 0.68,-0.55 0.94,0.67 0.38,-0.24 0.43,0.4 2.08,0.56 0.24,0.48 -0.51,2.39 0.4,0.36 -0.27,1.55 0.35,0.96 -0.27,2.82 -0.4,0.32 -0.51,1.91 -0.14,3.91 1.03,0.43 0.21,1.08 -3.18,1.23 -0.19,1.79 -0.41,0.48 0.3,1.08 -0.3,0.83 0.38,0.56 1.41,0.12 0.16,0.91 1.08,1.48 0.46,0.08 1.08,3.22 1.91,1.83 -0.27,1.75 -1,0.64 1.24,1.91 -0.13,0.31 1.27,0.88 2.08,0.16 0.51,0.43 2.91,-0.27 0,0.59 -0.89,1.08 -0.56,0.12 -1.3,-0.68 0,0 -3.35,-0.08 0,0 -0.43,1.03 1.35,0.92 -0.54,1.11 0.41,4.34 -1.41,2.86 -0.83,0.91 -0.27,1.19 0.65,0.28 2.96,0.16 1.97,1.08 1.81,2.5 1.57,0.87 0.91,3.98 0.98,1.59 0,0 0.32,0.31 0.89,0.08 0.59,1.04 0.57,1.98 1.97,4.37 0.13,1.03 2.08,-0.2 0.49,0.72 0.51,0.04 0.73,1.98 -0.27,3.06 1.62,1.03 -0.59,2.42 0.05,1.55 0.67,0.64 0.44,1.31 0.94,0.95 -2.81,5.2 -1.64,0.47 -1.16,-0.16 -1.68,0.52 -0.75,0.83 -0.97,2.74 -0.76,0.95 0,0.64 -4.02,1.5 1.65,1.43 0.51,0.87 -0.19,1 0.68,0.15 0.59,-0.99 0.49,0.24 0.16,0.48 -0.22,1.46 -0.49,0.88 -1.24,0.95 0.81,1.07 -0.64,1.31 -2.38,2.77 -0.94,-0.4 -0.25,0.44 -5.12,1.7 -0.3,-0.79 -0.24,0 -3.19,0.99 -6.18,0.72 0.38,1.66 -1.02,0.44 0.13,0.47 -1.13,0.68 -0.17,-0.32 -1.32,0.4 -1.64,-0.52 -0.52,-0.63 -0.05,-1.35 -0.27,-0.32 -1.94,0.87 -0.27,0.64 -0.84,0.04 -1.59,-0.95 -2.54,-0.88 -5.77,1.91 -1.27,1.38 -0.06,0.44 -0.64,-0.12 -0.22,1.35 3.38,7.49 0,0 -3.97,-0.96 -0.49,0.12 -13.81,4.2 -6.18,3.05 -3.83,0.59 -0.3,1.59 -1.03,0.59 -1.18,0.24 -1.92,3.25 -1.46,1.3 0,1.15 -0.4,0.83 0.86,2.49 2.08,1.63 0.3,2.13 0,0 -4,1.07 -0.59,0.63 -2.27,0 -1.59,-0.87 -0.24,-3.6 -1.27,0.24 -0.73,-0.39 -3.02,0.83 -0.43,-0.16 -0.35,-1.03 -9.1,-0.4 -2.05,-4.23 -0.03,-6.14 -0.37,-3.2 -1.87,-1.99 -2.13,-1.26 -1.56,-0.16 -3.38,-1.43 -0.83,-0.04 -1.54,-0.99 -2.62,0.2 -1.54,-0.51 -1.83,0.75 -0.41,1.31 -0.67,-0.28 -4.21,-0.28 -0.16,1.35 -1.78,0.63 -1.25,1.27 -0.78,-0.36 -1.32,0.12 -1,0.36 -1.7,1.23 -0.19,-0.36 -1.83,-0.44 -0.62,0.48 -0.27,-0.48 0.3,-0.35 -1.87,-1.03 -1.18,0.16 -1.46,-2.14 -0.95,0.12 -1.35,-0.64 -0.83,-1.46 -0.49,0.35 -0.65,-0.99 -0.83,0.6 -1.78,-0.36 -2.7,0.36 0.08,-0.56 -0.95,-0.71 -0.24,-0.95 -0.24,-3.09 -0.57,-0.79 -0.38,-2.97 -1.1,-1.23 0,0 -1.73,-2.14 0.54,-2.06 -1.13,-2.19 0.54,-1.74 -0.06,-1.15 -2.02,-2.06 -0.62,-2.94 -0.92,-1.7 0.65,-0.32 0.67,0.08 1.08,0.95 1.59,-0.95 0.14,-0.4 3.26,-0.87 1.19,-1.47 2.27,-1.38 0.41,-1.47 -0.55,-1.11 0.95,-0.48 0.03,-1.07 1.13,-1.59 1.32,-0.31 -0.08,-0.76 1.21,-0.79 0.95,-1.23 0.16,-1.43 1.54,-2.82 -1.08,-0.04 -0.35,1.11 -1.84,0.72 -0.37,0.59 -1.11,0.2 -0.54,0.64 -1.37,-0.6 -3.7,0.91 -0.38,-0.51 -0.46,-0.08 -0.3,-0.8 1.05,-2.3 0,-1.23 -1.16,-0.47 -0.56,-0.92 -0.7,-0.35 -0.89,-2.03 0.73,-2.42 0.62,-0.95 -0.44,-0.68 -0.05,-2.14 -0.38,-1.28 0.49,-1.11 -0.03,-0.87 -1.89,-0.44 -0.02,-1.27 -0.76,-0.44 -0.38,-0.75 -0.65,-5.09 -2.64,-1.31 -0.4,-1.31 -0.92,-1.35 -1.03,0.04 0.27,-0.72 1.51,-0.91 0.22,-1.39 -0.54,-1.11 0.97,-1.91 -0.43,-0.44 0.32,-0.44 0.62,0.44 0.89,-1.07 -0.59,-3.82 -2.4,-0.4 -0.92,-0.63 -0.11,-0.84 2.19,-0.04 0.67,-1.03 0.11,-0.52 -0.3,-0.36 -0.02,-0.91 -0.49,-0.28 -0.27,-1.95 0.38,-1.27 0.67,-0.12 0.84,-0.68 -0.92,-1.75 -1.37,-0.16 -0.17,-0.95 -0.24,-0.2 -0.48,0.28 -0.68,-0.44 -0.13,-0.68 -0.92,-0.91 -0.16,-0.96 -0.81,-0.48 0.43,-1.39 1,-0.04 1,-0.48 -0.49,-1.51 0.14,-2.15 -0.19,-0.32 -2.57,0.16 -0.51,-2.03 0,-2.71 -0.94,-1.83 0.91,-0.79 -0.97,-0.44 -0.08,-0.52 0.32,-1.51 0.76,-0.8 -0.03,-0.96 2.32,-0.03 2.08,-1.08 0.81,-2.31 0.25,-3.03 0.8,-0.87 2.14,1.19 0.81,-1.03 -0.19,-1.32 1.67,-0.72 0.86,-0.79 -0.29,-1 1.62,-2.87 1.61,-0.4 -0.18,-3.54 0.62,-1.56 0.46,-3.75 0,0 2.48,1.08 1.35,0.04 5.26,-2.31 3.26,-0.2 2.73,-2.08 2.51,0.48 2.24,-1.67 0.11,-0.44 -1.41,-2.63 -1.26,0.43 -0.27,0.76 -0.62,0.32 -1.65,0.4 -1.97,-0.08 -0.73,-1.71 -1.05,-0.2 -0.03,-2.32 -1.11,-1.31 0,-1.4 3,-0.64 0.78,-1.16 0.14,-1.03 0.97,0.36 0.62,-0.52 0.54,-1.16 0,-1.12 1.21,0.56 6.53,-1.64 0.08,-2.27 1.46,0.04 0.27,-0.24 0.16,-0.48 -0.48,-0.12 -0.08,-0.36 0.56,-0.36 0,-1.59 0.73,-0.76 0.78,-0.08 4.86,1 0.17,1.75 0.86,-0.32 0.64,0.56 3.03,0.4 0.4,0.28 1.49,2.87 1.64,-0.12 0.57,1.52 0.3,0.36 0.51,0 0.03,0.36 -2.16,0.64 -0.19,1.87 -1.19,1.28 0.11,0.64 0,0 -1.05,0.88 -0.46,1.31 -0.73,0.44 -1.24,0.08 -3.02,2.31 0.27,1.08 -0.63,0.68 0.57,2.03 -0.43,0.76 0.78,0.44 1.86,-0.24 0.36,0.32 0.1,0.96 -1.4,0.63 1.35,1.32 0.62,1.24 0.62,2.91 0.97,1.35 0.57,0.08 0.48,-0.24 2.51,-4.02 0.95,-4.27 0.51,-0.52 1.78,-0.64 -0.94,-3.47 0.32,-1.23 1.24,-1.68 2,-0.68 1.29,-0.8 0.14,-3.27 0,0 1.78,-1.95 0.57,-1.88 -1.92,-4.71 -0.65,-5.55 0.14,-0.75 1.62,-1.4 0.65,-1.96 1.18,-0.32 1.11,1 0.35,2.32 -0.65,0.63 -1.1,0.36 -0.19,0.72 0.24,0.68 2.05,0.08 1.92,-1.04 1.64,-3.83 -0.32,-1.52 -3.27,-3.03 0,0 -1.16,-1.68 -0.24,-1 0.43,-3 0.49,-1.23 0.51,-0.2 0.35,-0.04 0.95,1.23 1.02,-0.2 1.08,-0.91 0.13,-1.52 -0.8,-3.28 0.35,-0.72 5.18,-1.04 z" 
                fill="rgb(151, 144, 238)" 
                stroke="white" 
                stroke-width=".7px"
                title="Zürich" 
                id="CH-ZH" 
            />
        </svg>