<svg xmlns="http://www.w3.org/2000/svg" viewBox="529.2075200000003 234.11016 26.270000000000095 26.660000000000025" width="26.270000000000095" height="26.660000000000025">
            <path 
                d="m 546.67752,258.03016 -0.26,0.25 -1.01,-0.38 0.13,0.49 -1.39,-0.68 -0.39,0.15 -1.13,1.24 -1.03,0.49 0.64,1.18 -1.41,-0.16 -1.17,-0.87 -0.16,-0.83 -0.62,-0.38 -0.74,0.24 -1.79,-0.43 -0.31,0.39 -0.48,-0.51 -0.23,0.56 -0.88,0.27 -0.36,0.58 -0.67,0 -0.86,-1.44 -1.53,0.04 -1.07,-0.92 0.1,-1.41 -0.84,-0.56 1.84,-0.66 -0.64,-0.47 -0.05,-1.13 -1.16,-0.67 0.3,-1.2 2.09,-1.53 1.75,-0.28 0.4,-0.7 0.75,0.64 0.5,-1.32 1.01,-0.69 -0.62,-1.53 -0.5,-0.07 -1.27,-1.42 0.06,-0.77 -0.52,-0.18 0.29,-0.65 1.92,-1.26 0.95,0.63 1.49,-0.59 1.7,-2.86 0.71,0.52 1.47,-0.49 0.57,0.29 0.06,-0.37 -1.61,-1.83 0.04,-0.49 0.39,-0.17 0.4,0.61 0.91,0.15 -0.26,-1.36 1.81,-0.03 0.17,-1.1 0.45,-0.25 0.64,0.43 -0.25,0.93 0.61,1.26 0.96,0.97 0.69,0.17 1.87,2.32 1.85,-0.14 2.09,0.79 1.21,-0.43 1.19,0.24 -0.01,0.48 -0.67,-0.26 -0.22,0.32 0.17,0.91 -1.75,0.01 -0.81,0.51 0.14,0.53 -0.65,0.29 0.44,1.01 -0.16,1.01 1.6,2.37 0.45,0.07 0,0 0,0.93 -2.34,1.45 0,0 -1.74,0.34 -0.75,0.54 -0.7,-0.3 -2.07,0.32 -0.28,1.01 0.3,1.04 1.7,0.86 0.4,1.11 -0.58,0.45 -0.07,0.97 0,0 0.06,0.3 -0.65,0.25 z" 
                fill="rgb(151, 144, 238)" 
                stroke="white" 
                stroke-width=".7px"
                title="Beijing" 
                id="CN-11" 
            />
        </svg>