<svg xmlns="http://www.w3.org/2000/svg" viewBox="242.9675200000003 205.12016 201.47999999999948 162.2900000000003" width="201.47999999999948" height="162.2900000000003">
            <path 
                d="m 298.82752,205.12016 8.28,18.92 -2.77,2.79 -0.11,0.58 4.56,6.07 0.39,-0.16 2.86,2.59 1.3,0.6 0.24,0.53 0.22,0.76 -1.43,5.18 4.95,-0.28 2.79,-3.5 3.92,-1.86 4.92,0.26 1.38,-1.4 4.27,0.44 0.99,0.39 1.68,2.68 0.16,2.01 -2.77,3.37 -1.43,3.06 -3.64,2.44 -2.1,3.08 3.94,-0.16 3.14,2.39 3,0.86 0.65,0.97 0.23,1.79 2.29,0.63 -0.02,1.33 4.4,0.02 -0.25,3.01 0.42,1.52 -0.3,0.71 0.19,1.02 1.1,-0.57 0.96,1.45 2.58,-1.08 -0.56,1.12 0.53,0.25 0.32,1.08 1.12,0.38 -0.05,1.07 2.56,0.92 1.09,1.03 0.75,-0.49 0.9,0.02 0.38,0.42 0.97,-0.24 0.13,-0.72 2.73,-2.78 -3.35,-3.33 4.87,-1.11 3.23,-1.35 1.91,1.17 4.99,1.29 1.54,-1.63 1.65,-0.74 1.35,-1.59 6.01,-1.84 1.32,-0.09 1.89,0.76 -0.49,1.96 1.94,3.32 -0.4,2.46 -1.8,0.81 -1.97,3.97 -5.86,3.82 0.91,1.3 0.76,2.75 -2.3,1.03 0.61,3.88 3.26,0.98 2.82,3.09 3.62,2.91 1.27,-0.32 0,0 1.75,0.32 0.72,-0.53 2.4,0.53 0.9,-0.21 -0.8,0.91 0.47,0.41 -1.46,1.02 0.41,0.75 0.59,0.51 0.45,-0.08 0.97,-0.79 0.8,0.47 0.78,1.89 0.78,0.84 2.48,0.92 0.24,1.56 0.47,-0.16 0.61,0.43 0.73,1.25 -0.44,0.62 -1.2,0.6 0.8,2.2 -0.25,0.5 1.29,0.54 0.7,2.28 0.88,1.06 -0.16,0.87 0.58,1.41 -0.21,0.71 -0.83,0.03 -1.24,1.31 0.07,1.93 0.79,0.55 -0.29,0.81 0.64,-0.25 0.4,1.04 0.47,0.44 0.79,-0.02 0.15,0.59 1.01,-0.86 1.33,0.15 0,0.43 -0.52,-0.17 -0.2,0.44 1.27,1.84 0.32,-0.04 0.3,1.23 0.64,-0.92 1.61,0.4 -0.02,0.44 0.88,-0.07 -0.48,0.72 0.07,-0.53 -1.94,0.4 0.01,0.78 2.24,-0.72 -0.29,0.48 0.67,1.06 0.83,-1.17 0.21,0.42 0.55,-0.01 0.18,1.09 1.42,1.6 1.73,-1.9 0.09,-1.34 -0.44,-0.15 0.13,-0.36 -0.48,-0.74 0.44,-0.89 -0.49,-1.7 1.28,-0.78 1.27,0.56 0.52,-0.21 0.69,0.61 0.21,-0.69 0.75,0.2 0.24,-0.52 0.45,0.07 0.08,-0.54 0.42,0.1 -0.15,-0.59 0.36,0.03 -0.97,-1.27 1.11,-0.67 -0.54,-0.27 0.65,-0.6 -0.01,-2.25 -0.41,0.2 -1.09,-1.72 -0.83,0.2 -1.05,-0.8 -0.72,0.06 -0.68,-0.43 -0.25,0.56 -0.7,-0.2 -0.27,-0.6 0.49,0.21 0.08,-1.42 -0.42,-0.46 0.41,-0.98 -2,-1.44 1.17,0.12 -0.17,-0.89 0.53,-0.21 0.52,-1.51 0.79,-0.34 0.81,0.45 -0.25,-0.43 0.38,-1.09 -0.45,-0.65 0.27,-0.44 -0.59,-0.13 -0.74,-1.31 0.53,0.59 0.27,-0.42 0.46,0.1 0.13,-1.48 -0.49,-1.24 1.43,0.22 0.39,0.47 0.41,-1.03 1.35,0.82 0.07,-0.7 1.5,0.59 0.19,-0.38 0.82,0.16 0.86,-0.38 1.4,1.05 0,0 0.42,2.62 2.23,0.16 0.71,1.23 1.41,0.18 0.36,-0.25 0.37,0.45 2.39,0.68 0.65,1.63 0.8,-0.38 0.11,0.41 -0.35,0.26 0.57,0.63 0.64,-0.07 0.76,0.65 0.84,-1.13 -0.02,0.96 1.07,0.42 0.59,-0.18 1.06,1.88 1.05,-0.62 2.51,1.66 -0.28,1.21 -0.53,0.47 0.79,1.93 -0.3,1.82 -0.45,1.13 -0.91,0.01 -1,0.97 0.33,0.95 -0.02,2.76 1.22,1.45 -0.17,3.24 -0.26,0.47 -1.23,0.41 -1.5,-0.05 -0.33,-0.31 -1.34,0.67 -0.14,-0.45 -0.66,-0.24 -2.72,1.04 -0.03,-0.37 -1.15,0.1 -1.03,-0.66 -0.69,-0.03 -0.2,0.81 -0.8,0.12 1.24,2.37 1.35,1.42 -0.65,0.63 -2.1,0.44 -0.19,-0.54 -0.67,-0.13 -0.51,0.92 -2.99,-0.38 -0.28,0.52 -0.91,0.31 -0.37,-0.85 -0.99,-0.5 -0.06,-0.78 -0.88,-0.2 -1.24,-0.93 -4.68,0.11 -0.76,1.3 0.04,0.94 0.97,1.93 -0.44,0.5 0.22,0.47 -0.59,0.08 -0.74,0.79 0.16,0.85 -0.49,-0.09 -1.36,1 0.37,0.9 0.72,0.17 0.84,-0.31 0.97,0.71 0.36,-0.09 0.93,1.48 0.92,0.29 -0.57,1.91 -1.01,-0.07 -0.2,-0.44 -0.64,-0.17 -0.38,0.57 0.07,0.28 0.62,-0.1 0.53,1.55 -1.15,0.55 -0.33,1.99 -0.71,1.21 0.08,0.41 0.55,-0.06 0.3,0.37 -0.42,0.81 0.33,0.34 -0.05,0.96 0.73,0.24 0.61,1.64 -0.81,1.25 -0.26,-0.43 -0.59,-0.07 -0.32,-1.3 -1.01,0.48 -0.8,-0.21 -1.28,0.82 -0.99,-0.33 -0.06,-0.61 -1.82,0.01 -1.46,1.73 -0.21,1.71 -1.5,-0.01 1.1,1.82 1.54,0.33 0.6,0.5 -0.03,0.88 -0.37,-0.7 -0.46,0.69 0.44,0.06 -0.18,2.23 -0.7,0.82 -0.44,-0.18 -2.39,1.07 -1.76,-0.43 0,0 -0.75,-0.27 -0.74,0.8 0.96,2.03 -2.14,1.28 -0.76,-0.18 -0.38,0.69 -1.01,0.38 -0.94,-0.79 -1.98,0.72 -0.68,-0.95 -1.19,0.35 -0.51,-0.55 -0.77,0.17 -0.83,-1 -1.45,-0.28 -1.25,-1.07 -0.68,-0.15 -0.35,-0.83 0.16,-0.82 1,-0.05 0.21,-0.76 0.55,-0.31 -1.15,-0.41 0.53,-1.01 -0.91,-2.88 1.21,0.26 0.36,-0.54 -0.71,-0.38 -0.99,0.18 -0.36,-0.89 -0.6,-0.14 -0.81,-2.09 0.18,-1.04 -1.56,-1.17 -3.51,0.42 -2.27,-0.82 -0.6,0.63 -0.49,-0.14 -0.24,-0.79 0.6,-0.7 -0.31,-0.47 -0.53,0.12 -0.41,0.78 -1.04,0.11 -2.49,-1.01 0.36,-1.37 -0.79,-0.93 0.46,-0.65 -0.38,-0.81 0.57,-0.52 -0.54,-0.37 -0.23,-0.91 -1.6,-0.29 -0.41,-1.47 -0.72,-0.35 -0.6,0.65 -0.71,-0.23 -0.71,0.34 -0.49,0.99 -1.08,0.6 0.63,1.2 -2.91,-0.11 -0.51,1.78 -1.48,-0.27 -0.36,0.48 -0.7,0.11 0.87,1.5 -0.23,0.93 1.03,0.43 -0.31,0.74 0.59,-0.31 -0.32,0.95 0.27,0.78 1.38,0.64 0.41,1.72 -0.26,-0.13 0.02,0.29 -1.3,0.91 -1.19,-0.4 -1.04,1.26 0.48,0.39 -0.22,1.32 -1.19,-0.7 -0.47,1.11 -1.11,-0.08 -1.35,1.35 -0.63,-0.2 0.16,-1.16 -0.84,-0.84 1.26,-0.87 0.16,-1 0.72,-0.97 -0.48,-0.62 0.06,-0.88 -0.87,-1.05 -0.47,-0.1 0.08,0.83 -0.4,0.27 0,0 -0.5,0.69 -1.32,0.02 -0.51,-2.59 -1.1,-0.46 -0.91,0.14 -0.43,0.68 -1.97,-0.5 -0.91,0.36 0.35,-1.99 -0.54,-0.78 -1.16,-0.24 -0.93,-0.7 -2.17,-3.7 -0.63,-0.5 0.66,-2.12 0.67,-0.28 0.32,-0.64 1.11,0.05 0.85,0.77 2.61,0.4 0.8,0.43 -0.02,0.35 3.75,0.98 0.49,0.53 -0.07,0.42 0.63,0.02 0.47,0.65 0.4,-0.71 0.88,-0.04 0.14,-0.38 1.25,0.67 0.09,-0.8 0.47,-0.07 0.24,-0.95 0.5,-0.05 0.15,-0.86 1.03,0.26 0.46,-1.35 0.88,0 -1.14,-1.57 -0.11,-0.73 -0.96,-0.52 -0.96,0 -0.91,-0.75 -0.21,-1.26 -1.08,0.74 -1.36,-1.18 1.28,-0.49 0.28,-0.6 0.91,0.49 0.03,-2.1 0.88,-0.25 -0.02,-0.62 0.9,-0.15 0.92,-1.07 1.14,-0.65 0.76,0 0.73,-1.59 0.68,-0.17 -0.08,-1 -0.45,-0.2 -0.02,-0.49 -0.89,-0.38 0.44,-0.49 -0.37,-0.65 0.18,-0.76 1.66,0 1.36,-2.08 0.57,0.39 1.77,0.19 0.46,-1.42 -0.83,-1.8 -0.04,-1.03 1.2,-0.93 2.09,0.4 -0.14,-1.67 0.37,-1.5 -1.1,-0.74 0.67,-0.3 0.73,-1.44 0.89,-0.16 -0.49,-0.73 -2.39,-1.35 -1.44,-4.26 -1.09,-0.49 -0.47,-0.92 0.06,-0.39 1.56,-0.57 -1.21,-1.51 -0.82,-0.39 -0.18,-0.58 -1.19,-0.8 0.5,-0.84 -0.09,-0.95 1.3,-1.23 -1.39,-0.89 -0.65,-1.06 -0.87,0.14 -0.17,-0.79 -1.75,-1.46 -0.11,0.26 -1.16,-0.84 -1.2,-0.23 0.8,-1.58 -1,-0.6 -0.26,-2.49 -1.39,1.53 -0.39,2.53 -1.01,-0.24 -0.48,-1 -0.96,-0.23 -3.73,-3.06 -1.89,-0.87 -1.26,-1.46 -1.84,-1 -0.48,0.26 -1.16,-0.94 -2.41,-0.86 -0.47,-2.3 -1.32,-0.61 -0.45,0.28 -0.29,-0.49 -1.25,-0.34 -0.38,-1.03 -0.54,0.19 -0.52,-1.36 -1.34,-0.56 0.07,0.87 -0.45,0.44 0.53,1.11 0.47,0.19 0.16,1.79 -1.15,-1.02 -5.11,-2.5 -1.86,-1.77 -0.31,-1.07 -0.75,0.13 -1.09,-1.82 -3.7,-2.89 0.49,-0.88 -1.07,-0.51 -0.34,0.37 -2.23,-2.01 -0.73,0 -2.26,2.44 -0.46,-0.33 -1.12,0.02 -0.93,-1.24 -1.18,-0.12 -0.25,1.33 -2.3,2.56 -0.92,-1 -3.97,-1.7 -0.28,-0.76 -2.26,-1.1 -1.94,-1.44 -4.05,-0.59 -1.03,1.58 0.68,0.83 -0.06,2.02 -0.45,0.81 0.44,0.47 -0.3,0.48 0.24,1.87 -0.64,0.45 0.03,0.89 0.67,0.5 -0.41,4.05 -1.9,-0.3 -1.38,-1.08 -0.94,0.08 -1.04,-0.44 -0.37,-0.37 0.12,-1.04 -2.59,-1.65 -1.16,0.3 -1.1,-0.86 -0.58,0.4 -0.53,-0.53 -0.11,-1 -1.82,-0.44 -1.6,-1.72 -0.15,0.36 -0.92,-0.44 -1.28,-1.41 -0.21,-0.73 -0.84,-0.11 -1.09,-0.83 -1.59,-2.14 -1.7,0.43 -2.96,-1.06 -0.26,0.35 -2.14,-0.31 -1.3,-1.11 -4.42,0.01 -0.34,-0.53 -1.35,0.37 -0.24,0.54 -1.57,0.29 -1.57,0.13 -0.53,-0.42 -1.71,0.46 -2.62,-0.56 -0.71,1.09 -1.73,0.14 -1.94,0.82 -0.43,-0.32 -0.92,0.52 -0.83,0.06 -0.31,-0.39 0,0 -0.31,-1.98 0.29,-0.57 -0.07,-2.08 -0.87,-1.51 -1.4,-5.42 1.95,-3.68 -0.06,-6.51 5.56,0.43 3.61,-2.34 2.12,-4.37 2.47,-3.55 5.24,-5.06 3.32,-3.87 5.07,-2.65 5.79,-1.27 1.86,0.54 2.19,-0.31 1.64,-0.91 0.82,-1.95 -0.37,-1.72 0.9,-8.32 3.39,-2.01 0,0 3.92,-0.44 3.26,0.52 z" 
                fill="rgb(151, 144, 238)" 
                stroke="white" 
                stroke-width=".7px"
                title="Gansu" 
                id="CN-62" 
            />
        </svg>