<svg xmlns="http://www.w3.org/2000/svg" viewBox="391.03752000000026 457.1401599999999 95.64999999999958 68.51999999999941" width="95.64999999999958" height="68.51999999999941">
            <path 
                d="m 454.16752,462.10016 0.58,0.47 1.42,-0.7 0.14,0.43 0.89,0.43 -0.77,1.45 1.08,-0.13 0.52,0.31 0.49,-0.69 -0.44,-1.41 0.29,-0.33 0.69,0.14 0.48,-1.6 0.75,-0.71 0.77,0.55 0.74,-0.16 -0.23,1.75 1.1,0.36 0.52,-0.7 0.62,0.64 0.1,0.84 0.91,-0.18 0.65,-1.66 1.19,-1.18 0.46,0.02 0.44,-1.2 0.43,-0.03 0.46,-0.97 1.24,0.59 0.39,-0.31 -0.12,0.63 0.37,0.28 1.73,-0.34 0.29,0.26 0.22,-1.56 0.39,-0.25 0.34,0.9 2.13,0.24 0.46,0.53 0.78,0.03 0.28,0.17 -0.25,1.71 -0.83,1.75 0.23,1.54 0.77,0.6 0.61,-0.66 2.04,0.5 -0.85,0.41 0.19,0.89 -1.71,0.79 0.06,1.03 0.38,0.5 -0.54,2.25 -2.5,2.21 0.06,0.95 -1.35,0.78 -0.63,1.52 0.13,0.7 0.5,1.08 0.65,-0.06 0.62,-0.24 0.02,-1.2 1.09,-0.5 1.05,-1.09 0.95,0.67 0.65,-0.47 0.52,0.42 -0.23,0.79 0.63,0.3 -0.47,0.65 0.49,0.6 -0.26,1 0.38,0.82 -0.53,1.79 1.59,0.44 0.33,-0.75 0.63,0.14 0.04,-0.68 0.8,-0.73 2.12,0.37 1.11,-0.16 0.76,0.42 0,0 -0.8,0.33 -0.4,1.18 0.95,1.13 -0.2,1.11 0.94,1.54 -1.03,1.34 -0.32,-0.11 -1.05,0.77 0.06,1.67 0.66,1.68 -0.95,0.25 0.12,0.41 -0.64,0.43 -0.09,1.01 -1.32,-0.37 -0.69,0.3 -0.38,1.21 0.62,0.24 -0.62,0.95 -1.62,0.18 -0.1,1.16 -0.99,1.05 -0.52,1.81 0.29,0.36 -0.34,0.34 0.52,1.64 -0.25,0.99 0.66,0.77 -0.89,1.01 0.22,0.43 -0.25,0.55 -1.77,1.94 -2,0.26 0.4,0.47 -0.43,0.58 -1.24,0.15 -0.14,0.41 -1.6,0.38 -0.21,0.34 -0.44,-0.31 -0.32,1.56 -0.74,-0.05 0.33,0.37 0.01,1.06 0.37,0.03 0.58,1.09 -0.74,-0.17 -0.39,0.27 -0.58,0.6 0.33,0.62 -0.49,0.5 -0.85,-0.61 -0.8,0.64 -1.1,-0.82 -0.55,0.55 -0.45,-0.34 -0.2,0.39 0.52,0.48 -0.16,1.91 0.36,0.39 -0.06,0.97 -0.63,0.01 -0.37,-0.38 -0.67,0.5 -1.57,-0.29 -0.79,0.47 -0.97,-0.21 -0.55,0.71 -0.46,2.3 -1.29,0.24 -0.36,-0.47 -0.25,1.39 0,0 0.04,1.54 -1.29,-0.82 0.16,-1.08 -0.35,0.54 -0.34,-0.25 -0.62,-1.5 0.22,-0.66 -0.44,0.1 -0.25,0.3 0.69,1.81 -0.43,0.92 -1.17,0.61 -2.47,0.51 -0.16,-0.63 -0.21,0.79 -0.86,0.1 -1.45,-0.62 1.49,-0.92 -0.27,-0.78 -0.86,-0.12 -0.26,-0.43 -1.05,0.29 -0.7,-0.21 -0.76,-0.98 0.17,-1.29 -0.4,1.2 0.43,0.9 -0.93,-0.17 -0.65,0.45 -1.28,-2.13 -0.45,0.63 -0.47,-0.49 0.11,-1.54 -0.42,-0.37 -0.84,0.76 0.92,1.08 -0.25,0.29 0.58,0.29 -0.02,0.6 -1.13,1.43 -1.08,0.11 0.24,-1.54 -0.35,0.09 -0.31,0.82 -0.24,-0.28 0.32,-0.46 -0.65,0 0.03,1.07 -1.33,1.06 0.47,-0.94 -0.1,-0.65 -1.19,0.67 0.51,0.46 -0.79,0.2 -0.43,-0.5 -0.2,0.28 -0.46,-0.32 -1.06,0.25 -1.22,-1.56 -0.95,-0.02 -1.31,0.62 -1.3,-0.1 -0.63,0.37 -0.75,-1.02 -1.32,0.89 -0.05,-0.95 -0.7,-0.97 -0.88,0.47 -1.86,-1.39 -0.76,-0.14 0.44,-1.51 -0.74,-0.16 -0.5,0.33 -0.73,-0.71 -1.16,-0.03 -0.54,-0.53 -0.83,0.62 -0.23,-0.18 0.35,-1.57 -0.09,-0.88 -0.45,-0.34 0.42,-0.47 -0.14,-0.76 -0.5,-0.86 -1.17,-0.13 0.36,-0.43 -0.38,-0.91 0.63,-2.08 0.92,0.41 0.66,-0.26 0.4,-2.05 0.9,-0.87 -0.8,-0.15 -0.78,-0.96 -0.53,-0.08 -0.27,0.35 -0.65,-0.9 -0.4,0.2 -0.53,-0.4 -0.34,0.59 -1.61,0.27 -0.24,0.39 -0.92,-0.18 -1.03,-1.65 -2.45,-0.03 -0.06,0.69 -0.99,-0.2 -0.62,0.42 -0.56,-0.97 -1.11,-0.5 -0.06,-0.41 -2.04,-0.13 -0.1,-0.63 0.35,-0.39 -0.67,-0.63 0,0 -0.18,-0.74 0.79,-0.92 0.81,-0.54 0.48,0.3 -0.53,-0.95 0.62,-0.04 0.74,-0.79 0.6,-0.11 0.25,-0.66 0.69,-0.19 0.36,0.41 0.97,0.14 0.17,0.57 1.79,-1.67 -0.27,-0.42 0.49,-1.5 -0.27,-1.18 0.7,-0.4 -0.25,-0.51 0.31,-0.13 -0.65,-0.48 -0.62,-1.69 -1.2,-1.38 -1.04,0.09 -0.25,0.97 -0.53,-0.11 -0.2,0.43 -0.62,-0.09 0.15,-0.31 -0.4,-0.22 -1.38,0.42 -0.71,-1.33 -0.92,0.14 -0.61,1.46 -0.92,-0.22 -1.15,-1.1 -0.77,0.66 -1,-0.96 0.66,-0.69 -0.66,-1.28 0.18,-0.74 -1.07,-0.49 -0.13,-0.7 -0.66,-0.26 -1.33,0.46 -2.31,-0.71 -0.57,0.19 0.07,1.47 -0.33,0.24 -1.1,-0.81 0.08,-0.38 -1.36,-2.28 -0.29,-1.07 0.62,-1.1 0,0 2.53,1.53 0.41,-0.54 1.01,-0.27 0.38,-0.87 2.02,-0.73 0.09,-1.16 0.41,-0.53 1.72,-1.1 0.78,0.88 1.94,-0.01 1.05,1.75 1.12,0.01 2.69,1.43 1.54,-0.33 1.15,1.22 0.4,-0.76 1.52,-1.02 0.34,-1.35 -0.65,-1.34 1.94,-0.22 1.76,-0.65 1.82,-0.9 0.89,-1.13 2.96,-0.22 0.39,-0.88 0.83,0.13 0.3,-1.47 -0.4,-0.26 -0.23,-0.95 1.35,-1.14 -0.1,-0.6 2.09,-0.64 0.05,0.67 1.36,0.98 -0.37,0.83 1.39,0.46 0.15,1.45 0.62,-0.16 -0.08,1.2 2.4,-1.41 0.37,1.63 0.74,-0.6 0.46,1.2 -0.16,0.46 0.93,0.01 1.91,-1.05 1.33,-0.04 0.56,-1.64 -0.19,-0.83 0.63,-0.37 -0.46,-0.48 0.54,-0.22 0.6,0.42 0.04,-0.5 0.98,-0.97 0.96,0.65 0.24,0.63 0.95,-0.15 1.37,1.78 0.34,-0.39 -0.35,-1.59 0.5,-0.25 -0.07,-0.44 0.63,-0.08 -0.24,-0.72 0.61,-0.67 0.91,-0.12 -0.18,0.45 0.49,0.98 1.63,-0.42 1.28,0.51 0.44,-0.36 -0.42,-0.38 -0.08,-1.01 0.49,-1.24 -0.86,0.06 -0.8,0.82 -0.46,-0.04 -0.1,-0.5 0.88,-0.26 0.31,-0.74 0.99,0.07 0.54,-0.41 0.27,0.81 0.58,-0.22 -0.14,-0.58 0.86,1.15 1.22,-0.19 -0.28,-0.53 0.29,-0.77 1.21,-1.36 -0.32,-0.53 0.97,-0.96 z" 
                fill="rgb(151, 144, 238)" 
                stroke="white" 
                stroke-width=".7px"
                title="Guangxi Zhuang" 
                id="CN-45" 
            />
        </svg>