<svg xmlns="http://www.w3.org/2000/svg" viewBox="456.46752000000015 469.2601599999998 95.0899999999998 72.25999999999965" width="95.0899999999998" height="72.25999999999965">
            <path 
                d="m 497.03752,520.64016 -0.91,1.14 0.21,0.44 -0.34,0.5 0.28,0.42 -0.55,0.29 -0.51,-0.62 0.7,-0.85 -0.66,0.11 -0.34,-0.44 1.25,-0.94 0.87,-0.05 z m 4.55,-1.58 0.7,-0.1 -0.21,-0.71 -0.51,0.12 0.02,0.69 z m -34.08,10.81 0.42,-0.04 0.67,-1.56 -1.21,0.23 -0.19,0.73 0.31,0.64 z m 0.34,2.97 0.59,0.06 0.41,-0.93 -0.54,-0.28 -0.6,0.72 0.14,0.43 z m 24.78,-9.7 0.43,-0.05 -0.23,-0.22 0.33,-0.21 0.65,0.2 0.53,-0.37 -0.34,-0.25 0.43,-0.54 -0.21,-0.29 -0.76,0.31 -0.83,1.42 z m 55.67,-27.31 0.75,-0.46 0.41,0.23 0.56,-0.49 0.22,1.42 1.32,-1.04 0,0 -1.81,-1.24 -0.35,-1.66 -0.64,-0.99 0.14,-1.31 -0.7,-1.21 0.87,-1.29 -0.74,-0.59 -0.29,-1.93 -0.88,-0.91 0.08,-0.63 -1.16,-0.95 0.73,-1.36 -0.21,-0.47 -2.51,0.39 -1,0.56 -0.38,-1.43 -0.89,-0.37 0.03,-0.42 -0.58,-0.44 0.53,-0.54 -0.3,-0.47 -0.48,0.08 -0.6,0.91 -0.82,0.14 0.09,-0.46 -0.68,-0.54 -1.59,0.17 -0.59,-0.69 -1.8,-0.46 0,0 0.23,0.8 -1.06,-0.34 -0.76,2.17 0.58,0.8 -0.45,0.32 0.88,1.38 -1.5,0.34 -0.54,-0.8 -1.3,-0.33 -1.18,-1.89 -0.79,-0.3 -0.58,0.09 -0.14,0.48 -0.94,-0.2 -2.17,1.26 -0.56,-0.59 -1.58,0.77 -0.42,-0.18 -0.52,1.42 -1.57,-0.73 -0.46,1.16 -0.64,-0.67 -0.84,0.6 -0.76,-0.26 -1.28,0.93 -0.94,-1.39 -0.62,0.21 -0.36,-0.77 -1.33,-0.62 1.98,-1.04 0.03,-0.82 0.84,-0.98 -0.06,-1.03 1.75,-0.98 0.36,-0.87 1.09,0.11 0.33,-0.47 0.71,-0.12 -0.16,-0.57 -0.46,-0.17 0.76,-0.97 -0.06,-0.52 -0.44,-0.55 -0.89,-0.14 -1.23,-1.24 -0.48,0.52 -0.75,-0.03 -0.64,0.91 -1.05,-0.21 0.06,0.44 -0.94,0.15 -1.41,-0.3 -1.13,0.8 -0.21,-0.43 0.28,-1.08 -0.68,-0.52 0.14,-0.49 -0.41,-0.3 0,0 -0.95,0.29 -0.83,1.47 -0.7,0.03 -0.16,-0.48 0,0 -2.23,0.69 0,0 -0.01,-0.44 -0.48,-0.29 -1.22,0.06 -0.93,-0.54 -0.17,-0.54 -0.62,-0.11 -0.13,-1.02 -0.2,0.29 -0.61,-0.22 -0.92,0.38 -0.4,1.05 -0.35,-0.07 -1.07,0.98 -0.9,0.1 -0.2,0.46 -0.86,-0.38 0.08,1.19 1.41,-0.09 0.68,0.82 -0.85,0.53 0.58,1.01 -0.44,0.81 0.46,0.64 -0.09,0.68 -1.84,0.46 -1.03,0 0.02,-0.61 -0.48,-0.29 -0.03,-0.54 -0.47,-0.14 0.25,-0.69 -0.84,-0.99 -1.46,0.06 -1,-0.31 -0.22,-0.45 -0.6,0.55 -0.44,-0.69 -1.29,0.45 -0.65,-0.59 -0.73,2.55 -0.44,0.48 0.72,0.96 -0.23,1.05 -0.65,0.11 -1.03,1.27 0,0 -0.8,0.33 -0.4,1.18 0.95,1.13 -0.2,1.11 0.94,1.54 -1.03,1.34 -0.32,-0.11 -1.05,0.77 0.06,1.67 0.66,1.68 -0.95,0.25 0.12,0.41 -0.64,0.43 -0.09,1.01 -1.32,-0.37 -0.69,0.3 -0.38,1.21 0.62,0.24 -0.62,0.95 -1.62,0.18 -0.1,1.16 -0.99,1.05 -0.52,1.81 0.29,0.36 -0.34,0.34 0.52,1.64 -0.25,0.99 0.66,0.77 -0.89,1.01 0.22,0.43 -0.25,0.55 -1.77,1.94 -2,0.26 0.4,0.47 -0.43,0.58 -1.24,0.15 -0.14,0.41 -1.6,0.38 -0.21,0.34 -0.44,-0.31 -0.32,1.56 -0.74,-0.05 0.33,0.37 0.01,1.06 0.37,0.03 0.58,1.09 -0.74,-0.17 -0.39,0.27 -0.58,0.6 0.33,0.62 -0.49,0.5 -0.85,-0.61 -0.8,0.64 -1.1,-0.82 -0.55,0.55 -0.45,-0.34 -0.2,0.39 0.52,0.48 -0.16,1.91 0.36,0.39 -0.06,0.97 -0.63,0.01 -0.37,-0.38 -0.67,0.5 -1.57,-0.29 -0.79,0.47 -0.97,-0.21 -0.55,0.71 -0.46,2.3 -1.29,0.24 -0.36,-0.47 -0.25,1.39 0,0 0.66,1.45 1.23,0.1 0.1,0.37 0.46,-0.19 -0.45,0.38 0.08,0.74 -1.95,0.15 0.15,1.74 -1.22,1.34 0.46,0.79 -0.58,2.17 1.32,2.6 -0.35,1 0.67,0.07 0.4,0.64 0.04,1.05 0.9,0.14 0.96,0.73 0.51,-0.1 -0.48,0.82 -0.94,-0.7 -0.15,0.43 -0.48,-0.03 0.91,0.9 -0.09,1.56 0.85,-0.96 0.31,0.38 0.58,-0.36 0.92,0.67 0.66,0.06 0.16,-0.48 1.39,0.21 1.68,-0.94 1.19,-1.99 -0.53,-1.14 -0.35,-1.52 -0.75,0.2 -0.63,-0.37 -0.24,-0.14 -0.08,-0.56 0.74,0.4 -0.01,-1.48 -0.76,-0.46 -1.65,-0.09 -0.4,-1.67 0.6,-0.84 0.41,0.28 0.64,-0.92 0.07,0.42 -1.22,1.2 0,0.41 1.84,-0.69 1.47,0 0.76,0.93 0.29,-1.9 -1.46,0.21 -0.43,-0.58 -0.88,0.29 0.01,-0.42 1.11,-1.19 1.04,-0.41 0.37,0.22 1.32,-0.28 1.78,-2.28 1.45,0.17 2.45,-1.08 -0.32,-0.32 -0.54,0.18 -0.16,-0.36 0.39,-0.34 0.55,0.2 0.32,0.71 2.36,-0.42 -0.38,1.04 2.4,-1.99 0.34,0.78 1.55,-0.39 0.62,0.24 0.59,-1.1 1.14,-0.83 0.06,-0.72 -1.19,-0.55 0.05,-0.3 1.21,-0.07 0.81,1.48 0.68,-0.28 -0.25,0.6 -0.68,-0.06 0.19,0.53 -0.52,0.69 0.62,-0.04 0.66,-0.59 1.33,-0.38 -0.37,-0.33 -0.74,0.08 -0.23,-0.53 0.24,-0.34 2.38,-1.14 0.98,0.06 0.13,0.68 0.71,0.59 1.77,-0.47 0.24,-1.23 1.76,0.88 0.61,-0.05 2.28,-2.46 0.99,0.27 -0.02,0.47 0.72,0.51 1.33,-1.29 -0.29,-2.04 0.99,-0.92 0.02,-0.75 0.38,1.02 -0.13,1.05 1.04,1.58 0.8,-0.69 -0.11,-0.5 0.34,-0.21 0.45,0.73 0.81,0.18 0.56,-1.07 -0.46,-0.27 -0.01,-0.61 0.46,-0.37 -0.2,-0.39 0.23,-0.12 1.04,1.71 0.6,-0.54 -0.39,-0.79 0.91,-0.96 -0.25,-0.81 0.49,-0.27 -0.2,-0.46 0.44,-0.3 -1.03,-0.23 0.01,-0.5 1.43,-2.35 -1.24,-1.82 0.74,-0.32 -0.35,-0.42 0.25,-0.21 0.69,0.39 0.04,0.44 0.55,-0.16 0.54,0.31 1.16,2.4 0.69,0.35 -0.49,0.46 0.31,0.56 0.63,-0.9 1.33,0.25 0,0 1.51,-0.77 0.82,0.23 0,0 0.61,-0.6 1.53,-0.34 1.13,1.06 0.2,1.17 1.38,-0.65 -0.15,-0.59 -0.67,-0.42 -0.59,0.23 0.13,-0.53 0.49,-0.05 0.6,-0.78 -1.2,0.09 0.26,-0.82 0.65,0.27 -0.08,-0.75 1.61,-0.69 0.9,0.1 0.2,-0.7 0.54,0.64 -1.03,0.65 -0.04,1.84 1.8,0.2 0.02,0.66 0.43,-0.23 -0.06,-0.97 0.69,-0.74 -0.61,-0.52 -0.43,0.19 -0.32,-0.78 0.6,0.26 0.44,-0.28 0.46,1.1 0.61,-0.25 -0.16,-0.31 0.48,-0.81 1.2,-0.34 0.39,0.49 -0.01,-0.64 0.44,-0.13 0.53,0.15 -0.32,0.56 2.41,-0.07 -0.3,0.54 -0.61,-0.16 0.04,0.64 0.37,0.31 1.1,-0.2 1.26,0.74 -0.1,-0.73 0.53,-0.66 -0.6,-0.02 -0.12,0.56 -0.37,-0.6 1.51,-1.57 0.7,-0.08 0.08,0.36 0.75,0.06 0.73,1.43 0.87,-0.82 0.26,0.16 1.12,-0.62 1.04,-0.19 0.25,0.4 0.53,-0.26 1.87,-1.63 1.13,0.4 1.54,-0.13 0.78,-1.2 -0.34,-1.32 0.3,-0.55 0.35,-0.33 0.84,0.28 0.81,-1.07 0.98,0.44 0.21,-0.38 -0.38,-0.04 -0.35,-1.37 1.34,-1.23 0.35,-1.68 1,0.11 -0.34,-0.57 z m 1.07,2.14 -0.44,-0.32 -0.48,0.49 2.31,0.49 0.35,-0.76 -0.33,-0.53 -1.41,0.63 z" 
                fill="rgb(151, 144, 238)" 
                stroke="white" 
                stroke-width=".7px"
                title="Guangdong" 
                id="CN-44" 
            />
        </svg>