<svg xmlns="http://www.w3.org/2000/svg" viewBox="504.41751999999974 207.86016000000004 80.59000000000049 107.03999999999999" width="80.59000000000049" height="107.03999999999999">
            <path 
                d="m 551.66752,250.28016 0.21,0.2 -0.43,0.35 0.04,1.16 -0.61,0.93 0.28,0.73 1.29,0.51 -1.29,0.41 0.5,0.82 -0.41,0.61 -0.11,1.75 -1.56,-0.44 -0.7,0.19 -0.32,-1.11 -0.68,0.23 0,0 0.07,-0.96 0.58,-0.46 -0.39,-1.11 -1.71,-0.86 -0.29,-1.04 0.27,-1.01 2.08,-0.32 0.7,0.3 0.74,-0.54 1.74,-0.34 z m -38.75,-10.8 -1.16,-1.48 0.39,-0.51 -1.27,-2.1 -1.94,-1.91 0.74,-0.3 0.46,-0.91 0.88,-0.16 0.4,-0.87 -1.19,-0.87 -0.2,-0.5 0.42,-1.14 -0.83,-0.45 -0.05,-0.5 1.97,-1.38 2.82,0.22 -0.34,-0.69 0.25,-0.61 -0.39,-3.62 1.58,-2.07 2.02,-0.75 -0.24,-1.44 0.38,-0.98 0.82,-0.42 2.36,0.49 0.41,-0.97 0.4,-0.05 0.62,0.73 -0.61,1.23 0.99,0.94 0.58,2.77 -0.92,0.53 0.36,1.84 -0.5,1.65 1.04,-0.37 1.44,0.2 0.69,-0.46 1.62,0.86 0.47,-0.8 0.33,0.5 0.76,-0.33 -0.68,-0.97 0.28,-0.61 1.19,-0.33 2.77,-1.63 0.44,-0.68 0.49,-0.02 0.13,-0.43 0.42,0.05 0.8,-0.81 1.16,-0.09 0.99,2.05 -0.06,0.67 0.74,0.15 0.65,-0.25 0.07,-1.12 1.09,-0.18 0.28,-1.14 0.97,-0.56 0.41,-0.69 1.03,0.2 -0.16,0.88 0.72,-0.07 0.54,-0.57 0.72,0.86 1.42,-0.32 0.82,0.22 0.18,-0.81 0.79,0.05 0.92,-0.67 0.06,-1.56 -1.25,-1.47 1.63,0 -0.25,-2.2 0.34,-1.36 2.16,-1.32 3.59,0.36 1.13,-1.13 0.1,-0.98 0.78,0.04 0.19,-0.45 0.7,0.76 2.46,-0.81 0.02,0.56 2.74,3.16 -0.13,0.83 0.64,0.83 -1.15,0.95 1.73,1.2 -0.18,1.06 0.8,0.48 -0.49,0.75 1.06,0.07 0.16,-0.81 0.62,-0.08 0.34,0.84 -0.64,0.23 0.87,0.73 -0.56,1 0.94,1.21 -0.69,1.41 -0.45,-0.14 -0.21,-0.64 -0.74,-0.04 -0.53,1.22 0.36,1.12 0.69,0.57 0.09,0.9 1.15,0.38 0.04,0.91 -0.58,0.62 1,0.79 0.21,1.78 0.43,0.19 0.39,-0.46 1.24,-0.28 1.88,0.08 0.98,0.42 0.19,-0.46 0.93,-0.36 0.59,1.24 0.74,-0.29 3.17,0.6 0.49,-0.54 0,0 -0.05,1.01 -0.88,0.57 0.23,0.62 -1.3,0.86 -0.13,0.81 -1.61,0.31 -0.1,0.57 1.06,0.53 -0.39,0.7 -1.19,-0.04 -0.59,2.67 2.58,2.23 1.56,-0.44 -0.33,1.46 1.02,-0.03 -0.13,0.58 0.71,0.56 3.75,-0.06 -0.28,0.48 0.68,0.9 -0.1,1.85 0.66,1.22 -0.27,0.6 1.51,0.7 0.36,2.37 0.86,-0.05 0,0.95 0,0 -0.73,0.63 -2.72,0.75 -0.46,0.33 0.01,1.23 -0.81,-0.04 -1.33,1.12 -1.3,3.64 0.62,1.64 -0.53,0.89 -0.37,0.16 -0.24,-0.14 0.47,-0.29 -0.66,0.09 -1.49,2.1 -1.08,0.86 -3.19,0.96 -1.78,-0.53 -3.42,2.35 -1.42,-0.54 -0.75,-1.49 -1.2,-1.16 0,0 -0.72,-2.29 -0.87,-0.7 -0.89,0.16 -0.02,-0.87 0.8,-2.08 -0.73,-0.36 -1.39,0.01 -0.67,0.94 -0.23,-0.66 -0.91,-0.22 0.56,-1.18 -1.49,-1.75 0.2,-0.5 -0.65,-1.35 0.38,-1.59 0.57,-0.21 0.71,0.4 0.84,-0.27 0.7,0.44 0.45,-0.32 -0.1,-0.49 -0.7,-0.17 0.06,-0.9 -1.3,-0.4 0.02,-0.56 -0.73,-0.49 -0.54,-1.1 -1.22,-0.27 -0.82,0.3 0,0 -0.46,-0.08 -1.6,-2.37 0.16,-1.01 -0.44,-1.01 0.65,-0.29 -0.14,-0.53 0.81,-0.51 1.74,-0.01 -0.17,-0.91 0.22,-0.32 0.67,0.26 0.01,-0.47 -1.19,-0.24 -1.21,0.43 -2.09,-0.79 -1.85,0.15 -1.87,-2.33 -0.69,-0.16 -0.96,-0.97 -0.62,-1.26 0.26,-0.93 -0.65,-0.43 -0.44,0.25 -0.17,1.09 -1.8,0.04 0.25,1.36 -0.91,-0.15 -0.39,-0.61 -0.39,0.16 -0.05,0.49 1.61,1.83 -0.06,0.37 -0.57,-0.29 -1.47,0.48 -0.71,-0.52 -1.71,2.86 -1.49,0.59 -0.95,-0.62 -1.92,1.25 -0.29,0.65 0.52,0.18 -0.05,0.76 1.27,1.43 0.5,0.06 0.62,1.53 -1.01,0.69 -0.5,1.32 -0.74,-0.64 -0.4,0.7 -1.75,0.29 -2.09,1.52 -0.31,1.21 1.16,0.67 0.06,1.13 0.64,0.47 -1.84,0.66 0.85,0.56 -0.11,1.42 1.08,0.92 1.52,-0.04 0.87,1.44 0.67,0 0.36,-0.58 0.88,-0.27 0.23,-0.56 0.48,0.51 0.31,-0.39 1.79,0.43 0.74,-0.24 0.63,0.39 0.16,0.83 1.17,0.86 1.41,0.16 -0.64,-1.17 1.03,-0.49 1.13,-1.24 0.39,-0.15 1.38,0.68 -0.13,-0.49 1.01,0.38 0.26,-0.25 0,0 -0.08,0.97 0.33,0.37 -0.28,1.14 0.75,0.5 -0.39,1.39 0.43,-0.3 0.36,0.46 -0.36,0.74 0.32,0.84 -0.39,0.54 0.13,0.59 0.68,0.09 0.15,0.37 -0.36,1.17 -1.84,0.6 -0.62,1.53 0.56,3.12 1.08,0 1.01,0.8 1.3,-0.18 1.05,1.86 1.57,-0.66 0.31,0.3 -0.26,0.48 0.32,0.17 2.46,-0.77 1.23,0.13 0.21,-0.75 0,0 0.73,2.6 1.02,1.78 2.05,1.98 0,0 -0.62,0.59 -0.24,1.05 -0.37,0.05 -0.86,1.24 -1.59,0.15 -1.81,3.51 -8.05,0.28 -0.64,1.23 -0.88,0.54 -0.85,1.48 -1.95,1.81 -0.22,0.66 -0.92,-1.43 -0.48,-0.21 -0.52,0.47 -0.14,0.49 0.33,0.26 -0.31,0.53 -0.6,-0.13 0.01,0.74 0.67,0.41 -0.51,0.62 -1.02,-0.29 -2.27,0.72 -0.25,1.64 -0.72,0.5 -0.49,1.99 -1.12,1.25 0.16,0.48 -1.1,1.34 -0.24,0.97 -2.54,0.84 -0.45,1.02 -1.37,1.32 -0.73,1.86 0.19,1.29 0.51,0.22 0.36,0.87 -0.09,0.5 0.77,-0.2 0.61,1.03 0.11,1.38 0,0 -1.89,1.29 -1.05,-1.59 -1.51,-0.35 -0.21,0.62 -0.65,0.03 -0.59,1.52 -1.11,0.41 -0.29,-0.22 0.24,-0.59 -0.3,-0.6 -1.47,0.15 -0.42,-0.29 -1.86,0.4 -2.4,-1.63 -1.84,-0.61 -0.87,0.18 -0.7,-0.42 -0.9,0.09 -0.63,-1.26 -0.57,-0.04 0.07,0.58 -0.29,-0.59 -0.39,0.33 -0.93,-0.32 -0.09,0.37 -1.13,-0.65 -0.29,0.22 0,0 -0.28,-0.99 -1.44,-0.54 -0.5,-0.6 0.42,-1.04 -0.61,-0.49 0.06,-0.46 -0.83,-0.27 0.35,-1.01 -0.53,-0.04 0.32,-0.47 0.58,0.08 1.83,-0.91 0.2,-1.45 0.42,-0.06 0.25,0.53 0.52,-0.36 -0.37,-1.27 0.42,-0.61 -0.29,-0.34 0.21,-0.68 -0.38,-0.25 0.12,-1.09 0.82,-0.36 0.69,-1.13 0.22,-1.21 0.7,-0.53 0.18,-0.86 0.51,-0.34 0.28,-1.1 1.03,-1.53 0.27,-1.35 -0.91,-0.73 -0.94,0.23 0.65,-1.04 -0.91,-0.8 -0.21,-1.43 -1.01,-1.48 0.03,-0.96 -0.8,-0.82 0.23,-0.7 -1.3,-0.24 0.06,-0.37 -1.18,-0.55 -0.76,0.04 -0.48,-0.66 0.16,-1.17 -0.4,-0.63 0.74,-1.33 -0.27,-1.48 0.56,-0.55 0.08,-0.86 1.22,-0.15 0.05,-0.87 0.63,0.13 0.5,-1 0.46,0.08 0.2,-1.14 -1.01,-0.91 -0.09,-1.37 1.51,-1.53 0.53,0.02 0.24,-0.5 0.58,-0.02 0.61,-0.68 0.83,1.38 1.12,0.03 1.05,-1.17 0.89,0.56 0.36,-1.31 0.69,-0.14 0.32,-0.55 -0.57,-0.49 0.05,-0.91 0.64,-0.88 0.03,-0.91 1.02,-2.28 -0.71,-0.97 -0.81,-0.1 -0.3,-0.61 0.03,-1.87 0.35,-0.45 -0.57,-1.23 -2.17,0.01 -0.32,-0.41 -1.73,-0.44 -0.47,-1.23 -1.4,-0.29 0.76,-0.52 0.3,-1.39 0.5,1.14 0.57,-0.25 -0.01,-1.85 0.63,0.2 1.33,-0.36 0.27,-0.67 2.47,-0.38 0.99,-1.19 -1.05,-0.69 -0.7,0.36 -0.97,-0.31 -0.57,-1.94 0.17,-1.72 -1.03,-0.59 0.06,-0.43 -0.85,-1.47 z" 
                fill="rgb(151, 144, 238)" 
                stroke="white" 
                stroke-width=".7px"
                title="Hebei" 
                id="CN-13" 
            />
        </svg>