<svg xmlns="http://www.w3.org/2000/svg" viewBox="602.0875199999995 0.260157499999809 171.6900000000005 193.9000025000002" width="171.6900000000005" height="193.9000025000002">
            <path 
                d="m 630.80752,1.4101575 0.44,0.07 -0.21,-0.69 0.4,-0.39 0.41,0.37 -0.19,0.87 0.48,-0.28 0.22,-0.82 0.88,0.46 0.36,0.78 2.26,0.08 2.04,1.88 0.56,0.1 0.66,1.02 1.65,-0.46 0.94,0.99 0.7,1.52 0.97,0.8 3.19,0.41 0.22,0.83 1.4,0.35 0.54,0.8099995 0.31,-0.2599995 -0.13,-1.15 1.17,-0.66 2.76,0.07 3.31,1.86 0.58,1.1399995 0.9,-0.72 0.26,0.13 0.87,1.41 0.85,0.48 -0.18,1.05 -0.82,0.54 0.19,1.08 1.29,-0.8 0.73,0 1.71,2.8 1.03,-0.74 0.67,0.5 -0.1,0.52 -0.66,0.18 0.17,1.4 -1.07,0.31 0.04,1.01 0.4,0.56 0.81,-0.4 1.57,1.35 -0.06,1.44 0.88,-0.07 1.07,1.51 -0.19,1.85 1.4,0.44 -1.25,0.69 -0.53,0.92 2.12,0.79 1.14,0.97 -0.51,1.8 -0.9,0.23 0.22,1.62 2.42,3.8 0.04,0.61 0.84,0.27 0.14,1.64 -0.74,0.76 1.98,1.39 -0.54,2.01 1.59,0.84 -0.01,0.86 -1.22,0.42 0.29,1.34 0.78,0.25 0.15,-0.42 -0.53,-0.92 1.28,-0.2 -0.93,2.36 0.25,2.83 2.42,2.56 1.53,3.13 0.78,0.6 -0.19,1.2 1.01,2.06 -0.91,2.09 0.89,1.04 -0.21,2.13 0.72,0.73 2.47,1.08 -0.08,1.35 -1.28,2.73 0.65,1.8 -0.19,2.12 0.7,0.66 0.91,0.12 0.44,2.03 1.49,1.6 1.29,0.27 0.59,-0.72 1.44,1.4 2.09,0.38 0.19,0.44 1.72,-1.7 1.94,-0.28 2.18,0.74 0.43,-0.53 0.7,0.55 -0.75,1.22 0.15,0.43 1.65,-0.05 1.45,0.58 1.13,1.89 0.59,0.02 0.94,-0.91 1.7,0.92 0.36,-0.3 0.19,-1.25 1.1,0 0.63,0.38 0.37,2.34 0.35,0.29 1.14,-0.28 0.59,0.24 0.37,0.56 0,0.99 1.27,0.58 -0.03,0.92 0.89,0.44 0.12,1.14 3.8,3.27 2.54,-0.66 1.16,0.94 1.9,-0.36 0.12,0.42 -0.88,1.48 -1.03,3.02 0.96,0.660003 0.25,1.77 1.29,-0.37 0.43,0.24 -0.31,1.35 1.18,2.31 -0.73,1 -0.28,1.21 -1.19,1.54 0.34,1.1 2.74,2.77 0.72,1.46 0.03,1.84 0.35,0.4 1.44,0.33 1.99,-0.98 1.35,0.18 1.08,-0.33 0.7,0.26 0.99,1.26 0.48,0.01 1.01,-0.89 1.35,0.71 1.03,-0.2 1.02,0.3 0.42,-0.77 3.1,0 0.92,-0.87 0.73,-0.04 1.63,0.8 0.73,-0.08 1.31,-3.18 0.05,-1.16 1.71,0.37 0.9,-1.37 1.66,-0.34 0.3,-0.73 1.63,-0.92 1.62,0.32 0.73,-0.33 1.67,0.7 0.7,-0.35 0.26,-0.56 2.86,-1.54 1.13,0.23 0.32,-1.42 1.46,-0.33 -0.01,-0.6 0.49,-0.43 4.3,-0.99 1.54,0.73 0.74,-0.36 0.76,1.26 1.03,0.45 -0.54,0.89 -0.06,1.53 -1.44,2.33 0.01,0.58 0.48,1.63 0.86,0.25 0.23,1.33 1.22,1.3 -0.23,1.4 -3.29,4.38 -2.01,0.14 -1.93,2.1 -0.41,1.43 0.84,0.93 0.08,1.44 -1.36,1.04 -1.18,4.43 0.36,0.89 -0.44,2.2 -1.28,1.33 -0.8,2.03 1.17,1.42 -0.94,0.95 0.66,0.34 -0.36,0.41 0.23,0.63 -0.63,0.38 0.19,0.3 -0.33,0.49 -0.46,-0.42 -0.53,0.92 -1.04,0.49 0.58,1.81 -0.9,1.98 -0.7,0.01 -0.31,1.3 -0.78,-0.48 -0.52,0.6 -0.23,1.09 0.47,0.3 -0.44,0.13 0.2,0.65 -0.7,0.82 0.66,0.18 -0.01,0.52 -0.4,0.1 0.28,0.65 -0.78,0.1 0.11,0.63 -0.53,0 -0.37,0.44 -0.31,0.98 -0.65,-0.51 -1.4,1.01 -0.89,4.11 0.41,0.61 0.17,1.44 -2,1.81 -1.53,-0.64 -1.96,6.5 -1.72,2.39 -3.09,-1.07 -2.58,-2.22 0.91,-3.84 -1.58,-4.97 -1.6,-0.79 -0.52,-1.01 -0.81,0.49 -0.64,1.73 -1.24,-0.09 -0.4,1.09 0.47,0.21 0.04,0.54 -2.65,2.15 0.18,0.46 -1.86,-0.25 -0.85,1.02 -0.91,0.2 -0.73,-0.44 -0.59,0.14 -0.21,0.71 -1.64,0.64 -0.04,0.46 0.62,0.21 0,0.46 1.3,1.75 2.4,10.78 0.01,0.62 -0.55,0.45 -0.19,0.93 0.3,0.56 -0.7,1.92 0.32,3.92 -0.41,0.39 -0.04,0.88 1.05,0.81 0,0 -1.29,0.56 -0.39,0.68 -1.56,-1.65 -1.98,1.16 -0.62,-1.19 -2.41,-1.5 0.05,-0.52 -1.41,-0.13 -0.57,-0.74 -0.19,-1.42 -0.42,-0.07 -0.61,-2.53 -0.56,-0.82 0.32,-0.77 -0.15,-0.95 -1.2,1.2 -0.06,0.55 -0.96,0.37 -0.99,1.48 -0.86,-0.27 -0.29,-2.44 -0.76,-0.6 -1,0.62 -0.07,-0.27 -1.01,0.87 0.08,1 -0.6,0.45 -3.04,0.02 -1.76,1.37 -1.33,-0.27 -0.44,0.51 -0.08,1.72 0.31,0.95 -0.36,0.97 -2.51,0.96 -0.73,-0.55 -0.9,0.13 -0.56,-0.76 -0.76,-2.41 -0.58,-0.19 0.37,-0.37 -0.85,-2.23 -0.49,-0.09 -1.67,-4 -0.66,-0.66 0.05,-3.82 -0.47,-1.55 -0.83,-0.81 -2.03,1.47 -0.51,1.5 -1.22,-0.48 -0.22,0.29 0.11,0.79 0.45,0.39 -0.45,0.63 0.41,0.09 0.11,0.44 -0.28,0.68 -0.43,-0.08 0.68,0.91 -0.76,0.44 -0.29,-0.25 -0.21,0.43 -1.21,0.55 -0.98,-0.36 -0.56,0.26 -0.59,-0.48 -0.24,-1.74 -0.37,0.53 -1.11,-0.69 0.19,-1.31 -1.73,-2.08 0.29,-0.68 -0.59,-1.21 1.06,-0.27 0.07,-0.86 -1.73,-1.07 -0.49,0.22 -1.15,-0.3 -0.25,0.62 -1.06,-0.78 -0.17,0.43 -0.84,0.07 -0.58,0.88 -0.25,-0.52 0.15,-1.97 -0.63,-1.03 -0.04,-1 0.17,-1.04 0.92,-0.7 0.14,-0.57 -1.48,-2.17 -0.1,-1.05 -2.1,-0.05 -0.38,-0.67 -0.96,-0.17 -1.6,-1.17 -0.44,0.34 -1.23,-0.02 -0.91,0.87 -0.85,-0.09 0.01,0.44 -0.61,0.41 -0.7,-0.15 -0.28,0.28 -1.35,-0.61 -0.49,0.23 -0.31,-0.38 -0.37,0.11 -0.15,-0.47 -0.6,0.04 -0.74,-0.81 -0.4,0.1 -0.17,-0.66 -0.63,-0.27 -0.31,-0.85 -0.35,-0.08 0.2,-1.69 -0.3,-1.41 -1.05,-0.08 -1.36,0.78 -0.72,-0.26 0.23,0.54 -1.3,1.11 -0.73,-0.58 -0.14,0.56 -0.45,-0.47 -1.56,0.23 -0.53,0.44 -0.66,-0.94 0.03,-1.09 -1.15,0.05 -0.44,-0.79 -0.51,0.97 0.09,0.65 -0.44,0.21 -0.79,-0.01 -0.24,-0.51 -1.67,0.57 -0.63,-0.34 -0.49,0.76 -0.94,-0.89 -0.96,0.34 -0.58,-0.97 0.04,-0.92 -1.08,-0.13 0.01,-0.65 -0.47,-0.13 -0.06,-0.63 -0.92,0.2 -0.27,-1.27 -0.96,-0.5 0.27,-0.42 -0.86,-0.29 -0.05,-0.36 0.72,-0.41 -0.33,-0.54 0.44,-0.43 -0.22,-0.66 -0.74,-0.3 -0.48,-0.72 0.68,-0.72 -0.21,-0.56 0.63,-0.16 -0.54,-0.7 0.02,-1.72 -0.47,-0.12 -0.07,-2.21 -0.68,0.55 -0.04,-0.79 -0.7,-0.02 -0.84,0.66 -2.13,0.28 -0.49,0.37 -0.82,-0.49 -1.71,0.63 -1.61,-0.93 -0.87,0.43 0,0 -2.01,-3.14 -0.36,-1.47 0.19,-1.29 0.58,-0.18 0.02,-0.69 0.41,0.28 1.22,-0.15 0.54,0.41 0.57,-0.44 0.11,-0.86 4.06,-0.54 0.46,-2.22 -0.72,-0.25 0.48,-0.3 -0.16,-0.87 -0.36,-0.07 -0.19,1.24 -0.72,0.01 -0.3,-0.53 0.65,-1.9 -1.52,0.15 -1.16,-1.12 -0.04,0.76 0.84,0.57 -0.23,1.28 -1.87,0.29 -0.66,1.95 -1.9,0.47 -0.17,-0.69 -1.32,-1.12 -0.03,-2.62 -1.17,0.35 -0.36,-0.67 0.96,-1.43 -2.99,-1.29 -2.74,-4.11 1.35,-1.15 0.92,-2.39 2.42,-1.5 0.97,-1.03 4.31,-2.45 1.64,-3.04 3.38,-1.5 1.81,-2.52 3.51,-3.79 3.43,-2.93 0.61,0.89 -0.26,0.38 0.42,0.71 -0.33,0.61 0.32,0.39 -0.28,0.17 0.59,0.94 -0.04,0.54 0.93,0.83 -0.18,1 0.84,0.47 -0.7,1.47 1.05,-0.71 0.9,-3.29 -0.8,-1.45 0.15,-1.47 0.32,-0.19 -0.1,-1.38 -0.33,-0.26 0.28,-0.49 0.31,0.08 0.43,-1.170003 0.16,-2.2 0.49,-0.49 -0.03,-0.95 0.61,-0.35 0.07,-1.52 0.54,0.01 0.37,-1.71 0.57,-0.67 -0.21,-1.32 1.17,-1.3 1.12,0.37 0.64,-0.29 -0.03,0.41 1.02,0.56 0.93,-1.17 0.41,-0.04 -0.09,-1.25 0.25,-0.11 -0.26,-0.43 0.59,-0.64 0.11,-2.67 -0.8,-1.62 0.41,-0.01 -0.05,-1.09 -0.32,0.01 -0.43,-0.77 -0.39,0.24 -0.2,-0.51 0.36,-0.58 0.47,0.88 0.34,-0.74 0.06,-1.13 -0.31,-0.24 0.33,-1.19 -0.64,-0.62 0.64,-0.12 0.18,-0.24 -0.3,-0.27 0.36,-0.16 -0.27,-1.07 -0.56,-0.62 0.71,-0.06 0.05,-0.58 0.64,-0.27 0.07,-0.5 -0.62,-0.39 1.12,-0.17 -0.8,-0.37 0.09,-0.97 0.37,-0.3 0.25,0.49 0.07,-0.43 0.52,-0.01 -0.52,-0.52 0.72,-0.19 -0.05,-0.45 0.54,-0.01 0.04,-0.6 0.4,0.03 -0.3,-0.59 0.34,-0.2 -0.1,-0.51 0.78,-0.33 -0.09,-0.71 0.43,-0.23 -0.37,-0.19 0.21,-0.31 -0.35,-0.47 0.27,-0.28 0.57,0.41 -0.16,-0.79 0.36,0.1 0.08,-0.36 0.45,0.21 0.35,-0.64 0.55,-0.15 -0.32,-0.26 0.75,-0.53 0.18,0.36 0.19,-0.56 0.75,-0.3 -0.46,-2.6 0.45,-0.48 -0.61,-0.43 0.23,-0.36 -0.49,-0.17 0.43,-0.44 0.69,0.28 -0.17,-0.64 0.41,0.01 0.78,-0.89 -0.35,-0.5 0.75,0.04 0.09,-0.82 0.47,0.5 -0.03,-0.6 0.38,0.05 -0.11,-0.49 0.31,0.05 0.48,-0.87 -0.61,-0.73 0.06,-0.54 0.29,-0.03 -1.04,-1 0.24,-0.79 -0.74,0.25 -0.02,-0.41 -0.93,-0.29 0.21,-0.2 -0.35,-1.13 -1.29,-0.41 0.12,-0.58 -0.81,-1.45 -4.39,-5.91 -0.44,0.29 -0.43,-0.56 -1.86,0.07 -0.18,-0.55 -0.59,0.62 -0.18,1.86 -1.66,0.82 0.18,1.02 -0.83,1.3 -1.32,-0.14 -0.54,0.89 -1.23,0.39 -0.72,-0.88 -1.07,-0.2 -0.68,0.54 -0.39,1.65 -0.73,0 -0.11,-0.43 -0.85,-0.3 -0.6,-0.84 -1.59,0.14 -0.34,0.45 -0.98,-0.05 -0.86,0.45 -1.06,-1.35 -0.6,0.13 -0.97,-0.77 -0.71,1.61 -1.3,0.62 -1.07,-0.02 -0.3,0.36 -1.4,-0.01 -0.62,0.43 -2.8,-1.41 -0.85,0.16 -0.44,-0.67 -0.05,-0.97 -0.75,-0.45 -0.03,-0.58 -0.58,-0.66 0.39,-1.31 -0.68,-0.86 0.31,-0.44 -1.35,-2.79 0.28,-0.73 -0.83,-2.25 0.25,-1.82 -0.62,-0.02 -0.33,-1.62 -0.33,-0.16 0.08,-1.43 1.35,-0.35 0.41,-0.51 0.21,-1.53 -0.3,-0.29 -0.66,0.22 -0.4,-0.42 -1.18,0.21 -1.36,-0.61 0.05,-1.07 -0.45,-0.95 -0.49,0.34 -0.82,-0.73 -0.41,-1.29 -1.3,0.12 -0.53,-0.94 -1.08,1.55 0.14,0.27 -0.64,0.29 -0.07,0.73 -1.1,1.63 -0.49,0.35 -0.94,-0.05 -1.53,-0.71 -0.83,-2.57 -1.64,-0.29 -1.44,-1.39 -0.54,-0.1 -0.49,-0.87 -1.26,-0.1 -0.4,-0.42 1.31,-1.39 1.13,-0.54 1.25,-1.78 1.49,-1.29 0.06,-1.15 0.62,-0.38 0.71,-1.77 0.94,-0.55 0.38,-0.95 -0.54,-0.6 -0.29,-1.1399995 -0.35,0.06 -0.88,-0.76 0.29,-0.35 -0.11,-1.05 -0.74,-0.28 -1.42,-1.5 0,0 4.67,-1.94 2.75,0.04 0.78,-0.98 1.28,0.08 0.98,-0.74 1.45,1.21 2.66,-0.45 2.42,0.21 2.58,-1.24 1.26,0.17 0.84,-1.02 0.67,-0.2 2.34,0.65 z" 
                fill="rgb(151, 144, 238)" 
                stroke="white" 
                stroke-width=".7px"
                title="Heilongjiang" 
                id="CN-23" 
            />
        </svg>