<svg xmlns="http://www.w3.org/2000/svg" viewBox="465.29751999999996 309.71016 79.39999999999998 75.6400000000001" width="79.39999999999998" height="75.6400000000001">
            <path 
                d="m 507.81752,309.93016 0.29,-0.22 1.13,0.64 0.09,-0.37 0.94,0.32 0.39,-0.32 0.29,0.58 -0.06,-0.57 0.56,0.04 0.64,1.26 0.89,-0.09 0.7,0.42 0.87,-0.19 1.84,0.62 2.4,1.62 1.86,-0.4 0.43,0.29 1.47,-0.14 0.3,0.59 -0.24,0.59 0.3,0.22 1.11,-0.41 0.59,-1.52 0.64,-0.02 0.22,-0.62 1.51,0.35 1.05,1.59 1.89,-1.29 0,0 -0.41,2.44 -1.16,0.72 0.15,0.89 -0.42,1.39 0.35,0.55 1.63,-1.51 -0.01,-0.59 0.3,0.4 0.45,-0.06 3.29,-1.75 2.46,-0.65 0.74,-0.82 0.49,-0.1 0.08,0.49 -0.86,1.78 -1.46,-0.07 -0.74,1.05 0.2,0.58 -1.31,-0.01 -0.37,0.55 -0.33,-0.21 -0.15,0.83 -0.67,0.79 -1.99,0.17 -1.63,2.55 -0.55,-0.24 0.3,1.4 -1.04,0.35 -0.63,0.76 -0.55,-0.46 -1.89,1.11 -0.2,1.17 -0.95,1.4 -1.1,0.5 0,1.22 -0.51,1.11 0.23,0.4 0.55,-0.35 0.64,0.7 2.47,-0.56 0.49,0.57 0.78,0.15 -0.22,0.65 0.73,0.18 -0.11,0.85 0.65,-0.22 1.67,1.12 0.19,1.88 1.16,1.44 1.77,0.27 0.28,-0.65 1.65,0.61 1.82,-0.4 0.37,-0.53 0.43,0.47 0.81,-0.19 0.42,0.7 0.72,-0.29 0,0 0.11,0.97 -0.51,0.8 0.68,1.22 1.89,1 0.05,0.7 0.99,-0.33 0.14,0.36 0.59,-0.42 0.96,0.28 -0.47,0.76 0.34,0.82 -0.52,0.89 1.52,2.15 -0.09,1.27 -0.97,-0.27 -0.54,0.56 -1.01,0.27 -0.07,0.74 -3.47,1.46 -1.1,-1.13 -0.36,-0.75 0.17,-0.47 -0.95,-0.66 0.2,-0.89 -0.41,-0.56 -1.01,-0.47 -0.44,0.44 -0.57,-1.03 -1.99,0.09 -0.64,0.51 -0.66,2.3 1.07,0.15 -0.2,1.33 -0.63,0.12 0.9,2.87 -1.02,0.41 -1.82,0 -0.19,0.82 -0.31,-0.25 -0.36,0.27 -0.39,1.85 0.63,0.79 -0.92,2.9 -1.32,0.19 -0.52,0.55 -1.44,-0.03 -1.2,-1.08 -0.41,0.46 -0.11,0.66 0.43,0.96 -0.61,0.55 0.74,0.73 0.9,-0.06 0.26,0.48 1.32,0.09 0.77,0.68 0,3.98 1.33,0.05 0.01,0.5 1.32,-0.33 1.98,2.32 -0.17,0.23 0.52,-0.37 0.87,0.26 0.38,-1.26 0.78,0.28 0.15,-0.42 0.19,0.58 1.46,-1.67 0.38,0.12 -1.04,0.92 0.48,0.29 0.34,4 0.37,0.83 -0.2,3.69 -0.37,0.59 0.25,1.18 -1.23,0.53 -0.6,-0.38 -0.53,0.35 -0.61,-0.27 -2.26,1.57 -0.14,0.94 -1.39,1.63 -0.08,1.42 0,0 -0.77,0.31 -1.12,-0.6 0.19,-1.93 -0.99,-0.75 -0.41,0.14 -0.25,1.13 -1.04,-0.09 -0.27,0.81 -0.35,-0.42 -1.74,0.56 -0.64,-0.38 -0.14,-0.53 -0.98,-0.13 -0.86,-0.86 -0.9,0.46 0.24,-3.07 -0.53,0.39 -0.3,-0.44 -0.09,0.48 -0.64,0.08 -1.97,-0.28 -0.73,-1.22 -0.78,-0.3 -0.61,0.19 -0.51,0.76 -1.41,0.46 -0.38,-0.63 0.05,-0.87 -0.46,-0.3 -0.33,0.45 -0.52,0.03 -0.45,-1.8 -0.71,-0.39 0.41,-0.67 -0.7,-1.25 0.44,-0.04 0.2,-1.07 -0.54,-0.74 0.39,-1.69 -0.36,0.03 -0.14,-0.82 -0.83,-0.06 -0.52,0.9 -0.37,-0.09 0.12,0.22 -2.31,1.14 -0.87,-0.33 -0.45,-0.47 0.17,-0.26 -1.51,-1.24 -0.63,0.13 -0.28,0.61 -1.44,-0.7 -0.44,0.22 -0.04,0.56 -0.97,-0.27 -0.41,0.24 -0.11,-0.35 -1.35,0.79 -2.7,-0.85 -1.35,0.74 -1.05,-0.24 -0.46,0.63 -1.18,-0.97 -1.03,0.09 -1.14,-1.29 -0.67,0.24 -0.67,-0.91 -0.79,0.2 -2.13,-1.5 -0.95,-0.03 -0.07,-0.43 -0.86,0.61 -0.78,-1.23 -1.12,-0.8 0.59,-0.65 -0.67,0.2 -0.45,-1.02 -1.13,-0.5 -0.06,-0.59 -0.45,0.25 -0.09,-0.79 0.38,-0.52 -0.44,-1.03 -1.14,-0.02 0.54,-0.67 -1.23,-1.41 -0.68,0.36 0.21,-0.54 -0.92,-0.98 0,0 0.21,-0.99 0.38,-0.24 -0.42,-1.45 0.38,-0.51 -0.24,-1.55 -2.21,-1.52 -0.7,-1.92 -2.14,-0.88 -0.15,-0.64 1.01,-0.79 -0.69,-1.15 -0.45,-0.05 0.02,-1.05 0.71,-0.99 -2.55,-1.21 -0.18,-0.64 0.92,-0.72 -0.25,-1.2 -0.64,0.07 -0.83,-1.5 0.5,-0.84 -0.44,-0.24 0.21,-0.38 0,0 3.82,0.16 0.88,-0.95 1.81,-0.09 0.35,-1.09 0.47,0.44 1.68,-0.75 0.72,-0.84 0.89,0.25 1.42,-0.58 0.6,0.24 2.35,-0.53 1.29,-1.51 -0.02,-0.67 1.65,-0.62 0.31,-0.63 1.61,-0.14 0.74,0.23 0.24,0.51 0.36,-0.48 0.01,-3.34 1.85,0.38 0.1,0.39 0.89,-0.35 -0.02,0.5 0.61,0.08 0.82,-0.48 0.68,0.33 2.1,0.07 0.43,-0.7 0.31,0.67 1,0.31 0.75,-0.82 1.41,0.11 0.18,-0.6 0.73,-0.24 -0.09,-0.73 0.47,-0.18 1.11,0.45 1.15,-1.66 1.15,0.25 0.01,-0.79 0.63,0.04 0.58,-0.56 1.27,-0.31 0.68,-1.81 0.94,0.17 -0.63,-2.81 1.03,-0.3 -0.24,-2.35 0.62,0.03 0.16,-0.56 -0.49,-0.19 0.3,-0.46 -0.39,-0.92 0.66,-0.22 -0.61,-0.44 0.5,-0.25 -0.32,-0.29 0.39,-0.13 -0.23,-0.18 z" 
                fill="rgb(151, 144, 238)" 
                stroke="white" 
                stroke-width=".7px"
                title="Henan" 
                id="CN-41" 
            />
        </svg>