<svg xmlns="http://www.w3.org/2000/svg" viewBox="509.30752000000007 509.9501599999999 7.090000000000032 5.000000000000057" width="7.090000000000032" height="5.000000000000057">
            <path 
                d="m 514.27752,513.73016 0.32,1.09 -0.54,-0.34 -0.06,0.47 -0.33,-0.69 -0.2,0.2 -0.7,-0.62 1.51,-0.11 z m -2.39,-0.85 -0.53,1.79 -0.39,-0.35 -0.78,0.47 -0.88,-0.02 0.7,-1.14 0.97,-0.13 0.91,-0.62 z m -1.65,-0.73 1.6,-1.43 0,0 1.51,-0.77 0.82,0.23 0,0 -0.22,0.28 0.61,-0.33 0.22,0.56 0.44,-0.24 0.34,0.25 -1.13,0.79 -0.2,-0.3 -0.65,0.37 1.12,0.34 0.67,-0.83 0.26,0.48 0.77,0.12 -0.46,1.19 -0.98,-0.62 -0.44,0.54 0.75,0.73 -0.15,0.55 -1.25,-0.83 -0.21,0.34 -1.01,-1.01 -2.33,0.03 -0.08,-0.44 z" 
                fill="rgb(151, 144, 238)" 
                stroke="white" 
                stroke-width=".7px"
                title="Hong Kong" 
                id="CN-91" 
            />
        </svg>