<svg xmlns="http://www.w3.org/2000/svg" viewBox="440.2675199999995 357.1701600000002 97.94999999999999 62.32000000000028" width="97.94999999999999" height="62.32000000000028">
            <path 
                d="m 455.40752,380.20016 0.14,-0.86 0.58,-0.33 -0.67,-1.32 0.58,-0.64 -0.55,-1.21 0.44,-1.15 -0.42,-0.7 0.19,-0.83 -0.68,-0.28 -0.7,-1.12 0.4,-1.99 0.65,-1.14 0.74,-0.46 -0.22,-0.78 1.22,-0.24 1.28,0.48 1.18,-0.23 1.35,0.68 0.84,-0.5 0.08,-0.54 0.94,0.34 0.53,-0.58 -0.66,-0.85 -0.17,-1.78 -1.45,-0.96 -2.01,-0.59 -0.89,0.5 -0.41,-0.43 0.34,-2.43 -1.3,-0.7 -1.41,0.09 -1.74,-0.62 0.86,-1.18 1.19,-0.03 0.44,-0.65 0.21,0.4 0.82,0.24 1.7,-0.22 2.26,0.84 1.69,-0.26 0.86,0.75 2.44,-0.19 1.74,-1.25 0.48,1.51 0.71,0 0.67,0.88 0.44,-0.77 0.91,-0.05 0.18,-0.85 1.03,0.01 0.88,-0.77 0,0 0.92,0.98 -0.21,0.54 0.68,-0.36 1.23,1.41 -0.54,0.67 1.14,0.02 0.44,1.03 -0.38,0.52 0.09,0.79 0.45,-0.25 0.06,0.59 1.13,0.5 0.45,1.02 0.67,-0.2 -0.59,0.65 1.12,0.8 0.78,1.23 0.86,-0.61 0.07,0.43 0.95,0.03 2.13,1.5 0.79,-0.2 0.67,0.91 0.67,-0.24 1.14,1.29 1.03,-0.09 1.18,0.97 0.46,-0.63 1.05,0.24 1.35,-0.74 2.7,0.85 1.35,-0.79 0.11,0.35 0.41,-0.24 0.97,0.27 0.04,-0.56 0.44,-0.22 1.44,0.7 0.28,-0.61 0.63,-0.13 1.51,1.24 -0.17,0.26 0.45,0.47 0.87,0.33 2.31,-1.14 -0.12,-0.22 0.37,0.09 0.52,-0.9 0.83,0.06 0.14,0.82 0.36,-0.03 -0.39,1.69 0.54,0.74 -0.2,1.07 -0.44,0.04 0.7,1.25 -0.41,0.67 0.71,0.39 0.45,1.8 0.52,-0.03 0.33,-0.45 0.46,0.3 -0.05,0.87 0.38,0.63 1.41,-0.46 0.51,-0.76 0.61,-0.19 0.78,0.3 0.73,1.22 1.97,0.28 0.64,-0.08 0.09,-0.48 0.3,0.44 0.53,-0.39 -0.24,3.07 0.9,-0.46 0.86,0.86 0.98,0.13 0.14,0.53 0.64,0.38 1.74,-0.56 0.35,0.42 0.27,-0.81 1.04,0.09 0.25,-1.13 0.41,-0.14 0.99,0.75 -0.19,1.93 1.12,0.6 0.77,-0.31 0,0 0.22,0.85 0.59,-0.07 0.34,0.51 0.04,0.66 0.8,0.25 0.65,1.57 0.97,-0.94 0.57,0.14 0.88,1.3 1.31,-0.5 0.84,1.51 1.33,0.42 0.36,0.75 -2.61,1.44 -0.32,0.46 0.32,0.87 -1.1,0.3 -0.26,1.03 0.58,0.57 0.08,0.72 0.74,0.1 0.55,1.03 -0.24,0.95 0.62,0.41 -0.76,0.62 0.41,0.69 -0.15,0.36 0.97,0.21 0.17,0.6 0.89,0.73 0.33,2.45 -0.22,1.06 0.74,1.08 0.03,0.96 0,0 -1.1,1.08 -1.51,0.37 -1.27,-0.48 -1.9,-1.42 -2.11,0.2 -0.43,0.48 -0.08,0.97 -2.3,1.67 -0.28,-0.52 -1.4,0.02 -0.58,-0.33 0.42,0.48 -0.11,0.72 0.49,0.09 -0.19,1.12 -1.05,-0.17 0.28,-0.51 -1.21,-0.16 -0.66,0.47 0.1,0.54 -0.69,-0.4 -0.42,0.72 0.33,0.5 0.3,-0.53 0.31,0.19 -0.72,1.1 -0.4,-0.14 -1.28,0.57 -0.26,-0.44 -0.75,-0.03 -2.04,1.05 -2.06,-0.02 -0.55,-0.55 -0.48,0.15 -0.24,1.68 -2.3,0.39 -1.4,1.59 -0.13,0.76 0,0 -0.87,0.15 0.02,-0.47 -0.37,0.13 -0.41,-0.65 -0.97,0.63 -0.19,-0.67 -0.48,0.31 -0.41,-1.11 0.51,-1.01 -1.16,-0.42 0.76,-1.69 0.86,-0.25 0.25,-0.74 -0.81,-0.9 -0.71,-0.15 1.35,-0.81 -0.44,-0.79 -0.42,-0.09 -0.05,-0.61 -1.47,-0.01 0.27,-2.41 -2.46,2.11 -3.08,3.75 -0.52,-0.24 -0.16,0.38 -0.48,-1.09 -1.24,0.47 -0.36,-2.31 1.27,-0.99 0.16,-0.98 -1.13,1.21 -0.6,-1.61 -2.61,2.95 -1.44,-0.4 -0.42,0.32 -1.1,-0.47 -0.62,1.01 -0.41,0.37 -0.57,-0.09 -0.46,0.69 0.21,-1.26 -0.86,-0.54 0.12,-0.61 -0.6,0.51 -0.24,-0.49 -1.4,-0.3 -0.02,-1.29 -0.07,0.4 -1.09,-0.68 -0.17,-0.68 -2.7,-1.19 -1.1,0.43 -1.39,-0.03 -0.3,-0.52 -1.69,0.16 -0.18,-0.56 -0.35,0.17 -1.26,-1.42 -4.06,-0.35 -0.06,-0.68 -1.24,-0.2 -0.91,0.12 -0.11,1.07 -0.44,0.1 -0.74,-0.6 -1.62,0.3 -0.32,0.42 0.71,0.58 -0.6,1.11 0.51,0.8 0.85,0.34 0.35,0.85 -1.39,1.14 -0.87,-0.2 -0.27,0.65 -0.93,0.44 -0.3,-0.48 -0.6,0.05 -0.64,-0.99 -1.68,-0.82 -3.07,0.21 -1.19,0.28 -0.14,0.95 -0.83,0.32 0.26,0.86 -0.73,0.17 -0.69,-0.55 -0.54,0.38 -0.56,-0.16 -0.69,1.51 -0.4,-0.23 0.1,0.61 -0.39,-0.11 0.09,0.64 -0.57,0.38 0.16,0.58 -0.56,0.45 0.13,0.93 -1.18,0.94 0.21,1.32 -0.52,0.18 0,0 -1.53,-1.16 0.29,-0.91 -0.34,-0.42 0.01,-0.99 -0.5,-0.45 -1.19,0.93 -0.78,0.08 0.3,-1.35 -0.93,-0.78 0.5,-1.79 -0.43,0.02 0.17,-0.45 -0.42,-0.36 -0.74,0.24 -0.04,-0.56 -0.37,0.37 -0.48,-0.65 -0.52,-0.01 -0.27,-2.32 -0.83,-0.07 -0.78,1.02 0.1,0.73 -0.38,0.37 -0.89,-0.35 -0.22,-1.14 -0.27,-0.31 -0.21,0.27 0.09,-0.7 0.58,-0.27 1.08,0.21 0.22,-1.75 -0.13,-0.99 -0.32,0.08 0.76,-1.31 0.14,-1.53 -2.18,-2.06 0.3,-1.44 1.11,-0.23 0.76,0.42 0.93,-0.97 -0.17,-0.63 0.73,-0.05 0.53,1.29 1.15,0.04 1.72,-1.82 1.01,-0.5 0.97,0.11 -0.37,1.21 0.65,0.46 2.1,-1.46 0.56,1.01 -0.05,1.03 1.41,-1.87 1.04,-0.77 0.51,0.28 0.11,-0.63 0.74,-0.27 0.21,-0.71 1.44,-1.25 1.52,-0.57 0.88,0.26 0.46,-0.41 0.22,0.98 0.74,0.45 1.12,-2.68 -0.56,-0.75 -0.05,-0.89 0.94,-0.76 -0.66,-3.61 -2.47,-1.26 0.38,-0.55 -1.21,-0.18 -0.81,-0.57 -1.13,0.2 0.31,-0.88 -0.25,-1.27 z" 
                fill="rgb(151, 144, 238)" 
                stroke="white" 
                stroke-width=".7px"
                title="Hubei" 
                id="CN-42" 
            />
        </svg>