<svg xmlns="http://www.w3.org/2000/svg" viewBox="445.48752000000013 403.73016000000007 68.99999999999989 77.75000000000017" width="68.99999999999989" height="77.75000000000017">
            <path 
                d="m 451.01752,418.27016 0.53,-0.19 -0.21,-1.32 1.17,-0.94 -0.13,-0.93 0.56,-0.45 -0.17,-0.58 0.57,-0.38 -0.09,-0.63 0.39,0.1 -0.1,-0.6 0.4,0.23 0.68,-1.51 0.57,0.16 0.53,-0.38 0.69,0.55 0.74,-0.17 -0.27,-0.86 0.83,-0.32 0.14,-0.95 1.19,-0.28 3.08,-0.21 1.67,0.83 0.65,0.98 0.6,-0.04 0.3,0.48 0.94,-0.45 0.26,-0.65 0.87,0.2 1.39,-1.13 -0.35,-0.85 -0.84,-0.34 -0.52,-0.81 0.61,-1.11 -0.71,-0.58 0.32,-0.41 1.62,-0.3 0.74,0.59 0.44,-0.1 0.12,-1.07 0.9,-0.12 1.24,0.2 0.07,0.68 4.06,0.35 1.25,1.42 0.35,-0.17 0.18,0.55 1.69,-0.16 0.31,0.52 1.39,0.03 1.09,-0.43 2.71,1.19 0.17,0.68 1.09,0.68 0.07,-0.4 0.01,1.29 1.4,0.3 0.25,0.5 0.6,-0.51 -0.13,0.6 0.87,0.54 -0.21,1.26 0.45,-0.69 0.58,0.09 0.41,-0.37 0.61,-1.02 1.1,0.47 0.42,-0.32 1.44,0.4 2.6,-2.95 0.6,1.61 1.13,-1.21 -0.17,0.98 -1.27,0.99 0.36,2.31 1.25,-0.47 0.47,1.08 0.17,-0.37 0.52,0.24 3.08,-3.75 2.46,-2.12 -0.27,2.42 1.46,0.01 0.05,0.61 0.42,0.08 0.44,0.79 -1.35,0.81 0.71,0.15 0.81,0.89 -0.24,0.75 -0.87,0.25 -0.76,1.69 1.16,0.42 -0.5,1.01 0.4,1.11 0.49,-0.31 0.19,0.67 0.97,-0.62 0.41,0.65 0.37,-0.13 -0.01,0.47 0.87,-0.15 0,0 0.23,1.42 0.53,-0.1 0.23,0.73 0.5,0.12 0.03,0.72 1.05,0.31 -0.27,3.13 -0.56,0.79 1.64,0.93 -0.48,0.71 1.04,0.59 -0.04,0.96 -2.06,2.04 -1.24,0.13 0.54,1.76 -0.97,0.14 -0.52,0.67 -0.75,-0.22 -0.16,0.42 -1.07,0.55 -0.37,0.84 0.39,1.16 -1.92,2.36 -0.42,1.35 0.62,0.4 -0.45,0.6 0.5,0.82 -0.35,0.36 0.18,0.57 1.05,0.19 2.23,-0.71 -0.27,1.09 0.22,0.29 -1.26,2.58 0.45,0.07 0.17,0.85 1.36,1.22 -1.12,2.08 0.33,2.1 0.58,0.55 2.66,0.37 -0.44,2.5 -0.67,0.43 0.03,1 -1.2,2.02 0.4,0.2 0.85,-0.52 0.55,0.36 1.13,-0.65 0.48,0.14 0.28,0.68 -1.58,0.71 -0.12,0.45 -0.67,-0.07 -0.43,0.84 0.25,1.26 -1.47,2.8 0.96,2.28 -0.61,1.13 0.28,0.33 0,0 -0.95,0.29 -0.83,1.47 -0.7,0.03 -0.16,-0.48 0,0 -2.23,0.69 0,0 -0.01,-0.44 -0.48,-0.29 -1.22,0.06 -0.93,-0.54 -0.17,-0.54 -0.62,-0.11 -0.13,-1.02 -0.2,0.29 -0.61,-0.22 -0.92,0.38 -0.4,1.05 -0.35,-0.07 -1.07,0.98 -0.9,0.1 -0.2,0.46 -0.86,-0.38 0.08,1.19 1.41,-0.09 0.68,0.82 -0.85,0.53 0.58,1.01 -0.44,0.81 0.46,0.64 -0.09,0.68 -1.84,0.46 -1.03,0 0.02,-0.61 -0.48,-0.29 -0.03,-0.54 -0.47,-0.14 0.25,-0.69 -0.84,-0.99 -1.46,0.06 -1,-0.31 -0.22,-0.45 -0.6,0.55 -0.44,-0.69 -1.29,0.45 -0.65,-0.59 -0.73,2.55 -0.44,0.48 0.72,0.96 -0.23,1.05 -0.65,0.11 -1.03,1.27 0,0 -0.76,-0.42 -1.11,0.16 -2.12,-0.37 -0.8,0.73 -0.04,0.68 -0.63,-0.14 -0.33,0.75 -1.59,-0.44 0.53,-1.79 -0.38,-0.82 0.26,-1 -0.49,-0.6 0.47,-0.65 -0.63,-0.3 0.23,-0.79 -0.52,-0.42 -0.65,0.47 -0.95,-0.67 -1.05,1.09 -1.09,0.5 -0.02,1.2 -0.62,0.24 -0.65,0.06 -0.5,-1.08 -0.13,-0.7 0.63,-1.52 1.35,-0.78 -0.06,-0.95 2.5,-2.21 0.54,-2.25 -0.38,-0.5 -0.06,-1.03 1.71,-0.79 -0.19,-0.89 0.85,-0.41 -2.04,-0.5 -0.61,0.66 -0.77,-0.6 -0.23,-1.54 0.83,-1.75 0.25,-1.71 -0.28,-0.17 -0.78,-0.03 -0.46,-0.53 -2.13,-0.24 -0.34,-0.9 -0.39,0.25 -0.22,1.56 -0.29,-0.26 -1.73,0.34 -0.37,-0.28 0.12,-0.63 -0.39,0.31 -1.24,-0.59 -0.46,0.97 -0.43,0.03 -0.44,1.2 -0.46,-0.02 -1.19,1.18 -0.65,1.66 -0.91,0.18 -0.1,-0.84 -0.62,-0.64 -0.52,0.7 -1.1,-0.36 0.23,-1.75 -0.74,0.16 -0.77,-0.55 -0.75,0.71 -0.48,1.6 -0.69,-0.14 -0.29,0.33 0.44,1.41 -0.49,0.69 -0.52,-0.31 -1.08,0.13 0.77,-1.45 -0.89,-0.43 -0.14,-0.43 -1.42,0.7 -0.58,-0.47 0,0 -0.18,-0.67 0.52,-0.62 -0.77,-0.92 0.28,-0.19 -0.39,-0.53 0.5,-0.78 -0.33,-0.22 -0.03,0.34 -1.42,0.45 -0.84,-1.04 0.64,-1.35 0.74,-0.43 -0.23,-0.25 0.59,-0.91 -0.66,-1.69 -0.58,0 -0.34,-0.58 0.99,0.06 1.03,-0.89 0.94,-0.03 -0.26,-0.84 0.22,-0.77 -0.4,-0.32 -0.58,0.25 1.51,-0.96 -0.55,-1.77 -0.66,0.08 0.16,-0.95 -0.4,0.24 -0.59,-0.63 -1.53,0.49 -0.31,-0.37 -1,1.14 -0.81,0 0.16,-0.7 -1.21,0.45 -0.87,0.57 -0.11,0.46 -0.83,0.29 -1.15,-1.17 1.17,-0.41 0.49,-0.77 -0.18,-0.7 1.98,-1.07 -0.16,-0.55 0.77,-0.39 0.37,-1.22 0.22,0.37 0.65,-0.48 0.48,0.46 0.69,-0.08 0.08,-0.8 1.92,-1.36 -0.27,-2.32 -0.7,0.08 -0.83,-0.67 0.38,-0.72 -0.53,-1.73 0.94,-1.07 -0.33,-0.42 -0.55,0.29 -0.1,-0.23 1.05,-3.03 -0.38,0.08 -0.07,-0.45 -0.61,0.24 -0.33,-0.56 0.02,-2.64 0,0 0.58,-1.29 -0.37,-0.38 -1.14,0.26 -0.21,-0.3 1.08,-0.65 -0.2,-0.37 0.64,-0.56 -0.79,-0.67 -0.07,-1.42 1.06,-2.42 -1.15,-0.67 -0.07,-0.45 z m 3.99,34.16 -0.09,-0.4 0.53,-0.25 -0.04,0.51 0,0 -0.4,0.14 z" 
                fill="rgb(151, 144, 238)" 
                stroke="white" 
                stroke-width=".7px"
                title="Hunan" 
                id="CN-43" 
            />
        </svg>