<svg xmlns="http://www.w3.org/2000/svg" viewBox="505.90751999999975 404.48015999999996 62.020000000000095 79.10000000000014" width="62.020000000000095" height="79.10000000000014">
            <path 
                d="m 538.21752,408.13016 0.88,-0.13 0.72,0.71 2.64,-1.68 0.85,0.01 0.67,-2.27 0.97,-0.29 1.47,0.56 0.18,0.45 0.36,-0.07 0.04,0.55 0.49,-0.13 0.4,0.44 -1.11,2 -0.76,0.21 -1.24,1.49 0.35,0.27 -0.37,0.56 0.87,1.04 0.5,-0.49 0.44,0.47 0.57,-0.06 1.96,-1.63 1.47,-0.41 0.29,-1 -0.79,-0.74 0.72,-0.46 0.06,-0.58 0.98,-0.34 0.52,0.27 0.06,1.12 0.43,0.13 0.56,-0.4 0.28,0.54 0.78,-0.52 -0.14,0.78 0.58,0.66 -0.02,0.89 0.97,0.49 -0.21,0.42 0.34,0.4 0.62,0.18 0.85,-0.42 0.64,0.94 1.32,-0.37 1.54,0.36 1.01,-0.4 1.56,1.03 -0.07,1.2 0.8,0.43 0,0 0.22,0.59 -0.52,0.8 -1.17,0.08 0.01,0.93 -0.58,0.72 0.15,1.16 0.71,1.51 1.07,0.16 0.44,0.55 -0.28,0.46 0.81,-0.18 0.49,1.27 1.04,0.69 0.67,1.63 -0.19,2.54 0.64,0.33 -0.36,0.93 0.53,1.04 -0.72,0.62 0,0 -1.38,0.92 0.69,0.53 -0.35,1.29 -2.79,0.59 -0.4,1.31 -0.82,-0.35 -2.18,0.59 -0.86,0.72 -0.08,0.71 -0.63,0.61 -1.63,-0.96 -0.28,-0.91 -0.74,-0.77 -0.47,0.68 -0.48,0.04 -1.33,1.15 -0.22,-0.61 -0.49,0.41 0.17,1.36 -1.22,0.9 0,0.39 -1.22,0.02 -0.09,0.8 -0.53,-0.63 -0.51,0.3 0.04,1.25 0.45,0.23 0.3,-0.28 0.41,1.02 0.24,1.14 -0.35,0.34 0,0.8 0.8,0.47 0.01,0.36 -1.31,1.44 -0.21,1.05 -1.35,1.07 -0.46,-0.17 -2.64,0.67 -1.85,2.07 0.13,1.03 -0.59,0.82 0.72,0.93 -0.37,1.09 1.23,1.36 -0.46,1.29 -1.05,-0.35 -1.5,1.86 -0.04,1.21 0.9,0.09 0.26,0.91 -1.23,0.99 -0.31,1.05 -2.97,1.49 0.61,1.17 -0.09,0.33 -0.57,-0.12 -0.26,0.75 -0.64,0.26 0.05,1.66 -0.85,1.49 0.35,0.29 -0.34,0.86 0.24,0.78 -1.06,1.18 -0.91,0.38 0.23,1.32 0.72,0.88 -0.73,0.45 0.39,0.49 -0.43,0.19 0.15,0.52 0,0 0.23,0.8 -1.06,-0.34 -0.76,2.16 0.58,0.8 -0.45,0.32 0.88,1.38 -1.49,0.35 -0.55,-0.81 -1.3,-0.32 -1.18,-1.9 -0.79,-0.3 -0.59,0.09 -0.14,0.48 -0.94,-0.2 -2.16,1.26 -0.56,-0.59 -1.57,0.77 -0.43,-0.18 -0.51,1.42 -1.57,-0.73 -0.46,1.15 -0.64,-0.66 -0.84,0.59 -0.76,-0.26 -1.28,0.93 -0.93,-1.4 -0.62,0.21 -0.36,-0.77 -1.33,-0.62 1.98,-1.03 0.03,-0.82 0.84,-0.98 -0.06,-1.03 1.75,-0.98 0.36,-0.87 1.09,0.11 0.33,-0.47 0.71,-0.12 -0.16,-0.57 -0.46,-0.16 0.76,-0.97 -0.06,-0.52 -0.44,-0.55 -0.89,-0.13 -1.23,-1.25 -0.48,0.53 -0.74,-0.03 -0.65,0.91 -1.04,-0.22 0.06,0.44 -0.94,0.15 -1.41,-0.3 -1.13,0.8 -0.21,-0.42 0.28,-1.09 -0.68,-0.51 0.14,-0.49 -0.41,-0.31 0,0 -0.27,-0.32 0.61,-1.13 -0.96,-2.28 1.46,-2.8 -0.24,-1.27 0.42,-0.83 0.68,0.06 0.11,-0.45 1.59,-0.7 -0.28,-0.68 -0.48,-0.14 -1.13,0.65 -0.55,-0.35 -0.84,0.51 -0.41,-0.2 1.2,-2.02 -0.03,-1 0.67,-0.43 0.45,-2.5 -2.66,-0.36 -0.58,-0.55 -0.33,-2.11 1.12,-2.07 -1.36,-1.22 -0.17,-0.85 -0.45,-0.06 1.26,-2.58 -0.22,-0.29 0.28,-1.09 -2.24,0.71 -1.04,-0.19 -0.18,-0.57 0.36,-0.34 -0.5,-0.82 0.45,-0.6 -0.62,-0.4 0.42,-1.35 1.92,-2.35 -0.39,-1.16 0.37,-0.84 1.06,-0.56 0.16,-0.42 0.75,0.22 0.52,-0.67 0.97,-0.14 -0.54,-1.77 1.24,-0.12 2.06,-2.05 0.04,-0.95 -1.03,-0.59 0.48,-0.71 -1.65,-0.94 0.57,-0.79 0.27,-3.12 -1.05,-0.31 -0.03,-0.73 -0.51,-0.11 -0.23,-0.73 -0.53,0.1 -0.23,-1.42 0,0 0.13,-0.76 1.4,-1.59 2.3,-0.39 0.24,-1.68 0.48,-0.15 0.55,0.55 2.06,0.02 2.04,-1.05 0.75,0.03 0.26,0.44 1.28,-0.57 0.4,0.14 0.72,-1.1 -0.31,-0.19 -0.3,0.53 -0.33,-0.5 0.42,-0.72 0.69,0.4 -0.1,-0.54 0.66,-0.47 1.21,0.16 -0.28,0.51 1.05,0.17 0.19,-1.12 -0.49,-0.09 0.11,-0.72 -0.42,-0.48 0.58,0.33 1.4,-0.02 0.28,0.52 2.3,-1.67 0.08,-0.97 0.43,-0.48 2.11,-0.2 1.9,1.42 1.27,0.48 1.51,-0.37 z" 
                fill="rgb(151, 144, 238)" 
                stroke="white" 
                stroke-width=".7px"
                title="Jiangxi" 
                id="CN-36" 
            />
        </svg>