<svg xmlns="http://www.w3.org/2000/svg" viewBox="607.6575200000003 142.78016000000002 122.32000000000005 94.52999999999986" width="122.32000000000005" height="94.52999999999986">
            <path 
                d="m 627.18752,143.73016 0.87,-0.43 1.61,0.93 1.71,-0.63 0.82,0.49 0.49,-0.37 2.13,-0.28 0.84,-0.66 0.7,0.02 0.04,0.79 0.68,-0.55 0.07,2.21 0.47,0.12 -0.02,1.72 0.54,0.7 -0.63,0.16 0.21,0.56 -0.68,0.72 0.48,0.72 0.74,0.3 0.22,0.66 -0.44,0.43 0.33,0.54 -0.72,0.41 0.05,0.36 0.86,0.29 -0.27,0.42 0.96,0.5 0.27,1.27 0.92,-0.2 0.06,0.63 0.47,0.13 -0.01,0.65 1.08,0.13 -0.04,0.92 0.58,0.97 0.96,-0.34 0.94,0.89 0.49,-0.76 0.63,0.34 1.67,-0.57 0.24,0.51 0.79,0.01 0.44,-0.21 -0.09,-0.65 0.51,-0.97 0.44,0.79 1.15,-0.05 -0.03,1.09 0.66,0.94 0.53,-0.44 1.56,-0.23 0.45,0.47 0.14,-0.56 0.73,0.58 1.3,-1.11 -0.23,-0.54 0.72,0.26 1.36,-0.78 1.05,0.08 0.3,1.41 -0.2,1.69 0.35,0.08 0.31,0.85 0.63,0.27 0.17,0.66 0.4,-0.1 0.74,0.81 0.6,-0.04 0.15,0.47 0.37,-0.11 0.31,0.38 0.49,-0.23 1.35,0.61 0.28,-0.28 0.7,0.15 0.61,-0.41 -0.01,-0.44 0.85,0.09 0.91,-0.87 1.23,0.02 0.44,-0.34 1.6,1.17 0.96,0.17 0.38,0.67 2.1,0.05 0.1,1.05 1.48,2.17 -0.14,0.57 -0.92,0.7 -0.17,1.04 0.04,1 0.63,1.03 -0.15,1.97 0.25,0.52 0.58,-0.88 0.84,-0.07 0.17,-0.43 1.06,0.78 0.25,-0.62 1.15,0.3 0.49,-0.22 1.73,1.07 -0.07,0.86 -1.06,0.27 0.59,1.21 -0.29,0.68 1.73,2.08 -0.19,1.31 1.11,0.69 0.37,-0.53 0.24,1.74 0.59,0.48 0.56,-0.26 0.98,0.36 1.21,-0.55 0.21,-0.43 0.29,0.25 0.76,-0.44 -0.68,-0.91 0.43,0.08 0.28,-0.68 -0.11,-0.44 -0.41,-0.09 0.45,-0.63 -0.45,-0.39 -0.11,-0.79 0.22,-0.29 1.22,0.48 0.51,-1.5 2.03,-1.47 0.83,0.81 0.47,1.55 -0.05,3.82 0.66,0.66 1.67,4 0.49,0.09 0.85,2.23 -0.37,0.37 0.58,0.19 0.76,2.41 0.56,0.76 0.9,-0.13 0.73,0.55 2.51,-0.96 0.36,-0.97 -0.31,-0.95 0.08,-1.72 0.44,-0.51 1.33,0.27 1.76,-1.37 3.04,-0.02 0.6,-0.45 -0.08,-1 1.01,-0.87 0.07,0.27 1,-0.62 0.76,0.6 0.29,2.44 0.86,0.27 0.99,-1.48 0.96,-0.37 0.06,-0.55 1.2,-1.2 0.15,0.95 -0.32,0.77 0.56,0.82 0.61,2.53 0.42,0.07 0.19,1.42 0.57,0.74 1.41,0.13 -0.05,0.52 2.41,1.5 0.62,1.19 1.98,-1.16 1.56,1.65 0.39,-0.68 1.29,-0.56 0,0 0.31,0.18 0.06,1.32 -0.5,0.5 -0.09,1.3 -0.86,1.39 0.14,1.24 -1.33,2 0.38,1.54 -0.39,0.34 -1.08,-0.1 0.09,1.04 -2.48,-0.27 -0.63,0.73 -0.4,-0.21 -0.34,0.28 -0.36,-0.32 -2.49,1.12 -1.04,0.97 0.69,0.73 0.9,-0.31 1.17,1.28 -0.07,1.34 -0.52,-0.19 -0.19,0.35 0.67,1.9 -0.61,-0.16 -0.63,-3 -0.53,-0.08 0,0.98 -0.48,0.18 -0.27,-0.42 0.23,-0.53 -0.64,0.02 -1.7,-1.9 -0.19,-1.28 0.33,-1.89 -1.91,-0.18 -0.13,-0.21 0.5,-0.24 -0.27,-0.39 0.38,-0.24 -0.51,-0.3 -1.18,0.36 -0.69,-0.18 -0.1,-0.49 -0.67,0.04 -0.58,0.67 0.16,0.75 -0.32,0.15 -0.95,3.32 0.12,0.77 -0.32,0.45 0.36,0.73 -0.4,0.54 -0.04,1.84 -0.34,0.64 -0.88,-0.02 -0.31,-0.58 -0.34,0.22 0.06,0.6 -0.8,0.76 -1.12,-1.22 -0.59,-0.12 -0.47,0.35 -0.25,-0.35 -0.35,1.06 -1,0.2 0.21,0.89 -0.87,1.18 0.41,0.89 -3.29,2.11 -0.13,0.99 -2.54,-0.43 -0.67,0.54 -0.78,-0.41 -0.71,0.63 -0.67,0.03 -2.62,-0.69 -3.07,0.99 0.21,2.77 0.73,1.53 1.94,1.52 0.13,0.53 -0.28,1.18 -1.81,2.59 -0.5,0.25 -1.16,-0.96 -1.07,-0.32 -0.75,0.21 -0.05,0.37 -1.27,-0.33 -1.45,-0.01 -0.13,0.29 -1.09,-0.55 -0.22,-0.56 -1.58,0.31 -0.24,-0.44 -0.47,0.32 -1.26,-0.28 0.33,-0.28 -0.16,-0.27 -0.37,0.17 -0.42,-0.5 -1.3,-0.1 0.95,-0.94 -0.7,-0.12 -1.08,-1.22 0.49,-0.47 -0.31,-0.62 -1.54,-0.61 0.24,-0.31 -0.26,-0.28 -0.57,0.28 -0.52,1.1 -0.45,-0.27 -0.24,0.84 -0.7,-0.82 -0.66,-0.09 0.64,0.67 -0.56,0.74 -0.94,-0.03 -0.63,0.93 0.33,0.96 -1.03,2.05 0.23,1.31 -0.36,-0.28 -0.59,0.26 -1.09,1.21 -0.08,0.67 -0.59,0.31 -0.26,1.07 -1.61,1.26 -0.61,0.1 0.26,0.47 -0.84,0.96 0.07,0.44 -0.53,0.67 -0.62,0.13 0.53,0.31 -1.07,0.43 -0.28,-0.62 0,0 -1.32,0.72 -0.37,-0.61 -0.96,0.63 -0.66,-0.76 -1.1,0.2 1.28,-1.22 0.05,-0.76 0.71,-0.89 -0.35,-0.52 1.1,-1.13 -0.71,-0.23 0.19,-0.89 -1.39,-0.52 -0.07,-1.17 -1.4,-1.47 0.07,-0.84 -1.09,-2.08 0.09,-1.18 -1.65,-0.25 0.26,-1.26 -0.66,-1.36 0.11,-1.03 0.5,-0.46 -0.56,-0.65 0.82,-0.59 0.65,-0.9 -0.02,-0.67 0.49,-0.07 0.48,-0.69 -1.49,-0.62 -0.74,0.62 -0.51,-2.14 0.28,-0.31 -0.4,-0.5 -1.11,0.04 0.11,-1.89 -1.33,-1.41 0.26,-1.82 -0.95,-0.11 -0.13,-0.72 -0.43,-0.29 -0.03,-2.03 -0.66,-0.34 -0.39,0.51 -0.34,-0.27 0.07,-3.06 -0.41,-0.72 0.67,-0.95 -0.01,-0.91 -1.26,0.29 -1.22,0.94 -0.54,1.54 -1.61,1.74 -0.64,0.16 -0.16,0.62 -0.2,-0.71 -1.02,-0.51 0.92,-0.84 -0.08,-0.39 -0.72,-0.09 -0.43,-0.46 0.99,-1.42 -1.59,-1.41 -0.15,-1.04 -0.76,-0.57 -1.24,0.09 -0.43,-0.77 -0.82,0.13 -1.5,-1.44 -0.63,-0.83 0.11,-0.68 -0.83,-0.63 -1.03,1.22 -0.17,0.74 0,0 0.03,0.11 0,0 -1.39,0.01 -1.37,-1.7 -0.61,0.82 -1.43,-1.29 0.06,-1.06 1.32,0.18 0.23,-0.34 -0.43,-0.59 1.17,0.11 0.41,-0.52 -0.47,-1.81 -0.48,-0.44 0.15,-1.83 -1.9,-3.68 0.73,-1.58 -1.04,-0.51 -1.11,-2.46 -1.02,-0.64 0.1,-2.71 -1.51,0.29 -1.9,1.76 -1.36,0.49 -1.1,1.08 -2.44,1.37 -1.66,0.03 -1.08,-0.51 0.37,-1.38 -0.03,-2.22 -0.76,-0.05 -0.31,-1.31 -1.15,-0.6 -0.25,-1.07 0.35,-1.54 -0.54,-0.38 0.22,-0.27 0.59,0.19 0.25,-0.44 -0.82,-0.12 -0.88,-2.04 0.67,-0.3 0.41,-4.27 1.5,-1.24 0.02,-0.77 -1.18,-0.62 0.21,-2.44 -1.73,-0.87 -0.7,-1.36 0.41,-1.42 -0.39,-0.98 -1.5,-0.41 -0.76,0.55 -0.82,0.01 -1.23,-1.25 1.5,-0.67 0.96,-2.42 -0.59,-1.27 0.82,-0.5 1.46,0.81 0.48,-0.21 1.23,2 0.8,0.28 1.19,1.1 0.6,-0.36 0.32,-0.74 0.52,-0.1 0.09,-0.73 0.6,-0.01 0.79,0.75 0.76,1.72 1.79,0.92 0.4,0.6 1.13,-1.59 0.25,-1.71 -0.51,-3.54 3.27,-0.54 0.3,-0.57 0.59,-0.09 -0.15,-0.69 z" 
                fill="rgb(151, 144, 238)" 
                stroke="white" 
                stroke-width=".7px"
                title="Jilin" 
                id="CN-22" 
            />
        </svg>