<svg xmlns="http://www.w3.org/2000/svg" viewBox="572.4675200000004 192.75016000000002 89.37999999999965 79.71000000000006" width="89.37999999999965" height="79.71000000000006">
            <path 
                d="m 608.90752,260.41016 -0.41,-0.04 -0.02,0.8 -1.23,-0.25 -0.75,0.81 -0.8,-0.87 0.13,-0.63 -0.51,-0.59 -0.84,-0.34 -0.93,0.69 -0.21,-0.4 -0.78,-0.01 0.96,-1.42 1.46,-0.08 0.56,-0.41 1.08,0.57 -0.29,-1.71 -0.29,0.27 -0.55,-0.93 0.48,-0.56 -0.25,-0.52 0.8,-0.95 0.9,0.02 1.12,-1.04 0.93,0.26 0.3,-0.71 1.27,-0.72 -0.06,-0.29 -0.81,-0.15 0.73,-0.18 0.54,-0.94 0.94,-0.56 -0.01,-0.85 1.22,-0.86 0.2,-0.69 -0.37,-0.27 1.36,-1.11 0.1,-0.96 1.68,-0.98 -0.1,-0.82 -0.67,0.04 -1.55,-1.33 0.12,-1.3 -2.65,-1.65 -0.39,-0.88 -0.09,0.28 -0.68,-0.13 -0.6,-2.29 -0.96,1.94 -2.21,0.07 -0.87,-0.75 -3.94,-0.64 -1.28,0.99 -0.05,0.67 -0.74,-0.06 -0.42,-0.5 -0.43,0.95 0.46,0.25 -0.61,0.18 -0.13,0.63 1.02,0.28 -2.24,0.71 -0.44,1.31 -1.64,1.1 -0.01,0.85 -0.98,0.45 0.2,0.4 -0.39,0.61 0.27,0.49 -1.17,0.63 0.04,1.17 -0.71,0.94 -1.82,0.23 -1.87,1.19 -2.69,0.94 -0.37,0.78 -0.92,0.25 0,0 0,-0.95 -0.86,0.05 -0.36,-2.37 -1.51,-0.7 0.27,-0.6 -0.66,-1.22 0.1,-1.85 -0.68,-0.9 0.28,-0.48 -3.75,0.06 -0.71,-0.56 0.13,-0.58 -1.02,0.03 0.33,-1.46 -1.56,0.44 -2.58,-2.23 0.59,-2.67 1.19,0.04 0.39,-0.7 -1.06,-0.53 0.1,-0.57 1.61,-0.31 0.13,-0.81 1.3,-0.86 -0.23,-0.62 0.88,-0.57 0.05,-1.01 0,0 0.89,-0.58 0.2,0.33 0.05,-0.93 -0.32,-0.29 0.68,-0.23 0.56,-0.98 -0.55,-1.25 0.66,-0.6 -0.73,-0.33 -0.68,-1.66 0.22,-0.6 -0.37,-0.79 0.5,-1.27 0.02,-1.27 0,0 -0.11,-0.52 0.47,-0.52 0,0 0.28,-1.58 -0.89,-0.61 -0.89,-1.49 0.56,-0.93 2.24,-1.09 0.51,-0.93 0.53,0.53 0.03,0.93 0.77,0.78 1.82,0.84 1.22,-0.12 -0.06,1.9 2.5,4.87 -0.15,1.58 0.86,0.42 0.54,-0.53 -0.15,-0.75 2.06,-2.94 1,-0.74 0.66,0.14 0.68,-0.68 -0.1,-1.41 1.49,-1.05 0.51,0.21 1.43,-1.12 1.05,-0.12 0.8,-0.67 1.96,0.26 2.93,-2.13 0.75,-1.35 1.9,-0.69 0.22,0.25 0,0 0.4,-0.23 0,0 0.77,-0.37 0.87,1.35 0.69,-0.2 1.43,-1.4 0.41,0.04 0.64,-1.02 -0.15,-0.73 0.45,-0.93 1.52,-0.64 1.36,0.63 0.43,-0.1 0.06,-0.58 1.69,0.9 0.63,-0.09 0.84,-1.44 -1.12,-0.24 -0.28,-0.82 0.41,-0.38 2.21,0.34 0.94,0.91 1.27,-0.17 1.36,1.03 0.41,-0.07 0.27,-0.66 2.29,-0.13 0.56,-0.57 1.59,-0.39 -0.73,-0.45 0.05,-1.24 0.83,-1.07 2.95,-0.85 1.28,0.71 1.11,-3.33 -0.24,-0.28 0.38,-0.67 -0.29,-0.19 0.59,-0.36 -0.25,-0.1 0.38,-0.55 -0.15,-0.93 0,0 -0.03,-0.16 0,0 0.17,-0.75 1.03,-1.22 0.84,0.63 -0.12,0.69 0.63,0.82 1.5,1.45 0.82,-0.13 0.43,0.76 1.24,-0.09 0.77,0.57 0.14,1.04 1.59,1.42 -1,1.41 0.44,0.46 0.72,0.09 0.08,0.39 -0.92,0.84 1.02,0.52 0.2,0.71 0.16,-0.62 0.64,-0.17 1.61,-1.73 0.54,-1.55 1.21,-0.94 1.26,-0.29 0.01,0.91 -0.67,0.96 0.41,0.72 -0.08,3.06 0.34,0.27 0.39,-0.51 0.66,0.33 0.03,2.03 0.43,0.29 0.13,0.72 0.96,0.11 -0.27,1.82 1.33,1.41 -0.1,1.88 1.1,-0.04 0.4,0.5 -0.27,0.31 0.5,2.14 0.74,-0.62 1.49,0.62 -0.48,0.69 -0.48,0.08 0.01,0.67 -0.64,0.9 -0.83,0.59 0.56,0.65 -0.5,0.46 -0.11,1.04 0.67,1.35 -0.26,1.27 1.65,0.25 -0.09,1.18 1.1,2.07 -0.08,0.84 1.4,1.47 0.07,1.17 1.39,0.52 -0.19,0.88 0.72,0.23 -1.1,1.14 0.35,0.52 -0.71,0.89 -0.05,0.77 -1.28,1.22 1.1,-0.21 0.65,0.77 0.96,-0.63 0.37,0.61 1.32,-0.72 0,0 -1.36,0.82 -0.42,-0.42 -0.81,0.47 -0.88,0.81 0.59,0.77 -1.62,-0.02 -0.25,0.72 -0.92,0.17 -0.16,0.71 -0.49,0.04 0.08,0.63 -1.88,-0.39 -0.44,0.73 -0.83,0.04 -2.01,1.2 -0.2,0.53 0.61,0.31 -0.15,0.42 -1.42,0.12 -0.31,-0.47 -0.78,1.11 -1.18,0.67 -0.12,0.82 -1.62,0.77 -2.77,2.49 -0.72,0.99 0.45,1.04 -0.94,0.62 -0.1,0.49 -0.79,0.29 -0.8,1.64 -0.84,-0.22 -1.14,0.47 -0.46,-0.61 -1.1,0.15 -0.08,-0.47 -1.91,0.46 -1.43,-0.29 -0.72,0.76 -0.91,0.12 -0.28,0.71 -0.55,0.29 -0.07,-1.36 -1.29,0.29 -0.33,-0.3 -0.14,0.98 -0.4,0.23 0.53,0.77 -0.73,-0.12 -1.06,0.55 -1.62,-0.24 -0.54,0.86 -1.99,0.63 -0.68,-0.27 0.33,0.58 -1.23,0.8 -0.3,-0.6 -0.34,1 -0.73,0.54 -0.66,-0.17 -0.73,0.48 -0.45,-0.37 -0.49,0.32 -0.68,1.12 -1.13,0.67 0.26,0.29 -0.3,0.63 -1.6,1.01 -0.06,0.52 0.4,0.54 -0.75,0.66 -0.64,-0.22 0.43,1.05 -0.81,-0.23 -0.49,0.73 -0.73,-0.74 -1,0.54 0.16,0.44 0.77,0.3 -0.33,0.75 -0.59,-0.12 -0.78,-1.26 -0.56,0.04 0.4,0.32 -0.28,0.23 -0.74,-0.43 -0.33,0.35 0.23,0.47 -1.02,0.49 1.69,0.67 -0.25,0.62 -1.4,-0.22 -1.44,0.99 -1.48,-0.11 -1.18,0.56 -0.42,-0.22 -0.39,1.32 -0.82,-0.06 -0.29,-0.85 0.45,-0.27 -0.49,-0.9 0.4,-0.42 0.28,0.27 0.16,-0.43 -0.47,-0.29 -0.59,0.16 0.11,-0.59 0.59,-0.39 0.98,0.39 0.68,-0.61 0.83,-0.09 -0.22,-0.6 0.6,-0.77 0.87,0.74 2.8,-1.06 0.32,-0.86 -0.65,-0.84 -0.44,0.18 -0.22,-0.37 1.05,-0.51 -0.41,0.01 0.24,-0.36 -0.47,0.09 -0.31,-0.47 1.72,-0.03 0.39,-0.57 -0.13,-0.7 1.48,-0.05 1.07,-0.71 -0.01,-0.59 -0.33,-0.1 -0.54,0.18 0.23,0.47 -1.75,0.24 -0.45,-0.32 0.02,-0.97 z" 
                fill="rgb(151, 144, 238)" 
                stroke="white" 
                stroke-width=".7px"
                title="Liaoning" 
                id="CN-21" 
            />
        </svg>