<svg xmlns="http://www.w3.org/2000/svg" viewBox="298.80751999999995 5.120157499999737 365.0899999999999 288.2400025000001" width="365.0899999999999" height="288.2400025000001">
            <path 
                d="m 605.93752,5.1201575 1.41,1.5 0.74,0.28 0.11,1.05 -0.28,0.35 0.88,0.77 0.35,-0.07 0.29,1.1399995 0.54,0.6 -0.38,0.95 -0.94,0.55 -0.71,1.77 -0.61,0.38 -0.06,1.15 -1.49,1.29 -1.25,1.78 -1.13,0.54 -1.31,1.39 0.4,0.42 1.25,0.1 0.49,0.87 0.54,0.09 1.45,1.39 1.63,0.29 0.83,2.57 1.53,0.71 0.93,0.04 0.49,-0.35 1.11,-1.63 0.06,-0.73 0.64,-0.29 -0.13,-0.27 1.08,-1.55 0.53,0.94 1.3,-0.12 0.42,1.29 0.81,0.73 0.5,-0.34 0.44,0.95 -0.05,1.07 1.37,0.61 1.17,-0.21 0.4,0.42 0.66,-0.22 0.31,0.29 -0.22,1.53 -0.41,0.51 -1.35,0.35 -0.08,1.43 0.33,0.16 0.34,1.62 0.62,0.03 -0.25,1.81 0.83,2.26 -0.28,0.73 1.35,2.78 -0.31,0.44 0.67,0.86 -0.39,1.31 0.58,0.65 0.03,0.58 0.75,0.45 0.05,0.98 0.44,0.67 0.86,-0.16 2.79,1.41 0.62,-0.43 1.4,0.01 0.3,-0.35 1.07,0.01 1.31,-0.61 0.71,-1.61 0.96,0.77 0.61,-0.13 1.06,1.35 0.86,-0.44 0.97,0.04 0.35,-0.44 1.59,-0.15 0.59,0.84 0.86,0.3 0.11,0.44 0.74,0 0.39,-1.65 0.67,-0.54 1.08,0.2 0.72,0.88 1.23,-0.39 0.54,-0.88 1.32,0.14 0.83,-1.3 -0.18,-1.02 1.65,-0.82 0.18,-1.86 0.59,-0.62 0.18,0.54 1.86,-0.07 0.42,0.56 0.45,-0.28 4.39,5.9 0.8,1.45 -0.12,0.58 1.29,0.41 0.36,1.13 -0.21,0.2 0.93,0.29 0.01,0.41 0.74,-0.25 -0.24,0.78 1.04,1.01 -0.29,0.02 -0.06,0.55 0.61,0.73 -0.48,0.87 -0.31,-0.05 0.1,0.5 -0.38,-0.06 0.03,0.6 -0.47,-0.5 -0.09,0.82 -0.75,-0.04 0.35,0.51 -0.79,0.89 -0.4,-0.01 0.16,0.64 -0.68,-0.27 -0.44,0.43 0.5,0.17 -0.24,0.36 0.61,0.43 -0.45,0.48 0.47,2.6 -0.75,0.3 -0.19,0.55 -0.18,-0.36 -0.75,0.53 0.32,0.26 -0.55,0.15 -0.36,0.63 -0.45,-0.21 -0.08,0.37 -0.35,-0.1 0.15,0.78 -0.57,-0.41 -0.27,0.28 0.35,0.47 -0.21,0.31 0.37,0.19 -0.43,0.24 0.09,0.7 -0.78,0.33 0.1,0.51 -0.34,0.2 0.3,0.58 -0.4,-0.03 -0.04,0.6 -0.53,0.01 0.04,0.45 -0.72,0.19 0.53,0.52 -0.52,0.01 -0.07,0.42 -0.25,-0.49 -0.37,0.3 -0.09,0.97 0.8,0.38 -1.12,0.16 0.62,0.39 -0.08,0.5 -0.64,0.27 -0.05,0.59 -0.71,0.06 0.56,0.63 0.27,1.06 -0.36,0.17 0.31,0.27 -0.18,0.24 -0.64,0.12 0.64,0.61 -0.33,1.2 0.31,0.24 -0.06,1.12 -0.34,0.74 -0.47,-0.88 -0.36,0.58 0.2,0.51 0.38,-0.24 0.43,0.77 0.32,-0.01 0.05,1.08 -0.41,0.02 0.8,1.61 -0.1,2.67 -0.59,0.65 0.26,0.42 -0.25,0.11 0.09,1.25 -0.41,0.03 -0.93,1.17 -1.02,-0.56 0.03,-0.42 -0.64,0.29 -1.12,-0.37 -1.16,1.31 0.21,1.31 -0.57,0.67 -0.36,1.71 -0.54,-0.02 -0.07,1.52 -0.61,0.35 0.03,0.95 -0.49,0.49 -0.17,2.2 -0.42,1.170003 -0.31,-0.07 -0.29,0.49 0.33,0.26 0.11,1.38 -0.33,0.2 -0.15,1.46 0.8,1.45 -0.89,3.29 -1.06,0.71 0.7,-1.47 -0.84,-0.47 0.18,-1 -0.94,-0.83 0.04,-0.54 -0.59,-0.94 0.28,-0.17 -0.32,-0.39 0.33,-0.61 -0.42,-0.71 0.26,-0.39 -0.61,-0.88 -3.43,2.92 -3.51,3.8 -1.81,2.52 -3.38,1.49 -1.63,3.05 -4.31,2.45 -0.98,1.03 -2.42,1.5 -0.92,2.39 -1.35,1.15 2.74,4.11 3,1.29 -0.96,1.43 0.35,0.67 1.17,-0.34 0.03,2.62 1.32,1.12 0.17,0.69 1.89,-0.47 0.67,-1.95 1.87,-0.29 0.23,-1.27 -0.84,-0.57 0.04,-0.76 1.16,1.12 1.52,-0.15 -0.65,1.9 0.3,0.53 0.72,-0.01 0.19,-1.24 0.36,0.07 0.16,0.87 -0.48,0.29 0.72,0.26 -0.46,2.21 -4.07,0.54 -0.11,0.87 -0.57,0.44 -0.54,-0.41 -1.22,0.15 -0.41,-0.27 -0.02,0.68 -0.58,0.19 -0.18,1.29 0.36,1.47 2.01,3.14 0,0 -0.93,1.37 0.14,0.69 -0.59,0.08 -0.3,0.57 -3.26,0.54 0.5,3.54 -0.25,1.71 -1.13,1.59 -0.4,-0.61 -1.79,-0.92 -0.75,-1.72 -0.8,-0.74 -0.6,0 -0.09,0.73 -0.52,0.1 -0.32,0.74 -0.61,0.36 -1.18,-1.1 -0.81,-0.27 -1.23,-2 -0.48,0.21 -1.46,-0.81 -0.82,0.51 0.59,1.27 -0.96,2.42 -1.5,0.67 1.23,1.26 0.81,-0.02 0.76,-0.55 1.5,0.41 0.39,0.98 -0.41,1.42 0.7,1.36 1.73,0.87 -0.21,2.44 1.18,0.62 -0.02,0.77 -1.5,1.24 -0.41,4.27 -0.68,0.31 0.88,2.03 0.82,0.13 -0.25,0.43 -0.58,-0.18 -0.23,0.27 0.54,0.38 -0.35,1.55 0.25,1.06 1.15,0.6 0.31,1.31 0.76,0.05 0.03,2.22 -0.37,1.37 1.08,0.52 1.66,-0.03 2.44,-1.37 1.1,-1.08 1.36,-0.49 1.9,-1.77 1.51,-0.29 -0.11,2.72 1.02,0.63 1.12,2.46 1.04,0.51 -0.73,1.58 1.9,3.68 -0.15,1.83 0.49,0.44 0.46,1.81 -0.41,0.52 -1.17,-0.11 0.43,0.6 -0.23,0.33 -1.32,-0.18 -0.06,1.06 1.44,1.29 0.6,-0.82 1.37,1.7 1.39,0 0,0 0.01,0.05 0,0 0.15,0.93 -0.38,0.55 0.25,0.1 -0.59,0.36 0.29,0.19 -0.38,0.67 0.24,0.28 -1.11,3.33 -1.28,-0.71 -2.95,0.85 -0.83,1.07 -0.05,1.24 0.73,0.45 -1.59,0.39 -0.56,0.57 -2.29,0.13 -0.27,0.66 -0.41,0.07 -1.36,-1.03 -1.27,0.17 -0.94,-0.91 -2.21,-0.34 -0.41,0.38 0.28,0.82 1.12,0.24 -0.84,1.44 -0.63,0.09 -1.69,-0.9 -0.06,0.58 -0.43,0.1 -1.36,-0.63 -1.52,0.64 -0.45,0.93 0.15,0.73 -0.64,1.02 -0.41,-0.04 -1.43,1.4 -0.69,0.2 -0.87,-1.35 -0.77,0.37 0,0 -0.4,0.23 0,0 -0.22,-0.25 -1.9,0.69 -0.75,1.35 -2.93,2.13 -1.96,-0.26 -0.8,0.67 -1.05,0.12 -1.43,1.12 -0.51,-0.21 -1.49,1.05 0.1,1.41 -0.68,0.68 -0.66,-0.14 -1,0.74 -2.06,2.94 0.15,0.75 -0.54,0.53 -0.86,-0.42 0.15,-1.58 -2.5,-4.87 0.06,-1.9 -1.22,0.12 -1.82,-0.84 -0.77,-0.78 -0.03,-0.93 -0.53,-0.53 -0.51,0.93 -2.24,1.09 -0.56,0.93 0.89,1.49 0.89,0.61 -0.28,1.58 0,0 -0.47,0.52 0.11,0.52 0,0 -0.02,1.27 -0.5,1.27 0.37,0.79 -0.22,0.6 0.68,1.66 0.73,0.33 -0.66,0.6 0.55,1.25 -0.56,0.98 -0.68,0.23 0.32,0.29 -0.05,0.93 -0.2,-0.33 -0.89,0.58 0,0 -0.49,0.54 -3.17,-0.6 -0.74,0.29 -0.59,-1.24 -0.93,0.36 -0.19,0.46 -0.98,-0.42 -1.88,-0.08 -1.24,0.28 -0.39,0.46 -0.43,-0.19 -0.21,-1.78 -1,-0.79 0.58,-0.62 -0.04,-0.91 -1.15,-0.38 -0.09,-0.9 -0.69,-0.57 -0.36,-1.12 0.53,-1.22 0.74,0.04 0.21,0.64 0.45,0.14 0.69,-1.41 -0.94,-1.21 0.56,-1 -0.87,-0.73 0.64,-0.23 -0.34,-0.84 -0.62,0.08 -0.16,0.81 -1.06,-0.07 0.49,-0.75 -0.8,-0.48 0.18,-1.06 -1.73,-1.2 1.15,-0.95 -0.64,-0.83 0.13,-0.83 -2.74,-3.16 -0.02,-0.56 -2.46,0.81 -0.7,-0.76 -0.19,0.45 -0.78,-0.04 -0.1,0.98 -1.13,1.13 -3.59,-0.36 -2.16,1.32 -0.34,1.36 0.25,2.2 -1.63,0 1.25,1.47 -0.06,1.56 -0.92,0.67 -0.79,-0.05 -0.18,0.81 -0.82,-0.22 -1.42,0.32 -0.72,-0.86 -0.54,0.57 -0.72,0.07 0.16,-0.88 -1.03,-0.2 -0.41,0.69 -0.97,0.56 -0.28,1.14 -1.09,0.18 -0.07,1.12 -0.65,0.25 -0.74,-0.15 0.06,-0.67 -0.99,-2.05 -1.16,0.09 -0.8,0.81 -0.42,-0.05 -0.13,0.43 -0.49,0.02 -0.44,0.68 -2.77,1.63 -1.19,0.33 -0.28,0.61 0.68,0.97 -0.76,0.33 -0.33,-0.5 -0.47,0.8 -1.62,-0.86 -0.69,0.46 -1.44,-0.2 -1.04,0.37 0.5,-1.65 -0.36,-1.84 0.92,-0.53 -0.58,-2.77 -0.99,-0.94 0.61,-1.23 -0.62,-0.73 -0.4,0.05 -0.41,0.97 -2.36,-0.49 -0.82,0.42 -0.38,0.98 0.24,1.44 -2.02,0.75 -1.58,2.07 0.39,3.62 -0.25,0.61 0.34,0.69 -2.82,-0.22 -1.97,1.38 0.05,0.5 0.83,0.45 -0.42,1.14 0.2,0.5 1.19,0.87 -0.4,0.87 -0.88,0.16 -0.46,0.91 -0.74,0.3 1.94,1.91 1.27,2.1 -0.39,0.51 1.16,1.48 0,0 0,0 0,0 -0.86,0.36 -0.32,1.77 0.51,0.72 -0.25,0.61 -1.27,0.15 -1.23,1.04 -0.87,-1.02 -0.33,0.68 -1.12,0.55 -1.52,1.57 -3.07,0.45 -0.83,-1.52 -3.3,0.92 -1.22,0.51 -0.56,1.97 -1.24,0.65 -3.65,-2.16 -1.93,0.76 -4.15,7.34 -0.57,3.12 -2.14,0.4 -1.38,-0.76 -1.94,-0.37 -0.77,0.23 0.22,0.53 -0.42,-0.07 0.09,1.65 -0.81,0.57 -0.2,0.85 -2.38,0.17 -0.51,0.42 0.18,0.4 0,0 -0.53,0.07 -0.47,-0.93 1.13,-2.06 -0.24,-0.58 -0.47,0.44 -0.82,-0.17 -1.92,1.13 -1.76,2.38 -0.23,1.05 -1.25,0.6 -1.25,-2.19 -1.29,0.36 0.1,0.41 -0.47,0.38 -1.84,-2.11 -1.21,-0.3 -0.36,0.4 0.14,0.56 1.08,1.93 -3.27,1.57 -1.15,1.5 -1.88,0.48 -0.5,2.17 -1.06,1 -0.29,0.92 -0.71,-0.29 -1.13,0.44 -0.33,1.46 -0.89,0.11 0.21,1.41 -0.93,-0.12 -0.67,0.82 -0.76,0.26 -0.32,1.26 -1.02,0.57 -0.99,1.72 -0.51,2.52 1.55,1.52 0,0.86 -1.44,1.78 -1.21,-1.52 -0.66,-0.05 0.41,0.52 -0.57,0.69 0.02,4.13 -0.84,-0.09 -0.34,0.48 -1.46,0.14 0.02,-0.55 -0.6,-0.08 -2.01,0.28 -0.62,0.61 -0.8,-0.52 -1.46,0.78 -1.55,-0.77 -0.61,-2 -2.7,-0.66 -0.86,-0.83 -0.41,0.18 0,0 -1.63,-0.36 -1.44,-0.82 0.25,-0.77 -1.26,-1.5 -0.89,-0.12 -1.15,-0.95 -2.06,0.58 -2.45,-0.58 -3.19,-1.68 -0.84,-0.88 0.09,-0.61 1.48,-1.33 0.69,-1.62 0.35,-2.97 0.52,-0.17 0.86,-1.47 1.93,-2.02 0.12,-0.59 -0.17,-1.19 -1.42,-0.52 0.13,-0.75 -0.83,-1.56 -0.05,-2.11 -0.43,-0.26 -1.91,0.25 -1.46,1.21 -2.52,0.32 -0.03,2.04 -0.43,0.24 -1.02,-0.51 -0.31,0.16 -0.63,1.11 -0.21,1.68 -1.4,1.22 0.25,0.71 -1.03,1.32 -0.71,2.38 0.26,0.58 -0.57,2.9 0.46,2.33 -1.01,1.07 -0.19,1.09 0.91,2.08 -0.52,1.08 0.09,1.13 -0.57,1.05 -1.52,0.34 -0.52,1.26 -2.52,-0.17 -2.24,0.52 -1.41,0.69 -1.54,1.41 -2.31,0.09 -1.14,0.52 -1.73,-0.52 -2.09,0.37 -0.18,0.77 -1.47,0.61 0,0 -1.28,0.32 -3.62,-2.91 -2.81,-3.09 -3.27,-0.98 -0.61,-3.88 2.3,-1.03 -0.76,-2.75 -0.91,-1.29 5.86,-3.82 1.97,-3.97 1.8,-0.81 0.4,-2.45 -1.94,-3.32 0.49,-1.96 -1.89,-0.76 -1.31,0.1 -6.02,1.84 -1.35,1.59 -1.65,0.74 -1.54,1.64 -4.98,-1.29 -1.92,-1.18 -3.22,1.36 -4.87,1.11 3.35,3.32 -2.74,2.78 -0.13,0.72 -0.97,0.24 -0.38,-0.43 -0.9,-0.02 -0.75,0.49 -1.09,-1.02 -2.56,-0.92 0.05,-1.07 -1.12,-0.38 -0.32,-1.08 -0.53,-0.25 0.55,-1.12 -2.58,1.08 -0.96,-1.45 -1.1,0.57 -0.19,-1.02 0.31,-0.71 -0.42,-1.52 0.24,-3.01 -4.4,-0.02 0.02,-1.33 -2.29,-0.63 -0.23,-1.79 -0.65,-0.97 -3,-0.86 -3.14,-2.39 -3.94,0.16 2.1,-3.09 3.63,-2.44 1.43,-3.05 2.78,-3.37 -0.17,-2.01 -1.68,-2.68 -0.99,-0.39 -4.27,-0.44 -1.38,1.4 -4.92,-0.27 -3.92,1.86 -2.79,3.5 -4.95,0.28 1.43,-5.17 -0.21,-0.76 -0.25,-0.53 -1.3,-0.6 -2.86,-2.59 -0.39,0.16 -4.56,-6.07 0.11,-0.58 2.77,-2.79 -8.28,-18.92 0,0 10.55,1.51 2.88,0.78 15.77,1.16 6.3,-1.33 3.63,0.29 0.55,-0.9 7.39,0.65 11.44,2.93 3.11,4.34 4.44,1.33 4.1,0.11 2.99,1.83 4.37,2.01 6.83,1.68 2.05,-0.05 6.56,-1.23 -0.12,3.73 5.19,0.29 1.13,1.31 2.92,-2.88 0.51,0.07 6.27,-3.77 11.14,-5.12 7.36,-1.66 0.36,-0.86 2,-0.93 0.85,-0.07 0.43,0.67 4.53,0.25 4.12,-0.85 0.68,0.38 2.95,-0.27 3.25,0.78 0.37,0.38 1.98,-1.18 3.83,0.58 3.49,-0.83 3.63,-2.62 4.03,-0.22 2.28,-1.51 1.46,-1.22 0.04,-1.05 2.14,-1.23 1.03,-2.19 4.34,-4.95 4.77,-2.21 1.89,-0.33 2.35,-3.57 2.45,-0.62 0.64,-0.69 -0.03,-0.86 -1.89,-3 -2.31,-0.75 -0.49,-0.51 -3.09,-4.99 0.11,-1.25 1.53,-3.01 0.54,-2.38 2.28,-4.25 1.87,-2.01 1.11,-0.27 5.55,0.51 0.89,0.49 1.05,1.42 2.19,1.42 2,0.17 2.79,1.16 4.31,0.14 2.05,0.85 2.12,-1.84 3.25,-1.85 4.18,-3.8 1.39,-2.16 0.3,-1.58 1.65,-1.02 1.37,-0.4 3.13,0.92 0,0.66 2.4,-0.43 1.89,0.11 3.04,-0.86 1.79,-0.13 0.56,-1.16 2.14,-1.96 1.65,-1.15 1.29,-0.05 0.71,-0.46 0.63,-1.03 0.14,-1.21 -0.37,-0.98 0.09,-1.23 1.44,-2.68 2.26,-2.5 0.38,-0.94 2.27,-0.52 1.23,-1.19 1.52,0.61 4.85,-0.02 0.12,-1.54 0.8,-1.55 0.01,-1.13 2.04,-0.11 0.92,1.31 1.82,-0.09 0.79,-1.07 2.04,-0.97 1.67,-1.66 1.07,-0.3 0.15,-0.93 2.29,0.14 0.79,-0.52 1.03,0.83 0.58,-0.1 0.37,-0.66 1.65,0.42 2.23,-0.68 -0.07,0.62 1.53,0.08 -0.07,0.69 0.48,0.41 1.08,-0.25 2.42,1.85 0.69,1.34 -0.67,0.44 -0.21,1.12 1.56,1.02 -0.03,-0.76 0.74,-0.59 0.36,-1.05 2.23,-1.31 0.81,-1.53 1.09,-0.85 -1.52,-3.15 0.16,-1.18 -0.33,-0.89 0.58,0.06 0.07,-1.67 -0.62,-0.05 -1.15,-1.26 0.78,-0.47 0.63,1.18 0.74,-0.13 -0.5,-1.75 -1.46,-1.21 -0.91,0.1 -1.07,-0.59 -1.07,0.21 -1.93,-1.79 0.23,-0.66 -0.3,-1.46 -1.37,0.5 -0.71,-0.38 -0.35,-3.06 -4.4,-1.94 -3.75,-3.64 -2.85,-0.03 -0.79,-0.56 -1.02,0.23 0.13,-0.35 -3.51,0.23 -1.04,0.66 -2.57,3.78 -1.09,0.72 -1.21,2.1 -3.36,-3.22 -3.84,-1.69 -2.05,0.18 -1.86,0.9 -3.02,-0.64 -0.56,0.2 -0.94,0.57 -2.56,3 -4.54,-4.88 -1.26,-0.62 -0.26,-0.5 1.18,-0.09 -0.5,-3.4 3.99,-1.71 -0.03,-4.88 3.66,-4.980003 -0.7,-1.74 8.14,-18.5 3.13,2.32 4.12,1.74 2.58,0.06 4.75,2.39 0.24,-0.64 1.83,-1.46 0.61,0.02 -0.08,-0.32 0.65,-0.63 0.6,0.01 1,-1.4 1.78,-0.84 0.09,-0.94 0.38,0.18 0.67,-0.41 1.18,-1.76 4.68,-1.1 0.71,0.23 1.07,-0.27 0.55,-0.58 1.01,0.02 1.32,-1.65 0.78,-1.55 -0.05,-1.06 -0.55,-0.95 0.65,-0.78 -0.32,-0.61 -2.08,0.04 -0.24,-0.59 -0.54,-0.18 0.53,-0.65 0.58,0.16 0.61,-1.41 -0.27,-0.43 0.36,-0.28 0.2,-1.73 0.88,-0.55 0.35,-0.99 0.71,-0.25 0.66,-0.92 0.43,-3.33 1.28,-1.97 0.9,-0.28 0.26,-1.02 0.48,-0.41 0.34,-1.46 -0.16,-1.11 0.63,-0.04 -0.28,-0.47 0.24,-0.79 0.78,-0.3 0.15,-0.89 0.61,-0.27 -0.34,-0.61 0.68,-0.42 0.42,-0.95 -0.21,-0.77 0.91,-1.25 -0.08,-0.89 0.76,-1.05 -0.06,-0.59 1.04,-0.09 1.82,-2.1 1.71,-1.2 0.25,-0.8 0.81,0.08 0.24,-0.67 1.13,-0.33 0.78,-1.43 -0.36,-0.93 0.77,-0.72 0.47,-1.64 -0.53,-1 0.22,-0.88 -0.6,-0.17 -1.08,-1.13 -0.13,-0.65 0.43,-0.42 0.62,-2.44 -0.16,-0.6 0.51,-0.65 -0.5,0.01 -2.9,-2.05 -1.02,0.54 -1.28,-0.09 -1.11,0.89 -1.53,-0.15 -0.47,-0.99 0.4,-1.52 -0.36,-1.4 1.31,-0.83 0.44,0.11 1.45,-1.25 0.09,-0.59 0.51,-0.1 0.15,-0.75 0.69,-0.39 1.7,-2.48 1.13,-0.5899995 0.78,-1.56 1.83,-1.4 -0.17,-0.38 0.28,-0.33 2.61,-0.26 0.38,-0.32 0.66,0.6 1.22,-0.17 1.26,-0.86 2.16,-0.16 z" 
                fill="rgb(151, 144, 238)" 
                stroke="white" 
                stroke-width=".7px"
                title="Nei Mongol" 
                id="CN-15" 
            />
        </svg>