<svg xmlns="http://www.w3.org/2000/svg" viewBox="388.46752 261.7601600000001 42.61999999999972 65.60999999999973" width="42.61999999999972" height="65.60999999999973">
            <path 
                d="m 388.46752,293.12016 1.47,-0.61 0.18,-0.77 2.09,-0.37 1.74,0.52 1.14,-0.52 2.31,-0.09 1.54,-1.41 1.4,-0.69 2.24,-0.52 2.52,0.16 0.52,-1.25 1.52,-0.34 0.58,-1.05 -0.09,-1.13 0.52,-1.08 -0.92,-2.08 0.2,-1.1 1.01,-1.06 -0.46,-2.34 0.56,-2.9 -0.26,-0.59 0.71,-2.38 1.03,-1.32 -0.25,-0.71 1.4,-1.22 0.21,-1.68 0.63,-1.11 0.31,-0.17 1.02,0.52 0.42,-0.24 0.03,-2.05 2.52,-0.31 1.47,-1.21 1.91,-0.26 0.43,0.27 0.05,2.1 0.83,1.56 -0.14,0.76 1.42,0.52 0.18,1.19 -0.12,0.59 -1.93,2.02 -0.86,1.47 -0.52,0.17 -0.35,2.97 -0.68,1.62 -1.48,1.33 -0.1,0.61 0.84,0.88 3.19,1.68 2.46,0.59 2.06,-0.58 1.15,0.95 0.89,0.12 1.26,1.5 -0.25,0.77 1.44,0.82 1.63,0.36 0,0 -0.34,1.48 -1.65,0.26 -0.3,1.08 -1.2,0.13 0.02,0.62 -0.97,0.62 0.76,0.89 -1.02,1.17 -0.31,1.83 0.15,1.54 0.42,0.52 -0.35,0.14 0.72,0.92 -0.37,1.03 -0.39,-0.43 0.02,0.76 0,0 -1.4,-1.05 -0.86,0.38 -0.82,-0.16 -0.19,0.38 -1.5,-0.59 -0.07,0.7 -1.35,-0.82 -0.41,1.03 -0.39,-0.47 -1.43,-0.22 0.49,1.24 -0.13,1.48 -0.46,-0.1 -0.27,0.42 -0.53,-0.59 0.74,1.31 0.59,0.13 -0.27,0.44 0.45,0.65 -0.38,1.09 0.25,0.43 -0.81,-0.45 -0.79,0.34 -0.52,1.51 -0.53,0.21 0.17,0.89 -1.17,-0.12 2,1.44 -0.41,0.98 0.42,0.46 -0.08,1.42 -0.49,-0.21 0.27,0.6 0.7,0.2 0.25,-0.56 0.68,0.43 0.72,-0.06 1.05,0.8 0.83,-0.2 1.09,1.72 0.41,-0.2 0.01,2.25 -0.65,0.6 0.54,0.27 -1.11,0.67 0.97,1.27 -0.36,-0.03 0.15,0.59 -0.42,-0.1 -0.08,0.54 -0.45,-0.07 -0.24,0.52 -0.75,-0.2 -0.21,0.69 -0.69,-0.61 -0.52,0.21 -1.27,-0.56 -1.28,0.78 0.49,1.7 -0.44,0.89 0.48,0.74 -0.13,0.36 0.44,0.15 -0.09,1.34 -1.73,1.9 -1.42,-1.6 -0.18,-1.09 -0.55,0.01 -0.21,-0.42 -0.83,1.17 -0.67,-1.06 0.29,-0.48 -2.24,0.72 -0.01,-0.78 1.94,-0.4 -0.07,0.53 0.48,-0.72 -0.88,0.07 0.02,-0.44 -1.61,-0.4 -0.64,0.92 -0.3,-1.23 -0.32,0.04 -1.27,-1.84 0.2,-0.44 0.52,0.17 0,-0.43 -1.33,-0.15 -1.01,0.86 -0.15,-0.59 -0.79,0.02 -0.47,-0.44 -0.4,-1.04 -0.64,0.25 0.29,-0.81 -0.79,-0.55 -0.07,-1.93 1.24,-1.31 0.83,-0.03 0.21,-0.71 -0.58,-1.41 0.16,-0.87 -0.88,-1.06 -0.7,-2.28 -1.29,-0.54 0.25,-0.5 -0.8,-2.2 1.2,-0.6 0.44,-0.62 -0.73,-1.25 -0.61,-0.43 -0.47,0.16 -0.24,-1.56 -2.48,-0.92 -0.78,-0.84 -0.78,-1.89 -0.8,-0.47 -0.97,0.79 -0.45,0.08 -0.59,-0.51 -0.41,-0.75 1.46,-1.02 -0.47,-0.41 0.8,-0.91 -0.9,0.21 -2.4,-0.53 -0.72,0.53 z" 
                fill="rgb(151, 144, 238)" 
                stroke="white" 
                stroke-width=".7px"
                title="Ningxia Hui" 
                id="CN-64" 
            />
        </svg>