<svg xmlns="http://www.w3.org/2000/svg" viewBox="200.47751999999946 262.44016000000005 172.6000000000002 120.58000000000021" width="172.6000000000002" height="120.58000000000021">
            <path 
                d="m 245.32752,265.17016 0.31,0.39 0.83,-0.06 0.92,-0.52 0.43,0.32 1.94,-0.82 1.73,-0.14 0.71,-1.09 2.62,0.56 1.71,-0.46 0.53,0.42 1.57,-0.13 1.57,-0.29 0.24,-0.54 1.35,-0.37 0.34,0.53 4.42,-0.01 1.3,1.11 2.14,0.31 0.26,-0.35 2.96,1.06 1.7,-0.43 1.59,2.14 1.09,0.83 0.84,0.11 0.21,0.73 1.28,1.41 0.92,0.44 0.15,-0.36 1.6,1.72 1.82,0.44 0.11,1 0.53,0.53 0.58,-0.4 1.1,0.86 1.16,-0.3 2.59,1.65 -0.12,1.04 0.37,0.37 1.04,0.44 0.94,-0.08 1.38,1.08 1.9,0.3 0.41,-4.05 -0.67,-0.5 -0.03,-0.89 0.64,-0.45 -0.24,-1.87 0.3,-0.48 -0.44,-0.47 0.45,-0.81 0.06,-2.02 -0.68,-0.83 1.03,-1.58 4.05,0.59 1.94,1.44 2.26,1.1 0.28,0.76 3.97,1.7 0.92,1 2.3,-2.56 0.25,-1.33 1.18,0.12 0.93,1.24 1.12,-0.02 0.46,0.33 2.26,-2.44 0.73,0 2.23,2.01 0.34,-0.37 1.07,0.51 -0.49,0.88 3.7,2.89 1.09,1.82 0.75,-0.13 0.31,1.07 1.86,1.77 5.11,2.5 1.15,1.02 -0.16,-1.79 -0.47,-0.19 -0.53,-1.11 0.45,-0.44 -0.07,-0.87 1.34,0.56 0.52,1.36 0.54,-0.19 0.38,1.03 1.25,0.34 0.29,0.49 0.45,-0.28 1.32,0.61 0.47,2.3 2.41,0.86 1.16,0.94 0.48,-0.26 1.84,1 1.26,1.46 1.89,0.87 3.73,3.06 0.96,0.23 0.48,1 1.01,0.24 0.39,-2.53 1.39,-1.53 0.26,2.49 1,0.6 -0.8,1.58 1.2,0.23 1.16,0.84 0.11,-0.26 1.75,1.46 0.17,0.79 0.87,-0.14 0.65,1.06 1.39,0.89 -1.3,1.23 0.09,0.95 -0.5,0.84 1.19,0.8 0.18,0.58 0.82,0.39 1.21,1.51 -1.56,0.57 -0.06,0.39 0.47,0.92 1.09,0.49 1.44,4.26 2.39,1.35 0.49,0.73 -0.89,0.16 -0.73,1.44 -0.67,0.3 1.1,0.74 -0.37,1.5 0.14,1.67 -2.09,-0.4 -1.2,0.93 0.04,1.03 0.83,1.8 -0.46,1.42 -1.77,-0.19 -0.57,-0.39 -1.36,2.08 -1.66,0 -0.18,0.76 0.37,0.65 -0.44,0.49 0.89,0.38 0.02,0.49 0.45,0.2 0.08,1 -0.68,0.17 -0.73,1.59 -0.76,0 -1.14,0.65 -0.92,1.07 -0.9,0.15 0.02,0.62 -0.88,0.25 -0.03,2.1 -0.91,-0.49 -0.28,0.6 -1.28,0.49 1.36,1.18 1.08,-0.74 0.21,1.26 0.91,0.75 0.96,0 0.96,0.52 0.11,0.73 1.14,1.57 -0.88,0 -0.46,1.35 -1.03,-0.26 -0.15,0.86 -0.5,0.05 -0.24,0.95 -0.47,0.07 -0.09,0.8 -1.25,-0.67 -0.14,0.38 -0.88,0.04 -0.4,0.71 -0.47,-0.65 -0.63,-0.02 0.07,-0.42 -0.49,-0.53 -3.75,-0.98 0.02,-0.35 -0.8,-0.43 -2.61,-0.4 -0.85,-0.77 -1.11,-0.05 -0.32,0.64 -0.67,0.28 -0.66,2.12 0.63,0.5 2.17,3.7 0.93,0.7 1.16,0.24 0.54,0.78 -0.35,1.99 0.91,-0.36 1.97,0.5 0.43,-0.68 0.91,-0.14 1.1,0.46 0.51,2.59 1.32,-0.02 0.5,-0.69 0,0 0.01,1.38 -0.8,0.12 -0.69,1.32 -0.08,0.57 1.06,0.68 -1.1,2.46 -2.21,-1.72 -0.96,0.07 -0.11,1.07 -0.65,-0.93 -2.28,0.92 0.11,0.73 -0.61,1 0.05,1.89 0.83,0.33 0.62,0.93 -0.07,1.32 -0.44,0.74 -0.98,0.81 -0.05,-0.55 -0.6,-0.13 -1.71,1.15 -3.16,-1.14 0.46,1.02 -0.7,-0.14 0.06,1.47 -0.48,0.23 -0.38,0.99 -1.04,0.47 -0.85,-0.97 0.75,-0.97 0.8,-0.36 -0.48,-0.25 -0.82,-1.7 -0.85,-0.93 -0.78,0.5 -0.99,-0.3 -0.61,2.05 -1.19,-0.49 -0.39,-0.49 0.6,-0.89 -0.33,-1.9 -1.04,-0.6 0,-0.69 -0.79,0 -0.89,-1.7 -0.4,1.76 -1.22,-0.08 0.3,1.08 -0.6,2.31 -0.44,-0.63 -0.73,-0.43 -0.44,0.16 -0.59,-0.76 -2.62,-1.21 -0.59,0.44 -0.54,-0.09 -1.04,-2.25 -2.43,-0.78 -1.82,-1.03 -0.59,-1 0.06,-0.58 -0.6,-0.32 0.26,-1.18 -0.61,-0.8 0.08,-0.99 -1.11,-0.93 0.02,-0.77 -0.43,-0.42 0.53,-0.44 -2.49,-3.01 -0.69,-0.31 -1.9,0.41 0.01,-1.02 -3.01,-0.6 -0.99,0.23 -0.35,0.56 -1.2,0.6 -0.65,-0.08 -0.34,-0.44 0.46,-0.57 0,-0.67 -1.46,-0.61 -0.39,1.43 -0.44,-0.18 -2.66,0.62 0.09,0.6 -0.32,0.27 0.74,2.22 -0.3,0.99 0.51,0.49 0.93,0.11 -0.07,0.92 0.56,0.83 2.67,0.71 -1.19,1.08 -0.63,0.06 -0.33,1.3 -1.42,1.35 0.03,0.84 0.69,1 -0.54,0.29 0.21,0.49 -1.65,0.44 -0.39,0.79 0.89,3.1 3.83,2.61 0,0 -0.8,0.4 0.07,0.38 -3.83,-0.76 0.19,0.4 -0.58,0.82 0.62,0.34 0.34,1.09 -0.71,0.15 0.74,0.45 -0.6,0.46 -0.56,-0.4 -0.48,0.29 -0.31,1.5 0.56,1.51 -0.72,0 -0.41,-0.41 0.2,0.76 -0.85,0.41 -2.67,-0.52 -0.26,0.36 0.36,0.65 -0.28,0.15 -0.54,-0.45 -0.53,0.58 -0.53,-0.55 -1.13,-0.16 0.32,1.23 0.75,0.76 -0.62,0.62 1,1.86 -0.4,0.82 -0.9,-0.09 -0.7,-0.77 -0.38,0.32 -0.55,-0.43 -0.75,0.18 -1.32,-0.95 -1.58,-2.27 -1.63,0.69 0.2,0.63 -0.68,-0.01 -0.2,0.64 1.1,0.87 0.39,0.98 -0.45,1.18 0.5,0.25 -0.14,0.5 -0.6,0.19 -0.68,-2.19 -0.55,-0.35 -2.93,-0.12 -0.65,0.62 -0.83,-1.22 -1.57,-0.32 -0.74,0.53 -0.61,-0.04 -0.77,-0.79 -1.12,-2.36 0.24,-0.53 0.65,-0.16 -0.37,-0.49 0.49,-0.41 -0.23,-1.31 -0.43,-0.4 -0.55,0.16 -0.61,-1.18 -2.86,0.07 -0.81,-0.96 -1.43,-0.56 -0.12,-0.37 0.48,-0.17 -0.46,-1.09 -1.02,-0.33 -0.73,-0.72 0.32,-0.26 -2.1,-1.84 -0.98,1.06 -0.98,-0.02 -0.15,0.52 -0.74,-0.49 -0.36,1.17 -2.02,0.07 -0.29,0.85 -0.56,0.38 -1.01,-0.54 -0.57,0.36 -0.61,-0.61 -0.54,0.36 -0.76,-0.15 -0.59,-1.19 -1.15,-0.39 -0.85,0.09 -0.55,0.78 -1.15,0.66 -0.55,-0.45 -0.2,-0.75 -1.02,0.44 -1.68,-2 -0.94,-0.05 -1.39,0.53 -0.63,-1.71 -1.79,0.68 -2.26,-1.01 -0.59,0.66 -2.39,-0.65 -1.22,0.01 -1.2,0.66 -0.77,-0.45 -0.06,-0.78 0.39,-0.52 -1.1,-0.71 -2.22,0.99 -0.9,-1.3 -0.47,0.02 -0.19,-0.62 -0.64,0.03 -1.39,-0.74 -1.54,-0.89 -0.34,-0.72 -0.74,-0.22 -1.31,-2.03 0,-0.4 0.54,-0.17 -0.35,-0.47 -2.08,-0.09 -0.46,0.32 -0.25,0.96 -1.97,0.27 -0.35,-0.28 -1.84,1.96 -1.74,-0.45 -2.64,-1.86 -1.5,-0.11 -1.68,-2.01 -0.11,-1.49 -0.84,-0.82 -2.23,-1.11 0.26,-0.94 -0.42,-0.54 -0.77,-0.12 0.18,-0.99 -1.11,-1.02 -0.62,0.01 -1.3,-1.41 -0.56,-1.36 0.62,-1.12 0.77,-0.04 0.73,-0.58 0.2,-1.99 0.54,-0.58 -0.88,-1 0.29,-0.73 -0.14,-1.46 -0.45,-0.69 0.25,-0.56 -0.71,-0.32 -0.16,-1.17 0.93,-0.37 0.82,-1.06 -0.72,-0.85 -0.11,-0.69 -1.2,0.02 -0.89,0.53 -0.61,-0.23 -0.29,-0.54 0.31,-2.78 -0.88,-0.33 -0.84,-1.47 0.97,-0.8 -0.39,-0.09 -0.01,-1.18 2.41,-0.86 0.93,-0.9 -0.7,-0.48 -0.08,-0.56 0.14,-0.47 0.64,-0.23 -0.49,-0.96 0.93,-3.08 -3.38,-0.24 0.26,-0.16 -1.63,-0.69 0.08,-1 -0.32,-0.19 0.32,-0.66 0.95,0.24 1.39,-0.79 1.51,-0.11 0,0 2.77,0.11 -0.15,-0.75 0.82,-0.9 0.06,-1.49 1.6,0.53 -0.09,0.53 1.33,0.72 2.67,0.5 0.95,-0.32 2.04,0.35 1.19,0.66 0.86,1.05 1.1,-0.29 0.55,-1.04 1.58,0.19 -0.07,-1.88 -0.67,-0.7 0.4,-0.63 -0.63,-0.48 0.37,-1.55 -0.35,-0.3 0.05,-1.37 -3.76,-0.85 -0.32,-1.48 0.54,-0.67 -0.42,-1.01 0.15,-0.53 1.53,-1.46 2.07,-0.1 0.48,-0.71 0.74,-0.03 0.81,-0.87 1.74,-0.03 -0.41,-1.94 -1.16,-0.95 -0.05,-1.01 -0.66,-1.02 -0.55,-2.04 -1.05,-0.41 -0.82,0.25 -0.99,-0.91 0.19,-0.67 -0.97,-0.88 -1.72,-1.1 -1.79,-0.43 -0.38,-0.64 -0.83,-0.13 0.28,-0.44 -0.53,-1.25 0.98,-1.11 -1.77,-2.6 -1.24,-2.91 -1.17,-1.39 -0.01,-0.75 3.41,-1.01 0.58,-0.5 -0.13,-0.47 1.88,-0.71 0.42,-0.64 -0.22,-0.54 1.84,0.16 4.41,-0.8 2.29,-0.64 1.77,-1.01 3.22,-0.9 2.18,-0.19 2.45,-1.23 4.15,-0.74 0.24,-0.59 0.64,-0.08 0.56,-1.03 4.59,-0.51 z" 
                fill="rgb(151, 144, 238)" 
                stroke="white" 
                stroke-width=".7px"
                title="Quinghai" 
                id="CN-63" 
            />
        </svg>