<svg xmlns="http://www.w3.org/2000/svg" viewBox="403.8375200000004 258.48015999999984 72.67999999999955 121.93000000000023" width="72.67999999999955" height="121.93000000000023">
            <path 
                d="m 431.08752,286.03016 0.41,-0.18 0.86,0.84 2.7,0.66 0.61,2 1.55,0.77 1.46,-0.78 0.8,0.52 0.61,-0.61 2.02,-0.29 0.6,0.08 -0.02,0.55 1.46,-0.13 0.34,-0.49 0.84,0.09 -0.02,-4.12 0.57,-0.69 -0.41,-0.53 0.66,0.05 1.21,1.51 1.44,-1.77 0,-0.86 -1.54,-1.52 0.5,-2.52 1,-1.72 1.01,-0.57 0.32,-1.25 0.77,-0.26 0.67,-0.82 0.93,0.12 -0.21,-1.41 0.88,-0.11 0.34,-1.47 1.12,-0.43 0.72,0.29 0.29,-0.92 1.06,-1 0.5,-2.18 1.88,-0.47 1.15,-1.5 3.26,-1.57 -1.08,-1.92 -0.14,-0.56 0.36,-0.41 1.21,0.3 1.84,2.12 0.47,-0.38 -0.1,-0.41 1.3,-0.36 1.25,2.19 1.25,-0.6 0.23,-1.04 1.76,-2.39 1.92,-1.13 0.82,0.17 0.47,-0.44 0.23,0.58 -1.12,2.06 0.46,0.93 0.53,-0.07 0,0 0.2,0.42 0.4,-0.19 0.03,0.66 0.8,0.21 -0.53,0.39 -0.46,2.47 -0.61,1.16 -1.5,0.72 -0.34,0.52 0.49,1.57 -1.65,3.68 0.43,1.12 -0.18,0.96 -0.38,0.08 0.01,0.87 -0.35,0.36 -0.81,-0.14 -0.56,1.36 -1.03,0.96 -0.97,0.03 -0.24,1.32 -0.54,0.16 -0.19,0.48 0.14,3.5 1,0.73 0.93,1.93 1.02,0.62 -0.61,0.72 1.2,0.91 -0.47,0.24 0.37,1.37 -0.53,1.47 -1.34,0.46 -0.08,0.97 0.88,0.4 -0.36,0.48 0.17,0.52 -0.37,0.04 -1.66,2.76 -1.44,1.08 0.47,0.42 -1,-0.13 0.71,0.81 -0.22,1.12 -0.4,0.3 0.55,0.23 0.01,0.92 -0.52,0.48 0.6,0.12 -0.1,0.61 0.39,-0.1 -0.21,0.72 -0.46,-0.21 -0.11,0.29 1.41,1.54 -0.7,6.5 2.07,8.3 -0.77,1.49 -0.39,1.99 -1.45,1.97 -0.53,2.66 -1.13,2.09 0.12,2.84 -0.47,1.37 0.63,1.17 1.11,0.2 0,0 -0.21,0.38 0.44,0.24 -0.5,0.84 0.83,1.5 0.64,-0.07 0.25,1.2 -0.92,0.72 0.18,0.64 2.55,1.21 -0.71,0.99 -0.02,1.05 0.45,0.05 0.69,1.15 -1.01,0.79 0.15,0.64 2.14,0.88 0.7,1.92 2.21,1.52 0.24,1.55 -0.38,0.51 0.42,1.45 -0.38,0.24 -0.21,0.99 0,0 -0.88,0.77 -1.03,-0.01 -0.18,0.85 -0.91,0.05 -0.44,0.77 -0.67,-0.88 -0.71,0 -0.48,-1.51 -1.74,1.25 -2.44,0.19 -0.86,-0.75 -1.69,0.26 -2.26,-0.84 -1.7,0.22 -0.82,-0.24 -0.21,-0.4 -0.44,0.65 -1.19,0.03 -0.86,1.18 1.74,0.62 1.41,-0.09 1.3,0.7 -0.34,2.43 0.41,0.43 0.89,-0.5 2.01,0.59 1.45,0.96 0.17,1.78 0.66,0.85 -0.53,0.58 -0.94,-0.34 -0.08,0.54 -0.84,0.5 -1.35,-0.68 -1.18,0.23 -1.28,-0.48 -1.22,0.24 0.22,0.78 -0.74,0.46 -0.65,1.14 -0.4,1.99 0.7,1.12 0.68,0.28 -0.19,0.83 0.42,0.7 -0.44,1.15 0.55,1.21 -0.58,0.64 0.67,1.32 -0.58,0.33 -0.14,0.86 0,0 -3.69,0.21 -0.36,-0.78 0.19,-0.48 -0.99,-0.33 -0.13,-0.57 -1.92,-1.51 -1.85,-0.44 -1.66,-1.09 -0.15,-0.59 -0.97,-0.03 -1.89,-1.49 0,0 -0.48,-0.89 -1.64,0.12 -0.3,0.34 -1.12,-0.56 -0.63,0.75 -0.38,-0.23 -0.31,0.32 -0.73,-0.27 -0.64,0.27 -0.09,0.66 -0.52,0.43 -0.91,-0.84 -0.69,-0.05 -1.15,-1.76 -0.61,-0.01 -0.67,-1.12 -0.76,-0.16 -0.93,0.43 -0.45,-0.63 -0.44,0.1 -0.32,-1.71 -0.65,-0.09 -0.96,0.85 -0.39,1.12 -0.51,-0.14 -1.84,-1.69 0.18,-1.79 -0.48,-0.42 0.02,-0.46 -0.55,-0.2 -1.22,0.35 -0.82,-0.32 -0.95,0.5 -0.03,-0.67 -0.48,-0.01 -1.65,1.06 -1.95,0.13 -0.5,0.57 -0.9,-0.77 -0.91,0 -2.01,-0.88 -0.64,-0.64 0.4,-0.69 -0.63,-0.79 -0.46,0.57 -0.59,-0.26 -1.72,0.39 -0.42,1.06 -0.51,-0.28 -1.98,1.04 -0.48,-0.54 -0.75,-2.61 0,0 1.76,0.43 2.39,-1.07 0.44,0.18 0.7,-0.82 0.18,-2.23 -0.44,-0.06 0.46,-0.69 0.37,0.7 0.03,-0.88 -0.6,-0.5 -1.54,-0.33 -1.1,-1.82 1.5,0.01 0.21,-1.71 1.46,-1.73 1.82,-0.01 0.06,0.61 0.99,0.33 1.28,-0.82 0.8,0.21 1.01,-0.48 0.32,1.3 0.59,0.07 0.26,0.43 0.81,-1.25 -0.61,-1.64 -0.73,-0.24 0.05,-0.96 -0.33,-0.34 0.42,-0.81 -0.3,-0.37 -0.55,0.06 -0.08,-0.41 0.71,-1.21 0.33,-1.99 1.15,-0.55 -0.53,-1.55 -0.62,0.1 -0.07,-0.28 0.38,-0.57 0.64,0.17 0.2,0.44 1.01,0.07 0.57,-1.91 -0.92,-0.29 -0.93,-1.48 -0.36,0.09 -0.97,-0.71 -0.84,0.31 -0.72,-0.17 -0.37,-0.9 1.36,-1 0.49,0.09 -0.16,-0.85 0.74,-0.79 0.59,-0.08 -0.22,-0.47 0.44,-0.5 -0.97,-1.93 -0.04,-0.94 0.76,-1.3 4.68,-0.11 1.24,0.93 0.88,0.2 0.06,0.78 0.99,0.5 0.37,0.85 0.91,-0.31 0.28,-0.52 2.99,0.38 0.51,-0.92 0.67,0.13 0.19,0.54 2.1,-0.44 0.65,-0.63 -1.35,-1.42 -1.24,-2.37 0.8,-0.12 0.2,-0.81 0.69,0.03 1.03,0.66 1.15,-0.1 0.03,0.37 2.72,-1.04 0.66,0.24 0.14,0.45 1.34,-0.67 0.33,0.31 1.5,0.05 1.23,-0.41 0.26,-0.47 0.17,-3.24 -1.22,-1.45 0.02,-2.76 -0.33,-0.95 1,-0.97 0.91,-0.01 0.45,-1.13 0.3,-1.82 -0.79,-1.93 0.53,-0.47 0.28,-1.21 -2.51,-1.66 -1.05,0.62 -1.06,-1.88 -0.59,0.18 -1.07,-0.42 0.02,-0.96 -0.84,1.13 -0.76,-0.65 -0.64,0.07 -0.57,-0.63 0.35,-0.26 -0.11,-0.41 -0.8,0.38 -0.65,-1.63 -2.39,-0.68 -0.37,-0.45 -0.36,0.25 -1.41,-0.18 -0.71,-1.23 -2.23,-0.16 -0.42,-2.62 0,0 -0.02,-0.76 0.39,0.43 0.37,-1.03 -0.72,-0.92 0.35,-0.14 -0.42,-0.52 -0.15,-1.54 0.31,-1.83 1.02,-1.17 -0.76,-0.89 0.97,-0.62 -0.02,-0.62 1.2,-0.13 0.3,-1.08 1.65,-0.26 z" 
                fill="rgb(151, 144, 238)" 
                stroke="white" 
                stroke-width=".7px"
                title="Shaanxi" 
                id="CN-61" 
            />
        </svg>