<svg xmlns="http://www.w3.org/2000/svg" viewBox="521.4575199999998 279.8301599999995 99.85999999999979 60.580000000000325" width="99.85999999999979" height="60.580000000000325">
            <path 
                d="m 560.21752,279.94016 2.1,1.2 0.17,0.77 0.92,-0.19 4.44,0.52 0.68,0.74 0.33,0 0.74,-1.16 1.64,0.22 1.29,-0.32 1.31,0.76 0.64,2.21 1.14,0.73 -0.04,1.19 1.25,0.67 -0.18,0.45 1.18,-0.77 0.09,0.43 -0.83,0.36 1.28,1.91 -0.24,0.23 -1.09,-0.76 -0.99,0 -0.11,-0.36 -0.81,0.2 -0.96,1.02 -0.59,1.52 0.04,2.99 0.46,0.93 1.9,1.26 0.29,1.18 0.08,-0.52 0.37,0.07 0.23,0.6 0.75,-0.14 -0.14,1.1 0.77,0.06 1.57,-0.59 0.03,-0.36 0.55,0.29 0.71,-0.43 0.27,0.11 -0.09,0.98 0.34,0.07 0.2,-0.91 2.05,-0.22 0.48,-0.9 1.35,-1.11 0.13,-0.81 -0.83,-1.11 3.11,-1.14 2.64,-2.19 0.34,-1.22 -1.27,-0.47 1.78,-0.1 1.05,-0.8 1.78,-0.24 1.97,-1.16 0.96,0.35 0.75,-0.35 0.86,0.31 -0.15,0.56 0.9,0.46 0.02,0.49 1.68,0.09 -0.17,0.72 0.38,0.37 -0.28,0.51 0.54,0.46 2.03,-0.01 0.43,-0.38 -0.33,-0.37 1.1,0.49 -0.72,0.04 -0.04,0.35 1.03,0.89 0.03,0.58 1.5,0.8 1.19,0.04 0.11,-0.44 0.79,0.09 0.41,0.56 -0.11,-0.59 2.25,-0.28 0.21,0.32 -0.37,0.04 0.11,0.45 0.64,0.04 -0.31,-1.04 1.41,-0.83 -0.03,-0.31 0.31,0.24 0.62,-0.23 0.18,0.56 -0.48,0.21 0.6,1.25 0.94,-0.54 1.05,0.85 1.96,-0.35 -0.25,0.71 0.52,0.22 0.3,-0.15 -0.36,-0.37 0.86,0.1 0.79,-0.41 0.97,0.44 -1.92,0.74 0.44,0.32 -0.12,0.29 -0.41,-0.37 0.27,0.49 -0.27,0.4 0.96,1.34 -0.81,0.18 0.2,0.56 -1.07,-0.14 -0.44,1.3 -0.62,0.67 0.04,0.44 0.75,-0.5 0.84,0.16 -0.2,1.19 0.27,0.49 -0.33,0.38 -0.36,0 0.21,-0.61 -0.93,0.11 -0.09,0.97 -0.56,-0.04 -0.22,0.43 -2.36,-0.02 0.34,-0.99 -0.56,-0.22 -0.18,-0.49 -0.58,-0.05 -0.73,0.77 -0.36,-1 -0.56,0.1 -2.58,1.21 -0.14,0.59 -1.49,0.54 0.13,1.2 -0.58,-0.13 0.03,-0.47 -0.49,-0.1 -0.53,0.44 -0.49,-0.34 1.5,-1.07 -1.38,0.51 0.09,-0.5 -0.36,0.25 -0.2,1.05 -0.52,-0.08 -0.64,0.7 -2.43,0.64 -1.92,1.48 -0.34,-0.32 -0.78,0.22 -0.41,-0.92 -0.51,-0.01 -0.6,0.67 0.85,0.07 0.2,0.62 0.83,0 0.2,0.35 -0.4,0.78 0.24,0.2 -0.65,0.4 -0.29,1.19 -0.47,-0.13 0.14,-0.52 -0.59,-0.85 -0.91,0.15 -0.7,0.99 -0.02,0.48 0.56,0.53 -0.91,-0.12 -0.19,0.82 0.49,0.18 0.03,1.61 0.37,0.63 -1.29,0.13 -0.31,0.39 -0.5,-0.25 -1.56,0.94 -1.08,0.21 -0.65,-0.27 1,-1.72 -0.05,-0.52 -0.48,-0.52 -0.52,0.22 0.33,0.53 -1.74,-0.24 -0.75,0.77 -0.07,0.84 0.88,0.6 -0.06,0.5 0.79,-0.47 -0.2,0.6 -0.58,0.29 0.1,0.44 0.69,-0.45 -0.01,0.58 0.72,-0.77 0.1,0.73 -0.71,0.2 -0.83,1.01 0.41,-0.92 -1.99,1.11 -0.47,2.42 -1.22,-0.62 -0.1,0.4 0.48,0.32 -0.6,0.59 0.2,0.62 -0.52,0.37 -0.58,-0.11 0.34,-0.6 -0.41,-0.16 -0.76,1.34 -0.34,-1.18 -0.11,0.53 -0.64,0.47 -0.61,-0.06 0.15,0.49 -1,2.61 -2,2.1 -0.46,2.5 -0.9,0.04 0,0 -0.49,-0.44 -0.81,0.1 -0.65,0.24 -0.42,0.69 -2.1,0.21 -0.34,-0.32 -0.73,0.48 0.03,1.26 -0.88,1.58 -0.36,0.01 0.12,0.79 -0.47,0.02 -0.19,0.48 0.66,0.54 -1.07,0.68 -1.17,-0.52 -0.9,0.03 -0.74,0.6 0.03,0.64 -0.5,0.4 0.15,1.28 -0.45,1.34 -2.54,0.78 -0.45,-0.1 0.14,-0.91 -0.53,-0.51 0.46,-0.98 -1.18,-0.14 0.42,-0.83 -0.2,-0.57 -1.84,-0.42 -0.57,0.06 -0.07,0.4 -1.16,-0.04 -0.11,1.97 -1.47,-0.34 -0.36,0.64 -1.19,0.54 -1.21,-0.4 -0.8,-1.29 -0.57,-0.26 -1.14,0.88 -0.17,1.13 -0.58,0.06 -0.75,-1.08 -0.26,-1.68 -0.8,-0.25 0.27,-0.8 -0.42,-0.98 -0.83,-0.7 -0.15,-0.8 -2.41,-1.14 -0.19,0.4 -1.85,-0.31 -2.21,0.57 -0.43,0.63 -0.14,1.58 -0.46,0.16 0.33,0.6 -0.24,1.01 0,0 0,0 0,0 -0.71,0.59 -0.47,-0.1 -0.54,0.85 -0.59,-0.41 0,0 -0.72,0.29 -0.42,-0.7 -0.8,0.19 -0.43,-0.47 -0.38,0.53 -1.81,0.4 -1.65,-0.6 -0.28,0.65 -1.77,-0.27 -1.16,-1.44 -0.19,-1.88 -1.67,-1.12 -0.65,0.22 0.1,-0.85 -0.73,-0.18 0.22,-0.65 -0.78,-0.15 -0.49,-0.57 -2.46,0.55 -0.64,-0.7 -0.54,0.35 -0.23,-0.4 0.51,-1.11 -0.01,-1.22 1.1,-0.5 0.95,-1.41 0.2,-1.17 1.89,-1.11 0.55,0.46 0.63,-0.76 1.04,-0.35 -0.3,-1.4 0.55,0.23 1.63,-2.55 1.99,-0.17 0.67,-0.79 0.15,-0.83 0.33,0.21 0.37,-0.55 1.31,0.01 -0.2,-0.58 0.74,-1.05 1.46,0.07 0.86,-1.78 -0.09,-0.49 -0.49,0.1 -0.74,0.82 -2.46,0.65 -3.29,1.75 -0.45,0.06 -0.3,-0.39 0.01,0.59 -1.62,1.51 -0.35,-0.55 0.42,-1.39 -0.16,-0.89 1.16,-0.73 0.41,-2.43 0,0 -0.11,-1.38 -0.61,-1.03 -0.77,0.2 0.09,-0.5 -0.36,-0.87 -0.51,-0.22 -0.19,-1.29 0.73,-1.86 1.37,-1.32 0.45,-1.02 2.54,-0.84 0.24,-0.97 1.1,-1.34 -0.16,-0.48 1.12,-1.25 0.49,-1.99 0.72,-0.5 0.25,-1.64 2.27,-0.72 1.02,0.29 0.51,-0.62 -0.67,-0.41 -0.01,-0.74 0.6,0.13 0.31,-0.53 -0.33,-0.26 0.14,-0.49 0.52,-0.47 0.48,0.21 0.92,1.43 0.22,-0.66 1.95,-1.81 0.85,-1.48 0.88,-0.54 0.64,-1.23 8.05,-0.28 1.81,-3.51 1.59,-0.15 0.86,-1.24 0.37,-0.05 0.24,-1.05 0.62,-0.59 0,0 0.06,0.11 z" 
                fill="rgb(151, 144, 238)" 
                stroke="white" 
                stroke-width=".7px"
                title="Shandong" 
                id="CN-37" 
            />
        </svg>