<svg xmlns="http://www.w3.org/2000/svg" viewBox="463.82751999999965 239.48016 54.370000000000175 97.7300000000003" width="54.370000000000175" height="97.7300000000003">
            <path 
                d="m 512.91752,239.48016 0.92,1.41 -0.07,0.43 1.03,0.59 -0.17,1.72 0.57,1.94 0.97,0.31 0.7,-0.36 1.05,0.68 -0.99,1.19 -2.48,0.38 -0.27,0.67 -1.33,0.36 -0.63,-0.2 0.01,1.85 -0.57,0.25 -0.5,-1.15 -0.31,1.39 -0.75,0.52 1.4,0.29 0.47,1.23 1.73,0.44 0.31,0.41 2.18,-0.01 0.57,1.22 -0.35,0.45 -0.03,1.87 0.31,0.62 0.8,0.1 0.71,0.97 -1.02,2.28 -0.03,0.91 -0.64,0.89 -0.05,0.91 0.57,0.49 -0.32,0.55 -0.69,0.15 -0.36,1.31 -0.89,-0.57 -1.05,1.18 -1.12,-0.03 -0.83,-1.38 -0.61,0.68 -0.58,0.01 -0.23,0.5 -0.54,-0.02 -1.51,1.53 0.1,1.37 1,0.91 -0.2,1.14 -0.47,-0.07 -0.5,0.99 -0.63,-0.12 -0.04,0.87 -1.23,0.14 -0.08,0.86 -0.56,0.56 0.27,1.48 -0.73,1.33 0.4,0.64 -0.16,1.17 0.48,0.66 0.77,-0.04 1.17,0.55 -0.06,0.37 1.3,0.25 -0.23,0.7 0.8,0.82 -0.03,0.95 1.01,1.48 0.22,1.43 0.9,0.79 -0.65,1.04 0.94,-0.23 0.9,0.73 -0.27,1.35 -1.03,1.53 -0.28,1.1 -0.51,0.34 -0.18,0.86 -0.7,0.52 -0.22,1.21 -0.7,1.13 -0.81,0.37 -0.12,1.08 0.38,0.25 -0.21,0.68 0.3,0.34 -0.42,0.62 0.37,1.27 -0.52,0.36 -0.25,-0.53 -0.42,0.06 -0.2,1.44 -1.83,0.91 -0.59,-0.08 -0.31,0.47 0.53,0.04 -0.36,1.01 0.83,0.27 -0.06,0.46 0.61,0.49 -0.42,1.04 0.5,0.6 1.44,0.54 0.28,0.99 0,0 -0.58,2.18 0.23,0.18 -0.39,0.13 0.32,0.29 -0.5,0.25 0.61,0.44 -0.66,0.22 0.39,0.92 -0.3,0.46 0.49,0.19 -0.16,0.56 -0.62,-0.03 0.24,2.35 -1.03,0.3 0.63,2.81 -0.94,-0.17 -0.68,1.81 -1.27,0.31 -0.58,0.56 -0.63,-0.04 -0.01,0.79 -1.15,-0.25 -1.15,1.66 -1.11,-0.45 -0.47,0.18 0.09,0.73 -0.73,0.24 -0.18,0.6 -1.41,-0.11 -0.75,0.82 -1,-0.31 -0.31,-0.67 -0.43,0.7 -2.1,-0.07 -0.68,-0.33 -0.82,0.48 -0.61,-0.08 0.02,-0.5 -0.89,0.35 -0.1,-0.39 -1.85,-0.38 -0.01,3.34 -0.36,0.48 -0.24,-0.51 -0.74,-0.23 -1.61,0.14 -0.31,0.63 -1.65,0.62 0.02,0.67 -1.29,1.51 -2.35,0.53 -0.6,-0.24 -1.42,0.58 -0.89,-0.25 -0.72,0.84 -1.68,0.75 -0.47,-0.44 -0.35,1.09 -1.81,0.09 -0.88,0.95 -3.82,-0.16 0,0 -1.11,-0.2 -0.63,-1.17 0.47,-1.37 -0.12,-2.84 1.13,-2.09 0.53,-2.66 1.45,-1.97 0.39,-1.99 0.77,-1.49 -2.07,-8.3 0.7,-6.5 -1.41,-1.54 0.11,-0.29 0.46,0.21 0.21,-0.72 -0.39,0.1 0.1,-0.61 -0.6,-0.12 0.52,-0.48 -0.01,-0.92 -0.55,-0.23 0.4,-0.3 0.22,-1.12 -0.71,-0.81 1,0.13 -0.47,-0.42 1.44,-1.08 1.66,-2.76 0.37,-0.04 -0.17,-0.52 0.36,-0.48 -0.88,-0.4 0.08,-0.97 1.34,-0.46 0.53,-1.47 -0.37,-1.37 0.47,-0.24 -1.2,-0.91 0.61,-0.72 -1.02,-0.62 -0.93,-1.93 -1,-0.73 -0.14,-3.5 0.19,-0.48 0.54,-0.16 0.24,-1.32 0.97,-0.03 1.03,-0.96 0.56,-1.36 0.81,0.14 0.35,-0.36 -0.01,-0.87 0.38,-0.08 0.18,-0.96 -0.43,-1.12 1.65,-3.68 -0.49,-1.57 0.34,-0.52 1.5,-0.72 0.61,-1.16 0.46,-2.47 0.53,-0.39 -0.8,-0.21 -0.03,-0.66 -0.4,0.19 -0.2,-0.42 0,0 -0.18,-0.4 0.51,-0.43 2.38,-0.17 0.2,-0.85 0.81,-0.57 -0.1,-1.65 0.43,0.07 -0.22,-0.52 0.77,-0.23 1.94,0.37 1.38,0.75 2.14,-0.39 0.56,-3.12 4.15,-7.34 1.93,-0.77 3.65,2.16 1.24,-0.64 0.55,-1.97 1.23,-0.51 3.3,-0.93 0.83,1.52 3.07,-0.45 1.52,-1.57 1.12,-0.55 0.33,-0.68 0.87,1.02 1.23,-1.04 1.27,-0.15 0.26,-0.61 -0.51,-0.72 0.32,-1.77 z" 
                fill="rgb(151, 144, 238)" 
                stroke="white" 
                stroke-width=".7px"
                title="Shanxi" 
                id="CN-14" 
            />
        </svg>