<svg xmlns="http://www.w3.org/2000/svg" viewBox="597.9675199999997 378.19015999999993 21.11000000000024 17.35000000000008" width="21.11000000000024" height="17.35000000000008">
            <path 
                d="m 618.05752,394.52016 0.24,0.62 0.73,-0.14 0.05,0.39 -1.33,0.02 0.31,-0.89 z m -8.2,-9.15 0.99,0.36 -0.18,0.88 -0.74,-0.37 -0.07,-0.87 z m -3.61,-1.67 3.18,1.6 0.26,0.97 -3.65,-2.41 0.21,-0.16 z m -2.31,-0.06 1.08,0.29 1.26,1.35 1.04,0.32 1.86,1.56 1.48,2.16 0.86,2.67 -0.17,1.06 -0.34,0.17 -0.96,-0.16 -3.6,0.53 -2.52,1.84 -0.83,0.11 0,0 -0.11,-0.81 -0.57,-0.56 -1.07,0.01 -0.33,-0.98 -1.46,0.35 0.34,-0.69 -0.38,-0.37 0.17,-1.5 -0.47,-0.36 -0.79,0.21 0,0 0.01,-1.08 -0.47,-0.35 0.23,-0.33 2.15,-0.12 0.32,-0.32 -0.17,-1.53 0.25,-0.3 0.83,0.05 -0.5,-1.39 0.56,-0.21 0.03,-0.74 2.2,-0.95 0,0 0.07,0.07 z m -0.44,-5.45 4.73,3.27 2.88,0.86 0.88,0.71 -0.06,0.78 -0.68,0.59 -1.01,0.14 -5.7,-2.7 -2.75,-2.46 1.71,-1.19 z" 
                fill="rgb(151, 144, 238)" 
                stroke="white" 
                stroke-width=".7px"
                title="Shanghai" 
                id="CN-31" 
            />
        </svg>