<svg xmlns="http://www.w3.org/2000/svg" viewBox="300.99752000000046 341.44016000000005 141.23999999999978 120.45000000000016" width="141.23999999999978" height="120.45000000000016">
            <path 
                d="m 356.81752,353.09016 0.4,-0.27 -0.08,-0.83 0.47,0.1 0.87,1.05 -0.06,0.88 0.48,0.62 -0.72,0.97 -0.16,1 -1.26,0.87 0.84,0.84 -0.16,1.16 0.63,0.2 1.35,-1.35 1.11,0.08 0.47,-1.11 1.19,0.7 0.22,-1.32 -0.48,-0.39 1.04,-1.26 1.19,0.4 1.3,-0.91 -0.02,-0.29 0.26,0.13 -0.41,-1.72 -1.38,-0.64 -0.27,-0.78 0.32,-0.95 -0.59,0.31 0.31,-0.74 -1.03,-0.43 0.23,-0.93 -0.87,-1.5 0.7,-0.11 0.36,-0.48 1.48,0.27 0.51,-1.78 2.91,0.11 -0.63,-1.2 1.08,-0.6 0.49,-0.99 0.71,-0.34 0.71,0.23 0.6,-0.65 0.72,0.35 0.41,1.47 1.6,0.29 0.23,0.91 0.54,0.37 -0.57,0.52 0.38,0.81 -0.46,0.65 0.79,0.93 -0.36,1.37 2.49,1.01 1.04,-0.11 0.41,-0.78 0.53,-0.12 0.31,0.47 -0.6,0.7 0.24,0.79 0.49,0.14 0.6,-0.63 2.27,0.82 3.51,-0.42 1.56,1.17 -0.18,1.04 0.81,2.09 0.6,0.14 0.36,0.89 0.99,-0.18 0.71,0.38 -0.36,0.54 -1.21,-0.26 0.91,2.88 -0.53,1.01 1.15,0.41 -0.55,0.31 -0.21,0.76 -1,0.05 -0.16,0.82 0.35,0.83 0.68,0.15 1.25,1.07 1.45,0.28 0.83,1 0.77,-0.17 0.51,0.55 1.19,-0.35 0.68,0.95 1.98,-0.72 0.94,0.79 1.01,-0.38 0.38,-0.69 0.76,0.18 2.14,-1.28 -0.96,-2.03 0.74,-0.8 0.75,0.27 0,0 0.75,2.61 0.48,0.54 1.98,-1.04 0.51,0.28 0.42,-1.06 1.72,-0.39 0.59,0.26 0.46,-0.57 0.63,0.79 -0.4,0.69 0.64,0.64 2.01,0.88 0.91,0 0.9,0.77 0.5,-0.57 1.95,-0.13 1.65,-1.06 0.48,0.01 0.03,0.67 0.95,-0.5 0.82,0.32 1.22,-0.35 0.55,0.2 -0.02,0.46 0.48,0.42 -0.18,1.79 1.84,1.69 0.51,0.14 0.39,-1.12 0.96,-0.85 0.65,0.09 0.32,1.71 0.44,-0.1 0.45,0.63 0.93,-0.43 0.76,0.16 0.67,1.12 0.61,0.01 1.15,1.76 0.69,0.05 0.91,0.84 0.52,-0.43 0.09,-0.66 0.64,-0.27 0.73,0.27 0.31,-0.32 0.38,0.23 0.63,-0.75 1.12,0.56 0.3,-0.34 1.64,-0.12 0.48,0.89 0,0 -0.41,0.33 -0.97,-0.23 -0.4,0.25 -0.04,0.52 0.51,0.19 0.42,1.04 -1.29,-0.11 0.15,0.41 -0.32,0.39 0.42,0.51 -0.82,-0.12 -0.45,0.4 1.1,1.58 1.36,0.75 -0.08,0.38 0.56,-0.05 0.42,0.42 -0.25,0.42 0.34,0.85 -0.75,0.44 0.03,0.33 -0.62,-0.15 -1.3,1.81 -1.68,0.22 0.39,0.46 -0.19,0.82 -0.7,0.49 0.33,0.63 -1.96,1.23 -0.01,0.42 0.78,0.15 -0.96,1.47 0.56,0.86 -1.41,1.04 -0.1,0.83 0.56,0.27 -1.37,1.45 -1.36,-0.1 -0.58,-1.04 -1.02,1.06 -0.7,-0.57 -0.91,0.17 -1.11,1.42 1.09,1.53 -1.59,2.09 -0.3,1.25 -1.01,1.18 -0.62,1.49 -2.01,2.44 -0.66,0.32 -0.58,-0.68 -0.62,0.72 -2.22,0.07 -1.67,-2.81 0.31,-0.68 -0.98,-0.53 -1.48,0.15 -0.22,0.67 -1.6,0.2 -0.13,0.47 -0.67,0.25 -1.22,-1.93 -3.17,-1.32 -0.58,0.25 -0.23,-0.6 -1.09,1.07 -0.34,0.82 0.18,0.69 -1.36,-0.28 0.44,0.97 -1.49,0.52 1.93,1.91 0.66,0.21 -0.39,1.46 0.2,1.03 -1.49,0.31 -0.56,1.47 -0.56,0.42 -0.51,-0.22 -0.11,0.62 -0.72,-0.08 -0.94,1.31 -0.34,-0.2 -0.29,0.94 0.4,1.37 0.79,-0.07 -0.05,0.37 0.67,0.27 -0.21,0.88 0.11,0.38 0.46,-0.03 -0.08,0.43 2.28,0.24 0.21,0.31 0.52,-0.52 0.58,2.25 -0.26,0.42 0.52,0.47 -0.18,0.35 0.71,1.52 1,0.15 0.26,0.4 1.05,-1.15 0.76,0.45 0.03,0.61 2.13,0.18 0.53,0.69 -0.08,0.8 0.67,2.11 0.4,0.11 -0.06,1.15 0.56,0.39 0,0 -0.01,0.69 -0.7,-0.18 -0.41,-0.65 -1.28,-0.64 -0.3,-0.78 -0.66,0.1 -1.75,-1.76 -1.04,1.36 0.04,0.83 -1.61,0.1 -0.34,-0.28 -0.58,0.28 -0.91,1.54 0.24,2.44 1.1,0.64 0.64,-0.91 0.51,0.38 0.87,0.87 -0.29,1.14 0.24,0.58 0.88,-0.23 0.97,0.49 0.15,-0.49 1.36,-0.34 1.24,1.01 0.13,1.12 0.8,0.6 -0.21,0.93 0.4,0.45 -0.01,0.76 -1.78,0.96 -1.48,-0.36 -0.69,0.46 -1.83,0.11 -0.38,0.42 -1.49,0.04 -0.24,0.41 -0.96,0.3 -0.46,-0.83 -1.42,-0.82 -1.09,0.15 -1.21,0.81 0,0 -0.26,-1.1 0.37,-0.43 -0.73,-0.17 -0.23,-0.84 0.58,-0.62 -0.18,-0.97 -0.9,0.1 -0.15,-1.03 -1.73,-0.48 -0.9,0.51 -1.24,2.15 -1.89,0.17 -1.86,0.76 -0.96,-0.56 -2.51,-2.31 1.02,-0.19 0.06,-0.55 0.62,-0.3 0.21,-0.85 -0.53,0.1 -0.21,-0.34 0.75,-0.76 -0.16,-0.33 -0.61,0.01 -0.31,-0.9 -0.95,0.18 -0.53,-1.04 -0.1,-1.93 1.35,-0.43 0.83,-1 -0.73,-0.24 -0.71,0.35 -0.76,-0.66 -0.16,0.34 -1.29,0.08 -0.42,0.44 -0.65,-0.29 -1.2,0.35 -0.9,-0.28 -0.19,-0.71 -0.26,0.08 -0.12,1.11 -0.64,0.97 0.87,1.83 0.16,1.28 -1.97,1.43 -0.96,-0.82 -2.33,1.93 -0.09,1.42 0.59,-0.04 0.22,0.86 0.7,-0.1 -0.71,0.83 -0.16,1.48 -2.74,2.6 0.16,0.87 -0.81,-0.03 -1.09,2.1 -1.08,0.16 -0.83,0.57 -0.57,-0.64 -0.74,1.64 0.32,2.52 -0.5,1.31 0.34,1.64 1.07,1.64 0.54,1.91 -0.07,1.02 0.5,0.74 -0.43,0.7 -0.39,0.03 -0.12,1.87 -1.12,0.13 -0.25,-0.32 -0.38,0.57 -1.27,0.66 -0.39,0.81 -0.57,0.14 -0.86,-0.59 0.35,-1.21 -0.94,-0.39 -0.29,0.41 -1.85,0.58 -0.71,0.81 -0.95,0.23 -1.97,2.11 -1.03,-0.4 -0.76,0.17 -0.38,-0.35 -1.11,0.92 -0.47,-1.61 -0.75,-0.78 -0.64,-0.37 -0.9,0.46 -0.36,-1.02 0.31,-0.44 0.54,0.07 -0.27,-1.25 -3.03,-2.23 0,-0.57 0.88,-0.14 0.26,-0.95 -0.39,-0.44 0.76,-0.83 -0.79,-0.26 0.11,0.69 -0.86,0.16 -0.39,-0.71 0.49,-0.93 -0.43,-0.64 -1.22,-0.27 -0.04,-0.67 -1.56,-1.04 0.29,-2.52 -1.25,0.13 -0.26,-0.37 0.13,-0.95 -0.59,-0.38 0.14,-0.33 -1.07,-1.89 -0.43,0.24 -0.27,-0.26 -0.03,-1.93 -0.63,-0.13 0.16,-0.85 -0.69,-0.08 -0.22,-0.95 -0.74,-0.75 0.12,-0.81 -0.4,-0.75 -0.64,-0.03 -1.14,1.46 -1.48,-0.8 -0.67,1.59 -0.66,0.53 -0.47,-1.35 0.24,-0.69 -1.71,-0.58 0.18,-0.7 -1.34,-1.23 -0.72,-1.56 0.15,-0.48 1.73,-0.55 0.28,-0.51 -0.56,-0.48 0.34,-0.47 -1.49,-0.72 0.18,-0.87 -1.03,-0.6 -0.62,-1.54 -0.7,-0.31 -0.69,0.44 -0.01,-1.29 -1.15,-0.71 -0.3,-1.83 -1.2,0.46 -0.22,1.14 -0.84,0.65 -0.24,1.47 -1.77,0.7 0.1,2.17 0.3,0.39 -0.18,0.67 0.31,0.5 -0.39,0.65 0.08,1 -1.07,-0.84 -0.36,-1.18 -0.46,-0.14 -0.93,-1.49 0.1,-2.49 -0.93,-3.15 0.3,-1.94 -0.24,-4.41 0,0 -0.6,-1.32 -0.16,-3.14 -0.74,-1.63 0.33,-2.48 0.65,-1.26 -0.36,-2.2 -0.73,-1.11 -0.13,-3.37 -0.9,-4.39 0.71,-0.56 0.02,-0.49 -2.28,-1.93 0.23,-1.69 -0.77,-0.53 -0.83,-1.62 -0.89,-0.53 0.41,-2.17 0.68,0.03 1.16,1.22 1.3,-1.84 -3.31,-3.14 -0.78,-0.91 -0.2,-0.99 -1.63,-1.66 -0.21,-1.08 0.38,-0.4 0.05,-1.18 -1.52,-1.51 -1.09,-1.75 -0.38,-1.93 -1.48,-0.6 -1.38,-1.07 -3.02,-0.82 0,0 -3.83,-2.61 -0.89,-3.1 0.39,-0.79 1.65,-0.44 -0.21,-0.49 0.54,-0.29 -0.69,-1 -0.03,-0.84 1.42,-1.35 0.33,-1.3 0.63,-0.06 1.19,-1.08 -2.67,-0.71 -0.56,-0.83 0.07,-0.92 -0.93,-0.11 -0.51,-0.49 0.3,-0.99 -0.74,-2.22 0.32,-0.27 -0.09,-0.6 2.66,-0.62 0.44,0.18 0.39,-1.43 1.46,0.61 0,0.67 -0.46,0.57 0.34,0.44 0.65,0.08 1.2,-0.6 0.35,-0.56 0.99,-0.23 3.01,0.6 -0.01,1.02 1.9,-0.41 0.69,0.31 2.49,3.01 -0.53,0.44 0.43,0.42 -0.02,0.77 1.11,0.93 -0.08,0.99 0.61,0.8 -0.26,1.18 0.6,0.32 -0.06,0.58 0.59,1 1.82,1.03 2.43,0.78 1.04,2.25 0.54,0.09 0.59,-0.44 2.62,1.21 0.59,0.76 0.44,-0.16 0.73,0.43 0.44,0.63 0.6,-2.31 -0.3,-1.08 1.22,0.08 0.4,-1.76 0.89,1.7 0.79,0 0,0.69 1.04,0.6 0.33,1.9 -0.6,0.89 0.39,0.49 1.19,0.49 0.61,-2.05 0.99,0.3 0.78,-0.5 0.85,0.93 0.82,1.7 0.48,0.25 -0.8,0.36 -0.75,0.97 0.85,0.97 1.04,-0.47 0.38,-0.99 0.48,-0.23 -0.06,-1.47 0.7,0.14 -0.46,-1.02 3.16,1.14 1.71,-1.15 0.6,0.13 0.05,0.55 0.98,-0.81 0.44,-0.74 0.07,-1.32 -0.62,-0.93 -0.83,-0.33 -0.05,-1.89 0.61,-1 -0.11,-0.73 2.28,-0.92 0.65,0.93 0.11,-1.07 0.96,-0.07 2.21,1.72 1.1,-2.46 -1.06,-0.68 0.08,-0.57 0.69,-1.32 0.8,-0.12 z" 
                fill="rgb(151, 144, 238)" 
                stroke="white" 
                stroke-width=".7px"
                title="Sichuan" 
                id="CN-51" 
            />
        </svg>