<svg xmlns="http://www.w3.org/2000/svg" viewBox="565.33752 472.42016 47.12999999999977 46.56000000000006" width="47.12999999999977" height="46.56000000000006">
            <path 
                d="m 606.94752,516.41016 0.27,1.16 -0.66,-0.3 -0.49,-0.78 0.88,-0.08 z m -24.23,-20.77 0.56,0.78 -0.63,-0.11 -0.94,0.74 -0.4,-0.41 0.26,-0.65 1.15,-0.35 z m -0.86,-0.93 0.34,0.57 -0.29,0.2 -0.2,-0.55 -0.67,0.46 -0.02,0.88 -0.62,0.06 0.58,-1.3 0.88,-0.32 z m -14.61,-11.67 0.48,0.66 -0.05,0.73 -0.97,-0.14 -0.68,0.65 -0.45,-0.11 -0.24,-0.26 0.3,-0.15 -0.1,-0.75 1.1,0.23 0.16,-0.66 0.45,-0.2 z m 22.89,24.33 -0.96,-2.97 -1.66,-1.46 0.67,-0.73 -0.19,-0.74 0.53,-0.98 -0.16,-0.54 0.42,-1.22 0.37,-0.07 -0.08,-1.4 -0.46,-0.14 0.41,-0.39 -0.11,-1.52 0.46,-0.82 0.01,-1.43 1.19,-0.35 -0.28,-0.42 0.44,-0.19 0.55,-1.57 1.15,-1.31 -0.52,-0.17 1.31,-1.37 0.05,-0.84 0.47,-0.7 0.27,0.1 2.16,-4.11 2.36,-2.07 0.19,-1.37 1.66,-2.64 2.06,-1 2.23,-0.52 0.78,-1.42 1.86,-0.59 1.6,1.76 2.49,0.71 0.22,1.24 0.84,0.2 -0.99,0.56 -1.27,1.78 -0.12,1.06 0.29,1.48 0.57,0.75 -0.11,0.97 -0.43,0.18 0.07,0.58 -0.62,0.65 -0.34,1.72 -1.28,1.41 -0.11,0.99 -0.57,0.67 0.38,1.08 -0.5,0.62 -1.31,6.06 0.17,0.53 -1.52,3.79 0.08,1.24 -0.57,0.36 -1.39,2.81 -0.74,0.46 0.14,0.72 -0.34,0.53 -1.79,1.24 -1.74,4.54 0.08,4.03 -0.72,0.62 0.28,1.22 -1.27,-0.82 -0.32,0.55 -0.35,-0.2 -0.33,-1.28 0.38,-1.05 -0.93,-2.69 -0.69,-0.9 -2.91,-1.86 -1.37,-1.96 -0.14,-1.4 z" 
                fill="rgb(151, 144, 238)" 
                stroke="white" 
                stroke-width=".7px"
                title="Taiwan" 
                id="CN-71" 
            />
        </svg>