<svg xmlns="http://www.w3.org/2000/svg" viewBox="545.5075199999999 247.61016 17.18999999999994 27.29000000000002" width="17.18999999999994" height="27.29000000000002">
            <path 
                d="m 554.00752,247.90016 0.83,-0.29 1.22,0.27 0.54,1.09 0.73,0.5 -0.02,0.55 1.3,0.4 -0.06,0.9 0.7,0.17 0.1,0.49 -0.45,0.32 -0.7,-0.44 -0.84,0.26 -0.71,-0.4 -0.57,0.21 -0.38,1.59 0.65,1.35 -0.2,0.5 1.49,1.74 -0.57,1.18 0.91,0.22 0.23,0.66 0.67,-0.94 1.4,-0.01 0.72,0.36 -0.8,2.08 0.02,0.88 0.89,-0.17 0.87,0.7 0.72,2.29 0,0 -1.91,0.22 -1.05,0.51 -1.28,1.35 0.73,1.88 -0.92,0.14 -1.07,1.69 -0.76,1.78 -0.09,1.58 0,0 -0.22,0.75 -1.23,-0.13 -2.45,0.77 -0.32,-0.17 0.26,-0.47 -0.31,-0.3 -1.57,0.66 -1.05,-1.86 -1.3,0.18 -1.01,-0.8 -1.08,0.01 -0.56,-3.12 0.62,-1.53 1.84,-0.59 0.37,-1.18 -0.16,-0.37 -0.68,-0.08 -0.13,-0.59 0.4,-0.55 -0.33,-0.84 0.36,-0.74 -0.36,-0.46 -0.43,0.3 0.39,-1.39 -0.75,-0.5 0.28,-1.14 -0.33,-0.37 0.08,-0.97 0,0 0.61,-0.86 0.65,-0.25 -0.06,-0.3 0,0 0.68,-0.23 0.32,1.11 0.7,-0.19 1.56,0.44 0.11,-1.75 0.41,-0.61 -0.5,-0.82 1.29,-0.41 -1.29,-0.51 -0.28,-0.73 0.61,-0.93 -0.04,-1.16 0.43,-0.35 -0.21,-0.2 0,0 2.34,-1.45 z" 
                fill="rgb(151, 144, 238)" 
                stroke="white" 
                stroke-width=".7px"
                title="Tianjin" 
                id="CN-12" 
            />
        </svg>