<svg xmlns="http://www.w3.org/2000/svg" viewBox="0.27751754999997036 88.890157 288.19000244999995 252.25000300000033" width="288.19000244999995" height="252.25000300000033">
            <path 
                d="m 180.64752,88.890157 0.43,1.09 -0.43,1.35 1.04,1.19 -0.5,0.6 -1.37,0.35 -0.21,1 0.91,0.66 -0.23,0.71 1.53,0.97 0.95,0 1.07,1.05 -0.89,1 -0.57,2.030003 0.12,0.74 0.27,-1.17 4.26,1.76 0.95,1.64 1.32,-0.41 0.04,0.55 1.11,0.96 -0.41,1 0.16,0.96 2.25,1.77 0.83,0.4 0.85,-0.08 1.1,0.75 0.66,0.95 -0.2,1.26 0.24,0.29 2.09,-0.09 1.06,-1.29 0.95,-0.08 0.04,-0.35 2.49,-0.1 0.43,0.44 -0.28,0.48 0.5,1.02 1.36,1.01 0.9,1.39 1.21,-0.23 0.66,0.25 0.25,-1.27 1.32,0.42 0.14,1.8 0.81,0.82 2.45,1.22 -0.11,0.78 1.62,2.4 0.01,1.23 0.42,0.75 -0.18,1.21 0.52,1.32 2.73,4.5 1.59,0.33 0.68,0.56 0.64,1.53 -0.06,1 1.3,2.1 -0.44,2 0.63,0.53 -1.25,3.56 -0.85,1.17 0.47,1.18 -0.15,0.73 1.07,1.58 0.01,1.64 -2,2.24 -2.02,3.43 -0.51,3.47 1.67,2.47 0.22,1.66 0.57,-0.1 0.47,0.53 -0.21,1.26 3.2,-0.18 1.38,1.16 1.68,0.58 1.09,-0.71 0.83,1.07 0.84,0.41 5.35,-0.14 1.97,0.69 2.57,-0.32 1.76,0.69 7.01,-0.15 5.54,0.94 2.65,1.32 0.54,0.79 5.52,3.27 1.43,1.34 0.19,1.05 1.34,0.33 1.83,1.06 1.51,1.77 2.97,1.04 0.75,0.6 5.48,-0.61 0.05,0.5 -0.72,0.9 -0.33,2.89 0.38,0.42 2.22,0.57 1.41,3.57 0.35,1.82 2.42,4.82 0.16,2.36 2.27,2.43 1.02,1.98 2.15,2.2 0.51,2.84 0,0 -3.39,2.01 -0.9,8.32 0.37,1.72 -0.82,1.95 -1.64,0.91 -2.19,0.31 -1.86,-0.54 -5.79,1.27 -5.07,2.65 -3.32,3.87 -5.24,5.06 -2.47,3.55 -2.12,4.37 -3.61,2.34 -5.56,-0.43 0.06,6.51 -1.95,3.68 1.4,5.42 0.87,1.51 0.07,2.08 -0.29,0.57 0.31,1.98 0,0 -1.11,0.49 -4.59,0.51 -0.56,1.03 -0.64,0.08 -0.24,0.59 -4.15,0.74 -2.45,1.23 -2.18,0.19 -3.22,0.9 -1.77,1.01 -2.29,0.64 -4.41,0.8 -1.84,-0.16 0.22,0.54 -0.42,0.64 -1.88,0.71 0.13,0.47 -0.58,0.5 -3.41,1.01 0.01,0.75 1.17,1.39 1.24,2.91 1.77,2.6 -0.98,1.11 0.53,1.25 -0.28,0.44 0.83,0.13 0.38,0.64 1.79,0.43 1.72,1.1 0.97,0.88 -0.19,0.67 0.99,0.91 0.82,-0.25 1.05,0.41 0.55,2.04 0.66,1.02 0.05,1.01 1.16,0.95 0.41,1.94 -1.74,0.03 -0.81,0.87 -0.74,0.03 -0.48,0.71 -2.07,0.1 -1.53,1.46 -0.15,0.53 0.42,1.01 -0.54,0.67 0.32,1.48 3.76,0.85 -0.05,1.37 0.35,0.3 -0.37,1.55 0.63,0.48 -0.4,0.63 0.67,0.7 0.07,1.88 -1.58,-0.19 -0.55,1.04 -1.1,0.29 -0.86,-1.05 -1.19,-0.66 -2.04,-0.35 -0.95,0.32 -2.67,-0.5 -1.33,-0.72 0.09,-0.53 -1.6,-0.53 -0.06,1.49 -0.82,0.9 0.15,0.75 -2.77,-0.11 0,0 -3.08,-1.04 -3.2,-2.24 -0.67,0.68 -0.67,-0.03 -1.16,-0.97 -0.94,-0.06 -0.49,-0.71 -1.1,0.17 -0.89,0.82 -0.99,-1.05 -0.84,-0.33 -0.44,-1.01 -1.14,0.13 -0.36,-0.57 -1.16,-0.01 -0.65,0.39 -0.98,-0.19 -1.45,0.68 -1.92,-0.17 -1.14,1.05 -2.03,-0.23 -2.04,0.67 -1.25,-0.31 -0.17,-0.83 -1,-0.02 -0.92,0.82 -1.42,0.23 -0.56,0.81 -1.94,-0.18 -1.2,0.66 -0.44,-0.64 -1.36,0.2 -1.05,0.91 -1.8,0.14 -0.31,0.39 -0.67,-0.29 -0.79,0.22 -0.44,0.6 -1.33,0.14 -0.69,0.48 -0.23,1.5 -0.6,0.51 -0.07,0.93 -0.91,1.46 -1.25,0.96 -1.84,0.04 -1.4,0.47 -1.27,1.62 -0.91,-0.19 0,-0.81 -1.76,-0.25 -1.5,-0.82 -0.67,0.01 0.03,0.3 -0.82,0.24 -1.5,-0.03 -2.1,1.11 -0.37,0.54 -4.87,1.42 0.29,0.52 -0.31,0.56 -3.43,1.85 -1.07,-0.09 -0.47,-0.72 -0.83,-0.17 -1,0.21 -0.54,0.72 -2.36,-0.02 -0.79,0.41 -1.02,-0.09 -0.56,-0.81 -1.27,0.2 -1.95,-0.59 -0.63,0.43 -0.83,-0.1 -0.75,-0.99 -0.87,-0.34 -0.48,-2.89 -2.08,-0.26 -0.82,0.78 -1.29,-0.85 -2.17,-0.4 -0.53,0.17 -0.29,0.8 -0.71,0.07 0.18,0.62 -0.39,0.89 -3.43,1.62 0.03,1.33 -0.44,0.54 -1.11,0.12 0.19,0.4 -1,0.52 -1.61,-0.04 -0.78,0.44 -1.5,-0.15 -1.480002,-1.76 -0.65,0.32 -0.82,-0.29 -1.3,0.57 -0.35,-0.71 -0.63,0 -0.54,-0.65 -0.85,0.41 0.27,0.56 -0.34,0.55 -2.29,-0.57 -1.58,0.16 -0.38,-0.06 -0.42,-0.85 -0.71,-0.24 -0.5,0.23 -0.29,-0.83 -0.9,-0.17 -1.32,1.25 -0.84,0.29 -0.29,0.91 0.31,0.55 -0.33,0.55 -0.54,0.34 -0.98,1.68 -1.24,0.6 -0.74,3.04 -1.35,0.16 -0.23,1.56 0.66,0.75 -0.73,0.52 0.3,0.57 -0.55,1.07 0.22,0.45 -0.75,0.75 -1.16,-0.02 -0.8,0.51 -1.28,-0.45 -0.39,0.44 -2.83,0.12 -0.77,0.39 -0.96,-0.43 -0.93,0.44 -0.51,1.2 -1.02,-0.79 -0.37,0.25 0,0 -1.29,-0.64 -3.23,-3.02 -1.92,0.1 -0.24,-0.66 -1.45,-0.29 -0.66,-0.76 -0.6,-2.52 -1.28,-3.09 0.52,-0.81 -1.03,-1.03 -0.64,-2.25 0.06,-0.7 1.27,-0.95 0.09,-0.45 -1.8,0.07 -0.74,0.81 -1.11,-1.4 -1.51,0.58 -2.02,-0.24 -1.7,0.43 -1.13,-0.96 -1.59,0.03 -1.64,-1.1 -1.3,-0.11 -1.28,-1 -1.26,-0.04 -1.09,-1.3 -0.89,-0.42 -0.36,-2.06 -2.2,0.72 -0.56,0.59 -1.61,-0.27 -0.59,0.27 -0.16,-1.47 -0.89,-1.34 -1.14,-0.06 -0.7,-0.8 -0.12,-1 1.04,-0.51 -0.16,-0.85 0.62,-0.1 -0.85,-1.03 -0.02,-0.86 0.52,-0.77 -0.24,-0.87 -0.96,-1.5 -0.18,-1.12 -0.84,-0.86 -2.52,-1.46 -1.34,0.03 -0.2,0.69 -0.96,0.02 -0.83,-2.97 0.16,-0.51 -2.08,-0.23 -1.14,-0.98 -1.54,0.13 -1.3,1.21 -0.9,-0.84 -0.24,-1.17 -1.14,0.63 -0.74,-1.15 -0.49,0.02 -0.95,0.94 -1.72,-1.29 0.7,-0.84 -0.24,-0.42 0.25,-0.73 2.17,0.14 1.03,-0.67 0.8,0.98 1.07,-0.12 0.56,-1.08 2.29,-0.49 -0.19,-0.87 0.45,-0.88 -1.03,-1.53 -0.54,-0.36 -0.16,0.51 -0.91,-0.61 -0.39,-1.61 1.26,-1.74 -1.12,-1.1 0.28,-0.71 -0.2,-2.05 -0.68,-0.34 -0.94,-2.48 0.2,-0.64 -0.29,-1.91 1.06,-0.7 -0.01,-1.86 -0.53,0.32 -0.5,-0.67 -0.78,0.06 -1.11,-0.98 -3.35,-1.16 -3.0500004,-0.16 -0.69,2.16 -1.84,-0.08 -0.41,-0.6 -1.4,-0.63 0.27,-0.58 -0.57,-1.18 -0.25,-1.82 -0.45,-0.53 0.57,-1.07 1.12,-0.14 0.12,-0.57 -0.32,-0.91 -0.95,0.05 -0.79,-2.24 -0.83,-1.13 -0.65000005,-0.04 -0.09,-0.31 1.39000005,-1.64 -0.12,-1.71 2.33,0.02 1.2,-2.12 -0.35,-2.17 -0.99,-0.73 0.38,-1.1 0.72,-0.54 -0.08,-0.74 0.87,-1.37 -0.46,-0.38 1.19,-1.08 0.9,0.17 0.17,-0.39 1.33,-0.36 1.4100004,0.66 2.31,-1.98 0.79,-1.16 1.25,0.14 0.24,-1.32 1.24,-0.08 0.71,0.55 0.52,-0.33 -1.39,-1.8 0.41,-0.33 0.08,-0.97 2.02,1.23 2.92,0.15 2.52,-1.95 0.53,-0.82 1.68,-0.83 0.6,2.52 1.02,0.47 -0.08,0.68 -0.91,0.89 0.59,0.79 0.13,0.96 1,-0.36 0.58,-0.67 0.16,0.48 1.02,0.41 0.61,-1.5 1.57,-0.51 1.22,0.41 1.33,-1.3 0.49,1.68 1.53,-0.8 0.87,-0.9 0.21,-1.2 1.37,-1.58 -0.16,-2.11 1.94,-1.56 -0.02,-1.82 0.99,-1.01 2.31,-0.64 1.34,0.72 0.97,-0.19 0.56,0.34 1.08,-0.42 2.4,0.66 0.96,-0.33 0.48,0.24 2.7,-1.25 1.34,-0.07 0.96,0.75 0.74,-0.62 0.91,-0.16 1.04,-2.24 1.43,-0.97 0.3,-0.74 -0.36,-0.67 0.15,-0.92 1.06,-0.18 1.27,-0.81 0.8,-0.01 0.86,-1.36 1.62,-0.42 1.27,-1.18 0.93,-0.2 1.73,-1.19 0.89,-0.1 0.58,-0.84 1.25,-0.31 0.62,-0.66 0.83,-0.04 0.21,0.37 -0.42,0.47 0.3,0.23 2.35,-0.16 1.16,-1.22 1.04,-2.63 0.47,-0.35 1.89,-0.23 1.2,0.29 1.97,-0.43 -0.41,-0.57 0.26,-0.69 -0.31,-1.47 0.41,-0.24 0.12,-0.63 -1,-2.66 0.1,-0.95 0.77,-0.55 -1.09,-0.92 -0.25,-1.54 0.6,-0.77 0.5,-2.12 1.76,0.02 2.44,-1.18 -0.28,-0.48 -1.09,-0.29 -0.99,-0.78 -0.12,-1.05 1.36,-0.51 1.15,-0.95 2.32,-0.3 0.29,-0.53 -0.52,-1.96 -1.06,-0.03 -0.18,-0.31 1.08,-2.53 -2.86,-6.53 -1.36,-5.53 -0.87,-5.83 0.77,-2.26 -0.54,-0.83 1.59,-0.89 -0.06,-0.47 -1.49,-0.96 -0.3,-0.59 -0.65,0.1 -0.12,-0.45 -3.15,0.69 -0.52,-0.28 -0.37,-1.1 -0.75,-0.33 -0.62,0.25 -0.08,-0.29 2.62,-2.03 0.38,0.06 -0.01,-0.7 1.72,0.33 1.13,-0.64 0.93,0.4 1.12,-1.31 1.72,0.14 1.14,-0.48 0.41,-0.66 2.05,0.78 0.77,-0.66 1.56,-0.13 0.38,-0.8 0.75,0.15 0.18,-0.34 1.83,-0.67 0.53,0.21 0.61,-0.58 0.27,0.33 0.630002,-0.1 1.78,-1.41 0.8,-0.23 1.25,1.07 0.38,1.83 1,-0.08 0.72,0.94 3.77,-1.42 0.68,0.17 2.27,1.89 1.34,-1.98 0.49,-2.29 -0.35,-1.29 -2.36,-0.72 -1.58,-1.09 -0.25,-0.69 0.46,-1.82 2.48,-5.63 0.31,-3.65 2.65,-6.09 0.87,-4.25 1.04,-2.34 0.59,-2.51 0.72,-0.8 0.47,-2.89 1.82,-0.22 0.88,0.85 1.35,0.08 0.73,0.95 0.62,-0.18 1.55,1.37 5,1.16 0.78,0.55 2.23,-0.63 2.71,-0.2 0.98,0.6 2.27,-0.49 1.26,1.78 -1.15,1.26 1.4,0.24 1.98,-0.83 0.17,-0.79 1.19,-0.34 1.52,-1.36 0.41,-0.87 3.88,-0.1 0.59,-2.43 1.52,-0.75 0.13,-2.69 -1.31,-2.68 0.22,-1.64 -1,-6.22 0.89,-2.71 -0.02,-1.39 1.58,-4.05 1.45,-1.08 2.08,-0.41 2.52,0.26 1.31,-1.24 0.9,-0.17 0.56,0.29 1.96,-0.92 0.57,-1.560003 0.65,-0.27 0.98,-1.45 -0.2,-1.26 0.82,-1.18 -0.99,-1.38 -0.13,-1.46 1.34,-1.15 0.45,-1.19 1.31,0.23 2.1,-0.97 1.1,0.7 2.48,0.6 1.11,-0.43 0.08,-0.69 0.72,0.28 1.68,-0.82 z" 
                fill="rgb(151, 144, 238)" 
                stroke="white" 
                stroke-width=".7px"
                title="Xinjiang Uygur" 
                id="CN-65" 
            />
        </svg>