<svg xmlns="http://www.w3.org/2000/svg" viewBox="61.52751799999953 308.00015999999965 261.6600020000003 136.61000000000013" width="261.6600020000003" height="136.61000000000013">
            <path 
                d="m 68.127518,340.60016 0.37,-0.25 1.02,0.79 0.51,-1.2 0.93,-0.44 0.96,0.43 0.77,-0.39 2.83,-0.12 0.39,-0.44 1.28,0.45 0.8,-0.51 1.16,0.02 0.75,-0.75 -0.22,-0.45 0.55,-1.07 -0.3,-0.57 0.73,-0.52 -0.66,-0.75 0.23,-1.56 1.35,-0.16 0.74,-3.04 1.24,-0.6 0.98,-1.68 0.54,-0.34 0.33,-0.55 -0.31,-0.55 0.29,-0.91 0.84,-0.29 1.32,-1.25 0.9,0.17 0.29,0.83 0.5,-0.23 0.71,0.24 0.42,0.85 0.38,0.06 1.58,-0.16 2.29,0.57 0.34,-0.55 -0.27,-0.56 0.85,-0.41 0.54,0.65 0.63,0 0.35,0.71 1.3,-0.57 0.82,0.29 0.65,-0.32 1.480002,1.76 1.5,0.15 0.78,-0.44 1.61,0.04 1,-0.52 -0.19,-0.4 1.11,-0.12 0.44,-0.54 -0.03,-1.33 3.43,-1.62 0.39,-0.89 -0.18,-0.62 0.71,-0.07 0.29,-0.8 0.53,-0.17 2.17,0.4 1.29,0.85 0.82,-0.78 2.08,0.26 0.48,2.89 0.87,0.34 0.75,0.99 0.83,0.1 0.63,-0.43 1.95,0.59 1.27,-0.2 0.56,0.81 1.02,0.09 0.79,-0.41 2.36,0.02 0.54,-0.72 1,-0.21 0.83,0.17 0.47,0.72 1.07,0.09 3.43,-1.85 0.31,-0.56 -0.29,-0.52 4.87,-1.42 0.37,-0.54 2.1,-1.11 1.5,0.03 0.82,-0.24 -0.03,-0.3 0.67,-0.01 1.5,0.82 1.76,0.25 0,0.81 0.91,0.19 1.27,-1.62 1.4,-0.47 1.84,-0.04 1.25,-0.96 0.91,-1.46 0.07,-0.93 0.6,-0.51 0.23,-1.5 0.69,-0.48 1.33,-0.14 0.44,-0.6 0.79,-0.22 0.67,0.29 0.31,-0.39 1.8,-0.14 1.05,-0.91 1.36,-0.2 0.44,0.64 1.2,-0.66 1.94,0.18 0.56,-0.81 1.42,-0.23 0.92,-0.82 1,0.02 0.17,0.83 1.25,0.31 2.04,-0.67 2.03,0.23 1.14,-1.05 1.92,0.17 1.45,-0.68 0.98,0.19 0.65,-0.39 1.16,0.01 0.36,0.57 1.14,-0.13 0.44,1.01 0.84,0.33 0.99,1.05 0.89,-0.82 1.1,-0.17 0.49,0.71 0.94,0.06 1.16,0.97 0.67,0.03 0.67,-0.68 3.2,2.24 3.08,1.04 0,0 -1.51,0.11 -1.39,0.79 -0.95,-0.24 -0.32,0.66 0.32,0.19 -0.08,1 1.63,0.69 -0.26,0.16 3.38,0.24 -0.93,3.08 0.49,0.96 -0.64,0.23 -0.14,0.47 0.08,0.56 0.7,0.48 -0.93,0.9 -2.41,0.86 0.01,1.18 0.39,0.09 -0.97,0.8 0.84,1.47 0.88,0.33 -0.31,2.78 0.29,0.54 0.61,0.23 0.89,-0.53 1.2,-0.02 0.11,0.69 0.72,0.85 -0.82,1.06 -0.93,0.37 0.16,1.17 0.71,0.32 -0.25,0.56 0.45,0.69 0.14,1.46 -0.29,0.73 0.88,1 -0.54,0.58 -0.2,1.99 -0.73,0.58 -0.77,0.04 -0.62,1.12 0.56,1.36 1.3,1.41 0.62,-0.01 1.11,1.02 -0.18,0.99 0.77,0.12 0.42,0.54 -0.26,0.94 2.23,1.11 0.84,0.82 0.11,1.49 1.68,2.01 1.5,0.11 2.64,1.86 1.74,0.45 1.84,-1.96 0.35,0.28 1.97,-0.27 0.25,-0.96 0.46,-0.32 2.08,0.09 0.35,0.47 -0.54,0.17 0,0.4 1.31,2.03 0.74,0.22 0.34,0.72 1.54,0.89 1.39,0.74 0.64,-0.03 0.19,0.62 0.47,-0.02 0.9,1.3 2.22,-0.99 1.1,0.71 -0.39,0.52 0.06,0.78 0.77,0.45 1.2,-0.66 1.22,-0.01 2.39,0.65 0.59,-0.66 2.26,1.01 1.79,-0.68 0.63,1.71 1.39,-0.53 0.94,0.05 1.68,2 1.02,-0.44 0.2,0.75 0.55,0.45 1.15,-0.66 0.55,-0.78 0.85,-0.09 1.15,0.39 0.59,1.19 0.76,0.15 0.54,-0.36 0.61,0.61 0.57,-0.36 1.01,0.54 0.56,-0.38 0.29,-0.85 2.02,-0.07 0.36,-1.17 0.74,0.49 0.15,-0.52 0.98,0.02 0.98,-1.06 2.1,1.84 -0.32,0.26 0.73,0.72 1.02,0.33 0.46,1.09 -0.48,0.17 0.12,0.37 1.43,0.56 0.81,0.96 2.86,-0.07 0.61,1.18 0.55,-0.16 0.43,0.4 0.23,1.31 -0.49,0.41 0.37,0.49 -0.65,0.16 -0.24,0.53 1.12,2.36 0.77,0.79 0.61,0.04 0.74,-0.53 1.57,0.32 0.83,1.22 0.65,-0.62 2.93,0.12 0.55,0.35 0.68,2.19 0.6,-0.19 0.14,-0.5 -0.5,-0.25 0.45,-1.18 -0.39,-0.98 -1.1,-0.87 0.2,-0.64 0.68,0.01 -0.2,-0.63 1.63,-0.69 1.58,2.27 1.32,0.95 0.75,-0.18 0.55,0.43 0.38,-0.32 0.7,0.77 0.9,0.09 0.4,-0.82 -1,-1.86 0.62,-0.62 -0.75,-0.76 -0.32,-1.23 1.13,0.16 0.53,0.55 0.53,-0.58 0.54,0.45 0.28,-0.15 -0.36,-0.65 0.26,-0.36 2.67,0.52 0.85,-0.41 -0.2,-0.76 0.41,0.41 0.72,0 -0.56,-1.51 0.31,-1.5 0.48,-0.29 0.56,0.4 0.6,-0.46 -0.74,-0.45 0.71,-0.15 -0.34,-1.09 -0.62,-0.34 0.58,-0.82 -0.19,-0.4 3.83,0.76 -0.07,-0.38 0.8,-0.4 0,0 3.02,0.82 1.38,1.07 1.48,0.6 0.38,1.93 1.09,1.75 1.52,1.51 -0.05,1.18 -0.38,0.4 0.21,1.08 1.63,1.66 0.2,0.99 0.78,0.91 3.31,3.14 -1.3,1.84 -1.16,-1.22 -0.68,-0.03 -0.41,2.17 0.89,0.53 0.83,1.62 0.77,0.53 -0.23,1.69 2.28,1.93 -0.02,0.49 -0.71,0.56 0.9,4.39 0.13,3.37 0.73,1.11 0.36,2.2 -0.65,1.26 -0.33,2.48 0.74,1.63 0.16,3.14 0.6,1.32 0,0 -1.15,0.83 -0.49,-0.18 -0.25,0.27 0.71,1.9 -1.24,1.11 -0.07,1.04 0.72,0.47 -0.14,0.62 -0.72,0.37 -0.8,-0.1 -0.79,-2.76 -0.92,0.49 -0.94,-0.09 0.72,3.43 -1.21,0.91 0.37,2.4 0.76,0.44 0.9,1.94 -0.5,0.47 -0.08,1.07 -1.05,0.97 -0.95,-0.27 -1.83,1.07 -0.57,-2.66 -0.94,-1.46 -1.03,0.57 0.79,1.57 -1.25,0.54 0.11,0.52 -0.48,0.34 0,0 -0.88,-0.87 -0.67,0.07 0.08,-0.87 -1.56,-1.58 -1.23,0.57 -1.13,-2.53 -0.96,0.6 -0.73,-1.04 -1.23,2.33 -0.09,1.52 -0.63,-0.29 -0.23,0.66 -0.6,0.21 -1.68,-0.96 -0.64,0.02 -1.03,-1.01 -1.21,0.76 -0.89,-0.41 -0.34,-0.58 -1.47,0.22 -0.4,-0.74 -1.09,-0.63 -1.08,0.04 -0.87,0.64 -0.66,-0.01 -0.74,1.07 -0.36,-0.71 -1.31,-0.23 1.33,-1.1 -0.6,-0.67 1.03,-0.43 -0.07,-0.44 0.34,0.11 0.83,-0.73 -0.27,-0.72 1.43,-0.48 0.38,-0.82 -0.99,-1.51 -0.23,-1.25 -0.4,0.08 -0.13,-0.41 0.61,-1.22 -1.13,0.6 -1.13,0.07 -1.24,1.29 -1.04,0.53 -0.26,-0.46 0.5,-0.72 -0.89,-1.29 0.89,-0.25 0.95,-0.94 1.09,-0.15 0.58,-1.24 -0.37,-0.42 -0.89,0.72 -0.62,0.01 -0.77,-1.07 -0.1,-0.79 -1.19,-1.43 -1.56,1.16 -0.97,-0.12 -1.06,0.79 -0.24,-0.29 -1.76,1.54 -0.5,-0.17 -0.16,0.63 -0.61,0.06 0.11,1.22 -0.63,-0.16 -0.14,0.92 -0.48,0.58 -2.29,-0.31 -0.2,-0.75 -1.63,-0.1 -1.57,-0.81 0.32,0.61 -1.91,-0.78 -0.93,0.29 -0.26,-1.1 -1.88,-1.55 -0.89,1.72 -1.6,0.03 -0.94,1.07 -0.88,0.06 -0.92,0.93 -0.75,1.86 -2.03,1.62 0.09,0.95 -0.96,1.48 -1.03,-0.51 -0.87,0.56 -0.55,-0.3 -2.5,0.44 -0.54,-0.36 -0.22,0.43 -0.36,-0.32 -1.37,0.52 -0.77,1.93 -1.18,0.93 0.62,0.56 -0.16,0.96 -2.47,0.44 0.13,0.57 -0.42,0.46 -0.46,-0.44 -0.87,0.81 -0.87,0.47 -0.34,-0.43 -1.42,1.09 -0.31,0.9 0.97,1.04 -2.26,2.39 -0.75,-0.29 -0.59,0.55 -0.72,-0.25 -1.03,0.6 -0.66,-1.13 -0.68,-0.01 -1.95,1.41 -0.91,-0.15 -0.82,0.78 -0.74,-0.31 -0.46,-1.04 -0.98,0.1 -1.37,-0.73 0.44,-0.41 -0.04,-0.81 -0.53,-0.35 -1.81,-0.18 -2.07,-1.6 -1.49,0.65 -1.27,1.07 -1.01,-0.07 -1.13,-0.98 -2.12,-0.06 -0.49,-0.63 -3.4,0.77 -0.08,-0.34 0.86,-1.16 1.27,-1.06 -1.53,-0.1 -1.54,-0.59 -0.32,0.19 -1.79,-0.98 -0.92,0.53 -1.72,-0.59 -0.72,0.51 -0.49,-0.2 -1.25,1.1 -0.06,0.72 -1.12,0.35 -1.3,-0.09 -1.73,1.49 -0.41,1.02 -1.09,0.25 0.14,1.45 -1.24,0.45 -1.71,3 -0.61,0.07 -1.34,1.58 -0.3,1.47 0.56,1.32 -0.31,0.41 -2.04,-1.79 -0.36,-0.75 -0.2,-1.58 1,-1.44 0.1,-2.1 0.39,-0.61 -0.62,-1.03 -0.04,-1.14 -1.04,-0.88 -1.06,-0.01 -0.58,-0.81 -0.06,0.39 -0.78,0.27 -0.21,0.66 -0.61,-0.14 -1.21,0.98 -0.71,-0.12 -1.19,0.56 -0.18,-0.27 -0.51,0.34 -0.69,-0.27 -0.26,1.36 -1.44,-0.7 -1.03,1.42 -0.56,0.14 -0.74,-0.43 -0.25,0.35 -0.56,-0.3 -0.32,0.27 -0.38,-0.42 -1.22,0.45 -0.24,-0.79 -1.47,0.65 -0.57,-0.42 -0.95,0.32 -0.93,-0.19 -0.46,0.36 -1.21,-0.1 0.14,-0.53 -1.32,-1.1 -1.37,-0.29 -1.06,-0.98 -0.68,0.13 -1.21,-1.27 -0.85,0.46 -0.66,-0.08 -0.87,0.81 -0.18,0.62 0.31,0.83 -0.64,-0.18 -0.69,0.36 0.09,-0.8 -0.91,0.31 -0.43,-0.45 -1.32,-0.17 -0.3,-1.27 0.25,-0.32 -0.57,-1 -1.14,1.15 0.03,1.09 0.6,1.05 -0.78,0.43 -0.77,-0.15 -0.65,-0.34 0.14,-0.57 -0.87,-1.88 -1.58,-1.36 -0.49,0.18 -1.28,-0.8 -0.83,-0.85 -1.54,-0.23 -0.78,0.66 -0.48,-0.25 -1.13,0.27 -0.61,-0.84 -1.14,0.11 0.99,-4.08 -0.78,-0.85 -0.97,0.24 -0.7,0.81 -0.77,-0.14 -1.01,0.66 -2.12,-0.64 0.16,-0.62 -0.57,-1.01 -3.02,-0.15 0.21,-1.05 -0.45,-0.6 -1.42,-0.44 -0.34,-0.44 -1.38,0.41 0.2,-1.47 -0.62,-0.9 1,-2.33 -1.28,-0.93 -0.92,0.03 -0.27,-0.46 -1.06,-0.11 -1.67,1.1 -0.93,-0.07 -1.01,1.04 -1.25,-0.55 -1.15,-1.16 -0.61,-1.61 -0.84,-0.8 -0.04,-0.65 -0.88,-0.3 -0.21,-0.89 -4.03,-1.72 -0.97,-0.11 -1.17,-0.75 -0.62,-1.13 -2.56,-2.44 -3.8,-1.23 0.15,-1.22 -0.63,-0.79 -0.14,-1.43 -1.79,-0.1 -4.7,-1.43 -0.62,0.1 -0.12,0.81 -1.18,-0.75 -0.960002,0.13 -0.27,3.06 -0.59,0.75 -0.94,0.11 -0.11,1.26 -0.72,0.41 -1.3,-0.72 0.09,-1.04 -0.6,-0.78 -0.33,0.03 -0.23,-0.88 -2.53,-0.83 -0.93,-1.14 -1.93,-1.3 -0.73,0.48 -1.6,-1.12 -2.39,-0.75 -0.38,-1.35 0.71,-0.96 -0.93,-1.02 -0.76,0.45 -0.75,-0.95 -1.63,-0.7 -0.8,-1.29 -1.38,-0.39 -2.11,0.77 -0.56,-0.29 -0.38,-0.96 -1.11,0.03 -0.4,-1.19 -1.04,-0.45 -0.34,-1.2 -0.49,-0.34 0.18,-0.63 -1.5,-2.09 -1.03,-0.47 -0.73,1.6 -0.82,0.44 -0.14,1.03 -0.43,-0.13 -0.64,-0.87 0.06,-0.63 -0.73,-0.42 0.24,-0.76 -0.58,-0.56 -0.41,0.09 -0.13,-0.5 1.57,-1.43 -0.65,-1.1 -0.57,-0.03 -0.12,-1.06 -0.42,-0.44 1,-3.06 -0.5,-0.11 -1.05,-1.48 -0.64,-0.22 -0.29,-0.54 0.23,-0.9 -0.67,-0.46 -1.27,0.05 0.32,-1.57 0.69,-0.99 -1.02,-0.57 0.13,-0.5 -0.55,-0.52 0.09,-0.46 1.68,-0.84 1.02,0.08 0.36,-0.63 1.16,-0.7 0.43,1.46 0.01,1.83 2.48,1.98 0.91,-0.61 0.7,0.18 0.28,-1.38 0.96,-0.7 0.7,-0.18 0.68,0.54 1.72,-1.48 1.23,-0.32 0.24,-0.94 -0.39,-1.34 -0.79,-0.64 -0.28,-1.29 -1.22,-1.35 0.73,-2.99 -2.84,-0.19 -1.4,-0.56 -0.1,-1.02 -3.08,-2.82 -1.41,-2.59 0.92,-1.75 -0.92,-2.3 0.06,-0.64 0.69,-0.83 -0.81,-0.8 2.3,-1.43 1.09,-1.16 0.19,-1.15 z" 
                fill="rgb(151, 144, 238)" 
                stroke="white" 
                stroke-width=".7px"
                title="Xizang (Tibet) " 
                id="CN-54" 
            />
        </svg>