<svg xmlns="http://www.w3.org/2000/svg" viewBox="303.2575199999997 416.42016 109.41000000000003 112.79000000000008" width="109.41000000000003" height="112.79000000000008">
            <path 
                d="m 323.18752,416.42016 0.24,4.41 -0.3,1.94 0.93,3.15 -0.1,2.49 0.93,1.49 0.46,0.14 0.36,1.18 1.07,0.84 -0.08,-1 0.39,-0.65 -0.31,-0.5 0.18,-0.67 -0.3,-0.39 -0.1,-2.17 1.77,-0.7 0.24,-1.47 0.84,-0.65 0.22,-1.14 1.2,-0.46 0.3,1.83 1.15,0.71 0.01,1.29 0.69,-0.44 0.7,0.31 0.62,1.54 1.03,0.6 -0.18,0.87 1.49,0.72 -0.34,0.47 0.56,0.48 -0.28,0.51 -1.73,0.55 -0.15,0.48 0.72,1.56 1.34,1.23 -0.18,0.7 1.71,0.58 -0.24,0.69 0.47,1.35 0.66,-0.53 0.67,-1.59 1.48,0.8 1.14,-1.46 0.64,0.03 0.4,0.75 -0.12,0.81 0.74,0.75 0.22,0.95 0.69,0.08 -0.16,0.85 0.63,0.13 0.03,1.93 0.27,0.26 0.43,-0.24 1.07,1.89 -0.14,0.33 0.59,0.38 -0.13,0.95 0.26,0.37 1.25,-0.13 -0.29,2.52 1.56,1.04 0.04,0.67 1.22,0.27 0.43,0.64 -0.49,0.93 0.39,0.71 0.86,-0.16 -0.11,-0.69 0.79,0.26 -0.76,0.83 0.39,0.44 -0.26,0.95 -0.88,0.14 0,0.57 3.03,2.23 0.27,1.25 -0.54,-0.07 -0.31,0.44 0.36,1.02 0.9,-0.46 0.64,0.37 0.75,0.78 0.47,1.61 1.11,-0.92 0.38,0.35 0.76,-0.17 1.03,0.4 1.97,-2.11 0.95,-0.23 0.71,-0.81 1.85,-0.58 0.29,-0.41 0.94,0.39 -0.35,1.21 0.86,0.59 0.57,-0.14 0.39,-0.81 1.27,-0.66 0.38,-0.57 0.25,0.32 1.12,-0.13 0.12,-1.87 0.39,-0.03 0.43,-0.7 -0.5,-0.74 0.07,-1.02 -0.54,-1.91 -1.07,-1.64 -0.34,-1.64 0.5,-1.31 -0.32,-2.52 0.74,-1.64 0.57,0.64 0.83,-0.57 1.08,-0.16 1.09,-2.1 0.81,0.03 -0.16,-0.87 2.74,-2.6 0.16,-1.48 0.71,-0.83 -0.7,0.1 -0.22,-0.86 -0.59,0.04 0.09,-1.42 2.33,-1.93 0.96,0.82 1.97,-1.43 -0.16,-1.28 -0.87,-1.83 0.64,-0.97 0.12,-1.11 0.26,-0.08 0.19,0.71 0.9,0.28 1.2,-0.35 0.65,0.29 0.42,-0.44 1.29,-0.08 0.16,-0.34 0.76,0.66 0.71,-0.35 0.73,0.24 -0.83,1 -1.35,0.43 0.1,1.93 0.53,1.04 0.95,-0.18 0.31,0.9 0.61,-0.01 0.16,0.33 -0.75,0.76 0.21,0.34 0.53,-0.1 -0.21,0.85 -0.62,0.3 -0.06,0.55 -1.02,0.19 2.51,2.31 0.96,0.56 1.86,-0.76 1.89,-0.17 1.24,-2.15 0.9,-0.51 1.73,0.48 0.15,1.03 0.9,-0.1 0.18,0.97 -0.58,0.62 0.23,0.84 0.73,0.17 -0.37,0.43 0.26,1.1 0,0 0.04,1.19 -0.98,1.08 0.4,0.42 -0.86,2.03 -0.28,-0.45 -1.2,-0.17 -2.64,1.79 -0.16,-0.68 -0.47,-0.18 -0.53,0.52 -0.47,-0.38 -1.52,0.46 -1.03,-0.38 -0.28,-0.94 -1.93,-0.9 -0.73,1.45 -0.72,0.44 0.13,0.43 -0.94,0.45 -0.76,-0.86 -1.35,-0.65 0.02,-0.81 -1.04,-0.1 -0.8,1.91 -1.53,1.33 -0.56,1.06 -0.95,0.3 0.38,0.64 -0.73,0.07 0.19,0.85 1.05,-0.61 0.97,1.37 -0.03,1.12 -0.68,0.28 -0.24,0.65 0.39,1.1 0.45,-0.07 -0.27,1.54 0.84,1.23 2.48,0.28 0.66,-0.25 0.86,-1.54 2.66,0.32 0.84,-1.27 0.68,0.82 -0.07,0.69 0.37,0.32 1.02,-0.03 0.07,0.81 1.16,1.29 0.22,0.84 -1.76,1.74 -0.28,2.21 -0.82,0.32 0.17,0.81 -0.62,1.49 0.24,0.45 -0.78,1.93 -0.67,-0.24 -0.15,1.33 0.21,0.72 1.26,0.32 0.08,1.41 1.62,-0.59 -0.23,1.64 1.24,0.6 0.14,0.91 2.12,0.64 -0.08,1.16 -0.9,-0.68 -0.88,1.96 -0.63,0.09 0.71,0.14 0.41,0.86 -2.08,2.38 -0.19,1.28 0,0 -0.62,1.1 0.3,1.07 1.36,2.28 -0.08,0.38 1.1,0.81 0.33,-0.24 -0.07,-1.46 0.57,-0.19 2.31,0.71 1.33,-0.45 0.66,0.25 0.13,0.7 1.07,0.49 -0.18,0.74 0.65,1.28 -0.66,0.69 1,0.96 0.77,-0.66 1.15,1.09 0.92,0.23 0.61,-1.46 0.93,-0.15 0.71,1.33 1.37,-0.42 0.41,0.22 -0.16,0.31 0.62,0.09 0.21,-0.43 0.53,0.11 0.25,-0.98 1.04,-0.09 1.2,1.38 0.62,1.69 0.65,0.48 -0.31,0.13 0.24,0.51 -0.7,0.4 0.27,1.18 -0.48,1.5 0.27,0.42 -1.79,1.67 -0.17,-0.57 -0.97,-0.14 -0.36,-0.41 -0.69,0.19 -0.25,0.66 -0.6,0.11 -0.74,0.79 -0.63,0.04 0.53,0.95 -0.48,-0.29 -0.81,0.53 -0.79,0.92 0.18,0.74 0,0 -0.48,-0.11 -0.76,-1.36 -0.38,0.17 -0.5,-0.42 -0.57,-1 -0.91,0.74 -0.36,0.92 -0.66,-0.24 -0.75,0.57 -0.36,-0.32 -1.11,0.9 -0.48,-0.01 -0.13,0.44 -0.74,-0.04 -0.23,0.68 -0.97,-0.04 0.83,2.48 -1.72,1.32 0.08,0.37 -1.62,-0.07 -0.33,-0.33 -2.71,2.19 -1.19,-0.66 0.11,-1.35 -2.06,0.38 -0.95,1.2 -0.76,2.95 -1.96,-1.49 -2.07,-2.34 -0.47,-0.01 -0.73,1.2 0.19,0.52 -0.61,0.95 -1.33,-1.66 0.14,-0.63 -1.48,-0.77 -0.52,1.89 -1.19,0.48 -0.34,0.69 0.3,0.48 -1.26,0.64 -0.13,0.85 -1.79,-0.49 -0.86,-1.73 -0.94,-0.21 -1.07,-0.96 -0.6,0.09 -0.62,-0.58 -0.47,0.39 -0.88,-1.03 -0.52,0.24 -0.28,0.82 -0.67,0.26 0.21,0.7 -1.6,1.81 -0.14,1.15 -0.95,-0.28 -0.53,0.46 -0.34,-0.52 -1.19,-0.24 -1.32,0.3 -0.39,0.73 -1.23,-1.57 -1.29,0.34 -0.33,0.75 0.21,0.59 -0.59,1.17 -0.79,0.08 -0.3,0.44 0.72,1.2 -0.34,0.63 0.73,1.36 -0.14,0.59 0.65,0.48 0.38,-0.14 0.04,0.69 0.92,0.83 -0.36,1.47 0.94,1.63 -0.82,0.35 0.2,0.86 -0.37,0.41 -0.11,2.27 1.35,0.84 -0.06,0.53 -0.75,0.13 0.06,0.86 -1.03,-0.13 -0.4,-0.67 -0.87,0.31 0.06,-0.74 -0.59,-0.24 -2.11,0.31 -1.41,0.63 -0.68,-1.8 0.47,-0.83 -0.89,-0.51 0.26,-1.92 -0.81,-0.13 0.21,-1.01 -0.68,-0.31 0.12,-1.54 -3.69,1.71 -0.43,0.86 -1.54,1.38 -1.28,0.44 -1.08,-0.1 -0.69,-0.96 -0.71,-0.16 -0.92,0.82 -1.39,0.51 -0.79,-0.81 -0.28,-1.05 0.74,-1.08 -0.42,-0.46 -1.59,-0.04 -0.45,-0.57 -0.38,-1.12 0.66,-2.08 -0.37,-1.04 -1.12,-0.19 -0.41,0.57 -1.29,-0.73 -0.56,0.47 -0.64,-0.83 -1.56,0.04 -0.66,-0.49 -1.75,0.51 -1.42,-0.21 -0.75,-0.6 0.46,-0.15 -0.28,-0.19 1.21,-2.22 -0.31,-0.53 1.74,-1.52 -0.32,-0.38 0.28,-0.79 -0.77,-2.26 0.69,-0.19 0.86,-1.17 -0.03,-1.31 0.8,0.53 0.69,-0.41 -0.57,-0.9 -0.09,-1.09 -2.07,-0.7 -1.65,0.58 -0.83,-0.26 -0.52,0.25 -0.76,-0.55 0.09,-0.53 -2.18,-0.26 0.69,-1.4 -0.1,-0.44 -0.58,-0.07 0.48,-0.35 0,-0.91 -0.57,-0.9 -0.62,0.21 -0.27,-0.94 1.06,-1.04 -0.86,-1.14 0.01,-0.82 -1.8,-0.7 0.31,-0.27 -0.2,-1.08 0.24,-0.4 -0.39,-0.28 2.03,-1.25 0.61,-0.74 -0.09,-0.7 -3.44,0.83 -0.92,-0.48 -5.02,0.39 -3.2,1.26 -0.02,0.39 -2.96,1.88 -0.27,-0.64 -1.17,-0.64 0.63,-0.76 0.6,-0.09 1.58,-2.34 -0.37,-0.47 0.42,-1.03 -1.17,-0.39 -0.08,-0.48 0.69,-0.18 -0.47,-1.25 -1.81,0.13 0.45,-2.62 -0.23,-1.6 1.99,-1.32 0.64,0.19 0.32,-0.33 -0.89,-1.86 0.18,-1.23 1.43,-2.75 0.83,0.74 0.49,-0.13 0.89,-1.17 0.65,-0.12 0.46,-1.04 0.4,0.03 -0.18,-1.73 0.7,-0.55 -0.13,-0.98 1.8,1.09 0.61,-0.23 1.54,-3.44 0.88,-0.56 1.08,0.62 0.89,-0.87 0.06,-0.52 -1.29,-1.2 -0.48,-1.81 0.96,-0.38 0.23,0.77 0.64,-0.6 0.21,-0.74 -0.34,-0.75 -0.44,-0.14 0.05,-0.92 0.77,-0.96 0.55,-3.31 -0.17,-2.67 -0.36,-0.74 0.24,-0.72 -0.31,-1.29 0.39,-0.67 -0.8,-0.8 -0.18,-1.48 0.57,-1.46 -0.58,-2.12 0.22,-1.41 -0.47,-0.68 -0.87,0.19 -0.52,-0.81 -0.35,0.33 -0.77,-0.79 -0.5,0.02 -0.12,1.58 -0.58,0.67 -0.5,0.04 -0.54,-1.72 -0.87,-1.18 0.1,-1.36 -0.81,-0.43 0.53,-0.74 -0.87,-0.84 0.28,-1.77 -0.29,-0.77 0,0 0.48,-0.34 -0.11,-0.52 1.25,-0.54 -0.79,-1.57 1.03,-0.57 0.94,1.46 0.57,2.66 1.83,-1.07 0.95,0.27 1.05,-0.97 0.08,-1.07 0.5,-0.47 -0.9,-1.94 -0.76,-0.44 -0.37,-2.4 1.21,-0.91 -0.72,-3.43 0.94,0.09 0.92,-0.49 0.79,2.76 0.8,0.1 0.72,-0.37 0.14,-0.62 -0.72,-0.47 0.07,-1.04 1.24,-1.11 -0.71,-1.9 0.25,-0.27 0.49,0.18 z" 
                fill="rgb(151, 144, 238)" 
                stroke="white" 
                stroke-width=".7px"
                title="Yunnan" 
                id="CN-53" 
            />
        </svg>