<svg xmlns="http://www.w3.org/2000/svg" viewBox="299.75550000000084 213.058 204.63999999999976 288.04999999999984" width="204.63999999999976" height="288.04999999999984">
            <path 
                d="m 477.3255,388.448 0.11,0.65 -0.78,-0.91 -2.12,-1.14 -0.86,-3.56 0.6,-2.59 -0.62,-2.19 0.15,-0.99 1.35,-1.52 0.2,-2.17 1.43,-1.44 0.93,0.11 -2.07,3.96 -0.4,4.37 0.47,4.04 0.57,1.41 0.99,1.22 0.05,0.75 z m -164.84,-146.73 5.99,-4.13 5.45,1.25 10.68,0.68 1.67,-1.48 2.11,-3.52 2.23,-1.13 5.23,-0.91 1.35,-0.56 6.79,-9.49 25.33,-3.64 25.39,-0.67 2.52,-2.68 1.14,-0.61 0.72,0.01 0.94,0.61 0.62,-0.36 0.95,0.14 1.03,-0.57 0.65,0.42 0.81,1.71 1.12,0.21 0.98,-0.27 3.27,-2.47 2.54,-0.12 1.52,-0.6 8.48,-0.48 3.56,1.36 7.79,0.91 11.76,2.39 5.2,-0.03 3.01,2.3 1.67,-0.1 1.51,0.35 0.73,0.44 0.21,0.86 -2.53,4.44 -1.27,3.03 -0.08,0.71 0.67,0.93 21.45,14.34 7.03,-0.23 5.02,0.73 0,0 2.29,8.78 0.4,3.16 0.97,2.52 -0.23,0.91 -0.89,0.82 -0.64,0.08 -0.54,-0.52 -0.09,-1.69 0.72,-2 -0.13,-0.96 -0.41,-0.37 -0.46,-0.03 -0.41,0.46 0.85,0.53 -0.91,2.12 0.39,0.75 0.21,2.1 -1.11,-0.44 -2.13,-0.05 -2.98,-1.64 -1.5,0.17 -0.39,0.32 0.18,0.56 1.83,1.14 0.03,0.36 -0.59,0.14 -1.2,-0.27 -2.77,-1.66 -0.74,0.1 -1.03,0.82 -0.97,-0.8 -4.31,-0.96 0.59,-0.83 -0.19,-1.07 -3.53,-1.54 -0.94,0.67 -0.96,-1.38 -0.57,0.06 -0.61,1.02 -0.36,0.06 -0.45,-1.53 -2.26,-1.61 -0.58,-2.3 -4.34,-1.51 -3.99,-2.02 -0.32,-0.77 -0.07,-2.36 -3.21,-3.81 1.36,-1.31 -1.09,-2.18 -0.66,-2.39 -0.65,-0.4 -1.58,-0.11 -0.08,-0.3 0.85,-0.42 0.18,-0.49 -0.67,-1.12 0.26,-1.13 -0.71,-0.5 -0.95,0.03 -0.42,-0.3 -0.56,-1.29 -1.6,-1.26 0.41,-3.08 -2.95,-2.2 -1.61,-0.68 -2.32,-2.14 -1.94,-0.72 -0.16,0.64 0.66,1.6 -0.35,0.51 -1.9,-0.09 -1.11,0.61 -1.11,-0.21 -2.77,1.96 -0.86,-0.35 -1.17,-1.48 -1.01,0.01 -0.52,0.47 0.36,0.97 -0.31,0.81 -5.85,1.42 -0.82,1.75 0,1.12 0.99,1.15 2.29,0.5 0.33,0.48 -0.47,0.36 -0.88,-0.31 -0.43,0.42 -1.46,2.88 -1.16,0.56 -3.95,0.02 -4.94,0.63 -2.75,1.96 -5.42,2.3 -4.24,6.18 -4.04,2.88 -2.08,0.45 -1.2,1.83 -1.23,-0.83 -1.52,-2.91 -5.79,-1.55 -2.28,-2.25 -4.28,0.2 -2.45,-0.49 -0.92,0.55 -0.5,1.39 1.45,-1.36 3.06,0.56 1.45,-0.43 1.31,-0.04 1.21,0.72 1.57,1.73 1.19,0.01 2.5,1.07 1.67,0.06 1.83,3.26 1.04,0.76 1.29,-0.03 1.29,-1.59 2.3,-0.66 4.09,-3.15 3.36,-5.6 3.67,-1.25 3.98,-2.83 0.92,-0.33 8.39,-0.68 1.93,-1.05 1.14,-2.52 1.62,0.28 0.4,-1.86 -2.35,-0.69 -1,-0.76 -0.07,-0.73 0.72,-1.9 3.49,-0.79 2.81,0.03 -0.65,-1.96 0.39,-0.51 0.74,0.03 0.59,1.17 0.79,0.55 2.37,-0.98 1.25,-1.23 1.44,0.88 0.36,-0.94 0.43,-0.19 2.17,0.05 0.29,-0.58 -0.66,-1.57 0.35,-0.38 1.47,1.52 2.76,1.3 1.3,1.26 1.51,0.71 0.37,0.58 -0.39,1.5 0.1,1.37 2.69,3.23 1.41,0.04 0.14,0.3 -0.96,1.15 0.4,0.37 0.61,-0.04 0.09,0.62 -1.19,1.19 0.23,0.32 2.17,0.27 0.52,1.38 0.9,1 0.56,1.6 -1.25,0.95 -0.31,0.7 1.63,1.29 1.69,2.42 -0.13,2.1 0.81,1.75 0.95,0.76 2.3,1 1.35,0.04 3.62,1.29 0.43,2.4 2.21,1.98 1.18,1.9 0.59,-0.08 0.19,-0.7 0.32,-0.1 1.72,1.39 0.89,-1.03 2.5,1.27 -0.48,1.53 0.91,0.76 3.52,0.37 0.95,0.83 2.48,-0.24 3.54,1.31 1.75,0.05 0.23,-0.89 -2.08,-1.63 0.83,-0.12 4.81,2.18 2.54,-0.04 0.29,2.2 0.98,-0.18 0.48,-2.66 0.67,-0.47 0.29,0.7 -1.39,4.03 -2.73,17.68 -0.71,5.64 -0.36,6.74 0.45,5.4 2.62,8.7 2.54,2.8 1.23,2.32 0.19,3.77 -0.65,5.35 -0.66,0.86 -0.67,0.05 -3.69,-0.88 -2.22,-0.12 -6.03,1.56 -0.98,1.36 -0.84,0.35 -0.95,-0.61 -0.28,-0.74 3.12,-4.28 0.54,-1.27 -2.36,-5.44 -1.3,-1.37 -0.48,-1.05 -0.3,-5.53 0.49,-3.85 0.75,-1.37 0.31,0.43 -0.28,1.17 0.2,0.53 2.31,-0.44 2.91,0.48 0.92,-0.54 0.39,-1.4 1.34,-1.45 0.27,-4.38 -0.83,-7.19 1.13,-2.39 0.28,-2.23 0.78,-1.55 -0.05,-0.53 -0.4,-0.05 -1.14,0.69 -0.5,-0.33 0.56,-1.38 1.44,-1.15 0.49,-0.89 0.24,-3.11 -0.67,-2.14 -3.21,-0.98 -2.44,-1.27 -2.44,-0.48 -0.58,0.31 -1.03,1.65 -1.46,0.02 -0.49,1.13 -0.99,-0.25 0.24,-3.95 -0.85,-4.31 -2.77,-1.79 -1.15,-0.29 -0.73,0.31 -0.92,3.22 0.34,0.94 1.19,1.49 2.28,0.25 -0.53,0.93 -1.51,0.34 -1.79,-0.11 -7.93,-3.81 -1.66,-0.32 -1.42,0.3 -3.48,1.64 -0.42,3.2 -2.93,-0.1 -1.39,2.31 -1.53,-0.62 -1.6,0.58 -0.62,-0.65 -1.51,-0.53 -1.85,-1.29 -0.64,-1.25 -0.62,-0.46 -0.7,0.1 -0.34,0.99 -2.13,-0.23 -0.22,-1.07 -1.67,-1.65 0.16,-1.22 -1.59,-0.08 -2.52,-1.96 -2.09,-0.11 -2.58,-0.89 -0.73,0.44 0.06,0.86 -0.54,0.64 -1.02,0.44 -1.03,-0.14 0.81,0.56 1.21,-0.37 0.69,-0.53 0.72,-1.53 0.76,0.14 0.66,0.74 2.43,0.09 1.18,1.17 0.95,0.06 0.69,0.61 1.17,0.21 -0.06,1.48 0.92,0.44 1.22,2.05 2.58,0.61 0.98,-1.23 0.81,1.34 1.7,1.43 1.47,0.4 1.6,1.05 2,-0.74 0.74,0.93 0.47,-0.27 1.33,-2.4 1.64,0.37 1.68,-0.51 0.22,-0.3 -0.26,-1.27 0.53,-0.96 -0.17,-0.75 3.63,-1.53 2,0.26 6.42,3.27 2.77,0.74 3.32,-0.36 1.32,1.19 -0.13,0.96 -4.44,-0.55 -4.38,-2.11 -2.33,-0.46 -0.88,-1.17 -0.83,0.14 -1.5,1.09 0.18,2.14 0.69,0.14 1.82,-1.24 1.99,-0.21 0.37,0.48 -0.66,1.81 -1.02,0.18 -0.18,0.45 2.17,0.86 0.17,0.64 -0.57,1.08 3.67,-0.02 0.85,-2.15 0.59,-0.65 1.89,-0.38 2.21,1.31 1.3,0.34 0.37,0.56 0.22,1.63 -0.66,1.98 0.09,0.64 2.06,0.52 0.65,-0.67 0.62,0.54 0.75,2.51 -0.72,0.87 0,1.07 1.99,1.73 0.95,1.89 -0.73,4.11 0.84,1.33 -0.21,1 0.24,1.41 -1.13,-0.46 -0.45,0.23 -1.7,2.39 -2.15,-0.17 0.16,1.28 -0.26,0.51 -3.27,2.56 -1.85,0.55 -1.62,1.51 -1.06,0.31 -2.3,-0.26 -2.41,0.74 -3.02,2.5 -0.19,3.87 0.27,2.77 0.86,0.33 1.41,-1.67 0.7,-0.16 0.36,0.77 1.23,-0.22 0.75,2.56 0.15,3.83 0.97,3.13 -1.39,3.32 0.2,2.49 0.58,1.47 2.01,1.84 1,-0.1 0.97,-0.94 1.53,-0.26 1.33,-0.75 0.58,0.54 -0.11,2.18 -1.01,2.75 -0.06,2.62 0.66,-0.07 0.1,-2.15 0.97,-1.92 0.04,-1.78 0.41,-1.23 1.91,-2.36 0.92,-0.63 0.54,-0.06 0.72,0.91 -1.04,1.81 -2.06,2.13 -0.72,1.39 -3.77,9.8 -0.19,5.25 -0.51,0.36 -0.12,0.56 -0.01,2.22 -0.51,2.4 -0.09,4.01 0.85,4.59 -0.29,3.95 0.33,2.28 -0.23,0.22 -1.33,-1.47 -1.66,-1.15 -1.61,-2.86 -0.3,-2.09 -0.68,0.27 0.26,-1.24 1.81,-1.38 0.13,0.91 1.4,-0.05 0.82,0.55 -0.24,-1.65 0.48,-0.52 -1.1,-1.19 -0.01,-0.84 0.58,0.74 0.4,0.02 -0.04,-0.36 -2.01,-4.49 -3.02,-2.68 -0.47,-0.05 -0.18,0.57 0.86,1.36 1,0.09 0.77,0.68 0.07,0.57 1.36,1.93 0.03,0.57 -1.36,2.17 -0.55,2.15 -0.95,0.94 -0.65,1.87 -0.5,-0.62 -0.17,-1.08 0,-4.56 -0.38,-1.08 -1.63,-2.15 0.09,-0.27 1.88,-0.47 0.23,-0.65 -0.48,-0.45 -0.65,0.86 -1.85,0.47 -4.87,-1.18 -4.54,0.45 -0.29,-0.49 -0.01,-1.69 -0.53,0.21 -0.01,1.4 -0.42,0.61 -0.84,-0.11 -1.51,-1.39 0.15,0.54 1.41,1.32 1.48,0.2 -0.27,0.72 -1.52,0.96 -2.48,0.4 -0.64,0.4 -0.39,2.26 -2.69,-0.17 -1.62,0.39 -0.99,1.77 -0.6,0.23 -0.33,0.82 -0.81,0.14 -0.47,1.24 -0.49,0.02 -2.24,-2.09 -1.1,-0.05 -0.37,-0.38 -0.47,0.15 -0.18,0.78 -0.73,-0.05 -0.39,0.38 -0.78,-0.03 -1.26,-1.51 -0.63,0.84 -1.54,-0.07 -0.71,0.61 -2.15,-2.49 -1.04,-0.64 -1.14,0.03 -0.91,-0.98 -2.31,0.3 -1.56,0.86 -0.52,-0.45 -0.69,-2.31 -0.9,-1.49 -2.49,-1.12 -1.81,0.6 -0.3,-0.83 -0.54,-0.34 -3.69,0.5 -1.41,-0.22 -2.04,-2.46 -1.69,-0.06 -1.68,-1.29 -2.08,-3.35 -0.77,-3.24 -0.89,-0.84 1.55,-1.03 0.59,-1.01 0.73,-0.48 0.16,-1.44 -1.44,-3.31 -0.76,-0.79 -0.21,-1.83 -1.09,-1.97 -0.77,-0.6 -2.75,0.06 -0.93,-0.53 1.11,1.17 1.46,-0.22 1.26,0.42 1.34,2.27 0.27,1.73 0.99,0.66 0.72,3.19 -2.93,4.21 1.05,1.22 0.2,1.47 1.71,3.86 1.93,1.42 0.13,0.57 -0.49,0.34 -3.91,0.18 -4.11,3.34 -5.02,0.75 -1.84,1.03 -2.58,0.66 1.1,0.3 3.09,-1.27 6.21,-1.01 1.8,-0.98 2.24,-1.96 4.99,-1.04 1.08,0.05 1.6,2.24 1.32,0.44 -0.32,1.29 0.38,1.13 -0.16,0.74 1.11,1.5 -1.37,1.9 -0.12,1.42 -1.27,1.94 0.09,1.76 -1.44,1.22 -0.05,0.47 2.17,-1.89 1.07,-4.36 1.48,-2.04 -0.02,-0.95 -1.09,-1.22 -0.01,-2.46 3.28,-0.95 1.54,1.07 1.41,-0.58 2.44,0.85 0.69,1.13 0.89,3.04 1.02,0.75 0.87,-0.29 1.43,-1.26 1.62,-0.05 0.47,0.94 2.06,0.52 2.81,3.37 0.34,-0.04 0.23,-0.82 1.33,0.07 0.73,-0.65 1.42,0.96 1.49,-0.12 1.05,-0.78 0.69,0.64 0.28,-0.48 0.38,0.07 1.16,1.49 1.68,0.77 0.73,-0.44 0.23,-0.91 1.09,-0.65 0.08,-0.7 0.84,-0.65 0.23,-1.12 0.5,-0.48 1.5,0.31 3.38,-0.57 0.29,-0.63 -0.74,-0.85 0.24,-0.55 3.1,-0.42 5.26,-2.41 2.78,0.07 3.28,1.25 1.1,1.11 1.15,3.2 -0.27,2.93 0.54,1.8 0.3,3.38 -0.56,0.36 -0.56,-0.95 -0.42,0.93 -0.64,0.12 -2,-2.04 -1.9,-0.56 -1.49,0.24 0.29,0.42 2.59,0.06 2.98,3.14 0.31,2.24 -0.37,0.99 -0.02,1.54 -1.08,1.09 -0.21,2.08 0.8,0.97 -2.31,2.76 -1.56,0.62 -0.19,2.17 -0.45,0.76 -2.85,1.56 -1.35,1.34 -0.09,0.94 0.32,0.68 2.62,0.73 -0.41,2.01 0.23,0.78 1.36,1.84 2.48,1 0.1,1.24 0.53,0.36 1.78,-0.45 2.5,0.17 0.34,-0.27 -0.15,-0.97 -1,-1.92 1.3,-5.37 0.56,0 0.34,0.57 2.77,1.38 0.69,4.04 2.77,7.72 0.37,4.68 0.89,3.29 -1.09,-0.68 -0.08,-0.78 -1.05,0.1 0.02,0.34 1.46,1.34 1.01,0.33 0.36,0.68 -0.23,2.04 1,4.16 -0.2,0.45 0.58,0.51 0.59,0.04 -0.16,0.98 0.3,0.54 -0.7,1.64 -1.22,-0.66 -0.81,0.07 -0.88,-0.77 -1.49,0.45 -1.15,1.63 -0.82,0.41 -1.49,2.27 -1,-0.32 -3.57,0.78 -2.46,5.66 -2.83,-0.35 -0.11,0.4 0.72,0.01 0.36,0.68 1.3,-0.36 0.13,1.85 -0.82,2.59 -0.53,-0.06 -1.71,4 -0.44,-0.37 -2.88,0.04 -0.21,0.78 -1.64,1.21 -0.49,1.36 -1.05,0.91 0.04,0.84 -1.03,1.44 -0.33,1.81 -0.46,6.29 0.2,3.25 -0.29,0.92 0.56,1.6 0.58,4.2 1.56,4.02 0.67,3.87 -0.1,1.26 1.59,3.88 2.38,7.5 2.38,5.12 5.96,8.53 2.14,2.21 -0.12,0.22 -0.87,-0.24 -2.52,-2.09 -3.4,-5.57 -3.62,-4.76 -1.16,-0.43 -1.05,0.53 0,0 -3.46,-0.68 -1.09,0.36 -1.03,0.85 -0.67,-0.4 -0.54,-0.86 0.05,-1.71 -1.25,-1.87 0.38,-2.63 -0.91,-1.37 -0.91,-0.07 -1.41,1.24 -1.24,-0.74 -1.27,0.3 0.03,0.88 -2.19,0.65 -0.33,-0.48 -1.15,0.16 -0.33,-0.61 -0.36,0.04 -1.33,1.47 -1.04,-0.11 -0.79,0.68 -2,0.4 -0.85,0.58 -0.97,-0.51 -1.2,-1.81 -0.6,-2.2 0.68,-0.41 -0.12,-0.69 -1.19,0.22 -0.52,-0.57 -1.13,0.72 -1.87,0.48 -3.71,-0.92 -1.34,0.32 -1.26,-0.77 -0.53,0.29 -0.86,-0.55 -0.57,0.12 -0.6,-0.74 -0.98,0.03 -1.66,-0.83 -4.8,-8.02 -1.46,-1.37 -7.67,-3.9 -4.77,-1.74 -0.93,-0.8 -0.98,-1.67 -0.08,-2.23 0.5,-3.08 -0.04,-0.71 -0.74,-1.31 -6.76,-2.81 -4.24,-2.57 -3.85,-2.88 -6.85,-1.76 -1.72,-1.22 -0.54,-1.42 -0.06,-4.26 -0.96,-4.46 -0.02,-3.67 0.85,-3.5 2.9,-4.82 0.25,-2.56 -0.57,-1.49 -2.95,-3.7 -0.42,-1.12 0.09,-2.32 1.19,-3.57 -0.02,-1.2 -0.73,-0.61 -1.48,0.12 -0.58,-0.7 -2.18,-6.07 -1.02,-4.65 0,0 6.93,-0.23 0.48,-1.94 -2.39,-2.91 -0.57,-2.8 -5.51,-2.68 -10.75,-4.21 -1.76,-1.37 -0.96,-1.3 -1.47,-12.53 -3.27,-5.44 -1.72,-5.2 -0.34,-2.7 -0.95,-2.69 -0.06,-1.28 1.71,-2.86 0.01,-1.15 -2.82,-3.92 -1.87,-3.96 -1.95,-1.44 -1.43,-2.1 -1.52,-2.85 -0.92,-3.04 0.03,-1.36 1.56,-2.64 1.16,-1.1 -0.1,-1.84 1.39,-0.86 -1.58,-0.99 -1.82,-0.5 -1.1,-0.99 -2,-4.18 -0.65,-3 -1.19,-0.65 -0.47,-2.7 -4.24,-3.49 -1.64,-2.49 -0.74,-1.91 -0.46,-0.15 0,0 -1.38,-0.54 -0.47,-0.69 0.11,-4.26 -1.81,-5.55 -0.97,-1.31 -1.71,-1.08 -1.69,-2.13 -1.93,-1.17 -0.99,-0.24 -4.63,2.05 -0.43,0.46 0,0 -2.41,-2.36 -2.5,-0.08 -2.78,0.6 -0.05,-2.81 -0.33,-1.28 -1,-1.28 -0.67,-2.64 0.67,-1.36 0.5,-3.83 -0.42,-1.62 -1.92,-2.55 -0.83,-1.79 1.67,-2.64 0.83,-2.55 1.09,-1.96 1.25,-0.09 1.5,3.41 0.75,-2.04 0.25,-3.57 1.17,-1.11 1.84,-1.02 2.84,-3.32 -0.46,-1.22 z" 
                fill="rgb(151, 144, 238)" 
                stroke="white" 
                stroke-width=".7px"
                title="Atlántico Sur" 
                id="NI-AS" 
            />
        </svg>