<svg xmlns="http://www.w3.org/2000/svg" viewBox="204.85550000000003 275.858 122.19000000000003 91.17999999999995" width="122.19000000000003" height="91.17999999999995">
            <path 
                d="m 311.1455,278.368 0.43,-0.45 4.62,-2.06 1,0.24 1.92,1.18 1.69,2.13 1.72,1.08 0.96,1.31 1.81,5.55 -0.11,4.26 0.47,0.69 1.39,0.54 0,0 -5.18,8.78 -1.96,2.72 -0.68,2.35 0.09,3.86 -0.36,1.94 -5.07,6.97 -3.2,0.69 -1.89,1.57 -0.82,-0.09 -1.85,-1.42 -4.15,1.53 -2.42,1.46 -3.78,4.27 -6.48,4.04 -1.22,-0.27 -0.92,-0.85 -2.02,1.58 -10.67,1.74 -3.74,0.19 -1,-1.07 -0.8,-0.12 -2.12,1.16 -2.18,-0.87 -2.07,0.48 -3.14,-0.1 -1.52,0.17 -2.75,1.21 -1.81,2.08 -0.96,2.07 -1.06,7.69 -3.97,2.31 -0.72,1.21 -0.45,2.14 0.4,1.63 -0.12,0.92 -2.54,4.2 -0.64,1.74 -1.23,1.58 0.86,4.71 0,0 -3.16,-0.91 -1.1,-1.9 -0.04,-1.1 -2.17,0.42 -2.1,-0.41 -2.44,-1.27 -1.61,-2.02 -0.66,-0.05 -0.09,0.72 -0.43,0.14 -0.25,-0.49 0,0 -0.08,-1.58 -0.4,-0.47 -1.65,-0.44 -1.9,-1.17 -1.7,0.07 -1.15,-0.46 -0.43,-0.78 -0.01,-2.9 0.67,-0.77 -1.01,-1.32 0,0 -0.27,-1.99 0.2,-0.56 0.96,-0.53 -0.75,-1.16 2.51,-3.97 -9.38,-7.6 -2.9,-3.44 0.88,-3.54 1.29,-1.16 -1.08,-0.95 -0.34,-1.55 -2.23,-1.22 -2.55,-4.18 -1.38,-0.99 -0.45,-1.52 0.68,-0.62 -1.53,-2.82 0.02,-0.42 0.88,-0.27 -0.36,-0.78 1.08,-1.45 0,0 0.86,-0.5 1.47,-1.95 2.08,-1.48 4.13,-1.51 1.7,-1.27 0.6,-1.09 0.21,-1.51 -0.53,-3.19 1.02,-0.4 5.3,-0.68 7.54,-0.12 3.65,-0.62 3.21,-1.4 1.96,-0.42 1.47,0.19 1.47,0.75 1.15,-0.01 0.82,0.56 0.49,0.03 0.54,-0.52 1.42,0.49 0.39,-0.92 1.69,-0.41 0.71,-0.58 0.51,-0.16 1.32,0.57 0.38,-0.66 1.1,-0.61 2.4,-0.01 0.67,-0.71 0.89,-2.2 1.18,-0.73 2.17,-0.38 1.38,0.38 1.52,-1.02 3.41,0.7 1.94,1.65 1.01,0.28 1.44,-1.8 1.62,-0.64 1.1,-1.4 1.61,-0.51 2.34,1.51 1.84,0.74 1.08,2.8 1.21,-1.08 2.72,0.28 0.49,0.2 0.93,1.4 4.48,1 0.36,0.6 -0.96,1.88 0.41,0.26 2.52,0.16 0.68,-1.13 0.43,0.07 1.47,1.55 1.97,3.61 0.55,0.18 1.02,-0.86 0.66,-0.11 3.14,0.33 0.66,-0.77 0.14,-0.76 -0.15,-2.28 0.35,-0.25 1.41,0.61 0.78,-0.05 0.66,-0.89 0.1,-1.11 -0.93,-2.96 1.01,-0.96 0.72,-1.57 2.23,-2 0.04,-1.22 -0.92,-1.09 -0.16,-0.69 1.19,-0.66 -0.25,-1.5 z" 
                fill="rgb(151, 144, 238)" 
                stroke="white" 
                stroke-width=".7px"
                title="Boaco" 
                id="NI-BO" 
            />
        </svg>