<svg xmlns="http://www.w3.org/2000/svg" viewBox="150.06550000000007 377.518 42.299999999999955 52.930000000000064" width="42.299999999999955" height="52.930000000000064">
            <path 
                d="m 169.0855,377.518 4.04,2.08 6.35,1.89 1.18,2.68 3.34,1.49 0.18,0.17 -1.22,1.59 0.22,1.42 -0.66,0.81 1.54,0.25 -0.48,1.3 3.23,0.13 1.4,0.68 2.26,0.31 0.55,-0.37 0.55,0.24 0.8,1.31 0,0 -0.45,0.73 -0.71,-0.13 0.24,2.31 -0.92,0.68 1.04,1.48 -0.31,0.75 0.86,1.92 -0.61,1.48 -0.48,0.33 0.54,2.02 -0.28,1.25 -0.88,0.84 -2.83,0.28 -0.46,0.9 0.58,3.73 -0.7,3.3 1.46,1.93 1.09,2.41 0,0 -3.98,4.1 -0.48,1.89 -0.82,0.65 0.19,0.99 -0.72,0.81 -0.02,0.94 -1.87,1.36 0,0 -2.71,-2.19 -1.45,-1.64 -3.65,-1.9 -1.45,-1.63 -3.33,-1.2 -7.98,-4.78 -0.38,-0.98 -1.06,-0.82 -2.81,-3.66 -3.68,-3.38 -1.81,-0.85 -1.47,-1.21 0,0 1.47,-0.95 0.22,-0.68 -1.46,-3.46 0.57,-1.17 2.14,-1.81 2.85,-1.03 2.43,-2.76 0.97,-2.94 z" 
                fill="rgb(151, 144, 238)" 
                stroke="white" 
                stroke-width=".7px"
                title="Carazo" 
                id="NI-CA" 
            />
        </svg>