<svg xmlns="http://www.w3.org/2000/svg" viewBox="0.2755036000000196 211.97799999999987 124.0299964 113.27000000000018" width="124.0299964" height="113.27000000000018">
            <path 
                d="m 62.505504,315.108 1.38,1.35 0.28,1.1 1.21,0.2 1.64,1.2 5.09,2.19 0.37,-0.41 0,0 0.22,0.73 1.73,1.17 2.11,2.61 0,0 -2.33,-0.84 -7.87,-5.57 -2,-0.82 -2.86,-1.92 0.41,-0.47 0.53,0.29 -0.38,-0.75 0.16,-0.25 0.31,0.19 z m -19.96,-57.23 -5.15,-0.22 -1.29,-0.65 -0.33,-0.9 4.03,-2.77 3.26,-1.12 1.51,-0.87 5.59,0.83 2.04,1.38 -0.33,0.39 -2.59,0.81 -1.77,0.97 -1.42,1.81 -3.55,0.34 z m 69.179996,-41.4 1.51,0.11 0,0 1.28,0.51 1.92,-0.55 0.66,0.39 1.11,3.89 -1.22,3.27 0.23,0.59 0,0 -1.72,1.71 -1.94,4.23 0.02,3.87 1.05,3.19 0,0 0.82,2.7 1.42,2.31 0.51,3.98 2.03,2.13 3.37,5.94 -0.69,2.49 0,3.21 2.22,8.66 -0.56,3.51 -1.48,3.27 -1.05,1.31 -2.57,1.57 -4.04,-0.08 -3.81,0.43 -2.31,0.75 -2.22,-0.06 -0.87,0.45 -0.57,0.95 0.24,3.05 -0.65,1.53 -1.5,0.86 -1.78,1.82 -2.929996,0.85 -4.36,6.46 -3.36,2.27 -0.24,7.54 -1.09,2.21 -5.07,3.17 -5.25,2.13 -2.72,2.29 -3.71,0.68 -1.02,-0.33 -2.39,0.88 0,0 -0.95,0.26 -0.81,-0.22 -0.54,0.31 -1.37,-1.09 0.03,-0.31 1.14,-0.46 -1.74,-0.66 -0.4,-0.51 -1.24,-2.62 0.04,-1.06 -0.38,-1.8 -0.51,0 -0.06,1.04 -1.57,-0.51 -0.37,0.19 1.71,1.46 0.7,1.59 0.1,1.03 -0.25,0.63 -0.43,0.04 -0.64,-0.49 -2.59,-3.86 -1.83,-1.79 -0.94,-1.91 -3.74,-3.12 -3.69,-1.75 3.24,0.12 0.56,-1.19 -3.56,0.17 -1.02,-1.46 -0.28,0.28 -0.83,-0.16 -1.16,-0.73 -0.39,0.32 0.2,0.24 2.13,1.4 0.14,0.3 -0.54,0.3 -4.36,-3.4 1.75,0.32 0.27,-0.39 0.04,-0.88 -0.88,-1.05 0.01,-1.03 1.28,-0.63 0.96,-1 -0.16,-0.32 -0.62,0.39 -0.1,-0.26 -0.25,-1.77 0.35,-1.13 -0.7,0.49 0.09,1.88 -0.31,0.74 -1.85,1.77 -0.43,2.4 -2.62,-1.89 -0.15,-0.44 0.37,-0.63 -0.93,-0.86 -0.77,-2.34 -1.99,-2.64 -1.56,-1.19 -3.14,-1.59 0.04,-0.35 0.8,-0.1 -0.09,-0.46 -6.62,-4.94 0.68,-0.45 1.92,0.86 0.46,0.82 2.41,0.46 0.74,-0.34 -0.4,-0.42 -1.61,-0.48 -1.13,-1.24 -0.01,-1.24 1.22,-1.33 -0.12,-0.53 -2.46,1.1 -1.02,-1.62 -0.71,-0.37 0.13,-1.01 -1.02,0.61 -0.26,-0.21 -1.43,-2.82 0.76,-1.03 -1.02,-0.21 0.09,-0.83 0.85,-1.45 -0.3,-0.87 -0.37,-0.04 -0.38,0.49 -0.37,-0.4 -0.35,0.54 -1.33,0.07 -1.24,0.68 -1.36,-0.05 -0.83,1.07 0.45,0.39 0.92,-0.76 1.93,1.62 -0.18,2.22 2.02,0.71 1.08,1.92 1.73,1.45 0.37,1.19 -0.37,0.67 -4.43,-3.83 -15.2900004,-9.37 -4.69,-4.09 -0.39,-2.08 0.56,-0.39 -0.31,-0.87 1.33,-3.71 1.35,-1.43 0.56,-1.66 4,-1.71 2.23,-2.19 1.5000004,-2.61 1.02,-3.54 0.68,-1.24 0.68,-0.51 0.39,0.51 -0.28,0.93 -0.59,0.28 -0.06,1.13 -0.71,1.55 1.69,-0.47 2.08,0.37 4.75,3.39 3.71,3.78 1.35,2.87 -1.29,-0.31 -0.34,0.31 -0.2,1.35 2.44,2.93 1.72,0.26 2.98,1.41 2.98,0.72 1.1,-0.54 2.09,-0.18 1.68,3.94 0.34,-0.49 -0.04,-0.99 -0.87,-2.45 2.62,-0.13 0.9,0.55 0.06,0.89 2.44,1.16 -0.09,0.77 0.98,1.82 0.67,-0.11 -0.82,-1.35 0.18,-0.56 -0.45,-0.58 0.1,-0.58 -2.5,-1.17 0.89,-1.44 1.54,-0.54 1.07,0.02 3.28,3.39 2.18,-0.26 1.64,-1.04 2.16,-0.11 1.07,1.95 1.13,0.16 1.52,-0.51 1,0.26 2.21,3.56 3.94,2.13 2.23,0.83 0.74,-0.82 0.1,-2.13 0.3,-0.43 3.96,0.47 0.28,-0.1 -0.21,-0.47 -0.81,-0.56 -1.83,0.42 -1.32,-0.22 -0.59,0.43 -0.67,1.79 -1.2,0.46 -4.42,-2.07 -0.65,-1.65 -1.61,-2.18 -3.55,-0.32 -1.22,-2.19 0.62,-1.85 0.5,-0.47 1.23,0.25 1.33,1.06 2.34,0.5 1.2,-0.36 0.52,-0.76 -0.13,-0.34 -1.8,0.65 -0.79,-0.11 -2.27,-1.2 -1.86,-0.4 -0.85,0.32 -0.31,2.27 -0.61,0.71 -4.18,1.84 -1.3,-0.1 -0.53,-1.31 -1.91,-1.78 -0.24,-0.89 0.78,-0.97 4.15,-1.6 0.78,-1.14 -3.29,-2.11 19.03,-1.6 4.5,-0.03 2.23,0.17 2.15,1.54 2.53,-0.52 0.7,-2.11 1.15,0.43 2.6,-1.9 1.6,0.29 -0.03,-0.53 2.23,-1.48 0.77,-3.26 4.1,-3.73 -1.79,-3.89 1.19,-1.54 -0.31,-0.96 0.92,-0.49 -1.23,-3.09 -0.05,-1.41 1.51,-2.54 0.01,-1.53 0.65,-0.84 0.68,-2.93 -0.31,-1.24 3.72,-2.27 0.76,-1.68 0.72,-0.68 5.449996,-1.49 2.82,1.56 4,2.94 z" 
                fill="rgb(151, 144, 238)" 
                stroke="white" 
                stroke-width=".7px"
                title="Chinandega" 
                id="NI-CI" 
            />
        </svg>