<svg xmlns="http://www.w3.org/2000/svg" viewBox="242.05549999999994 292.87799999999993 135.43 125.56000000000006" width="135.43" height="125.56000000000006">
            <path 
                d="m 309.9455,416.708 -0.49,0.59 0.17,1.14 -0.38,0 -1.57,-4.5 -2.54,-1.43 -0.02,-2.4 -1.44,-1.74 -0.54,-0.24 -0.85,0.69 -0.57,-0.85 -0.56,-0.15 0.05,-1.37 -1.03,-0.89 -0.28,-1.67 -0.88,-1.19 -1.06,-0.75 -1.05,-0.24 -1.93,0.07 -1.91,-1.41 -2.34,-0.59 -2.66,-2.85 -2.51,-3.76 -1.75,-1.79 -3.12,-1.78 -1.41,-1.22 0,0 -0.87,-0.47 -1.68,-0.05 0,0 -1.78,-0.18 -3.14,-1.3 -0.45,0.24 -0.31,1.37 -0.39,0.3 -2.74,-2.23 -1.5,0.02 -1.12,-1.17 -5.72,-9.34 -5.03,-5.45 0,0 -1.9,-1.24 0,0 -2.36,-0.47 -1.77,0.97 0,0 -0.98,0.26 0,0 -1.1,-0.22 -0.83,0.64 -1.76,-1.14 0.98,-0.43 0.05,-0.61 -1.96,-0.82 0,0 -0.86,-4.71 1.23,-1.58 0.64,-1.74 2.54,-4.2 0.12,-0.92 -0.4,-1.62 0.45,-2.14 0.72,-1.21 3.97,-2.31 1.06,-7.69 0.96,-2.07 1.81,-2.08 2.75,-1.21 1.53,-0.17 3.13,0.1 2.08,-0.48 2.17,0.87 2.12,-1.15 0.81,0.12 0.99,1.07 3.75,-0.19 10.66,-1.74 2.03,-1.58 0.92,0.85 1.22,0.27 6.48,-4.04 3.79,-4.27 2.42,-1.46 4.15,-1.53 1.85,1.42 0.82,0.09 1.89,-1.57 3.2,-0.68 5.07,-6.97 0.36,-1.94 -0.09,-3.87 0.68,-2.35 1.96,-2.72 5.18,-8.78 0,0 0.46,0.15 0.74,1.91 1.64,2.49 4.24,3.49 0.47,2.7 1.19,0.65 0.65,3 2,4.18 1.1,0.99 1.83,0.5 1.58,1 -1.39,0.87 0.11,1.84 -1.16,1.1 -1.56,2.64 -0.03,1.37 0.92,3.04 1.52,2.85 1.43,2.1 1.95,1.44 1.87,3.96 2.82,3.92 -0.01,1.15 -1.71,2.86 0.06,1.28 0.95,2.69 0.34,2.71 1.72,5.2 3.27,5.44 1.47,12.53 0.96,1.3 1.76,1.37 10.75,4.21 5.51,2.69 0.57,2.8 2.39,2.91 -0.48,1.94 -6.93,0.23 0,0 -4.07,-0.13 -5.12,-1.24 -2.43,0.39 -1.11,-0.37 -2.59,-0.1 -3.63,1.29 -3.05,-0.02 -3.2,1.1 -7.15,3.84 -2.03,2.65 -1.08,0.12 -0.94,0.56 -0.99,-0.18 -0.92,0.97 -4.17,1.26 -0.63,1.85 -1.3,0.67 0.55,2.05 -0.98,0.82 -0.16,0.57 -2,0.32 -1.48,2.65 -1.14,0.18 -0.55,1.05 -1.31,-0.87 -1.43,-0.2 0.01,0.65 -0.61,0.08 0,1.01 -2.01,1.65 -2.87,0.49 -0.26,1.45 -0.98,0.71 0.09,0.8 -0.59,0.26 z" 
                fill="rgb(151, 144, 238)" 
                stroke="white" 
                stroke-width=".7px"
                title="Chontales" 
                id="NI-CO" 
            />
        </svg>