<svg xmlns="http://www.w3.org/2000/svg" viewBox="113.5455 196.538 76.48999999999998 71.43" width="76.48999999999998" height="71.43">
            <path 
                d="m 117.2055,224.698 1.26,-0.81 9.85,-9.9 3.17,-7.2 4.44,-7.69 1.23,-1.54 1.11,-0.63 2.66,-0.11 5.93,1.91 2.84,1.29 1.26,0.15 16.15,-3.63 4.94,0.33 2.39,0.93 2.21,4.42 0,0 -0.09,1.11 -1.36,1.59 0.4,1.03 -0.69,0.57 0.48,1.2 -1.03,1.72 0.94,5.23 -0.15,2.83 0.56,1.61 -1.92,0.81 0.82,1.54 -0.09,0.6 -2.76,4.64 -0.05,0.68 1.37,1.85 2.23,1.41 0.27,1.13 1.26,2.04 4.13,4.11 4.27,2.24 4.15,1.64 0.65,1.5 -0.14,2.34 0,0 -0.46,0.54 -1.47,0.32 -0.82,1.37 -1.37,0.6 0.65,1.46 -2.17,5.32 -1.08,1.32 -2.12,0.75 -3.3,0.49 -6.22,3.55 -1.03,6.5 0,0 -2.39,0.11 -7.26,-1.57 -7.78,-3.39 -1.59,-1.47 -0.55,-0.96 -0.26,-1.8 2.65,-5.56 0.85,-4.87 -1.71,-2.65 -2.82,-3.22 -2.12,-4.81 -1.54,-1.51 -7.72,-0.95 -1.66,0.17 -4.72,1.33 -3.98,2.58 -2.37,0.75 -1.81,-0.3 -2.4,-1.89 -1.3,-0.48 -2.27,-0.2 -2.03,0.58 -1.11,-0.06 0,0 -1.05,-3.18 -0.02,-3.88 1.94,-4.22 z" 
                fill="rgb(151, 144, 238)" 
                stroke="white" 
                stroke-width=".7px"
                title="Estelí" 
                id="NI-ES" 
            />
        </svg>