<svg xmlns="http://www.w3.org/2000/svg" viewBox="187.03549999999998 348.3680000000001 41.84000000000006 71.80999999999989" width="41.84000000000006" height="71.80999999999989">
            <path 
                d="m 221.4755,402.008 0.46,0.6 0.99,0.32 3.11,0.06 0.23,-1.04 1.01,0.34 0.74,1.09 -0.03,1.8 0.89,1.35 -0.29,2.17 -1.72,0.63 -5.57,-0.75 -2.12,1.14 -0.91,-0.03 -0.35,-0.43 0.32,-1.34 0.32,0.04 0.33,0.78 0.62,-0.17 -0.04,-0.43 -0.66,-1.11 -1.48,-1.19 0.73,-0.5 0.07,-0.55 1.23,-1.23 -0.28,-1.27 1,-0.01 0.65,-0.65 0.75,0.38 z m -14.35,-36.94 1.26,-2.4 -0.43,-1.46 0.35,-0.8 4.98,0.18 2.65,-0.8 0.36,0.12 -0.37,1.07 1.45,-0.04 0.48,0.36 0.05,0.94 -4.17,6.93 -2.83,6.48 -0.25,2.58 -0.06,3.15 0.75,2.42 0.61,0.53 1.37,-0.37 1.96,0.82 1.45,2.54 -0.35,0.83 -0.65,-0.12 -1.3,-1.35 -1.39,-0.67 -0.66,0.17 -0.2,0.53 0.42,3.1 0.34,0.29 0.37,-0.44 0.63,0.49 1.32,2.57 0.52,2.24 1.12,1.32 0.34,1.51 -1.06,1.29 0.83,2.52 -0.12,0.92 -0.77,0.68 -0.53,1.15 -1.23,-0.17 -0.22,0.56 -1.74,1.47 0.7,1.05 -0.26,1.59 1.1,1.58 1.37,0.24 0.17,0.36 -0.43,0.59 0,0 -2.23,1.48 -3.1,0.36 -1.96,0.63 -0.33,0.68 -1.88,-0.15 -1.66,-0.81 -1.17,0.2 -1.46,1.07 -0.95,2.49 -0.98,0.66 -4.27,0.46 -2.09,1.49 -1.8,-0.65 -1.59,0.17 0,0 -1.09,-2.41 -1.46,-1.94 0.7,-3.3 -0.58,-3.73 0.46,-0.9 2.83,-0.28 0.88,-0.84 0.28,-1.25 -0.55,-2.02 0.48,-0.33 0.61,-1.49 -0.85,-1.92 0.31,-0.74 -1.04,-1.49 0.92,-0.68 -0.24,-2.31 0.72,0.14 0.44,-0.73 0,0 2.11,-6.22 2.81,-4.07 0.38,-2.69 1.01,-0.59 1.75,-0.27 0.83,-1.8 5.54,-7.19 0.29,-5.58 z m -4.83,-9.52 2.3,-0.02 2.48,-1.08 5.34,-1.59 1.48,-1.07 0.56,-0.77 0.21,-1.33 1.61,-1.32 0.49,0.4 1.77,0.03 0.59,0.84 2.08,0.72 0,0 1.01,1.32 -0.67,0.77 0.01,2.9 0.44,0.78 1.14,0.47 1.7,-0.07 1.9,1.17 1.65,0.44 0.4,0.47 0.09,1.58 0,0 -2.09,0.62 -0.8,0.95 -0.49,0.04 -0.67,-0.53 -0.24,0.28 0.46,0.78 -0.56,0.63 -2.5,0.68 -2.48,-0.65 -0.43,-0.55 0.03,-0.96 -1.97,-1.99 -5.17,0.36 -3.19,-0.25 -2.31,-0.69 -2.28,-1.17 0,0 -1.89,-2.19 z" 
                fill="rgb(151, 144, 238)" 
                stroke="white" 
                stroke-width=".7px"
                title="Granada" 
                id="NI-GR" 
            />
        </svg>