<svg xmlns="http://www.w3.org/2000/svg" viewBox="171.70550000000003 52.017998 172.55999999999995 199.19000199999996" width="172.55999999999995" height="199.19000199999996">
            <path 
                d="m 319.8755,52.107998 1.56,-0.09 0.63,0.91 1.92,0.88 0.42,1.54 -1.04,1.56 -0.16,1.33 -0.81,1.52 -0.03,0.87 0.92,0.78 -0.76,1.67 1.67,2.02 1.84,0.23 1.21,2.01 -0.1,1.22 -1.25,1.38 -0.52,0.15 -0.46,1.75 0.7,0.95 0.06,3.33 -0.89,0.76 -1.07,0.28 -0.2,0.74 0.34,0.76 1.28,0.72 0.64,1.99 1.56,0.89 0.86,2.02 1.26,0.23 0.61,1.51 14.2,0.84 -4.67,23.980002 1.54,7.18 -24.83,40.26 -11.78,-5.85 -16.49,10.72 -9.23,0.22 -1.43,6.72 -0.8,0.92 -2.89,1.73 -0.63,1.66 0.16,0.76 1.19,1.56 2.15,1.69 0.59,1.44 -0.71,3.37 -1.21,2.6 0.13,3.1 -1.53,2.51 -3.49,1.17 -3.69,3.28 -2.66,1.65 -1.53,1.53 -0.77,1.34 -0.12,1.19 0.74,2.2 0,0 -6.82,5.41 -5.03,0.72 -2.72,1.36 -4.57,8.44 -2.65,3.07 -5.71,5.34 -3.52,5.79 -0.92,0.59 -2.15,0.1 -1.14,0.53 -9.72,8.58 -4.73,4.87 -2.27,0.76 -4.37,-0.42 -1.98,-0.61 -0.46,0.36 0.03,2.53 -4.46,-0.23 -0.92,-3.27 -1.2,-1.32 -1.32,-0.49 -1.75,-0.16 -0.52,0.61 -1.21,-0.53 -1,0.2 -1.3,-0.38 0,0 0.14,-2.34 -0.65,-1.5 -4.15,-1.64 -4.27,-2.24 -4.13,-4.11 -1.26,-2.04 -0.27,-1.13 -2.23,-1.41 -1.37,-1.85 0.05,-0.68 2.76,-4.64 0.09,-0.6 -0.82,-1.54 1.92,-0.81 -0.56,-1.61 0.15,-2.83 -0.94,-5.23 1.03,-1.72 -0.48,-1.2 0.69,-0.57 -0.4,-1.03 1.36,-1.59 0.09,-1.11 0,0 2.63,-4.21 2.31,-1.86 6.94,0.07 4.41,-2.65 0.41,-1.46 0.63,-0.74 0.37,-1.88 1.33,-0.88 0,0 0.68,0.37 3.84,-0.38 0.6,-0.51 0.41,-1.28 0.71,-0.43 1.38,0.69 2.39,-0.12 4.77,3.23 1.06,1.68 0.36,0.24 1.05,-0.21 1.06,0.86 0.73,-0.86 0.14,-1.8 2.08,-1.43 0.66,-0.62 0.11,-0.59 1.2,0.34 0.68,-0.32 1.39,0.03 1.09,-1.18 1.1,-0.39 1.16,0.78 0.5,-1.01 -1.13,-1.66 0.48,-0.89 1.25,-0.59 0.39,-0.98 -0.39,-0.5 -0.77,0.2 -0.87,-0.29 0.29,-1.88 0.49,-0.39 0.19,-0.79 -0.1,-0.69 -1.06,-1.68 0.1,-0.88 1.45,-1.78 0,-4.73 2.89,-5.62 0.29,-1.28 -0.39,-1.78 1.35,-2.37 -1.25,-3.55 0.09,-0.79 0.97,-1.28 1.44,-0.69 1.99,-3.44 0,0 1.42,-0.97 0.58,-1.78 -0.52,-1.56 -2.64,-1.8 0.87,-3.86 -0.15,-5.56 0.63,-0.82 1.52,-0.07 0.97,-0.5 1.62,-1.79 0.86,-0.47 1.58,0.21 2.02,0.97 1.79,-1.45 0.73,-2.77 0.98,-0.27 2.54,0.45 1.25,-1.24 1.67,-0.49 1.27,-1.97 1.13,-0.09 0.67,-0.44 0.7,-2.06 1.81,-0.34 -0.06,1.61 0.65,0.48 4.02,0.22 0.41,-1.71 0.85,-0.22 0.41,-2.4 0.46,-0.59 0.56,0.91 0.67,0.12 0.28,-1.89 1.34,1.54 0.35,-1.5 1.05,0.15 0.29,-1.1 1.08,-0.55 0.29,-0.85 0.65,-0.1 0.95,1.08 0.74,-0.39 0.99,0.15 0.4,-1.1 0.85,-0.04 0.37,-0.65 1.14,-0.5 0.26,-0.93 0.74,-0.47 -0.37,-2.44 2.48,-2.4 0.2,-0.51 -0.41,-1.11 0.63,-0.78 0.13,-1.7 -0.84,-1.02 0.26,-0.710002 1.08,-0.24 0.32,1.170002 1.26,0.18 1.92,-2.270002 0.33,-1.51 1.23,-0.33 1.33,-0.9 1.2,0.01 1.28,0.7 2.19,-1.06 3.81,-0.05 1.72,0.57 1.29,-0.42 1.35,0.46 1.59,-0.52 0.61,1.11 0.62,0.06 0.4,-0.37 3.08,-5.28 -0.73,-0.9 -1.49,-0.31 -0.22,-0.31 -0.34,-2.72 -1.11,0.33 -1.32,-1.38 -0.31,-2.46 -1.89,-0.36 -0.7,-0.91 2.25,-2.81 1.36,-3.61 0.93,-1.29 1.13,-3.89 3.31,-3.49 0.66,-2.09 0.74,-0.78 -0.04,-1.85 -0.59,-1.27 0.44,-1.25 -1.25,-2.28 0.26,-0.45 1.36,-0.13 1.31,-1.09 1.52,0.72 2.32,3 0.59,0.09 1,-0.75 1.5,0.13 1.03,-1.35 1.83,-0.89 2.39,-3.65 z" 
                fill="rgb(151, 144, 238)" 
                stroke="white" 
                stroke-width=".7px"
                title="Jinotega" 
                id="NI-JI" 
            />
        </svg>