<svg xmlns="http://www.w3.org/2000/svg" viewBox="69.03550400000002 235.20799999999994 101.76999599999998 135.71999999999977" width="101.76999599999998" height="135.71999999999977">
            <path 
                d="m 145.6155,329.988 -0.26,0.08 0,0 -0.62,-1.17 0,0 -0.05,-0.9 0,0 0.79,-0.42 1.32,0.33 0.3,0.66 -0.79,0.67 0,0 -0.69,0.75 z m -31,-92.3 1.11,0.06 2.03,-0.58 2.28,0.2 1.29,0.48 2.41,1.89 1.81,0.3 2.37,-0.75 3.98,-2.58 4.72,-1.33 1.66,-0.17 7.72,0.95 1.54,1.5 2.11,4.81 2.83,3.22 1.7,2.65 -0.85,4.87 -2.65,5.55 0.26,1.8 0.55,0.96 1.59,1.47 7.78,3.39 7.26,1.57 2.39,-0.12 0,0 -0.2,4.06 0.5,4.65 -0.77,6.22 0.17,0.6 -0.66,2.08 0.12,1.8 0.54,1.68 -1.07,3.26 -0.02,2.32 0,0 -4.47,1.09 -1.6,2.27 -1.95,1.1 -0.98,2.01 -1.43,5.05 -0.52,0.68 0.61,1.13 -0.98,0.28 -0.02,0.35 1,0.35 -0.62,0.84 0.7,1.11 0,0 0.25,0.32 0,0 1.47,0.38 0.36,0.47 -0.62,0.9 0.47,0.71 -0.75,0.71 0.27,0.62 -0.26,0.22 -2.32,-0.87 -3.64,1.27 -0.28,0.39 -3.46,0.69 -2.26,1.03 -1.78,1.36 -0.88,1.3 -1.07,2.72 -1.92,1.71 -0.7,0.25 -3.42,-0.2 -5.77,-2.57 -0.5,-0.44 0.11,-0.29 0.77,-0.1 0.1,-0.35 -0.8,-1.05 -1.84,0.7 -1.72,1.62 0.2,1.03 0.71,0.92 -0.65,3.66 1.52,2.24 0.8,2.7 1.15,0.7 1.94,0.12 2.46,0.66 3,2.02 2.35,0.51 2.42,1 0,0 -4.13,3.37 0,0 -2.77,6.45 0.48,0.71 2.54,0.69 0.85,1.03 0.03,1 -0.81,1.63 0.29,1.8 -2.4,1.14 -1.08,1.7 -2.41,1.01 -1.98,1.37 -1.53,1.73 -4.33,-0.82 -2.14,1.07 -1.6,0.34 -0.6,1.32 1.39,3.52 -0.01,1.45 -3.3,2.6 0,0 -2.93,-5.6 -3.18,-4.61 -0.25,-0.62 0.26,-0.78 -1,-1.35 0.03,-1.01 -0.75,-2.05 -1.03,-0.79 0.06,-1.29 -1.53,-2.62 0.69,-0.1 -0.84,-2.28 -0.9,-0.03 -0.84,-0.9 -2.58,-1.36 -2.38,-1.89 -13.669996,-8.45 -8.91,-6.04 -0.39,-0.34 0.11,-0.39 -0.84,-0.26 -3.62,-2.93 0,0 -2.11,-2.61 -1.73,-1.17 -0.22,-0.73 0,0 -3.21,-3.13 -0.26,-0.98 0,0 2.39,-0.88 1.02,0.33 3.71,-0.68 2.72,-2.29 5.25,-2.13 5.07,-3.17 1.09,-2.21 0.24,-7.54 3.36,-2.27 4.36,-6.46 2.929996,-0.85 1.78,-1.82 1.5,-0.86 0.66,-1.53 -0.24,-3.05 0.57,-0.95 0.87,-0.45 2.22,0.07 2.31,-0.75 3.81,-0.43 4.04,0.08 2.57,-1.57 1.05,-1.31 1.47,-3.27 0.56,-3.51 -2.22,-8.66 0,-3.21 0.69,-2.49 -3.37,-5.94 -2.03,-2.13 -0.51,-3.98 -1.42,-2.31 -0.87,-2.71 z" 
                fill="rgb(151, 144, 238)" 
                stroke="white" 
                stroke-width=".7px"
                title="León" 
                id="NI-LE" 
            />
        </svg>