<svg xmlns="http://www.w3.org/2000/svg" viewBox="110.94550000000005 168.888 84.73 55.81" width="84.73" height="55.81">
            <path 
                d="m 111.6755,170.288 2.93,-1.4 3.06,0.55 4.71,0.24 2.75,0.86 1.94,1.64 0.22,3.37 0.91,1.15 3.3,1.67 1.74,-0.27 1.35,1.3 1.44,-0.33 1.56,-1.27 2.62,-0.96 2.26,-0.49 2.27,-0.03 12.33,2.26 1.17,0.9 1.92,-1 2.38,-0.1 1.37,-0.53 4.02,-3.03 1.68,-0.77 4,0.06 2.78,0.71 0.71,0.77 0.96,-0.57 2.19,0.22 1.6,-0.9 3.47,3.1 4.24,3.12 1.12,1.54 0.34,2.67 3.39,2.51 1.27,1.33 0,0 -1.33,0.88 -0.37,1.88 -0.63,0.74 -0.41,1.46 -4.41,2.65 -6.94,-0.07 -2.31,1.86 -2.63,4.21 0,0 -2.21,-4.42 -2.39,-0.93 -4.94,-0.33 -16.15,3.63 -1.26,-0.15 -2.84,-1.29 -5.93,-1.91 -2.66,0.11 -1.11,0.63 -1.23,1.54 -4.44,7.69 -3.17,7.2 -9.85,9.9 -1.26,0.81 0,0 -0.23,-0.59 1.22,-3.28 -1.11,-3.89 -0.65,-0.38 -1.92,0.54 -1.28,-0.51 0,0 1.04,-0.4 4.08,-2.98 0.47,-1.55 0.01,-2.06 -0.94,-5.47 -0.31,-0.37 -2.8,-0.93 -0.79,-1.58 0.35,-1.2 2.11,-2.77 0.03,-1.08 -0.38,-2.18 -1.44,-3.24 -1.01,-8.89 -0.64,-1.46 -1.92,-0.92 -0.15,-0.35 0.11,-1.36 1.91,-6.36 z" 
                fill="rgb(151, 144, 238)" 
                stroke="white" 
                stroke-width=".7px"
                title="Madriz" 
                id="NI-MD" 
            />
        </svg>