<svg xmlns="http://www.w3.org/2000/svg" viewBox="121.01549999999996 294.51799999999986 102.82999999999994 111.69000000000011" width="102.82999999999994" height="111.69000000000011">
            <path 
                d="m 144.3855,337.978 2.23,0.63 3.36,2.62 2.62,1.12 2.62,-2.99 2.99,-1.87 3.36,-0.37 3.37,0.37 2.61,4.86 1.13,0.75 -0.38,2.99 -1.87,1.87 -1.49,0.75 -1.13,3.74 8.61,0.37 3.73,-2.24 11.22,0 0.38,-9.72 1.49,-2.62 0,-2.24 0.75,-2.62 -2.99,-0.75 -2.62,-1.5 -2.24,0.75 -2.25,3.37 -0.74,0.37 -0.75,1.12 -2.62,0.38 0,-5.61 -2.24,-3.37 -1.5,-3.36 -2.99,-4.11 -1.12,-6.36 -2.25,-3.74 -6.61,0.49 0,0 -0.22,-0.27 0,0 -0.69,-1.11 0.62,-0.84 -1,-0.35 0.03,-0.35 0.98,-0.29 -0.61,-1.13 0.52,-0.67 1.42,-5.06 0.98,-2 1.95,-1.1 1.6,-2.27 4.47,-1.1 0,0 2.35,0.81 4.02,-0.28 4.11,1.04 2.04,1.06 2.76,2.49 0.92,-0.02 1.54,-0.69 2.05,0.55 2.51,1.66 3.89,4.03 2.26,0.79 4.38,2.26 4.53,1.41 0,0 -1.08,1.45 0.36,0.78 -0.88,0.27 -0.02,0.42 1.53,2.82 -0.68,0.62 0.45,1.52 1.38,0.99 2.55,4.18 2.23,1.22 0.34,1.55 1.08,0.95 -1.29,1.16 -0.88,3.54 2.9,3.44 9.38,7.6 -2.51,3.97 0.75,1.16 -0.96,0.53 -0.2,0.56 0.27,1.99 0,0 -2.07,-0.72 -0.59,-0.84 -1.77,-0.03 -0.48,-0.4 -1.61,1.32 -0.21,1.33 -0.56,0.77 -1.48,1.07 -5.35,1.6 -2.48,1.08 -2.3,0.02 0,0 0,0 0,0 -3.61,-1.13 -1.38,0.31 -2.34,1.44 -1.26,0.26 -2.3,-0.19 -2.45,0.68 -2.38,3.2 -3.51,1.13 -3.8,5.32 4.07,4.47 -2.13,3.57 -5.26,2.33 -4.09,-3.66 -2.77,4.24 0,0 -9.83,13.89 -0.97,2.94 -2.43,2.76 -2.85,1.03 -2.14,1.81 -0.57,1.17 1.46,3.46 -0.22,0.68 -1.47,0.95 0,0 -5.04,-3.48 -4.09,-3.72 -0.39,-2.22 -1.72,-3.2 -4.54,-5.47 -4.85,-4.03 -0.7,-1.69 -0.18,-1.74 -1.92,-3.34 -3.49,-3.52 -0.08,-0.59 -1.43,-0.85 -0.62,-1.41 0,0 3.3,-2.59 0.01,-1.45 -1.39,-3.52 0.6,-1.32 1.6,-0.34 2.14,-1.07 4.34,0.82 1.53,-1.72 1.98,-1.37 2.4,-1.01 1.09,-1.7 2.4,-1.14 -0.29,-1.8 0.81,-1.63 -0.03,-1 -0.85,-1.03 -2.54,-0.7 -0.48,-0.7 2.77,-6.45 0,0 z" 
                fill="rgb(151, 144, 238)" 
                stroke="white" 
                stroke-width=".7px"
                title="Managua" 
                id="NI-MN" 
            />
        </svg>