<svg xmlns="http://www.w3.org/2000/svg" viewBox="169.0854999999999 354.41800000000006 38.37000000000006 39.079999999999984" width="38.37000000000006" height="39.079999999999984">
            <path 
                d="m 202.2955,355.548 1.85,2.17 0,0 0.67,0.79 -0.13,0.51 0.63,1.05 -0.15,2.16 0.54,0.38 1.52,-0.2 0.23,0.24 -1.49,1.7 0.22,0.89 0.94,-0.17 0,0 -0.34,5.61 -5.54,7.18 -0.83,1.81 -1.75,0.26 -1,0.59 -0.38,2.69 -2.81,4.07 -2.11,6.22 0,0 -0.8,-1.31 -0.55,-0.24 -0.55,0.37 -2.26,-0.31 -1.4,-0.68 -3.23,-0.13 0.48,-1.3 -1.54,-0.25 0.66,-0.81 -0.22,-1.42 1.22,-1.59 -0.18,-0.17 -3.34,-1.49 -1.18,-2.68 -6.35,-1.89 -4.04,-2.08 0,0 2.77,-4.24 4.09,3.66 5.26,-2.33 2.13,-3.57 -4.07,-4.47 3.8,-5.32 3.51,-1.13 2.38,-3.2 2.45,-0.68 2.3,0.19 1.26,-0.26 2.34,-1.44 1.38,-0.31 z" 
                fill="rgb(151, 144, 238)" 
                stroke="white" 
                stroke-width=".7px"
                title="Masaya" 
                id="NI-MS" 
            />
        </svg>