<svg xmlns="http://www.w3.org/2000/svg" viewBox="169.11549999999997 203.788 147.21000000000006 105.83999999999997" width="147.21000000000006" height="105.83999999999997">
            <path 
                d="m 262.3055,203.788 0.8,1.63 0.35,2.17 1.16,2.81 3.6,4.53 1.76,1.23 1.73,3.22 2.89,1.46 0.86,2.08 1.76,2.3 2.79,1.91 1.77,-0.2 1.07,-0.82 0.51,0.23 0.76,1.1 1.32,0.77 0.92,1.34 1.89,0.4 1,2.28 1.42,0.34 0.67,1.21 1.02,0.1 1.23,0.95 0.81,-0.07 0.78,-1.56 0.47,-0.27 2.18,-0.03 1.23,-1.72 1.53,0.23 1.63,-1.66 1.93,2.6 0.33,-0.43 0.25,-2.64 2.59,-0.17 0.92,1.53 0.83,0.43 0.42,-1.96 1.25,-1.11 2.59,-0.76 2.5,0.17 0.5,0.68 -0.08,1.02 -1.58,2.47 0.41,1.02 -0.58,0.86 -3.76,1.87 -0.75,1.7 0,1.03 0.5,1.19 1.25,1.11 0.75,1.36 0,0 0.09,0.76 -2.84,3.33 -1.84,1.02 -1.17,1.1 -0.25,3.58 -0.75,2.04 -1.5,-3.4 -1.25,0.08 -1.09,1.96 -0.83,2.55 -1.67,2.64 0.83,1.79 1.92,2.55 0.42,1.62 -0.5,3.83 -0.67,1.36 0.67,2.64 1,1.27 0.33,1.28 0.06,2.81 2.78,-0.6 2.51,0.08 2.41,2.36 0,0 -1.45,2.69 0.25,1.5 -1.19,0.66 0.16,0.69 0.92,1.09 -0.04,1.22 -2.23,2 -0.72,1.57 -1.01,0.96 0.93,2.96 -0.1,1.11 -0.66,0.89 -0.78,0.05 -1.41,-0.61 -0.35,0.25 0.15,2.28 -0.14,0.76 -0.66,0.77 -3.14,-0.33 -0.66,0.11 -1.02,0.86 -0.55,-0.18 -1.97,-3.61 -1.47,-1.55 -0.43,-0.07 -0.68,1.13 -2.52,-0.16 -0.41,-0.26 0.96,-1.88 -0.36,-0.6 -4.48,-1 -0.93,-1.4 -0.49,-0.2 -2.72,-0.28 -1.21,1.08 -1.08,-2.8 -1.84,-0.74 -2.34,-1.51 -1.61,0.51 -1.1,1.4 -1.62,0.64 -1.44,1.8 -1.01,-0.28 -1.94,-1.65 -3.41,-0.7 -1.52,1.02 -1.38,-0.38 -2.17,0.38 -1.18,0.73 -0.89,2.2 -0.67,0.71 -2.4,0.01 -1.1,0.61 -0.38,0.66 -1.32,-0.57 -0.51,0.16 -0.71,0.58 -1.69,0.41 -0.39,0.92 -1.42,-0.49 -0.54,0.52 -0.49,-0.03 -0.82,-0.56 -1.15,0.01 -1.47,-0.75 -1.47,-0.19 -1.96,0.42 -3.21,1.4 -3.65,0.62 -7.54,0.12 -5.3,0.68 -1.02,0.4 0.53,3.19 -0.21,1.51 -0.6,1.09 -1.7,1.27 -4.13,1.51 -2.08,1.48 -1.47,1.95 -0.86,0.5 0,0 -4.53,-1.41 -4.38,-2.26 -2.26,-0.79 -3.89,-4.03 -2.51,-1.66 -2.05,-0.55 -1.54,0.69 -0.92,0.02 -2.76,-2.49 -2.04,-1.06 -4.11,-1.04 -4.02,0.28 -2.35,-0.81 0,0 0.02,-2.32 1.07,-3.26 -0.55,-1.68 -0.11,-1.8 0.65,-2.07 -0.16,-0.6 0.77,-6.22 -0.5,-4.65 0.2,-4.06 0,0 1.03,-6.5 6.22,-3.55 3.3,-0.49 2.12,-0.75 1.08,-1.32 2.17,-5.32 -0.65,-1.46 1.37,-0.6 0.82,-1.37 1.47,-0.32 0.46,-0.54 0,0 1.3,0.38 1,-0.2 1.21,0.53 0.52,-0.61 1.75,0.16 1.32,0.49 1.2,1.32 0.92,3.27 4.46,0.23 -0.03,-2.53 0.46,-0.36 1.98,0.61 4.37,0.42 2.27,-0.76 4.73,-4.87 9.72,-8.58 1.14,-0.53 2.15,-0.1 0.92,-0.59 3.52,-5.79 5.71,-5.34 2.65,-3.07 4.57,-8.44 2.72,-1.36 5.03,-0.72 z" 
                fill="rgb(151, 144, 238)" 
                stroke="white" 
                stroke-width=".7px"
                title="Matagalpa" 
                id="NI-MT" 
            />
        </svg>