<svg xmlns="http://www.w3.org/2000/svg" viewBox="108.91549999999995 117.23800000000008 123.61000000000001 75.5099999999999" width="123.61000000000001" height="75.5099999999999">
            <path 
                d="m 202.3955,117.998 0.19,1.43 -0.55,1.84 -1.39,2.62 -0.27,1.89 0.94,2.19 8.15,6.27 2.31,2.2 1,1.6 2.28,0.97 0.6,-0.44 0.18,-1.33 0.79,-0.95 2.91,0.33 1.49,0.75 0.89,1.25 -0.08,3.19 1.41,1.31 0.55,1.53 0.7,0.28 0.5,1.05 0.85,0.38 2.4,0.1 2.43,-0.66 0.93,0.32 0.92,1.25 0,0 -1.99,3.44 -1.44,0.69 -0.97,1.28 -0.09,0.79 1.25,3.55 -1.35,2.37 0.39,1.78 -0.29,1.28 -2.89,5.62 0,4.73 -1.45,1.78 -0.1,0.88 1.06,1.68 0.1,0.69 -0.19,0.79 -0.49,0.39 -0.29,1.88 0.87,0.29 0.77,-0.2 0.39,0.5 -0.39,0.98 -1.25,0.59 -0.48,0.89 1.13,1.66 -0.5,1.01 -1.16,-0.78 -1.1,0.39 -1.09,1.18 -1.39,-0.03 -0.68,0.32 -1.2,-0.34 -0.11,0.59 -0.66,0.62 -2.08,1.43 -0.14,1.8 -0.73,0.86 -1.06,-0.86 -1.05,0.21 -0.36,-0.24 -1.06,-1.68 -4.77,-3.23 -2.39,0.12 -1.38,-0.69 -0.71,0.43 -0.41,1.28 -0.6,0.51 -3.84,0.38 -0.68,-0.37 0,0 -1.27,-1.33 -3.39,-2.51 -0.34,-2.67 -1.12,-1.54 -4.24,-3.12 -3.47,-3.1 -1.6,0.9 -2.19,-0.22 -0.96,0.57 -0.71,-0.77 -2.78,-0.71 -4,-0.06 -1.68,0.77 -4.02,3.03 -1.37,0.53 -2.38,0.1 -1.92,1 -1.17,-0.9 -12.33,-2.26 -2.27,0.03 -2.26,0.49 -2.62,0.96 -1.56,1.27 -1.44,0.33 -1.35,-1.3 -1.74,0.27 -3.3,-1.67 -0.91,-1.15 -0.22,-3.37 -1.94,-1.64 -2.75,-0.86 -4.71,-0.24 -3.06,-0.55 -2.93,1.4 0,0 -2.51,-0.97 -0.25,-1.47 2.67,-6.08 0.13,-0.75 -0.76,-3.57 0.65,-2.86 2.55,-0.13 2.06,-1.28 1.09,-0.3 5.81,0.52 1.59,0.61 1.44,-0.09 1.22,-0.6 2.45,0.3 4.08,-0.94 1.96,-1.48 1.58,0.04 1.58,0.31 1.43,2.06 2.82,1.46 3.01,-0.26 2.74,-1.42 0.76,0.46 0.74,2.08 0.71,0.44 1.59,-0.37 3.06,0.32 0.84,-0.19 1.29,-1.13 0.46,0.05 0.93,1.02 1.51,0.19 0.71,-0.27 2.98,-2.38 1.01,-2.42 1.4,-1.61 0.34,-1.59 -0.52,-1.8 0.29,-0.48 2.43,-1.22 0.52,-1.67 2.85,-1.87 1.18,-2.17 1.5,-1.13 0.91,-2.02 2.41,-1.24 0.8,-1.56 1.14,-0.6 -0.49,-2.21 0.19,-0.78 0.28,-0.33 3.29,-0.5 2.55,-1.8 0.18,-0.94 -1.91,-1.48 0.17,-1.47 3.43,-1.44 2.29,-1.85 1.24,-0.58 2.46,-0.18 0.97,-0.47 3.54,0.06 2.67,-1.02 z" 
                fill="rgb(151, 144, 238)" 
                stroke="white" 
                stroke-width=".7px"
                title="Nueva Segovia" 
                id="NI-NS" 
            />
        </svg>