<svg xmlns="http://www.w3.org/2000/svg" viewBox="181.9154999999998 410.008 118.93000000000009 77.99000000000007" width="118.93000000000009" height="77.99000000000007">
            <path 
                d="m 265.7455,436.018 0.19,1.28 1.28,1.4 0.39,1.62 0.16,1.89 -0.56,2.35 -1.05,1.15 -1.69,0.76 -2.19,0.84 -1.47,0.09 -1.61,-0.33 -1.39,-0.75 -1.06,-1.52 -1.66,-1.4 -0.96,-2.85 0.65,-2.35 -0.39,-0.78 -2.38,-1.9 -1.28,-0.46 -2.6,0.06 -0.05,1.21 -1.13,0.55 -0.72,-0.78 -0.9,-0.13 -2.32,1.45 -1.1,0.12 -2.82,-1.6 -2.15,-2.01 0.15,-0.89 2.14,-3.42 0.14,-1.74 1.1,-1.02 3.53,-1.78 3.46,-1 1.65,0.05 1.28,-0.87 2.29,-0.1 2.42,1.92 0.32,0.65 0,0 0.02,0.76 0,0 -0.62,2.12 0,0 0.5,4.04 0,0 0.52,1.84 1.49,1.52 1.77,-0.21 0.94,0.35 1.96,-0.65 2.17,0.84 0.55,-0.37 0.05,-0.71 0.71,0.2 0,0 0.27,0.56 z m -50.73,-24.39 0.12,0.5 1.77,1.47 1.28,1.84 0.4,0.06 -0.01,-0.8 -0.8,-1.17 -0.51,-3.52 1.68,0.87 0.56,4.96 1.06,4.45 1.88,5.56 5.18,7.83 0.39,1.6 0.05,2.52 1.1,3.92 0.21,2.06 2.03,4.65 1.92,3.01 2.35,2.58 2.03,0.86 3.99,5.82 2.39,1.92 2.95,3.08 1.57,0.08 0.33,-0.81 0.42,-0.06 1.96,0.36 1.47,1.19 3.33,1.23 2.78,3.07 0.75,0.45 1.09,-0.03 0.76,1.06 1.95,1.51 1,0.41 1.14,-0.39 0.52,0.24 0,0 0.77,0.57 0,0 3.12,1.54 3.11,-0.12 6.56,1.07 2.51,1.33 1.75,-0.51 1.43,0.09 7.19,4.47 0.74,0.11 1.06,-0.52 2.56,1.5 2.62,0.17 0.55,-0.33 0,0 0.77,3.17 -0.38,1.45 0,0 -2.05,-0.74 -18.1,-9.07 -6.85,0.03 -12.71,-4.67 -0.64,-0.41 -3.94,-5.14 -6.12,-1.05 -1.06,0.43 -0.9,2.48 -8.68,14.47 -1.74,-0.15 -1.5,-1.35 -2.57,-0.05 -0.55,-0.9 -1.28,-0.07 -0.69,-1.04 -0.62,0.25 -0.78,-0.48 -0.23,0.36 -1.42,-1.02 -0.13,-0.76 -0.89,-0.9 0.15,-1.17 -0.13,-0.78 -0.42,-0.28 0.14,-0.56 -2.04,-3.71 -2.44,-2.76 -0.56,0.08 -0.71,-1.68 -0.59,-0.11 -1.27,-1.58 -0.59,0 -0.41,-0.84 -0.72,-0.28 -0.19,-0.87 0.48,-0.14 0.12,-0.73 -1.65,-0.32 -0.5,-0.56 0.62,-0.47 -0.11,-0.36 -1.68,-0.1 -0.29,-1.74 -0.5,-0.87 -0.84,-0.29 -0.02,-0.67 -0.61,-0.53 -0.33,-0.11 -0.29,0.36 -0.95,-0.51 -0.08,-0.73 -0.59,-0.2 -1.52,-1.94 -2.34,-1.44 -0.61,-0.2 -0.51,0.39 -0.69,-0.73 -0.73,0.47 -0.33,-0.17 -0.1,-0.78 -1.44,-1.33 -0.08,-0.9 -1.25,-0.68 -0.67,0.08 -1.53,-1.1 0.59,-0.64 -0.28,-0.64 -1.58,-1.52 -2.26,-0.8 -2.19,-3.4 -5.12,-3.87 -3.44,-1.03 -1.3,-2 0.18,-1.62 -0.9,-1.34 0,0 1.87,-1.35 0.02,-0.94 0.73,-0.81 -0.19,-0.99 0.83,-0.65 0.48,-1.89 3.98,-4.09 0,0 1.59,-0.17 1.8,0.65 2.09,-1.49 4.27,-0.46 0.98,-0.66 0.95,-2.48 1.46,-1.06 1.17,-0.2 1.66,0.81 1.89,0.15 0.33,-0.68 1.96,-0.63 3.1,-0.36 2.13,-1.59 z" 
                fill="rgb(151, 144, 238)" 
                stroke="white" 
                stroke-width=".7px"
                title="Rivas" 
                id="NI-RI" 
            />
        </svg>