<svg xmlns="http://www.w3.org/2000/svg" viewBox="300.1755000000001 388.85800000000006 183.43 139.97000000000048" width="183.43" height="139.97000000000048">
            <path 
                d="m 330.9155,476.648 0,0 -0.39,1.37 1.54,0.77 -0.36,0.68 -1.25,-0.06 -3.46,-2.82 -0.65,-1.28 2.05,1.29 0,0 2.52,0.05 z m -5.67,-1.58 0.17,0.25 0,0 -0.15,0.21 0,0 -1.33,-0.25 0,0 -0.59,0.31 -0.15,-0.25 0.37,-0.87 -0.33,-1.37 1.17,-0.29 0.45,-0.5 -0.02,2.32 0,0 0.41,0.44 z m -10.1,-1.92 -0.48,1.35 0.01,1.56 -0.44,0.15 -0.9,-1.45 0.62,-1.04 0.07,-0.98 1.23,-0.79 0,0 -0.11,1.2 z m 3.64,-3.2 0.98,1.41 0.66,0.02 0.35,1.56 0.75,1.25 -0.64,0.39 -1.57,0.08 -2.7,1.93 -1.23,-2.53 0.93,-1.95 -0.52,-1.64 0.51,-0.27 1.88,0.38 0.15,-0.56 0.45,-0.07 z m -8.84,-53.24 0.55,-0.35 -0.09,-0.8 0.98,-0.71 0.26,-1.45 2.87,-0.48 2.01,-1.65 0,-1.01 0.61,-0.08 -0.01,-0.65 1.43,0.2 1.31,0.87 0.55,-1.05 1.14,-0.18 1.48,-2.65 2.01,-0.32 0.16,-0.57 0.98,-0.82 -0.55,-2.05 1.3,-0.67 0.63,-1.85 4.17,-1.26 0.92,-0.96 0.99,0.18 0.94,-0.56 1.08,-0.12 2.03,-2.65 7.15,-3.84 3.2,-1.1 3.05,0.02 3.63,-1.29 2.59,0.1 1.11,0.37 2.43,-0.38 5.12,1.24 4.07,0.13 0,0 1.02,4.66 2.18,6.07 0.58,0.7 1.48,-0.12 0.73,0.62 0.02,1.2 -1.19,3.58 -0.09,2.32 0.42,1.12 2.95,3.7 0.57,1.5 -0.25,2.56 -2.9,4.82 -0.85,3.5 0.03,3.67 0.96,4.46 0.06,4.26 0.54,1.42 1.72,1.22 6.85,1.77 3.85,2.88 4.24,2.57 6.76,2.81 0.74,1.31 0.04,0.71 -0.5,3.08 0.08,2.23 0.98,1.67 0.94,0.8 4.77,1.74 7.67,3.9 1.46,1.37 4.81,8.02 1.66,0.84 0.98,-0.03 0.6,0.74 0.57,-0.12 0.86,0.55 0.53,-0.29 1.26,0.77 1.34,-0.32 3.71,0.92 1.87,-0.48 1.13,-0.72 0.52,0.57 1.19,-0.22 0.12,0.69 -0.68,0.41 0.6,2.21 1.2,1.81 0.97,0.51 0.86,-0.58 2,-0.4 0.79,-0.68 1.04,0.12 1.33,-1.47 0.36,-0.04 0.33,0.61 1.15,-0.15 0.33,0.48 2.19,-0.65 -0.03,-0.88 1.27,-0.3 1.24,0.75 1.42,-1.24 0.91,0.07 0.91,1.37 -0.37,2.63 1.25,1.87 -0.05,1.72 0.54,0.86 0.67,0.4 1.03,-0.85 1.09,-0.36 3.47,0.68 0,0 1.02,0.09 2.83,2.35 5.06,7.81 2.1,2.05 1.66,1 0.14,0.67 -0.32,0.52 0.36,0.36 2.01,0.08 -0.14,-0.94 -1.56,-1.44 1.15,0.1 0.93,-0.35 2.01,0.35 -0.1,0.72 2.03,2.48 -0.45,1.85 1.08,1.37 0.15,0.85 -0.36,3.71 1.13,3.27 -0.28,1.26 -1.32,1.96 -1.01,0.51 -2.12,0.41 -1.79,-0.39 -0.82,0.69 -1.54,0.12 -1.27,0.57 -1.9,1.23 -3.33,-0.06 -2.72,2.82 -1.99,-0.16 -1.41,0.48 -0.4,0.87 -2.38,2.07 -4.13,-0.28 -0.79,0.73 -2.47,0.86 -0.9,-0.11 -0.87,-1.66 -3,-0.86 -0.6,-0.64 -0.39,-1.43 -3.78,-2.16 -2.04,-3.06 -1.25,0.17 -0.38,1.52 -1.11,-0.49 -1.05,0.03 -0.57,0.57 -0.34,1.13 -0.73,0.21 -1.2,-0.09 -2.71,-1.25 -1.76,0.8 -1.08,-0.24 -0.78,-2.18 -5.03,0.5 -1.98,-0.47 -1.3,1.02 -0.69,-1.77 -1.03,-0.66 -1.44,-0.34 -0.31,-0.65 -0.88,-0.41 -0.23,-0.74 2.18,-0.91 -0.02,-0.65 0.53,-0.87 -0.54,-1.69 0.32,-0.73 -0.29,-0.87 -0.51,-0.64 -2.04,-0.69 -0.87,-0.9 -4,-0.78 -1.81,-2.51 -2.08,-0.51 -1.2,0.06 -0.61,-0.61 -1.2,-2.7 -1.19,-0.82 -0.07,-0.64 0.89,-2.56 -1.63,-2.37 -0.65,0.02 -1.79,1.79 -3.03,0.89 -1.81,1.62 -0.85,0.29 -1.66,-0.19 -1.74,-0.96 -4.04,-4.42 -2.33,-1.29 -6.56,-2.47 -1.21,-2.22 -4.26,1.4 -8.43,-4.92 -0.37,-0.06 -27.98,16.77 -8.97,-3.74 -24.12,-8.69 0,0 0.38,-1.45 -0.77,-3.17 0,0 1.12,-0.52 0.49,-0.85 1.32,0.81 1.54,0.27 1.32,1.47 0.97,0.46 1.74,-0.18 0.76,-0.45 1.35,0.58 3.22,-0.08 0.48,0.43 0.4,1.18 1.48,-0.06 0.89,0.7 4.92,-0.62 0.68,0.5 0.1,1.69 0.74,0.58 1.57,-0.06 3.95,-1.09 1.77,1.96 0.48,1.03 0.78,0.33 1.98,-0.24 4.28,-2.02 3.87,0.13 1.75,-1.03 1.11,-1.42 1.73,-1.01 2.02,0.13 -1.25,-0.75 1.44,-3.53 -0.96,-1.84 -0.96,-0.58 -0.42,-1.78 0.18,-2.79 -0.45,-4 0.58,-1.31 -0.59,-0.91 0.82,-1.7 -1.19,-0.98 -1.05,-5.69 -2.16,-1.19 -1.56,-0.23 -1.7,-1.69 -2.28,-0.82 0.01,-0.52 1.02,-0.23 -0.45,-2.17 -2.25,-1.32 -1.14,-0.07 -0.78,-1.9 0.1,-1.15 -0.7,-4.42 0.56,-0.94 -0.82,-1.74 -0.63,-0.36 -1.09,1 -0.67,1.25 -0.63,-0.05 -1.46,-2.06 0,-1.09 -1.11,-1.39 0.17,-1.59 -0.82,-0.13 -0.98,-1.41 -2.68,-2.12 -3.11,-4.75 -0.96,-0.43 -0.99,-1.25 -1.6,-0.69 -1,-1.46 -0.44,-2.4 -2.33,-2.65 -0.7,-1.67 -1.72,-0.29 -0.29,-1.5 z" 
                fill="rgb(151, 144, 238)" 
                stroke="white" 
                stroke-width=".7px"
                title="Río San Juan" 
                id="NI-SJ" 
            />
        </svg>