<svg xmlns="http://www.w3.org/2000/svg" viewBox="449.66161000000005 234.6283599999999 141.49000000000007 112.08000000000001" width="141.49000000000007" height="112.08000000000001">
            <path 
                d="m 507.66161,235.81836 3.61,5.49 4.8,-0.38 3.96,-1.72 0.53,1.07 3.23,0.86 4.33,-4.08 3.57,-1.28 6.95,0.5 5.89,2.92 3.74,5.22 2.57,0.1 7.37,6.1 1.2,0.06 2.64,-1.43 12.28,10.52 1.56,3.25 0.12,3.11 5.1,8.31 0.23,1.91 -1.25,1.84 0.22,1.1 7.41,3.06 3.43,0.28 0,0 -1.45,5.86 -3.37,2.7 2.78,9.52 -0.24,2.94 -7.7,0.77 -2.21,2.77 -1.36,4.24 -3.03,4.27 -1.4,3.58 -3.2,1.33 -2.4,2.26 0.65,11.94 -6.4,4.49 -2.52,-0.53 -2.13,0.94 -0.03,3.29 -2.45,3.71 -5.85,-0.95 -2.02,0.33 -3.07,-0.83 -2.91,-1.84 -5.81,-1.44 0,0 -4.41,-2.27 -12.89,-4.27 -5.74,-4.18 -0.92,-7.39 0.71,-1.87 -1.45,-1.98 -1.74,-7.71 -1.55,-2.48 -6.02,-0.79 -9.95,-4.19 -6.89,1.85 -2.79,1.72 -3.74,-1.84 -2.49,3.44 -2.53,-0.31 -1.26,-0.86 -3.09,0.45 -1.77,-1.22 -0.4,-2.43 -2.73,-1.17 -0.86,-1.26 -4.3,0.91 -8.26,-1.68 -0.3,-1.47 2.53,-3.24 -0.81,-1.63 0.45,-1.42 2.85,-3.18 0,0 3.69,3.44 2.13,-0.3 3.14,-1.93 0.36,-1.93 -1.87,-9.74 2.23,-3.45 4.07,-3.66 0.86,-3.96 1.84,-1.57 1.27,-5.24 2.24,-1.01 1.62,0.61 1.88,-0.6 1.02,0.35 1.23,-2.43 3.25,-2.54 0.48,-6.92 1.17,-3 3.37,-2.18 1.58,-2.59 0.63,-3.72 1.99,-2.08 4.72,-1.64 0,0 3.78,1.13 4.63,-1.92 z" 
                fill="rgb(151, 144, 238)" 
                stroke="white" 
                stroke-width=".7px"
                title="Bagmati" 
                id="NP-BA" 
            />
        </svg>