<svg xmlns="http://www.w3.org/2000/svg" viewBox="91.60160499999994 147.36836 156.20000500000003 140.5300000000001" width="156.20000500000003" height="140.5300000000001">
            <path 
                d="m 148.37161,147.36836 2.21,0.72 -2.04,4.21 0.47,2.5 1.76,0.52 2.05,1.9 5.95,-1.79 2.94,0.75 1.98,3.49 8.9,1.12 1.85,2.52 3.07,1.78 4.14,-2.66 2.99,0.96 3.36,-1.05 2,-2 2.72,0.15 4.79,3.38 3.03,0.35 2.79,-1.5 1.2,-3.77 3.24,-4.43 12.42,-7.08 6.18,0.96 5.18,-0.1 1.14,0.9 -0.84,1.76 -0.18,9.45 2.03,1.6 6.73,-2.12 7.37,2.21 0,0 -5.08,2.98 -0.39,6.57 -2.56,2.87 -9.02,4.88 -4.74,6.28 -3.85,-0.59 -2.59,3.38 0.6,4.34 -2.37,1.63 -5.42,2.1 -2.44,8.08 -11.7,-2.77 -2.41,-0.15 -2.12,1.07 -1.23,4.52 2.04,4.61 0.35,4.23 -2.45,4.39 -3,2.62 1.57,4.3 -0.16,2.15 -5.25,6.29 -2.6,-0.1 -7.04,-4.88 -4.78,-1.68 -3.19,2.99 0.18,1.06 -1.26,2.63 0.19,1.58 3.49,3.13 1.48,2.26 4.01,-0.4 2.67,1.21 0.13,1.01 1.86,1.49 2.05,0.26 1.7,1.33 0.62,2.43 8.08,4.15 1.39,3.17 3.4,4.36 7.97,2.37 0.84,3.7 2.04,0.36 1.51,1.75 -0.07,3.71 1.09,1.35 -0.28,3.56 -4.59,-0.92 -2.21,0.91 -3.6,0.18 -2.66,1.79 0,0 -9.63,-0.37 -4.67,7.63 -3.86,-0.15 -5.44,-4.39 -2.8,-0.54 -10.47,-9.6 -3.12,-0.18 -3.51,-1.37 -14.84,-8.7 0.22,-3.64 -2.25,-1.81 -1.09,-2.9 -2.07,-1.61 -4.7,-0.24 -0.78,0.87 0.6,2.22 -5.88,1.09 0.89,-2.39 -0.91,0.21 -1.19,-1 1.97,-0.76 -0.68,-3.43 -7.87,-8.78 -0.33,-4.94 -2.11,-3.56 -11.04,-2.26 -3.600005,-2.26 0,0 2.510005,-3.47 0.57,-3.24 3.05,-1.87 4.92,-4.59 3.64,-4.55 0.88,-3.19 7.28,-8.13 -0.4,-3.11 -3.92,-6.75 -1.34,-4.01 -1.12,-6.83 -2.19,0.58 -2.48,4.22 -3.29,-2.21 -0.04,-3.08 -6.4,-1.6 -5.450005,-2.71 -3.46,-5.74 7.51,-2.48 3.330005,-0.05 11.21,6.65 8.16,0.69 5.29,-1.17 1.65,2.05 2.83,-1.25 2.52,0.24 2.13,-0.73 3.51,6.83 6.05,6.35 0.58,2.39 2.01,0.92 2.59,-0.84 -1.06,-3.45 -2.25,-1.73 -1.16,-3.56 -5.49,-6.32 -0.91,-3.3 -3.38,-3.66 -0.03,-6.77 3.62,-4.92 8.23,-4.99 z" 
                fill="rgb(151, 144, 238)" 
                stroke="white" 
                stroke-width=".7px"
                title="Bheri" 
                id="NP-BH" 
            />
        </svg>