<svg xmlns="http://www.w3.org/2000/svg" viewBox="277.09161 126.00835999999994 130.44 146.69999999999993" width="130.44" height="146.69999999999993">
            <path 
                d="m 387.87161,126.93836 0.48,0.19 -0.37,2.23 1.91,1.16 2.38,-1.21 2.58,1.53 2.76,-0.43 3.98,4.25 3.74,0.82 2.06,1.26 0.14,0.93 -2.81,2.89 -1.07,10.31 -3.92,4.88 0.61,2.34 4.27,4.68 0.14,1.28 -1.45,3.06 -0.68,6.69 0,0 -3.26,1.02 -8.1,8.24 -1.89,0.31 -3.64,-2.38 -2.97,0.27 -0.53,4.36 -1.32,2.26 -4.32,3.4 -5.6,2.85 0.07,3.17 1.19,2.09 2.21,1.52 1.76,4.13 -0.6,1.38 -2.25,-0.65 -3.41,1.92 -0.24,1.43 1.76,3.66 0.01,2.25 -4.21,3.29 -4.5,5.04 -1.74,4.91 -1.63,0.47 -0.75,2 4.35,1.85 2.26,2.63 1.82,4.98 -0.35,1.64 4.14,2.67 -0.19,1.07 -1.96,3.17 -2.05,-1.36 -2.03,0.42 -1.1,3.01 0.77,1.12 -0.62,4.27 -2.88,2.77 -0.39,1.99 0.82,0.86 -0.57,5.19 -3.01,3.79 -3.59,1.9 -4.67,-1.64 0,0 -0.88,-0.14 -1.83,-6.18 -1.23,-1.26 -3.27,-1.09 -1.79,-1.56 -3.95,1.11 -3.93,-1.95 -3.36,-4.9 -1.57,0.27 -4.15,-2.7 -4.23,-0.77 -1.44,-1.56 2.35,-3.39 0.38,-2.4 -0.57,-1.01 -4.57,0.21 -1.5,-1.31 -2.57,1.35 -2.5,-0.27 -6.9,1.77 -3.07,-0.15 0,0 -0.06,-1.95 -4.7,-5.34 -7.44,-4.18 -3.74,-4.89 -1.8,-1.25 -1.37,-3.05 -2.23,-2.41 -0.07,-1.48 2.54,-0.5 -0.64,-1.77 -1.65,-1.05 -0.58,-1.37 1.16,-1.19 2.64,-0.81 1.64,-2.63 4.81,0.96 1.04,-2.11 -1.1,-2.64 -1.5,-1.06 2.07,-1.91 6.38,0.47 4.53,-1.54 2.02,-1.61 1.76,-1.82 2.32,-6.26 -0.9,-2.55 0.41,-0.42 0,0 0.9,-0.93 3.92,2.67 3.74,0.46 1.75,0.96 2.45,-0.19 7.33,-2.33 4.01,-2.6 5.4,-1.59 3.92,-2.09 0.16,-4.86 1.64,-4.37 11.29,-14 -0.01,-6.97 1.1,-3.86 1.11,-1.6 2.82,-0.49 1.61,-3.71 -0.58,-1.64 -3.48,-3.63 0,0 1.4,-1.81 1.62,-0.65 4.1,-3.64 6.52,0.84 1.7,-0.7 2.93,-4.37 4.33,-2.49 4.07,-0.93 3.05,0.83 2.33,-1.08 z" 
                fill="rgb(151, 144, 238)" 
                stroke="white" 
                stroke-width=".7px"
                title="Dhawalagiri" 
                id="NP-DH" 
            />
        </svg>