<svg xmlns="http://www.w3.org/2000/svg" viewBox="333.1916099999999 170.99836 172.1900000000001 130.73000000000002" width="172.1900000000001" height="130.73000000000002">
            <path 
                d="m 413.75161,170.99836 1.2,0.53 1.46,2.89 2.48,0.61 3.15,2.07 5.39,0.72 2.65,2.63 0.86,2.09 -0.19,2.1 -1.29,2.51 -0.14,3.5 2.93,-0.84 3.24,2.15 3.16,0.87 4.26,-0.62 4.84,-1.86 6.51,2.34 0.48,2.5 2.49,4.51 -1.64,3.91 0.42,0.9 4.82,1.78 8.02,0.66 3.63,2.53 2.16,-1.95 5.71,-3.16 3.96,1.41 1.97,-0.32 3.93,-4.86 3.18,-2.48 5.92,-0.85 1.94,1.45 4.13,5.21 -1.07,1.87 0.42,4.53 -1.04,0.74 -2.1,8.05 -1.43,2.73 -2.58,13.57 0,0 -4.72,1.64 -1.99,2.08 -0.63,3.72 -1.58,2.59 -3.37,2.18 -1.17,3 -0.48,6.92 -3.25,2.54 -1.23,2.43 -1.02,-0.35 -1.88,0.6 -1.62,-0.61 -2.24,1.01 -1.27,5.24 -1.84,1.57 -0.86,3.96 -4.07,3.66 -2.23,3.45 1.87,9.74 -0.36,1.93 -3.14,1.93 -2.13,0.3 -3.69,-3.44 0,0 -4.27,-5.59 -4,0.35 -3.09,2.64 -3.24,1.58 -0.61,1.17 -8.1,2.65 2.14,6.08 -0.33,0.78 0,0 -8.18,-1.58 -2.17,2.14 -2.85,-3.49 -0.87,-4.11 -3.16,-3.95 -9.53,-0.27 -8.47,-1.33 -5.67,0.69 -12.23,-2.22 -10.59,0.12 -2.96,-2.46 -5.29,-1.54 -3.7,-0.32 -3.33,1.5 -5.46,-2.95 -2.54,-0.54 -10.69,0.91 -2.14,-0.84 -0.16,-1.01 2.31,-2.16 10.43,-2.03 1.57,-0.98 1.91,-3.68 0,0 4.67,1.64 3.59,-1.9 3.01,-3.79 0.57,-5.19 -0.82,-0.86 0.39,-1.99 2.88,-2.77 0.62,-4.27 -0.77,-1.12 1.1,-3.01 2.03,-0.42 2.05,1.36 1.96,-3.17 0.19,-1.07 -4.14,-2.67 0.35,-1.64 -1.82,-4.98 -2.26,-2.63 -4.35,-1.85 0.75,-2 1.63,-0.47 1.74,-4.91 4.5,-5.04 4.21,-3.29 -0.01,-2.25 -1.76,-3.66 0.24,-1.43 3.41,-1.92 2.25,0.65 0.6,-1.38 -1.76,-4.13 -2.21,-1.52 -1.19,-2.09 -0.07,-3.17 5.6,-2.85 4.32,-3.4 1.32,-2.26 0.53,-4.36 2.97,-0.27 3.64,2.38 1.89,-0.31 8.1,-8.24 3.26,-1.02 0,0 1.53,0.4 3.51,-1.72 z" 
                fill="rgb(151, 144, 238)" 
                stroke="white" 
                stroke-width=".7px"
                title="Gandaki" 
                id="NP-GA" 
            />
        </svg>