<svg xmlns="http://www.w3.org/2000/svg" viewBox="518.6016100000004 253.6983600000003 123.2299999999999 176.00000000000003" width="123.2299999999999" height="176.00000000000003">
            <path 
                d="m 607.04161,274.71836 9.07,0.49 3.37,3.51 4.9,-2.26 2.22,-0.15 0.45,0.48 -2.63,3.9 1.47,1.8 1.09,0.01 4.23,-2.76 4.33,1.87 1.23,-2.48 -0.93,-1.58 0,0 3.54,4.41 1.35,4.5 -1.1,2.31 -0.37,4.21 2.57,7.04 -0.37,4.6 -3.27,2.03 -4.84,1.7 -2.04,4.78 -4.33,5.2 -0.89,2.17 -3.42,1.97 -4.37,5.3 -1.46,3.17 -4.75,3.98 -3.76,6.17 0.12,5.71 1.32,3.55 -2.54,5.07 1.11,1.08 3.96,0.4 10.86,7.82 -2.3,7.13 0.61,2.93 -0.38,2.16 1.22,2.54 -2.14,8.93 -1.32,1.29 -4.54,1.35 -2,2.69 -2.74,2.08 -4.02,0.3 -5.05,-2.38 -1.26,0.54 1.04,9.67 -1.07,5.52 1.4,4.09 2.34,1.38 1.71,3.74 -3.03,6.22 0,0 -0.47,-0.45 -3.45,1.45 0.07,-2.45 -5.24,-1.89 -1.66,-1.62 -3.74,-0.84 -1.88,1.16 -3.81,-0.38 -1.88,1.06 -1.2,3.73 -3.15,0.75 -2.59,2.8 -0.76,-0.21 -1.97,1.69 -0.97,-0.03 0.84,-2.36 -0.48,-1.85 -2.11,-0.51 -0.04,1.14 -1.18,-0.07 -1.58,-2.4 -3.28,-0.72 -3.11,-2.04 -0.12,-1.56 -1.18,-1.8 0.31,-4.71 0.8,-1.56 -0.54,-1.1 0.59,-5.09 -0.95,-2.39 -4.75,-3.08 -3.42,-0.92 -0.6,-2.1 -1.26,-0.18 -1.47,1.85 -2.07,0.96 -0.34,-1.08 -0.84,-0.17 -0.88,2.06 -0.82,-0.22 -0.4,0.98 -0.97,-0.39 -2.21,2.69 -2.12,0.01 -0.45,1.75 -1.6,-0.6 -0.31,1.3 -1.79,0.91 -4.85,-0.97 -3.17,3.31 -1.51,-0.27 -2.47,2.36 0,0 2.48,-9.04 5.12,-7.46 1.73,-4.37 0.08,-3.72 -1.39,-3.99 1.49,-4.48 6.74,-6.65 -0.34,-2.18 2.22,-7.29 -0.14,-2.12 -1.54,-3.6 -1.85,-2.18 -1.81,-0.87 -1.18,-3.95 0.47,-2.12 4.35,-4.85 0,0 5.81,1.44 2.91,1.84 3.07,0.83 2.02,-0.33 5.85,0.95 2.45,-3.71 0.03,-3.29 2.13,-0.94 2.52,0.53 6.4,-4.49 -0.65,-11.94 2.4,-2.26 3.2,-1.33 1.4,-3.58 3.03,-4.27 1.36,-4.24 2.21,-2.77 7.7,-0.77 0.24,-2.94 -2.78,-9.52 3.37,-2.7 1.45,-5.86 0,0 3.5,-1.19 2.48,-2.09 -1.37,-2.58 -0.57,-2.99 -2.75,-2.63 -0.64,-3.09 0.68,-6.62 2.3,-1.33 6.28,-6.41 0.92,0.69 0.02,1.84 3.45,5.24 -1.94,2.57 1.18,7.33 1.17,2.53 z" 
                fill="rgb(151, 144, 238)" 
                stroke="white" 
                stroke-width=".7px"
                title="Janakpur" 
                id="NP-JA" 
            />
        </svg>