<svg xmlns="http://www.w3.org/2000/svg" viewBox="118.5916099999999 0.2583641 238.92000000000002 193.6799959000001" width="238.92000000000002" height="193.6799959000001">
            <path 
                d="m 156.40161,0.2583641 1.49,1.23 3.67,0.68 3.11,2.19 3.9,1.12 18.64,3.47 5.1,2.1299999 4.57,-0.66 7.61,0.86 2.26,0.87 0.55,0.94 -1.68,2.37 1.68,7.54 3.9,3.58 0.99,2.56 0.03,2.15 -2.21,5.71 1.09,1.58 8.03,3.28 3.22,0.33 1.63,1.5 5.57,1.99 2.04,-0.08 2.45,2.04 2.03,-0.31 2.89,1.14 1.62,-0.28 1.91,2.74 6.22,3.35 2.06,2.35 0.41,2.18 5.45,5.62 3.87,2.69 2.53,3.65 0.36,2.17 1.95,3 6.53,2.81 2.57,2.98 1.13,0.62 6.41,0.26 4.94,3.01 2.43,0.01 2.73,1.33 5.34,3.77 6.47,0.83 1.62,2.36 3.09,-0.06 4.73,2.14 1.53,2.33 0.08,4.569996 6.86,2.34 0.69,0.98 -0.39,4.09 6.52,6.23 0.98,3.33 2.5,2.98 1.29,6.18 4.27,2.61 3.27,5.07 2.89,2.41 7.13,3.33 1.78,-0.73 0.72,-1.71 0,0 3.48,3.63 0.58,1.64 -1.61,3.71 -2.82,0.49 -1.11,1.6 -1.1,3.86 0.01,6.97 -11.29,14 -1.64,4.37 -0.16,4.86 -3.92,2.09 -5.4,1.59 -4.01,2.6 -7.33,2.33 -2.45,0.19 -1.75,-0.96 -3.74,-0.46 -3.92,-2.67 -0.9,0.93 0,0 -7.57,-3.94 -3.85,-0.82 -7.77,-4.09 -5.39,-0.69 -4.94,1.05 -2.42,-1.04 -2.29,0.55 -9.34,-4.26 0.34,-4.46 -3.02,-3.18 -3.31,-5.13 -4.17,-0.95 -2.84,-1.72 0,0 -7.37,-2.21 -6.73,2.12 -2.03,-1.6 0.18,-9.45 0.84,-1.76 -1.14,-0.9 -5.18,0.1 -6.18,-0.96 -12.42,7.08 -3.24,4.43 -1.2,3.77 -2.79,1.5 -3.03,-0.35 -4.79,-3.38 -2.72,-0.15 -2,2 -3.36,1.05 -2.99,-0.96 -4.14,2.66 -3.07,-1.78 -1.85,-2.52 -8.9,-1.12 -1.98,-3.49 -2.94,-0.75 -5.95,1.79 -2.05,-1.9 -1.76,-0.52 -0.47,-2.5 2.04,-4.21 -2.21,-0.72 0,0 -2.28,-0.5 -3.37,-3.05 -1.3,-2.64 0.67,-7.68 -1.63,-1.39 -0.72,-1.84 2.54,-3.15 8.4,-7.32 3.75,-0.1 2.85,3.12 0.43,2.77 1.61,0.68 6.67,-2.99 3.42,-2.86 3.09,-4.3 0.94,-3.84 -2.16,-8.5 -1.54,-1.87 -0.39,-9.539996 -2.1,-1.86 -3.26,-0.28 -1.03,-6.23 0.25,-2.48 3.6,-2.47 0.92,-2.45 -0.26,-2.53 1.35,-5.98 1.41,-1.69 1.18,-0.13 0.51,-4.57 -0.59,-3.3 -8.52,-1.29 -1.7,-2.19 -2.87,-0.86 -7.03,2.3 -3.52,-0.27 -4.15,2.54 -1.42,-0.01 -2.55,1.31 -0.68,-6.04 0.3,-4.21 -1.76,-1.97 -4.03,-1.92 -2.89,2.31 -2.38,0.06 -2.39,-2.11 -3.22,-0.37 -3.93,-3.28 0,0 1.03,-5.67 -0.22,-4.02 2.68,-0.99 4.59,0.14 5.07,-7.21 0.12,-4.1 1.98,-6.01 -2.13,-5.4099999 -0.29,-3.19 1.09,-3 3.47,-1.33 4.86,-0.41 1.23,0.64 2.34,3.54 5.65,1.65 0.89,-6.27 z" 
                fill="rgb(151, 144, 238)" 
                stroke="white" 
                stroke-width=".7px"
                title="Karnali" 
                id="NP-KA" 
            />
        </svg>