<svg xmlns="http://www.w3.org/2000/svg" viewBox="259.3816100000002 242.43836000000002 173.79999999999978 103.71999999999983" width="173.79999999999978" height="103.71999999999983">
            <path 
                d="m 298.83161,245.13836 3.07,0.15 6.9,-1.77 2.5,0.27 2.57,-1.35 1.5,1.31 4.57,-0.21 0.57,1.01 -0.38,2.4 -2.35,3.39 1.44,1.56 4.23,0.77 4.15,2.7 1.57,-0.27 3.36,4.9 3.93,1.95 3.95,-1.11 1.79,1.56 3.27,1.09 1.23,1.26 1.83,6.18 0.88,0.14 0,0 -1.91,3.68 -1.57,0.98 -10.43,2.03 -2.31,2.16 0.16,1.01 2.14,0.84 10.69,-0.91 2.54,0.54 5.46,2.95 3.33,-1.5 3.7,0.32 5.29,1.54 2.96,2.46 10.59,-0.12 12.23,2.22 5.67,-0.69 8.47,1.33 9.53,0.27 3.16,3.95 0.87,4.11 2.85,3.49 2.17,-2.14 8.18,1.58 0,0 -0.58,1.75 -3.13,3.25 -3.59,1.33 -1.47,-1.11 -9.65,4.48 -1.31,1.48 -2.78,0.82 -0.51,1.21 -3.48,1.38 -2.26,4.77 -1.86,1.83 -4.34,0.88 -16.17,0.95 -0.95,0.66 0.06,1.11 4.25,1.19 -1.96,2.64 -1.39,3.86 0,0 -1.2,-0.61 -2.02,0.98 -4.03,0.55 -2.31,-1.22 -0.93,0.98 -0.43,1.66 4.85,5.06 -1.94,3.43 -4.25,-3.32 -20.62,-10.36 -20.78,-1.02 -0.8,0.28 0.13,1 1.13,1.35 -1.56,2.82 1.42,1.49 0.05,1.81 -1.07,1.07 -0.37,1.78 -1.65,0.81 -0.07,1.14 -1.57,1.65 -4.5,1.18 -3.26,-1.92 -0.86,-1.64 0.24,-2.1 -5.55,-4.04 -1.03,-2.04 -2.1,-1.89 -12.89,0.53 -2.94,-0.52 -7.17,-2.17 -1.07,-2.36 -1.33,-0.75 -4.17,0.48 -4.17,-0.57 -2.22,0.64 -7.52,-0.6 -0.37,-1.45 1.13,-1.05 -0.82,-2.78 1.36,-3.81 -1.69,-3.2 0.62,-2.13 -1.09,-1.05 -0.01,-1.25 -1.25,-0.27 -0.41,-0.81 0.35,-2.9 -1.07,-2.37 0.48,-2.04 -1.24,0.97 0,0 -0.11,-1.78 1.75,-1.45 7.81,1.15 2.6,-2.22 2.73,-0.5 1.39,-1.95 -1.54,-0.94 -2.89,-0.26 -3.63,-2.48 2.67,-6.99 3.87,-2.4 4.37,0.34 6.41,-2.07 7.6,-0.36 0.02,-2.34 -1.81,-2.56 -4.45,-2.74 1.06,-7.28 4.71,-4.49 1.97,-0.79 2.41,-2.78 -3.7,-2.44 0.25,-4.58 -1.19,-1.26 2.56,-2.33 3.65,-1.22 z" 
                fill="rgb(151, 144, 238)" 
                stroke="white" 
                stroke-width=".7px"
                title="Lumbini" 
                id="NP-LU" 
            />
        </svg>