<svg xmlns="http://www.w3.org/2000/svg" viewBox="0.2516051000000018 23.978364000000003 104.97000489999996 186.03999599999995" width="104.97000489999996" height="186.03999599999995">
            <path 
                d="m 85.741605,28.418364 3.41,-0.71 0.94,-0.88 1.28,0.46 3.39,-1.23 4.13,-0.14 2.650005,2.72 1.96,3.38 -1.26,3 0.09,3.86 1.34,1.82 1.55,0.35 0,0 -3.49,1.75 -1.44,1.91 -2.820005,1.02 -1.76,1.61 -2.52,7.43 1.35,3.33 2.95,3.54 0.16,3.72 2.2,2.52 1.010005,4.52 -2.250005,4.26 -8.66,2.17 -5.93,0.24 -12.76,5.83 1.19,4.92 -0.43,4.3 -1.3,2.94 -1.89,0.52 0.46,2.979996 3.59,2.46 0.42,3.45 4.37,-0.09 2.37,1.52 1.18,1.61 0.5,2.72 -2.34,4.35 -2.7,2.2 -4.21,0.55 -3.62,2.28 0.85,5.63 -3.1,5.97 -2.34,2.19 -0.64,2.38 -11.93,5.54 -1.39,4.37 -2.83,1.53 1.28,2.78 -3.17,9.1 -0.29,2.21 0.7,2.34 -1.4,12.92 3.81,9.45 0.47,3.26 -0.82,3.98 0,0 -4.06,2.71 1.2,9.58 1.21,1.24 -1.01,1.23 -3.27,-2.92 -1.73,-0.48 0.2,-1.49 -0.81,-2.09 -2.69,-1.91 -5.45,0.8 -1.34,-0.56 -0.72,-1.83 -2.9,-1.68 -0.94,-3.33 -4.25,-1.46 -1.71,-1.68 0.83,-2.09 -0.84,-1.11 -5.06,-0.73 -7.5999999,-6.94 -5.03,-0.16 -1.16,-0.63 -0.67,-1.79 0.29,-8.2 3.53,-7 1.82,-0.43 0.42,-1.92 1.51,-0.43 -1.02,-0.89 -0.03,-2.27 1.31,-2.4 -0.73,-1.84 1.57,-3.6 3.3099999,-3.07 3.3,1.44 2.04,0.05 1.22,-1.67 2.05,-1.19 -1.01,-2.28 0.06,-2.53 -1.34,-1.69 0.36,-1.87 0.74,0.07 0.3,0.89 1.85,0.35 0.81,1.31 1.03,-0.3 -0.46,-4.1 0.65,-0.68 0.36,-4.69 1.12,-1.86 -0.27,-2.57 -1.95,-0.48 -0.21,-1.52 -0.91,-0.38 -0.18,-1.67 -0.81,-0.71 0.56,-0.99 -0.35,-2.28 -2.82,-1.57 -0.26,-3.66 0.07,-0.57 3.29,-1.3 0.73,1.09 1.47,-0.31 -1.07,-2.13 1.04,-1.85 1.31,0.59 0.2,-1.38 3.48,-2.65 0.42,-1.66 -0.92,-0.69 0.29,-1.469996 3.37,-2.24 1.16,-0.02 1.59,-3.05 -0.06,-1.98 1.03,-2.85 -2.85,-3.15 -1.44,-5.05 -0.96,-1.28 0.35,-2.69 1.29,0.05 1.47,-1.28 0.77,-3.37 2.76,-1.75 1.56,0.85 1.6,-0.38 2.57,0.56 1.13,-2.73 5.18,-4.72 1.32,-3.66 -0.18,-3.19 2.73,-3.43 2.81,-1.16 5.16,0.36 3.88,-4.38 2.28,-0.29 2.44,-6.02 1.96,-1.24 2.15,-3.18 2.98,-0.76 0.97,-1.78 2.29,-1.52 0.29,-1.51 -0.97,-3.18 3.42,-4.98 1.48,0.08 0.25,3.31 z" 
                fill="rgb(151, 144, 238)" 
                stroke="white" 
                stroke-width=".7px"
                title="Mahakali" 
                id="NP-MA" 
            />
        </svg>