<svg xmlns="http://www.w3.org/2000/svg" viewBox="729.13161 281.6883600000004 70.98000000000002 171.55999999999972" width="70.98000000000002" height="171.55999999999972">
            <path 
                d="m 789.81161,286.88836 2.53,0.34 1.33,-0.59 4.2,0.68 2.24,1.66 -0.04,1.43 -2.39,2.09 2.17,3.43 -1.76,4.28 -2.26,2.11 -0.66,6.8 -2.5,2.41 -1.41,4.38 -2.72,2.24 0,2.77 -1.6,1.38 -0.38,1.25 0.67,0.72 -2.23,4.18 0.32,2.36 1.99,3.18 0,1.91 -1.95,1.63 -0.65,3.1 0.12,1.69 1.56,1.55 0.36,1.69 -2.92,6.32 -0.19,3.61 -1.58,3.09 0.04,6.21 -2.56,5.64 3.33,2.95 0.31,3.22 1.73,1.9 2.29,0.77 1.51,-0.48 0.84,3.14 2.25,2.1 1.87,0.23 -1.12,4.19 2.05,2.17 0.01,4.21 3.17,3.1 -0.75,2.48 1.58,4.52 0.19,8.64 -1.97,4.07 -0.67,4.96 -1.89,1.45 -0.83,2.18 0.06,3.11 -1.72,0.51 -0.06,1.12 -0.78,0.42 0.56,1.79 -1.23,3.3 0.9,4.72 -1.18,1.29 0.66,0.82 -1.61,2.59 -5.27,4.92 -0.22,2.38 -2.06,0.05 -1.07,-0.84 -0.68,-1.08 0.08,-2.23 -2.54,-0.53 -3.74,-2.25 -1.15,-1.59 0.89,-1.4 -2.57,-0.32 1.05,-1.05 -1.97,-3.03 -0.41,1.11 -2.65,1.43 0.46,1.19 -1.13,0.7 -0.28,1.09 -2.06,-0.52 0.14,-1.03 -1.47,-1.13 -2.64,-0.84 0.28,0.54 -1.48,1.25 0.3,1.85 -1.32,2.78 -1.23,0.12 -0.4,-1.08 -0.95,-0.1 -0.47,1.21 -1.08,-0.48 -0.91,-1.67 -2.45,-0.91 0,0 -2.11,-4.71 -1.61,-9.83 1.59,-1.47 -1.31,-5.7 3.29,-9.37 0.96,-5.96 -0.5,-2.07 -5.64,-3.46 -2.59,-0.82 -0.81,-1.93 -1.28,-0.99 -5.12,-2.19 0.51,-2.4 -2.34,-5.29 3.11,-4.06 0.85,-3.71 5.08,-6.33 7.65,-4.04 3.2,-2.95 0.96,-2.19 4.1,-4.39 -1.03,-1.34 -7.12,-3.41 -4.26,-1.07 -6.94,-0.52 -4.43,-2.58 -1.47,-3.72 -3.25,-3.67 -0.4,-6.78 2.57,-16.94 4.67,-2.78 0.96,-2 0.85,-5.75 1.57,-2.14 1.41,0.38 1.72,1.87 1.25,-1.54 0.57,-2.27 2.26,-1.36 2.31,-3.59 1.62,-11.39 0,0 2.35,0.84 0.97,2.25 1.56,-2.02 0.94,-0.08 4.32,2.32 1.97,-2.68 3.12,0.62 2.68,2.71 0.73,-0.58 2.23,0.1 1.35,-0.6 2.2,-2.62 1.55,-4.45 4.96,-4.1 4.16,1.21 z" 
                fill="rgb(151, 144, 238)" 
                stroke="white" 
                stroke-width=".7px"
                title="Mechi" 
                id="NP-ME" 
            />
        </svg>