<svg xmlns="http://www.w3.org/2000/svg" viewBox="381.10160999999925 285.91836000000006 155.63000000000045 124.93000000000006" width="155.63000000000045" height="124.93000000000006">
            <path 
                d="m 454.68161,291.50836 -2.85,3.18 -0.45,1.42 0.81,1.63 -2.53,3.24 0.3,1.47 8.26,1.68 4.3,-0.91 0.86,1.26 2.73,1.17 0.4,2.43 1.77,1.22 3.09,-0.45 1.26,0.86 2.53,0.31 2.49,-3.44 3.74,1.84 2.79,-1.72 6.89,-1.85 9.95,4.19 6.02,0.79 1.55,2.48 1.74,7.71 1.45,1.98 -0.71,1.87 0.92,7.39 5.74,4.18 12.89,4.27 4.41,2.27 0,0 -4.35,4.85 -0.47,2.12 1.18,3.95 1.81,0.87 1.85,2.18 1.54,3.6 0.14,2.12 -2.22,7.29 0.34,2.18 -6.74,6.65 -1.49,4.48 1.39,3.99 -0.08,3.72 -1.73,4.37 -5.12,7.46 -2.48,9.04 0,0 -2.84,-1.17 -4.25,-0.27 -2.47,-0.92 -2.97,0.27 -2.94,-5.93 1.42,-2.21 0.18,-3.75 -8.38,-0.29 -2.27,0.71 0.53,0.63 -0.54,0.58 -0.77,-0.47 -1.39,0.97 -3.06,-0.4 -0.67,-0.3 0.55,-2.04 2.55,-1.11 -4.72,-1.08 -0.97,-0.64 0.57,-0.64 -0.5,-1.06 -2.97,-0.49 0.96,-2.27 -1.93,-2.41 -5.97,-1.15 -4.22,-2.08 -0.02,-1.78 -2.83,-1.36 -1.26,0.16 -1.86,2.49 -1.94,-2.35 -1.41,1.96 -11.51,-5.12 0.43,-2.89 2.73,-3.24 -0.36,-1.08 0.59,-0.25 0.81,-4.96 -0.8,-0.19 -0.31,-1.07 0.81,-1.11 0.53,-4.61 -4.81,-9.95 -2.05,-2.79 -13.2,-2.29 -1.49,0.57 -4.71,-1.83 -8.24,-0.47 -3.62,-1.76 -0.94,0.74 -1.65,-1.34 -0.29,-3.13 -1.4,-1.04 -0.5,-1.67 -2.52,0.01 -0.4,1.07 -0.68,0.03 -0.74,-3.07 -2.39,-0.41 -3.1,-1.7 -0.62,-1.11 0.52,-2.42 -2.47,0.86 -1.17,-1.12 -1.06,0.2 -0.69,2.68 -1.13,0.95 -1.32,0.04 -2.05,4.69 -0.98,-0.22 -1.75,1.09 -2.43,-1.05 -1.69,0.8 -1.29,-0.87 -2.21,0.23 0,0 1.39,-3.86 1.96,-2.64 -4.25,-1.19 -0.06,-1.11 0.95,-0.66 16.17,-0.95 4.34,-0.88 1.86,-1.83 2.26,-4.77 3.48,-1.38 0.51,-1.21 2.78,-0.82 1.31,-1.48 9.65,-4.48 1.47,1.11 3.59,-1.33 3.13,-3.25 0.58,-1.75 0,0 0.33,-0.78 -2.14,-6.08 8.1,-2.65 0.61,-1.17 3.24,-1.58 3.09,-2.64 4,-0.35 z" 
                fill="rgb(151, 144, 238)" 
                stroke="white" 
                stroke-width=".7px"
                title="Narayani" 
                id="NP-NA" 
            />
        </svg>