<svg xmlns="http://www.w3.org/2000/svg" viewBox="166.89160999999987 162.09836 137.97000000000006 145.82999999999993" width="137.97000000000006" height="145.82999999999993">
            <path 
                d="m 247.80161,162.09836 2.84,1.72 4.17,0.95 3.31,5.13 3.02,3.18 -0.34,4.46 9.34,4.26 2.29,-0.55 2.42,1.04 4.94,-1.05 5.39,0.69 7.77,4.09 3.85,0.82 7.57,3.94 0,0 -0.41,0.42 0.9,2.55 -2.32,6.26 -1.76,1.82 -2.02,1.61 -4.53,1.54 -6.38,-0.47 -2.07,1.91 1.5,1.06 1.1,2.64 -1.04,2.11 -4.81,-0.96 -1.64,2.63 -2.64,0.81 -1.16,1.19 0.58,1.37 1.65,1.05 0.64,1.77 -2.54,0.5 0.07,1.48 2.23,2.41 1.37,3.05 1.8,1.25 3.74,4.89 7.44,4.18 4.7,5.34 0.06,1.95 0,0 -0.83,1.21 -3.65,1.22 -2.56,2.33 1.19,1.26 -0.25,4.58 3.7,2.44 -2.41,2.78 -1.97,0.79 -4.71,4.49 -1.06,7.28 4.45,2.74 1.81,2.56 -0.02,2.34 -7.6,0.36 -6.41,2.07 -4.37,-0.34 -3.87,2.4 -2.67,6.99 3.63,2.48 2.89,0.26 1.54,0.94 -1.39,1.95 -2.73,0.5 -2.6,2.22 -7.81,-1.15 -1.75,1.45 0.11,1.78 0,0 -2.54,0.38 -1.39,-0.5 -0.41,0.82 -2.24,0.15 -3.5,1.76 -5.42,1.17 -2.61,-0.42 -4.12,1.5 -1.6,-0.09 -6.96,-4.18 -1.61,-2.77 -7.51,-4.27 -8.63,-7.53 -4.64,-2.19 -0.81,0.83 -2.53,-0.86 -2.4,-2.18 -2.57,-4.05 0,0 2.66,-1.79 3.6,-0.18 2.21,-0.91 4.59,0.92 0.28,-3.56 -1.09,-1.35 0.07,-3.71 -1.51,-1.75 -2.04,-0.36 -0.84,-3.7 -7.97,-2.37 -3.4,-4.36 -1.39,-3.17 -8.08,-4.15 -0.62,-2.43 -1.7,-1.33 -2.05,-0.26 -1.86,-1.49 -0.13,-1.01 -2.67,-1.21 -4.01,0.4 -1.48,-2.26 -3.49,-3.13 -0.19,-1.58 1.26,-2.63 -0.18,-1.06 3.19,-2.99 4.78,1.68 7.04,4.88 2.6,0.1 5.25,-6.29 0.16,-2.15 -1.57,-4.3 3,-2.62 2.45,-4.39 -0.35,-4.23 -2.04,-4.61 1.23,-4.52 2.12,-1.07 2.41,0.15 11.7,2.77 2.44,-8.08 5.42,-2.1 2.37,-1.63 -0.6,-4.34 2.59,-3.38 3.85,0.59 4.74,-6.28 9.02,-4.88 2.56,-2.87 0.39,-6.57 z" 
                fill="rgb(151, 144, 238)" 
                stroke="white" 
                stroke-width=".7px"
                title="Rapti" 
                id="NP-RA" 
            />
        </svg>