<svg xmlns="http://www.w3.org/2000/svg" viewBox="599.2116100000005 260.8083599999999 102.0599999999996 184.81000000000006" width="102.0599999999996" height="184.81000000000006">
            <path 
                d="m 657.31161,262.18836 0.55,4.54 1.13,1.31 1.68,-0.22 3.18,3.06 4.14,-1.42 1.08,0.27 0.79,2.19 5.04,2.6 1.71,2.57 2.48,0.88 2.59,-0.16 0,0 -0.65,6.82 3.56,9.51 -2.91,3.9 -0.4,2.07 3.28,3.51 -1.43,3.37 -0.38,6.32 -2.68,5.42 -1.52,13.38 -3.43,4.99 1,5.73 3.26,3.6 -0.11,3.49 3.05,0.96 -3.81,4.17 -2.11,-0.09 -1.89,1.23 0.74,3.6 1.33,1.33 0.2,3.09 -2.19,6.71 0.51,2.13 3.87,2.8 0.14,8.46 2.28,4.58 -1.04,4.36 0.97,1.88 2.52,2.37 5.19,-3.42 7.62,-1.96 2.79,0.5 1.83,2.26 -0.84,4.36 -1.66,2.33 -8.45,8.28 -5.63,7.98 -2.75,2.51 -4.24,6.64 -1.33,4.25 0.4,4.29 0,0 -1.09,0.14 -0.23,2.97 -3.49,0.19 0.04,2.75 -3.43,0.68 -1.87,1.69 -7.31,-1.96 -3.28,3.64 -3.17,-1.56 -0.55,-1.16 -6.43,-2.11 -1.75,-2.12 -4.04,-1.08 -3.42,-4.76 -3.67,-0.09 -4,-2.72 -6.1,-2.02 -0.18,-1 -5.24,-1.24 0.24,-1.16 -3.41,-0.36 -1.42,0.75 -3.93,-0.04 -2.53,2.55 -2.91,-0.5 -0.41,-2.08 -1.56,-0.02 0,0 3.03,-6.22 -1.71,-3.74 -2.34,-1.38 -1.4,-4.09 1.07,-5.52 -1.04,-9.67 1.26,-0.54 5.05,2.38 4.02,-0.3 2.74,-2.08 2,-2.69 4.54,-1.35 1.32,-1.29 2.14,-8.93 -1.22,-2.54 0.38,-2.16 -0.61,-2.93 2.3,-7.13 -10.86,-7.82 -3.96,-0.4 -1.11,-1.08 2.54,-5.07 -1.32,-3.55 -0.12,-5.71 3.76,-6.17 4.75,-3.98 1.46,-3.17 4.37,-5.3 3.42,-1.97 0.89,-2.17 4.33,-5.2 2.04,-4.78 4.84,-1.7 3.27,-2.03 0.37,-4.6 -2.57,-7.04 0.37,-4.21 1.1,-2.31 -1.35,-4.5 -3.54,-4.41 0,0 -1.95,-2.15 0.54,-3.95 0.79,-1.65 3.58,-2.14 3.17,-4.09 2.05,-0.49 3.09,1.07 4.32,-3.34 4.04,0.06 z" 
                fill="rgb(151, 144, 238)" 
                stroke="white" 
                stroke-width=".7px"
                title="Sagarmatha" 
                id="NP-SA" 
            />
        </svg>