<svg xmlns="http://www.w3.org/2000/svg" viewBox="44.59160500000003 41.0483640000001 128.85000499999995 186.72999599999991" width="128.85000499999995" height="186.72999599999991">
            <path 
                d="m 110.99161,44.508364 1.93,1.14 1.4,-0.22 1.73,-0.51 2.54,-2.52 0,0 3.93,3.28 3.22,0.37 2.39,2.11 2.38,-0.06 2.89,-2.31 4.03,1.92 1.76,1.97 -0.3,4.21 0.68,6.04 2.55,-1.31 1.42,0.01 4.15,-2.54 3.52,0.27 7.03,-2.3 2.87,0.86 1.7,2.19 8.52,1.29 0.59,3.3 -0.51,4.57 -1.18,0.13 -1.41,1.69 -1.35,5.98 0.26,2.53 -0.92,2.45 -3.6,2.47 -0.25,2.48 1.03,6.23 3.26,0.28 2.1,1.86 0.39,9.539996 1.54,1.87 2.16,8.5 -0.94,3.84 -3.09,4.3 -3.42,2.86 -6.67,2.99 -1.61,-0.68 -0.43,-2.77 -2.85,-3.12 -3.75,0.1 -8.4,7.32 -2.54,3.15 0.72,1.84 1.63,1.39 -0.67,7.68 1.3,2.64 3.37,3.05 2.28,0.5 0,0 0.17,1.03 -8.23,4.99 -3.62,4.92 0.03,6.77 3.38,3.66 0.91,3.3 5.49,6.32 1.16,3.56 2.25,1.73 1.06,3.45 -2.59,0.84 -2.01,-0.92 -0.58,-2.39 -6.05,-6.35 -3.51,-6.83 -2.13,0.73 -2.52,-0.24 -2.83,1.25 -1.65,-2.05 -5.29,1.17 -8.16,-0.69 -11.21,-6.65 -3.330005,0.05 -7.51,2.48 3.46,5.74 5.450005,2.71 6.4,1.6 0.04,3.08 3.29,2.21 2.48,-4.22 2.19,-0.58 1.12,6.83 1.34,4.01 3.92,6.75 0.4,3.11 -7.28,8.13 -0.88,3.19 -3.64,4.55 -4.92,4.59 -3.05,1.87 -0.57,3.24 -2.510005,3.47 0,0 -2.26,-1.57 -0.65,1.33 -1.45,-1.14 1.71,-2.15 -0.95,-0.78 -1.33,0.39 -0.27,-1.63 -1.15,-0.21 -2.94,1.69 -0.6,-0.73 1.2,-1.07 -1.95,0.57 -1.88,-0.59 0.29,-1.69 -1.32,1.31 -0.75,-0.09 -0.14,-0.8 -0.74,0.65 -0.97,-0.49 -0.31,-1.9 1.02,-1.76 -1.71,-1.19 -2.71,-0.03 0.13,1.41 -2.36,-0.62 -1.75,-2.02 -3.64,-0.97 0.1,-1.78 -1.55,-1.21 -0.1,-1.54 -2.36,-0.86 -1.17,0.69 -3.22,-0.95 -0.77,-1.21 0.37,-1.74 -1.66,-0.26 -0.06,-1.66 -1.04,-0.88 -0.17,-1.44 -3.66,0.35 -2.36,-1.37 -1.33,0.33 0.18,-1.06 -1.13,-0.63 0.65,-2.02 -4.03,-1.2 0,0 0.82,-3.98 -0.47,-3.26 -3.81,-9.45 1.4,-12.92 -0.7,-2.34 0.29,-2.21 3.17,-9.1 -1.28,-2.78 2.83,-1.53 1.39,-4.37 11.93,-5.54 0.64,-2.38 2.34,-2.19 3.1,-5.97 -0.85,-5.63 3.62,-2.28 4.21,-0.55 2.7,-2.2 2.34,-4.35 -0.5,-2.72 -1.18,-1.61 -2.37,-1.52 -4.37,0.09 -0.42,-3.45 -3.59,-2.46 -0.46,-2.979996 1.89,-0.52 1.3,-2.94 0.43,-4.3 -1.19,-4.92 12.76,-5.83 5.93,-0.24 8.66,-2.17 2.250005,-4.26 -1.010005,-4.52 -2.2,-2.52 -0.16,-3.72 -2.95,-3.54 -1.35,-3.33 2.52,-7.43 1.76,-1.61 2.820005,-1.02 1.44,-1.91 3.49,-1.75 0,0 z" 
                fill="rgb(151, 144, 238)" 
                stroke="white" 
                stroke-width=".7px"
                title="Seti" 
                id="NP-SE" 
            />
        </svg>