<svg xmlns="http://www.w3.org/2000/svg" viewBox="322.10341000000005 0.2985800000000003 206.7499999999999 184.01000000000008" width="206.7499999999999" height="184.01000000000008">
            <path 
                d="m 405.31341,11.53858 -0.08,-1.45 2.35,-1.33 2.89,-1.63 1.45,-2.8 2.09,-4.03 5.61,1.67 4.83,3.29 1.96,1.33 6.29,11.83 2.76,5.19 -0.06,2.67 -0.2,9.4 7.2,12.89 3.57,1.81 4.13,7.24 -1.23,8.19 0.56,9.01 2.86,1.36 0.51,-0.4 3.47,-2.71 3.83,-13.65 2.92,2.69 11.09,10.21 2.37,2.18 -8.8,11.01 -1.87,5.67 0.16,0.79 0.6,3.01 0.44,2.18 -32.26,-10.26 -5.44,-18.38 -1,-4.55 -1.2,-2.32 -3.73,-7.18 -3.42,-11.27 0.08,-0.35 0.05,-0.22 2.47,-10.31 -0.7,-5.92 -0.61,-0.93 -1.47,-2.26 -11.51,-5.52 -2.79,-3.6 -0.17,-2.55 z m 113.76,71.18 -3.23,-1.83 -2.85,0.55 -1.39,0.27 -0.33,0.06 -5.87,-4.55 -0.22,-2.95 -6.13,2.15 -4.58,6.15 -0.06,0.08 -5.06,10.33 -0.29,0.6 -5.75,-0.59 -2.08,-0.21 -3.8,1.27 -0.03,0.03 -0.15,0.16 -2.2,2.37 -1.34,3.17 -0.48,1.13 0.5,3.07 0.24,1.47 3.57,2.55 3.8,5.25 1.83,4.63 -0.24,5.82 0.38,1.01 2.26,6.05 0.49,1.3 1,-0.43 10.14,-4.42 3.87,-0.73 3.67,-0.7 1.58,-2.02 1.28,-1.64 -0.8,-2.43 1.25,-3.78 -0.45,-2.94 3.19,-6.27 -10.77,-7.92 -0.09,-4.53 1.84,-1.09 6.91,0.31 2.64,0.12 8.32,2.12 -0.02,-0.56 -0.55,-12.43 z m -112.77,32.45 -0.16,-8.89 -0.01,-0.42 -3.42,-7.53 -0.82,-1.8 -3.38,-17.31 -8,-14.26 -10.38,-18.5 0.87,-4.4 -1.47,-2.95 0.2,-0.15 1.45,-1.25 -1.73,-8.1 -2.43,-0.34 -1.58,-0.22 -1.19,-2.76 -5.45,-1.09 -3.94,8.13 1.29,10.1 -2.14,8.9 3.47,10.68 0.26,5.74 0.03,0.73 0.4,0.7 5.23,9.12 2.47,4.31 3.64,10.37 0.23,0.44 1.71,3.31 2.35,4.6 4.24,8.3 2.25,4.39 12.28,2.73 3.73,-2.58 z m 53.76,-3.45 -4.66,-6.93 -7.4,-2.08 -6.91,-5.18 -6.85,-7.15 -2.6,-3.99 0.92,-4.04 -4.17,-11.95 -4.66,-6.92 -6.92,-9.96 -2.73,-5.53 -1.89,-12.94 -1.14,-2.24 -1.42,-2.8 -2.37,0.17 -3.12,0.23 -3.98,4.07 -0.97,3.34 -1.77,6.09 4.14,9.61 0.13,0.3 -0.35,4.16 -0.02,0.31 6.76,14.13 -0.82,22.66 2.82,8.7 0.23,0.71 0.6,5.5 -1.15,7.25 -0.72,1.2 -2.81,4.7 0.24,0.87 2.51,9.08 -0.07,0.8 -0.14,1.55 -0.08,0.92 -4.12,-2.15 -1.63,-8.6 -0.2,0 -1.39,0.01 -7.61,0.06 -0.12,0 -0.49,3.05 1.42,5.29 0.67,2.49 -0.03,0.77 -0.19,5.36 1.3,3.9 3.23,1.56 3.9,6.92 0.86,1.53 7.72,13.69 2.88,2.37 2.43,2 5.29,8.87 0.06,0.02 1.3,0.35 1.71,0.46 0.42,-1.33 0.4,-1.29 -0.57,-7.58 -0.02,-0.28 -0.37,-0.68 -4.09,-7.49 -1.85,-3.36 0.72,-4.73 -1.76,-2.19 -3.09,-9.45 -2.82,-2.83 1.22,-3.39 1.52,-0.34 1.41,-0.32 4.33,4.99 2.66,3.07 1.41,4.83 1.97,6.78 4.49,6.36 4.61,3.66 3.2,6.63 1.82,0.1 15.42,0.87 3.03,-3.15 0.48,-2.46 0.24,-1.1 0.21,-0.96 -1.39,-1.67 -1.92,-2.31 1.45,-9.94 -0.13,-1.21 -0.94,-8.49 -14.25,-3.78 -6.82,-7.54 -7.06,-10.66 -2.16,-6.4 -0.64,-1.9 0.73,0.24 2.49,0.82 2.89,0.95 6.31,7.01 8.21,6.73 2.94,2.43 14.11,-2.79 0.51,-0.64 1.79,-2.23 0.97,-9.75 0.26,-2.59 -3.86,-3.98 -4.1,0.75 z m -86.29,5.36 -3.26,-5.32 -0.09,-0.15 -2.59,-8 -0.25,-0.78 -1.62,-5.07 -1.69,-5.29 -0.67,-2.09 -11.06,-19.12 -1.98,-3.42 -3.86,-6.67 -0.26,-1.14 -1,-4.38 -3.94,-8.14 -3.3,-15.87 -2.53,-0.43 -0.46,-0.7 -7.76,-11.86 -4.2,0.08 -1.15,7.46 3.02,10.85 0.56,2.03 0.32,1.17 0.54,3.28 0.09,0.56 8.03,20.38 3.05,7.73 0.69,1.76 2.53,4.54 8.65,15.49 2.3,2.15 4.61,4.13 3.09,5.58 -0.72,20.96 2.04,4.09 8.67,7.23 5.02,2.53 5.38,-2.53 0.99,-4.58 0.31,-1.43 -2.13,-11.77 -5.37,-3.26 z m 152.58,-74.61 -3.88,1.73 -4.34,0.63 -2.64,0.39 -1.58,-1.15 1.35,-2.23 0.59,-0.97 -0.36,-0.72 -1.65,-3.28 -6.18,-0.63 -2.4,-0.25 -1.57,2.98 -0.59,1.12 -0.62,1.18 -0.1,1.92 -0.6,11.43 5.67,9.92 0.31,0.55 1.11,-0.15 5.92,-0.77 3.96,-0.52 2.08,-1.2 0.85,-1.42 2.39,-4 0.14,-0.25 3.01,0.95 0.54,-1.38 0.3,-0.77 0.79,-6 -2.5,-7.11 z" 
                fill="rgb(151, 144, 238)" 
                stroke="white" 
                stroke-width=".7px"
                title="Norderøerne" 
                id="FO-NO" 
            />
        </svg>