<svg xmlns="http://www.w3.org/2000/svg" viewBox="273.38341 383.75858000000005 116.99000000000001 180.27999999999997" width="116.99000000000001" height="180.27999999999997">
            <path 
                d="m 350.83341,562.26858 0.43,0.91 -1.3,0.86 -4.01,-1.15 -4.1,-1.18 -0.06,-0.02 -0.38,-6.24 -0.18,-2.99 0.15,-0.9 0.38,-2.25 0.38,-2.35 3.34,1.54 3.1,3.88 -0.33,4.44 2.58,5.45 z m -19.11,-52.62 -1.08,-4.88 -0.2,-0.55 -5.23,-14.51 -3.3,-3.37 -5.87,-1.8 -3.23,0.63 -1.07,-0.83 -2.08,-1.6 -0.21,0.71 -1.8,6.11 0.54,10.75 5.29,5.78 3.42,3.73 2.16,2.36 1.82,1.99 11.33,-2.35 -0.44,-2.01 -0.05,-0.16 z m 58.08,-60.94 -1.43,0.65 -6.09,0.16 -3.82,-8.49 -2.6,-2.47 -2.76,-2.61 -1.78,-5.46 -4.67,-5.73 -6.8,-1.15 -7.1,-3.41 -1.15,-2.28 -0.52,-1.03 -0.53,-0.02 -6.11,-0.22 -0.53,-0.3 -10.51,-6.06 -0.06,-0.21 -0.25,-0.87 -2.21,-7.58 -1.72,0.26 -1.36,0.21 -1.51,-2.71 -1.38,-2.48 -0.79,-0.31 -2.22,-0.87 -4.2,1.18 -4.95,-1.62 -1.29,-0.42 -0.53,0.22 -4.41,1.83 -0.74,-1.2 -4.95,-8.09 -0.95,-0.26 -2.89,-0.79 -7.47,1.33 -0.2,0.04 -2.46,-0.77 -10.92,-3.42 -1.22,0.31 -1.34,0.34 1.86,4.57 2.12,0.63 2.37,5.47 3.31,3.51 0.22,4.41 3.16,2.73 -2.04,4.27 -0.27,0.56 2.75,3.85 0.33,6.86 2.19,4 0.74,5.82 2.99,1.89 1.47,4.87 -3.85,-1.15 -0.9,-0.27 0.4,0.94 4.73,11.16 2.84,1.14 1.79,6.55 0.73,0.14 2.64,0.49 0.77,-1.56 -0.82,-2.04 3.01,-4.64 2.52,0.3 9.27,-3.31 0.27,0.06 1.9,0.21 1.28,4.51 1.49,1.4 2.88,2.73 -0.16,-2.77 -0.3,-5.12 -0.06,-1.09 -0.06,-0.99 0.3,-0.02 2.97,-0.22 10.29,5.19 1.57,0.79 0.01,0.35 0.07,2.71 5.06,14.72 0.51,6.48 4.61,6.87 0.06,0.15 0.2,0.52 2.39,6.35 4.2,3.53 2.71,4.63 3.2,0.63 2.44,6.74 3.91,1.37 1.14,3.26 2.08,1.73 3.08,-0.08 2.3,-4.62 2.72,-0.24 -0.67,-1.88 2.79,-2.59 -1.84,-3.53 -4.55,-8.71 -2.64,-2.03 3.86,-2.47 4.24,-2.71 -0.08,-3.35 -0.21,-8.65 -0.01,-0.25 -0.05,-0.05 -3.29,-3.09 -1.15,-1.13 -0.19,-0.19 2.45,-2.61 1.56,-0.85 6.85,-3.74 0.39,-3.89 0.07,-0.16 0.45,-1.07 1.62,-3.88 -0.57,0.16 z" 
                fill="rgb(151, 144, 238)" 
                stroke="white" 
                stroke-width=".7px"
                title="Sandø" 
                id="FO-SA" 
            />
        </svg>