<svg xmlns="http://www.w3.org/2000/svg" viewBox="158.95340999999988 71.51857999999997 239.39000000000036 299.29" width="239.39000000000036" height="299.29">
            <path 
                d="m 398.32341,350.31858 -1.41,4.34 -2.82,2.6 -1.78,-1.64 -2.75,-2.54 -0.26,-0.36 -1.45,-2 -0.79,-6.32 -0.22,-1.73 -0.74,0.21 -1.26,0.35 -3.73,-6.14 -1.21,-1.99 -2.97,-1 -0.08,-0.03 -1.47,-5.26 -0.27,-0.98 0.12,-0.71 1.92,-11.14 -0.44,-3.32 -6.33,-12.34 -0.28,-0.54 1.3,-0.48 6.17,4.74 0.28,2.05 0.22,1.61 0.35,2.51 3.2,4.82 5.79,5.93 0.22,0.25 0.8,4.85 0.1,0.58 1.11,0.4 1.59,0.55 0.68,0.24 -0.21,3.8 -0.23,4.17 2.16,3.2 0.18,0.27 4.16,6.16 0.37,4.82 -0.02,0.07 z m -45.13,-6.16 -0.58,-3.83 2.07,-6.98 -0.4,-2.59 -0.05,-0.33 -8.55,-5.38 -1.74,-1.09 -0.17,-0.41 -2.17,-5.28 -0.03,-0.03 -3.38,-3.13 0.11,-0.25 3.64,-7.98 1.19,0.16 1.4,-2.63 0.04,-0.07 2.62,-1.29 -1.69,-8.74 3.24,-1.61 0.25,-0.13 -0.78,-0.51 -2.38,-1.55 -2.7,-11.12 -0.49,-2.01 -6.35,-0.24 -0.97,-0.46 -5.27,-2.47 -13.48,2.85 -13.56,-6.57 -6.46,-1.19 -4.35,-3.48 0.25,0 2.27,0.02 6.29,0.06 4.68,1.78 0.37,0.14 6.33,2.41 0.06,0.02 0.07,-0.03 7.75,-3.51 0.44,-0.2 7.78,-5.37 -11.52,-22.77 -3.78,-7.49 -5.75,-1.81 -4.23,-3.74 -5.22,-1.43 -3.69,2.07 -5.26,5.66 -9.16,2.44 -0.1,-0.23 -1.57,-3.58 6.38,-0.94 4.73,-4.53 3.31,-3.25 5.68,-1.11 3.71,-2.78 0.65,-5.54 0.1,-0.81 -1.75,-1.7 -2.82,-2.75 -1.98,-4.23 -1.25,-2.68 -3.12,-2.41 -3.46,-2.67 -2.66,-2.06 -6.08,-1.28 -3.35,-0.71 0.02,-3.23 0.01,-0.75 -4.8,-5.4 -2.61,-2.53 -4.18,-3.21 -0.07,-0.06 -6.79,-5.23 -0.84,-0.65 -6.24,-2.62 -5.76,-2.54 -0.09,-2.22 -0.06,-1.6 5.87,-0.48 0.2,-0.3 1.47,-2.18 0.15,-0.22 0.22,-4.33 -6.57,-11.27 -5.87,-4.61 -0.56,-0.97 -2.67,-4.61 -6.8,-11.77 -0.95,-2.47 -5.74,-19.21 -9.07,-16.06 -0.03,-0.05 -0.07,-0.03 -1.01,-0.41 -6.27,-2.55 -0.26,0.2 -4.17,3.28 -2.01,1.51 0.26,-6.06 -0.31,-0.54 -0.88,-1.53 -3.39,-1.84 -5.07,-2.75 -2.61,0.8 -0.16,0.05 -4.74,6.86 -1.31,0.3 -1,-3.13 -6.71,-1.99 -0.35,1.02 -1.23,3.52 -2.19,-0.07 -0.65,3.63 -1.69,2.13 1.37,2.47 0.26,2.41 0.64,5.97 -1.52,1.59 -0.19,6.38 -2.45,3.27 -0.28,4 0.74,3.33 0.7,3.17 0.02,0.1 8.13,3.11 -4.61,1.19 -1.49,7.43 -0.39,1.97 -3.35,16.72 -3.08,5.81 2.2,2.95 -3.94,7.39 -1.46,7.4 -1.07,0.47 5.68,4.01 4.05,5.21 6.75,12.35 4.09,3.38 6.32,1.55 2.72,0.67 2.86,5.13 1.78,3.2 1.86,6.36 0.2,0.17 9.16,7.91 0.18,0.16 0.1,0 8.79,-0.11 7.19,2.22 3.78,1.15 1.06,-1.85 0.67,-1.18 0.48,0.23 4.52,1.93 7.11,-2.42 0.79,-0.31 -0.02,0.84 -0.11,3.88 1.9,1.83 1.3,1.25 7.71,7.4 2.19,6.66 0.29,0.44 2.79,4.31 0.24,2.14 1.47,13.3 -0.6,3.5 -1.37,8.06 2.23,3.88 1.69,-1.75 0.78,2.99 1,3.78 3.06,0.99 0.31,-0.12 5.38,-2.09 7.76,-0.16 2.05,0.91 1.18,0.52 0.99,2.15 4.25,9.24 0.48,3.39 1.9,13.45 2.18,1.84 3.62,3.06 4.64,1.97 2.24,3.68 2.87,0.81 5.83,6.8 10.64,12.4 5.46,6.47 5.6,5.2 4.43,2.48 5.58,5.97 5.59,0.17 2.85,1.57 0.62,-0.64 5.73,-5.91 -3.94,-11.68 1.31,-2.35 z m -86.37,-20 -0.03,-0.07 -0.7,-1.72 -5.59,-5.95 -0.96,-1.02 -0.18,-0.19 -2.18,-2.32 -5.65,-0.83 -0.29,-0.04 2.63,7.15 0.86,2.33 7.79,5.45 7.33,8.52 1.63,0.08 -0.44,-1.07 -4.22,-10.32 z m 29.63,25.29 -1.87,-1.5 -0.35,-1.29 -0.63,-2.34 -4.42,-3.02 -3.23,-0.64 -3.98,0.07 -1.5,1.23 0.12,0.33 2.22,6.22 3.43,2.82 4.93,7.19 1.38,0.58 1.81,0.76 0.45,0.91 0.63,1.27 2.66,5.37 0.16,0.33 0.3,0.04 2.93,0.43 1.81,2.26 0.28,0.34 0.13,-0.3 0.65,-1.51 1.53,-1.41 0.7,-0.64 -6.39,-14.51 -3.75,-2.99 z" 
                fill="rgb(151, 144, 238)" 
                stroke="white" 
                stroke-width=".7px"
                title="Strømø" 
                id="FO-ST" 
            />
        </svg>