<svg xmlns="http://www.w3.org/2000/svg" viewBox="253.59341000000003 588.0785800000001 122.52000000000018 204.2199999999999" width="122.52000000000018" height="204.2199999999999">
            <path 
                d="m 376.11341,776.17858 -2.16,16.12 -1.69,-2.36 -1.95,-0.06 -2.04,2.41 -2.86,-4.71 -4.65,-3.53 -4.3,-1.97 -9.15,-4.32 -4.59,-5.99 -0.34,-1.26 -2.66,-9.68 -0.45,-0.22 -1.96,-0.94 -10.2,-9.69 -3.15,-2.99 -0.1,-0.09 -3.78,-3.59 -1.62,-0.46 -1.91,-0.55 -0.74,-1.12 -1.29,-1.94 1.33,-2.45 -0.55,-0.3 -1.89,-1.02 -3.91,-0.07 -1.23,-2.13 -3.16,-5.48 -3.16,-0.55 -0.89,-0.15 0.4,-0.72 1.85,-3.3 -1.75,-0.58 -0.46,-2.86 0.99,-2.84 -5.12,-6.87 -2.62,-0.13 -0.58,-0.03 -0.08,-0.37 -0.59,-2.8 -0.88,-4.16 -0.45,-2.85 3.05,-5.83 0.81,-5.31 0.16,-1.04 0.41,-2.67 -5.02,-4.99 -6.27,-4.82 -0.33,-3.19 -0.85,-4.12 -3.31,-2.8 -0.22,-3.74 -1.71,-3.69 -0.13,-0.29 -3.48,-3.29 -1.37,-1.32 -5.26,-2.63 -3.07,-4.58 -3.17,-1.52 2.4,-2.79 1.01,-3.9 2.76,-2.42 -7.73,-3.42 -0.66,-2.53 -3.8,-3.47 2.6,-1.52 0.95,-0.55 1.16,-0.67 1.67,-2.27 -4.89,-3.01 -0.6,-4.12 -3.29,-3.45 4.2,-2.65 1.41,-2.97 0.26,-0.55 0.26,-0.55 4.12,-1.09 -2.26,-7.42 0.27,-0.34 1.22,-1.53 6.61,-1.41 14.97,-3.04 1.33,1.02 7.22,5.54 -0.27,3.54 -8.2,5.28 -1.04,4.84 3.31,0 1.67,0 5.24,-1.87 3.75,0.7 1.33,1.07 0.42,0.33 -4.38,2.19 -11.36,9.36 -1.89,4.21 -7.8,2.5 2.19,4.31 5.31,-3.22 1.73,1.32 13.12,-2.67 4.95,1.04 7.39,-1.4 2.31,2.14 3.93,3.63 -1.05,4.41 2.54,1.89 0.93,0.7 0.03,0.02 0.29,2.85 0.1,0.94 0.13,1.28 3.38,0.92 4.94,1.42 3.31,-2.57 8.88,0.86 6.71,2.49 1.06,0.39 0.37,1.91 0.08,0.42 0.45,2.34 -2.12,4.75 3.77,3.01 1.18,0.94 1.29,1.03 0.42,2.47 0.22,1.27 0.11,0.63 -2.62,1.69 -0.27,0.18 -1.51,3.91 -0.05,0.14 -2.92,-0.49 -2.45,-0.41 -1.93,-0.33 -0.5,-0.09 -0.19,0.17 -0.55,0.49 -1.92,1.71 -0.84,0.75 -1.89,-2.6 -3.71,-5.1 -9.97,-5.62 -1.98,-1.12 -2.06,-1.16 -0.11,0.33 -0.99,2.51 14.75,10.82 0.62,2.48 1.19,1.64 6.8,3.16 0.57,0.27 5.68,0.7 4.49,3.89 0.23,0.4 2.85,4.99 0.78,1.37 -0.51,2.95 -0.16,0.94 0.23,0.46 0.56,1.11 2.1,4.14 0.86,1.69 -12.15,0.47 0.85,2.65 0.19,0.58 0.04,0.11 0.24,0.31 0.86,1.11 0.95,1.23 2.04,2.64 1.9,1.79 2.9,2.28 6.53,-2.31 2.12,0.6 0.79,1.91 0.33,0.78 -1.82,2.1 -3.79,1.16 -0.73,1.14 -0.57,0.88 -2.3,-0.16 -1.24,-0.09 -1.3,1.38 -2.67,0.28 -2.25,3.63 -2.13,1.3 -1.32,0.8 -0.34,0 -5,0 -3.12,-1.55 -5.87,-0.54 -2.71,1.24 5.09,4.04 4.23,5.31 0.81,1.02 1.2,1.51 -0.76,1.9 0.55,3.65 0.45,2.97 0.03,0.16 2.84,-0.08 1.29,-6.36 1.47,-1.75 11.52,-4.08 3,0.45 1.08,1.13 0.42,0.46 -3.5,12.03 -0.06,0.22 1.93,0.78 9.2,-2.85 0.31,-0.1 1.26,14.43 -0.76,2.83 -0.24,0.89 4.38,2.68 0.82,0.5 2.61,6.44 z m -9.59,-172.47 0.23,-2.56 -4.56,-1.71 -1.27,-0.48 -2.34,1.56 -0.55,2.54 -0.45,2.07 8.88,-0.62 0.06,-0.8 z" 
                fill="rgb(151, 144, 238)" 
                stroke="white" 
                stroke-width=".7px"
                title="Suderø" 
                id="FO-SU" 
            />
        </svg>