<svg xmlns="http://www.w3.org/2000/svg" viewBox="0.45341067999998974 188.78858 232.20999931999995 110.01000000000002" width="232.20999931999995" height="110.01000000000002">
            <path 
                d="m 93.203411,250.84858 6.06,4.31 -9.83,1.96 0.09,-3.98 3.68,-2.29 z m 138.789999,2.07 -5.27,-12.28 -4.64,-2.52 -17.39,-0.97 -6.94,-10.4 -4.28,-6.41 -1.19,-1.73 -0.09,-0.13 -0.06,-0.09 -2.65,-1.72 -6.78,-4.41 -14.15,-6.75 -2.64,-3.89 -0.13,-1.13 -0.76,-6.5 1.67,-1.27 -0.45,-2.94 -1.65,-0.36 -2.88,-0.63 -22.31,10.88 -5.11,2.49 -5.64,0.24 -0.19,7.78 -1.56,4.21 -0.84,1.35 -0.49,0.79 -1.64,-0.29 -5.97,-1.04 -0.86,-0.15 -7.42,-1.3 -3.86,-5.87 -3.79,0.24 -11.439999,-8.57 -1.86,1.83 -3.79,-1.43 -1.48,2.54 0.28,1.02 1.05,3.75 -1.15,1.59 1.38,3.65 -1.67,1.83 1.89,3.89 4.41,3.38 0.04,0.03 0.12,0.73 0.51,3 1.82,1.19 3.78,8.4 3.9,3.53 6.169999,-0.04 -1.87,2.33 5.22,1 2.82,3.33 2.71,-1.69 3.17,1.73 3.34,1.82 4.69,1.37 8.27,2.41 2.76,5.29 0.14,0.74 0.42,2.18 0.25,1.29 -4.82,-1.91 -5.41,-2.14 -2.25,0.98 -1.34,0.58 -2.75,1.2 -0.43,0.19 -0.78,-0.9 -4.46,-5.11 -0.3,-0.07 -3.53,-0.68 -8.47,5.09 2.31,2.38 -0.45,2.93 6.13,1.2 -0.09,3.96 -0.02,0.94 2.69,1.11 8.41,3.48 5.65,-0.79 3.14,3.49 0.21,0.23 4.05,-3.17 4.24,5.38 8.66,0.71 4.38,5.22 5.24,1 0.28,0.77 1.06,2.91 3.61,3.14 3.22,2.8 1.1,1.2 0.22,0.23 2.03,2.21 0.54,-0.3 2.69,-1.52 0.34,-0.19 7.01,1.46 1.71,-1.19 2.86,-1.98 2.02,-1.4 3.56,-2.47 0.74,0.13 3.96,0.72 6.15,-6.7 -4.57,-4.51 -2.84,-0.76 -1.86,-0.5 -2.67,-0.71 -3.92,-2.62 2.02,-0.17 0.04,0 4.57,-0.4 3.17,-0.27 3.06,-5.74 0.35,2.02 0.6,3.3 1.92,1.85 3.95,0.85 2.69,-0.27 2.88,-0.29 3.28,-0.35 2.59,-0.28 2.49,2.77 4.72,-0.24 0.98,-2.47 1.37,-3.46 0.85,-10.69 5.97,-6.33 -0.67,-3.17 z m -178.909999,-15.93 -7.79,-8.53 -3.94,-1.69 -3.01,-3.73 -6.54,-0.32 -5.87,3.17 -2.17,-0.01 -1.37,1.75 -1.43,1.83 -4.7,0.22 -0.39,0.02 -4.42,3.41 -9.3100003,3.83 -1.69000002,2.83 5.09000002,-0.24 2.05,-1.19 3.4300003,-1.98 4,-0.66 7.71,3.31 0.11,0.06 0.1,0.01 9.34,0.65 1.33,0.09 0.38,0.03 6.02,-1.35 3.57,2.62 3.59,0.74 11.92,2.47 -1.31,-6.19 -4.7,-1.15 z" 
                fill="rgb(151, 144, 238)" 
                stroke="white" 
                stroke-width=".7px"
                title="Vågø" 
                id="FO-VG" 
            />
        </svg>