<svg xmlns="http://www.w3.org/2000/svg" viewBox="212.0634099999999 46.14857999999994 193.93000000000015 224.28000000000003" width="193.93000000000015" height="224.28000000000003">
            <path 
                d="m 367.09341,204.60858 0,0.15 1.88,0.76 10.3,4.18 2.09,2.42 0.54,2.67 0.24,1.18 2.08,2.46 0.08,0 2.85,-0.11 2.85,3.7 4.42,5.72 0.17,0.22 -1.91,1.31 -6.83,4.68 -0.74,0.51 -4.74,0.91 -1.82,-0.05 -2.33,-0.06 -0.39,-0.01 -3.08,-2.93 2.11,14.74 0.01,0.08 -0.64,1.48 -0.38,0.89 -2.72,6.27 1.33,4.51 0.94,3.17 -0.75,3.39 -0.29,1.28 -2.08,2.3 -2.04,-0.14 -2.49,-0.17 -12.39,-24.39 -0.12,-0.24 -0.16,-0.31 -0.73,-1.43 0.55,-4.98 0.01,-0.09 -0.04,-0.08 -2.37,-4.36 2.39,-5.76 0.2,-0.51 4.36,0.16 -0.61,-8.78 -3.25,-10.97 0.27,-2.76 -15.24,-27.73 -1.01,-0.8 -4.83,-3.8 -3.36,-2.64 -4.24,-4.78 -2.74,-3.09 -3.42,-3.89 -5.27,-1.99 1.15,3.56 1.37,4.24 12.15,13.59 3.73,4.13 0.41,0.49 2.94,3.5 0.05,0.09 0.39,0.72 4.15,7.76 1.98,3.69 3.14,5.84 1,18.17 -4.75,12.03 0.51,5.24 0.16,1.68 -4.6,-3.01 -6.39,-10.62 -8.58,-8.96 -5.53,-2.54 -7.43,-11.51 -4.26,-9.2 -3.87,-3.9 -5.76,-1.67 -2.97,-2.41 -0.74,-0.61 -1.41,0.39 -9.4,2.57 -1.66,-3.44 -0.58,-1.3 -0.25,-0.49 -0.08,-0.16 -7.64,-9.13 -1.11,-1.32 -1.41,-3.5 -0.8,-1.99 -5.15,-3.57 -1.96,-0.27 -3.31,-0.46 -0.41,-4.37 -4.2,-11.75 0.57,-3.1 0.1,-0.56 -0.9,-0.69 -3.93,-3.04 -0.12,-0.22 -3.05,-5.61 -2.55,-2.77 -2.56,-5.73 -3.6,-1.91 0.02,-4.44 0.02,-3.21 -3.99,-8.76 -1.1,-2.4 -0.34,-0.76 -0.76,-6.12 -2.5,-8.28 -3.01,-3.19 0.2,-6.19 -2.12,-3.59 -4.66,0.2 -6.29,0.28 0.71,-3.22 1.41,-6.44 2.97,-8.14 0.2,-0.16 1.1,-0.89 2.52,2.13 1.94,1.64 2.96,4.67 0.42,0.67 3.27,-0.96 9.77,-3.03 8.06,-7.67 -0.1,-1.03 -0.07,-0.68 -0.05,-0.52 1.86,-3.18 7.18,-1.79 1.15,-1.44 2.74,0.27 1.34,-2.4 3.8,0.15 4.41,0.17 0.47,3.27 5.05,2.15 2.36,4.72 0.04,0.08 6.75,3.98 5.99,3.53 2.45,3.19 -9.06,3.91 -6.25,5.28 -7.83,6.61 3.73,11.22 0.06,0.2 -1.78,13.47 5.24,16.22 0.9,1.33 2.46,-0.86 0.13,-0.05 -0.1,-0.1 -2.89,-2.87 -3.53,-9.41 0.68,-4.36 3.27,-5.73 1.4,-6.98 0.53,-2.66 1.08,0.8 2.95,-0.85 1.71,-1.97 3.24,0.67 3.78,-3.41 1.13,-1.02 10.43,-1.15 6.27,-2.93 0.04,-0.02 2.21,1.41 5.67,3.62 1.49,4.06 -6.51,1.46 -0.66,0.15 -0.12,0.42 -2.63,8.99 -0.42,2.61 -0.03,0.18 0.13,1.22 0.06,0.54 12.47,-5.13 3.24,-1.33 2.75,1.55 11.22,6.34 2.61,2.68 0.73,0.75 1.7,4.07 -0.51,4.37 -1.05,2.1 -1.1,2.21 -4.59,3.42 -2.69,2 -3.31,0.24 -5.24,-6.85 -0.18,-0.23 -1.45,0.16 0.14,0.32 4.47,10.1 0.25,0.57 0.97,1.04 0.32,0.24 2.66,2.06 5.17,3.79 2.44,-0.74 3.99,-1.22 4.49,-3.18 3.45,-0.08 2.53,1.04 8.44,8.63 27.88,10.06 0.19,2.05 1.12,12.34 -2.84,2.65 -13.57,-6.65 -5.54,-2.68 -17.91,-3.88 -1.37,-2.25 -1.34,1.97 0.07,3.29 -2,-0.08 0.3,6.6 5.56,8.16 3.64,1.12 0.31,0.1 2.75,-0.64 0.14,0.11 3.52,2.91 6.26,5.16 0.92,0.36 8.73,3.38 10.12,8.69 1.54,1.32 0.72,0.38 2.03,1.05 10.62,5.4 0.68,4.39 -9.62,-3.2 -9.97,-5.61 -19.01,-1.72 -0.3,3.52 z" 
                fill="rgb(151, 144, 238)" 
                stroke="white" 
                stroke-width=".7px"
                title="Østerø" 
                id="FO-OS" 
            />
        </svg>