<svg xmlns="http://www.w3.org/2000/svg" viewBox="71.28036400000008 0.3920942000000345 279.08999600000004 267.7299957999999" width="279.08999600000004" height="267.7299957999999">
            <path 
                d="m 322.43036,42.662094 0.7,3.28 -4.6,5.25 0.66,4.27 2.95,1.31 -1.64,5.91 1.97,3.28 -1.64,9.84 4.27,9.85 -0.33,3.94 -1.64,8.86 -2.63,0 -5.91,5.249996 1.32,2.62 -1.32,1.97 3.61,3.29 -1.64,3.28 1.97,2.29 -0.33,2.3 2.3,3.28 2.96,-0.98 4.26,2.62 0.66,7.22 3.94,3.61 -0.33,-3.28 3.28,-1.64 0,-3.28 1.97,2.63 2.3,-0.66 0,0 1.97,2.3 0,0 -3.61,6.56 5.9,14.11 4.6,6.57 1.97,8.53 -1.64,9.19 -4.27,4.92 -8.21,3.94 -14.11,2.62 -1.31,3.94 -4.27,1.31 0,0 -3.61,4.27 0,0 -3.28,1.97 -3.61,-0.33 -7.22,6.24 -11.48,-1.97 -8.21,0.98 -1.97,-4.26 -9.19,-2.63 -0.65,-5.25 -9.85,-8.2 -7.22,-3.29 -1.31,3.29 -6.24,1.96 -5.58,-3.28 -3.93,-0.33 -1.97,2.3 1.64,12.14 -6.57,5.26 0,4.92 5.25,4.92 5.26,19.36 5.25,5.25 0.65,20.68 -3.97,6.38 0,0 -2.46,2.15 0,0 -19.03,2.63 -6.9,-4.92 -3.28,0 -5.25,-9.52 -17.06,-13.13 -1.97,-4.92 -4.27,-3.28 1.97,-2.3 -2.63,-2.63 -4.59,0.33 -5.58,-4.92 -3.28,-0.33 -12.14,-12.14 -10.18,-2.63 -9.19,-6.23 -6.23,-9.52 -13.46,-10.17 0,0 -0.42,-0.31 0,0 -3.45,-8.06 0.33,-6.24 12.14,-3.28 41.68,4.6 6.89,-0.66 4.92,-1.64 2.3,-2.63 1.31,-3.94 -3.28,-3.61 2.3,-6.89 -3.28,-2.3 -1.97,-4.26 0,-9.19 -8.53,-3.94 1.96,-8.2 -4.26,-13.79 -3.28,-3.94 -5.58,-3.28 -12.15,0.99 -4.59,-8.209996 -3.94,1.97 -3.94,-2.3 -9.19,1.97 -13.45,-5.25 -7.879996,11.489996 -4.26,-0.989996 -5.91,-9.51 -5.58,1.31 -10.83,-25.6 16.08,-3.61 -1.05,-3.49 0,0 2.19,2.33 12.119996,-0.44 0.42,-6.29 4.04,-4.44 0.81,-5.74 2.39,-2.94 -1.25,-4.81 10.6,-6.7 1.69,-8.74 5.51,-8.52 3.48,-1.4 7.72,0.8 2.93,-1.53 7.12,4.81 7.76,2.7 5.71,-2.35 13.88,4.92 3.72,-2.22 -1.36,-4.62 1.97,-1.35 -0.97,-2.06 5.87,-0.23 8.3,-9.8099998 3.44,4.25 -2.68,2.82 0.55,3.8499998 5.51,-0.29 -2.04,-3.4499998 1.15,-1.57 2.06,1.55 1.47,4.8899998 1.72,-1.04 0.18,-2.6799998 2.41,0.51 -1.79,4.5399998 4.15,-2.17 2.3,5.29 19.8,12.04 10.92,0.13 4.18,-9.36 1.91,2.77 3.67,-0.49 0.19,2.72 2.71,-0.15 0.09,3.14 5.29,3.16 8.47,0.73 4.96,-5.62 1.28,3.12 -0.84,4.16 6.51,-1.97 -1.44,5.97 3.13,-1.31 4.25,1.4 2.87,-4.62 0.87,4.64 3.38,-1.46 3.41,1.92 10.93,-6.25 13.81,10.69 z" 
                fill="rgb(151, 144, 238)" 
                stroke="white" 
                stroke-width=".7px"
                title="Banja-Luka" 
                id="BA-SR-BJ" 
            />
        </svg>