<svg xmlns="http://www.w3.org/2000/svg" viewBox="472.4503599999997 78.38209400000004 102.49000000000012 84.71999599999997" width="102.49000000000012" height="84.71999599999997">
            <path 
                d="m 543.30036,154.99209 -4.23,-2.06 0.66,-2.63 -7.55,-3.28 -4.59,1.97 -3.94,5.25 -3.94,0 0,0 -0.99,-2.63 0,0 2.3,-5.25 -4.59,-2.95 -1.97,1.97 -1.97,-1.97 -6.89,6.89 -2.63,10.17 -2.62,2.3 -4.93,0.33 -5.25,-4.27 -6.89,-1.31 -0.33,-5.91 -4.92,-1.64 -2.95,-3.28 -2.63,-7.55 2.3,-7.22 2.62,-2.95 9.19,-3.94 0.66,-4.27 -2.65,-4.96 0,0 1.34,-1.6 0,0 0,-3.28 2.95,-0.66 4.92,0.66 1.64,1.97 0,-1.64 3.94,1.31 3.61,-2.3 3.28,-9.52 4.27,-1.959996 2.95,3.929996 2.96,-3.929996 -3.61,-1.64 -0.18,-3.45 0,0 12.21,-2.07 3.25,-3.9 4.72,-1.63 9.81,-7.71 3.31,1.04 1.94,4.51 6.47,-3.59 3.97,2.07 4.13,-1.01 6.39,4.18 2.85,-0.06 1.26,4.64 1.99,0.33 -2.55,3.9 -2.74,-0.71 1.61,3.11 -2.75,3.669996 -3.96,-0.11 -0.3,5.73 -3.25,1.98 4.24,0.31 0.92,2.02 -4.25,1.8 3.86,5.89 -1.27,2.04 -2.75,-0.92 1.64,8.27 -5.4,2.68 -4.42,10.06 0.53,1.85 -4.9,4.55 0.42,3.53 -4.62,1.97 z" 
                fill="rgb(151, 144, 238)" 
                stroke="white" 
                stroke-width=".7px"
                title="Bijeljina" 
                id="BA-SR-BI" 
            />
        </svg>