<svg xmlns="http://www.w3.org/2000/svg" viewBox="440.38036 329.70209000000006 76.78999999999996 45.88000000000005" width="76.78999999999996" height="45.88000000000005">
            <path 
                d="m 440.38036,357.62209 0.47,-0.26 0,0 3.15,-2.65 0.33,1.82 4.63,1.49 1.16,-1.49 4.15,0.83 2.65,-5.3 0,0 -0.17,-0.09 0,0 4.11,-2.4 5.46,1.66 9.61,-17.06 1.99,0.16 3.81,-3.48 12.09,1.33 5.63,-2.48 2.98,1.65 0.33,6.79 3.98,1.66 0,0 4.47,9.27 2.32,-0.82 3.64,4.97 -15.9,11.76 -2.65,3.31 0.5,1.49 -11.26,4.64 -3.15,-0.5 -2.82,1.66 -6.29,-1.99 -14.74,-9.28 -5.63,-0.82 -2.82,2.81 -3.64,0.17 z" 
                fill="rgb(151, 144, 238)" 
                stroke="white" 
                stroke-width=".7px"
                title="Bosansko-podrinjski kanton" 
                id="BA-05" 
            />
        </svg>