<svg xmlns="http://www.w3.org/2000/svg" viewBox="437.3403599999999 68.50209400000001 79.09000000000003 54.88999599999998" width="79.09000000000003" height="54.88999599999998">
            <path 
                d="m 512.64036,93.692094 0.18,3.45 3.61,1.64 -2.96,3.929996 -2.95,-3.929996 -4.27,1.959996 -3.28,9.52 -3.61,2.3 -3.94,-1.31 0,1.64 -1.64,-1.97 -4.92,-0.66 -2.95,0.66 0,3.28 0,0 -1.64,1.97 0,0 -1.97,0 -1.64,2.95 -0.99,-3.61 -8.86,1.64 -5.58,5.91 -5.58,0.33 -2.62,-2.95 -9.19,0.98 -4.93,-5.91 1.32,-1.64 -0.99,-1.64 -3.61,-2.3 2.63,-1.31 -0.66,-1.31 -4.26,-2.3 0.32,-3.28 4.93,0.33 4.59,-3.279996 0,0 3.61,-1.32 0,0 5.58,-9.84 -0.33,-2.63 2.3,-0.98 0.98,-3.28 6.57,-2.96 2.43,-5.78 0,0 0.52,0.2 0,0 1.97,0.33 0,0 6.56,-2.3 0,0 0.33,-1.31 0,0 3.25,-0.41 3.13,5.1 -2.22,1.77 -6.15,-1.44 3.16,4.56 -1.29,3.29 9.24,6.56 3.2,4.2 z" 
                fill="rgb(151, 144, 238)" 
                stroke="white" 
                stroke-width=".7px"
                title="BrÄko" 
                id="BA-BR-BR" 
            />
        </svg>