<svg xmlns="http://www.w3.org/2000/svg" viewBox="314.5903599999998 27.75209399999998 153.72999999999996 128.78999600000006" width="153.72999999999996" height="128.78999600000006">
            <path 
                d="m 447.61036,98.622094 -7.32,-0.5 -1.31,-6.89 -6.24,-6.89 -0.98,-4.27 -3.94,-1.97 -0.99,1.31 -6.89,-0.65 1.31,2.62 -8.2,10.83 -1.64,6.57 1.64,2.949996 -7.22,8.86 -7.22,0.66 -3.28,-1.32 -12.14,3.29 -2.63,2.29 1.31,3.94 -1.64,3.28 1.97,2.63 2.63,-1.64 4.92,4.26 5.58,-0.32 6.89,4.26 4.92,0.99 2.3,3.28 -0.99,1.64 4.93,4.59 5.25,-0.32 5.58,4.92 -4.6,5.25 -10.83,1.31 0,0 -5.9,1.32 0,0 -7.22,-1.65 -1.32,-2.29 -7.55,0.33 -4.92,0.32 -8.86,4.93 -0.98,-5.91 1.31,-4.27 -3.61,-2.95 1.64,-1.31 -2.95,-5.58 0.32,-8.21 -3.6,0 -4.6,-3.61 -10.83,1.32 -1.97,-2.3 -6.49,7.24 0,0 -1.71,-1.99 0,0 -2.3,0.66 -1.97,-2.63 0,3.28 -3.28,1.64 0.33,3.28 -3.94,-3.61 -0.66,-7.22 -4.26,-2.62 -2.96,0.98 -2.3,-3.28 0.33,-2.3 -1.97,-2.29 1.64,-3.28 -3.61,-3.29 1.32,-1.97 -1.32,-2.62 5.91,-5.249996 2.63,0 1.64,-8.86 0.33,-3.94 -4.27,-9.85 1.64,-9.84 -1.97,-3.28 1.64,-5.91 -2.95,-1.31 -0.66,-4.27 4.6,-5.25 -0.7,-3.28 0,0 8.64,7.5 5.7,1.04 11.38,-7.86 -0.6,-5.93 4.98,-1.56 3.3,-6.66 3.69,-1.44 4.01,5.91 2.39,-3.96 3.24,0.6 2.24,4.6 -2.3,2.65 6.43,5.54 13.53,0.67 0,0 4.3,4.48 0,0 12.14,7.22 -1.31,5.58 4.59,-0.99 2.96,-5.25 0,0 4.92,1.31 1.31,-3.28 5.25,2.3 -0.32,-4.27 1.64,0 1.97,-3.28 4.67,-0.97 0,0 3.04,0.84 8.69,10.3 0,0 21.67,12.8 0,0 3.74,1.44 0,0 -2.43,5.78 -6.57,2.96 -0.98,3.28 -2.3,0.98 0.33,2.63 -5.58,9.84 0,0 z" 
                fill="rgb(151, 144, 238)" 
                stroke="white" 
                stroke-width=".7px"
                title="Doboj" 
                id="BA-SR-DO" 
            />
        </svg>