<svg xmlns="http://www.w3.org/2000/svg" viewBox="385.9903599999999 289.28209 210.8599999999999 153.39999999999986" width="210.8599999999999" height="153.39999999999986">
            <path 
                d="m 466.82036,439.72209 -3.81,-1.95 -0.16,-3.64 -5.8,-5.3 -2.98,0.83 -7.29,-5.8 -5.8,1.33 -10.1,-4.81 0,4.47 -3.48,-0.33 -3.98,4.81 -4.14,2.15 -13.08,-10.1 -2.49,-7.79 -5.96,-2.48 -3.15,3.47 -0.16,3.98 -8.45,-4.8 1.32,-5.97 7.62,-1.32 -4.3,-10.44 0,0 -0.33,-1.16 0,0 6.29,-2.15 6.96,2.82 5.63,-3.15 2.98,1.49 1.99,-12.26 -2.32,-2.81 2.98,-1.83 4.1,-7.88 0,0 2.23,1.01 0,0 4.47,-1.32 -1.49,-1.83 0.99,-2.48 12.43,-2.15 -0.07,-3.5 0,0 2.91,-1.21 0,0 8.39,8.85 3.64,-0.17 2.82,-2.81 5.63,0.82 14.74,9.28 6.29,1.99 2.82,-1.66 3.15,0.5 11.26,-4.64 -0.5,-1.49 2.65,-3.31 15.9,-11.76 -3.64,-4.97 -2.32,0.82 -4.47,-9.27 0,0 1.66,-1.33 8.11,3.48 4.81,-2.81 8.11,2.48 6.63,6.3 6.29,-1.5 -0.16,-2.48 -4.48,-3.48 -0.66,-7.45 -4.14,-8.12 7.79,2.49 4.8,-5.3 -2.49,-2.65 6.8,-3.98 -2.65,-2.65 -0.17,-2.48 2.65,-0.17 -1.99,-3.15 0.66,-1.98 -6.79,-9.94 1.33,-2.16 3.81,0.67 1.65,-1.5 0,0 0.2,0.25 0,0 1.33,-2.15 5.96,-0.91 0,0 4.82,4.2 0.55,3.36 4.1,1.81 0.61,5.29 4.18,2.42 5.46,7.89 1.8,10.87 8.28,4.34 1.3,4.52 6.91,5.85 3.04,18.52 -2.13,2.04 -1.94,-2.3 -1.77,1.49 1.83,3.46 -1.28,4.01 2.39,2 -1.73,1.77 -6.75,-0.65 -5.94,3.27 -6.69,-8.29 -5.79,2.7 -9.51,-2.01 -3.18,1.86 -0.69,13.32 -13.3,-2.35 -5.08,4.63 -12.29,-8.82 -4.75,-0.35 -1.57,1.68 -2.36,-1.7 -3.05,5.83 -5.53,1.87 0,3.85 1.11,1.14 2.01,-3.48 1.5,0.81 0.83,12.45 3.38,3.54 2.03,-0.86 4.2,14.79 8.35,12.57 -0.26,7.84 -7.08,1.46 -5.43,6.76 -4.21,-4.04 -0.07,-3.64 -4.59,-2.19 0.61,-8.46 -2.24,-0.26 -5.46,-6.3 -10.84,2.55 2.44,6.11 -9.77,2.76 z" 
                fill="rgb(151, 144, 238)" 
                stroke="white" 
                stroke-width=".7px"
                title="Foca" 
                id="BA-SR-FO" 
            />
        </svg>