<svg xmlns="http://www.w3.org/2000/svg" viewBox="256.3803599999998 304.60209 162.5300000000001 275.8299999999999" width="162.5300000000001" height="275.8299999999999">
            <path 
                d="m 390.30036,394.90209 -5.14,-3.92 -2.32,3.31 -21.03,-2.15 -6.63,6.13 1.66,6.62 -5.14,7.96 1.33,5.96 7.78,4.3 -0.99,13.75 -3.98,9.11 -3.47,3.65 -5.31,2.32 -3.97,5.96 1.66,4.64 4.63,3.81 -0.16,6.12 5.96,-0.33 4.47,8.45 -10.27,9.61 0.33,4.31 -2.81,6.79 3.15,4.63 1.98,7.79 3.15,2.81 -0.83,4.97 2.82,2.99 -0.5,2.65 4.31,0.66 5.3,7.37 2.65,0.99 7.78,8.45 1.99,3.31 -0.83,1.99 8.95,2.98 0.66,3.48 5.96,6.63 0.83,3.14 3.48,1.16 4.14,4.81 -0.16,1.98 3.63,2.48 0,0 -0.75,1.63 -7.03,2.23 -11.02,-13.16 -4.24,0.53 -1.86,-4.94 -6.46,-1.79 0.17,-5.15 -10.06,-7.54 -5.21,-1.14 -1.94,-4.68 -3.42,-0.74 -3.66,-3.7 -9.14,-2.46 0.83,-5.02 -3.64,-1.17 -2.98,-6.02 -0.32,-6.49 -5.51,-4.6 -4.45,6.07 -9.15,-6.45 -5.35,-0.91 -6.53,8.04 -2.92,-3.17 -12.18,-6.19 10.78,3.72 -7.1,-5.49 5.48,-0.36 0.87,-1.9 2.07,0.51 12.55,-5.43 -7.47,-13.84 -1.98,-7.79 -4.2,-4.54 0,0 0.95,-1.24 -1.83,-2.16 1.83,-3.31 3.64,-1.82 -3.15,-2.32 0,-5.8 3.81,-0.16 0,-1.16 -4.47,-3.32 -2.32,-4.47 -3.48,0 -4.8,-3.48 0,-3.14 2.32,0.66 0.16,-1.49 -1.98,-5.3 2.98,-3.15 1.99,0.66 2.98,-1.98 8.45,4.3 2.48,-1.82 2.32,1.49 4.47,-5.47 -7.12,-5.96 1.82,-5.13 -4.47,-3.98 6.96,-3.64 -1.83,-2.65 -9.27,-5.14 -4.14,0.66 0.33,-4.3 -2.32,-3.98 -4.47,-3.14 -1,-4.15 -5.46,-2.15 1.16,-1.16 -7.79,-4.64 -0.66,-2.31 5.96,-0.83 0.66,-2.82 5.64,1.66 3.81,-4.31 -5.97,-3.48 4.14,-7.78 -7.43,-5.61 0,0 0.49,-1.21 0,0 -6.89,-0.65 -2.3,-8.54 -2.3,-3.61 -3.94,-1.97 -0.98,-4.92 -12.14,-2.62 3.93,-2.3 -0.32,-4.27 -2.3,-2.62 1.31,-3.94 -0.98,-3.61 9.51,-6.56 0,0 2.2,-0.94 0,0 6.08,1.03 2.98,3.81 6.62,-2.82 0.83,1.99 11.93,-1.16 9.34,7.95 0.99,-3.15 6.3,-0.66 1.49,-3.15 1.16,2.16 5.13,-3.48 2.32,1.49 2.82,-1 -1.66,-3.14 4.97,-2.82 -0.16,2.49 2.48,0.82 2.32,-1.82 2.65,1.66 0.16,3.31 3.98,2.15 0.17,3.81 4.14,7.62 4.8,1.16 1.99,-3.97 3.48,0.66 1.82,3.31 0,0 0.04,-0.02 0,0 5.76,11.87 2.65,-0.17 1.82,3.98 -5.14,1.98 2.98,1.33 0.5,3.15 1.99,0.99 2.81,-1.99 5.31,1.82 2.15,-3.14 3.97,1.49 -0.16,1.98 4.3,5.47 2.49,0 2.98,3.48 -3.15,4.97 2.32,3.31 2.16,-2.98 1.98,0.99 3.98,6.46 5.3,-5.79 0.83,-3.98 6.62,1.82 -1.16,4.14 3.15,3.81 0,0 3.57,-1.67 0,0 -4.1,7.88 -2.98,1.83 2.32,2.81 -1.99,12.26 -2.98,-1.49 -5.63,3.15 -6.96,-2.82 -6.29,2.15 0,0 z" 
                fill="rgb(151, 144, 238)" 
                stroke="white" 
                stroke-width=".7px"
                title="HercegovaÄko-neretvanski kanton" 
                id="BA-07" 
            />
        </svg>