<svg xmlns="http://www.w3.org/2000/svg" viewBox="79.30036400000002 172.29208999999983 205.629996 206.10000000000005" width="205.629996" height="206.10000000000005">
            <path 
                d="m 212.21036,375.79209 -2.98,-1.25 -1.94,1.44 -12.34,-16.3 -5.78,-5.21 -3.39,-6.47 -12.33,-10.85 -4.31,-7.53 -7.79,-2.16 -5.54,-8.24 -0.72,-8.49 -13.54,-10.11 -5.21,-7.36 -7.31,-4.54 -0.87,-5.6 -5.51,-9.54 -10.06,-1.51 -1.6,-10.68 -9.03,0.19 -1.7,-3.95 -4.169996,-3.65 -1.09,-4.75 -8.47,-7.13 -5.61,-8.66 -1.62,-7.87 0,0 3.73,-1.76 -0.66,-8.2 6.89,-4.27 0.33,-10.5 -3.28,-8.2 1.97,-0.33 0.33,-2.96 -3.61,-10.5 3.94,-6.56 4.92,4.92 11.159996,0.33 4.59,1.64 0,0 3.61,2.63 0,0 13.46,10.17 6.23,9.52 9.19,6.23 10.18,2.63 12.14,12.14 3.28,0.33 5.58,4.92 4.59,-0.33 2.63,2.63 -1.97,2.3 4.27,3.28 1.97,4.92 17.06,13.13 5.25,9.52 3.28,0 6.9,4.92 19.03,-2.63 0,0 2.63,-2.29 0,0 1.7,4.92 1.97,0.33 0.33,4.26 1.97,0.33 2.95,5.25 2.63,9.52 2.62,2.62 -1.31,1.97 4.27,2.63 4.26,-4.6 1.32,3.29 4.59,3.28 -0.33,5.91 3.28,-0.33 -1.31,2.29 1.97,2.63 0,0 -2.3,0.99 0,0 -9.51,6.56 0.98,3.61 -1.31,3.94 2.3,2.62 0.32,4.27 -3.93,2.3 12.14,2.62 0.98,4.92 3.94,1.97 2.3,3.61 2.3,8.54 6.89,0.65 0,0 -0.66,1.64 0,0 -4.59,3.94 -1.97,5.25 -1.97,0.33 -4.27,6.24 -4.59,-1.64 -1.97,-3.94 -16.41,12.14 -4.92,-1.64 -0.99,1.97 -2.95,-0.66 0.33,-2.95 -2.3,-1.31 -2.95,2.29 -5.26,-1.64 -5.25,2.3 -4.26,-2.3 -1.64,1.31 -5.58,-1.64 z" 
                fill="rgb(151, 144, 238)" 
                stroke="white" 
                stroke-width=".7px"
                title="Kanton br. 10" 
                id="BA-10" 
            />
        </svg>