<svg xmlns="http://www.w3.org/2000/svg" viewBox="358.90036000000003 255.99209000000016 98.02000000000004 114.77999999999994" width="98.02000000000004" height="114.77999999999994">
            <path 
                d="m 455.25036,267.51209 -2.48,1.4 -1.15,5.13 -3.81,2.82 -3.48,7.62 -2.65,1.65 -8.45,18.55 1.16,4.97 -2.82,2.16 -2.65,6.29 -8.61,-4.14 -3.31,1.66 -7.29,9.6 0.5,3.65 5.13,2.15 1.66,3.31 -0.83,1.99 6.29,6.13 23.52,-0.33 2.65,5.13 3.81,2.32 0,0 4.48,2.49 0,0 -2.65,5.3 -4.15,-0.83 -1.16,1.49 -4.63,-1.49 -0.33,-1.82 -3.15,2.65 0,0 -2.98,1.65 -5.47,-2.48 0,0 -1.32,-3.81 -2.99,-0.66 -8.11,10.1 -1.66,3.64 0.66,2.99 0,0 -3.64,1.98 0,0 -3.15,-3.81 1.16,-4.14 -6.62,-1.82 -0.83,3.98 -5.3,5.79 -3.98,-6.46 -1.98,-0.99 -2.16,2.98 -2.32,-3.31 3.15,-4.97 -2.98,-3.48 -2.49,0 -4.3,-5.47 0.16,-1.98 -3.97,-1.49 -2.15,3.14 -5.31,-1.82 -2.81,1.99 -1.99,-0.99 -0.5,-3.15 -2.98,-1.33 5.14,-1.98 -1.82,-3.98 -2.65,0.17 -5.76,-11.87 0,0 3.77,-2.13 0,0 6.95,0 7.29,-7.95 2.49,1.32 0.66,-1.82 4.64,-1.82 0.83,-4.31 2.15,-1.82 -2.98,-1.65 1.16,-1.5 -0.87,-3.53 0,0 1.86,0.47 0,0 1.49,-1.33 7.12,2.82 1,-4.14 -4.64,-10.1 2.65,-3.32 1.82,1.66 2.49,-1.66 9.27,1.82 2.98,-4.63 -0.99,-2.65 5.8,-0.33 -0.67,-9.11 5.14,-2.82 0.33,-2.32 3.48,4.64 2.15,-0.17 0.83,-3.48 -1.99,-3.14 5.3,-2.32 0.5,-2.49 4.31,-1.98 6.95,5.79 0.67,3.98 5.63,2.15 0.66,-4.47 3.98,3.15 0,0 z" 
                fill="rgb(151, 144, 238)" 
                stroke="white" 
                stroke-width=".7px"
                title="Kanton Sarajevo" 
                id="BA-09" 
            />
        </svg>