<svg xmlns="http://www.w3.org/2000/svg" viewBox="389.07036 30.582094 93.19999999999993 41.93000000000001" width="93.19999999999993" height="41.93000000000001">
            <path 
                d="m 456.53036,43.182094 -3.6,2.45 0.05,1.57 7.86,1.52 -0.25,-5.85 3.19,-2.19 1.8,3.47 -2.91,3.2 10.58,9.95 -1.27,4.85 4.58,-1.04 5.71,1.26 -1.31,6.12 -3.25,0.41 0,0 -0.33,1.31 0,0 -6.56,2.3 0,0 -1.97,-0.33 0,0 -4.27,-1.64 0,0 -21.66,-12.8 0,0 -8.69,-10.31 5.59,0.46 1.38,3.55 0.55,-4.02 2.14,-2.36 -3.11,-2.74 0.61,-1.48 4.77,2.39 1.41,3.4 1.33,-2.41 -1.64,-3.73 5.93,2.92 3.16,-3.18 0.18,2.95 z m -54.24,-7.18 3.44,-0.38 2.85,3.12 14.8,-1.77 7.79,9.64 0,0 -4.67,0.97 -1.97,3.28 -1.64,0 0.33,4.27 -5.25,-2.3 -1.31,3.28 -4.92,-1.31 0,0 -2.95,5.25 -4.59,0.98 1.31,-5.58 -12.14,-7.22 0,0 -4.3,-4.48 0,0 3.45,-3.98 -1.88,-3.93 2.41,-3.6 6.2,-1.66 3.04,5.42 z" 
                fill="rgb(151, 144, 238)" 
                stroke="white" 
                stroke-width=".7px"
                title="Posavski kanton" 
                id="BA-02" 
            />
        </svg>