<svg xmlns="http://www.w3.org/2000/svg" viewBox="409.7003600000002 242.98208999999974 140.10999999999996 127.12000000000023" width="140.10999999999996" height="127.12000000000023">
            <path 
                d="m 437.47036,358.83209 0.06,3.49 -12.42,2.15 -0.99,2.48 1.49,1.82 -4.47,1.33 0,0 -2.15,-1.33 0,0 -0.66,-2.98 1.66,-3.64 8.12,-10.1 2.98,0.66 1.33,3.81 0,0 5.05,2.31 z m 48.27,-115.85 13.75,8.78 2.98,0.99 3.15,-2.32 0.17,-1.99 7.78,8.45 2.32,-2.15 2.32,4.14 2.65,0.33 -0.66,2.32 9.94,4.8 2.98,5.63 6.29,4.31 2.15,7.12 4.47,5.8 0,0 2.28,2.89 0,0 -1.65,1.5 -3.81,-0.66 -1.33,2.15 6.79,9.94 -0.66,1.99 1.99,3.15 -2.65,0.17 0.17,2.48 2.65,2.65 -6.79,3.98 2.48,2.65 -4.8,5.3 -7.79,-2.48 4.14,8.12 0.66,7.45 4.47,3.48 0.17,2.48 -6.29,1.49 -6.63,-6.29 -8.12,-2.48 -4.8,2.82 -8.12,-3.48 -1.66,1.33 0,0 -3.97,-1.66 -0.33,-6.79 -2.98,-1.66 -5.63,2.48 -12.09,-1.32 -3.81,3.48 -1.99,-0.17 -9.61,17.06 -5.47,-1.66 -4.11,2.39 0,0 -4.31,-2.39 0,0 -3.81,-2.32 -2.65,-5.13 -23.52,0.33 -6.29,-6.13 0.83,-1.99 -1.66,-3.31 -5.13,-2.15 -0.5,-3.64 7.29,-9.61 3.31,-1.66 8.61,4.14 2.65,-6.29 2.82,-2.15 -1.16,-4.97 8.45,-18.55 2.65,-1.66 3.48,-7.62 3.81,-2.82 1.16,-5.13 2.48,-1.4 0,0 0.17,0.07 0,0 5.13,-4.97 6.29,-2.82 2.98,-4.64 9.11,-2.32 -0.33,-1.99 5.96,-4.47 -0.5,-3.4 0,0 1.68,0 z" 
                fill="rgb(151, 144, 238)" 
                stroke="white" 
                stroke-width=".7px"
                title="Sarajevo-Romanija" 
                id="BA-SR-SR" 
            />
        </svg>