<svg xmlns="http://www.w3.org/2000/svg" viewBox="226.31036000000003 180.49208999999985 161.36999999999998 145.31000000000006" width="161.36999999999998" height="145.31000000000006">
            <path 
                d="m 384.99036,300.57209 0.87,3.53 -1.16,1.5 2.98,1.65 -2.15,1.82 -0.83,4.31 -4.64,1.82 -0.66,1.82 -2.49,-1.32 -7.29,7.95 -6.95,0 0,0 -3.81,2.15 0,0 -1.82,-3.31 -3.48,-0.66 -1.99,3.97 -4.8,-1.16 -4.14,-7.62 -0.17,-3.81 -3.98,-2.15 -0.16,-3.31 -2.65,-1.66 -2.32,1.82 -2.48,-0.82 0.16,-2.49 -4.97,2.82 1.66,3.14 -2.82,1 -2.32,-1.49 -5.13,3.48 -1.16,-2.16 -1.49,3.15 -6.3,0.66 -0.99,3.15 -9.34,-7.95 -11.93,1.16 -0.83,-1.99 -6.62,2.82 -2.98,-3.81 -6.08,-1.03 0,0 0.1,-0.05 0,0 -1.97,-2.63 1.31,-2.29 -3.28,0.33 0.33,-5.91 -4.59,-3.28 -1.32,-3.29 -4.26,4.6 -4.27,-2.63 1.31,-1.97 -2.62,-2.62 -2.63,-9.52 -2.95,-5.25 -1.97,-0.33 -0.33,-4.26 -1.97,-0.33 -1.7,-4.92 0,0 -0.17,0.14 0,0 3.97,-6.38 -0.65,-20.68 -5.25,-5.25 -5.26,-19.36 -5.25,-4.92 0,-4.92 6.57,-5.26 -1.64,-12.14 1.97,-2.3 3.93,0.33 5.58,3.28 6.24,-1.96 1.31,-3.29 7.22,3.29 9.85,8.2 0.65,5.25 9.19,2.63 1.97,4.26 8.21,-0.98 11.48,1.97 7.22,-6.24 3.61,0.33 3.28,-1.97 0,0 0.56,-0.66 0,0 3.28,5.25 4.63,1.49 0.17,3.48 4.64,3.81 -1.33,2.32 3.81,3.31 1.16,4.81 -5.63,3.48 0.5,3.64 -1.49,1.99 1.98,1.16 -1.49,1.98 2.32,4.14 4.31,0.34 0.66,4.8 4.47,3.97 4.14,-1.32 4.81,5.13 -0.67,1.99 1.99,1.82 -0.99,3.32 2.65,2.98 5.96,1.49 2.15,-2.15 1.5,1.32 2.15,2.82 -5.8,2.98 2.82,0.16 -0.67,1.49 2.82,0.17 7.95,6.46 1.49,10.93 6.79,2.65 -2.65,1.99 0.33,1.49 5.64,1.16 -0.5,4.14 7.45,2.98 0,0 z" 
                fill="rgb(151, 144, 238)" 
                stroke="white" 
                stroke-width=".7px"
                title="Srednjobosanski kanton" 
                id="BA-06" 
            />
        </svg>