<svg xmlns="http://www.w3.org/2000/svg" viewBox="343.09036000000015 390.9820900000002 127.42999999999995 197.2399999999999" width="127.42999999999995" height="197.2399999999999">
            <path 
                d="m 390.30036,394.90209 0.33,1.13 0,0 4.3,10.44 -7.62,1.32 -1.32,5.97 8.45,4.8 0.16,-3.98 3.15,-3.47 5.96,2.48 2.49,7.79 13.08,10.1 4.14,-2.15 3.98,-4.81 3.48,0.33 0,-4.47 10.1,4.81 5.8,-1.33 7.29,5.8 2.98,-0.83 5.8,5.3 0.16,3.64 3.81,1.95 0,0 -0.48,2.73 4.18,4.41 -9.52,13.21 -1.66,7.91 8.19,22.78 -7.73,2.45 -15.42,-2.47 -2.91,3.17 -5.21,12.9 -2.22,1.68 1.17,6.2 2.88,4 -4.66,9.02 1.61,9.58 -3.82,1.87 1.76,4.02 -0.68,3.25 3.16,1.27 3.51,6.12 6.48,-0.55 2.03,2.61 -1.67,4.13 1.56,9.71 -10.21,2.08 -1.33,2.04 6.9,7.84 -6.09,0.86 -3.44,4.79 -6.53,0.89 -9.26,-8.41 -2.57,-4.38 -9.48,1.14 0,0 -3.63,-2.48 0.16,-1.98 -4.14,-4.81 -3.48,-1.16 -0.83,-3.14 -5.96,-6.63 -0.66,-3.48 -8.95,-2.98 0.83,-1.99 -1.99,-3.31 -7.78,-8.45 -2.65,-0.99 -5.3,-7.37 -4.31,-0.66 0.5,-2.65 -2.82,-2.99 0.83,-4.97 -3.15,-2.81 -1.98,-7.79 -3.15,-4.63 2.81,-6.79 -0.33,-4.31 10.27,-9.61 -4.47,-8.45 -5.96,0.33 0.16,-6.12 -4.63,-3.81 -1.66,-4.64 3.97,-5.96 5.31,-2.32 3.47,-3.65 3.98,-9.11 0.99,-13.75 -7.78,-4.3 -1.33,-5.96 5.14,-7.96 -1.66,-6.62 6.63,-6.13 21.03,2.15 2.32,-3.31 z" 
                fill="rgb(151, 144, 238)" 
                stroke="white" 
                stroke-width=".7px"
                title="Trebinje" 
                id="BA-SR-TR" 
            />
        </svg>