<svg xmlns="http://www.w3.org/2000/svg" viewBox="380.23035999999996 78.10209399999998 140.79000000000013 167.69999599999994" width="140.79000000000013" height="167.69999599999994">
            <path 
                d="m 408.78036,153.58209 10.83,-1.31 4.6,-5.25 -5.58,-4.92 -5.25,0.32 -4.93,-4.59 0.99,-1.64 -2.3,-3.28 -4.92,-0.99 -6.89,-4.26 -5.58,0.32 -4.92,-4.26 -2.63,1.64 -1.97,-2.63 1.64,-3.28 -1.31,-3.94 2.63,-2.29 12.14,-3.29 3.28,1.32 7.22,-0.66 7.22,-8.86 -1.64,-2.949996 1.64,-6.57 8.2,-10.83 -1.31,-2.62 6.89,0.65 0.99,-1.31 3.94,1.97 0.98,4.27 6.24,6.89 1.31,6.89 7.32,0.5 0,0 -0.43,0.16 0,0 -4.59,3.279996 -4.93,-0.33 -0.32,3.28 4.26,2.3 0.66,1.31 -2.63,1.31 3.61,2.3 0.99,1.64 -1.32,1.64 4.93,5.91 9.19,-0.98 2.62,2.95 5.58,-0.33 5.58,-5.91 8.86,-1.64 0.99,3.61 1.64,-2.95 1.97,0 0,0 0.3,-0.37 0,0 2.65,4.96 -0.66,4.27 -9.19,3.94 -2.62,2.95 -2.3,7.22 2.63,7.55 2.95,3.28 4.92,1.64 0.33,5.91 6.89,1.31 5.25,4.27 4.93,-0.33 2.62,-2.3 2.63,-10.17 6.89,-6.89 1.97,1.97 1.97,-1.97 4.59,2.95 -2.3,5.25 0,0 0.92,2.44 0,0 0.22,3.63 -3.98,6.29 2.16,1.83 -1.66,5.96 -2.98,-0.66 0,5.79 -4.31,0.83 -5.3,12.59 -4.97,-1.66 -3.97,1.66 -1.16,5.3 -2.98,3.15 -4.81,1.65 -0.16,2.82 -7.46,3.48 -2.32,3.64 2.32,8.95 -0.33,6.62 4.8,9.78 0,0 0.3,0.19 0,0 -3.24,6.76 -3.65,-1.49 -5.96,2.82 0.99,1.82 -5.3,-0.5 -2.48,-3.64 -7.95,0.33 -5.14,-2.32 -3.48,-5.47 -5.13,-2.65 0.66,-14.9 -12.25,-11.93 -10.11,0.5 0.66,-5.14 5.64,0.5 0.82,-2.32 -9.6,-9.11 -2.16,1.49 -8.11,-4.3 0.49,-2.99 -1.82,-1.32 1.99,-4.64 -0.99,-3.48 -5.8,-6.46 4.14,-0.83 -2.32,-4.3 2.82,-2.82 -2.49,-4.69 0,0 z" 
                fill="rgb(151, 144, 238)" 
                stroke="white" 
                stroke-width=".7px"
                title="Tuzlanski kanton" 
                id="BA-03" 
            />
        </svg>