<svg xmlns="http://www.w3.org/2000/svg" viewBox="0.28036377000002766 10.162093999999986 178.63999622999998 215.409996" width="178.63999622999998" height="215.409996">
            <path 
                d="m 86.310364,59.022094 1.05,3.49 -16.08,3.61 10.83,25.6 5.58,-1.31 5.91,9.51 4.26,0.989996 7.879996,-11.489996 13.45,5.25 9.19,-1.97 3.94,2.3 3.94,-1.97 4.59,8.209996 12.15,-0.99 5.58,3.28 3.28,3.94 4.26,13.79 -1.96,8.2 8.53,3.94 0,9.19 1.97,4.26 3.28,2.3 -2.3,6.89 3.28,3.61 -1.31,3.94 -2.3,2.63 -4.92,1.64 -6.89,0.66 -41.68,-4.6 -12.14,3.28 -0.33,6.24 3.45,8.06 0,0 -3.19,-2.32 0,0 -4.59,-1.64 -11.159996,-0.33 -4.92,-4.92 -3.94,6.56 3.61,10.5 -0.33,2.96 -1.97,0.33 3.28,8.2 -0.33,10.5 -6.89,4.27 0.66,8.2 -3.73,1.76 0,0 -2.19,-18.18 1.21,-3.23 -1.33,-2.74 -7.36,-3.56 -5.47,-0.63 -1.26,-3.82 3.82,0.39 3.8,-1.94 -3.22,-4.06 -0.11,-5.77 -1.58,-1.09 1.94,-6.12 -2.61,-7.3 -15.21,-8.21 -3.38,-6.92 0.78,-1.29 4.04,0.11 -0.41,-4.03 2.94,-0.35 -3.72,-9.14 -8.83,-4.4 -3.02,-8.56 -5.4,-2.28 -3.86,-5.42 -5.98,2.3 -1.3,2.42 -5.35,0.81 -1.64,-3.38 -4.6400002,-2.37 -9.68000003,-15.17 1.02000003,-2.499996 5.38,-0.16 4.4700002,-3.98 -5.2700002,-5.04 -1.88,-12.88 2.21,-8.7 5.2600002,-0.97 -0.28,-7.06 -6.0600002,-12.95 5.7000002,-11.09 -3.1700002,-12.03 7.3300002,-9.31 2.81,0.5 2.38,-4.07 8.02,1.66 -0.22,-2.35 4.68,-0.55 0.21,3.85 1.99,2.19 6.31,-4.18 6.74,3.74 0.71,3.37 -2.1,3.49 4.85,0.38 1,4.53 2.15,0.25 2.48,5.68 0.85,5.9 10.31,4.88 11.24,10.82 1.26,4.24 z" 
                fill="rgb(151, 144, 238)" 
                stroke="white" 
                stroke-width=".7px"
                title="Unsko-sanski kanton" 
                id="BA-01" 
            />
        </svg>