<svg xmlns="http://www.w3.org/2000/svg" viewBox="475.9603599999997 147.02209 136.24000000000058 145.32" width="136.24000000000058" height="145.32">
            <path 
                d="m 555.80036,289.28209 -5.96,0.91 -1.33,2.15 0,0 -2.48,-3.14 0,0 -4.47,-5.8 -2.16,-7.12 -6.29,-4.31 -2.98,-5.63 -9.94,-4.8 0.66,-2.32 -2.65,-0.33 -2.32,-4.15 -2.32,2.16 -7.78,-8.45 -0.17,1.99 -3.14,2.32 -2.99,-1 -13.74,-8.78 0,0 -1.83,0 0,0 -0.66,-3.14 1.99,-2.49 0,0 -2.49,-1.65 0,0 -4.8,-9.78 0.33,-6.62 -2.32,-8.95 2.32,-3.64 7.46,-3.48 0.16,-2.82 4.81,-1.65 2.98,-3.15 1.16,-5.3 3.97,-1.66 4.97,1.66 5.3,-12.59 4.31,-0.83 0,-5.79 2.98,0.66 1.66,-5.96 -2.16,-1.83 3.98,-6.29 -0.22,-3.63 0,0 0.07,0.19 0,0 3.94,0 3.94,-5.25 4.59,-1.97 7.55,3.28 -0.66,2.63 4.23,2.06 0,0 1.96,4.56 -3.71,5.89 -6.42,-0.24 -2.03,4.7 1.97,2.34 2.71,12.04 -0.46,5.61 -5.76,3.8 -0.95,4.52 0.41,1.9 1.75,0.13 -1.27,2.42 0.92,2.62 3.07,1.11 -0.55,4.71 5.65,7.01 7.2,-1.13 1.28,4.38 2.48,1.68 6.79,-3.1 6.96,1.11 0.63,4.12 3.19,4.16 -0.75,2.85 2.46,2.91 0.14,5.11 7.44,3.03 1.74,5.39 3.99,2.41 4.85,-3.54 0.93,1.82 -1.71,4.54 3.33,0.87 2.65,6.86 6.96,2.81 2.99,4.99 1.44,-0.42 0.97,-4.51 2.07,0.46 0.54,3.79 3.04,0.44 -1.46,3.19 0.96,4.1 -8.81,3.66 0.31,3.1 -4.07,2.36 -2.25,3.86 -15.27,-0.37 -3.98,-1.86 -2.33,1.4 -5.66,-4.74 -2.24,0.19 -4.54,-3.2 -6.34,-0.59 -4.82,-4.05 -0.11,6.8 z" 
                fill="rgb(151, 144, 238)" 
                stroke="white" 
                stroke-width=".7px"
                title="Vlasenica" 
                id="BA-SR-VL" 
            />
        </svg>