<svg xmlns="http://www.w3.org/2000/svg" viewBox="212.21036000000007 355.31209 103.68000000000009 119.32" width="103.68000000000009" height="119.32">
            <path 
                d="m 299.54036,474.63209 -30.15,-18.21 0.5,-4.83 -3.02,-5.8 -4.57,-3.68 -8.11,-1.52 -1.27,-6.77 -12.05,-22.62 4.65,-12.77 -0.73,-4 -3.38,-4.64 -5.01,-3.4 -13.15,0.28 -11.04,-10.88 0,0 0.52,-2 5.58,1.64 1.64,-1.31 4.26,2.3 5.25,-2.3 5.26,1.64 2.95,-2.29 2.3,1.31 -0.33,2.95 2.95,0.66 0.99,-1.97 4.92,1.64 16.41,-12.14 1.97,3.94 4.59,1.64 4.27,-6.24 1.97,-0.33 1.97,-5.25 4.59,-3.94 0,0 0.17,-0.43 0,0 7.43,5.61 -4.14,7.78 5.97,3.48 -3.81,4.31 -5.64,-1.66 -0.66,2.82 -5.96,0.83 0.66,2.31 7.79,4.64 -1.16,1.16 5.46,2.15 1,4.15 4.47,3.14 2.32,3.98 -0.33,4.3 4.14,-0.66 9.27,5.14 1.83,2.65 -6.96,3.64 4.47,3.98 -1.82,5.13 7.12,5.96 -4.47,5.47 -2.32,-1.49 -2.48,1.82 -8.45,-4.3 -2.98,1.98 -1.99,-0.66 -2.98,3.15 1.98,5.3 -0.16,1.49 -2.32,-0.66 0,3.14 4.8,3.48 3.48,0 2.32,4.47 4.47,3.32 0,1.16 -3.81,0.16 0,5.8 3.15,2.32 -3.64,1.82 -1.83,3.31 1.83,2.16 z" 
                fill="rgb(151, 144, 238)" 
                stroke="white" 
                stroke-width=".7px"
                title="ZapadnohercegovaÄki kanton" 
                id="BA-08" 
            />
        </svg>