<svg xmlns="http://www.w3.org/2000/svg" viewBox="102.01811000000001 364.73854 117.06 158.0499999999999" width="117.06" height="158.0499999999999">
            <path 
                d="m 219.07811,402.56854 -22.23,84.24 -15.06,4.79 -1.76,11.48 0.33,10.59 -3.82,5.42 0,0 -6.55,-2.83 -1.29,0.97 -4.64,1.37 -2.58,-1.32 -4.02,2.25 -10.27,0.97 -3.78,1.76 -5.11,-0.83 -6.98,0.53 -1.72,0.83 -8.66,-1.02 -1.53,-3.81 -2.67,-2.48 0,0 0.91,-1.66 0.24,-11.86 -2.78,-8.02 0.77,-5.57 -0.38,-0.93 -5.26,-0.53 -0.58,0.92 -5.49,0.2 -2.15,-0.69 0.81,-13.84 4.4,-1.67 4.44,-3.87 14.25,-15.93 1.96,-3.68 1.86,-14.19 16.3,-56.17 7.84,-13.25 0,0 55.21,24.51 5.97,9.27 z" 
                fill="rgb(151, 144, 238)" 
                stroke="white" 
                stroke-width=".7px"
                title="Bahr el Gazel" 
                id="TD-BG" 
            />
        </svg>