<svg xmlns="http://www.w3.org/2000/svg" viewBox="166.82811000000004 371.3185400000002 162.81 195.16999999999985" width="162.81" height="195.16999999999985">
            <path 
                d="m 314.29811,389.44854 0.91,81.6 0,0 -0.29,6.17 10.13,6.21 1.29,3.62 -1.34,6.94 4.64,9.38 -0.28,17.67 0,0 -0.05,1.9 -1.25,0.92 -13.67,3.22 0,0 -12.81,-4.68 -27.58,15.59 -0.76,1.17 -33.89,-0.24 -18.17,10.02 -1.43,1.66 -8.75,0.29 -10.08,8.12 -0.29,1.12 -2.73,0.82 -1.96,1.95 1.49,3.59 0,0 -4.5,-1.6 -2.77,0.14 -1.67,-1.4 -1.1,-4.18 -2.3,-1.46 -1.43,-2.24 -0.81,-6.86 -1.87,-0.68 -4.97,-5.25 -2.77,-8.47 -5.64,-3.61 -0.77,-1.12 1.87,-2.78 6.35,-5.31 1.49,-2.58 0,0 3.82,-5.42 -0.33,-10.59 1.76,-11.48 15.06,-4.79 22.23,-84.24 0,0 8.94,5.56 4.92,1.73 7.46,0.93 7.36,-0.24 7.17,-1.97 5.97,-3.01 4.83,-3.6 6.17,-6.95 3.02,-5.28 1.62,-4.59 1.34,-8.9 -0.34,-4.34 3.87,-0.59 2.25,1.38 3.87,7.96 3.63,3.8 9.08,1.48 5.55,1.98 z" 
                fill="rgb(151, 144, 238)" 
                stroke="white" 
                stroke-width=".7px"
                title="Batha" 
                id="TD-BA" 
            />
        </svg>