<svg xmlns="http://www.w3.org/2000/svg" viewBox="94.8981149999999 75.088538 265.50999500000006 335.70000200000004" width="265.50999500000006" height="335.70000200000004">
            <path 
                d="m 267.82811,75.088538 92.58,48.790002 0,0 -43.72,94.61 5.45,21.55 15.11,40.59 -6.6,60.97 21.46,47.74 0,0 -2,0.3 -6.41,4.89 -2.68,1.03 -5.02,-1.82 -8.51,1.87 -3.25,-0.64 -6.64,-4.39 -3.3,-1.13 0,0 -8.51,-1.53 -5.55,-1.98 -9.08,-1.48 -3.63,-3.8 -3.87,-7.96 -2.25,-1.38 -3.87,0.59 0.34,4.34 -1.34,8.9 -1.62,4.59 -3.02,5.28 -6.17,6.95 -4.83,3.6 -5.97,3.01 -7.17,1.97 -7.36,0.24 -7.46,-0.93 -4.92,-1.73 -8.94,-5.56 0,0 -4.02,-4.05 -5.97,-9.27 -55.21,-24.51 0,0 -58.979995,-29.8 0,0 2.5,-2.71 0.39,-8.83 0,0 82.569995,-149.26 7.08,-14.27 0.81,-7.81 1.72,-3.35 1.91,-0.91 5.31,3.25 0,2.79 -3.4,3.55 -0.19,2.94 1.1,3.95 1.96,2.18 2.01,0.65 1.43,3.24 3.35,2.28 1.19,3.95 3.49,3.28 2.06,3.09 2.77,-1.52 2.59,-4.76 0.09,-2.98 -1.53,-7.04 -1.43,-2.73 0.48,-3.8 1.24,-1.77 -2.82,-8.58 -3.73,-3.8 -0.91,-4.52 0.39,-2.19 2.1,-2.89 5.26,-3.66 4.78,-7.94 5.58,-3.05 3.68,-0.92 5.88,-0.3 1.53,-1.43 4.59,-1.48 3.4,-3.06 2.06,-3.47 6.31,-4.85 0.67,-2.86 0.19,-8.120002 1.1,-3.17 -0.43,-2.3 3.91,-6.49 1.15,0 1.34,-2.36 0.05,-2.62 2.72,-2.05 z" 
                fill="rgb(151, 144, 238)" 
                stroke="white" 
                stroke-width=".7px"
                title="Borkou" 
                id="TD-BO" 
            />
        </svg>