<svg xmlns="http://www.w3.org/2000/svg" viewBox="74.43811500000001 551.5685400000001 120.35999500000003 126.14999999999998" width="120.35999500000003" height="126.14999999999998">
            <path 
                d="m 75.578115,561.62854 10.52,-2.62 3.15,-1.95 1.82,-2.13 6.36,6.85 2.769995,-2.48 5.74,-3.16 13.95,0 3.44,-2.14 2.01,-2.43 27.53,9.87 2.83,4.66 -0.82,6.7 1.72,3.06 2.2,1.36 1.72,8.64 1.53,2.43 2.3,-0.39 5.4,0.77 3.3,1.99 2.43,2.96 9.37,4.56 0,0 -1.43,11.72 2.63,14.27 0.14,6.77 -0.52,6 -1.2,4.69 2.68,1.78 3.15,0.73 4.5,3.43 0,0 -2.58,13.46 -5.17,16.69 0,0 -5.97,-0.68 -3.25,-1.49 -1.15,-2.36 -5.93,-1.21 -4.68,0 -0.62,-1.25 -1.53,-0.92 -4.16,-1.16 -1.63,0.2 -1.81,-2.08 -3.64,-0.86 -2.05,-4.83 0.19,-3.04 -1.01,-0.09 -0.85,-1.4 -4.83,3.13 -13.82,-0.44 0,0 -0.95,-2.69 -2.15,-2.37 -0.39,-7.29 1.34,-11.69 -1.53,-2.9 -3.3,0.72 -2.48,-1.3 -4.26,0.05 -3.2,-0.83 -4.54,-1.45 -4.59,-3.57 -1.72,-0.15 -3.299995,-1.84 -0.81,-1.98 -4.25,-3.87 -1.96,-7.31 -7.94,0.14 -9.44,5.66 0,0 0.27,-1.04 -0.67,-0.99 0.69,-1.8 -0.6,-2.35 0.7,-0.58 -0.72,-2.47 2.07,-4.12 -0.53,-2.04 4,-6.17 -0.28,-1.32 -1.72,-0.86 0.09,-1.38 -0.99,-1.35 -0.77,-3.5 0.37,-0.94 1.38,0.03 -1.05,-1.55 1.85,-1.56 -1.11,-1.4 -0.04,-1.17 -0.8,-0.71 -0.26,0.92 -0.87,-0.46 -0.6,-2.28 1.06,-1.41 -0.51,-2.06 1.05,0.01 0.54,-0.95 0,0 2.4,0.32 1.1,-4.18 -4.97,-5.97 z" 
                fill="rgb(151, 144, 238)" 
                stroke="white" 
                stroke-width=".7px"
                title="Chari-Baguirmi" 
                id="TD-CB" 
            />
        </svg>