<svg xmlns="http://www.w3.org/2000/svg" viewBox="316.68811 123.87853999999992 186.83999999999997 268.31" width="186.83999999999997" height="268.31">
            <path 
                d="m 503.44811,376.69854 0.08,14.58 -16.24,-2.61 -4.01,0.19 -7.73,3 -3.05,0.33 -10.57,-1.19 0,0 -4.23,-4.37 -2.44,-1.08 -4.4,1.08 -2.19,-0.34 -2.68,-1.78 -3.06,1.18 -6.31,1.04 -2.53,-0.74 -0.29,-2.96 -0.91,-0.89 -5.26,-1.43 -4.3,1.48 -2.25,-0.69 -3.05,-2.23 -1.44,0.7 -2.77,-1.59 -7.36,2.38 -10.76,-2.18 -3.53,1.53 -14.97,3.61 -3.96,-0.79 -3.11,-1.98 -3.68,-1.03 -4.69,2.76 -1.29,0.15 -4.15,4.14 -4.21,2.37 0,0 -21.46,-47.74 6.6,-60.97 -15.11,-40.59 -5.45,-21.55 43.72,-94.61 0,0 143.04,77.78 z" 
                fill="rgb(151, 144, 238)" 
                stroke="white" 
                stroke-width=".7px"
                title="Ennedi" 
                id="TD-EN" 
            />
        </svg>