<svg xmlns="http://www.w3.org/2000/svg" viewBox="51.80811499999996 504.7385399999998 149.53999500000003 93.44" width="149.53999500000003" height="93.44">
            <path 
                d="m 52.628115,529.18854 1.5,0.72 3.72,-2.3 3.23,0.82 3.55,-2.47 2.74,1.81 2.1,-0.49 0.49,-0.82 1.77,-0.5 0.96,-1.83 1.79,1.34 1.94,0 1.45,-0.99 0.97,-5.93 1.61,-0.99 -2.38,-4.33 2.1,-0.19 2.15,1.17 0,0 0,0 0,0 0.86,2.1 2.49,2.97 1.43,-2.19 0.96,-0.44 1.05,0.63 3.2,-2.58 -1,-1.27 -3.85,-2 0,0 0,0 0,0 0.42,-2.77 -0.62,-3.32 0,0 0,0 0,0 4.14,-0.6 2.3,3.71 7.069995,3.42 0,0 8.56,4.09 5.11,0.44 2.3,-0.92 0,0 2.67,2.48 1.53,3.81 8.66,1.02 1.72,-0.83 6.98,-0.53 5.11,0.83 3.78,-1.76 10.27,-0.97 4.02,-2.25 2.58,1.32 4.64,-1.37 1.29,-0.97 6.55,2.83 0,0 -1.49,2.58 -6.35,5.31 -1.87,2.78 0.77,1.12 5.64,3.61 2.77,8.47 4.97,5.25 1.87,0.68 0.81,6.86 1.43,2.24 2.3,1.46 1.1,4.18 1.67,1.4 2.77,-0.14 4.5,1.6 0,0 -2.68,8.5 0.14,1.89 4.26,5.58 2.2,5.63 -6.46,0.39 -5.73,4.17 -4.31,5.53 0,0 -9.37,-4.56 -2.43,-2.96 -3.3,-1.99 -5.4,-0.77 -2.3,0.39 -1.53,-2.43 -1.72,-8.64 -2.2,-1.36 -1.72,-3.06 0.82,-6.7 -2.83,-4.66 -27.53,-9.87 -2.01,2.43 -3.44,2.14 -13.95,0 -5.74,3.16 -2.769995,2.48 -6.36,-6.85 -1.82,2.13 -3.15,1.95 -10.52,2.62 0,0 -4.21,-0.92 -2.62,0.91 0,0 0.21,-7.48 -1.55,-4.14 -1.02,0.8 -0.37,-0.42 0.27,-4.55 -1.1,-3.82 -3.17,-0.34 -0.84,-2.48 -1.16,1.41 -0.51,-0.19 0.19,-2.77 -2.58,-0.1 -1.97,-0.88 0,-1.56 -1.71,1.12 -0.44,-1.28 -1.19,-0.59 z" 
                fill="rgb(151, 144, 238)" 
                stroke="white" 
                stroke-width=".7px"
                title="Hadjer Lamis" 
                id="TD-HL" 
            />
        </svg>