<svg xmlns="http://www.w3.org/2000/svg" viewBox="8.428114999999995 334.93854 145.449995 181.45999999999992" width="145.449995" height="181.45999999999992">
            <path 
                d="m 153.87811,364.73854 -7.84,13.25 -16.3,56.17 -1.86,14.19 -1.96,3.68 -14.25,15.93 -4.44,3.87 -4.4,1.67 -0.81,13.84 2.15,0.69 5.49,-0.2 0.58,-0.92 5.26,0.53 0.38,0.93 -0.77,5.57 2.78,8.02 -0.24,11.86 -0.91,1.66 0,0 -2.3,0.92 -5.11,-0.44 -8.56,-4.09 0,0 -1.099995,-5.62 -2.48,-4.63 -5.17,-13.93 -9.41,1.17 -11.28,2.59 -5.21,-0.34 -2.77,1.81 -6.36,-11.79 -5.07,-5.87 -3.11,-4.75 -6.4,-1.57 -1.44,-2.84 -3.58,-0.83 -1.63,-3.28 -2.72,-0.89 -0.72,-3.38 -3.2,-3.04 -2.39,-0.19 -1.34,-2.26 -9.22,-0.05 -1.44,-1.91 -6.3,-0.49 0,0 2.48,-1.73 -0.17,-3.03 -0.73,-1.16 3.27,-3.03 1.1,0.31 1.97,-1.46 -0.96,-6.95 3.46,-8.27 5.16,-6.16 19.82,-28.34 51.07,-55.02 0,0 z" 
                fill="rgb(151, 144, 238)" 
                stroke="white" 
                stroke-width=".7px"
                title="Kanem" 
                id="TD-KA" 
            />
        </svg>