<svg xmlns="http://www.w3.org/2000/svg" viewBox="0.2681149699999992 449.77853999999996 100.49999503 80.13000000000017" width="100.49999503" height="80.13000000000017">
            <path 
                d="m 51.828115,526.30854 -4.41,-6.03 -18.02,-0.24 -21.28,-30.37 -7.85000003,-36.3 1.26000003,-1.72 6.9,-1.87 0,0 6.3,0.49 1.44,1.91 9.22,0.05 1.34,2.26 2.39,0.19 3.2,3.04 0.72,3.38 2.72,0.89 1.63,3.28 3.58,0.83 1.44,2.84 6.4,1.57 3.11,4.75 5.07,5.87 6.36,11.79 2.77,-1.81 5.21,0.34 11.28,-2.59 9.41,-1.17 5.17,13.93 2.48,4.63 1.099995,5.62 0,0 -7.069995,-3.42 -2.3,-3.71 -4.14,0.6 0.62,3.32 -0.77,2.38 1.09,1.22 3.11,1.17 1,1.27 -3.2,2.58 -1.05,-0.63 -0.96,0.44 -1.43,2.19 -2.49,-2.97 -0.86,-2.1 -2.15,-1.17 -2.1,0.19 2.38,4.33 -1.61,0.99 -0.97,5.93 -1.45,0.99 -1.94,0 -1.79,-1.34 -0.96,1.83 -1.77,0.5 -0.49,0.82 -2.1,0.49 -2.74,-1.81 -3.55,2.47 -3.23,-0.82 -3.72,2.3 -1.5,-0.72 z" 
                fill="rgb(151, 144, 238)" 
                stroke="white" 
                stroke-width=".7px"
                title="Lac" 
                id="TD-LC" 
            />
        </svg>