<svg xmlns="http://www.w3.org/2000/svg" viewBox="84.98811500000004 710.1185399999999 97.94999499999996 82.1599999999994" width="97.94999499999996" height="82.1599999999994">
            <path 
                d="m 141.44811,711.80854 5.55,-1.69 2.53,0.19 2.77,2.07 1.44,-0.33 4.2,2.02 10.23,1.01 7.08,-1.35 0,0 0.76,5.14 -0.38,10.05 -4.59,6.29 4.01,4.13 7.89,11.96 -3.92,6.67 -5.02,1.24 8.41,15.7 0,0 -0.92,0.93 -0.09,1.79 -1.44,-0.79 -0.67,1.76 -2.53,1.14 0.41,0.69 -0.66,1.04 -1.35,0.17 -0.79,-1.17 -1.17,-0.22 -0.03,1.52 -1.98,0.25 -0.42,0.97 -3.99,-0.04 -1.36,0.63 -0.07,0.8 -1.25,-0.5 -0.25,2.01 0.59,0.78 -1.62,0.09 -0.3,0.85 -1.14,0.42 -1.39,-0.28 -1,-2.38 -3.21,-3.11 -1.75,-0.03 -1.1,-0.85 0.04,-3.33 -3.51,-1.47 0.16,-1.73 -0.68,-1.39 0.59,-2.22 -3.69,1.65 -1.42,2.66 -1.4,0.26 -0.22,-0.84 -0.78,-0.13 -1.26,1.78 0.66,1.02 -0.43,0.91 0.63,0.43 -1.81,2.28 -4.36,0.93 -3.16,2.16 -2.38,-0.37 -1.05,0.95 -4.66,0.6 -0.8,0.54 -0.5,1.77 -3.06,2.42 -7.9,2.02 -3.19,-1.79 -0.71,-1.95 -8.679995,0.38 -1.86,-0.78 3.169995,-3.02 1.16,-4.77 -0.04,-3.71 -4.139995,-1.37 -2.75,-4.73 -2.97,-7.01 0.34,-2.26 -5.34,-10.61 -1.94,-7.72 0,0 1.27,-0.57 0,0 3.33,3.79 1.96,1.2 3.01,0.1 0.43,1.15 1.58,1.15 0.09,1.82 1.72,-0.67 0.53,0.67 -0.38,0.82 3.719995,-0.62 3.73,-2.12 5.64,-0.19 2.82,-4.85 6.12,-3.69 0.29,-1.15 3.87,-1.59 1.91,-1.87 7.46,-2.5 3.73,0.24 2.63,-2.98 4.16,-1.39 1.33,-1.49 3.49,-5.86 -0.33,-1.25 -0.96,-1.64 -1.05,0.39 -0.57,-1.83 -1.39,-0.29 z" 
                fill="rgb(151, 144, 238)" 
                stroke="white" 
                stroke-width=".7px"
                title="Logone-Oriental" 
                id="TD-LR" 
            />
        </svg>