<svg xmlns="http://www.w3.org/2000/svg" viewBox="85.80811500000002 705.6985399999999 63.61999500000002 46.70000000000027" width="63.61999500000002" height="46.70000000000027">
            <path 
                d="m 141.44811,711.80854 3.68,5.91 1.39,0.29 0.57,1.83 1.05,-0.39 0.96,1.64 0.33,1.25 -3.49,5.86 -1.33,1.49 -4.16,1.39 -2.63,2.98 -3.73,-0.24 -7.46,2.5 -1.91,1.87 -3.87,1.59 -0.29,1.15 -6.12,3.69 -2.82,4.85 -5.64,0.19 -3.73,2.12 -3.719995,0.62 0.38,-0.82 -0.53,-0.67 -1.72,0.67 -0.09,-1.82 -1.58,-1.15 -0.43,-1.15 -3.01,-0.1 -1.96,-1.2 -3.33,-3.79 0,0 -0.45,-6.2 0.67,-2.45 0.72,-1.87 3.1,-2.79 0,-5.33 0.39,-3.22 1.38,-2.45 -0.33,-2.17 2.58,-1.34 0,0 6.309995,1.82 3.78,-1.82 7.98,1.05 5.26,-1.05 1.43,-2.5 1.2,-0.77 2.86,0.05 5.4,2.35 1.44,-0.91 1.29,-2.7 3.58,-1.29 3.59,-3.08 2.25,3.08 z" 
                fill="rgb(151, 144, 238)" 
                stroke="white" 
                stroke-width=".7px"
                title="Logone-Occidental" 
                id="TD-LO" 
            />
        </svg>