<svg xmlns="http://www.w3.org/2000/svg" viewBox="171.03811000000002 686.6285400000002 55.83000000000001 88.27999999999986" width="55.83000000000001" height="88.27999999999986">
            <path 
                d="m 195.31811,688.74854 3.18,2.61 2.17,4.53 4.64,0.61 2.99,6.77 8.88,4.64 9.02,1.1 -4.35,7.15 -3.98,1.44 -1.43,1.85 1.11,5.53 2.03,2.83 -0.6,5.99 0.71,2.93 0.69,1.63 1.85,0.94 0.53,3.7 2.38,6.19 -0.38,6.32 2.11,9.06 0,0 -8.7,0.48 -5.27,2.43 -9.01,-0.95 -1.43,0.43 -1.51,-0.64 -1.09,1.78 -1.55,0.9 -0.96,-0.28 -1.29,1.18 -1.06,-0.63 -1.54,2.52 -2.26,-1.21 -1.05,1.33 -0.61,-0.53 -0.71,0.28 -0.45,0.25 -0.28,1.11 -1.8,-0.27 -1.55,1.35 -1.15,-0.34 -0.37,1.06 -0.82,0.09 0,0 -8.41,-15.7 5.02,-1.24 3.92,-6.67 -7.89,-11.96 -4.01,-4.13 4.59,-6.29 0.38,-10.05 -0.76,-5.14 0,0 4.2,-4.23 -7.02,-4.57 7.31,-5.3 0,-4.76 1.39,-1.06 -1.96,-2.55 -0.34,-1.5 2.01,-0.96 4.59,-0.14 6.55,-2.03 1.1,1.21 z" 
                fill="rgb(151, 144, 238)" 
                stroke="white" 
                stroke-width=".7px"
                title="Mandoul" 
                id="TD-MA" 
            />
        </svg>