<svg xmlns="http://www.w3.org/2000/svg" viewBox="59.908114999999995 610.76854 73.69999499999999 96.6099999999999" width="73.69999499999999" height="96.6099999999999">
            <path 
                d="m 74.838115,616.56854 9.44,-5.66 7.94,-0.14 1.96,7.31 4.25,3.87 0.81,1.98 3.299995,1.84 1.72,0.15 4.59,3.57 4.54,1.45 3.2,0.83 4.26,-0.05 2.48,1.3 3.3,-0.72 1.53,2.9 -1.34,11.69 0.39,7.29 2.15,2.37 0.95,2.69 0,0 2.11,1.41 0.24,4.53 0.95,2.66 -5.97,10.63 -5.05,5.23 -3.25,1.91 -2.39,0.31 -1.6,-2.2 -1.89,-0.74 -2.27,-0.38 -1.86,0.8 -1.34,1.55 -0.62,3.56 -1.53,0.77 -0.81,3.95 -4.74,4.09 -3.919995,4.82 -3.01,5.24 0,0 -7.21,-2.95 -6.33,-4.14 -2.31,-3.91 -0.41,-4.97 -2.62,-2.78 1.03,-1.78 -0.64,-1.21 -4.02,-1.77 -4.28,1.18 -5.33,0.2 -0.67,-7.23 -0.66,-0.92 0.98,-3.72 -0.65,-1.69 0,0 5.16,1.28 3.97,-2.67 3.18,-1.02 5.54,1.79 1.5,-1.48 3.81,1.45 1.12,-1.54 9.51,3.05 11.889995,-2.5 -1.66,-1.97 -5.709995,-3.32 -0.74,0.2 -1.33,-1.37 -1.66,-3.32 -2.77,-3.05 -1.81,-1.92 -2.17,-0.8 -1.32,-2.79 0.03,-1.75 -2.02,-3.35 -4.55,-3.26 0.42,-5.23 -4.07,-7.68 1.08,-4.21 -0.44,-2.68 -1.57,-2.3 -0.24,-4.19 z" 
                fill="rgb(151, 144, 238)" 
                stroke="white" 
                stroke-width=".7px"
                title="Mayo-Kébbi-Est" 
                id="TD-ME" 
            />
        </svg>