<svg xmlns="http://www.w3.org/2000/svg" viewBox="187.04811000000007 640.94854 124.49000000000001 123.62000000000046" width="124.49000000000001" height="123.62000000000046">
            <path 
                d="m 298.03811,640.94854 -3.25,14.44 2.73,1.06 -0.53,2.6 -1.57,2.76 0.28,2.84 -1.96,1.45 3.25,5.06 14.55,41.74 0,0 -2.19,0.39 -0.59,1.27 -2.99,-0.18 -1.39,1.01 -0.62,-1 -2.03,0.27 -5.17,1.82 -3.34,0.07 -1.17,-0.99 -2.61,1.14 -0.77,-0.86 -1.32,0.95 -1.92,-0.81 -6.54,1.12 -4.01,-1.13 -3.98,1.29 -2.08,-0.76 -1.58,1.19 -3.15,0.79 -1.54,2.48 -1.81,0.08 -0.82,1.35 -0.78,-0.15 -1.27,2.33 0.57,0.55 1.52,-0.28 0.17,1.92 2.03,-0.11 0.39,1.02 2.58,1.07 1.31,1.84 3.03,1.38 0.81,1.32 -2.69,1.63 -1.13,3.99 -0.93,1.29 -1.59,0.69 0.37,0.63 -1.28,1.71 -2.33,1.92 0.11,1.63 -1.17,1.26 -0.69,-0.1 -0.43,1.2 -1.23,-0.29 0.03,2 -2.23,2.15 -6.58,2.63 -1.85,3.1 0.43,2.41 -0.91,1.85 -19.31,1.59 0,0 -2.11,-9.06 0.38,-6.32 -2.38,-6.19 -0.53,-3.7 -1.85,-0.94 -0.69,-1.63 -0.71,-2.93 0.6,-5.99 -2.03,-2.83 -1.11,-5.53 1.43,-1.85 3.98,-1.44 4.35,-7.15 -9.02,-1.1 -8.88,-4.64 -2.99,-6.77 -4.64,-0.61 -2.17,-4.53 -3.18,-2.61 0,0 1.77,-3.66 -6.21,-5.4 -3.83,-1.97 0,0 5.17,-16.69 2.58,-13.46 0,0 15.34,-2.23 4.68,4.83 5.02,2.27 1.77,-0.72 2.87,0.92 5.98,4.05 2.48,1.06 1.91,-0.34 5.5,2.95 6.98,7.76 -0.48,5.12 5.02,2.02 2.72,-0.1 1.49,-5.25 12.09,0 2.87,-6.8 1.1,-1.26 2.24,0.44 0.34,-1.98 3.3,-1.79 3.39,-3.62 -0.52,-2.17 1.81,-1.83 0.43,-2.08 1.87,-2.12 3.15,-1.31 1.77,1.02 2.44,-0.15 1.67,-2.32 z" 
                fill="rgb(151, 144, 238)" 
                stroke="white" 
                stroke-width=".7px"
                title="Moyen-Chari" 
                id="TD-MC" 
            />
        </svg>