<svg xmlns="http://www.w3.org/2000/svg" viewBox="314.91810999999984 454.77854 106.51000000000016 86.90999999999985" width="106.51000000000016" height="86.90999999999985">
            <path 
                d="m 315.20811,471.04854 8.55,-10.63 5.55,-4.27 6.16,0.49 5.74,-1.86 7.7,2.3 3.77,2.31 7.6,8.18 4.93,1.18 3.15,4.16 3.78,0.25 6.16,-3.53 2.63,-0.74 11.19,1.67 19.98,6.07 3.97,2.45 1.79,0.1 0,0 -4.18,4.57 -1.5,2.78 1.59,1.62 -0.37,2.32 1.43,3.1 3.62,3.55 -0.04,4.75 1.29,2.12 1.46,0.87 0.27,1.99 -4.78,5.11 -2.37,3.77 -5.79,1.54 -0.49,1.64 -3.71,2.72 0.25,1.39 -1.54,1.78 -2.16,4.88 -0.68,3.9 0,0 -4.6,-1.19 -2.96,-1.7 -9.42,4.04 -6.02,6.38 -4.26,-1.22 -7.55,1.12 -1.15,0.68 -7.41,-2.87 0.43,-5.16 -1.24,-2.58 -7.22,-1.71 0.43,-2.14 -0.48,-4.15 -10.66,0.25 -8.69,-2.29 0,0 0.28,-17.67 -4.64,-9.38 1.34,-6.94 -1.29,-3.62 -10.13,-6.21 z" 
                fill="rgb(151, 144, 238)" 
                stroke="white" 
                stroke-width=".7px"
                title="Ouaddaï" 
                id="TD-OD" 
            />
        </svg>