<svg xmlns="http://www.w3.org/2000/svg" viewBox="258.4181100000002 566.58854 171.64999999999986 146.31000000000017" width="171.64999999999986" height="146.31000000000017">
            <path 
                d="m 307.74811,570.61854 0.72,3.88 4.3,-1.06 0.38,-2.19 10.42,-0.73 1.39,0.63 1.77,-0.29 32.07,15.53 5.98,3.64 -0.15,4.56 40.78,-7.66 3.39,2.23 6.83,1.16 14.44,30.94 0,0 -1.94,1.19 -2.28,0.06 -8.66,2.94 -2.09,1.58 -3.71,-0.96 -2.76,0.52 -1.62,1.04 -1.07,0.26 -1.87,-0.66 -1.92,0.09 -0.75,1.13 -1.56,0.34 -2.11,2.17 0.01,6.05 -1.44,1.32 -1.19,-0.57 -0.03,4.82 -0.74,2.24 2.56,4.64 -1.34,1.45 -0.11,1.32 -0.84,0.35 0.68,1.3 -0.44,0.89 -1.08,1.23 -1.39,-0.09 0.29,0.67 -1.05,0.54 0.37,1.03 -2.2,0.02 -1.61,0.96 -2.48,-0.75 -3.28,3.61 -0.95,1.62 0.25,1.71 -0.58,0.11 -0.44,1.55 -1.17,0.37 -1.08,2.38 -1.08,0.13 -1.05,1.22 -1.48,-1.27 -0.56,1.06 -2.09,-1.08 -2.46,2.88 -0.18,1.71 -3.15,2.28 -0.85,2.7 -2.48,1.28 -1.57,-0.42 0,2.2 -1.7,-0.9 0.45,2 -1.75,0.16 1.48,0.84 -0.82,0.94 0.58,0.95 -1.27,0.15 1,1.05 -1.75,0.21 0.01,2.33 -1.15,-0.15 -0.59,2.2 -1.94,0.1 -0.39,1.73 -1.89,1.18 0.02,1.56 -1.39,-0.62 -1.44,0.73 -0.35,1.3 -4.49,0.14 -0.92,2.7 -1.15,0.36 0.68,0.81 -1.6,0.07 -1.12,-1.27 -0.65,0.61 -1.85,-0.33 -0.22,1.41 -1.35,0.03 0.11,1.68 -2.01,4.75 -1.04,0.94 -6.26,1.56 -1.95,-0.15 -1.97,-1.31 -4.33,0.66 -1.4,-0.89 -0.95,1.12 -1.38,-0.44 -1.92,0.79 -0.17,1.02 -0.53,-0.56 -0.6,1.02 0,0 -14.55,-41.74 -3.25,-5.06 1.96,-1.45 -0.28,-2.84 1.57,-2.76 0.53,-2.6 -2.73,-1.06 3.25,-14.44 0,0 1.11,-6.24 -0.91,-7.54 1.43,-1.84 -1.48,-1.5 -0.57,-2.85 -10.28,-2.27 -3.54,-2.71 -16.68,-6.83 -2.63,-1.35 -1.63,-1.94 -3.1,-0.87 -1.34,-7.08 1.34,-10.42 7.31,0.14 1.58,4.32 6.07,-1.84 6.02,-10.53 -1.34,-6.16 7.27,-6.85 5.5,1.94 z" 
                fill="rgb(151, 144, 238)" 
                stroke="white" 
                stroke-width=".7px"
                title="Salamat" 
                id="TD-SA" 
            />
        </svg>