<svg xmlns="http://www.w3.org/2000/svg" viewBox="306.93811000000017 521.03854 148.04000000000002 103.33000000000015" width="148.04000000000002" height="103.33000000000015">
            <path 
                d="m 329.35811,521.03854 8.69,2.29 10.66,-0.25 0.48,4.15 -0.43,2.14 7.22,1.71 1.24,2.58 -0.43,5.16 7.41,2.87 1.15,-0.68 7.55,-1.12 4.26,1.22 6.02,-6.38 9.42,-4.04 2.96,1.7 4.6,1.19 0,0 1.27,4 3.6,4.09 4.38,-0.09 4.95,-1.39 2.81,-2 0.13,-2.11 7.73,4.33 4.72,1.81 -1.82,5.6 -2.32,3.68 2.4,2.22 1.05,5.63 2.02,4.36 0.12,4.95 -0.82,2.46 -0.68,0.16 1.65,0.29 2.85,-1.58 4,-0.24 0.19,0.49 -4.03,17.17 0.54,3.56 4.6,5.1 4.4,1.95 1.6,1.79 0.06,1.7 7.47,-0.68 0.38,5.1 1.38,0.76 0.19,4.68 -5.01,13 -5.38,-0.64 -1.15,-1.3 -6.33,-1.26 -2.08,0.62 -2.3,-1.13 -2.66,0.6 0,0 -14.44,-30.94 -6.83,-1.16 -3.39,-2.23 -40.78,7.66 0.15,-4.56 -5.98,-3.64 -32.07,-15.53 -1.77,0.29 -1.39,-0.63 -10.42,0.73 -0.38,2.19 -4.3,1.06 -0.72,-3.88 0,0 -0.81,-1.89 2.43,-8.12 2.92,-6.76 3.87,-5.3 3.44,-1.8 -1.91,-4.04 2.87,-5.5 1.43,-0.09 1.92,-1.71 -0.67,-1.75 -8.85,-6.58 0,0 13.67,-3.22 1.25,-0.92 z" 
                fill="rgb(151, 144, 238)" 
                stroke="white" 
                stroke-width=".7px"
                title="Sila" 
                id="TD-SI" 
            />
        </svg>