<svg xmlns="http://www.w3.org/2000/svg" viewBox="93.35811500000003 656.54854 103.729995 59.819999999999936" width="103.729995" height="59.819999999999936">
            <path 
                d="m 130.30811,659.23854 13.82,0.44 4.83,-3.13 0.85,1.4 1.01,0.09 -0.19,3.04 2.05,4.83 3.64,0.86 1.81,2.08 1.63,-0.2 4.16,1.16 1.53,0.92 0.62,1.25 4.68,0 5.93,1.21 1.15,2.36 3.25,1.49 5.97,0.68 0,0 3.83,1.97 6.21,5.4 -1.77,3.66 0,0 -2.24,-0.91 -1.1,-1.21 -6.55,2.03 -4.59,0.14 -2.01,0.96 0.34,1.5 1.96,2.55 -1.39,1.06 0,4.76 -7.31,5.3 7.02,4.57 -4.2,4.23 0,0 -7.08,1.35 -10.23,-1.01 -4.2,-2.02 -1.44,0.33 -2.77,-2.07 -2.53,-0.19 -5.55,1.69 0,0 0,0 0,0 -0.76,-3.03 -2.25,-3.08 -3.59,3.08 -3.58,1.29 -1.29,2.7 -1.44,0.91 -5.4,-2.35 -2.86,-0.05 -1.2,0.77 -1.43,2.5 -5.26,1.05 -7.98,-1.05 -3.78,1.82 -6.309995,-1.82 0,0 -0.96,-7.17 0,0 3.01,-5.24 3.919995,-4.82 4.74,-4.09 0.81,-3.95 1.53,-0.77 0.62,-3.56 1.34,-1.55 1.86,-0.8 2.27,0.38 1.89,0.74 1.6,2.2 2.39,-0.31 3.25,-1.91 5.05,-5.23 5.97,-10.63 -0.95,-2.66 -0.24,-4.53 z" 
                fill="rgb(151, 144, 238)" 
                stroke="white" 
                stroke-width=".7px"
                title="Tandjilé" 
                id="TD-TA" 
            />
        </svg>