<svg xmlns="http://www.w3.org/2000/svg" viewBox="73.038115 0.27853839999999863 194.78999500000003 323.1200016" width="194.78999500000003" height="323.1200016">
            <path 
                d="m 73.038115,23.478538 47.909995,-23.1999996 47.03,23.4399996 99.85,51.37 0,0 -4.63,1.15 -2.72,2.05 -0.05,2.62 -1.34,2.36 -1.15,0 -3.91,6.49 0.43,2.3 -1.1,3.17 -0.19,8.120002 -0.67,2.86 -6.31,4.85 -2.06,3.47 -3.4,3.06 -4.59,1.48 -1.53,1.43 -5.88,0.3 -3.68,0.92 -5.58,3.05 -4.78,7.94 -5.26,3.66 -2.1,2.89 -0.39,2.19 0.91,4.52 3.73,3.8 2.82,8.58 -1.24,1.77 -0.48,3.8 1.43,2.73 1.53,7.04 -0.09,2.98 -2.59,4.76 -2.77,1.52 -2.06,-3.09 -3.49,-3.28 -1.19,-3.95 -3.35,-2.28 -1.43,-3.24 -2.01,-0.65 -1.96,-2.18 -1.1,-3.95 0.19,-2.94 3.4,-3.55 0,-2.79 -5.31,-3.25 -1.91,0.91 -1.72,3.35 -0.81,7.81 -7.08,14.27 -82.569995,149.26 0,0 3.829995,-82.7 7.27,-59.36 0.37,-1.87 11.57,-20.28 -6.24,-5.78 -5.71,-8.48 -7.43,-7.36 -2.099995,-5.39 0.709995,-1.5 3.08,-2.71 -16.109995,-23.91 -4.31,-3.01 -0.31,-25.510002 z" 
                fill="rgb(151, 144, 238)" 
                stroke="white" 
                stroke-width=".7px"
                title="Tibesti" 
                id="TD-TI" 
            />
        </svg>