<svg xmlns="http://www.w3.org/2000/svg" viewBox="314.2981099999998 378.3785400000001 147.63000000000022 100.7999999999999" width="147.63000000000022" height="100.7999999999999">
            <path 
                d="m 352.10811,389.33854 4.21,-2.37 4.15,-4.14 1.29,-0.15 4.69,-2.76 3.68,1.03 3.11,1.98 3.96,0.79 14.97,-3.61 3.53,-1.53 10.76,2.18 7.36,-2.38 2.77,1.59 1.44,-0.7 3.05,2.23 2.25,0.69 4.3,-1.48 5.26,1.43 0.91,0.89 0.29,2.96 2.53,0.74 6.31,-1.04 3.06,-1.18 2.68,1.78 2.19,0.34 4.4,-1.08 2.44,1.08 4.23,4.37 0,0 -3.53,2.64 -2.53,3.33 -2.41,0.53 -1.35,1.89 0.2,3.71 3.19,3.29 -0.28,2.85 0.61,1.58 -0.82,2.41 0.62,1.1 -1.17,2.01 -2.08,1.5 0.4,2.87 -3.32,1.2 -5.44,5.46 0.01,3.41 -2.53,0.6 -1.41,1.56 2.2,8.23 -4.94,2.02 -6.47,1.3 -1.43,1.31 -1.95,0.06 -1.29,4.37 3.03,1.19 -0.19,5.74 0.87,1.79 -1.61,1.8 2.44,2.95 1.8,-0.58 1.97,0.69 -0.22,1.02 1.09,1.61 -1.91,2.82 -1.56,0.44 -3.47,2.86 -1.83,0.06 -1.64,1.59 -1.45,0.32 -1.74,1.77 -2.86,1.34 -1.07,1.54 0,0 -1.79,-0.1 -3.97,-2.45 -19.98,-6.07 -11.19,-1.67 -2.63,0.74 -6.16,3.53 -3.78,-0.25 -3.15,-4.16 -4.93,-1.18 -7.6,-8.18 -3.77,-2.31 -7.7,-2.3 -5.74,1.86 -6.16,-0.49 -5.55,4.27 -8.55,10.63 0,0 -0.91,-81.6 0,0 3.3,1.13 6.64,4.39 3.25,0.64 8.51,-1.87 5.02,1.82 2.68,-1.03 6.41,-4.89 z" 
                fill="rgb(151, 144, 238)" 
                stroke="white" 
                stroke-width=".7px"
                title="Wadi Fira" 
                id="TD-WF" 
            />
        </svg>