<svg xmlns="http://www.w3.org/2000/svg" viewBox="236.18019999999993 112.28620000000014 144.1400000000007 107.6299999999999" width="144.1400000000007" height="107.6299999999999">
            <path 
                d="m 352.0302,209.0762 -0.21,0.8 -1.64,0 -0.83,-0.99 -1.15,-0.49 -1.48,0 -0.16,-0.82 -1.98,-0.17 -0.99,0.82 -2.47,0.33 -1.31,0.83 -1.82,0.33 -0.98,0.82 -1.32,2.14 -1.81,1.81 -1.81,2.3 -2.14,0.5 -2.64,0.82 -2.14,-0.82 -2.63,0 -1.32,-0.17 -0.66,-0.98 -1.31,1.64 -2.97,2.14 -3.12,-0.33 0,0 -1.65,-1.81 0,0 -0.82,-2.14 -2.97,-0.33 -1.15,-1.15 -2.8,-1.81 -2.47,0.49 -1.15,0.83 -2.47,0.16 -0.66,2.8 -1.31,0.99 -4.12,-0.83 -4.45,-1.97 -3.78,-1.32 -4.94,-0.49 -5.43,-0.17 -4.61,-1.64 -2.14,-1.65 -3.63,-1.48 -4.11,-1.48 0,0 -2.14,-2.47 0,0 -0.66,-3.62 -1.48,-1.65 0.16,-3.46 -2.47,-1.48 -1.97,-0.33 -2.64,-2.8 -2.96,-3.45 -2.96,-1.32 -1.81,-1.15 -1.65,0 0.17,-3.3 -1.82,-1.15 -0.07,-0.31 0,0 0.73,0.64 0,0 -0.16,-1.65 1.48,-0.49 -0.16,-7.08 -0.99,-0.82 -0.33,-1.32 2.47,-3.79 0.49,-1.48 2.31,-2.47 1.31,-0.98 1.32,-1.81 0,-8.73 -1.15,-2.47 -1.15,-1.48 -0.33,-6.26 -1.16,-0.66 -0.33,-2.79 0,-2.64 1.32,-0.66 1.65,-1.15 2.47,-0.66 1.97,-1.15 1.32,-1.65 0.66,-1.15 -0.5,-1.97 -0.49,-1.16 -1.32,-1.31 -1.48,-1.98 -0.38,-0.17 0,0 0,-0.25 0,0 0.24,-1.36 0.74,-0.86 1.48,-0.13 2.6,1.98 0.86,0.99 0.13,0.86 1.72,0.13 0.74,-1.12 0.99,-0.61 1.61,-0.25 0.99,-1.11 2.09,0.12 0.13,-0.99 0,0 0.37,-2.22 0,0 2.22,-0.62 2.72,0.13 1.11,0.25 0.86,1.23 3.95,1.36 3.34,0 1.11,0.74 0.86,1.48 1.36,1.36 4.08,3.21 1.6,0.99 1.48,0.37 0,1.11 2.22,0.74 1.12,1.48 0,2.35 -0.99,1.36 -0.62,1.11 -1.23,0.74 -1.61,0 -1.48,0.49 -0.25,1.36 0.87,1.73 1.6,1.11 1.48,0.49 1.36,0.87 3.71,1.11 1.85,1.11 3.58,1.73 1.48,-0.74 0.74,-1.11 0.5,-1.24 0.98,-0.99 1.11,-2.84 0,-0.98 -0.86,-1.11 -0.25,-3.22 1.24,-1.23 -0.37,-2.1 -1.48,-1.73 -1.24,-1.11 -0.74,-0.86 1.36,-1.48 0.37,-1.24 1.11,-0.62 0,-1.85 -0.74,-0.74 -0.49,-1.48 0,-3.34 0,0 3.53,-0.12 0,0 1.48,-0.37 1.48,-0.99 1.48,-0.49 1.61,-0.74 1.48,-0.37 1.36,0.86 1.85,1.61 1.23,0.74 2.35,-0.37 1.6,0.86 1.73,-0.74 1.73,-0.12 2.22,0.99 1.86,0.12 3.58,-0.12 1.73,-0.5 1.11,-0.49 1.6,0.12 1.24,1.11 1.35,0 0.99,0.62 0.74,0.11 0,0 -0.13,0.51 0,0 0.12,1.85 0.91,1.6 0.87,2.1 0,2.1 -0.62,1.98 0.12,2.71 1.61,0.75 0,2.71 1.6,0.25 3.22,0.25 2.96,-0.5 0.74,-1.36 1.11,-0.24 5.06,4.57 2.1,1.11 1.85,0.24 1.24,0.99 0.25,1.48 -0.99,1.11 -1.11,0.87 -1.98,0.24 -0.62,1.73 1.36,1.73 1.11,2.22 1.73,1.86 1.61,1.48 2.1,0.37 2.47,0.86 2.34,1.24 2.22,2.22 0,2.47 1.61,0.74 1.11,0.99 1.85,1.23 2.84,1.36 0.87,1.98 -0.5,1.97 -1.11,1.85 -0.74,2.23 -0.74,1.23 -2.47,0 -0.99,-1.36 -0.86,-0.86 -3.95,-0.12 -3.71,0.24 -1.36,1.24 -0.74,1.48 -0.24,1.97 1.11,1.36 -0.13,1.98 -1.11,3.21 -0.86,1.97 -0.12,2.23 -1.24,1.85 -1.23,1.48 -1.61,1.73 -1.36,0.99 -3.21,4.07 -1.23,1.85 -1.24,2.47 -1.23,1.36 -0.12,2.72 -0.99,1.73 0.74,1.23 1.48,0.99 0,0 z" 
                fill="rgb(151, 144, 238)" 
                stroke="white" 
                stroke-width=".7px"
                title=" Guárico" 
                id="VE-J" 
            />
        </svg>