<svg xmlns="http://www.w3.org/2000/svg" viewBox="338.66019999999907 103.32620000000011 134.22000000000037 115.38999999999996" width="134.22000000000037" height="115.38999999999996">
            <path 
                d="m 472.7702,184.9362 -0.84,0.32 -0.86,0 -1.36,0.37 -0.62,1.61 -0.99,0.98 -1.11,0.87 -1.85,0.99 -1.85,-0.13 -1.48,-0.74 -1.98,-0.12 -4.81,-1.85 -1.86,0.12 -1.35,0.74 -1.73,-0.86 -1.36,1.11 -0.99,1.23 -1.73,0.37 -1.23,0 -1.36,2.35 -1.6,0.99 -1.61,0.61 -0.86,0.74 -3.21,1.73 -2.23,0.25 -1.73,-0.12 -1.23,-0.75 -1.85,0.25 -2.72,1.73 -1.48,0 -1.73,1.23 -2.47,3.83 -0.86,1.11 -1.61,1.12 -2.1,1.23 -2.47,-0.12 -2.96,-0.5 -1.6,-1.97 -2.47,-1.48 -1.61,-1.73 -2.1,-0.13 -4.44,2.1 -1.73,0.99 -1.85,-0.74 -2.6,-0.12 -0.86,0.74 -1.73,0.98 -1.48,1.73 0.25,2.47 0.37,1.11 1.11,0.99 1.36,0.74 0.12,1.24 -0.87,1.23 -4.19,0.25 -3.83,2.1 -1.73,1.6 -3.33,0.99 -1.98,0 -1.6,-0.25 -1.98,-1.48 -2.1,-1.36 -1.48,-1.97 -2.1,-0.87 -2.84,-0.61 -2.1,-0.62 -4.94,-1.85 -2.1,-0.5 -2.22,-0.12 0,0 -1.48,-1.11 0,0 -1.48,-0.99 -0.74,-1.23 0.99,-1.73 0.12,-2.72 1.23,-1.36 1.24,-2.47 1.23,-1.85 3.21,-4.07 1.36,-0.99 1.61,-1.73 1.23,-1.48 1.24,-1.85 0.12,-2.23 0.86,-1.97 1.11,-3.21 0.13,-1.98 -1.11,-1.36 0.24,-1.97 0.74,-1.48 1.36,-1.24 3.71,-0.24 3.95,0.12 0.86,0.86 0.99,1.36 2.47,0 0.74,-1.23 0.74,-2.23 1.11,-1.85 0.5,-1.97 -0.87,-1.98 -2.84,-1.36 -1.85,-1.23 -1.11,-0.99 -1.61,-0.74 0,-2.47 -2.22,-2.22 -2.34,-1.24 -2.47,-0.86 -2.1,-0.37 -1.61,-1.48 -1.73,-1.86 -1.11,-2.22 -1.36,-1.73 0.62,-1.73 1.98,-0.24 1.11,-0.87 0.99,-1.11 -0.25,-1.48 -1.24,-0.99 -1.85,-0.24 -2.1,-1.11 -5.06,-4.57 -1.11,0.24 -0.74,1.36 -2.96,0.5 -3.22,-0.25 -1.6,-0.25 0,-2.71 -1.61,-0.75 -0.12,-2.71 0.62,-1.98 0,-2.1 -0.87,-2.1 -0.91,-1.6 -0.12,-1.85 0,0 0.37,-1.36 0,0 2.34,0.12 1.61,-0.86 1.85,-1.24 1.36,-1.23 1.36,-1.61 0.98,-0.61 1.36,-1.24 1.24,-0.86 0.12,-0.8 0,0 6.99,1.2 8.61,2.45 4.01,-1 7.31,0.03 1.63,-0.32 1.05,-0.34 1.4,-0.73 0.79,-2.95 3.68,-2.29 2.29,-0.38 2.16,0.38 2.13,-0.31 0.19,-0.32 0,0 0.51,0.78 0.49,0.37 1.24,1.36 0.49,1.85 1.36,0.87 1.23,0.37 1.36,0.62 1.36,0.37 1.11,0.74 4.45,0 1.23,-0.62 3.58,-1.36 3.21,0 0.87,0.37 1.11,0.74 0,0 0.33,0 0,0 0.02,0.74 -1.97,1.12 -2.72,0.74 -0.49,1.6 0.25,1.98 1.11,0.86 1.36,0.5 0.86,0.74 0.37,1.48 1.23,0.86 0.87,1.85 -0.87,0.87 -0.49,1.73 0.49,1.97 1.61,1.24 1.23,1.6 1.36,4.45 0,1.48 -0.99,0.49 -1.11,1.11 -1.97,1.61 -1.36,1.73 0.12,2.1 0.99,2.1 0.99,1.72 0.74,2.1 0.74,0.99 2.35,-0.62 1.23,-0.49 1.48,-0.25 1.61,0.87 2.71,1.11 4.7,3.58 2.34,2.59 1.98,1.11 1.48,1.36 3.83,2.84 0.98,1.73 0.62,1.61 0.25,1.72 1.11,1.98 1.11,1.48 7.78,-0.37 2.59,-0.86 2.47,0 0.5,1.23 -1.86,1.73 -2.59,-0.12 0.25,0.86 -0.37,2.47 0.86,1.24 1.85,1.35 2.6,0.99 5.18,1.48 1.98,0.74 2.34,1.24 1.73,0.49 0,0 z" 
                fill="rgb(151, 144, 238)" 
                stroke="white" 
                stroke-width=".7px"
                title="Anzoátegui" 
                id="VE-B" 
            />
        </svg>