<svg xmlns="http://www.w3.org/2000/svg" viewBox="46.030198999999946 201.34620000000027 266.31000100000006 86.50999999999985" width="266.31000100000006" height="86.50999999999985">
            <path 
                d="m 312.3402,218.7162 -0.95,1.07 -1.32,0.82 -2.3,0.5 -0.99,2.14 -1.15,1.97 -3.13,4.45 -1.15,0.99 -1.32,2.47 -3.95,1.81 -2.8,0 -2.3,1.15 -2.8,2.8 -2.47,0.98 -2.96,-0.16 -2.47,0.82 -2.14,1.16 -1.49,2.63 -0.65,2.96 0.98,1.65 1.48,-0.33 1.32,1.65 0.17,1.48 -0.66,6.58 -2.31,2.8 -0.82,3.62 -1.48,2.97 0.16,2.8 -0.33,1.81 -1.31,2.3 -2.14,0.66 -0.83,0.82 -0.82,2.31 -1.97,0.99 -1.16,1.48 -1.48,0.49 -0.82,0.99 -1.37,0.93 0,0 -1.41,-0.29 -4.89,-2.48 -2.47,-0.62 -5.68,-0.13 -1.35,-0.86 -4.45,0.99 -0.62,1.36 -0.86,1.23 -1.98,0.62 -5.57,-1.31 -1.27,-0.09 -1.43,0.9 -1.11,1.49 -1.76,-1.3 -1.63,0.43 -0.62,0.87 -1.72,0.06 -3.84,-1.3 -2.1,0.31 -1.73,0.8 -4.44,0 -1.98,1.63 -2.11,-0.27 -1.14,-0.68 -1.84,-0.55 -3.28,-0.75 -8.75,-1.25 -1.35,-0.06 -1.65,-1.03 -2.84,0.62 -1.85,2.59 -1.12,1.98 -0.72,1.67 -2.36,-0.19 -0.74,-1.11 -0.19,-1.55 -2.43,0.12 -2.58,1.2 -1.72,-1.26 0.13,-2.09 -4.08,-3.09 -4.32,-4.2 -0.49,-3.33 -2.56,-2.28 -5.59,-6.37 -0.37,-1.97 -4.32,-3.71 -5.01,-6.7 -0.6,-2.09 -1.61,-1.73 -1.85,0 -3.33,0.37 -1.48,0.74 -1.11,0.99 -2.09,-0.11 -0.74,-0.5 -0.88,-1.86 -2.84,-0.86 -1.6,-0.74 -2.23,-2.96 -15.31,0 -0.74,0.98 -0.98,0.99 -1.73,1.11 -1.36,1.11 -0.8,0.95 -2.78,-0.08 -1.61,-1.98 -19.810001,-0.25 -1.42,-1.85 -2.23,-0.12 -1.73,1.11 -3.82,0.74 -2.47,1.11 -7.29,0.25 -2.34,-2.1 -0.99,-1.36 -3.33,-3.46 -0.55,-1.11 -0.85,-2.83 0.02,-1.19 0.42,-1.59 1.03,-1.3 -1.85,-1.61 -1.73,-0.86 -4.69,0 -1.09,-0.97 0,0 0.42,-0.94 3.13,-0.16 2.31,0.16 1.31,-0.66 1.32,-0.16 0.99,1.15 1.15,0.99 1.65,0.99 2.47,0.32 2.96,0 1.48,-0.65 1.32,-0.33 0.49,-0.99 0,-0.82 0.99,-1.49 0,0 0.09,-0.29 0,0 3.02,0 1.32,1.32 2.14,1.31 2.63,0.33 1.32,-0.99 0.82,0 0.99,0.99 2.47,0 1.48,-0.82 5.44,-0.17 1.81,0.83 4.11,0.33 1.81,1.31 1.48,1.32 2.800001,0 4.94,2.14 6.16,-0.16 2.3,0.82 3.46,0.49 2.31,-0.82 0.33,-1.32 3.12,0.17 1.98,-1.48 1.97,-2.31 2.64,-0.49 1.81,-1.32 2.14,-6.59 3.13,-0.32 3.45,-0.66 2.14,-2.31 3.13,-2.14 3.95,-0.16 4.94,-3.79 4.45,0.33 2.47,-1.48 5.43,-4.45 4.61,-3.45 3.79,-0.5 7.57,0.17 3.29,0.49 2.31,1.48 4.77,0.33 3.13,2.47 2.47,1.32 3.78,-0.17 4.78,-0.49 3.46,-0.66 4.6,-0.16 2.64,0.33 3.46,0.98 3.78,-1.15 1.48,-0.66 1.65,0 0.66,0.66 5.43,0.99 7.25,0.66 5.76,-0.66 2.3,-0.66 1.98,-1.15 2.3,-0.17 1.44,-0.78 0,0 1.79,2.07 0,0 4.11,1.48 3.63,1.48 2.14,1.65 4.61,1.64 5.43,0.17 4.94,0.49 3.78,1.32 4.45,1.97 4.12,0.83 1.31,-0.99 0.66,-2.8 2.47,-0.16 1.15,-0.83 2.47,-0.49 2.8,1.81 1.15,1.15 2.97,0.33 0.82,2.14 0,0 z" 
                fill="rgb(151, 144, 238)" 
                stroke="white" 
                stroke-width=".7px"
                title="Apure" 
                id="VE-C" 
            />
        </svg>