<svg xmlns="http://www.w3.org/2000/svg" viewBox="243.8902 90.80619799999998 57.790000000000305 54.57000200000003" width="57.790000000000305" height="54.57000200000003">
            <path 
                d="m 260.4302,116.0462 -0.12,-0.18 -2.22,-1.36 -3.83,-0.12 -1.23,-0.37 -0.37,-1.73 0.25,-1.73 0.61,-2.84 0.37,-2.72 0.75,-1.6 0,-1.85 -1.12,-1.24 -2.1,-0.25 -2.84,0.13 -1.85,-0.370002 -1.73,-0.87 -1.11,-1.23 0.13,-1.73 2.22,-2.1 1.11,-0.37 0.17,-0.6 0,0 8.8,-1.14 5.58,-0.38 2.79,-0.51 1.31,-0.08 0,0 0.22,1.85 0.74,0.74 -0.25,1.23 0.99,1.36 0.12,1.11 1.11,0.12 0.74,-0.49 0.5,-0.99 1.11,-0.74 0.99,0.25 0.86,0.99 1.11,0 1.11,-0.62 0,0 0.05,-0.02 0,0 0.18,1.38 0,2.84 1.23,1.730002 0.49,1.11 1.24,1.36 -0.12,1.72 -0.99,0.99 0,1.73 0.86,1.24 4.08,1.48 1.23,0.74 1.36,1.23 1.11,1.24 2.35,0 6.05,0.37 1.97,0.74 2.84,-0.13 0,0 0.18,0 0,0 0,3.34 0.49,1.48 0.74,0.74 0,1.85 -1.11,0.62 -0.37,1.24 -1.36,1.48 0.74,0.86 1.24,1.11 1.48,1.73 0.37,2.1 -1.24,1.23 0.25,3.22 0.86,1.11 0,0.98 -1.11,2.84 -0.98,0.99 -0.5,1.24 -0.74,1.11 -1.48,0.74 -3.58,-1.73 -1.85,-1.11 -3.71,-1.11 -1.36,-0.87 -1.48,-0.49 -1.6,-1.11 -0.87,-1.73 0.25,-1.36 1.48,-0.49 1.61,0 1.23,-0.74 0.62,-1.11 0.99,-1.36 0,-2.35 -1.12,-1.48 -2.22,-0.74 0,-1.11 -1.48,-0.37 -1.6,-0.99 -4.08,-3.21 -1.36,-1.36 -0.86,-1.48 -1.11,-0.74 -3.34,0 -3.95,-1.36 -0.86,-1.23 -1.11,-0.25 -2.72,-0.13 -2.22,0.62 0,0 z" 
                fill="rgb(151, 144, 238)" 
                stroke="white" 
                stroke-width=".7px"
                title="Aragua" 
                id="VE-D" 
            />
        </svg>