<svg xmlns="http://www.w3.org/2000/svg" viewBox="68.11019900000012 158.33619999999968 188.58000099999987 76.10000000000022" width="188.58000099999987" height="76.10000000000022">
            <path 
                d="m 256.6902,204.5162 -1.44,0.78 -2.3,0.17 -1.98,1.15 -2.3,0.66 -5.76,0.66 -7.25,-0.66 -5.43,-0.99 -0.66,-0.66 -1.65,0 -1.48,0.66 -3.78,1.15 -3.46,-0.98 -2.64,-0.33 -4.6,0.16 -3.46,0.66 -4.78,0.49 -3.78,0.17 -2.47,-1.32 -3.13,-2.47 -4.77,-0.33 -2.31,-1.48 -3.29,-0.49 -7.57,-0.17 -3.79,0.5 -4.61,3.45 -5.43,4.45 -2.47,1.48 -4.45,-0.33 -4.94,3.79 -3.95,0.16 -3.13,2.14 -2.14,2.31 -3.45,0.66 -3.13,0.32 -2.14,6.59 -1.81,1.32 -2.64,0.49 -1.97,2.31 -1.98,1.48 -3.12,-0.17 -0.33,1.32 -2.31,0.82 -3.46,-0.49 -2.3,-0.82 -6.16,0.16 -4.94,-2.14 -2.800001,0 -1.48,-1.32 -1.81,-1.31 -4.11,-0.33 -1.81,-0.83 -5.44,0.17 -1.48,0.82 -2.47,0 -0.99,-0.99 -0.82,0 -1.32,0.99 -2.63,-0.33 -2.14,-1.31 -1.32,-1.32 -3.02,0 0,0 0.24,-0.86 0,0 0.99,-0.82 1.97,-0.33 1.48,-0.82 2.31,0.82 3.46,0.49 1.97,0.66 2.31,0 1.64,0.66 1.32,0.33 3.62,-0.17 -0.16,-1.15 -0.83,-0.99 -1.31,-0.98 -1.15,-1.16 -0.99,-0.49 -0.99,-1.15 0,-1.65 0.16,-1.64 0.99,-0.33 -0.49,-2.64 0.07,-0.26 0,0 0.97,-0.68 0,0 1.6,-0.87 3.83,-2.59 2.22,-1.11 1.86,-2.1 2.71,-2.1 2.470001,-2.22 1.61,-1.73 1.48,-1.85 0.62,-1.36 0.24,-1.11 0.87,-0.99 0,-3.09 -0.99,-0.99 0,-2.09 -0.99,-0.62 -0.24,-1.11 1.23,0 0.49,-0.99 1.36,-1.36 0,-1.85 0.87,-1.48 0,-1.98 1.23,-2.22 1.24,-0.74 1.48,-1.85 0.99,-0.87 1.23,-1.6 1.11,-1.11 1.61,-0.99 1.72,-0.25 0.99,-0.37 0.99,-1.36 0,-0.24 0.49,-0.75 1.12,-0.12 0.98,-0.86 1.24,-0.25 1.11,-0.86 -0.37,-1.24 1.85,-2.59 0.41,-0.83 0,0 1.81,-0.21 0,0 2.47,-0.86 7.41,-0.13 1.85,0.99 1.36,0 0,0 1.56,0.24 0,0 1.52,0.76 1.31,1.64 1.65,1.16 2.3,1.97 2.31,1.15 2.14,1.81 2.8,0.83 2.96,1.15 1.15,0.99 7.08,0 2.14,1.97 5.27,1.98 2.8,-0.66 2.8,0.99 2.14,1.97 0.99,1.49 1.81,2.3 0.33,1.98 1.97,0.82 0.66,1.32 -1.32,1.15 -0.33,1.48 1.32,0.66 1.65,1.48 1.64,1.81 2.14,0.82 1.49,1.49 0.49,1.81 1.32,0.82 1.31,1.98 2.14,0.98 1.98,-0.33 0.16,-6.75 0.33,-1.81 1.48,-0.49 1.32,-2.31 1.98,-0.98 2.14,-0.66 1.31,-2.14 0.5,-1.98 0.82,-1.31 0.5,-2.14 0,0 -0.14,-2.24 0,0 10.24,0.42 2.31,0.5 1.15,0 0.66,-0.66 3.46,-0.17 1.64,0.5 2.97,2.47 0,0 0.58,0.51 0,0 0.07,0.31 1.82,1.15 -0.17,3.3 1.65,0 1.81,1.15 2.96,1.32 2.96,3.45 2.64,2.8 1.97,0.33 2.47,1.48 -0.16,3.46 1.48,1.65 0.66,3.62 0,0 z" 
                fill="rgb(151, 144, 238)" 
                stroke="white" 
                stroke-width=".7px"
                title="Barinas" 
                id="VE-E" 
            />
        </svg>