<svg xmlns="http://www.w3.org/2000/svg" viewBox="262.4602000000001 181.95619999999965 317.60000000000184 215.62999999999997" width="317.60000000000184" height="215.62999999999997">
            <path 
                d="m 387.6102,370.6262 0.41,-6.72 0,-1.98 -1.31,-1.65 0,-2.96 -0.5,-2.14 -1.64,-0.49 -1.81,-0.83 -1.48,-0.16 -0.99,0.82 -0.83,0.17 -1.81,-1.16 -2.8,-0.65 -2.79,-2.14 -5.77,-8.24 -2.79,-5.1 -1.65,-2.63 -0.82,-2.47 -0.66,-3.79 -1.32,-1.65 -0.33,-2.79 1.32,-0.83 4.77,-0.49 0.99,-0.99 0,-2.14 -1.81,-1.48 -1.15,-0.66 -0.17,-2.14 1.65,-0.66 0.33,-1.15 0,-1.15 -1.65,-1.32 -1.97,-1.98 -2.14,-2.79 0.16,-0.99 1.48,-0.82 0.5,-1.16 -0.5,-1.31 -0.82,0 -2.14,-1.16 -5.76,0 -1.98,1.48 -2.14,2.64 -2.47,0 -2.3,-2.96 -0.17,-4.78 1.65,-4.28 0.33,-4.44 -0.99,-1.98 -3.13,-0.82 -2.96,0.33 -1.48,0.49 -1.98,0.99 -2.63,6.09 -2.14,2.3 -1.48,2.14 -1.32,1.65 -3.13,1.48 -3.29,-0.16 -1.15,0.99 -2.14,0.98 -1.65,0.17 -0.33,-1.98 -1.15,-0.82 0.16,-3.79 -0.66,-1.31 -2.63,0.33 -3.29,3.12 -2.31,1.81 -0.99,1.32 -4.77,2.47 -2.63,-0.33 -2.64,0.82 -6.25,0.17 -3.79,0.82 -1.32,0.99 -2.3,-0.33 -1.65,-1.81 -4.28,0.33 -0.66,-1.98 0,-2.3 0.83,-1.98 0.16,-1.81 -0.49,-1.48 1.31,-0.66 0,-2.96 -0.98,-1.65 0,-1.97 -1.65,-0.83 -3.29,-0.82 -2.14,0.17 -1.65,-0.5 -0.82,-0.66 -2.14,-0.82 -0.45,0 0,0 0.15,-1.44 0,0 1.37,-0.93 0.82,-0.99 1.48,-0.49 1.16,-1.48 1.97,-0.99 0.82,-2.31 0.83,-0.82 2.14,-0.66 1.31,-2.3 0.33,-1.81 -0.16,-2.8 1.48,-2.97 0.82,-3.62 2.31,-2.8 0.66,-6.58 -0.17,-1.48 -1.32,-1.65 -1.48,0.33 -0.98,-1.65 0.65,-2.96 1.49,-2.63 2.14,-1.16 2.47,-0.82 2.96,0.16 2.47,-0.98 2.8,-2.8 2.3,-1.15 2.8,0 3.95,-1.81 1.32,-2.47 1.15,-0.99 3.13,-4.45 1.15,-1.97 0.99,-2.14 2.3,-0.5 1.32,-0.82 0.95,-1.07 0,0 0.8,0.87 0,0 3.12,0.33 2.97,-2.14 1.31,-1.64 0.66,0.98 1.32,0.17 2.63,0 2.14,0.82 2.64,-0.82 2.14,-0.5 1.81,-2.3 1.81,-1.81 1.32,-2.14 0.98,-0.82 1.82,-0.33 1.31,-0.83 2.47,-0.33 0.99,-0.82 1.98,0.17 0.16,0.82 1.48,0 1.15,0.49 0.83,0.99 1.64,0 0.21,-0.8 0,0 0.01,0.01 0,0 2.22,0.12 2.1,0.5 4.94,1.85 2.1,0.62 2.84,0.61 2.1,0.87 1.48,1.97 2.1,1.36 1.98,1.48 1.6,0.25 1.98,0 3.33,-0.99 1.73,-1.6 3.83,-2.1 4.19,-0.25 0.87,-1.23 -0.12,-1.24 -1.36,-0.74 -1.11,-0.99 -0.37,-1.11 -0.25,-2.47 1.48,-1.73 1.73,-0.98 0.86,-0.74 2.6,0.12 1.85,0.74 1.73,-0.99 4.44,-2.1 2.1,0.13 1.61,1.73 2.47,1.48 1.6,1.97 2.96,0.5 2.47,0.12 2.1,-1.23 1.61,-1.12 0.86,-1.11 2.47,-3.83 1.73,-1.23 1.48,0 2.72,-1.73 1.85,-0.25 1.23,0.75 1.73,0.12 2.23,-0.25 3.21,-1.73 0.86,-0.74 1.61,-0.61 1.6,-0.99 1.36,-2.35 1.23,0 1.73,-0.37 0.99,-1.23 1.36,-1.11 1.73,0.86 1.35,-0.74 1.86,-0.12 4.81,1.85 1.98,0.12 1.48,0.74 1.85,0.13 1.85,-0.99 1.11,-0.87 0.99,-0.98 0.62,-1.61 1.36,-0.37 0.86,0 0.84,-0.32 0,0 -0.01,0.29 0,0 1.48,0 1.48,-1.6 1.48,-1.36 0,0 0.87,-0.31 0.32,2.19 0.12,1.97 0,0 1.24,1.12 0.74,0.98 1.6,1.48 0,0 1.11,1.24 0.5,1.73 0,0 4.32,-0.13 3.09,0.13 2.1,0.74 0,0 4.32,2.96 1.23,1.48 0.99,1.49 0.62,1.23 0.24,1.48 0,0 1.24,0.74 3.09,0.99 1.35,-1.11 1.24,-0.37 0.74,-0.87 1.48,0 1.85,-0.24 1.11,-0.5 2.35,0.62 1.11,2.1 0.74,1.73 1.24,1.97 0.74,1.73 1.36,1.24 0,0 2.34,1.85 2.6,0.37 0,0 1.35,0.74 1.98,0.12 1.36,0.99 1.85,0 0.74,-1.36 1.11,-0.74 1.36,-0.74 2.1,0 1.36,-0.99 1.6,-0.37 0.37,-0.74 2.84,-1.6 1.73,-1.36 1.98,-0.12 1.11,0.61 0.61,0.99 0.75,2.84 1.11,0.87 1.48,0.86 2.1,-1.11 1.36,0.12 0.86,-0.99 1.48,-0.37 0.74,-0.74 0.5,-0.86 1.23,0.12 0.49,0.74 0.75,0 0.37,-0.61 1.85,-0.37 1.11,-0.87 13.62,-0.25 0,0 -1.23,1.45 -1.96,1.19 -6.64,0.29 -1.64,1.64 -1.02,4.07 -0.63,3.36 -2.92,1.85 -2.43,0.57 -0.3,1.98 0.12,1.73 1.14,2.1 1.21,0.28 2.24,2.88 0.83,2.02 -0.18,1.34 -1.77,1.69 1.28,1.29 2.22,1.78 1.35,0.15 1.81,-0.74 1.53,-0.28 2.98,0 1.75,0.59 1.45,1.21 1.39,0.91 1.04,1.94 -0.9,1.88 -2.02,2.01 -2.85,2.36 -3.19,1.53 -1.6,2.08 -2.08,1.12 -3.73,-0.12 -1.36,0.71 -1.02,2.05 -1.39,1.25 -2.57,-0.07 -1.81,-1.05 -2.5,-0.2 -1.32,-0.28 -1.6,2.22 -2.01,0.49 -1.67,0.55 -2.22,-0.07 -1.74,-0.9 -2.63,0.07 -1.36,-1.3 -0.93,0.14 0.2,2.13 1.18,1.39 0.97,1.98 0.22,1.57 -0.36,1.78 1.74,3.1 0.14,10.28 1.18,-0.07 0,2.92 -1.11,0.14 -0.14,1.87 -1.87,1.53 -2.23,1.18 -1.59,1.04 -0.91,2.5 -1.87,1.05 -1.55,0.05 -1.78,1.36 0.64,1.35 12.35,12.71 10.78,13.13 3.78,3.79 1.57,1.71 1.02,1.36 1.84,1.5 2.78,3.6 1.06,4.34 -0.06,1.08 -1.07,0.86 -1.85,2.42 -2.15,2.43 -6.25,3.91 -2.05,1.58 -0.98,1.79 0,2.15 -2.04,2.4 -4.09,0.07 -0.84,0.9 -5,0 -1.18,-1.04 -3.68,0.07 -0.42,4.79 -5.55,0 -2.02,0.83 -1.11,1.18 0.14,2.29 -0.07,1.46 -1.67,1.81 -2.29,0.14 -4.65,-0.14 -0.28,1.18 -2.15,0 -3.13,3.61 -2.15,0.28 -2.08,-0.36 -1.84,0.36 -2.43,-0.21 -2.03,1.07 -1.16,1.11 -2.75,0.38 -3.17,-1.28 -2.56,-0.45 -1.66,-0.91 -2.28,-0.71 -1.2,-0.25 -1.52,0.07 -1.05,1.53 -2.15,1.18 -0.79,1.25 0.03,1.8 -2.02,1.18 -5.83,-0.27 -1.72,0.28 -1.3,0.8 -0.87,1.92 0.36,2.93 1.07,1.07 0.71,3 1.19,2.8 -0.48,1.53 -0.93,1.87 -0.92,1.37 -1.5,0.85 -1.65,1.47 -2.63,-0.04 -1.43,-0.57 -9.85,-9.35 -4.5,-5.36 -1.25,-1.92 -1.5,-0.86 -3.92,0.18 -0.29,1.32 -1.07,0.14 0.07,1.64 -0.3,1.34 -1.88,0.35 -1.53,-0.62 -1.5,-1.35 -0.93,-1.14 -1.14,-1 -1.64,0.15 -1.86,-0.15 -1.47,1.26 -3.61,-0.07 -1.04,-0.97 -1.67,-0.14 -0.56,1.18 -1.59,-0.28 -0.21,1.19 -1.88,0.69 -0.75,1.25 -1.17,-0.12 -1.29,-0.37 -0.74,-1.01 -1.21,-5.47 -1.57,-1.94 -2.13,-1.3 -3.61,-0.55 -1.21,-0.54 -3.83,-0.27 -1.95,0.03 -2.23,0.6 -1.64,0.27 -3.22,0.09 -1.39,-0.83 -1.57,-2.32 z" 
                fill="rgb(151, 144, 238)" 
                stroke="white" 
                stroke-width=".7px"
                title="Bolívar" 
                id="VE-F" 
            />
        </svg>