<svg xmlns="http://www.w3.org/2000/svg" viewBox="220.8001999999999 90.426198 39.63000000000011 31.740002000000004" width="39.63000000000011" height="31.740002000000004">
            <path 
                d="m 247.5202,92.916198 -0.17,0.6 -1.11,0.37 -2.22,2.1 -0.13,1.73 1.11,1.23 1.73,0.87 1.85,0.370002 2.84,-0.13 2.1,0.25 1.12,1.24 0,1.85 -0.75,1.6 -0.37,2.72 -0.61,2.84 -0.25,1.73 0.37,1.73 1.23,0.37 3.83,0.12 2.22,1.36 0.12,0.18 0,0 -0.36,2.16 0,0 -0.13,0.99 -2.09,-0.12 -0.99,1.11 -1.61,0.25 -0.99,0.61 -0.74,1.12 -1.72,-0.13 -0.13,-0.86 -0.86,-0.99 -2.6,-1.98 -1.48,0.13 -0.74,0.86 -0.24,1.36 0,0 0,1.36 0,0 -4.57,0.25 -2.47,-1.73 -2.47,-0.37 -2.72,-0.74 -2.59,-1.61 -1.11,-1.36 -1.48,-0.24 -0.62,-1.86 0.37,-1.35 0.99,-0.75 0.98,-1.48 -0.12,-0.98 -1.23,-0.99 -0.87,0.61 -0.99,1.12 -2.71,1.85 -0.87,1.36 0,0 -1.11,-0.25 0,0 -0.37,-1.73 -0.12,-1.36 -0.74,-0.86 0,-2.59 0.74,-1.12 0.62,-1.35 0.98,-1.24 0,-0.99 -0.86,-1.48 -1.36,-0.860002 -0.25,-0.99 0.25,-3.7 0.99,-2.23 -0.25,-1.97 1.11,-0.37 1.36,0.86 1.36,-0.12 0.62,-0.5 1.6,-0.37 1.41,0 0,0 1.36,1.58 1.59,1.42 8.13,0 1.52,0.89 1.75,-0.8 z" 
                fill="rgb(151, 144, 238)" 
                stroke="white" 
                stroke-width=".7px"
                title="Carabobo" 
                id="VE-G" 
            />
        </svg>