<svg xmlns="http://www.w3.org/2000/svg" viewBox="194.17020000000002 108.70620000000001 55.74999999999997 72.02999999999993" width="55.74999999999997" height="72.02999999999993">
            <path 
                d="m 245.7502,120.8062 0.38,0.17 1.48,1.98 1.32,1.31 0.49,1.16 0.5,1.97 -0.66,1.15 -1.32,1.65 -1.97,1.15 -2.47,0.66 -1.65,1.15 -1.32,0.66 0,2.64 0.33,2.79 1.16,0.66 0.33,6.26 1.15,1.48 1.15,2.47 0,8.73 -1.32,1.81 -1.31,0.98 -2.31,2.47 -0.49,1.48 -2.47,3.79 0.33,1.32 0.99,0.82 0.16,7.08 -1.48,0.49 0.16,1.65 0,0 -1.31,-1.15 0,0 -2.97,-2.47 -1.64,-0.5 -3.46,0.17 -0.66,0.66 -1.15,0 -2.31,-0.5 -10.24,-0.42 0,0 -0.03,-0.56 0,0 -1.65,-1.32 -1.81,-0.82 -0.49,-1.98 -1.32,-1.65 -1.48,-0.33 -1.81,-1.15 0.99,-0.99 1.64,-0.82 0.99,-0.66 2.64,-0.33 0.82,-1.15 -0.82,-2.14 -0.5,-2.14 -0.99,-1.97 0.5,-1.65 1.81,-1.98 -3.13,-2.79 0,-1.98 -0.49,-1.65 -1.81,-0.49 -3.13,-3.29 -2.47,-1.32 -0.33,-1.81 0.16,-1.48 -3.12,-5.76 0,-1.82 -0.17,-1.48 -1.32,-0.82 0,-1.65 -1.68,-4.18 0,0 0.42,-0.48 0,0 1.36,-0.98 0.25,-3.21 0.86,-0.13 0.25,-1.97 -0.13,-2.23 0.08,-1.04 0,0 1.32,-0.19 0,0 0.99,-0.99 1.73,0.13 2.47,2.34 1.72,1.11 1.24,0.62 3.08,-0.99 0.38,-0.99 1.6,-0.98 2.59,-0.13 -0.12,1.36 0.37,1.98 0.86,0.86 1.49,-0.12 2.71,-1.48 1.11,-1.24 1.24,-0.49 0.73,-1.59 0,0 0.5,0.11 0,0 0.87,-1.36 2.71,-1.85 0.99,-1.12 0.87,-0.61 1.23,0.99 0.12,0.98 -0.98,1.48 -0.99,0.75 -0.37,1.35 0.62,1.86 1.48,0.24 1.11,1.36 2.59,1.61 2.72,0.74 2.47,0.37 2.47,1.73 4.57,-0.25 0,0 z" 
                fill="rgb(151, 144, 238)" 
                stroke="white" 
                stroke-width=".7px"
                title="Cojedes" 
                id="VE-H" 
            />
        </svg>