<svg xmlns="http://www.w3.org/2000/svg" viewBox="185.3302 10.996198000000007 19.180000000000007 15.449999999999992" width="19.180000000000007" height="15.449999999999992">
            <path 
                d="m 195.5002,18.586198 0.9,0.9 1.16,0 2.19,0.65 1.8,2.7 1.67,0.52 1.03,1.03 0.26,1.28 -0.77,0.78 -1.16,0 -0.39,-1.29 -2.06,0.26 -2.57,-0.13 -1.29,-1.68 -3.86,-2.06 -2.71,-2.31 -0.38,-1.81 -0.77,-0.9 -0.65,-0.51 -1.03,-1.42 0,-1.03 -1.54,-0.9 0.13,-1.67 1.54,0 1.55,0.25 1.54,0.9 1.16,1.94 -0.26,2.06 2.71,1.8 z" 
                fill="rgb(151, 144, 238)" 
                stroke="white" 
                stroke-width=".7px"
                title="Curaçao" 
                id="CW" 
            />
        </svg>