<svg xmlns="http://www.w3.org/2000/svg" viewBox="477.53019999999884 114.08620000000016 122.79000000000082 100.11999999999983" width="122.79000000000082" height="100.11999999999983">
            <path 
                d="m 545.4202,178.5662 -0.92,0.65 -1.7,-1.05 0,-0.92 0.39,-1.05 1.18,-0.52 1.05,0.39 0.39,1.31 -0.39,1.19 z m -4.19,-1.05 -0.92,0.39 -0.79,-0.26 -0.52,-1.05 0.26,-0.65 1.18,-0.79 1.44,0.13 0,1.05 -0.65,1.18 z m 20.02,-5.24 0.26,1.18 -0.92,1.05 -1.96,0.52 -0.79,-0.92 0,-1.31 1.7,0.13 1.71,-0.65 z m -2.09,-0.65 -0.39,0.13 -0.79,-0.92 1.05,-0.92 1.05,1.05 -0.92,0.66 z m -8.9,-2.62 -1.83,1.44 -0.65,1.18 -0.79,1.05 -0.26,0.79 -1.83,0.79 -1.96,0.52 -1.83,0 0.13,-1.96 1.44,-0.26 1.57,0 0.39,-1.18 -0.13,-1.31 -1.05,-0.26 -0.92,0.65 -1.7,1.7 -0.92,-0.26 0,-1.05 1.57,-1.05 0.13,-0.92 0.65,-0.13 1.44,-0.79 1.31,-0.13 1.44,-0.92 3.14,-0.13 1.18,0.39 -0.52,1.84 z m 4.32,-2.09 -0.65,1.31 -1.18,-0.13 -0.39,-0.79 0,-0.92 1.18,-0.52 1.04,1.05 z m 2.88,1.96 -1.96,1.05 -0.26,1.31 -0.92,0.65 -0.92,1.18 -1.44,0.79 -1.05,-0.26 0.39,-1.05 0,-0.52 0.92,-0.79 0.79,-0.92 0.65,-1.18 1.18,-0.26 1.7,0.13 0.92,-0.65 1.31,-2.09 1.05,-0.39 0.39,1.05 -0.65,0.39 -0.79,1.05 -1.31,0.51 z m -7.86,-3.66 -1.44,0.13 -0.52,-0.39 -0.13,-1.05 -0.92,-1.44 4.45,-4.19 0.79,0 1.31,0.39 0.26,1.18 -0.52,1.57 -1.44,1.83 -1.84,1.97 z m 6.29,-6.81 -1.57,0.13 -1.7,-1.44 1.05,-1.05 3.27,1.7 -1.05,0.66 z m -11.78,4.98 -1.7,0 0.65,-1.57 1.05,-1.7 1.96,-1.18 1.44,-1.05 1.57,-1.96 1.31,-0.65 0.52,1.18 -0.52,1.05 -1.44,0.79 -1.57,2.09 -1.31,0.92 -0.65,1.31 -1.31,0.77 z m 8.5,-9.56 -0.65,0.52 -1.44,-0.13 -0.39,-1.05 0.39,-1.44 0.65,-0.79 0.79,-0.39 1.18,0.13 0.65,1.44 -0.52,1.44 -0.66,0.27 z m 6.02,-1.18 0.65,1.05 0.92,-0.13 0.13,1.05 -0.65,1.05 -0.79,0 -0.79,-1.18 -1.44,-0.92 -1.57,-0.79 -0.13,-1.05 0.26,-0.79 1.18,-1.83 0.92,-0.26 0.79,0.79 -0.39,0.65 -0.65,0.39 0.39,1.31 1.17,0.66 z m -8.34,-3.68 -1.66,0.96 -0.75,-0.59 -0.05,-0.6 0.6,-0.54 1.05,-0.65 1.18,-2.62 -0.52,-3.8 -0.46,-1.54 0.41,-0.32 0.11,-1.18 0.96,-0.38 0.78,0.1 1.69,1.17 1.54,1.78 1.23,3.21 -0.21,1.02 -1.61,0.16 -0.75,1.02 -2.03,1.87 -1.51,0.93 z m -13.25,-18.3 -0.52,1.31 -1.05,-0.26 -0.92,-0.92 -0.65,-1.57 0.52,-0.65 2.22,1.44 0.4,0.65 z m -26.18,-4.72 0.8,0.11 0.21,-0.8 -0.75,-1.02 -0.48,-0.96 0.27,-0.64 1.22,-0.85 0.92,0.04 0.7,1.24 1.93,-0.05 2.52,1.02 2.41,0.7 1.13,-0.05 -1.5,-2.25 -1.02,-0.96 -0.32,-1.34 0.43,-0.91 0.86,-0.21 5.09,3.64 3.08,3.48 0.5,0.91 1.38,1.48 1.83,2.53 3.79,1.53 2.58,0.47 4.93,0.14 1.74,-0.06 2.6,1.1 0.98,2.54 0,2.52 0.53,0.66 0.78,4.6 -0.79,1.96 -1.68,1.2 -0.18,-0.34 -1.19,2.19 -0.24,1.58 -1.57,0.5 -1.5,-0.07 -0.36,1.21 -1.79,0.07 -1.5,0.29 -1.71,0.64 -0.71,1.43 1.14,0.71 1.36,-1.07 1.07,-0.64 1.36,0 0.34,1.15 1.23,-0.36 0.93,-0.93 2.21,-1.64 0.93,-0.86 0.43,0.43 -0.07,2.14 -1.93,3.2 -2.02,1.65 -0.9,1.41 -1.49,0.92 -0.51,2.14 -0.7,1.29 0.71,1.14 1,0.57 -1.79,2.5 -2,3.57 -0.14,2.86 -0.93,0.79 -0.29,1.07 0.71,1.07 1.21,0.14 1.64,1.14 1.28,0.43 0.29,0.86 3.14,0.57 1.39,0.89 0.97,-0.24 0.64,-3.98 0.78,-0.87 1.49,-0.12 0.65,1.05 1,-0.36 0.14,-0.64 2.49,-0.41 5.16,-0.43 1.49,0.41 2.43,1.96 7.13,1.02 0.86,-1.33 4.64,0 0.79,-0.93 -2.5,-0.71 -1.28,-0.14 0.02,-1.02 1.17,-0.48 6.45,0.22 1.34,0.25 7.15,2.04 3.5,1.93 3,2.64 1.36,2.93 2.14,1.71 0.93,1.43 0,2 -1.5,1.78 -2.36,-0.14 -1.93,1.21 -1.28,0.64 -1.71,1.28 -0.07,2.33 -1,1.64 0.38,1.53 -1.18,0.99 -2.47,-0.19 -1.38,0.57 -4.64,2.52 -1.71,1.5 -1.03,1.21 0,0 -13.62,0.25 -1.11,0.86 -1.85,0.37 -0.37,0.62 -0.74,0 -0.49,-0.74 -1.24,-0.12 -0.49,0.86 -0.74,0.74 -1.48,0.37 -0.86,0.99 -1.36,-0.12 -2.1,1.11 -1.48,-0.86 -1.11,-0.86 -0.74,-2.84 -0.62,-0.99 -1.11,-0.62 -1.98,0.12 -1.73,1.36 -2.84,1.61 -0.37,0.74 -1.6,0.37 -1.36,0.99 -2.1,0 -1.36,0.74 -1.11,0.74 -0.74,1.36 -1.85,0 -1.36,-0.99 -1.98,-0.12 -1.36,-0.74 0,0 -2.59,-0.37 -2.35,-1.85 0,0 -1.36,-1.23 -0.74,-1.73 -1.24,-1.98 -0.74,-1.73 -1.11,-2.1 -2.35,-0.62 -1.11,0.49 -1.85,0.25 -1.48,0 -0.74,0.86 -1.23,0.37 -1.36,1.11 -3.09,-0.99 -1.23,-0.74 0,0 -0.25,-1.48 -0.62,-1.23 -0.99,-1.48 -1.23,-1.48 -4.32,-2.96 0,0 -2.1,-0.74 -3.09,-0.12 -4.32,0.12 0,0 -0.49,-1.73 -1.11,-1.23 0,0 -1.61,-1.48 -0.74,-0.99 -1.23,-1.11 0,0 -0.1,-1.54 -0.16,-0.03 -0.16,-2.61 -0.57,0.21 0.07,-0.23 2.8,-1.15 0,0 3.29,-0.16 2.96,-0.66 2.47,-2.14 2.3,-0.66 0.82,-1.32 3.95,-4.44 2.3,-1.32 1.15,-1.98 0.66,-4.12 -0.16,-6.26 0,0 -0.66,-2.3 -1.15,-0.16 0,0 -1.15,0.99 -1.98,0.49 -4.12,-0.49 -2.14,-0.49 -0.99,-0.82 0,0 0.17,-1.81 -0.49,-1.65 0,0 -0.17,-2.96 -1.98,-1.15 -1.32,-1.32 0,-3.29 0.16,-3.29 -1.32,-3.79 0,0 -0.66,-2.31 1.98,-1.98 0,0 1.65,-1.98 0.87,-2.47 0,0 -0.02,0.13 1.48,0.86 0.25,-0.31 0.27,-2.46 -0.16,-1.71 0.54,-2.14 0.16,-1.82 0.54,-1.39 0.75,-1.29 1.24,-1.06 0.37,-0.76 1.39,-0.64 1.66,-0.32 3.05,0.38 1.12,0.75 3.43,3.21 6.91,6.96 1.04,0.56 z" 
                fill="rgb(151, 144, 238)" 
                stroke="white" 
                stroke-width=".7px"
                title="Delta Amacuro" 
                id="VE-Y" 
            />
        </svg>