<svg xmlns="http://www.w3.org/2000/svg" viewBox="249.2601999999999 18.456198000000008 209.37000000000003 57.68" width="209.37000000000003" height="57.68">
            <path 
                d="m 357.8502,69.576198 1.03,1.03 1.67,-0.39 0.77,0.77 0.26,1.16 1.03,1.29 -0.26,0.9 -0.9,0.9 -0.9,0.77 -1.03,0.13 -3.48,-0.13 -1.16,-0.77 -0.77,-0.13 -0.9,0.13 -1.03,-0.39 -0.9,-1.8 0.13,-1.03 0.51,-0.9 1.29,-1.16 3.6,-1.03 1.04,0.65 z m 99.39,-15.93 -1.54,1.89 -1.2,-1.2 -0.51,-1.54 1.03,-1.72 1.72,-0.17 1.2,0.34 0.69,0.86 -0.17,1.03 -1.22,0.51 z m -58.04,-17.23 -0.32,2.12 -0.86,0.52 -0.86,-1.2 0.17,-1.89 1.72,0 0.15,0.45 z m -79.01,-0.45 -1.29,0 -1.29,-0.64 -0.64,-0.77 -1.42,-1.16 0.9,-0.64 0.52,-0.9 2.96,0 0.64,-0.39 0.51,-1.03 1.03,-1.29 1.54,0.77 0.13,1.42 0.64,1.03 0,1.67 -1.16,1.29 -1.16,0.51 -1.91,0.13 z m 69.39,-1.16 -1.93,0 -1.29,-0.64 -0.64,-1.16 0,-1.55 0.77,-1.29 1.42,-0.9 2.58,-0.13 0.9,1.16 0.26,1.16 0,1.8 -2.07,1.55 z m -87.8,-6.82 0.64,1.67 0,3.73 -0.9,1.93 -1.29,1.03 -1.93,0.52 -2.45,0 -1.8,-0.77 -1.54,-0.13 -2.58,0 -1.03,-1.03 0.13,-0.77 8.75,-0.52 1.29,-1.93 0.39,-0.9 -0.9,-1.42 -1.03,-1.29 0,1.67 -0.77,1.42 -1.03,0.9 -3.86,-0.13 -2.83,-2.45 0,-1.29 0.77,-1.03 1.67,0 1.16,-0.77 1.67,-0.39 2.32,-0.77 2.45,-0.13 1.8,1.16 0.9,1.69 z m -36.44,-0.9 -1.42,0.13 -1.8,-0.39 -0.13,-0.64 0.13,-0.77 1.54,-0.26 -0.13,-0.9 -1.8,-1.16 0.64,-1.03 0.9,-0.64 1.54,0.52 1.42,2.7 -0.39,1.54 -0.5,0.9 z m -8.62,-5.41 0.39,1.8 -0.64,2.06 -1.67,0.64 -2.19,0 -1.3,-1.02 0,-1.55 0.9,-1.16 1.29,0.13 0.13,-1.03 -2.83,-1.16 -1.54,-1.03 1.42,-0.9 1.54,0.13 3.09,1.67 1.41,1.42 z" 
                fill="rgb(151, 144, 238)" 
                stroke="white" 
                stroke-width=".7px"
                title="Dependencias Federales" 
                id="VE-W" 
            />
        </svg>