<svg xmlns="http://www.w3.org/2000/svg" viewBox="92.80019900000008 15.956197999999977 135.5300010000001 78.47000000000003" width="135.5300010000001" height="78.47000000000003">
            <path 
                d="m 200.6802,86.656198 -0.56,-1.12 -0.86,-0.98 -1.24,-0.62 -1.85,-0.12 -2.22,0.74 -1.11,1.11 -2.1,0.24 -1.85,-1.11 -2.35,-0.37 -3.83,-0.86 -4.07,0 -3.09,0.25 -1.85,0.74 -2.35,-0.99 -1.6,-1.24 -1.61,-0.61 -1.48,-0.13 -1.48,-0.86 -1.36,0.86 -0.86,0.99 -2.1,1.24 -1.98,-0.13 -1.23,-0.24 0.49,-1.36 -1.73,0.61 -0.98,0.99 -1.73,0.37 -2.72,0.87 -1.85,0.74 -1.85,0.99 -2.72,0 -1.6,0.61 -1.49,1.48 -1.72,0.62 -2.47,0.13 -0.75,0.74 -1.97,0.98 -6.79,0.37 -1.73,0.62 -3.7,1.73 -4.08,0.49 0,0 -2.84,-0.24 0,0 -3.09,0.12 -2.22,-0.25 -1.85,-1.35 -2.1,-0.75 -3.21,-3.95 -0.62,-1.97 -1.23,-1.73 0.25,-1.61 0.74,-0.98 0.12,-1.24 -0.74,-1.23 -1.24,-1.48 -1.480001,-0.87 -0.99,-1.73 -1.35,-1.11 -1.86,-2.22 -1.75,-1.3 0,0 0.59,-0.61 4.11,-1.75 4.000001,-2.42 1.86,-1.52 2.49,-0.58 4.38,-2.36 2.85,-1.13 3.91,-0.84 3.62,-0.38 1.49,0.1 3.29,-0.25 1.69,-0.28 0.73,-0.66 2,-1.21 1.12,-0.1 4.33,-1.77 3.72,-0.95 3.05,-1.26 1.22,-1.67 1.99,-1.38 3.54,-0.33 -0.29,-1.56 0.48,-0.82 3.21,0 2.28,1.52 0.99,1.61 1.48,0.12 1.36,-0.12 3.2,-0.59 0.68,-3.89 -1.04,-2.69 -1.84,-3.57 -1.64,-0.51 -1.8,0.06 -1.13,1.12 -5.38,0.64 -7.74,2.09 -0.97,-1.18 -0.37,-2.47 1.24,-0.87 0,-3.08 -2.96,-3.21 -0.4,-1.56 -0.17,-2.2 1.55,-2.67 1.15,-2.91 1.7,-2.71 4.17,-2.7 2.38,-1.08 4.62,0.23 2.53,2.2 1.36,2.53 -0.17,2.03 1.01,2.2 1.36,2.03 0.34,2.88 0.17,3.05 1.86,5.41 2.46,3.64 0.99,2.1 0.44,2.05 1.35,0.84 2.03,1.02 2.06,-1.24 3.7,-0.62 1.01,0.84 1.77,0.39 1.44,-0.86 2.33,-0.96 4.11,0.92 3.35,1.21 3.08,1.33 8.51,0.44 8.1,4.35 2.81,1.77 2.1,0.62 4.94,3.7 1.71,2.49 2.96,3.72 2.62,2.93 0,2.71 -1.43,1.64 1.58,1.18 0.11,0.51 -1.01,1.02 -0.68,1.86 -0.19,1.86 0.63,3.17 1.23,1.73 2.22,4.15 0,0 -4.44,0.66 -6.42,-0.12 -2.1,-0.37 -1.6,-0.74 -1.24,-0.87 -1.11,-1.23 -0.37,-3.46 -2.59,0 -3.95,0.87 -2.72,2.59 0,0 z" 
                fill="rgb(151, 144, 238)" 
                stroke="white" 
                stroke-width=".7px"
                title="Falcón" 
                id="VE-I" 
            />
        </svg>