<svg xmlns="http://www.w3.org/2000/svg" viewBox="109.66019999999988 80.72619800000011 91.01999999999994 60.57000200000003" width="91.01999999999994" height="60.57000200000003">
            <path 
                d="m 197.2602,114.3262 -0.08,1.04 0.13,2.23 -0.25,1.97 -0.86,0.13 -0.25,3.21 -1.36,0.98 0,0 -0.99,1.12 0,0 -1.35,0.98 -1.12,1.11 -1.35,0.75 -1.61,0 -1.73,0.24 -0.49,0.62 -1.11,-0.86 -1.36,-0.37 0.12,-5.31 -0.86,-1.12 -0.62,-0.24 -1.23,1.11 -0.25,1.23 -1.11,1.12 -0.62,0.98 -0.25,1.36 -0.98,0.74 0,1.11 -0.87,0.37 0.12,0.87 1.36,1.85 -1.6,0.37 -1.48,-2.35 -1.12,0.37 0,2.1 1.36,0.62 -0.24,1.11 -1.12,-0.37 -2.46,-1.97 -1.36,0.37 0,0.86 1.23,0.99 -0.12,0.99 -0.99,-0.13 -0.86,-1.23 -2.35,0.49 -0.86,0.87 -0.13,5.55 -0.98,0.87 -1.12,0.24 -1.23,-0.12 -0.62,-0.86 -1.6,0 -1.11,0.98 -1.36,-0.37 -1.73,-1.85 1.23,-1.23 0.87,-1.11 0.49,-1.12 0.5,-1.35 -0.38,-1.36 -1.48,0.24 -0.74,0.5 -0.62,0.86 -3.08,-0.12 -2.22,2.35 -0.75,0.37 0,0 -0.74,2.1 0,0 -1.23,-0.87 -0.49,-1.48 -2.6,-2.96 0,-1.98 1.11,-1.73 0.5,-1.11 3.7,-0.37 0.87,-0.37 -0.74,-1.48 -2.1,-0.5 -1.61,-1.35 -1.85,-0.99 -1.73,-0.25 -1.23,-1.48 -1.49,0 -1.11,0.62 -2.1,-0.87 -1.6,-0.86 -0.99,-1.36 -1.23,-0.74 -1.36,0.49 -1.98,0.5 -1.48,-0.87 -1.73,-0.24 0,-2.84 -1.23,-0.99 -1.48,-0.62 0.12,-1.23 -1.61,-0.87 -1.6,0.74 -0.74,1.24 -0.25,1.97 0.25,0.99 -1.13,0.3 0,0 0.03,-0.2 0,0 -2.59,-0.25 -2.1,-1.11 -0.87,-0.74 -1.48,-0.49 -1.85,-1.24 -0.86,-1.85 0.74,-1.61 2.34,-1.35 3.95,-1.98 2.1,-1.85 0,-1.98 0.74,-1.11 0.13,-1.11 -0.87,-0.860002 -0.99,0.240002 -0.98,-0.610002 -0.25,-0.87 0.12,-1.23 -0.37,-1.61 -0.74,-0.74 -0.05,-0.9 0,0 2.73,0.23 0,0 4.08,-0.49 3.7,-1.73 1.73,-0.62 6.79,-0.37 1.97,-0.98 0.75,-0.74 2.47,-0.13 1.72,-0.62 1.49,-1.48 1.6,-0.61 2.72,0 1.85,-0.99 1.85,-0.74 2.72,-0.87 1.73,-0.37 0.98,-0.99 1.73,-0.61 -0.49,1.36 1.23,0.24 1.98,0.13 2.1,-1.24 0.86,-0.99 1.36,-0.86 1.48,0.86 1.48,0.13 1.61,0.61 1.6,1.24 2.35,0.99 1.85,-0.74 3.09,-0.25 4.07,0 3.83,0.86 2.35,0.37 1.85,1.11 2.1,-0.24 1.11,-1.11 2.22,-0.74 1.85,0.12 1.24,0.62 0.86,0.98 0.56,1.12 0,0 -0.25,0.07 0,0 -0.49,0.62 -1.11,0.86 -0.99,1.36 -1.61,0.62 -2.34,0.24 -1.73,0.99 -0.87,1.36 -0.37,2.35 2.1,3.33 0.13,3.330002 0.98,1.11 0,1.36 -4.93,0.13 -0.38,1.6 -0.98,1.24 -1.48,0.37 -1.36,0.98 -0.37,0.87 0.74,1.23 1.11,0.74 1.97,2.35 -0.86,1.23 -0.25,1.24 0.5,1.97 1.11,0.99 1.36,0.74 1.11,0.37 0.86,-1.35 0.25,-2.35 1.11,-1.36 1.11,-0.99 2.1,0.13 0,0 z" 
                fill="rgb(151, 144, 238)" 
                stroke="white" 
                stroke-width=".7px"
                title="Lara" 
                id="VE-K" 
            />
        </svg>