<svg xmlns="http://www.w3.org/2000/svg" viewBox="275.4001999999996 85.496198 75.8500000000002 31.590002" width="75.8500000000002" height="31.590002">
            <path 
                d="m 338.7902,117.0862 -0.74,-0.11 -0.99,-0.62 -1.35,0 -1.24,-1.11 -1.6,-0.12 -1.11,0.49 -1.73,0.5 -3.58,0.12 -1.86,-0.12 -2.22,-0.99 -1.73,0.12 -1.73,0.74 -1.6,-0.86 -2.35,0.37 -1.23,-0.74 -1.85,-1.61 -1.36,-0.86 -1.48,0.37 -1.61,0.74 -1.48,0.49 -1.48,0.99 -1.48,0.37 0,0 -3.71,0.12 0,0 -2.84,0.13 -1.97,-0.74 -6.05,-0.37 -2.35,0 -1.11,-1.24 -1.36,-1.23 -1.23,-0.74 -4.08,-1.48 -0.86,-1.24 0,-1.73 0.99,-0.99 0.12,-1.72 -1.24,-1.36 -0.49,-1.11 -1.23,-1.730002 0,-2.84 -0.18,-1.38 0,0 1.12,-0.54 0,0 1.06,1.3 0.98,0.62 2.6,0.24 1.97,-0.24 5.43,-2.84 1.24,-0.99 0.25,-2.69 0,0 2.1,0.22 0,0 1.72,-0.86 1.61,-0.37 10.25,0.12 1.36,0.99 1.11,0.12 1.85,-0.25 1.36,-0.37 0.61,-1.23 -0.11,-1.91 0,0 1.85,-1.42 2.35,0.18 0.89,0.36 1.31,1.93 3.3,0.13 1.04,0.44 -0.02,1.21 -1.6,1.01 -0.06,1.2 0.95,1.23 1.32,1.3 4.85,3.86 2.28,1.3 3.05,3.040002 2.27,1.74 0.94,0.16 1.77,-0.1 3.78,1.38 4.05,0.45 5.02,1.59 0,0 -0.12,0.8 -1.24,0.86 -1.36,1.24 -0.98,0.61 -1.36,1.61 -1.36,1.23 -1.85,1.24 -1.61,0.86 -2.34,-0.12 0,0 z" 
                fill="rgb(151, 144, 238)" 
                stroke="white" 
                stroke-width=".7px"
                title="Miranda" 
                id="VE-M" 
            />
        </svg>