<svg xmlns="http://www.w3.org/2000/svg" viewBox="412.26019999999977 100.8962 88.06000000000029 84.33000000000001" width="88.06000000000029" height="84.33000000000001">
            <path 
                d="m 486.8702,126.9362 -0.87,2.47 -1.65,1.98 0,0 -1.98,1.97 0.66,2.31 0,0 1.32,3.78 -0.16,3.29 0,3.3 1.31,1.31 1.98,1.16 0.16,2.96 0,0 0.5,1.65 -0.17,1.81 0,0 0.99,0.82 2.14,0.49 4.11,0.5 1.98,-0.5 1.15,-0.98 0,0 1.15,0.16 0.66,2.31 0,0 0.17,6.25 -0.66,4.12 -1.15,1.97 -2.31,1.32 -3.95,4.44 -0.82,1.32 -2.31,0.66 -2.47,2.14 -2.96,0.66 -3.29,0.16 0,0 -2.8,1.16 -0.07,0.22 -0.33,0.12 0,0 -1.48,1.36 -1.48,1.6 -1.48,0 0,0 0.12,-2.59 0,0 -1.73,-0.49 -2.34,-1.24 -1.98,-0.74 -5.18,-1.48 -2.6,-0.99 -1.85,-1.35 -0.86,-1.24 0.37,-2.47 -0.25,-0.86 2.59,0.12 1.86,-1.73 -0.5,-1.23 -2.47,0 -2.59,0.86 -7.78,0.37 -1.11,-1.48 -1.11,-1.98 -0.25,-1.72 -0.62,-1.61 -0.98,-1.73 -3.83,-2.84 -1.48,-1.36 -1.98,-1.11 -2.34,-2.59 -4.7,-3.58 -2.71,-1.11 -1.61,-0.87 -1.48,0.25 -1.23,0.49 -2.35,0.62 -0.74,-0.99 -0.74,-2.1 -0.99,-1.72 -0.99,-2.1 -0.12,-2.1 1.36,-1.73 1.97,-1.61 1.11,-1.11 0.99,-0.49 0,-1.48 -1.36,-4.45 -1.23,-1.6 -1.61,-1.24 -0.49,-1.97 0.49,-1.73 0.87,-0.87 -0.87,-1.85 -1.23,-0.86 -0.37,-1.48 -0.86,-0.74 -1.36,-0.5 -1.11,-0.86 -0.25,-1.98 0.49,-1.6 2.72,-0.74 1.97,-1.12 -0.02,-0.74 0,0 0.9,0 0,0 2.22,-1.11 1.48,-0.12 2.23,-1.11 1.11,-1.61 1.36,-0.99 5.8,-0.12 0.86,-0.62 1.61,-0.74 0.62,-0.74 0.61,-0.37 0.87,-0.86 0.86,-0.5 1.61,0.37 0.86,0.5 1.36,0.99 0.62,0.98 1.97,0.25 1.24,1.24 1.23,0.74 0.99,-0.25 1.48,0.74 4.08,0.37 2.47,0.99 1.6,1.36 3.21,2.34 1.98,-0.12 1.23,0.86 2.47,0.25 2.22,-0.12 1.86,-0.74 4.07,0.12 0.49,-1.61 0.99,-1.23 -0.29,-3.48 0,0 0.37,-0.57 1.49,-0.11 1.78,0.47 1.5,1.25 0.55,0.95 0.82,2.76 1.91,4.99 0.19,3.16 1.77,1.76 1.01,2.31 0.06,2.41 z" 
                fill="rgb(151, 144, 238)" 
                stroke="white" 
                stroke-width=".7px"
                title="Monagas" 
                id="VE-N" 
            />
        </svg>