<svg xmlns="http://www.w3.org/2000/svg" viewBox="64.58019900000005 149.94620000000006 61.77000099999995 63.14000000000013" width="61.77000099999995" height="63.14000000000013">
            <path 
                d="m 126.3502,159.5362 -0.41,0.83 -1.85,2.59 0.37,1.24 -1.11,0.86 -1.24,0.25 -0.98,0.86 -1.12,0.12 -0.49,0.75 0,0.24 -0.99,1.36 -0.99,0.37 -1.72,0.25 -1.61,0.99 -1.11,1.11 -1.23,1.6 -0.99,0.87 -1.48,1.85 -1.24,0.74 -1.23,2.22 0,1.98 -0.87,1.48 0,1.85 -1.36,1.36 -0.49,0.99 -1.23,0 0.24,1.11 0.99,0.62 0,2.09 0.99,0.99 0,3.09 -0.87,0.99 -0.24,1.11 -0.62,1.36 -1.48,1.85 -1.61,1.73 -2.470001,2.22 -2.71,2.1 -1.86,2.1 -2.22,1.11 -3.83,2.59 -1.6,0.87 0,0 -1.24,0.86 0,0 -0.98,-0.49 -0.74,-0.74 -0.87,-1.24 0.13,-3.58 -0.38,-3.33 -0.61,-1.24 -1.73,-0.86 -3.71,0 -1.35,-0.25 -1.36,-1.73 -3.46,-2.84 -3.21,-0.49 -1.6,-0.62 0.12,-1.85 1.48,-1.48 0.99,-1.48 0.74,-1.61 1.48,-0.62 0,-4.44 0.25,-1.85 1.11,-1.24 -0.37,-1.23 -0.87,-0.99 -0.37,-2.22 -0.86,-0.25 -0.33,-1.49 0,0 1.01,-0.34 0,0 1.48,0.13 1.85,0.74 1.73,0.24 0.87,-3.58 1.48,-0.24 2.1,-1.24 3.58,-3.83 3.33,-1.85 1.73,-2.1 2.59,-1.23 2.59,-2.47 1.12,-0.87 1.6,-0.86 -0.12,-1.36 -0.62,-0.25 -0.62,-0.86 0.13,-1.98 -0.08,-0.44 0,0 1.01,-0.69 0.72,-0.83 0.33,-1.07 2.03,0.07 0,0 0.49,0.74 1.24,0.13 1.110001,0.98 1.6,0.99 0.87,1.36 1.48,0.49 0.86,-0.86 2.47,-0.12 0.99,-0.87 0,0 1.37,0.11 0,0 0.36,0.68 1.36,0 3.09,1.48 3.7,3.95 1.73,1.61 1.73,-2.59 2.22,0.24 1.6,1.24 0,0 z" 
                fill="rgb(151, 144, 238)" 
                stroke="white" 
                stroke-width=".7px"
                title="Mérida" 
                id="VE-L" 
            />
        </svg>