<svg xmlns="http://www.w3.org/2000/svg" viewBox="398.0801999999999 63.646197999999956 26.170000000000073 18.260000000000034" width="26.170000000000073" height="18.260000000000034">
            <path 
                d="m 419.0302,81.806198 -1.45,0.1 -1.45,-0.39 0.48,-0.19 -1.06,-0.29 -0.19,-0.68 1.16,-1.45 2.32,0.19 0.39,0.58 0.19,1.06 -0.39,1.07 z m -10.04,-1.94 -1.83,0.1 -1.54,-0.1 -0.77,-1.16 0.39,-0.68 3.57,-0.19 0.68,0.48 0.1,0.77 -0.6,0.78 z m 15.26,-10.04 0,1.16 -0.97,0.48 -0.48,0.77 -1.45,0.1 -0.58,0.77 -1.06,0.77 -2.41,0.39 -0.97,0.77 -4.63,0.1 -0.68,-0.29 -0.68,-0.97 -1.64,-1.25 -1.74,-0.48 -0.67,1.16 -3.77,-0.1 -0.87,-0.87 -2.03,-0.19 -1.54,-1.06 0.1,-2.03 1.45,-1.35 2.51,-0.48 3.67,0.19 1.83,1.93 1.74,0.97 2.7,0.29 1.64,-0.87 1.35,-0.29 0.96,-2.9 0.68,-0.29 1.35,-1.16 1.25,-1.35 0.48,-0.1 1.74,0.19 0.48,0.58 0.39,1.54 1.35,0.97 0.39,1.35 0.11,1.55 z" 
                fill="rgb(151, 144, 238)" 
                stroke="white" 
                stroke-width=".7px"
                title="Nueva Esparta" 
                id="VE-O" 
            />
        </svg>