<svg xmlns="http://www.w3.org/2000/svg" viewBox="142.8102 120.8061999999999 70.5 78.86000000000001" width="70.5" height="78.86000000000001">
            <path 
                d="m 194.1702,124.3662 1.68,4.18 0,1.65 1.32,0.82 0.17,1.48 0,1.82 3.12,5.76 -0.16,1.48 0.33,1.81 2.47,1.32 3.13,3.29 1.81,0.49 0.49,1.65 0,1.98 3.13,2.79 -1.81,1.98 -0.5,1.65 0.99,1.97 0.5,2.14 0.82,2.14 -0.82,1.15 -2.64,0.33 -0.99,0.66 -1.64,0.82 -0.99,0.99 1.81,1.15 1.48,0.33 1.32,1.65 0.49,1.98 1.81,0.82 1.65,1.32 0,0 0.17,2.8 0,0 -0.5,2.14 -0.82,1.31 -0.5,1.98 -1.31,2.14 -2.14,0.66 -1.98,0.98 -1.32,2.31 -1.48,0.49 -0.33,1.81 -0.16,6.75 -1.98,0.33 -2.14,-0.98 -1.31,-1.98 -1.32,-0.82 -0.49,-1.81 -1.49,-1.49 -2.14,-0.82 -1.64,-1.81 -1.65,-1.48 -1.32,-0.66 0.33,-1.48 1.32,-1.15 -0.66,-1.32 -1.97,-0.82 -0.33,-1.98 -1.81,-2.3 -0.99,-1.49 -2.14,-1.97 -2.8,-0.99 -2.8,0.66 -5.27,-1.98 -2.14,-1.97 -7.08,0 -1.15,-0.99 -2.96,-1.15 -2.8,-0.83 -2.14,-1.81 -2.31,-1.15 -2.3,-1.97 -1.65,-1.16 -1.31,-1.64 -1.52,-0.76 0,0 0.05,0.01 0,0 1.48,-1.98 2.22,-2.59 0.49,-1.24 0.25,-1.23 0,-3.09 -2.72,-0.98 -0.49,-2.1 2.22,-2.6 2.35,-1.85 0.62,-1.48 0.35,-1.54 0,0 0.63,-1.79 0,0 0.75,-0.37 2.22,-2.35 3.08,0.12 0.62,-0.86 0.74,-0.5 1.48,-0.24 0.38,1.36 -0.5,1.35 -0.49,1.12 -0.87,1.11 -1.23,1.23 1.73,1.85 1.36,0.37 1.11,-0.98 1.6,0 0.62,0.86 1.23,0.12 1.12,-0.24 0.98,-0.87 0.13,-5.55 0.86,-0.87 2.35,-0.49 0.86,1.23 0.99,0.13 0.12,-0.99 -1.23,-0.99 0,-0.86 1.36,-0.37 2.46,1.97 1.12,0.37 0.24,-1.11 -1.36,-0.62 0,-2.1 1.12,-0.37 1.48,2.35 1.6,-0.37 -1.36,-1.85 -0.12,-0.87 0.87,-0.37 0,-1.11 0.98,-0.74 0.25,-1.36 0.62,-0.98 1.11,-1.12 0.25,-1.23 1.23,-1.11 0.62,0.24 0.86,1.12 -0.12,5.31 1.36,0.37 1.11,0.86 0.49,-0.62 1.73,-0.24 1.61,0 1.35,-0.75 1.12,-1.11 1.35,-0.98 0,0 z" 
                fill="rgb(151, 144, 238)" 
                stroke="white" 
                stroke-width=".7px"
                title="Portuguesa" 
                id="VE-P" 
            />
        </svg>