<svg xmlns="http://www.w3.org/2000/svg" viewBox="393.4901999999995 81.36619799999998 114.81000000000012 31.140002000000024" width="114.81000000000012" height="31.140002000000024">
            <path 
                d="m 475.6902,105.4462 0.29,3.48 -0.99,1.23 -0.49,1.61 -4.07,-0.12 -1.86,0.74 -2.22,0.12 -2.47,-0.25 -1.23,-0.86 -1.98,0.12 -3.21,-2.34 -1.6,-1.36 -2.47,-0.99 -4.08,-0.37 -1.48,-0.74 -0.99,0.25 -1.23,-0.74 -1.24,-1.24 -1.97,-0.25 -0.62,-0.98 -1.36,-0.99 -0.86,-0.5 -1.61,-0.37 -0.86,0.5 -0.87,0.86 -0.61,0.37 -0.62,0.74 -1.61,0.74 -0.86,0.62 -5.8,0.12 -1.36,0.99 -1.11,1.61 -2.23,1.11 -1.48,0.12 -2.22,1.11 0,0 -1.23,0 0,0 -1.11,-0.74 -0.87,-0.37 -3.21,0 -3.58,1.36 -1.23,0.62 -4.45,0 -1.11,-0.74 -1.36,-0.37 -1.36,-0.62 -1.23,-0.37 -1.36,-0.87 -0.49,-1.85 -1.24,-1.36 -0.49,-0.37 -0.51,-0.78 0,0 1.36,-2.29 2.28,-1.820002 1.02,-0.97 1.4,-1.05 2.97,-0.37 3.75,-3.91 2.03,0.26 1.78,1.39 2.28,0.64 7.49,0.12 3.04,-0.23 0.86,-0.76 3.44,-1.13 0.79,-0.61 -4.07,-0.95 -2.03,-1.14 -2.79,0 -1.27,-1.78 -2.03,0 -0.51,1.02 -7.23,-0.25 -3.84,1.82 -1.03,-0.91 0.45,-0.87 -1.55,-2.46 0.89,-0.76 1.19,-0.56 1.47,1.07 5.97,-0.25 0.38,-1.02 3.3,-0.12 0.76,1.26 4.44,0 1.08,-1.25 6.67,0.01 2.03,0.86 4.93,-0.04 6.62,-1.48 5.58,0.13 1.23,-1.38 1.56,-0.53 9.82,-0.23 1.35,1 3.17,0 1.53,-0.89 2.41,-0.51 1.77,-1.02 2.54,0 2.54,0.64 3.68,0.13 3.22,-0.32 4.95,0.85 5.92,0.73 4.07,-0.43 4.05,-0.2 1.78,-0.51 5.32,-0.5 -0.17,1.5 -1.98,0.78 -1.65,1.01 -2.54,0.64 -2.53,0.25 -1.52,0.3 -0.92,-0.3 -1.19,-0.08 -3.83,0.43 -1.19,1.19 -1.12,2.01 -1.31,1.05 -5.24,-0.07 -3.43,-0.32 -2.33,-0.66 -5.21,-0.12 -5.99,1.1 -1.13,0.38 -0.53,0.91 1.28,0.43 0.59,0.96 -0.09,2.01 -0.33,0.94 -1.4,0.32 -0.85,-0.17 -0.86,0.22 -1.12,-0.11 -0.91,0.16 -0.75,0.54 -0.86,0.91 -0.32,4.180002 0.58,0.8 1.39,0 0.54,-0.97 -0.05,-3.210002 0.86,-0.85 0.91,-0.16 0.96,0.48 1.93,-0.06 0.65,-1.12 1.43,-0.7 -0.05,-1.39 0.82,-0.52 1.65,1.77 1.39,0.13 1.27,2.03 0.39,3.370002 0,4.46 1.02,0.33 0.88,-0.69 z" 
                fill="rgb(151, 144, 238)" 
                stroke="white" 
                stroke-width=".7px"
                title="Sucre" 
                id="VE-R" 
            />
        </svg>