<svg xmlns="http://www.w3.org/2000/svg" viewBox="102.78020000000001 112.40619999999998 48.599999999999994 48.279999999999944" width="48.599999999999994" height="48.279999999999944">
            <path 
                d="m 149.6302,138.8962 -0.35,1.54 -0.62,1.48 -2.35,1.85 -2.22,2.6 0.49,2.1 2.72,0.98 0,3.09 -0.25,1.23 -0.49,1.24 -2.22,2.59 -1.48,1.98 0,0 -1.61,-0.25 0,0 -1.36,0 -1.85,-0.99 -7.41,0.13 -2.47,0.86 0,0 -2.1,0.25 0,0 -1.6,-1.24 -2.22,-0.24 -1.73,2.59 -1.73,-1.61 -3.7,-3.95 -3.09,-1.48 -1.36,0 -0.36,-0.68 0,0 0.24,0.01 0,0 0.37,-0.98 0.12,-1.36 -0.86,-1.11 -0.37,-0.87 -0.25,-1.48 -0.99,-1.85 -3.95,-1.48 -1.8,0.02 0,0 0.12,-0.17 0.32,-2.37 -0.03,-5.85 0.34,-1.86 0.17,-3.21 0,0 3.12,1.24 2.34,0.49 3.09,-0.24 1.97,-1.36 1.61,-1.48 0,-1.61 0.49,-0.74 0.74,-1.85 1.36,0.12 1.48,-0.49 0.5,-0.99 -0.25,-3.33 -0.99,-1.24 0,0 0.22,-1.28 0,0 1.13,-0.3 -0.25,-0.99 0.25,-1.97 0.74,-1.24 1.6,-0.74 1.61,0.87 -0.12,1.23 1.48,0.62 1.23,0.99 0,2.84 1.73,0.24 1.48,0.87 1.98,-0.5 1.36,-0.49 1.23,0.74 0.99,1.36 1.6,0.86 2.1,0.87 1.11,-0.62 1.49,0 1.23,1.48 1.73,0.25 1.85,0.99 1.61,1.35 2.1,0.5 0.74,1.48 -0.87,0.37 -3.7,0.37 -0.5,1.11 -1.11,1.73 0,1.98 2.6,2.96 0.49,1.48 1.23,0.87 0,0 z" 
                fill="rgb(151, 144, 238)" 
                stroke="white" 
                stroke-width=".7px"
                title="Trujillo" 
                id="VE-T" 
            />
        </svg>