<svg xmlns="http://www.w3.org/2000/svg" viewBox="40.70019900000002 174.71620000000001 48.71999999999998 55.24000000000001" width="48.71999999999998" height="55.24000000000001">
            <path 
                d="m 84.720199,212.9062 -0.07,0.26 0.49,2.64 -0.99,0.33 -0.16,1.64 0,1.65 0.99,1.15 0.99,0.49 1.15,1.16 1.31,0.98 0.83,0.99 0.16,1.15 -3.62,0.17 -1.32,-0.33 -1.64,-0.66 -2.31,0 -1.97,-0.66 -3.46,-0.49 -2.31,-0.82 -1.48,0.82 -1.97,0.33 -0.99,0.82 0,0 -0.33,1.15 0,0 -0.99,1.49 0,0.82 -0.49,0.99 -1.32,0.33 -1.48,0.65 -2.96,0 -2.47,-0.32 -1.65,-0.99 -1.15,-0.99 -0.99,-1.15 -1.32,0.16 -1.31,0.66 -2.31,-0.16 -3.13,0.16 -0.42,0.94 0,0 -2.99,-0.14 -0.49,-2.22 -1.48,-0.5 -0.37,-7.28 0.18,-11.48 1.3,-4.52 1.81,-1.1 1.92,-0.01 0.76,-0.63 0.16,-1.2 -2.06,-2.25 -0.2,-8.75 -0.53,-1.44 -0.6,-0.65 -0.94,-0.25 -0.35,-0.4 0,0 1.99,-0.49 1.36,-1.48 0.99,-0.25 0.24,-1.85 5.68,-2.84 2.47,0 3.71,-1.36 2.34,-2.22 0.87,-0.24 1.23,0.61 0.25,1.24 1.6,0 0.62,-0.99 1.98,-0.49 0,0 0.47,-0.16 0,0 0.33,1.49 0.86,0.25 0.37,2.22 0.87,0.99 0.37,1.23 -1.11,1.24 -0.25,1.85 0,4.44 -1.48,0.62 -0.74,1.61 -0.99,1.48 -1.48,1.48 -0.12,1.85 1.6,0.62 3.21,0.49 3.46,2.84 1.36,1.73 1.35,0.25 3.71,0 1.73,0.86 0.61,1.24 0.38,3.33 -0.13,3.58 0.87,1.24 0.74,0.74 0.98,0.49 0,0 z" 
                fill="rgb(151, 144, 238)" 
                stroke="white" 
                stroke-width=".7px"
                title="Táchira" 
                id="VE-S" 
            />
        </svg>