<svg xmlns="http://www.w3.org/2000/svg" viewBox="266.0001999999996 85.816198 46.02000000000038 11.399999999999991" width="46.02000000000038" height="11.399999999999991">
            <path 
                d="m 311.9102,86.916198 0.11,1.91 -0.61,1.23 -1.36,0.37 -1.85,0.25 -1.11,-0.12 -1.36,-0.99 -10.25,-0.12 -1.61,0.37 -1.72,0.86 0,0 -2.35,-0.25 0,0 -5.31,0 -1.23,0.13 -0.87,-1.11 -1.36,0.24 -0.24,1.11 -0.62,0.62 -1.11,0.12 -1.24,2.23 -0.74,0.61 0,0 -0.62,0.75 -1.11,0.49 0,0 -1.11,0.62 -1.11,0 -0.86,-0.99 -0.99,-0.25 -1.11,0.74 -0.5,0.99 -0.74,0.49 -1.11,-0.12 -0.12,-1.11 -0.99,-1.36 0.25,-1.23 -0.74,-0.74 -0.22,-1.85 0,0 6.31,-0.43 5,-1.96 4.68,-1.39 11.2,-1.21 8.88,0 5.71,0.53 1.47,0.42 z" 
                fill="rgb(151, 144, 238)" 
                stroke="white" 
                stroke-width=".7px"
                title="Vargas" 
                id="VE-X" 
            />
        </svg>