<svg xmlns="http://www.w3.org/2000/svg" viewBox="184.63019999999986 82.89619799999998 44.62000000000012 37.41000199999998" width="44.62000000000012" height="37.41000199999998">
            <path 
                d="m 228.3302,89.026198 0.5,0.91 0.42,0.49 0,0 -1.41,0 -1.6,0.37 -0.62,0.5 -1.36,0.12 -1.36,-0.86 -1.11,0.37 0.25,1.97 -0.99,2.23 -0.25,3.7 0.25,0.99 1.36,0.860002 0.86,1.48 0,0.99 -0.98,1.24 -0.62,1.35 -0.74,1.12 0,2.59 0.74,0.86 0.12,1.36 0.37,1.73 0,0 0.61,0.14 0,0 -0.73,1.59 -1.24,0.49 -1.11,1.24 -2.71,1.48 -1.49,0.12 -0.86,-0.86 -0.37,-1.98 0.12,-1.36 -2.59,0.13 -1.6,0.98 -0.38,0.99 -3.08,0.99 -1.24,-0.62 -1.72,-1.11 -2.47,-2.34 -1.73,-0.13 -0.99,0.99 0,0 -1.73,0.25 0,0 -2.1,-0.13 -1.11,0.99 -1.11,1.36 -0.25,2.35 -0.86,1.35 -1.11,-0.37 -1.36,-0.74 -1.11,-0.99 -0.5,-1.97 0.25,-1.24 0.86,-1.23 -1.97,-2.35 -1.11,-0.74 -0.74,-1.23 0.37,-0.87 1.36,-0.98 1.48,-0.37 0.98,-1.24 0.38,-1.6 4.93,-0.13 0,-1.36 -0.98,-1.11 -0.13,-3.330002 -2.1,-3.33 0.37,-2.35 0.87,-1.36 1.73,-0.99 2.34,-0.24 1.61,-0.62 0.99,-1.36 1.11,-0.86 0.49,-0.62 0,0 1.36,-0.37 0,0 2.72,-2.59 3.95,-0.87 2.59,0 0.37,3.46 1.11,1.23 1.24,0.87 1.6,0.74 2.1,0.37 6.42,0.12 z" 
                fill="rgb(151, 144, 238)" 
                stroke="white" 
                stroke-width=".7px"
                title="Yaracuy" 
                id="VE-U" 
            />
        </svg>