<svg xmlns="http://www.w3.org/2000/svg" viewBox="0.31019892999997234 31.416198000000097 120.07000107 154.06000199999997" width="120.07000107" height="154.06000199999997">
            <path 
                d="m 102.7802,143.8662 1.81,-0.02 3.95,1.48 0.99,1.85 0.25,1.48 0.37,0.86 0.86,1.11 -0.12,1.36 -0.37,0.99 0,0 -1.61,-0.12 0,0 -0.99,0.86 -2.47,0.12 -0.86,0.86 -1.48,-0.49 -0.86,-1.36 -1.6,-0.99 -1.110001,-0.99 -1.23,-0.12 -0.49,-0.74 0,0 -0.22,-0.01 0.57,-3.48 0.72,-0.52 1.300001,-0.29 1.9,-0.85 0.69,-0.99 z m -9.980001,-73.330002 1.75,1.3 1.85,2.22 1.36,1.11 0.99,1.73 1.480001,0.86 1.23,1.48 0.74,1.23 -0.12,1.23 -0.74,0.99 -0.25,1.6 1.23,1.73 0.62,1.98 3.21,3.95 2.1,0.74 1.85,1.36 2.22,0.25 3.09,-0.12 0,0 0.11,0.01 0,0 0.05,0.9 0.74,0.74 0.37,1.6 -0.12,1.23 0.25,0.86 0.99,0.620002 0.99,-0.250002 0.86,0.860002 -0.12,1.11 -0.74,1.11 0,1.98 -2.1,1.85 -3.95,1.98 -2.35,1.36 -0.74,1.6 0.86,1.85 1.85,1.23 1.48,0.49 0.86,0.74 2.1,1.11 2.59,0.25 0,0 -0.25,1.48 0,0 0.99,1.23 0.25,3.33 -0.49,0.99 -1.48,0.49 -1.36,-0.12 -0.74,1.85 -0.49,0.74 0,1.6 -1.6,1.48 -1.98,1.36 -3.09,0.25 -2.35,-0.49 -3.12,-1.24 0,0 0,-2.37 0.85,-0.17 -0.34,-1.69 -1.69,-5.75 -1.49,-1.47 -2.180001,-2.5 -2.09,-0.38 -1.01,-2.92 0.02,-3.5 -2.3,-2.08 -1.02,-1.13 -1.07,-0.77 -3.03,-4.01 -2.26,-3.870002 -0.82,-3.08 1.18,-1.02 -0.17,-2.03 -2.37,-0.68 -1.52,-1.52 0.18,-2.3 1.01,-0.74 -0.52,-1.98 -0.16,-4.12 -1.07,-1.07 0.12,-1.36 2.96,-0.25 1.73,0.49 -0.02,-2.05 1.52,-1.69 -0.17,-1.02 -1.09,-0.68 -0.12,-1.73 3.09,0.12 0.49,1.1 0.34,2.54 1.86,-0.51 -0.51,-2.88 0.79,-0.75 z m -14.82,-30.83 -3.55,0.34 -2.89,-0.07 -2.23,0.67 -3.34,1.95 -1.69,2.37 -0.51,2.37 1.01,4.39 -0.12,1.85 1.48,0.62 1.73,4.94 1.36,1.98 1.98,2.1 1.71,2.74 5.58,1.69 0.34,1.18 -1.02,0.34 -2.54,0 -2.03,-0.85 -0.56,1.19 2.72,1.98 0.25,3.21 1.66,4.45 1.3,0.98 0.86,0.99 1.48,0.99 0.08,1.95 -0.82,4.84 -1.07,0.4 -1.6,3.74 -0.83,1.51 -4.72,3.25 -1.71,2.14 -1.36,2.970002 0.06,2.04 -1.11,2.59 -5.11,2.24 -0.68,3.38 -6.42,9.22 2.1,3.68 1.39,1.24 1.7,1.97 1.87,2.71 0.1,4.7 2.33,0.15 7.85,5.25 0.42,1.37 -0.37,2.18 -2.5,0.54 -0.51,1.86 2.53,1.01 0,3.7 0.38,1.58 0.85,1.01 1.14,0.65 2.88,0.9 1.13,0.14 2.01,-0.04 2.45,-0.43 8.11,-2.67 1.02,-0.49 1.17,-0.81 0,0 0.07,0.44 -0.12,1.98 0.62,0.86 0.62,0.25 0.12,1.36 -1.6,0.86 -1.11,0.86 -2.59,2.47 -2.59,1.23 -1.73,2.1 -3.33,1.85 -3.58,3.83 -2.1,1.23 -1.48,0.25 -0.86,3.58 -1.73,-0.25 -1.85,-0.74 -1.48,-0.12 0,0 -1.48,0.49 0,0 -1.98,0.49 -0.62,0.99 -1.6,0 -0.25,-1.23 -1.23,-0.62 -0.86,0.25 -2.35,2.22 -3.7,1.36 -2.52,0 -5.68,2.84 -0.25,1.85 -0.99,0.25 -1.36,1.48 -1.99,0.49 0,0 -9.23,-10.61 -5.8,-22.47 -3.33,-0.62 -1.11,1.11 -2.84,-0.25 -1.16,-1.77 0.18,-1.02 -1.01,-2.66 -1.28,-1.83 -5.9,3.47 -0.9800001,1.25 -2.49,1.1 -3.8,-0.39 -1.66,0.6 -1.41999997,-0.25 0.63,-2.42 3.33999997,-2.77 0.12,-3.83 1.79,-1.52 1.55,-3.17 4.0900001,-3.63 1.58,-2.14 3.96,-8.3 1.23,-1.11 0.25,-2.72 -1.23,-1.03 0.4,-4.32 1.33,-2.92 1.36,-2.35 -0.12,-7.48 1.23,-0.99 0,-4.330002 1.11,-2.22 1.73,-3.95 2.96,-4.32 2.47,-2.35 -0.02,-3.4 3.14,-5.62 4.41,-5.06 0.77,-2.92 1.69,-1.69 3.89,-0.68 4.06,-0.34 3.22,-5.92 5.92,-11.51 3.38,-4.57 3.22,-1.52 6.99,-2.33 2.47,-0.99 12.59,-2.47 2.1,-1.85 3.11,-0.98 1.51,1.35 -0.68,2.37 -2.71,1.35 -2.71,1.18 -8.46,2.04 z" 
                fill="rgb(151, 144, 238)" 
                stroke="white" 
                stroke-width=".7px"
                title="Zulia" 
                id="VE-V" 
            />
        </svg>