<svg xmlns="http://www.w3.org/2000/svg" viewBox="609.5186 103.91750999999998 91.83000000000004 34.040000000000035" width="91.83000000000004" height="34.040000000000035">
            <path 
                d="m 609.5186,118.26751 2.09,-2.63 1.17,-2.2 0.44,0.29 0.09,0.53 0.83,-0.72 0.83,0.14 0.13,0.81 -0.44,1.63 -0.04,1.77 0.22,0.24 1.17,0.14 0.17,-0.19 -0.13,-0.29 -0.91,0 -0.04,-0.91 0.61,-0.53 -0.13,-0.24 -0.44,-0.05 -0.09,-0.86 0.52,-0.14 0.39,0.81 0.26,-0.19 -0.09,-0.67 -0.78,-0.96 1.48,-0.96 1.7,0.96 0.39,-0.1 0.7,0.24 0.43,-0.43 -0.04,-0.19 -0.71,0 -0.26,-0.29 -0.74,0.14 -0.83,-0.34 -0.04,-0.77 0.7,-0.62 -0.57,-0.43 -0.39,0.58 -0.09,0.81 -1.74,0.72 -0.96,-0.14 -0.26,-0.48 2.22,-2.68 0,-0.53 0.7,-0.24 1.74,-2.83 -0.78,-0.77 0.3,-1.53 -0.17,1.39 0.13,0.14 0.48,-0.14 -0.04,0.38 0.35,0.19 0.48,-0.91 -0.83,-0.58 0.3,-0.29 0.83,0.24 0.52,-0.67 0.26,0.77 -0.39,0.1 0.04,0.58 0.48,0.29 0.83,2.37 0.93,0.91 1.04,0 0.78,-0.38 0.78,0.1 0.91,0.58 3.35,3.02 1.48,0.29 7,-0.24 1.22,0.29 3.44,1.48 0.17,0.43 -0.56,2.2 -1.61,4.41 -1.57,2.82 -0.74,0.81 -0.91,0.1 -1.65,-0.53 -1.48,-0.14 -2.13,0.1 -4.48,-0.38 -4.26,0.1 0,0 -0.96,-0.24 0,0 -1.22,-0.57 -3,-0.43 -2.13,-0.86 0,0 -2.44,-0.77 0,0 -4.01,-2.86 z m 86.96,19.69 -1.26,-1.05 -0.56,-0.91 -0.7,-1.87 0,-0.81 0.74,-1.77 0.78,-0.86 1.91,-1.29 3.13,1.63 0.35,0.48 0.48,1.96 -0.09,0.86 -1.57,1.72 -0.83,-0.05 -0.61,0.29 -1.77,1.67 z" 
                fill="rgb(151, 144, 238)" 
                stroke="white" 
                stroke-width=".7px"
                title="'AjmÄn" 
                id="AE-AJ" 
            />
        </svg>