<svg xmlns="http://www.w3.org/2000/svg" viewBox="0.29860268999992906 68.61751399999994 703.5099973099996 543.6399960000002" width="703.5099973099996" height="543.6399960000002">
            <path 
                d="m 396.5886,326.40751 0.47,3.29 -2.35,0.47 -2.55,-2.13 -3.08,0.02 -1.64,-1.17 1.17,-2.58 3.29,0.24 2.82,0.47 1.87,1.39 z m -82.22,-3.38 0.87,0.45 0.09,1.57 0.26,0.33 -0.17,0.33 -0.78,-0.05 -0.74,-0.43 -0.04,-1.76 0.51,-0.44 z m 85.94,4.06 -1.44,0 -2.41,-4.45 2.41,0.84 1.92,1.44 -0.48,2.17 z m -327.509997,-5.05 0.17,0.35 0.48,0.01 0.3,0.52 0.18,1.56 -0.14,1.75 0.26,-0.1 0.1,0.28 -0.36,0.72 -0.04,0.9 0,0.43 0.44,0.37 -0.18,0.62 -1.26,-0.19 -0.09,-0.44 -0.39,-0.27 -0.38,0.03 -0.01,0.24 -0.26,0.05 -0.3,-0.43 0.26,-0.66 0.74,-4.93 0.35,-0.09 -0.13,-0.71 0.26,-0.01 z m 222.209997,-2.86 0.83,0.09 1.09,1.28 0.49,1.71 0.09,1.8 -1.1,0.14 -1.5,-0.14 -1.89,0.47 -2.13,-1.75 -0.91,-1.47 0.13,-0.57 1.24,-0.95 3.66,-0.61 z m 109.99,4.67 -0.36,1.68 -2.64,-0.36 -3.54,-4.06 -2.11,-0.51 -0.12,-2.04 3.49,0 1.32,1.68 1.44,1.32 1.2,0.48 1.32,1.81 z m -329.059997,-10.11 1.26,0.54 0.39,1.23 0.3,0 0,0.43 -0.57,0.33 0.26,0.71 -0.3,0.57 0.36,0.09 0.04,0.71 -0.09,0.52 -0.26,0.05 -0.3,0.48 -0.26,0.81 -0.82,0.48 -0.27,0.8 -0.65,0.57 -0.44,-1 0.39,-0.1 0.04,0.47 0.26,0 0.17,-0.32 -0.22,-0.49 -1.44,0.29 -0.65,-0.1 -0.13,-0.28 0.35,-0.29 0.44,-1.33 0.17,-1.94 -0.22,-0.71 0.22,-1 0.83,-0.85 0.52,-0.09 0.62,-0.58 z m 288.159997,5.13 1.61,2.2 1.45,-0.27 1.82,0.68 5.68,0.57 2.61,0.79 3.75,4.54 -0.11,1.82 -2.16,4.43 -3.52,0.91 -2.16,0.79 -2.84,-0.79 -3.29,-0.46 -0.57,-1.36 -4.2,-0.23 -0.34,-2.5 -0.68,-1.14 -2.04,-1.02 -1.25,1.7 -0.57,2.84 0.23,2.84 -3.97,0.79 -6.13,-0.23 -3.52,-0.46 -1.82,-1.36 -2.5,-1.36 -3.18,-2.5 -2.04,0 -1.48,1.36 -2.38,0.23 -2.04,-0.23 -1.02,-1.14 -0.91,-1.93 2.38,-2.61 4.2,-1.93 3.36,-0.11 2.43,-1.14 1.1,-2.26 4.58,-2.74 1.72,1.66 6.8,-3.14 2.5,0 1.73,-2.03 2.24,-1.04 0.45,-1.93 2.73,-0.11 1.93,1.14 -1.14,1.02 -1.36,0.45 -0.23,2.38 2.15,2.88 z m -103.23,-14.65 1.44,1.15 0.04,0.71 0.26,0.38 1.48,0.57 0.21,1.53 -0.17,0.4 -2.52,0.24 -0.61,-0.75 -0.13,-0.52 -1.09,-1.04 -0.17,-1.66 1.26,-1.01 z m 21.45,-0.86 2,0.9 1.48,1.67 -0.74,0.33 -1.09,-0.04 -0.4,-0.29 -0.6,0.1 -1,2.14 -0.13,1.42 0.44,0.95 -0.09,1.14 0.48,1.57 -1.52,-0.57 -1.09,-2.47 -0.83,-0.19 -0.65,-0.57 -2.09,-0.19 -1.09,-1.09 -0.61,-0.23 -1.09,0.14 -0.61,0.47 -0.26,0.38 -0.6,2.8 -0.4,0.19 -2.83,-0.24 -0.43,-0.95 -0.7,-0.81 -0.83,-0.14 -0.73,-0.82 -0.92,0.01 -0.04,-0.71 0.43,-1.01 0.44,0.3 0.96,0.05 1.36,-0.58 1.17,-0.03 0.4,-0.48 0.64,0 0.48,0.38 0.3,-0.33 -0.39,-0.33 0.44,-0.29 4.74,-0.94 2.31,-0.85 2.57,-0.09 0.52,-0.57 0.6,-0.13 z m 44.3,3.33 -2.11,1.17 -2.11,-0.23 -0.94,-1.88 0.94,-1.64 2.35,-0.94 1.87,3.52 z m -82.13,-7.5 0.25,0 0.26,0.38 1.04,2.37 -0.04,0.66 0.26,0.47 0.17,0.05 0.39,-0.62 0.29,0.09 -0.03,0.62 -0.57,0.19 0.48,1.09 -0.39,-0.19 -0.27,-0.66 -2.52,-0.43 -1.26,-0.76 -0.35,-0.52 0.22,-1.66 2.07,-1.08 z m 187.08,13.35 -1.68,1.32 -5.53,-1.2 -2.29,2.41 -1.32,-0.84 -2.16,-2.53 -0.48,-2.04 -1.32,-2.16 -4.09,-0.6 -0.72,-1.68 0.48,-3.25 4.93,-1.68 2.04,-3.01 3.97,3.01 0.12,1.92 0.96,2.16 1.68,2.91 4.09,2.38 1.32,2.88 z m -263.55,-17.25 0.17,0.63 2,-0.29 0.52,0.43 1.69,0.32 1.22,0.86 0.91,1.29 0.39,1.52 0.43,0.09 0.09,3.8 -0.04,0.47 -0.26,0.14 0.16,-3.66 -0.21,-0.62 -0.13,1.47 -0.48,0.62 0.26,1.38 -0.57,2.38 0.23,0.33 -0.7,0.33 -0.48,1.33 -0.44,0 0.09,-0.33 -0.56,0.24 -1.09,3.08 -0.7,0 -0.87,-0.57 0.74,0.29 0.4,-0.14 0.42,-1.05 -0.26,-0.33 -0.48,0.05 -1.44,1.19 -0.09,0.33 0.56,0.22 -0.65,0.01 0.13,0.43 -0.48,0.47 -0.26,-0.1 -0.83,1 -0.13,0.57 0.09,0.38 0.3,0.05 0.22,-1.14 0.78,-0.28 0.32,1.04 -0.1,0.52 -2.35,1.04 -0.96,-0.57 -0.17,-0.9 0.74,-1.95 0.78,0.9 0.22,-0.05 -0.91,-1.9 -2.79,-2.42 -0.78,-1.47 -0.83,-2.66 0,-1.9 0.26,-1.22 -0.17,-0.11 1.13,-2.61 1.26,-1.66 1,-0.47 0.39,0.05 0.26,0.38 0.74,-0.14 0.92,-0.58 -0.27,-0.52 0.66,0 0,0.01 z m 268.6,5.47 -0.6,1.8 -1.68,0.48 -2.04,-0.36 -0.5,-2.61 1.46,1.29 1.32,-0.12 1.08,-1.92 -2.55,-3.71 -2.98,-2.3 0,-2.05 1.92,0 2.17,1.68 3.49,3.73 0.24,1.68 -1.33,2.41 z m -10.22,-2.64 -1.92,0 -1.68,-2.04 -5.05,-1.8 -3.73,-0.6 -1.08,-0.84 6.37,-0.36 2.04,-1.8 0.84,-2.04 2.4,-0.72 0.84,2.77 -1.25,1.28 -0.2,1.96 1.94,1.56 0.48,2.63 z m -423.5799973,-13.01 0.44,0.6 1.96,0.29 0.39,0 0.09,-0.2 0.82,0.09 0.18,0.58 -0.44,0.19 0.04,0.71 0.17,-0.48 0.57,0.1 -0.96,0.85 -0.04,1 -0.39,0 0.18,-2.34 -0.75,-0.13 -1.09,0.43 -0.26,0.8 0.56,1.1 1.13,0.43 -0.04,0.19 -1.39,-0.43 -0.74,-1.14 -0.87,0.09 0.22,1.05 -0.35,-0.95 -0.95,0.33 -0.09,0.28 0.26,0.14 -0.26,0.34 -0.44000001,-0.15 -0.04,-0.38 -0.43,-0.23 0.26,-0.86 0.26,-0.47 0.78000001,-0.48 0.91,-1.42 0.31,0.07 z m 432.4199973,-3.82 0.22,0.19 -0.13,1.24 -0.53,0 -0.43,-1.24 0.87,-0.19 z m 2.82,0 0.36,0.33 -0.01,0.38 1.7,0.19 3.78,3.23 1.04,0.52 2,0.56 0.3,0.3 0.52,0 3.74,1.38 -0.26,0.71 -2.7,1 -0.96,-0.48 -0.87,0.1 -1.47,-0.81 -1.35,-0.42 -0.57,-0.52 -2.22,-0.57 -0.35,-0.62 -0.65,-0.05 -0.57,0.38 -1.09,-0.29 -0.48,-1.28 -0.39,-2.85 -0.04,-0.9 0.54,-0.29 z m -1.82,0.03 0.4,1.53 -0.14,0.29 -0.91,0.05 0.22,-1.76 0.43,-0.11 z m 29.57,-2.66 0.82,0.76 4.14,0.91 0.44,0.53 -0.01,0.66 0.39,0.52 -0.09,0.9 -0.7,0.38 -0.48,-0.04 0.05,-0.53 -0.64,-0.43 -0.23,0.09 0,0.29 -1.83,0.52 -0.74,1.33 -2.3,0.29 0.04,-0.91 -2.57,-0.23 -0.57,-0.62 -0.22,-1.19 0.57,-0.85 0.39,-1.33 0.53,-0.24 0.08,0.57 -0.69,1.48 1.04,0.43 0.61,-0.14 0.09,-0.48 0.3,-0.1 0.3,0.71 0.96,0.01 0.09,-0.34 -0.35,-0.29 -0.43,-2 1.01,-0.66 z m -31.95,-2.6 -1.1,0.81 -0.13,1.9 0.43,0.43 0.04,0.67 0.96,1.14 -0.96,0.19 -0.57,-1.14 0.31,1.32 -0.7,0.2 -0.26,-0.52 0.13,-1.47 -0.39,-0.19 0.26,-0.48 0.48,-0.24 0.17,-1.95 1.33,-0.67 z m 30.47,-0.43 0.39,0.34 2.13,0.19 1,0.67 2.61,0.51 3.87,1.48 1.04,1.1 0.52,1.53 -0.57,0.42 -1.52,0.33 -0.78,0.43 -0.78,0 -0.25,-1.27 -1.18,-1.1 -3.09,-0.86 -0.87,-0.82 -2.6,-1.13 -0.49,-0.48 -0.26,-0.95 0.26,-0.33 0.57,-0.06 z m -3.17,-0.8 0.96,0.18 0.48,0.34 0.57,0.95 -0.04,0.33 -0.52,0.09 -1.61,-0.57 0.16,-1.32 z m -6.09,-1.94 1.48,0.37 1.87,0.95 1.87,0.48 0.57,2.14 0.52,0.24 0.44,0.57 -1.92,1.47 0.48,1.33 -0.39,-0.19 -1.57,-1.95 -0.44,-0.05 -1.09,-0.91 -1.35,0.06 -0.78,-1.47 -0.65,-0.52 0.35,-0.96 2.44,0.81 0.26,0.43 0.22,-0.57 -2.39,-0.96 0.04,-0.86 -0.21,-0.32 0.25,-0.09 z m -4.96,-2.87 0.43,0.01 1.57,1.09 -0.17,0.24 -0.26,-0.05 -0.09,1.19 0.52,0 0.61,1.52 0.35,0.19 0.39,0.86 -0.81,1.47 -0.53,0.33 -0.61,0 -1.17,-1.47 -0.74,-0.53 -0.57,-0.09 -0.09,-0.33 -0.57,-0.38 0.38,-0.67 -0.34,-0.81 0.43,-0.56 0,-0.48 -0.26,-0.19 0.22,-0.9 0.44,-0.1 0.48,0.67 0.44,0.09 -0.22,-0.66 0.17,-0.44 z m 24.05,-3.81 0.87,0.58 1.04,0.1 0.17,0.33 -0.13,0.52 -0.22,0.14 -1.87,-0.38 -0.26,-0.52 0.13,-0.77 0.27,0 z m -351.95,-1.65 0.17,0.38 1.79,0.62 0,0.52 0.3,0.29 1.13,0.14 0.35,0.24 0.69,3.71 0.61,1.52 0,1.47 -1.09,0.19 -0.48,-0.29 -0.3,0.95 0.56,0.51 -0.18,0.11 -0.61,-0.29 -1.26,1.95 0.44,0.43 -0.65,0.05 -0.48,3.23 -0.26,4.75 0.13,0.95 -1.43,0.24 -0.38,-0.24 0.04,-0.9 0.7,0.05 0,-2.1 0.4,-2.66 0,-2.76 -0.36,-1.04 -0.39,-0.24 0,-0.71 -0.35,-0.05 -0.22,0.48 -0.26,-0.09 0.21,-0.67 -2.57,-1.52 -0.78,-2.19 -0.13,-0.95 0.87,-1.19 1.3,-2.52 1.04,-0.67 0.65,-1.62 0.8,-0.08 z m 354.78,-1.48 0.39,0.38 0.25,1.04 -0.52,0.3 -0.17,0.76 -0.78,0.29 -0.43,-0.38 -0.3,-1.14 0.78,-1.09 0.78,-0.16 z m -9.65,-0.59 1.17,0.83 1.14,0.19 0.73,0.91 0.65,-0.05 1.04,0.53 0.49,0.66 0.08,1.81 -2.04,-0.38 -1.22,1.05 -0.35,-0.24 -0.91,0.05 -2.13,-2.19 -0.17,-0.76 -0.57,-0.05 -0.43,-0.71 2.35,-1 0.17,-0.65 z m 0.47,-3.81 4.87,1.12 0.7,-0.32 0.78,0.99 0.61,-0.24 0.52,0.24 1.04,0.05 2.09,-0.33 1.04,0.47 -0.61,0.14 -0.26,1.9 -1.04,-1.84 -0.62,-0.05 -0.47,0.24 -0.09,0.24 2.04,1.76 -0.22,0.29 -0.71,-0.39 -1.34,-0.04 -0.78,-1 -1.82,-0.81 -1.66,0.29 -0.43,0.71 -0.87,0 -0.65,-0.39 -0.61,-0.04 -0.52,-0.57 0.04,-0.62 -1,-0.43 0.22,-0.67 -0.18,-0.38 -0.48,-0.09 0.04,-0.24 0.37,0.01 z m -6.75,-1.34 0.53,0.07 0.09,0.2 -0.78,0.62 -0.91,1.62 -0.13,0.76 -1.09,1.24 -0.52,1.52 0.04,0.86 0.96,2.76 0.52,0.81 0.26,1.05 0.96,1.52 0.35,1.57 -0.52,1.24 -0.35,0.05 -0.43,-1.09 0.12,-0.71 -0.21,-0.38 -0.3,0.38 -0.57,0.05 -4.83,-2.28 -2.91,-0.62 -2.44,-2.28 -0.26,-0.71 0.22,-0.19 0.74,0.19 2.83,-0.44 2.22,-1.02 2.52,-2.24 3.89,-4.55 z m -430.619997,-2.53 0.61,0.43 -0.17,0.43 0.26,0.52 1.13,0.28 0.09,0.33 -0.43,0.14 0,0.84 -1.61,2.34 -0.08,0.48 -0.48,0.09 -0.52,-0.57 -0.26,-0.72 -0.87,-0.76 -0.04,-0.38 0.74,-1.27 0.04,-1.2 0.52,-0.57 0.7,-0.05 0.37,-0.36 z m 444.769997,-3.08 0.65,0.03 1.04,0.76 0.04,1.43 0.4,1.13 -1.01,-0.32 -1.13,0.05 -0.09,-0.43 0.52,-1 -1,-0.81 -0.22,-0.43 0.43,-0.43 0.37,0.02 z m -2.35,-2.95 0.52,0.22 0.18,0.62 -0.23,0.76 0.04,1.29 1.13,1.85 -0.48,0.76 -0.35,0 -1.48,-1.24 -1.12,0.23 -1.75,0.96 -2.09,-0.9 -0.65,0.28 -1.13,0 -0.04,-0.52 0.52,-0.38 -0.52,-0.24 0.65,-0.37 0.22,0.28 0.69,-0.1 0.23,0.62 1.52,-0.76 0.83,-0.81 0.9,-1.43 -0.17,-0.57 0.13,-0.24 1.91,-0.09 0.54,-0.22 z m 10.61,-1.05 0.7,0.56 0.91,0.19 0,0.37 0.69,0.58 0.09,0.86 -0.53,0 -0.03,-0.52 -0.66,-0.09 -0.61,0.04 -0.35,0.34 -0.04,-1.14 -0.44,-0.76 0.27,-0.43 z m -322.07,-27.23 1.09,0.41 0.64,1.38 0,0.81 -0.56,0.9 -0.04,1 -0.39,0.19 -1.04,-0.52 -0.3,-0.57 -0.01,-0.62 -0.73,-0.52 -0.35,-0.57 -0.04,-1 0.39,-0.71 1.34,-0.18 z m 79.59,-16.75 1.09,0.28 0.74,0.48 0.74,1.71 0.56,0.1 -0.39,0.67 1.09,1.33 0.04,0.24 -0.26,0.1 -1.09,-1.38 -0.39,0.86 0.09,2.05 -0.56,-0.05 -0.48,-0.38 0.1,-0.67 -0.75,-0.15 -1.12,-1.48 -0.78,-0.62 -0.31,-0.71 -0.04,-0.43 0.83,-1.81 0.89,-0.14 z m -34.27,-7.9 0.47,0.46 0.27,1.24 0.83,0.67 0,1.05 -0.09,0.19 -0.22,-0.19 -0.39,0.52 -0.17,-0.1 0,-0.67 -0.48,-0.38 -0.17,-0.81 -0.39,0 -1.35,-0.91 0,-0.33 0.48,-0.38 0.78,-0.38 0.43,0.02 z m -70.9,-3.59 0.35,0.52 -0.04,0.48 1.35,1.29 0,0.57 -0.43,0.14 -0.13,0.53 -0.66,-0.34 -0.83,-1.1 -0.22,-1.67 0.61,-0.42 z m 310.21,122.69 0.82,-0.52 0.13,-0.52 -0.79,-0.7 -0.52,-0.91 0.39,-0.05 -0.09,0.28 0.48,0.43 0.74,0 2.13,-0.95 0.35,-0.43 1,-0.19 0.61,-0.47 -0.48,-0.81 0.26,-0.33 0.48,0.33 0.13,0.53 1.04,-0.67 0.39,-0.42 -0.04,-0.67 1.87,-1 0.52,-0.67 0.26,-0.48 -0.21,-0.18 -1,1.05 -0.61,-0.05 0.83,-0.52 0.83,-1.58 0.43,-0.13 0.3,-1.33 0.83,-0.87 0.96,0.96 0.78,0.19 9.05,-0.47 0.22,0 0.22,0.47 0.87,0 -0.13,-0.61 -0.61,-0.06 -9.92,0.43 -0.83,-0.52 -0.31,-0.85 0.61,-2.28 0.91,0.47 -0.65,-1.23 0.04,-0.71 0.96,-3.62 0.57,0.06 0.13,-0.29 -0.13,-2.33 0.17,-0.33 0.79,-0.29 2.82,0.19 1.3,-0.33 0.48,0.19 1.39,-0.29 0.39,0.19 0.74,-0.06 -0.22,-0.7 0.09,-0.56 -2.3,-0.05 -1,0.28 -1.22,0 -0.35,0.9 -0.66,-0.14 -0.47,-0.33 -0.65,-1 0.31,-0.19 0.96,0.33 1.43,0.05 -0.17,-0.24 -1.52,-0.11 -0.26,-0.23 1.13,-0.85 0.52,-0.71 0.39,0 -0.26,-1.57 -0.57,-0.85 -0.13,0.43 0.17,0.76 -0.39,0.43 -0.13,1.14 -0.61,0.1 -0.74,-0.2 0.22,0.58 -0.34,0.47 -0.43,-0.62 -0.35,0.05 -0.3,0.81 -0.83,-0.19 -1.13,-0.66 0.3,-0.81 0.3,-0.14 1.57,0.61 0.26,-0.62 -5.83,-1.9 -1.95,-0.33 0.04,0.29 5.13,1.66 -0.38,1.15 -0.27,0.04 -4.64,-1.75 -0.49,-0.86 -0.96,-0.38 -0.26,-0.33 -0.83,0.14 -0.52,-0.47 -0.21,-0.53 -2.45,-0.85 -0.26,0.1 2.71,1.09 -0.23,0.76 -0.74,-0.14 -0.91,-0.66 -0.91,-0.19 -1.26,-0.81 -1.05,0.05 -2.35,-2.28 -1.48,-1.09 0.09,-0.28 0.78,0 -0.22,-0.37 -0.99,-0.06 -0.53,0.81 -0.78,-0.05 -0.26,-0.33 1.04,-0.24 -0.04,-0.24 -1.04,0.05 -0.39,-0.19 0,-0.48 -1.04,-0.05 -0.13,0.43 -0.78,-0.29 -0.43,0.95 -1.83,-1.14 0.13,-1.14 1.26,-0.24 0.39,1.28 5.26,-3.05 0.78,-1.89 2.96,-2.47 1.17,-1.65 -1.13,0.47 -1.48,-1.48 0.52,-1.9 0.43,0.28 1.04,-0.71 0.3,-0.33 -0.17,-0.52 0.35,-0.38 -1.61,0.29 -0.3,0.33 0.17,-0.43 2.35,-0.67 0.26,0.43 0.44,-0.1 0.48,0.48 -0.96,1.71 1.74,1.76 1.09,-0.85 -0.57,0.85 -0.92,0.42 -0.43,1 -0.74,0.9 0.96,2.23 3.26,2.9 0.7,0.43 1.17,-0.01 -0.22,0.29 -0.78,0.1 0.43,0.52 0.65,0 0.09,-0.43 0.48,0.05 1.17,0.86 0.61,-0.1 0.65,1.05 0.96,0.67 -0.3,0.57 0.09,0.38 -0.3,0.24 1.04,0.57 1,-0.29 1.48,0.18 0.65,1.77 1.78,1.04 0.65,0.76 0.97,-0.67 4.95,0.29 1.85,-1 0.76,-0.24 0.48,0.19 1.7,-0.48 8.52,-2.71 0.48,-0.57 0.18,-0.86 -0.22,-0.37 -0.31,0 -0.7,0.95 -0.83,0.24 -1.26,-0.33 -0.39,0.62 -0.57,0.28 -1.74,0.24 -0.43,-0.25 -0.22,-1.46 2.09,-2.14 0.48,-1.19 -0.39,-0.76 -5.09,-0.19 -1.09,-0.33 -0.74,0.09 -0.91,0.58 -1.18,-0.14 -1,-0.48 -1.56,0 -0.96,-0.76 -1.61,-0.14 -0.87,0.29 -0.61,-0.34 -0.7,0.06 -0.96,-0.52 0.22,-0.9 0.75,-0.24 0.34,0.34 0.45,-0.67 -1.05,-0.56 -0.96,-2.39 -0.39,-0.29 0.26,-0.48 0.3,0.43 0.36,-0.23 -0.75,-1.33 -1.18,-1.33 -0.43,-1.57 0.04,-0.9 0.35,-0.71 0.43,-0.05 0.17,-0.57 0.39,-0.25 0.04,-0.9 0.91,0.52 0.05,-0.38 -0.57,-0.33 -0.13,-0.33 2.57,0 -0.35,1.47 0.48,1.28 1.52,2.42 2.7,2.76 1.52,0.52 0.87,-0.1 2.91,1.24 2.65,0.71 2.65,0.33 1.56,-0.75 0.83,-0.76 0.52,-0.86 0.49,-0.3 0.69,-1.37 0.13,-1.9 0.43,-1.01 -0.12,-0.47 0.69,-0.32 0.26,-0.48 -0.04,-0.47 0.56,0 0.13,0.39 0.21,-0.28 -0.04,-0.39 -1.7,-1.19 0.39,-0.23 1.4,1.22 0.25,-0.52 0.43,0.14 0.3,-0.14 0.61,-1.71 -0.52,-0.52 1.35,-1.87 0.35,-1.61 -0.3,-0.57 -0.48,-0.29 -0.09,-0.57 -1.13,-0.1 -1.92,0.57 -0.26,0.24 0.35,0.62 -0.26,0.19 -1.65,0.43 -0.66,0.47 -1.17,-0.09 -0.44,0.57 -0.35,-0.14 -0.61,-1.28 -0.71,-0.43 -0.47,-0.71 0.3,-1.38 -0.3,-0.33 0.04,-1.05 -0.44,0 -0.48,-0.81 -0.17,-0.95 0.35,-0.52 0.6,-0.23 0.36,-0.77 0.52,-0.14 0.05,-0.38 -0.78,-0.1 -0.35,-0.95 0.31,-0.99 0.52,-1.06 0.83,-0.05 0.74,0.52 -0.04,0.33 0.61,-0.05 0.17,-0.33 0.87,-0.1 0.7,0 0.7,0.33 0.13,0.33 -0.43,0.29 0.57,0.39 0.09,0.46 -0.35,0.24 0.26,1.57 0.58,0.67 -0.1,0.85 -0.17,0.19 -1.09,-0.05 -1.04,0.29 -0.13,0.62 0.26,0.38 -0.17,1.19 0.22,0.86 0.52,0.57 0.3,0.86 0.57,0.24 0.17,0 -1.17,-2.14 0.65,-1.33 0.48,0 1.4,-0.81 1.95,0 0.39,0.29 3.13,-2.95 -0.78,-0.67 -0.83,0 0.35,-0.33 -0.04,-0.33 -0.48,-0.05 -0.3,-0.52 0.48,-0.48 0.89,-0.2 1.02,0.29 1.48,-0.43 -0.47,-0.29 -0.57,-1.04 1.78,0.24 0.3,-0.38 -0.65,-0.09 -0.3,-0.42 -1,-0.15 -0.13,-0.38 0.26,-0.05 0.09,0.19 0.3,-0.24 -0.29,-0.77 -0.4,-0.14 -0.43,0.68 -0.35,1.9 -1.65,-0.28 -0.13,-0.24 0.3,-1.05 -0.21,-0.57 0.65,0.38 0.18,-0.48 -0.35,-0.23 -1.13,0 0.7,-0.76 0.61,-0.19 0.52,0 -0.22,0.71 0.22,0.29 0.78,-0.19 0.61,-1.3 0.87,-0.61 -0.18,-1.48 -1.12,0.19 -0.35,-0.19 0.04,-0.9 0.61,-0.29 0.04,-0.67 0.44,0.05 0.13,0.57 0.48,-0.1 -0.39,-2.28 0.12,-0.43 -0.69,-0.62 -0.56,0.39 -0.69,-0.39 -1.79,0.05 -0.78,-0.76 0.09,-0.33 0.61,-0.24 0.25,-0.44 0.35,0.05 0.35,0.52 0.22,0 2.26,-1.52 0,-0.33 -0.43,0 -1.78,1.43 0.13,-1.38 0.91,-0.87 1.09,-0.33 0,-0.19 -1.1,0.28 -1.38,0.86 -0.09,-0.19 1.39,-0.76 0.61,-0.76 0.82,-0.53 0,-0.43 0.3,-0.33 1.35,-0.62 0.39,-0.81 0.91,-0.71 1.7,-2.05 1.91,-3.43 0.65,-1.95 0.74,0.19 0.96,0.86 1.65,0.86 1.43,0.34 0.74,0.51 0.39,-0.09 0.04,-0.81 -0.56,-0.29 -1.09,0.05 -2.61,-1.53 -0.48,-0.57 0.44,-1.62 0.78,-1.14 1.87,-1.29 0.27,0.06 -0.09,0.52 -0.61,1 1.87,-1.19 0.83,0.29 1.83,0.01 0,2.61 1.35,1.81 0.57,0.34 0.87,1.05 0.22,-0.33 -2.27,-2.34 0.39,-0.05 0.35,-0.57 -1,-0.43 -0.26,-3.43 0.26,-0.72 -0.09,-1.04 0.18,0 0.39,1.48 0.26,0.29 0.74,0.05 3.13,-1.33 0.14,-0.33 -0.27,-0.67 0.48,0.76 1.3,-0.19 0.09,-1.19 0.22,-0.15 -0.13,-0.95 0.25,1 -0.21,0.15 0.04,0.95 3,-1.86 -0.48,-0.81 0.48,-0.24 -0.13,0.24 0.27,0.24 0.39,-0.04 0.48,-1.1 0.13,0.33 0.39,0.1 1.65,-1.43 0.04,-0.29 -1.08,-0.62 0.22,-0.48 0.78,-0.48 -0.22,0.76 1.13,0.86 0.74,-1.48 -0.7,-0.43 0.26,-0.53 0.22,0.13 -0.26,0.25 0.78,0.86 0.57,-0.24 -0.91,-1.43 0.35,0.05 0.22,0.67 0.35,-0.05 3.44,-1.96 0.92,-1.15 1.26,0.33 1.82,-1.62 0.27,-0.76 0.52,-0.05 2.22,-1.72 5.26,-4.87 0.87,-0.33 1.17,0.05 4.91,-2.48 0.21,0.53 0,0 1.03,3.07 0,0 19.18,55.46 2.83,6.99 11.13,0.38 10.05,-0.14 4.14,-1.48 0,0 0.34,-0.06 0,0 1.38,-0.23 10.05,0.57 6.62,-0.32 4.17,-0.79 3.32,-1.23 0,0 2.21,-1.17 0,0 1.91,-1.38 4.04,-4.47 4.22,-0.43 1.35,-0.67 5.31,-3.81 1.91,-0.76 0,0 3.87,-0.33 0,0 1.7,-0.52 1.83,-1.05 1.17,-1.47 0,0 2.91,0.62 2.74,1.29 2.35,0.81 5.48,1.14 2.61,-0.1 4.65,-1.05 2.94,-1.91 0,0 3.04,7.35 0.26,0.79 -0.19,0.99 -0.39,0.88 -0.89,1.03 -3.2,2.83 -0.09,2.17 0.5,2.92 -0.25,1.39 -4.2,2.57 -0.35,2.53 0.72,2.59 0.06,1.96 1,2.53 0.16,8.82 -0.41,2.57 0.06,1.37 0.29,1.38 1.01,0.54 2.93,2.56 1.63,2.19 0.51,3.83 0.09,4.31 -0.25,3.22 -3.34,4.71 -3.56,5.66 -1.75,5.77 -0.03,0.94 0.54,0.72 0.89,0.5 1.31,0.33 2.33,-0.02 2.43,-0.37 2.39,1.12 2.32,1.43 1.09,0.04 1.13,-0.24 1.6,-1.09 4.83,-2.43 5.82,-0.32 1.47,1.75 -0.21,1.67 0.53,1.75 0.51,0.78 1.09,0.96 1,7.81 3.07,3.85 3.62,6.53 0.5,2.17 -0.87,0.67 -1.57,0.62 -16.85,4.33 -10.03,5.22 -1.57,0.59 -1.52,-0.2 -3.66,-2.66 -0.85,-1.32 -1.62,-0.21 -4.73,2.01 -1.88,0.31 -1.56,-0.1 -2.35,-0.72 -10.68,-0.41 -1.97,0.54 -1.91,0.96 -4.51,3.37 2.07,0.02 -5.89,2.71 -1.91,0.6 -1.32,0.98 -2.14,0.6 -5.85,0.51 -1.87,0.52 0.29,3.24 0.53,2.19 1.25,1.12 3.32,2.18 1.98,1.2 2.35,0.78 1.38,1.13 1.53,0.81 0.75,1.43 0.5,1.74 -0.65,8.68 1.13,7.24 -0.09,1.71 -0.51,1.68 -2.12,3.25 -5.53,6.7 -1.12,1.99 -1.88,4.53 -0.78,2.9 -0.15,3.69 -0.69,5.32 -1.31,4.23 -0.66,3.08 -0.81,1.52 -1.25,1.53 -2.36,1.73 -3.67,3.49 -2.55,3.17 -0.88,1.6 -1.87,10.83 -2.19,8.61 -0.7,3.87 -3.51,10.01 -1.43,2.87 -3.19,4.45 -1.25,3.62 -3.34,4.49 -3.48,6.47 -1.35,1.49 -1.79,3.2 -0.78,2.54 -0.08,1.85 -0.5,1.09 -0.04,2.07 0.28,1.49 -1.19,1.93 -1.16,2.57 -1.07,2.79 -0.33,1.75 0.15,8.66 -0.6,3.33 -0.13,2.01 0.61,4.93 0.57,13.59 0.24,1.39 -0.96,6.09 -1.64,7.6 -0.11,1.04 0.56,2.52 0.16,1.9 -32.1,33.84 -178.51,-41.78 -92.79,-20.72 -108.1,-21.62 -104.499997,-125.22 -51.3500003,-63.96 1.2000003,-13.95 1.13,-5.29 -1.7000003,-1.7 -1.32,-1.89 -0.39,-1.75 2.2100003,-1.04 0.17,-1.71 0.17,-0.05 0.13,0.89 0.87,-3.03 -0.34,-0.62 -0.44,-0.04 -0.04,-2.14 -0.44,-1.09 0.17,-0.71 -0.7400003,-0.19 0.3600003,-1.43 -0.5300003,-1.37 -0.09,-1.04 0.7000003,-1.09 -0.35,-2.19 -0.5200003,-0.56 -0.75,0.14 -0.21,-0.28 0.08,-0.52 -0.39,-0.57 1.61,-0.85 -0.44,-1.24 0.09,-0.43 0.7000003,0.13 1.04,0.81 1.52,2.75 0.91,-0.1 0.74,0.76 1,2.47 0.44,0.42 0.17,0.53 -0.48,0.89 0.88,0.71 0.43,0.09 0.26,1.14 0.56,0.57 -0.25,1.09 -0.54,0.04 -0.04,-0.29 -0.52,0.1 0.04,0.52 1.04,0.48 0.05,0.28 -0.91,-0.18 -0.43,0.28 -0.13,0.71 0.3,1.14 -0.7,0.52 -0.17,0.71 0.13,3.46 0.91,1.75 0.09,1.78 -0.17,1.07 0.57,0.95 0.91,0.76 0.22,0.66 -0.49,1.47 -0.65,-0.38 -0.83,0.09 0.09,0.95 0.3,0.33 0.96,0 0.52,-0.24 0.69,-1.76 0.57,-0.38 0.83,0 0.26,-0.62 0.96,-0.43 -0.09,-1.14 0.52,-0.38 0.7,-1.34 0.13,-2.17 -0.17,-0.81 -0.57,-0.57 0.17,-2.33 -0.44,-1.38 0,-1.04 -0.83,-0.33 -0.48,-0.5 -0.08,-1.57 -0.57,-0.46 -0.78,-0.15 0.04,-0.38 0.61,0.15 0.17,-0.19 -0.13,-1.1 -0.39,-0.76 0.48,-0.95 0.39,0.28 0.13,0.71 0.61,0.71 0,2.23 1.57,1.95 0.14,1.19 -0.57,0.28 0.35,1.28 0.48,-0.14 0.48,0.67 0.74,2.37 1.09,1.42 -0.13,0.95 0.26,1.42 -0.04,1.61 0.3,1.52 0.65,0.9 1.74,0.51 0.7,-0.04 0.83,-0.38 0.91,-1.04 0.05,-0.33 -1.13,-3.13 0,-1.52 0.3,-0.9 0.78,-0.29 0.3,-0.85 0.52,-0.38 0.57,-1.33 0.95,-1.42 1.31,-1.38 -0.01,-0.29 -0.53,-0.17 -0.09,-0.81 0.31,-0.04 0.78,0.9 2.61,1.27 2.21,2.15 0.48,1.27 -1.18,2.95 0.13,1.28 1,1.85 -0.78,0.9 -0.57,1.52 0.57,3.7 -0.61,0.13 -0.82,1.05 -0.04,1.85 -0.57,0.05 -0.13,0.52 0.39,0.43 0.31,-0.19 0.35,0.19 -0.31,0.47 -0.74,-0.29 -0.08,1.61 0.74,1.6 0.7,3.04 0.78,1.19 0.39,1.89 0.39,0.76 -0.09,1.28 0.52,1.14 0.22,2.18 -0.17,3.08 -0.61,0.9 0.44,3.98 0.52,1.14 2.22,3.27 1.09,0.38 3.39,2.84 0.78,0.38 3.39,0.66 1.65,-0.05 1.52,0.66 0.7,0 0.74,-0.48 1.79,0.05 2.52,0.9 0.61,-0.09 0.09,-0.28 -0.44,-0.37 -0.77,-0.2 -0.7,-0.75 0.09,-1.33 1.09,-0.05 0.65,0.76 0.35,-0.05 1.04,-1.42 0.57,-0.05 0.87,-0.57 2,0.05 0.65,-0.52 0.52,0 0.39,0.47 -0.22,0.62 0.13,0.52 1.52,1.18 1.96,0.38 0.74,-0.1 2.13,0.67 2.48,-0.62 0.65,-0.52 -0.17,-0.38 0.61,-0.1 3.26,3.41 2.83,1.33 2.48,0.23 1.17,0.52 0.57,-0.14 0.3,-0.66 1.61,-0.9 1.12,-0.05 0.79,0.61 1.35,0.47 1.83,0.24 1.35,0.43 1.17,0 1.48,-0.33 4.909997,0.1 2.17,-0.38 3.96,-1.23 3.7,-0.85 10.7,-4.21 1.04,-0.71 0.22,-1.23 1.52,-1.28 1.65,-0.71 1.09,-0.9 4.18,-2.22 5.18,-1.37 5.09,-2.89 1.04,-0.95 0.48,-0.57 0.53,-1.52 -0.18,-0.85 -2.39,-1.9 -0.57,0 -1.04,-0.9 -0.39,-1.8 0.48,-0.81 1.22,-0.28 0.61,0.19 0.39,0.47 -0.31,1.38 -0.78,0.52 0.09,0.81 2.39,1.75 1.57,0.05 0.83,-0.66 0.35,-0.81 3.74,0 1.87,-1.18 1.4,-1.47 6.95,-2.8 1.52,-1 0.05,-0.42 -1.31,-1.42 0.61,-1.85 0.39,-2.67 -0.09,-1.22 -0.35,-0.43 1.55,-0.57 1.97,-1.33 1.57,-0.43 2.09,0.66 0.48,0.62 1.39,0.33 0.96,-0.85 0.04,0.17 -1,0.97 0.44,0.66 0.48,0.14 0.17,0.33 0.04,2.13 1.18,0.23 2.3,1.23 2,3.14 0.3,1.14 0.61,0.05 0.83,-0.33 0.3,-0.33 -0.22,-1.04 0.27,-0.05 3.34,-0.14 0.52,0.52 0.96,0.24 0.44,-3.08 -0.52,-0.24 -0.04,-0.33 0.57,0.33 0.18,-1.09 -1.06,-1.37 0.14,-0.2 1.22,1.28 -0.61,3.98 0.13,0.57 0.87,0.05 -0.04,-4.18 0.4,0.06 0.12,0.38 -0.3,0.09 -0.04,1.61 0.13,2.13 1.31,-0.05 -0.09,-1.66 0.65,0.14 1.17,0.85 0.43,0.67 2.05,1.98 1.44,0.81 1.78,-0.24 2.48,-0.76 5.92,-2.56 0.96,-0.19 0.91,0.1 1.65,2.32 0.91,0.43 1.39,-0.14 1.26,0.19 0.35,-0.38 0.7,-0.24 1.48,-0.05 2.7,-1.76 0.78,-0.19 0.35,0.28 -0.17,0.33 1.83,1.71 2.13,-0.05 4.87,-2.75 0.47,-0.47 0.05,-0.66 0.7,-0.28 0.47,0.49 0.09,0.56 1.09,0.66 2.7,0.76 0.56,0.38 2.35,0.57 -0.04,-0.43 -1.22,-0.33 -1.22,-1.52 0.4,0.19 0.17,0.43 0.7,0.62 1.35,0.33 -0.05,-0.62 0.27,0.19 0.12,0.85 0.52,0.76 2.91,2.18 2,-0.09 6.14,-2.32 2.82,0.13 1.09,-0.34 0.78,-0.99 -0.39,-3.9 1,-0.95 0.91,0 0.7,0.72 1.17,0.43 1.09,-0.19 0.4,0.6 0.52,0 0.17,-0.32 0.57,0.28 0.26,0.81 0.65,0.62 2.61,0.62 0.78,0.52 0.69,1.1 0.27,1.27 1.18,0.37 0.12,0.39 0.91,0.95 1.09,1 0.96,0.52 0.83,1.23 2.87,-0.24 0.78,0.13 0.04,-1.08 0.47,-0.01 0.7,0.58 0.96,-0.38 1.96,0.76 0.48,-0.14 -0.13,-0.52 0.57,-0.09 1.13,1.33 0.48,0.28 0.17,0.91 0.3,0.19 0.52,-0.09 1,-1.23 0.38,-0.19 -0.3,1.14 -1.61,1.56 -0.39,0.85 0.26,0.19 0.97,-0.62 0.38,1.04 2.52,-1.37 1.44,0.28 0.17,-0.76 -0.96,-1.18 -0.09,-0.76 0.78,0.43 1.17,-0.05 0.48,-0.66 2.31,-0.62 1,-0.62 0.97,-0.01 0.99,0.43 0.7,0.05 1.04,0 2.22,-0.47 2.7,-1.94 1.83,-0.62 0.35,0.05 0.48,0.57 0.79,-0.48 1.91,1.29 0.56,1.56 1.09,-0.91 0.17,1.67 1.3,0.57 0.61,0 0.13,-1.04 0.44,-0.24 -0.3,1.28 2.52,1.28 2.52,1.04 1.04,-0.47 1.48,0.05 0.58,0.37 1.25,1.9 -0.3,0.76 1.53,1.98 2.82,2.46 1.09,0.01 0.78,0.52 1.95,-0.1 1.13,0.33 1.39,0 1.78,-0.47 6,-0.9 1.87,-0.63 0.74,-0.04 2.35,-1.14 1.61,-1.33 0.48,0.57 1.57,0.66 2.48,0.62 2.39,0.05 1.78,-0.43 2.35,0 1.92,0.18 1.91,0.86 2.7,-0.09 7.92,0.44 6.81,-2.82 4.93,-1.64 12.44,-5.4 4.46,-1.64 6.57,-0.23 5.17,-2.58 4.46,-1.88 1.64,-4.23 1.64,-1.88 3.52,-0.94 0,-2.58 -3.52,-3.52 -2.11,-0.23 -2.58,-2.82 -4.19,-2.12 -0.36,-0.48 -1.04,-0.52 -2.09,-0.38 -1.78,0.28 -0.7,-0.38 -0.04,-0.37 0.18,-0.15 0.35,0.62 0.35,0.14 0.13,-0.28 -0.48,-0.71 0.04,-0.54 1.09,-0.36 0.38,-0.39 0.19,0 0.3,0.53 0.3,-0.43 -0.56,-2.09 -1.01,-1.13 0,-0.43 0.96,0.05 6.61,-4.97 0.67,4.02 3.05,4.23 2.82,3.05 3.99,3.76 2.35,2.82 3.29,1.17 6.1,-0.7 3.76,-1.41 6.57,1.41 2.11,-4.23 2.92,-1.36 z m -336.56,-134.36 1.13,0.21 0.17,0.49 -1.17,0.09 -0.57,-0.52 0.44,-0.27 z m 101.21,-22.41 0.91,0.32 0.17,0.47 -0.17,0.3 -0.04,3.3 -0.3,-0.48 -0.74,0.05 -0.3,-0.19 -0.22,-0.33 0,-0.86 -0.52,-0.57 -0.09,-1.29 0.17,-0.67 1.13,-0.05 z m 210.86,-15.46 1.26,0.62 1.32,2.29 0.17,2.97 0.35,1.38 -0.39,0 -1.48,-0.91 -2.61,0.1 -0.61,-0.19 -0.74,-0.43 -0.74,-0.96 -0.35,-1.63 0.22,-1.43 2.52,-1.68 1.08,-0.13 z m -283.32,-74.099996 0.83,0.99 -0.03,1.15 -1.05,0.86 -0.87,-0.43 -0.04,-1.15 0.52,-0.96 0.64,-0.46 z" 
                fill="rgb(151, 144, 238)" 
                stroke="white" 
                stroke-width=".7px"
                title="Abū Z̧aby" 
                id="AE-AZ" 
            />
        </svg>