<svg xmlns="http://www.w3.org/2000/svg" viewBox="694.6186000000009 72.42751399999993 64.16999999999916 139.13999600000005" width="64.16999999999916" height="139.13999600000005">
            <path 
                d="m 744.8786,210.69751 -0.68,0.87 0,0 -1.61,-3.69 -0.26,-1.34 -1.09,-1.24 0,0 -1.09,-0.52 0,0 1.16,-2.33 0,0 0.48,-2.9 4.18,-0.6 4.08,0.29 2.62,0.58 0,0 0.74,0.56 0,0 0.1,3.49 -0.89,1.14 -1.23,0.65 -4.83,1.28 -0.69,2.12 -0.99,1.64 z m 13.91,-77.69 -0.39,1 -0.17,4.69 -1.04,4.69 -0.91,6.98 -0.13,6.88 -0.39,2.49 0.61,11.81 0,0 -5.14,-0.27 -4.95,0.29 -2.33,2.33 0,3.21 3.21,5.54 0,4.08 -0.39,5.31 0,0 -2.81,-0.94 -5.83,-0.29 0,0 -4.05,-3.99 0.32,-4.11 -1.52,-1.52 -2.62,-3.79 -3.5,-1.46 -2.83,0.41 0,0 0.21,-5.07 0,0 0,-12.24 2.04,-6.7 0.29,-3.21 5.75,-2.98 0,0 0.16,0.55 0.52,0.53 1.61,0.72 5.61,1.1 1.13,0 1.09,-0.34 2.13,-2.1 4.13,-2.53 1.7,-0.77 1.04,-1.48 0,0 0.22,-1.05 0,0 0.17,-2.34 0.61,-1.15 0,0 0.74,-0.86 1.64,-1.25 3.65,-2.3 0,0 0.42,0.13 z m -30.1,-60.579996 2.63,2.19 0.66,1.97 1.1,1.53 1.53,1.31 1.75,0.88 2.13,0.19 3.64,-3.27 0.26,1.44 0.83,1.58 2.13,1.82 0.39,-0.1 0.09,-0.24 -0.22,-0.58 0.35,-0.1 -0.04,0.58 1.22,-0.43 -0.04,-0.38 -0.7,-0.34 0.22,-0.14 1.09,0.82 0.78,0.05 3.52,1.54 0.83,-0.43 0.13,0.48 0.91,0.24 0.57,0.67 1.22,-0.1 0.3,2.01 -0.52,3.88 0.35,2.59 0.87,1.1 -0.17,0.81 0.43,0.1 0.17,0.62 0.74,0.24 0.17,0.77 -0.48,2.64 -0.65,1.819996 -0.13,1.39 -0.39,0.29 -0.09,0.53 0.48,0.67 0.13,0.81 -0.17,3.88 -0.48,3.31 0.3,1.39 0.74,0.24 -0.17,0.81 0,0 -3.63,3.23 0,0 -2.57,3.26 -1.17,0.91 -1.39,0.77 -4.52,1.53 -1.3,0.86 -0.74,1.05 -0.35,1.58 0,0 -0.22,3.21 -0.52,1.2 0,0 -3.91,1.91 -1.91,0.48 0,0 -2.61,0 0,0 -1.52,-0.48 -0.3,-0.57 0.96,-1.63 -0.13,-0.38 -6,-1.68 -2.04,0.19 -2.7,2.44 -1.39,0.57 -0.61,0.96 -0.09,0.53 0.35,0.19 0.91,0.1 2.22,-0.43 0.74,0.05 0.52,0.24 0.83,1.48 1.61,0.43 2.26,-0.24 0.3,0.19 0.09,0.38 -1.13,2.2 -0.48,0.53 -1.61,0.67 -3.39,0.72 -0.31,0.48 0,0.91 1,2.92 -0.22,1.77 -0.39,0.33 -1.3,0.14 -1,2.49 -1.13,0.62 -1.44,0.29 -1.96,-0.43 -1.44,-0.57 -1.3,-1.29 -0.83,-0.1 -1.61,0.38 -1.52,1.39 -0.78,0.05 -1.09,-0.29 -1.04,-0.72 -1.78,-0.72 -4,0.29 -1.61,-0.19 0,0 0.09,-1.53 0.83,-2.77 -0.78,-2.63 -1.52,-2.82 0,0 1.78,-1.67 0.61,-0.29 0.83,0.05 1.57,-1.72 0.09,-0.86 -0.48,-1.96 -0.35,-0.48 -3.13,-1.63 0,0 0.87,-2.87 1.61,-3.45 0,-0.91 0.35,-1.25 0,0 1.13,0.72 0.83,0.96 0.3,1.15 0.83,1.05 1.04,0.53 4.44,0.77 3.35,1.63 1.78,0.24 2.61,-0.96 0.7,-0.72 0.57,-1.68 0.57,-0.81 0.35,-0.14 2.39,1.01 0.83,-0.29 0.56,-1.29 0.3,-1.53 -0.3,-4.55 -0.26,-0.29 -0.78,0.05 -3.52,1.05 -1.04,-0.05 -1.52,-0.77 -0.09,-1.2 -0.87,-1.15 0,-0.86 4.39,-4.26 1.22,-1.73 0.61,-1.58 -0.04,-0.96 -0.87,-0.72 -1.91,-2.83 -1.83,-1.769996 -0.96,-0.09 -0.87,0.379996 -2.17,1.82 -2,0.77 -3.3,-0.43 -4.05,0.62 -1.26,-0.05 -1.39,-0.77 -1.87,-0.14 -0.65,-0.29 -0.87,-5.659996 -1.26,-3.79 0.57,-1.15 -1.35,-4.03 0.17,-2.45 0.78,-1.06 0.78,-0.58 1.09,-0.19 1.3,0.29 1.09,0.72 1.52,-0.1 1.17,-0.67 1.09,-0.14 1.52,-0.72 0.65,-0.86 0.65,-2.4 0.91,-0.91 1.36,-0.8 1.87,-1.82 0.65,-0.1 1.13,1.44 1.04,0.29 1.04,-0.29 0.91,-0.53 0.87,-0.86 1,-0.48 3.65,0.19 2,-0.62 1.49,-1.57 0,0 0.09,0.13 2.04,-0.61 2.21,0 z" 
                fill="rgb(151, 144, 238)" 
                stroke="white" 
                stroke-width=".7px"
                title="Al Fujayrah" 
                id="AE-FU" 
            />
        </svg>