<svg xmlns="http://www.w3.org/2000/svg" viewBox="595.7986000000002 98.03751400000017 164.02999999999975 142.19999599999994" width="164.02999999999975" height="142.19999599999994">
            <path 
                d="m 758.9186,181.46751 -1.13,0.67 0,2.58 -0.17,0 0.17,0.91 -0.17,0.14 -0.23,-1.1 -0.73,-0.33 0.83,-1.91 -0.04,-0.33 1.47,-0.63 z m -17.61,20.99 -1.16,2.33 0,0 -0.52,-0.25 0,0 -5.6,-1.5 -6.41,-0.87 -2.33,-2.91 0,-2.62 3.21,-2.62 0.29,-5.54 -2.33,-4.66 -2.33,-2.91 -0.29,-2.62 0,0 0.08,-1.93 0,0 2.83,-0.41 3.5,1.46 2.62,3.79 1.52,1.52 -0.32,4.11 4.05,3.99 0,0 0.52,0.03 -2.27,2.6 0,0 0.29,3.21 0,0 2.62,0.87 2.62,1.46 -0.59,3.47 z m 15.04,-30.91 0.57,8.06 0.74,1.62 1.17,0.05 -1.35,0.14 -0.78,2.63 -0.3,0.14 0,0.24 0.7,0.19 0.35,0.72 0,1.05 0.57,1 0.74,2.86 -3.3,0.35 -1.67,0.63 -0.77,1.26 -0.31,1.29 -2.07,-1.22 -3.89,-0.52 0,0 0.39,-5.31 0,-4.08 -3.21,-5.54 0,-3.21 2.33,-2.33 4.95,-0.29 5.14,0.27 z m -11.55,-36.11 2.62,1.17 0,2.62 -2.62,1.46 0,0 -2.62,-1.17 0,-2.33 2.62,-1.75 z m 12.29,-21.91 0.39,2.59 -0.3,2.63 -0.83,1.82 -0.3,1.63 -1.17,0.24 -0.3,1.1 0.26,1.44 0.43,0.72 0.78,0.67 0.52,0.24 0.3,-0.38 0.48,-0.1 -0.52,-1.1 0.52,-0.38 0.39,1.1 1.22,0.77 -0.35,1.05 0.22,0.29 0.39,0.05 0.52,0.72 -0.04,0.24 -0.57,-0.14 -0.13,0.86 0.61,0.57 0.22,0.58 -0.61,0.29 -0.39,0.62 -0.78,0.57 0,0.38 0.31,0.29 0,0 -3.65,2.3 -1.64,1.25 -0.74,0.86 0,0 -0.24,-4.77 0,0 -1.17,-3.79 0,0 0.87,-4.37 -0.47,-4.9 2.14,-2.71 0,0 3.63,-3.23 z m -127.72,-11.86 2.83,2.01 1.43,0.77 2.83,0.91 0.35,0.38 0.35,1.87 0.96,0.91 0,0 3.52,1.87 0,0 11.22,3.4 1.39,1.01 1.22,1.29 1.09,2.59 2.48,2.15 4.17,2.44 1.65,1.29 0,0 0.7,1.01 0,0 1.22,6.17 1.09,1.77 0.61,3.3 1.56,1.29 1.83,0.67 4.7,0.29 2.78,-0.81 2,-1.39 3.91,-1.05 0,0 0.83,-0.62 0,0 0.48,-0.91 0.13,-1.39 -0.22,-1.72 -0.43,-1.58 -1.04,-2.15 -0.04,-0.58 0.56,-0.53 3.26,0.33 0,0 0.7,1.39 1.83,2.35 0.87,-1.24 1.65,-3.35 0.09,-4.12 0.39,-1.96 0.52,-0.53 1.91,-0.19 0.83,0.19 0.83,0.81 1.83,0.91 0,0 -0.35,1.25 0,0.91 -1.61,3.45 -0.87,2.87 0,0 -1.91,1.29 -0.78,0.86 -0.74,1.77 0,0.81 0.7,1.87 0.56,0.91 1.26,1.05 0,0 1.52,2.82 0.78,2.63 -0.83,2.77 -0.09,1.53 0,0 0.04,0.91 -0.35,0.86 -4.52,2.05 -0.48,0.91 -0.17,3.49 0.61,0.91 2.48,2.1 1.65,3.01 -0.17,0.38 -0.7,0.19 -0.52,0.81 -0.43,1.48 -3.7,8.02 0.7,4.11 -0.35,2.86 0.48,1.05 1.26,1.19 2,4.06 0.65,1.72 -0.01,2.12 0,0 -2.89,-0.61 -3.56,0.61 -4.86,2.29 -4.75,2.95 -1.18,0.92 -1.86,2.3 -6.84,9.24 -0.47,1.56 -0.26,3.52 1.91,10.73 0.93,2.87 -0.07,2.56 -1.1,4.89 0.85,3.41 0,0 -2.94,1.91 -4.65,1.05 -2.61,0.1 -5.48,-1.14 -2.35,-0.81 -2.74,-1.29 -2.91,-0.62 0,0 0.83,-1.57 0.48,-1.71 0.43,-3.52 0,-3.57 -0.78,-5.43 -0.91,-1.95 -1.52,-7.67 -0.3,-2.67 0.44,-4.24 -1.04,-3 -0.26,-2.34 -0.52,-0.91 -1.91,-1.48 -2.31,-2.67 -0.83,-1.91 -0.39,-1.86 0.09,-1.91 1.57,-3.82 4.09,-3.77 0.78,-1.19 0.3,-1.05 -0.17,-1.1 -1.39,-4.06 -2.35,-11.42 -2.26,-8.51 -0.56,-0.81 -0.61,-0.38 0,0 -3,-0.05 0,0 -1.7,-0.57 -5.74,-4.16 -2.7,-2.49 -0.96,-1.63 -1.35,-1.24 -3.22,-1.72 -3.18,-1.2 0,0 -1.61,-1.82 0,0 -1.83,-4.16 -1.74,1.05 -3.44,1.39 -3.52,1.15 -2.04,0.33 -1.57,0.05 -4.08,-0.94 -1.94,-1.2 0.35,-1.23 0.7,-0.62 0.57,-0.96 0.56,-0.1 3.31,-5.41 0.26,-0.72 -0.48,-0.43 -0.09,-0.96 1.13,0.29 0.17,-0.62 0.79,0.05 0.43,-0.48 0.22,-0.81 -0.31,-0.1 -0.83,0.57 -0.48,0 0.04,-0.19 1.26,-0.86 1,0.43 -0.61,1.25 -1.26,1.05 0.04,0.81 0.52,0.57 -0.61,-0.05 -0.13,0.96 0.17,0.33 0.61,-0.57 -0.04,0.91 -0.65,0.19 -0.04,1 0.26,1.05 0.91,0.67 0.78,-0.1 0.57,-0.43 0.17,-1.29 -0.26,-0.14 -0.39,0.14 -0.3,-0.24 0.04,-0.53 0.48,0.1 0,-0.57 -0.61,-1.63 -0.35,-0.19 -0.26,0.24 -0.17,-0.57 -0.39,-0.19 -0.13,-0.34 0.65,-0.1 0.78,-0.96 0.65,-1.44 0.35,0.33 0.26,-0.14 0.3,-0.67 -0.61,0.29 -0.26,-0.43 0.57,-0.67 1.3,-0.53 2.78,-2.39 4.02,2.85 0,0 2.44,0.77 0,0 2.13,0.86 3,0.43 1.22,0.57 0,0 0.96,0.24 0,0 4.26,-0.1 4.48,0.38 2.13,-0.1 1.48,0.14 1.65,0.53 0.91,-0.1 0.74,-0.81 1.57,-2.82 1.61,-4.41 0.56,-2.2 -0.17,-0.43 -3.44,-1.48 -1.22,-0.29 -7,0.24 -1.48,-0.29 -3.35,-3.02 -0.91,-0.57 -0.78,-0.1 -0.78,0.38 -1.04,0 -0.93,-0.91 -0.83,-2.21 0.22,-0.11 0.26,0.24 0.17,-0.48 -0.48,0 -0.09,-0.43 0.57,0.05 0.78,-0.67 1.3,0.91 0.35,-0.91 0.3,0.29 0.22,0.81 -0.35,1.25 0.3,-0.05 0.35,-1.01 -0.48,-1.39 -0.91,-0.53 -1.04,0.14 -1.09,0.77 -0.3,-0.24 0.13,-0.43 0.26,-0.05 0.43,-1.48 0.96,-1.68 1.7,-2.729996 1.89,0.79 1.57,1.249996 0,0 1.6,1.59 z" 
                fill="rgb(151, 144, 238)" 
                stroke="white" 
                stroke-width=".7px"
                title="Ash ShÄriqah" 
                id="AE-SH" 
            />
        </svg>