<svg xmlns="http://www.w3.org/2000/svg" viewBox="544.5486000000004 132.84750999999997 185.83999999999958 123.31999999999991" width="185.83999999999958" height="123.31999999999991">
            <path 
                d="m 553.6686,182.94751 0.61,0.38 0.52,-0.38 0,-0.33 2.04,-1.62 0.57,-0.91 7.39,-8.4 0.91,-1.34 1.74,-1.53 0.3,-1 1.09,-1.29 0.83,-0.48 4.61,-5.3 3.52,-4.68 6.65,-9.61 0.61,-1.1 0.04,-0.72 -0.39,-0.19 -0.18,-0.48 0.83,0.1 -0.7,-0.67 0.44,-0.57 0.91,0.62 0.22,-1.05 -0.91,-0.86 0.35,-0.1 0.87,0.96 0.3,0 1.09,-1.39 0.09,-0.72 0.35,-0.38 -0.39,0 -0.35,0.48 -0.74,0.24 -0.22,0.33 -0.3,-0.14 0.09,-0.67 1.17,-1.1 0.35,0 0.78,-0.96 0.39,-0.1 0.3,0.67 0,1.29 -0.52,0.62 0.04,0.33 0.61,0.14 0.96,-0.19 0.83,0.38 2.96,2.73 0.78,1.96 2.39,1.77 0.13,0.86 -1.39,1.48 0.09,0.86 -0.3,0.53 -0.87,0.1 -1.65,0.86 -0.22,1.39 0.91,-0.62 0.13,-0.57 0.26,-0.14 0.52,-0.1 -0.09,1 0.26,0.29 1.44,-0.81 0.35,-0.43 0.7,-0.24 0.87,-1.67 -0.3,-2.15 0.48,0.19 0.26,-0.53 -0.35,-0.14 -0.04,0.24 -0.39,-0.05 -0.17,-0.81 -0.57,-0.96 -0.48,-0.43 -0.65,0.14 -0.39,-0.24 -0.87,-1.91 -1.09,-0.72 -2.3,-2.25 -0.61,-0.38 -1.83,0.29 -0.04,-0.33 0.56,-0.67 -0.13,-0.62 1.26,-0.53 4.22,-3.25 0.57,-0.68 1.94,1.2 4.08,0.94 1.57,-0.05 2.04,-0.34 3.52,-1.15 3.44,-1.39 1.74,-1.05 1.83,4.16 0,0 1.61,1.82 0,0 3.17,1.2 3.22,1.72 1.35,1.24 0.96,1.63 2.7,2.49 5.74,4.16 1.7,0.57 0,0 3,0.05 0,0 0.61,0.38 0.57,0.81 2.26,8.51 2.35,11.42 1.39,4.06 0.17,1.1 -0.3,1.05 -0.78,1.19 -4.09,3.77 -1.57,3.82 -0.09,1.91 0.39,1.86 0.83,1.91 2.31,2.67 1.91,1.48 0.52,0.91 0.26,2.34 1.04,3 -0.43,4.24 0.3,2.67 1.52,7.67 0.91,1.95 0.78,5.43 0,3.57 -0.43,3.52 -0.48,1.71 -0.83,1.57 -1.17,1.47 -1.83,1.05 -1.7,0.52 0,0 -3.87,0.33 0,0 -1.91,0.76 -5.3,3.81 -1.35,0.67 -4.22,0.43 -4.04,4.47 -1.91,1.38 0,0 -2.21,1.17 0,0 -3.32,1.23 -4.17,0.79 -6.62,0.32 -10.05,-0.55 -1.38,0.23 0,0 -0.34,0.06 0,0 -4.14,1.48 -10.05,0.14 -11.13,-0.38 -2.83,-6.99 -2.57,-7.85 -2.13,-5.57 -1.39,-4.48 -13.09,-37.56 0,0 -1.03,-3.07 0,0 -0.21,-0.58 1.48,-0.81 1.35,-1.1 1.7,-0.72 0.22,0.57 1.09,-0.81 -0.09,-0.76 -1,-2.48 0.35,-0.52 -0.22,0.62 0.3,0.95 0.65,1.48 0.78,0.72 0.91,2.77 -0.74,1.1 0.61,0.38 0.96,-0.38 0.78,-0.72 0.61,-0.95 1.91,-1.62 -0.04,-0.33 -0.61,0.1 -0.78,1 -1.35,0.67 0.26,0.24 -0.22,0.43 -0.17,0.05 -0.09,-0.33 -0.48,0 -0.26,-0.95 2.83,-2.62 -0.65,-0.43 -1.78,1.62 -0.39,0.62 -0.39,0.1 -0.3,-0.29 -0.35,-1.34 0.13,-0.33 -0.7,-1.67 0.17,-0.76 -0.57,0 -0.09,-0.19 2.48,-0.67 0.82,0.62 z m 176.72,33.56 -0.78,1.51 -0.46,1.99 -0.03,1.89 -0.53,2.19 -0.4,0.65 -3.46,1.03 -0.56,1.48 -0.65,2.9 -0.87,0.67 -3.88,1.24 -3.44,-0.43 -1.37,0.1 -3.35,-0.9 -1.44,-1.25 0,0 4.8,-5.46 2.61,-6.81 0,0 2.91,-0.76 2.87,0.33 3.78,-0.57 4.25,0.2 z" 
                fill="rgb(151, 144, 238)" 
                stroke="white" 
                stroke-width=".7px"
                title="Dubayy" 
                id="AE-DU" 
            />
        </svg>