<svg xmlns="http://www.w3.org/2000/svg" viewBox="730.8886 119.44751000000011 21.440000000000055 29.599999999999937" width="21.440000000000055" height="29.599999999999937">
            <path 
                d="m 752.0886,132.52751 0.24,4.77 -0.61,1.15 -0.17,2.34 0,0 -0.22,1.05 0,0 -1.04,1.48 -1.7,0.77 -4.13,2.53 -2.13,2.1 -1.09,0.33 -1.13,0 -5.61,-1.1 -1.61,-0.72 -0.52,-0.53 -0.39,-1.34 -1.09,-8.32 1.04,-2.44 0,0 0.3,-1.1 0,0 2.61,0 0,0 1.91,-0.48 3.91,-1.91 0,0 0.52,-1.2 0.22,-3.21 0,0 0.35,-1.58 0.74,-1.05 1.3,-0.86 4.52,-1.53 1.39,-0.77 1.61,-1.46 0.47,4.9 -0.87,4.37 0,0 1.18,3.81 z m -4.66,6.7 0,-2.62 -2.62,-1.17 0,0 -2.62,1.75 0,2.33 2.62,1.17 2.62,-1.46 z" 
                fill="rgb(151, 144, 238)" 
                stroke="white" 
                stroke-width=".7px"
                title="Musandam, Oman" 
                id="OM-MU" 
            />
        </svg>