<svg xmlns="http://www.w3.org/2000/svg" viewBox="697.2985999999999 204.94751 19.279999999999973 24.640000000000015" width="19.279999999999973" height="24.640000000000015">
            <path 
                d="m 709.1586,229.58751 -0.61,-0.58 -0.19,-1.45 -0.37,-0.26 0.44,-0.85 -0.22,-0.5 -0.99,-0.74 -1,-1.33 -1.79,-3.65 -0.28,-0.97 0.16,-3.24 -0.34,-0.53 -4.23,-3.54 -0.89,-1.22 -1.34,-2.49 -0.21,-1.06 0.24,-0.76 0.64,-0.7 1.78,-0.71 1.1,-0.06 1.4,0.37 1.82,0.98 0.75,0.98 3.36,2.35 1.49,1.92 3.48,2.76 2.43,2.77 0.79,0.23 0,0 -2.61,6.82 z" 
                fill="rgb(151, 144, 238)" 
                stroke="white" 
                stroke-width=".7px"
                title="Neutral Zone" 
                id="AE-NZ1" 
            />
        </svg>