<svg xmlns="http://www.w3.org/2000/svg" viewBox="660.4885999999992 0.25751370000009755 83.70000000000107 217.04999629999992" width="83.70000000000107" height="217.04999629999992">
            <path 
                d="m 697.8686,147.71751 1.61,0.19 4,-0.29 1.78,0.72 1.04,0.72 1.09,0.29 0.78,-0.05 1.52,-1.39 1.61,-0.38 0.83,0.1 1.3,1.29 1.44,0.57 1.96,0.43 1.44,-0.29 1.13,-0.62 1,-2.49 1.3,-0.14 0.39,-0.33 0.22,-1.77 -1,-2.92 0,-0.91 0.31,-0.48 3.39,-0.72 1.61,-0.67 0.48,-0.53 1.13,-2.2 -0.09,-0.38 -0.3,-0.19 -2.26,0.24 -1.61,-0.43 -0.83,-1.48 -0.52,-0.24 -0.74,-0.05 -2.22,0.43 -0.91,-0.1 -0.35,-0.19 0.09,-0.53 0.61,-0.96 1.39,-0.57 2.7,-2.44 2.04,-0.19 6,1.68 0.13,0.38 -0.96,1.63 0.3,0.57 1.52,0.48 0,0 -0.3,1.1 0,0 -1.04,2.44 1.32,9.11 0,0 -5.75,2.98 -0.29,3.21 -2.04,6.7 0,12.24 0,0 -0.29,6.99 0,0 0.29,2.62 2.33,2.91 2.33,4.66 -0.29,5.54 -3.21,2.62 0,2.62 2.33,2.91 6.41,0.87 5.6,1.5 0,0 1.61,0.76 0,0 1.09,1.24 0.26,1.34 1.61,3.69 0,0 -0.89,0.94 -2.76,0.87 -2.04,0.96 -2.61,0.59 -2.73,-0.23 -0.97,0.28 -1.8,1.52 -4.25,-0.19 -3.78,0.57 -2.87,-0.33 -1.09,0.19 -0.96,0.48 -0.87,0.1 -0.78,-0.24 -2.44,-2.76 -3.48,-2.76 -1.49,-1.92 0.28,-0.43 -1.08,-2 -0.74,-2.37 -0.2,-4.99 -0.68,-3.55 -1.66,-3.63 -1.58,-0.99 -3.39,-1.53 -2.98,-0.18 0,0 0.01,-2.12 -0.65,-1.72 -2,-4.06 -1.26,-1.19 -0.48,-1.05 0.35,-2.86 -0.7,-4.11 3.7,-8.02 0.43,-1.48 0.52,-0.81 0.7,-0.19 0.17,-0.38 -1.65,-3.01 -2.48,-2.1 -0.61,-0.91 0.17,-3.49 0.48,-0.91 4.52,-2.05 0.35,-0.86 -0.05,-0.92 z m 8.81,-122.319996 -0.91,2.12 0.22,0.77 -0.74,2.07 -1.26,2.21 -0.31,-0.24 -0.17,-0.58 1.87,-3.99 0.04,-0.77 0.57,-1.3 0.69,-0.29 z m 1.35,-5 0.57,0.39 0.3,0.82 -0.22,0.19 -0.35,-0.1 -0.17,0.58 -0.3,0.19 -0.22,-0.77 -0.96,3.42 -0.52,0.24 0.7,-1.54 0.65,-2.93 0.22,-0.53 0.3,0.04 z m 16.8,-19.4800003 1.66,2.16 0.85,3.93 -0.67,3.7500003 0.05,3.62 0.68,3.09 -1.74,12.62 -1.04,2.44 0.3,1.86 -2.21,7.18 -0.36,2.78 0.04,3.14 2.43,6.23 -1.19,3.11 -0.49,4.69 0.24,9.08 0.38,1.42 0.62,0.9 0,0 -1.49,1.57 -2,0.62 -3.65,-0.19 -1,0.48 -0.87,0.86 -0.91,0.53 -1.04,0.29 -1.04,-0.29 -1.13,-1.44 -0.65,0.1 -1.9,1.81 -1.44,0.82 -0.91,0.91 -0.65,2.4 -0.65,0.86 -1.52,0.72 -1.09,0.14 -1.17,0.67 -1.52,0.1 -1.09,-0.72 -1.3,-0.29 -1.09,0.19 -0.78,0.58 -0.78,1.06 -0.17,2.45 1.35,4.03 -0.57,1.15 1.26,3.79 0.87,5.659996 0.65,0.29 1.87,0.14 1.39,0.77 1.26,0.05 4.05,-0.62 3.3,0.43 2,-0.77 2.17,-1.82 0.87,-0.379996 0.96,0.09 1.83,1.769996 1.91,2.83 0.87,0.72 0.04,0.96 -0.61,1.58 -1.22,1.73 -4.39,4.26 0,0.86 0.87,1.15 0.09,1.2 1.52,0.77 1.04,0.05 3.52,-1.05 0.78,-0.05 0.26,0.29 0.3,4.55 -0.3,1.53 -0.56,1.29 -0.83,0.29 -2.39,-1.01 -0.35,0.14 -0.57,0.81 -0.57,1.68 -0.7,0.72 -2.61,0.96 -1.78,-0.24 -3.35,-1.63 -4.44,-0.77 -1.04,-0.53 -0.83,-1.05 -0.3,-1.15 -0.83,-0.96 -1.13,-0.72 0,0 -1.83,-0.91 -0.83,-0.81 -0.83,-0.19 -1.91,0.19 -0.52,0.53 -0.39,1.96 -0.09,4.12 -1.65,3.35 -0.87,1.24 -1.83,-2.35 -0.7,-1.39 0,0 -1.17,-2.11 -1.61,-1.91 -3.35,-2.68 -2.57,-1.05 -0.52,-0.72 0.91,-1.1 1.39,-0.96 1.7,-2.01 -0.17,-1.39 0,0 -6.96,-6.28 -1.48,-1.72 -0.87,-2.25 0,0 -0.04,-2.919996 0.48,-4.79 -0.26,-2.59 -0.87,-2.64 0,0 -2.35,-3.88 0,0 -0.87,-1.82 -0.7,-5.13 -0.35,-1.2 -0.7,-0.86 -1.35,-0.19 -2.65,0.43 -1.29,-0.32 -2.61,-3.59 3.17,-3.98 0.74,-1.49 0.35,-0.14 1.35,0.67 0.61,0 -0.09,-0.48 -0.57,-0.05 0.13,-0.91 1.17,0.24 0.48,-0.14 0.09,-0.66 -1.35,-0.25 -0.52,-0.48 -0.39,0.53 0.09,0.67 -0.52,0.14 -0.35,0.58 -0.3,-0.05 0.91,-1.97 0.35,-0.19 0.35,0.14 0.87,-1.06 1.17,-1.97 0.04,-0.43 0.39,-0.05 0.22,0.62 -0.65,0.82 -0.09,0.48 0.78,0.38 -0.22,-0.77 1.09,0.24 1.74,-0.19 2.26,0.23 1.48,-0.43 0.26,-0.34 1.83,-0.05 2.39,-1.39 4.13,-3.46 1.65,-1.82 1.13,-1.83 3.18,-3.27 2.04,-3.27 -0.13,-0.67 0.22,-0.38 0.17,0 0.35,1.49 -0.22,0.67 0.3,1.54 -0.74,0.43 -0.61,1.01 -0.65,0.53 -0.35,0.77 0.04,0.43 0.74,0.14 -0.13,-0.72 0.17,-0.19 0.65,0.62 0.13,-0.38 -0.3,-0.19 0.13,-0.29 0.44,-0.05 0.39,-0.48 0.61,-0.19 0.61,0.53 0.87,-0.19 -0.22,-1.1 -1.39,-0.38 -0.17,-0.48 0.22,-0.24 1.65,0.48 0.22,-0.82 -2.22,-0.19 -0.13,-0.24 0.39,-1.1 -0.35,-1.11 0.52,-0.05 1.22,-1.59 1.13,-0.86 3.87,-5.53 1.04,-2.31 0.39,-0.34 0.17,0.19 -0.17,0.63 -0.44,0.38 -0.26,0.91 -2.09,2.55 -0.56,1.64 -1.35,1.68 -0.09,0.48 -1,0.24 -0.06,0.37 0.52,0.05 1.52,-0.58 0.13,-0.43 -0.17,-0.38 1,-0.62 0.48,-0.67 0.35,-1.25 1.91,-3.7 0.35,-0.14 0.04,0.29 0.57,-0.1 0.13,-0.29 -0.39,-0.53 0.17,-0.24 0.43,0.34 0.22,-1.01 -0.22,-0.29 -0.3,0 0,-0.29 0.7,-1.63 1,-0.05 0.43,0.43 1.09,0.19 0.96,-0.58 0.48,0.1 0.44,0.48 0.48,-0.48 0.09,-0.86 -0.61,0.19 -0.09,-0.43 0.52,-0.14 0.48,-0.63 0,-0.34 0.57,-0.34 0.04,-0.14 -0.65,0.1 -0.26,-0.29 0,-0.48 0.17,-0.05 0.13,0.53 0.78,-0.24 -0.13,-0.43 -0.53,-0.07 0.7,-0.19 0.13,-0.63 -0.57,-1.3 0.09,-0.96 -0.22,-0.14 0.17,-0.24 0.3,0.14 0.22,-0.29 -0.43,-0.67 0.39,-0.43 0.13,-0.82 0.39,0.05 0.3,-0.24 0.17,-0.77 -0.13,-0.77 0.48,-0.14 0,-0.24 -0.48,-0.05 -0.26,-0.29 -0.04,-0.34 0.22,-0.14 -0.26,-0.72 -0.96,-1.01 0.13,-1.2 -0.96,-0.34 -0.04,-1.54 0.22,-0.05 0.17,0.48 -0.22,0.67 0.26,0.29 0.91,0 0.17,-0.48 0.7,-0.67 0.31,0.1 0.78,-1.44 0.65,-0.14 0.3,-1.73 0.35,-0.39 0.39,-1.16 -0.04,-0.82 0.48,-1.64 0,-0.8300003 0.52,-1.3 0,-0.91 -0.35,-0.43 0.09,-0.24 0.22,0.43 0.26,0 0,-1.06 0.26,-0.82 -0.09,-0.39 -0.35,-0.24 0.17,-0.29 0.26,0.14 0.09,-0.14 0.3,-0.77 0,-0.91 1,-1.2 2.6,0.41 3.13,-1.2 4.1,0.66 z" 
                fill="rgb(151, 144, 238)" 
                stroke="white" 
                stroke-width=".7px"
                title="Ra’s al Khaymah" 
                id="AE-RK" 
            />
        </svg>