<svg xmlns="http://www.w3.org/2000/svg" viewBox="544.9186 31.407513999999995 143.87000000000023 107.609996" width="143.87000000000023" height="107.609996">
            <path 
                d="m 642.8286,91.047514 -0.65,-0.24 -0.22,-0.77 0.22,-0.53 0.96,0.14 -0.35,-1.25 1.57,-1.63 0.3,-1.25 0.35,-0.29 1.22,-0.29 1.26,-0.91 2.26,-3.21 0.39,-1.1 1.13,-0.29 -0.09,0.34 -0.43,0.05 -0.57,0.53 0.87,-0.34 0.44,0.38 0.61,-0.05 0.35,-1.58 0.52,0.24 0.43,-0.24 -0.04,-0.53 -0.35,0.1 0.09,0.48 -0.65,-0.34 0.22,-0.53 3.26,-1.44 1.17,-0.24 1.87,-1.53 1.52,-1.73 2.65,3.54 1.29,0.32 2.65,-0.43 1.35,0.19 0.7,0.86 0.35,1.2 0.7,5.13 0.87,1.82 0,0 2.35,3.88 0,0 0.87,2.64 0.26,2.59 -0.48,4.79 0.04,2.919996 0,0 0.87,2.25 1.48,1.72 6.96,6.28 0,0 0.17,1.39 -1.7,2.01 -1.39,0.96 -0.91,1.1 0.52,0.72 2.57,1.05 3.35,2.68 1.61,1.91 1.17,2.11 -3.26,-0.33 -0.57,0.53 0.04,0.57 1.04,2.15 0.44,1.58 0.22,1.72 -0.13,1.39 -0.48,0.91 0,0 -0.83,0.62 0,0 -3.91,1.05 -2,1.39 -2.78,0.81 -4.7,-0.29 -1.83,-0.67 -1.56,-1.29 -0.61,-3.3 -1.09,-1.77 -1.22,-6.17 0,0 -0.7,-1.01 0,0 -1.65,-1.29 -4.18,-2.44 -2.48,-2.15 -1.09,-2.59 -1.22,-1.29 -1.39,-1.01 -11.22,-3.4 0,0 -3.52,-1.87 0,0 -0.96,-0.91 -0.35,-1.87 -0.35,-0.38 -2.83,-0.91 -1.43,-0.77 -2.83,-2.01 0,0 -1.61,-1.53 0,0 -1.57,-1.249996 -1.88,-0.75 6,-11.99 1.78,-1.82 0.52,0.19 0.17,-0.38 -0.26,-0.24 1.13,-0.91 0.13,-1.44 0.43,-0.1 0.13,0.38 0.35,3.45 -0.61,1.15 -1.57,0 -0.22,-0.58 -0.22,0 -0.19,0.45 0,0.42 0.44,0.68 -0.09,1.49 -0.44,1.82 -0.61,1.15 -0.09,1.01 0.17,1.25 0.48,0.14 0.22,2.01 0.43,-1.29 0.52,-0.19 1.3,0.67 1,-0.14 0.91,-0.58 0.3,-0.72 2.52,0.38 0.39,-0.34 0.61,0.05 0.91,-1.01 0.48,0 0.65,0.62 0.91,0.19 2.61,-1.73 -0.61,-0.38 -0.78,0.58 -1.09,0.1 -0.57,-0.48 0.04,-0.67 0.61,0.1 -0.26,-0.34 z m -92.42,-52.91 -1.09,0.24 -0.57,0.87 -0.26,-0.24 0,-0.48 -0.91,-0.48 -0.22,-0.53 -0.65,0 -0.22,0.43 -0.48,-0.1 0.17,-1.92 -0.91,-0.38 0.13,0.96 -0.26,0.05 -0.22,-0.24 0,-1.06 0.57,-1.11 0.74,0.19 1.13,-1.35 0.09,-0.38 1.04,-0.19 0.17,-0.67 0.7,-0.34 0.48,0 0.48,0.53 0.52,0 -0.04,1.2 0.39,0.05 0.26,0.53 -0.17,0.77 0.78,2.07 0.04,0.77 0.43,0.43 -0.43,0.91 -1.69,-0.53 z m 92.94,46.82 -0.39,-0.1 -0.52,-0.62 -0.22,-0.77 -0.35,-0.38 -1.3,0.19 0,-0.43 0.57,-0.29 -0.74,-0.58 -0.22,0.43 -0.7,0.1 -1,0.58 -0.61,1.25 -0.83,0.67 -1,0 -0.09,0.48 -0.26,0.05 -0.48,-0.38 1.26,-1.15 1.26,-1.87 1.17,-0.38 1.39,-1.01 2.3,-0.72 0.74,-0.43 0.61,0 -0.17,-0.62 1.17,-0.14 0.17,0.48 0.43,0 0.83,-0.67 2.78,-0.91 2.43,-2.3 2.17,-1.68 1.65,-0.58 0.09,0.38 -1,0.14 0.22,0.24 -0.17,0.38 -0.79,-0.06 -0.96,0.58 -1.65,1.58 -0.61,0.91 -0.61,0.29 -1.7,1.73 -2.22,0.19 0.44,1.01 0.96,-0.19 0.3,0.19 0,0.29 -0.52,-0.24 -0.65,0.29 -0.78,-0.05 -0.09,-0.86 -0.26,-0.1 0,0.82 -0.22,0.14 -0.74,-0.53 -0.35,0 -0.09,0.53 1,0.86 0.09,0.48 -0.65,1.01 -0.7,0.43 -0.91,-1.1 -0.52,0 -0.04,0.34 1.17,1.68 0.09,0.34 -0.18,0.08 z m -9.71,8.3 -0.25,-0.81 0.17,-1.34 -0.52,-1.01 0.22,-0.33 0,-1.41 0.3,-0.43 0.09,-1.15 0.39,-0.14 0.74,1.29 0.04,0.86 -0.43,0.19 0,0.34 0.43,0.05 0.3,0.77 0.91,0.77 -0.04,1.49 0.17,0.34 -0.78,0.58 -0.35,0.67 0.04,0.58 -0.7,0 -0.44,-0.43 0.09,-0.67 -0.38,-0.21 z m 5.58,-7.59 0.57,-0.85 -0.96,-0.05 0.09,-0.43 0.91,0.29 0.52,-0.24 0.83,-0.96 0.44,0.05 0.43,0.48 0.04,0.96 0.52,0.1 0.22,0.53 -1.74,1.53 -0.35,0.91 -0.78,0.48 -1.22,-0.29 -0.7,-0.53 0.09,-0.53 0.57,-0.43 0.52,-1.02 z m 1.74,3.85 0.17,0.14 -1.83,2.01 -1.17,-0.29 -0.7,-0.91 -0.09,-0.72 0.87,-0.14 1.44,0.34 1.31,-0.43 z m -3.96,1.87 0.39,0.43 2.22,0.48 -1.7,0.91 -0.57,0 -0.39,-0.14 -0.13,-0.67 -0.09,-1.15 0.27,0.14 z" 
                fill="rgb(151, 144, 238)" 
                stroke="white" 
                stroke-width=".7px"
                title="Umm al Qaywayn" 
                id="AE-UQ" 
            />
        </svg>