<svg xmlns="http://www.w3.org/2000/svg" viewBox="328.5002099999999 303.79050999999976 90.12000000000012 83.89000000000004" width="90.12000000000012" height="83.89000000000004">
            <path 
                d="m 374.27021,304.03051 1.36,6.34 2.24,5.51 6.27,11.18 7.01,7.71 8.24,6.15 0.87,2.33 3.67,3.53 0.33,1.35 5.56,3.7 5.16,1.83 0.21,4.85 3.43,2.43 0,0 -1.17,1.85 0.91,0.84 -2.84,1.96 -2.3,2.84 -0.82,3.1 -2.36,1.66 -1.72,3.73 -4.76,5.13 -2.04,-0.37 0.79,-0.64 -1.07,-4.29 -1.1,-1.07 -2.44,-1.62 -1.05,1.32 -0.57,-0.22 -0.98,-2.19 -1.24,0.13 -0.94,-1.26 -2.91,2.38 -1.43,2.22 -2.22,0.15 -0.42,0.9 1.25,3.55 1.52,0.89 -0.42,1.03 -0.85,-0.13 -0.25,-1.01 -0.67,1.24 -1.99,0.05 -0.63,2.64 -0.79,-2.07 -1.16,0.09 -0.87,2.4 -1.33,0.05 -0.28,1.46 -1.87,-0.98 -2.1,0.52 0,0 -2.49,-3.27 -1.96,0.19 -2.4,-1.41 -1.03,0.65 -1.33,-0.4 -1.75,-3.31 -1.32,0.73 -1.07,-1.18 -1.78,-0.49 -1.06,2.09 -4.05,1.35 -1.48,-0.93 -0.73,-1.81 -1.84,-0.43 -1.48,-1.43 -1.73,-0.7 -1.4,1.36 -1,-3.63 1.28,-2.29 -1,-1.41 -1.01,0.18 -1.98,-2.28 -0.9,0.37 -7.65,-4.49 -2.03,-0.72 -0.02,1.24 -2.38,-0.64 -1.41,-2.25 0.15,-4.92 0.78,0.36 2.08,-1.78 0.05,-2.39 1.73,-0.13 6.56,3.53 1.24,-0.77 1.69,0.62 1.07,-2.23 1.5,-0.29 -0.53,-0.71 1.83,-0.33 -1.93,-1.22 -0.3,-1.63 -2.43,-0.84 -2.58,-2.54 -0.65,-3.28 -3.74,-2.48 2.08,-2.33 -3.99,-3.74 3.18,-2.42 -0.1,-2.38 -1,-1.86 1.03,-0.58 0.76,-2.76 2.75,1.04 0.61,-0.73 1.35,0 0.58,0.98 1.5,-0.77 2.26,0.31 1.35,-1.17 0.76,-3.43 -1.99,-0.63 -1.15,-1.37 0.54,-1.68 0,0 0,0 0,0 0,0 0,0 1.66,0.48 1.88,-1.33 0.57,0.46 0.6,-2.37 2.37,-0.39 0.3,-2.49 1.34,-1.49 0.24,-1.44 2.08,1.13 2.37,-1.11 0.67,0.94 1.35,-0.17 2.01,-0.94 0.46,-2.21 0.68,-0.38 2.78,-0.18 2.11,-1.41 4.99,-1.07 0,0 z" 
                fill="rgb(151, 144, 238)" 
                stroke="white" 
                stroke-width=".7px"
                title="Abruzzo" 
                id="IT_65" 
            />
        </svg>