<svg xmlns="http://www.w3.org/2000/svg" viewBox="446.75020999999975 424.62050999999997 78.2000000000001 83.20000000000016" width="78.2000000000001" height="83.20000000000016">
            <path 
                d="m 457.43021,430.14051 -0.33,-1.23 1.34,-1.23 1.95,-0.38 4.65,0.78 2.51,-0.9 1.45,1.05 1.69,-0.91 -0.16,-0.95 1.67,-0.43 -0.18,-0.76 0.82,0.29 1.42,-0.85 2.3,1.65 1.74,0.3 0.24,1.03 1.26,0.3 0.61,2.35 0.62,-0.42 1.84,1.5 -0.64,1.04 0.3,1.55 -1.79,2.05 -1.51,-0.27 0.61,1.13 5.59,2.38 1.59,1.51 2.14,-1.96 2,0.65 2.94,6.46 6.56,6.05 0.78,1.74 1.53,0.42 3.48,-4.04 2.04,2.47 -0.06,-1.89 0.97,-0.26 0.85,1.33 0.11,-1.74 1.69,0.73 1.01,-0.64 0.17,0.99 1.17,0.7 0.54,-0.74 2.92,2.22 -1.03,0.51 1.22,1.41 -0.9,3.62 0.92,2.05 -0.63,0.46 -0.43,2.89 0.96,1.01 -0.44,0.81 1.16,0.88 -0.96,2.08 0.86,0.94 1.7,-0.43 1.77,1.07 0.37,1.62 1.74,1.47 0.78,1.86 0,0 -3.94,5.64 -4.81,10.36 -2.29,1.67 0,0 -2.72,-0.95 -3.12,0.97 -3.08,-1.02 -1.91,0.37 -0.66,-1.11 -0.63,1.47 0.22,2.84 -1.03,2.22 0.26,2 -3.05,5.44 1.11,1.14 -0.44,1.32 -2.14,-2.39 -2,-0.18 -2.93,0.66 -0.02,1.75 -2.78,-1.27 -1.04,1.08 -4.8,0.26 -1.55,-1.74 0.37,-0.62 -0.85,-1.6 1.24,-2.23 -1.16,-0.32 -1.49,0.85 -0.69,-0.96 -1.85,-0.3 -1.43,1.23 -0.62,-0.87 -0.93,0.49 -0.9,-0.94 -1.68,0.18 -2.35,2.53 -0.95,2.6 0,0 -1.79,-3.55 -2.1,-1.92 -0.14,-1.48 -1.68,-0.98 0,0 1.69,-1.01 -1.27,-1.38 1.21,-0.34 1.56,-2.12 -0.32,-2.91 1.62,-1.65 -0.14,-1 3.47,-1.48 -0.52,-1.23 0.93,-0.83 -0.04,-1.42 -0.61,-1.15 -2.93,-0.85 -0.14,-1.32 -1.64,-1.51 -0.05,-2.56 -2.1,-0.76 -1.6,-2.14 -2.06,-1.03 -0.48,-1.73 -2.17,-1.71 0.72,-1.08 -1.35,-3.21 0.7,-0.82 -4.35,-2.63 0.73,-2.02 1.65,-1.01 0.06,-0.81 -5.93,-3.85 0.17,-4.85 -0.82,-0.07 0.22,-1.18 -2.06,-1.27 2.1,-0.15 0.12,-2.14 -1.02,-0.52 0.43,-0.66 4.79,1.08 0.64,-0.35 -0.23,-1.16 2.96,-1.29 2.26,-5.87 z" 
                fill="rgb(151, 144, 238)" 
                stroke="white" 
                stroke-width=".7px"
                title="Basilicata" 
                id="IT-77" 
            />
        </svg>