<svg xmlns="http://www.w3.org/2000/svg" viewBox="462.0302100000001 491.38051000000013 80.76999999999998 146.56999999999988" width="80.76999999999998" height="146.56999999999988">
            <path 
                d="m 468.31021,506.03051 0.95,-2.6 2.35,-2.52 1.68,-0.18 0.9,0.93 0.93,-0.49 0.62,0.87 1.43,-1.23 1.86,0.3 0.69,0.96 1.49,-0.85 1.16,0.31 -1.24,2.23 0.85,1.6 -0.37,0.62 1.55,1.74 4.8,-0.26 1.04,-1.08 2.78,1.26 0.02,-1.75 2.93,-0.65 2,0.18 2.14,2.38 0.44,-1.32 -1.1,-1.14 3.05,-5.44 -0.27,-2.01 1.03,-2.21 -0.21,-2.84 0.63,-1.46 0.66,1.1 1.91,-0.37 3.09,1.02 3.12,-0.97 2.72,0.95 0,0 -1.91,2.44 -0.34,2.63 1.36,5.79 -4.6,5.83 -2.5,4.63 0.04,2.92 2.01,2.32 -0.55,3.46 5.08,3.01 8.04,0.12 4.72,5.33 4.69,2.87 3.47,0.89 0.78,2.06 2.14,2.06 3.92,1.35 -2.36,5.88 -0.25,3.69 2.17,3.18 -1.96,6.55 1.44,1.88 -0.31,0.95 0.72,1.14 3.06,1.45 -2.16,1.96 0.25,2.8 -3.82,4 -0.27,-1.1 -1.41,-0.51 -2.11,0.76 -2.14,-2.17 -4.69,0.74 -5.72,2.13 -8.75,5.42 -3.65,6.55 1.15,2.04 1.31,13.66 -0.46,2.82 -5.65,5.88 -7.24,3.06 -8,10.12 -1.01,6.78 -2.54,4.83 -1.69,2.1 -3.34,0.54 -4.03,-0.94 -8.19,0.77 -4.24,-2.41 -2.17,-4.07 1.07,-1.52 -1.27,-3.39 1.26,-2.9 -1.12,-3.36 0.05,-2.72 4.1,-1.68 1.89,-0.06 2.58,-1.46 1.25,-2.17 0.46,-3.18 1.15,-1.04 0.8,-2.74 1.47,-1.34 0.73,-1.94 0.75,-4.87 -5.32,-4.76 0.48,-1.82 1.81,-1.72 4.22,-1.4 1.74,-1.83 2.46,-0.3 3.42,1.02 1.73,-0.5 2.42,-1.9 1.98,-6.48 -0.29,-5.12 -3.09,-1.5 -3.02,-5.58 -1.62,-7.27 -0.78,-10.46 -2.75,-9.07 -3.65,-5.7 -2.64,-1.89 -2.12,-7.35 -0.91,-0.75 -1.4,-8.79 -0.96,-1.69 1.15,-1.94 -1.95,-4.1 z" 
                fill="rgb(151, 144, 238)" 
                stroke="white" 
                stroke-width=".7px"
                title="Calabria" 
                id="IT-78" 
            />
        </svg>