<svg xmlns="http://www.w3.org/2000/svg" viewBox="366.27021000000013 399.4305099999999 104.58999999999997 102.13000000000005" width="104.58999999999997" height="102.13000000000005">
            <path 
                d="m 389.94021,463.57051 2.01,0.24 -0.69,0.92 -2.93,0.41 0.13,-1.63 1.48,0.06 z m -18.31,-13.47 4.41,1.2 0.53,0.77 -0.69,2.07 -2.82,0.03 -0.31,0.6 -1.98,-1.04 -0.04,-1.87 0.9,-1.76 z m 5.6,-47.67 1.52,0.77 -0.28,1.52 2.06,2.45 2.15,-0.48 1.3,0.86 -0.27,-2.42 -1.37,-1.67 2.2,-4.03 2.29,1.91 0.39,-1.38 3.45,0.06 0.21,0.85 1.77,0.01 0.27,1.02 2.03,1.09 8.01,2.34 0.38,1.59 1.19,0.91 3.34,-0.52 1.22,1.76 2.19,-1.95 1.05,-0.06 -0.04,-0.94 1.97,-0.24 0.94,0.74 1.88,-0.58 1.72,-2.89 4.01,1.7 1.57,-1.59 2.65,-0.22 2.98,-2.1 0,0 1.81,2.84 2.86,0.8 0.19,0.8 -0.82,0.78 0.54,1.2 -1.06,0.18 -0.84,1.17 0.62,2.62 2.97,1.06 0.21,2.17 3.42,-0.14 1.04,1.48 1.62,-0.32 1.26,1.43 -1.61,1.02 0.85,2.38 -2.02,1.2 -0.81,1.99 1.57,0.77 0.73,1.89 2.01,1.44 1.1,-0.9 2.83,1.19 1.7,-1.29 2.1,1.8 1.57,-0.14 3.6,1.8 0,0 1.37,3.97 -2.26,5.87 -2.96,1.29 0.23,1.16 -0.64,0.35 -4.79,-1.09 -0.44,0.67 1.02,0.51 -0.12,2.15 -2.1,0.15 2.06,1.27 -0.22,1.17 0.83,0.07 -0.17,4.85 5.93,3.85 -0.06,0.81 -1.66,1 -0.73,2.02 4.35,2.63 -0.69,0.82 1.35,3.21 -0.72,1.08 2.16,1.71 0.49,1.73 2.06,1.03 1.6,2.14 2.1,0.76 0.05,2.56 1.65,1.51 0.14,1.32 2.93,0.85 0.61,1.15 0.04,1.43 -0.93,0.83 0.52,1.23 -3.47,1.47 0.14,1 -1.61,1.65 0.32,2.91 -1.56,2.12 -1.2,0.34 1.27,1.37 -1.7,1.01 0,0 -0.86,-1.96 -2.78,-0.38 -3.58,0.94 -4.24,4.87 -3.39,-0.57 -2.03,-1.98 -2.21,0.55 -0.19,-0.63 0.86,-0.65 -0.69,-2.23 -3.31,-3.18 -1.48,-0.22 -2.51,-3.03 -4.68,0.06 -2.65,-3.3 -3.68,-1.14 -0.62,-1.06 1.98,-1.5 0.1,-4.01 2.61,-1.5 0.01,-2.94 -6.05,-12.56 -5.33,-5.6 -2.73,0.42 -1.36,2.13 -3.34,-0.97 -2.71,2.4 -2.35,0.41 -2.43,-1.33 -8.06,3.87 0.78,-4.1 3.16,-0.63 0.43,-1.47 3.58,-2.46 -1.08,-3.17 -3.1,-0.98 -3.54,-3.89 -2.76,-1.84 -2.65,1.11 -1.84,2.38 -1.47,-0.22 0.78,-0.38 -0.71,-1.02 -3.35,-0.96 -1.1,0.78 0.85,2.69 -2.25,-0.76 -0.01,-4.52 -1.12,-3.93 -2.65,-4.23 -0.06,-0.15 -2.41,-2.6 -1.4,-4.83 -3.56,-5.82 -3.19,-3.21 0,0 0.55,-1.32 3,-0.58 0.5,-0.77 -0.65,-0.24 0.1,-1.03 3.11,-1.11 -1.03,-4.47 0.82,-1.5 -1.32,-2.22 2.15,-0.37 3.05,-2.77 0.68,0.02 z" 
                fill="rgb(151, 144, 238)" 
                stroke="white" 
                stroke-width=".7px"
                title="Campania" 
                id="IT-72" 
            />
        </svg>