<svg xmlns="http://www.w3.org/2000/svg" viewBox="98.51021000000006 295.65051 52.24999999999994 113.5200000000001" width="52.24999999999994" height="113.5200000000001">
            <path 
                d="m 143.73021,295.65051 2.08,1.75 -0.62,1.66 0.92,1.83 1.22,9.13 -1.4,3.35 -0.98,5.98 3.78,6.52 0.74,2.76 0.46,7.67 -0.59,3.89 1.42,6.09 -0.27,10.95 -0.27,1.38 -7.04,10.31 0.09,2.61 -0.85,2.57 0.47,3.94 -0.62,1.45 0.72,2.21 -0.09,3.63 -0.28,1.35 -1.45,1.01 0.84,1.5 -0.94,1.38 -0.8,1.37 -2.39,-0.8 0,0.81 -1.38,0.76 0.34,2.1 1.57,-2.06 2.55,0.92 -1.25,2.21 -3.57,1.95 0.56,0.9 -0.81,1.21 0.99,0.36 -0.18,1.11 -0.93,0.51 0.61,0.42 -2.84,1.48 0.21,1.72 -0.55,0.55 0.31,0.36 2.21,-1.65 -0.3,0.99 -1.98,3.22 -2.11,0.16 -1.17,-1.91 -3.26,-0.12 1.3,-3.3 -2.51,-0.11 -1.56,-0.84 -0.74,-0.31 -2.14,-0.86 -1.16,-1.27 -2.08,0.23 -1.51,-1.85 -0.75,-0.55 -1.71,0.44 0.56,-1.99 -1.64,0.2 -1.77,-0.81 -0.25,-0.72 -0.41,-1.75 0.8,-0.32 0.04,-2.19 0.73,-0.88 0.75,0.83 1.65,-1.28 1.07,0.1 0.48,-1.65 1.71,-0.68 -0.11,-0.7 -3.64,-0.4 -1.55,-1.17 -1.56,0.99 -0.35,-2.83 -3.48,1.34 -0.12,-1.2 -2.35,-0.08 0.09,-0.66 1.23,0.23 2.36,-2.03 0.27,-1.4 0.68,-1.02 1.16,0.01 0.61,-1.43 0.24,-1.23 -0.51,-2.22 1.26,-0.86 -1.06,-1.88 -0.94,0.17 -1.04,0.14 -1.27,0.7 -3.96,-0.15 -1.75,1.13 0.79,-2.83 -1.56,-2.07 2.86,-0.24 1.06,-0.98 -0.74,-1.13 0.29,-0.9 4.47,-2.56 -0.49,-1.09 -0.95,0.14 -0.98,-3.37 -2.09,0.81 -0.66,-1.44 -1.76,-0.92 -1.61,0.46 0.66,-1.06 -0.44,-0.56 -1.41,0.41 0.16,-1.78 1.23,-0.52 -0.2,-1.84 -0.76,0.05 -0.75,-1.52 -0.58,-0.72 7.94,-2.02 -1.77,-2.46 -1.04,0.22 -0.74,-0.91 -1.09,0.47 -0.34,-0.93 1.55,-0.9 -0.6,-1.17 -1.26,-0.27 -1.7,1.45 -0.04,-1.94 -0.75,-0.54 0.22,-0.79 1.12,0.71 0.38,-0.97 1.67,-0.23 -0.17,-2.07 2.55,0.07 0.67,-2.04 0.6,-1.67 -1.6,-0.67 0.92,-2.57 2.25,-1.4 0.63,-1.44 -0.23,-0.94 -0.61,0.05 1,-1.05 0.09,1.62 1.42,-0.7 0.22,0.86 1.51,0.38 1.12,-2.49 -0.44,-0.89 3.33,-0.41 0.61,-1.44 1.66,0.02 0.59,-0.75 4.74,-0.1 2.32,-1.39 0.51,-2.13 0.8,-1.59 1.99,-1.17 2.18,-0.35 1.58,0.83 1.22,-0.74 0.53,1.04 1.31,0.18 0.58,1.14 0.8,1.8 0.71,-0.09 2.36,-4.12 -0.12,-4.1 -1.7,-2.66 1.58,-2.28 -0.94,-2.38 2.02,-1.67 -0.63,-0.38 0.51,-1.08 -0.95,-3.42 0.88,-0.92 3.27,-0.33 z" 
                fill="rgb(151, 144, 238)" 
                stroke="white" 
                stroke-width=".7px"
                title="Corsica, France" 
                id="FR-H" 
            />
        </svg>