<svg xmlns="http://www.w3.org/2000/svg" viewBox="132.33020999999985 144.44050999999993 181.98000000000013 100.68000000000004" width="181.98000000000013" height="100.68000000000004">
            <path 
                d="m 314.31021,228.18051 -1.17,3.09 0.23,4.13 -2.52,0.99 -0.54,2.1 -2.92,-0.36 0.19,-1.04 -0.8,-0.31 -0.69,-2.51 -2.72,1.13 0,-2.14 -2.27,-1.32 0,0 1.13,-1.56 -0.32,-3.75 -3.7,2.48 -1.66,0.04 0.28,3.6 0,0 0,0 0,0 1.21,2.22 -1.62,-0.01 -0.34,-0.82 -1.99,0.79 -1.01,3.47 -2.6,2.09 -0.2,2.17 0,0 -0.04,-0.03 0,0 -1.64,0.89 -2.03,-0.37 -0.83,1.97 -1.55,-2.31 -1.44,0.8 -1.41,-0.16 0,0 -1.72,0.9 -1.11,-1.27 0,0 -0.92,0.25 -1.46,-0.9 -1.06,0.42 0,0 -1.63,-1.05 -0.21,-0.97 0,0 -1.35,-0.18 -0.52,-1.29 -4.66,-0.21 -2,-2.41 -3.58,-2 0.27,-3.06 -1.82,-1.22 0.33,-1.63 -2.17,-2.08 0.25,-1.15 0.67,0.09 -0.2,-1.09 1.68,-0.64 0.43,-1.99 2.03,-2.19 0.34,-2.69 -5.47,1.1 -2.65,-0.36 1.45,-2.1 -0.19,-1.04 -2.6,-0.53 -1.03,1 -1.2,-0.26 -1.73,-1.97 -1.39,-0.38 -0.34,-2.14 -1.33,-1.2 -2.46,2.39 -2.49,0.26 -0.2,1.07 -2.28,2.07 -3.99,0.14 -0.11,0.94 2.93,1.7 0.25,1.08 -2.54,0.16 -3.09,-0.89 -3.34,1.45 -2.76,-0.32 -1.55,-1.15 0.62,-1.04 -0.4,-0.91 -4.86,5.46 -0.66,-0.3 0.32,-0.95 -0.68,-0.91 -2.28,-0.5 -4.97,-4.03 -5.57,-0.13 -1,1.23 0.07,1.35 -1.67,0.42 -3.42,-3.05 -0.24,-1.55 -1.74,-1.6 0.05,-1.38 -1.22,-0.67 -1.67,0.29 -2.95,-3.04 -1.6,-0.03 -2.19,-1.23 -2.38,1.19 -5.63,-5.95 -2.44,0.51 -4.28,-2.94 -1.13,-1.26 0.54,-2.62 -1.05,-0.21 -0.5,-1.24 -2.43,-0.87 -5.35,0.59 -3.41,5.37 -3.6,2.09 0,0 -1.42,-3.32 -2.7,-1.99 -1.05,0.65 -1.41,-0.87 -0.35,0.96 -2.78,0.27 -0.94,1.13 -0.26,-1.17 -1.65,0.39 1.54,-4.51 1.32,-0.21 0.48,-3.42 -0.86,-2.09 -3.23,-1.11 -0.79,-1.73 -2.44,1.79 -3.15,-2.55 -0.44,1.05 -2.1,-0.35 0.34,-0.84 -0.59,-0.63 -2.26,0.44 0,0 -0.03,-5.08 0.49,0.19 0,0 1.75,-0.11 -0.32,-2.02 1.31,2.51 3.23,-0.85 -0.71,-1.39 0.89,-1.04 -0.15,-1.22 -1.74,-0.93 -0.3,-1.1 3.85,-3.88 -1.07,-3.25 -0.97,-0.82 -0.73,0.4 -1.75,-1.61 1.25,-1.64 -0.6,-1.02 1.66,-0.42 1.37,-4.05 1.64,-1.75 -0.12,-2.18 2.05,-1.84 -0.11,-0.67 1.23,0.18 0.32,-0.81 2.84,-0.72 1.57,1.86 1.13,-1.03 -0.63,-2.73 0.73,-0.12 1.6,2.14 1.28,-0.54 0.65,-1.91 0.92,1.25 -0.15,2.5 4.18,1.79 1.62,-1.42 0.5,-1.01 -0.75,-1.09 0.87,-0.27 0.83,1.54 1.85,0.95 0.37,1.86 0.93,-3.21 1,0.03 1.01,1.48 0.88,-0.39 0.2,-1.16 -1.13,-1.59 1.8,-1.46 0.73,0.61 -0.38,2.19 2.88,-2.21 0.89,0.09 1.88,2.45 -0.44,1.49 1.52,1.23 0.07,1.22 1.49,-0.35 0.8,1.74 3.33,-1.56 0.53,0.93 2.22,-0.06 3,2.37 1.6,0.04 2.83,2.27 2.45,-1.34 1.47,2.92 4.57,2.23 3.94,-0.17 1.45,-0.84 2.86,-4.12 0.45,1.62 1.8,-2.07 0.97,3.12 4.41,0.72 0.75,0.79 0.88,-0.16 0.08,0.75 1.34,-0.17 -0.2,0.58 1.46,-0.9 1.35,0.22 0.23,-1.15 2.32,-1.19 3.12,0.26 0.93,-0.79 2.65,0.64 1.22,1.55 0.55,-0.65 3.89,-0.31 0.36,-0.66 1.48,1.05 1.67,-1.59 6.23,0.92 0,0 0.16,1.49 5.7,-0.37 2.1,1.41 0.43,1.62 0.71,0.25 1.24,-0.12 2.02,-1.9 3.19,-0.89 0.74,-2.22 2.92,-1.36 6.27,0.08 2.21,-0.78 6.7,1.07 2.29,3.08 1.48,-0.97 0.81,1.05 2.15,0.17 1.46,-1.29 1.08,-0.01 0.83,1.08 -0.63,1.24 0.33,2.89 0.64,0.95 1.99,0.51 0.6,2.18 0,0 -0.65,0.17 -1.19,-1.84 -1.19,-0.36 -1.73,2.28 1.26,-0.5 -1.66,4.37 -0.59,4.98 0.48,3.31 1.96,3.83 -0.11,8.84 1.77,4.76 0.21,3.39 2.05,7.15 1.76,3.53 6.71,7.82 2.52,1.69 5.97,6.43 2.79,1.02 z m -29.42,11.31 -0.27,1.13 1.37,1.59 2.18,-1.12 -0.3,-1.1 0,0 -0.21,-0.47 -2.77,-0.03 z" 
                fill="rgb(151, 144, 238)" 
                stroke="white" 
                stroke-width=".7px"
                title="Emilia-Romagna" 
                id="IT-45" 
            />
        </svg>