<svg xmlns="http://www.w3.org/2000/svg" viewBox="292.27021 33.63050500000005 81.89000000000004 78.59000499999999" width="81.89000000000004" height="78.59000499999999">
            <path 
                d="m 316.64021,34.280505 1.93,0.64 0,1.43 0.7,0.37 4.11,-0.3 6.15,1.19 1.94,-0.54 4.17,1.02 3.66,2.76 1.7,-0.71 2.55,0.71 1.18,-1.28 1.33,0.15 0.11,-0.91 1.84,0.52 -0.1,0.8 0.96,0.31 3.9,-0.7 0.77,1.44 2.21,-0.33 0.6,1.02 2.4,-0.29 4.98,1.57 -1.5,6.1 -1.9,-0.65 -2.92,0.74 -1.37,2.85 -4.88,2.76 -1.57,0.07 0.02,2.67 -3.36,2.08 2.47,4.57 -0.58,1.71 1.83,-0.18 -0.07,-0.92 1.81,0.06 0.99,0.71 1.43,-0.24 1.59,1.05 0.64,1.48 3.2,-0.5 1.42,0.81 -1.03,3.22 -3.57,3.45 -3.77,2.39 0.3,2.27 -1.57,1.61 3.05,2.85 1.64,-0.23 1.33,-1.49 2.58,0.34 -0.28,3.48 -3.14,6.06 1.04,3.26 1.33,0.89 2.38,-0.38 3.98,3.37 2.52,0.670005 3.6,6.29 2.79,2.03 -4.12,3.68 -2.16,0.14 -2.47,-1.3 -1.5,0.37 -0.09,-0.93 0.78,-0.42 2.71,0.85 1.21,-0.96 -1.43,0.05 -0.46,-1.56 -1.01,0.22 -0.59,-0.66 1.23,-0.94 -0.72,-2.06 -6.15,-6.590005 -2.5,-0.73 -1.13,0.37 -0.56,-0.8 -1.37,1.48 -0.19,1.660005 1.76,1.42 -3.36,1.62 -0.8,-0.27 -2.12,2.06 -2.42,0.23 -5.13,-2.76 -1.84,-0.3 -0.31,0 -0.09,-0.07 -4.23,1.12 -2.88,4.42 0,0 -1.07,-0.6 0.12,-0.61 -0.98,0.12 0.17,-1.32 -1.01,-0.8 0.37,-0.8 -0.79,-0.2 -0.57,-2.67 -0.97,0.71 0.35,-1.17 -0.65,-1.300005 0.49,-0.26 -2.03,-1.93 1.09,-0.64 -0.82,-0.34 0.18,-0.82 -0.39,-0.37 0.04,-0.31 -0.58,-1.58 -0.59,0.24 0.45,1.42 -1.55,0.5 -0.49,-1.09 -1.52,0.94 -1.25,-1.14 0.4,-1.1 -0.64,-0.07 -2.17,1.09 -0.55,1.04 -0.63,-0.73 0.43,-1 -1.13,-0.84 -1.98,2.1 -0.67,-0.67 -3.88,3.59 -0.05,-1.62 -1.12,-0.52 -0.12,-0.89 -1.24,-0.66 -0.68,1.61 -2,-1.05 0.22,-1.2 -1.39,-1.26 -1.26,-4.53 -1.48,-0.01 -1.04,-1.51 -1.43,-0.04 -0.02,-3.47 -0.71,-2.6 -0.92,-0.8 1.77,-2.81 2.9,-1.96 0.45,-3.58 -2.42,-1.95 -0.3,-2.13 -1.83,0.1 -0.26,-1.58 -2.08,0.02 -2.12,-2.85 1.8,-1.88 -0.04,-1.99 1.04,-0.84 1.91,0.27 0.33,-2.02 1.83,-0.93 -0.18,-0.6 0.6,0.27 -0.32,-1.38 2,-1.76 0.28,-1.75 1.48,-2.04 0.41,0.43 1.57,-1.25 1.85,0.79 1.04,-0.79 1.82,0.78 -0.39,-1.74 -1.23,-0.8 0.12,-0.94 3.46,-2.18 2.55,-0.06 -0.88,-1.16 0.7,-2.27 -0.97,-1.66 0.19,-1.8 0,0 1.65,-0.91 1.75,0.65 z" 
                fill="rgb(151, 144, 238)" 
                stroke="white" 
                stroke-width=".7px"
                title="Friuli-Venezia Giulia" 
                id="IT-36" 
            />
        </svg>