<svg xmlns="http://www.w3.org/2000/svg" viewBox="247.57020999999986 307.68051000000025 132.34000000000003 134.60999999999973" width="132.34000000000003" height="134.60999999999973">
            <path 
                d="m 325.37021,439.63051 -0.25,1.32 0.57,0.19 -1,1.15 -0.18,-2.82 2.24,-1.01 -1.38,1.17 z m 51.61,-39.34 1.01,0.85 -0.76,1.3 -0.75,-0.03 -3.04,2.77 -2.15,0.37 1.32,2.22 -0.81,1.5 1.03,4.47 -3.11,1.12 -0.1,1.03 0.65,0.24 -0.5,0.77 -3,0.58 -0.55,1.32 -2.81,-2.02 -1.22,0.6 -2.81,-1.15 -2.95,1.66 0.11,1.46 0.9,0.6 -2.04,0.07 -8.94,-5.21 -4.34,-1.04 -1.64,1 -2.32,-0.12 -2.92,0.93 -3.31,3.15 -2.41,-0.19 -2.93,-6.73 -3.66,-3.89 -3.6,-1.99 -3.37,-0.34 -0.81,0.63 -4.82,-3.23 -1.7,0.28 -0.14,0.71 -0.87,-0.37 -3.32,-5.86 -7.08,-8.45 -3.68,-3.12 -6.21,-2.83 -0.93,-5.9 -3.13,-5.75 -4.83,-2.83 -1.3,-1.94 -2.56,-0.98 -0.57,-1.21 -2.34,-1.48 -4.27,0.63 -1.67,-3.89 -3.04,-4.01 -0.18,-1.88 -2.12,-4.27 -2.25,-3.16 -5.44,-4.43 -5.13,-2.45 1.86,-4.15 6.8,-0.08 -0.09,-3.43 -2.79,-1.91 1.37,-1.94 -0.45,-1.76 0.62,-0.33 1.14,1.05 0.67,-0.89 0.81,0.23 1.74,-0.88 0.21,-1.08 1.5,-1.11 1.29,0.25 0.91,-2.14 1.37,0.19 1.4,-0.92 -0.08,-1.08 -1.05,-0.48 -0.41,-2.62 1.23,0.01 1.04,-2.36 -3.78,-2.96 1.16,-2.44 1.21,0.47 0.7,1.32 0.51,-2.01 1.63,-1.07 2.48,0.14 1.62,3.89 2.78,1.8 -1.01,1.98 -1.85,1.04 1.29,2.11 4.14,2.56 3.68,-1.31 1.01,1.07 0.12,-0.75 0.67,0.22 1.38,-1.19 1.63,0.68 1.67,2.06 0.55,4.47 1.67,0.78 -0.21,1.96 1.04,0.85 -0.75,0.67 1.52,0.8 -0.69,0.46 1.87,-0.21 1.23,1.26 2,-1.62 1.47,0.16 -0.25,1.86 0.74,0.68 -0.68,0.23 -0.01,2.06 2.29,0.8 -0.97,1.42 3.64,-0.52 -0.05,1.68 0.87,1 4.33,-3.36 0.22,-3.88 1.19,-0.08 0.89,1.86 1.21,-0.05 2.99,-1.97 -1.37,-2.04 3.06,-0.88 0.17,-1.33 2.05,0.1 1.85,-1.63 2.09,-0.67 -0.62,-2.55 0.58,-1.17 2.02,0.99 0.8,-0.97 3.25,0.04 0.71,-1.53 2.06,1.08 2.8,-1.72 0.05,-0.78 1.62,0.64 1.33,-1.28 0.75,-4.45 3.28,0.79 0.54,-1.17 1.09,-0.1 3.68,3.16 -0.54,1.69 1.15,1.36 1.99,0.63 -0.76,3.44 -1.35,1.17 -2.26,-0.32 -1.5,0.77 -0.58,-0.97 -1.35,-0.01 -0.61,0.73 -2.75,-1.03 -0.76,2.76 -1.03,0.57 1,1.86 0.1,2.38 -3.18,2.42 3.99,3.74 -2.09,2.34 3.74,2.47 0.65,3.29 2.58,2.54 2.42,0.83 0.3,1.63 1.94,1.22 -1.83,0.33 0.52,0.7 -1.49,0.29 -1.07,2.23 -1.69,-0.62 -1.24,0.77 -6.56,-3.53 -1.73,0.13 -0.05,2.4 -2.08,1.78 -0.77,-0.36 -0.15,4.92 1.4,2.25 2.39,0.64 0.02,-1.24 2.03,0.72 7.65,4.49 0.89,-0.37 1.98,2.28 1.02,-0.19 1,1.41 -1.28,2.29 1,3.63 1.4,-1.36 1.73,0.7 1.48,1.43 1.84,0.43 0.74,1.81 1.48,0.93 4.05,-1.36 1.07,-2.09 1.77,0.49 1.07,1.18 1.33,-0.73 1.75,3.31 1.33,0.4 1.02,-0.66 2.4,1.42 1.96,-0.19 2.5,3.27 1.99,1.72 1.4,3.59 0.1,1.37 -0.68,0.64 1.37,1.51 -0.22,0.95 -0.85,0.18 1.22,1.06 -2.93,2.01 z m -77.65,-27.89 -0.04,-0.08 0.01,-0.18 -0.11,-0.11 -0.09,0.03 -0.17,0.04 -0.16,0.26 -0.03,0.06 0.07,0.08 0.06,-0.02 0.26,0.06 0.2,-0.08 0,-0.06 z" 
                fill="rgb(151, 144, 238)" 
                stroke="white" 
                stroke-width=".7px"
                title="Lazio" 
                id="IT-62" 
            />
        </svg>