<svg xmlns="http://www.w3.org/2000/svg" viewBox="96.30021000000005 34.490505000000155 150.18999999999994 143.1100049999999" width="150.18999999999994" height="143.1100049999999">
            <path 
                d="m 186.10021,35.650505 0.52,0.58 -0.91,1.44 0.26,1.12 2.07,0.38 0.48,1.55 2.24,0.59 0.66,-1.01 2.23,0.88 1.1,-0.48 1.91,1.48 0,0 1.15,2.7 3.77,0.3 2.64,1.77 1.03,1.36 -0.23,2.19 0.84,1.39 -1.49,1.56 -1.97,0.11 -2.58,2.55 2.64,1.27 0.6,2.02 -0.89,1.27 0.81,0.47 0.52,2.14 -2.28,4.16 1.07,1.59 -0.94,4.43 -3.33,4.07 0.36,1.9 -1.19,0.94 -0.57,1.83 0.05,1 1.74,0.32 -0.16,2.03 1.3,1.99 -0.91,2.1 0.52,4.31 2.25,0.95 -0.71,1.37 0.42,0.87 1.32,0.13 2.14,-1.33 1.98,-0.07 0.47,-2.15 4.01,-0.81 1.27,0.98 0.39,-0.86 3.97,0.77 0,0 -11.09,16.500005 1.13,11.75 -0.4,1.98 0.84,0.18 0.7,-0.81 2.46,1.13 -0.96,2.57 0.96,0.75 -1.3,0.98 1,1.49 -0.68,1.91 1.49,0.39 0.51,0.99 2.41,-2 1.96,1.93 1.12,2.35 2.64,0.59 0.11,0.68 1.83,0.48 -0.1,1.3 2.87,1.3 0.8,1.22 -0.38,1.71 1.61,-0.32 0.87,0.55 -0.96,1.88 2.32,1.95 1.2,0.22 0.24,-1.27 1.36,0.73 0.93,-1.68 3,1.12 -1.27,1.02 0.41,1.01 -0.59,1.62 3.13,1.16 1.43,-0.85 0.01,2.46 7.98,4.28 0.23,1.03 0,0 -6.23,-0.92 -1.67,1.59 -1.48,-1.05 -0.36,0.66 -3.89,0.31 -0.55,0.65 -1.22,-1.54 -2.65,-0.64 -0.93,0.79 -3.12,-0.26 -2.32,1.19 -0.23,1.16 -1.35,-0.22 -1.46,0.9 0.2,-0.58 -1.34,0.17 -0.08,-0.75 -0.88,0.16 -0.75,-0.79 -4.41,-0.71 -0.97,-3.12 -1.8,2.07 -0.45,-1.62 -2.85,4.12 -1.45,0.84 -3.94,0.17 -4.57,-2.23 -1.47,-2.92 -2.45,1.34 -2.83,-2.27 -1.6,-0.04 -3,-2.37 -2.22,0.07 -0.53,-0.92 -3.33,1.56 -0.79,-1.73 -1.49,0.35 -0.07,-1.22 -1.52,-1.23 0.44,-1.49 -1.88,-2.45 -0.89,-0.09 -2.88,2.22 0.38,-2.19 -0.73,-0.61 -1.8,1.46 1.13,1.59 -0.19,1.16 -0.88,0.39 -1.01,-1.48 -1,-0.03 -0.93,3.21 -0.37,-1.86 -1.85,-0.95 -0.82,-1.54 -0.87,0.27 0.75,1.09 -0.5,1.01 -1.62,1.42 -4.18,-1.79 0.15,-2.5 -0.92,-1.25 -0.65,1.91 -1.28,0.54 -1.6,-2.14 -0.73,0.12 0.63,2.73 -1.13,1.03 -1.57,-1.86 -2.83,0.72 -0.32,0.81 -1.23,-0.18 0.11,0.67 -2.04,1.84 0.12,2.18 -1.63,1.75 -1.37,4.05 -1.66,0.42 0.6,1.02 -1.25,1.64 1.75,1.61 0.73,-0.4 0.97,0.82 1.07,3.25 -3.85,3.88 0.3,1.1 1.74,0.93 0.15,1.22 -0.89,1.04 0.71,1.4 -3.23,0.86 -1.31,-2.51 0.32,2.02 -1.75,0.11 0,0 -0.37,-2.85 0.63,-2 -2.27,-1.68 -0.47,-2.93 -2.72,0.75 -0.45,-0.78 -1.46,-0.12 0.12,-0.94 -1.16,-1.17 0.94,-1.01 -0.73,-1.98 -1.02,0.12 -1.68,-1.49 -1.55,-2.55 0.24,-1.73 -0.73,-1.29 -0.47,-0.44 -1.32,0.62 -1.29,-1.75 -0.29,-3.2 -2.91,0.23 -1.62,1.61 -1.64,0.18 -0.25,1.03 -1.28,-0.17 -0.17,-1 -1.12,0.16 -0.39,-1.16 -0.46,1.76 -3.32,-1.92 -0.29,-3.52 -1.42,-1.3 0.35,-1.3 -1.12,-0.31 -0.59,-1.49 -1.43,-0.43 -0.55,-0.98 1.79,-2.57 -2.17,0.96 -0.5,-0.39 1.19,-0.43 -1.25,-1.17 0.94,-0.85 -0.57,-0.41 1.26,-0.16 -1.61,-0.53 -0.02,-0.49 0.97,0.13 -0.31,-1.77 -2.01,-1.04 0.73,-1.49 1.35,-0.46 -0.6,-1.79 1.5,-1.38 1.18,1 2.78,-0.11 0,0.91 1.13,0.74 0.49,2.55 1.47,-0.11 1.1,-0.59 0.56,-2.1 1.88,-1.2 -2.17,-2.32 1.51,0.28 1.17,-0.8 1.57,0.44 2.13,-1.08 -0.93,-2.79 -0.89,0.06 -1.15,-3.9 -3.51,-1.81 -1.29,-4.92 0.44,-1.71 -1.93,-1.64 -0.32,-1.26 1.52,0.31 -0.81,-1.84 0.37,-1 -2.03,-0.4 0.55,-2.66 -3.05,-0.91 -2.02,-3.820005 0.06,-1.49 2.08,-2.35 -1.28,-4.95 8.05,-8.76 -1.01,-4.55 0.63,-1.61 0,0 1.21,-1.33 0.85,1.4 1.26,0.65 1.22,-0.52 2.36,1.93 0.03,1.11 -1.05,0.63 -2.48,4.44 2.35,0.03 1.94,2.04 1.42,0.33 0.04,1.68 2.47,4.88 -1.75,2.63 2.32,-0.87 2.1,0.78 -0.34,1 2.33,0.08 0.74,-3.66 2.04,-2.17 -0.74,-0.1 -0.82,-1.6 -2.06,-0.54 -0.26,-2.26 -1.22,-0.7 1.89,-1.73 -1.13,-3.27 0.54,-1.04 3.03,-1.09 0.6,-1.63 -0.79,-2.42 2.42,-1.19 2.14,-2.44 1.06,-0.07 2.03,-4.69 1.46,-0.15 0.17,-2.39 2.34,-4.37 -0.11,-2.05 -1.08,-1.21 0.27,-3.23 -1.66,-2.08 1.34,-1.14 0.18,-2.89 4.4,-0.99 0.62,1.79 1.88,1.31 1.26,-2.4 1.45,-0.71 -0.24,1.46 -0.69,0.26 0.98,0.59 -0.12,7.65 1.89,0.63 1,3.01 1.52,1.82 0.46,-0.38 3.87,1.56 2.14,-1.21 1.8,0.76 1.41,-4.28 2.11,1.1 6.62,-3.38 0.96,1.1 1.39,-1 2.26,2.05 -0.77,2.15 1.04,0.67 -0.12,2.19 2.92,1.49 -0.53,2.56 1.22,0.85 1.1,-0.77 1.63,0.29 2.76,-2.36 -1.09,-2.62 -2.56,-2.99 0.13,-1.5 1.08,-0.69 0.52,-1.77 1.19,-0.24 0.21,-1.52 -0.9,-0.2 -0.36,-1.24 -3.12,0.55 -2.1,-1.73 0.7,-1.51 -0.57,-1.05 0.61,-3.01 -0.51,-1.49 2.88,-3.11 0.1,-2.17 1.41,0.38 3.03,-1.55 1.31,0.64 1.23,-1.24 0.47,1.16 z" 
                fill="rgb(151, 144, 238)" 
                stroke="white" 
                stroke-width=".7px"
                title="Lombardia" 
                id="IT-25" 
            />
        </svg>