<svg xmlns="http://www.w3.org/2000/svg" viewBox="387.88021 755.08051 19.740000000000066 17.329999999999814" width="19.740000000000066" height="17.329999999999814">
            <path 
                d="m 397.34021,760.53051 0.3,0.54 -1.33,1.04 2.38,0.22 -0.62,1.41 2.3,-0.96 -0.21,0.78 0.64,-0.44 3,1.72 -0.29,0.48 1.27,0.76 -0.81,-0.02 -0.09,0.91 1.19,-0.62 -1.02,1.49 1.37,-1.14 2.2,1.54 -0.43,3.34 -0.72,-1.24 -1.01,0.92 1.11,0.41 -0.99,0.74 -5.57,-1.2 -4.42,-3.34 -0.42,-1.59 0.65,-0.07 -0.4,-0.93 0.6,-0.77 -0.83,-0.57 0.67,-0.76 -0.26,-0.96 -0.9,-0.13 0.55,-0.96 2.09,-0.6 z m -1.61,-1.59 0.66,0.71 -1.36,0.32 -0.08,-0.9 0.78,-0.13 z m -5.34,-3.86 3.9,1.41 1.33,1.69 -3.83,1.31 -3.73,-1.43 -0.18,-2.54 2.51,-0.44 z" 
                fill="rgb(151, 144, 238)" 
                stroke="white" 
                stroke-width=".7px"
                title="Malta" 
                id="MT" 
            />
        </svg>