<svg xmlns="http://www.w3.org/2000/svg" viewBox="285.36020999999994 228.19051 88.68999999999994 90.15000000000006" width="88.68999999999994" height="90.15000000000006">
            <path 
                d="m 359.22021,257.90051 -2.77,-1.61 -1.18,-2.32 -2.08,-1.73 -0.84,1.52 -2.06,-0.25 -7.56,-4.21 -20.49,-17.97 -5.49,-2.9 -2.43,-0.24 0,0 -1.17,3.09 0.23,4.13 -2.52,0.99 -0.54,2.1 -2.92,-0.36 0.19,-1.04 -0.8,-0.31 -0.69,-2.51 -2.72,1.13 0,-2.14 -2.27,-1.32 0,0 -0.4,1.35 -3.82,-0.43 0,0 -0.04,-0.1 0,0 1.21,2.22 -1.62,-0.01 -0.34,-0.82 -1.99,0.79 -1.01,3.47 -2.6,2.09 -0.2,2.17 0,0 0.13,0.1 0,0 2.15,0.86 2.29,3.08 -2.1,0.02 0.3,2.18 -0.92,-0.06 -0.61,-3.72 -0.44,3.12 -1.23,0.66 -1.46,-0.28 0.2,0.81 -0.94,1.05 -2.31,0.83 1.45,2.23 0,0 0.71,1.17 3.09,-0.04 0.35,0.56 2.08,-1.68 1.88,-0.12 -0.51,0.78 0.48,1.44 -2.92,2.7 1.36,1.42 1.43,-0.73 1.27,1.73 1.42,-2.09 0.99,0.13 0.83,1.42 0.92,0.05 0.29,-0.86 0.91,0.42 6.36,7.29 2.13,-1.29 2.23,0.82 1.32,-2.69 2.08,0.56 -0.37,2.01 0.9,0.84 -1.8,1.69 0.05,0.84 2.27,2.96 0.38,2.91 -0.62,0.7 1.88,1.34 0.67,3.42 1.39,0.69 -0.14,2.9 -1.62,1.55 0.67,1.54 2.07,0.42 0.57,1.71 -0.24,2.77 0.75,2.11 -0.87,0.66 0.94,1.95 -0.56,1.49 2.69,1.61 0.2,0.87 1.11,0.13 0.12,4.04 1.21,-1.36 0.02,-1.71 1.3,0.77 1.4,-1.39 3.01,2.3 2.5,3.94 2.67,-0.61 1.25,-1.82 1.41,3.62 -0.25,1.82 -0.92,1.9 -0.38,-0.77 -1.92,0.78 -0.25,2 0,0 3.28,0.79 0.54,-1.17 1.09,-0.1 3.68,3.16 0,0 1.67,0.49 1.88,-1.33 0.56,0.46 0.6,-2.38 2.37,-0.39 0.3,-2.49 1.33,-1.48 0.25,-1.45 2.08,1.14 2.36,-1.11 0.67,0.95 1.35,-0.17 2.01,-0.94 0.46,-2.21 0.68,-0.38 2.78,-0.19 2.12,-1.41 4.99,-1.07 0,0 -2.2,-6.7 -1.54,-8.13 -11.26,-27.91 0.17,-3.25 z m -61.18,-3.24 -0.74,-0.26 0,0 -0.19,-0.06 0,0 0.32,-0.7 0.57,0.33 0,0 0.1,0.53 0,0 -0.06,0.16 z" 
                fill="rgb(151, 144, 238)" 
                stroke="white" 
                stroke-width=".7px"
                title="Marche" 
                id="IT-57" 
            />
        </svg>