<svg xmlns="http://www.w3.org/2000/svg" viewBox="375.5002100000002 360.94051000000024 62.179999999999836 48.11999999999978" width="62.179999999999836" height="48.11999999999978">
            <path 
                d="m 419.07021,361.33051 5.44,2.89 4.99,0.93 3.97,4.34 3.16,1.23 0,0 0.21,3.27 -2.13,3.07 0.82,2.93 -0.96,1.59 1,1.22 -0.75,0.52 1,1.49 1.86,0.85 -2.05,1.02 -0.68,1.5 -0.77,-0.77 -0.03,0.82 -2.09,0.91 -1.32,2.42 -3.24,-1.5 -1.25,1.52 0.91,0.8 -0.71,5.58 1.56,0.67 1.99,2.3 0,0 -2.98,2.1 -2.65,0.21 -1.58,1.6 -4.01,-1.71 -1.72,2.9 -1.88,0.58 -0.94,-0.74 -1.97,0.23 0.04,0.94 -1.05,0.07 -2.19,1.95 -1.22,-1.76 -3.34,0.52 -1.19,-0.91 -0.38,-1.59 -8.01,-2.34 -2.03,-1.09 -0.26,-1.01 -1.78,-0.01 -0.2,-0.84 -3.45,-0.07 -0.39,1.38 -2.29,-1.91 -2.2,4.03 1.38,1.67 0.27,2.42 -1.3,-0.86 -2.15,0.48 -2.06,-2.45 0.28,-1.52 -1.52,-0.77 0,0 0.76,-1.29 -1.01,-0.85 2.86,-2.06 -1.22,-1.06 0.85,-0.18 0.21,-0.95 -1.37,-1.51 0.68,-0.63 -0.1,-1.37 -1.4,-3.59 -1.99,-1.72 0,0 2.1,-0.52 1.87,0.98 0.28,-1.46 1.33,-0.05 0.87,-2.4 1.16,-0.09 0.79,2.07 0.63,-2.64 1.99,-0.05 0.67,-1.24 0.25,1.01 0.85,0.13 0.42,-1.03 -1.52,-0.89 -1.25,-3.55 0.42,-0.9 2.22,-0.15 1.43,-2.22 2.91,-2.38 0.94,1.26 1.24,-0.13 0.98,2.19 0.57,0.22 1.05,-1.32 2.44,1.62 1.1,1.07 1.07,4.29 -0.79,0.64 2.04,0.37 4.76,-5.13 1.72,-3.73 2.36,-1.66 0.82,-3.1 2.3,-2.84 2.84,-1.96 -0.91,-0.84 1.17,-1.85 0,0 z" 
                fill="rgb(151, 144, 238)" 
                stroke="white" 
                stroke-width=".7px"
                title="Molise" 
                id="IT-67" 
            />
        </svg>