<svg xmlns="http://www.w3.org/2000/svg" viewBox="0.3102100800001242 47.140505 132.71999991999996 174.56000499999985" width="132.71999991999996" height="174.56000499999985">
            <path 
                d="m 93.25021,47.140505 1.55,1.57 -0.62,1.52 0.74,1.97 -0.36,4.74 -1.95,2.55 1.5,2.49 -0.66,1.18 1.42,1.27 3.05,1 2.2,3.99 1.48,0.63 -0.31,1.06 0.76,1.38 1.81,-0.06 2.02,1.55 1.64,-0.13 0,0 -0.63,1.61 1.01,4.55 -8.05,8.76 1.28,4.96 -2.08,2.35 -0.06,1.5 2.02,3.820005 3.05,0.91 -0.55,2.65 2.03,0.4 -0.37,1 0.81,1.85 -1.53,-0.32 0.32,1.27 1.93,1.63 -0.44,1.71 1.29,4.92 3.51,1.81 1.15,3.9 0.89,-0.06 0.93,2.79 -2.13,1.08 -1.58,-0.43 -1.17,0.8 -1.51,-0.29 2.17,2.32 -1.88,1.2 -0.56,2.1 -1.1,0.59 -1.47,0.11 -0.49,-2.55 -1.13,-0.74 0.01,-0.91 -2.78,0.11 -1.19,-1 -1.49,1.38 0.6,1.79 -1.36,0.46 -0.72,1.49 2.01,1.04 0.31,1.77 -0.98,-0.13 0.02,0.48 1.62,0.53 -1.26,0.16 0.57,0.42 -0.95,0.85 1.25,1.17 -1.19,0.43 0.5,0.39 2.17,-0.96 -1.79,2.57 0.55,0.98 1.43,0.44 0.59,1.49 1.12,0.31 -0.36,1.3 1.43,1.29 0.29,3.53 3.31,1.91 0.46,-1.75 0.4,1.15 1.12,-0.16 0.18,1.01 1.28,0.16 0.25,-1.02 1.64,-0.18 1.62,-1.61 2.91,-0.24 0.29,3.21 1.29,1.75 1.32,-0.62 0.46,0.44 0.73,1.29 -0.24,1.73 1.55,2.55 1.68,1.49 1.02,-0.12 0.72,1.99 -0.94,1.01 1.16,1.17 -0.12,0.94 1.45,0.13 0.45,0.78 2.72,-0.75 0.47,2.93 2.27,1.68 -0.62,2 0.37,2.85 0,0 -0.5,-0.19 0.03,5.08 0,0 0.06,1.45 -3.52,1.47 -1.62,-1.21 0.05,-1.48 -1.46,-0.85 -1.44,0.29 -1.6,-3.43 -2.28,0.25 -0.72,-1.02 -1.61,0.24 -0.63,1.66 -1.57,1.26 1.44,1.56 0.3,3.72 -1.44,0.78 -0.87,-1.19 -2.28,0.3 0.03,1.47 -1.74,1.46 0.36,1.48 -1.27,0.47 -0.39,-2.2 -0.86,0.03 0.3,-0.9 -1.79,-2.94 -1.62,-0.23 -3.55,-0.21 -1.23,1.93 0.79,0.91 -2.74,3.04 -1,-0.75 -3.21,0.12 -0.34,-0.86 -1.14,1.71 -1.47,-1.04 -0.8,0.38 -0.56,2.2 -1.31,0.71 -3.08,-2.61 -1.85,-0.19 -0.98,-1.52 -1.55,1.24 0.04,1.89 -1.38,0.46 1.37,3.27 -0.75,1.93 -3.18,1.76 0.23,2 -0.98,1.61 -1.29,-0.16 -0.3,2.18 -1.46,-0.65 -0.42,0.54 0,1 1.27,1.31 -1.25,1.23 0.86,1.1 -0.74,1.71 1.46,1.27 0.05,1.94 -1.18,1.55 -1.42,0.49 -1.53,-1.02 -1.84,1.51 1.31,0.62 0.56,0.87 -0.43,0.73 -1.97,-0.69 -1.63,0.88 -9,-2.88 -1.94,1.08 -0.47,1.54 0.91,1.44 1.31,-0.02 -1.55,1.67 -0.8,-0.27 0,0 0.06,-1.49 -2.44,-3.29 0.9,-3.11 -2.48,-0.1 -0.88,1.91 -2.9,-0.48 -5.18,2.19 -1.55,-0.35 -0.32,1.3 -1.64,-0.93 -1.83,0.69 -0.72,-2.18 -3.26,0.38 -1.82,-2.21 -1.33,0.22 -1.55,-2.32 -1.32,-0.44 -0.95,0.52 -3.04,-2.06 -2.68,0.39 -1.26,-0.86 -0.62,-3.17 -1.95,-1.13 0.18,-1.02 -1.68,-1.55 -0.23,-1.34 -1.82,-0.83 0.28,-4.23 2.86,-0.56 -3.61,-3.63 -1.12,-3.63 1.13,-1.7 1.6,-0.17 1.18,-1.16 0.88,-3.18 0.93,-0.08 -0.98,-2.4 0.71,-1.73 1.29,-0.98 4.58,0.29 -0.48,-1.88 -1.85,-1.09 -0.55,-3.22 -1.06,-1.16 1.16,-2.47 -0.86,-1.14 -3.58,-1.65 -1.3,1.3 -2.4,-0.46 -3.0799999,-2.09 -0.16,-0.89 -2.53,-0.99 0.2,-2.08 -0.58,-0.35 1.08,-1.54 -1.4,-2.18 0.69,-0.55 -0.34,-1.16 -3.63,-0.41 -0.62,-3.75 -0.92,-0.26 -0.88000002,-2.19 2.38000002,-1.48 0.4,-1.08 3.17,0.18 1.31,-1.56 4.0799999,1.71 0.09,0.64 2.26,-0.69 0.01,-2.3 2.69,-0.1 0.42,-1.51 2.41,-2.12 1.29,0.21 1.23,-0.74 0.97,1.13 2.14,-2.62 0.73,0.1 0.53,-2.63 -1.27,-3.28 0.98,-0.18 0.41,-1.54 1.32,-0.69 0.01,-1.47 1.24,-1.8 -3.74,-2.01 -0.62,-2.45 0,0 1.77,-3.56 0.36,2.85 0.9,-0.68 3.07,1.07 2.39,-3.01 2.8,-0.07 1.88,-0.89 0.96,0.67 3.54,-2.84 0.93,-1.57 1.23,-0.39 1.85,0.47 2.08,-1.13 2.01,1.25 0.13,0.87 1.41,-0.66 1.97,1.3 2.32,-0.38 0.68,0.61 4.89,-3.47 2.64,-0.2 1.01,0.65 0.73,-3.04 1.2,-0.24 -1.82,-3.73 1.66,-2.83 -0.36,-1.2 -1.62,-0.600005 -1.71,-3.1 0.7,-5.05 -0.7,-4.06 0,0 0.72,-0.68 0.1,-3.63 1.47,-1.58 4.15,0.12 1.11,-1.17 0.12,-1.52 1.16,-0.83 -0.67,-2.11 0.54,-1.99 3.72,-0.87 0.56,-1.43 1.91,-1 -0.12,-1.49 0.79,-1.14 -1.37,-3.28 -1.47,-1.81 -1.71,-0.8 3.19,-3.17 1.45,0.44 2.19,-0.87 0.74,-1.93 1.92,-0.85 0.03,-1.35 2.38,-0.99 0.47,-1.5 -1.45,-0.7 0.78,-1.24 1,-0.08 1.99,-1.92 z" 
                fill="rgb(151, 144, 238)" 
                stroke="white" 
                stroke-width=".7px"
                title="Piemonte" 
                id="IT-21" 
            />
        </svg>