<svg xmlns="http://www.w3.org/2000/svg" viewBox="426.35020999999944 369.18050999999997 183.6300000000005 145.9700000000002" width="183.6300000000005" height="145.9700000000002">
            <path 
                d="m 481.74021,369.18051 3.85,0.75 4.91,3.74 -0.67,1.54 1.26,2.39 -0.08,1.6 -0.39,1.97 -1.36,1.36 -4.73,3.16 -0.29,1.08 -8.39,5.25 0.15,5.69 2.5,4.73 3.46,2.51 9.37,4.34 2.98,2.34 8.1,3.05 8.43,5.09 9.93,3.16 1.66,1.43 1.8,0.05 0.45,0.75 0.94,-0.41 0.25,0.73 4.19,1.82 6.85,2.24 9.64,6.31 3.63,4.43 2,0.91 4.56,4.29 11.81,4.74 6.2,4.3 5.61,0.67 1.12,1.85 -0.49,0.85 3.59,0.12 -0.33,1.09 1.56,1.93 -0.54,2.04 2.25,2.78 2.38,2.17 5.88,3.28 9.38,10.06 2,4.46 -0.23,1.76 1.55,3.62 1.42,0.87 -0.51,0.48 0.59,1.65 -1.72,1.58 -0.49,2.38 -1.99,1.38 -1.44,3.17 -0.88,4.56 0.03,6 -1.11,1.56 -1.21,0.32 -3.83,-2.96 -5.1,-1.07 -6.43,-5.23 -2.72,-4.74 1.21,-0.5 -0.18,-1.95 -2.08,-1.12 1.51,-1.11 0.41,-2.5 -4.61,-5.73 0.33,-1.91 -1.02,-2.19 -2.52,-2.09 -9.07,-1.33 -8.78,0.68 -3.15,-2.28 -2.7,-0.29 -8.68,-5.02 -1.12,0.03 0.3,-0.91 1.92,-0.84 0.22,-1.48 -1.35,-1.64 -2.29,0.11 -0.58,-1.62 -2.85,-1.07 -3.82,0.57 -3.5,1.9 -3.57,3.16 -2.13,3.51 0,0 -0.78,-1.86 -1.75,-1.47 -0.36,-1.62 -1.77,-1.07 -1.7,0.44 -0.86,-0.95 0.96,-2.08 -1.16,-0.88 0.44,-0.81 -0.96,-1.01 0.43,-2.89 0.63,-0.46 -0.92,-2.06 0.9,-3.61 -1.22,-1.41 1.02,-0.51 -2.92,-2.22 -0.53,0.75 -1.17,-0.7 -0.17,-0.99 -1,0.64 -1.69,-0.73 -0.11,1.74 -0.85,-1.33 -0.97,0.26 0.07,1.89 -2.04,-2.47 -3.49,4.04 -1.53,-0.42 -0.77,-1.74 -6.57,-6.04 -2.94,-6.46 -2,-0.65 -2.13,1.96 -1.59,-1.51 -5.59,-2.38 -0.6,-1.13 1.51,0.27 1.8,-2.05 -0.31,-1.55 0.64,-1.04 -1.84,-1.5 -0.61,0.42 -0.61,-2.35 -1.26,-0.3 -0.24,-1.02 -1.74,-0.3 -2.3,-1.65 -1.42,0.85 -0.81,-0.29 0.18,0.76 -1.67,0.43 0.15,0.95 -1.68,0.92 -1.46,-1.06 -2.51,0.9 -4.65,-0.78 -1.94,0.38 -1.35,1.23 0.33,1.23 0,0 -3.6,-1.8 -1.57,0.14 -2.1,-1.8 -1.7,1.29 -2.83,-1.19 -1.1,0.9 -2.01,-1.44 -0.73,-1.89 -1.57,-0.77 0.82,-1.99 2.02,-1.2 -0.85,-2.38 1.61,-1.02 -1.26,-1.43 -1.62,0.32 -1.04,-1.48 -3.42,0.14 -0.21,-2.17 -2.97,-1.06 -0.62,-2.62 0.84,-1.17 1.06,-0.18 -0.54,-1.2 0.82,-0.78 -0.18,-0.8 -2.85,-0.8 -1.81,-2.84 0,0 -1.99,-2.3 -1.56,-0.67 0.72,-5.58 -0.92,-0.81 1.25,-1.52 3.24,1.5 1.32,-2.41 2.09,-0.91 0.03,-0.83 0.77,0.77 0.68,-1.5 2.06,-1.02 -1.86,-0.84 -1,-1.5 0.74,-0.52 -0.99,-1.22 0.96,-1.59 -0.82,-2.93 2.13,-3.06 -0.21,-3.27 0,0 10.43,0.64 1.25,1.02 3.19,0.12 9.93,-1.85 3.37,0.95 4.13,-0.21 12.7,-2.3 z" 
                fill="rgb(151, 144, 238)" 
                stroke="white" 
                stroke-width=".7px"
                title="Puglia" 
                id="IT-75" 
            />
        </svg>