<svg xmlns="http://www.w3.org/2000/svg" viewBox="157.05020999999988 192.13051000000002 137.85000000000025 151.90000000000003" width="137.85000000000025" height="151.90000000000003">
            <path 
                d="m 189.44021,341.50051 0.86,1.8 -0.76,0.73 -1.01,-0.17 -0.16,-2.15 1.07,-0.21 z m 29.33,-2.75 1.97,2.03 -0.22,3.02 -1.97,-2.44 -0.82,-0.13 1.04,-2.48 z m -41.31,-15.88 1.08,2.11 -0.65,1.48 -2.22,-0.98 1.43,-0.67 0.36,-1.94 z m 17.33,-17.27 1.33,1.4 -0.77,2.13 0.32,2.67 -2.52,1.36 2.45,1.7 -0.55,1.88 -2.47,-0.8 -0.92,-2.73 -0.77,-0.37 -1.22,0.24 0.07,1.67 -0.9,-1.6 -0.83,1.66 -2.23,-0.99 -0.22,1.65 -2.72,-0.74 -1.65,0.26 0.19,0.53 -1.81,-1.11 -1.03,-1.75 0.1,-1.58 1.84,-1.41 2.85,-0.07 2.54,1.55 0.17,-0.79 1.07,-0.28 -0.36,-0.57 0.65,-0.47 -0.61,-0.84 3.63,0.87 -0.76,0.97 1.9,0.34 2.67,-5.01 0.56,0.23 z m -30.08,-13.75 0.69,1.98 -1.83,2.42 -0.92,-1.33 0.51,-2.3 1.23,-1.3 0.32,0.53 z m 123.09,-52.03 0.08,0.16 0,0 0.3,1.1 -2.18,1.13 -1.37,-1.59 0.27,-1.12 2.77,0.02 0,0 0.13,0.3 z m -130.75,-39.65 3.6,-2.09 3.41,-5.36 5.35,-0.59 2.44,0.87 0.5,1.24 1.05,0.22 -0.54,2.63 1.13,1.26 4.28,2.94 2.44,-0.51 5.63,5.96 2.38,-1.19 2.19,1.23 1.6,0.03 2.95,3.04 1.67,-0.29 1.22,0.67 -0.05,1.38 1.74,1.6 0.24,1.55 3.42,3.05 1.67,-0.42 -0.07,-1.34 1,-1.23 5.57,0.13 4.97,4.03 2.28,0.51 0.68,0.91 -0.32,0.95 0.66,0.3 4.86,-5.46 0.4,0.91 -0.61,1.04 1.55,1.15 2.76,0.32 3.34,-1.45 3.09,0.89 2.54,-0.16 -0.25,-1.08 -2.93,-1.7 0.11,-0.94 3.99,-0.14 2.28,-2.07 0.2,-1.07 2.49,-0.26 2.46,-2.39 1.33,1.21 0.34,2.15 1.4,0.38 1.73,1.97 1.21,0.26 1.03,-1 2.6,0.53 0.2,1.04 -1.45,2.1 2.66,0.36 5.47,-1.1 -0.34,2.69 -2.03,2.19 -0.43,1.99 -1.68,0.64 0.2,1.09 -0.67,-0.09 -0.25,1.15 2.17,2.08 -0.33,1.63 1.82,1.22 -0.27,3.06 3.58,2 2,2.41 4.67,0.21 0.52,1.3 1.35,0.18 0,0 0.21,0.97 1.64,1.05 0,0 1.06,-0.42 1.46,0.9 0.92,-0.25 0,0 1.11,1.27 1.72,-0.9 0,0 1.42,0.16 1.44,-0.8 1.55,2.31 0.83,-1.97 2.04,0.38 1.64,-0.89 0,0 0.17,0.13 0,0 2.15,0.86 2.29,3.08 -2.1,0.02 0.3,2.18 -0.92,-0.06 -0.61,-3.72 -0.44,3.12 -1.23,0.66 -1.46,-0.28 0.2,0.81 -0.94,1.05 -2.31,0.83 1.45,2.23 0,0 -2.48,3.13 -0.77,2.59 -2.19,-0.18 -0.55,0.56 -0.17,1.76 2.61,1.48 -0.1,0.56 -2.13,0.9 -1.01,1.7 -1.09,-0.34 -1.71,1.74 0.33,1 2.14,-0.22 0.11,2.66 1.43,-0.54 0.65,0.6 1.01,2.29 -0.59,1.71 0.4,0.9 2.23,0.84 0.9,-2.23 1.54,1.26 -6.67,4.18 -2.2,-1.23 -0.82,0.37 0.5,1.33 -0.99,2.73 -5.18,3.05 -0.49,1.32 0.88,2.44 -0.33,1.22 0.79,1.57 0.84,-1.05 1.27,1.36 -2.42,9.85 1.09,0.75 0.15,1.81 -1.28,0.08 -1.95,2.34 0,0 -2.48,-0.14 -1.62,1.07 -0.51,2.01 -0.7,-1.32 -1.2,-0.47 -1.16,2.44 3.78,2.96 -1.04,2.36 -1.23,-0.01 0.41,2.62 1.05,0.48 0.08,1.08 -1.4,0.92 -1.37,-0.19 -0.91,2.14 -1.29,-0.25 -1.5,1.11 -0.2,1.08 -1.74,0.88 -0.81,-0.23 -0.67,0.89 -1.14,-1.05 -0.62,0.33 0.45,1.76 -1.37,1.94 2.79,1.91 0.09,3.43 -6.8,0.08 -1.85,4.15 0,0 -8.37,-1.95 -1.17,-0.95 -2.73,0.72 0.13,1.48 -0.99,0.48 -0.23,1.22 -1.82,0.15 -1.36,-1.7 -1.62,-0.51 -0.44,-2.58 0.98,-1.23 0.85,0.87 2.24,-0.19 1.01,-2.06 0.31,-3.12 -1.73,-3.57 -1.76,0.36 -0.98,-2.88 -1.1,-1.07 0.21,-0.98 -4.14,-1.77 -0.93,-3.72 -2.21,-2.29 -4.43,-1.78 -3.39,-0.4 -3.08,-2.02 1.84,-1.13 0.14,-3.65 0.89,-1.29 -0.66,-1.47 -1.79,-1.34 -3.2,-1.49 -2.86,-0.31 -3.73,0.58 -0.39,1.77 -2.31,-0.78 -0.59,-3.94 1.69,-0.8 1.12,-6.21 -0.66,-11.12 -1.17,-2.9 -2.16,-2.26 -1.83,-5.45 -1.08,-0.1 -1.15,-3.16 -2.62,-1.98 -1.62,-4.33 0.32,-2.36 -1.86,-7.72 0.6,-0.88 -0.25,-4.01 -1.84,-8.73 -5.04,-7.69 -4.12,-3.65 -2.16,-1.04 0,0 2.23,-2.54 0.27,-1.38 -2.37,-1.47 -1.78,1.5 0.49,-1.23 -0.94,-1.39 -0.19,-2.36 -3.93,0.14 1.24,-1.98 0.75,-0.06 -1.47,-1.02 -2.08,1.75 0.43,-2.73 -0.81,-0.7 -0.09,-2.57 -2.59,-1.06 -4.03,-3.13 -1.01,-2.58 -1.46,0.03 z" 
                fill="rgb(151, 144, 238)" 
                stroke="white" 
                stroke-width=".7px"
                title="Toscana" 
                id="IT-52" 
            />
        </svg>