<svg xmlns="http://www.w3.org/2000/svg" viewBox="193.1402099999999 0.27050529999996953 107.24000000000007 104.9200047" width="107.24000000000007" height="104.9200047">
            <path 
                d="m 286.23021,0.7105053 1.73,1.36 -1.16,0.82 -0.54,2.17 -2.97,0.31 -1.32,1.27 0.85,3.7999997 1.6,1.52 -1.3,1.92 2.27,0.43 1.44,2.32 1.37,-1.07 1.76,0.41 1.58,3.22 -1.13,1.85 -0.06,2.32 3.62,0.65 1.37,4.26 5.04,2.91 0,0 -2.46,0.92 -1.67,1.87 -0.88,-0.2 0.38,1.33 -0.51,0.46 -1.26,0.06 -0.74,-0.89 -2.99,0.94 -1.21,-0.76 -3.34,2.65 -0.11,-2.26 -1.55,-0.98 -0.83,0.29 -3.93,-3.07 0.3,2.33 -1.51,2.68 0.17,1.49 -2.46,3.92 -0.58,-0.77 -1.16,0.06 -1.18,1.18 -1.57,-0.32 -4.87,2.46 -0.12,1.64 3.07,0.42 0.6,1.39 -2.3,2.72 -0.27,3.66 -0.81,-0.74 -2.36,1.43 2.91,2.44 0.58,1.4 -0.67,1.9 0.79,0.7 2.16,-0.5 0.44,1.94 0.64,-0.41 1.21,0.59 -0.79,1.97 2.43,2.22 -0.61,1.6 -1.1,-0.44 -1.71,3.95 -4.19,1.46 -2.23,-0.24 -0.75,0.78 -0.66,-0.77 -2.74,0.87 -0.01,2.02 0.93,1.53 -2.06,0.61 0.74,0.68 -0.73,0.81 1.14,2.02 -0.91,1.87 -4.21,-0.3 -0.54,-2.81 -1.89,-0.6 -2.15,0.29 -2.74,2.27 -3.62,-0.23 0.38,2.85 -1.29,0.16 -0.68,1.54 0.35,0.99 -2.48,-1.34 -0.07,-0.78 0.02,1.36 -2.42,-0.18 -0.86,4.91 -2.35,2.83 0.6,2.36 -1.55,-0.15 0.13,3.600005 -2.5,3.37 -1.6,-0.21 -1.93,-1.84 -1.64,0.88 -0.44,-1.17 -1.84,2.65 -0.49,-1.04 -1.5,1.69 -1.49,-0.93 0.65,-1.14 -2.05,-1.01 -2.19,-0.01 2.19,-4.030005 -0.78,-1.51 1.28,-1.1 -2.68,-1.66 0,0 -3.96,-0.77 -0.39,0.87 -1.27,-0.99 -4.01,0.81 -0.48,2.15 -1.97,0.06 -2.15,1.34 -1.32,-0.13 -0.41,-0.87 0.69,-1.39 -2.25,-0.96 -0.52,-4.31 0.91,-2.1 -1.3,-1.99 0.16,-2.03 -1.74,-0.32 -0.05,-1 0.57,-1.83 1.2,-0.95 -0.36,-1.9 3.33,-4.07 0.93,-4.42 -1.06,-1.59 2.27,-4.16 -0.51,-2.13 -0.81,-0.47 0.88,-1.27 -0.6,-2.02 -2.64,-1.27 2.59,-2.54 1.97,-0.12 1.49,-1.56 -0.84,-1.38 0.23,-2.2 -1.03,-1.36 -2.64,-1.77 -3.77,-0.3 -1.14,-2.69 0,0 1,-0.89 0.89,-5.07 -2.28,-2.08 -2.29,0.31 -0.84,-3.65 1.54,-1.91 -0.75,-1.75 2.19,-1.74 -1.22,-2.57 1.44,-0.8 1.46,-4.14 1.12,0.9 2.8,-0.2 -0.37,0.88 6.09,-2.84 1.36,0.77 -0.01,1.01 3.17,1.29 0.45,0.81 -1.75,2.64 1.34,0.23 1.63,-0.82 1.4,1.52 1.18,-0.49 2.48,1.45 1.66,-0.87 5.25,0.56 0.94,-2.86 2.29,-1.2 -0.62,-2.44 1.43,-2.62 -0.14,-1.8 0.9,-1.3 1.31,0.18 1.18,-0.88 0.14,-1.9499997 1.25,-0.37 0.92,0.6099997 5.77,-2.2299997 0.85,0.58 1.07,-0.47 2.39,1.95 1.87,-0.79 2,-2.72 2.93,2.12 4.2,-2.24 2.28,1.52 2.4,0.06 0.87,1.42 1.03,0.29 1.78,-1.65 2.79,-0.13 4.02,-3.1 1.61,-0.08 1.43,-1.15 2.23,0.19 1,-1.1 1.83,0.19 1.14,-1.44 1.07,0.39 3.38,-1.43 z" 
                fill="rgb(151, 144, 238)" 
                stroke="white" 
                stroke-width=".7px"
                title="Trentino-Alto Adige" 
                id="IT-32" 
            />
        </svg>