<svg xmlns="http://www.w3.org/2000/svg" viewBox="270.59020999999984 253.39051 70.11000000000013 87.37" width="70.11000000000013" height="87.37">
            <path 
                d="m 297.82021,254.98051 -0.52,-0.58 0,0 -0.19,-0.06 0,0 0.24,-0.68 0.66,0.31 0,0 0.1,0.53 0,0 -0.29,0.48 z m -11.03,-1.48 0.71,1.17 3.09,-0.04 0.35,0.56 2.08,-1.68 1.88,-0.12 -0.51,0.78 0.48,1.44 -2.92,2.7 1.36,1.42 1.43,-0.73 1.27,1.73 1.42,-2.09 0.99,0.13 0.83,1.42 0.92,0.05 0.29,-0.86 0.91,0.42 6.36,7.29 2.13,-1.29 2.23,0.82 1.32,-2.69 2.08,0.56 -0.37,2.01 0.9,0.84 -1.8,1.69 0.05,0.84 2.27,2.96 0.38,2.91 -0.62,0.7 1.88,1.34 0.67,3.42 1.39,0.69 -0.14,2.9 -1.62,1.55 0.67,1.54 2.07,0.42 0.57,1.71 -0.24,2.77 0.75,2.11 -0.87,0.66 0.94,1.95 -0.56,1.49 2.69,1.61 0.2,0.87 1.11,0.13 0.12,4.04 1.21,-1.36 0.02,-1.71 1.3,0.77 1.4,-1.39 3.01,2.3 2.5,3.94 2.67,-0.61 1.25,-1.82 1.41,3.62 -0.25,1.82 -0.92,1.9 -0.38,-0.77 -1.92,0.78 -0.25,2 0,0 -0.75,4.46 -1.33,1.28 -1.62,-0.64 -0.05,0.78 -2.8,1.72 -2.06,-1.08 -0.71,1.53 -3.25,-0.04 -0.79,0.97 -2.01,-0.99 -0.58,1.17 0.62,2.55 -2.09,0.67 -1.85,1.63 -2.05,-0.1 -0.17,1.33 -3.06,0.88 1.37,2.04 -2.99,1.97 -1.2,0.05 -0.89,-1.85 -1.19,0.08 -0.22,3.88 -4.33,3.36 -0.87,-1 0.05,-1.68 -3.64,0.53 0.97,-1.42 -2.29,-0.79 0.02,-2.06 0.68,-0.23 -0.74,-0.68 0.25,-1.86 -1.47,-0.16 -2,1.62 -1.23,-1.26 -1.87,0.22 0.69,-0.46 -1.52,-0.8 0.75,-0.67 -1.04,-0.85 0.21,-1.95 -1.67,-0.78 -0.55,-4.47 -1.67,-2.06 -1.62,-0.68 -1.38,1.19 -0.67,-0.21 -0.12,0.75 -1.01,-1.07 -3.68,1.31 -4.14,-2.56 -1.29,-2.11 1.85,-1.04 1.01,-1.98 -2.78,-1.79 -1.62,-3.88 0,0 1.95,-2.34 1.28,-0.08 -0.15,-1.81 -1.09,-0.75 2.42,-9.85 -1.27,-1.36 -0.84,1.05 -0.78,-1.57 0.33,-1.22 -0.88,-2.43 0.49,-1.32 5.18,-3.05 1,-2.73 -0.5,-1.32 0.83,-0.36 2.2,1.23 6.67,-4.18 -1.54,-1.26 -0.9,2.23 -2.23,-0.84 -0.39,-0.9 0.59,-1.71 -1.01,-2.29 -0.65,-0.6 -1.42,0.54 -0.11,-2.66 -2.14,0.22 -0.33,-1 1.71,-1.74 1.09,0.34 1.01,-1.7 2.13,-0.9 0.1,-0.56 -2.61,-1.48 0.17,-1.76 0.55,-0.56 2.19,0.18 0.77,-2.59 2.38,-3.25 z" 
                fill="rgb(151, 144, 238)" 
                stroke="white" 
                stroke-width=".7px"
                title="Umbria" 
                id="IT-55" 
            />
        </svg>