<svg xmlns="http://www.w3.org/2000/svg" viewBox="9.280210099999996 82.450505 58.2199999 38.07000500000001" width="58.2199999" height="38.07000500000001">
            <path 
                d="m 49.07021,82.450505 0.58,1.17 3.82,-0.54 0.91,1.48 1.32,0.54 0.64,1.93 1.6,-1.15 2.47,1.61 1.17,-0.66 2.07,0.73 0,0 0.7,4.06 -0.7,5.05 1.71,3.1 1.62,0.600005 0.36,1.2 -1.66,2.83 1.82,3.73 -1.2,0.24 -0.73,3.04 -1.01,-0.65 -2.64,0.2 -4.89,3.47 -0.68,-0.61 -2.32,0.38 -1.97,-1.3 -1.41,0.66 -0.13,-0.87 -2.01,-1.25 -2.08,1.13 -1.85,-0.47 -1.23,0.39 -0.93,1.57 -3.54,2.84 -0.96,-0.67 -1.88,0.89 -2.8,0.07 -2.39,3.01 -3.07,-1.07 -0.9,0.68 -0.36,-2.85 -1.77,3.56 0,0 -2.72,-0.39 0.27,-1.63 -2.79,-0.76 -0.23,-5.06 -0.95,-1 1.17,-3.79 -1.74,-1.05 -2.6,0.18 -0.52,-1.45 -2.45,-0.92 -2.5199999,-2.91 0.3699999,-1.2 -0.7599999,-2.950005 1.0099999,-4.14 1.19,-0.34 0.99,0.64 0.73,-1.19 1.79,0.62 1.49,-0.47 0.53,-1.03 2.31,-0.81 0.32,-2.06 2.06,-1.74 3.16,4.8 2.57,-1.55 1.86,1.5 1.24,-2.11 2.13,-0.06 1.83,-2.42 4.72,1.84 4.45,-2.8 -0.04,-0.99 1.35,-1.05 2.22,0.42 0.3,-2.13 z" 
                fill="rgb(151, 144, 238)" 
                stroke="white" 
                stroke-width=".7px"
                title="Valle d'Aosta" 
                id="IT-23" 
            />
        </svg>