<svg xmlns="http://www.w3.org/2000/svg" viewBox="205.64020999999983 31.27050499999994 126.63000000000014 137.92000500000006" width="126.63000000000014" height="137.92000500000006">
            <path 
                d="m 303.90021,157.45051 -1.35,0.77 0.94,-1.05 -0.9,-0.37 1.6,-0.18 -0.29,0.83 z m -1.64,-2.1 1.19,0.9 -2.37,0.53 0.62,-1.75 0.56,0.32 z m -0.37,-124.080005 2.84,1.95 5.54,-0.56 2.07,0.74 0.89,1.09 0,0 -0.19,1.8 0.97,1.66 -0.7,2.27 0.88,1.16 -2.55,0.06 -3.46,2.18 -0.12,0.94 1.23,0.8 0.4,1.74 -1.82,-0.78 -1.04,0.79 -1.85,-0.79 -1.57,1.25 -0.41,-0.43 -1.48,2.04 -0.28,1.75 -2,1.76 0.32,1.39 -0.6,-0.27 0.18,0.6 -1.83,0.93 -0.33,2.02 -1.91,-0.27 -1.04,0.84 0.04,1.99 -1.8,1.89 2.12,2.85 2.08,-0.01 0.26,1.58 1.84,-0.1 0.3,2.13 2.42,1.95 -0.45,3.58 -2.9,1.96 -1.77,2.81 0.92,0.8 0.71,2.6 0.02,3.47 1.43,0.04 1.05,1.51 1.48,0.01 1.26,4.53 1.39,1.26 -0.21,1.2 2,1.05 0.68,-1.6 1.24,0.66 0.12,0.9 1.12,0.52 0.05,1.62 3.88,-3.59 0.67,0.68 1.98,-2.1 1.13,0.84 -0.43,1 0.63,0.73 0.55,-1.04 2.17,-1.08 0.64,0.07 -0.4,1.1 1.25,1.14 1.52,-0.94 0.49,1.09 1.55,-0.5 -0.45,-1.41 0.59,-0.24 0.58,1.58 -0.04,0.31 0.4,0.37 -0.17,0.82 0.82,0.35 -1.09,0.64 2.03,1.93 -0.49,0.26 0.65,1.300005 -0.35,1.17 0.97,-0.71 0.57,2.67 0.79,0.2 -0.37,0.8 1.01,0.81 -0.17,1.32 0.98,-0.12 -0.12,0.61 1.07,0.6 0,0 -0.56,0.77 -4.92,0.34 0.09,-0.75 -0.91,-0.35 -0.48,1.36 -3,0.39 -0.95,1.29 -6.26,3.91 -15.92,7.41 -1.53,1.97 -1.67,-0.84 -1.92,2.58 -1.44,2.81 -0.1,1.08 0.83,0.39 -1.08,0.4 -1.56,6.49 1.36,0.42 -1.08,1.07 0.57,2.52 1.28,1.45 -0.29,5.3 1.44,1.22 1.58,3.1 -0.51,-0.34 -0.8,0.95 0.91,0.56 0.86,-0.63 -0.24,1.11 0.51,0.14 0.55,-0.31 -0.44,-1.76 0.49,0.03 4.3,5.37 -0.66,4.47 -1.07,0.98 0.04,2.85 -1.6,-0.55 0.34,-2.86 -1.02,-0.44 -0.92,0.38 -0.75,1.72 0.87,1.09 -0.38,2.07 0.78,0.66 0.65,-0.45 0.06,0.72 -1.32,-0.13 -0.11,1.44 -2.41,-1.92 0,0 -0.6,-2.18 -1.99,-0.51 -0.64,-0.95 -0.33,-2.89 0.63,-1.24 -0.83,-1.08 -1.08,0.01 -1.46,1.29 -2.15,-0.17 -0.81,-1.05 -1.48,0.97 -2.29,-3.08 -6.7,-1.07 -2.2,0.78 -6.27,-0.08 -2.92,1.36 -0.74,2.22 -3.19,0.9 -2.01,1.9 -1.24,0.12 -0.71,-0.24 -0.43,-1.62 -2.1,-1.41 -5.7,0.38 -0.16,-1.49 0,0 -0.23,-1.03 -7.98,-4.28 0,-2.46 -1.42,0.85 -3.13,-1.16 0.59,-1.62 -0.41,-1.01 1.27,-1.02 -3,-1.12 -0.93,1.68 -1.36,-0.73 -0.24,1.27 -1.2,-0.22 -2.32,-1.95 0.96,-1.88 -0.87,-0.55 -1.61,0.32 0.38,-1.71 -0.79,-1.22 -2.87,-1.3 0.1,-1.3 -1.82,-0.48 -0.11,-0.68 -2.64,-0.59 -1.12,-2.35 -1.96,-1.92 -2.41,2.01 -0.51,-0.99 -1.49,-0.38 0.68,-1.91 -0.99,-1.49 1.3,-0.97 -0.96,-0.75 0.96,-2.57 -2.46,-1.13 -0.7,0.81 -0.83,-0.18 0.41,-1.98 -1.13,-11.75 11.09,-16.500005 0,0 2.68,1.66 -1.28,1.1 0.77,1.52 -2.18,4.030005 2.18,0.01 2.05,1.02 -0.65,1.13 1.49,0.93 1.49,-1.69 0.49,1.05 1.85,-2.66 0.44,1.17 1.64,-0.88 1.93,1.84 1.6,0.21 2.5,-3.37 -0.13,-3.600005 1.55,0.15 -0.6,-2.37 2.35,-2.83 0.87,-4.9 2.42,0.18 -0.02,-1.36 0.07,0.78 2.48,1.34 -0.35,-0.98 0.68,-1.54 1.29,-0.16 -0.37,-2.84 3.62,0.23 2.74,-2.26 2.15,-0.29 1.89,0.6 0.54,2.81 4.21,0.3 0.91,-1.87 -1.14,-2.02 0.73,-0.8 -0.73,-0.68 2.06,-0.6 -0.93,-1.54 0.01,-2.02 2.74,-0.87 0.67,0.77 0.74,-0.77 2.24,0.24 4.18,-1.46 1.71,-3.95 1.1,0.44 0.6,-1.6 -2.42,-2.22 0.79,-1.97 -1.21,-0.58 -0.64,0.41 -0.44,-1.94 -2.16,0.5 -0.79,-0.7 0.68,-1.89 -0.58,-1.41 -2.92,-2.43 2.36,-1.44 0.81,0.74 0.27,-3.66 2.3,-2.71 -0.59,-1.39 -3.08,-0.42 0.12,-1.65 4.87,-2.46 1.57,0.33 1.17,-1.18 1.16,-0.07 0.58,0.77 2.47,-3.92 -0.17,-1.48 1.52,-2.69 -0.31,-2.33 3.94,3.08 0.83,-0.29 1.55,0.98 0.11,2.26 3.34,-2.65 1.21,0.76 2.98,-0.94 0.75,0.89 1.26,-0.06 0.51,-0.46 -0.38,-1.32 0.87,0.2 1.67,-1.88 2.47,-0.92 0,0 1.41,-0.09 z" 
                fill="rgb(151, 144, 238)" 
                stroke="white" 
                stroke-width=".7px"
                title="Veneto" 
                id="IT-34" 
            />
        </svg>