<svg xmlns="http://www.w3.org/2000/svg" viewBox="118.75328000000026 195.37825999999993 163.67999999999978 236.2000000000002" width="163.67999999999978" height="236.2000000000002">
            <path 
                d="m 138.53328,230.97826 1.95,2.2 1.38,2.48 8.89,0 -0.11,-3.49 -0.54,-0.76 -2.18,-1.04 -0.14,-0.73 0.33,-0.7 5.03,0.66 1.5,0.39 1.76,-0.39 2.98,-2.45 11.68,-6.82 1.78,-0.75 2.88,-0.64 2.72,-1.71 4.04,-0.91 1.27,-0.58 2.8,-1.99 1.72,-1.73 1.26,-1.53 1.19,-2.59 2.37,0.17 4.43,0.74 2.11,2.2 1.43,0.84 1.25,0.41 2.26,-0.02 1.67,-0.68 1.73,-0.35 2.64,0.2 1.31,-0.28 0.66,-0.59 0.54,-1.12 0.76,-0.55 0.31,-0.91 -2.06,-2.35 -0.62,-1.11 -0.07,-2.9 0.78,-1.12 2.04,-0.8 1.66,-1.12 0.66,-0.8 0.66,-2.12 0.35,-0.26 0.42,0.04 0.96,1.05 1.02,2.38 0.15,2.2 0.55,2.62 1.58,2.03 1.3,2.4 1.27,1.72 3.16,2.59 0.6,2.47 1.18,2.77 3.43,5.13 1.18,4.36 0.11,1.77 1.87,0.49 0.92,-0.18 0.75,-0.67 1.86,-2.77 0.84,-0.76 0.88,-0.41 2.28,1.31 0.24,0.34 0.73,2.4 1.6,3.88 0.9,1.05 2.79,0.44 3.05,-0.29 2.79,0.23 1.71,0.89 1.38,2.04 1.63,0.07 2.72,1.51 1.28,-0.24 2.85,-1.53 2.76,0.41 0.42,-0.13 0.42,-0.79 0.66,-0.54 10.15,12.15 0.26,0.85 -0.02,1.92 0.21,0.64 0,0 -0.5,0.69 -1.18,2.84 0.09,1.81 -0.21,1.16 -0.5,0.78 -2.33,2.33 -1.17,1.86 -4.38,11.1 -1.17,3.51 -0.45,7.25 0.67,5.71 -0.1,4.84 0.34,2.27 0.15,6.27 -1.31,1.03 -0.17,0.75 -0.47,0.41 -3.36,1.68 -0.94,0.15 -0.57,-0.3 -0.33,0.06 -0.31,1.03 -0.98,-0.2 -1.2,0.57 -0.3,0.37 -0.28,1.24 0.02,0.94 -0.62,0.72 -1.12,-0.46 -0.87,0.44 -0.4,-0.05 -0.68,-0.63 -0.04,-0.7 -0.51,-0.6 -0.63,-0.24 -0.87,0.17 -1.18,-1.47 -1.17,-0.36 0,0 -1.09,0.24 -1.01,-0.13 0,0 -0.18,0.69 0.2,1.67 0.73,0.79 0.83,1.6 0.13,1.39 0.86,0.94 -0.62,1.16 -0.66,0.44 -0.54,1.44 0.12,2.24 -0.41,0.73 0.04,2.56 0.88,1.31 0.86,4 1.27,1.81 0.03,0.37 -0.33,0.54 0.09,0.57 0.72,0.84 0.88,3.02 0,1.68 -0.22,0.68 0.37,1.3 -0.66,0.44 -0.15,0.89 -0.79,1.23 -0.07,5.41 0.2,1.13 0.96,2.51 -0.2,0.63 0.18,0.9 -0.46,0.37 0.3,0.25 0.87,7.35 2.6,2.16 2.16,0.87 1.74,2.16 3.03,2.16 2.16,3.9 0.87,2.16 2.6,2.16 2.6,0 1.73,3.03 1.73,3.9 0,4.33 -1.73,5.2 -3.03,0.87 -3.03,-0.67 0,0 0.19,-0.84 -9.94,-0.02 -0.49,2.73 -24.28,0.04 0.11,0.99 0.5,0.87 -0.95,0.99 -1.21,2.88 0.31,1 -0.58,3.35 0.24,1.75 0.85,1.82 0.76,1.04 -0.73,0.54 -0.33,0.49 -0.83,0.43 0.26,0.98 -0.65,1.08 -2.97,0.06 -0.04,0.27 -0.35,0.19 0.29,1.09 0.64,1.09 0.37,1.61 -0.27,0.42 -0.46,2.21 -0.8,0.93 -0.18,2.17 0.02,1.07 0.52,2.66 -18.35,0.15 -0.71,-1.17 0.17,-0.2 -0.12,-1.15 -7.92,-0.04 0.11,1.27 -0.27,1.29 -4.37,0 0.24,0.42 -0.73,0.46 -0.7,-0.03 -1.11,-0.28 -0.48,-0.13 0.11,-0.64 -0.44,-0.18 -1.05,0.18 -1.42,-0.14 -2.04,0.61 -0.58,0.85 -1.18,0.17 -0.35,0.9 0.52,0.62 -0.1,0.37 -3.22,-0.04 -0.58,0.48 -1.35,-0.97 -1.76,-0.11 -1.91,0.4 -0.91,0.63 -2.43,-0.46 -1.15,0.15 -2.36,0.87 -1.64,-0.03 -0.99,-0.83 -0.04,-0.3 -0.73,-0.31 -0.02,-0.45 0.4,-0.71 0.49,-0.09 -0.8,-0.99 -0.76,-0.42 0.13,-1.58 -0.95,-0.22 -0.51,-0.54 0.41,-1.41 -0.97,-0.44 0.21,-0.87 -0.91,-0.03 -0.52,-0.67 0.05,-0.91 -1.42,-0.46 -0.72,-0.63 0.31,-1.34 -0.44,-0.51 -0.85,-0.37 0.33,-1.95 -2.04,-1.05 -0.55,-0.58 -0.72,-1.44 0.23,-0.67 -0.17,-0.41 -1.4,-0.78 0.12,-0.68 0.9,-0.3 -0.09,-0.4 -0.78,-0.23 -0.5,-0.63 -0.39,0.62 -0.73,-0.07 0.21,-1.86 -0.23,-0.59 -1.06,-0.11 -1.01,-0.69 -0.47,-0.75 -0.8,0.07 -0.05,-1.18 -0.49,-1.05 -1.12,-0.88 0.04,-0.47 0.5,-0.59 -0.54,-0.56 -0.09,-0.85 -0.72,-1.67 0.34,-0.43 0.44,0.55 0.49,-0.11 0.09,-0.98 0.38,-0.66 -0.31,-1.19 -0.73,-0.18 -0.37,-0.47 0.27,-1.14 -0.33,-0.49 0.03,-1.45 -0.71,-0.55 -0.64,0.17 -0.62,-0.36 -0.14,-1.33 -1.12,-1.09 -0.19,-1.79 -0.96,-0.52 -0.23,-0.53 -0.55,-2.84 -0.81,-0.48 -0.07,-0.42 0.44,-1.2 -1.15,-0.89 0.24,-0.86 -0.75,-0.89 0.68,-0.66 -0.61,-0.57 -0.64,0.08 -0.19,-1.58 0.08,-0.17 0.83,0.19 0.2,-0.18 0.09,-0.55 -0.49,-1.53 0.29,-1.01 -0.26,-0.76 0.65,-1.34 -0.3,-0.89 -1.02,-0.85 -0.61,-0.05 -0.8,-0.34 0.07,-0.88 -1.32,-0.45 -0.24,-0.86 0.27,-0.59 -0.29,-1.24 -0.3,-1.12 0.37,-0.78 -0.03,-0.76 -2.82,-1.29 -2.19,0.57 -1.25,-0.25 -0.64,-0.66 -9.34,0.19 0,0 0.65,-1.3 2.34,-1.59 1.4,-3.4 0.25,-2.21 -0.53,-6.38 1.3,-6.11 -0.38,-2.86 0.05,-1.71 0.83,-2.29 0,0 -0.04,-2.9 -0.58,-3.74 2.01,-2.58 3.48,-6.21 0.38,-0.36 1.64,-0.04 0,-0.57 0.71,-0.84 0.37,-1.64 0.51,-0.38 -0.22,-0.43 0.46,-0.66 0,-0.39 -0.51,-1.04 0.31,-0.38 0,-0.56 -0.42,-0.92 -0.75,-0.89 -1.37,-0.75 -2.23,-3.57 -2.41,-1.07 -3.6,-2.23 -1.29,-0.48 -1.61,-0.19 -5.01,0.35 -1.85,-1.14 0,0 0.57,-0.72 0.76,-2.75 1.84,-3.27 1.83,-4.14 1.75,-2.32 0.63,-1.89 1.75,-2.6 1.13,-3.16 -1.06,-0.92 -0.17,-0.54 0.28,-1.64 -0.46,-3.09 0.54,-2.74 -0.52,-2.82 0.04,-1.68 0.77,-2.61 0.08,-2.12 0.83,-1.84 0.15,-1.4 -1.7,-7.71 0.23,-5.02 1.62,-3.27 3.75,-2.68 2.49,-2.61 z" 
                fill="rgb(151, 144, 238)" 
                stroke="white" 
                stroke-width=".7px"
                title="Bandundu" 
                id="CD-BN" 
            />
        </svg>