<svg xmlns="http://www.w3.org/2000/svg" viewBox="0.3332842599999234 308.4082600000005 130.47999574000005 57.45999999999992" width="130.47999574000005" height="57.45999999999992">
            <path 
                d="m 9.1832843,362.74826 0.04,0.41 -0.16,0.28 -0.47,0.37 0.07,-0.35 -0.89,0.6 -0.42,-0.29 0.04,0.18 -0.44,0.12 -0.11,-0.59 0.47,-0.44 1.87,-0.29 z m 61.5299997,-53.04 -0.5,0.57 1.65,2.28 1.39,0.78 -0.41,0.29 -0.31,0.77 -0.87,0.74 -0.04,0.86 -0.26,-0.2 -0.38,-0.01 -0.97,0.35 -0.73,0.6 -0.31,0.66 0.25,0.6 0.78,0.42 -0.11,0.63 0.24,0.71 0.92,-0.03 0.48,0.59 -0.62,2.2 -0.06,1.35 0.28,0.54 -0.5,0.74 0.06,1.74 0.42,1.17 2.36,-1.58 0.6,0.31 1.58,0.24 1.1,1.22 1.74,0.63 1.42,-0.19 1.57,-1.32 1.97,-1.05 0.83,-0.21 0.74,-0.59 0.28,-0.81 0.35,-0.27 0.2,-0.9 1.18,-2.35 2.25,-2.1 0.38,-0.74 1.38,-1.49 2.23,-1.7 1.37,-2.22 0,0 3.23,4.86 2.309996,2.24 1.14,0.51 1.15,-0.37 0.5,-1.09 -0.17,-1.52 0.57,-0.7 0.71,-0.43 1.57,-0.22 3.08,0.88 2.26,-0.31 0.77,0.18 0.13,0.72 -1.05,1.87 0.28,0.4 2.28,0.78 0.4,0.33 0.2,1.11 -0.73,1.81 -0.36,2.73 -1.03,0.75 -1.96,0.27 -0.37,0.75 0.71,1.14 2.72,1.98 2.79,0.79 1.65,-0.19 0.73,-1.03 0.11,-2.33 0.2,-0.39 3.54,2.92 8.81,0.09 0,0 -0.83,2.29 -0.04,1.7 0.38,2.86 -1.3,6.11 0.54,6.39 -0.25,2.2 -1.41,3.4 -2.34,1.59 -0.65,1.3 0,0 -7.56,0.23 -5.99,-0.34 -4.62,0.22 -18.039996,-0.11 -8.46,0.25 -3.33,0.94 -2.76,-0.63 -1.62,0.35 -2.97,-0.16 -2.27,-0.44 -2.04,0.22 -1.74,-0.88 -0.42,0.23 -2.72,-0.08 -1.31,0.58 -1.66,-1.36 -1.12,0.52 -1.81,-0.08 -2.1,0.63 -8.21,-0.03 -0.83,0.06 -1.33,-0.33 -3.56,0.06 -0.45,0.18 -0.73,0.79 -3.57,-1.14 -2.04,0.31 -1.97,0.83 -0.64,-0.21 -0.74,-0.69 -1.04,-0.07 -0.93,0.2 -3.96,2.24 -2.18,0.82 -2.33,0.17 -1.74,1.03 -2.52,0.25 -2.52,1.2 -2.8499997,0.8 -0.15,-0.72 -0.4,-0.12 -0.01,-0.55 0.51,-0.27 0.52,0.04 0.92,-1.07 -0.16,-0.22 -0.04,-0.2 0.13,-0.15 -0.15,-0.09 -0.08,-0.04 -2.13,0.21 -0.44,0.24 -0.2,-0.02 -0.16,0.12 0.27,1.12 -0.32,-0.88 -1.61,-1.83 -0.11,-0.56 -0.15,0.09 -1.34,-1.12 -2.18000004,-2.58 -0.62,-1.35 1.89000004,-0.83 8.6299997,-0.3 0.08,-19.08 -1.3899997,-0.51 -0.74,-1.03 0.27,-0.62 1.5999997,-0.04 0.74,-0.56 0.72,0.02 0.73,-0.34 0.56,-0.59 0.45,0.01 0.37,-0.96 -0.25,-0.97 0.22,-0.34 1.03,0.26 1.47,-0.3 0.4,-1.49 0.79,-0.85 0.77,-0.23 0.69,-0.74 -0.2,-0.62 1.46,-2.28 0.68,-0.45 0.62,-0.29 1.4,0 2.01,-0.93 1.57,-0.3 0.77,-0.48 1.24,0.34 0.39,-0.66 -0.27,-0.89 0.03,-1.27 0.77,-0.45 2.67,2.63 0.74,0.35 1.01,1.51 -0.32,0.36 0.96,1.06 0.92,0.49 1.01,-0.04 0.46,0.39 0.43,0.04 0.47,1.56 -0.21,0.13 -0.05,0.5 1.78,1.69 0.12,-0.45 -0.54,-0.99 0.12,-0.18 0.76,-0.17 1.26,0.22 0.27,-0.9 0.46,-0.39 1.28,-0.51 0.77,0.26 0.63,-0.26 1.31,-2.37 0.46,0.04 0.75,0.7 0.54,0.18 0.27,-0.86 -0.44,-0.95 1.42,-0.08 0.03,-0.87 -0.51,-0.2 -0.15,-0.78 0.34,-0.6 -0.16,-0.43 0.65,-0.82 0.47,-1.12 0,-0.82 -0.7,-1.42 0.07,-0.95 0.26,-0.29 0.77,-0.12 0.62,-0.63 1.21,-0.08 1.08,0.82 0.98,1.69 2.44,0.54 1.33,-1.41 0.8,-1.57 0.35,0.05 1.28,-0.61 0.72,0.12 1.73,-0.55 0.81,0.19 2.51,-1.33 1.08,-1.05 0.6,0.06 0.4,-0.4 1.18,0 0.27,-0.79 1.3,-0.33 0.24,0.31 -0.43,0.99 z" 
                fill="rgb(151, 144, 238)" 
                stroke="white" 
                stroke-width=".7px"
                title="Bas-Congo" 
                id="CD-BC" 
            />
        </svg>