<svg xmlns="http://www.w3.org/2000/svg" viewBox="310.91328 227.13826000000006 139.94999999999965 198.37999999999988" width="139.94999999999965" height="198.37999999999988">
            <path 
                d="m 310.91328,251.26826 1.69,-2.39 3.1,-1.42 2.15,-2.51 0.77,-0.5 0.4,0 0.77,0.46 0.46,0.72 0.13,1.48 -0.37,1.64 0.5,1.16 1.69,0.61 0.82,-0.29 0.33,-0.39 0.28,-0.81 -0.16,-1.2 -1.86,-5.88 -0.97,-5.54 -1.16,-2.6 -0.07,-0.39 0.66,-0.85 0.9,0.09 3.47,1.08 6.04,0.6 0.73,-0.42 1.84,-2.27 1.14,-2.34 0.55,0.51 1.18,-0.33 2.68,1.5 1.83,0.15 1.6,0.82 1.25,0.95 0.88,1.53 1.87,-0.85 1.21,-0.23 1.32,0.12 1.13,0.44 0.84,0.59 2.08,3.23 0.66,0.63 1.87,-1.02 7.07,-1.38 2.57,-0.15 3.64,0.43 -0.1,-2.05 0.24,-0.74 2.45,-0.44 0.27,-1.43 0,-2.1 0.57,-0.79 0.76,-0.43 1.72,-0.22 3.43,0.25 1.6,-1.16 12.1,1.77 0.24,-0.14 0,0 0.97,4.93 0,0 0.33,2.46 0.63,2.19 1.63,2.55 2.54,3.22 2.82,6.03 1.45,0.43 1.93,0.03 9.57,-0.73 -0.39,3.37 -0.48,1.71 0.39,1.4 0.01,1.46 0.71,1.73 0.11,0.94 -1.14,2.16 -0.59,2.26 -1.59,2.99 0.05,0.59 0.7,1.04 -0.26,0.39 -0.53,-0.34 -0.29,0.15 0.05,0.35 0.48,0.39 -0.35,0.77 0.44,0.63 -0.59,0.72 -0.13,0.91 -0.86,0.46 -0.02,0.53 -0.42,0.46 0.16,0.71 -0.16,0.29 -1.38,0.08 -0.51,0.38 0.04,0.34 0.42,0.24 -0.22,0.66 0.03,1.35 -1.35,0.48 -0.43,1.07 -0.46,0.22 -0.35,1.18 -0.99,0.08 -0.51,0.37 -0.03,0.52 0.78,0.99 0.02,0.4 -0.5,0.58 -0.71,0.09 0.24,0.42 -0.11,0.76 0.4,0.46 0.09,1.33 0.54,0.33 -0.19,0.67 0.11,0.54 -1.24,1.2 0.08,0.48 -0.97,0.99 0.26,0.56 -0.09,0.38 1.05,0.45 -0.19,0.7 0.97,-0.14 0.54,0.33 0.03,0.33 -0.4,0.07 -0.07,0.28 1.06,1.59 0.74,-0.18 -0.04,0.97 0.55,0.11 0.9,0.87 -0.13,1.17 0.79,0.99 0.45,0.13 0.52,-0.37 0.79,0.52 0.09,1.6 0.78,0.76 -0.48,0.39 -0.02,0.37 0.83,0.72 -0.35,0.89 -0.04,1.21 0.44,0.87 0,0.59 -0.66,1.11 -0.06,1.2 -0.64,0.91 1.16,1.7 0.02,0.72 -2.1,1.86 -0.42,0.7 -0.16,0.89 -0.5,-0.02 -0.22,0.44 -0.84,0.5 -0.61,1.59 0.35,1.68 0.66,0.43 0.62,1.62 0.72,0.35 0.27,0.63 0.79,0.33 0.39,0.92 1.03,0.95 0.27,0.62 0.01,1.18 0.53,0.56 0.09,0.74 0.66,0.66 0.24,0.76 38.61,-0.02 0,0 -0.18,1.76 -1.78,3.63 -2.91,3.89 -1.12,3.18 2.1,3.68 -2.07,2.35 -0.45,1.25 0.02,0.87 0.57,1.19 2.84,2.65 0.09,0.48 -0.46,2.86 0.37,5.07 -1.23,1.93 0.05,0.86 1.4,2.8 -0.66,1.54 -0.7,0.43 -2.11,-0.26 -1.17,0.15 -1.42,1.38 -0.79,0.15 -0.61,-0.51 -0.08,-1.47 -0.66,-0.67 -2.47,-0.86 -1.91,-0.26 -1.56,1 -2.85,2.75 -2.63,0.43 -1.5,1.05 -0.79,0.09 -3.77,-0.83 -2.27,0.1 -1.19,0.99 -0.5,1.24 1.14,1.88 0.76,0.55 1.31,1.57 0.45,0.4 0.38,-0.27 0.31,0.13 0.27,0.39 0.27,-0.2 0.48,0.16 2.59,-0.44 0.4,0.18 0.16,1.15 -1.59,0.62 -0.25,0.3 0.17,1.19 -0.53,0.76 -0.13,0.99 -0.39,0.57 -4.31,1.63 -0.52,-0.06 -1.06,-1.23 -1.1,-0.8 -2,-0.83 -3.13,-0.48 -3.48,0.25 -0.73,0.6 -0.66,1.18 -0.09,0.52 0.41,1.15 -0.14,0.41 -1.93,1.21 -3.04,2.47 -3.48,1.18 -1.69,1.82 -2.03,0.01 -0.87,0.22 -0.54,1.53 -0.34,0.39 -0.76,0.32 -1.1,0 -1.58,-0.51 -4.03,-1.98 -0.5,-0.59 0.14,-1.65 -0.31,-0.69 -0.66,-0.74 -1.23,-0.4 -0.37,0.13 -0.55,0.77 0.66,1.02 -1.08,0.69 0.13,0.29 0.44,0.1 0.22,0.44 -0.45,0.59 0.54,0.53 -0.29,1.06 -0.7,0.62 -1.78,0.45 -0.37,0.82 -0.69,0.64 -0.58,1.38 -1.27,0.97 -0.31,0.57 0.54,1.47 -0.63,2.24 0.36,0.49 0.84,0.27 0.18,0.49 -0.77,0.8 -0.26,1.89 -0.65,2.01 -0.74,0.6 0.17,0.5 -0.27,0.79 0.22,1.06 -0.27,0.62 0.09,2.21 -0.2,1.08 1.09,1.79 0.16,0.52 -0.13,1.08 -2.05,-0.18 -1.55,0.29 -0.73,0.57 -0.28,1.15 -0.82,0.48 -0.79,0.03 -0.4,-0.35 -0.13,-0.88 -0.35,-0.17 -0.89,1.07 -0.78,0.4 -4.13,-0.1 -1.19,0.56 -1.26,0.21 -1.33,-0.16 -1.68,-0.66 -1.92,0.18 -1.15,-0.61 -0.4,0.26 -0.74,1.19 -0.83,0.18 -0.7,-0.28 -0.52,-0.73 -0.32,-2.02 -0.59,-1.57 0,0 0.6,-4.07 0.17,-3.89 1,-5.36 0,-1.73 -0.34,-1.77 0.22,-2.49 -0.63,-2.31 1.84,-5.17 -0.03,-0.39 -1.48,-1.92 -0.8,-0.62 -2.91,-1.39 -2.03,-3.28 -0.77,-0.69 -1.56,-0.81 -0.35,-0.37 -0.4,-1.11 0.05,-1.5 2.46,-4.46 0.64,-1.57 0.59,-3.62 1.67,-2.64 -0.39,-1.2 -1.98,-1.24 -0.93,-1.2 -0.61,-1.24 -0.57,-2.39 0.04,-4.09 0.8,-1.94 1.12,-0.68 4.14,-0.17 4.35,-0.57 3.25,-1.44 0.4,0.19 -0.53,1.58 0.26,0.46 0.42,0.12 2.46,-1.05 0.68,-1.12 0.86,-0.66 3.02,-1.05 1.68,-1.02 1.86,0.19 0.4,-0.69 -0.16,-6.41 -0.28,-0.73 -2.57,-0.76 -3.23,-1.79 -2.94,-0.87 -0.42,-0.35 -0.13,-0.79 -0.55,-0.72 -1.19,0.23 -2.65,1.02 -1.96,-0.02 -2.81,-3.53 -5.55,-4.46 -0.59,-0.69 -0.12,-3.41 1.02,-1.78 4.85,-1.33 0.76,-0.44 0.53,-0.79 -0.07,-1.57 -0.63,-3.27 -0.64,-1.57 -0.39,-0.39 -2.87,-0.2 -2.82,-0.59 -2.24,-0.06 -0.85,-0.33 -1.87,-2.36 -3.76,-3.89 -1.99,-1.45 -3.16,-1.31 -3.32,-2.47 -1.1,-1.67 -2.5,-2.78 -1.36,0.14 -2.62,1.37 -0.79,-0.04 -0.81,-0.3 -1.38,-1.49 -2.07,-0.29 0.35,-0.95 0.69,-0.63 1.6,-0.42 3.01,0.02 0.3,-0.9 -1.23,-3.61 -0.99,-2.06 -0.67,-0.57 -2.73,-0.61 -0.73,-0.4 -0.85,-1.14 -0.3,-1.96 0.17,-1.73 0.49,-0.81 1.55,-1.5 0.55,-1.48 0.2,-1.69 1.1,-1.49 0.79,-1.67 1.82,-4.97 0.57,-2.62 -0.92,-2.81 -1.65,-2.7 -1.47,-1.88 -2.54,-2.51 -0.51,-3.29 -0.45,-1.23 z" 
                fill="rgb(151, 144, 238)" 
                stroke="white" 
                stroke-width=".7px"
                title="Kasai-Oriental" 
                id="CD-KE" 
            />
        </svg>