<svg xmlns="http://www.w3.org/2000/svg" viewBox="251.12327999999982 246.32825999999994 118.80000000000015 178.0800000000001" width="118.80000000000015" height="178.0800000000001">
            <path 
                d="m 269.96328,393.40826 3.03,0.67 3.03,-0.87 1.73,-5.2 0,-4.33 -1.73,-3.9 -1.73,-3.03 -2.6,0 -2.6,-2.16 -0.87,-2.16 -2.16,-3.9 -3.03,-2.16 -1.74,-2.16 -2.16,-0.87 -2.6,-2.16 -0.87,-7.35 -0.3,-0.25 0.46,-0.37 -0.18,-0.9 0.2,-0.63 -0.96,-2.51 -0.2,-1.13 0.07,-5.41 0.79,-1.23 0.15,-0.89 0.66,-0.44 -0.37,-1.3 0.22,-0.68 0,-1.68 -0.88,-3.02 -0.72,-0.84 -0.09,-0.57 0.33,-0.54 -0.03,-0.37 -1.27,-1.81 -0.86,-4 -0.88,-1.31 -0.04,-2.56 0.41,-0.73 -0.12,-2.24 0.54,-1.44 0.66,-0.44 0.62,-1.16 -0.86,-0.94 -0.13,-1.39 -0.83,-1.6 -0.73,-0.79 -0.2,-1.67 0.18,-0.69 0,0 0.57,0.13 1.53,-0.24 0,0 1.17,0.36 1.18,1.47 0.87,-0.17 0.63,0.24 0.51,0.6 0.04,0.7 0.68,0.63 0.4,0.05 0.87,-0.44 1.12,0.46 0.62,-0.72 -0.02,-0.94 0.28,-1.24 0.3,-0.37 1.2,-0.57 0.98,0.2 0.31,-1.03 0.33,-0.06 0.57,0.3 0.94,-0.15 3.36,-1.68 0.47,-0.41 0.17,-0.75 1.31,-1.03 -0.15,-6.27 -0.34,-2.27 0.1,-4.84 -0.67,-5.71 0.45,-7.25 1.17,-3.51 4.38,-11.1 1.17,-1.86 2.33,-2.33 0.5,-0.78 0.21,-1.16 -0.09,-1.81 1.18,-2.84 0.5,-0.69 0,0 5.04,0.76 2.5,0 1.8,-0.2 2.46,-0.9 2,0.07 0.41,-0.31 0.26,-4.09 0.25,-0.22 1.65,0.78 1.09,0.23 1.47,1.41 1.45,0.33 1.26,1.18 2.08,0.74 2.44,1.5 2.32,-1.23 0,0 1.93,1.53 0.45,1.23 0.51,3.29 2.54,2.51 1.47,1.88 1.65,2.7 0.92,2.81 -0.57,2.62 -1.82,4.97 -0.79,1.67 -1.1,1.49 -0.2,1.69 -0.55,1.48 -1.55,1.5 -0.49,0.81 -0.17,1.73 0.3,1.96 0.85,1.14 0.73,0.4 2.73,0.61 0.67,0.57 0.99,2.06 1.23,3.61 -0.3,0.9 -3.01,-0.02 -1.6,0.42 -0.69,0.63 -0.35,0.95 2.07,0.29 1.38,1.49 0.81,0.3 0.79,0.04 2.62,-1.37 1.36,-0.14 2.5,2.78 1.1,1.67 3.32,2.47 3.16,1.31 1.99,1.45 3.76,3.89 1.87,2.36 0.85,0.33 2.24,0.06 2.82,0.59 2.87,0.2 0.39,0.39 0.64,1.57 0.63,3.27 0.07,1.57 -0.53,0.79 -0.76,0.44 -4.85,1.33 -1.02,1.78 0.12,3.41 0.59,0.69 5.55,4.46 2.81,3.53 1.96,0.02 2.65,-1.02 1.19,-0.23 0.55,0.72 0.13,0.79 0.42,0.35 2.94,0.87 3.23,1.79 2.57,0.76 0.28,0.73 0.16,6.41 -0.4,0.69 -1.86,-0.19 -1.68,1.02 -3.02,1.05 -0.86,0.66 -0.68,1.12 -2.46,1.05 -0.42,-0.12 -0.26,-0.46 0.53,-1.58 -0.4,-0.19 -3.25,1.44 -4.35,0.57 -4.14,0.17 -1.12,0.68 -0.8,1.94 -0.04,4.09 0.57,2.39 0.61,1.24 0.93,1.2 1.98,1.24 0.39,1.2 -1.67,2.64 -0.59,3.62 -0.64,1.57 -2.46,4.46 -0.05,1.5 0.4,1.11 0.35,0.37 1.56,0.81 0.77,0.69 2.03,3.28 2.91,1.39 0.8,0.62 1.48,1.92 0.03,0.39 -1.84,5.17 0.63,2.31 -0.22,2.49 0.34,1.77 0,1.73 -1,5.36 -0.17,3.89 -0.6,4.07 0,0 -0.54,0.21 -1.11,1.02 -0.83,0.35 -4.36,1.48 -2.26,0.43 -1.98,-0.8 -1.62,0.19 -2.08,-0.52 -0.4,-0.3 -0.52,-1.13 -0.44,-2.28 -0.53,-0.76 -0.7,-0.45 -0.6,0.07 -2.33,2.01 -0.76,0.37 -3.65,-0.02 -4.34,0.57 -2.07,-0.23 -1.45,-0.6 -2.06,-0.28 -2.07,-1.03 -1.52,-1.44 -4.46,-1.68 0,0 0.07,-0.79 0.65,-0.72 0.15,-1.48 -0.54,-1.08 0.66,-1.45 -0.04,-1.04 -0.56,-1.82 -0.59,-1.87 -1.05,-0.79 -0.21,-0.61 -39.7,-0.08 -0.17,-1.99 0.24,-2.42 0.25,-1 0.76,-1.39 0.46,-2.04 0.92,-0.97 z" 
                fill="rgb(151, 144, 238)" 
                stroke="white" 
                stroke-width=".7px"
                title="Kasai-Occidental" 
                id="CD-KW" 
            />
        </svg>