<svg xmlns="http://www.w3.org/2000/svg" viewBox="305.99327999999986 331.32826 289.3099999999999 272.9699999999996" width="289.3099999999999" height="272.9699999999996">
            <path 
                d="m 450.86328,331.32826 65.73,0 0,0 16.78,0 0,0 16.97,0.01 0,0 2.16,6.46 2.92,6.79 1.47,4.5 0.74,3.47 0.28,3.33 -0.23,2.79 -0.71,3.44 0.04,5.88 0.5,3.38 1.93,5.16 2.93,4.49 1.44,1.78 3.68,3.18 5.73,4.1 3.16,3.34 1.75,2.61 3.86,7.25 2.05,5.47 3.76,7.81 3.57,10.26 0.9,0.62 1.89,3.53 0.57,2.41 0.57,1.27 -20.86,2.83 -3.95,0.13 -35.19,5.1 1.49,3.02 0.5,2.19 -0.67,2.65 -1.49,2.45 -4.77,6.09 -1.67,1.62 -1.55,1.21 -5.26,3.2 -2.09,1.65 -0.76,0.74 -0.97,2.03 -0.08,2.21 0.75,0.94 1.03,0.46 1.51,-0.54 1.37,-1.59 0.65,0.23 0.22,0.71 -0.58,1.96 0.63,0.64 0.75,0.55 0.35,0.34 0.51,2.86 0.94,0.71 -0.08,1.04 0.54,1.06 -0.17,2.04 0.6,0.72 0.82,0.13 0.17,0.7 0.75,0.91 -0.82,0.48 -0.56,2.45 -0.93,1.95 0.37,2.1 -0.39,1.64 -0.08,2.72 -1.27,1.78 -0.16,0.6 1.17,1.76 0.73,0.68 -0.48,2.26 0.68,1.99 -0.28,2.63 0.08,0.33 1.11,1.03 -0.17,1.9 0.68,0.6 0.31,0.81 -0.26,0.57 -0.67,0.46 -0.18,0.8 -1.02,-0.12 -0.65,0.33 -0.21,1.36 -1.6,2.1 -0.51,3.59 -0.94,1.03 -0.02,1.82 -0.4,0.73 -0.62,1.68 0.65,1.47 0.02,1.03 -0.48,1.24 0.16,0.77 -0.54,1.34 -0.46,0.26 -0.23,1.03 0.32,1.49 -1.01,0.45 0.08,0.91 -0.32,1.07 -0.81,0.93 0.15,0.95 -0.56,2.65 1.6,1.96 -0.43,1.04 0.54,0.72 -0.65,0.85 0.66,0.56 0.39,0.85 -0.33,1.23 0.06,0.76 1.38,-0.11 0.64,1.03 0.07,0.67 2.33,1.02 1.22,0.06 0.81,1.29 2.6,1.25 0.89,-0.21 0.34,0.2 0.61,2.12 1.73,1.48 0.74,1.21 2.93,2.41 1.66,2.46 0.19,1.14 1.35,2.03 0.62,0.14 1.32,-0.32 0.7,0.52 1.98,-0.81 1.34,0.14 1.09,-0.34 0.93,0.82 -0.01,0.64 1.2,0.31 1.06,-0.19 3.48,1.91 0.79,-0.05 0.88,-0.85 0.34,-0.7 -0.1,-0.66 -1.24,-0.26 -1.27,-1.97 0.37,-1.97 0.69,-1.13 2.76,-1.49 0.67,0.01 1.2,0.44 1.07,0.02 1.8,-0.55 1.25,-0.98 1.44,-0.12 0.06,42.4 -1.03,-0.59 -2.07,0.61 -1.04,-0.81 -1.07,0.21 -1.15,-0.93 -0.08,-0.49 0.2,-0.38 -0.31,-0.62 1.53,-0.43 0.35,-1.31 -0.31,-0.71 0.92,-0.78 -0.38,-1.25 -1.13,0.39 -1.48,-0.81 -0.91,0.46 -1.04,0 -2.77,2.82 -2.45,0.41 -0.53,0.71 -1.05,-0.53 -0.54,1.42 -1.63,0.58 -2.1,1.64 -0.71,-1.37 -0.57,-0.66 -0.68,-0.37 -1.09,0.25 -2.16,1.32 -0.53,-0.06 -0.88,-1.3 -0.25,-1.09 -0.73,-1.26 -0.13,-1.06 -1.21,-3.6 -0.91,0.02 -0.59,-0.2 -0.32,-0.37 -0.01,-1.29 -0.02,-0.81 -0.36,-0.79 -0.24,-1.5 -1.16,-1.52 -1.13,-0.85 -0.94,-2.02 -2.36,-1.88 -0.84,0.05 -0.7,0.72 -0.52,1.38 -0.51,0.27 -0.16,-0.51 -0.75,-0.69 -0.5,-1.81 -2.02,-2.18 -0.3,-1.16 0.68,-0.47 1.01,-0.16 0.46,-1.47 -0.23,-0.52 -0.84,-0.82 -1.43,-0.97 0.14,-1.08 -0.26,-0.46 -1.21,-0.5 -2.85,-2.67 -1.78,-0.2 -0.77,0.32 -0.7,-0.53 -0.78,-0.17 -0.47,-0.6 -0.87,0.78 -0.04,0.7 -0.69,0.24 -1.21,-2.5 -0.35,-0.2 -2.03,-0.1 -0.74,-0.35 -1.09,0.49 -0.22,-0.45 0.16,-0.85 -1.14,-2.4 -1.67,0.12 -1.52,-0.46 -0.15,0.13 0.12,0.84 -1.34,0.46 -0.56,0.51 -1.49,-0.26 -1.77,0.18 -0.8,-0.38 -0.58,-1.67 -1.56,-0.46 -1.59,-1.71 -0.57,-2.95 -0.95,-1.05 0.15,-2.44 -0.29,-1.03 -0.91,-0.76 -1.21,-0.92 -3.41,-2.16 -1.41,-0.3 -0.46,-0.46 -0.19,-4.25 -0.66,-2.84 -1.56,1.02 -1.2,-0.15 -0.97,0.34 -1.44,-0.09 -0.51,0.27 -0.12,1.32 0.65,0.93 0.12,0.59 -1.3,2.24 -0.3,1.6 0.28,0.98 -1.16,1.08 -0.57,1.28 -1.45,1.16 -0.79,0.96 -0.88,-0.13 -0.91,0.42 -0.95,-0.86 -0.75,-0.12 -0.64,0.34 -1.17,1.14 -0.34,0.01 -0.51,-0.55 -1.79,-0.21 -1.09,-0.46 -1.37,0.25 -2.32,-1.63 -1.35,-0.46 -1.15,0.16 -2.52,1.5 -3.78,-1.25 -0.65,0.37 -6.47,0.05 -0.36,-0.25 0.39,-0.75 -0.12,-0.38 -0.88,-0.67 -0.83,0.09 -0.47,-0.19 -0.66,-0.89 -0.26,-1.11 -0.31,-0.41 -0.57,0.06 -1.25,0.84 -3.37,-0.4 -0.66,-0.79 -0.66,-0.32 -0.72,-1.58 -0.64,0.15 -1.32,-0.04 -0.52,0.82 -1.45,0.49 -1.12,0.27 -0.43,-0.41 0.37,-0.93 -0.04,-1.02 -0.54,-0.81 -1.6,-0.37 -2.91,-1.6 -0.34,-1.37 -0.67,-0.62 0.17,-1.06 -0.67,-0.53 1.19,-0.58 -0.72,-0.95 -0.06,-1.75 -0.77,-1.48 0.06,-0.31 1,-0.4 0.03,-0.68 -0.54,-0.59 0.09,-0.25 0.74,-0.17 0.45,-0.43 -0.5,-0.88 1.03,-1.95 -1.54,-0.15 -2.5,1.18 -2.84,0.33 -2.14,0.55 -2.72,-0.14 -0.83,0.29 -0.94,-0.1 -0.78,0.44 -1.04,-0.25 -0.65,1 -1.77,0.37 -0.79,-0.16 -1.13,0.21 -0.17,0.74 -1.08,0.16 -1.06,0.79 -1.01,1.49 -1.15,0.48 -0.21,0.97 -0.27,0.26 -1.06,-0.33 -0.89,0.51 -1.64,-0.04 -0.84,0.49 -0.27,-0.27 -0.04,-0.69 -1.7,-1.21 -2.04,-0.05 -0.97,-0.6 0.23,-0.47 1.72,-0.26 1.4,-2.62 0.25,-2.96 -0.46,-0.62 0.15,-2.02 -0.27,-0.68 -2.01,-1.29 -1.19,-0.33 -0.93,0.09 -2.15,-0.52 -0.73,0.51 -0.73,-0.27 -0.33,-0.41 0.48,-1.52 -0.78,-1.04 0.28,-0.75 -0.18,-0.37 -0.24,-0.19 -0.73,0.03 -1.15,-0.52 -1.56,-0.14 -0.97,0.38 -0.62,1.35 -0.5,0.53 -1.77,1.08 -0.55,0.95 -0.65,0.33 -1.17,0.01 -2.25,-1.16 -1.2,0.51 -1.15,0.01 -1.38,-0.57 -1.4,0.08 -1.44,-1.09 -1.11,-0.43 -2.25,-0.26 -4.69,3.01 -2.75,2.31 -1.64,-0.29 -2.18,1 -2.24,-0.78 -1.78,-0.06 -1.76,-0.55 -1.17,-0.63 -1.09,0.62 -0.72,0.07 -0.55,0.92 -2.25,-0.05 -2.23,-0.88 -2.19,-1.52 -0.74,-0.18 -1.67,0.39 -0.4,0.29 -0.28,0.55 0.29,0.96 -0.1,0.73 -1.85,1.77 -2.75,0.05 -0.54,1 -1.11,1.19 -0.31,0.23 -0.58,-0.16 -0.42,-0.62 0.35,-1.03 -0.2,-0.95 -1.37,-2 -0.03,-2.24 -0.42,-1.21 -0.02,-1.72 -0.78,-1.22 -0.24,-1.06 0.21,-0.74 1.62,-1.27 2.25,-0.66 0.84,-0.64 0.19,-0.48 -0.63,-2.64 0.08,-4.29 -1.25,-0.89 0.59,-1.6 0.86,-1.51 0.16,-1.14 -0.68,-1.86 -0.79,-0.84 -0.06,-1.32 -1.41,-1.66 -0.43,-1.64 0.07,-2.84 -0.86,-2.33 -0.21,-2.33 -1.97,-1.05 -1.83,-0.54 -0.91,-1.33 -1.03,-0.67 -1.15,-1.67 -1.18,-1.66 -0.17,-0.84 -1.87,-1.08 -0.25,-2.82 -1.23,-2.21 0.16,-1.05 -1.34,-1.43 0.3,-0.52 0.41,-2.16 0.53,-1.41 0.92,-1.7 0.02,-2.22 -0.58,-2.93 0.24,-1.89 0.51,-3.09 0.07,-1.89 0.4,-1.18 0.75,-2.09 0.38,-3.03 0.2,-2.34 0.64,-2.23 0.55,-1.08 -0.54,-2.27 -0.75,-2.26 0.54,-1.02 -1.29,-1.08 -0.58,-3.02 -0.74,-1.71 -1.31,-2.83 -0.83,-0.8 -1.36,-3.31 0.8,-1.11 -0.2,-2.01 0.12,-1.72 0.88,-1.5 0.5,-1.56 0.48,-1.14 0,0 4.46,1.68 1.52,1.44 2.07,1.03 2.06,0.28 1.45,0.6 2.07,0.23 4.34,-0.57 3.65,0.02 0.76,-0.37 2.33,-2.01 0.6,-0.07 0.7,0.45 0.53,0.76 0.44,2.28 0.52,1.13 0.4,0.3 2.08,0.52 1.62,-0.19 1.98,0.8 2.26,-0.43 4.36,-1.48 0.83,-0.35 1.11,-1.02 0.54,-0.21 0,0 0.59,1.57 0.32,2.02 0.52,0.73 0.7,0.28 0.83,-0.18 0.74,-1.19 0.4,-0.26 1.15,0.61 1.92,-0.18 1.68,0.66 1.33,0.16 1.26,-0.21 1.19,-0.56 4.13,0.1 0.78,-0.4 0.89,-1.07 0.35,0.17 0.13,0.88 0.4,0.35 0.79,-0.03 0.82,-0.48 0.28,-1.15 0.73,-0.57 1.55,-0.29 2.05,0.18 0.13,-1.08 -0.16,-0.52 -1.09,-1.79 0.2,-1.08 -0.09,-2.21 0.27,-0.62 -0.22,-1.06 0.27,-0.79 -0.17,-0.5 0.74,-0.6 0.65,-2.01 0.26,-1.89 0.77,-0.8 -0.18,-0.49 -0.84,-0.27 -0.36,-0.49 0.63,-2.24 -0.54,-1.47 0.31,-0.57 1.27,-0.97 0.58,-1.38 0.69,-0.64 0.37,-0.82 1.78,-0.45 0.7,-0.62 0.29,-1.06 -0.54,-0.53 0.45,-0.59 -0.22,-0.44 -0.44,-0.1 -0.13,-0.29 1.08,-0.69 -0.66,-1.02 0.55,-0.77 0.37,-0.13 1.23,0.4 0.66,0.74 0.31,0.69 -0.14,1.65 0.5,0.59 4.03,1.98 1.58,0.51 1.1,0 0.76,-0.32 0.34,-0.39 0.54,-1.53 0.87,-0.22 2.03,-0.01 1.69,-1.82 3.48,-1.18 3.04,-2.47 1.93,-1.21 0.14,-0.41 -0.41,-1.15 0.09,-0.52 0.66,-1.18 0.73,-0.6 3.48,-0.25 3.13,0.48 2,0.83 1.1,0.8 1.06,1.23 0.52,0.06 4.31,-1.63 0.39,-0.57 0.13,-0.99 0.53,-0.76 -0.17,-1.19 0.25,-0.3 1.59,-0.62 -0.16,-1.15 -0.4,-0.18 -2.59,0.44 -0.48,-0.16 -0.27,0.2 -0.27,-0.39 -0.31,-0.13 -0.38,0.27 -0.45,-0.4 -1.31,-1.57 -0.76,-0.55 -1.14,-1.88 0.5,-1.24 1.19,-0.99 2.27,-0.1 3.77,0.83 0.79,-0.09 1.5,-1.05 2.63,-0.43 2.85,-2.75 1.56,-1 1.91,0.26 2.47,0.86 0.66,0.67 0.08,1.47 0.61,0.51 0.79,-0.15 1.42,-1.38 1.17,-0.15 2.11,0.26 0.7,-0.43 0.66,-1.54 -1.4,-2.8 -0.05,-0.86 1.23,-1.93 -0.37,-5.07 0.46,-2.86 -0.09,-0.48 -2.84,-2.65 -0.57,-1.19 -0.02,-0.87 0.45,-1.25 2.07,-2.35 -2.1,-3.68 1.12,-3.18 2.91,-3.89 1.78,-3.63 z" 
                fill="rgb(151, 144, 238)" 
                stroke="white" 
                stroke-width=".7px"
                title="Katanga" 
                id="CD-KA" 
            />
        </svg>