<svg xmlns="http://www.w3.org/2000/svg" viewBox="94.65328399999997 297.79826 44.839996 34.5499999999999" width="44.839996" height="34.5499999999999">
            <path 
                d="m 118.75328,297.79826 1.85,1.14 5.01,-0.35 1.61,0.19 1.29,0.48 3.6,2.23 2.41,1.07 2.23,3.57 1.37,0.75 0.75,0.89 0.42,0.92 0,0.56 -0.31,0.38 0.51,1.04 0,0.39 -0.46,0.66 0.22,0.43 -0.51,0.38 -0.37,1.64 -0.71,0.84 0,0.57 -1.64,0.04 -0.38,0.36 -3.48,6.21 -2.01,2.58 0.58,3.74 0.04,2.9 0,0 -8.81,-0.08 -3.53,-2.92 -0.2,0.39 -0.1,2.33 -0.73,1.03 -1.65,0.19 -2.78,-0.78 -2.73,-1.98 -0.7,-1.14 0.37,-0.75 1.96,-0.27 1.03,-0.75 0.37,-2.73 0.73,-1.81 -0.2,-1.11 -0.4,-0.33 -2.28,-0.78 -0.28,-0.39 1.05,-1.88 -0.14,-0.72 -0.76,-0.17 -2.26,0.31 -3.08,-0.88 -1.58,0.22 -0.7,0.44 -0.57,0.7 0.17,1.52 -0.5,1.09 -1.15,0.38 -1.14,-0.51 -2.299996,-2.24 -3.23,-4.86 0,0 0.91,-0.94 0.51,-1.5 1.1,-0.65 1.2,-0.35 1.15,-1.1 2.239996,0.24 0.81,0.34 1,-0.27 1.13,-0.7 1.29,-2.19 -0.13,-1.65 0.46,-1.36 0.89,-1.39 0.62,-0.51 4.88,-1.69 4.58,-0.68 z" 
                fill="rgb(151, 144, 238)" 
                stroke="white" 
                stroke-width=".7px"
                title="Kinshasa" 
                id="CD-KN" 
            />
        </svg>