<svg xmlns="http://www.w3.org/2000/svg" viewBox="392.6732800000002 174.82825999999997 136.80999999999983 156.52000000000007" width="136.80999999999983" height="156.52000000000007">
            <path 
                d="m 498.83328,189.58826 0.39,1.29 0.44,3.45 -0.87,3.44 -0.43,3.01 -1.73,2.15 -3.47,2.15 -7.36,-0.43 -2.16,1.72 1.29,2.15 0,2.58 -3.03,0.86 -2.16,1.3 2.6,1.72 2.16,3.44 4.76,4.73 9.1,10.33 -1.3,3.87 0,0 -0.87,0 0,0 -2.16,0.43 -3.03,0 -2.17,0.87 -2.16,2.15 -0.44,3.01 -4.33,1.72 -6.93,-2.15 -2.59,0 -2.6,0.86 -1.3,6.89 0.86,4.74 8.67,20.67 -2.17,12.07 0.87,6.46 2.16,2.16 3.47,1.72 3.03,0.44 5.63,0 6.49,1.29 2.6,3.45 3.47,1.29 1.73,1.3 7.36,-0.87 2.16,2.59 3.04,2.59 3.46,4.32 3.46,7.76 4.71,8.22 0,0 -12.89,0 0,0 -65.73,0 0,0 -38.61,0.02 -0.24,-0.76 -0.66,-0.66 -0.09,-0.74 -0.53,-0.56 -0.01,-1.18 -0.27,-0.62 -1.03,-0.95 -0.39,-0.92 -0.79,-0.33 -0.27,-0.63 -0.72,-0.35 -0.62,-1.62 -0.66,-0.43 -0.35,-1.68 0.61,-1.59 0.84,-0.5 0.22,-0.44 0.5,0.02 0.16,-0.89 0.42,-0.7 2.1,-1.86 -0.02,-0.72 -1.16,-1.7 0.64,-0.91 0.06,-1.2 0.66,-1.11 0,-0.59 -0.44,-0.87 0.04,-1.21 0.35,-0.89 -0.83,-0.72 0.02,-0.37 0.48,-0.39 -0.78,-0.76 -0.09,-1.6 -0.79,-0.52 -0.52,0.37 -0.45,-0.13 -0.79,-0.99 0.13,-1.17 -0.9,-0.87 -0.55,-0.11 0.04,-0.97 -0.74,0.18 -1.06,-1.59 0.07,-0.28 0.4,-0.07 -0.03,-0.33 -0.54,-0.33 -0.97,0.14 0.19,-0.7 -1.05,-0.45 0.09,-0.38 -0.26,-0.56 0.97,-0.99 -0.08,-0.48 1.24,-1.2 -0.11,-0.54 0.19,-0.67 -0.54,-0.33 -0.09,-1.33 -0.4,-0.46 0.11,-0.76 -0.24,-0.42 0.71,-0.09 0.5,-0.58 -0.02,-0.4 -0.78,-0.99 0.03,-0.52 0.51,-0.37 0.99,-0.08 0.35,-1.18 0.46,-0.22 0.43,-1.07 1.35,-0.48 -0.03,-1.35 0.22,-0.66 -0.42,-0.24 -0.04,-0.34 0.51,-0.38 1.38,-0.08 0.16,-0.29 -0.16,-0.71 0.42,-0.46 0.02,-0.53 0.86,-0.46 0.13,-0.91 0.59,-0.72 -0.44,-0.63 0.35,-0.77 -0.48,-0.39 -0.05,-0.35 0.29,-0.15 0.53,0.34 0.26,-0.39 -0.7,-1.04 -0.05,-0.59 1.59,-2.99 0.59,-2.26 1.14,-2.16 -0.11,-0.94 -0.71,-1.73 -0.01,-1.46 -0.39,-1.4 0.48,-1.71 0.39,-3.37 -9.57,0.73 -1.93,-0.03 -1.45,-0.43 -2.82,-6.03 -2.54,-3.22 -1.63,-2.55 -0.63,-2.19 -0.33,-2.46 0,0 1.93,0.24 5.88,-0.02 3.65,0.42 3.75,-0.68 2.72,-0.15 0.4,0.95 1.16,0.59 0.46,0.66 -0.01,0.76 -0.55,1.22 0.08,0.57 0.42,0.48 0.88,-0.11 1.78,0.52 1.91,0.03 1.93,-0.24 1.14,-0.37 0.73,-0.51 4.8,-5.39 2.27,-1.65 1.53,-0.33 2.31,1.02 0.87,0.12 1.74,-0.76 1.87,0.12 0.81,-1.48 0.13,-3.29 0.6,-2.49 0,-1.68 -0.36,-2.07 0.23,-1.09 0.04,-2.86 1.09,1.09 0.38,0.74 0.99,0.57 -0.05,0.61 2.09,0.22 0.55,-0.4 0.16,-0.8 0.52,-0.57 -0.49,-1.07 0.05,-0.39 1.49,-0.72 0.22,-1.44 -0.26,-0.77 0.09,-0.52 0.48,-0.39 1.25,-0.31 0.09,-0.34 -0.28,-0.6 0.58,-1.28 -0.04,-1.33 0.99,-0.81 -0.73,-0.59 -0.22,-0.74 0.25,-2.44 0.53,-1.66 2.74,-1 0.83,-0.63 0.51,-0.73 0.11,-1.26 -0.94,-6.08 0.08,-1.18 0.83,-1.18 3.26,-2.75 0.37,-0.84 -0.34,-1.16 -0.91,-1.09 -3.49,-2.29 -1.73,-1.97 -3.83,-3.1 1.67,-1.9 0.46,-0.24 0.55,-0.06 0.49,0.42 0.37,0.02 0.26,0.61 0.85,0.23 1.17,0.97 0.48,0.85 0.55,-0.09 0.42,0.26 0.77,1.83 0.5,-0.1 0.31,0.59 0.81,0.72 1.17,0.37 0.5,1.46 0.92,0.83 3.28,-0.18 1.38,-0.8 0.83,-0.92 2.49,-0.35 2.15,-1.51 1.49,0.2 0.37,-0.5 -0.39,-0.94 0.42,-0.46 1.42,0.98 0.77,-0.16 1.23,0.99 1.58,0.15 0.64,0.69 1.14,0.58 0.42,0.5 -0.12,0.67 0.33,0.55 1.32,0.85 0.6,0.97 1.51,0.65 3.45,0.37 1.01,0.3 0.68,0.44 0.61,0.9 0.47,0.19 1.19,0.02 1.29,-0.67 0.76,-0.09 0.58,0.31 0.7,1.04 2.57,-0.06 3.89,1.52 1.51,-0.43 0,0 z" 
                fill="rgb(151, 144, 238)" 
                stroke="white" 
                stroke-width=".7px"
                title="Maniema" 
                id="CD-MA" 
            />
        </svg>