<svg xmlns="http://www.w3.org/2000/svg" viewBox="479.74327999999997 141.28825999999995 90.33999999999997 98.22000000000006" width="90.33999999999997" height="98.22000000000006">
            <path 
                d="m 497.06328,237.34826 1.3,-3.87 -9.1,-10.33 -4.76,-4.73 -2.16,-3.44 -2.6,-1.72 2.16,-1.3 3.03,-0.86 0,-2.58 -1.29,-2.15 2.16,-1.72 7.36,0.43 3.47,-2.15 1.73,-2.15 0.43,-3.01 0.87,-3.44 -0.44,-3.45 -0.39,-1.29 0,0 0.46,-0.34 0,0 3.04,-2.9 1.9,-3.53 0.82,-0.66 2.83,-1.05 1.19,-0.72 0.74,-1.13 0.53,-2.38 -0.38,-0.77 -0.72,-4.75 0.51,-2.86 0.96,-0.56 0.29,-1 -0.29,-0.6 -0.51,-0.38 0.09,-1.03 -1.07,-0.44 -0.62,-0.72 -0.54,-1.86 0.11,-1.69 -0.11,-0.33 -0.49,-0.18 0.27,-1.31 -0.57,-0.28 -0.24,-0.85 -0.51,-0.1 -0.22,-0.45 -1.1,0.2 -1.51,-0.66 -0.36,0.31 -0.35,-0.26 -0.5,0.37 -1.18,-0.33 -1.68,-1.17 -1.6,-0.57 -0.11,-0.71 0.24,-0.21 1.14,-0.37 1.23,0.16 2.46,-0.49 0.83,-0.52 1.37,-1.56 3.23,-1.25 9.22,-1.26 1.27,0.41 2.57,2.84 1.17,0.98 0.9,0.5 1.15,0.26 4.91,-1.25 2.94,-0.28 3.64,0.22 2.64,0.42 1.32,-0.31 1.47,-1.25 1.64,-0.8 1.92,0.19 1.64,1.12 1.47,-0.48 2.53,1.4 0.77,0.01 1.18,-0.52 1.18,-1.13 -0.41,-0.79 -2.77,-0.95 -0.79,-1.07 0.18,-1.2 1.2,-2.01 0.82,-0.11 2.65,1.24 1.7,0.18 0.57,-0.68 -0.24,-0.69 0.35,-0.73 1.76,0.09 1.18,-0.24 0.84,0.3 0.76,-0.06 0.75,-0.55 0.99,-1.22 2.19,-0.95 0.35,0.01 0.82,1.73 0.62,0.74 2.62,1.29 0,0 -0.1,0.15 -0.47,0.8 -0.25,1.08 0.43,1.15 -0.28,0.92 -0.16,1.09 -0.22,1.23 0.56,1.36 -0.09,1.04 0.31,1.55 -3.43,4.2 -1.56,6.78 -0.27,0.29 -0.83,-0.21 -0.64,0.2 -1.09,1.24 -0.01,1.13 -0.57,0.49 -0.05,1.23 0.31,1.23 0.08,1.17 0.07,1.69 -2.52,11.76 0.63,0.36 -0.13,2.21 0.52,0.62 -0.46,0.89 -0.18,1.05 -1.2,2.59 0.17,1.15 -0.18,1.62 0.46,1.18 -0.44,1.03 0.36,1.21 -1.8,0.16 0.17,1.19 -0.04,1.25 -0.09,1.22 0.23,1.05 -0.45,2.41 0.31,0.85 -0.42,0.98 1.13,1.13 -0.49,1.55 0.45,1.49 -0.53,2.27 -0.82,0.27 -1.41,0.82 -0.67,0.89 -1.41,1.71 -2.28,0.02 -0.7,0.39 -1.57,2.54 -1.51,1.4 -0.67,2.1 -1.36,1.48 -1.99,3.11 0,0 -3.87,-0.35 -3.03,-1.29 -0.43,-1.73 -3.46,-0.42 -2.17,3.44 -3.46,3.44 -1.3,2.15 -3.03,0.43 -1.3,-2.15 -1.74,-1.29 -1.73,2.15 -3.03,3.01 -4.33,1.3 -2.6,0 -1.3,-0.43 -1.73,-1.73 -5.2,0 0,0 z" 
                fill="rgb(151, 144, 238)" 
                stroke="white" 
                stroke-width=".7px"
                title="Nord-Kivu" 
                id="CD-NK" 
            />
        </svg>