<svg xmlns="http://www.w3.org/2000/svg" viewBox="323.3232800000001 0.28826000000019114 289.0099999999997 238.88999999999984" width="289.0099999999997" height="238.88999999999984">
            <path 
                d="m 428.06328,0.58826 0.85,0.05 0.5,0.94 0.82,-0.06 0.05,0.31 -0.02,0.52 0.43,0.15 0.25,-0.33 0.44,-0.03 0.5,0.51 1.11,0.48 0.36,0.96 0.63,0.07 0.3,0.9 1.1,-0.47 -0.43,-0.39 0.72,-0.29 0.26,0.63 0.62,0.23 0.02,0.92 0.49,0.97 0.36,-0.8 0.47,-0.26 0.7,0.04 0.11,0.16 0.37,0.61 0.2,0.94 0.4,-0.31 -0.25,-0.82 0.54,0.11 0.51,-0.31 0.69,0.48 0.09,-1 0.59,-0.53 0.51,0.31 0.26,0.05 0.06,0.64 0.87,0.19 0.5,0.01 0.45,0.25 0.29,-0.61 0.73,0.16 0.04,-0.54 0.51,-0.15 0.55,-0.66 0.08,-0.43 0.78,0.17 -0.02,0.85 0.28,0.1 0.58,-0.4 0.67,0.14 0.34,0.73 0.15,0.23 0.46,-0.05 0.52,0.34 0.21,0.39 -0.19,0.46 1,0.07 0.31,0.27 0.66,0.24 0.84,0.2 0.78,0.13 0.78,-0.15 0.47,0.47 0.54,0.33 0.6,0.28 0.57,0.6 0.09,0.57 0.06,0.6 0.78,0.38 0.68,0.08 0.57,0 0.22,-0.74 0.25,-0.02 0.73,0.13 0.33,0.01 0.02,-0.56 0.46,-0.05 0.22,0.28 0.58,-0.21 0.76,-0.04 0.55,0.17 0.46,-0.04 0.66,-0.32 1.11,-0.4 0.8,-0.11 0.72,0.06 0.45,0.5 0.21,0.43 0.48,0.75 0.42,0.04 0.33,-0.37 1.3,0.82 0.42,-0.38 0.19,-0.89 0.68,-0.21 0.38,-1.02 0.38,-0.3 -0.03,-0.41 3.01,-1.69 1.21,-0.44 1.46,-0.19 1.44,0.23 2.39,1.51 2.77,0.83 0.72,0.5 2.91,1.05 0.47,0.8 -0.17,0.99 0.72,0.18 1.21,1.13 0.58,0.2 0.43,1.55 0.82,0.5 0.5,0.67 2.68,-0.06 0.85,0.73 0.81,1.8 -0.18,0.48 0.32,0.36 1.44,-0.16 0.5,0.62 0.42,1.12 0.03,0.99 -0.48,0.41 -0.01,0.26 0.42,1.78 -0.07,1.01 0.3,0.12 1.25,0.27 0.37,0.37 0.78,0.81 1.99,0.12 0.29,-0.77 1.16,0.4 1.42,0.33 0.71,-0.08 -0.32,2.24 0.28,0.76 0.59,0.24 0.51,1.14 1.06,-0.97 0.77,0.16 0.34,0.49 -0.34,0.85 1.38,0.6 0.83,0.88 1.67,0.2 0.5,-0.39 1.58,0.02 1.05,0.11 0.48,0.8 0.04,1.33 0.37,0.26 1.06,0.09 1.48,-0.43 0.82,-0.81 0.07,-0.7 0.78,-1.16 1.32,-0.3 0.83,0.12 0.8,-1.27 0.78,0.11 1.14,-0.28 1.1,-2.03 -0.25,-0.65 0.68,-0.2 0.23,-0.33 -0.14,-0.38 1.44,-0.23 0.66,-0.6 0.27,0 0.6,0.85 0.03,1.31 0.76,0.54 0.87,-0.1 1.77,-0.02 2.02,0.07 1.09,-0.56 0.8,0.33 0.42,0.84 1.05,0.11 -0.09,0.77 1.8,0.14 -0.01,0.58 1.8,1.49 0.48,0.67 1.31,-0.21 0.24,-0.67 -0.21,-0.66 0.55,-0.21 1.03,0.45 0.83,-0.18 0.54,-0.53 0.63,-1.92 1.62,-0.7 0.94,-1.3 0.05,-1.12 1.04,-1.06 -0.27,-2.37 0.67,-0.16 0.45,-0.57 0.83,1.11 0.93,-0.37 0.65,0.12 0.69,0.46 0.62,-0.41 2.99,1.42 1,1.46 0.94,-0.39 0.5,0.62 1.16,0.15 0.02,0.69 -0.48,1.47 -0.33,1.72 0.09,2.2 1.32,1.01 1.72,-0.3 1.56,1 0.69,1.19 -0.62,1.15 0.12,0.22 1.26,0.26 1.63,1.2 0.36,1.35 0.95,1.08 1.52,-0.02 0.94,0.52 0.09,1.34 1.36,1.52 0.03,1.39 0.66,0.84 1.64,-0.6 0.82,0.81 1.72,0.51 1.09,0.2 1.85,0.78 0.9,0.79 0.65,0.08 0.88,-0.39 0.83,0.03 0.23,0.31 -0.03,1.18 0.54,1.57 0.49,2.94 -0.32,1.24 -0.59,1.11 0.07,0.33 1.07,0.06 2.42,-1.35 1.65,0.51 0.5,-0.12 0.66,-1.34 0.52,-0.27 0.4,0.58 0.06,1.15 0.43,0.96 2.01,0.87 -0.51,1.75 0.24,0.7 0.29,0.18 0.51,-0.11 0.46,-0.58 1.41,-0.22 0.2,1.29 -0.26,0.78 0.09,1.27 -0.63,1 -0.98,1.01 0.16,0.85 -0.7,1.08 -1.04,0.55 0.09,0.77 -0.36,1.12 -0.89,2.19 -0.24,2.11 -0.85,0.55 0.41,0.93 0.69,0.51 0.74,0.58 1.04,0.86 0.29,1.26 0.24,0.99 0.41,0.33 0.09,0.71 -0.19,1.41 -0.8,1.29 -0.7,0.21 -0.46,0.55 0.12,0.66 -0.51,1.09 -0.77,1.58 0.13,0.33 -0.41,1 -0.89,0.55 0.37,2.43 -0.1,0.39 -0.39,0.21 -0.18,1.31 0.35,0.97 0.84,-0.61 0.89,0.44 0.86,0.25 0.51,1.05 0.78,0.49 0.29,0.89 0.94,0.29 0.66,-0.1 0.32,-0.28 0.24,-0.59 -0.24,-0.39 0.4,-0.82 1.14,-0.19 0.57,0.17 0.6,0.44 1.49,1.3 -0.11,0.41 0.5,0.71 -0.51,0.18 1.79,1.24 0.25,0.03 0.27,-0.57 0.73,0.17 1.25,-0.51 0,2.33 1.45,0.68 1.84,1.36 0,1.29 -3.4,4.76 -2.96,3.65 -2.54,3.28 -8.91,7.07 -6.41,8.32 -0.96,0 -1.42,1.71 -0.73,0.34 -1.04,0.28 -0.97,0.08 -0.96,-0.47 -0.6,0.81 -0.18,0.83 -0.75,-0.06 -0.12,-0.47 -0.51,-0.17 -0.6,0.2 -0.42,0.66 -0.81,0.44 0.14,1.1 -0.38,0.39 -0.01,0.92 -0.27,1.3 -0.59,1.23 -0.42,0.9 -0.57,0.75 -0.47,1.27 -0.96,-0.06 -0.99,0.13 -1.37,0.5 -0.93,0.1 -0.56,0.34 -0.58,0.34 0,0 -2.62,-1.29 -0.62,-0.74 -0.82,-1.73 -0.35,-0.01 -2.19,0.95 -0.99,1.22 -0.75,0.55 -0.76,0.06 -0.84,-0.3 -1.18,0.24 -1.76,-0.09 -0.35,0.73 0.24,0.69 -0.57,0.68 -1.7,-0.18 -2.65,-1.24 -0.82,0.11 -1.2,2.01 -0.18,1.2 0.79,1.07 2.77,0.95 0.41,0.79 -1.18,1.13 -1.18,0.52 -0.77,-0.01 -2.53,-1.4 -1.47,0.48 -1.64,-1.12 -1.92,-0.19 -1.64,0.8 -1.47,1.25 -1.32,0.31 -2.64,-0.42 -3.64,-0.22 -2.94,0.28 -4.91,1.25 -1.15,-0.26 -0.9,-0.5 -1.17,-0.98 -2.57,-2.84 -1.27,-0.41 -9.22,1.26 -3.23,1.25 -1.37,1.56 -0.83,0.52 -2.46,0.49 -1.23,-0.16 -1.14,0.37 -0.24,0.21 0.11,0.71 1.6,0.57 1.68,1.17 1.18,0.33 0.5,-0.37 0.35,0.26 0.36,-0.31 1.51,0.66 1.1,-0.2 0.22,0.45 0.51,0.1 0.24,0.85 0.57,0.28 -0.27,1.31 0.49,0.18 0.11,0.33 -0.11,1.69 0.54,1.86 0.62,0.72 1.07,0.44 -0.09,1.03 0.51,0.38 0.29,0.6 -0.29,1 -0.96,0.56 -0.51,2.86 0.72,4.75 0.38,0.77 -0.53,2.38 -0.74,1.13 -1.19,0.72 -2.83,1.05 -0.82,0.66 -1.9,3.53 -3.04,2.9 0,0 -0.48,0.35 0,0 -1.51,0.43 -3.89,-1.52 -2.57,0.06 -0.7,-1.04 -0.58,-0.31 -0.76,0.09 -1.29,0.67 -1.19,-0.02 -0.47,-0.19 -0.61,-0.9 -0.68,-0.44 -1.01,-0.3 -3.45,-0.37 -1.51,-0.65 -0.6,-0.97 -1.32,-0.85 -0.33,-0.55 0.12,-0.67 -0.42,-0.5 -1.14,-0.58 -0.64,-0.69 -1.58,-0.15 -1.23,-0.99 -0.77,0.16 -1.42,-0.98 -0.42,0.46 0.39,0.94 -0.37,0.5 -1.49,-0.2 -2.15,1.51 -2.49,0.35 -0.83,0.92 -1.38,0.8 -3.28,0.18 -0.92,-0.83 -0.5,-1.46 -1.17,-0.37 -0.81,-0.72 -0.31,-0.59 -0.5,0.1 -0.77,-1.83 -0.42,-0.26 -0.55,0.09 -0.48,-0.85 -1.17,-0.97 -0.85,-0.23 -0.26,-0.61 -0.37,-0.02 -0.49,-0.42 -0.55,0.06 -0.46,0.24 -1.67,1.9 3.83,3.1 1.73,1.97 3.49,2.29 0.91,1.09 0.34,1.16 -0.37,0.84 -3.26,2.75 -0.83,1.18 -0.08,1.18 0.94,6.08 -0.11,1.26 -0.51,0.73 -0.83,0.63 -2.74,1 -0.53,1.66 -0.25,2.44 0.22,0.74 0.73,0.59 -0.99,0.81 0.04,1.33 -0.58,1.28 0.28,0.6 -0.09,0.34 -1.25,0.31 -0.48,0.39 -0.09,0.52 0.26,0.77 -0.22,1.44 -1.49,0.72 -0.05,0.39 0.49,1.07 -0.52,0.57 -0.16,0.8 -0.55,0.4 -2.09,-0.22 0.05,-0.61 -0.99,-0.57 -0.38,-0.74 -1.09,-1.09 -0.04,2.86 -0.23,1.09 0.36,2.07 0,1.68 -0.6,2.49 -0.13,3.29 -0.81,1.48 -1.87,-0.12 -1.74,0.76 -0.87,-0.12 -2.31,-1.02 -1.53,0.33 -2.27,1.65 -4.8,5.39 -0.73,0.51 -1.14,0.37 -1.93,0.24 -1.91,-0.03 -1.78,-0.52 -0.88,0.11 -0.42,-0.48 -0.08,-0.57 0.55,-1.22 0.01,-0.76 -0.46,-0.66 -1.16,-0.59 -0.4,-0.95 -2.72,0.15 -3.75,0.68 -3.65,-0.42 -5.88,0.02 -1.93,-0.24 0,0 -0.97,-4.93 0,0 -0.55,-4.36 -0.88,-3.45 -1.34,-2.29 -0.96,-2.35 -0.75,-0.37 -4.08,0.28 -1.52,-0.18 -1.51,-0.54 -3.52,-1.94 -1.54,-1.16 -2.08,-2.16 -2.02,-0.74 -0.53,-1.09 -0.22,-1.16 -0.63,-0.8 -2.05,-1.26 -4.46,-2.16 -3.2,-2.89 -2.26,-2.48 0.1,-0.35 4.05,-3.1 1.55,-0.63 2.16,-0.46 0.74,-0.53 0.15,-0.39 -2.16,-1.76 -2.72,-4.26 -0.64,-0.32 -0.73,0.08 -3.62,1.4 -1.67,0.39 -0.83,-0.3 -0.48,-1.59 -0.33,-0.35 -7.95,-0.62 3.91,-3.18 1.57,-0.92 0.83,0.06 2.76,1.04 1.31,0.19 1.28,-1.35 1.94,-0.34 0.51,-0.45 -0.06,-1.32 -3.89,-5.46 -1.3,-2.31 -3.49,-3.86 -1.75,-3.88 -1.98,-1.88 -1.55,-2.4 -0.87,-2.07 -0.35,-1.77 0.02,-1.17 -0.67,-1.18 -1.35,-1.48 -0.63,-1.34 0.18,-3.36 -1.36,-3.01 0.3,-0.52 -0.44,-0.8 0.22,-1.1 -0.11,-0.76 -1.23,-1.62 -0.09,-0.95 -0.13,-0.31 -0.45,-0.2 -0.87,-2.39 -0.96,-1.46 -0.79,-0.75 -0.2,-1.05 -0.52,-0.56 -0.05,-0.96 -0.82,-1.38 -0.85,-0.21 -0.48,-0.83 -0.57,-0.28 -0.7,-0.85 -1.74,-1.12 -1.21,-0.24 -0.54,-0.55 -1.83,-0.22 -0.4,-0.25 -0.63,0.21 -0.66,-0.21 -1.21,0.04 0.79,-1.72 0.75,-0.72 2.7,-1.71 1.73,-1.92 0.47,-1.23 0.94,-5.85 2.3,-4.21 -0.57,-1.57 0.05,-0.4 0.37,-0.32 0.79,0 1.65,0.59 1.27,2.16 0.97,0.13 0.88,0.63 1.73,-0.67 0.84,0.04 0.35,-0.5 0.4,0 0.11,-0.53 0.74,-0.31 -0.02,-0.8 1.01,0 0.61,-0.67 -0.09,-0.97 1.23,-0.34 0.09,-0.79 0.38,0.06 2.17,2.36 1.12,0.46 0.51,-0.07 3.02,-1.63 4.6,-3.32 5.66,0.96 2.7,1.14 1.11,0.1 0.38,-0.33 -0.35,-3.16 -0.42,-1.24 -2.74,-2 -3.82,-1.86 -2.03,-2.29 -0.85,-0.35 -0.79,-0.02 -5.81,1.05 -1.59,-0.61 -1.25,-1.16 -2.06,-2.42 -0.45,-1.22 1.41,-2.71 -0.15,-1.17 -0.52,-1.23 0.06,-0.8 1.3,-2.22 0.12,-1.58 1.48,-3.2 0.3,-1.42 -0.09,-0.81 -1,-0.8 -1.59,0.34 -1.51,1.22 -2.87,3.55 -0.8,0.58 -0.79,-0.07 -0.7,-0.58 -0.42,-1.58 0.03,-1.64 0.63,-3.22 -0.13,-1.37 -0.64,-0.7 -0.75,-0.39 -3.09,-0.75 -0.96,-1 -0.09,-1.29 1.4,-1.87 1.93,-0.77 4.33,-1.15 2.11,-1.29 0.83,0.35 1.24,0.09 1.42,-0.42 1.18,-1.03 2,-2.35 1.1,-0.78 1.17,0.37 0.7,0.78 2.28,0.04 1.43,1.05 0.78,-0.26 0.78,-0.64 1.51,-2.06 1.47,-1.21 0.52,-1.09 0.38,-1.7 -1.36,0.33 -0.9,-0.42 -0.48,0.09 -0.97,-0.3 -0.77,0.74 -0.52,0.09 -2.99,-0.92 -0.96,-0.72 -0.56,-0.11 -0.52,-0.57 -0.95,0.03 -0.81,-0.48 -0.81,0.28 -1.2,0 -0.89,0.65 -0.67,0.2 -0.73,-0.54 -0.71,-0.18 -0.83,0.48 -0.82,0.04 -1.42,0.55 -1.34,-0.35 -2.8,-1.41 -0.23,-2.76 -1.42,0.12 -0.87,-0.33 -4.04,-3.3 -3.14,-1.11 0,0 2.8,-2.53 0.05,-0.73 -0.34,-0.52 0.02,-0.44 0.87,-1.73 1.61,-0.89 0.02,-0.87 -0.96,-0.37 -0.14,-0.34 0.39,-0.78 0.04,-1.51 0.9,-0.41 1.14,0.13 0.56,0.6 0.6,-0.32 0.26,-0.63 -0.02,-0.77 0.87,-1.29 0.19,-2.2 0.73,-0.83 0.68,-1.71 0.82,-0.66 0.62,0.12 0.55,0.62 0.65,-0.19 0.29,-0.97 0.89,-0.6 -0.48,-0.88 0.24,-0.72 0.37,-0.34 1.11,0.07 0.83,-0.71 0.53,0.46 0.93,2.24 0.69,0.13 1.46,1.08 1.07,0.24 1.86,-0.97 0.77,0.58 0.41,0.89 0.96,0.76 0.79,0.15 0.56,1.22 0.47,-0.06 1.16,0.8 0.93,-0.18 0.72,0.61 1.23,0 0.26,-0.39 -0.13,-0.99 0.19,-0.58 1.08,-0.74 1.15,0 1.62,-0.96 0.99,-0.94 1.21,-0.25 2.86,-1.33 1.97,0.09 2.01,-1.59 0.57,0.59 1.32,-0.7 0.48,0.13 0.28,0.37 1.08,0.24 0.18,-0.41 -0.15,-1.42 0.3,-0.33 0.22,0.02 0.3,0.65 2.01,-0.67 1.64,-1.06 0.66,-0.03 0.83,0.58 0.76,-0.06 0.98,-1.14 1.45,-0.92 0.55,0.25 -0.03,0.54 0.75,-0.07 0.25,-0.41 -0.35,-0.7 0.07,-0.3 0.75,-0.7 2.47,-0.17 1.13,-0.73 -0.05,-0.43 -0.35,-0.28 -0.79,0.26 -0.35,-0.12 -0.15,-0.35 0.12,-0.28 0.44,-0.11 0.21,-0.78 0.45,-0.51 0.35,0.04 0.87,1.67 0.43,-0.17 -0.27,-1.05 0.48,-0.21 2.57,0.74 0.45,1.01 0.55,0.41 1.54,0.18 0.62,1.77 1.31,0.18 -0.01,0.62 -0.49,0.98 2.01,-0.14 0.44,0.56 0.81,-0.08 0.64,0.02 0.38,0.04 1,-1.03 1.78,0.05 0.39,-0.77 1.38,0.02 0.63,-0.81 1.49,-0.43 4.37,0 0.57,-0.91 0.31,0.05 0.52,0.7 0.36,0.04 0.34,-0.44 0.95,0.1 0.52,-0.33 2.25,-0.37 0.41,-0.5 -0.04,-0.96 0.7,-1.03 0.13,-1.12 -0.74,-0.23 -0.33,-1.24 0.45,-0.49 0.26,-1.6 0.42,-0.82 0.56,-0.03 0.31,-0.41 -0.09,-0.26 -0.38,0.1 -0.06,-0.34 0.87,-0.21 0.64,0.04 0.46,0.01 0.99,-0.91 0.52,0.04 0.34,-0.58 0.33,0.06 0.45,0.65 1.16,-0.35 -0.34,-0.9 0.29,-0.1 z" 
                fill="rgb(151, 144, 238)" 
                stroke="white" 
                stroke-width=".7px"
                title="Orientale" 
                id="CD-OR" 
            />
        </svg>