<svg xmlns="http://www.w3.org/2000/svg" viewBox="468.48327999999964 227.02826 82.60000000000008 104.31000000000006" width="82.60000000000008" height="104.31000000000006">
            <path 
                d="m 542.93328,230.81826 -0.43,1.09 0.1,1.35 1.5,5.44 -0.25,1.66 -2.59,4.21 -0.91,0.37 -1.6,-0.04 -1.61,2.68 -1.39,-0.08 -0.75,0.29 -0.7,1.21 -0.12,0.72 0.2,0.75 0.57,0.56 -1.09,1.5 1.22,1.33 0.26,2.09 -0.23,0.84 2.19,1.29 1.09,0.16 0.58,0.47 0.55,1.11 -1.02,0.79 0.14,1.05 0.79,0.33 0.62,-0.22 0.6,0.94 0.77,0.85 -0.13,0.8 0.26,0.62 1.01,0.3 1.26,0.94 0,1.17 1.13,0.85 1.06,0.08 0.58,0.85 0.16,0.5 0.05,1.5 -0.45,0.27 -0.58,1.13 -0.2,1.24 0.11,1.13 0.45,1.14 -1.02,0.68 -0.23,0.59 0.11,1.7 0.91,4.02 0.28,2.32 0.13,2.59 -0.44,4.73 0.41,2.71 0.63,2.15 0.65,0.97 1.37,1.24 0.66,0.94 0.64,1.87 0.36,2.42 0.49,10.52 -0.25,1.13 -1.63,3.53 -0.27,1.52 0.32,4.94 1.09,4.69 0,0 -16.97,-0.01 0,0 -3.89,0 0,0 -4.71,-8.22 -3.46,-7.76 -3.46,-4.32 -3.04,-2.59 -2.16,-2.59 -7.36,0.87 -1.73,-1.3 -3.47,-1.29 -2.6,-3.45 -6.49,-1.29 -5.63,0 -3.03,-0.44 -3.47,-1.72 -2.16,-2.16 -0.87,-6.46 2.17,-12.07 -8.67,-20.67 -0.86,-4.74 1.3,-6.89 2.6,-0.86 2.59,0 6.93,2.15 4.33,-1.72 0.44,-3.01 2.16,-2.15 2.17,-0.87 3.03,0 2.16,-0.43 0,0 3.03,0 0,0 5.2,0 1.73,1.73 1.3,0.43 2.6,0 4.33,-1.3 3.03,-3.01 1.73,-2.15 1.74,1.29 1.3,2.15 3.03,-0.43 1.3,-2.15 3.46,-3.44 2.17,-3.44 3.46,0.42 0.43,1.73 3.03,1.29 z" 
                fill="rgb(151, 144, 238)" 
                stroke="white" 
                stroke-width=".7px"
                title="Sud-Kivu" 
                id="CD-SK" 
            />
        </svg>