<svg xmlns="http://www.w3.org/2000/svg" viewBox="299.3704200000001 64.88000000000001 180.19999999999993 293.44000000000005" width="180.19999999999993" height="293.44000000000005">
            <path 
                d="m 431.09042,77.54 1.18,0.42 1.92,0.51 1.44,1.59 1.85,1.34 1.09,1.59 0.75,1.37 0.09,1.28 0.99,1.55 2.04,2.04 1.27,1.2 1.42,0.7 1.26,0.99 1.68,0.52 0.92,0.08 0.33,0.75 0.92,0.42 1.13,0.09 0.67,-1.26 1.43,-1.34 1.01,0 2.01,0.08 1.34,0.33 2.27,1.51 1.59,1.01 1.62,0.55 1.58,0.47 1.91,0.47 2.79,0.03 1.96,0.44 1.26,0.09 1.11,0.62 0.88,0.79 1.03,0.91 1.06,0.65 1.58,1.34 -0.3,0.29 -1.6,2.44 -3.55,5.42 -2.9,2.15 -3.09,1.5 -2.53,1.69 -1.5,1.78 -0.37,4.87 -0.66,1.12 -0.66,1.59 -0.4,1.84 -0.17,0.78 -2.43,3.84 -2.53,1.03 -2.43,1.22 -0.09,6.18 -1.31,1.78 -1.59,0.84 -0.13,1.68 -1.74,2.93 -1.9,3.42 -0.95,3.61 -0.95,4.18 -1.33,5.13 -1.71,4.36 -1.84,3.15 -3.48,-0.21 -4.58,-0.86 -3.29,-0.57 -3.58,-0.29 -3.29,1.57 -2.57,4.14 -1.72,4.44 -1.57,6.15 -2.57,4.57 -2.72,4.44 -0.14,5.87 2.15,2.28 2,4.29 1,3.86 0.14,3.01 -1.86,1.86 -5.15,0.29 -3.29,1.42 0,3.72 4.15,0.14 5.15,0.86 3.72,0.86 0.72,2.86 0.14,4.44 1.86,4.57 2.28,3.86 1.72,0.86 4.58,1.43 3.29,1.43 2.57,3.86 4.29,3 0.57,4.87 1.71,2.58 -0.38,1.35 -0.48,1.66 -2.43,1 -1.43,0.86 -1.29,2.29 -3.72,3 -1,3.43 0.43,1.43 1,1.72 0.71,1.57 0.71,2.72 -0.5,1.08 0.09,0.75 0.14,1.55 -0.2,1.09 -0.54,1.56 -0.75,1.43 -1.5,1.38 -1.78,1.39 -1.06,0.62 -0.77,0.46 -0.14,0.59 -0.71,1.59 -1.18,0.64 -1.7,1.87 -1.64,1.58 -0.33,2 -0.39,3.26 0.36,3.02 0.48,2.17 0.83,2.68 -0.07,1.77 -0.07,2.24 -2.24,0.61 -1.63,-0.05 -2.38,-0.07 -2.58,-0.14 -2.04,-0.34 -1.97,0.14 -3.6,-0.27 -0.95,3.4 -0.49,1.07 -0.33,2.4 -0.2,1.49 0.26,3.35 0.65,0.59 1.26,3.18 2.04,0.2 1.14,-2.67 1.72,-2.57 1.28,-2.43 0.88,-1.43 0.34,-1.83 1.49,-0.07 1.97,0.14 1.43,0.54 1.29,0.75 2.06,0.58 3.26,1.45 3.38,2.17 2.54,2.29 2.42,2.78 1.21,1.69 -0.24,1.93 -17,13.37 -1.9,0 -1.51,-0.47 -2.38,-0.72 -2.62,-0.95 -0.76,-0.64 -0.68,-0.27 0.07,-0.95 0.61,-0.41 0,-1.02 -0.88,-0.54 -1.54,0.14 -0.3,-0.19 -1.35,-0.72 -1.43,-0.4 -1.43,-0.64 -2.53,2.03 0.19,0.99 0.03,15.49 -1.09,0.88 0.2,1.29 1.84,1.93 -0.56,0.4 -0.87,-0.79 -1.43,-1.67 -1.67,-1.75 -1.58,-1.58 -1.83,-2.06 -1.91,-1.75 -1.11,0.08 -0.63,0.56 -0.59,1.3 -1.08,0.99 1.43,1.63 1.15,1.43 0.95,1.22 0.14,1.02 -0.68,0 -2.83,-3.23 -1.51,-1.18 -1.43,-0.95 -0.82,-1.29 -1.02,-1.02 -0.88,-0.68 -1.07,-1.17 -3.89,-0.25 -9.5,-0.12 -0.67,0.49 -1.75,0.96 -2.06,1.19 -3.73,2.3 -1.68,1.17 -1.48,0.24 -1.76,1.05 -8.09,0 -0.24,-1.19 -0.88,-0.08 -0.63,-0.47 -1.44,-0.13 -0.29,0.63 -0.57,-0.12 -0.03,-0.57 1.17,-0.86 -2.12,-1.4 -0.43,1.23 -1.15,1.69 -1.01,-0.39 -1.19,-1.11 -0.95,-0.95 0.41,-0.7 1.26,-1.4 -1.09,-0.73 -0.78,-0.07 -1.7,-0.83 -2.47,-2.09 -1.71,-3.23 -0.95,-3.04 0.76,-3.04 2.28,-3.23 1.9,-1.9 3.04,-2.66 -0.38,-3.42 -1.52,-2.28 -4.56,0.19 -3.99,-0.19 -2.85,-1.14 -4.18,-0.19 -2.28,1.52 -4.18,-1.33 -4.18,-3.6 -1.71,-3.23 -0.76,-5.5 -0.76,-4.94 -0.76,-3.42 -1.33,-3.42 -2.66,-1.9 -1.52,-3.99 1.33,-3.04 1.9,-3.42 0.57,-3.41 2.3,1.78 1.95,1.71 1.47,1.47 1.71,-0.24 0.73,-3.42 0.49,-1.95 0.73,-2.69 0,-2.69 -0.24,-2.69 0.73,-2.69 2.44,-3.91 2.69,-3.91 2.2,-2.44 1.71,-2.2 2.2,-0.49 3.18,-1.22 2.44,-3.18 0,-2.93 1.22,-3.91 -0.49,-3.67 1.22,-2.44 2.2,-1.47 1.71,-2.2 -0.49,-3.18 -2.44,-0.49 -2.93,0 -3.18,-1.95 -3.91,-4.15 -3.91,-3.42 -2.44,-2.69 -3.91,-2.69 -0.98,-4.15 1.47,-4.4 2.93,-3.67 2.93,-1.71 2.44,-3.42 1.22,-4.15 5.13,-4.4 3.91,-2.93 3.18,-2.44 1.96,-4.64 1.95,-5.86 2.81,-4.53 1.45,-5.8 0,0 -1.57,-2.62 -1.71,-2.2 -0.98,-3.42 -0.73,-4.4 0.49,-5.62 0,-6.6 -1.47,-5.86 -2.93,-3.91 -2.44,-4.4 -1.22,-2.2 1.71,-2.2 3.91,-0.73 4.4,-0.49 3.42,-2.69 3.42,-4.64 2.93,-5.86 2.44,-6.11 1.47,-4.89 1.71,-5.62 2.93,-3.91 3.91,-1.71 6.35,0.73 2.93,1.22 3.18,3.42 1.95,3.18 3.18,3.67 4.64,0.49 4.15,-2.2 5,-0.12 0,0 1.54,-0.7 2.1,-0.85 1.4,-0.14 1.58,0.02 -0.47,1.31 -0.38,1.03 -0.84,1.41 -1.41,2.06 -1.5,1.31 -2.44,2.16 -2.53,1.31 -1.6,0.56 -2.25,1.41 -3.47,0.84 -3.47,1.31 -2.82,0.56 -3.08,0.66 -4.33,0.47 -1.5,1.13 -1.78,0.85 -0.47,2.16 -1.88,1.22 -0.66,1.13 0.84,1.69 0.56,1.31 0.09,1.88 0.19,0.94 0.84,0.47 1.13,-0.47 1.52,-1.66 1.16,-1.37 1.48,-2.16 0.74,-2.53 0.55,-1.19 2.39,0 5.63,0.19 5.73,-0.47 3.1,-1.31 2.06,-1.69 0.38,-0.16 3.23,-1.38 3.48,-0.73 1.31,-1.59 2.32,-0.84 0.92,-1.13 1.12,-1.74 0.77,-1.3 1.14,-0.97 0.75,-0.67 1.15,-1.44 1.48,-1.34 0.49,-1.55 0.21,-2.18 0.63,-1.69 0.92,-1.2 1.2,-1.34 1.2,-0.63 0.56,-0.28 0,-1.2 1.06,-1.76 1.06,-2.99 1.76,-1.97 0.92,-0.42 1.72,-0.57 0.59,-0.32 1.26,0 0.05,-0.09 0.81,-0.57 1.56,-0.31 1.17,-0.16 1.7,0.19 1.32,-0.45 1.08,0.1 z m 46.68,14.47 -1.15,0.99 -0.66,0.08 -0.82,-0.41 -1.65,-0.08 -2.47,0.17 -3.3,-0.33 -2.8,-0.41 -1.73,-0.74 -1.65,-0.99 -1.15,-0.74 -1.9,-0.41 -1.73,-0.49 -0.17,-0.66 0.66,-1.24 1.48,-1.07 1.15,-1.48 1.48,-2.31 1.81,-1.9 1.57,-2.47 1.57,-0.08 1.4,0.91 3.13,1.81 1.98,1.15 2.06,1.4 2.39,1.57 1.48,1.24 0.82,1.4 -0.17,0.91 -0.5,0.91 -0.33,1.65 -0.8,1.62 z m -22.75,-6.02 -1.57,1.81 -5.03,-0.08 -1.73,-1.15 -2.14,-1.65 -1.57,-1.73 -0.99,-1.24 -0.74,-1.24 -1.32,-0.99 -2.14,-1.57 -2.97,-2.39 -1.98,-1.15 -0.99,-0.66 0.08,-1.81 0.99,-1.57 2.39,-1.4 2.72,-2.23 1.81,-1.15 1.4,-0.66 4.86,-0.25 2.06,0.99 4.86,2.64 3.87,2.89 4.12,2.8 0.91,0.82 -0.08,1.15 -3.3,4.7 -2.14,2.72 -1.38,2.4 z" 
                fill="rgb(151, 144, 238)" 
                stroke="white" 
                stroke-width=".7px"
                title="Central Singapore" 
                id="SG-01" 
            />
        </svg>