<svg xmlns="http://www.w3.org/2000/svg" viewBox="435.6804200000002 82.80000000000003 177.06999999999965 172.6500000000001" width="177.06999999999965" height="172.6500000000001">
            <path 
                d="m 532.93042,110.3 1.26,1.05 1.33,1.02 0.49,1.15 0.1,1.4 -0.21,0.8 -0.94,0.25 -1.05,-0.31 -0.49,-1.02 -1.01,-0.85 -1.43,-1.43 -0.81,-0.47 -1.18,-0.67 -1.26,-0.72 -0.87,0 -0.74,0.81 -0.42,0.99 -0.52,-0.01 -0.67,-0.42 0.25,-0.98 0.6,-0.7 0.07,-0.98 -0.29,-1.41 -1.37,-1.07 -2.25,-1.76 -1.37,-0.52 -0.97,-1.13 -0.32,-1.68 -0.56,-1.26 -0.6,-0.56 -0.77,-1.26 -1.2,-0.68 -0.65,-0.62 -1.19,-0.28 -0.41,-1.03 -0.82,-0.76 -1.25,-0.72 -1.09,-1 -0.39,-0.98 0.07,-1.01 1.09,-0.38 0.94,0.1 0.91,0.77 1.05,0.84 1.05,1.44 0.56,1.54 1.05,0.52 2.14,0.88 1.09,0.46 1.4,0.74 1.01,1.12 1.64,1.48 1.54,1.96 1.26,1.54 1.58,1.51 1.22,1.26 1.72,1.72 1.68,1.32 z m -26.77,-17.66 0.42,2.19 -0.16,1.68 -0.42,1.59 0,1.51 0.5,1.26 2.54,1.19 4.18,3.8 5.88,5.7 3.61,2.65 4.94,3.42 -1.14,2.65 -5.32,3.23 0.38,2.28 1.32,1.6 2.48,-1.79 4.75,-2.66 3.23,-1.52 3.23,-0.38 2.66,1.9 2.47,2.47 2.28,3.6 1.9,4.18 2.28,3.8 2.85,1.14 3.61,1.71 3.19,3.11 1.43,1.51 1.85,1.42 1.76,0.08 1.43,1.26 1.26,0.5 0.92,0.84 1.18,0.75 1.51,0.08 1.85,1.01 1.93,-0.08 1.43,0.42 0.58,1.51 -0.25,1.18 1.09,0.58 0.08,-0.75 0.76,-1.59 1,0 0.92,0 0.67,1 1.09,-0.59 0.75,-0.25 1.09,0.59 1.51,0.25 2.35,0 1.09,-0.92 1.68,-0.25 1.51,-0.42 1.34,-0.42 1.26,-0.25 1.51,0.51 1.51,1.17 0.97,0.27 1.66,0.24 0.49,-1.81 0,-1.45 0.67,-1.57 1.34,-0.45 0.55,-0.96 1.01,-0.7 0.46,3 0.95,2.85 2.28,2.85 3.04,2.66 2.28,1.33 1.14,3.23 -0.76,3.61 -3.04,1.52 -1.33,1.52 -2.28,3.8 -3.61,3.61 -2.09,2.47 -2.66,2.09 -3.42,2.66 -1.52,0.95 0.57,2.85 1.71,1.9 1.14,3.99 0.38,4.18 -0.38,4.37 -3.42,1.33 -5.51,1.14 -2.85,1.33 -3.23,2.28 -3.42,3.23 -3.23,2.47 -3.42,3.04 -4.18,1.14 -3.04,0 -2.28,-2.09 -2.85,-1.9 -3.23,0.19 -6.83,0.57 -5.32,0.57 -3.99,-0.95 -3.61,-0.76 -3.42,-0.38 -1.04,2.97 1.56,0.46 2.51,0.24 -0.04,0.71 0.42,1.62 1.24,0.19 0.41,2.06 1.46,0.09 0.94,0.76 1.42,1.6 0.2,1.53 0.57,0.46 0.03,1.2 -1.51,1.89 -2.85,0.76 -4.56,0 -2.85,1.71 -2.85,2.47 -2.47,0.76 -2.09,0.38 -2.28,2.47 1.33,2.85 -1.9,1.52 -2.09,3.04 1.9,2.09 1.71,1.14 0,2.85 -0.38,1.9 -1.52,1.52 -5.51,-0.19 -5.13,0.57 -5.7,0.76 -5.32,0.76 -3.04,-0.38 -1.71,-2.28 -1.14,-3.61 1.9,-3.04 0.19,-3.04 -3.23,-2.09 -1.33,-3.04 -2.28,-3.42 -4.56,-4.37 -3.99,-3.23 -3.61,-4.37 -3.99,-1.52 -2.66,-2.47 -2.09,-2.47 0.57,-3.23 -0.95,-4.18 -1.9,-2.09 -6.65,-0.38 -3.23,-1.14 -3.04,-1.14 -3.42,-0.76 -2.47,-3.23 -1.14,-2.28 -0.19,-3.8 -2.28,-2.85 -3.42,-2.47 -1.9,-3.61 0,-5.71 1.33,-4.18 1.9,-4.18 0.82,-1.41 1.84,-3.15 1.71,-4.36 1.33,-5.13 0.95,-4.18 0.95,-3.61 1.9,-3.42 1.74,-2.93 0.13,-1.68 1.59,-0.84 1.31,-1.78 0.09,-6.18 2.43,-1.22 2.53,-1.03 2.43,-3.84 0.56,-2.62 0.66,-1.59 0.66,-1.12 0.37,-4.87 1.5,-1.78 2.53,-1.69 3.09,-1.5 2.9,-2.15 5.15,-7.86 0.3,-0.29 1.12,-1.02 0.39,-1.76 3.04,-1.52 4.56,-1.41 1.04,-1.05 1.76,0.08 0.21,-1.31 0.8,-0.79 1.43,-0.34 -0.36,-1.69 0.96,-0.98 0.84,-0.85 0.75,-0.77 0.31,-1.54 0.86,-0.9 1.01,0 2.74,-0.18 0.81,-0.79 0.81,-0.79 1.18,-0.25 1.26,0.59 0.75,0.67 0.08,1.43 -0.59,0.84 -0.67,0.59 -0.09,1.09 1.09,0.08 0.33,0.76 0.33,1.17 0.76,0.92 0.27,1.7 z" 
                fill="rgb(151, 144, 238)" 
                stroke="white" 
                stroke-width=".7px"
                title="North East" 
                id="SG-02" 
            />
        </svg>