<svg xmlns="http://www.w3.org/2000/svg" viewBox="0.2504164299995394 34.58999999999989 411.1600035700005 461.8700000000001" width="411.1600035700005" height="461.8700000000001">
            <path 
                d="m 186.24042,484.79 0,0.79 -0.9,-0.11 -1.3,0.17 -0.11,0.62 0.11,0.73 1.13,0.34 1.47,0.56 0.79,1.18 -0.56,0.9 -0.56,0.9 -1.35,0.06 -1.97,0.34 -1.19,0.39 -1.75,0.17 -2.31,0.79 -0.56,0.34 -1.19,1.02 -1.47,1.07 -1.47,1.41 -0.68,0 -0.45,-1.07 -0.4,-1.02 0.06,-2.37 0,-2.03 -0.63,-0.72 0.4,-0.9 0.85,-0.62 1.07,0.06 1.86,-0.28 1.97,-0.34 1.07,-0.56 0.85,-0.9 0.68,-0.9 0.68,-1.02 -0.17,-0.73 -0.34,-0.56 0,-1.02 0.34,-1.18 1.19,-0.11 1.02,0.34 1.52,0.39 0.96,0.73 0.56,0.68 -0.56,0.39 -0.06,0.73 0.73,0.62 0.67,0.72 z m 9.95,-27.91 -0.55,0.66 -0.68,-0.17 -0.17,-0.56 -0.28,-0.62 -0.68,-0.28 0,-0.79 0.79,0 0.56,0.11 0.4,0.79 0.61,0.86 z m 78.77,-6.19 -0.97,0.13 -0.08,-0.55 -0.72,-0.38 -0.76,-0.08 -0.3,-0.51 0.08,-0.47 0.97,0.13 1.02,0.3 1.35,0.38 -0.08,0.46 -0.25,0.42 -0.26,0.17 z m 38.54,10.13 -0.2,0.5 -1.3,-0.3 -2.01,-0.4 -1.2,-0.8 -0.8,-0.6 -2.31,-1.1 -2.41,-1.3 -1.71,-1.41 -0.7,-1.2 -1,-1.81 -0.7,-1 -0.4,-1.2 -0.5,-1.1 0,-2.21 0.1,-1.4 0.8,-0.8 0.8,0.6 0.6,0.7 0.8,1.1 0.8,0.7 1.3,1.1 1.5,0.9 1.81,1.5 0.4,1.4 1.4,1.5 0.6,0.9 1.71,1.4 1.1,1.61 0.5,1.2 0.8,0.7 0.22,0.82 z m -69.65,-13.14 0.59,1.06 1.06,-0.13 0.72,-0.17 0.59,0.13 0.42,0.8 0.63,0.51 0.72,0.85 0.72,1.02 0.17,1.06 -0.13,1.44 -0.63,0.25 -0.63,0.47 -0.63,0.85 -0.76,1.14 -0.34,1.73 -0.42,0.51 -0.42,0.13 -0.17,-0.72 -1.4,-0.13 -0.51,0.55 -0.68,0.97 -0.72,0.42 -0.59,-0.76 -0.21,-0.93 -0.47,-1.61 -0.59,-2.12 -0.68,-1.69 -0.13,-1.74 0.47,-1.31 0.13,-1.48 0.38,-1.27 0.63,-1.65 0.68,-0.85 0.59,-0.72 0.08,-0.59 0.25,-0.93 0.42,-0.97 1.78,-0.13 0.17,0.46 -0.25,0.38 -0.97,0.17 -0.38,0.21 -0.25,0.63 -0.34,0.85 0.3,0.51 0.08,1.1 0.21,0.97 0.51,0.73 z m -61.7,-0.41 1.41,0.45 0.96,-0.62 1.13,-0.85 1.07,-0.62 0.79,-0.62 0.68,-0.23 0.62,0.62 0.79,0.85 0,0.51 -0.62,0.51 -0.9,0 -1.02,0.34 -0.68,1.3 -0.23,1.35 0.62,1.02 1.07,0.85 1.81,0.23 1.13,0.34 0.79,0.73 1.07,1.02 -0.51,0.73 -1.81,0.17 -0.34,1.41 -0.73,1.86 -1.69,0.23 -1.69,0.34 -1.3,-0.23 -1.3,-0.45 -1.52,-0.34 -2.6,0.06 -5.08,0 -0.79,0.34 -1.92,0.68 -1.75,-0.23 -2.93,-0.79 -3.39,-0.51 -2.65,-0.28 -1.81,-0.56 -2.65,-0.23 -2.31,-0.28 -1.19,-0.62 -0.17,-1.24 0.79,-1.13 0.79,-0.9 1.92,-0.23 1.07,-0.4 0.96,-0.68 1.35,-1.07 1.07,-1.24 0.96,-1.41 1.07,-1.07 2.03,-1.3 1.58,-0.96 1.52,-0.73 3.67,-0.51 1.41,-0.34 1.35,-0.45 1.75,-0.79 1.35,-0.23 1.58,0.34 0.51,1.13 0.11,0.62 0.34,1.35 1.24,1.41 1.22,1.35 z m 189.5,-8.32 -0.41,0.06 -0.65,-0.29 0,-0.47 0.41,-0.18 0.24,-0.24 0.41,-0.29 0.18,-0.47 0.41,-0.59 0.3,-0.59 0.59,-0.18 0.12,0.59 0.35,0.29 -0.24,0.47 -0.24,0.12 -0.29,0.47 -0.41,0.41 -0.41,0.41 -0.36,0.48 z m -3.42,-4.01 -0.59,0.06 -0.18,-0.59 0.12,-0.53 0.41,-0.47 0.77,0.06 0.29,0.65 -0.29,0.53 -0.53,0.29 z m 25.25,-10.98 0.77,0.65 0.94,-0.06 1,1 0.83,0.53 1,0.24 0.89,0.65 0.06,0.59 -0.35,1.24 0.29,2.18 0.35,1.36 0.18,2.01 0.12,1.71 -0.59,0.47 -0.47,-0.29 -0.83,-0.71 -0.53,-0.65 -0.41,-0.65 -0.47,-0.71 0.18,-0.83 -0.19,-0.94 -0.83,-0.29 -0.94,-0.77 -1.59,-1.3 -0.94,-1.18 -1.36,-1.18 -1.06,-1.3 -1.12,-0.71 -0.88,-0.59 -0.06,-1.06 0.59,-0.71 0.53,-0.71 1.24,-0.29 0.47,0.47 0.53,1 1.18,0.41 1.47,0.42 z m 16.64,3.67 -0.59,0.35 -0.94,-0.53 -0.65,-0.65 -1,-0.53 -1.12,-1.06 -0.94,-1.12 -0.77,-0.94 -0.71,-0.88 -0.06,-1.71 -0.12,-1 -0.71,-0.94 0.18,-1.18 0.59,-0.29 1,0.06 0.24,0.59 0.88,0.53 0.77,0.77 1.18,1.12 1,1.06 0.59,0.94 1.12,0.41 0.88,0.71 0.47,0.71 -0.18,1.12 -0.47,0.59 -0.47,1.12 -0.17,0.75 z m -179.68,-5.57 -1.2,0.5 -2.21,-0.1 -1.6,0.2 -1.4,0.3 -1.4,-1 -0.6,-0.6 -1,-0.9 -0.3,-1.4 0.2,-1.1 0.1,-1.41 -0.3,-0.9 0.6,-1 1.3,-0.1 1.6,0.6 2.11,0.8 1.6,0.7 1.3,0.9 1.81,1.2 1.2,1.2 0.4,0.9 -0.8,1 -1.41,0.21 z m 171.71,-11.54 -0.65,0.88 -0.83,0.53 -1,0.12 -0.94,-0.53 -0.83,-0.41 0.29,-0.47 0.88,-0.12 0.47,0.24 0.71,0.06 0.53,-0.12 0.47,-0.88 0.65,-0.77 0.35,-0.94 0.59,0.18 0,0.53 0,0.59 -0.53,0.35 -0.16,0.76 z m 6.85,0 -1.06,0.12 -0.35,-0.29 0.12,-0.47 0.59,-0.29 0.47,-0.29 0.53,-0.29 0.24,-1.06 0.29,-0.65 0.71,-0.18 0.35,0.77 -0.24,0.88 -0.53,0.65 -0.59,0.59 -0.53,0.51 z m -28.38,1.24 -0.53,0.12 -0.65,-0.59 -0.59,-0.65 -0.65,-0.83 -0.65,-0.65 -0.53,-0.83 -0.71,-1.06 -0.29,-1.18 0.88,0.71 0.35,0.53 0.59,0.53 0.71,0.59 1,0.94 0.59,0.77 0.47,0.77 0,0.83 z m -141.45,0.77 -1.1,0.2 -0.9,-1 0,-1 -0.7,-0.8 -1,-1 -0.6,-0.7 -1.2,-0.9 -0.3,-1.3 0.2,-1.71 1,-2.01 1,-1.6 2.31,-0.7 0.8,0.5 0.5,0.4 0.5,1.5 0.6,1.6 0.4,1.2 0.6,1.5 -0.1,1.5 -0.7,1.4 -0.7,1.5 -0.61,1.42 z m -22.67,-4.81 -2.01,0.7 -1.71,-0.3 -1.6,-0.6 -0.8,-0.4 -0.9,-0.9 0.1,-0.9 -0.5,-1.2 0.9,-1.2 1.6,-0.6 1.1,-1 1.91,-0.9 1.91,-1 1.1,-0.5 1.5,-0.5 2.21,0 1.81,0.4 1.5,0.9 0.8,1.41 0.7,1 -0.3,1.1 -0.7,0.8 -1.1,0.7 -2.11,0.9 -2.91,1.5 -2.5,0.59 z m 44.23,-4.31 0.6,1 1.3,-0.2 0.6,-0.2 0.4,0.6 0.3,0.5 1.6,0.9 0.4,1 1,0.9 2.01,1.71 1.71,1.5 1.2,1.4 0.8,1.1 -0.5,0.5 -0.1,0.8 1.2,1.2 0.6,0.8 0.8,1.3 0.2,1.1 -1,0.6 -1.6,-0.1 -2.11,-0.1 -0.4,-1.1 -1,0.2 -0.7,0.6 -1.3,-0.1 -0.8,-1 -0.3,-1.2 -0.3,-1.81 -0.6,-1 -0.6,-0.8 -2.61,-1.81 -0.9,-0.7 -0.9,-0.4 -1.5,-0.4 -1,-0.5 -1.2,0 -0.5,0.9 0.2,0.8 0.8,0.2 1.1,0.7 1.1,0.6 1,0.8 0.9,0.7 -0.2,0.7 -0.8,0.3 -0.4,0.8 -1.4,0.3 -0.6,1 -0.8,0.8 -2.11,0.1 -1.91,0.3 -3.11,-0.3 -2.01,-0.5 -1.5,-0.4 -1.81,-0.2 -1.2,-0.5 -0.8,-1 -0.1,-1.4 0.6,-1.3 0.5,-0.9 1,-1 0.6,-0.6 0.2,-0.7 1,-0.1 1.1,0.7 1.91,0.8 1.71,0.1 1.4,-0.4 0.6,-1.61 -1,-1 -2.31,0 -1.6,-0.7 -1.91,-1.2 -0.6,-1.4 -0.4,-1.91 -0.8,-1.91 -0.5,-1.1 -0.2,-1.4 0.1,-2.01 0,-0.8 0.7,-0.8 0.5,-0.9 1.5,-0.4 1.1,0.2 2.21,0.4 1.2,0.4 1.81,0.6 0.7,0.8 0.7,1.1 0.9,0.7 1.1,1.1 1.4,0.6 1.4,0.8 1,1 0.7,0.9 0.53,0.95 z m 72.61,-41.82 2.12,0.55 2.36,-0.16 1.26,0.55 1.26,0.24 0.94,-0.24 0.94,-0.55 0.79,-0.47 0.47,-0.87 0.71,-0.39 0.08,0.94 0.87,1.18 2.04,0.63 2.28,1.57 3.62,1.26 1.97,1.89 1.89,0.63 2.04,0.87 2.36,0.31 2.36,-0.08 2.2,-0.31 1.65,0 1.65,0.87 0.94,0.39 1.02,0.71 1.73,0.79 1.89,0.24 1.1,-0.63 1.26,-0.87 1.89,-0.24 1.57,0 1.49,0.31 1.49,0.16 0.63,0.71 0.24,1.65 -0.47,1.1 1.02,0.63 1.18,-0.16 0.39,-0.87 0.71,-0.16 1.34,-0.94 1.02,-0.39 1.34,-0.55 2.2,-0.31 1.34,0.55 1.02,0.63 0,1.1 -0.55,0.94 -0.39,1.34 -1.18,1.49 -1.26,1.34 -0.94,1.57 -1.18,1.57 -0.63,1.34 -1.49,2.04 -0.83,0.55 -0.79,0.55 -0.31,1.26 -0.55,-0.16 0,-0.94 -0.08,-1.02 -0.16,-0.71 -0.94,-0.79 -0.71,-0.63 -0.63,-0.39 -0.79,-0.55 -0.87,0 -0.31,1.18 0.16,1.02 0,1.5 0,1.1 -0.55,1.1 -0.24,1.18 0.87,1.18 0.71,0.71 0,0.47 -0.63,0.16 -0.55,0.71 -1.1,0.94 -0.63,0.39 -1.34,0.63 -0.79,0.47 -0.47,0.47 -0.71,-0.55 -0.79,-0.24 -0.79,0.47 -1.49,0.31 -1.18,0.39 -1.02,0.24 -0.94,0.63 -0.47,0.94 -1.38,0.16 -1.49,-0.47 -0.71,-0.47 -0.94,-0.79 -0.31,-1.49 -0.47,-1.73 -1.1,-0.71 -1.1,-0.63 -0.08,-0.94 -0.79,-0.39 -1.65,-0.94 -1.34,-1.18 -0.94,-1.34 -1.26,-1.1 -0.94,-1.42 -0.79,-1.73 -0.79,-1.18 -1.02,-0.79 0.08,0.47 -1.42,-0.63 -0.63,-0.24 -0.47,-1.18 -0.55,-0.63 -1.02,-0.71 -2.28,-0.08 -0.39,0.31 -0.31,0.47 -1.18,-0.24 -0.71,-0.55 -1.02,-0.71 -0.87,-1.02 -0.87,-1.02 -1.18,-1.57 -1.18,-0.63 -1.42,-1.02 -1.18,-0.63 -0.24,-1.1 -1.02,-0.63 -1.49,-1.1 -1.1,-1.26 -1.34,-0.71 -1.81,-0.39 -0.63,-0.87 -0.55,-1.18 -0.39,-0.94 -0.79,-1.26 -0.47,-0.63 0.24,-0.79 1.02,-0.16 1.02,-0.24 1.89,0.31 2.12,0.63 1.58,0.6 z m 49.47,1.89 0.24,0.94 -0.55,0.32 -0.63,0.55 -2.28,0 -0.94,0.39 -0.79,0.55 -0.79,0.63 -1.42,0.47 -0.87,0.63 -0.71,0.63 -0.55,0.24 -0.87,-0.47 -0.71,-0.08 -1.02,-0.55 -1.49,-0.24 -1.02,-0.47 -1.18,0 -0.31,-0.55 0.24,-0.39 0.16,-0.55 -0.55,-0.71 -1.18,-0.55 -0.94,-0.16 -0.87,0.94 -0.63,0.47 -1.18,0.16 -0.63,-0.47 -0.87,-0.47 -1.26,-0.55 -1.1,-0.24 -1.1,-0.31 -0.94,-0.71 -0.79,-1.02 -0.79,-0.87 0.87,-1.81 1.57,-0.71 1.42,-0.87 2.04,-0.87 2.04,-0.87 2.05,-0.39 2.04,-0.55 2.52,0 1.34,0 2.28,-0.31 1.57,0.47 1.49,1.02 1.26,1.34 1.42,1.34 0.63,0.63 1.1,1.18 1.18,1.49 1.5,1.35 z m -49.15,-8.73 -0.71,0.41 -1.17,-0.15 -1.27,-0.05 0.05,-0.61 0.61,-0.3 0.36,-0.51 0.38,-0.2 0.68,0.15 0.25,0.25 0.46,0.46 0.36,0.55 z m -148.88,-42.85 0.7,2.81 0.2,5.12 0.8,0.6 1.1,1.5 1.81,1.91 2.31,2.71 2.01,0.9 1.5,0.6 5.92,0.4 3.01,0.3 2.51,1.4 2.51,1.61 1.4,2.71 0.2,2.81 -0.5,1.1 -2.31,1.91 -2.71,2.31 -2.51,1.81 -1.5,0.8 -2.91,0.3 -2.31,-0.6 -1.3,-1 -2.31,-1.2 -3.71,-1.81 -2.51,-0.7 -2.41,-0.3 -1.5,0.2 -1.3,0.9 -1.71,1.1 -1.91,1.5 -1.6,1.61 -0.3,1.71 1.4,1.5 2.21,0.4 1.2,0.5 1.5,0 0.6,-0.8 0.9,-0.2 -0.2,1.2 -0.5,0.8 0.9,0.5 0.1,1.2 -0.5,0.6 -0.7,1.2 -1.81,1.71 -1.71,1.3 -0.5,1.1 -2.51,0.3 -2.11,-1.3 -1.71,-1.61 -1.71,-0.1 -0.7,-1.1 -1.6,-1.2 -4.81,-2.61 -3.51,-1.5 -0.1,-3.81 -0.8,-1 -1.1,0.5 -1,0.44 -0.6,1.41 -1,-0.1 -1.5,-0.4 -1.3,-0.2 -0.7,0.5 -1.1,1.1 -0.8,1.61 -0.2,1.5 0.7,0.4 2.21,1 3.21,1.91 3.01,2.11 3.81,1.91 2.31,1.4 1.6,1.1 0.4,0.9 -0.8,0.8 -1.2,0.3 -2.31,1.1 -1.81,0.8 -1.61,0.96 -2.11,0.04 -2.21,1.3 -3.61,3.01 -4.01,2.91 -5.52,3.11 -3.21,2.41 -1.5,0.1 -0.5,-2.01 -1.81,-3.91 -1.81,-4.69 -1.5,-3.31 -0.8,-2.43 -1.81,-3.61 -1.3,0 -1.1,0.5 -2.11,1.5 -1.81,1.2 -1.81,1.3 0.3,1.3 1,3.31 1.6,4.21 2.01,6.12 1.71,4.81 -0.1,1.71 -0.9,0.9 -2.11,1.4 -2.31,1.61 -1.5,0.5 -0.1,-1.5 -2.41,-5.72 -2.91,-7.62 -2.11,-5.52 -1,-0.5 -0.7,0.5 -3.01,2.21 -2.31,1.81 -1,1.2 0.1,2.61 3.91,10.03 2.11,7.12 -0.1,1.6 -0.7,0.6 -3.61,1.5 -4.21,1.91 -3.910004,0.8 -3.51,0.4 -3.61,-1.41 -2.91,-1.8 -2.41,-2.71 -2.51,-3.21 -0.9,-1.5 -0.6,-1 -2.61,-3.91 -3.11,-5.32 -2.41,-4.41 -2.11,-4.61 -1.6,-3.81 -0.7,-2.51 -0.5,-1.2 -1.3,-3.21 -1,-3.63 -0.7,-2.91 -0.4,-2.11 1,-1.5 1.1,-2.11 2.51,-2.11 2.61,-2.31 3.11,-2.41 4.01,-3.41 2.91,-2.81 2.31,-2.71 2.71,-1.91 2.51,-1.91 4.21,-2.51 4.76,-3.81 2.510004,-1.91 2.91,-1.81 2.31,-1.81 2.31,-1.4 2.51,-1.71 2.11,-1.71 3.11,-0.9 2.81,-0.4 1,-0.6 1.25,0.18 0.7,0.6 3.11,0.1 1.1,-0.8 0.4,-1.71 1.3,-1 2.31,-0.3 2.01,0 0.9,0.6 -0.3,2.11 -1.4,0.9 -0.9,0.6 -1.81,1.61 -2.71,2.11 -1.3,1.2 -1.1,2.01 -0.4,2.11 -0.5,0.7 -1.5,1.71 -1.6,2.41 -2.51,2.71 -2.41,2.21 -1.91,1.71 0.1,1.81 0.5,0.6 1.4,1.5 2.11,1.71 1.81,1.1 0.5,-0.9 1.4,-0.9 1.81,-1.1 1.3,-1 1.1,-1.2 0.7,-0.6 0.6,0.3 0.5,0.7 1.3,0.6 0.8,-0.6 0.9,-0.8 1.2,0 1.2,-0.2 0.5,-1.54 -1,-1.2 -0.2,-1.4 0.2,-1.5 0.9,-1.81 1.4,-1.81 2.01,-2.01 1.6,-1.2 1,-1 1.3,-0.3 0.8,0.3 0.7,0.7 1.3,-0.2 1.1,-1.1 0.4,-1 -0.1,-1 -0.6,-0.8 -0.1,-1.3 0.4,-0.5 0.5,0.6 0.5,0.5 0.9,0.5 1.4,0 0.9,-1.4 1,-1.2 -0.6,-1.3 -1.2,-1 -0.9,-0.4 0,-0.92 0.6,-0.7 1.5,-0.9 1.91,-1.2 1.91,-1 1.5,-0.2 2.01,-0.1 2.41,-1.1 2.11,-0.4 2.81,-0.6 3.81,-0.6 3.21,0.4 2.61,0.6 2.11,0.9 2.61,1 2.01,1.91 1.6,1.34 1.6,1.5 0.9,1 0.84,1.8 z m -47.92,-20.28 -2.22,0 -1.18,-0.74 -0.44,-1.03 0,-1.48 -0.22,-1.92 -0.44,-1.18 -0.37,-1.48 -0.37,-1.04 -0.15,-1.11 0.22,-0.96 1.04,-0.07 0.96,0.22 0.67,0.81 0.74,1.03 1.77,1.85 0.74,1.11 0.37,0.81 -0.15,0.96 -0.15,0.89 -0.15,2.73 -0.67,0.6 z m 41.26,-252.43 1.51,0.8 1.74,-0.47 3.14,-0.56 1.68,-1.45 2.31,-0.89 1.5,0.22 1.28,-0.05 0.62,1.61 -0.05,1.16 1.03,0.6 1.6,0.59 0.76,0.93 0.17,1.26 0.59,1.43 1.18,1.01 1.72,0.53 1.66,0.48 1.18,1.26 1.1,0.59 -0.08,1.35 -1.43,1.18 -0.25,2.11 1.45,1.34 2.43,0.09 1.6,-0.08 7.76,-0.39 1.84,-1.12 0.37,-0.11 1.68,0.67 2.46,0.79 2.57,1.68 1.34,1.79 1.34,0.22 0.94,-0.07 2.38,-0.16 1.43,0.08 0.92,-1.01 0.92,-0.67 1.26,-0.08 2.09,-0.48 0.85,0.07 0.77,0.29 0.85,-0.1 0.8,0.12 0.72,0.04 0.62,-0.21 1.26,-0.3 0.96,0 0.43,0.18 0.41,2.93 1.52,4.75 0.38,6.08 -2.28,3.61 -4.37,5.13 -5.51,5.31 -0.76,8.55 0,5.31 0.57,7.6 -2.28,3.23 -2.66,5.51 0.95,5.5 1.33,8.55 3.04,6.26 4.18,6.26 3.61,3.8 1.9,4.75 1.71,5.31 2.47,6.08 1.33,5.7 2.85,5.32 2.28,3.6 0.57,5.32 0.57,9.11 0.76,5.7 3.99,5.5 5.51,6.08 4.18,5.13 2.85,1.33 2.66,1.52 2.28,2.28 0.57,4.36 -2.1,2.28 -3.99,0.57 -4.37,0 -0.57,4.36 -3.23,0.76 -2.66,1.9 -3.04,2.28 -3.23,0.95 -4.18,0 -3.8,-0.75 0,6.08 0.57,2.09 1.9,2.85 2.09,2.28 4.94,3.99 6.27,3.99 4.18,4.75 5.32,4.18 4.37,2.47 5.7,0 2.09,2.28 4.18,3.04 4.37,2.66 5.13,2.85 4.75,0.94 0.95,3.42 -0.57,3.41 -1.9,3.42 -1.33,3.04 1.52,3.99 2.66,1.9 1.33,3.42 0.76,3.42 0.76,4.94 0.76,5.5 1.71,3.23 4.18,3.6 4.18,1.33 2.28,-1.52 4.18,0.19 2.85,1.14 3.99,0.19 4.56,-0.19 1.52,2.28 0.38,3.42 -3.04,2.66 -1.9,1.9 -2.28,3.23 -0.76,3.04 0.95,3.04 1.71,3.23 2.47,2.09 1.15,0.56 -1.34,2.15 -2.72,-0.09 -1.22,0.55 -0.5,0.9 -0.91,0.81 -1.45,-0.09 -1.36,-0.18 -1.18,-1.18 -1.59,-1.22 -4.43,-4.38 -1.48,-0.1 0.15,1.68 4.58,4.43 0.07,1.81 -0.58,0.53 -0.77,0.51 -1.53,-0.05 -0.87,-0.51 -1.12,-1.22 -0.97,-1.17 -0.81,-0.41 -0.41,-1.48 -1.22,-1.22 -1.38,-1.02 -0.36,-1.07 -1.02,-0.66 -1.43,-0.2 -0.76,-0.66 -0.25,-0.87 -0.46,-1.17 -0.66,-0.81 -1.43,-0.66 -1.58,0 -0.81,-0.46 -0.35,-0.53 -1.33,-0.14 -0.36,0.66 -0.51,0.61 -0.41,0.51 -1.07,0 -0.81,-0.61 -1.78,-0.87 -2.09,-1.22 -1.17,-0.36 -1.51,-1.31 -3.16,-1.83 -2.7,-1.43 -3.77,-2.24 -3.72,-2.29 -2.7,-1.43 -0.71,-0.25 -0.17,0.37 -2.63,4.32 -2.7,4.58 -3.36,5.2 -2.19,4.18 -3.06,5.35 -1.02,0.05 -7.23,-4.63 -6.72,-4.48 -10.75,-6.93 -8,-5.14 -2.09,-1.58 -1.27,-1.07 -2.6,-1.02 -1.83,-1.12 -1.02,-0.66 0.41,-1.02 1.53,-2.09 5.45,-8.89 0.76,-1.07 2.29,-0.36 1.99,0.31 1.99,1.02 7.13,4.99 -0.01,0.7 -0.5,0.06 0.15,1.83 0.81,0.66 1.07,0.56 1.68,0.97 2.44,0.05 0.77,-0.33 0.91,-0.84 0.61,-1.07 0.92,-0.25 0.97,0.41 0,3.41 2.02,1.46 0.96,0.55 1.65,-0.13 0.56,-0.66 1.07,0.05 1.07,0.71 0.92,0.31 1.78,-0.05 1.12,-2.45 1.07,-2.29 0.66,-1.12 0.2,-1.18 -10.72,-6.78 -7.25,-4.78 1.88,-3.46 0.36,-2.69 0.31,-1.78 -0.36,-0.38 -1.19,-0.71 -0.96,-0.32 -1.19,-1.19 -1.11,-1.74 -2.36,-2.98 -1.91,-1.4 -0.15,-2.37 -1.3,-1.83 -1.3,-2.45 -0.46,-2.68 -1.15,-2.37 -0.99,-0.69 -1.22,-1.3 -1.45,-1.38 -1.75,-1.11 -1.58,-0.55 -2.7,-0.32 -2.61,0 -1.99,0.15 -2.37,-0.08 -1.91,0.46 0.15,0.92 0.46,0.69 2.22,0.61 1.36,-0.4 3.82,0.26 2,0.82 1.84,0.4 0.38,1.13 2.36,1.62 0.48,1.19 -0.62,1.02 0.08,1.38 0.99,0.46 -0.15,0.46 -0.23,1.22 1.76,0.76 0.76,1.99 0.69,2.29 1.29,2.12 0.24,1.86 -4.05,0.08 -3.44,0.46 -4.66,0.08 -4.82,-1.3 -5.2,-1.53 -4.51,-0.84 -5.58,-1.22 -4.28,-1.22 -4.13,-1.38 -2.37,-0.92 -2.91,-0.08 -0.46,0.69 -1.38,0 -0.69,0.84 -0.54,0.46 0,-1.68 0.76,-6.27 0.61,-6.5 0.38,-2.68 0.61,-3.98 1.22,-2.37 3.1,-2.92 2.4,-3.32 0.51,-1.72 -0.9,-0.58 -1.3,-0.15 -1.83,0.15 -1.3,0.76 -0.72,1.69 -1.67,3.34 -3.19,2.78 -0.69,0.99 -0.61,2.6 -0.61,4.28 -0.46,1.99 -0.15,2.59 -0.08,1.01 -0.46,0.99 -0.04,3.36 -0.27,1.51 -0.54,1.38 -0.23,0.71 -2.3,-1.37 -3.13,-2.14 -3.52,-3.13 -3.36,-2.68 -2.22,-1.61 -2.45,-0.23 -1.91,-0.31 -1.91,-0.15 -2.29,0.08 -0.99,1.45 -1.15,0.54 -2.22,0.23 -0.61,1.15 -0.23,1.99 -0.61,1.61 -0.18,3.16 -0.04,0.38 -0.02,0.2 -0.98,0.98 -6.5,0 -0.15,-2.83 -1.07,-1.22 -2.29,-0.38 -1.68,-1.22 -1.91,-1.68 -0.96,-1.59 -1.02,-0.86 -3.06,-0.54 -1.15,0.76 -1.45,0.46 -1.22,1.45 -0.54,1.91 -0.54,1.61 0.08,1.38 0.23,1.45 0.83,0.91 -0.09,3.2 -2.04,0.25 -1.53,0.38 -3.17,0.71 -2.33,-0.03 -2.35,0.74 -4.23,-0.13 -0.54,-5.12 -0.92,-4.13 -0.23,-3.59 -0.38,-2.45 -0.92,-0.92 -0.53,-0.77 -0.99,-0.99 -1.3,0.46 -0.46,1.38 -0.76,0.99 0,2.45 0.46,2.52 0.23,4.82 0.61,8.03 -1.22,0.84 -1.5,0.34 -0.79,0.5 -1.61,-0.31 -7.650004,-8.49 -0.54,-4.36 -0.85,-3.45 -2.97,-0.07 -3.69,0.78 -0.82,1.05 0.31,4.43 0.76,5.51 7.03,7.72 0,1.07 -2.69,2.27 -1.98,1.92 -3.98,3.06 -3.06,2.98 -2.14,-2.6 -1.45,-1.76 -1.15,-0.23 -1.84,1.38 -3.52,3.06 -0.76,-1.83 -3.03,-3.61 -1.09,-0.67 -2.19,-2.28 -1.43,-2.02 -1.1,-1.18 -0.34,-1.26 1.26,-1.01 0.84,-1.01 0.08,-1.01 -0.38,-1.09 -1.64,-1.78 -1.35,-1.94 -1.6,0 -0.84,0.76 -1.26,0.84 -0.84,-0.08 -1.84,-1.2 -0.57,-1.14 1.23,-0.54 3.96,-4.38 3.37,-4.22 2.53,-2.28 1.1,-1.1 1.01,-1.26 0.34,-2.28 -1.18,-1.01 -1.26,-0.34 -1.26,0.25 -1.1,0.42 -1.6,1.52 -1.77,1.69 -1.77,2.36 -1.43,1.01 -1.18,1.52 -0.67,0.84 -0.67,0.59 -1.01,0 -1.18,-1.1 -1.18,-1.43 -1.26,-1.1 -0.25,-1.26 0.76,-1.69 0.93,-0.93 1.77,-1.52 1.94,-2.02 2.87,-3.74 0.16,-1.19 -1.11,-1.19 -1.43,-1.5 -1.58,-0.72 -1.93,1.39 -2.29,2.24 -3.2,2.95 -3.29,3.5 -1.58,-1.35 -1.83,-1.74 -1.83,-1.11 -1.51,-1.67 -2.06,-1.35 -6.46,5.57 -0.93,0.93 1.35,1.1 5.13,4.54 0.33,1.12 8.61,15.59 0.43,2.44 6.41,11.3 3.37,6.46 2.44,4.64 0.85,1.59 0.17,2.36 -0.76,1.6 -1.83,0.72 -3.06,0.46 -14.16,0.25 -13.49,-0.23 -6.49,-0.44 -4.96,-1.81 -4.6499996,-3 -3.12,-2.78 -1.76999997,-3.63 -0.42,-3.96 -0.2,-4.15 0.42,-6.07 0.98999997,-3.14 0.12,-0.91 1.18,-2.54 1.03,-3.25 1.03,-3.42 1.51,-3.49 1.35,-3.65 1.43,-3.97 1.3499996,-4.12 1.26,-2.93 0.76,-2.96 7.63,-20.1 3.29,-9.11 2.78,-6.58 0.17,-2.14 2.02,-4.89 1.01,-3.71 1.26,-3.29 -0.51,-2.02 -0.84,-3.12 0.34,-2.7 1.1,-1.52 1.35,-0.93 2.03,-1.64 1.43,0.12 0.51,-2.44 1.4,-2.93 1.05,-3.1 0.39,-0.83 0.53,-0.98 1.41,-0.87 1.25,-1.21 1.75,-3.05 1.15,-2.02 1.16,-2.21 1.25,-2.22 1.63,-2.78 1.06,-2.5 1.64,-3.17 1.15,-1.73 0.19,-1.25 0.87,-1.06 0.96,0.1 1.1,0 0.06,-1.06 1.88,-0.71 1.1,-0.54 0.79,-0.14 0,-1.17 0.81,-0.76 0.63,-2.59 0.96,-1.44 0.48,-1.92 1.06,-1.83 2.89,-5.39 0.25,-1.14 0.05,-2.03 0.65,-0.97 0.67,-0.67 1.06,-0.29 1.16,-0.18 0.67,-0.67 0.08,-1.18 0.78,-1.14 0.23,-0.97 1.43,-0.17 0.83,-1.46 -0.16,-0.98 0.17,-1.85 0.47,-0.91 -0.05,-1.03 0.08,-8.77 0.51,-1.01 0.25,-2.11 0.46,-0.06 0,-1.35 0.38,-1.35 0.17,-1.46 0.25,-1.26 0.34,-0.25 -0.08,-1.94 -0.51,-0.59 -0.42,-1.18 0.08,-1.69 0.76,-0.42 1.43,-0.34 1.1,-1.85 0.73,-0.32 0.19,-1.15 -0.09,-1.63 -0.4,-0.92 0.25,-1.01 2.28,-0.25 1.1,-0.25 0.4,1.42 -1.07,0.35 -0.34,1.85 0.51,1.01 1.85,-0.08 0.91,-1.06 0.1,-0.96 0.11,-0.85 1.21,0.01 0.67,0.76 1.1,-0.42 0.76,-0.67 0.79,-0.88 0.06,-0.63 -0.34,-1.1 -0.51,-1.26 -0.42,-1.26 -0.84,-0.42 0.25,-0.76 0.93,-0.34 3.46,-0.34 -0.08,-1.52 -0.84,-0.25 -0.84,-0.59 0.13,-1.29 -0.1,-0.96 0.1,-0.96 0.03,-0.83 1.52,-0.08 0.56,-1.01 0.48,-0.57 -0.53,-0.8 -0.84,-0.59 0.42,-0.51 0.67,0.08 0.59,0.42 1.77,-0.17 0.25,-1.85 0.67,-2.19 -0.84,-0.84 -1.39,0.77 0,-2.11 0.8,-0.51 -0.03,-1.99 0.28,-1.05 0.84,-0.67 1.69,-0.25 0.67,-0.84 0.650004,-0.94 0.45,-0.92 0.08,-1.1 0.76,-0.51 0.84,-0.93 0.93,0.08 0.93,0.84 1.69,-0.59 0.93,-0.17 1.26,-1.01 0.88,-1.48 0.77,-1.25 1.38,-0.64 0.93,-0.17 0.84,0.17 1.35,0.67 2.11,0.51 0,-2.55 1.69,-0.25 0.93,0.67 1.69,0.08 0.59,-1.77 0.52,-0.98 1.25,-0.29 1.1,0.42 1.69,-0.67 1.85,0 1.55,-0.98 2.57,-1.24 2.24,-1.9 2.46,-2.02 3.58,-3.02 1.68,-2.35 2.24,-1.01 2.19,-0.34 1.01,-2.19 1.52,-0.42 -0.08,-2.19 1.19,-1.68 3.36,-2.35 2.79,-1.53 2.95,-2.36 2.67,-2.03 2.35,-0.56 2.99,-0.44 3.88,-1.1 2.19,-1.01 4.05,-0.25 1.01,0.76 -0.08,2.02 0.15,1.82 z" 
                fill="rgb(151, 144, 238)" 
                stroke="white" 
                stroke-width=".7px"
                title="South West" 
                id="SG-05" 
            />
        </svg>