<svg xmlns="http://www.w3.org/2000/svg" viewBox="405.2904200000005 65.82999999999994 394.9499999999995 257.8499999999998" width="394.9499999999995" height="257.8499999999998">
            <path 
                d="m 633.52042,131.77 2.21,0.72 1.31,-0.07 3.15,1.39 2.5,0.66 2.46,0.78 2.69,0.34 1.23,0.78 1.79,0.34 0.1,0.17 2.26,1.09 1.55,1.09 2,1.09 2.46,2.37 2.55,2.19 2.46,3.65 1.55,2.64 0.55,2.46 1.09,2.46 0.82,2.28 0.46,6.47 -0.27,3.83 -0.37,2.92 0.09,0.07 -0.09,10.51 2.64,0.18 2.83,1.18 2.46,1.55 -2,5.1 -3.28,7.56 -4.45,10.68 -3.74,8.68 -2.73,6.65 -4.28,9.11 -3.83,9.3 -1.37,3.28 -0.27,1.82 -0.64,2.19 1.37,2.1 2.28,0.55 2.1,0.18 2.28,-0.36 3.37,-0.64 2.28,-0.18 1.37,-0.36 1.64,-0.27 1.73,-0.73 2.92,-0.73 1.64,0.18 1.82,0.55 2.19,0.73 1.73,0.91 1.28,0.82 1.46,1.09 1.37,0.46 2,0.36 1.28,0.82 2.19,0.64 1.91,1.37 0.04,1.19 0.1,2.75 -0.43,1.94 -0.65,0.86 -0.02,0.03 -0.05,0 -1.05,0.96 -2.45,0.65 -2.09,0.65 -1.91,0.43 -2.52,0.83 -2.41,1.19 -1.94,1.01 -1.87,0.47 -1.76,0.72 -2.09,0.72 -1.62,0.65 -1.08,0.36 -3.09,0.31 -5.16,0.61 -3.77,-0.2 -3.18,-1.77 -3.96,-1.91 -6.36,-2.31 -6.31,1.39 -3.82,1.34 -1.27,-6.35 -0.79,-1.37 5.73,-12.81 -1.2,-0.21 -2.26,5.52 -2.12,3.82 -1.03,3.71 -2.12,0.5 -4.67,-0.28 -2.58,0.82 -0.99,0.5 -0.99,0.57 -0.64,-0.28 -0.15,-1.38 -1.23,-0.08 -0.85,1.56 -1.33,-0.41 -4,0.1 -1.37,0 -0.68,0.68 -1.25,-0.57 -0.8,0 -1.14,0.46 -0.57,0.57 -2.28,0 -0.68,0.8 -1.25,0.34 -1.14,0 -1.37,0.68 -2.61,0 -0.06,0.21 -1.74,-0.24 -1.35,0.32 -0.63,0.79 -1.27,0 -1.28,0.67 -0.95,0.71 -1.27,0.16 -0.24,0.71 -1.51,-0.08 -2.14,0.56 -1.27,1.11 -2.01,1.21 -3.3,0.57 -2.28,0.46 -2.16,0.8 -1.48,0.91 -2.05,0.23 -1.48,0.46 -1.82,0.46 -2.62,0.57 -1.14,0.57 -1.71,1.25 -1.25,0.68 -3.19,0.34 -3.41,0.68 -2.56,-0.61 -1.31,1.98 -1.61,-0.75 -0.1,-0.01 -1.48,-0.31 -1.45,0.95 -1.75,-0.08 -2.22,0.56 -1.19,1.19 -1.51,-0.16 -1.19,0.08 -1.96,-0.37 -1.25,0.57 -1.37,0.46 -1.59,0.34 -1.29,1.21 -2.37,0.5 -1.19,0.16 -1.75,0 -1.19,0.4 -0.95,0.95 -1.03,-0.08 -1.93,-0.21 -0.29,0.69 -1.9,0.4 -1.87,0.21 -1.93,0.57 -1.2,1.45 -1.59,0.32 -1.34,0.58 -0.88,1.24 -2.06,0.08 -1.82,0.56 -1.43,0.24 -2.46,0.08 -1.73,0.26 -2.57,0.43 -3.07,1.37 -2.5,0.57 -2.96,0.91 -2.31,1.58 -1.59,1.79 -2.38,1.59 -3.41,1.45 -1.62,1.11 -1.62,0.77 -1.54,0.94 -2.2,0.84 -1.13,-0.77 -0.77,0.08 -1.71,0.85 -2.22,2.22 -1.02,1.28 -1.19,0.51 -0.85,0 -0.94,-0.09 -1.28,0.6 -0.39,1.02 -1.35,1.27 -1.19,1.27 -2.14,1.9 -1.76,-0.43 -1.2,0 -1.19,0.85 -1.2,1.2 -1.28,1.28 -0.7,1.3 -1.34,0.58 -0.5,1.32 -1.04,-0.38 -1.37,-1.37 -0.99,-1.66 -1.83,-1.33 -1.42,-2 -1.11,-1.51 -1.03,-1.59 -1.27,-1.98 -0.95,-1.11 -0.7,-2.39 -1.45,-3.33 -1.79,-3.16 -0.07,-5.04 0.31,-1.01 1.22,-0.18 0.85,0.77 3.5,0.17 1.28,-0.43 1.02,-0.34 1.45,-0.34 2.9,0 1.28,0.6 2.65,0.26 1.02,-1.11 -0.27,-1.34 -0.5,-0.71 -1.44,-0.82 -1.82,-0.16 -1.59,-1.59 -1.51,-1.59 -0.21,-4.11 -1.53,-1.35 -2.23,0.06 0.75,-1.43 0.54,-1.56 0.2,-1.09 -0.14,-1.55 -0.09,-0.75 0.5,-1.08 -0.71,-2.72 -0.71,-1.57 -1,-1.72 -0.43,-1.43 1,-3.43 2,-1.57 1.72,-1.43 1.29,-2.29 1.43,-0.86 2.43,-1 0.86,-3 -1.72,-2.57 -0.57,-4.86 -4.29,-3 -2.58,-3.86 -3.29,-1.43 -4.58,-1.43 -1.72,-0.86 -2.29,-3.86 -1.86,-4.58 -0.14,-4.43 -0.72,-2.86 -3.72,-0.86 -5.15,-0.86 -4.15,-0.14 0,-3.72 3.29,-1.43 5.15,-0.29 1.86,-1.86 -0.14,-3 -1,-3.86 -2,-4.29 -2.15,-2.29 0.14,-5.86 2.72,-4.43 2.58,-4.58 1.57,-6.15 1.72,-4.43 2.57,-4.15 3.29,-1.57 3.58,0.29 3.29,0.57 4.58,0.86 3.48,0.21 -0.82,1.41 -1.9,4.18 -1.33,4.18 0,5.7 1.9,3.61 3.42,2.47 2.28,2.85 0.19,3.8 1.14,2.28 2.47,3.23 3.42,0.76 3.04,1.14 3.23,1.14 6.65,0.38 1.9,2.09 0.95,4.18 -0.57,3.23 2.09,2.47 2.66,2.47 3.99,1.52 3.61,4.37 3.99,3.23 4.56,4.37 2.28,3.42 1.33,3.04 3.23,2.09 -0.19,3.04 -1.9,3.04 1.14,3.61 1.71,2.28 3.04,0.38 5.32,-0.76 5.7,-0.76 5.13,-0.57 5.51,0.19 1.52,-1.52 0.38,-1.9 0,-2.85 -1.71,-1.14 -1.9,-2.09 2.09,-3.04 1.9,-1.52 -1.33,-2.85 2.28,-2.47 2.09,-0.38 2.47,-0.76 2.85,-2.47 2.85,-1.71 4.56,0 2.85,-0.76 1.51,-1.89 -0.03,-1.2 -0.57,-0.46 -0.2,-1.53 -1.42,-1.6 -0.94,-0.76 -1.46,-0.09 -0.41,-2.06 -1.24,-0.19 -0.42,-1.62 0.04,-0.71 -2.51,-0.24 -1.56,-0.46 1.04,-2.97 3.42,0.38 3.61,0.76 3.99,0.95 5.32,-0.57 6.83,-0.57 3.23,-0.19 2.85,1.9 2.28,2.09 3.04,0 4.18,-1.14 3.42,-3.04 3.23,-2.47 3.42,-3.23 3.23,-2.28 2.85,-1.33 5.51,-1.14 3.42,-1.33 0.38,-4.37 -0.38,-4.18 -1.14,-3.99 -1.71,-1.9 -0.57,-2.85 1.52,-0.95 3.42,-2.66 2.66,-2.09 2.09,-2.47 3.61,-3.61 2.28,-3.8 1.33,-1.52 3.04,-1.52 0.76,-3.61 -1.14,-3.23 -2.28,-1.33 -3.04,-2.66 -2.28,-2.85 -0.95,-2.85 -0.46,-3 1.66,-1.43 1.02,-1.74 0.56,-0.54 0.55,-0.31 2.17,-2.39 1.78,-1.53 0.57,-1.94 1.68,-0.78 0.78,-1.23 1.23,-0.45 2.01,-0.56 2.79,-0.39 1.59,0.39 2.67,-0.78 2.22,1.03 1.37,0 1.91,-0.85 1.3,-0.32 1.5,-0.15 1.47,0.02 z m -58.64,-11.89 -0.53,0.15 -0.6,-0.08 -0.75,-0.45 -1.88,-1.96 -2.11,-1.88 -0.08,-1.05 -0.98,-1.28 0.68,-0.15 0.98,0.75 0.98,0.15 0.9,0.45 1.05,0.45 1.05,0.38 -0.08,0.83 0.15,0.6 0.45,0.38 0.45,0.68 -0.3,0.53 0,0.6 0.53,0.6 0.09,0.3 z m -9.4,-10.23 -0.38,0.38 -0.83,-0.3 -0.53,-0.83 -1.05,-1.05 -1.28,-1.05 0.68,-0.38 0.3,0.15 0.98,0.15 0.68,0.45 0.68,0.68 0.38,1.05 0.37,0.75 z m 128.23,-11.75 -1.58,0.23 -1.18,-0.4 -1.3,-0.79 -1.64,-1.35 -1.02,-0.79 -1.07,-1.35 -0.68,-1.47 -0.4,-1.35 -0.51,-1.41 0.62,-0.85 0.56,-0.68 0.68,-0.96 0.9,-1.19 0.39,-1.24 0.62,-1.3 0.51,-0.85 0.06,-0.85 -0.39,-0.45 0.23,-0.56 0.4,-0.45 0.51,0.34 0.17,1.13 0.23,1.07 0.56,0.51 0.51,0.62 0.34,0.85 1.52,0.34 1.52,0.23 1.47,0.56 1.3,0.51 0.62,1.41 0.96,1.13 1.41,1.75 0.68,1.64 0,1.3 -0.34,1.35 -0.34,1.18 -0.79,0.9 -1.35,0.11 -1.58,0.34 -1.52,0.4 -1.08,0.39 z m -115.15,-8.7 0.7,0.6 11.54,0 1.61,-0.7 1.4,-0.7 1.2,-0.4 7.52,0.1 1.2,-0.4 3.52,0 3.11,0.5 3.01,0.5 2.31,0.7 2.01,0.4 1.2,0.4 1.6,0.1 1,-1.2 1.91,0.3 2.01,0.4 1.91,0 1.5,-0.6 1,-0.4 1,0.1 0.4,1.5 0.3,0.6 1.3,-0.2 0.9,-0.8 0.6,-0.5 2.31,-0.3 0.4,1 0.8,0.5 0.8,1 -0.1,1 0.3,1.81 0.4,1 -0.1,1.4 0.3,1.4 -0.4,0.9 -0.6,1.6 0.2,2.01 1.1,0.9 0.6,0.6 0.6,0.3 -0.3,0.7 -1.1,-0.3 -1.71,-0.5 -2.31,0.3 -1.1,0.7 -1.4,-0.6 -1.91,0.6 -1.2,0.5 -0.8,0.4 -2.01,0 -1,-0.5 -1.61,-0.4 -0.6,0.6 -0.9,0.3 -1.6,-0.3 -1.71,-0.4 -1.5,0.4 -1.91,0.1 -0.9,0.5 -1.3,0.8 -1.1,0.3 -0.3,0.8 -1.1,0.3 -1.6,0.4 -0.6,1.4 -0.2,1.2 -0.8,0.4 -1,0.5 -0.7,0.9 -0.9,0.9 -1.5,0.3 -0.2,-1.1 -1.3,-0.1 -0.7,0.3 -0.3,0.7 -1.5,0.9 -1.91,0.2 -1.81,0.6 -1.71,0.4 -2.31,0.7 -2.21,0.8 -2.61,0.4 -2.21,0.2 -1.1,0.8 -1.71,-0.2 -0.8,-1.4 -0.7,-1.71 -1.4,-2.11 -1.4,-0.9 -0.7,-1.81 -1.1,-1.71 -1.3,-0.8 -1.71,-0.3 -2.71,0 -1.1,-1.2 -0.7,-1.4 -0.5,-1.3 -0.5,-2.11 -2.21,-2.01 -2.01,-0.7 -3.31,-0.3 -1.81,-1 -2.31,-0.7 -1.61,-0.8 -2.61,-2.21 -1.1,-1 -1.3,-0.7 -0.8,0 -1.5,0.4 -1.91,-0.5 -1.5,0 -1.81,-0.9 -0.2,-0.7 -1.2,-1.6 -0.8,-0.9 -1.3,0 -0.8,0.9 -1,0.1 -0.9,-0.6 -0.7,-0.5 -0.6,-0.7 -0.6,-0.9 -1.2,-0.5 -1.2,-1.3 -0.2,-1.2 -0.6,-1.4 -0.2,-1.3 -0.4,-0.8 0.1,-1.4 1.2,-0.3 2.31,-0.5 1.5,-0.9 0.9,-0.8 0.6,-1.5 3.31,-0.3 0.7,-0.7 0.4,-1.3 0.7,-0.7 1,0 2.21,0.6 1.6,1.2 2.01,0.6 2.71,1.4 3.41,1.3 3.41,1 3.61,0.7 1.91,1 1.2,0.9 2.01,0.7 0.4,0.8 0,1.6 1.91,1.71 2.31,1 1.5,0.4 3.81,0.5 1.46,1.24 z m 192.9,-16.84 3.51,1.3 2.01,1.71 1.81,1.2 1.71,1.2 2.11,1.6 2.01,2.31 1.6,0.8 1.91,0.7 1.4,1.2 1.3,1.3 1.5,0.8 1.1,0.4 1.1,1.4 0.1,2.01 1.3,1.6 1.4,1.6 0.5,1.33 1.71,2.41 0.6,1.81 0.1,3.91 -0.8,2.11 -0.9,1.5 -0.1,1.91 -1.1,1.71 -0.4,1.4 -0.4,2.71 -0.5,1.1 -0.6,1.5 -0.3,2.21 -0.2,2.81 -0.8,0.9 -0.4,2.51 -0.9,2.61 -0.7,2.01 -1.1,1.3 -0.6,0.9 -2.91,1 -2.01,0.9 -1.71,0.6 -1,-0.6 -2.31,-1 -2.11,-1 -1.5,-0.7 -1.6,0.4 -1.61,0.9 -2.71,0.8 -3.61,1.71 -2.91,1.6 -3.01,1.81 -2.81,1.3 -0.9,0.5 -3.11,0.8 -2.11,1.1 -0.4,1.6 -1.1,0.8 -0.8,0.6 -0.9,0.7 -1.61,1.81 -1.71,1.4 -1.2,0.2 -1.41,0.9 -1.4,0.5 -1.2,-0.9 -0.4,-1.3 -1,-0.8 -1,-0.3 -0.6,-1.61 -1.2,-0.5 -0.5,-0.8 -0.6,-1.4 -1.3,-1.61 -1.1,-0.9 -0.2,-2.21 -1.2,-0.4 0,-1.5 -1.6,-1.1 -1.91,-2.11 -2.01,-2.51 -1.2,-1.71 -1.2,-1.71 -1.1,-1.1 -1.71,0 -0.9,-1 0.2,-1 0.1,-1.86 -0.9,-1.91 -0.8,-1.3 -0.7,-1.1 -0.8,-1.3 -1.81,-1.81 -1.5,-1 -2.11,-0.6 -0.9,-2.11 -2.41,-0.6 -1.81,-0.6 -0.5,-1.2 -0.7,-1.71 -0.8,-0.6 -0.7,-0.6 1.6,-1.1 0.3,-0.9 0.5,-1.4 0.8,-2.01 1.1,-1.81 0.7,-1.3 0.8,-3.31 -0.7,-2.41 -0.8,-0.9 -1,-1.81 -0.8,-2.01 -0.5,-2.51 -0.4,-2.11 -0.3,-2.41 -0.6,-3.31 1.1,-1.2 1.1,-0.2 1.4,1 1.1,0.3 1.4,0.6 1.41,0.2 1.4,0 1.81,0 1.4,0.7 1.4,-0.2 1.5,-0.4 1.1,-0.3 1.4,-0.6 1.1,-1.3 1.91,-1.81 1.15,-0.68 0.8,-1 0,-1.56 0.9,-0.9 0.8,-0.7 0.5,-0.9 0.4,-1.2 0.9,-0.2 0.9,0.4 0.6,0.9 1,1.2 1.15,0.9 2.81,0.2 1,-0.7 1.3,0.3 1.3,1.3 1.1,0.2 1.81,0.3 1,1.3 1.2,0.2 1,-0.7 1,-1.81 0.8,-0.8 1.91,-1 0.4,-1.91 1.8,-0.8 2.21,0.3 1.2,0.2 1.1,0.9 1.81,0.6 2.41,0.5 1.91,0.7 2.71,0.6 1.91,1 3.53,1.73 z" 
                fill="rgb(151, 144, 238)" 
                stroke="white" 
                stroke-width=".7px"
                title="South East" 
                id="SG-04" 
            />
        </svg>