<svg xmlns="http://www.w3.org/2000/svg" viewBox="277.9816499999999 491.53874 50.06999999999999 74.44999999999999" width="50.06999999999999" height="74.44999999999999">
            <path 
                d="m 291.01165,491.65874 0.6,0.77 4.83,-0.89 2.71,0.27 2.05,1.34 0.33,1.46 0,0 0.07,4.36 -0.55,2.86 0.05,0.73 0.94,1.03 14.09,0.86 1.24,1.86 0.22,2.19 0.7,1.04 3.21,2.33 1.34,0.21 0,0 1.08,1.29 -0.59,3.72 0.15,3.78 1.37,4.63 0.73,1.68 1.71,2 0.76,2.55 -0.6,1.21 -3.42,-0.76 0,0 -2.69,-2.61 -2.54,-0.84 -2.76,-2.14 -0.58,-2.11 -1.19,-1.47 -3.4,-0.91 -2.42,0.14 -0.28,0.91 0.53,3.51 -1.84,5.1 0.32,0.45 2.23,-0.16 -0.7,2.44 -0.73,0.9 -6.08,-0.16 -1.1,0.98 -0.07,0.75 1.07,1.94 -1.21,5.81 -0.03,2.4 0.66,2.49 -1.17,2.89 -2.52,1.94 0.09,0.77 -0.47,0.64 0.22,1.47 0.59,0.67 0.02,1.17 -0.67,1.62 1.79,3.37 0.13,1.85 0,0 -2.36,-1.79 -2.94,-1.41 -1.8,0.43 -3.28,-1.22 -2.79,0.12 -1.11,0.64 -3.13,0.58 -1.8,-0.27 -1.45,-1.41 -0.59,-1.1 0.16,-1.1 1.37,-3.7 3.42,-4.33 2.39,-4.19 -0.05,-2.78 -0.66,-1.72 -0.54,-0.05 0,0 3.09,-10.25 2.1,-3.87 1.82,-1.68 1.18,-3.04 0.89,-0.9 0.43,-2.01 -0.36,-3.45 0.28,-2.05 -1.51,-2.44 1.23,-0.77 -0.38,-8.47 -0.47,-1.35 -1.04,-1.45 -5.34,-1.78 -2.01,-1.69 0,0 1.27,-2.22 1.36,-1.3 z" 
                fill="rgb(151, 144, 238)" 
                stroke="white" 
                stroke-width=".7px"
                title="Abia" 
                id="NG-AB" 
            />
        </svg>