<svg xmlns="http://www.w3.org/2000/svg" viewBox="540.8916500000004 185.7387400000002 141.86000000000058 217.75999999999996" width="141.86000000000058" height="217.75999999999996">
            <path 
                d="m 682.64165,187.16874 -0.13,1.83 -0.82,1.76 -1.02,1.57 -1.1,0.83 -1.77,2.9 -1.36,4.89 -2.66,2.45 -0.48,1.1 -0.61,3.01 0.72,3.61 0.77,1.06 0,1.7 -1.61,1.66 -0.26,4.61 -0.97,1.67 0.13,3.45 -0.78,1.94 -2.05,2.57 -0.26,3.02 -1.61,1.04 -1.44,2.61 -5.87,1.16 -4.18,5.88 0.15,0.98 1.54,1.62 0.04,0.64 -1.15,2.74 -1.85,1.39 -0.03,1.77 0.69,1.6 2.69,1.33 1.01,1.59 -2.16,3.09 -0.13,2.25 -0.54,1.29 0.27,1.11 -1.08,1.47 0.33,0.78 -0.22,1.41 0.43,0.63 -0.74,2.2 -1.02,1.64 -0.97,-0.13 -1.7,1.32 -8.01,0.82 -2.75,2.16 -1.62,0.29 -3.76,3.39 -3.76,1.98 0.09,1.34 2.37,0.27 0.49,0.42 0.09,7.48 -0.73,0.69 -0.83,4.41 0.84,2.07 -1.16,4.03 0.3,1.32 -2.81,4.8 -2.64,2.3 -0.01,1 0.71,0.99 -0.82,2.05 1.27,3.92 -1.13,1.85 -1.09,0.38 -1.67,-0.23 -1.46,0.54 -0.57,1.1 -0.16,2.73 -0.98,0.74 -0.99,1.85 -2.18,0.19 -3.4,2.76 -0.83,0.12 -5.88,-1.64 -0.66,0.66 -0.24,1.71 -1.18,1.16 -0.81,3.05 -1.77,2.34 -2.33,0.14 -1.12,0.89 -2.47,-0.28 -1.85,1.21 -1.91,0.33 -0.72,0.82 -0.68,4.04 1.44,5.22 0.58,5.77 -0.06,1.04 -0.77,0.56 -2.43,4.51 0.62,2.51 0.22,3.73 -4.13,6.35 -3.49,3.09 -1.76,3.01 -0.48,2 -1.12,1.47 -0.41,3.45 -1.11,1.56 0.69,6.14 0.65,1.8 -2.93,1.48 -1.96,0.27 -2.75,3.14 0,0 -1.22,-0.88 0.05,-1.56 -1.94,-4.62 -0.38,-3.54 -0.74,-1.73 0.58,-5.49 -1.04,-2.02 -2.15,-2.6 -4.32,-3.84 -2.5,-3.15 -1.52,-1.12 -1.42,-0.43 -1.64,0.38 -2.83,4.01 -2.72,1.99 -2.71,-2.45 -2.91,-4.7 -2.52,-6.73 0.82,-1.58 4.14,-4.78 3.8,-3.22 5.08,-5.48 8.63,-11.52 6.12,-5.22 0.44,-2.08 -0.38,-5.78 5.99,-11.44 1,-3.62 -0.26,-1.81 -2.02,-3.84 -4.14,-1.47 -2.66,-2.94 -0.34,-3.84 0.46,-2.17 -5.26,-9.82 -2.08,-1.29 -4.65,-1.08 -1.46,-1.92 -5.45,-10.18 0,0 6.2,-0.91 3.37,-1.43 9.4,-5.66 5.75,-4 1.1,-2.33 -0.52,-3.7 0.68,-10.23 0,0 6.34,0.97 2.7,-0.19 4.57,-1.32 1.74,-1.07 1.7,-1.9 3.73,-5.55 6.2,-7.06 2.51,-0.87 6.29,-0.49 5.9,-2.22 2.44,-2.62 0.82,-2.66 3.32,-0.14 2.35,-1.14 2.22,-3.7 2.1,-2.16 2.51,-1.47 8.52,0.79 2.87,1.03 2.58,1.55 2.84,3.11 2.43,1.15 2.38,1.02 4.39,-0.01 1.14,-1.22 1.48,-7.76 2.71,-5.68 1.22,-3.64 0.88,-4.1 0.28,-8.01 3.09,-0.43 0.62,0.74 3.75,1.14 3.86,-0.29 5.62,-1.74 0,0 z" 
                fill="rgb(151, 144, 238)" 
                stroke="white" 
                stroke-width=".7px"
                title="Adamawa" 
                id="NG-AD" 
            />
        </svg>