<svg xmlns="http://www.w3.org/2000/svg" viewBox="244.48164999999995 444.90874 46.52999999999997 66.92000000000013" width="46.52999999999997" height="66.92000000000013">
            <path 
                d="m 262.67165,444.90874 0.44,0.4 0.09,3.62 3.83,-0.13 2.44,1.41 2.05,0.08 3.73,1.7 0.36,0.79 -1.25,3.45 -0.75,1.08 -1.69,1.14 -1.85,2.48 0.24,0.96 -0.62,0.83 -0.43,2.35 0.39,0.54 3.85,1.16 1.42,1.8 1.34,3.64 1.31,1.85 -0.3,0.96 -0.82,0.29 0.41,1.37 -0.5,1.62 0.72,0.74 1.89,-1.13 0.61,0.13 0.59,2.58 1.33,0.63 -0.35,2.15 1.88,3.79 0.18,1.51 0.76,0.98 2.39,1.4 1.66,-0.96 1.08,0.09 1.12,0.74 -0.04,0.54 0.83,0.17 0,0 -4.4,2.31 -1.36,1.3 -1.27,2.22 0,0 -5.32,1.42 -5.38,-1.25 -6.31,1.16 -1.78,1.04 -0.93,3.55 -2.37,4.61 -2.68,0.27 -4.51,-1.92 -1.62,0.8 -3,3.83 -2.09,0.83 0,0 -2.4,-0.21 -1.11,-1.28 0,0 1.01,-1.17 1.92,-3.9 0.34,-2.64 1.77,-4.69 2.5,-4.55 0.38,-6.01 1.28,-3.65 -1.23,-3.77 -1.48,-7.29 0.08,-1.37 -1.13,-1.13 -2.13,-9.57 0,0 -0.07,-0.29 0,0 1.67,-0.77 3.59,0.66 1.43,-0.89 1.84,-2.51 0.06,-2.73 1.24,-4.12 2.24,-2.31 1.54,-0.86 z" 
                fill="rgb(151, 144, 238)" 
                stroke="white" 
                stroke-width=".7px"
                title="Anambra" 
                id="NG-AN" 
            />
        </svg>