<svg xmlns="http://www.w3.org/2000/svg" viewBox="373.41164999999995 87.518745 147.67000000000002 188.35999500000005" width="147.67000000000002" height="188.35999500000005">
            <path 
                d="m 491.94165,87.518745 7.74,6.19 1.14,2.93 0.77,7.079995 -0.19,1.81 3.16,4.66 0.21,6.74 0.33,2.7 0.95,2.71 0.2,3.87 8.35,20.91 -0.23,4.92 -1.05,2.72 -0.99,6.78 1.63,1.53 3.04,0.37 0,0 -0.8,0.24 -2.71,3.76 -6.04,3.28 -2.57,3.7 -2.01,1.75 -1.49,0.76 -3.91,0.88 -1.44,1.36 -1.38,2.03 -0.97,4.94 -2.61,7.43 -3.61,5.07 -0.2,1.38 7.38,2.99 1.14,1.71 0.87,7.15 0.88,1.15 7.2,2.62 2.08,4.94 -0.48,8.63 0.4,2.86 -0.83,1.76 -3.9,0.63 -1.99,0.92 -1.31,1.91 0.33,1.62 4.29,4.38 2.5,1.41 9.15,7.09 1.23,3.79 0.61,6.19 2.58,5.28 1.69,2.12 -0.13,0.95 -0.58,0.16 0,0 -3.99,-0.03 -6.44,-1.09 -10.59,4.85 -5.85,-0.78 -4.59,2.65 0,0 -6.36,-3.43 -6.18,-4.04 -11.07,-4.74 -9.26,-4.93 -2.57,-0.51 -7.6,-3.95 -3.03,1.78 -0.3,1.44 3.17,4.06 0.27,1.74 -0.5,1.67 -4.76,1.3 -2.89,5.21 -4.39,1.41 -10.04,0.59 -5.47,-1.48 -4.8,-0.27 -1.51,-0.53 -1.56,-1.34 -1.65,-4.07 -0.9,-1.16 -0.79,-0.71 -3.92,-1.42 -0.6,-0.85 0.09,-1.69 2.38,-4.47 0.23,-1.17 -0.26,-5.94 -0.97,-3.13 -1.8,-1.92 -1.06,-0.21 -10.97,2.19 0.04,-12.38 -0.78,-4.8 -2.61,-4.16 -2.78,-0.88 -3.18,-0.08 -1.53,0.49 0,0 -2.53,-2.71 -2.79,-1.75 -0.27,-0.73 2.35,-4.2 0.53,-3.96 0,0 0.99,-0.56 2.59,-4.09 1.33,-3.85 -0.08,-2 -0.77,-1.67 -3.86,-4.33 -0.45,-1.99 -0.4,-6.89 0.45,-3.5 1.6,-4.57 1.02,-0.43 2.7,0.16 2.04,-0.51 2.74,-3.21 2.65,-4.11 4.74,-4.17 0.67,-1.1 2.48,-1.57 1.69,-0.3 1.14,1.07 1.14,0.09 5.52,-2.17 0,0 1,-0.19 6,1.1 7.43,2.41 3.35,-1.46 2.3,0.73 1.78,3.67 3.13,0.21 7.7,-0.48 3.57,-0.91 1.14,0.3 2.67,4.9 0.54,2.15 -0.83,7.85 0.81,2.05 1.35,1.36 5.7,1.19 5.6,-1.39 1.56,0.17 1.86,1.36 2.46,0.62 1.86,-0.57 -1.11,-3.43 0.04,-1.8 1.53,-1.91 2.53,-1.36 4.04,-0.99 1.44,-0.78 1.85,-1.39 1.1,-2.72 -1.04,-1.46 -8.87,-0.56 -5.72,-1.27 -6.39,-0.77 -2.99,-1.85 -5.3,-7.42 -1.05,-2.5 -0.47,-2.57 -3.84,0.94 -1.18,-1.11 -0.55,-1.74 2.51,-5 -0.52,-4.32 -1.46,-4.42 -1.81,-0.5 -2.75,0.27 -2.12,1.03 -2.61,0.04 -1.35,-0.63 0.49,-4.26 3.22,-4.54 6.16,-0.46 5.47,-3.04 10.94,-3.73 6.23,-2.51 1.19,-0.94 -0.03,-2.25 -0.57,-1.88 6.71,-20.589995 4.54,-1.95 3.48,-0.55 0.99,0.82 0.83,1.64 0.12,1.39 z" 
                fill="rgb(151, 144, 238)" 
                stroke="white" 
                stroke-width=".7px"
                title="Bauchi" 
                id="NG-BA" 
            />
        </svg>