<svg xmlns="http://www.w3.org/2000/svg" viewBox="167.98165000000003 530.4387399999996 83.23999999999998 69.2199999999998" width="83.23999999999998" height="69.2199999999998">
            <path 
                d="m 251.22165,579.30874 -0.21,-0.62 -0.68,0.1 -3.96,-2.6 -1.2,-4.38 -1.38,-1.87 -1.99,-0.02 -6.54,2.54 -1.04,-0.26 -0.35,-1.94 0.42,-1.46 -3.31,-1.44 -0.5,-0.83 0.07,-4.34 1.9,-2.67 0.76,-2.05 0.03,-1.27 -1.29,0.16 -0.84,-0.78 1.33,-4.44 4.49,-7.84 2.77,0.17 0.55,-0.5 0.75,-2.49 1.54,-0.79 -0.23,-1.81 1.58,-1.07 0.95,-1.48 -0.03,-1.94 -0.63,-1.54 -0.76,-0.58 -1.92,-0.83 -2.94,0.49 -1.04,-0.28 0.77,2.47 -1.2,0.85 -5.08,2.19 -3.49,-0.44 -2.74,0.49 -2.01,4.1 -2.11,0.52 -0.79,-0.6 -1.47,-0.08 -0.36,0.95 0.26,2.31 -2.83,1.56 -1.62,0.56 -3.01,-0.24 -1.23,1.99 -2.31,0.62 -1.89,-0.67 -0.99,-1.66 -2.11,-1.28 -0.75,0.5 -1.48,3.07 -3.3,1.64 -2.62,-0.42 -7.48,4.1 -0.94,-0.37 -2.32,0.4 -1,-1.1 -2.69,-1.6 -3.05,-0.71 -2.9,-1.66 -2.1,-2.1 -0.56,0.72 -0.72,-0.57 -1.43,0.53 -0.36,-0.5 -1.63,0.84 2.36,4.61 1.91,5.81 -0.34,0.79 0.95,1.52 0.35,1.86 4.06,6.77 0.19,1.44 0.94,0.55 0.01,0.17 0.05,1.1 7.5,10.38 1.19,0.62 -0.02,0.75 2.77,1.35 -0.27,0.41 1.05,0.75 0.12,0.65 2.56,1.59 0.19,-0.39 0.31,0.34 -0.22,0.24 0.02,0.34 2.61,2.16 0.48,-0.02 -0.14,-0.77 -0.45,-0.21 1.58,-0.46 -0.76,0.7 0.33,0.72 -0.26,0.27 0.07,0.51 2.32,1.7 5.07,2.36 0.19,-2 -0.79,-0.51 -0.55,-1.25 0.34,0.12 0.29,0.89 0.79,0.22 -0.12,-0.7 0.41,0.03 -0.02,0.7 0.52,0.17 0.26,0.77 -0.62,1.18 0.26,0.43 -0.34,1.3 0.4,0.29 5.18,1.32 0.19,-2.23 0.65,-0.58 0.38,3.84 8.34,-0.7 -0.64,-2.4 1.03,-3.05 0.65,-1.1 -0.29,-1.37 -1.91,-1.15 0.48,-0.05 1.19,0.27 0.96,1.58 0.6,-1.13 -0.55,-0.79 0.09,-2.14 -0.84,-1.35 0.31,-0.74 0.17,1.03 0.69,0.55 0.03,0.38 0.74,2.02 -0.1,3.1 2.72,-2.47 -0.58,-0.63 0.1,-1.94 1.91,-0.6 0.5,-0.63 0.69,1.61 0.12,1.29 -0.48,1.03 0.6,1.32 0.05,1.61 1.34,0.26 1.08,1.51 0.48,-0.05 -0.19,0.33 0.22,0.43 2.17,-0.48 0.19,0.34 -0.62,0.65 1.53,0.79 8.46,-0.91 0.02,-0.48 -0.4,-0.51 -0.07,-0.77 -0.1,-0.34 0.67,-0.86 0.6,-0.58 -0.52,2.04 0.22,0.39 2.03,1.76 0.96,-0.98 3.53,-0.38 -0.5,-2.47 -0.09,-0.38 -0.38,-1.13 -1.15,-0.75 -0.19,-0.99 0.02,-0.19 0.29,-1.06 -0.53,-2.25 -0.41,-0.55 0.35,-0.36 0.76,0.9 1.25,4.2 0.38,-0.58 -0.65,-5.23 1.7,-3.39 0.26,-1.83 z m -78.3,-19.41 0,0 0.01,0.01 -0.01,-0.01 z m 59.51,37.48 -8.22,0.99 -2.8,-0.1 -0.22,-0.7 1.36,-2.52 0.15,-0.02 0.45,0.04 0.14,-1.3 1.98,-2.19 0.12,-0.31 0.43,-0.89 0.45,-0.19 -0.59,-0.77 -0.18,-1.3 0.55,-0.35 1.03,-0.19 0.9,1.34 -0.5,1.33 0.78,1.62 -0.22,1.57 1.63,0.44 0.65,0.92 2.11,2.58 z" 
                fill="rgb(151, 144, 238)" 
                stroke="white" 
                stroke-width=".7px"
                title="Bayelsa" 
                id="NG-BY" 
            />
        </svg>