<svg xmlns="http://www.w3.org/2000/svg" viewBox="298.9316500000003 360.18874000000005 150.50999999999965 105.3200000000001" width="150.50999999999965" height="105.3200000000001">
            <path 
                d="m 309.66165,367.75874 9.13,2.48 8.51,1.25 8.71,3.55 4.92,2.82 5.25,0.99 1.07,-0.14 3.32,2.8 5.33,2.23 1.14,-1.1 0.09,-1.36 -4.7,-11.64 -0.08,-2.52 1.02,-2.86 1.24,-1.41 3.95,-2.2 1.38,-0.28 2.59,-0.18 2.68,0.44 10.09,3.72 6.86,1.55 4.88,0.41 3.96,-0.22 0.01,-0.7 11.79,8.93 0,0 -3.79,5.97 1.9,0.57 6.12,-2.63 7.47,-0.95 8.18,0.48 7.48,1.77 5.14,4.9 4.44,5.65 8.37,7.57 -0.14,0.65 1.17,1.36 -0.26,1.04 0.56,1.78 -0.59,3.23 -2.38,5.89 0.29,5.92 -0.92,1.43 -3.09,1.94 -3.44,3.25 -3.31,6.16 -2.11,11.5 0.61,0.73 -0.33,1.08 -0.03,8.76 -1.9,8.19 0,0 -0.72,0.3 -2.12,-0.73 -0.78,1.42 0.1,2 -2.82,1.74 -1.79,0.22 -2.78,-0.44 0,0 -0.65,-1.55 -4.88,-6.63 -5.53,-5.73 -1.49,-0.72 -3.09,-0.22 -9.57,2.24 -4.38,-0.44 -1.21,-0.89 0.66,-4.77 -0.56,-1.64 -8.64,-5.38 -5.43,-1.69 -2.11,-0.07 -2.31,0.59 -2.11,0.67 -1.52,1.2 0.77,4.5 -3.14,1.92 -3.13,0.83 -3.84,-0.14 -2.06,-0.67 -1.92,0.45 -1.36,1.75 -2.36,1.96 -2.99,0.49 0,0 -1.7,-2.27 -0.84,-4.26 -1.76,-1.3 -1.02,2.31 -3.41,0.37 -1.77,2.88 -1.92,0.93 -2.95,-0.25 -3.45,0.4 -1.25,8.23 -0.99,2.05 -1.41,0.59 -1.78,-0.74 -4.01,-3.68 -0.65,-1.54 0.17,-0.91 0,0 2.28,-6.42 -0.9,-5.62 -1.42,-2.14 -1.52,-1.15 -2.81,-0.35 -2.21,2.11 -2.1,0.73 -2.92,-1.52 -3.58,-2.76 -2.89,-3.35 -2.74,-6.51 0.13,-0.53 0,0 0.41,-0.5 0.84,0.58 3.37,3.29 0.82,-0.1 1.35,1.05 1.76,0 0.34,-4.42 0.96,-1.44 6.44,-3.12 3.3,-3.11 1.94,-5.83 0.42,-3.93 0.47,-1.29 1.23,-1.21 0.36,-1.81 -1.48,-0.47 -3.31,0.32 -1.27,-1.05 -1.24,-5.53 -0.57,-6.81 -0.01,-6.9 -0.73,-1.85 -2.7,-2.61 -1.88,-3.22 -0.54,-5.87 z" 
                fill="rgb(151, 144, 238)" 
                stroke="white" 
                stroke-width=".7px"
                title="Benue" 
                id="NG-BE" 
            />
        </svg>