<svg xmlns="http://www.w3.org/2000/svg" viewBox="555.0716499999991 11.078745 188.8600000000008 231.5699949999999" width="188.8600000000008" height="231.5699949999999">
            <path 
                d="m 662.15165,11.078745 0.7,5.65 -0.83,3 3.49,6.26 -0.2,2.52 -0.46,0.49 0.28,-2.17 -1.04,1.33 -0.22,1.92 2.38,2.55 2.46,0.61 -0.65,0.67 0.28,0.54 0.78,0.19 4.46,7.53 2.83,3.08 1.05,0.22 1.72,0.96 1.63,1.2 3.87,0.75 0.26,0.86 -0.58,-0.01 -0.56,1.1 -0.2,-1.04 -0.66,0.58 -0.74,-0.04 1.44,1.6 0.27,1.76 3.88,-1.16 2.31,-2.61 2.47,-2.02 1.6,-0.67 -1.08,1.76 0.15,0.45 0.65,-0.19 0.57,2.34 -0.33,0.22 -0.67,-1.38 -0.85,0.48 -0.57,1.23 -2.02,0.57 0.67,1.88 -1.19,1.13 -1.86,3.73 0.41,0.77 1.37,-0.45 -0.07,2.44 -0.58,1.15 0.85,0.04 -0.34,1.36 -1.15,1.54 0.4,0.57 1.57,-0.43 0.29,0.55 -2.63,1.39 1.97,0.5 -0.15,0.89 1.2,0.05 -0.75,0.85 -1.32,0.33 0.12,0.42 1.24,-0.23 0.12,0.6 -0.48,0.44 -0.23,-0.37 -1.01,0.23 0.24,0.75 0.74,-0.12 -0.85,1.67 1.51,0.21 0.22,1.34 -0.57,0.74 0.26,1.25 0.97,0.22 0.53,1.21 -0.24,1.15 1.95,0.55 0.34,1.46 0.61,0.52 1.61,-0.95 0.46,0.2 0.71,1.91 1.22,0.71 0.31,1.08 2.16,0.77 -0.03,1.1 0.67,1 -0.37,1.19 0.71,0.64 1.11,0.55 1.41,-0.5 2,0.26 -0.27,1.04 0.83,0.06 0.39,-0.69 1.81,-0.07 1.47,-0.81 2.46,-0.08 0.17,1.22 1.07,0.09 -0.12,0.91 -1.25,0.32 0.22,0.53 -0.38,0.64 0.95,0.28 2.25,2.61 3.42,-0.53 1.03,-0.05 0.43,0.81 1.72,-0.87 2.93,0.87 3.5,-0.35 0.68,0.31 0.85,0.12 1.61,0.34 0.79,1.2 1.27,0.34 0.34,0.87 -0.67,0.02 0.08,1.119995 2.17,1.01 0.7,1.37 -0.72,1.39 2.99,0.77 0.76,1.5 -0.54,0.46 1.13,0.54 0.78,0.12 0.12,-0.49 0.97,-0.08 0.51,-0.51 1.33,2.51 -1.37,1.29 -0.32,1.8 -0.74,0.87 0.68,2 -1.72,1.16 -0.06,1.57 2.2,3.78 -1.21,1.74 0.23,1.35 -2.32,2.77 0.01,1.5 0.29,3.79 -0.7,1.23 -2.81,2.15 -0.06,0.55 1.26,1.72 2.01,1.13 2.16,2.18 0.44,2.16 -0.62,4.68 -1.26,0.93 -6.36,2.57 -3.88,0.9 -1.7,3.09 -8.09,3.17 -3.28,2.07 -1.93,2.65 -4.46,1.94 -2.32,0.04 -2.72,-2.37 -2.52,-0.44 -1.07,-0.83 -1.07,0.16 -0.61,0.76 -0.58,2.32 -2.08,2.36 -0.78,2.68 -0.72,1.05 -1.46,0.96 0.24,1.49 -0.65,0.21 -1.08,1.68 -2.32,2.04 -1.21,2.91 -3.24,1.61 -2.42,0.54 -0.77,0.75 -0.19,1.74 0,0 -5.62,1.74 -3.86,0.29 -3.75,-1.14 -0.62,-0.74 -3.09,0.43 -0.28,8.01 -0.88,4.1 -1.22,3.64 -2.71,5.68 -1.48,7.76 -1.14,1.22 -4.39,0.01 -2.38,-1.02 -2.43,-1.15 -2.84,-3.11 -2.58,-1.55 -2.87,-1.03 -8.52,-0.79 -2.51,1.47 -2.1,2.16 -2.22,3.7 -2.35,1.14 -3.32,0.14 -0.82,2.66 -2.44,2.62 -5.9,2.22 -6.29,0.49 -2.51,0.87 -6.2,7.06 -3.73,5.55 -1.7,1.9 -1.74,1.07 -4.57,1.32 -2.7,0.19 -6.34,-0.97 0,0 -3.91,-2.2 -1.81,-1.6 -3.13,-6.17 -5.66,-2.34 -1.83,-1.82 -2.43,-3.51 -0.81,-2.83 5.18,-7.56 0.62,-3.02 -1.35,-3.3 0,0 3.04,-0.69 3.41,-4.53 -0.28,-8.39 0.61,-2.77 1.72,-2.83 2.66,-1.92 11.21,-3.02 6.11,-3.65 2.09,-3.08 0.24,-2.94 -0.76,-4.15 -0.04,-2.97 0.9,-2.86 2.89,-3.35 3.3,-5.9 4.54,-4.43 0.99,-2.11 -0.84,-3.33 -3.13,-3.75 -4.91,0.21 -0.64,-0.36 -0.15,-1.94 4.72,-9.14 -1.69,-7.44 0.13,-3.5 2.54,-16.29 0.05,-5.789995 -1.72,-3.83 0.55,-2.2 7.06,-6.31 2.37,-3.08 1.84,-4.21 -0.48,-3.74 -4.8,-3.84 -1.45,-1.82 -1.23,-3.85 1.49,-8.02 0.08,-4.21 0,0 1.45,-0.12 4.38,0.88 0.03,-1.19 0.59,-0.41 0.07,-0.74 0.19,-1.71 1.48,-1.33 1.14,0.24 1.35,-0.73 -0.34,-1.16 0.73,-1.08 -0.23,-0.32 -0.89,-0.19 0.4,-1.13 0.77,-1.33 0.8,-1.78 0.64,-0.6 2.28,0.35 1.38,-0.87 0.96,0.09 0.61,0.74 0.96,-1.11 0.23,-1.44 1.34,-0.23 1.47,-0.29 0.29,-0.46 -0.34,-0.4 0.98,-1.17 2.11,-0.48 0.62,-1.24 1.37,-0.78 0.16,-0.79 0.58,-0.74 0.4,-0.74 -0.02,-0.86 1.1,-0.43 0.43,-1.02 -0.81,-0.31 0.57,-0.61 1.23,0.63 -0.29,-1.57 1.1,0.12 0.06,0.47 0.85,0.29 1.1,-0.14 1.87,-1.67 1.02,-0.37 0.32,0.38 1.98,-0.1 1.39,-1.33 1.02,0.49 0.05,-1.08 1.08,-0.36 1.02,0.09 -0.89,1.17 1.47,0.79 0.92,-1.31 1.35,1.04 -0.2,-1.31 1.48,-0.51 -0.31,2.08 0.92,0.12 0.45,-0.97 1.15,-0.25 0.92,1.39 0.96,-2.53 1.66,-0.84 0.02,-0.44 -0.55,-0.19 0.19,-0.71 1.19,0.2 0.64,-0.8 -0.64,-0.17 -0.4,-1.02 1.68,-1.6 -0.06,-0.58 1.49,-0.67 -0.05,-0.93 1.05,-1.06 1.24,-0.24 0.39,-1.06 z" 
                fill="rgb(151, 144, 238)" 
                stroke="white" 
                stroke-width=".7px"
                title="Borno" 
                id="NG-BO" 
            />
        </svg>