<svg xmlns="http://www.w3.org/2000/svg" viewBox="322.0316499999999 437.57874000000004 99.30000000000001 136.33000000000004" width="99.30000000000001" height="136.33000000000004">
            <path 
                d="m 348.48165,451.12874 2.99,-0.49 2.36,-1.96 1.36,-1.75 1.92,-0.45 2.06,0.67 3.84,0.14 3.13,-0.83 3.14,-1.92 -0.77,-4.5 1.52,-1.2 2.11,-0.67 2.31,-0.59 2.11,0.07 5.43,1.69 8.64,5.38 0.56,1.64 -0.66,4.77 1.21,0.89 4.38,0.44 9.57,-2.24 3.09,0.22 1.49,0.72 5.53,5.73 4.88,6.63 0.65,1.55 0,0 -2.17,8.34 -5.15,-2.21 -0.78,1.84 -0.02,1.98 -0.58,0.73 -1.08,0.94 -2.8,4.86 -3.23,0.94 -1.63,1.19 -1.2,1.18 -0.95,2.5 -0.99,0.97 -8.72,7.77 -3.81,2.73 -1.12,0.33 -1.64,2.3 -1.69,0.87 -1.3,1.48 0.4,0.86 1.36,1.04 -1.05,1.48 0.4,0.83 -0.45,0.96 -1.47,1.87 -0.57,-0.58 0.05,1.5 5.1,5.64 0.31,1.76 -2.4,4.05 -0.64,2.4 -1.12,1.36 0.21,3.89 -1.81,5.88 0.15,6.56 -2.54,4.2 -1.89,0.77 -0.08,0.84 -1.34,1.04 -1.22,3.3 -1.25,1.04 0.97,1.02 -0.9,0.35 -0.98,1.24 0.05,0.57 -1.01,0.38 0.09,1.76 -1.97,0.75 -1.02,1.25 -0.02,0.96 1.2,1.14 0.34,1.53 -2.42,1.46 -1.09,-0.24 -0.68,-0.72 -1.03,0.82 -0.64,1.52 -0.75,0.53 -0.16,1.47 0.67,0.07 0.6,-1.75 0.26,2.51 -0.36,0.56 -0.43,-0.67 -0.6,0.14 0.58,1.44 -1.48,0.27 0.06,0.76 -1.78,0.29 -1.47,-0.6 0.51,-1.77 1.07,-0.12 -1.27,-1.61 -0.8,1.22 -1.16,0.48 -2.07,-0.46 -0.65,-1.15 0.77,-0.7 0.21,-0.16 -0.31,-0.91 -1.36,0.41 -1.13,-0.63 -2.38,2.18 0,0 -0.59,-1.01 -3.67,-2.81 -3.78,-4.34 -3.18,-2.8 -3.41,-4.91 -1.63,-5.13 0.61,-6.1 -0.39,-2.1 -4.96,-2.68 -4.77,0.56 -0.79,-1.94 -0.83,-0.31 -0.66,-1.79 1.15,-2.45 0.85,-0.1 0,0 3.42,0.76 0.6,-1.21 -0.76,-2.55 -1.71,-2 -0.73,-1.68 -1.37,-4.63 -0.15,-3.78 0.59,-3.72 -1.08,-1.29 0,0 0.38,-2.39 2.34,-3.11 -0.36,-2.66 1.46,-1.26 0.34,-1.35 1.98,-2.29 0.08,-2.42 -1.14,-1.8 0.19,-0.98 2.27,-1.08 2.62,-0.18 2.69,4.5 1.34,-2.08 2.16,-0.77 2.2,-1.71 0.28,-1.31 1.88,-0.29 2.18,1.26 0.84,-0.91 0.68,-2.3 0.1,-2.59 0.8,-1.47 6.92,-8.39 0.02,-1.4 -1.86,-2.6 -0.01,-1.6 1.65,-1.63 2.19,-0.37 0.83,-1.7 -0.24,-1.05 -1.38,-1 -0.41,-1.5 -0.52,-0.37 0.1,-1.94 -1.28,-1.12 -0.5,-1.71 -2.7,-1.87 -1.99,-2.62 z" 
                fill="rgb(151, 144, 238)" 
                stroke="white" 
                stroke-width=".7px"
                title="Cross River" 
                id="NG-CR" 
            />
        </svg>