<svg xmlns="http://www.w3.org/2000/svg" viewBox="144.90165000000007 460.59873999999996 108.73000000000008 92.5700000000001" width="108.73000000000008" height="92.5700000000001">
            <path 
                d="m 252.45165,479.95874 -1.48,-7.29 0.08,-1.37 -1.13,-1.13 -2.13,-9.57 -1.88,2.04 -4.1,-0.38 -3.73,0.81 -8.19,5.12 -7.35,3.1 -4.03,4.53 -0.64,0.05 -2.58,-3.94 -1.01,-0.42 -1.67,-0.31 -1.78,1.58 -0.89,2.03 -0.15,2.37 0.4,0.75 1.46,0.81 0.54,4.82 2.03,3.59 1.96,2.42 1.88,1.46 2.23,0.81 0.29,1.75 -0.7,3.24 -1.55,1.91 -1.63,1.66 -3.08,2.03 -2.29,3.07 -2.78,1.99 -1.81,0.6 -5.23,1.04 -2.13,-0.56 0.7,-1.8 -1.6,-1.61 2.04,-4.03 -0.47,-0.83 -3.91,-2.35 -2,-2.83 -4.67,-2.62 -3.17,-1.25 -1.64,-1.34 -5.12,1.85 -1.85,2.38 -1.77,-0.4 -2.27,-1.98 -1.38,-0.29 -3.17,0.67 -2.98,-0.72 -0.99,0.31 -0.63,0.3 -0.06,1.03 0.89,1.57 -0.52,1.06 -4.1,3.22 -1.66,0.07 -0.05,-2.47 -0.66,-2.55 0.7,-2.93 -0.15,-1.43 -1.66,-1.67 -5.43,-2.8 -6.9,16.74 2.48,4.48 1.39,0.88 0.58,-1.6 1.31,-1.25 7.76,-4.22 1.26,-0.22 1.85,-1.28 1.13,-0.54 0.36,0.51 -0.02,0.17 -2,0.95 -1.01,1.6 -0.07,0.26 -0.83,-0.53 -2.25,0.98 -3.18,2.51 -0.34,0.75 -1.98,-0.45 -1.05,0.82 -0.79,3.14 0.26,1.54 2.63,4.5 3.18,3.14 1.12,-0.53 3.01,-1.34 2.97,0.41 0.74,-3.16 1.15,-2.15 -0.02,-0.38 0.4,-0.3 0,0.01 0.38,0.12 -0.23,0.14 -0.24,1.9 -1.12,2.27 1,2.13 1.91,0.63 1.63,-0.27 1.58,-3.18 1.6,0.1 0.19,-0.25 0,0.01 2.99,1.54 1.12,0.67 0.19,0.48 -1.19,-0.34 0.27,0.77 0.1,1.32 -1.33,-0.35 0.97,-0.67 -0.33,-1.34 -1.12,-0.72 -3.13,-0.29 -0.6,0.14 0.09,1.63 -0.55,1.13 -2.34,1.97 1,-1.58 -1.79,0.15 -2.1,-0.55 -4.44,-0.67 -1.96,0.19 -0.12,0.84 -1.62,1.08 -1.26,1.67 2.77,3.96 3.04,2.61 6.04,2.63 5.09,0.29 0.02,-0.65 -1.19,-1.39 -0.95,-2.9 -0.26,-0.45 0.07,-0.74 0.47,-0.12 -0.19,0.82 1,2.2 0.83,-0.6 0.36,0 -0.07,0.22 -0.95,1.08 0.26,0.5 2.65,1.12 0.57,-0.21 1.65,-4.8 0.84,-1.46 0.96,-0.62 -0.64,-0.33 3.2,0.12 0.48,0.15 1.05,-0.46 0.46,-1.13 0.74,-0.38 1.12,0.17 0.95,0.91 0.61,-0.66 0.09,0.23 -0.12,0.75 -0.89,0.04 -1.38,-0.94 -1.01,1.68 -1.58,0.79 -1.81,-0.12 0.22,0.86 -0.96,-0.98 -1.32,0.36 -0.55,3.02 0.27,1.32 0.58,1.08 0.45,0.72 3.36,1.09 -0.3,0.8 -1.55,-1.12 -0.65,0.36 -0.03,0.7 -0.07,0.22 -0.49,0.13 0.32,-1.47 -0.31,-0.12 -0.43,-0.34 -0.45,-0.46 -0.45,0.48 -0.74,0.5 -0.36,0.53 -0.79,0.12 -1.12,0.57 0.91,0.46 2.05,-0.1 -2.97,0.96 -0.4,0.63 -1,-1.61 -0.6,0.05 -0.28,-0.02 -2.53,0.15 -1.17,0.63 -0.07,-0.39 -0.69,-0.07 -0.41,-0.31 -0.67,0.22 -0.83,-0.43 0.05,2.44 1.91,7.63 -0.24,1.66 2.08,2.26 2.05,-0.88 2.65,-0.17 -0.89,-1.35 -0.09,-1.12 0.15,-0.24 0.5,-2.38 0.29,-0.03 -0.15,0.6 0.15,0.41 -0.52,2.69 0.88,0.55 -0.1,1.53 -0.8,0.31 2.1,2.1 2.9,1.66 3.05,0.71 2.69,1.6 1,1.1 2.32,-0.4 0.94,0.37 7.48,-4.1 2.62,0.42 3.3,-1.64 1.48,-3.07 0.75,-0.5 2.11,1.28 0.99,1.66 1.89,0.67 2.31,-0.62 1.23,-1.99 3.01,0.24 1.62,-0.56 2.83,-1.56 -0.26,-2.31 0.36,-0.95 1.47,0.08 0.79,0.6 2.11,-0.52 2.01,-4.1 2.74,-0.49 3.49,0.44 5.08,-2.19 1.2,-0.85 -0.77,-2.47 -0.57,-1.04 0.21,-0.44 3.52,-1.81 0.19,-5.3 0.7,-1.48 2.05,-1.42 0.89,-1.75 0.82,-3.18 -1.09,-3.54 0.23,-0.35 1.01,-1.17 1.92,-3.9 0.34,-2.63 1.76,-4.69 2.5,-4.55 0.38,-6.01 1.27,-3.65 -1.18,-3.74 z" 
                fill="rgb(151, 144, 238)" 
                stroke="white" 
                stroke-width=".7px"
                title="Delta" 
                id="NG-DE" 
            />
        </svg>