<svg xmlns="http://www.w3.org/2000/svg" viewBox="301.05165000000005 443.29874000000007 56.839999999999804 68.78000000000009" width="56.839999999999804" height="68.78000000000009">
            <path 
                d="m 319.74165,453.93874 -0.17,0.91 0.65,1.54 4.01,3.68 1.78,0.74 1.41,-0.59 0.99,-2.05 1.25,-8.23 3.45,-0.4 2.95,0.25 1.92,-0.93 1.77,-2.88 3.41,-0.37 1.02,-2.31 1.76,1.3 0.84,4.26 1.7,2.27 0,0 0.49,2.89 1.99,2.62 2.7,1.87 0.5,1.71 1.28,1.12 -0.1,1.94 0.52,0.37 0.41,1.5 1.38,1 0.24,1.05 -0.83,1.7 -2.19,0.37 -1.65,1.63 0.01,1.6 1.86,2.6 -0.02,1.4 -6.92,8.39 -0.8,1.47 -0.1,2.59 -0.68,2.3 -0.84,0.91 -2.18,-1.26 -1.88,0.29 -0.28,1.31 -2.2,1.71 -2.16,0.77 -1.34,2.08 -2.69,-4.5 -2.62,0.18 -2.27,1.08 -0.19,0.98 1.14,1.8 -0.08,2.42 -1.98,2.29 -0.34,1.35 -1.46,1.26 0.36,2.66 -2.34,3.11 -0.38,2.39 0,0 -1.34,-0.21 -3.21,-2.33 -0.7,-1.04 -0.22,-2.19 -1.24,-1.86 -14.09,-0.86 -0.94,-1.03 -0.05,-0.73 0.55,-2.86 -0.07,-4.36 0,0 3.63,-1.01 1.99,1.7 0.77,0.09 2.11,2.51 0.73,0.07 0.65,-1.44 -0.8,-2.92 -0.15,-2.64 2.67,-2.73 0.8,-1.73 -0.99,-6.64 -0.62,-2.55 -1.08,-1.07 0.02,-1.23 2.74,-6.11 0.01,-5.82 -0.65,-1.15 -0.38,-3.29 -1.48,-4.9 6.45,0.55 z" 
                fill="rgb(151, 144, 238)" 
                stroke="white" 
                stroke-width=".7px"
                title="Ebonyi" 
                id="NG-EB" 
            />
        </svg>