<svg xmlns="http://www.w3.org/2000/svg" viewBox="143.33164999999997 395.48874 106.65000000000009 113.59000000000009" width="106.65000000000009" height="113.59000000000009">
            <path 
                d="m 208.35165,395.48874 0.77,0.64 1.75,-0.37 0.7,0.36 0.28,0.68 -0.38,0.89 0.46,0.65 2.18,-0.25 0.27,0.8 -0.96,1.85 -0.23,1.93 0.28,1.05 1.08,0.78 2.13,0.53 5.94,-2.93 1.56,2.1 0.65,-0.07 1.26,1.41 0.55,-0.06 1.96,2.23 2.26,-0.19 0.74,-0.51 2.56,0.15 1.06,2.01 0.07,1.22 0.85,0.61 0.48,1.74 0.74,0.56 -0.24,0.51 0.66,1.63 3.75,-0.84 0.43,0.38 1.46,-0.99 1.87,-0.41 1.75,1.41 0.55,2.12 1.45,1.08 0.79,2.01 0.15,3.41 -0.31,1.92 -1.62,3.94 0.06,4.16 -1.91,4.82 -2.16,3.55 1.28,2.15 -0.93,5.52 0.89,2.6 1.41,2.01 1.03,6.03 0,0 0.07,0.29 0,0 -1.88,2.03 -4.09,-0.38 -3.73,0.81 -8.19,5.11 -7.35,3.1 -4.03,4.53 -0.65,0.04 -2.58,-3.94 -1.01,-0.41 -1.66,-0.32 -1.79,1.59 -0.89,2.02 -0.15,2.37 0.4,0.75 1.46,0.81 0.54,4.82 2.03,3.58 1.96,2.42 1.88,1.46 2.23,0.81 0.28,1.74 -0.69,3.24 -1.55,1.91 -1.62,1.66 -3.08,2.03 -2.3,3.07 -2.77,1.99 -1.81,0.6 -5.24,1.04 -2.13,-0.57 0.7,-1.8 -1.6,-1.61 2.03,-4.03 -0.47,-0.83 -3.9,-2.35 -2,-2.83 -4.68,-2.62 -3.16,-1.25 -1.64,-1.34 -5.12,1.85 -1.85,2.38 -1.77,-0.4 -2.27,-1.98 -1.38,-0.29 -3.17,0.67 -2.97,-0.72 -0.99,0.31 -0.64,0.3 -0.06,1.03 0.89,1.57 -0.52,1.06 -4.09,3.23 -1.66,0.07 -0.05,-2.47 -0.66,-2.55 0.71,-2.93 -0.15,-1.43 -1.66,-1.67 -5.43,-2.79 0,0 0.39,-1.16 -1.23,-2.26 -1.33,-1.04 -1.56,-0.09 -1.65,-2.94 -1.94,-1.36 -0.7,-0.06 -0.44,-0.91 0.25,-0.59 -0.28,0.44 0.8,-0.7 0.96,-3.63 0.58,-0.61 2.95,-0.87 0.84,-3.74 1.74,-1.71 0.84,-1.96 0.35,-1.72 -0.57,-1.45 -1.4,-2.28 -1.23,-0.64 0,-2.84 0.81,-0.98 -0.1,-2.22 0.49,-0.96 1.75,-1.62 0.45,-1.03 1.73,-0.8 0.79,-2.27 0.96,-0.69 0.09,-1.95 0.45,-0.78 2.2,-1.01 2.13,0.4 2.28,-0.38 1.68,0.36 6.64,0.11 3.29,-0.38 1.64,0.34 1.74,2.08 -2.01,2.26 2.1,5.46 0.74,-0.03 3.77,-3.16 1.34,0.12 1.19,1.48 0.81,0.35 2.68,-1.02 1.51,-3.39 0.95,-4.96 0.25,-0.25 1.19,0.51 0.01,-1.63 0.88,-0.52 -0.15,-0.81 -1.18,-1.28 0.61,-4.64 1.24,-1.66 1.52,-0.73 0.37,-0.85 -0.32,-0.84 3.23,-6.89 -0.15,-1.39 0.47,-1.04 1.76,-1.83 2.15,-1.05 1.43,-3.54 -0.43,-0.28 -0.77,-2.48 0.87,-2.89 -2.01,-0.82 -0.4,-0.84 0.18,-1.39 1.41,-1.72 1.56,0.14 0.89,-0.6 z" 
                fill="rgb(151, 144, 238)" 
                stroke="white" 
                stroke-width=".7px"
                title="Edo" 
                id="NG-ED" 
            />
        </svg>