<svg xmlns="http://www.w3.org/2000/svg" viewBox="138.9516499999999 364.68874000000005 55.970000000000056 49.36999999999989" width="55.970000000000056" height="49.36999999999989">
            <path 
                d="m 148.66165,367.10874 0.41,-0.17 0.61,1.67 1.03,0.49 4.48,-1.25 0.95,0.37 1.47,2.06 0.95,0.49 2.33,-0.23 2.3,0.62 1.95,-0.58 1.29,0.55 1.04,-2.16 -0.29,-0.63 0.82,-2.22 4.11,-1.34 5.76,-0.09 0,0 -1.09,0.42 -0.03,4.28 0.55,0.45 2.48,-1.42 3.67,-0.64 2.31,0.27 0.56,0.7 -0.28,1.37 -1.34,0.64 -2.29,3.01 -0.08,1.56 1.32,3.75 1.32,0.96 1.28,0.03 1.85,1.69 6.82,2.39 0,0 -1.52,2.4 -0.82,0.3 -1.5,-1.25 -1.86,0.39 -0.85,2.06 -2.18,1.45 -2.4,2.48 -1.13,2.14 -1.71,8.1 -1.7,3.92 -3.05,4.43 -5.53,3.49 -2.27,-0.59 -1.09,-2.68 0.16,-0.86 -1.04,-3.19 -1.42,-2.22 -1.55,-0.52 -6.97,0.31 -7.78,-0.44 -4.55,1.45 0,0 -0.83,-1.7 -0.84,-3.79 -2.85,-6.11 -0.69,-4.78 1.19,-3.99 -0.81,-2.81 0.12,-1.4 1.9,-4.25 1.62,-1.5 2.18,-0.94 1.99,-1.64 z" 
                fill="rgb(151, 144, 238)" 
                stroke="white" 
                stroke-width=".7px"
                title="Ekiti" 
                id="NG-EK" 
            />
        </svg>