<svg xmlns="http://www.w3.org/2000/svg" viewBox="262.67165 424.05873999999994 59.35000000000008 73.90999999999997" width="59.35000000000008" height="73.90999999999997">
            <path 
                d="m 262.67165,444.90874 2.73,-5.01 0.91,0.25 0.18,2.28 0.74,0.05 1.33,2.01 0.69,0.34 1.24,-0.33 4.97,-5.39 5.98,-3.86 6.18,-7.42 2.44,-0.91 2.14,-2.1 3.31,-0.76 2.44,0.75 1.11,1.62 0,0 -0.13,0.53 2.74,6.51 2.89,3.35 3.58,2.76 2.92,1.52 2.1,-0.73 2.21,-2.11 2.81,0.35 1.52,1.15 1.42,2.14 0.9,5.62 -2.28,6.42 0,0 -1.79,0.36 -6.45,-0.55 1.48,4.9 0.38,3.29 0.65,1.15 -0.01,5.82 -2.74,6.11 -0.02,1.23 1.08,1.07 0.62,2.55 0.99,6.64 -0.8,1.73 -2.67,2.73 0.15,2.64 0.8,2.92 -0.65,1.44 -0.73,-0.07 -2.11,-2.51 -0.77,-0.09 -1.99,-1.7 -3.63,1.01 0,0 -0.33,-1.46 -2.05,-1.34 -2.71,-0.27 -4.83,0.89 -0.6,-0.77 0,0 -0.83,-0.17 0.04,-0.54 -1.12,-0.74 -1.08,-0.09 -1.66,0.96 -2.39,-1.4 -0.76,-0.98 -0.18,-1.51 -1.88,-3.79 0.35,-2.15 -1.33,-0.63 -0.59,-2.58 -0.61,-0.13 -1.89,1.13 -0.72,-0.74 0.5,-1.62 -0.41,-1.37 0.82,-0.29 0.3,-0.96 -1.31,-1.85 -1.34,-3.64 -1.42,-1.8 -3.85,-1.16 -0.39,-0.54 0.43,-2.35 0.62,-0.83 -0.24,-0.96 1.85,-2.48 1.69,-1.14 0.75,-1.08 1.25,-3.45 -0.36,-0.79 -3.73,-1.7 -2.05,-0.08 -2.44,-1.41 -3.83,0.13 -0.09,-3.62 z" 
                fill="rgb(151, 144, 238)" 
                stroke="white" 
                stroke-width=".7px"
                title="Enugu" 
                id="NG-EN" 
            />
        </svg>