<svg xmlns="http://www.w3.org/2000/svg" viewBox="252.79165000000012 284.40873999999997 54.449999999999875 59.53999999999991" width="54.449999999999875" height="59.53999999999991">
            <path 
                d="m 287.74165,288.29874 6.12,-0.63 3.2,0.32 1.52,0.85 1.13,-0.85 1.81,-3.04 1.06,-0.54 1.07,0.43 1.47,3.11 0.94,0.31 1.18,-0.79 0,0 -0.07,2.44 -0.42,0.62 -1.03,0.07 -0.53,0.61 -2.11,6.52 -0.08,5.62 0.51,2.19 -0.55,7 -1.98,5.27 -1.52,7.95 -0.79,0.36 -1.08,3.4 -1.04,1.64 -3.78,4.62 -6.96,3.64 -4.63,1.06 -2.91,1.2 -11.13,1.75 0,0 -1.4,0.46 -7.46,-0.15 0,0 -1.83,0.21 -1.42,-0.47 -1.95,-4.91 0.46,-1.37 -0.75,-30.21 0.36,-13.66 0.34,-0.38 2.68,-0.33 11.03,-0.47 1.76,0.63 9.19,8.1 0.94,-0.24 z" 
                fill="rgb(151, 144, 238)" 
                stroke="white" 
                stroke-width=".7px"
                title="Federal Capital Territory" 
                id="NG-FC" 
            />
        </svg>