<svg xmlns="http://www.w3.org/2000/svg" viewBox="487.26164999999946 161.04874 87.3900000000001 109.94000000000005" width="87.3900000000001" height="109.94000000000005">
            <path 
                d="m 517.00165,163.43874 0.91,-0.88 4.17,-1.51 4.04,0.17 2.98,1.01 2.18,1.29 8.49,6.26 4.75,6.4 3.42,3.58 -1,1.54 1.58,-1.02 3.68,3.38 0.67,4.87 -1.2,11.85 0.77,6.45 0.3,0.51 6.78,-0.01 0,0 1.35,3.3 -0.62,3.02 -5.18,7.56 0.81,2.83 2.43,3.51 1.83,1.82 5.66,2.34 3.13,6.17 1.81,1.6 3.91,2.2 0,0 -0.68,10.23 0.52,3.7 -1.1,2.33 -5.75,4 -9.4,5.66 -3.37,1.43 -6.2,0.91 0,0 -6.37,0.47 -12.46,-0.02 -5.9,0.6 -3.57,-0.71 0,0 0.58,-0.16 0.13,-0.95 -1.69,-2.12 -2.58,-5.28 -0.61,-6.19 -1.23,-3.79 -9.15,-7.09 -2.5,-1.41 -4.29,-4.38 -0.33,-1.62 1.31,-1.91 1.99,-0.92 3.9,-0.63 0.83,-1.76 -0.4,-2.86 0.48,-8.63 -2.08,-4.94 -7.2,-2.62 -0.88,-1.15 -0.87,-7.15 -1.14,-1.71 -7.38,-2.99 0.2,-1.38 3.61,-5.07 2.61,-7.43 0.97,-4.94 1.38,-2.03 1.44,-1.36 3.91,-0.88 1.49,-0.76 2.01,-1.75 2.57,-3.7 6.04,-3.28 2.71,-3.76 z" 
                fill="rgb(151, 144, 238)" 
                stroke="white" 
                stroke-width=".7px"
                title="Gombe" 
                id="NG-GO" 
            />
        </svg>