<svg xmlns="http://www.w3.org/2000/svg" viewBox="245.2416500000001 497.48874 48.33999999999992 46.14999999999998" width="48.33999999999992" height="46.14999999999998">
            <path 
                d="m 283.98165,497.48874 2.01,1.69 5.34,1.78 1.04,1.45 0.47,1.35 0.38,8.47 -1.23,0.77 1.51,2.44 -0.28,2.05 0.36,3.45 -0.43,2.01 -0.89,0.9 -1.18,3.04 -1.82,1.68 -2.1,3.87 -3.09,10.25 0,0 -2.57,0.95 -4.52,-1.13 -2.13,0.04 -4.15,1.06 -4.69,-1.11 -6.72,0.14 -2.14,-0.41 -2.16,-1.65 -1.72,-3.4 -1.84,-1.3 -0.26,-1.37 1.09,-2.76 0.52,-4.63 -0.45,-1.66 -2.12,-0.77 -3.46,0.67 -1.51,-0.44 2.75,-13.09 0,0 2.09,-0.83 3,-3.83 1.62,-0.8 4.51,1.92 2.68,-0.27 2.37,-4.61 0.93,-3.55 1.78,-1.04 6.31,-1.16 5.38,1.25 z" 
                fill="rgb(151, 144, 238)" 
                stroke="white" 
                stroke-width=".7px"
                title="Imo" 
                id="NG-IM" 
            />
        </svg>