<svg xmlns="http://www.w3.org/2000/svg" viewBox="337.38165 56.86874500000001 154.56 129.21999500000004" width="154.56" height="129.21999500000004">
            <path 
                d="m 434.10165,67.298745 1.79,1.18 6,0.73 3.14,-1.8 2.1,-3.99 5.32,-2.59 3.16,-0.63 2.82,-1.37 6.33,-1.96 2.21,1.25 2.13,4.78 0.69,4.35 1.46,2.53 1.12,-0.72 5.86,-1.86 4.99,2.22 2.03,-0.61 1.85,0.88 2.21,3.4 1.76,11.53 0.87,2.9 0,0 -11.06,6.93 -0.12,-1.39 -0.83,-1.64 -0.99,-0.82 -3.48,0.55 -4.54,1.95 -6.71,20.589995 0.57,1.88 0.03,2.25 -1.19,0.94 -6.23,2.51 -10.94,3.73 -5.47,3.04 -6.16,0.46 -3.22,4.54 -0.49,4.26 1.35,0.63 2.61,-0.04 2.12,-1.03 2.75,-0.27 1.81,0.5 1.46,4.42 0.52,4.32 -2.51,5 0.55,1.74 1.18,1.11 3.84,-0.94 0.47,2.57 1.05,2.5 5.3,7.42 2.99,1.85 6.39,0.77 5.72,1.27 8.87,0.56 1.04,1.46 -1.1,2.72 -1.85,1.39 -1.44,0.78 -4.04,0.99 -2.53,1.36 -1.53,1.91 -0.04,1.8 1.11,3.43 -1.86,0.57 -2.46,-0.62 -1.86,-1.36 -1.56,-0.17 -5.6,1.39 -5.7,-1.19 -1.35,-1.36 -0.81,-2.05 0.83,-7.85 -0.54,-2.15 -2.67,-4.9 -1.14,-0.3 -3.57,0.91 -7.7,0.48 -3.13,-0.21 -1.78,-3.67 -2.3,-0.73 -3.35,1.46 -7.43,-2.41 -6,-1.1 -1,0.19 0,0 -0.08,-2.24 1.08,-3.72 7.12,-6.88 -0.89,-1.15 -2.09,-0.53 -2.83,-2.64 -1.48,-2.75 -0.5,-2 -1.09,-0.99 -5.06,0.15 -0.2,-1.96 0.5,-2.09 3.36,-4.69 0.19,-2.05 1.06,-1.84 -0.19,-2.46 -2.28,-7.18 -1.25,0.53 -1.47,1.75 -2.32,1.42 -1.82,0.18 -1.37,-0.25 -0.01,-2.57 -0.57,-1.44 -3.14,0.25 -1.9,1.19 0,-1.03 -1.65,-0.72 0.53,-1.72 1.18,-1.39 0.08,-5.61 -0.8,-2.94 -0.92,-0.81 -1.85,-0.56 -5.44,-0.56 -0.83,-0.42 -1.02,-1.389995 0.57,-2.01 -1.1,-3.08 -3.81,-2.12 -1.13,-1.38 -0.45,-5.92 -7.78,-2.02 -3.77,0.35 -3.99,1.93 -1.73,1.35 -0.62,2.6 -1.87,3.61 -1.07,-1.12 -0.1,-1.96 -3.51,-6.28 0,0 -1.24,-2.62 -0.83,-0.7 -4.94,-0.12 -2.86,-0.93 -0.59,-0.72 -0.07,-3.85 0.75,-3.4 -0.02,-2.69 0.46,-0.3 10.39,-1.38 5.37,0.99 9.22,-0.78 1.17,1.23 1.41,4.68 0.68,0.94 2.66,1.67 1.99,0.52 2.62,-1.51 0.64,1.56 1.49,0.7 3.68,-0.55 4.18,-1.74 3.19,-2.58 1.03,-2.63 0.58,-0.75 2,-0.88 0.01,-0.86 0,0 1.27,-0.39 10.06,0.44 9.02,1.42 5.24,-0.75 6.06,0.78 10.03,0.45 z" 
                fill="rgb(151, 144, 238)" 
                stroke="white" 
                stroke-width=".7px"
                title="Jigawa" 
                id="NG-JI" 
            />
        </svg>