<svg xmlns="http://www.w3.org/2000/svg" viewBox="212.37164999999993 150.83874 166.62999999999988 155.94999999999996" width="166.62999999999988" height="155.94999999999996">
            <path 
                d="m 316.55165,159.39874 3.09,0.02 2.44,-0.67 4.18,-3.83 4.8,-2.84 1.65,0 4.08,-1.24 1.22,0.19 1.13,0.82 0.32,1.25 -2.11,4.02 0.53,2.57 1.04,1.18 3.53,1.83 3.75,1.23 3.51,4.13 1.53,0.55 2.78,-0.03 2.45,0.59 5.38,4.43 3.59,6.42 0.38,3.88 -1.01,2.44 -1.01,4.91 1.2,6.05 -0.2,1.73 -0.72,1.1 -3.55,0.96 -0.55,0.79 0.6,2.08 1.06,1.07 7.02,0.97 1.98,2.75 1.6,1.05 3,0.64 1.05,-0.29 0,0 -0.53,3.96 -2.35,4.2 0.27,0.73 2.79,1.75 2.53,2.71 0,0 -0.37,0.29 -0.21,2.9 -0.55,1.43 -1.32,1.56 -2.19,0.73 -1.9,1.4 -2.13,4.97 -0.22,2.71 1.36,2.82 0.75,3.52 -2.39,1.97 -0.34,1.1 0.18,1.97 -0.7,7.81 0.53,2.1 -0.42,1.07 -1.91,1.55 -0.4,3.08 -1.76,1.28 0.21,4.74 -1.05,1.4 0.1,1.16 3.26,5.28 2.57,3.08 1.71,1.21 1,2.09 0.12,3.41 -1.67,3.94 0,0 -1.09,0.57 -2.65,5.61 -3.31,5.4 -0.82,0.72 -1.61,0.42 -2.47,-0.13 -0.6,-1.9 -5.34,-5.91 -3.81,-0.24 -1.5,-1.25 -1.33,-0.22 -1.29,0.98 -0.89,1.9 -4.16,4.75 -2.35,1.6 -1.15,0.21 -1.34,-0.96 -0.4,-1.31 0.05,-9.7 -1.03,-1.61 -4.22,-2.44 -0.32,-3.25 -2.93,-2.67 -1.1,-0.39 -1.01,0.35 -1.65,2.12 -0.94,2.54 -2.31,2.1 -1.1,0 -1.75,-1.06 -1.34,0.25 -2.44,-1.79 -0.93,-0.14 -1.5,0.61 -0.7,-0.79 -0.6,-1.88 -0.75,-0.11 -1.34,1.02 0,0 -1.18,0.79 -0.94,-0.31 -1.47,-3.11 -1.07,-0.43 -1.06,0.54 -1.81,3.04 -1.13,0.85 -1.52,-0.85 -3.2,-0.32 -6.12,0.63 0,0 -1.23,-0.42 -2.46,0.6 1.38,-4.13 -3.39,-2.78 0.09,-2.32 0.56,-0.93 2.45,-1.29 0.79,-0.87 0.6,-2.79 3.09,-3.17 -0.58,-1.88 -3,-1.62 0.83,-3.02 -3.62,-1.36 -1.13,-0.77 -0.17,-0.91 0.29,-0.64 0.88,-0.42 3.23,-0.41 0.63,-1.51 -0.1,-3.09 -0.92,-3.88 -0.16,-5.06 -0.33,-1.01 -1.37,-0.67 -12.87,0.08 -6.67,-2.49 -1.71,-1.66 -1.03,-1.98 0.91,-1.24 2.17,-1.36 1.62,-1.68 0.85,-1.48 4.24,-2.6 1.02,-1.79 0.31,-1.98 -3.23,-1.75 -4.83,-1.66 1.35,-4.14 0.05,-2.57 -1.98,-3.8 -1.61,-0.44 -2.25,0.67 -1.39,-0.14 -0.28,-4.5 -0.48,-1.92 -0.61,-0.51 -4.73,-0.5 -1.18,1.2 0.67,2.39 -0.64,0.98 -3.97,-0.56 -7.63,2.86 -1.04,-2.66 -1.02,-1 -2.91,0.13 -2.1,0.61 -2.46,1.5 -5.59,4.5 -5.38,7.01 -1.41,0.89 -1.43,-0.6 -1.22,-3.52 -3.05,-2 -0.22,-1.37 0.33,-2.31 1.84,-1.8 -0.24,-3.81 0.74,-2 -0.14,-1.48 -1.44,-2.38 0.4,-4.79 3.04,-5.38 0,0 1.68,-0.12 1.28,-0.76 2.86,-4.16 5.27,-4.71 5.64,-0.95 7.94,0.57 4.71,-0.62 2.33,-1.51 3.04,-3.1 1.51,-3.23 0.64,-3.55 1.71,-3.41 0.85,-1.14 2.75,-1.77 2.34,-2.38 1.01,0.03 0,0 4.41,0.88 1.94,-0.18 1.36,0.9 0.79,1.74 -0.23,1.07 -2.89,2.69 -0.39,1.32 6.35,1.93 4.25,4.29 1.75,0.23 2.69,-1.52 1.38,-1.91 -1.81,-3.36 -0.12,-2.04 3.45,-1.09 1.95,0.11 2.77,1.1 1.4,-0.09 0.58,-0.54 -0.01,-1.39 1.2,-2.97 3.06,-2.59 1.39,-0.28 6.78,2.29 2.05,1.73 0.97,1.58 1.57,0.78 5.62,-2.24 0.84,-2.05 z" 
                fill="rgb(151, 144, 238)" 
                stroke="white" 
                stroke-width=".7px"
                title="Kaduna" 
                id="NG-KD" 
            />
        </svg>