<svg xmlns="http://www.w3.org/2000/svg" viewBox="311.06165000000004 82.80874500000002 103.27999999999986 127.62999499999998" width="103.27999999999986" height="127.62999499999998">
            <path 
                d="m 347.91165,83.288745 3.51,6.28 0.1,1.96 1.07,1.12 1.87,-3.61 0.62,-2.6 1.73,-1.35 3.99,-1.93 3.77,-0.35 7.78,2.02 0.45,5.92 1.13,1.38 3.81,2.12 1.1,3.08 -0.57,2.01 1.02,1.389995 0.83,0.42 5.44,0.56 1.85,0.56 0.92,0.81 0.8,2.94 -0.08,5.61 -1.18,1.39 -0.53,1.72 1.65,0.72 0,1.03 1.9,-1.19 3.14,-0.25 0.57,1.44 0.01,2.57 1.37,0.25 1.82,-0.18 2.32,-1.42 1.47,-1.75 1.25,-0.53 2.28,7.18 0.19,2.46 -1.06,1.84 -0.19,2.05 -3.36,4.69 -0.5,2.09 0.2,1.96 5.06,-0.15 1.09,0.99 0.5,2 1.48,2.75 2.83,2.64 2.09,0.53 0.89,1.15 -7.12,6.88 -1.08,3.72 0.08,2.24 0,0 -5.52,2.17 -1.14,-0.09 -1.14,-1.07 -1.69,0.3 -2.48,1.57 -0.67,1.1 -4.74,4.17 -2.65,4.11 -2.74,3.21 -2.04,0.51 -2.7,-0.16 -1.02,0.43 -1.6,4.57 -0.45,3.5 0.4,6.89 0.45,1.99 3.86,4.33 0.77,1.67 0.08,2 -1.33,3.85 -2.59,4.09 -0.99,0.56 0,0 -1.05,0.29 -3,-0.64 -1.6,-1.05 -1.98,-2.75 -7.02,-0.97 -1.06,-1.07 -0.6,-2.08 0.55,-0.79 3.55,-0.96 0.72,-1.1 0.2,-1.73 -1.2,-6.05 1.01,-4.91 1.01,-2.44 -0.38,-3.88 -3.59,-6.42 -5.38,-4.43 -2.45,-0.59 -2.78,0.03 -1.53,-0.55 -3.51,-4.13 -3.75,-1.23 -3.53,-1.83 -1.04,-1.18 -0.53,-2.57 2.11,-4.02 -0.32,-1.25 -1.13,-0.82 -1.22,-0.19 -4.08,1.24 -1.65,0 -4.8,2.84 -4.18,3.83 -2.44,0.67 -3.09,-0.02 0,0 -3.6,-2.68 -1.11,-2.26 -0.78,-3.61 1.52,-2.67 0.07,-2.21 1.82,-1.63 3.75,-1.03 2.45,-1.7 2.71,-0.07 0.95,-0.58 -3.14,-7.8 0.67,-4.06 -2.09,-4.58 0.86,-6.33 -0.7,-12.32 0.27,-2.89 2.18,-2.28 4.25,-2.369995 7.64,-2.38 3.68,-1.93 0.78,-0.85 1.13,-4.39 2.14,-4.61 1.28,-0.52 z" 
                fill="rgb(151, 144, 238)" 
                stroke="white" 
                stroke-width=".7px"
                title="Kano" 
                id="NG-KN" 
            />
        </svg>