<svg xmlns="http://www.w3.org/2000/svg" viewBox="260.7616500000001 34.698745000000045 130.12 140.27999499999993" width="130.12" height="140.27999499999993">
            <path 
                d="m 322.66165,35.138745 9.16,1.35 5.19,1.38 3.58,1.94 2.92,2.5 2.73,0.73 9.89,9.64 3.29,-0.88 2.92,0.38 3.03,1.55 2.29,1.75 1.85,2.11 1.04,2.44 2.96,1.37 5.26,1.27 12.11,3.92 0,0 -0.01,0.86 -2,0.88 -0.58,0.75 -1.03,2.63 -3.19,2.58 -4.18,1.74 -3.68,0.55 -1.49,-0.7 -0.64,-1.56 -2.62,1.51 -1.99,-0.52 -2.66,-1.67 -0.68,-0.94 -1.41,-4.68 -1.17,-1.23 -9.22,0.78 -5.37,-0.99 -10.39,1.38 -0.46,0.3 0.02,2.69 -0.75,3.4 0.07,3.85 0.59,0.72 2.86,0.93 4.94,0.12 0.83,0.7 1.24,2.62 0,0 -4.63,0.36 -1.28,0.52 -2.14,4.61 -1.13,4.39 -0.78,0.85 -3.68,1.93 -7.64,2.38 -4.25,2.369995 -2.18,2.28 -0.27,2.89 0.7,12.32 -0.86,6.33 2.09,4.58 -0.67,4.06 3.14,7.8 -0.95,0.58 -2.71,0.07 -2.45,1.7 -3.75,1.03 -1.82,1.63 -0.07,2.21 -1.52,2.67 0.78,3.61 1.11,2.26 3.6,2.68 0,0 -0.99,1.1 -0.84,2.05 -5.62,2.24 -1.57,-0.78 -0.97,-1.58 -2.05,-1.73 -6.78,-2.29 -1.39,0.28 -3.06,2.59 -1.2,2.97 0.01,1.39 -0.58,0.54 -1.4,0.09 -2.77,-1.1 -1.95,-0.11 -3.45,1.09 0.12,2.04 1.81,3.36 -1.38,1.91 -2.69,1.52 -1.75,-0.23 -4.25,-4.29 -6.35,-1.93 0.39,-1.32 2.89,-2.69 0.23,-1.07 -0.79,-1.74 -1.36,-0.9 -1.94,0.18 -4.41,-0.88 0,0 0.02,-2.33 1.25,-6.1 -0.9,-3.69 -1.91,-1.9 -0.16,-1.07 0.45,-3.76 1.56,-4.14 0.65,-4 1.5,-0.84 6.61,-0.13 1.28,0.87 4.88,-3.97 0.55,-3.2 3.34,0.81 1.89,-1.62 -0.5,-1.95 -1.16,-1.43 -2.68,-2.29 -2.53,-1.16 -1.26,-1.21 1.82,-3.63 1.09,-5.16 -0.95,-2.47 0.13,-1.68 -0.69,-3.05 -2.5,-5.199995 0.4,-3.57 -1.31,-3.21 -0.39,-4.75 -1,-5.17 0.07,-6.05 -0.99,-6.17 1.44,-10.82 0,0 4.86,-1.57 5.28,-5.36 8.7,0.78 3.58,-0.74 23.4,-14.15 1.28,-0.33 z" 
                fill="rgb(151, 144, 238)" 
                stroke="white" 
                stroke-width=".7px"
                title="Katsina" 
                id="NG-KT" 
            />
        </svg>