<svg xmlns="http://www.w3.org/2000/svg" viewBox="51.58165100000021 41.738745 156.6799989999999 196.74999499999996" width="156.6799989999999" height="196.74999499999996">
            <path 
                d="m 90.771651,42.718745 6.62,-0.14 1.86,0.74 4.629999,-1.58 0.76,0.31 1.65,2.12 3.19,1.82 1.06,1.1 9.56,3.12 2.95,2.07 3.06,0.68 1.82,-0.43 0.63,-0.56 2.49,-3.69 1.16,-0.31 1.08,0.88 0.4,1.25 -1.62,3.93 0.09,2.4 -1.42,2.98 -0.42,3.7 1.86,2.15 1.8,4.28 -0.18,3.32 -1.3,6.06 0.04,2.04 1.68,5.52 -0.24,8.02 -0.64,1.56 -1.02,0.04 -3.17,-2.04 -2.68,0.02 -3.95,1.18 -1.28,1.48 -1.01,3.779995 -0.14,9.94 0.79,13.05 -2.12,9.79 -2.61,5.63 -1.16,4.77 2.55,3.65 0.76,0.51 2.78,0.29 1.71,-1.35 2.4,-3 12,-5.45 1.69,-0.12 1.89,0.86 2.04,-0.72 0.77,1.75 0.94,0.07 1.62,-0.97 0,0 0.86,-0.48 1.82,0 4.11,2.25 6.34,-1.46 0.82,-2.32 1.06,-0.62 0.79,-0.15 0.91,0.64 2.09,0.31 3.61,-0.65 1.08,0.57 1.69,3.3 2.87,0.11 3.65,2.41 5.47,-0.76 3.79,0.5 2.49,-0.59 1.22,-0.81 4.85,0.62 4.35,1.77 1.41,2.15 -0.01,2.47 -2.05,6.49 0,1.2 5.38,2.71 1.93,3.01 1.38,7.58 0.21,5.48 0,0 -1.36,-1.1 -1.85,-0.36 -3.42,2.76 -1.28,2.2 -3.93,0.41 -12.1,5.08 -10.67,0.69 -1.64,-1.25 -0.36,-4.02 0.37,-4.81 -0.48,-1.78 -3.75,-2.47 -0.81,-1.26 -0.98,-6.51 -1.69,-1.6 -2.84,-0.71 -3.64,-0.04 -9.86,1.59 -7.87,1.83 -4.43,1.62 -4.85,2.59 -1.37,2.07 0.16,1.54 0.87,1.26 3.63,2.01 5.4,2.19 5.36,0.53 1.05,2.01 1.71,-0.03 0.78,0.74 1.12,6.56 -0.25,1.07 -2.18,1.45 -0.63,1.47 0.49,1.45 2.74,1.63 1.17,1.36 -0.07,2.07 -1.01,1.49 -3.8,0.97 -5.22,2.64 -5,-0.52 -1.55,0.42 -0.9,0.75 -0.04,9.59 -0.45,1.37 1.25,2.83 1.81,1.97 1.86,3.03 0.75,2.44 -0.28,1.53 -1.77,2.13 -2.64,1.57 -3.38,0.26 -7.42,2.5 -0.5,5.85 -0.56,0.48 -4.32,-0.46 -1.42,-0.99 -0.02,-2.28 1.03,-3.28 0.29,-3.94 -2.93,-2.66 -1.12,-2.41 0.18,-6.32 1.46,-3.26 1.84,-2 1.48,-1.01 3.92,-1.44 4.62,-4.43 2.43,-10.71 0.2,-4.05 -0.51,-0.74 -2.89,-1.06 -1.58,0.1 -8.4,-5.7 -5.24,-1.69 -2.94,0.07 -4.5,0.85 -6.189999,-0.36 -12.17,0.81 -1.86,-0.29 -3.49,-1.42 -11.04,-6.08 -2.89,-0.36 -0.89,0.52 0,0 -1.29,-0.01 -12.13,-10.28 4.33,-20.39 2.12,-4.71 4.89,-4.18 -0.82,-3.26 -2.42,-1.82 -0.57,-4.87 3.17,-3.84 -2.36,-8.76 0.39,-5.22 1.27,-4.3 -0.93,-15.849995 10.82,-9.33 7.73,-6.05 9.53,-14.62 2.08,-9.63 z" 
                fill="rgb(151, 144, 238)" 
                stroke="white" 
                stroke-width=".7px"
                title="Kebbi" 
                id="NG-KE" 
            />
        </svg>