<svg xmlns="http://www.w3.org/2000/svg" viewBox="4.061651000000001 235.08874000000003 215.589999 136.07000000000005" width="215.589999" height="136.07000000000005">
            <path 
                d="m 62.361651,236.35874 5.38,-0.92 11.32,-0.35 3.62,0.93 13.98,15.86 1.99,3.1 5.609999,6.48 2.29,1.58 1.7,-0.18 1.04,0.48 0.27,2.94 -0.73,4.65 0.06,5.38 0.88,3.68 1.3,0.39 7.57,-0.79 0.84,0.74 0.43,1.62 -0.19,3.43 0.35,1.4 0.66,1.02 3.21,2.41 3.04,0.39 1.07,0.55 0.9,2.11 0.74,5.45 1.89,1.32 2,-0.01 9.16,-3.56 2.41,-0.16 6.35,3.01 1.42,1.1 6.35,7.23 2.25,0.69 3.96,-1.16 4.52,0.81 3.73,1.61 0.64,-0.27 11.77,7.32 5.19,3.67 0.93,1.49 1.46,0.71 1.84,0.6 4.92,0.32 3.39,-0.91 7.52,-0.31 8.26,1.71 0,0 -2.46,3.35 -2.31,7.79 -0.64,6.49 -1.57,3.76 -3.03,0.5 -6.3,-1.52 -3.92,0.12 -2.13,-0.69 -3.71,0.21 -2.76,-1.08 -1.84,-0.08 -7.04,-3.01 -2.17,-1.76 -1.77,-2.62 -3.6,2.29 -3.71,4.04 -2.29,3.91 -2.14,2.43 -0.17,0.99 1.92,3.7 2.41,2.45 0.07,0.67 2.42,1.81 0.13,0.59 4.76,2.58 0.82,2.41 -0.75,1.44 0,0 -5.76,0.09 -4.11,1.34 -0.82,2.22 0.29,0.63 -1.04,2.16 -1.29,-0.55 -1.95,0.58 -2.3,-0.62 -2.33,0.23 -0.95,-0.49 -1.47,-2.06 -0.95,-0.37 -4.48,1.25 -1.03,-0.49 -0.61,-1.67 -0.41,0.17 0,0 -0.39,-0.54 -1.67,0.8 -3.49,0.13 -1.48,-3.17 -2.18,-0.58 -4.74,1.7 -2.65,-0.38 0.08,0.88 -0.18,-0.85 -0.36,0.09 -3.55,1.61 -2.6,0.31 -8.27,-0.22 0,0 -0.49,-0.66 -1.45,-0.07 -0.71,-0.94 -1.9,-4.81 -0.39,-2.77 -0.78,-0.66 -0.03,-0.8 -3.46,-2.25 -2.95,-4.24 -1.22,-3.44 -0.09,-2.1 -0.79,-2.77 -1.97,-2.63 -2.999999,-7.11 -1.66,-1.91 -1.32,-5.29 -0.81,-1.58 1.03,-4.5 2.08,-1.55 0.35,-1.6 0.57,-0.59 3.159999,-2.09 2.34,-3.16 -0.16,-1.3 -1.31,-0.78 -2.829999,1.8 -2.21,0.08 -3.83,-1.08 -1.1,0.13 -2.4,-1.54 -5.7,-1.74 -3.25,-2.42 -1.69,-2.04 -0.54,-2.48 -4.08,-2.46 -2.04,0.09 -3.82,2.08 -1.69,3.71 -0.02,2.65 -0.45,1.11 -4.42,3.43 -6.64,2.92 -5.79,3.3 -2.49,1.94 -1.13,0.26 -3.01,2.21 -7,3.26 -0.93,0.15 -0.53,-0.75 -0.45,0.11 -0.91,-1.13 -0.69,-0.19 -2.57,0.27 -6.93,5.53 -1.66,0.66 -3.91,3.44 -0.19,0.99 -1.5,0.79 -4.08,0.72 -3.17,0.02 -3.19,2.78 0,0 0.56,-1.78 -0.59,-1.36 -0.01,-3.54 -0.71,-0.9 0.24,-1.44 0.55,-1.39 -0.39,-2.71 -0.97,-1.79 0.74,-1.4 1.43,-0.91 -0.4,-3.34 0.69,-0.23 0.34,-1.72 -0.2,-0.62 0.02,-0.88 0.69,-1.64 0.43,-1.56 -0.41,-0.76 -0.27,-0.77 -0.35,-0.78 0.13,-1.17 0.25,-1.73 0.16,-0.69 5.37,0.18 0.71,-0.16 1.05,-1.18 3.55,-0.56 0.66,0.82 1.24,0.45 1.49,-0.1 4.95,-1.73 0.25,-1.76 1.95,-3.88 0.17,-3.74 1.91,-1.88 -0.34,-5.82 -1.28,-4.01 0.31,-1.42 1.16,-1.88 2.47,-1.38 0.82,-1.83 2.59,-3.62 0.85,-3.1 1.04,-0.59 2.14,0.25 2.09,-1.73 0.1,-1.22 -1.34,-2.56 -0.32,-1.93 0.37,-1.34 1.11,-1.22 6.75,-2.7 3.39,0.24 1.14,-0.3 2.02,-2.06 0.12,-1.3 2.36,-2.59 0.57,-2.41 0.25,-4.97 0.85,-1.1 2.08,-0.86 z" 
                fill="rgb(151, 144, 238)" 
                stroke="white" 
                stroke-width=".7px"
                title="Kwara" 
                id="NG-KW" 
            />
        </svg>