<svg xmlns="http://www.w3.org/2000/svg" viewBox="264.70165 284.24874 165.7099999999998 99.49000000000007" width="165.7099999999998" height="99.49000000000007">
            <path 
                d="m 307.24165,287.46874 1.34,-1.02 0.75,0.11 0.6,1.88 0.7,0.79 1.5,-0.61 0.93,0.14 2.44,1.79 1.34,-0.25 1.75,1.06 1.1,0 2.31,-2.1 0.94,-2.54 1.65,-2.12 1.01,-0.35 1.1,0.39 2.93,2.67 0.32,3.25 4.22,2.44 1.03,1.61 -0.05,9.7 0.4,1.31 1.34,0.96 1.15,-0.21 2.35,-1.6 4.16,-4.75 0.89,-1.9 1.29,-0.98 1.33,0.22 1.5,1.25 3.81,0.24 5.34,5.91 0.6,1.9 2.47,0.13 1.61,-0.42 0.82,-0.72 3.31,-5.4 2.65,-5.61 1.09,-0.57 0,0 1.69,1.65 2.42,0.11 2.08,0.85 0.63,4.48 1.93,3.41 2.16,0.98 5.32,0.56 3.7,0 2.77,-1.35 1.04,0.56 2.01,2.21 -0.79,2.93 -2.7,4.01 -2.11,1.98 -1.41,0.2 -1.46,1.05 -1.55,2.86 -1.55,1.36 -0.32,2.25 0.64,1.72 2.09,2.43 0.32,1.24 -0.3,5.41 1.44,2.07 5.15,2.71 3.66,1.3 8.19,-0.15 9.76,-2.79 10.36,4.33 2.52,2.07 1.46,2.68 0,0 -2.58,3.68 -2.74,0.82 -4.51,-0.95 -0.33,-0.41 -1.52,0.23 -1,-1.07 -1.73,-0.9 -1.86,0 -1.28,0.86 -1.33,2.14 -0.73,2.86 1.71,1.36 2.03,2.51 0.35,2.88 -0.54,0.65 1,2.68 -0.11,1.19 -11.23,7.21 -1.21,1.39 0,0 -11.79,-8.93 -0.01,0.7 -3.96,0.22 -4.88,-0.41 -6.86,-1.55 -10.09,-3.72 -2.68,-0.44 -2.59,0.18 -1.38,0.28 -3.95,2.2 -1.24,1.41 -1.02,2.86 0.08,2.52 4.7,11.64 -0.09,1.36 -1.14,1.1 -5.33,-2.23 -3.32,-2.8 -1.07,0.14 -5.25,-0.99 -4.92,-2.82 -8.71,-3.55 -8.51,-1.25 -9.13,-2.48 0,0 -7.7,-0.57 -3.58,-0.68 -7.07,0.7 -12.4,3.37 -9.26,4.07 -4.26,2.95 -0.69,-0.56 0.17,-3.74 0.85,-2.12 1.61,-1.67 0.04,-4.69 1.17,-4.71 -0.54,-6.17 -2.19,-2.66 -0.82,-1.69 0,-0.86 1.55,-2.66 0.6,-2.64 0,0 11.13,-1.75 2.91,-1.2 4.63,-1.06 6.96,-3.64 3.78,-4.62 1.04,-1.64 1.08,-3.4 0.79,-0.36 1.52,-7.95 1.98,-5.27 0.55,-7 -0.51,-2.19 0.08,-5.62 2.11,-6.52 0.53,-0.61 1.03,-0.07 0.42,-0.62 z" 
                fill="rgb(151, 144, 238)" 
                stroke="white" 
                stroke-width=".7px"
                title="Nassarawa" 
                id="NG-NA" 
            />
        </svg>