<svg xmlns="http://www.w3.org/2000/svg" viewBox="57.04165099999979 160.17874000000012 232.57999900000004 196.76000000000005" width="232.57999900000004" height="196.76000000000005">
            <path 
                d="m 65.001651,173.89874 0.89,-0.52 2.89,0.36 11.04,6.08 3.49,1.42 1.86,0.29 12.17,-0.81 6.189999,0.36 4.5,-0.85 2.94,-0.07 5.24,1.69 8.4,5.7 1.58,-0.1 2.89,1.06 0.51,0.74 -0.2,4.05 -2.43,10.71 -4.62,4.43 -3.92,1.44 -1.48,1.01 -1.84,2 -1.46,3.26 -0.18,6.32 1.12,2.41 2.93,2.66 -0.29,3.94 -1.03,3.28 0.02,2.28 1.42,0.99 4.32,0.46 0.56,-0.48 0.5,-5.85 7.42,-2.5 3.38,-0.26 2.64,-1.57 1.77,-2.13 0.28,-1.53 -0.75,-2.44 -1.86,-3.03 -1.81,-1.97 -1.25,-2.83 0.45,-1.37 0.04,-9.59 0.9,-0.75 1.55,-0.42 5,0.52 5.22,-2.64 3.8,-0.97 1.01,-1.49 0.07,-2.07 -1.17,-1.36 -2.74,-1.63 -0.49,-1.45 0.63,-1.47 2.18,-1.45 0.25,-1.07 -1.12,-6.56 -0.78,-0.74 -1.71,0.03 -1.05,-2.01 -5.36,-0.53 -5.4,-2.19 -3.63,-2.01 -0.87,-1.26 -0.16,-1.54 1.37,-2.07 4.85,-2.59 4.43,-1.62 7.87,-1.83 9.86,-1.59 3.64,0.04 2.84,0.71 1.69,1.6 0.98,6.51 0.81,1.26 3.75,2.47 0.48,1.78 -0.37,4.81 0.36,4.02 1.64,1.25 10.67,-0.69 12.1,-5.08 3.93,-0.41 1.28,-2.2 3.42,-2.76 1.85,0.36 1.36,1.1 0,0 3.32,4.4 3.8,6.64 1.59,4.09 -0.07,0.84 0,0 -3.04,5.38 -0.4,4.79 1.44,2.38 0.14,1.48 -0.74,2 0.24,3.81 -1.84,1.8 -0.33,2.31 0.22,1.37 3.05,2 1.22,3.52 1.43,0.6 1.41,-0.89 5.38,-7.01 5.59,-4.5 2.46,-1.5 2.1,-0.61 2.91,-0.13 1.02,1 1.04,2.66 7.63,-2.86 3.97,0.56 0.64,-0.98 -0.67,-2.39 1.18,-1.2 4.73,0.5 0.61,0.51 0.48,1.92 0.28,4.5 1.39,0.14 2.25,-0.67 1.61,0.44 1.98,3.8 -0.05,2.57 -1.35,4.14 4.83,1.66 3.23,1.75 -0.31,1.98 -1.02,1.79 -4.24,2.6 -0.85,1.48 -1.62,1.68 -2.17,1.36 -0.91,1.24 1.03,1.98 1.71,1.66 6.67,2.49 12.87,-0.08 1.37,0.67 0.33,1.01 0.16,5.06 0.92,3.88 0.1,3.09 -0.63,1.51 -3.23,0.41 -0.88,0.42 -0.29,0.64 0.17,0.91 1.13,0.77 3.62,1.36 -0.83,3.02 3,1.62 0.58,1.88 -3.09,3.17 -0.6,2.79 -0.79,0.87 -2.45,1.29 -0.56,0.93 -0.09,2.32 3.39,2.78 -1.38,4.13 2.46,-0.6 1.23,0.42 0,0 -8.65,12.34 -0.94,0.24 -9.19,-8.1 -1.76,-0.63 -11.03,0.47 -2.68,0.33 -0.34,0.38 -0.36,13.66 0.75,30.21 -0.46,1.37 1.95,4.91 1.42,0.47 1.83,-0.21 0,0 -1.12,3.25 -3.57,1.74 -0.06,2.97 -0.46,0.09 -0.99,-0.88 -0.19,0.26 -1.24,2.53 -0.62,2.89 -0.33,0.35 -1.63,-0.25 -2.72,-2.54 -5.47,-7.27 -2.71,-2.69 -3.71,-2.3 -2.55,-8.25 -2.77,-4.32 -3.52,-3.25 -2.77,-1.58 -2.2,-0.57 0,0 -8.26,-1.71 -7.52,0.31 -3.39,0.91 -4.92,-0.32 -1.84,-0.6 -1.46,-0.71 -0.93,-1.49 -5.19,-3.67 -11.77,-7.32 -0.64,0.27 -3.73,-1.61 -4.52,-0.81 -3.96,1.16 -2.25,-0.69 -6.35,-7.23 -1.42,-1.1 -6.35,-3.01 -2.41,0.16 -9.16,3.56 -2,0.01 -1.89,-1.32 -0.74,-5.45 -0.9,-2.11 -1.07,-0.55 -3.04,-0.39 -3.21,-2.41 -0.66,-1.02 -0.35,-1.4 0.19,-3.43 -0.43,-1.62 -0.84,-0.74 -7.57,0.79 -1.3,-0.39 -0.88,-3.68 -0.06,-5.38 0.73,-4.65 -0.27,-2.94 -1.04,-0.48 -1.7,0.18 -2.29,-1.58 -5.609999,-6.48 -1.99,-3.1 -13.98,-15.86 -3.62,-0.93 -11.32,0.35 -5.38,0.92 0,0 0.49,-3.02 -1.96,-0.7 -2.1,-2.02 -1.75,-3.54 3.08,-6.97 -0.14,-1.69 0.89,-1.14 2.58,-1.33 6.08,3.19 1,-3.12 0.25,-2.99 2.82,-6.43 -0.66,-6.2 -2.69,-1.9 -2.97,-5.6 1.21,-4.6 0.13,-2.04 -1.23,-5.05 -2.13,-0.82 0.42,-1.95 -0.28,-1.95 0.51,-1.95 z" 
                fill="rgb(151, 144, 238)" 
                stroke="white" 
                stroke-width=".7px"
                title="Niger" 
                id="NG-NI" 
            />
        </svg>