<svg xmlns="http://www.w3.org/2000/svg" viewBox="0.3516509700000843 370.88874 119.32999903 102.41000000000014" width="119.32999903" height="102.41000000000014">
            <path 
                d="m 0.96165097,375.38874 5.97000003,-4.29 3.49,-0.21 1.9,0.93 1.24,1.79 0.41,1.43 0.15,6.48 0.56,2.36 1.31,2.17 0.84,0.13 0.94,-5.56 0.57,-1.25 0.47,-0.45 1.37,0 0.88,0.61 0.54,1.75 -0.16,3.09 -1.74,5.98 -0.41,-0.24 -0.51,0.57 0.52,3.66 2.12,2.51 3.05,2.47 1.02,3.04 3.2,4.51 3.01,2.36 2.34,1.13 4.05,0.28 1.74,-0.49 2.78,-3.97 1.14,-4.24 1.62,-1.48 2.6,0.29 1.75,4.34 1.59,1.13 1.02,-0.26 1.13,-1.11 2.47,-0.6 6.2,0.22 1.17,1.89 0.33,5.66 0.41,0.71 2.98,1.22 0.64,1.1 -0.1,2.22 1.1,2.7 0.41,2.87 -3.97,4.01 -0.33,1.13 0.37,0.28 6.09,-0.25 2.7,-0.58 3.04,0.13 3.18,-1.24 1.51,-1.37 5.89,-0.88 0,0 2.74,-1.08 1.4,-1.11 0.94,0.39 0.52,0.84 0.59,4.28 1.97,-0.01 3.85,-1.98 3.389999,0.59 2.97,7.11 3.06,-1.96 1.1,-0.02 1.15,0.69 2.12,-0.92 4.16,-0.26 0.31,0.13 -0.3,1.01 0,0 -0.75,5.5 -1.06,3.26 -2.35,2.1 -2.06,0.97 -3.63,3.28 -2.98,4.92 0.03,3.41 2.01,1.97 4.81,0.81 1.83,-0.13 1.42,-1.06 1.65,-2.27 1.76,-0.51 0.65,0.78 -0.02,4.47 0.85,3.57 -0.72,1.81 -2.44,0.66 -0.77,1.14 -1.12,0.68 -2.4,0.11 -1.32,1.34 0.98,0.43 2.79,-0.25 3.3,1.74 0.21,1.08 -0.82,1.72 -4.01,-0.28 0,0 -5,-2.24 -4.38,-0.93 0,0 0.36,-2.36 -0.35,-1.25 -5.269999,-0.65 -1.12,0.58 -0.58,-0.14 -1.13,-1.31 -2.77,-0.77 -0.92,-0.74 -0.22,-0.7 0.56,-1.03 2.8,-1.31 1.12,-1.06 -0.12,-0.95 -1.06,-1.48 -3.45,0.41 -3.22,2.16 -2.19,-1.09 -0.04,-1.46 -0.73,-1.24 0.23,-0.94 2.73,-2.88 -0.54,-0.9 -1.07,-0.21 -37.58,-0.39 -1.59,1.06 0.51,1.45 -4.57,0.48 -0.81,-1.43 -1.2,-0.8 -3.41,-1.43 -1.85,-0.25 -1.36,2.51 -0.09,2.35 -2.08,1.65 -0.77,3.95 -1.06,1.01 -13.71,0.19 -3.55,-0.53 -0.41,0.11 0,1.61 -3.46,2.44 -1.94,-0.89 -3.41,0.43 -1.25,-0.4 0,0 0.42,-3.28 1.13,-1.18 0.63,-1.54 -1.34,-3.74 1.3,-2.16 2.11,-1.8 0.2,-2.74 -0.21,-0.96 -2.14,-0.28 -0.78,-0.39 -0.41,-0.86 -0.17,-1.82 1.2,-1.9 -0.34,-1.07 0.48,-3.46 -0.22,-0.98 -1.3,-0.14 -0.54,-0.61 0.15,-2.86 1.4,-1.61 3.06,-1.78 -2.46,-2.23 -0.48,-0.96 1.87,-2.2 0.59,-1.92 -0.66,-4.66 -1.53,-1.66 -0.12,-9.69 2.37,-0.08 0.82,-0.48 0.04,-0.72 -0.42,-3.5 -2.68,-2.04 -0.22,-1.76 -0.98,-1.52 -0.3,-4.2 0.25,-8.96 -0.3,-0.95 -0.82,-0.35 -0.97,-2.58 -1.69000003,-2.17 z" 
                fill="rgb(151, 144, 238)" 
                stroke="white" 
                stroke-width=".7px"
                title="Ogun" 
                id="NG-OG" 
            />
        </svg>