<svg xmlns="http://www.w3.org/2000/svg" viewBox="104.71164999999999 383.26874 103.63999999999999 118.57999999999998" width="103.63999999999999" height="118.57999999999998">
            <path 
                d="m 194.92165,384.14874 4.62,-0.88 2.51,0.43 -0.71,4.14 2.04,2.7 4.74,4.17 0.23,0.78 0,0 -2.45,3.49 -0.9,0.6 -1.56,-0.14 -1.41,1.72 -0.18,1.38 0.4,0.84 2.02,0.82 -0.88,2.89 0.77,2.49 0.42,0.28 -1.43,3.54 -2.15,1.05 -1.76,1.83 -0.47,1.04 0.15,1.39 -3.23,6.89 0.32,0.83 -0.37,0.85 -1.51,0.73 -1.24,1.67 -0.62,4.63 1.18,1.28 0.16,0.82 -0.88,0.51 -0.01,1.63 -1.19,-0.51 -0.25,0.25 -0.95,4.96 -1.51,3.39 -2.68,1.03 -0.81,-0.36 -1.19,-1.48 -1.34,-0.12 -3.77,3.16 -0.74,0.03 -2.1,-5.46 2.01,-2.25 -1.74,-2.09 -1.64,-0.34 -3.29,0.39 -6.64,-0.11 -1.68,-0.36 -2.28,0.38 -2.12,-0.39 -2.2,1.01 -0.46,0.78 -0.09,1.96 -0.95,0.68 -0.79,2.27 -1.73,0.8 -0.45,1.04 -1.76,1.61 -0.49,0.96 0.09,2.22 -0.8,0.99 0,2.84 1.23,0.64 1.39,2.28 0.58,1.45 -0.36,1.72 -0.83,1.96 -1.74,1.71 -0.85,3.74 -2.94,0.86 -0.58,0.62 -0.96,3.62 -0.8,0.7 0.28,-0.44 -0.25,0.6 0.44,0.91 0.7,0.05 1.94,1.36 1.65,2.94 1.56,0.1 1.33,1.04 1.24,2.26 -0.39,1.16 0,0 -6.9,16.74 0,0 -4.86,-5.94 -9.17,-9.24 -14.82,-11.96 -2.7,-1.66 0,0 4,0.28 0.83,-1.73 -0.21,-1.07 -3.3,-1.74 -2.79,0.25 -0.98,-0.43 1.32,-1.35 2.4,-0.1 1.11,-0.68 0.78,-1.14 2.44,-0.66 0.72,-1.82 -0.84,-3.57 0.01,-4.47 -0.64,-0.78 -1.77,0.51 -1.65,2.27 -1.42,1.06 -1.83,0.13 -4.8,-0.81 -2.01,-1.96 -0.03,-3.41 2.98,-4.92 3.63,-3.28 2.06,-0.96 2.35,-2.1 1.07,-3.25 0.74,-5.51 0,0 2.67,-1.42 2.15,-4.97 4.29,-3.44 2.32,-0.02 2.51,1.24 2.91,2.22 1.81,0.03 0.64,-1.26 -0.23,-1.63 0.41,-2.11 -0.46,-3.98 1.56,-6.54 0.84,-0.57 5.86,-1.59 -0.62,-2.4 0,0 4.55,-1.45 7.78,0.43 6.97,-0.31 1.55,0.53 1.42,2.21 1.03,3.19 -0.16,0.86 1.09,2.69 2.28,0.59 5.53,-3.5 3.04,-4.43 1.71,-3.92 1.7,-8.1 1.13,-2.14 2.4,-2.48 2.18,-1.45 0.85,-2.06 1.86,-0.38 1.5,1.24 0.82,-0.3 1.49,-2.44 z" 
                fill="rgb(151, 144, 238)" 
                stroke="white" 
                stroke-width=".7px"
                title="Ondo" 
                id="NG-ON" 
            />
        </svg>