<svg xmlns="http://www.w3.org/2000/svg" viewBox="84.55165099999999 363.74874000000005 64.10999900000002 69.34999999999997" width="64.10999900000002" height="69.34999999999997">
            <path 
                d="m 117.18165,366.88874 8.27,0.22 2.6,-0.31 3.55,-1.61 0.36,-0.09 0.18,0.85 -0.08,-0.88 2.65,0.38 4.74,-1.7 2.18,0.58 1.48,3.17 3.49,-0.13 1.67,-0.8 0.39,0.54 0,0 -1.52,5.3 -1.99,1.64 -2.18,0.94 -1.62,1.5 -1.9,4.25 -0.12,1.4 0.81,2.81 -1.19,3.99 0.69,4.78 2.85,6.11 0.84,3.79 0.83,1.7 0,0 0.62,2.41 -5.86,1.58 -0.84,0.58 -1.56,6.54 0.46,3.98 -0.4,2.11 0.23,1.63 -0.64,1.26 -1.81,-0.03 -2.91,-2.22 -2.51,-1.24 -2.32,0.01 -4.28,3.45 -2.15,4.96 -2.67,1.43 0,0 0.3,-1.01 -0.31,-0.13 -4.16,0.26 -2.12,0.92 -1.15,-0.69 -1.1,0.02 -3.06,1.96 -2.97,-7.11 -3.389999,-0.59 -3.85,1.98 -1.97,0.01 -0.59,-4.28 -0.52,-0.84 -0.94,-0.39 -1.4,1.11 -2.74,1.08 0,0 2.34,-9.84 0.43,-5.29 1.67,-8.72 -0.87,-0.49 -3.05,-4.88 -3.11,-2.33 -0.27,-0.93 -0.14,-0.88 1.15,-1.09 0.78,-1.76 0.87,-9.27 0.6,-0.28 4.3,1.34 2.32,-0.75 0.78,-0.99 0.13,-2.3 1.06,-0.57 2.81,-3.32 3.009999,1.84 3.59,5.56 2.13,-0.93 0.65,-1.43 2.05,-1.16 0.98,-1.39 0.28,0.39 1.83,-1.51 2.29,-0.76 0.25,0.38 0.99,-1.34 0.31,-1.28 z" 
                fill="rgb(151, 144, 238)" 
                stroke="white" 
                stroke-width=".7px"
                title="Osun" 
                id="NG-OS" 
            />
        </svg>