<svg xmlns="http://www.w3.org/2000/svg" viewBox="0.9616509699999494 295.5387400000001 116.74999903000005 132.72000000000008" width="116.74999903000005" height="132.72000000000008">
            <path 
                d="m 5.381651,335.88874 3.19,-2.78 3.17,-0.02 4.08,-0.72 1.5,-0.79 0.19,-0.99 3.91,-3.44 1.66,-0.66 6.93,-5.53 2.57,-0.27 0.69,0.19 0.91,1.13 0.45,-0.11 0.53,0.75 0.93,-0.15 7,-3.26 3.01,-2.21 1.13,-0.26 2.49,-1.94 5.79,-3.3 6.64,-2.92 4.42,-3.43 0.45,-1.11 0.02,-2.65 1.69,-3.71 3.82,-2.08 2.04,-0.09 4.08,2.46 0.54,2.48 1.69,2.04 3.25,2.42 5.7,1.74 2.4,1.54 1.1,-0.13 3.83,1.08 2.21,-0.08 2.829999,-1.8 1.31,0.78 0.16,1.3 -2.34,3.16 -3.159999,2.09 -0.57,0.59 -0.35,1.6 -2.08,1.55 -1.03,4.5 0.81,1.58 1.32,5.29 1.66,1.91 2.999999,7.11 1.97,2.63 0.79,2.77 0.09,2.1 1.22,3.44 2.95,4.24 3.46,2.25 0.03,0.8 0.78,0.66 0.39,2.77 1.9,4.81 0.71,0.94 1.45,0.07 0.49,0.66 0,0 0.53,3.2 -0.31,1.28 -0.99,1.34 -0.25,-0.38 -2.29,0.76 -1.83,1.51 -0.28,-0.39 -0.98,1.39 -2.05,1.16 -0.65,1.43 -2.13,0.93 -3.59,-5.56 -3.009999,-1.84 -2.81,3.32 -1.06,0.57 -0.13,2.3 -0.78,0.99 -2.32,0.75 -4.3,-1.34 -0.6,0.28 -0.87,9.27 -0.78,1.76 -1.15,1.09 0.14,0.88 0.27,0.93 3.11,2.33 3.05,4.88 0.87,0.49 -1.67,8.72 -0.43,5.29 -2.34,9.84 0,0 -5.89,0.88 -1.51,1.37 -3.18,1.24 -3.04,-0.13 -2.7,0.58 -6.09,0.25 -0.37,-0.28 0.33,-1.13 3.97,-4.01 -0.41,-2.87 -1.1,-2.7 0.1,-2.22 -0.64,-1.1 -2.98,-1.22 -0.41,-0.71 -0.33,-5.66 -1.17,-1.89 -6.2,-0.22 -2.47,0.6 -1.13,1.11 -1.02,0.26 -1.59,-1.13 -1.75,-4.34 -2.6,-0.29 -1.62,1.48 -1.14,4.24 -2.78,3.97 -1.74,0.49 -4.05,-0.28 -2.34,-1.13 -3.01,-2.36 -3.2,-4.51 -1.02,-3.04 -3.05,-2.47 -2.12,-2.51 -0.52,-3.66 0.51,-0.57 0.41,0.24 1.74,-5.98 0.16,-3.09 -0.54,-1.75 -0.88,-0.61 -1.37,0 -0.47,0.45 -0.57,1.25 -0.94,5.56 -0.84,-0.13 -1.31,-2.17 -0.56,-2.36 -0.15,-6.48 -0.41,-1.43 -1.24,-1.79 -1.9,-0.93 -3.49,0.21 -5.97000003,4.29 0,0 1.07000003,-2.08 0.73,-4.3 1.33,-4.15 -0.3,-1.12 0.37,-2.7 1.13,-2.26 0.36,-2.89 -2.44,-3.06 -1.17,-3.99 0.08,-2.02 1.05,-1.87 -0.44,-2.05 0.48,-0.7 1.25,-0.3 1.37,-2.88 -0.43,-0.44 0.73,-0.97 0.01,-1.07 z" 
                fill="rgb(151, 144, 238)" 
                stroke="white" 
                stroke-width=".7px"
                title="Oyo" 
                id="NG-OY" 
            />
        </svg>