<svg xmlns="http://www.w3.org/2000/svg" viewBox="364.1716500000001 223.00874 130.4999999999999 124.42999999999995" width="130.4999999999999" height="124.42999999999995">
            <path 
                d="m 379.00165,223.49874 1.53,-0.49 3.18,0.08 2.78,0.88 2.61,4.16 0.78,4.8 -0.04,12.38 10.97,-2.19 1.06,0.21 1.8,1.92 0.97,3.13 0.26,5.94 -0.23,1.17 -2.38,4.47 -0.09,1.69 0.6,0.85 3.92,1.42 0.79,0.71 0.9,1.16 1.65,4.07 1.56,1.34 1.51,0.53 4.8,0.27 5.47,1.48 10.04,-0.59 4.39,-1.41 2.89,-5.21 4.76,-1.3 0.5,-1.67 -0.27,-1.74 -3.17,-4.06 0.3,-1.44 3.03,-1.78 7.6,3.95 2.57,0.51 9.26,4.93 11.07,4.74 6.18,4.04 6.36,3.43 0,0 1.56,3.94 0.21,2.15 -0.51,4.08 0.76,5.96 2.3,3.86 1.05,6.02 -0.55,1.33 0.3,2.25 0.43,0 0.21,5.54 -1.78,3.08 -12.18,5.86 -1.9,-0.11 -9.52,2.1 -2.49,1.44 -2.06,4.19 -4.74,5.72 -7.11,3.76 -7.68,7.65 -2.43,1.19 -4.41,1.01 -4.11,0.54 -3.85,-0.25 0,0 -1.46,-2.68 -2.52,-2.07 -10.36,-4.33 -9.76,2.79 -8.19,0.15 -3.66,-1.3 -5.15,-2.71 -1.44,-2.07 0.3,-5.41 -0.32,-1.24 -2.09,-2.43 -0.64,-1.72 0.32,-2.25 1.55,-1.36 1.55,-2.86 1.46,-1.05 1.41,-0.2 2.11,-1.98 2.7,-4.01 0.79,-2.93 -2.01,-2.21 -1.04,-0.56 -2.77,1.35 -3.7,0 -5.32,-0.56 -2.16,-0.98 -1.93,-3.41 -0.63,-4.48 -2.08,-0.85 -2.42,-0.11 -1.69,-1.65 0,0 1.67,-3.94 -0.12,-3.41 -1,-2.09 -1.71,-1.21 -2.57,-3.08 -3.26,-5.28 -0.1,-1.16 1.05,-1.4 -0.21,-4.74 1.76,-1.28 0.4,-3.08 1.91,-1.55 0.42,-1.07 -0.53,-2.1 0.7,-7.81 -0.18,-1.97 0.34,-1.1 2.39,-1.97 -0.75,-3.52 -1.36,-2.82 0.22,-2.71 2.13,-4.97 1.9,-1.4 2.19,-0.73 1.32,-1.56 0.55,-1.43 0.21,-2.9 z" 
                fill="rgb(151, 144, 238)" 
                stroke="white" 
                stroke-width=".7px"
                title="Plateau" 
                id="NG-PL" 
            />
        </svg>