<svg xmlns="http://www.w3.org/2000/svg" viewBox="230.48165000000026 510.36873999999983 74.42999999999986 84.63000000000017" width="74.42999999999986" height="84.63000000000017">
            <path 
                d="m 277.72165,584.56874 -1.46,1.39 0.02,0.77 -0.62,-0.24 0.22,-1.42 1.44,-0.82 0.4,0.32 z m -3.14,-1.84 -1.72,-0.98 -0.55,0.15 -0.55,0.15 -0.21,-0.69 0.86,-0.79 -0.31,-0.67 0.31,-0.65 -0.07,-1.05 -0.57,-0.81 -0.91,-0.17 -0.22,0.16 -0.71,-1.7 -0.27,-0.17 0.14,-0.46 -0.86,-0.86 -0.27,0.36 -0.96,0.15 -0.19,0.82 0.57,1.03 0.5,1.05 0.41,2.04 -0.48,-0.23 -0.45,0.63 1.07,3.48 -0.14,1.27 1.17,4.04 -0.24,0.22 0.77,0.46 2.06,-0.43 0.4,-0.45 0.13,-0.58 1.75,0.49 0.03,-2.23 0.67,-1.56 -1.16,-2.02 z m -3.8,-10.26 0.41,0.46 2.18,0.09 0.19,-0.91 -0.41,-0.31 -1.69,0.3 -0.68,0.37 z m 1.27,-2.46 0.36,1.13 0.52,0.19 -0.29,-1.9 -0.59,0.58 z m 7.2,9.74 -1.44,-2.86 -1,-0.7 -1.63,-0.81 -0.27,-0.12 -0.84,0.65 0.65,0.09 1.31,1.13 0.14,0.21 -0.23,0.46 0.52,0.93 0.12,1.92 1.29,1.2 0.91,0.17 0.67,-1.41 -0.2,-0.86 z m 5.92,6.12 -2.08,-2.62 -1.31,1.63 0.79,0.79 0.81,-0.24 0.38,0.91 0.76,0 0.22,0.62 1.17,-0.5 1.08,1.08 1.86,-1.49 -0.62,-0.55 -3.06,0.37 z m -19.91,-6.61 -1.12,0.53 -0.28,1.32 1.14,0.4 1.44,1.08 1.03,2.28 -0.29,-3.36 -0.36,-0.15 0.26,-1.49 -1.82,-0.61 z m 18.13,2.56 -2.37,-1.62 -1.55,-2.35 -0.03,-0.27 -0.48,-1.7 -0.48,0.43 -0.4,-0.36 0.43,-0.67 -0.03,-1.49 -0.12,-0.07 -0.57,1.85 -2.25,-0.7 -0.53,-0.1 -0.88,-1.08 -0.07,-1.52 -0.36,-0.29 -0.07,-0.46 -0.26,-0.17 -0.15,-0.65 0.5,-0.79 -0.98,-1.22 -0.81,0.53 -0.34,0.89 0.65,1.54 -2.06,0.77 -0.41,0.36 -0.93,0.38 -0.52,0.05 -1,0.77 -0.46,0.62 -0.09,-1.51 -0.58,0.74 -0.22,0.51 1,1.65 0.55,2.45 -1.31,0.45 -0.53,0.21 -1.38,-1.61 -0.71,-1.9 -1.45,-2.41 -1.5,-0.51 0.56,-1.55 -0.68,-2.22 0.98,-0.81 0.35,-0.48 -0.53,-0.67 -1.81,-0.24 -1.81,-1.11 -0.28,1.59 -0.89,0.57 -0.33,-0.77 -1.27,-0.14 -0.34,-0.34 -0.64,0.19 -0.77,0.03 -0.62,-0.87 -0.19,-0.14 -0.55,0.41 0.19,0.99 -0.14,0.33 0.46,0.31 1.27,1.27 -0.12,1.53 0.98,4.64 3.22,3.31 0.02,1.18 -1.81,1.46 -0.1,0.58 1.82,6.56 0.55,3.32 2.41,2.48 -0.29,0.33 -7.24,0.69 -2.24,-0.75 -0.09,-2.71 -0.24,-2.54 0.14,-0.46 -0.03,-0.17 -0.46,-2.71 -0.19,-0.75 1.94,-3.67 -0.19,-2.67 -0.67,0.15 -0.68,0.1 -3.96,-2.6 -1.2,-4.38 -1.38,-1.87 -1.99,-0.02 -6.54,2.54 -1.04,-0.26 -0.35,-1.94 0.42,-1.46 -3.31,-1.44 -0.5,-0.83 0.07,-4.34 1.9,-2.67 0.76,-2.05 0.03,-1.27 -1.29,0.16 -0.84,-0.78 1.33,-4.44 4.49,-7.84 2.77,0.17 0.55,-0.5 0.75,-2.49 1.54,-0.79 -0.23,-1.81 1.58,-1.07 0.95,-1.48 -0.03,-1.94 -0.63,-1.54 -0.76,-0.58 -1.92,-0.83 -2.94,0.49 -1.04,-0.28 -0.57,-1.04 0.21,-0.44 3.52,-1.81 0.19,-5.3 0.7,-1.48 2.05,-1.42 0.89,-1.75 0.82,-3.18 -1.09,-3.54 0.23,-0.35 1.11,1.28 2.4,0.21 -2.75,13.08 1.51,0.44 3.47,-0.67 2.12,0.78 0.44,1.66 -0.52,4.62 -1.09,2.76 0.26,1.37 1.84,1.3 1.72,3.41 2.16,1.65 2.14,0.41 6.72,-0.14 4.7,1.12 4.15,-1.07 2.13,-0.03 4.51,1.13 2.57,-0.95 0.55,0.05 0.66,1.72 0.06,2.78 -2.4,4.19 -3.41,4.33 -1.37,3.71 -0.16,1.09 0.6,1.11 1.45,1.41 1.8,0.27 3.13,-0.59 1.11,-0.64 2.79,-0.12 3.28,1.22 1.81,-0.42 2.94,1.4 2.35,1.79 1.95,3.49 0.63,2.3 -0.96,4.27 0.58,4.55 -0.51,0.32 -0.04,0.64 0.61,1.17 -1.22,0.77 -0.84,-0.72 -0.17,-0.98 -1.22,-0.27 -0.55,-0.26 -0.26,0.46 -1.39,1.18 -0.58,-0.24 -0.26,-0.36 -0.38,-0.02 -0.71,0.39 -1.5,-2.36 -1.27,0.96 -0.93,-0.36 -1.6,-0.5 -0.65,-1.03 -0.67,0.19 -0.74,-0.86 -0.62,0.51 -0.19,0.79 -0.89,0.33 0.34,1.08 0.27,1.03 0.24,0.6 0.78,0.6 0.77,-0.24 0.57,0.08 0.86,-0.31 -0.17,1.75 -1.77,0.17 -1.44,0.53 -0.74,-1.2 -0.1,-0.33 -1.05,-1.17 -0.15,-0.94 0.11,-0.22 z m 21.52,4.31 -0.69,-0.39 -0.43,-0.03 -0.88,-0.36 -0.02,-0.02 -0.4,-0.36 -0.42,0.46 -0.32,-0.13 0.35,-0.54 -0.88,-1.49 -0.9,0.53 -1.04,-0.9 -0.36,-0.34 -0.17,-0.51 -1.39,0.01 -0.26,0.28 -1.23,0.87 -1.33,-0.05 -0.46,0.04 -0.43,-0.23 -0.63,-0.63 -0.53,-0.31 -0.09,-0.81 -1.24,0.34 -1.03,0.02 0.02,-0.42 -1.25,-0.34 -0.91,-0.46 -1.34,-0.09 -0.48,0.24 -0.23,0.58 -0.02,0.79 1.72,0 0.09,0.08 1.17,1.07 0.23,0.67 0.36,1.37 0.84,0.31 0.16,-0.4 0.34,0.28 1.07,0.03 0.06,0.22 -1.84,0.74 -0.43,0.15 -0.69,2.4 5.47,0.77 4.18,-0.92 5.93,-0.14 -0.19,-1.22 0.52,-1.16 z m -48.68,-18.07 0.79,-0.17 0.92,-0.79 0.08,-1.12 1.29,0.9 1.6,0.63 -0.96,1.17 0.43,1.85 0.27,0.32 -0.03,0.58 -0.6,0.94 0.22,0.64 1.01,0.31 1.26,1.35 2.07,4.36 -0.93,0.61 -0.42,0.84 0.15,0.91 3.15,1.85 0.6,2.9 0.88,1.32 -0.12,1.39 0.48,1.61 1.48,1.13 -1.12,1.39 -0.96,0.36 -0.86,-0.5 -0.6,0.41 -6.38,-1.39 -0.81,-2.54 0.53,-0.62 -0.6,0.02 -1.36,-3.89 -0.81,-1.9 0.1,-2.06 1.63,-1.56 -0.17,-1.35 -1.81,-1.66 -1.69,-1.15 -0.76,-4.06 -0.29,-0.58 0.02,-1.82 -0.77,-1.08 1.24,-0.74 0.88,0.63 0.67,0 0.3,0.56 z" 
                fill="rgb(151, 144, 238)" 
                stroke="white" 
                stroke-width=".7px"
                title="Rivers" 
                id="NG-RI" 
            />
        </svg>