<svg xmlns="http://www.w3.org/2000/svg" viewBox="90.77165099999989 0.2287449 163.75999900000005 147.9199951" width="163.75999900000005" height="147.9199951">
            <path 
                d="m 178.43165,0.2287449 12.88,5.68 20.53,7.2500001 4,2.35 4.64,-1.49 3.65,-0.02 8.54,4.12 15.88,15.56 5.98,10.42 0,0 -3.03,2.6 -7.1,4 -9.51,-1.28 -1.9,-0.66 -1.7,-2.05 -2.27,-0.68 -4.97,-0.19 -0.59,5.48 -0.73,1.89 -0.5,0.22 -2.7,-1.44 -2.79,0 -4.85,1.56 -2.11,1.82 -0.11,0.7 0.78,5.14 0.07,8.44 -1.35,1 -4.04,1.64 -10.02,0.79 -6.09,0.95 -5.83,8.58 -1.88,1.87 -3.07,1.91 0.06,2.88 1.43,4.64 0.65,4.25 -0.74,3.029995 -2.46,1.7 -6.11,0.53 -1.28,-0.29 -4.8,0.64 -2.64,-0.31 -4.47,0.33 -9.33,-1.67 -0.92,0.6 -0.93,4.51 0.1,18.21 -0.66,13.78 0,0 -1.62,0.97 -0.94,-0.07 -0.77,-1.75 -2.04,0.72 -1.89,-0.86 -1.69,0.12 -12,5.45 -2.4,3 -1.71,1.35 -2.78,-0.29 -0.76,-0.51 -2.55,-3.65 1.16,-4.77 2.61,-5.63 2.12,-9.79 -0.79,-13.05 0.14,-9.94 1.01,-3.779995 1.28,-1.48 3.95,-1.18 2.68,-0.02 3.17,2.04 1.02,-0.04 0.64,-1.56 0.24,-8.02 -1.68,-5.52 -0.04,-2.04 1.3,-6.06 0.18,-3.32 -1.8,-4.28 -1.86,-2.15 0.42,-3.7 1.42,-2.98 -0.09,-2.4 1.62,-3.93 -0.4,-1.25 -1.08,-0.88 -1.16,0.31 -2.49,3.69 -0.63,0.56 -1.82,0.43 -3.06,-0.68 -2.95,-2.07 -9.56,-3.12 -1.06,-1.1 -3.19,-1.82 -1.65,-2.12 -0.76,-0.31 -4.629999,1.58 -1.86,-0.74 -6.62,0.14 0,0 0.09,-16.44 4.14,-0.02 16.559999,-14.58 25.12,-5.0100001 2.41,2.14 5.71,0.48 6.45,-0.72 4.85,0.56 5.33,-0.16 5.25,-6.26" 
                fill="rgb(151, 144, 238)" 
                stroke="white" 
                stroke-width=".7px"
                title="Sokoto" 
                id="NG-SO" 
            />
        </svg>