<svg xmlns="http://www.w3.org/2000/svg" viewBox="399.01165000000026 269.15873999999997 177.51999999999987 192.69999999999993" width="177.51999999999987" height="192.69999999999993">
            <path 
                d="m 488.91165,275.87874 4.59,-2.65 5.85,0.78 10.59,-4.85 6.44,1.09 3.99,0.03 0,0 3.57,0.71 5.9,-0.6 12.46,0.02 6.37,-0.47 0,0 5.45,10.18 1.46,1.92 4.65,1.08 2.08,1.29 5.26,9.82 -0.46,2.17 0.34,3.84 2.66,2.94 4.14,1.47 2.02,3.84 0.26,1.81 -1,3.62 -5.99,11.44 0.38,5.78 -0.44,2.08 -6.12,5.22 -8.63,11.52 -5.08,5.48 -3.8,3.22 -4.14,4.78 -0.82,1.58 2.52,6.73 2.91,4.7 2.71,2.45 2.72,-1.99 2.83,-4.01 1.64,-0.38 1.42,0.43 1.52,1.12 2.5,3.15 4.32,3.84 2.15,2.6 1.04,2.02 -0.58,5.49 0.74,1.73 0.38,3.54 1.94,4.62 -0.05,1.56 1.22,0.88 0,0 -4.94,5.48 -1.09,1.94 -0.89,2.92 0.38,5.92 0.92,3.32 1.33,2.12 -0.18,1.29 -0.98,0.73 -4.04,-0.35 -0.68,0.46 -2.06,0.06 -0.18,1.64 -1.72,0.75 -1.54,1.93 -1.91,0.43 -1.09,4.21 -2.12,0.65 -1.37,2.72 0.06,0.5 0.94,-0.05 0.46,0.44 0.09,1.77 0.88,0.11 0.19,0.89 -0.99,0.43 -0.62,1.15 0.94,1.52 -0.08,1.04 -1.92,1.11 -0.22,3.22 -1.46,1.44 -0.57,1.91 -1.81,0.78 -1.77,-0.83 -0.6,0.54 -1.24,0.15 -0.46,0.64 0.46,0.88 -0.18,1.73 -0.44,0.5 -3.75,0.68 -0.42,0.22 -0.2,1.37 -1.37,-0.18 -3.03,-2.03 -2.25,1.01 -0.67,-0.7 -3.01,-0.66 -1.42,-1.22 -0.58,0.05 -1.22,1.41 -2.03,-0.08 0.24,-8.73 -2.03,-2.16 -2.24,-0.11 -2.36,2.14 -2.84,-0.48 -1.86,-0.85 -1.43,-3.38 -1.18,-2.19 -1.22,-0.81 -1.17,-0.07 -1.31,-2.11 -0.12,-0.73 1.66,-4.79 -2.66,-1.84 -1.49,-0.2 -0.6,0.74 -1.69,-2.15 -1.03,-0.08 -1.5,-1.61 -0.77,-0.07 -0.36,-1.52 -1.25,-0.63 -0.4,0.46 -1.47,-0.36 -1.85,-1.58 0.52,-1.93 -0.4,-2.09 -1.65,-1.31 -0.76,4.76 0.08,2.89 -1.39,6.02 -0.88,1 -1.67,0.57 -0.34,0.87 -0.64,0.11 -0.94,-0.97 -15.69,1.52 -2.64,-3.08 0.62,-1.75 -0.85,-2.06 -0.19,-1.18 0.07,-0.81 -0.89,-0.32 -8.2,7.4 -0.64,1.12 -2.44,1.72 -1.12,1.84 -4.62,4.63 -1.34,-0.72 -2.2,-0.1 -1.6,-0.22 -0.8,-0.61 -0.9,2.13 0.3,0.79 -0.76,0.97 -0.38,1.8 0.36,2.03 -0.28,1.07 -0.6,0.37 -1.02,2.82 -1.35,5.37 -0.5,0.39 -0.68,-0.34 -1.32,0.37 -1.03,-1.32 -0.44,0.46 0,0 1.9,-8.19 0.03,-8.76 0.33,-1.08 -0.61,-0.73 2.11,-11.5 3.31,-6.16 3.44,-3.25 3.09,-1.94 0.92,-1.43 -0.29,-5.92 2.38,-5.89 0.59,-3.23 -0.56,-1.78 0.26,-1.04 -1.17,-1.36 0.14,-0.65 -8.37,-7.57 -4.44,-5.65 -5.14,-4.9 -7.48,-1.77 -8.18,-0.48 -7.47,0.95 -6.12,2.63 -1.9,-0.57 3.79,-5.97 0,0 1.21,-1.39 11.23,-7.21 0.11,-1.19 -1,-2.68 0.54,-0.65 -0.35,-2.88 -2.03,-2.51 -1.71,-1.36 0.73,-2.86 1.33,-2.14 1.28,-0.86 1.86,0 1.73,0.9 1,1.07 1.52,-0.23 0.33,0.41 4.51,0.95 2.74,-0.82 2.58,-3.68 0,0 3.85,0.25 4.11,-0.54 4.41,-1.01 2.43,-1.19 7.68,-7.65 7.11,-3.76 4.74,-5.72 2.06,-4.19 2.49,-1.44 9.52,-2.1 1.9,0.11 12.18,-5.86 1.78,-3.08 -0.21,-5.54 -0.43,0 -0.3,-2.25 0.55,-1.33 -1.05,-6.02 -2.3,-3.86 -0.76,-5.96 0.51,-4.08 -0.21,-2.15 z" 
                fill="rgb(151, 144, 238)" 
                stroke="white" 
                stroke-width=".7px"
                title="Taraba" 
                id="NG-TA" 
            />
        </svg>