<svg xmlns="http://www.w3.org/2000/svg" viewBox="434.1016500000007 32.448745 174.2299999999994 174.88999500000006" width="174.2299999999994" height="174.88999500000006">
            <path 
                d="m 526.42165,32.448745 12.45,0.19 9.56,1.2 10.76,4.18 11.69,2.55 2.73,1.51 6.09,5.17 4.78,3 1.58,0.14 0.3,-0.82 1,-0.28 1.65,0.65 0.62,-0.52 -0.55,-1.18 1.49,0.16 1.7,0.94 1.66,-0.42 0.83,0.71 0.63,1.07 1.04,-0.62 2.85,0.61 0.74,0.5 0.93,0.12 0.99,-0.01 0,0 -0.08,4.21 -1.49,8.02 1.23,3.85 1.45,1.82 4.8,3.84 0.48,3.74 -1.84,4.21 -2.37,3.08 -7.06,6.31 -0.55,2.2 1.72,3.83 -0.05,5.789995 -2.54,16.29 -0.13,3.5 1.69,7.44 -4.72,9.14 0.15,1.94 0.64,0.36 4.91,-0.21 3.13,3.75 0.84,3.33 -0.99,2.11 -4.54,4.43 -3.3,5.9 -2.89,3.35 -0.9,2.86 0.04,2.97 0.76,4.15 -0.24,2.94 -2.09,3.08 -6.11,3.65 -11.21,3.02 -2.66,1.92 -1.72,2.83 -0.61,2.77 0.28,8.39 -3.41,4.53 -3.04,0.69 0,0 -6.78,0.01 -0.3,-0.51 -0.77,-6.45 1.2,-11.85 -0.67,-4.87 -3.68,-3.38 -1.58,1.02 1,-1.54 -3.42,-3.58 -4.75,-6.4 -8.49,-6.26 -2.18,-1.29 -2.98,-1.01 -4.04,-0.17 -4.17,1.51 -0.91,0.88 0,0 -3.04,-0.37 -1.63,-1.53 0.99,-6.78 1.05,-2.72 0.23,-4.92 -8.35,-20.91 -0.2,-3.87 -0.95,-2.71 -0.33,-2.7 -0.21,-6.74 -3.16,-4.66 0.19,-1.81 -0.77,-7.079995 -1.14,-2.93 -7.74,-6.19 0,0 -0.87,-2.9 -1.76,-11.53 -2.21,-3.4 -1.85,-0.88 -2.03,0.61 -4.99,-2.22 -5.86,1.86 -1.12,0.72 -1.46,-2.53 -0.69,-4.35 -2.13,-4.78 -2.21,-1.25 -6.33,1.96 -2.82,1.37 -3.16,0.63 -5.32,2.59 -2.1,3.99 -3.14,1.8 -6,-0.73 -1.79,-1.18 0,0 7.38,-7.5 3.25,-4.6 4.08,-3.51 5.19,-5.85 3.98,-2.54 9.05,-4.06 16.06,-0.94 12.55,-4.7 19.58,-1.07 z" 
                fill="rgb(151, 144, 238)" 
                stroke="white" 
                stroke-width=".7px"
                title="Yobe" 
                id="NG-YO" 
            />
        </svg>