<svg xmlns="http://www.w3.org/2000/svg" viewBox="146.1416500000001 44.098744999999894 137.3299999999999 146.81999500000003" width="137.3299999999999" height="146.81999500000003">
            <path 
                d="m 258.59165,50.268745 5.45,6.52 5.08,-0.11 3.34,-0.61 0,0 -1.44,10.82 0.99,6.17 -0.07,6.05 1,5.17 0.39,4.75 1.31,3.21 -0.4,3.57 2.5,5.199995 0.69,3.05 -0.13,1.68 0.95,2.47 -1.09,5.16 -1.82,3.63 1.26,1.21 2.53,1.16 2.68,2.29 1.16,1.43 0.5,1.95 -1.89,1.62 -3.34,-0.81 -0.55,3.2 -4.88,3.97 -1.28,-0.87 -6.61,0.13 -1.5,0.84 -0.65,4 -1.56,4.14 -0.45,3.76 0.16,1.07 1.91,1.9 0.9,3.69 -1.25,6.1 -0.02,2.33 0,0 -1.01,-0.03 -2.34,2.38 -2.75,1.77 -0.85,1.14 -1.71,3.41 -0.64,3.55 -1.51,3.23 -3.04,3.1 -2.33,1.51 -4.71,0.62 -7.94,-0.57 -5.64,0.95 -5.27,4.71 -2.86,4.16 -1.28,0.76 -1.68,0.12 0,0 0.07,-0.84 -1.59,-4.09 -3.8,-6.64 -3.32,-4.4 0,0 -0.21,-5.48 -1.38,-7.58 -1.93,-3.01 -5.38,-2.71 0,-1.2 2.05,-6.49 0.01,-2.47 -1.41,-2.15 -4.35,-1.77 -4.85,-0.62 -1.22,0.81 -2.49,0.59 -3.79,-0.5 -5.47,0.76 -3.65,-2.41 -2.87,-0.11 -1.69,-3.3 -1.08,-0.57 -3.61,0.65 -2.09,-0.31 -0.91,-0.64 -0.79,0.15 -1.06,0.62 -0.82,2.32 -6.34,1.46 -4.11,-2.25 -1.82,0 -0.86,0.48 0,0 0.66,-13.78 -0.1,-18.21 0.93,-4.51 0.92,-0.6 9.33,1.67 4.47,-0.33 2.64,0.31 4.8,-0.64 1.28,0.29 6.11,-0.53 2.46,-1.7 0.74,-3.029995 -0.65,-4.25 -1.43,-4.64 -0.06,-2.88 3.07,-1.91 1.88,-1.87 5.83,-8.58 6.09,-0.95 10.02,-0.79 4.04,-1.64 1.35,-1 -0.07,-8.44 -0.78,-5.14 0.11,-0.7 2.11,-1.82 4.85,-1.56 2.79,0 2.7,1.44 0.5,-0.22 0.73,-1.89 0.59,-5.48 4.97,0.19 2.27,0.68 1.7,2.05 1.9,0.66 9.51,1.28 7.1,-4 3.03,-2.6 0,0 z" 
                fill="rgb(151, 144, 238)" 
                stroke="white" 
                stroke-width=".7px"
                title="Zamfara" 
                id="NG-ZA" 
            />
        </svg>