<svg xmlns="http://www.w3.org/2000/svg" viewBox="73.64209899999992 199.53477000000015 112.21000100000003 133.02999999999986" width="112.21000100000003" height="133.02999999999986">
            <path 
                d="m 181.4821,262.88477 -1.27,2.73 -3.26,2.96 0.62,2.59 -0.71,0.7 1.88,2.32 1.29,0.05 0.41,1.23 4.54,3.59 0.48,0.77 -0.62,0.72 1.01,1.64 -0.71,1.33 -1.34,-0.33 -1.48,1.29 0.29,1.34 -0.8,3.7 -2.43,3.7 -0.61,4.63 -2.96,3.46 -1.18,3.69 -0.9,1.11 -0.53,-0.08 -0.19,3.09 0.84,0.42 -1.02,0.92 -2.06,3.92 -0.64,0.35 -1.5,-0.65 -2.26,0.17 0,0 -4.29,-4.78 -2.18,2.52 -1.52,0.61 -1.43,-0.78 -1.01,0.14 -1.76,1.71 -1.84,0.17 -3.01,-0.8 -2.65,0.49 -3.21,-0.21 -1.37,1.39 -4.16,2.15 0.35,-1.13 -0.94,-4.11 -22.85,2.92 -1.43,0.55 -0.74,1.63 -3.21,1.84 -1.69,0.42 -0.83,-0.35 -3.98,3.49 -1.83,0.8 -1.490001,-0.27 -2.08,1.58 -1.26,3.25 -3.13,3.9 -0.32,1.19 -0.95,-1.35 -2.2,-1.04 -2.21,-2.5 -0.74,-4.07 -1.78,-3.08 -0.86,-0.29 0.06,-1.19 -1.21,-0.19 0.18,-2.56 -1.14,0.04 -0.81,-0.66 -1.23,0.44 0,0 -2.87,-3.35 -0.68,-4.01 0.4,-1.17 -1.62,-3.34 0.29,-3.31 1.62,-1.2 -0.23,-1.03 1.12,-1.07 -0.4,-1.14 -1.77,-1.77 0.02,-1.06 -1.25,0.08 -0.61,-1.14 0.94,-3.53 1.18,0.02 0.88,-0.91 -2.3,-1.32 2.72,-4.44 -1.39,-1.42 0.04,-1.28 1.01,-0.19 0.72,-0.72 0.33,-1.62 1.6,-0.76 0.11,-3.08 1.37,-0.28 -0.12,-2.07 0.54,-1.41 1.34,0.48 -0.91,-1.96 0.5,-0.36 1.43,0.78 1.28,-2.81 1.43,-0.4 -1.39,-0.42 -1.96,-1.99 0.63,-0.74 0.03,-1.31 1.61,0.11 0,0 3.07,-0.27 2.36,0.99 1.55,-1.59 1.3,0.6 2.04,-0.05 2.33,-1.32 -1.16,-7.04 0.99,-3.42 1.16,0.02 -1.83,-4.02 -1.07,-1.02 -0.31,-5.73 2.33,-1.1 2.330001,-3.23 -0.13,-3.4 1.47,-0.44 1.25,0.34 0.79,-1.01 1.36,-0.37 0.8,1.05 2.02,0.45 4.82,-3.2 1.39,1.01 1.22,-0.56 0.74,0.64 1.08,-0.83 0.24,-0.99 1.02,-0.74 -1.42,-2.24 -0.04,-1.21 2.32,-8.51 2.43,-1.16 0.88,-1.73 1.2,0.27 2.82,-1.58 4.23,0.39 1.11,1.32 -0.29,1.83 0.85,0.37 -0.3,0.97 0.52,1.26 1.71,-0.38 1.07,0.96 0.63,-0.78 0.18,-1.9 1.68,0.05 1.15,-0.93 0.98,0.06 1.31,-1.64 0.42,-1.66 3.27,-0.83 2.83,-1.8 1.21,-0.39 2.79,0.9 3.77,-0.99 0.66,0.8 0.37,-0.43 1.05,0.61 0.52,-4.98 2.32,-2.39 0,0 3.21,0.26 1.39,-0.73 0.95,0.14 0.77,0.67 0.35,1.83 1.38,0.17 1.06,1.17 -1.84,5.47 0.95,1.36 -0.46,2.9 1.02,1.68 0.64,3.39 1.12,0.54 0.66,1.61 0.01,1.5 1.14,2.3 -0.85,2.02 1.01,1.85 0.61,3.19 0.83,0.91 0.1,1.58 1.98,2.1 -0.38,0.65 1.61,1.46 0.17,0.95 0.97,0.28 -0.43,2.11 -0.97,0.79 0.71,0.3 0.08,0.77 1.41,0.32 0.72,2.26 -0.55,1.21 3.54,5.14 -0.02,1.82 -1.22,1.62 0.78,2.11 z" 
                fill="rgb(151, 144, 238)" 
                stroke="white" 
                stroke-width=".7px"
                title="Bubanza" 
                id="BI-BB" 
            />
        </svg>