<svg xmlns="http://www.w3.org/2000/svg" viewBox="70.11209899999992 309.46477000000044 128.05000100000004 158.80999999999977" width="128.05000100000004" height="158.80999999999977">
            <path 
                d="m 166.3721,314.24477 1.73,2.42 0.08,2.05 1.98,2.2 1.2,0.05 1.66,2.17 1.14,5.82 2.53,3.44 0.12,0.77 -1.1,1.91 -1.91,1.26 -1.03,2.98 2.47,1.32 1.17,2.73 4.05,3.16 1.76,2.25 1.16,2.81 0.83,4.52 0.9,1.18 0.08,1.64 1.01,0.01 2.49,-4.19 3.8,-1.34 0,0 2.87,2.22 0.41,1.27 -1.31,1.45 -1.37,4.34 -1.12,1.28 0.76,2 -1.21,2.72 0.26,1.54 -0.57,1.02 0.8,1.18 1.42,0.73 0.68,1.69 -0.36,1.06 4.14,3.69 0.27,2.91 -0.35,1.18 -4.45,3.19 -1.15,2.27 0.22,3.89 -0.48,0.14 0.22,3.22 -0.76,0.92 0.13,2.51 3.47,0.95 -0.67,5.86 -0.97,0.73 -3.33,-1.05 -0.73,0.9 0.25,0.99 -0.66,1.4 -0.65,0.15 -0.82,1.42 0,0 -1.52,0.79 -1.5,-0.26 -2.94,2.73 0.62,2.66 -0.34,1.05 -1.27,0.5 -3.98,3.78 -0.61,4.53 -3.8,4.72 -0.9,2.31 0.08,2.55 -1.34,2.16 0.32,4.69 -1.13,1.86 0.36,1.34 -1.08,0.72 -0.66,2.16 -0.92,0.6 -2.44,-0.31 -0.19,0.91 -1.08,0.33 -1.28,3.16 0.63,1.82 1.59,1.35 -0.67,1.69 0.38,1.08 -0.64,0.74 -1.68,0 -0.58,1.09 -1.51,-0.19 -1.27,-2.01 -1.31,2.26 -1.49,-0.26 0.14,0.58 -1.16,1.24 -2.95,-0.42 -0.25,0.52 -1.81,-0.61 -0.47,-2.01 -0.8,-0.19 -1.19,1.08 -1.01,-0.27 -1.76,0.99 -1.06,1.21 -0.21,1.47 -0.69,0.6 -1.42,-0.19 -0.81,1.18 -0.93,-1.04 -1.18,0.14 -0.28,-1.26 -0.48,0.89 -1.57,0.32 -3.46,-0.85 -4.02,1 -1.77,-0.98 -9.2,1.53 -1.52,-0.57 -2.11,0.79 -3.2,-0.05 -4.53,1.35 -2.17,0.1 0,0 -0.54,-5.05 1.1,-1.83 2.2,-1.88 -0.04,-3.14 1.11,-1.27 1.41,-3.47 -0.23,-0.69 1.49,-2.36 0.15,-2.78 1.85,-3.76 -0.65,-1.52 1.43,-2.91 0.9,-4.73 -0.14,-2.14 1.71,-1.32 -0.52,-1.21 1.13,-2.5 -1.05,-4.12 -1.04,-1.86 0.06,-2.71 1.65,-1.28 0.52,-3.94 -2.1,-2.07 0.15,-1.51 -1.91,-2.34 0.34,-1.54 -0.63,-1.46 0.93,-3.92 -1.06,-2.25 2.57,-6.1 -1.61,-2.3 -1.86,-0.83 0.11,-0.67 0,0 0.93,0.52 1,-0.95 1.09,0.47 1.1,-0.84 1.06,0.47 3.44,-1.12 1.27,-1.08 1.67,1 1.91,-0.22 -0.79,-0.37 -0.71,-4.18 1.2,-1.61 0.26,-2.85 -1.8,-1.93 1.19,-6.72 4.03,0.81 3.67,-1.16 0.24,-0.5 -1.45,-0.22 -1.46,-1.08 -2.09,0.19 0.61,-2.14 -0.7,-0.99 1.69,-0.33 -1.46,-2.33 -0.01,-0.9 0.57,-1.22 1.88,-0.4 3.66,1.04 0.81,1.33 0.02,-2.28 -0.71,-1.14 0.95,-0.78 -1.19,-3.1 0.86,0.18 1.53,-5.34 -0.56,-5.81 1.72,-2.76 3.05,-1.45 -0.28,-1.25 1.64,-0.68 0.29,-0.73 -2.78,-1.8 -8.1,-2.3 -4.03,0.75 -4.36,-1.38 -2.81,0.27 -4.16,-1 -1.29,0 -4,5.25 -2.48,-6.85 -3.95,0.58 1.94,11.7 -0.64,0.26 0.74,2.31 -7.700001,-1.11 -1.95,0.23 1.01,0.82 0,0 -2.44,2.47 1.05,0.33 -1.05,1.08 -3.76,-0.57 -0.94,-0.84 -0.65,0.69 -1.87,-0.59 -10.49,-0.15 -1.58,-0.6 7.01,0.2 2.95,-0.6 1.05,-0.4 0.48,-1.21 -0.04,-0.94 -0.77,-0.66 -2.54,-0.22 -3.59,0.84 -1.2,-0.46 -0.29,1.69 -2.24,-1.69 -0.53,0.38 -1.37,-0.71 -0.4,0.49 -1.21,-0.49 -1.01,1 -0.87,-2.13 0.88,-1.67 1.23,-0.39 0.37,-0.81 -0.98,-1.25 0.06,-1.98 -1.44,-2.88 -0.08,-4.7 0.53,-0.78 1.47,-0.06 0.82,-0.88 2.13,-0.16 0.37,-2.4 3.63,-2.28 -0.6,-1.76 1.12,-0.89 0,0 1.23,-0.44 0.81,0.66 1.14,-0.04 -0.18,2.56 1.21,0.19 -0.06,1.19 0.86,0.29 1.78,3.08 0.74,4.07 2.21,2.5 2.2,1.04 0.95,1.35 0.32,-1.19 3.13,-3.9 1.26,-3.25 2.08,-1.58 1.490001,0.27 1.83,-0.8 3.98,-3.49 0.83,0.35 1.69,-0.42 3.21,-1.84 0.74,-1.63 1.43,-0.55 22.85,-2.92 0.94,4.11 -0.35,1.13 4.16,-2.15 1.37,-1.39 3.21,0.21 2.65,-0.49 3.01,0.8 1.84,-0.17 1.76,-1.71 1.01,-0.14 1.43,0.78 1.52,-0.61 2.18,-2.52 z" 
                fill="rgb(151, 144, 238)" 
                stroke="white" 
                stroke-width=".7px"
                title="Bujumbura Rural" 
                id="BI-BL" 
            />
        </svg>