<svg xmlns="http://www.w3.org/2000/svg" viewBox="95.40209899999999 327.30477000000013 45.57000100000002 60.02999999999997" width="45.57000100000002" height="60.02999999999997">
            <path 
                d="m 110.8421,386.81477 -0.76,-3.46 0.54,-0.92 1.48,-0.4 1.8,-4.04 -0.26,-1.08 0.63,-2.24 -0.71,-2.77 1.18,-1.59 0.12,-1.04 -1.81,-3.22 0.4,-4.4 0.27,-0.68 0.96,0.19 0.83,-1.47 -0.44,-2.23 0.96,-1.36 -0.09,-2.19 -2.79,-3.7 -1.28,-0.39 1.01,-0.63 0.2,-1.7 -1.02,-1.4 -2.67,-0.9 -0.78,0.39 -0.76,-1.13 -5.21,-1.78 -6.230001,-0.58 0,0 -1.01,-0.82 1.95,-0.23 7.700001,1.11 -0.74,-2.31 0.64,-0.26 -1.94,-11.7 3.95,-0.58 2.48,6.85 4,-5.25 1.29,0 4.16,1 2.81,-0.27 4.36,1.38 4.03,-0.75 8.1,2.3 2.78,1.8 -0.29,0.73 -1.64,0.68 0.28,1.25 -3.05,1.45 -1.72,2.76 0.56,5.81 -1.53,5.34 -0.86,-0.18 1.19,3.1 -0.95,0.78 0.71,1.14 -0.02,2.28 -0.81,-1.33 -3.66,-1.04 -1.88,0.4 -0.57,1.22 0.01,0.9 1.46,2.33 -1.69,0.33 0.7,0.99 -0.61,2.14 2.09,-0.19 1.46,1.08 1.45,0.22 -0.24,0.5 -3.67,1.16 -4.03,-0.81 -1.19,6.72 1.8,1.93 -0.26,2.85 -1.2,1.61 0.71,4.18 0.79,0.37 -1.91,0.22 -1.67,-1 -1.27,1.08 -3.44,1.12 -1.06,-0.47 -1.1,0.84 -1.09,-0.47 -1,0.95 z" 
                fill="rgb(151, 144, 238)" 
                stroke="white" 
                stroke-width=".7px"
                title="Bujumbura Mairie" 
                id="BI-BM" 
            />
        </svg>