<svg xmlns="http://www.w3.org/2000/svg" viewBox="435.6620999999996 192.23477000000005 176.5899999999994 165.86999999999992" width="176.5899999999994" height="165.86999999999992">
            <path 
                d="m 541.0921,346.60477 -3.7,1.48 -1.5,1.52 -2.74,0.35 -2.63,1.13 -3.16,2.06 -0.57,1.43 -4.83,3.53 -0.58,-0.5 1,-2.44 -0.51,-0.69 0.36,-2.28 -0.7,-0.8 0.27,-0.6 -6.47,-2.28 -3.1,-6.06 -5.79,-1.39 -3.43,0.97 -0.31,-2.47 0.54,-4.47 4.25,-2.99 2.33,0.4 0.71,-0.64 -3.56,-1.15 -0.31,-0.81 -2.51,-0.95 -0.48,-1.61 -2.64,0.45 -0.29,-0.78 -2.32,0.78 0.22,-0.94 -2,0.05 -1.57,-1.14 -1.41,1.03 -1.33,3.42 -0.83,0.59 -3.31,-0.15 -1.43,-1.54 -2.88,0.06 -0.83,-2.96 -3.34,-3.78 0.75,-0.67 -2.67,-2.1 1.24,-4.52 -0.31,-2.51 -3.59,-1.47 -2.8,-5.23 -4.01,-1.65 -2.18,0.56 -0.7,-1.09 -1.34,-0.36 -1.72,-2.72 -3.47,2.67 -0.22,-1.51 -4,-3.39 -0.04,1.68 -0.47,0.35 -2.5,-4.96 -4.05,1.89 -5.16,-0.83 -1.35,1.43 -2.51,1.28 -1.31,-0.16 -1.64,-3.64 0.31,-2.15 1.33,-0.92 -0.49,-2.81 0,0 0.53,-1.06 1.12,-0.5 -0.67,-1.74 0.78,-1.32 2.37,-2.21 3.37,0.06 0.18,-1.23 -0.58,-1.44 2.81,-1.91 0,0 3.26,0.77 0.7,0.7 0.96,-0.53 0.26,-1.14 -0.92,-1.39 0.38,-2.4 -1.47,-1.62 1.95,-0.06 0.6,-0.72 -0.23,-1.09 2.92,-0.29 1.15,-2.6 0.81,0.09 0.57,-0.95 -0.18,-0.6 -1.29,-0.29 0.57,-2.16 1.61,0.67 1.08,-0.57 -0.5,-1.34 -1.99,-2.1 -0.72,-2.34 -0.85,-0.64 0.04,-1.2 1.54,-0.88 -0.22,-1.1 1,-1.88 2.11,-1.43 2.38,-0.11 0.91,-1.09 2.55,0.06 0.16,-1.05 -0.89,-1.23 1.93,-1.63 0.98,0.66 2.43,-0.36 0.66,-2.88 -0.79,-2.65 0.71,-1.07 -1.49,-3.74 1.53,-1.42 0.53,-1.4 1.51,0.15 -0.14,-1.31 0.75,-1.37 -0.31,-1.26 1.6,-1.07 0.77,0.37 0.87,-1.21 0.6,1.32 1.46,-0.82 0.07,-2.66 -0.55,-0.5 0.4,-1.7 2.54,0.22 1.14,1.4 0.81,0.1 0.46,-1.14 0.43,0.36 1.91,-0.46 0.19,-0.77 1.56,-0.66 0.3,-4.84 0.98,-0.55 0.2,-0.77 2.61,-0.52 -0.07,-0.89 -1.54,-2.04 2.68,-1.16 -0.54,-0.99 0,0 1.95,-0.04 4.12,1.58 3.45,-3.14 2.26,-0.58 2.98,-3.7 2.54,0.74 4.56,-7.03 4.01,-3.76 -0.21,-1.63 3.11,-0.69 1.27,0.43 1.21,1.82 0.18,1.65 1.81,0.45 0.29,2.02 2.51,0.51 1.3,2.87 2.05,-0.54 2.25,1.54 2.25,0.3 3.95,3.73 3.02,3.9 2.15,1.2 -0.41,5.07 1.27,2.28 2.16,0.9 2.31,3.17 2.26,1.77 3,-1.98 2,-1.9 0.11,-1 2.55,-1.78 1.67,0.08 2.11,-1.23 1.51,0.53 2.04,2.78 -0.42,0.2 1.52,1.2 0.76,-0.18 1.77,2.14 1.7,-0.24 2.19,0.53 1.77,1.8 1.33,0.33 5.83,-1.43 2.09,0.66 4.29,-1.63 5.36,-0.53 0.65,-0.54 1.06,0.36 2.7,-2.14 4.23,-0.41 3.26,-1.45 0.95,0.07 0.9,1 0.77,-0.42 1.8,0.64 -1.48,1.29 -0.53,1.52 -1.2,0.33 -1.08,2.4 0.32,0.62 -3.85,4.23 -1.42,4.11 -1.76,1.52 0.43,1.19 -1.12,3.65 -6.49,3.73 2.07,3.1 0.18,1.49 2.39,1.32 1.53,2.98 5.22,0.91 2.24,3.48 -1.34,2.95 -0.03,2.67 0.56,0.95 -1.42,3.93 0.16,0.8 -1.6,3.41 -2.49,2.48 1.17,1.15 4.24,-2.37 3.84,6.41 0.28,0.88 -2.77,9.03 3.27,4.72 -2.26,0.13 -4.48,2.3 -2.31,-0.29 -1.74,1.8 -0.71,1.71 2.48,4.41 0.03,1.08 1.63,1.92 3.76,2.12 1.82,0.29 -4.48,3.15 -4.11,0.93 -1.91,1.38 -2.79,0.89 -1.52,1.87 -6.06,1.05 -1.75,1.17 -2.81,0.85 -1.01,1.06 -1.71,0.33 -3.35,-1.94 -1.03,-5.84 -2.05,-0.12 -2.63,1.94 -0.04,4.12 -2.2,2.69 -0.8,2.25 -2.23,0.76 -2.29,1.74 -1.57,0.1 -5.73,2.43 -3.58,0.99 -2.36,-0.27 -1.95,2.88 -0.18,1.25 -3.97,3.94 -0.33,1.22 -3.09,1.98 z" 
                fill="rgb(151, 144, 238)" 
                stroke="white" 
                stroke-width=".7px"
                title="Cankuzo" 
                id="BI-CA" 
            />
        </svg>