<svg xmlns="http://www.w3.org/2000/svg" viewBox="0.2520986799999056 92.8947709999998 160.40000132 168.79999900000013" width="160.40000132" height="168.79999900000013">
            <path 
                d="m 142.4921,163.10477 1.03,1.18 -0.49,0.57 0.19,1.18 1.45,0.36 2.1,-0.72 3.26,4.92 -0.36,3.78 1.64,2.16 -0.65,1.37 0.62,3.15 1.28,2.51 2.14,2.13 -0.95,2 0.43,1.69 0.92,0.23 1.44,1.71 0.43,4.09 1.69,1.15 1.99,3.44 0,0 -2.32,2.39 -0.52,4.98 -1.05,-0.61 -0.37,0.43 -0.66,-0.8 -3.77,0.99 -2.79,-0.9 -1.21,0.39 -2.83,1.8 -3.27,0.83 -0.42,1.66 -1.31,1.64 -0.98,-0.06 -1.15,0.93 -1.68,-0.05 -0.18,1.9 -0.63,0.78 -1.07,-0.96 -1.71,0.38 -0.52,-1.26 0.3,-0.97 -0.85,-0.37 0.29,-1.83 -1.11,-1.32 -4.23,-0.39 -2.82,1.58 -1.2,-0.27 -0.88,1.73 -2.43,1.16 -2.32,8.51 0.04,1.21 1.42,2.24 -1.02,0.74 -0.24,0.99 -1.08,0.83 -0.74,-0.64 -1.22,0.56 -1.39,-1.01 -4.82,3.2 -2.02,-0.45 -0.8,-1.05 -1.36,0.37 -0.79,1.01 -1.25,-0.34 -1.47,0.44 0.13,3.4 -2.330001,3.23 -2.33,1.1 0.31,5.73 1.07,1.02 1.83,4.02 -1.16,-0.02 -0.99,3.42 1.16,7.04 -2.33,1.32 -2.04,0.05 -1.3,-0.6 -1.55,1.59 -2.36,-0.99 -3.07,0.27 0,0 -1.46,-0.29 -2.15,-1.72 2.39,-0.33 -0.64,-1.66 1.66,-0.53 0.27,-1.43 -1.51,-1.89 0.68,-0.66 0.7,0.61 -0.65,-1.21 1.32,-1.99 -1.24,0.03 -0.08,-0.9 -1.8,-0.89 -0.04,-0.91 1.65,-0.37 -0.97,-1.17 0.77,-0.98 -4.77,-3.53 0.53,-1.64 -2.45,-0.27 -0.8,-1.01 1.39,-1.19 0.13,-1.18 -2.33,0.28 -1.34,-1.86 -1.62,0.81 -1.64,-0.43 -2.43,0.25 -0.85,-0.52 -0.41,0.67 -0.91,-0.3 -1.87,-1.93 -0.84,-2.38 -2.61,0.03 -0.49,-1.76 0.53,-1.05 -2.6,-2.76 -0.97,1.17 -1.34,0.51 -0.82,-0.27 -0.66,-1.15 1.84,-3.56 -1.87,-3.62 0.97,-1.02 -0.85,-1.15 0.55,-1.59 -2.17,-0.96 -0.33,-1.09 -0.69,0.32 -1.07,-0.8 0.09,-0.83 -0.8,-0.85 -0.7,0.78 -2.65,-0.78 -0.98,-2.26 -2.47,-1.32 -1.22,-1.96 -2.06,0.29 -3.3,-1.75 -0.78,-0.97 -0.73,-0.06 -1.04,0.93 -1.07,-0.44 -0.42,-1.08 -1.11,-0.03 -2.6,-6.34 0.29,-3.65 1.46,-2.59 -0.41,-2.05 -0.95,-1.66 -1.35,0.74 -0.78,-1.23 -2.13,-0.64 -0.57,-1.26 -2,0.15 -0.48,-1.29 0.79,-0.87 -1.54,-1.15 1.03,-1.55 -0.59,-1.26 -0.9,0.12 -1.24,-1.15 0.23,-1.44 -0.53,-1.24 -0.88,-1.6 -1.71,-1.01 -0.55,-2.13 -1.28,-0.14 -2.03,1.39 -4.0800003,0.92 -1.69,-1.66 -1.95,0.19 -2.05,-0.79 -1.53,-1.02 -1.40000002,-2.11 -0.46,-6.63 0.71,-2.9 1.61000002,-0.84 1.45,-1.95 2.27,-1.17 2.69,-3.06 1.7500003,-0.5 2.06,0.54 1.1,-8.49 -0.31,-1.85 0.47,-0.14 -0.43,-0.46 0.86,-1.13 0.44,0.35 0.6,-1.42 2.86,-3.08 -0.12,-1.52 -1.42,-0.44 -0.43,-0.94 0.91,-1.18 -0.64,-1.8 1.48,-0.19 -0.12,-1.06 -0.8,0.19 -1.51,-0.85 0.59,-0.87 0.96,0.22 1.38,-0.7 0.31,-1.65 -0.15,-0.49 -1.63,0.03 -0.62,-1.27 -1.19,-0.57 0.9,-0.83 -0.41,-1.33 1.42,-2.67 0.76,0.03 0.03,-1.45 0.89,0.16 1.23,-0.91 -0.41,-0.03 -0.12,-1.28 -1.86,-1.85 0.24,-2.42 -0.73,-2.64 0.32,-1.88 1.68,-0.61 -0.09,-2.229999 1.34,-2.88 3.48,0.52 2.85,-2.78 2.15,-1.02 1.83,-0.19 1.17,1.67 4.1,-0.66 1.26,0.88 1.11,-0.15 0.01,0.74 1.35,0.63 0.53,0.92 0.86,0.04 0.14,1.29 1.03,0.78 2.31,-1.82 1.36,0.34 0.64,-0.53 -0.72,-1.7 1.94,-1.36 1.07,0.04 0.13,-0.98 0.64,-0.18 0.54,1.43 0.63,-0.37 0.73,0.69 2.34,-0.49 0,1.58 2.04,1.02 0.12,1.33 0.9,0.18 0.74,0.96 0.1,1.719999 2.53,-0.62 0.37,-0.869999 1.18,-0.4 0.7,1.139999 -0.88,0.78 3.7,0.61 2.04,-0.81 1.78,2.32 1.32,-0.43 0.92,1.48 1.11,0.29 0.3,1.88 0.87,-0.12 0,-0.93 1.17,-1.15 1.38,1.19 1.51,-0.46 0.15,-1.05 1.17,0.91 0.26,-0.86 1.43,-0.54 0.47,0.66 0.52,-0.94 1.03,1.66 0.95,-1.32 3.27,-1.6 0.8,0.09 0.91,1.75 2.53,-0.41 0.52,0.85 1.51,0.31 0.85,1.77 3.15,2.97 5.860001,1.42 2.64,2.48 1.57,-0.23 1.66,2.06 -0.11,0.7 1.16,1.13 -0.05,1.3 0.92,0.84 -0.1,1.5 -1.87,2.65 -0.65,2.14 0.68,0.73 1.47,-0.43 1.09,1.03 0.76,2.04 1.55,1.12 1.88,-0.63 0.3,3.94 -0.93,1.33 -0.01,1.03 0.48,1.38 0.73,0.12 -0.19,2.99 0.44,0.57 -3.73,2.72 -2.1,0.51 -0.4,0.91 2.57,1.64 -0.99,3.74 1.94,0.26 1,1.32 1.14,-0.36 -0.82,2.87 1.87,2.11 1.05,3.4 -0.8,1.33 -0.91,0.4 0.08,1.73 2.28,2.31 1.01,2.47 -0.42,1.67 1.34,1.25 -0.78,1.75 1.67,-0.28 1.1,2.56 1.78,-0.56 -0.11,-2.01 1.2,-0.22 1.59,-3.06 1.33,-0.48 0.27,-0.65 2.11,-0.69 0.25,0.98 1.07,0.79 2.59,-2.34 1.58,-0.13 2.15,-1.8 z" 
                fill="rgb(151, 144, 238)" 
                stroke="white" 
                stroke-width=".7px"
                title="Cibitoke" 
                id="BI-CI" 
            />
        </svg>