<svg xmlns="http://www.w3.org/2000/svg" viewBox="237.5521000000002 246.81477000000018 128.13999999999996 258.89999999999975" width="128.13999999999996" height="258.89999999999975">
            <path 
                d="m 306.3221,256.23477 -0.35,2.94 -1.57,0.31 -1.86,2 -0.65,4.31 0.8,1.16 -1.04,1.39 -0.87,-0.34 -0.74,1.83 0.67,0.91 -1.01,0.38 -2.88,3.88 0.35,1.79 1.12,0.32 -0.76,1.3 1.06,2.7 -0.35,1.46 0.68,3.31 2.67,1.23 0.66,-0.3 0.68,0.94 0.86,-0.25 0.14,0.4 1.27,-0.89 0.57,0.36 1.94,-1.48 -0.21,-0.74 1.41,-0.44 1.02,-1.03 0.91,-1.89 1.67,0.49 -0.51,-2.05 0.84,-1.33 5.11,1.13 0.97,2.73 0.48,-0.4 -0.28,0.96 1.77,2.84 1.72,1.49 1.7,4.11 4.47,3.7 1.13,-0.42 -0.53,1.19 0.18,2.26 1.32,2.64 1.68,-0.32 2.71,0.51 0.3,0.22 -0.83,0.75 2.25,2.1 1.61,0.57 -1.2,0.23 -1,1.66 1.13,0.4 0.13,1.11 0.56,-0.71 2.19,2.17 -0.2,0.95 -0.92,0.25 -0.01,0.88 -0.98,0.09 -0.13,0.58 0.25,0.97 1.3,0.34 -0.34,2.87 -0.59,0.42 0.78,1.38 -1.06,2.31 1.25,1.82 -0.55,-0.24 -3.92,2.89 0.14,1.26 -2.73,1.99 0.08,1.29 -0.84,0.27 -0.78,-0.98 -0.24,2.16 0.84,2.78 -1.19,1.85 -0.09,2.2 -0.56,0.93 -1.29,-0.14 -0.54,3.32 -2.07,-0.75 -1.24,2.1 1.12,2.24 2.85,1.03 0.25,1.5 2.62,0.72 0.33,1.14 1.61,1.39 0.05,0.77 0.85,-0.08 -0.18,3.65 1.17,1.17 3.03,-0.75 -0.13,-1.37 -0.97,-0.15 0.22,-0.33 2.72,-2.35 4.5,-2.21 0,0 -0.1,1.18 1.55,0.01 0.06,0.91 -0.59,0.45 0.65,0.28 -0.23,1.61 0.94,0.46 -0.31,1.33 3.07,1.68 -0.35,2.18 0.65,1.53 1.03,-0.08 0.3,1.21 1.08,0.46 0.24,1.04 4.47,3.09 0.48,2.19 0.56,0.23 -0.85,1.49 -0.78,0.12 -2.06,1.93 -1.65,3.75 0.29,0.96 -0.89,2.33 0.41,0.84 -1.62,0.86 -1.1,1.88 -0.48,-0.29 -0.54,0.59 3.97,5.86 0.63,3.01 -0.29,1.57 1.29,1.93 -0.55,0.84 0.26,0.5 2.03,1.35 2.32,2.93 0.54,2.14 -1.55,1.01 0.52,0.08 -0.47,2.26 0.87,1.65 -0.07,1.07 1.14,1.17 0.23,1.59 3.11,3.52 -0.71,2.46 1.21,2.18 1.23,0.21 -0.41,1.17 1.13,0.35 -0.3,3.85 0.51,1.51 -2.16,2.93 0.18,0.8 -0.63,0.89 0.4,2.95 0,0 -0.4,0.57 0.51,0.82 -2.19,3.34 0.31,5.67 -3.95,2.05 -1.59,3.86 -1.6,1.1 0.13,1.28 -1.32,0.51 -0.5,2.35 -2.12,1.63 0.25,0.79 -0.67,1.13 -2.67,0.52 -1.25,-0.65 -2.01,0.88 -2.62,-0.15 -0.07,1.05 -0.71,0.64 -2.53,0.58 -0.8,1.01 -5.83,1 -3.65,2.98 -0.17,1.91 -2.55,1.69 -3.16,3.31 0.32,1.33 2.29,0.66 5.34,3.2 -0.23,1.14 -2.24,1.24 -2.69,-0.03 -3.71,2.52 -2.7,0.58 -0.49,0.7 -1.07,-0.09 -1.25,1.25 -1.56,-0.11 -0.21,0.85 -0.7,0.2 -0.43,2.11 0.55,0.7 -1.44,1.32 -0.22,1.35 -1.96,2.58 3.46,3.07 -0.43,3.21 0.76,0.81 -1.09,1.26 -1.19,0.01 -1.96,-1.56 -1.59,0.44 -1.71,-0.86 -2.61,-3.9 0.17,-2.14 -0.55,-0.09 0,0 -0.52,-1.48 -3.43,-0.79 -0.75,-3.56 -0.65,-0.52 -4.21,0.11 -8.49,-2.74 0.13,-3.42 -2.52,0.48 -0.64,-0.48 -0.58,-1.55 1.82,-2.07 0.14,-1.11 -0.81,-1.22 0.91,-3.21 -1.81,-1.76 -2.79,-0.63 -1.91,-1.25 0.66,-3.31 -0.06,-2.43 -0.5,-0.09 -0.98,0.67 -0.68,-0.2 -2.57,4.33 -1.08,6.41 -1.07,1.28 -1.95,-0.2 -1.75,1.05 0.69,0.38 -0.22,1.09 0.67,0.54 -0.72,0.62 0.71,1.67 -1.38,1.73 -1.87,4.18 -3.45,3.01 -0.89,2.17 -2.68,3.42 -1.41,0.15 -0.65,1.02 -0.84,0.21 -3.51,-1.23 -1.57,0.65 -1.35,-0.5 -0.35,-1.31 0.59,-2.38 1.38,-2.51 -0.38,-2.32 2.17,-3.55 -0.36,-1.98 0.67,-5.26 2.49,-3.04 -0.32,-1.54 0.68,-2.71 -0.42,-1.93 1.46,-5.98 0.21,-5.14 0.7,-3.73 1.31,-2.55 -0.16,-0.82 -1.14,-0.8 -0.07,-1.83 1.26,-2.3 -0.67,-1.94 -2.98,-1.58 -1.56,-1.74 -0.47,-1.44 -2.31,-0.57 -2.45,2.92 -2.21,0.35 -2.71,-0.99 -4.17,0.14 0,0 0,0 0,0 -1.26,-1.76 0.2,-0.83 1.91,-1.82 1.85,-0.79 2.51,-3.66 2.7,-1.8 1.11,0.31 1.22,-0.86 0.86,0.4 2.7,-0.68 1.59,0.5 1.06,-0.56 1.9,0.79 0.13,-0.74 1.42,-0.66 0.47,1.22 1.21,-0.48 1.94,2.58 3.59,0.23 0.4,-2.78 -2.6,-1.14 -0.04,-2.61 -1.61,-0.77 -0.37,-0.76 0.61,-0.48 -0.12,-0.68 -0.45,-0.03 -0.84,-3.69 -0.79,0.02 -0.4,-1.21 0.56,-1.19 -1.43,-0.9 -1.12,-2.28 -0.75,-0.32 -2.27,-3.28 0.72,-4.77 1.49,-1.47 0.95,-0.06 0.35,-1.79 2.86,0.15 -0.05,-1.07 1.05,-0.73 -0.24,-0.7 1.08,0.31 0.36,-0.55 -0.46,-0.61 0.9,-0.38 0.83,0.66 1.85,-1.44 5.85,2.19 0.08,-0.58 1.68,-1.05 1.57,0.41 0.73,-0.58 1.74,0.21 0.14,-1.64 2.78,-1.74 -0.36,0.07 1.02,-2.06 -0.1,-2.55 0.65,-2.34 -0.45,-0.87 0.21,-2.22 1.86,-0.09 -0.86,-0.94 0.62,-0.96 -1.3,-0.29 0.24,-1.3 -0.8,-0.9 1.67,-1.51 -0.45,-2.13 0.58,-0.17 0.07,-1.32 1.65,-0.31 -1.73,-1.23 -0.11,-0.39 1.38,-0.3 -1.29,-1.09 1.29,-1.03 -2.38,-2.11 0.01,-0.77 1.61,-2.47 -0.2,-1.35 0.95,-0.39 -0.45,-0.89 0.34,-1.76 1.17,-0.92 1.57,0.23 0.94,-0.45 0.24,0.43 1.07,-1.52 -0.58,-0.71 -1.65,-0.42 1.8,-0.97 -0.53,-2.12 -5.47,-2.42 0.47,-1.05 -1.69,-1.12 -0.16,-0.75 -2.26,-0.27 -1.16,0.8 -0.97,-1.09 -2.14,-0.02 -2,-2.34 0.66,-2.08 1.72,-0.2 0.78,-1.41 -0.25,-0.87 1.21,-0.58 -0.16,-1.75 0.83,-0.26 -0.34,-0.4 0.41,-0.65 -3.59,-3.24 0.06,-1.03 -3.69,-2.15 -0.36,-0.86 0.39,-0.9 -0.91,-2.18 -5.33,0.1 -1.27,-3.29 -0.76,-0.64 -2.2,0.45 -1.22,-0.71 0,0 -1.02,-3.08 2.61,-2.56 -0.06,-0.56 2.82,-1.71 1.16,-2.01 3.28,-3.02 0.07,-1.44 1.11,-2.22 1.38,-0.44 0.17,-0.85 3.02,-2.06 1.78,0.81 0.18,-0.79 0.67,0.26 0.86,-0.52 1.33,0.55 1.3,-0.21 1.43,-0.63 0.59,-0.89 -4.74,-2.91 -4.95,-0.66 -4.73,-5.95 0.23,-2.56 0,0 1.28,-4.65 5.62,-4.64 3.59,-4.47 2.98,-1.29 0.46,-2.09 -0.1,-5.94 -1.88,0.58 -3.51,-2.43 -2.12,-0.49 -0.25,-1.72 -0.77,-0.38 -0.8,-1.94 0.04,-3.01 2.46,-1.48 5.27,-6.99 2.02,-1.16 1.25,-1.91 2.13,-0.4 0,0 5.86,-0.85 2.67,1.33 0.7,1 3.08,0.15 2.49,3.17 1.64,3.68 2.63,-0.76 0.54,0.74 z" 
                fill="rgb(151, 144, 238)" 
                stroke="white" 
                stroke-width=".7px"
                title="Gitega" 
                id="BI-GI" 
            />
        </svg>