<svg xmlns="http://www.w3.org/2000/svg" viewBox="296.8220999999998 195.96477000000007 149.9000000000002 161.18000000000015" width="149.9000000000002" height="161.18000000000015">
            <path 
                d="m 446.7221,278.25477 -2.81,1.91 0.58,1.44 -0.18,1.23 -3.37,-0.06 -2.37,2.21 -0.78,1.32 0.67,1.74 -1.12,0.5 -0.53,1.06 0,0 -1.58,-0.08 -2.43,1.93 -2.61,-0.93 -0.39,1.01 0.25,3.6 -3.44,0.79 -3.95,4 -2.52,1.37 -2.58,3.52 -1.2,0.46 -0.07,2.23 -1.76,0.55 -1.74,2.07 0.94,1.05 -0.52,1.53 -0.76,-0.03 -0.56,1.42 -4.59,5.05 1.17,1.77 0.51,2.82 -2.26,0.85 -0.38,-0.71 -0.47,0.4 -0.64,-0.89 -2.22,-0.73 -0.4,0.41 0.79,2.36 -0.06,2.06 -1.61,0.93 -0.39,0.85 -0.6,-0.83 -1.54,-0.39 -1.12,1.39 -1.22,-0.03 -1.97,1.89 0.77,1.86 0.1,1.84 -0.48,0.34 -1.52,-0.59 -0.21,0.54 -3.33,0.58 -0.98,-0.6 -0.57,-2.14 -3.07,-0.21 -0.25,1.43 1.09,0.88 1.11,-0.21 0.25,1.11 -0.67,0.5 -3.26,-0.48 -0.47,0.9 0.63,1.42 -0.24,0.88 -2.5,-1.87 -1.55,0.03 -0.43,-0.47 -0.38,1.12 -3.21,1.72 -0.61,-0.1 -0.46,-1.24 -0.93,0.3 0.23,1.47 -1.14,1.29 -3.61,-2.73 -1.78,0.77 -1.93,-0.48 1.02,0.99 -1.19,2.14 -0.89,-0.91 -2.32,-0.58 -1.94,1.35 -1.67,-0.46 -2.14,1.74 -4.92,0.47 -0.27,-0.97 -0.94,0.1 0.44,0.83 -0.81,1.73 0.14,1.83 -1.5,0.51 -2.03,-1.03 -0.41,2.62 -1.24,0.47 0,0 -4.5,2.21 -2.72,2.35 -0.22,0.33 0.97,0.15 0.13,1.37 -3.03,0.75 -1.17,-1.17 0.18,-3.65 -0.85,0.08 -0.05,-0.77 -1.61,-1.39 -0.33,-1.14 -2.62,-0.72 -0.25,-1.5 -2.85,-1.03 -1.12,-2.24 1.24,-2.1 2.07,0.75 0.54,-3.32 1.29,0.14 0.56,-0.93 0.09,-2.2 1.19,-1.85 -0.84,-2.78 0.24,-2.16 0.78,0.98 0.84,-0.27 -0.08,-1.29 2.73,-1.99 -0.14,-1.26 3.92,-2.89 0.55,0.24 -1.25,-1.82 1.06,-2.31 -0.78,-1.38 0.59,-0.42 0.34,-2.87 -1.3,-0.34 -0.25,-0.97 0.13,-0.58 0.98,-0.09 0.01,-0.88 0.92,-0.25 0.2,-0.95 -2.19,-2.17 -0.56,0.71 -0.13,-1.11 -1.13,-0.4 1,-1.66 1.2,-0.23 -1.61,-0.57 -2.25,-2.1 0.83,-0.75 -0.3,-0.22 -2.71,-0.51 -1.68,0.32 -1.32,-2.64 -0.18,-2.26 0.53,-1.19 -1.13,0.42 -4.47,-3.7 -1.7,-4.11 -1.72,-1.49 -1.77,-2.84 0.28,-0.96 -0.48,0.4 -0.97,-2.73 -5.11,-1.13 -0.84,1.33 0.51,2.05 -1.67,-0.49 -0.91,1.89 -1.02,1.03 -1.41,0.44 0.21,0.74 -1.94,1.48 -0.57,-0.36 -1.27,0.89 -0.14,-0.4 -0.86,0.25 -0.68,-0.94 -0.66,0.3 -2.67,-1.23 -0.68,-3.31 0.35,-1.46 -1.06,-2.7 0.76,-1.3 -1.12,-0.32 -0.35,-1.79 2.88,-3.88 1.01,-0.38 -0.67,-0.91 0.74,-1.83 0.87,0.34 1.04,-1.39 -0.8,-1.16 0.65,-4.31 1.86,-2 1.57,-0.31 0.35,-2.94 0,0 0.57,0.1 0.54,-0.99 1.37,-0.72 1.92,-0.49 0.08,-2.62 -1.09,-2.24 1.29,-1.99 0.44,0.26 2.61,-1.3 3.67,0.67 2.49,-1.55 0.18,-1.99 2.52,-4.16 0.64,-2.57 2.42,-3.12 0.1,-2.24 1.21,-1.22 3.13,-1.13 3.1,-2.32 2.61,-3.84 1.57,-0.32 2.18,1.27 2.57,0.21 1.6,-0.35 3.19,-2.83 5.76,0.92 1.47,-0.56 2.97,0.09 3.39,-1.46 3.46,-3.28 6.98,-4.77 5.72,-1.87 3.25,-2.21 3.04,-2.69 2.51,-3.73 3.59,-3.89 0,0 12.91,-1.34 4.03,2.72 2.18,0.14 1.04,1.12 2.39,1 1.84,3.32 2.53,1.5 2.32,2.92 1.17,0.45 3.23,4.7 0.33,1.61 -0.77,0.95 -0.28,3.2 0.6,4.29 -0.88,2.95 0.84,2.8 -1.55,6.97 0.8,1.4 -2.12,4.86 -0.03,2.33 -3.67,3.98 -0.49,1.7 -2.61,3.75 -0.21,2.16 -3.08,3.1 -2.4,4.8 -0.21,1.1 0.7,1.75 2.49,1.82 0.14,2.5 1.68,1.44 0.96,0.05 0.17,-0.45 1.53,0.62 1.11,0.79 1.73,3 2.67,0.2 0.7,0.88 2.69,-0.32 4.07,-2.69 2.75,-0.83 1.84,0.02 2.66,1.27 0.04,2.31 1.88,0.83 1.25,-0.04 2.88,-2.46 1.24,0.12 1.26,-0.98 z" 
                fill="rgb(151, 144, 238)" 
                stroke="white" 
                stroke-width=".7px"
                title="Karuzi" 
                id="BI-KR" 
            />
        </svg>