<svg xmlns="http://www.w3.org/2000/svg" viewBox="142.49210000000016 157.24477000000002 148.5299999999998 145.47000000000003" width="148.5299999999998" height="145.47000000000003">
            <path 
                d="m 221.4421,158.72477 -1.15,1.11 -0.45,-0.21 -1.43,3.06 1.41,4.21 -0.75,4.47 -0.74,1.1 -3.91,-1.6 -0.04,0.88 -1.92,1.25 -1.81,3.21 -0.11,1.16 3.97,4.75 0.5,2 2.76,-0.47 2.33,1.9 1,-0.36 1.48,0.72 1.75,-0.22 0.75,1.59 0.55,0.08 1.89,-0.11 0.69,-1.03 0.49,0.3 1.84,-0.73 0.01,0.76 0.77,0.37 1.09,-0.48 -0.59,2.6 1.39,1.95 1.49,0.08 1.31,6.03 -1.56,0.52 -1.15,1.74 -0.38,3.61 5.2,3.97 3.93,-1.43 0.9,-1.96 1.86,-0.62 3.52,-3.99 -0.67,2 0.56,0.99 2.84,1.3 -0.61,10.9 1.63,0.89 3,5.54 3.88,2.06 5.4,4.68 0.51,2.29 -0.95,2.79 1.62,0.77 5.08,-0.69 3.72,-1.4 2.01,-1.46 2.18,0.4 1.65,1.97 4.95,-1.2 2.59,-1.38 3.3,-0.12 -1.41,1.53 -0.79,2.48 -1.32,0.78 -0.51,2.57 0.35,1.21 -1.14,2.46 0.07,4.18 -1.06,1.12 0.21,2.07 0,0 -2.13,0.4 -1.25,1.91 -2.02,1.16 -5.27,6.99 -2.46,1.48 -0.04,3.01 0.8,1.94 0.77,0.38 0.25,1.72 2.12,0.49 3.51,2.43 1.88,-0.58 0.1,5.94 -0.46,2.09 -2.98,1.29 -3.59,4.47 -5.62,4.64 -1.28,4.65 0,0 -3.07,-1.44 -4.16,0.21 -8.28,5.75 -0.57,0.25 -0.52,-1.36 -0.78,0.13 -1.2,0.94 -1.11,4.77 -1.9,1.15 -2.68,0.24 -1.69,-2.21 -6.5,-1.72 -0.23,-1.02 -1.69,-0.86 -1.19,-3.42 -2.76,-4.54 -2.56,-1.71 -1.63,-2.19 -1.23,-0.45 -0.76,-2.79 0.17,-1.83 0.79,-0.84 -0.77,-0.68 -2.35,0.49 -0.52,0.78 -1.44,-0.06 -0.67,0.92 -2.55,1.18 -1.37,-0.35 -0.68,1.22 -0.67,-0.44 -4.88,0.26 -0.13,-1.32 -1.62,-0.29 -1.48,-2.82 -1.36,-1.09 -0.3,-1.26 -9.07,-1.09 -3.35,-5.14 -0.74,-5.08 -0.92,0.43 -3.15,-1.32 -2.51,0.09 -2.19,-0.68 0,0 1.62,-5.18 -0.78,-2.11 1.22,-1.62 0.02,-1.82 -3.54,-5.14 0.55,-1.21 -0.72,-2.26 -1.41,-0.32 -0.08,-0.77 -0.71,-0.3 0.97,-0.79 0.43,-2.11 -0.97,-0.28 -0.17,-0.95 -1.61,-1.46 0.38,-0.65 -1.98,-2.1 -0.1,-1.58 -0.83,-0.91 -0.61,-3.19 -1.01,-1.85 0.85,-2.02 -1.14,-2.3 -0.01,-1.5 -0.66,-1.61 -1.12,-0.54 -0.64,-3.39 -1.02,-1.68 0.46,-2.9 -0.95,-1.36 1.84,-5.47 -1.06,-1.17 -1.38,-0.17 -0.35,-1.83 -0.77,-0.67 -0.95,-0.14 -1.39,0.73 -3.21,-0.26 0,0 -1.99,-3.44 -1.69,-1.15 -0.43,-4.09 -1.44,-1.71 -0.92,-0.23 -0.43,-1.69 0.95,-2 -2.14,-2.13 -1.28,-2.51 -0.62,-3.15 0.65,-1.37 -1.64,-2.16 0.36,-3.78 -3.26,-4.92 -2.1,0.72 -1.45,-0.36 -0.19,-1.18 0.49,-0.57 -1.03,-1.18 0,0 0.52,-1.18 1.82,-1.18 1.31,0.56 2.29,-0.49 0.99,0.83 2.01,0.1 0.01,1.23 2.49,1.98 1.95,-0.97 1.05,0.62 0.47,-0.71 0.65,0.43 2.02,-2.27 0.93,0.03 1.53,1.98 3.06,1.5 2.21,2.22 0.35,1.11 1.82,0.36 1.09,1.62 1.93,0.49 4.06,-0.81 2.48,0.66 -0.34,-3.38 0.65,-0.71 2.84,0.23 3.57,-1.71 3.72,-0.3 2.44,-2.02 2.1,-0.88 0.65,0.01 0.54,1.64 0.7,-0.41 1.08,0.35 0.29,-0.53 1.29,0.46 1.59,-0.31 2.08,1.5 2.7,-1.99 1.02,0.34 1.93,-0.85 3.2,-4.82 3,-0.59 3.62,0.19 z" 
                fill="rgb(151, 144, 238)" 
                stroke="white" 
                stroke-width=".7px"
                title="Kayanza" 
                id="BI-KY" 
            />
        </svg>