<svg xmlns="http://www.w3.org/2000/svg" viewBox="304.6020999999998 6.1447709999999445 164.63000000000017 150.349999" width="164.63000000000017" height="150.349999">
            <path 
                d="m 454.1621,15.304771 0.76,10.61 3.17,5.61 0.15,2.81 2.19,2.13 1.78,7.26 4.37,4.03 2.15,4.22 -0.45,4.71 -5.6,5.57 0.76,4.77 5.79,5.68 -2.97,4.56 -0.49,1.8 0.24,1.83 1.03,2.16 -1.51,6.17 -2.15,4.79 -1.29,1.28 -2.53,-0.23 -4.32,0.69 -3.66,-0.67 -2.16,0.6 -3.67,4.609999 -1.06,3.86 -1.05,1.52 -1.23,0.88 -2.81,-0.78 -2.17,0.94 -2.85,5.63 -2.91,2.02 -1,1.81 -3.52,3 -4.03,6.3 -2.69,0.82 -2.4,-5.02 -4.57,0.72 -6.63,2.68 -3.33,2.85 -1.1,-0.45 -8.59,8.45 -3.06,2 -3.13,3.25 -3.3,-1.01 -2.2,-2.12 -2.23,0.32 -2.07,5.44 -3.86,4.09 0.11,2.77 -3.85,4.85 -3.04,-0.31 -3.11,-2.75 -0.99,-0.08 -6.59,4.17 0,0 -3.05,0.35 -2.04,-0.42 0.5,-2.99 -1.36,-1.43 -1.01,-2.64 -1.58,-0.56 -0.84,-1.33 1.33,-2.18 -0.31,-0.77 -1.08,-1.23 -2.78,-0.75 -6.12,-4.72 -3.99,-2.29 0.34,-0.66 2.04,-0.65 1.1,-2.08 -4.19,-5.34 -0.51,-0.97 0.38,-0.74 -3.23,1.09 0.01,-3.08 -0.84,-1.08 -3.54,-1.47 -3.14,-0.48 -0.92,-1.68 -2.73,-1.91 -4.99,-1.86 -5.16,0.82 -0.78,-1.08 0,0 1.58,-4.48 -0.41,-0.99 -1.4,-0.67 -0.63,-1.02 0.83,-3.44 -0.33,-4.679999 0.53,-6.38 -0.64,-2.54 -1.41,-1.32 0.36,-0.67 -1.62,-3.24 -0.26,-2.68 1.32,-1.53 0.48,-1.63 1.08,-0.75 -0.06,-1.74 1.67,-2.24 0.37,-2.77 -0.45,-1.71 0.85,-0.41 0.66,-1.31 -0.24,-1.01 1.5,-4.32 2.75,-0.95 1.74,-2.17 2.47,-0.03 1.3,-1.17 0.36,-3.06 -0.66,-1.58 1.24,-3.27 -0.79,-1.36 0.08,-1.39 -0.9,-1.05 0.7,-1.17 -1.7,-3.29 -0.48,-3.73 0.32,-3.37 -2.33,-5.7 -0.09,-2.6 -1.37,-3.22 -2.11,-2.09 -0.26,-1.02 0.28,-2.16 4.12,-4.72 -0.5,-3.25 0.27,-3.35 0.98,-0.64 7.66,2.69 5.4,2.81 6.46,-0.2 4.47,1.68 3.82,2.89 2.65,3.35 4.45,8.74 10.63,9.47 4.04,1.29 5.64,3.29 2.12,0.38 3.2,-0.41 2.85,-1.51 1.98,-0.03 3.5,-1.8 4.24,1.16 1.5,-0.64 3.94,-5.63 0.98,-4.45 -0.4,-1.57 0.46,-1.77 2.23,-0.38 2.43,-1.28 0.41,-3.98 1.23,-1.22 0.39,-3.53 1.55,-1.92 2.65,0.19 1.69,1.81 2.57,1.34 1.25,1.25 0.68,2.49 0.79,0.43 8.24,0.84 5.8,-0.57 z" 
                fill="rgb(151, 144, 238)" 
                stroke="white" 
                stroke-width=".7px"
                title="Kirundo" 
                id="BI-KI" 
            />
        </svg>