<svg xmlns="http://www.w3.org/2000/svg" viewBox="177.75210000000035 557.7347700000006 216.6399999999998 153.8900000000002" width="216.6399999999998" height="153.8900000000002">
            <path 
                d="m 269.6621,570.46477 1.04,0.74 -0.43,0.89 0.61,1.8 1.95,0.77 -0.38,1.08 -2.21,1.51 -0.99,3.61 1.48,0.25 0.78,0.82 -0.33,1.41 3.61,0.79 1.63,-1.06 0.55,0.52 2.68,-0.03 -1.07,-0.93 0.21,-0.46 1.49,0.66 0.48,-1.28 0.81,0.08 0.95,1.35 1.75,-1.41 2.05,0.24 0.03,-0.91 1.58,-0.56 0.73,1.47 -0.75,0.6 1.14,0.31 -0.79,0.94 2.79,0.45 -0.47,1.02 1.48,0.61 -0.66,1.29 0.73,0.46 0.08,-0.59 0.6,0.33 0.14,1.14 1.04,0.2 -0.35,-0.36 2.37,-0.98 0.6,0.06 -0.19,0.38 0.92,-0.27 1.92,-1.73 0.65,0.73 -0.7,0.62 1.13,1.14 -0.32,0.44 1.33,0.36 -0.16,-0.9 0.56,-0.25 -0.39,-1.03 1.52,0.48 0.67,-0.35 -0.27,-1.66 2.22,-0.89 0.9,0.63 1.45,-0.52 1.4,0.28 1.04,-1.37 1.96,1.04 -0.44,1.05 1.16,0.5 0.22,2.75 2.75,-0.93 1.69,0.41 2.63,-2.67 1.08,-0.43 1.15,1.66 0.91,0.04 0.29,-1.53 0.48,-0.1 1.03,1.26 1.43,-0.21 2.81,-1.48 0.54,-2.49 0.83,0.34 1.11,-0.73 1.04,0.63 0.49,-1.08 3.58,-2.11 -0.59,-0.98 0.3,-0.69 1.61,-0.62 2.08,0.54 2.8,-1.03 0.07,-0.65 1.45,0.16 -0.28,1.01 1.61,0.95 1.13,-0.83 0.83,0.9 1.32,-0.82 1.84,0.56 3.32,-0.74 3.29,0.53 0.32,0.51 1.01,-0.23 4.4,2.34 1.84,-0.7 0.48,0.46 5.17,-3.04 1.73,-2.43 2.33,-1.18 0.28,-1.29 1.25,-0.18 2.77,-1.91 0.98,0.45 2.35,-0.28 1.98,1.75 0.69,1.6 1.93,0.49 1.99,2.82 1.27,-0.03 2.8,-3.35 0.7,0.44 0,0 0.31,0.73 -1.33,1.01 0.22,2.12 -1.78,2.72 0.63,0.95 -0.6,0.6 0.23,0.49 -0.62,0.24 -0.24,0.96 -0.68,0.05 -0.51,1.83 0.67,-0.39 0.2,0.77 -1.36,1.63 -1.52,0.4 -0.24,1.61 -0.45,-0.11 -1.48,1.54 -0.28,1.19 -0.83,0.2 0.25,0.69 -1.16,1.7 -3.1,1.26 -0.03,0.76 -3.3,1.89 -0.34,0.87 -1.6,0.93 -0.06,0.65 -0.91,-0.68 -1.45,1.17 -0.87,-0.09 0.11,0.48 -0.65,0.19 0.67,0.35 -0.09,0.64 -1.82,0.22 -0.43,-0.76 -0.72,2.1 -0.55,-0.04 -0.08,1.59 -1.38,0.92 -1.63,-0.4 -2.9,1.89 -0.1,0.6 -3.01,0.34 -0.64,1.43 -1.74,1.19 -0.28,1.5 -0.78,-0.19 0.33,2.09 -1.48,1.2 0.44,1.33 -0.89,1.55 0.15,1.59 -2.58,1.67 -0.59,3.12 -1.48,2.29 0.15,1.42 -1.43,0.41 0.84,1.29 -0.21,0.66 0.67,0.48 -0.88,2.32 0.21,1.45 -1.21,0.4 -1.15,-0.47 -0.18,0.67 1.52,0.19 -0.59,1.24 1.02,0.94 0.46,1.26 -0.62,0.23 0.52,0.6 -0.32,0.79 -0.86,0.13 -1.21,-1.38 -1.03,0.3 1.19,1.06 -1.29,2.42 0.11,1.38 -0.45,0.08 0.47,1.13 -0.53,0.62 -1.89,0.19 -1.8,-1.51 0.03,1.33 -1.59,0.59 -0.46,0.79 -0.34,-1.43 -1.22,-0.29 -1.48,0.57 0.18,1.65 -0.96,0.79 -2.49,-1.49 -0.72,0.1 0.11,0.96 -0.77,0.73 -0.19,3.26 -0.8,1.26 -0.94,-0.11 -0.49,-1.99 -0.9,1.36 0.03,1.62 -0.72,-0.32 -0.82,-1.56 -1.2,1.12 -3.53,0.29 -1.15,0.81 -0.41,2.91 -0.73,0.54 -0.31,0.93 0.39,0.62 -0.95,1.58 -1.61,1.84 -2.38,0.59 -2.88,3.05 -1.1,-0.29 -1.63,1.43 -1.98,-0.07 -0.06,1.14 -3.51,1.1 -1.09,-0.15 -0.39,0.32 0.51,0.38 -0.85,0.38 -0.81,-1.33 -0.44,1.09 -2.19,0.32 0.32,0.27 -0.5,0.77 -0.83,-0.01 -0.53,-1.17 -0.37,0.45 -0.76,-0.42 -0.22,0.97 -1.56,0.33 -0.11,0.58 -1,0.39 0.41,0.91 -0.68,0.57 0.53,0.43 -0.28,1.38 -0.71,0.25 -0.56,-1.18 -0.53,0.59 -0.76,-0.26 0.09,0.54 -0.85,0.33 -0.37,-0.48 -0.63,2.1 1.34,0.81 -0.46,1.17 -1.03,-0.7 0.37,0.75 -1.8,0.82 -0.44,-1 -4.74,0.26 -0.11,-1 -1.28,-0.12 -0.08,-0.46 0.64,-0.13 -1.84,-1.98 0.65,-0.53 -3.86,-0.23 -0.23,-0.58 -0.63,0.22 0.05,-0.84 -0.82,0.2 -0.73,-1.4 -1.62,0.51 0.06,0.77 -1.08,0.66 -1.35,-0.74 -0.62,0.49 -0.08,1.31 -3.25,4.41 0.02,1.16 -0.77,1.99 -0.93,0.64 -0.45,2.36 -1.41,0.68 -2.78,3.33 -2.64,-0.55 -0.55,1.88 -2.74,3 -0.56,1.68 0.65,3.04 -0.57,2.52 1.37,0.7 0.44,1.42 -2.68,3.52 -0.25,-0.53 -0.89,1.21 -1.31,0.43 -3.19,-1.18 -0.42,-2.77 -2.38,-0.76 -1.22,1.39 -1.98,0.75 -1.93,-0.86 -0.82,-1.41 -3.51,2.35 -2.53,-1 -2.8,-2.93 -1.35,0.55 -4.3,-1.69 -2,0.72 -1.97,-0.41 1.45,-2.25 -1.12,-4.71 1.51,-4.09 -1.86,-6.96 -3.91,-4.51 -5.24,-4.01 -10.73,-5.7 -2.24,-0.32 -0.35,-0.71 0.61,-1.32 -1.34,-1.97 -1.53,-0.93 0.04,-0.97 -1.25,-1.62 0.62,-1.1 -0.1,-2.36 -4.34,-4.06 -2.4,-5.71 -0.54,-2.13 1.18,-5.84 -2.75,-2.23 -0.34,-2.86 -3.65,-2.91 1.18,-3.46 -1.5,-2.72 0.94,-3.72 -0.29,-3.9 -3.41,-1.51 0,0 0.88,-2.72 -0.55,-0.32 -0.32,-2.58 1.14,-2.76 2.26,-0.87 3.17,-2.26 4.03,1.7 0.33,-0.75 2.24,-1.16 3.15,0.57 1.08,-0.88 -0.35,-0.69 0.47,-0.36 2.11,0.76 3.25,-0.12 2.75,-2.86 2.48,-0.53 0.58,-2.13 0.7,-0.22 0.33,-0.92 1.07,0.31 1.63,-1.43 1.69,-4.09 1.77,-1.47 -0.16,-0.54 2.5,-3.51 -0.12,-0.64 0.85,-0.52 0.05,-1.47 0.62,-0.15 0.39,-2.06 0.95,-1.45 1.64,-0.06 1.16,-1.24 2.03,0.06 0.63,-1.51 1.27,-1.12 3.56,1.52 2.15,-0.66 2.33,-2.36 6.22,-1.05 1.11,0.95 1.89,0.28 0.06,-0.66 2.21,-2.16 0.72,-1.97 1.82,-10.94 1.6,0.79 2.31,-0.77 0.97,-2.12 1.02,-0.68 0.6,-2.24 4.34,3.51 3,-1.41 1.12,0.77 0.22,1.1 1.28,0.04 2.47,5.88 z" 
                fill="rgb(151, 144, 238)" 
                stroke="white" 
                stroke-width=".7px"
                title="Makamba" 
                id="BI-MA" 
            />
        </svg>