<svg xmlns="http://www.w3.org/2000/svg" viewBox="166.37209999999996 262.8847699999998 115.57000000000002 104.91000000000014" width="115.57000000000002" height="104.91000000000014">
            <path 
                d="m 267.7521,292.07477 -0.23,2.56 4.73,5.95 4.95,0.66 4.74,2.91 -0.59,0.89 -1.43,0.63 -1.3,0.21 -1.33,-0.55 -0.86,0.52 -0.67,-0.26 -0.18,0.79 -1.78,-0.81 -3.02,2.06 -0.17,0.85 -1.38,0.44 -1.11,2.22 -0.07,1.44 -3.28,3.02 -1.16,2.01 -2.82,1.71 0.06,0.56 -2.61,2.56 1.02,3.08 0,0 -2.29,0.98 -1.12,5.17 0.14,2.13 0.93,0.9 -0.37,3.11 -2.5,2.62 0.2,1.95 -2.1,2.32 0.34,1.99 -1.69,2.91 -0.84,0.18 -0.61,-1.35 -3.97,-2 -2.44,-2.3 -5.87,2.52 -1.44,3.12 0.24,1.34 -2.2,3.01 -2.43,6.71 -7.55,0.24 -0.39,1.51 -2.37,1.17 -0.14,1.57 -0.92,1.65 -1.5,0.82 -3.25,-0.12 -1,-1.58 -1.44,-4.11 1.37,-3.06 -1.79,-5.96 -2.35,0.43 -1.97,-1.69 -0.03,-1.22 -0.65,-0.63 -1.52,1.02 -0.69,-0.37 -0.17,-5.94 -1.99,-0.54 -1.42,0.77 -1.18,-0.84 -1.52,0.18 -1.28,-1.42 -4.96,-0.33 -0.92,4.33 0.95,2.75 -0.07,3.94 0,0 -3.8,1.34 -2.49,4.19 -1.01,-0.01 -0.08,-1.64 -0.9,-1.18 -0.83,-4.52 -1.16,-2.81 -1.76,-2.25 -4.05,-3.16 -1.17,-2.73 -2.47,-1.32 1.03,-2.98 1.91,-1.26 1.1,-1.91 -0.12,-0.77 -2.53,-3.44 -1.14,-5.82 -1.66,-2.17 -1.2,-0.05 -1.98,-2.2 -0.08,-2.05 -1.73,-2.42 0,0 2.26,-0.17 1.5,0.65 0.64,-0.35 2.06,-3.92 1.02,-0.92 -0.84,-0.42 0.19,-3.09 0.53,0.08 0.9,-1.11 1.18,-3.69 2.96,-3.46 0.61,-4.63 2.43,-3.7 0.8,-3.7 -0.29,-1.34 1.48,-1.29 1.34,0.33 0.71,-1.33 -1.01,-1.64 0.62,-0.72 -0.48,-0.77 -4.54,-3.59 -0.41,-1.23 -1.29,-0.05 -1.88,-2.32 0.71,-0.7 -0.62,-2.59 3.26,-2.96 1.27,-2.73 0,0 2.19,0.68 2.51,-0.09 3.15,1.32 0.92,-0.43 0.74,5.08 3.35,5.14 9.07,1.09 0.3,1.26 1.36,1.09 1.48,2.82 1.62,0.29 0.13,1.32 4.88,-0.26 0.67,0.44 0.68,-1.22 1.37,0.35 2.55,-1.18 0.67,-0.92 1.44,0.06 0.52,-0.78 2.35,-0.49 0.77,0.68 -0.79,0.84 -0.17,1.83 0.76,2.79 1.23,0.45 1.63,2.19 2.56,1.71 2.76,4.54 1.19,3.42 1.69,0.86 0.23,1.02 6.5,1.72 1.69,2.21 2.68,-0.24 1.9,-1.15 1.11,-4.77 1.2,-0.94 0.78,-0.13 0.52,1.36 0.57,-0.25 8.28,-5.75 4.16,-0.21 z" 
                fill="rgb(151, 144, 238)" 
                stroke="white" 
                stroke-width=".7px"
                title="Muramvya" 
                id="BI-MU" 
            />
        </svg>