<svg xmlns="http://www.w3.org/2000/svg" viewBox="356.49210000000016 0.29477100000013334 154.29999999999995 279.42999899999984" width="154.29999999999995" height="279.42999899999984">
            <path 
                d="m 492.1521,210.48477 0.54,0.99 -2.68,1.16 1.54,2.04 0.07,0.89 -2.61,0.52 -0.2,0.77 -0.98,0.55 -0.3,4.84 -1.56,0.66 -0.19,0.77 -1.91,0.46 -0.43,-0.36 -0.46,1.14 -0.81,-0.1 -1.14,-1.4 -2.54,-0.22 -0.4,1.7 0.55,0.5 -0.07,2.66 -1.46,0.82 -0.6,-1.32 -0.87,1.21 -0.77,-0.37 -1.6,1.07 0.31,1.26 -0.75,1.37 0.14,1.31 -1.51,-0.15 -0.53,1.4 -1.53,1.42 1.49,3.74 -0.71,1.07 0.79,2.65 -0.66,2.88 -2.43,0.36 -0.98,-0.66 -1.93,1.63 0.89,1.23 -0.16,1.05 -2.55,-0.06 -0.91,1.09 -2.38,0.11 -2.11,1.43 -1,1.88 0.22,1.1 -1.54,0.88 -0.04,1.2 0.85,0.64 0.72,2.34 1.99,2.1 0.5,1.34 -1.08,0.57 -1.61,-0.67 -0.57,2.16 1.29,0.29 0.18,0.6 -0.57,0.95 -0.81,-0.09 -1.15,2.6 -2.92,0.29 0.23,1.09 -0.6,0.72 -1.95,0.06 1.47,1.62 -0.38,2.4 0.92,1.39 -0.26,1.14 -0.96,0.53 -0.7,-0.7 -3.26,-0.77 0,0 -3,-2.64 -1.26,0.98 -1.24,-0.12 -2.88,2.46 -1.25,0.04 -1.88,-0.83 -0.04,-2.31 -2.66,-1.27 -1.84,-0.02 -2.75,0.83 -4.07,2.69 -2.69,0.32 -0.7,-0.88 -2.67,-0.2 -1.73,-3 -1.11,-0.79 -1.53,-0.62 -0.17,0.45 -0.96,-0.05 -1.68,-1.44 -0.14,-2.5 -2.49,-1.82 -0.7,-1.75 0.21,-1.1 2.4,-4.8 3.08,-3.1 0.21,-2.16 2.61,-3.75 0.49,-1.7 3.67,-3.98 0.03,-2.33 2.12,-4.86 -0.8,-1.4 1.55,-6.97 -0.84,-2.8 0.88,-2.95 -0.6,-4.29 0.28,-3.2 0.77,-0.95 -0.33,-1.61 -3.23,-4.7 -1.17,-0.45 -2.32,-2.92 -2.53,-1.5 -1.84,-3.32 -2.39,-1 -1.04,-1.12 -2.18,-0.14 -4.03,-2.72 -12.91,1.34 0,0 -0.89,-1.76 1.46,-2.45 -1.11,-1.21 -0.1,-1.17 0.59,-0.86 -1.07,-1.52 -1.51,-0.72 0.79,-1.19 4.31,-2.06 1.09,-2.37 1.82,-0.3 0.2,-0.47 -1.47,-1.63 -2.22,-1.23 -5.05,-1.06 -4.49,-2.63 -1.96,2.28 -3.29,2.18 -0.42,1.47 -6.22,-5.61 1.54,-0.79 -0.28,-0.97 -0.51,-0.82 -1.77,-0.48 -0.59,-2.65 -2.03,-0.73 -0.9,-0.98 -0.2,-1.35 -0.9,-0.87 1.17,-2.24 -0.34,-0.59 -7.76,-4.67 -0.77,-1.71 0,0 6.59,-4.17 0.99,0.08 3.11,2.75 3.04,0.31 3.85,-4.85 -0.11,-2.77 3.86,-4.09 2.07,-5.44 2.23,-0.32 2.2,2.12 3.3,1.01 3.13,-3.25 3.06,-2 8.59,-8.45 1.1,0.45 3.33,-2.85 6.63,-2.68 4.57,-0.72 2.4,5.02 2.69,-0.82 4.03,-6.3 3.52,-3 1,-1.81 2.91,-2.02 2.85,-5.63 2.17,-0.94 2.81,0.78 1.23,-0.88 1.05,-1.52 1.06,-3.86 3.67,-4.609999 2.16,-0.6 3.66,0.67 4.32,-0.69 2.53,0.23 1.29,-1.28 2.15,-4.79 1.51,-6.17 -1.03,-2.16 -0.24,-1.83 0.49,-1.8 2.97,-4.56 -5.79,-5.68 -0.76,-4.77 5.6,-5.57 0.45,-4.71 -2.15,-4.22 -4.37,-4.03 -1.78,-7.26 -2.19,-2.13 -0.15,-2.81 -3.17,-5.61 -0.76,-10.61 0,0 0.4,-2.12 -0.38,-1.11 1.51,-2.24 0.86,-4.05 2.37,-2.08 1.47,-2.27 4.19,-0.41 1.87,-0.73 4.2,4.53 0.03,0.8 1.33,-0.46 1.23,1.23 2.53,0.37 1.69,-2.5 2.88,-1.24 2.4,0.08 1.34,0.82 0.34,1.47 -1.39,2.86 0.65,1.67 -0.82,1.81 0.48,0.83 3.4,1.59 0.21,2.18 -0.47,1.47 0.6,1.11 1.72,0.64 1.65,-0.85 1.33,0.03 1.53,3.73 1.41,-0.05 1.84,2.5 2.78,1.6 0.6,3.61 3.38,1.28 4.58,0.16 2.89,2.87 -1.93,3.06 0.46,1.16 -0.92,2.62 -1.89,1.43 -0.36,1.77 -1.7,1.31 -0.16,1.6 -1.12,2.03 0.25,2.37 -0.47,2.81 -1.44,1.24 -2.76,8.9 -3.6,4.32 0.02,1.61 -3.5,0.34 -0.81,1.5 0.78,5.53 -0.29,3.75 -1.76,1.47 -1,3.32 -2.01,1.48 -1.28,3.65 -2.9,2.93 -0.89,2.21 -3.6,5.149999 -1.94,5.6 -1.65,2.42 -2.07,1.67 -1.52,2.25 -0.75,2.35 0.17,0.99 3.41,4.58 1.98,-0.59 2.13,0.29 3.14,3.56 2.05,0.76 2.93,-1.78 1.57,-1.76 5.42,-2.1 4.9,-2.93 2.52,-2.86 3.84,-0.19 0.73,-0.71 0.99,0.07 -0.38,2.14 0.95,1.68 -1.64,3.81 0.16,1.28 -1.4,0.46 0.34,1.84 -1.31,0.42 -0.39,1.2 -0.77,-0.27 -0.95,0.82 -0.68,-0.43 -0.4,2.16 -1.32,-0.68 -0.19,1.87 -2.05,1.66 0.01,1.2 -2.22,1.04 -2.41,2.54 -2.25,-2.32 -1.02,0.16 -1.04,1.13 -1.54,-0.03 0.1,1.55 -0.75,-0.24 0.15,0.62 -0.71,-0.1 0.08,1.07 1.07,1.28 -0.58,1.08 -0.66,-0.09 -2.43,2.17 -4.68,1.03 0.52,2.55 -1.81,1.23 2.37,1.7 1.23,2.22 -1.59,3.05 0.85,1.4 -0.98,0.98 0.24,0.87 -0.67,0.86 0.42,1.32 -0.82,0.78 -0.53,2.32 -0.46,0.02 -0.2,-1.03 -1.03,0.28 0.81,0.72 -0.57,0.32 0.44,0.92 -0.84,0.52 -0.07,1.22 -1.47,-0.52 -0.9,1.91 0.75,0.82 -0.47,2.09 -0.62,0.48 0.46,1.42 -1.43,0.29 0.26,2.5 -0.77,-0.14 -0.31,1.29 -1.27,-0.08 -0.65,1.34 0.94,1.3 -0.8,-0.08 -1.6,2.52 0.09,0.79 2.17,-0.5 0.04,1.46 -1.18,0.26 0.73,1.41 0.69,0.19 0.47,1.48 2.64,-1.73 2.98,1.84 0.3,0.87 -0.58,1.2 0.99,1.15 0.29,2.74 -0.52,1 0.99,1.03 -0.49,1.38 1.65,0.45 0.61,1.49 0.6,-0.37 0.9,0.55 0.39,1.26 0.63,-0.8 1.83,-0.45 1.76,1.75 0.4,1.65 -2.07,0.68 0.95,0.77 1.16,-0.78 1.55,0.75 1.62,2.54 1.88,0.91 0.67,3.07 z" 
                fill="rgb(151, 144, 238)" 
                stroke="white" 
                stroke-width=".7px"
                title="Muyinga" 
                id="BI-MY" 
            />
        </svg>