<svg xmlns="http://www.w3.org/2000/svg" viewBox="210.54209999999978 114.01476999999987 184.41000000000008 142.32000000000016" width="184.41000000000008" height="142.32000000000016">
            <path 
                d="m 356.4921,156.14477 0.77,1.71 7.76,4.67 0.34,0.59 -1.17,2.24 0.9,0.87 0.2,1.35 0.9,0.98 2.03,0.73 0.59,2.65 1.77,0.48 0.51,0.82 0.28,0.97 -1.54,0.79 6.22,5.61 0.42,-1.47 3.29,-2.18 1.96,-2.28 4.49,2.63 5.05,1.06 2.22,1.23 1.47,1.63 -0.2,0.47 -1.82,0.3 -1.09,2.37 -4.31,2.06 -0.79,1.19 1.51,0.72 1.07,1.52 -0.59,0.86 0.1,1.17 1.11,1.21 -1.46,2.45 0.89,1.76 0,0 -3.59,3.89 -2.51,3.73 -3.04,2.69 -3.25,2.21 -5.72,1.87 -6.98,4.77 -3.46,3.28 -3.39,1.46 -2.97,-0.09 -1.47,0.56 -5.76,-0.92 -3.19,2.83 -1.6,0.35 -2.57,-0.21 -2.18,-1.27 -1.57,0.32 -2.61,3.84 -3.1,2.32 -3.13,1.13 -1.21,1.22 -0.1,2.24 -2.42,3.12 -0.64,2.57 -2.52,4.16 -0.18,1.99 -2.49,1.55 -3.67,-0.67 -2.61,1.3 -0.44,-0.26 -1.29,1.99 1.09,2.24 -0.08,2.62 -1.92,0.49 -1.37,0.72 -0.54,0.99 -0.57,-0.1 0,0 -1.29,-0.11 -0.54,-0.74 -2.63,0.76 -1.64,-3.68 -2.49,-3.17 -3.08,-0.15 -0.7,-1 -2.67,-1.33 -5.86,0.85 0,0 -0.21,-2.07 1.06,-1.12 -0.07,-4.18 1.14,-2.46 -0.35,-1.21 0.51,-2.57 1.32,-0.78 0.79,-2.48 1.41,-1.53 -3.3,0.12 -2.59,1.38 -4.95,1.2 -1.65,-1.97 -2.18,-0.4 -2.01,1.46 -3.72,1.4 -5.08,0.69 -1.62,-0.77 0.95,-2.79 -0.51,-2.29 -5.4,-4.68 -3.88,-2.06 -3,-5.54 -1.63,-0.89 0.61,-10.9 -2.84,-1.3 -0.56,-0.99 0.67,-2 -3.52,3.99 -1.86,0.62 -0.9,1.96 -3.93,1.43 -5.2,-3.97 0.38,-3.61 1.15,-1.74 1.56,-0.52 -1.31,-6.03 -1.49,-0.08 -1.39,-1.95 0.59,-2.6 -1.09,0.48 -0.77,-0.37 -0.01,-0.76 -1.84,0.73 -0.49,-0.3 -0.69,1.03 -1.89,0.11 -0.55,-0.08 -0.75,-1.59 -1.75,0.22 -1.48,-0.72 -1,0.36 -2.33,-1.9 -2.76,0.47 -0.5,-2 -3.97,-4.75 0.11,-1.16 1.81,-3.21 1.92,-1.25 0.04,-0.88 3.91,1.6 0.74,-1.1 0.75,-4.47 -1.41,-4.21 1.43,-3.06 0.45,0.21 1.15,-1.11 0,0 3.39,2.64 2.19,0.16 2.57,2.79 0.62,-0.64 2.82,1.39 0.6,0.54 -0.19,1.08 1.04,1.26 2.14,-1.22 1.24,0.69 1.14,-0.81 0.41,0.82 2.34,-2.06 3.03,-0.36 1.49,-1.06 1.11,-0.02 1.09,1.19 1.33,-0.69 1.12,-1.98 -0.13,-0.73 1.45,-2 0.7,-4.89 1.21,-0.85 -0.32,-1.66 0.54,-1.77 1.25,-0.84 4.93,0.49 2.52,-2.54 2.77,0.28 2.34,0.79 1.3,3.88 2.25,0.91 1.76,-0.25 1.64,1.69 0.39,-1.71 0.77,-0.18 1.46,-1.9 0.59,0.36 3.8,-1.05 0.75,-1.33 1.57,0.37 1.25,-1.01 1.31,-0.25 2.22,0.54 1.26,-0.43 0.74,-1.05 -0.61,-0.98 0.31,-0.6 2.71,-0.68 0.63,0.29 1.24,-1.37 -0.83,-0.6 0.7,-0.56 0.24,-0.96 -0.54,-0.6 0.48,-1.04 2.28,-2.34 0.6,-2.32 2.7,-2.12 0.8,-2.17 1.81,-1.73 0.43,-3.27 1.39,-1.88 2.12,-7.29 -0.52,-2.3 0.82,-0.78 0,0 0.78,1.08 5.16,-0.82 4.99,1.86 2.73,1.91 0.92,1.68 3.14,0.48 3.54,1.47 0.84,1.08 -0.01,3.08 3.23,-1.09 -0.38,0.74 0.51,0.97 4.19,5.34 -1.1,2.08 -2.04,0.65 -0.34,0.66 3.99,2.29 6.12,4.72 2.78,0.75 1.08,1.23 0.31,0.77 -1.33,2.18 0.84,1.33 1.58,0.56 1.01,2.64 1.36,1.43 -0.5,2.99 2.04,0.42 z" 
                fill="rgb(151, 144, 238)" 
                stroke="white" 
                stroke-width=".7px"
                title="Ngozi" 
                id="BI-NG" 
            />
        </svg>