<svg xmlns="http://www.w3.org/2000/svg" viewBox="269.25209999999987 435.7547699999997 197.55000000000018 153.21000000000032" width="197.55000000000018" height="153.21000000000032">
            <path 
                d="m 459.9621,466.08477 0.3,1.13 2.49,0.96 0.35,2.09 -0.56,0.51 1.13,1.39 -0.05,1.04 1.24,2.13 -0.06,2.81 1.67,0.91 0.33,0.77 -0.56,2.37 0.47,0.16 0.02,3.37 -1.59,1.2 -0.29,1.86 -2.61,1.33 -0.84,-0.99 0.66,-0.33 -0.04,-0.91 -1.56,0.45 -0.31,-1.06 -1.63,-0.31 -0.56,-1.86 0.66,-0.79 -1.84,-0.41 -0.06,-0.67 -1.39,-0.36 -2.95,-0.04 -1.52,0.68 -0.97,1.24 -1.09,-0.77 0.39,-0.76 -0.6,-0.38 -2.66,-0.48 -3.21,2.37 -0.54,-0.22 -0.12,1.29 -1.85,0.16 0.29,1.08 -2.17,2.18 0.58,1.8 -0.77,0.17 0.81,0.7 -0.92,0.62 0.37,0.63 -1,0.04 -0.17,0.7 1.24,0.31 -1,1.01 0.44,1.02 -0.78,-0.15 -0.11,0.82 -1.1,0.17 0.14,1.64 -0.89,-0.06 0.52,0.36 -0.8,0.5 0.34,1.04 -2.15,1.05 0.8,0.43 0.31,1.6 -1.05,2.16 -0.85,0.29 -0.68,1.12 -1.87,0.69 -0.01,1.92 -2.14,1.73 -0.61,-0.79 -0.23,0.85 -1.71,1.1 0.17,0.85 -0.79,-0.04 -1.08,1.12 -0.02,0.72 -0.67,-0.29 -0.76,0.86 -0.58,-0.6 -0.56,1.16 -0.96,-0.71 -0.73,0.49 -0.29,1.19 -1.66,-0.09 0.38,1.24 -1.64,-0.1 1.12,2.78 -0.9,0.87 0.17,0.52 -0.64,0.11 -0.13,2.14 -0.78,0.39 0.2,0.85 -0.91,1.13 -0.27,2.73 -3.3,1.58 0.34,1.82 -1.36,1.16 0.19,0.7 -1.86,2.06 0.96,0.71 -0.49,0.26 0,2.77 -1.2,0.37 0.39,3.22 -0.57,-0.18 -0.36,1.99 -0.65,0.68 0.52,0.24 -0.15,0.92 -2.29,3.59 -2.04,1.85 1.56,3.07 -0.22,0.79 0.72,0.74 -0.37,0.31 1.17,0.46 0.06,0.75 2.36,0.44 -0.61,0.79 0.33,0.63 -0.47,0.89 -1.21,0.09 0.38,0.97 -0.81,1.64 -1.91,0.56 -0.53,2.7 -2.32,1.66 -1.09,1.66 -0.67,-0.2 0.46,0.86 -2.84,-0.58 -1.75,1.85 0,0 -0.7,-0.44 -2.8,3.35 -1.27,0.03 -1.99,-2.82 -1.93,-0.49 -0.69,-1.6 -1.98,-1.75 -2.35,0.28 -0.98,-0.45 -2.77,1.91 -1.25,0.18 -0.28,1.29 -2.33,1.18 -1.73,2.43 -5.17,3.04 -0.48,-0.46 -1.84,0.7 -4.4,-2.34 -1.01,0.23 -0.32,-0.51 -3.29,-0.53 -3.32,0.74 -1.84,-0.56 -1.32,0.82 -0.83,-0.9 -1.13,0.83 -1.61,-0.95 0.28,-1.01 -1.45,-0.16 -0.07,0.65 -2.8,1.03 -2.08,-0.54 -1.61,0.62 -0.3,0.69 0.59,0.98 -3.58,2.11 -0.49,1.08 -1.04,-0.63 -1.11,0.73 -0.83,-0.34 -0.54,2.49 -2.81,1.48 -1.43,0.21 -1.03,-1.26 -0.48,0.1 -0.29,1.53 -0.91,-0.04 -1.15,-1.66 -1.08,0.43 -2.63,2.67 -1.69,-0.41 -2.75,0.93 -0.22,-2.75 -1.16,-0.5 0.44,-1.05 -1.96,-1.04 -1.04,1.37 -1.4,-0.28 -1.45,0.52 -0.9,-0.63 -2.22,0.89 0.27,1.66 -0.67,0.35 -1.52,-0.48 0.39,1.03 -0.56,0.25 0.16,0.9 -1.33,-0.36 0.32,-0.44 -1.13,-1.14 0.7,-0.62 -0.65,-0.73 -1.92,1.73 -0.92,0.27 0.19,-0.38 -0.6,-0.06 -2.37,0.98 0.35,0.36 -1.04,-0.2 -0.14,-1.14 -0.6,-0.33 -0.08,0.59 -0.73,-0.46 0.66,-1.29 -1.48,-0.61 0.47,-1.02 -2.79,-0.45 0.79,-0.94 -1.14,-0.31 0.75,-0.6 -0.73,-1.47 -1.58,0.56 -0.03,0.91 -2.05,-0.24 -1.75,1.41 -0.95,-1.35 -0.81,-0.08 -0.48,1.28 -1.49,-0.66 -0.21,0.46 1.07,0.93 -2.68,0.03 -0.55,-0.52 -1.63,1.06 -3.61,-0.79 0.33,-1.41 -0.78,-0.82 -1.48,-0.25 0.99,-3.61 2.21,-1.51 0.38,-1.08 -1.95,-0.77 -0.61,-1.8 0.43,-0.89 -1.04,-0.74 0,0 0.47,-1.13 2.13,-1.7 1.54,-3.19 1.37,-1.34 0.29,-1.16 -0.77,-2.99 0.48,-1.98 2.62,-1.43 0.66,-4.59 1.03,-1.9 0.89,-0.26 0.56,-2.18 1.85,-1.91 0.37,-1.78 1.02,0.32 0.45,-0.38 1.82,-4.08 0.96,-5.23 2.23,-3.18 1.73,-0.46 0.73,-2.6 0.27,-6.91 1.26,-3 6.05,-1.01 -1.64,-4.27 0.08,-1.36 -1.36,-0.71 1.34,-1.55 -0.2,-0.59 -1.34,-0.7 -1.94,-2.37 5.37,-3.38 1.2,-2.63 2.05,-0.57 -0.05,-0.66 0,0 0.55,0.09 -0.17,2.14 2.61,3.9 1.71,0.86 1.59,-0.44 1.96,1.56 1.19,-0.01 1.09,-1.26 -0.76,-0.81 0.43,-3.21 -3.46,-3.07 1.96,-2.58 0.22,-1.35 1.44,-1.32 -0.55,-0.7 0.43,-2.11 0.7,-0.2 0.21,-0.85 1.56,0.11 1.25,-1.25 1.07,0.09 0.49,-0.7 2.7,-0.58 3.71,-2.52 2.69,0.03 2.24,-1.24 0.23,-1.14 -5.34,-3.2 -2.29,-0.66 -0.32,-1.33 3.16,-3.31 2.55,-1.69 0.17,-1.91 3.65,-2.98 5.83,-1 0.8,-1.01 2.53,-0.58 0.71,-0.64 0.07,-1.05 2.62,0.15 2.01,-0.88 1.25,0.65 2.67,-0.52 0.67,-1.13 -0.25,-0.79 2.12,-1.63 0.5,-2.35 1.32,-0.51 -0.13,-1.28 1.6,-1.1 1.59,-3.86 3.95,-2.05 -0.31,-5.67 2.19,-3.34 -0.51,-0.82 0.4,-0.57 0,0 1.37,-0.23 4.26,2.91 2.04,0.3 5.7,6.61 1.57,0.63 1.78,3.75 2.61,2.49 1.07,-0.64 2.2,-3 1.64,-0.65 4.44,-3.66 7.15,-3.01 3.46,0.63 3.84,-0.76 3.89,0.83 2.19,-0.29 3.69,3.34 0.87,3.16 3.35,3.17 2.84,4.17 0.67,-0.19 1.61,-2.17 0.04,-0.97 2.43,-0.23 3.78,2.59 3.7,0.29 0.87,0.84 2.27,7.5 8.02,1.97 2.08,1.71 2.07,-0.71 3.41,-3.45 1.44,0.47 1.02,1.67 z" 
                fill="rgb(151, 144, 238)" 
                stroke="white" 
                stroke-width=".7px"
                title="Rutana" 
                id="BI-RT" 
            />
        </svg>