<svg xmlns="http://www.w3.org/2000/svg" viewBox="344.722100000001 289.5247700000001 210.47999999999956 177.54999999999995" width="210.47999999999956" height="177.54999999999995">
            <path 
                d="m 436.8121,289.60477 0.49,2.81 -1.33,0.92 -0.31,2.15 1.64,3.64 1.31,0.16 2.51,-1.28 1.35,-1.43 5.16,0.83 4.05,-1.89 2.5,4.96 0.47,-0.35 0.04,-1.68 4,3.39 0.22,1.51 3.47,-2.67 1.72,2.72 1.34,0.36 0.7,1.09 2.18,-0.56 4.01,1.65 2.8,5.23 3.59,1.47 0.31,2.51 -1.24,4.52 2.67,2.1 -0.75,0.67 3.34,3.78 0.83,2.96 2.88,-0.06 1.43,1.54 3.31,0.15 0.83,-0.59 1.33,-3.42 1.41,-1.03 1.57,1.14 2,-0.05 -0.22,0.94 2.32,-0.78 0.29,0.78 2.64,-0.45 0.48,1.61 2.51,0.95 0.31,0.81 3.56,1.15 -0.71,0.64 -2.33,-0.4 -4.25,2.99 -0.54,4.47 0.31,2.47 3.43,-0.97 5.79,1.39 3.1,6.06 6.47,2.28 -0.27,0.6 0.7,0.8 -0.36,2.28 0.51,0.69 -1,2.44 0.58,0.5 4.83,-3.53 0.57,-1.43 3.16,-2.06 2.63,-1.13 2.74,-0.35 1.5,-1.52 3.7,-1.48 0,0 3.6,4.23 0.6,1.51 -0.3,1.86 4.19,0.01 4.83,2.5 1.19,1.66 -0.19,1.77 -1.38,1.84 0.41,1.72 -0.76,1.87 -1.86,1.25 -1.78,3.02 -1.76,0.93 -2.02,2.34 -1.49,0.25 -1.88,1.42 -0.7,2.04 -5.06,3.56 -5.77,1.64 -2.17,1.14 -4.68,3.91 -5.11,1.81 -1.21,1.38 -6.48,1.55 -3.25,1.5 -1.23,1.62 -1.32,0.48 -1.02,1.14 -0.76,2.44 -2.25,2.74 -1.43,0.43 -0.39,-2.81 -3.17,-1.62 -2.7,1.12 -1.01,2.46 -1.45,0.7 -1.68,2.13 -2.67,1.1 -1.9,2.99 -1.5,1.14 0.06,1.3 -2.79,1.31 -0.12,0.7 -2.19,1.81 1,2.62 1.13,0.36 0.03,-0.89 1.3,0.38 0.25,1.19 -0.63,0.68 0.6,0.72 -0.78,0.6 0,1.33 -0.84,-0.09 -0.48,0.85 0.51,0.45 0.68,-0.57 1.19,0.71 -0.67,1.09 0.36,3.17 -1.8,0.63 0.47,0.64 -0.6,0.97 -0.72,0.33 -0.62,-0.67 0.16,1.17 -1.33,1.33 -0.87,0.55 -1.33,-0.4 -2.29,1.47 0.16,0.79 1.07,0.27 -0.26,1.67 -1.05,0.46 0.24,1.03 -1.02,0.27 0.2,1.12 -1.94,-0.14 -0.64,4.18 -1.42,0.11 -0.02,3.95 -1.84,0.29 -0.64,1.32 1.16,1.28 -0.01,0.73 -1.07,0.97 -1.03,-0.14 1.24,1.64 -0.11,1.15 -0.93,-0.62 -0.88,0.73 0.07,1.54 -1.23,1.89 0.27,0.32 -1.09,0.38 0.46,0.57 -0.45,0.72 -2.35,0.14 0.51,1.07 -1.65,1.84 1.66,0.62 0,0.75 -0.97,0.6 0.26,1.47 0,0 -3.11,-1.03 -1.02,-1.67 -1.44,-0.47 -3.41,3.45 -2.07,0.71 -2.08,-1.71 -8.02,-1.97 -2.27,-7.5 -0.87,-0.84 -3.7,-0.29 -3.78,-2.59 -2.43,0.23 -0.04,0.97 -1.61,2.17 -0.67,0.19 -2.84,-4.17 -3.35,-3.17 -0.87,-3.16 -3.69,-3.34 -2.19,0.29 -3.89,-0.83 -3.84,0.76 -3.46,-0.63 -7.15,3.01 -4.44,3.66 -1.64,0.65 -2.2,3 -1.07,0.64 -2.61,-2.49 -1.78,-3.75 -1.57,-0.63 -5.7,-6.61 -2.04,-0.3 -4.26,-2.91 -1.37,0.23 0,0 -0.4,-2.95 0.63,-0.89 -0.18,-0.8 2.16,-2.93 -0.51,-1.51 0.3,-3.85 -1.13,-0.35 0.41,-1.17 -1.23,-0.21 -1.21,-2.18 0.71,-2.46 -3.11,-3.52 -0.23,-1.59 -1.14,-1.17 0.07,-1.07 -0.87,-1.65 0.47,-2.26 -0.52,-0.08 1.55,-1.01 -0.54,-2.14 -2.32,-2.93 -2.03,-1.35 -0.26,-0.5 0.55,-0.84 -1.29,-1.93 0.29,-1.57 -0.63,-3.01 -3.97,-5.86 0.54,-0.59 0.48,0.29 1.1,-1.88 1.62,-0.86 -0.41,-0.84 0.89,-2.33 -0.29,-0.96 1.65,-3.75 2.06,-1.93 0.78,-0.12 0.85,-1.49 -0.56,-0.23 -0.48,-2.19 -4.47,-3.09 -0.24,-1.04 -1.08,-0.46 -0.3,-1.21 -1.03,0.08 -0.65,-1.53 0.35,-2.18 -3.07,-1.68 0.31,-1.33 -0.94,-0.46 0.23,-1.61 -0.65,-0.28 0.59,-0.45 -0.06,-0.91 -1.55,-0.01 0.1,-1.18 0,0 1.24,-0.47 0.41,-2.62 2.03,1.03 1.5,-0.51 -0.14,-1.83 0.81,-1.73 -0.44,-0.83 0.94,-0.1 0.27,0.97 4.92,-0.47 2.14,-1.74 1.67,0.46 1.94,-1.35 2.32,0.58 0.89,0.91 1.19,-2.14 -1.02,-0.99 1.93,0.48 1.78,-0.77 3.61,2.73 1.14,-1.29 -0.23,-1.47 0.93,-0.3 0.46,1.24 0.61,0.1 3.21,-1.72 0.38,-1.12 0.43,0.47 1.55,-0.03 2.5,1.87 0.24,-0.88 -0.63,-1.42 0.47,-0.9 3.26,0.48 0.67,-0.5 -0.25,-1.11 -1.11,0.21 -1.09,-0.88 0.25,-1.43 3.07,0.21 0.57,2.14 0.98,0.6 3.33,-0.58 0.21,-0.54 1.52,0.59 0.48,-0.34 -0.1,-1.84 -0.77,-1.86 1.97,-1.89 1.22,0.03 1.12,-1.39 1.54,0.39 0.6,0.83 0.39,-0.85 1.61,-0.93 0.06,-2.06 -0.79,-2.36 0.4,-0.41 2.22,0.73 0.64,0.89 0.47,-0.4 0.38,0.71 2.26,-0.85 -0.51,-2.82 -1.17,-1.77 4.59,-5.05 0.56,-1.42 0.76,0.03 0.52,-1.53 -0.94,-1.05 1.74,-2.07 1.76,-0.55 0.07,-2.23 1.2,-0.46 2.58,-3.52 2.52,-1.37 3.95,-4 3.44,-0.79 -0.25,-3.6 0.39,-1.01 2.61,0.93 2.43,-1.93 z" 
                fill="rgb(151, 144, 238)" 
                stroke="white" 
                stroke-width=".7px"
                title="Ruyigi" 
                id="BI-RY" 
            />
        </svg>