<svg xmlns="http://www.w3.org/2000/svg" viewBox="0.607369999999998 0.3973425 50.18 53.4599995" width="50.18" height="53.4599995">
            <path 
                d="m 49.94737,0.3973425 0.84,0.68 -1.38,2.74 0,0 0.14,1.03 -0.51,-0.04 0.87,1.38 -1.36,1.41 0.54,1.57 -0.95,0.27 0.13,2.7699995 -1.09,2.66 -0.83,0.49 -0.48,1.54 -2.08,0.1 0.1,2.61 -1.82,2.11 0.78,0.7 -1.21,3.34 1.37,4.26 -0.8,0.86 1.07,4.87 -2.81,4.27 0,0 -1.42,0.73 -0.79,-0.87 -1.37,0.47 -2.07,-0.79 -1.14,0.66 0.32,0.86 -1.38,-0.53 -0.74,1.06 -1.1,-1.46 -0.32,0.61 -0.41,-0.39 0.23,1.94 -0.68,0.64 -1.16,-0.43 -0.45,1.46 -1.93,0.44 -2.66,-0.7 0.06,0.58 -1.39,0.15 -0.21,1.16 -1.36,-0.58 -2.04,0.95 -0.29,1.22 0,0 -0.62,1.1 -1.75,0.58 -0.65,-0.38 0.29,-0.75 -1.09,-0.08 -0.31,0.82 0.71,0.59 -0.62,0.22 0.04,0.85 -0.95,-0.16 0.43,-0.93 -0.82,-0.45 -0.89,1.59 0.29,0.77 -1.02,0.07 -1.14,0.88 0.23,0.84 -2,1.1 0.41,-1.75 -0.64,-0.7 -1.12,0.02 1.6,-2.72 0.2,-2.27 3.23,-3.65 1.14,0.13 0.15,-1.48 -0.56,-0.51 -0.1,1.1 -0.83,-0.13 -0.73,1.08 -0.64,-0.62 -0.03,0.66 -1.05,-0.16 -0.08,-0.86 -1.4,0.68 0.48,0.73 -1.33,1.34 -1.92,-2.72 1.24,-0.39 0.2,-0.78 -1.36,-1.64 0.74,-1.54 -1.07,-0.22 -0.36,-1.35 -0.52,-0.31 0.1,1.53 -1.37,-1.11 -0.04,0.64 -0.88,0.23 -0.37,1.68 -0.01,-1.24 -0.72,-0.49 1.13,-3.3 -1.18,-2.35 0.84,0.5 0.48,-1.98 2.78,-0.52 0,-1.92 -0.81,1.16 -0.66,-1.76 0.42,0.41 0.78,-1.53 0.51,0.35 0.63,-0.79 1.53,0.49 -0.11,0.43 0.96,-0.15 1.47,-2.09 0.44,0.73 0.5,-0.57 1.48,0.42 -0.56,-1.82 -1.24,-0.54 1.21,-0.82 0.69,0.49 0.68,-0.43 -0.08,-1.2 2,0.08 0.18,-1.09 1.63,1.74 2.23,0.64 3.27,-1.44 2.28,0.35 2.9,-2.83 0.91,0.57 0.28,-0.91 0.49,2.13 1.1,-0.34 0.31,-1.27 -0.54,-0.5 1.5,-0.65 2.95,3.31 -0.35,-2.73 1.04,-1.37 -1.55,-0.22 -0.2,0.54 -2.22,-1.17 1.91,-0.89 1.66,0.23 1.44,-2.21 -1.43,1.48 -1.56,-0.28 -0.46,0.73 -2.29,0.39 0.67,-1.65 -0.4,-0.66 1.18,-0.87 -0.88,-1.34 1.83,0.38 2.3,-2.7699995 0.84,0.32 2.07,-2.23 0.22,1.2 1.07,0.24 -0.65,-0.66 0.6,-0.38 -0.74,-0.13 0.44,-1.89 1.93,-0.01 1.5,-1.53 0.9,-0.09 0.47,-1.06 1.16,-0.22 -0.11,1.78 0.68,0.65 -0.84,-0.2 0.17,2.1 -0.77,0.09 1.52,0.05 -0.42,-1.58 1.62,0.46 -0.66,-0.56 1.09,-1.15 2.4,-0.83 0.73,-1.6 z" 
                fill="rgb(151, 144, 238)" 
                stroke="white" 
                stroke-width=".7px"
                title="A Coruña" 
                id="ES-C" 
            />
        </svg>