<svg xmlns="http://www.w3.org/2000/svg" viewBox="185.21737 25.217342000000002 32.19 30.47000000000002" width="32.19" height="30.47000000000002">
            <path 
                d="m 189.50737,26.947342 0.92,0.76 1.12,-0.12 1.47,-0.63 0.32,-1.74 0.3,0.26 0.82,-0.22 1.36,2.75 -1.14,1.71 2.42,2.05 0.93,-0.23 2.89,1.05 4.18,0.29 -0.86,-2.27 3.53,-0.58 0,0 0.67,1.83 -0.76,1.03 -1.44,0.44 -0.19,1.13 0.67,0.75 1.18,0.59 0.22,-0.97 5.54,0.98 1.61,1 0.39,0.99 1.19,0.28 0,0 0.56,2.17 -1.48,2.45 0.57,1.54 -1.67,0.37 -0.21,0.64 1.08,2.87 -2.87,0.86 0.18,-0.68 -1.21,-0.5 -2.06,2.1 -0.52,-0.18 0.29,1.29 0.87,-0.08 0.27,0.84 0.99,-1.66 0.75,0.33 0.14,3.41 -0.92,0.22 0.04,0.93 0,0 -2.89,-0.03 0.15,-1.24 -0.62,1.5 -1.16,-0.42 -0.9,0.88 -0.26,-1.27 -1.3,0.84 -0.86,-1.76 -0.91,0.37 0.77,-3.23 -2.55,-1.18 -0.43,1.7 -1.45,1.12 -0.48,-1.11 0.64,-1.37 -0.67,0.25 -0.5,-1.23 0,0 -1.16,-0.7 -0.2,-1.6 -0.86,-0.61 -1.54,0.18 -1.09,-1.53 -0.75,0.08 -0.27,-1.13 -3.01,0.37 0.76,-1.36 -1.1,-0.64 1.41,-2.35 -0.05,-1.18 -1.4,1.37 -0.92,-0.55 -0.97,1.29 0.51,0.47 -2.37,-2.01 1.78,-3.1 2.46,0.63 -0.15,0.73 1.84,0.77 2.17,-0.4 1.15,-1.26 -1.81,-1.28 -0.6,-1.42 -3.61,-0.77 1.1,-0.33 0.05,-1.56 -0.55,-0.29 0.74,-0.97 -1.47,-0.99 1.19,-1.73 z m 9.65,15.76 2.92,-0.42 2.7,1.24 1.27,-0.25 0.4,0.85 0.95,-0.52 -1.55,2.78 0.96,1.15 1.71,-0.66 0.14,1.57 -3.6,-0.06 -0.75,-1.02 -3.34,0.27 -0.51,-1.37 -2.58,-1.7 1.01,-2.35 0,0 0.27,0.49 z" 
                fill="rgb(151, 144, 238)" 
                stroke="white" 
                stroke-width=".7px"
                title="Alava" 
                id="ES-VI" 
            />
        </svg>