<svg xmlns="http://www.w3.org/2000/svg" viewBox="197.4473700000001 179.12734 60.3599999999999 54.719999999999914" width="60.3599999999999" height="54.719999999999914">
            <path 
                d="m 239.71737,179.31734 0.65,-0.19 0.33,1.25 0.63,-0.29 -0.07,1.49 1.25,-0.76 2.39,1.82 0.74,-0.36 4.52,1.29 -0.49,3.89 -2.29,4.17 -0.34,2.17 3.68,4.78 5.75,-0.59 1.07,2.07 -0.14,4.24 0,0 -0.99,0.35 1.4,3.09 -1.44,1.53 -1.95,0.05 0,0 -2.76,-2.14 -0.12,-1.08 -1.96,-0.65 -2.01,0.63 -2.87,2.38 -0.73,-1.05 -1.09,0.51 -1.4,1.64 -0.14,2.65 -1.07,0.72 -0.34,1.22 0.61,6.07 -3.4,2.54 -2.48,-0.04 -0.69,-0.98 0.15,-1.1 -1.71,-0.61 -1.61,0.43 0.36,0.55 -3.79,2.27 -2.41,0.63 -1.93,-0.94 -1.98,2.64 -3.06,1.41 -1.48,3.45 -2.1,1.85 -0.36,1.53 0,0 -2.51,-0.3 -3.92,-1.96 0,0 3.22,-3.92 0.3,-3.39 -1.49,-1.09 0.05,-3.8 -2.7,-0.63 0.15,-2.99 -0.8,-0.79 -2.46,0.55 -2.74,-1.41 0,0 0.47,-0.55 -0.52,-3.17 1.08,0.46 1.83,-1.29 0.95,-3.35 -1.82,-1.91 -1.07,0.06 -0.91,-3.86 -3.71,-2.28 1.55,-3.34 0.68,-0.02 0.15,-2.17 -1.15,-2.19 3.67,-5.14 -0.59,-2.1 0,0 3.78,-0.87 2.09,0.66 1.23,-0.74 4.2,4.32 0.73,-1.79 0.89,-0.22 1,2.25 3.69,-2.15 3.6,0.57 -1.39,-3.64 2.33,0.28 -0.26,0.54 1.2,1.75 3.15,-0.43 3.6,0.95 0.94,-1.6 z" 
                fill="rgb(151, 144, 238)" 
                stroke="white" 
                stroke-width=".7px"
                title="Albacete" 
                id="ES-AB" 
            />
        </svg>