<svg xmlns="http://www.w3.org/2000/svg" viewBox="189.54737 238.08734 46.34 47.43999999999997" width="46.34" height="47.43999999999997">
            <path 
                d="m 218.15737,238.08734 1.1,1.08 1.5,-0.46 1.18,1.09 0.44,-0.47 2.94,0.62 -0.77,1.76 0.11,3.67 -0.51,1.05 1.1,3.17 4.04,6.32 1.11,0.82 -0.09,-0.69 2.3,0.34 3.28,2.61 0,0 -1.43,0.81 -3.89,5.01 -1.41,5.9 -1.59,3.13 0.17,1.51 -1.4,0.47 -0.81,1.44 -0.74,0.17 -0.32,2.19 -1.81,1.06 0.03,1.19 -1.4,0.53 -0.46,1.18 -2.16,0.49 -3.1,-3.86 -2.1,-0.79 -2,1.19 -1.7,-0.9 -2.58,0.76 -1.86,3.54 -2.26,1.48 -2.23,0.03 -1.43,-0.94 -0.92,0.44 -2.32,-2.17 -1.57,0.51 -4.69,-0.47 0,0 -0.36,-1.42 3.41,-2.16 -1.22,-2.72 1.15,-0.34 0.28,-1.13 1.4,-0.89 -1.63,-5.2 0.9,0.7 1.58,-0.06 0.6,-2.28 1.48,-1.19 1.1,-3.54 2.03,0.64 0.62,1.38 0.79,-0.41 2.24,0.97 -0.17,-2.8 0.92,-4.2 3.73,-3.28 1.74,-0.44 0.04,-0.71 3,-0.5 -1.01,-4.25 2.32,0.4 -0.23,-2.77 1.43,-3.2 -0.72,-0.5 0.16,-3.35 z" 
                fill="rgb(151, 144, 238)" 
                stroke="white" 
                stroke-width=".7px"
                title="Almería" 
                id="ES-AL" 
            />
        </svg>