<svg xmlns="http://www.w3.org/2000/svg" viewBox="65.57737 5.9073425 81.88 32.6999995" width="81.88" height="32.6999995">
            <path 
                d="m 106.70737,5.9073425 0.93,1.36 0.88,0 -0.31,0.63 1,1.19 1.28,0.74 0.57,-0.3 0.18,1.3699995 1.44,0.13 0.78,-0.75 3.85,0.6 2.61,-0.44 1.7,1.01 1.7,-0.22 2.57,2.62 2.84,-0.48 2.66,1.02 3.37,-0.08 8.36,2.6 4.34,0.33 0,0 -0.81,1.59 0.47,3.25 -0.74,0.4 -0.23,-0.81 -1.57,-0.52 -0.78,1.38 -3.04,0.43 -0.23,2.98 -3.15,0.24 0,0 -1,-2.05 -1.19,-0.3 -1.57,1.02 -1.01,1.65 -2.42,-0.35 -0.79,3.34 -1.41,-0.56 -2.22,1.32 -1.9,0.26 -2.67,-0.72 -0.65,1.89 -2.7,-0.23 -0.47,1.4 -2.34,-0.06 -3.78,-1.41 -1.07,0.58 -1.06,2.98 -1.26,0.36 -3.39,-1.26 -1.29,-1.08 -0.53,-1.94 -1.41,0.42 -1.89,-0.87 -0.46,1.89 -1.3,0.37 -1.28,-1.12 -1.09,0.05 -0.4,1.58 -1.79,-1.15 -1.26,0.21 -1,-1.18 -1.16,0.89 0.08,0.91 -0.51,-0.01 -0.43,1.23 -1.6,-0.18 0.13,1.01 1.21,0.15 0.02,1.02 -1.74,0.81 -6.17,-0.08 -0.97,0.2 -1.04,1.44 -2.07,-1.33 0,0 -0.54,-0.55 0.18,-1.24 -1.09,-1.3 -1.18,-0.05 -1.29,-1.3 -0.3,1.28 -1.07,-1.21 0.47,-0.92 0.53,0.28 -0.05,-1.12 0.86,-1.06 0.69,0.56 1.36,-0.74 1.53,-2.18 -1.24,-1.63 -0.72,1.07 -2.21,0.89 -0.72,-1.31 0.3,-1.57 -1.18,-0.78 -0.32,0.41 -1.27,-1.29 0.06,-2.57 -1.27,0.05 -0.9,-1.1 0.1,-1.78 -1.68,-0.82 0.28,-1.61 2.15,0.14 1.54,-2 0,0 0.63,-2.26 0.76,-0.08 -0.74,-1.19 1.71,-0.02 0.85,-0.7299995 4.14,0.8699995 1.13,-0.6099995 2.97,0.4099995 1.58,-0.6699995 0.89,0.8999995 1.88,0.33 1.98,-0.14 0.05,-0.8999995 1.24,0.7599995 2.29,0.07 3.07,-1.1499995 0.34,-0.8 1.81,1.4299995 1.07,-0.2799995 1.06,0.6299995 2.99,-1.3799995 0.73,0.66 1.03,-0.22 1.36,-1.11 0.07,-0.87 1.51,-0.3 0.76,-1.27 z" 
                fill="rgb(151, 144, 238)" 
                stroke="white" 
                stroke-width=".7px"
                title="Asturias" 
                id="ES-O" 
            />
        </svg>