<svg xmlns="http://www.w3.org/2000/svg" viewBox="109.84736999999996 109.47734 48.40000000000006 43.41000000000008" width="48.40000000000006" height="43.41000000000008">
            <path 
                d="m 128.64737,110.64734 4.14,-1.17 3.87,2.71 1.5,-0.38 0.04,-1.06 0.84,-0.57 1.97,-0.24 0,0 0.27,3.51 2.3,1.28 0.97,2.45 1.24,0.59 0.21,2.85 0.85,1.1 -0.84,0.77 0.39,0.57 1.61,-0.33 0.61,2.38 1.32,1.3 0.35,4.39 3.06,-0.56 0,0 1.91,-0.24 -0.54,-0.92 0,0 2.81,-0.88 0.72,0.33 0,0 -0.04,2.68 -2.48,0.85 -1.46,-1.03 0.01,2.55 -1.2,1.2 0.38,2.79 -0.74,1.45 0.6,0.74 -3.1,0.17 -1.03,3.47 -1.5,0.2 -0.68,-1.2 -0.61,0.11 0.53,1.98 -1.23,1.43 0.26,1.38 -0.56,0.21 0,0 -2.3,0.77 -1.01,-0.51 -0.35,-2.86 -1.93,0.86 -1.32,-0.57 -0.11,1.59 -3.59,2.62 -0.02,1.35 -0.95,0.11 0.05,0.49 -1.8,0.4 -0.16,-1.92 -1.58,0.41 -3.12,2.56 -0.93,0.08 -0.33,-0.96 -3.78,-0.36 0,0 -0.98,-1.93 -0.05,-2.17 0.81,-1.83 -2.66,0.47 -1.26,1.78 -1.84,0.53 -2.43,-0.83 -0.37,-1.22 -0.83,-0.15 -1.33,-1.7 -1.38,-0.08 0,0 1.98,-2.19 -0.56,-2.94 1.75,-1.55 2.25,-0.67 -0.42,1.32 1.45,0.88 0.53,-1.66 1.36,-0.09 1.23,-3.64 -0.38,-0.39 -2.66,1.03 0.26,-1.8 0.47,-0.48 0.04,0.63 1.59,0.08 1.99,-1.65 0.52,-1.13 -0.6,-0.92 5.25,-3.48 -0.14,-0.61 1.76,-1.66 -0.07,-2.2 1.48,-1.37 -0.37,-2.09 0.7,-0.25 0.46,-1.47 -1.93,-2.72 z" 
                fill="rgb(151, 144, 238)" 
                stroke="white" 
                stroke-width=".7px"
                title="Avila" 
                id="ES-AV" 
            />
        </svg>