<svg xmlns="http://www.w3.org/2000/svg" viewBox="60.79737000000001 178.03734 82.45000000000002 59.099999999999994" width="82.45000000000002" height="59.099999999999994">
            <path 
                d="m 142.05737,178.03734 0.56,1.02 -1.14,3.83 -1.67,0.27 1.62,4.38 1.82,1.78 -4.95,-1.37 -1.97,3.96 1.5,1.44 -0.22,0.64 -1.3,0.56 -2.68,-1.05 1.36,4 2.67,0.84 -0.51,2.1 -2.06,-0.21 -0.88,1.3 -1.42,4.49 -1.75,0.42 0,0 -1.65,0.84 -2.57,-0.47 0.51,1.49 -0.53,0.87 -0.7,-0.33 -0.21,0.75 -2.41,1.55 -0.5,1.24 -1.91,-0.24 -0.34,1.66 -0.74,-0.09 -0.37,1.2 -1.85,1.09 -0.16,0.83 -1.08,0.01 -1.48,1.16 -0.51,1.29 0.77,1.28 -0.49,1.48 1.52,2.55 0.15,2.21 -0.55,0.29 0,1.48 -1.4,1.17 0,0 -1.5,-0.25 -2.36,2.21 -0.75,-0.2 -0.18,-1.56 1.41,-0.93 -0.34,-0.74 0.66,0.48 -0.32,-1.14 -1.02,-0.43 -3.79,0.99 -2.3,2.63 0.54,1.61 -1.37,2.62 -4.96,0.53 -2,1.57 0,0 -0.64,-0.81 -3.14,-0.63 -1.51,-1.13 -0.45,-1.61 -1.43,-0.37 -1.18,0.1 -0.4,1.74 -3.59,-0.38 0.06,-1.24 -1.29,-1.72 -4.16,0.17 -0.36,-0.75 -1.41,-0.31 0.64,-2.27 -1.64,0.05 -2.56,-1.21 0,0 -0.15,-0.48 -2.27,0.62 -0.37,0.75 -1.34,-0.04 -0.58,0.67 -2.01,-4.15 -3.96,-5.6 -1.72,-0.63 1.14,-1.32 -0.06,-0.52 -0.64,0.18 0.21,-1.39 2.18,-4.31 -0.89,-0.56 0.4,-3.36 6.76,-5.5 -0.4,-1.66 3.1,-4.59 -0.91,-2.53 -1.45,-1.09 -2.37,0.64 -1.19,-0.37 0.29,-2.46 -3.28,-1.46 0.29,-2.79 0,0 0.87,0.52 1.59,-2.2 -0.79,-0.37 0.5,-1.19 1.31,-0.9 1.72,0.45 -0.5,0.82 -0.73,-0.15 0.66,1.66 1.14,-0.54 1.07,-2.43 -1.77,-1.02 0.54,-0.89 5.1,2.13 2.49,-0.26 0.15,1.77 1.55,0.91 -0.46,1.81 -1.2,1.44 1.02,2.01 2.66,0.44 0.65,-0.86 0.81,0.09 1.63,0.67 0.18,0.84 1.09,0.13 -0.05,-1.05 4.95,0.75 1.59,-0.94 0.98,3.49 1.98,0.32 0.85,1.32 1.51,0.11 0.36,0.87 3.79,-3.84 0.27,3.01 2.09,-2.21 0.52,1.01 2.79,-1.07 0.72,-1.35 1.7,0.48 1.99,1.94 2.65,-0.69 0.62,-0.69 -0.53,-0.64 0.75,-0.65 -1.13,-1.47 1.92,-1.09 0.69,0.96 0.42,-0.72 1.68,2.02 1.41,0.07 2.05,-3.25 0.22,-3.72 2.83,1.24 3.81,-1.37 0.3,-2 0.71,-0.14 1.13,1.12 2.13,-0.37 0.29,-0.87 0.69,-0.05 0,0 0.36,0 0,0 2.14,1.06 3.55,-1.88 0,0 z" 
                fill="rgb(151, 144, 238)" 
                stroke="white" 
                stroke-width=".7px"
                title="Badajoz" 
                id="ES-BA" 
            />
        </svg>