<svg xmlns="http://www.w3.org/2000/svg" viewBox="323.12737 152.56733999999997 95.06999999999994 57.329999999999984" width="95.06999999999994" height="57.329999999999984">
            <path 
                d="m 329.49737,204.00734 0.8,2.25 0.81,0.2 0.63,1.49 1.16,0.67 1.2,-0.72 0.45,1.12 -0.43,0.51 -3.67,-1.36 -2.04,1.73 -0.17,-3.08 1.49,-0.76 -0.23,-2.05 z m 3.46,-12.88 0.78,1.02 1.42,0.08 -0.51,1.13 1.02,1.39 -1.14,0.45 -0.07,1.05 -1.47,0.24 -0.15,1.47 -1.6,1.29 -1.71,0.36 -0.47,2.9 -0.64,-0.49 -0.43,0.56 -0.82,-1.67 -0.76,0.58 -1.47,-0.9 -0.7,0.93 -0.77,-0.6 -0.34,-1.29 0.7,-1.41 -0.65,-0.76 0.44,-0.64 2.41,0.06 -0.71,-0.76 0.18,-1.4 2.11,-1.79 0.54,0.44 0.37,-0.66 0.88,0.07 0.23,-0.57 0.49,0.44 0.71,-0.89 1.08,0.16 1.05,-0.79 z m 51.55,-33.43 -0.36,0.78 -3.74,1.66 0.73,1.75 3.1,-1.29 -0.9,2.07 -1.66,0.18 0.57,2.19 3.52,1.96 2.34,-1.23 0.55,-1.17 2.61,1.78 0.89,-0.13 -0.29,1.05 0.83,0.24 -0.68,0.4 -0.61,2.86 -1.21,0.2 -0.38,1.41 0.59,0.57 -0.77,0.1 -2.52,3.05 -0.66,3.31 -1.31,2.15 -3.51,1.97 -1.37,1.71 -0.72,0.12 -1.09,-1.78 -0.85,-0.21 0.16,-0.83 -1.05,-1.06 -1.34,0.44 -0.98,-0.53 -2.91,0.12 -1.4,-1.74 0.15,-1.41 -0.76,-1.32 0.84,-1.37 -2.35,-1.96 -0.85,-0.21 -1.65,1.34 -1.57,0.28 -0.53,2.68 -0.97,-0.65 -0.53,0.31 -0.51,-2.78 -1.13,0.48 -0.19,-0.63 -0.77,0.73 -0.03,-0.53 -0.75,0.09 0.27,-0.48 -0.78,-0.83 0.49,-1.81 3.07,-1.66 1.98,-1.96 1.78,-0.6 2.67,-3.11 0.68,0.15 0.14,-0.79 2.42,-1.78 2.05,-0.24 3.28,-2.31 1.08,0.42 1.68,-1.12 2.48,0.22 1.31,-1.11 1.42,-0.14 z m 26.63,-5.13 0.57,0.24 0.14,1.62 0.64,-0.51 0.07,1.23 0.28,-1.65 0.57,-0.02 0.56,0.3 -0.37,1.14 0.7,0.41 0.24,-0.53 0.87,1.52 1.54,0.02 -0.47,1.31 0.8,0.5 0.92,2.82 -0.19,1.97 -0.72,0.82 -2.26,-0.56 -6.69,-4.24 -5.13,0.33 0.23,-2.8 -1.07,-0.25 -0.13,-0.61 0.97,-1.46 3.46,-0.45 1.36,0.47 1.48,-0.6 0.81,0.6 0.67,-0.34 0.15,-1.28 z" 
                fill="rgb(151, 144, 238)" 
                stroke="white" 
                stroke-width=".7px"
                title="Balears" 
                id="ES-PM" 
            />
        </svg>