<svg xmlns="http://www.w3.org/2000/svg" viewBox="327.68737000000004 61.837342 43.48000000000002 46.23999800000002" width="43.48000000000002" height="46.23999800000002">
            <path 
                d="m 342.44737,62.537342 1.86,-0.7 5.12,1.31 -1.63,2.43 0.41,0.7 0.71,-0.15 0.22,1.72 -1.71,0.65 0.08,-1.32 -1.29,-0.21 1.19,2.05 1.75,0.57 0.96,-0.36 1.03,1.29 0.58,-0.75 1.73,0.29 0.43,-0.73 1.69,-0.13 0.91,0.45 -0.14,1.3 2.18,-0.77 1.05,0.79 0.53,1.54 1.15,-0.54 1.1,0.44 0.26,2.71 -0.92,0.32 0.59,0.38 -0.42,0.63 -1.39,0.02 1.6,2.17 -1.16,1.15 -1.11,-0.32 -0.75,0.99 -0.4,-0.57 -1.28,0.1 0.72,3.01 2.62,0.29 2.42,1.66 0.97,1.76 3.39,-1.17 3.66,0.5 -0.58,2.31 0.59,1.17 0,0 -6.9,2.94 -5.25,3.42 -3.53,1.46 -4.7,6.929998 -14.35,3.81 0,0 -0.13,-1.61 -0.6,0.49 -1.22,-0.57 -0.35,-0.96 1.52,0.29 0.52,-1.72 -1.49,0.08 0.21,-0.62 -1.11,-1.38 0.59,-0.79 -1.26,-0.93 -0.84,-0.369998 -1.11,0.559998 0.53,-0.839998 -0.46,-1.14 0.62,-0.25 -0.82,-0.34 0.49,-1.26 -2.71,-1.55 0.38,-0.9 1.22,-0.09 -0.54,-0.76 0.72,-0.55 -1.89,-0.24 0,0 0.42,-1.04 -1.44,-0.53 2.78,-1.35 -2.09,-2.42 1.32,-1.11 -0.67,-0.51 0.43,-2.02 1.66,-0.26 -0.31,0.99 1.34,-0.46 0.8,1.45 1.28,-1.21 0.65,0.18 -0.14,-1.07 1.27,-2.25 -0.34,-0.93 -1.54,0.06 2.58,-2 -0.09,-2.09 0.77,-0.12 0.23,0.62 1.12,-0.7 -0.66,-1.24 -0.01,1.21 -1.52,-0.62 0.25,-0.85 0.31,0.72 1.03,-1.07 -0.21,-0.68 -0.63,0.21 0.08,-0.75 0.52,-1.15 0.94,-0.16 -0.72,-1.84 1.24,-1.68 -0.04,-0.53 -1.76,-0.7 0.73,-1.23 -0.43,-1.69 -0.61,-0.19 5.2,-1.08 z m 5.74,7.65 -0.68,0.58 -0.15,-0.75 0.83,0.17 z" 
                fill="rgb(151, 144, 238)" 
                stroke="white" 
                stroke-width=".7px"
                title="Barcelona" 
                id="ES-B" 
            />
        </svg>