<svg xmlns="http://www.w3.org/2000/svg" viewBox="152.96736999999993 25.397342 55.690000000000055 72.33000000000003" width="55.690000000000055" height="72.33000000000003">
            <path 
                d="m 199.04737,42.387342 0.11,0.32 0,0 2.92,-0.42 2.7,1.24 1.27,-0.25 0.4,0.85 0.95,-0.52 -1.55,2.78 0.96,1.15 1.71,-0.66 0.14,1.57 -3.6,-0.06 -0.75,-1.02 -3.34,0.27 -0.51,-1.37 -2.58,-1.7 1.01,-2.35 0,0 0.16,0.17 z m -18.02,-14.26 5.04,-2.73 0.9,1.19 2.05,-0.32 0.49,0.68 0,0 -1.24,1.7 1.47,0.99 -0.74,0.97 0.55,0.29 -0.05,1.56 -1.1,0.33 3.61,0.77 0.6,1.42 1.82,1.28 -1.15,1.26 -2.17,0.4 -1.84,-0.76 0.15,-0.72 -2.45,-0.63 -1.78,3.1 2.37,2.01 -0.51,-0.47 0.97,-1.29 0.92,0.55 1.41,-1.37 0.06,1.18 -1.41,2.35 1.1,0.64 -0.76,1.36 3.02,-0.37 0.27,1.13 0.75,-0.08 1.1,1.53 1.54,-0.18 0.86,0.61 0.2,1.6 1.17,0.7 0,0 -1.78,0.78 -0.93,-0.82 -4.22,-0.06 0.75,2.14 -2.28,1.96 1.92,0.6 -0.7,1.64 1.49,1.78 -0.53,0.84 0.17,2.27 -0.63,-1.89 -0.71,-0.04 -0.09,1.3 0.6,0 0.65,1.21 -1.4,0.17 0.63,4.39 -1.25,1.91 2.92,4.68 3.17,-0.03 0.54,2.63 0,0 0,0 0,0 -1.13,1.19 -0.62,2.66 -1.14,0.29 -0.27,1.45 -2.47,0.24 -1.2,2.84 -1.08,0.78 -0.71,-1.47 -2.74,-2.25 0.26,4.72 -2.38,1.26 -0.17,1.82 -1.07,0.12 -2.02,4.13 -2.15,-0.94 -0.65,0.66 0.27,0.78 0,0 -3.99,0.7 -1.74,1.75 -0.34,2.73 -0.93,-0.38 0.06,-3.22 -1.1,0.5 0.49,1.67 -1.11,0.19 -2.17,-2.9 -2.64,-1.27 0,0 -0.77,-1.47 -0.9,-0.05 0.28,-2.94 -1.54,-1.38 1.09,-1.73 0,0 0.09,-0.88 -1.6,-1.68 0.04,-1.63 1.57,-0.09 1.75,-1.14 -0.02,-1.24 1.37,-1.08 1.36,-0.02 0.03,-1.61 -4.34,1.75 0.56,-1.83 1.34,-1.42 -0.35,-0.75 -1.74,-0.08 -1.25,0.68 -0.71,-2.07 0.78,0.18 0.65,-0.75 -1.99,-1.13 -0.65,0.36 -1.94,-0.62 0.52,-1.72 -1.31,-1.32 -1.27,-7.33 -1.5,0.24 -0.41,-1.66 0.55,-1.62 2.29,0.11 -0.14,-1.59 -1.2,-0.72 0.26,-1.36 -0.79,-0.44 -0.06,-0.64 1.06,-0.44 -0.67,-1.02 0.88,-0.5 -0.9,-3.03 0.81,-0.6 0.3,0.72 3.4,-2.66 1.12,0.76 0.87,-1.15 0,0 1.09,-0.21 0,0 1.42,-0.1 0,0 0.64,0.45 2.09,-0.43 0.51,-1.51 0.95,0.75 1.45,-1 -0.64,-2.84 -0.83,-0.46 -0.5,1.6 -1.08,-0.4 0.55,-0.81 -0.82,-0.37 0.96,0.08 -0.46,-1.13 1.2,0.65 1.08,-0.79 -0.18,-0.91 -1.47,-0.37 -0.12,0.97 -1.3,1.08 0.12,-0.63 -1.41,0.05 -0.55,-0.8 1.39,-3.13 1.11,-0.43 0.57,-1.08 1.28,0.03 0.53,-0.95 -0.47,-0.86 2.76,-0.03 0.03,-0.59 1.57,-0.72 1.65,-2.71 1.18,0.48 0.27,0.83 5.71,0.69 z m -19.88,40.32 0.11,1.32 -1.47,-0.48 -0.05,-0.63 1.41,-0.21 z" 
                fill="rgb(151, 144, 238)" 
                stroke="white" 
                stroke-width=".7px"
                title="Burgos" 
                id="ES-BU" 
            />
        </svg>