<svg xmlns="http://www.w3.org/2000/svg" viewBox="88.27737 271.65734 41.550000000000026 39.36000000000007" width="41.550000000000026" height="39.36000000000007">
            <path 
                d="m 91.63737,277.23734 1.62,-0.46 0.75,0.65 3.02,0.33 1.57,1.07 6.55,0.57 0.45,-2.01 0.95,-0.78 3.94,-0.16 1.51,-2.16 1.52,1.36 0.93,-0.24 0.16,1.23 1.51,0.82 -0.37,-1.41 2.33,-2.05 -1.27,-1.9 0.43,-0.23 2.11,-0.21 0.21,1.3 -1.19,1.27 0.65,1.63 4.2,-3.9 2.06,3.68 2.84,-2.4 0,0 1.44,1.36 -0.45,0.34 0.72,2.07 -1.45,2.54 -1.11,0.57 -3.05,-2.32 -0.98,0.56 -1.2,1.92 1.53,1.69 -1.03,1.95 0.02,1.93 -1.69,1.55 -2.36,0.5 -0.15,1.17 -1.88,2.17 -2.24,-0.73 -0.51,0.35 0.11,1.12 2.58,0.55 0.96,-1.46 1.86,0.07 2.61,4.39 0.83,3.55 1.3,-0.45 0.78,0.99 0,0 -2.1,3.34 -0.56,2.58 -1.48,-0.98 -1.58,0.58 0.24,3.59 -5.33,2.29 -2.58,-2.22 -0.68,0.4 -2.04,-1.15 -0.67,0.38 -3.37,-3.94 -3.85,0.08 -1.6,-3.41 -1.74,-0.99 -5.06,-8.94 1.13,-0.18 1.33,2.82 1.65,-2.26 -2.06,0.6 -0.43,-0.86 0.82,0.11 -0.03,-2.32 -1.06,0.32 -1,-1.43 -2.74,-0.44 -1.56,-3.36 -0.13,-0.86 2.85,-2.19 0,0 -0.13,-2.23 0.64,-1.71 z" 
                fill="rgb(151, 144, 238)" 
                stroke="white" 
                stroke-width=".7px"
                title="Cadiz" 
                id="ES-CA" 
            />
        </svg>