<svg xmlns="http://www.w3.org/2000/svg" viewBox="137.07736999999997 12.087341999999998 52.089999999999975 31.740000000000002" width="52.089999999999975" height="31.740000000000002">
            <path 
                d="m 184.70737,25.057342 -0.21,-2.18 1.69,-0.04 -0.6,1.07 0,0 0.12,1.17 0,0 -1,-0.02 z m -8.83,-12.97 0.01,0.56 1.39,-0.07 -0.21,0.83 0.82,-0.57 0.28,0.98 2.57,0.64 -0.31,0.94 -0.78,-0.14 -0.33,-0.09 -0.44,-0.26 0.78,2.4 0.54,-1.3 0.69,0.51 3.05,-0.43 0.11,1.27 0.41,-0.85 2.57,0.56 0.33,0.92 1.81,0.91 0,0 -0.12,2.18 -1.6,0.75 -0.48,-1.07 -1.66,0.79 -1.63,-0.5 -0.24,1 -3.33,1.76 0.95,4.31 0,0 -5.7,-0.68 -0.27,-0.83 -1.18,-0.48 -1.65,2.71 -1.57,0.72 -0.03,0.59 -2.76,0.03 0.47,0.86 -0.53,0.95 -1.28,-0.03 -0.57,1.08 -1.11,0.43 -1.39,3.13 0.51,0.8 1.33,-0.12 -0.12,0.63 1.3,-1.08 0.12,-0.97 1.47,0.38 0.18,0.91 -1.07,0.79 -1.2,-0.64 0.46,1.13 -0.96,-0.08 0.83,0.37 -0.55,0.81 1.08,0.4 0.51,-1.6 0.83,0.46 0.64,2.85 -1.45,1 -0.95,-0.75 -0.51,1.51 -2.08,0.43 -0.64,-0.45 0,0 -0.12,-2.6 -1.3,2.7 0,0 -1.09,0.21 0,0 -0.53,-1.24 -1.58,0.08 -1.01,-0.88 1.66,-1.5 -0.48,-0.93 -1.69,1 -0.6,-0.24 -0.6,-4.33 -3.34,-0.74 -1.56,-2.62 -1.52,-0.99 -0.86,0.83 -1.39,-0.36 -1.15,1.17 -1.46,-0.68 -0.98,0.8 -3.03,-0.18 0,0 -0.21,-1.48 -0.68,0.04 -0.01,-0.79 -2.61,-2.15 0.32,-2.3 0,0 3.15,-0.23 0.23,-2.98 3.04,-0.43 0.78,-1.38 1.57,0.52 0.23,0.82 0.74,-0.4 -0.47,-3.25 0.81,-1.59 0,0 4.02,0.13 1.04,-0.69 0.62,0.68 3.26,-0.14 5.34,-2.19 0.32,0.49 0.44,-0.62 1.15,0.12 0.02,0.67 1.19,-1.73 4.95,-0.88 -0.11,0.66 0.76,0.36 -1.76,0.81 -0.28,0.66 0.77,0.16 -0.75,0.77 0.45,0.37 1.05,-0.82 -0.33,-0.46 0.6,-0.69 1.05,0.73 -0.31,-1.03 0.73,-0.73 3.34,-0.94 0.84,-0.88 z m -15.43,29.2 -0.38,1.02 -0.18,-1.41 0.56,0.39 z" 
                fill="rgb(151, 144, 238)" 
                stroke="white" 
                stroke-width=".7px"
                title="Cantabria" 
                id="ES-S" 
            />
        </svg>