<svg xmlns="http://www.w3.org/2000/svg" viewBox="260.11737 124.55733999999998 41.62000000000012 43.02000000000004" width="41.62000000000012" height="43.02000000000004">
            <path 
                d="m 261.42737,160.93734 -1.31,-1.75 0.08,-2.06 1.84,-0.87 0.74,-1.93 2.17,0.1 2.13,-1.03 -0.46,-1.28 1.54,-1.44 1.05,-4.55 1.52,0.92 2.04,-0.6 1.36,-0.84 -0.2,-1.63 0.73,0.02 0.79,-1.4 1.79,-1.01 -1.99,-3.16 2.29,-1.19 -0.89,-1.7 0.26,-3.83 -2.37,-0.1 -0.23,-2.17 1.51,-0.52 0.67,0.84 2.18,-1.27 0.37,-2.54 0.82,-1.22 0.99,-0.17 3.08,2.47 2.47,-0.04 0.81,1.51 0.94,-0.94 3.01,-0.75 0,0 1.7,-0.01 0.3,1.25 1.72,0.55 -0.72,1.17 0.32,1.19 0,0 3.78,1.11 0,0 1.29,0.97 -0.18,1.25 2.37,0.97 0,0 -3.55,6.64 -3.45,4.19 -0.7,1.81 -2.22,1.46 -1.36,3.59 -3,1.86 -1.7,4.81 -2.51,2.36 -3.09,5.3 0,0 -2.21,-0.87 -2.06,-2.28 -1.52,0.06 -0.51,1.58 -1.89,1.81 -2.28,-3.23 -1.43,0.91 -0.34,1.25 -1.31,-0.18 -0.65,-0.31 -0.12,-3.26 -1.07,-0.66 -1.21,1.49 -2.13,-2.65 z" 
                fill="rgb(151, 144, 238)" 
                stroke="white" 
                stroke-width=".7px"
                title="Castellón" 
                id="ES-CS" 
            />
        </svg>