<svg xmlns="http://www.w3.org/2000/svg" viewBox="21.037370000000003 388.70733999999993 33 18.360000000000014" width="33" height="18.360000000000014">
            <path 
                d="m 36.17737,403.83734 -1.21,0.7 -1.67,2.53 -1.01,-0.15 -0.8,-1.19 -1.05,0.9 -0.91,-0.11 -1.65,-2.14 -3.73,-1.49 -1.54,-5.52 0.08,-3.63 -1.65,-2.81 1.01,-1.43 4.54,-0.79 3,2.73 2.28,1.05 0.73,2.41 3.18,3.14 0.9,0.15 0,-0.72 2.65,-2.16 0.63,0.91 -0.45,0.83 2.41,2.78 1.38,0.4 2.51,-1.6 1.07,0.19 0.55,-3.1 2.83,-1.8 0.44,-1.11 1.89,2.6 1.45,0.07 -0.21,2.59 -0.84,-0.09 -1.48,1.86 -1.89,0.73 -0.92,-0.29 -3.43,2 -4.04,-1.22 -2.71,3.42 z" 
                fill="rgb(151, 144, 238)" 
                stroke="white" 
                stroke-width=".7px"
                title="Ceuta" 
                id="ES-CE" 
            />
        </svg>