<svg xmlns="http://www.w3.org/2000/svg" viewBox="131.08737000000013 173.05734000000004 73.92000000000002 48.349999999999966" width="73.92000000000002" height="48.349999999999966">
            <path 
                d="m 134.29737,180.22734 1,-3.9 1.38,-2.47 3.43,2.17 -0.12,3.39 0,0 -3.55,1.88 -2.14,-1.07 z m 7.76,-2.19 2.13,-0.16 -0.01,-1.2 1.55,-0.5 0.21,-1.44 0.56,-0.41 0.36,0.49 0.18,-1.18 1.33,0.9 -0.89,0.66 1.52,1.73 0.55,-1.76 2.04,1.08 4.15,0.72 1.5,-0.69 1.06,-3.22 1.05,0.52 2.54,-0.47 0.36,2.12 -0.91,0.01 -0.26,2.57 -1.53,0.01 -0.92,3.72 0.85,0.01 0.49,0.85 0.95,-0.96 3.1,0.52 0.21,2.13 3.32,1.57 1.98,-1.33 2.16,0.89 1.3,-1.13 4.53,-0.23 1.71,-1.54 0.2,-1.15 1.85,-1.28 3.1,0.22 -0.2,-1.37 0.66,-1.47 3.35,-0.13 0.02,-0.55 1.26,-0.3 2.27,1.79 1.44,-0.27 0.71,0.61 1.31,-0.22 0.78,-0.96 0,0 1.88,3.18 -0.7,1.28 1.46,0.37 1.61,-1.91 0.52,0.12 1.04,3.03 0,0 0.59,2.11 -3.67,5.14 1.16,2.19 -0.15,2.17 -0.68,0.02 -1.55,3.33 3.71,2.28 0.91,3.86 1.07,-0.06 1.83,1.91 -0.95,3.34 -1.83,1.29 -1.08,-0.46 0.52,3.17 -0.47,0.55 0,0 -3.66,3.13 -0.74,-0.67 -1.77,-0.06 -0.92,0.83 -0.28,1.63 -1.92,-2.73 -2,1.54 -4.6,-0.84 -1.43,-0.85 -1.49,0.27 -0.05,1.39 -2.35,1.54 -2.31,-0.33 -0.43,-1.45 -1.25,-0.22 -0.47,2.07 -5.75,-1.04 -1.36,0.49 -0.74,1.47 -1.79,0.24 -7.47,-0.48 -3.05,-0.8 -0.64,0.43 0.24,1.7 0,0 -5.65,-2.09 -1.85,-2.46 -1.61,-1.04 -0.86,0.17 -0.88,-1.45 -2.48,-1.14 -0.13,-0.76 -4.69,-1.64 -0.52,-2.82 -3.92,-0.35 -0.1,-0.79 -1.19,-0.54 0,0 1.75,-0.42 1.43,-4.49 0.88,-1.3 2.06,0.21 0.51,-2.1 -2.67,-0.84 -1.36,-4 2.68,1.05 1.3,-0.56 0.21,-0.64 -1.49,-1.44 1.97,-3.96 4.95,1.36 -1.82,-1.77 -1.62,-4.38 1.67,-0.27 1.14,-3.83 -0.62,-1.08 z" 
                fill="rgb(151, 144, 238)" 
                stroke="white" 
                stroke-width=".7px"
                title="Ciudad Real" 
                id="ES-CR" 
            />
        </svg>