<svg xmlns="http://www.w3.org/2000/svg" viewBox="114.60737000000002 206.43733999999998 48.580000000000055 59.91" width="48.580000000000055" height="59.91">
            <path 
                d="m 131.44737,248.70734 0.47,1.93 -2.02,-2.16 1.55,0.23 z m -0.41,-42.27 1.19,0.54 0.11,0.79 3.92,0.35 0.52,2.82 4.69,1.64 0.13,0.76 2.48,1.14 0.88,1.45 0.86,-0.17 1.61,1.04 1.85,2.47 5.65,2.09 0,0 0.96,0.22 -0.04,1.02 0.88,0.55 -0.19,2.13 0.63,0.36 1.06,3.61 -1.74,1.33 0.12,0.83 -1.16,1.05 0.36,0.61 -0.87,0.26 0.28,0.68 -0.68,-0.02 0.72,3.41 -0.85,5.35 2.46,0.69 -0.98,2.28 1.69,0.49 0.59,0.99 -1.95,1.62 0.21,0.66 1.45,0.48 2.33,3.8 1.18,0.23 -0.85,0.75 1.2,0.69 1.45,2.54 0,0 -2.61,-0.06 -2.21,2.37 -1.41,-0.41 -0.99,0.66 -0.58,4.08 -2.22,1.74 0,0 0.15,-0.77 -1.53,-0.43 -0.33,-2.36 -1.86,-0.02 -1.28,1 -0.18,0.94 -1.46,0.62 -1.93,0.08 -0.35,-1.76 -1.22,-0.03 0,0 -1.03,-3.28 -1,-0.65 -0.32,0.88 -1.6,0.26 -1.23,-1.14 0.22,-0.75 -1.07,-1.26 0.3,-0.93 -1.37,-0.12 -0.65,-2.38 -1.32,-0.85 0.53,-3.68 -1.3,0.67 0.62,-2.03 -1.41,-2.09 -1.47,-0.45 -0.76,0.41 -0.58,1.07 0.64,0.74 -0.84,-0.37 -0.32,-1.16 -0.66,0.06 0.67,1.4 -1.29,0.06 -0.82,-0.76 -5.57,3.66 -1.72,-2.33 0.63,-0.41 -0.56,-1.03 0.73,-0.55 0.4,0.77 1.12,-1.1 0.35,0.57 0.6,-0.29 -0.07,-2.9 -1.22,-0.77 0.16,-1.77 -2.15,-1.15 -0.02,-2.86 -2.38,-2.02 -0.07,-1.81 -2.74,-3.47 0,0 1.41,-1.16 0,-1.48 0.55,-0.29 -0.15,-2.21 -1.52,-2.55 0.49,-1.48 -0.76,-1.27 0.5,-1.29 1.49,-1.16 1.08,-0.01 0.15,-0.83 1.86,-1.09 0.36,-1.2 0.74,0.09 0.34,-1.66 1.91,0.24 0.5,-1.24 2.41,-1.54 0.21,-0.76 0.71,0.33 0.53,-0.87 -0.51,-1.49 2.57,0.47 1.56,-0.92 z" 
                fill="rgb(151, 144, 238)" 
                stroke="white" 
                stroke-width=".7px"
                title="Cordoba" 
                id="ES-CO" 
            />
        </svg>