<svg xmlns="http://www.w3.org/2000/svg" viewBox="188.89737000000002 129.78733999999997 61.95000000000002 57.09000000000009" width="61.95000000000002" height="57.09000000000009">
            <path 
                d="m 191.76737,149.90734 0.12,-0.43 1.45,0.63 0.32,-2.24 2.86,2.05 1.21,-0.66 0.32,-1.06 1.28,-0.2 0.58,-2.36 -0.44,-4 1.1,-3.22 1.78,1.89 0.17,-0.92 0.82,1 0.31,-0.31 -0.72,-0.79 0.87,-1.03 0.38,0.48 2.39,-0.56 2.15,1.04 0.33,-0.98 -1.22,-1.05 0.53,-2.8 0.96,1.43 2.14,-1.28 0.44,0.6 0.98,-0.72 -1.12,-1.49 0.12,-0.86 1.22,-0.21 0.9,1.52 1.4,-0.14 0.71,-2.89 1.87,1.03 1.33,-0.43 0.41,-1.16 0.71,0.11 4.55,2.84 0.63,-1.05 1.18,0.7 2.15,6.64 1.54,1.23 0,0 3.33,3.09 -0.96,0.72 0.3,1.05 0.89,-1.31 4.6,4.76 0.9,-0.51 1.12,0.74 1.09,-0.47 -0.3,2.06 0,0 -0.23,0.58 1.49,1.18 -0.38,0.31 1.33,3.08 3.95,0.85 2.54,-0.6 0,0 0.7,1.53 0,0 -2.02,1.12 0.26,3.36 -0.47,2.02 -1.85,2.85 0.41,1.51 -0.54,0.84 -1.02,0.29 -1.71,-0.76 -1.51,1.38 -1.36,3.11 -1.29,0.5 -0.51,5.25 0.75,0.1 -0.27,0.43 0,0 -7.18,3.83 -0.94,1.6 -3.6,-0.95 -3.15,0.43 -1.2,-1.75 0.26,-0.54 -2.33,-0.28 1.39,3.64 -3.6,-0.57 -3.69,2.15 -1,-2.25 -0.89,0.22 -0.73,1.79 -4.2,-4.32 -1.23,0.74 -2.09,-0.66 -3.78,0.87 0,0 -1.04,-3.03 -0.52,-0.12 -1.61,1.92 -1.46,-0.38 0.71,-1.28 -1.88,-3.18 0,0 0.71,-6.77 -2.75,-3.04 -2.41,-5.44 -1.56,-0.76 0.92,-2.34 0.02,-2.13 -1.41,0.08 -0.58,-3.2 0,0 1.33,0.13 1.76,-1.14 0.13,-0.91 -1.24,-1.17 0.26,-0.82 z" 
                fill="rgb(151, 144, 238)" 
                stroke="white" 
                stroke-width=".7px"
                title="Cuenca" 
                id="ES-CU" 
            />
        </svg>