<svg xmlns="http://www.w3.org/2000/svg" viewBox="339.0573699999997 54.757342 48.76000000000016 34.80000000000002" width="48.76000000000016" height="34.80000000000002">
            <path 
                d="m 348.18737,70.187342 -0.68,0.58 -0.15,-0.75 0.83,0.17 z m -1.23,-13.47 -1.01,-0.44 0.63,-1.52 1.15,1.7 -0.77,0.26 z m -7.01,-1.71 1.92,0.08 2.07,1.6 1.41,-0.27 0.85,2.98 1.56,1.46 2.11,-0.61 1.37,-2.14 2.4,-0.14 1.52,-0.89 5.43,1.88 1.53,2.21 1.32,0.27 1.38,-1.04 3.08,0.74 -0.6,-1.92 0.59,0.01 0.02,-0.7 1.9,-0.87 2.01,0.27 1.25,-1.7 2.41,0.13 0.88,-1.09 0.63,0.7 2.03,-0.38 1.6,2.03 2.71,-0.4 -0.33,3.11 4.82,1.61 -0.92,0.62 -0.26,2.17 -0.86,0.06 0.33,0.64 -1.11,-0.58 -0.32,0.79 -1.69,-1.35 -1.56,2.23 0.37,3.43 1.62,0.68 1.1,1.75 -0.58,1.85 0.51,2.13 0.73,0.42 -0.95,2.89 -2.22,2.08 -0.91,-0.12 -1.36,2.37 -2.42,1.18 -1.31,1.76 -3.18,0.85 -1.66,1.77 0,0 -0.59,-1.17 0.58,-2.31 -3.66,-0.5 -3.38,1.17 -0.97,-1.76 -2.42,-1.66 -2.62,-0.29 -0.72,-3.01 1.28,-0.1 0.4,0.57 0.75,-0.99 1.11,0.32 1.16,-1.15 -1.6,-2.17 1.39,-0.02 0.42,-0.63 -0.59,-0.38 0.93,-0.32 -0.26,-2.71 -1.1,-0.44 -1.15,0.54 -0.52,-1.54 -1.05,-0.79 -2.18,0.77 0.14,-1.3 -0.91,-0.45 -1.68,0.13 -0.43,0.73 -1.73,-0.29 -0.58,0.75 -1.03,-1.29 -0.96,0.36 -1.75,-0.57 -1.19,-2.04 1.29,0.21 -0.08,1.32 1.71,-0.65 -0.22,-1.72 -0.71,0.15 -0.41,-0.69 1.63,-2.43 -5.12,-1.31 -1.86,0.7 0,0 -0.23,-2.03 0.61,-0.58 -0.77,-0.49 -0.73,0.47 -0.14,-2.27 -2.14,-0.64 -0.03,-2.16 0,0 0.89,0.11 z" 
                fill="rgb(151, 144, 238)" 
                stroke="white" 
                stroke-width=".7px"
                title="Girona" 
                id="ES-GI" 
            />
        </svg>