<svg xmlns="http://www.w3.org/2000/svg" viewBox="153.10736999999995 231.58734 65.05000000000004 53.47999999999999" width="65.05000000000004" height="53.47999999999999">
            <path 
                d="m 207.61737,231.58734 3.92,1.96 2.51,0.3 0,0 4.11,4.24 0,0 -2.67,1.56 -0.16,3.35 0.72,0.5 -1.43,3.2 0.23,2.77 -2.32,-0.4 1.01,4.25 -3,0.5 -0.04,0.71 -1.74,0.44 -3.73,3.28 -0.92,4.2 0.17,2.8 -2.24,-0.97 -0.79,0.41 -0.62,-1.38 -2.03,-0.64 -1.1,3.54 -1.48,1.19 -0.6,2.28 -1.58,0.06 -0.9,-0.7 1.63,5.2 -1.4,0.89 -0.28,1.13 -1.15,0.34 1.22,2.72 -3.41,2.16 0.36,1.42 0,0 -6.43,0.46 -2.52,1.71 -1.9,-0.12 -1.01,-1.03 -1.2,0.35 -1.49,-1.12 -1.7,-0.08 -2.16,1.04 -1.5,-0.69 0,0 0.28,-2.48 -1.81,-2.04 -1.24,0.18 -1.9,-1.23 -3.62,-0.79 -1.61,-1.88 -2.05,-0.16 -1.98,-2.29 -1.27,0.07 -0.44,-4 -1.25,-2.49 0,0 2.22,-1.73 0.58,-4.08 1,-0.66 1.4,0.41 2.22,-2.36 2.61,0.06 0,0 1.53,0.91 3.37,-0.3 1.71,-4.03 0.28,0.56 4.58,-2.01 3.7,-3.42 3.29,2.05 3.14,-0.92 1.06,-1.98 1.43,-0.19 1.34,0.05 2.47,1.79 1.23,-0.84 2.25,0.6 0.01,-1.2 2.88,-1.83 -0.54,-0.31 -0.07,-2.39 0.73,-0.34 2.92,-6.08 1.91,-1.76 0.87,-0.46 0.73,0.51 1.99,-1.41 -0.02,-2.49 z" 
                fill="rgb(151, 144, 238)" 
                stroke="white" 
                stroke-width=".7px"
                title="Granada" 
                id="ES-GR" 
            />
        </svg>