<svg xmlns="http://www.w3.org/2000/svg" viewBox="177.32737000000003 102.69734 61.45000000000002 47.41999999999999" width="61.45000000000002" height="47.41999999999999">
            <path 
                d="m 182.62737,130.56734 -0.17,0.58 0,0 -0.34,-0.19 0,0 0.51,-0.39 z m 4.86,-26.92 4.46,1.25 3.43,-0.78 1.33,-1.42 1.16,0.43 0.06,1.73 1.37,0.73 1.43,0.27 0.45,-0.97 1.36,-0.07 0.22,0.96 1.95,0.48 0.52,1.02 1.22,-0.38 -0.11,0.96 -0.89,0.53 1.35,0.35 -0.55,1.13 0.63,0.49 1.2,-0.94 0.85,1.77 0.87,0.21 0.34,1.44 1.55,0.83 1.95,-1.17 0.98,1.21 1.84,-0.45 0.96,-1.19 1.74,0.54 1.33,-1.39 2.31,1.96 0.15,-3.13 0,0 2.84,-1.04 0.82,1.38 3.99,2 5.68,5.89 0,0 -0.09,2.6 2.39,2.76 0.07,2.04 -0.68,0.85 0.81,2.13 -0.9,2.91 0.59,0.79 -1.63,1.33 -2.43,-1.16 -0.73,2.12 0.29,2.07 -1.72,0.96 -1.77,2.6 0,0 -1.54,-1.23 -2.15,-6.65 -1.17,-0.69 -0.63,1.04 -4.55,-2.84 -0.71,-0.11 -0.41,1.16 -1.33,0.43 -1.86,-1.03 -0.71,2.9 -1.4,0.14 -0.89,-1.52 -1.22,0.2 -0.12,0.87 1.12,1.49 -0.98,0.72 -0.44,-0.6 -2.14,1.28 -0.96,-1.43 -0.53,2.8 1.23,1.04 -0.33,0.98 -2.15,-1.04 -2.39,0.56 -0.38,-0.48 -0.86,1.02 0.71,0.8 -0.3,0.3 -0.82,-0.99 -0.17,0.91 -1.78,-1.89 -1.1,3.23 0.44,4 -0.58,2.36 -1.28,0.2 -0.33,1.06 -1.21,0.66 -2.85,-2.05 -0.32,2.24 -1.45,-0.63 -0.12,0.43 0,0 -1.28,-5.11 -1.95,2.05 -0.69,-0.55 2,-6.31 -0.78,-1.37 -1.31,-0.12 -0.06,-2.91 -1.51,-1.17 -1.45,0.26 0.42,-1.37 -1.44,-1.04 -0.22,-1.13 0.62,-1.16 -0.66,0.71 -1.67,-2.26 -0.36,0.91 -1.92,-0.79 1.02,-1.65 -0.52,-0.29 0.23,-0.92 -0.69,-0.95 -1.37,-0.18 1.05,-1.52 0.1,-1.54 0.99,-0.47 -0.59,-1.3 0.48,0.01 0.81,-3.21 0.72,-0.51 -1.34,-1.72 0.38,-1.65 -1.91,-0.43 -1.59,-2.88 0,0 2.24,-0.74 0.7,-1.3 1.28,0.07 -0.22,-1.91 2.25,0.31 2,-0.9 0.5,0.71 1.41,-1.94 z" 
                fill="rgb(151, 144, 238)" 
                stroke="white" 
                stroke-width=".7px"
                title="Guadalajara" 
                id="ES-GU" 
            />
        </svg>