<svg xmlns="http://www.w3.org/2000/svg" viewBox="206.03736999999998 17.207342 26.810000000000002 20.860000000000003" width="26.810000000000002" height="20.860000000000003">
            <path 
                d="m 230.90737,17.207342 -0.18,1.96 1.91,0.72 0.21,1.41 0,0 -1.66,0.39 -0.36,1.68 -2.01,1.45 -0.22,-0.76 -0.44,0.99 -1.05,-0.68 -0.13,3.06 0.56,0.61 -3.7,2.94 -0.48,3.52 -1.75,0.36 -1.05,1.38 -1.58,0.18 -0.9,-0.62 -1.24,2.27 0,0 -1.19,-0.28 -0.39,-0.99 -1.61,-1 -5.54,-0.98 -0.22,0.97 -1.18,-0.59 -0.67,-0.75 0.19,-1.13 1.44,-0.44 0.76,-1.03 -0.67,-1.83 0,0 1.4,-0.35 -0.27,-2.72 0.77,-0.42 -0.4,-2.05 1.88,-0.98 0.56,-1.02 -0.57,-1.33 0.75,-0.91 0,0 1.81,1.01 2.12,0.1 1.71,-0.69 1.56,1 1.55,-0.13 6.13,-1.88 z" 
                fill="rgb(151, 144, 238)" 
                stroke="white" 
                stroke-width=".7px"
                title="Guipúzcoa" 
                id="ES-SS" 
            />
        </svg>