<svg xmlns="http://www.w3.org/2000/svg" viewBox="55.057369999999985 226.7873400000001 43.00000000000005 54.41999999999999" width="43.00000000000005" height="54.41999999999999">
            <path 
                d="m 71.64737,265.12734 1.03,1.97 -2.63,-1.61 -7.39,0.12 -3.03,1.17 -0.92,-0.21 -0.92,-2.78 0.37,-0.91 -0.63,-1.44 0.05,-3.06 -0.68,-0.69 0.53,-0.4 -0.56,-2.61 -1.81,-2.64 0.58,-1.89 1.85,-2.31 0.68,-3.64 2.98,-2.2 1.25,-2.05 1.08,-3.32 -0.43,-0.98 1.85,-0.91 0.89,0.41 1.62,-0.46 -0.23,-0.96 0.91,-0.56 1.59,1.15 1.37,-0.31 0.44,-3.09 1.09,-1.97 -0.52,-0.53 1.15,-1.63 0,0 2.55,1.21 1.64,-0.05 -0.64,2.27 1.41,0.32 0.35,0.75 4.17,-0.17 1.29,1.72 -0.05,1.24 3.59,0.38 0.4,-1.74 1.18,-0.1 1.43,0.37 0.45,1.61 1.51,1.13 3.13,0.63 0.65,0.81 0,0 0.34,1.23 0.75,-0.42 0.61,0.6 -1.2,1.63 1.29,1.77 -0.37,1.13 -1.65,-0.85 -0.85,0.72 -0.2,1.99 -0.93,-0.12 0.01,-0.78 -1.81,-0.07 -4.27,1.78 -0.72,-0.25 -0.88,2.26 -1.04,0.61 0.25,1.36 4.08,0.19 0.08,2.2 2.63,4.58 -0.18,0.63 -1.34,0.25 -0.18,1.4 0.49,0.39 -1.18,1.09 1.58,1.48 -0.82,2.34 0.73,2.63 -0.72,1.2 0.53,0.59 -1.35,1.86 0.99,3.38 -0.76,1.97 1.47,1.37 0,0 -0.68,1.67 0.13,2.23 0,0 -1.48,-0.5 -1.54,-3.66 -2.23,-2.72 -10.89,-6.58 -2.4,-2.68 -0.91,0.06 z" 
                fill="rgb(151, 144, 238)" 
                stroke="white" 
                stroke-width=".7px"
                title="Huelva" 
                id="ES-H" 
            />
        </svg>