<svg xmlns="http://www.w3.org/2000/svg" viewBox="257.2373700000003 36.97734199999999 52.339999999999804 64.88999799999996" width="52.339999999999804" height="64.88999799999996">
            <path 
                d="m 258.25737,44.437342 0.01,-0.74 0.84,0.07 0.79,-1.13 -0.28,-2.54 1.17,-0.93 -0.02,-1.31 1.1,-0.88 1.71,0.1 0,0 -0.01,1.12 1.88,0.67 1.99,1.88 0.04,1.2 0.96,-0.18 0.03,1.06 1.18,-0.42 0.75,-1.49 1.85,1.3 1.61,-0.17 2.44,-1.97 3.79,2.51 0.91,-0.45 1.65,3.21 1.15,0.09 0.22,1 1.44,0.41 5.86,-2.15 2.55,0.84 1.09,1.79 2.01,-2.1 1.89,1.4 4.76,-0.15 0.61,-0.49 1.93,0.61 0,0 1.48,2.9 1.82,0.41 -0.55,3.17 -0.86,0.4 0.55,0.83 -1.5,0.73 1.7,4.26 -0.7,0.79 1.48,0.62 -0.95,0.57 0.74,0.6 -1.9,5.47 0.35,1.1 -1.91,5.65 0.17,1.01 -2.93,2.61 1.4,0.78 -0.45,1.43 0.44,0.5 -0.83,0.88 -0.7,-0.14 -0.46,1.39 -1.81,0.77 -0.42,1.47 -2.18,0.32 -0.1,1.06 -0.33,-0.34 -1.73,2.43 0.91,2.02 -0.25,1.32 2.42,-0.12 0.56,2.45 -1.5,2.08 -1.72,0.3 0.41,1.32 -0.62,1.77 0,0 -2.76,-0.83 -0.8,1.02 -1.17,0.37 -0.5,-0.5 -2.19,2.309998 -2.56,-0.42 -1.04,-1.489998 0.49,1.999998 -1.27,-0.51 -0.71,-0.68 -0.99,-4.419998 -1.59,-2.03 0.01,-2.24 -1.52,-0.5 -1.23,1.17 -2.04,-2.06 -1.53,-0.56 -0.37,-2.06 -3.53,-1.79 -0.92,0.1 0.57,-1.31 -0.49,-3.09 -1.18,-1.42 -1.48,-0.47 0.26,-0.67 -1.08,-0.55 -0.85,-1.85 -3.69,0 -3.28,-1.9 2.46,-3.82 0.31,1.7 0.98,-0.53 0.47,-3.62 -0.36,-4.45 0.93,-1.41 -0.23,-2.98 -1.27,-0.89 0.17,1.9 -1.25,3.35 -1.96,-0.71 -0.38,1.69 -0.88,-0.61 2.26,-5.33 0.89,-0.44 -2.77,-1.72 0.85,-1.04 -0.46,-2 -1.25,0.16 1.13,-1.41 -0.08,-0.83 -0.59,0.19 -0.48,-0.72 0.9,-1.17 -0.7,-2.3 1.06,-0.25 0.4,-1.08 -1.3,-0.52 z" 
                fill="rgb(151, 144, 238)" 
                stroke="white" 
                stroke-width=".7px"
                title="Huesca" 
                id="ES-HU" 
            />
        </svg>