<svg xmlns="http://www.w3.org/2000/svg" viewBox="154.36737000000002 214.11734 56.76999999999998 44.73999999999995" width="56.76999999999998" height="44.73999999999995">
            <path 
                d="m 201.14737,214.11734 2.74,1.41 2.46,-0.55 0.8,0.79 -0.15,2.99 2.7,0.63 -0.05,3.8 1.49,1.09 -0.3,3.39 -3.22,3.92 0,0 -1.69,0.87 0.02,2.49 -1.99,1.41 -0.73,-0.51 -0.87,0.46 -1.91,1.76 -2.92,6.08 -0.73,0.34 0.07,2.39 0.54,0.31 -2.88,1.83 -0.01,1.2 -2.25,-0.6 -1.23,0.84 -2.47,-1.79 -1.34,-0.05 -1.43,0.19 -1.06,1.98 -3.14,0.92 -3.29,-2.05 -3.7,3.42 -4.58,2.01 -0.28,-0.56 -1.71,4.03 -3.37,0.3 -1.53,-0.91 0,0 -1.45,-2.54 -1.2,-0.69 0.84,-0.75 -1.17,-0.23 -2.33,-3.8 -1.45,-0.48 -0.21,-0.66 1.95,-1.62 -0.58,-0.98 -1.69,-0.5 0.98,-2.27 -2.46,-0.69 0.85,-5.35 -0.72,-3.42 0.69,0.03 -0.28,-0.68 0.87,-0.26 -0.36,-0.61 1.17,-1.05 -0.12,-0.83 1.74,-1.33 -1.06,-3.61 -0.63,-0.35 0.2,-2.14 -0.88,-0.54 0.04,-1.02 -0.96,-0.22 0,0 -0.24,-1.7 0.64,-0.43 3.06,0.8 7.47,0.48 1.79,-0.24 0.74,-1.47 1.37,-0.48 5.74,1.04 0.47,-2.06 1.25,0.22 0.43,1.45 2.31,0.33 2.34,-1.54 0.05,-1.39 1.49,-0.27 1.43,0.85 4.6,0.84 2,-1.54 1.91,2.73 0.28,-1.63 0.92,-0.83 1.77,0.06 0.75,0.67 z" 
                fill="rgb(151, 144, 238)" 
                stroke="white" 
                stroke-width=".7px"
                title="Jaén" 
                id="ES-J" 
            />
        </svg>