<svg xmlns="http://www.w3.org/2000/svg" viewBox="189.72737000000006 48.687342 44.639999999999986 29.809999999999988" width="44.639999999999986" height="29.809999999999988">
            <path 
                d="m 196.49737,74.237342 -0.54,-2.63 -3.16,0.03 -2.92,-4.68 1.25,-1.91 -0.63,-4.39 1.4,-0.17 -0.65,-1.21 -0.6,0 0.09,-1.3 0.71,0.04 0.63,1.89 -0.17,-2.27 0.53,-0.84 -1.5,-1.78 0.71,-1.64 -1.92,-0.6 2.28,-1.95 -0.74,-2.14 4.22,0.06 0.94,0.82 1.77,-0.78 0,0 0.5,1.23 0.68,-0.24 -0.64,1.36 0.48,1.11 1.45,-1.12 0.43,-1.7 2.55,1.18 -0.76,3.22 0.91,-0.37 0.86,1.76 1.3,-0.84 0.26,1.27 0.9,-0.88 1.16,0.42 0.61,-1.49 -0.15,1.24 2.89,0.03 0,0 2.29,1.57 0.43,-0.69 1.06,0.44 0.29,-0.41 2.2,2.14 3.22,-0.16 -0.13,0.83 1.12,1.27 -0.33,0.91 2.89,-0.69 0.97,1.23 1.4,0.28 0.12,1.08 1.34,0.49 -0.06,1.49 0.73,-0.24 1.5,1.49 2.29,0.34 1.35,0.91 -0.6,0.8 0.66,0.88 -1.24,0.75 -0.61,-0.67 -1.29,0.5 -1.22,-0.66 -2.18,2.83 -0.27,2.28 1.67,0.89 0,0 -0.29,1.71 0,0 -1.8,1.41 -2.05,0.53 -1.42,-1.39 -0.25,0.56 -2.26,-0.76 -0.43,-1.54 0.5,-0.3 -1.66,-2.64 1.07,-0.58 -0.01,-0.67 -2.5,-0.31 -1.87,0.66 -0.38,-1.77 -1.54,-0.59 -3.26,0.36 -1.41,1.27 -0.93,-0.34 0,1.88 -1.05,0.72 -0.95,2.27 -5.1,-0.51 -0.35,-0.98 1.58,-2.88 -0.99,-0.92 -1.63,0.66 -0.65,2.97 -2.18,1.12 z" 
                fill="rgb(151, 144, 238)" 
                stroke="white" 
                stroke-width=".7px"
                title="La Rioja" 
                id="ES-LO" 
            />
        </svg>