<svg xmlns="http://www.w3.org/2000/svg" viewBox="259.97737 387.25734 74.03999999999996 52.30000000000001" width="74.03999999999996" height="52.30000000000001">
            <path 
                d="m 272.62737,424.13734 0.55,0.56 -0.48,1.3 -0.33,-0.62 0.23,2.96 1.45,1.8 -0.24,2.01 0.71,0.65 -0.81,0.16 -0.02,2.42 -0.9,0.38 -0.56,1.61 -3.89,1.25 -0.36,0.94 -3.16,-0.43 -3.5,-2.96 -1.34,-2.59 0.27,-3.62 3.32,-2.22 0.2,-3.05 2.18,-0.22 1.18,0.97 2.23,-0.39 1.81,1.03 0.91,-0.38 -0.2,-1.01 0.75,-0.55 z m 47.02,-19.99 1.42,1.04 0.32,1.15 0.19,4.94 -1.33,2.51 0.55,2.79 -2.06,5.13 -2.93,1.57 -6.35,1.44 -3.44,4.14 -4.46,-1.08 -1.06,0.36 0.59,-1.55 1.28,0.36 2.47,-0.56 4.48,-3.38 0.56,-3.94 1.26,-1.36 0.51,-2.51 1.5,-1.37 1.99,-3.96 0.78,-2.81 -0.28,-1.44 4.01,-1.47 z m 12.81,-16.89 1.43,1.14 0.13,0.85 -1.4,1.98 0.54,1.37 -1.18,3.39 -1.81,1.41 -5.88,1.58 -1.52,2.38 -0.47,-0.69 -2.24,0.11 -0.26,-1.1 1.62,-1.53 0.39,-3.6 1.88,-1.57 1.48,-0.04 1.51,-1.6 0.84,0.29 1.06,-0.69 1.59,0.59 2.29,-4.27 z" 
                fill="rgb(151, 144, 238)" 
                stroke="white" 
                stroke-width=".7px"
                title="Las Palmas" 
                id="ES-GC" 
            />
        </svg>