<svg xmlns="http://www.w3.org/2000/svg" viewBox="68.78737000000001 23.79734199999997 71.77000000000001 50.12000000000002" width="71.77000000000001" height="50.12000000000002">
            <path 
                d="m 137.35737,26.137342 -0.32,2.3 2.61,2.15 0.01,0.79 0.68,-0.04 0.22,1.48 0,0 -1.77,1.44 -0.44,2.35 -1.73,2.91 -1.09,0.13 0.16,3.01 -1.24,1.7 1.98,1.52 -0.88,1.61 -0.45,4.53 0.84,0.96 -0.37,3.58 -0.73,0.6 0.58,0.48 0.05,1.58 -2.13,0.5 -0.36,1.51 1.28,-0.36 -0.17,1.48 -0.78,0.92 -0.88,-0.02 0,0 -1.11,-0.33 -0.5,1.64 -1.75,-2.24 -2.17,1.97 -1.65,-0.38 -0.54,1.39 0.81,0.41 -0.42,0.64 -0.74,0.15 -0.65,-0.79 -0.63,1.27 -1.65,-1.07 -0.82,0.15 0.36,7.42 0,0 -1.39,0.44 0,0 -1.82,-0.89 -1.23,-1.84 0,0 -0.69,-0.09 -0.29,1.47 -1.04,0.53 -0.06,-1.09 -1.4,-0.17 0.45,-0.97 -1.47,-1.53 -0.6,0.16 0.31,0.74 -2.04,0.28 -0.82,-0.93 -2.3,1.04 -1.61,-1.87 -0.43,0.64 -1.12,-0.05 -0.16,0.75 -2.31,-1.4 -4.03,-0.34 -1.6,0.73 -2.5,-1.24 -0.58,-1.18 -3.54,0.19 -2.14,0.82 -0.87,-0.88 -2.68,0.01 -0.78,-0.58 -2,0.33 -2.47,-1.83 0,0 1.33,-1.86 0.22,-2.5 -3.36,-1.93 0.89,-0.87 -0.25,-2.65 -1.14,0.09 -2.21,-1.32 -0.86,0.12 -0.58,1.02 -3.01,-0.62 0,0 0.25,-1.92 1.07,-1.23 -0.4,-2.02 1.31,-0.42 -1.25,-2.16 1.05,-1.2 1.17,-0.06 0.41,-1.25 0.73,0.59 2.09,-1.93 0.83,-1.51 -0.95,-2.1 1.15,-0.34 0.58,0.47 -1.02,-1.81 0.73,-0.03 0,0 2.07,1.34 1.04,-1.44 0.97,-0.2 6.17,0.09 1.74,-0.81 -0.02,-1.02 -1.21,-0.15 -0.13,-1.01 1.61,0.18 0.43,-1.23 0.51,0.01 -0.08,-0.91 1.17,-0.89 1,1.18 1.27,-0.21 1.79,1.15 0.4,-1.58 1.09,-0.05 1.24,1.09 1.22,-0.4 0.46,-1.89 1.89,0.87 1.41,-0.42 0.53,1.94 1.29,1.08 3.39,1.26 1.26,-0.36 1.06,-2.98 1.08,-0.58 3.78,1.41 2.34,0.06 0.47,-1.4 2.7,0.23 0.65,-1.89 2.67,0.72 1.9,-0.26 2.22,-1.32 1.41,0.56 0.79,-3.34 2.42,0.35 1.01,-1.65 1.58,-1.02 1.2,0.3 1.03,2.04 z m -15.53,38.35 0.57,-0.62 0.82,0.2 -0.05,0.71 0,0 -0.99,0.87 -0.35,-1.16 z" 
                fill="rgb(151, 144, 238)" 
                stroke="white" 
                stroke-width=".7px"
                title="León" 
                id="ES-LE" 
            />
        </svg>