<svg xmlns="http://www.w3.org/2000/svg" viewBox="295.7473699999999 39.567342 47.07999999999993 65.21999800000003" width="47.07999999999993" height="65.21999800000003">
            <path 
                d="m 307.82737,39.567342 4.41,1.41 2.09,1.51 1.05,-0.65 0.73,0.8 2.86,-0.07 2.85,3.32 1.82,-0.85 0.67,0.57 3.26,-0.24 -0.11,0.85 1.08,0.55 1.61,3.64 -0.45,0.67 0.53,0.68 -0.95,1.29 0.92,-0.29 0.78,1.32 -1.54,1.12 0.67,0.35 0.28,1.55 3.15,0.19 0.26,-1.05 0.6,0.36 0.52,-0.73 1.84,-0.05 0.4,-1.47 1.02,0.6 0.7,-0.63 0.14,0.52 0,0 0.03,2.16 2.14,0.64 0.14,2.27 0.73,-0.47 0.77,0.49 -0.61,0.58 0.23,2.03 0,0 -5.29,1.02 0.61,0.19 0.43,1.69 -0.73,1.23 1.76,0.7 0.04,0.53 -1.24,1.68 0.72,1.84 -0.94,0.17 -0.52,1.15 -0.07,0.75 0.63,-0.21 0.22,0.68 -1.03,1.07 -0.31,-0.72 -0.25,0.85 1.52,0.62 0.01,-1.21 0.66,1.24 -1.12,0.7 -0.23,-0.62 -0.77,0.12 0.09,2.09 -2.58,2 1.54,-0.06 0.34,0.93 -1.27,2.25 0.14,1.07 -0.64,-0.17 -1.28,1.21 -0.79,-1.45 -1.34,0.46 0.31,-0.99 -1.66,0.26 -0.43,2.02 0.67,0.51 -1.32,1.11 2.09,2.42 -2.78,1.35 1.44,0.53 -0.42,1.04 0,0 0.33,0.69 -5.63,-0.47 -0.28,0.86 -1.41,0.58 0.5,1.89 -2.11,0.86 -2.22,-1.39 -0.07,0.86 1.16,0.82 -1.48,2.04 -1.39,0.719998 -0.53,1.5 -3.1,0.71 -0.57,-0.97 -0.77,1.35 -1.79,-0.2 -0.3,0.65 -3.79,1.09 -0.96,-0.1 -1.3,-1.35 -0.9,1.49 -0.67,0.02 -1.29,-1.84 -0.81,0.58 -0.05,1.81 -1.46,-0.11 0,0 -1.14,-2.07 0.77,-0.84 -1.65,-1.809998 0.46,-0.54 0,0 0.63,-1.77 -0.41,-1.31 1.71,-0.3 1.51,-2.08 -0.56,-2.46 -2.42,0.12 0.26,-1.32 -0.91,-2.02 1.73,-2.43 0.33,0.34 0.1,-1.06 2.18,-0.32 0.42,-1.47 1.82,-0.78 0.46,-1.39 0.7,0.14 0.84,-0.88 -0.44,-0.5 0.45,-1.43 -1.4,-0.78 2.93,-2.61 -0.17,-1.01 1.91,-5.65 -0.35,-1.1 1.9,-5.47 -0.74,-0.59 0.95,-0.57 -1.47,-0.62 0.7,-0.79 -1.71,-4.26 1.44,-0.74 -0.55,-0.83 0.86,-0.41 0.55,-3.17 -1.81,-0.41 -1.48,-2.9 0,0 0.67,-0.75 -0.57,-1.69 -0.74,-0.21 0.89,-0.83 -0.72,-0.35 0.81,-0.95 -0.39,-1.29 1.71,-0.95 z" 
                fill="rgb(151, 144, 238)" 
                stroke="white" 
                stroke-width=".7px"
                title="Lleida" 
                id="ES-L" 
            />
        </svg>