<svg xmlns="http://www.w3.org/2000/svg" viewBox="40.42736999999996 2.0173425 36.339999999999996 59.77999950000002" width="36.339999999999996" height="59.77999950000002">
            <path 
                d="m 51.52737,2.0173425 0.26,1.39 0.71,0.09 -0.24,1.67 0.61,0.4 0.26,-1.77 1.79,-1.07 0.38,0.71 0.76,-0.55 0.97,0.68 -0.6,0.14 0.22,0.44 3.48,1.32 1.93,3.37 1.5,0.67 -0.65,1.5099995 0.91,-1.2099995 6.01,0.5199995 -0.34,3.48 0,0 -1.54,2 -2.15,-0.14 -0.28,1.62 1.68,0.82 -0.1,1.78 0.9,1.1 1.27,-0.05 -0.06,2.57 1.27,1.29 0.32,-0.4 1.18,0.78 -0.3,1.57 0.72,1.32 2.21,-0.89 0.72,-1.07 1.24,1.64 -1.53,2.18 -1.36,0.75 -0.69,-0.56 -0.86,1.06 0.05,1.12 -0.53,-0.28 -0.47,0.92 1.07,1.21 0.3,-1.28 1.29,1.3 1.18,0.05 1.1,1.3 -0.18,1.24 0.54,0.55 0,0 -0.73,0.03 1.02,1.82 -0.58,-0.47 -1.15,0.34 0.95,2.1 -0.83,1.51 -2.09,1.93 -0.73,-0.59 -0.41,1.25 -1.17,0.06 -1.05,1.2 1.25,2.16 -1.31,0.42 0.4,2.02 -1.07,1.23 -0.25,1.92 0,0 -0.7,2.06 -1.59,1.08 -1.56,4.42 -0.87,-1.38 0.33,-1.16 -2.67,-1.75 -1.93,0.34 -0.9,-0.59 -3.13,1.94 -1.22,0.18 -1.04,-0.85 -1.28,0.85 -2.96,-2.82 -2.32,-0.56 1.25,-0.58 -0.5,-0.57 -1.08,0.57 -2.32,-1.28 -1.16,0.11 0.36,-0.54 -0.69,-0.15 1.04,-1.04 -1.25,-1.18 0,0 1.17,-2.12 0,-2 0.96,-1.19 -3.59,-3.03 0.68,-2.53 -1.33,-0.38 0,0 2.81,-4.27 -1.07,-4.87 0.8,-0.86 -1.37,-4.26 1.21,-3.34 -0.77,-0.69 1.82,-2.11 -0.1,-2.61 2.08,-0.1 0.49,-1.54 0.83,-0.49 1.09,-2.66 -0.13,-2.7699995 0.95,-0.27 -0.54,-1.57 1.36,-1.41 -0.87,-1.38 0.51,0.04 -0.14,-1.03 0,0 0.55,0 0.12,-0.83 1.47,-1.05 z" 
                fill="rgb(151, 144, 238)" 
                stroke="white" 
                stroke-width=".7px"
                title="Lugo" 
                id="ES-LU" 
            />
        </svg>