<svg xmlns="http://www.w3.org/2000/svg" viewBox="145.47736999999995 109.30733999999995 46.670000000000016 51.51000000000005" width="46.670000000000016" height="51.51000000000005">
            <path 
                d="m 154.71737,129.07734 0.54,0.92 -1.91,0.24 0,0 0.07,-0.78 1.3,-0.38 z m 22.57,-19.77 1.59,2.88 1.91,0.43 -0.38,1.66 1.34,1.72 -0.72,0.51 -0.81,3.21 -0.48,-0.01 0.59,1.3 -0.99,0.47 -0.09,1.54 -1.05,1.52 1.37,0.18 0.69,0.95 -0.23,0.92 0.52,0.29 -1.02,1.66 1.92,0.79 0.36,-0.91 1.67,2.26 0.66,-0.71 -0.62,1.16 0.22,1.13 1.45,1.04 -0.42,1.37 1.45,-0.26 1.51,1.17 0.06,2.91 1.31,0.13 0.78,1.37 -2,6.31 0.69,0.55 1.95,-2.05 1.28,5.11 0,0 -0.63,-0.21 -0.26,0.81 1.24,1.17 -0.13,0.91 -1.75,1.15 -1.33,-0.14 0,0 -0.42,-1.03 -0.92,1.28 -2.2,0.46 -1.77,-1.36 -1.31,0.26 -0.53,1.59 -3.46,-0.51 -0.39,1.09 -2.14,0.3 -1.49,0.99 0.1,0.9 -3.37,1.02 -1.81,2.23 -2.02,-0.8 -0.19,-0.96 1.13,-0.54 0.22,0.48 0.22,-0.66 1.16,0.01 0.68,-0.79 -0.16,0.7 0.45,-0.04 -0.18,-0.83 1.08,0.18 -0.62,-0.57 3.86,-3.01 0.43,-2.11 -1.85,-1.38 -0.74,0.43 -0.91,-0.61 -0.75,0.61 -1.87,-1.79 -0.89,0.65 -1.26,-1.19 -1.68,-0.51 -0.56,0.59 -0.11,-0.93 -1.21,0.1 -0.96,-1.58 -1.46,-0.63 -1.01,0.92 -1.21,-0.13 -0.01,-0.77 -1.45,-1.31 -0.38,1.12 -1.29,-0.19 -0.78,1.62 -1.54,0.32 -0.82,-0.46 -0.27,-2.93 -0.74,-0.35 -0.09,1.17 -1.58,1.2 -0.05,0.87 -3.02,1.53 -1.32,-0.71 0,0 0.56,-0.21 -0.26,-1.38 1.23,-1.42 -0.53,-1.98 0.62,-0.11 0.68,1.2 1.5,-0.19 1.03,-3.47 3.1,-0.17 -0.6,-0.74 0.74,-1.46 -0.37,-2.79 1.19,-1.19 -0.01,-2.56 1.46,1.03 2.49,-0.85 0.03,-2.68 0,0 2.77,-4.19 2.77,0.39 1.29,-5.78 1.31,-1.61 3.48,-1.35 1.31,-2.17 1.92,-1.32 1.94,-2.54 2.16,-0.69 z m 5.34,21.26 -0.17,0.58 0,0 -0.34,-0.19 0,0 0.51,-0.39 z" 
                fill="rgb(151, 144, 238)" 
                stroke="white" 
                stroke-width=".7px"
                title="Madrid" 
                id="ES-M" 
            />
        </svg>