<svg xmlns="http://www.w3.org/2000/svg" viewBox="113.73737000000006 262.71734 56.56 36.92000000000007" width="56.56" height="36.92000000000007">
            <path 
                d="m 143.11737,263.56734 1.22,0.03 0.35,1.76 1.93,-0.08 1.47,-0.62 0.19,-0.94 1.28,-1 1.86,0.02 0.33,2.36 1.53,0.44 -0.15,0.78 0,0 1.24,2.48 0.45,4.01 1.26,-0.08 1.99,2.29 2.05,0.17 1.61,1.88 3.62,0.79 1.9,1.23 1.24,-0.18 1.81,2.05 -0.28,2.48 0,0 -2.06,-0.62 -3.45,1.04 -3.59,-0.85 -1.09,0.9 -2.13,0.36 -6.63,-0.29 -3.55,4.92 -2.85,1.16 -1.09,2.17 -3.08,0.89 -3.69,-0.94 -2.3,0.28 -2.19,1.55 -2.31,0.32 -2.96,1.4 -2.28,3.91 0,0 -0.78,-0.99 -1.3,0.46 -0.83,-3.55 -2.61,-4.39 -1.86,-0.07 -0.96,1.46 -2.58,-0.55 -0.11,-1.11 0.51,-0.35 2.24,0.73 1.88,-2.17 0.15,-1.17 2.36,-0.5 1.69,-1.55 -0.02,-1.93 1.03,-1.95 -1.53,-1.69 1.2,-1.92 0.98,-0.56 3.05,2.32 1.11,-0.57 1.45,-2.54 -0.72,-2.07 0.45,-0.34 -1.44,-1.36 0,0 0.6,-0.91 2.14,-0.11 4.44,-3.22 0.15,-0.92 -1.21,-0.72 0.09,-0.69 1.06,-0.24 0.23,0.99 0.68,-0.08 0.66,-1.55 0.86,-0.08 0.97,1.81 2.63,-1.69 -0.76,-2.01 2.45,-0.29 z" 
                fill="rgb(151, 144, 238)" 
                stroke="white" 
                stroke-width=".7px"
                title="Malaga" 
                id="ES-MA" 
            />
        </svg>