<svg xmlns="http://www.w3.org/2000/svg" viewBox="214.04737 205.43734000000006 50.35000000000002 53.579999999999984" width="50.35000000000002" height="53.579999999999984">
            <path 
                d="m 214.04737,233.84734 0.36,-1.53 2.09,-1.85 1.48,-3.45 3.06,-1.42 1.99,-2.63 1.93,0.94 2.41,-0.63 3.78,-2.27 -0.35,-0.55 1.6,-0.43 1.72,0.6 -0.15,1.1 0.69,0.98 2.47,0.04 3.41,-2.54 -0.61,-6.07 0.34,-1.22 1.07,-0.73 0.14,-2.64 1.4,-1.64 1.09,-0.51 0.73,1.05 2.87,-2.38 2.01,-0.63 1.96,0.65 0.13,1.08 2.76,2.13 0,0 0.75,3.24 -0.76,1.97 0.38,0.99 -2.46,2.29 0.3,3.58 2.93,1.01 0.66,1.88 -0.65,2.83 -1.47,2.42 0.19,1.57 3.99,6.75 2.15,2.28 2.08,0.67 0,0 0.43,2.21 -0.65,-1.75 -2.77,4.49 1.67,2.3 2.39,0.98 -1.03,-5.96 0.5,0.16 1.34,5.95 -0.5,0.92 -3.19,1.23 -1.74,-0.13 -1.26,0.93 -1.28,-0.19 -0.71,-0.98 -1.02,0.45 -1.75,-0.43 -1.61,1.35 0.5,0.58 -1.72,-0.32 -0.2,-0.77 -1.26,-0.5 -0.96,-0.05 -0.34,0.74 -2.11,-0.2 -4.13,2.95 -0.67,2.36 -1.1,-0.27 -3.44,2.19 0,0 -3.28,-2.61 -2.29,-0.34 0.09,0.7 -1.11,-0.82 -4.04,-6.32 -1.1,-3.17 0.52,-1.05 -0.11,-3.68 0.77,-1.75 -2.94,-0.62 -0.43,0.47 -1.19,-1.09 -1.5,0.46 -1.09,-1.08 0,0 -4.16,-4.27 z" 
                fill="rgb(151, 144, 238)" 
                stroke="white" 
                stroke-width=".7px"
                title="Murcia" 
                id="ES-MU" 
            />
        </svg>