<svg xmlns="http://www.w3.org/2000/svg" viewBox="209.18736999999993 20.707342 54.39000000000004 58.010000000000005" width="54.39000000000004" height="58.010000000000005">
            <path 
                d="m 235.27737,20.707342 0.76,0.14 0.52,2.29 1.02,0.08 0.33,-1.61 0.89,-0.23 2.97,1.16 0.76,-0.3 0.9,0.84 0.05,2.71 -0.99,2.53 -1.8,1.77 0.99,1.69 2.69,0.76 0.27,-2.79 2.29,-0.99 -1.18,2.05 1.38,1.05 1.58,-0.3 2.06,1.07 0.11,0.76 0.8,-0.65 1.33,1.06 1.97,0.29 1.93,1.56 1.15,-0.45 3.03,0.54 1.75,-0.66 0.74,2 0,0 -1.71,-0.1 -1.1,0.88 0.02,1.31 -1.17,0.93 0.28,2.54 -0.79,1.13 -0.84,-0.07 -0.01,0.74 0,0 0,0 0,0 -0.68,-0.05 -1.41,1.68 -1.81,0.15 -0.77,2.4 -3.05,-0.22 -0.16,1.54 -0.68,0.11 0.67,0.35 -1.34,0.88 -0.03,1.19 -0.72,0.31 -1.18,-0.61 -0.72,1.41 0.47,1.68 -2.11,2.42 -0.56,1.89 0.94,0.95 -2.14,2.65 -0.57,3.28 0.79,1.33 -0.22,2.2 1.43,2.19 1.28,0.03 0.18,1.21 -3.25,5.1 -4.53,0.21 -2.94,-2.12 -1.87,0.35 -1.59,-1.6 -2.05,0.03 -0.41,-0.53 0,0 -1.67,-0.89 0.27,-2.28 2.18,-2.83 1.22,0.66 1.29,-0.5 0.61,0.67 1.24,-0.75 -0.66,-0.88 0.6,-0.8 -1.35,-0.91 -2.29,-0.34 -1.5,-1.49 -0.73,0.24 0.06,-1.49 -1.34,-0.49 -0.12,-1.08 -1.4,-0.28 -0.97,-1.23 -2.89,0.69 0.33,-0.91 -1.12,-1.27 0.13,-0.83 -3.22,0.16 -2.2,-2.14 -0.29,0.41 -1.06,-0.44 -0.43,0.69 -2.29,-1.57 0,0 -0.05,-0.93 0.92,-0.21 -0.14,-3.41 -0.75,-0.34 -0.98,1.66 -0.28,-0.84 -0.87,0.09 -0.29,-1.3 0.52,0.18 2.07,-2.1 1.21,0.5 -0.17,0.68 2.86,-0.86 -1.08,-2.87 0.21,-0.64 1.67,-0.37 -0.57,-1.53 1.49,-2.45 -0.56,-2.16 0,0 1.24,-2.27 0.9,0.62 1.58,-0.18 1.05,-1.38 1.75,-0.36 0.48,-3.52 3.7,-2.94 -0.56,-0.61 0.13,-3.06 1.05,0.68 0.44,-0.99 0.22,0.76 2.01,-1.45 0.36,-1.68 1.66,-0.39 0,0 z" 
                fill="rgb(151, 144, 238)" 
                stroke="white" 
                stroke-width=".7px"
                title="Navarra" 
                id="ES-NA" 
            />
        </svg>