<svg xmlns="http://www.w3.org/2000/svg" viewBox="29.177369999999975 51.267342 50.090000000000025 31.81999999999998" width="50.090000000000025" height="31.81999999999998">
            <path 
                d="m 42.54737,51.267342 1.25,1.18 -1.05,1.04 0.69,0.15 -0.35,0.54 1.16,-0.11 2.32,1.29 1.08,-0.57 0.5,0.57 -1.25,0.58 2.32,0.56 2.97,2.83 1.28,-0.86 1.04,0.85 1.22,-0.18 3.13,-1.94 0.9,0.59 1.93,-0.34 2.67,1.75 -0.34,1.16 0.87,1.39 1.56,-4.42 1.59,-1.08 0.7,-2.06 0,0 3.01,0.62 0.58,-1.02 0.86,-0.11 2.21,1.32 1.15,-0.09 0.25,2.65 -0.89,0.87 3.36,1.93 -0.22,2.5 -1.32,1.87 0,0 -0.58,0.61 0.49,0.95 -1.73,-0.52 -1.33,0.58 -0.44,1.02 -1.3,0.71 -0.39,1.77 -1.03,0.34 -0.41,1.54 -0.93,0.39 0.64,0.89 1.16,-0.1 0.42,1.15 -0.69,2.23 0,0 -0.7,0.92 -1.9,0.07 -1.56,-1.55 -1.81,0.27 -0.35,1.57 0.49,0.94 -0.71,1.6 -3.64,1.54 -1.55,-0.42 -1.9,1.86 -0.76,-2.37 -1.53,-0.17 -0.57,1.12 -2.78,0.53 0.79,-2.16 -2.09,0.02 -1.44,-1.08 -4.43,1.08 -0.85,1.49 -0.59,-0.6 0.23,-2.66 -0.67,-0.11 -0.45,2.02 -2.04,0.35 -0.81,1.66 -3.59,0.82 -1.04,-0.38 -0.14,-2.4 -0.94,0.12 -0.52,-1.62 1.66,-2.86 2.36,-1.39 0.05,-1.27 -1.05,-1.44 -1.95,0.71 -0.53,-3.67 0,0 1.18,-1.03 -0.96,-1.24 0.87,-0.53 0.07,-0.91 -2.19,0.43 -0.97,-0.79 0.09,-2.57 -1.93,-1.24 0.31,-1.49 -1.59,-4.41 1.95,-0.11 3.96,-3.4 0.83,0.97 1.76,-0.37 2.24,0.62 0.74,-1.24 z" 
                fill="rgb(151, 144, 238)" 
                stroke="white" 
                stroke-width=".7px"
                title="Ourense" 
                id="ES-OR" 
            />
        </svg>