<svg xmlns="http://www.w3.org/2000/svg" viewBox="131.66737000000006 31.247341999999996 34.83999999999995 53.82999999999996" width="34.83999999999995" height="53.82999999999996">
            <path 
                d="m 160.81737,68.257342 0.43,1.5 -1.47,-0.48 -0.05,-0.63 1.09,-0.39 z m -0.39,-26.2 -0.61,-0.13 0.06,-1.03 0.55,1.16 z m 1.33,1.39 1.3,-2.7 0.12,2.6 0,0 -1.42,0.1 z m -21.21,-10.62 3.03,0.18 0.98,-0.8 1.46,0.68 1.15,-1.17 1.39,0.36 0.86,-0.83 1.52,0.99 1.56,2.62 3.34,0.74 0.6,4.34 0.6,0.24 1.69,-0.99 0.48,0.93 -1.66,1.5 1.01,0.88 1.58,-0.08 0.53,1.24 0,0 -0.87,1.15 -1.12,-0.76 -3.4,2.66 -0.3,-0.71 -0.81,0.6 0.9,3.03 -0.88,0.5 0.67,1.02 -1.06,0.44 0.06,0.64 0.79,0.44 -0.26,1.36 1.2,0.72 0.14,1.6 -2.29,-0.11 -0.55,1.62 0.41,1.66 1.5,-0.24 1.27,7.33 1.31,1.32 -0.51,1.72 1.94,0.62 0.65,-0.36 1.99,1.13 -0.65,0.75 -0.78,-0.18 0.71,2.07 1.25,-0.68 1.74,0.08 0.35,0.75 -1.34,1.43 -0.56,1.83 4.34,-1.75 -0.03,1.61 -1.36,0.02 -1.37,1.08 0.02,1.24 -1.74,1.14 -1.57,0.09 -0.04,1.63 1.6,1.68 -0.09,0.88 0,0 -1.8,-0.25 -0.73,-1.35 -2.82,0.32 -0.64,-0.59 -2.5,2.07 -2.27,-0.98 -1.92,1.15 -1.44,-0.5 0.43,-2 0.8,-0.01 -0.37,-0.93 -1.19,0.81 -1.14,-0.32 -0.52,0.76 -3.18,-3.61 -3.67,3.39 -2.45,-4.67 -1.81,0.69 -0.66,-0.77 -1.05,0.98 -0.66,-1.53 1.21,-2.46 0.91,-0.45 -0.42,-1.36 1.4,-1.13 -0.72,-2.96 -3.05,-0.15 0.76,-5.58 0,0 0.88,0.02 0.78,-0.92 0.17,-1.48 -1.28,0.36 0.36,-1.51 2.13,-0.5 -0.05,-1.57 -0.58,-0.48 0.74,-0.6 0.37,-3.58 -0.84,-0.96 0.45,-4.53 0.88,-1.61 -1.98,-1.52 1.24,-1.69 -0.16,-3.01 1.09,-0.13 1.73,-2.91 0.44,-2.35 1.75,-1.48 z" 
                fill="rgb(151, 144, 238)" 
                stroke="white" 
                stroke-width=".7px"
                title="Palencia" 
                id="ES-P" 
            />
        </svg>