<svg xmlns="http://www.w3.org/2000/svg" viewBox="11.447370000000003 39.53734200000001 33.230000000000004 40.97000000000001" width="33.230000000000004" height="40.97000000000001">
            <path 
                d="m 18.11737,47.167342 0.29,-1.22 2.04,-0.95 1.36,0.58 0.21,-1.16 1.39,-0.15 -0.06,-0.58 2.66,0.71 1.93,-0.44 0.45,-1.46 1.16,0.43 0.68,-0.64 -0.23,-1.94 0.41,0.39 0.32,-0.61 1.11,1.46 0.74,-1.06 1.38,0.53 -0.32,-0.86 1.14,-0.66 2.07,0.79 1.37,-0.47 0.79,0.87 1.42,-0.73 0,0 1.33,0.38 -0.68,2.53 3.6,3.03 -0.96,1.19 0,2 -1.17,2.12 0,0 -1.88,0.25 -0.74,1.24 -2.24,-0.62 -1.76,0.38 -0.83,-0.97 -3.95,3.39 -1.95,0.12 1.59,4.41 -0.31,1.49 1.93,1.24 -0.08,2.57 0.97,0.8 2.19,-0.44 -0.07,0.91 -0.87,0.54 0.95,1.24 -1.18,1.03 0,0 -3.77,2.16 -0.29,0.74 -5.77,0.18 -0.8,1.04 -2.76,0.26 -0.81,1.87 -2.52,1.51 -0.37,1.35 -3.65,2.57 -0.77,-9.95 1.47,-0.64 1.16,0.53 -0.18,-1.11 -0.91,-0.6 0.81,0.06 0.28,-1.4 4.94,-4.09 1.2,0.09 -0.56,-2.81 -0.12,1.14 -0.78,0.59 0.31,0.59 -1.17,0.75 -1.29,-0.28 -1.85,1.66 -0.67,-0.64 -1.81,0.47 0.49,-2.43 1.25,1.26 -0.63,-2.55 2.06,0.32 1.37,-2.18 2.12,-1.67 -0.77,0.18 -0.43,-0.66 -2.4,2.04 -1.26,-0.55 -0.74,0.72 -1.31,-1.28 -0.01,-1.69 -0.95,-0.31 -0.49,0.58 -0.49,-0.6 0.22,-0.67 0.91,0.21 1.13,-1.09 0.48,1.2 -0.39,1.04 1.46,-0.22 -0.31,-1.35 0.78,-0.65 -0.29,-1.01 -0.44,0.22 0,-2.32 1.04,-0.2 2.08,-4.04 z" 
                fill="rgb(151, 144, 238)" 
                stroke="white" 
                stroke-width=".7px"
                title="Pontevedra" 
                id="ES-PO" 
            />
        </svg>