<svg xmlns="http://www.w3.org/2000/svg" viewBox="73.20736999999997 104.05734 56.51000000000002 42.58999999999999" width="56.51000000000002" height="42.58999999999999">
            <path 
                d="m 87.06737,104.05734 4.98,0.94 5.62,3.28 2.22,-1.25 1.63,0.84 -0.4,1.83 1.31,-0.78 0.8,1.4 1.23,-1.55 -0.25,-1.62 0.72,-0.83 4.07,0.92 3.32,-1.21 0.88,1.27 1.24,0.49 0.7,-0.6 2.45,1.55 0.03,1.36 0.23,-1.33 2.12,-0.3 0.23,1.63 1.33,0.19 0.86,0.96 0.95,-0.35 0.28,-2.28 0,0 0.01,-0.56 1.41,-0.06 0.74,1.53 1.19,-0.32 1.68,1.44 0,0 -0.86,2.77 1.93,2.72 -0.46,1.47 -0.7,0.25 0.37,2.09 -1.48,1.37 0.07,2.2 -1.76,1.66 0.14,0.61 -5.25,3.48 0.6,0.92 -0.52,1.13 -1.99,1.65 -1.59,-0.08 -0.04,-0.63 -0.47,0.48 -0.26,1.8 2.66,-1.03 0.38,0.39 -1.23,3.64 -1.36,0.09 -0.53,1.66 -1.45,-0.88 0.42,-1.32 -2.25,0.67 -1.75,1.55 0.56,2.94 -1.98,2.19 0,0 -1.71,0.29 -0.13,-2.66 -2.66,1.06 -1.01,1.97 -1.58,-0.48 -1.47,-1.08 0.01,-0.95 -2.75,-0.67 1.25,-1.59 -1.98,-0.97 0.41,-0.84 -0.95,0.22 -0.33,-0.84 -2.25,-1.19 -3.48,1.76 -0.96,1.71 -1.32,0.04 -0.6,1.06 -3,1.03 -0.74,0.73 0.13,1.53 -0.95,0.8 -2.6,0.3 -0.56,0.83 -0.87,-1.07 -1.14,1.22 -2.42,-0.35 -0.94,-0.92 0,0 0.11,-1.16 2.06,-1.16 0.41,-1.44 -1.65,-1.74 -0.46,-1.76 1.67,-2.4 -0.17,-1.57 -1.37,-0.63 1.58,-3.84 -1.14,-3.69 0.15,-3.65 0.8,-0.22 -0.28,-1.36 -1.22,-0.81 -0.31,-1.92 -2.22,-3.22 3.76,-0.29 1.68,-2.74 -0.42,-1.25 1.8,-1.53 1.86,-3.05 2.37,0.35 1.49,-1.49 0.4,0.47 0.9,-0.38 z" 
                fill="rgb(151, 144, 238)" 
                stroke="white" 
                stroke-width=".7px"
                title="Salamanca" 
                id="ES-SA" 
            />
        </svg>