<svg xmlns="http://www.w3.org/2000/svg" viewBox="188.51737000000003 400.63734 62.45999999999995 42.26999999999998" width="62.45999999999995" height="42.26999999999998">
            <path 
                d="m 195.64737,435.62734 0.81,0.25 0.58,1.36 -1.45,2.56 -0.81,0.27 -0.68,2.84 -2.23,-1.87 -3.35,-0.75 0.79,-1.98 1.63,0.62 1.39,-0.32 1.43,-1.27 -0.23,-0.87 2.12,-0.84 z m 20.51,-12.73 0.45,0.6 1.49,0.03 2.88,2.47 0.12,1.15 -3.06,2.47 -2.21,-0.03 -2.42,-2.53 0.84,-3.56 1.91,-0.6 z m 33.79,-12.88 1,0.6 0.03,1.37 -3.39,1.62 -0.57,1.21 -3.25,2.47 -0.06,2.58 -1.92,3.52 -0.1,1.99 -3.63,4.2 -4.78,0.72 -1.08,-2.84 -3.09,-4.2 -0.09,-1.99 -2.53,-3.14 2.75,-1.31 2.51,0.78 2.33,-1.06 2.19,0.25 2.78,-0.87 1.74,-1.39 1.4,-2.37 2.34,-1.03 0.16,-0.69 3.3,0.39 1.96,-0.81 z m -54.06,-9.38 1.94,0.87 2.45,-0.19 1.64,3.33 -1.36,2.3 0.57,1.85 -0.31,1.92 -2.45,4.04 -0.87,-0.68 -0.37,-2.35 -1.44,-1.95 -1.69,-4.63 -0.85,-0.69 0.08,-1.18 2.66,-2.64 z" 
                fill="rgb(151, 144, 238)" 
                stroke="white" 
                stroke-width=".7px"
                title="Santa Cruz de Tenerife" 
                id="ES-TF" 
            />
        </svg>