<svg xmlns="http://www.w3.org/2000/svg" viewBox="85.31736999999998 227.18733999999995 57.77999999999997 52.22000000000014" width="57.77999999999997" height="52.22000000000014">
            <path 
                d="m 96.25737,237.13734 1.99,-1.58 4.96,-0.53 1.37,-2.62 -0.54,-1.61 2.3,-2.62 3.79,-0.99 1.03,0.42 0.32,1.15 -0.66,-0.48 0.34,0.74 -1.41,0.93 0.18,1.56 0.75,0.2 2.36,-2.22 1.49,0.25 0,0 2.74,3.47 0.07,1.81 2.38,2.02 0.02,2.86 2.15,1.15 -0.16,1.77 1.22,0.78 0.07,2.9 -0.6,0.29 -0.35,-0.57 -1.12,1.1 -0.4,-0.77 -0.73,0.55 0.56,1.03 -0.63,0.41 1.72,2.33 5.57,-3.66 0.82,0.76 1.29,-0.06 -0.67,-1.4 0.66,-0.06 0.32,1.16 0.84,0.37 -0.64,-0.74 0.58,-1.07 0.76,-0.4 1.47,0.45 1.41,2.09 -0.62,2.03 1.3,-0.67 -0.53,3.68 1.32,0.85 0.65,2.38 1.37,0.12 -0.3,0.93 1.07,1.26 -0.22,0.75 1.23,1.14 1.6,-0.26 0.32,-0.88 1,0.65 1.03,3.29 0,0 -2.46,0.22 0.76,2.01 -2.63,1.7 -0.97,-1.81 -0.86,0.08 -0.66,1.55 -0.68,0.08 -0.23,-0.99 -1.06,0.24 -0.09,0.69 1.21,0.72 -0.15,0.93 -4.44,3.22 -2.14,0.11 -0.6,0.91 0,0 -2.84,2.4 -2.06,-3.68 -4.2,3.91 -0.65,-1.63 1.2,-1.27 -0.21,-1.3 -2.11,0.21 -0.43,0.23 1.27,1.9 -2.33,2.05 0.37,1.41 -1.51,-0.82 -0.16,-1.23 -0.93,0.25 -1.52,-1.36 -1.51,2.16 -3.94,0.17 -0.96,0.76 -0.45,2.01 -6.55,-0.57 -1.57,-1.07 -3.02,-0.33 -0.75,-0.65 -1.62,0.46 0,0 -1.47,-1.37 0.76,-1.97 -0.99,-3.37 1.35,-1.86 -0.53,-0.59 0.72,-1.2 -0.73,-2.63 0.82,-2.34 -1.58,-1.47 1.18,-1.09 -0.49,-0.39 0.18,-1.4 1.34,-0.25 0.18,-0.63 -2.63,-4.58 -0.08,-2.2 -4.08,-0.18 -0.25,-1.36 1.04,-0.61 0.88,-2.26 0.72,0.25 4.27,-1.78 1.81,0.07 -0.01,0.78 0.93,0.12 0.2,-1.99 0.86,-0.72 1.65,0.85 0.37,-1.13 -1.29,-1.77 1.2,-1.63 -0.6,-0.6 -0.75,0.43 -0.34,-1.24 z m 35.66,13.49 -2.02,-2.16 1.55,0.24 0.47,1.92 z" 
                fill="rgb(151, 144, 238)" 
                stroke="white" 
                stroke-width=".7px"
                title="Sevilla" 
                id="ES-SE" 
            />
        </svg>