<svg xmlns="http://www.w3.org/2000/svg" viewBox="290.80737000000033 92.59734199999998 45.589999999999804 42.66999800000001" width="45.589999999999804" height="42.66999800000001">
            <path 
                d="m 328.64737,92.597342 1.89,0.24 -0.72,0.55 0.54,0.76 -1.22,0.09 -0.38,0.9 2.71,1.55 -0.49,1.26 0.82,0.34 -0.62,0.25 0.46,1.14 -0.52,0.849998 1.11,-0.559998 0.85,0.369998 1.26,0.93 -0.59,0.79 1.11,1.38 -0.21,0.63 1.49,-0.08 -0.52,1.72 -1.52,-0.29 0.35,0.96 1.22,0.57 0.6,-0.49 0.13,1.61 0,0 -5.51,1.21 -1.96,1.38 -3.1,0.12 -2.65,1.04 -1.29,1.98 -1.51,-0.82 -4.29,1.45 -8.71,9.59 1.04,1.37 1.14,0.17 0.37,-0.34 -1.73,-0.72 1.4,-0.06 1.8,2.34 1.35,0.07 -0.15,1.45 -3.46,2.26 -2.65,3.2 -1.59,0.26 -0.69,-0.91 3.37,-0.82 1.18,-1.58 -4.4,0.57 -2.63,3.99 0,0 -2.37,-0.97 0.18,-1.25 -1.29,-0.97 0,0 -3.78,-1.11 0,0 -0.32,-1.19 0.72,-1.17 -1.71,-0.55 -0.3,-1.25 -1.7,0.01 0,0 -0.35,-0.72 0.5,0.38 0,-0.56 1.68,-0.5 1.48,-2.16 -1.2,-2.58 1.67,-3.46 -1.06,-1.76 0.64,-0.24 -1.83,-2.09 0,0 -0.59,-0.54 0,-1.71 1.43,-0.14 0.16,-0.81 1.54,-0.58 0.59,-2.47 1.81,-0.45 0.13,-1.72 0,0 1.46,0.11 0.05,-1.81 0.81,-0.58 1.29,1.84 0.67,-0.02 0.9,-1.48 1.3,1.35 0.96,0.1 3.79,-1.09 0.3,-0.65 1.79,0.2 0.78,-1.35 0.57,0.97 3.1,-0.71 0.53,-1.49 1.39,-0.719998 1.48,-2.04 -1.16,-0.82 0.07,-0.86 2.22,1.39 2.11,-0.86 -0.5,-1.89 1.42,-0.58 0.28,-0.86 5.63,0.47 -0.35,-0.73 z" 
                fill="rgb(151, 144, 238)" 
                stroke="white" 
                stroke-width=".7px"
                title="Tarragona" 
                id="ES-T" 
            />
        </svg>