<svg xmlns="http://www.w3.org/2000/svg" viewBox="230.47736999999992 101.61734 64.43000000000009 60.66000000000001" width="64.43000000000009" height="60.66000000000001">
            <path 
                d="m 236.27737,118.27734 1.82,0.17 1.62,-1 0.99,0.62 0.8,-1.12 -0.91,-1.56 2.01,-0.81 0.18,-1.27 1.51,-0.9 0.05,1.26 2.05,0.35 1.05,-1.16 -0.56,-1.05 0.52,-0.78 1.37,-0.66 1.1,0.61 1.61,-0.45 0.52,-1.33 2.01,1.34 1.18,0.02 0.87,-0.78 -0.8,2.36 1.26,0.76 1.38,-0.67 0.89,-2.26 0.72,1.65 0.96,0.47 1.23,-0.47 0.83,-2.5 2.07,2.33 2.58,-3.23 -1.82,-1.83 1.35,-0.46 -0.14,-2.59 0.75,-0.47 2.27,3.88 0.67,-0.42 -0.54,-2.03 -1.68,-1.35 0.44,-1.33 2.69,0.33 0.3,1.13 1.52,0.26 -0.25,0.72 0.7,0.88 2.11,1.26 0.59,-0.66 2.85,2.75 1.37,0.09 4.75,2.42 1.92,3.31 1.09,-1.33 2.25,0.66 2.29,-0.34 0,0 1.83,2.1 -0.65,0.23 1.06,1.76 -1.67,3.46 1.21,2.59 -1.49,2.16 -1.68,0.51 0.01,0.55 -0.5,-0.38 0.36,0.72 0,0 -3.01,0.74 -0.94,0.94 -0.81,-1.51 -2.47,0.05 -3.07,-2.47 -0.99,0.16 -0.83,1.23 -0.36,2.54 -2.18,1.27 -0.67,-0.83 -1.51,0.52 0.23,2.16 2.37,0.11 -0.27,3.82 0.9,1.7 -2.29,1.2 1.99,3.16 -1.78,1.01 -0.79,1.4 -0.73,-0.03 0.2,1.64 -1.37,0.84 -2.04,0.61 -1.52,-0.92 -1.05,4.54 -1.54,1.44 0.46,1.28 -2.13,1.03 -2.17,-0.09 -0.74,1.93 -1.84,0.86 -0.08,2.06 1.31,1.75 0,0 -2.02,1.34 -0.77,-0.19 -0.73,-0.8 0.3,-2.38 -0.55,-1.29 -0.35,0.33 -1.82,-1.03 -3.49,0.27 -0.51,0.57 -0.64,-0.44 0,0 -0.7,-1.53 0,0 2.49,-1.04 0.37,-0.97 -2.31,-2.13 -2.99,-0.09 0.02,-1.19 -1.23,-1.02 -0.43,-1.61 -0.76,1.07 0.2,1.41 -1.25,0.83 -2.81,-0.66 0,0 0.3,-2.06 -1.09,0.47 -1.12,-0.74 -0.9,0.51 -4.6,-4.76 -0.89,1.31 -0.3,-1.05 0.96,-0.72 -3.33,-3.09 0,0 1.77,-2.6 1.72,-0.96 -0.29,-2.06 0.73,-2.13 2.44,1.17 1.63,-1.34 -0.59,-0.78 0.9,-2.92 -0.81,-2.12 0.68,-0.85 -0.08,-2.04 -2.39,-2.75 z" 
                fill="rgb(151, 144, 238)" 
                stroke="white" 
                stroke-width=".7px"
                title="Teruel" 
                id="ES-TE" 
            />
        </svg>