<svg xmlns="http://www.w3.org/2000/svg" viewBox="120.01736999999984 143.46734 76.65000000000016 42.150000000000006" width="76.65000000000016" height="42.150000000000006">
            <path 
                d="m 145.39737,147.50734 1.32,0.71 3.02,-1.52 0.06,-0.87 1.58,-1.19 0.09,-1.17 0.74,0.34 0.27,2.93 0.82,0.46 1.54,-0.32 0.78,-1.63 1.29,0.19 0.38,-1.12 1.45,1.31 0.02,0.77 1.21,0.13 1.01,-0.92 1.46,0.63 0.96,1.58 1.21,-0.11 0.11,0.93 0.56,-0.59 1.68,0.51 1.27,1.19 0.89,-0.64 1.87,1.79 0.75,-0.61 0.91,0.61 0.74,-0.44 1.85,1.39 -0.43,2.11 -3.86,3 0.62,0.57 -1.08,-0.17 0.18,0.83 -0.45,0.04 0.16,-0.69 -0.68,0.79 -1.16,-0.01 -0.21,0.66 -0.23,-0.48 -1.13,0.54 0.2,0.96 2.01,0.8 1.81,-2.23 3.38,-1.02 -0.1,-0.9 1.49,-0.99 2.14,-0.3 0.39,-1.09 3.47,0.51 0.52,-1.59 1.31,-0.25 1.77,1.36 2.2,-0.46 0.92,-1.27 0.42,1.03 0,0 0.58,3.2 1.41,-0.08 -0.02,2.13 -0.92,2.34 1.56,0.76 2.41,5.44 2.75,3.04 -0.71,6.77 0,0 -0.78,0.96 -1.31,0.22 -0.71,-0.6 -1.44,0.26 -2.27,-1.79 -1.26,0.3 -0.02,0.55 -3.35,0.13 -0.66,1.47 0.21,1.37 -3.11,-0.22 -1.85,1.28 -0.19,1.15 -1.71,1.54 -4.53,0.23 -1.3,1.14 -2.16,-0.9 -1.98,1.33 -3.31,-1.56 -0.21,-2.14 -3.11,-0.52 -0.95,0.96 -0.49,-0.85 -0.85,-0.01 0.92,-3.72 1.54,0 0.25,-2.57 0.91,-0.01 -0.36,-2.11 -2.54,0.46 -1.05,-0.52 -1.05,3.23 -1.5,0.69 -4.15,-0.72 -2.04,-1.07 -0.55,1.76 -1.52,-1.72 0.89,-0.66 -1.33,-0.9 -0.17,1.18 -0.36,-0.49 -0.56,0.41 -0.21,1.44 -1.55,0.5 0.01,1.2 -2.14,0.16 0,0 0,0 0,0 -2.07,1.37 0,0 0.12,-3.39 -3.43,-2.17 -1.38,2.47 -1,3.91 0,0 -0.36,0 0,0 -7.8,-8.01 1.38,-1.82 0.73,-2.85 -1.1,-1.43 0.47,-0.35 -0.26,-1.6 -1.2,0.09 -1.48,1.79 -1.68,-0.31 -0.11,-2.54 0.87,-1.58 -1.3,-1.12 -2.44,0.57 1.26,-4.23 -0.12,-4.64 1.01,-0.63 0,0 3.78,0.36 0.33,0.96 0.93,-0.08 3.12,-2.56 1.58,-0.41 0.16,1.92 1.8,-0.4 -0.05,-0.49 0.95,-0.11 0.02,-1.35 3.59,-2.62 0.11,-1.59 1.32,0.57 1.93,-0.86 0.35,2.86 1.01,0.51 z" 
                fill="rgb(151, 144, 238)" 
                stroke="white" 
                stroke-width=".7px"
                title="Toledo" 
                id="ES-TO" 
            />
        </svg>