<svg xmlns="http://www.w3.org/2000/svg" viewBox="239.26737000000003 147.73734 45.59999999999991 60.380000000000024" width="45.59999999999991" height="60.380000000000024">
            <path 
                d="m 250.84737,157.31734 0.63,0.44 0.51,-0.56 3.49,-0.27 1.82,1.03 0.35,-0.33 0.55,1.3 -0.3,2.37 0.74,0.81 0.77,0.19 2.02,-1.34 0,0 2.06,2.63 1.21,-1.49 1.07,0.66 0.12,3.26 0.66,0.31 1.31,0.19 0.34,-1.25 1.43,-0.91 2.28,3.23 1.89,-1.81 0.52,-1.58 1.52,-0.06 2.06,2.28 2.22,0.87 0,0 -0.78,2.99 -1.1,0.84 -2.04,4.05 -0.55,3.96 1.28,4.62 2.35,4.72 -0.74,0.49 0.1,1.83 1.52,3.61 4.6,5.92 0,0 0.11,1.12 -1.12,-1.12 -2.38,1.07 -0.39,-1.14 -2.14,1.33 -2.46,-1.1 -2.19,1.84 -0.61,-0.21 -2.22,1.41 -3.24,0.12 -0.49,0.41 0.37,0.86 0.75,0.57 0.87,-0.52 0.75,0.95 -3.4,2.21 -0.78,-1.61 -1.96,-0.24 -0.85,-1 -3.06,1.06 -0.83,-1.51 -1.3,0.15 -0.76,-0.66 0,0 0.14,-4.23 -1.07,-2.08 -5.75,0.6 -3.69,-4.78 0.34,-2.17 2.3,-4.16 0.49,-3.9 -4.52,-1.29 -0.73,0.36 -2.39,-1.83 -1.26,0.76 0.07,-1.49 -0.63,0.3 -0.33,-1.25 -0.65,0.19 0,0 0.27,-0.43 -0.75,-0.11 0.51,-5.24 1.3,-0.5 1.35,-3.11 1.52,-1.38 1.71,0.76 1.02,-0.29 0.54,-0.83 -0.41,-1.51 1.85,-2.85 0.46,-2.02 -0.25,-3.36 1.98,-1.15 z m -9.4,-6.93 2.82,0.66 1.24,-0.83 -0.2,-1.41 0.76,-1.07 0.43,1.61 1.23,1.02 -0.02,1.19 3,0.09 2.31,2.13 -0.37,0.97 -2.48,1.04 0,0 -2.54,0.6 -3.95,-0.85 -1.33,-3.08 0.39,-0.31 -1.49,-1.18 0.2,-0.58 z" 
                fill="rgb(151, 144, 238)" 
                stroke="white" 
                stroke-width=".7px"
                title="Valencia" 
                id="ES-V" 
            />
        </svg>