<svg xmlns="http://www.w3.org/2000/svg" viewBox="116.49736999999999 62.317342 47.289999999999964 49.86999799999998" width="47.289999999999964" height="49.86999799999998">
            <path 
                d="m 116.49737,71.177342 1.23,1.84 1.82,0.9 0,0 -0.79,0.7 0.5,0.46 -0.22,1.44 -1.43,-0.71 0.37,-1.19 -1.48,-3.44 z m 5.33,-6.69 0.57,-0.62 0.82,0.2 -0.05,0.71 0,0 -1.04,0.87 -0.3,-1.16 z m -0.9,8.98 -0.36,-7.42 0.82,-0.15 1.65,1.07 0.63,-1.27 0.65,0.79 0.74,-0.15 0.42,-0.63 -0.8,-0.41 0.54,-1.39 1.65,0.38 2.17,-1.97 1.76,2.25 0.51,-1.64 1.11,0.33 0,0 -0.76,5.58 3.05,0.15 0.72,2.96 -1.4,1.13 0.42,1.36 -0.91,0.45 -1.21,2.46 0.66,1.53 1.05,-0.98 0.66,0.77 1.81,-0.69 2.45,4.67 3.67,-3.38 3.18,3.61 0.52,-0.76 1.14,0.32 1.19,-0.81 0.37,0.93 -0.8,0.01 -0.42,2 1.44,0.5 1.92,-1.15 2.27,0.98 2.51,-2.07 0.64,0.59 2.82,-0.32 0.73,1.35 1.8,0.25 0,0 -1.09,1.73 1.54,1.38 -0.28,2.94 0.9,0.05 0.78,1.47 0,0 -0.59,2.75 -2.01,0.87 -6.01,1.8 -0.28,-0.44 -2.83,0.46 -0.08,0.57 -1.66,-0.16 -1.51,1.09 -1.43,0.14 0.94,1.749998 -0.63,0.8 1.13,2.09 -1.87,-1.03 -0.95,0.77 -1.14,-0.75 0.71,1.85 -2.36,2.19 0.71,2.06 -1.62,-0.61 -1.27,1.48 0,0 -1.97,0.23 -0.84,0.58 -0.04,1.05 -1.49,0.38 -3.87,-2.71 -4.15,1.17 0,0 -1.68,-1.43 -1.18,0.31 -0.74,-1.52 -1.41,0.06 -0.01,0.55 0,0 -1.31,0.14 -0.27,-0.63 1.43,-1.31 0.06,-1.75 -1.32,-4.13 0.83,-1.769998 -0.97,-0.47 0.44,-1.21 -0.61,-0.98 3.56,-2.01 -1.97,-1.88 0.69,-1.09 -1.79,-0.6 0.02,-2.69 -0.92,-0.73 -0.11,-1.19 -0.41,0.37 -0.5,-1.67 3.43,-2.17 -0.23,-0.58 -1.3,-0.14 1.1,-3.65 -1.27,-0.72 2.47,-1.82 -0.8,0.12 -2.98,-2.59 z" 
                fill="rgb(151, 144, 238)" 
                stroke="white" 
                stroke-width=".7px"
                title="Valladolid" 
                id="ES-VA" 
            />
        </svg>