<svg xmlns="http://www.w3.org/2000/svg" viewBox="180.07737 14.537341999999997 31.810000000000002 18.330000000000005" width="31.810000000000002" height="18.330000000000005">
            <path 
                d="m 201.45737,14.537342 0.41,1.15 1.27,0.81 0.42,1.94 0.06,-1.93 1.18,-0.22 0.73,0.98 3.36,0.62 1.53,1.74 1.47,0.62 0,0 -0.75,0.91 0.57,1.32 -0.56,1.02 -1.88,0.98 0.4,2.04 -0.76,0.43 0.26,2.72 -1.4,0.35 0,0 -3.53,0.58 0.86,2.27 -4.18,-0.29 -2.89,-1.05 -0.93,0.23 -2.42,-2.05 1.14,-1.71 -1.36,-2.75 -0.82,0.22 -0.3,-0.26 -0.32,1.74 -1.47,0.63 -1.12,0.12 -0.92,-0.76 0,0 -0.49,-0.68 -2.05,0.32 -0.9,-1.19 -5.04,2.73 0,0 -0.95,-4.31 3.33,-1.76 0.24,-1 1.63,0.5 1.66,-0.79 0.48,1.07 1.6,-0.75 0.13,-2.18 0,0 1.06,0.43 0.46,-0.89 2.61,1.6 0.2,-0.86 -0.76,-1.12 2.04,-1.67 0.77,0.16 -0.04,-1.13 4.31,0.2 1.66,-1.08 z m -16.96,8.33 1.69,-0.04 -0.6,1.07 0,0 0.12,1.17 0,0 -1.01,-0.02 -0.2,-2.18 z" 
                fill="rgb(151, 144, 238)" 
                stroke="white" 
                stroke-width=".7px"
                title="Vizcaya" 
                id="ES-BI" 
            />
        </svg>