<svg xmlns="http://www.w3.org/2000/svg" viewBox="70.07737000000006 64.727342 55.37999999999998 46.51999800000003" width="55.37999999999998" height="46.51999800000003">
            <path 
                d="m 77.72737,64.727342 2.47,1.82 2,-0.32 0.78,0.58 2.67,-0.01 0.88,0.88 2.13,-0.82 3.54,-0.19 0.58,1.18 2.5,1.23 1.6,-0.73 4.03,0.34 2.31,1.4 0.17,-0.75 1.12,0.05 0.43,-0.64 1.62,1.87 2.29,-1.04 0.82,0.93 2.04,-0.28 -0.31,-0.74 0.6,-0.16 1.47,1.53 -0.45,0.97 1.4,0.17 0.06,1.09 1.04,-0.53 0.29,-1.47 0.69,0.09 0,0 1.47,3.44 -0.37,1.2 1.43,0.7 0.22,-1.44 -0.5,-0.46 0.79,-0.7 0,0 1.39,-0.45 0,0 2.94,2.58 0.79,-0.11 -2.47,1.81 1.28,0.72 -1.1,3.65 1.3,0.14 0.23,0.58 -3.43,2.17 0.5,1.67 0.41,-0.37 0.11,1.2 0.92,0.73 -0.02,2.69 1.79,0.61 -0.69,1.09 1.97,1.88 -3.56,2.01 0.61,0.97 -0.44,1.21 0.97,0.47 -0.83,1.769998 1.32,4.13 -0.06,1.75 -1.43,1.31 0.27,0.63 1.31,-0.14 0,0 -0.28,2.28 -0.95,0.35 -0.86,-0.96 -1.33,-0.19 -0.23,-1.63 -2.12,0.3 -0.23,1.33 -0.03,-1.36 -2.45,-1.55 -0.7,0.6 -1.24,-0.49 -0.88,-1.27 -3.32,1.21 -4.07,-0.92 -0.72,0.83 0.25,1.62 -1.23,1.55 -0.8,-1.4 -1.31,0.78 0.4,-1.83 -1.63,-0.84 -2.22,1.25 -5.62,-3.28 -4.98,-0.94 0,0 1.29,-0.46 0.69,-1.73 1.09,-0.34 -0.27,-1.19 2.19,-0.04 -0.5,-0.969998 1.18,-1.02 -0.32,-0.59 3.57,-5.11 -0.24,-0.6 -2.64,-2.57 -1.84,-0.86 -3.13,-0.46 -1.64,1.13 -1.53,-1.17 -0.64,-2.37 1.64,-5.25 -1.71,-0.49 0.76,-2.3 -1.17,-1.1 -1.13,1.09 -2.41,0.26 -1.55,-0.42 -0.56,-1.66 -1.31,-0.35 -0.58,2.01 -3.41,-0.01 -0.5,-1.03 -0.79,-0.17 0,0 0.69,-2.23 -0.42,-1.15 -1.16,0.1 -0.64,-0.89 0.93,-0.39 0.41,-1.54 1.03,-0.34 0.39,-1.77 1.3,-0.71 0.44,-1.02 1.33,-0.58 1.73,0.52 -0.49,-0.95 z" 
                fill="rgb(151, 144, 238)" 
                stroke="white" 
                stroke-width=".7px"
                title="Zamora" 
                id="ES-ZA" 
            />
        </svg>