<svg xmlns="http://www.w3.org/2000/svg" viewBox="219.20736999999977 44.387342000000004 78.53000000000011 74.059998" width="78.53000000000011" height="74.059998">
            <path 
                d="m 258.25737,44.437342 -0.66,1.75 1.3,0.52 -0.4,1.08 -1.06,0.25 0.7,2.3 -0.9,1.17 0.48,0.72 0.59,-0.19 0.08,0.83 -1.13,1.41 1.25,-0.16 0.46,2 -0.85,1.04 2.77,1.72 -0.89,0.44 -2.26,5.33 0.88,0.61 0.38,-1.69 1.96,0.71 1.25,-3.35 -0.17,-1.9 1.27,0.89 0.23,2.98 -0.93,1.41 0.36,4.45 -0.47,3.62 -0.98,0.53 -0.31,-1.7 -2.46,3.82 3.28,1.9 3.69,0 0.85,1.85 1.08,0.55 -0.26,0.67 1.48,0.47 1.18,1.42 0.49,3.09 -0.57,1.31 0.92,-0.1 3.53,1.79 0.37,2.06 1.53,0.56 2.04,2.06 1.23,-1.17 1.52,0.5 -0.01,2.24 1.59,2.03 0.99,4.419998 0.71,0.68 1.27,0.51 -0.49,-1.999998 1.04,1.489998 2.56,0.42 2.19,-2.309998 0.5,0.5 1.17,-0.37 0.8,-1.02 2.76,0.83 0,0 -0.46,0.55 1.65,1.809998 -0.78,0.84 1.14,2.07 0,0 -0.13,1.72 -1.81,0.46 -0.58,2.47 -1.55,0.58 -0.16,0.81 -1.43,0.14 0,1.71 0.59,0.53 0,0 -2.29,0.34 -2.25,-0.66 -1.09,1.33 -1.92,-3.31 -4.75,-2.42 -1.37,-0.09 -2.85,-2.75 -0.59,0.66 -2.11,-1.26 -0.7,-0.88 0.25,-0.72 -1.52,-0.26 -0.3,-1.13 -2.69,-0.33 -0.44,1.33 1.68,1.35 0.54,2.03 -0.67,0.42 -2.27,-3.88 -0.75,0.47 0.14,2.59 -1.35,0.46 1.82,1.83 -2.58,3.23 -2.07,-2.33 -0.83,2.5 -1.23,0.47 -0.96,-0.47 -0.72,-1.65 -0.89,2.26 -1.38,0.67 -1.26,-0.76 0.8,-2.36 -0.87,0.78 -1.18,-0.02 -2.01,-1.34 -0.52,1.33 -1.61,0.45 -1.1,-0.61 -1.37,0.66 -0.52,0.78 0.56,1.05 -1.05,1.16 -2.05,-0.35 -0.05,-1.26 -1.51,0.9 -0.18,1.27 -2.01,0.81 0.91,1.56 -0.8,1.12 -0.99,-0.62 -1.62,1 -1.82,-0.17 0,0 -5.68,-5.9 -3.99,-2 -0.82,-1.38 -2.84,1.04 0,0 -0.87,-0.98 -2.03,-0.54 -0.84,-4.22 0.32,-2.73 1.45,-1.09 0.44,-2.599998 2.02,0.77 0.2,1.739998 2.8,-0.939998 -0.47,-2.25 -0.85,-0.98 0.42,-2.43 -0.8,-2.21 2.16,0.07 1.96,-2.58 1.62,-0.11 -0.18,-0.91 0.78,-0.53 0.35,-1.04 -1.04,-0.49 0.2,-0.6 -1.54,-1.57 1.08,-2.62 -1.21,-2.3 0.02,-2.34 0,0 0.29,-1.71 0,0 0.41,0.53 2.05,-0.03 1.59,1.6 1.87,-0.35 2.94,2.12 4.53,-0.21 3.25,-5.1 -0.18,-1.21 -1.28,-0.03 -1.43,-2.19 0.22,-2.2 -0.79,-1.33 0.57,-3.28 2.14,-2.65 -0.94,-0.95 0.56,-1.89 2.11,-2.42 -0.47,-1.68 0.72,-1.41 1.18,0.61 0.72,-0.31 0.03,-1.19 1.34,-0.88 -0.67,-0.35 0.68,-0.11 0.16,-1.54 3.05,0.22 0.77,-2.4 1.81,-0.15 1.41,-1.68 z" 
                fill="rgb(151, 144, 238)" 
                stroke="white" 
                stroke-width=".7px"
                title="Zaragoza" 
                id="ES-Z" 
            />
        </svg>