<svg xmlns="http://www.w3.org/2000/svg" viewBox="299.0127699999997 217.90407 151.1700000000002 107.35000000000025" width="151.1700000000002" height="107.35000000000025">
            <path 
                d="m 311.84277,217.90407 1.87,0.68 1.24,-0.14 1.45,1.77 1.09,-1.27 1.36,0.37 0.73,1.52 1.5,-0.48 1.05,0.26 0.05,0.46 -1.18,0.56 -0.23,0.44 -0.3,2.57 0.26,0.91 1.26,1.54 0.23,5.86 0.36,1.25 -0.39,1.25 0.3,0.48 5,2.91 1.08,-1.02 3.07,-0.26 0.94,0.22 0.56,-0.57 1.84,-0.22 0.74,1.09 0.87,0.52 3.02,-0.34 0.85,-0.62 1.93,0.16 -0.04,1.16 0.78,1.45 0.5,2.25 0.36,0.06 0.98,-1.2 0.62,0.16 1.52,1.49 0.8,1.36 1.33,0.41 0.25,3.05 0.45,0.71 2.36,1.97 2.84,0.12 1.3,2.7 2.06,1.31 0.55,-0.26 0.06,-0.97 0.41,0.32 0.37,-0.14 0.38,-0.98 0.56,-0.47 0.78,0.89 1.09,-0.08 1.57,0.88 2.31,0.09 0.49,-0.51 0.14,-1.35 0.47,-0.26 0.3,-1.39 0,0 0,0 0,0 1.4,-0.68 1.33,-1.23 1.48,0.08 2.2,-0.95 0.36,0.02 0.16,0.95 0,0 -2.08,1.79 0.03,0.46 0,0 0.55,0.63 2.03,-0.56 1.69,0.42 0.95,-0.69 0.91,0.26 -0.04,0.49 -1.22,0.7 -0.84,1.05 -0.35,0.87 0.15,0.54 1.4,-0.52 0.78,-0.99 1.3,-0.61 0.77,0.35 0.59,0.84 0.52,2.26 0.74,-0.24 1.72,-1.69 0.45,1.34 0,0 -0.17,0.63 0.65,1.75 3.38,-0.04 2.98,2.4 0.83,-0.34 1.34,0.3 0.11,-0.46 -0.74,-0.77 0.18,-0.42 0.74,0.14 0.93,0.89 1.13,-0.81 1.32,1.03 1.39,0.22 0.81,-0.24 0.04,0.5 1.66,1.35 1.92,0.06 1.01,0.79 1.9,-0.95 0.97,-1.31 0.91,-0.36 2.91,0.82 0.48,0.57 0.21,1.17 0.56,0.3 0.97,-1.61 2.96,-1.23 0.33,-1.03 1.12,0.2 0.43,0.49 2.05,-0.07 0.12,0.73 -1.39,1.47 0.28,1.21 1.77,0.63 1.17,2.62 1.73,0.36 0.62,0.43 0.19,1.65 1.42,1.51 0.19,0.65 0.59,-0.28 0.78,0.52 0.57,1.03 1.22,0.24 1.8,3.8 1.16,-0.26 1.36,1.37 0.57,-0.36 0.71,0.14 0.21,1.41 2.93,3.25 -0.09,0.83 1.58,3.6 1.17,1.46 1.41,3.36 0.1,1.55 1.12,-0.2 2.76,0.73 0.78,0.57 1.4,-0.35 1.68,1.97 0,0 -0.3,1.21 -0.49,0.47 -0.86,-0.33 -0.4,-0.69 -0.44,0.75 -0.73,1.91 0.52,0.69 -0.28,1.19 -0.77,1.18 -0.67,-0.21 -0.04,-0.5 -0.76,-0.45 -0.56,0.33 -0.47,-0.21 0.71,-1.33 -1.53,-0.29 -0.56,1.14 -0.64,-0.25 -1.69,1.56 0.99,0.94 -0.64,0.79 -2.1,0.73 -1.53,-0.29 -0.58,0.39 -0.42,-0.75 -4.34,-2.76 -1.58,0 0.44,1.44 -0.16,0.69 0.82,1.17 -1.46,1.18 -2.18,1.07 -0.59,-1.07 -1.22,-0.1 0.18,0.73 0.59,0.61 -0.64,1.21 0.76,2.09 0.48,0.41 0.71,-0.21 0.36,1.85 2.04,1.54 0.45,0.98 1.4,1.19 0.6,1.65 -1.07,1.64 -1.12,-0.47 -0.58,0.37 -0.54,2.4 1.15,0.85 -1.65,0.75 -1.74,-1.91 -1.47,1.08 0.01,0.63 -1.37,1.62 -0.81,-1.5 -0.45,0.04 -0.32,3.03 -5.04,-2.12 -1.07,0.49 -1.68,0.1 -1.22,-0.49 -3.32,-0.02 -0.22,-2.33 -0.68,-0.75 -0.82,-0.33 -1.1,0.45 -2.39,-2.32 -0.98,1.39 -1.82,0.04 -0.37,0.75 -1.24,0.28 -0.94,-0.93 -2.16,1.8 0.08,0.86 -0.78,1.34 0.51,0.47 -1.43,-0.04 -1.52,-1.26 -1.32,0.52 -2.71,-1.09 -0.38,-0.41 -0.19,-1.58 -0.69,-1.34 -2.69,-2.74 -3.98,2.57 0,0 -3.48,2.44 -0.77,0.08 -3.44,2.03 0,0 -0.55,-1.3 -0.08,-1.4 -1.31,-0.69 -1.13,-0.14 -1.91,-1.71 -1.28,0.1 -0.91,-1.7 -0.7,-0.37 1.13,-1.25 -1.23,-5.1 -0.11,-1.76 -1.06,0.22 -1.16,-1.52 -0.55,0.53 -0.85,-0.65 -0.85,0.39 -1.19,-0.9 -1.31,0.75 -0.8,1.1 -2.87,0.04 -1.36,0.85 -0.38,-0.3 0.1,-1.28 0.99,-2.37 0.27,-2.09 1.66,0.43 -0.01,-2.13 0.66,-0.79 -0.61,-1.05 -0.2,-1.18 -1.82,-0.38 -0.29,0.97 -0.87,-1.26 0.28,-1.07 -1.32,-1.42 -1.36,-2.33 -0.14,-0.95 -0.63,-0.06 0,0 -0.27,-0.52 1.02,-1.6 1.79,-1.66 0.35,-0.87 -0.95,-1.42 0.64,-0.64 0.65,-0.06 0.21,-1.01 -0.77,-1.28 -1.2,-0.83 0.83,-2.02 -0.11,-1.59 -0.86,-1.68 0.41,-0.52 -0.03,-0.67 -0.44,-0.69 -1.2,-0.58 0.14,1.23 -0.71,0.3 -1.55,-0.48 -1.39,-0.97 -0.48,-0.59 0.07,-0.72 1.32,-1.86 -1.1,-0.93 -0.91,0.83 -0.35,-0.16 -0.41,-2.73 -1.01,-0.56 -0.88,0.32 -0.99,-0.87 -2.91,-4.5 -3.16,0.39 -0.53,-2.28 -0.98,-0.4 -0.19,-0.85 -0.78,-0.44 -0.17,-0.57 -3.6,-0.54 -1,-0.69 -0.24,-0.94 -1.91,1.77 -0.46,1.91 -1.29,0.02 -3.27,-3 0.85,-1.17 -2.91,-1.39 -0.56,-0.7 -0.1,-0.85 -1.26,-0.36 0.42,-1.35 -1.14,-0.94 -0.65,-1.33 -0.71,-0.26 -0.78,-1.17 -0.64,-0.3 -0.44,-1.07 -2.09,-0.66 -0.82,-1.29 -4.49,-0.54 -2.15,-2.26 -1.4,1.11 -1.03,-0.24 -1.36,0.66 -0.48,-0.44 -0.38,-2.62 0.94,-0.9 0.51,-1.81 -0.39,-1.02 -0.98,-1.15 -0.44,-1.39 -0.89,-1.08 0.37,-1.23 1.54,-2.32 3.62,1.02 1.06,-0.4 2.02,-2.51 1.22,-3.98 2.22,-2.86 z" 
                fill="rgb(151, 144, 238)" 
                stroke="white" 
                stroke-width=".7px"
                title="Cavan" 
                id="IE-CN" 
            />
        </svg>