<svg xmlns="http://www.w3.org/2000/svg" viewBox="458.0127699999999 255.97406999999993 69.09000000000009 80.95000000000016" width="69.09000000000009" height="80.95000000000016">
            <path 
                d="m 469.20277,269.84407 0.84,-0.46 0.41,-1.66 1.34,0.51 0.91,-0.47 0.52,0.67 1.03,0.16 1.26,-0.16 1.77,-1.19 2.3,0.97 1.48,-1.94 0.78,0.06 0.99,-0.6 0.79,-0.06 -0.87,-1.05 0.56,-1.27 1.47,1.06 0.97,-0.02 0.93,2.14 0.86,0.71 0.52,0.08 2.88,-1.05 2.96,0.58 0.74,-1.53 1.7,-0.34 0.38,-0.48 0.01,-4.8 -0.34,-2.54 0.3,-0.87 1.79,-0.32 0.95,0.24 0.54,1.31 0.02,2.4 1.46,0.58 0.61,-0.3 0.83,-1.27 0.33,-1.37 1.02,-0.58 1.28,-0.14 1.17,0.74 1.11,1.25 0,0 2.74,4.6 5.49,3.67 1.83,3.55 0.83,-0.06 0.15,0.46 2.78,2.18 0.95,-0.14 0.88,-1.17 0.38,0 0.43,3.25 2.84,3.39 -2.49,1.88 -1.82,2.25 -0.7,-0.35 -2.27,0.85 -1.19,-0.56 -1.27,0.34 -1.21,-0.18 -2.61,-1.13 -3.47,-0.53 -4.33,-2.77 -0.84,-0.97 -3.22,-1.39 -2.15,0.2 -0.9,0.47 -0.58,-0.23 0.35,-0.62 -1.07,-0.89 -0.63,-2.3 -0.89,0.36 0.78,1.29 -0.41,0.31 0.99,1.51 -0.57,-0.08 -0.29,0.4 -2.43,-0.28 -0.02,0.91 3.68,0.67 1.03,-0.41 0.54,0.55 0.4,1.47 -0.69,1.32 -1.46,0.9 -0.11,0.53 -0.41,-0.06 -0.18,0.63 0.45,1.75 -0.36,1.68 -0.4,1.05 -1.08,0.25 -0.42,1.13 0.09,1.25 0.77,0.04 -0.38,4.5 0.99,4.05 2.19,3.02 2.14,1.66 2.91,-0.15 1.5,1.14 1.49,0.51 1.6,0.02 0.79,0.99 1.46,0.02 0.92,0.71 -1.62,2.45 -0.92,4.91 0.08,2.94 0.43,0.78 0.61,0.18 0.63,0.77 1.44,0.04 1.8,0.79 -0.66,1.04 -1.24,0.38 -0.35,0.49 -1.11,4.29 -0.66,5.16 -0.44,1.16 0.16,0.9 0.89,1.09 0,0 -0.65,-0.2 -0.97,-1.42 -1.32,-0.06 -2.7,1.6 -3.04,0.75 -0.29,0.29 -0.03,1.89 -2.38,0.41 -1.44,0.02 -1.31,-0.81 -1.26,-1.33 -2.9,-0.47 -1.53,-1.26 -0.91,0.07 -0.45,0.93 -0.99,0.16 0.23,0.76 -0.83,0.1 -0.31,-0.31 -0.52,0.41 -1.07,-0.02 -0.02,0.35 -0.63,-0.19 -0.92,-1.42 -0.66,-0.21 -0.29,-0.77 -0.5,-0.08 -0.06,-0.85 0.36,0 0.8,-0.94 1.49,-2.91 1.18,-1.09 -0.5,-1.75 -1.66,-1.02 -5.48,0.55 -1.48,-0.63 -0.37,-1.12 -0.84,-0.51 -1.12,0.09 -0.66,-2.75 0.48,-0.91 -0.45,-0.47 -2.21,0 -0.56,-0.79 -0.28,-1.81 0.23,-0.6 -0.31,-0.25 0.17,-1.19 -0.57,-1.4 -0.83,0.06 -0.22,-0.25 -0.54,-1.42 0.72,-1.6 -1.23,-2.86 -2.8,-3.53 -1.85,0 -0.32,-0.7 -0.92,-0.37 -0.58,0.24 -0.93,-1.54 -1.69,-0.81 -0.36,-1.17 -1.27,-0.41 0,0 1.32,-2 1.37,0.61 0.75,-0.69 2.1,-0.65 0.16,-1.21 1.44,-1.22 -0.28,-0.5 -2.6,-1.77 -0.06,-0.86 1.07,0.02 0.28,-0.55 -1.78,-1.7 0.25,-0.24 1.38,0.91 -0.15,-0.77 -1.32,-1.28 0.3,-0.32 0.65,0.37 1.65,-0.21 0.28,-1.11 -0.67,-0.36 0.03,-0.53 0.79,-0.5 0.86,0.24 0.17,-0.97 0.95,-0.57 3.1,1.58 0.59,0.77 2.35,-0.37 0.6,-0.97 -0.7,-0.85 1.31,-1.51 -0.66,-1.76 1.27,-1.29 -0.68,-1.11 -0.08,-0.97 -0.96,-0.47 0.49,-0.46 -0.78,-0.41 -1.32,-1.47 0.59,-0.89 z" 
                fill="rgb(151, 144, 238)" 
                stroke="white" 
                stroke-width=".7px"
                title="Louth" 
                id="IE-LH" 
            />
        </svg>