<svg xmlns="http://www.w3.org/2000/svg" viewBox="382.9627699999999 195.31406999999996 91.85000000000014 103.07999999999998" width="91.85000000000014" height="103.07999999999998">
            <path 
                d="m 384.96277,255.46407 0.44,0.37 1.03,-0.61 0.09,-0.98 -1.35,-2.68 -1.07,0.12 -0.38,-1.13 -0.76,-0.44 2.35,-2.64 1.12,-1.93 2.03,-0.76 1.33,0.96 -0.56,1.25 -0.08,1.45 -1.49,0.8 -0.25,0.75 0.11,0.36 1.63,0.79 0,0.5 -0.53,0.76 -1.27,-0.08 -0.83,0.45 1.1,2.03 0.95,0.34 1.13,-0.42 0.18,-1.37 1.91,-1.49 0.12,-1.01 -0.49,-0.92 1.17,-2.82 0.99,-1.25 0.99,-0.62 -0.22,-0.55 -1.12,-0.34 -0.45,-1.83 0.08,-2.17 1.77,0.04 0.62,-0.36 0.06,-0.52 -0.62,-0.55 -1.35,0.04 0.42,-1.08 0.73,-0.24 1.23,0.22 -0.05,-0.95 0.36,-0.5 1.12,-0.56 1.7,-0.14 1.52,-1.67 1.63,1.17 1.07,0.16 1.54,-0.43 0.77,-0.6 -0.07,-3.03 -1.03,-1.17 0.3,-0.62 1.26,-0.8 -0.17,-0.85 -0.85,-0.98 -1.17,-2.53 -1.95,0.1 0.09,-0.68 0.66,-0.72 -0.12,-0.75 -3.98,-1.8 -0.32,-0.46 0.22,-1.63 1.25,-1.52 1.79,0.12 0.14,-0.28 0.39,-2.37 -0.36,-1.68 -0.82,-1.02 0.09,-0.38 4.06,0.72 0.57,-0.7 0.58,-0.16 0.7,-1.08 0.7,-0.1 1.22,-1.41 1.95,-0.26 0.13,-0.92 -0.89,-1.7 2.85,-2.28 3.04,-4.63 0.69,-1.7 3.03,-1.8 1.06,0.88 0.4,-0.22 1.23,0.86 -0.07,0.62 0.43,0.63 1.28,0.02 0.76,-0.46 1.05,1.48 1.11,0.02 0.69,0.64 0.05,1.02 1.13,0.4 0.42,-0.22 0.1,1.14 0.71,0.5 1.06,0.1 -0.37,0.54 0.22,0.7 0.61,0.1 0.61,-0.62 1.02,0.82 -0.05,0.56 0.62,0.5 -0.26,1.32 0.68,0.48 0.06,1.72 1.24,0 1.09,0.76 0.88,2.67 0.63,1.22 0.64,0.48 0.12,1.91 0.6,0.44 -0.09,2.24 0.42,2.03 -0.95,0.72 0.17,1.55 -0.61,-0.08 -0.21,-0.91 -0.79,0.4 0.27,1.15 1,0.74 0.12,1 1.27,0.22 0.34,1.07 1.21,-0.38 1.25,1.1 -0.08,2.55 1.02,1.93 0.43,2.53 0.33,0.32 0.8,-0.18 0.63,0.56 -0.05,1.47 3.06,2.89 2.35,0.25 1,1.12 0.73,1.85 1.03,-0.56 1.25,0.7 0.82,-2.55 1.44,-1.19 1.05,0.14 0.95,1.13 2.29,0.34 0.65,0.56 0.63,2 1.12,0.84 0.68,1.21 1.05,2.61 0.04,1.13 -1,2.13 -0.28,1.88 -0.96,1.04 -0.24,0.91 -0.59,-0.36 -0.59,0.12 0.07,1.13 1.98,4.03 -0.21,0.28 -1.67,0.14 0.48,1.25 -0.3,0.79 0.24,0.94 -0.26,0.97 -0.88,0.63 0.14,1.35 0.55,0.56 1.45,0.06 1.57,2.95 1.28,1.43 0.52,0.1 0.72,-0.78 0.57,0.28 0.42,-0.79 0.46,-0.02 0,0 2.87,2.24 -0.59,0.89 1.32,1.47 0.78,0.41 -0.49,0.46 0.96,0.47 0.08,0.97 0.68,1.11 -1.27,1.29 0.66,1.76 -1.31,1.51 0.7,0.85 -0.6,0.97 -2.35,0.37 -0.59,-0.77 -3.1,-1.58 -0.95,0.57 -0.17,0.97 -0.86,-0.24 -0.79,0.5 -0.03,0.53 0.67,0.36 -0.28,1.11 -1.65,0.21 -0.65,-0.37 -0.3,0.32 1.32,1.28 0.15,0.77 -1.38,-0.91 -0.25,0.24 1.78,1.7 -0.28,0.55 -1.07,-0.02 0.06,0.86 2.6,1.77 0.28,0.5 -1.44,1.22 -0.16,1.21 -2.1,0.65 -0.75,0.69 -1.37,-0.61 -1.32,2 0,0 -0.27,0.27 -2.45,-0.49 -1.95,-2.57 -0.99,0.65 -1.05,-0.16 -1.12,-0.75 0,0 -1.68,-1.97 -1.4,0.35 -0.78,-0.57 -2.76,-0.73 -1.12,0.2 -0.1,-1.55 -1.41,-3.36 -1.17,-1.46 -1.58,-3.6 0.09,-0.83 -2.93,-3.25 -0.21,-1.41 -0.71,-0.14 -0.57,0.36 -1.36,-1.37 -1.16,0.26 -1.8,-3.8 -1.22,-0.24 -0.57,-1.03 -0.78,-0.52 -0.59,0.28 -0.19,-0.65 -1.42,-1.51 -0.19,-1.65 -0.62,-0.43 -1.73,-0.36 -1.17,-2.62 -1.77,-0.63 -0.28,-1.21 1.39,-1.47 -0.12,-0.73 -2.05,0.07 -0.43,-0.49 -1.12,-0.2 -0.33,1.03 -2.96,1.23 -0.97,1.61 -0.56,-0.3 -0.21,-1.17 -0.48,-0.57 -2.91,-0.82 -0.91,0.36 -0.97,1.31 -1.9,0.95 -1.01,-0.79 -1.92,-0.06 -1.66,-1.35 -0.04,-0.5 -0.81,0.24 -1.39,-0.22 -1.32,-1.03 -1.13,0.81 -0.93,-0.89 -0.74,-0.14 -0.18,0.42 0.74,0.77 -0.11,0.46 -1.34,-0.3 -0.83,0.34 -2.98,-2.4 -3.38,0.04 -0.65,-1.75 z" 
                fill="rgb(151, 144, 238)" 
                stroke="white" 
                stroke-width=".7px"
                title="Monaghan" 
                id="IE-MN" 
            />
        </svg>