<svg xmlns="http://www.w3.org/2000/svg" viewBox="285.362770000001 27.284071000000093 320.02000000000055 246.78999899999985" width="320.02000000000055" height="246.78999899999985">
            <path 
                d="m 593.84277,144.78407 0.82,0.24 0.35,-0.32 -0.17,-1.29 -0.62,-0.08 -0.67,-0.72 -1.17,0.77 0.4,0.64 0.75,0.2 0.31,0.56 z m 8.97,35.95 -0.79,-0.96 -1.07,-3.97 0.07,-1.48 -1.43,-2.27 -0.19,-2.19 0.85,-3.11 -1.46,-3.05 -0.73,0.06 -0.69,-0.82 -0.72,-2.13 -1.52,-1.1 -0.78,-3.2 -0.43,-0.66 0.35,-0.66 -0.49,-0.5 0.14,-2.29 0.37,-0.66 -0.29,-1.31 -0.65,-0.02 -0.68,-1.37 0.02,-0.76 -0.99,-0.38 -2.04,-1.77 -0.88,-1.33 -0.07,-0.72 -0.76,-0.54 -0.67,0.14 -0.02,0.44 -0.69,-0.48 -0.06,-0.4 -2.01,0.68 -0.51,-0.5 -1.83,-0.4 -0.46,0.32 0.02,0.99 0.34,0.34 -1.02,1.21 -0.68,0.32 -0.48,-0.14 -0.57,-1.29 -1.59,1.25 -1.06,-0.66 -1.04,0.2 -0.3,0.42 -0.9,-0.6 -1.88,0.48 -2.52,-1.39 -0.61,-0.87 -4.13,2.64 -2.65,0.76 -1.96,1.33 -0.11,0.36 -0.49,0.08 -0.9,1.25 -1.6,0.86 -1.22,1.53 -1.19,-0.14 -1.35,1.39 -0.3,-0.32 -0.31,0.14 -0.53,0.72 -0.25,2.69 -0.52,0.48 -0.49,-0.04 -0.89,0.76 -0.85,0.12 -0.93,-0.64 1.34,-3.04 -0.7,-0.52 0.8,-0.3 0.13,-1.09 -1.49,-0.89 0.43,-2.31 0.82,-1.67 0.81,-0.7 0.56,-2.72 4.37,-4.19 1.03,-0.34 0.06,-0.77 0.75,-0.4 0.02,-0.75 3.22,-1.27 0.89,0.1 0.27,-0.69 2.21,-1.31 4.42,-1.01 1.66,-2.2 1.1,-0.42 1.61,-1.33 0.3,-1.55 2.15,-2.84 -0.55,-2.1 0.34,-5.75 -2.29,-5.72 -1.94,-2.81 -0.4,0.1 -0.85,-0.85 -2.88,-1.54 -0.28,1.4 -0.78,0 -0.99,-1.05 -0.36,1.17 -0.99,0.18 0,0.73 -0.55,-0.12 -1.89,-3.98 -3,-2.97 -0.59,-3.519999 -1.94,0.1 -2.16,-1.74 -2.29,-6.64 -2.6,-4.07 -1.92,-1.72 -2.3,0.1 -0.6,-1.76 -0.52,-0.47 -1.67,0.26 -1,-0.61 -0.42,-1.24 1.69,-3.63 1.74,-7.72 -0.08,-1.1 -1.02,-1.12 -2.47,-1.02 -3.81,0.51 -1.82,0.81 -0.65,-0.22 -1,-1.04 0.38,-5.27 1.74,-2.89 0.22,-0.96 0.07,-3.62 -0.63,-0.83 -0.05,-0.85 1.7,-1.83 0.16,-1.02 -0.05,-2.4 -0.84,-2.53 -2.05,-1.24 -0.41,-1.51 -1.29,-1.71 0.12,-1.51 -1.6,-0.16 -2.65,-1.75 -1.91,-0.57 -2.65,-3.24 -2.05,-0.04 -2.61,2.61 -2.98,0.67 -0.51,0.53 -3.2,0.86 -0.33,-0.88 -0.51,-0.39 -2.21,-0.75 -1.08,-1.31 -1.49,-0.61 -0.63,-0.75 -0.02,-0.6 -0.78,-0.14 -1.49,0.37 -2.85,-1.96 -1.71,-0.27 -0.35,-0.47 -0.79,0.2 -1.07,-0.74 -0.68,0.59 -0.75,-0.06 -0.5,0.98 -0.85,0.63 -2.18,0.6 -0.65,-0.98 -0.88,0.12 -0.43,-0.43 -0.96,-0.12 -0.19,0.27 -0.76,-0.41 -0.77,0.18 -0.64,-0.27 -0.61,-0.61 -0.1,-0.92 -0.34,0.02 -0.42,-0.8 -0.83,-0.14 -0.17,0.31 -0.9,-0.33 -0.3,0.74 -1.11,-0.06 -0.08,0.45 -0.91,-0.12 -0.27,1.25 -1.26,0.27 0.06,0.71 -1.69,0.47 0,0.78 0.49,0.37 -0.09,0.55 -0.89,1.33 -0.61,-0.43 -0.42,0.43 0.03,0.47 -3.04,0.18 -0.72,0.82 -3.78,1.14 -1.81,-0.37 -2.48,0.63 -1.24,-1.65 -0.32,0.33 -0.38,-0.24 0.85,1.8 -0.57,0.98 -2.13,0.02 -1.13,0.57 -0.5,-0.18 -1.28,0.96 -0.4,-0.37 -0.52,0.88 -1.02,0.08 0.08,0.9 -0.67,1.12 0.08,1.16 -0.72,0.65 -4.78,0.63 -3.87,-0.45 -1.79,0.37 -4.14,0.14 -4,-0.49 -4.05,-2.04 -2.71,-2.53 -2.32,-0.49 0.58,2.98 -0.93,6.68 -2.13,5.27 -0.08,0.96 -0.4,0.37 0.35,0.92 -0.77,0.73 -1.22,-0.14 -1.1,1.2 -0.44,2.42 0.78,2.5 -1.01,1.44 -2.49,2.07 0,0.41 0.6,0.53 -1.66,0.98 -3.66,0.87 -5.11,0.67 -2.12,-0.85 -0.15,-2.21 -0.98,-0.58 -3.27,-0.26 -1.91,0.37 -1.45,0.71 -1.03,-0.81 -1.34,0.65 -0.11,1.65 -2.06,0.96 -0.38,-0.51 0.49,-1.91 -0.9,-2.22 0,0 -1.61,0.61 -0.85,1.87 -0.89,0.91 -0.34,0.02 -1.06,-1.28 -1.54,1.1 -0.75,1.02 -2.16,-1.3 -1.2,0.28 -1.55,1.67 -0.56,1.18 -3.53,3.84 -0.77,2.5 1.26,1.79 -0.88,0.97 -0.98,2.01 0.9,1.99 -0.56,1.78 0.36,0.77 -0.43,0.81 1.18,2.13 -1.49,0.67 -3.11,0.08 -1.4,1.26 0.09,4.84 -0.67,1.92 -0.07,1.32 1.08,2.809999 -0.08,2.35 -1.25,3.2 -0.9,0.44 -0.01,0.81 -2.15,4.81 -1.35,0.51 -3.9,2.83 -0.2,1.19 -1.11,0.38 -0.98,1.55 0.29,1.78 -0.65,4.82 0.23,0.79 1.16,0.87 -1.11,1.79 -0.43,-0.04 -0.51,-0.6 -2.64,0.36 -0.08,-1.47 -0.91,0.18 -0.57,1.17 -1.25,-0.22 -1.88,0.38 -2.64,-1.41 -3.88,2.98 -0.49,0.77 -1.8,0.54 -0.7,0.81 -1.58,-0.18 -2.82,1.94 -0.7,0.69 -0.54,1.21 -3.13,-0.75 -0.46,-1.23 -0.97,-0.16 -0.69,-0.66 -1.18,0.1 -1.88,-3.04 -0.54,-0.34 -1.19,-0.06 -2.96,2.74 -2.48,4.07 -1.19,0.18 -0.77,0.5 -0.51,-0.34 -0.98,0.24 -1.13,-0.32 -0.02,1.33 0.63,0.3 0.24,0.62 1.49,0.32 -0.14,0.85 -1.54,1.79 1.12,3.16 0.74,0.58 1.6,0.24 2.87,1.35 0.41,1.47 -0.56,0.8 0.68,0.76 0.06,0.91 0.8,0.02 1.04,-0.58 1.04,0.14 1.96,-2.31 1.62,1.99 1.82,0.84 1.28,1.69 1.39,-0.52 0.58,0.8 1.76,0.28 0.51,-1 3.33,-1.85 0.57,1.23 -0.58,1.51 1.1,0.52 -0.09,0.78 -1.18,1.33 -4.98,1.61 -1.63,2.47 -3.64,1.15 0.02,0.44 -0.36,0.24 0.23,0.9 -0.5,0.74 -1.07,0.22 -1.53,1.22 -0.89,1.24 -0.04,1.1 0.89,1.08 -2.59,2.05 -1.53,-0.64 -1.1,0.42 -2.6,-0.28 -0.75,0.3 -1.26,-0.42 -2.38,0.48 -1.98,-0.16 -0.69,0.32 -1.48,-1.63 -0.48,-1.26 -0.82,0.14 -1.25,0.82 -2.26,-0.38 -0.86,2.11 -3.31,5.59 0.22,1.56 -0.52,2.5 -2.73,0.36 -0.76,-0.48 -1.02,-0.02 -1.53,0.64 -0.83,1.48 -1.26,0.26 -0.04,1.2 -4.28,-0.06 -2.61,0.38 -0.29,0.68 0,0 3.9,2.62 -0.01,0.46 -2.17,1.28 0.14,0.82 6.5,5.4 1.4,1.56 0.41,0.64 -0.26,0.62 3.3,5.62 2.89,1.56 0.51,0.96 0.74,-0.44 1.19,0.46 1.03,-0.56 1,0.3 -0.1,1.82 1.41,1.08 0.62,1.64 1.81,2.04 0.35,1.76 1.8,1.94 0,0 1.87,0.68 1.24,-0.14 1.46,1.77 1.08,-1.28 1.37,0.38 0.72,1.52 1.5,-0.48 1.05,0.26 0.05,0.46 -1.18,0.56 -0.23,0.44 -0.29,2.57 0.26,0.92 1.26,1.53 0.23,5.86 0.35,1.25 -0.39,1.25 0.3,0.48 4.99,2.91 1.08,-1.01 3.07,-0.26 0.95,0.22 0.56,-0.58 1.83,-0.22 0.75,1.09 0.86,0.52 3.02,-0.34 0.85,-0.62 1.94,0.16 -0.05,1.15 0.78,1.45 0.5,2.25 0.36,0.06 0.98,-1.19 0.62,0.16 1.52,1.49 0.8,1.35 1.33,0.42 0.25,3.04 0.45,0.72 2.36,1.97 2.85,0.12 1.29,2.7 2.06,1.31 0.55,-0.26 0.06,-0.97 0.41,0.32 0.37,-0.14 0.37,-0.97 0.56,-0.48 0.78,0.89 1.1,-0.08 1.56,0.87 2.31,0.1 0.49,-0.52 0.14,-1.35 0.48,-0.26 0.29,-1.39 1.4,-0.68 1.33,-1.23 1.48,0.08 2.21,-0.95 0.36,0.02 0.15,0.95 0,0 -2.12,1.91 0.08,0.34 0,0 0.55,0.64 2.03,-0.56 1.69,0.42 0.95,-0.7 0.91,0.26 -0.04,0.5 -1.22,0.7 -0.84,1.05 -0.35,0.87 0.15,0.54 1.4,-0.52 0.78,-0.99 1.29,-0.62 0.77,0.36 0.59,0.83 0.51,2.26 0.75,-0.24 1.71,-1.69 0.46,1.33 0,0 0.44,0.38 1.03,-0.62 0.09,-0.97 -1.35,-2.68 -1.07,0.12 -0.37,-1.13 -0.77,-0.44 2.36,-2.64 1.12,-1.93 2.03,-0.76 1.33,0.95 -0.56,1.25 -0.08,1.45 -1.49,0.79 -0.25,0.75 0.1,0.36 1.63,0.79 0,0.5 -0.53,0.75 -1.27,-0.08 -0.83,0.46 1.1,2.03 0.94,0.34 1.13,-0.42 0.19,-1.37 1.9,-1.49 0.13,-1.01 -0.49,-0.91 1.17,-2.82 0.99,-1.25 0.99,-0.62 -0.22,-0.56 -1.12,-0.34 -0.45,-1.83 0.08,-2.17 1.77,0.04 0.62,-0.36 0.06,-0.52 -0.62,-0.56 -1.35,0.04 0.42,-1.07 0.74,-0.24 1.22,0.22 -0.05,-0.96 0.36,-0.5 1.12,-0.56 1.7,-0.14 1.52,-1.67 1.63,1.17 1.06,0.16 1.54,-0.44 0.77,-0.6 -0.07,-3.03 -1.03,-1.18 0.3,-0.62 1.26,-0.8 -0.17,-0.86 -0.85,-0.98 -1.17,-2.53 -1.95,0.1 0.09,-0.68 0.65,-0.72 -0.12,-0.76 -3.98,-1.79 -0.33,-0.46 0.22,-1.64 1.25,-1.52 1.8,0.12 0.14,-0.28 0.38,-2.37 -0.36,-1.68 -0.82,-1.02 0.09,-0.38 4.06,0.72 0.57,-0.7 0.57,-0.16 0.7,-1.08 0.7,-0.1 1.23,-1.42 1.95,-0.26 0.13,-0.92 -0.89,-1.7 2.85,-2.28 3.04,-4.64 0.69,-1.7 3.03,-1.8 1.06,0.88 0.4,-0.22 1.22,0.86 -0.07,0.62 0.43,0.64 1.28,0.02 0.76,-0.46 1.05,1.48 1.11,0.02 0.69,0.64 0.06,1.02 1.13,0.4 0.42,-0.22 0.09,1.14 0.71,0.5 1.06,0.1 -0.37,0.54 0.22,0.7 0.61,0.1 0.62,-0.62 1.01,0.82 -0.05,0.56 0.62,0.5 -0.26,1.32 0.68,0.48 0.06,1.72 1.24,0 1.1,0.76 0.88,2.68 0.63,1.22 0.64,0.48 0.12,1.92 0.61,0.44 -0.09,2.23 0.42,2.03 -0.95,0.72 0.16,1.56 -0.61,-0.08 -0.21,-0.92 -0.79,0.4 0.27,1.16 1,0.74 0.12,1 1.27,0.22 0.34,1.08 1.21,-0.38 1.25,1.1 -0.08,2.55 1.03,1.93 0.43,2.53 0.33,0.32 0.8,-0.18 0.63,0.56 -0.06,1.47 3.07,2.89 2.34,0.26 1,1.11 0.72,1.85 1.04,-0.56 1.25,0.7 0.82,-2.55 1.45,-1.19 1.05,0.14 0.95,1.13 2.29,0.34 0.65,0.56 0.63,2.01 1.12,0.84 0.68,1.21 1.05,2.6 0.05,1.13 -1,2.13 -0.28,1.89 -0.96,1.03 -0.25,0.91 -0.58,-0.36 -0.59,0.12 0.07,1.13 1.98,4.03 -0.21,0.28 -1.67,0.14 0.48,1.25 -0.3,0.79 0.25,0.93 -0.27,0.97 -0.88,0.63 0.14,1.35 0.55,0.56 1.45,0.06 1.58,2.95 1.28,1.43 0.51,0.1 0.72,-0.77 0.57,0.28 0.42,-0.79 0.45,-0.02 0,0 0.84,-0.46 0.41,-1.67 1.34,0.52 0.91,-0.48 0.53,0.67 1.03,0.16 1.26,-0.16 1.77,-1.19 2.3,0.97 1.48,-1.94 0.78,0.06 0.99,-0.6 0.78,-0.06 -0.86,-1.05 0.56,-1.27 1.47,1.05 0.97,-0.02 0.93,2.14 0.85,0.71 0.52,0.08 2.88,-1.05 2.96,0.58 0.73,-1.53 1.7,-0.34 0.37,-0.48 0.01,-4.8 -0.34,-2.54 0.3,-0.87 1.78,-0.32 0.96,0.24 0.54,1.31 0.02,2.4 1.46,0.58 0.61,-0.3 0.83,-1.27 0.34,-1.37 1.01,-0.58 1.28,-0.14 1.17,0.73 1.11,1.25 0,0 0.44,-0.46 1.35,1.01 1.71,-0.67 2.37,0.12 0.53,0.48 0.8,-0.1 0.14,-0.3 1.45,1.15 0.15,1.83 0.78,2.08 0.72,0.02 1.21,0.85 -0.19,0.2 0.47,0.46 0.84,0.28 0.64,-0.18 1.62,0.71 0.56,-0.67 0.69,-0.02 0.71,0.08 0.63,0.52 2.48,0.02 0.44,0.73 0.64,0.16 1.28,2.1 -0.37,0.22 -2.43,-0.42 -0.05,0.95 -0.89,0.79 2.18,0.75 0.82,1.37 1.47,0.04 0.54,0.46 0.08,0.75 0.4,-0.02 1.59,-1.41 3.01,-1.6 2.59,-3.65 1.02,-0.61 2.5,-0.73 0.7,0.14 0.29,-0.99 0.54,-0.28 -0.01,-0.97 0.46,-0.73 4.71,-3.41 1.89,-2.32 0.49,-1.63 -0.1,-0.68 0.7,-0.64 -0.27,-2.72 1.38,-3 0.55,-3.02 -0.33,-4.22 -1.8,-3.54 1.15,-2.21 5.92,-4.72 0.13,-1.27 -0.94,-1.16 -0.3,0.52 -0.99,0.04 -0.47,0.48 -0.79,1.85 0.06,-2.27 0.97,-0.44 0.36,-0.66 0.84,-0.5 1.21,-2.41 0.22,-1.18 1.03,-1.28 0.36,0.38 -0.53,1.89 0.43,2.45 -0.47,0.38 -1.53,-0.08 1.47,2.73 3.9,-0.64 1.24,0.3 1.36,-0.6 0.95,0.2 0.88,-1.04 2.24,-0.34 0.92,0.84 3.25,-0.28 1.41,0.64 0.28,-0.14 0.79,2.71 1.52,1.79 1.39,-1.21 0.69,-1.67 0.53,0 0.15,-0.3 -0.27,-1.29 0.23,-0.76 -0.86,-0.8 0.91,-1.16 0.06,0.48 0.72,0.24 0.02,1.02 0.77,-0.38 0.57,0.74 0.02,1.04 0.86,-0.42 0.97,-2.19 -0.52,0.06 -0.06,-1.12 0.29,-0.18 0.84,0.82 0.52,-0.14 0.96,-1.71 0.91,-0.4 1.74,-2.31 1.68,-4.49 0.74,-0.26 0.4,-0.8 1.35,0.42 0.12,-0.72 -1.89,-0.94 -0.41,-2.71 0.48,-1.28 -0.83,-1.6 0.07,-0.86 -0.34,-0.58 -0.01,-3.06 -0.53,-0.4 -0.15,-0.96 -0.73,0.16 -0.34,0.78 0.38,0.6 -0.67,0.66 -0.26,-0.96 -0.76,-0.42 0.74,-1.54 -0.25,-0.6 -1.34,0.1 -0.54,-0.42 -0.89,0.46 -0.29,0.76 -0.59,0.3 -0.43,-0.38 -0.9,-0.04 -1.99,1.5 -1.52,0.32 0,0.7 -0.5,0.38 -0.64,-0.7 -0.86,0.22 -0.28,0.72 -1.12,-1.16 -0.74,0.28 -0.25,-1.3 0.86,-0.62 0.23,0.28 1.13,-1.34 0.51,0.24 0.76,-0.24 -0.51,-0.64 0.83,-0.54 1.08,-2.58 0.05,-1.68 -0.62,-0.68 0.3,-0.42 -0.33,-0.96 0.95,-1.4 -0.58,-0.02 0.12,-0.56 1.4,0.22 0.23,-1.1 -0.17,-0.76 -0.86,-0.82 -0.47,-1.32 -0.75,-0.8 0.07,-0.42 0.61,0.24 0.35,-0.22 0.08,-1.76 -0.81,-0.6 -0.9,0.46 -0.18,-0.78 0.58,0.06 0.58,-0.98 -0.96,-0.16 0,-0.44 0.33,0.08 0.76,-1.06 -1.1,-0.82 0.75,-0.92 -1.13,-1.7 -0.83,0.58 -0.36,0.74 -1.18,-1.46 0.28,-2.22 0.56,-0.4 0.64,0.3 0.91,-1.22 0.44,-0.1 0.02,-0.68 -1.63,0.22 -0.07,-0.58 -1.5,-0.32 -1,-0.86 0.27,-0.34 -0.3,-0.3 -1.18,-0.42 -0.9,-0.86 -0.82,0.3 -0.54,-0.66 1.74,-1.32 0.79,-0.2 -0.06,-1.89 -0.44,-0.9 0.4,-0.52 -0.16,-1.08 1.91,-2.97 0.55,0.08 1.15,1.47 1.14,0.76 0.23,0.58 1.82,0.74 0.21,0.6 2.8,0.7 0.99,1.77 1.27,0.32 0.22,0.98 -0.28,0.42 0.93,0.16 0.97,1.79 0.61,-0.1 0.04,-0.5 0.76,-0.14 0.76,0.46 0.62,2.65 0.41,0.24 0.11,0.7 -0.3,0.38 0.34,1.38 0.57,0.64 -0.07,1.46 0.98,0.48 0.21,1.34 -0.64,0.06 0.01,0.52 0.61,0.58 -0.35,1.06 0.75,1 0.01,0.5 -0.77,0.4 -0.31,0.98 0.92,0.64 -0.15,4.04 -0.51,0.24 0.45,1.16 -0.51,1.18 -1.17,-0.7 0.54,-0.96 -0.32,-0.3 -0.93,1.14 -0.98,-0.1 -0.09,0.88 -0.26,-0.1 -1.28,2.9 -0.21,2.22 0.59,0.56 0.47,1.36 0.96,0.06 1.38,1.86 1.39,2.46 -0.17,1.02 1.21,0.38 -0.05,2.56 0.51,1.22 0.55,0.28 0.21,-0.4 0.64,-0.16 0.4,1.72 0.86,0.86 0.68,-0.38 -0.14,-1.16 0.4,-1.64 -0.25,-0.8 0.69,-0.02 -0.16,-0.52 0.34,-0.74 0.8,0.2 0.3,-0.7 -0.31,-0.92 -0.86,0.18 -0.15,-0.22 0.76,-1.94 -0.35,-0.4 1.1,-1.4 0.88,-0.14 0.21,0.54 0.86,-0.34 0.3,-0.66 0.05,-1.14 -0.63,-1.14 0.12,-3.16 -0.35,-0.7 -0.56,-0.3 -0.81,-1.66 1.17,-1.92 0.83,-0.48 0.75,0.26 0.85,-2.88 0.91,-0.98 0.48,-2.32 -0.69,-0.84 -0.06,-0.82 0.41,-0.24 0.77,-1.68 -0.69,-0.7 -0.59,0.08 -1.29,-0.71 z" 
                fill="rgb(151, 144, 238)" 
                stroke="white" 
                stroke-width=".7px"
                title="Northern Ireland" 
                id="GB-NIR" 
            />
        </svg>