<svg xmlns="http://www.w3.org/2000/svg" viewBox="173.14276999999993 184.46407000000022 114.44999999999999 111.46999999999986" width="114.44999999999999" height="111.46999999999986">
            <path 
                d="m 238.54277,219.19407 -0.55,0.62 -0.47,1.62 -0.58,0.24 -0.36,-0.26 -0.14,-0.4 0.47,-1.2 -0.77,-0.68 0.55,-0.88 0.4,-0.14 0.98,0.44 0.47,0.64 z m 14.75,-32.87 0.21,-0.02 -0.39,0.34 0.22,0.86 1.15,0.82 2.37,-0.36 2.05,-1.4 2.44,-0.54 0,0 0.3,1.62 1.15,0.68 -0.01,0.78 -0.4,0.24 -1.17,-0.18 -2.46,1.24 -0.5,0.64 0.07,1.9 -2.16,1.88 0.99,1.36 2.31,-0.26 0.82,-0.58 -0.65,-1.24 0.36,-0.64 1.95,0.52 1.18,0.96 2.51,-0.24 0.27,0.34 -0.72,0.9 0,1.88 -0.89,2.16 -1.07,4.74 -2.57,2.2 -1.22,0.3 1.36,6.35 -0.27,1.6 1.52,1.1 2.42,0.52 1.1,2.23 0.31,3.59 -0.41,1.71 0.63,4.44 0.79,0.92 0.33,1.18 -0.78,2.89 0.52,2.05 -0.17,0.56 0.44,0.52 -1.92,2.83 1.59,0.08 -0.05,0.86 2.02,0.62 0.07,0.72 -1.29,1.47 -0.05,0.8 0.78,-0.16 0.91,1.39 1.57,0.6 2.29,2.41 2.5,0.04 0.12,-0.79 0.65,0.12 0.16,-0.66 1.89,1.05 1.18,0.1 0.66,1.23 0.28,1.81 1.32,0.97 0.53,-0.58 0.28,0.12 1.35,1.95 0.7,-0.38 1.47,3.04 0.61,0.62 0,0 0.75,1.39 -0.97,0.36 -1.46,2.42 -3.17,0.32 -1.73,0.79 0.29,3.31 -0.34,0.93 -2.19,0.91 -0.04,1.45 0.43,1.49 -0.5,0.56 -2.72,-2.81 -0.51,0.83 -1.03,0.24 0.28,1.13 -0.77,0.02 -0.2,0.75 -0.46,0.18 -0.3,-0.81 -0.64,-0.56 -0.33,0.12 -1.14,2.18 0.21,1.15 -0.84,1.6 0.58,0.75 -0.98,1.27 0.03,0.75 -3.34,1.07 -2.74,-1.15 -0.72,0.34 -0.31,0.63 -2.37,0 -0.54,0.79 0.04,0.38 1.62,1.19 0.28,0.95 -0.41,0.71 0.76,2.08 -1.41,0.77 -1.78,-0.28 -1.52,0.24 -0.07,0.44 1.42,0.47 0.56,0.75 3.29,0.91 0.41,0.69 2.81,0.04 0.09,1.29 1.48,2.47 -0.12,0.71 -3.72,-0.06 -0.77,0.28 -0.84,-0.3 -1.18,0.32 -5.11,-0.55 -1.18,0.42 -0.34,0.45 -0.15,1.96 -2.02,0.06 -1.19,-1.3 -2.5,-0.99 -2.16,-0.36 -0.67,-0.93 0.54,-2.27 -0.88,-0.99 -0.27,-0.95 -0.91,-0.89 -2.45,0.77 -2.93,-0.18 0,0 -1.24,-3.09 0.29,-2.63 -0.26,-1.46 0.63,-3.19 0.52,-1.03 -2.82,-1.76 -0.98,-0.04 -1.46,-0.85 -1.99,-1.55 0.08,-0.73 -0.31,-0.34 -1.41,0.65 -0.76,0.85 -1.76,0.3 0.68,2.48 -0.29,1.05 -0.5,0.63 -2.22,0.75 -1.12,2.85 -1.4,0.57 -1.94,-1.41 -1.76,2.85 0.04,0.75 -1.67,0.04 -1.35,0.55 -0.15,0.89 -0.51,0.55 -1.26,0.4 -2.9,-0.57 -3.58,-1.37 -1.36,-1.72 0.43,-0.71 -0.52,-0.61 -1.7,0.12 0.1,-1.92 -1.12,-1.96 0.62,-2.81 -1.22,0.18 -1.71,1.03 -0.01,0.55 -1.69,0.79 -2.16,0.02 -0.36,-0.22 -0.21,-1.41 -2.09,-1.58 -0.25,-1.09 -0.33,0.85 -0.71,0.48 -0.71,-0.42 -1.42,0.55 -1.01,-0.28 -1.84,0.22 0,-0.53 0.61,-0.75 -0.51,-0.67 0.05,-3.01 0.93,-1.55 0.82,-0.22 2.92,-2.36 1.38,-0.63 -0.4,-2.44 1.43,-0.71 0.19,-0.46 -0.52,-2.22 0.68,-0.44 1.98,-0.22 1.33,-0.91 1.03,-1.59 -0.87,-1.37 -1.34,-0.26 0.12,-1.05 -1.03,-0.22 -0.35,-1.05 0.85,-0.06 0.34,-0.93 -1.81,-0.28 -1.63,-0.7 -3.64,-0.28 -2.54,-1.41 -1.11,-1.13 -0.69,1.69 -0.94,-0.66 -1.26,0.28 -0.61,2.27 -2.26,-0.36 -2.2,0.62 -0.72,-0.12 -0.5,-0.99 -3.52,-2.7 0,0 0.15,-1.11 0.35,0.02 -0.43,-0.6 0.29,-0.42 -0.55,-1.01 0.36,-0.44 1.15,-0.14 -0.35,-0.82 0.26,-1.23 -0.34,-1.03 1.56,-0.56 0.55,-0.88 -0.9,0.16 -2.09,-0.34 -0.05,-0.34 1.39,-0.72 1.08,0.08 1.56,-0.46 0.61,-0.62 -0.22,-2.11 2.13,-3.54 0.47,-1.61 1.03,-1.75 0.14,-1.46 1.13,-1.22 -0.05,-0.76 -0.6,-0.66 0.83,-0.94 -0.22,-1.6 0.33,-0.26 1.94,0.18 1.54,-0.5 2.83,0.9 1.14,-0.6 1.89,0.64 1.31,-0.44 0.94,0.4 0.83,-0.5 1.07,0.5 0.5,-0.28 1.37,1.06 1.47,0.48 2.09,2.61 1.38,0.74 0.63,-0.24 1.24,1.49 1,-0.66 1.02,1.4 2.4,1.12 3.65,-1.61 1.35,-2.19 1.21,-1.1 1.17,-0.44 0.93,0.38 -0.11,1.79 1,0.1 2.13,0.96 2.95,-0.76 2.01,-1.16 2.36,0.08 1.37,0.74 0.48,1.28 1.27,1.75 1.29,1.1 0.25,2.17 1.53,0.56 0.17,0.72 0.59,0 0.36,1.53 1.47,-0.02 -0.22,0.36 0.2,1.19 0.91,1.49 1.05,-0.16 -0.19,-1.57 0.38,-0.16 1.29,0.3 1.96,-0.32 1.15,0.48 2.46,0.04 0.88,-0.6 0.03,-0.24 -0.91,-0.02 0.38,-0.8 -0.99,0.62 -1.29,-0.46 -0.21,-1.19 -0.43,0.06 0.06,1.13 -0.75,0.2 -0.48,-0.24 0.33,-0.94 -0.24,-0.42 -1.95,-0.1 -1.25,-0.7 0.02,-1.47 -1.47,-1.33 -0.56,-0.98 -0.92,-0.32 -0.67,-1.31 -1.67,0.12 -0.3,1.33 -0.55,-0.46 0.48,-1.55 1.05,-1.24 0.55,-1.24 -0.55,-1.71 1.4,0.38 1.18,-0.28 0.26,1.24 1,0.06 0.17,-0.36 1.07,0.68 2.65,-1 3.06,0.66 1.59,-1.18 1.95,1.02 0.43,-0.22 -0.24,-0.48 1,-0.2 -0.31,-0.84 -4.95,-3.11 -1.23,0.18 -4.69,-0.86 0.48,-0.88 -0.08,-1.62 -0.54,-0.28 0.51,-1.02 -0.37,-2.26 0.68,0.4 1.57,2.73 4.16,1.36 0.85,-0.16 0.97,-0.86 0.02,-0.88 -0.65,-0.74 0.79,-0.42 -0.57,-0.18 -0.86,0.34 -2.31,-0.78 -1.24,0.8 -0.57,-0.9 0.52,-0.06 0.61,-0.76 -0.93,-0.1 -0.92,-0.84 -1.13,0.1 -1.04,-0.5 -1.19,0.28 -1,-0.18 -0.56,0.18 0.02,0.4 -0.55,0.38 -1.32,-0.02 -0.62,0.78 -1.18,-0.24 -1.64,0.5 -0.28,0.44 0.36,1.9 -1.82,-0.82 0.91,-2.3 -0.75,-1.16 -2.63,-1.18 1,-0.24 0.15,-0.68 -0.2,-0.42 -1.14,-0.14 1.07,-1.62 0.73,0.34 2.62,-1.64 2.18,0.36 0.88,-2.18 2.59,-0.94 1.54,-1.24 1.34,-0.28 0.13,-1.42 -0.51,-0.36 0.55,-1.86 0.68,0.72 0.72,0.18 2.27,-0.68 1.19,-1.24 -0.41,-0.98 0.68,0.18 0.38,-0.26 0.02,-0.58 1.44,-0.3 -1.16,0.96 0.48,0.52 -0.61,0.44 -0.34,-0.12 -1.26,1.5 -1.52,0.9 -1.95,0.1 0.06,0.88 1.2,1 0.39,-0.04 -0.09,-0.7 0.62,-0.02 1.84,-1.06 1.68,-1.96 1.46,-0.5 0.4,0.2 1.38,-1.58 -0.19,-0.9 2.19,-2.22 -0.09,-2.04 -0.72,-0.76 -0.49,0.14 -0.6,-0.38 1.07,-0.2 0.19,-1.04 1.01,-0.38 -0.35,-1.66 1.79,-0.7 0.77,0.94 -0.31,0.92 z" 
                fill="rgb(151, 144, 238)" 
                stroke="white" 
                stroke-width=".7px"
                title="Sligo" 
                id="IE-SO" 
            />
        </svg>