<svg xmlns="http://www.w3.org/2000/svg" viewBox="130.85085000000007 604.37143 36.65999999999994 51.729999999999905" width="36.65999999999994" height="51.729999999999905">
            <path 
                d="m 134.69085,641.87143 -0.82,0.47 -0.98,-0.23 -0.44,-0.3 -0.21,0.44 -0.78,-0.48 -0.14,-0.31 0.21,-0.36 -0.14,-1.36 -0.54,-1.73 0.65,-0.34 0.03,-0.91 0.39,-0.62 0.02,-0.31 -0.59,-1.42 0.28,-0.76 0.35,-0.45 0.87,-0.39 0.04,-0.87 0.34,-0.43 0.1,-0.73 0.92,-0.08 0.28,0.67 0,0 0.66,0.8 1.56,0.7 0.79,0.71 0.26,0.67 -0.11,1.6 0.25,0.34 0,0 -0.15,1.07 -0.18,0.19 -0.21,0.04 -1.09,-0.2 -0.38,-0.05 -0.59,-0.02 -0.48,0.57 0.06,0.83 0.21,0.78 -0.94,0.9 0.12,0.24 0.45,0.58 -0.07,0.75 z m 15.16,-37.5 1.44,1.84 -0.22,2.85 0.79,0.16 0.6,0.33 0.84,1.14 1.02,0.39 0.29,0.65 0.61,2.65 0.73,1.7 0.77,0.63 0.56,0.07 0.46,1.19 2.19,1.87 -0.02,0.74 -0.34,0.88 0.01,1.47 0.1,1.31 0.94,1.57 0.91,0.78 2.6,1.43 1,1.28 0.1,0.61 0.22,1.29 -0.17,0.97 -0.57,0.67 -0.23,1 0.57,1.08 -0.33,1.42 0.8,3.1 0,0 0.3,0.5 0.72,0.26 0.97,1.5 0,0 -0.32,0.04 -0.82,0.35 -0.93,-0.2 -0.96,0.14 -0.6,0.42 -0.94,0.55 -0.41,0.22 -0.31,0.96 0.1,0.85 -0.61,0.76 -0.47,0.98 -0.11,0.14 -0.46,0.38 -1.15,0.96 -1.2,0.32 -0.05,1.11 -0.19,0.51 -0.59,0.4 -0.33,-0.36 -0.04,-0.8 0.24,-1.12 -0.29,-0.91 -0.44,-0.28 -0.99,-0.2 -0.87,-0.97 -0.01,-1.38 -0.25,-0.55 -0.9,-0.82 -0.84,-0.17 -0.63,-0.43 -0.41,0.75 -0.28,1.27 0.05,1.96 -1.44,-0.02 -1.39,-0.45 -0.2,-0.2 -0.63,-0.07 -2.01,-0.25 -0.37,0.1 -0.25,1.23 0.53,0.89 -0.36,0.4 -0.75,0.68 -0.17,0.13 -0.43,0.31 -0.51,0.12 -0.31,0.62 -0.07,0.6 -0.39,1.01 -0.17,0.17 -0.58,0.14 -0.31,-0.14 -0.62,0.48 0.21,0.67 -0.27,1.32 -0.07,0.75 -0.49,0.51 -0.5,0.52 -1.08,-1.5 0,0 -0.08,-0.47 -0.21,-0.21 -0.51,-1.73 0.21,-1.11 -0.1,-1.51 -0.74,-2.59 -0.1,-0.41 -0.34,-1.37 -0.26,-0.27 -0.18,-1.81 0.58,-1.71 -0.02,-0.38 0.95,-1.75 0.2,-1.08 0.18,-0.19 0.79,1.4 0.05,1.37 0.34,1.56 -0.02,0.69 -0.01,0.22 0.24,0.01 0.27,-0.57 -0.08,-1.24 0.33,-0.96 0.61,-0.75 0,0 0.54,0.33 0.85,0.51 0.71,0.2 0.6,-0.17 0.98,-0.65 0.1,-0.14 -0.53,-1.73 -0.04,-1.16 0.26,-1.57 0.61,-0.88 -0.81,-1.55 -0.51,0.24 -1.15,-1 -0.2,-1.03 -0.3,-0.03 0.08,-1.87 -0.59,-0.21 -0.72,-1.17 -0.07,-1.08 -0.48,-0.36 -0.3,0.23 -0.32,-0.03 -0.75,-0.69 0,0 -0.13,-0.51 0.63,-0.28 0.59,-0.08 0.93,0.27 0.32,-1.43 -0.15,-1.22 0.75,-2.57 0.68,-1.26 2.18,-2.65 -0.66,-1.36 -0.21,-0.92 -1.55,-1.34 -3.43,-0.44 -0.05,-0.18 0.84,-1.06 0.22,-1.89 -0.14,-0.68 0.86,0.66 1.24,0.41 0.91,0.59 1.38,0.26 0.31,0.2 0.69,-0.17 0.23,-0.24 -0.28,-0.36 1.02,-0.68 1.59,-0.62 0.69,-0.05 0.3,-1.75 0.24,-0.35 0.07,-1.04 0.27,-0.49 0.58,-0.33 z" 
                fill="rgb(151, 144, 238)" 
                stroke="white" 
                stroke-width=".7px"
                title="Akershus" 
                id="NO-02" 
            />
        </svg>