<svg xmlns="http://www.w3.org/2000/svg" viewBox="64.16085199999988 580.97143 73.27999800000005 77.97000000000037" width="73.27999800000005" height="77.97000000000037">
            <path 
                d="m 82.180852,582.38143 0.98,-1.41 2.35,1.95 1.47,0.89 0.61,0.83 0.47,0.1 0.47,-0.11 0.49,0.15 0.2,0.27 0.73,0.15 1.42,1.08 0.6,0.84 -0.38,0.72 0.63,0.54 1.29,0.8 1.19,0.27 1.24,0.65 1.85,0.26 0.73,1.57 0.59,0.2 3.389998,2.18 1.26,0.43 0.87,0.66 0.79,0.94 1.57,0.44 1.09,1.65 -0.11,0.94 -0.26,0.38 0.12,0.98 0.7,0.58 0.23,0.8 -0.03,0.57 0.33,0.62 0.27,0.32 0.74,0.16 0.34,0.71 -0.5,0.76 -0.06,0.81 0.2,0.72 1.7,0.98 0.95,-0.3 0.33,0.08 1.3,-0.24 0.45,1.37 -0.14,0.52 2.56,1.4 1.32,0.61 0.92,-0.04 0,-1.13 -0.31,-1.16 -0.14,-1.48 0.03,-0.96 0.57,-1.31 0.43,0.47 0.5,-0.42 0.92,-0.31 0.5,-0.36 0.29,-0.65 -0.56,-0.22 -0.52,-0.58 -0.01,-0.2 2.01,-0.15 0.78,0.22 0.83,1.19 0.49,1.16 0.06,0.74 0.85,1.34 0.68,0.66 0.49,2.01 0.49,4.46 1.76,3.94 1,1.58 -0.19,0.67 0.11,0.44 0.65,0.79 0.44,0.27 0.93,0.13 2.38,1.96 1.29,0.25 0.25,0.55 0.46,0.29 0.29,0.65 0,0 -0.71,0.79 0.38,0.83 0.19,0.92 -0.5,0.2 -1.97,2.63 0,0 -0.28,-0.67 -0.92,0.08 -0.1,0.73 -0.34,0.43 -0.04,0.87 -0.87,0.39 -0.35,0.45 -0.28,0.76 0.59,1.42 -0.02,0.31 -0.39,0.62 -0.03,0.91 -0.65,0.34 0.54,1.73 0.14,1.36 -0.21,0.36 0.14,0.31 0.78,0.48 0.21,-0.44 0.44,0.3 0.98,0.23 0.82,-0.47 0,0 0.16,0.63 0.25,0.39 0.16,1.5 0,1.79 0.42,0.29 0.85,0.66 0.44,0.07 0.42,3.4 -0.1,1.33 -0.84,0.89 -0.4,0.29 -1,0.51 -0.53,0.32 -0.64,0.18 -0.6,-0.17 -0.6,-0.51 -0.05,-0.32 0.22,-0.84 0.51,-2.28 0.01,-0.79 -0.11,-1.35 0.05,-0.53 -0.21,-0.43 -0.21,-0.28 -1.2,-1.59 -1.13,-0.01 -0.39,-0.48 -0.08,-0.52 -0.59,-0.37 -0.4,-0.17 -1.17,0.33 0.31,0.39 1.11,0.62 0.08,0.42 0.71,0.73 0.58,0.16 0,0 -0.47,1.11 -1.36,-0.11 -0.37,0.01 -0.48,0.2 -1.99,-0.01 -0.84,1.15 -0.93,0.11 -0.75,-0.91 -0.57,0.46 -0.19,1.11 -0.23,0.34 -0.83,0.52 0.07,0.8 -0.37,0.33 0.78,0.82 0.18,0.51 1.3,1.55 1.05,1.99 -1.09,0.53 -0.33,-0.23 -1.38,-0.07 -0.12,0.4 -0.5,0.16 -2.08,-0.56 -1.54,0.34 0.47,2.1 0,0 -1.44,-0.01 -0.68,0.17 -0.54,-0.1 -0.78,-0.58 -0.2,-0.61 -0.63,-0.46 -0.24,-1.1 -0.36,-0.5 -0.37,-0.15 -1.76,0.2 0.13,-0.84 0.79,-1.21 0.05,-0.38 -1.03,-0.9 -1.47,-4.75 0.04,-0.94 -1.64,-0.53 0.35,-0.89 -0.3,-0.34 0.47,-2.83 -1.07,-0.7 -1.1,-0.24 -1.82,-1.03 -0.2,-1.73 0.25,-1.27 -0.45,-0.4 0.42,-0.87 -0.44,-0.59 -0.81,-0.5 -0.64,-0.71 -0.97,-0.03 -0.68,-1.16 -0.84,0.19 -0.419998,-0.6 0.729998,-0.16 -0.46,-0.75 -0.249998,-2.5 -0.52,-1.48 -1.04,-0.97 -2.97,-2.09 -0.58,-0.24 -2.15,-0.12 -1.52,-0.29 -1.07,0.03 -2.13,0.45 -1.56,-0.61 -2.46,0.07 -0.83,-0.19 -0.51,-0.3 -1.53,-0.02 -1.03,0.26 -1.03,1.11 -2.03,0.36 -1.42,0.59 -2.49,1.42 -0.79,-0.53 -2.8,-0.58 -3.79,1.58 0,0 0,0 0,0 0,0 0,0 2.14,-3.79 0.64,-3.34 1.49,-2.32 0.13,-4.06 1.12,-6.37 -0.43,-0.35 -0.63,-0.15 -1.03,-1.34 -0.4,-2.2 0.3,-1.24 -1.73,-1.13 -1.22,0.04 -1.81,-0.31 0.57,-0.46 0,0 1.55,-0.84 1.03,-1.52 1.29,-0.78 0.53,-0.05 0.53,0.31 0.57,-0.1 0.45,-0.46 0.33,-0.98 -0.37,-1.69 0.27,-0.62 1.53,-2.68 2.15,-1.82 2.52,1.17 0.72,0.15 0.62,-0.16 2.38,-4.03 0.51,-0.41 0.77,-0.28 0.24,-1.82 -0.17,-1.42 z" 
                fill="rgb(151, 144, 238)" 
                stroke="white" 
                stroke-width=".7px"
                title="Buskerud" 
                id="NO-06" 
            />
        </svg>