<svg xmlns="http://www.w3.org/2000/svg" viewBox="113.62084999999998 502.7514299999998 75.60000000000007 136.69000000000017" width="75.60000000000007" height="136.69000000000017">
            <path 
                d="m 118.64085,523.40143 0.48,-0.44 0.46,-0.84 -0.05,-0.45 -0.26,-0.08 -0.05,-0.33 0.09,-0.16 0.4,-0.07 0.01,-0.19 -0.49,-0.26 0.37,-0.85 1.3,0.82 0.21,-0.07 0.67,-0.43 0.4,-1.11 -0.04,-0.91 3.27,-1.6 -0.47,-2.65 -1.06,-3.97 0.39,-0.4 -0.21,-1.04 0.32,-0.13 0.34,-0.59 0.44,0 0.24,-1.11 0.9,-2.19 0.34,-0.21 0.13,-0.67 0.39,-0.03 -0.07,-0.33 0.45,-0.36 0.43,0.85 2.55,-0.44 2.17,0.4 3.96,1.09 0.64,-0.1 0.85,-0.62 0.78,0.01 0.89,0.5 0,0.84 0.54,0.26 1.22,-1.56 3.13,-0.81 2.88,1.46 1.68,0.17 0.12,0.54 0.5,0.14 0.11,1.75 0.61,0.97 0.16,1.19 0.53,-0.04 0.49,0.32 0.19,1.61 0.98,0.23 0.11,0.21 1.08,0.6 0.66,0.86 1.61,1.02 1.05,1.87 0.2,1.13 0.65,1.22 0.69,0.86 2.66,-0.55 0.54,1.71 0.64,-0.03 0.1,-0.54 0.37,-0.09 0.31,-0.66 0.49,-0.19 4.76,0.85 1.9,0.74 0.66,0.96 0.87,0.69 1.05,-0.23 0.33,-0.39 0.35,-0.13 0.32,0.09 0.73,-0.15 0,0 1,3.05 -3.72,26.5 3.24,4.14 3.25,3.68 3.44,-0.29 6.93,10.21 -0.85,4.67 -0.99,2.89 -1.93,2.59 -0.59,3.98 -0.5,0.3 -1.14,0.3 -3.77,-0.18 -4.61,1.43 -0.47,0.36 2.48,5.79 0.04,1.79 1.41,5.6 2.65,4.28 0.11,1.95 1.54,2.35 0.54,1.71 -0.01,4.97 -1.37,2.72 -1.08,1.08 0.17,2.3 0.81,3.74 -0.94,4.34 -1.19,2.75 -1.24,1.11 -1.23,2.27 -2.43,1.67 -1.42,1.81 -0.43,0.12 -2.34,0.04 -1.63,-0.62 -1.26,0.66 -0.27,0.58 -0.71,0.74 -1.02,0.7 0,0 -0.8,-3.09 0.33,-1.42 -0.57,-1.08 0.22,-1 0.57,-0.68 0.16,-0.97 -0.22,-1.29 -0.1,-0.61 -1.01,-1.28 -2.59,-1.43 -0.91,-0.78 -0.94,-1.57 -0.1,-1.31 -0.01,-1.47 0.34,-0.88 0.02,-0.74 -2.19,-1.87 -0.46,-1.19 -0.55,-0.07 -0.77,-0.62 -0.73,-1.7 -0.61,-2.65 -0.3,-0.64 -1.02,-0.4 -0.85,-1.14 -0.6,-0.33 -0.79,-0.17 0.22,-2.85 -1.44,-1.84 0,0 -1.11,-2.23 -0.33,-0.36 -2.18,-1.92 -1.57,-1.02 -1.09,-1.06 -2.89,-1.53 -0.57,-0.56 -0.72,-1.24 -0.18,-0.61 0.6,-1.81 0.01,-0.74 -0.84,-1.19 -0.73,-2.15 -1.12,-1.51 -2.47,-1.45 -1.06,-1.54 -0.07,-0.61 1.82,-0.32 1.13,-1.03 1.23,-1.99 0.61,-1.63 1.09,-1.62 0.47,-0.44 0.47,-1.48 2.39,-1.45 -0.67,-2.51 -1.31,-3.71 -1.92,-3.5 0.56,-1.4 -1.06,-4.47 -0.55,-5.49 -1.4,-1.72 -1.98,1.08 -0.38,0.51 -0.52,0.36 -0.98,1.57 -2.55,-2.11 -1.5,-0.32 -0.54,0.03 -3.42,-1.61 1.65,-3.88 0.83,-2.53 -0.91,-0.15 -1.75,-1.66 -0.75,0.62 -0.05,1.15 -2.06,-0.83 -1.61,-0.05 -0.1,-0.13 0.45,-2.08 -0.4,-1.39 -0.25,-1.88 1.06,-1.38 0.79,-0.08 -0.07,-1.1 -1.07,-1.3 -1.33,-0.93 -1.14,-0.54 -2.36,-0.77 -1.83,-2.18 0.82,-0.78 0.61,0.11 0.39,-0.36 1.61,-3.06 z" 
                fill="rgb(151, 144, 238)" 
                stroke="white" 
                stroke-width=".7px"
                title="Hedmark" 
                id="NO-04" 
            />
        </svg>