<svg xmlns="http://www.w3.org/2000/svg" viewBox="62.380852 518.7514300000003 87.46999800000003 107.24999999999955" width="87.46999800000003" height="107.24999999999955">
            <path 
                d="m 62.380852,537.04143 0.21,-0.37 -0.11,-1 1.08,-1.06 0.44,-1.68 1.61,0.09 0.52,-0.28 1.04,1.35 0.64,0.11 0.18,-0.36 0.93,-0.41 -0.32,-0.81 -0.83,-1.3 1.69,-0.75 1.76,-2.16 2.14,-0.26 0.88,0.96 2.75,-0.41 2.4,-3.67 0.99,-1.95 0.86,-0.67 0.76,-1.21 1.4,-0.86 2.35,-0.7 2.63,-0.34 2.37,-0.11 2.95,-0.44 4.04,0.12 0.59,0.98 1.48,0.28 0.949998,-0.2 0.78,-0.85 0,0 2.7,1.26 3.72,1.26 3.37,1.37 0.72,0.74 2.08,1.15 2.84,-1.25 1.67,-0.21 0,0 0,0 0,0 -1.59,1.01 -1.61,3.06 -0.39,0.36 -0.61,-0.11 -0.82,0.78 1.83,2.18 2.36,0.77 1.14,0.54 1.33,0.93 1.07,1.3 0.07,1.1 -0.79,0.08 -1.06,1.38 0.25,1.88 0.4,1.39 -0.45,2.08 0.1,0.13 1.61,0.05 2.06,0.83 0.05,-1.15 0.75,-0.62 1.75,1.66 0.91,0.15 -0.83,2.53 -1.65,3.88 3.42,1.61 0.54,-0.03 1.5,0.32 2.55,2.11 0.98,-1.57 0.52,-0.36 0.38,-0.51 1.98,-1.08 1.4,1.72 0.55,5.49 1.06,4.47 -0.56,1.4 1.92,3.5 1.31,3.71 0.67,2.51 -2.39,1.45 -0.47,1.48 -0.47,0.44 -1.09,1.62 -0.61,1.63 -1.23,1.99 -1.13,1.03 -1.82,0.32 0.07,0.61 1.06,1.54 2.47,1.45 1.12,1.51 0.73,2.15 0.84,1.19 -0.01,0.74 -0.6,1.81 0.18,0.61 0.72,1.24 0.57,0.56 2.89,1.53 1.09,1.06 1.57,1.02 2.18,1.92 0.33,0.36 1.11,2.23 0,0 -0.56,0.3 -0.26,0.49 -0.07,1.03 -0.24,0.35 -0.31,1.75 -0.68,0.05 -1.6,0.61 -1.02,0.68 0.28,0.36 -0.23,0.25 -0.69,0.17 -0.31,-0.2 -1.38,-0.26 -0.9,-0.58 -1.24,-0.42 -0.86,-0.65 0.14,0.68 -0.22,1.89 -0.84,1.07 0.05,0.18 3.43,0.44 1.55,1.34 0.21,0.92 0.67,1.36 -2.18,2.66 -0.68,1.26 -0.76,2.56 0.16,1.22 -0.33,1.44 -0.93,-0.27 -0.59,0.08 -0.63,0.28 0.12,0.51 0,0 -1.78,0.08 0,0 -0.29,-0.66 -0.45,-0.29 -0.25,-0.55 -1.29,-0.25 -2.38,-1.96 -0.93,-0.14 -0.44,-0.27 -0.65,-0.79 -0.11,-0.44 0.19,-0.67 -0.99,-1.58 -1.76,-3.95 -0.5,-4.45 -0.49,-2.01 -0.68,-0.67 -0.85,-1.33 -0.06,-0.75 -0.49,-1.16 -0.83,-1.19 -0.78,-0.22 -2.01,0.14 0.01,0.2 0.52,0.58 0.55,0.22 -0.29,0.66 -0.5,0.36 -0.92,0.31 -0.5,0.43 -0.43,-0.48 -0.57,1.32 -0.03,0.96 0.14,1.48 0.31,1.16 -0.01,1.13 -0.91,0.04 -1.33,-0.61 -2.55,-1.4 0.13,-0.52 -0.44,-1.37 -1.3,0.24 -0.33,-0.07 -0.95,0.3 -1.7,-0.99 -0.2,-0.71 0.06,-0.82 0.5,-0.76 -0.33,-0.7 -0.75,-0.17 -0.27,-0.32 -0.33,-0.62 0.03,-0.56 -0.23,-0.8 -0.71,-0.58 -0.11,-0.98 0.26,-0.38 0.11,-0.93 -1.09,-1.66 -1.57,-0.44 -0.79,-0.94 -0.87,-0.66 -1.26,-0.43 -3.379998,-2.18 -0.6,-0.2 -0.73,-1.57 -1.84,-0.26 -1.25,-0.65 -1.19,-0.27 -1.29,-0.8 -0.63,-0.54 0.38,-0.72 -0.59,-0.83 -1.42,-1.09 -0.73,-0.15 -0.2,-0.27 -0.48,-0.15 -0.48,0.11 -0.47,-0.1 -0.61,-0.83 -1.46,-0.89 -2.35,-1.95 -0.98,1.42 0,0 -1.79,-2.52 -1.08,-1.88 -0.68,-1.59 -0.15,-1.29 0.41,-1.23 1.53,-0.9 0.15,-0.4 -0.08,-0.29 0.73,-1 0.21,-0.2 1.01,-0.2 0,-0.36 0.27,0 0.4,-0.81 -0.66,-0.43 -0.23,-0.49 -0.63,-0.17 -0.72,-0.81 0.15,-0.42 -0.2,-1.85 0.13,-0.25 0.73,-0.48 0.65,0.24 1.45,-0.16 1,-0.82 -0.85,-2.01 -0.47,-1.89 -1.62,-0.72 -1.83,1.11 -3.77,-1.46 -0.31,-1.97 -0.89,-2.26 0.19,-1.8 -0.03,-1.99 -1.19,-0.88 -2.22,-0.75 -1.83,0.57 -1.47,0.06 -2.71,0.54 0.03,-1.42 -0.22,-1.17 -1.81,-4.13 -0.14,-2.06 0.2,-3.66 z" 
                fill="rgb(151, 144, 238)" 
                stroke="white" 
                stroke-width=".7px"
                title="Oppland" 
                id="NO-05" 
            />
        </svg>