<svg xmlns="http://www.w3.org/2000/svg" viewBox="12.230851999999997 639.3614300000003 46.94 69.76000000000056" width="46.94" height="69.76000000000056">
            <path 
                d="m 30.200852,664.61143 0.67,-0.33 0.66,0.1 1.13,-0.26 0.9,0.72 0.42,0.93 -0.38,0.46 -0.97,0.52 -1.25,0.19 -0.68,0.37 -0.54,-0.17 -0.34,-0.43 -0.22,-0.91 0.12,-0.8 0.48,-0.39 z m 26.52,-22.42 -2.94,0.57 -3,1.72 -1.8,1.27 -1.66,0.44 -0.5,-0.21 -0.37,-0.42 0.78,-2.66 -0.14,-1.38 0.17,-0.16 0.15,-1.3 -0.31,-0.5 -0.6,-0.2 -0.45,0.24 -0.99,0.17 -1.13,-0.31 -1.86,1.32 -3.02,1.58 -0.1,0.61 -0.81,0.08 -0.68,1.72 0.15,0.67 -0.13,0.31 -1.05,1.07 -0.28,1.07 -0.54,0.98 -0.07,0.4 0.24,0.63 -0.21,0.99 -0.53,0.12 -0.94,-0.09 -0.75,-0.4 -0.56,-0.08 -2.15,0.73 -0.06,-0.81 -0.88,-0.45 -0.47,0.06 -1.11,1.14 -0.41,0.68 -0.69,-0.2 -0.77,0 -1.51,0.24 -0.12,-0.57 -0.96,-0.3 -0.77,0.75 0.36,0.81 -0.25,0.28 -0.92,0.56 -0.86,0.08 -0.36,-0.31 0,0 -0.08,0.23 -0.71,1 -0.33,0.05 -0.67,0.04 -0.11,1.24 -0.23,-0.29 -0.01,-0.61 0,0 -1.3,0.31 -0.18,0.18 0.23,0.27 -0.21,0.15 -0.62,-0.03 -0.14,-0.58 -0.21,-0.01 -0.4,0.51 -0.66,0.43 -1.25,-1.27 0,0 -0.43,0.08 -0.09,0.22 0.05,0.51 0.01,0.31 0.12,0.46 0.12,0.53 0.06,0.78 0.05,0.3 0.38,0.34 0.09,0.71 0.32,0.1 0.54,0.97 0.48,1.41 0.26,0.98 0.12,0.71 0.05,1 0.39,1.19 0.36,-0.33 0.33,-0.45 -0.12,-0.58 0.1,-0.86 -0.05,-0.54 -0.05,-0.18 -0.05,-0.44 -0.23,-1.33 0.37,-0.1 0.24,1.48 0.1,0.86 0.05,0.24 -0.01,0.69 0.5,0.38 0.86,-0.08 0.19,0.5 0.24,0.45 0.34,0.14 0.68,0.05 0.61,-0.03 0.22,-0.1 0.75,-1.34 0.26,-0.78 0.31,-0.42 0.04,-1.06 -0.18,-0.7 0,-0.43 0.26,-0.16 0.1,-0.42 -0.3,-0.67 -0.65,-0.19 0.21,-2.09 0.14,-0.45 -0.13,-0.37 -0.16,-0.02 -0.55,0.37 -0.07,0.79 -0.48,0.57 -0.28,0.22 -0.69,-0.04 -0.62,0.04 -0.11,-0.04 0.13,-1.25 0.92,0.39 0.73,-0.99 0.63,-0.89 0.51,-0.4 0.88,-0.04 0.09,0.09 0.07,0.59 -0.49,0.57 0.26,2.85 0.25,0.45 0.4,1.75 0.15,0.99 -0.36,0.9 -0.09,0.85 -0.02,0.92 -0.14,0.51 0.31,0.53 0.39,-0.42 -0.07,-0.9 0.67,-0.5 0.76,-0.54 0.55,-0.78 -0.05,-0.66 0.62,0.31 0.32,0.21 0.12,0.33 0.79,-0.27 1.12,-0.54 0.37,-0.36 0.16,-1.42 -0.69,-0.56 -0.19,-0.36 -0.38,-1.51 -1.63,0.58 -0.37,0.26 -0.05,-0.64 -0.39,-0.96 0.01,-0.38 0.41,-0.04 0.33,1.22 0.9,-0.64 0.66,-0.23 0.42,-0.43 -0.07,-0.93 -0.81,-1.58 0.23,-0.21 0.51,-0.74 0.2,-0.09 0.26,0.17 -0.05,1.51 0.68,0.45 0.03,0.48 0.25,0.55 1.81,-0.05 0.48,-0.2 0.71,0.03 0.72,0.19 0.56,-0.05 1.45,-0.31 0.24,-0.3 0.51,0.6 -0.75,0.06 -1.98,0.6 -1.3,0.68 -0.91,0.13 -0.62,-0.1 -0.46,-0.39 -0.37,0.23 -0.04,0.92 0.28,0.6 0.17,1.02 0.29,1.36 0.29,0.32 0.4,-0.01 0.22,-0.63 0.41,-0.46 0.46,-0.49 0.93,-0.52 0.42,-0.17 1.04,-0.67 0.88,-0.44 0.31,-0.5 0.99,-1.52 -0.09,-0.57 -0.17,-0.59 1.06,-0.87 0.39,-0.68 -0.06,-0.55 0.17,-0.5 0.74,-1.41 -0.17,-0.66 -0.14,-0.6 0.31,-0.73 0.27,-0.26 0.65,-0.35 0.51,0.14 -0.01,0.24 -0.32,0.36 -0.5,0.28 0.01,1.84 -0.34,0.77 -0.44,0.36 -0.64,1.94 0.29,-0.02 1.02,-0.7 0.68,-0.16 1.11,-0.46 0.86,-0.47 3.53,-0.18 -1.75,0.48 -2.07,0.58 -0.99,0.55 -2.69,0.97 -0.46,0.46 -0.09,0.58 0.24,0.45 -1.14,2.71 -1.57,0.18 -0.53,0.31 -0.67,0.36 -0.77,0.31 -0.3,0.68 -0.3,0.74 -0.14,0.48 0.58,0.66 1,-0.02 0.7,0.26 0.47,0.38 0.62,0.03 0.56,-0.2 0.88,-0.22 0.27,-0.34 0.67,0.43 0.49,0.18 -0.08,0.22 -0.36,0.15 -2.21,0.12 -0.84,-0.13 -0.28,0.1 -0.2,0.21 0.12,0.71 0.88,1.16 0.76,-0.49 1.95,-0.82 1.33,-0.65 0.36,-0.52 0.51,-0.18 1.2,-0.19 0.99,0.03 -1.05,0.44 -2.58,1.52 -0.87,0.46 -1.8,0.53 -0.44,0.48 -0.47,0.51 -1.04,0.69 -0.23,0.12 -0.31,0.46 -0.38,0.64 -0.4,0.74 -0.64,1.45 0.54,0.26 1.21,-0.68 1.37,0.13 0.22,0.25 -0.06,0.32 -1.83,0.15 -0.74,0.3 -0.74,0.51 -0.98,-0.35 -0.7,0.31 -0.34,0.29 -1.19,1.12 0.17,0.83 0.49,0.73 0.8,1.24 1.58,-0.08 0.51,1.09 -1.03,1.22 0.55,1.32 0.49,0.41 1.26,1.51 1.84,2.17 2.12,-0.04 0.44,0.14 -0.06,0.27 -2.35,0.23 -0.5,-0.23 -0.87,-0.55 -1.07,-1.36 -0.14,-0.22 -0.23,-0.21 -1.03,-0.4 -0.46,0.21 -0.53,-0.45 -0.05,-0.76 -0.15,-0.86 -0.55,-0.45 -0.13,-0.04 -0.92,-0.59 -0.7,0.23 -0.33,0.47 0.12,0.45 -0.11,0.47 -0.61,0.27 -0.74,-0.25 -0.29,0.35 -0.13,2.01 -0.53,0.74 -0.14,-0.5 0.24,-0.91 -0.37,-0.73 -0.13,-0.33 0.5,-0.41 0.08,-0.65 0.25,-0.79 0.03,-0.32 -0.49,-0.36 -0.71,-0.36 -0.68,-0.62 -0.73,-0.59 -1.26,-0.91 -0.47,-0.23 -0.39,0.87 -0.02,0.65 -0.13,0.56 0.12,0.37 0.64,0.44 -0.13,0.36 -0.28,0.32 -0.22,0.58 0.17,0.5 0.01,0.52 0.12,0.46 0.03,0.42 0.49,0.4 0.05,0.45 -0.64,0.21 -0.35,0.35 -0.14,0.39 0.01,0.35 -0.17,1.28 0.25,0.99 -0.39,0.91 -0.77,0.69 -0.28,0.52 0.59,0.65 0.18,1.4 0.47,0.36 0.17,0.35 -0.26,0.84 0.28,0.57 0.76,0.73 0.5,1.31 0.77,1.17 0.28,1.15 0.59,0.61 0.34,0.3 0.86,0 0.79,0.26 0.64,0.66 -0.27,0.75 0.21,0.37 1.39,0.66 0.2,0.13 0.24,0.08 0.29,0.12 0.51,0.06 0.2,-0.03 0.69,-0.19 0.72,0.44 0.24,0.7 0.08,0.75 0.1,0.36 0.2,0.33 0.12,0.18 0.37,0.81 0.39,0.47 0.25,0.22 0.48,0.04 0.39,0.18 0.4,0.44 1.29,0.8 0.99,0.31 0.62,0.33 1.24,0.45 0.31,-0.09 0.44,0.25 0.03,0.51 1.04,0.93 0.32,0.05 0,0 3.91,-2.07 1.13,-1.63 0.24,-0.59 -0.39,-2.29 0.4,-0.13 0.4,-0.66 -0.24,-0.32 -0.3,-1.32 -0.38,-0.65 0.54,-2.36 -0.56,-2.2 0.4,-0.37 0.14,-0.59 -0.75,0.33 -1.11,-0.41 -0.76,0.56 -0.17,-0.04 -0.35,-1 -0.94,-0.7 0.41,-0.57 0.41,-0.16 0.92,0.03 2.41,-0.92 0.12,-0.38 -0.12,-0.71 -0.45,-0.73 -0.47,-0.39 0.08,-1 -1.39,-0.21 0.09,-0.77 0.95,-2.39 1.01,-1.91 -0.11,-0.12 -0.74,0.04 -0.19,-0.15 -0.1,-0.76 1.69,-1.71 -0.43,-1.16 0.06,-0.41 1.45,-0.55 0.65,-0.53 1.51,-1.62 0.41,-0.99 2.49,-2.25 -0.01,-0.97 -0.38,-0.52 0.33,-0.63 0.55,-0.34 0.34,-0.75 0,0 0,0 0,0 -1.98,0 -0.25,-0.22 0.11,-2.75 -0.53,-1.37 0.28,-1.86 1.21,-3.77 0.14,0.01 -0.02,0.15 0.6,-0.09 -0.05,-0.38 -0.7,-0.92 1.88,-0.58 1,-1.45 0.1,-0.3 -0.71,-2.8 0.68,-2.15 0.75,0.27 1.49,-1.73 -0.15,-1.27 0.9,-0.41 1.5,-0.29 0,0 -0.31,-0.59 -1.19,-0.35 -0.63,-0.43 0.05,-2.44 -0.37,-1.24 z m -35.02,30.05 0.56,-0.32 0.48,0.48 1.1,0.62 0.72,0.4 0.75,0.78 0.51,0.16 0.58,-0.51 -0.06,-1.34 -0.2,-0.39 -0.7,-0.4 -1.3,0.13 -0.89,-0.23 -0.4,0.01 -0.45,-0.19 -0.2,-0.42 -0.41,0.35 -0.23,0.26 -0.16,0.3 0.3,0.31 z m -4.31,-2 0.29,-0.05 0.04,-0.52 0.2,-0.3 0.36,0.54 0.24,0.32 0.21,-0.01 0.22,-0.85 0.4,-0.44 -0.07,-0.56 -0.29,-0.97 -1.02,-0.95 -0.66,-0.12 -0.15,0.38 -0.13,0.45 0.01,0.44 0.13,1.08 -0.18,0.32 0.05,0.47 0.35,0.77 z m -1.63,-5.5 -0.25,-0.15 -0.24,-0.32 0.41,-0.55 0.14,-0.22 -0.13,-0.58 -0.71,-0.38 -0.15,-0.19 -0.01,-0.33 0.43,-0.49 -0.09,-0.94 -0.57,-0.98 -0.85,-0.75 -0.25,0.56 -0.15,0.63 0.46,0.84 -0.56,0.22 -0.57,0.37 -0.03,0.58 0.34,0.94 0.28,0.37 -0.02,0.36 -0.07,0.88 -0.47,0.04 -0.32,1 0.16,0.56 0.02,0.4 -0.32,0.63 0.02,0.75 -0.03,0.41 0.13,0.61 0.06,0.36 0.35,0.55 0.04,0.77 0.24,0.26 0.98,0.13 1.09,0 0.14,-0.25 0.29,-0.79 0.06,-1.45 0.26,-1.32 0.04,-2.03 -0.15,-0.5 z m 5.57,8.32 0.39,0.59 0.29,-0.05 0.47,0.24 0.71,0.46 0.64,0.32 0.61,0.2 0.21,-0.26 -0.15,-0.48 -0.59,-0.58 -0.88,-0.58 -0.71,-0.35 -0.3,-0.07 -0.57,0.25 -0.12,0.31 z m 4.81,-3.44 0.01,0.85 0.23,0.48 0.37,0.27 0.66,-0.01 0.35,-0.15 0.22,-0.67 0.6,-0.46 0,-0.85 -1.06,-0.69 -0.35,0.2 -0.14,0.51 -0.22,0.13 -0.47,0.22 -0.2,0.17 z" 
                fill="rgb(151, 144, 238)" 
                stroke="white" 
                stroke-width=".7px"
                title="Rogaland" 
                id="NO-11" 
            />
        </svg>