<svg xmlns="http://www.w3.org/2000/svg" viewBox="0.2508515999999993 526.9814299999985 84.55000039999997 73.41000000000156" width="84.55000039999997" height="73.41000000000156">
            <path 
                d="m 5.9108516,589.64143 0.9,2.04 0.07,0.78 -1.13,-0.31 -0.19,-0.18 -0.12,-0.5 -0.2,-0.48 -0.34,-0.57 -0.37,0.08 -0.04,-0.55 0.17,-0.25 0.92,-0.2 0.33,0.14 z m 3.06,0.12 -0.02,0.83 0,0.81 0.38,1.35 -0.44,0.08 -0.38,-0.21 -0.46,0.17 -0.39,-0.79 -0.02,-0.74 0.19,-0.35 -0.1,-1.42 -0.35,-1.06 0.22,-0.19 0.43,0.36 0.94,1.16 z m -1.05,-4.74 0.39,-0.09 0.42,0.22 0.15,0.69 0.03,0.21 -0.52,0.62 -0.37,0.2 -0.55,0.05 -0.22,0.02 -0.35,-0.04 -0.28,-0.92 0.19,-0.8 0.68,-0.26 0.43,0.1 z m -6.23,-3.28 0.16,0.8 0.17,0.99 0.52,0.53 0.03,0.46 -0.24,1.26 -0.07,0.12 -0.53,0.38 -0.47,-0.32 -0.46,-0.49 0.02,-0.43 -0.57,-0.97 0.01,-0.8 0.1,-0.59 0.39,-0.4 0.21,-0.22 0.24,-0.3 0.45,-0.74 0.04,0.72 z m 2.54,-0.46 0.1,0.55 -0.15,1.54 -0.36,-0.38 -0.28,0.42 -0.06,0.58 0,0.4 -0.03,0.17 -0.26,-0.11 -0.28,-0.87 0.04,-1.52 -0.21,-0.47 0.02,-0.72 0.54,-0.08 0.3,-0.06 0.44,-0.01 0.19,0.56 z m 5.47,-3.42 0.8200004,1.19 0.2,0.59 -0.2,0.49 -0.6200004,0.01 -0.73,-0.32 -0.14,-2.42 0.67,0.46 z m -3.33,-2.38 0.96,0.53 0.23,-0.21 0.9,0.33 -0.14,0.59 0.01,0.58 0.29,0.45 0.4,2.67 -0.26,0.53 -1.15,0.74 -0.48,0.48 -0.07,0.71 -0.36,0.2 -0.11,-0.89 0.06,-0.53 -0.16,-0.69 -0.19,-0.04 -0.21,0.22 -0.82,0.79 -0.15,0.76 -0.61,-0.98 0.16,-0.53 -0.15,-0.63 -0.09,-0.81 0.05,-0.73 -0.21,-0.78 0.23,-0.38 0.7,-0.65 0.24,0.06 0.5,0.22 0.26,-0.34 -0.38,-0.78 -0.06,-0.56 0.18,-0.39 0.35,-0.06 0.08,0.12 z m 0.06,-7.92 0.48,-0.14 0.61,0.33 0.91,-0.34 0.3,0.18 0.14,0.6 0,0.87 0.35,1.09 -1.74,0.61 -0.22,-0.05 -0.26,-0.35 -0.04,-0.53 -0.46,-0.27 -0.57,-0.03 -0.23,-0.43 0.04,-0.36 0.53,-0.84 0.16,-0.34 z m -0.49,-15.97 -0.08,0.27 0.06,0.44 0.21,0.67 0.18,0.98 -0.21,0.13 -0.72,0.24 -0.31,-0.31 -0.19,-0.2 -0.17,-0.37 -0.16,-0.5 0.04,-0.64 0.59,-0.51 0.42,-0.46 0.34,0.26 z m -0.75,-4.61 0.65,0.41 0.24,0.42 0.25,0.44 -0.28,0.47 -0.46,0.61 -0.63,0.45 0.01,-0.88 -0.13,-0.5 -0.29,-0.26 -0.83,-0.48 1.18,-0.94 0.29,0.26 z m 2.17,-5.01 1.38,0.88 1.4000004,0.37 0.38,0.27 0.42,-0.07 2.33,0.32 0.75,0.28 0.31,0.36 -0.13,0.4 0.08,0.69 -0.53,0.19 -1.49,0.23 -0.98,0.09 -0.31,0.24 -1.2000004,0.75 -0.63,0.68 -0.57,0.4 -1.07,0.33 -0.06,-0.43 -0.37,-0.15 -0.26,-0.08 -0.38,-0.51 -0.19,-0.74 0.57,-0.25 0.44,-0.11 0.57,-0.64 -0.17,-0.18 -0.83,0.31 -0.49,-0.05 -0.4,-0.26 -0.07,-0.33 -1.31,0 -0.26,-0.31 1.1,-1.08 0.68,-0.22 0.74,-0.09 -0.06,-0.21 -0.6,-0.32 0.53,-0.55 0.68,-0.21 z m 1.36,-5.9 0.52,0.22 1.0400004,0.42 0.72,-0.48 0.26,-0.33 0.28,0.52 0.18,0.53 0.28,0.54 -0.36,1.01 0.19,1.19 -0.77,1.42 -0.78,0 -0.3100004,0.05 -0.32,-0.19 -0.32,-0.3 -0.54,-0.24 0.01,-0.42 0.72,-0.55 0.4900004,-0.48 -0.1900004,-0.13 -1.09,-0.61 -0.43,-0.26 -0.23,-1.1 0.01,-1.02 0.17,-0.08 0.47,0.29 z m 4.9300004,-8.8 0.08,0.7 0.25,0.45 0.35,0.4 0.65,0.18 1.08,0.39 -0.07,0.49 -0.64,0.26 0.37,0.37 -0.11,0.5 0.17,0.7 0.66,0.5 0.28,0.5 0.76,0.39 0.9,0.96 0.29,-0.01 0.75,0.67 0.29,0.77 0.04,0.47 -0.3,0.38 0.02,0.54 0.23,0.07 0,0 0.11,0.25 -0.1,0.27 -0.7,0.56 -0.17,0.71 0.65,-0.61 1.65,1.24 1.15,-0.05 1.65,-0.61 0.3,0.29 0.3,0.02 0.28,-0.44 0.29,-0.14 0.4,0 0.25,0.38 0.69,-0.11 0.55,0.48 0.9,-0.42 1.07,-0.79 1.32,-0.29 0.94,0.34 0.66,1.18 0.55,0.3 2.01,-0.69 0.08,-0.68 0.87,-0.44 0.21,-0.76 1.25,0.08 0.65,0.21 -0.63,0.77 1.45,0.91 0.18,0.57 0.13,0.11 1,-0.71 1.02,-1.02 0.18,-0.73 0.37,-0.43 0.36,-0.08 0.61,0.18 0.75,-0.09 0.08,-1.02 0.71,-0.24 0.61,-0.5 0.61,-0.43 0.71,0.37 0.25,-0.06 0.68,-0.97 0.72,0.58 0.24,0.91 1.1,2.03 0.58,0.42 0.14,1.09 0.25,0.15 0.77,0.12 1.02,-0.22 0.98,-0.32 0.75,-0.49 0.75,0.34 0.77,-0.4 0.77,0.2 0.3,-0.48 0.7,-0.93 1.69,-0.23 0.65,0.11 0.33,-0.34 0.03,-0.47 0.68,-0.17 0.32,0.71 1.19,-0.06 1.09,0.61 0,0 1.46,1.14 -0.2,3.66 0.14,2.06 1.81,4.13 0.22,1.17 -0.03,1.42 2.71,-0.54 1.47,-0.06 1.83,-0.57 2.22,0.76 1.2,0.87 0.03,1.99 -0.2,1.8 0.89,2.27 0.31,1.97 3.78,1.45 1.83,-1.11 1.62,0.72 0.46,1.89 0.85,2.01 -1,0.82 -1.44,0.17 -0.66,-0.24 -0.72,0.48 -0.13,0.25 0.2,1.84 -0.15,0.42 0.72,0.81 0.64,0.17 0.23,0.49 0.66,0.43 -0.4,0.8 -0.27,0 0.01,0.36 -1.02,0.21 -0.2,0.2 -0.73,1 0.08,0.29 -0.14,0.4 -1.53,0.9 -0.41,1.23 0.15,1.29 0.68,1.59 1.08,1.88 1.78,2.51 0,0 0.14,1.43 -0.24,1.82 -0.77,0.28 -0.51,0.41 -2.38,4.03 -0.62,0.16 -0.72,-0.15 -2.52,-1.17 -2.15,1.82 -1.53,2.68 -0.27,0.62 0.37,1.69 -0.33,0.98 -0.45,0.46 -0.57,0.1 -0.53,-0.31 -0.53,0.05 -1.29,0.78 -1.03,1.52 -1.55,0.84 0,0 -2.01,-0.01 -3.25,-0.89 -0.7,-0.05 -0.47,0.48 -0.87,0.09 -0.88,-0.96 -0.61,0.07 -1.9,-0.34 0.05,-1.01 -0.74,-4.82 -1.99,-0.61 -0.57,0.15 -0.85,0.56 -1.93,-0.1 -0.09,-0.2 1.06,-1.61 0.66,-0.15 0.64,-0.48 0.08,-0.43 -0.16,-0.44 -0.32,-0.07 0.04,-0.3 -0.17,-0.15 -1.05,0.61 -0.14,-1.15 -0.77,0.13 -0.23,-0.69 -0.44,-0.51 -0.52,0.09 -0.01,1.21 -1.37,0.59 -0.6,0.85 -0.71,0.33 -0.49,-0.61 -0.51,-0.27 0.21,-0.8 -0.38,-0.96 -0.54,0.2 -0.65,0.83 -0.38,0.12 -0.88,-0.19 -2.02,2.32 -1.95,-1.54 -1.19,-0.31 -0.52,-0.84 0.23,-2.08 -0.44,-0.45 -1.12,-0.37 -0.67,-1.33 -0.59,-0.33 -1.75,1.2 -0.41,-0.01 -0.39,0.51 -0.8,2.02 -0.67,-0.07 -1.32,-1.4 -1.33,0.45 -0.72,0.86 -0.75,-0.2 -0.62,-0.75 -0.5,0.03 -0.95,0.74 -0.96,1.17 -0.74,0.52 -0.63,0.18 -0.25,-0.71 -1.13,0.48 -0.89,0.66 -1.16,-0.16 -0.68,-1.1 -0.52,-0.02 0.07,0.31 -0.24,0.23 -1.24,0.34 -0.47,0.55 -0.77,0.53 -0.22,0.75 -0.74,1.39 -0.11,1.15 0,0 -0.58,-0.24 -0.6000004,-0.42 0.1200004,-0.28 -0.3000004,-0.58 -0.07,-0.42 -0.28,-0.83 -0.28,-0.44 0.08,-0.57 0.04,-0.62 -0.02,-0.37 -0.34,0.08 -0.25,-0.34 -0.16,-0.85 0.02,-0.3 0.67,-0.22 0.33,0.34 0.9700004,-0.06 0.37,0.05 0.19,0.07 0.14,0.97 0.03,0.41 0.17,-0.1 0.26,-0.41 -0.17,-1.19 -0.25,-0.11 -0.76,-0.38 -0.42,-0.3 -0.6800004,0.05 -0.11,-0.96 -0.02,-0.35 -0.11,-0.85 -0.13,-0.41 0.39,-1.19 0.33,-0.27 0.9300004,-0.38 1.03,0.06 0.19,-0.46 0.14,-0.21 0.84,0.26 0.43,0.08 0.65,0.57 1.26,0.04 0.28,0.28 0.56,0.82 0.88,0.44 0.95,0.47 0.78,-0.06 0.48,0.09 0.64,0.07 -0.24,-1.27 0.36,-0.36 0.45,-0.37 1.28,-0.09 1.09,-0.91 0.77,-0.83 0.41,-0.1 0.64,0.65 0.79,-0.33 0.95,-0.85 0.49,-0.43 0.27,-0.01 0.39,0.25 -0.07,1.71 -0.52,1.1 0.04,0.42 0.18,0.11 0.71,-1.45 0.23,-0.86 0.18,-0.53 0.29,-0.3 0.52,-0.62 2.11,0.03 0.34,0.14 0.73,0.47 0.54,0.08 0.39,0.02 1.12,-0.21 0.31,0 0.41,0 0.31,-0.05 0.66,0.17 0.49,0.66 0.76,-0.09 1.02,0.22 0.28,0.21 0.03,0.3 0.35,0.2 0.11,0.42 -0.37,0.59 -0.07,0.78 -0.31,0.23 -0.5,0.04 -0.03,0.2 0.4,0.01 0.53,-0.37 0.19,-0.57 0.64,-0.76 1.5,0.05 0.02,0.65 -0.58,1.19 0,0.58 -0.81,0.38 0,0.22 0.23,0.16 0.2,-0.3 1.06,0.04 -0.38,-0.73 0.46,-0.64 0.32,-1.58 0.34,-0.38 0.34,-0.17 0.9,-0.06 0.83,-0.95 0.73,0.12 0.17,0.51 0.19,-0.03 0.13,-0.92 0.68,-1.77 0.31,-1.39 0.28,0.05 0.52,0.69 0.66,0.41 1.43,0.02 0.37,0.34 0.71,-0.02 0.23,-0.18 0.68,0.1 0.6,0.75 0.1,1 -0.15,0.37 0.15,0.53 0.74,0.26 0.29,0.4 0.18,-0.19 0.2,0.23 0.16,-0.54 0.22,-0.08 0.5,0.27 0.24,0.42 0.4,0.25 0.17,0.52 -0.14,0.55 0.5,1.27 0.11,0.94 -0.23,0.17 -0.24,0.72 -0.75,0.47 -0.44,0.05 -0.71,0.53 -0.06,0.56 -1.34,0.63 -0.12,1.19 -0.77,1.55 0.95,-1.29 0.08,-0.9 -0.11,-0.19 0.11,-0.13 0.51,-0.45 0.96,-0.33 0.1,-0.28 0.56,-0.49 0.44,-0.05 0.84,-0.52 0.48,-0.65 1.09,1.42 1.34,0.81 -0.08,0.63 0.15,0.48 -0.46,1.42 -0.56,1 0.2,0.12 0.43,-0.28 0.06,-0.43 0.65,-1.29 0.28,-0.08 0.25,-0.74 -0.05,-0.76 -0.27,-0.6 -1.31,-0.3 -0.38,-0.6 -0.5,-0.3 -0.29,-0.73 0.05,-0.56 -0.36,-0.53 0.07,-0.31 -0.42,-0.56 -0.11,-0.63 0.3,-0.7 -0.22,-0.42 0.02,-0.52 -0.3,-0.3 0.33,-0.74 0.57,-0.43 0.18,0.22 0.51,0.03 0.93,-0.2 0.54,-0.35 0.79,0.12 0.45,-0.13 0.39,-0.48 0.32,-0.9 0.58,0.23 0.83,0.79 0.48,0.25 0.72,-0.21 0.57,0.21 0.21,0.48 0.55,0.36 0.29,0.07 0.52,-0.18 0.35,0.27 0.15,-0.21 -0.15,-0.22 -0.42,-0.18 -0.52,0.01 -0.27,-1.04 -0.92,-0.58 1.12,-0.46 0.76,-0.96 0.34,-0.06 0.98,-0.67 2.53,-0.17 0.49,-0.53 0.29,-0.76 0.73,0.07 0.45,-0.25 0.08,-0.28 -0.16,-0.16 -0.6,0.14 -0.68,-0.38 -0.37,0.5 -0.23,0.79 -1.96,0.3 -0.53,-0.13 -0.86,0.4 -1.35,0.05 -0.6,-0.32 -0.33,-2.8 -0.36,-0.21 -0.2,-0.47 -0.56,-0.26 -0.45,-0.53 0.06,-0.21 1.02,-0.49 0.62,-0.69 0.21,-0.48 -0.11,-0.95 0.56,-1.16 0.46,-0.66 0.6,-0.22 0.56,-0.49 0.28,-1.36 0.56,-0.51 0.68,-0.23 0.68,-0.85 0.33,-0.74 -0.17,-0.36 -0.36,0.3 -0.11,0.45 -0.96,1 -1.71,0.94 -0.33,1.36 -0.79,0.29 -0.57,0.42 -0.3,0.73 -0.67,-0.52 -0.47,-0.01 -0.39,-0.43 -0.31,0.06 0.29,0.65 1.05,0.79 0.09,1.21 -0.45,0.69 -0.36,0.13 -1.04,1.05 -0.4,0.21 0.37,0.28 0.39,0.74 1.1,0.63 0.21,0.59 0.36,2.68 0.96,0.71 -1.53,1.19 -1.54,-0.54 -0.13,-0.23 0.15,-0.29 -0.52,-0.21 0.14,0.58 -1.12,0.11 -0.4,0.32 -0.07,0.91 -0.57,-0.07 -1.1,0.38 -0.58,0.05 -0.29,-0.14 -0.58,0.19 -0.87,0.57 -0.18,0.75 -0.75,-0.38 -0.38,0.05 -0.03,-0.72 -0.36,-0.5 0.04,-0.22 0.75,-0.48 0.58,0.21 0.25,-0.12 0.78,-1 0.09,-0.44 0.34,-0.41 0.41,-0.01 0.22,-0.32 2.17,-0.11 -0.52,-0.35 -0.68,-0.14 -0.06,-0.15 0.04,-0.8 0.3,-0.42 0.04,-0.51 0.62,-0.05 0.23,-0.21 -0.16,-0.58 -0.11,0.32 -0.37,0 -0.72,0.65 0.16,0.68 -0.4,0.16 0.06,0.28 -0.24,0.42 -0.36,0.27 -0.41,0.04 -0.15,0.43 -0.68,0.31 -0.12,0.61 -0.19,-0.04 -0.38,0.5 0.02,0.54 -0.98,-0.2 -0.59,0.16 -0.34,-0.1 -0.55,-0.62 -0.45,0.04 -0.37,-0.23 -0.12,-0.32 -0.27,-0.06 -1.34,0.23 -1.38,0.01 -0.4,-0.76 -0.39,-0.26 -1.2,-0.31 -0.23,0.15 -0.53,-0.05 -0.08,-0.58 -0.24,-0.32 0.12,-0.64 0.75,-0.49 0.65,-0.84 0.65,-0.53 0.17,-0.38 -0.08,-0.5 0.25,-0.66 0.54,-1.16 0.58,-0.57 0.37,-2.51 0.02,-0.7 -0.14,-0.09 -0.28,0.73 0.04,0.67 -0.43,1.61 -0.71,0.72 -0.77,1.87 -0.03,0.64 -0.67,0.4 -0.44,0.62 -0.79,0.58 -0.22,-0.83 -0.03,-1.24 -0.2,-0.29 -0.2,1.38 -0.43,0.07 -0.44,-0.3 -0.13,0.07 0.88,0.68 0.37,0.91 -0.17,0.7 0.49,0.71 -0.1,0.11 -0.14,-0.24 -0.37,0.1 -0.88,-0.28 -0.5,-0.43 0.26,0.48 1.05,0.39 -0.23,1.02 0.34,1.06 0.01,1.28 -0.84,0.38 -0.69,0.07 -0.15,0.22 0.1,0.48 -1.11,0.14 -0.32,-0.18 -0.93,0.25 -0.27,-0.09 -0.2,-0.38 -0.25,-0.01 -0.14,-0.27 -0.52,-0.08 -0.21,-0.28 -0.77,0.05 -0.83,-1.07 -0.72,-0.46 0.49,-0.88 -0.05,-0.19 -0.51,0.43 -0.41,0.89 -0.49,0.03 -0.49,0.28 -1.1,0.21 -0.69,0.18 -0.26,-0.08 -0.82,-0.54 -0.19,-0.26 0.34,-0.49 0.83,-0.28 0.34,-0.3 0.2,-0.95 -0.36,-0.54 -0.28,1.11 -1.22,0.66 -0.26,0.4 -1.11,0.4 -1.32,0.2 -0.23,-0.04 -0.83,-0.03 -0.68,-0.01 -1.67,-0.26 -0.17,0.23 0.08,0.76 -0.48,0.44 -0.73,-0.43 -0.42,-0.06 -0.48,0.38 -0.64,-0.13 -1.07,1.39 -0.91,0.57 -0.5,-0.09 -1.29,1.12 -0.69,0.39 -0.65,0 -0.22,-0.8 -0.7,-0.59 -0.49,-1.06 -0.4,0.36 -0.6,0.31 -0.79,0.22 -0.52,-0.11 -0.07,-0.97 -0.62,-0.38 0.18,-0.47 0.77,-0.02 0.59,0.7 0.39,-0.12 0.11,-0.24 -0.83,-0.7 -0.68,-0.19 -0.18,-0.31 -0.44,0.05 -0.24,0.27 -0.01,0.38 -0.25,0.02 -1.36,-0.8 -0.85,-0.19 0.28,-1.47 0.65,-0.26 0.96,0.08 1.28,0.64 0.58,0.7 0.48,0.23 0.65,-0.07 0.5,-0.58 -0.01,-0.15 -1.25,-0.87 -0.9,-0.61 -0.77,-0.44 -2.7500004,0.38 -1.23,-0.09 -0.05,-0.27 0.09,-0.78 -0.14,-0.22 -0.34,-0.25 -0.24,-0.24 -0.14,-0.47 0.14,-0.77 0.85,-0.1 0.35,-0.48 0.7,-0.17 0.7100004,0 0.31,0.07 0.52,-0.11 0,-0.48 0.22,-0.34 0.28,0.01 0.56,0.55 0.65,0.13 0.46,-0.14 -0.08,-0.22 -0.44,-0.19 -0.08,-0.82 -0.01,-0.48 0.64,-0.11 1.24,-0.2 0.95,-0.14 0.86,0 0.25,-0.19 0.8,-0.53 1.18,-0.27 0.5,-0.09 0.78,0.17 0.38,-0.4 -1.24,-0.1 -0.75,-0.14 -0.62,-0.04 -0.29,0.09 -0.34,0.52 -1.6,0.02 -2.27,0.52 -0.65,0.11 -0.29,0.34 -0.13,0.82 -1.29,0.26 -0.47,0.36 -0.37,0 -0.17,-0.21 0,-0.6 -0.4300004,-0.36 -0.64,-1.46 0.19,-0.79 0.51,-0.45 0.8300004,0.05 0.29,-0.51 0.38,-0.62 -0.8,0.01 -1.7900004,0.94 -0.41,-0.17 -0.3,-0.6 0.55,-0.47 1.03,-0.4 0.6500004,-0.52 0.48,-0.17 1.87,-0.22 1.34,0.1 -0.18,-0.94 0.21,-0.35 0.63,0.08 1.47,0.13 1.92,0.05 0.25,0.15 0.19,0.76 0.58,0.5 1.55,0.34 0.8,-0.19 0.48,-0.26 0.29,-0.14 0.82,-0.02 0.59,-0.73 0.76,-0.7 0.22,-0.27 0.37,-0.07 0.75,-0.09 0.33,0.39 0.69,0.84 0.37,0.29 0.32,0.16 0.23,-0.2 -0.66,-1.27 -0.34,-0.29 -0.93,-0.37 -0.86,-0.24 -0.5,0.18 -1.12,0.85 -0.14,0.17 -1.96,0.88 -0.39,0.39 -1.08,0 -0.08,-0.9 -0.22,-0.49 -0.18,-0.19 -0.99,-0.12 -2.83,-0.34 -1.12,-0.05 -0.62,-0.36 -1,-0.38 -0.2,-0.41 0.19,-1.19 0.05,-0.39 0.75,0.05 0.48,0.45 0.55,0.2 0.92,-0.01 0.59,-0.25 0.45,-0.52 -1.06,-0.54 -0.47,-0.07 -0.95,-0.65 -0.84,-0.04 -0.4,-0.46 0.41,-0.31 3.7,0.84 2.19,0.61 0.09,-0.09 0.03,-0.82 -0.69,-0.4 -0.96,-0.47 -1.23,-0.26 -0.93,0.07 -1.77,0.05 -1.73,0.48 -2.1100004,0.56 -0.24,0.2 -0.95,0.3 0.01,-0.95 0.28,-0.17 1.24,-0.26 0.2600004,-0.29 0.62,0.02 0.7,0.09 1.54,-0.3 1.7,-0.08 -0.07,-0.46 0,-0.19 -0.79,-0.1 -1.83,0.24 -0.83,-0.24 -0.37,-0.27 -1.7900004,0.39 -0.79,0.13 0.23,-0.84 -0.52,-0.99 -0.15,-0.49 0.01,-0.53 -0.06,-1.62 0.61,-0.91 1.12,-0.89 0.9900004,0.26 0.76,0.47 0.6,0.45 0.1,0.41 0.51,0.22 0.95,-0.08 0.14,-0.22 -0.79,-0.44 -0.81,-0.88 1.19,-0.17 0.99,-0.2 0.63,-0.09 0.51,-0.36 -0.88,-0.32 -1.07,0.35 -1.13,-0.08 -0.47,0.33 -0.88,0.28 -0.18,-0.81 0.78,-0.92 0.73,-0.58 0.47,-0.17 0.65,0.07 1.07,-0.55 0.85,-0.8 0.71,-0.51 -0.56,-0.49 -0.01,-0.37 0.7,-0.7 0.43,-0.62 0.66,-0.74 1.13,-0.53 0.31,0.06 0.57,0.46 0.96,-0.03 0.68,0.18 -0.1,0.49 0.2,0.22 1.22,-0.52 1.22,0.53 1.33,0.21 0.27,0.14 0.43,1.12 0.19,0.38 1.44,0.44 1.14,-0.65 1.16,-0.16 0.71,0.33 0.86,0.13 -0.16,1.35 -0.54,2.16 -0.31,0.91 0.61,0.04 0.58,-2.21 0.23,-1.74 0.39,-0.33 0.48,-0.11 0.48,1.03 1.48,2.3 1.35,0.77 0.79,-0.44 0.03,-0.24 -0.76,-0.22 -0.23,-0.21 -1.26,-1.43 -0.09,-0.31 -0.77,-0.69 0.02,-0.53 1.11,0.81 0.87,-0.22 0.54,0.08 1.5,-0.67 0.91,0 0.48,0.31 0.42,0.04 0.62,0.69 0.84,0.58 1.7,0.41 0.71,-0.02 0.64,-0.17 0.79,-1 0.99,-0.76 0.14,-0.37 -0.71,-0.52 0.1,-0.21 1.34,-0.26 0.47,0.15 0.3,-0.12 1.73,0.42 0.87,0.58 0.3,0.84 0.39,-1.59 0.94,0 -0.61,-0.34 -0.95,0.32 -0.78,-0.47 -0.93,-0.06 -0.21,-0.13 -0.09,-0.4 0.15,-0.58 -0.8,0.81 -1.07,-0.19 -1.56,0.4 -0.68,1.01 -0.23,1.27 -1.86,0.21 -0.97,-0.26 -1.37,-1.15 -0.82,-0.25 -0.7,0.18 -1.3,0.17 -1.92,0.4 -0.48,-0.45 -0.99,-0.74 -0.71,-0.23 -2.06,0.14 -1.55,0.02 -0.73,0.1 -0.77,0.72 -0.97,-0.68 -0.9,-0.99 0.05,-0.15 1.41,-0.25 1.13,0.19 1.12,-0.32 1.77,0.14 0.26,-0.22 -0.01,-0.22 -0.23,-0.18 -1.67,-0.3 -1,0.3 -2.19,-0.24 -1.08,0.33 -0.86,0.01 -1.08,-0.2 -0.83,-0.45 -1.89,-0.08 -0.63,-0.02 -2.3,-0.18 -0.71,0.75 -0.76,0.25 -0.57,-0.15 -1.23,0.09 -0.43,-0.22 -0.63,0.76 -0.34,0.15 -0.32,-0.23 -0.46,-0.53 -0.26,-0.26 -0.35,-0.13 0.36,-0.76 0.47,-1.07 -0.02,-0.91 0.28,-0.47 0.6,-0.02 -0.04,1.52 0.72,1.09 -0.06,-0.64 -0.48,-1.51 0.91,-0.29 0.23,0.13 0.5,1.05 0.4,0.41 0.22,-0.33 -0.08,-0.36 -0.53,-0.68 0.51,-0.46 0.53,-0.1 0.26,-0.61 0.35,-1.1 0.46,-0.05 0.37,0.13 0.56,0.37 0.35,0.12 0.17,-0.24 -0.35,-0.52 -0.39,-0.18 -1.34,-0.17 0.06,-0.37 -0.03,-0.83 -0.73,-0.75 -0.83,-0.28 -0.72,-0.92 -0.31,-0.1 -2.46,0.16 -0.17,-0.22 0.02,-1 0.19,-0.12 0.77,0.26 0.15,-0.25 -0.57,-1.02 -0.71,-0.26 -0.19,-0.24 -0.22,-0.57 0.11,-0.98 0.17,-0.3 0.56,-0.33 0.45,0.1 0.26,0.5 0.46,-0.53 0.07,-0.68 0.1,-0.07 1.03,0.29 z" 
                fill="rgb(151, 144, 238)" 
                stroke="white" 
                stroke-width=".7px"
                title="Sogn og Fjordane" 
                id="NO-14" 
            />
        </svg>