<svg xmlns="http://www.w3.org/2000/svg" viewBox="83.75085199999995 413.75142999999997 91.349998 111.1000000000002" width="91.349998" height="111.1000000000002">
            <path 
                d="m 97.200852,454.08143 0.01,0.22 -0.34,0.2 -1.6,0.72 -1.3,-0.03 -0.18,0.13 -0.97,0.42 -0.24,-0.63 0.61,-0.19 0.54,-0.26 0.19,-0.22 1.04,0.09 0.34,-0.27 0.49,-0.24 0.58,0.07 0.26,0 0.37,-0.01 0.2,0 z m 12.299998,-6.63 0.35,-0.23 0.55,-0.52 0.2,-0.81 -0.23,-0.28 -0.12,-0.17 -0.15,-0.13 -0.28,0.17 -0.34,0.42 -0.17,0.28 -0.02,0.15 -0.15,0.61 0.02,0.42 0.1,0.11 0.24,-0.02 z m -8.83,8.87 1.76,0.13 0.52,-0.38 0.64,-0.38 0.63,-0.38 0.44,-0.66 -0.66,-0.26 -0.21,-0.04 -0.65,-0.31 -1.65,-0.1 -0.14,0.15 -0.07,0.85 -0.42,0.72 -0.19,0.66 z m -3.479998,-6.14 0.27,0.92 0.13,0.05 0.47,-0.13 0.22,-0.5 0.43,-0.25 -0.07,-0.26 -0.26,-0.06 -0.23,-0.1 -0.65,0.25 -0.31,0.08 z m 11.969998,4.49 0.32,-0.07 0.56,-0.31 0.32,-0.12 0.01,-1 -0.39,-0.37 -0.23,-0.03 -0.31,0.08 -0.03,0.45 -0.46,0.38 -0.08,0.28 -0.14,0.44 0.43,0.27 z m 3.93,-3.34 0.27,-0.04 0.29,0.42 0.04,0.54 -0.42,1.39 -0.45,0.34 0.16,0.49 0.38,0.26 0.47,-1.16 0.68,-0.33 1.15,0.08 -0.02,-1.03 0.31,-0.45 0.54,0.12 0.9,0.16 0.88,-0.46 0.78,-0.4 0.93,-0.34 0.29,-0.16 0.33,-0.31 0.46,-0.6 0.84,-0.7 2.19,-0.42 0.7,-0.65 0.5,-0.07 -0.29,0.71 -0.57,0.21 -0.67,1.51 0.47,-0.08 1.01,-0.91 1.19,-0.43 0.19,0.06 -1.47,1.2 -0.62,0.4 -0.3,0.2 -0.69,0.34 -0.49,0.13 -0.17,-0.47 -0.89,0.63 0.4,0.19 0.04,0.36 -0.64,0.02 -0.23,-0.27 -0.25,0.03 -0.64,0.4 -0.59,0.23 -0.47,-0.09 -0.45,0.39 0.21,0.54 -0.45,0.37 -0.08,0.34 0.59,0.63 0.65,0.21 -1.19,0.77 0.19,0.34 0.28,0.66 0.2,0.44 0.47,0.69 0.59,-0.01 0.71,-0.28 0.23,0.18 0.09,0.41 -0.64,0.36 0.02,0.53 0.09,0.35 0.16,0.97 0.3,1.15 0.23,0.59 0.42,0.37 0.83,0.04 0.61,0.13 0.87,0.14 1.21,-0.23 0.62,-0.36 0.28,-0.58 0.54,-0.47 0,0 -0.28,-1.17 -0.23,-1.03 -0.24,-0.82 0.81,-0.84 0.62,-1.41 0.28,-1.31 3.02,-2.05 1.07,-0.9 1.16,-1.37 0.42,-2.04 1.47,-3.44 2.06,-3.58 1.58,-0.9 0.91,-0.72 0.85,-1.75 0.42,-0.51 0.19,-0.81 -0.14,-0.51 -0.39,-0.52 0,-0.38 1.39,-1.9 0.07,-1.29 0.34,-0.3 0.86,-0.32 0.1,-0.25 -0.44,-0.54 -1.77,-0.2 -1,-3 3.46,-1.8 0.4,-0.8 0.42,-2.81 -2.46,-0.81 -1.58,-1.28 -1.05,-1.21 -0.07,-0.97 -0.19,-0.34 -1.73,-1.19 -2.44,-2.23 0,0 -0.54,0.44 -0.81,0.77 -0.01,0.13 0.34,0.4 0.41,0.45 0.24,-0.06 0.05,-0.36 1.41,-0.29 0.43,0.28 -0.31,0.39 0.13,0.16 0.69,0.11 0.21,0.06 0.18,0.44 -0.11,0.33 0.04,0.33 0.48,0.13 0.39,-0.34 0.38,0.46 -0.87,0.69 -0.35,-0.16 -0.6,-0.55 -0.2,-0.47 -0.25,-0.17 -0.76,0.06 -0.34,-0.28 -0.28,0 0.14,0.53 -0.12,0.45 0.99,0.68 0.65,0.78 -0.33,0.14 -0.64,-0.52 -0.55,-0.52 -0.54,-0.64 -0.51,0 -0.65,0.21 0.21,0.39 -0.09,1.19 0.3,0.43 -0.21,0.86 0.11,0.47 -0.05,0.27 0.01,0.38 -0.36,-0.26 -0.08,-0.74 -0.66,0.12 -0.16,0.3 -0.77,0.33 -0.26,0.25 -0.39,0.59 0.27,0.45 -0.62,0.68 -0.62,0.03 -0.45,0.7 0.42,0.42 1.28,0.53 0.95,0.64 -0.3,1.24 -0.37,0.22 -0.2,-0.07 0.41,-0.94 -0.34,-0.48 -0.99,-0.19 -0.63,0.06 -0.84,0.17 -0.81,-0.18 -0.37,0.2 -0.09,0.99 0.51,0.43 0.19,1.03 0.07,0.44 -0.42,-0.03 -0.59,-0.36 -0.22,0.22 -0.38,0.29 -0.63,0.73 -0.2,0.27 -0.03,0.29 0.55,0.58 1.21,0.46 0.6,-0.19 0.73,-0.49 0.05,0.67 -0.52,0.03 -1.31,0.9 -0.31,0.33 -0.56,0.5 -0.2,-0.13 0.17,-0.61 -1.28,-1.14 -0.39,-0.11 -0.78,0.35 -0.09,0.39 0.27,0.47 -0.35,0.33 0.42,0.79 0.86,0.49 -0.23,0.48 -0.93,0.78 -0.56,0.54 -0.09,0.28 0.19,0.31 0.38,0.24 0.63,0.49 -0.01,0.39 -1.06,-0.67 -0.19,0.03 -0.07,0.28 0.11,0.58 -0.48,0.37 -0.52,0.9 0.01,0.68 0.43,-0.5 0.51,-0.01 0.71,-0.48 0.2,-0.09 0.34,-0.08 0.63,0.02 0.79,-0.23 0.07,0.32 -0.99,0.89 -0.58,0.37 -0.69,0.17 -0.44,0.4 -0.88,0.43 -0.18,0.22 -0.13,0.51 0.6,0.31 0.65,-0.42 0.18,-0.22 0.12,-0.3 0.77,-0.2 1.18,-0.5 0.33,-0.39 2.07,-1.16 0.09,0.51 -0.08,0.77 0.27,0.7 0.32,0.37 0.44,0.31 0.02,0.18 -0.77,0.07 -0.67,-1.47 -0.28,-0.38 -0.38,0.26 -1.09,0.73 -1.63,0.59 -1.15,1.01 -1.12,0.94 -0.23,-0.38 0.44,-0.78 -0.6,-0.09 -0.59,0.19 -0.66,0.3 -0.85,0.83 0.48,0.49 0.1,0.34 -0.37,0.18 -0.4,0.58 -0.34,0.55 -1.09,0.26 -1.11,-0.05 0.49,-0.38 1.15,-0.2 0.46,-0.33 0.34,-0.79 -0.1,-0.34 -1.29,-0.02 -1.27,0.9 -0.85,0.66 -0.61,0.37 -0.55,0.75 0.57,-0.19 0.41,0.25 -0.25,0.28 -0.77,0.38 -0.77,0.85 -0.4,0.71 0.75,0.56 0.36,0.13 2.51,-0.25 0.99,-0.37 0.82,0.04 0.21,0.24 -3.02,1.15 -2.06,0.64 -0.59,0.41 -0.23,0.15 -0.45,0.34 0.22,0.2 0.26,-0.35 z m 7.46,-16.21 0.23,0.22 -0.39,0.84 0.31,0.43 0.4,0.08 0.72,-0.47 0.29,-0.13 -0.03,-0.54 -0.1,-0.45 -0.3,-0.44 -0.28,-0.49 -0.34,-0.47 -0.38,0.01 -0.11,0.16 0.19,0.46 -0.16,0.32 -0.45,-0.31 -0.35,0.17 -0.13,0.45 0.16,0.29 0.72,-0.13 z m 1.35,-1.37 0.17,0.26 0.69,0.51 0.58,-0.2 0.47,-0.45 0.64,-0.16 -1.48,-1.64 -1.02,0.5 -0.22,0.42 0.06,0.4 0.11,0.36 z m -27.229998,29.9 1.12,-0.48 0.87,0.17 0.36,0.21 0.83,-0.28 0.82,-0.5 0.82,-0.25 0.35,-0.21 0.999998,-0.34 1.29,-0.47 1.13,-0.71 0.73,-0.82 0.76,-0.52 0.19,-0.29 -0.01,-0.39 -0.32,-0.28 -0.35,0.16 -0.33,0.32 -0.1,-0.63 0,-0.27 -0.54,-0.5 -0.47,-0.32 -0.32,-0.24 -0.99,-0.04 -0.66,0.18 -0.23,0.8 -0.679998,0.23 -0.14,-0.16 0.329998,-0.87 -0.01,-0.73 -0.06,-0.87 0.25,-0.4 -0.03,-0.67 -1.249998,-0.04 -0.74,0.35 -0.45,0.03 -0.09,0.63 -0.08,0.79 0,0.54 -0.12,0.17 -0.31,0.22 -0.44,-0.75 0.29,-0.92 -0.01,-0.56 -2.15,0.54 -1.67,0.43 -0.79,0.13 -0.34,0.16 -0.09,0.35 -0.43,-0.18 -0.78,0.25 -0.99,0.93 0.89,0.14 1.04,0.64 0.57,0.38 -0.33,0.15 -1.86,0.9 -0.32,-0.28 -1.85,0.01 -0.52,0.22 -0.83,0.35 -1.11,1.14 -1.04,1.21 -0.26,0.47 -0.08,0.52 0.43,1.32 0.98,0.7 0.42,0.5 0.58,0.14 0.9,0 0.6,0.08 1.38,-0.07 0.62,-0.46 0.83,-0.79 0.39,-0.31 0.44,-0.27 0.32,-0.15 1.3,-0.22 1.34,-0.22 z m 76.289998,29.1 3.28,-4.93 -3.83,-9.33 0,0 -7.88,0.35 -1.89,-0.05 -3.95,-7.41 -3.07,-0.82 -2.72,-0.33 -0.44,-0.01 -0.78,0.34 -1.69,-0.14 -1.77,0.35 -0.75,0.33 -0.3,-0.06 -0.84,-0.71 -0.5,-0.46 -0.29,-0.21 -0.7,-0.01 0.28,-1.35 -0.28,-1.71 0.25,-0.76 -0.15,-0.35 0,0 -0.2,0.19 -0.87,0.04 -0.12,0.42 0.14,0.53 -0.35,0.15 -0.17,-0.02 -0.41,-0.89 -0.94,-0.21 -1.08,-0.14 -0.9,-0.27 -0.84,0.01 -1.05,0.58 -0.82,0.1 -0.78,-0.61 -0.56,-0.62 -0.27,-0.23 -0.68,0.53 -0.2,0.42 -1.12,0.33 -0.29,-0.11 -0.09,-0.5 -0.18,-0.15 -0.85,-0.4 -1.68,0 -1.01,0.21 -0.56,0.56 -1.09,0.76 -0.67,0.55 -0.45,0.54 -0.23,0.84 0.34,0.78 1.07,1.02 0.68,0.33 0.51,0.11 0.56,-0.02 0.8,-0.06 -0.5,1.1 -0.63,0.52 -0.36,0.07 -0.53,-0.55 -0.77,-0.31 -0.74,0.05 -0.34,-0.89 -0.34,-0.26 -0.83,0.08 -0.9,-0.14 -2.75,1.87 -0.43,0.46 -0.2,-0.43 -0.1,-0.35 2.04,-1.53 0.81,-1.21 0.84,-3.59 -1.12,-0.6 -0.58,-0.79 -0.9,-0.68 -0.36,-0.94 -1,-0.72 0.39,-0.47 0.15,-0.3 0.05,-0.49 -0.43,-0.76 -0.69,-1.12 -0.52,-0.76 -0.18,-0.64 -0.25,-0.56 -0.05,-0.4 0.14,-1.27 -1.46,0.56 -1.91,0.74 -0.81,0.76 -0.92,0.42 0.04,0.42 -0.84,0.64 0.14,0.16 0.5,-0.31 0.58,-0.11 0.52,0.18 -0.28,0.5 -0.13,0.09 -1.09,0.21 -0.49,0.11 -0.48,0.04 -0.15,0.2 0,0.21 -0.2,0.45 -0.22,0.37 -0.15,0.4 -0.3,1.24 -0.42,0.07 -0.2,-0.43 0.01,-0.34 0.1,-0.74 0.03,-0.74 -0.12,-0.55 -0.6,0.29 -0.44,0.45 -0.6,0.92 -0.56,-0.01 -1.12,0.24 -0.6,0.3 -0.48,0.79 -0.62,0.49 -0.5,0.17 -0.07,0.15 0.54,0.25 -0.08,0.61 0.21,0.52 0.24,0.03 0.3,0.13 0.58,0.38 0.19,0.1 0.36,-0.01 0.49,-0.29 1.4,-0.13 1.53,-0.45 0.65,-0.23 0.65,-0.32 0.91,0.38 -0.22,0.17 -1.08,0.22 -0.91,0.38 -0.69,0.3 -1,0.08 -1.5,0.56 -0.48,-0.07 -0.45,0.04 -0.61,0.3 -0.21,0.44 -0.11,0.31 0.05,0.38 0.79,1.22 0.2,0.08 0.19,0.53 0.29,0.23 0.96,-0.08 0.99,-0.15 0.88,-0.08 1.02,-0.28 0.71,-0.26 1.06,-0.67 0.33,0.07 -0.4,0.44 -1.36,0.79 -1.39,0.46 -0.94,0.02 -0.37,0 -0.52,0.26 -0.39,0.47 -0.61,0.04 0.06,0.77 -0.19,0.13 -0.26,-0.33 -0.46,-0.17 -0.51,0.78 -0.88,0.35 -0.24,0.85 -0.61,0.77 -0.22,-0.04 -0.12,-0.81 -0.06,-0.35 0.65,-1.17 0.07,-0.82 0.4,-0.64 0.99,-0.63 -0.21,-0.26 -0.51,0.13 -0.06,-0.47 0.19,-0.56 -0.13,-0.45 -0.28,-0.72 -0.53,-0.45 -0.59,-0.06 0.14,-0.7 -0.78,-0.35 -0.78,0.06 -0.13,-0.86 -0.51,-0.05 -0.15,0.24 -0.439998,1.08 0.969998,1.21 0.19,0.18 -1.389998,0.35 -0.43,-0.62 -0.14,-0.37 -0.49,0.25 -0.11,0.27 -0.47,0.05 -0.34,-0.21 -0.27,-0.41 -1.01,-0.17 -0.8,0.04 -0.78,0.2 0,0 0.25,0.57 0.8,0.66 0.13,1.73 0.61,0.1 0.36,0.29 0.5,-0.12 0.5,0.29 0.1,0.34 -0.65,1.03 -0.1,1.63 -0.28,0.78 -0.79,1.33 0.94,1.88 -0.03,0.4 -0.6,0.75 -1.6,0.46 -0.07,0.34 0.01,0.29 1.58,1.19 -0.34,1.09 1.61,0.54 0.42,-0.27 0.32,0.1 0.25,-0.12 0.86,-0.67 1.739998,-0.39 1.44,0.95 1.76,-0.1 0.53,-0.29 -1.21,-1.92 1.05,-0.75 0.96,-1 0.34,0.04 0.13,0.32 0.76,0.07 0.38,0.24 1.3,-1.06 0.4,1.23 0.66,0.36 1.35,0.38 -0.26,0.81 0.17,1.05 -0.53,2.28 0.01,1.47 -0.2,0.68 0.12,0.36 1.09,0.2 -0.08,0.69 0.3,0.01 0.34,0.57 1.69,0.16 -0.01,0.18 -2.21,1.08 -0.29,0.85 -0.9,1.03 -0.13,1.38 0.54,1.61 0.2,2.35 -1.06,1.81 -1.18,0.74 -5.48,2.01 -1.05,-0.03 -0.96,0.53 -0.85,0.08 -2.079998,1.32 0.18,0.54 1.34,2.09 0.779998,-0.08 0.97,1.34 0.48,0.32 0.83,0.17 0.17,1.38 0.91,1.22 0.93,-0.13 0.78,1.76 -0.12,1.07 -0.29,-0.02 -0.1,0.19 0.12,0.72 -0.59,2.21 0.29,0.62 -1.12,2.44 -2.21,1.12 0,0 2.7,1.26 3.72,1.26 3.37,1.37 0.72,0.75 2.08,1.15 2.84,-1.26 1.67,-0.21 0,0 0.49,-0.44 0.46,-0.83 -0.06,-0.45 -0.25,-0.07 -0.05,-0.33 0.09,-0.16 0.4,-0.07 0.02,-0.19 -0.5,-0.26 0.38,-0.85 1.3,0.82 0.2,-0.06 0.67,-0.43 0.4,-1.11 -0.04,-0.91 3.27,-1.6 -0.48,-2.66 -1.05,-3.96 0.39,-0.41 -0.21,-1.04 0.32,-0.12 0.34,-0.6 0.44,0 0.24,-1.11 0.9,-2.19 0.34,-0.21 0.13,-0.67 0.39,-0.03 -0.08,-0.33 0.46,-0.36 0.43,0.84 2.54,-0.43 2.17,0.4 3.95,1.09 0.64,-0.1 0.85,-0.62 0.78,0.02 0.89,0.5 0.01,0.84 0.54,0.25 1.22,-1.56 3.13,-0.8 2.89,1.46 1.67,0.17 0.12,0.54 0.51,0.14 0.11,1.75 0.61,0.96 0.15,1.2 0.53,-0.04 0.49,0.32 0.19,1.6 0.98,0.23 0.11,0.21 1.08,0.6 0.66,0.86 1.6,1.03 1.05,1.86 0.21,1.13 0.65,1.22 0.69,0.86 2.66,-0.55 0.55,1.72 0.64,-0.04 0.1,-0.54 0.37,-0.08 0.31,-0.67 0.49,-0.19 4.76,0.85 1.9,0.74 0.66,0.96 0.87,0.69 1.05,-0.23 0.33,-0.39 0.36,-0.13 0.32,0.09 0.72,-0.15 0,0 -4.6,-13.97 1.85,-6.86 -1.39,-7.78 z m -73.959998,-43.82 0.33,-0.01 0.26,-0.08 0.32,-0.65 -0.11,-0.34 -0.26,-0.08 -0.47,0.19 -0.43,0.17 -0.28,0.55 0.16,0.14 0.48,0.11 z m -0.29,2.11 -0.04,0.47 -0.18,0.47 -0.54,0.45 -0.34,0.19 -0.73,0.13 -0.9,-0.01 -0.77,0.28 -0.56,0.07 -1.62,0.4 -1.93,0.41 -1.06,0.11 0,-0.45 -0.3,-0.08 -0.34,-0.01 -0.56,-0.44 -0.63,0.25 -0.55,0.6 -0.95,0.11 -0.96,0.05 0.04,-0.77 0.17,-0.35 1.17,-0.29 1.55,-0.28 1.12,-0.39 0.45,0 0.68,-0.29 1.23,-0.22 0.4,-0.57 1.01,-0.42 0.17,-0.33 0.52,-0.55 0.51,-0.7 0.41,-1.1 0.77,-0.84 0.67,-0.53 0.25,0.08 0.25,0.11 1.14,0.19 -0.17,1.08 0.07,0.84 0.02,0.1 0.38,0.45 0.09,0.94 0.06,0.84 z m -7.06,6.8 -0.36,0.23 -0.46,0.84 1.16,0.28 1.56,-0.66 -0.9,-0.6 -0.5,-0.02 -0.5,-0.07 z" 
                fill="rgb(151, 144, 238)" 
                stroke="white" 
                stroke-width=".7px"
                title="Sør-Trøndelag" 
                id="NO-16" 
            />
        </svg>