<svg xmlns="http://www.w3.org/2000/svg" viewBox="56.73085199999998 623.22143 64.00999800000002 64.26000000000033" width="64.00999800000002" height="64.26000000000033">
            <path 
                d="m 69.360852,625.85143 2.8,0.58 0.79,0.53 2.49,-1.42 1.42,-0.59 2.03,-0.36 1.03,-1.11 1.03,-0.26 1.53,0.02 0.51,0.3 0.83,0.19 2.46,-0.07 1.56,0.61 2.13,-0.45 1.07,-0.03 1.52,0.29 2.15,0.12 0.58,0.24 2.97,2.09 1.04,0.97 0.52,1.48 0.249998,2.5 0.46,0.75 -0.729998,0.16 0.419998,0.6 0.84,-0.19 0.68,1.16 0.97,0.03 0.64,0.71 0.81,0.5 0.44,0.59 -0.42,0.87 0.45,0.4 -0.25,1.27 0.2,1.73 1.82,1.03 1.1,0.24 1.07,0.7 -0.47,2.83 0.3,0.34 -0.35,0.89 1.64,0.53 -0.04,0.94 1.47,4.75 1.03,0.9 -0.05,0.38 -0.79,1.21 -0.13,0.84 1.76,-0.2 0.37,0.15 0.36,0.5 0.24,1.1 0.63,0.46 0.2,0.61 0.78,0.58 0.54,0.1 0.68,-0.17 1.44,0.01 0,0 -0.19,1.85 0.17,1.04 -0.51,1.12 2.59,3.34 -0.01,0.57 0.28,0.6 -0.54,0.36 0.57,0.96 0.2,0.73 -0.14,0.36 -0.49,0.09 -0.6,0.49 -0.18,1.55 0.49,0.65 0.2,0.89 -0.1,0.58 -0.25,0.13 -0.11,1.19 -0.48,0.07 0.08,0.47 0,0 -0.37,-0.23 -0.15,-0.57 -0.17,-1.04 -0.43,0.82 0.11,0.3 -0.1,0.3 -0.3,-0.23 -0.34,-1.03 -0.68,-0.05 -0.18,-0.96 0.17,-0.63 -0.31,-0.01 -0.22,0.68 -0.08,0.71 0.15,0.42 0.14,0.44 -0.3,0.25 -0.52,-0.2 -0.31,-0.39 -0.27,-0.77 0.16,-0.94 -0.68,-0.71 -0.36,-0.27 -0.56,0.02 -0.44,0.23 -0.16,0.38 0.65,0.26 0.99,0.96 0.05,0.92 0.53,0.7 1.31,0.26 0.93,1.05 0.2,1.08 -0.09,0.24 -0.55,-0.11 -0.17,0.24 -0.07,0.32 0,0.35 -0.26,0.32 -0.61,-0.14 -0.18,0.14 -0.75,0.43 -0.05,0.37 0.05,0.44 -1.07,0.54 -0.58,-0.32 -0.95,0.15 -0.53,0.3 -0.43,0.28 -0.02,0.59 -0.28,0.75 -0.34,-0.55 -0.16,-0.31 -0.43,0.09 -0.05,1.18 -0.2,0.51 -1.08,0.04 -0.83,-0.2 -0.48,-0.57 -0.11,0.86 -0.21,0.44 -0.12,0.56 0.59,0.06 0.29,0.03 0.63,-0.36 1.01,-0.27 1.04,0.19 0.57,0.47 0,0.39 -0.69,0.71 0.02,0.41 -0.76,0.58 -0.41,0.61 -0.38,0.15 0,0 -0.88,-0.55 -0.51,0.54 -0.81,-1.03 -0.77,-0.01 -0.97,-0.3 -0.16,-0.57 -0.04,-1.17 -0.43,-1.41 -0.36,-0.44 -1.83,-1.11 -0.84,-0.79 -0.29,-0.36 -0.9,-2.58 -1.419998,0.25 -2.36,-0.08 -0.14,0.65 -1.73,1.39 0.29,0.38 1.5,0.92 -1.08,2.02 0.4,0.22 -0.31,0.89 -0.87,0.47 -0.61,-0.83 -1.29,-0.93 -1.06,-1.71 -0.47,-0.28 -0.44,-0.6 -1.59,0.99 -0.72,1.09 -1.24,-0.88 -0.41,-0.69 -1.91,0.07 -2.5,-2.37 -2.04,-0.45 -0.92,0.41 -0.02,0.2 0.33,0.19 0.86,0.09 -0.78,0.5 -0.58,0.15 -0.56,-0.09 -0.99,-0.52 -0.64,-0.06 -0.93,-1.74 -0.48,-0.29 -1.31,-2.85 -0.58,-0.71 -0.69,-1.38 -1.26,-1.09 -0.23,-0.4 -0.17,-0.58 0.31,-1.43 0.26,-0.59 0.48,-0.17 0.06,-0.26 -0.32,-0.26 -0.82,-1.67 -0.58,-2.36 -0.38,-0.56 -0.49,-0.32 -1.17,-0.22 -0.29,-0.19 -1.85,-2.56 0.04,-0.31 2.84,-0.15 -1.11,-4.05 -0.11,-0.21 -1.34,-0.82 -0.08,-0.22 -0.4,-1.45 0.77,-1.19 -0.34,-0.81 -0.18,0.05 -1.07,-1.07 -0.06,-0.63 -0.45,-0.35 -0.24,-0.5 -0.69,0.06 -0.41,-0.25 -0.57,1.2 -0.85,-0.45 -0.3,0.16 -0.15,-0.34 -0.86,-0.73 -0.27,0.23 -1.42,-0.36 0,0 -0.31,-0.59 -1.19,-0.35 -0.63,-0.43 0.05,-2.44 -0.39,-1.29 0,0 1.1,-1.41 -0.02,-0.33 0.36,-0.51 -0.4,-1.19 0.43,-0.67 -0.31,-0.38 0.39,-1.12 -0.52,-0.12 1.57,-3.04 1.39,-1.32 1.09,-0.26 1.35,-0.06 0.86,-0.65 0.2,-0.34 -0.03,-0.76 0.28,-1.34 1.11,-1.26 3.78,-1.56 z" 
                fill="rgb(151, 144, 238)" 
                stroke="white" 
                stroke-width=".7px"
                title="Telemark" 
                id="NO-08" 
            />
        </svg>