<svg xmlns="http://www.w3.org/2000/svg" viewBox="252.08084999999986 61.09143300000001 167.41999999999976 127.28999699999996" width="167.41999999999976" height="127.28999699999996">
            <path 
                d="m 264.06085,162.64143 0.46,0.14 0.46,0.42 0.2,0.52 -0.26,0.08 -1.58,-0.68 -0.76,-1.1 0.2,-0.98 0.49,0.88 0.79,0.72 z m 21,-6.39 0.24,0.7 -0.14,0.28 0.23,0.42 -0.08,0.2 0.18,-0.04 -0.1,0.16 0.35,-0.11 0.12,0.19 0.24,0.5 -0.03,0.62 0.28,0.62 0.43,0.53 0.34,0.06 0.44,0.64 0.23,0.11 0.45,-0.28 0.09,1.27 -0.22,0.6 -0.51,0.4 -0.3,0.51 -0.45,0.15 -1.09,0.25 -0.5,-0.08 -1.3,0.18 -2.44,1.01 -1.35,-0.08 -0.09,-0.14 0.44,-0.4 0.03,-0.61 0.32,-0.53 0.05,-1.04 0.57,-0.39 0.77,-0.01 0.11,-1.09 0.65,-1.44 0,-0.53 1.02,-1.71 0.25,-0.16 0.11,-0.41 0.32,-0.36 0.34,0.01 z m -23.81,1.41 -1.1,1.23 0.29,-0.7 -0.07,-0.79 0.15,-0.26 1.37,-1.13 0.12,0.41 -0.11,0.46 -0.65,0.78 z m 28.77,-5.46 0.38,0.26 0.39,-0.08 0.81,0.22 1,0 1.31,2.14 0.96,0.33 0.41,0.57 -0.8,1.39 -0.81,0.51 -1.93,1.92 -1.32,1.07 -1.14,0.31 -1.01,-0.77 -0.22,-1.2 0.27,-0.44 -0.31,-1.21 -0.57,-1 -0.2,-0.02 -0.24,-1.39 -0.67,-1.17 0.44,-0.42 -0.06,-0.73 0.15,-0.26 0.69,0.49 0.36,0.04 0.48,0.37 -0.23,0.14 -0.05,0.41 1.32,2.09 0.83,0.73 0.4,0.22 0.47,0.01 -0.12,-0.31 -0.71,-0.39 -0.76,-0.81 -1.07,-1.96 0.16,-0.59 0.22,-0.22 0.87,-0.36 0.3,0.11 z m -31.22,6.84 -0.45,2.46 -1.3,1.45 -0.19,0.84 -1.07,0.69 0.07,0.1 0.69,-0.18 0.57,-0.3 0.35,-0.36 -0.05,-0.32 1.02,-1.01 0.91,-0.3 0.72,-1.55 0.84,0.34 0.18,0.16 0.29,0.85 -0.25,2.7 -0.28,1.32 -1.02,1.87 -1.28,1.43 -0.85,0.56 -1.38,0.98 -0.38,0.54 -0.24,0.77 0.59,0.89 0.06,1.45 0.2,0.8 -0.67,0.51 -0.49,-0.16 -0.12,0.22 -0.55,1.21 0.06,0.3 0.47,-0.05 0.42,-0.92 0.8,-0.5 0.33,-0.19 0.25,-0.42 -0.11,-2.26 -0.31,-1.05 0.63,-0.34 0.56,-0.62 0.65,-0.43 0.8,-0.46 1.54,-1.63 0.49,-0.15 0.48,0.32 0.51,0.27 0.35,1.02 -0.13,0.78 0.1,0.18 0.54,-0.16 0.09,-0.61 -0.06,-0.31 -0.19,-1.02 -0.33,-0.45 -0.77,-0.23 -0.22,-0.62 0.56,-0.83 0.04,-2 0.56,-0.91 0.31,-0.03 0.63,0.46 1.3,0.42 1.69,-0.19 0.47,0.92 0.54,0.68 0.29,-0.08 -0.17,-0.73 -0.36,-0.47 -0.15,-0.56 -0.56,-0.96 -0.77,-0.53 -1.08,-0.4 -0.88,-0.69 -0.26,-0.34 -0.71,-2.22 0.15,-0.3 0.31,-0.02 0.3,-1 1.11,-0.52 0.34,-0.65 0.35,-0.3 1.22,0.15 0.39,0.19 0.33,0.52 0.34,1.14 0.39,0.25 0.65,-0.12 -0.91,-2.89 -0.9,-0.65 -0.35,-0.04 -0.14,-0.69 0.12,-0.94 0.22,-0.32 0.2,-0.11 0.14,0.03 0.13,0.77 0.65,1.19 0.94,0.59 1.3,1.38 0.8,0.46 0.83,-0.41 0.34,0.29 0.17,0.95 -0.14,1.06 0.74,0.11 0.48,-0.17 0.05,-0.55 0.4,-0.38 0.75,0.09 -0.04,0.67 -0.66,0.3 -0.51,0.8 0.16,0.22 0.33,0.53 0.49,-0.04 0.27,0.03 0.15,0.03 -0.16,0.64 -0.18,0.76 -0.21,0.25 -0.32,-0.13 -0.12,0.22 0.32,0.82 -0.3,0.61 0.49,0.69 -0.99,1.11 0.33,0.11 0.43,-0.16 0.53,0.08 -0.37,1.21 -0.75,0.73 -0.13,0.21 0.42,0.18 0.63,0.35 0.42,0.29 -0.53,0.63 0.13,1.07 -0.45,0.57 -0.77,1.45 -0.48,0.02 -0.35,0.29 0.03,0.75 0.02,0.89 0.29,0.28 0.02,0.3 -0.55,0.49 -0.73,0.43 -0.07,-0.23 0.23,-0.46 -1.3,-0.78 -0.94,-0.35 -0.78,-0.5 -0.47,-0.7 -0.91,-0.41 0.12,-0.48 -0.36,-0.65 -1.13,0.31 -0.6,0.54 -0.78,-0.06 -0.48,0.65 -1.18,0.3 -1.01,1.53 -0.35,-0.03 -0.43,-0.35 -0.26,-1.04 -0.33,-0.08 -0.41,-0.87 -0.97,1.19 0.08,0.82 -0.83,1.46 -0.06,1.48 -1.44,0.15 -1.49,2.23 -0.41,0.5 -0.81,0.41 -0.45,0.82 -0.34,1.13 -0.76,0.37 -0.32,-0.49 0.04,-0.36 0.95,-1.39 0.06,-0.34 -0.24,-0.58 0.14,-0.43 -0.11,-0.41 -0.35,-0.35 0,-0.45 -0.5,-0.43 -0.35,-2.42 0.06,-0.28 0.75,-0.14 0.42,-0.36 0.23,-0.59 0.05,-0.36 -0.26,-0.68 0.15,-0.35 -0.53,-0.73 0,-0.5 0.94,-0.35 0.62,-0.55 0.65,0.39 0.27,-0.01 0.27,-0.21 0.82,-1.68 -0.38,-1.21 0.23,-0.4 -0.01,-0.36 -0.26,-0.35 -1.69,-0.4 -0.13,-0.35 0.06,-1.17 0.4,-1.34 0.71,-0.92 0.81,-1.09 -0.4,-0.79 0.67,-1.01 0.5,-0.7 0.35,-1.24 -0.45,-0.8 0.59,-0.8 0.24,-1.18 -0.45,-1.85 0.04,-0.68 0.32,-0.84 1.25,-1.11 0.27,0.53 -0.17,1.15 0.15,1.37 0.31,0.63 0.65,0.49 0.07,0.45 -0.46,1.28 -0.27,0.31 -0.67,2.79 z m 18.49,-9.64 0.46,0.14 -0.14,0.26 0.11,0.18 0.39,-0.12 0.21,0.25 0.45,0.17 -1.44,1.47 -0.68,0.49 -0.22,-0.22 0.19,-0.59 -0.49,-0.15 0.09,-0.31 0.06,-0.55 0.51,-0.29 0.05,-0.5 0.45,-0.23 z m -8.31,-0.82 0.26,0.09 0.4,-0.26 0.28,0.13 1.35,1.6 1.05,0.15 0.04,-0.27 0.48,-0.05 0.15,0.41 0.85,0.8 0.39,0.14 0.19,-0.13 -0.34,-1.11 0.17,-0.3 0.5,-0.2 0.21,0.08 0.27,0.36 0.15,0.24 -0.21,1.02 0.48,0.33 0.36,0.27 -0.2,0.51 -0.46,0.45 0.02,1.15 0.56,0.01 -0.03,0.41 -1.78,1.33 -1.5,-0.48 -1.48,-0.44 -0.24,-0.21 -0.08,-0.38 -1.25,-1.15 -0.36,-0.64 -0.14,-0.85 -0.94,-0.7 -1.16,-0.36 0.27,-1.34 0.47,-0.81 0.43,-0.27 0.84,0.47 z m 4.19,-2.27 0.51,0.08 0.08,0.22 -0.39,0.56 0.04,0.42 0.2,0.22 0.49,-0.1 0.26,0.11 0.16,0.27 -0.07,0.67 -0.39,0.26 -0.23,-0.43 -0.57,-0.24 -0.91,0.16 -0.35,0.45 -0.54,-0.45 -0.18,-0.38 0.19,-0.61 0.52,-0.9 0.67,-0.31 0.51,0 z m 24.38,-4.48 -0.37,0.33 -0.54,0.18 0.12,0.84 -0.02,0.33 -0.41,0.73 -0.45,0.92 -0.67,0.08 -0.48,0.36 -1.12,2.44 -0.81,0.58 -0.55,-0.22 -0.26,-0.57 0.33,-1.04 -0.25,-1.12 0.54,-0.78 0.21,-1.02 0.63,-1.38 1.46,-0.44 0.88,0.08 1.75,-0.69 0.01,0.39 z m -2.23,-33.21 0.34,0.14 0.14,0.51 0.56,0.57 0.44,0.78 0.61,0.33 0.11,0.55 0.3,0.98 0.25,0.65 0.21,0.07 0.22,0.5 -0.14,0.6 0.11,0.45 0.47,0.56 0.2,0.77 0.42,0.38 0.16,-0.26 -0.37,-0.65 -0.28,-1.24 1.12,0.27 0.23,-0.19 -0.09,-0.31 -0.62,-0.27 -0.18,-0.39 -0.35,-2.81 -0.84,-1.82 0.61,0.49 0.39,0.09 0.52,-0.46 0.22,0.61 0.33,0.3 0.02,0.57 0.39,0.97 0.42,0.37 0.37,0.78 0.41,0.68 0.19,-0.05 0.06,-0.32 -0.03,-1.16 0.57,-1.14 0.41,0.05 0.45,0.55 0.12,-0.05 -0.36,-1.02 0.24,-0.17 0.3,-0.01 0.38,0.27 0.2,0.7 0.04,0.5 0.37,0.12 0.27,0.87 -0.22,0.35 0.11,0.7 0.07,0.67 -0.41,0.48 0.08,0.39 -0.13,0.18 -0.59,0.22 -0.46,0.41 -0.13,0.84 0.3,0.66 -0.44,0.64 -0.43,-0.05 -0.21,0.22 0.19,0.16 0.29,0.22 0.29,0.44 0.28,-0.13 0.47,-0.08 0.19,-0.16 0.2,-0.86 0.08,-1.3 0.11,-0.71 0.22,-0.22 0.29,-0.01 0.37,-1.11 0.38,-0.35 1.01,0.56 1,1.25 0.51,0.22 -0.6,0.95 -0.61,0.4 -0.31,0.39 0.12,0.77 -0.37,0.74 -0.49,0.12 -0.39,1.12 0.36,1.05 0.65,0.07 0.14,-0.08 -0.28,-0.3 0.03,-0.39 0.64,-1.75 0.51,-0.13 0.12,0.05 -0.04,0.34 0.5,0.08 0.27,0.9 -0.28,0.51 -0.04,0.63 0.02,0.57 -0.03,0.53 -0.06,0.23 -0.15,0.93 0.11,0.57 0.26,0.06 0.26,-0.2 0.2,0.48 -0.23,0.07 -0.09,0.48 -0.79,-0.15 -1.34,0.62 -0.68,0.34 -0.51,-0.04 -0.49,0.98 0.22,0.58 -0.48,-0.18 -0.56,0.07 0.06,0.28 0.32,0.17 0.42,0.36 0.27,0.88 -0.39,0.32 -0.25,0.26 -0.03,0.73 0.66,-0.44 0.55,0.31 -0.16,0.89 0.4,0.02 0.16,0.23 -0.2,0.79 -0.6,0.55 -1.17,0.05 -0.36,-0.07 -0.21,0.38 0.66,0.6 0.92,0.21 -0.04,0.6 0.28,0.23 0.35,0.27 0.34,-0.06 0.41,-0.06 0.5,0.23 0.16,0.32 -1.12,0.96 -1.01,0.19 -0.79,0.49 -1.05,0.43 -0.47,0.05 -0.31,-0.24 -1.81,-0.47 -1.56,1.09 -1.04,0.36 -0.14,-0.18 0.1,-0.54 -0.18,-0.21 -0.36,0.07 -0.68,0.15 -0.76,0.21 -0.96,0.43 -0.15,-0.14 0.17,-0.46 0.44,-0.48 0.3,-0.06 0.29,-0.81 -0.87,0.19 -0.04,-0.3 1.22,-0.89 -0.29,-0.61 -0.87,-0.28 -0.65,0.33 -0.34,0.4 -0.16,0.92 -0.66,0.52 -0.22,0.79 -0.27,0.53 -0.8,0.85 -0.62,-0.08 -0.27,0.18 -0.03,0.23 0.26,0.33 -0.2,0.34 -1.11,0.69 -0.04,0.27 -0.82,1.09 -0.72,0.98 -0.21,0.6 -0.25,0.08 -0.3,0.53 -0.03,0.56 0.09,0.17 0.15,-0.06 0.39,-0.48 0.24,-0.04 0.39,0.14 -0.07,0.49 0.27,1.06 -0.21,0.32 -0.36,0.16 -0.29,-0.23 -1.07,0.77 -0.61,-0.03 -1.49,0.41 -0.37,-0.14 -0.13,-0.32 0.4,-0.86 -0.12,-0.4 -0.41,-0.19 0,-0.17 0.49,-0.17 0.18,0.31 1.15,-0.5 -0.43,-0.44 -0.44,0.01 -0.11,0.4 -0.59,-0.1 -0.14,-0.18 0,-0.12 0.33,-0.31 0.54,0.02 0.33,-0.17 0.33,-0.49 0.16,-0.04 0.53,-0.32 0.47,-0.18 0.28,-0.52 -0.66,0.01 -1.05,0.48 -0.73,0.13 -0.33,0.08 -0.43,0.06 -0.18,-0.23 -0.56,-0.26 -0.59,0.18 -0.59,0.91 -0.45,0.24 -0.77,0.21 -1.86,0.1 -0.55,-0.28 0.53,-0.19 0.28,-0.28 0.03,-0.19 -0.69,-0.08 -0.16,-0.85 0.03,-1.01 0.46,-0.8 0.1,-0.64 0.41,-0.26 2.02,1.17 0.12,-0.62 -0.43,-0.75 -0.01,-0.31 1.16,-0.44 0.6,0.15 -0.03,-0.33 0.4,-0.56 0.78,0.86 1.25,-0.4 -0.1,-0.44 -0.43,-0.08 -0.04,-0.14 0.41,-0.91 0.63,-0.3 0.55,-0.28 0.6,-0.33 0.71,-0.59 0.64,-0.3 -0.03,-0.27 -0.3,-0.02 -2.55,1.18 -0.96,-0.65 -1.11,0.04 -1,-0.61 -0.9,-0.01 -0.4,0.2 -0.16,-0.27 0.27,-0.43 0.72,0.22 0.28,-0.39 -0.45,-0.48 -0.98,-0.38 0.13,-0.38 0.55,-0.39 1.9,-0.25 0.22,-0.29 1.78,1.04 0.91,0.08 0.28,-0.19 -0.11,-0.27 0.1,-0.58 -0.15,-0.06 -0.32,0.06 -0.27,-0.62 0.08,-0.51 0.36,-0.73 0.52,-0.23 0.83,-0.77 -1.64,0.45 -0.4,0.45 -0.34,0.76 -0.4,0.09 -0.47,-0.47 -0.49,-0.14 -0.06,-0.18 0.28,-0.25 0.36,-0.16 -0.54,-0.42 -1.1,0.69 -0.3,-0.08 -0.06,-0.74 1.58,-0.95 -0.01,-0.14 -0.48,-0.11 -0.79,0.52 -0.91,0.07 -0.71,-1.04 0.8,-0.45 0.74,0.09 0.82,-0.68 0.91,-0.16 0.92,0.42 0.55,0.76 0.85,0.47 0.26,-0.27 -1.25,-0.75 0.14,-0.4 0.61,-0.41 0.54,-0.15 0.05,-0.18 -0.6,-0.28 -0.75,0.51 -0.82,-0.12 -0.76,-0.92 -0.07,-0.53 0.37,-0.2 3.04,0.87 0.36,-0.08 -3.39,-1.26 -0.84,0.18 -0.2,0.44 -0.21,0.09 -1.05,-0.27 -1.2,0.05 -0.53,-0.85 0.08,-0.1 0.23,0.17 0.64,0.2 0.29,-0.21 0.29,-0.51 -0.28,-0.41 0.51,-0.29 -0.09,-0.71 0.49,0.02 0.69,0.78 0.55,-0.12 0.2,-0.42 0.96,-0.12 0.24,0.95 0.72,0.44 0.08,-0.57 0.46,-0.29 -0.07,-0.63 0.43,-0.38 0.34,-0.17 0.19,-0.29 0.42,0.5 0.38,-0.16 0.12,-0.34 0.58,0.07 0.76,0.18 0.54,0.61 0.41,0.33 1.85,2.32 0.3,0.12 0.12,-0.24 -0.17,-0.3 0.21,-0.67 -0.07,-0.4 -0.79,-0.38 -0.66,0.03 -0.25,-0.32 -0.41,-0.44 0.25,-0.23 -0.78,-0.93 0.45,-0.39 0.73,0.88 0.39,-0.29 1.33,-0.14 0.13,-0.37 0.2,-0.07 0.74,0.05 0.56,0.25 0.15,-0.08 -0.13,-0.39 -0.4,-0.46 -0.63,-0.33 -0.65,0.08 -0.45,0.41 -0.33,0.06 -0.78,-0.42 -1.7,-0.44 -0.62,-0.48 -0.02,-0.34 -0.52,-0.4 0.16,-0.29 -0.5,-0.63 0.09,-0.33 -0.34,-0.9 0.51,-0.39 0.25,0.12 0.69,0.86 0.61,0.35 0.49,1.26 0.54,0.61 0.25,-0.01 0.2,-0.27 -0.6,-1.15 0.17,-0.81 1.21,0.73 0.31,-0.15 0.1,-0.33 -0.23,-0.42 -0.91,-0.82 -0.29,-0.68 -0.8,-1.04 -0.09,-0.54 0.21,-0.16 0.3,0.24 0.47,-0.05 0.61,0.59 0.33,-0.33 0.65,0.83 0.4,-0.24 0.22,0.62 0.81,-0.06 0.3,0.61 0.05,0.64 0.14,0.03 0.25,-0.17 0.34,0.05 0.73,0.74 -0.12,0.92 0.62,0.85 0.55,0.02 1.22,-0.44 0.6,0.03 -0.19,-0.31 -0.57,-0.18 -0.52,-0.58 -1.64,-2.81 -1.26,-0.96 -0.03,-0.5 -0.78,-1.63 0.21,-0.45 0.14,-1.34 0.34,-0.08 z m 30.43,-4.48 0.33,0.03 0.07,0.27 -0.26,1 -0.63,0.25 -0.58,-0.5 -0.02,-0.54 0.47,-0.02 0.46,-0.16 0.16,-0.33 z m 35.95,-0.52 -0.02,0.82 -0.31,0.55 -0.26,0.15 -0.32,-0.59 -0.18,-0.6 0.03,-0.11 0.21,-0.3 0.34,-0.11 0.51,0.19 z m -51.85,-0.02 0.29,0.2 0.4,-0.05 0.4,0.34 0.05,0.79 -0.99,0.91 -0.88,0.11 -0.58,-0.3 -0.02,-0.15 0.54,0.19 0.39,-0.36 -0.45,-0.69 0.48,-0.11 0.48,0.19 0.43,-0.3 -0.79,-0.34 -0.71,-0.01 -0.15,-0.42 0.82,-0.39 0.29,0.39 z m 20.67,-1.3 -0.46,0.93 -0.54,0.46 -0.26,0.95 0.13,0.28 -0.25,0.67 -0.66,1 -0.45,0.38 -0.41,-1.21 0.39,-1.7 -0.48,-0.44 0.32,-0.77 0.38,0.15 0.19,-0.65 0.85,-0.03 0.27,-0.75 0.64,-0.32 0.17,0.01 0.17,1.04 z m -17.86,-3.099997 0.27,0.71 -0.19,0.489997 -0.48,0.21 -0.34,-0.11 -0.02,-0.23 -0.9,-0.589997 -0.28,-0.19 -0.08,-0.3 0.11,-0.38 0.41,-0.32 0.59,-0.12 0.29,-0.48 0.62,1.31 z m 6.87,-7.54 0.57,0.17 0.64,0.37 -0.03,0.43 -0.37,0.11 0.34,0.56 -0.12,0.37 -0.39,0.35 -1.26,-0.27 -1,0.41 -0.7,-0.13 -0.24,-0.77 0.19,-0.38 0.55,-0.61 0.72,-0.15 0.21,-0.29 -0.1,-0.56 0.99,0.39 z m 5.15,-1.75 0.47,0.05 0.51,0.41 0.27,0.85 0.08,0.7 -0.41,0.37 -0.39,-0.03 0.05,0.39 0.21,0.17 0.43,-0.16 0.41,-0.46 0.77,0.69 0.22,0.25 0.16,-0.23 0.24,0.11 0.48,1.09 0.17,-0.18 -0.05,-0.37 0.86,-0.15 0.71,0.87 1.35,3.02 -0.18,0.74 -1.01,1.74 -0.84,0.459997 -0.37,-0.01 0.06,0.98 -0.2,0.01 -0.37,0.73 -0.73,0.2 -0.31,0.49 -0.46,0.34 -1.5,0.26 -0.38,0.16 -0.38,0.46 -0.42,-0.12 -0.01,0.39 0.25,0.48 -0.67,1.62 -0.02,0.56 0.34,-0.25 0.42,0.3 0.28,-0.03 0.21,-0.42 0.35,-0.03 0.34,0.34 -0.11,0.2 0.32,1.38 0.32,-0.2 0.08,0.38 -0.17,0.53 -0.43,-0.27 -0.41,1.41 -0.46,0.78 -0.86,0.64 -0.31,0.03 -0.82,-0.07 -0.97,-1.11 -0.3,-0.05 -0.56,0.6 -0.53,0.92 -0.45,0.23 -2.58,0.4 -1.91,1.03 -1.18,-0.09 -0.86,0.18 -0.77,0.22 -0.8,0.2 -0.65,-0.08 -0.62,-0.36 -0.4,-0.98 -0.82,-1.06 -0.12,-0.02 -0.08,0.25 -0.69,0.18 -0.67,-0.3 -0.56,-0.68 -0.06,-0.91 0.38,-0.85 -0.22,-0.39 0,-0.57 0.35,-0.02 0.23,0.07 0.37,0.26 -0.21,-0.71 0.14,-0.53 0.55,-0.03 0.34,0.5 1.35,-1 0.03,-0.26 1.29,0.82 0.36,-0.21 -0.29,-0.28 0.06,-0.11 0.44,0.17 1.23,1.52 -0.14,1.31 0.71,-1.56 2.09,-1.63 -0.03,-0.24 -0.29,-0.01 -1.62,1.05 -0.7,0.01 -1.04,-1.48 -0.07,-0.65 -0.51,-0.49 0,-1.05 -0.79,-1.55 0.17,-0.67 1.32,0.79 0.63,-0.22 0.79,0.56 0.51,0.14 0.25,0.32 0.36,-0.24 0.23,-0.44 0.82,-0.11 0.2,-0.19 0.31,0.12 0.17,-0.16 0.76,0.2 1.13,-0.05 1.53,0.62 0.77,-0.07 0.13,-0.46 -0.05,-0.23 -0.98,-0.08 -0.79,-0.41 -1.84,0.07 -0.25,-0.21 -0.64,-0.09 -1.13,-0.07 -0.77,0.16 -0.32,-0.15 -0.15,-1 0.13,-0.549997 -0.58,-2.27 0.49,-0.7 1.05,-0.82 0.49,-0.07 0.45,0.49 -0.21,0.84 0.64,-0.01 0.8,-0.46 0.31,0.21 0.25,0.58 -0.27,1.67 0.35,0.2 0.31,-0.28 0.25,-1.78 0.23,-0.27 0.31,-0.05 -0.1,-1.01 0.89,-0.29 0.29,-0.5 1.3,-0.08 0.26,0.35 -0.42,2.06 0.31,0.39 -0.11,0.21 -0.72,0.11 0.65,1.04 0,0.869997 0.33,0.62 -0.12,1.05 -0.4,0.48 0.58,0.76 0.49,-0.07 0.48,0.13 0.78,0.07 -0.12,-0.22 -0.46,-0.19 -0.51,-0.36 -0.15,-0.54 0.55,-0.81 0,-1.1 0.44,-2.769997 0.83,-0.38 -0.01,-0.15 -0.7,-0.26 0.23,-0.18 0.64,0.18 0.26,-0.1 -0.23,-0.38 0.24,-0.52 -1.17,-0.09 0.13,-0.35 -0.86,-0.44 -0.63,-0.73 -0.21,-0.73 0.56,0.01 -0.77,-0.73 -0.16,-1.01 0.38,-0.48 0.23,-0.05 0.3,-0.67 0.32,-0.25 1.01,1.38 0.33,-0.13 -0.44,-0.81 0.57,-0.34 0.23,-0.11 z m 45.27,-1.43 -0.93,1.17 0.02,0.97 -0.24,0.28 -0.01,0.59 0.95,1.14 0.12,0.91 -0.38,0.66 -0.65,0.57 -2.73,1.66 -0.18,-0.07 -0.51,-0.72 -0.11,-1.16 -0.43,-1.19 0.04,-0.71 0.79,-1.49 0.21,-1.27 -0.23,-0.44 0.08,-0.15 0.51,-0.35 0.07,-0.39 0.23,-0.09 1.08,0.39 0.98,-0.19 0.2,-0.31 0.82,-0.29 0.34,0.19 -0.04,0.29 z m 24.28,-1.44 0.34,0.31 0.27,0.7 0.5,0.79 0,1.23 -0.39,-0.35 -0.09,-0.71 -0.26,-0.2 -0.27,-0.61 -0.38,-0.71 -0.05,-0.29 0.33,-0.16 z m -1.91,-1.15 0.38,0.56 0.14,1.38 -0.66,-0.31 -0.56,0.03 -1.2,-0.39 -0.09,-0.17 0.46,-0.2 0.75,-0.94 0.78,0.04 z m -23.89,-1.84 0.16,0.01 0.12,0.34 -0.06,0.94 -0.48,1 -0.94,-0.58 -0.25,-0.67 0.5,-0.66 0.02,-0.85 -0.31,-0.58 0.36,-0.42 0.26,0.17 0.62,1.3 z m -18.25,0.02 -0.63,1.05 -1.08,1.19 -0.39,0.82 -0.33,0.98 -0.43,2.52 -0.69,1.21 -0.69,0.09 -0.83,-0.26 -1.23,0.41 -1.02,0.08 -2.89,1.01 -0.56,-0.14 -0.12,-0.44 0.13,-0.61 0.63,-0.63 0.53,-1.35 1.4,-2.52 1.16,-0.66 0.38,-0.45 0.43,0.08 0.58,-0.37 0.64,-0.86 0.5,-0.13 0.44,-0.92 0.31,-0.03 0.41,-0.53 0.18,-0.99 0.8,-1.1 1.25,0.34 0.79,1.42 0.4,0.3 -0.07,0.49 z m 1.33,-2.89 0.48,0.36 0.48,-0.15 0.14,0.34 -0.49,0.65 -0.21,-0.11 -0.86,0.19 -1.18,-1.07 -0.24,-0.58 0.32,-0.28 0.46,-0.09 0.49,0.21 0.13,0.38 0.48,0.15 z m 20.03,-1.57 0.61,0.08 0.5,0.46 0.64,1.24 0.51,0.38 -0.03,0.66 0.27,0.18 0.56,0.95 0.29,-0.06 0.43,-0.52 -0.2,-0.28 0.09,-0.35 0.44,-0.39 0.07,0.25 0.25,0.1 1.18,-0.68 -0.51,0.7 0.79,-0.2 0.23,0.19 -0.8,0.95 -0.89,0.13 -0.67,0.75 -0.65,-0.12 0.67,0.6 -0.43,0.94 -0.85,0.86 -1.91,0.94 -1.01,-0.77 -0.9,-1.7 0.06,-0.5 0.14,-0.09 -0.07,-0.5 -0.94,-2.29 0.11,-0.7 0.24,-0.4 1.35,-0.91 0.43,0.1 z m 19.11,-0.45 0.58,0.37 0.28,0.61 0.58,0.44 0.27,-0.03 0.41,0.5 -0.63,0.95 0.16,0.42 -0.26,0.29 -0.54,-0.05 -0.14,-0.29 -0.27,-0.38 -0.75,-0.17 -0.44,-0.46 -0.31,0.04 -0.3,-0.27 -0.22,-0.32 0.04,-0.3 -0.25,-0.13 -0.09,-0.28 0.61,-0.3 -0.09,-0.17 0.29,-0.35 0.78,-0.29 0.29,0.17 z m -70.99,-0.69 0.28,0.09 0.12,0.15 0.06,0.51 0.26,0.01 -0.02,0.15 -0.33,0.13 -0.34,0.83 -0.21,-0.11 -0.2,-0.03 -0.31,0.05 -0.02,-0.33 -0.15,-0.42 0.32,-0.17 -0.03,-0.78 0.57,-0.08 z m 61.69,1.74 -0.34,-0.07 -0.52,-0.86 0.84,-0.81 0.67,0.01 0.29,1.06 -0.63,0.59 -0.31,0.08 z m -5.41,-2.27 -0.08,0.34 0.22,0.19 0.16,0.66 0.15,0.05 -0.39,0.43 -0.38,0.03 -0.31,0.58 0.8,-0.18 0.02,0.19 -0.46,0.81 -0.46,0.43 -0.79,0.35 -0.29,-0.24 -0.07,-0.79 0.38,-0.54 0.32,-0.18 -0.04,-0.43 0.47,-0.66 0.17,-0.87 0.16,-0.16 0.42,-0.01 z m -36.91,-0.07 -0.32,0.2 0.1,0.28 -0.41,0.25 -0.58,-0.58 0.43,-0.17 -0.17,-0.47 0.02,-0.9 0.25,-0.08 0.41,0.48 0,0.51 0.24,0.13 0.03,0.35 z m -4.04,-1.79 0.17,0.55 -0.54,0.87 0.06,0.4 0.31,0.02 0.41,-0.7 1.45,-0.61 0.19,0.43 -0.57,1.1 0.03,1.02 0.17,0.75 0.34,0.57 0.37,0.83 0.25,0.77 0.75,0.83 0.42,0.05 0.38,-0.28 -0.37,-0.25 -0.11,-0.82 0.19,-0.71 0.25,-1.04 0.31,-0.5 1.01,-0.82 0.83,-0.02 0.17,0.22 0.78,0.32 0.22,0.5 -0.16,1.22 0.21,1.21 -0.24,1.23 0.6,-0.48 -0.1,-0.76 0.94,-1.54 0.79,0.46 0.88,1.2 0.14,0.48 -0.12,0.83 0.1,0.34 -0.84,0.35 -0.6,0.76 -1.65,0.28 -0.91,0.46 -0.69,-0.03 0,0.48 0.55,0.92 -0.32,1.46 -1.11,1.19 -0.55,1.59 -0.68,0.75 -0.51,1.31 0.01,0.42 -0.27,0.29 -0.86,0.51 -0.25,0.55 -0.8,0.22 -0.6,0.53 -0.69,-0.15 -0.78,0.49 -1.56,0.31 -0.82,-0.31 -0.26,-0.73 -0.78,-0.92 -0.22,-1.16 -0.4,-0.42 -1.6,-0.94 -0.22,-0.51 0.32,-0.4 -0.41,-0.15 -0.42,0.09 -0.42,-0.93 -0.57,-0.19 -2.85,-1.76 -0.54,-0.72 0.1,-0.28 -0.17,-0.52 0.29,-1.01 0.56,-0.85 1.16,0.4 0.42,0.09 0.15,0.37 0.4,0.11 0.08,-0.27 0.36,-0.11 -0.03,0.63 0.77,-1.36 -0.78,-0.12 -1,-1.24 -0.05,-1.22 0.17,-0.25 -0.01,-0.45 0.73,-0.24 0.03,-0.69 1.1,-0.44 0.96,0.14 0.22,0.32 -0.06,0.55 0.32,-0.07 0.46,-1.16 0.49,-0.42 1.06,0.9 0.08,1.12 0.71,0.44 -0.46,-0.71 0.24,-0.4 0.42,-0.26 0.11,-0.4 -1.36,-1.38 0,-0.55 -0.09,-0.36 0.04,-0.32 0.45,-0.57 0.06,1.2 0.23,0.09 0.35,-0.27 0.4,-0.98 0.52,-0.37 0.52,0.02 0.14,0.53 0.7,-0.94 1,-0.01 z m -10.31,-1.21 0.37,0.03 0.28,1.19 -0.13,1.65 0.22,0.39 -0.03,0.27 0.27,0.02 0.09,-1.05 0.37,-0.35 0.33,-0.75 0.29,-0.07 0.6,-1.35 0.2,0.02 0.39,-0.48 0.06,1.65 0.23,0.17 -0.04,-0.51 0.32,-0.1 0.9,1.07 0.17,0.01 0.13,0.42 -0.75,0.63 -0.14,0.58 -0.54,0.63 -0.53,0.31 -0.4,-0.19 -0.67,0.11 -0.44,0.27 -0.22,-0.1 -0.33,0.5 -0.37,0.11 -0.32,0.64 -0.2,-0.03 -0.28,0.36 -0.28,0.38 -0.2,0.64 -0.31,0.01 0,0.74 -0.31,-0.01 0.08,0.41 -0.22,0.12 -0.25,-0.3 -0.19,-0.07 -0.32,-0.49 0.08,-0.44 -0.3,-0.04 -0.1,-0.37 0.13,-0.31 0.28,-0.16 0.12,-0.56 -0.26,-0.18 -0.42,-0.3 -0.05,-1.22 0.46,-0.92 -0.03,-0.5 0.37,-0.34 0.67,-0.02 0.13,-0.2 -0.09,-0.34 -0.34,-0.17 0.36,-0.36 -0.49,-1.15 0.31,-0.67 0.38,-0.15 0.96,0.92 z m 58.98,-0.95 0.61,0.86 0.07,0.55 -0.31,0.25 -0.38,-0.22 -0.75,-0.1 -0.26,-0.49 -0.06,-0.3 0.26,-0.16 -0.16,-0.17 0.08,-0.12 0.9,-0.1 z m -54.1,-0.61 0.41,0.19 0.49,1.55 0.46,0.22 -0.13,0.3 -0.06,0.3 -0.29,-0.12 -0.58,-0.05 -0.1,0.34 0.25,0.33 -0.2,0.11 -0.34,-0.54 0.15,-0.33 -0.21,-0.24 -0.29,-0.38 -0.03,-0.23 -0.19,-1.15 0.05,-0.2 0.61,-0.1 z m -3.85,-0.28 0.66,0.13 0.1,0.17 -0.04,0.99 0.21,0.47 -0.16,1.13 -0.62,0.81 -0.22,-0.86 0.17,-0.48 -0.19,-0.39 -0.28,-0.18 0.06,-0.22 -0.03,-0.34 0.17,-0.29 -0.3,-0.71 0.16,-0.26 0.31,0.03 z m 48.05,1.39 0.66,1.01 -0.19,0.49 -1.03,1.5 -0.62,0.31 -0.33,-0.01 -0.23,-0.13 -0.95,-1.37 -0.4,-1.69 1.11,-2.43 0.48,-0.56 0.14,0.01 0.46,1.19 0.36,0.38 0.3,1.01 0.24,0.29 z m -33.97,-3.36 0.99,1.34 1.54,1.07 0.96,0.72 -0.08,0.91 -0.2,0.45 -0.33,0.15 -0.66,-0.22 -0.51,0.31 -1.62,-0.42 -1.08,-0.82 -0.68,0.07 0.02,-0.34 -0.56,-0.64 0.34,-1.52 1.01,-1.19 0.42,-0.09 0.44,0.22 z m 13.06,-0.71 0.48,0.02 0.99,0.75 0.08,0.44 -0.09,0.31 -0.24,0.14 -0.06,0.37 -0.19,0.02 -0.5,-0.63 -0.59,-0.28 -0.43,0.05 -0.53,-0.5 0.17,-0.7 0.49,-0.47 0.42,-0.07 0,0.55 z m -23.49,-1.11 0.32,-0.16 0.18,0.83 -0.06,0.86 -0.52,0.52 -0.28,-0.38 0.08,-0.3 -0.22,-0.18 0,-0.48 0.28,-0.06 -0.31,-0.37 0.29,-0.07 0.24,-0.21 z m -2.75,-0.14 0.23,0.16 0.33,-0.27 0.19,0.21 0.17,0.15 -0.03,0.17 0.18,0.62 -0.33,0.2 0.15,0.26 -0.06,0.6 0.13,0.69 -0.23,0.64 -0.57,-0.01 -0.3,-0.37 -1.05,-0.07 -0.23,0.18 -0.17,-0.2 -0.12,-1.07 0.26,0.05 0.42,-0.2 0.12,-0.45 0.28,-0.15 0.07,-0.98 0.33,-0.28 0.23,0.12 z m 53.77,-1.96 3.71,1.63 1.5,0.44 0.09,0.52 0.29,-0.01 0.57,-0.58 0.54,0.52 0.31,0.09 0.61,-0.07 0.57,-0.58 1.81,0.2 -0.42,0.66 0.32,0.93 1.2,0.6 0.04,0.41 1.17,0.91 0.27,0.99 1.46,0.6 0.39,0.78 1.27,-0.51 0.11,-1.05 0.59,-1.19 0.09,-0.66 0.21,-0.03 0.72,0.41 0.38,-0.01 1.61,-2.08 0.88,0.43 1,2.8 -0.21,0.68 0.66,1.27 0.82,2.42 0.83,0.96 0.09,1.08 -0.7,0.75 0.02,1.01 1.28,2.17 0.08,1.61 0.56,0.22 0.69,0.6 2.46,1.22 0.89,-0.17 1.64,0.89 0.05,0.69 -1.81,1.82 0.7,0.88 1.27,0.15 0.28,0.23 0.25,0.59 -1.14,1.21 -1.11,2.53 0.44,0.58 1.55,0.94 0.36,1.55 -0.13,1.719997 0.49,1.4 0.42,0.48 3.53,2.58 0.26,0.11 2.05,-1 1.26,1.23 -1.16,1.74 -1.53,1.01 -0.08,1.49 -0.68,1.59 0.08,0.58 -1.08,0.32 0.5,2.19 -2.04,-0.5 -2.2,0.24 -1.09,0.24 -2.28,1.34 -1.02,0.31 -1.72,0.2 -0.11,0.22 -0.04,0.37 0.72,1.23 -0.41,1.97 0.34,1.27 0.63,0.78 0.02,1.63 0.6,0.28 0.34,0.36 0.62,1.54 0.25,1.13 0.96,1.5 0.53,1.58 0.88,0.56 0.19,0.6 0.23,2.21 -0.29,2.36 0.12,1.5 -0.59,1.03 0.11,0.92 -0.74,1.04 -2.26,1.04 -1.06,0.81 -3.94,0.07 -2.06,0.24 -2.21,-0.64 0,0 -5.16,-7.94 -2.38,-4.26 -7.98,-2.32 -4.23,3.33 -2.09,2.46 -0.34,1.95 1.31,3.35 0.25,1.21 1.19,1.18 -1.17,4.32 -7.82,-5.37 -3.97,3.95 -11.26,0.89 4.1,5.74 1.56,1.89 0.67,7.87 -3.07,8.64 -3.44,4.7 -2.65,2.09 2.03,1.69 4.61,2.47 -5.77,6.61 -1.23,1.89 -21.52,-10.1 -8.37,0.64 -4.94,-4.71 -6.41,2.84 -2.47,-4.68 -4.21,0.57 -6.05,0.31 -0.68,-0.1 -4.44,1.96 -2.04,0.45 -1.63,0.14 -7.62,-0.99 -0.97,1.27 -0.91,0.77 -1.51,1.7 -0.96,0.34 -0.28,0.09 -0.74,0.26 -1.05,-0.07 -0.28,-0.89 -0.21,-1.12 0.65,-0.27 0.99,0.3 0.01,-1.23 -0.01,-0.43 -0.67,-0.75 -0.88,-0.62 0.04,-0.96 0.08,-0.6 0.58,-1.36 0.4,-0.54 0.18,-0.28 1.62,-0.58 0.74,0.19 -0.03,-0.96 0.21,-0.35 1.39,-0.61 0.78,-0.28 0.85,-0.16 0.51,0.4 0.51,-0.2 1.24,-1.42 0.31,-0.46 1.68,-0.14 0.17,0.32 -0.14,0.71 0.09,0.5 0.34,0.49 0.51,0.68 0.99,1.27 0.31,0.59 0.78,-0.01 0.75,-0.93 -0.88,-0.08 -1.39,-1.07 -0.06,-0.91 0.16,-1.19 0.18,-0.24 1.31,-0.4 2.05,-1 0.66,0.1 0.73,0.46 0.38,0.25 0.56,-0.3 0.81,-0.11 0.37,0.57 0.37,0.89 -0.05,0.86 0.35,0.27 0.42,0.45 1.13,0.19 0.4,-0.04 1.42,-0.4 1.94,1.18 0.12,-0.38 -1.23,-0.93 -1.73,-0.42 -1.69,-0.25 -0.38,-1.02 0.09,-0.69 -0.24,-0.54 -0.48,-0.35 -1.03,-0.4 -1.84,0.19 -1.4,-0.68 -0.03,-0.53 0.19,-0.55 0.4,-0.28 0.65,-0.12 1.07,-0.81 1.4,-1.29 0.06,-0.29 0.87,-0.24 0.61,0.06 3.2,2.24 2.5,0.36 0.99,0.74 0.48,0.99 0.26,0.16 -0.07,-0.23 0.13,-0.03 0.03,0.63 0.12,-0.06 -0.28,-1.84 -0.68,-0.91 -0.82,-0.41 -2.01,-0.22 -1.55,-0.91 -1.09,-0.86 -0.63,-0.11 -0.71,-0.36 0,-0.33 1.76,-1.54 0.29,-0.71 0.48,-0.17 0.75,-0.96 1.06,-0.38 0.61,0.11 0.25,-0.41 0.31,0.02 0.35,0.58 -0.24,0.42 -0.63,0.18 0.52,0.55 0.51,0.18 0.15,-0.15 0.4,0.2 0.36,-0.06 0.82,0.5 1.08,-0.18 -1.44,-1.75 -0.35,-0.65 -0.76,-0.24 0.04,-0.12 -0.51,-0.35 -0.16,0.34 -0.38,-0.13 0.02,-0.49 0.37,-0.22 -0.13,-0.3 0.13,-0.33 -0.93,0.08 -2.3,1.04 -0.75,0.15 -0.48,0.35 -0.41,-0.04 -1.03,0.87 -0.21,0.01 -0.26,-0.84 0.04,-0.5 0.23,-0.5 0.6,-0.62 -0.25,-1.27 0.59,-0.4 0.87,0.19 0.55,-0.08 0.12,-0.47 -0.39,-0.24 -0.04,-0.84 -1.29,0.08 -0.17,-0.17 -0.17,-0.65 0.08,-0.29 0.37,-0.31 0.84,-1.03 0.02,-0.45 0.31,-0.62 1.07,-0.69 0.39,-0.69 1.88,-2.06 -0.18,-0.2 -0.81,-0.47 -0.62,0.16 0.46,-0.9 1.51,-0.7 0.68,-0.05 0.28,0.33 0.94,-0.17 0.86,-0.64 0.33,-0.11 1.11,-0.3 0.95,-0.79 1,-0.36 0.42,-0.06 0.85,0.15 0.52,0.05 0.08,0.79 0.09,0.13 0.35,0.09 1.42,-0.7 0.46,0.48 0.66,0.97 0.34,0.03 0.22,-0.38 -1.5,-1.37 0.47,-0.12 -0.5,-0.35 -0.46,-0.17 -0.34,-0.12 -0.46,0.08 -0.21,0 -0.3,-0.46 0.23,-0.42 -0.07,-0.34 -0.34,-0.06 -0.16,-0.39 0.21,-1.04 0.25,-1.88 -0.52,-0.3 -0.82,0.16 -0.95,0.46 -0.09,-0.16 0.02,-0.39 0.66,-1.17 -0.04,-0.89 -0.28,-0.39 -0.01,-0.34 0.27,-1.5 -0.26,-0.55 0.23,-0.15 0.31,0.06 1.04,-0.56 0.31,-0.35 0.24,-0.93 0.61,-0.36 0.12,-0.37 -0.05,-1.15 -0.29,-0.79 0.42,-0.33 1.2,0.03 0.25,-0.36 -0.11,-0.42 -0.42,-0.13 0.23,-2.07 -0.71,-1.8 0.39,-0.6 0.37,-0.04 0.72,0.48 0.48,-0.56 0.34,-0.75 0.22,-0.19 1.08,0.26 0.4,0.42 0.85,0.37 0.51,0.44 0.13,0.33 -0.08,1.84 -0.33,1.29 0.15,0.53 -0.29,0.97 -1.75,2.18 -0.68,2.46 -0.16,0.4 -0.23,0.88 0.1,0.46 0.66,-0.52 0.31,-0.53 0.4,-1.53 -0.19,-1.38 0.94,-1.11 1.2,-1.47 0.41,-0.58 1.4,0.8 0.63,0.42 0.39,0.53 -0.21,1.93 0.03,0.64 0.26,0.56 0,1.64 -0.23,0.66 0.4,0.84 -0.1,0.65 -0.53,1.21 0.12,0.67 -0.25,0.97 0.07,0.41 0.18,-0.07 0.55,-1.71 0.11,-1.2 0.39,-0.3 0.05,-1.62 0.27,-0.82 -0.1,-1.42 -0.22,-0.52 0.19,-0.65 -0.04,-0.59 0.48,-0.47 0.39,0.23 0.23,0.74 -0.05,0.57 -0.39,0.81 1.08,1.46 0.25,0.08 0.6,0.71 0.7,0.34 0.37,0.86 -0.07,0.45 0.11,0.37 0.19,-0.17 0.16,-0.75 -0.05,-0.77 -0.65,-0.5 -0.73,-0.95 -0.27,-0.71 0.58,-0.06 0.12,-0.51 0.29,-0.1 1.27,0.1 0.31,-0.38 0.46,-0.04 0.46,0.07 -0.03,0.29 0.85,0.08 -0.01,-0.19 0.9,0.12 0.54,0.26 -0.12,0.29 -0.39,0.05 -0.26,0.3 0.59,0.26 0.73,0.46 0.38,-0.1 0.3,0.72 1.22,-0.06 -0.13,-0.32 -0.54,-0.19 -0.1,-0.18 0.21,-0.33 -0.07,-0.18 -0.55,-0.36 0.01,-0.48 -0.46,-0.49 -0.54,0.05 -0.4,-0.01 -0.85,-0.21 -0.39,-0.41 -0.28,-0.03 -0.01,0.34 -0.11,0.11 -1.3,-0.94 -0.44,0.11 -0.26,-0.1 -1.03,-0.88 -1.05,-0.5 -0.68,-0.68 -0.15,-0.48 -0.21,-0.93 0.02,-0.51 -0.61,-0.87 -1.97,-1.2 -0.32,0.13 -0.4,-0.31 0.07,-0.93 0.63,-1.45 -0.24,-0.94 -0.69,-0.58 0.17,-0.57 1.56,-0.52 0.47,-0.14 0.54,-0.25 1.11,-0.63 1.53,-0.11 0.31,-0.24 1.33,-0.36 0.75,0.06 0.39,-0.23 0.38,-0.44 0.09,-0.49 0.35,-0.11 0.57,0.7 0.33,1.88 -0.03,1.23 -0.72,0.62 0.09,0.46 0.48,0.21 0.61,-0.37 0.15,0.12 0.31,2.46 0.68,1.05 0.22,0.44 0.63,0.05 0.35,0.28 0.17,0.48 -0.31,1.09 0.18,0.55 0.88,1.39 1,1.13 0.79,0.45 2.79,-0.11 0.85,0.16 0.48,-0.16 0.66,0.51 0.47,0.93 0.16,0.69 -0.1,1.12 -1.01,0.78 -0.56,0.75 -0.03,0.32 -0.8,1.25 0.02,0.3 -0.06,0.56 0.48,0.54 0.62,0.27 0.64,-0.25 0.04,-0.28 0.71,-0.41 0.55,-0.03 0.63,0.34 1.07,0.28 0.76,0.49 0.69,0.17 1.17,0.17 -0.35,-0.32 -1.02,-0.46 -0.82,-0.67 -0.7,-0.76 -0.39,-0.76 -0.09,-1.93 0.18,-1.93 -1.39,-2.91 -0.75,-0.38 -0.82,-0.29 -0.3,-0.33 -2.43,0.35 -1.21,-0.01 -0.69,-0.71 -0.36,-0.72 -0.28,-2.32 -0.7,-0.46 -0.45,-0.04 -0.29,-0.57 -0.37,-0.28 -0.22,-0.37 0.19,-1.06 0.48,-0.93 0.07,-1.32 0.15,-0.34 1.19,-0.92 0.51,-1.14 2,-0.5 0.42,0.97 0.85,0.9 0.4,0.7 0.16,-0.18 -0.17,-0.58 -1.26,-1.94 0.03,-0.77 -0.17,-0.16 -0.22,0.07 -0.42,0.59 -0.33,-0.08 -0.6,0.27 -1.01,0.1 -0.49,0.35 -0.1,0.71 -0.43,0.62 -0.38,0.07 -0.39,-0.54 -0.54,-0.28 -0.18,-0.83 -0.34,-0.55 -0.2,-2.36 0.17,-1.38 0.48,-1.23 1.09,-1.02 0.23,-0.86 0.77,-0.83 0.5,-0.83 0.41,-1.18 0,-1.559997 0.88,-0.92 0.4,0.16 0.3,0.14 0.22,-0.13 0.77,-1.41 1.62,-0.94 1.04,-0.02 1.5,0.05 0.43,0.03 0.43,-0.44 0.31,-0.11 0.24,0.2 1.44,-1 0.81,-0.17 0.44,0.31 1.04,-0.78 0.78,-0.18 0.46,-0.32 0.46,-0.07 0.82,0.23 0.33,0.5 0.05,0.42 -0.33,0.76 -0.03,0.97 -0.95,1.26 0.63,1.32 -0.79,1.929997 -0.23,2.12 -0.51,0.68 0.32,0.13 0.95,0.22 0.98,0.82 0.14,0.35 -0.74,1.32 -0.05,0.27 0.26,0.76 -0.61,1.46 0.12,0.43 -0.11,0.46 -0.57,1.13 -0.4,0.31 -0.22,0.47 0.08,0.55 -0.29,0.8 -0.02,0.47 0.27,0.91 0.79,0.77 -0.84,1.36 -1.19,1.39 -0.66,0.48 -0.79,1.65 -0.68,0.87 0.46,0.11 1.18,-1.59 0.92,-0.91 0.25,0.01 0.37,0.35 0.32,0.64 0.34,-0.14 -0.42,-0.97 0.43,-1.46 0.96,-0.95 0.12,-0.49 0.55,-0.48 0,-0.61 -0.59,-0.27 0.13,-0.37 0.07,-0.58 0.53,-0.76 -0.01,-0.56 -0.38,-0.45 -0.14,-0.68 0.64,-1.06 0.35,-1.28 -0.11,-0.56 -0.32,-0.04 -0.16,-0.58 0.59,-0.04 0.6,-0.35 0.5,0.32 0.74,0.16 1.49,0.46 0.72,0.58 1.09,0.53 2.17,-0.02 0.84,-0.2 -0.07,-0.22 -1.63,0.13 -1.22,-0.23 -1.15,-0.98 -1.58,-0.44 -0.05,-0.26 -0.8,-0.52 -0.37,-1.29 0.11,-0.98 -1.12,-1.4 0.01,-0.67 0.43,-0.43 0.11,-1.1 0.49,-0.72 0.7,-0.48 -0.21,-0.579997 -0.08,-0.89 0.23,-1.05 0.73,-0.83 0.61,-0.15 0.77,-2.54 0.48,-0.47 0.69,-1.24 0.14,1.01 -0.14,1.32 -0.3,0.35 -0.53,2.66 0.21,0.41 0.53,-0.33 0.23,-0.74 0.44,-1.47 0.27,-1.35 1.25,-3.91 0.67,-1.17 0.24,-1.62 0.4,-1.26 0.65,-0.34 0.12,1.69 -0.05,0.63 -0.31,0.51 1.03,3.16 0.21,-0.15 0.03,-0.62 -0.72,-1.64 0.25,-1.02 0.01,-1.3 0.31,-1.03 1.25,-1.59 0.11,-0.78 0.58,-0.13 1.05,1.17 1.04,4.11 0.38,0.33 0,1.35 -0.82,2.27 0,1.17 -0.44,0.86 -0.62,2.03 -0.61,4.159997 0.04,0.58 -0.07,0.83 -0.73,0.87 0.11,0.19 0.39,1.4 0.16,0.3 0.38,0.33 0.61,0.01 0.26,0.56 0.38,0.16 -0.03,1.24 -0.17,0.55 -0.51,0.54 -0.2,1.01 -0.4,0.22 -0.33,-0.46 -0.22,0.18 -0.08,0.52 -1.1,0.24 0.3,0.52 -0.21,0.48 0.09,0.77 0.47,0.07 0.76,-0.06 -0.37,0.45 -0.77,0.32 0.11,0.72 0.17,0.44 -0.05,0.22 -0.4,0.6 -0.32,0.69 0.96,-0.27 -0.09,0.54 -0.03,0.72 0,0.47 -0.57,0.92 -0.45,0.46 -0.15,-0.41 0.34,-0.44 -0.34,-0.2 -0.07,-0.96 -0.31,0.2 -0.16,1.19 -0.39,1.08 0.05,0.65 0.09,0.8 -0.29,1.34 -0.17,0.35 -0.93,0.91 -1.03,0.43 -0.72,0.63 -1.05,1.18 -0.2,0.56 0.31,0.29 -0.8,1.61 -0.55,0.69 -0.52,1.59 0.09,0.39 0.33,0.33 0.58,-0.14 -0.57,-0.28 0.78,-0.4 0.19,-1.17 0.56,-0.57 0.85,-1.93 0.66,-0.48 0.22,-0.54 0.66,-0.38 2.22,-2.03 1.01,0.46 0.39,-0.71 0.39,-0.3 -0.3,-1.36 0.46,-0.59 0.14,-0.77 0.57,-0.8 0.38,-0.59 0.32,-2.01 1.13,-3.92 0.27,-2.41 0.36,-0.32 0.57,-0.1 0.35,0.4 1.68,1.12 0.27,0.57 0.09,0.85 0.33,0.14 0.23,-0.23 0.32,0.01 0.41,0.53 0.41,1.11 0.47,0.43 1.18,0.33 1.28,-0.14 1.5,1.33 0.25,-0.25 -0.39,-0.35 -0.83,-1.3 -0.54,0.02 -0.45,-0.18 -0.75,0.16 -1.1,-0.81 -1.01,-1.5 -0.52,-1.67 -0.85,-1.17 -1.09,-0.72 -0.37,-0.6 -0.34,-1.07 0.22,-1.56 0.14,-0.54 0.29,-0.07 0.2,-0.4 0.68,-2.1 -0.18,-1.759997 -0.8,-0.85 0.14,-0.48 -0.58,-0.31 -0.09,-0.28 0.73,-0.25 0.58,0.23 3.09,-1.83 0.5,-0.09 0.45,0.18 0.36,-0.17 0.16,-0.53 0.59,-0.43 0.7,-0.97 0.18,-0.44 -0.01,-0.59 0.19,-0.27 0.03,-0.49 -0.28,-0.45 -0.43,-0.23 -0.29,-0.59 0.33,-0.87 0.44,-0.53 1.07,-0.4 0.37,-0.29 0.15,-0.17 0.08,-0.83 0.41,-0.43 1.27,-0.52 0.83,-0.11 0.37,-0.27 1.12,-1.57 0.65,-0.29 0.3,0.05 0.33,0.4 -0.35,0.43 0.02,0.43 -1.13,0.65 -0.62,0.84 -0.33,0.09 -0.38,0.17 0.28,0.25 -0.88,0.86 0.01,0.37 -0.9,1.76 -1.18,0.91 0.39,0.27 0.75,-0.24 0.42,-0.02 0.68,0.11 -0.18,0.35 0.39,0.2 0.05,0.33 -0.75,-0.02 -0.25,0.19 -0.08,1 0.27,0.09 0.4,1.58 0.57,0.29 0.16,0.78 0.22,0.25 0.23,0.04 0.52,-0.54 0.05,-0.62 0.46,0.08 0.25,0.05 0.19,-0.17 -0.61,-0.47 -0.76,-0.93 0.15,-0.67 0.79,-0.52 0.3,0.05 0.33,-0.51 -0.11,-0.91 -0.23,-0.17 -0.15,0.02 -0.2,-0.29 0.06,-0.39 0.34,-0.35 -0.22,-0.29 0.36,-0.16 0.08,0.31 0.72,-0.61 0.4,0.32 1.18,-0.31 0.65,0.18 0.12,0.24 0.16,0.84 -1.1,1.27 0.13,0.65 -0.43,0.43 -0.03,0.69 -0.14,0.74 0.13,0.18 0.38,-1.02 0.61,-0.41 0.14,-0.49 0.48,-0.33 0.51,-0.88 -0.95,-2.91 0.29,-0.83 0.36,0.12 0.49,0.29 1.14,-0.09 0.65,0.15 0.28,-0.47 -0.11,-0.58 -1.45,-0.22 -1.68,-1.16 0.31,-0.48 -0.02,-0.74 0.37,-0.8 -0.18,-0.84 0.25,-0.53 0.09,-0.81 0.46,-0.99 1.09,-0.08 0.77,-0.61 0.2,-0.01 0.48,-0.01 1.13,0.17 0.68,0.25 0.14,0.1 0.14,0.78 0.82,0.4 1.16,1.09 0.07,0.61 -0.04,0.67 0.23,0.35 0.67,0.37 0.22,0.58 -0.31,0.35 -0.03,0.69 0.63,1.27 0.73,0.12 1.92,1.45 1.36,0.36 1.06,1.3 0.32,0.89 0.24,-0.01 0.43,0.33 0.54,-0.09 0.02,0.25 -0.43,0.2 0.26,0.22 0.07,0.77 0.65,0.94 0.86,2.26 1,0.58 0.53,-0.41 0.07,0.18 0.09,0.33 0.42,0.69 0.34,0.38 -0.26,0.3 -0.62,0.48 -0.66,-0.07 0.82,0.639997 0.63,-0.16 0.32,-0.259997 0.75,-0.35 0.73,-0.05 0.27,-0.61 -1.4,-0.94 -0.29,-0.01 -0.16,-0.23 0.05,-0.27 0.56,0.11 0.3,-0.55 -0.38,-0.19 -2.4,-2.92 -0.24,-0.03 0.11,0.53 -0.38,0.23 -1.39,-1.6 0.23,-0.82 1.05,0.69 0.78,-0.01 0.13,-0.23 0.69,0.04 0.29,-0.42 -0.06,-0.3 -0.8,-0.86 -1.22,-0.23 -0.73,-0.41 -0.11,-0.57 -0.3,-0.25 0.12,-0.21 -0.14,-0.33 0.09,-0.62 -0.34,-0.39 0.01,-0.85 -0.33,-0.92 0.25,-0.65 0.38,0.05 0.08,-0.27 0.54,0.16 0.17,-0.26 -0.07,-0.3 -0.56,-0.21 -0.53,-0.82 -0.04,-0.39 0.18,-0.34 0.88,-0.41 1.48,-0.28 0.41,0.1 0.3,0.48 0.09,1.28 -0.28,0.78 0.05,0.27 -0.5,0.26 0.36,0.29 0.64,0.17 0.17,0.34 0.1,-0.07 0.2,-0.66 -0.36,-0.92 0.23,-2.08 -0.29,-0.83 -0.6,-0.95 0.37,-0.29 0.82,-0.13 0.66,-0.61 -0.18,-0.13 -1.08,0.12 -0.85,0.4 -0.38,-0.04 -0.29,0.38 -1.41,0.36 -1.12,0.05 -1.25,-1 -0.53,-0.78 0.58,-0.44 0.38,0.01 1.01,-1.15 1.77,-0.07 0.1,-0.16 0.51,-0.01 0.21,-0.25 0.65,-0.26 -0.01,-0.64 0.62,-0.79 0.7,-0.46 0.31,-1.52 -0.28,-0.16 -0.32,0.45 -0.12,0.79 -0.45,0.45 -0.37,0.16 -0.11,-0.39 -0.26,0.01 -0.06,0.82 -0.48,0.32 -0.56,0.75 -1.1,-0.11 -1.18,0.39 -0.61,-0.51 -0.01,-0.5 -0.17,-0.12 -0.17,0.17 -0.04,0.55 0.39,0.72 -2.11,0.98 -0.81,-0.8 -0.24,0.14 -0.71,-0.38 -1.38,-1.06 -0.02,-0.63 0.24,-0.49 -0.35,-0.44 -0.17,-0.01 -0.45,1.07 -0.44,0.17 -0.63,-0.32 -0.97,-0.13 -0.25,-0.24 -0.18,-0.29 -0.18,-1.14 -0.82,-1.74 0.89,-0.26 0.91,-0.96 -0.25,-0.73 -0.63,0.4 -0.53,0.22 -1.36,0.59 -0.82,0.05 -0.53,-0.14 -0.68,-0.43 -0.57,-0.67 0,-0.43 0.1,-0.49 -0.36,-0.35 -0.29,-0.02 0,-0.49 -0.22,-0.52 -0.16,0.04 -0.18,0.49 -0.28,0.05 -0.02,-0.58 -0.25,-0.27 0.41,-0.53 z m -10.38,-0.71 0.42,0.03 0.08,0.87 0.86,0.32 0.23,0.79 -0.02,1.14 -0.42,1.19 -0.11,1.03 -0.62,1.59 -0.22,2.04 0.3,0.85 0.73,1.09 0.22,1.08 -1.86,0.8 -1.01,-0.15 -0.61,-0.26 -0.03,-0.88 -0.2,-0.01 -0.22,0.5 0.01,0.64 -0.29,0.36 -1.25,0.49 -0.69,-0.15 -0.06,-0.46 0.9,-2.41 -0.6,-1.09 0.1,-0.33 -0.26,-1.28 -0.13,1.6 0.28,0.93 -0.05,0.32 -0.52,0.77 -0.33,-0.38 -0.34,-0.02 0.19,1.27 -0.4,0.23 -0.8,0.09 -1.31,-0.99 -0.44,-0.67 -0.2,-0.98 0.27,-2.3 0.22,-0.99 -0.29,-0.66 0.33,-0.56 0.2,-0.4 0.29,-0.57 0.02,-0.76 0.66,-0.64 0.75,-0.4 0.41,-0.13 0.25,0.22 0.43,-0.18 0.12,-0.47 -0.15,-0.41 0.07,-0.51 0.42,-0.69 0.29,-0.15 0.44,-0.01 0.96,-0.4 0.79,0.2 0.65,-0.07 0.51,-0.41 0.46,0 0.57,0.33 z m -35.23,-1.55 0.3,0.46 0.01,0.26 0.27,0.6 0.31,0.26 -0.16,0.97 -0.36,-0.1 -0.15,0.22 0.59,0.66 0.12,1.12 0.29,0.6 -0.86,1.54 -0.09,0.7 0.29,0.26 -0.12,0.77 -0.56,0.17 -0.18,0.35 0.1,0.46 -0.27,0.05 -1.67,0.45 -0.39,-0.28 -1.25,-1.73 -0.68,-0.3 -0.21,-0.34 -0.55,-0.07 -0.04,-0.21 0.27,-0.31 0.32,-0.21 0.29,0.01 0.46,-0.36 0.05,-0.31 0.51,-0.05 0.4,0.24 0.06,0.85 0.3,0.36 0.3,0.02 -0.23,-0.37 0.21,-0.81 -0.07,-0.43 -0.37,-0.64 0.03,-0.37 0.29,-0.4 0.61,-0.26 0.47,0.16 0.38,-0.09 -0.17,-0.39 -1.4,-0.26 0.08,-0.47 0.48,-0.33 -0.04,-0.24 -0.59,-0.59 -0.23,-0.59 0.6,-0.31 0.34,0.52 0.05,-0.55 0.17,-0.1 0.41,0.26 0.25,-0.24 -0.18,-0.41 0.15,-0.37 0.27,-0.12 0.1,0.35 0.37,0.14 -0.12,-0.27 0.25,-0.29 0.19,0.36 z m 12.64,1.94 -0.37,0.07 -0.24,-0.6 -0.46,-0.14 -0.07,-0.52 0.08,-0.32 0.27,-0.14 0.22,-0.7 0.42,-0.16 0.5,0.3 0.13,1.07 -0.23,0.89 -0.25,0.25 z m -3.51,-3.96 0.71,-0.12 0.25,0.32 0.02,0.47 0.43,0.99 -0.08,1.47 0.16,0.94 0.12,0.12 0.18,-0.12 -0.12,-0.48 0.16,-0.27 0.61,0.2 0.4,0.33 -0.03,0.45 0.57,1.43 -0.09,1.6 0.28,1.08 0.85,0.27 0.04,-0.83 0.56,-0.7 0.25,-2.17 0.63,0.81 0.57,0.07 0.61,0.42 0.28,0.94 -0.08,0.26 -0.64,-0.13 -0.13,0.77 0.58,0.28 0.19,0.72 0.52,0.53 0.25,0.55 0.14,-0.05 -0.11,-0.17 0.46,0.05 -0.18,0.15 0.16,0.2 -0.22,0.2 0.07,0.11 0.73,0.2 0.36,0.38 0.86,-0.18 0.55,0.92 1.03,-0.03 0.13,0.43 -0.06,0.14 -0.8,0.27 -0.45,0.3 -1.61,0.63 -0.14,0.43 0.28,0.3 -0.39,0.85 -0.45,0.32 -1,0.06 -0.81,0.37 -1.05,-0.54 -1.25,0.11 -0.33,-0.22 -0.72,0.01 -0.65,-0.45 -0.18,-0.31 -0.24,-1.3 -0.47,-0.63 0.2,-0.53 0.54,-0.02 -0.02,-0.67 -0.39,-1.22 -0.24,-0.12 -0.78,-1.15 0.12,-0.28 0.29,-0.07 0,-0.36 -1.64,-2.74 -0.27,-0.28 -1.48,-0.64 -0.23,-0.24 -0.2,-0.87 0.06,-0.49 0.18,-0.14 0,-0.69 0.2,-0.35 0.72,0.88 0.51,0.2 -0.27,-0.26 0.01,-0.36 -0.46,-0.36 0.38,-0.2 0.3,-0.81 -0.06,-0.57 0.3,-0.46 0.47,-0.14 0.05,0.19 z m 15.37,1.36 0.41,-0.01 0.14,0.19 -0.23,0.73 -0.94,1.01 -0.68,1.44 -0.33,-0.64 -0.18,-3.56 -0.2,-0.61 -0.45,-0.59 0.09,-0.99 0.44,-0.1 0.31,0.18 0.12,0.44 0.57,0.82 0.24,1.07 0.69,0.62 z" 
                fill="rgb(151, 144, 238)" 
                stroke="white" 
                stroke-width=".7px"
                title="Troms" 
                id="NO-19" 
            />
        </svg>