<svg xmlns="http://www.w3.org/2000/svg" viewBox="117.63084999999994 646.1014299999995 17.779999999999987 33.060000000000514" width="17.779999999999987" height="33.060000000000514">
            <path 
                d="m 132.30085,669.76143 0.23,0 0.57,0.43 0.43,0.26 -0.06,0.37 -0.59,0.02 -0.11,0.72 0.49,-0.34 0.06,0.34 -0.4,0.46 -0.05,1.04 0.12,0.48 0.09,0.57 -0.44,0.8 -0.19,-0.12 -0.16,-0.54 -0.01,-0.59 -0.23,-0.67 -0.06,-0.6 -0.02,-1.67 -0.09,-0.46 0.42,-0.5 z m 0.76,-3.92 0.33,1.34 0.4,0.2 -0.11,0.97 0.3,0.42 -0.65,1.2 -1.03,-0.66 -0.63,0.34 -0.15,-0.69 0.11,-1.11 0.48,-0.97 0.03,-1.42 0.32,-0.13 0.6,0.51 z m -1.09,-18.63 0.75,2.11 0.03,0.74 -0.21,0.49 -0.13,0.25 -0.19,0.5 0.16,0.8 -0.11,0.78 -0.02,0.28 -0.32,0.35 -1.02,-0.11 -0.69,-0.45 -0.85,-1.01 -0.52,-0.52 -0.23,0.4 0.66,1.57 0.93,1.37 0.55,0.66 0.42,0.69 0.29,0.48 0.6,1.03 0.48,-0.58 0.72,0.15 0.42,0.08 0.58,0.8 0.4,-0.23 0.05,0.82 -0.27,0.22 -0.23,1.28 -0.31,0.69 0.2,0.76 0.29,0.31 0.57,0.78 0.44,0.43 -0.15,1 -0.39,0.61 -0.3,0.62 -0.27,0.69 -0.26,0.25 -0.2,0.02 -0.31,-0.74 -0.26,-0.43 -0.82,-0.39 -0.48,0.06 -0.12,0.18 -0.72,2.42 -0.24,1.22 0.12,1.17 -0.1,0.43 -0.11,0.73 -0.07,0.95 -0.24,-0.33 -0.23,-0.33 -0.36,-0.34 -0.16,0.19 0.28,0.62 0.37,1.13 0.06,0.6 0.08,0.61 -0.24,0.83 -0.57,-2.8 -0.39,-0.47 0.01,0.93 0.4,1.23 -0.03,0.58 0.02,0.81 -0.21,0.3 -0.2,-1.07 -0.2,-0.21 0.01,-1.31 -0.32,-0.29 -0.24,0.11 -0.29,0.79 0.26,0.38 0.14,0.87 -0.08,0.45 -0.47,0.99 -0.42,0.24 -0.64,0.49 -0.23,0.09 -0.47,0.04 -0.05,-0.93 0.91,-0.36 0.15,-0.3 -0.13,-0.75 -1.25,1.15 -0.5,0.35 -0.51,0.35 -0.17,-1.14 -1.1,-0.2 0.03,0.77 0.42,0.51 0.19,0.48 0.27,0.5 -0.44,0.72 -0.76,0.04 -0.4,0.18 -0.19,-0.17 -0.23,-0.29 -0.22,0.31 0.17,0.48 -0.25,0.2 -0.71,-0.13 -0.66,-0.04 -0.73,-0.4 -0.15,0.14 0.09,0.36 -0.23,0.28 -0.15,-0.41 -0.68,-0.19 -0.11,-0.21 0.61,-0.35 0.24,-0.34 -0.06,-0.5 -0.14,-0.64 -0.11,-0.96 -0.38,0.23 0,0 -0.08,-0.47 0.48,-0.07 0.11,-1.19 0.25,-0.13 0.1,-0.58 -0.2,-0.89 -0.49,-0.65 0.18,-1.55 0.6,-0.49 0.49,-0.09 0.14,-0.36 -0.2,-0.73 -0.57,-0.96 0.54,-0.36 -0.28,-0.6 0.01,-0.57 -2.59,-3.34 0.51,-1.12 -0.17,-1.04 0.19,-1.85 0,0 -0.47,-2.1 1.54,-0.34 2.08,0.56 0.5,-0.16 0.12,-0.4 1.38,0.07 0.33,0.23 1.09,-0.53 -1.05,-1.99 -1.3,-1.55 -0.18,-0.51 -0.78,-0.82 0.37,-0.33 -0.07,-0.8 0.83,-0.52 0.23,-0.34 0.19,-1.11 0.57,-0.46 0.75,0.91 0.93,-0.11 0.84,-1.15 1.99,0.01 0.48,-0.2 0.37,-0.01 1.36,0.11 0.47,-1.11 0,0 0.49,0.1 0.34,0.29 0.41,0.72 z" 
                fill="rgb(151, 144, 238)" 
                stroke="white" 
                stroke-width=".7px"
                title="Vestfold" 
                id="NO-07" 
            />
        </svg>