<svg xmlns="http://www.w3.org/2000/svg" viewBox="293.9697100000001 6.581799999999991 36.96000000000009 51.68000000000001" width="36.96000000000009" height="51.68000000000001">
            <path 
                d="m 299.46971,7.6818 0.25,0.1 0.06,0.1 0.3,0.13 0.04,0.08 0.85,0.33 0.54,0.44 1.09,0.57 0.99,0.65 1.14,0.53 0.73,0.46 0.25,0.03 0.16,0.13 0.17,-0.03 0.3,0.21 0.51,0.17 0.5,0.28 0.43,0.1 0.17,-0.04 0.18,0.1 0.29,-0.05 0.12,0.02 0.17,0.1 0.21,-0.09 0,0 0,1.81 -1.56,0.82 -1.56,0.63 0,1.55 2.43,-0.04 1.78,-0.24 0.1,2.02 0.99,0.2 1.2,0.63 0.96,0.92 -0.34,2.48 -0.76,3.9 4.1,-2 3.13,-1.74 0,0 1.72,-0.39 1.85,0.27 0.5,-0.26 0.21,-0.48 0.09,-0.63 0.42,-0.03 -0.03,0.27 -0.3,0.69 -0.03,0.47 2.78,-0.05 0.21,-0.42 0.33,0.36 0.71,0.41 1.38,0.27 0.44,0.72 0.18,0.77 -0.36,1.14 0.54,0.51 0.39,0.8 0.49,0.44 -0.25,0.31 -0.18,0.48 0.06,0.74 0.39,0.21 -0.18,0.06 0,0 -3.35,1.29 -4.16,0.56 -0.93,0.19 -3.59,-0.07 -1.09,1.81 -0.15,1.98 -2.88,2.98 -0.14,2.89 -2.27,0.18 -0.16,1.63 -1.32,0.72 -0.21,1.47 -8.82,0.24 -1.32,1.17 0,6.49 0.84,0.77 -0.92,2.37 -2.02,1.99 0,0 -1.17,-0.07 -1.07,-1.79 -0.91,-0.59 0,0 0.01,-0.12 0,0 1.24,-1.27 -0.13,-3.45 -0.67,-0.28 0.09,-1.01 -0.98,-1.05 -0.31,-3.34 0.24,-2.52 0.62,-2.71 0.31,-2.26 1.01,-1.17 0.78,-0.45 0.97,-2.36 -2.18,0.28 -1.91,0.13 -0.23,-0.11 0.32,-1.53 0.63,-1.07 0,0 -0.1,-2.98 0,0 1.64,0.31 0.7,-0.54 -0.24,-1.7 -0.07,-10.62 -0.46,-1 -0.08,-2.9 -1.09,0.09 -0.08,-2.09 1.01,-0.91 0,0 1.23,0.1 -0.02,-2.7 0.54,0.19 0.47,0.34 0.64,0.28 z" 
                fill="rgb(151, 144, 238)" 
                stroke="white" 
                stroke-width=".7px"
                title="Ad Daqahlīyah" 
                id="EG-DK" 
            />
        </svg>