<svg xmlns="http://www.w3.org/2000/svg" viewBox="275.8097099999997 123.95179999999996 223.94000000000028 361.34000000000003" width="223.94000000000028" height="361.34000000000003">
            <path 
                d="m 499.55971,395.4018 0.08,0.65 0.11,0.33 -0.09,0.19 -0.19,0.03 -0.17,-0.07 -0.01,-0.11 0.04,-0.05 0.06,0.03 0.01,-0.1 0.2,-0.16 -0.04,-0.58 -0.06,-0.11 0.06,-0.05 z m -82.61,-144.54 0.16,0.14 0.04,0.17 0.2,0.07 0.04,0.15 0.5,-0.04 0.09,0.08 0.03,0.21 -0.14,0.83 0.09,0.24 0.17,0.15 0.12,0.33 0,0.15 -0.1,0.13 0.05,0.56 -0.07,0.07 0.05,0.07 -0.05,0.08 -0.09,-0.03 -0.35,-0.51 -0.13,-0.38 -0.13,-0.1 -0.07,0.01 -0.25,-0.38 0.09,-0.28 -0.05,-0.25 -0.24,-0.11 -0.14,-0.28 -0.12,-0.01 0,-0.18 -0.23,-0.24 0.01,-0.22 0.09,-0.11 0.19,-0.07 0.15,-0.26 0.09,0 z m -2.85,-24.54 0.17,0.15 0.04,-0.11 0.2,0.07 0.29,0.35 0.13,0.28 0.11,0.07 0.06,0.39 -0.08,0.2 0.01,0.2 0.14,0.18 0.06,0.27 0.22,0.1 0.08,0.53 0.11,0.07 0.05,0.27 -0.06,0.11 -0.26,-0.07 -0.04,0.06 -0.23,0.03 -0.05,-0.1 -0.26,-0.14 -0.26,-0.6 -0.45,-0.38 -0.26,-0.03 0.05,-0.15 -0.08,-0.04 -0.02,-0.14 -0.22,-0.17 -0.13,-0.22 0.06,-0.17 0.35,0.15 0.2,-0.1 -0.01,-0.18 -0.19,-0.46 0.05,-0.18 0.09,-0.06 0.05,-0.15 0.08,-0.03 z m 1.01,-13.62 0.08,0.1 0.5,0.03 0.2,-0.06 0.64,0.07 0.11,0.24 0.3,0.11 0.4,0.49 0.54,0.25 0.16,0.01 0.4,0.28 0.05,0.15 0.46,0.01 0.13,0.06 0.25,0.38 0.01,0.2 0.25,0.53 0.04,0.34 0.19,0.2 0.21,0.78 -0.15,0.32 -0.31,0.07 -0.32,-0.01 0,-0.11 0.15,-0.03 0,-0.1 -0.42,-0.46 -0.15,-0.36 -0.25,-0.17 -0.36,0.03 -0.04,-0.25 -0.33,-0.36 -0.15,-0.08 -0.07,-0.14 -0.23,-0.1 -0.15,-0.21 -0.41,0.04 -0.16,-0.1 -0.24,0.01 -0.02,-0.1 -0.3,-0.29 -0.17,0.01 -0.22,-0.17 -0.22,0.11 -0.25,0.03 -0.15,-0.06 -0.57,-0.66 -0.09,-0.35 0.01,-0.08 0.14,0 0.11,0.13 0.09,-0.06 0.1,-0.48 0.21,-0.19 z m -6.52,-1.08 0.11,0.06 0.04,0.11 -0.11,0.18 0.04,0.35 -0.15,-0.07 0,-0.11 -0.13,-0.06 -0.1,-0.22 0.11,-0.2 0.19,-0.04 z m -1.58,-0.43 0.21,0.08 0.02,0.14 0.13,0.03 0.05,0.13 0.27,0.24 0.11,0.27 -0.07,0.03 -0.39,-0.31 -0.37,-0.53 0.04,-0.08 z m 0.71,-3 0.21,0.2 0.05,0.17 0.26,0.14 -0.09,0.66 -0.14,0.22 0.14,0.04 0,0.14 0.1,0.17 0.17,0.03 0.55,0.36 0.27,0.03 0.11,0.24 -0.14,0.34 -0.41,0.25 -0.08,0.17 -0.35,0.04 -0.21,0.11 0.04,0.5 0.21,0.28 -0.06,0.13 -0.12,-0.11 -0.26,-0.5 -0.01,0.24 -0.35,-0.53 0.07,-0.24 0.51,-0.01 0.04,-0.21 -0.13,-0.01 -0.24,-0.18 -0.22,0.01 -0.26,-0.08 0,-0.07 -0.13,-0.06 -0.08,-0.13 -0.46,-0.07 -0.13,-0.06 -0.05,-0.1 0.28,-0.49 0.09,-0.31 0.15,-0.14 0,-0.2 0.3,-0.84 0.05,-0.08 0.32,-0.05 z m 0.68,-0.29 0.06,0.03 0.08,0.35 0.14,0.11 0.01,0.21 -0.16,-0.07 -0.15,-0.27 -0.06,-0.31 0.08,-0.05 z m 0.77,-1.63 0.14,0.13 0.16,0.34 0.39,0.17 0.16,0.67 -0.03,0.36 -0.27,0.38 -0.08,0.31 -0.15,-0.03 -0.46,-0.41 -0.03,-0.15 -0.15,-0.13 -0.17,-0.62 -0.11,-0.07 -0.08,-0.2 -0.01,-0.13 0.14,-0.04 -0.06,-0.22 0.09,-0.15 0.23,-0.04 0.09,-0.11 0.2,-0.06 z m 0.39,-0.9 0.05,0.14 -0.06,0.06 -0.13,-0.04 -0.15,0.1 -0.19,0.31 -0.05,0.22 -0.21,-0.04 -0.24,0.07 -0.05,0.07 0,-0.08 -0.09,-0.06 0.06,-0.18 0.09,0.06 0.09,-0.15 0.19,-0.04 0.02,-0.31 0.29,0.03 0.14,-0.07 0.08,0.04 0.16,-0.13 z m -8.93,-4.36 0.03,0.07 -0.11,0.07 -0.03,-0.08 0.11,-0.06 z m -0.53,-0.86 0.26,0.1 0.17,0.17 0.01,0.1 -0.09,0.11 0.15,0.13 0.06,0.22 -0.15,-0.13 -0.1,0.24 0.08,0.03 0.05,0.13 0.04,0.48 -0.37,-0.13 -0.08,-0.28 -0.61,-0.48 0.24,-0.29 0.06,-0.24 0.16,-0.03 0.04,-0.13 0.08,0 z m -93.42,-64.48 4.44,0.63 4.47,1.76 6.48,1.58 1.24,0 0,0 1.09,2.1 5.16,-0.98 6.63,-0.1 8.03,-4.94 4.28,-1.17 3.94,-2.34 5.38,-0.19 0,0 0.13,-0.01 0.09,0.24 -0.05,0.16 0.19,0.13 0.14,0.24 -0.04,0.36 0.09,0.2 -0.03,0.27 -0.24,0.58 0.03,0.07 -0.18,0.11 -0.15,0.26 -0.07,-0.04 -0.56,0.47 0,0.1 0.11,0.06 -0.01,0.11 -0.08,-0.1 -0.4,0.07 -0.35,0.43 -0.07,0.2 0,0.06 0.01,0.07 0.33,0.41 0.05,0.57 -0.28,0.37 -0.11,0.47 -0.1,1.14 0.05,0.36 0.51,0.82 0.29,0.28 0.42,0.57 0.37,0.31 0.28,0.34 0.17,0.55 0.24,0.35 0.13,0.68 0.17,0.48 0.13,0.07 -0.08,0.52 0.41,0.45 0.08,0.28 -0.06,0.1 0.51,0.38 0.25,0.38 0.14,0.01 0.06,0.1 0.27,0.1 0.36,0.28 0.36,0.75 0.14,0.57 0.34,0.42 0.2,0.08 0.05,0.16 0.13,0.03 0.2,0.21 0.77,0.07 0.54,0.18 0.22,0.14 0.46,0.4 0.25,0.54 0.12,0.13 0.33,0.78 0.08,0.44 0.17,0.42 0.1,0.21 0.14,0.04 0.19,0.23 -0.15,0.5 0.02,0.54 0.26,0.53 0.2,0.08 -0.03,0.27 0.29,0.71 -0.1,0.06 0.01,0.67 0.14,0.16 0.01,0.24 0.35,0.18 0,0.37 0.13,0.11 0.05,0.17 0.01,0.3 0.24,0.75 0.04,0.66 0.16,0.88 -0.01,0.37 -0.16,0.27 0.16,0.27 0.06,0.08 0.61,0.24 0.12,0.17 0.29,0 0.42,0.21 0.39,-0.03 0.14,0.1 0.5,0.1 0.17,0.14 0.1,0 0.03,0.11 0.13,0.1 -0.04,0.14 0.3,0.13 0.1,0.27 0.14,0.14 0,0.13 0.11,0.08 0.07,0.28 0.2,0.23 0.29,0.2 0.29,-0.01 0.03,-0.08 0.05,0.01 0,0.08 -0.13,0.1 -0.04,0.3 0.09,0.17 0.14,0.08 0.02,0.15 0.19,0.3 0.09,0.01 0.03,0.01 0.04,0.06 0.17,-0.03 0.06,0.11 0.42,-0.03 0.26,0.08 0.06,0.13 -0.06,0.07 0.03,0.32 0.14,0.2 0.97,0.66 0.25,0.83 0.49,0.75 0.14,0.45 0,0.23 0.29,0.61 0.09,0.07 -0.01,0.2 0.18,0.1 0.17,0.25 0.01,0.14 0.14,0 0.05,0.11 0.15,-0.04 0.1,0.45 0.44,0.64 0.27,0.18 0.31,0.01 0.36,0.2 0.35,0.1 0.14,0.18 0.09,0.21 -0.05,0.3 0.08,0.75 -0.01,0.2 0.02,0.52 0.28,0.2 0.26,0.32 0.04,0.49 -0.05,0.21 0.31,0.14 0.21,0.28 0.26,0.16 0.38,0.06 -0.01,0.24 0.34,0.24 0.04,0.44 0.13,0.25 0.05,0.45 0.14,0.07 0.21,0.39 0.21,0.1 0.3,0.28 0.16,0.61 0.36,0.1 0.1,0.14 0.29,0.14 0.26,0.23 0.41,0.69 0.45,0.3 0.36,0.56 0.29,0.24 0.1,0.24 -0.09,0.25 0.15,1 0.19,-0.02 0.27,0.16 0.34,0 0.15,-0.11 0.11,0 0.19,0.14 0.39,0.07 0.05,0.21 -0.06,0.25 0.52,0.48 0.2,0.35 0.11,0.16 0.31,0.31 0.1,0 0.21,0.17 0.06,0.2 0.31,0.03 0.03,0.1 0.24,0.08 0.35,0.37 0.01,0.1 -0.1,0.11 0.02,0.69 0.33,0.75 0.37,-0.01 0.11,0.18 0.1,-0.04 0.13,0.1 0.4,-0.03 0.11,0.46 0.1,-0.01 0.14,0.08 -0.06,0.16 0.24,0.22 0.32,0 0.99,-0.2 0.44,0.1 0.08,0.21 0.06,0.14 0.2,0.23 0.36,0 0.17,0.11 0.3,0.52 0.06,-0.01 0.51,0.46 0.44,0.08 0.46,0.25 0.13,0.14 0.22,0.07 0.37,0.49 0.15,0.39 0.12,0.1 0.29,0.56 0.56,0.7 0.15,0.07 0.16,0.53 0.13,0.04 0.2,0.35 0.14,0.1 0.02,0.27 0.24,0.45 0.07,0.18 0,0.15 0.08,0.01 0.14,0.2 0.08,0 0.01,-0.15 0.08,0.01 0.07,0.08 -0.06,0.17 0.2,0 0.11,0.1 0.11,0.28 -0.03,0.36 0.06,0.46 0.14,0.27 0.11,0.06 0.24,0.31 0.11,0.34 0.52,0.25 0.02,0.16 -0.06,0 -0.04,0.1 0.08,0.34 -0.16,0 -0.05,0.25 0.19,0.45 -0.16,0.49 0.09,0.13 0,0.35 0.25,0.35 -0.03,0.18 -0.04,0.03 -0.17,0.07 -0.2,-0.15 -0.16,0.15 -0.02,0.11 -0.11,0.01 -0.04,-0.41 -0.06,-0.13 -0.16,-0.11 0.04,-0.34 -0.05,-0.13 -0.17,-0.1 -0.17,-0.22 -0.19,0.01 -0.11,0.25 -0.46,-0.06 -0.47,-0.44 -0.09,-0.01 -0.14,-0.25 -0.45,-0.03 -0.17,-0.27 -0.65,-0.01 -0.25,-0.21 -0.29,-0.1 -0.2,0.17 -0.09,0 -0.2,0.6 -0.11,0.1 -0.11,0.39 0.01,0.25 0.42,0.42 0.45,0.04 0,0.13 0.14,0.22 0.17,0.08 0.05,0.17 0.17,0.2 0.05,0.66 0.26,0.17 0.14,-0.01 0.36,0.86 0.45,0.01 0.26,-0.15 0.1,0.01 0.74,-0.55 0.19,0.34 0.06,-0.01 0.01,0.11 -0.15,0.24 -0.01,0.22 -0.13,0.1 -0.03,0.21 -0.17,0.29 -0.01,0.13 0.08,0.11 -0.29,0.29 -0.1,0.39 -0.17,0.18 0,0.28 0.09,0.01 0.11,0.18 0.16,-0.07 0.09,0.03 0.01,0.07 -0.09,0.04 0.04,0.37 -0.09,0.13 0.2,0.34 1.2,0.13 0.06,0.15 0,0.52 0.15,0.03 0.06,0.2 0.16,0 -0.1,0.27 0.45,0.29 0.06,-0.01 0.02,0.11 -0.06,0.39 -0.1,0.1 -0.04,-0.06 -0.17,0.03 -0.11,-0.37 -0.24,-0.29 0.03,-0.29 -0.49,-0.53 -0.19,-0.08 -0.23,-0.24 -0.07,0 -0.08,0.14 -0.15,0.06 0.06,0.18 0.35,0.43 0.04,0.14 -0.09,0 -0.25,-0.32 -0.22,-0.06 -0.09,-0.17 -0.19,-0.04 -0.02,-0.25 -0.21,-0.18 0.02,-0.11 -0.37,-0.13 -0.85,0.63 -0.3,0.41 -0.19,0.13 -0.15,0.28 -0.03,0.25 -0.05,0.01 -0.04,-0.08 -0.15,0.07 0.05,0.36 0.34,0.04 0.15,0.11 0.13,0 0.05,0.11 0.22,-0.03 0.14,0.31 0.25,0.08 0.09,0.25 0.47,0.41 0.51,0.76 0.28,0.77 0.24,0.1 0.03,0.92 0.14,0.18 -0.03,0.48 -0.21,0.57 0.04,0.56 0.11,0.35 0.21,0.08 0.45,-0.08 0.67,0.22 0.07,-0.03 0.06,0.08 -0.02,0.2 0.31,0.31 0.24,0.49 0.09,0.06 0.49,-0.03 0.22,0.17 0.01,0.22 0.17,0.15 0.08,0.42 0.06,0.07 0.03,0.62 0.09,0.1 0.01,0.13 0.11,0.06 0.14,0.39 0.15,0.17 0.13,0 0.2,0.18 0.27,0.13 0.15,0.15 0.13,0.43 0.09,0.03 0.01,-0.11 0.11,-0.03 0.06,0.27 0.54,0.5 0.02,0.46 0.17,0.21 0.06,0.21 0.15,0.01 -0.04,0.15 0.14,0.39 -0.06,0.06 -0.01,0.28 -0.13,0.31 -0.11,-0.01 -0.05,0.17 -0.06,0.02 0.08,-0.38 0,-0.07 -0.06,-0.01 -0.03,0.18 -0.17,0.06 -0.02,0.25 0.1,0.11 0.1,0 0.2,-0.14 0.08,0.91 0.24,0.03 0.05,0.11 0.16,0.07 -0.05,0.43 -0.09,0.1 0.15,0.38 0.42,0.17 0.1,0.1 0.3,0.66 0.04,0.04 0.17,-0.04 0.15,0.08 0.04,0.27 1.35,0.31 0.07,0.14 0.03,0.31 0.15,0.06 0.13,-0.06 0.4,0.43 0.14,0 0.04,0.17 0.34,0.11 0.04,0.2 0.19,0.11 0.14,-0.01 0.07,0.08 0.44,0.07 0.09,0.14 0.16,0.03 0.06,0.22 0.46,0.01 0.16,-0.07 0.1,0.18 0.26,-0.04 0.15,0.06 0.4,0.61 0.19,0.04 0.16,0.15 -0.03,0.48 -0.05,0.1 -0.29,0.2 -0.06,0.18 0.11,0.22 0,0.33 0.29,0.33 0.13,0.33 -0.13,0.15 -0.14,-0.06 0,0.14 -0.13,-0.04 -0.15,0.07 -0.26,0.27 0.05,0.15 -0.07,0.1 -0.15,0.03 -0.16,0.2 0.1,0.14 -0.09,0.1 0.05,0.14 -0.1,0.29 0.11,0.1 0.14,0.07 0.04,0.47 -0.05,0.46 -0.03,0.17 0.06,0.96 -0.13,0.04 -0.06,0.11 0.04,0.45 0.09,0 0.1,0.11 -0.01,0.28 0.05,0.08 0.13,0.06 0.2,-0.03 0.14,0.03 -0.01,0.13 0.21,0.03 0.05,0.14 0.19,0.1 0.04,0.25 0.31,0.15 0.06,0 0.01,-0.07 0.24,0.01 0.05,0.11 0.12,0.08 0.11,0.06 0.16,-0.04 0.19,0.06 0.54,0.6 0.04,0.18 0.15,0.08 0.09,0.33 0.14,0.14 0.02,0.18 -0.09,0.14 0.07,0.13 -0.4,-0.18 -0.12,0 -0.31,0.28 -0.05,0.18 0.01,0.32 0.19,0.31 0.33,0.36 0.07,0.17 0.28,0.26 0.27,0.11 0.01,0.15 0.08,0.04 -0.08,0.26 -0.45,0.17 -0.07,0.13 0.31,0.26 0.29,0.08 0.09,-0.03 0.1,0.21 0.19,0.06 0.22,0.66 -0.22,0.08 0.04,0.03 0.22,0.03 0.55,1.67 0.23,0.06 0.39,0.58 0.26,0.14 0.33,0.82 -0.1,0.13 0.17,0.11 0.14,0.26 0.18,-0.1 -0.01,-0.14 0.11,-0.01 0.06,-0.15 0.26,-0.13 0.31,-0.08 0.29,0.07 -0.36,0.89 0.01,0.29 0.39,0.81 0.31,0.19 -0.01,0.33 -0.09,0.22 -0.19,0.13 -0.09,-0.06 -0.17,0.06 -0.17,-0.11 -0.1,0.03 -0.2,-0.29 -0.02,-0.17 -0.25,-0.08 -0.15,-0.28 -0.26,-0.04 -0.22,0.2 -0.35,0.83 -0.05,0.32 -0.29,0.14 -0.15,0.26 -0.02,0.17 0.09,0.4 0.05,0.1 0.13,0.04 0.06,0.28 -0.21,0.54 -0.34,0.22 -0.08,0.15 0.15,0.15 -0.04,0.38 0.22,0.64 0.2,0.1 0.13,0.21 0,0.07 -0.14,0.08 0.05,0.26 0.32,0.04 -0.3,0.32 -0.11,-0.03 -0.1,0.1 0.04,0.14 -0.04,0.15 -0.1,0.08 0,0.13 0.14,0.07 -0.07,0.15 -0.09,-0.13 -0.06,0.04 0.04,0.15 -0.16,0.28 0.07,0.49 -0.05,0.45 0.04,0.11 0.1,0.04 -0.04,0.24 -0.19,0.32 -0.01,0.29 -0.13,0.18 0.15,0.25 -0.03,0.28 0.17,0.21 0.15,0.07 0.06,0.31 0.06,0.13 0.07,0.1 0.49,0.15 0.22,0.17 0.39,0.08 -0.09,-0.19 0.05,-0.03 0.1,0.19 0.36,0.32 0.02,0.14 0.4,0.06 0.27,0.14 0,0.18 -0.01,0.13 0.2,0.15 0,0.14 0.15,0.1 0.4,0.08 0.04,0.14 0.1,0 0.13,0.17 0.09,0 -0.01,0.69 0.36,0.49 0.12,0.28 0.09,0.33 -0.11,0.15 0.22,0.01 0.09,0.11 -0.09,0.33 0.15,0.28 -0.11,0.06 0,0.07 0.19,-0.03 0.08,0.14 0.04,0.08 0.19,0.25 0.24,0.18 0.11,0.54 0.27,0.17 0.15,0.18 0.14,0.36 0.11,-0.01 0.02,0.13 0.07,0.07 -0.04,0.17 -0.2,0.07 0,0.07 0.2,0 0.07,0.07 -0.01,0.4 0.31,0.63 0.1,0.36 0.01,0.71 0.1,0.26 0.04,0.11 0.17,0.25 0.07,0.22 0.31,0.24 0.2,0.67 0.16,0.13 -0.08,0.15 0.16,0.3 0.09,0.49 0.74,0.46 0.02,0.11 0.11,0.04 0.01,0.08 -0.08,0.01 0.04,0.22 0.26,0.21 -0.01,0.24 0.06,0.15 0.55,0.6 0.06,0.29 0.26,0.17 0.03,0.28 0.22,0.29 0.34,0.11 0.26,0.41 0.14,0.07 0.16,0.4 0.16,0.14 0.05,0.37 0.17,0.37 -0.14,0.58 0.07,0.64 0.31,0.62 0.39,0.33 0.09,0.17 -0.02,0.08 0.09,0.14 -0.19,0.15 -0.03,0.11 0.27,0.17 0.01,0.11 0.09,0.01 0.11,0.25 0.2,1.41 0.77,1.29 0.21,0.18 0.15,0.65 0.06,0.07 0,0.23 0.42,0.29 0.17,0.29 0.29,0.15 0.13,0.24 0.09,0.61 0.19,0.28 0.36,0.3 0.2,0.04 0.11,0.11 0,0.13 0.09,0.1 -0.09,0.26 0.04,0.24 -0.08,-0.07 -0.1,0.01 -0.06,0.21 0.15,0.19 0.24,0.01 0.38,0.28 0.21,0.28 0.21,0.72 0.14,0.03 0.08,0.14 0.12,0.57 0.01,0.39 0.41,1.08 0.24,0.62 0.42,0.69 0.08,0.47 0.14,0.25 0.3,0.39 0.81,0.37 0.08,0.12 0.24,0.11 0.31,0.81 -0.26,0.12 0.19,0.1 0.05,0.18 0.36,-0.17 0.15,0.03 0.05,0.07 -0.05,0.1 0.09,0.07 -0.05,0.25 0.09,0.12 -0.03,0.08 0.2,-0.01 0.29,0.65 0.02,0.22 0.21,0.36 -0.06,0.43 0.09,0.63 0.15,0.1 0.08,0.21 0.2,0.21 -0.02,0.18 -0.24,-0.07 -0.11,0.1 0.03,0.13 0.19,-0.03 0.01,-0.05 0.09,0.03 0.27,0.87 0.11,0.14 0.16,0 0.1,0.22 -0.14,0.19 0.26,0 0.26,0.17 0.63,-0.03 0.49,0.34 0.25,0.51 0.03,0.23 0.27,0.58 0.16,0.21 0,0.25 0.15,0.23 -0.1,0.11 0.01,0.11 0.19,-0.15 0.11,0 0.44,0.55 0.35,0.06 0.11,0.14 0.17,0.08 0.33,0.55 0.36,0.32 0.19,0.03 0.15,0.14 0.06,0.12 -0.09,0.06 -0.01,0.14 0.25,0.23 -0.03,0.18 0.1,0.36 -0.24,0.26 -0.02,0.15 0.2,-0.1 0.14,0.04 0.29,0.77 0.47,0.14 0.05,0.21 -0.05,0.43 0.09,0.07 -0.19,0.28 -0.04,0.18 0.05,0.1 0.17,-0.01 0.01,0.32 0.19,0.15 0.46,0.17 0.06,0.08 -0.02,0.11 -0.11,0.08 0,0.18 0.04,0.21 0.15,0.25 0.07,0.54 0.16,0.15 -0.05,0.21 0.16,0.25 0.09,0 0.08,0.1 0.17,0.44 1.06,0.83 0.17,0.33 0.42,0.5 0.05,0.65 0.16,0.34 -0.01,0.45 -0.08,0.18 0.1,0.08 0.05,0.37 -0.09,0.15 0.01,0.05 0.1,0.1 0.13,0.43 0.27,0.3 -0.13,0.23 0.11,0.19 0.36,0.1 0.2,0.14 0.34,0.55 0.21,0.21 -0.04,0.34 0.14,0.3 -0.05,0.47 0.21,0.28 0.14,0.34 0.13,-0.03 0.1,0.07 0.06,0.29 -0.05,0.15 0.04,0.3 0.05,0.07 0.1,0 0.02,0.1 -0.02,0.07 -0.08,0 0.04,0.73 0.36,0.84 0.11,0.01 0.66,0.84 0.38,0.29 0.24,0.33 0.41,1.15 -0.06,0.01 -0.01,0.19 -0.13,0.21 0.21,0.03 0.09,0.4 0.12,0.03 -0.14,0.58 0.2,0.55 0.22,0.36 0.15,-0.01 0.11,0.07 0.79,0.93 0.66,1.04 0.04,0.32 0.21,0.21 -0.06,0.17 0.01,0.33 0.27,0.44 0.14,0.51 0.15,0.1 0.17,0.29 -0.01,0.11 -0.24,0.22 0.22,-0.11 0.15,0 0.17,0.23 0.11,0.33 0.3,0.21 0.21,0.29 0.15,0.05 0.36,0.34 0.02,0.16 0.2,0.22 0.25,0.59 -0.04,0.14 0.05,0.21 0.35,0.44 0.13,0.33 0.11,0.1 0.25,0.47 -0.01,0.42 0.34,0.67 -0.04,0.42 0.1,0.05 0.06,0.21 0.34,0.44 0.26,0.07 0.05,0.18 0.14,0.12 -0.05,0.11 0.14,0.19 0.01,0.29 0.51,0.86 0.06,0.59 0.4,0.34 0.1,0.36 0.2,0.27 0.57,0.45 0.01,0.42 0.12,0.42 -0.35,0.53 -0.17,0.47 0.02,0.23 0.15,0.11 -0.08,0.07 0,0.14 0.14,-0.04 0.06,0.29 0.09,0.01 0.04,0.12 0.06,0.01 0.08,0.16 0.22,0.15 0.32,0.3 0.1,0.21 0.14,-0.05 0.06,0.07 0.08,0.4 0.16,0.34 0.19,0.18 0.1,0.25 0.38,0.33 0.04,0.38 -0.11,0.22 0.11,0.44 -0.02,0.51 0.35,0.25 -0.08,0.97 0.1,0.71 0.21,0.14 0.1,0.27 0.17,0.12 0.01,0.08 0.41,0.45 0.5,0.3 0.11,0.16 0.36,0.27 0.27,0.4 0.1,0.41 0.19,0 0.11,0.1 0.46,0.6 0.06,0.18 0.06,0.05 0.22,0 0.17,0.42 0.2,0.23 0.02,0.31 0.42,1.03 -0.03,0.51 -0.1,0.3 -0.14,0.19 0.04,0.11 -0.13,0.44 0.09,0.05 -0.01,0.07 0.29,0.52 0.37,0.12 0.4,-0.03 0.11,0.11 -0.03,0.16 -0.22,0.12 -0.19,0.6 -0.01,0.26 0.05,0.31 0.3,0.11 0.04,0.15 0.51,0.52 0,0.12 -0.32,0.29 0.01,0.1 0.26,0.07 -0.08,-0.14 0.05,-0.1 0.59,0.02 0.2,0.23 0.11,0.71 0.32,0.64 0.16,0.07 0.17,0.22 0.13,0 0.14,0.14 0.24,0.08 0.15,0.16 0.02,0.3 -0.26,-0.05 -0.1,0.15 -0.33,0.08 -0.21,0.19 0.14,0.72 -0.19,0.3 -0.17,0.08 -0.21,0.22 -0.08,0.3 0.04,0.22 0.21,0.33 0.51,0.33 0.15,0.23 0.15,0.05 0.16,0.31 0.29,0.29 0.07,0.05 0.57,0.04 0.46,0.35 0.09,0.15 0,0.26 0.07,0.15 0.1,0.14 0.21,0.04 0.07,0.08 0,0.15 0.06,0.01 -0.17,0.27 -0.07,-0.01 0,0.07 0.29,0.22 0.06,0.27 0.21,0.18 0.24,0.46 0.11,0.46 0.46,0.65 0.59,0.44 0.64,0.14 0.05,0.41 0.17,0.27 0.41,0.22 0.13,0.14 0.5,0.16 0.09,0.16 0.3,0.18 0.25,-0.03 0.19,0.05 0.02,-0.08 -0.09,-0.01 0.02,-0.11 0.61,0.07 0.01,0.42 -0.05,0.01 0.19,0.26 0.11,0.49 0.16,0.04 0.06,0.16 0.16,0.03 0.35,0.48 0.15,0.09 0.06,0 0,-0.09 0.15,0.01 0.3,0.19 0.15,0.23 0.17,0.03 0.08,0.29 -0.11,0.04 0.29,0.53 0.72,0.79 0.15,0.26 0.11,0.04 0.57,0.78 0.5,0.84 0.08,0.73 0.3,0.1 0.05,0.16 0.11,0.11 -0.08,0.2 0.3,0.25 0,0.08 -0.19,0.12 -0.12,0.34 0.05,0.16 0.16,0.19 0.04,0.2 0.09,0.01 0.16,0.27 0.25,0.23 -0.01,0.08 0.24,0.45 0.25,0.14 0.11,0.2 0.17,0.04 0.08,0.23 0.25,0.19 0.04,0.11 0.14,0 0.13,0.11 0.04,0.15 0.3,0.14 0.19,0.12 0.03,0.14 0.15,0.03 0.24,0.18 0.02,0.07 -0.07,0 -0.11,0.16 0.13,0.27 -0.07,0.14 0.09,0.11 0,0.14 0.26,0.18 0.14,-0.04 0.25,0.04 0.22,-0.14 0.02,-0.22 -0.14,-0.12 -0.09,-0.42 -0.2,-0.11 -0.24,-0.25 -0.19,-0.11 -0.15,0.05 -0.13,-0.15 0.74,-0.14 0.26,0.37 0.14,0.07 0.04,0.18 0.16,0.05 0.26,0.31 0.11,0 0.15,0.18 0.69,0.01 0.31,0.3 0.19,-0.01 0.18,0.09 0.16,0.29 0.5,0.24 0.42,0.48 0.02,0.19 0.21,0.16 0.06,0.37 0.24,0.34 0.06,0.38 0.13,0.3 -0.03,0.48 0.1,0.27 -0.09,0.3 0.06,0.29 -0.13,0.14 0.01,0.2 0.11,0.07 0.5,0.07 0.46,0.31 0.15,0.01 0.16,0.2 0.19,-0.03 0.11,0.14 0.3,-0.01 0.41,-0.19 0.7,-0.03 0.39,0.22 0.39,-0.01 0.4,0.12 0.56,0.16 1.15,0.57 0.72,0.48 0.15,0.2 0.13,0.04 0.21,0.23 0.29,0.44 -0.06,0.15 0.21,0.25 0.06,0.23 -0.01,0.3 0.11,0.24 0.05,0.35 0.31,0.3 0.09,0.23 0.37,0.15 0.14,0.15 0,0.37 -0.1,0.3 -0.07,0.01 -0.15,-0.49 -0.21,-0.25 -0.19,-0.11 -0.49,-0.96 -0.3,-0.22 -0.47,-0.14 -0.29,-0.01 -0.11,0.14 -0.26,0.12 -0.05,0.09 -0.24,0 -0.22,-0.04 -0.27,0.22 -0.16,0.23 -0.55,0.23 -0.37,0.41 -0.16,0.03 -0.57,-0.1 -0.14,-0.22 -1.11,-0.43 -0.3,-0.29 -0.49,0.12 -0.99,0.08 -0.94,-0.27 -0.19,-0.16 -0.06,-0.18 -0.24,-0.07 0.01,-0.18 -0.18,-0.18 -0.07,-0.19 -0.17,-0.08 -0.04,-0.11 -0.16,-0.05 -0.6,0.11 -0.67,0.43 -0.5,0.22 -0.04,-0.05 0.06,-0.08 0.31,-0.16 0.15,-0.16 0.3,-0.08 0.44,-0.24 0.3,-0.04 0.09,-0.09 -0.09,-0.15 -0.22,-0.14 -0.19,-0.03 -0.21,-0.19 -0.44,-0.12 -0.16,0.01 -0.55,-0.27 -0.34,-0.04 -0.4,0.08 -0.23,0.18 0.05,0.2 -0.05,0.05 0.13,0.16 -0.09,0.11 0.01,0.14 -0.01,0.11 -0.03,0.14 0.19,0.04 0.03,0.26 -0.11,0 -0.21,-0.04 -0.07,0.3 0.04,0.05 -0.14,0.05 0.03,0.1 -0.09,0.18 -0.12,0.01 -0.03,0.15 -0.09,-0.04 -0.13,0.29 -0.13,-0.01 -0.13,-0.33 -0.13,0.11 0.09,0.11 -0.1,0.16 0.34,0.23 -0.04,0.18 -0.12,0.07 0.16,0.12 -0.04,0.16 0.14,-0.04 -0.01,0.11 -0.08,0.04 0.04,0.12 0,0.12 0.11,0.18 -0.13,0.18 0.06,0.38 -0.08,0.24 0.08,0.23 -0.08,0.04 -0.02,0.34 0.14,0.2 0.1,0.33 0.09,-0.01 0.01,-0.56 -0.1,-0.29 0.07,-0.05 0.08,0.07 0.04,0.23 0.03,0.52 -0.21,0.54 -0.06,0.03 -0.14,-0.12 0,0.3 -0.15,0.05 0,0.27 0.11,0.29 0,0.35 0.06,0.18 -0.05,0.14 0.05,0.11 -0.13,0.09 -0.03,0.12 -0.1,0.01 -0.13,0.37 -0.05,0.62 0.08,0.23 0.11,0.04 -0.11,0.27 0.25,0.15 0.08,0.19 -0.01,0.19 0.1,0.15 0.35,0.11 0.1,-0.1 -0.08,-0.16 0.08,-0.03 0.21,-0.56 0.22,-0.11 0.29,0.04 0.24,0.69 -0.1,0.34 0.02,0.41 -0.22,0.22 -0.13,0.01 -0.01,-0.28 0.09,-0.3 -0.11,-0.07 -0.24,0.03 -0.1,0.14 0.09,0.09 -0.51,-0.01 -0.11,0.12 0.01,0.12 0.15,0.22 0.25,0.08 0.01,0.12 0.34,0.16 -0.04,0.31 0.14,0.57 -0.03,0.16 0.16,0.37 -0.06,0.15 0.09,0.27 -0.06,0.35 0.03,0.6 0.14,-0.09 0.14,0.2 -0.22,0.76 -0.03,1.31 0.08,0.41 -0.32,0.01 0,-0.08 -0.19,-0.19 -0.16,-0.64 -0.2,0.07 -0.12,0.2 0.09,0.31 -0.11,0.18 0.08,0.04 0.04,0.14 0,0.33 0.11,0.09 0.09,-0.01 -0.01,-0.33 -0.06,-0.09 0.21,0.08 0.04,0.6 0.2,0.72 -0.06,0.26 0.09,0.1 0,0.2 0.29,0.2 0.01,0.13 -0.06,0.11 -0.15,1.18 -0.1,0.22 0,0.43 -0.16,0.3 0.04,0.11 0.11,-0.18 0.04,0.22 -0.5,0.91 0.01,0.26 -0.09,0.01 0,-0.24 -0.12,0.16 0.01,0.14 0.21,0.01 -0.08,0.26 -0.29,0.14 -0.09,-0.04 -0.01,0.07 0.16,0.41 0.08,-0.07 -0.06,-0.18 0.12,0.07 0.08,0.66 0.14,0.42 0.04,0.42 0.45,0.3 -0.05,0.08 0.22,0.16 -0.01,0.12 0.08,0.13 0.08,0.07 0.15,-0.01 0.17,0.37 0.34,0.43 0.29,0.24 0.05,0.28 0.33,0.79 -0.09,0.24 0.16,0.26 0.13,0.04 -0.08,0.24 0.09,0.19 0.03,0.34 0.1,0.03 -0.08,0.15 0.16,0.3 0.05,-0.2 0.11,0.16 0.06,0.37 -0.1,1.51 0.1,0.35 -0.11,0.08 -0.05,0.38 0.16,0.65 0.04,0.69 0.19,0.08 0.05,0.27 0.44,0.99 -0.15,0.69 0.01,0.24 0.14,0.34 -0.01,0.97 0.25,0.11 0.31,0.32 0.26,0.08 0.01,0.27 0.17,0.36 0.1,0.46 0.72,0.77 0.13,0.5 0.17,-0.01 -0.04,0.18 0.2,0.27 -16.2,15.3 0,0 -2.18,2.06 -10.54,-3.13 -1.18,-0.28 -11.66,27.08 -5.51,1.02 -1.01,0.11 -0.1,0.08 -1.37,0.25 -0.79,0.08 -0.33,0.11 -4.12,0.76 -0.97,0.12 -0.26,0.09 -9.41,1.76 -3.3,9.78 0,0 -41.37,-0.09 0,0 -28.08,0.09 -19.54,0.03 -0.9,-0.04 -2.85,0.07 -3.62,-0.17 -2.62,0.04 -0.51,-0.05 -15.54,-0.05 0.53,-2.3 0.65,-2.36 0,0 8.11,-2.75 2.75,-1.44 1.96,-1.96 1.44,-3.14 4.27,0.68 2.71,-1.17 1.39,-1.73 1.05,-1.96 1.18,-2.88 0.39,-2.36 1.18,-4.45 2.75,-0.65 2.11,1.33 1.46,1.9 2.35,2.28 0,0 3.44,1.52 2.94,-0.88 0,0 2.62,-0.79 3.14,-2.75 3.72,-2.45 2.73,-1.59 2.31,-2.58 1.18,-3.41 -0.26,-5.54 2.99,-1.64 0,0 3.16,-0.32 2.62,1.83 1.83,1.18 2.57,0.77 0,0 2.88,-0.43 1.46,1.92 2.76,2.94 2.71,0.4 1.19,-2.02 0,0 -0.21,-3.31 -2.23,-3.52 0,0 -3.32,-2.34 -1.02,-0.98 0,0 0,0 0,0 -3.02,-0.25 -2.48,-2.47 -0.98,-0.85 0.07,-1.2 1.31,-1.41 1.24,-2.05 1.11,-1.34 1.57,-1.63 1.05,-2.05 0.65,-2.19 0.78,-1.13 0.24,-1.37 -0.78,-1.46 -0.83,-1.91 0,0 0,0 0,0 -1.57,-0.36 -0.98,-3.4 -0.07,-2.34 0.39,-2.2 0.59,-0.99 0.72,-0.73 0,0 0,0 0,0 0.16,-1.84 0,0 0,0 0,0 -1.07,-0.41 -0.2,-4.53 -1.44,-1.63 -1.63,-0.92 -0.98,-1.78 -0.33,-1.42 -0.2,-1.85 -1.18,-2.13 -0.92,-1.14 -0.33,-2.99 -0.78,-1.85 0,-6.03 0,0 0,0 0,0 1.02,-3.55 0.13,-2.37 1.99,-2.97 3.19,-2.65 0.39,-4.01 -0.23,-1.56 -3.06,-5.11 -1.91,-4.52 -0.15,-9.58 0,0 0.09,0.21 -0.09,-0.21 0,0 -0.46,-3.34 -3.3,-5.5 0,0 0,0 0,0 -4.34,-3.02 -1.83,-1.77 -2.39,-1.49 0,0 -2.62,-2.38 0,0 -1.55,-2.46 -0.8,-2.53 0,-5.38 0.8,-1.83 1.72,-1.83 1.89,-3.1 5.77,-3.76 1.97,-3.15 1.74,-5.5 0,0 0.19,-1.09 -0.03,-3.62 0,0 -0.35,-3.43 0,0 0,0 0,0 -1.13,-2.48 -0.62,-2.18 -1.43,-2.29 -3.39,-2.29 -4.48,-0.96 -6.08,0.06 -2.47,0.83 -2.93,2.04 -2.07,1.53 -1.43,0.76 -1.69,0.12 0,0 -1.96,-0.88 0.19,-1.64 -0.34,-0.13 -2.05,-2.8 -1.04,-2.59 -1.81,-1.33 -4.03,-1.21 -2.73,-1.72 -0.81,-0.85 -1.16,-1.77 -1.21,-3.6 -0.43,-2.98 0,0 0,0 0,0 -1.64,-0.53 -0.98,-1.28 -0.46,-1.6 -2.01,-2.56 -5.82,-4.86 -2.58,-0.95 0,0 0,0 0,0 -0.5,-0.33 0,0 -0.52,-2.5 -1.49,-3.84 -2.3,-3.78 -1.4,-3.08 0,0 -1.29,-0.91 -2.56,-2.17 0,0 -2.84,-2.18 0,0 0,0 0,0 -1.37,-4.42 -1.34,-0.75 -2.09,-1.05 -1.15,-0.1 -3.89,-1.52 -1.39,-1.07 -3.4,-1.19 -0.94,-0.46 -1.48,-1.75 -0.61,-1.56 -0.58,-4.71 0.67,-3.39 0,0 0.37,-3.35 -0.25,-4.74 -1.12,-3.63 -0.5,-5.87 -3.35,-7.7 -0.62,-6.03 -0.12,-2.24 0.75,-2.81 1.24,-2.25 1.12,-1.83 1.17,-1.71 0.04,-2.48 0,0 0.07,-4.29 1.28,-3.71 0,0 0.46,-1.62 0,0 0,0 0,0 -3.73,-0.5 0,0 2.75,-0.89 0.62,-3.66 2.98,-5.08 2.11,-0.85 1.37,-2.12 0.87,-1.69 1.49,-2.12 2.23,-2.83 0.75,-0.71 0.12,-3.25 1.74,-1.42 0.12,-3.11 0.12,-1.42 0,0 2.7,2.52 2.04,2.11 3.12,4.75 3.34,2.34 0,0 0,0 z" 
                fill="rgb(151, 144, 238)" 
                stroke="white" 
                stroke-width=".7px"
                title="Al Baḩr al Aḩmar" 
                id="EG-BA" 
            />
        </svg>