<svg xmlns="http://www.w3.org/2000/svg" viewBox="222.17970999999994 9.95179999999999 55.460000000000036 83.58999999999999" width="55.460000000000036" height="83.58999999999999">
            <path 
                d="m 256.09971,9.9518 0.1,0.17 -0.04,0.06 -0.3,-0.07 -0.13,0.09 -0.34,0.04 -0.08,0.07 -0.07,0.57 0.01,0.06 0.16,0.06 0.01,0.1 0.14,0 0.06,-0.09 -0.06,-0.1 0.16,-0.17 0.22,-0.03 0.41,0.23 0.06,0.1 0.16,0.01 0.01,-0.1 -0.13,-0.09 -0.05,-0.19 -0.16,-0.16 0.02,-0.06 0.45,0.51 0.39,0.1 0.04,-0.06 -0.11,-0.06 -0.01,-0.09 -0.25,-0.13 0.04,-0.13 -0.26,-0.22 -0.04,0.07 -0.06,-0.04 0.03,-0.09 0.06,0 0.32,0.07 0.03,0.12 0.5,-0.12 0.02,0.1 0.42,0.13 0.24,0.23 0.41,0.09 0.93,0.42 0.41,4.9 2.79,3.22 0,6.9 3.66,-0.35 5.37,5.06 0,0 -0.01,2.83 0.78,0.45 0.78,0.75 -0.13,2.63 0.84,0.3 0,2.63 -0.58,0.68 0.97,0.45 0.39,0.45 0.06,0.68 0.78,0.9 -0.52,0.9 -0.84,0.83 0,1.65 0.65,0.23 -0.13,1.65 -0.32,1.13 0.32,1.28 0.88,-0.11 0,0 -0.26,4.66 0.13,0.4 1.07,0.07 -0.46,1.82 1.18,0.88 -0.26,1.73 0.58,1.54 0.1,4.03 -0.08,1.85 0,0 0,0 0,0 -1.39,0.16 -0.14,1.82 0,0 -6.92,7.08 -2.66,0.35 -7.4,7.47 0,0 -4.74,6.53 -0.74,1.31 -0.75,0.45 -1.55,-3.11 0,0 -1.68,-1.06 -2.83,-0.55 -7.56,-5.6 -1.96,-0.96 -6.37,-5.04 -4.26,-0.14 0,0 -3.16,-1.54 -1.27,-2.03 0,0 0,-5.72 0,0 1.43,-4.22 1.42,-2.08 1.79,-0.26 0,0 0,0 0,0 3.9,-1.27 4.91,-2.33 5.06,-7.56 -5.62,-6.44 -2.28,-3.74 1.17,-2.09 0,0 0.7,-2.76 -2.3,-2.03 3.2,-2.64 0,0 4.56,-2.63 1.19,-3.14 1.11,-1.81 0.02,-2.23 0,0 0.41,0.16 1.09,0.17 0.09,0.17 0.82,-0.06 0.13,0.07 0.29,0.03 0.05,-0.13 0.15,-0.03 -0.08,0.09 0.14,0 0.07,0.12 0.1,0 0.06,-0.12 0.06,0.22 0.29,-0.13 0.33,-0.03 0.05,0.13 0.04,-0.2 0.7,-0.09 0.02,-0.07 1.1,-0.41 1.24,-0.67 0.21,-0.26 0.61,-0.41 1.04,-0.96 0.35,-0.41 0.06,-0.2 0.16,-0.06 0.04,-0.15 0.16,-0.13 0.04,-0.15 0.21,-0.22 0.29,-0.51 -0.01,-0.12 0.08,-0.03 0.08,-0.23 0.16,-0.2 0.11,-0.36 0.34,-0.64 0.05,-0.29 0.19,-0.32 0.27,-0.76 0,-0.15 0.1,-0.14 0.29,-1.09 0.14,-0.33 0.09,-0.07 -0.04,-0.09 0.1,-0.5 0.05,-0.16 0.14,-0.15 -0.03,-0.07 0.46,-0.48 0.77,-0.19 z" 
                fill="rgb(151, 144, 238)" 
                stroke="white" 
                stroke-width=".7px"
                title="Al Buḩayrah" 
                id="EG-BH" 
            />
        </svg>