<svg xmlns="http://www.w3.org/2000/svg" viewBox="231.26971 99.94180000000001 58.059999999999974 40.489999999999995" width="58.059999999999974" height="40.489999999999995">
            <path 
                d="m 231.26971,134.1018 6.34,-7.21 2.11,-1 6.95,-8.21 1.49,-0.14 6.2,-7.1 3.73,-0.99 3.97,-2.56 3.97,-2.7 1.62,-0.28 2.51,-1.51 1.45,-1.24 0.13,-1.09 14,-0.13 -0.18,1.4 -0.1,2.78 0.77,0.96 1.33,2.8 0.77,5.03 0.76,3.43 0,0 0.24,1.57 0,0 -2.82,2.04 -3.47,5.24 -5.66,8.87 -22.49,6.28 -1.43,0.09 -1,-0.4 0.17,-1.69 -2.11,-1.13 -10.68,-1.98 -5.71,-0.71 z" 
                fill="rgb(151, 144, 238)" 
                stroke="white" 
                stroke-width=".7px"
                title="Al Fayyūm" 
                id="EG-FYM" 
            />
        </svg>