<svg xmlns="http://www.w3.org/2000/svg" viewBox="271.65970999999996 28.401799999999994 26.630000000000166 27.290000000000006" width="26.630000000000166" height="27.290000000000006">
            <path 
                d="m 288.18971,52.9018 -0.47,-1.21 -4.43,0.05 -0.38,-0.81 -1.16,-0.05 -0.07,-0.9 -2.42,0 -0.15,0.99 -3.52,0.44 0,0 -0.88,0.11 -0.33,-1.27 0.33,-1.13 0.12,-1.65 -0.64,-0.23 0,-1.65 0.84,-0.83 0.52,-0.9 -0.78,-0.9 -0.06,-0.68 -0.39,-0.45 -0.98,-0.45 0.59,-0.68 0,-2.63 -0.85,-0.3 0.13,-2.63 -0.77,-0.76 -0.78,-0.45 0.01,-2.82 0,0 0.56,0.52 1.92,3.49 1.23,0.01 0,0 0.3,1.05 4.67,0 0.16,-1.01 0.23,-0.89 5.22,0.09 0,-5.61 0.95,0.07 5.2,-0.43 0,0 1.5,0.07 1.21,-0.03 0.1,3.08 0,0 -0.63,1.07 -0.32,1.53 0.23,0.11 1.91,-0.13 2.18,-0.28 -0.97,2.36 -0.78,0.45 -1.01,1.17 -0.31,2.26 -0.62,2.71 -0.24,2.52 0.31,3.34 0.98,1.05 -0.09,1.01 0.67,0.28 0.13,3.45 -1.24,1.27 0,0 -3.78,-1.74 0,0 -3.09,-0.02 -0.06,-1.03 0,0 z" 
                fill="rgb(151, 144, 238)" 
                stroke="white" 
                stroke-width=".7px"
                title="Al Gharbīyah" 
                id="EG-GH" 
            />
        </svg>