<svg xmlns="http://www.w3.org/2000/svg" viewBox="221.27971000000008 17.931799999999978 21.16999999999996 49.860000000000014" width="21.16999999999996" height="49.860000000000014">
            <path 
                d="m 242.07971,17.9318 0,0.09 0.1,0.06 -0.02,0.07 -0.06,0 -0.04,-0.12 -0.08,0 -0.21,0.16 0.02,0.15 0.13,0.03 -0.1,0.17 0.11,0.06 -0.26,0.06 0.01,0.09 0.11,0.07 -0.09,0.28 0.21,0.29 -0.01,0.22 0.12,0.21 0.26,0.16 0.05,0.48 0.12,0.1 0,0 -0.02,2.23 -1.11,1.81 0,0 0,0 0,0 -1.19,3.14 -4.56,2.63 0,0 -3.2,2.64 2.3,2.03 -0.7,2.76 0,0 -1.17,2.09 2.28,3.74 5.62,6.44 -5.06,7.56 -4.91,2.33 -3.9,1.27 -1.79,0.26 -1.42,2.08 -1.43,4.22 0,0 -0.91,-30.57 0.02,-3.08 0,0 0.18,-0.12 0.1,-0.17 0.3,-0.07 0.11,-0.17 0.22,-0.09 0.8,-0.67 0.16,-0.04 0.37,-0.29 0.08,-0.25 0.06,0 0,0.06 0.11,-0.06 0.4,-0.39 0.39,-0.28 0.35,-0.42 0.67,-0.55 0.1,-0.01 0.06,-0.12 0.35,-0.12 0.54,-0.44 0.27,-0.1 0.15,-0.23 0.42,-0.28 0.05,-0.13 0.24,-0.07 0.03,-0.13 0.19,-0.1 0.57,-0.68 0.15,-0.36 -0.02,-0.26 0.17,-0.06 0.15,-0.16 0.21,-0.01 -0.11,0.16 -0.21,0.06 0.01,0.12 0.12,0 0.04,0.1 0.11,-0.06 0.1,-0.22 0.15,0.06 -0.02,0.15 -0.15,0.17 -0.05,0.26 0.09,-0.04 0.05,-0.19 0.19,-0.23 0.07,0.1 -0.04,0.31 0.25,0.03 0.06,-0.19 0.09,-0.04 0,0.36 0.26,-0.16 0.17,0.03 0.13,-0.15 0.14,-0.03 0.21,-0.17 0.14,-0.29 0.09,0.06 0.11,-0.06 0.21,-0.33 0.31,-0.17 0.17,-0.25 0.08,-0.45 0.11,0 0,0.13 0.07,-0.01 0.3,-0.28 -0.01,-0.09 0.06,-0.01 0.07,0.09 0.26,-0.39 -0.06,-0.15 -0.12,0.03 0.01,0.09 -0.07,0.03 -0.13,-0.17 0.21,-0.33 0.25,-0.17 -0.04,-0.06 -0.04,0.09 -0.05,-0.01 -0.09,-0.17 -0.15,0 -0.12,0.23 -0.09,0.04 -0.01,0.12 -0.2,-0.01 -0.05,0.22 -0.12,-0.1 0.06,0.2 -0.22,-0.15 0.47,-0.49 0.02,-0.12 -0.06,-0.06 0.26,-0.06 0.05,-0.12 0.39,-0.07 0,-0.17 -0.1,-0.15 0.11,-0.07 0.22,0.01 0.13,-0.12 0.05,0.07 -0.14,0.09 -0.02,0.19 0.17,0.26 0.2,0.12 0.37,-0.05 0.31,-0.39 -0.21,-0.26 0.16,0.01 0.24,0.22 0.35,-0.19 0.25,-0.26 0.41,-0.25 0.15,-0.22 0.22,-0.1 0.19,-0.28 0.15,0 0.05,-0.16 0.14,0.03 -0.02,-0.15 0.07,-0.09 0.24,0.01 0.11,-0.15 0.09,-0.01 0.05,-0.16 0.13,-0.03 0.05,-0.17 0.15,-0.17 0.21,-0.1 0.15,-0.23 0.26,-0.16 0.01,-0.13 -0.06,-0.09 0.06,-0.15 0.5,-0.03 0.19,-0.19 0.03,-0.2 0.26,-0.03 0.1,-0.22 -0.13,-0.16 0.06,-0.09 0.13,0.01 -0.01,-0.13 0.17,-0.03 0.21,0.17 0.04,-0.13 -0.12,0.03 -0.02,-0.06 0.1,-0.25 0.07,0.16 0.14,0.1 0.2,-0.01 0.32,-0.17 0.24,-0.31 0.01,-0.1 0.3,-0.32 -0.01,-0.13 -0.22,-0.16 0.19,-0.12 -0.03,-0.09 0.49,-0.13 0.27,-0.36 0.22,-0.09 0.02,-0.07 0.1,0.03 0.4,-0.1 z" 
                fill="rgb(151, 144, 238)" 
                stroke="white" 
                stroke-width=".7px"
                title="Al Iskandarīyah" 
                id="EG-ALX" 
            />
        </svg>