<svg xmlns="http://www.w3.org/2000/svg" viewBox="318.04971000000006 20.1918 46.370000000000005 55.849999999999994" width="46.370000000000005" height="55.849999999999994">
            <path 
                d="m 337.64971,29.5218 0.06,0.2 2.68,-0.49 0.72,-0.76 0.99,0.19 0.56,1.61 2.2,0.17 1.94,0.97 3.19,1.16 0,0 3,1.94 3.08,0.81 0,0 0.24,6.82 1.05,17.58 3.21,5.05 1.67,2.97 1.41,3.85 0.77,2.79 0,0 -5.74,-0.27 0,0 -4.61,0.52 -1.73,1.41 -6.14,-0.43 -2.64,-0.81 -18.62,0.11 -1.91,0.18 0,0 -0.03,-0.79 0,0 -1.38,-3.54 -0.28,-0.1 -0.02,-0.29 0,0 -1,-4.9 -0.42,-4.56 -1.68,-0.87 -0.17,-1.65 2.27,0.1 0.42,0.87 3.78,0.19 0.59,-0.87 5.04,-0.29 0.26,-0.94 4.74,-6.74 -0.08,-2.71 -0.91,-3.85 1.81,-4.11 0.23,-1.84 1.7,-0.05 -0.2,-5.64 -1.96,-0.09 -0.67,-1.21 0,0 -0.67,-0.86 -0.04,-0.29 0.29,-0.3 0.77,-0.4 -0.03,-0.31 -0.23,-0.25 0.03,-0.5 1.28,-0.01 -0.01,-1.85 0.4,-0.5 0.48,-0.04 0.23,0.39 0.03,0.68 0.14,0.43 -0.28,0.44 0.05,0.2 0.4,0.05 0.16,0.19 -0.08,0.6 -0.34,0.64 z m 1.99,-6.68 0.38,0.49 0.57,-0.33 -0.03,0.3 0.18,0.26 0.32,1.14 -0.14,0.37 -0.31,-0.18 -0.44,-0.06 -0.53,-0.38 -0.26,-0.06 -0.16,0.42 -0.42,0.28 -0.37,-0.44 -0.47,0.08 -0.52,-0.23 -0.56,0.27 -0.68,0.06 -0.31,-0.23 -0.13,-0.37 -0.53,-0.49 0.08,-0.35 0.48,0.08 0.02,-0.44 0.4,-0.15 1.93,0.05 0.39,0.3 0.43,-0.26 0.68,-0.13 z m -1.45,-2.65 0.06,0.09 0.15,0.04 0.56,0.09 0.36,0.13 0.37,0.03 0.27,0.16 0.64,0.01 0.4,0.17 0,0 -0.32,0.37 0,0 -0.53,-0.22 -1.01,-0.22 -1.1,-0.62 0.15,-0.03 z" 
                fill="rgb(151, 144, 238)" 
                stroke="white" 
                stroke-width=".7px"
                title="Al Ismāٰīlīyah" 
                id="EG-IS" 
            />
        </svg>