<svg xmlns="http://www.w3.org/2000/svg" viewBox="119.44970999999995 69.67180000000005 178.15000000000006 136.44000000000003" width="178.15000000000006" height="136.44000000000003">
            <path 
                d="m 294.59971,80.2218 0.16,5.75 -0.91,0.71 0.93,1.64 0.17,1.82 2.65,0.91 -0.1,7.68 -0.04,0.76 -1.22,0.14 -0.06,0.75 0.12,1.96 1.06,0.95 0,1.01 -0.11,0.95 -0.77,0.61 -0.18,1.14 -0.12,2.03 0,1.82 -0.53,0.81 -0.29,0.61 -0.06,1.62 -0.3,0.67 -0.76,0.54 -0.3,0.75 -0.18,1.48 0.21,1.52 0,0 -1.74,-0.4 0,0 -2.31,-0.97 -0.53,0.78 0,0 -0.3,-1.92 0,0 -0.76,-3.43 -0.77,-5.03 -1.33,-2.8 -0.77,-0.96 0.1,-2.78 0.18,-1.4 -14,0.13 -0.13,1.09 -1.45,1.24 -2.51,1.51 -1.62,0.28 -3.97,2.7 -3.97,2.56 -3.73,0.99 -6.2,7.1 -1.49,0.14 -6.95,8.21 -2.11,1 -6.34,7.21 0,0 -0.17,1.08 -0.07,-0.01 -1.18,4.97 -0.59,5.6 -0.39,3.14 -1.82,2.37 0,0 -1.14,4.34 -1.58,2.9 -1.18,3.35 -1.58,5.36 -1.18,5.57 -2.37,2.23 -2.56,2.01 -4.73,3.11 -3.75,3.34 -2.56,0.67 -2.57,2 -3.74,1.33 -4.14,3.11 -3.16,1.55 -5.32,1.12 -1.58,0.88 -1.58,1.11 -0.78,1.78 -0.4,2.22 -0.59,1.77 -0.99,2.21 -1.38,2.76 0,0 -56.78,0.14 0,0 -0.68,0 0,0 -1.28,0 0,0 20.39,-45.43 41.89,-10.06 32.28,-31.75 6.46,-8.29 6.62,-1.63 22.68,-15 3.07,-0.4 0,0 0.76,-0.45 0.73,-1.31 4.74,-6.52 0.89,0.04 -0.89,-0.04 0,0 7.4,-7.47 2.66,-0.35 6.92,-7.08 0,0 1.44,-0.12 0.68,-0.58 2.09,0.14 0.09,3.18 1.42,-0.07 0.91,0.89 0.07,1.8 0.9,0.89 1.63,0.3 0.8,-0.9 0.89,0.52 0,0 0.76,0.19 1.95,-0.66 0,-0.08 0,0 1.65,2.78 2.41,1.48 0,0 z" 
                fill="rgb(151, 144, 238)" 
                stroke="white" 
                stroke-width=".7px"
                title="Al Jīzah" 
                id="EG-GZ" 
            />
        </svg>