<svg xmlns="http://www.w3.org/2000/svg" viewBox="275.31971 49.9818 19.80000000000001 26.82" width="19.80000000000001" height="26.82">
            <path 
                d="m 283.28971,51.7418 0,0 0,0 4.43,-0.05 0.47,1.21 0,0 -0.17,-0.06 0.17,0.06 0,0 0.06,1.03 3.09,0.02 0,0 3.78,1.74 -0.41,4.63 0,0 -0.52,1.23 -2.41,1.84 0,0 -2.27,1.57 -1.28,2.66 0,0 0.4,1.88 0.88,1.74 0,0 0.17,4.71 -1.95,0.66 -0.76,-0.19 0,0 -0.89,-0.52 0,0 0,0 0,0 -0.8,0.9 -1.63,-0.3 -0.9,-0.89 -0.07,-1.8 -0.91,-0.89 -1.42,0.07 -0.09,-3.18 0,0 0,0 0,0 -2.09,-0.14 -0.68,0.58 -1.44,0.12 0,0 0.14,-1.83 1.38,-0.15 0.08,-1.85 -0.1,-4.03 -0.58,-1.54 0.26,-1.73 -1.17,-0.88 0.46,-1.81 -1.07,-0.08 -0.13,-0.4 0.27,-4.66 0,0 3.52,-0.44 0.15,-0.99 2.42,0 0.07,0.9 1.16,0.05 z" 
                fill="rgb(151, 144, 238)" 
                stroke="white" 
                stroke-width=".7px"
                title="Al Minūfīyah" 
                id="EG-MNF" 
            />
        </svg>