<svg xmlns="http://www.w3.org/2000/svg" viewBox="178.18971 149.65179999999995 103.84000000000009 59.33000000000001" width="103.84000000000009" height="59.33000000000001">
            <path 
                d="m 178.18971,205.9718 1.38,-2.76 0.99,-2.21 0.59,-1.77 0.4,-2.22 0.78,-1.78 1.58,-1.11 1.58,-0.88 5.32,-1.12 3.16,-1.55 4.14,-3.11 3.74,-1.33 2.57,-2 2.56,-0.67 3.75,-3.34 4.73,-3.11 2.56,-2.01 2.37,-2.23 1.18,-5.57 1.58,-5.36 1.18,-3.35 1.58,-2.9 1.14,-4.34 0,0 2.51,-0.23 8.49,-0.29 1.52,0.03 33.41,-1.11 2.43,1.41 2.89,2.01 0,0 3.73,0.5 -0.46,1.61 0,0 -1.29,3.72 -0.06,4.29 0,0 -0.04,2.48 -1.18,1.7 -1.11,1.83 -1.24,2.24 -0.75,2.81 0.13,2.24 0.62,6.03 3.35,7.69 0.49,5.87 1.12,3.63 0.25,4.75 -0.37,3.34 0,0 -2.78,-0.19 -1.56,1.37 -2.43,-0.39 -1.83,-0.49 -3.03,0 0,0 -0.09,-1.95 -90.13,-0.18 0,0 z" 
                fill="rgb(151, 144, 238)" 
                stroke="white" 
                stroke-width=".7px"
                title="Al MinyÄ" 
                id="EG-MN" 
            />
        </svg>