<svg xmlns="http://www.w3.org/2000/svg" viewBox="288.22971 55.81180000000001 19.069999999999936 24.609999999999978" width="19.069999999999936" height="24.609999999999978">
            <path 
                d="m 293.73971,80.1318 -2.41,-1.48 -1.65,-2.78 0,0 -0.17,-4.63 0,0 -0.88,-1.74 -0.4,-1.88 0,0 1.28,-2.66 2.27,-1.57 0,0 2.41,-1.84 0.52,-1.23 0,0 0.4,-4.51 0,0 0.91,0.59 1.07,1.79 1.17,0.07 0,0 -1.27,1.3 -0.08,2.48 -0.66,0.04 0,2.62 1.12,1.06 1.12,1.47 1.21,2.39 1.02,2.69 2.13,1.66 2.45,1.34 0.2,0.27 1.8,1.08 0,0 -4.51,0.3 -4.4,1.77 -1.86,1.69 0,0 z" 
                fill="rgb(151, 144, 238)" 
                stroke="white" 
                stroke-width=".7px"
                title="Al Qalyūbīyah" 
                id="EG-KB" 
            />
        </svg>