<svg xmlns="http://www.w3.org/2000/svg" viewBox="293.7597099999999 70.3618 32.56 69.27999999999999" width="32.56" height="69.27999999999999">
            <path 
                d="m 323.00971,74.2918 0.15,3.56 0,0 1.23,4.26 0.65,4.88 1.28,8.59 -0.04,4.35 -2.19,25.47 -0.78,14.24 0,0 -1.23,0 -6.48,-1.58 -4.48,-1.76 -4.44,-0.63 -3.24,-2.34 -3.12,-4.76 -2.04,-2.11 -2.7,-2.52 0,0 -0.13,-2.69 0,-1.65 -0.95,-0.63 0,0 -0.53,-0.12 0,0 -0.21,-1.52 0.18,-1.48 0.3,-0.75 0.76,-0.54 0.3,-0.67 0.06,-1.62 0.29,-0.61 0.53,-0.81 0,-1.82 0.12,-2.03 0.18,-1.14 0.77,-0.61 0.11,-0.95 0,-1.01 -1.06,-0.95 -0.12,-1.96 0.06,-0.75 1.22,-0.14 0.04,-0.76 0.1,-7.68 -2.65,-0.91 -0.17,-1.82 -0.93,-1.64 0.91,-0.71 -0.16,-5.75 0,0 1.93,0.2 0,0 1.86,-1.69 4.4,-1.77 4.51,-0.3 0,0 4.59,0 3.15,-1.9 6.29,-4.4 0,0 0.01,0.29 0.28,0.1 z" 
                fill="rgb(151, 144, 238)" 
                stroke="white" 
                stroke-width=".7px"
                title="Al QÄhirah" 
                id="EG-C" 
            />
        </svg>