<svg xmlns="http://www.w3.org/2000/svg" viewBox="13.819710999999918 205.9718 356.86999899999984 279.46000000000026" width="356.86999899999984" height="279.46000000000026">
            <path 
                d="m 179.63971,205.9718 90.13,0.18 0.09,1.95 0,0 -1.04,0.1 -0.09,2.24 0.78,0.78 0.17,1.94 1.03,0.47 0.45,2.55 0.95,2.04 1.39,1.85 0.52,2.14 1.13,1.65 1.39,0.78 3.94,3.85 2.11,1.88 0.99,0.53 2.16,0.24 1.65,0.39 2.69,1.55 1.71,2.81 1.8,3.71 1.84,4.29 2.24,3.71 0,0 0.52,1.83 2.52,3.26 3,3.46 2.51,0.47 2.01,1.53 1.09,1.87 2.13,3.05 1.95,2.93 2.21,2.84 0.14,0.27 1.07,1.24 2.32,3.47 2.87,3.76 1.44,1.59 0.9,0.38 1.62,2.35 0.81,0.99 0,0 2.41,2.93 0,0 4.86,4.24 1.6,0.63 4.82,-0.13 1.43,-0.44 2.07,-0.38 1.84,-0.13 1.89,-0.64 1.15,-0.7 4.19,-1.71 1.9,-1.4 2.58,-1.02 2.58,0.13 0.92,0.76 1.22,2.27 0.25,2.26 -1.33,1.97 -1.55,2.73 -0.51,1.58 0,2.67 -0.69,1.52 -1.67,1.97 -2.64,2.47 -2.64,1.14 -1.78,1.83 -0.92,2.03 -0.11,2.34 0.64,1.08 1.15,2.49 0.15,3.12 0.77,1.52 -0.19,1.55 0.42,2.99 1.22,3.2 1.26,0.97 2.46,2.19 2.44,1.2 0,0 3.49,1.62 2.68,2.52 1.6,2.01 0.39,1.85 -0.03,2.6 0.06,2.17 1.17,3.56 0.56,2.19 1.8,3.48 -0.56,3.32 0,2.88 -0.66,3.49 -0.75,3.48 -0.02,3.42 -0.59,4.2 0,2.96 -0.39,6.45 -3.74,3.91 -1.84,0.92 -1.28,0.49 -1.39,1.39 0.17,3.14 2.11,2.04 1.49,1.21 0.32,1.26 -2.12,1.72 -2.01,0.56 -2.19,0.91 -2.29,1.36 -1.56,1.02 -1.41,2.01 -1.71,5.93 -0.36,3.28 1.39,1.65 5.18,1.23 2.68,0.36 1.72,-0.39 2.07,-0.11 0.48,1.98 -0.3,0.96 -1.42,2.36 -1.69,2.53 -1.54,3.24 -1.32,2.27 -1.69,2.7 -1.25,2.8 -0.79,2.37 -1.23,2.18 -0.95,2.01 -1.7,3.32 -1.64,0.92 -1.5,-0.66 -1.94,-1.22 -2.57,-0.51 -2.59,-0.26 -0.98,-0.38 -5.49,1.62 -8.64,2.42 -2.26,0.74 -1.61,0.23 -2.05,-0.23 -2.77,0.02 -1.17,0.5 -1.47,1.74 -0.84,1.83 0.21,2.22 0,4.33 0.23,1.6 -0.48,1.58 -0.83,1.57 -1.92,2.16 -2.96,2.73 -4,-0.12 -3.01,0.91 -4.32,2.23 -0.78,2.75 1.51,2.22 2.67,-0.26 0,0 0.93,0.08 0.18,2.16 -0.41,0.9 -0.07,0.86 -1.24,3.47 -2.63,-0.06 -10.05,0.04 -2.64,-0.08 -6.38,0.09 -0.48,-0.07 -37.07,0.14 0,0.29 -5.51,-0.26 -9.48,-0.05 -15.69,0.06 -0.24,-0.08 -2.89,0.03 -21.58,-0.11 -4.12,0.05 -24.72,-0.04 -0.83,0.07 -2.04,0.02 -1.89,-0.09 -9.94,0.02 -1.54,-0.05 -4.01,0.08 -1.83,-0.06 -30.85,0.12 -18.589999,-0.09 -1.72,0.05 -0.87,-0.06 -4.52,0.07 -55.55,0.07 -6.26,0.25 0,-279.33 0,0 0.81,-0.01 0,0 106.099999,0.02 0,0 0.68,0 0,0 z" 
                fill="rgb(151, 144, 238)" 
                stroke="white" 
                stroke-width=".7px"
                title="Al Wādī al Jadīd" 
                id="EG-WAD" 
            />
        </svg>