<svg xmlns="http://www.w3.org/2000/svg" viewBox="323.03971 74.10180000000001 43.96000000000009 67.63999999999994" width="43.96000000000009" height="67.63999999999994">
            <path 
                d="m 323.30971,139.6418 0.78,-14.24 2.19,-25.47 0.04,-4.35 -1.28,-8.59 -0.65,-4.88 -1.23,-4.26 0,0 -0.12,-2.77 0,0 1.91,-0.18 18.62,-0.11 2.64,0.81 6.14,0.43 1.73,-1.41 4.61,-0.52 0,0 5.85,0.28 0,0 1.05,3.86 -0.13,11.39 1.54,0.14 0,0 0,2.66 0,0 -2.57,0.59 -6.93,5.2 0,0 -0.24,-0.34 -0.15,-0.1 -0.12,-0.46 -0.13,-0.22 -0.15,-0.01 -0.05,-0.19 -0.4,-0.37 -0.43,-0.04 -0.13,-0.12 0.1,-0.15 0.68,-0.62 -0.01,-0.08 0.27,-0.4 -0.12,-0.36 0.18,-0.28 0.06,-0.31 0,-0.19 -0.09,-0.17 -0.22,-0.18 -0.13,0.04 -0.3,-0.47 -0.52,-0.56 -0.51,-0.3 -0.13,0.08 -0.13,-0.57 -0.26,-0.33 -0.37,-0.14 -0.05,0.05 0.05,0.26 -0.25,0.06 0.05,0.08 -0.05,0.08 -0.23,-0.46 -0.14,0.01 -0.1,-0.07 0.07,-0.16 0.25,-0.15 -0.31,-0.13 0.21,-0.26 -0.03,-0.19 -0.18,0.06 -0.06,-0.1 -0.01,0.17 -0.09,0 0,-0.14 0.07,-0.09 0.05,-0.04 0,-0.1 -0.1,0.06 -0.06,-0.13 0.38,-0.25 0.16,-0.2 -0.11,-0.26 -0.29,-0.31 -0.1,-0.06 0,0.19 -0.31,0.04 -0.23,0.13 -0.43,0.03 0,0.16 -0.07,0.04 0.33,0.5 -0.16,-0.06 -0.2,-0.4 -0.19,-0.2 -0.1,-0.06 -0.29,0.03 0.19,7.82 -1.22,1.39 -1.92,1.4 -1.4,2.44 -0.35,3.14 -0.7,3.67 0.11,3.01 0.62,0.29 0.18,0.18 0.29,0.16 0.13,0.17 0.09,0.01 0.08,0.13 0.56,0.19 0.18,0.28 0.12,0.43 0.37,0.19 0.24,0.31 0.3,0.16 0.11,0.1 0.05,0.15 0.12,0.06 -0.05,0.17 0.09,0.07 0.08,0.23 0.1,0.07 0.17,-0.04 0.09,0.13 0.25,0.01 0.31,0.2 0.01,0.34 -0.06,0.13 0.28,0.37 0.1,-0.01 0.31,0.13 0.06,0.2 0.55,0.2 0.17,0.25 0.44,0.27 0.08,0.19 0.22,0.06 0.13,0.11 0.06,0.16 0.3,0.23 0.02,0.08 0.25,0.06 0.13,0.33 0.26,0.22 -0.11,0.19 0.05,0.2 0.18,0.1 0.14,0.04 0.08,0.43 0.14,0.27 0.34,0.24 0.09,0.19 -0.05,0.25 0.15,0.26 0.24,0.92 -0.05,0.2 0.07,0.19 -0.05,0.1 0.04,0.18 0.21,0.38 0.09,0 0.07,0.11 -0.03,0.11 -0.14,0.05 -0.05,0.08 0.04,0.44 0.47,0.34 -0.01,0.13 0.1,0.09 0.01,0.17 -0.11,0.03 -0.02,0.28 0.07,0.14 0.21,0.13 0.09,0.13 0.08,0.03 0.03,0.31 0.19,0.26 -0.08,0.21 -0.15,0.03 0.1,0.14 -0.04,0.21 -0.13,0.23 0.17,0.19 -0.07,0.13 0.1,0.04 0,0.17 0.16,0.36 -0.09,0.04 -0.14,-0.19 -0.01,0.17 0.03,0.07 0.16,0.03 0.26,0.26 0.06,0.3 0.13,0.23 -0.08,0.34 0.1,0 0.04,0.15 0.2,0.03 0,0.1 -0.01,0.09 0.02,0.14 -0.11,0.08 0.03,0.2 0.15,0.19 -0.09,0.11 0.04,0.19 -0.07,0.1 0.12,0.15 -0.02,0.23 0.12,0.1 -0.08,0.13 0,0.11 0.09,0.1 -0.01,0.41 0.13,0.03 0.04,0.1 0,0 -5.37,0.19 -3.94,2.34 -4.28,1.17 -8.03,4.94 -6.63,0.1 -5.16,0.98 0,0 0,0 0,0 z" 
                fill="rgb(151, 144, 238)" 
                stroke="white" 
                stroke-width=".7px"
                title="As Suways" 
                id="EG-SUZ" 
            />
        </svg>