<svg xmlns="http://www.w3.org/2000/svg" viewBox="296.24971000000016 29.601800000000015 41.659999999999854 47.05999999999999" width="41.659999999999854" height="47.05999999999999">
            <path 
                d="m 329.66971,30.6818 0.66,0.06 0.69,-0.18 0.98,0.38 0.06,0.45 0.36,0.27 0.3,-0.18 0.15,-0.39 -0.24,-0.27 -0.06,-0.47 0.22,-0.07 0.64,0.1 0.24,0.38 0.78,0.52 0.64,-0.06 0,0 0.67,1.21 1.96,0.08 0.19,5.65 -1.7,0.05 -0.23,1.84 -1.81,4.11 0.91,3.84 0.07,2.71 -4.74,6.73 -0.26,0.94 -5.04,0.3 -0.59,0.87 -3.78,-0.19 -0.42,-0.88 -2.26,-0.1 0.17,1.65 1.68,0.88 0.41,4.55 1.01,4.9 0,0 -6.29,4.4 -3.15,1.9 -4.59,0 0,0 -1.8,-1.08 -0.2,-0.27 -2.45,-1.34 -2.13,-1.66 -1.02,-2.69 -1.21,-2.39 -1.12,-1.47 -1.12,-1.06 0,-2.62 0.66,-0.04 0.08,-2.48 1.27,-1.3 0,0 2.02,-1.99 0.92,-2.37 -0.84,-0.77 0,-6.49 1.32,-1.17 8.82,-0.24 0.21,-1.47 1.32,-0.72 0.16,-1.63 2.27,-0.18 0.14,-2.89 2.88,-2.98 0.15,-1.98 1.09,-1.81 3.59,0.07 0.93,-0.19 4.16,-0.56 3.35,-1.29 0,0 -0.21,0.45 -0.87,0.42 z" 
                fill="rgb(151, 144, 238)" 
                stroke="white" 
                stroke-width=".7px"
                title="Ash Sharqīyah" 
                id="EG-SHR" 
            />
        </svg>