<svg xmlns="http://www.w3.org/2000/svg" viewBox="294.16970999999984 325.0418 95.2100000000001 159.97000000000008" width="95.2100000000001" height="159.97000000000008">
            <path 
                d="m 373.73971,374.6618 -1.02,3.55 -0.01,6.03 0.79,1.85 0.32,2.99 0.92,1.14 1.17,2.13 0.2,1.85 0.33,1.42 0.98,1.77 1.63,0.93 1.44,1.63 0.2,4.53 1.07,0.41 -0.16,1.84 -0.72,0.73 -0.59,0.99 -0.39,2.2 0.07,2.34 0.98,3.4 1.57,0.36 0.83,1.91 0.77,1.45 -0.23,1.37 -0.79,1.13 -0.65,2.2 -1.05,2.05 -1.56,1.62 -1.11,1.35 -1.25,2.04 -1.3,1.42 -0.07,1.2 0.98,0.85 2.48,2.47 3.03,0.24 1.02,0.98 3.32,2.35 0,0 2.23,3.52 0.21,3.31 0,0 -1.19,2.02 -2.71,-0.4 -2.76,-2.94 -1.45,-1.91 -2.88,0.43 0,0 -2.57,-0.78 -1.83,-1.17 -2.62,-1.84 -3.16,0.33 0,0 -2.99,1.64 0.26,5.53 -1.18,3.42 -2.31,2.58 -2.73,1.59 -3.72,2.45 -3.14,2.75 -2.62,0.78 0,0 -2.94,0.88 -3.43,-1.52 0,0 -2.35,-2.28 -1.47,-1.9 -2.11,-1.33 -2.75,0.66 -1.18,4.45 -0.39,2.35 -1.18,2.88 -1.04,1.96 -1.39,1.74 -2.71,1.16 -4.28,-0.67 -1.44,3.14 -1.96,1.96 -2.75,1.44 -8.11,2.75 0,0 -1.19,4.65 -5.17,-0.01 -0.06,-0.24 0.09,-0.7 0.6,-1.7 0.42,-0.88 1.35,-2.13 0.41,-0.47 0.65,-0.52 0.28,-0.47 0.53,-0.63 0.26,-0.58 -0.02,-0.28 -0.17,-0.26 -0.52,-0.27 -0.6,-1.05 -0.41,-0.28 -0.26,0.11 -0.89,0.76 -3.81,2.33 -1.44,-0.13 0,0 -2.67,0.26 -1.51,-2.22 0.78,-2.75 4.32,-2.23 3.01,-0.91 4,0.12 2.96,-2.73 1.92,-2.16 0.83,-1.57 0.48,-1.58 -0.23,-1.6 0,-4.33 -0.21,-2.22 0.84,-1.83 1.47,-1.74 1.17,-0.5 2.77,-0.02 2.05,0.23 1.61,-0.23 2.26,-0.74 8.64,-2.42 5.49,-1.62 0.98,0.38 2.59,0.26 2.57,0.51 1.94,1.22 1.5,0.66 1.64,-0.92 1.7,-3.32 0.95,-2.01 1.23,-2.18 0.79,-2.37 1.25,-2.8 1.69,-2.7 1.32,-2.27 1.54,-3.24 1.69,-2.53 1.42,-2.36 0.3,-0.96 -0.48,-1.98 -2.07,0.11 -1.72,0.39 -2.68,-0.36 -5.18,-1.23 -1.39,-1.65 0.36,-3.28 1.71,-5.93 1.41,-2.01 1.56,-1.02 2.29,-1.36 2.19,-0.91 2.01,-0.56 2.12,-1.72 -0.32,-1.26 -1.49,-1.21 -2.11,-2.04 -0.17,-3.14 1.39,-1.39 1.28,-0.49 1.84,-0.92 3.74,-3.91 0.39,-6.45 0,-2.96 0.59,-4.2 0.02,-3.42 0.75,-3.48 0.66,-3.49 0,-2.88 0.56,-3.32 -1.8,-3.48 -0.56,-2.19 -1.17,-3.56 -0.06,-2.17 0.03,-2.6 -0.39,-1.85 -1.6,-2.01 -2.68,-2.52 -3.49,-1.62 0,0 0.96,-3.51 -0.07,-3.57 0,0 1.91,1.73 0,0 2.39,1.48 1.83,1.77 4.35,3.02 3.29,5.5 0.47,3.34 0.14,9.58 1.92,4.53 3.06,5.11 0.23,1.55 -0.39,4.01 -3.2,2.66 -1.99,2.97 -0.13,2.37 0,0 z" 
                fill="rgb(151, 144, 238)" 
                stroke="white" 
                stroke-width=".7px"
                title="AswÄn" 
                id="EG-ASN" 
            />
        </svg>