<svg xmlns="http://www.w3.org/2000/svg" viewBox="268.72971000000007 207.6118 42.719999999999914 40.630000000000024" width="42.719999999999914" height="40.630000000000024">
            <path 
                d="m 311.44971,248.2418 -2.22,-0.02 -0.85,-1.85 -1.04,-0.98 -0.89,-1.98 -0.86,-1.15 -1.78,-0.19 -0.57,1.09 -1.15,1.66 -0.86,0.64 -1.72,0.96 -1.19,0.98 -0.65,0.2 0,0 -2.24,-3.71 -1.84,-4.29 -1.8,-3.71 -1.71,-2.81 -2.69,-1.55 -1.65,-0.39 -2.16,-0.24 -0.99,-0.53 -2.11,-1.88 -3.94,-3.85 -1.39,-0.78 -1.13,-1.65 -0.52,-2.14 -1.39,-1.85 -0.95,-2.04 -0.45,-2.55 -1.03,-0.47 -0.17,-1.94 -0.78,-0.78 0.09,-2.24 1.04,-0.1 0,0 3.03,0 1.83,0.49 2.43,0.39 1.56,-1.37 2.78,0.19 0,0 -0.67,3.4 0.58,4.71 0.61,1.55 1.47,1.76 0.94,0.46 3.4,1.19 1.39,1.07 3.89,1.52 1.15,0.1 2.1,1.05 1.34,0.75 1.37,4.42 2.84,2.18 0,0 2.56,2.18 1.28,0.9 0,0 1.4,3.08 2.3,3.78 1.49,3.84 z" 
                fill="rgb(151, 144, 238)" 
                stroke="white" 
                stroke-width=".7px"
                title="Asyūţ" 
                id="EG-AST" 
            />
        </svg>