<svg xmlns="http://www.w3.org/2000/svg" viewBox="227.04971 117.48179999999996 68.53000000000003 35.59" width="68.53000000000003" height="35.59">
            <path 
                d="m 227.04971,151.2518 1.82,-2.37 0.39,-3.14 0.59,-5.6 1.18,-4.97 0.07,0.01 0.17,-1.08 0,0 2.86,0.42 5.71,0.71 10.68,1.98 2.11,1.13 -0.17,1.69 1,0.4 1.43,-0.09 22.49,-6.28 5.66,-8.87 3.47,-5.24 2.82,-2.04 0,0 0.06,0.35 0,0 0.53,-0.78 2.31,0.97 0,0 2.27,0.52 0,0 0.95,0.63 0,1.65 0.13,2.69 0,0 -0.13,1.42 -0.12,3.11 -1.74,1.41 -0.12,3.26 -0.75,0.7 -2.23,2.83 -1.49,2.12 -0.87,1.69 -1.37,2.12 -2.11,0.84 -2.98,5.08 -0.62,3.66 -2.75,0.89 0,0 -2.89,-2.01 -2.43,-1.41 -33.41,1.11 -1.52,-0.03 -8.49,0.29 z" 
                fill="rgb(151, 144, 238)" 
                stroke="white" 
                stroke-width=".7px"
                title="Banī Suwayf" 
                id="EG-BNS" 
            />
        </svg>