<svg xmlns="http://www.w3.org/2000/svg" viewBox="340.48970999999983 19.5718 15.610000000000241 15.740000000000006" width="15.610000000000241" height="15.740000000000006">
            <path 
                d="m 345.36971,23.8818 1.29,0.68 0.52,0.39 0.28,0.09 0.1,0.13 0.35,0.13 0.15,0.17 0.04,0.2 0.44,0.25 0.11,0.16 0.65,0.49 0.5,0.6 0.3,0.51 0.56,0.6 0.09,0.09 0.06,0.1 0.29,0.36 0.06,0.39 0,0.1 0.44,0.45 0.64,0.45 0.79,0.77 0.66,0.48 0.74,0.39 1.01,0.32 0.66,0.09 0,0 0,3.04 0,0 -3.08,-0.81 -3,-1.94 0,0 -3.19,-1.16 -1.94,-0.97 -2.2,-0.17 -0.23,-0.65 0.93,-0.75 1.31,-1.97 0.44,-0.96 0.48,-0.57 -0.25,-1.48 z m 0,0 -0.96,-0.15 -0.09,-0.09 0.04,-0.15 0.06,-0.07 0,-0.13 0.15,-0.03 0.2,0.07 0.2,0.16 0.08,-0.03 0.07,0.03 0.19,0.15 0.08,-0.03 -0.02,0.27 z m -0.96,-1.2 -0.01,0.61 -0.05,0.01 -0.02,0.12 -0.03,0.13 -0.5,-0.64 0.16,-0.03 0.1,0.25 0.01,-0.07 0.21,0 0.17,-0.83 0.08,-0.04 -0.12,0.49 z m -0.67,-3.11 0.03,0.07 -0.66,0.97 -0.14,0.1 -0.05,0.17 -0.22,0.2 -0.09,0.23 0.11,0.15 0.28,0.06 0.04,0.15 0.15,0.12 -0.14,0.29 0.19,0.28 0.33,0.17 0.21,0.01 -0.05,0.26 0.08,0.1 -0.61,0.75 -0.31,0.48 -0.26,0.7 -0.09,-1.44 0.18,-0.39 -0.26,-0.44 -0.22,-0.74 -0.31,0.57 0.13,0.39 -0.39,0.22 0.09,0.52 -0.3,0.72 -0.4,-0.54 -0.22,-0.79 -0.35,-0.66 0.26,-0.48 -0.04,-0.48 0,0 0.32,-0.37 0,0 0.14,0.03 0.14,-0.15 0.39,0.17 0.82,0.04 0.17,-0.1 0.13,0.01 0.92,-1.35 z" 
                fill="rgb(151, 144, 238)" 
                stroke="white" 
                stroke-width=".7px"
                title="Būr Saٰīd" 
                id="EG-PTS" 
            />
        </svg>