<svg xmlns="http://www.w3.org/2000/svg" viewBox="259.44970999999975 3.6818 37.95000000000016 32.49999999999999" width="37.95000000000016" height="32.49999999999999">
            <path 
                d="m 288.07971,3.6818 0.28,0.09 0.15,-0.03 0.43,0.07 0.06,0.08 0.13,-0.05 0.06,0.13 0.08,-0.01 0.2,0.16 0.26,0.09 0.79,0.14 0.97,0.3 0.51,0.01 0.14,0.09 0.22,0.03 0.19,0.13 0.17,0 0.37,0.26 0.94,0.16 0.87,0.34 0.65,0.12 1.83,0.79 0.02,2.71 -1.25,-0.11 0,0 -1.01,0.91 0.08,2.09 1.09,-0.09 0.08,2.9 0.46,1 0.07,10.62 0.24,1.7 -0.7,0.54 -1.64,-0.31 0,0 0,-0.1 -1.19,0.03 -1.52,-0.07 0,0 -5.2,0.43 -0.95,-0.07 0,5.61 -5.22,-0.09 -0.23,0.89 -0.16,1.01 -4.67,0 -0.3,-1.05 0,0 -1.21,-0.01 -1.92,-3.49 -5.93,-5.58 -3.66,0.35 0,-6.9 -2.8,-3.22 -0.41,-4.9 1.97,-0.01 2.51,-0.54 6.87,-2.33 3.01,-0.76 1.94,-1.27 0.62,0.2 1.07,-0.49 3.34,-0.83 1.49,-0.79 0.17,0.6 -0.17,0.65 -1.08,-0.3 -1.08,0.24 -2.38,0.72 -1.53,0.85 -0.57,0.58 -1.07,0.48 -0.78,0.48 -1.67,0.66 -1.61,0.53 -1.08,1.02 -0.36,0.84 -0.59,-0.06 -0.78,0.36 -1.49,0.05 -0.36,0.54 -0.78,0.12 -1.07,-0.24 -0.84,0.3 -0.18,0.66 -0.07,1.31 0.61,0 1.43,0.24 2.94,-0.08 0.11,-0.58 0.48,-1.37 1.07,0.3 0.88,0.72 0.84,0.5 0.67,-0.8 0.24,-0.72 0.72,-0.42 1.13,-0.83 0.54,-0.12 0.28,0.54 0.68,0.59 1.13,-0.3 1.72,0.25 1.27,0.09 1.12,-0.68 2.27,-0.6 0.85,-1.23 0.6,-1.41 0.65,-0.9 1.5,0.06 0.89,0.12 0.07,1.03 0.68,0.27 0.68,-1.84 -0.77,-1.01 -1.91,-1.2 -1.38,-0.59 -1.08,-0.14 -0.78,-0.22 0.91,-0.46 1.51,-0.39 0.36,-0.03 0.14,0.09 0.2,-0.09 z" 
                fill="rgb(151, 144, 238)" 
                stroke="white" 
                stroke-width=".7px"
                title="Kafr ash Shaykh" 
                id="EG-KFS" 
            />
        </svg>