<svg xmlns="http://www.w3.org/2000/svg" viewBox="0.27971100000001137 0.2718 252.57999900000004 205.86000000000007" width="252.57999900000004" height="205.86000000000007">
            <path 
                d="m 20.489711,0.2718 0.08,0.28 -0.01,0.35 -0.06,0.04 0.04,0.16 -0.07,0.1 0.01,0.12 -0.11,0.18 0.09,0.31 -0.05,0.12 0.25,0.2 0.05,0.1 -0.06,0.07 0.16,0.12 -0.07,0.15 -0.06,0 0.06,0.16 -0.08,0.26 0.09,-0.03 0.07,0.07 -0.02,0.13 0.24,0.25 0.26,0.6 0.1,0.06 0.01,0.17 -0.06,0.04 0.16,0.41 -0.03,0.1 0.15,0.17 0.02,0.17 0.15,0.19 0.14,0.01 -0.05,0.17 -0.41,0.1 -0.07,0.25 -0.1,0.07 -0.08,0.01 -0.07,-0.13 -0.11,0.09 0,0.39 0.16,0.34 0.15,0.16 -0.01,0.13 0.37,0.41 0.09,0 0.2,0.17 1.32,0.54 1.36,0.35 1.27,0.17 1.06,0.25 0.39,0 0.16,0.06 0.05,-0.04 1.41,0.04 1.17,-0.09 0.06,-0.07 0.05,0.12 0.37,0.03 0.07,-0.04 0.05,0.06 0.77,0.04 1.51,-0.29 0.89,-0.32 0.51,-0.07 0.01,-0.09 0.19,0.1 0.69,-0.01 1.2,-0.25 1.49,-0.47 1.06,-0.45 1.52,-0.42 0.01,-0.07 0.21,0.03 1.77,-0.67 0.15,0.06 0.01,-0.06 0.16,-0.01 0.2,-0.15 0.14,0 0.39,-0.2 0.34,-0.03 0.1,-0.09 0.51,-0.13 0.13,-0.1 0.22,0 0.06,-0.07 0.3,-0.07 0.15,-0.13 0.24,-0.03 0.24,-0.16 0.24,0 0.35,-0.2 0.51,-0.13 0.51,-0.28 1.01,-0.32 0.25,-0.16 0.19,0.01 0.39,-0.22 0.34,-0.04 0.26,-0.13 0.06,0.03 0.06,-0.07 0.14,-0.01 0.03,-0.09 0.09,0.07 0.15,-0.13 0.41,0 0.1,-0.09 0.1,0.03 0.12,-0.09 0.1,0.01 0.06,-0.1 0.21,0.03 0.02,-0.06 0.13,-0.01 0.09,0.04 0.19,-0.12 0.1,0.03 0.15,-0.12 0.22,0 0.35,-0.17 0.19,0.03 0.14,-0.07 0.31,-0.01 0.06,-0.09 0.31,0.01 0.07,-0.06 0.05,0.07 0.54,-0.03 0.06,0.06 0.15,-0.04 0.06,0.07 0.15,-0.01 0.24,0.13 0.21,-0.01 0.25,0.13 0.2,-0.04 0.13,0.15 0.24,0.06 0.21,0.03 0.21,-0.06 0.27,0.19 0.4,0.01 0.02,0.06 0.29,0 0.04,0.06 0.2,-0.03 0.1,0.07 0.11,-0.01 0.06,0.09 0.08,-0.1 0.19,0.01 0.06,0.12 0.1,-0.06 0.21,0.03 0.27,0.2 0.08,-0.06 0.09,0.07 0.16,-0.04 0.06,0.09 0.02,-0.09 0.11,0 0.01,0.12 0.25,0.09 0.26,-0.05 0.19,0.09 0.32,0 0.32,0.18 0.26,-0.04 0.08,0.12 0.17,-0.03 0.05,0.07 0.07,-0.03 0.19,0.09 0.1,-0.06 0.09,0.12 0.14,-0.03 0.17,0.09 0.05,-0.07 0.05,0.09 0.61,0.1 0.24,0.25 0.12,-0.01 0.01,0.07 0.2,-0.07 0.06,0.1 0.1,-0.04 0.06,0.06 0.22,0.01 0.08,0.12 0.11,-0.01 0.26,0.13 0.09,-0.05 0.11,0.09 0.14,0 0.07,0.09 0.15,-0.06 0.25,0.23 0.4,0.16 0.07,-0.03 0.92,0.28 0.15,-0.04 0.11,0.1 0.16,-0.01 0.05,0.1 0.4,0.01 0.15,0.13 0.09,-0.06 0.31,0.01 0.22,0.13 0.34,0.09 0.04,0.07 0.74,0.13 0.76,0.31 0.22,-0.04 0.12,0.1 0.11,-0.01 0.14,0.13 0.85,0.22 0.5,0.36 0.37,-0.04 0.11,0.04 0.02,0.1 0.23,-0.03 0.16,0.19 0.27,-0.04 0.1,0.19 0.24,-0.04 0.16,0.12 0.37,-0.04 0.36,0.19 0.3,-0.06 0.47,0.03 0.11,0.18 0.29,0.15 0.19,0 0.05,-0.07 0.41,0.13 0.81,-0.06 0.16,0.1 0.37,-0.01 0.07,0.09 0.14,-0.06 0.22,0.14 0.74,0.03 0.05,0.07 0.35,0.03 0.26,0.12 0.04,0.09 0.29,0.06 0.52,0.31 0.17,-0.03 0.42,0.22 0.8,-0.03 1.48,-0.25 0.54,-0.33 0.06,0.45 0.41,0.22 0.36,0.01 0.05,0.15 0.16,0.04 0.15,-0.04 0.17,0.12 0.66,0.03 0.61,-0.15 0.05,0 -0.02,0.09 0.11,0.03 1.2,-0.09 0.27,0.01 0.36,0.12 0.36,-0.06 0.47,0.25 0.9,0.03 0.3,0.12 1.91,-0.1 0.12,0.04 0.16,0.22 0.59,0.23 0.44,0.07 0.12,0.25 -0.01,0.16 0.24,0.15 0.08,0.13 1.31,0.36 0.31,0.19 0.06,0.15 0.34,0.07 0.19,0.15 0.37,0.07 1.1,-0.06 0.85,0 0.3,0.06 0.08,-0.06 0.69,0.04 0.15,0.09 0.2,-0.09 0.289999,0.06 0.05,-0.07 0.74,-0.06 0.19,-0.03 0.7,-0.07 0.1,0.07 0.17,-0.09 0.09,0.07 0.15,-0.03 0.14,0.12 0.25,-0.07 0.04,0.2 0.19,0.09 0.1,0.2 0.14,0.03 0.27,0.23 0.16,0 0.04,0.1 -0.05,0.26 0.34,0.5 0.32,0.17 0.8,0.06 0.11,0.13 0.13,-0.09 0.46,0 0.06,0.17 0.26,0.17 0.29,-0.19 0.14,0.41 0,0.09 -0.07,0.03 0.05,0.26 0.22,0.22 0.5,0.22 0.29,-0.03 0.5,0.19 0.09,0.13 0.7,-0.07 0.71,0.04 0.9,-0.02 0,-0.06 0.89,0.03 0.13,0.06 1.5,0.12 0.09,0.07 0.41,0 0.31,0.12 -0.24,0.13 -0.22,0 -0.09,-0.15 -0.1,-0.04 -0.37,0.07 -0.14,-0.13 -0.31,0 -0.11,0.04 -0.1,0.17 -0.34,-0.22 -0.15,0.16 -0.1,0 -0.06,0.28 0.06,0.16 0.76,0.04 0.04,-0.1 0.44,0.01 0.05,-0.06 0.49,0.04 0.04,-0.13 0.14,-0.07 0.14,0.32 0.27,0.09 0.42,0.03 0.24,-0.19 0,-0.07 0.19,0.04 0.1,0.1 0.11,-0.06 0.04,-0.15 -0.1,-0.12 -0.47,-0.04 -0.04,-0.07 0.44,0.06 0.15,-0.04 0.2,0.04 0.09,-0.06 0.54,0.05 1.26,-0.19 0.66,-0.03 0.61,-0.13 0.15,0.04 0.46,-0.04 0,0.26 0.37,0.12 0.14,0.12 0.02,0.45 -0.1,0.01 -0.16,0.29 0.01,0.38 -0.05,0.12 0.3,0.47 0,0.16 0.17,0.1 0.04,0.13 0.09,0.03 0.16,0.26 0.15,0.09 0.06,0.35 -0.04,0.17 0.41,0.67 0.09,0.46 0.11,0.13 0.02,0.22 -0.09,0.1 0.07,0.07 -0.01,0.13 0.13,0.01 0.05,0.15 -0.02,0.36 0.17,0.15 0.2,0.38 0.35,0.31 -0.04,0.09 0.24,0.22 0.54,0.39 0.27,0.31 0.36,0.19 0.31,0.26 0.49,0.22 1.75,0.36 3.06,0.01 0.02,0.1 -0.07,-0.06 -0.15,0.01 0.02,0.13 0.14,0.17 0.25,0.09 0.12,0.2 0.32,0.22 0.81,0 0.31,-0.06 0.07,-0.13 0.34,0 0.21,-0.09 1.22,-0.03 0.04,0.06 -0.19,0.26 0.09,0.29 0.06,0.13 0.39,0.17 0.02,0.07 0.61,-0.06 0.19,0.03 0.09,0.1 0.2,0.06 0.86,0.1 0.06,-0.15 0.15,-0.1 -0.04,-0.17 -0.15,0.03 -0.22,0.25 -0.21,-0.01 0,-0.28 0.21,0.03 0.02,-0.06 0.41,0 0.34,-0.12 0.19,-0.03 0.16,-0.06 0.65,-0.07 0.39,-0.12 1.02,-0.42 0.26,0 0.01,-0.06 0.62,-0.2 0.11,-0.1 0.27,-0.04 0.11,-0.15 0.44,-0.07 0.02,-0.09 0.11,-0.04 0.6,-0.15 0.11,-0.09 0.11,0.07 0.08,-0.12 0.21,-0.06 0.16,-0.17 0.15,-0.04 0.11,0.04 0.05,-0.1 0.29,-0.16 0,-0.15 0.15,0.06 -0.04,-0.17 0.14,-0.15 0.11,0.01 0.06,-0.22 0.1,-0.01 0.1,-0.31 -0.06,-0.15 0.2,0.04 0.37,0.2 0.02,0.19 0.07,0.03 -0.11,0.17 0.04,0.13 -0.09,0.12 0.01,0.23 0.11,0.16 0.11,-0.04 -0.05,0.1 0.1,0.13 -0.09,0 -0.1,-0.1 -0.04,0.13 0.1,0.09 -0.11,0.01 -0.04,0.17 0.1,0.23 0.11,0.94 0.35,0.45 0.06,0.19 0.16,0.06 0,0.06 0.37,0.3 0.02,0.19 -0.13,0.36 0.2,0.33 -0.11,0.01 -0.11,0.12 0.16,0.48 -0.13,0.04 -0.02,0.16 0.2,0.39 0.11,0.07 -0.14,0.06 0.12,0.54 0.13,0.25 0.21,0.22 0.8,0.46 0.21,0.06 0.01,0.07 1.2,0.26 1.2,0.1 0.31,-0.04 0.84,0.07 0.11,-0.05 0.06,0.13 0.16,0.07 0.52,-0.04 0.76,0.06 0,-0.06 0.06,0 0.08,0.1 0.35,-0.07 0.11,0.06 0.21,-0.06 0.69,0.03 0.15,-0.04 0.3,0.06 0.37,-0.15 0.35,0.04 0.44,-0.1 0.56,0.04 0.39,-0.04 0.39,-0.13 0.85,0.01 0.35,0.12 0.67,0.54 0.8,0.2 0.26,0.2 0.17,-0.04 0.02,0.07 0.19,-0.07 0.54,-0.04 0.52,0.03 0.16,-0.06 0.32,0.03 0.04,0.06 0.12,-0.06 0.26,0.06 0.89,-0.09 0.86,0.09 1.11,0.35 0.51,-0.06 0.87,-0.35 0.35,-0.04 0.41,-0.2 0.41,-0.07 0.02,-0.09 0.34,-0.03 0.42,-0.13 1.86,-0.13 0.13,0.16 0.39,0.2 0.26,-0.09 0.06,0.25 0.11,0.15 0.45,0.19 0.16,0.32 0.16,0.04 0.02,0.07 0.19,0.06 0.25,0.19 0.26,0.09 0.17,-0.06 0.32,0.12 0.16,-0.01 0.29,0.25 0.34,0.12 0.17,-0.09 0.22,0 0.09,0.12 0.24,-0.03 0.17,0.06 0.16,-0.12 0.39,-0.03 0.09,-0.15 0.14,0 -0.06,0.09 0.01,0.13 0.34,0 0.02,0.29 0.09,-0.01 0.05,0.09 0.27,0.01 0.04,0.06 0.18,0.01 0.07,0.1 0.34,-0.03 0.29,0.1 0.05,0.06 -0.04,0.35 0.27,0.22 -0.07,0.13 0.04,0.1 0.56,0.3 1.96,0.54 0.51,-0.01 0.31,0.09 0.81,-0.06 0.81,0.06 -0.05,0.17 0.23,0.09 0.07,0.12 0.07,-0.04 0.04,0.15 -0.05,0 -0.05,0.26 0.19,0.17 0.06,-0.01 0,-0.22 0.11,0 0.07,0.17 0.49,0.1 0.62,-0.04 0.6,0.04 0,0.07 -0.11,-0.01 -0.07,0.1 -0.04,0.23 0.17,0.2 0.05,0.19 0.27,0.2 0.52,0.22 0.02,0.06 0.32,0.07 0.24,0.16 0.32,0.03 0.49,-0.06 0.81,0.16 -0.05,0.29 0.19,0.19 -0.02,0.13 0.06,0.06 -0.05,0.2 0.08,0.19 -0.09,0.07 0,0.23 0.19,0.2 0,0.09 0.06,0 0.26,0.3 0.45,0.26 0.17,0.22 0.51,0.27 0.44,0.12 0.21,0.17 0.35,0.15 0.16,0.25 0,0.15 0.51,0.54 0.64,0.33 0.3,0.04 0.9,0.32 0.1,0.07 0.05,0.19 0.13,-0.01 0.67,0.2 0.3,0.27 0.22,0.01 0.1,-0.09 0,0.07 -0.2,0.13 0.01,0.09 0.31,0.23 0.09,-0.01 0.1,0.2 0.1,-0.06 0.81,0.25 0.45,0.04 0.06,0.17 -0.86,-0.19 -0.24,-0.13 -0.15,0.06 -0.19,-0.07 -0.13,-0.17 -0.29,-0.1 -0.13,-0.19 -0.1,-0.01 0.16,0.27 -0.1,0 -0.13,-0.17 -0.02,0.04 0.09,0.14 0.21,0.07 -0.01,0.13 -0.22,-0.09 -0.06,-0.16 0.18,0.09 0.24,0.25 0.47,0.07 0.15,0.17 0.2,-0.04 0.16,0.17 0.24,-0.06 0.11,-0.12 0.16,0.03 0.43,0.3 0.31,-0.04 0.01,-0.1 -0.21,-0.08 0.05,-0.07 0.94,0.26 0.62,0.03 0.26,0.12 0.51,0.04 1.34,-0.09 1.14,0.03 0.65,-0.07 0.35,-0.14 0.1,0.04 1.26,-0.39 1.36,-0.27 0.06,-0.09 0.97,-0.27 1.29,-0.58 0.49,-0.17 0.07,0.03 0.82,-0.33 1.1,-0.27 0.72,-0.27 0.32,-0.2 0.14,0.03 0.5,-0.29 2.13,-1 0.94,-0.62 0.8,-0.42 0.09,0.06 0.85,-0.39 0.56,-0.32 0.15,-0.16 0.67,-0.33 0,-0.06 0.19,-0.07 0.19,-0.19 1.36,-0.72 0.05,-0.09 0.17,-0.06 0.09,-0.12 0.08,0.03 0.19,-0.17 0.07,0.03 0.01,-0.12 0.13,-0.1 0.11,0.01 0.14,-0.19 0.27,-0.16 0.03,-0.09 0.35,-0.19 0.27,-0.42 0.09,0 0.15,-0.15 0.06,0.03 0.14,-0.15 0.13,-0.01 0.51,-0.42 0.06,-0.12 0.17,-0.07 0.49,-0.43 0,0 -0.02,3.08 0.93,30.57 0,0 0,5.72 0,0 1.28,2.03 3.16,1.54 0,0 4.26,0.14 6.37,5.04 1.96,0.96 0,0 0,0 0,0 7.56,5.6 2.83,0.55 1.68,1.06 0,0 1.55,3.12 0,0 -3.07,0.4 -22.68,15 -6.62,1.63 -6.46,8.29 -32.28,31.75 -41.89,10.06 -20.39,45.43 0,0 -104.819999,-0.01 0,0 -0.81,0 0,0 -0.02,-80.41 -0.49,-0.91 -1.42,-3.99 -2.1,-4.35 -0.48,-1.51 -0.74,-1.08 -1.02,-2.73 -0.12,-0.72 0.77,-1.99 0.91,-1.12 0.12,-0.73 -0.09,-0.43 -1.74,-4.32 -1.69,-3.79 -0.13,-1.35 0.16,-3.66 -0.31,-1.69 -2.69,-9.13 -2.48,-2.75 0.51,-1.71 1.13,-2.27 1.13,-2.02 0.45,-1.19 0.61,-2.26 2.31,-1.95 1.07,-1.35 0.77,-1.72 0.67,-1.06 1.63,-1.7 0.96,-3.33 0.1,-0.79 -0.04,-0.87 0.26,-1.1 1.06,-2.38 0.48,-2.37 0.14,-1.19 1.06,-2.71 0.1,-0.67 -1.27,-4.36 0.02,-1.03 -0.44,-1.64 -0.79,-1.25 -0.52,-1.46 -0.29,-1.77 -1.17,-3.5 -0.66,-1.29 -0.95,-2.25 -0.24,-1.73 0.06,-1.34 0.41,-3.63 -0.06,-2.19 -0.26,-1.04 -0.63,-1.01 -0.26,-1.51 -0.11,-1.27 0.1,-0.52 3.49,-2.78 1.11,-1.11 4.45,-3.23 0.39,-0.8 0.33,-2.05 0.25,-0.74 0.27,-0.5 0.55,-0.67 0.69,-0.61 0.62,-1.19 0.72,-0.08 z" 
                fill="rgb(151, 144, 238)" 
                stroke="white" 
                stroke-width=".7px"
                title="Maţrūḩ" 
                id="EG-MT" 
            />
        </svg>