<svg xmlns="http://www.w3.org/2000/svg" viewBox="327.03971 276.48180000000013 43.910000000000025 55.63999999999993" width="43.910000000000025" height="55.63999999999993">
            <path 
                d="m 358.96971,332.1218 -2.43,-1.21 -2.47,-2.19 -1.25,-0.96 -1.22,-3.2 -0.41,-3 0.18,-1.55 -0.76,-1.52 -0.15,-3.12 -1.15,-2.49 -0.64,-1.07 0.11,-2.34 0.92,-2.03 1.78,-1.84 2.64,-1.14 2.64,-2.47 1.66,-1.97 0.69,-1.52 0,-2.67 0.52,-1.59 1.55,-2.73 1.33,-1.97 -0.25,-2.25 -1.22,-2.27 -0.92,-0.76 -2.58,-0.13 -2.58,1.02 -1.89,1.4 -4.19,1.72 -1.15,0.7 -1.89,0.63 -1.84,0.13 -2.07,0.38 -1.43,0.44 -4.82,0.12 -1.6,-0.63 -4.86,-4.24 0,0 -2.18,-2.66 0,0 0.69,-1.13 0.98,-0.95 1.43,-0.96 1.32,0 1.21,-0.45 1.32,-0.95 0.69,-1.15 0.86,-0.13 1.21,0.64 0.23,1.4 0.64,1.72 0.94,0.45 0.72,0.5 0.98,1.34 1.21,0 0.46,-0.64 0.92,-1.01 0,0 1.69,-0.12 1.43,-0.76 2.07,-1.53 2.93,-2.04 2.47,-0.83 6.08,-0.06 4.48,0.96 3.39,2.29 1.43,2.29 0.62,2.18 0,0 0,0 0,0 1.13,2.48 0.35,3.43 0,0 0.03,3.95 -0.2,0.77 0,0 -1.74,5.5 -1.97,3.15 -5.77,3.76 -1.89,3.1 -1.72,1.83 -0.8,1.83 0,5.38 0.8,2.53 1.55,2.46 0,0 0.71,0.64 0,0 0.07,3.57 -1.02,3.54 z m -4.02,-24.12 1.84,0.34 1.45,-0.25 0.92,-1.35 0.61,-1.44 0.31,-1.6 -2.68,-0.25 -1.38,3.29 -1.07,1.26 z" 
                fill="rgb(151, 144, 238)" 
                stroke="white" 
                stroke-width=".7px"
                title="QinÄ" 
                id="EG-KN" 
            />
        </svg>