<svg xmlns="http://www.w3.org/2000/svg" viewBox="356.0897099999998 17.67179999999994 103.07000000000016 95.37000000000006" width="103.07000000000016" height="95.37000000000006">
            <path 
                d="m 368.12971,29.4018 0.24,0.15 0,0.15 0.1,0.09 0.05,0.22 -0.08,0.04 -0.06,0.2 -0.22,-0.22 -0.09,0 0.01,0.12 0.27,0.25 -0.03,0.12 -0.41,-0.51 0.05,-0.28 -0.13,-0.2 0.3,-0.13 z m 25.38,-2.22 0.86,0.52 -0.03,0.09 -0.37,-0.23 -0.36,-0.04 -0.04,-0.1 -0.09,-0.03 -0.06,0.04 0.07,0.03 0.01,0.13 -0.06,0 -0.2,-0.35 0.12,-0.04 0.1,0.07 0.05,-0.09 z m -13.74,-4.02 0.17,0.06 1.04,-0.04 0.49,0.06 0.19,0.09 0.84,0.06 0.35,0.13 0.14,-0.04 0.11,0.1 0.31,0.07 0.06,-0.12 0.35,0.19 0.09,-0.03 1.05,0.2 0.14,-0.03 0.19,0.07 0.2,-0.1 0.02,0.06 -0.15,0.3 -0.1,-0.03 -0.19,0.15 -0.2,-0.19 -0.11,0.03 -0.03,-0.1 -0.09,0.09 -0.16,-0.15 -0.22,0.06 -0.71,-0.25 -0.34,0.01 -0.13,-0.09 -0.67,-0.17 -0.17,-0.01 -0.1,0.07 -0.17,-0.13 -0.26,-0.06 -0.56,0 -0.26,-0.07 -0.49,0.01 -0.51,0.12 -0.34,-0.09 -0.64,0 -0.09,0.07 -0.35,-0.04 -0.55,0.12 -0.16,0 0.03,-0.09 -0.15,0.07 -0.04,-0.06 -0.14,0.01 0.04,0.31 -0.11,-0.01 -0.04,0.13 -0.06,-0.07 -0.17,-0.03 -0.09,0.12 0.47,0.19 0.05,0.19 0.21,0 0.11,-0.13 -0.04,0.12 0.14,-0.01 0,0.06 -0.62,0.1 -0.69,0.2 -0.72,-0.03 -2.02,1.14 -0.66,0.57 -0.16,0.01 -0.14,0.12 -0.41,0.12 -1.42,0.61 0.01,0.07 -0.14,0.09 -0.04,0.29 -0.08,0.07 -0.22,0 -0.06,0.16 -0.16,0.16 -0.26,0 -0.07,-0.09 0.02,-0.15 0.25,-0.15 0.59,-0.55 1.55,-0.87 0.71,-0.32 0.08,-0.13 1.26,-0.7 2.2,-1.39 0.84,-0.32 0.61,-0.12 1.55,-0.07 z m 50.5,0.4 3.71,12.31 2.56,7.51 3.96,8.31 1.3,5.41 -0.13,2.83 1.95,2.29 -0.93,2.62 0.11,1.59 3.14,2.05 0.92,3.44 5.33,14.97 -0.09,0.78 4.6,12.9 -0.03,2.48 0.81,1.4 0.2,0.97 -0.21,1.4 -0.42,1.41 0.18,1.5 0.21,0.86 0.59,1.12 1.13,1.33 0,0 -2.39,-0.58 -3.74,0.15 -3.73,-0.73 -3.47,-0.29 -3.86,-0.59 -0.31,-0.27 -1.43,0.12 -2.62,-1.07 -2.63,-0.88 -0.91,-0.28 -0.08,0.03 -6.04,-3.68 -3.86,-0.88 -3.6,-1.18 -3.34,-2.21 -7.97,-5.01 -0.05,-0.11 -1.77,-0.86 -8.2,-1.92 -4.26,0.07 -1.02,-0.29 -8.36,-1.18 -9.77,-0.29 -6.61,0.43 -0.02,-0.12 -0.24,0.28 -1.87,-0.07 0,0 0,-1.84 0,0 -1.54,-0.15 0.13,-11.38 -1.04,-3.86 0,0 -0.12,-0.01 0,0 -0.77,-2.79 -1.41,-3.85 -1.67,-2.97 -3.21,-5.05 -1.05,-17.58 -0.24,-6.82 0,0 0,-3.04 0,0 1.68,0.01 1.67,-0.17 0.36,-0.06 0.16,-0.09 0.74,-0.09 0.05,-0.06 1.67,-0.41 0.97,-0.36 0.38,-0.22 0.22,-0.06 0.05,0.06 0.3,-0.22 0.5,-0.1 0.04,-0.09 1.01,-0.54 0.26,-0.22 1.02,-0.6 0.62,-0.26 0.81,-0.46 0.81,-0.54 0.25,-0.23 0.16,-0.06 0.26,0.55 -0.05,0.1 -0.15,0.03 -0.16,-0.13 -0.14,0 -0.39,0.17 -1.14,0.68 -0.71,0.25 -0.15,0.13 -0.52,0.19 -1,0.68 -0.5,0.2 -0.13,0.16 -0.2,0.06 -0.15,0.15 -0.3,0.04 -0.15,0.17 -0.13,-0.04 -0.11,0.22 -0.06,-0.06 -0.24,0.03 -0.04,0.09 -0.15,0.07 -0.14,-0.03 -0.16,0.04 -0.15,0.06 -0.06,0.1 -0.26,0.16 -0.1,-0.04 -0.13,0.04 -0.24,0.2 -0.25,-0.04 -0.28,0.09 -0.04,0.07 -0.4,0 -0.24,0.13 -0.37,0 -0.15,0.12 -1,0.1 -0.46,0.25 -0.05,-0.06 -0.19,0.01 -0.04,0.06 -0.16,-0.03 -0.2,0.19 -0.2,0.06 0,0.06 0.24,0.01 0.05,0.07 0.22,0.06 0.24,-0.1 -0.09,-0.15 0.08,-0.16 0.14,0.13 0.11,0.01 0.31,-0.06 0.35,0.04 0.1,-0.12 0.47,0.07 0.05,0.07 -0.1,0.25 0.05,0.39 -0.44,0.01 -0.3,0.19 0.04,0.07 0.31,0.03 0.14,0.07 0.4,0 0.11,-0.15 0.51,-0.03 0.4,-0.38 0.06,-0.16 0.25,-0.17 0.29,0.01 0.51,0.26 0.79,-0.06 0.31,-0.13 0.36,-0.45 0.08,-0.01 0.55,-0.57 0.13,-0.1 0.17,-0.13 0.54,-0.15 0.29,-0.29 0.17,-0.03 0.06,-0.1 0.44,-0.01 0.11,-0.1 0.16,-0.01 0.09,-0.2 0.14,0.1 0.31,-0.35 0.16,0.01 0.1,0.15 0.22,-0.06 0.29,0.06 0.05,0.07 0.15,-0.07 0.14,-0.17 0.36,0.17 0.26,0.01 0.03,0.06 0.21,-0.01 0.02,-0.1 0.19,0.09 0.21,-0.12 0.17,0.09 0.14,-0.01 -0.04,0.13 0.12,0.07 0.06,-0.12 0.2,-0.13 -0.04,-0.35 0.04,-0.1 -0.03,-0.06 -0.11,-0.01 -0.04,0.09 -0.22,0.03 -0.05,0.12 -0.09,-0.07 0.05,-0.1 -0.16,0.01 -0.09,0.09 -0.1,0 0.01,0.16 -0.07,-0.04 0.06,-0.28 0.36,-0.26 0.17,0 0.38,0.26 0.4,0 -0.04,0.06 0.06,0.06 0.31,0 0.3,0.28 0.19,0.03 0.05,0.17 0.15,0.03 -0.06,0.09 0.07,0.06 0.2,0.01 0.16,-0.19 0.19,0.01 0.06,0.15 -0.1,0.06 -0.01,0.13 0.14,0.06 0.09,0.22 0.14,0.04 0.03,0.06 -0.08,0.04 0.09,0.1 -0.15,0 -0.15,-0.16 -0.05,-0.15 0.06,-0.04 -0.03,-0.1 -0.6,-0.03 -0.04,0.04 0.1,0.1 0.24,0.06 -0.08,0.04 0.05,0.06 -0.17,0.03 -0.11,0.1 0.17,0.06 0.02,0.16 0.17,0.09 -0.06,0.09 0.07,0.12 -0.14,0.09 -0.29,0.01 -0.11,0.12 0.2,-0.03 0.16,0.2 0.46,0.1 0.15,0.13 0.91,0 0.36,-0.46 0.27,-0.09 0.16,-0.19 0,-0.12 -0.39,-0.25 -0.1,0 -0.06,0.12 -0.2,0.06 -0.04,-0.19 0.14,-0.35 -0.01,-0.13 0.22,-0.12 0.11,0.13 0.16,-0.13 0.21,-0.04 0.1,-0.26 0.06,-0.03 0.69,0.14 0.36,-0.22 -0.07,-0.29 -0.25,0.1 -0.08,-0.26 0.21,-0.42 0.02,-0.17 0.11,-0.06 0.22,0.03 0.15,-0.12 -0.03,-0.09 0.06,0.01 0.06,-0.19 -0.06,-0.16 -0.1,0.07 -0.08,-0.1 -0.11,-0.01 -0.3,0.13 -0.09,-0.03 -0.21,0.15 -0.49,0.01 -0.04,0.17 -0.21,0.06 -0.06,0.1 0.06,0.12 -0.11,0.12 -0.04,0.22 0.15,0.01 0.04,0.09 -0.06,0.07 -0.1,-0.03 0.07,0.19 -0.19,0.09 0.11,0.13 0.05,0.07 -0.01,0.13 -0.47,-0.32 -0.19,-0.04 -0.52,0.09 -0.79,-0.09 0,0.1 -0.29,0.09 -0.05,0.09 -0.17,-0.16 -0.21,-0.01 0.01,-0.25 -0.06,-0.09 -0.24,0.07 -0.19,-0.12 0.01,-0.1 0.15,-0.09 0.59,0.06 0.72,-0.15 0.49,-0.46 0.04,-0.13 0.09,0 0.1,-0.1 0.36,-0.78 0.66,-0.97 0.23,-0.16 0.14,0 0.4,-0.35 0.31,0.04 0.26,-0.09 2.27,-1.41 0.24,-0.09 0.1,0.2 0.19,-0.03 -0.03,0.12 -0.16,-0.01 -0.14,-0.15 -0.05,0.06 -0.17,0 0.05,0.1 0.2,0 -0.01,0.04 -0.24,0.06 -0.1,-0.1 -0.09,0 0.02,0.09 -0.15,0.06 -0.04,0.13 -0.08,0.01 -0.01,-0.09 -0.09,0.01 0.01,0.13 0.54,0.15 0.2,0.19 0.02,0.15 -0.11,0.04 0.14,0.14 0.05,0.18 0.49,0.39 0,0.3 0.17,0.15 0.01,0.29 0.11,0.26 0.69,0.22 0.1,0.16 0.02,0.22 0.44,0.64 -0.42,-0.49 -0.15,-0.3 -0.2,-0.13 -0.31,0.15 -0.17,-0.2 -0.47,0 -0.09,-0.15 0.09,-0.22 -0.11,-0.22 -0.16,0.03 0.06,0.33 -0.2,0.04 -0.27,-0.04 0.01,0.17 0.09,0.15 0,0.16 -0.09,0.13 0.22,0.06 0.05,0.13 0.1,0.04 -0.1,0.06 -0.03,0.13 0.2,0.03 0.06,0.22 0.25,0.12 0.08,0.19 0.16,0.01 0.21,-0.1 0.17,0.06 0,0.04 -0.21,0.01 -0.15,0.19 -0.16,0 -0.07,-0.2 -0.16,-0.04 -0.19,0.26 0.21,0.04 0.01,0.42 0.1,-0.03 0.38,0.28 0.32,0.06 0.4,0.26 0.17,0 0.34,-0.13 0.17,0.06 -0.01,0.09 -0.05,-0.06 -0.38,0.06 -0.09,0.2 -0.17,-0.04 -0.13,0.1 0.11,0.13 -0.01,0.22 0.22,0.2 -0.02,0.07 -0.19,0.01 -0.1,0.15 0.25,0.01 0.04,0.1 -0.14,0.26 -0.05,-0.1 -0.25,0.01 -0.01,0.29 0.11,-0.15 0.06,0.12 -0.15,0.15 -0.05,0.15 0.05,0.04 0.49,-0.09 0.04,0.1 0.14,-0.12 0.35,-0.04 0.12,-0.12 0.15,0.07 0.34,-0.09 0.33,-0.14 0.36,-0.32 0.21,-0.09 0.03,-0.45 0.14,-0.1 0.16,0 0.67,-0.23 0.29,0.1 0.19,0 0.26,-0.04 0.14,-0.06 0.52,-0.78 0.25,-0.01 0.17,0.19 -0.32,-0.04 -0.14,0.12 0.04,0.12 -0.1,0.01 0.13,0.16 0.2,0.07 0.2,-0.03 0.02,-0.17 0.09,-0.1 0.24,-0.07 0.12,0.01 -0.01,0.06 0.09,0.03 0.32,-0.16 0.13,-0.19 0.29,-0.17 0.27,0.04 -0.04,0.15 -0.09,0 -0.13,0.12 0.09,0 0,0.06 0.17,0.09 0,-0.19 0.36,0.04 0.08,-0.06 0.06,-0.28 -0.17,0.04 -0.07,-0.09 0.09,-0.19 0.49,0 0.13,0.1 0.15,0 0.01,-0.19 0.2,-0.09 -0.25,-0.1 -0.13,0.03 -0.24,-0.07 -0.05,0.13 -0.4,0.03 -0.34,0.28 -0.55,0.13 0,0.09 -0.24,0.09 -0.1,0.12 -0.16,0.03 0.06,0.09 -0.26,0.01 -0.1,-0.07 -0.07,0.12 0,-0.16 0.15,0.01 0.03,-0.09 0.36,-0.22 0.25,0.01 0.02,-0.1 0.35,-0.07 0.01,-0.07 0.15,-0.03 0.15,-0.13 0.19,-0.01 0.3,-0.15 0.13,-0.12 0.01,-0.13 0.21,-0.1 0.47,-0.06 0.47,0.09 0.66,-0.15 0.51,0.03 0.51,-0.16 0.13,-0.15 0,-0.12 0.09,-0.01 0.01,-0.15 -0.13,-0.75 0.45,-0.42 0.26,-0.55 -0.2,-0.32 0.01,-0.13 0.2,-0.06 0.21,0.07 0.11,-0.09 0.27,0.06 0.1,-0.09 0,-0.06 -0.27,-0.03 -1.19,-0.61 -0.13,-0.16 -0.42,-0.12 -0.1,0.03 -0.06,-0.09 -0.35,-0.12 -0.9,-0.55 -0.81,-0.12 -0.05,-0.06 -0.84,-0.09 -0.09,0 0.01,0.12 -0.19,0.04 -0.17,-0.09 -0.06,-0.13 -0.09,0 -0.04,0.07 -0.1,-0.09 -0.05,0.03 -0.15,-0.17 0.19,-0.36 0.08,0.16 0.3,0.09 0.46,0.28 1.15,0.15 1.02,0.3 0.34,0.03 0.42,0.19 0.3,0.03 0.49,0.16 1.11,0.46 1.07,0.6 0.15,0.19 0.8,0.42 -0.2,0.13 -0.09,-0.1 0.04,-0.09 -0.12,-0.09 -0.49,-0.22 -0.07,0.06 -0.03,0.13 0.4,-0.03 0.04,0.07 -0.09,0.06 0.17,0.04 0.06,0.15 -0.04,0.06 -0.15,0 -0.01,0.06 0.14,0.04 0.16,-0.1 0.16,0.12 0.21,0.25 -0.01,0.12 -0.13,0.09 0.22,-0.04 0.17,0.06 0,0.23 0.24,0.22 0.49,0.17 0.01,-0.09 -0.21,-0.1 -0.13,-0.26 0.04,-0.06 0.14,0.01 0.01,-0.06 -0.11,0 -0.17,-0.12 0.14,-0.06 0.08,0.09 0.11,-0.01 0.01,0.22 0.07,0 0.16,0.23 0.05,0.2 0.3,0.06 0.29,0.2 0.06,-0.03 -0.62,-0.6 0.14,-0.01 0.17,0.26 0.21,0.1 0.38,0.35 0.22,0.01 0.56,0.2 1.27,0.23 1.37,0.09 1.69,0 2.38,-0.15 0.34,-0.09 0.61,0.01 0.11,-0.07 0.75,-0.09 0.77,-0.19 0.25,0.01 0.08,-0.09 1.6,-0.36 0.2,-0.12 0.3,-0.03 1.87,-0.64 0.22,-0.01 0.03,-0.06 0.25,0.03 0.26,-0.42 0.05,0 -0.05,0.16 0.25,0.1 1.09,-0.35 0.39,-0.09 0.74,-0.2 0.81,-0.36 0.69,-0.19 0.13,-0.12 1.58,-0.61 0.11,-0.13 0.16,-0.01 0.08,-0.09 0.51,-0.22 0.37,-0.04 0.51,-0.22 0.15,0.01 0.05,-0.15 0.79,-0.33 1.83,-0.96 2.15,-1.25 1.54,-1 1.4,-0.99 0.65,-0.6 0.34,-0.19 1.6,-1.47 1.85,5.89 z" 
                fill="rgb(151, 144, 238)" 
                stroke="white" 
                stroke-width=".7px"
                title="Shamāl Sīnā'" 
                id="EG-SIN" 
            />
        </svg>