<svg xmlns="http://www.w3.org/2000/svg" viewBox="297.6697100000001 242.07179999999988 45.12999999999988 41.420000000000016" width="45.12999999999988" height="41.420000000000016">
            <path 
                d="m 320.33971,254.3818 2.02,2.56 0.46,1.59 0.97,1.28 1.64,0.53 0.44,2.99 1.2,3.6 1.16,1.77 0.81,0.85 2.73,1.72 4.03,1.21 1.81,1.33 1.04,2.59 2.04,2.8 0.34,0.13 -0.19,1.64 1.96,0.88 0,0 -0.92,1.01 -0.46,0.63 -1.21,0 -0.97,-1.33 -0.73,-0.5 -0.93,-0.45 -0.64,-1.72 -0.23,-1.4 -1.21,-0.64 -0.86,0.13 -0.69,1.14 -1.32,0.96 -1.2,0.44 -1.32,0 -1.44,0.96 -0.97,0.95 -0.69,1.13 0,0 -0.23,-0.27 0,0 -0.81,-0.99 -1.62,-2.35 -0.9,-0.38 -1.44,-1.59 -2.87,-3.76 -2.32,-3.47 -1.07,-1.24 -0.14,-0.27 -2.21,-2.84 -1.95,-2.93 -2.13,-3.05 -1.09,-1.87 -2.01,-1.53 -2.51,-0.47 -3,-3.46 -2.52,-3.26 -0.52,-1.83 0,0 0.65,-0.2 1.19,-0.98 1.72,-0.96 0.86,-0.64 1.15,-1.66 0.57,-1.09 1.78,0.19 0.86,1.15 0.89,1.98 1.04,0.98 0.85,1.85 2.22,0.02 0,0 0.5,0.33 2.58,0.95 5.81,4.86 0,0 z" 
                fill="rgb(151, 144, 238)" 
                stroke="white" 
                stroke-width=".7px"
                title="Sūhāj" 
                id="EG-SHG" 
            />
        </svg>