<svg xmlns="http://www.w3.org/2000/svg" viewBox="279.2124899999999 294.57732999999996 57.8900000000001 39.270000000000095" width="57.8900000000001" height="39.270000000000095">
            <path 
                d="m 335.74249,304.84733 1.36,3.12 -0.03,3.99 -1.66,1.79 -0.86,3.65 0,6.39 -2.13,3.65 0,0 -1.72,1.41 -1.28,-0.46 -2.13,0.91 -1.7,-0.46 -2.13,-1.83 -1.69,0 -1.7,3.65 -5.52,3.19 -1.28,-0.91 0.42,-2.74 -2.97,-2.74 0.42,-1.37 -2.13,-4.11 -1.27,-0.91 -2.13,-4.56 -2.97,-2.74 -2.98,-1.83 -4.67,0 -3.4,1.83 -5.1,0.08 0,0 -2.24,-2.09 0.56,-4.52 1.68,-2.41 7.01,-2.41 0.56,-2.41 2.53,-0.6 1.12,-1.21 2.25,0 0.55,-1.51 1.4,-0.9 3.09,0.3 3.08,-1.51 7.02,0.3 3.37,1.51 1.12,-1.21 1.4,0 0.56,1.21 0.84,0 0,0.9 7.57,0 -0.28,4.82 1.4,0.9 3.64,0.6 1.02,1.24 z m -53.72,-4.52 1.12,0.6 0.28,1.51 -3.92,1.21 -0.29,-2.11 1.4,-0.3 0,-0.9 1.41,0 z" 
                fill="rgb(151, 144, 238)" 
                stroke="white" 
                stroke-width=".7px"
                title="Central and Western" 
                id="HK-CW" 
            />
        </svg>