<svg xmlns="http://www.w3.org/2000/svg" viewBox="346.78249 290.07732999999996 80.17999999999967 52.08000000000004" width="80.17999999999967" height="52.08000000000004">
            <path 
                d="m 346.78249,302.73733 0.28,-1.21 4.49,-0.3 0,-0.6 0.56,0.3 2.24,-1.81 2.52,0.61 0.56,-2.11 2.81,-1.51 2.24,-3.01 3.08,-0.61 2.53,-1.8 3.36,0.3 0.28,-0.91 1.4,0 1.96,1.51 2.53,-0.3 1.12,1.51 3.64,0 0,0.6 2.81,0.9 0.56,1.21 1.96,0 1.96,1.49 1.12,0.02 4.49,3.01 0.56,2.71 1.68,1.2 3.93,-0.9 2.24,-1.51 1.13,0.31 1.67,2.41 2.53,1.2 2.24,2.41 0.84,3.92 1.4,1.5 0.84,0 -2.24,4.22 0.28,1.81 2.52,-1.81 -0.28,-1.51 0.84,-1.5 1.4,3.01 1.68,0.3 1.69,2.09 1.68,0.32 0.28,1.51 4.77,4.21 0,1.21 -1.12,0.6 0,5.72 -0.84,0.6 1.4,2.41 -3.08,4.82 -1.97,-0.9 -1.35,1.77 0,0 -3.48,-6.92 -2.97,-0.46 -2.55,-2.28 -3.41,-0.91 -1.69,0 -3.4,2.28 -2.13,0 -2.55,-2.74 -8.07,-0.45 -4.25,-1.37 -1.7,-2.29 -4.67,0.46 -3.82,1.83 -2.13,-0.92 -3.4,1.37 -2.48,-0.25 0,0 0.96,-6.7 7.34,-5.83 -0.06,-3.27 -4.91,-4.49 -0.85,0.91 0,1.36 -2.85,1.75 -2.56,-2.97 -3.08,-6.99 -4.89,2.45 -0.24,-1.12 -1.85,-1.15 z" 
                fill="rgb(151, 144, 238)" 
                stroke="white" 
                stroke-width=".7px"
                title="Eastern" 
                id="HK-EA" 
            />
        </svg>