<svg xmlns="http://www.w3.org/2000/svg" viewBox="0.28249082000005066 258.45733 476.58999917999995 185.4899999999999" width="476.58999917999995" height="185.4899999999999">
            <path 
                d="m 178.29249,357.24733 1.12,0.9 3.37,0.3 0.84,1.51 1.4,-1.21 0.56,1.21 1.39,0.3 0.01,0.6 -2.24,0.9 0.84,1.81 -0.29,0.9 -0.84,0 0.29,0.6 -2.81,1.81 -3.08,0.61 -1.96,2.41 0.56,1.8 -4.49,1.21 -1.68,4.21 -3.09,0 -0.84,-0.9 0,-1.51 -1.4,-0.6 0,-0.6 -1.68,0 -2.53,1.5 -0.56,1.51 -1.12,0.6 -1.69,-0.3 -1.12,0.9 -0.55,2.71 -1.96,-0.6 -1.12,0.6 0.29,-2.71 -0.56,-0.9 -2.53,0.3 -3.37,-2.41 0,-1.2 1.69,-1.2 1.96,-4.22 -4.2,-4.82 -1.96,-0.3 -0.55,-1.5 1.12,-1.21 0.29,-3.01 1.96,-1.5 0.84,-2.71 -3.09,-2.41 -1.4,0.3 -1.12,-1.21 -2.8,-0.3 -1.41,1.21 -2.24,0.6 -0.56,1.5 -3.08,1.21 -1.13,-0.3 -2.52,1.81 -0.29,1.5 0.56,0.3 -0.84,0.9 -1.96,-0.3 -1.13,1.21 -1.12,0 0,0.6 -1.13,-0.9 0.28,-1.81 -1.68,-0.6 -2.8,0.6 0,-0.6 -0.84,0 -9.82,3.31 -0.55,1.51 -1.13,0 -1.12,1.5 -2.8,-0.3 -1.4,0.9 -0.56,1.81 -1.119999,0.9 -4.77,1.81 -1.69,-0.6 -1.12,-2.11 -2.53,0.6 -0.28,1.2 -0.85,0.3 -0.56,2.71 -2.8,0.9 0,2.41 5.33,1.5 0,-0.9 2.24,-1.5 0,0.6 4.49,1.5 0.56,0.6 -0.55,6.04 1.96,1.21 -0.29,0.6 -3.08,-0.3 -1.69,0.9 -1.12,-0.3 -1.4,0.6 0,0.6 -4.2,1.21 -0.85,-0.6 -0.28,-1.5 -1.4,0 -0.84,-2.41 -2.53,-0.3 -0.84,0.3 -0.84,4.82 -1.12,0 -0.84,0.9 -1.12,-1.2 -2.8,-0.9 -2.8,-3.01 -1.4,0.61 -0.56,-2.41 -0.84,0 -0.84,-1.51 -2.25,0 -0.55,-0.6 -0.56,-3.01 -1.12,-1.2 0.84,-2.11 0.85,-0.3 -0.29,-1.51 -3.93,0 -0.28,0.6 -0.56,-1.81 -1.68,-0.3 0,2.71 -2.25,1.51 -1.4,-0.61 0,-1.5 -2.8,0.3 -3.92,3.31 -0.85,2.71 -2.24,1.2 1.12,3.91 -1.69,0.61 -0.84,-1.21 -1.96,0 -1.96,1.81 -0.84,0 -2.24,3.91 -1.4,0.6 0,1.5 -0.84,0.3 0,1.2 -1.13,1.21 -0.56,-0.6 -2.24,0.6 0.28,-2.41 -1.96,-0.3 -1.68,0.3 -0.84,1.21 -2.53,-0.3 -0.28,0.9 -3.37,0.6 -1.13,1.21 0,1.2 1.69,0.91 0,1.21 -1.12,0 -0.56,1.5 -2.8,-1.2 -1.96,0 -1.12,1.2 0.29,1.5 -1.13,0.3 -1.68,-2.71 2.52,-1.5 0.01,-3.91 2.24,0 0.28,-2.41 -0.84,-0.9 -1.69,0 -0.55,0.9 -0.29,-0.9 -1.65,-0.6 -0.3100002,-1.2 -2.52,-1.21 0.28,-2.11 -0.56,-1.21 0.85,-2.11 1.12,0 0.29,-3.61 -3.93,-3.31 0,-6.62 0.56,-0.9 -0.29,-0.6 -0.84,0.3 0,-1.81 1.69,-1.81 1.12,-5.72 3.9300002,-0.9 3.93,3.92 0,0.9 1.12,0.3 2.24,-3.91 -0.84,-2.71 0,-3.31 -1.4,-0.9 1.13,-3.31 1.68,-0.3 1.96,-1.51 4.2,0 3.37,-2.71 -0.28,-4.22 -2.53,-0.61 0.56,-1.5 -3.09,-0.6 -0.28,1.21 -1.12,0 -0.55,0.9 -2.83,0 -1.12,-2.41 0,-1.81 2.79,-1.81 0.57,-2.11 2.24,-0.3 1.96,-1.21 2.53,0.3 1.12,2.41 1.69,0 1.12,-2.41 1.4,-0.9 1.4,-3.01 0.56,0 0.56,-3.31 1.96,-1.21 4.21,0.3 1.96,-1.51 2.8,-0.3 1.68,-2.41 2.25,0.9 0.28,1.8 1.13,0.3 0,1.51 1.96,-0.9 0,-3.31 -0.85,-0.3 -1.12,-2.11 0.28,-3.61 6.17,-2.71 1.96,-2.11 -0.28,-1.8 0.84,-2.71 -0.56,-1.81 0.56,0 0,-1.2 1.68,-0.3 0.29,-2.41 0.56,0.9 2.52,-0.61 0.29,2.11 2.24,0 0.28,-1.51 1.4,-0.9 0,-1.21 3.09,0.3 0.56,0.9 0.84,-0.3 0.84,1.81 1.96,0 0,-1.21 2.53,-0.6 0.84,-1.2 1.4,-0.3 0.28,0.9 3.09,0.6 0.28,0.9 2.8,-0.3 1.96,1.51 0.84,1.8 0,3.01 1.13,0.6 0.84,1.81 0.84,0 -0.28,1.2 0.84,0.3 0.85,1.81 1.4,0 1.12,-0.9 1.959999,0.6 -0.839999,-2.11 1.659999,-2.11 0.3,-0.9 -0.56,-0.3 4.48,-8.13 1.96,0 0.85,-1.51 1.68,0 0.84,1.51 2.8,0 0.85,-1.51 7.57,-0.9 4.21,-2.71 4.77,-0.6 6.72,-2.11 6.97,-3.92 2.56,-2.71 0,-0.9 2.53,-2.11 4.77,-2.41 5.33,-0.9 2.24,-2.26 0,0 42.05,0.45 0,0 0,2.42 0.85,1.21 -2.53,1.51 -1.69,0 -1.4,-2.71 -3.08,-1.22 -0.29,0.89 -3.66,2.44 -6.15,-0.61 -1.12,3.02 -1.69,0.3 0.84,2.11 -0.84,2.41 3.37,0 0.84,2.41 -2.24,1.2 -2.53,0.3 -0.56,2.41 1.41,0.9 1.96,-0.9 1.4,1.51 0.85,-2.11 1.12,-0.3 1.12,1.2 0.84,-1.81 1.12,-0.3 1.12,3.92 2.25,3.01 0,1.51 -0.87,0 -0.28,-0.9 -3.64,0.6 -2.25,-2.41 -1.12,0 -0.56,0.9 1.12,2.11 0.84,0 -2.24,1.81 0.84,3.92 0.84,1.21 1.96,0 0.56,0.9 -0.29,2.71 -0.84,0.6 1.4,2.71 -1.96,0.6 0.29,1.81 -0.85,0.6 1.96,1.81 0,1.5 -1.12,1.51 0,1.51 0.84,0.6 -1.12,1.5 0.29,1.81 -2.25,-0.6 -2.52,1.81 -3.09,-0.6 -1.12,-0.9 -2.25,0 -0.84,-2.71 -3.08,-0.3 -0.85,-1.81 -2.52,-1.51 -2.25,0 -2.24,3.01 0.56,2.41 3.37,1.81 -0.29,2.41 3.09,0.9 0.56,1.5 1.4,0.9 2.53,5.72 1.12,0 0.84,1.2 0,2.11 -2.24,0.3 -1.96,1.21 -0.28,0.9 -2.24,0.9 -4.21,0.6 -1.4,3.31 -5.88,2.71 0,1.81 1.96,0.6 0.55,0.9 2.53,-1.2 0.56,2.11 1.12,0 1.96,2.11 1.12,3.31 1.13,0.6 2.8,0.3 1.68,-2.41 1.12,0.3 0.86,1.8 z m 114.94,59.91 -0.29,-2.11 -1.68,-1.5 -0.84,0.3 -0.85,1.81 -2.8,-0.3 -0.84,-1.21 -3.08,-1.2 -0.85,-2.41 1.4,-4.52 1.41,-0.3 0.55,0.6 1.4,-2.41 1.69,-0.3 0,-5.12 0.56,-2.11 0.84,-0.3 0.28,-6.02 -0.56,-0.6 1.12,0 0.29,-1.2 -2.24,-0.9 -0.82,-1.21 0.25,-1.21 1.4,-0.3 -0.28,-2.41 0.84,-0.61 0,-0.9 -1.4,-1.51 0.56,-1.5 -0.84,-0.9 0,-2.11 -0.56,0 0.28,-1.5 -2.52,-0.6 -1.12,-1.2 -2.53,0 -0.84,4.21 -10.37,0 0,-2.41 1.69,-1.81 0,-1.21 3.08,-3.31 3.36,-1.5 -0.27,-0.9 -1.69,0 -0.28,-1.2 0,-0.9 1.68,-1.21 -0.06,-1.51 -3.58,-1.5 -0.84,-1.81 3.6,-1.51 0.89,-1.5 2.24,-0.3 2.53,-1.5 1.69,0 1.12,-3.01 0.84,0.3 0.29,1.5 2.8,0.3 0.56,1.5 0.84,0.3 -0.28,3.92 -2.25,0.6 -0.28,1.81 0.84,3.6 2.52,0.91 2.19,1.81 0.06,2.71 -0.56,0.6 1.13,0.3 2.24,3.31 3.09,0.6 0.28,-1.5 2.8,-0.9 2.52,2.41 -0.28,3.01 -1.4,0.3 -0.55,-0.6 0.84,2.71 -3.93,0.6 -4.77,5.12 -0.56,3.01 2.8,3.31 1.12,-0.6 0,-2.71 2.24,-0.9 2.8,-2.41 5.33,-0.3 4.77,1.81 0,-1.5 1.13,-0.3 0.28,-2.11 1.96,0.3 0,-0.9 1.68,-0.6 1.4,0 1.13,2.71 6.17,-0.3 1.4,2.1 -0.56,2.11 -1.4,0.6 -1.12,2.11 -3.09,0.3 -1.96,-2.71 -1.4,-0.3 -0.84,1.2 -1.4,0 0.56,0.6 -0.29,1.51 -1.4,0 -0.55,1.2 -1.12,-0.3 -0.28,3.31 -1.68,0.3 -0.56,1.21 -3.37,-0.6 -0.28,3.01 2.53,-0.3 0.84,1.21 0.28,3.01 5.05,8.73 0.28,3.31 -1.13,-0.6 -0.28,-1.51 -1.4,-0.3 0,-0.6 -1.69,0.3 -2.24,-3.01 -1.4,-0.3 -0.84,-1.5 -1.69,-0.6 -1.12,-1.2 -0.29,-1.81 -2.24,1.81 0,1.2 3.09,6.32 -0.29,5.42 -2.8,-1.2 -2.53,-4.82 -3.92,3.92 0,1.51 -2.25,0.89 -1.13,-0.62 z m -212.499999,-152.08 5.04,-1.2 0.56,-0.9 13.17,-4.52 5.049999,0.9 -2.53,0.9 0,1.51 3.93,-0.9 1.68,0.3 0.29,-0.6 1.68,0.6 0.56,-1.51 1.4,0.6 0.28,-0.9 0.84,0 0,3.61 -1.12,2.41 -0.84,0.3 0.28,1.2 -3.08,4.82 -1.13,0.61 0,1.51 -0.84,0.9 -0.56,3.92 1.12,2.11 -2.24,2.41 -1.12,-0.61 0.28,4.22 1.68,4.22 -5.319999,4.82 -0.85,0 -0.84,-1.5 -5.04,-0.3 -10.66,-3.92 -1.68,0 -0.29,0.6 0,-0.6 -5.04,-0.3 -2.24,0.9 -5.05,0.3 -2.8,1.21 -4.2,0 -0.56,-1.21 -3.36,0.9 0.55,-1.51 1.96,-0.6 1.96,-3.62 2.53,-1.81 0.56,-1.51 -2.53,-3.31 0,-2.41 -2.8,-1.21 -3.37,0.6 -0.28,-1.21 2.53,-0.6 0.84,-2.41 3.65,-0.61 17.95,-6.6 z m 340.619999,170.15 0,-1.21 2.52,-2.71 -3.37,0.9 -1.12,-1.2 0,-1.21 0.84,-1.81 1.13,-0.6 0.84,-3.31 4.48,-4.82 6.73,-1.5 0.29,-2.71 1.96,-0.3 0.28,-0.6 0.84,0.3 0.84,2.1 3.93,2.11 0.84,3.61 0.56,0 -1.12,4.52 2.52,3.91 0,3.31 -3.64,0.6 -2.24,-0.9 -2.53,0.3 -0.28,-1.81 -1.12,-0.3 -0.84,1.8 -2.53,2.11 0,2.41 -2.8,2.71 -2.24,0.9 -0.85,0 -0.28,-0.9 2.53,-3.31 0,-0.9 -2.25,-1.21 -3.92,-0.28 z m -1.4,-0.31 -0.29,0.9 -1.12,0.3 0,0.9 2.52,-0.3 0.29,-1.51 -1.4,-0.29 z m -234.37,-43.34 2.8,0 0.84,-0.6 1.4,-3.92 2.53,0 2.24,-1.81 -1.68,-3.61 -3.37,-0.6 -0.84,-2.11 0,-0.9 1.96,0.3 0.85,-0.6 0.28,-2.11 1.12,-0.3 -0.29,-1.5 -1.4,-0.6 0.84,-2.11 1.96,-1.2 0.29,-0.9 3.92,0 0.56,0.6 0.84,-1.5 1.96,-0.9 0,1.51 1.4,0.6 0,0.9 -0.84,1.5 -2.8,1.81 3.37,0 0.28,1.5 -3.37,1.51 -1.96,0 -1.69,1.5 0.28,2.71 1.68,3.01 2.53,1.81 1.68,0.3 1.13,-1.51 1.68,0 0.56,1.51 1.68,1.2 -1.4,1.21 0,1.81 -2.8,1.21 -0.28,2.11 -1.12,-0.6 -1.4,-2.71 -0.84,0 -0.56,0.9 -1.68,0 -2.53,2.11 0,1.2 -1.4,0.9 -1.68,0 0,1.81 -1.12,-0.3 -0.28,0.6 -1.96,0 -0.29,-1.5 -2.8,0.3 -0.28,-2.41 -0.84,-0.6 0,-1.21 0.84,-0.32 z m 11.77,-62.33 0,0.9 3.37,-0.61 6.73,0.9 1.96,-0.6 2.24,0.9 1.4,2.11 -1.4,6.02 1.68,1.5 1.4,3.01 -0.56,3.31 -1.4,1.5 -1.68,0.6 -3.09,-2.11 -0.55,-2.41 -1.69,-2.11 0,-2.71 -3.64,-0.9 0,-1.51 -0.84,-0.3 -0.85,-1.81 -5.32,-0.3 -1.4,-3.01 1.68,0 -0.28,-2.11 2.24,-0.26 z m -118.859999,95.44 0.55,2.11 2.53,-0.3 1.4,0.9 -0.28,2.11 -3.36,0.6 0.28,3.01 1.69,0.3 0.28,2.41 1.12,1.2 -0.56,0.6 -1.4,-0.9 -1.96,0.3 -0.56,1.81 -1.4,0 -0.56,-0.9 -1.96,0.9 -1.68,-0.3 -0.56,1.5 -3.08,0.9 -0.56,-1.21 -1.96,-0.6 0,-0.9 -1.39,-0.6 0.82,-3.31 3.37,-1.81 1.96,0 0.56,1.5 1.12,0 0.56,-1.81 0.84,0.6 1.69,-1.5 0,-1.5 -1.1,-0.6 0.54,-3.31 1.69,-1.21 1.37,0 z m 76.529999,-20.17 -0.56,-1.51 -1.96,0 -0.56,-1.21 -1.96,-0.3 -0.84,-1.5 0.84,-5.12 4.21,-4.22 2.53,0.3 2.52,2.71 -0.28,1.2 0.84,1.51 -1.12,0.6 0,1.81 1.12,0 0.28,-0.9 1.68,0.3 -0.28,5.72 -3.37,1.21 -0.56,1.5 -2.53,-2.1 z m 269.98,-0.3 1.68,1.81 -0.55,6.02 -1.69,1.8 -3.37,1.81 -1.68,-1.51 -1.96,0.3 -0.84,-1.21 -1.13,0 0,2.71 -1.13,0.3 0,-1.51 -1.4,-1.5 0.56,-3.31 -0.56,-3.91 12.07,-1.8 z m -213.35,-111.12 0.84,2.71 -3.93,2.41 -0.56,1.81 1.12,0.9 0.84,-1.81 3.93,0 1.13,3.31 -2.53,3.92 -2.24,0 -2.79,1.51 -0.29,-1.51 -1.68,-0.9 -0.84,-1.51 0.28,-1.8 -1.96,-2.11 0.28,-1.81 -0.85,-2.11 9.25,-3.01 z m -138.209999,113.23 0,0.6 3.09,1.21 1.12,2.71 2.25,0.6 0.28,-0.9 1.4,0 1.69,2.41 1.12,0 0.84,-0.9 0.85,0.3 1.68,2.41 -0.56,2.41 -1.12,0 -0.29,-1.2 -1.96,-1.5 -0.84,0.3 0.84,1.81 -0.55,1.51 -1.41,-0.3 -0.55,-2.41 -0.56,1.2 -1.4,0 -0.29,-1.5 0.56,-0.9 -0.84,-1.5 -3.37,0.6 0,1.81 -1.4,0.3 0,1.2 -2.53,-0.6 0,-2.11 1.13,-1.5 -0.84,-1.2 0,-1.81 0.56,-2.71 1.1,-0.34 z m 148.859999,-83.41 1.69,1.81 -0.84,3.31 -4.77,3.62 -3.09,-0.9 -1.13,-1.5 0.85,-3.62 1.4,-0.3 0.84,-1.81 5.05,-0.61 z m 238.02,81 0.85,1.5 -1.96,3.92 0.56,1.51 -0.56,2.71 -1.13,0.9 -3.64,-0.6 -1.13,-1.2 -0.56,-4.51 1.4,-0.9 1.41,0.6 0.84,-3.31 1.68,-0.3 1.13,0.9 1.11,-1.22 z m -213.35,-104.8 0,5.12 -4.2,0 -1.12,-2.41 1.96,-1.81 1.96,0 1.4,-0.9 z m 227.09,114.13 -0.56,0.9 -0.85,0 -0.84,-1.8 1.69,-0.9 0,-0.9 1.12,-0.9 0.56,-3.92 1.69,-0.6 -0.29,3.91 -2.52,4.21 z m -471.8299992,-39.44 0.29,0.6 1.1,-0.6 0.86,0.9 -0.56,2.11 -1.4,0.9 -0.84,-0.3 0,-1.51 -1.39999998,-0.6 0.28,-1.5 1.66999998,0 z m 302.2099992,-8.73 0,2.41 -1.68,0.9 -1.96,-0.6 1.12,-2.41 1.41,-0.9 1.4,0 -0.29,0.6 z m -213.899999,74.66 0.28,2.71 -1.12,1.5 -1.13,0 -0.56,-2.1 1.69,-2.11 0.84,0 z m 136.249999,-144.23 1.13,1.51 0,1.2 -2.25,0.6 -0.28,-1.21 -1.4,-0.9 2.8,-1.2 z m -158.679999,126.47 0.56,0.3 -0.56,2.11 -1.96,-0.61 -0.29,1.21 -1.4,0 -0.84,-0.9 0.28,-0.6 3.36,-0.6 0.85,-0.91 z m 22.15,-7.52 0.84,1.5 1.68,0.9 -0.28,1.2 -1.13,0 -1.4,-1.2 -0.55,-2.11 0.84,-0.29 z m -18.5,5.12 0.56,2.98 -0.85,0.33 -1.12,-0.6 -0.29,-1.5 1.7,-1.21 z" 
                fill="rgb(151, 144, 238)" 
                stroke="white" 
                stroke-width=".7px"
                title="Islands" 
                id="HK-IS" 
            />
        </svg>