<svg xmlns="http://www.w3.org/2000/svg" viewBox="340.89248999999995 231.58732999999992 45.42000000000013 55.49000000000004" width="45.42000000000013" height="55.49000000000004">
            <path 
                d="m 374.03249,247.11733 0,9.59 -2.13,2.28 6.8,6.85 0.85,1.83 -1.09,0.3 0,0 -4.48,-2.59 -0.57,-1.2 -1.12,-0.31 -2.24,-2.41 -0.56,2.11 2.24,2.41 1.68,0.61 1.97,2.71 1.11,0.3 0,0.9 3.93,2.72 0,0.9 2.24,-0.3 1.13,0.6 -0.29,0.9 1.12,0.91 0,1.5 1.64,1.51 0.05,1.2 -1.41,1.21 -2.8,-2.11 -2.8,-3.61 -3.08,-2.11 -8.41,-9.04 -2.81,-1.81 -1.4,1.21 -0.56,2.41 -0.56,0 0,1.2 -1.4,1.21 -0.29,1.2 1.4,2.71 0,1.81 0.85,0.3 -0.85,7.23 -2.8,2.11 -1.12,0 0,0.6 -2.24,-0.3 -1.12,0.6 -0.56,1.81 -0.59,0.01 0,0 -0.13,-5.25 -2.12,-1.37 0,-1.83 -6.79,-9.13 -2.56,-6.85 -0.85,-3.2 1.71,-4.11 0,0 2.12,-5.48 0,-5.03 -1.7,-4.11 -2.55,-1.82 0,-1.37 1.27,-1.83 -0.42,-1.83 0,0 1.28,-2.28 5.52,0 0,0 1.7,2.28 0,1.83 1.27,0 1.7,1.37 -0.85,4.11 2.55,1.37 0,3.66 1.27,0.45 0,2.29 1.7,0 1.28,-1.37 1.7,0.45 2.97,2.29 6.8,-4.57 2.55,0.46 z" 
                fill="rgb(151, 144, 238)" 
                stroke="white" 
                stroke-width=".7px"
                title="Kowloon City" 
                id="HK-KC" 
            />
        </svg>