<svg xmlns="http://www.w3.org/2000/svg" viewBox="247.25249000000005 192.78732999999997 70.31000000000026 73.79000000000005" width="70.31000000000026" height="73.79000000000005">
            <path 
                d="m 315.82249,235.69733 -0.63,1.79 1.05,0.95 -2.55,2.28 -2.13,-1.37 -2.55,1.37 -1.27,-0.91 -4.25,-0.91 -1.7,2.28 -1.27,-0.46 -1.28,0.46 0.86,1.83 3.82,0.91 0.19,3.52 4.48,1.05 0.22,3.34 -1.14,2.69 -8.59,7.44 2.06,3.72 0,0 -1.46,0.9 -3.08,0 -6.73,-5.12 1.13,-3.62 1.96,0.6 10.1,-3.61 -0.28,-1.81 -1.69,-0.3 -5.04,1.81 -1.96,-0.9 -1.68,-7.84 4.77,-1.2 -0.29,-1.51 -1.4,-0.3 -3.93,1.51 -0.55,-3.31 -3.09,-7.84 -0.84,-0.3 -1.4,1.21 -3.09,-2.71 0.29,-7.23 -1.69,-3.32 -1.4,0.6 0,-1.2 -0.56,0 0.56,-2.27 0,0 0.38,-0.11 0,0 0.2,0.02 0,0 7.85,-4.03 4.25,-6.85 12.15,-0.91 -0.26,-5.03 1.28,-2.74 -0.42,-1.37 -1.7,-0.46 0,-1.37 8.93,-2.28 0.85,0.91 -1.22,2.12 0.38,2.9 2.97,0.46 2.13,-1.37 0,0 0,2.74 -1.28,1.37 -2.55,0.46 -0.85,2.29 2.55,3.2 -2.13,1.37 -0.85,2.28 1.7,4.11 -0.43,1.37 -1.69,0.91 -2.55,3.65 0.85,9.14 2.97,1.37 0,1.37 2.52,2.26 z m -47.26,-20.34 4.2,0.6 3.93,2.41 -0.29,6.03 1.96,3.01 -0.28,1.81 1.4,2.11 1.4,0.6 -1.12,4.82 0.28,1.2 1.96,1.51 -0.55,2.41 1.4,2.71 -1.69,2.71 0.56,2.11 -1.13,0.3 -0.84,3.31 -1.96,1.21 -0.84,3.32 -1.68,0 -2.25,-3.01 -1.96,0 -0.84,1.2 -1.12,0 -1.96,-0.9 -0.84,-2.11 -2.25,0 -0.84,0.9 0.28,3.01 -3.36,0.3 -3.65,-5.12 1.13,-4.52 1.4,-1.81 -0.56,-1.51 -0.84,0.9 -0.56,-0.3 0.28,-1.2 0.85,0 0,-0.61 -1.12,0.3 0,-3.92 1.68,-0.3 -1.4,-0.9 -4.2,-0.6 -1.12,-1.81 0,-2.71 -2.25,0 -0.84,-2.41 0,-2.11 0.84,-1.51 -1.12,-3.32 -1.4,-1.51 0.28,-1.21 4.49,-2.71 2.52,-0.3 0.85,-2.11 1.96,0.3 0.56,2.11 1.69,0.3 3.08,-2.11 3.37,0 0.84,-0.9 1.67,0 z" 
                fill="rgb(151, 144, 238)" 
                stroke="white" 
                stroke-width=".7px"
                title="Kwai Tsing" 
                id="HK-KI" 
            />
        </svg>