<svg xmlns="http://www.w3.org/2000/svg" viewBox="371.9024899999999 246.6573300000001 42.920000000000016 53.96999999999994" width="42.920000000000016" height="53.96999999999994">
            <path 
                d="m 392.30249,248.02733 5.95,-0.45 2.98,6.39 1.27,5.02 1.28,1.37 1.69,0 3.4,2.29 1.7,0 0.85,-1.37 1.28,0.45 -0.85,3.66 -2.13,2.28 2.98,0.46 1.69,1.82 -3.39,5.48 -2.13,1.37 0.85,2.74 1.7,0.46 0.43,1.37 1.27,0.46 0,2.74 1.27,1.37 0.43,4.11 -3.4,-0.92 -0.85,1.37 0.85,0.91 -0.85,0.92 1.28,2.74 -1.71,2.28 1.28,0.91 0.43,1.83 1.37,-0.37 0,0 -0.84,0.91 -1.12,0 -4.2,-1.2 -0.84,-1.21 0.27,-2.71 -5.04,-4.52 -2.52,-4.52 -5.33,-4.22 -1.97,-2.11 -0.56,-1.8 -4.2,-3.62 -0.56,-2.41 -3.36,-1.81 -3.65,0 -0.84,-2.53 0,0 1.09,-0.3 -0.85,-1.83 -6.8,-6.85 2.13,-2.28 0,-9.59 0,0 4.25,0.46 2.13,-0.92 2.97,2.74 z" 
                fill="rgb(151, 144, 238)" 
                stroke="white" 
                stroke-width=".7px"
                title="Kwun Tong" 
                id="HK-KU" 
            />
        </svg>