<svg xmlns="http://www.w3.org/2000/svg" viewBox="248.6624899999992 0.27732880000002247 256.19000000000005 104.29000120000003" width="256.19000000000005" height="104.29000120000003">
            <path 
                d="m 387.15249,40.727329 1.4,-1.51 2.24,-4.83 4.2,1.51 0.84,-1.21 2.53,-1.21 0.29,-2.41 1.12,0 2.53,1.81 2.8,-1.21 0.28,-1.51 1.69,-1.21 0.84,-5.73 2.24,-2.72 0,-3.02 0.85,-0.61 0.55,-2.71 1.12,-0.3 0.84,0.9 1.13,-1.21 1.68,0.3 0.56,0.6 0,3.02 1.4,1.51 1.69,-1.21 -0.29,-1.81 2.53,0 1.13,1.51 0.84,0 0.28,-3.62 2.8,0.3 0.84,1.21 1.13,-0.6 0.84,0 0,0.6 -3.37,3.32 0.29,0.9 3.64,-2.11 1.4,0.3 -0.84,1.51 -2.8,0.6 -0.29,2.41 -2.52,2.72 0.28,0.9 1.69,0.61 1.96,-1.21 0.55,-1.51 2.25,0.3 1.12,1.51 -1.96,3.32 0,1.81 1.13,-0.6 1.13,-2.41 2.8,0.3 0.84,1.81 -0.56,2.11 -2.53,0.3 -1.4,1.81 -0.84,2.41 0.84,3.62 2.53,0 0.84,-1.51 2.53,0 0.56,1.21 3.36,0 1.68,-2.11 -1.12,-1.21 0.55,-1.21 1.96,1.81 5.33,-0.9 -2.8,5.13 0.84,1.81 1.96,-0.6 1.68,-2.11 1.96,-0.91 1.13,0.3 0.28,2.41 -0.84,0.3 0,0.91 -3.08,1.81 -0.56,2.72 -2,0.34 -0.28,2.72 -0.85,0 0,2.41 -0.84,0 -1.13,-2.11 -1.96,-0.91 0,-0.6 -2.25,-0.3 0,1.21 0.85,0 -0.85,2.11 2.25,0.3 -1.13,3.92 1.4,1.51 0.56,0 0,-1.51 1.96,-0.6 7.01,-0.61 0.28,1.16 -1.12,1.55 4.2,0 0.28,1.81 1.13,0.6 0,-2.11 2.8,-0.61 0.56,1.21 0.84,0 0.84,2.72 2.24,0.3 1.41,-1.51 -1.13,-0.6 0,-0.91 1.4,-1.51 -1.4,-1.81 -1.12,0 -1.12,-1.81 5.04,0 0.84,-0.9 1.13,0 0.84,0.6 0.28,1.51 1.69,0.91 0.84,-2.72 0.84,-1.21 1.4,0 0.56,-2.71 1.96,-1.81 0.29,-1.51 -1.13,-1.51 0.56,-3.62 -1.13,-0.91 0.28,-1.21 6.73,2.72 1.96,3.62 -0.84,0.6 0.28,0.9 2.53,0 1.96,2.11 -0.29,1.21 -1.12,0 -1.13,2.41 -1.4,0.6 -0.84,1.51 -4.49,1.21 -1.68,2.72 -1.09,0 -2,-1.51 -2.24,0.6 -1.68,3.02 -1.69,0 -4.21,2.72 0.84,1.51 1.96,0 2.53,2.7 1.68,0.62 1.4,-1.81 3.37,-1.81 2.8,0 1.96,-1.51 5.05,0 5.32,-2.11 2.53,-0.3 2.53,-3.02 4.72,-2.11 0,0 0.61,1.64 -2.13,1.37 -1.28,2.74 -3.82,2.74 -4.25,0.46 -7.22,5.03 -1.7,2.29 -2.55,0.92 -9.35,6.4 -1.27,0 -4.25,-2.29 -2.55,0 -1.28,-1.83 -8.92,-5.03 -6.37,-0.46 -2.98,1.83 -2.97,0 -1.27,-0.92 -1.7,1.37 -2.55,0 0.42,1.37 -0.85,0.92 -2.56,0.46 -12.32,-0.46 -2.13,-1.83 -4.25,-5.94 -2.97,-1.83 -0.42,-2.28 -2.13,0.46 -0.85,0.92 0.42,2.74 -0.85,0.91 -1.28,-0.46 -2.55,2.28 -2.55,0.91 -1.7,3.66 -1.7,1.83 -2.9,0.93 -0.85,0.92 -0.86,4.11 -4.24,-3.2 -2.55,0 -4.25,-1.37 -5.53,0.92 -6.8,-2.75 -5.1,-0.46 -1.69,-1.83 -2.56,0.46 -5.1,-1.83 -4.67,0.46 -3.4,1.37 -4.25,3.66 -2.55,7.32 -1.28,0 -1.27,-2.29 -1.28,-0.46 -3.82,0.92 -0.43,-4.57 -6.79,1.37 -4.67,0 -1.28,1.37 0,1.37 2.55,4.12 0,2.74 -2.97,-0.91 -2.13,1.83 -0.42,1.83 -1.7,2.29 -5.1,1.83 -7.22,5.490001 -1.28,0.46 -2.55,-0.46 -3.4,2.28 0,0 -5.95,0.92 -2.55,-3.2 -1.27,0 -2.56,-2.740001 -1.27,-0.46 -6.37,2.280001 -4.67,-0.460001 -2.97,2.290001 -3.4,0.91 -7.65,0.46 0,-15.100001 2.97,-7.31 0,-4.12 0.86,-1.37 -2.13,-3.2 -0.85,-2.74 1.69,-2.29 -0.85,-5.94 -1.28,-0.91 0,-2.74 0.86,-0.92 1.27,0.46 1.28,-1.83 -1.7,-1.83 0,-2.29 -0.85,-0.92 1.27,-5.94 -2.13,-1.83 -1.27,0 -2.13,2.74 -1.7,0.46 0,0 2.54,-4.6 -0.42,-1.81 -5.52,-4.58 -0.42,-1.37 7.22,-2.74 3.4,-4.12 2.97,0 3.78,3.18 5.14,-0.89 0.42,1.83 -0.85,1.37 1.28,0.46 1.7,-0.92 1.28,-2.29 1.7,-0.46 1.27,-1.37 0.42,4.12 1.28,2.29 2.55,0.91 1.7,-0.91 1.7,-2.29 0,-2.29 4.25,0 0.85,-1.83 1.27,0 -0.42,-1.83 3.83,-2.74 0.85,0.91 1.27,0 2.12,-2.29 8.92,-1.37 1.28,-0.91 4.25,2.74 3.82,-0.91 0.85,-1.37 -0.85,-0.92 4.25,-3.2 -0.42,-1.83 -2.13,-0.91 2.13,-2.75 0,-2.2800002 2.13,-0.46 1.27,0.91 1.28,-0.91 0.85,-4.57 2.99,-2.75 1.7,0.46 1.28,1.83 1.27,0 1.7,-1.83 2.55,0 2.55,1.37 2.97,0 1.7,-0.91 1.7,1.83 0.43,3.2 1.7,0.91 5.52,-0.46 5.52,1.37 1.28,-0.92 8.92,-2.29 2.97,1.83 1.28,-0.91 8.49,1.83 2.98,0 5.52,4.1200002 2.13,0.46 3.39,3.66 -1.7,2.74 0,2.24 -1.96,0.3 0,0.6 -1.13,-1.51 -5.32,0.6 -1.13,2.11 -1.4,0.6 -0.84,4.53 -1.4,0.91 -0.29,1.21 -0.84,0.91 -3.37,-0.6 -0.56,1.21 0.29,1.81 0.56,0 0,1.51 -1.13,1.51 0.56,4.22 1.12,0 0.29,-1.21 3.64,0.3 1.96,-2.11 0.56,0.3 0,2.11 1.43,0.61 z m 75.98,-32.8900002 0.84,0.6 -0.84,2.4200002 0.84,1.21 6.45,0.6 6.73,-0.6 2.8,0.91 7.01,0.3 -1.68,0.3 -1.69,2.4 -1.96,0.31 0,0.6 -3.36,-1.81 -0.29,1.81 -2.52,-0.3 -0.29,1.81 -1.4,1.21 -5.61,-4.83 -1.4,0.91 -0.84,-0.6 -1.4,1.51 -0.56,3.32 3.08,0.91 0.29,2.11 1.4,2.11 4.2,3.32 2.53,-0.6 0.55,1.81 -1.96,3.62 -4.49,-0.6 0.28,-3.02 -0.55,-0.6 -2.25,0.3 -2.24,2.11 -6.17,0 -1.13,0.3 0,0.59 -2.23,-0.6 0,-1.51 2.24,-1.81 0,-2.42 2.53,0 1.12,-1.51 0.84,0 -0.56,1.51 1.4,0 1.13,-0.9 -1.4,-2.72 -1.96,-1.21 0,-0.91 -4.49,-3.32 0,-1.2 2.53,0 0.84,-0.91 -1.96,-2.41 0.29,-2.7200002 0.84,0 1.12,-1.81 3.35,0 z m 27.19,19.3100002 1.4,3.92 0,2.41 -1.12,0.3 -0.29,4.53 1.69,3.02 -0.85,0 -0.84,1.51 -1.4,0 -0.56,-1.81 -2.8,0 -2.24,-2.41 -5.04,-2.11 -0.29,-4.83 1.69,-2.11 3.08,1.81 1.96,4.52 1.96,0.3 1.68,-3.02 -0.84,-3.02 0.28,-2.11 0.84,-0.91 1.69,0 z m -11.5,-5.13 1.96,2.11 -3.92,3.32 -1.69,-0.3 -0.28,-3.32 2.24,-1.81 1.69,0 z m -83.26,2.12 0.84,1.21 -0.84,2.41 -1.4,0.91 -1.96,0 -1.41,-2.72 2.24,-0.3 2.53,-1.51 z m 60.84,20.52 0.28,0.6 1.96,0.3 -0.28,1.51 -3.37,-0.6 -0.29,-1.51 1.7,-0.3 z m 44.57,-23.24 1.12,1.81 -0.55,1.51 -1.12,0.3 -1.13,-3.02 1.68,-0.6 z" 
                fill="rgb(151, 144, 238)" 
                stroke="white" 
                stroke-width=".7px"
                title="North" 
                id="HK-NO" 
            />
        </svg>