<svg xmlns="http://www.w3.org/2000/svg" viewBox="309.45249 135.45732999999984 113.87 100.24000000000012" width="113.87" height="100.24000000000012">
            <path 
                d="m 390.60249,220.16733 -3.82,0 -2.12,1.37 -2.13,0 -0.42,1.82 -2.56,0.46 -1.27,-0.46 -1.7,0.92 -4.25,0.46 -2.55,0 -1.27,-0.92 -2.13,3.66 -2.55,0.45 -1.27,-1.82 -1.7,0 -0.85,0.91 0.34,2.74 -5.01,0.92 -2.98,-0.92 -3.82,1.83 0,0 -5.52,0 -1.28,2.28 0,0 -2.98,-0.46 -2.12,0.92 -2.55,-0.46 -2.55,-2.28 -1.28,1.37 -1.27,0 -1.7,2.28 -3.83,-1.83 -2.11,0.92 -1.7,-0.92 -1.28,2.29 -2.55,0 0,0 -2.55,-2.29 0,-1.37 -2.97,-1.36 -0.85,-9.14 2.55,-3.66 1.69,-0.91 0.43,-1.37 -1.7,-4.11 0.85,-2.28 2.12,-1.37 -2.54,-3.2 0.84,-2.29 2.55,-0.45 1.28,-1.37 0,-2.74 0,0 2.13,-2.29 4.67,-1.37 2.55,-3.2 2.97,-2.28 1.28,-2.74 3.82,-2.75 0.85,-1.37 -0.85,-5.94 1.7,-0.91 0,-3.2 -0.42,-3.2 -1.71,-1.83 0.43,-3.84 0,0 1.64,-0.62 4.79,0 0.94,-2.15 1.34,-0.54 9.74,0.3 1,-3.14 12.93,-0.04 1.23,-6.23 1.05,-2.09 0.95,0 0.98,2.81 0.72,0.06 0.9,-3.49 3.33,0.38 1.02,-1.5 0,0 3.76,3.92 3.36,0 -0.83,2.71 0.27,5.73 -1.4,4.52 1.69,1.81 0.84,0 1.4,3.01 -10.66,10.86 -1.11,2.71 -1.69,0.31 -0.55,1.8 -2.53,1.81 -0.84,2.11 -3.09,2.11 0,0.91 -1.96,1.51 -0.28,1.5 -1.69,1.51 0,0.91 -3.92,4.21 -1.12,0.3 0.28,0.61 2.25,-0.61 1.4,-1.8 1.11,-0.3 1.13,-1.21 0.56,-2.11 1.97,-1.21 1.4,-2.41 2.24,-1.21 -0.28,-0.9 1.12,-0.3 1.4,-2.11 2.8,-2.11 1.4,-3.01 1.97,-1.21 1.12,-2.11 1.12,-0.3 2.52,-2.72 5.33,-6.93 2.8,-0.3 0.28,-1.51 -1.12,-1.81 0.84,-0.9 -0.27,-2.11 0.83,-0.61 1.13,-4.52 -0.29,-1.81 0.84,0 0.29,-3.02 3.08,-5.72 3.65,-1.21 3.08,1.21 0.56,-1.81 1.68,-0.31 2.8,-2.41 0,-2.71 -1.68,-1.21 0,-1.2 1.13,-0.31 0.84,0.61 1.11,-1.81 2.81,0.3 1.96,2.41 1.12,0 0.56,-0.9 1.41,0.6 -0.28,0.6 -1.41,0 -1.96,2.12 0,1.5 1.41,0.3 0,0 2.61,-0.36 -1.28,4.12 2.13,0.91 0,4.57 -1.71,9.14 3.83,2.29 0,5.48 1.7,1.83 0,2.74 0.85,0.91 -1.7,3.66 0,4.57 0,0 0,4.11 1.7,1.83 0,1.37 -7.65,0 0.85,2.74 -2.97,4.57 -2.13,0.46 -0.85,2.74 -1.7,1.83 -3.4,2.74 -2.12,0.45 -0.85,0.92 -5.52,0.45 -1.71,1.38 -0.84,2.74 -2.55,4.11 0.42,5.48 z" 
                fill="rgb(151, 144, 238)" 
                stroke="white" 
                stroke-width=".7px"
                title="Sha Tin" 
                id="HK-ST" 
            />
        </svg>