<svg xmlns="http://www.w3.org/2000/svg" viewBox="299.0924900000001 231.58733 46.0499999999999 36.5" width="46.0499999999999" height="36.5">
            <path 
                d="m 315.82249,235.69733 2.55,0 1.28,-2.29 1.7,0.92 2.11,-0.92 3.83,1.83 1.7,-2.28 1.27,0 1.28,-1.37 2.55,2.28 2.55,0.46 2.12,-0.92 2.98,0.46 0,0 0.42,1.83 -1.27,1.83 0,1.37 2.55,1.82 1.7,4.11 0,5.03 -2.12,5.48 0,0 -1.28,-0.91 -11.48,0 -0.84,0.91 1.22,1.38 -1.65,0.45 -3.44,2.77 -0.81,-1.86 -2.12,-1.83 -1.71,1.83 -0.03,1.82 0,0 -6.06,-4.46 -1.97,0 -1.4,2.4 2.81,1.82 1.12,1.8 -3.36,3.32 0.56,1.81 -0.84,1.5 -1.13,0 -2.24,-2.71 -6.17,-0.3 -1.06,0.6 0,0 -2.05,-3.72 8.59,-7.44 1.14,-2.69 -0.23,-3.34 -4.48,-1.05 -0.19,-3.52 -3.82,-0.91 -0.85,-1.83 1.28,-0.46 1.26,0.46 1.71,-2.28 4.25,0.91 1.27,0.91 2.55,-1.37 2.12,1.37 2.55,-2.28 -1.05,-0.95 z" 
                fill="rgb(151, 144, 238)" 
                stroke="white" 
                stroke-width=".7px"
                title="Sham Shui Po" 
                id="HK-SS" 
            />
        </svg>