<svg xmlns="http://www.w3.org/2000/svg" viewBox="286.44249000000036 311.9573299999999 144.6599999999998 87.74000000000012" width="144.6599999999998" height="87.74000000000012">
            <path 
                d="m 391.08249,389.76733 0.84,2.41 0.84,0.3 1.13,2.11 -0.56,3.31 -4.49,1.2 -2.24,-0.6 -1.12,0.9 -2.8,0.3 -2.24,-3.01 -0.28,-3.91 0.84,-1.81 -0.56,-7.23 3.03,-3.31 0.33,-2.41 -1.96,-3.31 -0.84,0 0,-0.9 -1.13,0 -0.84,1.2 -1.69,0 -1.12,1.21 0.56,1.21 -1.69,2.41 -4.21,-0.3 -1.4,2.41 -1.13,0.6 -2.24,-0.3 -0.56,-2.41 0.85,-3.31 0.55,-0.3 0.29,0.6 1.4,-1.81 1.68,0.3 0.56,-0.6 0,-1.5 -1.4,-2.71 -3.37,-0.3 -3.64,-2.71 0,-1.21 2.52,1.21 1.12,0 0.56,-0.9 -1.4,-4.82 1.68,-0.9 0,-4.21 -0.84,-2.41 -1.68,-1.81 -4.77,2.41 -2.53,-1.81 -1.96,-3.61 0.56,-2.11 1.13,-0.6 -0.56,-1.81 -1.69,-0.6 -0.28,0.6 -3.64,-0.3 -2.53,0.61 -0.84,1.2 0.28,1.21 -2.53,2.41 -1.68,3.31 -0.28,3.91 -1.13,1.51 0,1.5 -1.69,0.9 -5.32,-3.61 -0.29,-1.21 0.85,-1.81 -1.41,-0.6 -0.55,-4.22 -1.13,-1.81 -1.96,-0.6 -1.12,-4.52 -15.42,-0.9 -4.21,-0.6 -0.28,-0.6 -3.09,0.9 -2.24,-0.6 -1.69,-3.31 -2.24,-1.21 -0.56,-4.82 -2.52,-1.81 -0.85,-3.01 -2.52,-3.01 -3.09,-7.23 -3.37,-1.51 -0.84,-1.22 0,0 5.1,-0.08 3.4,-1.83 4.67,0 2.98,1.83 2.97,2.74 2.13,4.56 1.27,0.91 2.13,4.11 -0.42,1.37 2.97,2.74 -0.42,2.74 1.28,0.91 5.52,-3.19 1.7,-3.65 1.69,0 2.13,1.83 1.7,0.46 2.13,-0.91 1.28,0.46 1.72,-1.41 0,0 6.8,3.65 5.53,1.37 1.27,-0.46 0.42,-1.37 1.7,0 1.7,1.83 5.1,0.91 12.36,-3.87 0,0 2.48,0.26 3.4,-1.37 2.13,0.91 3.82,-1.83 4.67,-0.46 1.7,2.28 4.25,1.37 8.07,0.45 2.55,2.74 2.13,0 3.4,-2.28 1.69,0 3.4,0.91 2.55,2.28 2.97,0.46 3.48,6.92 0,0 -0.89,1.24 -2.52,-0.6 -0.29,0.9 2.25,3.61 2.24,0.9 0.28,1.81 -0.56,0.9 3.09,3.31 -1.13,3.31 -0.84,0.3 0,1.21 1.96,0.3 0.28,0.6 4.77,-0.3 0.56,-0.6 1.13,0.6 -0.29,1.51 -1.12,0.9 -2.8,-0.6 -0.29,1.2 -2.8,0 -0.84,-0.9 -1.13,0 -1.12,1.51 1.12,0.9 0,1.5 2.53,2.41 1.13,2.71 0.55,4.82 -0.55,6.02 3.92,-0.6 0.56,1.81 1.96,0.9 -0.84,2.11 0.28,3.01 -1.12,0.3 -1.41,-1.2 0,-1.21 1.13,-0.3 0.29,-1.21 -2.81,0.3 -1.12,-0.9 -0.84,2.1 -1.69,0 -1.13,-1.5 -5.88,1.21 -4.49,-2.11 -0.84,-3.01 1.4,-0.9 0.29,-1.5 -1.13,-2.71 0,-2.11 -0.56,-0.6 -2.53,0.3 -1.68,-1.81 0.28,-0.9 -2.24,-2.11 1.4,-4.52 -1.12,-1.2 0,-4.82 -0.85,-2.71 -0.84,-0.6 0.84,-3.61 -3.64,-3.01 -3.64,0 -1.12,0.9 -1.13,-5.42 -1.68,-0.9 0,5.72 1.68,0 3.93,3.31 1.12,6.02 -0.29,2.41 -0.28,0.6 -3.31,0.6 -1.73,-3.01 -1.13,-0.6 -1.96,3.31 -3.37,0.6 -0.28,3.31 -2.24,1.5 -0.85,2.41 0.29,3.01 1.96,0.6 0.56,1.21 2.8,0.9 2.53,2.11 -0.28,3.31 -1.4,-0.3 -0.85,2.41 -1.68,0.6 3.18,6.64 z m -64.49,-46.07 0.85,0.3 0.28,2.41 2.8,3.31 0,2.71 -0.84,2.11 -0.56,0 -0.28,2.11 1.68,0.9 0.56,4.82 -1.13,0 -1.68,-1.81 -1.12,-4.52 -2.24,0 -1.4,-1.21 -1.12,0 -1.12,-3.31 -2.8,0.9 0,-1.2 -1.96,0 -1.13,-3.92 -1.4,-0.9 0,-0.9 1.96,-1.2 5.88,0.6 4.77,-1.2 z m 29.72,9.64 2.24,1.81 0,0.9 -1.68,1.81 -1.69,-0.3 -1.12,1.2 -1.41,0 -2.24,-2.71 0.29,-1.51 5.61,-1.2 z m -2.52,20.78 2.8,1.5 0.29,2.71 -1.13,-0.3 -0.84,0.9 -1.69,-0.6 -1.12,-3.92 1.69,-0.29 z m 74.85,-9.64 0.29,1.51 -0.56,0.6 -3.1,-1.21 0.56,-0.9 2.81,0 z" 
                fill="rgb(151, 144, 238)" 
                stroke="white" 
                stroke-width=".7px"
                title="Southern" 
                id="HK-SO" 
            />
        </svg>