<svg xmlns="http://www.w3.org/2000/svg" viewBox="279.6824899999999 10.24732899999998 332.5899999999999 171.99000099999995" width="332.5899999999999" height="171.99000099999995">
            <path 
                d="m 379.86249,101.67733 -1.4,2.41 0.56,2.41 -1.12,3.02 0.29,2.41 3.08,1.51 2.53,-0.3 0.56,0.9 3.64,0 1.96,2.41 1.4,0.6 2.24,-0.3 0,1.51 -4.21,0.6 -1.4,-0.6 -0.28,-2.41 -1.13,-0.3 -2.24,2.11 1.4,1.75 5.04,1.87 0.56,1.21 -1.13,1.21 -3.92,-0.91 0.56,1.81 -1.4,0.91 -1.4,-2.11 -4.77,-0.3 -0.55,-1.21 1.4,-0.61 0.28,-1.81 -1.68,-0.3 -1.69,0.91 -1.96,0 -0.84,-1.81 0.56,-1.81 2.52,-0.3 0,-0.6 -0.55,-0.6 -2.25,0 -2.8,-1.51 -0.28,-1.51 -1.13,0 -2.52,2.71 0.28,3.02 -1.68,1.81 -3.93,1.81 -5.05,-1.5 -5.88,-0.61 -1.4,0.91 -0.29,2.41 -2.24,0.6 -0.84,1.51 1.68,3.55 2.25,1.57 2.24,0 0,1.51 2.24,1.51 2.53,0.61 2.24,-1.21 4.2,0.3 1.69,0.6 0.28,1.51 1.4,1.51 3.93,0.91 0.84,0.91 0,2.11 -1.13,0.91 0,0.91 1.69,0.6 0.84,2.71 2.8,0.6 1,0.91 0,0 -1.02,1.5 -3.33,-0.38 -0.9,3.5 -0.72,-0.06 -0.98,-2.81 -0.95,0 -1.05,2.1 -1.22,6.23 -12.94,0.04 -0.99,3.13 -9.74,-0.3 -1.34,0.54 -0.95,2.15 -4.79,0 -1.64,0.62 0,0 -5.74,-0.6 -3.41,1.53 -2.56,-0.71 -8.68,-0.03 -0.52,-4.15 -16.86,-0.71 -4.37,1.55 0.07,-1.71 0,0 -0.51,-4.15 -7.69,-9.65 -0.74,-5.89 -2.53,-4.08 -1.7,-5.03 0.82,-2.84 6.41,-8.58 2.42,-2.18 0.34,-1.72 4.89,-6.16 1.28,-4.12 0,0 3.4,-2.28 2.55,0.46 1.28,-0.46 7.22,-5.490001 5.1,-1.83 1.7,-2.29 0.42,-1.83 2.13,-1.83 2.97,0.91 0,-2.74 -2.55,-4.12 0,-1.39 1.28,-1.37 4.67,0 6.79,-1.37 0.43,4.57 3.82,-0.92 1.28,0.46 1.27,2.29 1.28,0 2.55,-7.32 4.25,-3.66 3.4,-1.37 4.67,-0.46 5.1,1.83 2.56,-0.46 1.69,1.83 5.1,0.46 6.8,2.75 5.53,-0.92 4.25,1.37 2.55,0 4.24,3.2 0.86,-4.11 0.85,-0.92 2.97,-0.91 1.7,-1.83 1.7,-3.66 2.55,-0.91 2.55,-2.28 1.28,0.46 0.85,-0.91 -0.42,-2.74 0.85,-0.92 2.13,-0.46 0.42,2.28 2.97,1.83 4.25,5.94 2.13,1.83 12.32,0.46 2.56,-0.46 0.85,-0.92 -0.42,-1.37 2.55,0 1.7,-1.37 1.27,0.92 2.97,0 2.98,-1.83 6.37,0.46 8.92,5.03 1.28,1.83 2.55,0 4.25,2.29 1.27,0 9.35,-6.4 2.55,-0.92 1.7,-2.29 7.22,-5.03 4.25,-0.46 3.82,-2.74 1.28,-2.74 2.13,-1.37 -0.61,-1.64 0,0 2.56,1.21 0.28,2.41 -5.89,5.13 -1.12,0 -2.81,3.02 -1.68,0.3 -2.24,3.32 -3.36,2.72 -0.84,2.11 -2.8,1.81 -1.15,2.1 -1.96,1.21 -1.68,-0.91 -2.53,0.3 -1.12,2.11 1.4,0.91 0,0.9 -1.4,0.6 -0.28,0.91 -1.96,1.21 -1.96,0 -3.93,3.02 -4.48,0.6 -1.96,3.01 -3.09,0.91 -0.55,0.91 -4.77,0.9 -1.4,1.51 -1.69,0.3 -1.96,1.51 -3.92,-0.91 -2.8,0.61 -1.4,1.810001 0.84,0.61 1.4,-0.3 -0.84,1.81 -6.17,2.72 -1.69,2.11 -3.08,1.21 -3.93,6.03 -4.2,3.62 -0.84,-1.21 -2.81,0.3 -0.28,1.21 -2.24,0.6 -1.4,2.11 -0.56,0 0,-4.83 0.84,0 0,-0.91 -13.17,-13.57 -1.96,-0.6 0,-2.11 -1.4,-1.810001 -5.04,1.21 -2.25,2.710001 -5.04,0.91 -0.56,-0.6 -1.12,0.3 -0.28,-3.020001 -1.12,-1.81 -1.96,0 -0.85,2.110001 -1.4,0.3 -0.86,1.2 z m 35.33,40.71 0.84,-1.2 4.48,-0.9 0.85,-1.21 1.12,0 0.85,-0.9 1.96,3.32 11.5,-1.81 1.12,-0.3 0.27,-0.9 0.57,2.11 1.93,2.11 0.59,7.54 -3.37,5.43 1.96,0 0.28,2.41 2.8,1.81 0,0.91 1.4,1.21 0.29,2.41 0.55,0 0.29,-3.02 -0.84,-1.51 1.12,-4.22 1.4,-1.51 5.05,-1.81 2.24,-3.02 3.08,-2.11 -0.28,-2.11 -1.4,-0.3 -1.13,0.6 0.29,-2.41 -1.69,-1.51 -0.28,-3.32 -1.13,-0.91 -1.12,-3.32 0,-1.51 1.96,-1.51 0.29,-1.21 -3.93,-0.6 -1.4,0.91 -0.84,-1.21 0,-1.81 1.96,-0.6 3.08,-5.43 2.53,-0.91 1.68,-2.41 2.79,1.21 0.85,2.71 1.4,0 0.28,-8.44 0.84,-0.6 1.4,0.6 1.69,2.41 4.2,-0.6 0.28,2.11 1.96,0 1.41,-2.71 -1.12,-6.34 2.52,-0.91 1.12,-4.83 1.96,-1.51 1.12,-2.110001 4.49,-1.51 2.24,-3.92 1.13,-0.6 3.64,0 1.13,-3.62 1.12,0 1.69,3.62 0.84,0.3 -1.4,2.71 0.84,2.11 2.8,0.6 1.96,-1.81 2.25,0 0.28,3.31 -1.68,-0.29 -0.56,0.900001 -0.56,4.83 -1.4,2.11 0.56,1.81 1.68,0 1.96,-2.71 3.37,1.21 1.68,-0.6 -0.55,-2.72 1.96,-1.21 1.4,-3.920001 -0.55,-2.41 -1.4,-0.9 0,-0.91 2.23,-0.3 0.28,-2.71 1.69,-1.81 1.4,0.91 1.68,5.43 -0.28,3.32 3.64,8.450001 -3.37,2.41 -2.24,-0.3 -3.64,-2.71 -0.85,0.6 1.12,2.71 -1.96,6.03 1.69,3.02 -0.29,3.92 3.09,1.21 0.28,2.41 -2.8,5.12 -4.77,-0.3 0,1.51 2.8,3.02 0.56,1.81 -0.56,3.62 -0.56,0 -1.68,3.32 1.4,0.3 1.96,-1.51 -0.29,-1.81 0.56,-0.9 3.37,0 0,-4.22 0.56,0 1.68,-3.32 2.25,-0.61 1.37,1.21 -0.25,3.02 1.96,3.02 1.39,4.82 -0.26,2.11 -2.8,0.9 0.28,1.81 1.4,1.51 6.17,0 -1.68,-1.51 -0.29,-1.51 1.69,-0.3 -1.4,-2.71 0,-5.43 0.56,-1.21 -0.29,-3.62 1.69,-2.41 -0.85,-1.21 -0.84,0 0.29,2.41 -1.41,0 -0.84,-3.62 1.69,-5.73 -1.4,-1.51 0,-1.51 1.68,-1.21 1.4,0.6 1.69,-0.3 0.28,-1.21 1.4,-1.21 1.4,0.91 1.69,0 -1.69,-4.52 0.55,-0.9 -0.55,-3.02 0.56,-1.51 1.13,0 2.24,2.11 3.64,0.6 0,1.81 3.06,2.71 -0.54,4.52 -3.09,3.62 0,2.41 1.12,0.91 0.28,2.3 0,0 -1.05,-1.13 -2.55,0.91 -0.42,1.37 0.85,3.66 -1.27,2.74 0.85,1.83 2.13,1.37 -0.85,4.57 2.55,2.74 -2.98,8.23 0,2.74 -2.97,1.83 -1.27,2.74 -5.53,5.03 -2.97,0.46 -1.28,-0.91 0,-2.74 -2.55,-1.37 -3.4,0 -7.22,-8.68 -1.28,-0.46 -2.99,4.12 -4.24,0.45 -4.25,-1.83 -2.55,-2.28 -1.7,-2.29 2.56,-2.29 -1.28,-0.91 -2.55,-0.46 -2.12,-2.74 -9.35,-1.83 -2.97,2.29 0.85,4.57 -2.13,3.2 1.28,1.83 -2.55,1.83 -4.67,-0.92 -2.55,0.92 -3.4,-1.37 -5.1,1.37 -0.85,1.37 -0.86,5.94 -3.82,3.66 -1.28,2.74 -2.55,0 -1.28,-0.91 -5.52,5.48 -14.87,0 -0.85,1.37 -4.67,3.2 0,0 0,-4.57 1.7,-3.66 -0.85,-0.92 0,-2.74 -1.7,-1.83 0,-5.48 -3.83,-2.29 1.7,-9.14 0,-4.57 -2.13,-0.91 1.28,-4.11 -2.62,0.37 z m 115.22,-60.020001 4.2,1.51 1.12,2.41 -1.12,3.92 2.24,1.81 1.69,2.71 -1.4,3.32 -2.53,0.91 -0.29,1.810001 0.85,0.6 -0.56,2.11 -1.4,0.3 -1.13,2.11 -3.37,-0.91 0.56,-6.330001 -1.13,0 0.29,-3.62 -1.13,-1.21 -1.96,0.3 -1.68,-4.83 0.28,-1.51 1.13,0 0.84,-1.51 1.4,-0.3 0.84,-2.11 2.26,-1.49 z m 70.92,-72.12 -0.28,4.46 0.56,0.37 0.28,3.32 0.84,0.9 1.12,0 3.37,3.62 1.68,-0.91 3.37,0.91 0,1.21 -1.13,0.6 -0.84,1.81 -5.04,0.6 -0.29,-0.9 -4.48,-2.72 -1.96,0.3 -1.4,-1.81 -1.13,-2.72 0.56,-1.81 -1.4,-1.51 0,-0.9 1.13,-0.91 0.56,-2.41 4.48,-1.5 z m -199.6,102.290001 1.4,0.6 0.84,2.11 -2.8,4.53 -1.68,1.51 -3.65,0.91 -0.84,1.21 -1.96,-0.61 -0.55,-1.51 3.36,-2.11 0.85,-3.62 3.36,-3.02 1.67,0 z m 128.12,-50.380001 3.37,1.21 2.24,-0.91 0.28,1.51 -2.8,1.51 0,1.81 -1.12,0.6 0,3.62 -0.56,0.61 -3.09,0 -0.55,-0.6 0.55,-1.21 -1.4,-0.91 0,-0.9 -1.12,-0.3 0,-0.9 1.96,-0.61 0,-1.81 -0.85,-0.3 0,-0.9 1.69,-0.3 1.4,-1.22 z m -138.78,45.250001 1.69,1.81 0.28,1.81 -3.37,0 -0.55,-2.11 1.95,-1.51 z m 110.46,-19.000001 0.84,0.6 0,3.02 -0.29,0.9 -1.12,0.3 -0.29,-3.92 0.86,-0.9 z m -109.61,43.730001 0.56,1.81 -0.56,0 -0.28,1.21 -0.84,0 0,-3.02 0.28,-0.6 1.41,0 -0.57,0.6 z m 150.26,-47.050001 0,0.91 1.13,0 0,0.9 -2.52,-0.6 -0.29,-1.21 1.68,0 z" 
                fill="rgb(151, 144, 238)" 
                stroke="white" 
                stroke-width=".7px"
                title="Tai Po" 
                id="HK-TP" 
            />
        </svg>