<svg xmlns="http://www.w3.org/2000/svg" viewBox="161.75248999999997 158.01733 174.8800000000001 111.57000000000008" width="174.8800000000001" height="111.57000000000008">
            <path 
                d="m 280.35249,217.80733 0.26,-1.55 -0.84,-2.42 -1.96,-1.51 -0.84,-2.1 -3.93,-2.71 -1.68,0 -3.37,1.81 -0.84,1.2 -3.93,0.3 0,0.6 -2.8,0.3 -0.84,0.9 -2.25,0 -0.84,1.21 -5.61,-3.32 -4.77,-0.6 -5.04,2.71 -1.69,1.81 -0.28,1.51 -3.09,0.6 -3.37,-0.6 -1.69,-2.11 -3.63,0.3 -1.69,-0.6 -0.84,1.21 -1.68,0 -2.25,2.41 -3.08,0.6 -1.12,2.12 -5.88,-0.91 -0.85,0.91 -1.12,0 -1.4,2.11 -0.56,-0.3 -0.56,1.5 -3.64,-0.3 -1.42,1.21 -3.06,0.6 0,0.62 -3.33,-0.62 0,0 -1.15,-0.82 0.15,-3.7 3.83,-2.74 3.82,-5.02 3.4,-0.46 1.27,-0.91 0.43,-1.37 -0.43,-1.37 -3.82,0.92 -1.28,-0.92 -1.27,-4.11 -2.13,-0.46 0,-3.66 1.7,-0.91 1.7,0.91 1.28,-0.46 3.4,-4.11 5.1,2.74 2.56,0 -0.85,-4.57 1.7,-2.74 6.8,2.28 1.7,-1.83 5.94,0.46 2.13,-0.46 0,-2.74 1.28,-2.29 0,0 4.67,-3.2 1.69,-0.46 1.28,0.91 2.55,-4.57 1.27,0.46 3.4,-0.46 4.25,-4.57 1.69,-0.92 2.55,0.46 2.56,1.83 2.12,0 5.11,-4.11 2.55,-3.65 3.82,-0.46 1.28,0.91 0.42,1.37 1.28,0 1.27,-0.91 1.7,0.46 2.55,-0.92 0.85,-1.83 3.4,-2.74 2.13,0.91 3.4,0 0,-1.37 2.55,-2.74 0.42,-2.74 0,0 -0.07,1.71 4.37,-1.55 16.86,0.71 0.52,4.15 8.68,0.03 2.56,0.71 3.41,-1.53 5.74,0.6 0,0 -0.42,3.84 1.7,1.83 0.42,3.2 0,3.2 -1.7,0.92 0.86,5.94 -0.86,1.37 -3.82,2.74 -1.28,2.74 -2.97,2.29 -2.55,3.2 -4.67,1.37 -2.13,2.29 0,0 -2.13,1.37 -2.97,-0.46 -0.38,-2.9 1.22,-2.12 -0.85,-0.91 -8.93,2.28 0,1.37 1.7,0.46 0.42,1.37 -1.28,2.74 0.26,5.03 -12.15,0.91 -4.25,6.85 -7.82,4.04 z m -76.55,51.78 -42.05,-0.45 0,0 2.53,-3.16 1.68,-3.92 1.4,-0.3 1.13,0.9 0.56,-0.9 5.88,-2.41 0.84,-1.21 2.81,-0.3 -0.28,-3.01 1.96,-0.6 1.4,-1.51 3.09,0 1.96,-3.61 0.85,0.3 0,1.51 3.37,-1.21 -1.4,-4.22 1.12,0 1.4,1.21 0,2.11 -0.28,1.51 -1.96,1.51 0,2.11 -1.96,1.51 0,1.51 3.93,-1.51 2.8,-3.01 0,-0.9 2.53,-3.32 3.92,-3.01 1.69,-0.3 1.96,-1.81 1.4,-0.3 1.12,-1.2 0.56,-2.11 1.69,-0.6 0.28,1.51 1.68,0.3 0.29,-0.9 -0.84,-1.81 1.12,-0.6 -0.28,-3.01 0.56,-0.6 3.08,1.21 1.4,-0.3 2.24,1.2 3.65,3.62 0.28,2.41 2.8,4.52 -3.37,1.51 0.56,3.32 1.69,1.21 0,0.9 -0.85,1.51 -0.84,0 -0.28,2.71 -1.4,2.11 1.96,1.51 0.28,1.21 -2.24,-0.9 -2.8,3.61 -4.21,-0.3 -0.28,2.11 -1.4,0.6 -1.96,-0.9 -0.28,-1.51 -2.53,-2.71 -0.56,-3.01 -1.4,-1.51 -1.68,0 -0.29,-0.6 -2.24,0.3 0.84,2.41 -0.28,1.2 0.56,0 0.56,3.62 0.84,0.9 -0.31,3.85 z m 24.39,-46.1 0.56,1.81 2.8,-1.21 1.4,0.3 -0.29,1.2 -1.39,0 0,2.71 -1.12,0.6 -0.56,1.51 0.84,1.51 1.69,-0.3 1.68,2.71 0,1.2 -7.01,3.32 -0.84,-2.41 -1.4,-0.91 0,-1.51 -2.25,-1.51 -0.55,-1.51 2.8,-0.3 0.28,-0.6 0.28,-3.01 -1.68,-0.6 0.84,-2.11 1.69,-0.91 2.23,0 z m 51.58,-5.59 0.38,-0.11 0,0 -0.38,0.11 z" 
                fill="rgb(151, 144, 238)" 
                stroke="white" 
                stroke-width=".7px"
                title="Tsuen Wan" 
                id="HK-TW" 
            />
        </svg>