<svg xmlns="http://www.w3.org/2000/svg" viewBox="43.15249099999999 139.71733000000006 189.39999899999987 113.90999999999994" width="189.39999899999987" height="113.90999999999994">
            <path 
                d="m 232.12249,186.35733 -1.28,2.29 0,2.74 -2.13,0.46 -5.94,-0.46 -1.7,1.83 -6.8,-2.28 -1.7,2.74 0.85,4.57 -2.56,0 -5.1,-2.74 -3.4,4.11 -1.28,0.46 -1.7,-0.91 -1.7,0.91 0,3.66 2.13,0.46 1.27,4.11 1.28,0.92 3.82,-0.92 0.43,1.37 -0.43,1.37 -1.27,0.91 -3.4,0.46 -3.82,5.02 -3.83,2.74 -0.15,3.7 1.15,0.82 0,0 -1.16,0.61 -3.09,-1.21 -1.12,0.6 -1.69,-0.3 -2.24,-2.11 -0.56,-2.11 -3.37,-3.62 -3.36,1.21 -1.12,-3.92 -4.77,1.81 -1.4,1.51 -4.49,0.61 -1.4,-1.81 -1.69,-0.3 -0.55,-0.9 -3.09,-0.3 -1.12,-2.11 0.28,-1.2 -1.13,0 -0.56,-2.11 -0.84,0 0,2.41 -0.56,0 -0.55,2.11 -1.4,1.51 -2.25,0 -2.8,1.51 -0.56,-1.51 -1.96,-1.21 0.28,2.71 0.84,0.91 -0.56,1.51 -2.8,0 -0.56,-0.6 0.56,-1.81 -0.84,-1.51 -2.24,-2.41 -2.53,-0.3 -1.68,-2.11 -1.96,0 -0.29,1.51 0.85,0.9 0,2.4 -1.4,0.91 -4.49,0.91 -3.08,-3.32 -0.56,0.91 1.4,3.01 0.28,2.71 0.84,0.3 0.56,-0.6 1.13,1.81 -1.13,0.3 -0.28,1.51 -0.56,0 -1.68,-2.71 -1.69,-0.3 -0.84,-1.2 -1.12,0.3 1.12,5.43 -1.12,0.6 -1.12,-1.2 0.84,-1.51 -1.13,0 -0.28,1.51 -2.53,-0.3 -3.08,-2.41 -0.85,-1.81 -0.55,0.9 -1.41,0.3 -1.12,-1.81 -3.09,-1.21 -0.84,-0.9 0.56,-1.2 -0.56,-2.41 -1.12,0 -1.12,-2.41 -1.13,0.3 -2.52,6.93 -1.13,0 -0.56,-2.11 1.4,-3.92 -0.91,-1.81 -2.459999,-0.3 -1.12,1.81 -2.81,0.3 -1.12,0.9 -6.17,-3.31 0.56,-1.81 -1.4,-3.31 -1.12,0.6 0,1.2 -0.84,0.6 -2.8,-4.82 0.34,-2.15 1.12,-0.3 0.28,-0.91 1.13,0.3 1.96,-1.81 1.4,-6.94 -0.85,-3.32 -5.32,-2.71 -0.29,-3.02 -0.84,-0.6 0,-1.2 1.4,-0.9 -0.28,-3.62 -1.96,-1.81 -2.24,0.3 -1.69,-1.81 -2.24,0.3 -4.49,-1.21 -0.84,-1.51 5.61,-7.84 1.12,0 0.56,-1.51 4.48,-3.32 1.13,-4.22 2.8,0 5.33,-2.41 6.45,0.9 0.84,-1.21 2.8,-0.6 1.399999,-1.21 4.55,-0.92 0,0 -0.26,5.8 0.85,1.83 6.38,-7.77 3.4,-7.31 20.82,0.46 0,1.37 1.27,0.91 12.75,0.46 1.27,-0.46 1.28,0.92 3.82,-0.92 0.86,-0.91 5.1,-0.91 0,1.37 -1.7,2.74 0,2.74 2.97,4.11 1.28,-0.46 8.07,0.46 0.42,6.86 1.28,0.92 2.55,0 0.85,0.91 0.43,9.6 39.09,0 0,-2.74 0.85,-0.91 7.65,0 0.85,0.91 -0.43,2.74 -2.55,0.46 -0.42,1.37 0,6.85 7.65,0 1.28,0.92 -0.43,6.87 z m -186.159999,9.4 1.4,1.5 3.09,0 1.12,1.21 0,1.21 -1.4,1.2 -0.28,2.11 0.84,2.41 -0.84,2.71 -1.13,1.21 -1.68,0 -0.84,-0.91 0.84,-4.22 1.12,-0.3 -0.28,-3.01 -3.08,-2.11 -1.69,-0.3 0,-2.71 2.81,0 z m 86.909999,51.84 0.28,1.81 2.79,0.9 -0.27,1.81 -1.4,1.51 -2.79,-0.6 0.26,-4.52 1.13,-0.91 z m -78.499999,-14.46 1.4,1.51 0.85,0 0,-0.91 0.84,-0.3 0.56,1.81 -1.13,1.2 0.29,2.11 -0.56,0.6 -0.85,0 -1.4,-4.82 -1.96,-0.6 0.55,-1.2 1.41,0.6 z m 95.039999,6.93 1.13,2.41 -0.85,0.9 -0.28,2.41 -1.96,2.11 0.29,-3.92 1.11,-0.6 0.56,-3.31 z m -96.999999,-10.25 0,-2.71 1.68,-0.6 0.84,1.81 -2.52,1.5 z m 52.699999,-82.9 -0.21,0.28 0,0 0.21,-0.28 z" 
                fill="rgb(151, 144, 238)" 
                stroke="white" 
                stroke-width=".7px"
                title="Tuen Mun" 
                id="HK-TM" 
            />
        </svg>