<svg xmlns="http://www.w3.org/2000/svg" viewBox="332.42249 301.22733000000005 43.18000000000001 32.14999999999998" width="43.18000000000001" height="32.14999999999998">
            <path 
                d="m 367.30249,329.50733 -12.36,3.87 -5.1,-0.91 -1.7,-1.83 -1.7,0 -0.42,1.37 -1.27,0.46 -5.53,-1.38 -6.8,-3.65 0,0 2.12,-3.65 0,-6.39 0.86,-3.65 1.66,-1.79 0.03,-4 -1.35,-3.11 0,0 4.31,-0.3 0.28,-3.32 3.09,0 0.83,2.41 1.41,0 1.12,-0.9 0,0 7.53,0.72 1.85,1.15 0.24,1.12 4.89,-2.45 3.08,6.99 2.56,2.97 2.85,-1.75 0,-1.36 0.85,-0.91 4.91,4.49 0.06,3.27 -7.34,5.83 z" 
                fill="rgb(151, 144, 238)" 
                stroke="white" 
                stroke-width=".7px"
                title="Wan Chai" 
                id="HK-WC" 
            />
        </svg>