<svg xmlns="http://www.w3.org/2000/svg" viewBox="348.54249 220.16732999999996 44.120000000000005 30.150000000000006" width="44.120000000000005" height="30.150000000000006">
            <path 
                d="m 392.30249,248.02733 -8.92,1.37 -2.97,-2.74 -2.13,0.92 -4.25,-0.46 0,0 -0.85,-0.91 -2.55,-0.46 -6.8,4.57 -2.97,-2.29 -1.7,-0.45 -1.28,1.37 -1.7,0 0,-2.29 -1.27,-0.45 0,-3.66 -2.55,-1.37 0.85,-4.11 -1.7,-1.37 -1.27,0 0,-1.83 -1.7,-2.28 0,0 3.82,-1.83 2.98,0.92 5.01,-0.92 -0.34,-2.74 0.85,-0.91 1.7,0 1.27,1.82 2.55,-0.45 2.13,-3.66 1.27,0.92 6.8,-0.46 1.7,-0.92 1.27,0.46 2.56,-0.46 0.42,-1.82 2.13,0 2.12,-1.37 3.82,0 0,0 -0.29,8.38 2.35,15.34 z" 
                fill="rgb(151, 144, 238)" 
                stroke="white" 
                stroke-width=".7px"
                title="Wong Tai Sin" 
                id="HK-WT" 
            />
        </svg>