<svg xmlns="http://www.w3.org/2000/svg" viewBox="320.88248999999996 254.42733000000007 32.88000000000005 38.66999999999993" width="32.88000000000005" height="38.66999999999993">
            <path 
                d="m 353.76249,287.07733 -0.25,1.2 -1.4,0.6 -1.69,-1.81 -1.96,-0.3 -3.37,3.62 -0.27,1.2 -1.97,1.51 -3.08,-0.9 -1.68,0.6 -1.12,-0.31 -1.12,-1.5 -1.97,0 2.53,-1.2 -0.29,-2.11 -1.96,0 0,-2.42 1.4,-0.3 -0.55,-4.82 -1.97,0.3 -1.4,1.51 -2.24,0.6 -4.77,3.02 -0.56,-4.52 0.84,-1.21 -0.84,-2.41 -0.56,-8.74 3.08,-0.6 0,-0.6 -2.52,-4.52 -3.19,-3.07 0,0 0.03,-1.82 1.71,-1.83 2.12,1.83 0.81,1.86 3.44,-2.77 1.65,-0.45 -1.22,-1.38 0.84,-0.91 11.48,0 1.28,0.91 0,0 -1.71,4.11 0.85,3.2 2.56,6.85 6.79,9.13 0,1.83 2.12,1.37 z" 
                fill="rgb(151, 144, 238)" 
                stroke="white" 
                stroke-width=".7px"
                title="Yau Tsim Mong" 
                id="HK-YT" 
            />
        </svg>