<svg xmlns="http://www.w3.org/2000/svg" viewBox="104.64248999999995 42.817328999999994 191.21000000000004 143.540001" width="191.21000000000004" height="143.540001">
            <path 
                d="m 295.85249,103.63733 -1.28,4.11 -4.89,6.16 -0.34,1.72 -2.41,2.18 -6.41,8.58 -0.82,2.85 1.71,5.03 2.52,4.07 0.74,5.89 7.69,9.65 0.51,4.15 0,0 -0.42,2.74 -2.55,2.74 0,1.37 -3.4,0 -2.12,-0.91 -3.4,2.74 -0.85,1.83 -2.55,0.92 -1.7,-0.46 -1.27,0.91 -1.28,0 -0.42,-1.37 -1.28,-0.91 -3.82,0.45 -2.55,3.66 -5.11,4.11 -2.11,0 -2.56,-1.83 -2.55,-0.45 -1.69,0.91 -4.25,4.57 -3.41,0.46 -1.27,-0.46 -2.55,4.57 -1.27,-0.91 -1.7,0.45 -4.67,3.2 0,0 0.42,-6.85 -1.28,-0.92 -7.64,0 0,-6.85 0.42,-1.37 2.55,-0.46 0.42,-2.74 -0.84,-0.91 -7.65,0 -0.85,0.91 0,2.74 -39.09,0 -0.43,-9.6 -0.85,-0.91 -2.55,0 -1.28,-0.91 -0.42,-6.86 -8.07,-0.45 -1.28,0.45 -2.97,-4.11 0,-2.74 1.7,-2.75 0,-1.37 -5.1,0.92 -0.85,0.91 -3.82,0.92 -1.28,-0.92 -1.27,0.46 -12.75,-0.46 -1.27,-0.91 0,-1.37 -20.82,-0.46 -3.4,7.31 -6.38,7.77 -0.85,-1.83 0.26,-5.8 0,0 0.21,-0.28 0,0 7.29,-4.83 1.13,-3.62 0,-3.01 2.8,-4.23 3.64,-2.41 0.29,-4.22 1.68,-1.81 3.08,0 7.01,-4.82 5.32,-0.61 6.46,-3.62 0.27,-1.2 1.69,-1.51 0.84,-4.83 2.24,-4.52 3.93,-3.020001 1.12,-2.11 1.68,-0.3 0.84,-2.42 1.4,0 1.69,-1.8 0.84,-2.72 1.12,-1.21 1.4,-5.73 1.68,-0.91 2.24,-3.01 1.12,0.6 3.09,-0.3 1.68,1.81 6.45,1.51 -0.84,9.05 -2.24,0 -0.29,5.43 -1.12,0.9 0,0.91 1.97,-0.91 0.27,2.12 5.05,5.120001 1.12,0 1.97,-2.11 2.24,0.61 1.12,-1.51 -1.96,-2.420001 -1.13,-0.3 2.53,-3.01 1.96,0 1.41,-1.21 1.67,0 2.25,1.21 1.12,1.81 -1.12,7.240001 0.56,1.5 1.12,-0.6 0.28,-4.22 0.56,-0.61 2.25,0 4.76,1.81 1.4,1.51 3.64,1.51 0.01,0.6 2.24,1.21 -0.56,-2.71 -1.68,-0.31 -3.65,-2.71 -5.32,-2.410001 -1.97,-1.81 -0.56,-1.81 -2.24,-0.31 -5.04,-6.03 -1.13,0.3 0,1.51 -2.8,0.3 -3.09,2.11 -1.11,3.02 -0.57,0 -0.28,5.730001 -0.56,0 0,-5.430001 -1.4,-1.2 -1.12,0 -1.97,-2.42 1.41,-0.3 0.84,1.21 2.24,-0.61 1.41,-1.5 0,-1.82 3.92,-2.1 2.24,-0.31 0.57,-1.2 3.08,-1.21 0.27,-2.11 -0.55,0 -0.29,-2.72 1.97,-1.81 0.56,-4.22 4.85,-5.49 1.69,-0.45 5.1,-5.95 1.7,0.46 1.7,-1.83 6.38,1.83 7.22,-0.46 2.98,-3.2 0,-3.2 1.27,-3.66 4.25,-3.65 5.53,-1.83 4.25,-0.46 4.66,3.2 6.38,-4.12 0,0 1.7,-0.45 2.13,-2.75 1.26,0 2.13,1.83 -1.27,5.95 0.85,0.91 0,2.29 1.7,1.83 -1.28,1.83 -1.27,-0.46 -0.86,0.92 0,2.74 1.28,0.91 0.85,5.95 -1.69,2.28 0.84,2.75 2.13,3.2 -0.86,1.37 0,4.11 -2.97,7.32 0,15.090001 7.65,-0.46 3.4,-0.91 2.97,-2.290001 4.68,0.460001 6.37,-2.290001 1.27,0.46 2.56,2.740001 1.27,0 2.55,3.2 z" 
                fill="rgb(151, 144, 238)" 
                stroke="white" 
                stroke-width=".7px"
                title="Yuen Long" 
                id="HK-YL" 
            />
        </svg>