<svg xmlns="http://www.w3.org/2000/svg" viewBox="284.92575999999997 271.17383 212.77967999999987 157.8498499999999" width="212.77967999999987" height="157.8498499999999">
            <path 
                d="m 325.18555,271.17383 -4.58985,0.11914 -3.08984,4.06055 -1.98047,-0.54883 -1.56055,1.08008 -1.8789,-1.71094 -0.5918,1.60937 -3.20898,1.71094 0.15039,1.91016 -0.95117,-0.76953 -1.44922,0.75 1.07031,1.18945 -1.2207,1.83984 1.55078,0.85938 0.44922,2.48047 -3.24024,2.06054 -2.05859,-0.81054 -5.24024,0.96093 -1.56054,2.76954 -1.0293,0.01 -0.74024,3.0293 0.28907,2.30078 1.92969,0.54883 -1.3086,1.74023 2.59961,1.9707 0.94922,-1.26953 1.40039,2.90039 0.41992,-0.78125 2.10938,0.96094 3.4707,7.45899 -0.65039,4.13086 2.14062,3.04882 0.41016,3.75 -1.96094,0.91016 -0.32031,2.56055 -2.6582,2.96093 -1.32032,-0.18164 -0.17968,0.041 -2.83008,2.42969 5.61914,6.83007 -0.0801,4.0293 -1.48047,0.0801 -1.02929,2.65039 2.33984,2.4707 -1.25977,7.97852 1.68946,1.60156 -1.98047,1.29883 -5.47852,-2.46875 0.45899,4.42969 -6.87891,6.77929 0.2793,2.3711 1.31054,0.92969 -2.1914,1.66992 -0.26953,3.21875 -3.08985,1.30078 1.83985,3.42969 -1.37891,1.15039 -0.35156,-0.0899 -1.64844,0.42969 1.71875,3.23047 -0.49023,2.74023 3.33984,4.94922 -1.73828,5.34961 1.20898,0.0606 0.49024,3.32031 1.40039,1.20898 0.51953,-1.8789 3.25,-1.06055 1.31055,-0.11914 1.07031,1.74024 5.45898,-0.5918 0.65039,-2.22852 2.51954,-1.81054 -0.42969,-1.93946 2.09961,-2.25 0.17969,-3.14062 5.49023,-5.58008 1.55078,1.71094 -0.0606,3.27929 3.59961,-1.08007 1.19141,4.96093 1.33984,-0.25 0.68946,1.13868 -1.06055,0.74023 1.04101,4.74023 1.86915,2.07032 2.38085,-4.15039 0.28907,-4.91993 1.08984,-2.18945 1.09961,0.22852 0.19141,-1.86914 0.24023,0 0.91992,-2.21094 2.50977,2.40039 1.83008,-1.46875 0.24023,-2.80078 1.81836,0.50976 3.55078,-2.82031 1.83008,1.95117 0.0703,2.53907 2.53907,5.18945 4.58984,-0.96875 0.21094,-2.90039 1.50976,-0.32031 1.80078,1.43945 -0.28125,1.63086 3.19141,-0.55078 0.73828,2.18164 2.01172,2.10937 1.38867,-0.43945 -0.29883,1.41992 1.03321,0.20313 1.72656,8.68554 2.05859,1.3711 1.48047,5.71875 3.34961,3.87109 -1.17969,0.81055 0.32032,4.17969 3.40039,-1.01954 5.28906,4.13868 2.87109,-4.24024 2.73047,-0.46875 0.14844,3.24024 1.76172,0.41992 0.6289,-3.19141 2.16016,-0.30859 5.98047,4.22851 0.0488,-3.43945 5.73047,0.9707 1.25976,4.95899 10,-4.62891 2.01953,1.74024 1.76172,-1.85157 0.66016,-0.30859 -0.61133,4.79883 3.2207,1.20117 0.81055,-1.16016 2.0293,1.40039 2.36914,-0.42187 1.23047,0.81055 -0.0801,2.5996 2.17969,0.20118 0.81054,1.86914 3.58985,-0.76953 2.5,-3.39063 1.57031,1.36133 -0.34961,1 1.95898,0.24023 0.16993,-0.99023 -1.63868,-0.46094 1.78907,-1.41992 0.01,-4.08984 -1.63867,0 -0.44141,-1.94922 -1.18945,-0.32031 0.88086,-1.58008 -3.38086,0.18945 -1.09961,-1.18945 -1.16992,0.75976 -2.61133,-2.15039 -0.46875,-2.91015 2.40039,0.33984 0.86914,-1.0293 -1.39062,-0.60937 -0.26953,-2.98047 6.48046,1.60937 0.59961,-1.66015 1.47071,-0.12891 -2.78125,-2.41015 2.11132,-3.94141 -0.20117,-2.31836 3.57032,0.74023 0.83984,-1.34179 1.66992,0.5 1.70117,-2.14844 -1.31054,-0.93164 1.16992,-3.08985 2.32031,0.76172 2.83984,-0.82031 1.20899,-1.23047 -1.2793,-1.35937 2.83008,-1.80078 1.60938,1.14062 3.2207,-2.82031 4.70898,0.71875 1.83008,-1.2793 2.66992,1.10938 0.10156,-4.93946 -1.4707,-0.84961 0.0508,-2.63086 -4.96093,-1.01953 1.71093,-6.11914 2.00977,0.72852 1.62891,-0.88867 1.31054,3.10937 3.58008,1.07031 1.48047,-0.17968 -0.25977,-2.22071 1.25,-0.95898 1.29883,0.55859 1.50977,-1.41015 2.1914,0.87109 5.66992,-2.91016 3.36915,1.9004 1.83007,-0.56055 0.01,-1.85938 2.17969,-0.0801 2.33008,-2.97071 2.83984,0.49024 2.71094,-2.59961 -1.0293,-4.21094 3.19922,-4.61914 -3.01953,-1.60938 -0.61133,-2.15039 -2.09961,-0.15039 0.2207,-1.32031 -2.25976,-0.60937 -0.96094,-4.9004 0.95117,-3.07031 -3.51172,-0.69922 -4.48828,-4.38086 0.54883,-6.60937 3.84961,-0.23047 3.46094,-1.85937 1.98046,-3.06055 -0.27148,-1.84961 -4.25976,-6.58008 -2.44922,0.9707 0.94922,-4.55078 -4.20899,-0.77929 0.28906,-3.95118 2.52149,-4.58007 -3.90039,-4.45899 2.04883,-4.30078 -5.72852,-1.65039 -6.77148,-0.13867 -11.07032,5.81836 -1.32812,2.89062 1.13867,0.5 0.53125,3.1211 2.0293,-0.28125 -0.58985,1.8496 -6.92969,5.10157 -3.16992,-0.72071 -3.91992,1.4004 1.53906,-3.16993 -1.25,-0.90039 0.64063,-1.19922 5.99023,-2.06054 -0.93164,-2.04102 2.81055,-4.91016 -4.36914,-2.94921 -8.11133,9.06054 -5.98828,0.22852 -0.48047,-2.89844 -2.79101,-0.89062 -0.14844,-1.23047 -4.32032,4.56054 -2.71093,0.25 0.0605,-3.07031 -1.58984,0.01 -0.53125,-1.94922 -0.84961,2.24023 -1.75976,-3.58007 0.66015,-0.72071 -3.23047,-1.84961 0.64063,-1.99023 -3.25977,-0.69922 -1.2207,-2.86133 -1.58984,-0.80859 -0.0488,0.91015 -4.56055,1.19922 -3.00977,-1.84961 -1.39062,0.83985 -0.40039,-1.06055 -6.68945,20.50977 -0.89063,0.25 -1.61914,-1.33985 0.68945,-2.31055 -2.34961,-1.52929 1.28907,-1.17969 -1.2793,-1.65039 -1.76953,0.31055 -0.79102,2.1289 -2.07031,-1.69922 -2.66992,1.57032 -1.87891,-1.76953 -2.20117,0.0801 -1.36914,6.57813 -4.03906,1.77148 -1.06055,-0.14062 0.18945,-1.73047 -1.17968,0.58984 -0.75,-1 -1.22071,1.23047 -3.1289,-1.49023 -4.71094,1.75976 -0.68945,-2 -3.41993,-0.69922 0.35938,-3.67968 1.9707,-2.74024 2.41016,-0.34961 -0.82031,-0.0801 -0.35938,-4.17969 0.97852,-3.80078 -2.0586,-1.86914 -3.36132,0.28906 -1.25,-2.59961 -1.38868,0.75976 -2.64062,-1.19921 -0.23047,-3.82032 -4.08008,-6.33007 -0.55859,-2.89063 -1.51172,-0.41992 0.33984,2.25976 -2.04883,0.0899 0.54883,2.04101 -4.31836,2.25977 -1.5,-3.76953 -1.7207,0.0801 -1.33984,1.72851 -3.23047,-1.99023 -2.87891,2.45117 -5.88086,-4.50977 -1.10937,-2.64062 z m 80.63867,139.79101 0.16992,0.43946 0.43164,0.0488 0.5,0.58008 2.91016,1.77149 0.0293,0.33984 -1.98046,0.92969 -1.50977,3.91992 -4.05078,-0.67969 -0.64844,-2.61133 1.50977,-2.72851 0.35937,-0.64063 0.32031,-0.16992 0.67969,-0.16992 1.2793,-1.0293 z" 
                fill="rgb(151, 144, 238)" 
                stroke="white" 
                stroke-width=".7px"
                title="Auvergne-Rhône-Alpes" 
                id="FR-AR" 
            />
        </svg>