<svg xmlns="http://www.w3.org/2000/svg" viewBox="317.57399 172.63444000000013 178.32027000000016 136.92019999999994" width="178.32027000000016" height="136.92019999999994">
            <path 
                d="m 339.47461,172.63477 -0.45899,1.71875 -1.20117,0.16015 -8.09961,-0.17969 -1.53906,1.48047 -2.33008,-0.65039 -1.33008,3.37891 1.33008,3.44141 -1.78125,2.66015 -2.77929,1.45899 -0.01,1.25976 3.83984,1.85156 -0.56054,1.06836 0.82031,-0.0586 0.58008,2.70898 3.10937,2.68946 -1.04883,0.64062 1.18946,2.89063 -1.38086,1.60937 -0.25,0.21094 -3.29883,2.29883 -0.56055,2.40039 1.5293,1.08008 -0.29883,3.88086 -7.21093,1.81835 -0.16016,2.49024 1.27148,-0.20898 1.97852,2.36914 1.13086,2.25976 -0.69922,2.83984 1.6582,1.81055 -4.80859,1.3711 0,-0.22071 -0.51953,0.76953 3.42968,6.1211 -2.62109,6.08984 4.73047,4.67969 2.0293,8.56055 -0.5293,3.45898 2.49023,2.46094 0.0703,4.1289 -1.25,2.91993 0.82031,3.38086 -1.57031,3.43945 1.10937,2.64062 5.88086,4.50977 2.87891,-2.45117 3.23047,1.99023 1.33984,-1.72851 1.7207,-0.0801 1.5,3.76953 4.31836,-2.25977 -0.54883,-2.04101 2.04883,-0.0899 -0.33984,-2.25976 1.51172,0.41992 0.55859,2.89063 4.08008,6.33007 0.23047,3.82032 2.64062,1.19921 1.38868,-0.75976 1.25,2.59961 3.36132,-0.28906 2.0586,1.86914 -0.97852,3.80078 0.35938,4.17969 0.82031,0.0801 -2.41016,0.34961 -1.9707,2.74024 -0.35938,3.67968 3.41993,0.69922 0.68945,2 4.71094,-1.76953 3.1289,1.49024 1.22071,-1.23047 0.75,1 1.18945,-0.58985 -0.18945,1.74024 1.06054,0.13086 4.03907,-1.77149 1.37109,-6.56836 2.19922,-0.0801 1.88086,1.76953 2.67968,-1.58008 2.07032,1.69922 0.78906,-2.11914 1.76953,-0.31055 1.26953,1.65039 -1.28906,1.17969 2.34961,1.52929 -0.68945,2.31055 1.60937,1.33985 0.90039,-0.24024 6.68946,-20.51953 0.40039,1.07031 1.39062,-0.83984 3.01953,1.83984 4.56055,-1.18945 0.0488,-0.91016 1.58008,0.8086 1.23046,2.86133 3.25977,0.69921 -0.63867,1.99024 3.22851,1.84961 -0.65039,0.7207 1.76172,3.58008 0.84961,-2.24024 0.5293,1.94922 1.58984,-0.01 -0.0703,3.07031 2.71094,-0.25 4.32031,-4.56055 0.15039,1.23047 2.78906,0.89063 0.48047,2.90039 5.99023,-0.23047 8.09961,-9.07031 0.33008,-2.80079 3.49024,-4.95898 -1.91993,-1.89062 14.18946,-11.95899 -0.89063,-2.25 1.38086,-4.64062 -1.33984,-2.36914 2.69922,-2.80079 5.16992,-1.13086 4.07031,-3.51953 -0.67969,-1.89062 5.65039,-4.06836 0.83008,-0.96094 -0.73047,-0.42969 4.73047,-4.32031 -0.50976,-2.7207 2.21875,-0.45899 0.57031,-1.83007 1.88086,-0.56055 -0.28125,-1.74024 -1.34961,-0.64843 -5.69922,1.22851 2.53906,-4.89843 2.56055,-1.27149 -0.78125,-2.47851 6.21094,-0.55079 0.43945,-1.33007 -2.36914,-4.17969 -3.34961,-0.57031 1.67969,-4.26953 -0.39063,-3.14063 -4.00976,-2.95898 -3.07031,-0.71094 -1.25,-2.42969 -7.85938,-5.06055 -1.78125,-2.59961 -5.18945,3.73047 -1.7793,-3.4707 -1.91016,-1.16992 -7.67968,1.76953 0,-0.32031 -2.30078,-1.8086 -0.45899,-3.20117 -0.10156,-0.0703 -3.95899,0.98047 -1.54101,2.91015 -2.20899,1.26953 -0.90039,-0.13867 1.33985,-1.86133 -1.12891,-0.56835 -2.01172,3.17968 -0.0195,1.58985 -1.40039,-0.39063 -1.18945,2.17969 0.25,1.16016 -2.78907,-0.44922 -0.79101,2.42968 -2.09961,-0.0508 -0.61914,2.57032 1.35937,1.99023 -0.75,3.82031 -3.90039,0.76953 -1.2207,-2.16992 -1.73828,2.1211 -4.78125,-0.0918 -1.58008,4.29101 -0.70898,0.85938 -2.00977,-1.12891 -2.28125,2.00977 0.32031,-2.79102 -3.56054,-1.83984 0.21093,-1.72852 -2.52929,2.07813 -2.65039,-1.33985 0.29883,-1.66015 -1.32032,0.18164 -0.0293,-1.12109 -2.5,1.5 -0.40039,-4.67969 -1.79883,-0.32031 3.17968,-2.51954 -1.59961,-3.61914 -0.55078,0 -1.55078,-3.37109 -1.39844,0.21094 -0.37109,1.31836 -1.19922,-0.76953 1.40039,-1.94922 -0.82031,-1.25 -2.53125,-0.11133 1.02148,-1.61914 -0.66992,-1.07031 -3.86132,-1.10938 -5.03907,-0.32031 -1.76953,1.40039 0.76953,2.3789 -9.9707,0.41993 -0.90039,2.25 -2,-0.31836 -0.75977,-2.58985 -1.30859,0.28907 0.30859,1.59961 -1.45898,-1.11914 -0.51953,0.27929 -1.85156,1.80078 -2.08008,-1.2207 -0.63868,1.26953 -1.66992,-1.07031 -4.55078,0.82031 0.76953,-3.11914 -0.77929,-1.34961 -0.59961,1.41016 -1.17969,-0.26172 -0.52148,-1.28906 1.36132,-0.68946 -2.06054,-1.80078 -1.29102,-4.57031 -2.13867,-0.91016 0.35937,-2.06836 -1.41015,-0.52148 0.34961,1.12109 -2.3086,1 -1.53125,-3.09961 -2.13867,0.32813 1.75977,-2.54883 -0.86133,-0.42969 0.76172,-2.25 -1.73047,-0.95117 0.41015,-1.0293 -3.4707,-4.10937 -1.55078,-0.61133 -1.58984,1.10156 -0.58008,-1.9707 -1.59961,-0.60937 z" 
                fill="rgb(151, 144, 238)" 
                stroke="white" 
                stroke-width=".7px"
                title="Bourgogne-Franche-Comté" 
                id="FR-BF" 
            />
        </svg>