<svg xmlns="http://www.w3.org/2000/svg" viewBox="339.76567 60.394531 201.3495899999997 172.6894590000001" width="201.3495899999997" height="172.6894590000001">
            <path 
                d="m 399.61523,60.394531 -5.07031,4.728516 -0.91992,1.861328 0.5293,4.548828 -3.92969,0.570313 -6.28906,3.169922 -5.66016,-2.039063 -3.23047,0.669922 -0.59961,2.900391 1.58008,0.628906 -0.0996,2.291015 -1.96094,5.669922 1.82032,1.46875 -2.68946,3.720703 -2.4414,1.339844 -0.46875,2.88086 -3.07032,-0.300782 -0.73046,1.009766 2.25976,3.25 -1.16992,1.679688 1.23047,1.30078 -1.58008,1.12891 1.13086,3.91015 -1.27148,0.46094 -0.0586,4.9707 -3.20117,-1.09179 -1.49023,-1.86914 -2.83008,1.68945 -0.17969,2.25 -3.04883,-0.72852 -5.51172,2.71875 1.3711,5 -1.00977,1.39063 1.17969,1 0.68945,-0.6211 0.66016,1.9004 1.41992,-0.26954 -0.0293,1.41016 -1.80078,1.04883 -3.43945,-0.51953 -0.89063,1.95117 1.55078,2.67969 -2.13085,1.07031 -0.0703,1.46875 2.72071,-0.38867 1.12109,1.83008 -3.64063,3.39843 0.53907,1.08985 -1.21875,0.2207 -0.14063,1.56055 -1.75976,0.16015 -1.7793,3.76953 0.0801,2.4004 -3.48047,0.33007 1.66015,1.15039 -2.03124,2 3.06054,1.26954 -0.70898,6.43945 3.44922,-0.69922 -0.58008,0.83984 1.63086,1.01953 -2.41016,0.74024 0.50977,0.92969 -2.04102,1.21093 0.66992,1.79883 -3.08984,0.85938 1.30078,2.34179 -2.25977,0.66993 1.3086,5.60937 0.58008,1.9707 1.58984,-1.10156 1.55078,0.61133 3.4707,4.10937 -0.41015,1.0293 1.73047,0.95117 -0.76172,2.25 0.86133,0.42969 -1.75977,2.54883 2.13867,-0.32813 1.53125,3.09961 2.3086,-1 -0.34961,-1.12109 1.41015,0.52148 -0.35937,2.06836 2.13867,0.91016 1.29102,4.57031 2.06054,1.80078 -1.36132,0.68946 0.52148,1.28906 1.17969,0.26172 0.59961,-1.41016 0.77929,1.34961 -0.76953,3.11914 4.55078,-0.82031 1.66992,1.07031 0.63868,-1.26953 2.08008,1.2207 1.85156,-1.80078 0.51953,-0.27929 1.45898,1.11914 -0.30859,-1.59961 1.30859,-0.28907 0.75977,2.58985 2,0.31836 0.90039,-2.25 9.9707,-0.41993 -0.76953,-2.3789 1.76953,-1.40039 5.03907,0.32031 3.86132,1.10938 0.66992,1.07031 -1.02148,1.61914 2.53125,0.11133 0.82031,1.25 -1.40039,1.94922 1.19922,0.76953 0.37109,-1.31836 1.39844,-0.21094 1.55078,3.37109 0.55078,0 1.59961,3.61914 -3.17968,2.51954 1.79883,0.32031 0.40039,4.67969 2.5,-1.5 0.0293,1.12109 1.32032,-0.18164 -0.29883,1.66015 2.65039,1.33985 2.52929,-2.07813 -0.21093,1.72852 3.56054,1.83984 -0.32031,2.79102 2.28125,-2.00977 2.00977,1.12891 0.70898,-0.85938 1.58008,-4.29101 4.78125,0.0918 1.73828,-2.1211 1.2207,2.16992 3.90039,-0.76953 0.75,-3.82031 -1.35937,-1.99023 0.61914,-2.57032 2.09961,0.0508 0.79101,-2.42968 2.78907,0.44922 -0.25,-1.16016 1.18945,-2.17969 1.40039,0.39063 0.0195,-1.58985 2.01172,-3.17968 1.12891,0.56835 -1.33985,1.86133 0.90039,0.13867 2.20899,-1.26953 1.54101,-2.91015 3.95899,-0.98047 0.10156,0.0703 0.45899,3.20117 2.30078,1.8086 0,0.32031 7.67968,-1.76953 1.91016,1.16992 1.7793,3.4707 5.18945,-3.73047 1.78125,2.59961 7.85938,5.06055 1.25,2.42969 3.07031,0.71094 4.00976,2.95898 0.39063,3.14063 -1.67969,4.26953 3.34961,0.57031 2.36914,4.17969 -0.43945,1.33007 2.88086,0.55079 -1.32032,3.06835 2.58008,0.28126 0.45899,1.0996 3.54101,-1.2207 2.39844,0.56055 2.87109,-2.38086 -1.43945,-0.56836 0.43945,-0.91016 2.36915,0.78907 0.9414,-0.95899 -0.56055,-1.37109 1.36915,-0.44922 -1.3086,-0.71094 3.5,-2.21875 0.33984,-1.75976 -3.31054,-5.71094 1.50976,-2.24024 -0.75976,-2.79882 1.11914,-6.16016 2.73047,-5.74023 -2.18946,-3.84961 0.29883,-5.36133 3.72071,-6.2793 1.10937,-4.98047 2.14063,-1.58008 -0.50977,-4.18945 1.49023,-5.98047 1.56055,-1.52929 -0.25,-4.33985 1.61914,-3.57031 5.17969,-5.07031 0.33008,-2.21094 4.88086,-2.83985 2.46875,-6.41992 3.46093,-3.8789 -5.79101,-1.50977 -6.60938,-4.29101 -2.80078,1.54101 -3,-2.04101 -2.43945,1.41015 -0.11914,-0.82031 -3.96094,0.19141 -0.23047,-1.22071 -4.28906,-1.52929 -1.41992,-4.51172 -2.41992,0.27148 0.36914,-1.20117 -3.3086,0.77148 -0.10156,1.7793 -1.50976,-0.0195 -1.33985,1.80859 -1.99023,-0.94922 -3.68946,0.59961 -2.40039,-2.24023 -1.97851,2.63086 -0.72071,-4.85938 -3.95117,-2.04101 -4.1582,0.64062 0.98828,2.01953 -1.09961,1.75 -4.01953,-0.69921 -1.11914,-1.46094 0.5,-1.95899 -1.16992,0.14844 -0.27149,-2.13867 -1.18945,-0.58008 0.38086,-1.33984 -4.27148,-4.26172 1.40039,-1.17969 -2.53907,-2.33008 0.69922,-1.20898 -5.31054,-3.5 -2.66016,1.04883 -5.21875,-3.43946 -4.64063,1.33008 -1.11914,2.51953 -1.12109,-0.85937 -1.29883,1.24023 -2.49023,-0.2207 -0.64063,-2.70898 -4.05078,-0.33985 -1.30859,-2.80078 -2.66016,-1.310547 -1.13086,1.550777 -4.29883,-0.7207 -1.28125,2.73047 -2.27929,-1.44922 -3.48047,2.04883 -0.71875,-4.449219 -1.53125,-2.109375 -0.93946,-1.011719 -1.99023,-0.919922 -1.41016,1.261719 0.73047,-2.730469 -2.54101,-2.679687 -4.33008,0.160156 -2.98828,-4.451172 -4.11133,-2.390625 -5.96875,0.451172 0.95898,-1.710938 -1.15039,-3.019531 1.71094,-2.75 -4.09961,-3.810547 2.13867,-4.458984 -0.8789,-1.740235 1.28906,-2.359375 0.87109,0.878907 -0.18164,-2.048828 1.19141,-1.101563 -2.51953,-1.128906 -0.47071,-0.929688 z" 
                fill="rgb(151, 144, 238)" 
                stroke="white" 
                stroke-width=".7px"
                title="Grand Est" 
                id="FR-AO" 
            />
        </svg>