<svg xmlns="http://www.w3.org/2000/svg" viewBox="256.58592999999996 0.3337113799999605 119.48825999999997 144.91995862000002" width="119.48825999999997" height="144.91995862000002">
            <path 
                d="m 304.97461,0.33398438 -6.79883,2.78906252 -1.15039,-0.8300781 -6.16016,2.1113281 -0.33984,-0.7695313 -0.68945,2.3984375 -1.28125,-1.21875 0.46093,-1.1796875 -2.20117,2.2597656 -0.52929,-0.6796874 -10.54102,2.71875 1.2207,0.2304687 -5.23046,1.6992187 -3.46876,3.8300778 -3.33007,0.980469 1.34961,4.419922 -0.82032,4.669922 -0.75,1.029297 -0.3789,-1.56836 -0.17188,0.958985 0.57032,10.230468 2.4414,3.650391 -2.01172,-1.630859 -1.33984,8.960937 3.17773,2.738281 -0.0879,-0.06836 -2.95898,-0.150391 -0.67969,5.650391 6.19922,5.558594 -1.20899,0.880859 -2.96093,-0.789062 -0.79883,-1.921875 -1.91016,0.630859 -2.93164,6.359375 -3.07812,2.851563 2.95898,-0.371094 0.15039,1.970703 10.7793,9.830078 0.91992,4.609375 2.15039,3.369141 -1.51953,-0.05859 -2.5,4.388672 0.70899,0.900391 1.88085,-0.900391 -2.25,3.240234 0.99024,1.339844 -0.84961,2.611328 -0.18164,0 2.16992,2.830074 -1.28906,2.18945 1.14062,0.91993 0.60938,-1.41993 1.2793,0.5 -0.75977,2.16016 -0.40039,0.25977 -2.00977,3.7207 1.07032,0.10937 -0.75977,0.7793 1.64062,1.74024 0.46876,4.74023 1.31054,1.08984 -0.61914,1.81055 -1.29101,-1.66992 -2.01954,0.49023 -0.23046,2.08985 1.5,0.48047 -0.51954,1.85937 0.37891,-0.01 0.75,1.23046 2.03125,-0.62109 3.29883,1.41992 4.93164,-0.82031 3.2793,-2.18945 3.7207,2.96093 1.98828,-1 0.60156,1.7793 2.17969,-0.54102 1.16992,-1.68945 1.82031,2.41992 0.71876,-0.73047 2.70117,0.83008 -0.25,0.82032 1.08007,-0.46875 1.8086,1.45898 -0.5586,0.7207 1.74024,0.41016 0.83984,-1.56055 1.28907,2.82032 2.05078,-1.81055 4.18945,3 3.08984,-2.25977 1.81055,1.66992 4.84961,-1.3496 0.7793,1.29882 0.89062,-1.29882 2.39063,0.40039 0.13867,-2.01172 2.83984,0.6914 2.16016,3.53907 -0.96875,2.39062 3.49023,2.50977 0.54883,2.11914 1.66992,-0.61914 1,2.56054 1.61133,-1.27148 0.63867,3.55078 2.59961,0.73047 0.65039,1.42969 1,-0.91993 1.77149,-3.75976 1.75976,-0.16016 0.13868,-1.56054 1.2207,-0.23047 -0.54102,-1.08008 3.64063,-3.4082 -1.12891,-1.82032 -2.7207,0.38867 0.0703,-1.46874 2.12891,-1.07032 -1.54883,-2.67968 0.88867,-1.95118 3.44141,0.50977 1.80859,-1.04883 0.0312,-1.41016 -1.41992,0.26954 -0.66992,-1.91016 -0.69141,0.63086 -1.16992,-1 1,-1.39063 -1.35938,-5 5.5,-2.71875 3.05078,0.72852 0.17969,-2.25 2.83008,-1.68945 1.48047,1.85937 3.20898,1.08984 0.0606,-4.96874 1.26953,-0.46094 -1.13086,-3.91016 1.57032,-1.1289 -1.21876,-1.30079 1.16993,-1.679681 -2.25977,-3.25 0.72852,-1.009765 3.08008,0.298828 0.46093,-2.878907 2.44922,-1.339843 2.69141,-3.710938 -1.82032,-1.46875 1.95899,-5.669922 0.0996,-2.291015 -1.58008,-0.640625 0.60156,-2.888672 -3.70117,-1.320313 c -2.78332,0.816272 -2.88598,0.834437 -0.0391,-4e-5 l 0.75976,-4.410156 2.91016,-1.359375 -1.25,-4.111328 -2.98047,-0.03906 1.09961,-1.910156 -0.17969,-3.220703 2.91993,-2.580078 -0.5293,-1.25 -1.91992,-1.109375 0.19922,2 -1.23047,0.01953 -0.85938,-2.949219 -1.68945,-0.480468 -2.15039,-3.119141 -5.08985,2.080078 -2.15039,-1.630859 -4.25976,0.06055 -1.64063,2.990234 -2.07031,-4.179687 0.0703,-5.63086 -2.16015,-2.560547 -4.47852,0.570313 0.75977,-2.359375 -1.83008,-0.630859 -1.14063,1.740234 -2.95898,1 -3.51172,-2.160156 -2.16992,-8.708985 0.89062,-2.851562 -2.8789,-1.539063 -1.66016,-4.240234 -8.24023,2.490234 -1.91016,3.910156 -2.48047,-2.009765 -2.16992,-0.09961 -2.96094,-5.640626 -3.63867,-0.140624 -1.48047,-2.439454 -0.39062,-4.599609 1.73047,-1.8203125 -2.41016,-3.6308594 -0.5293,-3.4589843 -0.7207,-2.24023442 z m -36.49997,49.64065862 -0.008,-0.01172 c 7.24913,-2.505869 7.24968,-2.484651 0.008,0.01172 z" 
                fill="rgb(151, 144, 238)" 
                stroke="white" 
                stroke-width=".7px"
                title="Hauts-de-France" 
                id="FR-NC" 
            />
        </svg>