<svg xmlns="http://www.w3.org/2000/svg" viewBox="118.52519000000005 66.77318900000016 155.74020000000002 119.06077099999997" width="155.74020000000002" height="119.06077099999997">
            <path 
                d="m 259.51562,66.773438 -2.96093,0.371093 -7.59961,6.148438 -4.44922,2.121093 0.26953,1.259766 -0.41992,-1.140625 -2.71094,1.220703 -2.44922,-0.710937 -7.76953,3.291015 -7.7207,1.179688 -10.36914,7.041016 -5.39063,2.160156 -2.15039,3.349609 -1.31054,-0.599609 1.21093,1.609375 -3.58984,8.660161 1.98047,2.53906 6.52929,2.00976 0.98047,-0.75976 -0.41015,1.13086 -0.01,-0.0312 -7.24023,0.11133 4.67968,0.19921 -4.00976,1.68946 -5.33008,4.86133 -9.18945,2.79882 -0.86133,-1.28906 -1.49023,0.5293 -4.76954,-2.57032 -15,-1.00976 -8.7207,-3.08008 -4.53906,0.48047 -1.71094,2.91992 -1.61914,-1.18945 -1.94922,1.7793 1.44922,-4.61914 -5.92969,-8.96094 0.48047,-2.208987 1.06836,-0.201172 -0.0195,0.890625 0.73047,-2.660156 1.08008,0.380859 -1.5,-5.710937 -8.64063,-0.04883 -0.58008,1.839844 -5.02929,0.708984 -0.51954,1.410156 0.19922,-1.480469 -8.57031,-2.029297 -1.13867,-1.75 -1.46094,0.759766 -1.98047,-1.330078 -0.53906,3.279297 2.99023,1.021484 1.10938,1.779297 0.33008,3.84961 -1.96094,2.349614 1.65039,1.93164 1.58985,8.35937 4.25976,2.80078 3.3418,7.56836 0.50976,-1.56836 1.94922,0.81836 -1.93945,0.19141 0.61914,11.36914 0.90039,2.41016 0.74023,-2.40039 2.32032,1.12109 -2.20117,-0.38086 -0.20899,5.37109 0.91016,0.58985 -3.05078,6.08984 1.66015,0.83985 0.17969,4.69921 5.05078,5.75977 2.53906,-1.2793 -1.04883,1.0293 2.41016,1.67969 -2.99023,-0.65821 -2.69141,1.25977 -0.84961,-0.93164 -0.0488,1.10156 -2.4707,-0.90039 3.46094,9.08984 2.78906,1.75977 2.80078,-0.5 4.16016,-4.68945 7.6289,2.23047 2.72071,1.17968 2.00976,-1.75 1.93946,1.28907 2.64062,-0.16993 1.31055,2.75 1.44922,-0.6289 0.77929,1.83008 1.91993,-0.8711 -0.69922,-1.4707 1.7207,0.32031 1.04883,-1.05859 0.5,2.56836 4.16015,-1.8086 1.71094,-2.24023 4.69922,-0.0606 1.81055,1.60938 1.33007,-2.38867 2.07032,0.93945 1.25,-1.81055 -0.32032,-1.75 1.74024,0.041 2.56836,2.23047 -1.16992,1.08984 1.12109,3.34961 3.99023,0.35937 -0.01,4.78125 2.08008,-1.42187 2.44922,1.23047 0.55078,-1.92969 3.55859,-2.05078 -0.51953,-1 6.49023,-1.44922 3.37891,3.5 0.41016,6.41992 3.62109,1.45117 0.41992,-0.7207 1.91016,3.82031 4.28906,0.97852 0.61133,-1.9082 3.5,4.69921 2.47852,-0.36914 1.35156,-1.20117 -1.75,-2.93945 0.75,-1.75 -2.11133,-0.65039 0.61133,-1.41992 5.98828,-3.14063 2.56055,-4.22851 -1.66016,-2.25 1.26953,-2.94141 -6.11914,-5.5293 -0.14844,-3.59961 0.008,0 2,-1.12109 0.53124,-1.74024 4.66993,-0.60937 0.85937,0 2.23047,-2.07031 2.16016,0.74023 0.25,-2.68945 4.19922,1.96875 4.56054,-0.19922 1.66016,-1.25977 -0.42969,-3.3496 4.08008,-2.34961 -0.51172,-3.26172 2.21094,-1.04883 -0.36914,-1.68945 1.10937,-0.72071 -2.01953,0.16016 0.33984,-2.40039 -1.25976,-2.49024 1.66992,0.17969 0.87891,-2.20898 0.45117,1.01953 0.21875,-0.01 4,-1.01953 3.38086,-9.23047 0.23047,-2.08984 2.01953,-0.49024 1.28906,1.66993 0.62109,-1.81055 -1.31054,-1.08984 -0.4707,-4.74024 -1.63868,-1.74023 0.75977,-0.7793 -1.07031,-0.10937 2.00976,-3.72071 0.40039,-0.25976 0.75977,-2.16016 -1.2793,-0.5 -0.61133,1.41992 -1.13867,-0.91992 1.28906,-2.18945 -2.16992,-2.830083 0.17969,0 0.84961,-2.609375 -0.98828,-1.341797 2.25,-3.238281 -1.88086,0.898437 -0.71094,-0.898437 2.5,-4.390625 1.52148,0.06055 -2.15039,-3.371094 -0.91992,-4.609375 -10.78125,-9.830078 -0.14844,-1.970703 z" 
                fill="rgb(151, 144, 238)" 
                stroke="white" 
                stroke-width=".7px"
                title="Normandy" 
                id="FR-ND" 
            />
        </svg>