<svg xmlns="http://www.w3.org/2000/svg" viewBox="125.12488999999997 248.08398 182.65075 257.3906499999998" width="182.65075" height="257.3906499999998">
            <path 
                d="m 200.1543,248.08398 -1.09961,0.91016 -1.20899,4.48047 -2.08008,-0.86133 -1.79101,2.83008 -2.07031,-0.97852 1.52148,-2.02148 -1.7207,-0.29883 -0.84961,0.85938 -2.54102,-0.69922 -5.42968,0.8789 -0.45899,1.49024 -3.06055,0.81055 0.90039,-1.71094 -1.46093,-0.11914 -2.56055,1.17968 0.53125,1.91993 -2.29101,2.16015 -2.95899,-0.38086 -1.83008,1.16992 -3.01953,-1.29882 -2.70117,2.16015 -1.81055,-0.28125 1.35156,0.75977 -0.61132,0.98047 1.25976,0.041 -0.47851,0.66016 2.15039,0.80859 -0.96094,2.19141 2.31055,2.71875 0.16992,0 1.65039,1.11133 0.28906,0 1.08985,0.70898 -0.83008,0.76953 0.041,0.25 -0.10156,2.25 2.64063,3.33008 -0.97071,0.83984 1.77149,1.38086 -0.90039,1.63086 1.77929,0.87891 -0.53906,2.7793 0.96875,2.59179 -1.80859,0.71875 1.6289,3.93946 -1.35937,3.45117 0.86914,0.3789 0.61133,-1.33984 2.75976,1.74024 -4.49023,4.08984 -2.08985,-0.50977 -1,1.40039 -4.38085,-2.11914 -0.17969,-0.26172 -0.7793,1.48047 -1.51953,-0.56054 -1.86133,0.99023 -1.23047,-0.74023 1.31055,-2.90821 -5.13867,1.26954 -0.88086,1.94921 -1.69922,0.041 -0.74024,0.86914 0.95899,2.54102 -3.74023,2.88867 -1.54883,2.87109 1.28906,1.09961 2.36133,-0.71094 -0.98047,1.15039 1.86914,0.65039 -0.58984,1.22071 1.73046,0.68945 2.0293,5.5 -2.80859,-0.0195 1.5,1.41992 0.21875,1.76953 -0.91016,0.25 1.05078,2.23047 -1.66015,2.89844 -2.64063,0.3418 1.88086,2.98828 -4.30078,1 0.0605,5.54101 0.60937,1.19922 -0.48047,-1.20898 1.13086,-0.24024 7.56055,4.37891 2.21875,3.68164 6.24023,4.0293 2.67969,3.91992 1.65039,5.76953 0.0273,0.002 1.93359,11.56836 3.04883,7.07031 -3.94922,-3.8496 -4.74024,-15.91993 -10.89062,-9.75976 0.56055,-1.10157 -1.04883,-0.0684 1.59961,-0.28125 -0.88086,-2.20899 -1.39063,1.01953 -2.58984,4.76953 -4.33984,49.39063 0.63085,1.03906 0.58985,-4.54883 2.70898,-4.81054 5.54102,4.61914 -1.48047,0.0215 2.14062,1.00977 0.57032,2.49023 -7.8711,-1.33008 -2.61914,6.66993 -1.66015,19.24023 -6.21094,32.31836 -6.37891,12.24023 -2.79101,2.55078 -5.0293,0.84961 0.0703,1.33008 2.04883,1.16016 0.3418,1.93945 4.35937,-0.59961 0.66016,3.13086 1.33008,0.12891 0.55859,-2.18946 1.15039,-0.32031 6.08008,2.04102 0.26953,3.89843 -1.34961,3.49024 -2.43945,2.23047 1.36914,2.38086 3.57031,1 0.40039,-3.74024 3.04102,-1.34961 -1.5918,2.82813 1.93164,1.41015 1.39844,-0.66015 2.70117,1.13086 0.88867,1.54101 1.16016,-0.91015 7.10156,4 7.85938,-0.83008 0.91992,4.03906 2.23047,0.66992 5.25,6.04102 1.90039,-2.79102 2.63867,1.80079 2,-0.20118 3.38086,-2.84961 -0.58985,-3.83007 1.91993,-0.93946 -0.28125,-4.02929 1.13086,-1.80079 3.34961,-0.83007 -0.53907,-3.5293 1.94922,-0.83008 1.18946,-2.90039 2.06054,0.16992 -0.2207,-2.60937 0.99023,0.23828 1.33008,-2.94922 -1.19922,-1.75977 3.15039,-2.55078 -1.38086,-1.47851 0.1211,-4.16016 -2.76172,1.95899 0.0606,-2.96875 1.9707,-0.51172 -1.99024,-4.33008 -1.13085,0.27148 -0.11915,-2.20117 -3.34961,-0.82031 -2.55078,0.78125 -0.35937,-1.89063 -1.33985,-0.15039 -0.0898,-1.41015 1.64844,-0.66993 -0.31836,-3 2.28906,-1.71874 -1.32031,-4.06055 1.37109,-0.0996 -0.63086,-2.74024 0.91993,-0.60937 -2.20899,-1.68164 2.48828,-2.38867 3.47071,0.61914 2.4707,-3.20899 1.78906,1.74024 -1.15039,1.42969 3.32031,1.88867 0.71094,-1.17969 -0.84961,-2.57031 2.95899,-2.31836 1.23046,1.66015 1.45899,-2.43164 1.63086,-0.39843 2.89062,1.79882 0.58985,-1.08007 5.30859,-1.12891 0.78125,-1.57031 3.93945,0.0488 1.54102,-1.44921 2.93945,3.2207 3.16992,-2.15039 0.73047,-2.63086 1.71875,-0.20898 -0.36914,-1.8711 3.0293,0.98047 1.33008,-0.65039 -0.35938,-2.13867 -1.33008,-0.52149 2.20899,-0.3789 1.83008,-4.82032 -3.37891,-2.06054 1.11914,-4.09961 1,-0.16992 0.87109,2.25 0.43946,-0.94922 4.55078,-0.23047 -0.24024,-3.53125 -1.57031,-1.03906 -0.0195,-3.55079 -1.4707,-2.16015 1.40039,0.41015 3.68945,-2.10937 -0.40039,-1.16992 2.45117,-2.64063 -0.25,-1.79882 3.12891,-0.80079 3.81055,-3.27929 -0.73047,-3.25 2.81054,-0.88086 -0.16992,-1.90039 3.25,-2.08008 -1.16015,-1.85938 1.19922,-0.34961 -1.16993,-4.49023 -0.16992,-0.68945 1.57031,-0.90039 0.01,0 3.74023,-1.58008 0.32032,1.01953 4.17968,0.0703 4.32032,5.33985 2.14062,0.8496 4.39844,-3.20898 1.65039,1.48047 1.57031,-1.28125 3.13086,-0.0996 1.64844,-0.42969 0.35156,0.0899 1.37891,-1.15039 -1.83985,-3.42969 3.08985,-1.30078 0.26953,-3.21875 2.1914,-1.66992 -1.31054,-0.92969 -0.2793,-2.3711 6.87891,-6.77929 -0.45899,-4.42969 5.47852,2.46875 1.98047,-1.29883 -1.68946,-1.60156 1.25977,-7.97852 -2.33984,-2.4707 1.02929,-2.65039 1.48047,-0.0801 0.0801,-4.0293 -5.61914,-6.83007 2.83008,-2.42969 0.17968,-0.041 1.32032,0.18164 2.6582,-2.96093 0.32031,-2.56055 1.96094,-0.91016 -0.41016,-3.75 -2.14062,-3.04882 0.65039,-4.13086 -3.4707,-7.45899 -2.10938,-0.96094 -0.41992,0.78125 -1.40039,-2.90039 -0.94922,1.26953 -2.59961,-1.9707 1.3086,-1.74023 -1.92969,-0.54883 -0.28907,-2.30078 -3.48046,-0.51953 -4.49024,1.10937 -4.55078,-1.99023 -5.79883,1.04101 -2.33008,-1.84961 -1.4707,0.37891 0.51953,1.49023 -1.28906,2.10938 -1.80078,-1.68945 -2.36914,1.82031 -0.79102,-2 -2.67968,1.73047 -0.78907,-2.05078 -4.58984,4.83984 -2.55078,-3.21875 -1.68946,0.28906 -0.40039,1.41016 -3.52929,0.33984 -0.39063,-1.45898 -1.28906,0.30859 0.0293,-0.0195 0.75976,-1.00977 0.64063,-1.91015 -2.54102,-0.90039 -0.26953,-3.51953 -2.14062,-1.75977 -3.0293,0.0195 -0.23047,-1.84961 -4.31055,-2.05078 -0.75,-1.69922 1.46094,-3.90039 -0.59961,-1.98047 -4.05078,-3.75976 -0.7793,-3.66016 -3.81054,-3.24023 -0.5293,-4.26953 -3.07031,-2.04883 -2.07032,0.0801 1.25977,2.96875 -3.83984,-0.0996 -2.78907,1.77929 -3.04101,-1.20898 -1.73047,1.14062 -1.33984,-3.63086 0.88085,-0.49023 -0.39062,-3.20898 -1.43945,0.51953 -0.96094,-1.75977 -2.76953,0.75 0.90039,-1.98047 -0.75977,-1.43945 -0.82031,0.85937 -1.13086,-0.38086 0.2207,-1.08007 -2.49023,0.36133 -1.08984,-2.73047 -1.48047,-0.66993 z m -63.51953,55.42969 -2.10938,0.83985 1.16992,2.49023 2.98047,-0.01 6.33008,3.53907 2.39844,-1.18946 -4.75,-2.75976 -2.49024,0.44922 -0.58984,-0.73828 1.10156,-0.99024 -3.66016,1.55859 -0.80078,-1.50976 1.93946,-0.2793 -1.51953,-1.40039 z m 4.29101,12.51953 0.85938,5.6211 4.89062,4.33984 1.58008,4.83008 1.84961,-3.58008 -2.07031,-4.10937 -0.0703,-3.28125 -3.2207,-0.60938 -3.81836,-3.21094 z m 54.66016,155.74024 0.38867,0.1914 0.24023,3.56836 -0.67968,-0.16015 -1,-0.95899 1.20898,-0.49023 z m -0.82032,3.61133 0.24024,0.1582 1.0293,2.52148 -1.73047,1.24024 -0.7793,-1.75 0.81055,-1.93164 0.28906,-0.21875 0.14062,-0.0195 z" 
                fill="rgb(151, 144, 238)" 
                stroke="white" 
                stroke-width=".7px"
                title="Nouvelle-Aquitaine" 
                id="FR-AC" 
            />
        </svg>