<svg xmlns="http://www.w3.org/2000/svg" viewBox="185.82424000000006 375.1737800000003 214.65014999999997 155.38085999999987" width="214.65014999999997" height="155.38085999999987">
            <path 
                d="m 263.21484,375.17383 -3.74023,1.58008 -1.50977,0.90039 0.16993,0.68945 1.16992,4.49023 -1.19922,0.34961 1.16015,1.85938 -3.25,2.08008 0.16993,1.90039 -2.81055,0.88086 0.73047,3.25 -3.82031,3.28906 -3.13086,0.80078 0.25,1.79883 -2.44922,2.64062 0.40039,1.16993 -3.69141,2.11132 -1.39844,-0.41015 1.46876,2.16015 0.0215,3.54883 1.56836,1.04102 0.24023,3.52929 -4.54883,0.23047 -0.4414,0.94922 -0.86914,-2.25 -1,0.16992 -1.11914,4.09961 3.3789,2.06055 -1.83007,4.82031 -2.20899,0.37891 1.33008,0.52148 0.35937,2.13867 -1.33007,0.6504 -3.0293,-0.98047 0.36914,1.87109 -1.7207,0.20898 -0.72852,2.63086 -3.16992,2.1504 -2.94141,-3.22071 -1.53906,1.45117 -3.93945,-0.0508 -0.78125,1.57032 -5.31055,1.1289 -0.58984,1.08008 -2.88868,-1.79883 -1.63085,0.39844 -1.45899,2.43164 -1.23047,-1.66016 -2.96093,2.32032 0.85156,2.56835 -0.71094,1.18165 -3.32031,-1.89063 1.15039,-1.42969 -1.79102,-1.74023 -2.46875,3.20898 -3.4707,-0.61914 -2.49023,2.39063 2.21093,1.67969 -0.91992,0.60937 0.62891,2.74023 -1.36914,0.0996 1.32031,4.06055 -2.29102,1.7207 0.32032,3 -1.65039,0.66993 0.0898,1.4082 1.33984,0.15039 0.36133,1.89062 2.54883,-0.77929 3.35156,0.81836 0.11914,2.20117 1.13086,-0.26953 1.98828,4.33008 -1.96875,0.50976 -0.0605,2.96875 2.75976,-1.95898 -0.11914,4.16015 1.37891,1.47852 -3.14844,2.55078 1.19922,1.75977 -1.33008,2.95117 -0.99023,-0.24024 0.2207,2.60938 -2.06055,-0.16992 -1.18945,2.90039 -1.95117,0.83008 0.54101,3.52929 -3.34961,0.83008 -1.13086,1.80078 0.2793,4.0293 -1.91992,0.93945 0.58984,3.83008 5.19141,3.52148 1.13867,-0.62109 1.99024,4.06055 1.81054,0.46875 0.49024,1.41992 2.26953,0.41015 7.40039,-2.92968 3.45898,1.1914 1.44141,2.37891 2.73047,-2.84961 2.58984,1.86914 7.25977,-0.83984 3.25976,0.82031 0.0996,-1.99023 -1.49023,-1.59961 1.01953,-1.15039 -0.89844,-0.42969 1.04883,-1.23047 -0.45899,-1.91992 2.04883,-1.25977 9.05078,4.08985 1.41993,-0.92969 0.98046,1.08008 3.95899,-0.0996 3.74023,4.49023 2.54102,-1.08008 5.20898,0.47852 3.34961,6.54101 1.66993,-0.64062 0.0898,-2.09961 2.93164,-0.23047 2.01953,1.64063 5.66992,0.55078 -0.41015,1.5 2.76953,0.1289 -0.24024,0.76953 c 0,0 0,0 -2.05854,1.08982 l -0.39063,3.41015 3.91993,0.45118 2.40039,2.1289 2.21875,-0.20898 1.2207,3.95898 2.19922,1.91016 2.86133,-0.78906 2.91015,-3.42969 1.91016,0.43945 2.29883,-1.25 7.31054,2.5 2.03907,2.98047 2,0.41016 1.93164,-1.43164 3.94922,0.99023 -0.83008,-2.57031 0.94922,-1.0293 2.4414,-1.08984 1.85938,0.67969 2.53906,-2.62891 3.25,0.13867 1.2207,-1.44922 0.83008,0.93946 3.06055,-0.42969 1.88867,2.66992 3.66992,-0.51953 -1.82812,-2.66016 0.45898,-1.89062 -3.89062,-1.34961 -0.75977,-9.19922 1.32031,-12.07031 -0.69922,-2.63086 1.57032,-5.16992 4.07812,-6.58985 6.67188,-5.41992 -0.3711,-1.19922 7.15039,1.16992 0.26954,-0.91992 -0.19922,0.99024 5.69922,-6.60157 3.34961,-0.96875 10.28124,-8.28125 5.59961,-0.41992 1.33008,1.19141 -0.83008,1.28906 0.66016,1.33008 3.95899,1.4707 0.4414,-2.25 3.39844,-1.65039 -0.41016,-1.55078 0.83008,1.11133 5.32031,-3.08008 0.42969,-1.32031 -1.89844,-0.66016 2.46875,-4.18945 2.27149,-0.57031 3.64844,1.24023 -0.62891,-2.29102 2.26953,-6.83007 -1.07031,-1.25 7.16015,-5.53907 -0.01,-1.4414 1.26953,-0.0586 -2.41016,-4.41015 -2.74023,-0.91016 0.041,-6.09961 -0.58984,-1.55078 -1.41992,-0.0703 -0.98047,-3.17969 -5.98047,-4.23047 -2.16015,0.31055 -0.62891,3.18945 -1.75977,-0.41992 -0.15039,-3.24024 -2.73047,0.47071 -2.86914,4.24023 -5.29101,-4.14062 -3.40039,1.01953 -0.31836,-4.17969 1.17968,-0.80859 -3.35156,-3.8711 -1.47851,-5.71875 -2.06055,-1.37109 -1.73047,-8.70898 -1.07031,-0.21094 0.30078,-1.41992 -1.39062,0.43945 -2.00977,-2.10938 -0.73047,-2.17968 -3.18945,0.53906 0.26953,-1.61914 -1.79883,-1.43945 -1.50977,0.31835 -0.20117,2.9004 -4.58984,0.96093 -2.53906,-5.17968 -0.0703,-2.55079 -1.83007,-1.94921 -3.54102,2.81835 -1.81836,-0.50976 -0.24023,2.79102 -1.83985,1.46874 -2.5,-2.39843 -0.91992,2.20898 -0.24023,0 -0.19141,1.8711 -1.09961,-0.23047 -1.08984,2.18945 -0.28907,4.91992 -2.36914,4.1211 -1.85156,-2.05079 -1.05078,-4.74023 1.06055,-0.74023 -0.68946,-1.13868 -1.33984,0.25977 -1.18945,-4.96094 -3.60156,1.08008 0.0605,-3.2793 -1.55078,-1.71093 -5.5,5.58007 -0.16992,3.13086 -2.09961,2.25977 0.41992,1.93945 -2.51953,1.81055 -0.65039,2.21875 -5.45899,0.5918 -1.06054,-1.74024 -1.32031,0.11914 -3.25,1.06055 -0.5293,1.8789 -1.39063,-1.20898 -0.49023,-3.32031 -1.21875,-0.0508 1.73828,-5.35938 -3.33984,-4.93945 0.49023,-2.74024 -1.71875,-3.23046 -3.12109,0.0996 -1.58008,1.28126 -1.65039,-1.48047 -4.39844,3.21093 -2.14062,-0.85156 -4.32032,-5.34961 -4.17968,-0.0703 -0.32032,-1.01953 z m -67.64062,96.58984 0.16016,2.15039 -1.20899,0.49024 1,0.95898 0.68945,0.16992 -0.24023,-3.56836 z m -0.81836,3.6211 -0.14063,0.0195 -0.29101,0.21875 -0.8086,1.93164 0.7793,1.75 1.73047,-1.24024 -1.03125,-2.52148 -0.23828,-0.1582 z m 86.66992,46.4082 1,2.23047 -2.2207,-0.58985 z" 
                fill="rgb(151, 144, 238)" 
                stroke="white" 
                stroke-width=".7px"
                title="Occitanie" 
                id="FR-LP" 
            />
        </svg>