<svg xmlns="http://www.w3.org/2000/svg" viewBox="259.4849700000002 120.40393 87.59999999999985 69.42000000000002" width="87.59999999999985" height="69.42000000000002">
            <path 
                d="m 270.07497,120.40393 1.5,0.48 -0.52,1.86 0,0 0.38,-0.01 0,0 0.75,1.23 2.03,-0.62 3.31,1.43 4.93,-0.83 3.28,-2.18 3.72,2.96 1.99,-1 0.6,1.78 2.18,-0.54 1.17,-1.69 1.82,2.43 0.72,-0.74 2.7,0.83 -0.24,0.82 1.07,-0.47 1.82,1.46 -0.56,0.72 1.74,0.41 0.84,-1.56 1.29,2.82 2.05,-1.81 4.2,3 3.08,-2.27 1.81,1.67 4.86,-1.34 0.78,1.29 0.89,-1.29 2.39,0.4 0.14,-2.01 2.84,0.69 2.16,3.54 -0.97,2.39 3.48,2.51 0.55,2.12 1.67,-0.62 1,2.56 1.6,-1.28 0.64,3.55 2.6,0.73 0.64,1.43 1,-0.92 0,0 0.08,2.4 -3.48,0.33 1.66,1.15 -2.03,2 3.06,1.27 -0.71,6.44 3.45,-0.7 -0.58,0.84 1.63,1.02 -2.41,0.74 0.51,0.93 -2.04,1.21 0.67,1.8 -3.09,0.86 1.3,2.34 -2.26,0.67 1.31,5.61 0,0 -1.6,-0.61 -0.46,1.72 -1.2,0.16 -8.1,-0.18 -1.54,1.48 -2.33,-0.65 -1.33,3.38 1.33,3.44 -1.78,2.66 -2.78,1.46 -0.01,1.26 0,0 -2.94,0.43 -1.94,1.63 -0.85,-2.41 -1.5,0.95 -1.1,-0.83 0.74,1.33 -2.02,1.36 -6.07,-1.09 -4.8,1.06 1.64,-2.53 1.43,-0.15 -0.02,-3.64 -3.88,-2.1 -0.81,-3.48 -1.88,0.49 -1.3,-1.57 -0.99,0.88 0,0 -0.22,0.41 0,0 -2.22,0.86 0.02,-2.08 -1.77,-0.76 -0.9,2.04 -1.23,-0.29 0.49,1.09 -7.93,0.65 -0.61,-1.36 1.26,-3.3 -0.44,-2.37 -2.06,-0.28 0.1,-3.18 -2.51,1.04 -2.83,-1.64 -1.07,-2.91 0.47,-2.52 -3.24,-1.47 0.25,-2.34 -2.03,0.02 -2.65,-3.19 0.42,-1.49 -1.46,-0.88 2.07,-2.76 -1.88,-0.9 0.7,-4.93 -2.18,-1.94 0.72,-1.27 -2.57,-3.15 0,0 -0.36,-1.69 1.1,-0.72 -2.02,0.17 0.34,-2.41 -1.26,-2.49 1.67,0.18 0.88,-2.2 0.45,1.02 0,0 0.22,0 0,0 4,-1.02 z" 
                fill="rgb(151, 144, 238)" 
                stroke="white" 
                stroke-width=".7px"
                title="Île-de-France" 
                id="FR-IF" 
            />
        </svg>