<svg xmlns="http://www.w3.org/2000/svg" viewBox="0.25619441000006266 280.01875000000024 235.54999559000007 89.70999999999975" width="235.54999559000007" height="89.70999999999975">
            <path 
                d="m 142.46619,280.38875 0.97,0.51 2.46,-0.06 1.08,1.54 -0.12,0.89 0.64,0.25 3.48,-0.69 0.38,0.59 2.13,0.56 2.06,1.31 0.19,0.97 2.3,1.02 3.25,-0.45 1.14,3.88 0.91,1.03 2.06,0.4 3.6,-0.34 1.2,-0.91 0.06,-3.08 0.8,-0.57 1.49,0 1.43,0.8 1.26,2.91 0.63,2.06 -1.09,2.56 1.04,0.9 0.85,2.66 0.8,0 1.66,-2.17 2.34,-1.6 0.4,0.29 2.74,-2 0.91,-0.4 0.75,0.3 0.54,-0.49 0.03,-1.58 -1.43,-1.03 1.1,-1.75 2.96,-0.3 2.91,1.77 1.22,0.2 2.72,-2.6 2.91,-0.23 -0.27,-1.87 0,0 3.41,-1.63 6.43,-1.77 1.4,0 0.93,0.75 0.37,1.12 -1.02,4.19 1.49,1.86 0,0.75 -2.7,1.96 0.65,0.75 4.29,1.68 1.12,1.02 0.47,1.3 0,1.3 -2.98,2.61 3.07,1.02 0.93,0.65 0.37,1.02 -0.84,2.79 1.3,1.86 0.09,1.21 -1.58,4 0.09,1.3 3.91,0.75 2.61,1.68 1.96,4.94 1.58,2.05 1.3,0 1.12,-1.4 0.84,-0.28 1.58,0.65 0.28,0.93 1.02,0.84 -1.02,1.12 1.49,1.03 2.24,2.7 0.65,2.51 -0.93,0.65 -0.28,1.96 -2.42,1.58 -5.4,1.77 -0.75,0.93 -2.42,0.28 -2.33,2.79 -3.45,0.84 -0.93,0.75 -3.17,0.93 -2.14,-1.21 -3.26,-0.28 -1.68,0.19 -3.63,1.68 -1.58,-1.68 -3.82,-0.09 -3.54,-2.79 -2.7,-0.37 -3.17,0.47 -2.33,-1.96 -3.35,-0.47 -1.68,-0.75 -1.12,-0.84 -0.47,-1.58 -4.01,-0.56 -1.68,3.26 -1.21,0.75 -5.68,0.56 -0.84,0.56 -2.7,4.75 -0.37,2.89 -0.98,1.34 0,0 -1.41,-0.9 -0.8,0.06 0.06,1.26 -4.11,0.97 -0.69,2 -0.69,0.4 -2.97,-0.29 -2.08,0.8 -0.55,2.28 -1.77,2.11 -1.83,-0.23 -0.69,-1.31 -0.8,0 -4.11,2.29 -5.44,-0.69 -1.6,0.34 -0.74,0.51 -0.4,1.31 -0.51,5.6 -1.6,2 -1.49,0.34 -2.23,-0.34 -3.88,-2.11 -1.83,3.54 -1.66,-0.34 -0.8,-1.03 -1.03,-0.17 -2.11,1.94 -1.83,0.11 -2.69,-0.91 -2.17,-1.88 0.61,-5.06 -1.41,-1.96 -3.43,-1.88 -2.63,-5.77 -0.969996,-0.69 -5.32,-1.02 -2.28,-2.46 -0.97,0.17 -0.8,1.14 -2.23,0.29 -1.17,1.23 -2.37,-0.32 -1.43,1.77 -3.54,-1.65 -1.03,2.1 -1.44,1.22 -1.65,2.67 -3.43,-0.06 -0.91,-0.8 -0.23,-2 -1.6,-1.37 -0.91,-0.06 -2.34,1.71 -0.97,-0.11 -3.43,-3.14 -2.53,1.46 -0.58,1.18 -2.15,-0.46 -1.82,2.68 -1.43,0.11 -1.2,-2.68 -2.11,-0.06 -2.8,-0.97 -0.8,0.51 -0.86,2.74 -1.81,0.81 -5.45,-4.18 -5.08,-1.71 -1.54,0.06 -1.2,1.14 -1.48,0.17 -1.6,-0.46 -0.61,-0.73 -1.34,0.33 -2.07,2.75 -1.28,0.11 -0.82,0.75 0.06,0.8 -1.94,-0.06 -2.87,0.92 -0.87,-0.65 -1.52,0.7 -2.17,-0.74 -0.86,-1.71 -1.0399996,0 -0.62,2.51 -1.32,1.08 -1.94,-1.54 0.06,-1.88 0.86,-1.09 0.23,-1.6 -2.11,-6.28 -0.06,-4 -0.63,-2.29 -2.8,-3.51 0,-3.73 -1.02999999,-0.89 -0.07,-1.08 4.85999999,-5.51 -2.29,-3.23 1.31,-3.83 2.34,-1.91 0.63,-1.49 -1.6,-2.4 0.51,-0.69 0.8,0.34 1.14,1.94 1.77,-0.17 1.4299996,1.03 1.14,1.77 0.29,4.23 2.57,0.4 1.83,-1.57 1.66,-0.31 1.94,0.63 0.4,-0.46 -2.57,-3.94 -0.57,-2.4 0.91,-9.6 0.8,-0.63 1.49,0.11 2.11,1.37 5.03,-2 1.54,0.06 0.34,0.86 1.03,-0.11 1.94,-3.14 3.88,-2.28 4.68,-1.54 3,0.11 3.2,-0.8 6.11,-2.46 1.31,0.06 5.37,3.14 3.83,3.77 1.2,0.11 0.86,-0.91 1.14,0.46 0.23,1.43 1.31,1.43 4.34,-0.34 1.09,0.4 2.46,1.49 1.83,0.17 0.11,1.2 0.63,0.57 4.51,2.46 8.34,2.23 2.06,1.31 0.74,0.69 -0.4,1.43 -2.4,1.31 -3.37,2.86 -0.4,3.43 0.51,1.2 1.03,0.17 -0.15,-2.72 0.49,-1.79 0.69,-0.51 2.17,0.11 4.34,-2.46 -0.23,-1.89 1.31,-1.88 0.74,-6.83 2.169996,-0.91 8.11,-1.6 1.09,-1.89 -0.23,-2.46 1.94,-0.69 0.8,0.69 1.57,-0.43 2.48,-1.62 5.54,-2.23 0.9,-2.34 -1.83,-3.08 0.46,-1.09 1.54,-0.51 4.86,-0.17 3.43,-2.11 2.51,-3.08 3.31,-0.34 4.22,0.37 z m -13.75,11.81 0.58,-1.12 0.04,-1.62 -0.73,-0.96 -0.77,0.96 0.42,2.39 0.46,0.35 z m 45.22,2 0.25,-0.95 -1.9,-0.55 0,1.25 0.5,0.15 1.15,0.1 z m -47.57,4.13 0.19,3.08 -0.58,4.32 0.62,2.31 1.16,1.62 1.46,0.85 3.01,0.46 0.85,0.5 0.15,0.85 -0.31,1.27 -1.04,0.42 1.35,2.58 -2.51,2.43 -0.58,1.97 -1.23,0.93 0.27,0.69 2,0.23 1.35,1.19 0.54,-0.66 -0.73,-0.85 0.19,-0.89 0.85,-1.04 1.04,0.23 -0.19,2.12 0.58,0.31 3.59,-0.5 2.39,-2.66 0.15,-0.69 -0.85,-0.85 0.15,-1.08 -0.81,-0.5 -4.16,0.15 -0.08,-0.73 1.46,-0.66 0.39,-0.81 -0.23,-1.08 -1.12,-1.23 1.7,-0.54 2.2,-1.54 0.31,-0.66 -0.35,-1.04 -4.05,2 -0.89,-0.08 -1.58,-6.25 -1.47,-0.66 -0.77,-1 -0.62,-3.2 -1.58,-3.12 -2.16,-1.04 -1.04,0.58 0.19,0.73 0.79,1.54 z m 52.67,19.99 2.74,-1.92 3.63,0.48 0.96,-2.19 -5.21,-4.32 -0.75,0.89 0.82,2.26 -1.51,1.23 -2.54,0.62 -0.27,1.1 2.13,1.85 z m -87.539996,5.29 -0.61,1.22 1.62,2.84 0.32,2.63 1.04,0.17 2.4,-0.93 0.58,0.35 0.49,0.98 -0.87,2.43 0.26,1.16 2.23,-1.5 2.429996,-3.47 3.33,-1.42 1.56,-2.08 -0.43,-1.42 -1.13,-0.23 -3.07,0.84 -2.489996,-0.06 -5.44,-1.68 -2.22,0.17 z" 
                fill="rgb(151, 144, 238)" 
                stroke="white" 
                stroke-width=".7px"
                title="Batken" 
                id="KG-B" 
            />
        </svg>