<svg xmlns="http://www.w3.org/2000/svg" viewBox="272.8761899999997 0.40875089999996694 299.4000000000003 136.75999910000002" width="299.4000000000003" height="136.75999910000002">
            <path 
                d="m 358.57619,2.2387509 2,0 2.06,2.68 1.82,-0.17 0,0.92 0.58,0.4 0.85,0.45 0.97,-0.23 0.46,0.8 0.91,-0.22 2.35,2.57 2.74,1.0200001 0.51,0.92 2,-0.57 1.2,1.03 4.92,1.31 0.45,1.43 4.29,5.37 2.05,1.83 1.89,0.74 1.2,2.17 2.68,1.77 1.43,0.23 1.66,-0.74 0.97,0.28 1.69,-0.86 0.97,0.29 5.03,2.29 1.08,1.08 7.09,3.71 5.2,1.49 3.37,2.34 3.25,0.92 2.34,1.88 4.46,-0.23 4.17,1.2 3.13,0 5.66,1.26 3.31,-0.46 15.54,4.11 2.34,-3.37 1.02,-0.61 1.46,-6.04 1.59,-2.03 2.33,-1.83 5.48,-1.54 1.2,0.34 1.31,2 2.91,0.34 2.11,1.66 1.66,0 6,-1.66 4,0.12 1.08,0.86 5.49,0.11 1.2,0.69 0.6,3.91 1.22,0.66 1.95,0.11 9.7,-2.79 0.92,-1.78 0.8,-0.53 5.29,0.9 1.33,-0.71 2.73,0.71 5.66,-0.03 1.6,-0.97 0.68,-1.17 0.12,-1.74 0.75,-0.69 4.05,-0.28 1.09,-1.94 0.85,-0.12 5.03,0.86 1.72,-1.09 3.07,-0.43 1.08,0.46 1.67,2.54 1.09,-0.11 2.39,-2.03 4.28,0.34 1.26,0.35 0.45,2.11 1.96,0.26 2.9,2.29 -0.85,1.31 -2.73,0.68 -3.18,2.84 -1.48,4.77 -1.13,0.57 -2.73,-0.45 -10.57,1.36 -1.47,0.45 -0.69,0.8 -2.95,-0.34 -4.54,2.04 -1.71,0.23 -4.88,-0.68 -2.62,1.14 -2.38,-0.34 -1.82,0.79 -3.52,-0.57 -2.05,0.46 -1.02,-0.91 -1.93,-0.12 -0.11,2.28 -2.73,0.34 -1.59,0.79 -2.5,-0.34 -1.93,2.05 -6.59,4.2 -1.82,2.05 -2.5,1.13 -0.34,2.62 -1.02,0.68 -1.48,0.45 -1.59,-0.68 -3.3,0 -1.93,0.45 -1.13,0.91 -4.55,0.8 -0.79,0.91 -3.87,-0.12 -2.61,0.57 -2.5,-1.13 -2.27,-0.35 -0.57,1.25 0.57,2.28 -0.12,2.04 -3.52,0.12 -1.36,1.13 -1.48,0 -0.91,0.8 -1.47,3.41 -3.64,2.61 -1.25,1.48 -3.98,1.7 -1.47,-0.91 -1.25,-0.11 -0.57,-1.03 0.11,-1.02 -1.02,-0.23 -0.45,0.8 -1.25,0.57 -1.94,0.57 -1.93,-0.34 -1.59,0.56 -2.61,-1.81 -1.14,1.47 -3.18,0.12 -2.72,1.13 -5,-1.82 -3.18,0.8 -1.37,-0.45 -0.91,-1.03 -3.06,2.16 -2.84,0.12 -1.14,-1.71 -1.14,-0.34 -2.27,1.25 -5.11,-0.8 -1.14,0.57 -7.61,0.68 0.34,1.6 2.27,2.61 0.8,2.16 1.36,1.81 0.46,2.62 -1.03,0.79 -1.81,-0.45 -3.75,0.45 -1.71,0.8 -2.38,3.07 -2.73,2.15 -2.84,-0.45 -4.95,1.76 -2.39,-0.11 -3.18,0.789999 -2.39,-0.56 -2.72,0.9 -2.73,0.23 -3.07,-0.57 -1.93,8.98 1.14,1.02 3.29,1.48 0.34,1.02 -0.91,0.34 -0.91,1.48 -1.47,0.34 -1.37,1.14 -0.56,1.13 0.9,3.41 -0.68,1.7 -2.72,1.37 -0.96,5.51 -1.93,0.34 -2.39,-0.68 -1.36,0.57 -1.14,1.02 -1.81,5.45 -1.25,0.91 -1.48,-1.7 1.7,-4.89 -0.45,-0.57 -3.86,0.68 -1.48,-0.34 -0.68,-1.59 -2.73,-2.5 -1.13,-1.81 -1.71,1.7 -1.14,-0.23 -1.81,0.8 -5.12,0 -0.79,-0.68 -2.95,0.68 -0.67,-0.37 0,0 -0.07,-2.05 -0.61,-0.68 -0.46,-2.21 -1.06,-0.53 -3.2,-0.46 -8.28,1.98 -1.22,-0.91 -0.99,-0.08 -0.84,0.91 -2.2,-0.22 -1.29,-1.37 -2.06,0.15 -6.84,-2.13 -1.45,0.38 -1.59,-1.37 -0.84,-3.42 -1.22,-1.67 -7.83,-2.13 -3.25,0.3 -2.23,-0.88 0,0 -0.36,-1.75 0.49,-2.76 -3.25,-1.18 -1.37,-1.87 0.29,-5.119999 0.79,-0.69 4.33,1.38 4.43,-3.84 1.08,-0.2 1.48,0.6 3.54,-1.28 4.14,1.08 2.65,-2.36 4.14,-0.3 4.43,1.48 7.38,-2.56 1.18,-1.38 0.2,-3.15 2.76,-3.35 0.69,-2.06 0,-1.87 -2.27,-1.58 -1.28,1.08 -1.08,-0.19 -0.69,-1.87 -1.08,-1.09 -1.38,0.3 -0.1,2.16 -1.08,3.35 -0.79,0.3 -1.08,-0.55 0.13,-1.5 -2.68,-2.57 -2.63,-5.12 -1.2,-4.39 0.06,-5.37 1.67,-4.35 0.33,-3.01 2.17,-4.24 1.64,-2.06 0.75,-7.62 -0.45,-3.49 -0.96,-2.23 0.46,-2.17 2.62,-2.63 -0.12,-4.62 0.81,-2 3.54,-0.86 2.64,-1.44 2.16,-2.1 3.66,-1.89 4.4,-3.25 0.66,0.85 1.37,0.46 0.97,-1.03 5.45,0.52 1.54,-1.55 0.32,-1.05 0.55,0.17 2.37,-6.8300001 3.31,1.2 1.31,2.17 1.78,0.91 1.48,-0.51 1.54,-1.43 7.37,-0.39 1.09,-0.52 0.45,-1.08 -2.05,-3.66 0.45,-1.6 1.78,1.26 z" 
                fill="rgb(151, 144, 238)" 
                stroke="white" 
                stroke-width=".7px"
                title="Chü" 
                id="KG-C" 
            />
        </svg>