<svg xmlns="http://www.w3.org/2000/svg" viewBox="66.21619399999993 101.21874999999999 327.22999599999986 135.51999999999992" width="327.22999599999986" height="135.51999999999992">
            <path 
                d="m 216.30619,101.41875 6.8,1.08 1.47,0.88 1.87,2.86 1.38,0.39 3.45,-0.98 2.95,2.26 1.77,-0.19 4.23,2.26 4.73,-0.39 5.02,2.46 6.26,4.82 5.02,-0.59 0.89,-2.95 2.75,-1.28 2.17,-2.96 0.69,-0.19 1.57,1.57 1.97,-1.28 0.79,1.48 1.38,-0.3 1.57,0.59 2.33,-1 0,0 2.23,0.88 3.25,-0.3 7.83,2.13 1.22,1.67 0.84,3.42 1.59,1.37 1.45,-0.38 6.84,2.13 2.06,-0.15 1.29,1.37 2.2,0.22 0.84,-0.91 0.99,0.08 1.22,0.91 8.28,-1.98 3.2,0.46 1.06,0.53 0.46,2.21 0.61,0.68 0.07,2.05 0,0 0.84,0.46 -1.22,2.05 -3.95,4.11 0.15,0.53 3.8,1.98 1.14,0.07 1.22,-1.06 0.61,0.08 2.35,2.2 2.67,-0.61 0.91,0.46 2.89,0 1.21,0.91 0.46,1.52 -0.3,3.12 1.82,3.88 1.6,1.06 4.03,0 0.99,0.69 -0.54,3.95 0.61,1.45 0.38,5.01 -0.91,2.28 -1.14,0.08 -1.52,-2.05 0,-1.45 0.84,-1.75 -0.54,-1.06 -2.35,-1.98 -3.88,-0.83 -2.13,-1.45 -1.9,0.61 -0.08,0.84 2.66,6.08 2.1,0.88 0.41,1.35 1.35,1.35 3.25,2.17 2.57,0.4 3.65,-0.54 2.17,0.41 2.84,1.76 2.03,-1.36 6.89,-0.67 3.93,1.08 1.75,1.49 1.49,0 2.71,-3.38 3.65,-0.95 5.95,-0.27 2.57,-0.81 1.89,-2.03 2.85,-1.49 1.62,-0.4 2.16,0.4 -0.54,2.57 -1.22,1.9 0.41,4.86 -2.3,5.82 -0.27,4.46 -0.81,1.9 -3.52,2.16 -0.95,1.36 -3.24,0.13 -2.44,2.16 -5.68,0.82 -4.06,2.7 -6.08,1.35 -0.54,2.03 2.16,3.25 0.68,3.65 -3.38,-0.54 -4.06,1.08 -4.47,0.27 -2.02,-0.4 -1.09,1.89 -1.62,0.41 -1.22,1.08 -0.27,1.22 -4.06,0.67 -0.67,1.35 0.13,1.76 0.95,1.63 4.33,3.24 0,1.49 -3.25,2.57 -2.03,2.98 -0.54,1.75 -1.52,-2.02 -2.72,-0.07 -2.01,-1.03 -3.04,-0.72 -0.39,-5.77 -0.39,-0.9 -1.53,-0.78 -0.07,-2.46 -2,-0.91 -1.04,0.19 -0.07,1.88 -1.23,1.1 -0.26,1.88 -5.51,5.45 -1.49,6.35 -0.97,0 -3.63,-1.69 -1.68,-2.13 -2.4,-1.82 0,-1.3 2.59,-3.17 4.41,-2.59 0.78,-1.23 -0.78,-2.73 -1.43,-1.62 -0.71,0.13 -3.43,1.23 -0.2,0.72 1.36,1.75 0,1.1 -0.65,0.65 -5.89,-0.85 -3.44,0.07 -2.53,-0.84 -1.62,1.29 -0.13,2.01 -0.51,0.65 -2.01,0.84 0,0.84 -1.43,1.43 -2.85,-0.45 -4.8,0.97 -0.97,1.17 -0.84,3.11 0.13,3.56 0.97,1.88 -0.19,1.69 -1.3,2.26 -3.05,0.52 -2.65,2.81 -9.88,-0.87 -1.29,1.3 -0.03,0.63 -1.52,1.14 -0.19,0.92 -1.03,0.68 -1.31,-0.05 -1.77,-1.09 -2.96,-4.53 -1.1,-0.38 -0.74,0.05 -0.4,0.8 -6.34,1.83 -2.4,-0.11 -8.63,-2.69 -0.63,0.35 -0.74,-0.58 1.34,-3.37 -0.43,-2.2 -3.88,-4.11 -1.83,-0.06 -0.05,-2.28 -1.01,-1.73 -3.34,-1.9 -3.2,0.72 -2.33,-2.95 -0.78,-0.34 -0.78,0.28 -0.84,1.51 -2.24,1.44 -2.91,1.66 -2.97,0.62 -0.8,1.03 -1.26,0.23 -2.17,-1.08 -0.2,-1.11 2.23,-0.39 2.6,-2.79 -0.04,-1.98 -2.45,-2.51 -0.34,-1.17 0.51,-1.85 -0.34,-2.95 -1.45,-1.01 -2.61,0.23 -1.53,0.95 -2.05,2.45 -1.79,-0.34 -4.2,-2.36 -3.94,0.57 -3.49,-1.77 -1.54,-3.6 1.17,-2.04 1.74,-1.61 0.8,-2.63 -0.08,-0.95 -2.18,-3.13 -0.44,-1.5 1.05,-0.88 -0.46,-1.6 -1.83,0.75 -1.6,-0.12 -0.51,-2.93 -2.63,-3.35 -0.23,-2.4 -0.74,-0.34 -1.03,0.74 0.29,2.4 -0.63,0 -1.37,-2.57 -1.66,-0.29 -0.69,0.97 0.75,2.06 -0.75,1.03 -1.14,-0.52 -0.33,-1.63 0.48,-1.31 2.42,-2.6 -0.16,-4.24 0.61,-0.39 0.07,-2.74 -1.37,-0.05 -1.26,1.37 -1.62,0.75 -0.56,1.95 -0.96,0.84 -2.8,0.97 0.17,1.14 2.34,0 1.09,1.03 -0.23,3.5 -1.18,2.23 0.62,2.12 -0.28,0.9 -1,0.16 -0.73,2.34 -1.49,-0.4 -0.11,2.12 -1.09,1.37 -2.19,1.51 -2.46,-0.91 -2.05,0.86 -2.35,-0.69 -2.17,1.43 0.06,1.31 0.51,0.16 -0.33,1.28 0.33,1.53 1.29,1.43 -0.26,1.49 -1.65,1.65 2.34,2.97 -2.46,4.29 -1.03,0.4 -1.83,-0.86 -0.62,-3.54 -1.89,-1.26 -2.74,1.2 -0.8,2.69 -1.2,-0.12 -0.91,-0.91 -0.23,-3.86 -1.37,-0.74 -0.69,-0.06 -0.91,0.8 -0.61,-0.73 -3.03,-0.3 -2.85,1.83 -0.35,1.83 -1.88,0.69 -1.14,-0.15 -2,-2.57 -1.83,-1.03 -2.86,-0.28 -2.05,1.8 -2.75,-0.32 -0.8,-1.71 -2.28,-1.54 -2.11,-3.14 -0.75,-0.18 -2.4,0.06 -0.66,0.49 -0.67,2 -1.18,1.45 -0.6,-0.83 0.03,-3.68 -1.32,-1.09 0,-1.98 1.03,-2.96 -0.28,-6.37 -4.74,-7.59 -2.52,-0.58 -2.169996,0.75 -0.95,-0.2 -0.02,0.54 -3.31,0.46 -4,4.51 -2.29,0.34 -2.11,-1.03 -0.97,-2.75 -4.23,-3.19 -1.16,0.06 -1.66,-2.74 -1.37,0.46 -3.09,-2.4 -1.59,0.92 -1.09,1.48 -1.26,0.05 -2.8,-0.91 -1.55,-1.34 0.06,-3.74 2.46,-2.29 0.46,-2.97 4.34,-0.29 2.17,-1.6 2.69,-0.57 1.65,-1.14 2.69,-4 2.4,-0.86 1.88,-2.05 2.17,0.05 1.19,-2.28 -0.33,-2.1 0.45,-2.42 1.21,-1.05 3.03,-1.31 1.39,-1.71 0.38,-1.32 3.08,-2.18 0.949996,-2.42 1.45,-1.46 3.09,-1.03 2.51,0.4 0.54,-1.59 0.72,-0.12 3.2,1.43 1.65,-0.4 1.46,-2.42 0.11,-1.95 -1.23,-3.57 1.49,-4.74 6.23,2.34 2.11,-0.06 2,-0.74 0.75,-1.54 4.05,-2.89 2,-0.63 0.74,-1.6 4.29,-3.02 2.85,-0.23 2.59,-1.63 0.76,-0.88 0.51,-3.12 2.21,-1.07 4.82,0.29 1.48,0.3 2.86,1.77 4.13,0.29 2.36,-1.57 3.74,-0.1 3.05,-1.38 1.48,0.1 4.63,1.87 2.85,2.86 10.93,2.46 6.79,3.54 2.66,0.79 3.54,2.65 3.74,0.1 0.89,1.09 3.25,-1.19 1.18,-1.77 0.39,-1.67 -0.39,-3.54 0.39,-1.87 2.17,-3.45 -0.1,-1.57 1.08,-0.89 z" 
                fill="rgb(151, 144, 238)" 
                stroke="white" 
                stroke-width=".7px"
                title="Jalal-Abad" 
                id="KG-J" 
            />
        </svg>