<svg xmlns="http://www.w3.org/2000/svg" viewBox="320.64619000000016 78.53875100000013 323.6600000000003 206.899999" width="323.6600000000003" height="206.899999">
            <path 
                d="m 449.93619,79.788751 0.57,1.03 1.25,0.11 1.47,0.91 3.98,-1.7 1.2,-1.42 0,0 1.74,1.88 4.42,1.47 1.4,1.63 1.78,-0.24 0.16,2.18 1.7,0.31 0.23,1.24 6.05,-0.78 0.85,-2.79 0.78,-0.31 5.12,0.62 0.69,0.7 -0.93,5.27 0.7,0.39 -0.31,1.7 0.39,2.72 1.71,4.42 -0.24,2.089999 3.96,2.56 0,2.71 4.26,1.63 0.39,0.62 0,1.32 -1.55,3.18 -0.31,1.78 -0.7,0.93 -1.4,0.08 -2.01,3.49 0.08,0.85 3.02,0.77 3.26,-1.31 2.48,0.07 1.31,-1.47 1.86,0 2.08,0.51 4.58,2.24 1.16,-0.46 4.42,0.62 0.54,1.24 1.4,0.85 2.71,0.39 1.32,-0.85 0.7,0.15 1.01,0.93 3.02,1.01 1.24,1.47 3.57,1.01 0.62,1.4 0.93,0.31 1.47,-1.09 0.46,0.31 0.47,1.86 -0.39,1.09 -1.94,1.24 -0.07,2.17 -0.55,1.08 -1.08,0.62 -4.89,0.16 -1.78,-0.47 -0.77,0.47 -1.4,2.95 0.62,2.86 -0.47,1.56 0.31,1.55 1.4,-0.55 5.74,0.86 5.19,-0.55 0.86,-1.31 1.55,-0.94 1.78,0.62 1.08,1.01 0.7,1.32 0.24,2.33 -0.63,1.08 -1.78,1.17 -0.7,1.62 0.24,0.86 2.4,1.39 0.31,0.85 -1.63,4.85 -0.08,1.78 1.4,0.24 1.63,-1.55 0.7,0.15 2.32,3.1 6.05,0.08 7.05,-1.16 1.01,0.31 1.32,1.47 1.86,0.46 3.8,-2.55 9.82,1.24 4.72,-0.93 2.18,-1.63 1.31,-2.48 0.62,0 1.4,4.26 -1.94,5.58 -0.54,1.09 -4.03,-0.16 1.24,0.39 1.08,1.71 2.17,8.14 2.64,1.39 1.24,0.31 1.71,-0.46 1.24,0.54 1,1.78 -1.39,3.03 -0.08,2.56 -0.7,1.39 -1.7,1.79 -2.1,1.24 0.16,1.55 0.7,0.31 7.44,-3.57 10.08,-2.02 1.32,1.09 2.32,0.78 -1.24,1.47 0,3.33 2.64,2.41 4.65,-0.55 0.85,-0.54 4.89,0.7 2.48,-0.31 5.43,2.25 2.48,0.46 3.33,-2.25 3.57,-1.32 0.7,-0.85 4.34,-0.62 0.46,0.62 1.24,0.08 -0.93,2.56 0.47,2.17 0.85,1.32 1.94,1.55 1.85,0.44 0,0 -0.84,3.42 -0.91,0.27 -2.36,2.53 -4.84,0.63 -3.2,3.02 -0.97,0 -2.52,-2.22 -3.14,-0.4 -2.71,0.34 -1.4,-0.34 -1.66,-1.26 -1.31,0 -0.35,0.97 -2.28,0.74 0.1,0.51 -3.47,1.21 -1.38,1.88 -2.7,-0.47 -1.69,0.81 -0.97,1.15 -4.12,-0.23 -4.68,1.37 -1.6,-0.69 -4.43,0.52 -1.37,-0.4 0.13,-1.32 -3.68,-0.4 -0.8,-1.08 -2.79,-0.46 -6.17,3.14 -3.6,-2.11 -2,0.06 -2.52,1.25 -1.2,-0.34 -1.14,-0.8 -1.77,-0.28 -0.74,-2.17 -2.57,-1.26 -3.83,0.11 -0.57,-0.63 -1.37,0.06 -2.86,3.03 -1.84,1.13 -1.73,-0.29 0.26,0.7 -2.34,-0.28 -0.98,1.48 -0.17,2.89 -2.4,0.05 -0.45,1.37 -2.8,0.98 -1.32,4.34 0.35,5.25 -1.83,0.97 0.3,1.68 -1.04,1.18 -0.35,1.6 -4.57,3.26 0.12,2.68 1.77,2.57 -2.17,4.8 0.32,1.89 -1.07,1.71 -1.71,0.63 -1.14,2.4 -1.6,0.74 -1.49,2.23 -1.54,3.71 0.23,3.2 -0.91,1.54 -1.89,1.43 -0.11,1.03 -3.72,2.17 -0.63,1.83 -2.74,1.2 -3.03,0 -1.59,3.2 -1.32,-1.09 -0.17,-3.6 -1.94,-1.31 -3.03,-0.52 -1.43,0.17 -2.02,2.29 -3.09,2.17 -6.56,-1.26 -2.92,2.29 -0.74,-0.34 -1.2,-1.89 -1.89,-0.46 -0.91,0.58 -1.14,2.74 -1.2,1.43 0.11,2.57 -0.84,0.77 -1.56,-1.17 -3.77,0.05 -0.68,-1.08 -0.4,0.4 -0.8,-0.86 -2.86,2 -2.85,0.11 -2.18,1.63 -0.8,-0.2 -0.85,-5.14 -1.15,-2 0,-0.97 0.97,-2.74 -0.28,-1.09 2.34,-2.68 0.74,-2.63 -3.06,-2.8 -1.79,-0.75 -0.88,-1.59 -0.86,-3.37 -0.34,-6.63 -0.74,-1.77 -2.29,-1.14 -2.91,1.26 -4.17,2.97 -4.57,5.31 -2.05,1.1 -2.24,0.38 -1.6,1.15 -2.62,2.51 -0.4,1.71 -1.97,0.43 -1.48,1.89 -2.4,1.54 -4,-1.03 -2.06,0 -3.54,1.32 -2.17,-0.23 -1.89,-1.37 -2.45,0.51 -1.66,-0.4 -5,-4.57 -2.8,-1.26 1.14,0.52 -2.46,-0.63 -1.1,0.96 -2.39,-1.02 -1.1,0 -1.36,0.97 -6.03,-0.52 -1.1,-1.55 -1.95,-0.13 -0.77,-0.58 -1.24,0.32 -1.16,-1.23 -0.85,0.45 -0.51,-0.26 -0.46,-2.07 1.36,-3.24 -0.52,-1.04 -1.1,-1.04 -1.29,-0.13 -1.75,-1.29 -2.66,-0.65 -1.94,0.32 -2.21,-2.65 -2.07,-0.07 -1.56,-1.88 -2.27,-0.77 -2.91,-5.84 -1.62,0.33 -0.78,-0.46 -1.23,-3.5 -0.45,-0.45 -1.49,0 -1.43,-1.04 -0.39,-3.11 -2.07,-2.46 -1.82,-0.65 -2.01,-2.33 -1.94,-0.26 -1.17,-3.57 -3.04,-1.49 -0.3,-0.63 1.35,-3.11 2.3,-2.7 2.17,-1.49 0,-1.49 -4.33,-3.24 -0.95,-1.63 -0.13,-1.76 0.67,-1.35 4.06,-0.67 0.27,-1.22 1.22,-1.08 1.62,-0.41 1.08,-1.89 2.03,0.4 4.47,-0.27 4.05,-1.08 3.39,0.54 -0.68,-3.65 -2.17,-3.25 0.55,-2.03 6.08,-1.35 4.06,-2.7 5.68,-0.82 2.44,-2.16 3.24,-0.13 0.95,-1.36 3.52,-2.16 0.81,-1.9 0.27,-4.46 2.3,-5.82 -0.41,-4.86 1.22,-1.9 0.54,-2.57 -2.16,-0.4 -1.63,0.4 -2.84,1.49 -1.89,2.03 -2.57,0.81 -5.95,0.27 -3.65,0.95 -2.71,3.38 -1.49,0 -1.76,-1.49 -3.92,-1.08 -6.9,0.67 -2.03,1.36 -2.84,-1.76 -2.16,-0.41 -3.65,0.54 -2.57,-0.4 -3.25,-2.17 -1.35,-1.35 -0.41,-1.35 -2.1,-0.88 -2.66,-6.08 0.08,-0.84 1.9,-0.61 2.13,1.45 3.87,0.83 2.36,1.98 0.53,1.06 -0.83,1.75 0,1.45 1.52,2.05 1.14,-0.08 0.91,-2.28 -0.38,-5.01 -0.61,-1.45 0.53,-3.95 -0.98,-0.69 -4.03,0 -1.6,-1.06 -1.83,-3.88 0.31,-3.12 -0.46,-1.52 -1.21,-0.91 -2.89,0 -0.92,-0.46 -2.66,0.61 -2.36,-2.2 -0.6,-0.08 -1.22,1.06 -1.14,-0.07 -3.19,-1.45 -0.76,-1.06 3.95,-4.11 1.05,-2.14 2.95,-0.68 0.79,0.68 5.11,0 1.82,-0.8 1.14,0.23 1.7,-1.7 1.14,1.81 2.73,2.5 0.68,1.59 1.47,0.34 3.87,-0.68 0.45,0.57 -1.7,4.89 1.47,1.7 1.25,-0.91 1.82,-5.45 1.14,-1.02 1.36,-0.57 2.39,0.68 1.93,-0.34 0.95,-5.51 2.73,-1.37 0.68,-1.7 -0.91,-3.41 0.57,-1.13 1.36,-1.14 1.48,-0.34 0.91,-1.48 0.91,-0.34 -0.34,-1.02 -3.3,-1.48 -1.13,-1.02 1.93,-8.98 3.07,0.57 2.72,-0.23 2.73,-0.9 2.39,0.56 3.18,-0.789999 2.38,0.11 4.96,-1.76 2.84,0.45 2.72,-2.15 2.39,-3.07 1.7,-0.8 3.75,-0.45 1.82,0.45 1.02,-0.79 -0.45,-2.62 -1.36,-1.81 -0.8,-2.16 -2.27,-2.61 -0.34,-1.6 7.61,-0.68 1.14,-0.57 5.11,0.8 2.27,-1.25 1.14,0.34 1.13,1.71 2.84,-0.12 3.07,-2.16 0.91,1.03 1.36,0.45 3.18,-0.8 5,1.82 2.73,-1.13 3.18,-0.12 1.14,-1.47 2.61,1.81 1.59,-0.56 1.93,0.34 1.93,-0.57 1.25,-0.57 0.46,-0.8 1.02,0.23 z" 
                fill="rgb(151, 144, 238)" 
                stroke="white" 
                stroke-width=".7px"
                title="Naryn" 
                id="KG-N" 
            />
        </svg>