<svg xmlns="http://www.w3.org/2000/svg" viewBox="161.79618999999994 204.3987500000005 243.48999999999998 184.72999999999965" width="243.48999999999998" height="184.72999999999965">
            <path 
                d="m 399.28619,264.00875 -0.04,0.56 -0.52,0.02 0,3.72 -1.83,1.82 0.12,0.69 4.53,4.05 1.46,2.51 2.28,1.58 -0.19,1.37 -0.97,0.09 -1.83,1.2 -1.28,-0.18 -2.17,-1.96 -0.77,-0.15 -7.05,0.15 -0.62,0.39 0.21,2.68 -2.63,3.86 -1.14,0.36 -0.75,-0.94 -1.94,-0.27 -1.88,0.4 -3.89,6.05 -3.43,1.97 -2.28,3.32 -4.29,3.25 -1.39,1.68 -2.14,0.89 -1.02,0 -2,-1.48 -1.38,0.64 -1.94,-2.3 -8.57,2.06 -1.25,0.63 -0.06,0.57 -1.37,1.08 -1.54,0.46 -2.4,-1.54 -0.63,0.17 -2.73,4.71 -3.9,1.29 -0.05,1.03 2.5,1.08 0.24,1.6 -3.83,4.69 -0.74,1.85 0.8,4.26 -1.72,1.54 -0.91,-0.11 -2,1.54 -1.31,5.48 0.45,2.63 3.26,1.03 1.3,1.34 2.13,5.86 0.91,4.11 -0.23,3.31 -2.05,0 -0.46,0.57 -0.57,2.66 -1.54,1.2 0.51,1.31 -0.74,1.66 -0.06,3.03 -1.54,0.8 -8.46,1.26 -3.14,-0.18 -3.71,-1.08 -1.72,0.97 -2.67,-0.17 -1.43,0.91 -2.23,-1.31 -4.57,0.11 -2.51,1.55 -2.86,0.39 -2.34,1.26 -0.57,0.86 0.11,2.23 -1.37,1.88 -5.08,-0.28 -1.14,1.48 -4.12,1.49 -2.11,-0.12 -3.19,-1.43 -1.6,0.06 -3.94,1.54 -2.97,-0.68 -3.26,1.14 -1.94,-1.48 -1.2,0.05 -2.51,1.66 -2.69,-1.2 -3.25,1.26 -2.63,-2.12 -3.94,-1.43 -5.6,-0.8 -1.31,1.32 -0.63,1.66 -1.14,0.74 -1.32,0.06 -1.14,-2.29 -2.92,-0.17 -1.77,0.97 0.12,1.94 -0.4,0.35 -3.94,0 -2.69,1.25 -2.85,0.23 -0.98,0.86 -0.99,1.25 -1.43,4.06 -3.75,7.03 -0.99,0.17 -0.68,-0.57 -0.86,-3.94 -0.69,-0.75 -1.2,-0.11 -0.8,-2.23 -4.05,-0.29 -1.32,-0.57 -0.91,-1.08 -1.37,-6.34 -0.69,-0.69 -1.71,0.12 -2.51,1.48 -1.2,0 -3.72,2.8 -1.42,2.04 -5.49,0.64 -0.8,0.69 -1.49,-0.4 -1.63,-1.75 -1.68,-3.51 0.52,-1.59 2.34,-2.18 1.03,-2.17 -1.99,-5.26 -1.21,-0.65 -7.49,1.72 -3.54,-0.86 -0.8,0.91 -2.34,-0.63 -1.77,-4.17 -0.12,-1.48 1.78,-3.03 0.09,-2.51 -0.62,-1.28 -3.51,-2.22 0,0 0.97,-1.34 0.38,-2.89 2.7,-4.75 0.84,-0.56 5.68,-0.56 1.21,-0.74 1.68,-3.26 4,0.55 0.47,1.59 1.12,0.84 1.67,0.74 3.36,0.47 2.32,1.95 3.17,-0.46 2.7,0.37 3.54,2.79 3.82,0.1 1.59,1.68 3.63,-1.68 1.68,-0.19 3.26,0.28 2.14,1.21 3.17,-0.93 0.93,-0.74 3.44,-0.84 2.33,-2.8 2.42,-0.28 0.75,-0.93 5.4,-1.77 2.42,-1.58 0.28,-1.96 0.93,-0.65 -0.65,-2.52 -2.23,-2.7 -1.49,-1.02 1.02,-1.12 -1.02,-0.84 -0.28,-0.93 -1.59,-0.65 -0.83,0.28 -1.12,1.4 -1.31,0 -1.58,-2.05 -1.96,-4.94 -2.6,-1.68 -3.92,-0.74 -0.09,-1.31 1.58,-4 -0.09,-1.21 -1.3,-1.87 0.84,-2.79 -0.38,-1.03 -0.93,-0.65 -3.07,-1.02 2.98,-2.61 0,-1.3 -0.47,-1.31 -1.12,-1.02 -4.28,-1.68 -0.65,-0.75 2.7,-1.95 0,-0.75 -1.49,-1.86 1.02,-4.19 -0.37,-1.12 -0.93,-0.74 -1.4,0 -6.43,1.77 -3.41,1.63 0,0 -3.44,-2.13 -0.63,-0.69 0.17,-0.45 2.88,-3.39 1.29,-0.27 1.94,-2.57 -0.4,-1.37 1.77,-1.94 0.35,-2.35 3.25,0.12 0.12,-0.92 2.58,-1.6 0.47,-0.76 -0.36,-0.89 1.03,-0.29 1.37,0.86 2.8,0 0.23,2.68 1.94,1.89 1.09,0.51 0.68,-0.57 1.32,0.06 2.23,1.71 1.02,1.49 0.97,0.28 0.35,0.8 2.11,-0.57 -0.51,-2.45 0.23,-1.15 1.71,-2.01 0.06,-3.81 -0.37,-1.12 -2.15,-0.37 0.29,-1.54 0.74,-0.74 -1.71,-3.83 -2.29,-1.31 0.52,-0.98 2.05,0.06 0.46,-1.6 1.03,0.34 2.54,3.2 0.57,2.29 1.54,1.31 0.97,-0.34 0.11,-1.66 0.92,-0.4 1.03,1.89 5.02,1.83 2.12,1.65 1.71,0.23 1.89,-0.63 0.74,-2.57 0.06,-4.28 0.97,-0.06 0.74,0.97 2.74,0.07 1.2,-0.98 -0.11,-1.32 1.43,-4.68 -1.55,-1.6 0.12,-0.74 1.03,-0.63 1.08,1.26 0.97,-0.12 3.43,-1.31 1.31,-3.03 4.79,-1.26 0.53,-0.91 2,-1.2 3.03,-1.03 5.66,-0.8 1.77,-0.57 1.26,-1.14 1.6,-3.03 -0.78,-2.26 2.65,-2.81 3.05,-0.52 1.3,-2.26 0.19,-1.69 -0.97,-1.88 -0.13,-3.56 0.84,-3.11 0.97,-1.17 4.8,-0.97 2.85,0.45 1.43,-1.43 0,-0.84 2.01,-0.84 0.51,-0.65 0.13,-2.01 1.62,-1.29 2.53,0.84 3.44,-0.07 5.89,0.85 0.65,-0.65 0,-1.1 -1.36,-1.75 0.2,-0.72 4.14,-1.36 1.95,2.4 0.26,1.95 -0.78,1.23 -4.41,2.59 -2.59,3.17 0,1.3 2.4,1.82 1.68,2.13 3.63,1.69 0.97,0 0.46,-0.58 0.45,-4.54 1.23,-2.27 4.86,-4.41 0.26,-1.88 1.23,-1.1 0.07,-1.88 2.33,0.13 0.72,0.59 0.06,2.46 1.53,0.78 0.39,0.9 0.39,5.77 3.04,0.72 2.01,1.03 2.72,0.07 1.82,2.65 3.04,1.49 1.17,3.57 1.95,0.26 2,2.33 1.82,0.65 2.07,2.46 0.39,3.11 1.43,1.04 1.49,0 0.45,0.45 1.23,3.5 0.78,0.46 1.62,-0.33 2.92,5.84 2.27,0.77 1.55,1.88 2.08,0.07 2.2,2.65 1.94,-0.32 5.71,2.07 1.62,2.08 -1.36,3.24 0.45,2.07 0.52,0.26 0.84,-0.45 1.17,1.23 1.23,-0.32 0.78,0.58 1.94,0.13 1.1,1.55 6.03,0.52 1.36,-0.97 1.1,0 z" 
                fill="rgb(151, 144, 238)" 
                stroke="white" 
                stroke-width=".7px"
                title="Osh" 
                id="KG-O" 
            />
        </svg>