<svg xmlns="http://www.w3.org/2000/svg" viewBox="115.50618999999996 42.13875099999991 200.78999999999996 75.02999900000012" width="200.78999999999996" height="75.02999900000012">
            <path 
                d="m 193.28619,44.648751 1.45,0.63 1.66,1.66 5.08,1.14 1.77,2.17 1.77,0.75 3.72,0.28 2.45,-1.66 4.8,-0.28 7.89,2.37 6.57,3.54 2.05,1.89 1.76,0.8 0.86,-0.69 6.17,-0.34 6.34,3.14 1.88,0.17 2.23,1.2 4.63,6.63 3.77,0.63 1.2,0.45 0.51,0.8 1.77,0.52 3.83,0.45 2.59,-0.76 1.98,0.59 6.29,-0.74 5.14,2 6.8,0.74 0.85,1.54 0.49,4.97 2.75,1.32 8.31,1.43 0.92,-0.06 1.91,-1.24 1.08,0.55 0.79,-0.3 0.59,-1.67 0.59,-3.84 1.38,-0.3 1.08,1.09 0.69,1.87 1.08,0.19 1.28,-1.08 1.08,0.39 1.18,1.19 0,1.87 -0.68,2.06 -2.76,3.35 -0.2,3.15 -1.18,1.38 -7.38,2.56 -4.43,-1.48 -4.14,0.3 -2.65,2.36 -4.14,-1.08 -3.54,1.28 -1.48,-0.6 -1.08,0.2 -4.43,3.84 -4.33,-1.38 -0.79,0.69 -0.29,5.119999 1.37,1.87 3.25,1.18 -0.49,2.76 0.49,1.67 -2.46,1.08 -1.57,-0.59 -1.38,0.3 -0.79,-1.48 -1.97,1.28 -1.57,-1.57 -0.69,0.19 -2.17,2.96 -2.75,1.28 -0.89,2.95 -3.64,0.59 -1.38,0 -6.26,-4.82 -5.02,-2.46 -4.73,0.39 -4.23,-2.26 -1.77,0.19 -2.95,-2.26 -3.45,0.98 -1.38,-0.39 -1.87,-2.86 -3.15,-1.47 -2.75,0.1 -4.14,-0.79 -1.08,0.89 0.1,1.57 -2.17,3.45 -0.39,1.87 0.39,3.54 -0.39,1.67 -1.18,1.77 -3.25,1.19 -0.89,-1.09 -3.74,-0.1 -3.54,-2.65 -2.66,-0.79 -6.79,-3.54 -10.93,-2.46 -2.85,-2.86 -4.63,-1.87 -1.47,-0.1 -3.06,1.38 -3.74,0.1 -2.36,1.57 -2.26,0 -1.87,-0.29 -2.86,-1.77 -1.48,-0.3 -4.82,-0.29 -2.2,1.07 -1.81,-2.37 -1.77,-0.29 -2,-1.309999 -1.77,-2 -3.43,-2.06 -4.91,-0.51 -1.03,0.34 -1.89,2.46 -1.77,0.8 -1.37,-0.23 -1.83,-1.2 -1.83,0.91 -1.08,-0.05 -0.57,-2.17 -1.26,-0.92 -0.51,-1.88 1.88,-4.86 1.94,-0.4 0.07,-0.96 1.31,-0.58 1.51,-1.62 -0.37,-1.01 -1.43,-0.85 -0.04,-1.04 2.67,-1.76 1.03,-4.23 1.6,-0.23 3.77,2.11 1.6,-0.17 0.17,-1.88 -0.46,-0.86 -2.06,-2.97 -2.57,-2.46 -0.45,-1.08 0.4,-1.49 1.14,-1.37 1.37,-0.34 5.37,0.97 4,-1.14 0.11,-7.23 2.63,-0.6 2.06,-1.83 1.65,-2.85 0.29,-2.92 1.2,-0.34 2.91,0.74 2.12,-0.4 2.97,-2.91 2.91,-0.06 1.09,0.57 1.77,0.06 4.28,-1.43 2.55,1.96 2.71,0.9 1.06,-1.54 2.17,-0.92 0.74,-1.31 4.06,0.4 7.2,-2.63 5.77,0.97 z" 
                fill="rgb(151, 144, 238)" 
                stroke="white" 
                stroke-width=".7px"
                title="Talas" 
                id="KG-T" 
            />
        </svg>