<svg xmlns="http://www.w3.org/2000/svg" viewBox="458.4061899999996 31.918750999999904 333.70000000000016 172.4699990000001" width="333.70000000000016" height="172.4699990000001">
            <path 
                d="m 644.30619,204.38875 -1.85,-0.44 -1.94,-1.55 -0.85,-1.32 -0.47,-2.17 0.93,-2.56 -1.24,-0.08 -0.46,-0.62 -4.34,0.62 -0.7,0.85 -3.57,1.32 -3.33,2.25 -2.48,-0.46 -5.43,-2.25 -2.48,0.31 -4.89,-0.7 -0.85,0.54 -4.65,0.55 -2.64,-2.41 0,-3.33 1.24,-1.47 -2.32,-0.78 -1.32,-1.09 -10.08,2.02 -7.44,3.57 -0.7,-0.31 -0.16,-1.55 2.1,-1.24 1.7,-1.79 0.7,-1.39 0.08,-2.56 1.39,-3.03 -1,-1.78 -1.24,-0.54 -1.71,0.46 -1.24,-0.31 -2.64,-1.39 -2.17,-8.14 -1.08,-1.71 -1.24,-0.39 4.03,0.16 0.54,-1.09 1.94,-5.58 -1.4,-4.26 -0.62,0 -1.31,2.48 -2.18,1.63 -4.72,0.93 -9.82,-1.24 -3.8,2.55 -1.86,-0.46 -1.32,-1.47 -1.01,-0.31 -7.05,1.16 -6.05,-0.08 -2.32,-3.1 -0.7,-0.15 -1.63,1.55 -1.4,-0.24 0.08,-1.78 1.63,-4.85 -0.31,-0.85 -2.4,-1.39 -0.24,-0.86 0.7,-1.62 1.78,-1.17 0.63,-1.08 -0.24,-2.33 -0.7,-1.32 -1.08,-1.01 -1.78,-0.62 -1.55,0.94 -0.86,1.31 -5.19,0.55 -5.74,-0.86 -1.4,0.55 -0.31,-1.55 0.47,-1.56 -0.62,-2.86 1.4,-2.95 0.77,-0.47 1.78,0.47 4.89,-0.16 1.08,-0.62 0.55,-1.08 0.07,-2.17 1.94,-1.24 0.39,-1.09 -0.47,-1.86 -0.46,-0.31 -1.47,1.09 -0.93,-0.31 -0.62,-1.4 -3.57,-1.01 -1.24,-1.47 -3.02,-1.01 -1.01,-0.93 -0.7,-0.15 -1.32,0.85 -2.71,-0.39 -1.4,-0.85 -0.54,-1.24 -4.42,-0.62 -1.16,0.46 -4.58,-2.24 -2.08,-0.51 -1.86,0 -1.31,1.47 -2.48,-0.07 -3.26,1.31 -3.02,-0.77 -0.08,-0.85 2.01,-3.49 1.4,-0.08 0.7,-0.93 0.31,-1.78 1.55,-3.18 0,-1.32 -0.39,-0.62 -4.26,-1.63 0,-2.71 -3.96,-2.56 0.24,-2.089999 -1.71,-4.42 -0.39,-2.72 0.31,-1.7 -0.7,-0.39 0.93,-5.27 -0.69,-0.7 -5.12,-0.62 -0.78,0.31 -0.85,2.79 -6.05,0.78 -0.23,-1.24 -1.7,-0.31 -0.16,-2.18 -1.78,0.24 -1.4,-1.63 -4.42,-1.47 -1.74,-1.88 0,0 3.68,-2.67 1.48,-3.41 0.91,-0.8 1.48,0 1.36,-1.13 3.52,-0.12 0.12,-2.04 -0.57,-2.28 0.57,-1.25 2.27,0.35 2.5,1.13 2.61,-0.57 3.86,0.12 0.8,-0.91 4.54,-0.8 1.14,-0.91 1.93,-0.45 3.3,0 1.59,0.68 1.47,-0.45 1.03,-0.68 0.34,-2.62 2.5,-1.13 1.81,-2.05 6.59,-4.2 1.94,-2.05 2.5,0.34 1.59,-0.79 2.72,-0.34 0.12,-2.28 1.93,0.12 1.02,0.91 2.04,-0.46 3.53,0.57 1.81,-0.79 2.39,0.34 2.61,-1.14 4.89,0.68 1.7,-0.23 4.55,-2.04 2.95,0.34 0.68,-0.8 1.48,-0.45 10.57,-1.36 2.72,0.45 1.14,-0.57 1.48,-4.77 3.18,-2.84 2.73,-0.68 0.85,-1.31 0.85,0.71 4.97,0 3.95,0.62 2.22,-1.25 5.72,-1.37 2.05,0.45 2.97,-0.62 1.89,0.51 0.97,1.03 5.66,0.23 6.05,1.08 2.91,-0.51 4.52,2.68 1.86,-0.17 2.74,1.14 1.14,-0.05 1.68,2.11 1.01,0.23 3.31,-1.32 3.62,1.38 1.32,0.17 2.57,-0.63 2,0.4 2.38,-0.92 0.39,-1.2 4.07,0.18 6.79,1.8 1.66,-0.86 1.25,-2 0.74,-0.17 1.9,1 6.23,-1.89 3.31,2.92 1.76,0.25 1.09,1.37 1.77,-0.11 1.95,1.06 1.66,2.34 2.9,-0.14 0.86,-0.52 1.84,0.77 1.94,-0.11 1.48,1.6 2.91,-0.6 6.96,2.68 6.44,0.23 2.4,1.2 4,-1.83 5.48,-1.65 1.09,0.11 0.03,1.23 -1.48,2.86 0.76,4.02 1.52,3.09 3.47,4.44 2.64,1.27 1.2,1.89 2.82,0.22 0.63,0.52 0.12,1.2 4.65,4.63 1.14,2.22 1.88,1.89 2,1.03 1.19,2.23 8.24,0.51 2.74,-2.17 13.87,3.71 4.86,-0.17 1.88,0.46 0.77,0.74 0.8,3.94 2.23,2.06 0.94,1.88 4.06,0.86 1.17,2.11 2.57,1.37 0.19,1.65 -0.65,1.33 2.8,4.049999 0.4,1.54 0.86,0.35 1.23,-1.37 0.86,-0.12 2.28,0.63 1.74,1.48 0.8,6 -0.97,4.34 2.28,3.2 -0.31,0.98 -2.15,0 -1.9,-0.75 -1.09,0.35 -0.82,1 -3.61,1.02 -8.68,-1.02 -3.09,0.4 -4.46,-0.23 -3.88,0.97 -2.06,1.31 -0.33,3.66 -1.34,1.26 -1.78,5.27 -1.29,1.24 -0.97,2.57 -1.66,1.48 -0.8,2.4 -3.42,3.43 -4.92,1.2 -6.63,-0.53 -2.36,0.47 -1.29,-1.21 1.38,-0.44 -0.41,-0.6 0.92,-0.41 -0.24,-0.64 0.78,-0.89 -1.24,-1.76 -3.59,-0.39 -2.97,1.49 -2.28,2.85 -1.6,0.23 -1.31,-0.63 -1.04,0.52 -4.17,4.22 -0.16,0.75 -1.04,0.4 -0.34,0.85 -1.31,0.86 -2.93,-0.28 -2.84,0.62 -2.57,2.52 -4.57,1.6 -0.75,1.71 -4.17,0.51 -2.17,1.2 -1.82,2.06 0.05,0.48 -0.85,0.21 -1.15,1.42 -1.65,0.58 -1.37,1.71 -1.15,0 0.06,0.4 -1.69,0.86 -2.65,-0.06 -0.23,0.51 -2.86,0.29 -1.42,0.8 -0.92,3.43 -1.37,0.62 -1.6,2.8 -3.6,0.35 -2.57,-0.75 -0.91,0.52 -1.2,2.4 -2,1.37 -4,1.77 -3.94,0.51 -0.63,1.55 -0.06,2.91 1.37,1.6 0.29,3.94 -1.49,0.91 -0.4,2.46 -3.02,0.34 -3.66,3.95 -1.49,0.8 z" 
                fill="rgb(151, 144, 238)" 
                stroke="white" 
                stroke-width=".7px"
                title="Ysyk-Köl" 
                id="KG-Y" 
            />
        </svg>