<svg xmlns="http://www.w3.org/2000/svg" viewBox="0.33217449999994497 353.7594199999998 327.5499954999998 230.52000000000015" width="327.5499954999998" height="230.52000000000015">
            <path 
                d="m 56.352175,430.41942 5.75,0.01 0.229999,-1.19 5.7,0.27 0.11,-1.43 2.28,-0.74 2.95,1.59 -0.239999,3.02 1.09,0.92 1.56,-0.36 1.39,0.81 0.12,-0.93 0.84,2.44 0.7,-0.48 0,-1.95 1.8,-1.18 0.93,0.51 -0.64,1.77 1.23,-1.39 3.85,2.04 4.01,-2.33 1.13,0.28 -0.02,2.41 8.939995,-0.19 3.13,-1.72 0.79,0.94 0.07,-2.61 -1.06,-2.21 1.55,-4.07 0.62,-0.03 0.6,-2.78 -1.73,0.39 0.93,-0.82 -1.46,-1.51 2.62,-4.1 2.94,-0.93 -1.68,-0.98 0.26,-0.78 -1.45,-0.43 0.31,-1.5 4.1,-2.83 0.19,-1.36 2.28,-0.55 0.43,-1.41 1.52,0.17 -0.49,4.32 2.31,1 2.5,-1.11 1.34,1.45 2.04,-2.26 0.59,0.27 -0.41,1.31 1.06,0.38 0.68,-0.77 3.61,0.38 1.52,-1.76 1.16,-0.02 0.64,0.82 0.66,-0.4 2.12,3.9 -1.21,1.44 2.97,3.24 0.94,-0.39 1.74,-4.44 1.25,0.43 0.15,2.02 -0.88,2.33 0.71,0.83 -0.99,1.85 0.95,1.09 -0.9,1.35 0.71,1.25 1.02,-0.21 0.77,-2.1 1.91,1.32 -0.16,-0.9 2.23,-0.98 -0.17,-0.72 1.57,0.05 0.6,2.07 0.91,-0.39 1.47,1.05 0.8,-0.79 -0.52,-0.49 1.09,-2.42 3.96,-1.68 0.96,4.71 2.76,1.05 2.19,-2.73 -0.5,-1.32 -2.53,0.26 -0.51,-2.59 2.47,-2.2 -1.5,-1.47 -0.82,-2.65 4.02,0.06 0.14,0.64 4.39,-0.91 -0.24,-3.99 1.07,-0.48 0.82,-2.41 5.22,-2.51 1.69,-2.65 3.7,-0.81 -0.59,-0.56 0.28,-1.03 1.51,-1.79 -2.27,-2.12 -0.12,-1.24 1.61,-0.42 1.15,-3.37 -0.94,0 0.37,-3.61 -2,-1.18 -0.85,-1.55 1.69,-1.5 0.16,-2.56 1.39,-0.01 -1.31,-2.64 0.89,-3.59 0.77,-0.29 -1.01,-2.03 1.58,0.51 1.47,-1.01 -0.62,-0.61 0.53,-2.25 1.28,-0.27 -0.32,-2.22 0.7,-0.88 -0.52,-3.38 1.07,0.21 0.54,-2 1.05,0.27 0.51,-1.78 2.18,-0.23 1.65,0.48 0.57,1.16 2.69,0.43 2.05,-1.38 2.7,0.94 1.16,-1.99 2.81,-0.27 -0.33,1.4 1.4,-0.49 1.7,0.9 2.06,-0.02 0.01,1.29 2.79,0 0.83,0.5 -0.44,0.85 1.67,0.62 1.39,-0.23 1.71,-2.32 0.05,1.87 0.6,0.4 2.49,-1.55 1.95,1.02 10.17,0.04 1.29,2.38 0.98,-1.14 1.64,-0.61 0.58,0.82 0.32,-0.57 0,0 1.58,5.34 1.41,0.23 -1.09,7.26 -3.08,0.11 -0.12,2.28 -1.9,0.46 -0.93,1.21 0.46,1.46 -2.81,0.73 0.8,2.78 2.84,1.05 0.98,1.37 0.02,1.6 1.64,-0.31 1.32,1.13 0.14,2.18 2.22,1.51 4.59,-0.08 0.87,3.86 2.08,0.14 1.2,4.31 -0.49,0.5 -3.63,-1.12 -1.19,1.76 0.63,0.41 -0.63,0.63 0.4,3.77 -2.86,-0.3 -0.7,1.23 -1.46,0.28 -0.38,1.31 1.64,4.24 1.84,1.98 0.65,1.95 1.21,0.75 -5.42,5.43 -0.36,1.6 0.62,2.08 4.06,2.34 0.11,1.35 4.83,-7.01 0.93,3.46 2.27,-1.19 2.26,-6.13 3.24,3.14 -0.38,0.34 2.32,0.39 0.52,-0.62 1.74,2.73 2.03,0.54 -0.41,-1.14 1.89,0.08 0.12,-0.71 1.05,0.4 0.82,6.49 2.71,3.53 2.71,0.28 2.35,-0.98 1.4,2.07 0.85,-0.12 4.53,2.8 3.96,-5.44 1.68,4.39 -0.66,3.19 1.98,0.92 0.84,3.6 -3.04,0.94 -0.46,1.71 1.04,0.39 0.22,4.68 -2.08,0.03 0.1,2.44 0.87,1.22 1.35,-0.09 0.27,3.37 1.2,0.11 0.07,4.69 -0.75,0.06 0.87,0.75 -0.01,2.9 4.87,0.21 0.74,4.44 2.03,-0.2 0.33,4.12 4.64,-0.08 0.12,2.4 3.42,0.94 0,0 -1.21,4.06 0.49,4.38 7.92,-0.08 0.09,1.98 2.57,2.12 4.4,0.2 1.75,2.43 1.58,-0.12 1.46,1.01 0.06,1.67 0.77,0.22 0.33,1.56 -0.29,1.57 0.95,0.9 -2.42,2.97 1.57,2.34 -0.71,0.5 -1.6,5.76 0.71,1.37 -0.37,4.41 1.82,0.84 1.82,-0.31 -0.32,1.07 0.98,2.29 2.54,0 0.08,3.01 -0.39,1.25 -5.14,3.39 -1.7,2.54 1.63,3.14 0.09,2.94 -1.05,2.85 -1.71,2.07 2.1,3.15 2.39,2.08 -1.87,4.51 1.26,1.32 0.09,1.23 -2.02,2.56 -1.69,-0.29 -0.95,1.27 -0.36,2.37 0.77,1.75 -0.85,2.2 2.54,3.11 -0.32,0.78 0,0 -0.63,0.82 0.26,2.64 1.1,-0.06 -1.7,2.39 -1.87,-1.07 0.74,-1.68 -0.44,-0.68 -1.38,0.95 -0.85,-1.51 -1.84,0.96 -0.09,0.96 -2.53,-0.3 -2.27,-1.2 -1.48,1.4 -7.17,0.31 0.06,-2.26 2.13,-3.81 -1.77,-1.52 -3.03,0.33 -0.52,-12.98 -15.39,0.59 -3.38,3.98 -2.36,-1.48 -2.73,-0.14 -2.35,-2.04 -3.94,1.07 -0.45,-1.14 -2.57,-1.25 0.41,-2.15 -0.63,-0.97 -3.06,-1.12 -1.34,-1.47 -5.62,0.17 -1.64,-0.65 -0.26,1.02 -2.5,0.85 -0.92,1.86 -5.24,-0.2 -0.24,-1.64 -1.88,-0.48 -1.57,-2.4 -1.81,0.25 -0.22,-4.82 -2.06,1.45 -4.46,0.3 -1.16,-0.99 -4.95,-0.39 -2.37,1.18 -0.9,-0.66 -1.5,0.31 -0.17,-1.6 -1.18,0.21 -3.43,-4.01 -3.2,-0.55 -0.35,-1.23 -2.68,-0.84 -6.42,2.13 -7.03,-1.18 -0.2,-2.22 -3.3,-0.85 -0.85,0.28 0.97,3.07 -1.53,-0.3 -3.77,0.96 -7.61,-0.7 -5.59,-2.03 -1.22,2.1 -1.92,-0.99 -0.8,1.27 -4.76,0 -0.63,-0.9 -4.87,-0.99 -5.63,-3.84 -2.37,0.94 -2.63,-1.08 -4.06,2.09 -3.22,0.02 -5.59,3.91 -1.66,0.23 -2.42,2.35 -2.46,0.01 -0.95,-1.7 -5.52,1.68 -0.51,-1.67 -0.91,-0.24 -4.94,3.52 -1.12,0 -1.93,-1.55 -3.29,0.45 -3.15,-1.18 -4.36,1.44 -6.929996,1.02 -6.65,-0.07 -3.6,2.67 0.34,1.33 -3.5,5.54 1.67,6.25 -3.48,3.85 -10.98,6.04 -3.39,5.39 -3.96,2.31 -1.85,2.42 -5.47,-2.1 -3.05,0.86 -0.2,-2 2.46,-2.82 -6.26,-1.7 -2.59,0.8 -0.08,-2.41 -0.76,-0.87 -5.29,2.02 -2.32,-0.45 -1.02,1.47 -4.16,2.02 1.82,3.71 2.31,1.32 -0.28,1.68 -1.69,1.88 2.93,5.46 -0.79,0.78 -3.22,-0.6 -0.98,-2.87 -3.33,-0.83 -0.15,-1.29 1.05,-1.32 -0.96,-1.52 0.25,-1.1 -0.96,-0.42 -1.05,-2.31 0.46,-2.12 -0.56,-1.63 0.6,-0.68 -0.69,-0.47 0.33,-1.85 0.91,-0.58 -0.6,-2.39 0.93,-1.66 -0.87,-0.58 0.54,-0.45 -0.73,-2.12 -0.7,0.33 -0.54,-0.81 0.2,-1.47 2.12,-2.34 0.92,0.6 1.08,-0.31 0.79,-1.58 2.43,-0.89 -0.16,-1.37 0.62,-0.02 0.27,-1.08 -1.32,-3.3 -1.37,-0.25 -0.14,-1.25 0.92,-1.87 -0.58,-2.39 1.81,0.47 -0.65,-1.52 1.18,-0.87 -1.52,-1.29 -0.39,-1.61 0.4,-0.69 0.97,0.3 0.11,-1.23 0.96,-0.32 -0.38,-1.88 -1.02,-0.02 1.95,-1.81 1.29,0.11 -0.35,-1.65 1.68,-1.75 -2.08,-3.12 0.18,-2.6 -0.65,-1.88 -0.85,-0.37 0.92,-0.21 -0.83,-0.65 0.64,-1.82 -2.6,-1.44 -0.45,-1.1 0.72,-0.6 -1.63,-1.29 -2.98,-0.17 -0.7,1.01 -0.58,-2.05 -1.94,-1.21 -0.14,-1.25 -1.84,-0.57 0.39,-2.6 1,0.16 -0.38,-0.77 -1.16,-0.28 -1.39,0.87 -0.7,-1.26 -2.4,1.49 -0.65,-1.17 -1.15,0.57 -0.42,-2.77 -1.46,0.62 -0.71,-1.47 -3.98,-0.16 -0.7399995,-0.34 0.07,-1.21 -2.71,0.85 -4.41,-1.38 -0.78,-1.63 0.65,-4.28 -1.78,-1.02 4.64,-8.96 4.8,-6.38 0.6499995,-2.44 7.8,-10.86 4.05,-4.08 7.85,-4.6 4.05,-1.6 5.43,-0.96 1.68,0.93 10.62,-8.76 1.01,-0.06 3.39,-4.01 z" 
                fill="rgb(151, 144, 238)" 
                stroke="white" 
                stroke-width=".7px"
                title="Brest" 
                id="BY-BR" 
            />
        </svg>