<svg xmlns="http://www.w3.org/2000/svg" viewBox="301.9021699999984 360.1694200000002 335.0300000000006 252.0400000000003" width="335.0300000000006" height="252.0400000000003">
            <path 
                d="m 390.90217,442.65942 1.02,0.72 2.1,-2.03 0.67,1.09 1.94,-0.7 3.04,0.73 0.8,-1.07 1.51,0.22 1.96,-1.18 3.49,1.32 1.86,-1.4 2.63,1.35 2.33,-2.61 -0.03,-1 3.88,-0.02 -0.1,-2.06 -1.4,0.38 -0.25,-1.28 -0.98,-0.04 0.64,-3.26 3.48,1.13 1.62,-1.97 1.65,0.29 5.87,-8.2 -0.41,-3.02 9.47,-1.27 0.33,0.54 1.71,-0.89 -0.97,-4.33 4.36,-6.91 1.5,-0.83 1.89,1.15 2.79,0.16 1.17,1.79 5.44,0.55 1.83,0.67 0.09,0.81 0.63,-1.49 1.31,0.17 -0.13,1.58 1.31,-0.01 0.81,1.08 3.52,-1.59 3.19,-3.48 0.75,0.57 2.65,-0.23 0.52,0.61 2.45,-0.75 2.16,0.27 1.57,1.37 0.16,-0.72 0.61,0.35 0.61,1.15 4.1,-1.31 -0.66,-1.41 1.51,-1.7 -4.02,-1.75 -0.97,-0.8 -0.55,-2.24 -0.99,-0.54 3.07,-3.87 -0.86,-1.88 -2.2,0.77 -1.64,-3.32 1.91,-1.29 -1,-2.44 0.25,-0.91 1.05,0.21 0.03,-1.08 0.71,-0.06 0.85,1.94 2.09,-0.55 1.07,0.81 4.08,-2.12 -1.25,-0.27 -0.26,-1.34 1.54,-1.5 -0.83,0.19 -0.26,-1.2 1.06,-0.81 -2.09,-1.04 3.56,-1.28 -2.11,-5.69 0.74,-0.21 -0.27,-1.34 -1.43,-1.72 -0.07,-5.09 3.64,-3.67 3.43,-1.69 0.81,3.92 2.13,-0.9 -0.66,-0.89 0.96,-0.49 1.43,1.06 0.3,1.04 -1.04,0.52 -0.39,1.49 3.49,0.52 1.15,-2 -0.12,-1.33 9.22,2.17 0.96,1.18 -0.16,1 1.87,1.18 2.13,6.9 1.09,0.92 1.86,-1 0.56,0.57 1.43,-0.85 1.48,0.42 2.05,-2.66 0.08,1.26 3.55,-0.75 1.29,-1.3 3.39,0.53 0.21,-2.01 2.26,-1.79 3.42,1.06 1.06,-1.34 -0.2,-1.02 1.8,0.31 0.93,-2.58 2.67,0.27 1.62,-2.49 0.31,-2.11 1.23,0.68 -1.45,2.68 1.37,0.74 -0.63,1.42 6.99,1.36 -1.05,2.16 1.91,1.84 3.06,-0.36 -0.05,-1.76 2.53,-0.23 0.67,-0.9 5.13,0.73 1.33,-1.17 -0.32,-1.38 1.53,-0.52 3.01,-0.6 0.43,0.91 6.8,-0.56 0.37,0.7 -0.9,1.96 -2.08,1.98 1.16,1.82 1.43,-1.02 1.09,1.15 0.89,-0.53 0.61,0.78 -0.64,2.31 1.93,1.21 0.11,2.9 2.47,-0.49 0.61,2.02 1.36,0.38 0.15,1.99 -1.61,1.55 1.09,2 6.45,-0.58 1.26,3.49 0.55,-0.72 1.1,0.56 0.41,-0.6 0.02,0.87 5.69,0.12 1.02,2.26 1.5,0 0,0 -2.01,0.6 -0.38,6.06 -1.73,0.6 -3.07,-0.7 -1.57,1.64 4.93,3.21 0.92,1.35 2.47,0.87 0.62,2.61 1.03,1.15 -0.27,3.31 8.09,8.14 4.04,0.23 0.07,2.17 -1.36,1.21 0.86,1.54 2.22,1.4 0.21,1.22 1.65,0.48 0.17,4.01 0.81,2.04 -1.91,1.8 -0.96,2.52 -4.79,1.7 4.61,5.59 0.65,1.58 -0.32,4.59 1.15,0.32 3.87,3.72 3.03,0.34 -2.72,2.44 -0.9,-1.43 -0.84,0.34 -0.1,1.47 -1.16,0.64 -0.1,2.07 -2.6,-0.31 1.12,2.58 2.13,-0.99 1.54,1.69 -1.38,3.04 -1.79,0.82 1.94,0.58 0.13,1.35 -0.91,0.5 0.47,1.69 -0.72,0.92 2.03,-0.18 0.71,2.38 -0.39,8.19 -3.1,0.27 0,0.68 3.12,3.92 0.37,-0.79 1.63,2.25 2.39,0.14 1.95,1.41 -1.05,1.12 0.91,2.29 -0.04,2.56 -1.56,2.51 1.43,0.97 1.88,-0.64 3.57,0.66 0.29,6.27 1,1.61 -5.65,2.97 -0.58,-1.37 -3.09,-0.92 -4.94,0.05 -6.33,-1.37 -2.8,1.04 -1.42,-0.49 -0.71,-2.33 -3.62,-0.11 -1.99,1.04 0.59,1.42 -4.51,1.91 -0.89,2.19 0.52,0.66 -1.64,3.44 -3.16,1.23 -2.06,-1.02 -1.07,-1.32 0.1,-1.2 -3.88,-0.91 -1.35,-2.71 -3.27,1.44 -2.33,-0.06 -5.88,1.55 -1.85,-0.66 0.07,-0.91 -0.92,0.17 0.13,1.75 -1.39,0.2 1.09,2.76 -0.73,-0.06 -0.42,-1.22 -0.63,0.28 1.11,1.63 -1.16,0.65 0.89,0.86 -0.92,-0.13 0.53,1.15 -1.19,0.23 0.49,0.76 -0.5,0.83 1.28,0.49 0.03,1.2 -1.14,0.29 -1.09,-1.49 -0.69,1.04 1.28,1.08 -1.82,0.41 0.29,1.7 -1.24,0.32 -0.68,-0.58 -1.78,1.16 -0.03,0.85 1.1,0.04 -0.69,0.85 -1.56,-0.98 -0.96,0.84 1.1,3.27 -1.59,2.69 -4.1,-0.43 -0.66,2.22 -2.33,1.99 -0.82,3.64 -3.22,1.42 1.31,3.41 -1.23,1.35 0.24,1 -1.85,-0.04 -1.34,0.83 0.25,0.88 1.81,-0.51 0.56,0.57 -1.51,2.87 -0.35,2.6 -4.42,0.94 0.92,3.35 -0.44,1.89 -1.52,-0.17 -1.5,-1.45 -0.97,0.71 1.34,1.51 -1.76,2.17 -0.19,1.35 1.98,0.53 -0.11,0.8 1.66,1.11 -0.7,0.68 -2.01,-0.5 -0.74,0.89 1.38,1.55 1.91,0.56 -1.84,0.91 -0.03,1 1.37,2.57 1.68,-1.15 0.86,0.52 -0.98,4.26 1.06,1.01 0.52,2.92 2.35,1.34 -0.09,0.76 -2.95,1.1 0.34,2.62 0.64,0.69 1.78,-0.47 0.1,1.26 2.54,4.12 -1.28,2.36 1,2.55 -2.01,0.84 -2.19,2.15 1.37,0.79 -0.66,0.81 1.48,-0.55 -1.1,2.74 -1.09,-0.06 -3.87,2.35 -2.52,-2.21 -4.02,0.85 0.72,-3.87 -4.36,-0.32 -5.74,-5.9 2.25,-2.06 -1.18,-4.93 0.77,-0.48 -1.26,-0.29 -3.27,-4.35 -3.17,-2.62 -3.27,-1.11 -2.13,-2 -0.85,2.65 -2.59,-2.15 -0.49,0.24 0.5,1.72 -0.62,0.34 -7.58,-1.94 -0.35,1.72 -1.54,0.98 -1.01,-0.33 -0.8,1.56 -2.81,-2.19 -2.38,0.62 -0.86,0.83 0.49,0.66 -0.91,3.12 -2.62,-1.38 -2.01,0.86 -0.8,-1.17 -0.84,0.27 -0.01,1.83 -3.57,-1.88 -1.3,-3.7 1.36,-0.6 -0.13,-2.46 -0.54,-1.74 -1.54,0.02 -0.52,0.99 -2.65,1.22 -0.24,0.96 -0.95,-0.32 -1.06,0.77 -0.73,-0.66 -0.81,1.35 -1.02,0.21 -0.05,1.94 -1.79,1.44 -3.21,-2.07 -1.64,3.93 0.2,2.74 -1.36,2.95 -6.65,-1.58 -2.12,1.09 -2.11,2.36 -2.32,0.54 0.12,-2.95 -1.48,-6.08 -2.67,-0.86 0,-1.58 -1.54,-2.46 0.96,-4 -0.53,-4.35 -3.09,-0.75 -0.41,-2.84 -2.15,-1.76 0.52,-1.26 -1.51,-0.65 0.94,-2.27 -0.72,-0.7 -4.32,0.2 -5.81,7.43 -2.2,1.71 -1.73,0.15 -0.52,-1.99 -4.43,0.14 -4.01,2.88 -2.18,0.44 -4.58,8.64 1.09,1.45 0.4,2.68 -0.59,0.25 -0.25,2.68 -1.31,1.38 -1.14,-2.4 0.02,-3.62 -2.62,2.8 -1.36,-0.58 -3.02,-12.49 0.86,-0.89 -1.41,0.56 -0.24,-0.52 2.02,-0.97 -7.52,-0.21 -0.01,-1.21 -2.26,-0.3 -0.55,-0.92 -3.51,-0.28 -5.71,4.98 -2.89,1.4 -0.65,-4.12 -4.61,-5.81 -1.84,0.26 0.75,-6.5 -0.72,-0.74 -6.28,4.26 -0.3,2.59 -1.14,1.93 -1.9,0.31 -1.75,3.08 -1.31,0.57 -1.25,-0.51 -2.37,1.58 -7.15,0.91 2.61,-4.3 -1.47,0.07 -0.92,1.58 -1.59,0.4 0.1,-3.24 -0.83,-1.45 -4.11,-1.62 -2.02,1.01 -0.64,0.68 1.4,1.04 -0.95,4.26 1.65,3.48 -1.08,0.89 -2.56,0.38 -3.24,6.8 -1.36,-0.35 -5.46,-4.64 0.95,-0.41 0.18,-2.32 3.01,-2.9 0.67,-2.85 -0.4,-1.81 -2.3,-0.08 -0.81,-0.86 -2.58,-0.49 -1.82,1.29 -5.24,-3.7 -0.93,1.63 -1.52,-1.61 0,0 0.33,-0.78 -2.54,-3.11 0.85,-2.2 -0.77,-1.76 0.35,-2.37 0.95,-1.27 1.69,0.3 2.02,-2.57 -0.08,-1.23 -1.26,-1.32 1.87,-4.51 -2.39,-2.07 -2.1,-3.16 1.71,-2.06 1.06,-2.85 -0.1,-2.94 -1.62,-3.14 1.7,-2.55 5.14,-3.38 0.39,-1.26 -0.08,-3 -2.54,0 -0.98,-2.29 0.33,-1.08 -1.82,0.31 -1.82,-0.84 0.37,-4.41 -0.71,-1.37 1.6,-5.76 0.71,-0.5 -1.56,-2.34 2.42,-2.97 -0.95,-0.9 0.3,-1.56 -0.33,-1.56 -0.77,-0.22 -0.06,-1.67 -1.45,-1.01 -1.59,0.12 -1.74,-2.43 -4.4,-0.2 -2.58,-2.12 -0.09,-1.98 -7.91,0.09 -0.49,-4.39 1.21,-4.05 0,0 0.03,-0.72 2.17,-1.07 0.86,-1.59 3.23,-2.65 0.67,-1.27 -1.85,-4.57 1.61,-0.19 0.03,-0.98 0.78,-0.05 1.53,-3.81 4.59,0.91 0.25,-1.13 4.1,0.65 1.51,-0.6 0.2,-1.45 1.9,1.79 1.82,-1.9 0.4,1.05 1.3,-0.65 -0.1,1.83 1.46,0.06 -1.24,5.58 1.99,0.06 5.8,3.59 0.38,2.3 5.95,-0.6 6.73,1.84 2.08,-1.22 2.05,0 0.08,-3.3 1.7,-0.98 -0.86,-4.62 1.82,-0.99 9.49,-1.23 0.89,4.47 4.62,-0.87 0.44,2.26 10.47,-1.67 6.73,-6.7 0.11,-12.44 2.07,-4.35 z m 226.58,25.03 -0.18,-1.28 2.67,0.13 0.78,0.71 -0.52,1.81 -0.88,-1.48 -1.87,0.11 z" 
                fill="rgb(151, 144, 238)" 
                stroke="white" 
                stroke-width=".7px"
                title="Homyel'" 
                id="BY-HO" 
            />
        </svg>