<svg xmlns="http://www.w3.org/2000/svg" viewBox="24.91217399999985 153.45941999999974 235.45999600000007 281.4000000000005" width="235.45999600000007" height="281.4000000000005">
            <path 
                d="m 223.71217,153.45942 1.72,0.33 1.39,1.23 1.31,3.34 -0.35,1.28 1.85,1.09 0,0 -0.26,0.95 6.31,5.81 -1.28,0.79 -0.05,2.1 -1.08,0.88 0.98,3.71 -0.48,1.2 1.43,-0.89 1.19,0.51 1.29,-0.98 2.46,-0.29 1.54,1.36 4.28,7.18 3.31,1.38 0.49,1.99 -0.9,3.59 2,3.77 0.43,3.12 1.31,0.74 0.51,1.3 1.37,-1.27 1.32,0.29 0.36,0.83 2.74,-0.67 -1.05,1.86 0.07,4.24 2.45,0.94 -0.31,1.28 -2.35,-0.05 0.07,4.14 -3.67,-1.5 1.05,1.18 -0.79,0.89 -0.09,1.78 1.2,0.52 -0.41,1.37 1.31,-0.2 -0.23,2.49 0.98,1.26 -1.59,3.54 0.4,0.67 -1.27,0.61 1.92,1.08 -3.56,4.62 -2.6,-0.11 -0.96,2.25 -1.17,0.09 0.5,2.29 -1.17,-0.01 -2.69,6.18 0.28,2.35 -1.65,0.25 -0.77,0.92 -0.89,-0.57 -0.38,0.95 -1.08,0.08 -1.36,3.28 -0.66,-0.13 -1.64,2.67 0.42,1.16 -1.41,0.23 0.39,0.73 -1.62,2.08 -1.5,-0.47 -1.26,0.69 -3.03,-1.51 -0.77,0.62 -0.28,-1.36 -1.51,-1.36 -1.3,1.19 -1.28,-1 -3.44,3.18 -2.68,1.44 -1.18,1.91 -2.24,0.15 -1.06,-1.03 0.41,-1.27 -0.66,-0.34 -0.82,0.82 -0.37,2.35 -2.72,3.62 0.39,1.38 6.32,3.51 0.45,-1.27 -2.01,-1.83 1.02,-0.97 1.35,0.54 1.79,-1.17 1.48,0.03 0.02,1.21 -1.41,0.68 -0.44,3.34 1.23,1.24 -0.58,0.69 1.15,2.27 -0.33,1.75 1.49,1.64 0.26,1.97 2.5,0.93 2.64,-1.91 0.75,0.33 1.6,-1.57 3.75,-1.08 0.55,5.88 -1.59,4.29 3.31,-0.76 3.46,-2.76 2.79,6.45 -2.14,2.73 -2.03,0.75 -1.73,-0.3 1.96,3.56 -4.15,1.48 -2.24,2.35 -1.03,-1.27 -0.96,1.46 -2.77,0.19 1.92,4.46 -2.17,0.27 0.65,1.54 -0.79,0.27 1.23,1.22 1.46,-0.89 1.22,1.46 -1.51,1.25 1.3,1.92 -0.94,0.94 3.32,5.63 0.25,1.71 4.39,1.27 -0.8,3.45 1.83,-0.01 1.3,1.16 -0.13,1.49 3.04,2.67 0.83,2.81 2.84,2.57 -0.5,0.61 4.44,2.19 -0.1,3.36 -3.48,2.61 1.29,0.99 0.63,-1.35 0.77,-0.01 0.5,1.47 1.09,-0.33 0.29,8.48 1.76,4.12 -4.18,0.83 -0.72,0.98 -3.97,-0.52 -2.5,1.43 -0.86,-0.7 -2.01,2.4 -1.33,-0.38 -0.79,0.64 0,0 -0.32,0.57 -0.58,-0.81 -1.64,0.61 -0.98,1.15 -1.29,-2.38 -10.17,-0.04 -1.95,-1.02 -2.49,1.56 -0.6,-0.41 -0.04,-1.86 -1.71,2.32 -1.39,0.22 -1.67,-0.62 0.44,-0.85 -0.83,-0.49 -2.79,0 -0.01,-1.3 -2.06,0.02 -1.7,-0.9 -1.4,0.49 0.33,-1.41 -2.81,0.27 -1.16,1.99 -2.69,-0.94 -2.05,1.38 -2.69,-0.43 -0.57,-1.16 -1.65,-0.48 -2.18,0.23 -0.51,1.78 -1.05,-0.27 -0.54,2 -1.07,-0.21 0.52,3.38 -0.69,0.88 0.31,2.22 -1.28,0.27 -0.53,2.26 0.62,0.6 -1.47,1.01 -1.58,-0.51 1.01,2.03 -0.77,0.28 -0.89,3.6 1.31,2.63 -1.4,0.01 -0.15,2.56 -1.69,1.5 0.85,1.55 2,1.18 -0.37,3.61 0.94,0 -1.14,3.38 -1.61,0.42 0.11,1.24 2.27,2.12 -1.51,1.79 -0.29,1.03 0.6,0.56 -3.7,0.81 -1.7,2.65 -5.21,2.51 -0.82,2.41 -1.07,0.48 0.24,4 -4.39,0.9 -0.13,-0.64 -4.02,-0.06 0.82,2.65 1.5,1.47 -2.47,2.2 0.51,2.59 2.53,-0.26 0.5,1.32 -2.19,2.73 -2.76,-1.05 -0.96,-4.71 -3.96,1.68 -1.09,2.42 0.52,0.49 -0.8,0.79 -1.47,-1.05 -0.91,0.39 -0.6,-2.07 -1.56,-0.05 0.17,0.72 -2.23,0.98 0.16,0.9 -1.91,-1.32 -0.77,2.1 -1.03,0.21 -0.71,-1.24 0.9,-1.35 -0.94,-1.09 0.98,-1.85 -0.71,-0.83 0.89,-2.33 -0.15,-2.02 -1.25,-0.43 -1.74,4.43 -0.94,0.39 -2.97,-3.23 1.21,-1.44 -2.12,-3.9 -0.66,0.4 -0.63,-0.82 -1.16,0.01 -1.52,1.76 -3.62,-0.38 -0.67,0.77 -1.06,-0.38 0.41,-1.31 -0.6,-0.27 -2.04,2.26 -1.34,-1.45 -2.5,1.11 -2.3,-1 0.49,-4.32 -1.52,-0.17 -0.44,1.41 -2.27,0.55 -0.19,1.36 -4.1,2.84 -0.31,1.5 1.45,0.43 -0.26,0.78 1.68,0.98 -2.94,0.93 -2.62,4.1 1.46,1.51 -0.93,0.82 1.73,-0.39 -0.6,2.78 -0.61,0.02 -1.56,4.07 1.06,2.22 -0.07,2.6 -0.79,-0.94 -3.13,1.72 -8.939996,0.19 0.02,-2.41 -1.12,-0.28 -4.01,2.32 -3.85,-2.03 -1.23,1.39 0.64,-1.77 -0.93,-0.51 -1.79,1.18 -0.01,1.95 -0.7,0.48 -0.83,-2.43 -0.12,0.93 -1.4,-0.8 -1.56,0.35 -1.08,-0.91 0.24,-3.02 -2.95,-1.6 -2.28,0.74 -0.11,1.43 -5.7,-0.27 -0.23,1.19 -5.75,-0.01 0,0 0,-3.75 -1.05,-2.12 -0.62,-13.11 2.2,-2.56 -1.13,-2.13 -0.42,-5.9 -2.02,-3.02 0.22,-1.16 -1.16,-0.35 -0.96,-2.34 3.35,-9.36 -1.08,-2.2 -2.83,-2.4 -0.64,-4.51 -2.76,-1.6 -11.67,-34.12 -5.49,-22.71 -0.26,-4.89 -2.46,-3.29 0.25,-10.15 -2.09,-1.45 -0.92,-6.12 0.27,-5.62 0.95,0 0.58,1.47 3.31,0.13 2.12,2.08 2.85,-1.09 4.11,0.09 0.56,-0.65 4.17,1.98 1.13,1.56 -0.5,1.34 1.11,0.15 2.04,-1.35 -1.4,-2.24 0.17,-0.93 3.32,-2.49 2.56,1.64 1.16,-0.28 1.43,-3.05 3.55,2.08 0.48,3.03 1.46,0.18 8.14,-1.6 0.98,-2.24 2.08,0.39 1.05,-1.14 3.35,-0.86 0.94,1.52 -0.26,1.01 1.59,0.63 1.5,-0.99 0.5,1.46 4.01,4.45 1.25,0.33 1.15,-1.36 0.79,1.4 4.64,-0.71 -0.25,0.59 0.71,0.4 -0.13,-1.09 0.64,0.03 0.04,0.78 1.63,-0.81 1.34,-2.63 3.35,-3.75 3.759996,-3.26 2.27,-0.83 1.52,-2.23 2.03,0.53 2.11,-1.7 1.74,0.45 -0.91,6.63 3.62,-0.43 -0.2,-0.96 2.54,-2.38 1.84,-0.66 1.54,0.45 0.82,-0.5 0.07,-1.24 1.02,0.2 -0.3,-2.59 2.26,0.05 0.36,-0.92 -0.58,-0.48 -1.59,0.58 -1.51,-1.43 -0.17,-3.25 -3.54,-5.14 0.19,-0.69 1.4,0.33 2.76,-2.15 -0.92,-1.76 3.87,-0.14 6.53,-3.13 1.57,0.88 -0.29,0.74 1.34,2.03 1.68,0.86 2.48,-0.43 1.76,0.62 3.22,-4.35 6.31,-6.45 -0.1,-2.12 1.47,-2.79 0.85,-0.52 1.36,1.44 1.22,-2.69 2.59,1.46 0.35,-0.76 1.03,0.76 1,-0.67 1.32,0.37 0.71,-1 3.42,-1.31 0.98,-1.99 2.39,0.09 -0.16,0.86 1.1,0.01 1.08,-0.61 -0.12,-0.83 1.17,-0.04 0.23,-1.09 1.21,0.52 0.19,2.89 3.27,1.3 -0.5,0.9 1.2,1.34 -0.24,1.11 1.51,2.46 -3.4,-0.3 0.13,1.27 1.24,0.73 -0.03,2.17 -3.46,1.44 -0.32,1.31 1.77,2.4 1.42,1.06 0.95,-0.48 2.72,1.28 1.77,-0.31 -0.23,0.65 1.27,1.26 1.68,-1.48 1.54,0 0.11,-2.06 1.29,-0.01 0.13,-1.46 2.52,1.62 1.15,-0.63 0.05,-1.36 0.75,1.21 2.05,0.55 0.44,-0.67 -1.54,-0.62 -0.55,-1.95 0.67,-1.26 -0.46,-1.2 -1.54,-2.19 -0.54,0.14 3.57,-2.48 -0.68,0.48 -1.45,-0.94 -1.13,-3.59 -2.12,-0.67 -0.69,0.51 -0.75,-0.78 0.56,-2.49 -1.68,-2.78 -1.78,-0.2 -1.48,1.34 -0.97,-0.78 -0.77,0.92 -2.1,-0.68 -0.15,-0.87 -2.68,0.99 -0.19,-2.16 -1.1,-0.19 0.12,-1.15 1.41,-0.16 0.58,-2.71 2.05,-1.4 -0.44,-2.12 0.52,-1.25 0.96,0.65 1.83,-3.15 -0.77,-3.31 0.61,-1.03 -1.65,-0.35 2.43,-1.34 3.24,-8.28 5.13,-3.65 0.75,-1.61 -0.55,-5.46 -1.07,-1.69 0.43,-0.92 -0.94,-5.22 0.67,-0.47 -0.43,-2.22 0.98,-5.93 -0.98,-6.77 1.17,-2.83 1.83,-0.26 0.44,-4.02 1.55,-0.79 0.93,-2.02 2.7,-2.38 0.49,-3.91 1.4,-0.08 0.62,-0.91 1.47,0.59 1.68,-0.63 1.29,-1.5 2.65,-1.22 1.16,1.21 4.83,0.85 -0.69,-0.82 1.99,-0.71 -0.21,-1.86 2.27,-0.29 0.84,-2.1 1.21,0.44 1.71,-1.1 1.73,0.39 1.27,-1.19 z m -53.09,91.69 -1.05,-0.26 0.64,-0.93 1.45,-0.06 -1.04,1.25 z" 
                fill="rgb(151, 144, 238)" 
                stroke="white" 
                stroke-width=".7px"
                title="Hrodzen" 
                id="BY-HR" 
            />
        </svg>