<svg xmlns="http://www.w3.org/2000/svg" viewBox="362.3421700000005 220.25942000000003 346.6999999999993 223.11000000000024" width="346.6999999999993" height="223.11000000000024">
            <path 
                d="m 459.40217,249.17942 2.09,-0.51 1.22,1.11 0.97,-1.55 0.88,0.31 0.26,-1.15 1.12,0.57 1.55,-2.35 -0.21,-1.73 1.45,-0.37 0.42,-2.31 3.22,0.26 -0.85,-2.77 0.91,-1.72 3.62,-1.36 -0.03,1.46 3.15,1.17 2.08,2.23 1.55,-0.93 4.24,0.48 3.29,-0.8 1.9,-1.74 2.14,1.43 1.31,-1.81 -0.33,-0.6 0.9,-0.42 0.83,0.68 -1.26,1.78 1.98,2.02 -0.82,1.12 3.33,1.67 0.17,-0.73 1.55,0.15 1.66,-1.4 -1.16,3.63 2.71,-0.01 0.89,-0.47 -1.73,-2.82 0.14,-1.51 3.4,1.08 -0.01,-1.16 1.94,-0.65 -2.1,-0.98 -0.92,-1.81 2.43,0.15 1.41,1.92 1.85,-3.08 -1.85,-2.01 0.53,-1.65 2.88,-0.54 0.19,0.86 -0.91,1.02 -0.93,-0.03 0.11,0.96 3.01,-1.03 1.85,2.57 -0.1,2.14 1.66,-0.11 1.06,-2.38 -0.79,-1.13 0.86,-0.64 2.43,1.88 0.68,-0.61 1.26,1.3 0.94,-0.45 1,-5.17 1.96,1.03 -1.15,2.52 0.56,1.7 -2.83,2.47 -1.32,4.06 5.4,1.41 2.31,-3.69 3.15,0.28 -0.46,-1.88 0.69,-1.34 0.69,1.1 0.95,0.01 0.57,3.66 1.41,1.15 0.57,2.7 1.96,-1.43 0.36,2.28 1.39,-0.08 -0.66,0.9 1.92,0.44 -0.96,-1.26 0.13,-1.45 2.79,-0.04 -2.71,-0.95 3.24,-2.62 -1.24,-0.63 1.48,-3.27 1.01,-0.67 0.7,0.39 0.66,-1.37 -1.07,-1.64 -1.46,-0.13 -0.58,-0.89 1.42,-0.9 1.56,0.24 2.58,-1.61 0.72,0.49 2.81,-0.99 -1.08,-2.9 0.6,-1.08 2.01,-0.65 2.23,0.85 0.31,0.76 2.64,-0.02 0.47,2.28 2.81,-0.87 3.12,1.02 1.9,-0.95 -0.17,-2.17 1.1,-0.54 -0.1,-1.72 1.83,-1.45 1.44,2.89 1.89,-0.27 0.78,1.03 1.94,-0.33 1.29,3.27 2.58,-2.76 0.51,-1.62 2.29,-0.37 0.53,-1.01 2.83,-1.28 -1.16,-2.2 1.81,-0.28 1.09,1.16 2.47,-0.69 0,0 2.18,0.54 0.29,3.85 0.84,0.45 0.31,2.21 1.32,1.6 -1.3,2.9 3.57,1.57 1.57,3.44 -2.64,2.49 2.54,0.88 -0.77,3.99 0.41,4.4 1.51,-0.24 1.81,1.2 1.31,-1.47 0.54,3.22 1.95,-0.24 -0.24,1.19 -1.46,-0.42 -0.58,1.12 4.08,0.41 3.04,3.47 1.42,-0.18 0.43,0.75 -0.76,1.82 2.65,1.2 1.84,-0.02 0.72,1.81 4.66,0.48 2.06,-1.1 -0.23,0.86 1.76,2.03 0.06,1.86 3.58,-1.25 0.67,1.26 0.96,-0.89 2.11,-0.3 -0.55,3.26 -0.97,1.16 2.47,0.16 2.63,-2.15 1.14,1.46 1.24,-0.9 0.74,1.25 0.96,-0.89 1.39,0.5 -1.13,1.69 0.96,2.05 -0.35,2.1 -2.52,3.77 0.8,1.42 1.65,0.48 0.11,3.14 -2.73,1.89 0.21,2.25 -0.68,0.24 -1.3,3.92 0.17,2 -2.34,0.86 0.9,0.79 0.51,-0.34 0.06,0.92 -0.65,1.07 -1.46,0.17 -0.68,1.57 0.95,0.37 -0.24,0.72 -2.43,0.25 1.11,1.4 -0.75,3.27 0.59,0.43 0.56,-1.61 0.72,0.58 0.25,-0.78 1.01,-0.08 0.34,0.83 0.89,-0.21 5.61,3.33 0.55,-1.35 1.58,-0.41 1.71,0.68 2.79,-2.46 4.3,0.67 -0.28,-0.9 2.89,0.34 1.16,-1.38 2.06,-0.52 1.6,2.16 1.79,0.18 0.33,0.87 0.65,-0.77 1.68,0 1.37,3.96 2.11,0.16 0.46,-0.89 1.72,-0.4 0.23,0.75 -1.13,1.23 3.72,-0.15 1.6,1.56 0.72,3.35 0.99,0.61 1.94,-1.56 2.36,0.15 2.41,-1.2 0.2,2.07 2.1,0.9 0.56,1.03 0.16,2.51 -3.39,2.24 -1.94,-0.28 -1.06,0.78 -0.05,1.27 0.36,2.3 0.89,0.49 -0.05,-2.48 1.4,1.73 -1.55,3.91 2.37,3.86 1.55,0.88 -0.49,2.23 2.78,0.48 2.97,2.16 -0.79,1.35 4.56,0.57 0.17,4.29 1.67,0.35 1.41,-3.61 0.54,1.18 2.46,1.43 -1.96,0.53 -0.26,1.24 5.97,1.18 0.84,-0.77 1.47,0.25 -1.47,2.09 1.08,2.95 -1.64,0.19 -0.06,1.49 0.74,1.23 1.24,-0.24 0.62,1.39 -1.24,-0.79 -1.43,0.21 0.25,1.16 -1.33,1.45 1.94,4.68 -3.61,0.67 -1.27,-1.21 -1.47,0.97 -1.07,2.25 -2.58,-3.15 0.2,3.02 -1.47,0.07 -1.11,2.87 -2.84,-1.35 -1.46,1.04 -0.19,-1.69 -2.66,0.48 0.14,0.72 1.85,0.59 -0.1,1.1 -4.82,9.24 -1.14,0.34 -1.51,2.38 -1.97,-0.42 -2.06,0.61 -1.37,1.5 0.3,1.64 -0.84,1.74 -2.19,2.06 -4.36,0.08 -0.81,1.61 0.34,1.91 -3.75,-1.06 -1.04,2.41 -5.66,1.41 -5.64,-1.63 -0.13,-1.12 -1.67,0.85 -0.31,0.95 -4.15,0.24 -1.5,-0.63 0.54,-2.06 -0.85,-0.5 -1.87,-0.76 -1.12,0.93 -2.81,-0.44 -2.41,-3.67 -0.68,-4.42 -1.32,-0.45 -1.85,-2.12 -1.09,0.53 -7.54,-4.38 -3.59,4.46 -2.73,0.28 -0.48,-1.03 -2.01,-0.05 -0.5,-0.64 -7.36,-0.94 1.01,4.43 -1.45,0.79 -0.13,1.84 -2.37,1.7 0.14,1.77 0.94,0.03 1.49,1.99 -0.65,1.56 -2.05,0.2 0,0 -1.5,0 -1.02,-2.26 -5.68,-0.12 -0.02,-0.88 -0.42,0.61 -1.1,-0.57 -0.55,0.72 -1.27,-3.48 -6.44,0.58 -1.09,-2.01 1.61,-1.54 -0.15,-2 -1.36,-0.38 -0.61,-2.01 -2.47,0.49 -0.11,-2.9 -1.93,-1.21 0.64,-2.31 -0.6,-0.78 -0.89,0.53 -1.09,-1.14 -1.43,1.02 -1.16,-1.83 2.07,-1.98 0.9,-1.96 -0.36,-0.7 -6.81,0.55 -0.42,-0.91 -3.01,0.61 -1.53,0.51 0.32,1.38 -1.33,1.17 -5.13,-0.72 -0.66,0.9 -2.54,0.23 0.05,1.76 -3.05,0.36 -1.92,-1.84 1.05,-2.15 -6.99,-1.36 0.64,-1.42 -1.38,-0.74 1.45,-2.67 -1.23,-0.68 -0.31,2.11 -1.63,2.49 -2.67,-0.27 -0.93,2.57 -1.8,-0.3 0.2,1.02 -1.07,1.34 -3.41,-1.06 -2.26,1.79 -0.21,2.01 -3.39,-0.53 -1.29,1.3 -3.55,0.75 -0.09,-1.25 -2.04,2.66 -1.48,-0.42 -1.42,0.85 -0.56,-0.57 -1.86,1 -1.1,-0.93 -2.12,-6.89 -1.87,-1.18 0.16,-1 -0.96,-1.19 -9.22,-2.17 0.12,1.34 -1.15,1.99 -3.48,-0.51 0.39,-1.5 1.04,-0.51 -0.3,-1.04 -1.43,-1.06 -0.96,0.49 0.67,0.89 -2.14,0.9 -0.81,-3.92 -3.43,1.69 -3.64,3.67 0.06,5.09 1.44,1.73 0.26,1.34 -0.74,0.21 2.11,5.69 -3.55,1.28 2.09,1.05 -1.07,0.81 0.26,1.2 0.83,-0.18 -1.55,1.5 0.26,1.34 1.25,0.26 -4.07,2.13 -1.08,-0.81 -2.08,0.55 -0.85,-1.94 -0.71,0.06 -0.03,1.08 -1.05,-0.2 -0.25,0.9 0.99,2.44 -1.9,1.29 1.64,3.33 2.2,-0.78 0.86,1.88 -3.07,3.87 0.99,0.54 0.55,2.24 0.97,0.8 4.03,1.75 -1.51,1.7 0.66,1.4 -4.09,1.31 -0.62,-1.15 -0.6,-0.35 -0.16,0.72 -1.57,-1.37 -2.16,-0.27 -2.45,0.75 -0.51,-0.62 -2.65,0.24 -0.75,-0.58 -3.19,3.49 -3.52,1.58 -0.81,-1.07 -1.3,0.01 0.12,-1.58 -1.31,-0.17 -0.63,1.5 -0.09,-0.81 -1.83,-0.67 -5.44,-0.55 -1.17,-1.79 -2.79,-0.16 -1.89,-1.15 -1.5,0.83 -4.36,6.91 0.96,4.33 -1.7,0.89 -0.33,-0.53 -9.46,1.27 0.41,3.02 -5.87,8.2 -1.64,-0.29 -1.62,1.97 -3.48,-1.13 -0.64,3.26 0.99,0.04 0.25,1.28 1.4,-0.38 0.1,2.05 -3.89,0.03 0.03,1 -2.32,2.61 -2.63,-1.35 -1.86,1.4 -3.49,-1.33 -1.97,1.18 -1.51,-0.22 -0.79,1.07 -3.04,-0.73 -1.94,0.71 -0.66,-1.1 -2.1,2.03 -1.02,-0.71 0,0 0.39,-0.33 -1.58,-2.09 -2.75,-1.91 -3.63,-1 0.08,-2.09 0.34,-1.86 3.76,-2.56 1.94,-4.68 -1.58,-3.52 -0.89,-0.36 0.12,-1.41 3.47,-0.92 -0.28,-0.9 1.35,-1.74 -0.87,-3.07 -0.66,-0.17 -2.02,-4.32 1.03,-2.56 0.68,-0.59 1.03,0.73 1.74,-1.95 2.14,1.55 1.72,0.15 1.51,-2.97 -2.23,-2.56 -0.14,-3.15 -0.75,-0.73 1.05,-2.17 -1.17,-3.84 1.17,-1.26 -1.12,-0.54 -0.86,-2.31 -1.15,0.55 1.26,-2.1 -1.47,-2.05 -5.96,1.63 -1.31,-0.27 -0.06,-0.8 0.9,-0.13 -2.18,-1.02 0.46,1.82 -2.45,0.76 -0.49,-1.43 0.49,-0.83 -2.6,0.72 1.73,-1.02 0.94,-2.59 -0.29,-0.96 -2.62,-1.02 -1.86,3.01 -1.47,-1.94 -1.38,0.14 -0.35,1.43 -0.95,-0.18 -0.49,-1.39 -2.58,1.1 -0.48,-2.43 -1.28,0.3 -3.92,-2.3 0.41,-1.87 -1.69,-1.17 -0.71,-3.34 2.15,0.75 2.22,-1.43 0.59,0.99 3.51,1.22 7.17,0.64 2.48,-0.15 -0.01,-1.93 6.39,-0.2 1.35,-0.65 -0.07,-5.03 -2.31,-2.76 -3.3,-1.29 -0.25,-1.37 0.71,-2.83 1.49,0.29 0.07,-1.03 1.62,-0.92 0.03,-6.51 -2.38,-2.19 -2.71,-0.87 1.05,0.01 0.39,-1.25 1.29,-0.26 2.24,1.33 0.95,-1.79 1.22,0.22 2.77,-3.55 0.58,0.86 0.89,-0.7 0,-1.91 0.78,0.31 1.14,2.54 0.77,-1.31 3.07,-0.26 0.14,-1.35 -1.27,0.33 -0.85,-1.25 0.57,1.8 -4.21,-1.07 2.73,-2.52 4.06,0.2 0.27,-2.75 2.59,0.11 -0.75,-1.19 0.71,-3.09 6.64,4.09 4.95,0.2 -0.29,-2.16 3.04,-1.09 1.19,2.97 2.96,0.3 2.64,3.48 0.11,1.86 3.52,0.59 0.05,1.01 0.72,0.22 -1.22,-5.61 1.53,-0.35 -1.66,-0.6 -0.09,-0.94 3.51,-1.69 0.41,1.02 5.45,0.55 0.89,-1.59 -1.28,-1.06 0.19,-2.56 -0.86,-0.67 0.59,-1.4 1.67,0.84 0.87,-1.34 -0.55,-2.87 0.45,-2.47 1.78,0.18 0.14,1.63 1.79,-0.66 1.79,3.02 1.49,-0.37 0.74,-1.54 2.85,-0.63 0.72,-1.71 3.35,-0.97 1.03,-1.72 -0.19,-2.8 0.68,-1.78 1.54,-0.01 1.88,2.88 1.79,-0.48 -0.3,-3.55 0.99,0.18 1.44,-1.12 -2.99,-0.96 0.63,-2.13 6.2,0.47 1.18,-0.67 0.3,-1.92 -2.15,-0.42 -0.59,-1.21 -2.3,0.45 -0.7,-2.51 -3.54,0.94 -0.91,-0.64 2.11,-0.91 2.69,-3.44 -2.59,1.51 -1.38,-1.01 0.06,-0.68 1.67,-0.22 0.7,-1.12 -2.03,-0.83 1.93,-4.03 -1.85,-1.12 0.18,-3.43 -1.95,-1.58 1.39,-1.6 -0.41,-1.88 -2.42,-2.39 1.01,-1.73 3.87,-2.12 2.63,0.04 -0.86,-1.24 1.67,-14.45 -1.05,-1.11 1.8,-1.56 0.4,-1.79 -0.7,-0.33 1.1,-0.66 -1.3,-0.42 0.26,-0.84 -0.93,0.11 -0.07,-1.27 -2.38,0 z" 
                fill="rgb(151, 144, 238)" 
                stroke="white" 
                stroke-width=".7px"
                title="Mahilyow" 
                id="BY-MA" 
            />
        </svg>