<svg xmlns="http://www.w3.org/2000/svg" viewBox="208.89217000000048 150.07942000000008 257.6999999999993 327.82999999999976" width="257.6999999999993" height="327.82999999999976">
            <path 
                d="m 229.62217,160.73942 2.22,-3.81 1.48,1.16 1.09,-0.67 0.14,-1.41 -0.66,0.4 -0.79,-0.63 0.99,-1.6 4.19,1.12 1.71,1 0.62,1.49 1.48,-0.59 2.61,1.93 1.45,-1.35 4.42,2.84 3.33,-3.12 -1.68,-1.67 0.34,-0.53 2.64,0.53 1.29,-1.37 2.13,1.84 1.13,-0.42 0.89,2.19 1.1,0.41 1.65,-0.11 0.02,-1.51 1.46,-0.51 1.82,0.87 1.01,-1.22 1.24,1.14 0.69,-0.6 -0.11,-1.76 -1.05,-0.02 -1,-1.57 0.24,-1.44 1.14,-0.81 1.54,0.15 -0.1,1.22 0.92,1.03 1.95,-2.84 0.83,0.4 1.19,-0.82 1.6,2.33 2.88,2.13 0.51,2.76 2.5,-0.55 1.03,-1.19 4.37,-0.03 0.35,-1.44 -1.37,0.22 -0.53,-0.81 1.63,-0.76 1.63,0.68 2.92,-1.03 0.77,2.03 1.54,-2.22 0.89,1.22 1.37,-1.1 0.67,1.72 3.74,-0.74 1.09,2.03 -0.72,0.45 -0.3,1.85 0.73,1.09 0.47,-0.65 0.55,0.31 0.15,1.54 2.2,0.82 -0.84,4.53 1.99,0.55 1.67,3.42 3.79,2.33 1.53,-1.01 0.52,0.83 1.49,-0.15 0.45,1.27 2.28,1.09 0.39,4.07 2.3,-1.09 2.05,0.79 -1.45,5.3 5.97,0.29 1.32,-0.6 1.59,1.58 3.28,1.52 0.04,8.57 3.06,2.71 -0.7,2.52 1.68,1.12 0.58,2.3 1.46,0.06 2.67,-1.64 0.25,0.81 0.72,-0.13 2.69,-3.02 1.51,1.17 -0.81,1.96 2.5,1.45 3.21,-0.42 2,3.42 2.08,-0.81 0.46,-3.08 3.96,-2.21 1.12,0.05 0.52,1.1 0.93,-1.53 2.3,-0.66 -0.79,-1.85 0.98,-1.39 -0.24,0.92 4.34,-2.08 1.43,0.33 0.95,1.53 2.92,1.95 -0.24,2.58 1,1.57 0.32,-1.31 -0.69,-0.98 0.59,-0.47 0.63,2.24 1.48,-0.8 0.58,2.53 1.84,0.67 3.51,5.05 1.49,-0.02 1.78,-3.09 1.2,-3.88 0.77,-6.68 8.74,0.09 0.69,-1.41 1.1,0.15 0.6,1.29 1.79,-0.36 3.49,6.01 0.01,1.87 -0.95,1.11 1.02,1.21 -0.2,0.98 2.54,0.62 3.67,-0.94 -0.44,-0.62 2.86,0.7 0.05,1.08 1.06,0.34 3.6,-0.41 1.5,-0.64 0.3,-1 -0.04,-1.46 -1.14,-1.39 2.67,-1 0.83,1.12 2.78,0.12 2.44,1.56 0.78,-0.25 0.21,1.07 1.23,0.41 1.16,-1.22 -0.41,-2.29 0.52,-0.84 5.14,-2.93 1.4,1.08 2.88,0.37 0.9,-1 3.04,-0.34 -0.64,1.32 1.7,0.83 -1.44,1.43 0.83,0.71 0.33,3.57 1.77,0.1 0.41,0.92 1.06,-0.63 2.08,0.52 2.05,-2.11 1.2,0.17 0.61,1.28 2.69,-3.27 -1.23,1.83 2.64,0.56 0.62,-2.17 1.11,-0.34 -0.16,-1.58 2.83,-0.69 1.98,3.99 -2.32,1.89 0.26,3.04 -1.7,3.72 0.86,1.05 -0.1,1.36 -3.63,4.72 0.67,0.82 0.72,-0.25 -0.21,1.17 1.52,2.31 -1.13,0.29 -0.18,2.82 1.81,2.39 -0.35,0.53 -1.59,-0.44 -0.69,1.82 -0.76,0.27 -4.08,-0.08 0.24,1.69 1.58,0.28 -0.67,1.58 1.48,2.64 2.65,0.72 -1.25,0.2 -1.18,1.35 -0.03,3.37 -1.24,1.49 -0.85,-1.44 -0.37,1.05 0.59,1 -1.56,2.16 2.22,1.39 2.3,-1.2 0,0 0.44,1.74 2.38,0 0.07,1.27 0.93,-0.11 -0.26,0.84 1.3,0.42 -1.09,0.67 0.69,0.33 -0.4,1.79 -1.8,1.56 1.05,1.11 -1.67,14.45 0.86,1.24 -2.63,-0.04 -3.87,2.12 -1.02,1.73 2.42,2.38 0.41,1.88 -1.4,1.6 1.96,1.58 -0.18,3.43 1.85,1.13 -1.93,4.03 2.03,0.84 -0.71,1.11 -1.67,0.23 -0.06,0.67 1.38,1.01 2.59,-1.51 -2.69,3.45 -2.11,0.91 0.91,0.64 3.54,-0.94 0.7,2.51 2.3,-0.45 0.59,1.21 2.15,0.41 -0.29,1.92 -1.19,0.67 -6.19,-0.47 -0.63,2.13 2.99,0.96 -1.44,1.12 -0.98,-0.17 0.3,3.55 -1.79,0.47 -1.88,-2.88 -1.53,0.01 -0.68,1.78 0.19,2.8 -1.03,1.72 -3.34,0.97 -0.72,1.7 -2.85,0.64 -0.74,1.54 -1.48,0.37 -1.79,-3.02 -1.79,0.66 -0.13,-1.63 -1.78,-0.19 -0.46,2.48 0.55,2.87 -0.87,1.34 -1.67,-0.84 -0.59,1.4 0.86,0.67 -0.19,2.56 1.28,1.06 -0.89,1.59 -5.46,-0.55 -0.41,-1.02 -3.51,1.69 0.09,0.94 1.65,0.6 -1.52,0.35 1.22,5.62 -0.72,-0.22 -0.04,-1 -3.52,-0.6 -0.11,-1.86 -2.64,-3.48 -2.96,-0.3 -1.19,-2.97 -3.03,1.09 0.29,2.16 -4.95,-0.2 -6.65,-4.1 -0.71,3.09 0.75,1.19 -2.58,-0.11 -0.27,2.75 -4.06,-0.2 -2.72,2.52 4.21,1.07 -0.57,-1.8 0.85,1.25 1.26,-0.33 -0.14,1.35 -3.06,0.26 -0.77,1.31 -1.14,-2.54 -0.78,-0.31 0.01,1.91 -0.89,0.71 -0.58,-0.87 -2.76,3.56 -1.23,-0.22 -0.94,1.8 -2.24,-1.34 -1.28,0.26 -0.4,1.25 -1.04,-0.01 2.71,0.88 2.38,2.19 -0.03,6.5 -1.62,0.93 -0.07,1.02 -1.49,-0.28 -0.71,2.83 0.25,1.37 3.29,1.28 2.31,2.76 0.07,5.03 -1.35,0.65 -6.39,0.2 0.01,1.93 -2.48,0.15 -7.17,-0.64 -3.51,-1.22 -0.59,-0.98 -2.22,1.43 -2.15,-0.75 0.71,3.34 1.69,1.17 -0.41,1.87 3.92,2.3 1.28,-0.29 0.48,2.42 2.58,-1.09 0.5,1.39 0.95,0.18 0.35,-1.44 1.38,-0.14 1.47,1.94 1.85,-3.01 2.62,1.02 0.3,0.96 -0.94,2.59 -1.73,1.02 2.6,-0.72 -0.49,0.84 0.49,1.43 2.45,-0.76 -0.46,-1.82 2.19,1.02 -0.9,0.14 0.06,0.8 1.31,0.27 5.97,-1.63 1.47,2.05 -1.26,2.1 1.15,-0.55 0.86,2.31 1.12,0.54 -1.17,1.26 1.17,3.84 -1.05,2.17 0.75,0.74 0.13,3.15 2.23,2.56 -1.51,2.97 -1.72,-0.15 -2.14,-1.55 -1.74,1.94 -1.03,-0.72 -0.68,0.59 -1.03,2.56 2.02,4.33 0.67,0.17 0.86,3.06 -1.34,1.75 0.27,0.89 -3.46,0.93 -0.12,1.4 0.89,0.37 1.59,3.52 -1.94,4.68 -3.77,2.56 -0.34,1.86 -0.07,2.09 3.63,1 2.75,1.91 1.58,2.09 -0.39,0.33 0,0 -2.29,4.21 -0.11,12.44 -6.73,6.71 -10.47,1.67 -0.44,-2.26 -4.61,0.87 -0.89,-4.46 -9.49,1.23 -1.82,0.99 0.86,4.62 -1.7,0.98 -0.08,3.3 -2.04,0 -2.08,1.22 -6.73,-1.84 -5.95,0.6 -0.38,-2.3 -5.8,-3.59 -1.99,-0.06 1.24,-5.58 -1.45,-0.06 0.1,-1.83 -1.3,0.65 -0.4,-1.05 -1.82,1.9 -1.9,-1.79 -0.2,1.45 -1.51,0.61 -4.1,-0.65 -0.25,1.13 -4.58,-0.91 -1.53,3.81 -0.78,0.05 -0.03,0.98 -1.61,0.19 1.85,4.57 -0.67,1.27 -3.23,2.65 -0.86,1.59 -2.17,1.07 -0.03,0.73 0,0 -3.42,-0.94 -0.12,-2.4 -4.64,0.09 -0.33,-4.12 -2.03,0.19 -0.75,-4.44 -4.87,-0.21 0.01,-2.9 -0.87,-0.75 0.75,-0.06 -0.07,-4.69 -1.2,-0.11 -0.27,-3.37 -1.34,0.08 -0.87,-1.22 -0.1,-2.44 2.08,-0.02 -0.22,-4.68 -1.03,-0.39 0.46,-1.71 3.04,-0.94 -0.85,-3.6 -1.97,-0.92 0.66,-3.19 -1.68,-4.39 -3.96,5.44 -4.53,-2.8 -0.86,0.12 -1.4,-2.07 -2.35,0.97 -2.7,-0.28 -2.71,-3.53 -0.82,-6.48 -1.06,-0.4 -0.12,0.71 -1.89,-0.07 0.41,1.14 -2.03,-0.54 -1.74,-2.73 -0.52,0.62 -2.33,-0.39 0.38,-0.34 -3.24,-3.14 -2.26,6.13 -2.27,1.2 -0.92,-3.46 -4.83,7.01 -0.11,-1.35 -4.07,-2.34 -0.61,-2.07 0.36,-1.6 5.41,-5.43 -1.21,-0.76 -0.64,-1.94 -1.85,-1.98 -1.64,-4.24 0.38,-1.31 1.46,-0.28 0.7,-1.23 2.86,0.29 -0.39,-3.77 0.63,-0.62 -0.63,-0.42 1.2,-1.75 3.63,1.12 0.5,-0.5 -1.2,-4.3 -2.08,-0.15 -0.87,-3.85 -4.58,0.07 -2.22,-1.51 -0.14,-2.17 -1.31,-1.13 -1.64,0.31 -0.02,-1.6 -0.98,-1.38 -2.84,-1.04 -0.8,-2.78 2.81,-0.74 -0.46,-1.45 0.93,-1.22 1.9,-0.45 0.13,-2.28 3.08,-0.11 1.09,-7.26 -1.41,-0.23 -1.57,-5.34 0,0 0.79,-0.64 1.33,0.38 2.01,-2.4 0.86,0.7 2.5,-1.43 3.97,0.52 0.72,-0.98 4.18,-0.83 -1.76,-4.12 -0.29,-8.48 -1.08,0.33 -0.5,-1.47 -0.77,0.01 -0.63,1.35 -1.59,-1.15 3.43,-2.66 0.1,-3.36 -4.44,-2.19 0.5,-0.61 -2.83,-2.57 -0.83,-2.81 -3.03,-2.67 0.13,-1.49 -1.3,-1.16 -1.83,0.01 0.8,-3.44 -4.39,-1.27 -0.25,-1.7 -3.31,-5.63 0.94,-0.93 -1.3,-1.92 1.51,-1.25 -1.22,-1.46 -1.45,0.89 -1.23,-1.22 0.79,-0.27 -0.65,-1.53 2.17,-0.27 -1.92,-4.46 2.77,-0.19 0.96,-1.46 1.03,1.27 2.25,-2.35 4.15,-1.47 -1.96,-3.56 1.74,0.3 2.03,-0.75 2.14,-2.73 -2.79,-6.45 -3.46,2.76 -3.31,0.76 1.59,-4.29 -0.55,-5.88 -3.75,1.08 -1.6,1.57 -0.75,-0.33 -2.64,1.91 -2.5,-0.93 -0.26,-1.97 -1.49,-1.64 0.33,-1.74 -1.15,-2.27 0.58,-0.69 -1.23,-1.24 0.44,-3.34 1.41,-0.68 -0.02,-1.21 -1.48,-0.02 -1.79,1.17 -1.35,-0.54 -1.02,0.97 2.01,1.84 -0.45,1.27 -6.32,-3.51 -0.39,-1.38 2.72,-3.62 0.37,-2.35 0.82,-0.82 0.66,0.34 -0.41,1.27 1.06,1.03 2.24,-0.15 1.18,-1.91 2.68,-1.44 3.44,-3.18 1.29,1 1.3,-1.18 1.51,1.36 0.28,1.36 0.77,-0.62 3.03,1.51 1.26,-0.69 1.5,0.47 1.63,-2.08 -0.39,-0.73 1.41,-0.23 -0.42,-1.16 1.64,-2.67 0.67,0.13 1.36,-3.28 1.09,-0.08 0.38,-0.95 0.89,0.57 0.78,-0.92 1.65,-0.25 -0.28,-2.35 2.7,-6.18 1.17,0.01 -0.49,-2.29 1.17,-0.09 0.96,-2.25 2.6,0.11 3.56,-4.62 -1.92,-1.08 1.27,-0.61 -0.4,-0.67 1.59,-3.54 -0.98,-1.26 0.23,-2.49 -1.31,0.2 0.41,-1.37 -1.2,-0.52 0.09,-1.78 0.79,-0.89 -1.05,-1.18 3.67,1.5 -0.07,-4.14 2.36,0.05 0.31,-1.28 -2.45,-0.94 -0.07,-4.24 1.05,-1.86 -2.74,0.68 -0.36,-0.83 -1.32,-0.29 -1.37,1.27 -0.51,-1.3 -1.31,-0.74 -0.43,-3.12 -2,-3.77 0.9,-3.58 -0.49,-1.99 -3.31,-1.38 -4.28,-7.18 -1.54,-1.35 -2.46,0.29 -1.28,0.99 -1.19,-0.51 -1.42,0.9 0.48,-1.2 -0.97,-3.71 1.08,-0.88 0.05,-2.1 1.28,-0.79 -6.31,-5.81 0.13,-1.03 z m 96.55,123.83 2.46,1.34 1.56,-0.7 -0.35,1.3 1.41,0.88 1.69,-0.32 1.11,-1.16 2.32,0.37 0.53,-0.84 0.95,0.26 -0.76,3.65 -4.13,2.09 1.37,4.66 -1,2.69 3.24,2.37 0.48,-3.37 4.42,0.21 1.47,1.58 -2.21,1.69 -0.1,1.69 -2,0.42 -2.68,-1.9 -1,1.37 0.32,1.53 -2.42,1.16 -0.53,-0.58 0.63,-1.05 -1.21,-0.84 1.21,-0.84 -0.63,-1.32 -1.58,1.16 -2.11,0.26 -10.16,-1 -0.89,0.63 -0.47,-1.05 -2.21,-0.74 -0.84,-2.58 -1.74,0.63 0.05,0.74 -1.95,-1.21 1.9,-1.79 1,0 0,-4.95 1.42,-2.9 2.16,-2.16 2.37,-0.84 0,0 6.9,-0.54 z m 33.65,9.77 1.61,2 -1.38,1.04 0,0 -2.42,-3.32 2.19,0.28 z m -10.29,2.89 -0.72,-0.07 -0.05,-1.75 1.26,0.74 -0.49,1.08 z m -23.17,9.38 -1.42,-2.88 0,0 0.7,-1.02 0.77,0.25 0,0 0.53,2.81 -0.58,0.84 z" 
                fill="rgb(151, 144, 238)" 
                stroke="white" 
                stroke-width=".7px"
                title="Minsk" 
                id="BY-MI" 
            />
        </svg>