<svg xmlns="http://www.w3.org/2000/svg" viewBox="310.4221700000001 284.56942000000004 51.009999999999934 21.810000000000002" width="51.009999999999934" height="21.810000000000002">
            <path 
                d="m 326.73217,306.37942 -0.74,-0.2 -1.05,-2.45 0,0 0.7,-1.02 0.77,0.25 0,0 0.32,3.42 z m 22.8,-9.15 -0.72,-0.07 -0.05,-1.75 1.26,0.74 -0.49,1.08 z m 10.29,-2.89 1.61,2 -1.38,1.04 0,0 -2.54,-2.99 2.31,-0.05 z m -33.65,-9.77 2.46,1.34 1.56,-0.7 -0.35,1.3 1.41,0.88 1.69,-0.32 1.11,-1.16 2.32,0.37 0.53,-0.84 0.95,0.26 -0.76,3.65 -4.13,2.09 1.37,4.66 -1,2.69 3.24,2.37 0.48,-3.37 4.42,0.21 1.47,1.58 -2.21,1.69 -0.1,1.69 -2,0.42 -2.68,-1.9 -1,1.37 0.32,1.53 -2.42,1.16 -0.53,-0.58 0.63,-1.05 -1.21,-0.84 1.21,-0.84 -0.63,-1.32 -1.58,1.16 -2.11,0.26 -10.16,-1 -0.89,0.63 -0.47,-1.05 -2.21,-0.74 -0.84,-2.58 -1.74,0.63 0.05,0.74 -1.95,-1.21 1.9,-1.79 1,0 0,-4.95 1.42,-2.9 2.16,-2.16 2.37,-0.84 0,0 6.9,-0.54 z" 
                fill="rgb(151, 144, 238)" 
                stroke="white" 
                stroke-width=".7px"
                title="Minsk City" 
                id="BY-HM" 
            />
        </svg>