<svg xmlns="http://www.w3.org/2000/svg" viewBox="223.71217000000044 0.2594173999998719 369.5899999999998 250.12000260000005" width="369.5899999999998" height="250.12000260000005">
            <path 
                d="m 367.08217,0.3194174 0.55,0.05 0.25,3.65 2.97,0.7 3.39,3.32 0.05,3.4599996 1.55,0.36 1.05,-1.06 0.65,2.4 1.97,1.77 2.09,-0.54 2.63,0.45 0.7,-2.72 -1.05,-2.11 0.24,-1.4499996 0.73,-0.27 2.8,1.61 -0.3,1.2699996 3.41,-2.3499996 4.53,0.07 0.18,-0.8 1.37,-0.42 5.02,2.1 1.69,-0.77 2.86,0.36 0.05,1.0699996 -1.29,1.59 -1.22,-0.37 -0.55,1.51 1.49,2.02 0.08,1.67 3.05,2.59 0.34,3.75 2.48,3.91 0.44,-0.53 1.28,0.53 3.15,-0.58 3.02,2.3 1.02,-4.26 4.07,-0.75 0.85,-0.79 1.38,0.73 -0.01,-2.22 4.53,-0.21 0.63,-1.84 5.41,-1.02 1.82,2.38 1.65,-1.58 1.69,0.21 4.54,5.1 2.82,-1.14 2.18,0.94 1.41,-0.4 3.79,2.72 2.43,-0.41 2.43,0.77 2.12,1.71 -1.71,0.83 -0.26,1.06 2.52,0.71 1.47,2.32 -2.29,1.27 -1.34,-0.06 -0.15,0.81 -2.43,0.33 2.28,3.68 -1.52,0.01 -1.08,1.96 0.18,4.51 -2.05,2.81 0.49,2.96 -0.94,1.81 0.36,1.14 2.77,0.5 3.86,2.77 0.47,1.77 1.81,1.44 2.49,0.43 4.54,-4.06 0.62,-3.23 2.4,-2.67 1.19,0.51 2.9,-2.07 2.77,0.1 2.71,-1.52 1.22,1.63 -0.15,1.18 1.01,0.49 1.78,-0.47 2.85,-3.17 -0.11,-1.7 0.76,0.34 2.01,-3.3 -0.73,-1.28 2.02,-1.55 3.93,1.36 1.79,-0.77 0.02,-1.54 1.81,-0.13 3.78,1.62 1.32,1.82 0.87,-0.43 2.09,2.07 2,-0.04 0.76,-2.39 1.83,-0.05 0.09,-2.07 -0.67,-1.05 0.5,-0.61 0.98,2.17 2.02,-0.63 1.48,0.41 1.08,-0.82 2.5,0.97 0.24,-0.72 0.68,4.86 3.75,-0.45 2.09,3.12 2.43,-0.73 0.82,1.08 5.56,-0.66 0.34,1.25 1.97,1.41 -1.64,1.46 2.48,4.15 3.93,0.13 3.56,2.86 1.52,3.65 -0.85,1.62 0.2,1.72 2.21,0.19 -1.08,1.86 1.27,0.09 -0.22,2.74 1.16,0.12 0.74,-2.77 2.5,-0.42 2.05,7.19 -0.43,0.8 0.98,1.13 3.26,-0.02 -0.04,-1.25 1.42,-0.13 0.42,-1.96 1.35,-0.55 -1.04,-1.25 2.08,-0.24 3.29,2.4 1.44,-1.31 0.27,4.67 1.49,5.82 -2.94,1.28 -0.18,0.88 1.3,0.85 -0.13,0.96 1.2,-0.1 1.09,1.9 -2.94,2.54 -1.72,0.26 1.07,2.18 -0.54,2.19 2.27,5.800003 -1,2.88 -1.62,0.35 -2.13,3.21 -2,1.06 -1.27,1.8 -0.59,1.22 0.2,4.89 4.61,1.16 0.02,1.76 1.67,0.7 1.2,6.29 2.77,1.21 0.8,2.85 1.2,0.22 -0.93,3.06 1.76,0.35 -0.61,2.76 0.59,1.17 -1.04,2.69 1.11,3.02 0.07,4.84 -0.79,0.67 -0.49,-0.76 -3.25,-0.87 -2.16,2.25 2.69,2.22 1.49,2.91 -2.02,0.63 0.14,2.11 -2.58,0.05 0.01,1.47 -3.51,-0.25 -2.64,1.31 -0.05,1.74 0.6,0.13 0.5,2.25 -1.52,1.99 0.61,1.45 -1.82,0.44 -3.46,8.96 6.67,2.7 3.13,3.41 1.98,0.41 3.14,2.42 1.7,3.01 1.52,-1.2 0.04,3.43 -0.83,1.24 0.39,1.9 2.53,-0.35 4.88,1.7 1.72,-1.47 1.24,1 3.72,-0.35 1.25,1.98 0.59,3.23 -2.76,4.71 -2.09,1.48 -0.84,1.85 0.17,2.47 -2.85,1.46 0.35,1.74 -1,1.31 1.39,1.89 2.15,0.31 2.05,1.95 1.16,0.29 1.71,-0.8 0.19,1.24 0,0 -2.47,0.69 -1.09,-1.16 -1.81,0.28 1.16,2.2 -2.83,1.28 -0.53,1.01 -2.29,0.37 -0.51,1.62 -2.58,2.76 -1.29,-3.27 -1.94,0.33 -0.78,-1.03 -1.89,0.27 -1.44,-2.89 -1.83,1.45 0.1,1.72 -1.1,0.54 0.17,2.17 -1.9,0.95 -3.12,-1.02 -2.81,0.87 -0.47,-2.28 -2.64,0.02 -0.31,-0.76 -2.23,-0.85 -2.01,0.65 -0.6,1.08 1.08,2.9 -2.81,0.99 -0.72,-0.49 -2.58,1.61 -1.56,-0.24 -1.42,0.9 0.58,0.89 1.46,0.13 1.07,1.64 -0.66,1.37 -0.7,-0.39 -1.01,0.67 -1.48,3.27 1.24,0.63 -3.24,2.62 2.71,0.95 -2.79,0.04 -0.13,1.45 0.96,1.26 -1.92,-0.44 0.66,-0.9 -1.39,0.08 -0.36,-2.28 -1.96,1.43 -0.57,-2.7 -1.41,-1.15 -0.57,-3.66 -0.95,-0.01 -0.69,-1.1 -0.69,1.34 0.46,1.88 -3.15,-0.28 -2.31,3.69 -5.4,-1.41 1.32,-4.06 2.83,-2.47 -0.56,-1.7 1.15,-2.52 -1.96,-1.03 -1,5.17 -0.94,0.45 -1.26,-1.3 -0.68,0.61 -2.43,-1.88 -0.86,0.64 0.79,1.13 -1.06,2.38 -1.66,0.11 0.1,-2.14 -1.85,-2.57 -3.01,1.03 -0.11,-0.96 0.93,0.03 0.91,-1.02 -0.19,-0.86 -2.88,0.54 -0.53,1.65 1.85,2.01 -1.85,3.08 -1.41,-1.92 -2.43,-0.15 0.92,1.81 2.1,0.98 -1.94,0.65 0.01,1.16 -3.4,-1.08 -0.14,1.51 1.73,2.82 -0.89,0.47 -2.71,0.01 1.16,-3.63 -1.66,1.4 -1.55,-0.15 -0.17,0.73 -3.33,-1.67 0.82,-1.12 -1.98,-2.02 1.26,-1.78 -0.83,-0.68 -0.9,0.42 0.33,0.6 -1.31,1.81 -2.14,-1.43 -1.9,1.74 -3.29,0.8 -4.24,-0.48 -1.55,0.93 -2.08,-2.23 -3.15,-1.17 0.03,-1.46 -3.62,1.36 -0.91,1.72 0.85,2.77 -3.22,-0.26 -0.42,2.31 -1.45,0.37 0.21,1.73 -1.55,2.35 -1.12,-0.57 -0.26,1.15 -0.88,-0.31 -0.97,1.55 -1.22,-1.11 -2.09,0.51 0,0 -2.3,1.2 -2.22,-1.39 1.56,-2.16 -0.59,-0.99 0.37,-1.05 0.85,1.44 1.24,-1.49 0.03,-3.37 1.18,-1.35 1.25,-0.21 -2.66,-0.71 -1.48,-2.65 0.67,-1.58 -1.58,-0.27 -0.24,-1.7 4.08,0.08 0.76,-0.27 0.7,-1.82 1.59,0.44 0.36,-0.53 -1.81,-2.39 0.18,-2.82 1.13,-0.29 -1.52,-2.31 0.21,-1.17 -0.73,0.26 -0.66,-0.83 3.62,-4.71 0.1,-1.36 -0.86,-1.05 1.7,-3.73 -0.26,-3.03 2.32,-1.9 -1.98,-3.99 -2.83,0.69 0.17,1.57 -1.11,0.35 -0.62,2.17 -2.64,-0.56 1.22,-1.83 -2.69,3.27 -0.6,-1.28 -1.21,-0.17 -2.05,2.11 -2.08,-0.52 -1.06,0.63 -0.41,-0.91 -1.77,-0.1 -0.33,-3.58 -0.82,-0.71 1.44,-1.42 -1.7,-0.83 0.64,-1.32 -3.04,0.34 -0.9,1.01 -2.88,-0.37 -1.4,-1.09 -5.14,2.93 -0.51,0.84 0.4,2.29 -1.16,1.22 -1.22,-0.41 -0.22,-1.06 -0.78,0.25 -2.44,-1.56 -2.79,-0.12 -0.82,-1.12 -2.67,1.01 1.15,1.38 0.04,1.47 -0.3,1 -1.5,0.64 -3.6,0.4 -1.06,-0.34 -0.05,-1.08 -2.86,-0.7 0.44,0.62 -3.67,0.94 -2.54,-0.62 0.2,-0.98 -1.02,-1.21 0.96,-1.1 -0.01,-1.87 -3.49,-6.01 -1.79,0.35 -0.6,-1.28 -1.1,-0.16 -0.69,1.42 -8.73,-0.09 -0.77,6.68 -1.19,3.88 -1.78,3.09 -1.5,0.02 -3.5,-5.04 -1.84,-0.67 -0.58,-2.54 -1.47,0.81 -0.63,-2.24 -0.59,0.47 0.69,0.98 -0.32,1.31 -1,-1.57 0.24,-2.58 -2.91,-1.95 -0.95,-1.53 -1.42,-0.33 -4.34,2.08 0.23,-0.92 -0.97,1.39 0.79,1.84 -2.31,0.67 -0.93,1.52 -0.52,-1.09 -1.12,-0.05 -3.96,2.21 -0.46,3.08 -2.07,0.81 -2.01,-3.42 -3.21,0.42 -2.49,-1.45 0.81,-1.96 -1.51,-1.17 -2.69,3.02 -0.73,0.12 -0.25,-0.81 -2.66,1.64 -1.46,-0.06 -0.58,-2.31 -1.68,-1.12 0.71,-2.52 -3.06,-2.71 -0.05,-8.57 -3.27,-1.52 -1.59,-1.58 -1.32,0.6 -5.97,-0.3 1.45,-5.3 -2.04,-0.79 -2.3,1.08 -0.4,-4.06 -2.28,-1.09 -0.45,-1.27 -1.49,0.16 -0.52,-0.84 -1.52,1.02 -3.79,-2.33 -1.67,-3.42 -1.99,-0.55 0.84,-4.53 -2.2,-0.82 -0.15,-1.54 -0.55,-0.31 -0.46,0.66 -0.73,-1.09 0.3,-1.85 0.72,-0.45 -1.1,-2.03 -3.74,0.74 -0.66,-1.72 -1.37,1.11 -0.89,-1.22 -1.53,2.22 -0.77,-2.03 -2.92,1.03 -1.64,-0.68 -1.63,0.75 0.53,0.81 1.38,-0.22 -0.35,1.44 -4.37,0.03 -1.03,1.19 -2.5,0.55 -0.51,-2.76 -2.88,-2.13 -1.59,-2.32 -1.19,0.82 -0.83,-0.4 -1.95,2.84 -0.92,-1.03 0.1,-1.22 -1.54,-0.15 -1.14,0.81 -0.24,1.44 1.01,1.56 1.05,0.03 0.11,1.76 -0.69,0.6 -1.24,-1.14 -1.01,1.22 -1.83,-0.88 -1.46,0.52 -0.02,1.51 -1.65,0.12 -1.1,-0.41 -0.89,-2.2 -1.13,0.43 -2.13,-1.84 -1.3,1.37 -2.64,-0.52 -0.34,0.52 1.68,1.67 -3.32,3.12 -4.42,-2.84 -1.45,1.35 -2.61,-1.92 -1.49,0.59 -0.62,-1.49 -1.7,-1 -4.2,-1.12 -0.98,1.61 0.79,0.62 0.66,-0.39 -0.14,1.41 -1.09,0.67 -1.48,-1.16 -2.22,3.81 0,0 -1.84,-1.09 0.35,-1.28 -1.31,-3.34 -1.39,-1.23 -1.72,-0.34 0,0 0.44,-2.17 2.05,-3.45 0.36,-3.39 1.53,-0.27 -0.19,-0.71 0.67,-0.29 -2.9,-4.08 2.47,-1.65 2.8,-0.5 0.71,-0.57 -0.69,-0.58 1.88,-0.26 -0.2,-1.2 2.4,-0.63 2.61,0.96 0.47,1.17 1.13,-0.94 3.53,1.45 1.17,-0.99 0.15,-1.42 2.65,-1.53 1.93,2.13 3.13,-1.32 2.76,0.83 2.38,-1.8 1.57,0.49 0.31,-1.48 1.18,0.45 0.66,-0.91 -1.2,-0.65 -0.81,-2.7 1.3,-0.9 0.77,0.66 1.85,-1.98 0.1,-3.7 1.04,-1.22 2.4,-0.72 1.55,-1.81 2.5,-0.88 -0.23,-3.42 -2.9,-1.83 -5.21,-0.14 -4.01,-2.24 -0.4,1.25 -1.03,-0.63 -0.99,1.67 -0.29,-1.68 -1.07,0.39 0.28,0.75 -0.82,0.88 -1.55,-0.09 -0.15,-0.82 -1.54,0.89 -1.37,-1.35 -6.73,-1.56 -0.75,-0.83 2.01,-1.01 0.4,-1.76 1.92,-0.04 2.15,-2.38 1.69,-0.04 -0.41,-2.38 0.78,-0.660003 -1.3,-3.82 1.22,0.15 -1.05,-1.5 1.72,-2.52 -0.78,-1.38 -0.98,-0.2 -1.16,-3.2 1.26,-2.42 2.83,-1.31 2.2,-3.62 0.69,0.29 1.69,-1.4 -0.07,-3.74 -0.66,-1 1.29,-2.18 -0.5,-3.52 -1.04,-0.15 -0.02,-3.21 1.58,-2.51 -0.35,-0.6 5.24,0.44 1.96,2.49 2.9,0.6 1.27,-2.59 5.24,-2.19 0.41,-2.73 1.68,-2.08 1.77,-5.08 1.77,0.19 1.91,-3.25 3.01,-2.11 1.35,0.71 1.1,-0.85 3.63,0.42 0.63,-2.26 1.49,-0.77 1.29,0.4 0.8,-0.73 1.33,1.99 2.41,0.67 2.94,3.46 0.34,1.35 2.42,1.21 4.89,-1.82 1.31,-1.96 4.88,2.64 8.5,1.28 5.11,-0.42 1.77,-7.9 -1.13,-5.78 2.12,-2.76 0,-2.05 6.21,-5.71 2.48,-0.24 2.06,-1.08 1.1,-2.28 -0.99,-1.25 0.83,-0.07 1.48,-1.83 -1.66,-1.7 3.33,-0.88 1.36,-1.35 2.13,0.87 2.33,-3.53 1.23,-4.1499996 1.28,-0.69 0.54,-1.4 1.47,-0.74 3.46,1.06 0.2,-1.21 1.76,-1.52 1.72,0.43 0.25,-1.83 2.94,-3.19 z" 
                fill="rgb(151, 144, 238)" 
                stroke="white" 
                stroke-width=".7px"
                title="Vitsyebsk" 
                id="BY-VI" 
            />
        </svg>