<svg xmlns="http://www.w3.org/2000/svg" viewBox="415.71214999999944 252.27999 234.33000000000033 167.76000000000016" width="234.33000000000033" height="167.76000000000016">
            <path 
                d="m 448.43215,252.27999 37.58,9.42 15.54,27.14 -0.28,0.94 -1.06,1.3 -1.49,0.78 -0.04,1.34 0.34,0.9 1.7,2.17 0.8,0.7 4.86,0.04 1.11,0.67 0.39,-0.2 0.84,0.51 0.24,-0.16 6.55,2.14 2.02,0.35 0.67,0.47 0.49,-0.14 0.76,0.47 0.37,-0.18 0.43,0.49 0.93,-0.14 4.36,3.54 4.14,2.35 23.82,-5.86 -1.26,2.97 6.34,0.16 2.39,-11.83 10.66,-0.09 7.64,3.85 0.9,-0.25 9.32,-0.59 1.79,-0.4 2.77,0.07 0.21,-0.22 2.43,0 13.1,-1.17 40.22,0.94 0,0 0.03,42.08 -6.48,3.08 -0.01,24.2 -3.5,10.6 0.66,3.04 -2.25,1.81 -0.7,1.31 -0.71,2.63 -0.23,2.88 -0.66,2.32 -0.66,1.03 -1.97,1.16 -3.25,0.33 -1.33,0.65 -3.88,4.6 -2.93,1.74 0.17,2.17 -0.47,2.26 0.07,1.33 -16.93,0 -18.5,-1.04 -28.23,2.48 -23.2,1.66 -13.83,11.62 -10.01,0.81 -0.63,0.53 -4.52,-1.29 -2,-0.13 -1.01,-0.83 -4.35,1.29 -5.25,-0.82 -6.86,0.47 -4.09,-0.29 -6.26,-2.62 -3.38,-1.1 -5.32,2.82 -0.59,-0.24 -2.17,-2.77 0,0 0.31,-0.19 -3.8,-13.44 -3.69,-15.38 -1.74,-9.69 -0.22,-9.26 -0.23,-0.27 0.23,-0.68 -0.23,-0.18 0.2,-0.6 -0.3,-3.93 0.18,-0.94 -0.35,-4.77 0.02,-2.86 0.44,-1.83 -0.22,-0.66 0.46,-2.71 0.14,-6.68 -34.38,-2.75 -2.1,-6.9 -3.79,-15.54 1.11,-1.09 3.48,-2.11 18.15,-12.33 6.72,-4.42 1.22,-0.46 0.1,-4.76 0.45,-0.97 0.06,-10.29 0.52,-0.69 -0.04,-9.29 0.48,-0.98 0.03,-9.81 0.65,-2.18" 
                fill="rgb(151, 144, 238)" 
                stroke="white" 
                stroke-width=".7px"
                title="Gao" 
                id="ML-7" 
            />
        </svg>