<svg xmlns="http://www.w3.org/2000/svg" viewBox="0.3021529999998438 389.7199899999998 162.14999700000013 153.26999999999964" width="162.14999700000013" height="153.26999999999964">
            <path 
                d="m 115.99215,397.69999 6.78,-0.03 0,0 0.52,0.85 5.31,4.25 5.77,3.25 1.65,1.83 0.67,4.6 1.78,7.45 1.95,-0.49 0.58,-0.93 4.47,0.36 2.45,0.71 0.92,2.92 -0.33,6.08 0.35,1.77 0.63,0.62 3.1,1.51 2.5,1.68 3.31,3.2 2.86,0.64 0.41,0.62 -0.32,1.92 -1.2,1.74 2.3,2.23 -1.14,0.78 -4.37,0.67 -2.65,-0.45 -4.81,0.64 -1.17,-0.62 -1.95,-3.14 -1.25,-0.87 -0.96,0.28 -1.14,2.3 -1.12,1.51 -1.56,0.34 -0.96,0.64 -3.6,-0.28 -0.71,0.96 0,0.22 0.79,0.17 0.83,2.13 0.79,0.42 0,2.41 0.28,1.24 -0.71,0.61 -0.77,-0.67 -1.31,-0.14 -0.27,0.42 0.35,0.5 -0.08,0.96 0.3,0.78 -1.23,0.73 0.39,0.59 -0.3,0.42 -0.77,0.17 0.63,1.59 0.71,-0.14 0.44,0.84 1.04,0.29 0.52,0.72 -0.08,0.56 0.85,-0.08 0.62,-0.53 -0.3,0.81 0.36,0.22 0.14,0.9 0.95,0.09 0.39,1.14 1.09,-0.11 0.65,-0.56 1.32,1.21 1.31,-0.51 0.84,-0.84 -0.43,-0.25 -0.63,0.11 -0.08,-0.64 1.01,-0.78 -0.03,-0.65 -0.39,-0.59 1.53,-1.2 0.77,-0.06 0.52,0.54 1.47,-0.09 0.06,0.62 0.87,0.95 -0.24,0.93 0.6,0.44 0.11,0.51 -0.82,0.25 0.36,1.46 -1.78,1.84 -0.02,1.43 -1.04,0.42 -1.31,2.21 0.54,4.1 -0.63,0.08 1.74,1.61 0.43,1.21 1.22,0.56 0.68,2.08 -0.21,0.78 0.4,0.68 -0.57,0.35 -0.89,0.06 -0.77,0.91 0.32,1.12 -0.49,0.02 -0.19,1.07 -0.66,0.52 -0.02,0.45 0.59,0.4 -0.57,0.64 -0.04,0.76 -1.24,0.93 -0.15,1.65 -0.4,0.83 0.49,1.2 -0.17,0.33 -0.49,0.06 -0.41,0.65 0.04,0.95 0.75,1.42 -0.3,1.01 0.21,1.18 -0.64,0.7 0.04,0.94 -0.35,0.45 -1.24,0.23 -0.08,0.72 0.51,0.83 -0.22,0.37 -0.78,0.13 -0.34,0.62 1.06,1.75 0.8,0.48 -0.08,1.49 -2.13,1.58 -1.06,1.78 -1.61,1.03 -1.04,2.02 -2.43,-0.6 -0.68,0.79 -1.17,0.24 -1.28,3.08 0.2,0.37 -2.26,0.9 -3.39,2.76 -0.59,-0.11 0,0 -1.1,-0.3 -2.99,-1.89 -1.56,-0.02 -2.06,-0.64 -0.83,0.28 -0.56,0.54 -1.22,-0.74 -0.22,0.72 -0.41,0.24 -0.15,-0.65 -0.89,-0.11 -0.3,0.89 -1.38,0.48 0.04,0.68 0.75,-0.11 0.58,1.19 0.48,-0.1 -0.02,0.61 0.69,0.23 0.26,0.89 0.89,0.32 0.58,0.58 -0.4,0.25 -0.07,1.01 -0.54,0.26 0.1,1.75 -0.4,0.4 -0.47,0 0.06,0.8 -2,-0.47 -0.57,0.18 -0.35,-0.4 -2.55,0.58 -1.02,1.16 -1.43,0.97 -1.11,0.06 -2.4,0.73 -1.87,1.97 0.09,1.8 -0.16,0.49 -0.64,0.36 -0.15,1.35 -2.759997,-0.32 -1.59,-1 -2.87,-0.01 -1,-0.98 -0.25,-0.68 -1.07,0.04 -0.44,-0.34 -0.71,0.31 -1.22,-1.2 -0.89,-0.02 -0.59,-0.52 -0.53,0.05 -0.26,-0.37 -0.3,0.42 -0.94,-1.62 -2.29,0.28 -1.37,-0.58 -0.45,-0.54 -1.9,0.05 -0.2,-0.64 -0.74,0.33 -0.62,-0.22 -0.24,0.33 0.13,0.39 -0.31,0.15 -0.62,-1.12 -1.18,-0.27 0.28,0.93 -0.12,0.6 -0.91,-0.19 -0.09,0.66 -0.42,0.32 -0.98,-0.35 -0.58,0.15 -0.13,1.27 -1.67,0.98 -1.5,-0.25 -0.87,0.4 0.45,1.16 -0.65,0.31 -0.05,1.4 -0.39,0.38 -1.79,0.39 -0.03,0.32 0.63,0.65 -1.44,0.94 -0.52,-0.1 -1.09,1.89 0.01,0.65 -1.27,0.77 -0.71,0.04 -1.05,-0.91 -0.57,-0.03 -0.78,-1.1 0.23,-0.76 -0.43,-1.24 -0.85,-0.68 -0.68,-1.07 0.4,-1.13 -0.21,-1.74 -2.16,-0.89 -1.25,-1.19 -0.54,-1.65 -0.49,0.06 -0.19,-0.48 -0.99,-0.42 -0.28,0.23 -1.07,-0.14 -0.73,0.49 -1.17,0.13 -1.16,-0.62 -1.11,3.44 -1.24,0.67 -0.2,0.95 -1.18,0.07 -0.13,1.7 -1.64,1.33 -1.12,-0.02 -1.01,0.88 -0.76,0.14 -2.16,-1.16 -1.95,-1.54 0.06,-0.77 -0.62,-0.99 -3.47,-1.2 -1.2,-1.79 -0.13,-1.25 0.84,-1.16 0.92,-0.58 0.13,-0.73 0.59,-0.62 -0.19,-1.92 -0.41,-0.64 0.33,-0.28 0.08,-0.84 0.92,-0.68 0.14,0.7 1.54,-0.46 -0.23,-2.12 0.9,-1.03 -0.33,-1.35 -0.42,0.07 -0.11,0.68 -0.28,-0.21 0.08,-0.78 -0.53,-0.61 0.14,-0.38 -0.74,-0.15 -0.17,0.64 -0.57,-0.25 -0.19,-0.71 -0.53,0.1 -0.07,-0.24 0.34,-0.69 0.93,-0.04 0.22,-0.8 -0.74,-1.02 0.7,-0.61 -0.38,-1.11 -1.12,-0.37 0.38,-1.37 0.45,-0.02 0.21,-1.15 1.99,-0.17 -0.51,-0.41 0.13,-0.34 -0.6,-0.79 0.37,-0.32 0.01,-1.98 -0.81,0.03 -0.19,-0.72 0.51,-0.43 -0.34,-0.84 0.72,-1.08 -0.45,-0.36 -0.03,-0.63 1.89,-0.24 -0.2,-1.66 -0.21,-0.42 -0.59,-0.25 -0.4,1.24 -0.45,-0.35 -0.62,0.06 0.22,-0.56 -0.28,-0.48 0.55,-0.54 -0.49,-0.4 -0.04,-0.61 -0.76,-0.89 0.15,-1.06 -0.62,-0.56 -1.15,-0.03 -0.79,-0.82 -0.28,-0.88 -0.53,-0.37 0.52,-1.58 -1.4,-0.38 -0.13,-0.32 0.03,-1.02 0.51,-0.92 -0.93,-1.28 -1.54,-0.87 -0.31,-2.2 -1.54,0.13 0.4,-0.78 -0.13,-0.5 -2.42,0.18 -0.39,-0.79 -1.35,-0.27 -0.37,0.38 0.04,0.77 -0.78,1.02 -0.09,0.7 -0.77,0.27 -0.47,0.93 -1.09,0.15 -0.88,-1.92 -0.92,-0.98 -0.68,-0.3 0.91,-1.98 -0.16,-1.13 -1.81,-1.64 -1.7,-0.92 -1.64,-2.49 -0.99,-0.96 -0.92,-2.74 -0.96,-1.51 2.91,-1.9 1.97,-2.05 0.58,-3.46 -0.13,-1.14 -1.98,-1.64 -0.78,-1.29 0.03,-1.88 0.96,-2.18 0.07,-2.79 -1.42,-3.76 -0.05,-0.75 -2.99,-1 -0.01,-0.74 -0.41,-0.08 0.52,-0.31 -0.21,-0.6 0.13,-0.8 -1.07,-0.02 -0.21,-0.74 -1,0.22 -1.82,-0.78 0.35,-1.16 -0.5,-0.9 0.15,-0.69 -0.84,-0.82 0.3,-2.17 1.04,-0.26 0.64,-2.17 0.88,-0.45 0.23,-0.9 -0.32,-0.59 -1,-0.24 0.66,-0.96 -1.94,-0.62 -0.08,-1.18 -0.89,-0.49 -0.17,-0.93 2.43,0.1 1.07,-0.58 0.67,-0.02 0.96,1.12 2.16,1.2 0.49,-0.97 -0.11,-0.76 2.69,-0.13 1.22,-0.88 0.45,-1.24 1.18,-0.31 1.48,-0.93 1.47,-1.66 0.95,-0.46 -0.36,-1.31 0.97,-3.9 -0.36,-0.75 -0.79,-0.09 -0.42,0.36 -0.44,-0.18 -0.14,-0.28 0.47,-1.11 -0.48,-0.64 0.34,-0.83 0.88,-0.96 -0.79,-1.13 -0.02,-0.67 1.18,-2.13 0.37,-2.93 1.04,-1.32 0.93,-4.84 0.2,-0.47 1.08,-0.8 0.12,-2.03 0.32,0.2 1.36,-0.15 0.91,0.63 2.72,-0.69 0.32,-0.49 0.06,-1.08 2.57,-1.73 -0.34,-0.77 0.47,-0.21 3.03,0.08 2.02,2.7 0.33,1.98 1.35,0.78 1.47,2.12 1.47,1.4 2.11,1.05 4.95,3.67 1.18,1.43 1.82,1.24 1.19,1.99 0.9,0.78 0.03,0.64 0.65,0.46 1,1.59 0.92,-1.08 0.22,-2.39 1.53,-1.16 0.41,-1.06 -0.18,-1.02 1.23,-1.47 0.7,0.08 0.18,-0.68 0.56,-0.41 0.72,-0.09 0.65,-0.69 0.36,-0.75 -0.46,-2.3 0.2,-0.5 1.44,0.12 0.93,1.18 1.51,-0.72 1.15,0.04 3.51,-0.76 6.75,0.26 3.15,0.83 4.93,1.88 1.7,0.36 3.55,0.06 2.99,-0.7 2.35,0.57 2.03,-0.21 1.74,-1.06 0.61,-0.71 1.549997,0.15 0.58,-0.92 11.41,-0.28 -1.37,-6.64 0.92,-0.55 3.45,-3.3 0.83,1.06 -0.85,3.97 -0.06,2.2 0.22,0.74" 
                fill="rgb(151, 144, 238)" 
                stroke="white" 
                stroke-width=".7px"
                title="Kayes" 
                id="ML-1" 
            />
        </svg>