<svg xmlns="http://www.w3.org/2000/svg" viewBox="402.3921499999998 133.7599899999999 247.7199999999999 173.42000000000002" width="247.7199999999999" height="173.42000000000002">
            <path 
                d="m 529.79215,181.86999 1.99,0.1 1.34,-0.72 1.22,0.01 0.9,0.54 0.65,1.81 1.03,0.93 3.3,0.63 5.42,2.11 1.63,0.9 0.75,1.12 0.16,0.73 0.55,5.2 3.84,2.84 1.37,1.9 2.87,-0.06 1.61,2.5 0.42,0.01 1.23,-0.93 0.92,0.13 1.1,0.65 1.29,-0.63 0.79,1.17 1.29,0.7 0.97,-0.53 2.09,-2.63 0.53,-0.17 0.95,0.26 2.18,1.23 2.05,2 2.14,3.2 1.06,2.49 0.78,0.66 1.93,-0.21 1.81,1.53 1.85,0.39 0.69,0.43 5.01,0.01 1.72,0.29 2.46,1.14 6.02,0.83 1.51,0.57 1.08,1.01 1.61,0.61 3.81,2.49 2.52,0.57 -0.26,1.75 0.18,1.62 -0.56,1.4 -0.11,1.21 0.63,0.71 0.22,0.77 -0.91,2.8 0.48,1.4 1.06,1.13 -0.59,1.59 1.36,2.36 0.07,1.12 -0.42,0.91 -1.99,1.57 -0.75,1.62 0.28,0.65 -0.16,0.48 -2.08,2.74 -1.29,0.96 -0.05,0.87 0.79,1.87 5.64,4.03 0.61,1.07 1.7,1.18 36.03,-7.22 -0.1,46.49 0,0 -40.22,-0.94 -13.1,1.17 -2.43,0 -0.21,0.22 -2.77,-0.07 -1.79,0.4 -9.32,0.59 -0.9,0.25 -7.64,-3.85 -10.66,0.09 -2.39,11.83 -6.34,-0.16 1.26,-2.97 -23.82,5.86 -4.14,-2.35 -4.36,-3.54 -0.93,0.14 -0.43,-0.49 -0.37,0.18 -0.76,-0.47 -0.49,0.14 -0.67,-0.47 -2.02,-0.35 -6.55,-2.14 -0.24,0.16 -0.84,-0.51 -0.39,0.2 -1.11,-0.67 -4.86,-0.04 -0.8,-0.7 -1.7,-2.17 -0.34,-0.9 0.04,-1.34 1.49,-0.78 1.06,-1.3 0.28,-0.94 -15.54,-27.14 -37.58,-9.42 0,0 -2.5,-4.59 -43.54,-35.3 19.98,-11.01 3.78,-1.54 0.63,-0.77 3.78,-1.66 0.41,-0.66 1.66,-0.44 4.19,-4.07 0.88,0.05 5.64,-5.78 0.83,-0.17 2.49,-2.76 0.82,-0.16 2.02,-2.04 3,-2.43 0.37,0 4.35,-4.09 0.51,0 2.02,-2.15 0.67,-0.17 3.63,-3.42 6.62,-5.53 2.85,-2.05 0.93,-1.33 8.16,-26.45 0,0 0.44,1.64 45.8,30.14 0.81,3.04 0.15,3.37 -1.29,8.45 0.54,1.12" 
                fill="rgb(151, 144, 238)" 
                stroke="white" 
                stroke-width=".7px"
                title="Kidal" 
                id="ML-8" 
            />
        </svg>