<svg xmlns="http://www.w3.org/2000/svg" viewBox="123.06215000000007 397.5799899999992 125.00999999999992 163.51000000000016" width="125.00999999999992" height="163.51000000000016">
            <path 
                d="m 180.95215,397.57999 53.29,0.12 0,0 -0.63,3.38 -2.92,9.6 -1.03,1.92 -3.81,5.19 -0.9,2.26 1.75,3.15 2.64,3.7 2.15,6.94 0.02,2.74 -1.93,2.97 -1.1,0.8 -4.8,-1.42 -1.6,0.52 -0.7,1.86 -2.5,3.08 -2.27,3.67 -3.43,7.5 -1.86,2.76 -0.1,4.31 -0.35,1.69 -0.39,0.35 -0.1,1.08 0.43,2.21 2.56,2.8 -0.81,2.69 3.09,4.29 0.06,1.39 0.31,0.74 -1.38,0.93 -0.85,2.15 0.22,0.28 3.11,0.8 -0.98,-0.14 -1.99,0.87 -2.72,-0.5 -1.93,1.39 -1.32,0.3 -0.49,0.7 -0.3,1.38 -2.44,1.27 1.25,2.64 -0.08,1.26 -0.24,1.06 -1.65,2.36 -0.52,1.53 1.82,1.91 -0.04,3.12 6.03,0.97 -0.5,0.55 0.09,2.39 0.6,-0.66 0.58,0.59 0.88,-0.99 1.43,-0.28 0.72,2 0.79,-0.69 5.67,-0.76 1.8,0.75 2.77,2.81 0.32,1.04 0.67,-1 0.92,-0.33 1.79,0.59 0.2,0.33 -0.16,1.97 0.71,0.97 0.11,1.12 0.43,0.61 0.93,0.18 0.57,0.8 1.63,-0.55 1.63,1.02 0,0 0.62,1.05 -0.26,0.94 -0.75,-0.09 -0.02,0.23 0.33,1.1 1.06,1.52 -0.86,0.38 -0.33,1.01 1.8,-0.33 2.53,0.61 1.12,2.2 0.24,1.05 1.23,0.2 0.53,0.47 0.55,-0.33 0.66,0.16 0.42,-0.98 1.01,-0.18 0.29,0.52 0.33,-0.09 0.35,1.03 -0.42,0.27 0.24,0.63 -0.2,0.63 0.53,0.69 0.97,0.19 -0.18,2.8 -3.61,0.01 -2.9,0.38 -0.48,2.58 -0.55,0.62 -0.55,0.17 -1.06,-0.03 -0.81,-1.04 -1.19,-0.57 -1.66,0.21 -1.45,0.82 -2.13,2.38 0.49,1.31 0.35,2.28 -1.84,3.12 -0.66,0.37 0.1,0.57 -0.57,0.87 -0.41,1.47 -1.5,1.74 -0.4,0.8 0.34,0.65 -0.35,1.41 -0.42,0.35 -1.1,0.49 -1.07,-0.08 -0.04,-0.7 0.33,-0.65 -0.77,-1.57 0.09,-1.51 -4.5,-1.7 -0.98,1.2 -0.77,-1.37 -4.57,-1.05 0.05,-0.31 -0.86,-1.08 -1.22,-0.52 -0.53,-0.99 -1.35,0.07 -0.11,-2.23 -0.62,-0.88 -0.51,-0.2 -1.18,0.34 -3.9,0.35 -0.46,-0.58 1.11,-1.47 0,-0.4 -1.2,-0.74 -1.26,0.12 -0.53,-0.74 0.76,-0.9 1.24,0.18 0.4,-0.45 0.4,-0.86 -0.09,-0.45 -0.58,-0.36 -1.06,0.32 -0.09,-0.31 0.18,-0.54 0.98,-0.09 0.22,-0.5 1.2,-0.86 -0.35,-1.17 -1.51,-0.45 0.05,-0.63 0.98,-0.95 0.18,-0.77 -0.04,-0.36 -0.97,-0.45 -0.66,-0.81 0.31,-1.13 -0.71,-1.71 0.85,-1.54 0,-1.17 -0.67,0.13 -0.78,1.2 -0.81,0.08 -0.65,0.85 -0.47,1.5 -1.85,0.14 -0.56,0.41 -0.05,0.35 -0.73,0.27 -0.59,1.47 0.05,1.43 -0.65,-0.09 -0.46,0.9 -1.51,0.49 -0.27,0.61 -0.98,0 0,0.27 -1,0.5 -0.18,0.65 -0.91,0 -0.27,0.48 -0.8,0.18 -0.47,0.79 -0.89,0.41 -0.24,0.54 0.2,0.45 -0.62,1.17 0.6,1.58 -1.51,1.96 -1.09,0.18 -0.56,0.54 0.02,0.38 -0.44,0.09 -0.33,0.45 -3.06,-0.2 -0.22,0.54 -0.69,0.29 -0.11,0.63 -2.44,0.41 -2.15,0.91 -1.71,2.21 -0.69,0.54 -2.82,1.18 -2.09,2.28 -0.47,0.88 -1.53,0.86 -4.86,-0.2 0.25,-0.97 -0.93,-0.04 -0.04,0.46 -1.28,0.62 -4.5,1.04 -1.61,-0.02 -2.66,0.84 0.35,0.73 -0.64,0.15 -0.68,0.67 -0.06,0.46 -0.33,-0.4 -0.7,-0.06 -0.23,0.61 0.17,0.48 -0.37,0.53 -0.43,0.06 0.46,0.27 0.17,0.57 -0.39,0.29 0.02,0.55 -0.29,0.06 0.35,0.88 -0.97,0.69 -0.76,0.15 0.42,0.52 0,0 -0.49,0.66 -0.77,-0.53 -0.65,0.16 -1.64,-1.86 -0.75,-2.63 -0.62,-0.45 0.26,-1.94 -0.36,-0.44 -1.66,0.21 -1.04,0.94 -0.99,-0.6 -0.49,0.29 -0.96,-0.47 -1.27,-0.08 2.34,-11.82 -0.84,-1.95 0.43,-1.3 -1.06,-1.35 -0.93,-0.12 -0.61,0.75 -0.97,-0.67 -0.66,-0.04 -0.25,-0.75 0.17,-1.41 0.46,-0.23 0.31,-1.83 -0.38,-0.46 0.09,-0.42 -0.44,-0.67 -0.41,-0.07 0,-0.46 -0.47,-0.01 -0.18,0.53 -0.93,-0.11 -0.34,0.24 -0.18,-1.17 -0.59,-0.39 0.23,-2.38 1.05,-1.2 0.01,-0.86 -0.34,-0.66 -1.57,-1.43 -1.01,-1.56 -0.33,-0.23 3.39,-2.76 2.26,-0.91 -0.2,-0.36 1.28,-3.08 1.17,-0.24 0.68,-0.8 2.44,0.6 1.04,-2.02 1.61,-1.02 1.06,-1.78 2.14,-1.59 0.07,-1.49 -0.79,-0.48 -1.06,-1.74 0.34,-0.62 0.78,-0.14 0.23,-0.37 -0.51,-0.83 0.08,-0.72 1.25,-0.23 0.34,-0.44 -0.04,-0.95 0.64,-0.7 -0.21,-1.18 0.3,-1.01 -0.75,-1.42 -0.04,-0.95 0.41,-0.65 0.49,-0.06 0.17,-0.33 -0.49,-1.2 0.4,-0.83 0.15,-1.65 1.25,-0.93 0.04,-0.76 0.57,-0.64 -0.59,-0.41 0.02,-0.45 0.66,-0.52 0.19,-1.07 0.49,-0.02 -0.32,-1.12 0.77,-0.91 0.89,-0.06 0.57,-0.35 -0.4,-0.68 0.21,-0.77 -0.68,-2.08 -1.22,-0.56 -0.43,-1.21 -1.73,-1.61 0.63,-0.08 -0.54,-4.1 1.31,-2.21 1.04,-0.42 0.03,-1.43 1.77,-1.85 -0.36,-1.46 0.82,-0.25 -0.11,-0.5 -0.6,-0.45 0.25,-0.92 -0.87,-0.95 -0.05,-0.62 -1.47,0.08 -0.52,-0.53 -0.76,0.06 -1.53,1.2 0.38,0.59 0.03,0.65 -1.01,0.78 0.08,0.65 0.63,-0.11 0.44,0.25 -0.85,0.84 -1.31,0.5 -1.31,-1.2 -0.65,0.56 -1.09,0.11 -0.38,-1.15 -0.96,-0.08 -0.14,-0.9 -0.35,-0.22 0.3,-0.81 -0.63,0.53 -0.85,0.08 0.08,-0.56 -0.52,-0.73 -1.04,-0.28 -0.44,-0.84 -0.71,0.14 -0.63,-1.6 0.77,-0.17 0.3,-0.42 -0.38,-0.59 1.23,-0.73 -0.3,-0.78 0.08,-0.95 -0.35,-0.5 0.27,-0.42 1.31,0.14 0.77,0.67 0.71,-0.62 -0.28,-1.23 0,-2.41 -0.79,-0.42 -0.82,-2.13 -0.79,-0.17 0,-0.22 0.71,-0.95 3.61,0.28 0.96,-0.65 1.56,-0.34 1.12,-1.51 1.15,-2.3 0.96,-0.28 1.26,0.87 1.94,3.14 1.18,0.62 4.81,-0.64 2.65,0.45 4.37,-0.67 1.14,-0.77 -2.31,-2.23 1.2,-1.74 0.32,-1.92 -0.41,-0.62 -2.85,-0.64 -3.32,-3.2 -2.5,-1.68 -3.1,-1.51 -0.62,-0.62 -0.35,-1.77 0.33,-6.08 -0.92,-2.92 -2.44,-0.71 -4.48,-0.36 -0.57,0.93 -1.95,0.49 -1.78,-7.44 -0.67,-4.6 -1.64,-1.83 -5.77,-3.25 -5.32,-4.25 -0.52,-0.85 0,0 57.89,-0.25 z m -16.11,118.65 1.01,-0.25 0,0 -0.16,-0.53 0.34,-0.6 1.13,0.78 0.91,2.07 2.18,0.6 0.53,-0.5 -0.4,-2.64 0.8,-0.93 -0.04,-2.01 -0.24,-0.09 -0.11,-0.72 -0.85,-0.32 -0.31,-0.93 -1.52,1.28 -1.38,0.12 0.13,0.38 -0.28,0.37 -0.47,-0.08 -0.49,-0.76 0,0 -1.01,4.24 0.23,0.52" 
                fill="rgb(151, 144, 238)" 
                stroke="white" 
                stroke-width=".7px"
                title="Koulikoro" 
                id="ML-2" 
            />
        </svg>