<svg xmlns="http://www.w3.org/2000/svg" viewBox="259.7421500000002 381.5999899999998 193.70999999999998 110.63000000000022" width="193.70999999999998" height="110.63000000000022">
            <path 
                d="m 271.81215,395.45999 5.05,-4.98 2.98,2.63 1.24,0.32 1.87,0.13 3.06,-0.26 2.37,0.54 0.61,-0.12 0.32,0.1 -0.02,0.34 1.17,-0.73 0.31,0.36 0.98,0.15 5.52,0.36 1,0.02 1.23,-0.5 1.73,0.27 6.25,-2.87 3.97,0.14 0.91,-1.01 1.12,-2.26 1.14,-0.16 0.3,-0.38 1.28,-0.3 0.24,-1.11 2.31,-0.43 1.21,-0.83 3.22,-0.41 0.39,0.05 -0.41,0.48 1.35,2.55 1.39,1.27 1.53,1.26 1.37,-0.08 1.32,0.62 -0.07,1.29 1.18,2.12 0.01,0.54 -0.88,2.27 -0.42,0.2 0.96,0.56 1.41,-0.24 0.97,0.64 1.77,0.02 0.3,-0.26 0.84,-0.03 2,0.09 0.74,0.43 2.26,-2.15 0.86,-1.25 0.68,-2.3 0.3,-0.5 0.56,0.05 0.46,-0.32 0.7,-1.23 -0.24,-0.46 1.1,-1.87 4.69,1.13 1.04,-0.17 1.9,-0.77 -0.52,-1.64 0.35,-0.36 -0.85,-0.41 -0.26,-0.44 0.48,-0.56 0.17,-0.82 1.5,-1.12 0.97,-0.22 0.89,0.33 0.82,-0.36 3.87,-0.1 3.38,-1.04 1.06,-0.07 0.42,0.19 0.23,4.42 5.95,0.07 1.3,1.4 0.96,1.6 0.33,2.49 4.01,6.47 2.12,4.33 2.76,2.15 3.29,0.79 4.88,-1.43 7,-2.82 4.33,-0.69 4.16,-0.42 6.85,0.34 0.17,-0.22 2.77,0.06 7.07,2.04 4.24,2.1 3.67,2.62 2.51,2.57 1.57,1.05 17.76,4.46 0,0 -3.06,2.14 -5.05,5.2 -3.15,2.06 -11.69,1.55 -3.41,0.79 -22.75,7.66 -0.92,1.12 -2.86,7.5 -2.35,5.05 -1.15,0.56 -2.79,0.54 -10.25,3.34 -13.61,5.72 -2.96,6.91 0.12,4.14 0.63,2.73 -0.82,0.82 -0.95,0.36 -2.08,-1.65 -0.64,0.41 -0.65,1.17 -0.48,0.18 -0.69,-1.58 -1.52,-1.3 -3.08,0.41 -2.12,-1.1 -1.59,-0.13 -0.16,0.6 1.08,1.25 0.05,0.86 -0.22,2.94 -0.84,1.67 0.75,4.45 0.13,2.61 0.6,0.81 0.26,1.33 -0.24,0.64 -0.48,0.24 -5.82,0.49 -1.1,0.33 -0.1,0.58 0.57,2.24 -0.53,1.23 -1.25,0.19 -2.66,-0.56 -2.66,-1.22 -2.82,-2.42 -2.02,-0.83 -1.66,-2.03 -1.3,-1.01 -2.15,-0.15 -2.37,-0.67 -1.35,0.09 -0.83,-0.41 -0.24,-0.28 0.14,-0.8 2.15,-0.92 -0.18,-0.5 -1.03,-0.41 -0.41,-1.46 -0.27,-0.17 0,0 -0.14,-2.87 0.35,-1.1 -2.14,-4.35 -1.05,-5.35 -1.74,-2.1 -0.36,-1.36 -0.78,-0.51 -7.79,2.67 -1.09,2.36 -1.1,1.01 0.07,0.6 -1.14,1.93 -0.77,0.78 -1.37,0.02 -0.65,0.39 0.39,0.62 -0.32,0.4 -3.48,2.37 -1.13,-0.01 -0.94,-0.51 -2.19,0.17 -1.6,-0.59 -1.31,0.38 -5.57,-0.49 -0.72,-3.81 0.87,-1.9 -0.53,-1.93 0.06,-1.08 -0.41,-0.82 1.25,-2.17 0.21,-1.56 -1.8,-5.3 -2.07,0.2 -0.78,0.91 -0.63,1.41 0.24,3.03 -2.84,0.56 -2.78,-0.49 -0.96,-4.12 1.23,-2.47 -2.74,-1.94 -1.15,-2.14 0.24,-1.48 -2.47,-1.37 -3.64,-2.66 -11.61,-7.04 0.1,-1.15 1.58,-1.19 0.31,-2.98 0.77,-1.11 -0.5,-3.12 1.29,-2.65 1.08,-3.95 1.89,-0.2 5.39,-1.54 2.43,0.07 1.31,-0.23 2.35,-1.93 4.22,-6.82 -3.51,-11.37 -1.78,-0.77 -4.29,-0.17" 
                fill="rgb(151, 144, 238)" 
                stroke="white" 
                stroke-width=".7px"
                title="Mopti" 
                id="ML-5" 
            />
        </svg>