<svg xmlns="http://www.w3.org/2000/svg" viewBox="203.70214999999973 395.45999 123.13000000000011 121.0900000000002" width="123.13000000000011" height="121.0900000000002">
            <path 
                d="m 271.81215,395.45999 0.57,2.2 4.29,0.17 1.78,0.77 3.51,11.37 -4.22,6.82 -2.35,1.93 -1.31,0.23 -2.43,-0.07 -5.39,1.54 -1.89,0.2 -1.08,3.95 -1.29,2.65 0.5,3.12 -0.77,1.11 -0.31,2.98 -1.58,1.19 -0.1,1.15 11.61,7.04 3.64,2.66 2.47,1.37 -0.24,1.48 1.15,2.14 2.74,1.94 -1.23,2.47 0.96,4.12 2.78,0.49 2.84,-0.56 -0.24,-3.03 0.63,-1.41 0.78,-0.91 2.07,-0.2 1.8,5.3 -0.21,1.56 -1.25,2.17 0.41,0.82 -0.06,1.08 0.53,1.93 -0.87,1.9 0.72,3.81 5.57,0.49 1.31,-0.38 1.6,0.59 2.19,-0.17 0.94,0.51 1.13,0.01 3.48,-2.37 0.32,-0.4 -0.39,-0.62 0.65,-0.39 1.37,-0.02 0.77,-0.78 1.14,-1.93 -0.07,-0.6 1.1,-1.01 1.09,-2.36 7.79,-2.67 0.78,0.51 0.36,1.36 1.74,2.1 1.05,5.35 2.14,4.35 -0.35,1.1 0.14,2.87 0,0 -0.83,0.16 0,1.45 -0.83,1.06 -1.21,0.27 -2.61,1.64 -0.79,2.41 -0.97,1.11 -2.97,1.62 -1.41,1.15 -0.08,0.41 0.66,0.89 -0.11,0.59 -1.61,0.08 -2.31,1.39 -0.38,0.49 0.09,0.71 1.58,1.56 1.25,2.74 1.95,2.39 -0.26,3.73 0.41,3.17 -0.79,2.1 -1.82,1.07 -0.67,0.06 -0.9,-0.28 -1.39,-1.07 -4.42,0.46 0,0 -2.28,-0.03 -0.53,-0.51 -2.06,0.73 -0.53,-0.69 -0.75,-0.23 -0.44,-1.66 -0.64,-0.8 -1.34,0.24 -1.04,-0.54 -0.43,2.2 -1.41,2.47 -1.59,1.65 -0.22,1.55 -2.22,-0.03 -2.4,0.62 -1.09,-1.21 -2.69,-0.22 -0.59,0.33 1.08,2.25 -3.8,0.37 0.74,-1.83 -1.04,-4.58 -1.14,-1.48 -0.8,-0.29 -0.17,-0.54 -1.98,-0.94 -0.2,-0.52 -3.15,0.99 -0.72,0.47 -0.9,2.8 -0.97,1.19 0.18,1.12 -0.31,0.6 -1.28,0.54 -0.85,-2.09 -2.14,-0.63 -0.45,-1.52 -2.2,-2.22 -0.53,-1.42 -1.35,-0.18 -5.66,1.59 -2.44,1.22 -4.09,-0.26 -2.05,-0.79 -1.87,0.32 -1.84,3.73 -6,2.85 -1.96,2.09 0,0 -1.63,-1.02 -1.62,0.55 -0.57,-0.8 -0.93,-0.18 -0.43,-0.62 -0.11,-1.11 -0.71,-0.97 0.16,-1.97 -0.19,-0.33 -1.79,-0.59 -0.93,0.33 -0.67,1 -0.31,-1.04 -2.77,-2.81 -1.8,-0.75 -5.67,0.76 -0.79,0.7 -0.72,-2.01 -1.43,0.28 -0.88,0.99 -0.58,-0.58 -0.6,0.66 -0.09,-2.39 0.51,-0.55 -6.03,-0.97 0.04,-3.13 -1.82,-1.91 0.52,-1.52 1.65,-2.37 0.23,-1.06 0.08,-1.26 -1.24,-2.64 2.44,-1.27 0.29,-1.38 0.5,-0.71 1.32,-0.3 1.93,-1.38 2.71,0.49 1.99,-0.86 0.99,0.14 -3.11,-0.8 -0.22,-0.28 0.85,-2.15 1.38,-0.92 -0.32,-0.75 -0.06,-1.38 -3.08,-4.29 0.8,-2.69 -2.55,-2.8 -0.43,-2.21 0.09,-1.08 0.39,-0.35 0.36,-1.69 0.1,-4.3 1.86,-2.76 3.43,-7.5 2.27,-3.67 2.5,-3.07 0.7,-1.86 1.6,-0.52 4.8,1.42 1.1,-0.8 1.93,-2.96 -0.02,-2.74 -2.15,-6.94 -2.64,-3.7 -1.74,-3.14 0.89,-2.26 3.82,-5.19 1.03,-1.91 2.92,-9.6 0.63,-3.38 0,0 27.99,-0.13 3.24,-0.11 0.34,-0.26 0,0" 
                fill="rgb(151, 144, 238)" 
                stroke="white" 
                stroke-width=".7px"
                title="Ségou" 
                id="ML-4" 
            />
        </svg>