<svg xmlns="http://www.w3.org/2000/svg" viewBox="224.10215000000002 0.15998970000013202 258.51 415.01000029999983" width="258.51" height="415.01000029999983">
            <path 
                d="m 285.77215,0.2499897 6.61,0.06 2.7,1.81 121.4,83.6100003 65.87,46.42 0.26,1.61 0,0 -8.16,26.45 -0.93,1.33 -2.85,2.05 -6.62,5.53 -3.63,3.42 -0.67,0.17 -2.02,2.15 -0.51,0 -4.35,4.09 -0.37,0 -3,2.43 -2.02,2.04 -0.82,0.16 -2.49,2.76 -0.83,0.17 -5.64,5.78 -0.88,-0.05 -4.19,4.07 -1.66,0.44 -0.41,0.66 -3.78,1.66 -0.63,0.77 -3.78,1.54 -19.98,11.01 43.54,35.3 2.5,4.59 0,0 0.21,3.61 -0.65,2.18 -0.03,9.81 -0.48,0.98 0.04,9.29 -0.52,0.69 -0.06,10.29 -0.45,0.97 -0.1,4.76 -1.22,0.46 -6.72,4.42 -18.15,12.33 -3.48,2.11 -1.11,1.09 3.79,15.54 2.1,6.9 34.38,2.75 -0.14,6.68 -0.46,2.71 0.22,0.66 -0.44,1.83 -0.02,2.86 0.35,4.77 -0.18,0.94 0.3,3.93 -0.2,0.6 0.23,0.18 -0.23,0.68 0.23,0.27 0.22,9.26 1.74,9.69 3.69,15.38 3.8,13.44 -0.31,0.19 0,0 -9.57,0.01 -0.7,0.04 -1.06,0.59 0,0 -17.76,-4.46 -1.57,-1.05 -2.51,-2.57 -3.67,-2.62 -4.24,-2.1 -7.07,-2.04 -2.77,-0.06 -0.17,0.22 -6.85,-0.34 -4.16,0.42 -4.33,0.69 -7,2.82 -4.88,1.43 -3.29,-0.79 -2.76,-2.15 -2.12,-4.33 -4.01,-6.47 -0.33,-2.49 -0.96,-1.6 -1.3,-1.4 -5.95,-0.07 -0.23,-4.42 -0.42,-0.19 -1.06,0.07 -3.38,1.04 -3.87,0.1 -0.82,0.36 -0.89,-0.33 -0.97,0.22 -1.5,1.12 -0.17,0.82 -0.48,0.56 0.26,0.44 0.85,0.41 -0.35,0.36 0.52,1.64 -1.9,0.77 -1.04,0.17 -4.69,-1.13 -1.1,1.87 0.24,0.46 -0.7,1.23 -0.46,0.32 -0.56,-0.05 -0.3,0.5 -0.68,2.3 -0.86,1.25 -2.26,2.15 -0.74,-0.43 -2,-0.09 -0.84,0.03 -0.3,0.26 -1.77,-0.02 -0.97,-0.64 -1.41,0.24 -0.96,-0.56 0.42,-0.2 0.88,-2.27 -0.01,-0.54 -1.18,-2.12 0.07,-1.29 -1.32,-0.62 -1.37,0.08 -1.53,-1.26 -1.39,-1.27 -1.35,-2.55 0.41,-0.48 -0.39,-0.05 -3.22,0.41 -1.21,0.83 -2.31,0.43 -0.24,1.11 -1.28,0.3 -0.3,0.38 -1.14,0.16 -1.12,2.26 -0.91,1.01 -3.97,-0.14 -6.25,2.87 -1.73,-0.27 -1.23,0.5 -1,-0.02 -5.52,-0.36 -0.98,-0.15 -0.31,-0.36 -1.17,0.73 0.02,-0.34 -0.32,-0.1 -0.61,0.12 -2.37,-0.54 -3.06,0.26 -1.87,-0.13 -1.24,-0.32 -2.98,-2.63 -5.05,4.98 0,0 0,0 0,0 -6,1.74 0,0 7.06,-33.6 -10.87,-6.79 -13.2,-125.37 -2.38,-20.54 -0.25,-2.69 0.19,-1.28 -4.65,-40.04 -8.71,-82.17 -0.58,-3.12 0.06,-2.25 -0.96,-8.15 -0.29,-0.79 -0.75,-8.78 -1.95,-15.96 -0.11,-3.79 -4.32,-41.7200003" 
                fill="rgb(151, 144, 238)" 
                stroke="white" 
                stroke-width=".7px"
                title="Tombouctou" 
                id="ML-6" 
            />
        </svg>