<svg xmlns="http://www.w3.org/2000/svg" viewBox="184.62000000000015 233.7600000000003 121.87999999999991 176.6100000000001" width="121.87999999999991" height="176.6100000000001">
            <path 
                d="M273.73,261.63l-0.55,0.24l-0.6,1.29v0.99l1.22,0.73l1.85,-0.9l0.31,-0.29l0,0l0.37,0.54l1.72,1.29l1.21,0.66l0.62,0.18l0.95,0.33l1.21,0.45l2.82,1.31l1.07,0.61l5.42,3.7l2.92,2.39l0.41,0.49l2.25,3.15l0.96,1.73l0.23,0.55l-0.13,1.03l-0.22,0.41l-0.67,1.12l-0.98,1.1l-1.39,2.2l-0.81,1.35l-0.38,0.72l-0.13,0.44l-0.08,0.66v1.69l0.05,0.53l0.15,0.72l0.2,0.54l1,2.41l1.24,1.86l0.39,0.45l1.34,1.29l0.75,0.65l0.93,0.65l2.17,1.22l0.55,-0.09l0.56,-0.35l1.85,-0.98l0.45,0.24l0.85,2.09l0.09,0.5l0.41,3.37l0.19,6.57l-0.05,0.61l-0.28,0.52l-0.46,0.65l-0.63,0.78l-1.49,2.17l-2.26,3.81l-1.45,2.71l-0.13,0.44l-0.9,1.42l-0.67,0.92l-1.17,1.52l-0.47,0.47l-1.14,1.04l-1.02,1.07l-1.48,1.86l-1.31,1.72l-0.32,0.66l-0.26,0.58l-0.17,0.66l-0.12,0.55l-0.17,1.19l0.27,0.82l-0.13,1.38l-0.34,0.64l-0.47,0.57l-0.87,0.8l-0.35,0.29l-0.53,0.42l-2.93,2.05l-5.89,3.27l-0.5,0.27l-2.03,0.88l-6.45,2.07l-1.99,0.58l-4.8,2.1l-0.59,0.16l-0.63,0.11l-1.3,0.17l-1.73,0.36l-4.12,0.97l-3.23,0.85l-2.12,0.77l-1.78,0.12l-0.39,0.05l-10.11,1.94l-4.24,0.59l-2.22,0.44l-0.65,0.08l-4.25,0.45l-1.23,0.07l-2.7,-0.17l-0.89,-0.21l-0.56,-0.05l-0.59,0.08l-0.55,0.14l-0.94,0.44l-0.63,0.1l-1.7,-0.18l-3.33,-0.45l-2.89,-0.73l-0.82,-0.26l-1.19,-0.63l-0.28,-0.67l-0.15,-0.53l-1.73,-1.11l-2.6,-0.61l-0.6,0.29l-0.18,0.41l0.24,0.9l0.27,0.5l0.76,1l0.83,0.74l-0.66,1.88l-0.39,0.97l-0.23,2.07l0.4,2.15l0.77,0.26l0.66,0.11l0.44,0.02l1.07,0.23l1.69,0.95l0.87,0.9l0,0.51l-0.58,0.56l-1.43,-0.95l-0.52,-0.53l-0.49,-0.91l-1.23,0.16l-0.28,0.52l2.32,2.22l1.41,1.75l-0.45,3.12l-0.24,1.79l-0.06,0.61l-0.13,2.18l-1.01,0.56l-1.62,-0.36l-0.85,1.1l-0.59,2.87l-0.01,2.09l0.08,0.52l-0.25,1.27l-0.31,0.72l-0.33,0.32l-0.64,0.24l-0.95,1.06l-0.25,0.59l0.84,2.71l0.38,0.97l2.26,2.35l0.54,0.02l0.35,1.03l-0.28,0.73l-0.82,-0.03l-0.51,-0.56l-0.03,1.53l0.21,0.17l1.21,-0.79l1.17,-0.4l-0.08,0.51l-0.47,0.28l-0.97,2.85l-0.75,2l-1.25,0.87l-3.7,1.98l-2.39,1.48l-0.48,0.04l-0.34,-0.03l0,0l-0.25,-0.51l-0.53,-0.97l-0.47,-0.73l-1.2,-1.72l-0.36,-0.45l-1.4,-1.34l-1.55,-1.08l-0.55,-0.31l-0.93,-0.28l-0.48,-0.07l-0.9,-0.05l-2.07,-0.35l-0.37,-0.18l-0.12,-1.31l0.03,-22.79l-0.01,-6.86l-0.02,-1.66l0,0l0.03,-0.35l0.01,-4.42l-0.06,-69.42l0.08,-21.93l0.02,-1.77l0,0l0.04,-8.52l0,-5.15l0.39,0.03l1.52,0.01l3.43,0.01l3.81,-0.01l0.42,0.01l0,0l9.86,-0.02l7.62,-0.05l3.23,-0.04l6.97,-7.79l7.22,-8.26l-0.18,-0.73l0.07,-0.47l0.26,-0.35l0.37,-0.21l0.44,-0.13l0.5,-0.04l3.17,0.59l0.39,0.22l0.5,0.42l0.28,0.31l0.41,0.35l0.36,0.12l0.42,0.02l1.14,-0.36l0.78,-1.47l0.18,-0.46l0.15,-0.82l0.04,-0.68l1.21,-1.73l1.2,-1.54l0.22,-0.8l-0.43,-0.49l0,0l0.57,0.28l0.38,0.24l0.33,0.28l1.29,1.39l0.33,0.41l0.47,0.5l0.63,0.51l0.35,0.26l1.66,1.1l1.43,0.61l0.55,0.37l0.91,0.89l0.22,0.43l0.58,0.55l0.61,0.32l2.24,1.07l0.91,-0.52l0.56,-0.14l0.41,0.19l0.53,0.66l0.28,0.45l0.27,0.33l0.48,0.29l3.23,1.27l2.44,0.66l1.24,0.05l0.53,0.27l1.05,0.63l3.8,2.6l1.42,1.21l1.06,0.14l0.54,-0.23l0.46,-0.36l0.4,-0.18l1.31,-0.22l0,0.02l0,0l0.43,0.21l0.5,0.28l0.21,0.38l0.14,2.95l-0.62,1.06l-0.4,0.6l-0.75,0.44l-0.43,0.98l0.1,1.54l0.31,2L273.73,261.63zM211.72,367.77l-0.19,-0.05l-2.85,-1.74l-0.64,-1.28l-0.04,-0.33l0.11,-0.23l0.24,0.01l2.2,0.65l0.24,0.1l0.98,0.48l0.24,0.56l0.31,1.25l-0.07,0.4l-0.28,0.16L211.72,367.77z" 
                fill="rgb(151, 144, 238)" 
                stroke="white" 
                stroke-width=".7px"
                title="Buenos Aires" 
                id="AR-B" 
            />
        </svg>