<svg xmlns="http://www.w3.org/2000/svg" viewBox="80.82 66.42 76.76000000000002 99.61999999999999" width="76.76000000000002" height="99.61999999999999">
            <path 
                d="M152.39,121.75L152.48,121.93L153.05,124.19L153.73,127.58L154.01,129.09L154.05,129.55L154.14,131.17L154.15,132.01L154.13,132.52L154.01,133.5L153.66,134.17L153.05,134.82L152.18,135.89L152.18,136.44L152.21,136.97L152.76,137.17L153.2,137.4L153.64,137.89L153.82,138.68L154.1,142.52L154.17,145.17L154.49,148.64L154.61,149.42L154.77,150.04L155.57,152L157.18,155.08L157.48,155.49L157.58,155.61L157.58,155.61L156.46,155.87L156.06,155.98L156.77,161.92L156.51,162.29L153.14,166.04L153.14,166.04L152.04,164.57L151.03,163.4L146.19,157.72L143.17,154.1L141.8,152.15L141.8,150.76L141.64,150.19L141,149.05L140.76,148.72L135.17,143.53L134.34,142.94L133.8,142.63L133.31,142.41L132.83,142.26L132.3,142.02L131.28,141.52L130.86,141.2L130.44,140.43L130.21,138.07L128.34,133.78L128.13,133.44L127.87,133.14L127.5,132.79L126.99,132.47L120.16,129.57L119.79,129.47L118.85,129.3L118.35,129.49L118.04,129.96L117.67,130.39L117.31,130.65L116.58,130.82L116.02,130.8L112.64,130.42L112,129.63L110.2,128.45L109.67,128.47L108.83,129.58L108.2,130.69L107.71,131.25L107.14,131.43L106.68,131.39L104.89,130.94L103.99,130.54L103.55,130L103.14,129.43L102.65,128.63L102.46,127.97L102.31,126.88L100.79,126.25L98.61,125.94L97.17,125.36L94.47,123.85L93.65,123.86L93.05,123.37L93.01,120.29L93.34,119.13L93.31,118.56L93.02,118.27L92.09,118.2L89.3,118.48L87.52,118.76L86.94,119.06L85.89,119.35L85.29,119.43L83.46,119.18L82.81,119.11L82.18,119.05L80.82,118.99L80.82,118.99L80.95,118.15L81.67,116.07L82.18,115.48L84.75,110.65L85.36,108.92L85.21,108.14L85.41,107.52L85.76,106.84L86.49,105.68L86.94,105.42L87.73,105.37L88.52,105.5L89.41,106.08L93.66,104.62L94.01,104.46L94.7,104.09L95.26,103.75L95.9,101.52L95.75,101.09L93.21,97.15L91.31,94.89L90.82,94.11L90.64,93.7L90.54,93.3L90.51,92.33L90.51,91.92L90.59,90.82L90.66,90.18L90.89,89.25L91.24,88.81L91.7,88.43L92.42,87.92L93.51,86.91L93.87,86.34L92.88,81.25L92.18,78L92.04,77.51L91.09,75.49L90.3,73.11L90.25,72.63L90.29,72.02L90.37,71.62L90.74,70.08L90.97,69.46L91.34,68.64L91.43,68.56L91.79,67.14L92.11,66.59L92.31,66.42L92.31,66.42L92.56,66.5L94.23,66.83L104.61,68.83L110.91,68.77L117.07,68.7L122.97,68.62L126.97,68.54L127.49,69L128.83,72.79L128.37,75.38L128.04,75.79L127.3,76.33L126.84,76.53L125.31,76.62L123.89,76.66L122.79,77.57L122.59,77.96L122.53,78.71L122.55,79.28L122.67,79.9L122.9,80.68L123.08,81.03L123.3,81.35L123.55,81.64L125.4,84.04L126.12,85.09L126.93,86.62L127.39,87.72L127.76,88.53L128.09,89.02L129.44,90.44L129.77,90.75L130.16,90.95L130.53,90.9L130.8,90.6L131.06,89.97L131.25,89.4L131.66,88.45L131.98,87.97L132.47,87.74L134.57,87.76L134.57,87.76L134.43,88.71L133.61,90.56L133.39,91.15L133.45,94.17L133.89,94.44L134.85,94.54L135.78,94.67L136.21,94.79L136.92,95.13L139.73,97.27L139.95,97.58L140.05,98.06L139.71,101.41L139.51,101.98L139.25,102.45L138.72,103.2L138.18,103.66L137.07,104.81L136.71,105.26L134.76,107.9L133.92,109.88L134.8,110.23L135.57,110.33L136.66,111.07L137.6,111.98L138.08,114.4L138.65,116.65L140.33,119.51L140.86,119.6L141.58,119.23L142.78,119.96L142.98,120.61L143.04,121.16L143.13,121.65L143.43,122.52L143.71,123L145.21,124.62L145.65,124.11L145.93,123.48L146.31,122.95L147.4,121.96L148.04,121.5L149.26,120.72L149.63,120.85L150.21,121.4L150.76,121.81L151.11,121.98L151.53,122.07L151.95,121.98z" 
                fill="rgb(151, 144, 238)" 
                stroke="white" 
                stroke-width=".7px"
                title="Catamarca" 
                id="AR-K" 
            />
        </svg>