<svg xmlns="http://www.w3.org/2000/svg" viewBox="184.46 45.72 91.39000000000001 77.92000000000002" width="91.39000000000001" height="77.92000000000002">
            <path 
                d="M266.72,123.58L252.25,123.61L243.85,123.61L238.9,123.64L224.6,123.64L219.29,123.63L215.04,123.6L215.04,123.6L215.06,122.56L215.05,112.02L215.07,99.46L215.04,87.48L214.96,76.78L214.94,76.38L214.25,76.37L211.13,76.4L206.64,76.42L196.27,76.42L191.67,76.4L189.94,76.38L184.46,76.33L184.46,76.33L189.52,69.8L190.01,69.19L198.1,58.71L203.74,51.18L203.7,48.63L203.64,45.72L203.64,45.72L206.34,46.92L209.96,48.61L211.61,49.72L213.11,50.08L215.21,51.5L216.08,53L217.92,53.89L219.71,55.64L220.25,55.83L221.87,56.14L222.6,56.14L223.18,56.19L223.66,56.29L224.2,56.63L225.25,58.08L226.04,59.97L227.07,61.1L228.9,62.48L231.37,64.57L233.9,65.98L236.86,67.28L238.87,70.06L240.58,72.04L241.72,73.03L241.86,73.72L241.87,74.32L241.98,74.85L242.74,76.47L245.54,77.75L248.12,79.23L248.46,79.52L249.6,80.98L251.48,83.42L252.08,85.77L252.43,85.96L254.01,86.31L254.72,86.31L256.01,86.47L256.42,86.71L256.66,87.15L256.71,87.98L257.08,89.35L257.77,89.95L259.12,90.14L259.54,90.05L260.29,89.74L262.6,90.26L264.57,90.99L265.01,91.32L265.41,91.74L265.78,92.2L266.01,92.64L266.48,93.2L269.07,95.18L270.15,95.97L272.44,98.27L273.82,99.85L275.35,100.74L275.76,100.86L275.85,100.96L275.85,100.96L275.1,101.42L273.71,103.02L271.76,105.76L271.27,105.81L270.87,105.93L270.43,106.49L270.4,107.19L271.1,107.88L271.39,108.32L271.29,109.7L271.29,109.7L270.29,110.37L269.94,110.56L269.15,110.85L268.77,111.08L268.31,111.46L266.81,112.89L266.71,113.4L266.87,114.03L267.08,114.81L267.42,117.64L267.43,118.15L267.3,120.15L267.24,120.75L266.76,122.27z" 
                fill="rgb(151, 144, 238)" 
                stroke="white" 
                stroke-width=".7px"
                title="Chaco" 
                id="AR-H" 
            />
        </svg>