<svg xmlns="http://www.w3.org/2000/svg" viewBox="26.14 433.29 155.04000000000002 100.44999999999999" width="155.04000000000002" height="100.44999999999999">
            <path 
                d="M35.09,533.72L35.21,533.66L35.82,533.14L35.38,531.23L35,530.71L34.19,530.33L33.65,530.15L33.12,529.82L32.42,526.71L32.61,524.8L33.18,522.31L33.86,521.8L34.59,521.51L35,521.42L35.37,521.35L35.79,521.38L38.31,520.22L41.36,515.79L40.81,513.89L37.75,509.91L36.83,507.96L36.22,507.35L33.35,506.38L32.16,506.21L29.85,505.99L27.45,505.47L27.18,502.55L27.29,502.03L27.8,501.71L28.31,501.84L28.77,502.1L29.13,502.27L29.54,502.45L31.54,502.69L32.04,502.5L32.37,501.95L32.8,501.75L33.83,501.97L34.21,502.13L34.57,502.3L34.93,502.44L35.38,502.37L35.75,502.23L36.71,501.72L37.38,501.45L37.87,501.45L38.23,501.54L38.75,501.9L39.6,502.55L40.08,502.79L40.62,502.97L41.24,502.97L41.74,502.83L42.68,501.53L42.78,500.77L42.65,500.05L42.57,499.41L43.33,497.6L44.15,497.46L44.57,497.01L44.8,496.16L43.84,494.04L43.23,493.5L39.51,492.75L38.07,492.8L36.89,492.99L35.43,492.99L32.67,492.94L31.78,492.75L31.32,492.04L31.51,491.53L32.33,490.93L32.39,488.09L32.28,487.45L31.95,486.75L32.66,484.78L33.25,484.15L34.9,481.58L35.06,481.12L35.02,480.57L34.12,479.33L33.08,478.15L32.14,476.74L32.15,476.02L32.53,475.8L32.89,475.66L34.04,474.89L34.27,474.32L34.06,472.71L31.4,470.19L29.83,469.02L29.93,467.37L30.55,465.83L32.37,465.23L33.03,465.39L33.37,465.15L33.49,464.68L33.38,462.14L31.64,461.07L31.05,460.92L29.91,460.8L29.4,460.78L28.67,460.79L27.7,460.37L27.24,459.98L26.52,458.75L26.18,457.93L26.24,456.7L26.37,456.22L26.6,455.67L26.77,454.87L26.81,454.21L26.72,451.89L26.65,450.91L26.34,449.63L26.14,447.72L26.21,447.19L26.38,446.66L26.64,446.16L27.85,442.29L27.63,441.82L26.69,441L26.3,440.25L27.97,436.93L28.34,436.56L28.77,436.33L29.35,436.45L29.6,436.87L29.79,437.5L30.34,437.59L32.7,436.48L33.61,435.62L33.52,434.02L33.01,433.3L33.01,433.3L39.54,433.31L42.56,433.29L54.03,433.29L54.63,433.31L66.7,433.29L78.17,433.31L86.02,433.31L96.89,433.29L105.35,433.3L126.47,433.29L139.15,433.31L153.04,433.29L154.32,433.55L154.32,433.55L155.2,435.55L155.56,436.03L156.12,436.64L156.64,437.12L157.68,437.91L160.2,438.86L162.63,439.56L163.01,439.57L163.8,439.29L164.51,439.41L165.15,439.77L164.87,440.22L164.38,440.65L163.89,441.17L163.57,441.69L162.68,443.23L162.78,443.89L165.38,444.17L171.11,443.94L171.51,443.82L172.43,442.97L172.71,442.51L172.75,440.87L172.42,440.09L172.05,439.8L171.56,439.63L170.99,439.56L169.53,439.61L169.06,439.67L168.26,439.68L167.62,439.3L168.2,438.9L170.64,438.42L173.32,437.33L175.41,436.02L175.88,435.8L176.31,435.7L177.67,435.49L178.08,435.49L178.41,435.74L179.06,437.31L179.27,437.96L179.5,438.59L179.87,439.24L180.51,439.95L180.74,440.4L180.91,440.83L181.05,441.39L181.18,448.31L180.29,451.99L179.28,453.25L178.69,453.48L178.07,453.57L176.49,453.92L172.41,454.97L171.78,455.04L171.08,454.65L169.07,452.25L169.02,451.62L169.49,450.19L169.96,449.06L167.83,446.74L167.49,446.49L166.35,445.88L165.34,445.67L164.61,445.68L164.1,445.7L162.36,445.97L160.26,446.95L159.89,447.46L159.47,448.06L158.7,448.65L158.35,448.81L157.7,448.86L156.74,449.12L156.29,449.45L155.11,451.48L155.28,452.32L155.64,452.72L156.53,452.91L158.97,453.88L160.34,454.68L161.28,455.52L161.67,455.81L162.2,456.11L162.81,456.33L166.06,457.23L166.5,457.18L167.73,456.6L168.19,457.57L166.96,458.55L166.46,458.91L162.85,460.67L160.81,461.08L159.63,461.47L159.07,461.77L158.5,462.15L156.72,463.62L154.84,465.49L154.67,465.93L153.05,469.16L150.83,471.98L150.31,472.82L149.53,474.21L149.36,475.58L149.39,476.16L149.72,478.34L150.05,478.96L150.31,479.58L150.54,480.41L150.77,481.91L151.27,481.7L151.64,481.62L151.31,485.46L150.82,485.68L150.13,485.97L149.79,487.37L149.86,487.88L150.58,489.85L150.93,490.54L149.6,492.87L149.31,493.44L148.43,495.82L144.64,498.22L144.14,498.69L143.87,499.03L142.97,500.65L142.42,502.27L142.39,503.03L142.54,503.63L143.34,504.2L144.08,504.28L145.72,505.23L144.38,508.5L142.98,509.06L142.32,508.61L141.87,508.26L140.19,507.63L135.31,506.99L134.03,507.07L130.93,508.79L127.96,510.13L127.69,510.83L127.07,512L124.92,513.05L122.32,513.32L121.88,513.41L120.19,514.48L119.4,515.19L118.54,516.62L117.39,518.79L115.93,521.48L115.65,521.83L114.68,522.63L113.82,523.29L113.45,523.89L113.26,524.49L112.32,528.43L111.67,529.03L109.5,531.88L108.64,533.74L108.64,533.74L107.75,533.72L90.85,533.74L90.25,533.72L72.75,533.72L72.14,533.74L48.58,533.72L44.97,533.74L37.13,533.74z" 
                fill="rgb(151, 144, 238)" 
                stroke="white" 
                stroke-width=".7px"
                title="Chubut" 
                id="AR-U" 
            />
        </svg>