<svg xmlns="http://www.w3.org/2000/svg" viewBox="251.99 108.72 73.25 71.71000000000001" width="73.25" height="71.71000000000001">
            <path 
                d="M252.34,171.84L251.99,170.47L252.69,168.88L253.81,165.24L253.74,164.46L253.42,163.89L252.93,163.26L252.43,162.68L252.17,161.8L252.21,161.07L252.32,160.57L252.66,159.74L253.08,158.32L253.34,157.19L253.48,155.88L253.56,154.14L253.53,152.8L253.7,152.28L255.27,148.95L255.63,148.67L256.93,148.25L257.43,147.95L260.52,144.74L260.75,144.08L262.37,137.26L262.6,136.52L263.07,132.28L263.07,131.39L262.81,128.92L262.77,128.04L262.87,127.25L263.07,126.87L263.44,126.46L264.15,126.11L264.79,126.2L265.17,126.2L265.62,126.02L266.1,125.59L266.48,124.73L266.64,124.29L266.71,123.89L266.72,123.58L266.72,123.58L266.76,122.27L267.24,120.75L267.3,120.15L267.43,118.15L267.42,117.64L267.08,114.81L266.87,114.03L266.71,113.4L266.81,112.89L268.31,111.46L268.77,111.08L269.15,110.85L269.94,110.56L270.29,110.37L271.29,109.7L271.29,109.7L272.08,109.38L272.66,109.22L273.08,109.12L273.55,109.07L276.99,108.82L279.41,108.72L282.04,108.75L283.4,108.86L286.02,109.2L287.14,109.5L287.61,109.75L287.99,110.06L288.67,110.58L289.18,110.81L292.87,111.74L294.11,111.91L294.49,111.9L294.98,112.01L295.48,112.24L296.06,112.59L296.6,112.84L297.38,113.09L298.15,113.21L298.95,113.25L299.55,112.94L300.38,112.41L300.99,112.07L301.87,111.77L302.52,111.78L302.85,111.95L303.33,112.38L304.11,113.2L304.58,113.45L305.22,113.52L305.68,113.08L305.85,112.89L306.28,112.63L306.79,112.48L307.47,112.36L308,112.37L308.51,112.45L309.04,112.64L309.34,112.91L309.52,113.46L310.2,114.37L310.89,114.93L311.26,115.13L311.85,115.13L312.21,114.84L313.49,112.77L313.6,112.37L313.55,111.89L313.61,111.17L315.86,109.58L316.68,109.45L317.3,109.41L317.82,109.46L319.1,110L319.1,110L318.52,110.42L318.27,111.03L318.14,111.48L318.12,112.2L318.3,113.02L318.99,114.37L319.36,114.98L319.72,115.45L320.85,117.99L320.99,118.39L321.18,119.13L321.31,120.59L321.36,121.59L321.48,122L322.97,124.65L323.49,125.25L325.24,126.47L325.24,126.47L325.1,126.83L324.29,127.59L323.73,127.85L323.03,128.03L322.63,128.41L322.68,128.83L323.58,129.33L324.25,129.77L324.49,130.45L323.95,131.93L323.53,131.52L323.31,131.02L321.49,130.81L320.83,130.88L320.41,131.15L318.85,133.58L318.27,135.07L317.27,136.41L315.39,138.51L313.48,139.5L313.12,139.93L313,140.64L310.99,145.05L310.73,145.53L309.14,146.01L308.11,146.67L307.74,147L307.15,147.69L306.8,148.23L306.61,148.86L306.6,149.53L305.86,151.18L303.74,153.74L301.93,155.64L299.54,158.69L298.97,159.35L298.47,159.86L297.73,160.16L296.83,160.18L296.23,160.24L295.69,160.46L295.28,160.76L294.97,161.18L294.58,162.21L294.58,162.95L294.46,164.35L294.11,164.8L291.54,167.55L290.69,168.2L290.32,168.4L289.8,168.57L289.34,168.65L288.95,169.76L289.03,170.61L288.92,171.03L288.24,172.2L286.84,173.51L285.92,174.15L284.62,175.22L284.37,175.55L284.24,175.97L284.24,177.29L284.57,177.78L285.03,178.22L285.61,179.71L285.75,180.43L285.75,180.43L285.43,180.27L284.65,179.66L284.28,179.3L283.55,178.57L282.64,177.6L282.38,177.29L282.04,176.65L281.62,175.8L281.41,175.28L280.1,172.88L278.08,170.01L277.72,169.7L276.96,169.41L271.86,168.05L271.21,167.95L270.59,168.01L269.84,168.2L268.74,168.79L268.09,169.16L266.46,169.55L265.52,169.44L264.56,169.1L263.64,169.09L261.82,170.31L261.41,170.97L259.79,171.91L259.03,171.77L258.61,171.58L258.16,171.34L257.36,171.2L256.94,171.17L254.86,171.3L253.79,171.76L253.27,171.84z" 
                fill="rgb(151, 144, 238)" 
                stroke="white" 
                stroke-width=".7px"
                title="Corrientes" 
                id="AR-W" 
            />
        </svg>