<svg xmlns="http://www.w3.org/2000/svg" viewBox="141.55 152.78 73.08999999999997 118.99999999999997" width="73.08999999999997" height="118.99999999999997">
            <path 
                d="M153.88,271.78L153.9,267.76L153.92,251.77L153.91,249.88L153.88,249.04L153.5,242.17L153.09,232.6L153.35,231.98L153.82,231.15L154.66,229.88L155.34,228.24L156.02,225.35L157.07,221.46L157.59,220.13L157.74,218.7L157.01,213.56L156.48,213.07L155.88,213.17L155.46,213.29L155.07,213.47L154.43,213.64L152.44,213.9L151.91,213.8L151.13,210.78L151.09,210.01L150.94,209.32L149.84,208.1L143.93,204.55L143.26,204.43L141.69,204.43L141.69,204.43L141.67,204.35L141.64,200.65L141.56,189.95L141.55,187.02L143.1,182.53L143.47,181.5L145.98,173.14L146.59,172.36L148.17,167.72L149.37,167.37L149.75,167.28L152.8,166.4L153.14,166.04L153.14,166.04L156.51,162.29L156.77,161.92L156.06,155.98L156.46,155.87L157.58,155.61L157.58,155.61L157.95,155.53L168.66,152.78L172.77,154.05L172.75,154.71L173.44,155.68L176.89,157.49L177.6,157.61L178.11,157.62L178.61,157.61L179.18,157.54L179.65,157.41L180.19,157.28L180.81,157.28L182.58,157.67L183.4,158.07L184.25,158.97L184.6,160.04L187.17,160.23L188.15,160.25L198.34,160.12L205.11,160L206.94,164.8L208.21,168.06L208.21,168.06L207.25,174.21L206.48,174.26L206.36,176.57L209.67,178.9L212.56,180.02L210.72,186.91L207.4,199.27L205.36,200.99L205.72,203.48L205.94,205.13L205.88,207.82L205.8,208.47L205.85,209.76L207.22,211.37L207.87,211.66L208.18,211.88L208.55,212.31L208.82,213.02L208.95,213.93L209.19,214.63L209.6,215.17L210.02,215.5L210.53,215.84L210.98,216.23L211.38,216.77L211.69,217.53L212.11,219.11L212.82,221.3L214.48,223.93L214.64,224.68L214.15,227.87L214.03,228.4L213.7,229L213.27,229.48L212.42,230.01L211.7,230.02L210.96,231.07L203.99,242.49L196.51,254.65L194.55,257.78L194.32,258.19L194.32,258.19L193.91,258.17L190.09,258.18L186.67,258.17L185.15,258.16L184.76,258.12L184.76,263.27L184.72,271.78L184.72,271.78L184.32,271.77L162.44,271.73L155.91,271.71L155.04,271.72z" 
                fill="rgb(151, 144, 238)" 
                stroke="white" 
                stroke-width=".7px"
                title="Córdoba" 
                id="AR-X" 
            />
        </svg>