<svg xmlns="http://www.w3.org/2000/svg" viewBox="232.53 167.95 53.390000000000015 83.11000000000001" width="53.390000000000015" height="83.11000000000001">
            <path 
                d="M240.68,233.76L240.55,233.54L239.72,232.39L239.21,232.06L237.74,231.29L236.66,230.86L236.32,230.6L233.55,225.07L233.37,224.55L233.23,223.86L232.59,219.87L232.53,217.3L232.91,215.75L233.72,213.74L233.18,210.23L234.25,201.31L234.64,200.89L235.33,200.68L236.43,200.56L237.05,200.52L238.17,200.35L238.88,199.82L239.73,198.92L243.39,194.68L244.06,193.6L244.32,192.96L244.54,192.25L244.87,191.43L245.39,190.59L246.24,189.98L247.21,188.61L248.19,186.88L249.88,184.24L250.52,183.4L250.76,183.05L251.71,181.45L253.52,178.16L253.69,177.08L253.67,174.55L253.57,173.82L253.21,173.36L252.42,172.09L252.34,171.84L252.34,171.84L253.27,171.84L253.79,171.76L254.86,171.3L256.94,171.17L257.36,171.2L258.16,171.34L258.61,171.58L259.03,171.77L259.79,171.91L261.41,170.97L261.82,170.31L263.64,169.09L264.56,169.1L265.52,169.44L266.46,169.55L268.09,169.16L268.74,168.79L269.84,168.2L270.59,168.01L271.21,167.95L271.86,168.05L276.96,169.41L277.72,169.7L278.08,170.01L280.1,172.88L281.41,175.28L281.62,175.8L282.04,176.65L282.38,177.29L282.64,177.6L283.55,178.57L284.28,179.3L284.65,179.66L285.43,180.27L285.75,180.43L285.75,180.43L285.81,180.79L285.9,181.64L285.92,183.27L284.89,187.1L283.68,191.42L282.16,194.52L281.54,194.85L281.01,195.2L280.81,195.75L281.06,196.14L281.6,196.41L282.01,196.76L282.43,197.28L282.64,197.97L282.58,198.79L281.51,202.38L281.09,202.88L280.47,203.19L279.72,203.34L279.3,203.49L278.9,203.89L278.62,204.62L279.34,205.82L279.6,206.71L279.5,208.27L279.32,209.01L279.01,209.54L278.94,210.2L279.29,211.04L279.71,211.58L280.4,212.28L280.48,213.13L280.4,213.79L279.79,214.4L279.52,214.73L279.04,215.47L278.63,216.45L278.62,216.41L278.39,216.75L278.24,217.23L278.17,217.98L278.18,219.04L278.64,221.92L279.52,227.03L279.59,229.21L279.44,229.67L279.18,229.98L278.83,230.19L278.23,230.28L277.82,230.24L277.43,230.15L275.59,229.98L274.94,229.98L274.53,230.33L274.51,233.87L273.99,235.46L273.69,235.84L273.05,237.05L272.72,238.69L272.61,239.38L272.29,242.49L272.28,243.04L272.33,244.13L272.6,244.89L273.39,246.11L273.79,246.56L274.26,249.44L274.12,250.08L274.12,250.08L274.12,250.07L272.81,250.29L272.41,250.47L271.95,250.83L271.41,251.06L270.35,250.92L268.93,249.71L265.14,247.11L264.08,246.48L263.56,246.21L262.31,246.15L259.87,245.49L256.64,244.23L256.16,243.93L255.9,243.61L255.62,243.15L255.09,242.5L254.68,242.31L254.13,242.45L253.22,242.98L250.98,241.91L250.37,241.59L249.79,241.04L249.57,240.61L248.66,239.72L248.11,239.34L246.69,238.73L245.02,237.63L244.68,237.37L244.05,236.86L243.58,236.36L243.25,235.95L241.96,234.56L241.63,234.28L241.26,234.04z" 
                fill="rgb(151, 144, 238)" 
                stroke="white" 
                stroke-width=".7px"
                title="Entre Ríos" 
                id="AR-E" 
            />
        </svg>