<svg xmlns="http://www.w3.org/2000/svg" viewBox="203.61 13.41 86.70999999999998 87.55" width="86.70999999999998" height="87.55">
            <path 
                d="M203.64,45.72L203.64,41.74L203.68,27.6L203.67,20.05L203.62,13.69L203.61,13.41L203.61,13.41L204.07,13.62L204.62,13.91L205.25,14.48L205.44,14.82L205.49,15.36L206.99,18.99L207.94,20.16L209.03,21.34L209.32,21.78L209.71,22.78L209.66,23.27L209.96,23.86L211.26,25.09L211.8,25.21L212.41,25.51L214.18,27.11L214.39,27.44L214.42,28.34L215.74,29.36L216.44,29.31L217.14,29.57L219.74,31.95L221.31,32.69L222.56,33.34L224.6,34.63L225.89,35.68L227.27,38.55L227.46,39.18L227.71,39.67L228.15,39.88L230.16,40.43L232.23,40.88L232.75,40.88L234.9,41.31L235.29,41.8L235.56,42.33L237.75,43.17L240.95,44.15L243.07,44.22L243.49,44.14L243.92,44.03L244.43,43.87L244.81,43.72L245.33,43.58L246.33,44.24L251.99,48L254.46,49.63L255.6,50.4L257.19,51.99L257.66,52.71L257.99,53.05L258.88,53.57L262.28,55.42L263.07,55.62L264.31,56.34L265.24,56.95L266.28,57.83L267.61,58.85L270.11,59.66L271.29,59.78L271.81,59.74L272.59,59.88L274.1,60.4L275.86,62.55L277.14,62.76L278.95,62.7L279.9,63.35L281.16,63.87L283.41,64.73L283.91,64.74L284.43,64.88L284.81,65.13L286.57,66.6L287,67.83L287.56,68.59L288.17,69.04L288.24,69.28L288.91,70.88L289.7,71.46L290.28,71.95L290.32,72.52L289.91,74.13L286.79,77.84L285.99,78.48L285.67,78.6L285.76,79.8L284.89,81.23L284.04,82.25L284.22,82.62L284.78,83.11L282.19,85.24L281.37,85.54L279.62,87.3L279.86,88.31L279.31,89.18L278.44,91.59L278.31,94.02L278.93,94.62L279.19,95.2L278.95,96.34L276.51,100.71L275.85,100.96L275.85,100.96L275.76,100.86L275.35,100.74L273.82,99.85L272.44,98.27L270.15,95.97L269.07,95.18L266.48,93.2L266.01,92.64L265.78,92.2L265.41,91.74L265.01,91.32L264.57,90.99L262.6,90.26L260.29,89.74L259.54,90.05L259.12,90.14L257.77,89.95L257.08,89.35L256.71,87.98L256.66,87.15L256.42,86.71L256.01,86.47L254.72,86.31L254.01,86.31L252.43,85.96L252.08,85.77L251.48,83.42L249.6,80.98L248.46,79.52L248.12,79.23L245.54,77.75L242.74,76.47L241.98,74.85L241.87,74.32L241.86,73.72L241.72,73.03L240.58,72.04L238.87,70.06L236.86,67.28L233.9,65.98L231.37,64.57L228.9,62.48L227.07,61.1L226.04,59.97L225.25,58.08L224.2,56.63L223.66,56.29L223.18,56.19L222.6,56.14L221.87,56.14L220.25,55.83L219.71,55.64L217.92,53.89L216.08,53L215.21,51.5L213.11,50.08L211.61,49.72L209.96,48.61L206.34,46.92z" 
                fill="rgb(151, 144, 238)" 
                stroke="white" 
                stroke-width=".7px"
                title="Formosa" 
                id="AR-P" 
            />
        </svg>