<svg xmlns="http://www.w3.org/2000/svg" viewBox="114.68 0 56.01999999999998 55.55" width="56.01999999999998" height="55.55">
            <path 
                d="M152.01,6.1L151.41,7.57L151.17,8.61L151.12,9.52L151.14,10.4L149.91,13.1L149.67,13.53L149.44,13.85L149.31,14.27L149.4,15.23L150.25,18.44L150.56,20.6L151.18,22.53L151.69,23.17L152.05,23.42L152.52,23.52L153.02,23.51L153.79,23.51L154.17,23.55L154.64,23.65L155.05,24.06L155.3,24.67L155.32,25.22L155.26,25.87L155.17,26.62L154.97,27.26L154.65,28.45L154.84,29.03L155.4,29.31L155.91,29.43L156.22,29.66L156.56,30.24L157.5,32.27L157.6,33.15L158.88,33.69L159.43,33.44L159.72,33.12L160,32.86L161.38,32.55L163.51,33.66L164.17,34.26L164.98,35.32L166.31,34.52L166.84,33.63L170.28,33.7L170.37,37.75L170.41,40.11L170.4,40.69L170.52,44.43L170.58,45.58L170.7,46.9L170.6,47.54L170.32,48.28L169.75,49.27L168.82,50.59L168.57,50.9L168.09,51.41L167.65,51.65L167.15,51.65L166.13,51.79L164.09,53.13L163.76,53.41L163.37,53.85L162.98,54.46L162.35,55.55L162.19,55.49L161.29,54.67L160.76,54.11L160.29,53.62L158.72,52.33L158.35,52.66L158.05,53.14L157.8,53.77L157.61,54.33L157.35,54.94L157.06,55.2L156.49,55.17L154.75,54.49L154.19,54.12L153.25,53.39L150.3,53.29L149.69,53.13L145.83,52.01L144.86,51.4L141.93,47.18L141.75,46.78L141.7,46.35L141.76,45.85L141.82,45.23L141.55,44.72L139.42,43.12L138.87,42.98L138.53,43.25L138.16,43.33L137.35,42.37L136.86,40.68L136.93,38.97L137.19,38.36L137.6,37.9L137.62,34.61L137.44,34.16L136.81,33.54L135.37,32.61L134.26,31.99L132.68,31.42L131.27,30.98L130.62,31.21L130.37,31.88L130.02,33.36L129.97,33.88L129.99,34.47L130.41,35.68L130.64,36.67L130.67,37.29L130.66,38.16L130.49,38.97L128.34,45.86L127.89,46.54L125.75,46.25L124.89,46.04L124.39,45.83L122.1,44.78L121.76,44.6L120.45,43.16L119.19,41.61L117.94,40.23L117.45,39.93L116.74,39.85L115.29,38.79L114.86,38.39L114.68,38.14L114.68,38.14L116.49,31.43L116.71,30.77L117.53,28.48L118.36,26.18L119.21,23.81L117.33,21.81L115.9,20.27L116.97,18.27L119,16.61L118.82,14.45L120.56,13.56L121.94,13.07L123.31,12.56L123.37,11.55L123.99,8.68L124.86,8.07L126.17,7.99L127.2,7.73L128.36,7.39L130.05,6.87L131.08,6.53L131.78,5.75L132.06,4.94L132.23,3.83L133.06,0.32L133.3,0L133.81,0.15L135.93,1L138.68,2.97L139.74,4.37L140.73,5.65L141.87,6.4L143.54,6.38L144.6,6.2z" 
                fill="rgb(151, 144, 238)" 
                stroke="white" 
                stroke-width=".7px"
                title="Jujuy" 
                id="AR-Y" 
            />
        </svg>