<svg xmlns="http://www.w3.org/2000/svg" viewBox="95.77 271.71 88.95 98.04000000000002" width="88.95" height="98.04000000000002">
            <path 
                d="M184.64,369.68L183.6,369.75L183.14,369.68L182.5,369.41L178.88,366.8L175.72,364.44L173.82,362.63L170.65,360.81L169.76,360.34L168.93,359.98L167.16,359.32L166.52,359.12L165.29,358.78L164.6,358.75L163.66,358.7L159.02,357.84L154.77,357.52L152.45,357.57L152.08,357.64L151.46,357.92L150.88,358.08L148.68,358.38L148.33,358.14L147.79,357.71L146.5,357.25L145.31,357.02L144.81,357.05L143.8,357.62L143.27,357.95L141.38,357.43L140.17,356.77L137.54,356.01L136.16,355.8L134.99,355.71L133.85,355.64L132.87,355.62L132.28,355.85L130.42,356.14L127.16,355.19L126.81,354.45L126.78,353.52L126.58,353.04L126.35,352.66L125.82,352.08L125.3,351.69L122.94,350.52L122.47,350.37L121.01,349.99L119.79,349.5L118.16,348.59L117.84,348.35L116.75,346.99L116.55,345.92L116.12,344.29L114.68,343.99L114.31,344.05L113.96,344.32L113.29,344.72L112.75,344.93L109.78,345.21L109.36,345.16L108.87,344.96L108.49,344.68L107.52,343.73L107.13,343.11L106.98,342.49L106.74,341.9L106.46,341.42L106.03,340.97L105.58,340.67L105.05,340.55L104.25,340.68L103.47,339.72L103.34,338.13L103.53,337.39L104.5,336.35L104.94,336.15L105.41,335.96L105.71,335.68L105.98,335.19L106.32,334.32L106.36,333.25L106.06,332.35L105.58,331.44L105.21,330.89L104.75,330.47L104.14,330.14L103.11,329.76L102.71,329.63L99.95,329.28L97.44,329.08L96.59,329.14L96.59,329.14L96.64,299.63L96.62,297.52L95.77,297.52L95.87,293.86L101.53,293.91L111.31,293.9L122.03,293.88L126.16,293.89L126.16,293.89L153.86,293.94L153.88,288.51L153.86,287.35L153.87,277.33L153.9,272.35L153.88,271.78L153.88,271.78L155.04,271.72L155.91,271.71L162.44,271.73L184.32,271.77L184.72,271.78L184.72,271.78L184.7,273.56L184.62,295.49L184.68,364.91L184.67,369.33z" 
                fill="rgb(151, 144, 238)" 
                stroke="white" 
                stroke-width=".7px"
                title="La Pampa" 
                id="AR-L" 
            />
        </svg>