<svg xmlns="http://www.w3.org/2000/svg" viewBox="71.13 118.2 82.00999999999999 87.32000000000001" width="82.00999999999999" height="87.32000000000001">
            <path 
                d="M153.14,166.04L152.8,166.4L149.75,167.28L149.37,167.37L148.17,167.72L146.59,172.36L145.98,173.14L143.47,181.5L143.1,182.53L141.55,187.02L141.56,189.95L141.64,200.65L141.67,204.35L141.69,204.43L141.69,204.43L139.7,204.85L138.64,204.72L138.19,204.4L137.65,204.15L137.18,204.04L136.3,204.13L135.54,204.32L135.04,204.51L134.44,204.86L133.73,205.19L133.19,205.33L132.61,205.41L130.76,205.52L126.89,205.12L125.96,204.73L125.39,204.44L124.7,204.23L124.32,204.22L124.11,204.24L124.11,204.24L123.72,203.14L123.36,202.39L121.91,199.92L119.94,198.5L118.41,196.96L117.27,193.26L117.65,190.74L117.82,189.67L118.14,187.48L116.89,186.51L117.75,183.54L116.03,180.14L115.58,179.57L115.06,179.31L114.56,179.09L113.67,177.79L112.37,176.09L111.3,175.22L108.96,172.69L108.53,170.98L108.33,170.61L107.89,170.11L107.43,169.68L104.92,167.57L103.51,166.45L102.91,166.11L102.53,165.76L100.92,164.14L100.61,163.36L100.43,162.97L99.62,162.22L98,160.88L95.42,158.84L94.23,158.16L92.6,157.55L88.63,156.54L88.08,156.57L87.44,156.72L86.98,156.92L86.25,157.2L83.4,157.25L82.76,157.02L82.56,156.52L82.52,155.94L82.59,155.23L82.67,154.75L83.19,152.69L83.74,149.62L83.89,148.04L84.45,147.96L84.74,147.54L84.98,146.23L84.55,142.7L82.36,140.62L81.01,139.13L80.71,137.72L80.17,136.26L76.7,133.38L75.01,133.1L71.13,131.79L71.13,131.79L72.04,131.12L73.36,130.01L75.77,127.27L76.65,126.17L76.88,125.7L77.09,124.8L77.64,123.53L78.31,123.19L78.98,123.12L79.5,122.99L79.78,122.61L80.02,122.07L80.19,121.61L80.82,118.99L80.82,118.99L82.18,119.05L82.81,119.11L83.46,119.18L85.29,119.43L85.89,119.35L86.94,119.06L87.52,118.76L89.3,118.48L92.09,118.2L93.02,118.27L93.31,118.56L93.34,119.13L93.01,120.29L93.05,123.37L93.65,123.86L94.47,123.85L97.17,125.36L98.61,125.94L100.79,126.25L102.31,126.88L102.46,127.97L102.65,128.63L103.14,129.43L103.55,130L103.99,130.54L104.89,130.94L106.68,131.39L107.14,131.43L107.71,131.25L108.2,130.69L108.83,129.58L109.67,128.47L110.2,128.45L112,129.63L112.64,130.42L116.02,130.8L116.58,130.82L117.31,130.65L117.67,130.39L118.04,129.96L118.35,129.49L118.85,129.3L119.79,129.47L120.16,129.57L126.99,132.47L127.5,132.79L127.87,133.14L128.13,133.44L128.34,133.78L130.21,138.07L130.44,140.43L130.86,141.2L131.28,141.52L132.3,142.02L132.83,142.26L133.31,142.41L133.8,142.63L134.34,142.94L135.17,143.53L140.76,148.72L141,149.05L141.64,150.19L141.8,150.76L141.8,152.15L143.17,154.1L146.19,157.72L151.03,163.4L152.04,164.57z" 
                fill="rgb(151, 144, 238)" 
                stroke="white" 
                stroke-width=".7px"
                title="La Rioja" 
                id="AR-F" 
            />
        </svg>