<svg xmlns="http://www.w3.org/2000/svg" viewBox="54.61 205.94 73.55 123.19999999999999" width="73.55" height="123.19999999999999">
            <path 
                d="M57.2,296.92L57.71,295.57L57.51,293.24L57.43,291.5L57.6,291.01L58.09,290.17L58.66,289.68L58.1,287.99L57.48,286.59L57.31,285.76L57.57,285.31L57.71,283.11L57.24,279.77L55.23,278.52L54.92,278.28L54.61,277.64L54.65,277.07L55.1,276.36L55.53,276.25L56.15,276.21L56.72,276.1L57.98,275.46L58.31,274.92L58.41,273.94L58.33,273.48L58.31,272.67L58.33,271.83L58.37,271.67L59.5,268.51L60.67,264.31L62.17,261.46L64.06,258.58L63.94,257.59L63.94,256.3L64.02,256.08L64.35,255.88L65.14,255.73L65.66,255.75L66.07,255.86L66.91,255.92L68.19,254.97L67.63,251.97L66.98,247.51L66.62,246.11L66.61,245.04L67.25,240.21L68.34,237.67L68.81,237.13L68.96,236.57L68.44,234.24L67.14,233.51L66.65,233.34L66.2,233.42L65.69,233.94L65.33,234.6L64.88,234.66L63.16,232.09L63.06,231.53L63.24,230.87L63.35,229.89L63.08,229.35L63.59,228.36L64.5,227.14L65.01,225.57L64.07,225.1L62.26,223.06L61.79,220.25L61.91,219.25L62.13,218.44L62.23,217.65L62.09,217L60.71,214.14L60.46,213.46L60.46,213.46L61.95,213.15L64.43,213.21L65.36,213.37L66.11,213.2L66.49,213.01L66.98,212.82L67.96,212.6L68.88,212.49L69.61,212.46L70.92,212.38L71.54,211.85L71.66,211.3L71.61,210.47L71.61,209.99L71.8,209.61L72.16,209.31L74.99,207.95L75.82,207.89L78.46,206.81L79.66,205.94L80.43,206.07L80.75,206.29L81.11,206.68L81.44,207.14L81.69,207.67L81.99,208.09L82.66,208.59L84.24,208.37L85.27,208.62L85.62,208.82L86.11,209.3L86.47,209.5L87.35,209.91L87.82,210.1L90.87,210.83L91.47,210.9L92.04,210.71L92.38,210.24L92.46,209.19L92.63,208.65L93.09,208.31L93.56,208.35L94.34,208.83L94.75,208.93L97.01,209.16L99.02,208.7L99.43,208.57L100.03,208.33L100.71,208.31L101.07,208.47L101.36,208.71L101.67,209.01L101.94,209.45L102.25,210.31L104.02,211.87L104.38,212.06L105.46,212.25L107.05,212.5L107.89,212.43L108.26,212.33L108.86,212.35L110.59,212.95L110.95,213.21L112.2,214.65L112.51,215.07L112.69,215.35L112.69,215.35L113.22,215.81L113.8,217.34L114.28,218.98L114.71,221.33L115.63,223.48L115.37,224.92L115.16,226.79L115.33,227.25L115.66,227.78L115.84,229.76L115.94,232.23L115.74,232.94L116.45,237.51L117.14,238.98L118.18,240.63L119.57,243.65L120.28,245.92L120.73,246.57L121.82,247.33L122.14,247.75L123.45,250.06L123.84,251.71L123.59,253.36L122.86,254.11L122.42,255L122.64,258.36L123.73,262.65L123.87,263.07L125.36,265.56L126.61,267.58L126.96,268.48L127.4,269.8L127.54,270.35L128.14,274.55L128.16,279.59L127.94,282.42L127.85,283.01L127.05,287.31L126.89,288.02L126.29,290.46L125.82,293.21L126.12,293.84L126.16,293.89L126.16,293.89L122.03,293.88L111.31,293.9L101.53,293.91L95.87,293.86L95.77,297.52L96.62,297.52L96.64,299.63L96.59,329.14L96.59,329.14L94.98,328.84L92.6,327.74L90.41,326.39L87.15,324.69L86.7,324.71L86.08,324.91L85.68,325.07L85.28,325.07L83.72,324.69L83.05,324.44L82.52,323.96L82.27,323.21L82.17,322.35L81.95,321.77L81.57,321.26L80.83,320.79L78.29,319.76L77.83,319.73L77.08,319.8L75.87,319.97L75.25,320.23L74.68,320.36L73.12,320.19L72.36,320.04L71.55,319.77L70.57,319.11L69.94,318.66L69.39,318.1L68.3,316.38L68.73,315.35L68.81,314.61L68.79,313.81L68.65,312.93L68.12,312.77L67.24,312.3L66.54,311.7L66.22,311.32L66.1,310.61L65.78,309.78L63.56,307.52L62.49,307.17L61.96,306.9L61.14,305.71L60.93,305.2L60.84,304.73L60.76,304.14L60.38,302.61L60.08,302.05L59.71,301.91L59.16,302.21L58.65,302.28L58.24,301.76L57.96,300.9L57.99,300.12L58.32,299.65L58.41,298.51L58.12,297.69L57.56,297.09z" 
                fill="rgb(151, 144, 238)" 
                stroke="white" 
                stroke-width=".7px"
                title="Mendoza" 
                id="AR-M" 
            />
        </svg>