<svg xmlns="http://www.w3.org/2000/svg" viewBox="318.12 73.07 42.90999999999997 53.400000000000006" width="42.90999999999997" height="53.400000000000006">
            <path 
                d="M319.1,110L319.86,109.89L320.42,110.01L320.87,110.54L321.02,111.21L321.28,111.51L322.86,112.23L323.33,112.13L325.71,110.21L325.99,109.69L326.28,108.46L326.25,108.04L326.05,107.63L326.2,106.65L326.66,105.55L329.02,103L329.32,102.75L329.71,102.6L331.67,102.02L332.03,101.99L334.23,100.71L335.57,99.3L335.96,99.14L336.72,99.11L337.25,98.9L337.5,98.6L337.66,98.04L337.87,96.98L338.25,96.57L338.82,96.32L339.44,96.36L342.14,91.74L342.76,88.88L342.6,87.94L343.08,87.45L343.11,86.91L342.72,86.31L342.73,82.67L343.75,82.02L343.61,78.78L343.4,76.11L343.85,74.61L344.8,74.55L346.2,75.55L346.5,75.8L347.74,74.76L349.02,74.25L349.65,74.2L351.48,74.38L351.87,73.86L352.75,73.07L356.71,75.82L357.2,76.85L357.86,79.17L357.85,79.6L357.69,80.77L357.83,82.17L359.43,84.91L360.77,87.03L360.96,87.51L361.03,88.16L361.03,88.43L360.96,88.72L360.69,89.37L360.29,89.87L359.92,90.46L359.96,93.41L359.66,96.35L359.48,97.14L359.82,98.89L360.15,100.91L360.03,101.49L359.51,102.83L359.3,103.33L358.18,105.89L357.61,106.74L357.27,106.3L356.51,106.42L354.59,107.15L354.22,107.83L353.81,108.34L353.41,108.71L353.03,109.01L352.63,109.17L352.06,109.15L350.45,111L349.62,111.88L348.21,112.54L346.53,112.79L345.1,113.23L342.27,114.53L340.72,114.73L340.39,114.51L340.34,114.08L339.96,114.13L338.42,116.87L338.36,117.7L338.24,118.09L336.19,120.2L335.43,120.44L333.33,120.66L330.76,122L329.8,123.05L329.71,123.46L329.69,124.12L328.47,125.36L326.04,126.31L325.24,126.47L325.24,126.47L323.49,125.25L322.97,124.65L321.48,122L321.36,121.59L321.31,120.59L321.18,119.13L320.99,118.39L320.85,117.99L319.72,115.45L319.36,114.98L318.99,114.37L318.3,113.02L318.12,112.2L318.14,111.48L318.27,111.03L318.52,110.42z" 
                fill="rgb(151, 144, 238)" 
                stroke="white" 
                stroke-width=".7px"
                title="Misiones" 
                id="AR-N" 
            />
        </svg>