<svg xmlns="http://www.w3.org/2000/svg" viewBox="29.56 296.92 67.03 114.58999999999997" width="67.03" height="114.58999999999997">
            <path 
                d="M34.42,375.32L34.7,375.31L35.45,376.37L35.92,376.59L37.59,376.5L37.85,376.07L37.98,375.19L38.62,372.24L39.47,369.79L39.75,367.69L39.49,365.12L39.31,363.64L39.13,363.02L39.12,362.43L39.19,361.19L39.34,360.61L39.64,360.1L40.24,359.53L40.72,359.22L42.45,358.19L45,356.68L45.81,356.28L46.3,356.21L46.87,356.27L47.75,356.29L48.16,356.1L49.27,354.93L49.86,352.57L49.93,351.83L49.6,351.04L48.93,350.51L48.45,350.22L47.68,349.41L47.29,348.59L46.72,345.59L46.53,344.27L46.76,342.59L46.8,340.66L45.05,336.37L44.53,335.34L44.29,334.28L43.86,333.24L43.52,332.12L43.47,331.26L43.59,330.52L43.92,330.12L44.54,329.65L44.8,326.72L44.63,326.17L44.14,325.51L43.75,324.9L43.22,323.16L43.46,322.4L44.09,321.66L44.42,320.66L44.73,318.91L44.08,315.76L43.4,312.83L44.29,310.5L45.78,306.12L46.15,304.7L46.47,304.52L47.1,304.7L47.63,304.77L52.08,303.15L52.27,302.62L51.87,301.57L52.12,299.92L54.22,297.56L55.75,297.5L56.42,297.55L56.94,297.26L57.2,296.92L57.2,296.92L57.56,297.09L58.12,297.69L58.41,298.51L58.32,299.65L57.99,300.12L57.96,300.9L58.24,301.76L58.65,302.28L59.16,302.21L59.71,301.91L60.08,302.05L60.38,302.61L60.76,304.14L60.84,304.73L60.93,305.2L61.14,305.71L61.96,306.9L62.49,307.17L63.56,307.52L65.78,309.78L66.1,310.61L66.22,311.32L66.54,311.7L67.24,312.3L68.12,312.77L68.65,312.93L68.79,313.81L68.81,314.61L68.73,315.35L68.3,316.38L69.39,318.1L69.94,318.66L70.57,319.11L71.55,319.77L72.36,320.04L73.12,320.19L74.68,320.36L75.25,320.23L75.87,319.97L77.08,319.8L77.83,319.73L78.29,319.76L80.83,320.79L81.57,321.26L81.95,321.77L82.17,322.35L82.27,323.21L82.52,323.96L83.05,324.44L83.72,324.69L85.28,325.07L85.68,325.07L86.08,324.91L86.7,324.71L87.15,324.69L90.41,326.39L92.6,327.74L94.98,328.84L96.59,329.14L96.59,329.14L96.58,329.57L96.55,349.12L96.51,361.4L92.39,363.5L91.91,363.6L91.28,363.77L90,364.89L89.58,365.49L89.28,366.44L89.1,366.88L88.8,367.25L86.91,368.69L86.51,369.11L85.1,371.33L84.07,373.15L83.49,373.62L81.99,374.33L81.42,374.39L80.62,374.41L78.89,375.49L78.39,375.85L77.96,376.34L77.58,376.9L77.28,377.56L76.95,378.3L76.66,378.68L76.33,379.01L74.51,380.5L74.01,380.78L73.08,380.91L72.45,381.09L69.29,382.4L66.98,383.45L66.44,383.77L65.9,384.19L65.49,384.71L65.13,385.41L64.71,386.75L64.68,387.25L64.83,387.7L65.07,388.08L65.05,389.8L63.73,393.83L63.38,394.44L61.62,396.69L61.21,396.9L57.88,397.87L57.1,397.75L56.66,397.49L56.29,397.31L55.71,397.32L54.98,397.61L54.24,398.06L53.91,398.39L53.5,398.91L53.15,399.12L52.67,399.21L51.11,399.33L50.3,399.37L49.42,399.71L49.02,399.92L47.2,401.02L45.02,402.97L44.82,403.5L44.73,404.27L44.99,404.76L45.44,405.21L45.79,405.67L46.03,406.27L46.16,407.38L45.93,408.2L45.63,408.67L44,410.57L42.49,411.33L41.71,411.51L41.01,411.49L40.41,411.4L39.79,411.24L39.39,411.09L38.43,410.6L37.13,410.05L36.39,409.92L31.75,409.46L31.21,409.48L31.21,409.48L31.59,408.15L31.37,407.12L30.21,404.58L29.56,402.7L29.92,402.09L30.47,401.61L30.85,401.22L31.21,400.71L31.57,399.7L31.55,399.05L31.6,398.06L32.65,395.15L33.03,395.18L33.44,395.59L33.81,395.49L34.06,395.04L34.75,393.38L34.66,392.49L34.04,392.07L33.74,392.62L32.44,391.28L31.96,390.31L32.44,388.2L33.19,387.59L34.69,386.6L35.3,384.32L34.65,382.06L34,379.08L33.93,376.72L34.28,375.52z" 
                fill="rgb(151, 144, 238)" 
                stroke="white" 
                stroke-width=".7px"
                title="Neuquén" 
                id="AR-Q" 
            />
        </svg>