<svg xmlns="http://www.w3.org/2000/svg" viewBox="30.21 329.08 165.6 104.47000000000003" width="165.6" height="104.47000000000003">
            <path 
                d="M33.01,433.3L32.94,432L32.69,430.57L32.5,429.94L31.37,427.64L30.21,424.88L30.21,424.19L30.61,423.72L31.38,422.4L31.06,419.59L30.6,418.49L30.49,417.76L30.77,416.25L31.09,415.58L31.17,415L31.55,410.62L31.21,409.48L31.21,409.48L31.75,409.46L36.39,409.92L37.13,410.05L38.43,410.6L39.39,411.09L39.79,411.24L40.41,411.4L41.01,411.49L41.71,411.51L42.49,411.33L44,410.57L45.63,408.67L45.93,408.2L46.16,407.38L46.03,406.27L45.79,405.67L45.44,405.21L44.99,404.76L44.73,404.27L44.82,403.5L45.02,402.97L47.2,401.02L49.02,399.92L49.42,399.71L50.3,399.37L51.11,399.33L52.67,399.21L53.15,399.12L53.5,398.91L53.91,398.39L54.24,398.06L54.98,397.61L55.71,397.32L56.29,397.31L56.66,397.49L57.1,397.75L57.88,397.87L61.21,396.9L61.62,396.69L63.38,394.44L63.73,393.83L65.05,389.8L65.07,388.08L64.83,387.7L64.68,387.25L64.71,386.75L65.13,385.41L65.49,384.71L65.9,384.19L66.44,383.77L66.98,383.45L69.29,382.4L72.45,381.09L73.08,380.91L74.01,380.78L74.51,380.5L76.33,379.01L76.66,378.68L76.95,378.3L77.28,377.56L77.58,376.9L77.96,376.34L78.39,375.85L78.89,375.49L80.62,374.41L81.42,374.39L81.99,374.33L83.49,373.62L84.07,373.15L85.1,371.33L86.51,369.11L86.91,368.69L88.8,367.25L89.1,366.88L89.28,366.44L89.58,365.49L90,364.89L91.28,363.77L91.91,363.6L92.39,363.5L96.51,361.4L96.55,349.12L96.58,329.57L96.59,329.14L96.59,329.14L97.44,329.08L99.95,329.28L102.71,329.63L103.11,329.76L104.14,330.14L104.75,330.47L105.21,330.89L105.58,331.44L106.06,332.35L106.36,333.25L106.32,334.32L105.98,335.19L105.71,335.68L105.41,335.96L104.94,336.15L104.5,336.35L103.53,337.39L103.34,338.13L103.47,339.72L104.25,340.68L105.05,340.55L105.58,340.67L106.03,340.97L106.46,341.42L106.74,341.9L106.98,342.49L107.13,343.11L107.52,343.73L108.49,344.68L108.87,344.96L109.36,345.16L109.78,345.21L112.75,344.93L113.29,344.72L113.96,344.32L114.31,344.05L114.68,343.99L116.12,344.29L116.55,345.92L116.75,346.99L117.84,348.35L118.16,348.59L119.79,349.5L121.01,349.99L122.47,350.37L122.94,350.52L125.3,351.69L125.82,352.08L126.35,352.66L126.58,353.04L126.78,353.52L126.81,354.45L127.16,355.19L130.42,356.14L132.28,355.85L132.87,355.62L133.85,355.64L134.99,355.71L136.16,355.8L137.54,356.01L140.17,356.77L141.38,357.43L143.27,357.95L143.8,357.62L144.81,357.05L145.31,357.02L146.5,357.25L147.79,357.71L148.33,358.14L148.68,358.38L150.88,358.08L151.46,357.92L152.08,357.64L152.45,357.57L154.77,357.52L159.02,357.84L163.66,358.7L164.6,358.75L165.29,358.78L166.52,359.12L167.16,359.32L168.93,359.98L169.76,360.34L170.65,360.81L173.82,362.63L175.72,364.44L178.88,366.8L182.5,369.41L183.14,369.68L183.6,369.75L184.64,369.68L184.64,369.68L184.66,371.34L184.67,378.21L184.65,400.99L184.77,402.31L185.13,402.49L187.2,402.84L188.1,402.89L188.59,402.96L189.52,403.24L190.06,403.54L191.62,404.62L193.01,405.96L193.37,406.41L194.58,408.13L195.04,408.86L195.57,409.83L195.81,410.34L195.81,410.34L191.69,412.24L191.4,412.53L191.02,412.79L190.57,412.89L189.11,413.06L185.04,413.09L183.72,413.01L181.47,413.09L179.39,413.19L178.96,413.2L177.64,413.16L177.05,413.02L176.47,412.74L175.83,412.31L175.21,411.65L174.83,411.22L174.33,410.8L173.68,410.48L172.41,410.07L170.86,409.69L168.15,408.24L164.76,406.79L164.33,406.68L160.47,405.21L160,404.42L159.48,402.8L158.99,402.58L157.54,402.25L157.09,402.22L156.59,402.31L155.75,402.62L153.09,405.49L152.43,407.58L152.2,408.99L152.42,411.39L152.52,411.95L153.05,414.63L154.25,419.77L154.63,420.39L155,420.76L155.38,421.04L155.6,421.63L155.53,422.67L155.44,423.15L155.18,423.89L154.96,424.6L154.94,425.69L155.08,426.48L155.24,427L155.55,427.69L155.31,428.76L155.03,429.47L154.15,431.53L154.01,432.28L154.07,432.87L154.32,433.55L154.32,433.55L153.04,433.29L139.15,433.31L126.47,433.29L113.8,433.3L96.89,433.29L86.02,433.31L78.17,433.31L66.7,433.29L54.63,433.31L54.03,433.29L42.56,433.29L39.54,433.31z" 
                fill="rgb(151, 144, 238)" 
                stroke="white" 
                stroke-width=".7px"
                title="Río Negro" 
                id="AR-R" 
            />
        </svg>