<svg xmlns="http://www.w3.org/2000/svg" viewBox="90.77 4.21 112.97000000000001 86.74000000000002" width="112.97000000000001" height="86.74000000000002">
            <path 
                d="M184.46,76.33L174.93,76.19L172.29,75.34L170.64,74.79L170.01,74.57L165.8,83.82L164.96,86.66L164.75,87.57L164.75,87.57L164.6,87.62L160.86,87.66L160.26,87.55L159.67,87.39L158.96,87.41L158.52,87.55L158.06,87.83L157.64,88.27L157.16,88.55L156.57,88.69L156.13,88.59L154.42,88.08L150.52,86.5L150.18,85.36L149.81,84.72L149.33,84.62L148.93,84.82L148.33,85.23L147.87,85.51L147.45,85.58L145.42,85.14L143.43,84.64L143.09,85L143.02,85.6L143.06,86.42L142.77,88.73L142.4,89.21L137.52,88.49L136.48,88.27L134.57,87.76L134.57,87.76L132.47,87.74L131.98,87.97L131.66,88.45L131.25,89.4L131.06,89.97L130.8,90.6L130.53,90.9L130.16,90.95L129.77,90.75L129.44,90.44L128.09,89.02L127.76,88.53L127.39,87.72L126.93,86.62L126.12,85.09L125.4,84.04L123.55,81.64L123.3,81.35L123.08,81.03L122.9,80.68L122.67,79.9L122.55,79.28L122.53,78.71L122.59,77.96L122.79,77.57L123.89,76.66L125.31,76.62L126.84,76.53L127.3,76.33L128.04,75.79L128.37,75.38L128.83,72.79L127.49,69L126.97,68.54L122.97,68.62L117.07,68.7L110.91,68.77L104.61,68.83L94.23,66.83L92.56,66.5L92.31,66.42L92.31,66.42L93.5,66.23L94.67,65.6L92.05,61.1L91.18,60.6L90.77,59.48L90.83,58.86L91.32,57.82L91.91,56.64L92.72,55.34L94.04,53.35L94.49,53.07L95.33,53.21L96.09,52.23L96.52,51.26L97.67,50.73L102.94,48.4L107.63,46.31L113.14,43.82L114.68,38.14L114.68,38.14L114.86,38.39L115.29,38.79L116.74,39.85L117.45,39.93L117.94,40.23L119.19,41.61L120.45,43.16L121.76,44.6L122.1,44.78L124.39,45.83L124.89,46.04L125.75,46.25L127.89,46.54L128.34,45.86L130.49,38.97L130.66,38.16L130.67,37.29L130.64,36.67L130.41,35.68L129.99,34.47L129.97,33.88L130.02,33.36L130.37,31.88L130.62,31.21L131.27,30.98L132.68,31.42L134.26,31.99L135.37,32.61L136.81,33.54L137.44,34.16L137.62,34.61L137.6,37.9L137.19,38.36L136.93,38.97L136.86,40.68L137.35,42.37L138.16,43.33L138.53,43.25L138.87,42.98L139.42,43.12L141.55,44.72L141.82,45.23L141.76,45.85L141.7,46.35L141.75,46.78L141.93,47.18L144.86,51.4L145.83,52.01L149.69,53.13L150.3,53.29L153.25,53.39L154.19,54.12L154.75,54.49L156.49,55.17L157.06,55.2L157.35,54.94L157.61,54.33L157.8,53.77L158.05,53.14L158.35,52.66L158.72,52.33L160.29,53.62L160.76,54.11L161.29,54.67L162.19,55.49L162.35,55.55L162.98,54.46L163.37,53.85L163.76,53.41L164.09,53.13L166.13,51.79L167.15,51.65L167.65,51.65L168.09,51.41L168.57,50.9L168.82,50.59L169.75,49.27L170.32,48.28L170.6,47.54L170.7,46.9L170.58,45.58L170.52,44.43L170.4,40.69L170.41,40.11L170.37,37.75L170.28,33.7L166.84,33.63L166.31,34.52L164.98,35.32L164.17,34.26L163.51,33.66L161.38,32.55L160,32.86L159.72,33.12L159.43,33.44L158.88,33.69L157.6,33.15L157.5,32.27L156.56,30.24L156.22,29.66L155.91,29.43L155.4,29.31L154.84,29.03L154.65,28.45L154.97,27.26L155.17,26.62L155.26,25.87L155.32,25.22L155.3,24.67L155.05,24.06L154.64,23.65L154.17,23.55L153.79,23.51L153.02,23.51L152.52,23.52L152.05,23.42L151.69,23.17L151.18,22.53L150.56,20.6L150.25,18.44L149.4,15.23L149.31,14.27L149.44,13.85L149.67,13.53L149.91,13.1L151.14,10.4L151.12,9.52L151.17,8.61L151.41,7.57L152.01,6.1L152.01,6.1L155.66,6.02L156,6.35L160.6,7.8L161.18,7.67L162.83,8.4L163.66,9.33L163.78,9.83L164.03,12.21L165.2,14.27L165.52,15.55L165.32,16.24L165.36,16.8L166.02,17.57L166.99,18.61L167.18,19.2L167.26,20.12L167.26,20.68L167.44,21.21L167.83,21.03L168.1,20.48L168.42,18.95L168.38,18.43L168.49,16.83L168.98,15.31L169.14,14.96L169.52,14.24L169.95,13.89L170.44,13.41L171.27,12.24L173.69,6.09L174.63,4.28L178.4,4.31L180.93,4.32L189.32,4.27L194.99,4.21L195.29,4.59L195.43,5.4L195.43,6.08L195.44,6.5L195.93,7.27L197.89,8.85L198.13,8.9L198.6,9.62L200.35,11.47L202.68,13.15L203.21,13.37L203.61,13.41L203.61,13.41L203.62,13.69L203.67,20.05L203.68,27.6L203.64,41.74L203.64,45.72L203.64,45.72L203.7,48.63L203.74,51.18L198.1,58.71L190.01,69.19L189.52,69.8z" 
                fill="rgb(151, 144, 238)" 
                stroke="white" 
                stroke-width=".7px"
                title="Salta" 
                id="AR-A" 
            />
        </svg>