<svg xmlns="http://www.w3.org/2000/svg" viewBox="112.03 203.64 45.71000000000001 90.30000000000001" width="45.71000000000001" height="90.30000000000001">
            <path 
                d="M112.69,215.35L112.39,214.51L112.23,213.9L112.1,212.32L112.03,207.98L112.2,204.51L112.52,203.85L112.85,203.64L113.62,203.68L115.95,204.03L119.75,204.55L120.26,204.56L123.16,204.42L124.11,204.24L124.11,204.24L124.32,204.22L124.7,204.23L125.39,204.44L125.96,204.73L126.89,205.12L130.76,205.52L132.61,205.41L133.19,205.33L133.73,205.19L134.44,204.86L135.04,204.51L135.54,204.32L136.3,204.13L137.18,204.04L137.65,204.15L138.19,204.4L138.64,204.72L139.7,204.85L141.69,204.43L141.69,204.43L143.26,204.43L143.93,204.55L149.84,208.1L150.94,209.32L151.09,210.01L151.13,210.78L151.91,213.8L152.44,213.9L154.43,213.64L155.07,213.47L155.46,213.29L155.88,213.17L156.48,213.07L157.01,213.56L157.74,218.7L157.59,220.13L157.07,221.46L156.02,225.35L155.34,228.24L154.66,229.88L153.82,231.15L153.35,231.98L153.09,232.6L153.5,242.17L153.88,249.04L153.91,249.88L153.92,251.77L153.9,267.76L153.88,271.78L153.88,271.78L153.9,272.35L153.87,277.33L153.86,287.35L153.88,288.51L153.86,293.94L126.16,293.89L126.16,293.89L126.12,293.84L125.82,293.21L126.29,290.46L126.89,288.02L127.05,287.31L127.85,283.01L127.94,282.42L128.16,279.59L128.14,274.55L127.54,270.35L127.4,269.8L126.96,268.48L126.61,267.58L125.36,265.56L123.87,263.07L123.73,262.65L122.64,258.36L122.42,255L122.86,254.11L123.59,253.36L123.84,251.71L123.45,250.06L122.14,247.75L121.82,247.33L120.73,246.57L120.28,245.92L119.57,243.65L118.18,240.63L117.14,238.98L116.45,237.51L115.74,232.94L115.94,232.23L115.84,229.76L115.66,227.78L115.33,227.25L115.16,226.79L115.37,224.92L115.63,223.48L114.71,221.33L114.28,218.98L113.8,217.34L113.22,215.81z" 
                fill="rgb(151, 144, 238)" 
                stroke="white" 
                stroke-width=".7px"
                title="San Luis" 
                id="AR-D" 
            />
        </svg>