<svg xmlns="http://www.w3.org/2000/svg" viewBox="54.26 131.79 69.85 83.56" width="69.85" height="83.56">
            <path 
                d="M60.46,213.46L59.21,212.91L59.07,212.51L59.15,211.72L58.57,208.71L59.33,207.88L60.09,207.76L60.68,206.12L60.58,205.55L59.73,204.56L59.38,204.36L58.12,204.44L57.43,204.29L57.09,204.07L56.8,203.65L56.57,203.3L54.26,197.61L54.4,196.9L54.61,195.61L54.74,192.51L55.26,189.53L55.45,189.07L56.71,187.71L57.09,188.11L58.33,187.68L59.54,186.34L59.61,185.63L58.95,184.81L58.88,184.28L58.96,183.43L59.16,182.04L60.01,178.97L60.31,178.12L61.05,176.48L62.46,173.97L63.95,173.04L64.35,173.1L64.92,173.04L66,172.57L66.72,171.58L67.94,168.77L67.98,167.8L67.75,167.31L67.36,166.97L66.25,164.8L66.36,164.26L66.56,163.1L66.6,160.63L66.44,158.99L66.39,158.84L65.79,158.45L65.56,158.12L65.45,157.64L65.54,157.09L65.67,156.5L65.61,155.58L65.52,155.16L64.83,152.85L64.36,151.83L64.26,151.36L64.36,150.1L65.61,148.24L66.67,146.96L67.82,146.83L68.4,146.44L68.64,146.07L68.75,145.56L68.71,144.44L69.28,141.76L69.9,139.93L69.79,139.24L69.6,138.78L69.48,138.32L69.49,137.3L70.3,135.68L70.88,135.37L71,134.67L71.13,131.79L71.13,131.79L75.01,133.1L76.7,133.38L80.17,136.26L80.71,137.72L81.01,139.13L82.36,140.62L84.55,142.7L84.98,146.23L84.74,147.54L84.45,147.96L83.89,148.04L83.74,149.62L83.19,152.69L82.67,154.75L82.59,155.23L82.52,155.94L82.56,156.52L82.76,157.02L83.4,157.25L86.25,157.2L86.98,156.92L87.44,156.72L88.08,156.57L88.63,156.54L92.6,157.55L94.23,158.16L95.42,158.84L98,160.88L99.62,162.22L100.43,162.97L100.61,163.36L100.92,164.14L102.53,165.76L102.91,166.11L103.51,166.45L104.92,167.57L107.43,169.68L107.89,170.11L108.33,170.61L108.53,170.98L108.96,172.69L111.3,175.22L112.37,176.09L113.67,177.79L114.56,179.09L115.06,179.31L115.58,179.57L116.03,180.14L117.75,183.54L116.89,186.51L118.14,187.48L117.82,189.67L117.65,190.74L117.27,193.26L118.41,196.96L119.94,198.5L121.91,199.92L123.36,202.39L123.72,203.14L124.11,204.24L124.11,204.24L123.16,204.42L120.26,204.56L119.75,204.55L115.95,204.03L113.62,203.68L112.85,203.64L112.52,203.85L112.2,204.51L112.03,207.98L112.1,212.32L112.23,213.9L112.39,214.51L112.69,215.35L112.69,215.35L112.51,215.07L112.2,214.65L110.95,213.21L110.59,212.95L108.86,212.35L108.26,212.33L107.89,212.43L107.05,212.5L105.46,212.25L104.38,212.06L104.02,211.87L102.25,210.31L101.94,209.45L101.67,209.01L101.36,208.71L101.07,208.47L100.71,208.31L100.03,208.33L99.43,208.57L99.02,208.7L97.01,209.16L94.75,208.93L94.34,208.83L93.56,208.35L93.09,208.31L92.63,208.65L92.46,209.19L92.38,210.24L92.04,210.71L91.47,210.9L90.87,210.83L87.82,210.1L87.35,209.91L86.47,209.5L86.11,209.3L85.62,208.82L85.27,208.62L84.24,208.37L82.66,208.59L81.99,208.09L81.69,207.67L81.44,207.14L81.11,206.68L80.75,206.29L80.43,206.07L79.66,205.94L78.46,206.81L75.82,207.89L74.99,207.95L72.16,209.31L71.8,209.61L71.61,209.99L71.61,210.47L71.66,211.3L71.54,211.85L70.92,212.38L69.61,212.46L68.88,212.49L67.96,212.6L66.98,212.82L66.49,213.01L66.11,213.2L65.36,213.37L64.43,213.21L61.95,213.15z" 
                fill="rgb(151, 144, 238)" 
                stroke="white" 
                stroke-width=".7px"
                title="San Juan" 
                id="AR-J" 
            />
        </svg>