<svg xmlns="http://www.w3.org/2000/svg" viewBox="152.18 74.57 62.889999999999986 93.49000000000001" width="62.889999999999986" height="93.49000000000001">
            <path 
                d="M152.39,121.75L153.69,121.57L154.15,121.3L155.41,119.1L154.87,117.58L154.5,116.81L154.26,116.26L154.18,115.58L154.32,112.82L154.56,112.34L156.56,110.06L157.06,109.9L157.49,109.82L158.39,108.05L158.81,106.99L159.81,103.71L160.66,101.9L161.48,99.23L162.16,99.19L162.93,96.77L164.23,96.86L164.58,96.74L164.58,95.95L164.55,95.38L164.36,94.07L164.11,92.56L164.05,91.89L164.17,91.4L164.47,90.56L164.75,89.71L164.85,89.18L164.85,88.69L164.75,87.57L164.75,87.57L164.96,86.66L165.8,83.82L170.01,74.57L170.64,74.79L172.29,75.34L174.93,76.19L184.46,76.33L184.46,76.33L189.94,76.38L191.67,76.4L196.27,76.42L206.64,76.42L211.13,76.4L214.25,76.37L214.94,76.38L214.96,76.78L215.04,87.48L215.07,99.46L215.05,112.02L215.06,122.56L215.04,123.6L215.04,123.6L214.41,127.78L214.32,128.47L213.33,135.07L211.96,144.13L210.98,150.48L209.92,157.15L208.21,168.06L208.21,168.06L206.94,164.8L205.11,160L198.34,160.12L188.15,160.25L187.17,160.23L184.6,160.04L184.25,158.97L183.4,158.07L182.58,157.67L180.81,157.28L180.19,157.28L179.65,157.41L179.18,157.54L178.61,157.61L178.11,157.62L177.6,157.61L176.89,157.49L173.44,155.68L172.75,154.71L172.77,154.05L168.66,152.78L157.95,155.53L157.58,155.61L157.58,155.61L157.48,155.49L157.18,155.08L155.57,152L154.77,150.04L154.61,149.42L154.49,148.64L154.17,145.17L154.1,142.52L153.82,138.68L153.64,137.89L153.2,137.4L152.76,137.17L152.21,136.97L152.18,136.44L152.18,135.89L153.05,134.82L153.66,134.17L154.01,133.5L154.13,132.52L154.15,132.01L154.14,131.17L154.05,129.55L154.01,129.09L153.73,127.58L153.05,124.19L152.48,121.93z" 
                fill="rgb(151, 144, 238)" 
                stroke="white" 
                stroke-width=".7px"
                title="Santiago del Estero" 
                id="AR-G" 
            />
        </svg>