<svg xmlns="http://www.w3.org/2000/svg" viewBox="0 533.72 142.18 176.60000000000002" width="142.18" height="176.60000000000002">
            <path 
                d="M110.02,613.52L109.07,614.47L108.62,615.07L107.66,617.21L108.1,618.67L106.94,620.69L106.07,621.8L105.31,622.7L104.9,623.06L104.23,624.63L106.14,624.41L106.59,623.67L106.76,622.89L107.44,621.13L107.89,620.92L108.25,621.24L107.33,625.77L106.73,628.42L106.2,631.45L106.02,633.57L105.87,634.96L105.58,636.6L105.35,637.73L105.19,638.34L104.95,639.07L104.55,639.65L103.36,640.98L102.97,641.37L101.59,642.6L101.01,643.09L100.35,643.59L100,643.83L97.89,644.83L97.48,645.01L96.7,645.2L96.16,645.23L95.77,645.23L95.11,645.16L93.43,643.68L91.94,641.16L90.38,639.76L90.13,640.34L88.57,641.05L87.9,640.99L86.02,640.88L85.65,640.89L83.98,641.33L83.61,641.46L82.95,642.04L84.65,641.85L85.12,641.55L85.82,641.28L86.36,641.29L86.94,641.48L89.01,641.55L89.4,641.46L89.92,641.21L90.52,641.21L91.1,641.7L91.4,642.46L91.64,643.38L91.89,643.81L92.27,644.13L92.6,644.38L94.26,645.5L94.35,646.13L93.92,646.87L93.44,647.26L93.05,647.46L92.5,647.69L91.19,648.14L89.33,648.81L87.13,649.92L86.25,650.4L85.68,650.8L85.27,651.18L84.07,652.71L83.75,653.18L81.78,656.52L81.53,657.06L81.14,658.55L80.36,662.83L80.37,664.54L80.5,666.17L80.4,666.77L79.88,667.54L78.53,669.16L77.36,670.19L76.96,670.58L76.15,671.55L75.65,672.45L76.36,671.68L77.52,670.46L79.51,669.21L80.05,670.32L80.4,671.49L80.41,672.39L80.37,673.25L80.44,673.96L80.6,674.68L81.95,679.55L82.14,680.15L82.85,682.24L83.4,683.77L83.65,684.72L83.85,685.75L83.54,686.71L83.08,686.7L82.74,686.43L82.01,686.56L81.58,686.83L80.63,687.79L80.19,687.72L79.27,687.32L77.63,686.27L76.22,686.23L74.3,686.81L71.96,688.2L73.05,688.03L73.47,687.86L74.02,687.6L75.98,687.27L76.72,687.34L78.34,687.78L79.75,688.5L82.75,688L83.18,688.21L84.4,690.44L85.43,692.82L86.44,695.44L86.77,696.23L88.66,699.84L90,701.99L90.32,702.48L90.73,702.99L91.81,704.24L93.14,706.38L93.73,707.54L94.18,708.83L93.49,710.16L93.11,710.32L93.22,708.87L90.69,708.18L89.36,707.94L87.93,707.72L86.1,707.42L84.16,705.97L83.16,705.25L82.41,704.91L78.77,703.4L77.79,703.42L74.64,703.41L69.13,700.96L65.92,699.5L64.92,699.08L62.89,699.08L57.01,699.11L42.55,699.11L34.19,699.1L30.28,699.06L29.7,696.67L29.7,695.7L29.39,694.93L27.08,692.29L26.2,691.58L25.74,691.24L25.37,691L24.88,690.77L23.98,690.61L23.42,690.3L21.4,684.99L21.97,684.56L22.36,684.15L23.05,681.67L22.98,680.52L23.01,679.13L23.36,678.35L23.9,677.8L24.14,677.01L23.4,676.04L22.74,675.69L22.29,675.34L21.85,674.74L21.5,673.27L22.61,671.15L23.55,671.04L23.85,670.47L24.27,666L24.06,665.34L23.58,664.46L23.18,663.88L22.6,663.18L22.53,662.48L23.22,660.94L23.34,660.24L21.95,659.14L19.76,658.82L19.27,658.9L18.83,659.13L18.43,659.63L18.03,660.43L17.67,660.7L17.08,660.78L16.5,660.55L16.14,660.23L15.82,659.8L15.31,659.32L14.78,659.32L12.85,660.28L12.25,660.65L11.89,660.99L10.84,662.43L10.22,662.99L9.6,663.34L9.03,663.54L8.57,663.65L8.06,663.57L7.68,663.26L7.35,662.71L6.4,658.68L6.03,655.9L5.72,651.79L5.52,651.03L4.8,649.29L4.53,648.8L4.23,648.42L2.64,647.15L1.08,645.94L0.83,645.14L1.04,644.23L1.46,643.35L1.96,642.66L2.03,641.81L1.67,641.31L1.22,640.88L0.51,640.1L0.96,637.63L1.46,637.03L2.1,636.42L2.46,635.9L1.21,630.71L0.24,629.43L0,628.92L0.77,626.21L2.13,622.55L2.88,622.5L8.08,622.35L8.98,621.33L7.51,620.92L7.38,620.65L7.34,620.07L9.15,615.82L10.43,613.91L10.86,613.36L11.42,612.98L12.07,612.7L12.43,612.6L13.15,612.63L13.97,612.46L14.51,612.25L14.98,611.97L15.31,611.74L15.82,611.3L18.03,609.13L18.5,608.44L18.66,607.82L18.66,606.57L18.49,604.4L18.27,602.64L18.16,602.02L17.72,600.09L17.87,599.52L18.19,599.08L18.57,598.81L19.77,598.15L20.94,597.68L23.37,596.11L23.22,591.84L22.83,588.81L21.29,586.92L20.51,586.73L20,586.38L19.33,585.65L19.04,585.12L18.97,584.42L20.4,580.32L20.9,579.19L21.34,578.41L22.27,576.92L22.51,576.41L22.69,575.83L23.08,573.41L22.47,573L22.15,572.68L22.32,571.93L22.58,571.54L22.98,571.29L23.35,571.13L24.02,570.89L24.5,570.88L25.14,571.09L25.78,570.89L27.19,569.34L28.35,567.33L30.78,566.14L31.05,565.77L31.33,564.55L31.15,563.67L30.6,563.03L29.09,560.88L29.76,555.11L30.16,554.68L31.37,554.59L32.03,554.31L34.34,552.12L34.59,551.62L34.7,550.8L34.63,547.8L34.28,546.55L33.64,544.97L33.35,540.81L33.25,540.17L32.88,539.5L32.27,539.2L31.65,538.97L30.44,537.62L31.36,537.18L31.84,537.13L32.41,537L32.9,536.78L33.36,536.25L33.72,535.51L34.1,534.89L34.71,534.06L35.09,533.72L35.09,533.72L37.13,533.74L44.97,533.74L48.58,533.72L61.27,533.72L67.32,533.74L72.14,533.74L72.75,533.72L90.25,533.72L90.85,533.74L107.75,533.72L108.64,533.74L108.64,533.74L108.03,535.59L107.98,537.12L108.02,538.35L108.19,539.25L108.69,541.64L108.84,542.22L109.56,544.76L110.12,545.81L111.14,547.44L111.89,548.57L112.75,549.7L113.1,550.08L115.45,552L115.98,552.28L117.42,553.58L120.06,556.54L122.51,559.68L124.02,560.81L124.49,561.08L125.22,561.25L125.72,561.3L126.08,561.29L126.89,561.2L128.17,561.18L130.63,561.59L130.97,562.04L133.55,562.45L135.52,562.39L136.36,561.94L137.09,561.74L137.53,561.75L139.25,562.66L141.41,565.14L142.18,568.75L142.18,569.29L142.13,570.31L141.97,572.21L141.77,574.24L141.23,576.25L139.69,580.11L139.37,580.4L138.59,580.44L137.9,580.2L137.31,580.16L136.8,580.31L136.45,580.54L136.15,580.89L135.7,581.45L135.28,581.78L134.25,581.93L133.19,582.39L132.93,582.93L133.5,582.49L134.04,582.36L135.04,582.27L137.75,580.9L138.12,580.94L139.07,581.57L141.17,584.89L141.15,585.77L140.45,585.96L140,585.76L139.44,585.4L138.91,585.24L137.93,585.67L138.31,588.04L137.99,589.2L136.12,589.41L132.24,593.3L131.26,594.37L129.9,595.94L128.88,597.48L127.38,597.75L125.75,598.4L125.3,598.63L124.88,599.05L123.73,600.56L122.38,602.17L121.4,602.38L120.8,602.54L120.35,602.7L119.83,602.93L118.08,603.83L117.62,604.13L116.97,604.9L115.51,607.49L114.8,609.09L114.07,609.41L113.56,609.66L113.11,609.97L111.9,611.04L110.41,612.97z" 
                fill="rgb(151, 144, 238)" 
                stroke="white" 
                stroke-width=".7px"
                title="Santa Cruz" 
                id="AR-Z" 
            />
        </svg>