<svg xmlns="http://www.w3.org/2000/svg" viewBox="194.32 123.58 72.40000000000003 134.61" width="72.40000000000003" height="134.61">
            <path 
                d="M240.68,233.76L241.11,234.25L240.89,235.05L239.69,236.59L238.49,238.33L238.45,239L238.3,239.82L238.13,240.29L237.35,241.76L236.21,242.12L235.79,242.1L235.43,241.98L235.02,241.63L234.74,241.32L234.24,240.9L233.86,240.68L230.69,240.09L230.19,240.14L229.75,240.26L229.38,240.47L229.12,240.83L229.05,241.3L229.23,242.03L222.01,250.28L215.03,258.07L211.8,258.11L204.19,258.17L194.32,258.19L194.32,258.19L194.55,257.78L196.51,254.65L203.99,242.49L210.96,231.07L211.7,230.02L212.42,230.01L213.27,229.48L213.7,229L214.03,228.4L214.15,227.87L214.64,224.68L214.48,223.93L212.82,221.3L212.11,219.11L211.69,217.53L211.38,216.77L210.98,216.23L210.53,215.84L210.02,215.5L209.6,215.17L209.19,214.63L208.95,213.93L208.82,213.02L208.55,212.31L208.18,211.88L207.87,211.66L207.22,211.37L205.85,209.76L205.8,208.47L205.88,207.82L205.94,205.13L205.72,203.48L205.36,200.99L207.4,199.27L210.72,186.91L212.56,180.02L209.67,178.9L206.36,176.57L206.48,174.26L207.25,174.21L208.21,168.06L208.21,168.06L209.92,157.15L210.98,150.48L211.96,144.13L213.33,135.07L214.32,128.47L214.41,127.78L215.04,123.6L215.04,123.6L219.29,123.63L224.6,123.64L238.9,123.64L243.85,123.61L252.25,123.61L266.72,123.58L266.72,123.58L266.71,123.89L266.64,124.29L266.48,124.73L266.1,125.59L265.62,126.02L265.17,126.2L264.79,126.2L264.15,126.11L263.44,126.46L263.07,126.87L262.87,127.25L262.77,128.04L262.81,128.92L263.07,131.39L263.07,132.28L262.6,136.52L262.37,137.26L260.75,144.08L260.52,144.74L257.43,147.95L256.93,148.25L255.63,148.67L255.27,148.95L253.7,152.28L253.53,152.8L253.56,154.14L253.48,155.88L253.34,157.19L253.08,158.32L252.66,159.74L252.32,160.57L252.21,161.07L252.17,161.8L252.43,162.68L252.93,163.26L253.42,163.89L253.74,164.46L253.81,165.24L252.69,168.88L251.99,170.47L252.34,171.84L252.34,171.84L252.42,172.09L253.21,173.36L253.57,173.82L253.67,174.55L253.69,177.08L253.52,178.16L251.71,181.45L250.76,183.05L250.52,183.4L249.88,184.24L248.19,186.88L247.21,188.61L246.24,189.98L245.39,190.59L244.87,191.43L244.54,192.25L244.32,192.96L244.06,193.6L243.39,194.68L239.73,198.92L238.88,199.82L238.17,200.35L237.05,200.52L236.43,200.56L235.33,200.68L234.64,200.89L234.25,201.31L233.18,210.23L233.72,213.74L232.91,215.75L232.53,217.3L232.59,219.87L233.23,223.86L233.37,224.55L233.55,225.07L236.32,230.6L236.66,230.86L237.74,231.29L239.21,232.06L239.72,232.39L240.55,233.54z" 
                fill="rgb(151, 144, 238)" 
                stroke="white" 
                stroke-width=".7px"
                title="Santa Fe" 
                id="AR-S" 
            />
        </svg>