<svg xmlns="http://www.w3.org/2000/svg" viewBox="89.46 718.1600000000001 87.49000000000002 73.87999999999965" width="87.49000000000002" height="73.87999999999965">
            <path 
                d="M99.91,785.57l-0.61,-0.34l-0.3,-0.13l-0.64,-0.21l-1.69,-0.27l-1.15,0.33l-0.2,0.45l-0.23,0.1l-2.89,0.33l-0.41,0.02l-0.35,-0.09l-0.36,-0.17l-0.38,-0.38l-1.09,-1.49l0.07,-7.57l0.03,-5.93l-0.02,-0.64l0.05,-10.39l0.04,-4.84l0.05,-10.07l0.02,-5.21l-0.01,-1.87l0.06,-14.46l0.04,-4.31l0.02,-0.27l0.84,1.34l0.85,1.61l1.33,2.17l0.74,0.93l1.13,1.14l0.29,0.33l0.53,0.91l0.15,0.27l0.13,0.28l0.33,0.91l0.14,0.48l0.08,0.33l0.6,3.22l0.01,0.36l-0.29,-0.03l-0.24,-0.74l-0.09,-0.33l-0.1,-0.52l-0.14,-0.88l-0.12,-0.5l-0.24,-0.43l-0.4,-0.27l-0.25,-0.02l-0.74,0.29l-0.43,0.29l-2.75,3.39l-0.34,0.8l-0.09,0.64l0,0.42l0.08,0.33l0.1,0.33l0.25,0.59l0.33,0.5l0.19,0.23l0.31,0.31l0.72,0.53l0.5,0.34l0.48,0.14l0.73,0.11l0.98,0.03l0.48,-0.04l1.04,-0.41l0.46,-0.06l0.38,0.04l0.3,0.23l0.22,0.31l0.94,1.98l0.13,0.31l0.11,0.31l0.37,2.15l0.42,1.88l0.63,1.42l0.21,0.42l0.15,0.27l0.33,0.5l3.01,3.08l1.18,1.15l1.46,1.36l0.53,0.42l0.78,0.8l0.03,0.46l-0.09,0.34v0.42l0.04,0.38l0.13,0.5l0.11,0.32l0.18,0.25l3.7,3.39l1.67,1.3l4.95,3.55l2.25,1.3l0.47,0.16l1.57,0.97l0.73,0.56l0.24,0.19l0.33,0.32l2.1,3.11l0.36,0.39l4.14,3l1.44,0.91l3.52,1.71l4.35,2.02l1.84,0.44l0.37,0.05l0.22,-0.01l4.45,-0.74l1.77,-0.43l0.6,-0.06h1.12l0.3,0.02l1.09,0.28l0.34,0.32l-1.78,5.02l-1.46,2.77l-0.33,0.52l-0.25,0.29l-0.47,0.09l-0.36,-0.17l-0.09,-0.36l-1.52,-0.35l-2.12,0.92l-1.88,-0.19l-0.14,-0.3l-0.24,-0.31l-0.19,-0.13l-0.55,-0.2l-2,-0.14l-0.19,0.03l-0.86,0.2l-0.29,0.62l-0.56,0.66l-0.49,0.48l-1.71,0.8l-0.35,0.1l-1.14,0.17l-1.35,-0.14l-1.43,-0.05h-0.22l-0.43,0.12l-0.17,0.15l-1.11,1.91h-0.22l-1.7,-0.22l-0.52,-0.12l-0.94,-0.35l-0.37,-0.17l-0.4,-0.36l-0.2,-0.24l-0.16,-0.28l-0.27,-0.38l-0.33,-0.32l-0.36,-0.3l-0.9,-0.61l-0.46,-0.18l-3.44,-0.98l-0.19,-0.04l-2.45,-0.29l-6.02,-0.66l-2.09,0.16l-0.37,0.07l-0.58,0.07l-0.41,0.02l-0.63,-0.02l-2.03,-0.3l-3.15,-0.51l-0.52,-0.12l-0.6,-0.26L99.91,785.57zM161.28,787.45l0.16,-1.2l-0.61,-0.68l-0.44,-0.09l-0.42,-0.05l-0.09,-0.35l0.27,-0.78l0.87,-0.93l0.45,-0.06l0.35,0.18l0.45,0.41l0.27,0.16l0.2,0.02l1.49,-0.5l2.49,-1.11l0.74,-0.63l3.06,0.47l2.63,-0.33l1.87,-0.57l0.22,-0.02l1.55,0.21l0.16,0.26l-0.99,1.74l-1.56,0.87L174,783.8l-0.64,-0.38l-0.52,0.36l-1.73,0.91l-2.21,0.69l-0.19,-0.41l0.05,-0.68l-1.11,-0.55l-0.41,0.45l-1.33,1.15l-0.54,0.23l-0.2,0.04l-0.39,-0.03l-1.67,0.65l-1.13,1.06L161.28,787.45zM89.59,784.23l0.27,0.34l0.18,0.32l0.47,1.1l0.13,0.13l0.21,0.13l0.15,0.18l-0.03,0.19l-0.17,0.1l-0.2,0.04l-0.27,0.13l-0.2,0.06h-0.26l-0.2,-0.03l-0.21,-0.07l0.11,-0.11L89.59,784.23z" 
                fill="rgb(151, 144, 238)" 
                stroke="white" 
                stroke-width=".7px"
                title="Tierra del Fuego" 
                id="AR-V" 
            />
        </svg>