<svg xmlns="http://www.w3.org/2000/svg" viewBox="133.39 84.62 31.460000000000008 40" width="31.460000000000008" height="40">
            <path 
                d="M152.39,121.75L151.95,121.98L151.53,122.07L151.11,121.98L150.76,121.81L150.21,121.4L149.63,120.85L149.26,120.72L148.04,121.5L147.4,121.96L146.31,122.95L145.93,123.48L145.65,124.11L145.21,124.62L143.71,123L143.43,122.52L143.13,121.65L143.04,121.16L142.98,120.61L142.78,119.96L141.58,119.23L140.86,119.6L140.33,119.51L138.65,116.65L138.08,114.4L137.6,111.98L136.66,111.07L135.57,110.33L134.8,110.23L133.92,109.88L134.76,107.9L136.71,105.26L137.07,104.81L138.18,103.66L138.72,103.2L139.25,102.45L139.51,101.98L139.71,101.41L140.05,98.06L139.95,97.58L139.73,97.27L136.92,95.13L136.21,94.79L135.78,94.67L134.85,94.54L133.89,94.44L133.45,94.17L133.39,91.15L133.61,90.56L134.43,88.71L134.57,87.76L134.57,87.76L136.48,88.27L137.52,88.49L142.4,89.21L142.77,88.73L143.06,86.42L143.02,85.6L143.09,85L143.43,84.64L145.42,85.14L147.45,85.58L147.87,85.51L148.33,85.23L148.93,84.82L149.33,84.62L149.81,84.72L150.18,85.36L150.52,86.5L154.42,88.08L156.13,88.59L156.57,88.69L157.16,88.55L157.64,88.27L158.06,87.83L158.52,87.55L158.96,87.41L159.67,87.39L160.26,87.55L160.86,87.66L164.6,87.62L164.75,87.57L164.75,87.57L164.85,88.69L164.85,89.18L164.75,89.71L164.47,90.56L164.17,91.4L164.05,91.89L164.11,92.56L164.36,94.07L164.55,95.38L164.58,95.95L164.58,96.74L164.23,96.86L162.93,96.77L162.16,99.19L161.48,99.23L160.66,101.9L159.81,103.71L158.81,106.99L158.39,108.05L157.49,109.82L157.06,109.9L156.56,110.06L154.56,112.34L154.32,112.82L154.18,115.58L154.26,116.26L154.5,116.81L154.87,117.58L155.41,119.1L154.15,121.3L153.69,121.57z" 
                fill="rgb(151, 144, 238)" 
                stroke="white" 
                stroke-width=".7px"
                title="Tucumán" 
                id="AR-T" 
            />
        </svg>