<svg xmlns="http://www.w3.org/2000/svg" viewBox="455.4800000000002 248.48 343.54 461.3100000000004" width="343.54" height="461.3100000000004">
            <path 
                d="m 661.65,282.18 -2.03,-0.16 -1.61,-0.46 -3.52,-1.95 -17.4,-12.35 -0.12,-0.07 -2.76,-2.11 -1.86,-1.84 -4.93,-6.16 -3.69,-3.63 -1.71,-0.8 -2.42,-0.64 -27.05,-3.53 -1.97,0.27 -1.92,0.59 -2.54,1.12 -1.53,0.94 -1.18,1.01 -0.83,1 -2.85,4.47 -1.04,2.6 -0.7,2.97 -0.35,5.3 -0.19,1.33 -0.44,1.36 -0.6,1.23 -1.51,2.16 -1.84,1.84 -7.79,5.2 -2.47,1.23 -19.33,6.82 -2.36,1.28 -0.87,0.99 -0.68,1.15 -4.88,15.05 -2.81,6.37 -0.68,1.09 -1.64,2.02 -2.27,1.93 -6.1,4 -1.26,1.09 -0.77,1.02 -0.49,1.14 1.14,11.39 -0.16,6.68 0.24,1.41 0.48,1.25 1.42,2.3 0.63,1.3 0.33,1.41 0.02,1.57 -0.57,2.99 -2.68,8.19 -0.6,2.84 0.16,1.41 0.52,1.25 1.53,2.08 0.55,1.22 0.27,1.18 0,1.28 -0.11,0.83 -3.42,10.52 -1.53,3.07 -1.52,2.06 -1.41,0.92 -1.47,0.32 -1.15,-0.5 -1,-0.78 -0.9,-0.92 -1.03,-0.72 -1.23,-0.47 -1.34,-0.12 -1.37,-0.33 -1.15,-0.62 -1.95,-1.71 -1.11,-0.67 -1.29,-0.4 -1.49,0.08 -13.28,3.35 -1.64,0.08 -1.41,-0.11 -1.45,-0.32 -4.01,-1.38 -1.77,-0.25 -2.08,0.04 -3.05,0.46 -1.78,0.66 -1.46,0.75 -4.29,3.09 -5.77,5.3 2.78,11.24 2.02,3.67 2.33,2 3.83,4.51 0.9,2.06 0.36,1.79 -0.39,4.47 0.25,4.22 0.67,2.16 0.81,1.64 5.66,5.34 1.14,0.69 4.58,4.42 11.27,14.68 18.04,18.01 1.75,2.61 0.82,1.77 -0.08,1.29 -0.17,0.98 0.02,1.26 0.23,1.42 0.37,1.46 6.47,18.02 1.02,5.4 0.2,10.14 0.94,7.17 0.1,2.96 -0.31,2.94 -1.45,5.68 -1.1,2.54 -0.71,1.1 -0.84,1 -0.97,0.85 -2.12,1.4 -3.16,3.6 -0.92,0.89 -17.09,12.4 -0.71,1.07 -0.55,1.3 -2.68,12.29 -0.15,6.57 0.28,2.2 0.48,1.39 0.73,-0.17 0.76,-0.77 3.89,-5.16 0.82,-0.79 0.79,-0.43 0.6,0.56 4.45,11.44 0.31,1.9 -0.26,1.59 -0.54,1.18 -0.48,1.36 -1.01,6.2 -1.02,2.61 -1.39,2.21 -0.96,0.89 -1.15,0.71 -1.31,0.25 -1.22,-0.29 -0.78,-0.96 -1.05,-2.65 -0.64,-1.16 -0.78,-0.77 -0.97,-0.05 -1,0.49 -8.55,6.12 -7.35,4.29 0.13,0.61 0.85,0.56 2.7,1.08 1.38,3.46 1.44,6.16 1.12,14.43 1.04,5.8 1.26,3.28 1.29,0.47 1.23,0.61 1.34,0.37 1.47,0 1.32,-0.45 1.19,-0.67 1.05,-0.78 5.86,-5.34 8.34,-9.94 2.1,-1.5 2.49,-1.23 1.48,-0.22 1.53,0.08 1.43,0.35 1.21,0.6 1.08,0.75 0.95,0.9 3.95,5.38 -0.46,0.84 -6.11,6.44 -0.54,2.04 -0.28,2.85 0.92,11.96 -0.16,1.67 0.01,5.65 0.68,6.27 -0.27,5.96 0.51,1.21 1.04,0.76 2.88,0.74 3.2,0.4 3.5,0.11 3.18,0.4 6.92,1.99 9,3.75 6.89,4.01 19.31,7.7 0.14,0.05 4.73,-6.09 39.29,-31.2 10.81,-6.1 10.07,-2.33 3.52,-1.52 2.94,-2.32 2.8,-3.42 35.32,-43.2 10.05,-8.58 12.49,-6.8 1.93,-0.66 6.07,-0.94 -0.66,-64.6 0.39,-3.13 1.08,-2.5 2.38,-1.97 6.7,-3.73 2.82,-2.68 6.14,-11.46 3.9,-4.87 6.22,-3.09 5.29,-0.81 21.35,-0.11 5.43,-0.76 5.2,-1.63 5.13,-2.98 6.51,-6.35 0.74,-4.96 -2.08,-5.32 -1.93,-7.54 0.53,-6.03 4.67,-10.18 8.14,-32.8 0.17,-13.83 -3.03,0.42 -2.26,-0.75 -2.12,-1.2 -7.23,-2.19 -1.78,-0.14 -8.06,1.15 -3.98,1.52 -3.34,2.16 -3.09,2.9 -2.57,3.64 -6.4,13.1 -3.24,4.14 -15.63,15.34 -9.29,6.14 -4.84,1.94 -2.81,-0.62 -7.58,-4.91 -3.92,-1.67 -8.75,-0.47 -7.51,2.46 -5.23,5.6 -1.93,8.97 -5.32,-4.73 2.72,-8.71 6.09,-9.02 4.82,-5.7 3.89,-6.48 3.82,-23.12 2.86,-0.37 0.74,-2.11 -0.03,-3.18 0.62,-3.55 1.84,-3.24 4.08,-3.88 4.22,-7.8 4.2,-5.67 5.09,-4.27 5.36,-1.06 6.1,-0.49 4.98,-3.48 3.61,-5.21 2.07,-5.74 -11.35,-15.28 -1.45,-2.58 -4,-2.91 -10.84,-14.47 -0.74,-0.68 -1.9,-1.24 -0.91,-1.11 -0.13,-0.97 0.28,-2.84 -0.07,-1.19 -2.4,-7.57 -0.44,-2.68 -0.47,-19.51 1.26,-9.3 4.07,-15.87 -0.11,-0.69 -0.11,-0.01 -10.18,-0.32 -4.62,1.04 -15.96,10.33 -0.1,0.13 -0.08,0.29 -0.14,0.71 0.33,0.85 0.74,0.85 1.09,0.75 4.87,2.59 0.73,1.17 0.06,1.51 -1.64,2.8 -1.6,1.16 -1.79,0.71 -3.42,0.23 -3.28,-0.23 -6.01,-1.21 -1.6,-0.05 -1.71,0.22 -7.83,2.22 -3.09,0.31 z" 
                fill="rgb(151, 144, 238)" 
                stroke="white" 
                stroke-width=".7px"
                title="Eastern" 
                id="SL-E" 
            />
        </svg>