<svg xmlns="http://www.w3.org/2000/svg" viewBox="4.085620730620576e-14 0 716.99 469.30000000000024" width="716.99" height="469.30000000000024">
            <path 
                d="m 536.88,0 -46.72,0.26 -9.45,0.05 -27.17,0.15 -85.38,0.48 -1.28,16.4 -1.81,2.49 -49.77,10.89 -8.34,1.83 -4.5,-0.2 -4.37,-0.96 -4.98,-1.85 -6.28,-3.89 -4.82,-4.35 -4.76,-3.14 -6.13,-0.22 -39.77,8.5 -12,4.39 -9.53,5.61 -1.58,2.44 -0.18,1.67 0.34,1.81 0.02,2.83 -3.61,19.93 0.17,0.8 0.99,3.01 0.11,1.33 -0.82,0.65 -1.36,-0.21 -1.32,0.01 -0.52,1.31 0.05,3.28 -0.34,1.02 -0.86,0.16 -8.22,5.04 -2.43,2.47 -4.32,7.65 -0.79,0.84 -0.32,11.37 -1.08,2.33 -2.12,0.16 -2.58,-0.32 -2.45,0.92 -1.24,2.27 -2.31,8.8 -0.7,1.21 -0.57,0.72 -0.85,0.45 -1.5,0.46 -2.03,0.99 -0.17,1.11 0.52,1.21 -0.06,1.34 -9.02,29.11 -1.22,1.69 -1.83,1.55 -0.88,1 -0.69,1.63 -1.03,1.68 -1.3,-0.28 -1.35,-0.9 -1.13,-0.2 -4.46,2.53 -1.5,1.33 -2.13,2.82 0.06,2.13 1.06,2.43 -0.16,2.06 -3.64,1.02 -4.59,2.35 -6.32,10.54 -4.42,3.71 -5.57,0.93 -5.09,-0.36 -5.17,0.36 -5.79,3.08 -5.16,-5.38 -5.53,3.93 -4.19,8.27 -1.22,7.7 1.17,2.7 3.63,4.48 0.28,2.21 -0.96,0.31 -4.15,0.4 -1.51,0.77 -2.55,3.65 -2.18,3.91 -3.5,8.41 -3.6,4.49 -4.8,3.07 -10.21,4.98 -8.03,5.9 -4.01,0.67 -6.03,-2.11 -10.04,-6.34 -4.17,-1 -6.91,1.25 -11.58,3.61 -6.27,4.58 0,1.66 4.25,4.89 -0.91,12.75 5.69,4.66 0.64,-1.56 0.59,-0.9 0.48,-1.08 1.49,-0.29 3.88,3.83 0.06,-2.06 0.28,-0.43 0.59,-0.14 1.03,-1.2 1.87,6.39 5.19,3.79 6.66,1.43 6.16,-0.64 11.27,-4.07 5.98,-1.08 4.61,1.48 0,2.01 -6,0.31 -6.58,1.2 -5.3,2.48 -2.62,5.26 -0.88,0.47 -0.68,0.82 0.2,2.1 1,0.31 1.91,-0.04 1.84,0.54 0.84,2.01 1.65,2.64 3.84,0.45 4.23,-0.81 2.93,-1.28 3.18,1.46 4.91,0.96 4.53,-0.02 2,-1.48 1.74,-0.79 10.92,3.37 -15.18,-0.33 -7.62,0.76 -5.38,2.38 -4.22,0.69 -20.34,0.15 -2.17,-1.69 -0.89,-1.75 -1.16,-0.93 -3,0.72 -7.4,8.38 1.32,28.37 -1.32,0.14 -0.48,8.24 0.22,4.4 1.23,2.91 2.48,3.12 2.72,4.58 2.13,4.88 1.68,7.86 1.97,4.23 7.02,11.76 1.62,2.03 2.15,0.82 2.7,-0.76 1.28,-1.89 0.01,-2.39 -1.11,-2.25 5.63,-4.75 3.88,-5.74 -0.41,-5.98 -7.29,-5.47 3.62,-1.82 -4.3,-1.47 -4.01,-1.87 -2.19,-2.93 1.29,-4.55 0.97,2.91 1.48,1.8 2.07,0.31 2.72,-1.52 4.81,6.42 3.75,3.22 4.25,1.33 3,-1.35 1.87,-3.2 2.51,-8.25 1.65,0 0.84,1.8 0.94,1 1.45,0.48 2.36,0.38 0,1.83 -4.67,2.91 -2.67,3.86 -3.13,3.24 -5.96,1.11 2.73,3.66 4.4,1.56 4.74,-0.4 6.85,-4.14 3.49,0 3.97,0.76 4.71,0.24 9.43,-2.83 5.17,-5.52 4.25,-7.29 6.61,-8.13 -9.54,20.98 -5.09,6.43 0.22,-0.16 0.59,3.01 4.97,0.45 5.63,-0.69 4.86,1.05 -2.46,1.15 -5.3,3.72 -2.17,0.78 -2.94,-0.32 -4.98,-1.37 -17.51,-1.26 -2.59,-0.71 -1.61,2.3 -1.33,2.66 -0.77,2.94 0.1,3.08 -3.5,-1.62 -2.11,1.52 -1.62,2.91 -1.98,2.67 -3.39,1.89 -7.95,3.08 -3.12,2.32 -2.5,6.4 3.87,4.08 7.3,2.52 7.76,1.8 0,1.82 -3.61,0 1.02,3.13 2.01,2.14 2.78,1.32 3.23,0.72 0,1.83 -2.35,0.35 -0.01,0 0.88,0.45 4.44,0.46 2.81,1.89 1.73,1.57 16.48,3.23 3.95,1.2 2.48,1.33 0.56,1.2 0.18,1.55 -0.33,4.91 0.86,3.73 3.54,5.46 4.43,-5.17 3.03,-2.53 4.44,-4.69 2.93,-4.38 1.63,-2.02 1.4,-2.24 1.18,-2.5 0.69,-1.13 0.84,-0.93 1.75,-0.7 2.49,-0.28 4.93,0.58 2.49,0.69 1.72,0.89 0.89,0.97 0.75,1.13 0.55,1.24 0.67,1.19 0.89,0.94 1.47,0.36 1.89,-0.25 5.46,-2.73 2.37,-0.47 15.81,-0.23 1.56,0.25 1.31,0.53 1.07,0.72 0.76,1.08 0.63,1.23 1.4,1.06 2.32,0.61 4.86,-0.07 4.66,0.59 2.55,1.08 1.09,0.78 0.85,0.96 0.26,1.5 0.09,3.18 0.3,1.48 0.47,1.36 0.74,1.14 0.9,0.91 1.85,0.51 20.17,1.12 1.18,0.61 1.04,0.8 0.71,1.13 0.57,1.28 0.99,0.85 1.46,0.22 2.56,-1.32 1.34,-1.29 0.86,-1.49 1.66,-3.83 0.82,-1 0.91,-0.88 1.15,-0.71 8.07,-3.49 2.42,-1.58 1.58,-1.24 1.92,-1.91 1.81,-0.69 2.54,-0.47 7.53,-0.19 2.05,0.35 1.24,0.57 1.17,0.68 1.64,0.23 2.24,-0.31 7.55,-3.29 1.81,-0.49 2.29,-0.29 3.86,0.04 5.31,0.76 1.86,0.68 16.18,9.14 13.03,5.14 1.06,0.76 0.78,1.06 1.53,4.1 0.63,1.21 1.58,2.1 0.97,0.87 1.09,0.75 1.36,0.41 1.51,0.17 2.65,0.59 1.01,-0.02 1.02,-1.5 0.54,-2.91 0.03,-1.37 -0.27,-1.37 -0.96,-2.64 -0.68,-1.05 -1.13,-0.52 -1.06,-0.7 -0.8,-0.99 -2.54,-4.89 -0.42,-1.29 -0.07,-1.37 0.3,-1.37 0.6,-1.17 4.73,-6.32 0.71,-0.75 1.4,0.07 1.75,-0.08 2.43,-0.97 4.23,-0.19 3.35,0.8 1.59,-0.03 1.86,-0.55 2.73,-1.45 1.89,-0.5 1.85,0.57 4.72,2.93 10.04,2.63 6.66,0.49 7.04,-0.47 4.84,-1.38 12.39,-5.38 1.76,-1.17 6.16,-5.79 1.81,-2.34 1.13,-2.05 1.29,-5.97 0.51,-6.65 0.26,-1.56 0.6,-1.22 0.82,-1 1.53,-1.02 5.77,-2.66 2.97,-0.74 3.13,-0.45 14.99,0.81 3.94,-0.75 5.95,-3.97 5.77,-5.3 4.29,-3.09 1.46,-0.75 1.78,-0.66 3.05,-0.46 2.08,-0.04 1.77,0.25 4.01,1.38 1.45,0.32 1.41,0.11 1.64,-0.08 13.28,-3.35 1.49,-0.08 1.29,0.4 1.11,0.67 1.95,1.71 1.15,0.62 1.37,0.33 1.34,0.12 1.23,0.47 1.03,0.72 0.9,0.92 1,0.78 1.15,0.5 1.47,-0.32 1.41,-0.92 1.52,-2.06 1.53,-3.07 3.42,-10.52 0.11,-0.83 0,-1.28 -0.27,-1.18 -0.55,-1.22 -1.53,-2.08 -0.52,-1.25 -0.16,-1.41 0.6,-2.84 2.68,-8.19 0.57,-2.99 -0.02,-1.57 -0.33,-1.41 -0.63,-1.3 -1.42,-2.3 -0.48,-1.25 -0.24,-1.41 0.16,-6.68 -1.14,-11.39 0.49,-1.14 0.77,-1.02 1.26,-1.09 6.1,-4 2.27,-1.93 1.64,-2.02 0.68,-1.09 2.81,-6.37 4.88,-15.05 0.68,-1.15 0.87,-0.99 2.36,-1.28 19.33,-6.82 2.47,-1.23 7.79,-5.2 1.84,-1.84 1.51,-2.16 0.6,-1.23 0.44,-1.36 0.19,-1.33 0.35,-5.3 0.7,-2.97 1.04,-2.6 2.85,-4.47 0.83,-1 1.18,-1.01 1.53,-0.94 2.54,-1.12 1.92,-0.59 1.97,-0.27 27.05,3.53 2.42,0.64 1.71,0.8 3.69,3.63 4.93,6.16 1.86,1.84 2.76,2.11 0.12,0.07 17.4,12.35 3.52,1.95 1.61,0.46 2.03,0.16 3.09,-0.31 7.83,-2.22 1.71,-0.22 1.6,0.05 6.01,1.21 3.28,0.23 3.42,-0.23 1.79,-0.71 1.6,-1.16 1.64,-2.8 -0.06,-1.51 -0.73,-1.17 -4.87,-2.59 -1.09,-0.75 -0.74,-0.85 -0.33,-0.85 0.14,-0.71 0.08,-0.29 0.1,-0.13 15.96,-10.33 4.62,-1.04 10.18,0.32 0.11,0.01 -0.24,-1.6 -0.27,-1.74 -3.15,-2.59 -6.18,-1.76 -10.52,-1.1 -10.94,0.39 -9.5,-2.9 -1.89,-9.73 2.88,-11.58 4.72,-8.37 2.59,-1.83 2.97,-1.33 2.8,-1.76 2.11,-3.12 0.34,-2.48 -1.07,-4.55 -0.03,-2.3 1.22,-3.36 1.53,-2.97 1.02,-2.97 -0.35,-3.35 -11.28,-9.89 -2.76,-1.3 -3.53,-2.38 -3.16,-2.82 -3.18,-4.74 -2.46,-0.56 -2.81,0.02 -2.6,-0.34 -1.71,0.33 -4.68,-0.21 -3.28,-1.09 2.54,-2.35 2.83,-1.98 -0.52,-1.51 -4.14,-2.7 -3.94,-4.37 -2.89,-4.03 -1.12,-4.76 1.44,-6.67 0.28,-3.82 -2.01,-1.73 -2.75,-1.3 -1.88,-2.49 -1.36,-7.38 -0.93,-2.21 -2.57,-2.66 -6.78,-4.72 -1.96,-2.63 -1.78,-7.04 -1.15,-2.09 -1.72,-1.38 -4.31,-1.6 -1.47,-0.93 -1.62,-2.56 -3.1,-9.12 -6.3,-12.08 L 597.16,56.12 586.3,45.63 566.63,33.12 564.67,29.97 561.07,12.26 559.15,6.29 556.22,3.72 552.55,3.4 543.59,0.7 536.88,0 Z" 
                fill="rgb(151, 144, 238)" 
                stroke="white" 
                stroke-width=".7px"
                title="Northern" 
                id="SL-N" 
            />
        </svg>