<svg xmlns="http://www.w3.org/2000/svg" viewBox="83.46999999999964 399.0299999999997 487.41000000000025 424.3300000000003" width="487.41000000000025" height="424.3300000000003">
            <path 
                d="m 186.66,638.37 3.9,-4.63 -5.18,-2.16 -5.49,-0.41 -15.81,1.34 -9.99,2.61 -4.44,0.63 -28.88,0.01 -10.19,1.63 -3.91,1.51 -3.24,3.38 -1.06,3.65 -9.88,2.4 0,1.98 27.1,7.3 22.46,3.39 8.63,4.46 24.13,6.4 3.85,0.34 5.43,1.97 5.29,5.01 4.64,6.54 3.6,6.68 -5.4,0 2.4,3.92 4.26,1.61 4.59,-0.76 3.36,-3.1 0.2,-3.33 -2.27,-8.84 0.27,-4.23 2.35,-4.33 2.36,-2.69 1.81,-2.82 0.71,-4.75 -1.65,-7.84 0.26,-3.06 3.01,-1.87 -2.79,-3.89 -3.13,-3.28 -3.78,-2.39 -4.73,-1.37 -10.2,0.36 -2.59,-1.37 z m 296.35,184.99 8.39,-3.87 2.05,-1.22 -0.56,-6.76 1.11,-4.52 7.25,-4.14 2.53,-4.39 1.64,-5.05 0.59,-3.99 -0.96,-5.37 0.85,-1.78 5.77,-0.65 1.97,-0.71 1.41,-1.45 0.53,-2.33 -0.87,-3.35 -3.75,-6.15 -0.7,-2.78 0.82,-1.01 4.79,-4.44 9.22,-14.49 4.5,-0.93 21.79,-9.87 2.28,-2.17 17.22,-22.15 -0.14,-0.05 -19.31,-7.7 -6.89,-4.01 -9,-3.75 -6.92,-1.99 -3.18,-0.4 -3.5,-0.11 -3.2,-0.4 -2.88,-0.74 -1.04,-0.76 -0.51,-1.21 0.27,-5.96 -0.68,-6.27 -0.01,-5.65 0.16,-1.67 -0.92,-11.96 0.28,-2.85 0.54,-2.04 6.11,-6.44 0.46,-0.84 -3.95,-5.38 -0.95,-0.9 -1.08,-0.75 -1.21,-0.6 -1.43,-0.35 -1.53,-0.08 -1.48,0.22 -2.49,1.23 -2.1,1.5 -8.34,9.94 -5.86,5.34 -1.05,0.78 -1.19,0.67 -1.32,0.45 -1.47,0 -1.34,-0.37 -1.23,-0.61 -1.29,-0.47 -1.26,-3.28 -1.04,-5.8 -1.12,-14.43 -1.44,-6.16 -1.38,-3.46 -2.7,-1.08 -0.85,-0.56 -0.13,-0.61 7.35,-4.29 8.55,-6.12 1,-0.49 0.97,0.05 0.78,0.77 0.64,1.16 1.05,2.65 0.78,0.96 1.22,0.29 1.31,-0.25 1.15,-0.71 0.96,-0.89 1.39,-2.21 1.02,-2.61 1.01,-6.2 0.48,-1.36 0.54,-1.18 0.26,-1.59 -0.31,-1.9 -4.45,-11.44 -0.6,-0.56 -0.79,0.43 -0.82,0.79 -3.89,5.16 -0.76,0.77 -0.73,0.17 -0.48,-1.39 -0.28,-2.2 0.15,-6.57 2.68,-12.29 0.55,-1.3 0.71,-1.07 17.09,-12.4 0.92,-0.89 3.16,-3.6 2.12,-1.4 0.97,-0.85 0.84,-1 0.71,-1.1 1.1,-2.54 1.45,-5.68 0.31,-2.94 -0.1,-2.96 -0.94,-7.17 -0.2,-10.14 -1.02,-5.4 -6.47,-18.02 -0.37,-1.46 -0.23,-1.42 -0.02,-1.26 0.17,-0.98 0.08,-1.29 -0.82,-1.77 -1.75,-2.61 -18.04,-18.01 -11.27,-14.68 -4.58,-4.42 -1.14,-0.69 -5.66,-5.34 -0.81,-1.64 -0.67,-2.16 -0.25,-4.22 0.39,-4.47 -0.36,-1.79 -0.9,-2.06 -3.83,-4.51 -2.33,-2 -2.02,-3.67 -2.78,-11.24 -5.95,3.97 -3.94,0.75 -14.99,-0.81 -3.13,0.45 -2.97,0.74 -5.77,2.66 -1.53,1.02 -0.82,1 -0.6,1.22 -0.26,1.56 -0.51,6.65 -1.29,5.97 -1.13,2.05 -1.81,2.34 -6.16,5.79 -1.76,1.17 -12.39,5.38 -4.84,1.38 -7.04,0.47 -6.66,-0.49 -10.04,-2.63 -4.72,-2.93 -1.85,-0.57 -1.89,0.5 -2.73,1.45 -1.86,0.55 -1.59,0.03 -3.35,-0.8 -4.23,0.19 -2.43,0.97 -1.75,0.08 -1.4,-0.07 -0.71,0.75 -4.73,6.32 -0.6,1.17 -0.3,1.37 0.07,1.37 0.42,1.29 2.54,4.89 0.8,0.99 1.06,0.7 1.13,0.52 0.68,1.05 0.96,2.64 0.27,1.37 -0.03,1.37 -0.54,2.91 -1.02,1.5 -1.01,0.02 -2.65,-0.59 -1.51,-0.17 -1.36,-0.41 -1.09,-0.75 -0.97,-0.87 -1.58,-2.1 -0.63,-1.21 -1.53,-4.1 -0.78,-1.06 -1.06,-0.76 -13.03,-5.14 -16.18,-9.14 -1.86,-0.68 -5.31,-0.76 -3.86,-0.04 -2.29,0.29 -1.81,0.49 -7.55,3.29 -2.24,0.31 -1.64,-0.23 -1.17,-0.68 -1.24,-0.57 -2.05,-0.35 -7.53,0.19 -2.54,0.47 -1.81,0.69 -1.92,1.91 -1.58,1.24 -2.42,1.58 -8.07,3.49 -1.15,0.71 -0.91,0.88 -0.82,1 -1.66,3.83 -0.86,1.49 -1.34,1.29 -2.56,1.32 -1.46,-0.22 -0.99,-0.85 -0.57,-1.28 -0.71,-1.13 -1.04,-0.8 -1.18,-0.61 -20.17,-1.12 -1.85,-0.51 -0.9,-0.91 -0.74,-1.14 -0.47,-1.36 -0.3,-1.48 -0.09,-3.18 -0.26,-1.5 -0.85,-0.96 -1.09,-0.78 -2.55,-1.08 -4.66,-0.59 -4.86,0.07 -2.32,-0.61 -1.4,-1.06 -0.63,-1.23 -0.76,-1.08 -1.07,-0.72 -1.31,-0.53 -1.56,-0.25 -15.81,0.23 -2.37,0.47 -5.46,2.73 -1.89,0.25 -1.47,-0.36 -0.89,-0.94 -0.67,-1.19 -0.55,-1.24 -0.75,-1.13 -0.89,-0.97 -1.72,-0.89 -2.49,-0.69 -4.93,-0.58 -2.49,0.28 -1.75,0.7 -0.84,0.93 -0.69,1.13 -1.18,2.5 -1.4,2.24 -1.63,2.02 -2.93,4.38 -4.44,4.69 -3.03,2.53 -4.43,5.17 -3.62,2.82 -2.97,1.2 -12.97,3.11 -0.43,0.33 -0.06,0.04 -0.67,1.2 -1.12,3.26 -0.56,3.51 -0.16,3.84 1.23,4.31 3,2.25 3.58,1.5 3.02,2.06 4.07,6.72 2.1,5.19 3.55,3.35 8.52,1.18 -2.76,2.85 -2.35,3.41 -1.66,3.72 -0.62,3.79 -1.66,3.53 -0.45,2.04 1.21,0.9 0.51,0.86 4.46,13.04 5.71,5.29 6.72,4.68 5.34,5.49 -8.79,-3.78 -4.37,-1.32 -4.15,-0.54 -4.98,1.17 -8.98,5.09 -5.2,1.04 5.62,6.64 3.5,3.05 2.88,1.25 4.01,1.22 2.46,2.91 3.55,6.98 12.48,8.12 13.45,-5.53 4.79,-0.76 -4.67,2.25 -2.66,2.36 -0.8,3.26 0.89,4.89 2.41,4.88 3.26,2.47 3.85,1.76 10.53,7.48 2.69,1.04 1.71,0.26 1.7,0.04 16.99,3.25 2.05,-0.12 3.85,3.06 8.58,-3.14 13.19,-8.21 7.81,-12.19 4.76,-4.21 5.34,3.63 -3.69,0.94 -1.55,2.83 0.22,3.69 1.57,3.49 -1.65,1.82 -1.43,-1.33 -4.33,-2.32 -10.16,14.12 -3.32,8.95 6.43,6.27 0,-3.79 1.81,0 1.54,1.52 1.75,-0.14 1.94,-1.24 2,-1.81 0.26,2.63 -0.19,2.05 -0.74,1.56 -1.32,1.23 0,1.64 4.42,3.8 1.39,5.62 1.94,5.11 6,2.22 2.9,0.27 5.31,1.2 1.72,0.18 3.23,-0.8 5.64,-2.34 5.76,-1.11 5.44,-2.61 2.61,-0.6 5.08,-0.15 3.12,-1.5 4.66,-1.27 1.72,-1.14 0.69,-2.31 1.03,-1.57 2.52,-0.42 3.02,-0.09 2.62,-0.5 0.42,1.07 1.55,2.42 1.77,-1.03 1.87,-0.29 1.78,-0.1 1.65,-0.41 1.97,0 -1.13,5.25 -3.62,1.89 -4.88,0.68 -4.82,1.45 0.5,0.94 0.6,1.97 0.54,0.92 -7.05,0.34 -5.08,2.4 -4.5,2.75 -5.22,1.46 -1.2,-0.5 -3.21,-2.41 -1.93,-0.57 -1.77,0.25 -3.2,1.12 -1.36,0.31 -6.66,-0.05 -3.07,0.46 -2.9,1.39 -4.75,-1.59 -3.49,2.87 -2.77,4.1 -4.98,4.36 -3.4,5.02 -2.33,5.01 0.84,2.28 2.2,1.02 2.17,1.93 2.25,1.17 4.69,-2.53 2.81,0.25 4.95,1.96 2.13,1.63 2.15,3.25 2.05,0.58 2.62,0.36 1.99,1.07 1.27,1.7 0.43,2.35 -8.66,-3.94 -9.91,-3.18 -9.68,0.37 -8.04,6.75 50.74,16.23 63.83,25.46 61.97,22.57 37.43,21.86 14.02,11.81 3.7,3.87 2.4,5.99 1.66,0 2.15,-1.5 3.23,-0.51 7.42,0.19 -1,1.68 -0.79,0.99 -1.24,0.58 -2.39,0.39 3.99,3.51 5.02,3.53 5.3,2.78 10.89,2.5 4.39,3.55 z" 
                fill="rgb(151, 144, 238)" 
                stroke="white" 
                stroke-width=".7px"
                title="Southern" 
                id="SL-S" 
            />
        </svg>