<svg xmlns="http://www.w3.org/2000/svg" viewBox="3.7899999999999983 401.13000000000005 102.24000000000002 87.99000000000001" width="102.24000000000002" height="87.99000000000001">
            <path 
                d="m 68.45,434.53 -4.74,0.72 -6.7,-4.75 -6.44,-6.09 -9.1,-4.82 -5.42,-9.03 -3.36,-3.79 -4.08,-2.31 -4.71,-1.5 -4.8,-0.09 -4.48,1.92 -1.19,-2.29 -0.62,-0.65 -1.81,1.11 -1.58,-0.97 -5.63,-0.86 1.07,2.48 3.45,5.04 0.72,2.52 -0.42,3.43 -1.16,2.14 -3.66,4.65 3.33,0.97 1.62,2.52 1.16,2.62 1.92,1.19 6.72,8.93 1.35,2.85 0.55,2.02 1.25,0.52 1.23,0.16 0.59,0.96 0.52,0.12 9.17,14.79 3.1,2.52 -1.29,3.03 0.14,3.29 1.15,5.64 0.58,11.36 -0.58,4.24 1.65,0 3.96,-4.94 6.57,-5.09 7.27,-4.22 6.02,-2.34 11.68,-1.83 2.17,0.13 1.26,0.2 1.13,0.06 1.83,-0.39 1.95,-0.98 1.37,-1.18 1.53,-1.03 2.39,-0.47 -1.1,1.97 0.06,-0.04 0.43,-0.33 12.97,-3.11 2.97,-1.2 3.62,-2.82 -3.54,-5.46 -0.86,-3.73 0.33,-4.91 -0.18,-1.55 -0.56,-1.2 -2.48,-1.33 -3.95,-1.2 -16.48,-3.23 -1.73,-1.57 -2.81,-1.89 -4.44,-0.46 -0.88,-0.45 z" 
                fill="rgb(151, 144, 238)" 
                stroke="white" 
                stroke-width=".7px"
                title="Western" 
                id="SL-W" 
            />
        </svg>