<svg xmlns="http://www.w3.org/2000/svg" viewBox="171.48570999999987 152.69789 54.860000000000156 30.22999999999999" width="54.860000000000156" height="30.22999999999999">
            <path 
                d="m 202.09571,179.05789 -0.64,0.18 -0.57,-0.17 -1.69,-0.97 0.32,-0.77 1.15,-0.51 1.7,0.73 0.13,0.29 -0.4,1.22 z m 16.28,-8.41 4.36,1.21 3.09,2.51 0.52,1.76 -1.52,2.63 -0.13,1.93 -1.62,0.74 -0.46,1.13 -1.6,0.37 -0.18,-0.29 -0.1,-1.15 -1.72,-1.95 -0.37,0.14 -0.46,0.47 0.34,0.42 -0.07,0.76 -0.39,0.26 -2.95,0.95 -0.56,-0.24 -0.57,-3.51 0.56,-1.65 0.06,-2.3 0.36,-0.43 -0.03,-0.95 0.27,-1.94 0.28,-0.37 0.74,-0.11 1.05,0.07 1.1,-0.46 z m -30.13,-13.12 0.82,1.33 0.49,1.4 -0.01,1.81 0.37,1.93 0.92,2.81 0.51,1.08 0.78,0.99 0.73,0.69 0.5,0.21 3.98,0.73 2.86,1.12 -0.68,0.39 -1.05,1.2 -1.27,3.27 -0.12,0.83 0.13,0.44 0.78,0.46 0.31,-0.07 1.19,0.55 0,1.23 -0.41,0.43 -3.43,0.07 -1.3,-2.08 -2.82,-1.27 -2.34,-0.67 -0.91,-0.45 -1.67,-0.17 -0.41,-0.3 -0.93,-1.55 -0.31,-1.34 0,-0.59 0.65,-1.5 -0.08,-0.89 -0.61,-0.52 -0.74,-0.21 -0.59,-0.74 -0.36,-3.52 -0.15,-0.33 -0.78,-0.56 -4.62,-0.52 -1.11,0.33 -1.27,0.11 -3.55,-0.88 -0.26,-0.85 0.35,-1.31 0.61,-0.45 1.88,-0.68 1.71,-1.18 0.23,-0.36 0.05,-0.46 -0.24,-0.47 -0.9,-0.55 0.16,-0.91 0.83,-0.85 1.07,-0.68 2.1,-0.66 0.49,0.12 0.74,1.75 0.15,1.67 0.92,0.74 1.24,0.29 0.49,-0.04 -1.74,-4.21 0.61,-0.32 2.47,-0.67 0.41,0.09 2.01,1.36 0.29,0.42 -0.27,0.83 0.14,0.57 0.96,1.56 z" 
                fill="rgb(151, 144, 238)" 
                stroke="white" 
                stroke-width=".7px"
                title="Bangka Belitung" 
                id="ID-BB" 
            />
        </svg>