<svg xmlns="http://www.w3.org/2000/svg" viewBox="172.97570999999994 228.33788999999996 27.130000000000052 19.260000000000048" width="27.130000000000052" height="19.260000000000048">
            <path 
                d="m 199.16571,231.92789 -0.6,0.25 -0.04,1.12 0.61,0.33 -0.02,0.67 0.39,0.08 0.16,0.73 0.44,0.76 0,0 -0.04,0.15 0,0 -0.18,0.61 -2.91,0.02 -0.3,-0.36 -1.02,-0.27 -0.1,0.06 0.3,0.16 0.01,0.25 -0.54,0.04 -0.21,-0.65 -0.33,-0.1 -0.67,0.64 0.44,1.4 -0.25,0.33 -0.62,0.09 -0.11,0.96 0.56,1.24 -0.09,1.73 0.11,0.34 0.16,0 0.44,0.48 0.21,-0.03 0.55,0.66 -0.37,0.25 -0.03,0.27 -0.94,0.44 -0.08,0.71 -0.65,0.69 0.1,0.44 -0.18,0.18 0.16,0.76 0,0 -0.49,0.19 -1.01,0.05 -0.09,-0.28 -0.66,-0.03 -0.06,-0.23 -0.37,-0.1 0.03,-0.43 -0.91,-0.43 -0.55,-0.02 -0.54,-0.39 -0.46,-0.1 -0.7,-0.81 -0.54,-0.23 -1.44,-0.12 -2.94,0.61 -1.5,-0.19 -2.12,0.33 -0.4,0.29 -0.7,-0.19 -0.34,0.12 -0.61,-0.55 -0.31,-0.05 -0.15,0.31 -0.19,0.01 0.07,-0.26 -0.57,-0.38 -1.15,-0.24 -0.32,0.07 -0.2,0.43 -0.33,0.28 -0.41,-0.1 -0.15,-1 -0.21,-0.28 -0.16,0 -0.07,-0.26 0.98,0.07 0.33,-0.45 0.8,-0.58 -0.12,-0.43 0.83,-0.4 0.57,1.27 -0.18,0.05 -0.07,0.23 0.5,0.33 0.32,0.53 0.05,0.44 0.31,0.25 0.21,-0.04 0.52,-0.63 0.14,-0.99 1.05,-0.86 0.07,-0.4 0.36,-0.14 0.32,-0.42 0.22,-0.71 -0.09,-0.8 0.54,-0.94 0.4,-0.31 0.13,0.48 -0.18,0.24 0.41,0.32 0.34,0.06 1.02,-0.21 0.7,-0.96 0.17,-0.58 0.08,-3.08 0.61,-2.25 0.39,-0.24 -0.03,-0.61 0.75,-0.47 0.27,-0.4 0.78,-0.64 0.18,-0.87 -0.27,0.05 0.87,-0.84 0.74,-0.11 0.56,0.65 -0.02,1.29 1.02,0.55 0.26,0.03 0.76,-0.35 0.26,-0.29 0.12,-0.49 0.23,-0.17 0.87,0.29 0.12,0.2 0.29,0.09 0.4,-0.41 0.27,0.26 0.32,0.03 -0.09,0.15 0.23,0.52 0.49,0.26 0.38,-0.07 0.73,0.23 0.73,-0.53 0.49,0.31 0.93,-0.17 0.21,-0.16 0.43,0.25 0.49,-0.15 0.47,0.46 -0.09,0.12 z" 
                fill="rgb(151, 144, 238)" 
                stroke="white" 
                stroke-width=".7px"
                title="Banten" 
                id="ID-BT" 
            />
        </svg>