<svg xmlns="http://www.w3.org/2000/svg" viewBox="100.56571000000005 166.28788999999998 47.73999999999995 45.49000000000004" width="47.73999999999995" height="45.49000000000004">
            <path 
                d="m 118.54571,174.60789 0.21,0.59 0.85,0.54 0.14,0.71 0.88,0.53 0.13,0.28 0.44,0.15 0.3,1.19 0.4,0.64 0.62,0.14 0.47,0.44 1.15,-0.4 0.97,0.22 0.63,0.58 0.29,0.74 -0.11,1.22 0.23,0.15 -0.2,0.5 1.67,1.52 0.63,0.1 0.25,0.25 0.79,-0.56 0.86,-0.03 0.9,-0.56 0.25,0.11 0.03,0.34 0.29,0.47 0.27,-0.12 0.56,0.26 0.56,-0.25 -0.16,0.11 0.07,0.56 0.21,0.2 0.82,-0.32 0.79,0.09 0.21,0.45 -0.18,0.35 0.04,0.83 -0.15,0.93 -0.03,0.14 -0.33,0.09 -0.32,0.72 -0.72,0.74 -0.17,-0.05 -0.36,-0.64 -0.53,-0.56 -0.53,-0.3 -0.16,0.04 -0.07,1.45 -0.49,0.31 -0.63,0.76 -0.12,1.14 -1.33,0.47 -0.23,0.36 -0.47,0.18 0.67,0.2 0.4,0.4 0.17,0.4 0.89,0.51 0.85,1.08 0.68,0.39 0.76,0.2 0.61,-0.29 0.4,0.16 0.26,0.51 0.21,0.12 1.26,0.06 0.94,-0.14 0.29,0.24 0.4,0.05 0.5,1.37 0.46,0.67 0.01,1.63 1.91,0.31 0.49,0.56 0.73,0.44 0.73,0.01 0.57,0.21 0.4,-0.09 0.34,0.61 0.55,0.3 0.98,-0.36 0.56,0.18 0.31,0.65 0.01,0.57 -0.57,0.54 -0.26,0.52 1.09,1.04 -0.71,0.62 0.78,0.04 0.64,0.5 0.3,0.42 0.18,0.88 -0.39,0.49 0.36,-0.09 0.62,0.29 0.4,0.02 0.36,0.6 -0.08,0.33 0,0 -0.08,0.05 0,0 -0.11,0.11 -0.81,-0.05 -0.13,0.51 -0.51,0.4 -0.43,0.08 -0.57,0.53 -0.32,0.06 -0.18,0.53 0,0 -0.8,-0.1 -0.53,-0.57 -0.47,-0.23 -0.85,-0.2 -0.3,0.2 -0.31,-0.13 -0.07,-0.24 0.22,-0.16 -0.26,-0.39 -0.51,-0.38 -0.32,0.02 -0.28,0.25 -0.4,-0.31 -0.05,-0.18 0.24,-0.34 -1.59,-1.74 -3.14,-2.08 -2.64,-0.97 0.06,-0.25 -0.6,-0.82 -0.99,-0.72 -0.14,-0.34 -3.57,-2.69 -0.77,-0.73 -4.55,-3.28 -0.18,-0.22 0.03,-1.06 0.42,-0.11 0.04,-0.27 -0.87,-1.73 -0.26,-1.61 -2.22,-1.8 -2.02,-1.22 -1.24,-0.49 0.06,-0.32 -5.58,-4.03 -1.47,-1.88 0.09,-0.24 -0.22,-0.51 -0.37,-0.26 -0.19,-0.73 -0.33,-0.22 -1.2,-1.78 -1.2,-2.9 -3.21,-1.8 -1.13,-1.59 -0.85,-0.8 0,0 1.61,-1.11 0.42,-0.44 1.09,-0.44 0.74,-0.56 0.8,-0.97 0,0 0.01,-0.02 0,0 4.71,2.96 -0.33,1.97 0.17,0.12 0.28,-0.48 0.44,-0.08 0.29,0.2 0.56,-0.16 0.12,-0.29 0.37,0.04 0.44,0.69 1.46,1.57 0.4,0.16 0.2,0.36 0.33,0.08 0.48,0.48 0.69,0.2 1.34,-0.16 0.84,0.52 0.47,0.12 0,0 z" 
                fill="rgb(151, 144, 238)" 
                stroke="white" 
                stroke-width=".7px"
                title="Bengkulu" 
                id="ID-BE" 
            />
        </svg>