<svg xmlns="http://www.w3.org/2000/svg" viewBox="448.9757100000001 109.57789 40.87999999999994 12.409999999999997" width="40.87999999999994" height="12.409999999999997">
            <path 
                d="m 466.81571,109.57789 0.59,0.2 2.41,-0.05 1.67,0.18 3.41,0.99 0.24,0.35 2.96,1.83 1.11,-0.69 0.85,-1.22 2.55,-0.37 0,0 0.21,0.82 0.54,0.39 0.86,0.23 0.7,0.69 -0.04,0.47 0.27,0.85 0.62,0.54 1.21,0.89 2.03,0.35 0.54,0.58 0.31,0.85 -0.15,1.08 0.07,1.01 -0.81,1.43 -0.28,0.98 0,0 -2.14,0.03 -1.5,-0.4 -1.28,-1.18 -0.81,-1.2 -1.03,-0.89 -0.51,0.38 -1.38,0.14 -8.43,-0.31 -1.82,0 -3.06,0.31 -2.37,-0.05 -0.51,0.13 -0.6,0.52 -1.63,0.32 -1.75,0.06 -1.48,-1.67 -2.93,-0.32 -0.24,0.12 -0.2,0.68 -0.29,0.25 -2.77,0.32 0,0 0.28,-0.5 -0.17,-1.47 -0.69,-0.03 -1.07,-0.34 -0.5,-0.78 -0.57,-0.31 -0.26,-0.43 0.31,-0.17 0.06,-1.07 0.34,-0.34 1.06,-0.38 0.97,0.38 0.52,-0.1 0.02,-0.96 0.35,-0.41 0.89,0.51 1.33,0.05 0.48,-0.41 1.45,-0.01 2.07,-0.95 1.11,-0.3 0.79,-0.61 0.85,-0.14 0.49,0.8 0.49,0.52 0.42,0.17 0.3,-0.27 0.13,-0.65 0.37,0 0.52,-0.6 0.26,0.03 z" 
                fill="rgb(151, 144, 238)" 
                stroke="white" 
                stroke-width=".7px"
                title="Gorontalo" 
                id="ID-GO" 
            />
        </svg>