<svg xmlns="http://www.w3.org/2000/svg" viewBox="171.28571000000002 231.93788999999998 32.19999999999999 10.210000000000008" width="32.19999999999999" height="10.210000000000008">
            <path 
                d="m 173.98571,239.51789 -0.26,0.49 0.16,0.73 -0.3,0.61 -0.64,0.23 -0.42,0.57 -0.21,-0.28 0.38,-0.45 0.03,-0.4 -0.33,-0.26 0.02,-0.42 -0.28,0.04 -0.54,0.49 -0.05,0.31 -0.26,-0.16 0.28,-0.59 0.99,-0.75 0.52,0.12 0,-0.26 0.49,0.02 0.26,-0.16 0.16,0.12 z m 25.57,-7.41 1.8,0.34 0.73,-0.41 1.4,-0.09 0,0 -0.06,1.98 -0.41,0.86 -0.64,0.17 0.06,0.56 0.21,0.37 -0.21,0.95 -0.18,0.06 -0.85,-0.49 -0.9,0.25 -0.11,-0.16 0.24,-0.68 -0.53,0.06 0,0 0,0 0,0 -0.44,-0.76 -0.16,-0.73 -0.39,-0.08 0.02,-0.66 -0.61,-0.33 0.03,-1.12 0.6,-0.26 0,0 0.4,0.17 z" 
                fill="rgb(151, 144, 238)" 
                stroke="white" 
                stroke-width=".7px"
                title="Jakarta Raya" 
                id="ID-JK" 
            />
        </svg>