<svg xmlns="http://www.w3.org/2000/svg" viewBox="193.22571000000005 228.88788999999986 42.410000000000025 32.950000000000045" width="42.410000000000025" height="32.950000000000045">
            <path 
                d="m 205.66571,229.26789 0.77,0.8 0.42,0.08 2.2,-0.5 0.91,0.26 0.88,0.94 1.22,2.06 1.61,0.62 1.06,0.13 0.86,0.94 0.42,-0.34 0.22,0.14 0.49,-0.03 1.31,-0.79 0.62,0.02 0.12,0.42 0.61,-0.33 0.15,0.27 -0.28,-0.01 0.08,0.5 1.08,0.38 1.42,0.81 1.61,0.49 1,-0.62 0.42,-0.47 -0.07,-0.38 -0.35,-0.34 0.37,0.06 0.27,0.28 1.34,-0.03 0.63,0.45 0.08,-0.49 0.14,-0.07 0.29,0.4 0.16,0.54 -0.12,0.17 0.28,0.83 1.34,1.5 1.36,0.81 0.15,1.2 -0.09,0.57 0.37,1.85 0.65,1.15 0.59,0.15 0.28,-0.34 0.48,0.26 0.08,0.57 1.17,0.28 0.93,-0.46 0.05,-0.37 -0.31,-0.11 0.23,-0.27 0.47,-0.03 0,0 -0.07,1.47 -0.56,0.85 -0.25,0.11 -0.43,0.58 0.16,0.5 -0.05,0.65 0.65,0.37 -0.04,0.36 -0.27,0.23 0.1,0.31 -0.17,0.37 0.05,0.37 -0.28,0.26 -0.66,0.05 -0.48,0.58 -0.58,0.06 -0.34,-0.31 -0.34,0.01 -0.98,0.48 -0.02,0.57 0.28,0.27 0,0.51 -0.47,0.81 0.09,0.82 0.18,-0.02 0.21,0.24 1.17,-0.09 0.51,0.48 0.11,0.48 0.55,0.59 -0.13,0.46 0.1,0.44 0.3,0.37 0.34,0.94 -0.08,0.52 -0.29,0.44 0.69,0.73 0.49,0.25 0,0 -0.68,0.43 -0.52,-0.3 -0.74,-0.06 -0.47,0.31 -0.04,0.14 0.33,0.35 -0.14,0.13 -0.36,-0.22 -0.13,-0.51 -1.05,-0.04 -0.92,0.21 -0.4,0.39 -0.08,1.12 -0.45,0.32 -0.62,0.24 -1.69,0 -4.47,-0.77 -1.54,-0.52 -1.46,-0.18 -1.04,0.07 -0.18,-0.1 -0.1,-0.47 -0.45,-0.28 -0.49,-0.21 -1.5,-0.16 -0.33,-0.73 -1.22,-0.87 -2.18,-0.79 -0.36,-0.31 -1.31,-0.25 -2.57,-0.19 -2.01,-0.53 -9.47,-0.66 -0.87,-0.25 -0.49,-0.47 -0.86,-0.28 -0.55,0.19 -0.02,-0.35 -0.47,-1.06 0.01,-0.8 0.57,-0.91 0.88,-0.19 -0.24,-0.52 0.1,-0.37 0.49,-0.42 0.45,-0.17 0.63,-0.85 -0.07,-0.91 -0.51,-0.51 -1.23,-0.15 -0.47,0.17 -0.31,0.32 0,0 -0.16,-0.76 0.18,-0.18 -0.1,-0.44 0.65,-0.69 0.08,-0.71 0.94,-0.44 0.03,-0.27 0.37,-0.25 -0.55,-0.66 -0.21,0.03 -0.44,-0.48 -0.16,0 -0.11,-0.34 0.09,-1.73 -0.56,-1.24 0.11,-0.96 0.62,-0.09 0.25,-0.33 -0.44,-1.4 0.67,-0.64 0.33,0.1 0.21,0.65 0.54,-0.04 -0.01,-0.25 -0.3,-0.16 0.1,-0.06 1.02,0.27 0.3,0.36 2.91,-0.02 0.18,-0.61 0,0 0.04,-0.15 0,0 0.52,-0.05 -0.24,0.68 0.12,0.15 0.9,-0.25 0.85,0.49 0.18,-0.05 0.21,-0.95 -0.21,-0.37 -0.05,-0.56 0.63,-0.17 0.41,-0.86 0.06,-1.99 0,0 0.37,-0.06 0.18,-0.25 -0.25,-0.41 0.42,-0.28 -0.16,-0.22 -0.17,0.09 -0.05,-0.34 0.31,-0.26 0.11,-0.66 -0.17,-0.23 -0.29,0.07 0,-0.09 0.6,-0.41 z" 
                fill="rgb(151, 144, 238)" 
                stroke="white" 
                stroke-width=".7px"
                title="Jawa Barat" 
                id="ID-JB" 
            />
        </svg>