<svg xmlns="http://www.w3.org/2000/svg" viewBox="230.88571000000016 237.32789000000037 54.31999999999985 31.469999999999743" width="54.31999999999985" height="31.469999999999743">
            <path 
                d="m 285.20571,243.41789 -0.2,0.34 -0.18,-0.15 -0.16,0.18 0.04,0.61 -0.15,0.21 -0.66,0.09 -0.24,1.35 -0.4,0.16 -0.3,0.52 0.98,0.67 -0.19,0.44 0.21,0.91 -0.21,0.32 0.06,0.51 -0.65,1.27 -0.69,0.71 -0.95,0.5 -0.1,-0.09 -0.22,0.18 -0.15,-0.1 -0.21,0.2 -0.35,0.89 0.46,0 -0.17,0.55 0.3,0.15 -0.09,0.27 -0.4,-0.13 -0.25,-0.3 -1.14,-0.27 -0.74,-0.5 -1.16,-0.42 -0.46,-0.56 -0.21,-0.03 -0.09,0.18 -0.4,0.13 -0.32,-0.1 -0.09,0.13 -0.19,0.71 0.17,0.12 -0.15,0.42 0.06,0.49 -0.46,0.96 0.3,1.03 0.27,0.32 -0.03,0.64 0.19,0.8 0.64,0.42 -0.18,0.62 0.07,0.78 -0.1,0.37 0.83,0.69 0.96,-0.05 -0.1,0.57 0.58,1.3 -0.31,0.24 -0.18,0.7 -0.62,0.69 -0.3,0.08 -0.27,-0.32 -0.41,0.06 -0.08,-0.29 -0.63,0.17 -0.18,0.18 0.04,0.29 -0.28,0.2 0.08,1.05 -0.45,0.7 -0.55,-0.31 -0.84,0.61 -1.27,-0.33 -0.69,0.92 -0.25,0.91 0.12,0.82 0,0 -1.19,-0.29 0,0 0.04,-0.5 -0.12,-0.05 -0.18,0.18 -0.08,-0.11 0.24,-0.61 -0.22,-0.01 -0.32,0.38 -0.23,-0.18 0.05,-0.75 -0.57,-1.61 0.23,-0.55 -0.02,-1.1 0.29,-0.84 0.05,-0.89 -0.29,-0.17 -0.24,0.27 -0.37,-0.46 -0.32,-0.13 -0.17,0.22 -0.41,0.05 -0.19,-0.33 -0.24,0.23 -0.14,-0.14 -1.1,0.23 -0.21,-0.34 -0.23,-0.09 -0.36,0.23 -0.43,-0.4 -0.32,-0.06 -0.81,-3.89 -2.39,1.88 -0.57,0.77 -0.26,-0.14 0.03,-0.59 -0.2,-0.17 -0.29,0.12 -1.26,-0.13 -0.61,0.16 -0.18,0.43 0.32,0.28 -0.12,0.88 -0.34,0.51 -0.26,0.1 -0.2,0.42 -0.4,0.24 -0.31,1.28 -0.58,-0.03 0,0 -1.69,-0.62 -3.62,-0.99 -3.34,-0.53 -0.46,-0.18 -1.19,0.26 -0.46,-0.34 0.17,-0.5 -1.87,-0.42 -3.08,-0.23 -0.77,0.12 -0.59,0.35 -0.16,0.3 -0.09,0.38 0.19,0.24 0.28,-0.09 0.12,0.16 -0.19,0.24 -3.71,-0.8 -0.5,0.09 -0.17,-0.3 0.18,-0.27 -0.25,-0.08 0.3,-0.31 0.46,-0.07 0.18,-0.24 0.4,0 0,-0.15 -0.22,-0.09 -0.83,0.3 0,0 -0.49,-0.25 -0.69,-0.73 0.29,-0.44 0.08,-0.52 -0.34,-0.94 -0.3,-0.37 -0.1,-0.44 0.13,-0.46 -0.55,-0.59 -0.11,-0.48 -0.51,-0.48 -1.17,0.09 -0.21,-0.24 -0.18,0.02 -0.09,-0.82 0.47,-0.81 0,-0.51 -0.28,-0.27 0.02,-0.57 0.98,-0.48 0.34,-0.01 0.34,0.31 0.58,-0.06 0.48,-0.58 0.66,-0.05 0.28,-0.26 -0.05,-0.37 0.17,-0.37 -0.1,-0.31 0.27,-0.23 0.04,-0.36 -0.65,-0.37 0.05,-0.65 -0.16,-0.5 0.43,-0.58 0.25,-0.11 0.56,-0.85 0.07,-1.47 0,0 0.1,0.24 -0.1,0.26 0.29,0.05 0.25,0.45 1.63,0.47 0.24,-0.4 0.35,-0.02 0.69,-0.47 0.3,0.07 0.34,-0.39 0.14,0.89 0.66,0.62 0.87,0 0.46,0.28 1.22,0.18 0.76,-0.01 0.62,-0.2 0.42,0.08 0.99,-0.26 1.03,-0.57 0.69,-0.65 0.96,1.02 1.48,0.17 3.75,1.21 0.88,-0.09 0.64,0.17 0.76,-0.06 2.33,-0.77 0.39,-0.27 0.09,-0.25 0.76,0.24 0.5,0.82 0.87,0.32 0.33,0.27 1.01,0.31 1.13,-0.25 0.12,0.23 0.61,-0.23 -0.01,-0.43 0.47,-0.68 0.23,-0.74 0.59,-0.48 0.38,-0.77 -0.55,-0.04 -0.15,-0.23 0.4,0.07 -0.25,-0.46 0.36,-0.08 0.26,0.16 0.41,-0.3 0.63,-0.84 -0.07,-0.82 0.24,-0.08 0.09,-0.78 -0.11,-0.17 0.55,-0.62 -0.29,-0.32 0.28,-0.11 0.7,-0.85 1.07,-0.37 0.49,0 0.35,-0.28 1.24,-0.13 0.86,0.21 0.47,-0.16 1.09,0.35 1.03,3.09 0.65,0.86 1.03,0.23 0.7,0.37 2.31,0.23 1.4,-0.61 0.18,-0.49 0.49,-0.27 0.29,0.21 0.38,-0.09 0.7,0.29 z" 
                fill="rgb(151, 144, 238)" 
                stroke="white" 
                stroke-width=".7px"
                title="Jawa Tengah" 
                id="ID-JT" 
            />
        </svg>