<svg xmlns="http://www.w3.org/2000/svg" viewBox="335.18570999999974 51.387885 58.56999999999982 56.13000500000004" width="58.56999999999982" height="56.13000500000004">
            <path 
                d="m 388.44571,70.617885 -0.56,0.43 -1.29,-1.02 -0.47,-1.24 0.03,-0.41 0.16,-0.22 1.46,-0.12 0.82,0.25 0.15,0.32 -0.3,2.01 z m -4.73,-4.79 2.2,1.3 -0.01,0.2 -0.54,0.47 -1.69,-0.74 -1.93,-0.1 -0.64,-0.31 -0.4,-0.54 0.08,-0.43 0.91,-0.38 2.02,0.53 z m 5.69,-7.4 -0.78,0.29 -1.19,-0.87 -0.18,-0.89 0.07,-0.22 0.78,-0.85 0.49,0.05 1.25,1.01 0.1,0.47 -0.54,1.01 z m 2.78,-3.31 0.43,0.19 0.42,2.01 -0.56,0.44 -0.51,0.08 -0.61,-0.31 -3.52,-2.82 0.06,-0.26 0.9,-0.74 0.51,-0.03 1,0.35 0.19,0.38 0.58,0.42 1.11,0.29 z m -37.96,1.44 0.04,-0.93 0.33,-0.67 0.37,0.03 0.79,-0.91 0.4,0.06 0.14,0.33 0.41,-0.11 0.13,-0.57 0.72,-0.6 -0.14,-0.42 0.12,-1.04 0.53,-0.19 0.33,0.57 1.51,0.3 0.27,0.2 0.11,0.49 0.65,0.5 0.2,-0.13 0.39,-0.76 0.85,-0.33 0.13,-0.64 0.15,-0.11 1.41,0.21 0.3,0.18 1.52,-0.35 1.17,0.97 0.2,0.64 0.59,-0.14 0.23,-0.54 0.37,0.16 0.47,-0.08 -0.05,-0.62 0.54,-0.67 0.41,0.45 0.38,0.12 0.25,0.61 0.77,-0.24 0.53,0.16 0.31,-0.1 0.28,-0.16 0.26,-0.5 0.41,0.25 0.38,0.48 0.26,-0.11 0.49,0.28 0.69,-0.2 0.53,-0.41 0.73,0.18 0.29,0.23 0.65,0.06 0.28,0.3 0.34,-0.39 1.11,0.15 0.65,-0.17 0.59,0.11 0.64,-0.16 0.09,-0.19 0.53,-0.21 3.02,2.15 0.4,0.86 0.24,0.15 1.21,0.34 0.89,-0.26 0.24,0.17 0,0 -0.81,0.5 -0.91,0.28 -1.56,-0.45 -0.17,0.19 0,0.56 0.39,0.32 0.96,0.23 2.64,2.22 -1.75,0.26 1.66,0.95 1.56,0.17 1.27,1.34 0.04,0.26 -0.25,0.64 1.06,0.32 -0.08,0.25 -1.2,1.12 -1.07,0.21 -3.17,0.23 -2.67,-0.38 -1.8,0.3 -0.48,0.29 -0.44,0.65 0.03,0.41 0.56,0.87 1.48,0.93 1.26,-0.15 0.8,0.21 0.02,0.84 -0.28,0.52 1.76,0.92 -0.17,0.28 -1.26,0.17 -0.86,0.34 -0.29,0.46 -0.97,0.17 -0.17,0.34 0.54,0.32 2.01,0.35 2.71,1.18 1.22,2.08 -0.28,1.61 -0.01,1.26 1.02,0.18 0.8,0.49 0.21,0.33 0.14,1.34 0.23,0.72 2.78,2.74 0,0 -0.69,0.59 -1.29,0.15 -1.29,0.77 -0.36,-0.05 -1.39,-0.51 -1.13,-1.38 -0.46,-0.31 -1.08,0.26 -0.51,-0.1 -1.29,-0.61 -0.62,-0.46 -0.51,-1.13 -0.87,0 -1.6,0.41 -1.44,-0.31 -1.29,0.05 -2.01,1.18 -2.26,0.77 -1.75,1.13 -1.03,0.31 -0.72,0.05 -0.62,-0.31 0,-0.41 -0.29,-0.31 -0.77,-0.31 -0.57,-0.56 -0.51,0.05 -0.26,0.31 -0.31,1.33 -0.36,0.26 -0.82,1.38 -0.21,0.72 -0.05,2.2 -0.15,0.82 -0.67,0.41 -0.26,0.66 -1.08,0.56 -0.46,0.56 -0.1,0.67 0.31,1.18 -1.29,2.45 -1.6,2.15 -0.87,0.770005 -0.57,1.18 -1.03,0.87 -2.32,0.05 -2.31,0.87 -1.96,-0.05 -0.41,0.41 -0.26,1.58 -0.51,0.26 -0.77,0.92 -1.03,-0.2 -0.82,0.92 -0.77,-0.1 -0.57,-0.26 -1.34,0 -0.87,0.97 -0.67,-0.05 -0.46,-0.2 -0.41,-0.46 -0.15,-0.61 -0.31,-0.41 -0.51,-0.2 -0.72,-0.1 -0.82,0.46 -0.21,-0.26 -0.21,-1.02 -0.77,-0.87 -1.59,-0.46 -0.62,-0.51 -0.26,-0.46 -0.79,-0.42 0,0 0.49,-0.81 -0.18,-0.3 0.12,-0.75 0.8,-0.470005 0.52,-0.92 0.38,-0.31 0.13,-0.99 -0.11,-1.19 -0.13,-0.13 0.49,-0.66 -0.07,-0.27 0.56,-0.16 0.54,0.25 0.45,-0.64 0.67,-0.11 0.36,-0.34 -0.4,-0.81 0.05,-0.23 0.69,-0.52 -0.02,-0.22 -0.51,-0.25 -0.76,0.34 -0.2,-0.45 0.16,-0.96 -0.35,-0.19 -0.16,-0.29 -0.02,-0.82 0.34,-1.31 1.84,-0.2 0.78,-0.49 0.04,-0.23 -0.33,-0.43 0.31,-0.63 0.67,0.11 0.43,-0.23 0.51,-0.59 0.67,0 0.2,-0.59 0.45,-0.41 0.58,-0.18 0.78,0.02 0.6,-0.5 0.07,-0.31 -0.47,-0.34 -0.11,-0.34 -0.67,-0.79 -0.99,0.31 -0.31,-0.47 0.31,-0.38 0.09,-0.41 0,-0.49 -0.23,-0.14 0,-0.38 0.6,-0.52 0,-0.43 0.18,-0.34 -0.18,-0.27 -0.51,-0.13 -0.04,-0.18 0.96,-0.77 0.25,-1.06 1.59,-1.06 0.34,-0.83 0.61,0.65 0.04,0.41 1.23,-0.09 0.81,-0.77 1.03,-0.14 0.18,-0.34 0,-0.84 0.13,-0.25 0.81,-0.67 0,-0.2 -0.71,-0.52 -0.05,-0.18 0.42,-2.81 0.63,-1.26 0.34,0.02 0.4,0.63 0.4,-0.58 -0.58,-1.01 -0.13,-1.1 -0.38,-0.47 -0.16,-0.86 0.05,-1.55 0.14,-0.71 0.52,-1.04 0.04,-0.56 -0.05,-0.18 -0.78,-0.56 -0.13,-0.31 0.85,-0.23 0.45,-0.41 0.67,-2.08 0,0 0.01,-0.19 z" 
                fill="rgb(151, 144, 238)" 
                stroke="white" 
                stroke-width=".7px"
                title="Kalimantan Utara" 
                id="ID-KU" 
            />
        </svg>