<svg xmlns="http://www.w3.org/2000/svg" viewBox="268.61571 113.60789000000005 88.36000000000018 74.91999999999987" width="88.36000000000018" height="74.91999999999987">
            <path 
                d="m 268.61571,178.54789 0.35,-0.93 0.38,-0.29 1.2,-0.41 0.78,-0.47 1.18,-0.21 0.62,-0.52 0.15,-0.57 1.45,-0.37 0.91,-0.45 0.52,-0.91 -0.16,-0.45 -0.34,0.02 -0.45,-0.28 0.33,-0.81 -0.53,-2.07 -0.09,-1.3 -0.52,-1.83 -0.68,-1.13 0.61,-0.72 -0.02,-0.29 0.19,-0.23 0.04,-0.23 -0.69,-1.29 0.7,-0.59 -0.07,-0.42 0.16,-0.39 -0.05,-0.15 -0.89,-0.13 -0.52,0.14 -0.34,-0.23 -0.15,-0.42 0.34,-0.43 0.04,-0.36 -0.32,-0.41 0.02,-0.64 0.11,-0.44 0.37,-0.34 0.15,-0.38 -0.12,-1.2 -0.22,-0.52 -0.29,-0.16 -0.42,0.18 -0.11,0.45 -0.18,0.13 -0.42,0.1 -0.26,-0.19 -0.18,-0.44 -0.44,-0.11 -0.04,-0.77 0.55,-0.38 0.28,-0.43 0.88,-0.21 0.44,-0.55 0.49,0.4 0.3,-0.3 0.48,-0.15 0.37,0.42 0.81,-0.22 -0.07,-0.45 -0.26,-0.39 0.82,-0.49 0.28,0.16 0.04,0.49 0.31,0.14 0.09,-0.66 -0.14,-0.79 0.38,0.14 0.13,-0.53 1.11,0.22 -0.05,-0.29 0.21,-0.04 0.42,-0.48 0.17,-0.59 0.63,-0.33 0.36,-0.75 0.3,0 0.12,-0.54 0.22,-0.18 1.11,-0.01 0.31,-0.26 1.2,-0.21 0.12,-0.3 -0.33,-0.28 0.26,-0.48 -0.32,-0.64 0.28,-0.54 0.48,-0.15 0.46,-0.48 -0.17,-0.69 0.3,-0.37 0.59,-0.04 0.93,-0.56 0.22,-0.29 0.76,-0.28 1.02,0.07 0.46,-0.26 0.16,-0.57 0.15,-0.07 0.68,0.15 -0.29,-0.76 0.14,-0.86 0.49,0.53 0.37,0.15 1.2,-0.34 0.07,-0.31 -0.31,-1.11 0.19,-0.18 1.08,0.11 0.77,0.31 0.38,0 0.1,-0.07 -0.24,-0.72 0.83,-1.14 0.54,0.03 0.35,0.28 0.64,1.21 0.41,0.48 0.36,-0.44 0.41,0.18 0.85,-0.31 0.49,-0.44 0.37,0.14 0.01,0.61 0.37,0.26 0.24,-0.23 0.08,-0.47 0.85,0.17 0.09,-0.19 0.92,-0.08 0,-0.21 0.6,-0.35 0.89,-0.03 0.25,-0.42 0.74,-0.03 0.08,-0.85 0.58,-0.15 0.57,0.17 0.7,-0.12 0.67,-0.63 1.44,-0.42 0.33,-0.31 1.33,0.14 0.33,-0.24 0.37,0 0.27,-0.51 0.39,-0.12 0.13,0.35 0.5,0.01 0.28,0.51 0.15,0.13 0.13,-0.08 0.16,-0.49 0.66,-0.8 -0.19,-0.78 -0.78,-0.71 0.28,-0.21 0.2,-0.6 0.53,-0.37 0.42,-0.6 0.86,-0.18 0.56,-0.51 0.27,-0.57 0.36,-0.07 0.08,-0.33 -0.34,-0.2 0.44,-0.26 0.35,-0.79 -0.07,-0.22 -0.37,-0.05 0.18,-0.77 0.26,-0.38 -0.35,-0.24 -0.2,-0.35 0.16,-1.35 -1.55,-0.81 -1.03,-1.01 0.03,-0.19 0.63,-0.38 0.74,-0.2 1.38,0.25 0.92,-0.55 0.53,-0.41 0.06,-0.23 0.96,-0.82 0.16,-0.31 1.32,-0.76 0.27,-1.09 0.68,-0.42 0.4,0 0.19,-0.42 0.37,-0.17 0.19,-0.43 0.36,-0.25 0.23,-0.71 0.51,-0.29 0,0 0.49,0 0.42,0.33 0.25,-0.18 0.24,0.06 0.7,-0.24 0.54,0.09 1.28,-0.66 0.36,0.09 0.3,-0.12 0.73,0.45 0.33,0.97 -0.33,0.33 0,0.21 0.63,0.33 0.1,0.42 0.42,0.18 1.55,-0.18 0.73,0.18 0.51,0.43 0.7,0.12 0.21,-0.06 -0.06,-0.67 0.67,-0.45 1,-0.03 0.21,-0.39 0,-0.63 0.79,-0.03 0.89,-0.64 0.49,-0.65 0.55,-0.1 0.32,0.14 0.82,-0.6 0.5,0.07 0.39,-0.24 0.53,0.33 0.2,0.42 0.47,0.12 -0.3,-0.48 0.04,-0.23 0.8,-0.75 0.51,0.14 0.45,0.37 0.39,0.7 0.29,1.61 0.56,1.16 0.73,0.86 0.32,0.65 0.65,0.57 -0.05,0.71 -0.2,0.39 -1.19,0.83 -0.15,0.32 -0.34,-0.48 -0.17,-0.02 -0.73,0.05 -0.31,0.16 -0.11,-0.21 -0.27,-0.06 -0.67,0.43 -0.53,1.13 -0.19,0.2 -0.39,0.07 -0.02,0.35 -0.43,0.48 0.08,0.42 -0.37,0.88 0.29,0.5 0.59,-0.11 0.32,0.35 0.37,-0.02 0.24,0.31 0.1,1.44 0.45,0.85 -0.08,0.64 0.21,0.47 0,0.53 1.02,-0.19 0.9,0.24 0.76,-0.66 0.47,-0.23 0.47,-0.01 0.29,-0.66 2.42,-1.17 0.36,1.12 -0.42,0.58 -0.44,0.26 0,0.67 -0.55,0.95 0.29,0.45 -0.04,0.48 -0.42,0.08 0.19,1.46 0.37,0.1 -0.21,1.09 0.23,0.06 0.72,0.74 0.39,1.03 0.5,0.43 0.28,1.9 -0.03,1.19 0.41,1.01 1.68,0.3 0.79,0.69 0.6,0.98 1.32,0.84 0.23,0.29 0.21,0.95 0.42,-0.05 0.4,0.44 0.34,0.14 0.19,0.69 0.23,0.14 0.34,-0.33 0.32,-0.07 0.76,0.66 -0.03,0.26 -0.91,0.66 -0.45,0.53 -0.23,1.3 0,0 -0.35,0.31 0,0 -0.99,0.78 -0.5,-0.11 -0.39,0.32 -1.81,0.67 -1.85,0.14 -0.14,0.18 -0.89,3.88 -0.71,2.22 0.11,0.78 0.67,0.92 -0.25,0.81 -0.96,0.74 0,0.39 0.71,1.55 -0.39,0.81 -0.21,1.31 -0.32,0.03 -0.39,-0.28 -5.89,4.27 -0.57,-0.03 -0.22,0.32 0.04,0.63 -0.5,0.78 -0.7,0.55 -0.32,1.8 -0.46,0.6 -0.85,0.31 -0.36,-0.1 -0.21,0.39 0.14,0.24 -0.18,0.22 -0.35,0.28 -1,0.28 -1.52,3 -0.39,2.26 -1.46,2.3 -0.78,2.36 0,0.91 0,0 -2.42,-1.15 -1.86,-0.5 -1.22,0.09 -3.59,1.72 -1.85,0.28 -0.8,-0.03 -1.07,-0.65 0.49,-1.56 0.07,-1.58 -0.26,-0.91 -0.36,-0.53 -2.26,0.14 -0.45,0.49 -0.17,0.6 -1.27,0.29 -2.09,-1.33 -3.12,-3.26 -0.52,-0.07 -1.47,1.6 -0.11,0.57 0.44,0.57 -0.3,1 -3.31,2.03 -1.18,0.83 -0.7,0.72 -1.75,0.54 -0.32,-0.03 -1.98,-1.57 -1.93,-0.67 -1.04,-0.02 -1.45,0.56 -3.69,3.52 -0.61,0.34 -0.41,0.06 -1.45,-0.6 0.65,-2.28 -0.47,-3.66 0,-0.82 0.28,-1.08 -0.03,-0.72 -1.36,-2.43 -0.4,-1.6 -0.48,-0.07 0.07,0.8 -0.57,0.84 0.43,0.35 -0.1,0.45 -0.94,0.17 -0.3,0.33 -1.24,0.77 -0.17,-0.47 -0.91,-0.8 -0.74,-0.57 -0.43,-0.07 -1.48,0 -3.05,1.75 -1.22,0.53 -0.97,0.3 -1.48,0.2 -2.18,-1.54 z" 
                fill="rgb(151, 144, 238)" 
                stroke="white" 
                stroke-width=".7px"
                title="Kalimantan Tengah" 
                id="ID-KT" 
            />
        </svg>