<svg xmlns="http://www.w3.org/2000/svg" viewBox="181.20570999999998 54.89788500000001 147.28000000000006 124.48000499999989" width="147.28000000000006" height="124.48000499999989">
            <path 
                d="m 236.00571,155.77789 -0.39,-0.07 -0.58,-1.45 0.15,-0.3 1.59,-0.47 0.62,0.14 0.55,0.61 0.02,0.26 -0.32,0.63 -1.64,0.65 z m 11.81,-11.54 0.54,0.06 0.42,-0.33 0.63,0.04 0.46,0.47 0.4,0.12 0.34,-0.14 0.33,-0.4 0.47,0.24 0.31,0.53 0.19,0.86 -0.07,0.53 0.23,0.25 0,0.25 -5.01,2.89 -1.31,-0.43 -0.44,-0.45 0.56,-0.61 0.18,-0.51 0.42,-2.2 -0.04,-0.43 0.75,-1.05 0.64,0.31 z m 1.94,-52.760005 -0.5,1.38 -0.38,0.22 -0.3,0.75 -0.6,0.07 -0.05,0.48 0.17,0.65 0.45,0.32 0.4,0.62 1.2,0.3 0.15,0.35 -0.42,2.14 0.3,0.65 1.82,1.810005 0.35,0.15 0.83,1.29 1.27,0.05 0.5,0.2 0.25,0.3 0.17,1.39 1.49,0.74 0.35,0.87 0.43,0.35 0.6,-0.07 0.73,0.15 0.45,0.67 0.15,0.52 0.48,0.4 0.42,0.72 0.32,0.97 0.98,0 0.97,0.25 0.9,1.37 0.35,0.27 1.2,0.42 0.73,0.07 0.55,-0.12 0.4,-0.67 0.45,0.45 0.45,-0.02 0.38,-0.32 0.77,-0.25 0.95,-0.55 0.72,-0.12 0.63,-0.55 0.27,-0.6 3.85,-0.5 1.95,-0.57 0.32,0.3 1.75,0.57 0.5,0.32 0.5,-0.02 0.7,-0.3 0.77,0.12 0.7,1.17 0.23,-0.02 0.1,-0.52 0.52,-0.07 1.13,-0.82 0.27,-0.02 1,0.52 0.58,-0.17 1.7,0.35 0.32,-0.77 1.35,-1.39 3.22,-0.22 -0.03,-0.65 0.25,-0.6 0.15,-1.49 0.85,-0.84 0.05,-0.65 -0.42,-0.65 0.5,-0.55 0.42,0 1.27,-0.79 1.57,-0.35 0.55,-0.27 0.08,-0.3 1.02,-0.370005 2.9,0.370005 1.65,-0.12 0.55,0.4 0.35,0.02 0.57,-0.3 0.35,-0.470005 0.2,-0.05 0.82,0.220005 0.92,-0.07001 0.63,0.12001 0.52,0.3 0.13,0.4 -0.17,0.05 -0.5,0.99 -0.5,0.17 -0.3,0.3 -0.15,0.45 0.75,0.07 1.35,-0.45 0.37,0.05 0.38,0.67 0.75,0.22 1.6,-0.15 0.77,0.2 0.72,0.5 0.17,0.35 0.6,0.37 0.3,0.37 0.4,0.02 0.33,-0.3 0.57,-0.22 0.82,-0.05 0.67,0.3 0.75,1.34 0.32,0.1 0.3,0 0.35,-0.22 0.38,-0.45 1.9,-0.77 0.28,-0.84 -0.13,-0.2 0.07,-0.17 1.92,-0.79 0.4,-0.45 3.05,-0.32 0.97,0.65 0.2,0.28 0,0 -0.03,0.01 0,0 -0.82,0.42 -0.12,1.72 0.21,0.18 -0.33,0.42 0,0.69 -0.21,0.69 -0.3,0.3 -0.52,-0.09 -0.55,0.36 -0.3,-0.15 -0.7,0.06 -0.52,0.42 -0.09,0.66 -0.3,0.24 -0.67,0.15 -0.09,0.36 0.33,0.3 0.12,0.42 -0.18,0.51 -0.52,0.51 -0.09,0.27 0.27,0.69 0.58,0.48 0,0.3 -0.52,0.63 0.06,0.81 -0.18,0.36 -0.67,0.27 -0.18,0.54 0.12,0.24 0,0 -0.51,0.29 -0.23,0.71 -0.36,0.24 -0.19,0.44 -0.37,0.16 -0.19,0.42 -0.4,0 -0.68,0.42 -0.27,1.09 -1.31,0.76 -0.16,0.31 -0.96,0.82 -0.05,0.23 -0.53,0.41 -0.92,0.56 -1.38,-0.26 -0.74,0.2 -0.63,0.38 -0.03,0.19 1.03,1.01 1.55,0.82 -0.15,1.34 0.19,0.35 0.36,0.25 -0.26,0.38 -0.18,0.76 0.37,0.05 0.07,0.22 -0.36,0.79 -0.44,0.26 0.34,0.2 -0.08,0.33 -0.36,0.07 -0.27,0.56999 -0.56,0.52001 -0.85,0.18 -0.42,0.6 -0.53,0.37 -0.19,0.6 -0.29,0.21999 0.78,0.71001 0.19,0.78 -0.66,0.8 -0.16,0.49 -0.12,0.08 -0.15,-0.14 -0.29,-0.5 -0.49,-0.01 -0.14,-0.35 -0.38,0.12 -0.27,0.52 -0.37,0 -0.33,0.23 -1.33,-0.14 -0.33,0.31 -1.44,0.42 -0.67,0.63 -0.7,0.12 -0.58,-0.18 -0.58,0.15 -0.08,0.86 -0.74,0.03 -0.25,0.42 -0.89,0.03 -0.6,0.35 0,0.2 -0.92,0.08 -0.1,0.19 -0.85,-0.16 -0.08,0.46 -0.23,0.23 -0.37,-0.26 -0.01,-0.61 -0.37,-0.14 -0.49,0.44 -0.85,0.31 -0.41,-0.18 -0.36,0.44 -0.41,-0.48 -0.64,-1.21 -0.34,-0.29 -0.55,-0.03 -0.82,1.14 0.23,0.72 -0.1,0.07 -0.38,0 -0.77,-0.31 -1.08,-0.11 -0.19,0.18 0.31,1.12 -0.07,0.31 -1.21,0.34 -0.37,-0.15 -0.49,-0.53 -0.14,0.86 0.29,0.76 -0.67,-0.15 -0.15,0.07 -0.16,0.57 -0.46,0.26 -1.01,-0.07 -0.77,0.27 -0.22,0.3 -0.93,0.56 -0.59,0.04 -0.3,0.37 0.18,0.69 -0.47,0.48 -0.48,0.15 -0.27,0.54 0.31,0.64 -0.26,0.48 0.33,0.29 -0.12,0.3 -1.19,0.2 -0.31,0.26 -1.11,0.01 -0.22,0.18001 -0.12,0.53999 -0.3,0 -0.36,0.75 -0.63,0.33001 -0.16,0.6 -0.42,0.47999 -0.21,0.04 0.04,0.29 -1.11,-0.22 -0.12,0.53 -0.38,-0.14 0.14,0.79 -0.08,0.65 -0.31,-0.13999 -0.04,-0.49001 -0.27,-0.16 -0.82,0.49001 0.26,0.38999 0.07,0.45 -0.81,0.22 -0.37,-0.42 -0.48,0.15 -0.3,0.30001 -0.49,-0.39 -0.44,0.54 -0.88,0.22 -0.29,0.42 -0.55,0.37999 0.04,0.78 0.44,0.11001 0.18,0.44 0.26,0.19 0.42,-0.1 0.18,-0.14 0.11,-0.45 0.42,-0.18 0.29,0.16 0.22,0.52 0.12,1.2 -0.15,0.38 -0.37,0.34 -0.11,0.44 -0.03,0.64 0.33,0.41 -0.04,0.37 -0.34,0.41999 0.15,0.42 0.34,0.23 0.52,-0.14 0.89,0.12 0.04,0.15 -0.15,0.40001 0.07,0.41999 -0.7,0.59 0.68,1.29 -0.04,0.23 -0.19,0.23 0.03,0.29 -0.62,0.72 0.69,1.13 0.52,1.82 0.08,1.31 0.53,2.06 -0.33,0.82 0.45,0.27 0.34,-0.01 0.15,0.45 -0.52,0.91 -0.9,0.45 -1.45,0.37 -0.15,0.57 -0.62,0.52 -1.18,0.2 -0.78,0.48 -1.21,0.41 -0.38,0.29 -0.34,0.94 0,0 -1.33,0.83 -0.34,-0.14 0.08,-0.3 -0.19,-0.69 0.08,-0.84 -0.37,-0.87 -0.47,-0.57 -0.64,-0.07 -1.08,0.33 -1.31,0.63 -1.95,1.6 -0.2,-0.27 -0.47,-0.1 -0.17,-0.94 -0.34,-0.57 0.54,-1.07 0.1,-0.6 -0.34,-0.47 -0.41,-0.19 -0.18,-1.66 -1.26,-0.37 0.67,-0.8 0.25,-1.26 -1.04,-3.8 -0.73,-0.87 0.04,-1.11 0.49,-1.46 0.01,-0.68 -0.7,-1.8 -0.69,-0.5 -1.67,-0.71 -0.78,-0.75 0.19,-0.92 1.34,-0.79 0.69,-1.2 0.65,-3.33 0.01,-1.52 -0.22,-0.74 -0.21,-0.38 -0.66,-0.52 -0.8,-0.18 -0.87,-1.1 0.52,-1.4 -1.92,-0.63 -1.17,-1.61 -0.67,-0.41 -0.73,0.49 -1.13,-0.75 -0.41,-0.76 -0.3,-0.27 -1.98,-0.55 -0.29,-0.27 -0.48,0.12 0.2,0.84 -0.26,0.41 -0.26,0.08 -1.72,-0.57 -0.56,-0.57 -0.46,-0.89 0.2,-2.6 0.46,0.12 0.36,0.37 1.15,0.34 0.79,0.04 1.05,0.63 0.02,-0.51 -0.97,-0.73 -0.87,-0.03 -0.23,-0.46 0.27,-0.46 0.04,-0.66 -1.42,0.03 -0.4,0.13 -1.68,-0.6 -0.72,-0.81 -0.43,-1.93 -0.99,-2.58 0.34,-0.59 0.64,-0.13 -0.17,-0.81 1.13,-1.79 0.38,-1.61 -0.2,-1.18 -0.84,-1.89 -1.1,-1.16 -0.82,-0.24 -1.23,-0.05 -0.28,-0.26 0.03,-0.63 0.45,-0.94 0,-0.52 -0.71,-0.84 0.47,-2.12 -0.27,-0.92 -0.73,-0.79 0.25,-0.87 -0.75,-0.89 0.15,-0.43 0.69,-0.55 0.52,-0.05 0.67,-0.69 0.39,-1.14 -0.43,-1.42 -0.49,-0.42 -0.47,-1.36 0.13,-0.2 0.73,0.17 0,-0.76 0.6,-1.12 0.73,-0.73 0.23,-0.79 -0.2,-1.26 0.13,-0.89 0.37,-0.69 0.74,-0.69 2.22,-1.34 0.54,-0.59 0,-0.45 0.5,-1.09 0.7,-0.96 0.06,-1.05 -0.26,-0.61 0.07,-0.26 0.47,-0.17 1.38,-0.03 0.31,-0.44 0.47,-0.2 1.69,-0.03 1.21,-1.4 z m -13.97,-13.37 -0.17,0.06 -0.97,-0.74 0.92,-0.77 0.31,-1.05 0.48,-0.17 0.27,0.08 0.18,0.35 -0.18,1.49 -0.84,0.75 z m -53.61,0.22 -0.38,0.02 -0.26,-0.27 -0.33,-2.69 0.12,-0.88 0.18,-0.04 2.55,1.42 -0.61,1.34 -0.87,0.88 -0.4,0.22 z m 44.48,-14.45 -2.29,0.48 -1.46,-0.81 0.6,-0.84 1.25,-0.91 -0.63,-0.37 -1.79,-0.59 -0.98,-1.85 -0.23,-1.12 0.59,-0.71 0.74,-0.21 1.96,-2.05 1.21,0.28 0.11,0.84 0.22,0.49 2.2,2.17 0.16,1.79 -0.22,0.78 -1.44,2.63 z" 
                fill="rgb(151, 144, 238)" 
                stroke="white" 
                stroke-width=".7px"
                title="Kalimantan Barat" 
                id="ID-KB" 
            />
        </svg>