<svg xmlns="http://www.w3.org/2000/svg" viewBox="331.08571 149.60789 38.17999999999989 49.43999999999997" width="38.17999999999989" height="49.43999999999997">
            <path 
                d="m 366.41571,189.53789 -0.17,0.2 -1.1,-1.78 0.65,-1.65 0.86,-1.09 0.23,-0.06 0.2,0.45 0,0.59 -0.67,3.34 z m -4.71,6.95 -0.56,0.16 -0.53,-0.05 -0.07,-0.21 0.06,-0.77 0.39,-1.28 -0.06,-1.79 -0.9,-1.25 -0.25,-0.81 0.02,-0.66 1.9,-5.56 2.45,-1.75 0.23,0.06 0.06,0.35 -0.36,2.29 0.27,2.65 0.82,3.98 -0.24,2.43 -2.51,1.88 -0.72,0.33 z m -6.34,-46.88 -0.25,0.99 -1.06,1.27 -0.25,-0.07 0.14,-0.78 -0.32,-0.07 -0.82,0.71 -0.43,0.67 -0.64,0.56 -0.07,0.35 0.18,0.35 0.6,-0.25 0.6,0.11 0.28,0.39 -0.14,0.71 0.14,0.32 0.71,0.56 -0.14,0.32 0.11,0.49 0.5,0.56 0.35,0.74 0.14,1.87 -0.07,0.71 -0.32,0.71 0,0.42 0.28,0.32 -0.21,0.6 0.18,-0.04 0.35,0.28 0.5,-0.14 0.6,0.25 0.14,0.25 -0.35,0.56 -0.18,1.52 0.71,1.73 -0.04,1.02 0.28,0.53 0.53,-0.18 0.39,-0.35 0.11,-0.32 0.78,-0.28 0.53,-0.49 0.53,0.49 0.39,0.07 2.73,0.14 1.28,0.42 2.7,0.04 1.1,0.28 1.33,0.62 0,0 -0.39,1.87 -0.52,0.66 -0.4,0.02 -0.16,-0.16 -0.12,-0.61 -0.76,-0.4 -1.98,0.4 -0.05,1.62 1.01,0.91 0.2,3.11 -0.33,0.85 -1.39,1.8 -0.51,0.26 -0.23,-0.05 -0.24,-0.35 -0.21,-1.2 -0.95,-1.65 -0.2,-0.19 -0.13,0.14 -0.38,1.72 0.19,0.89 0.98,1.4 0.57,0.5 0.1,0.98 -0.77,0.39 -1.25,1.71 -1.52,2.87 -0.38,2.45 -0.24,0.47 -0.38,0.22 -1.98,0.29 -1.15,1.1 -0.65,0.42 -3.24,1.38 -4.53,1.63 -6.2,2.59 -3.79,2.28 -1.24,0.16 -0.36,-0.39 -0.13,-0.57 -0.01,-7.32 -0.11,-0.84 -0.35,-0.7 -1.02,-1.34 -0.71,-0.66 -0.73,0.08 -1.54,-0.88 0,0 0,-0.91 0.78,-2.37 1.46,-2.29 0.39,-2.26 1.53,-3 0.99,-0.28 0.35,-0.28 0.18,-0.21 -0.14,-0.25 0.21,-0.39 0.36,0.11 0.85,-0.32 0.46,-0.6 0.32,-1.8 0.7,-0.55 0.5,-0.78 -0.04,-0.64 0.21,-0.32 0.57,0.04 5.9,-4.27 0.39,0.28 0.32,-0.04 0.21,-1.31 0.39,-0.81 -0.71,-1.55 0,-0.39 0.96,-0.74 0.25,-0.81 -0.67,-0.92 -0.11,-0.78 0.71,-2.22 0.89,-3.88 0.14,-0.18 1.85,-0.14 1.81,-0.67 0.39,-0.32 0.5,0.11 0.99,-0.78 0,0 0.39,-0.3 z" 
                fill="rgb(151, 144, 238)" 
                stroke="white" 
                stroke-width=".7px"
                title="Kalimantan Selatan" 
                id="ID-KS" 
            />
        </svg>