<svg xmlns="http://www.w3.org/2000/svg" viewBox="322.2457099999997 81.92788500000007 89.47000000000037 86.65000499999998" width="89.47000000000037" height="86.65000499999998">
            <path 
                d="m 393.76571,84.717885 1.44,1.57 0.74,1.23 -0.02,0.43 -0.61,0.92 -2.71,2.45 -1,-0.42 -0.3,0.01 0.47,0.44 0.21,0.71 -0.09,2.17 0.15,0.6 0.8,0.91 2.3,1.59 1.45,1.46 4.93,2.900005 0.53,1.35 1.32,0.61 0.59,-0.09 0.6,0.18 3.1,2.66 0.35,0.92 0.76,0.89 1.17,0.47 0.27,-0.03 1.25,0.41 0.18,0.16 0.07,0.95 -0.56,0.8 -0.73,0.69 -2.42,1.67 -2.04,-0.77 -2.97,0.28 -2.79,-0.25 -3.08,-0.58 -1.63,-0.74 -0.7,-0.72 -0.67,-1.8 -0.67,-0.57 -0.81,-0.4 -0.24,0.09 -0.03,0.44 2.4,4.1 0.09,0.74 -0.23,0.37 -0.38,0.07 -0.34,-0.1 -0.75,-0.7 -0.58,-0.1 -1.59,0.51 -1.2,1.17 -0.36,0.77 -0.01,0.91 -1.71,3.53 -0.91,0.66 -0.81,1.73 -0.71,2.1 -0.24,1.23 0.44,1.23 0.47,0.42 0.15,0.69 -0.19,0.43 -0.63,0.67 -0.79,2.47 0.01,0.47 0.6,1.28 -0.45,3.12 2.57,-1.67 0.45,-0.14 0.21,0.09 0.07,0.27 -1.06,3.59 0.82,1.77 0.03,0.44 -0.14,0.22 -2.79,1.24 -2.14,-0.12 -0.7,-0.83 -0.42,0.26 -0.14,0.8 -1.95,2.35 -2.05,3.34 -0.38,0.33 -1.4,0.62 -1.84,0.33 -1.32,-2.97 0.31,-1.12 -0.08,-0.2 -0.24,0.06 -0.48,1.29 0.01,0.54 0.7,0.7 0.59,1.31 -0.55,2 -2.25,0.78 -1.5,1.05 -0.13,0.16 0.09,0.76 0.49,0.79 -0.11,0.48 -0.33,0.4 -2.37,0.94 -1.66,0.81 -1.43,0.9 0.12,0.31 0.53,0.27 0.7,-0.15 0.59,-0.47 0.82,-0.18 0.72,0.08 0.35,0.21 0.26,2.24 -0.04,2.27 -0.39,0.49 -1.09,0.38 -0.25,0.28 1.32,0.28 0.81,0 0.41,-0.4 0.34,0.74 -0.05,0.34 1.42,0.38 -0.11,1.39 -0.7,2.47 0,0 -1.33,-0.61 -1.1,-0.29 -2.7,-0.03 -1.28,-0.42 -2.73,-0.15 -0.39,-0.07 -0.53,-0.49 -0.54,0.49 -0.78,0.29 -0.1,0.31 -0.39,0.36 -0.54,0.17 -0.28,-0.53 0.03,-1.02 -0.71,-1.73 0.18,-1.52 0.36,-0.56 -0.15,-0.25 -0.6,-0.25 -0.5,0.14 -0.35,-0.28 -0.18,0.04 0.21,-0.6 -0.28,-0.32 0,-0.42 0.32,-0.71 0.07,-0.71 -0.14,-1.87 -0.36,-0.74 -0.49,-0.56 -0.11,-0.5 0.14,-0.31 -0.71,-0.57 -0.14,-0.32 0.14,-0.7 -0.28,-0.39 -0.61,-0.11 -0.6,0.25 -0.18,-0.35 0.07,-0.35 0.64,-0.57 0.43,-0.67 0.82,-0.7 0.32,0.07 -0.15,0.77 0.25,0.07 1.07,-1.27 0.25,-0.99 0,0 -0.01,0.01 0,0 0.23,-1.3 0.45,-0.53 0.91,-0.66 0.03,-0.26 -0.76,-0.66 -0.32,0.07 -0.34,0.33 -0.23,-0.14 -0.19,-0.69 -0.34,-0.14 -0.4,-0.44 -0.42,0.05 -0.21,-0.95 -0.23,-0.29 -1.32,-0.84 -0.6,-0.98 -0.79,-0.69 -1.68,-0.3 -0.41,-1.01 0.03,-1.19 -0.28,-1.9 -0.5,-0.43 -0.39,-1.03 -0.72,-0.74 -0.23,-0.06 0.21,-1.09 -0.37,-0.1 -0.19,-1.46 0.42,-0.08 0.04,-0.48 -0.29,-0.45 0.55,-0.95 0,-0.67 0.44,-0.26 0.42,-0.58 -0.36,-1.12 -2.42,1.17 -0.29,0.66 -0.47,0.01 -0.47,0.23 -0.76,0.66 -0.9,-0.24 -1.02,0.19 0,-0.53 -0.21,-0.47 0.08,-0.64 -0.45,-0.85 -0.1,-1.44 -0.24,-0.31 -0.37,0.02 -0.32,-0.35 -0.59,0.11 -0.29,-0.5 0.37,-0.88 -0.08,-0.42 0.43,-0.48 0.02,-0.35 0.39,-0.07 0.19,-0.2 0.53,-1.13 0.67,-0.43 0.27,0.06 0.11,0.21 0.31,-0.16 0.73,-0.05 0.17,0.02 0.34,0.48 0.15,-0.32 1.19,-0.83 0.2,-0.39 0.05,-0.71 -0.65,-0.57 -0.32,-0.65 -0.73,-0.86 -0.56,-1.16 -0.29,-1.61 -0.39,-0.7 -0.45,-0.37 -0.51,-0.14 -0.8,0.75 -0.04,0.23 0.3,0.48 -0.47,-0.12 -0.2,-0.42 -0.53,-0.33 -0.39,0.24 -0.5,-0.07 -0.82,0.6 -0.32,-0.14 -0.55,0.1 -0.49,0.65 -0.89,0.64 -0.79,0.03 0,0.63 -0.21,0.39 -1,0.03 -0.67,0.45 0.06,0.67 -0.21,0.06 -0.7,-0.12 -0.51,-0.43 -0.73,-0.18 -1.55,0.18 -0.42,-0.18 -0.1,-0.42 -0.63,-0.33 0,-0.21 0.33,-0.33 -0.33,-0.97 -0.73,-0.45 -0.3,0.12 -0.36,-0.09 -1.28,0.66 -0.54,-0.09 -0.7,0.24 -0.24,-0.06 -0.25,0.18 -0.42,-0.33 -0.49,0 0,0 -0.12,-0.24 0.18,-0.54 0.67,-0.27 0.18,-0.36 -0.06,-0.82 0.52,-0.63 0,-0.3 -0.58,-0.48 -0.27,-0.7 0.09,-0.27 0.52,-0.51 0.18,-0.51 -0.12,-0.43 -0.34,-0.3 0.09,-0.36 0.67,-0.15 0.3,-0.24 0.1,-0.66 0.51,-0.43 0.7,-0.06 0.3,0.15 0.55,-0.36 0.51,0.09 0.31,-0.3 0.21,-0.69 0,-0.69 0.33,-0.43 -0.21,-0.18 0.12,-1.72 0.82,-0.42 0,0 0.37,-0.15 0,0 0.24,-0.45 0.7,-0.09 1.58,-0.67 0.57,-0.54 2.58,1.51 0.4,-0.12 0.21,-0.43 0,0 0.79,0.42 0.25,0.46 0.62,0.51 1.59,0.46 0.78,0.87 0.2,1.02 0.21,0.26 0.82,-0.46 0.72,0.1 0.52,0.21 0.31,0.4 0.15,0.62 0.41,0.46 0.46,0.2 0.67,0.05 0.88,-0.97 1.34,0 0.56,0.26 0.77,0.1 0.83,-0.92 1.03,0.2 0.77,-0.92 0.51,-0.25 0.26,-1.59 0.41,-0.41 1.96,0.06 2.31,-0.87 2.32,-0.05 1.03,-0.87 0.56,-1.18 0.88,-0.770005 1.59,-2.14 1.29,-2.46 -0.31,-1.17 0.1,-0.67 0.47,-0.56 1.08,-0.56 0.25,-0.67 0.67,-0.41 0.16,-0.82 0.05,-2.2 0.2,-0.71 0.83,-1.38 0.36,-0.26 0.31,-1.33 0.25,-0.31 0.52,-0.05 0.56,0.57 0.78,0.3 0.3,0.31 0,0.41 0.62,0.31 0.72,-0.06 1.03,-0.3 1.75,-1.13 2.26,-0.77 2.01,-1.17 1.29,-0.05 1.44,0.3 1.59,-0.41 0.88,0 0.51,1.13 0.62,0.46 1.29,0.61 0.51,0.11 1.08,-0.26 0.46,0.31 1.14,1.38 1.38,0.51 0.37,0.05 1.28,-0.77 1.29,-0.15" 
                fill="rgb(151, 144, 238)" 
                stroke="white" 
                stroke-width=".7px"
                title="Kalimantan Timur" 
                id="ID-KI" 
            />
        </svg>