<svg xmlns="http://www.w3.org/2000/svg" viewBox="140.18571 105.90788999999995 29.21999999999997 32.96000000000009" width="29.21999999999997" height="32.96000000000009">
            <path 
                d="m 160.44571,132.93789 0.12,0.27 0.76,0.22 0.12,0.44 0.59,0.93 0.42,0.32 -0.07,0.24 -1.03,0.83 -0.39,0.81 -0.15,1.08 -0.12,0.1 -0.42,-0.1 -0.66,-0.88 -0.2,0 -0.49,0.2 -0.15,1.27 -0.49,0.2 -0.22,-0.29 -0.12,-1 -0.37,-1.22 -0.64,-0.29 -0.54,-0.61 0.22,-0.86 0.25,-0.32 -0.02,-0.34 0.62,-0.07 0.12,-0.15 0.07,-0.78 0.22,0.76 -0.44,0.42 0.42,0.64 0.17,-0.15 -0.02,-0.71 0.12,-0.05 0.25,0.27 0.62,0.05 0.49,-0.32 0,-0.59 0.17,-0.2 0.62,-0.2 0.17,0.08 z m 5.26,-2.37 0.15,0.1 0.37,-0.1 -0.02,-0.9 0.25,-0.2 1.18,1.59 0.94,0.76 0.76,0.07 0.07,0.44 -0.3,0.05 -1.16,-0.49 -0.29,0.27 0.44,0.51 -0.12,0.24 -0.91,-0.46 -0.39,0.12 -0.91,-0.66 0.05,-0.22 -0.15,-0.12 -0.37,0.05 -0.3,-0.54 -0.81,-0.44 -0.89,0.15 -0.89,0.61 -0.54,-0.1 -0.66,0.51 -0.37,-0.15 -0.15,-0.44 -0.71,0.15 -0.49,-0.24 -0.05,-0.22 0.02,-0.64 0.69,-0.51 0.1,-0.22 0.59,-0.22 -0.17,-2.27 0.81,-0.37 1.03,0.51 0.64,0.56 0.54,0.81 0.25,0.02 0.25,0.49 0.62,0.49 0.02,0.42 0.2,0.29 0.68,0.3 z m -6.92,-6.01 0.17,0.22 0.07,-0.44 0.25,0.12 0.27,-0.07 1.92,2.05 -0.44,0.15 -0.15,-0.1 -0.39,0.37 -0.49,-0.29 -1.28,-1.42 -0.91,-1.56 0.22,0.05 0.76,0.92 z m 2.41,-1.54 1.75,2.15 0.76,0.78 0.57,0.32 0.1,0.27 -0.17,0.29 -0.66,-0.32 -0.62,-0.61 -0.94,-0.61 -0.89,-1.22 -0.74,-0.61 -0.02,-0.51 0.62,0.15 0.05,-0.2 0.19,0.12 z m -2.01,-1.59 0.57,0.39 -0.05,0.1 -0.44,-0.07 -0.07,0.15 0.25,0.07 0.1,0.27 -0.25,0.07 -0.62,-0.42 0.07,0.27 -0.2,0.07 -0.25,0.39 -0.3,-0.07 -0.47,-0.83 -0.22,0.07 -0.07,-0.64 0.07,-0.17 0.47,0.42 0.17,-0.05 0.07,-0.44 -0.44,-0.22 -0.22,-0.32 0.32,0.05 1.51,0.91 z m -2.39,-7.91 -0.2,0.39 0.02,0.44 0.7,0.53 -0.33,0.06 -0.47,0.28 0.93,0.18 0.07,-0.32 0.39,0.29 -0.2,0.29 -0.64,-0.15 0,0.93 -0.12,0.1 -0.57,-0.46 -1.3,-2.2 0.02,-0.17 0.49,-0.12 0.29,-0.03 0.64,-0.2 0.28,0.16 z m -6.01,0.42 -0.1,0.17 -0.47,-0.64 -1.06,-0.9 -0.22,-0.37 -0.07,-0.56 0.98,0.39 0.66,0.61 0.12,0.42 0.42,0.51 -0.1,0.29 -0.16,0.08 z m -1.5,-0.25 -0.22,0.49 -0.17,-0.42 -0.37,-0.05 -0.84,-0.56 -0.47,-0.78 0,-0.42 0.27,-0.02 0.32,-0.42 1.13,1.27 0.35,0.91 z m -6.18,-1.89 0.11,0.64 1.14,1.32 -0.2,0.35 -0.98,-0.75 0.41,0.72 -0.17,0.79 0.31,0.37 -0.39,0.97 -0.17,0.17 -0.35,0.04 -0.24,-0.37 -0.15,0.13 -0.57,-0.18 -0.31,-0.64 -0.61,-0.7 -0.18,-1.8 0.33,-0.48 0.04,-0.73 0.54,0.13 0.22,0.31 -0.11,-0.55 0.13,-0.44 -0.11,-0.13 0.55,-0.42 0.5,0.07 0.17,0.27 0.09,0.91 z m 11.06,-1.01 0.32,0.1 0.15,-0.44 0.42,-0.05 0.32,0.39 -0.15,0.51 -0.3,0.07 0.1,0.51 0.42,0.15 0.37,-0.07 0.79,0.34 0,0.2 -0.32,0.37 -0.96,0.65 -0.35,0.03 -0.37,-1.2 -0.66,-0.32 -0.25,0.1 -0.02,-0.95 -0.2,-0.17 -0.34,0.32 -0.27,-0.24 0.17,-0.66 0.49,-0.1 0.59,0.27 0.05,0.19 z m -5.47,-0.3 -0.2,0 -0.71,-0.78 0,-0.32 0.42,-0.34 0.49,0.49 0,0.95 z m 1.18,-1.93 -0.05,0.27 0.32,0.37 0.25,0.22 0.27,0.27 1.23,0.66 0.05,0.49 -0.3,-0.07 -0.12,0.17 -0.12,0.2 0.1,0.39 -0.15,0.15 -0.22,0 -0.49,-0.61 -0.74,-0.24 -0.66,-0.51 0,-0.56 0.2,-0.22 -0.64,-0.61 0.12,-0.29 0.34,0.17 0.37,-0.24 0,-0.49 0.17,0.1 0.07,0.38 z m -8.03,-1.12 0.06,0.17 -0.13,0.07 -0.35,-0.11 -0.06,0.75 0.26,0.6 0.35,0.06 0.5,1.12 -0.87,-0.04 -0.09,-0.22 -0.59,-0.07 -0.72,-0.53 -0.02,-0.77 0.18,-0.13 0.13,-0.48 0.7,-0.2 0.33,-0.57 0.32,0.35 z m 12.78,-0.03 0.05,0.49 -0.22,0.22 0,1.2 -0.74,0.05 -0.17,0.44 0.2,0.44 -0.84,-0.22 -0.25,0.22 -0.49,-0.15 -0.15,-0.24 -0.76,-0.08 -0.71,-0.46 -0.32,-1.03 0.05,-0.27 0.4,-0.06 -0.08,0.55 0.37,-0.02 -0.07,-0.71 -0.17,-0.07 -0.02,-0.27 1.21,0.12 0.17,-0.81 0.37,-0.07 0.57,0.71 0.34,0.1 0.17,-0.24 -0.25,-0.17 0,-0.34 0.57,-0.24 0.44,0.37 0.33,0.54 z m 7.46,-0.54 0.15,0.66 0.74,0.44 0.47,1.2 -0.25,1.22 0.07,0.39 0.2,0.2 0,0.42 -0.27,0.07 0,0.24 0.25,0.12 0.62,-0.07 -0.12,0.51 -0.76,1.03 -0.57,-0.24 -0.96,0.02 -0.57,-0.2 -0.76,-0.66 -0.25,0.1 -0.69,-0.17 0.02,-0.17 0.69,-0.17 -0.47,-0.42 0.1,-0.27 -0.12,-0.17 -0.44,-0.37 0.22,-0.34 0.57,0.05 -0.2,-0.44 0.42,-0.51 -0.44,-0.42 -0.79,0.42 0.02,0.56 -0.17,0.15 -0.3,0 0.05,-0.37 -0.47,-0.17 -0.17,0.37 -0.22,0.12 -1.18,-0.07 -0.37,-0.32 -0.27,-0.61 -0.12,-0.44 0.52,-0.76 1.5,-0.24 -0.27,-0.76 0.39,-0.17 0.71,0.15 0.1,-0.2 0.39,-0.15 1.13,0.46 0.62,0.02 0.59,-0.37 0.2,-0.51 0.42,-0.12 0.15,0.1 -0.11,0.86 z" 
                fill="rgb(151, 144, 238)" 
                stroke="white" 
                stroke-width=".7px"
                title="Kepulauan Riau" 
                id="ID-KR" 
            />
        </svg>