<svg xmlns="http://www.w3.org/2000/svg" viewBox="145.09571000000005 191.19789000000003 40.14000000000013 38.13000000000014" width="40.14000000000013" height="38.13000000000014">
            <path 
                d="m 148.27571,209.52789 0.65,-0.05 0.05,0.51 0.43,0.03 0.38,0.48 0,0.54 -0.43,0.4 0,0.21 0.35,0.03 0.75,0.7 0.3,-0.35 0.16,-0.89 0.51,0.38 1.4,-0.16 0.24,-0.21 0.19,0.05 0.08,0.24 0.91,0.27 1,-0.54 0.13,-0.38 0.38,-0.08 0.46,0.27 0.4,0 0.3,-0.19 0.4,0.38 0.35,-0.11 0.73,-0.94 0.03,-0.35 -0.11,-0.35 -0.67,-0.62 -0.05,-0.83 -0.54,-0.32 0.27,-0.78 0.65,-0.64 -0.3,-2.71 0.27,-0.83 0.27,-0.08 0.08,-0.38 0.8,-0.56 0.51,-0.59 0.62,0.05 0.62,-0.51 1.21,-0.48 0.67,-0.56 0.4,0.51 0.22,0.05 2.21,0.11 1.48,-0.24 0.08,-0.35 1.13,-0.56 0.62,-0.24 0.62,0.03 0.38,-0.51 0.62,-0.43 0.32,-0.96 0.3,-0.32 0.38,-0.05 -0.3,-0.35 0.43,-0.43 0.27,-1.07 0.22,0.13 0.16,-0.08 0.11,-0.51 0.54,-0.27 0.67,0.24 0.7,-0.64 0.22,-0.48 -0.27,-0.62 0.4,-0.32 0.11,-0.56 0.35,-0.46 0.22,0.13 0.3,1.07 0.32,-0.24 0.54,-0.11 0.32,0.08 0.11,0.72 0.78,-0.05 0.19,0.27 0.59,0 -0.13,0.8 0.13,0.16 0.4,-0.16 0.35,0.27 -0.05,0.46 0.24,0.19 0.32,-0.19 0.11,0.08 0.11,0.32 -0.38,0 0.46,0.38 0,0.24 0.3,0.32 -0.4,0.54 -0.05,0.29 0.24,0.05 0,-0.27 0.24,0.13 0.46,-0.05 0.08,0.05 -0.3,0.29 0,0.24 0.65,0 0.03,0.24 0.27,0.11 -0.11,0.46 0.19,0.13 0.75,0.08 0.3,-0.13 0.05,-0.27 0.22,-0.05 0.51,0.27 0.29,0.55 0,0 -0.19,2.7 1.46,2.41 0.05,0.33 0,1.25 -0.34,0.83 0.02,0.35 0.49,0.48 -0.6,1.22 -0.36,1.87 0.18,0.86 0.49,0.62 0.11,0.38 -0.04,0.22 -0.49,0.26 -0.27,1.24 0.15,3.61 -0.15,0.53 -0.49,0.33 -0.13,0.53 0.09,2.17 -0.17,1.61 0.21,0.73 -0.58,2.13 0.07,1.18 -0.36,1.05 -0.79,1.12 -0.27,0.11 -0.16,-0.97 -1.66,-0.22 -0.35,-0.27 -0.2,-0.51 0.02,-0.51 0.18,-0.34 -0.09,-0.23 -0.58,-0.55 -0.53,0 -0.2,-0.24 -1.38,-0.77 -0.83,-0.78 -0.27,-0.71 -1.16,-1.73 -0.33,-0.07 -0.35,0.15 -0.16,0.31 0,1.77 -0.13,0.27 -0.73,-0.25 -0.6,0.41 0.39,0.49 0.01,0.32 0.32,-0.01 -0.48,0.34 0.2,0.22 0.01,0.35 0.43,0.31 -0.09,0.12 -0.63,0.01 -0.37,0.4 0.26,0.46 0.75,-0.08 -0.51,0.53 -0.57,0.1 -1.68,-0.92 -1.68,-0.7 -3.02,-1.91 -0.74,-0.58 -0.79,-0.96 -0.56,0.02 -1.04,-0.31 -0.86,0.4 -0.46,0.4 0.41,0.26 0.13,0.58 1.01,1.21 0.37,0.25 0.29,0.53 -0.02,0.35 -0.16,0.11 1.18,1.77 -0.11,0.29 0.44,1.17 -0.09,0.2 -2.48,0.13 -0.37,-0.21 -0.08,-0.23 0.31,-0.16 -0.18,-0.73 -2.12,-1.93 -0.41,-0.72 -0.84,-0.62 -1.18,-0.55 0.33,-0.46 -0.94,-1.15 -2.96,-2.09 -1.48,-1.71 -0.12,-1.03 -0.32,-0.3 -1.31,-0.29 -0.04,-0.42 0.53,-0.55 -0.16,-0.49 -0.4,-0.47 -0.24,-0.23 -0.36,0.02 -0.47,-0.62 -1,-0.75 -0.31,0 -0.02,0.2 -0.18,0.04 -0.18,-0.11 0.07,-0.71 -0.78,-0.66 -0.71,0.04 -0.64,-0.55 -0.53,-0.13 0,0 0.18,-0.53 0.32,-0.05 0.57,-0.54 0.43,-0.08 0.51,-0.4 0.13,-0.51 0.81,0.05 0.11,-0.11 0,0 0.12,-0.06 z" 
                fill="rgb(151, 144, 238)" 
                stroke="white" 
                stroke-width=".7px"
                title="Lampung" 
                id="ID-LA" 
            />
        </svg>