<svg xmlns="http://www.w3.org/2000/svg" viewBox="503.7057100000002 81.82788499999995 79.17999999999984 87.87000500000005" width="79.17999999999984" height="87.87000500000005">
            <path 
                d="m 533.85571,169.61789 -0.51,0.08 -0.53,-0.3 -0.47,-0.59 -0.35,-0.72 -0.25,-1.65 -0.89,-1.29 -0.62,-2.48 0.44,-1.09 0.25,-0.4 0.36,-0.23 0.59,0.08 0.79,0.69 0.02,0.43 -0.53,1.47 -0.03,0.61 2.04,4.47 -0.31,0.92 z m -10.97,-11.5 3.77,0.32 1.31,-0.17 0.54,-0.32 3.94,-0.12 6.23,0.53 -0.25,0.38 -1.41,0.6 -4.7,0.53 -8.89,0.55 -2.06,-0.97 -0.13,-0.22 -0.01,-0.83 0.63,-0.73 0.59,-0.09 0.18,0.38 0.26,0.16 z m -8.31,-1.81 0.97,0.34 1.85,-0.5 2.98,0.71 0.48,0.98 0.03,1.67 -0.38,-0.13 -2.39,-0.08 -1.8,0.27 -0.45,0.23 -0.14,0.58 -0.38,0.12 -2.51,-0.82 -1.18,0.27 -1.64,0.97 -2.04,0.57 -0.87,0.18 -2.05,0.06 -1.33,-2.3 -0.02,-1.07 0.7,-2.15 0.48,-0.55 2.34,-0.46 1.81,-0.01 5.54,1.12 z m 50.59,-4.71 3.99,2.32 0.53,0.45 0.29,0.51 0.03,0.43 -0.36,0.76 -0.84,0.46 -0.53,0.06 -6.1,-0.48 -1.14,0.66 -1.66,0.25 -1.94,-0.89 -0.65,-0.53 -0.27,-0.44 0.28,-1.04 -0.07,-0.5 0.22,-1.05 0.37,-0.73 0.3,-0.34 0.32,0.25 2.91,-1.8 1.61,0.31 2.71,1.34 z m -4.58,-2.91 -2.06,0.19 -0.67,-0.45 0,-0.18 0.86,-0.79 0.7,-0.24 1.8,0.72 -0.63,0.75 z m -5.13,-7.96 -0.7,0.24 -2.02,-0.46 -0.13,-0.19 0.02,-0.49 0.58,-1.84 0.24,-0.24 0.42,-0.1 0.45,0.1 0.65,1.22 0.49,1.76 z m 4.38,-8.13 1.94,2.51 -0.31,0.95 -0.7,0.67 -0.38,0.81 0.06,0.48 0.73,1.14 0.54,0.31 0.63,-0.38 1.23,-0.18 1.1,0.49 0.77,1.02 -0.06,0.51 -1.34,1.1 -1.06,0.29 -1.36,-0.58 -1.21,-1.47 -2.12,0.9 -0.44,-0.15 -0.34,-0.6 -0.61,-2.67 -1.72,-1.82 -0.23,-1.01 0.53,-1.97 0.87,-0.22 0.72,0.64 1.19,-0.26 0.88,-0.71 0.69,0.2 z m -6.72,3.57 -1.15,-0.07 -0.16,-0.44 -0.02,-3.52 0.65,-0.47 1.6,-0.17 0.4,0.46 0.38,1.67 -0.46,2 -1.24,0.54 z m 11.9,-40.140005 0.47,0.17 0.33,-0.09 0.42,0.12 0.96,0.87 0.27,0.5 0.43,3.340005 -0.82,2.98 -1.41,2.47 -1.27,1.05 -3.16,2.16 -0.39,0.59 0.05,1.02 0.42,0.71 1.68,1.19 0.69,0.29 0.86,-0.13 1.26,-0.95 0.2,-2.27 0.79,-1.33 1.11,-0.85 0.88,-0.11 0.78,0.14 0.57,-0.29 0.49,-1.03 -0.15,-0.47 -0.33,-0.27 -0.43,-0.05 -0.21,-0.82 1,-1.59 3.22,-2.23 1.17,-0.49 1.84,-0.51 1.36,-0.200005 1.02,0.03 0.39,0.07999 0.26,0.24 -0.47,7.82 -0.58,0.67 -3.78,2.21 -2.54,0.74 -1.49,1.48 -0.01,0.44 0.42,0.85 1.08,0.93 0.87,0.5 4.13,1.49 0.75,-0.03 0.75,0.16 0.32,2.48 -0.17,0.88 0.66,0.48 1.87,0.5 0.78,0.64 0.53,1.02 -0.89,-0.66 -0.67,-0.25 -4.69,-1.1 -1.57,-1.32 -1.61,-0.01 -1.38,0.2 -1.14,-0.3 -0.59,-0.34 -0.34,-0.49 -1.5,-0.26 -2.01,-0.18 -0.63,0.38 -0.26,0.33 -0.47,2.33 0.48,0.38 0.3,2.37 -0.69,1.13 0.04,1.35 2.61,6.84 0.99,1.85 0.76,1.01 1.31,2.23 3.26,3.24 -2.07,-0.11 -0.51,-0.17 -0.38,-0.36 0.13,-0.35 -1.73,-1.32 -1.49,-0.61 -0.54,-0.44 -1.36,-3 -1.44,-2.4 -2.42,-1.36 -0.95,-1.46 0.64,-4.83 -0.22,-2.24 -0.55,-2.46 -0.65,-0.36 -0.83,-0.88 -0.76,-2.32 -0.07,-0.95 0.39,-1.96 0.73,-0.76 0.54,-1.08 -0.08,-0.52 -1.85,-0.55 -0.2,-0.3 0.26,-0.98 -0.47,-1.64 -1.4,0.26 -0.13,-0.39 0.11,-2.59 2.16,-3.91 0.13,-1 -0.15,-0.38 0.75,-3.76 2.14,-3.19 3.77,-4.02 0.66,-0.56 1.85,-0.01 -0.24,1.12 -1.61,2.44 -0.42,0.5 -0.47,0.15 -0.69,0.55 -0.09,1.56 0.33,0.38 z m 10.85,-4.18 -1.92,0.09 -1.91,0.47 -0.54,-1.42 -0.32,-2.51 0.1,-1.04 1.03,-1.92 0.95,-1.18 1.5,-1.46 2.22,-1.05 0.25,0.05 1.88,2.57 0.15,0.79 -1.28,3.75 -0.89,1.6 -0.98,1.12 -0.24,0.14 z" 
                fill="rgb(151, 144, 238)" 
                stroke="white" 
                stroke-width=".7px"
                title="Maluku Utara" 
                id="ID-MU" 
            />
        </svg>