<svg xmlns="http://www.w3.org/2000/svg" viewBox="410.2257099999998 266.16789000000045 108.33000000000027 50.11999999999955" width="108.33000000000027" height="50.11999999999955">
            <path 
                d="m 487.54571,308.45789 0.71,-0.08 0.12,0.16 -1.19,1.4 -0.37,0.13 0.13,0.18 1,0.14 0.21,0.82 -0.48,0.59 -0.94,-0.03 -0.59,0.29 -0.29,0.36 -0.77,0.29 -0.18,0.34 0.07,0.36 -0.37,0.86 -0.26,-0.09 -0.37,0.24 -0.48,-0.33 -0.39,-0.05 -0.5,0.28 -0.35,0.49 -1.76,0.09 -0.57,0.41 0.34,0.34 -0.29,0.53 -0.38,0.01 -0.12,-0.3 -0.46,0.04 -0.08,-0.16 -0.6,0.15 -0.12,0.37 -0.5,-0.3 -0.09,-0.49 0.14,-0.8 -0.46,-0.88 0.13,-0.37 0.85,-0.37 0.65,-0.04 0.63,-0.33 0.73,0.11 0.37,-0.22 0.78,-0.09 1.41,-1.37 0.51,0.04 0.48,-0.32 0.22,-0.65 0.44,0.03 -0.07,-0.4 0.83,-0.88 1.73,-0.78 0.2,-0.83 0.61,0.63 -0.33,0.24 0.07,0.24 z m -24.85,-1.04 0.71,0.12 0.16,0.18 -0.19,1.32 -0.3,0.35 -0.58,0.18 -0.57,0.6 -0.74,0.46 -0.61,0.1 -0.51,-0.25 -0.99,0.09 -1.1,-0.67 2.61,-1.46 0.22,-0.83 0.41,-0.25 0.67,-0.22 0.81,0.28 z m 26.17,-4.8 0.53,-0.11 0.09,0.45 -0.78,0.26 -0.12,0.38 -0.4,0.22 -0.17,-0.01 -0.01,-0.33 -0.44,-0.04 0.01,0.41 0.28,0.14 0.14,0.34 -0.09,0.29 0.13,0.34 -0.43,-0.06 0.11,0.28 0.2,0.07 -0.11,0.42 -0.4,-0.01 -0.14,-0.47 -0.19,-0.05 -0.38,0.07 -0.25,0.48 -0.15,0.02 -0.25,-0.44 0.07,-0.53 -0.15,-0.26 0.43,-0.58 0.52,-0.27 0.52,-0.87 0.15,-0.58 0.99,-0.39 0.22,0.33 0.07,0.5 z m -59.68,-13.46 0.37,0.25 0.47,0.87 0.42,0.37 0.49,0.15 1.01,-0.22 0.27,0.12 0.39,0.6 0.12,0.47 0.07,1.21 0.39,0.5 0.69,0.05 0.37,0.45 0.2,0 0.71,-0.4 1.72,-0.42 0.47,0.55 0.07,0.42 1.7,0.87 0.3,0.87 1.18,2.21 1.01,0.35 1.06,0.62 0.49,0.7 0.34,1.07 -0.22,0.8 -0.69,0.6 -0.47,0.07 -0.62,0.94 -0.86,0.57 -0.62,0.02 -0.42,0.35 -1.03,-0.2 -0.49,0.12 -0.91,0.47 -0.07,0.35 -0.25,0.27 -0.32,0.02 -0.79,-0.45 -0.57,-0.55 -1.45,0.05 -0.71,-0.12 -0.42,0.1 -1.11,-0.5 -0.74,-0.72 -0.37,-0.12 -0.74,-0.9 -0.44,-0.1 -0.15,-0.15 0.17,-0.35 -0.25,-0.62 -1.04,-1.19 -0.67,-0.2 -0.07,-0.32 -0.47,0 -0.05,-0.47 -1.28,-0.2 -0.27,0.07 -0.3,-0.45 -1.22,-0.81 -0.25,-0.3 -0.25,-0.75 -0.32,0 -0.31,0.23 -0.22,-0.37 -0.49,-0.2 -1.21,-0.17 -0.84,-0.3 -0.94,0.4 -0.27,0.5 -1.01,-0.52 -0.37,0.1 -0.22,-0.35 -1.55,-0.12 -0.57,0.1 -0.12,-0.15 -2,-0.67 -0.42,-0.3 -1.01,-1.37 -0.67,-0.5 -0.32,-0.55 0.64,-1.09 0.57,-0.55 0.67,-0.4 1.45,-0.35 1.13,-0.67 0.29,0.07 0.25,0.27 1.01,-0.5 0.49,-0.07 0.76,0.32 1.06,0 0.91,-0.3 1.26,0.32 0.79,-0.52 1.03,-0.02 0.74,0.52 1,0.22 0.34,-0.07 0.59,0.25 0.59,-0.55 1.18,-0.72 0.57,-0.84 0.2,-0.05 0.54,1.02 0.9,0.96 z m 85.11,-7.52 0.2,0.08 -0.3,0.63 -0.01,0.52 0.23,0.36 0.51,0.25 0.45,-0.01 0.67,-0.52 0.61,-0.17 0.32,-0.34 0.28,-0.63 0.41,0.45 0.26,0.05 0.61,0.51 0.02,0.85 -0.26,0.89 0.15,0.75 -0.69,0.08 -0.64,0.38 -0.03,0.14 -0.72,-0.56 -1.04,0.02 -0.28,0.57 -0.05,0.39 0.26,1.08 0.97,0.67 0.04,0.58 0.48,0.56 0.16,1.19 0,0 -0.91,0.65 -0.77,0.86 -0.17,1.64 -0.53,0.56 -1.11,0.46 -0.51,0.45 -1.46,1.86 -0.61,1.02 -0.67,0.25 -0.8,0.79 -1.89,1.1 -0.65,1.39 -1.42,1.07 -0.57,0.26 -0.48,0.01 -3.42,-0.29 -0.48,0.09 -0.46,0.19 -0.51,0.51 -0.16,0.44 -0.78,0.47 -0.28,0.37 -1.01,0.13 -1.19,0.54 -0.25,0.31 -1.29,0.4 -0.77,0 -0.9,0.22 -0.54,-0.26 -0.3,0.01 -0.71,0.35 -0.27,-0.35 -0.97,-0.38 -1.36,0.51 0.04,-0.53 0.23,-0.19 0.38,-0.82 -0.13,-0.69 0.58,-0.22 0.07,-0.66 1.49,-0.63 0.61,-0.04 0.55,-0.38 1,-0.38 0.49,-0.86 -0.2,-0.28 -1.01,-0.35 -0.3,0.12 -0.59,-0.1 -0.42,0.18 -0.23,0.35 -0.3,-0.09 -0.12,-0.19 -0.01,-1.81 0.36,-0.47 0.28,-0.1 0.33,0.09 0.4,-0.48 0.11,-1.07 -0.45,-0.66 0.49,-0.2 0.19,-0.35 0.04,-0.64 -0.23,-1.16 1.2,-1.24 0.77,-0.31 0.15,-0.6 0.3,-0.26 0.19,0.02 0.48,-0.39 0.62,-0.2 0.33,-0.6 0.54,-0.18 0.09,-0.34 0.39,-0.28 0.19,-0.43 0.33,-0.27 0.87,-0.06 0,0 0.88,1.19 0.46,-0.02 0.26,0.32 0.41,-0.11 0.2,-0.48 0.7,-0.42 0.21,0.04 0.83,0.81 0.25,0.61 -0.14,0.86 1.21,-0.28 0.23,-0.5 -0.22,-0.45 0.55,-0.68 -0.12,-0.25 0.11,-0.3 0.17,0.02 0.31,-0.4 0.49,-0.07 0.14,-0.43 0.3,-0.15 -0.12,-0.56 0.2,-0.43 0.04,-0.59 0.19,-0.24 -0.03,-0.31 0,0 0.45,0.12 0.85,-0.09 0.88,-0.31 1.51,-1.21 0.08,-0.56 0.79,-0.09 0.96,-0.7 1.07,-0.24 0.52,-0.45 0.87,-0.3 z m -88.95,-2.35 -0.42,-0.02 -0.01,-0.27 0.26,-0.27 0.25,0.14 -0.08,0.42 z m -2.21,-0.28 -0.05,0.15 -0.6,-0.24 0.44,-0.22 0.21,0.31 z m -1.1,-2.63 -0.24,0.15 -0.15,-0.13 -0.31,0.05 -0.15,0.28 0.27,0.28 -0.2,0.01 -0.41,-0.41 1.06,-0.68 0.15,0.07 -0.02,0.38 z m 0.7,-0.78 0.29,0.01 -0.01,0.61 0.19,0.69 0.1,-0.21 0.47,-0.04 0.02,-0.24 -0.33,-0.35 0.4,0.15 0.17,-0.46 0.37,0.12 0.35,-0.19 0.51,-0.01 0.23,0.18 -0.12,0.58 -0.7,0.13 -0.12,0.38 -0.22,0.17 -0.19,0 -0.04,-0.23 -0.2,0.01 -0.23,0.37 -0.08,0.37 0.48,0.18 0.15,0.3 -0.05,0.28 -0.6,0.67 -0.27,-0.01 -0.04,-0.34 -0.26,-0.26 -0.74,0.31 -0.21,-0.67 0.27,-0.86 0.24,-0.12 0.41,0.11 -0.15,-0.5 -0.23,0.21 -0.15,-0.08 0.18,-0.11 0.04,-0.36 -0.43,-0.8 0.32,-0.13 0.18,0.14 z m 47.22,-3.16 0.58,0.33 0.11,-0.2 0.11,0.18 -0.14,0.53 -0.43,0.36 -0.57,-0.16 -0.36,-0.44 0.05,-0.52 0.65,-0.08 z m -50.22,0.41 -0.01,0.47 0.18,0.11 1.15,0.21 0.38,-0.19 -0.04,0.65 0.15,0.26 -0.14,0.02 -0.22,-0.3 -0.09,0.19 0.17,0.26 0,0.69 0.22,0.1 -0.91,0.13 0,-0.48 -0.37,-0.08 -0.05,0.29 -0.34,0.33 -0.37,0.03 0.18,0.35 0.25,-0.03 0.2,-0.23 0.05,0.13 -0.16,0.25 -0.04,0.15 -0.13,0.21 -0.39,-0.06 -0.33,0.46 0.38,0.45 -0.14,0.37 0.41,0.23 -0.52,0.25 -0.61,-0.48 -0.52,0.22 0.09,-0.5 0.39,-0.33 0.09,-0.61 -0.04,-0.21 -0.36,-0.28 -0.2,0.09 0.24,-0.5 -0.25,-0.25 0.28,-0.48 0.2,0.05 0.38,-0.2 0,-0.39 0.19,-0.04 -0.02,-0.23 -0.32,-0.13 0.42,-0.3 -0.03,-0.2 -0.2,-0.1 -0.05,-0.47 0.5,0.12 0.06,-0.44 0.29,0.44 z m 63.8,-0.41 0.08,0.32 -0.33,0.28 -1.33,0.5 -0.46,-0.02 -0.36,-0.21 -0.72,0.61 -0.78,1.45 -0.46,0.27 -0.41,-0.04 -0.28,-0.47 0.25,-1.02 1.08,-0.58 0.06,-0.5 0.43,-0.44 0.39,-0.03 0.39,0.23 0.32,-0.23 1.37,0 0.39,-0.21 0.37,0.09 z m -24.91,-2.28 0.2,0.03 0.22,0.49 -0.1,0.34 -0.26,0.15 -0.77,-0.25 -0.17,0.13 -0.08,-0.1 0.19,-0.14 0.22,-0.6 0.31,-0.14 0.24,0.09 z m 25.8,-1.04 0.13,0.09 0.21,-0.26 0.22,-0.04 0.36,0.31 0.62,0.05 0.59,0.32 -0.29,0.47 -0.23,0.08 0.06,1.02 -0.28,0.6 -0.96,0.12 -1.05,-0.18 -1.87,0.44 -0.41,-0.16 -0.77,0.15 -0.05,-0.72 0.61,-1.06 1.2,-0.69 0.68,-0.59 0.66,0.09 0.43,-0.26 0.14,0.04 0,0.18 z m 18.17,1.97 -0.84,1.05 -0.15,1.07 -1.34,1.24 -1.03,0.15 -0.23,-0.16 0.2,-0.81 -0.55,-1.3 -0.8,-0.04 -0.68,0.5 -0.01,0.17 -0.56,-0.16 -0.01,-0.21 0.48,-0.54 0.33,-0.98 1.63,-0.93 0.51,0.3 0.04,0.67 0.17,0.15 0.39,-0.11 0.64,-0.67 0.19,-0.46 0.66,-0.38 0.72,-1.22 0.42,-0.35 0.64,-0.01 0.23,0.19 0.09,0.39 -0.44,0.82 0.08,0.98 -0.19,0.35 -0.59,0.3 z m -7.27,-2.47 1,0.12 0.44,0.63 -1.47,0.55 -0.63,-0.16 -0.72,0.28 -0.38,0.48 -0.07,0.47 -0.59,0.6 -0.07,0.32 -0.4,0.48 -0.36,-0.04 0.03,-0.25 -0.15,-0.08 -0.43,0.01 -0.54,0.58 -0.47,0.24 -0.15,0.38 0.38,0.48 0.11,0.5 -0.53,0.62 -0.58,-0.04 -0.28,-0.7 -0.21,-0.09 -0.72,0.32 -0.47,0.73 -0.39,0.11 -0.78,-0.31 -0.2,-0.4 -0.52,-0.28 -0.41,0.35 -0.88,-0.13 -0.19,0.24 -0.35,-0.3 0.03,-0.42 0.38,-0.01 1.28,-1.07 0.43,-0.85 0.82,-0.27 0.21,-0.23 0.78,-0.13 0.59,-0.42 -0.74,-0.75 -0.42,-0.07 -0.98,0.17 0.6,-0.73 0.45,-0.2 0.28,0.24 0.64,0.08 0.48,-0.48 0.58,-0.11 0.63,0.09 0.12,0.09 -0.24,0.25 -0.12,0.47 -0.75,0.86 -0.04,0.27 0.94,0.32 0.71,-0.56 -0.01,-0.32 -0.31,-0.15 -0.01,-0.43 0.5,0 -0.07,0.35 0.08,0.16 0.58,-0.5 -0.17,-0.7 -0.38,-0.13 0,-0.32 0.7,-0.09 0.23,0.12 -0.04,0.4 0.71,0.15 0.13,-0.15 -0.12,-0.46 1.52,-0.93 0.98,0.75 z m 11.71,-1.52 1.44,0.1 -0.18,0.33 -0.02,0.69 0.25,0.16 0.83,-0.5 1.68,-0.32 1.33,0.26 1.46,0.03 0.77,-0.36 0.84,0.18 0.64,-0.15 0.93,0.05 0.7,1.39 -0.08,1.14 0.12,0.51 -0.38,0.33 -0.92,0.25 -3,0.12 -1.57,0.61 -1.08,0.07 -1.36,-0.16 -1.07,0.69 -0.88,0.2 -0.26,-0.31 -0.56,-0.13 -1.21,0.71 -0.16,-0.03 -0.07,-0.31 -0.88,0.1 -0.39,-0.38 0.03,-0.35 0.1,-0.31 0.95,-1.14 0.05,-0.38 0.41,-0.13 0.79,-0.64 0.64,-0.08 0.54,-0.33 -0.16,-0.13 -0.66,0.12 -1.59,0.79 0.08,-0.48 -0.17,-0.38 0.96,-1.29 0.35,-0.37 0.76,-0.17 z m -27.53,-0.26 0.78,0.51 0.03,0.44 -0.2,0.56 0.28,0.33 0.05,0.6 0.68,0.69 0.02,0.41 -0.71,0.68 -0.29,0.05 -0.67,-0.38 -0.21,0.07 -0.58,0.85 0.23,0.57 -0.12,0.6 -0.46,0.07 -0.52,-0.36 -0.62,-0.17 -0.16,0.15 0.11,0.87 0.88,0.93 0.05,0.6 -0.21,0.37 -0.88,0.34 -0.84,-0.01 -0.11,0.41 -0.21,-0.16 -0.83,0 -0.84,0.52 -0.27,-0.08 -0.24,0.2 -0.48,0.07 -0.58,0.74 -1.97,0.65 -0.76,0.08 -0.53,-0.2 -1.08,0.26 -0.71,-0.23 -0.69,0.12 -0.35,-0.32 -1.05,0.04 -0.44,0.13 -0.3,0.43 -0.22,0.04 -0.5,0.5 -1.89,0.67 -0.96,0.02 -0.22,0.3 -1.19,0.48 -0.87,-0.07 -0.52,-0.41 -0.52,-0.07 -0.19,0.14 0.06,0.45 -0.15,0.35 -0.25,0.07 -0.31,-0.14 0.32,-1.03 -0.6,-0.24 -0.49,-0.4 -0.74,0.15 -2.52,-0.32 -0.24,0.04 -0.17,0.6 0.06,0.85 -0.43,0.42 -0.57,0.17 -0.71,-0.39 -1.36,0.14 -0.29,-0.15 -1.58,0.6 -0.92,0.61 -0.43,-0.02 -1.47,-0.49 -0.92,-0.75 -0.28,-0.8 -0.24,-0.09 -0.81,0.18 -0.34,0.75 -0.46,0.12 -0.95,-0.39 -0.81,-0.06 -0.89,-0.9 -2.6,0.02 -0.78,0.14 -0.24,-0.13 -1.23,0.63 -0.3,-0.18 -0.29,0.16 -1.15,-0.3 -0.81,-0.84 -0.33,-0.05 -2.23,0.61 -0.87,0.12 -0.42,-0.09 -0.36,0.38 0,0.32 -0.21,0.07 -0.42,-0.13 0.13,-0.27 -0.16,-0.09 0.01,-0.46 -0.8,-0.07 -0.15,-0.31 -0.52,-0.44 -0.06,-0.37 0.01,-0.25 0.09,-0.35 -0.1,-0.23 0.23,-0.46 0.01,-1.12 -0.22,-0.1 0.09,-0.33 0.48,-0.52 -0.05,-0.15 0.5,-0.17 0.32,-0.37 0.08,-0.55 -0.34,-0.44 -0.07,-0.39 0.42,-0.04 0.04,0.58 0.3,0.06 0.11,0.17 0.48,-0.32 0.24,0.01 0.4,-0.42 0.5,0.47 0.24,-0.36 -0.25,-0.14 0.02,-0.24 0.35,-0.56 0.51,0.04 0.24,-0.17 0.21,0.01 0.14,0.43 0.22,0.18 -0.18,0.36 0.38,0.04 0.21,-0.39 0.01,-1 0.63,0.29 0.25,-0.43 0.15,0 0.33,-0.74 0.24,0.04 0.49,-0.15 0.24,-0.25 0.49,-0.04 0.71,-0.03 0.78,0.2 0.71,-0.25 0.07,-0.47 0.19,-0.17 0.46,0.38 -0.01,0.33 0.4,0.24 0.85,-0.33 0.51,0.29 0.72,0.01 0.17,-0.22 -0.24,-0.27 0.11,-0.2 0.75,0.35 0.73,0.89 0.49,-0.04 0.43,0.38 1.17,-0.15 0.9,0.29 1.15,-0.01 0.53,-0.18 0.5,0.07 -0.03,0.35 0.13,0.13 0.5,-0.03 0,0.36 0.21,0.39 0.71,-0.1 0.65,0.28 0.63,0.04 0.38,0.26 0.43,-0.08 0.75,0.46 0.78,0.1 0.49,0.21 0.75,1.21 1.22,0.56 0.85,-0.45 0.25,0.31 0.33,0.13 0.21,0.53 0.51,-0.6 0.61,-0.2 -0.25,-0.22 -0.01,-0.35 0.17,-0.06 0.65,0.42 -0.22,-0.43 0.1,-0.82 0.21,-0.22 0.44,0.11 -0.03,0.36 0.4,-0.11 0.24,0.32 0.86,-0.31 0.89,0.09 0.28,0.19 0.51,-0.2 0.29,-0.31 0.28,0.22 0.89,0.04 0.28,-0.17 0.54,-0.74 -0.06,0.5 0.51,-0.44 0.49,-0.12 0.23,0.06 -0.27,0.81 0.09,0.67 0.92,-0.11 0.29,0.36 0.31,-0.25 0.96,0.45 1.21,1.21 1.15,0.28 0.6,-0.38 0.53,-0.1 1.5,-0.16 0.42,0.1 0.76,-1.05 -0.04,-0.39 -0.61,-0.54 0.22,-0.34 1.12,-0.32 0.3,-0.47 0.32,-0.09 0.14,-0.55 0.27,0.07 0.29,-0.27 0.53,0.15 1.2,-0.54 0.55,0.1 0.76,-1.11 1.11,-0.12 0.36,-0.23 0.36,-1.12 0.43,-0.26 -0.61,-0.34 -0.63,-0.01 -0.94,0.31 -0.41,0.68 -0.98,-0.19 -0.03,-0.13 0.47,-0.4 0.42,-0.74 0,-0.77 0.82,-0.21 0.62,-0.53 1.08,0.67 z" 
                fill="rgb(151, 144, 238)" 
                stroke="white" 
                stroke-width=".7px"
                title="Nusa Tenggara Timur" 
                id="ID-NT" 
            />
        </svg>