<svg xmlns="http://www.w3.org/2000/svg" viewBox="356.6057099999999 266.4178899999998 60.77000000000015 17.830000000000155" width="60.77000000000015" height="17.830000000000155">
            <path 
                d="m 416.33571,271.95789 0.12,0.32 0.67,-0.3 -0.04,0.16 0.29,0.34 -0.27,0.41 -0.33,-0.23 -0.14,0.32 -0.19,0.07 -0.15,-0.16 -0.15,-0.95 0.19,-0.11 0,0.13 z m -44.16,-0.61 0.05,0.4 -0.18,0.3 -0.07,0.7 -0.57,0.51 -0.42,1.71 -1.6,2.38 -0.22,0.58 -0.77,0.98 -0.1,0.58 0.65,0.02 0.5,0.35 0.37,0.08 -0.47,0.63 -0.62,0.2 -0.1,-0.18 -0.23,0.03 -0.45,0.3 -0.62,-0.02 0.47,-1.48 -0.85,0.18 -0.4,0.38 0.1,0.53 -0.1,1.03 -0.4,-0.03 -0.17,-0.35 -1.17,-0.4 -0.37,0.13 -1.12,-0.18 -0.27,0.23 -0.4,-0.1 -0.15,-0.75 -0.3,-0.05 -0.87,0.18 -0.25,0.23 -0.4,-0.08 -0.27,-0.23 -0.22,0.05 -0.13,0.38 -0.3,0.08 -0.6,-0.43 -0.55,-0.65 -0.38,0.08 -0.45,-0.2 -0.62,0 -0.35,-0.4 -0.2,-0.63 0.4,-0.75 0.35,-0.08 0.07,0.38 0.77,0.43 0.3,0 0.57,-0.58 0.42,-0.05 0.45,0.25 0.27,-0.2 0,-0.18 0.32,0.02 0.25,-0.25 0.15,-1.61 -0.05,-1.58 -0.55,-0.54 -0.17,-0.78 0.45,-0.65 0.82,-0.48 0.1,-0.5 0.3,0.1 0.05,-0.15 0.97,-0.43 0.5,-0.78 0.9,-0.7 1.65,-0.6 1.12,0.1 0.8,0.25 0.45,0.3 2.4,0.55 1.4,1.13 0.11,0.31 z m 15.05,-3.68 1.15,-0.07 0.44,0.25 0.09,0.21 -1.26,0.92 -0.84,1.84 -0.7,0.95 -1,-0.63 0.61,-1.24 -0.19,-0.38 -0.24,-0.01 0.1,-0.57 -0.09,-0.66 0.58,-0.47 0.74,-0.32 0.61,0.18 z m 25.53,1.79 -0.69,0 -0.49,-0.4 -0.04,-0.9 0.32,-0.55 0.51,-0.37 0.79,0.08 0.39,0.4 0.15,0.53 -0.26,0.7 -0.41,0.46 -0.27,0.05 z m -19.25,-2.66 1.12,-0.13 0.4,0.2 0.45,-0.08 1.3,0.5 0.05,0.85 0.32,1.03 0.52,0.55 0.22,0.05 0.38,0.95 1.2,0.63 0.32,0.02 0.38,-0.35 0.67,-0.2 0.3,-0.65 1.07,-0.88 0.7,0 0.28,0.28 0.87,0.03 1.55,0.48 0.52,0.85 0.08,0.53 -0.13,1.56 -0.4,0.6 0.08,0.43 0.62,-0.2 0.22,-0.4 0.13,-0.8 -0.27,-0.4 0.05,-0.43 0.45,-0.85 0.33,-0.4 1.02,-0.73 0.42,0 0.17,0.23 1.02,-0.08 1.6,0.4 -0.17,0.68 0.08,0.45 0.95,1.43 0.05,0.95 -0.54,0.25 0.06,0.37 -0.16,0.21 0.39,0.62 -0.03,0.79 0.28,0.18 0.41,0 0.4,-0.28 0.54,-0.1 -0.36,-0.56 0.39,0.05 0.25,-0.15 0.08,-0.35 0.32,-0.2 0.33,0.5 -0.13,0.68 -0.33,0.45 0.15,1.13 -0.65,0.53 -0.35,-0.1 -0.33,0.13 -0.9,-0.3 -1.2,0.23 -0.52,-0.65 -0.6,-0.4 -0.47,0.2 -0.15,0.35 -0.25,0.05 -0.8,-0.25 -0.62,0.05 -0.17,-0.18 -0.38,0.2 -0.2,0.38 -0.53,0.25 0.1,0.13 0.52,0.23 2.75,-0.02 0.8,0.45 0.17,0.45 -0.4,0.33 -1.37,0.18 -0.47,-0.13 -0.77,-0.5 -0.85,-0.2 -1.22,0.23 -2.22,1.03 -1.07,0.25 -1.25,-0.48 -0.33,-0.73 0.11,-0.64 0.65,-0.8 0.08,-0.35 -0.15,-0.28 0.25,-0.43 -0.17,-0.48 -0.28,-0.4 -0.15,0 -0.1,0.18 0.07,0.55 0.15,0.1 -0.13,0.28 -0.3,0.2 -0.42,-0.13 -0.38,0.58 -0.65,0.3 -0.13,0.53 -0.47,0.11 -1.37,1.38 -0.92,0.38 -0.82,-0.6 -0.3,0 -0.27,0.23 -0.73,0.05 -0.32,0.6 -0.5,0.25 -0.35,0 -1.07,0.63 -0.62,-0.23 -0.18,-0.2 0,-0.3 -0.65,0.2 -0.15,0.28 -0.52,0.03 -0.3,-0.25 -0.3,0 -0.47,0.13 -2.4,1.36 -2.37,0.8 -1.3,0.08 -1.65,-0.55 -1,0.05 -0.97,1.01 -1.67,0.4 -1,-0.35 -0.32,-0.4 -0.65,-0.13 -0.37,0.25 -1.92,-0.73 -0.79,-0.48 -0.3,-0.5 0.23,-0.3 0.05,-0.38 -0.13,-0.23 0.17,-0.85 0.33,-0.05 0.22,-0.23 -0.08,-0.4 0.77,-0.15 -0.15,-0.55 -0.65,-0.98 0.27,-0.23 -0.42,-1 0.67,-1.41 0.47,-0.13 0.1,-0.2 -0.22,-0.83 0.47,0.33 1.58,-0.25 2.32,-1.58 0.67,-0.88 0.5,-0.15 0.3,0 0.97,0.6 0.23,-0.05 2.95,1.2 0.2,-0.48 0.45,-0.4 0.62,-0.23 0.45,0.15 1.17,-0.13 0.25,0.28 0.4,0.02 0.47,0.48 0.62,-0.05 0.32,0.95 -0.15,0.25 -0.62,0.18 -0.08,0.18 0.18,0.25 0.47,0.23 0.9,-0.08 -0.32,-1.3 0.4,-0.13 0.37,0.95 0.55,0.02 0.05,0.45 -0.8,0.08 0.32,0.38 -0.1,0.6 0.32,1.21 0.3,0.45 1.5,-0.3 1.3,0.55 0.35,0 1.47,-1.21 1.37,-0.3 0.67,0.08 0.37,0.35 1.57,-0.63 -0.2,-0.75 -0.38,-0.1 -0.13,-0.35 -0.57,-0.15 -0.15,0.25 -0.35,-0.58 -0.62,-0.38 -0.3,-0.5 -0.37,0.1 -0.5,-0.73 -1.67,0.2 -2.92,-1.86 -0.8,-1.03 -0.92,-0.83 -0.17,-0.35 0.32,-1 1.15,-0.83 0.7,0.05 1.7,-0.8 0.55,0.38 z" 
                fill="rgb(151, 144, 238)" 
                stroke="white" 
                stroke-width=".7px"
                title="Nusa Tenggara Barat" 
                id="ID-NB" 
            />
        </svg>