<svg xmlns="http://www.w3.org/2000/svg" viewBox="674.4457099999987 138.01789000000002 117.85000000000116 146.56999999999994" width="117.85000000000116" height="146.56999999999994">
            <path 
                d="m 755.55571,272.15789 -2.51,-0.14 -2.81,-0.49 -0.36,-0.18 -0.21,-0.57 0.08,-0.21 2.73,-2.39 1.71,-0.48 0.23,0.05 0.27,0.88 1.28,2.71 0.02,0.34 -0.43,0.48 z m -4.89,-2.73 -2.6,2.13 -1.27,0.57 -1.38,0.28 -0.47,-0.05 -0.39,-0.32 -0.65,-0.18 -5.96,-0.4 -2.85,0.69 -0.51,0.35 -0.5,0.06 -0.24,-0.42 0.06,-0.52 1.62,-4.23 3.07,-5.93 1.96,-2.96 0.53,-0.57 2.98,-2.1 2.44,-0.96 4.78,-0.89 2.12,0.11 0.79,0.22 0.37,0.33 1.08,1.81 0.59,0.62 1.32,0.25 0.62,0.98 -0.96,2.7 -1.18,1.89 -0.54,2.73 -0.57,0.73 -1.15,1.06 -1.99,0.44 -1.12,1.58 z m 0.44,-26.51 0.61,0.5 1.3,0.24 0.82,1.21 -0.99,0.62 -0.75,-0.28 -1.16,-1.53 -0.13,-0.51 0.3,-0.25 z m -40.39,-86.82 2.86,0.57 5.96,0.44 1.59,0.67 0.09,0.16 -0.43,0.46 -3.22,0.55 -2.54,0.83 -5.61,-0.5 -4.02,-0.96 -0.89,-0.65 -1.03,-0.45 -2.55,-0.77 -1.02,-0.2 -1.13,0.08 -2.09,-0.34 -1.08,-1.28 0.93,-0.28 1.17,0.38 11.08,0.79 1.93,0.5 z m 44.47,4.67 1.2,0.01 1.96,0.66 6.25,2.86 6.46,3.36 1.79,0.26 2.55,-0.31 1.28,-0.61 0.99,0.06 0.17,0.54 0.69,0.85 1.91,0.88 0.92,-0.17 0.1,-0.27 1.66,0.03 2.67,0.39 1.57,0.56 0.34,0.26 0.12,0.41 -0.25,0.63 -0.47,0.49 -0.11,0.35 0.46,0.38 1.67,-0.47 2.48,-0.1 0.61,0.05 0.06,0.12 0,64.11 -0.68,0.07 -0.67,1.97 0.4,0.51 -0.07,0.34 -0.92,1.75 -0.53,0.53 -0.07,0.81 0.21,1.87 0.55,1.2 0.81,0.83 0.55,0.05 0.43,-0.23 0.02,38.79 -1.09,-0.68 -1.17,-0.32 -0.6,-0.42 -1.46,-1.85 -2.57,-2.39 -1.82,-2.97 -4.75,-4.06 -3.07,-2.25 -1.15,-1.31 -0.18,-0.29 0.12,-0.68 1.38,-1.15 1.25,-2.29 0.24,-0.93 -1.63,0.71 -0.28,1.17 0.05,1.05 -1.29,0.74 -0.86,0.31 -3.52,-0.01 -1.59,0.19 -1.58,0.91 -1.92,0.46 -0.9,0.05 -0.7,-0.08 -0.87,-0.55 -1,-1.4 -2.32,0.88 -1.91,1.4 -0.6,1.29 -0.5,0.06 -1.07,-2.05 -0.2,-0.87 1.17,-1.61 0.12,-2.16 0.2,-0.22 1.2,-0.57 0.24,-0.82 -0.04,-1.04 0.89,-2.23 0.66,-0.7 0.02,-0.51 -0.44,-0.44 -1.08,-0.4 -1.25,-0.87 -0.63,-1.45 -0.61,-0.75 -1.71,-1.13 -1.61,-0.82 -0.15,-0.4 0.21,-0.14 4.5,0.17 1.04,0.63 0.96,0.22 2.17,-0.22 0.81,-1.32 -0.81,0.36 -0.25,0.34 -2.06,0.19 -3.37,-1.03 -1.71,-0.78 -2.89,-2.55 -0.31,-0.4 -0.02,-0.55 0.61,-0.49 0.8,-0.02 0.95,0.33 0.73,0.02 1.1,-0.71 1.8,-0.22 1.28,0.44 1.12,1.12 1.02,0.64 0.51,0.14 0.86,-0.19 -1,-0.23 -0.7,-0.37 -1.24,-1.12 -0.53,-0.3 -0.85,-0.33 -0.95,-0.12 -3.47,-1.82 -0.26,-1.09 0.66,-0.19 -0.49,-0.66 -3.38,-3.24 -0.76,-1.01 -0.51,-1.14 -0.32,-1.1 0.05,-0.85 -0.48,-1.44 -1.2,-2.22 0.02,-2.02 -1.48,-0.41 -0.76,-0.66 0.41,-0.6 2.77,-1.35 -0.18,-0.15 -0.47,-0.01 -1.61,0.25 -0.99,0.57 -1.35,0.38 -0.25,-0.15 -0.32,-1.8 0.36,-3.26 -0.14,-0.5 -0.5,0.88 -1.52,-0.57 -2.95,-1.94 -0.49,-0.59 -1.51,-0.98 -0.94,-0.25 -0.58,-0.36 -0.08,-0.2 0.4,-0.36 -1.3,-0.01 -1.89,-0.85 -1.81,-1.31 -0.62,-0.74 -1,0.44 -3.58,-1.01 -3.13,-0.41 -0.41,-0.42 -2.9,-1.34 -4.7,-2.5 -1.76,0.02 -3.86,-1.56 -0.47,-0.42 -0.62,-0.92 -0.76,-0.31 -2.2,-0.11 -1.33,0.16 -5.17,-1.12 -1.66,0.14 -1.68,0.38 -0.96,-0.34 -3.7,-2.11 -1.63,-0.69 0,0 1.64,-2.37 1.06,-0.81 0.65,-1.38 1.06,-1.63 2.29,-2.84 -0.9,-0.41 -0.49,0 -1.22,-0.57 -2.86,-0.89 -3.02,-1.22 -6.45,-1.87 -1.96,-0.97 -1.39,-0.41 1.14,-2.52 0.98,-1.22 1.63,-0.97 0.24,-0.81 0,-1.14 1.55,-0.81 2.48,-2.27 0,0 0.61,2.49 0.47,0.36 0.71,-0.15 0.67,-0.48 0.09,-0.5 0.31,-0.37 0.45,0.04 0.12,0.65 -0.18,1.21 -0.49,0.45 -0.17,1.43 1.11,2.15 2.05,1.51 2.13,0.55 3.73,0.43 2.22,-0.42 0.95,-0.47 0.67,-0.64 0.26,-0.6 -0.03,-0.4 0.64,-0.78 0.49,-0.34 1.37,-0.4 0.92,-0.73 -0.03,-0.26 -0.42,-0.32 0.4,-0.51 2.48,-1.07 0.51,-0.79 0.32,-2.73 1.23,-1.46 0.4,-0.05 2.31,-1.08 1.25,-1.01 0.43,-0.75 1.09,-2.85 0.05,-0.66 -0.19,-0.79 0.39,-0.49 0.91,-0.63 1.27,-0.1 0.87,0.05 0.06,0.29 0.18,0.12 0.96,0.24 1.14,0.1 1.49,-0.13 1.46,-0.83 2.65,-1.17 1.31,-0.41 0.8,0.11 1.3,-0.22 0.78,-0.52 0.04,-0.29 -0.64,-1.8 -0.63,-0.29 -0.91,-1.04 0.19,-1.23 1.22,-0.64 1.25,-0.31 1.4,-0.61 2.5,-1.32 0.44,-0.53 1.55,-0.75 4.17,-1.47 0.52,-0.02 0.96,0.28 0.81,0.92 1.43,1.1 6.1,2.16 4.19,1 1.53,0.96 0.76,1.02 0.96,0.82 0.38,0.07 z m -68.19,-14.13 -0.97,-0.01 -1.13,-1.66 0.19,-1 0.5,-0.67 0.81,-0.05 0.73,0.35 1.08,1.11 -0.08,1.04 -0.49,0.69 -0.64,0.2 z m 9.63,-8.01 1.79,0.04 1.52,0.24 1.62,1.07 0.97,-0.75 0.54,-0.07 0.66,0.38 3.03,2.55 2.23,3.23 1.25,-0.22 1.72,0.77 0.36,0.36 -0.81,0.72 -1.29,0.72 -1.85,0.4 -1.04,-0.02 -0.87,-0.65 -0.48,-0.15 -1,0.05 -0.75,0.27 -0.59,-0.12 -0.88,-0.87 -0.78,-3.16 0.03,-0.92 -0.57,-1.23 -0.5,-0.05 -1.81,0.86 -1.79,-1.52 -0.66,-0.15 0.08,0.54 -0.42,-0.16 -1,-0.95 -0.62,-1.33 0.26,-0.49 1.65,0.61 z" 
                fill="rgb(151, 144, 238)" 
                stroke="white" 
                stroke-width=".7px"
                title="Papua" 
                id="ID-PA" 
            />
        </svg>