<svg xmlns="http://www.w3.org/2000/svg" viewBox="348.5957100000002 0.37788540000000026 67.71999999999974 56.21999959999998" width="67.71999999999974" height="56.21999959999998">
            <path 
                d="m 384.45571,12.917885 -0.36,0.04 -1.07,-0.26 -0.27,-0.31 0.13,-0.24 0.97,-0.08 0.68,-0.27 0.12,-0.23 -0.1,-0.21 -0.61,-0.08 -0.06,-0.24 0.18,-0.18 0.99,-0.25 0.42,0.3 0.4,0.67 -0.04,0.47 -0.21,0.26 -1.17,0.61 z m -11.24,0.77 0.28,0.13 0.42,-0.06 0.66,-0.28 3.21,-3.9699996 0.11,-0.31 -0.43,-1.17 0.02,-0.42 0.65,-0.77 0.36,-0.24 0.96,-0.15 0.57,0.19 1.23,0.78 0.06,0.98 -0.13,0.46 0.14,1.6199996 0.6,2.21 3.09,1.74 1.59,0.03 1.55,0.4 0.49,0.4 0.83,1.18 0.26,0.63 -0.29,2.25 -0.22,0.13 -0.66,-0.1 -0.51,0.2 -0.51,0.4 -0.21,0.48 0.03,0.25 1.05,1.54 0.21,1.84 -0.78,0.73 -2.2,0.76 4.83,-0.33 1.81,-0.65 1.73,-1.79 0.35,-0.09 0.72,0.72 1.32,2.69 -0.77,0.93 -0.69,0.12 -1.89,-0.18 -0.4,0.28 0.17,0.74 0.65,1.21 2.94,-0.08 0.53,-1.68 0.35,-0.29 1.42,-0.41 1.99,0.35 1.75,0.85 1.8,1.2 1.21,0.88 0.75,0.8 4.2,2.79 2.34,0.44 0.56,-0.15 0.5,-0.39 1.01,-0.13 0.85,0.69 0.64,1.01 -0.06,2.09 -0.84,1.29 -0.91,0.63 -1.75,0.73 -2.71,0.73 -3.66,1.46 -2.63,-0.27 -1.78,-0.7 -0.58,-0.54 -1.02,-0.09 -2.54,1.28 -1.16,1.27 -0.14,0.6 2.59,2.98 2.33,1.51 0.22,-0.31 0.18,-0.03 0.77,0.35 0.03,0.48 -0.34,0.46 0.73,0.65 0.6,-0.43 0.88,0.07 0.87,1.44 -0.26,0.39 -1.39,1.11 -2.49,0.05 -3.82,0.71 -1.01,0.3 -2.23,1.14 -1.56,-0.38 -0.74,-0.71 -2.94,-1.51 -1.1,0.36 0.39,1.49 -0.88,1.16 -0.15,0.5 0,0 -0.24,-0.17 -0.89,0.26 -1.21,-0.34 -0.24,-0.15 -0.4,-0.86 -3.02,-2.15 -0.53,0.21 -0.09,0.19 -0.64,0.16 -0.59,-0.11 -0.65,0.17 -1.11,-0.15 -0.34,0.39 -0.28,-0.3 -0.65,-0.06 -0.29,-0.23 -0.73,-0.18 -0.53,0.41 -0.69,0.2 -0.49,-0.28 -0.26,0.11 -0.38,-0.48 -0.41,-0.25 -0.26,0.5 -0.28,0.16 -0.31,0.1 -0.53,-0.16 -0.77,0.24 -0.25,-0.61 -0.38,-0.12 -0.41,-0.45 -0.54,0.67 0.05,0.62 -0.47,0.08 -0.37,-0.16 -0.23,0.54 -0.55,0.14 -0.19,-0.63 -1.17,-0.97 -1.52,0.35 -0.3,-0.18 -1.41,-0.21 -0.15,0.11 -0.13,0.64 -0.85,0.33 -0.39,0.76 -0.2,0.13 -0.65,-0.5 -0.11,-0.49 -0.27,-0.2 -1.51,-0.3 -0.33,-0.57 -0.53,0.19 -0.12,1.04 0.14,0.42 -0.72,0.6 -0.13,0.57 -0.41,0.11 -0.14,-0.33 -0.4,-0.06 -0.79,0.91 -0.37,-0.03 -0.33,0.67 -0.04,0.93 0,0 0,0.03 0,0 -0.34,-0.07 -0.55,-0.43 -0.31,-0.74 0.43,-1.1 0,-5.7 -0.62,-3.49 -0.49,-4.11 -1.71,-0.26 0,0 0.88,-0.36 0.5,-0.46 0.28,-1.91 -0.26,-0.4 -0.51,0.04 -0.77,-0.35 -2.17,-1.53 0.36,-1.58 2.56,-2.01 4.05,-0.05 0.95,-0.24 0.54,-0.52 0.8,-1.4 0.41,-1.77 2.29,-1.61 0.04,-1.03 0.64,-1.34 0.34,-2.59 3.78,-4.07 2.98,-2.25 0.11,-0.88 2.36,-2.71 -0.01,-1.25 0.24,-1.2699996 1.02,-2.1 0.66,-0.87 0.21,-0.09 1.14,1 0.12,0.28 0.34,2.52 -0.14,0.7999996 -0.72,0.93 -0.5,1.03 -0.07,0.73 0.12,0.3 z m 8.64,-12.7299996 -0.11,1.4 -0.45,1.03 -1.75,0.18 -0.89,0.54 -0.33,0.56 -0.22,0 -0.25,-1.14 0.18,-1.75 0.14,-0.21 1.29,-0.87 1.34,-0.32 0.8,0.15 0.25,0.43 z m -7.06,1.69 -0.31,0.66 -0.08,-0.08 0.46,-1.49 2.11,-1.36 0.29,0.77 0.01,0.72 -1.04,0.43 -1.44,0.35 z" 
                fill="rgb(151, 144, 238)" 
                stroke="white" 
                stroke-width=".7px"
                title="Sabah" 
                id="MY-12" 
            />
        </svg>