<svg xmlns="http://www.w3.org/2000/svg" viewBox="417.66571 159.38789 42.26999999999987 94.1" width="42.26999999999987" height="94.1">
            <path 
                d="m 444.96571,252.57789 1.11,-0.05 1.17,0.37 -0.33,0.47 -0.77,0.12 -3.17,-0.52 -0.43,-0.28 -0.01,-0.24 0.41,-0.27 0.97,0.31 1.05,0.09 z m -4.27,-4.15 1.12,0.55 0.46,-0.28 0.15,0.47 -0.25,0.81 -1.67,0.22 -0.61,-0.43 -0.22,-0.64 0.15,-1.19 0.42,0.11 0.45,0.38 z m -3.12,-10.68 -0.42,0.95 -0.34,-1.8 0.2,-1.27 -0.46,-2.48 -0.08,-4.31 0.39,-2.09 0.19,-0.34 0.23,-0.03 0.14,0.3 -0.02,0.65 0.46,0.83 0.7,2.68 -0.45,3.92 -0.54,2.99 z m -11.04,-76.1 0.4,0.54 0.34,-0.33 0.59,-0.13 0.92,-0.92 0.33,0.17 1.47,-0.13 0.13,0.58 0.84,0.38 1.8,0 1.34,0.58 0.8,-2.46 0,-0.42 0.29,-0.12 1.27,1.45 0.17,0.46 1.47,2.04 1.13,1.08 1.3,0.67 0.76,0.33 0.84,0 0.08,-0.33 0.46,-0.13 1.01,0.15 0.23,0.21 0.77,0.1 4.7,2 1.72,0.29 0.96,0.58 0.86,-0.07 0.68,0.12 1.27,0.98 0.62,0.21 0.83,0.06 0.67,1 0.45,-0.06 0.64,0.5 1.26,2.55 -0.62,0.17 -0.27,0.27 -0.77,1.49 -0.41,0.23 -0.25,0.76 0,0 -1.52,0.58 -1.1,1.14 -0.44,0.24 -1.2,-0.15 -1.09,-0.55 -0.17,-0.31 0,-0.33 0.31,-0.57 -0.6,-1.35 -0.39,-0.08 -0.72,0.2 -0.7,0.57 -0.39,-0.14 -0.45,-0.53 -0.58,-0.27 -1.64,-0.42 0,0 0.42,-0.46 -0.77,-1.11 -3.68,-0.97 -0.69,-0.05 -1.64,0.61 -1.83,1.09 -3.43,2.49 -2.96,1.84 1.14,3 1.33,0.97 0.58,0.24 0.52,0.88 -0.15,0.85 -0.08,3.5 0.57,1.33 0.32,2.23 -0.13,0.54 -1.16,1.86 -0.34,1.01 -0.18,3.35 0.77,1.06 -0.51,3.74 0.67,1.83 0.46,3.2 -0.54,1.82 -0.9,0.9 -0.52,0.32 -0.01,2.37 -0.73,2.79 2.04,3.47 1.37,4.59 -0.13,0.2 -0.83,-0.28 -1.01,-1.6 -0.36,-0.17 -1.87,0.52 -1.33,0.68 -0.83,0.24 -2.91,-0.58 -1.3,1.09 -0.25,0.75 -0.92,0.61 -1.93,-0.05 -0.31,-0.22 -0.24,-0.53 0.05,-0.28 -0.33,-0.38 -2.76,-0.96 -1.9,-2.82 -0.05,-1.1 0.46,-2.67 0.38,-0.8 1.2,-1.56 0.87,-2.18 0.08,-0.77 -0.38,-0.95 -0.19,-1.4 1.79,-2.95 0.49,-4.11 0.05,-2.35 -0.49,-3.72 -1.06,-1.71 -1.53,-2.99 0.55,-1.42 0.62,-0.86 -0.46,-1.39 0,0 -0.34,-1.87 -0.5,-1.17 -0.08,-0.92 -0.71,-0.67 0,-0.42 0.38,-0.29 0.38,-0.04 0.21,0.29 0.88,-0.25 0.25,-0.21 0.21,-0.58 0.67,-0.25 1.05,0.04 0.04,-0.38 -0.59,-0.67 -0.5,-1.17 0.29,-0.7 -0.1,-0.62 -0.26,-0.33 0.2,-0.88 0,-1.02 0.32,-0.75 0.75,0.29 1.05,-0.42 0.5,0 0.71,-0.79 0.21,-0.73 1.25,-0.92 0.23,-0.59 -0.1,-0.79 -0.2,-0.36 -0.56,-0.33 -0.92,-0.16 -0.16,-0.2 -0.26,-0.52 0,-0.85 -0.3,-0.33 -1.52,-0.73 0.04,-1.3 1.78,-1.28 0.46,-0.43 0.13,-0.36 0.72,-0.1 0.13,-0.33 -0.27,-0.89 1.02,-0.48 z" 
                fill="rgb(151, 144, 238)" 
                stroke="white" 
                stroke-width=".7px"
                title="Sulawesi Selatan" 
                id="ID-SN" 
            />
        </svg>