<svg xmlns="http://www.w3.org/2000/svg" viewBox="407.39571 141.43789 19.25999999999999 47.16999999999999" width="19.25999999999999" height="47.16999999999999">
            <path 
                d="m 421.30571,141.43789 0.11,0.9 -0.22,0.56 0.01,0.95 0.25,0.89 0.16,1.39 0.09,0.25 0.38,-0.08 0.03,0.51 -0.55,1.21 0.05,0.55 -0.19,0.38 -1.55,0.19 -0.19,0.37 0.55,-0.19 0.11,0.24 -0.57,0.33 -0.65,0.08 0.01,0.26 0.49,0.63 0.32,0.21 0.35,-0.06 0.38,0.56 0.64,-0.07 0.57,-0.46 0.36,0 0.76,0.44 0.57,0.55 -0.08,0.27 -0.55,0.56 0.29,0.85 1.04,0.98 -0.08,0.63 0.39,0.13 0.44,0.76 -0.33,0.4 -0.11,0.54 0.4,0.27 0.62,-0.09 0.55,0.24 0.31,-0.12 0.05,2.76 0.14,0.34 -0.36,0.21 0.24,0.89 0,0 -1.02,0.46 0.26,0.9 -0.13,0.33 -0.72,0.09 -0.13,0.36 -0.47,0.43 -1.77,1.28 -0.04,1.3 1.52,0.73 0.29,0.32 0,0.85 0.27,0.53 0.16,0.19 0.92,0.17 0.56,0.33 0.2,0.36 0.1,0.78 -0.23,0.59 -1.25,0.92 -0.21,0.73 -0.72,0.79 -0.5,0 -1.05,0.42 -0.75,-0.29 -0.33,0.75 0,1.02 -0.2,0.88 0.27,0.33 0.1,0.62 -0.3,0.7 0.5,1.17 0.59,0.66 -0.05,0.38 -1.05,-0.04 -0.67,0.25 -0.21,0.58 -0.25,0.21 -0.88,0.25 -0.21,-0.29 -0.38,0.04 -0.37,0.29 0,0.42 0.71,0.67 0.08,0.92 0.51,1.17 0.34,1.87 0,0 -2.39,-0.92 -1.01,-0.14 -1.26,1.1 -0.5,0.09 -0.98,-0.15 -1.43,0.29 -1.53,0.68 -0.46,0.59 -0.19,-0.09 -1.4,-3.2 -0.13,-0.77 -0.04,-4.6 0.26,-0.25 0.67,-2.89 -0.09,-0.38 -0.3,-0.29 -0.95,-0.17 -0.71,0.33 -0.19,-1.53 0.38,-1.65 0.36,-0.7 0.37,-0.23 0.7,0.56 0.71,0 1.74,-1.15 2.39,-2.36 0,-1 -0.36,-1.06 0.04,-0.81 0.24,-1.24 1.18,-3.31 0.45,-0.61 0.46,-0.25 0.73,-0.24 0.58,0.27 0.32,-0.64 0.27,-1.64 -0.14,-0.3 -0.51,-0.28 -0.12,-0.24 -0.47,-1.72 0.02,-0.51 0.43,-1.07 -0.46,-2.2 -0.1,-1.27 0.03,-0.25 0.66,-0.49 -0.2,-0.95 -0.23,-0.32 0.04,-0.29 0.74,-1.49 1.75,-1.51 0.44,-1.99 0.53,-1.37 0.28,-0.54 z" 
                fill="rgb(151, 144, 238)" 
                stroke="white" 
                stroke-width=".7px"
                title="Sulawesi Barat" 
                id="ID-SR" 
            />
        </svg>