<svg xmlns="http://www.w3.org/2000/svg" viewBox="443.83571000000006 174.57789 35.30999999999989 36.66000000000005" width="35.30999999999989" height="36.66000000000005">
            <path 
                d="m 446.92571,174.57789 1.63,0.42 0.58,0.26 0.45,0.54 0.39,0.14 0.7,-0.57 0.72,-0.21 0.4,0.08 0.59,1.35 -0.31,0.58 0,0.33 0.17,0.3 1.09,0.55 1.2,0.16 0.44,-0.24 1.11,-1.14 1.51,-0.58 0,0 2.65,1.08 1.98,0.56 0.64,-0.33 0.74,0.14 1.04,-0.05 0.44,0.23 0.51,0.68 1.08,0.21 0.16,0.33 -0.11,0.88 0.43,0.18 0.44,0.61 0.55,-0.1 0.42,1.04 0.53,-0.03 0.17,0.15 -0.11,0.21 0.13,0.43 0,0 -0.88,1.22 0.19,0.77 1.32,0.4 0.35,0.36 0.51,0.2 0.71,1.16 -0.15,0.41 -0.36,0.15 -1.82,-1.82 -0.61,-0.36 -0.75,-0.01 0.72,1.29 -0.42,1.26 -1.18,0.47 -0.03,0.39 0.83,1.32 1.66,1.2 2.21,1.22 -0.05,0.23 0.56,0.71 0.1,0.5 0.46,0.3 1.57,-0.14 0.61,0.1 0.1,0.4 -0.5,0.36 -0.16,0.97 0.66,0.34 0.11,0.36 -0.33,0.43 0.57,1.3 0.17,0.13 2.45,-0.18 -0.11,-0.42 -0.84,-0.61 -0.19,-0.42 0.21,-0.11 0.63,0.04 0.69,0.49 0.68,1.57 0.17,1.07 -0.13,2.76 -1.2,0.96 -0.79,-0.49 -1.68,-1.47 -0.3,0.05 -0.16,0.15 0.21,0.41 1.16,1.01 0.36,0.55 0.08,0.43 -0.28,0.34 -0.36,0.15 -0.3,-0.41 -0.56,0.26 -0.66,-1.32 -0.76,-0.5 -1.32,0.76 -0.76,0.25 -0.82,-0.1 -2.74,0.76 -0.75,-0.14 -1.33,0.74 -0.93,0.17 -0.62,1.16 -0.35,1.41 0.33,1.08 0.86,0.79 0.02,0.32 -1.25,1.3 -1.68,0.04 -1.53,-0.7 -2.06,-0.22 -0.56,0.27 -0.41,-0.1 -0.2,-0.41 -0.46,-0.3 -1.57,-0.61 -0.51,-0.5 -0.2,-0.51 -0.56,-0.56 -0.2,-0.45 0.25,-1.82 0.17,-0.14 0.58,-2.14 -0.09,-1.42 0.41,-1.16 0.51,-0.25 0.66,-1.42 -0.06,-1.41 -0.25,-0.56 -1.32,-0.51 -2.39,-0.35 -0.45,-0.35 -1.12,-1.62 -0.46,-0.2 -0.2,-0.36 0,-0.5 -0.51,-0.1 -0.61,0.1 -1.02,-1.36 -3.13,-2.72 -0.62,-0.79 -0.43,-0.2 -0.23,-0.68 -0.03,-0.82 0.36,-0.92 1.61,-2.19 0.7,-0.35 0.61,-1.54 -0.05,-2.32 0.15,-0.55 0.35,-0.45 0.02,-1.18 -0.19,-0.08 0.13,-0.38 -0.27,0.15 -0.24,-0.18 -0.12,-0.79 -0.13,0 -0.14,0.44 -0.57,-0.13 0.13,0.29 0.21,0.05 -0.04,0.23 -0.31,-0.03 -0.09,-0.71 -0.29,-0.21 -0.02,-0.21 0.47,0.15 0.47,-0.74 z" 
                fill="rgb(151, 144, 238)" 
                stroke="white" 
                stroke-width=".7px"
                title="Sulawesi Tenggara" 
                id="ID-SG" 
            />
        </svg>