<svg xmlns="http://www.w3.org/2000/svg" viewBox="482.6257100000001 48.977885000000015 65.85999999999996 73.270005" width="65.85999999999996" height="73.270005">
            <path 
                d="m 517.80571,102.64789 -0.89,1.24 -0.77,2.53 -1.01,1.83 -1.54,2.12 -1.32,0.57 -1.52,1.14 -1.2,1.17 -1.52,2.55 -0.41,1.12 -1.93,2.33 -2.09,1.07 -1.29,0.31 -1.01,0.01 -4.19,0.65 -2.95,0.7 -2.24,0.26 -1.02,-0.31 -2.22,0.02 0,0 0.27,-0.98 0.82,-1.43 -0.08,-1.01 0.16,-1.08 -0.31,-0.85 -0.54,-0.58 -2.02,-0.35 -1.21,-0.89 -0.62,-0.54 -0.27,-0.85 0.04,-0.46 -0.7,-0.7 -0.86,-0.23 -0.54,-0.39 -0.2,-0.81 0,0 2.33,-0.11 2.29,0.48 3,1 0.31,0.04 0.59,-0.34 3.84,0.91 1.58,-0.06 1.24,-0.73 5.33,-2.36 0.42,-0.53 0.83,-2.15 0.99,-0.4 2.68,0.17 0.23,-0.13 0.42,-0.58 -0.01,-0.61 -0.54,-0.32 -0.63,0.03 -0.26,-0.45 -0.03,-0.36 0.46,-0.78 1.13,-0.82 0.98,0.36 0.71,-0.05 2.02,-1.14 0.21,-0.54 -0.54,-1.05 0.05,-0.290005 2.62,-2.05 1.07,-0.09 1.71,0.49 0.68,0.55 -0.17,0.54 0.09,0.48 1.44,1.220005 -0.32,0.85 -0.6,0.35 -0.65,0.06 -0.32,0.25 z m 4.74,-20.790005 -0.21,0.07 -0.47,-0.2 -0.38,-1.48 0.45,-1.18 0.53,-0.24 0.55,0.33 0.12,0.26 -0.08,0.34 -0.75,0.85 0.03,0.45 0.38,0.56 -0.17,0.24 z m 3.02,-16.98 -0.22,0.56 1.01,1.29 0.17,-0.11 0.42,0.26 0.12,1.26 -0.64,0.96 -0.2,-0.14 -0.17,0.08 -0.09,0.62 -0.16,-0.11 0.02,-0.31 -0.33,-0.56 -0.5,0.02 -0.22,-0.29 -0.41,-0.12 -0.06,-0.29 -0.28,0.05 -0.3,-0.7 -0.03,-0.47 0.47,-1.04 -0.08,-0.16 -0.27,0 -0.11,-0.39 0.33,-0.12 -0.08,-0.14 -0.34,0.08 -1.17,-0.73 -0.22,-0.36 0.09,-0.92 0.73,-0.26 1.03,0.19 1.49,1.85 z m 19.42,-3.15 -0.29,0.05 -0.21,-0.3 -1.27,-2.8 -0.13,-1.03 0.27,-0.02 0.41,0.3 1.39,1.87 0.06,0.46 -0.23,1.47 z m 0.85,-3.22 -1.08,-0.15 -0.16,-1.28 0.72,-0.61 0.98,-1.85 0,-0.41 -0.21,-0.19 -1,-0.24 -0.17,-0.16 -0.29,-0.96 -0.04,-0.58 0.54,-2.47 0.35,-0.63 1.27,0.23 0.78,0.7 0.96,3.62 -0.78,1.17 -1.28,3.23 -0.59,0.58 z" 
                fill="rgb(151, 144, 238)" 
                stroke="white" 
                stroke-width=".7px"
                title="Sulawesi Utara" 
                id="ID-SA" 
            />
        </svg>