<svg xmlns="http://www.w3.org/2000/svg" viewBox="8.3557105 53.08788499999998 82.29999949999996 84.29000500000004" width="82.29999949999996" height="84.29000500000004">
            <path 
                d="m 55.59571,131.30789 0.42,0.04 0.71,0.82 0.52,0.91 0.04,0.51 -0.33,0.36 0.19,0.23 -0.15,0.8 0.11,0.46 -0.21,0.32 -0.25,0.09 0.36,0.76 -0.06,0.21 -0.21,0.11 -0.38,0.06 0.23,-0.63 -0.1,-0.13 -0.29,0.25 -0.33,-0.15 -0.23,0.08 -0.19,0.42 0.21,0.3 -0.1,0.25 -0.29,-0.4 -0.61,-0.42 -1.4,-0.48 0.59,-0.25 0.04,0.23 0.34,-0.02 0.21,-0.84 0.33,-0.23 -0.06,-1.16 0.21,-0.84 0.42,-0.36 0.44,-0.19 0.17,-0.42 -0.52,-0.72 0.17,0.03 z m -0.54,-4.25 0.1,0.23 0.32,-0.23 0,0.49 1.11,1.29 0.11,0.57 -0.13,0.36 0.27,0.53 -0.04,0.32 0.98,0.72 0.42,0.55 -0.08,0.91 -0.38,0.02 -0.06,0.23 0.27,0.61 -0.11,0.19 -0.5,-1.18 -0.29,-0.23 -0.99,-1.58 -0.25,-0.11 0,-0.4 -1.11,-1.37 0,-0.15 -0.32,-0.95 -0.96,-0.47 0.99,-0.46 0.65,0.11 z m 3.91,-3 1.02,0.1 0.51,-0.13 0.29,0.32 1.26,-0.25 1.04,0.99 -0.13,0.43 0.09,0.13 -0.41,0.08 -0.2,-0.21 -0.62,-0.1 -0.53,0.42 -0.38,0.05 -0.42,-0.18 -0.87,0.13 -0.9,-0.34 -0.89,-0.01 -0.32,-0.21 -0.11,-0.67 0.79,-0.54 0.66,-0.11 0.12,0.1 z m -18.92,-21.46 0.33,0.76 2.46,3.35 1.77,0.62 2.11,1.87 0.46,1.18 -0.7,1.61 -0.16,4.02 -0.28,0.5 -1.03,1.1 -1.93,-0.49 -0.34,-0.41 0.16,-0.31 -1.33,-3.39 -2.06,-2.14 -0.95,-0.05 -0.47,-0.21 -0.33,-0.97 -0.81,-1.55 -1.64,-2.7 -2.35,-2.29 0.75,-0.31 1.14,0.06 0.49,-0.13 1.39,-1.24 1.11,-0.23 1.49,0.54 0.72,0.81 z m 16.86,-4.050005 0.68,0.12 0.3,-0.51 0.43,0.25 0.39,0.69 -0.69,0.12 -1.27,-0.09 -0.71,-0.26 -0.19,-0.49 0.48,-0.63 0.59,0.25 0,0.55 z m -35.75,-11.74 -1.73,-0.16 -0.31,-0.19 -0.3,-1 -4.1,-2.69 -3.14,-1.12 -1.02,-0.19 -2.0199995,-1.93 -0.18,-0.6 0.09,-0.29 1.6199995,-2.03 1.61,0.31 1.96,2.43 0.57,0.26 1.24,0.18 1.95,2.1 2.31,1.59 1.46,0.6 0.48,0.71 0.01,0.46 0.43,1.11 -0.93,0.45 z m 29.74,3.28 0.61,-2.79 -0.53,-1.62 -0.83,-0.35 0.06,-0.71 -0.41,-0.56 -0.18,-1 0.24,-1.41 0.62,-0.21 -0.03,-0.26 -0.5,-0.5 -0.15,-0.65 0.06,-0.38 0.33,-0.5 -0.24,-0.29 0.03,-0.26 -0.95,-0.12 -0.59,-1.06 -0.92,-0.24 0,-1.06 -0.27,-0.88 0.03,-0.53 -0.21,-0.26 0.18,-0.12 0.62,0.06 0.09,-0.97 -0.62,-0.65 -0.06,-0.74 -0.5,-0.5 -0.59,-0.12 -0.09,-0.18 2.37,-0.65 0.24,-0.79 -0.38,-0.71 -0.27,0.12 -0.65,-0.44 -0.03,-0.44 -0.27,-0.56 0.33,-0.53 -0.56,-0.41 -0.21,-0.88 -0.74,-0.35 0.03,-0.74 -0.27,-0.18 0,-0.32 -0.47,-0.5 -0.33,-0.82 0.44,-0.62 1.48,-1.18 0.12,-0.35 -0.41,-0.74 0.09,-0.32 0.18,-0.03 0.56,0.38 0.15,-0.27 -0.06,-0.38 1.21,-0.65 0.24,-1.33 0.21,-0.29 -0.03,-0.97 0.47,-0.68 -0.15,-0.47 0.41,-0.24 0.03,-0.38 -0.3,-0.53 0.09,-0.21 0.38,0.09 0.56,-0.12 0.27,-0.12 0.06,-0.32 0.77,-0.21 0.8,0.15 0.4,-0.14 0,0 0.1,2.71 0.77,1.04 1.19,-0.04 1.49,0.64 1.11,0.66 0.82,1.3 1.74,0.44 0.35,0.59 -0.1,0.53 0.23,0.83 2.14,1.41 2.23,0.73 1.77,0.98 3.96,2.5 1.18,1.06 1.21,0.47 0.92,0.65 0.72,1.28 0.36,0.35 0.52,0.31 1.36,0.41 1.86,1.05 2.36,2.36 1.38,1.1 0.13,0.33 0.1,2.19 -0.14,0.6 -0.58,0.79 0.04,0.44 1.14,1.28 -0.27,0.26 0.51,-0.15 -0.31,-0.75 0.24,-0.46 -0.53,-0.4 -0.38,0.04 -0.03,-0.14 0.94,-0.63 0.4,0.07 0.71,0.77 -0.07,1.39 0.73,1.7 0.13,-0.02 -0.4,-1.63 0,-0.73 0.3,-0.53 0.59,-0.35 0.62,0.02 0.72,0.9 0.65,1.27 0.54,0.52 0.22,0.56 -0.4,1.27 0.12,2 0.71,1.57 0.16,0.94 -0.51,1.72 -0.24,2.98 -0.47,1.25 0,0.39 0.28,0.31 1.89,0.35 0.24,0.78 -0.32,0.27 -0.04,0.43 0.59,0.12 0.08,0.31 -0.12,0.39 0.16,0.31 -0.08,0.47 -0.43,0.710005 -0.08,0.39 0.24,0.24 -0.12,0.47 -0.83,0.71 -0.79,0 -0.04,0.39 -0.28,0.16 -0.59,-0.12 -0.47,0.12 0,0.35 -3,0.16 -0.39,0.27 0.04,0.39 0.24,0.24 0.24,-0.04 0.51,0.94 0.2,1.59 0.28,0.51 0.59,0.43 0.08,0.31 -0.63,0.08 -0.55,0.31 -0.04,0.43 0.39,0.16 0.35,1.02 -0.16,0.63 -0.24,0.27 -0.75,0.04 0,0.23 0.43,0.47 0.43,-0.04 -0.12,0.43 0.12,0.71 -0.28,0.2 0.51,0.74 0.55,0.43 -2.13,-0.71 -0.28,-0.35 -1.3,-0.47 -0.32,-0.71 -0.67,0.12 -0.39,-0.35 -0.28,-0.04 -0.59,0.35 0.08,2.08 -0.28,0.31 0,0.31 0.28,0.78 0.63,0 0.63,0.24 0.08,1.17 0.67,0.51 0,0.67 -0.67,0.82 -0.51,0.31 -0.71,0.12 -0.63,-0.04 -0.12,-0.2 -0.51,-0.12 -0.28,0.04 -0.83,0.43 -0.63,-0.47 -0.08,-0.39 -0.51,-0.67 -1.46,0.51 -1.06,-0.43 -1.22,0.78 -0.47,0.12 -0.87,1.61 -0.63,0.78 -0.79,0.08 -0.75,0.35 -0.93,1.39 -0.2,-0.06 -0.26,-0.21 0.32,-0.15 0,-0.87 -0.79,-0.48 0.42,-1.16 -0.58,-2.95 -1.17,-3.28 -1.23,-2.78 -2.17,-6.42 -1.33,-3.04 -0.83,-1.06 0.01,-0.33 0.19,0.01 0.45,0.48 0.19,0.08 0.19,-0.16 0.85,-1.330005 0.02,-0.83 -0.92,-1.36 -0.76,-0.62 -0.26,0.04 -0.23,0.27 0.5,0.15 0.21,0.68 -0.41,0.03 -0.74,-0.47 -2.04,-2.76 -0.56,-0.51 -1.45,-0.92 -3.43,-1.71 -1.55,-1.11 z" 
                fill="rgb(151, 144, 238)" 
                stroke="white" 
                stroke-width=".7px"
                title="Sumatera Utara" 
                id="ID-SU" 
            />
        </svg>