<svg xmlns="http://www.w3.org/2000/svg" viewBox="58.57571 111.51788999999997 56.78999999999991 73.19" width="56.78999999999991" height="73.19">
            <path 
                d="m 90.89571,179.85789 -0.03,0.6 0.27,0.53 -0.07,0.2 -1,0.13 -0.47,0.23 1.37,2.66 0.03,0.23 -0.4,0.27 -0.3,-0.17 -0.3,-0.66 -0.2,0.03 -0.43,-0.33 0.2,-0.17 -0.2,-0.33 -0.77,-0.27 0.17,-0.7 -0.2,-0.46 0.07,-0.6 -0.6,-0.8 -0.6,0.07 -0.67,-0.8 -0.67,-1.23 -0.03,-0.23 0.3,-0.6 -0.47,-1.92 0.07,-0.3 1.03,-0.37 1.37,1.73 0.9,0.53 1.2,1.53 0.5,0.37 -0.07,0.83 z m -5.5,-4.42 -0.03,0.4 -1,0 -0.07,0.17 -0.53,-0.46 -0.17,0.5 -0.23,0.13 -0.43,-0.37 0.13,-0.33 -0.37,-0.4 0.3,-0.96 0,-0.93 -0.37,-0.8 0.03,-0.56 -0.47,-0.3 0.27,-0.33 -0.1,-0.8 0.23,-0.33 0.5,0.1 0.73,1.03 1.03,0.63 0.3,0.43 0.7,0.3 0.47,1.06 0.37,0.4 -0.17,0.76 -0.63,0.23 -0.49,0.43 z m -7.48,-11.39 0.67,1.36 0.5,0.53 0.07,0.37 0.6,0.33 0.43,0.7 0.33,0.73 0,0.23 -0.17,0.13 -0.2,-0.07 0.03,-0.36 -0.2,-0.3 -0.23,0.2 -0.37,0 -0.23,-0.5 -0.8,0 -0.97,-0.83 -0.5,-0.2 -0.87,0.1 -0.27,-0.83 -0.27,-0.13 -0.73,-1.23 0.03,-0.23 0.23,-0.17 0.4,0.23 0.07,-0.13 -0.3,-0.4 -0.13,-0.9 0.17,-0.36 0.53,-0.43 0.6,0 1.33,1.13 0.25,1.03 z m -13.5,-20.57 0.33,0.99 -0.2,0.07 -0.2,-0.5 -0.13,0.1 0.4,1.29 1,0.8 0.1,0.76 0.63,0.76 0.03,0.4 0.43,0.7 -0.13,0.3 0.57,0.66 0.03,0.63 1.03,0.99 0.13,0.33 0.1,0.7 -0.27,-0.23 -0.33,0.03 0.4,0.53 0.73,0.27 0.1,0.27 -0.1,0.43 0.4,0.99 0.67,-0.23 0.47,0.66 0.1,1.46 -0.33,0.5 -0.6,-1.16 -0.13,0.03 0.2,0.99 0.27,0.56 -0.43,0.4 -0.37,-0.3 -0.77,-0.03 -0.43,0.13 -0.07,0.3 -0.57,0.1 -4.1,-2.22 -0.2,-0.56 -0.6,-0.53 0.2,-0.1 0,-0.23 -0.63,-1.23 -2.67,-3.94 -0.23,-0.66 -0.4,-0.23 -0.17,-0.3 -0.1,-0.43 0.37,-0.4 0.8,-2.15 -0.03,-1.06 0.63,-0.66 0.4,-0.1 0.43,0.2 1.13,-0.1 0.8,-0.3 0.67,-0.5 0.23,0.03 0.41,0.79 z m 16.52,-31.94 0.39,0.35 0.67,-0.12 0.32,0.71 1.3,0.47 0.28,0.35 2.13,0.71 -0.2,-0.15 0,0 1.06,0.43 0.47,0.73 -0.83,1.29 -0.09,0.94 1.27,2.64 0,1.15 0.15,0.44 0.27,0 0.92,-0.47 0.38,0.15 0.38,0.26 0.77,1.73 2.84,0.79 1.09,0.03 0.24,-0.38 1.09,-0.94 0.65,-0.23 0.35,0.09 0.18,0.24 0.38,1 -0.27,0.85 0,0.48 0.38,0.94 -0.09,0.85 -0.59,1.03 -0.33,-0.47 -0.21,0.03 -0.47,0.38 -0.03,0.35 0.27,0.88 -0.18,0.18 0.03,0.24 0.53,0.91 0,0 -0.12,0.29 0.12,0.5 0,0 0.33,0.5 0.53,0.29 0.06,0.62 0.21,0.32 0.47,0.03 0.56,0.44 0.27,-0.5 -0.15,-0.09 0.09,-0.15 0.86,-0.26 0.38,0.06 0.8,0.59 -0.03,0.68 -0.18,0.38 0.71,1.53 0.3,0.15 0.24,-0.06 0.35,0.41 1.12,0.47 0.12,0.41 0.65,0.26 0.44,0.56 1.71,0.61 0.09,0.09 -0.18,0.32 0.38,0.29 0.53,0.12 0.09,0.56 1.45,0.88 0.24,0.35 0.44,0.03 1.12,0.68 0.65,0.88 0.35,0.18 -0.03,0.29 1.27,0.35 0.5,0.32 0.89,0 0,0 0.24,0.15 0,0 0.03,1 0.15,0.12 -0.12,0.76 0.53,0.44 0.35,-0.26 0.12,0.09 -0.3,0.85 -0.83,1.03 -0.62,0.15 -0.33,0.24 -0.62,-0.03 -0.62,0.62 0.06,0.56 0.35,0.82 0,0.23 -0.41,0.47 0,0.21 0.41,0.35 0,0.23 -0.62,1.11 -2.01,1.23 -1.18,1.79 -1,0.26 -0.38,-0.35 -0.62,0.18 -0.56,-0.03 -0.53,0.26 -1.06,-0.03 -0.56,0.35 -0.68,-0.71 -0.15,0.03 -0.18,0.35 -0.5,-0.35 -0.18,0.03 0.21,3.64 0.15,0.41 0.47,0.5 0.15,0.5 0.35,0.41 0.71,0.32 0.38,0.73 0.56,1.68 0.18,1.65 0,0 -0.24,0.53 0,0 -0.8,0.97 -0.74,0.56 -1.09,0.44 -0.41,0.44 -1.61,1.11 0,0 -0.28,-0.54 -2,-2.21 -0.4,-1.59 -0.84,-1.17 0.04,-0.46 0.74,-0.67 0.3,-0.59 0.01,-1.18 -0.45,-1.67 -1.99,-2.86 -1.44,-1.76 -0.9,-2.38 -0.76,-0.78 0.36,-0.56 0.05,-0.6 -0.43,-0.98 -0.4,-0.27 -0.75,-0.1 -0.8,-0.75 -0.4,0.29 -0.38,-0.11 0.13,-0.62 0.44,0.07 -0.29,-0.67 -0.38,-0.11 -0.55,-0.84 -0.02,-0.29 0.33,-0.02 -0.33,-0.73 0.3,-0.35 0,-0.32 -0.55,-1.55 -0.26,-1.39 -0.28,-0.54 -0.44,-0.62 -2.83,-2.81 -0.72,-1.41 -0.66,-0.87 -2.3,-1.89 0,-0.23 -0.49,-0.71 -1.13,-0.68 -0.38,-0.84 0,-0.53 -0.69,-1.17 -0.22,-0.14 0.22,-0.66 -0.14,-0.36 0.19,-0.32 -0.58,-0.87 -0.9,-0.61 -0.58,-0.62 -1.35,-0.73 -2.28,-0.95 -0.69,-0.15 -0.42,-0.93 -0.36,-0.35 -0.8,-0.1 -1.11,0.41 -1.18,-0.42 0.93,-1.39 0.75,-0.35 0.79,-0.08 0.63,-0.78 0.87,-1.61 0.47,-0.12 1.22,-0.78 1.06,0.43 1.46,-0.51 0.51,0.67 0.08,0.39 0.63,0.47 0.83,-0.43 0.28,-0.04 0.51,0.12 0.12,0.2 0.63,0.04 0.71,-0.12 0.51,-0.31 0.67,-0.82 0,-0.67 -0.67,-0.51 -0.08,-1.17 -0.63,-0.24 -0.63,0 -0.28,-0.78 0,-0.31 0.28,-0.31 -0.08,-2.08 0.59,-0.35 0.28,0.02 z" 
                fill="rgb(151, 144, 238)" 
                stroke="white" 
                stroke-width=".7px"
                title="Sumatera Barat" 
                id="ID-SB" 
            />
        </svg>