<svg xmlns="http://www.w3.org/2000/svg" viewBox="498.80571000000003 270.6378899999999 56.39999999999992 20.440000000000055" width="56.39999999999992" height="20.440000000000055">
            <path 
                d="m 506.31571,285.45789 0.03,0.31 -0.19,0.24 -0.04,0.59 -0.2,0.43 0.12,0.56 -0.3,0.15 -0.14,0.43 -0.49,0.07 -0.31,0.4 -0.17,-0.02 -0.11,0.3 0.12,0.25 -0.55,0.68 0.22,0.45 -0.23,0.5 -1.21,0.28 0.14,-0.86 -0.25,-0.61 -0.83,-0.81 -0.21,-0.04 -0.7,0.42 -0.2,0.48 -0.41,0.11 -0.26,-0.32 -0.46,0.02 -0.88,-1.19 0,0 1.84,-0.67 0.56,-0.7 1.86,-0.7 3.25,-0.75 z m 48.01,-12.17 -2.76,2.21 -1.31,1.34 -3.94,1.3 -2.31,0.34 -1.29,0.62 -0.72,0.7 -0.34,0.84 -0.8,0.89 -2.6,0.43 -2.96,0.26 -3.63,2.38 -1.7,0.07 -1.08,0.28 -6.72,2.18 -1.12,0.66 -2.05,1.97 -1.42,0.21 -0.69,0.46 0,0 -0.16,-1.19 -0.48,-0.56 -0.04,-0.58 -0.97,-0.67 -0.26,-1.08 0.05,-0.39 0.28,-0.57 1.04,-0.02 0.72,0.56 0.03,-0.14 0.64,-0.38 0.69,-0.08 -0.15,-0.75 0.26,-0.89 -0.02,-0.85 -0.61,-0.51 -0.26,-0.05 -0.41,-0.45 -0.28,0.63 -0.32,0.34 -0.61,0.17 -0.67,0.52 -0.45,0.01 -0.51,-0.25 -0.23,-0.36 0.01,-0.52 0.3,-0.63 -0.2,-0.08 0,0 0.55,-0.4 2.12,-3.05 0.28,-1.37 0.62,-0.8 1.46,-0.43 3.37,-0.66 4.92,-0.72 2.35,-0.85 1.62,0.11 0.84,0.22 0.61,0.34 0.95,0.07 2.69,-0.44 0.93,-0.38 1.23,-0.85 0.93,-0.06 1.61,0.48 0.64,0.54 0.39,0.04 3.6,-1.08 2.2,-1.11 1.84,-0.62 3.35,0.15 1.81,1.11 0.02,0.64 -0.88,0.75 z" 
                fill="rgb(151, 144, 238)" 
                stroke="white" 
                stroke-width=".7px"
                title="Timor-Leste" 
                id="TL" 
            />
        </svg>