<svg xmlns="http://www.w3.org/2000/svg" viewBox="256.0357099999999 257.08788999999996 14.329999999999984 11.420000000000016" width="14.329999999999984" height="11.420000000000016">
            <path 
                d="m 270.32571,268.50789 -2.04,-0.09 -5.85,-2.13 -0.41,-0.33 -0.25,-0.48 -1.97,-0.62 -2.48,-1.28 -1.29,-0.48 0,0 0.58,0.03 0.31,-1.28 0.4,-0.24 0.2,-0.42 0.26,-0.1 0.34,-0.51 0.12,-0.88 -0.32,-0.28 0.18,-0.43 0.61,-0.16 1.26,0.13 0.29,-0.12 0.2,0.17 -0.03,0.59 0.26,0.14 0.57,-0.77 2.39,-1.88 0.81,3.89 0.32,0.06 0.43,0.4 0.36,-0.23 0.23,0.09 0.21,0.34 1.1,-0.23 0.14,0.14 0.24,-0.23 0.19,0.33 0.41,-0.05 0.17,-0.22 0.32,0.13 0.37,0.46 0.24,-0.27 0.29,0.17 -0.05,0.89 -0.29,0.84 0.02,1.1 -0.23,0.55 0.57,1.61 -0.05,0.75 0.23,0.18 0.32,-0.38 0.22,0.01 -0.24,0.61 0.08,0.11 0.18,-0.18 0.12,0.05 z" 
                fill="rgb(151, 144, 238)" 
                stroke="white" 
                stroke-width=".7px"
                title="Yogyakarta" 
                id="ID-YO" 
            />
        </svg>