<svg xmlns="http://www.w3.org/2000/svg" viewBox="380.65098000000006 645.442361937055 430.92186201415706 226.22176198142813" width="430.92186201415706" height="226.22176198142813">
            <path 
                d="m 647.31895,645.44927 c -0.0998,-0.015 -0.20722,-0.006 -0.32031,0.0312 -0.76109,0.25065 -1.19161,2.25419 -0.73828,3.43555 0.4647,1.21098 1.36193,0.90972 1.73633,-0.58203 0.36878,-1.46935 0.0211,-2.77963 -0.67774,-2.88477 z m 3.60742,2.13867 c -0.14765,0.007 -0.32452,0.0712 -0.52539,0.19531 -0.43439,0.26849 -0.40627,0.61426 0.0996,1.22461 0.63497,0.76608 0.7232,0.75805 0.88867,-0.0898 0.11309,-0.57948 0.0655,-0.98691 -0.10937,-1.1875 -0.0874,-0.10029 -0.20586,-0.1498 -0.35352,-0.14258 z m 3.23633,19.61914 c -0.076,0.014 -0.15502,0.0428 -0.24023,0.0879 -0.34084,0.18035 -0.77128,0.61764 -1.40625,1.3711 -0.87096,1.0335 -1.58203,2.07148 -1.58203,2.30664 0,0.94511 1.51342,0.33433 2.98828,-1.20508 1.26175,-1.31698 1.42987,-1.76199 0.87109,-2.30664 -0.20821,-0.20295 -0.403,-0.296 -0.63086,-0.25391 z m 129.74219,2.02149 c -0.2985,0 -0.54297,0.24446 -0.54297,0.54297 0,0.29851 0.24447,0.54296 0.54297,0.54296 0.29851,0 0.54297,-0.24445 0.54297,-0.54296 0,-0.29851 -0.24446,-0.54297 -0.54297,-0.54297 z m -140.12305,8.72656 c -0.12325,-0.0107 -0.25696,3e-4 -0.40234,0.0332 -0.58152,0.13161 -1.33865,0.61079 -2.26172,1.43555 l -1.69336,1.51172 2.36328,-0.22071 c 2.45641,-0.23014 3.27259,-0.83454 2.79688,-2.07421 -0.16308,-0.42499 -0.43299,-0.65339 -0.80274,-0.68555 z m 18.82031,0.5 c -0.46793,0 -0.81445,0.49023 -0.81445,1.15234 0,0.96241 0.1343,1.04105 0.81445,0.47657 0.44777,-0.37161 0.81446,-0.8904 0.81446,-1.15235 0,-0.26196 -0.36668,-0.47656 -0.81446,-0.47656 z m 148.61719,2.71289 c -0.79305,0 -2.34961,1.85437 -2.34961,2.79883 0,1.2457 1.91752,1.36029 2.38477,0.14258 0.44074,-1.14798 0.419,-2.94141 -0.0352,-2.94141 z m -168.89062,3.23242 c -0.51982,-0.025 -1.33817,0.42013 -1.70703,1.10938 -0.44611,0.83355 -0.41391,1.08593 0.14257,1.08593 0.79773,0 2.02735,-1.05288 2.02735,-1.73632 0,-0.22041 -0.10015,-0.35565 -0.25977,-0.41797 -0.0598,-0.0234 -0.12886,-0.0375 -0.20312,-0.041 z m 143.73242,2.20313 c -1.31178,0.0921 -2.47462,0.59498 -2.5957,1.44531 -0.13286,0.93301 0.15157,1.23114 1.35547,1.41211 4.89413,0.73563 6.49502,0.11214 4.72851,-1.83984 -0.7163,-0.79151 -2.1765,-1.10973 -3.48828,-1.01758 z m -81.5332,3.25781 c -1.57692,-0.009 -1.96115,0.9334 -0.83985,2.05469 0.7684,0.7684 2.0625,0.86344 2.0625,0.15234 0,-0.27363 -0.30655,-0.62007 -0.67968,-0.77148 -0.51057,-0.20716 -0.47593,-0.4183 0.13671,-0.85157 0.65612,-0.464 0.52314,-0.57728 -0.67968,-0.58398 z m 47.6875,8.31836 c -0.19469,-0.033 -0.33204,0.0871 -0.33203,0.32422 -10e-6,0.31613 0.24445,0.57617 0.54296,0.57617 0.2985,0 0.54102,-0.10861 0.54102,-0.24024 0,-0.13164 -0.24252,-0.38972 -0.54102,-0.57421 -0.0746,-0.0461 -0.14604,-0.0749 -0.21093,-0.0859 z m -7.86133,5.2832 c -0.33275,-0.0855 -0.91217,0.25789 -1.69727,1.04297 -1.07065,1.07068 -1.47201,3.76986 -0.67969,4.57617 0.66752,0.67926 5.3932,0.003 6.90626,-0.98828 1.94727,-1.27591 1.26791,-1.94149 -1.375,-1.34765 -2.76017,0.62014 -3.38043,0.2507 -2.94141,-1.74805 0.20518,-0.93412 0.11986,-1.44965 -0.21289,-1.53516 z m -93.00196,2.27539 c -0.35006,0.0516 -0.73319,0.43834 -0.86523,1.11914 -0.10387,0.53555 0.17233,0.90625 0.67773,0.90625 0.50347,0 0.85352,-0.4642 0.85352,-1.13086 0,-0.66134 -0.31593,-0.94613 -0.66602,-0.89453 z m 132.15821,1.44141 c -0.21639,-0.0224 -0.48998,0.25312 -0.60938,0.61133 -0.11941,0.35819 0.0754,0.55299 0.4336,0.43359 0.69964,-0.23322 0.82473,-0.97782 0.17578,-1.04492 z m -153.9668,2.99609 c -0.16512,-0.0295 -0.4383,0.0733 -0.86328,0.30078 -0.59702,0.31951 -1.08398,0.81747 -1.08398,1.10547 0,0.61297 0.15967,0.63574 1.3125,0.19336 0.47218,-0.18119 0.85742,-0.67719 0.85742,-1.10351 0,-0.30348 -0.0575,-0.46655 -0.22266,-0.4961 z m 91.26172,9.11524 c -0.24791,0.0841 -0.40234,0.43043 -0.40234,0.95508 0,0.69952 0.2761,1.08374 0.67968,0.94921 0.37314,-0.12438 0.67774,-0.55121 0.67774,-0.94921 0,-0.39801 -0.3046,-0.82484 -0.67774,-0.94922 -0.10089,-0.0336 -0.1947,-0.0339 -0.27734,-0.006 z m 66.89844,0.95508 c -0.29851,-10e-6 -0.54297,0.24445 -0.54297,0.54296 0,0.29851 0.24446,0.54297 0.54297,0.54297 0.2985,0 0.54297,-0.24446 0.54297,-0.54297 0,-0.29851 -0.24447,-0.54297 -0.54297,-0.54296 z m -139.95899,6.0625 c -0.25979,0.0279 -0.51201,0.13506 -0.71875,0.34179 -0.31803,0.31808 -0.42431,0.97887 -0.23633,1.46875 0.4345,1.13228 2.17347,0.83134 2.41407,-0.41797 0.162,-0.84117 -0.6796,-1.47628 -1.45899,-1.39257 z m 45.68164,2.73437 c -1.42041,-0.11381 -2.11808,0.73366 -1.24218,1.78906 0.9042,1.08951 2.91391,0.84024 3.14843,-0.39062 0.11951,-0.62704 -0.29033,-1.04672 -1.25586,-1.28907 -0.22994,-0.0577 -0.44747,-0.0931 -0.65039,-0.10937 z m 18.90625,7.22461 c -0.0705,-0.002 -0.14386,0.005 -0.2207,0.0215 -0.4098,0.0883 -0.90608,0.44997 -1.45703,1.15039 -1.24547,1.58338 -1.33253,2.21954 -0.57617,4.20899 0.72537,1.9078 1.54853,1.74493 2.48242,-0.49024 1.14922,-2.75046 0.82896,-4.85644 -0.22852,-4.89062 z m -173.28711,12.33984 c -0.33402,0.0477 -0.70922,0.34057 -0.87695,0.84375 -0.11816,0.35447 0.1719,0.64453 0.64453,0.64453 0.47264,0 0.85938,-0.38673 0.85938,-0.85937 0,-0.47922 -0.29293,-0.67663 -0.62696,-0.62891 z m 149.87891,8.54492 c -0.29851,0 -0.54297,0.3667 -0.54297,0.81446 0,0.44775 0.24446,0.8125 0.54297,0.8125 0.2985,0 0.54297,-0.36475 0.54297,-0.8125 0,-0.44776 -0.24447,-0.81445 -0.54297,-0.81446 z m 26.25391,4.10352 c -0.25022,0.0174 -0.50373,0.0896 -0.72852,0.22852 -0.38434,0.23751 -0.52195,0.71604 -0.30664,1.06445 0.46914,0.75909 2.01818,0.55204 2.30469,-0.30859 0.13248,-0.39793 -0.1427,-0.72585 -0.5625,-0.88477 -0.2099,-0.0795 -0.45682,-0.11697 -0.70703,-0.0996 z m 26.93554,7.29492 c -0.29851,0 -0.54297,0.24252 -0.54296,0.54102 0,0.29851 0.24445,0.54297 0.54296,0.54297 0.2985,0 0.54297,-0.24446 0.54297,-0.54297 0,-0.2985 -0.24447,-0.54102 -0.54297,-0.54102 z m -143.0625,8.73438 c -0.1638,0.006 -0.4025,0.0316 -0.7207,0.0684 -0.72289,0.0834 -1.41423,0.45694 -1.53711,0.83008 -0.30403,0.92318 0.52116,0.85277 1.79688,-0.15235 0.51011,-0.40191 0.76409,-0.60783 0.73047,-0.69531 -0.0168,-0.0437 -0.10573,-0.0569 -0.26954,-0.0508 z m 133.875,5.45312 c -0.15689,-0.004 -0.34607,0.0488 -0.55468,0.17774 -0.32319,0.19977 -0.43394,0.61212 -0.2461,0.91601 0.22909,0.37075 0.53209,0.3605 0.92188,-0.0293 0.3483,-0.3483 0.38816,-0.69923 0.23633,-0.89844 -0.0759,-0.0996 -0.20053,-0.16162 -0.35743,-0.16602 z m -85.27343,0.49219 c -0.59607,0.0724 -1.2741,0.44308 -1.60352,1.05859 -0.45708,0.85404 -0.4136,1.08594 0.20703,1.08594 1.38179,0 2.50586,-0.63578 2.50586,-1.41601 0,-0.57553 -0.51331,-0.80088 -1.10937,-0.72852 z m -33.1836,1.65625 c -0.0714,-10e-4 -0.12144,0.0159 -0.15234,0.0547 -0.12361,0.15511 0.0686,0.64 0.52344,1.51953 0.46309,0.89552 1.08025,1.62695 1.37109,1.62695 0.95987,0 0.55113,-2.12036 -0.51953,-2.69336 -0.60764,-0.32519 -1.00845,-0.50381 -1.22266,-0.50781 z m -73.52148,0.11914 c -0.34436,-0.009 -0.63819,0.0581 -0.8086,0.22852 -0.32412,0.3241 -0.42515,0.85321 -0.22461,1.17773 0.46209,0.74773 3.55665,0.78017 3.55665,0.0371 0,-0.69759 -1.49035,-1.4155 -2.52344,-1.44336 z m 72.2832,1.45508 c -0.48567,0 -0.67663,0.3166 -0.48633,0.8125 0.17182,0.44776 0.53226,0.81445 0.79883,0.81445 0.26657,0 0.48438,-0.36669 0.48438,-0.81445 0,-0.44776 -0.35849,-0.8125 -0.79688,-0.8125 z m 12.16016,2.82617 c -0.64855,0.0203 -1.20841,0.8659 -0.86914,1.75 0.17952,0.46783 0.5851,0.84961 0.90234,0.84961 0.87914,0 1.30997,-1.61972 0.61523,-2.31445 -0.20549,-0.2055 -0.43225,-0.29192 -0.64843,-0.28516 z m -130.76563,5.31445 c -0.72365,0 -1.08593,0.36229 -1.08594,1.08594 0,1.19518 0.0673,1.23371 1.3125,0.75586 1.22988,-0.47194 1.06147,-1.8418 -0.22656,-1.8418 z m 198.93946,8.14063 c -0.99028,0 -1.43546,1.35947 -0.68946,2.10547 0.83424,0.8342 1.30064,0.76429 1.69141,-0.25391 0.40375,-1.05223 -0.0278,-1.85156 -1.00195,-1.85156 z m -16.89649,6.74414 c -0.82861,-0.0571 -1.33605,0.13292 -1.50391,0.57031 -0.22343,0.58228 0.23301,1.19973 1.42383,1.92578 1.8705,1.14048 2.51952,1.26385 3.87891,0.74219 1.25362,-0.48105 1.05,-1.79629 -0.36133,-2.32812 -1.45787,-0.54935 -2.60889,-0.85309 -3.4375,-0.91016 z m -94.93359,5.04297 c -0.2985,-0.0653 -0.62855,0.48434 -0.73242,1.2207 -0.10387,0.73636 -0.65294,1.92858 -1.22071,2.65039 -0.56777,0.7218 -1.0332,1.66724 -1.0332,2.09961 0,1.23053 1.23682,0.51927 2.60351,-1.49805 1.22994,-1.81548 1.4378,-4.24171 0.38282,-4.47265 z m 68.65625,3.95312 c -0.29851,0 -0.54297,0.24446 -0.54297,0.54297 0,0.2985 0.24446,0.54102 0.54297,0.54102 0.29851,0 0.54297,-0.24252 0.54297,-0.54102 0,-0.29851 -0.24446,-0.54297 -0.54297,-0.54297 z m -213.43555,2.44336 c -0.53073,0.0507 -1.25787,0.29415 -2.22656,0.72266 -2.61951,1.15874 -3.31217,1.91143 -2.85547,3.10156 0.7109,1.85258 6.30664,-0.30338 6.30664,-2.42969 0,-0.82296 -0.21784,-1.27566 -0.75781,-1.38086 -0.135,-0.0263 -0.28989,-0.0306 -0.4668,-0.0137 z m 207.42969,0.8125 c -1.38159,0 -3.2207,0.93986 -3.22071,1.64649 l 0,0.002 c 10e-6,0.66976 1.1778,0.66569 2.94922,-0.008 1.67119,-0.63538 1.83779,-1.64063 0.27149,-1.64063 z m 10.89062,0 c -0.29851,0 -0.54297,0.38033 -0.54297,0.84571 0,0.4654 0.24446,0.6962 0.54297,0.51171 0.29851,-0.18449 0.54297,-0.56676 0.54297,-0.84765 0,-0.28089 -0.24446,-0.50977 -0.54297,-0.50977 z m -146.75195,2.77149 c -0.70079,0.0273 -0.87305,0.28442 -0.87305,0.95312 0,0.59404 0.42683,1.19436 0.94922,1.33399 1.68736,0.45102 2.57813,0.10671 2.57813,-0.9961 0,-0.81954 -0.42273,-1.11875 -1.76368,-1.24804 -0.36402,-0.0351 -0.65702,-0.0521 -0.89062,-0.043 z M 440.3502,828.252 c -0.29851,0 -0.54101,0.38034 -0.54101,0.84571 0,0.46541 0.2425,0.69424 0.54101,0.50976 0.29851,-0.18449 0.54297,-0.56481 0.54297,-0.8457 0,-0.28089 -0.24446,-0.50977 -0.54297,-0.50977 z m 169.82227,0.54102 c -0.71671,0 -1.21336,1.45475 -0.83399,2.44336 0.40368,1.052 3.06055,1.08592 3.06055,0.0391 0,-0.87818 -1.4384,-2.48242 -2.22656,-2.48242 z m 50.18164,0.57031 c -0.39566,0.0712 -0.73633,0.44155 -0.73633,1.0586 0,0.59702 0.32466,1.08593 0.72266,1.08593 1.02087,0 1.42068,-0.52253 1.08007,-1.41015 -0.2215,-0.57722 -0.67075,-0.80553 -1.0664,-0.73438 z m -249.61524,3.33594 c -0.77907,0.0168 -1.84776,0.42168 -3.08398,1.26172 -2.2956,1.5599 -3.26795,3.05323 -2.79297,4.29101 0.72454,1.88809 5.60642,-0.004 6.80664,-2.63867 0.6902,-1.51482 0.51188,-2.488 -0.25195,-2.80273 -0.19096,-0.0787 -0.41804,-0.11692 -0.67774,-0.11133 z m 83.54883,0.56055 c -0.79369,0.005 -1.29101,0.46078 -1.29101,1.26562 0,0.50715 0.57306,0.78125 1.6289,0.78125 1.87585,0 2.26537,-1.35301 0.54688,-1.89844 -0.32312,-0.10255 -0.6202,-0.1501 -0.88477,-0.14843 z m 64.14063,3.67578 c -0.13164,0 -0.38974,0.24446 -0.57422,0.54297 -0.18449,0.2985 -0.0778,0.54101 0.23828,0.54101 0.31613,0 0.57617,-0.24251 0.57617,-0.54101 0,-0.29851 -0.1086,-0.54297 -0.24023,-0.54297 z m -68.03321,0.60156 c -0.0908,-0.008 -0.19163,0.011 -0.29687,0.0527 -0.63146,0.25027 -1.44336,1.30464 -1.44336,2.125 0,1.51986 1.55496,1.2309 1.95508,-0.36328 0.19083,-0.76016 0.20132,-1.52718 0.0234,-1.70507 -0.0668,-0.0668 -0.14752,-0.1015 -0.23829,-0.10938 z m 6.30469,6.64258 c -0.0982,0.006 -0.1984,0.0224 -0.30078,0.0488 -1.22855,0.31701 -2.65524,2.03151 -2.01562,3.0664 0.56558,0.91514 1.83856,0.5034 2.75195,-0.89062 0.62886,-0.95975 0.7335,-1.55751 0.34179,-1.94922 -0.21141,-0.21142 -0.4826,-0.2926 -0.77734,-0.27539 z m 107.33203,4.15234 c -0.91207,0 -1.40234,0.2974 -1.40234,0.85157 0,0.5657 0.39694,0.79486 1.17969,0.67968 1.73757,-0.25567 1.9229,-1.53125 0.22265,-1.53125 z m 45.79883,1.75977 c -0.64343,0.0184 -1.24565,0.77049 -0.82617,1.44922 0.20056,0.32452 0.58048,0.58984 0.84375,0.58984 0.83831,0 1.22978,-1.15692 0.60351,-1.7832 -0.18717,-0.18718 -0.40661,-0.262 -0.62109,-0.25586 z m -160.07031,0.41211 c -1.01486,0 -2.19141,1.43675 -2.19141,2.67773 0,1.0192 1.53902,0.61761 2.41211,-0.6289 1.11515,-1.5921 1.06646,-2.04883 -0.2207,-2.04883 z m -95.10352,1.53125 c -0.78548,-0.01 -1.59862,-6e-5 -2.42969,0.0312 -2.94872,0.11109 -11.57617,9.01077 -11.57617,11.9414 0,2.68604 3.09479,0.80373 7.0293,-4.27734 3.14419,-4.06043 5.26546,-5.11435 10.06641,-5 2.08954,0.0498 4.26128,0.15688 4.82617,0.23828 0.56488,0.0814 1.13648,-0.16168 1.26953,-0.53906 0.46155,-1.30918 -3.68714,-2.32797 -9.18555,-2.39453 z m 270.38867,2.81054 c -1.08126,0 -1.41268,0.57755 -0.7246,1.26563 0.66102,0.66101 1.80859,0.3751 1.80859,-0.45117 0,-0.45228 -0.48095,-0.81446 -1.08399,-0.81446 z m -7.07617,14.70118 c -0.17704,0.0285 -0.34366,0.19402 -0.53711,0.5 -0.2815,0.44526 -0.51553,0.99291 -0.51953,1.21679 -0.0128,0.6269 1.50904,0.48123 1.91992,-0.18359 0.20057,-0.32452 0.0829,-0.87217 -0.26171,-1.2168 -0.23682,-0.23681 -0.42453,-0.34486 -0.60157,-0.3164 z" 
                fill="rgb(151, 144, 238)" 
                stroke="white" 
                stroke-width=".7px"
                title="Spratly Islands" 
                id="VN-PG" 
            />
        </svg>