<svg xmlns="http://www.w3.org/2000/svg" viewBox="0 46.86 75.60000000000002 92.65999999999995" width="75.60000000000002" height="92.65999999999995">
            <path 
                d="m 9.4,46.86 0.05,0.76 0.4,0.55 0.65,0.36 -0.2,0.49 0.48,0.82 -0.02,0.83 0.56,0.04 0.22,0.81 1.22,0.41 0.36,0.45 -0.12,1.05 0.28,0.46 0.08,0.79 -0.33,-0.27 -0.27,0.75 1.22,1.24 0.64,0.15 0.2,0.82 1.18,0.57 0.42,0.61 -0.05,0.4 0.9,0.84 0.91,1.7 0.94,0.99 0.29,1.06 0.52,0.43 0.96,0.57 0.53,-0.05 0.52,-0.91 0.8,-0.05 1.36,1.16 0.8,0.29 -0.01,2 0.47,0.54 0.42,0.13 0.39,0.67 0,0 0.55,-0.05 0,0 1.2,0.46 0.62,-1.42 0.34,-0.29 0.09,-0.56 -0.53,-1.59 -1.27,-0.93 0.7,-0.49 0.8,0.87 0.87,0.42 0.93,0.04 1.43,1.69 -0.34,1.72 -0.48,0.4 0.16,1 -0.17,0.42 0.31,0.81 0.93,0.79 0.24,-0.04 0.65,0.89 -0.28,0.55 0.1,0.19 1.72,0.73 0.53,0.47 1.61,-0.04 0.47,0.35 0.38,-1 0.55,-0.14 0.54,0.32 1.26,-0.88 1.12,-0.27 0.11,0.53 -0.39,0.52 0.09,0.42 0.72,0.19 0.86,0.88 0.21,0.47 -0.14,0.23 0.3,0.36 0.94,0.26 0.52,-0.59 0.22,-0.85 0.54,0.1 0.57,-0.32 0.68,0.38 0.49,0.03 0.94,-0.78 1.65,0.32 0.04,-0.48 -0.33,-0.26 0.71,-1.72 0.99,0.4 0.24,0.7 0.93,0.82 0.28,-0.07 0.08,-0.38 1,-0.21 1.37,0.64 0.8,-0.09 1.6,1.13 2.07,0.59 0.39,-0.24 0.02,-0.38 -0.83,-0.98 -0.1,-0.46 0.55,-0.65 0.16,-1.24 1.08,-0.32 -0.07,-0.64 0.52,-0.43 0.14,-0.58 0.68,-0.56 2.92,-0.17 0.19,0.13 -0.01,0.72 0.73,0.77 0.84,3.15 0.46,0.38 0.26,0.58 0.43,-0.17 0.49,0.23 0.72,1.54 0,0 -0.73,0.61 0,0 -0.05,0.35 0.66,0.72 0.4,0.85 1.21,0.6 0,0 0.42,0.79 -0.36,0.3 -0.04,0.36 -0.62,0.38 0.24,0.23 -0.35,0.3 -0.16,1.01 0.4,0.33 -0.17,0.46 0.27,0.31 0.14,0.84 0.75,0.14 0.83,0.63 0.37,1.43 0.59,0.56 -0.19,0.54 0.5,0.99 -0.27,1.1 0.87,0.85 0.17,0.66 0.55,0.58 1.31,3.28 -0.2,0.25 -0.55,-0.45 -0.33,0.08 -0.76,0.79 -0.34,0.78 -0.73,0.47 0.91,1.15 -0.56,1.26 -0.46,0.18 -0.1,0.47 -0.39,0.32 0.15,1.03 -0.67,0.28 0.08,0.95 -0.2,0.7 -0.88,0.01 -0.87,0.62 -1.26,0.19 0.05,0.33 -0.46,0.6 -0.19,0.78 0.4,1.45 -0.48,0.98 0.12,0.38 -0.37,0.31 -1,0.04 -0.28,0.2 -1.25,-0.53 -0.75,0.05 -0.08,0.34 -1.16,0.26 -0.54,-0.26 -0.66,0.82 0.49,0.8 0.87,0.71 0.16,0.84 1.21,0.21 0.2,0.24 -1.09,1.72 1.4,0.82 1.81,0.32 0.59,1.47 -0.08,1.15 -0.39,0.74 0.22,0.61 -0.14,1.75 0.25,0.95 -0.22,1.33 -0.24,0.27 -0.75,-0.12 -0.33,0.62 -0.63,0.4 0.34,2.3 0.39,1.01 0.89,1.04 -1.2,0.47 -1.64,-0.15 -1.94,-1.51 -2.15,-0.37 -0.3,0.18 0.21,0.54 -0.13,0.32 0.62,0.93 -1,-0.2 -0.02,0.2 -0.27,-0.05 0.06,0.92 0,0 0.3,0.36 0,0 0.48,1.03 -0.41,0.23 0.07,0.33 -0.41,0.6 0.28,0 -0.08,0.14 0.32,0.24 0.63,1.5 -0.02,1.01 -0.78,0.11 -0.45,0.59 0.17,0.76 0.49,0.74 -0.46,0.55 -0.46,-0.28 -1.3,0.48 -1.39,-0.09 0,0 -0.38,-0.32 -1.28,-0.16 -1.07,-0.67 -0.47,0.62 -1.32,-0.1 -0.65,0.16 0,0.38 -0.32,-0.01 -0.32,-1.72 -0.18,-0.34 -0.55,-0.05 -0.32,-0.31 -0.11,-1.53 -1.33,-1.94 -0.16,-0.65 -0.86,-1.27 -0.27,-1.05 -0.94,-0.38 -0.81,0.21 -1.44,-0.37 -0.6,-0.76 0.33,-0.73 -0.34,-1.04 -1.09,-0.9 0.48,-0.68 -0.66,-0.95 -0.45,-0.24 -0.26,0.32 -0.92,-0.51 0.27,-0.79 -0.27,-0.58 0.37,-0.75 -0.21,-1.07 -0.31,-0.53 -0.5,-0.68 -1.43,-0.64 -1.12,0.51 -0.9,0.09 -0.56,-0.32 -0.21,-0.65 0.35,-0.45 0.9,-0.41 0.46,-0.74 0.47,-0.34 2.26,-0.29 0.15,-0.73 -0.51,-0.84 0.33,-1.31 0.1,-0.51 -0.16,-1.09 0.74,-0.84 0.5,-0.42 0.18,-1.29 0.93,-1.41 -0.85,0.01 -0.53,0.59 -0.04,0.44 -0.48,0.21 -0.84,0.41 -0.71,0.15 -0.2,-0.23 0.43,-0.52 -0.05,-0.45 0.34,-0.91 0.33,-0.42 0.87,-0.59 -0.01,-0.34 0.32,-0.96 0.93,-1.13 0.67,-0.67 0.74,-1.04 0.46,-0.69 1.4,-1.09 -0.21,-0.95 -0.04,-1.1 -0.32,-0.69 -0.1,-0.52 -0.08,-0.35 0.5,-1.76 -0.51,-0.39 -0.07,-0.4 0.51,-0.53 0.03,-0.47 -0.8,-1.23 -0.05,-0.46 -0.36,0.04 -0.63,0.85 -2.67,0.59 -0.76,0.34 -0.51,0.53 -1.08,-1.04 -0.09,-1.22 0.03,-1.41 0.15,-0.77 0.04,-0.82 -0.33,-2.34 -0.46,-0.39 -1.18,0.22 -0.53,1.1 0.62,1.27 -0.25,0.93 0.4,2.65 -0.56,0.19 -0.27,0.73 -0.67,0.63 -0.51,0.05 -1.24,1.71 -0.69,0.62 -0.53,0.33 -0.6,-0.28 -1.74,0.03 -0.64,0.47 -0.29,-0.06 -0.68,-1.4 -0.21,-1.69 -0.68,-1.13 0.12,-1.73 0.73,-1.63 -0.74,-1.01 0.1,-1 -0.41,-1.14 -0.42,-0.72 -0.27,-0.39 -0.86,-0.44 0.25,-1.02 0.26,-0.28 -0.4,-0.97 -2.44,-1.09 -1.48,-1.16 -1.69,-0.85 -0.94,-1.19 -0.04,-0.37 0.29,-0.66 0.75,-0.13 0.64,-0.46 L 19.61,76.26 19.17,76 18.43,76.11 17.86,75.74 17.22,74.72 15.65,73.98 15.48,73.03 15.56,72.41 15.23,71.6 14.68,71.64 13.86,70.97 12.73,70.89 12.54,69.62 11.48,68.86 10.74,68.99 10.13,68.81 10.07,67.65 9.35,66.73 8.9,66.5 8.43,66.87 7.48,66.56 7.1,65.76 6.79,65.49 6.82,64.89 5.17,64.74 5.18,63.87 4.63,62.81 4.74,62.21 3.64,62.02 2.56,61.19 1.91,60.98 2.04,60.14 2.83,59.28 2.5,59.07 1.95,59.15 1.72,58.92 1.22,57.94 1.5,57.16 0,55.8 0.48,54.35 0.80999996,54.05 2.29,53.81 3.56,54 l 0.51,0.3 1.23,0.29 0.84,0.33 0.17,-0.95 -0.89,-1.65 0.77,-0.31 0.07,-0.59 0.41,-1.2 2.34,-2.84 0.14,-0.47 z" 
                fill="rgb(151, 144, 238)" 
                stroke="white" 
                stroke-width=".7px"
                title="Điện Biên" 
                id="VN-71" 
            />
        </svg>