<svg xmlns="http://www.w3.org/2000/svg" viewBox="186.1995100000001 0.12311000000002648 211.14000000000004 126.86999999999998" width="211.14000000000004" height="126.86999999999998">
            <path 
                d="m 203.58951,60.87311 0.82,0.34 0.12,1.06 0.89,0.45 -0.94,0.17 -0.83,-0.85 -0.17,0.43 1.56,1.56 0.36,-0.33 1.18,1.93 0.56,2.32 -1.33,1.52 -1.6,-0.65 -0.08,-0.87 -3.79,-4.31 -1.63,-2.73 0.12,-0.37 1.18,0.47 2.54,-0.8 1.04,0.66 z m 8.05,-0.15 1.3,4.39 -0.5,0.37 0.26,1.36 -2.18,0.09 -0.27,-0.15 -1.05,-0.06 -0.9,-1.24 0.36,-1.45 -0.33,-0.74 -1.11,-0.74 -0.56,-1.37 -1.43,-0.2 1.04,-0.67 0.59,-1.6 0.82,-0.63 2.61,1.12 1.35,1.52 z m 131.14,-31.83 0.32,1.49 -0.69,0.95 -0.11,-1.01 -1.2,-1.16 1.21,-0.88 0.47,0.61 z m -11.43,-5.42 1.41,0.08 0.42,0.49 -0.56,0.49 0.31,1.07 -0.77,-1.51 -0.81,-0.62 z m -4.97,-5.51 0.7,0.39 0.23,-0.02 1.1,-0.86 1.5,3.22 -1.43,-1.48 -0.77,-0.15 -0.62,0.39 -1.6,-2.53 0.89,1.04 z m -40.16,-1.93 0.28,0.52 -0.73,0.37 -1.62,2 -1.44,-0.17 -0.78,-1.31 0.17,-1.05 1.92,-0.52 0.23,-0.37 0.98,1.24 0.87,-0.47 -0.33,-0.99 0.45,0.75 z m -25.82,-3.5 0.39,0.04 0.8,2.79 1.17,1.61 1.55,6.27 0.9,1.35 -0.22,0.62 -1.49,0.04 -0.18,0.37 -2.03,-0.64 -1.78,-1.35 -0.35,-0.71 -0.41,0.08 -1.6,-3.5 1.02,-1.36 -0.09,-0.73 0.73,-1.05 0.3,-1.68 0.56,-0.52 0.48,-1.7 0.25,0.07 z m 56.03,2.47 -1.82,-1.27 -0.32,-1.91 2.14,3.18 z m -12.23,-10.25 0.8,0.92 0.68,-0.26 0.29,0.62 1.73,0.38 0.21,0.82 0.71,0.04 0.09,0.71 1.55,1.71 0.46,1.16 -0.1,0.73 -0.82,0.71 -0.5,-1.01 -2.36,-0.9 -0.6,0.62 -0.92,0.17 -0.14,0.99 -0.65,-1.74 1.79,-0.99 -0.91,-1.2 1.19,0.79 0.08,-0.86 -0.86,-0.41 -0.42,-0.88 -0.11,0.79 -0.46,-1.39 -0.98,-0.34 -0.19,-0.75 0.44,-0.43 z m 68.93,-3.87 1.12,-0.17 -0.5,1.43 0.29,0.77 0.67,-0.11 0.1,1.13 0.92,-0.37 0.01,-0.36 0.24,-0.67 2.52,2.27 1.11,1.35 -0.84,0.84 0.36,1.56 0.61,0.66 1.37,0.15 0.26,0.52 -0.66,1.46 -0.76,0.51 1.01,2.51 0,3.61 -0.43,0.81 1.27,0.81 1,-0.45 1.11,0.41 0.32,1.03 1.38,-0.17 0,0 1.01,1.53 -0.9,1.57 -3.39,1.4 0.48,1.66 -0.17,1.25 1.6,0.45 -0.08,0.62 1.33,2.5 1.48,11.47 1.26,0.32 1.9,-0.19 0.24,1.51 0.6,0 0.85,1.08 0.06,0.75 -1.18,2.14 0.5,0.91 -0.54,0.69 1.1,1.08 0.16,2.16 1.89,2.07 0.96,1.88 0.69,2.88 -0.28,1.73 1.02,4.77 -0.46,1 1.17,3.6 -0.36,1.02 0.79,1.41 -0.9,0.76 -3.09,0.5 0,0 -0.53,-0.83 -1.01,-0.2 -0.63,-1.82 -0.59,-0.35 -6.83,-0.63 -1.25,-0.8 -1.77,-0.13 -0.65,0.2 -2.38,2.39 -2.93,0.24 -1.29,-0.52 -1.96,1.82 -0.75,-0.43 -1.91,0.46 -0.55,0.52 0.74,0.8 -0.17,1.45 -0.46,-0.07 -0.92,0.95 -0.68,-0.67 -0.11,0.24 -2.26,-1.19 -1.73,-1.71 -0.72,-0.22 -1.9,0.28 -2.69,1.91 -2.82,-1.2 -3.21,0.07 0.41,1.02 2.91,3.02 0.67,3.13 1.61,2.94 -2.66,5.92 0.28,0.31 -1.04,1.3 -1.08,0.5 -1.47,3.29 -0.49,0.07 -0.38,1.29 -0.82,0.43 0.95,1.98 -1.31,2.22 -0.18,1.29 3.44,1.64 0.68,0.81 -2.7,5.79 -1.29,-1.11 -0.39,-1.64 -0.66,-0.89 -1.47,-0.57 -2.79,2.49 2.05,3.24 -0.9,6.89 -2.52,2.84 -1.6,-1.29 -1.04,0.37 -1.24,3.24 0,0 -0.72,0.48 -2.52,-1.23 -0.5,0.22 -0.29,-0.97 0.25,-0.81 -1.27,-0.2 -0.35,-0.77 -1.15,-0.61 0.92,-0.72 -0.37,-0.64 -0.71,-0.24 -0.22,0.28 -0.89,-0.74 -2.48,-0.04 0.16,-0.85 0.77,0.11 -0.12,-0.37 -3.12,-0.55 0.28,-0.55 -1.07,-1.84 1.14,-0.61 -2.01,-3.23 0.42,-1.25 1.34,-1.38 -1.4,-0.52 -0.82,0.17 -1.99,-1.42 -1.07,0.44 -0.74,-1.42 -0.68,0.55 -2.61,0.06 -4.19,-1.53 -2.32,-2.77 -0.24,-1.16 -1.44,-1.46 -0.6,-1.86 -1.15,0.7 -1.25,-1.42 -0.6,0.63 -1.65,-0.2 -3.53,-1.96 0.45,-1.11 -0.47,-0.22 -0.07,-3.98 -1.72,0.37 -0.16,-1.33 -0.01,-2.92 0.72,-4.09 -1.53,0.63 -2.7,-0.67 -2.54,0.52 -0.65,0.59 -3.75,-0.07 -0.51,4.76 -1.05,-0.11 -0.48,-1.33 -0.83,-0.87 -0.8,-0.04 -0.2,-0.43 -0.78,0.33 -1.83,-2.41 -0.99,0.85 0.36,1.04 -0.38,0.15 -0.47,-0.85 -0.63,0.33 -0.56,-0.24 -0.67,-0.98 -1.27,0.7 -0.43,-0.37 -2.41,-0.04 -0.28,1.07 -1.04,-0.24 -0.85,2.31 -2.54,2.55 -2.72,-0.54 0.04,2.66 -0.96,2.5 -0.12,1.55 1.84,2.44 -3.48,1.16 1.25,0.98 0.34,1.37 1.37,-0.11 -0.01,5.46 -0.29,-0.26 -1.11,0.46 -1.02,-0.74 -4.89,-0.68 -2.56,0.57 -1.99,1.11 -6.15,0.17 -0.35,0.83 -0.68,-0.04 -1.5,-1.12 -0.43,1.25 0.69,1.4 -1.19,1 0.31,0.44 1.3,-0.63 0.18,0.85 -0.37,0.59 1,1.48 -1.74,0.96 -0.31,-0.76 -1.14,0.37 -0.29,0.65 -0.71,-0.55 -0.31,1.46 -0.92,0.41 -0.66,1 0.37,0.92 0.45,-0.02 -0.07,1.16 -0.9,0.53 -0.49,-0.4 -0.53,0.65 0.67,1.9 -0.28,0.83 -1.67,-0.71 -0.22,-1.77 -0.78,-0.5 -1.22,0.04 -1.99,1.51 -1.14,-0.2 -2.36,-3.13 -2.02,1.23 -0.78,1.2 -1.61,-1.22 -2.69,4.38 -2.04,1.03 0.24,1.33 -1.26,0.31 0,0 -0.71,-2.45 0.13,-2.06 7.45,-7.37 -0.38,-0.55 -0.94,-0.22 -0.23,-1.51 -2.75,-1.66 -0.02,-0.66 -1.45,-1.72 0.83,-0.29 -0.79,-1.72 0.79,-0.11 0.93,-1.4 -0.22,-1.46 -5.22,-3.03 -2.79,-0.83 -8.2,-0.76 -1.21,1.03 -0.7,-0.53 -1.38,0.43 -0.44,1.13 -4.27,-5.8 -2.13,0.28 0.16,-1.16 -1.2,-1.79 -4.72,0.15 -0.07,-5.94 -4.72,0 -0.15,-5.72 0,0 0.72,-0.85 0.6,-2 -0.15,-0.61 -0.9,-0.3 -0.21,-0.5 0.04,-2.61 0.67,0.69 1.18,-0.56 1.43,0.74 0.99,-0.78 0.85,-2.04 2.45,-0.2 1.05,-0.63 2.09,0.89 1.99,1.63 1.08,0 0.46,1.41 2.5,-2.13 0.89,0.85 3.22,0.95 1.27,-0.48 0.74,-1.09 0.78,-0.13 0.54,-0.28 1.94,-0.78 0.63,0.24 0.54,-0.74 1.06,0.24 0.67,-0.69 0.89,1.08 0.66,-0.52 0.33,0.76 0.65,0.33 1.74,-0.11 0.05,1.11 -0.6,0.09 -0.29,0.8 0.44,0.78 0.24,-0.54 1.04,0.09 0.25,-0.57 1.57,-2.43 0.82,-3.3 0.48,-0.39 -0.7,-0.57 0.28,-0.59 -0.65,-0.26 -0.97,-2.69 -3.44,-2.27 -1.88,-2.12 -0.82,-1.97 -0.2,-5.08 0.49,-0.32 2.06,1.06 1.39,-0.11 2.25,1.6 0.8,0.06 2.6,1.67 1.13,0.26 0.48,0.28 0.57,1.69 3.99,2.68 3.7,-0.56 0.69,-2.4 -1.55,-3.76 -1.22,-1.32 -2.38,-1.02 -1.35,-1.38 0.71,0.13 0.73,-1.88 1.05,0.17 -0.29,1.17 0.85,0.67 2.01,0.34 2.64,-1.82 2.09,-0.26 3.43,-2.74 2.03,-0.8 1,-2.42 -0.11,-1.04 -0.44,-0.37 0.32,-3.37 1.32,-1.03 -0.27,-1.02 0.79,0.3 0.62,-0.63 0.43,0.47 4.54,-0.15 1.31,0.62 2.16,0.24 2.29,2.52 0.66,1.38 3.1,0.95 1.52,1.18 2.23,-1.06 0.89,-1.14 -0.91,-1.75 0.48,-0.73 0.5,0.56 0.96,0.04 0.7,1.08 5.13,3.41 0.62,0.9 0.95,0.17 -0.08,-0.35 1.7,-1.27 0.27,-1.98 -0.35,-0.43 -0.97,-0.3 -0.46,-0.73 -0.4,-0.6 -0.8,-0.48 -0.08,-0.54 -0.39,-0.26 -0.13,-0.86 2.15,1.4 1.73,-0.37 0.46,0.3 0.49,-1.45 -0.17,-0.67 -0.65,-0.32 -0.28,-1.27 0.32,-0.47 0.41,0.88 0.61,-0.04 0.35,0.45 0.37,-0.43 0.01,-0.34 -0.02,-0.95 0.66,2.02 1.41,0.82 -0.54,0.04 -0.76,1.77 -0.76,0.84 -0.35,-0.09 -0.26,0.77 1.43,-0.71 0.91,1.31 0.48,-0.58 0.36,0.15 0.5,0.45 1.03,0.82 0.68,-0.43 0.22,0.63 0.19,0.17 0.48,0.06 0.8,-0.19 1.5,0.48 1.3,-1.25 1.65,-2.85 -0.08,-0.71 0.42,0.06 0.04,-0.06 0.34,-0.39 0.75,-2.48 -0.18,-0.78 -0.85,-0.3 -0.04,-0.65 -0.64,-0.86 -0.45,-0.2 -0.3,0.06 -0.44,-0.97 0.62,-0.62 -0.01,-0.95 -0.95,-1.12 -0.65,0.41 -0.64,-4.56 0.43,-5.7 0.43,1.5 2.27,0.54 0.16,0.99 0.63,0.43 1.02,0.21 0.76,-0.45 0.62,1.25 0.43,-0.13 0.48,0.02 0.57,-0.49 0.99,0.24 0.4,1.55 0.41,-0.15 0.41,0.45 0.05,0.47 -0.58,0.39 0.04,0.84 2.18,1.96 -0.09,3.42 0.4,0.47 0.03,0.04 0.34,0.35 1.19,0.52 0.01,-0.67 0.18,-0.19 0.72,0.84 0.55,-0.32 0.92,0.19 1.13,1.01 2.91,-1.14 0.45,-1.21 -0.24,-0.86 3.48,0.39 1.08,0.93 2.51,-0.41 0.81,-0.82 0.34,0.15 -0.2,1.01 0.72,1.23 1.23,0.97 1.02,-0.39 0.31,1.44 0.6,0 1.82,1.16 0.06,-1.08 2.07,-1.6 0.58,-1.87 -0.43,-1.62 -1.25,0.13 -0.4,-1.16 -1.55,-1.79 0.68,-0.49 -0.11,-2.71 0.18,0.6 0.86,0.36 0.28,0.78 0.93,0.75 1.91,0.77 1.01,2.19 -0.26,1.01 0.51,0.56 2.23,0.06 1.6,-0.95 2.35,-2.17 0.35,-1.46 0.66,1.33 -0.41,2 1.31,0.88 2.05,0.62 1.27,1.16 2.24,0.58 2.11,-0.65 1.1,0.78 2.42,0.62 0.64,-0.39 1.43,0.34 1.56,-0.61 1.35,-0.97 -0.07,-0.62 0.53,-0.41 -0.35,-2.39 2.07,-0.75 2.37,0.47 0.91,-0.37 1.44,0.13 1.4,-1.46 1.11,-2.86 -0.28,-0.86 -1.15,-0.9 -1.09,-1.66 -0.49,-1.18 0.08,-1.85 -2.07,-2.43 -0.19,-1.5 -0.76,-1.14 -0.01,-4.66 0.3,-1.69 0.62,-0.21 -0.71,-1.56 0.67,0.24 0.46,-0.41 1.42,1.09 -0.65,0.45 0.84,1.93 -0.76,1.5 1.02,1.5 2.17,1.03 1.58,-0.6 0.19,-0.54 0.92,2.55 1.41,0.71 1.12,-0.45 -0.03,0.77 0.9,1.31 -0.13,0.88 0.59,0.92 0.79,-0.11 1,1.72 1.31,0.23 0.76,0.95 1.22,0.09 1.49,-0.69 1.88,-2.3 -0.6,-1.14 1.06,-3.14 -1.03,-1.5 -1.68,-0.94 -0.14,-0.73 0.26,-1.33 -0.41,-1.82 0.89,-0.64 0.1,-1.33 -1.76,-1.07 -0.29,-0.77 0.68,-0.79 0.49,0.15 1.02,-0.84 0.45,-0.17 -0.28,-1.41 0.43,0.76 z" 
                fill="rgb(151, 144, 238)" 
                stroke="white" 
                stroke-width=".7px"
                title="Harjumaa" 
                id="EE-37" 
            />
        </svg>