<svg xmlns="http://www.w3.org/2000/svg" viewBox="25.769511999999956 108.31310999999977 104.55999800000004 74.11000000000021" width="104.55999800000004" height="74.11000000000021">
            <path 
                d="m 124.91951,168.22311 0.08,0.8 -1.31,-0.62 0.76,-0.62 0.47,0.44 z m -2.83,-2.34 -0.64,2.01 -0.07,-0.77 -1.1,-0.97 0.76,-0.26 -0.21,-0.95 0.39,-0.26 1.01,0.64 -0.14,0.56 z m -17.12,-1.86 1.19,0.66 -0.24,0.18 0.42,0.81 -0.5,0.62 -0.07,-0.68 0.28,0.04 -0.34,-0.53 -0.3,-0.04 -0.26,0.09 -0.48,0.17 0.05,-0.38 0.07,-0.33 -0.5,-0.06 0.68,-0.55 z m 10.94,-5.25 0.48,1.67 1.53,0.62 0.23,1.74 -0.42,0.4 0.07,0.57 -0.58,-1.28 0.1,-0.73 -1.46,-0.97 -0.67,-0.95 0.19,-1.01 0.53,-0.06 z m -11.36,-1.91 0.89,0.07 -0.16,0.73 1.01,0.42 -1.76,1.3 0.25,0.29 -0.33,1.37 0.41,1.15 0.68,0.06 0.1,0.53 -0.42,0.07 0.54,0.75 -0.28,0.29 -0.61,-0.29 -0.75,0.62 0.13,-0.79 -1.05,0.33 -0.29,-0.33 -0.75,0.84 0.48,1.04 -0.87,-0.11 -0.3,-0.66 -0.61,0.18 -0.05,0.91 -0.34,-0.31 -0.829998,1.66 0.499998,0.4 0.05,0.81 -0.459998,-0.53 -0.83,0.26 -0.53,-0.69 0.49,0.04 0.41,-1.26 -0.71,-0.15 0.01,1.04 -0.28,-0.26 -0.58,0.35 -0.42,-0.42 -0.57,0.33 0.12,-1.08 -0.52,-0.48 0.01,-0.38 -0.93,-0.58 -1.38,-3.35 0.91,0.33 1.48,2.25 0.67,-0.49 -0.65,-0.73 -0.48,0.07 -0.02,-0.55 0.9,0.11 -0.13,0.36 0.35,0.28 1.65,-0.79 0.35,-0.84 0.01,-2.6 0.57,0.24 0.729998,-0.88 0.48,-0.02 0.66,0.9 1.1,0.22 1.95,-2.03 z m 18.79,-0.36 0.88,1.59 -1.08,2.69 -0.88,-0.99 0.77,-0.55 -0.08,-0.71 0.62,0.15 -1.05,-2.14 0.82,-0.04 z m 5.47,-1.65 0.36,0.49 1.09,0.22 0.07,0.93 -0.49,-0.16 -1.31,0.95 -0.75,-0.73 -0.31,-1.55 0.83,-0.69 0.51,0.54 z m -11.93,-17.6 0.79,0.24 0.53,1.12 0.4,-0.31 0.09,0.39 1.87,0.99 0.48,2.2 -1.03,1.21 -0.07,0.61 -1.96,-2.26 -0.03,-2.59 -1.17,-0.92 0.1,-0.68 z m -38.619998,-28.27 0.9,-0.05 1.6,1.22 3.47,-1.16 3.83,2.82 0.3,0.66 -0.95,0.61 -0.42,3.74 0.67,1.73 -0.25,1.16 0.52,0.61 -0.25,1.03 1.52,2.25 2.4,0.63 1.78,-0.86 0.31,0.5 1.74,0.42 0.98,0.75 0.94,-0.04 1.06,0.59 1.15,-0.39 1.349998,0.86 0.4,-0.33 -0.43,-0.48 0.82,-0.85 1.25,1.14 0.95,-0.02 -0.14,0.66 1.16,1.12 -0.06,1.18 0.95,0.31 0.34,0.7 0.9,-1.01 0.4,0.46 0.06,-0.79 0.33,-0.02 -0.21,0.83 0.43,-0.13 -0.27,0.64 0.88,-0.18 0.4,0.33 1.85,-1.42 0.44,0.15 -1.14,1.89 0.57,1.49 1.9,1.31 -0.16,0.59 -1.59,-0.13 -0.18,0.88 0.37,0.13 0.23,1.36 2.12,2.46 0.8,2.07 1.14,0.72 1.41,-0.4 0.43,1.3 1.73,1.78 0.37,0.9 -0.37,0.4 0.68,1.08 -0.57,0.9 2.33,2.44 0.28,0.88 -0.39,0.57 2.15,3.94 -1.01,1.19 -3.08,1.23 -0.51,-4.08 -0.83,0.49 -0.08,0.68 -1.15,0.66 -0.22,-0.71 -1.27,-0.99 -1.47,-0.77 -0.97,-0.06 -0.16,0.6 -1,0.17 -0.24,0.66 1.31,2.14 -0.36,0.86 -1.9,-0.81 -0.65,-1.1 0.23,-0.66 -0.18,-0.35 -0.36,0.24 -0.28,-0.84 -0.61,0.82 0.01,0.48 0.81,0.18 -0.37,1.5 -0.6,0.46 0.56,0.04 0.14,0.68 -0.37,0.38 -0.88,-0.4 -0.39,-1.19 -1.53,-0.11 -2.3,-1.17 -0.08,1.54 -2.5,0.4 -0.41,0.59 -0.57,-0.77 -1.169998,0.49 -0.52,0.66 -0.86,0.29 -0.08,0.91 -0.6,-0.38 -0.26,-0.82 -0.66,0.53 -0.12,-0.38 -0.68,0.02 -0.37,0.46 0.57,1.52 -0.89,-0.6 -0.31,-0.16 0.25,-0.71 -0.49,0.22 -0.39,0.59 0.2,0.81 -0.81,0.81 0.88,0.35 0.4,1.96 -0.79,-0.55 -0.83,-1.68 -1.16,-0.6 0.16,1.13 -0.91,0.48 -0.46,1.28 0.22,0.91 -0.9,1.57 0.16,0.29 0.77,0.18 0.52,0.53 -0.85,0.82 0.1,0.46 -0.45,0.06 -0.08,0.99 -3.02,5.95 -1.45,5.16 -0.32,-0.16 -2.27,1.04 -2.71,-0.16 -2.17,0.93 -2.07,0.33 -3.51,-1.37 -0.74,0.53 -0.15,-0.49 -4.06,-2.12 0.62,-0.24 -0.18,-1.08 -1.21,-0.11 -0.34,-0.44 0.81,-0.24 -0.9,-0.4 0.03,-0.56 1.03,0.29 0.45,-0.71 1.74,0.18 0.64,-0.31 0.13,-0.97 -1.17,-1.59 -0.89,-0.29 0.38,-0.57 -0.65,-1.08 -1.45,-0.46 -0.59,0.26 0.1,-0.6 0.54,0.07 0.28,-0.62 0.77,-0.24 0.31,-1.53 -0.24,-1.24 -0.67,-0.95 -1.19,-0.31 -0.98,-1.06 -0.54,-0.04 0.27,-1.06 1.44,-0.95 0.13,-0.58 -0.79,-0.6 0.23,-0.33 -2.26,-0.05 2.26,-0.62 0.1,-0.55 -0.96,0.06 0.64,-0.57 0.28,-2.1 -0.36,-2.64 -0.43,-0.99 -0.86,-0.49 0.06,-0.62 -0.62,-0.18 0.25,-0.84 -0.93,-2.05 -3.06,-3.72 -2.95,-1.3 -3.52,0.77 -0.65,0.75 0.07,0.81 -0.53,-0.37 -0.64,0.68 -0.39,-0.16 0.14,-0.57 -2.06,-1.03 -1.73,0.81 -0.1,0.72 -0.52,0.39 -2.35,-0.15 -0.64,0.51 -0.91,-0.18 -0.8,0.44 -1.56,-0.29 -0.15,-0.44 -1.85,0.2 -0.46,-0.95 -0.49,-0.44 -0.61,0.07 -0.57,-0.95 -0.96,0 -0.38,-2.33 -4.6,-1.73 -1.96,-0.18 -0.46,-0.79 -0.77,0.5 -1.37,-1.54 0.77,-0.53 0.34,-1.34 -0.74,-0.6 1,-0.5 1.17,0.28 0.51,-0.4 0.11,-0.09 1.28,-0.39 0.22,0.55 1.54,0.66 2.61,-0.26 0.93,0.75 5.89,0.77 1.35,-0.53 1.88,0.2 1.34,-1.25 0.73,0 1.37,-0.94 2,0.7 1.53,-0.97 3.84,1.94 0.59,0.46 1.46,0.55 2.06,-0.33 1.74,-1.93 0.77,-1.71 0.14,-1.38 -0.96,-0.55 -0.01,-0.61 1.02,-0.02 0.66,1.31 0.93,0.64 1.11,-0.35 -0.23,-1.41 0.65,1.05 1.19,-0.35 -0.26,-0.86 -0.68,0 -1.93,-3.03 -0.1,-1.82 2.34,0.77 0.49,-0.11 0.2,-0.42 0.53,0.46 -0.05,0.35 -0.23,0.59 1.37,0.98 1.41,-1.05 -0.99,0.09 -0.12,-0.63 -0.75,-0.53 0.08,-0.68 1.29,-1.08 -1.29,-0.61 0.72,-0.46 -0.71,-0.81 0.86,0.11 -1.36,-1.03 0.5,-0.13 -0.38,-1.34 -0.4,-0.11 0.4,-0.33 0.91,0.52 0.11,-0.61 0.96,0.55 1.75,0.24 1.64,0.96 -0.2,-0.86 0.69,-0.11 -0.02,-0.63 -0.6,-0.11 -0.04,-0.4 -0.29,-0.63 2.07,-0.06 0.39,0.42 0.88,-0.26 0.31,0.26 0.97,-1.01 -0.11,-4.61 0.7,-4.7 -0.19,-0.89 0.83,0.67 z" 
                fill="rgb(151, 144, 238)" 
                stroke="white" 
                stroke-width=".7px"
                title="Hiiumaa" 
                id="EE-39" 
            />
        </svg>