<svg xmlns="http://www.w3.org/2000/svg" viewBox="468.3795100000003 32.29311 142.9499999999997 123.44999999999997" width="142.9499999999997" height="123.44999999999997">
            <path 
                d="m 474.23951,32.29311 0.74,0.19 0.42,0.77 0.57,-0.15 0.74,1.59 1.92,0.69 5.15,3.71 2.94,3 4.96,2.03 9.65,0.67 8.52,-0.65 7.77,-1.27 14.81,-0.6 4.76,0.99 7.19,2.46 2.95,0.26 0.76,0.99 4.92,1.42 6.14,0.07 2.59,-0.33 2.77,0.47 2.24,-0.43 0.48,0.65 0.6,-0.06 -0.45,0.75 1.26,1.23 1.74,0.8 2.3,-0.07 0.47,0.47 3.19,-0.58 1.98,-0.89 0.81,0.54 4.33,-0.32 1.93,-0.99 3.46,-2.59 2.06,-2.1 2.22,-2.96 2.45,-4.49 0.64,1.36 2.83,0.99 1.5,1.17 2.61,2.72 1.5,3.52 2.35,1.4 3.3,2.98 1.02,2.42 -0.06,3.66 -0.5,1.47 -0.92,0.69 -0.32,1.38 -1.91,1.88 -1.17,3.36 -2.6,4.75 -6.77,-0.04 -3.77,1.34 -2.93,1.78 -2.64,0.33 -3.73,3.63 -1.06,1.56 -0.98,2.06 -0.41,6.11 -0.63,2.92 -1.57,2.37 -0.74,2.11 -3.33,3.05 -0.46,1.29 -1.75,2.22 -0.2,2.2 0.62,0.87 -1.99,2.88 0.26,4.02 -1.58,1.84 -0.36,1.46 0.32,1.49 -0.62,2.19 -1.6,0.2 -0.4,0.7 -0.62,3.59 0.33,2.5 -0.78,1.34 0.57,0.9 -0.24,0.7 -2.36,2.81 -24.89,24.01 0,0 -11.41,-4.23 -13.1,-1.76 -23.25,-0.11 -0.41,-0.73 -1.12,0.11 -1.12,-2.58 -2.37,-1.67 -3.56,-0.15 -1.8,-0.68 -0.54,1.71 -4.52,0.31 -2.81,0.99 -1.14,-1.56 -0.67,-3.06 -0.02,-1.82 0.79,-0.33 -0.23,-1.58 -1.4,-1.05 0.9,-2.17 -1.74,-1.74 -0.83,-0.07 -0.28,-1.6 0,0 1.81,-1.01 0.61,-1.14 4.59,-0.81 1.82,-2.5 0.23,-1.25 -0.53,-1.66 0.11,-2.52 1.95,-1.36 0.05,-0.46 0.03,-0.66 -1.32,-0.83 0.96,-15.23 0.3,-0.15 0.82,0.68 1.29,-0.9 1.42,-2.35 3.51,-0.41 0.41,-1.35 0.95,0.72 0.34,1.16 1.98,-0.09 0.67,-1.02 -0.44,-0.79 0.44,-3.34 1.1,-0.06 -0.45,-3.03 -1.19,0.15 -0.63,-0.72 1.02,-2.07 -1.09,-2.48 -0.82,-0.91 -3.43,-1.09 -3.51,-2.07 0.68,-0.91 -0.65,-5.19 -8.08,4.47 -0.84,-4.97 -1.01,0.06 0.77,-4.25 -0.65,-0.85 1,-0.57 1.15,-1.73 1.11,-4.27 0.91,0.22 0.46,-1.75 1.8,0.47 0.83,-1.69 -1.4,-0.11 -0.18,-0.82 -2.37,-1.28 -3.45,0.5 -1.1,-1.49 -0.61,0 -0.68,1.15 -0.97,-0.32 -0.25,-0.56 1.22,-1.75 2.63,-1.1 0.06,-0.8 0.7,0.02 -0.51,-0.6 0.93,-0.46 -1.86,-3.37 0.48,-0.24 -1.28,-1.02 0.27,-0.3 2.64,-1.23 1.26,1.66 2.16,0.37 -0.07,-2.35 -0.73,-2.57 0.1,-5.4 -0.71,-1.81 -1.03,-1.16 0.13,-1.46 -0.95,-0.73 0.21,-0.48 -0.57,-0.62 0.37,-0.75 0,0 0.41,-0.09 z" 
                fill="rgb(151, 144, 238)" 
                stroke="white" 
                stroke-width=".7px"
                title="Ida-Virumaa" 
                id="EE-44" 
            />
        </svg>