<svg xmlns="http://www.w3.org/2000/svg" viewBox="325.2095100000001 70.15311000000005 92.3599999999999 126.95000000000005" width="92.3599999999999" height="126.95000000000005">
            <path 
                d="m 338.34951,126.02311 1.24,-3.24 1.04,-0.37 1.61,1.29 2.51,-2.83 0.91,-6.89 -2.05,-3.24 2.79,-2.49 1.47,0.57 0.66,0.88 0.39,1.64 1.29,1.11 2.71,-5.79 -0.69,-0.81 -3.43,-1.64 0.18,-1.3 1.31,-2.21 -0.95,-1.98 0.81,-0.42 0.38,-1.3 0.5,-0.07 1.47,-3.29 1.08,-0.5 1.04,-1.3 -0.27,-0.31 2.66,-5.92 -1.62,-2.95 -0.67,-3.13 -2.91,-3.02 -0.41,-1.02 3.21,-0.07 2.82,1.2 2.68,-1.91 1.9,-0.27 0.72,0.22 1.73,1.71 2.26,1.18 0.11,-0.24 0.65,0.65 0.92,-0.95 0.46,0.08 0.17,-1.45 -0.74,-0.8 0.55,-0.51 1.91,-0.47 0.75,0.43 1.97,-1.82 1.29,0.52 2.93,-0.24 2.38,-2.39 0.65,-0.21 1.77,0.13 1.26,0.8 6.83,0.63 0.59,0.35 0.63,1.82 1,0.2 0.53,0.84 0,0 0.36,1.59 -1.35,0.45 0.03,1.3 1.04,0.42 1.7,-0.13 -0.7,4 0.22,1.28 1.85,-0.85 1.92,1.28 -0.98,2.22 -1.5,0.7 0.82,1.28 -1.04,0.61 0.04,0.81 1.92,0.02 1.68,1.67 1.66,-1.32 0.76,0.69 0.52,-0.33 0.9,4.36 -0.82,1.31 -1.57,0.3 -0.26,0.5 -0.68,1.4 -0.37,3.84 -1.6,-0.11 -1.38,1.48 -0.08,1.53 -0.81,0.65 0.46,2.45 -0.5,0.09 -0.08,1.72 -2.11,2.49 0.88,1.8 0.91,-1.66 1.42,1.86 1.23,-1.05 0.08,-0.97 1.34,0.97 1.65,2.05 3.27,-0.76 0.97,0.59 1.22,1.33 1.07,4.79 2.53,0.79 0.52,2.5 2.96,1.8 0.86,0.02 0.59,0.78 -0.47,2.44 0.96,0.99 -0.23,1.11 0.6,1.52 1.27,0.5 -0.49,3.25 1.05,2.29 -0.71,2.5 -0.62,0.79 0.13,0.55 -0.36,0.18 -0.02,1.1 0.59,0.52 0,0 0.37,0.91 -0.42,0.7 -0.92,-0.04 -0.4,-0.6 -0.85,1.28 -0.63,0.04 -0.12,1.5 -0.88,1.08 0.95,0.73 0.55,3.7 -0.55,0.44 -3.65,0.1 -0.41,0.42 -1.73,-0.19 -1.38,0.5 -0.17,-0.28 -1.04,0.92 -0.94,0.16 -1.15,-0.62 -0.41,1.06 0.29,1.15 -0.82,0.88 -1.63,0.26 -0.93,-0.86 -0.57,0.13 -0.05,0.47 -0.34,-0.13 -1.29,1.29 0.84,2.23 -0.14,1.08 0.66,1.11 -0.13,3.25 -3.77,2.71 -0.86,-2.41 -2.28,-1.56 -1.53,0.21 -0.16,1.62 0.41,0.64 -1.56,1.12 -0.15,0.78 -1.69,-0.57 -1.44,0.35 0.1,1.13 0.79,0.92 -0.38,0.78 0.34,0.17 -0.13,0.62 -2.01,1.78 -0.82,0.11 -0.19,1.15 -1.07,-0.25 -0.7,3.06 -0.76,1.37 0,0 -1,0.48 -0.28,1.03 -1.17,0.08 -1.09,0.87 -0.68,-0.31 -2.01,1.46 -3.09,0.64 -1.23,-0.66 -1.02,0.44 -0.57,2.64 -0.87,0.78 -0.92,0.24 -0.56,-0.33 -1.85,0.55 -0.33,1.11 -1.74,1.2 -3.32,-0.69 -1.68,1.31 -0.09,0.55 0.7,-0.04 0.35,0.42 -1.22,0.91 -0.48,-0.48 0.21,-0.76 -0.48,-0.02 -0.11,-0.76 -0.53,-0.07 -1.87,1.25 -0.56,1.46 -2.42,0.01 0.47,1.1 -0.22,0.54 -1.06,0.46 -1.99,-0.82 -3.59,-0.38 -2.35,1.29 -1.69,-0.15 -0.88,-1.82 -3.45,1.02 -1.05,-1.2 -4.11,-0.54 -0.86,-1.42 0,0 1.12,-0.91 4.55,-13.29 -4.58,-2.53 -4.91,-0.48 -0.46,-0.36 0,0 -0.18,-1.7 1.48,-3.34 -0.07,-1.85 1.57,-0.89 -1.69,-3.11 -0.81,-0.38 -0.95,-2.71 0.61,-1.3 1.6,0.81 0.39,-0.17 1.43,-2.08 0,-0.94 2.13,-1.57 -0.71,-1.06 1.1,-2.22 1.04,-1.12 -0.63,-0.91 0.94,-0.57 -1.3,-1.71 -0.26,0.33 -0.98,-0.27 -0.78,-2 -0.66,-0.33 0.3,-0.86 0.78,-0.17 0.95,-3.33 4.3,-2.57 0.87,-6.65 -2.36,-3.62 3.81,-2.12 z" 
                fill="rgb(151, 144, 238)" 
                stroke="white" 
                stroke-width=".7px"
                title="Järvamaa" 
                id="EE-51" 
            />
        </svg>