<svg xmlns="http://www.w3.org/2000/svg" viewBox="377.9795099999998 130.91310999999996 161.5400000000002 90.58999999999992" width="161.5400000000002" height="90.58999999999992">
            <path 
                d="m 416.57951,145.20311 8.3,-0.81 2.08,-0.74 0.32,-2.69 0.9,-0.24 0.74,0.75 0.69,-1.3 1.55,-0.57 2.55,-0.11 0.61,2.33 -0.82,0.51 0.37,0.66 0.72,0.13 0.66,1.71 0.79,0.47 0.28,1.6 0.7,-0.13 0.27,0.79 2.2,-0.35 1.2,0.42 0.61,-0.38 -0.1,-0.88 0.65,-0.48 2.53,-0.51 -0.16,-1.65 1.42,-0.5 0.2,-0.66 -0.83,-3.14 1.78,-0.31 -0.29,-2.02 1.73,-0.81 -0.19,-0.99 3.79,-0.68 1.19,0.76 0.29,1.17 -0.45,0.66 2.15,0.11 3.31,-1.59 2.46,-1.99 6.13,-2.66 0.9,-0.17 0.33,0.99 0.75,0.04 0,0 0.29,1.6 0.83,0.07 1.74,1.75 -0.9,2.17 1.39,1.04 0.23,1.58 -0.79,0.33 0.02,1.82 0.67,3.06 1.14,1.56 2.81,-0.99 4.52,-0.31 0.54,-1.71 1.81,0.68 3.55,0.15 2.38,1.67 1.12,2.58 1.12,-0.11 0.41,0.73 23.24,0.11 13.1,1.76 11.41,4.23 0,0 -8.49,8.22 2.53,11.87 0,0 -24.14,8.32 -0.15,-0.59 -0.67,-0.36 -4.38,1.99 -0.27,0.43 0.87,0.97 -0.95,2.15 -1.58,-0.86 -1.39,0.78 -0.25,1.19 -1.35,0.62 -0.71,-0.51 -1.91,0.87 0.12,1.2 1.42,-0.34 0.6,1.13 -0.69,1.36 0.59,2.27 0.86,0.66 -0.15,2.25 -1.6,0.04 -0.61,-0.54 -0.1,-1.48 -0.62,-1.03 -0.95,-0.35 -0.3,-0.56 -0.71,0.38 0.3,1.14 -0.38,0.13 -0.89,-1.02 -0.23,0.79 -0.45,0.09 -2.93,-2.73 -5.48,-2.15 -1.01,0.13 -1.36,7.84 0.31,2.49 -2.42,0.16 0.42,1.53 -2.09,0.29 -0.01,0.45 -0.95,0.4 -0.17,0.58 -2.14,-0.63 -1.64,1.25 -1.54,-1 -0.18,1.64 -1.87,1.29 -0.68,0.07 -0.94,-1.31 -0.71,0 -0.87,-1.91 -2.35,-1.47 0.65,1.29 -1.85,1.93 -0.4,1.29 -0.12,1.96 0.89,1.01 -0.94,0.93 -2.12,0.33 -0.86,0.92 -1.94,-1.23 -2.42,-2.51 -1.54,1.51 -0.8,-0.69 -0.59,0.16 -1.15,-0.72 0.02,-0.55 1.42,-0.14 0.63,-1.47 -4.29,0.49 -1.17,1.03 1.1,0.69 -0.72,0.94 -0.74,0.04 -2.1,-1.58 -1.59,0.53 -0.63,-0.85 -1.28,0.47 -1.01,1.27 -0.49,-0.09 -1.09,2.99 0.54,1.13 -1.64,-0.95 -0.41,-2.68 -1.89,-1.2 -1.6,-0.11 -0.82,1.65 -2.47,0.75 -8.23,6.16 -1.7,-1.03 -1.6,1.18 -2,-2.09 -0.93,1.07 0.56,0.35 -0.83,0.59 0.23,0.98 -0.48,-0.4 0.01,0.77 -0.48,-0.04 0.5,0.98 -0.41,0.6 0,0 -5.11,-5.48 -1.13,0.91 -5.21,-4.48 -0.44,-6.3 -2.27,1.67 -1.79,-1.71 -0.97,0.22 0.02,-1.83 -1.16,-0.64 0.53,-0.76 -0.19,-0.4 0.58,-0.31 -0.89,-1.46 0.09,-0.78 -2.66,-0.52 -4.04,-2.33 -1.64,-0.15 -3.53,1.24 -2.29,-0.11 -4.65,-1.02 -0.77,-1.42 1.14,-0.2 0.71,-1.33 1.62,-0.03 1.01,-1.75 -0.54,-3.59 -2.15,-0.38 1.08,-1.36 0.33,-1.32 0.18,-3.48 -0.53,-0.8 0,0 0.76,-1.37 0.7,-3.06 1.07,0.25 0.19,-1.15 0.82,-0.11 2.01,-1.78 0.13,-0.62 -0.34,-0.17 0.38,-0.78 -0.79,-0.92 -0.1,-1.13 1.44,-0.35 1.69,0.57 0.15,-0.78 1.56,-1.12 -0.41,-0.64 0.16,-1.62 1.53,-0.21 2.28,1.56 0.86,2.41 3.77,-2.71 0.13,-3.25 -0.66,-1.11 0.14,-1.08 -0.84,-2.23 1.29,-1.29 0.34,0.13 0.05,-0.47 0.57,-0.13 0.93,0.86 1.63,-0.26 0.82,-0.88 -0.29,-1.15 0.41,-1.06 1.15,0.62 0.94,-0.16 1.04,-0.92 0.17,0.28 1.38,-0.5 1.73,0.19 0.41,-0.42 3.65,-0.1 0.55,-0.44 -0.55,-3.7 -0.95,-0.73 0.88,-1.08 0.12,-1.5 0.63,-0.04 0.85,-1.28 0.4,0.6 0.92,0.04 0.42,-0.7 z" 
                fill="rgb(151, 144, 238)" 
                stroke="white" 
                stroke-width=".7px"
                title="Jõgevamaa" 
                id="EE-49" 
            />
        </svg>