<svg xmlns="http://www.w3.org/2000/svg" viewBox="127.82950999999996 68.91311000000005 102.19999999999995 141.24999999999997" width="102.19999999999995" height="141.24999999999997">
            <path 
                d="m 159.03951,155.73311 2.15,1.67 1.02,0.04 -0.09,0.48 -0.12,1.19 -0.46,0.15 -0.9,-0.24 -0.35,0.9 -1.53,-1.43 -0.25,-1.21 -0.45,-0.29 0.06,-0.81 0.54,-0.27 -0.09,-0.4 0.47,0.22 z m -4.37,-1.15 0.48,0.37 -0.05,-0.53 0.49,-0.02 -0.27,2.22 -0.42,-1.01 -1.03,-0.99 0.53,-0.88 0.27,0.84 z m -1.01,-1.69 0.13,1.08 -0.33,0.35 -1.04,-1.37 0.62,-0.35 0.62,0.29 z m -10.33,-17.92 0.43,-0.04 0.76,1.43 -0.91,0.06 -0.13,-0.64 -0.58,-0.39 0.16,-0.88 0.27,0.46 z m -1.74,-0.48 1.16,0.68 -0.85,-0.2 -0.23,0.46 -0.38,-0.75 0.09,-0.37 0.21,0.18 z m 11.95,-1.1 0.29,0.39 -0.43,3.44 -0.5,-0.68 0.32,-1.32 -0.36,-0.9 0.24,-0.81 0.44,-0.12 z m -18.06,-15.78 2.35,0.88 0.34,-0.04 0.14,-0.76 2.48,0.81 -0.32,1.25 1.01,0.02 0.85,0.98 -0.03,0.88 0.81,-0.15 0.36,-1.64 0.36,0.94 0.5,0.17 0.52,-1.69 0.92,-0.77 0.83,1.66 0.47,-0.28 0.1,-0.64 0.47,-0.4 0.37,0.35 0.2,-0.72 1.28,1.23 0.46,1.4 1.06,0.18 -0.12,0.81 0.69,0.41 -0.12,1.18 2.23,2.72 -1.18,3.37 -0.68,-0.07 -1.17,-0.94 -0.61,-0.61 -0.66,0.68 -1.05,-0.28 0.08,-1.34 -0.39,0.35 -0.15,1.36 0.38,0.61 -0.56,1.01 -0.59,-0.61 -0.56,0.57 -0.31,-0.73 -0.58,0.7 -0.03,-0.9 -0.68,0.75 -0.76,-0.22 0.03,1.62 0.25,0.85 2.05,0.66 -0.11,0.09 -2.26,-0.2 -2.92,-3.45 -1.82,-1.16 -0.5,-0.06 -1.23,-0.37 -0.28,0.55 -0.12,1.95 0.62,1.4 -0.62,-0.04 -0.49,-0.29 -0.45,-0.02 -0.78,-1.16 -0.7,-0.31 0.19,2.5 -0.56,0.18 -0.31,-1.6 -0.37,0.15 -0.17,1.23 -0.6,0.15 -0.43,-0.22 -1.4,-2.89 0.54,-0.61 1.26,0.33 0.02,-1.21 -0.4,-0.05 -0.84,-0.28 -1.32,-1.75 -0.23,-1.29 -1.26,-0.4 -0.08,-0.68 -0.77,-0.77 -0.3,-2.45 0.36,-0.99 0.55,0.04 0.4,-0.66 -0.07,-1.14 1.12,0.61 0.48,-0.13 1.11,-0.87 0.68,-1.38 1.79,0.52 0.75,0.81 0.48,0.31 z m 44.17,-38.32 0.33,0.07 -0.19,0.48 0.56,0.09 -0.08,1 0.54,0.63 2.07,1.24 1.44,-0.2 1.89,-1.35 0,0 0.15,5.72 4.72,0 0.07,5.94 4.72,-0.15 1.2,1.79 -0.16,1.17 2.13,-0.28 4.27,5.8 0.44,-1.13 1.38,-0.42 0.7,0.54 1.21,-1.03 8.2,0.76 2.79,0.83 5.22,3.03 0.22,1.46 -0.93,1.4 -0.79,0.11 0.79,1.72 -0.83,0.3 1.45,1.72 0.02,0.66 2.75,1.66 0.23,1.51 0.94,0.22 0.38,0.55 -7.45,7.37 -0.13,2.06 0.71,2.45 0,0 -0.89,2.7 -1.28,1.07 1.42,2.79 -0.34,0.48 0.28,0.96 0.69,1.56 1.73,2.22 2.31,1.1 -0.55,1.67 0.59,1.76 -0.71,1.38 1.62,0.7 0.61,-0.29 0.2,0.92 -0.73,0.51 -0.22,0.77 1.52,1.05 -0.19,1.39 -0.33,0.18 1.99,1.32 -0.5,1.47 1.22,-0.55 0.52,0.33 0.46,1.34 -0.56,2.33 -4.17,-0.66 -0.67,0.6 0.53,0.57 -0.05,0.82 -0.24,1.19 -1.14,1.92 0.52,0 1.07,2.09 2.06,0.06 0.13,1.04 -2.77,0.57 -0.02,0.4 -2.63,2.16 -0.77,1.37 -1.45,-0.16 -0.62,0.53 -0.28,1.75 0.23,0.42 0.48,-0.49 0.6,1.3 0.61,0.15 1.62,-0.84 1.23,1.72 1.26,-1.73 1.11,-0.73 0.89,1.26 0.74,1.79 -0.83,0.59 -0.1,1.04 -2.5,5.2 0,0 -1.22,1.62 -2.53,2.06 -0.42,-0.49 -4.49,1.29 0.33,0.82 -3.36,-0.67 -0.2,-1.07 -0.95,-0.95 -1.85,1.06 -0.36,0.49 0.1,2.3 0.61,0.44 0.63,2.46 0.05,2.84 -2.84,1.42 -0.24,1.25 -1.01,1.71 -1.61,-0.42 -3.66,-2.66 0.21,-0.91 -2.21,-1.89 -0.65,0.38 1.34,1.66 0.9,2.98 -1.48,0.91 0.19,0.87 2,4.47 1.33,2.05 0.92,0.71 0.04,2.45 -1.57,-1.09 -1.88,0.24 -1.22,-0.58 -0.88,1.05 -1.5,-0.62 -0.41,0.27 -1.57,-0.93 -0.59,1.62 -1.42,0.16 -1.49,0.8 -0.83,1.36 -2.05,-0.8 -1.11,1.4 -1.29,-0.63 -1.7,-1.87 -1.62,-0.16 -2.46,0.44 -1.41,1.47 -1.62,-0.58 -0.76,-1.02 -1.72,2.31 0,0 -1.36,-0.49 0.73,-1.27 -1.2,-0.73 -0.41,0.27 -0.28,-0.38 -0.69,0.94 0.65,-2.49 -0.38,-0.76 -0.49,0 0.15,0.51 -0.65,-0.18 -0.1,-0.69 0.72,-0.76 -0.17,-0.93 0.53,-0.07 0.64,-1.42 -1.9,0.02 -0.19,-1.94 -0.46,-0.44 -1.11,0.4 0.08,0.58 1.29,1.33 -0.36,1.93 -0.85,0.46 0.22,0.62 0.94,0.06 -0.52,0.47 0.43,0.62 -0.53,1.07 -0.85,0.49 0.37,-1.85 -0.35,-0.44 -0.32,0.42 -0.89,-0.55 -0.46,-0.27 -1,0.22 -0.65,0.8 -0.98,-1.91 0.92,-0.74 1.07,-0.11 -0.17,-0.89 0.85,-2.58 0.29,0.29 0.38,0.26 0.48,-0.51 -0.28,-0.84 -0.46,-0.13 -0.59,0.6 -0.18,-0.29 0.43,-3.02 -0.48,-0.04 -1.02,-2.58 -0.74,-2.33 0.54,-0.67 -0.95,-1.8 0.65,-3.31 -0.97,-0.49 0.51,-1.22 -0.91,-0.4 0.2,-0.78 -0.84,-0.15 2.71,-0.67 0.03,-0.93 -0.59,-0.71 0.39,-1.09 1.73,1.37 3.63,-0.8 0.79,-1 -0.28,-0.16 -0.57,-0.29 -1.26,-0.56 -0.75,-1.06 -0.85,0.24 -0.04,-0.67 -0.89,0.11 0.64,-1.7 -1.08,-0.49 -0.02,-0.46 1.79,-0.27 3.81,2.34 1.5,-0.13 2.15,-1.24 1.26,0.42 0.6,-0.66 0.97,0.86 0.76,-0.09 0.61,-0.58 -1.2,-0.2 0.41,-1.84 1.02,0.55 0.59,-0.99 1.28,0.62 0.71,-0.24 -0.03,-0.49 1.29,1.04 0.75,-0.33 0.46,0.22 1.06,1.15 0.51,-0.15 0.23,-0.58 0.67,1.28 0.64,-0.22 -0.37,1.04 0.84,-0.07 0.07,0.79 0.66,-0.16 0.09,-0.38 0.63,0.11 0.2,0.68 -1.28,0.04 1.74,0.66 0.2,-0.62 1.48,-1.15 1.32,0.6 0.5,-3.76 -0.35,-0.22 -0.66,0.42 -0.46,-0.35 0.42,-1.02 -2.92,0.59 -0.95,-0.58 0.1,-0.42 0.61,0.33 0.48,-0.24 -0.85,-1.02 -0.07,-1.08 0.34,-0.4 -0.65,-0.97 0.15,-0.53 0.84,-0.29 0.14,-0.9 -0.62,-0.22 -0.91,1.28 -0.84,0.2 -0.47,-0.36 0.02,-0.58 -0.7,-0.26 -0.75,-0.38 -0.53,-0.77 -0.79,0.02 -0.61,0.38 -1.06,1.44 -1.27,0.8 -1.68,-0.69 -1.05,0.44 -0.4,-0.8 -0.67,-0.11 -0.56,-0.77 -0.91,0.26 -1.06,-0.36 -3.58,0.99 -0.97,1.41 -1.72,0.75 -0.74,0.04 -3.03,-1.37 -2.61,0.6 -1,0.75 -0.3,0 -0.3,-0.36 -0.78,0.26 -1,1.24 -0.46,0.13 -0.4,-0.4 1.2,-1.19 0.48,-1.31 -0.28,-0.82 -0.3,0.44 -0.21,-0.33 0.02,-1.55 1.07,0.57 0.91,-0.24 -0.59,-0.44 0.66,-0.37 -0.03,-1.04 0.74,0.44 0.84,-0.88 -1.03,-1.1 0.14,-2.64 1.05,1.12 -0.63,0.04 0.41,1.32 1.04,0.06 1,1.1 1.64,-0.84 0.14,-0.6 0.1,-0.4 0.32,-0.27 -1.04,-0.77 0.32,-1.99 -0.49,-1.34 -1.87,-2.12 -0.29,0.77 -1.09,-1.61 -0.38,-0.31 0.07,-1.32 -1.1,-2.23 -3.08,-2.66 0.15,-0.7 0.85,0.77 0.34,-2.09 -0.26,-0.62 -0.88,-0.28 -0.48,0.84 -0.77,-0.73 -0.59,0.09 -0.02,-0.55 0.4,-0.31 -0.42,-0.73 0.84,-2.16 -0.49,-1.93 0.13,-0.59 -0.16,-0.42 -0.11,-0.48 1.43,0.7 0.65,-0.81 0.6,-0.26 0.62,1.29 1.29,0.81 1.77,-0.81 0.11,-0.44 0.93,-0.11 0.6,-0.73 0.65,-0.02 0.67,0.72 0.51,-0.15 -0.3,-1.95 -0.4,-0.72 -0.57,-1.41 0.86,0.28 0.97,1.75 0.9,0.22 0.8,1.01 1.03,-0.39 0.31,-0.62 0.85,-0.4 1.35,0.39 0.02,-0.94 0.33,-0.4 0.77,-0.02 0.44,-0.53 -0.19,-0.66 -1.78,-1.91 1.37,0.92 0.45,-0.18 -0.09,-0.84 1,0.94 0.3,-0.68 0.53,0.26 0.3,-0.31 1.74,2.26 1.09,0.17 0.3,-0.97 -0.49,-0.9 0.87,0.02 0.03,-1.05 -0.44,-0.55 0.48,-0.55 -0.46,-0.53 -0.76,0.13 -0.09,-0.61 -0.62,-0.4 0.67,-0.75 -1.06,-0.04 -1.68,-1.47 0.22,-0.4 0.93,0.37 0.09,-0.66 -1.57,-1.21 -0.2,-0.61 0.44,-0.24 -1.32,-1.23 -0.39,0.31 0.68,1.33 1.57,1.49 -1.8,0.92 0.86,2.39 0.82,1.05 -0.02,1.07 -1.94,-2.22 -0.57,-2.13 -0.79,0.4 -0.58,-0.24 -0.07,-1.05 -1.13,0.33 -0.27,4.6 0.73,0.63 -0.66,1.45 -0.62,-0.07 -0.43,-0.11 -0.62,-0.5 0.02,0.97 -0.72,-0.79 -1.57,-0.44 -2.03,-1.56 -2.17,1.01 -1.14,-0.13 -2.59,-1.97 -0.38,-0.5 -0.05,-0.53 -1.59,-1.56 0.28,-0.61 -1.05,-1.16 -0.98,-2.61 0.12,-0.48 0.55,0 1.3,1.27 0.71,-0.07 0.87,0.52 -0.04,-1.27 0.37,0.06 0.39,-0.42 -0.71,-1.29 0.4,-0.9 0.62,0.41 0.01,-0.37 -0.6,-0.35 -0.77,0.72 -0.92,-0.68 0.56,-1.95 -0.46,-2.16 0.54,-2.36 1.17,0.63 0.97,-0.26 2.04,0.41 0.15,-0.57 0.66,0.06 -0.03,-1.2 1.02,-0.39 0.97,-2.06 0.4,-0.11 2.11,1.31 0.6,-0.42 -1.54,-5.26 -0.03,-0.96 0.67,-1.25 -1.15,-0.96 -0.79,-5.43 -0.54,-0.76 -1.32,-0.7 -0.62,-2.92 0.5,-3.59 1.41,-0.15 0.51,-0.83 0.07,-2.44 1.46,0.52 1.14,1.69 3.73,-0.07 2.52,-1.22 1.65,-1.85 1.5,-0.35 1.02,-1.59 1.1,-1.11 z m -28.36,-10.38 3.13,1 1.96,1.84 1.1,1.78 -1.53,0.02 -0.16,0.43 0.59,0.78 -0.97,-0.63 -0.64,-1.71 -1.14,-0.61 -0.59,0.04 -0.41,0.28 -1.73,-2.65 -0.01,-0.52 0.4,-0.05 z" 
                fill="rgb(151, 144, 238)" 
                stroke="white" 
                stroke-width=".7px"
                title="Läänemaa" 
                id="EE-57" 
            />
        </svg>