<svg xmlns="http://www.w3.org/2000/svg" viewBox="382.6095099999998 6.983109999999863 109.50999999999999 140.78" width="109.50999999999999" height="140.78">
            <path 
                d="m 398.61951,7.54311 1.11,-0.43 -0.24,0.86 0.71,0.02 -0.16,0.41 0.45,0.28 0.5,-0.28 -0.14,0.64 -0.61,-0.11 -0.36,0.66 0.96,0.49 0.12,-0.37 0.39,-0.09 -0.46,1.03 0.64,0.62 0.69,-0.13 1.64,-1.37 0.31,-1.37 0.42,0.02 0.29,0.86 0.8,0.06 1.54,-1.09 -1.02,1.52 0.01,0.68 0.41,-0.21 0.85,0.92 0.35,0.67 0.06,0.69 1.65,0.73 0.83,-0.19 1.08,0.67 0.07,0.47 -0.5,-0.51 -1.03,0.62 0.1,0.88 1,1.37 1.76,-0.26 2.77,0.51 7.24,-0.77 4.5,0.43 0.76,1.18 0.47,-0.07 0.65,1.35 1.17,0.38 2.34,2.69 1.1,0.19 2.4,-0.43 1.01,1.16 4.62,0.54 0.2,0.52 1.09,0.04 -0.18,0.97 1.93,1.25 1.1,-0.09 0.28,0.77 0.5,0.28 0.23,0.95 1.37,0.93 0.26,0.64 1.16,0.45 0.46,-0.6 -1.2,-0.88 1.42,0.23 2.8,-0.88 0.02,0.6 0.54,0.28 2.33,-0.82 1.65,-3.08 -0.2,-0.99 -1.74,-1.14 1.75,0.45 0.2,-1.29 0.6,1.09 0.76,-0.24 0.12,-0.41 1.42,0.45 0.4,0.8 2.31,-0.02 0.84,1.08 0.13,0.3 0.71,0.45 2.13,0.09 1.25,1.33 1.09,0.09 -0.05,1.01 0.6,0.82 0.5,-0.54 0.72,0.54 0.98,-0.65 0.43,0.39 -0.29,0.78 0.45,0.3 -0.66,0.88 0.43,0.26 -0.09,0.41 1.32,0.43 -0.05,0.71 0,0 -0.37,0.75 0.57,0.62 -0.21,0.49 0.95,0.73 -0.13,1.46 1.03,1.16 0.71,1.81 -0.1,5.41 0.73,2.57 0.07,2.35 -2.16,-0.37 -1.26,-1.66 -2.64,1.23 -0.27,0.3 1.28,1.02 -0.48,0.24 1.86,3.37 -0.93,0.47 0.51,0.6 -0.7,-0.02 -0.06,0.8 -2.63,1.1 -1.22,1.75 0.25,0.56 0.97,0.32 0.68,-1.15 0.61,0 1.1,1.49 3.46,-0.5 2.37,1.28 0.18,0.82 1.4,0.11 -0.83,1.69 -1.8,-0.46 -0.45,1.75 -0.91,-0.22 -1.11,4.27 -1.15,1.73 -1,0.57 0.65,0.85 -0.77,4.25 1.01,-0.06 0.85,4.97 8.08,-4.47 0.65,5.19 -0.68,0.91 3.51,2.07 3.43,1.09 0.83,0.91 1.09,2.48 -1.02,2.07 0.63,0.72 1.19,-0.15 0.46,3.03 -1.1,0.06 -0.44,3.35 0.44,0.8 -0.66,1.02 -1.98,0.09 -0.34,-1.16 -0.95,-0.72 -0.41,1.35 -3.51,0.41 -1.42,2.35 -1.29,0.9 -0.82,-0.68 -0.3,0.15 -0.96,15.23 1.32,0.83 -0.03,0.66 -0.05,0.46 -1.94,1.36 -0.11,2.52 0.53,1.66 -0.23,1.25 -1.82,2.5 -4.59,0.81 -0.61,1.14 -1.81,1.01 0,0 -0.75,-0.04 -0.33,-0.99 -0.9,0.17 -6.13,2.66 -2.46,1.98 -3.3,1.6 -2.15,-0.11 0.46,-0.66 -0.29,-1.17 -1.19,-0.75 -3.8,0.68 0.19,0.99 -1.73,0.81 0.29,2.02 -1.78,0.31 0.84,3.14 -0.2,0.66 -1.42,0.5 0.16,1.65 -2.53,0.51 -0.65,0.48 0.1,0.88 -0.61,0.39 -1.19,-0.42 -2.2,0.35 -0.28,-0.79 -0.69,0.13 -0.28,-1.6 -0.79,-0.48 -0.66,-1.71 -0.72,-0.13 -0.36,-0.66 0.82,-0.51 -0.61,-2.33 -2.55,0.11 -1.55,0.57 -0.69,1.3 -0.74,-0.75 -0.9,0.24 -0.31,2.7 -2.09,0.73 -8.3,0.81 0,0 -0.59,-0.51 0.02,-1.1 0.36,-0.18 -0.13,-0.55 0.62,-0.79 0.71,-2.5 -1.04,-2.29 0.48,-3.25 -1.26,-0.5 -0.61,-1.52 0.24,-1.1 -0.97,-0.99 0.48,-2.44 -0.59,-0.77 -0.86,-0.02 -2.96,-1.8 -0.51,-2.5 -2.53,-0.79 -1.07,-4.79 -1.22,-1.33 -0.97,-0.59 -3.27,0.76 -1.65,-2.05 -1.34,-0.98 -0.08,0.98 -1.23,1.05 -1.42,-1.86 -0.9,1.66 -0.88,-1.81 2.11,-2.49 0.09,-1.71 0.49,-0.09 -0.45,-2.45 0.81,-0.65 0.09,-1.53 1.38,-1.48 1.6,0.11 0.38,-3.84 0.68,-1.4 0.27,-0.5 1.57,-0.29 0.82,-1.31 -0.9,-4.36 -0.51,0.33 -0.76,-0.68 -1.66,1.31 -1.68,-1.66 -1.92,-0.02 -0.05,-0.81 1.04,-0.61 -0.82,-1.28 1.51,-0.7 0.98,-2.22 -1.93,-1.28 -1.84,0.85 -0.23,-1.28 0.7,-4 -1.7,0.13 -1.03,-0.43 -0.04,-1.3 1.35,-0.44 -0.35,-1.59 0,0 3.1,-0.5 0.9,-0.76 -0.79,-1.41 0.36,-1.02 -1.17,-3.6 0.46,-1 -1.02,-4.77 0.28,-1.73 -0.69,-2.88 -0.96,-1.88 -1.89,-2.06 -0.16,-2.16 -1.1,-1.08 0.54,-0.69 -0.5,-0.91 1.18,-2.14 -0.06,-0.74 -0.84,-1.08 -0.6,0 -0.24,-1.51 -1.9,0.19 -1.26,-0.32 -1.48,-11.47 -1.33,-2.5 0.09,-0.62 -1.6,-0.45 0.17,-1.25 -0.48,-1.66 3.39,-1.4 0.9,-1.57 -1.01,-1.53 0,0 1.81,-1.33 0.63,0.6 1.31,-1.01 0.24,-2.53 -0.69,-1.03 0.53,-1.24 -0.65,-2.53 0.3,-2.42 1.02,1.61 2.93,0.3 0.46,-0.47 1.01,3.02 -1.25,1.82 -0.04,1.27 0.59,0.69 1.31,0.66 1.77,0.06 1.83,-0.84 0.7,-1.09 0.1,-1.57 -0.5,-0.56 0.28,-1.7 -1.22,-5.32 0.26,0.56 z" 
                fill="rgb(151, 144, 238)" 
                stroke="white" 
                stroke-width=".7px"
                title="Lääne-Virumaa" 
                id="EE-59" 
            />
        </svg>