<svg xmlns="http://www.w3.org/2000/svg" viewBox="174.8795100000001 169.74311 160.98000000000002 160.8" width="160.98000000000002" height="160.8">
            <path 
                d="m 211.92951,278.64311 1.91,0.56 -1.1,3.03 0.32,1.44 -0.77,1.35 0.23,0.59 -1.02,0.99 -0.58,1.76 -1.22,-0.02 -0.71,0.68 -0.56,-0.34 -1.13,-3.44 0.99,-4.02 -0.36,-0.34 0.49,-0.84 -0.22,-0.57 3.73,-0.83 z m 13.09,-12.51 -0.46,0.2 -0.93,2.82 -2.14,0.61 0.42,-1.74 0.27,0.52 0.77,-0.27 0.49,-1.56 0.85,-0.11 0.26,-1.04 1.09,-1.22 -0.62,1.79 z m -33.72,-21.11 0.1,0.65 0.8,0.6 -0.05,1.05 -2,-2.35 0.34,-1.3 0.81,1.35 z m 32.98,-64.99 5.23,4.5 4.5,-1.57 4.64,2.17 6.59,1.46 3.01,1.48 0.37,-1.17 2.54,-1.86 1.35,-0.82 2.77,-0.8 1.31,-1.64 0.91,-4.54 3.72,-2.14 0.79,-1.51 0.95,-0.66 0.68,-0.07 0.85,0.53 2.39,2.57 -1.59,1.59 -0.14,0.56 0.44,0.13 0.14,0.91 2.71,-0.4 0.86,-0.82 5,-2.39 2.42,-4.75 2.41,1.13 1.53,-0.6 1.19,1.32 1.08,0.13 1.9,1.31 2.44,-0.8 0.67,0.84 1.58,-0.4 1.47,-2.25 2.73,-1.73 0.67,0.8 1.28,0.4 0.17,0.75 1.64,0.53 1.48,1.77 -1.14,5.57 0.18,2.42 0.43,1.97 0.41,0.16 0,1.28 0.65,0.97 -0.16,0.44 0.83,0.29 0.65,-0.6 0.71,-0.04 0.73,-3.39 0.97,-0.36 0.48,-2.17 0.25,-0.42 1.15,-0.15 0.74,-1.82 1.34,0.29 0.65,-1.04 0.98,-0.15 -0.03,0.91 0.93,0.33 1.72,-0.46 0.46,-1.62 1.38,-1.02 -0.52,-0.68 1.1,0.16 0.26,0.62 4.63,0.37 2.54,0.69 1.18,-0.8 3.44,-0.33 0,0 0.46,0.37 4.91,0.48 4.59,2.54 -4.56,13.28 -1.12,0.91 0,0 -3.07,1.6 0.26,0.36 -0.57,1.97 0.48,0.27 0.47,-0.95 0.38,0.35 0.15,3.2 0.67,1.2 -0.25,1.11 1.36,0.62 0.02,0.44 -1.26,0.47 -2.95,0.07 -1.36,0.62 -0.26,0.38 0.62,1.07 -0.61,0.38 -0.59,-0.15 -0.41,0.82 0.06,1.44 -0.4,0.62 0.61,0.13 -0.22,0.85 -0.63,0 -0.77,1.05 -0.41,0.04 0.05,-1.22 -0.81,0.04 -2.41,2.83 -2.35,0.93 -1.56,-0.25 -0.88,1.94 -1.07,-0.25 -2.49,0.76 -0.4,2.61 -1.85,1.05 0.53,8.91 -1.74,2.33 -1.25,-0.65 0.28,4.99 -1.48,9.81 0.83,3.74 5.61,-1.25 4.61,1.62 0.58,-0.18 0.11,-0.6 0.56,2.33 1.4,-1.12 1.74,-0.38 1.6,0.97 2.35,5.25 8.2,1.35 0.37,3.84 0.46,0.49 -1.31,0.22 -1.37,0.85 -0.19,0.56 0.03,0.74 0.6,0.32 0.54,1.35 0.2,1.37 -0.55,0.7 0.51,2.81 -0.4,0.81 -1,-0.02 -0.02,1.35 -0.57,-0.32 -0.32,-1.17 0.27,-0.11 -0.58,-0.7 -0.57,-0.07 -1.02,0.72 -0.09,0.9 -1.02,0.49 -2.68,-0.52 -1.78,1.13 -0.06,1.01 1.36,0 -0.34,1.83 -1.22,0.02 -0.46,0.59 -0.09,1.6 0.27,0.45 0.51,-0.16 0.09,1.22 -0.77,0.27 0.09,0.7 -0.54,0.22 -0.6,-0.09 0.54,-1.47 -0.57,-2.03 -0.74,-1.26 -0.75,0.72 -0.08,1.35 0.81,1.33 -0.55,1.02 -1.28,-0.22 -0.06,1.58 1.32,1.65 0.8,-0.25 0.73,0.74 -0.62,3.03 -0.48,-0.12 0.09,-1.06 -1.02,-0.02 -0.47,1.18 -0.97,-1.24 -3.9,-0.05 -0.25,1.69 0.93,1.35 -3.84,2.15 -0.94,2.24 -0.03,1.08 1.43,0.77 0.48,3.76 0.46,-0.21 0.11,1.07 0.48,0.43 0,0 -2.31,3.58 -1.13,1.02 -1.43,0.66 -3.91,-0.29 -9.83,6.51 -1.66,0.45 -2.12,-3.11 -6.26,1.39 -0.09,3.16 -2.68,0.61 -2.07,2.54 -1.72,-2.12 -2.35,0.21 -0.5,0.22 0.12,1.05 -1.59,1.93 -0.52,-0.07 -1.39,-1.78 -2.2,-1.71 -1.43,1.57 -2.03,0.5 -0.58,0.86 -1.86,-0.16 -0.6,1.87 -0.69,0.09 0.12,0.8 -4.57,1.09 -1.52,2.59 0.1,0.36 1.25,0.43 -0.67,1.55 0.65,3.14 -4.45,2.46 -0.32,0.02 -0.37,-1.1 -3.4,-0.62 -1.34,0.16 -0.3,-0.68 0.72,-1.09 -0.03,-1.8 1.26,-2.48 0.47,-1.98 0.81,-0.62 0.17,-4.89 1.28,-2.52 0.25,-2.45 1.57,-3.79 0.55,0.07 1.67,-1.81 0.39,-2.95 1.19,-2.61 1.82,-5.77 0.04,-2.22 -0.55,-0.64 0.51,-0.52 -0.3,-0.61 -1.02,-0.61 -0.05,-0.77 0.89,-1.25 0.26,-1.56 -0.4,-1.02 0,-0.82 0.09,-0.5 0.8,-0.2 -1.05,-1.96 0.65,-1.15 -0.23,-1.13 -0.84,-1.02 -0.14,-2.3 -0.46,-0.5 -0.83,0.74 1.39,-5.21 0.48,-0.9 -0.89,-0.99 1.52,-1.58 -0.39,-0.76 0.76,-1.87 -0.3,-0.99 -1.17,-0.76 0.31,-0.63 1.11,0.22 0.7,-1.76 2.05,-0.72 1.23,-1.33 2.62,-1.37 2.4,-2.77 0.68,-1.21 0.18,-3.7 -0.6,-2.27 -1.39,-1.95 -3.11,-4.42 -0.62,0.04 -3.53,-1.3 -0.64,-1.39 -0.53,-0.25 -0.6,0.16 -1.34,-0.2 -0.94,-0.25 -0.92,-0.49 -2.02,-0.13 -2.29,0.45 -5.62,0.16 -1.97,0.8 -0.94,0.92 -0.81,1.99 -0.05,3.21 -0.47,1.79 0.32,1.86 -0.95,2.42 -0.24,2.85 -1.29,2.27 0.66,1.21 -0.6,0.34 -3.17,0.38 -1.08,0.74 -0.55,-0.29 -0.78,0.18 -0.78,-0.11 -1.45,1.01 -1.06,-1.12 -0.47,0.81 0.25,0.36 -1.09,0.47 0.24,0.63 -0.67,0.85 -0.83,0.06 -0.46,0.36 -0.46,1.15 -1.33,0.67 0.16,1.67 -0.6,0.52 -0.32,-1.96 -2.33,-1.12 -1.45,-0.9 -1.01,-2.09 -0.35,-2.02 -0.65,-0.32 -0.71,-1.33 -0.28,-1.96 -0.96,-1.46 -0.37,0.22 -0.37,-0.34 -1.19,-3.23 -1.04,-0.05 -0.23,0.29 0.6,2.74 -0.3,1.53 -1.2,-2.52 -0.74,-0.49 0.1,0.49 -0.02,0.88 -0.72,-0.77 -0.06,-0.9 -0.52,-0.16 -0.65,-1.41 -0.82,-0.7 -1.02,0.18 -0.33,0.87 -2.36,-1.7 -0.44,2.76 -0.44,0.23 -1.68,-1.46 -0.79,-0.05 -2.28,-4.77 -1.47,-1.97 -1.02,0.49 0.11,1.26 -0.62,0.43 0.55,1.57 -1,0.23 -1.68,-1.46 -0.66,0.56 -0.47,-0.32 -0.03,-0.67 -0.7,-0.09 -0.96,-1.26 -0.25,0.27 -0.35,1.35 -0.02,0.6 0.19,1.66 -1.23,-0.51 -1.33,-2.13 0.56,-0.6 -0.03,-1.66 -0.83,-1.03 0.03,-0.92 -0.8,-0.98 0.03,-0.52 -1.03,-0.99 -0.17,-2.19 -0.76,-1.28 0.03,-0.87 -1.56,-2.41 -0.27,-1.75 -0.43,-0.72 -0.48,-1.74 0.1,-0.81 0.45,-0.2 0.23,-1.63 -0.26,-0.51 0.15,-2.3 0.68,-1 -0.17,-1.43 -0.84,-0.25 0.42,-1.45 0.57,-0.15 -0.07,-1.05 -1.07,-0.76 0.41,-0.58 -0.38,-0.47 0.86,-0.49 -0.01,-0.34 -0.81,-0.14 0.48,-0.85 -0.98,0.47 0.16,-1.12 -0.46,0 -0.41,0.45 -0.66,1.09 0.38,0.65 -0.84,0.56 -0.45,-0.09 0.13,-0.85 -1.12,0.24 -0.39,-0.83 -0.81,-0.29 -0.52,-1.11 -0.84,-1.22 -0.41,0.44 0,0 1.72,-2.31 0.76,1.02 1.62,0.58 1.41,-1.47 2.46,-0.44 1.62,0.16 1.7,1.87 1.29,0.64 1.11,-1.4 2.05,0.8 0.83,-1.36 1.49,-0.8 1.42,-0.16 0.59,-1.62 1.57,0.93 0.41,-0.27 1.5,0.62 0.88,-1.05 1.22,0.58 1.88,-0.24 1.57,1.09 -0.04,-2.45 -0.92,-0.71 -1.33,-2.05 -2,-4.47 -0.19,-0.87 1.48,-0.91 -0.9,-2.98 -1.34,-1.66 0.65,-0.38 2.21,1.89 -0.21,0.91 3.66,2.66 1.61,0.42 1.01,-1.71 0.24,-1.25 2.84,-1.42 -0.05,-2.84 -0.63,-2.46 -0.61,-0.44 -0.1,-2.3 0.36,-0.49 1.85,-1.06 0.95,0.95 0.2,1.08 3.36,0.68 -0.33,-0.82 4.49,-1.29 0.42,0.49 2.53,-2.06 1.09,-1.81 z" 
                fill="rgb(151, 144, 238)" 
                stroke="white" 
                stroke-width=".7px"
                title="Pärnumaa" 
                id="EE-67" 
            />
        </svg>