<svg xmlns="http://www.w3.org/2000/svg" viewBox="455.40951000000064 258.3331099999998 118.91999999999962 80.67999999999984" width="118.91999999999962" height="80.67999999999984">
            <path 
                d="m 460.86951,284.65311 3.2,-1.06 -0.2,-1.69 1.64,-1.72 -1.25,-0.21 -0.25,-0.63 0.2,-0.92 1.42,0.25 -1.28,-0.89 -0.55,-1.67 -0.2,-1.46 0.64,-1.04 0.82,0.77 2.73,0.09 1.32,-0.54 0.81,-1.35 1.52,-0.41 0.59,0.38 0.5,1.83 -0.73,2.25 1.18,-1.19 0.56,0.05 0.49,0.7 0.31,-1.06 0.65,-0.05 2.14,-1.58 1.89,-0.11 1.11,1.42 -0.12,-1.29 0.82,-0.33 1.03,-1.85 1.45,-0.36 0.08,-0.7 0.41,0.2 -0.03,-2.05 0.65,-2.59 0.51,-1.35 0.74,-0.11 0.23,-1.28 1.03,-1.18 0.8,-0.27 1,1.54 -0.41,0.89 0.58,1.65 1.01,-0.54 0.38,-1.55 1.75,0.47 0.72,-1.1 1.91,0.4 -0.37,1.51 0.58,0.99 2.53,-0.77 0.88,-1.28 0.72,1.44 1.61,-1.57 -0.4,-1.45 0.74,-1.5 -0.37,-1.1 0.47,-0.54 1.07,-0.1 0.54,0.88 1,0.16 1.2,2.32 2.96,-0.92 0.62,-0.07 0.08,0.47 0.69,-0.56 -0.05,-2.32 0.57,-0.67 1.11,0.11 1.14,2.23 0.72,0.2 4.29,-0.27 0.99,0.4 1.49,-0.07 0.32,1.08 3.4,0.39 -0.78,3.84 7.45,1.56 0.55,-0.86 3.33,2.25 0.74,-0.69 1.65,0.15 1.14,2.75 9.57,1.18 0,0 6.74,12.16 3.33,3.86 -0.67,1.09 -1.86,7.15 1.2,8.14 0.45,0.59 3,1.55 -0.44,-0.87 0.33,-0.95 -0.73,-1.72 0.02,-0.57 0.34,-0.07 0.72,0.23 0.74,1.36 2.33,0.88 -0.37,1.09 0.55,0.39 0.34,1.23 -1.75,3.01 0.61,0.69 0.02,1.59 -1.2,0.61 -1.01,-0.02 -0.34,0.45 1.26,1.55 -0.1,0.73 0.41,0.66 0.92,0.77 -0.06,1.59 3.17,0.7 -0.23,1.81 -1.71,0.75 0.95,0.98 2.38,-0.96 1.19,0.89 0.94,-0.09 0.39,1.04 0.76,0.39 2.11,-0.96 2.2,0.35 0.32,0.09 0.23,1.36 -0.81,0.82 0.46,0.53 -0.3,1.52 0.44,1.19 -0.19,0.87 -2.07,2.12 0.27,1.57 -0.65,-0.41 -1.22,1.76 -1.46,-0.32 -1.85,1.09 -2.05,-1.25 -1.05,-1.69 -0.8,1.26 -1.42,0.73 -2.18,-0.89 -3.54,-0.16 -3.61,1.18 -1.94,0.21 -1.49,-0.32 -0.19,0.37 0,0 -3.63,0 -0.6,0.32 -1.42,-0.58 -0.72,0.14 -0.33,-0.43 -1.29,0.16 -1.91,-0.83 -0.62,0.3 0,0 -0.63,-0.05 0,0 -0.68,-0.36 -2.59,0.37 -1.22,0.95 -0.64,-0.43 -0.56,1.39 -0.88,0.02 -0.94,1.76 -0.47,-0.39 0.13,-0.97 -1.04,0.38 -0.73,-0.38 -0.25,-1.01 -1.55,-0.14 -0.39,-2.19 -3.08,-0.13 0.57,-3.02 1.16,-1.34 -0.07,-1.19 1.12,0.39 0.75,-0.93 -0.12,-0.37 1.12,-0.04 0.2,-1.08 0.57,0.05 0.37,-0.68 0.22,-1.4 -1.07,-0.7 -0.92,0.29 -0.8,-0.88 0.58,-0.27 -0.26,-1.64 -1.08,-0.05 0.16,2.51 -0.56,0.86 -3.05,-1.87 -2.13,0.51 -2.72,-1.69 0.15,-0.77 -2.28,0.16 -0.42,0.4 -0.66,-1.95 -1.8,0.59 -0.26,-1.53 -1.67,-2.84 -1.79,0.2 -0.69,-0.63 0.35,-0.66 -0.29,-0.52 -1.94,1.81 -0.4,-0.15 -0.34,1.06 -1.39,-1 -0.35,0.19 0.14,0.64 -0.99,0.08 -0.28,0.94 0.99,1.82 0.31,1.52 1.86,1.6 -0.18,0.57 -3.21,-0.64 -0.03,-0.75 -3.07,0.27 -1.8,-0.32 0,-0.7 -0.37,-0.16 -0.17,0.77 -0.35,0 -0.79,-1.02 -0.86,0.04 -0.37,-3.68 -2.9,1.59 0,0.5 -1.71,0.68 -0.94,-0.11 -1.34,1.47 0,-1.61 -0.97,-0.02 -2.65,0.81 -1.5,-0.58 -3.17,1.7 -1.07,-1.34 -0.31,-1.05 -0.14,0.35 -1.5,0.11 -0.39,-0.46 -1.68,1.41 -0.54,-1.52 -0.99,0.13 -0.44,-0.5 -0.56,0.25 -1.31,-0.75 -0.37,-1 -0.48,-0.11 -1.04,1.07 -0.7,-0.28 -0.69,0.91 -2.36,0.1 -0.48,-0.85 -2.85,0.96 -1.05,-1.45 -1.15,-0.37 0.28,-0.95 -1.5,0.65 -0.71,-0.5 -0.11,-1.82 -0.89,-0.22 0,0 -0.11,-0.52 1.14,-1.09 -0.14,-1.73 0.52,-0.5 0.01,-0.77 -0.36,-0.52 0.83,-0.6 -1.13,-0.79 -0.67,-1.93 0.5,-1.02 0.78,-0.05 0.11,-1.99 0.71,-0.07 0.14,-2.95 -0.99,-0.41 -0.18,-1.51 0.6,-1.34 -0.85,-0.13 -0.34,0.67 0.17,-1.99 -0.45,-0.54 0.67,-1.83 1.6,-1.77 -0.22,-1.63 1.39,-2.08 0.15,-1.96 z" 
                fill="rgb(151, 144, 238)" 
                stroke="white" 
                stroke-width=".7px"
                title="Põlvamaa" 
                id="EE-65" 
            />
        </svg>