<svg xmlns="http://www.w3.org/2000/svg" viewBox="218.4195099999998 83.00311000000004 119.9300000000002 105.06999999999995" width="119.9300000000002" height="105.06999999999995">
            <path 
                d="m 220.59951,127.00311 1.26,-0.32 -0.24,-1.32 2.04,-1.03 2.69,-4.38 1.61,1.21 0.78,-1.19 2.02,-1.24 2.37,3.13 1.14,0.21 1.99,-1.51 1.21,-0.04 0.78,0.5 0.22,1.76 1.55,0.68 0.27,-0.82 -0.66,-1.9 0.53,-0.64 0.49,0.4 0.91,-0.53 0.06,-1.16 -0.44,0.02 -0.37,-0.93 0.66,-0.99 0.92,-0.41 0.31,-1.45 0.72,0.55 0.29,-0.64 1.14,-0.37 0.31,0.75 1.74,-0.95 -1,-1.48 0.37,-0.59 -0.18,-0.85 -1.3,0.63 -0.31,-0.44 1.19,-1 -0.7,-1.4 0.43,-1.25 1.5,1.12 0.68,0.04 0.35,-0.83 6.16,-0.17 1.99,-1.1 2.56,-0.58 4.89,0.69 1.02,0.73 1.12,-0.46 0.29,0.26 0.01,-5.46 -1.37,0.11 -0.34,-1.37 -1.25,-0.98 3.48,-1.16 -1.84,-2.44 0.12,-1.55 0.96,-2.5 -0.04,-2.66 2.73,0.54 2.54,-2.56 0.86,-2.31 1.04,0.24 0.28,-1.07 2.41,0.03 0.42,0.37 1.27,-0.7 0.68,0.98 0.56,0.24 0.63,-0.33 0.47,0.85 0.38,-0.15 -0.36,-1.04 0.99,-0.85 1.83,2.41 0.78,-0.33 0.2,0.42 0.79,0.04 0.84,0.87 0.48,1.33 1.06,0.11 0.51,-4.75 3.75,0.07 0.65,-0.59 2.55,-0.52 2.69,0.66 1.53,-0.62 -0.72,4.09 0.01,2.92 0.16,1.33 1.72,-0.37 0.07,3.98 0.47,0.22 -0.45,1.11 3.54,1.96 1.65,0.2 0.59,-0.63 1.26,1.43 1.15,-0.71 0.59,1.87 1.45,1.46 0.23,1.16 2.32,2.77 4.19,1.53 2.61,-0.06 0.68,-0.55 0.74,1.42 1.07,-0.44 2,1.42 0.82,-0.17 1.41,0.52 -1.34,1.38 -0.42,1.26 2.01,3.22 -1.14,0.61 1.08,1.84 -0.29,0.55 3.12,0.56 0.13,0.37 -0.77,-0.12 -0.16,0.85 2.48,0.04 0.89,0.73 0.22,-0.27 0.71,0.24 0.37,0.64 -0.92,0.72 1.15,0.61 0.35,0.77 1.27,0.2 -0.25,0.81 0.3,0.98 0.5,-0.22 2.52,1.23 0.73,-0.48 0,0 -0.57,0.99 -3.81,2.12 2.36,3.62 -0.87,6.65 -4.3,2.57 -0.95,3.33 -0.78,0.17 -0.3,0.86 0.66,0.33 0.78,2 0.98,0.27 0.26,-0.33 1.3,1.71 -0.94,0.57 0.63,0.91 -1.04,1.12 -1.1,2.22 0.71,1.06 -2.13,1.57 0,0.94 -1.43,2.08 -0.39,0.17 -1.6,-0.81 -0.61,1.3 0.95,2.71 0.81,0.38 1.69,3.11 -1.57,0.89 0.07,1.85 -1.48,3.34 0.18,1.7 0,0 -3.43,0.32 -1.18,0.81 -2.54,-0.7 -4.64,-0.36 -0.25,-0.62 -1.1,-0.16 0.52,0.67 -1.38,1.02 -0.45,1.63 -1.72,0.45 -0.93,-0.33 0.03,-0.91 -0.98,0.15 -0.65,1.04 -1.33,-0.29 -0.74,1.82 -1.15,0.14 -0.25,0.43 -0.48,2.17 -0.97,0.36 -0.73,3.39 -0.71,0.03 -0.65,0.61 -0.83,-0.3 0.17,-0.43 -0.65,-0.97 0,-1.27 -0.41,-0.17 -0.42,-1.97 -0.19,-2.42 1.14,-5.57 -1.48,-1.77 -1.64,-0.53 -0.17,-0.75 -1.28,-0.4 -0.68,-0.8 -2.73,1.73 -1.47,2.25 -1.58,0.4 -0.66,-0.84 -2.44,0.8 -1.9,-1.31 -1.08,-0.13 -1.19,-1.31 -1.53,0.6 -2.41,-1.13 -2.42,4.74 -5,2.4 -0.86,0.82 -2.71,0.4 -0.14,-0.92 -0.44,-0.12 0.15,-0.57 1.59,-1.59 -2.39,-2.57 -0.86,-0.53 -0.68,0.07 -0.95,0.66 -0.79,1.52 -3.72,2.13 -0.91,4.54 -1.31,1.64 -2.77,0.81 -1.35,0.82 -2.54,1.85 -0.37,1.17 -3.01,-1.48 -6.59,-1.45 -4.64,-2.17 -4.5,1.57 -5.23,-4.51 0,0 2.5,-5.2 0.1,-1.04 0.83,-0.58 -0.74,-1.79 -0.9,-1.26 -1.11,0.73 -1.26,1.73 -1.23,-1.71 -1.63,0.84 -0.6,-0.15 -0.6,-1.3 -0.48,0.5 -0.22,-0.42 0.28,-1.76 0.62,-0.53 1.45,0.17 0.77,-1.37 2.63,-2.16 0.02,-0.4 2.77,-0.57 -0.13,-1.04 -2.06,-0.06 -1.08,-2.08 -0.52,0 1.14,-1.92 0.24,-1.19 0.05,-0.82 -0.54,-0.57 0.68,-0.61 4.17,0.66 0.56,-2.32 -0.46,-1.34 -0.52,-0.33 -1.22,0.55 0.51,-1.46 -2,-1.32 0.33,-0.19 0.19,-1.39 -1.51,-1.04 0.21,-0.77 0.73,-0.52 -0.19,-0.92 -0.61,0.3 -1.63,-0.7 0.72,-1.37 -0.59,-1.77 0.55,-1.67 -2.31,-1.1 -1.73,-2.22 -0.69,-1.56 -0.27,-0.95 0.34,-0.48 -1.42,-2.8 1.28,-1.06 z" 
                fill="rgb(151, 144, 238)" 
                stroke="white" 
                stroke-width=".7px"
                title="Raplamaa" 
                id="EE-70" 
            />
        </svg>