<svg xmlns="http://www.w3.org/2000/svg" viewBox="0.29951168999999656 182.97311 158.76999830999998 162.87000000000003" width="158.76999830999998" height="162.87000000000003">
            <path 
                d="m 139.05951,338.15311 2.1,1.19 1.38,1.74 0.45,2.93 -0.28,1.83 -0.49,-0.62 -0.88,0.44 -0.32,-0.55 -0.56,0.32 -0.48,-1.03 -0.39,0.32 -0.1,-0.64 -0.88,-0.44 -1.32,0.84 0.36,-1.51 -0.5,-0.37 -0.12,-1.96 1.08,-0.84 -0.63,-0.41 0.52,-1.31 0.32,0.16 0.55,-0.78 0.19,0.69 z m -72.039998,-56.95 -0.91,1.62 0.2,-1.96 0.96,-2.06 0.41,-0.09 -0.46,0.45 0.29,0.81 -0.49,1.23 z m 2.76,-6.68 0.07,0.56 0.62,-0.2 0.26,0.83 0.35,-0.5 -0.13,1.53 0.85,-0.36 -0.57,1.26 0.87,-0.32 -0.46,1.51 0.42,0.56 0.56,-0.16 0.3,0.79 -0.41,0.97 -2.63,2.91 -0.1,0.81 -0.23,-0.57 0.32,-0.68 -0.43,0.18 0.1,-0.86 -0.6,-0.22 -0.23,-0.91 -0.41,-0.05 0.32,-0.66 -0.72,0.04 -0.68,0.61 1.45,-2.6 0.98,-3.3 -0.72,0.02 0.85,-1.19 z m 6.66,-6.05 0.31,0.25 0.68,-0.36 1.51,1.46 -0.79,1.74 -0.46,-0.16 0.32,-0.72 -1.36,0.34 -0.12,-0.56 0.51,-0.93 -0.61,0.5 -0.07,-0.43 -0.6,-0.05 0.47,-1.44 0.21,0.36 z m -73.7800003,-21.95 0.54,0.7 1.02,0.07 -1.22,0.61 -0.08,-0.63 -1.17,0.47 -0.1,-1.06 -1.35000001,-0.11 0.15,-0.76 0.59000001,-0.49 1.62,1.2 z m 10.8300003,-10.4 0.14,1.46 0.62,0.04 -0.08,0.27 -1.23,0.02 -1.11,0.71 -0.71,-0.9 0.17,0.62 -0.74,-0.25 0.14,0.87 -1.4900003,0.76 -0.85,-0.25 -0.34,-0.02 -0.54,0.22 -0.57,-0.38 -1.14,0.69 0.21,-0.63 -2.39,-1.7 1.02,-1.03 0.89,0.33 0.37,-0.69 0.85,0.11 0.12,-0.29 0.46,0.34 0.22,-0.56 0.76,0.61 1.28,-0.07 0.42,0.4 -0.16,0.42 1.0200003,0.13 0.23,-0.34 -0.88,-0.83 0.02,-0.72 1.43,1.08 0.84,-0.27 0.68,-0.89 0.34,0.74 z m 110.829998,-3.6 0.61,0.07 -0.35,0.22 0.19,0.27 -1,-0.36 0.17,-0.51 0.38,0.31 z m 0.3,-2.21 0.48,0.81 0.8,-0.2 -0.71,0.76 -0.82,-0.34 0.24,0.38 -0.42,0.18 -0.18,-0.52 0.5,-0.51 -0.46,-0.56 0.57,0 z m 18.23,-1.77 0.14,1.48 0.46,-0.15 0,-0.67 0.36,0.18 0.89,-0.69 -0.23,0.94 -1.09,1.12 -0.74,-0.11 -0.15,-0.56 -0.15,-1.54 0.51,0 z m 9.61,-16.89 0.46,0.8 -0.41,0.11 0.1,0.64 0.23,-0.33 1.05,1.51 -0.41,0.56 -0.32,-0.54 -1.05,0.22 -0.42,0.42 -0.62,-0.05 -0.36,-0.52 -0.35,0.18 -0.1,-1.02 1.19,-1.96 1.01,0 z m -11.41,-2.12 1.32,0.07 -0.01,0.65 0.46,0.38 -0.07,0.56 -0.65,-0.02 0.1,1.05 -0.5,0.04 -0.22,0.65 -0.98,-1.31 -0.03,-1.27 0.59,-0.07 -0.01,-0.73 z m 17.24,-1.89 0.06,0.45 0.59,-0.02 0.13,0.45 -1.08,0.56 -0.16,0.51 -0.4,-0.4 -0.6,0.25 0.37,-1.6 1.09,-0.2 z m -0.44,-16.31 0.63,-0.22 0.47,1.42 -1.06,1.2 -1.76,-1.2 0.15,-0.78 0.86,-0.64 0.71,0.22 z m -84.779998,1.42 1.95,-1.51 1.4,0.69 2.13,3.48 2.37,5.17 0.96,1.04 1.96,0.58 2.44,0 0.85,-1.69 -0.28,-0.47 0.87,-0.4 -0.73,-0.85 0.9,-0.67 0.22,0.6 0.72,-0.05 0.89,1.09 0.6,-0.07 -0.46,0.65 0.53,0.56 -0.15,1.07 0.74,-0.07 0.36,0.31 0.88,0.27 1.1,0.71 1.12,-1.83 1,-3.55 0.07,-1.96 2.11,-2.13 2.499998,0.69 2.11,1.13 0.3,-0.53 0.66,-0.02 2.08,-1.27 2.24,1.78 3.82,-0.33 1.59,0.33 0.13,1.35 1.15,0.07 0.52,0.82 0.24,0.11 2.06,0.66 1.72,1.31 1.32,3.18 0.91,-0.73 1.98,1.15 -0.22,0.98 0.74,0 0.33,0.27 -0.17,0.47 0.51,0.18 1.17,-0.38 0.48,0.16 -0.69,0.13 0.28,0.64 1.04,0.35 0.85,-0.42 2.51,0.98 0.12,1.13 -0.6,-0.16 -0.23,0.45 0.88,1.58 -0.83,-0.42 -0.01,1.16 0.4,0.74 0.41,-0.18 -0.39,0.64 0.62,1.25 0.83,0.42 0.14,0.69 0.51,-0.36 0.3,0.31 -0.62,0.84 0.56,0 0.58,-0.74 2.14,-0.13 0.54,0.6 0.37,-0.25 0.97,0.91 0.48,0 1.48,1.74 2.82,0.44 0.31,0.47 0.89,0.14 0.48,0.36 0.02,0.83 0.85,0.74 0.51,-0.71 0.19,0.35 -0.46,0.8 0.48,0.63 0.47,-0.4 0.35,-0.18 0.24,1.16 -0.42,0.47 0.8,0.18 -0.66,1.7 1.95,-0.13 0.85,0.98 -0.53,0.11 0.1,1.18 -1.16,0.09 -0.18,3.66 -0.33,-0.81 -0.52,0.2 -0.47,-1.48 0.06,-0.8 0.39,-0.18 -0.23,-0.78 -0.52,-0.56 -0.81,0.56 -1.17,-1.03 0.28,-0.49 0.31,0.49 0.76,-0.42 0.24,-0.96 -0.64,0.29 0.15,-1.86 -0.48,-0.52 0.29,-0.18 -1.18,-0.6 -0.43,1.45 0.97,1.31 -0.47,1.5 -1.06,0.6 0.55,-0.96 -0.24,-0.23 -1.91,0.06 -0.46,-0.49 -0.84,1.01 -0.23,-0.91 -0.44,0.36 -0.08,0.74 0.85,0.69 0.44,0.69 0.74,-0.07 -0.1,0.8 0.54,-0.65 0.42,0.22 0.2,-0.32 0.36,0.38 -0.42,0.52 -0.03,0.35 -0.54,0.49 1.42,0.13 -1.23,1.72 -1.65,-1.68 -0.81,-0.38 -0.02,0.9 -0.83,-0.31 -0.04,-1.48 -0.38,-0.32 0.23,-0.4 -0.55,0.22 -0.53,0.96 -0.13,-0.83 0.53,-1.16 -0.93,-1.19 -0.56,-0.05 -1.07,1.38 1.37,-2.52 0.84,-0.56 1.41,0.11 0.22,-0.81 -0.69,0.13 -0.28,-0.02 -0.29,-0.38 -1.4,-0.02 -0.62,0.96 -0.66,-1.05 -0.14,0.49 0.56,0.54 -0.68,0.73 0.58,0.14 -0.26,1.65 -0.4,0.27 -0.25,-2.21 -0.54,0.42 -0.51,-0.45 0.59,-0.38 0.12,-0.69 -0.77,-1.38 -0.36,1.01 -0.01,0.27 -0.08,0.31 0.06,0.25 -0.69,0.74 -0.26,0.16 -0.12,0.49 0.42,0.05 -0.08,0.83 -0.12,0.22 0.89,0.8 -0.3,0.42 0.43,0.07 0.54,2.37 -0.46,0.11 -0.49,-1.07 0.28,-0.8 -0.99,-0.05 0.17,0.65 -1.06,-0.31 -0.09,0.81 0.9,0.85 -1.39,-0.16 0.4,0.73 -1.11,1.14 0.59,0.47 -0.7,0.14 -0.82,0.94 -0.9,-0.81 0.45,-0.89 0.36,0.13 -0.4,-0.67 -0.66,-0.36 -0.89,0.65 -0.32,-0.54 -0.88,0.09 -1.17,2.81 0.17,0.51 0.47,-0.76 -0.15,1.05 0.57,0.13 -0.5,0.58 0.61,0.31 0.1,1.09 0.75,0.16 0.41,-0.63 -0.36,-0.29 0.46,-0.36 0.29,1.01 -0.68,0.98 0.73,0.71 -0.48,1.37 -1.37,-0.16 -0.65,-0.33 0.25,-0.2 -0.28,-0.23 -0.79,0.16 0.31,0.36 -0.9,0.07 0.39,0.43 -0.35,0.07 -0.57,-0.69 0.64,-0.16 -0.75,-0.67 0.65,-0.27 0.09,0.33 0.3,-0.29 0.53,0.22 0.82,-0.51 -0.75,-0.94 -0.29,0.58 -0.69,-0.27 -0.71,0.25 -0.36,1.16 -0.57,0.11 0.24,0.47 -0.36,0.36 0.86,0.58 -0.2,1.26 -0.96,0.63 1.04,0.83 -0.21,0.58 -0.84,-0.27 -0.07,-0.43 -1,0.38 -0.02,-0.65 0.38,-0.16 -0.43,-0.14 -0.44,0.8 -0.8,0.29 -1.99,-1.05 -0.63,-1.19 -0.03,-0.72 -0.34,0.16 -0.08,-0.63 -0.63,-0.32 -0.06,-0.18 -0.02,-0.79 -1.21,0.29 0.46,0.52 -0.56,0.92 -0.47,0.16 -0.25,1.72 1.93,0.76 0.41,2.08 -0.59,0.4 -1.46,-0.18 -0.27,0.98 0.37,1.25 -0.75,-0.16 -0.26,0.36 0.39,0.47 0.4,-0.54 0.2,0.45 -0.71,0.47 0.1,0.34 -0.15,0.34 -0.27,-0.92 -0.31,0.56 0.04,0.31 0.29,1.52 -0.57,0.47 -1.04,-0.04 -0.08,1.62 0.45,0.18 -0.54,0.38 0.6,0.34 -0.91,-0.05 -0.19,0.49 -0.91,-0.16 -0.44,0.4 -0.45,-0.47 -0.44,0.38 -0.92,-0.45 0.13,-0.32 -0.12,-0.32 -0.06,-0.76 -0.63,0.33 0.54,-1.53 -0.56,-0.09 -0.09,0.76 -1.3,-0.59 0.16,0.83 -0.48,1.05 0.57,0.45 0.36,0.36 -2.4,0.79 -0.22,0.6 -0.48,0.02 -0.52,1.01 -0.08,1.12 0.44,0.63 -0.34,1.05 0.17,0.54 -0.28,0.7 -0.659998,0.76 0.09,-0.54 -1.18,-0.77 -0.11,-0.49 -1.53,-0.29 -2.02,0.29 -0.48,-0.47 -0.51,0.38 -2.3,-1.71 -2.07,0.36 -0.77,0.63 -0.57,1.01 0.21,1.17 3.09,4.07 0.53,-0.2 0.28,1.62 0.49,0.63 -0.25,0.59 0.4,0.74 -1.6,1.33 -1.97,0.72 -1.84,-0.83 -0.31,-0.14 -0.83,-0.36 0.01,-0.95 -1.75,-1.17 -0.17,-1.06 -0.65,0.16 -0.02,1.66 -0.73,1.49 0.18,-1.33 -0.9,-1.17 -0.15,-1.1 0.54,-0.92 0.45,0.95 0.54,-0.34 -0.09,-0.41 -0.18,-0.25 -0.36,-0.38 0.9,0.11 0.13,-0.54 -0.84,-1.08 -0.72,0.05 -0.53,0.54 -1.09,-0.92 -0.83,0.49 0.84,0.09 -0.9,0.88 0.3,2.52 -1.68,1.84 -0.23,-0.61 -0.28,0.77 -0.28,-0.2 0.38,-0.58 -0.09,-1.02 -0.65,-0.77 -2.86,2.99 -0.28,-0.72 0.34,-0.43 -0.64,0.25 -0.2,0.65 -0.29,-0.52 0.34,-0.32 -0.08,-1.04 -0.53,-1.33 0.39,-1.19 -0.06,-0.36 -0.17,-1.35 -1.42,0.49 0.18,0.65 -1.04,1.96 -0.24,2.16 -1.12,1.66 0.27,0.47 -0.6,-0.5 0.19,-0.65 -0.62,0.36 -0.54,-0.38 0.73,-1.64 -0.26,-0.45 -0.46,0.34 -0.01,-1.02 -0.76,-0.09 0.14,-0.81 -1.02,0.51 0.16,-1.33 -0.31,0.31 -0.42,-0.32 -0.36,0.67 -0.39,-0.49 -0.6,0.69 -0.68,2.97 -0.59,0.56 -0.54,-0.16 -0.78,0.9 -0.65,-0.13 -0.2,0.31 -0.31,-0.59 -0.78,-0.16 -0.19,0.38 0.66,0.32 -0.92,-0.25 0.03,-0.54 -0.83,-0.38 0.26,1.71 -0.47,-0.97 -0.93,-0.05 0.01,-0.36 -0.63,0 -0.34,0.47 -0.28,-0.41 -0.37,0.4 -0.31,-0.23 -0.24,0.4 -0.4,-0.34 -4.59,2.34 -3.37,3.06 -1.29,2.57 0.05,3.45 -0.42,1.08 1.23,3.39 -1.12,1.13 0.27,-0.05 -0.28,2.3 -0.9,3.03 0.41,1.08 -1.79,1.56 -0.7,1.24 -0.19,1.45 0.73,2.2 -2.31,3.29 -1.85,4.22 0.25,1.4 0.53,0.27 0.85,2.16 0.2,1.48 -1.57,1.07 -0.83,1.34 -0.76,0.43 -1.82,-0.36 -1.04,1.43 -1.09,0.64 -0.55,0.84 -0.43,0.34 -1.07,1.11 -1.23,2.11 -1.65,0.61 -1.8,2.41 -0.97,2.14 0.65,-2.5 -1.16,-0.2 0.14,0.43 -0.83,0.46 -0.45,0.3 0.03,-0.48 -1.11,-0.71 0.06,-0.68 -0.43,-0.84 -0.28,0.18 -0.31,-0.16 -0.4,-1.37 -0.36,-0.04 0.49,-0.53 -0.02,-0.82 -0.46,-0.23 0.27,-0.36 -1.19,-0.61 0.04,-0.52 -0.31,-0.16 -0.6,-0.45 0.21,-2.25 -0.58,-0.21 0.38,-1.66 -0.56,-0.28 1.02,-0.25 0.66,-0.64 0.6,1.2 0.6,-0.68 1.03,-0.32 -0.26,-2.36 0.17,-0.48 0.56,-0.12 -0.33,-0.77 1.44,-0.18 0.68,-0.61 -0.03,-0.7 -0.46,0.13 0.44,-1.05 -0.44,-1.4 1.3,-0.43 0.27,-0.23 0.29,-0.25 -0.29,-0.66 0.49,-0.47 -0.68,-0.11 0.63,-1.29 0.7,0.02 0.24,-3.81 0.52,-0.39 -0.21,-0.54 0.55,-0.38 0.03,-0.61 0.84,-0.07 0.15,-0.45 0.13,-0.47 1.49,-0.34 -0.33,-0.34 0.13,-0.73 0.59,-0.12 -0.1,0.68 0.78,0.36 0.3,-0.3 0.24,0.4 0.83,0.07 -0.32,0.34 0.71,2.26 0.38,0.05 0.27,0.11 1.38,0.57 0.85,-0.41 0.42,-1.04 -0.22,-0.97 0.46,-0.81 -0.39,-2.67 0.61,-0.39 0.67,-1.43 -0.01,-1.09 1.41,-2.85 0.55,-0.23 0.34,0.29 1.59,-1.35 0.18,-0.61 -0.91,-1.33 0.07,-1.61 -0.51,-0.52 -0.71,-0.11 -0.6,0.47 -2.42,-0.2 -1.53,0.5 -0.11,-0.57 -0.89,-0.57 0.06,-1.85 -0.83,0 -0.3,0 -1.2,-0.7 -0.05,0.83 -0.65,0.11 -0.32,-0.93 -0.98,0.16 0.1,-1.15 -1.68,-0.22 0.17,-0.38 -0.65,-0.29 -0.39,0.77 0.75,0.99 -0.85,-0.32 -0.05,0.47 -0.7,-0.2 -0.48,-2.37 -0.61,-0.34 0.2,-0.68 -0.82,-0.48 -0.5,-0.95 1.06,-0.16 0.09,-0.5 -0.97,-0.54 0.57,-0.48 -0.57,-0.54 0.01,-0.66 -0.74,-0.36 0.17,-0.57 -1.02,-0.61 0.38,-0.32 -1.19,-1.46 0.37,-0.47 -1.49,-0.61 -0.21,-0.77 -0.81,-0.18 -0.06,-0.34 -0.44,0.13 -0.28,0.31 -0.58,-0.74 0.01,-1.15 -0.46,0.27 -0.93,-1.26 0.14,1.31 1,0.2 -0.03,0.9 0.14,0.4 0.05,0.31 1.55,0.95 -0.19,0.81 -0.46,-0.31 -1.62,0.59 -1.62,-0.38 -0.36,-0.88 -0.24,0.32 -0.74,-0.88 -0.28,0.54 -0.55,-0.85 -1.05,0.41 -0.68,-0.9 -1.37,-0.63 0.1,0.76 -0.43,-0.45 -0.53,0.11 -0.03,-0.81 0.32,-0.13 -0.29,-0.4 -0.97,0.14 -0.48,-0.34 -0.06,-0.2 -0.4200003,-1.3 -0.47,1.12 -0.76,-1.33 -0.8,-0.65 0.14,-1.17 -1.77,-0.2 -0.02,-0.49 1.18,-1.39 -0.39,-0.14 -0.28,-1.01 -0.46,0.29 -0.43,-0.41 0.39,-0.43 -0.34,-1.12 0.59,-0.58 1.15,-0.4 0.85,1.01 0.61,-0.14 0.15,0.7 0.69,-0.09 1.2600003,1.19 1.04,0.22 -0.3,-1.12 1.52,-0.88 -0.13,-1.08 -2.3,-1.84 -0.45,-0.96 0.22,-0.99 -0.9800003,-0.63 0.01,-0.97 1.2200003,0.79 0.09,-0.7 -2.1400003,-1.9 1.2300003,0.43 1.26,1.52 0.65,0.11 0.74,1.05 0.65,-0.07 1.09,1.23 -0.14,0.51 0.83,0.81 -0.76,-0.38 0.69,1.9 -0.83,0.29 1.09,0.6 1.11,-0.18 0.34,0.38 0.06,-0.61 -0.51,-0.67 0.85,0.56 -0.23,-1.12 0.82,0.49 0.27,-1.03 -0.46,-2.27 -0.51,-0.78 -0.18,0.61 -0.29,-0.27 0.15,-0.74 -0.48,-0.07 -0.72,-1.88 0.16,-0.41 0.64,0.18 -0.35,-0.76 2.27,2 0.38,-0.81 1.6,1.57 -0.32,0.6 0.81,0.33 0.31,-1.01 0.93,-0.4 -0.38,-1.25 0.7,-0.16 0.47,0.47 -0.26,-0.94 -0.72,0.14 -1.08,-1.25 -0.61,-0.04 0.33,-0.32 -0.32,-1.35 0.51,0.4 0.43,-0.72 -0.04,0.56 0.38,0.04 -0.17,-0.85 1.46,1.23 0.34,-0.49 0.84,0.98 0.55,0.02 -1.44,-2.11 -0.45,0.34 -0.98,-0.81 0.19,-1.3 -0.94,-0.9 0.91,0.27 -1.54,-1.12 1.05,0.27 -0.23,-0.85 -0.88,-0.49 -0.82,0.81 -0.46,-1.19 -0.79,-0.45 -0.53,0.14 0.14,-1.1 -0.8,-0.85 0.58,-0.31 -1.18,-0.63 0.87,-1.1 -1.09,-1.12 -0.04,-0.71 -1.22,-0.83 -1.31,-1.72 0.14,-1.54 -0.74,-1.83 -1.32,-0.94 -1.13,0.13 -1.2000003,1.36 -1.32,-1.89 -1.01,-0.38 0.31,-1.92 -0.53,-1.81 1.23,0.69 2.3400003,2.81 1.6,0.16 2.31,-1.01 0.63,-1.03 -0.18,-1.49 -0.59,0.15 0.06,-0.6 -0.68,-0.72 0.75,-2.39 3.78,1.32 0.72,0.74 2.7,-0.62 1.54,0.62 1.09,1.14 2.04,5.17 0.65,0.69 0.62,3.66 0.98,1.29 1.1,3.69 1.36,0.61 1.39,-0.16 1.09,-1.32 -0.63,-1.79 0.62,-1.99 -0.53,-2.1 0.47,-1.56 -0.32,-1.21 0.4,-1.58 1.82,-3.04 0.82,-0.49 1.38,1.2 0.29,-0.54 -0.54,-1.09 0.51,-0.71 1.52,-1.07 1.63,0.14 0.48,-0.42 0.14,-2.05 -0.6,-1.54 0.6,-2.23 1.51,0.04 1.69,2 0.12,2.45 -0.3,0.78 0.56,1.38 -0.17,2.09 0.77,1.78 1.59,0.25 2.38,0.25 0.6,-0.36 -0.11,-0.49 0.5,-0.07 0.75,-3.1 -0.54,-0.63 0.66,-0.13 -0.37,-0.44 0.97,-1.09 -1.15,-1.81 0.35,-1.29 -0.38,-0.07 0.07,-0.36 -0.65,-0.29 -0.77,0.24 -0.14,1.31 0.42,0.33 -0.73,0.24 0.43,-3.34 -0.43,-2.65 0.34,-1.38 0.78,-0.25 1.8,1.24 1.73,-1.42 1.6,0.18 0.8,-0.31 0.45,-0.71 2.61,0.78 1.09,-0.55 0.28,0.31 1.54,-0.64 1.94,0.27 3.23,-0.87 2.34,-1.85 0.41,-1.45 1.15,-0.87 0.33,-1.24 1.33,-1.02 0.01,-2.29 0.54,-1.29 -0.28,-0.67 0.42,-0.38 0.46,0.38 -0.39,0.22 0.42,0.56 -0.72,0.95 z m 45.769998,-2.93 0.73,0.53 0.48,-0.4 0.02,2 0.91,1.35 0.3,-0.05 -0.13,0.33 -2.05,-0.07 -1.37,-0.85 0.54,-2.37 0.57,-0.47 z m 16.58,-6.85 2.26,1.37 1.5,0.38 0.68,0.69 2.85,1.06 2.2,1.59 0.67,-0.04 1.8,1.18 2.35,0.27 0.68,0.53 0.81,1.71 0.08,1.31 -1.76,1.86 0.13,1.8 0.79,0.27 0.38,1.47 3.16,4.58 0.06,0.2 0.05,1.76 1.32,2.23 -0.66,2.12 -2.13,0.98 -1.08,1.11 -0.14,-1.03 -1.34,0.09 -0.09,-0.38 -1.1,-0.11 -0.59,-2.61 -0.49,0.49 -0.23,-1.45 -0.58,2.54 -1.2,1.63 -0.59,-1.05 0.53,-0.27 0.07,-1.27 -0.53,0 -0.38,0.58 -0.18,1.36 -0.96,-0.98 -0.57,-1.43 -1.59,-0.02 -0.6,0.73 -0.22,1.18 -0.52,0.16 -0.37,2.25 -0.81,0.69 -0.22,-1.11 -0.34,0.67 -0.91,-0.38 -0.01,-2.72 -0.64,0.69 0.22,-1.22 -0.8,0.38 -0.57,-1.38 -0.55,0.89 -1.17,-1.29 -0.6,-1.43 1.15,0.38 -0.28,-1.34 -0.65,0.38 -2.35,-3.05 -0.97,-0.11 -0.43,0.82 -0.96,0.35 -2.17,-1.65 -1.84,-0.55 -0.91,-1.09 -0.31,-1.09 -0.35,0.02 0.78,-2.91 -0.95,-1.04 1.25,0.11 0.17,-0.49 1.55,-0.98 2.32,1.27 1.33,-0.18 0.92,-1.36 -0.05,-0.89 -0.83,-1.22 0.35,-1.82 -0.51,-0.64 0.55,-0.55 -0.57,-0.35 0.55,-2.62 1.19,-1.35 1.06,0.69 2.89,-1.37 z" 
                fill="rgb(151, 144, 238)" 
                stroke="white" 
                stroke-width=".7px"
                title="Saaremaa" 
                id="EE-74" 
            />
        </svg>