<svg xmlns="http://www.w3.org/2000/svg" viewBox="406.22951000000023 175.8031100000004 143.03999999999985 110.35999999999996" width="143.03999999999985" height="110.35999999999996">
            <path 
                d="m 534.96951,181.89311 8.2,35.18 6.1,23.39 -6.23,11.33 0.24,13.96 3.57,6.83 0,0 -9.57,-1.18 -1.14,-2.75 -1.65,-0.15 -0.74,0.69 -3.33,-2.25 -0.55,0.86 -7.45,-1.56 0.78,-3.84 -3.4,-0.39 -0.32,-1.08 -1.49,0.07 -0.99,-0.4 -4.29,0.27 -0.72,-0.2 -1.14,-2.23 -1.11,-0.11 -0.57,0.67 0.05,2.32 -0.69,0.56 -0.08,-0.47 -0.62,0.07 -2.96,0.92 -1.2,-2.32 -1,-0.16 -0.54,-0.88 -1.07,0.1 -0.47,0.54 0.37,1.1 -0.74,1.5 0.4,1.45 -1.61,1.57 -0.72,-1.44 -0.88,1.28 -2.53,0.77 -0.58,-0.99 0.37,-1.51 -1.91,-0.4 -0.72,1.1 -1.75,-0.47 -0.38,1.55 -1.01,0.54 -0.58,-1.65 0.41,-0.89 -1,-1.54 -0.8,0.27 -1.03,1.18 -0.23,1.28 -0.74,0.11 -0.51,1.35 -0.65,2.59 0.03,2.05 -0.41,-0.2 -0.08,0.7 -1.45,0.36 -1.03,1.85 -0.82,0.33 0.12,1.29 -1.11,-1.42 -1.89,0.11 -2.14,1.58 -0.65,0.05 -0.31,1.06 -0.49,-0.7 -0.56,-0.05 -1.18,1.19 0.73,-2.25 -0.5,-1.83 -0.59,-0.38 -1.52,0.41 -0.81,1.35 -1.32,0.54 -2.73,-0.09 -0.82,-0.77 -0.64,1.04 0.2,1.46 0.55,1.67 1.28,0.89 -1.42,-0.25 -0.2,0.92 0.25,0.63 1.25,0.21 -1.64,1.72 0.2,1.69 -3.2,1.06 0,0 -0.23,-1 -1.79,0.25 -0.02,-2.43 -3.1,-1.11 -0.04,-2.1 -1.06,-0.93 -3.63,-0.58 -2.54,0.47 -0.95,1.69 -1.78,0.21 -2.49,1.92 -1.01,-0.75 -1.14,0.54 0.14,-1.46 -0.58,-1.88 -0.43,-0.31 0.23,-0.55 -0.28,-0.44 -1.06,0.6 -2.35,-1.17 -3.7,7.22 -1.71,-0.86 -1.4,0.27 -1.08,-0.27 -1.28,4.18 -5.89,-0.16 -5.68,-0.69 -0.45,-1.2 -1.69,0.88 -0.39,-0.32 -0.59,1.27 -0.57,-1.54 -2,0.7 -1.86,-0.92 0,0 -2.24,-37.3 8.25,-9.62 0.84,-0.07 0.32,-1.85 1.01,-0.78 -0.04,-0.59 0.49,-0.04 0.84,-1.01 1.63,0.27 0.12,-1.03 -0.85,-1.32 -0.61,-2.88 -1.24,-1.63 0.4,-0.98 -0.7,-1.25 0.2,-0.57 -0.43,-0.26 -0.2,-1.01 -0.34,0.07 0.13,-0.49 -0.41,0.05 -0.14,-0.39 0,0 0.41,-0.6 -0.5,-0.98 0.48,0.04 -0.01,-0.77 0.48,0.4 -0.23,-0.98 0.83,-0.59 -0.56,-0.35 0.93,-1.07 2,2.09 1.6,-1.18 1.7,1.03 8.23,-6.16 2.47,-0.75 0.82,-1.65 1.6,0.11 1.89,1.2 0.41,2.68 1.64,0.95 -0.54,-1.13 1.09,-2.99 0.49,0.09 1.01,-1.27 1.28,-0.47 0.63,0.85 1.59,-0.53 2.1,1.58 0.74,-0.04 0.72,-0.94 -1.1,-0.69 1.17,-1.03 4.29,-0.49 -0.63,1.47 -1.42,0.14 -0.02,0.55 1.15,0.72 0.59,-0.16 0.8,0.69 1.54,-1.51 2.42,2.51 1.94,1.23 0.86,-0.92 2.12,-0.33 0.94,-0.93 -0.89,-1.01 0.12,-1.96 0.4,-1.29 1.85,-1.93 -0.65,-1.29 2.35,1.47 0.87,1.91 0.71,0 0.94,1.31 0.68,-0.07 1.87,-1.29 0.18,-1.64 1.54,1 1.64,-1.25 2.14,0.63 0.17,-0.58 0.95,-0.4 0.01,-0.45 2.09,-0.29 -0.42,-1.53 2.42,-0.16 -0.31,-2.49 1.36,-7.84 1.01,-0.13 5.48,2.15 2.93,2.73 0.45,-0.09 0.23,-0.79 0.89,1.02 0.38,-0.13 -0.3,-1.14 0.71,-0.38 0.3,0.56 0.95,0.35 0.62,1.03 0.1,1.48 0.61,0.54 1.6,-0.04 0.15,-2.25 -0.86,-0.66 -0.59,-2.27 0.69,-1.36 -0.6,-1.13 -1.42,0.34 -0.12,-1.2 1.91,-0.87 0.71,0.51 1.35,-0.62 0.25,-1.19 1.39,-0.78 1.58,0.86 0.95,-2.15 -0.87,-0.97 0.27,-0.43 4.38,-1.99 0.67,0.36 0.15,0.59 24.14,-8.32 0,0 z" 
                fill="rgb(151, 144, 238)" 
                stroke="white" 
                stroke-width=".7px"
                title="Tartumaa" 
                id="EE-78" 
            />
        </svg>