<svg xmlns="http://www.w3.org/2000/svg" viewBox="362.30950999999993 275.62311000000005 98.55999999999995 106.75" width="98.55999999999995" height="106.75">
            <path 
                d="m 408.46951,284.18311 1.86,0.92 2,-0.7 0.57,1.54 0.59,-1.27 0.39,0.32 1.69,-0.88 0.45,1.2 5.68,0.69 5.89,0.16 1.28,-4.18 0.7,0.27 1.78,-0.27 1.71,0.86 3.7,-7.22 2.35,1.17 1.06,-0.6 0.28,0.44 -0.23,0.55 0.43,0.31 0.58,1.88 -0.14,1.46 1.14,-0.54 1.01,0.75 2.49,-1.92 1.78,-0.21 0.95,-1.69 2.54,-0.47 3.63,0.58 1.06,0.93 0.04,2.1 3.1,1.11 0.02,2.43 1.79,-0.25 0.23,1 0,0 -1.47,0.48 -0.15,1.96 -1.39,2.08 0.22,1.63 -1.6,1.77 -0.67,1.83 0.45,0.54 -0.17,1.99 0.34,-0.67 0.85,0.13 -0.6,1.34 0.18,1.51 0.99,0.41 -0.14,2.95 -0.71,0.07 -0.11,1.99 -0.78,0.05 -0.5,1.02 0.67,1.93 1.13,0.79 -0.83,0.6 0.36,0.52 -0.01,0.77 -0.52,0.5 0.14,1.73 -1.14,1.09 0.11,0.52 0,0 -0.66,-0.11 -0.73,0.97 -1.51,-0.59 -0.25,0.48 -2.03,0.38 -0.51,-0.59 -0.86,-0.2 -1.19,1 -0.11,1.78 -0.63,0.06 -0.44,-0.59 -1.82,0.04 -2.19,1.23 -0.97,-0.2 -0.53,-0.93 -0.74,0.13 -1.06,2.17 1.56,1.29 -0.16,1.3 0.56,0.75 -0.08,1.21 -1.71,1.55 -0.57,2.37 -2.02,0.75 1.26,1.18 0.48,-0.22 0.66,0.68 2.18,0.11 1.63,2.46 -2.08,1.4 -0.09,0.64 0.66,1.11 -0.2,1.08 1.08,2.24 -0.02,0.64 -1.31,1.55 0.44,0.14 0.15,1.3 0.91,-0.02 0.52,0.64 0.22,1.99 0.28,0.22 0.38,-0.71 1.02,-0.27 0.62,0.28 1.23,-1.19 0.78,-0.05 1.16,0.98 -0.05,2.08 -1.26,0.42 0.59,0.46 -0.08,1.55 0.6,1.19 -1.05,0.35 -0.66,1.07 -1.16,-0.32 -0.44,0.66 -0.59,-0.13 -0.34,1.19 0.93,0.78 1.06,1.99 0.03,1.81 0.48,0.05 0.69,-1.2 0.57,0.07 -0.02,1.77 0.49,-0.32 0.57,0.43 0.44,2.27 -0.94,1.4 -2.42,2.07 -2.6,4.2 5.32,4.46 -2.89,5.34 -0.57,-0.57 -0.37,0.37 -0.31,-0.31 -0.41,0.79 3.56,0.32 -0.82,2 -0.84,0.83 0,0 -4.7,0.69 -1.68,-0.11 -5.37,-1.98 -0.99,0.88 -0.81,-0.07 -0.53,-0.99 -0.48,-0.15 0.05,-0.52 -0.48,-0.02 -0.05,-0.79 -2.17,0.19 -0.37,-0.7 -0.86,-0.43 -0.98,-2.21 -1.73,-1.43 -0.29,-2.44 0.52,-0.8 -0.75,-1.52 -0.62,-0.35 0.8,-0.45 -0.19,-1.4 -1.16,-0.23 -1.21,-1.01 -0.29,-2.49 -1.55,-1.08 -1.4,-0.29 0.76,-1.22 1.07,-3.42 -0.66,-1.1 -2.09,-1.53 -2.62,-0.58 -0.92,-1.37 0.5,-1.01 -0.45,-0.8 -5.39,-2.81 -2.06,0.71 -1.84,-1.58 -1.64,0.66 -0.16,-0.87 0.7,-0.64 -0.33,-2.15 0.78,-1 0.41,-3.09 1.65,-3.45 0.43,-1.71 -0.11,-1.6 -1.91,-0.36 -1.22,0.54 -1.2,-2.07 -0.89,-0.27 -3.67,2.6 -2.86,-1.3 -3.24,0.24 -1,0.58 0.02,-1.42 -0.76,-0.45 -0.34,-1.33 -1.52,1.53 -3.94,-1.05 -3,-6.33 0.2,-1.28 -1.03,-0.96 -2.65,-0.75 -1.25,-1.22 -0.89,0.31 -0.69,1.69 -1.41,1.36 -2.19,-0.07 -0.29,-1.39 -1.78,0.08 -1.25,-0.76 -0.27,-1.2 -1.27,-1.71 -4.47,-2.09 0.95,-2.57 0,0 2.58,-5.27 0.21,-1.32 0.69,-0.54 -2.18,-5.27 0.78,-1.01 1.42,0.49 0.28,-0.33 4.03,-0.16 0.88,0.25 0.51,1.31 1.04,-0.86 0.89,-1.56 0.86,-0.17 0.28,-0.95 1.16,-1.24 0.23,-1.14 0.75,-0.15 0.59,-0.91 -1,-1.26 2.8,-0.14 0.35,0.36 0.99,-0.63 0.6,-0.96 0.73,0.48 0.46,-1.58 1.03,-0.2 0.45,0.47 -0.09,-1.16 0.92,0.14 0.4,-0.81 0.67,-0.09 -0.24,-1.13 1.56,0.04 0.17,-0.65 -0.42,-0.62 -0.27,-2.16 -0.42,0.06 -0.71,2.13 -0.34,0.07 -0.2,-0.8 -0.11,-1.72 1.96,-0.4 -0.15,-0.9 1.32,-0.23 -0.32,-1.67 -0.63,-0.21 -0.48,-1.39 2.13,-0.01 1.68,0.64 1.29,1.31 0.73,1.94 1.01,1.24 0.42,3.37 2.77,0.43 0.91,-0.27 1.44,-0.9 0.06,-1.07 3.68,-0.93 0.05,-1.08 0.7,-0.41 1.84,0.27 z" 
                fill="rgb(151, 144, 238)" 
                stroke="white" 
                stroke-width=".7px"
                title="Valgamaa" 
                id="EE-82" 
            />
        </svg>