<svg xmlns="http://www.w3.org/2000/svg" viewBox="436.8695099999995 314.07310999999936 112.80000000000024 79.2100000000001" width="112.80000000000024" height="79.2100000000001">
            <path 
                d="m 455.51951,314.18311 0.89,0.22 0.11,1.82 0.71,0.5 1.5,-0.65 -0.28,0.95 1.15,0.37 1.05,1.45 2.85,-0.96 0.48,0.85 2.36,-0.1 0.69,-0.91 0.7,0.28 1.04,-1.07 0.48,0.11 0.37,1 1.31,0.75 0.56,-0.25 0.44,0.5 0.99,-0.13 0.54,1.52 1.68,-1.41 0.39,0.46 1.5,-0.11 0.14,-0.35 0.31,1.05 1.07,1.34 3.17,-1.7 1.5,0.58 2.65,-0.81 0.97,0.02 0,1.61 1.34,-1.47 0.94,0.11 1.71,-0.68 0,-0.5 2.9,-1.59 0.37,3.68 0.86,-0.04 0.79,1.02 0.35,0 0.17,-0.77 0.37,0.16 0,0.7 1.8,0.32 3.07,-0.27 0.03,0.75 3.21,0.64 0.18,-0.57 -1.86,-1.6 -0.31,-1.52 -0.99,-1.82 0.28,-0.94 0.99,-0.08 -0.14,-0.64 0.35,-0.19 1.39,1 0.34,-1.06 0.4,0.15 1.94,-1.81 0.29,0.52 -0.35,0.66 0.69,0.63 1.79,-0.2 1.67,2.84 0.26,1.53 1.8,-0.59 0.66,1.95 0.42,-0.4 2.28,-0.16 -0.15,0.77 2.72,1.69 2.13,-0.51 3.05,1.87 0.56,-0.86 -0.16,-2.51 1.08,0.05 0.26,1.64 -0.58,0.27 0.8,0.88 0.92,-0.29 1.07,0.7 -0.22,1.4 -0.37,0.68 -0.57,-0.05 -0.2,1.08 -1.12,0.04 0.12,0.37 -0.75,0.93 -1.12,-0.39 0.07,1.19 -1.16,1.34 -0.57,3.02 3.08,0.13 0.39,2.19 1.55,0.14 0.25,1.01 0.73,0.38 1.04,-0.38 -0.13,0.97 0.47,0.39 0.94,-1.76 0.88,-0.02 0.56,-1.39 0.64,0.43 1.22,-0.95 2.59,-0.37 0.68,0.36 0,0 0.63,0.05 0,0 0.62,-0.3 1.91,0.83 1.29,-0.16 0.33,0.43 0.72,-0.14 1.42,0.58 0.6,-0.32 3.63,0 0,0 0.99,0.4 -0.44,1.45 -0.75,-0.05 0.09,1.02 0.68,-0.04 0.06,0.34 -0.99,0.28 -0.14,0.82 -0.68,0.3 0.31,0.64 -0.21,1.89 -0.48,0.51 -0.3,-0.25 -0.53,0.36 -0.52,-0.52 -0.86,0.64 -0.65,-0.39 -0.48,0.45 0.95,0.69 0.71,1.6 -0.44,1.78 1.89,1.56 -1.41,1.08 1.58,0.11 -0.08,1.58 0.88,1.12 0.61,0.12 -1.68,0.92 -0.36,3.41 -1.34,-0.48 -0.32,0.89 -0.74,0.07 -0.48,-3.16 -0.6,0.83 -1.22,0.45 -0.67,1.49 -1.75,-1.32 -1.64,1.35 -0.13,1.69 -1.5,0.02 0.19,0.63 -3.19,3.35 -0.82,1.95 0.71,0.68 -0.19,0.77 0.53,0.46 -0.47,0.93 0.15,0.79 0.78,1.15 1.05,0.62 -0.02,1.47 -1.02,0.92 0.08,0.48 0.18,0.44 1.19,-0.23 0.12,0.71 -1.86,1.34 -0.56,1.19 -1.47,-0.37 -1.12,0.77 -2.81,3.33 0.07,0.99 0.72,1.2 -0.14,1.11 0.67,1.06 -0.11,1.09 1.12,2.12 0.24,2.86 -0.5,-0.72 -2.01,-0.09 -2.77,-2.56 -1.41,-0.11 -0.33,-1.02 -1.01,-0.03 -0.31,-0.87 -2.14,0.28 -1.18,-1.06 -3.01,0.41 -3.15,-1.32 -3.8,-0.36 -1.72,-0.93 -1.93,-1.86 -1.26,-0.02 -0.99,-0.86 -1.48,0.05 -0.94,-0.67 0.55,-0.71 0.14,-1.38 -1.21,-1.32 -3.38,-0.07 -0.25,-0.78 -1.34,-0.55 -0.91,1.48 -0.68,-0.12 -1.37,0.55 -0.66,-1.22 0.88,-0.96 0.02,-0.93 -1.13,-0.32 -1.21,-2 -1.66,-0.05 -1.15,1.52 -2.91,1.55 -0.65,0.87 0.38,0.78 -0.26,2.39 -0.93,0.28 -1.35,1.47 -1.77,0.51 -1.32,-0.36 -0.74,1.51 -1.58,-1.29 0.09,0.7 0.69,0.53 -0.93,2.32 -1.81,-0.28 1.43,-1.66 -0.09,-0.62 -2,-0.83 -1.38,-1.19 -0.52,0.94 0.74,1.11 -0.71,1.08 -0.74,-0.42 -1.23,0.74 -1.14,-0.81 -0.1,0.86 -2.15,0.18 -0.42,0.81 0.89,0.14 -0.07,0.51 -0.56,0.37 -2.04,0 -3.51,4.58 -0.03,3.37 -2.29,-1.29 0.26,-1.31 -0.36,-0.12 0.09,-2.01 -0.35,-0.43 -0.72,1.17 -1.35,0.62 -0.16,1.09 0.39,0.81 -0.71,1.01 -3.22,-0.64 -2.4,-1.52 -1.09,-3.4 -0.06,-1.5 -1.73,-4.08 0,0 0.84,-0.83 0.82,-2 -3.56,-0.32 0.41,-0.79 0.31,0.31 0.37,-0.37 0.57,0.57 2.89,-5.34 -5.32,-4.46 2.6,-4.2 2.42,-2.07 0.94,-1.4 -0.44,-2.27 -0.57,-0.43 -0.49,0.32 0.02,-1.77 -0.57,-0.07 -0.69,1.2 -0.48,-0.05 -0.03,-1.81 -1.06,-1.99 -0.93,-0.78 0.34,-1.19 0.59,0.13 0.44,-0.66 1.16,0.32 0.66,-1.07 1.05,-0.35 -0.6,-1.19 0.08,-1.55 -0.59,-0.46 1.26,-0.42 0.05,-2.08 -1.16,-0.98 -0.78,0.05 -1.23,1.19 -0.62,-0.28 -1.02,0.27 -0.38,0.71 -0.28,-0.22 -0.22,-1.99 -0.52,-0.64 -0.91,0.02 -0.15,-1.3 -0.44,-0.14 1.31,-1.55 0.02,-0.64 -1.08,-2.24 0.2,-1.08 -0.66,-1.11 0.09,-0.64 2.08,-1.4 -1.63,-2.46 -2.18,-0.11 -0.66,-0.68 -0.48,0.22 -1.26,-1.18 2.02,-0.75 0.57,-2.37 1.71,-1.55 0.08,-1.21 -0.56,-0.75 0.16,-1.3 -1.56,-1.29 1.06,-2.17 0.74,-0.13 0.53,0.93 0.97,0.2 2.19,-1.23 1.82,-0.04 0.44,0.59 0.63,-0.06 0.11,-1.78 1.19,-1 0.86,0.2 0.51,0.59 2.03,-0.38 0.25,-0.48 1.51,0.59 0.73,-0.97 z" 
                fill="rgb(151, 144, 238)" 
                stroke="white" 
                stroke-width=".7px"
                title="Võrumaa" 
                id="EE-86" 
            />
        </svg>