<svg xmlns="http://www.w3.org/2000/svg" viewBox="0.4144869700000026 169.12133999999992 56.570000029999996 87.5399999999999" width="56.570000029999996" height="87.5399999999999">
            <path 
                d="m 16.984487,228.42134 -7.16,-5.93 -2.53,-0.77 -0.74,1.31 -0.82,-0.98 -0.77,-0.23 -0.33,-0.44 0.33,-1.1 0.11,0.1 -0.24,1.07 0.6,-0.77 0.25,-1.28 -0.39,-0.27 0.63,-1.04 -0.93,-0.36 -0.14,-0.78 -0.49,0.27 -0.05,-0.93 -0.31,0.19 -1.4,-0.87 -0.02,-0.47 -0.55,0 1.26,-1.51 -0.35,-1.04 -0.66,-0.24 -1.46000003,0.64 -0.41,-0.8 1.18000003,0.03 1.29,-0.94 0.14,0.4 0.68,0.11 0.22,-0.61 0.63,0.07 0.58,-2.05 0.55,-0.24 0.11,0.54 0.43,-0.07 -0.3,-1.11 0.5,-0.06 0.74,-1.88 -0.44,-0.44 -0.25,-1.72 -0.96,-0.63 0.06,-1.75 1.26,-1.31 1.7,-0.4 0.14,-0.81 0.65,-0.47 -0.13,-0.57 0.98,-0.51 0.28,-0.84 1.21,-0.44 0.38,-2.75 1.07,-0.61 -0.63,-5.05 -0.88,-1.14 0,-1.32 -0.9,-0.9 -0.06,-1.92 -1.32,-0.88 0.53,-1.58 -1.13,-0.37 0.03,-0.41 0.77,0.14 0.54,-0.47 0.39,0.6 0.71,-0.17 0.36,0.54 1.7,-0.1 1.87,-1.88 0.82,-0.04 0.68,-0.94 0.74,-3.57 0.47,-0.31 0.22,-1.11 0.49,-0.74 1.79,-0.91 0.08,-0.44 1.71,1.66 6.49,-2.7 0.68,0.07 1.43,1.92 -0.79,4.2 0.37,1.07 3.09,0.24 6.57,1.65 1.74,1.24 1.38,2.62 0,0 0.55,2.62 -0.44,1.73 0.3,0.78 1.09,0.64 6.67,-1.15 3.84,-0.2 1.67,0.57 0.25,0.81 -0.49,1.79 -2.9,1.84 0,0 -1.16,0.48 -0.72,0.97 0.11,3.33 -0.38,1.42 -0.8,0.9 -2.14,0.54 -0.68,1.65 2,3.39 0.77,5.45 -0.36,8.29 -2,13.11 1.12,4.65 1.24,2.51 0.08,2.92 2.41,9.07 0.3,5.61 0,0 -4.38,-2.35 -4.41,2.02 -9.73,0.29 -3.38,0.85 -0.87,-0.2 -4.76,-3.78 -1.54,-0.77 -2.51,-0.17 0,0 -0.3,-0.62 -0.57,0.04 -0.36,-1.74 0.25,-2.08 -0.31,-0.97 0.33,-0.7 -0.41,-0.27 0.33,-2.31 -0.3,-0.16 -0.22,-5.69 0.38,-0.37 -0.98,-3.75 0.4,-0.61 -1.12,-1.94 z" 
                fill="rgb(151, 144, 238)" 
                stroke="white" 
                stroke-width=".7px"
                title="Al Lādhiqīyah" 
                id="SY-LA" 
            />
        </svg>