<svg xmlns="http://www.w3.org/2000/svg" viewBox="14.644487000000002 483.09134 12.630000000000006 49.64999999999992" width="12.630000000000006" height="49.64999999999992">
            <path 
                d="m 15.784487,483.09134 2.2,1.28 0.13,0.39 -1.04,1.64 3.35,3.36 4.08,0.49 0.39,0.95 -0.25,4.6 0,0 -0.99,5.31 0.2,0.59 2.35,1.7 0.36,1.23 -2.8,5.54 -0.68,6.36 2.28,4.42 1.56,1.92 0.35,2.31 -0.52,0.75 -1.56,-1.89 -3.29,0.36 -0.17,0.88 0.91,1.76 0.11,2.96 -2.87,2.74 0,0 0.82,-2.55 -2.05,-3.2 -0.85,-7.8 -0.51,-1.67 0.29,-3.69 -0.5,-2.06 0.65,-0.95 1.97,0.53 1.64,-0.45 0.02,-0.79 -1.34,-1.91 1.77,-1.89 0.23,-3.07 -2.08,-3.01 -2.92,-0.79 -0.2,-1.27 1.2,-1.59 0.57,-1.89 -0.79,-3.77 -3.16,-3.58 1.14,-1.94 z" 
                fill="rgb(151, 144, 238)" 
                stroke="white" 
                stroke-width=".7px"
                title="Al Qunayţirah" 
                id="SY-QU" 
            />
        </svg>