<svg xmlns="http://www.w3.org/2000/svg" viewBox="368.0044900000001 0.27133579999999324 290.8400000000001 216.04000420000003" width="290.8400000000001" height="216.04000420000003">
            <path 
                d="m 609.17449,85.881336 -1.66,0.57 -3.61,3.14 -11.99,3.15 -28.03,5.23 -0.91,0.52 -0.97,0.98 -10.8,19.090004 -0.27,11.3 -2.46,20.89 -0.88,4.56 12.15,26.63 1.31,24.82 -6.05,9.55 0,0 -12.59,-1.69 -13.49,0.07 -10.37,-1.11 -8.03,-2.45 -5.68,-1.17 -6.81,-3.83 -1.83,-2.56 -2.69,-1.81 -78.06,-76.95 -3.87,-4.95 -2.16,-4.37 -3.84,-6.08 -1.52,-3.96 0,0 -0.26,-2.08 -0.8,-1.39 -2.77,-2.410004 -1.89,-1.09 -7.6,-2.79 -4.55,-2.17 -5.49,1.25 -2.14,-0.34 -1.81,-1.12 -5.78,-7.55 -0.83,-3.37 -1.78,-3.61 -0.36,-1.7 0,0 1.33,-0.55 1.43,0.23 7.77,-1.22 5.02,-1.44 6.73,-0.77 5.72,-2.2 8.35,-0.7 3.41,-0.72 4.8,-2.67 7.19,-2.62 5.19,-3.14 3.57,-1.48 3.46,-3.02 4.51,-1.37 4.76,-0.85 2.67,-1.11 3,-1.9 2.16,-2.06 1.8,-0.76 4.69,-3.18 5.93,-2.79 3.27,-3.02 1.88,-1.18 10.68,-2.21 3.57,-1.78 1.95,-1.59 7.17,-3 3.26,-2.37 4.42,-1.02 2.88,-1.8 4.02,0.1 1.14,1.28 1.62,0.34 3.5,-2.18 3.48,-0.35 2.85,0.33 4.99,1.53 11.26,2.09 5.45,0.35 3.42,1.59 0.74,1.52 0.64,0.42 1.82,-0.16 3.38,-1.77 22.69,-0.04 5.66,-0.7 9.79,-3.35 7.02,-0.13 2.98,-0.49 21.38,-5.19 4.07,-2.21 4.05,-1.41 4.81,-2.96 1.61,-2.78 1.66,-1.7400002 5.41,-4.04 2.22,-4.08 0.84,-0.49 0.71,0.22 0.08,1.2 -1.4,2.93 0.2,0.8 2.62,-0.36 2.79,1.14 1.91,-1.21 1.22,2.43 1.36,0.56 0.63,1.44 2.2,1.0700002 0.76,1.1 -0.22,2.09 -1.49,1.36 -0.48,1.71 0.18,1.34 2.53,5.92 -0.05,3.93 0.37,0.72 1.49,0.88 0.36,1.83 -13.38,13.48 -7.13,8.27 -4.16,4.03 -19.39,22.99 -3.41,2.96 z" 
                fill="rgb(151, 144, 238)" 
                stroke="white" 
                stroke-width=".7px"
                title="Al Ḩasakah" 
                id="SY-HA" 
            />
        </svg>