<svg xmlns="http://www.w3.org/2000/svg" viewBox="228.07449 66.43133600000004 175.99000000000015 186.300004" width="175.99000000000015" height="186.300004">
            <path 
                d="m 255.68449,236.72134 -1.61,-2.58 -4.99,-3.87 0,0 -13.47,-13.57 -7.54,-9.6 0.33,-5.65 1.59,-7.63 2.66,-8.21 2.47,-4.55 4.06,-5.73 2.49,-2.56 2.28,-5.76 -0.11,-1.22 -4.33,-3.51 -1.51,-2.63 -4.28,-4.39 -1.51,-2.23 -0.66,-4.53 0.36,-3.69 2.74,-4.15 1.13,-2.98 1.97,-3.18 1.67,-1.63 4.2,-2.03 0.95,-1.06 3.03,-0.6 10.06,-0.51 9.49,-1.89 9.47,-5.22 6.14,-4.41 3.62,-4.27 2.33,-3.53 1.73,-5.71 1.48,-8.390004 0.19,-10.07 -0.46,-1.12 -1.24,-0.48 -4.42,3.41 -1.75,0.34 -1.34,-1.4 -0.77,-3.91 0.66,-0.99 5.87,-0.82 0.96,-0.71 0.41,-1.98 -1.65,-7.22 -0.19,-3.87 0,0 9.16,8.79 5.31,1.37 13.91,0.21 10.07,-0.71 6.44,0.76 14.01,3.94 11.6,-3.01 9.31,-0.7 0,0 0.36,1.7 1.78,3.61 0.83,3.37 5.78,7.55 1.81,1.12 2.14,0.34 5.49,-1.25 4.55,2.17 7.6,2.79 1.89,1.09 2.77,2.410004 0.8,1.39 0.26,2.08 0,0 -18.34,82.11 1.29,0.14 2.74,1.91 1.7,0.38 -42.92,62.74 0,0 -11.55,-4.53 -10.42,-1.91 -12.04,-4.15 -21.2,-4.28 -15.8,-1.85 -6.64,-0.33 -8.36,0.07 z" 
                fill="rgb(151, 144, 238)" 
                stroke="white" 
                stroke-width=".7px"
                title="Ar Raqqah" 
                id="SY-RA" 
            />
        </svg>