<svg xmlns="http://www.w3.org/2000/svg" viewBox="61.614487 493.15134 115.04000300000004 107.12000000000012" width="115.04000300000004" height="107.12000000000012">
            <path 
                d="m 84.794487,496.91134 0.27,0.32 0.94,-0.42 15.490003,-1.83 6.28,-1.83 1.84,0.2 3.24,3 3.15,1.7 1.26,1.4 0.83,2.94 4.11,4.27 0.63,3.38 1.37,1.6 1.65,0.78 5.92,0.59 3.07,1.27 2.64,1.95 0.16,2.48 2.42,3.22 0.46,1.4 2.66,1.11 2.28,1.52 1.45,0.23 2.53,-1.75 2.46,1.04 2.09,2.76 0.77,6.76 0.96,1.73 8.66,8.44 2.86,2.27 2.33,3.02 3.56,2.11 3.52,4.21 0,0 -53.81,34.17 -6.6,4.96 -4.3,4.15 -2.02,0.21 -8.58,-2.52 -2.490003,0.83 -2.09,-1.62 -2.14,-0.37 -15.5,-1.67 0,0 0.81,-4.81 -0.52,-4.01 1.07,-5.89 -0.35,-0.97 -2.99,-3.63 0.27,-1.06 1.21,-1.49 0.03,-0.94 -0.28,-0.78 -1.07,-0.81 -1.89,0.23 -1.54,-1.43 -3.34,0.29 -1.76,-0.16 -1.04,-0.55 0.85,-2.85 -1.01,-1.91 0.11,-0.65 2.3,-0.94 2.52,-2.04 0.41,-2.24 -1.18,-1.52 -3.89,-0.43 -3.32,-0.94 -0.82,-0.78 -0.19,-3.3 0.24,-0.59 0.96,-0.39 0.17,-0.65 -1.13,-3.44 -0.49,-4.28 1.1,-2.41 -1.84,-3.51 -0.91,-4.42 1.1,-2.92 -0.6,-1.79 0.33,-1.24 2.99,-1.85 4.06,-3.45 2.35,-0.88 3.24,-0.23 6.06,0.42 1.29,-0.32 -1.12,-2.64 -0.41,-3.58 -1.27,-0.26 -2.03,0.65 -0.93,-0.65 -0.27,-3.19 -1.38,-3.72 0.31,-2.12 -0.47,-1.69 1.15,-2.38 2.77,-2.12 3.82,0.58 0.9,-0.19 z" 
                fill="rgb(151, 144, 238)" 
                stroke="white" 
                stroke-width=".7px"
                title="As SuwaydÄ'" 
                id="SY-SU" 
            />
        </svg>