<svg xmlns="http://www.w3.org/2000/svg" viewBox="9.124487 485.0313399999999 75.67 109.88999999999976" width="75.67" height="109.88999999999976">
            <path 
                d="m 65.904487,589.24134 -4.24,-4.33 -12.93,-9.98 -2.69,1.17 -4.4,-0.65 -2.29,0.1 -1.96,0.6 -0.63,-3.64 -1.38,-3.11 -3.51,-3.65 0.43,-4.13 -0.29,-1.38 -1.63,-0.89 -2.58,0.06 -2,-1.13 0.94,-1.27 -0.02,-1.01 -0.8,-0.73 -1.17,-0.02 -1.1,-0.74 -0.64,-1.67 -0.82,-0.75 -1.62,0.24 -1.89,-0.32 -2.26,-1.27 -1.63,0 -2.65,0.78 -1.46,-0.66 -0.32,-0.57 -0.93,0.13 -0.31,-0.5 0.41,-1.23 3.09,-3.58 2.42,-4.34 1.6,-1.72 3.24,-6.31 0,0 2.87,-2.74 -0.11,-2.96 -0.91,-1.76 0.17,-0.88 3.29,-0.36 1.56,1.89 0.52,-0.75 -0.35,-2.31 -1.56,-1.92 -2.28,-4.42 0.68,-6.36 2.8,-5.54 -0.36,-1.23 -2.35,-1.7 -0.2,-0.59 0.99,-5.31 0,0 2.53,0.98 1.01,1.95 2.63,0.3 1.65,-0.49 2.69,-2.19 1.7,-0.72 5.46,0.46 3.48,-1.6 3.02,-0.49 0.57,-0.49 1.37,-3.2 -0.55,-2.67 0.17,-1.14 1.26,-0.85 1.87,2.44 1.94,1.31 0.63,2.32 3.07,0.72 0.99,1.69 2.01,1.76 3.53,0.82 1.02,-0.62 0.63,-2.64 1.92,-1.86 6.06,-3.92 1.78,-1.99 1.51,-0.65 0.85,0.75 1.29,3.26 3.43,3.89 0.63,3.98 0,0 0,0 0,0 -1.29,1.14 -0.9,0.19 -3.82,-0.58 -2.77,2.12 -1.15,2.38 0.47,1.69 -0.31,2.12 1.38,3.72 0.27,3.19 0.93,0.65 2.03,-0.65 1.27,0.26 0.41,3.58 1.12,2.64 -1.29,0.32 -6.06,-0.42 -3.24,0.23 -2.35,0.88 -4.06,3.45 -2.99,1.85 -0.33,1.24 0.6,1.79 -1.1,2.92 0.91,4.42 1.84,3.51 -1.1,2.41 0.49,4.28 1.13,3.44 -0.17,0.65 -0.96,0.39 -0.24,0.59 0.19,3.3 0.82,0.78 3.32,0.94 3.89,0.43 1.18,1.52 -0.41,2.24 -2.52,2.04 -2.3,0.94 -0.11,0.65 1.01,1.91 -0.85,2.85 1.04,0.55 1.76,0.16 3.34,-0.29 1.54,1.43 1.89,-0.23 1.07,0.81 0.28,0.78 -0.03,0.94 -1.21,1.49 -0.27,1.06 2.99,3.63 0.35,0.97 -1.07,5.89 0.52,4.01 -0.81,4.81 0,0 -1,-0.28 -2.28,-1.66 -6.96,-1.03 z" 
                fill="rgb(151, 144, 238)" 
                stroke="white" 
                stroke-width=".7px"
                title="Darٰā" 
                id="SY-DR" 
            />
        </svg>