<svg xmlns="http://www.w3.org/2000/svg" viewBox="348.53448999999995 105.45134000000012 206.46999999999997 291.36999999999995" width="206.46999999999997" height="291.36999999999995">
            <path 
                d="m 544.12449,276.41134 0.67,13.74 0,9.31 0.8,9 -9.7,14.45 -10.51,25.3 -1.56,1.5 -0.48,2.35 -40.35,21.78 -40.73,22.98 0,0 -18.88,-28.06 -56.01,-80.14 1.04,-9.56 -8.22,-17.26 -6.59,-5.68 -5.07,-3.39 0,0 42.92,-62.74 -1.7,-0.38 -2.74,-1.91 -1.29,-0.14 18.34,-82.11 0,0 1.52,3.96 3.84,6.08 2.16,4.37 3.87,4.95 78.06,76.95 2.69,1.81 1.83,2.56 6.81,3.83 5.68,1.17 8.03,2.45 10.37,1.11 13.49,-0.07 12.59,1.69 0,0 -4.98,7.87 -0.76,12.21 -3.21,11.98 -1.69,9.78 -0.71,8.66 z" 
                fill="rgb(151, 144, 238)" 
                stroke="white" 
                stroke-width=".7px"
                title="Dayr az Zawr" 
                id="SY-DY" 
            />
        </svg>