<svg xmlns="http://www.w3.org/2000/svg" viewBox="43.054486999999966 121.25134000000003 105.47000300000002 123.39999999999998" width="105.47000300000002" height="123.39999999999998">
            <path 
                d="m 148.52449,216.31134 -2.16,1.03 -0.82,2.85 -1.89,3.99 -1.02,1.28 -1.28,0.9 -3.21,0.97 -0.77,0.91 -0.99,3.22 -1.59,2.44 -0.03,1.98 1.04,0.7 1.4,-0.1 2.17,-2.98 1.21,0.27 0.68,1.94 0.06,5.39 -0.19,0.27 -1.73,-0.67 -0.74,0.3 -1.15,1.07 -1.07,1.88 -1.13,0.47 -5.68,0.23 -1.59,-0.77 -0.71,-5.35 1.15,-2.42 0.19,-1.54 -0.3,-1.77 -1.12,-1.58 -0.47,0.04 -1.48,2.54 -2.3,2.18 -1.21,2.91 -0.71,0.37 -2.45,0 -1.12,0.5 -0.85,-1.34 -1.75,-1.1 -0.85,-1.84 -3.76,-3.02 -8.56,1.78 -2.500003,1.27 -4.22,0.3 -3.15,-0.3 -6.53,-1.84 -3.92,-0.03 -0.96,-0.74 -1.16,-2.58 -3.01,-1.54 -2.66,1.71 -2.58,0.5 -1.1,-1.11 -1.07,-4.15 -1.67,-3.16 1.04,-1.71 -0.6,-3.42 0.19,-2.05 -0.74,-1.91 -0.03,-1.44 2.25,-11.8 -0.11,-3.32 -0.79,-0.38 -5,-0.06 -0.74,-0.44 -1.09,-3.13 -1.46,-0.33 -2.11,1.14 -1.86,0.07 -1.9,-1.01 -0.67,-1.22 0,0 2.9,-1.84 0.49,-1.79 -0.25,-0.81 -1.67,-0.57 -3.84,0.2 -6.67,1.15 -1.09,-0.64 -0.3,-0.78 0.44,-1.73 -0.55,-2.62 0,0 0.67,1.64 1.4,0.57 1.38,-2.44 0.6,-5.92 -0.81,-2.1 0.67,-2.04 2.47,-4 1.58,-1.08 1.55,-0.39 1.88,0.22 1.53,0.85 2.33,-0.32 0.35,-0.4 -1.13,-2.37 0.32,-1.4 1.91,-1.5 2.66,1.42 2.39,-0.29 1.01,-0.76 0.36,-1.07 -0.14,-1.97 1.41,-2.43 -0.63,-2.7 0.9,-1.89 -1.17,-1.9 -0.48,-2.36 1.07,-2.9 -1.51,-3.26 1.2,-2.33 1.16,-0.36 0.25,-0.99 -0.55,-2.88 0.58,-0.38 3.15,1.83 2.19,0.36 1.34,0.8 1.05,-0.45 1.35,-3.53 1.39,0.55 1.31,-0.99 1.96,0 1.46,1.22 2.62,-0.49 2.5,1.77 0.9,0.12 0.89,-0.14 1.31,-1.4 3.38,-0.01 2.55,-1.83 0.53,-1.32 -1.31,-2.01 0.75,-2.51 -0.55,-0.57 -2.34,-0.67 -0.21,-1.44 0,0 2.87,-0.57 2.770003,0.47 1.04,-0.61 1.27,-1.59 1.34,-0.14 1.01,1.19 0.53,3.12 2.66,1.96 2.16,3.35 1.24,1.05 0.41,1.7 -0.77,1.59 -6.36,6.63 -3.84,2.81 -0.8,1.52 0.47,1.15 1.78,1.59 0.17,1.89 0.54,0.57 2.77,1.86 6.04,2.3 3.23,1.99 0.72,1.93 0.35,6.21 5.76,8.39 0.36,1.72 1.65,1.72 0.44,2.63 1.59,1.28 1.64,2.73 3.87,0.97 1.92,2.5 2.69,1.38 1.04,1.21 0.22,1.31 -0.63,1.75 -3.98,3.19 1.65,5.59 1.67,2.18 0.14,3.36 1.48,0.34 0.85,0.84 1.18,2.55 2.49,1.04 1.87,2.08 z" 
                fill="rgb(151, 144, 238)" 
                stroke="white" 
                stroke-width=".7px"
                title="Idlib" 
                id="SY-ID" 
            />
        </svg>