<svg xmlns="http://www.w3.org/2000/svg" viewBox="15.46448699999999 374.70134000000036 242.19000299999996 182.13000000000005" width="242.19000299999996" height="182.13000000000005">
            <path 
                d="m 84.794487,496.91134 -0.63,-3.98 -3.43,-3.88 -1.29,-3.27 -0.85,-0.75 -1.51,0.65 -1.78,1.99 -6.06,3.92 -1.92,1.86 -0.63,2.64 -1.01,0.62 -3.54,-0.82 -2,-1.76 -0.99,-1.7 -3.07,-0.72 -0.63,-2.32 -1.95,-1.31 -1.86,-2.45 -1.26,0.85 -0.16,1.14 0.55,2.68 -1.37,3.2 -0.58,0.49 -3.02,0.49 -3.48,1.6 -5.46,-0.46 -1.7,0.72 -2.69,2.19 -1.65,0.49 -2.63,-0.29 -1.01,-1.96 -2.52,-0.98 0,0 0.25,-4.6 -0.38,-0.94 -4.09,-0.49 -3.35,-3.36 1.04,-1.63 -0.14,-0.39 -2.2,-1.28 0,0 -0.33,-3.27 0.31,-2.13 0.84,-2.19 3,-3.95 0.35,-1.5 -0.14,-0.85 -0.51,-0.39 4.09,-3.75 1.25,-1.92 0.25,-1.43 -1.13,-3.12 1.59,-0.89 5.61,-1.21 3.01,-1.73 1.15,-1.63 -0.23,-2.44 -0.58,-0.75 -7.08,-4.15 -3.76,-0.55 -0.47,-1.12 0.19,-0.78 3.11,-3.03 0.14,-3.44 1.91,-2.37 1.8,-3.14 0.36,-1.39 0.53,-0.45 1.93,-0.25 3.35,-5.36 4.4,-1.17 3.97,-2.77 0.93,-0.15 1.12,2 2.12,0.57 3.07,-0.28 1.9,-2.19 2.8,0.69 1.1,1.05 2.05,0.05 4.33,1.73 1.54,0.06 0.67,-0.44 1.31,-2.09 -0.71,-1.54 -2.17,-1.86 -3.95,-1.33 -3.01,-2.6 -0.16,-1.15 0.71,-1.7 3.25,-4.91 1.94,-2.11 1.83,-0.73 0.3,-1.41 3.4,-2.93 0.26,-1.5 2.97,-1.38 3.59,1.16 2.18,-1.26 1.47,-1.42 0.34,-3.31 2.46,-3.27 1.16,-0.9 1.98,-0.72 0.66,-2.69 1.28,-1.18 0.58,-1.81 2.58,-1.42 0.97,-1.44 -0.49,-0.53 0,0 1.75,-1.03 3.4,-0.13 4.200003,2.08 5.4,0.17 5.79,-2.9 2.44,-0.53 9.63,11.81 5.46,9.46 2.85,3.69 13.22,7.87 1.92,0.53 4.22,-0.3 0.85,0.79 3.48,7.04 2.85,4.44 3.4,2.3 6.72,7.23 7.41,5.58 4.91,4.95 1.76,3.61 2.09,5.87 4.22,6.03 1.87,2.02 6.96,5.41 3.73,2.26 8.61,2.52 10.31,7.1 9.41,8.92 7.43,5.29 7.02,5.94 8.91,6.49 4.37,4.2 0,0 -81,51.08 0,0 -3.52,-4.21 -3.56,-2.11 -2.33,-3.02 -2.85,-2.27 -8.67,-8.44 -0.96,-1.72 -0.77,-6.76 -2.08,-2.76 -2.47,-1.04 -2.52,1.76 -1.45,-0.23 -2.28,-1.53 -2.66,-1.11 -0.47,-1.4 -2.41,-3.22 -0.16,-2.47 -2.63,-1.95 -3.07,-1.27 -5.92,-0.59 -1.65,-0.78 -1.37,-1.6 -0.63,-3.39 -4.11,-4.27 -0.82,-2.93 -1.26,-1.4 -3.15,-1.7 -3.24,-3 -1.84,-0.19 -6.28,1.83 -15.500003,1.83 -0.93,0.42 -0.3,-0.4 z m -16.69,-46.52 -9.86,-0.31 -1.32,0.84 0.09,4.31 1.67,1.79 0.97,2.31 1.41,0.74 6.95,-0.21 0.09,-9.47 z" 
                fill="rgb(151, 144, 238)" 
                stroke="white" 
                stroke-width=".7px"
                title="Rīf Dimashq" 
                id="SY-RD" 
            />
        </svg>