<svg xmlns="http://www.w3.org/2000/svg" viewBox="14.034486999999995 251.76133999999988 45.370000000000005 74.6" width="45.370000000000005" height="74.6">
            <path 
                d="m 21.784487,314.45134 -0.6,-5.92 -4.17,-9.84 -1.09,-3.63 -1.48,-0.4 -0.41,-1.17 0.52,1.07 1.15,0.2 -0.38,-0.26 -0.28,-0.1 0.3,-0.4 -0.47,-0.1 0.44,-0.26 -0.44,-0.21 1.67,-1.2 -0.14,-4.02 -0.71,-1.73 0.44,0.33 0.22,-2.83 1.54,-1.23 0.49,-1 -0.55,-3.97 -0.71,-1.43 0,-1.48 0.66,-1.79 -0.47,-3.24 0.53,-0.27 0.3,-1.17 0.96,-0.16 1.07,-3.48 0.63,-0.13 0.47,-0.73 -0.36,-2 0.77,-0.94 1.89,-1 0.24,-0.6 -0.49,-4.01 -1.51,-3.59 0,0 2.51,0.17 1.54,0.77 4.76,3.78 0.87,0.2 3.38,-0.84 9.73,-0.29 4.41,-2.03 4.38,2.36 0,0 0.56,11.56 0.88,5.77 -0.96,2.53 -0.11,1.87 -2.59,2.35 -1.93,0.11 -0.48,0.6 -1.8,0.3 -1.62,1.07 -2.8,-0.27 -0.58,0.57 -0.11,1.47 0.55,1.57 0.96,0.7 4.64,0.73 5.77,-0.77 1.8,5.01 2.96,2.12 0.87,1.32 0,0 -3.36,1.66 -0.66,1.8 0.14,3.66 -3.37,2.96 -0.91,1.83 -2.11,0.94 -1.15,2.39 -1.31,0.89 -0.77,2.5 -3.02,4.39 -2.98,5.55 -0.32,2.53 0,0 -2.75,0.77 -1.93,-0.31 -2.81,0.26 -1.64,-1.5 -2.21,-0.2 -0.51,-0.59 -1.21,1.22 -0.11,-0.39 -0.86,0.48 -3.77,-10.88 z" 
                fill="rgb(151, 144, 238)" 
                stroke="white" 
                stroke-width=".7px"
                title="Ţarţūs" 
                id="SY-TA" 
            />
        </svg>