<svg xmlns="http://www.w3.org/2000/svg" viewBox="83.02448700000002 50.29133599999999 209.0900029999999 180.83000399999992" width="209.0900029999999" height="180.83000399999992">
            <path 
                d="m 148.52449,216.31134 -4.54,-1.89 -1.87,-2.08 -2.49,-1.04 -1.18,-2.55 -0.85,-0.84 -1.48,-0.34 -0.14,-3.36 -1.67,-2.18 -1.65,-5.59 3.98,-3.19 0.63,-1.75 -0.22,-1.31 -1.04,-1.21 -2.69,-1.38 -1.92,-2.5 -3.87,-0.97 -1.64,-2.73 -1.59,-1.28 -0.44,-2.63 -1.65,-1.72 -0.36,-1.72 -5.76,-8.39 -0.35,-6.21 -0.72,-1.93 -3.23,-1.99 -6.04,-2.3 -2.77,-1.86 -0.54,-0.57 -0.17,-1.89 -1.78,-1.59 -0.47,-1.15 0.8,-1.52 3.84,-2.81 6.36,-6.63 0.77,-1.59 -0.41,-1.7 -1.24,-1.05 -2.16,-3.35 -2.66,-1.96 -0.53,-3.12 -1.01,-1.19 -1.34,0.14 -1.27,1.59 -1.04,0.61 -2.770003,-0.47 -2.87,0.57 0,0 0.02,-1.46 -0.97,-0.96 -1.97,-0.2 -1.77,0.84 -1.35,-0.14 0.42,-1.32 1.55,-1.64 -0.74,-2.53 0.23,-1.99 -2.3,-0.14 -1,-0.67 -1.21,-3.3 -0.13,-1.68 -0.7,-0.79 -0.07,-2.77 -1.27,-2.21 0.21,-0.74 -0.41,-0.63 0.01,-0.5 2.01,-1.350004 1.77,-3.11 1.27,-5.08 -0.35,-2.63 -1.25,-3.68 0.39,-2.39 4.44,-6.75 -0.18,-2.81 -1.09,-2.34 0.87,-2.35 3.7,-4.12 0.78,-1.39 -0.06,-1.24 -0.91,-1.84 0.71,-1.15 0.96,1.33 5.310003,1.3 6.43,3.15 9.73,2.56 4.11,-0.44 4.39,2.36 3.07,3.07 3.57,1.57 0.06,1.41 -2.31,4.2 -0.52,2.19 2.02,0.91 4.2,3.62 1.24,-0.41 1.81,-3.97 2.26,-0.47 3.97,1.18 4.01,-1.2 4.03,-0.19 6.75,1.2 3.74,0.19 9.86,1.91 2.92,-1.38 3.19,-3.32 11.92,-6.75 3.89,-0.84 3.19,-1.3 6.36,0.03 2.29,-1.3 9.24,-3.25 6.77,-3.99 6.35,-1.28 2.93,-3.68 5.52,-2.77 4.58,-1.66 2.12,-1.52 3.57,0.13 2.21,-0.93 8.85,1.6 5.53,0.4 5.02,1.89 4.31,2.35 6.95,2.93 6.66,6.97 0,0 0.19,3.87 1.65,7.22 -0.41,1.98 -0.96,0.71 -5.87,0.82 -0.66,0.99 0.77,3.91 1.34,1.4 1.75,-0.34 4.42,-3.41 1.24,0.48 0.46,1.12 -0.19,10.07 -1.48,8.390004 -1.73,5.71 -2.33,3.53 -3.62,4.27 -6.14,4.41 -9.47,5.22 -9.49,1.89 -10.06,0.51 -3.03,0.6 -0.95,1.06 -4.2,2.03 -1.67,1.63 -1.97,3.18 -1.13,2.98 -2.74,4.15 -0.36,3.69 0.66,4.53 1.51,2.23 4.28,4.39 1.51,2.63 4.33,3.51 0.11,1.22 -2.28,5.76 -2.49,2.56 -4.06,5.73 -2.47,4.55 -2.66,8.21 -1.59,7.63 -0.33,5.65 7.54,9.6 13.47,13.57 0,0 -6.69,-0.02 -11.6,0.87 -7.38,-0.63 -15.17,0.03 -11.19,-1.48 -4.91,-2.14 -8.89,-6.14 -3.07,-0.13 -13.52,1.81 -5.13,-0.2 -5.7,-3.59 z" 
                fill="rgb(151, 144, 238)" 
                stroke="white" 
                stroke-width=".7px"
                title="Ḩalab" 
                id="SY-HL" 
            />
        </svg>