<svg xmlns="http://www.w3.org/2000/svg" viewBox="41.84448700000009 191.56134 214.0700029999999 109.47999999999999" width="214.0700029999999" height="109.47999999999999">
            <path 
                d="m 53.594487,191.56134 0.67,1.22 1.9,1.01 1.86,-0.07 2.11,-1.14 1.46,0.33 1.09,3.13 0.74,0.44 5,0.06 0.79,0.38 0.11,3.32 -2.25,11.8 0.03,1.44 0.74,1.91 -0.19,2.05 0.6,3.42 -1.04,1.71 1.67,3.16 1.07,4.15 1.1,1.11 2.58,-0.5 2.66,-1.71 3.01,1.54 1.16,2.58 0.96,0.74 3.92,0.03 6.53,1.84 3.15,0.3 4.22,-0.3 2.500003,-1.27 8.56,-1.78 3.76,3.02 0.85,1.84 1.75,1.1 0.85,1.34 1.12,-0.5 2.45,0 0.71,-0.37 1.21,-2.91 2.3,-2.18 1.48,-2.54 0.47,-0.04 1.12,1.58 0.3,1.77 -0.19,1.54 -1.15,2.42 0.71,5.35 1.59,0.77 5.68,-0.23 1.13,-0.47 1.07,-1.88 1.15,-1.07 0.74,-0.3 1.73,0.67 0.19,-0.27 -0.06,-5.39 -0.68,-1.94 -1.21,-0.27 -2.17,2.98 -1.4,0.1 -1.04,-0.7 0.03,-1.98 1.59,-2.44 0.99,-3.22 0.77,-0.91 3.21,-0.97 1.28,-0.9 1.02,-1.28 1.89,-3.99 0.82,-2.85 2.16,-1.03 0,0 0,0 0,0 7.31,2.34 5.7,3.59 5.13,0.2 13.52,-1.81 3.07,0.13 8.89,6.14 4.91,2.14 11.19,1.48 15.17,-0.03 7.38,0.63 11.6,-0.87 6.69,0.02 0,0 4.99,3.87 1.61,2.58 0,0 0.23,8.37 -0.47,7.69 -1.62,4.34 -3.18,4.88 -0.85,2.11 -0.44,3.07 0.55,4.97 -6.86,2.6 -7.92,3.74 -1.59,1.13 -2.39,2.57 -0.22,1.73 -2,3.6 -0.05,2.53 -0.88,2.17 -1.92,2.2 -1.1,0.53 -0.96,-0.43 -4.99,-6.76 -7.76,-6.54 -1.13,-5.67 -2.25,-3.47 -3.86,-0.66 -2.53,-2.44 -1.37,-0.57 -3.21,0.5 -10.01,3.17 -3.02,0.21 -6.14,4.06 -1.26,2.07 -0.17,5.27 0.61,2.37 -1.02,1.23 -1.34,-0.17 -1.65,-2.46 -0.71,-0.4 -5.32,0.03 -1.7,1.33 -1.04,0.3 -3.29,-1.43 -0.88,0.77 -0.19,1.86 -1.84,-0.56 -1.95,0.23 -0.66,2.1 -1.18,1.3 -0.6,2.16 -1.62,1.4 -2.74,-1.03 -1.92,-3 -2.03,-0.33 -2.74,1.1 -0.91,2.69 -2.93,-1.73 -1.4,0 -1.73,2.17 -3.26,0.46 -6.81,5.26 -1.26,-0.23 -0.41,-2.3 -1.62,-1.96 -0.55,-1.9 -1.97,-2.7 -1.21,-3.43 -1.83,-1.2 -1.46,-0.3 -1.34,0.03 -2.28,1.54 -2.58,0.17 -2,1.79 -3.67,-0.2 -1.32,0.64 -1.1,-0.47 -1.780003,1.53 -1.92,0.24 -2.47,1.03 -2.17,1.56 -3.04,0.4 -2.08,-0.9 -0.72,0.1 -2.74,1.64 -0.99,0.13 -1.31,-0.3 -0.58,-2.13 -1.84,-0.53 0.82,-1.9 -0.13,-0.9 -1.24,-0.7 -0.96,0.07 -1.18,0.76 -1.15,2.4 -2.19,1.63 -0.41,1.27 0.16,1.69 -1.04,0.9 -0.06,2.03 -1.09,0.8 -0.22,0.9 -0.61,0.5 -1.78,-1.2 -1.31,0 -0.94,-1.53 -0.68,-0.4 -1.1,0.5 -1.67,2.16 -0.85,0.07 -0.58,-2.53 -2.3,-0.7 1.45,-1.56 -0.78,-1.4 0,0 -0.87,-1.31 -2.96,-2.12 -1.79,-5.01 -5.77,0.77 -4.64,-0.72 -0.96,-0.71 -0.55,-1.56 0.11,-1.47 0.57,-0.56 2.8,0.26 1.62,-1.06 1.8,-0.3 0.48,-0.6 1.93,-0.12 2.59,-2.35 0.11,-1.87 0.96,-2.53 -0.88,-5.78 -0.55,-11.56 0,0 -0.3,-5.61 -2.41,-9.07 -0.08,-2.92 -1.24,-2.51 -1.12,-4.65 2,-13.11 0.36,-8.29 -0.77,-5.45 -2,-3.39 0.68,-1.65 2.14,-0.54 0.8,-0.9 0.38,-1.42 -0.11,-3.33 0.72,-0.97 z" 
                fill="rgb(151, 144, 238)" 
                stroke="white" 
                stroke-width=".7px"
                title="Ḩamāh" 
                id="SY-HM" 
            />
        </svg>