<svg xmlns="http://www.w3.org/2000/svg" viewBox="39.55448700000012 235.6813399999997 402.7100029999999 270.03000000000026" width="402.7100029999999" height="270.03000000000026">
            <path 
                d="m 420.97449,408.93134 -49.72,28.5 -65.95,38.71 -47.65,29.57 0,0 -4.37,-4.2 -8.92,-6.5 -7.02,-5.94 -7.43,-5.29 -9.41,-8.92 -10.31,-7.09 -8.61,-2.52 -3.74,-2.26 -6.96,-5.41 -1.87,-2.02 -4.22,-6.03 -2.09,-5.87 -1.75,-3.61 -4.91,-4.95 -7.4,-5.59 -6.72,-7.22 -3.41,-2.3 -2.85,-4.44 -3.48,-7.04 -0.85,-0.79 -4.23,0.29 -1.92,-0.52 -13.22,-7.87 -2.85,-3.69 -5.46,-9.46 -9.62,-11.82 -2.44,0.53 -5.79,2.91 -5.4,-0.17 -4.200003,-2.08 -3.4,0.13 -1.75,1.04 0,0 -2.61,-1.25 -0.75,-1.35 -0.86,-4.14 0.46,-1.15 1.43,-1.61 -0.21,-1.8 -3.46,-1.22 -2.95,-6.79 0.17,-1.2 2.31,-3.04 -0.62,-1.37 -3.56,-1.46 -0.85,-1.8 -3.75,-1.91 -1.63,-2.9 -0.32,-1.79 -3.13,0.19 -1.15,0.85 -2.83,-1.04 -1.45,1 -1.92,-0.84 -0.82,-1.32 0.47,-1.48 4.72,-2.12 1.37,-1.04 0.35,-0.91 -0.54,-2.12 1.34,-3.85 0.77,0.08 1.51,1.83 1.67,-0.16 0.75,-4.33 -1.05,-0.21 -2.14,1.17 -1.84,-0.3 -3.66,-2.35 -1.95,-1.9 0.06,-1.04 -1.81,-2.43 -1.41,-0.26 -0.95,1.12 -0.51,3.55 -2.19,2.03 -1.75,0.22 -2.61,-0.54 -1.76,0.76 -2.49,-1.47 -2.92,0.8 -4.06,-1.12 -2.37,0.54 0,0 0.32,-2.54 2.98,-5.54 3.02,-4.39 0.77,-2.49 1.32,-0.9 1.15,-2.39 2.11,-0.93 0.9,-1.83 3.38,-2.96 -0.14,-3.66 0.66,-1.8 3.36,-1.66 0,0 0.78,1.4 -1.45,1.56 2.3,0.7 0.58,2.53 0.85,-0.07 1.67,-2.16 1.1,-0.5 0.68,0.4 0.94,1.53 1.31,0 1.78,1.2 0.61,-0.5 0.22,-0.9 1.09,-0.8 0.06,-2.03 1.04,-0.9 -0.16,-1.69 0.41,-1.27 2.19,-1.63 1.15,-2.4 1.18,-0.76 0.96,-0.07 1.24,0.7 0.13,0.9 -0.82,1.9 1.84,0.53 0.58,2.13 1.31,0.3 0.99,-0.13 2.74,-1.64 0.72,-0.1 2.08,0.9 3.04,-0.4 2.17,-1.56 2.47,-1.03 1.92,-0.24 1.780003,-1.53 1.1,0.47 1.32,-0.64 3.67,0.2 2,-1.79 2.58,-0.17 2.28,-1.54 1.34,-0.03 1.46,0.3 1.83,1.2 1.21,3.43 1.97,2.7 0.55,1.9 1.62,1.96 0.41,2.3 1.26,0.23 6.81,-5.26 3.26,-0.46 1.73,-2.17 1.4,0 2.93,1.73 0.91,-2.69 2.74,-1.1 2.03,0.33 1.92,3 2.74,1.03 1.62,-1.4 0.6,-2.16 1.18,-1.3 0.66,-2.1 1.95,-0.23 1.84,0.56 0.19,-1.86 0.88,-0.77 3.29,1.43 1.04,-0.3 1.7,-1.33 5.32,-0.03 0.71,0.4 1.65,2.46 1.34,0.17 1.02,-1.23 -0.61,-2.37 0.17,-5.27 1.26,-2.07 6.14,-4.06 3.02,-0.21 10.01,-3.17 3.21,-0.5 1.37,0.57 2.53,2.44 3.86,0.66 2.25,3.47 1.13,5.67 7.76,6.54 4.99,6.76 0.96,0.43 1.1,-0.53 1.92,-2.2 0.88,-2.17 0.05,-2.53 2,-3.6 0.22,-1.73 2.39,-2.57 1.59,-1.13 7.92,-3.74 6.86,-2.6 -0.55,-4.97 0.44,-3.07 0.85,-2.11 3.18,-4.88 1.62,-4.34 0.47,-7.69 -0.23,-8.37 0,0 6.84,-0.97 8.36,-0.07 6.64,0.33 15.8,1.85 21.2,4.28 12.04,4.15 10.42,1.91 11.55,4.53 0,0 5.07,3.39 6.59,5.68 8.22,17.26 -1.04,9.56 56.01,80.14 18.88,28.06 0,0 z" 
                fill="rgb(151, 144, 238)" 
                stroke="white" 
                stroke-width=".7px"
                title="Ḩimş" 
                id="SY-HI" 
            />
        </svg>