<svg xmlns="http://www.w3.org/2000/svg" viewBox="267.8871200000002 425.11074999999937 181.52999999999992 247.46000000000026" width="181.52999999999992" height="247.46000000000026">
            <path 
                d="m 320.93713,425.11075 2.04,0.62 0.62,1.05 1.77,-1 12.32,0.25 0.85,0.94 0.03,2.11 3.43,3.46 4.46,7.09 3.13999,2.13 12.54001,2.97 -0.55,1.65 0.93999,2.86 -1.35,2.68 0.37,1.55 -1.83,3.62 -0.02,2.2 3.74,5.49 9.5,4.27 -0.98,1.29 4.54,1.23 20.63,0.2 6.14,-3.43 -0.74001,1.79 0.42001,2.78 1.29,2.23 -0.07,2.32 1.3,1.51 -0.66,2.27 1.27,12.62 1.35,-0.49 0.76,-2.57 3.3,-1.41 6.88,-6.91 4.93,-0.03 0.39,-0.54 0,0 1.79,1.12 0.84,-1.51 1.79,1.07 0.95,-0.9 0.11,-1.18 -1.12,-0.67 1.01,-1.96 1.17,2.13 0.22,2.52 -0.9,1.74 0.56,2.41 1.51,0.34 0.22,2.24 1.34,0.11 0.39,-1.23 -1.29,-0.28 -0.56,-1.74 1.29,0.67 -0.22,-1.23 -0.73,0 1.12,-2.75 -0.28,-0.95 0.95,0.06 0.73,1.51 0.5,-1.12 0.73,0.62 -1.01,-3.76 0.39,-1.07 0.67,0.06 0.45,1.79 0.67,0.28 1.57,6.84 3.19,4.26 2.07,8.47 2.24,5.44 1.19,11.05 -0.8,8.92 -0.17,1.35 -0.67,4.2 0.67,3.14 -0.28,2.8 -1.01,0.56 -0.05,-0.73 -1.18,0 -0.34,1.79 -1.96,0.5 -1.79,1.79 -0.89,-1.57 0,2.63 0.34,1.96 2.02,3.14 -1.62,1.35 2.69,2.13 0.67,-2.19 -1.57,-1.63 1.51,-0.56 0.73,-1.34 0.5,1.46 0.9,-0.28 0.5,-2.35 -0.56,0 -0.39,-2.75 0.78,-1.01 0.06,-2.07 0.73,-0.39 -0.9,16.65 2.52,11.94 1.74,4.04 -2.3,5.77 -0.56,2.52 0.56,1.4 -4.87,13.95 0.17,1.23 0.9,0.34 -1.06,2.18 0.56,3.08 -1.12,0.39 -1.96,3.08 0.28,2.24 1.4,0.67 0.17,1.01 -1.51,0.06 -0.84,0.9 -1.12,3.02 0.28,2.86 -1.18,2.91 1.18,1.4 -0.39,1.23 0.67,2.02 -2.35,1.96 -2.52,4.42 0.39,1.74 -0.78,3.47 -0.67,-0.06 -1.96,2.18 -2.85,5.04 -0.28,2.3 1.12,1.57 -0.11,1.9 -3.19,6.21 0.61,2.24 -1.12,1.62 -2.41,1.23 -1.17,3.3 -2.35,3.25 0.28,0.67 -1.34,2.85 -2.91,4.65 -1.01,-0.13 0,0 -3.58,-0.11 -2.49,-1.71 -1.91,-3.38 -2.54001,-1.19 -2.61,0.55 -1.52,-2.73 -1.94,-1.63 -0.38999,-1.5 -1.16001,-0.25 -1.01999,-1.27 0,0 4.16,-67.37 1.69,-9.49 -3.91,-3.84 0.63999,-3.9 -1.42,-1.08 -0.26,-2.55 -1.08999,-1.92 0.87,-3.18 1.56,-1.52 -1.02,-3.89 -3.63,-0.24 -4.59,-2.36 -2.72,-0.14 -4.12,-1.63 -0.59,-0.94 -0.67,0.89 -2.43,-1.43 -1.15,-1.12 -0.82,-3 0.42,-3.72 -2.63,-2.55 2.24,-6.69 2.21,-3.14 3.94,-3.23 2.24,-0.8 -3.85,-4.53 -2.2,-0.58 0.91,-2.15 -0.68,-3.42 -1.32,-2 0.61,-0.86 -0.37,-1.12 -1.27,-1.62 -2.98,-1.21 -3.77,-4.11 2.38,-2.65 -2.21,-8.31 -1.5,-2.83 0.95,-5.79 -2.44,-0.78 -0.6,-0.98 3.39,-4.91 -4.53,-0.75 -4.05,3 -2.31,0.41 -0.59,1.16 -2.9,0.53 0.28,2.16 -0.65,1.17 -3.4,1.77 -2.79,-0.51 -0.26,2.58 2.56,5.4 -2.4,2.49 -1.88,0.21 -0.41,1.05 0.79,1.78 -4.54,1.59 -4.08,0.29 -0.72,-0.69 -0.53,4.97 1.41,2.78 -1.22,4.28 0.8,3 -3.6,1.14 -3.96,3.4 0.22,-1.61 -1.85,-1.39 0.35,-1.23 -1.74,-3.1 0,0 -0.66,-1.09 0.87,-1.82 -1.54,-3.31 -3.71,-3.7 0.11,-1.88 -1.79,-1.32 -1.38,1.45 -2.08,0.35 -1.09,-3.02 -1,-0.3 -1.2,-3.76 -2.02,-1.95 0.14,-1.54 1.39,-0.49 -0.07,-1.73 -2.48,-8.48 -1.22,-1.19 2.45,-3.15 -0.46,-1.27 1.35,-1.1 -0.06,-5.94 1.58,-3.11 -0.28,-7.89 -1.34,-1.81 -2.18,-1.97 -4.9,0.86 -10.16,5.05 -7.43,6.62 -2.31,-0.62 -1.63,0.96 0.34,0.55 -0.56,0.33 -2.79,0.15 -2.47,-6.58 -1.53,-0.82 -1.29,-2.22 -0.45,-8.67 -1.19,-1.32 -4.4,-1.77 -1.54,-2.78 0,0 0.76,-3.69 2.62,-3.68 -0.38,-3.28 -1.06,-2.25 1.03,-2 -0.71,-4.64 0,0 4.36,0.69 2.67,-0.97 5.09,0.85 3.92,-2.41 5.16,1.13 4.69,7.12 5.54,2.76 1.37,-0.68 9.27,3.74 3.24,2.87 1.39,-1.35 0.36,-3.72 3.37,-1.55 -0.57,-1.63 0.77,-1.46 -0.19,-3.71 -1.15,-1.72 1.5,-3.44 z" 
                fill="rgb(151, 144, 238)" 
                stroke="white" 
                stroke-width=".7px"
                title="Ampara" 
                id="LK-52" 
            />
        </svg>