<svg xmlns="http://www.w3.org/2000/svg" viewBox="61.08712500000003 186.03075 209.40000500000002 223.73999999999978" width="209.40000500000002" height="223.73999999999978">
            <path 
                d="m 222.54712,189.16075 6.4,-3.13 5.54001,1.08 8.31,5.73 3.62,0.99 3.19,2.57 0.75,2.42 3.6,4.26 0.75,-0.08 -0.34,2.7 -2,1.45 -3.6,5.63 -0.72,4.06 -0.15,3.21 0.68,1.17 1.69,0.71 0.17,4.23 4.07,6.75 0.37,1.67 0.05,1.53 -2.76,2.21 -1.33,3.33 -0.39,1.71 1.14,1.44 -0.64,1.75 4.41,3.39 0.26,4.12 5.41,6.68 0.66,8.98 3.25,1.78 -0.02,2.63 2.76,0.1 0,0 1.79,0.07 1.02,2.03 0,0 -1.61,1.36 -2.27,-0.1 0.2,1.72 -1.96,1.27 -1.84,2.96 -2.53,8.45 -1.63,1.59 -1.18,3.26 0.38,3.2 -1,4.2 0,0 -2.58,2.12 -2.47,9.21 -19.1,0.5 -3.34,9.55 -0.48,5.49 -5.25,10.83 -0.57,9.57 0.44,7.01 0.69,0.68 2.99,-0.13 -3.53,4.3 0.19,1.27 -2.16,3.28 1.29,1.97 0,0 -7.47,2.7 -1.22,1.51 -1.44,-0.06 -4.75,7.1 -2.77,-1.36 -1.98,0.68 -0.45,2.37 -0.72,0.34 0.24,6.35 -4.37,3.05 1.32,2.36 -3.24,1.19 -0.03,2.84 -1.38,0 -3.24,2.59 -1.36,-0.48 -0.58,-1.83 -2.87,-0.24 -2.17,3.93 -8.22,4.37 -4.93,0.25 -0.18,2.22 0,0 -3.33,-1.51 -1.02,-1.73 0.03,-2.44 -1.92,-1.41 1.26,-1.63 1.02,-4.45 -3.32,-7.38 -0.52,-6.17 -2.4,-1.82 -3.68,1.49 -2.46,-0.54 1.87,-2.32 -0.92,-3.63 0.25,-1.91 -1.72,-3.37 0.88,-2.53 -0.12,-5.16 -2.75,-2.24 -2.03,0.65 -0.43,0.85 -2.67,-1.81 -1.81,0.05 -3.86,-4.44 -3.86,-2.1 -2.92,-4.53 -1.88,-1.05 -1.24,0.38 -2.11,-0.72 -5.36,0.77 -1.06,-2.06 -2.38,-1.99 -2.1,-0.2 -1.35,-1 -3.99,-0.35 -1.33,-1.95 -3.36,0.45 -1.21,-2.32 -3.17,-0.14 -2.98,-2.25 -5.400005,-1.09 -4.57,-3.47 0,0 -0.74,-0.35 -0.62,-1.96 -1.94,-0.62 -1.58,-2.3 -3.46,0.55 -4.89,-3.28 -2.18,2.03 -5.4,-0.41 -0.74,-5.43 -2.89,-5.19 0.46,-1.64 -2.01,-10.49 -4.36,-5.8 0.74,-5.28 1.33,-0.83 3.22,-0.1 1.33,-2.59 1.27,-0.64 -0.48,-1.4 2.5,-2.42 2.99,-1.34 3.02,-4.62 2.46,-6.89 -2.15,-5.96 0,0 0.43,0.61 3.18,0.44 0.99,-23.3 -2.19,-7.34 7.19,3.97 1.31,-0.53 5.49,1.38 24.500005,-6.27 0,0 0.52,3.45 -0.91,2.28 1.12,2.99 -0.37,1.69 0.7,0.02 1.87,2.58 1.96,-0.38 2.98,1.43 -0.11,2.09 0.89,2.09 0.7,0 -0.42,1.16 1.00999,0.69 0.76,4.18 5.04,2 4.86,0.94 2.86001,-5.42 3.59,-0.45 2.09,-1.77 -0.27,-2.8 0.83,-0.92 -0.77,-1.85 0.41999,-2.13 3.71,-2.49 2.24001,-5.15 2.29,-0.51 0.46,-2.42 0.72,0.17 4.75,-3.92 3.56,1.53 7.61,5.37 2.61,-0.07 2.11,-2.84 3.07,-1.41 1.06,-1.69 3.89,-2.49 0.74,-3.31 3.16,-1.09 2.4,-4.51 3.48,-1.67 1.06,-2.88 2.05,-2.65 3.52,-2.13 -0.02,-2.62 -2.84,-2.44 -2.04,-4.39 -5.54,-1.2 -1.46,-0.99 0.61,-4.42 10.21,0.33 4.34,-0.68 4.96,-3.63 3.97,-1.87 2.85,0.12 z" 
                fill="rgb(151, 144, 238)" 
                stroke="white" 
                stroke-width=".7px"
                title="Anuradhapura" 
                id="LK-71" 
            />
        </svg>