<svg xmlns="http://www.w3.org/2000/svg" viewBox="227.5571199999998 448.18075 99.49001000000018 218.47000000000025" width="99.49001000000018" height="218.47000000000025">
            <path 
                d="m 267.86713,448.18075 1.54,2.79 4.4,1.77 1.19,1.32 0.45,8.67 1.29,2.22 1.53,0.82 2.47,6.58 2.79,-0.16 0.56,-0.32 -0.33,-0.55 1.63,-0.96 2.31,0.62 7.43,-6.62 10.16,-5.05 4.9,-0.86 2.19,1.97 1.34,1.81 0.28,7.89 -1.59,3.11 0.06,5.94 -1.34,1.11 0.46,1.26 -2.46,3.15 1.22,1.2 2.48,8.47 0.07,1.74 -1.39,0.48 -0.14,1.55 2.02,1.95 1.19,3.76 1,0.3 1.09,3.02 2.09,-0.35 1.37,-1.45 1.79,1.32 -0.11,1.87 3.71,3.7 1.53,3.31 -0.87,1.81 0.66,1.09 0,0 -1.2,-0.36 -4.01,2 -2.64,0.24 0.88,5.67 -2.25,2 -3.59,5.66 -3.69,2.11 0.4,0.95 -1.08,2.8 -2.1,0.65 -2.11,-0.85 -2.48,-4.29 -2.35,1.3 -0.67,2.18 -2.66001,2.62 -0.36,2.05 1.01,1.85 1.2,1.35 1.73,0.32 0.45,1.4 3.04,3.19 1.97001,6.07 3.82,-0.36 0.70999,-1.75 3.71,0.22 0.65,-0.65 1.26,3.24 2.05,-0.76 2.5,6.3 0.91,6.23 -0.27,2.69 -2.62,4.1 0.5,4.62 -2.83,1.12 0.18001,1.62 1.20999,0.66 -0.14999,0.64 -3.98001,1.19 -1,1.51 1.23001,1.19 -0.81,1.01 -3.4,0.03 -0.83,-1.53 -1.23,4.91 -3.08,1.6 -0.46,1.2 -5.99,2.17 -1.85,1.4 -1.55,0.07 -0.53,1.88 1.62,0.26 3.02,2.84 0.9,1.85 -3.80001,1.9 -2.62999,-0.32 -1.80001,0.6 -0.32,2.11 0.78,1 -1.07,0.68 -1.5,0.41 -1.23,-1.43 -2.87,0.08 -0.94,6.24 0.75,4.24 -2.07,2.6 -0.61,1.98 0.91,0.91 3.02,-0.59 2.81,1.9 -1.15,1.86 -0.26,2.32 -2.67,1.51 -0.76,9.73 0.78,3.7 3.9,3.29 0.41,1.46 -1.98,-0.31 -2.86,2.4 0.04,4.19 -4.36,-2.45 -1.41,1.43 -1.75,2.08 -0.48,6.26 -5.46,-6.64 0.66,-2.99 -0.8,-2.08 0.88,-2.98 -1.69,-1.12 -2.39,0.71 -0.47,-1.16 0.59,-2.51 -0.65,-1.96 -1.51,-1.91 -2.05,0.54 -1.07,-0.68 -0.31,-3.37 -2.48,-1.37 0.1,-2.36 -2.01,-0.19 -0.42,0.76 0,0 -2.62,-1.45 0.07,1.23 -1.52,2.05 -3.45,0.57 -0.75,1.95 -1.26,0.45 -2.86,0.35 -0.59,-0.73 -1.26,1.63 -1.98,-1.83 -3.6,-0.61 -0.84,-4.02 -2.68,-1.65 -0.08,-1.18 6.18,-3.04 2.49,-0.14 -0.92,-2.16 1.62,-1.26 -0.09,-1.03 -0.69,-1 -3.99,0.18 -1.55,-3.26 -3.12,1.21 0.29,-1.26 -0.86,-2.14 0.79,-2.59 -0.62,-1.32 0,0 1.25,-0.74 2.15,0.51 1.83,-1.94 0.58,-1.84 -3.97,-1.49 -0.71,-1.86 0.58,-0.76 1.54,0.42 1.44,-0.71 1.2,-2.3 -3.43,-3.42 0.7,-2.91 -1.34,-1.11 -1.12,0.44 0.54,-2.37 -1.22,-0.53 0.32,-1.52 -6.47,-1.74 -0.24,-1.2 1.03,-1.07 6.93,0.49 2.86,-2.17 1.01,-5.22 5.41,-4.51 2.56,0.9 3.37,-0.97 1.38,0.25 4.24,-2.75 1.9,-5.88 0.05,-3.65 1.82,-0.94 0.57,-2.32 2.93,-1.78 0.53,-2.23 1.38,-0.71 -2.41,-2.51 0.33,-1.4 -0.71,-0.86 1.16,-2.7 1.56,-1.25 -1.17,-1.3 -1.82,-0.49 0.4,-3.08 1.78,0.59 0.12,-3.01 -3.8,-7.36 0.67,-1.38 0,0 5.23,0.83 2.08,-3.3 5.02,-0.78 1.68,-3.42 -8.15,-26.37 1.34,-5.78 -0.84,-2.32 -1.83,-1.84 1.16,-2.76 -0.2,-12.37 0,0 -0.5,-15.83 1.08,-3.77 -0.41,-2.49 0.84,-2.86 z" 
                fill="rgb(151, 144, 238)" 
                stroke="white" 
                stroke-width=".7px"
                title="Badulla" 
                id="LK-81" 
            />
        </svg>