<svg xmlns="http://www.w3.org/2000/svg" viewBox="317.68711999999994 318.16075 117.75001000000015 175.68000000000012" width="117.75001000000015" height="175.68000000000012">
            <path 
                d="m 413.20713,432.26075 0.44999,0.79 1.12,0 0.5,2.53 -1.85,2.81 -1.12,0.45 -1.01,-3.7 0.45,-2.08 1.46,-0.8 z m -0.62,-2.21 1.35,0.7 -0.9,1.18 -1.68,0.45 -0.95,-1.57 0.67,0.39 1.51,-1.15 z m -0.61001,-8.39 2.74,2.75 0.17001,1.29 9.91,14.82 5.43,10.94 4.93,18.96 -0.28,2.08 0.56,1.12 -2.01,0.9 -0.34,3.93 -2.46,-0.62 -2.46,-2.47 1.01,-1.74 0.9,1.96 0.9,0.17 0.17,-2.64 -1.12,-0.22 -0.17,0.95 -0.9,-1.07 -1.36,0.67 -0.15,-0.72 0.39,-1.52 2.29,-1.57 -0.28,-2.24 -1.17,-1.68 0.17,-2.16 -0.95,-1.43 1.01,-2.75 -0.45,-1.79 1.12,-1.07 -1.62,-0.34 -1.34,-1.51 -3.64,-9.71 -2.74,0.56 -2.58,-3.7 1.18,-2.24 -3.81,-8.82 0.62,-3.82 -0.67,-0.11 -3,-5.16 z m -77.18,-100.37 3.65,-2.38 3.08,0.27 1.87,-1.02 0.81,0.62 -0.46,1.62 1,0.5 0.95,-0.46 2,0.78 0.74,-0.81 1.54,0.59 0.01,-0.95 1.22001,-0.63 0.75,1.4 -0.41001,0.85 1.4,0.33 0.8,-2.83 0,0 1.45,7.01 2.3,4.38 0.11,2.7 2.13,3.15 -0.39,2.87 1.51,4.49 -0.56,1.35 1.17,2.58 -0.61,1.12 0.17,3.15 -1.23,0.84 -1.33999,-0.62 -3.47001,-6.91 -1.51,-4.27 -0.38999,-6.8 -0.79001,-1.18 -0.95,1.01 -1.29,-0.9 -0.95,2.42 0.56,0.22 0.22001,-0.84 0.45,1.07 -1.4,2.42 0.56,0.39 -0.22001,2.64 0.95,1.01 -0.11,1.12 1.57,0.67 0.61,1.29 1.62,-0.11 0.73001,5.34 1.00999,0.22 1.29001,1.97 2.86,0.39 0.62,1.29 1.34,-4.16 -0.67001,-1.24 0.73001,-0.73 -0.06,1.57 0.62,-0.51 -1.46,-4.89 1.74,3.54 2.35,1.85 -0.62,3.31 2.07,7.47 4.37,8.43 3.97,3.65 1.79,0.17 2.13,2.42 2.85,-0.56 0.45,-1.12 0.06,1.24 0.84,0 0.33,-1.01 -0.95,-0.79 1.57,1.18 -0.06,0.9 -2.07,1.34 -0.78,2.82 2.18,4.66 -2.63,1.91 -3.25,-0.06 -1.51,2.42 1.01,2.25 -1.51,1.57 0.61,1.23 0.84,0 -0.06,3.43 1.4,2.36 -1.4,0.11 0.67,1.18 -0.73,0.39 1.17,0.56 1.4,-0.45 1.96,4.72 1.51,1.35 -1.46,0.39 -0.84,-1.46 -0.9,0.28 0.17,1.12 -3.97,-0.95 0.17,2.41 -1.12,1.4 -0.11,1.4 1.57,-0.06 1.62,-1.68 1.57,-0.17 -0.39,-1.07 3.64,2.08 0.78,-4.49 -1.96,-2.08 0.62,-1.24 -1.12,0.11 -0.84,-1.96 -1.9,-1.46 -0.28,-2.08 -0.95,-1.01 -0.11,-3.37 -1.12,-1.24 0.9,0.06 0.45,-0.9 -0.67,-3.2 1.9,-0.84 -0.95,1.46 1.85,-1.68 2.18,0.11 2.07,-1.12 0.45,-1.85 0.78,-0.17 0.9,0.79 0.11,2.3 2.35,0.06 1.85,1.35 -2.8,0.45 -1.18,3.48 1.01,6.4 2.74,5.5 3.75,3.71 2.46,0.5 1.51,-1.35 4.09,8.31 5.21,4.43 3.53,1.46 0.5,1.68 1.12,0.62 2.91,4.15 -0.56,2.02 -0.78,0.45 -2.13,-1.23 -0.84,-1.63 -1.57,-0.22 0.06,1.18 1.06,0.79 -0.73,1.91 1.74,1.63 -0.73,1.96 -2.24,0.06 -1.79,-6.17 0.62,-2.19 -1.52,-0.79 -1.5,-2.13 -2.01,-0.45 -0.56,0.62 -4.59,-3.93 -2.97,-1.07 -0.39,0.73 -0.95,-0.11 0,2.02 -1.34,-0.11 0.33,0.79 -1.12,0.06 0.67,1.05 -1.68,1.42 -0.22,3.59 2.13,0.28 0.45,0.84 3.58,1.46 0.06,-0.79 1.13,-0.62 0.16,-2.97 0.84,-0.11 2.91,2.41 3.47,0.73 1.23,-0.45 -0.39,1.23 -0.73,-0.06 -1.23,1.4 1.06,0.28 0.11,1.57 2.91,1.74 0.11,2.47 1.29,-0.62 2.46,0.45 2.3,4.6 -1.06,1.18 -0.67,-0.34 -0.39,2.53 1.34,0.17 -0.67,2.08 2.18,3.65 0.9,0.06 -1.23,-2.36 -0.11,-1.91 1.18,-2.02 1.4,1.35 1.01,-2.13 1.12,-0.62 1.62,4.6 2.02,0.22 3.08,5.27 -1.23,1.57 1.33999,0.06 3.02,2.08 -2.07,2.86 -1.73,0.79 -0.9,-0.73 -0.56,0.39 2.24,2.24 0.56,-1.29 1.4,-0.34 0,0.95 1.06,0.9 -0.22,2.92 -1.01,0.5 -1.79,-0.5 -2.07,-2.19 -1.23,0.79 1.01,3.03 0.67,0.11 1.46,-1.46 1.01,0.62 1.29,-0.34 1.18,2.36 1.96,0.39 -2.58,1.74 -0.39,2.08 -3.97,-1.35 1.12,1.12 0.34,1.85 2.97,2.02 -0.28,1.12 -1.62,-0.22 0,1.79 -1.79,2.47 0,0 -0.39,0.54 -4.93,0.03 -6.88,6.91 -3.3,1.41 -0.76,2.57 -1.35,0.49 -1.27,-12.62 0.66,-2.27 -1.3,-1.51 0.07,-2.32 -1.29,-2.23 -0.42,-2.78 0.74,-1.79 -6.14,3.43 -20.63,-0.2 -4.54,-1.23 0.98,-1.29 -9.5,-4.27 -3.74,-5.49 0.02,-2.2 1.83,-3.62 -0.37,-1.55 1.35,-2.68 -0.94,-2.86 0.55,-1.65 -12.54,-2.97 -3.14,-2.13 -4.46,-7.09 -3.43,-3.46 -0.03,-2.11 -0.85,-0.94 -12.32,-0.25 -1.77,1 -0.62,-1.05 -2.04,-0.62 0,0 -0.84,-1.87 0.07,-2.44 -2.11,-4.14 0.59,-2.86 -1.01,-5.74 1.57,-4.05 -0.25,-3.59 -0.74,-1.17 0.22,-1.82 1.63,-2.54 -0.03,-6.29 3.26,-3.35 1.97,-0.74 2.4,0.65 2.93,-1.98 1.78,0.11 1.98,1.74 1.73,-0.59 2.34,1.06 2.39,-0.47 0.01,-3.96 -6.79,-14.64 1.57,-42.53 -0.86,-2.59 z" 
                fill="rgb(151, 144, 238)" 
                stroke="white" 
                stroke-width=".7px"
                title="Batticaloa" 
                id="LK-51" 
            />
        </svg>