<svg xmlns="http://www.w3.org/2000/svg" viewBox="68.567125 687.32075 102.11998499999996 95.59999999999957" width="102.11998499999996" height="95.59999999999957">
            <path 
                d="m 68.567125,687.32075 1.94,2.71 1.13,-0.5 0.68,-1.45 1.69,0.04 1.6,0.85 1,2.33 2.09,0.07 4.61,2.32 1.82,2.23 3.41,-0.87 4.81,2.93 2.36,3.26 1.55,0.95 4.719995,-0.18 7.31,2.51 3.34,-1 -0.04,-2.62 1.03,0.18 0.69999,-1.73 4.23,0.55 1.6,0.74 4.65,4.6 1.58,0.34 3.64,4.55 0.9,0.29 0.74,-3.12 -1.22,-2.69 0,0 -0.49,-1.73 0,0 -0.6,-5.98 2.01,-1 2.36,0.11 4.24,-2.88 3.73,-1.81 1.1,0.17 2.18,-1.67 1.69,-0.3 1.09,0.56 0,0 7.49,6.75 2.51,0.61 1.81,-1.07 2.17,1.4 2.81,0.35 1.38,1.56 3.82,-0.38 0.86,2.52 0,0 -1.41,0.74 -2.05,-0.25 -2.69,2.69 -0.86,0.06 0.78,2.59 2.18,1.7 0.64,1.37 1.44,0.43 2.06,4.36 -1.79,1.55 -0.23,1.5 -1.14,-0.35 -0.99,1.18 -1.55,-0.3 -1.24,-1.54 -1.51,0.28 -1.55,-2.66 -2.71,-1.25 -0.71,-1.61 -2.98,-1.57 -1.96,-2.1 -2.39,0.93 -1.46,-0.44 -1.62,1.26 3.23,4.37 3.96,2.11 1.76,4.06 3.48,3.65 -0.79,1.26 1.21,1.58 -1.16,0.78 0.9,2.14 -2.67,2.38 -8.73,-1.37 2.91,3.2 1.06,2.96 -3.07,0.85 1.67,2.93 -0.98,1.12 -1.34,0.17 -0.42,2.38 0.74,3.12 0.64,1.05 2.21,0.87 1.15,2.89 1.38,0.87 1.54,-0.18 0.48,1.25 3.21,2.16 -0.44,1.47 -1.85,0.67 -3.36,2.81 -1.24,3.25 -1.13,0.28 -0.98,-1.22 -0.99,0.6 0.46,4.17 0.95,0.61 3.19,-0.28 2.25,2.74 -2.21,0.65 -0.24,0.77 -2.5,-0.31 -1.64,1.05 -1.76,4.97 0.61,3.7 0,0 -2.86,-0.5 -11.65,-5.03 -9.96,-1.35 -2.74,-2.18 -1.46,0.84 -1.57,-2.4 1.01,-0.34 0.56,-1.73 -0.78,-0.95 -1.96,0.44 -0.45,-0.33 0.91,-0.51 -1.53,-0.38 -1.06,0.72 0.34,1.4 -0.68,0.39 -2.07,-2.57 -4.87,-2.63 -1.06,-1.4 0.22,-0.67 -10.409995,-7.94 -0.73,-2.46 -4.59,-3.86 -0.28,-3.64 -1.34,-1.4 -0.73,-2.29 -5.38,-5.2 0.45,-1.96 -2.24,-4.87 0,-1.51 -3.41,-5.14 -0.62,-1.74 1.02,-5.37 -1.97,-3.64 0.5,-1.56 -1.45,-4.48 -1.57,-2.63 z" 
                fill="rgb(151, 144, 238)" 
                stroke="white" 
                stroke-width=".7px"
                title="Galle" 
                id="LK-31" 
            />
        </svg>