<svg xmlns="http://www.w3.org/2000/svg" viewBox="193.36712000000006 659.25075 221.24000999999998 122.27000000000021" width="221.24000999999998" height="122.27000000000021">
            <path 
                d="m 394.87713,659.25075 1.02,1.28 1.16,0.25 0.39,1.5 1.94,1.63 1.51999,2.73 2.61001,-0.55 2.54,1.19 1.91,3.37 2.5,1.71 3.58,0.11 0,0 0.56,0.46 -0.45,1.79 -2.13,2.97 -6.16,4.31 -0.84,2.3 -1.84,1.79 -3.19,1 -3.7,2.52 -0.22,1.46 1,0.78 -3.91,3.64 -5.6,2.68 -2.69,2.41 1.51,0.34 -7.5,1.9 -4.65,2.13 -1.51,1.62 0.67,1.34 -1.34,1.79 -2.24,1.01 -0.45,2.63 -1.68,0.17 -1.17,0.72 -5.49,1.79 -6.33,7.73 -2.12,1.73 -3.75,1.01 -1.12,0.84 -0.28,1.28 -6.55,2.19 -0.51,2.07 -2.57,1.79 -0.06,1.11 -5.99,0.51 -5.15,2.46 -5.71,0.56 -3.02,2.24 0,1.17 -7.39,0.95 1.73,-0.84 0.45,-2.51 0.45,0.72 0.61,-0.33 -1.73,-1.9 -2.35,0.27 0.72,-0.67 -0.61,-1.51 -0.06,0.79 -0.84,0.11 0.12,1.34 -1.85,0.62 1.12,0.72 -0.56,1.57 1.68,2.01 -2.41,2.02 -4.26,1.12 -1.17,1.34 -2.97,0.73 -0.67,1.67 0.9,0.51 -6,0.33 -1.11,1.07 -8.07,0.61 -1.07,0.88 -6.76,0.3 -4.43,1.17 -3.47,2.52 -6.32,0.33 -2.08,0.95 -0.05,1.07 -1.07,-0.12 -5.71,2.52 -1.73,0.06 -0.45,0 -4.37,1.06 -0.67,2.24 -1.01,0.83 -3.3,-0.67 -5.43,0.79 -2.80001,1.17 -1.29,1.62 0.45,1.46 -1.96,0.44 -2.07,2.69 -1.34,-0.17 -0.62,0.78 -0.73,-0.5 -0.39,0.84 -1.9,-0.23 -1.46,0.73 -0.61,1.4 0.78,0.5 -1.85,0.34 -0.72,1.01 0.22,2.06 -1.18,-1.51 -1.5,0.11 0,0 -4.26,-2.9 -2.95,0.51 -0.29,-3.61 2.05,-0.82 0.31,-1.17 -1.38,-1.62 -5.06,0.25 -0.56,-2.75 -1.77,-0.85 1.31,-1.85 2.19,-0.43 2.14,-1.7 0.98,0.68 0.85,-0.74 0.24,-1.15 -0.58,-0.55 0.65,-0.82 -2.34,-2.77 0.28,-1.2 -0.66,-1.34 0.81,-1.34 2.38,-1.36 -0.38,-1.04 -1.42,-0.63 -4.69,0.93 -0.66,-1.87 -2.51,-0.99 -0.3,-1.49 1.72,-1.59 1.45,-3.56 -0.43,-1.46 -1.68,0.87 -2.97,-0.15 -1.68,-2.27 -1.91,-0.26 -1.57,-1.2 -0.65,-2.21 3.42,-5.03 0.66,-3.11 2.02,-2.55 4.79,-1.78 -1.93,-1.91 2.2,-3.29 -1.4,-3.09 2.69,-0.69 0,0 6.84,-0.09 1.58,1.15 4.15,0.85 5.51,3.11 2.26,0.3 5.45,2.53 5.37,0.33 6.71,-1.32 2.27,1.06 2.58,4.1 2.13,-0.55 3.59,2.22 4.17,-0.4 1.74,2.44 2.62,-2.18 -2.06,-3.84 -0.25,-2.57 -1.27,-0.14 -0.59,-2.73 -2.44,-2.21 0,0 5.11,-2.86 0,0 2.18,-0.75 0,0 2.39,-2.35 2.94,-0.59 7.19,-3.3 0.88,-2.86 -1.52,-1.97 -1.52,-0.1 0.16,-3.74 1,-1.66 4.79,0.95 2.51,-3.13 -0.08,-3.02 2.52999,2.11 1.15,-0.51 0.72,-2 3.67,-0.07 2.45,1.18 7.18,-0.56 1.56,4.74 1.18001,-0.3 1.29,1.3 1.67,-0.11 1,-1.96 2.85,-0.53 3.85,4.47 1.54,3.24 2.69,1.9 -0.66,1.66 2.87,1.64 2.1,-0.4 1.57,0.51 1.92,-1.06 2.1,-1.81 1,-2.82 6.86,-2.2 0.91,0.94 2.09,-1.4 0.95,0.51 1.71,-0.49 2.3,-1.52 3.08,-0.17 1.21,-1.52 2.16,-0.07 1.89,-3.27 1.09,0.17 0.41,1.5 3.86,-0.57 1.54,-1.78 1.77,0.27 0.67,-0.64 1.7,1.24 2.6,0.09 1.15,1.25 1.08,-0.21 1.55,-2.24 -0.71,-5.95 2,-3.12 -1.39,-1.77 -0.18,-2.77 0.75,-1.82 5.28,-3.7 3.16,-1.1 1.79,-3.26 2.84,-0.12 3.68,-3.64 3.2,0.76 1.54,-2.04 2.21,-0.08 z" 
                fill="rgb(151, 144, 238)" 
                stroke="white" 
                stroke-width=".7px"
                title="Hambantota" 
                id="LK-33" 
            />
        </svg>