<svg xmlns="http://www.w3.org/2000/svg" viewBox="0.2571250000000126 0.2607467999999955 195.39999500000002 76.6700002" width="195.39999500000002" height="76.6700002">
            <path 
                d="m 190.72712,72.870747 4.93,4.06 -5.31999,-1.13 0.38999,-2.93 z m -187.949995,-15.45 1.9,0.11 1.51,2.76 2.41,1.13 0.22,0.73 5.71,0.45 0.95,0.68 1.12,7.11 -1.34,2.82 -3.36,0.17 -2.46,-0.85 -8.34,-5.07 -0.84,-8.06 1.12,-1.92 1.23,-0.51 0.17,0.45 z m 26.71,-9.36 0.45,1.75 1.01,0.62 -0.39,2.37 -1.9,-1.13 0.06,-2.93 0.77,-0.68 z m -4.87,-4.4 0.9,0.4 -0.33,7.39 -1.74,-0.68 -0.62,-1.58 0.06,-3.95 1.73,-1.58 z m 16.91,-2.71 1.9,2.03 -0.56,1.86 -1.74,-1.52 -0.39,-1.86 0.79,-0.51 z m -14.56,-10.61 0.73,4.51 -2.57,2.6 0.84,0.28 -0.51,1.58 -2.52,-2.82 1.57,-3.67 2.46,-2.48 z m 15.45,-3.33 2.46,2.09 1.68,-0.28 0.95,-1.02 1.4,0.96 0.56,1.69 1.29,0.85 -0.9,1.69 1.96,2.6 0.39,-1.02 -1.18,-0.9 4.09,-0.96 -1.4,-0.96 3.92,0.85 0.39,-0.51 0,2.82 -0.73,-0.34 -0.73,0.56 -0.73,0.11 -0.22,0.68 5.15,3.67 4.37,2.14 1.74,-0.11 -0.11,-0.68 1.17,-0.34 -0.33,-1.24 3.14,1.13 1.45,1.64 -0.95,1.92 0.34,1.81 -0.56,1.18 -2.91,1.69 -2.69,-0.56 -1.51,-1.02 -0.34,-1.19 0.73,0.06 -0.06,0.96 1.96,0.11 0.95,-3.27 -1.46,1.86 -2.63,-0.34 -1.74,-1.75 -3.42,-1.58 -3.58,-0.56 -2.3,3.44 -1.73,-0.11 -1.34,-1.24 -5.88,3.27 0.33,0.68 -1.06,2.06 0.78,1.38 -0.78,1.69 0.62,1.52 -0.73,0.4 -2.63,0.45 -8.34,-1.8 -0.27,-2.93 0.95,-0.23 0.5,-1.35 -1.06,-1.02 0.84,-0.62 -0.28,-2.71 0.95,-1.69 0.9,0.96 0.9,-0.68 -0.11,1.69 0.95,0.56 -1.01,2.54 2.13,1.75 0.9,-0.23 0,-0.85 2.91,0.62 -1.62,-1.02 -0.39,-1.81 -0.17,0.85 -3.36,-0.11 0.56,-1.64 2.01,0.63 1.9,-1.74 3.58,2.54 6.16,-3.39 -3.3,-2.37 -0.84,0.23 -1.57,-3.16 0.42,-1.05 1.59,-0.19 0.73,-0.85 0,-1.52 -1.29,-1.18 -1.62,-0.11 -0.17,1.02 0.5,-0.4 1.06,1.24 -0.67,1.47 -1.23,0.06 -1.51,-1.81 -1.79,-2.76 -0.22,-1.3 1.23,-0.9 -1.85,-1.3 -0.11,-1.13 2.74,0.34 1.18,-0.63 z m -9.07,-2.31 -0.56,6.26 -0.9,-2.43 0.34,-2.37 1.12,-1.46 z m 80.619995,-24.4400002 7.61001,2.09 2.07,5.02 4.31,7.2300002 9.73999,14 6.05,6.54 29.62001,23.58 3.36,2.99 0.45,1.18 12.53999,9.64 0.34001,1.52 -0.5,0.45 -1.85,-0.56 -8.17,-5.58 1.29,0.34 -0.45,-0.68 -2.35,-0.45 -4.25,-2.82 -5.54,-1.48 -1.62,0.41 -0.39,-0.9 -3.83,-2.14 0,0 0.16,-3.85 -1.72,-3.62 -9.3,-7.24 -13.82,-7.83 -7.32,-8.43 -8.11,15.58 0,0 -9.08,-5.14 -6.61,-2.93 -2.29,-0.28 -2.18,1.98 1.34,1.24 1.06,-1.41 0.9,0.79 0.22,2.65 -0.78,0.68 0.67,0.68 -2.66,-0.25 2.3,0.9 1.62,-0.9 0.67,0.4 0.78,-0.23 1.29,0.34 1.01,0.73 -0.62,1.02 0.9,0.28 -2.63,1.41 -1.85,-0.9 -1.23,0.28 0.67,0.96 1.45,-0.51 1.00999,0.73 -0.34,0.79 1.79,-0.68 -0.06,1.07 -1.57,0.39 1.51,0.85 0.39,0.56 2.74,0.34 -1.61,0.73 -5.89,-3.16 -5.539995,-5.25 -7.45,-3.33 -5.37,-2.99 -0.5,-1.03 -0.17,1.77 0.39,0.79 0.22,0.96 3.53,1.41 4.59,4.63 3.08,0.73 -1.57,0.34 -5.77,-2.09 -9.52,-6.32 -1.4,-0.34 -1.01,0.85 -4.09,-0.73 -2.8,-2.54 -1.96,2.99 2.13,1.92 -2.13,-0.39 -0.73,-1.13 2.63,-3.55 -1.29,-1.64 -0.11,-3.27 -1.73,-0.96 -1.18,1.64 -0.84,-0.23 -2.35,-2.2 -0.51,-1.58 -2.07,2.2 0.17,0.62 -2.74,-0.23 -1.06,-2.99 -1.29,-1.35 0.28,-2.43 -2.52,-3.89 -4.59,0.96 -0.06,2.26 -1.51,-0.17 0.84,2.99 -2.52,1.69 -3.14,-0.17 -0.17,-0.62 -2.74,-0.85 2.24,-3.05 -1.46,-4.29 1.74,-2.6 3.42,0.23 3.97,-1.3 0.11,0.9 -1.08,0.4 0.68,1.07 -0.62,2.88 4.7,-0.51 -0.79,-1.41 -1.28,-0.34 -0.84,-1.81 1.23,-2.77 3.69,-0.45 2.74,-1.69 0.62,-1.7500002 8.23,-3.39 6.49,-1.19 2.63,0.23 0.84,-0.51 7.05,1.47 6.33,0.45 2.18,-0.45 3.14,-1.92 1.18,0.62 1.12,-1.58 9.849995,-0.45 5.22,-1.67 z" 
                fill="rgb(151, 144, 238)" 
                stroke="white" 
                stroke-width=".7px"
                title="Jaffna" 
                id="LK-41" 
            />
        </svg>