<svg xmlns="http://www.w3.org/2000/svg" viewBox="47.827125 609.6407500000001 99.88998500000002 100.7900000000003" width="99.88998500000002" height="100.7900000000003">
            <path 
                d="m 51.097125,631.73075 0.24,-1.76 -2.07,-7.84 -1.44,-1.81 0.5,-0.79 4.95,2.33 1.15,1.34 -0.37,1.11 0.59,0.67 4.99,0.1 0.71,-0.42 0.6,-2.46 1.61,0.9 2,-0.53 1.92,0.54 3.79,-2.47 1.33,-0.1 0.22,-1.4 0.84,0.07 1.42,-1.29 -0.42,-0.67 2.54,-0.8 1.95,-2.98 1.19,0.4 1.23,1.74 2.76,1.03 1.18,-1.12 1.7,-3.89 1.12,-0.43 1.82,0.55 0.33,1.62 1.01,0.55 0.06,1.79 2.14,4.49 2.32,0.39 0.75,-0.63 0.11,-1.72 -1.6,-4.81 6.640005,-3.79 1.87,0.39 1.09,1.63 2.07,-0.88 1.03,1.15 0,0 -0.35,1.11 0.89,2.49 1.91,2.58 0.05,4.52 2.73,5.56 -0.08,0.63 -1.27001,-0.26 -0.01,0.78 2.15,3.33 1.15,3.84 1.28,0.49 1.06,2.1 2.97,1.74 1.52,2.44 0.44,2.18 -0.5,1.7 1.22,2.44 1.03,1 4.42,0.86 4.21999,4.38 2.1,5.16 -0.86,-0.2 -2.97,1.83 2.21,3.46 -0.11,0.84 14.04,19.33 1.51,3.83 0,0 -1.09,-0.56 -1.69,0.3 -2.18,1.67 -1.09,-0.17 -3.73,1.81 -4.24,2.89 -2.36,-0.11 -2.01,0.99 0.59,5.98 0,0 0.5,1.73 0,0 1.22,2.7 -0.74,3.11 -0.9,-0.29 -3.65,-4.55 -1.57,-0.34 -4.65,-4.6 -1.6,-0.74 -4.23,-0.55 -0.7,1.73 -1.04,-0.18 0.05,2.63 -3.34,1 -7.31,-2.51 -4.719995,0.18 -1.56,-0.95 -2.36,-3.26 -4.81,-2.92 -3.41,0.87 -1.82,-2.23 -4.61,-2.32 -2.1,-0.07 -1,-2.33 -1.59,-0.85 -1.7,-0.04 -0.68,1.45 -1.13,0.5 -1.94,-2.71 0,0 -1.96,-1.91 -1.01,-2.24 -0.17,-2.13 1.85,-1.57 0.06,-1.85 -1.4,-3.47 1.01,-0.78 -0.33,-1.79 -4.03,-10.13 -2.86,-9.63 -5.29,-12.73 -3.02,-5.43 -0.28,-1.96 z" 
                fill="rgb(151, 144, 238)" 
                stroke="white" 
                stroke-width=".7px"
                title="Kaḷutara" 
                id="LK-13" 
            />
        </svg>