<svg xmlns="http://www.w3.org/2000/svg" viewBox="64.76712500000001 29.660747 130.19999500000006 97.81000300000002" width="130.19999500000006" height="97.81000300000002">
            <path 
                d="m 67.727125,107.37075 1.23,2.08 0.17,1.92 0.73,0.51 0.45,-1.01 1.51,0.96 0.06,2.03 -1.29,1.18 -0.78,-2.25 -1.18,-0.62 -2.24,1.01 -1.4,-0.96 -0.22,-2.14 1.57,-0.62 1.39,-2.09 z m 18.08,-2.93 1.73,0.23 1.46,2.03 -2.3,-0.17 -1.34,-1.47 0.45,-0.62 z m -3.58,-5.180003 0.45,3.780003 -1.29,-0.79 0.84,-2.990003 z m -8.9,-27.68 1,0.68 0.06,0.96 -0.67,1.97 -0.67,0.23 -1.4,-3.1 0.28,-0.68 1.4,-0.06 z m 48.929995,-26.34 8.11,-15.58 7.32,8.43 13.82,7.83 9.3,7.24 1.72,3.62 -0.16,3.85 0,0 -0.87,-1.3 -1.46,2.82 -2.07,-0.34 0.17,1.41 0.73,-0.11 -0.11,1.35 1.06,0.68 -1.57,-0.23 -2.63,-2.31 -3.92,-1.58 1.57,2.59 -0.56,0.17 -0.06,2.03 1.29,1.41 0.5,-0.23 0.84,0.51 0.5,-0.79 -0.38,-0.94 3.02,1.92 1.12,0.17 0.39,0.73 5.15,-0.56 1.23,0.62 -0.06,1.02 1.62,0.39 -0.17,0.73 1.18,-0.79 0.22,0.73 -0.78,0.79 1.51,0.11 0.78,1.24 2.86,-0.28 0.5,0.51 0.62,-1.58 0.39,1.24 2.74,-0.73 2.86,1.52 2.52,0.4 -0.39,1.8 0.67,0.34 -1.45,1.3 -1.12,-0.11 1.9,1.64 2.85,-0.06 1.85,0.79 0.06,-1.58 1.18,-0.11 1.18,-1.24 4.81,1.02 0,0 0.33,1.13 -0.65,0.74 0.25,0.39 -0.94,3.6 -2,2.23 -0.91,-0.57 -1.75,1.86 -0.47999,2.56 0.47999,3.94 -0.53999,1.09 0.5,1.65 -5.71001,-3.16 -5.31,-5.44 -0.46,5.51 -2.2,3.72 -0.40999,2.87 -21.87001,1.220003 -0.27,6.39 -2.32,1.42 -14.85,-1.51 -8.45999,2.17 -3.06,-1.04 -4.74,1.11 -1.39,0.48 -4.06,3.72 1.34,7.74 -0.42,0.92 -5.32,-0.65 0,0 -8.62,5.31 -6.430005,0.33 0,0 0.73,-2.9 -0.78,-3.32 0.78,-4.4 -1.9,-1.52 -0.28,-1.47 1.12,-2.31 1.23,-0.75 0.06,-1.85 -6.27,-5.24 -1.29,-0.45 -0.73,0.79 -2.07,-0.11 -1.51,-1.18 0.11,-2.31 -0.9,-1.470003 0.84,-1.52 -1.74,-1.52 -0.17,-5.19 3.75,-2.71 7.84,-2.54 3.02,-2.37 4.310005,-1.97 1.74,-2.54 0.39,-0.62 2.69,-2.88 2.35,-1.3 0.61,-2.48 -3.81,-5.92 -4.03,-4.12 -8.680005,-6.94 -10.53,-5.98 1.96,-2.43 0.23,1.97 1.9,-0.17 0.56,0.23 -0.11,0.96 3.58,0.66 1.51,1.54 1.06,-0.4 0.62,1.58 1.18,1.02 2.46,-0.62 3.47,4.23 6.890005,2.99 3.58,-0.79 -0.39,1.75 1.12,-1.02 0.56,1.02 1.51,0.28 0.62,1.64 1.85,-0.9 -0.84,-1.3 0.67,-0.11 5.82,4.91 1.01,0.4 0.56,0.11 1.06,-0.34 2.41,1.92 -0.5,0.79 1.57,0.73 0.11,1.41 -0.62,-0.45 -0.5,-0.62 -2.58,-0.73 -1.51,2.03 3.92,2.03 0.72999,1.24 -1.74,-0.73 -1.85,0.96 -1.56999,-0.62 -0.33001,1.3 6.21,2.88 3.13,-0.73 1.12,0.06 2.58,-0.79 -0.84,-0.28 0.45,-0.51 0.95,-0.06 0.23,1.07 2.35,1.13 1.12,-0.73 0.17,-2.2 1.18,-0.06 1.9,0.9 0.22,-0.66 1.62,0.27 3.08,-2.2 0.22,-0.45 1.18,0.68 1.85,-0.68 -0.28,-3.1 1.06,-1.75 -0.89,-1.92 2.69,-0.28 0.06,-1.69 -1.62,-0.51 -0.62,1.07 -1.2,-0.26 0.64,-0.75 -2.69,-1.24 1.63,2.65 -0.85,0.4 -2.69,-3.61 -3.42,-2.93 -0.34,-1.24 -4.98,-3.44 -0.5,0.17 1.4,1.52 -1.57,-0.68 -5.03999,-3.84 0.36,-0.8 -8.84,-5.02 z" 
                fill="rgb(151, 144, 238)" 
                stroke="white" 
                stroke-width=".7px"
                title="Kilinochchi" 
                id="LK-42" 
            />
        </svg>