<svg xmlns="http://www.w3.org/2000/svg" viewBox="50.6971250000001 332.70075 136.120005 189.77000000000038" width="136.120005" height="189.77000000000038">
            <path 
                d="m 91.437125,332.70075 4.57,3.47 5.400005,1.09 2.98,2.25 3.17,0.14 1.21,2.32 3.36,-0.45 1.33,1.95 3.99,0.35 1.35,1 2.1,0.2 2.38,1.99 1.06,2.06 5.36,-0.77 2.11,0.72 1.24,-0.38 1.88,1.05 2.92,4.53 3.86,2.1 3.86,4.44 1.81,-0.05 2.67,1.81 0.43,-0.85 2.03,-0.65 2.75,2.24 0.12,5.16 -0.88,2.53 1.72,3.37 -0.25,1.91 0.92,3.63 -1.87,2.32 2.46,0.54 3.68,-1.49 2.4,1.82 0.52,6.17 3.32,7.38 -1.02,4.45 -1.26,1.63 1.92,1.41 -0.03,2.44 1.02,1.73 3.33,1.51 0,0 -0.94,1.37 0.32,5.1 1.43,1.88 2.86,0.22 0.41,2.49 3.44,4.68 -0.11,5.75 2.33,0.52 0.14,4.94 0.89,2.35 -0.16,1.24 -1.34,0.61 0.77,3.85 1.2,1.66 1.96,0.66 0.33,2.45 1.93,2.19 -1.47,2.46 1.06,3.96 -2.22,0.62 -2.24,4.46 0.49,1.36 -0.48,1.11 1.08,0.37 1.57,2.77 -0.46,1.69 1.3,-0.19 -0.1,0.81 0.9,0.73 -0.43,4.47 0.86,1.75 -1.1,-0.07 -1.12,1.62 0.31,2.33 0,0 -1.73,0.39 -0.42,1.01 -2.36,-0.42 -0.29,0.74 1.49,1.22 -0.29,2.06 1.48,1.24 0.3,1.54 -1.01,0.66 -2.03,-1.12 -0.72,0.77 -1.45,-0.53 -0.28,1.32 -2.55,-0.05 0.3,4.62 -2.23,0.68 -5.13,-4.24 -1.58,0.1 -0.78,-1.25 -1.5,0.43 -0.04,1.28 1.52,0.78 0.53,1.42 -1.28,3.23 -1.52,0.54 -1.4,2.76 1.64,2.06 -1.13,0.02 -1.47,-1.29 -1.73,0.89 -1.55,-1.14 -1.71,0.54 0,0 -1.06,-0.35 0.3,-1.95 -1.46,-1.75 0.08,-1.11 -0.91,-0.87 -1.52,-0.11 -1.47,-1.76 -7.64,2.34 -1.5,-0.38 -0.43,0.65 1.39,1.91 0.73,2.72 -2.16,2.22 0.93,1.99 -1.75,3.77 -3,-1.24 -1.26,0.36 -0.77,1.34 -5.88,1.23 -2.09,-0.4 -1.98,0.84 -10.57,7.45 -2.25,3.33 -1.78,-0.03 0,0 -1.03,-0.97 -1.06,0.45 -3.03,-4.68 -4.54,-3.3 -0.480005,-0.97 0.990005,-1.49 -4.820005,-3.86 -4.77,3.94 -3.69,1.44 -0.56,1.54 -4.17,2.49 -1.28,-0.12 -1.58,-3.06 -1.76,-0.72 -1.43,0.33 -0.29,-1.24 -1.05,-0.64 0.66,-1.06 -2.45,0.58 -1.64,-1.18 -0.63,1.23 -3.1,1.57 1.2,0.58 -2.67,0.65 -0.74,1.57 -2.05,0.7 -1.9,-0.98 -0.09,0.75 -1.02,0 -0.17,0.79 0.91,1.03 -1.58,0.24 -0.27,1.26 -0.76,-0.36 0,0 -0.72,-14.6 -6,-26.88 -0.84,-6.41 -0.69,-14.31 1.26,-2.46 -0.26,-5.12 0.81,-1.49 2.13,-1.39 0.5,-2.46 2.2,-0.42 -0.43,-1.04 -1.36,-0.12 -0.41,-0.72 1.6,-1.31 0.06,-2.39 1.03,-0.78 1.51,0.48 0.84,-0.83 0.38,1.19 2.21,0.25 0.82,-2.33 -1.97,-1.63 -2.84,-0.04 2.92,-1.5 -0.45,-2.03 0.68,-1.52 1.01,0.49 2.75,-1.01 1.18,-2.16 4.01,-2.33 0.24,-1.23 -1.14,-0.47 -0.54,-1.57 1.66,-3.34 -1.3,-3.84 0.53,-2.94 3.13,-1.01 -1.49,-2.82 2.21,-1.07 0.55,-1.03 3.67,-1.12 0.59,-2.72 -0.63,-0.14 0.81,-1.6 1.69,0.03 0.73,-1.39 2.33,0.19 -0.01,-2.72 1.63,-0.97 -0.37,-4.64 4.5,-1.46 -0.34,0.91 1.3,0.48 0.3,-2.17 1.49,-0.72 0.02,-3.75 1.12,-0.46 1.45,0.67 2.21,2.51 2.59,-0.78 0.890005,-0.97 -3.140005,-4.95 3.430005,-6.31 -1.300005,-1.57 1.170005,-2.7 -0.47,-5.1 1.29,-4.55 -1.33,-1.27 -3.790005,-1.22 -2.61,-3.86 0,-3.47 -1.43,-6.88 -1.67,-3.58 1.09,-2.93 z" 
                fill="rgb(151, 144, 238)" 
                stroke="white" 
                stroke-width=".7px"
                title="Kurunegala" 
                id="LK-61" 
            />
        </svg>