<svg xmlns="http://www.w3.org/2000/svg" viewBox="155.84713000000008 475.47075000000007 119.79999999999987 111.16999999999973" width="119.79999999999987" height="111.16999999999973">
            <path 
                d="m 184.76712,481.98075 1.27,0.79 0.25,2.67 1.15,0.35 1.79,2.11 1.15,0.02 1.30001,1.52 2.94999,1.27 2.05001,2.52 3.3,1.07 2.61,2.42 3.47,0.11 5.47,-0.59 1.54,-1.66 0.15,-3.82 1.09,-2.41 -2.22,-6.31 5.36,-3.48 1.05,0.6 -0.09,1.41 1.55,0.24 2.65,2.99 1.48,-0.02 0.67,1.43 1.99,0.75 0.95,1.58 2.35,0.47 2.33,-2.23 1.32,-0.26 -0.3,-1.51 2.72,-2.49 3.9,-0.65 2.1,-1.89 2.53,-0.46 3.09,1.87 1.73,-1.56 2.29,-0.32 1.72,3.28 0.61,-1.29 1.75,0.71 0.86,-2.47 1.95,-1.57 0.23,-1.59 2.45,0.55 2.91,-0.66 2.89,0.33 0,0 0.2,12.37 -1.16,2.76 1.83,1.84 0.84,2.32 -1.34,5.78 8.15,26.37 -1.68,3.42 -5.02,0.78 -2.08,3.3 -5.23,-0.83 0,0 -5.99,-0.42 -3.79,0.71 -2.74,3.67 -0.91001,-0.98 0.01,-1.8 -2.6,0.5 -1.24,-0.45 -2.01,0.82 -8.25,-1.66 -1.56,-1.22 -0.11,-4.29 -2.73,-2.23 -1.09,-2.17 -1.06,-0.3 -3.6,-4.07 -1.6,-0.89 -0.35,0.73 1.1,3.13 -0.58,0.67 1.58,2.37 1.18,0.53 -0.43,2.01 0.98,0.85 -0.65,1.5 0.94,3.4 -6.39,7.37 -1.85,0.62 -1.78,3.96 -4.75,5.28 -1.76,4.09 -2.22,-0.2 -2.82,-1.64 -3.08,-0.23 -2.16,0.74 -0.97,2.82 -1.19,1.22 -9.92,0.99 -1.28,-1.54 -2.11,1.05 -1.37,-0.98 -2.63,1.66 -0.39,2.31 2.58,-0.61 2,3.44 -0.05,1.54 2.66,3.02 2.08,1.19 0.99,2.28 2.53,2.75 -1.75,1.76 -0.91999,4.21 -2.38,1.11 0.05,3.03 -2.17,-0.19 -0.63,1.27 -2.2,-0.3 -2.63,-4.33 -4.88,-4.08 -0.57,-2.92 -3.22,-4.67 0.08,-1.26 -1.69,0 -3.16,-2.27 -2.01,1.8 0,0 -0.5,-3.81 0.57,-2.07 1.48,-1.55 -1.29,-0.04 -2.12,-7.23 -1.7,-2.52 2.02,-1.68 2.93,-0.05 1.63,-1.04 0.75,0.56 3.71,-0.66 0.4,-1.31 0.76,0.17 0.81,-3.1 2.39,-0.57 0.73,1.06 0.75,-1.02 1.03,0.24 -1.08,-2.27 0.83,-0.88 2.66,-0.14 0.31,-0.53 -0.62,-1.88 -6.41,-5.94 -0.13,-0.98 1.97,-1.48 0.02,-2.88 -0.75,-1.28 -1.67,-0.87 -1.31,-2.58 -4.92,-1.12 -0.72,-1.23 0.96,-0.59 0.13,-2.47 -4.8,-4.32 -0.52,-1.37 -3.03,-1.18 -1.75,-1.52 -0.96,-1.21 -0.89,-5.03 0,0 1.71,-0.54 1.55,1.14 1.73,-0.89 1.47,1.29 1.13,-0.02 -1.64,-2.06 1.4,-2.76 1.52,-0.54 1.28,-3.23 -0.53,-1.42 -1.52,-0.78 0.04,-1.28 1.5,-0.43 0.78,1.25 1.58,-0.1 5.13,4.24 2.23,-0.68 -0.3,-4.62 2.55,0.05 0.28,-1.32 1.45,0.53 0.72,-0.77 2.03,1.12 1.01,-0.66 -0.3,-1.54 -1.48,-1.24 0.29,-2.06 -1.49,-1.22 0.29,-0.74 2.36,0.42 0.42,-1.01 z" 
                fill="rgb(151, 144, 238)" 
                stroke="white" 
                stroke-width=".7px"
                title="Mahanuvara" 
                id="LK-21" 
            />
        </svg>