<svg xmlns="http://www.w3.org/2000/svg" viewBox="146.87712999999997 695.78075 69.83999000000009 96.48000000000013" width="69.83999000000009" height="96.48000000000013">
            <path 
                d="m 170.59712,701.82075 7.75,-1.36 0.02,-2.79 2.19,-0.19 0.11,-1.1 0.88,-0.31 1.07,1.34 2.09,-0.97 2.71,0.74 3.67,-1.4 4.41,0.26 0.25,1.92 -0.9,1.13 0.38,2.03 -2.21,2.29 0.93,2.78 4.08,-1.13 6.03,-0.46 0.41,2.82 -1.24,0.52 1.46,1.99 1.28,0.07 0.88,1.03 -1.1,0.62 0.08,2.56 0,0 -2.7,0.69 1.4,3.08 -2.18999,3.29 1.91999,1.92 -4.78,1.78 -2.02,2.55 -0.66,3.11 -3.41,5.02 0.65,2.22 1.57,1.2 1.91,0.26 1.67,2.27 2.97,0.15 1.68,-0.87 0.43,1.46 -1.45,3.56 -1.72,1.59 0.30001,1.49 2.5,0.99 0.66,1.87 4.69999,-0.93 1.42,0.64 0.38,1.04 -2.37,1.36 -0.81,1.34 0.66,1.34 -0.28,1.2 2.34,2.77 -0.66,0.82 0.58,0.56 -0.24,1.15 -0.85,0.74 -0.99,-0.67 -2.14,1.69 -2.19,0.43 -1.31,1.85 1.77,0.85 0.56,2.75 5.07,-0.25 1.37,1.62 -0.31,1.18 -2.04,0.82 0.29,3.61 2.94,-0.51 4.27,2.9 0,0 -1.40999,3.81 -2.02001,-0.56 0,0.62 -1.57,0.11 -0.06,-0.89 -1.62,-0.06 -0.84,1.06 -2.86,-0.22 -4.59,0.84 -1.4,0.78 -0.56,1.45 -0.78,-0.78 -2.69,0.45 -0.34,1.51 -0.84,0.17 0.45,1.12 -3.64,1.4 -1.34,-0.28 -0.61,1.59 -1.57,-0.33 0.11,-1.62 -1.4,-1.45 -4.2,-1.34 -3.64,0.11 -0.22,0.33 -2.97,0.89 -5.49,-0.95 -4.76,0.5 -2.63,-1.51 -1.29,0.67 -1.46,-1.12 1.46,-0.39 0.22,-2.85 -3.19,-1.96 -2.06999,0.28 -1.96001,3.35 -6.61,-1.96 0,0 -0.6,-3.7 1.76,-4.97 1.64,-1.05 2.5,0.31 0.24,-0.78 2.21,-0.65 -2.25,-2.73 -3.19,0.27 -0.95,-0.61 -0.46,-4.17 0.99,-0.61 0.98,1.22 1.13,-0.28 1.24,-3.25 3.36001,-2.81 1.84999,-0.67 0.44,-1.47 -3.21,-2.16 -0.48,-1.25 -1.53999,0.18 -1.37,-0.87 -1.15001,-2.89 -2.21,-0.87 -0.63999,-1.04 -0.75,-3.12 0.43,-2.38 1.34,-0.17 0.98,-1.12 -1.66,-2.93 3.06999,-0.85 -1.06,-2.96 -2.91999,-3.21 8.74,1.38 2.67,-2.38 -0.9,-2.14 1.15999,-0.78 -1.22,-1.58 0.80001,-1.27 -3.48,-3.64 -1.75,-4.06 -3.96,-2.11 -3.23,-4.37 1.62,-1.26 1.46,0.44 2.39,-0.93 1.96,2.1 2.98,1.57 0.71,1.6 2.71,1.25 1.55,2.67 1.5,-0.28 1.24,1.54 1.55,0.3 0.99,-1.18 1.14,0.35 0.23,-1.5 1.79,-1.55 -2.07,-4.36 -1.44,-0.43 -0.64,-1.37 -2.18,-1.7 -0.77,-2.59 0.85,-0.06 2.69,-2.69 2.04,0.26 1.42,-0.73 z" 
                fill="rgb(151, 144, 238)" 
                stroke="white" 
                stroke-width=".7px"
                title="Matara" 
                id="LK-32" 
            />
        </svg>