<svg xmlns="http://www.w3.org/2000/svg" viewBox="237.62711999999982 481.82075000000003 163.11000000000018 234.4600000000002" width="163.11000000000018" height="234.4600000000002">
            <path 
                d="m 326.83713,518.46075 1.75,3.11 -0.35001,1.23 1.85001,1.38 -0.23001,1.62 3.96,-3.4 3.6,-1.15 -0.81,-2.99 1.22001,-4.28 -1.4,-2.78 0.52,-4.97 0.72,0.68 4.08,-0.29 4.55,-1.59 -0.79,-1.78 0.41,-1.05 1.88,-0.21 2.4,-2.49 -2.56,-5.41 0.26,-2.58 2.79,0.51 3.4,-1.77 0.64999,-1.17 -0.27999,-2.16 2.88999,-0.53 0.59,-1.16 2.31,-0.41 4.05,-3 4.53,0.75 -3.39,4.91 0.6,0.98 2.44,0.78 -0.95,5.79 1.5,2.83 2.21,8.31 -2.38,2.64 3.78,4.11 2.98,1.22 1.27,1.62 0.37,1.12 -0.61,0.86 1.32,2.01 0.68,3.42 -0.9,2.15 2.19,0.59 3.86,4.53 -2.24,0.79 -3.95,3.24 -2.20999,3.13 -2.24001,6.69 2.64,2.55 -0.42,3.72 0.82,3 1.15,1.11 2.43,1.44 0.67,-0.89 0.59,0.94 4.11,1.63 2.73,0.14 4.59,2.36 3.63,0.24 1.03,3.89 -1.56,1.51 -0.88,3.19 1.1,1.92 0.26,2.54 1.42,1.08 -0.64,3.9 3.91,3.84 -1.7,9.49 -4.16,67.36 0,0 -1.69,3.55 -2.21,0.08 -1.54,2.04 -3.2,-0.76 -3.68,3.64 -2.84,0.12 -1.79,3.26 -3.16,1.1 -5.28,3.7 -0.75,1.82 0.18,2.77 1.39,1.77 -2,3.12 0.71,5.95 -1.55,2.24 -1.08,0.21 -1.15,-1.25 -2.6,-0.09 -1.7,-1.24 -0.67,0.64 -1.77,-0.27 -1.54,1.78 -3.86,0.57 -0.41,-1.5 -1.09,-0.17 -1.89,3.27 -2.16,0.07 -1.21,1.52 -3.08,0.17 -2.3,1.52 -1.71,0.49 -0.95,-0.51 -2.08999,1.4 -0.91001,-0.94 -6.86,2.2 -1,2.82 -2.1,1.81 -1.92,1.06 -1.57,-0.51 -2.1,0.4 -2.87,-1.64 0.66,-1.66 -2.69,-1.9 -1.54,-3.24 -3.85,-4.47 -2.85,0.53 -1,1.96 -1.67,0.11 -1.29,-1.3 -1.18,0.3 -1.56,-4.74 -7.18,0.56 -2.45,-1.18 -3.67,0.07 -0.72,2 -1.15,0.51 -2.53,-2.11 0.08,3.02 -2.51,3.13 -4.79,-0.95 -1,1.66 -0.16,3.74 1.52,0.1 1.52,1.97 -0.88,2.86 -7.19,3.3 -2.94,0.59 -2.39,2.35 0,0 -2.18,0.75 0,0 -5.11,2.86 0,0 -2.69,-5.28 0.55,-2.12 -1.39,-0.97 0.12,-1.31 -1.2,-1.09 -6.38,-1.55 -0.58,-2.57 -1.42,-0.87 -0.45,-1.92 -1.21,-0.52 -1.7,-3.14 1.13,-1.06 -1.3,-4.02 0.97,-1.41 -1.32,-1.31 0.84,-0.23 -0.21,-1.55 0.75,-1.37 -3.06,-6.85 2.33,-5.3 2.86,-3.1 2.01,-3.61 -0.56,-2.16 1.24,-2.73 -0.18,-1.09 1.29,-0.51 -0.58,-2.2 1.42,-0.22 0.39,-2.47 -0.6,-0.9 1.94,-1.52 1.07,-2.67 2.64,-1.53 0.01,-2.34 1.82,-4.28 3.09,-3.17 0,0 0.42,-0.76 2.01,0.19 -0.1,2.36 2.48,1.37 0.31,3.37 1.07,0.68 2.05,-0.54 1.51,1.91 0.65,1.96 -0.59,2.51 0.47,1.16 2.39,-0.71 1.69,1.12 -0.88,2.98 0.8,2.08 -0.66,2.99 5.46,6.64 0.48,-6.26 1.75,-2.08 1.41,-1.43 4.36,2.45 -0.04,-4.19 2.86,-2.4 1.98,0.31 -0.41,-1.46 -3.9,-3.29 -0.78,-3.7 0.76,-9.73 2.67,-1.51 0.26,-2.32 1.15,-1.86 -2.81,-1.9 -3.02,0.59 -0.91,-0.91 0.61,-1.98 2.07,-2.6 -0.75,-4.24 0.94,-6.24 2.87,-0.08 1.23,1.43 1.5,-0.41 1.07,-0.68 -0.78,-1 0.32,-2.11 1.8,-0.6 2.63,0.32 3.8,-1.9 -0.9,-1.85 -3.02,-2.84 -1.62,-0.26 0.53,-1.88 1.55,-0.07 1.85,-1.4 5.99,-2.17 0.46,-1.2 3.08,-1.6 1.23,-4.91 0.83,1.53 3.4,-0.03 0.81,-1.01 -1.23,-1.19 1,-1.51 3.98,-1.19 0.15,-0.64 -1.21,-0.66 -0.18,-1.62 2.83,-1.12 -0.5,-4.62 2.62,-4.1 0.27,-2.69 -0.91,-6.23 -2.5,-6.3 -2.05,0.76 -1.26,-3.24 -0.65,0.65 -3.71,-0.22 -0.71,1.75 -3.82,0.36 -1.97,-6.07 -3.04,-3.19 -0.45,-1.4 -1.73,-0.32 -1.2,-1.35 -1.01,-1.85 0.36,-2.05 2.66,-2.62 0.67,-2.18 2.35,-1.3 2.48,4.29 2.11,0.85 2.1,-0.65 1.08,-2.8 -0.39999,-0.95 3.68999,-2.11 3.59,-5.66 2.25,-2 -0.88,-5.67 2.64,-0.24 4.01,-2 z" 
                fill="rgb(151, 144, 238)" 
                stroke="white" 
                stroke-width=".7px"
                title="Moneragala" 
                id="LK-82" 
            />
        </svg>