<svg xmlns="http://www.w3.org/2000/svg" viewBox="106.00712999999996 77.050747 159.06000000000006 105.69000300000005" width="159.06000000000006" height="105.69000300000005">
            <path 
                d="m 196.48712,77.050747 8.96,7.44 -0.11,1.07 -0.78,0 -0.17,1.8 3.53,2.76 0.61,1.64 4.93001,1.8 -6.66,-6.09 -0.67,-2.09 14.27,13.71 9.97,7.330003 3.69,4 -0.34,0.56 1.23,0.34 1.23,3.95 4.53,7.33 4.31,13.97 3.69,7.15 -1.34,0.45 -0.9,-0.68 -0.22,-2.31 -2.63,-0.39 1.4,0.62 -0.28,2.14 1.79,2.31 -0.11,0.56 -1.34,-0.45 -0.45,2.03 1.51,-0.11 1.4,1.41 -0.73,-1.63 2.24,-3.21 9.69,17.52 6.33,9.91 -2.69,0.51 -4.93,-7.04 -4.93,-5.07 -1.85,-0.45 -0.78,1.18 0.45,1.13 -2.02,1.3 -0.73,-0.23 -0.22,1.75 2.24,2.53 3.36,1.52 0.39,0.96 0.62,0.06 0.28,-1.3 0.45,0.44 0.73,-0.61 0.06,-1.24 0.67,0.28 0.78,1.75 -1.79,2.59 2.01,-0.62 0.67,0 -0.17,0.47 0,0 -1.69,1.35 -1.83,-0.32 -2.32,1.4 -2.02,-0.26 -0.22,1.43 -2.67,0.95 -1.25,1.75 -7.04001,-0.35 -1.19999,1.18 -10.54,1.75 -1.8,2.06 0,0 4.28,-14.85 -13.98,-8.39 -6.54,4.21 -1.62,-0.19 -0.08,-1.96 1.91999,-1.89 1.06,-4.82 -1.88,-1.76 -2.86,1.7 -3.22,-0.7 -1.13,-7.87 -1.88999,-0.69 -0.6,0.91 -2.37,-1.61 -3.83001,-0.49 -4.37,0.06 0.63,3.08 -5.04,0.7 -6.03,6.35 -3.44,-0.1 -0.55,-3.46 -3.82,-4.86 -17.58,0.5 0.06,4.95 4.42,-0.03 1.53,12.34 -8.65,7.89 -10.23,6.5 0,0 -18.25999,1.51 -15.01,0.27 0.61,-0.96 -0.19,-3.3 2.61,-1.64 -0.21,-1.13 -2.59,-2.36 3.77,-9.98 5.07,-1.82 -0.79,-8.6 1.95,-3.23 -1.75,-6.08 -4.36,-6.67 -0.75,-12.42 0,0 5.32,0.65 0.42,-0.92 -1.34001,-7.74 4.06001,-3.72 1.38999,-0.48 4.74,-1.11 3.06,1.04 8.46,-2.17 14.85,1.51 2.32,-1.42 0.27,-6.39 21.87,-1.220003 0.41,-2.87 2.2,-3.72 0.46,-5.51 5.31,5.44 5.71,3.16 -0.5,-1.65 0.54,-1.09 -0.48,-3.94 0.48,-2.56 1.75,-1.86 0.92,0.56 2,-2.23 0.94,-3.6 -1.38,-1.09 1.13,0.7 0.65,-0.74 -0.33,-1.13 0,0 1.88,-0.7 z" 
                fill="rgb(151, 144, 238)" 
                stroke="white" 
                stroke-width=".7px"
                title="Mullaitivu" 
                id="LK-45" 
            />
        </svg>