<svg xmlns="http://www.w3.org/2000/svg" viewBox="157.91711999999987 519.1307500000001 107.61000000000004 105.38" width="107.61000000000004" height="105.38">
            <path 
                d="m 164.17712,568.61075 2.01,-1.8 3.16,2.27 1.69,0 -0.08,1.26 3.22,4.67 0.57,2.92 4.88,4.08 2.63,4.33 2.2,0.3 0.63,-1.27 2.17,0.19 -0.05,-3.03 2.38,-1.11 0.92,-4.21 1.75,-1.76 -2.53,-2.75 -0.99,-2.28 -2.08,-1.19 -2.66,-3.02 0.05,-1.54 -2,-3.44 -2.58,0.61 0.39,-2.31 2.63,-1.66 1.37,0.98 2.11,-1.05 1.28,1.54 9.92,-0.99 1.19,-1.22 0.97,-2.82 2.16,-0.74 3.08,0.23 2.82,1.64 2.22,0.2 1.76,-4.09 4.75,-5.28 1.78,-3.96 1.85,-0.62 6.39,-7.37 -0.94,-3.4 0.65,-1.5 -0.98,-0.85 0.43,-2.01 -1.18,-0.53 -1.58,-2.37 0.58,-0.67 -1.1,-3.13 0.35,-0.73 1.6,0.89 3.6,4.07 1.06,0.3 1.09,2.17 2.73,2.23 0.11,4.29 1.56,1.22 8.25,1.66 2.01,-0.82 1.24,0.45 2.6,-0.5 -0.01,1.8 0.91,0.98 2.74,-3.67 3.79,-0.71 5.99,0.42 0,0 -0.67,1.38 3.8,7.36 -0.12,3.01 -1.78,-0.59 -0.4,3.08 1.82,0.49 1.17001,1.3 -1.56,1.25 -1.16001,2.7 0.71,0.86 -0.33,1.4 2.41,2.51 -1.37999,0.71 -0.53,2.23 -2.93,1.78 -0.57,2.32 -1.82,0.94 -0.05,3.65 -1.9,5.88 -4.24,2.75 -1.38,-0.25 -3.37,0.97 -2.56,-0.9 -5.41001,4.51 -1.01,5.22 -2.86,2.17 -6.93,-0.49 -1.03,1.07 0.24,1.2 6.47,1.74 -0.32,1.52 1.22001,0.53 -0.54001,2.37 1.12,-0.44 1.34,1.11 -0.7,2.91 3.43,3.42 -1.19999,2.3 -1.44,0.71 -1.54001,-0.42 -0.57999,0.76 0.70999,1.86 3.97001,1.49 -0.58,1.84 -1.83,1.94 -2.15,-0.51 -1.25,0.74 0,0 -4.08,3.63 -2.99,-0.88 -5.96,4.04 -2.68,-1.03 -5.09,1.7 -2.46,-0.84 -6.65,-0.57 -0.36001,1.49 -1.11,0.68 -3.71,-0.43 -4.1,-1.22 -8.53,-0.91 -5.72,-2.36 -3.41,1.53 -3.19,-1.78 -2.15,-0.35 -2.49,-3.63 2.76,-2.39 -0.32,-0.61 -1.04,0.18 -0.69,-1.08 0.78,-3.19 0,0 1.58,-0.79 1.54,-2.39 -0.42,-1.07 -1.81,-0.91 -0.05,-1.65 -1.05,-1.26 0.62,-3.06 -3.62,-2.33 -4.03,-0.34 -1.07,-1.2 -4.38,-1.51 0.28,-1.68 0.63,-0.13 0.02,-6.69 1.6,-1.95 -0.31,-1.86 -2.35,-2.23 0.14,-1.39 0.91,-1.11 2.55,-0.24 3.45,-3.6 0.15,-1.44 -0.76,-0.02 z" 
                fill="rgb(151, 144, 238)" 
                stroke="white" 
                stroke-width=".7px"
                title="Nuwara Eliya" 
                id="LK-23" 
            />
        </svg>