<svg xmlns="http://www.w3.org/2000/svg" viewBox="221.87712999999997 302.56075 118.9600000000001 141.17999999999995" width="118.9600000000001" height="141.17999999999995">
            <path 
                d="m 257.04712,304.24075 1.38,-1.68 1.97001,0.54 2.25999,3.98 2.07,-0.17 3.59,2.27 1.75,7.97 2.05,0.09 3.7,-1.29 3.81,0.03 2.78,1.34 5.56,0.14 5.64,3.15 3.73,-1.42 3.07,0.44 5.41,5.3 1.31,-0.14 2.86,1.62 2.53,-0.81 1.01,0.9 0.35,2.29 -0.95,3.73 0.61,2.67 1.80001,0.9 -1.11001,3.06 -2.13999,0.85 -0.87001,1.81 3.02,0.48 2.21,-1.29 2.05,-0.48 0.48,0.47 0.61001,-3.81 0.47,-0.9 1.21,-0.1 -1.06,-3.08 1.11,-0.44 1.67,-2.74 -0.22,-3.26 1.23,0.21 0.45,-1.43 2.08999,-0.54 0.22001,-0.62 -0.88,-0.64 1.37,-0.04 0.17,-1.25 1.33,-0.47 0.24,-1.33 1.39,-0.96 4.42,1.7 0,0 0.83,2.61 -1.58,42.53 6.79,14.64 -0.01,3.96 -2.38,0.47 -2.35,-1.06 -1.73,0.59 -1.98,-1.74 -1.78,-0.11 -2.93,1.98 -2.4,-0.64 -1.97,0.74 -3.26,3.35 0.02,6.28 -1.62,2.55 -0.22001,1.82 0.74,1.17 0.24001,3.59 -1.56,4.05 1,5.73 -0.59,2.86 2.11,4.14 -0.07,2.44 0.84,1.87 0,0 -1.51,3.48 1.14,1.72 0.19,3.71 -0.76,1.46 0.56,1.63 -3.37,1.55 -0.36,3.73 -1.39,1.35 -3.23,-2.87 -9.27,-3.73 -1.38,0.68 -5.53,-2.76 -4.69,-7.13 -5.16,-1.13 -3.93,2.42 -5.08,-0.86 -2.68,0.97 -4.36,-0.69 0,0 -1.79,1.13 -7.59,0.5 -2.97001,1.08 -4.3,-1.53 -4.62,0.15 -1.34,7.16 -1.33999,-1.99 -1.9,0.35 -1.08,-0.63 -0.49,-2.06 -2.25,1.78 -1.01,2.22 -3.23,0.29 -2.34,1.65 -0.9,-1.6 -5.24,0.34 -3.58,-3.57 1.77,1.03 0.94,-2.31 -2.15,-6.48 0.42,-10.67 -0.95,-1.08 1.54,-2.05 2.58,-0.67 0.82,1.12 2,-0.97 -0.43,-2.5 1.79,-0.95 1.75,-6.06 -0.23,-2.17 1.96,-12.49 2.04,-3.12 0.86,-2.9 3.89,-1.71 -2.68,-1.92 -2.91,0.18 -1.03,-1.94 -1.14,-0.53 -3.17,1.4 -0.11,3.23 -2.15,-0.37 -1.91,-1.17 0.22,-5.37 -1.03,-0.76 -0.41,0.6 -0.25,-0.99 -3.02,-2.4 0,0 -1.29,-1.97 2.16,-3.28 -0.19,-1.27 3.53,-4.3 -2.99,0.13 -0.69,-0.68 -0.44,-7.01 0.57,-9.57 5.25,-10.83 0.48,-5.49 3.33999,-9.55 19.1,-0.5 2.47001,-9.21 z" 
                fill="rgb(151, 144, 238)" 
                stroke="white" 
                stroke-width=".7px"
                title="Polonnaruwa" 
                id="LK-72" 
            />
        </svg>