<svg xmlns="http://www.w3.org/2000/svg" viewBox="8.907124999999997 257.9707499999998 92.76000500000008 262.42000000000036" width="92.76000500000008" height="262.42000000000036">
            <path 
                d="m 25.957125,316.74075 1.34,1.63 -0.56,0.9 -1.23,-0.9 0.45,-1.63 z m -2.29,-5.59 -2.48,2.51 0.35,1.34 -0.5,0.45 1.06,1.07 -1.51,2.53 1.57,-0.79 -0.39,-0.9 1.06,-0.11 0.33,0.79 -1.06,2.3 -0.9,0.45 -0.22,1.46 -1.68,-0.73 -1.68,1.07 2.46,-8.54 1.73,-2.87 1.86,-0.03 z m 2.46,-15.1 1.79,1.91 -1.62,2.36 -1.51,5.51 -1.12,0.73 -0.11,1.85 -1.12,0.96 0.5,-2.59 1.96,-3.82 0.11,-3.88 1.12,-3.03 z m 1.57,-26.82 -1.23,3.54 0.67,3.82 1.68,0.73 -0.67,2.14 -2.18,-6.97 0.78,-3.04 0.62,-0.67 0.33,0.45 z m 27.82,-11.26 2.6,1.64 2.42,-0.68 1.64,1.49 2.22,0.43 1.9,-0.53 2.59,2.09 2.08,-0.46 2.21,2.33 4.14,1.44 0,0 2.15,5.96 -2.46,6.9 -3.02,4.62 -3,1.34 -2.49,2.42 0.48,1.41 -1.27,0.64 -1.34,2.58 -3.21,0.1 -1.33,0.83 -0.74,5.28 4.36,5.8 2.01,10.49 -0.46,1.64 2.89,5.19 0.74,5.43 5.4,0.41 2.18,-2.02 4.89,3.27 3.45,-0.54 1.58,2.3 1.94,0.62 0.62,1.96 0.74,0.34 0,0 0.5,2.85 -1.09,2.93 1.67,3.58 1.43,6.87 0,3.48 2.61,3.86 3.790005,1.22 1.33,1.27 -1.29,4.54 0.47,5.1 -1.170005,2.7 1.300005,1.57 -3.420005,6.31 3.130005,4.95 -0.890005,0.97 -2.59,0.78 -2.21,-2.51 -1.45,-0.66 -1.12,0.46 -0.02,3.75 -1.48,0.72 -0.3,2.17 -1.3,-0.49 0.33,-0.91 -4.5,1.47 0.37,4.64 -1.63,0.96 0.01,2.72 -2.33,-0.2 -0.73,1.39 -1.69,-0.03 -0.81,1.61 0.63,0.13 -0.59,2.73 -3.67,1.12 -0.55,1.02 -2.21,1.07 1.49,2.82 -3.13,1.01 -0.54,2.93 1.3,3.85 -1.66,3.33 0.54,1.57 1.14,0.48 -0.23,1.23 -4.01,2.32 -1.18,2.16 -2.75,1.01 -1.01,-0.5 -0.68,1.52 0.45,2.03 -2.92,1.5 2.83,0.04 1.97,1.63 -0.81,2.32 -2.22,-0.24 -0.38,-1.2 -0.84,0.83 -1.51,-0.47 -1.03,0.78 -0.06,2.39 -1.6,1.31 0.42,0.72 1.35,0.12 0.44,1.04 -2.21,0.41 -0.5,2.47 -2.13,1.39 -0.81,1.49 0.26,5.12 -1.26,2.45 0.69,14.31 0.85,6.41 5.99,26.89 0.72,14.6 0,0 -3.12,-1.68 -0.31,0.95 -1.99,0.3 0.05,1.46 -1.56,0.46 0.51,-2.67 -0.95,0.95 -1.09,-1.05 -0.4,1.14 -1.67,0.26 -2.55,-1.86 -2.88,2.66 -1.46,-1.4 -0.84,0.79 -1.33,-0.1 0,0 -0.72,-1.07 -4.09,-23.55 -3.58,-14.08 -2.74,-15.48 -0.56,-12.85 3.42,-1.57 -0.9,-0.22 -0.11,-17.34 -3.3,-17.85 -7.78,-31.05 -7.39,-23.14 0.17,-7.86 -1.01,-3.37 0.5,-11.12 -1.68,-4.27 -0.66,-4.39 1.22,0.12 3.86,-1.97 1.36,-1.75 2.79,-0.38 5.88,-6.52 1.91,0.33 -2.47,3.89 1.12,2.98 -0.28,1.86 -1.4,0.17 -0.06,-0.96 -1.12,-0.67 -3.75,4.61 0.34,1.46 1.96,2.19 -1.18,1.46 0.62,2.25 -1.34,1.46 -0.36,2.83 -1.12,0 -0.95,1.46 -0.22,2.75 1.97,3.03 -1.02,4.78 1.57,2.81 3.25,1.52 -2.74,1.91 0.67,3.93 -1.79,3.76 1.96,4.32 4.76,2.19 9.07,1.29 1.9,-0.62 -0.06,-0.73 1.57,0.17 0.9,-2.7 -0.06,-1.01 -0.78,0.11 0.73,-2.75 -0.39,-1.29 -2.58,-3.93 -5.43,-5.06 -0.9,-2.22 0.84,0.93 1.29,-0.39 -0.11,-1.12 -1.68,-0.51 -0.22,-1.12 2.57,0.39 2.46,-2.75 1.12,-2.92 -0.06,-1.97 2.91,-1.4 0.11,-1.91 -0.95,-1.35 0.67,-1.01 -1.29,-1.69 -1.68,-0.67 -0.11,-2.19 0.5,-0.22 -1.01,-1.52 1.68,0.11 -0.84,-4.55 -1.9,-2.25 -2.29,-1.4 2.18,-0.56 -1.74,-1.57 -2.13,0.56 -0.34,-0.73 4.31,-0.9 1.68,-7.02 1.67,-2.99 1.19,-0.49 0.11,-1.24 1.34,0.51 -1.12,-2.47 0.56,-1.63 -0.67,-1.18 0.62,-0.28 -1.06,-0.56 1.57,-1.91 -0.17,-2.47 1.51,-1.18 -0.67,-14.67 0.84,-3.2 3.53,-2.7 -0.62,-3.37 0.73,-1.69 -0.11,-3.94 1.27,-7.99 0.74,-0.61 0.45,0.67 1.79,-0.06 4.2,-2.31 1.85,-0.11 0.78,-2.98 0.9,-0.43 z" 
                fill="rgb(151, 144, 238)" 
                stroke="white" 
                stroke-width=".7px"
                title="Puttalam" 
                id="LK-62" 
            />
        </svg>