<svg xmlns="http://www.w3.org/2000/svg" viewBox="106.45714 588.2407499999999 156.32999 141.7099999999997" width="156.32999" height="141.7099999999997">
            <path 
                d="m 113.12712,590.95075 1.82,-0.76 0.97,-1.95 0.51,1.34 0.82,0.06 0.53,4.25 1.58,-0.89 1.96,1.2 3.63,5.49 2.69,0.85 0.56,2.95 2,0.06 0.48,-0.85 2.74,-0.6 1.63,1.43 1.98,3.82 2.38,1.25 1.64,-0.9 -0.14,-1.45 1.9,-1.6 4.47,-0.94 0.7,0.95 1.17,-0.07 2.26,-1.96 4.27,2.88 0.56,1.13 1.21,-0.45 0.4,-1.21 1.79,1.26 0.24,1.17 1.92,0.59 1.35,-0.75 3.85,1.19 3.74,-0.17 0,0 -0.78,3.19 0.69,1.08 1.04,-0.18 0.32,0.61 -2.76,2.39 2.49,3.63 2.15,0.35 3.19,1.78 3.41,-1.53 5.72,2.36 8.53,0.91 4.1,1.22 3.71,0.43 1.11,-0.68 0.36,-1.49 6.65,0.57 2.46,0.84 5.09,-1.7 2.68,1.03 5.96,-4.04 2.99,0.88 4.08001,-3.63 0,0 0.62,1.32 -0.79001,2.59 0.86001,2.14 -0.29001,1.26 3.12,-1.21 1.55,3.26 3.99001,-0.18 0.69,1 0.09,1.03 -1.62,1.26 0.92,2.16 -2.49,0.14 -6.18,3.04 0.08,1.18 2.68,1.65 0.84,4.02 3.6,0.61 1.98,1.83 1.26,-1.63 0.59,0.73 2.86,-0.35 1.26,-0.45 0.75,-1.95 3.45,-0.57 1.52,-2.05 -0.07,-1.23 2.62,1.45 0,0 -3.09,3.17 -1.82,4.28 -0.01,2.34 -2.64,1.53 -1.07,2.67 -1.94,1.52 0.60001,0.9 -0.39,2.47 -1.42,0.22 0.58,2.2 -1.29001,0.51 0.18,1.09 -1.24,2.73 0.56,2.16 -2.01,3.61 -2.86,3.1 -2.33,5.3 3.06,6.85 -0.75,1.37 0.21,1.55 -0.83999,0.23 1.31999,1.31 -0.97,1.41 1.3,4.02 -1.13,1.06 1.7,3.14 1.21,0.52 0.45,1.92 1.42,0.87 0.58,2.57 6.38,1.55 1.2,1.09 -0.12,1.31 1.39,0.97 -0.55,2.12 2.69,5.28 0,0 2.44,2.21 0.59,2.73 1.27,0.14 0.25,2.57 2.06,3.84 -2.62,2.18 -1.74,-2.44 -4.17,0.4 -3.59,-2.22 -2.13,0.55 -2.58,-4.1 -2.27,-1.06 -6.71,1.32 -5.37,-0.33 -5.45,-2.53 -2.26,-0.3 -5.51,-3.11 -4.15,-0.85 -1.58,-1.15 -6.84,0.09 0,0 -0.07,-2.56 1.1,-0.62 -0.87,-1.03 -1.28,-0.07 -1.46,-1.99 1.23,-0.52 -0.41,-2.82 -6.03,0.46 -4.08,1.13 -0.93,-2.78 2.21,-2.3 -0.38,-2.03 0.9,-1.13 -0.25,-1.91 -4.4,-0.26 -3.67,1.39 -2.71,-0.74 -2.1,0.97 -1.07,-1.34 -0.88,0.31 -0.12,1.11 -2.18,0.18 -0.02,2.8 -7.75,1.35 0,0 -0.86,-2.52 -3.82,0.38 -1.38,-1.56 -2.81,-0.35 -2.17,-1.4 -1.81,1.07 -2.51,-0.61 -7.49,-6.75 0,0 -1.51,-3.83 -14.04,-19.33 0.11,-0.84 -2.21,-3.47 2.96,-1.83 0.87,0.2 -2.1,-5.15 -4.22,-4.38 -4.42,-0.86 -1.03,-1 -1.22,-2.44 0.5,-1.7 -0.44,-2.18 -1.52,-2.44 -2.98,-1.74 -1.06,-2.1 -1.28,-0.49 -1.14,-3.84 -2.16,-3.32 0.02,-0.79 1.26,0.27 0.08,-0.63 -2.72999,-5.55 -0.04,-4.53 -1.92,-2.58 -0.89,-2.48 0.34,-1.11 0,0 3.79,-0.02 0.84,-0.76 -0.07,-2.9 -1.51,-3.84 -0.96,-1.06 -2.61,-0.62 0.89,-1.71 0.43,-3.8 1.42,-1.26 0.02,-1.35 1.08,-0.97 0.97,0.12 -0.27,-0.95 z" 
                fill="rgb(151, 144, 238)" 
                stroke="white" 
                stroke-width=".7px"
                title="Ratnapura" 
                id="LK-91" 
            />
        </svg>