<svg xmlns="http://www.w3.org/2000/svg" viewBox="222.63712999999996 171.78074999999987 131.17000000000013 170.51000000000008" width="131.17000000000013" height="170.51000000000008">
            <path 
                d="m 257.67712,171.78075 -2.41,2.35 1.79,1.75 1.23,-0.17 -0.77999,1.58 -3.13001,-1.35 -1.12,0.51 0.73001,2.08 -0.56,1.75 1.18,-0.62 0.56,3.27 1.57,-0.45 0.17,1.13 1.12,-1.3 1.57,2.14 1.46,0 0.78,-2.03 -0.61001,-0.62 -1.12,0.51 0.16001,-0.74 2.58999,-1.73 0.56,0.68 1.75,-0.51 -0.35,-2.36 -1.51,-1.41 2.41,-3.27 6.05001,8.95 1.23,1.13 0.9,-0.62 0.73,1.24 0.51,3.96 -1.86001,1.67 1.79001,-0.56 0.77999,0.62 0,-2.87 3.19,6.31 5.26,5.24 1.86,0.85 0.55001,1.4 0.88999,-1.29 -1.29,-0.68 2.24,-1.69 -0.5,1.35 1.06,0.56 0.62,-0.45 -0.32999,1.24 1.29,1.35 0.17,2.76 5.43,8.33 -0.62,0.56 0.67,0.45 0.62,-0.68 3.19,4.28 1.29,0.84 0.67,-0.39 2.3,4.45 3.14,2.64 -0.39,0.9 -1.23,0.39 -0.95,2.59 2.74,-3.26 5.82,10.97 4.25,4.67 -0.62,2.98 0.9,2.08 -1.51,1.63 0.06,2.42 1.85,4.73 1.29,1.46 1.01,0.34 1.12,-1.35 -0.22,1.52 -1.01,0.22 -0.39,0.9 1.85,1.97 0.11,2.87 -1.62,0.56 -1.4,1.52 -1.12,0.06 -0.06,-1.01 1.12,-1.42 -1.51,0.86 -0.56,-0.51 2.52,-3.21 -1.23,-2.31 -0.84,-0.62 -3.25,2.19 0.5,-1.46 2.24,-2.02 -0.56,-0.34 -3.14,3.21 0.11,-1.57 -0.96,-0.4 0.34,1.24 -1.62,-0.06 1.17,0.73 -1.29,1.41 0,1.46 2.69,-0.39 -0.06,0.84 -2.18,0.62 0.11,0.73 1.06,-0.17 0.56,0.67 -0.78,0.56 1.29,0.84 -0.9,0.34 0.11,0.96 0.78,0.34 0.84,0.28 -0.39,1.52 0.67,0.22 0.39,1.74 -1.45,-0.17 -1.4,0.9 -1.23,-0.39 -0.39,-1.01 -1.12,-0.17 0.67,-3.54 -0.84,-1.07 -0.78,-0.06 0.22,0.96 -0.79,1.18 -2.18,-2.7 -2.69,-1.18 -1.12,2.08 0.28,0.73 -3.13,3.82 -2.41,0.67 0.5,2.25 2.69,1.86 1.34,-0.96 1.12,-2.7 4.03,-1.46 4.2,1.63 0.56,3.88 1.57,2.7 -0.78,1.35 0.17,0.45 0.78,0.73 0.34,0.11 0,-1.74 3.69,1.69 1.51,0.01 0.17,-0.46 4.65,0.11 0.5,-0.06 4.48,-0.45 1.96,-3.94 -1.46,-4.67 4.2,-0.34 2.13,-1.12 0.9,-2.08 1.12,0 1.57,2.19 4.87,3.82 -0.11,2.42 1.51,3.99 3.7,16.42 1.23,3.2 1.57,1.57 -0.67,0.56 -1.01,-1.24 -1.23,0.34 -1.85,-3.88 0.9,2.19 -0.45,0.9 1.12,1.52 -0.33,1.12 0.9,-1.07 1.57,-0.23 -0.05,5.62 3.3,13.51 0,0 -0.8,2.83 -1.4,-0.33 0.41,-0.85 -0.75,-1.4 -1.22,0.63 -0.01,0.95 -1.54,-0.59 -0.74,0.81 -2,-0.78 -0.95,0.46 -1,-0.5 0.46,-1.62 -0.81,-0.62 -1.87,1.02 -3.08,-0.27 -3.65,2.38 0,0 -4.41,-1.7 -1.39,0.96 -0.24,1.33 -1.33,0.48 -0.17,1.25 -1.37,0.04 0.88,0.64 -0.22,0.62 -2.08,0.54 -0.46,1.43 -1.22,-0.22 0.22,3.27 -1.68,2.74 -1.11,0.44 1.06,3.08 -1.21,0.11 -0.47,0.9 -0.61,3.81 -0.48,-0.48 -2.05,0.49 -2.21,1.29 -3.02,-0.48 0.87,-1.81 2.13,-0.85 1.11,-3.06 -1.8,-0.9 -0.6,-2.67 0.94,-3.73 -0.35,-2.29 -1.01,-0.9 -2.52,0.81 -2.86,-1.62 -1.32,0.14 -5.41001,-5.3 -3.06999,-0.44 -3.72001,1.42 -5.64,-3.15 -5.56,-0.14 -2.77999,-1.35 -3.81,-0.02 -3.7,1.28 -2.05,-0.08 -1.75,-7.97 -3.59,-2.27 -2.07,0.16 -2.26,-3.98 -1.96,-0.54 -1.38,1.68 0,0 1,-4.2 -0.37,-3.2 1.18,-3.26 1.63,-1.59 2.53,-8.45 1.84,-2.96 1.96,-1.27 -0.19,-1.72 2.26999,0.1 1.61001,-1.36 0,0 -0.94,-2 -1.88,-0.1 0,0 -2.75,-0.1 0.01,-2.63 -3.24,-1.79 -0.66,-8.98 -5.42,-6.68 -0.25,-4.11 -4.42,-3.4 0.64,-1.74 -1.14,-1.44 0.39,-1.71 1.32,-3.34 2.77,-2.2 -0.06,-1.53 -0.36,-1.67 -4.07,-6.75 -0.18,-4.23 -1.69,-0.71 -0.68,-1.17 0.15,-3.2 0.72,-4.06 3.6,-5.63 2,-1.46 0.34,-2.69 -0.75,0.08 -3.59,-4.26 -0.76,-2.42 -3.19,-2.57 -3.62,-0.99 -8.3,-5.72 -5.54,-1.08 -6.4,3.13 0,0 1.83,-6.28 0.74,-0.15 0,0 1.8,-2.06 10.54,-1.75 1.2,-1.18 7.04,0.35 1.25,-1.75 2.67,-0.95 0.22,-1.43 2.02,0.26 2.32,-1.4 1.83,0.32 1.58,-1.37 z" 
                fill="rgb(151, 144, 238)" 
                stroke="white" 
                stroke-width=".7px"
                title="Trincomalee" 
                id="LK-53" 
            />
        </svg>