<svg xmlns="http://www.w3.org/2000/svg" viewBox="105.21711999999998 144.32075000000006 124.18001000000005 117.58999999999989" width="124.18001000000005" height="117.58999999999989">
            <path 
                d="m 139.31712,178.23075 10.23,-6.5 8.65,-7.88 -1.52,-12.34 -4.42,0.02 -0.07,-4.94 17.59,-0.5 3.82,4.86 0.55,3.46 3.44,0.1 6.03,-6.35 5.04,-0.7 -0.64,-3.07 4.37,-0.07 3.83,0.5 2.37001,1.61 0.59999,-0.91 1.88,0.69 1.13,7.87 3.22,0.7 2.86,-1.7 1.88,1.76 -1.06,4.82 -1.91999,1.89 0.08,1.96 1.62,0.19 6.53,-4.21 13.99,8.39 -4.29,14.85 0,0 -0.73,0.16 -1.83,6.27 0,0 -5.45,1.46 -2.85,-0.12 -3.97,1.87 -4.96,3.63 -4.34,0.68 -10.21,-0.33 -0.61,4.42 1.46,0.99 5.54,1.2 2.04,4.39 2.84,2.44 0.02,2.62 -3.52,2.13 -2.05,2.65 -1.06,2.88 -3.48,1.67 -2.4,4.51 -3.16,1.09 -0.74,3.31 -3.89,2.49 -1.06,1.69 -3.07,1.41 -2.11,2.84 -2.61001,0.07 -7.61,-5.37 -3.56,-1.53 -4.75,3.92 -0.72,-0.17 -0.46,2.42 -2.29,0.51 -2.24,5.15 -3.71,2.49 -0.42,2.13 0.77,1.85 -0.83,0.92 0.27,2.8 -2.09,1.77 -3.59,0.45 -2.86,5.42 -4.86,-0.94 -5.04,-2 -0.76,-4.18 -1.00999,-0.69 0.41999,-1.16 -0.69999,0 -0.89,-2.09 0.11,-2.09 -2.98,-1.43 -1.96,0.38 -1.87,-2.58 -0.7,-0.02 0.37,-1.69 -1.12,-2.99 0.91,-2.28 -0.52,-3.45 0,0 -2,-2.01 -0.87,-2.1 -1.08,-0.32 -0.55001,-1.38 -2.03,-1.61 -1.77,-3.33 -4.7,-3.11 1.40001,-5.22 4.06999,2 1.86001,-4.93 4.52,-7.87 13.64999,1.54 4.05001,-2.09 10.84,-1.9 4.55,-1.85 1.73,-1.59 -0.39,-3.81 -2.91,-6.34 -1.01,-5.63 -2.46,-2.53 z" 
                fill="rgb(151, 144, 238)" 
                stroke="white" 
                stroke-width=".7px"
                title="Vavuniya" 
                id="LK-44" 
            />
        </svg>