<svg xmlns="http://www.w3.org/2000/svg" viewBox="521.7475 411.03261000000026 458.45000000000016 278.79999999999967" width="458.45000000000016" height="278.79999999999967">
            <path 
                d="m 927.8775,615.41261 -0.13,1.36 2.35,1.27 -0.05,0.58 1.56,1.26 2.54,5.86 1.71,1.26 1.56,0.11 0.96,1.31 2.79,1.03 1.23,2.23 5.22,2.1 1.9,1.89 1.11,0.48 3.56,-1.31 1.24,1.19 1.5,3.91 4.39,4.18 2.93,1.19 2.44,2.62 4,2.51 3.68,1.03 0.46,0.71 2.65,-0.18 1.02,0.79 0.1,1.6 1.18,0.19 -0.3,1.46 0.47,1.04 -1.11,0.67 -0.56,1.78 0.23,1.27 0.13,1.24 1.44,2.67 -0.43,0.57 0.55,1.47 -0.87,1.89 -1.79,1.63 0.26,1.81 -0.18,1 -1.45,0.17 -0.55,2.32 -1.96,1.77 0.41,1.66 1.18,1.34 -0.62,1.54 0.48,1.45 -1.93,1.55 -3.28,4.68 -1.46,0.27 -3.81,-1.58 -3.22,-0.17 -8.02,-2.23 -3.96,-2.69 -1.48,0.09 -5.35,-4.1 -5.77,-2.54 -1.6,0.32 -5.19,-3.11 -2.48,0.35 -4.42,-2.67 -2.8,-3.79 -1.97,-0.49 -1.34,-1.74 -1.28,-0.61 0.23,-0.51 0.73,-0.55 -0.61,-1.07 -1.58,0.6 0.59,-1.45 1.75,-0.88 0.39,-1.73 -0.48,-1.86 1.13,-2.08 -0.18,-9.73 -0.72,-3.06 0.55,-0.88 -0.43,-2.25 1.44,-6.41 5.66,-11 0.67,-2.25 -0.74,-1.03 -0.05,-1.34 2.98,-2.87 0.8,0.89 z m -282.29,-81.02 -0.77,-2.66 0.74,-0.37 -0.51,-0.97 0.12,-0.46 0.46,-0.29 -0.01,-2.3 0.77,-0.83 -0.34,-0.87 0.41,-0.83 0.75,0 1.68,-0.19 0.74,-1.13 1.11,1.36 0.37,1.57 0.19,4.79 0.5,0.37 -0.17,4.07 0.91,0.64 -0.68,1.11 1.33,1.36 -1.71,0.97 -2.48,-0.01 -0.41,-1.9 -1.06,-0.76 0.09,-0.99 -1.53,0.43 -0.56,-1.11 0.59,0.25 0.09,-0.89 -0.62,-0.36 z m -17.36,-14.44 2.66,-0.83 0.42,0.68 -2.09,1.64 1.36,2.44 0.39,-0.23 -1.18,-2.08 1.47,-1.11 0.5,1.13 -0.89,1.13 1.67,-0.85 0.57,0.91 -1.38,1.8 -0.68,-0.8 -0.45,0.23 0.22,1.6 1.33,3.15 0.92,0.83 0,1.31 1.19,1.13 -0.36,0.92 2.94,0.31 0.72,0.95 0.07,3.74 -1.6,2.24 0.7,2.6 0.99,0.36 -0.71,0.44 0.44,0.44 -2.21,1.59 -4.44,1.32 -1.94,2.59 -3.61,2.78 -3.88,-1.31 -0.95,-3.49 -2.22,0.49 -1.76,-1 -2.21,-4.3 -0.45,-3.52 3.59,-5.49 2.42,-2.35 2.19,-5.04 1.6,-2.15 2.28,-1.98 0.75,-1.46 0.41,0 0.13,-1.25 0.16,-0.47 0.2,-1.53 2.31,-0.04 0.48,0.82 -2.07,1.71 z m -86.96,-55.61 1.19,0.23 1.39,-0.67 2.77,1.95 0.32,1.73 -2.12,2.51 -0.38,1.43 -0.98,0.6 -0.48,4.59 0.54,1.19 3.94,1.77 0.92,3.35 0.27,5.45 1.96,1.38 -1.57,0.85 -0.08,1.8 0.41,0.72 1.03,-0.23 1.03,-0.07 -0.8,3.15 2,4.39 -0.49,1.54 -1.14,0.91 0.17,0.69 0.95,0.28 -0.43,0.76 0.16,2.32 0.5,0.46 -0.38,2.05 -0.94,-0.88 -1.17,0.08 -0.99,0.93 -0.9,0.35 -1.09,0.09 -1.59,1.4 -0.96,-0.21 -0.09,-2.89 -1.42,0.69 -0.76,-2.17 -1.32,2.58 0,0 -6.81,-3.72 -3.72,3.42 -4.05,-1.59 0,0 -2.62,0.33 -0.09,-3.86 -0.78,0.31 -0.64,-1.27 0.96,0.15 0.74,-1.66 0.86,-8.36 1.98,-1.27 -0.12,-3.07 4.89,-1.59 1.15,0.95 2.72,-1.22 1.09,-1.55 1.55,-5.81 -2.08,-4.81 -1.59,-0.84 -0.6,-1.58 0.26,-2.68 -4.03,-6.52 0.51,-4.82 8.12,2.02 2.83,3.94 z m 44.94,-52.37 2.51,0.99 2.92,0.42 4.99,4.57 3.33,0.44 3.54,1.57 2.98,-0.39 5.78,0.85 5.75,2.85 9.19,8.89 2.49,1.15 -0.28,0.57 -1.04,-0.15 0.15,1.34 -1.09,1.1 -1.52,3.65 -4.54,4.32 -2.58,5.64 -2.44,7.99 -0.69,1.24 0.04,1.56 -0.78,1.66 3.52,8.56 0.38,1.29 3.73,8.36 0.67,8.92 1.36,1.91 1.21,3.88 -0.49,3.36 1.22,3.67 -2.88,6.73 1.04,1.21 -0.36,0.53 -0.12,2.28 0.86,0.75 0.7,-1.7 0.63,-0.21 0.3,-1.26 2.88,1.94 -0.74,0.57 0.54,0.26 -1.4,1.15 -2.13,-0.71 -0.1,0.6 0.94,0.71 -1.43,0.27 0.33,0.75 0.09,1.76 0.54,0.03 0.26,1.19 -0.93,2.89 -4.35,3.87 0.17,0.76 -0.1,0.25 -0.62,1.48 -0.74,1.35 -0.83,-0.94 -0.54,0.38 0.16,1 0.47,-0.46 0.73,0.36 -0.77,1.22 -0.22,0.48 -2.04,1.81 0.05,-1.49 -3.1,0.86 -0.37,-0.36 -1.75,3.97 0.56,1.03 0.8,0.19 -1.78,3.46 -5.91,-0.89 -0.36,-1.25 -0.11,-0.51 -4.53,-0.41 -1.62,0.45 0.08,-0.61 1.24,-0.21 4.78,0.58 -0.31,-0.74 -5.54,-0.24 -0.61,1.26 -0.36,-0.8 -1.62,0.38 -0.78,0.9 0.15,0.36 0.67,-0.61 0.35,0.24 0.6,-0.38 0.17,0.79 0.79,-0.32 0.33,0.61 -5.04,3 0,0 -0.92,-0.81 0,0 -0.19,-0.23 0,0 -2.5,-2.34 -7.09,-2.26 -1.35,-1.23 -4.58,2.02 -1.11,-1.75 -2.74,0.83 -0.79,3.21 -6.89,-2.02 0.99,-5.23 -1.34,0.07 0.14,-3.76 -1.07,-5.32 4.85,-4.21 3.68,0.25 5.36,-5.19 -5.03,-4.51 1.14,-3.08 0.63,-0.2 -2.56,-2.57 -5.77,0.91 -2.4,-2.34 -2.93,-1.32 -2.74,-3.17 -2.68,-1.51 0,0 -2.19,-1.4 0.67,-3.11 -1.39,-2.29 -0.72,-4.85 -0.77,0.16 -0.92,-1.69 0.35,-0.47 -0.4,-1.39 -1.18,-0.46 0.64,-3.43 2.45,-0.51 0.35,-4.31 -1.55,-2 -1.26,-3.54 0.23,-3.57 -1.2,-3.73 -2.32,-4.2 -0.65,-3.22 -0.95,0.13 -0.95,-0.33 -0.98,-0.93 -1.13,-0.19 -1.7,-0.44 -3.78,2.1 -0.74,1.27 -1.51,0.82 -5.89,2.01 -2.7,-0.8 -0.68,0.11 -0.05,0.72 -1.71,-1.08 -1.37,-5.16 1.66,-2.39 5.17,-2.8 16.03,-10.64 7.41,-6.98 16.2,-12.08 2.33,-1.25 12.57,-3.98 1.47,0.36 1.66,-0.41 -0.04,0.94 z" 
                fill="rgb(151, 144, 238)" 
                stroke="white" 
                stroke-width=".7px"
                title="Hovedstaden" 
                id="DK-84" 
            />
        </svg>