<svg xmlns="http://www.w3.org/2000/svg" viewBox="3.82749940000014 231.60260999999986 492.9300005999999 292.89000000000027" width="492.9300005999999" height="292.89000000000027">
            <path 
                d="m 312.0275,499.69261 -0.81,5.47 -0.4,0.75 -1.65,0.7 -3.66,-1.62 -4.69,0.31 -1.68,-1.21 -0.03,-0.92 1.95,-1.51 3.52,0.62 3.61,-1 -0.44,-1.62 1.25,-1.96 -0.3,-1.12 1.02,-2.82 1.4,2.54 0.91,3.39 z m -33.11,-14.73 0.9,0.05 0.88,1.08 -1.23,1.44 -1.42,0.44 -1.1,-0.14 -1.51,-1.03 -0.88,-2.06 2.31,-1.05 2.05,1.27 z m -252.350001,-14.98 1.03,1.14 -0.23,0.54 -1.22,-0.71 -1.37,0.1 0.19,-1.61 1.6,0.54 z m 302.890001,-14.23 -2.18,1.21 -1.28,-0.32 -2.1,-1.55 -1.56,-2.14 1.16,-0.29 7.15,2.18 -1.19,0.4 0,0.51 z m -321.1500006,-13.26 0.42,0.26 -0.39,0.73 0.42,2.7 1.5499996,2.2 -0.3,0.99 1.34,2.66 0.21,1.79 2.01,1.56 -0.15,1.44 -0.04,0.85 -0.3,3.06 0.99,0.86 -0.26,2.2 0.36,1.02 -0.14,1.68 -0.6,0.75 1.83,4.71 -0.61,2.13 0.78,1.39 1.63,1.07 -3.09,4.77 0.22,4.72 1.93,1.96 0,0 -2.6,0.48 0,0 -2.33,-14.9 -2.0099996,-19.71 -1.15,-5.62 -2.1,-5 2.38,-0.75 z m 338.8700006,13.89 3.2,4.14 1.87,1.01 4.58,2.07 0.06,0.48 -1.2,0.96 -1.89,-0.87 -1.72,0.28 -1.09,1.34 1.11,3.88 1.73,0.56 -0.65,1.08 0.96,1.75 1.01,0.47 0.61,0.47 4.62,-2.31 0.25,3.11 -2.81,2.7 -2.46,5.51 -0.47,4.88 0.82,1.98 -0.14,3.1 -1.05,3.24 -1.28,1.75 -0.69,2.99 -5.64,-1.33 -3.96,0.23 -1.96,-2.19 -1.29,-4.1 -0.37,-7.06 0.61,-6.93 2.6,-2.98 3.89,-0.33 0.94,-0.9 1.36,-3.14 0.98,-6.19 -0.83,-2.97 -2.18,-2.85 -3.02,-1.92 -2.9,0.4 -0.95,-1.56 -1.1,-5.47 0.17,-3.5 5.48,-5.8 1.32,10.41 1.48,3.61 z m -266.590001,-158.14 -0.73,1.11 -0.68,-0.49 -0.83,0.37 0.24,1.24 1.33,0.66 -2.48,4.28 -0.4,2.85 0.82,1.59 0,2.67 -2.29,2.57 -0.45,-0.27 1.84,-2.3 -1.2,-2.36 0.04,-1.91 -1.29,-3 3.77,-6.79 2.31,-0.22 z m -10.06,-26.79 1.1,2.15 -1.37,1.32 -0.65,3.62 -0.92,1.42 2.01,3.21 1.55,0.65 0.76,-1.13 -0.37,-1.62 -1.85,-0.76 0.5,-0.25 0.4,-2.12 1.49,0.39 1.32,-0.62 2.61,1.23 1.47,-0.71 -0.48,1.99 -1.22,1.77 1.01,1.61 -0.73,2.85 1.11,2.08 -3.89,-3.81 -2.09,-0.23 0.16,3.13 -0.67,4.83 -0.64,1.01 -5.22,0.17 -2.69,1.77 0.11,1.67 2.62,1.03 0.97,0.8 -0.51,0.33 -3.44,-0.73 -0.88,-1.6 -1.01,-0.53 -0.52,-2.68 -1.25,-1.29 -1.37,-5.59 -1.27,-1.67 -1.93,-1.06 -1.4,-2.26 -2.24,-1.6 -2.28,-2.68 -3.08,-1.53 0,0 0.16,-1.37 0,0 1.25,0.24 0.41,0.98 1.17,0.11 2.55,-2.46 3.53,-1.17 2.11,0.54 -1.11,0.01 -0.07,1.41 0.98,1.32 2.06,1.35 1.18,-0.11 2.9,-1.89 1.57,-2.21 1.69,0.1 0.77,-1.33 2.37,0.77 0.73,-1.5 0.49,-0.03 0.04,0.68 z m 424.410001,-12.41 1.82,0.46 -6.39,4.56 -4.22,5.94 -1.56,1.22 -3.06,0.55 -1.94,-0.5 -2.21,-4.55 -1.29,-2.06 -0.75,-0.28 3.37,-2.44 4.43,0.83 11.8,-3.73 z m -357.47,-16.39 6.36,4.32 -0.75,1.85 0.5,2.28 2.83,7.3 5.58,6.65 0.48,1.46 -3.89,2.35 -1.73,2.13 -1.93,3.15 -0.38,2.72 -2.85,-0.24 0.39,5.21 0.72,0.94 -1.98,-0.36 -1.02,0.54 -4,3.91 -1.25,4.04 -0.41,4.52 0.3,1.92 0.9,2.31 0.52,1.5 -0.39,0.82 0.61,1 -0.92,0.36 1.07,1.27 2.56,-0.02 2.18,-3.1 0.7,-2.48 -1.03,-2.66 0.77,-3.35 2.75,-1.25 1.23,1.73 1.59,0.32 2.23,-2.53 0.02,-2.25 -3.48,0.7 -2.24,-1.07 3.78,-3.39 1.92,-5.37 0.66,0.85 -0.04,1.61 -0.67,0.68 -0.12,1.83 1.18,2.3 1.65,1.16 2.07,0.16 3.44,-2.25 1.9,0.69 5.49,-0.28 -0.83,0.36 0.61,0.98 1.32,-0.61 1.73,0.84 1.49,3.21 -0.68,-0.05 -0.42,1.26 0.37,0.5 -3.93,2.69 -0.67,-0.35 -0.28,2.58 -1.3,2.21 1.36,0.61 0.73,3.98 1.94,2.86 2.93,2.65 1.78,0.05 -1.08,1.46 -0.08,1.79 1.01,-0.31 -0.06,-0.85 4.1,-3.9 2.41,0.67 1.31,1.02 0.87,-0.31 -0.56,-4.09 0.33,-2.57 0.9,-1.21 -0.92,-0.34 -1.43,0.45 -2.66,2.13 -4.08,1.45 -1.72,-0.3 -1.34,-2.76 1.45,-7.92 0.08,-1.57 -0.84,-0.92 1.44,-0.64 1.19,-2.03 0.46,-2.17 -0.33,-2.35 1.16,-1.43 0.64,-3.07 -0.74,-5.01 0,0 4.77,0.2 1.56,2.2 4.24,-0.69 -0.16,2.99 4.96,3.53 3.43,0.63 3,-9.47 2.12,-0.16 0.42,-1.79 4.13,0.44 0.52,0.32 -0.87,1.94 0.59,0.54 0.83,-0.39 0.18,1.11 0.55,-0.12 0.45,0.94 -1.8,1.7 0.39,1.45 5.1,0.61 -0.56,3.36 4.58,1.56 3.97,-0.77 6.18,0.88 0.76,3.54 -4.37,1.49 -0.13,7.14 4.67,-2.55 4.94,1.25 5.22,7.45 6.24,-1.56 5.12,2.8 6.39,-1.41 0.48,-3.44 0.83,-1.12 2.13,0.16 6.23,-1.87 1.46,-3.92 2.67,1.43 8.75,-2.68 6.29,-4.37 3.94,-1.16 1.2,-3.25 -0.18,-2.43 4.87,-1.45 -0.23,-3.12 5.53,-3.52 -0.35,-1.49 0,0 1.49,0.63 6.45,-4.09 2.1,-0.05 2.41,1.26 2.41,-0.88 1.09,-1.05 4,-0.1 2,2.17 1.4,7.82 -1.53,0.16 -0.3,0.75 1.44,3.13 -0.15,1.66 -2.17,3.98 -6.27,3.49 -2.17,4.48 -2.47,0.79 -2.51,2.55 -0.42,2.32 -1.09,2.53 -0.84,1.01 -1.17,-0.09 -0.84,3.01 1.76,9.88 -2.01,6.77 -0.82,0.59 -3.35,0.42 -7.53,3.39 -1.31,-0.48 -0.35,-1.47 -4,-0.45 -1.82,0.5 0.18,0.5 -3,0.36 -1.67,1.18 -0.96,0.41 -5.59,-0.35 -3.11,2.96 0.98,-0.31 1.26,-1.48 1.02,-1.01 5.5,0.49 4.16,-1.78 3.32,-0.57 3.06,0.86 2.8,1.2 7.53,-3.67 1.7,-0.04 2.89,-0.93 4.19,1.75 6.16,-0.42 -0.29,-0.46 -3.61,-0.44 -2.22,0.27 -1.48,-0.61 -0.88,-1.4 -0.11,-1.37 0.22,-3.96 -0.09,-0.83 0.13,-3.03 -0.5,-0.93 0.81,-5.26 0.8,-1.66 1.49,-0.78 0.05,-1.99 2.77,-4.33 1.97,-1.04 2.12,-2.7 -0.03,-3.98 1.14,0.17 1.08,1.41 1.17,0.01 2.25,1.33 0.47,4.55 0.98,2.31 3.36,4.96 3.87,3.83 2.98,2.02 11.09,3.04 7.26,-0.37 15.39,-3.82 6.05,-0.27 3.69,-0.51 3.56,-1.29 3.98,0.14 2.07,1.07 3.56,0.63 3.42,3.26 2.19,7.64 3.01,1.57 2.28,2.31 1.32,0.4 3.45,3.4 0.38,2.09 0.75,0.74 -0.43,2.05 -1.39,-0.04 -1.37,1.13 -1.38,3.04 0.57,0.59 -0.38,1.92 0.14,0.7 -0.98,0.73 0.12,2.98 -0.92,3.44 -0.03,8.76 -5.83,8.06 -1.23,2.83 -3.31,2.09 -1.07,1.54 -2.85,7.02 -2.72,3.24 -3.32,1.03 -2.26,2.11 -1.64,2.97 -0.71,3.22 0.79,6.56 -3.55,9.46 -3.47,0.16 -1.25,-1.16 -0.32,-2.26 -1.14,-0.75 -3.38,-2.83 -1.04,-2.38 -0.03,-2.01 0.78,-0.22 1.68,1.23 1.23,-0.51 0.73,-1.13 -0.13,-1.25 1.22,-2.31 -0.41,-2.34 -1.42,-2.14 -1.19,-0.9 -5.63,-0.58 -1.85,0.43 -2.12,1.68 -1.34,2.88 0.1,1.31 -1.99,1.41 -2.72,3.86 -1.34,4.34 1.4,2.97 1.22,1.11 0.93,5.79 -0.25,2.71 -1.64,2.81 -4.51,1.83 -4.35,-11.17 1.35,-1.59 3.57,0.28 1.64,-5.69 -1.11,-1.15 -2.21,0.62 0.13,0.55 -1.84,-0.66 -3.19,-2.38 -2.21,-0.39 -2.16,1.04 -0.51,1.87 -2,1.9 -3.49,0.02 -2.24,-1.59 -0.86,-4.31 -1.9,-1.61 -1.3,0.2 -0.32,-0.56 0.35,-1.81 1.51,0.57 6.46,-2.11 0.74,-1.18 -0.34,-1.3 0.97,-0.54 1.35,0.42 0.13,-0.68 1.79,0.31 -2.06,2.5 1.29,1.94 2.46,0.3 0.81,0.74 1.1,-0.48 2.05,-1.96 -1.73,-3.37 0.4,-1.14 -0.57,-0.86 -1.23,-0.28 -1.29,1.48 -0.24,-1.01 2.33,-3.11 1.56,-0.95 1.16,-1.96 0.21,-1.95 0.98,-0.51 2.1,0.21 0.18,-1.08 -0.93,-0.94 0.47,-1.29 -3.38,-1.96 -1.06,2.45 -0.97,-0.32 1.15,-1.51 -2.15,-0.07 -0.69,-0.62 0.39,-2.54 -0.5,-0.51 -1,1 -2.46,-1.09 -1.63,1.47 0.15,-0.37 -1.14,-0.42 -1,0.45 -1.61,-0.41 -1.06,0.82 -0.18,0.97 1.1,1.79 -1.86,2.11 -1.98,-0.52 -2.19,2.25 0.14,2.69 0.88,1.02 -1.3,1.13 -0.64,-0.66 -0.24,2.81 -4.34,2.25 -2.69,4.12 -0.78,2.26 -3.06,1.31 -2.24,1.97 -2.12,4.57 0.74,0.72 -1.92,1.95 -0.45,-0.37 -0.07,1.73 1.84,-1.39 -1.2,3.97 3.13,-1.79 0.47,-0.82 -0.64,-0.55 0.81,-0.96 0.6,1.05 -0.4,0.39 0.44,0.72 -3.28,2.53 -1.91,0.06 -0.6,0.87 0.69,1.78 1.82,2.03 1.46,4.43 1.42,2.24 1.58,7.85 1.58,3.33 0.01,1.83 -0.51,4.01 -1.56,0.8 -0.19,-1.27 -1.38,0.43 -2.37,3.01 -1.87,0.77 0.78,0.56 2.56,-0.64 1.76,-2.85 0.86,0.25 0.73,-0.64 1.76,-0.14 0.89,0.74 -1.54,1.48 -2.34,5.31 -0.1,3.29 1.86,5.35 -1.17,6.97 -0.01,4.62 -2.72,0.81 -4.2,5.15 -2.12,0.23 0.28,3.77 1.2,1.47 0.26,1.34 -0.35,0.26 -1.36,1.43 0.84,2.67 -0.79,1.02 -4.63,-2.21 -2.36,-2.74 -0.43,-1.08 0.73,-2.81 -1.58,-1.9 -0.53,1.44 -1.41,1.04 -0.45,1.67 0.66,0.38 -0.16,0.65 -2.08,-0.43 -3.16,3.12 -3.79,0.37 -2.14,1.16 -0.2,-2.19 2.98,-4.42 7.64,1.35 0.51,-1.73 -0.84,-1.19 -0.16,-1.6 -5.35,-0.38 -1.23,1.08 -3.61,0.97 -2.79,0.09 -2.49,-1.23 -3.31,0.09 -0.84,0.2 -0.89,2.98 0.71,0.84 -0.07,1.16 -4.69,-0.63 -2.29,0.89 -3.3,-2.96 0.18,-1.25 1.19,-0.12 -0.44,-0.55 -2.52,-0.59 -1.31,0.78 -0.59,-0.72 -1.8,-0.02 0.2,1 2.43,0.67 2.45,-0.57 -0.19,0.96 0.86,1.69 -2.06,0.57 -0.83,1.38 0.03,0.99 0.41,1.28 0.37,0.22 1.6,1.04 7.54,2.32 3.03,0.25 0.87,0.85 3.46,0.81 1.15,-0.2 1.59,-2.16 0.41,0.9 -0.89,1.09 0.7,0.45 -0.99,1.85 2.29,-1.52 2.73,0.01 0.41,0.48 0.01,1.25 1.75,2.04 -6.39,6.77 -0.5,1.24 0.17,2.44 1.08,1.71 7.17,1.43 0.72,1.8 -3.92,-0.07 -2.44,2.74 -2.73,0.32 -2.12,1.3 -0.2,2.22 2.23,1.24 0.46,-0.45 1.46,4.64 -2.37,-1.17 -5.13,1.52 -7.51,0.56 -5.44,1.53 -2.67,1.23 -2.35,2.02 -3.69,1.1 -1.49,-2.22 -3.44,-0.88 -5.13,0.27 -3.75,-4.1 -0.53,-1.33 -2.2,-0.1 -0.81,-1.01 -3,-1.22 0,0 1.73,-5.82 -0.41,-3.33 -4.09,-2.48 -0.57,1.4 -3.22,-1.08 -3.1,1.54 -2.39,-2.96 1.64,-2.18 -1.52,-2.06 -0.86,1.62 -5.56,0.36 0.23,-2.54 -2.86,-0.51 -1.81,-6.03 -0.47,-4.12 -2.88,-0.07 0.06,-1.32 -4.99,-0.49 1.15,-3.77 -2.14,-0.93 2.77,-1.99 -10.2,-14.09 0.41,-0.23 -0.45,-1.35 0,0 0.05,-0.52 -5.22,-2.83 -0.5,0.68 0,0 0.02,0.07 0,0 -0.67,0.4 0,0 -0.51,0.54 0,0 -2.21,-0.57 -1.48,-1.1 -0.88,0.53 0,0 -3.16,-0.34 -3.26,-3.75 -5.23,-0.3 -3.35,5.91 0.08,3.45 -6.33,8.18 -4.48,3.51 -2.8,-1.95 -1.72,2.53 -1.94,5.53 -1.67,-1.53 -1.73,3.51 -2.24,-1.02 -2.86,2.44 -7.12,-3.66 1.07,-9.68 -11.63,-2.67 -0.33,0.48 -1.94,-0.4 -1.32,3.73 -2.21,-0.38 -2.28,8.44 -3.97,2.38 4.47,4.52 -9.380001,3.27 -5.05,-1.91 -1.99,-5.88 -4.4,-2.59 -11.51,3.3 -3.2,-3.14 -5.2,1.6 1.94,4.63 -1.31,2.28 -3.33,0.69 0.17,5.58 -2.66,2.65 -6.27,0.08 -1.2,-2.86 -3.54,-1.81 1.24,-0.88 -6.1,-0.61 -4.04,-5.1 -4.01,5.24 -5.21,-0.12 -0.72,1 -1.07,0.06 -3.67,-3.54 -2.88,-1.57 0.12,-2.11 -4.88,-1.31 -1.31,0.31 0,0 1,-3.88 -0.42,-0.02 0.18,-1.06 1.63,-0.37 1.64,-2.51 -0.44,-0.7 -0.19,-0.63 0.46,-0.92 -1.8,-1.64 0.45,-0.6 0.52,0.39 1.49,-0.36 -1.01,-1.7 0.52,-0.45 -0.46,-1.26 0.78,-0.72 2.87,0.53 0.06,1.12 -1.31,-0.13 1.71,2.19 -0.23,0.43 1.33,0.87 0.71,-0.18 -0.04,-1.18 1.47,-0.39 1.11,0.56 0.43,-0.46 1.33,1.26 -2.62,3.03 0.37,2.89 -0.72,1.9 1.64,1.2 0.78,-1.81 0.67,-0.29 2.26,-1.24 0.81,-1.14 3.41,-2.22 0.94,-1.95 3.18,-3.63 3.35,-2.47 0.33,-0.87 -0.6,-1.94 -1.3,-1.2 0.91,-1.14 -0.15,-1.66 0.06,-2.19 0.06,-1.78 -0.96,-0.73 -0.18,-0.99 -0.61,-0.99 -1.18,-1.22 -1.51,-1.9 -1.57,-1.71 -2.74,-4.96 -0.86,-4.4 0.3,-3.27 -0.9,-2.74 0.68,-3.45 -0.43,-1.42 -3.84,-2.7 -4.09,-3.94 -2.23,-1.96 -8.7,-3.14 -1.01,0.15 -0.35,-0.81 -4.3299996,-2.55 1.76,2.03 0.03,1.38 0.9099996,1.37 -1.8199996,2.4 -0.25,1.2 -0.61,6.44 0.33,1.79 -0.73,3.37 1.47,7.03 1.3299996,0.44 -2.1199996,0.93 -1.11,-0.48 0.23,0.79 -1.13,0.75 -2.21,-11.03 0.79,-15.21 3.39,-25.98 0.23,-9.93 -2.24,-30.24 0.48,-0.01 1.74,0.08 0.45,0.56 -1.43,-0.17 -0.36,0.71 1.63,-0.24 0.71,0.9 -1.04,1.73 0.12,1.81 -0.74,0.34 0.39,5.09 2.3199996,-0.64 0.45,-0.33 2.03,-1.22 0.48,3.42 3.16,-0.92 2.24,1.67 4.21,-0.33 -0.37,1.79 1.23,3.12 -1.46,0.78 1.43,2.21 1.01,0.43 2.74,-2.23 0.9,-0.13 1.93,-4.05 1.45,-1.41 0.02,-0.79 -1.5,1.37 -0.95,-0.95 -3.24,-0.95 -0.47,-0.26 -0.35,-0.8 -0.88,-0.19 0.38,-0.94 1.02,-0.23 -0.89,-3.06 -1.41,-0.86 -0.01,-1.08 -0.81,-0.9 -2.5,-2.05 -2.47,-1.1 -1.98,-2.25 -0.71,-2.46 -1.83,-2.62 0.02,-2.87 -0.76,-0.36 0.95,-0.99 -0.7,-4.65 -2.39,0.86 -2.1499996,-1.79 -0.21,1.43 -0.8,-0.2 0.83,1.24 0.23,1.89 -0.44,1 -0.78,0.12 0.75,2.15 -0.82,0.37 1.14,0.72 -1.18,1.13 1.22,0.09 0.6,2.46 -1.54,-0.26 1,1.34 -1.36,1.32 1.25,0.37 -0.1,1.05 -2.1,0.42 1.39,-25.2 -1.29,-8.57 -0.06,-4.21 1.15,-8.49 6.2799996,-25.46 4.72,-10.61 1.38,-1.65 1.28,0.49 0.02,0.95 -0.62,0.38 0.73,0.71 0.4,0.41 -0.24,1.91 -0.32,0.15 0.34,1.22 0.79,0.3 -3.57,4.4 1.85,2.63 -1.62,0.73 -1.42,-0.86 -1.19,5.87 1.67,-0.48 4.37,2.1 0.12,0.98 -0.59,0.35 0.56,0.56 -0.14,2.92 0.89,-0.04 1.02,1.18 3.74,1.04 2.81,-0.28 1.35,0.92 0.58,1.88 -2.59,0.13 -0.54,0.67 0.26,1.65 2.02,3.23 -0.71,0.78 0.31,2.15 0.9,0.79 0.67,-0.19 0,-5.2 2.86,-1.54 3.21,0.66 4.98,-0.92 13.85,6.64 2.62,2.53 1.09,0.26 2.6,-1.48 2.93,-3.76 1.58,-4.68 0.19,4.66 1.23,1.97 -0.36,2.8 1.61,1.2 2.57,5.03 -1.07,0.86 -1.81,3.75 0.3,1.16 -0.6,-0.04 -0.28,-2.05 -1.6,-0.47 -2.32,0.75 -1.05,1.53 0.51,0.97 -0.68,1.59 -1.81,-0.23 -0.71,0.79 0.91,0.64 2.49,-0.48 0.09,-1.93 1.12,-1.77 1.82,1.08 2.87,-0.21 1.06,0.54 0.55,-0.43 -0.53,-0.39 1.79,-1.06 0.01,3.69 1.46,2.72 3.69,1.81 1.3,-0.01 10.09,-2.8 0.85,-0.87 0.86,-4.54 -0.44,-5.34 -0.88,-2.55 1.82,-3.15 1.39,-0.77 0.64,-1.37 -1.4,-3.14 -3.47,-2.08 -3.76,-3.75 -1.24,-4.61 -2.2,-0.9 0.84,-3.83 1.63,-0.47 2.12,1.05 2.65,-0.03 4.22,-4.15 2.31,-3.7 1.4,-4.97 3.960001,-5 1.18,-0.12 2.09,1.97 1.21,-0.2 0.88,-1.42 2.36,0.51 -0.03,-1.67 1.68,-1.01 1.56,2.42 2.03,-0.21 1.67,-1.4 -0.46,-2.22 -1.86,-0.74 -1.73,0.71 -0.69,-2.31 -1.15,2.97 -1.85,-1.68 -1.66,1.14 -3.33,0.58 -0.24,-0.49 4,-9.15 2.4,-2.66 -1.17,-2.57 1.81,0.29 1.08,-0.46 4.14,-2.82 1.81,-2.96 5.19,-3.55 6.04,3.04 1.98,0.68 1.38,0.69 1.01,-0.37 0.14,-1.01 -1.15,-0.51 0.25,-1 -1.19,-1.11 2.61,-0.4 1.5,0.48 1.64,-0.78 z m -3.97,-11.05 5.11,0.76 -1.1,0.42 -1.09,1.41 0.35,1.66 2.2,0.3 -1.82,2.26 -1.32,0.56 -1.1,-0.76 -1.68,0.8 -0.71,-0.44 -0.94,1.98 -0.07,1.91 -1.77,0.47 0.03,1.47 -4.31,-3.87 -2.06,-4.36 -1.84,-1.13 0.75,-1.11 11.37,-2.33 z" 
                fill="rgb(151, 144, 238)" 
                stroke="white" 
                stroke-width=".7px"
                title="Midtjylland" 
                id="DK-82" 
            />
        </svg>