<svg xmlns="http://www.w3.org/2000/svg" viewBox="20.317498999999962 0.2526093000001681 412.3200010000001 305.8900007" width="412.3200010000001" height="305.8900007">
            <path 
                d="m 65.197499,269.51261 -2.24,-0.6 0.35,-1.05 1.44,-0.42 0.45,2.07 z m 75.750001,-46.94 -2.01,-0.94 -1.3,-1.84 1.93,-2.89 0.7,-0.06 2.02,3.9 -0.57,2.16 -0.77,-0.33 z m -25.1,-18.58 -0.42,2.46 2.09,7.03 -1.9,2.59 -2.38,10.7 -1,1.25 0.51,-1.88 -0.24,-3.27 -1.08,-0.25 -1.08,0.66 0.25,1.16 -1.51,-1.37 0.4,-1.03 -0.7,-0.6 -2.17,0.37 -0.38,1.26 -1.73,2.64 -0.13,1.37 1.5,2.94 0.51,4.92 1.42,3.47 3.05,3.31 0.67,3.02 -0.23,2.35 -0.89,-2.43 -0.98,-0.16 -0.44,0.91 -0.82,-0.08 -0.14,1.23 1.5,1.37 -2.93,1.85 -0.51,1.17 -0.56,1.99 0.6,0.26 -0.34,1.1 0.42,1.74 -0.94,0.02 -0.63,0.72 0.16,1.96 -2,1.18 -0.85,1.34 -1.54,0.58 -4.300001,5.77 1.05,2.46 -6.11,3.01 -0.18,0.56 -3.61,-0.6 -8.52,3.46 -0.13,-1.37 -0.94,-1.31 -0.59,-0.96 0.62,-2.42 -3.2,-3.4 0.19,-2.2 1.84,-0.59 0,-0.66 -0.52,-0.34 -2.06,0.65 -0.81,0.79 -1.22,-0.55 0.54,-1.46 -0.82,-1.93 -1.82,0.07 -0.24,0.99 0.06,1.06 1.87,0.24 -1.32,1.18 1.25,2.15 -3.78,1.48 -0.16,-1.18 -1,-2.75 0.08,-0.62 2.81,-0.55 -0.64,-1.35 -4.18,-3.01 -3.47,3.67 -1.66,0.81 0.5,-2.12 -0.38,-1.91 0.88,-2.07 2.05,-0.44 2.42,-2.18 1.44,0.49 0.75,-0.81 -1.5,-6.15 -1.03,-1.08 1.6,-1.02 0.62,1.25 0.91,0.09 1.66,-2.32 1.65,-0.28 4.67,1.15 6.17,-3.5 0.2,-2.19 -0.59,-0.7 -7.31,-1.27 0.01,-1 1.7,-2 2.52,0.83 1.03,-0.66 0.08,-1.51 -2.33,0.02 2.38,-3.95 -0.16,-3.74 -0.65,-1.38 0.38,-1.05 -1.07,-1.38 4.47,-1.45 2.52,0.75 5.25,-1 1.42,0.65 2.84,-2.3 3,-0.16 2.04,-1.11 3.310001,-0.17 1.16,-2.13 0.69,-4.75 2.86,-3.35 1.16,-3.05 1.18,1.48 2.75,-0.55 1.32,0.46 2.94,-3.42 0.33,-2.69 0.82,0.06 -0.23,2.37 -2.02,2.29 z m 131.05,-25.21 -2.01,0.4 -2.62,-1.2 -0.97,-1.02 -0.45,-2.36 4.02,-0.82 2.13,0.5 0.86,1.35 1.5,0.88 -0.03,0.67 -2.43,1.6 z m 23.08,-5.36 1.76,3.96 3.92,3.11 -0.32,1.13 4.14,2.24 4.04,3.68 2.05,3 7.49,5.47 5.54,2.1 9.65,-0.96 -0.3,4.35 -1.27,0.01 -0.98,1.69 1.03,0.42 0.19,0.67 -2.68,4.25 -1.41,11.21 0.6,2.18 0.71,14.39 0.67,6.2 2.97,12.32 4.92,7.81 -0.07,3.83 -1.13,1.04 -3.4,-1.7 -6.49,-0.47 -3.61,-1.81 -1.07,0.09 -2.17,1.98 -0.55,1.51 -2.16,0.69 -2.55,-1.31 -0.64,-1.57 0.22,-1.28 -1.4,0.04 -1.26,-0.3 -5.31,2.65 -0.63,2.4 -2.45,1.06 -0.08,0.59 -0.97,0.04 -0.46,-1.31 -1.47,-0.78 -2.58,0.83 -0.51,0.98 -1.97,0.1 -1.57,1.99 0.24,1.32 -4.06,0.64 -3.08,3.27 -2.01,-0.27 1.06,2.24 -1.18,-0.56 -1.64,0.88 -0.24,0.75 -0.69,-0.34 -1.86,0.97 -2.76,-0.26 -1.23,0.66 -4.61,-0.01 -1.12,0.96 -3.33,-0.13 -3.06,1.92 1.09,0.28 1.28,-0.65 4.21,0.73 1.77,-1.82 3.24,0.06 2.93,-0.78 0.35,0.51 2.52,-0.08 2.01,-1.08 1.18,0.58 1.58,-0.56 1.15,-1.39 2.02,0.6 0.51,-1.02 -0.55,-0.34 1.45,-1.72 1.22,-0.03 1.22,-1.52 1.21,0.48 1.69,-0.81 0.11,-1.3 2.53,-3.22 1.16,-0.22 2.46,2.3 1.44,-0.13 3.46,-3.44 0.24,-2.8 0.71,-1.29 0.81,0.83 1.71,-0.12 2.24,1.39 1.51,-0.39 4.16,5.46 0,0 0.35,1.49 -5.53,3.53 0.23,3.12 -4.87,1.45 0.18,2.43 -1.2,3.25 -3.94,1.16 -6.28,4.37 -8.75,2.68 -2.67,-1.43 -1.46,3.92 -6.23,1.87 -2.13,-0.16 -0.83,1.12 -0.48,3.44 -6.39,1.41 -5.12,-2.8 -6.23,1.56 -5.22,-7.45 -4.94,-1.25 -4.67,2.55 0.13,-7.14 4.38,-1.49 -0.76,-3.54 -6.18,-0.88 -3.97,0.77 -4.58,-1.56 0.56,-3.36 -5.1,-0.61 -0.39,-1.45 1.8,-1.7 -0.45,-0.94 -0.55,0.12 -0.18,-1.11 -0.83,0.39 -0.59,-0.53 0.87,-1.94 -0.52,-0.32 -4.12,-0.44 -0.42,1.8 -2.12,0.16 -3,9.47 -3.43,-0.63 -4.96,-3.53 0.16,-2.99 -4.24,0.69 -1.56,-2.2 -4.77,-0.2 0,0 -1.98,-5.11 -1.62,-1.41 -1.62,-0.18 -2.48,0.88 -1.68,1.56 -2.26,0.11 -1.61,1.81 -3.52,1.59 -2.3,2.33 -0.84,0.21 -1.83,-1.94 -0.42,-1.29 0.08,-1.2 2.05,-1.03 2.36,-3.63 0.66,-0.02 3.17,-3.27 2.43,-4.1 0.9,-3.76 -0.37,-2.55 -1.23,-1.4 -4.53,-1.63 -1.79,0.7 -0.26,-0.48 0.49,-5.08 -1.9,-4.57 -0.82,-0.29 2.85,-3.92 2.7,-5.15 0.35,-4.9 -1.56,-3.09 -4.42,-3.03 -0.31,-1.71 1.76,-6.3 2.59,-3 0.24,-1.67 2.17,-1.14 1.98,-2.38 1.93,-4.33 4.83,-1.5 0.84,-1.15 0.64,-3.9 1.1,-1.39 0.79,0.27 7.2,-2.77 10.24,-2.31 8.52,0.35 2.91,0.7 7.56,4.03 2.56,2.33 -2.02,2.34 -0.51,2.12 1,2.63 -0.99,1.21 -1.15,-2.47 -0.96,-0.16 -1.66,2.5 1.97,4.86 1.04,0.72 1.11,2.11 0.49,-0.16 0.91,-5.77 -0.4,-2.29 2.56,-1.7 1.77,0.02 1.88,-1.28 1.57,-4.48 1.32,-0.4 4.21,-5.62 -0.12,-3.24 0.5,-1.46 0.75,-1.24 2.65,-1.64 6.38,-1.24 4.7,-1.62 9,2.28 3.49,-2.81 1.45,-0.53 2.03,-0.37 2.01,0.13 3.01,2.1 2.03,-0.15 1.98,-0.81 2.19,-4 3.18,-2.46 3.59,0.42 z m 133.99,-32.32 -0.62,-0.12 0,-0.96 1.74,-0.8 -1.12,1.88 z m 5.79,-2.45 0.57,0.73 -0.63,1.47 -4.19,0.63 -0.93,0.62 -0.53,-0.7 0.27,-1.31 1.24,-1.01 3.17,-0.75 1.03,0.32 z m -16.26,-7.1 -2.53,0.13 -0.93,-1.44 0.48,-0.31 2.98,1.62 z m -7.63,-5.22 0.36,0.72 0.44,-0.11 0.25,0.3 4.36,5.35 -0.93,-0.13 -4.74,-5.71 -0.29,-1.17 1.12,0.27 -0.57,0.48 z m 46.77,-15.08 -0.8,8.94 -0.53,-0.22 0.56,-1.92 -0.29,-1.23 -1.39,-0.74 0.61,-2.06 -2.09,1.9 -0.1,0.88 -3.11,-0.6 -3.19,0.91 -1.22,-0.28 -5.27,2.59 -0.75,1.34 0.43,0.7 2.46,0.38 -0.27,4.1 -0.82,2.27 -2.73,3.03 -6.13,-0.53 -1.23,0.46 7.55,0.49 -1.11,1.52 -7.54,4.23 -2.06,-0.5 -1.79,0.95 -0.99,-3.35 -0.51,-0.25 0.21,-0.86 -2.85,-0.67 0.27,-0.94 -0.97,-1.23 -2.58,-0.57 -1.67,0.75 -4.52,-2.26 -0.91,-1.17 0.06,-1.91 4.6,-3.7 2.17,-3.73 3.64,-2.17 2.42,-0.01 1.38,-0.97 3.18,0.43 1.71,-0.47 1.54,-2.44 1.15,-0.68 4.27,0.28 8.11,-0.59 1.49,-0.36 2.35,-1.76 3.23,1.09 3.79,0.13 0.24,0.8 z m -82.54,-102.9200007 -1.1,1.02 -1,-0.71 -0.84,0.7 0.67,0.46 -1.38,-0.15 -3.64,3.0999997 -8.6,10.76 -6.31,10.87 -1.43,3.84 -1.1,6.82 1.15,6.05 1.96,5.24 7.84,10.05 -0.06,1.59 2.81,4 1.55,1.12 1.54,4.8 0.69,0.46 0.76,-0.38 0.6,0.68 -0.76,2 -1,-1.09 -0.41,0.5 0.88,1.52 -1.22,-0.91 -0.57,1.03 0.98,0.55 -1.4,-0.02 -0.12,0.74 -0.85,-0.02 -0.34,0.71 0.3,2.96 -0.53,0.68 0.05,2.28 -1.36,5.76 1.03,9.820001 1.73,3.12 -0.82,0.75 -0.23,1.29 2.53,13.04 0.64,6.08 -0.42,5.67 -0.78,0.24 -1.95,2.55 -2.09,1.77 -2.62,1.08 -3.47,3.76 -3.6,5.1 -3.28,6.81 -2.29,5.93 -3.57,16.14 -0.07,1.96 -3.21,9.55 -3.03,5.71 -2.55,-0.75 -1.68,-0.58 -3.83,0.67 -1.98,1.28 -4.96,-0.83 -5.75,-4.42 -1.29,-1.97 -8.58,-8.13 -2.15,-1.66 -2.15,-0.48 -4.65,-4.04 -3.75,-4.07 -1.91,-0.62 -3.16,1.3 -3.52,3.6 0.03,3.21 -2.78,1.05 -1.65,-0.5 -2.48,-1.94 -1.22,0.02 -3.22,-1.72 -1.05,-1.71 -3.93,-3.71 -1.41,-0.34 -5.54,-3.82 -1.3,-0.23 -0.1,1.43 0.51,0.48 -0.6,1.45 -2.72,5.28 0.26,0.65 -1.93,1.41 -5.92,0.96 -4.98,-3.04 -2.08,0.81 0.05,-2.86 2.6,-0.69 1.53,-1.95 0.06,-0.72 -2.12,0.19 -3.88,1.7 -1.79,1.72 -1.94,1.67 1.66,1.58 1.96,-0.28 0.65,0.42 -2.49,1.72 -1.74,3.01 -3.23,-0.19 -1.78,2.41 -4.16,-0.99 -5.2,0.01 -1.6,0.73 -1.11,-1.02 -4.36,1.8 -3.79,0.45 -7.43,3.38 -3.08,0.03 -6.25,2.9 -1.37,1.15 -1.36,1.51 -3.38,1.42 0.04,0.61 -1.05,0.39 -3.05,-0.44 -1.72,-0.31 -1.77,-1.2 -6.25,-6.32 -4.33,-3.76 -9.89,4.25 -0.32,1.4 -2.16,2.32 -1.41,-0.16 -0.04,-2.52 -0.93,-0.95 -3.49,0.33 -2.35,0.95 -2.51,3.51 -2.93,-0.74 -2.57,1.44 -1.98,4.86 -2.05,-0.01 -1.1,-2.44 -3.38,-0.96 -1.47,1.78 -0.29,-1.93 -1,0.19 -1.05,0.33 -1.11,0.12 -0.59,0.45 0.47,1.24 2.46,1.77 0.1,1.68 -2.01,0.66 -0.61,0.91 -1.71,0.08 -3.290001,1.63 -0.88,1.99 -3.31,1.38 -1.73,0.14 -2.7,-1.13 -1.41,0.27 -1.84,-0.92 -1.83,0.16 -2.78,-0.11 -0.78,0.61 -1.45,4.06 0.71,2.65 -3.07,3.03 -0.03,3.09 -2.04,2.86 0.8,3.03 -1.05,1.4 0.1,0.72 1.24,0.87 -3.18,4.77 -0.01,0.97 -4.88,5.85 -5.61,0.31 -0.36,0.57 0.45,2.36 -2.15,-0.19 -4.43,2.67 -2.54,3.7 1.17,2.62 3.15,4.05 -1.54,1.9 -1.44,6.17 -2.71,2.52 3.4,-0.95 1.98,0.49 2.47,0.06 0.6,1.14 -1.33,2.75 1.72,-0.97 0.74,0.56 -2.11,2.66 0.27,2.7 -3.39,-1.17 -1.36,-1.97 -3.74,-1.4 -3.82,1.94 0.17,0.73 -1.27,1.18 -1.28,-0.55 -0.64,0.31 -0.58,1.73 0.77,0.06 0,0 -0.16,1.38 0,0 -6.73,-1.73 -1.08,-3.89 -1.01,-0.93 -1.23,-2.87 -2.06,-1.91 -1.09,-2.96 -1.35,-7.75 -2.37,-2.84 -3.53,-2.12 -1.26,18.32 0.01,1.09 -0.28,0.55 -0.96,-0.71 0.01,-2.75 -1.49,-2.67 -1.02,-0.06 0.54,-2.24 0.5,-12.35 1.27,-5.82 4.84,-13.69 12.38,-25.33 2.64,-1.51 4.1,-5.22 5.23,-8.11 2.61,-5.55 1.26,-1.32 2.05,0.19 1.62,-0.86 3.97,-4.67 8.29,-13.87 -0.17,-0.62 0.42,-0.31 0.44,0.24 0.38,0.63 3.09,-1.69 0.83,0.84 7.31,2.37 8.36,3.73 2.09,0.01 9.400001,-2.32 5.69,-2.27 4.52,-2.51 8.15,-6.29 3.47,-1.48 3.24,0.59 3.55,-0.8 10.12,3.95 6.25,1.12 5.28,0.22 9.35,-1.04 3.61,-0.8 5.63,-2.37 6.41,-0.5 4.45,-1.81 17.48,-13.72 1.92,-2.1 13.78,-20.66 8.99,-16.690001 1.72,-2.05 10.82,-24.83 9.55,-10.08 3.29,-4.59 6.57,-12.72 3.25,-3.46 -0.6,1.27 3.19,-0.65 0.03,-0.67 1.23,0.97 2.23,0.44 3.69,0.34 3.17,-0.5 4.76,0.8 2.99,0.02 7.19,-1.24 11.8,-4.58 10.83,-6.49 27.51,-24.1699997 4.85,-3.37 2.63,-1.26 4.58,-1.13 2.22,0.19 3,1.77 -4.61,4.06 -1.45,2.06 z" 
                fill="rgb(151, 144, 238)" 
                stroke="white" 
                stroke-width=".7px"
                title="Nordjylland" 
                id="DK-81" 
            />
        </svg>