<svg xmlns="http://www.w3.org/2000/svg" viewBox="386.98750000000007 440.84261 232.80999999999983 351.4099999999999" width="232.80999999999983" height="351.4099999999999">
            <path 
                d="m 474.9075,707.81261 -0.66,0.71 -0.87,-0.48 -1.32,0.84 1.89,2.69 2.62,1.57 0.12,1.06 -1.59,-0.79 -3.67,0.94 -0.59,-2.89 2,-0.63 -0.86,-1.47 -0.45,0.14 -1.01,-0.99 -0.13,-0.84 4.52,0.14 z m -33.42,-10.63 4.06,2.7 3.54,5.22 1.02,-0.23 2.72,0.78 1.91,1.25 0.23,4.54 3.04,3.38 2.17,1.44 1.46,0.16 1.49,1.41 1.42,0.07 -0.59,1.65 0.87,0.64 1.89,-1.12 2.35,0.58 0.75,1 -0.66,3.31 0.53,1.36 1.15,-0.42 2.31,0.74 0.04,1.63 2.59,-0.44 2.81,0.97 3.18,0.04 1.42,1.32 3.44,-0.74 0.42,-0.92 -2.33,-0.84 -2.07,-2.85 0.43,-1.53 1.31,0.02 1.39,-1.27 3.47,2.09 2.73,-0.93 1.28,-1.31 1.92,-0.12 -0.11,-1.44 -1.13,-1.26 0.77,-4.48 -1.69,-2.57 0.12,-1.11 3.14,0.65 0.54,0.93 1.2,0.31 1.64,2.31 3.9,2.84 1.09,0.49 3.01,-0.61 0.75,0.8 -1.14,1.41 -0.3,1.52 1.73,4.84 1.34,0.08 2.83,1.82 1.35,-0.09 -1.22,2.77 0.18,3.27 2.2,1.77 0.27,1.23 1.26,0.02 0.38,0.7 1.4,0.34 1.64,2.27 2.38,1.55 0.94,1.17 -0.07,1.96 0.03,1.09 0.96,1.36 0.14,3.3 -2.52,1.77 -0.03,0.65 -1.83,0.08 -2.49,-2.05 0.4,0.98 -0.5,1.84 1.13,1.04 -2.18,1.02 0.66,1.5 0.54,0.98 1.96,1.34 2.15,0.98 0.85,-0.51 1.14,1.18 -0.22,1.53 -2.76,0.49 1.91,1.86 -1.81,1.13 1.22,1.08 -0.97,-0.06 -3.29,1.72 2.35,1.8 -1.28,0.46 -0.89,-0.44 -0.26,1.13 -1.1,-0.38 -0.69,0.86 -2.54,-1.04 -4.04,-0.67 -2.25,0.22 -1.57,-0.62 0.73,-1.05 -1.1,-1.88 -0.76,0.62 0.45,1.84 -1.69,0.89 -0.99,-1.97 -2.27,-1.06 -2.48,0.64 -0.7,-1.14 -0.64,1.05 0.47,0.53 -0.75,0.65 -0.28,-0.63 -0.81,0.51 -1.29,-1.09 -1.72,-0.11 -0.13,0.76 -1.32,0.21 -1.45,-0.16 -2.33,-1.29 -1.1,0.51 1.09,0.89 -0.27,0.29 -3.85,-0.3 -0.12,0.77 1.26,0.92 -2.51,0.14 -0.13,1.4 -0.92,1.34 -2.96,0.28 -0.72,0.83 -2.73,-0.01 -4.95,5.71 4.3,2.92 1.25,0.02 1.14,0.86 1.7,-0.16 0.63,-0.76 0.06,0.93 -2.1,0.42 -1.8,-0.39 -7.17,-4.41 -5.58,-4.67 -5.33,-2.97 -2.38,-2.05 -0.96,-0.16 -6.41,-7.31 -4.74,-3.87 -3.64,-1.58 -1.51,-0.07 -3.34,-2.04 -12.25,-4.94 -8.31,-2.47 -6.98,-3.75 -5.55,-9.57 -1.1,-6.48 0.53,-1.02 0.84,-0.4 2.69,1.92 -2.81,-1.44 -0.26,0.63 0.86,0.89 -0.01,0.82 -0.89,-0.37 -0.57,0.97 0.8,4.06 1.22,2.19 0.74,0.11 0.46,-0.32 2.41,0.01 1.4,-1.02 0.72,-1.38 -0.84,-1.27 -3.11,-1.96 2.21,0.22 1.94,1.27 0.76,-0.35 1.24,1.4 1.1,0.02 1.06,2.8 3.49,-0.17 1.35,-1.7 -1.68,-1.71 0.22,-1.97 2.23,2.58 1.09,-0.29 0.82,-2.2 1.76,-0.71 -0.34,-1.49 1.88,0.33 0.63,-0.43 -0.35,-0.78 -1.17,0.55 -1.51,-0.64 -1.83,0.42 -0.11,0.58 -1.05,-1.29 -0.79,0.41 0,-3.23 -1.3,0 -0.23,-1.89 -1.6,-1.27 0.69,-1.96 -2.14,0.43 0.06,-1.85 -0.6,-0.35 -1.1,1.58 -0.43,-0.12 -0.08,-2.71 -0.79,1.09 -0.87,-0.74 -0.29,-2.06 1.68,-5.86 4.48,-3.56 1.58,-2.58 1.57,-0.82 0.94,0.59 2.33,-0.23 1.23,0.93 0.58,1.32 0.02,-1.71 -1.14,-1.93 0.8,-0.61 1.64,1.1 0.12,-1.66 1.8,0.55 1.88,-1.62 1.41,0.28 2.06,-1.42 11.3,0.76 z m 20.34,-2.85 2.11,1.43 3.33,-0.42 2.69,3.06 0.17,0.89 -0.26,1.2 -4.94,-0.39 -3.88,5.34 -0.66,0.17 -0.43,-0.92 -3.54,-2.39 -1.24,-5.32 -1.18,0.01 -0.61,-2.57 1.12,-0.03 1.1,1.07 0.34,1.01 -0.43,0.82 0.69,1.7 0.84,-0.11 0.14,-1.39 0.42,-0.01 2.18,0.7 1.08,1.2 0.63,-0.15 0.33,-1.11 -0.44,-2.3 0.44,-1.49 z m 59.27,2.18 1.31,0.54 0.52,0.1 3.54,3.23 -0.57,1.09 2.05,1.69 0.18,2.38 1.97,1.15 1.71,0.29 0.41,-0.41 0.38,-1.06 0.28,-0.57 0.17,-3.76 1.11,1.05 2.56,-0.93 2.08,0.19 1.93,1.48 -0.4,0.89 0.4,3.16 0.92,1.84 -0.39,0.94 2.6,2.06 3.67,0.98 1.84,-0.16 2.06,0.9 2.01,-1.14 3.04,1.13 3.57,0.42 0.93,4.68 3.96,4.77 1.34,3.21 -0.84,1.37 -3.45,1.42 -1.07,3.47 -1.48,1.9 -4.88,2.81 -5.62,7.55 -2.09,6.1 -1.33,2.1 -3.89,3.4 -2.27,4.18 -1.3,5.9 -0.06,3.82 1.77,17.76 -0.47,3.82 -7.33,-3.6 0.72,-1.28 -0.03,-0.52 -0.47,0.12 0.13,-3.12 -3.91,-8.16 -2.71,-3.94 -0.88,-2.76 1.58,-5.28 0.13,-2.43 2.92,-3.42 1.54,-3.06 -0.52,-0.75 -0.69,0.23 -4.44,-1.95 0.7,-3.48 1.3,-1.4 -2.31,-3 -0.78,-3.33 -1.9,-2.36 -1.62,-0.8 -0.79,-2.31 -2.61,-0.56 -2.18,-2.19 -0.24,-0.86 1.66,-1.32 1.13,-2.67 -0.12,-0.99 -1.31,-0.98 0.31,-1.67 -3.18,-2.47 -3.93,-0.39 0.43,-1.31 -0.64,-2.06 -0.59,-0.34 1.03,-2.49 -1.38,-1 -0.89,-2.65 0.45,-1.64 1.53,-2.06 0.06,-1.86 -1.4,-2.39 -4.94,-0.07 -0.68,-0.58 2.25,-2.92 1.16,0.7 1.01,-0.15 0.48,-1.12 -1.31,-0.71 1.81,-2.64 3.2,0 2.27,1.4 2.45,4.43 1.87,-0.44 1.11,-1.4 0.93,-3.63 -0.92,-1.22 0.07,-0.79 1.02,0.23 1.25,1.67 z m 36.6,-0.45 -0.35,1.32 -0.74,0.21 0.48,1.5 -1.1,-1.13 -2.14,1.28 -2.21,-1.2 6.06,-1.98 z m -81.09,-7.26 4.33,0.81 2.54,3.79 -3.43,4.14 -0.65,2.08 -1.84,-2.58 -1.34,-3.42 -2.4,-2.13 0.64,-1.46 2.15,-1.23 z m 84.92,0.72 -2,2.62 -0.17,1.69 -1.23,-0.39 -0.47,1.14 -0.25,-1.2 1.83,-1.88 -0.53,-1.02 0.63,-0.75 1.14,0.54 1.05,-0.75 z m -32.83,-0.25 0.56,3 -1.69,-0.93 -1.62,-3.24 1.21,-0.85 1.08,0.74 0.46,1.28 z m -74.41,-9.59 -1.74,1.46 -0.14,-1.34 2.99,-2.46 1.27,-0.06 -0.17,1.39 -2.21,1.01 z m 121.77,-6.99 -2.59,6.03 -2.63,-1.61 -1.65,-0.1 -0.94,-1.48 2.43,-0.48 1.62,-2.08 1.05,-0.45 1.38,-0.4 1.43,0.11 -0.1,0.46 z m 5.93,3.71 1.38,1.94 3.72,1.8 9.94,0.11 4.54,1.16 1.99,-0.47 3.72,0.34 8.26,3.64 3.49,6.51 0.75,3.75 0.02,1.65 -1.62,2.88 -4.41,0.68 -5.79,-2.08 -0.82,-0.87 -5.94,-1.55 -4.57,-0.75 -3.62,0.22 -5.99,2.64 -4.64,3.77 -5.31,6.4 -1.43,3.02 -3.71,4.08 -3.68,0.73 -5.34,-0.72 -2.34,-4.28 0.83,-0.13 0.52,0.5 -0.34,0.29 1.38,0.21 -0.03,-0.91 1,0.1 -0.18,-0.39 -5.47,-0.41 -14.6,-4.74 -1.25,-2.74 0.31,-1.97 -1.77,-1.83 0.19,-1.25 1.16,-0.62 0.6,0.49 0.01,2.47 0.68,1.64 1,0.15 -0.13,0.79 1.65,0.34 1.57,-1.37 5.16,0.02 2.64,2.92 -1.77,3.96 0.8,-0.42 0.33,0.73 2.84,0.81 2.5,-0.97 -0.89,-1.7 -0.9,-0.23 1.38,-3.76 3.77,-2.48 -2.27,-0.94 -0.83,-0.95 -0.35,-1.78 3.32,-1.71 -0.02,-0.74 2.48,-0.77 2.52,0.96 0.32,-0.73 -1.89,-2.24 -0.39,-1.59 4.14,1.44 0.77,0.71 -0.04,1.7 0.58,0.97 3.62,-2.04 2.97,-0.73 0.84,-0.99 2.32,-0.33 1,0.85 -1.27,1.85 -0.37,1.84 -0.77,0.39 0.95,0.49 0.92,-0.77 1.48,-0.17 2.9,-3.3 5.46,-1.42 0.4,-0.32 -1.26,-0.38 -4.69,0.74 -1.04,-0.56 -0.53,-0.23 -2.02,1.5 -0.78,-0.87 -1.26,-3.34 1.62,-2.52 0.04,-1.5 -2.08,-3.56 -1.02,-0.59 0.23,-0.56 -1.16,-1.04 -0.91,0.17 -0.12,0.66 -1.35,-0.3 -0.57,-1.21 0.38,-1.6 2.52,-1.27 1.19,-1.6 1.27,1.03 1.16,3.25 z m -0.82,-5.38 -0.5,0.13 -0.18,-1.17 -1.33,-1.29 -0.03,-1.52 -1.05,-0.93 0.99,0.17 0.91,1.15 -0.39,0.32 1.44,0.83 0.14,2.31 z m -21.07,-15.85 -1.78,0.95 -1.88,-0.49 1.74,-0.6 1.92,0.14 z m -54.43,-1.5 -1.53,3.31 -0.62,-3.03 1.02,-2.7 0.42,0.25 -0.42,0.94 1.13,1.23 z m -76.22,-8.06 0.34,0.96 -2.3,2.02 -1.7,4.42 -2.38,-4.78 3.53,-2.93 0.58,0.41 2.2,-1.53 -0.27,1.43 z m 69.54,-2.19 -0.03,4.22 2.08,1.24 0.74,1.32 0.5,-0.12 0.98,0.78 0.21,1.04 -0.63,0.1 -3.52,-3.63 -2.89,-0.93 -1.92,-3.11 0.75,-0.44 1.57,0.9 1.27,-1.36 0.89,-0.01 z m -28.06,-3.08 -0.78,-0.02 0.73,-1.18 1.61,-0.39 0.23,0.42 -1.79,1.17 z m 33.78,2.1 -0.77,2.85 -1.41,-0.65 -2.12,0.61 -0.4,-0.84 0.86,-3.15 1.15,-1.39 0.11,-1.88 0.67,-0.17 1.2,1.17 2.3,0.6 -1.59,2.85 z m -73.45,-13.73 -1.06,0.85 -0.6,-0.55 -0.34,0.77 0.52,-0.13 -0.32,1.24 2.28,2.2 0.56,3.22 1.27,2.67 -0.38,0.91 -0.94,-0.43 -0.07,0.56 1.82,1.17 1.36,-2.19 -0.5,2.95 -0.61,0.53 -5.13,-3.59 -0.54,-7.8 0.65,-2.67 -0.84,-1.6 0.54,-0.59 1.52,0.9 0.81,1.58 z m -27.84,-24.13 -1.76,1.27 2.25,-0.27 -6.59,2.59 3.83,-3.49 2.28,-0.53 -0.01,0.43 z m 189.24,-62.66 0.92,0.81 0,0 -1.25,0.76 -0.33,-0.72 0.27,-0.47 0.39,-0.38 z m -145.9,-42.16 0.56,1 -1.88,-1.24 -1.74,-3.8 0.65,-2.52 1.44,1.45 -0.69,1.3 1.96,2.22 -0.3,1.59 z m 75.23,-3.22 -0.18,2 -1.51,3.12 0.37,1.22 -2.98,1.62 -1.71,-1.87 -1.36,-0.11 -2.43,-5.95 0.64,-0.74 1.48,-0.02 1.12,-1.67 1.2,1.84 1.27,0.56 1.5,-3.9 -0.82,-1.76 0.8,-0.86 2.05,3.06 0.56,3.46 z m -94.05,-25.7 3.45,3.97 3.08,1.71 0.47,2.29 -1.55,-1.65 -6.84,-2.25 -1.68,-1.36 -3.87,-5.06 -4.33,-1.97 -0.8,-3.64 5.11,1.85 0.98,2.1 3.25,1.61 2.73,2.4 z m 25.37,-22.51 4.58,2.77 5.06,1.33 8.77,0.34 5.5,2.25 9.59,-2.57 2.35,3.93 3.24,1.66 2.51,-0.04 6.88,-2.16 2.7,-1.47 3.47,-3.15 4.48,-2.5 1.94,4.87 0.21,2.02 -0.54,0.23 -0.02,-1.13 -1.2,-0.23 -3.45,3.23 -0.84,4.02 0.67,2.92 -0.23,1.8 -2.49,1.51 -3.17,-1.19 -0.52,-2.24 -1.43,-0.44 -1.19,0.73 -1.25,-0.83 -0.76,0.67 -1.11,4.22 0.36,3.43 3.21,1.71 2.39,3.24 0.69,2.44 2.39,3.66 0.32,3.84 -2.58,3.61 -0.57,-1.08 -6.54,-1.89 -2.02,2.38 0.98,1.18 -1.21,0.51 -0.05,1.79 -4.91,2.4 -0.17,1.16 2.93,2.02 2.76,-0.3 2.44,-0.66 1.86,-2.02 1.63,-0.37 1.24,-1.26 2.6,-0.22 1.45,-1.25 1.65,1.79 0.72,3.72 1.59,2.11 -1.08,0.65 -0.48,-1.93 -1.13,1.74 0.91,1.62 3.04,1.45 0.03,1.63 -0.91,-0.18 -2,1.53 -2.23,-0.12 -1.57,0.85 -8.19,0.45 -1.43,0.78 0.72,1.45 -0.67,0.15 0,0.81 1.54,0.36 0.1,0.91 5.79,-0.85 0.99,-0.65 1.16,0.5 0.81,-0.12 1.35,0.1 1.72,-0.75 2.77,0.61 0.74,-1.37 -1.47,-0.75 -0.05,-0.63 0.41,-0.34 0.71,0.6 1.61,1.78 1.31,2.75 -0.12,3.2 0.76,0.58 0.8,-0.25 0.51,2.64 -0.63,1.04 -1.81,0.31 0,2.57 -1.82,0.66 -1,1.87 0.25,0.6 1.59,0.01 1.04,-0.37 1.25,-0.75 0.61,0.65 1.02,-1.15 0.33,-2.12 2.54,-1.93 0.73,-0.48 0.51,-5.65 2.32,-6.05 1.08,-0.12 1.47,-1.46 0,0 4.05,1.59 3.73,-3.42 6.81,3.72 0,0 -0.09,3.36 -0.79,0.82 -1.5,4.28 -0.67,0.14 -2.19,3.85 -0.73,3.23 -0.73,0.18 -0.37,0.89 -0.39,2.07 0.74,1.45 1.25,-3.32 1.54,-0.7 -0.43,-0.56 0.3,-2.37 6.29,-0.64 -0.88,-1.24 -0.04,-1.66 -1.41,-0.81 1.54,-1.13 -0.05,-2.15 0.51,1 1.82,-0.63 -1.54,2.46 0.4,0.59 0.85,0.37 1.1,-1.26 0.78,0.76 1.63,-0.44 1.75,1.17 -0.39,1.3 0.97,0.05 0.64,0.82 -0.32,0.82 -1.85,-1.11 -1.82,0.46 -1.33,-1.51 -2.2,-0.63 -0.28,1 1.24,0.03 0.92,2.87 -0.68,1.41 1.31,-0.8 0.8,0.04 0.4,0.81 0.79,-0.16 0.64,-0.75 0.94,0.82 0.44,-1.08 1.8,-0.23 -0.18,1.19 0.64,0.5 -0.78,0.83 -0.02,1.47 1.96,0.46 1.37,1.35 0.8,-1.01 0.68,-3.93 -1.23,0.12 -1.18,-1.17 -0.42,-1.37 1.18,-2.1 0.88,-0.29 0.92,1.32 0.45,-2.07 -1.81,0.38 0.17,-0.75 0.41,-0.55 1.73,0.19 1.48,-1.74 0.59,-1.53 -1.66,-0.34 0,-2.1 1.32,-0.52 -0.5,-0.61 1.45,-0.6 0.16,-0.61 -0.36,-0.47 -1.53,0.12 0.43,-0.65 -1.87,-2.61 0.83,-1.64 -0.08,-1.41 -2.12,-2.42 0.56,-3.69 0,0 2.68,1.51 2.74,3.17 2.93,1.32 2.4,2.34 5.77,-0.91 2.56,2.58 -0.63,0.2 -1.14,3.08 5.03,4.51 -5.36,5.19 -3.67,-0.25 -4.85,4.22 1.07,5.32 -0.14,3.76 1.34,-0.07 -0.99,5.23 6.89,2.02 0.79,-3.21 2.75,-0.83 1.11,1.75 4.58,-2.01 1.35,1.23 7.09,2.26 2.5,2.34 0,0 -0.82,1.19 0.35,0.65 -7.73,4.01 -1.34,1.34 -3.08,2.47 -3.3,4.03 -3.32,8.79 -3.13,9.24 0.8,2.7 -0.27,0.78 -0.28,0.72 0.7,2.42 2.18,3.31 1.56,1.07 10.46,5.46 8.6,0.88 7.11,6.79 3.91,5.18 0.33,3.15 1.01,0.97 -1.3,3.95 0.35,3.53 1.03,1.57 -0.36,2.15 -1.04,1.92 -1.62,0.76 -2.66,3.24 -2.07,0.87 -0.46,0.74 -1.43,-0.44 -0.95,0.66 -1.18,-0.34 -2.18,4.38 -1.79,-0.57 -6,0.02 -3.4,-0.9 -5.46,1.61 -4.03,2.59 -1.65,0.11 -3.64,2.92 -0.22,-0.58 -0.63,0.1 -3.32,5.33 -3.05,2.26 -0.85,1.82 -0.24,3.62 0.81,4.72 -1.92,1.54 -1.74,0.19 -1.13,-1.15 0.96,-3.71 -0.1,-2.2 1.67,-2.87 -0.66,-0.61 -4.14,0.47 -4.35,2.12 -2.62,4.31 0.03,0.64 1,0.64 1.83,-0.02 0.56,0.62 0.64,1.67 -0.85,1.55 0.19,1.18 1.67,-0.77 0.57,0.31 -0.46,0.55 1.03,0.48 1.66,-2.36 2.52,0.06 0.6,0.54 -0.58,1.23 2.13,-0.15 0.36,-0.87 1.35,0.65 1.71,-0.6 -0.41,-1.08 0.99,-0.11 4.83,1.75 2.22,2.38 -0.11,2.21 -0.76,0.17 -0.62,1.35 -0.01,2.77 -2.21,2.74 -2.65,-1.58 -1.67,0.93 -0.37,-1.32 -1.04,-0.47 -0.43,-0.56 -1.4,-0.59 0.49,1.58 1.78,0.18 0.48,1.43 -0.55,0.55 1.44,0.35 -1.55,1.36 0.94,0.05 0.24,1.97 0.99,1.02 -0.43,1.95 2.27,0.45 -0.67,1.82 4.42,8.3 -0.28,2.42 -0.57,-0.52 -2.43,0.04 -0.9,0.67 -2.69,-0.45 -1.74,1.09 -0.71,1.49 -1.28,0.58 -2.39,2.69 -3.48,1.95 -3.69,-0.04 -6.55,-3.35 -2.29,-2.26 -1.05,-2.55 -5.74,-2 -0.62,0.45 1.34,0.59 0.14,1.31 -2.95,0.18 -1.84,-1.86 -2.81,-1.28 -1.5,-1.92 -3.29,-2.06 -2.72,-3.29 -4.85,-2.4 -6.16,-1.75 -4.24,-2.03 -2.68,-2.04 -7.49,-2.01 -0.8,-0.74 1.88,0.1 12.34,4.11 3.36,0.33 10.84,5.53 1.06,-1.26 -0.51,-1.72 -2.4,-2.78 -0.38,-1.58 -3.93,-2.23 -0.86,-1.31 -1,0.7 0.49,1.17 1.11,0.71 -2.5,-0.2 -1.73,-2.65 1.14,0.03 0.86,-1.57 -0.9,0.65 -1.8,-0.44 -3.22,-4.8 -0.05,-2.73 0.67,-1.03 0.96,0.81 -0.45,1.3 2.93,-0.28 1.46,0.62 0.72,-0.64 0.46,-1.87 1.39,-0.84 4.02,0.91 1.23,-0.54 0.19,-0.96 -1.07,-3.6 -1.19,-0.04 -0.86,-0.89 -0.83,0.05 -0.59,1.43 -0.83,0.21 -1.12,-0.76 0.28,-1.55 -2.87,0.61 -1.53,-0.57 -1.06,0.95 -2.31,-0.96 -0.46,-0.66 0.22,-2.48 3.89,-2.69 -0.63,-1.04 -1.53,0.77 -0.5,-0.07 0.06,-0.59 2.89,-3.31 -1.28,0.18 -0.59,-1.06 -2.58,-1.81 -3.74,0.54 -4.33,4.5 0.16,1.6 -2.29,1.21 -1.27,-1.31 -1.53,-0.12 -3.07,-1.87 -2.28,0.48 -1.27,-0.61 -2.78,0.1 -3.23,-1.56 -3.39,-0.76 -1.44,0.53 -0.62,-1.78 -1.53,-0.48 -1.41,0.57 0.13,-1.27 -1.57,-1.62 -1.22,0.68 -1.31,-1.15 -1.15,-0.15 -0.89,2.11 -1.24,0.98 0.38,0.81 1.02,-0.19 0.35,-0.68 2.34,0.43 0.79,0.61 -0.37,0.81 1.08,0.64 0.15,1.94 -3.04,0.6 -4.15,-1.15 -2.38,0.28 1.12,-1.64 0.78,0.96 0.54,-0.49 1.7,1.21 0.71,-0.2 -0.78,-0.49 -0.48,-3.44 -2.18,-0.62 -2.58,2.43 -1.38,0.24 -0.99,-0.62 -1.27,-2.23 -1.47,0.92 0,1.03 -0.66,0.37 -0.89,-2.26 -1.93,0.05 -0.65,2.18 0.65,1.13 -0.91,0.2 -2,0.5 -1.93,-1.86 -3.29,-0.22 -1.22,-0.95 -0.64,-0.66 0.83,-0.28 -1.77,-2.29 0.13,-0.51 1.81,-0.49 -2.44,-5.13 0.79,-0.58 1.12,0.53 -0.06,0.85 3.27,0.59 0.66,0.91 0.79,-0.39 1.03,-3.74 0.51,-0.92 0.8,-0.13 1.16,-2.83 -0.67,-2.84 -1.41,0.35 -0.58,0.97 -0.47,4.06 1.04,0.79 -2.46,1.65 -0.9,1.97 -1.24,-1.99 -0.83,-0.35 -0.75,0.53 -1.06,-0.85 0.82,-3.2 -1.09,-2.52 -0.3,-3.15 -4.8,-3.26 -3.54,-1.49 -3.32,-3.57 -2.82,-1.35 -0.17,-1.57 0.89,-0.55 0.62,0.96 1.81,0.22 0.18,0.54 2.23,-0.17 1.27,0.81 1.16,-0.32 0.35,-1.24 2.06,-1.15 0.28,-1.48 -0.42,-0.61 -1.09,-0.24 -2.21,-1.97 -2.13,-0.07 -1.18,1.03 0.66,1.05 -0.48,1.14 0.75,0.73 -3.09,1.61 -0.5,-1.3 -1.87,-0.15 -2.01,-2.64 -2.31,0.35 0.22,-1.25 2.71,-4.41 0.87,1.31 4.26,-0.68 3.66,-2.92 3.43,-0.74 1.64,-2.37 0.18,-1.27 -0.23,-1.32 -2.55,-3.69 1.29,-6.25 -0.49,-2.41 -3.21,-5.39 0.06,-3.24 -0.6,-1.87 -4.49,-4.5 -0.65,-1.9 -1.32,-0.72 -0.54,-1.59 -1.08,1.04 0.35,1.48 0.86,-0.28 -1.55,2.72 -2.54,0.37 -1.94,-1.03 1.27,-4.75 0.82,-0.4 1.21,0.6 1.49,-0.81 3.5,0.12 -0.16,0.58 0.75,0.49 1.13,-0.61 0.42,-0.94 -1.81,0.82 -0.11,-0.54 1.49,-2.37 0.68,-2.44 -1,-6.93 -2.85,-6.62 -2.65,-2.77 -9.88,-6.28 -4.19,-1.31 -9.03,-1.01 -1.42,-1.11 -0.14,-1.66 1.16,-0.85 2.52,0.54 0.78,0.8 3.13,0.32 1.6,-0.54 8.09,1.85 1.74,0.05 2.03,-1 0.39,1.02 0.54,-0.79 1.49,-0.29 0.25,-0.8 -0.63,0.27 -1.31,-0.65 0.18,-0.54 0.99,0.23 -0.07,-0.49 0.76,-0.01 -0.15,-0.59 -0.77,0.36 -3.44,-1.35 1.14,2.45 -0.47,0.08 -2.1,-3.09 -5.11,-3.78 -4.1,-6.35 -1.43,-0.76 -2.19,-0.59 -5.52,0.66 -2.67,-0.49 -3.31,-1.53 -2.28,-1.94 3.88,-0.15 6.7,-1.92 5.72,1.22 2.88,1.14 1.19,1.17 4.19,1.3 4.83,-0.83 3.75,-1.94 2.7,-2.23 2.56,-0.29 1.91,0.56 2.48,-0.83 0.35,1.52 -0.54,0.26 2.79,3.77 2.19,-0.15 0.9,-1.76 -0.57,-1.23 1.05,-0.74 0.75,1.26 3.98,3.16 1.83,-0.45 2.2,-1.99 0.77,-3.38 0.71,-0.18 0.99,2.8 0.82,-2.75 2.65,0.16 2.85,-1.03 2.94,-2.64 0.92,-2.38 0.75,-2.71 -0.91,-2.2 0.14,-6.09 -0.56,-2.61 -1.19,-2.04 -1.36,0.26 0.38,-0.74 0.77,-0.48 1.6,1.3 0.33,1.09 2.32,1.29 1.82,-0.58 5.64,-3.56 3.24,-0.3 1.7,0.72 1.21,-0.28 3.29,-4.48 1.27,-4.6 -0.25,-2.94 0.43,-5.12 -1.32,-3.79 -7.65,-4.25 -11.73,-1 -5.64,-3.96 -3.62,-1.48 -1.62,0.02 -1.24,-2.11 -1.61,-6.61 3.57,5.29 6.19,2.2 z" 
                fill="rgb(151, 144, 238)" 
                stroke="white" 
                stroke-width=".7px"
                title="Sjælland" 
                id="DK-85" 
            />
        </svg>