<svg xmlns="http://www.w3.org/2000/svg" viewBox="0.25749937000012935 454.2226100000011 398.55000063 299.2699999999988" width="398.55000063" height="299.2699999999988">
            <path 
                d="m 353.1175,710.15261 -0.44,1.84 -1.55,1.36 -0.7,-0.25 -1.12,-2.24 0.29,-0.4 -0.92,-0.92 -0.3,-2.24 3.63,-0.91 0.78,0.64 -0.45,1.41 0.78,1.71 z m -18.82,-3.7 0.31,0.96 -2.34,-0.64 0.89,-1.85 1.14,1.53 z m 1.84,-4.07 1.22,1.85 -1.8,0.18 -0.43,-1.8 0.72,-1.05 0.29,0.82 z m 22.57,-6.13 1.97,0.53 0.78,-0.45 1.81,0.75 0.52,1.99 -1.58,0.01 -0.6,-1.22 -0.89,0.07 -0.29,-0.88 -1.8,-0.2 0.08,-0.6 z m -23.33,-1.41 -1.03,1.81 -0.66,0.12 -1.22,-2.05 1.86,0.29 0.87,-0.63 0.18,0.46 z m -40.34,-1.25 2.29,0.62 0.35,2.17 4,4.08 4.01,0.81 5.79,5.97 1.67,3.54 3.83,1.27 0.94,2.45 1.76,-0.47 3.22,-4 -0.68,-1.15 -1.59,-0.69 -0.13,-0.8 0.76,0.04 2.55,2.82 -0.18,1.05 -0.69,-0.2 -0.29,0.5 1.23,1.51 0.81,3.23 2.26,2.54 1.65,1.02 1.37,-1.16 0.48,-1.98 2.84,2.71 0.59,-0.41 -1.18,-0.97 0.01,-0.81 -2.31,-3.05 -1.63,-0.85 0.07,-0.67 2.91,-0.3 -1.79,0.55 -0.03,0.69 1.93,0.3 6.86,7.02 0.29,2.28 -0.44,0.87 1.75,-0.47 -0.85,-0.73 -0.09,-1.13 1.54,1.81 -1.79,0.71 -9.22,1.12 -1.96,1.18 -0.87,0.96 -0.33,1.9 -1.9,1.45 -3.11,-2.89 -3.54,-2.1 -4.07,-4.61 -3.19,-4.83 -4.49,-2.91 -5.74,-7.3 -1.01,-5.44 -3.81,-3.94 -0.75,-1.29 -0.1,-2.02 z m 29.99,-3.03 2.47,3.4 -1.97,1.87 -0.77,-0.02 -4.52,-3.59 -1,0.22 -1.16,1.36 -0.99,-0.22 -0.6,-1.24 1.16,-0.61 0.67,0.35 1.05,-1.01 0.58,0.1 0.06,0.8 2.96,-0.04 0.8,0.94 1.2,0.03 0.56,-0.61 -0.5,-1.73 z m 5.98,-6.65 2.14,0.88 1.42,1.46 -2.13,-0.46 -1.1,1.28 -1.68,-0.2 -0.32,-1.61 1.46,-2.06 0.21,0.71 z m -26.53,-2.7 1.4,0.97 2.12,-0.13 2.46,1.81 2.78,-1.12 0.38,2.57 -1.38,0.34 -2.77,-1.34 -2,-1.92 -5.32,0.03 -2.96,-3.18 0.46,-1.5 1.82,-0.54 2.15,2.17 0.86,1.84 z m 49.41,-7.78 0.8,0.5 -0.38,1.07 1.23,0.82 -0.62,2.09 0.88,0.68 1.65,0.03 0.35,2.21 -0.42,0.85 -1.04,0.25 -1.42,5.26 -0.64,0.91 -0.63,0.06 -0.1,-0.6 -0.75,1.65 1.5,2.1 2.97,0.68 1.66,-1.66 0.49,-2.27 1.74,-0.8 1.16,0.28 -0.7,2.79 0.25,2.7 -0.32,0.6 -0.31,-0.55 -1.98,-0.07 -2.41,0.56 -1.24,1.87 -1.45,0.55 -1.78,3.25 -5.02,-1.78 -1.05,0.17 1.73,1.8 -2.42,-0.32 -2.34,1.34 0.11,-0.91 1.27,-1.08 -0.28,-0.49 -1.75,0.31 0.12,-2.41 -2.86,-2.39 -0.62,-1.25 -0.16,-3.74 0.67,-0.94 -1.7,-0.84 -0.22,-1.94 2.41,0.02 1.65,-2.33 3.97,-2.03 1.88,-2.44 1.45,-0.25 1.13,-1.91 2.77,-1.78 -0.65,-0.55 1.42,-0.07 z m 9.66,-0.14 0.99,0.63 1.29,5.69 -1.06,-0.04 -1.04,-0.9 -2.78,0.99 -1.94,-0.18 0.38,-1.75 2.96,-0.11 1.16,-0.83 -4.29,-0.19 -2.34,1.07 -0.34,-0.3 -0.42,-2.38 0.83,-0.72 2.38,0.44 4.22,-1.42 z m -74.86,1.53 2.04,0.5 0.75,1.3 -1.36,1.47 -3.22,0.99 -1.35,-0.62 -1.55,-2.56 -0.15,-2.24 2.15,-1.54 -0.11,1.92 2.8,0.78 z m 14.73,-1.5 0.12,0.48 -1.67,-0.56 -2.06,-1.7 -0.82,-1.26 0.26,-0.74 3.16,2.19 1.01,1.59 z m -58.9,1.53 1.69,0.72 1.17,2.28 2.26,2.41 2.77,1.65 3.96,0.31 3.18,1.4 2.24,1.69 2.12,2.94 0.57,0.48 1.62,1.78 4.08,8.31 2.51,4.41 0.08,3.01 0.64,2.37 1.27,2.88 1.06,0.87 0.72,3.99 -0.94,0.87 -3.95,-0.4 -2.02,0.63 -4.53,4.79 -6.41,-0.3 -4.63,-2.55 -2.5,-0.16 -3.2,-2.9 0.18,-0.69 4.26,-4.02 2.4,3.04 1.48,0.24 3.35,2.12 0.32,1.4 2.33,0.17 2.57,2.78 1.08,-1.01 -1.29,-3.15 -1.22,-1.38 -3.51,-2.3 -0.7,-1.04 -4.26,-1.69 -1.23,-1.41 -2.42,-0.51 -0.78,0.33 -0.88,1.82 -1.16,-0.26 -5.47,2.63 -4.96,-2.01 -1.78,-2.08 0.29,-1.08 -0.5,-1.14 -1.69,-0.75 0.03,-1.94 -0.89,-1.79 0.27,-2.26 -0.82,-6.65 -1.13,-1.56 1.2,-1.18 1.89,2.89 2.74,0.83 3.74,6.12 1.31,0.94 -0.84,0.93 1.55,0.06 0.69,-0.33 4.68,-1.8 -0.07,-0.47 -2.7,0.61 -2.51,-1.55 2.9,-1.09 -0.22,-0.48 -2.02,0.35 -1.06,-0.82 1.41,-2.19 1.31,0.3 0.48,-0.47 -0.46,-0.65 -0.94,0.2 -3.17,-2.61 -5.25,-0.8 -0.53,-1.25 0.48,-0.86 2.59,-1.17 -3.18,0.77 -0.6,-0.61 0.11,-0.93 2.14,-0.88 0.27,-1.6 -3.88,-0.29 -9.07,1.07 -3.15,-1.98 -1.25,-1.46 -0.93,-0.07 -0.12,-1.77 3.48,-0.91 1.53,-1.4 1.15,0.37 -0.1,1.21 1.92,0.1 -1.53,-1.48 0.32,-0.3 -1.62,-0.16 1.22,-0.6 -0.08,-0.7 -1.34,0.11 0.04,0.51 -1.44,0.93 0.46,0.72 -1.36,0.04 -2.52,-0.93 -2.46,-0.01 -0.74,-1.32 0.06,-1.61 1.81,-0.86 2.09,-2.67 4.45,-2.81 6.18,-1.52 3.32,0.75 6.72,3.9 3.27,3.59 z m -37.22,-15.38 -0.64,0.59 -1.95,0.03 -0.11,-1.89 -0.85,-0.29 -0.11,-1.12 0.61,-1.46 1.71,0.26 1.36,1.98 -0.02,1.9 z m 191.51,-7.96 -2.76,15.39 -5.45,18.06 -0.21,3.1 -5.12,6.55 -3.79,8.49 -0.5,3.67 -1.27,1.95 -0.4,5.54 -5.32,13.54 -0.24,2.48 -2.75,7.58 -2.61,10.44 -2.65,3.87 -3.1,1.32 -1.11,-0.43 -2.57,-3.89 0.38,-0.48 -0.51,-1.65 1.12,-0.76 0.14,-1.45 -2.19,-5.16 -0.22,-4.24 -3.17,-4.92 -4.55,-2.99 -0.96,-2.02 0.52,-0.07 0.19,0.73 2.96,0.19 1.65,1.27 0.43,-0.72 0.65,0.11 -0.04,0.76 0.8,-0.24 1.74,-3.81 1.37,-0.38 -0.9,-0.88 1.12,-7.27 1.52,-0.2 0.49,1.89 2.22,1.05 0.52,-1.52 3.04,-0.24 -1.5,-1.61 -0.18,-1.01 -0.58,-1.14 -0.61,-0.88 -0.05,-2.44 -1.25,2.44 -1.58,-0.91 -0.86,0.69 -0.68,-2.94 1.02,-0.82 0.44,-2.37 1.88,-1.8 0.64,-1.77 1.6,-1 0.59,-0.69 0.59,-2.11 4.46,-5.18 1.5,-0.75 0.36,-0.93 2.52,0.28 2.9,-3.14 0.58,-2.03 1.49,-1.87 0.46,-2.33 2.68,-3.34 0.31,-2.56 1.77,-3.61 2.05,-10.15 3.09,-5.66 0.38,-3.13 2.68,-2.5 1.38,-2.75 1.23,-1.06 1.74,1.4 0.48,3.01 z m -165.87,-30.48 0.67,4.01 0.34,-0.07 0.81,-1.04 -1.08,-0.49 0.12,-0.78 0.72,0.17 1.47,-1.13 -0.4,1.7 -2.37,3.12 -2.78,0.09 -1.92,-2.33 1.03,-0.73 -0.84,-1.91 2.76,-1.04 1.47,0.43 z m 8.75,-13.27 1.39,4.01 -0.34,2.32 -4.01,1.34 -0.51,-0.72 0.06,-2.9 -0.74,-1.39 0.8,-2.39 2.05,1.69 0.18,-0.92 -0.85,-0.14 1.97,-0.9 z m -14.7,-6.82 -1.88,0.98 -1.81,-1.43 1.44,-1.61 1.64,-0.25 1.65,1.78 -1.04,0.53 z m -189.430001,-25.19 0.78,1.25 0.61,-2.03 2.29,-1.83 3.22,0.22 2.03,0.92 -0.54,7.21 0.73,1.4 1.36,1.06 1.69,-2.71 0.99,-0.42 2.02,1.38 -0.14,1.23 1.77,5.15 -2.6,2.78 0.19,1.23 2.55,2.99 0.8,5.28 1.35,-0.19 -1.56,3.26 0.43,0.88 -3.24,-0.49 -3.5,-2.72 -7,-15.41 -3.24,-4.11 -2.83,-1.99 -0.44,-4.17 4.2,-2.96 -1.92,2.79 z m 294.690001,-1.87 -2.5,0.83 -0.21,-0.95 0.11,-1.65 1.1,-1.25 1.43,-0.4 -1.12,1.79 1.19,1.63 z m -106.96,-2.05 -1.78,-0.37 -0.29,-1.45 -1.52,-2.21 0.53,-2.24 1.77,0.64 1.65,2.77 1.52,0.27 0.17,1.62 -2.05,0.97 z m 125.97,-24.77 -0.48,0.05 -0.27,-1.49 0.4,-1.02 0.35,2.46 z m 0.23,-5.31 0.3,2.26 1.02,0.12 -0.75,0.36 0.2,1.21 -1.27,-2.19 0.5,-1.76 z m -2.6,-3.18 0.8,0.42 2.03,-0.28 0.32,-1.98 -1.35,0.25 -0.34,1.05 -0.15,-0.65 -0.71,0.24 0.44,-0.62 2.14,-0.49 0.89,1.19 6.61,11.21 1.45,3.65 3.17,3.68 -0.33,2.73 1.48,4.14 1.07,1.71 2.49,2.08 1.38,3.25 -0.23,1.18 -1.43,0.68 -1.7,0.17 -1.67,-0.58 -5.45,2.85 -1.1,1.93 0.03,1.3 -1.77,0.94 -0.94,-1.04 -1.69,-0.32 -0.18,1.02 0.47,0.27 -1.24,0.26 -1.69,-0.77 -1.02,-1.75 -3.58,-1.4 -0.09,0.88 -3.69,1.09 0.57,1.18 -0.45,1.01 -1.59,-0.14 0.13,1.05 3.8,4.56 0.64,0.09 0.93,-1.42 -1.12,-5.46 1.78,-1.65 2.49,1.22 0.02,1.06 2.6,0.89 1.98,1.49 1.27,-1.13 1.08,0.12 0.34,-1.12 1.17,-0.77 0.12,0.79 2.78,2.41 1.89,3.07 1.62,1.73 1.66,0.48 2.33,4.1 2.89,2.53 1.65,3.88 2.25,3.13 3.85,11.82 2.91,2.52 1.73,-0.02 -0.06,0.47 -1.24,0.24 1.16,1.33 -0.22,0.69 -3.43,0.95 -0.41,-0.27 0.42,-0.57 0.56,0.29 0.24,-0.41 -0.91,-0.81 0.27,-0.87 -1.08,-0.71 -0.51,0.85 -0.19,-0.8 -0.85,-0.14 -0.32,-0.87 -1.1,-0.65 -0.48,0.37 -1.05,-0.53 0.38,1.92 -0.62,-0.55 -0.88,0.89 -2.73,-0.4 -1.49,0.78 4.57,-0.05 1.09,1.01 0.49,1.07 -0.59,3.38 3.82,10.14 -0.84,2.74 0.44,3.26 -0.77,6.21 -2.13,4.11 -0.1,2.04 -0.93,2.09 0.2,1.9 -0.89,1.61 -0.03,2.75 -1.07,2.58 0.62,2.1 -1.43,0.18 -1.18,1.05 -0.77,4.38 -1.04,2.26 -2.78,1.04 -2.52,1.84 0.18,-1.02 -2.36,-0.62 -0.73,1.34 -2.26,-0.13 -0.55,0.56 -0.88,-0.44 -2.12,0.73 -0.82,-1.14 -1.76,0.07 -1.2,-0.69 -0.17,2.06 -1.07,0.3 -1.1,1.25 -9.42,3.66 -1.85,1.36 -3.8,-1.12 -1.18,-1.94 -1.33,-0.74 -1.72,0.53 -4.99,-0.37 -0.97,0.52 -4.03,-2.29 0.35,-1.22 -2.02,-2.69 -0.85,0.29 0.3,1.16 -2.15,2.06 -1.18,-0.19 -0.08,-0.55 -1.86,0.35 -1.64,-0.43 -0.18,-2.07 -2.92,-0.94 -0.29,-1.16 -1.53,-1.11 -0.11,-1.01 -1.35,-1.05 -1.97,-0.32 -1.96,-1.67 -0.95,-0.04 -0.87,-0.79 0.38,-0.44 -0.93,-0.73 -2.74,1.69 2.01,1.36 0.85,2.64 -0.69,1.13 -1.35,0.49 -0.21,1.18 -1.5,-0.14 0.02,0.76 1.99,-0.2 -1.44,1.14 -1.08,-0.79 -0.25,-1.72 -1.58,-2.19 -3.43,-0.2 -4.13,-2.52 -7.73,3.46 -0.69,-2.53 1.58,-2.99 0.26,-1.85 0.77,-0.54 0.74,0.67 1.37,-0.14 1.76,-2.34 1.66,-0.64 0.94,0.24 0.51,-0.91 0.93,0.29 -0.01,-0.78 1.63,0.42 2.39,-1.56 -1.64,-0.96 -2.65,-5.13 -0.69,0.38 -0.57,-0.52 -0.21,-2.96 -1.85,-2.39 -0.98,-3.21 -0.8,-0.12 -0.93,1.7 -0.83,-0.38 -1.21,2.02 -5.19,-0.27 -3.99,-1.04 -0.17,-3.37 -3.29,-1.55 -0.64,0.71 1.12,1.65 0.72,0.47 -0.97,1.58 -0.9,-0.59 -0.44,2.56 1.3,-0.98 -0.48,1.53 0.79,1.82 2.02,1.37 4.42,6.43 -1.34,2.3 -1.34,0.86 -2.78,-0.67 -3.6,-2.29 -0.19,-0.6 1.45,-1.43 0.47,-1.52 -1.28,-4.8 0.86,-8.36 -0.39,-1.26 -1.04,-1.64 -1.64,-1.17 -5.23,-0.13 -0.92,-2.34 -1.84,-1.88 -3.62,-2.22 -0.43,0.59 -1.69,-2.08 0.91,-0.45 0.65,0.81 1.54,0.23 -0.83,0.68 1.21,0.55 0.18,-0.21 0.82,-1.59 -0.43,-1.06 -1.49,-0.79 -0.55,-1.64 0.56,0.09 0.64,-0.8 0.48,-8.87 -0.79,-3.54 -1.37,-2.88 0.14,-1.78 1.21,0.68 1.03,0.38 0.56,-1.11 -2.44,-0.9 -0.97,-1.87 0.18,-1.41 -1.82,1.46 -3.05,0.15 -7.38,-3.22 0.41,-2.78 4.06,-0.38 1.73,-0.67 1.19,-1.26 0.08,-1.69 -2.34,-2.73 -1.21,-1.07 -3.67,-0.96 1.38,-1.13 2.47,0.91 1.14,-0.36 0.46,-1.15 -0.28,-1.3 -4.74,-2.15 -2.56,0.21 -4.04,-0.87 -0.47,-0.65 0.87,-1.99 -3.01,-3.34 -1.12,-2.25 0.77,-1.2 0.81,1.78 3.74,3.13 1.25,0.39 0.42,1.4 2.35,1.57 3.97,1.74 1.69,-0.61 -0.77,-1.4 -1.8,-0.8 -0.38,-1.56 -1.09,0.22 -1.91,-1.26 0.02,-0.65 -0.75,-0.02 0.48,-1.11 0.92,0.87 1.32,0.1 -0.91,-1.59 -0.89,0.19 -0.88,-1.3 -2.61,0.6 -2.3,-1.5 -1.71,-4.75 -3.84,-0.41 -0.58,-1.49 -2.22,-1.53 -0.46,-2.15 0.91,-0.74 1.75,0.16 3.54,2.41 3.15,0.42 1.39,-1.22 1.91,-4.67 -1.8,-2.98 3.75,0 3.17,-2.27 3.87,-0.65 1.93,1.02 0.51,1.27 -0.38,4.96 2.26,2.81 7.04,1.07 3.2,-0.63 7.93,-6.46 3.66,-1.91 1.74,-2.64 5.19,-1.15 1.01,-1.23 0.63,-0.45 2.8,-1.4 2.5,-0.63 1.96,-0.05 2.21,-1.65 3.41,-1.3 2.11,0.14 0.3,-0.44 -0.98,-1.51 1.13,0.22 0.69,1.04 1.15,-2.15 3.17,-1.07 7.4,-1.16 0.98,0.62 -1.53,-0.29 -0.41,0.77 0.86,2.5 -0.85,0.72 0.36,0.44 0.11,0.58 -0.4,0.98 1.7,0.47 0.7,-0.72 2.32,0.01 0.3,-0.93 -1.71,-1.57 0.07,-3.52 -1.7,-2.8 2.72,-0.48 14.36,8.18 4.87,4.94 12.19,9.13 3.15,3.68 -1.07,0.61 -2.19,-2.02 -1.9,-3.51 -3.99,-2.82 -0.63,0.58 0.84,1.63 -1.18,0.27 1.22,1.44 -1.98,-0.63 -0.76,1.04 -0.8,-0.26 -0.11,1.19 1.82,1.45 0.05,2.15 0.94,1.48 1.23,0.36 0.57,1.2 -1.54,1.02 -1.16,-0.57 -0.77,1.32 1.16,0.6 0.28,1.19 -4.37,-1.06 -0.51,0.51 0.06,2.02 -1.5,-0.31 -0.71,2.46 0.66,0.75 -0.88,0.43 -0.43,2.34 0.25,0.77 -1.51,3.26 0.27,0.51 0.83,-0.65 1.5,0.59 1.85,-1.7 2.22,1.36 1.23,-1.5 1.24,-0.51 1,-1.57 -0.85,-1.78 -0.72,0.36 0.24,0.69 -1.17,-0.33 0.21,-1.13 0.62,0.69 0.68,-0.46 -1.15,-2.94 5.55,1.87 1.07,-0.57 1.24,-2.04 1.79,1.21 0.84,-0.11 0.02,-0.87 2.13,-0.44 0.83,-1.34 2.45,-0.43 1.89,1.43 1.74,-2.1 0.34,-0.87 -0.96,-1.33 0.04,-2 -3.97,-2.21 -2.84,-0.74 -0.53,-0.8 0.11,-1.08 1.43,-1.43 1.45,-0.49 1.06,0.38 0.94,2.19 1.63,1.08 1,0.3 0.93,-0.9 0.13,-0.93 -1.56,-1.7 0.33,-3.72 -2.06,-3.23 -0.13,-2.77 -1.18,-3.42 1.04,-2.49 0.31,0.65 -0.42,0.19 -0.74,1.54 1.78,3.76 2.25,2.8 0.77,-1.48 -0.23,-0.62 0.66,-0.29 -1.78,-1.46 0.06,-0.48 1.27,0.12 -0.53,-3.6 -1.06,-1.36 -0.63,-3.17 -0.89,-0.09 -0.39,0.9 -2.6,-2 0.36,-1.82 1.07,1.78 -0.77,0.36 z m -58.86,-8.71 2.82,0.87 0.26,1.46 -1.37,1.68 0.02,3.63 0.8,1.53 -0.7,1.02 -0.62,-1.07 0.29,-4.66 -2.02,-2.39 -0.51,-2.11 1.03,0.04 z m -119.81,-71.29 1.28,0.15 0.53,1.17 1.4,-0.37 0.86,0.88 0.5,-0.68 0,0 0.51,-0.54 0,0 1.37,-0.02 -0.7,-0.38 0,0 -0.01,-0.07 0,0 0.67,-0.33 2.04,1.79 2.97,1.21 0,0 0.45,1.35 -0.41,0.24 10.2,14.1 -2.77,1.99 2.14,0.93 -1.14,3.77 4.99,0.49 -0.06,1.32 2.88,0.07 0.47,4.12 1.81,6.03 2.86,0.51 -0.22,2.54 5.56,-0.36 0.86,-1.62 1.52,2.06 -1.64,2.18 2.39,2.96 3.1,-1.54 3.23,1.09 0.57,-1.4 4.09,2.48 0.42,3.33 -1.73,5.82 0,0 -9.52,1.8 -0.63,-0.62 -2.63,0.74 -1.79,-0.42 -0.29,-0.78 -0.91,-0.33 -0.37,1.12 0.55,0.5 -0.41,1.21 4.37,2.22 7.94,-1.02 1.4,1.05 1.66,-1.2 2.57,2.93 0.34,1.72 2.22,2.62 1.09,-0.34 3.53,1.96 1.21,6.24 0.65,1.61 1.13,0.85 5.44,-0.71 1.11,-0.62 7.35,0.81 -1.7,2.11 -7.27,5.32 -0.69,2.97 -2.8,3.37 -0.27,3.11 -1.7,-0.78 -1.61,0.35 -0.97,-0.35 -0.49,0.39 -0.68,1.44 0.18,2.15 1.71,4.6 -0.23,1.32 -2.31,0.12 -4.05,-1.76 -2.94,-0.56 -4.57,4.54 -1.9,-1.12 -1.18,0.78 -1.35,0.01 -0.42,-2.28 -0.55,0.24 -4.48,-2.12 -0.66,0.84 0.98,1.61 0.68,0.22 0.87,-0.7 0.94,0.16 0,0.46 -1.63,1.4 -2.13,-1.41 -0.62,0.51 3.23,1.24 0.43,3.1 -1.43,-0.51 -4.41,0.67 -2.7,-0.31 -1.02,-0.8 -4.48,2.69 1.91,0.12 2.5,1.44 1.88,-0.96 5.76,-1.25 1.01,1.36 1.37,0.32 2.32,-2.71 0.97,0.43 2.12,-0.89 9.37,9.19 -0.85,1.71 -4.67,4.25 -2.82,1.47 -2.84,0.12 -1.95,0.9 -0.79,1.84 2.82,5.57 1.17,1.03 0.05,1.22 -0.93,3.51 -1.88,2.74 -0.34,-1.28 -1.17,-1.15 -2.43,-0.83 -1.29,0.55 0.72,0.21 0.84,2.17 1.06,0.42 1.09,-0.33 0.31,0.49 0.67,-0.39 0.41,1.09 3.24,0.13 3.15,3.54 0.44,3.54 -2.49,3.6 1.45,-0.08 4.06,6.65 -0.75,-0.57 -2.12,0.35 -1.5,-1.05 -1.66,0.25 -2.39,3.75 -3.76,0.98 -0.15,2.78 -1.52,0.15 -0.98,1.62 -0.13,0.71 0.62,0.21 0.39,-1.17 2.54,-1.26 -0.48,-1.65 0.48,-1.01 3.04,-0.66 2.31,-3.24 1.03,-0.2 1.45,1.15 1.63,-0.65 3.61,3.08 3.94,2.03 0.9,2.75 -0.94,1.88 0.51,1.33 -2.5,2.59 -0.9,1.78 0.69,4.7 -0.36,1.29 -8.87,4.98 -1.16,-1.63 0.7,-1.99 0.72,1.08 -0.43,0.15 0.13,2.04 1.02,0.02 0.25,-0.53 -1.25,-2.81 -5.48,-0.95 -3.89,3.8 -1.93,0.75 -3.04,2.63 -3.74,1.66 -0.28,0.99 0.77,0.79 0.41,3.37 2.06,1.49 -0.11,0.54 -2.83,0.07 -3.39,-1.11 -1.42,1.64 0.2,0.69 0.53,-0.18 -0.11,1.44 -0.82,-0.04 0.08,-0.83 -0.79,1.43 1.23,0.09 1.64,-1.13 0.55,0.92 1.25,-1.14 0.85,0.13 1.35,1.93 1.79,0.35 1.88,2.28 0.8,1.98 1.62,0.55 -0.06,3.43 -6.93,7.26 -0.65,-0.58 -4.06,-0.15 -0.83,1.03 -2.54,0.8 -1.85,-0.5 -0.31,-0.98 0.16,1.02 -0.62,0.19 0.63,0.08 -0.61,0.27 0.55,-0.03 0.16,0.72 -0.8,-0.15 0.35,0.72 -0.49,0.37 0.49,2.09 1.27,0.78 0.14,-0.72 0.81,-0.16 1.74,2.18 3.71,-0.37 1.62,0.73 1.95,-0.44 1.7,-1.89 4.03,-1.71 3.53,-0.68 0.09,-1.91 1.17,-0.4 3.34,2.05 1.56,3.92 1.71,2.15 3.2,1.03 4.11,2.69 1.45,1.66 2.78,-0.56 3.36,0.67 0.22,3.21 1.73,1.93 -0.32,1.7 0.72,7.24 1.25,0.8 0.49,2.33 2.07,1.18 -0.62,1.82 -2.95,1.52 -6.43,-1.53 -1.17,1.83 0.22,1.27 1.16,0.62 1.87,-0.25 2.07,1.86 0.37,2.82 2.19,1.88 0.39,2.71 -1.2,2.43 -3.53,1.26 -0.77,-1.42 -2.35,-1.37 0.25,-1.36 -3.6,-1.15 -3.1,0.5 -2.66,-1.38 -0.34,-1.42 1.97,-1.39 0.86,-2.02 -1.22,-0.18 -0.81,-0.82 -0.74,-2.02 -2.02,-0.47 -1.78,-1.98 -1.47,-0.5 1.04,-1.11 4.34,-1.22 1.55,0.12 1.01,1.59 1.84,-0.24 0.74,-0.89 -0.57,-1.43 -2.28,-1.8 -2.04,-1.36 -2.44,-0.56 -0.91,1.24 -0.49,3.35 -0.53,0.29 -0.66,-1.18 -1.12,0.29 -0.78,0.97 1.16,-0.03 0.6,1.12 -3.82,2.12 0.68,0.68 -0.2,1.91 -1.59,2.54 -1.29,0.77 -2.51,-1.3 -0.37,1.19 -1.68,-0.06 -0.57,1.18 -1.44,0.14 -1.55,2.54 -0.99,0.53 -0.91,2.3 -2.01,0.73 -1.17,1.44 -2.01,0.23 -2.18,1.46 -1.95,-0.01 0.01,-1.4 -1.29,-1.07 -0.85,0.49 -2.72,0.3 -0.56,1.48 -0.65,2.84 -2.45,1.42 -1.39,2.06 -0.38,1.54 -1.97,-1.28 -4.96,-0.79 0.19,1.73 -1.18,-0.62 -0.3,-1.28 -1.9,-0.6 -2.82,0.6 -1.97,-5.17 -0.06,-1 1.31,-2.03 -0.64,-1.47 -4.87,-2.17 -1.45,-0.05 -5.74,-2.87 -5.91,-0.67 -2.72,0.91 -5.94,-0.43 -4.62,-3.48 -4.2,-1.35 -4.95,-2.48 -4.84,0.12 -2.92,-0.69 -4.52,1.96 -1.51,-0.14 -2.12,-2.27 -1.26,-0.01 -0.78,0.69 -0.99,-0.48 -1.71,0.3 0.01,0.49 -3.120001,1.75 0.06,0.64 -3.05,-1.01 -3.75,0.99 -6.48,-4.23 -1.73,-0.22 -1.21,0.62 -3.36,-0.68 3.09,-12.41 0.16,-5.58 -3.78,-12.9 2.01,-11.94 0.51,0.07 1.29,-2.4 2,-6.55 1.2,-1.03 -0.61,-1.22 1.14,-2.05 -1.85,-0.86 -2.88,-0.18 -6.01,0.88 -7.23,-1.17 -0.8,1.85 0.65,4.04 0.58,0.7 -1.16,5.09 2.57,3.91 -0.77,0.09 -0.9,1.58 -1.41,0.8 -3.07,-0.34 1.08,0.8 -0.64,0.59 1.19,1.35 -1.45,0.69 -0.96,0.31 -1.9,0.58 -1.02,-0.86 -4.32,-7.04 -0.43,0.2 -0.28,-2.04 0.22,-0.44 1.45,0.13 0.17,-0.48 -1.56,-0.02 1.7,-9.99 0.43,-8.33 1.05,-1.8 1.41,0.92 0.38,-0.4 -0.04,-0.6 -1.65,-0.62 0.86,-3.22 1.48,-1.45 0.3,0.36 2.62,-0.84 -0.63,1.94 4.29,-0.08 3,0.71 0.46,0.57 1.99,1.54 0.23,0.79 -0.97,1.8 -1.9,1.79 -0.44,1.88 0.66,0.56 -0.85,2.04 8.68,1.36 4.7,-0.7 -0.08,-0.63 1.03,-0.97 1.04,-0.1 0.49,0.88 0.75,0.02 -0.3,-0.61 0.71,-0.68 -0.83,-0.75 -2.63,-14.41 -0.49,1.34 -0.88,-0.27 0.02,-1.58 0.87,-0.04 -0.37,-1.77 0.8,-0.99 -1.07,-0.54 -0.15,-1.26 0.72,-0.94 -0.52,-0.67 0.98,-0.99 -1.27,-0.33 -0.23,-1.01 1.25,-0.44 -0.26,-0.85 -1.07,0.22 -0.27,-0.89 -0.83,0.02 -0.34,-0.59 0.85,-0.65 0.23,-1.55 0.5,0.72 0.71,-0.19 -0.82,-4.13 0.73,-2.74 -2.18,-0.73 -4.11,2.38 -1,1.28 -2.7,1.04 -2.32,5.15 -1.71,0.68 -1.82,-0.16 -1.72,-1.84 0.05,-2.1 2.12,-2.8 1.94,-0.66 4.09,0.6 7.12,-4.29 2.4,0.75 1.35,-3.67 0.14,-2.21 -0.81,-1.06 0.15,-1.13 -1.23,-1.76 -4.7,-18.74 -2.53,-1.36 -2.57,-2.37 -3.02,-1.3 -1.65,-1.92 -1.25,-0.39 -3.23,1.13 -6.57,-1.6 -0.82,1.69 -3.46,-1.52 1.14,-0.09 -0.18,-0.64 -1.59,-0.44 -0.2,0.92 -0.64,-0.54 0.76,-1.39 -0.96,-1.32 -1.22,-1.85 -0.55,-0.94 -13.81,-15.42 -3.28,-4.97 0.47,-1.84 2.57,-1.27 0.05,-0.92 -0.97,-1.4 -2.58,-1.43 -2.96,-0.25 -2.78,3.63 -0.43,1.82 -1.18,1.64 0.03,2.87 0.74,2.18 1.38,1.97 2.45,1.02 -1.34,2.4 1.22,1.96 2.16,1.34 2.95,3.44 0.07,3.69 -1.76,1.05 -14.13,-12.25 -16.21999963,-7.66 0.07,-1.5 2.67000003,-6.57 9.0099996,-29.56 2.24,-14.9 -0.75,-10.52 0,0 2.6,-0.48 0,0 -0.38,-1.23 -1.04,-0.69 0.06,-1.32 0,0 1.31,-0.3 4.88,1.31 -0.12,2.11 2.88,1.57 3.67,3.54 1.07,-0.06 0.72,-1 5.22,0.12 4.01,-5.24 4.04,5.1 6.1,0.61 -1.24,0.88 3.54,1.82 1.2,2.86 6.27,-0.08 2.66,-2.65 -0.16,-5.58 3.33,-0.68 1.31,-2.28 -1.94,-4.63 5.21,-1.6 3.2,3.15 11.51,-3.3 4.4,2.59 1.99,5.88 5.05,1.91 9.390001,-3.27 -4.470001,-4.52 3.970001,-2.38 2.28,-8.44 2.21,0.38 1.32,-3.73 1.94,0.4 0.33,-0.48 11.63,2.67 -1.07,9.69 7.12,3.66 2.86,-2.44 2.24,1.02 1.73,-3.51 1.67,1.53 1.94,-5.53 1.72,-2.53 2.8,1.95 4.48,-3.51 6.33,-8.18 -0.08,-3.44 3.35,-5.91 5.23,0.3 3.26,3.75 3.19,0.3 z m 49.05,176.34 -0.55,0.09 0.46,1.02 3.55,-0.62 -0.51,-1.04 -0.07,-0.49 -1.07,-1.88 -1.76,1.06 -0.05,1.86 z" 
                fill="rgb(151, 144, 238)" 
                stroke="white" 
                stroke-width=".7px"
                title="Syddanmark" 
                id="DK-83" 
            />
        </svg>