<svg xmlns="http://www.w3.org/2000/svg" viewBox="116.33039000000002 582.6627099999998 145.74 111.80999999999995" width="145.74" height="111.80999999999995">
            <path 
                d="m 220.16039,589.75271 5.07,1.76 0.98,0.14 1.77,1.33 0.62,0.16 4.46,-0.23 1.82,-0.45 0.54,-1.2 3.89,-4.48 2.96,-1.95 0.41,-1.93 0.61,-0.24 1.39,1.72 1.89,0.74 1.16,0.77 0.68,0.28 1.98,-0.23 0.62,0.25 1.09,1.76 0.59,-0.02 0.41,0.61 0.66,1.86 1.14,1 -0.27,1.72 0.31,0.63 0.21,1.86 1.14,1 0.43,1.1 -1.14,0.25 -3.07,1.43 -0.14,1.45 -0.79,0.34 -1.03,0.09 -2.07,-0.09 -0.36,0.2 0,0.46 2.32,2.74 0.36,1.86 0.41,0.72 2.12,1.27 0.57,2.76 1.39,1.43 0.11,0.88 -0.39,1.36 0.19,0.41 0.5,0.61 0.84,0.3 1.16,1.06 1.09,0.09 0.73,0.41 0.57,1.63 0.91,0.79 0.23,0.8 -0.1,0.95 0.94,1.86 -0.23,0.34 -1.66,0.58 -0.27,0.3 -0.19,0.99 -0.59,0.55 -0.84,0.29 -0.11,1 -0.6,0.54 -2.18,-0.65 -1.21,0.47 -0.84,-0.27 -1.68,-1.15 -0.84,0.27 -0.57,0.54 -0.25,1.45 -0.53,0.61 -1.5,1.34 -1.82,0.43 -0.11,1 -1.59,0.65 -0.23,0.32 -0.78,2.06 0.5,0.64 0.1,1.45 0.77,0.93 0.09,1.02 -0.41,0.7 -0.98,0.73 -0.18,1.29 -0.89,0.09 -0.93,-0.25 -2.3,0.47 -1.09,1.18 -1.89,1.48 -0.77,1.56 -0.8,0.91 -4.55,1.47 -1.09,0.61 -0.75,0.93 -0.66,2.4 -0.21,1.89 -0.38,1.2 0.25,1.97 -0.19,1.29 -1.11,1.86 -0.66,2.47 -1.12,1.18 -0.91,4.09 0,0 -1.4,-0.59 -0.54,-0.54 -0.78,-2.23 -1.19,-1.56 -2.75,-2.09 -3.08,0.21 -1.57,1.61 -2.26,0.49 -0.5,1.11 -0.05,1.9 0.86,2.27 0.94,1.35 -0.14,1.48 0.15,0.62 -1.21,2.88 -1.67,2.11 0.42,1.09 -0.88,1.54 0.39,1.99 1.31,0.5 0.16,1.13 -0.24,1.11 -0.49,0.36 -0.58,0.04 -2.2,-0.43 -0.36,0.25 -0.03,0.62 1.15,1.8 -0.69,2.2 -1.39,-0.47 -1.92,-1.8 -1.19,-0.08 -0.37,0.22 -1.91,3.16 -0.5,1.75 -0.56,0.92 -1.29,0.56 0,0 -0.3,-5.78 -0.76,-1.82 -2.48,-1.61 -3.04,-1.4 -6.1,-4.31 -2.6,-0.46 -0.77,-1.29 -0.05,-2.47 -0.38,-0.66 -1.21,-0.68 -0.91,-1.16 -0.36,-0.58 -0.25,-1.27 -1.25,-0.64 -0.39,-0.63 0.09,-1.21 -0.27,-0.7 -0.59,-0.38 -2.28,-3.18 -1.55,-3.1 -0.57,-0.68 -1.16,-0.32 -1.91,0.38 -1.3,-0.81 -1.2,0.25 -1.89,-1.09 -2.37,0.32 -1.16,-0.91 -0.59,-0.18 -1.89,0.54 -1.32,-0.52 -1.95,0.23 -0.59,-0.23 -0.78,-2.33 -0.59,-0.59 -3.16,-0.57 -1.46,-2.43 -1.48,-4.26 -1.05,-2.04 -3.61,-5.82 -1.44,-1.9 -2.07,-3.9 -2.32,-2.45 -4.32,-3.22 -4.39,-5.03 -2.05,-3.8 -2.64,-3.7 -2.55,-1.94 -3.09,-1.77 -0.25,-0.57 0.09,-0.59 1.32,-0.72 0.82,-1.25 0.59,-0.38 1.18,-0.25 0.62,-0.57 -1.32,-1.81 -0.37,-1.9 -0.36,-0.64 0.09,-0.63 1.18,-0.68 0.16,-0.59 -1.27,-2.38 -0.98,-5.41 0.11,-1.22 0.87,-1.84 2.17,-1.91 0,0 0.19,0.53 0.37,0.16 1.59,0.05 0.52,-0.07 0.69,-0.98 2.09,0.1 0.39,0.15 0.38,0.75 -1.2,0.48 -0.16,0.83 0.32,0.82 3.09,0 1.59,-0.54 1.62,1.2 0.84,0.29 0.27,0.29 -0.04,0.39 -0.98,0.72 0.16,0.39 0.39,0.16 0.98,-0.02 -0.21,1.4 0.14,0.95 0.84,0.86 1.05,0.64 -0.03,1.01 2.14,1.25 0.25,1.99 0.48,0.61 -0.18,0.96 0.16,0.97 0.27,0.27 1.02,0.02 -0.09,1.52 -0.79,0.89 0.47,1.17 0.96,0.21 0.16,0.38 -0.32,1.38 -0.02,2.04 0.23,0.91 0.29,0.14 1.16,-0.48 0.59,0.14 2.78,2.94 1.96,-0.07 0.59,0.3 0.52,1.97 1.8,0.5 0.77,1.79 0.71,0.34 1.23,0.11 2.45,-0.66 4.37,-0.25 0.73,0.07 1.96,0.91 1.25,-0.21 2.43,-1.61 1.35,-0.38 1.79,0.54 2.37,1.68 1.34,-0.16 1.19,-0.63 0.63,0.02 1.87,1.09 0.43,-0.59 0,-0.61 0.62,0.34 0.2,0.63 0.96,1.2 -0.78,1.22 -0.09,0.64 1.8,5.19 0.57,0.59 0.61,0.22 3.14,0.28 1.21,0.56 3.66,-0.84 1.23,-0.56 1.16,-1.18 0.55,-3.22 -0.12,-1.88 0.19,-1.15 0.91,-1.27 2.48,-1.82 0.45,-0.61 -0.16,-3.08 1.28,-0.54 1.07,-1.23 0.52,-1.56 -1.28,-0.41 -0.06,-0.4 0.43,-1.16 -0.39,-0.18 -1.43,0.04 -0.12,-2.08 0.16,-0.38 1.03,-0.66 0.52,-0.05 2.03,0.82 0.91,-0.09 0.91,-0.79 1.18,-0.48 0.11,-0.32 -0.63,-1.04 0.31,-0.2 1.6,-0.09 2.14,0.59 0.86,-0.28 0.77,0.37 0.53,-0.05 0.23,-0.91 -0.44,-1.24 0.71,-1.56 1.16,-1.09 2.21,-0.57 1.16,-1.67 -0.5,-1.66 0.84,-1.99 0.68,-0.43 1.07,0.07 0.86,-0.27 0.8,-0.89 2.03,-3.62 z" 
                fill="rgb(151, 144, 238)" 
                stroke="white" 
                stroke-width=".7px"
                title="Bouenza" 
                id="CG-11" 
            />
        </svg>