<svg xmlns="http://www.w3.org/2000/svg" viewBox="222.1703900000001 188.5527099999996 124.01999999999992 215.75000000000017" width="124.01999999999992" height="215.75000000000017">
            <path 
                d="m 337.04039,268.50271 -1.58,1.27 -0.81,1.56 -3.42,2.39 -1.75,0.9 1.3,1.41 5.31,3.01 4.8,2.26 5.3,7.28 -2.52,2.76 -2.78,1.76 -2.78,0 -2.53,-1.51 -2.56,0.72 -3.25,-0.22 -2.27,2.26 -2.28,-0.5 -5.05,1.76 -4.07,3.21 -0.5,1.81 2.78,9.78 2.52,4.27 7.33,4.27 -0.25,13.55 -2.88,10.6 -0.7,0.94 -1.75,4.08 10.88,19.72 -8.95,11.19 -4.02,3.46 -2.77,3.06 -1.21,3.17 -1.11,0.84 -8.46,-0.89 -6.48,3.86 -3.38,2.67 -3.28,2 -9.1,4.77 -5.05,2.26 -8.5,0.07 0,0 -1.68,-6.11 -3.45,-15 -0.28,-4.69 -0.77,-2.77 0.45,-1.7 1.21,-1.26 0.85,-1.63 1.46,-4.18 0.51,-3.25 0.49,-1.63 1.28,-2.04 1,-2.87 0.07,-1.92 -0.54,-3.37 -0.85,-2.2 -1.59,-3.02 -2.75,-2.72 -2.36,-3.35 -1.2,-0.69 -2.66,-0.77 -3.21,-0.12 -5.04,-2.02 -1.96,-0.01 -3.03,0.72 -1.25,-0.16 -0.31,-1.34 -0.06,-4.86 -0.77,-2.73 -1.04,-1.41 -4.03,-2.79 -6.74,-3.47 -2.77,-1.02 -1.12,-0.14 -0.84,0.15 -0.6,0.6 -0.61,1.44 -0.54,0.15 -2.85,-2.08 -0.77,-1.01 -0.7,-1.96 0.07,-2.41 0.46,-1.14 1.3,-1.4 0.5,-0.9 0.94,-2.66 0.66,-4.17 -0.1,-2.62 1.28,-0.36 0.76,-2.15 0,-0.86 -0.37,-0.35 -1.05,-0.24 -1.01,0.32 -0.41,-0.47 -0.17,-1.83 -0.56,-0.91 -0.02,-0.53 0.71,-0.99 0.37,-1.46 -0.12,-0.85 -0.77,-1.89 -0.95,-1.12 0.05,-0.8 -1.42,-2 0.99,-0.6 -0.52,-0.45 -0.06,-0.39 0.33,-1.44 1.93,-1.27 0.39,-0.86 1.31,-0.31 -0.68,-1.45 0.09,-0.23 0.83,-0.09 -0.58,-0.54 0.93,-0.88 -0.58,-0.28 -0.04,-0.41 0.51,-0.79 0.78,-0.32 0.34,-0.59 0.48,0.01 0.32,-1.17 1.49,-2.06 1.7,-0.98 1.01,-0.22 1.27,-1.11 1.08,-0.2 1.24,-1.03 0.56,-0.83 0.11,-1.42 1.51,-1.79 -0.04,-0.41 -1.67,-1.24 -0.11,-0.35 0.97,-2.23 1.96,-2.32 1.07,-0.69 2.65,0.26 2.19,0.99 1.65,-0.64 0.87,0.11 0.49,0.75 0.6,0.31 0.99,-0.02 1.89,-0.95 2.56,0.37 -0.47,-0.97 0.84,-1.16 0.11,-0.84 1.29,-0.92 0.96,-0.11 1.34,-1.39 0.9,-0.05 0.69,-0.53 0.6,-0.97 1.55,-0.68 -1.14,-1.94 -0.9,-0.91 0.69,-2.12 0.86,-0.37 1.21,-1.97 0.71,-0.24 1.09,-0.97 -0.06,-0.85 1.34,-1.85 2.72,-1.14 0.7,-1.91 1.01,-0.58 0.3,-0.43 -0.41,-1.91 -0.54,-1.16 -0.49,-0.15 -0.47,-0.78 1.83,-0.19 0.32,-0.26 0.13,-0.86 0.75,-1.25 -0.36,-1.85 -1.7,-0.74 -0.79,-1.09 -1.83,-0.77 -0.59,-0.77 -0.47,-1.57 -0.67,-0.99 -0.32,-1.22 -0.53,-0.81 -0.12,-0.72 -1.02,-1.8 0.17,-1.18 -0.26,-1.46 -4.26,-4.55 -0.24,-2.58 -0.69,-0.88 -0.52,-1.29 -0.41,-0.51 -1.12,-0.56 -0.09,-0.75 -0.68,-0.19 -0.39,-0.39 -0.09,-0.62 0.86,-2.32 -0.16,-1.1 0.26,-0.9 -0.11,-0.45 -0.71,-0.45 -1.46,-2.92 -1.64,-0.81 -0.96,-0.84 -0.93,-0.17 0,0 5.96,-1.38 5.21,0.27 3.6,-0.84 1.2,0.45 1.12,0.03 2.34,-0.57 2.48,-0.22 0.57,0.56 0.27,0.7 -0.11,1.97 0.73,1.92 0.72,5.81 0.35,0.59 1.27,0.61 1.89,1.49 1.96,0.84 6.16,1.69 3.87,1.47 1.21,0.05 1.23,-0.55 1.31,-0.22 2.46,0.56 1.91,1.34 1.96,3.23 0.66,0.43 1.75,0.36 1.25,0.93 1.32,0.13 2.55,2.26 1.3,0.8 1.34,0.61 3.75,0.72 5.17,-0.25 0.05,-0.45 0.18,0.95 0.91,1.29 0.73,0.38 1.52,0.2 1.39,0.84 1.5,2.8 0.23,0.91 -0.37,1.31 -0.77,0.34 -1.91,0.29 -0.68,0.45 -0.57,1.11 -1.14,0.52 -0.57,1.11 -0.77,0.34 -0.21,0.38 0.37,2.38 1.48,2.41 0.22,0.91 -0.82,4.81 0.05,6.02 0.25,1.4 1.14,3.28 0.09,1.01 -1.43,2.49 -0.14,1.56 0.41,2.89 0.66,1.02 1.45,0.22 1.01,0.71 1.57,-0.1 0.72,0.41 0.37,0.72 1.11,-0.2 -0.22,1.88 2.45,0.36 0.44,0.68 -0.19,0.95 0.37,0.72 0.41,-0.07 0.57,-0.54 1.34,0.81 1.05,0.05 0.77,0.36 0.5,0.61 0.2,2.01 0.32,0.11 0.53,-1.15 0.41,-0.18 0.34,0.14 z" 
                fill="rgb(151, 144, 238)" 
                stroke="white" 
                stroke-width=".7px"
                title="Cuvette-Ouest" 
                id="CG-15" 
            />
        </svg>