<svg xmlns="http://www.w3.org/2000/svg" viewBox="261.91039000000035 263.73271000000005 260.61999999999966 202.95000000000022" width="260.61999999999966" height="202.95000000000022">
            <path 
                d="m 337.04039,268.50271 -0.36,1.65 0.16,0.38 0.41,0.18 1,-0.65 0.57,0.02 2,0.79 2.52,0.32 0.78,-0.32 1.2,-1.06 2.96,1.02 1,-0.12 2.01,0.7 0.56,0.57 0.48,0.05 1.21,-0.48 0.95,0.18 1.16,1.06 1.39,0.3 0.69,-0.43 0.91,-1.38 1.63,-1.15 0.69,-2.11 0.63,-1.06 1.87,-0.34 1.3,-0.92 1.91,-0.32 0.95,-0.7 1.41,0.07 1.39,-0.27 1.07,-0.59 0.84,0.16 1.25,-0.32 0.66,0.45 0.21,0.91 0.5,0.63 1,0 2.16,-1.2 0.89,0.23 0.48,0.63 3.05,-0.36 2.77,0.65 0.5,0.61 1.16,0.52 0.46,0.68 1,0.66 2.84,1.1 0.55,0.55 0.18,0.4 -0.04,2.11 0.45,0.7 1.5,0.72 1.69,-0.29 0.82,0.83 3.39,1.09 1.07,1.2 1.04,0.61 1.98,3.63 -0.11,5.09 0.23,0.88 1.36,0.84 0.44,0.7 0.15,1.49 -0.18,2.1 -0.23,0.27 1.57,0.03 1.85,0.97 1.45,0.25 2.48,-1.43 0.94,-0.02 1.77,1.58 1.57,0.66 1.46,1.92 0.36,0.16 1.71,-0.55 1.39,0.25 0.57,1.86 0.95,0.81 32.08,-16.09 0.38,0.13 5.27,-3.03 6.1,-2.87 13.81,-7.09 0,0 2.09,0.56 1.84,1.09 1.28,2.42 2.61,3.25 3.05,4.43 2.23,4 0.03,0.5 -0.46,0.68 -2,0.2 -0.68,0.41 0,0.56 0.98,2.37 0.09,1.45 0.68,1.56 -0.09,0.95 -3.44,2.12 -0.61,1.04 0.02,0.52 1.18,1.63 0.39,1.29 -0.21,2.62 0.55,1.11 -0.2,3.73 0.54,2.24 1.1,2.23 0.22,1.45 -0.36,1.9 -0.48,0.65 -1.68,1.11 -0.34,0.77 0.15,1.49 -0.2,3.08 0.2,2.01 1.51,0.74 0.22,0.34 -0.06,0.5 -1.23,0.97 -1.94,0.88 -0.5,0.61 0.43,1.22 0.8,0.36 1.57,-0.11 0.73,0.41 0.32,0.77 -0.59,1.69 -2.21,2.81 -0.18,1.83 0.43,1.22 0.5,0.09 0.98,-1.29 0.79,-0.32 0.5,0.07 0.73,0.38 0.71,0.98 1.34,0.88 0.62,1.63 0.25,1.96 -0.14,1 -1,0.65 -0.34,0.77 0.18,0.41 -0.75,0.38 -0.3,0.84 1.05,2.28 0.61,2.19 -0.93,3.01 0.11,3.39 0.35,0.23 1.84,-0.43 0.75,0.38 0.27,0.86 -0.36,1.31 0.16,1.51 1.57,-0.13 18.5,0.52 3.86,-0.09 1.64,0.73 0,0 -5,6.49 -8.8,8.41 -3.6,3.92 -0.91,0.71 -2.83,1.22 -3.33,2.16 -1.42,0.52 -4.49,0.09 -1.51,0.27 -2.78,1.01 -3.43,2.07 -3.87,2.74 -4.16,1.62 -1.12,0.68 -6.57,5.06 -1.22,1.45 -2.94,2.62 -4.09,5.47 -4.45,8.32 -1.25,2.99 -4.82,9.81 0,0 -3.59,0 -1.41,0.25 -0.91,-0.2 -0.11,-0.91 0.75,-1.51 0.16,-1.88 -1.87,0.25 -0.77,-0.9 -0.8,-0.37 -1.91,0.39 -1.98,-0.09 -0.66,0.45 -0.64,1.06 -0.38,0.16 -0.46,0 -1.02,-0.7 -0.5,0.07 -0.55,0.54 -2.09,-0.07 -0.43,-0.13 -0.12,-0.43 1.05,-0.61 -0.02,-0.5 -0.35,-0.23 -2.13,-0.13 -1.12,-0.59 -0.11,-0.45 0.27,-0.25 0.93,-0.23 -0.41,-0.72 -1.61,0.59 -0.5,-0.07 -0.91,-0.79 -0.46,-0.09 -1.07,0.58 -0.54,-0.56 -0.82,-2.42 -1.32,-2.62 -0.3,-3.03 -0.89,-1.9 -0.27,-0.32 -0.89,-0.2 -0.66,-1.58 -1.13,-0.57 -0.07,-2.58 -0.27,-0.27 -0.51,-0.07 -1.16,1.11 -1.2,-1.04 -0.53,0.07 -0.91,0.77 -0.5,-0.07 -0.38,-0.72 0.18,-0.84 -1.07,-0.63 -0.14,-0.95 -0.29,-0.27 -1.69,0.2 -0.77,-0.36 -0.71,-1.49 -1.68,-0.59 -1.46,-1.36 -0.5,-0.06 -1.2,0.47 -0.43,-0.11 -0.21,-0.32 0,-1.02 -0.84,0.07 -0.3,0.25 -0.32,-0.11 -0.72,-0.95 -1.35,-0.23 -0.56,-0.59 -0.96,-0.04 -1.78,0.43 -1.36,-0.93 -1.07,0.61 -1.23,-0.25 -0.45,-0.68 0.2,-1.49 -0.32,-1.35 -0.34,-0.23 -0.39,0.16 -0.52,1.17 -0.45,-0.13 -0.98,-2.33 -0.84,-0.86 -0.39,-0.18 -1.53,0.04 -1.2,-1.01 -1.57,0.09 -0.57,-0.57 -0.16,-0.95 -0.43,-0.67 -1.75,-0.53 -1.82,-0.97 -1.46,-0.25 -1.68,0.34 -0.44,-1.26 -1.38,-1.4 0.15,-0.95 -0.66,-1.56 0.6,-1.11 -0.55,-1.02 -0.05,-1.06 -5.59,-0.63 -2.26,-0.59 -0.95,-0.63 -0.84,0.27 -0.89,-0.23 -2.41,0.34 -1.21,1.45 -0.39,0.18 -2.43,0.25 -1.5,-0.75 -0.39,0.02 -1.48,1.34 -0.84,0.27 -3,0.25 -1.41,0.81 -0.35,0.77 0.21,1.9 -0.25,0.9 -2.39,2.53 -0.8,0.32 -1.84,-0.32 -0.34,0.23 -1.21,2.71 -1.98,0.82 -1.36,0.88 -2.09,0.7 -2.78,2.24 -0.82,1.44 -0.52,1.74 -1.64,1.16 -1.89,2.01 -0.52,1.18 -0.25,1.44 -1.21,2.17 -0.43,2.94 -0.41,1.29 0,0 -0.71,1.02 0,0 -1.18,1.58 -0.89,5.74 -0.84,0.82 -1.75,1.04 -0.41,0.7 -0.3,1.42 -2.84,2.74 -1.39,2.55 -2.93,2.04 -0.62,-0.21 -2.57,0.7 -3.14,-0.33 -2.07,0.47 -4.57,2.19 -4.24,2.99 -0.54,0.63 -0.85,1.95 -0.31,2.51 -2.01,2.98 -1.86,0.9 -0.57,0.62 -1.23,2.75 -1.77,1.72 -0.87,1.88 -0.27,1.2 -2.64,3.82 -1.57,1.83 -1.94,1.61 -1.75,1.04 -1.29,0 -0.6,0.47 -0.84,1.9 -1.14,1.29 -4.32,0.88 -2.05,-0.18 -1.86,-0.43 -0.62,-0.4 -0.34,-0.62 -0.36,-1.98 0.02,-3.78 0.34,-3.57 0,0 1.99,-1.61 0.2,-1.08 -0.1,-1.22 0.98,-3.24 0.57,-6.13 0.48,-0.72 1.25,-1.01 0.76,-1.21 -0.3,-0.75 -0.71,-0.75 -2.99,-1.58 -0.86,-0.81 -0.87,-1.2 -0.55,-1.63 0.2,-0.67 0.6,-0.38 7.32,-3.62 0.95,-1.54 0.03,-1.07 -0.28,-1.04 -1.48,-2.49 -0.13,-0.59 0.3,-0.85 2.64,-2.16 0.26,-0.62 -0.06,-0.86 -0.43,-0.63 -3.14,-2.52 -0.41,-0.89 0.06,-1.97 0.54,-1.4 1.91,-3.27 0.22,-1.91 0,0 8.5,-0.07 5.05,-2.26 9.1,-4.77 3.28,-2 3.38,-2.67 6.48,-3.86 8.46,0.89 1.11,-0.84 1.21,-3.17 2.77,-3.06 4.02,-3.46 8.95,-11.19 -10.88,-19.72 1.75,-4.08 0.7,-0.94 2.88,-10.6 0.25,-13.55 -7.33,-4.27 -2.52,-4.27 -2.78,-9.78 0.5,-1.81 4.07,-3.21 5.05,-1.76 2.28,0.5 2.27,-2.26 3.25,0.22 2.56,-0.72 2.53,1.51 2.78,0 2.78,-1.76 2.52,-2.76 -5.3,-7.28 -4.8,-2.26 -5.31,-3.01 -1.3,-1.41 1.75,-0.9 3.42,-2.39 0.81,-1.56 z" 
                fill="rgb(151, 144, 238)" 
                stroke="white" 
                stroke-width=".7px"
                title="Cuvette" 
                id="CG-8" 
            />
        </svg>