<svg xmlns="http://www.w3.org/2000/svg" viewBox="0.33038542999999 587.7727099999997 132.60000456999995 123.86000000000001" width="132.60000456999995" height="123.86000000000001">
            <path 
                d="m 55.490385,694.23271 4.69,0.04 0,-21.21 -9.53,0 0,0 -3.46,-3.8 -3.39,-2.78 0.43,0.06 0.16,-0.4 -0.46,0 -1.27,-0.84 -0.77,-0.96 -5.87,-4.48 -8.33,-7.42 -9.56,-7.5 -0.59,-0.61 -0.36,-1.02 -0.91,-1.18 0.2,-0.32 -0.18,-1.27 0.23,-0.47 -0.19,-0.77 -2.09,-2.43 0.23,-0.2 -0.32,0.02 -3.76,-3.53 0.28,-0.32 -0.37,0.2 -4.0699996,-3.35 -1.57,-1 -0.43,-0.56 -2.07,-1.36 0.14,-0.45 -1.96999997,-2.21 2.83999997,-3.39 0.28,-6.21 2.66,-1.15 0.18,-1.21 -0.49,-3.82 0.06,-2.32 10.0999996,-9.95 2.96,-0.71 3.76,-0.08 1.2,-0.96 0.89,-2.18 0.83,-0.81 1.41,-2.81 1.05,-0.07 1,-0.67 1.4,0.52 5.35,-0.34 9.5,14.18 4.82,1.53 6.33,3.26 0,0 1.09,0.38 2.55,-0.1 0.73,0.37 3.46,3.49 4.55,2.78 3.14,2.49 1.82,0.57 1.91,1.04 3.75,0.27 1.98,0.46 0.91,1.22 0.66,0.43 1.82,0.5 0,2.51 0.62,0.23 1.27,-0.18 1.21,0.14 1.23,0.97 0.73,0.25 1.27,-0.02 2.64,0.95 1.98,-0.07 3.16,1.16 0.62,0.45 0.16,0.57 -0.37,1.17 0.28,0.66 1.220005,0.45 1.89,-0.02 1.37,0.84 4.75,5.66 2.82,2.86 0.41,1.25 1.1,0.9 -0.73,3.7 -0.21,2.44 0.8,2.02 3.12,4.26 1.25,0.57 1.27,0.16 5.26,-0.32 1.16,0.14 1.93,0.79 3.12,2.65 1.42,0.82 0,0 1.35,1.51 -1.55,0.13 -0.37,1.46 -2.46,-1.41 0.54,2.07 3.63,3.37 0.21,1.24 -0.42,1.16 -0.58,0.54 -1.38,-0.12 -1.58,-0.62 -2.55,-0.13 -3.25,3.03 -2.71,3.2 -2.87,-0.56 -8.61,1.93 -3.49,0.57 -0.49,0.37 -1.11,1.64 -2.41,4.17 -4.500005,6.96 -2.85,3.07 -1.82,1.54 -3.91,0.31 -0.8,-0.71 -2.47,-0.83 -0.97,1.14 -0.28,2.32 -1.04,0.81 -1.04,3.86 -13.38,10.83 -3.51,-5.24 -3.8,-4.6 0.73,-0.48 -0.04,-0.27 -0.82,0.59 -1.73,-1.95 -0.55,-1.8 z" 
                fill="rgb(151, 144, 238)" 
                stroke="white" 
                stroke-width=".7px"
                title="Kouilou" 
                id="CG-5" 
            />
        </svg>