<svg xmlns="http://www.w3.org/2000/svg" viewBox="432.36038999999926 0.25271400000017463 179.9700000000007 363.299996" width="179.9700000000007" height="363.299996">
            <path 
                d="m 526.85039,5.292714 3.85,0.18 2.81,-0.2 1.43,0.57 2.29,-1.36 0.43,0.08 0.57,0.58 3.45,0.67 0.69,0.47 2.72,0.19 0.36,0.29 0.55,1.46 0.02,1.48 0.35,0.68 0.07,1.28 1.12,2.46 0.62,-0.02 1.94,-1.94 0.98,-0.19 1.39,-1.16 0.87,-1.33 0.22,-0.75 0.42,-0.27 0.5,0.21 0.45,1.36 1.65,1.85 2.15,0.76 0.24,-0.23 0.11,-2.03 4,0.86 1.79,-0.57 1.34,0.3 1.48,0.01 2.32,0.81 1.57,1.36 0.89,1.42 0.52,2.17 0.51,1.03 1.06,0.57 2.12,-0.31 1.37,-0.46 0.81,-0.8 0.69,-1.11 0.81,-2.88 0.4,-3.15 0.25,-0.29 1.59,-0.03 1.77,0.4 2.02,-1.35 1.03,-0.32 1.11,0.68 2.59,0.85 1.21,0.89 0.38,0 0.28,-2.13 0.47,-0.41 1.43,0.76 0.53,0.09 0.41,-0.21 0.43,-0.53 0.1,-1.3 1.05,-0.66 0.61,-1.23 0.52,-0.53 0.41,0 0.34,0.13 1.89,2.2 1.78,1.19 0.7,1.14 0.58,2.66 0.57,1.18 1.4,1.49 1.61,4.38 0.71,0.35 2.57,0.13 0.39,1.84 0.05,1.73 -0.68,2.46 0.03,0.9 1.03,2.24 0.39,2.29 -0.4,2.1 -0.53,1.19 -0.31,2.42 0.65,3.24 -0.07,0.96 -1.33,4.08 -2.54,4.28 -0.8,0.72 -3.34,1.46 -0.92,0.76 -1.3,4.59 -0.98,1.45 -2.46,2.17 -0.58,0.92 -0.36,1.3 -0.86,1.21 -1.1,3.66 -0.02,2.2 0.54,1.53 -0.03,1.16 -1.34,4.42 -1.46,2.32 -0.84,0.53 -0.55,1.88 -0.84,0.94 -3.33,6.21 -0.38,1.92 -0.72,1.16 -1.44,0.89 -1.41,1.72 -2.2,1.16 -2.18,2.55 -1.12,3.509996 -0.09,1.91 -1.1,1.89 -0.13,1.48 -0.37,0.75 -1.4,1.62 -0.01,0.92 -0.4,1.11 -2.58,3.3 -3.92,3.08 -0.93,2.31 -0.28,2.93 -0.2,9.18 -0.82,2.09 -0.65,1.01 0.06,1.03 -0.51,0.96 0.15,0.47 1.4,1.34 0.18,1.72 0.5,1.76 -0.08,0.86 -1.15,2.46 -0.21,1.58 -0.61,1.74 0.01,1.82 -0.63,0.74 -0.15,2.28 0.01,1.41 0.5,1.64 0.13,1.68 1.42,4.81 0.39,2.11 -0.07,1.05 -0.72,0.88 -0.19,1.69 0.27,1.31 -0.58,2.19 -0.06,2.66 -0.42,1.47 0.13,1.49 -0.69,1.49 -1.76,2.13 -1.18,1.93 -0.89,1.94 -0.43,1.87 -2.57,5.55 -0.46,2.38 -1.05,3.46 -0.24,2.84 -1.07,5.47 -1.08,2.38 -1.1,1.65 -2.63,2.51 -1.59,2.58 -0.34,1.83 -0.49,0.55 -0.28,0.87 0.25,1.22 -0.08,1.62 -0.58,3.36 -0.02,1.39 1.34,3.91 1.8,2.68 0.32,2.86 0.67,2.27 -0.85,2.96 0.49,2.62 0.05,1.75 -0.92,0.81 -0.48,1.25 -0.09,3.85 0.24,1.46 0.82,1.8 1.51,1.91 3.25,2.99 0.88,1.8 0.4,1.94 0.22,4.69 -0.22,1.61 -0.49,1.9 -0.98,1.87 -1.54,2.16 -2.34,2.23 -3.26,2.31 -2.76,3.62 -2.8,5.87 -1.53,5.17 -0.31,3.12 -0.53,1.91 1.09,1.47 -1.97,4.37 -1.86,3.38 -0.89,2.67 -0.17,2.32 0.33,3.42 -0.04,2.78 0.56,3.46 1.26,3.52 0.36,5.08 -0.12,1.36 -0.99,3.62 -0.78,4.96 -0.75,3.05 -0.78,2.19 -1.35,2.26 -2.35,2.43 -1.38,2.53 -6.92,8.38 0,0 -1.64,-0.73 -3.86,0.09 -18.5,-0.52 -1.57,0.13 -0.16,-1.51 0.36,-1.31 -0.27,-0.86 -0.75,-0.38 -1.84,0.43 -0.35,-0.23 -0.11,-3.39 0.93,-3.01 -0.61,-2.19 -1.05,-2.28 0.3,-0.84 0.75,-0.38 -0.18,-0.41 0.34,-0.77 1,-0.65 0.14,-1 -0.25,-1.96 -0.62,-1.63 -1.34,-0.88 -0.71,-0.98 -0.73,-0.38 -0.5,-0.07 -0.79,0.32 -0.98,1.29 -0.5,-0.09 -0.43,-1.22 0.18,-1.83 2.21,-2.81 0.59,-1.69 -0.32,-0.77 -0.73,-0.41 -1.57,0.11 -0.8,-0.36 -0.43,-1.22 0.5,-0.61 1.94,-0.88 1.23,-0.97 0.06,-0.5 -0.22,-0.34 -1.51,-0.74 -0.2,-2.01 0.2,-3.08 -0.15,-1.49 0.34,-0.77 1.68,-1.11 0.48,-0.65 0.36,-1.9 -0.22,-1.45 -1.1,-2.23 -0.54,-2.24 0.2,-3.73 -0.55,-1.11 0.21,-2.62 -0.39,-1.29 -1.18,-1.63 -0.02,-0.52 0.61,-1.04 3.44,-2.12 0.09,-0.95 -0.68,-1.56 -0.09,-1.45 -0.98,-2.37 0,-0.56 0.68,-0.41 2,-0.2 0.46,-0.68 -0.03,-0.5 -2.23,-4 -3.05,-4.43 -2.61,-3.25 -1.28,-2.42 -1.84,-1.09 -2.09,-0.56 0,0 -2.21,-2.47 -4.07,-5.38 -5.94,-7.25 -11.4,-15.06 -2.37,-2.82 -2.16,-3.53 -1.05,-2.62 -0.25,-1.33 0.23,-4.5 -0.09,-3.66 1.11,-1.79 1.28,-1.26 3.78,-1.88 1.02,-1.18 0.32,-1.87 -0.8,-3.24 0.55,-1.19 1.8,-2.56 -0.5,-2.64 -1.46,-4.41 -0.07,-2.51 -0.39,-0.59 -1.2,-0.68 -1.07,-1.17 -1,-2.6 -0.23,-1.86 -1.23,-1.85 -0.27,-1.45 0.75,-2.96 -0.52,-0.59 -1.19,-0.22 -0.45,-0.59 0.41,-1.18 2.18,-2.6 0.55,-1.24 -1.34,-6.53 0.54,-1.2 -0.16,-0.59 -0.73,-0.7 -0.77,-1.27 0,-0.65 1.37,-1.81 1.06,-3.76 2.53,-6.22 -0.16,-0.65 -1.09,-1.11 -1.09,-5.15 -0.05,-0.75 0.59,-1.24 -0.57,-1.27 0.19,-2.42 -0.66,-1.95 -0.6,-4.93 0.16,-2.05 0.55,-1.93 0.59,-0.45 1.82,-0.61 0.09,-1.83 0.25,-0.7 -0.29,-0.59 -1.23,-0.66 -0.62,-1.76 -0.27,-5.54 0.77,-4.53 -0.38,-2.76 0.32,-3.19 -0.21,-0.58 -2.34,-3.01 -2.82,-5.429996 -0.62,-0.46 -3.07,-0.95 -0.57,-0.56 -0.64,-0.2 -1.75,0.86 -1.86,0.56 -0.66,-0.02 -0.59,-0.45 -0.05,-3.76 -0.36,-0.59 -1.35,-0.7 -1.38,-2.38 -2.99,-1.42 -0.4,-1.34 0.02,-1.17 0.18,-0.66 0.59,-0.38 0.34,-0.59 -0.11,-0.63 -1.57,-2.99 -1.57,-0.62 0,0 5.52,-10.3 0.38,-3.11 -0.32,-0.6 -2.51,-1.74 0.25,-7.75 0.81,-1.38 3.39,-3.62 -0.47,-1.12 -1.39,-1.64 -0.78,-1.7 -0.54,-3.21 0.26,-0.92 1.92,-2.83 0.53,-1.52 1.6,-2.36 -0.67,-2.38 0.36,-1.87 1.5,-1.95 0.34,-1.07 0.48,-5.98 1.12,-4.99 1.14,-1.63 3.03,-2.6 2.01,-1.03 4.43,-0.59 2.33,-0.66 3.94,1.12 1.47,1.78 1.05,0.1 1.5,0.79 0.74,-0.07 1.03,-1.28 0.08,-0.75 -0.39,-1.03 0.34,-0.69 1.25,-0.07 0.58,0.52 1.15,0.16 1.86,-0.17 2,-0.63 1.54,1.58 0.47,0.11 1.31,-0.64 0.55,0.02 0.39,0.62 0.13,0.81 1.54,1.26 0.47,0.02 1.41,-1.38 0.45,-1.45 1.75,-0.39 1.54,-0.63 1.23,0.11 3.59,-1.29 1.24,0.8 0.37,-0.02 5.13,-1.11 0.73,-0.34 -0.05,-1.8 0.4,-0.43 3.79,-1.58 0.47,0.09 0.92,0.79 2.7,1.17 1.14,-0.16 2.59,-4.46 0.9,-0.64 2.93,-0.89 0.83,-1.09 1.88,-0.76 1.44,0.08 1.22,0.83 3.04,0.49 1.14,1.36 2.46,0.89 0.82,1.2 z" 
                fill="rgb(151, 144, 238)" 
                stroke="white" 
                stroke-width=".7px"
                title="Likouala" 
                id="CG-7" 
            />
        </svg>