<svg xmlns="http://www.w3.org/2000/svg" viewBox="116.67038999999981 473.77271000000025 143.08000000000004 158.1499999999998" width="143.08000000000004" height="158.1499999999998">
            <path 
                d="m 220.68039,499.45271 0.27,0.6 1.11,1.14 3.04,1.21 2.06,-0.31 1.79,-1.2 1.41,-0.27 0.92,0.28 2.18,2.05 1.62,-1.32 0.47,0 1.56,1.51 1.13,0.61 1.63,-0.62 0.69,-1.02 0,0 0.07,3.23 0.57,1.81 0.62,0.57 1.82,0.47 0.57,0.54 0.06,0.62 -0.41,1.19 -0.59,0.39 -1.86,-0.05 -0.28,0.71 1.07,1.08 1.89,1.25 0.59,0.18 0.46,-1.18 0.61,-0.29 1.21,0.47 0.36,0.59 -0.04,0.66 -0.46,0.61 -1.84,0.99 -0.98,1.22 -1.27,0.64 -0.53,0.59 0.73,1.17 0.55,0.61 2.64,-0.11 1.2,0.61 0.46,0.57 0.61,0.18 2.14,-1.22 1.21,-0.23 0.57,0.27 0.97,1.13 1.94,-1.11 0.66,0 0.54,0.68 -0.16,1.36 -1.79,3.21 -0.28,1.23 0.6,0.49 0.54,-0.56 0.52,-1.18 0.6,-0.02 0.09,2.08 0.63,1.29 0.26,2.63 1.38,1.67 0.07,1.15 0.87,1.75 -0.19,0.61 -0.61,0.68 -2.37,1.2 -0.73,1.1 0,0.91 -0.4,0.79 -1.89,1.5 -0.76,1.67 0,0 -0.79,0.7 -4.05,1.61 -2.21,1.72 -1.04,1.76 -1.44,5.37 -1.41,3.1 0.09,2.04 -1.43,0.81 -0.59,2.22 -1.66,1.22 0.5,1.07 -0.14,0.45 -2.16,0.63 -0.93,1.34 -0.16,0.95 -2.01,1.38 -1.11,2.27 -1.59,1.08 -1.05,1.23 -0.57,1.13 -1.89,0.95 -2,1.94 -0.3,0.84 0.23,0.32 -0.02,0.59 -0.91,1.31 -0.78,2.06 -0.59,1.13 -1.07,0.59 -0.47,0.66 0.31,1.7 -0.52,0.61 -0.88,0.46 0,0 -0.89,0.56 -2.03,3.62 -0.8,0.89 -0.86,0.27 -1.07,-0.07 -0.68,0.43 -0.84,1.99 0.5,1.66 -1.16,1.67 -2.21,0.57 -1.16,1.09 -0.71,1.56 0.44,1.24 -0.23,0.91 -0.53,0.05 -0.77,-0.37 -0.86,0.28 -2.14,-0.59 -1.6,0.09 -0.31,0.2 0.63,1.04 -0.11,0.32 -1.18,0.48 -0.91,0.79 -0.91,0.09 -2.03,-0.82 -0.52,0.05 -1.03,0.66 -0.16,0.38 0.12,2.08 1.43,-0.04 0.39,0.18 -0.43,1.16 0.06,0.4 1.28,0.41 -0.52,1.56 -1.07,1.23 -1.28,0.54 0.16,3.08 -0.45,0.61 -2.48,1.82 -0.91,1.27 -0.19,1.15 0.12,1.88 -0.55,3.22 -1.16,1.18 -1.23,0.56 -3.66,0.84 -1.21,-0.56 -3.14,-0.28 -0.61,-0.22 -0.57,-0.59 -1.8,-5.19 0.09,-0.64 0.78,-1.22 -0.96,-1.2 -0.2,-0.63 -0.62,-0.34 0,0.61 -0.43,0.59 -1.87,-1.09 -0.63,-0.02 -1.19,0.63 -1.34,0.16 -2.37,-1.68 -1.79,-0.54 -1.35,0.38 -2.43,1.61 -1.25,0.21 -1.96,-0.91 -0.73,-0.07 -4.37,0.25 -2.45,0.66 -1.23,-0.11 -0.71,-0.34 -0.77,-1.79 -1.8,-0.5 -0.52,-1.97 -0.59,-0.3 -1.96,0.07 -2.78,-2.94 -0.59,-0.14 -1.16,0.48 -0.29,-0.14 -0.23,-0.91 0.02,-2.04 0.32,-1.38 -0.16,-0.38 -0.96,-0.21 -0.47,-1.17 0.79,-0.89 0.09,-1.52 -1.02,-0.02 -0.27,-0.27 -0.16,-0.97 0.18,-0.96 -0.48,-0.61 -0.25,-1.99 -2.14,-1.25 0.03,-1.01 -1.05,-0.64 -0.84,-0.86 -0.14,-0.95 0.21,-1.4 -0.98,0.02 -0.39,-0.16 -0.16,-0.39 0.98,-0.72 0.04,-0.39 -0.27,-0.29 -0.84,-0.29 -1.62,-1.2 -1.59,0.54 -3.09,0 -0.32,-0.82 0.16,-0.83 1.2,-0.48 -0.38,-0.75 -0.39,-0.15 -2.09,-0.1 -0.69,0.98 -0.52,0.07 -1.59,-0.05 -0.37,-0.16 -0.19,-0.53 0,0 0.24,-2.16 -0.55,-0.59 -1.54,0.04 -0.32,-0.25 -0.12,-0.43 0.25,-0.9 -0.16,-0.39 -0.56,-0.58 -0.96,-0.07 -0.09,-0.34 0.91,-0.77 0.11,-0.43 -1.77,-1.63 0.7,-0.93 0.73,-0.39 1.94,0.05 0.79,-0.32 1.41,-3.12 0.16,-2.11 0.87,-1.4 1.59,-0.64 1.25,-0.99 1.37,-0.32 4.07,0.43 0.89,-0.2 1.48,-0.77 2.04,-0.18 1.35,0.92 0.95,0.19 0.8,-0.32 1.48,-1.31 0.45,-0.12 0.39,0.16 0.61,1.09 0.85,0.18 0.4,-0.73 -0.11,-3.19 0.16,-0.4 2.5,0.61 3.17,-1.14 1.2,0.21 0.64,-0.34 -0.05,-0.64 0.84,-1.22 0.62,-0.43 1.87,-0.2 0.63,-0.43 0.8,-1.81 2.39,-1.43 0.32,-0.66 0.2,-1.96 -0.3,-4.1 0.85,-3.71 1.41,-3.83 -0.34,-0.68 -1.73,-1.81 -1.94,-1.29 -1.2,-1.33 -0.59,-0.14 -1.19,0.23 -0.63,-0.43 -0.62,-0.21 -0.57,0.14 -0.61,-0.32 -0.46,-1.15 -0.16,-1.34 -1.02,-1.13 -0.25,-0.63 0.25,-0.68 2.48,-1 1.12,-1.24 0.59,-0.34 1.82,0.25 0.59,-0.37 -0.16,-1.22 -1.84,-3.78 -0.64,-3.28 -0.68,-10.86 0.75,-7.39 -0.62,-2.07 -0.21,-4.96 -0.42,-2.07 -0.13,-5.21 0,0 0.91,0.99 2.57,0.76 1.36,-0.02 2.69,0.89 3.66,2.04 0.75,0.05 0.52,-0.24 2.3,-3.03 0.48,-0.11 0.6,0.34 0.7,1.4 1.5,1.21 1.07,0.41 4.35,0.55 1.3,0.52 3.43,2.32 0.89,0.31 1.23,0.13 2.51,-0.89 0.98,-0.1 0.93,0.08 1.39,0.5 1.8,1 0.85,-0.18 2.7,-3.84 3.92,-4.86 8.8,-10.52 2.73,-2.68 1.97,-3.42 0.39,-0.53 0.38,-0.03 1.05,0.39 3.51,2.87 1.89,3.53 3.56,5.2 0.52,3.57 0.45,0.71 2,1.68 0.19,0.81 -0.2,1.21 -3.44,3.76 -0.5,1.28 z" 
                fill="rgb(151, 144, 238)" 
                stroke="white" 
                stroke-width=".7px"
                title="Lékoumou" 
                id="CG-2" 
            />
        </svg>