<svg xmlns="http://www.w3.org/2000/svg" viewBox="32.74038500000011 450.3827099999997 164.19000499999999 252.20000000000022" width="164.19000499999999" height="252.20000000000022">
            <path 
                d="m 131.46039,455.88271 4.06,2.63 1.03,1.1 2.28,6.03 0.51,3.65 0.78,3.35 2.3,3.07 1.42,1.45 2.95,2.11 2.63,1.16 0.69,0.58 1.51,2.24 0.68,1.78 0.07,1.23 -0.64,3.86 0.24,0.6 0,0 0.13,5.21 0.42,2.07 0.21,4.96 0.62,2.07 -0.75,7.39 0.68,10.86 0.64,3.28 1.84,3.78 0.16,1.22 -0.59,0.37 -1.82,-0.25 -0.59,0.34 -1.12,1.24 -2.48,1 -0.25,0.68 0.25,0.63 1.02,1.13 0.16,1.34 0.46,1.15 0.61,0.32 0.57,-0.14 0.62,0.21 0.63,0.43 1.19,-0.23 0.59,0.14 1.2,1.33 1.94,1.29 1.73,1.81 0.34,0.68 -1.41,3.83 -0.85,3.71 0.3,4.1 -0.2,1.96 -0.32,0.66 -2.39,1.43 -0.8,1.81 -0.63,0.43 -1.87,0.2 -0.62,0.43 -0.84,1.22 0.05,0.64 -0.64,0.34 -1.2,-0.21 -3.17,1.14 -2.5,-0.61 -0.16,0.4 0.11,3.19 -0.4,0.73 -0.85,-0.18 -0.61,-1.09 -0.39,-0.16 -0.45,0.12 -1.48,1.31 -0.8,0.32 -0.95,-0.19 -1.35,-0.92 -2.04,0.18 -1.48,0.77 -0.89,0.2 -4.07,-0.43 -1.37,0.32 -1.25,0.99 -1.59,0.64 -0.87,1.4 -0.16,2.11 -1.41,3.12 -0.79,0.32 -1.94,-0.05 -0.73,0.39 -0.7,0.93 1.77,1.63 -0.11,0.43 -0.91,0.77 0.09,0.34 0.96,0.07 0.56,0.58 0.16,0.39 -0.25,0.9 0.12,0.43 0.32,0.25 1.54,-0.04 0.55,0.59 -0.24,2.16 0,0 -2.17,1.91 -0.87,1.84 -0.11,1.22 0.98,5.41 1.27,2.38 -0.16,0.59 -1.18,0.68 -0.09,0.63 0.36,0.64 0.37,1.9 1.32,1.81 -0.62,0.57 -1.18,0.25 -0.59,0.38 -0.82,1.25 -1.32,0.72 -0.09,0.59 0.25,0.57 3.09,1.77 2.55,1.94 2.64,3.7 2.05,3.8 4.39,5.03 4.32,3.22 2.32,2.45 2.07,3.9 1.44,1.9 3.61,5.82 1.05,2.04 1.48,4.26 1.46,2.43 3.16,0.57 0.59,0.59 0.78,2.33 0.59,0.23 1.95,-0.23 1.32,0.52 1.89,-0.54 0.59,0.18 1.16,0.91 2.37,-0.32 1.89,1.09 1.2,-0.25 1.3,0.81 1.91,-0.38 1.16,0.32 0.57,0.68 1.55,3.1 2.28,3.18 0.59,0.38 0.27,0.7 -0.09,1.21 0.39,0.63 1.25,0.64 0.25,1.27 0.36,0.58 0.91,1.16 1.21,0.68 0.38,0.66 0.05,2.47 0.77,1.29 2.6,0.46 6.1,4.31 3.04,1.4 2.48,1.61 0.76,1.82 0.3,5.78 0,0 -1.15,0.04 -1.15,-0.6 -3.27,1.3 -1.16,1 -0.26,0.49 0.1,1.02 -0.53,0.81 -3.23,-0.56 -1.94,0.44 -0.3,0.47 1.12,1.43 0.27,1.1 -0.15,0.94 -0.45,0.23 -2.44,-2.55 -1.13,-0.82 -0.68,-0.96 0.13,-1.28 0.55,-0.32 -0.43,-1.61 -0.4,-0.34 0.34,-0.56 -0.24,-0.86 -0.47,-0.61 -1.09,-0.09 -0.76,-0.86 -0.43,-0.14 -1.03,0.32 -1.04,-0.5 -0.52,0.3 -0.88,-0.36 -0.34,-0.58 -0.7,-0.38 -0.43,0.08 -0.94,-1.03 -0.34,-0.72 -1.17,-0.96 0.06,-0.62 0.79,-0.13 -0.71,-0.79 -0.79,-1.91 -1.13,-1.32 -1.9,-0.88 -0.77,-0.96 -0.66,-0.37 -0.34,-0.79 -1.3,-1.06 -0.32,-0.6 -2.91,-2.65 -0.52,-0.3 -1,0.17 -0.98,1 0.32,0.34 -0.34,0.58 0.25,0.52 -0.28,0.25 0.06,2.03 -0.26,0 -3.15,-2.23 -3.89,-2.2 -0.81,-1.07 -1.42,-3.08 -6.55,-6.03 -0.26,-4.75 -7.36,0.82 -2.64,-2.94 0,0 -1.42,-0.82 -3.12,-2.65 -1.93,-0.79 -1.16,-0.14 -5.26,0.32 -1.27,-0.16 -1.25,-0.57 -3.12,-4.26 -0.8,-2.02 0.21,-2.44 0.73,-3.7 -1.1,-0.9 -0.41,-1.25 -2.82,-2.86 -4.75,-5.66 -1.37,-0.84 -1.89,0.02 -1.220005,-0.45 -0.28,-0.66 0.37,-1.17 -0.16,-0.57 -0.62,-0.45 -3.16,-1.16 -1.98,0.07 -2.64,-0.95 -1.27,0.02 -0.73,-0.25 -1.23,-0.97 -1.21,-0.14 -1.27,0.18 -0.62,-0.23 0,-2.51 -1.82,-0.5 -0.66,-0.43 -0.91,-1.22 -1.98,-0.46 -3.75,-0.27 -1.91,-1.04 -1.82,-0.57 -3.14,-2.49 -4.55,-2.78 -3.46,-3.49 -0.73,-0.37 -2.55,0.1 -1.09,-0.38 0,0 1,0.23 0.67,-0.25 5.87,-5.93 -1.44,-2.2 -5,-3.46 -1.52,-3.96 0,-1.32 2.47,-4.34 3.41,-8.48 0.94,-1.51 3.61,-2.08 0,-2.82 -7.39,-1.51 -5.31,-4.72 -7.96,-3.77 -1.14,-0.75 1.9,-4.15 3.98,0.19 4.74,-6.22 -9.86,-10.93 -3.56,-6.43 -2.44,-1.13 -1.11,-0.81 -0.85,2.71 -1.13,1.14 -1.9,0.37 -1.14,-0.37 -0.56,-4.9 5.5,-8.13 0.54,-0.5 1.13,-0.24 0.61,-4.68 -0.03,-2.13 -0.58,-1.16 -0.69,-2.5 -0.41,-0.94 -2.16,-2.69 0.2,-2.21 -0.2,-4.61 -0.77,-3.08 -0.45,-5.65 0.48,-0.41 0.75,0.04 2.16,1.53 3.63,1.13 1.65,0.76 4.15,5.39 1.07,-0.29 1.45,-1.25 1.35,-2.02 2.03,-1.34 3.48,-0.68 5.08,-0.15 2.83,-1.39 1.8,-0.11 0.71,0.2 1.41,0.99 2.87,2.57 1.39,2.75 35.080005,0.21 0.26,-0.75 -0.36,-2.72 0.37,-0.95 1.2,-1.75 0.69,-1.65 -0.21,-0.62 -2.35,-3.2 -0.07,-0.93 2.87,-4.41 -0.4,-2.26 -1.35,-2.23 0.93,-3.48 0.13,-1.69 -0.31,-0.69 -2.12,-2.23 -1.54,-3.29 -0.65,-6.14 -1.9,-5.61 0.11,-0.38 1.37,0 0.76,0.35 1.11,1.16 2.93,1.05 1.17,-0.04 0.7,-0.36 0.56,-0.94 0.48,-1.53 0.45,-0.57 0.82,-0.07 2.86,-2.12 3.79,-0.5 4.3,0.5 2.27,2.65 2.48,1.34 z" 
                fill="rgb(151, 144, 238)" 
                stroke="white" 
                stroke-width=".7px"
                title="Niari" 
                id="CG-9" 
            />
        </svg>