<svg xmlns="http://www.w3.org/2000/svg" viewBox="240.56038999999976 377.99271000000005 209.37999999999994 174.93999999999988" width="209.37999999999994" height="174.93999999999988">
            <path 
                d="m 262.27039,455.72271 -0.34,3.57 -0.02,3.78 0.36,1.98 0.34,0.62 0.62,0.4 1.86,0.43 2.05,0.18 4.32,-0.88 1.14,-1.29 0.84,-1.9 0.6,-0.47 1.29,0 1.75,-1.04 1.94,-1.61 1.57,-1.83 2.64,-3.82 0.27,-1.2 0.87,-1.88 1.77,-1.72 1.23,-2.75 0.57,-0.62 1.86,-0.9 2.01,-2.98 0.31,-2.51 0.85,-1.95 0.54,-0.63 4.24,-2.99 4.57,-2.19 2.07,-0.47 3.14,0.33 2.57,-0.7 0.62,0.21 2.93,-2.04 1.39,-2.55 2.84,-2.74 0.3,-1.42 0.41,-0.7 1.75,-1.04 0.84,-0.82 0.89,-5.74 1.18,-1.58 0,0 0.71,-1.02 0,0 0.41,-1.29 0.43,-2.94 1.21,-2.17 0.25,-1.44 0.52,-1.18 1.89,-2.01 1.64,-1.16 0.52,-1.74 0.82,-1.44 2.78,-2.24 2.09,-0.7 1.36,-0.88 1.98,-0.82 1.21,-2.71 0.34,-0.23 1.84,0.32 0.8,-0.32 2.39,-2.53 0.25,-0.9 -0.21,-1.9 0.35,-0.77 1.41,-0.81 3,-0.25 0.84,-0.27 1.48,-1.34 0.39,-0.02 1.5,0.75 2.43,-0.25 0.39,-0.18 1.21,-1.45 2.41,-0.34 0.89,0.23 0.84,-0.27 0.95,0.63 2.26,0.59 5.59,0.63 0.05,1.06 0.55,1.02 -0.6,1.11 0.66,1.56 -0.15,0.95 1.38,1.4 0.44,1.26 1.68,-0.34 1.46,0.25 1.82,0.97 1.75,0.53 0.43,0.67 0.16,0.95 0.57,0.57 1.57,-0.09 1.2,1.01 1.53,-0.04 0.39,0.18 0.84,0.86 0.98,2.33 0.45,0.13 0.52,-1.17 0.39,-0.16 0.34,0.23 0.32,1.35 -0.2,1.49 0.45,0.68 1.23,0.25 1.07,-0.61 1.36,0.93 1.78,-0.43 0.96,0.04 0.56,0.59 1.35,0.23 0.72,0.95 0.32,0.11 0.3,-0.25 0.84,-0.07 0,1.02 0.21,0.32 0.43,0.11 1.2,-0.47 0.5,0.06 1.46,1.36 1.68,0.59 0.71,1.49 0.77,0.36 1.69,-0.2 0.29,0.27 0.14,0.95 1.07,0.63 -0.18,0.84 0.38,0.72 0.5,0.07 0.91,-0.77 0.53,-0.07 1.2,1.04 1.16,-1.11 0.51,0.07 0.27,0.27 0.07,2.58 1.13,0.57 0.66,1.58 0.89,0.2 0.27,0.32 0.89,1.9 0.3,3.03 1.32,2.62 0.82,2.42 0.54,0.56 1.07,-0.58 0.46,0.09 0.91,0.79 0.5,0.07 1.61,-0.59 0.41,0.72 -0.93,0.23 -0.27,0.25 0.11,0.45 1.12,0.59 2.13,0.13 0.35,0.23 0.02,0.5 -1.05,0.61 0.12,0.43 0.43,0.13 2.09,0.07 0.55,-0.54 0.5,-0.07 1.02,0.7 0.46,0 0.38,-0.16 0.64,-1.06 0.66,-0.45 1.98,0.09 1.91,-0.39 0.8,0.37 0.77,0.9 1.87,-0.25 -0.16,1.88 -0.75,1.51 0.11,0.91 0.91,0.2 1.41,-0.25 3.59,0 0,0 -6.42,12.61 -4.17,6.81 -4.12,5.43 -6.74,7.86 -3.8,3.77 -2.92,2.49 -6.68,4.37 -3.36,6.11 -0.78,2.23 -0.51,7.72 -0.08,5.13 0.4,3.33 1.64,7.56 2.11,7.05 0.2,1.76 -0.37,3.59 -2.14,4.69 -0.33,1.62 0.14,3.8 -1.98,6.69 0.04,5.45 0,0 -2.22,-0.07 -2.07,-0.74 -3.66,-0.32 -1.98,0.23 -2.12,1.26 -2.96,-0.31 -0.95,-1.27 -1.57,-0.73 -0.23,-1.44 -0.86,-0.8 -0.39,-0.74 -1.68,-0.57 -2.19,-1.65 -1.3,-0.41 -0.61,-0.52 -1.25,0.43 -0.39,-0.16 -0.54,-1.02 -1.76,0.25 -0.31,-1.33 -0.76,0.38 -0.79,1.45 -0.46,0 -0.5,-1.2 -2.52,0.82 -3.3,0.61 -1.19,0.52 -2.73,1.86 -0.63,1.04 0,0.56 -0.25,0.34 -1.96,0.14 -1.21,1.04 -3.39,1.08 -1.7,1.11 -3.26,2.92 -3.07,1.97 -5.67,2.17 -2.82,0.52 -3.32,-1.22 -1.64,-0.07 -2.55,0.82 -3.61,-0.23 -1.12,-0.25 -1.68,-1.15 -0.96,-0.16 -0.88,-1.24 -2.76,-0.66 -0.5,-0.61 -0.48,-1.25 -0.41,-2.94 -1.23,-1.02 -0.54,-1.13 -0.73,-0.38 -1.59,-0.03 -1.37,0.32 -3.02,-0.95 -0.5,0.07 -1.76,1.04 -2.2,0.57 -2.21,0.04 -1.25,-0.47 -0.32,-0.8 0.36,-1.33 -0.63,-2.69 -0.12,-3.65 -1.61,-1.76 0.32,-1.41 -0.23,-0.88 -0.62,-0.52 -0.97,-1.81 -0.96,-0.18 -1.32,0.36 -1.3,0.93 -1.09,1.18 -2.32,1.08 -0.57,0.55 -0.23,0.33 0.07,2.15 -0.77,2.06 -2.16,1.75 -2.6,0.74 -1.57,2.4 -2.05,1.88 -2.61,1.86 -0.94,1.9 -1.77,1.13 -2.23,2.26 -2,1.27 -1.62,2.9 -1.2,1.04 -1.28,2.1 -0.34,0.21 -0.91,0.11 -1.27,-0.97 -1.92,-0.39 -0.88,-0.77 -0.82,-1.4 -1.03,-0.7 -3.04,0.16 -1.8,0.43 -1.14,-0.57 -0.59,-1.09 -2.3,0 -1.64,0.3 -1.66,-0.32 -0.8,-0.75 -0.93,-2.17 -0.3,-0.18 0,0 0.76,-1.67 1.89,-1.5 0.4,-0.79 0,-0.91 0.73,-1.1 2.37,-1.2 0.61,-0.68 0.19,-0.61 -0.87,-1.75 -0.07,-1.15 -1.38,-1.67 -0.26,-2.63 -0.63,-1.29 -0.09,-2.08 -0.6,0.02 -0.52,1.18 -0.54,0.56 -0.6,-0.49 0.28,-1.23 1.79,-3.21 0.16,-1.36 -0.54,-0.68 -0.66,0 -1.94,1.11 -0.97,-1.13 -0.57,-0.27 -1.21,0.23 -2.14,1.22 -0.61,-0.18 -0.46,-0.57 -1.2,-0.61 -2.64,0.11 -0.55,-0.61 -0.73,-1.17 0.53,-0.59 1.27,-0.64 0.98,-1.22 1.84,-0.99 0.46,-0.61 0.04,-0.66 -0.36,-0.59 -1.21,-0.47 -0.61,0.29 -0.46,1.18 -0.59,-0.18 -1.89,-1.25 -1.07,-1.08 0.28,-0.71 1.86,0.05 0.59,-0.39 0.41,-1.19 -0.06,-0.62 -0.57,-0.54 -1.82,-0.47 -0.62,-0.57 -0.57,-1.81 -0.07,-3.23 0,0 4.48,-8.25 1.06,-1.47 2.84,-2.28 0.54,-0.84 0.09,-0.58 -0.36,-0.96 -4.3,-6.18 -0.66,-1.2 0.13,-0.54 0.5,-0.86 2.72,-0.95 1.12,-0.64 1.17,-2.48 1.58,-1.02 0.71,-0.73 0.18,-1.44 -0.69,-4.44 0.03,-1.2 0.26,-1.74 0.56,-1.14 3.02,-3.03 1.56,-1.24 z" 
                fill="rgb(151, 144, 238)" 
                stroke="white" 
                stroke-width=".7px"
                title="Plateaux" 
                id="CG-14" 
            />
        </svg>