<svg xmlns="http://www.w3.org/2000/svg" viewBox="49.670385000000024 673.0627099999999 10.509999999999998 21.210000000000036" width="10.509999999999998" height="21.210000000000036">
            <path 
                d="m 55.490385,694.23271 -0.25,-0.2 -0.43,0.19 0.27,-0.42 -1.91,-1.95 -0.04,-0.32 0.11,-0.84 0.5,0.32 -0.43,0 0,0.5 0.34,0.2 0.18,-0.31 0.46,0.38 -0.12,0.37 0.57,0.04 0.59,-0.52 0.28,-2.13 -0.37,-1.18 -1.59,-1.86 -3.12,-2.61 -0.86,-1.97 0.04,-0.62 1.55,0.1 0.46,-0.32 1.34,-1.82 0.25,-0.7 0.07,-1.11 -0.34,-0.84 -1.53,-2.56 -0.86,-0.99 0,0 9.53,0 0,21.21 z" 
                fill="rgb(151, 144, 238)" 
                stroke="white" 
                stroke-width=".7px"
                title="Pointe-Noire" 
                id="CG-16" 
            />
        </svg>