<svg xmlns="http://www.w3.org/2000/svg" viewBox="160.25039000000004 80.702714 321.01 217.949996" width="321.01" height="217.949996">
            <path 
                d="m 432.36039,80.702714 1.57,0.62 1.57,2.99 0.11,0.63 -0.34,0.59 -0.59,0.38 -0.18,0.66 -0.02,1.17 0.4,1.34 2.99,1.42 1.38,2.38 1.35,0.7 0.36,0.59 0.05,3.76 0.59,0.45 0.66,0.02 1.86,-0.56 1.75,-0.86 0.64,0.2 0.57,0.56 3.07,0.95 0.62,0.46 2.82,5.429996 2.34,3.01 0.21,0.58 -0.32,3.19 0.38,2.76 -0.77,4.53 0.27,5.54 0.62,1.76 1.23,0.66 0.29,0.59 -0.25,0.7 -0.09,1.83 -1.82,0.61 -0.59,0.45 -0.55,1.93 -0.16,2.05 0.6,4.93 0.66,1.95 -0.19,2.42 0.57,1.27 -0.59,1.24 0.05,0.75 1.09,5.15 1.09,1.11 0.16,0.65 -2.53,6.22 -1.06,3.76 -1.37,1.81 0,0.65 0.77,1.27 0.73,0.7 0.16,0.59 -0.54,1.2 1.34,6.53 -0.55,1.24 -2.18,2.6 -0.41,1.18 0.45,0.59 1.19,0.22 0.52,0.59 -0.75,2.96 0.27,1.45 1.23,1.85 0.23,1.86 1,2.6 1.07,1.17 1.2,0.68 0.39,0.59 0.07,2.51 1.46,4.41 0.5,2.64 -1.8,2.56 -0.55,1.19 0.8,3.24 -0.32,1.87 -1.02,1.18 -3.78,1.88 -1.28,1.26 -1.11,1.79 0.09,3.66 -0.23,4.5 0.25,1.33 1.05,2.62 2.16,3.53 2.37,2.82 11.4,15.06 5.94,7.25 4.07,5.38 2.21,2.47 0,0 -13.81,7.09 -6.1,2.87 -5.27,3.03 -0.38,-0.13 -32.08,16.09 -0.95,-0.81 -0.57,-1.86 -1.39,-0.25 -1.71,0.55 -0.36,-0.16 -1.46,-1.92 -1.57,-0.66 -1.77,-1.58 -0.94,0.02 -2.48,1.43 -1.45,-0.25 -1.85,-0.97 -1.57,-0.03 0.23,-0.27 0.18,-2.1 -0.15,-1.49 -0.44,-0.7 -1.36,-0.84 -0.23,-0.88 0.11,-5.09 -1.98,-3.63 -1.04,-0.61 -1.07,-1.2 -3.39,-1.09 -0.82,-0.83 -1.69,0.29 -1.5,-0.72 -0.45,-0.7 0.04,-2.11 -0.18,-0.4 -0.55,-0.55 -2.84,-1.1 -1,-0.66 -0.46,-0.68 -1.16,-0.52 -0.5,-0.61 -2.77,-0.65 -3.05,0.36 -0.48,-0.63 -0.89,-0.23 -2.16,1.2 -1,0 -0.5,-0.63 -0.21,-0.91 -0.66,-0.45 -1.25,0.32 -0.84,-0.16 -1.07,0.59 -1.39,0.27 -1.41,-0.07 -0.95,0.7 -1.91,0.32 -1.3,0.92 -1.87,0.34 -0.63,1.06 -0.69,2.11 -1.63,1.15 -0.91,1.38 -0.69,0.43 -1.39,-0.3 -1.16,-1.06 -0.95,-0.18 -1.21,0.48 -0.48,-0.05 -0.56,-0.57 -2.01,-0.7 -1,0.12 -2.96,-1.02 -1.2,1.06 -0.78,0.32 -2.52,-0.32 -2,-0.79 -0.57,-0.02 -1,0.65 -0.41,-0.18 -0.16,-0.38 0.36,-1.65 0,0 0,0 0,0 -0.2,-0.45 -0.34,-0.14 -0.41,0.18 -0.53,1.15 -0.32,-0.11 -0.2,-2.01 -0.5,-0.61 -0.77,-0.36 -1.05,-0.05 -1.34,-0.81 -0.57,0.54 -0.41,0.07 -0.37,-0.72 0.19,-0.95 -0.44,-0.68 -2.45,-0.36 0.22,-1.88 -1.11,0.2 -0.37,-0.72 -0.72,-0.41 -1.57,0.1 -1.01,-0.71 -1.45,-0.22 -0.66,-1.02 -0.41,-2.89 0.14,-1.56 1.43,-2.49 -0.09,-1.01 -1.14,-3.28 -0.25,-1.4 -0.05,-6.02 0.82,-4.81 -0.22,-0.91 -1.48,-2.41 -0.37,-2.38 0.21,-0.38 0.77,-0.34 0.57,-1.11 1.14,-0.52 0.57,-1.11 0.68,-0.45 1.91,-0.29 0.77,-0.34 0.37,-1.31 -0.23,-0.91 -1.5,-2.8 -1.39,-0.84 -1.52,-0.2 -0.73,-0.38 -0.91,-1.29 -0.18,-0.95 -0.05,0.45 -5.17,0.25 -3.75,-0.72 -1.34,-0.61 -1.3,-0.8 -2.55,-2.26 -1.32,-0.13 -1.25,-0.93 -1.75,-0.36 -0.66,-0.43 -1.96,-3.23 -1.91,-1.34 -2.46,-0.56 -1.31,0.22 -1.23,0.55 -1.21,-0.05 -3.87,-1.47 -6.16,-1.69 -1.96,-0.84 -1.89,-1.49 -1.27,-0.61 -0.35,-0.59 -0.72,-5.81 -0.73,-1.92 0.11,-1.97 -0.27,-0.7 -0.57,-0.56 -2.48,0.22 -2.34,0.57 -1.12,-0.03 -1.2,-0.45 -3.6,0.84 -5.21,-0.27 -5.96,1.38 0,0 -0.47,-0.49 -1.08,-0.04 -0.94,-0.37 -1.49,-1.71 -0.98,0.06 -0.41,0.29 -3.33,-0.28 -0.88,0.24 -1.29,1.32 -3,-0.41 -0.65,-0.36 -0.71,-1.01 -0.6,-0.1 -1.01,-0.95 -0.15,-1.41 -1.38,-0.86 -0.58,0.51 -0.42,0.97 -1.31,0.31 -1.38,-0.49 -1.44,0.38 -1.86,0.03 -2.8,-1.26 -2.1,0.6 -0.38,-0.04 -0.44,-0.64 -1.82,0.49 -0.79,-0.25 -0.61,0.25 -0.27,-0.08 -0.3,-0.73 -0.35,0.06 -0.41,1.17 0.13,0.17 0.48,-0.26 0.17,0.96 -0.26,0.35 -0.62,-0.04 -0.45,1.01 -0.26,0.11 -0.43,-0.22 -0.17,0.48 0.45,0.9 -0.02,0.73 -0.85,0.79 -0.86,0.05 -0.47,0.67 -0.26,-0.03 -0.67,-0.66 -0.69,0.04 0.15,-0.62 -1.07,-0.15 -0.32,0.13 -0.17,0.54 -1.27,0.58 -0.17,0.3 -1.12,0.09 -0.53,0.11 -0.73,-0.45 -1.12,0.11 -0.84,0.58 -0.58,-0.32 -1.16,0.43 0.07,1.22 -2.13,-0.02 -0.34,0.73 -1.11,0.29 -0.02,0.77 -1.04,0.73 -0.14,0.65 -1.59,0.95 -0.37,0.04 -0.9,-0.47 -2.3,0.84 -0.99,-0.11 -0.51,0.48 -0.51,-0.07 -0.91,-0.36 -0.19,-0.45 -1.42,-0.48 -0.94,-0.66 -0.63,0.09 -0.15,-0.6 -1.18,0.41 -0.69,-0.18 -0.34,0.52 -0.62,0.07 -0.37,0.64 -1.86,-0.69 -0.73,0.95 0.02,0.28 0.68,0.65 -0.17,0.19 -1.69,-0.06 -0.43,0.62 -0.3,0.08 -0.65,-0.44 -1.07,0.06 0.24,1.96 -0.11,0.19 -0.73,-0.3 -0.11,1.16 -0.32,0.33 -0.3,-0.01 -1.03,-0.51 -1.23,0.22 -1.05,-0.24 -0.81,-0.04 -1.03,0.36 -2.02,-0.25 -1.85,0.73 -1.14,-0.86 -2.08,-0.47 0,-0.43 0.96,-0.9 0.89,0.27 0.13,-0.31 -0.28,-0.7 0.49,-0.68 -0.02,-0.97 0.49,-1.01 0.34,-0.11 0.39,0.56 1.33,-0.36 0.82,0.51 0.47,-0.41 -0.05,-0.84 0.18,-0.26 0.71,-0.12 1.43,-0.89 0.54,-1.67 -0.19,-0.45 -0.93,0.43 -0.53,-0.65 0.08,-0.34 0.77,-0.61 -0.64,-0.9 0.88,-1.74 -0.07,-0.28 -0.57,0.05 0.27,-1.12 -0.3,-0.47 -0.43,0 -0.51,-0.6 0.12,-0.74 -0.4,-0.87 -0.62,-0.07 -0.41,-0.37 0.14,-1.33 -0.57,-0.45 0.36,-0.68 -0.56,-0.65 -0.64,-0.66 -0.92,0.21 -0.16,-0.88 0.45,-1.12 -0.55,-0.27 -0.13,-0.71 -0.5,-0.28 -0.43,-0.67 -0.26,0.05 -0.21,0.45 -0.75,0.34 -0.37,-0.39 -0.58,-1.07 -0.32,-0.62 -0.3,-0.73 -0.6,-0.11 0.32,-0.71 -0.04,-0.6 -0.8,-0.77 0.11,-0.33 1.08,0.13 -0.28,-0.71 0.1,-1.01 0.49,-0.57 0.15,-0.59 -0.02,-0.83 -0.45,-0.47 -0.43,-0.99 0.24,-1.61 -0.3,-0.35 -0.18,-2.02 0.65,-0.55 0.62,-1.04 0.41,-0.15 -0.09,-0.79 0.21,-0.73 1.01,-0.32 0.9,-0.91 0,-0.99 -0.27,-0.36 0.21,-1.44 0.11,-0.22 0.27,0.05 0.16,0.39 0.6,-0.24 0.47,-1.25 -0.48,-0.79 -0.27,-0.05 -0.15,-0.49 0.45,-0.54 -0.31,-1.95 -0.4,-0.34 -1.18,-0.04 -0.09,-0.89 -0.99,-0.51 -0.17,-0.51 0.26,-0.39 -0.2,-0.54 0.3,-0.66 0.88,0.04 0.71,-0.5 0.28,-0.28 -0.08,-0.6 0.59,-0.9 0.84,-0.39 1.25,-1.03 -0.63,-1.56 -0.13,-0.78 0.2,-0.55 0.73,-0.48 1.35,-0.86 0.08,-0.54 0.11,-0.49 0.73,-0.77 0.64,-0.35 1.61,-0.02 0.34,-0.82 0.71,-0.34 0.17,-0.34 -0.62,-0.62 0.02,-0.26 0.69,0.32 0.02,-0.56 0.36,-0.34 -0.08,-1.85 0.49,-1.14 -0.09,-0.83 -0.38,0 -0.22,-0.82 0.28,-0.86 -0.58,-0.36 0.96,-0.78 -0.64,-1.11 0.56,-0.43 0.08,-0.71 8.67,0.17 18.61,-0.32 2.08,0.17 16.76,-0.2 10.68,0.26 2.68,-0.17 18.06,0 0.88,-0.06 1.09,-1.05 3.29,-0.43 3.45,0.61 0.86,-0.17 2.81,0.21 1.2,0.67 1.26,1.5 0.56,0 9.2,-3.35 0.9,-1.18 0.86,0.65 0.48,0.05 0.81,-0.72 0.28,0.11 0.37,0.71 1.28,0.4 0.45,0.49 1.51,2.81 0.97,0.1 0.43,0.32 0.13,0.35 -0.3,0.73 0.43,0.71 0.41,0.14 2.46,-0.26 1.06,0.88 0.3,0.86 1.01,0.08 0.68,0.36 0.3,0 0.02,-0.34 -0.38,-0.9 0.13,-0.24 0.45,-0.02 2.23,1.75 -0.11,0.47 -0.96,-0.02 0.05,0.63 0.45,0.06 0.94,-0.65 0.88,-0.06 0.43,0.75 -0.58,1.46 0.39,0.55 0.41,0.04 1.17,-0.88 0.28,0.02 1.04,1.11 0.36,0.03 1.05,-0.39 1.11,-1.43 0.77,-0.21 1.35,0.27 0.17,-0.58 -0.6,-1.13 0.94,-0.69 0.41,0.08 0.24,0.43 -0.04,1.72 0.22,0.81 0.56,0.41 2.03,0.53 0.22,0.41 -0.32,1.48 -1.3,1.5 1.38,1.38 0.68,0.29 2.58,-0.22 1.11,-0.33 0.47,-0.36 0.51,-1.44 0.58,-0.54 1.81,1.65 1.27,0.51 0.77,0.6 0.09,1.2 0.6,0.59 0.35,0.07 0.4,-0.32 1.2,-1.71 0.75,0.35 -0.02,1.39 2.66,0.14 1.15,-2.69 1.59,0.28 0.45,-0.46 0.25,-1.84 0.22,-0.22 0.81,-0.09 0.74,1.63 0.58,0.45 1.49,-1.61 1.46,-0.12 0.73,0.32 1.57,0.13 0.77,0.36 -0.7,1.35 1.35,0.23 0.64,0.86 1.1,0.4 0.8,0.65 1.12,1.24 0.3,0.88 -0.27,1.39 0.17,0.43 1.03,0.3 1.28,-0.74 -0.06,0.9 0.85,1.44 4.02,-2.04 1.25,-0.21 1.11,-1.06 0.85,-0.41 3.78,-1.01 0.64,-0.51 0.55,-0.01 2.61,1.78 0.4,0.06 0.63,-0.6 0.59,-0.05 1.58,1.13 2.31,-0.46 1.25,0.75 3.76,0.9 1.37,0.25 1.31,-0.3 2.94,1.04 0.48,0.58 1.77,-0.21 1.62,0.98 1.47,1.71 0.56,1.4 1.05,1.05 2.26,0.89 1.12,1.2 1.63,0.16 0.37,0.43 0.83,2.55 -0.22,0.69 0.48,0.02 0.94,-0.82 1.05,0.03 0.47,1.1 1.51,0.18 2.02,0.94 3.02,0.09 2.47,-0.37 0.48,0.25 0.23,0.6 -0.12,0.49 -1.28,2.48 0.02,0.47 0.56,0.45 0.13,0.41 -0.35,1.85 0.5,1.52 0.3,0.28 2.65,0.34 1.57,-2.62 2.96,-0.86 0.49,0.06 0.74,0.8 0.79,0.27 0.68,-1.83 -1.05,-1.65 -0.02,-1.57 0.59,-1.45 -0.56,-2.94 -1.05,-1.42 -0.96,-3.2 -0.23,-1 0.15,-1.62 -0.37,-0.21 -1.03,0.26 -0.54,-0.3 -0.9,-4.55 -2,-1.93 0.22,-0.84 -0.22,-1.73 0.58,-0.91 1.22,-1.05 0.57,-1.16 -0.02,-0.56 -1.2,-0.75 -0.32,-0.75 1.39,-0.86 0.49,-0.69 0.1,-1.26 -0.2,-0.86 -0.57,-0.9 -0.04,-1.57 0.51,-4.23 0.79,-0.49 2.98,0.15 0.78,1.73 0.46,0 1.03,-1.19 1.68,-0.72 0.65,-0.81 0.29,-0.97 1.37,-2.13 z" 
                fill="rgb(151, 144, 238)" 
                stroke="white" 
                stroke-width=".7px"
                title="Sangha" 
                id="CG-13" 
            />
        </svg>