<svg xmlns="http://www.w3.org/2000/svg" viewBox="331.2438 181.96174000000002 47.53999999999991 45.59000000000003" width="47.53999999999991" height="45.59000000000003">
            <path 
                d="m 366.4938,186.55174 0.78,0.58 0,0 1.38,5.2 -2.86,3.44 7.26,4.83 2.93,9 -4.74,3.04 0.76,2.18 0,0 3.09,0.34 0,0 3.69,3.99 -2.76,0.24 0,0 -2.53,1.08 0,0 -15.21,7.08 -9.88,-3.31 -5.43,-11.35 -4.53,1.35 -6.59,-3.32 0,0 -0.49,0.49 0,0 -0.12,-0.37 0,0 1.97,-2.55 0,0 0.56,-2.76 5,-0.25 -0.5,-9.43 3.26,-4.83 0,0 3.35,-3.1 0,0 1.07,-0.62 0,0 2.78,-1.97 0,0 1.25,-0.27 0,0 7.23,1.32 0,0 4.15,-4.62 0,0 2.52,1.85 0,0 1.99,1.35 0,0 z" 
                fill="rgb(151, 144, 238)" 
                stroke="white" 
                stroke-width=".7px"
                title="Brussels Capital Region" 
                id="BE-BRU" 
            />
        </svg>