<svg xmlns="http://www.w3.org/2000/svg" viewBox="262.2138 139.94174 252.08999999999992 111.08000000000007" width="252.08999999999992" height="111.08000000000007">
            <path 
                d="m 474.4738,144.59174 5.58,-1.42 2.59,5.98 3.99,-1.42 2.74,3.05 4.9,-2.78 -0.64,-7.13 7.39,-0.93 7.84,7.9 -5.5,2.68 -0.41,-2.65 -2.14,1.08 1.75,7.25 -8.87,3.51 -0.64,7.92 -6.58,5.36 4.28,7.94 2.51,-1.45 2.65,3.82 4.03,-2.28 0,0 3.97,-1.51 0,0 0.6,2.55 6.11,-0.15 3.68,3.05 -1.81,8.18 -4.32,-0.58 -3.56,9.38 -1.19,10.32 2.98,1.63 0,0 1.38,0.06 0,0 -8.29,6.94 1.3,6.87 0,0 -1.62,2.09 0,0 -1.21,4.81 3.52,1.81 -3.75,8.12 0,0 -6.05,0.61 -4.96,-5.24 0.49,-4.84 -5.16,-3.16 0,0 -7.29,-6.07 -11.05,8.25 -3.64,-2.02 0.02,-5.83 0,0 -1.48,0 0,0 -12.27,1.75 -0.04,-3.93 -4.42,-0.28 -4.16,-6.63 -6.11,-2.55 -6.87,1.41 -1.85,4.02 -0.78,-2.09 -3.64,1.96 -9.76,-3.01 -1.01,8.22 3.5,5.12 -4.12,3.99 -5.89,0.46 -1.67,-6.99 -4.05,5.18 -9.53,2.45 -0.14,3.46 -6.36,-4.51 0.18,-4.02 -23.46,8.19 0,0 0,3.83 0,0 -4.18,-0.09 -3.25,-5.33 -2.02,1.9 2.04,3.59 -4.07,-1.07 -1.56,6.31 -8.62,0 -2.9,3.22 -7.72,-6 -5.51,0.61 -4.77,-7.26 -10.68,7.29 0,0 -2.76,-1.72 0,0 0,-0.71 0,0 -5.04,6.31 -1.71,-2.21 -17.37,3.86 0,0 -1.3,0 0,0 -8.27,-0.64 -4.26,-5.82 1.15,-6.93 0,0 3.54,0.86 0,0 1.71,0.09 0,0 5.64,-0.95 -3.89,-8.12 3.35,-5.34 7.18,3.16 2.43,-3.8 3.31,2.52 9.06,-6.14 1.3,-13.85 -5.39,-1.17 8.36,-11.62 1.11,-4.06 -2.72,-3.2 4.63,-2.86 -0.95,-7.23 8.58,4.52 4.63,-4.4 0,0 -0.99,-2.28 0,0 -2.59,-8.81 3.05,-6.5 5.23,1.91 0,0 2.1,-0.06 0,0 6.73,-5.61 -2.12,-4.04 2.82,-1.2 0.72,-5.74 0,0 7.96,-1.76 12.88,5 -0.64,3.24 7.12,-4.35 -1.42,5.06 3.19,1.05 1.11,4.66 11.22,-3.11 5.21,4.35 2.04,-5.27 7.76,4.87 3.93,-3.64 6.36,4.16 3.15,-0.65 1.17,-5.4 15.29,-4.41 4.49,3.18 -1.93,4.87 7,-8.42 5.39,0.49 5.99,-4.41 5.06,8.57 15.62,-3.27 6.32,-4.66 0,0 0.91,0 0,0 6.05,-2.68 3.05,3.41 z m -124.49,40.67 0,0 -1.25,0.28 0,0 -2.78,1.97 0,0 -1.07,0.62 0,0 -3.35,3.11 0,0 -3.27,4.83 0.51,9.43 -5,0.25 -0.56,2.76 0,0 -1.96,2.55 0,0 0.12,0.37 0,0 0.49,-0.49 0,0 6.59,3.32 4.53,-1.35 5.43,11.36 9.88,3.31 15.21,-7.09 0,0 2.53,-1.07 0,0 2.76,-0.25 -3.7,-3.99 0,0 -3.09,-0.34 0,0 -0.76,-2.18 4.75,-3.04 -2.94,-9 -7.26,-4.83 2.86,-3.44 -1.38,-5.2 0,0 -1.4,-1.97 0,0 -1.98,-1.35 0,0 -2.53,-1.85 0,0 -4.14,4.61 -7.24,-1.33 z" 
                fill="rgb(151, 144, 238)" 
                stroke="white" 
                stroke-width=".7px"
                title="Flemish Brabant" 
                id="BE-VBR" 
            />
        </svg>