<svg xmlns="http://www.w3.org/2000/svg" viewBox="57.94380400000001 213.48173999999997 345.619996 264.21000000000015" width="345.619996" height="264.21000000000015">
            <path 
                d="m 178.3538,226.79174 6.65,3.1 8.66,-2.06 0.64,9.47 13.31,0.46 2.86,3.03 0,0 1.07,0.34 0,0 9.22,-15.76 6.4,-2.98 0.8,4.45 8.66,-4.17 -0.95,3.07 4.16,7.21 6.96,-0.71 5.49,2.64 7.96,-2.94 3.15,5.73 0,0 -1.15,6.93 4.26,5.82 8.27,0.64 0,0 1.3,0 0,0 17.37,-3.86 1.71,2.21 5.04,-6.31 0,0 0,0.71 0,0 2.76,1.72 0,0 2.49,0.34 -3.68,0.98 -0.54,15.09 2.94,6.27 7.18,0.12 7.51,-9.12 4.57,4.68 -0.86,6.97 10.31,2.35 -1.19,6.57 5.1,0.06 5.74,8.19 6.28,-0.06 -0.6,7.36 5.04,-5.65 10.5,-0.82 7.39,3.24 3.85,-1.25 -0.6,9.31 1.75,-2.81 4.98,-0.82 2.14,4.33 12.76,-4.73 0,0 -3.77,11.72 0,0 0,1.01 0,0 0.76,3.2 6.03,-3.11 -1.56,1.86 2.63,6.1 -5.45,9.81 8.91,5.12 -2.67,6.61 -3.64,1.22 3.97,3.96 -3.17,1.49 -1.71,6.84 2.67,9.36 -14.57,3.25 -2.9,-3.89 -4.1,0.06 -4.57,7.08 -10.87,-1.82 -0.95,4.59 -5.47,1.37 -2.12,4.98 -5.84,-0.55 -8.07,6.55 11.19,8.71 4.22,-4.76 1.89,1.09 0,0 1.91,0 0,0 2.76,2 0,0 -0.16,1.03 0,0 -0.39,4.97 0,0 -0.68,0 0,0 0.45,8.61 -6.59,4.73 7.49,13.77 -2.88,4.39 0.93,17.47 3.66,1.27 0.93,14.4 5.85,12.22 -2.31,4.85 0,0 -15.93,-3.44 -8.13,-4.85 -22.2,3.95 -0.56,-4.25 -9.67,-2.59 3.91,-6.52 -5.06,-5.58 4.67,-8.67 6.44,-0.36 7.2,-6.01 -6.42,-10.92 0.54,-8.35 -9.08,-0.15 0.23,2.12 -5.12,-2.18 5.17,-8.96 -0.84,-15.09 4.3,-1 9.4,-11.1 -2.47,-5.86 -5.95,-1 -3.03,-4.19 -2.43,4.31 3.38,5.07 -5.76,0.09 -4.03,-13.81 -4.05,-3.16 -3.85,0.91 -10.08,-14.62 -7.31,4.96 -2.61,-1.64 -1.01,2.07 -0.16,-2.19 -12.76,6.53 -10.1,-7.63 -4.67,-0.15 -2.3,2.71 -1.3,-3.22 -11.71,0.94 -2.68,2.4 -0.82,9.12 -4.03,-2.22 1.71,4.22 -1.89,0.49 -6.71,-8.99 -2.98,-10.61 3.23,-10.13 -2.92,-16.26 -10.13,-12.01 -4.92,1.68 -2.84,-3.02 -13.25,4.03 -0.89,-3.48 4.44,-7.6 -8.58,-2.93 -5.33,8.15 -2,-1.19 -11.87,5.86 -2.84,-3.9 -13.6,-6.22 -2.45,-4.36 0.02,-17.26 -7.72,-19.17 5.06,-5.63 -2.41,-3.92 1.52,-3.8 -13.17,-6.83 1.21,-3.31 -4.2,-6.59 0,0 8.25,-3.13 8.25,4.39 8.5,-1.07 3.64,10.36 6.87,3.68 9.03,-11.28 5.41,-0.8 0,0 0,-1.2 0,0 4.97,-4.54 z m -116.149996,18.54 1.36,-1.78 -5.62,-6.9 2.04,-1.69 -1.85,-2.97 5.19,-3.01 1.71,1.69 0.06,-2.21 3.37,2.67 5.15,-1.26 -0.12,-2.33 7.8,-2.79 -4.61,-6.08 12.39,-5.19 2.8,2.33 -1.21,6.17 4.07,0.86 -2.04,2.15 0,0 -8.21,6.81 -7.26,2.05 1.23,4.05 -7.04,11.7 -9.21,-4.27 z" 
                fill="rgb(151, 144, 238)" 
                stroke="white" 
                stroke-width=".7px"
                title="Hainaut" 
                id="BE-WHT" 
            />
        </svg>