<svg xmlns="http://www.w3.org/2000/svg" viewBox="473.93380000000064 213.07174000000003 277.9699999999995 207.91000000000003" width="277.9699999999995" height="207.91000000000003">
            <path 
                d="m 612.9138,213.10174 1.56,9.02 -3.58,7.43 0,0 6.17,3.28 0,0 0.95,0.12 0,0 2.67,-2.48 2.47,1.84 0,0 0.27,0.86 0,0 7.45,0 7.02,10.08 7.72,-0.95 4.22,2.21 5.45,-7.79 -3.56,-6.41 0,0 4.83,1.38 8.65,-3.61 3.76,2.85 7.72,-0.52 4.2,3.37 -0.39,7.85 1.19,-2.92 13.83,1.84 12.92,21.77 -2.75,2.54 2.9,3.28 -1.32,1.8 4.01,-2.02 13.81,1.99 -4.94,11.43 -3.54,-0.33 -9.57,9.96 0.44,4.67 3.44,1.58 -1.47,3.15 3.77,1.74 3.52,7.81 8.58,-3.02 15.62,5.03 -1.98,8.08 6.1,2.4 0.86,5.61 -6.85,17.14 12.84,13.62 -0.58,3.89 -8.17,2.46 -0.24,3.13 -5.62,-5.68 -4.88,1.15 -5.29,15.67 -12.59,3 -3.54,5.92 -4,0.7 -1.85,4.36 4.67,11.55 -8.7,2.21 -2.53,6.57 4.07,3.54 -2.8,3.73 -5.22,-1.82 2.45,-3.93 -2.29,-5.27 -6.25,-1.49 -0.29,4.55 -3.67,0.9 -5.8,-3.24 -1.28,-5.9 0,0 1.84,-6.85 -4.08,0.09 -0.58,-32.98 -5.22,-1.95 -0.78,-2.88 -22.7,-5.2 -2.21,6.11 3.5,3.98 -4.67,10.08 0,0 1.03,0 0,0 5.95,0.46 -7.64,5.67 -5.94,-1.06 -0.72,3 -1.61,-3.15 -6.28,-0.94 -8.39,1.94 4.85,-11.99 -4.54,-0.09 -4.22,-8.48 3.5,-8.57 -9.68,0.36 0.87,-3.65 -8.48,-0.82 -7.76,-8.39 -10.97,2 -4.79,-9.89 -8.54,5.36 -9.24,-6.76 -2.74,5.18 0,0 3.07,0 0,0 1.5,3.47 -7.06,6.78 0,0 -8.13,-2.74 -10.54,7.06 -3.15,-3.92 1.12,-4.81 -10.13,-2.98 -2.61,-3.99 2.71,-6.61 -7.36,-12.52 -6.81,3.17 -2.45,-4.36 1.99,-1.59 -5.31,-0.91 -0.94,-3.75 2.45,-2.81 -4.84,2.56 -4.26,-3.17 -0.41,-4.85 -11.09,-0.79 3.39,-2.38 -1.09,-6.08 -3.99,-8.49 -9.39,-9.11 1.01,-7.37 0,0 3.66,-7.01 -0.2,-9.21 3.05,-2.55 -4.64,-6.46 4.57,-2.6 0.68,-5.37 0,0 5.15,3.16 -0.48,4.84 4.96,5.24 6.05,-0.61 0,0 12.62,4.07 2.98,-2.69 -2.49,-3.16 1.3,-2.88 10.82,1.99 1.63,-2.88 3.89,3.56 3.46,-4.02 5.47,3.71 8.66,-9.04 7.39,-0.58 5.99,8.88 5.7,-0.3 2.72,-5.67 3.02,4.5 9.14,-5.57 0.49,-5.16 0,0 1.1,0.56 0,0 15.04,-5.62 8.46,-9.33 6.25,0.43 0.44,-2.33 0,0 z" 
                fill="rgb(151, 144, 238)" 
                stroke="white" 
                stroke-width=".7px"
                title="Liege" 
                id="BE-WLG" 
            />
        </svg>