<svg xmlns="http://www.w3.org/2000/svg" viewBox="474.4738 62.42173899999995 180.81000000000006 186.26000100000007" width="180.81000000000006" height="186.26000100000007">
            <path 
                d="m 630.5838,226.33174 4.86,3.77 7.08,-2.61 0.97,3.1 6.89,-4.54 1.34,4.26 0,0 3.56,6.41 -5.45,7.78 -4.22,-2.21 -7.72,0.95 -7.02,-10.08 -7.45,0 0,0 -0.27,-0.86 0,0 -2.47,-1.84 -2.67,2.48 0,0 -0.95,-0.12 0,0 -6.17,-3.28 0,0 11.07,-0.74 5.58,-6.75 3.04,4.28 z m -48.4,-156.940001 4.32,4.06 0.78,13.15 17.6,7.46 1.26,3.93 20.78,0.43 2.28,9.900001 9.1,-4.98 5.89,7.36 -8.81,8.19 4.34,6.18 -7.02,2.01 0.84,9.29 -5.08,-0.37 -3.05,8.8 3.52,3.3 -1.93,7.83 -8.81,10.94 1.5,2.28 4.4,-1.48 1.23,2.99 -6.71,12.56 -4.51,-0.34 -4.12,9.01 -6.54,2.92 0.86,13.55 7.55,4.7 0,0 -0.45,2.33 -6.24,-0.43 -8.46,9.33 -15.04,5.61 0,0 -1.11,-0.55 0,0 -0.49,5.15 -9.14,5.58 -3.02,-4.51 -2.72,5.67 -5.7,0.31 -5.99,-8.89 -7.39,0.58 -8.66,9.04 -5.47,-3.71 -3.46,4.01 -3.89,-3.55 -1.63,2.88 -10.84,-1.97 -1.3,2.88 2.49,3.16 -2.98,2.7 -12.63,-4.07 0,0 3.75,-8.12 -3.52,-1.81 1.21,-4.81 0,0 1.62,-2.09 0,0 -1.3,-6.87 8.29,-6.94 0,0 -1.38,-0.06 0,0 -2.98,-1.63 1.19,-10.32 3.56,-9.38 4.32,0.58 1.81,-8.18 -3.68,-3.05 -6.11,0.15 -0.6,-2.55 0,0 -3.97,1.51 0,0 -4.03,2.28 -2.65,-3.82 -2.51,1.45 -4.28,-7.94 6.58,-5.36 0.64,-7.92 8.87,-3.51 -1.75,-7.25 2.14,-1.08 0.41,2.65 5.5,-2.68 -7.84,-7.9 -7.39,0.93 0.64,7.13 -4.9,2.78 -2.74,-3.05 -3.99,1.42 -2.59,-5.98 -5.58,1.42 0,0 5.62,-7.04 0.47,-5.43 16.18,-3.4 6.79,-9.82 5.52,-0.34 0,0 1.58,-0.28 0,0 5.17,-0.65 2.39,-5.32 5.5,2.07 5.41,-5.41 -0.27,-10.210001 -9.03,-11.33 0.41,-8.09 4.08,-4.56 0,0 19.1,-0.5 1.93,-3.78 13.91,3.72 13.34,-11.82 5.93,1.55 3.68,5.42 z" 
                fill="rgb(151, 144, 238)" 
                stroke="white" 
                stroke-width=".7px"
                title="Limburg" 
                id="BE-VLI" 
            />
        </svg>