<svg xmlns="http://www.w3.org/2000/svg" viewBox="471.86380000000014 330.18174 207.47999999999985 280.7600000000002" width="207.47999999999985" height="280.7600000000002">
            <path 
                d="m 554.7738,345.61174 7.06,-6.78 -1.5,-3.47 0,0 -3.07,0 0,0 2.74,-5.18 9.24,6.76 8.54,-5.36 4.79,9.89 10.97,-2 7.76,8.39 8.48,0.82 -0.87,3.65 9.68,-0.36 -3.5,8.57 4.22,8.48 4.54,0.09 -4.85,11.99 8.39,-1.94 6.28,0.94 1.61,3.15 0.72,-3 5.94,1.06 7.64,-5.67 -5.95,-0.46 0,0 -1.03,0 0,0 4.67,-10.08 -3.5,-3.98 2.21,-6.11 22.7,5.2 0.78,2.88 5.22,1.95 0.58,32.98 4.08,-0.09 -1.84,6.85 0,0 -11.29,3.12 -1.1,12.5 -12.4,5.93 -1.86,10.31 -6.44,5.68 2.95,3.72 -1.9,5.41 -7.92,4.92 3.39,9.59 -5.88,5.31 -6.01,0.76 -2.53,13.41 -5.33,5.18 9.48,6.14 -1.85,3.49 -3.78,-1.53 1.03,4.66 -2.64,1.06 2.2,1.86 -3.45,3.34 2.69,13.59 6.59,-1.29 8.11,14.44 -0.77,7.42 7.45,-0.96 4,5.01 -4,9.74 8.83,3.81 -0.88,7.97 -3.71,0.63 -2.4,8.05 -5.09,3.74 0.76,2.61 3.52,-0.18 0.02,4.09 -5.72,6.22 -4.77,2.31 -11.09,-4.97 -2.6,6.82 -18.72,-3.74 -6.63,6.82 -0.84,6.36 -3.77,-4.6 -6.89,-2.18 -2.93,3.94 -10.92,2.36 -2.47,3.29 -4.35,-6.15 3.3,-2.72 -0.25,-3.62 -4.59,-3.86 2.53,-4.51 -3.29,-0.81 -1.75,-7.66 -15.66,-10.45 -1.98,4.17 -4.83,1.73 -1.5,-5.48 4.91,-7.34 -10.8,-11.54 -1.81,-1.26 -4.63,3.42 -7.29,-3.12 -7.63,0.72 -0.8,-6.71 -6.78,0.69 -6.46,-14.83 -5.84,0.36 -10.91,-6.22 -2.47,-5.35 -5.2,-0.45 0,0 3.74,-6.7 0.29,-8.78 13.27,-9.06 -2.75,-2.89 5.67,-5.76 9.27,-3.19 -4.24,-4.22 0.76,-7.05 -8.11,-7.24 -9.94,1.21 0.35,-5.01 -7.35,-9.6 2.99,0.45 1.66,-5.16 2.78,1.96 5.99,-4.65 0.87,-6.83 2.63,-0.15 -1.52,-3.36 2.67,-10.61 2,9.01 24.26,-1.06 13.36,-5.08 0,0 0,-1.21 0,0 -5.21,-4.93 8.17,-4.48 -0.66,-3.3 -7.12,-8.51 1.3,-1.73 -3.38,-0.82 2.41,-2.85 -7.53,-3.27 9.73,-3.27 -1.25,-3.37 5.53,-2.76 2.94,2.09 3.52,-1.79 15.87,-12.74 -1.07,-8.42 -4.63,-0.57 -3.17,3.73 -1.15,-2.76 10.06,-6.47 -2.59,-4.65 3.85,-4.9 z" 
                fill="rgb(151, 144, 238)" 
                stroke="white" 
                stroke-width=".7px"
                title="Luxembourg" 
                id="BE-WLX" 
            />
        </svg>