<svg xmlns="http://www.w3.org/2000/svg" viewBox="339.53379999999976 263.70174 216.59999999999997 260.58000000000027" width="216.59999999999997" height="260.58000000000027">
            <path 
                d="m 396.0038,296.13174 -0.56,-6.08 5,-2.35 8.5,2.78 4.76,-1.9 -2.68,-8.03 1.71,-4.25 7.82,3.76 1.69,-4.28 4.01,-0.73 1.87,6.63 5.17,-3.88 4.14,3.45 -0.75,-3.42 22.05,-6.39 -0.29,-2.11 5.59,0.49 4.64,-6.12 6.27,1.47 0,0 -1.01,7.37 9.39,9.11 3.99,8.49 1.09,6.08 -3.39,2.38 11.09,0.79 0.41,4.85 4.26,3.17 4.84,-2.56 -2.45,2.81 0.94,3.75 5.31,0.91 -1.99,1.59 2.45,4.36 6.81,-3.17 7.36,12.52 -2.71,6.61 2.61,3.99 10.13,2.98 -1.12,4.81 3.15,3.92 10.54,-7.06 8.13,2.74 0,0 1.36,3.59 -3.85,4.9 2.59,4.65 -10.06,6.47 1.15,2.76 3.17,-3.73 4.63,0.57 1.07,8.42 -15.87,12.74 -3.52,1.79 -2.94,-2.09 -5.53,2.76 1.25,3.37 -9.73,3.27 7.53,3.27 -2.41,2.85 3.38,0.82 -1.3,1.73 7.12,8.51 0.66,3.3 -8.17,4.48 5.21,4.93 0,0 0,1.21 0,0 -13.36,5.08 -24.26,1.06 -2,-9.01 -2.67,10.61 1.52,3.36 -2.63,0.15 -0.87,6.83 -5.99,4.65 -2.78,-1.96 -1.66,5.16 -2.99,-0.45 7.35,9.6 -0.35,5.01 9.94,-1.21 8.11,7.24 -0.76,7.05 4.24,4.22 -9.27,3.19 -5.67,5.76 2.75,2.89 -13.27,9.06 -0.29,8.78 -3.74,6.7 0,0 -7.74,4.33 -15.09,-1.8 4.53,-7.97 -5.39,-14.17 2.65,-0.09 5.35,-12.79 -7.96,-11.66 -10.97,-2.99 -0.27,-3.2 0.64,-4.13 4.92,-3.56 0.29,-9.48 4.18,-3.74 -4.1,-8.13 3.5,-0.66 2.53,-10.4 4.07,4.11 -0.84,-9.59 5.56,-5.14 -3.79,-4.91 -8.02,-0.39 -1.71,-4.3 -12.41,9.63 -2.45,7.53 -11.03,8.05 -2.64,5.59 3.79,4.65 -3.01,7.64 1.69,9.06 -18.4,2.65 -11.03,5.28 -3.23,5.61 -17.69,2.68 0,0 2.32,-4.85 -5.86,-12.22 -0.93,-14.4 -3.66,-1.27 -0.93,-17.47 2.88,-4.38 -7.49,-13.78 6.59,-4.72 -0.44,-8.61 0,0 0.68,0 0,0 0.39,-4.97 0,0 0.15,-1.03 0,0 -2.76,-2.01 0,0 -1.91,0 0,0 -1.88,-1.09 -4.22,4.76 -11.19,-8.7 8.07,-6.56 5.84,0.55 2.12,-4.98 5.46,-1.36 0.96,-4.59 10.87,1.82 4.57,-7.08 4.11,-0.06 2.9,3.89 14.57,-3.25 -2.67,-9.36 1.71,-6.84 3.17,-1.5 -3.96,-3.95 3.63,-1.22 2.67,-6.61 -8.91,-5.11 5.45,-9.81 -2.63,-6.1 1.56,-1.86 -6.03,3.11 -0.76,-3.2 0,0 0,-1.01 0,0 z" 
                fill="rgb(151, 144, 238)" 
                stroke="white" 
                stroke-width=".7px"
                title="Namur" 
                id="BE-WNA" 
            />
        </svg>