<svg xmlns="http://www.w3.org/2000/svg" viewBox="301.21380000000016 214.67173999999991 180.84999999999985 86.18999999999997" width="180.84999999999985" height="86.18999999999997">
            <path 
                d="m 302.9438,245.52174 10.68,-7.3 4.76,7.27 5.51,-0.62 7.72,6.01 2.9,-3.22 8.62,0 1.55,-6.31 4.07,1.07 -2.04,-3.58 2.02,-1.9 3.25,5.33 4.18,0.09 0,0 0,-3.83 0,0 23.46,-8.18 -0.17,4.01 6.36,4.51 0.13,-3.47 9.53,-2.45 4.05,-5.18 1.67,6.99 5.9,-0.46 4.12,-3.99 -3.5,-5.12 1.01,-8.22 9.77,3.01 3.63,-1.97 0.78,2.09 1.85,-4.02 6.87,-1.41 6.11,2.54 4.16,6.63 4.41,0.28 0.04,3.92 12.28,-1.74 0,0 1.48,0 0,0 -0.02,5.82 3.63,2.03 11.05,-8.25 7.3,6.07 0,0 -0.68,5.37 -4.57,2.6 4.64,6.46 -3.05,2.55 0.2,9.21 -3.66,7.01 0,0 -6.27,-1.47 -4.64,6.12 -5.59,-0.49 0.29,2.11 -22.05,6.39 0.75,3.42 -4.14,-3.45 -5.17,3.88 -1.87,-6.63 -4.01,0.73 -1.69,4.28 -7.82,-3.76 -1.71,4.25 2.68,8.03 -4.76,1.9 -8.5,-2.78 -5,2.35 0.56,6.08 0,0 -12.76,4.73 -2.14,-4.34 -4.98,0.83 -1.75,2.8 0.6,-9.31 -3.85,1.26 -7.39,-3.24 -10.51,0.82 -5.03,5.65 0.6,-7.36 -6.28,0.06 -5.74,-8.18 -5.1,-0.07 1.19,-6.57 -10.31,-2.35 0.85,-6.98 -4.57,-4.68 -7.51,9.12 -7.17,-0.12 -2.94,-6.27 0.54,-15.1 3.68,-0.98 z" 
                fill="rgb(151, 144, 238)" 
                stroke="white" 
                stroke-width=".7px"
                title="Walloon Brabant" 
                id="BE-WBR" 
            />
        </svg>