<svg xmlns="http://www.w3.org/2000/svg" viewBox="0.28380446000000603 41.331739 190.12999553999998 204.00000099999997" width="190.12999553999998" height="204.00000099999997">
            <path 
                d="m 160.6838,41.331739 3.1,10.59 -4.9,5.93 3.32,4.04 -1.73,1.21 2.72,7.19 0,0 3.15,11.63 -6.02,2.94 3.42,7.62 -4.69,3.44 4.96,1.7 4.9,7.980001 -7.08,13.46 -8.34,5.56 20.25,13.89 2.1,2.04 -2.76,2.56 0,0 -1.17,0 0,0 5.08,10.18 -4.98,7.67 3.38,4.69 -5.85,2.77 9.06,4.28 -4.16,0.68 2.45,3.32 -5.02,0.03 1.5,3.73 -3.45,4.09 3.21,2.15 5.26,-3.07 3.67,3.13 -5.05,9.2 11.55,9.95 -2.43,3.44 4.28,5.68 -12.06,11.76 0,0 -5,4.48 0,0 0,1.19 0,0 -5.41,0.8 -9.03,11.28 -6.86,-3.68 -3.64,-10.36 -8.5,1.07 -8.25,-4.38 -8.25,3.12 0,0 -5.29,-10.39 -4.78,1.1 -2.71,-2.3 -5.52,6.66 -4.55,-2.43 -5.079996,3.38 -2.78,-1.32 0,0 2.04,-2.15 -4.06,-0.86 1.2,-6.17 -2.8,-2.33 -12.39,5.19 4.61,6.07 -7.8,2.79 0.12,2.34 -5.16,1.25 -3.36,-2.67 -0.06,2.21 -1.71,-1.68 -5.2,3 1.85,2.98 -2.04,1.68 5.62,6.9 -1.36,1.77 0,0 -3.06,-4.75 -5.64,2.15 -5.48,-3.34 -1.79,-7.51 -10.88,-12.79 -0.23,-5.41 -8.77,-1.01 -1.79,-2.58 -6.48,2.95 -3.77,-10.97 -3.18,-0.46 2.46,-4.76 -0.65,-10.15 -0.44,-4.7 -3.1699995,-1.94 8.0899995,-8.53 -4.81,-13.22 -6.4899995,-3.79 -5.84000004,-26.72 42.86999954,-23.99 60.459996,-42.020001 20.93,-9.03 -2.74,-6.55 3.25,-3.61 -2.32,2.55 3.04,3.79 2.76,-1.77 -3.4,4.29 1.96,-1.62 0.31,3.39 1.34,-3.82 1.91,1.27 -1.3,-2.11 3.26,0.84 -1.4,-4.72 -1.49,0.96 2.33,-2.18 -4.59,-1.12 4.82,1.19 0.98,6.02 z" 
                fill="rgb(151, 144, 238)" 
                stroke="white" 
                stroke-width=".7px"
                title="West Flanders" 
                id="BE-VWV" 
            />
        </svg>