<svg xmlns="http://www.w3.org/2000/svg" viewBox="369.68119999999976 143.85798 161.31000000000017 93.24000000000004" width="161.31000000000017" height="93.24000000000004">
            <path 
                d="m 486.2012,143.85798 6.81,5.18 1.68,0.07 2.33,-1.45 1.97,0.34 3.48,3.69 2.9,4.84 1.44,0.72 8.9,-1.45 3.33,0.43 1.02,0.25 5.36,3.05 3.18,3.32 0.07,1.77 -3.24,5.44 -1.37,5.26 1,2.29 -1.1,2.26 5.26,10.62 0.45,2.07 -0.63,2.34 0.56,2.11 1.39,0.44 0,0 -1.54,3.38 0.31,3.27 -1.47,2.86 0.33,4.04 -4.04,4.3 -0.91,1.51 -0.02,1.17 1.08,2.66 -0.39,2.23 -1.57,2.09 -0.53,1.6 -1.97,0.94 -1.11,2.41 -0.1,2.09 1.78,3.33 -0.23,1.4 -0.79,0.37 0,0 -1.44,-1.77 -0.95,-0.13 -1.94,0.87 -1.46,-0.1 -2.38,0.89 -2.9,0.15 -1.81,-0.74 -1.3,0.75 -5.88,0.06 -0.96,-2.92 -1.08,-0.43 -1.43,-1.45 0.54,-3.82 -4.07,0.03 -2.72,-1.05 -3.21,-2.32 -4.6,-0.36 -2.58,-1.66 -0.36,-1.79 -2.86,-1.05 -0.81,0.2 -2.3,2.08 -4.93,0 -1.98,-1.42 -5.14,1.59 -2.19,-0.7 -1.68,0.84 -0.91,-0.55 -1.56,-3.11 -0.61,1.06 -0.62,0.18 -2.4,-0.98 -1.41,0.15 -2.32,-0.81 -1.4,0.56 -0.99,1.64 -2.23,-0.6 -2.46,0.66 -7.78,4.52 -3.37,0.18 -4.01,-0.77 -1.85,0.19 -2.3,-0.83 -5.7,0.58 -1.42,0.98 -3.14,3.9 -0.78,0.16 0,0 -0.89,0 -1.15,-0.72 -1.4,-2.46 -6.45,-5.37 -2.62,-0.94 -2.49,0.46 -1.22,-0.26 -0.78,-4.33 -1.37,-1.38 -1.67,-0.78 -0.68,-0.98 0.18,-1.91 -1.09,-3.99 -3.26,-2.47 -1.91,-2.1 -0.85,-0.25 -2.05,0.52 -2.66,-1.5 -5.24,-4.06 -2.37,-2.9 -0.49,0.01 0.03,-4.69 0.78,-3.59 6.13,-5.93 4.75,-8.89 0,0 2.12,1.15 0.55,1.36 -0.21,1.01 0.93,0.2 2.63,2.19 0.39,-0.04 -0.05,-0.9 -0.88,-1.7 -0.93,-0.77 1.44,-1.7 2.76,-1.26 1,0.12 0.1,0.94 0.87,-0.08 -0.38,0.9 0.58,0.36 1.17,-0.43 2.62,0.28 1.72,1.02 4.64,-0.19 1.91,-1.15 2.51,-0.66 0.97,0.74 2.71,-2.15 2.06,-0.82 0.96,-2.37 3.27,-0.38 0.31,0.37 -0.82,1.95 2.11,-1.19 3.15,-0.48 2.59,-3.28 1.14,-0.31 1.44,-1.65 0.18,1.56 0.65,0.43 3.88,-2.08 0.78,0.04 0.59,0.65 0.76,-0.1 1.84,-1.45 5.73,-3.02 1.01,-0.92 1.11,-2.09 3.24,-1.33 1.33,-1.61 3.36,-0.65 4.07,-0.12 13.4,-4.29 0.42,-1.37 0,0 2.14,1.3 1,-0.23 3.12,-2.22 2.75,1.06 1.22,-1.15 3.21,0.45 1.14,-1.45 z" 
                fill="rgb(151, 144, 238)" 
                stroke="white" 
                stroke-width=".7px"
                title="Cabañas" 
                id="SV-CA" 
            />
        </svg>