<svg xmlns="http://www.w3.org/2000/svg" viewBox="227.10119999999995 9.617980799999945 242.00000000000017 173.13999920000012" width="242.00000000000017" height="173.13999920000012">
            <path 
                d="m 320.1712,38.157981 5.5,-0.43 10.01,-2.65 1.58,0.11 2.79,2.27 8.61,3.71 2.98,0.22 4.06,2.81 1.47,3.28 0.86,6.19 -2.05,3.69 0.84,1.83 12.04,7.66 5.15,8.47 -0.08,1.39 -1.18,1.33 0.74,1.41 2.91,0.6 3.51,2.75 9.19,0.15 6.29,-0.46 3.27,3.84 4.71,2.16 4.42,1.15 1.81,1.3 3.93,10.339999 4.43,7.31 6.14,13.83 2.62,1.64 2.75,0.26 6.38,-0.67 7.73,-1.72 2,-0.06 1.97,0.74 4.6,4.48 5.16,8.27 1.95,2.24 7.39,7.15 2.45,1.43 0,0 -0.42,1.37 -13.4,4.29 -4.07,0.12 -3.36,0.65 -1.33,1.61 -3.24,1.33 -1.11,2.09 -1.01,0.92 -5.73,3.02 -1.84,1.45 -0.76,0.1 -0.59,-0.65 -0.78,-0.04 -3.88,2.08 -0.65,-0.43 -0.18,-1.56 -1.44,1.65 -1.14,0.31 -2.59,3.28 -3.15,0.48 -2.11,1.19 0.82,-1.95 -0.31,-0.37 -3.27,0.38 -0.96,2.37 -2.06,0.82 -2.71,2.15 -0.97,-0.74 -2.51,0.66 -1.91,1.15 -4.64,0.19 -1.72,-1.02 -2.62,-0.28 -1.17,0.43 -0.58,-0.36 0.38,-0.9 -0.87,0.08 -0.1,-0.94 -1,-0.12 -2.76,1.26 -1.44,1.7 0.93,0.77 0.88,1.7 0.05,0.9 -0.39,0.04 -2.63,-2.19 -0.93,-0.2 0.21,-1.01 -0.55,-1.36 -2.12,-1.15 0,0 -3.63,-1 -0.31,1.66 0.61,1.59 -1.37,-0.49 -0.41,1.21 -1.07,0.94 -0.53,-0.61 -1.45,-0.32 0.91,-1.82 -1.16,0.21 -0.35,-0.48 1.22,-0.48 -0.14,-0.37 -1.62,0.26 -1.2,1.68 -0.94,-0.18 -1.2,0.46 -0.1,0.87 3.81,0.56 1.11,0.57 -0.28,1.58 1.5,4.08 -0.51,0.32 -2.31,-3.49 -1.43,0 -1.03,3.06 -1.83,1.5 1,-3.5 -0.92,-1.93 -0.59,-0.24 -2.03,3.1 0.77,-4.15 -2.1,-1.7 -0.87,-2.15 0.24,-0.72 -1.63,-0.31 -1.08,-1.36 -0.01,-0.84 -0.56,-0.29 -2.73,2.4 1.23,-2.31 0.12,-2.26 -0.81,-1.4 -1.76,0.09 -0.31,-0.36 1.53,-1.61 0.61,-2.13 -1.58,-2.03 -1.88,0.75 -1.15,-0.45 2.15,-1.37 0.01,-0.97 -0.94,-0.57 0.86,-1.28 -0.13,-0.61 -1.72,0.51 -0.56,0.63 -1.67,-0.81 -0.31,1.35 -0.5,0.23 -0.76,-1.58 -2.02,1.08 -1.48,-0.39 0.09,-0.77 2.4,-1.04 0.49,-3.09 0.45,-0.44 1.04,-0.14 0.83,0.94 1.77,0.69 0.58,-0.27 -0.91,-1.48 0.13,-0.83 -1.97,-1.81 -0.47,0.03 -0.41,0.84 -0.97,-0.43 0.7,-1.22 -0.7,-0.49 0.06,-2.2 -0.43,-0.17 -0.25,1.1 -1.31,0.28 0.72,1.76 -4.07,0.17 -0.33,-0.65 2.08,-2.55 -3.65,0.33 1.28,-1.85 1.59,-0.89 -0.65,-0.56 -2.36,0.21 0.27,-2.18 -1.97,2.05 -0.8,-1.58 -0.61,-0.02 -1.87,-1.5 -0.79,-0.09 -1.51,1.29 -1.88,-0.67 -0.52,1.29 1.45,1.62 -0.59,0.76 -1.46,-0.76 -0.95,-1.12 -1.37,-0.31 -1.03,-1.47 -1.61,-0.93 0.05,-1.79 -2.93,-2.7 -0.76,-1.61 -0.93,-0.1 -1.46,1.07 -0.67,1.14 0,0 -0.89,0.32 0.38,-1.81 -1.54,0.69 -0.74,1.99 -2.14,0.85 -1.76,3.23 -2.05,0.07 -1.92,0.67 -0.43,-1.21 -2.31,-2.1 0.51,-1.9 -0.42,-1.64 -1.42,-1.19 -0.81,-0.04 -2.79,1.47 -2.25,2.42 -3.01,1.17 -1.12,0.17 -3.07,-2.12 -5.66,-0.95 -1.44,0.61 -0.59,1.77 -3.3,0.87 -1.43,-0.52 -1.45,1.78 0,0 -0.93,-0.7 -0.93,-2.55 -1.28,-0.66 -0.83,0.16 -1.05,1.11 -1.23,-0.2 -1.94,0.87 -1.17,-0.08 -0.49,-0.68 -0.7,-4.94 -1.18,-0.89 -1.24,0.05 -3.37,0.52 -3.85,3.74 -3.3,1.48 -1.77,0.01 -1.86,-0.98 -1.18,0.27 -0.9,1.22 -0.33,2.52 -1.57,1.62 -0.33,2.26 -0.51,0.23 -2.03,-1.14 -2.47,0.97 0,0 -3.66,-0.89 -4.29,0.73 -2.74,-1.86 -2.86,-0.22 -0.79,-1.01 0.51,-3.72 -0.85,-2.86 1.09,-1.4 -0.72,-3.1 0.32,-1.84 1.26,-0.97 0.68,-1.54 1.9,-1.33 -0.11,-1.74 2.84,-0.94 1.03,-1.46 -0.24,-3.19 -0.72,-2.06 -1.23,-0.91 0.22,-0.75 1.33,-1.25 0.9,-2.13 3.95,-0.69 5.76,-5.14 0.14,-1.45 1.42,-0.549999 0.07,-2.51 1.14,-1.87 4.79,-0.6 1.65,0.25 1.8,-0.43 1.06,-1.04 3.28,0.13 2.75,-1.98 0.85,-5.42 -1.23,-3.87 1.45,-4.05 -0.32,-1.14 -1.34,-1.65 -0.05,-1.42 -0.82,-1.43 0.14,-1.75 1.56,-0.99 2.26,0.33 2.29,-1.7 1.24,0.31 0.97,-0.41 2.23,1.02 4.91,-2.99 2.1,-2.9 -0.2,-1.22 0.57,-0.67 -0.49,-1.2 0.18,-3.17 1.66,-1.79 1.3,-2.64 0.13,-2.31 0.74,-1.64 -0.43,-2.53 1.44,-1.69 0.63,-1.72 -0.37,-1.09 -1.63,-1.54 -12.83,-9.27 -4.1,-6.47 -13.4,-14.35 -1.06,-0.5 0,0 0.31,-0.4500002 6.07,5.4100002 10.68,5.39 12.77,3.32 11.32,0.73 5.58,2.67 9.94,8.86 7.13,2.07 z" 
                fill="rgb(151, 144, 238)" 
                stroke="white" 
                stroke-width=".7px"
                title="Chalatenango" 
                id="SV-CH" 
            />
        </svg>