<svg xmlns="http://www.w3.org/2000/svg" viewBox="311.2912000000001 131.22798000000003 100.27000000000004 140.66000000000005" width="100.27000000000004" height="140.66000000000005">
            <path 
                d="m 319.8712,133.43798 0.67,-1.14 1.46,-1.07 0.93,0.1 0.76,1.61 2.93,2.7 -0.05,1.79 1.61,0.93 1.03,1.47 1.37,0.31 0.95,1.12 1.46,0.76 0.59,-0.76 -1.45,-1.62 0.52,-1.29 1.88,0.67 1.51,-1.29 0.79,0.09 1.87,1.5 0.61,0.02 0.8,1.58 1.97,-2.05 -0.27,2.18 2.36,-0.21 0.65,0.56 -1.59,0.89 -1.28,1.85 3.65,-0.33 -2.08,2.55 0.33,0.65 4.07,-0.17 -0.72,-1.76 1.31,-0.28 0.25,-1.1 0.43,0.17 -0.06,2.2 0.7,0.49 -0.7,1.22 0.97,0.43 0.41,-0.84 0.47,-0.03 1.97,1.81 -0.13,0.83 0.91,1.48 -0.58,0.27 -1.77,-0.69 -0.83,-0.94 -1.04,0.14 -0.45,0.44 -0.49,3.09 -2.4,1.04 -0.09,0.77 1.48,0.39 2.02,-1.08 0.76,1.58 0.5,-0.23 0.31,-1.35 1.67,0.81 0.56,-0.63 1.72,-0.51 0.13,0.61 -0.86,1.28 0.94,0.57 -0.01,0.97 -2.15,1.37 1.15,0.45 1.88,-0.75 1.58,2.03 -0.61,2.13 -1.53,1.61 0.31,0.36 1.76,-0.09 0.81,1.4 -0.12,2.26 -1.23,2.31 2.73,-2.4 0.56,0.29 0.01,0.84 1.08,1.36 1.63,0.31 -0.24,0.72 0.87,2.15 2.1,1.7 -0.77,4.15 2.03,-3.1 0.59,0.24 0.92,1.93 -1,3.5 1.83,-1.5 1.03,-3.06 1.43,0 2.31,3.49 0.51,-0.32 -1.5,-4.08 0.28,-1.58 -1.11,-0.57 -3.81,-0.56 0.1,-0.87 1.2,-0.46 0.94,0.18 1.2,-1.68 1.62,-0.26 0.14,0.37 -1.22,0.48 0.35,0.48 1.16,-0.21 -0.91,1.82 1.45,0.32 0.53,0.61 1.07,-0.94 0.41,-1.21 1.37,0.49 -0.61,-1.59 0.31,-1.66 3.63,1 0,0 -4.75,8.89 -6.13,5.93 -0.78,3.59 -0.03,4.69 0.49,-0.01 2.37,2.9 5.24,4.06 2.66,1.5 2.05,-0.52 0.85,0.25 1.91,2.1 3.26,2.47 1.09,3.99 -0.18,1.91 0.68,0.98 1.67,0.78 1.37,1.38 0.78,4.33 1.22,0.26 2.49,-0.46 2.62,0.94 6.45,5.37 1.4,2.46 1.15,0.72 0.89,0 0,0 0.42,0.59 1,6.81 -1.85,1.55 -0.04,2.68 -2.04,1.26 -0.32,1.12 1.1,2.72 -0.17,3.27 1.77,2.58 -0.14,1.64 -6.17,3.5 -2.97,3.63 0,0 -6.24,0.89 -3.11,1.49 -2.51,0.58 -0.96,1.51 -0.53,3.11 -3.72,3 -1.79,-1.28 -4.25,-1.93 -5.71,-4.33 -7.49,-1.87 0,0 -1.3,-2.86 0.17,-0.51 6.39,-2.98 -1.21,-7.27 -2.45,1.39 -1.57,1.61 -0.98,-0.14 -0.69,-0.96 -2.11,-0.96 -2.55,1.06 0.31,-1.54 -6.73,-13.73 -2.48,-6.69 -4.32,-6.42 -0.46,-3.88 -9.11,-1.82 -2.4,-4.21 -1.96,-2.23 -1.79,-5.06 -1.06,-1.71 -1.44,-1.28 -1.19,-0.41 -3.03,0.71 -1.94,-0.18 -0.78,-0.97 -0.69,-3.87 -2.31,-1.06 0,-0.94 0.76,-1.11 4.22,-1.61 5.72,-5.08 -0.1,-0.65 -2.38,-2.21 -3.27,-1.03 -2.67,-2.74 -1.24,-3.96 -1.26,-1.7 -2.13,-4.91 -3.1,-5.45 0.59,-2.03 2.9,-1.98 2.56,-7.18 0.53,-5.7 -0.59,-3.28 -1.22,-1.41 0.07,-2.91 2.4,-2.91 z" 
                fill="rgb(151, 144, 238)" 
                stroke="white" 
                stroke-width=".7px"
                title="Cuscatlán" 
                id="SV-CU" 
            />
        </svg>