<svg xmlns="http://www.w3.org/2000/svg" viewBox="164.39120000000014 129.47797999999997 158.34999999999997 213.88999999999984" width="158.34999999999997" height="213.88999999999984">
            <path 
                d="m 241.7812,142.24798 2.47,-0.97 2.03,1.14 0.51,-0.23 0.33,-2.26 1.57,-1.62 0.33,-2.52 0.9,-1.22 1.18,-0.27 1.86,0.98 1.77,-0.01 3.3,-1.48 3.85,-3.74 3.37,-0.52 1.24,-0.05 1.18,0.89 0.7,4.94 0.49,0.68 1.17,0.08 1.94,-0.87 1.23,0.2 1.05,-1.11 0.83,-0.16 1.28,0.66 0.93,2.55 0.93,0.7 0,0 0.12,1.1 -1.34,1.12 -0.33,1.31 -1.76,0.85 0.03,2.47 -1.05,3.66 -0.25,0.34 -0.8,-0.25 -0.66,0.77 0.3,2 -0.53,1.53 2.82,4.75 0.64,0.22 1.27,-0.61 1.97,1.98 0.54,0.26 0.91,-0.54 1.13,2.97 1.7,1.14 0.25,0.76 -0.41,0.41 -1.8,0.46 -0.64,0.71 0.66,1.96 6.13,2.67 7.34,1.2 0.55,1.3 0.2,3.58 -0.44,2.27 -3.02,2.07 -0.21,3.36 -1.87,1.49 -0.72,8.27 -1.43,6 -1.78,5.14 -1.26,5.75 -2.6,5.21 0.74,4.78 -3.79,12.85 -1.86,4.33 -1.22,1.35 0.45,0.79 0.89,0.37 4.27,-1.81 1.21,0.26 -0.44,2.35 -3.27,3.45 -0.03,1.29 0.59,0.96 -1.19,0.97 0.14,0.83 3.47,0.95 6.65,2.92 0.72,1.07 1.23,5.28 0.94,2.14 0.6,0.98 3.12,2.01 0.62,0.89 -0.6,1.09 -2.52,0.57 -0.68,0.54 -0.98,2.25 -0.54,3.37 0.14,0.82 0.73,0.4 3.16,0.03 2.41,1.08 -0.1,0.65 -2.31,2.25 -1.02,2.66 0.38,2.75 -1.08,2.12 0.25,2.62 2,2.92 0.98,2.33 -0.61,4.95 -1.91,2.99 -0.68,2.09 -0.05,1.92 2.93,6.29 1.45,2.09 0.85,3.49 2.48,2.36 0.26,2.03 -0.69,1.75 0.09,0.93 1.44,0.91 3.27,0.33 3.4,1.13 1.08,-0.91 -0.14,-2.59 0.62,-1.1 -0.51,-0.61 0.24,-0.56 5.47,-0.08 0,0 0.23,2.01 -0.6,3.37 2.02,0.55 5.43,-0.89 0.66,0.39 0.07,0.88 -1.57,5.69 -0.81,1.33 -1.98,2.12 -2.7,1.14 0.07,0.66 0.91,0.5 0.41,1.06 -1.76,3.97 0,0 -4.2,-2.77 -2.7,-0.64 -6.04,-3.04 -0.45,-1.1 -2.07,-0.19 -4.06,-2.76 -10,-4.33 -0.99,-0.73 -0.09,-0.65 -1.71,0 -11.18,-4.7 -0.99,-0.83 -3.61,-0.73 -2.88,0.37 -0.63,-0.56 -2.44,0 -1.17,1.85 -1.08,0.55 -1.08,-0.92 -5.32,-1.38 -2.07,0.92 -2.52,-1.94 -2.17,-0.73 -3.96,0.09 -1.98,-0.83 -1.36,0.64 -1.26,-1.01 -0.99,0.65 -1.26,0.09 -1.53,-0.37 -1.81,0 -1.26,-0.37 -2.25,1.11 -4.05,-1.2 -1.54,0.55 -2.52,-0.46 -1.53,-0.28 -4.87,-1.28 -1.8,0.64 -1.62,0.28 -7.57,-0.83 -1.08,0.37 -0.28,0.55 -3.24,0.74 -3.43,0.18 -2.43,-1.01 -2.97,-1.66 -1.44,0 -2.89,-0.09 -2.61,-1.2 -2.25,-0.28 -1.72,-0.36 -2.07,-0.47 -4.33,-0.18 -0.27,-0.64 -0.9,-0.28 -0.45,0.37 -1.71,-0.19 -0.99,-1.1 -3.25,-1.22 0,0 6.37,-4.95 5.23,-6.75 6.69,-6.34 0.96,-1.8 1.07,-6.87 0.96,-2.87 2.83,-3.27 1.7,-2.75 3.37,-2.09 2.39,-2.89 0.32,-2.5 -1.47,-15.03 0.52,-2.99 1.61,-1.24 1.7,-0.6 9.2,-1.28 1.07,-3.6 2.12,-0.88 1.01,-2.26 1.88,-1.67 2.04,-0.5 0.6,0.84 1.34,0.25 0.8,-0.84 0.52,-1.9 2.43,-0.49 1.67,-3.68 -0.23,-3 -0.7,-0.81 -1.56,-0.18 -2.8,-1.3 0,0 -0.2,-3.81 -1.58,-1.4 -1.28,-3.33 2,-2.04 1.68,-0.49 1.35,-1.04 0.57,-1.96 -0.38,-1.35 0.65,-0.4 -0.37,-1.02 1.16,-3.88 -1.49,-4.57 0.79,-0.96 -0.58,-4.93 -2.43,-7.47 1.31,-2.19 -0.73,-1.88 1.41,-1.89 0.38,-1.86 1.11,-1.17 0.98,0.52 0.43,-0.26 1.08,-2.48 1.38,-0.19 0.66,-1.26 3,-0.33 6.25,-5.49 3.03,-0.69 1.23,-1.13 -0.03,-1.84 -1.17,-2.13 0.31,-2.71 -0.81,-2.47 1.59,-3.7 1.54,-0.09 0.48,-1.41 1.19,-0.85 -0.16,-2.62 -1.69,-1.16 -0.21,-0.63 1.64,-3.15 0.08,-1.29 z" 
                fill="rgb(151, 144, 238)" 
                stroke="white" 
                stroke-width=".7px"
                title="La Libertad" 
                id="SV-LI" 
            />
        </svg>