<svg xmlns="http://www.w3.org/2000/svg" viewBox="314.5911999999997 261.30798 123.65000000000009 134.72000000000014" width="123.65000000000009" height="134.72000000000014">
            <path 
                d="m 399.4312,378.70798 2.07,0.92 0.81,1.75 -5.41,-1.29 -1.17,-0.83 0.18,-0.55 3.52,0 z m -10.72,-5.52 0.63,0.37 0.27,1.1 -0.9,-0.37 0,-1.1 z m -1.35,-0.28 0.9,1.38 -2.52,-0.55 0.09,-0.64 1.53,-0.19 z m 13.37,-111.6 -0.66,8.58 2.2,5.11 -2.2,8.61 2.26,1.2 4.39,0.98 7.59,-0.47 4.58,-1.29 0.9,0.46 -0.61,3.34 1.12,2.19 0.08,1.86 5.97,13.38 0.58,2.3 -0.23,3.91 -1.73,5.46 -0.44,3.7 -1.28,2.04 0.09,1.65 1.02,2.93 -0.19,3.56 1.19,2.5 -0.2,2.47 1.01,1.38 3.25,1.41 1.2,3.48 2.98,2.86 2.93,1.33 1.71,2.82 -0.28,1.36 -2.16,2.77 -0.14,2.91 -0.47,1.18 -0.99,0.99 -2.69,0.46 -1.39,1.36 -0.1,1 1.46,1.98 -1.2,3.22 0.35,2.64 -0.46,1.74 0.92,2.05 2.12,2.62 0.21,1.98 -3.17,3.2 -2.68,0.21 -1.41,0.63 -1.35,1.99 -1.36,1.01 -0.41,0.82 0.41,1.19 -0.29,0.67 -1.5,1.38 -1.15,2.43 0.25,1.28 -0.51,1.43 0.02,2.47 0,0 -9.56,-5.33 -4.42,-1.29 -1.53,-1.66 0.18,-1.93 0.56,0.37 0.25,1.29 1.44,1.1 0.72,0 3.15,-2.48 0.48,0.09 1.05,0.74 0.27,1.2 0.72,0.19 -0.81,-1.66 -1.35,-0.92 0.36,-1.93 3.78,-0.64 0.36,-1.29 -0.45,-1.01 0.73,-0.93 -0.72,0.28 -0.45,0.83 0.62,0.79 -0.14,0.7 -4.26,1 -0.36,1.93 -0.9,1.1 -0.57,0.47 -1.32,0.08 -0.63,-1.66 0.9,-1.2 -1.44,0.65 -1.89,-2.21 -0.54,-0.18 -0.63,-0.09 -1.08,-1.56 0.81,-0.37 0.09,-0.55 -0.36,0.09 -0.54,-1.01 -1.8,-1.47 -3.79,-0.09 -0.99,-0.83 0.09,0.74 -0.99,0 -0.45,0.92 -0.72,-0.09 -0.34,-0.56 -0.56,0.46 -0.81,-0.09 -1.44,-1.56 -1.44,-3.13 -2.16,-1.2 -0.99,0.46 -1.95,-0.23 -0.94,-2.26 -0.27,0.46 0.66,1.22 -0.03,0.62 1.44,0.55 0.09,0.55 -2.97,0.74 -1.91,-1.86 -4.45,-0.72 -1.03,-1.83 -0.9,0.28 -1.26,-0.64 -2.16,-0.28 -1.17,-0.92 -0.45,-1.01 -0.72,0.09 1.17,1.2 -0.18,0.46 0.54,0.64 3.7,0.74 3.15,2.12 2.61,0 3.42,2.3 3.34,-0.37 2.79,1.1 3.43,3.59 6.04,2.76 2.7,0.28 1.8,1.84 0.54,1.38 -1.44,0.46 -2.79,-0.83 -13.88,-7.45 -18.02,-8.19 -1.62,-0.28 -10.63,-4.23 -0.45,-1.29 -0.72,-0.18 -0.18,0.55 -1.53,-0.28 -4.42,-1.84 -7.3,-4.42 -25.09,-13.99 0,0 1.76,-3.96 -0.42,-1.06 -0.91,-0.5 -0.07,-0.66 2.7,-1.13 1.98,-2.12 0.81,-1.32 1.57,-5.69 -0.07,-0.88 -0.67,-0.39 -5.42,0.89 -2.03,-0.55 0.61,-3.37 -0.24,-2 0,0 1.81,-5.18 2.42,-1.55 0.47,-2.07 1.23,-1.73 -0.19,-3.7 2.38,-2.49 0.59,-1.82 -0.84,-2.84 0.03,-3.5 -0.45,-1.73 -3.76,-4.76 -0.87,-3.71 -1.32,-2.11 0.38,-1.09 2.83,-1.1 12.44,-0.95 1.55,-1.27 3.64,-6.25 2.52,-2.6 4.99,1.67 1.54,-0.56 0.21,-1.39 0.96,-0.05 2.06,0.67 3.04,2.34 2.07,0.29 1.06,-0.62 2.05,-2.49 1.24,-0.11 0.95,-1.19 2.32,-1.14 2.98,-0.02 1.4,-3.12 -0.79,-0.09 -1.42,-1.85 0,0 7.48,1.88 5.71,4.33 4.26,1.93 1.79,1.28 3.72,-3 0.53,-3.11 0.97,-1.51 2.51,-0.58 3.11,-1.49 6.17,-0.99 z" 
                fill="rgb(151, 144, 238)" 
                stroke="white" 
                stroke-width=".7px"
                title="La Paz" 
                id="SV-PA" 
            />
        </svg>