<svg xmlns="http://www.w3.org/2000/svg" viewBox="601.9911999999998 154.74798 107.81000000000029 148.21999999999994" width="107.81000000000029" height="148.21999999999994">
            <path 
                d="m 656.8312,154.74798 3.1,2.09 8.19,0.55 0.11,6.43 2.18,3.23 1.56,1.39 2.35,4.23 10.74,15.26 1.56,6.01 16.95,-9.7 1.72,1.68 0,0 -2.54,6.4 -0.48,3.75 0.05,2.52 1.47,8.33 0.4,9.15 -2.65,11.8 0.71,1.04 4.59,-0.59 0.85,0.68 0.63,4.76 1.48,3.27 -0.62,6.88 -1.73,3.73 -2.65,8.91 -9.27,20.08 0.46,3.6 -3.11,8.46 -2.91,4.1 -6.97,3.03 -1.15,1.08 0,0 -2.48,-0.41 -2.63,0.26 -12.36,4.51 -6.77,1.71 -1.57,-0.85 -3.32,-7.23 -7.18,-2.71 -0.84,-0.89 0.48,-2.33 1.68,-1.99 -0.57,-2.27 0.65,-1.02 -1.47,-0.89 -0.02,-0.97 -1.04,-0.97 0.31,-1.87 -6.45,0.14 -6.32,1.3 -3.52,0.25 -1.95,0.64 -4.16,2.85 -1.94,0.37 1.68,-3.42 2.12,-1.88 -0.31,-1.08 -6.39,-4.63 -0.26,-1.11 0.64,-2.77 -0.61,-1.65 -4.2,-2.53 -2.01,-3.39 -7.65,-6.69 -0.89,-2.41 -0.18,-5.14 0.89,-3.71 1.15,-1.89 4.12,-3.13 8.68,-5.44 0.49,-1.1 -0.36,-4.3 -12.54,-9.54 -2.02,-5.1 -0.74,-6.02 4.52,-7.14 0.17,-5.62 1.5,-1.12 2.2,0.45 0.64,-0.3 -1.15,-3.62 -3.69,-1.72 0.16,-2.09 -0.73,-1.35 0,0 1.79,-0.8 12.84,-11.05 -0.47,-6.96 1.24,-4.61 0.37,-5.31 1.9,-0.03 0.69,-0.97 3.31,0.02 0.18,1.14 1.07,0.8 1.86,0.46 2.54,-0.25 1.23,-0.06 0.98,1.91 1.05,0.11 1.22,-0.59 0.89,0.24 0.67,0.62 1.42,-0.29 1.8,-0.14 1.14,-1.74 1.57,0.38 0.64,-0.64 1.97,0.83 3.64,-1.13 3.3,-2.03 z" 
                fill="rgb(151, 144, 238)" 
                stroke="white" 
                stroke-width=".7px"
                title="Morazán" 
                id="SV-MO" 
            />
        </svg>