<svg xmlns="http://www.w3.org/2000/svg" viewBox="271.9512000000002 131.36798000000002 97.72999999999996 195.06999999999996" width="97.72999999999996" height="195.06999999999996">
            <path 
                d="m 278.2212,138.03798 1.45,-1.78 1.43,0.52 3.3,-0.87 0.59,-1.77 1.44,-0.61 5.66,0.95 3.07,2.12 1.12,-0.17 3.01,-1.17 2.25,-2.42 2.79,-1.47 0.81,0.04 1.42,1.19 0.42,1.64 -0.51,1.9 2.31,2.1 0.43,1.21 1.92,-0.67 2.05,-0.07 1.76,-3.23 2.14,-0.85 0.74,-1.99 1.54,-0.69 -0.38,1.81 0.89,-0.32 0,0 -1.34,4.28 -2.4,2.91 -0.07,2.91 1.22,1.41 0.59,3.28 -0.53,5.7 -2.56,7.18 -2.9,1.98 -0.59,2.03 3.1,5.45 2.13,4.91 1.26,1.7 1.24,3.96 2.67,2.74 3.27,1.03 2.38,2.21 0.1,0.65 -5.72,5.08 -4.22,1.61 -0.76,1.11 0,0.94 2.31,1.06 0.69,3.87 0.78,0.97 1.94,0.18 3.03,-0.71 1.19,0.41 1.44,1.28 1.06,1.71 1.79,5.06 1.96,2.23 2.4,4.21 9.11,1.82 0.46,3.88 4.32,6.42 2.48,6.69 6.73,13.73 -0.31,1.54 2.55,-1.06 2.11,0.96 0.69,0.96 0.98,0.14 1.57,-1.61 2.45,-1.39 1.21,7.27 -6.39,2.98 -0.17,0.51 1.3,2.86 0,0 1.42,1.84 0.79,0.09 -1.39,3.12 -2.98,0.02 -2.32,1.14 -0.95,1.19 -1.24,0.1 -2.05,2.5 -1.06,0.61 -2.07,-0.28 -3.05,-2.35 -2.06,-0.67 -0.96,0.05 -0.21,1.4 -1.54,0.56 -4.99,-1.66 -2.52,2.6 -3.64,6.25 -1.54,1.27 -12.44,0.95 -2.82,1.1 -0.39,1.09 1.33,2.11 0.87,3.71 3.76,4.76 0.45,1.73 -0.02,3.5 0.83,2.84 -0.58,1.82 -2.39,2.49 0.19,3.7 -1.23,1.74 -0.47,2.06 -2.42,1.56 -1.8,5.17 0,0 -5.47,0.08 -0.24,0.56 0.51,0.61 -0.62,1.1 0.14,2.59 -1.08,0.91 -3.4,-1.13 -3.27,-0.33 -1.44,-0.91 -0.09,-0.93 0.69,-1.75 -0.26,-2.03 -2.48,-2.36 -0.85,-3.49 -1.45,-2.09 -2.93,-6.29 0.05,-1.92 0.68,-2.09 1.91,-2.99 0.61,-4.95 -0.98,-2.33 -2,-2.92 -0.25,-2.62 1.08,-2.12 -0.38,-2.75 1.02,-2.66 2.31,-2.25 0.1,-0.65 -2.41,-1.08 -3.16,-0.03 -0.73,-0.4 -0.14,-0.82 0.54,-3.37 0.98,-2.25 0.68,-0.54 2.52,-0.57 0.6,-1.09 -0.62,-0.89 -3.12,-2.01 -0.6,-0.98 -0.94,-2.14 -1.23,-5.28 -0.72,-1.07 -6.65,-2.92 -3.47,-0.95 -0.14,-0.83 1.19,-0.97 -0.59,-0.96 0.03,-1.29 3.27,-3.45 0.44,-2.35 -1.21,-0.26 -4.27,1.81 -0.89,-0.37 -0.45,-0.79 1.22,-1.35 1.86,-4.33 3.79,-12.85 -0.74,-4.78 2.6,-5.21 1.26,-5.75 1.78,-5.14 1.43,-6 0.72,-8.27 1.87,-1.49 0.21,-3.36 3.02,-2.07 0.44,-2.27 -0.2,-3.58 -0.55,-1.3 -7.34,-1.2 -6.13,-2.67 -0.66,-1.96 0.64,-0.71 1.8,-0.46 0.41,-0.41 -0.25,-0.76 -1.7,-1.14 -1.13,-2.97 -0.91,0.54 -0.54,-0.26 -1.97,-1.98 -1.27,0.61 -0.64,-0.22 -2.82,-4.75 0.53,-1.53 -0.3,-2 0.66,-0.77 0.8,0.25 0.25,-0.34 1.05,-3.66 -0.03,-2.47 1.76,-0.85 0.33,-1.31 1.34,-1.12 z" 
                fill="rgb(151, 144, 238)" 
                stroke="white" 
                stroke-width=".7px"
                title="San Salvador" 
                id="SV-SS" 
            />
        </svg>