<svg xmlns="http://www.w3.org/2000/svg" viewBox="125.05120000000005 0.3479807999999873 160.17999999999995 225.41999920000003" width="160.17999999999995" height="225.41999920000003">
            <path 
                d="m 241.3912,7.6479808 1.59,-0.86 0.96,0.19 4.62,3.6300002 1.54,0.38 1.74,-0.92 0,0 1.06,0.5 13.4,14.35 4.1,6.47 12.83,9.27 1.63,1.54 0.37,1.09 -0.63,1.72 -1.44,1.69 0.43,2.53 -0.74,1.64 -0.13,2.31 -1.3,2.64 -1.66,1.79 -0.18,3.17 0.49,1.2 -0.57,0.67 0.2,1.22 -2.1,2.9 -4.91,2.99 -2.23,-1.02 -0.97,0.41 -1.24,-0.31 -2.29,1.7 -2.26,-0.33 -1.56,0.99 -0.14,1.75 0.82,1.43 0.05,1.42 1.34,1.65 0.32,1.14 -1.45,4.05 1.23,3.87 -0.85,5.42 -2.75,1.98 -3.28,-0.13 -1.06,1.04 -1.8,0.43 -1.65,-0.25 -4.79,0.6 -1.14,1.87 -0.07,2.51 -1.42,0.549999 -0.14,1.45 -5.76,5.14 -3.95,0.69 -0.9,2.13 -1.33,1.25 -0.22,0.75 1.23,0.91 0.72,2.06 0.24,3.19 -1.03,1.46 -2.84,0.94 0.11,1.74 -1.9,1.33 -0.68,1.54 -1.26,0.97 -0.32,1.84 0.72,3.1 -1.09,1.4 0.85,2.86 -0.51,3.72 0.79,1.01 2.86,0.22 2.74,1.86 4.29,-0.73 3.66,0.89 0,0 0.42,0.52 -0.08,1.29 -1.64,3.15 0.21,0.63 1.69,1.16 0.16,2.62 -1.19,0.85 -0.48,1.41 -1.54,0.09 -1.59,3.7 0.81,2.47 -0.31,2.71 1.17,2.13 0.03,1.84 -1.23,1.13 -3.03,0.69 -6.25,5.49 -3,0.33 -0.66,1.26 -1.38,0.19 -1.08,2.48 -0.43,0.26 -0.98,-0.52 -1.11,1.17 -0.38,1.86 -1.41,1.89 0.73,1.88 -1.31,2.19 2.43,7.47 0.58,4.93 -0.79,0.96 1.49,4.57 -1.16,3.88 0.37,1.02 -0.65,0.4 0.38,1.35 -0.57,1.96 -1.35,1.04 -1.68,0.49 -2,2.04 1.28,3.33 1.58,1.4 0.2,3.81 0,0 -4.5,-1.75 -2.51,0.1 -1.7,0.89 -2.05,-0.41 -2.54,0.5 -2.48,-0.64 -2.85,-2.24 -1.98,-0.77 -4.38,-2.84 0.46,-2.95 -0.31,-1.71 -2.65,-2.49 -2.03,-1.2 -1.38,-0.03 -0.7,-0.88 0.36,-0.91 1.32,-0.43 0.08,-0.63 -1.63,-0.08 -3.09,-1.3 -2.14,0 -3.01,1.74 -5,1.32 -0.72,5.65 -0.97,0.94 -2.52,1.21 -0.6,1.69 -1.07,0.69 -2.16,-2.75 0.87,-2.43 -0.91,-1.88 -1.44,-0.87 -3.82,-1.01 -2.84,1.24 -1.15,-0.95 0.44,-1.44 6.43,-5.68 0.3,-0.85 -0.51,-1.33 0.42,-1.84 -0.22,-0.8 -1.88,-0.94 -6.81,-0.27 0.24,-1.09 -1.25,-3.16 0.95,-1.17 -0.27,-1.56 0.55,-1.54 -1.09,-0.89 1.54,-1.25 0.12,-0.86 -1.18,0.41 -1.14,-0.22 -0.95,1 -0.95,-0.38 -2.09,0.72 -2.3,-1.94 -2.89,-0.88 -1.24,0 -0.98,0.95 -1.03,-0.23 -2.55,0.77 -4.65,-1.79 -1.93,0.26 -1.33,1.28 -2.22,-1.15 0,0 1.81,-0.44 3.7,-5.52 0.39,-1.54 -0.2,-2.61 2.01,-3.47 0.82,-5.48 5.02,-6.91 0.53,-6.49 -0.55,-1.5 -0.98,-1.01 -6.45,-3.39 -0.63,-0.84 -1.13,-5.46 -1.74,0.14 -1.06,-1.13 -2.72,-0.11 0,0 -0.23,-1.15 1.9,0.41 0.39,-2 -2.07,-1.17 -0.71,-2.7 0.88,-2.1 -1.45,-1.92 3.45,-7.25 0.76,-3.54 3.47,-8.97 2.78,-5.1 15.58,-13.879999 -0.06,-0.72 9.46,-5.18 2.24,-0.55 2.71,-0.15 7.42,1.05 8.57,-0.98 6.9,-3.62 4.94,-1.45 2.7,-1.43 1.19,-1.02 0.78,-3.27 1.26,-1.01 0.07,-1.12 -1.22,-0.57 0.01,0.83 -0.49,0.46 -3.55,-9.07 -4.16,-5.66 -1.13,-3.52 1.48,1.06 0.56,-0.42 0.64,-1.6 -0.64,-2.15 -1.8,-1.74 -1.61,-0.42 0.07,-1.06 -0.66,-0.26 -0.82,-1.59 -1.03,-0.45 -4.33,-0.08 -1.56,-0.56 -2.08,1.82 -1.01,0.11 -0.19,-0.55 0.27,-5.13 1.33,-3.94 1.53,-0.68 2.4,0.18 0.86,-0.77 0.13,-2.28 2.45,-0.51 -0.5,-1.94 -3.61,-3.16 0.45,-1.48 -1.43,-6.5 0.39,-5.15 1.47,-2.9 10.61,-0.35 -0.49,1.38 3.31,5.47 -1.39,3.94 2.57,0.82 0.59,-0.73 1.84,0.07 2.02,-2.83 8.03,-7.21 1.52,-0.03 1.9,-1.0900002 2.17,-2.28 2.28,1.16 2.15,0.3 2.49,1.3900002 2.63,0.69 0.27,1.57 1.63,0.88 2.03,-0.28 4.41,-3.4500002 2.29,-2.95 1.24,-0.73 0.65,-2.58 1.16,-1.78 2.17,-0.46 0.91,-1.03 1.23,1.03 z" 
                fill="rgb(151, 144, 238)" 
                stroke="white" 
                stroke-width=".7px"
                title="Santa Ana" 
                id="SV-SA" 
            />
        </svg>