<svg xmlns="http://www.w3.org/2000/svg" viewBox="57.061196 181.41798000000003 166.26000399999992 128.69999999999996" width="166.26000399999992" height="128.69999999999996">
            <path 
                d="m 57.061196,261.64798 2.82,-1.33 1.31,-2.45 2.24,-1.26 3.86,-6.77 1.93,-0.33 1.89,-1.78 1.18,-0.1 7.16,6.22 1.67,2.23 4.47,1.65 2.63,1.53 3.6,3.38 1.9,0.22 4.64,-0.66 1.55,-2.92 2.240004,-9.1 1.81,-3.37 -0.07,-3.26 2.52,-5.78 0.38,-4.98 0.97,-0.91 4.21,-0.42 -1.92,-5.51 -1.38,-6.2 0.04,-1.97 1.14,-4.57 1.32,-1.73 3.29,-2.78 3.27,-5.65 -0.31,-1.37 -2.46,-4.41 -2.21,-9.06 1.17,-1.26 3.37,-0.34 3.06,-1.53 2.51,-3.66 0.73,1.11 2.92,0.81 1.01,1.38 0,0 2.22,1.15 1.33,-1.28 1.93,-0.26 4.65,1.79 2.55,-0.77 1.03,0.23 0.98,-0.95 1.24,0 2.89,0.88 2.3,1.94 2.09,-0.72 0.95,0.38 0.95,-1 1.14,0.22 1.18,-0.41 -0.12,0.86 -1.54,1.25 1.09,0.89 -0.55,1.54 0.27,1.56 -0.95,1.17 1.25,3.16 -0.24,1.09 6.81,0.27 1.88,0.94 0.22,0.8 -0.42,1.84 0.51,1.33 -0.3,0.85 -6.43,5.68 -0.44,1.44 1.15,0.95 2.84,-1.24 3.82,1.01 1.44,0.87 0.91,1.88 -0.87,2.43 2.16,2.75 1.07,-0.69 0.6,-1.69 2.52,-1.21 0.97,-0.94 0.72,-5.65 5,-1.32 3.01,-1.74 2.14,0 3.09,1.3 1.63,0.08 -0.08,0.63 -1.32,0.43 -0.36,0.91 0.7,0.88 1.38,0.03 2.03,1.2 2.65,2.49 0.31,1.71 -0.46,2.95 4.38,2.84 1.98,0.77 2.85,2.24 2.48,0.64 2.54,-0.5 2.05,0.41 1.7,-0.89 2.51,-0.1 4.5,1.75 0,0 2.8,1.3 1.56,0.18 0.7,0.81 0.23,3 -1.67,3.68 -2.43,0.49 -0.52,1.9 -0.8,0.84 -1.34,-0.25 -0.6,-0.84 -2.04,0.5 -1.88,1.67 -1.01,2.26 -2.12,0.88 -1.07,3.6 -9.2,1.28 -1.7,0.6 -1.61,1.24 -0.52,2.99 1.47,15.03 -0.32,2.5 -2.39,2.89 -3.37,2.09 -1.7,2.75 -2.83,3.27 -0.96,2.87 -1.07,6.87 -0.96,1.8 -6.69,6.34 -5.23,6.75 -6.37,4.95 0,0 -2.79,-1.18 -5.77,-1.29 -1.35,-0.92 -4.33,-0.55 -5.31,-0.92 -5.59,0.46 -0.27,-0.55 -0.72,-0.09 -3.25,1.75 -0.72,0 -0.36,-0.56 -3.78,0.56 -7.66,-0.28 -5.5,-0.92 -2.26,0.73 -2.97,0.28 -0.9,1.66 -0.99,-1.01 -1.44,1.29 0.36,0.82 -0.27,0.65 -1.08,0 0.18,-1.38 -0.36,-0.46 -1.99,-0.28 -1.35,1.11 -0.27,1.19 -0.54,0 -0.27,-1.19 0.18,-1.2 -0.9,-0.74 -0.99,0.37 -0.09,-1.01 -1.820004,-0.92 -0.89,0.18 -0.09,-0.83 0.99,-0.37 0,-0.83 -1.53,-0.37 -0.45,-1.01 0.36,-0.73 -0.99,-2.68 0.18,-2.02 -0.63,-1.85 -0.72,-0.3 -0.27,-2.64 -1.71,0.09 -1.17,-1.2 0.45,-0.55 0.27,0.64 1.17,-0.37 0.36,0.56 0.45,-0.19 -0.36,-2.58 -0.54,-0.18 0.81,-2.3 -1.71,-2.86 -1.99,-1.48 -1.44,-0.82 -5.23,-3.23 -6.12,-3.96 -15.86,-8.94 -1.36,-0.92 0.27,-0.74 -0.81,-0.74 -0.36,0.74 -0.54,0 z" 
                fill="rgb(151, 144, 238)" 
                stroke="white" 
                stroke-width=".7px"
                title="Sonsonate" 
                id="SV-SO" 
            />
        </svg>