<svg xmlns="http://www.w3.org/2000/svg" viewBox="201.6149699999998 138.79393 127.59000000000009 159.40000000000003" width="127.59000000000009" height="159.40000000000003">
            <path 
                d="m 261.68497,138.79393 2.57,3.15 -0.72,1.27 2.18,1.94 -0.7,4.93 1.88,0.9 -2.07,2.76 1.46,0.88 -0.42,1.49 2.65,3.19 2.03,-0.02 -0.25,2.34 3.24,1.47 -0.47,2.52 1.07,2.91 2.83,1.64 2.51,-1.04 -0.1,3.18 2.06,0.28 0.44,2.37 -1.26,3.3 0.61,1.36 7.93,-0.65 -0.49,-1.09 1.23,0.29 0.9,-2.04 1.77,0.76 -0.02,2.08 2.22,-0.86 0,0 0.22,-0.41 0,0 0.99,-0.88 1.3,1.57 1.88,-0.49 0.81,3.48 3.88,2.1 0.02,3.64 -1.43,0.15 -1.64,2.53 4.8,-1.06 6.07,1.09 2.02,-1.36 -0.74,-1.33 1.1,0.83 1.5,-0.95 0.85,2.41 1.94,-1.63 2.94,-0.43 0,0 3.84,1.85 -0.56,1.07 0.82,-0.06 0.58,2.71 3.11,2.69 -1.05,0.64 1.19,2.89 -1.38,1.61 0,0 -0.25,0.21 0,0 -3.3,2.3 -0.56,2.4 1.53,1.08 -0.3,3.88 -7.21,1.82 -0.16,2.49 1.27,-0.21 1.98,2.37 1.13,2.26 -0.7,2.84 1.66,1.81 -4.81,1.37 0,0 0,-0.22 0,0 -0.52,0.77 3.43,6.12 -2.62,6.09 4.73,4.68 2.03,8.56 -0.53,3.46 2.49,2.46 0.07,4.13 -1.25,2.92 0.82,3.38 -1.57,3.44 0,0 -4.59,0.12 -3.09,4.06 -1.98,-0.55 -1.56,1.08 -1.88,-1.71 -0.59,1.61 -3.21,1.71 0.15,1.91 -0.95,-0.77 -1.45,0.75 1.07,1.19 -1.22,1.84 1.55,0.86 0.45,2.48 -3.24,2.06 -2.06,-0.81 -5.24,0.96 -1.56,2.77 -1.03,0.01 -0.74,3.03 0,0 -3.48,-0.52 -4.49,1.11 -4.55,-1.99 -5.8,1.04 -2.33,-1.85 -1.47,0.38 0.52,1.49 -1.29,2.11 -1.8,-1.69 -2.37,1.82 -0.79,-2 -2.68,1.73 -0.79,-2.05 -4.59,4.84 -2.55,-3.22 -1.69,0.29 -0.4,1.41 -3.53,0.34 -0.39,-1.46 -1.29,0.31 0,0 0,0 0,0 0.76,-1.01 0,0 0.64,-1.92 -2.54,-0.89 -0.27,-3.52 -2.13,-1.77 -3.04,0.03 -0.22,-1.85 -4.31,-2.06 -0.75,-1.7 1.46,-3.9 -0.61,-1.98 -4.05,-3.76 -0.78,-3.66 -3.81,-3.24 -0.53,-4.28 -3.07,-2.05 -2.07,0.09 1.27,2.97 -3.85,-0.1 -2.78,1.78 -3.04,-1.21 -1.73,1.14 -1.34,-3.64 0.89,-0.48 -0.4,-3.21 -1.44,0.52 -0.96,-1.76 -2.77,0.76 0.9,-1.98 -0.76,-1.44 -0.82,0.86 -1.13,-0.38 0.22,-1.08 -2.49,0.36 -1.09,-2.73 0,0 0.95,-7.16 4.36,-6.11 -1.22,-1.08 2.85,-6.17 0.19,-1.66 -1.33,-0.73 1.65,-3.52 0,0 -0.05,-0.52 0,0 6.29,2.14 0.8,-0.51 -1.6,-2.52 0.78,-1.47 2.74,1.5 0.61,-1.58 5.48,-1.66 0.95,-1.3 -0.96,0.29 -0.42,-1.81 1.7,-2.09 3.11,-0.93 -0.38,-1 3.16,-3.01 -0.34,-4.22 1.21,-0.69 0.89,1.45 0.17,-2.7 1.39,-0.49 -1.26,-2.84 0.98,-2.7 -1.87,-0.46 -0.15,-2.07 2.05,-0.15 0.09,-1.37 -1.32,-0.29 1.15,-0.27 0.41,-1.83 2.69,-0.34 -4.9,-3.44 0,0 1.35,-1.2 -1.75,-2.94 0.75,-1.75 -2.11,-0.66 0.61,-1.42 5.98,-3.14 2.57,-4.22 -1.66,-2.26 1.27,-2.94 -6.12,-5.53 -0.14,-3.63 0,0 2,-1.11 0.53,-1.74 4.67,-0.62 0,0 0.86,0 0,0 2.23,-2.07 2.16,0.74 0.26,-2.69 4.19,1.97 4.56,-0.2 1.66,-1.25 -0.43,-3.35 4.08,-2.36 -0.51,-3.25 z" 
                fill="rgb(151, 144, 238)" 
                stroke="white" 
                stroke-width=".7px"
                title="Centre" 
                id="FR-F" 
            />
        </svg>