<svg xmlns="http://www.w3.org/2000/svg" viewBox="417.4849699999999 196.29393 78.41000000000003 107.00999999999999" width="78.41000000000003" height="107.00999999999999">
            <path 
                d="m 443.66497,202.06393 2.01,-3.18 1.13,0.57 -1.34,1.86 0.9,0.14 2.21,-1.27 1.54,-2.91 3.96,-0.98 0,0 0.1,0.07 0,0 0.46,3.2 2.3,1.81 0,0 0,0.32 0,0 7.68,-1.77 1.91,1.17 1.78,3.47 5.19,-3.73 1.78,2.6 7.86,5.06 0,0 1.25,2.43 3.07,0.71 4.01,2.96 0.39,3.14 -1.68,4.27 3.35,0.57 2.37,4.18 -0.44,1.33 0,0 -6.21,0.55 0.78,2.48 -2.56,1.27 -2.54,4.9 5.7,-1.23 1.35,0.65 0.28,1.74 -1.88,0.56 -0.57,1.83 -2.22,0.46 0.51,2.72 -4.73,4.32 0.73,0.43 -0.83,0.96 -5.65,4.07 0.68,1.89 -4.07,3.52 -5.17,1.13 -2.7,2.8 1.34,2.37 -1.38,4.64 0.89,2.25 -14.19,11.96 1.92,1.89 -3.49,4.96 -0.33,2.8 0,0 -8.1,9.07 -5.99,0.23 -0.48,-2.9 -2.79,-0.89 -0.15,-1.23 -4.32,4.56 -2.71,0.25 0.07,-3.07 -1.59,0.01 -0.53,-1.95 -0.85,2.24 -1.76,-3.58 0.65,-0.72 -3.23,-1.85 0.64,-1.99 0,0 0.39,-1.01 3.87,-0.83 0.16,-1.53 -2.56,-1.04 -0.05,-2.56 1.91,-1.17 -0.35,-1.73 1.89,-1.64 -1.92,-2.85 -0.11,-2.62 -1.33,-0.08 1.27,-2.45 -2.65,-2.72 5.75,-1.52 -2.62,-1.69 -0.14,-1.45 -2.9,0.3 -1.46,-3.16 -1.24,0.66 -0.4,-3 2.65,-2.11 -1.78,-0.84 0.35,-1.36 4.2,-2.01 2.25,-3.79 0,0 -0.02,-0.31 0,0 2.04,-8.45 1.3,-0.89 -1.93,-0.81 0,0 -0.14,0 0,0 1.09,-1.5 -0.48,-3.19 0,0 -0.16,-0.1 0,0 -1.72,0.12 0,0 -0.26,0 0,0 0.27,-3.54 -2.98,-0.86 1.71,-0.78 -0.85,-0.24 0.48,-1.09 2.05,0.08 2.02,-3.54 -2.32,-4.58 -1.93,2.17 -0.93,-0.64 0,0 1.58,-4.29 4.78,0.09 1.74,-2.12 1.22,2.17 3.9,-0.77 0.75,-3.82 -1.36,-1.99 0.62,-2.57 2.1,0.05 0.79,-2.43 2.79,0.45 -0.25,-1.16 1.19,-2.18 1.4,0.39 z" 
                fill="rgb(151, 144, 238)" 
                stroke="white" 
                stroke-width=".7px"
                title="Franche-Comté" 
                id="FR-I" 
            />
        </svg>