<svg xmlns="http://www.w3.org/2000/svg" viewBox="202.10496999999984 66.773928 72.16000000000011 89.07000199999997" width="72.16000000000011" height="89.07000199999997">
            <path 
                d="m 256.55497,67.143928 2.96,-0.37 0.15,1.97 10.78,9.83 0.92,4.61 2.15,3.37 -1.52,-0.06 -2.5,4.39 0.71,0.9 1.88,-0.9 -2.25,3.24 0.99,1.34 -0.85,2.61 0,0 -0.18,0 0,0 2.17,2.830002 -1.29,2.19 1.14,0.92 0.61,-1.42 1.28,0.5 -0.76,2.16 0,0 -0.4,0.26 0,0 -2.01,3.72 1.07,0.11 -0.76,0.78 1.64,1.74 0.47,4.74 1.31,1.09 -0.62,1.81 -1.29,-1.67 -2.02,0.49 -0.23,2.09 0,0 -3.38,9.23 -4,1.02 0,0 -0.22,0.01 0,0 -0.45,-1.02 -0.88,2.21 -1.67,-0.18 1.26,2.49 -0.34,2.4 2.02,-0.16 -1.11,0.72 0.37,1.69 0,0 -2.21,1.05 0.51,3.26 -4.08,2.35 0.43,3.35 -1.66,1.26 -4.56,0.2 -4.2,-1.97 -0.25,2.69 -2.16,-0.74 -2.23,2.07 0,0 -0.86,0 0,0 -4.67,0.61 -0.53,1.74 -2,1.12 0,0 -1.86,0.03 -0.08,-1.62 -1.73,-0.73 1.91,-1.93 -0.66,-1.86 -6.12,-4.08 1.12,-1.4 -1.09,-0.02 0.22,-1.45 -1.08,0.37 -0.37,-1.32 -1.24,1.17 -4.06,-0.28 -2.87,-2.1 2.65,-6.54 -3.34,-2.34 2.17,-1.43 -0.79,-1.95 1.35,-2.18 -1.99,-0.81 0.39,-3.58 -3.07,-2.39 2.62,-1.01 0,-1.35 -0.87,-0.74 -2.21,0.87 0.58,-0.83 -1.16,-1.23 1.22,-1.53 -1.69,-5.9 0,0 0.41,-1.13 -0.98,0.76 -6.53,-2.01 -1.98,-2.54 3.59,-8.660002 -1.21,-1.61 1.31,0.6 2.15,-3.35 5.39,-2.16 10.37,-7.04 7.72,-1.18 7.77,-3.29 2.45,0.71 2.71,-1.22 0.42,1.14 -0.27,-1.26 4.45,-2.12 7.6,-6.15 z" 
                fill="rgb(151, 144, 238)" 
                stroke="white" 
                stroke-width=".7px"
                title="Haute-Normandie" 
                id="FR-Q" 
            />
        </svg>