<svg xmlns="http://www.w3.org/2000/svg" viewBox="269.4449699999999 379.38392999999996 131.0300000000002 151.1700000000002" width="131.0300000000002" height="151.1700000000002">
            <path 
                d="m 323.13497,398.65393 2.38,-4.14 0.29,-4.92 1.09,-2.19 1.1,0.23 0.19,-1.87 0,0 0.24,0 0,0 0.92,-2.21 2.5,2.4 1.84,-1.47 0.24,-2.79 1.82,0.51 3.54,-2.82 1.83,1.95 0.07,2.55 2.54,5.18 4.59,-0.96 0.2,-2.9 1.51,-0.32 1.8,1.44 -0.27,1.62 3.19,-0.54 0.73,2.18 2.01,2.11 1.39,-0.44 -0.3,1.42 1.07,0.21 0,0 1.73,8.71 2.06,1.37 1.48,5.72 3.35,3.87 -1.18,0.81 0.32,4.18 3.4,-1.02 5.29,4.14 2.87,-4.24 2.73,-0.47 0.15,3.24 1.76,0.42 0.63,-3.19 2.16,-0.31 5.98,4.23 0,0 0.98,3.18 1.42,0.07 0.59,1.55 -0.04,6.1 2.74,0.91 2.41,4.41 -1.27,0.06 0.01,1.44 -7.16,5.54 1.07,1.25 -2.27,6.83 0.63,2.29 -3.65,-1.24 -2.27,0.57 -2.47,4.19 1.9,0.66 -0.43,1.32 -5.32,3.08 -0.83,-1.11 0.41,1.55 -3.4,1.65 -0.44,2.25 0,0 -3.96,-1.47 -0.66,-1.33 0.83,-1.29 -1.33,-1.19 -5.6,0.42 -10.28,8.28 -3.35,0.97 -5.7,6.6 0.2,-0.99 -0.27,0.92 -7.15,-1.17 0.37,1.2 -6.67,5.42 -4.08,6.59 -1.57,5.17 0.7,2.63 -1.32,12.07 0.76,9.2 3.89,1.35 -0.46,1.89 1.83,2.66 -3.67,0.52 -1.89,-2.67 -3.06,0.43 -0.83,-0.94 -1.22,1.45 -3.25,-0.14 -2.54,2.63 -1.86,-0.68 -2.44,1.09 -0.95,1.03 0.83,2.57 -3.95,-0.99 -1.93,1.43 -2,-0.41 -2.04,-2.98 -7.31,-2.5 -2.3,1.25 -1.91,-0.44 -2.91,3.43 -2.86,0.79 -2.2,-1.91 -1.22,-3.96 -2.22,0.21 -2.4,-2.13 -3.92,-0.45 0.39,-3.41 2,-1.04 0,0 3.43,-0.35 1.31,-1.97 3.03,-0.1 1.01,-2.49 6.89,-0.11 0.54,-1.01 -3.81,-3.96 -3.35,1.01 -3.77,-1.38 0.52,-0.99 -2.78,-2.69 0.67,-1.64 4.62,-1.02 -0.26,-3.34 -1.91,-0.72 0.98,-1.24 2.03,0.09 -1.54,-2.59 0.66,-1.39 -1.82,-1.02 0.9,-0.99 -0.46,-2.5 -1.54,-1.16 -1.05,1.01 -1.61,-2.51 -0.01,0.79 -2.79,-0.32 -3.14,-2.21 0.66,-1.92 -1.47,-2.76 1.93,-2.32 -0.56,-1.56 3.79,0.02 -0.5,-2.92 2.1,-2.85 1.76,2.65 0.96,-1.42 0,0 0.24,0.02 0,0 2.7,0.67 2.02,-1.54 1.46,2.27 4.06,-1.18 1.84,1.86 0.28,-2.72 1.52,-1.61 5.74,2.48 1.47,-1.11 7.29,0.27 2.51,-2.23 0.26,-2.62 -2.44,-2.89 1.25,-5.35 3.09,0.87 1.46,1.75 6.27,-2.32 0.67,-2 2.6,-1.09 3.15,0.92 0.12,-8.13 6.22,1.2 1.49,-0.91 -0.58,-1.9 1.22,-1.82 3.28,0.03 0.6,-3.17 3.45,-2.85 0.28,-1.52 -2.47,-1.86 -1.55,0.47 -0.9,-1.62 -1.48,0.58 -1.31,-1.44 2.47,-0.87 0.54,-2.89 1.57,-0.65 -0.42,-1.8 -6.55,0.59 1.08,-2.34 -2.88,-0.83 -0.37,-1.76 -1.3,0.74 1.38,-2.64 -1.44,-3.19 1.04,-4.34 -3.24,-3.74 0.79,-3.27 -4.27,-4.99 z m -42.93,124.78 2.22,0.59 -1,-2.23 -1.22,1.64 z" 
                fill="rgb(151, 144, 238)" 
                stroke="white" 
                stroke-width=".7px"
                title="Languedoc-Roussillon" 
                id="FR-K" 
            />
        </svg>