<svg xmlns="http://www.w3.org/2000/svg" viewBox="225.50497000000024 291.56392999999997 82.26999999999998 90.89000000000004" width="82.26999999999998" height="90.89000000000004">
            <path 
                d="m 248.25497,295.86393 1.29,-0.31 0.39,1.46 3.53,-0.34 0.4,-1.41 1.69,-0.29 2.55,3.22 4.59,-4.84 0.79,2.05 2.68,-1.73 0.79,2 2.37,-1.82 1.8,1.69 1.29,-2.11 -0.52,-1.49 1.47,-0.38 2.33,1.85 5.8,-1.04 4.55,1.99 4.49,-1.11 3.48,0.52 0,0 0.29,2.3 1.93,0.55 -1.31,1.74 2.6,1.97 0.95,-1.27 1.4,2.9 0.42,-0.78 2.11,0.96 3.47,7.46 -0.65,4.13 2.14,3.05 0.41,3.75 -1.96,0.91 -0.32,2.56 -2.66,2.96 -1.32,-0.18 0,0 -0.18,0.04 0,0 -2.83,2.43 5.62,6.83 -0.08,4.03 -1.48,0.08 -1.03,2.65 2.34,2.47 -1.26,7.98 1.69,1.6 -1.98,1.3 -5.48,-2.47 0.46,4.43 -6.88,6.78 0.28,2.37 1.31,0.93 -2.19,1.67 -0.27,3.22 -3.09,1.3 1.84,3.43 -1.38,1.15 0,0 -0.35,-0.09 0,0 -1.65,0.43 0,0 -3.13,0.1 -1.57,1.28 -1.65,-1.48 -4.4,3.21 -2.14,-0.85 -4.32,-5.34 -4.18,-0.07 -0.32,-1.02 -3.74,1.58 0,0 -2.91,-5.01 1.41,-1.16 -4.3,-0.48 -2.21,-1.91 0,0 0.21,-0.03 0,0 1.21,-1.32 -2.55,-0.92 2.08,-2.92 -2.1,-1.08 0.39,-2.91 1.18,-0.06 2.46,-3.29 -2.82,-1.37 1.53,-1.83 -7.17,-2.5 1.89,-2.95 -2.1,-1.3 -1.26,0.99 -2.8,-4.71 -5.02,0.57 -1.18,-1.28 -2.35,2.83 -2.52,-2.53 0.97,-2.94 -2.24,-1.67 -2.81,0.43 -0.96,-1.29 0,0 3.51,-3.09 -0.13,-2.49 2.94,0.75 1.82,-5.42 -0.62,-2.9 2.91,0.53 2.7,-2.83 -0.92,-2.41 -1.68,-1.33 -1.08,0.83 -1.82,-1.91 0.85,-2.73 -1.02,-1.61 1.54,-0.84 -2.24,-4.48 2.41,-1.12 2.14,-3.43 4.28,0.5 1.78,-4.94 3.38,0.9 1.14,-2.52 z" 
                fill="rgb(151, 144, 238)" 
                stroke="white" 
                stroke-width=".7px"
                title="Limousin" 
                id="FR-L" 
            />
        </svg>