<svg xmlns="http://www.w3.org/2000/svg" viewBox="185.82497000000006 375.17393000000004 156.67999999999984 141.7800000000002" width="156.67999999999984" height="141.7800000000002">
            <path 
                d="m 194.75497,475.38393 0.24,0.16 0,0 1.03,2.52 -1.73,1.24 -0.78,-1.75 0.81,-1.93 0,0 0.29,-0.22 0,0 0.14,-0.02 z m 1.22,-3.42 0.24,3.57 0,0 -0.69,-0.17 0,0 -1,-0.96 1.21,-0.49 -0.16,-2.15 0,0 0.4,0.2 z m 63.5,-95.21 3.74,-1.58 0.32,1.02 4.18,0.07 4.32,5.35 2.14,0.85 4.4,-3.21 1.65,1.48 1.58,-1.28 3.12,-0.1 0,0 1.72,3.23 -0.49,2.74 3.34,4.94 -1.74,5.36 1.22,0.05 0.49,3.32 1.39,1.21 0.53,-1.88 3.25,-1.06 1.32,-0.12 1.06,1.74 5.46,-0.59 0.65,-2.22 2.52,-1.81 -0.42,-1.94 2.1,-2.26 0.17,-3.13 5.5,-5.58 1.55,1.71 -0.06,3.28 3.6,-1.08 1.19,4.96 1.34,-0.26 0.69,1.14 -1.06,0.74 1.05,4.74 1.86,2.06 0,0 4.31,4.95 -0.79,3.27 3.24,3.74 -1.04,4.34 1.44,3.19 -1.38,2.64 1.3,-0.74 0.37,1.76 2.88,0.83 -1.08,2.34 6.55,-0.59 0.42,1.8 -1.57,0.65 -0.54,2.89 -2.47,0.87 1.31,1.44 1.48,-0.58 0.9,1.62 1.55,-0.47 2.47,1.86 -0.28,1.52 -3.45,2.85 -0.6,3.17 -3.28,-0.03 -1.22,1.82 0.58,1.9 -1.49,0.91 -6.22,-1.2 -0.12,8.13 -3.15,-0.92 -2.6,1.09 -0.67,2 -6.27,2.32 -1.46,-1.75 -3.09,-0.87 -1.25,5.35 2.44,2.89 -0.26,2.62 -2.51,2.23 -7.29,-0.27 -1.47,1.11 -5.74,-2.48 -1.52,1.61 -0.28,2.72 -1.84,-1.86 -4.06,1.18 -1.46,-2.27 -2.02,1.54 -2.7,-0.67 0,0 -0.24,-0.02 0,0 -0.96,1.42 -1.76,-2.65 -2.1,2.85 0.5,2.92 -3.79,-0.02 0.56,1.56 -1.93,2.32 1.47,2.76 -0.66,1.92 3.14,2.21 2.79,0.32 0.01,-0.79 1.61,2.51 1.05,-1.01 1.54,1.16 0.46,2.5 -0.9,0.99 1.82,1.02 -0.66,1.39 1.54,2.59 -2.03,-0.09 -0.98,1.24 1.91,0.72 0.26,3.34 -4.62,1.02 -0.67,1.64 2.78,2.69 -0.52,0.99 3.77,1.38 3.35,-1.01 3.81,3.96 -0.54,1.01 -6.89,0.11 -1.01,2.49 -3.03,0.1 -1.31,1.97 -3.43,0.35 0,0 0.24,-0.77 -2.77,-0.13 0.41,-1.5 -5.67,-0.55 -2.02,-1.64 -2.93,0.23 -0.09,2.1 -1.67,0.64 -3.35,-6.54 -5.21,-0.48 -2.54,1.08 -3.74,-4.49 -3.96,0.1 -0.98,-1.08 -1.42,0.93 -9.05,-4.09 -2.05,1.26 0.46,1.92 -1.05,1.23 0.9,0.43 -1.02,1.15 1.49,1.6 -0.1,1.99 -3.26,-0.82 -7.26,0.84 -2.59,-1.87 -2.73,2.85 -1.44,-2.38 -3.46,-1.19 -7.4,2.93 -2.27,-0.41 -0.49,-1.42 -1.81,-0.47 -1.99,-4.06 -1.14,0.62 -5.19,-3.52 0,0 -0.59,-3.83 1.92,-0.94 -0.28,-4.03 1.13,-1.8 3.35,-0.83 -0.54,-3.53 1.95,-0.83 1.19,-2.9 2.06,0.17 -0.22,-2.61 0.99,0.24 1.33,-2.95 -1.2,-1.76 3.15,-2.55 -1.38,-1.48 0.12,-4.16 -2.76,1.96 0.06,-2.97 1.97,-0.51 -1.99,-4.33 -1.13,0.27 -0.12,-2.2 -3.35,-0.82 -2.55,0.78 -0.36,-1.89 -1.34,-0.15 -0.09,-1.41 1.65,-0.67 -0.32,-3 2.29,-1.72 -1.32,-4.06 1.37,-0.1 -0.63,-2.74 0.92,-0.61 -2.21,-1.68 2.49,-2.39 3.47,0.62 2.47,-3.21 1.79,1.74 -1.15,1.43 3.32,1.89 0.71,-1.18 -0.85,-2.57 2.96,-2.32 1.23,1.66 1.46,-2.43 1.63,-0.4 2.89,1.8 0.59,-1.08 5.31,-1.13 0.78,-1.57 3.94,0.05 1.54,-1.45 2.94,3.22 3.17,-2.15 0.73,-2.63 1.72,-0.21 -0.37,-1.87 3.03,0.98 1.33,-0.65 -0.36,-2.14 -1.33,-0.52 2.21,-0.38 1.83,-4.82 -3.38,-2.06 1.12,-4.1 1,-0.17 0.87,2.25 0.44,-0.95 4.55,-0.23 -0.24,-3.53 -1.57,-1.04 -0.02,-3.55 -1.47,-2.16 1.4,0.41 3.69,-2.11 -0.4,-1.17 2.45,-2.64 -0.25,-1.8 3.13,-0.8 3.82,-3.29 -0.73,-3.25 2.81,-0.88 -0.17,-1.9 3.25,-2.08 -1.16,-1.86 1.2,-0.35 -1.17,-4.49 0,0 -0.17,-0.69 0,0 1.51,-0.9 z" 
                fill="rgb(151, 144, 238)" 
                stroke="white" 
                stroke-width=".7px"
                title="Midi-Pyrénées" 
                id="FR-N" 
            />
        </svg>