<svg xmlns="http://www.w3.org/2000/svg" viewBox="263.82496999999995 0.3339281000000196 111.20000000000005 72.92999989999998" width="111.20000000000005" height="72.92999989999998">
            <path 
                d="m 305.69497,2.5739281 0.53,3.46 2.41,3.63 -1.73,1.8199999 0.39,4.6 1.48,2.44 3.64,0.14 2.96,5.64 2.17,0.1 2.48,2.01 1.91,-3.91 8.24,-2.49 1.66,4.24 2.88,1.54 -0.89,2.85 2.17,8.71 3.51,2.16 2.96,-1 1.14,-1.74 1.83,0.63 -0.76,2.36 4.48,-0.57 2.16,2.56 -0.07,5.63 2.07,4.18 1.64,-2.99 4.26,-0.06 2.15,1.63 5.09,-2.08 2.15,3.12 1.69,0.48 0.86,2.95 1.23,-0.02 -0.2,-2 1.92,1.11 0.53,1.25 -2.92,2.58 0.18,3.22 -1.1,1.91 2.98,0.04 1.25,4.11 -2.91,1.36 -0.76,4.41 0,0 -2.32,0.68 -4.43,-1.56 0.07,-3.27 -3.93,2.24 -0.64,-1.82 -6.54,-2.08 -2.11,1.03 -0.18,1.55 -1.89,0.29 -2.91,-1.91 -2.2,2.36 -5.28,-1.2 -1.42,1.34 -2.14,0.1 -0.79,-1.17 -3.58,1.35 -3.25,-2.66 -3.32,-0.41 -1.8,1.13 -2.11,-0.48 -2.34,1.84 -0.26,-3.67 -4.59,2.17 1.38,-4.35 -2.12,-0.94 -0.93,-0.07 -0.15,2.96 -5.31,-2.07 0.08,-1.73 -1.05,-0.17 -0.8,1.86 -0.77,-1.75 -1.39,0.17 -2.59,3.29 -1.77,-1.43 0.49,-2.84 4.44,-2.64 -1.81,-2.32 -1.87,-0.27 -1.98,1.82 -1.09,-2.1 -0.22,1.68 -2.37,-1.02 -5.01,2.49 -0.83,-1.25 -1.84,0.58 -0.37,-3.33 -5.41,-2.31 -0.6,-0.75 1.39,-1.43 -0.75,-0.62 -1.61,1.27 -4.3,-3.19 -5.8,2 -0.97,-1.44 0,0 -3.64,-3.14 1.34,-8.96 2.01,1.63 -2.44,-3.65 -0.57,-10.23 0.17,-0.96 0.38,1.57 0.75,-1.03 0.82,-4.67 -1.35,-4.42 3.33,-0.98 3.47,-3.8299999 5.23,-1.7 -1.22,-0.23 10.54,-2.72 0.53,0.68 2.2,-2.26 -0.46,1.18 1.28,1.22 0.69,-2.4 0.34,0.77 6.16,-2.11 1.15,0.83 6.8,-2.79 0.72,2.24 z" 
                fill="rgb(151, 144, 238)" 
                stroke="white" 
                stroke-width=".7px"
                title="Nord-Pas-de-Calais" 
                id="FR-O" 
            />
        </svg>