<svg xmlns="http://www.w3.org/2000/svg" viewBox="93.10497299999997 162.37393000000003 144.23999700000002 140.4500000000001" width="144.23999700000002" height="140.4500000000001">
            <path 
                d="m 105.66497,257.03393 1.64,1.15 -0.59,2.05 3.11,1.57 0.3,3.31 -2.43,-3.85 -2.21,-0.09 -1.61,-1.93 -0.28,-2.03 2.07,-0.18 z m 49.26,-91.14 2.72,1.18 2.01,-1.75 1.94,1.29 2.64,-0.17 1.31,2.75 1.45,-0.63 0.78,1.83 1.92,-0.87 -0.7,-1.47 1.72,0.32 1.05,-1.06 0.5,2.57 4.16,-1.81 1.71,-2.24 4.7,-0.06 1.81,1.61 1.33,-2.39 2.07,0.94 1.25,-1.81 -0.32,-1.75 1.74,0.04 2.57,2.23 -1.17,1.09 1.12,3.35 3.99,0.36 -0.01,4.78 2.08,-1.42 2.45,1.23 0.55,-1.93 3.56,-2.05 -0.52,-1 6.49,-1.45 3.38,3.5 0.41,6.42 3.62,1.45 0.42,-0.72 1.91,3.82 4.29,0.98 0.61,-1.91 3.5,4.7 2.48,-0.37 0,0 4.9,3.44 -2.69,0.34 -0.4,1.83 -1.16,0.27 1.32,0.29 -0.09,1.38 -2.05,0.15 0.15,2.07 1.86,0.46 -0.98,2.7 1.26,2.84 -1.39,0.49 -0.17,2.7 -0.89,-1.45 -1.2,0.69 0.33,4.23 -3.16,3.01 0.39,1 -3.11,0.93 -1.7,2.09 0.42,1.81 0.96,-0.29 -0.94,1.3 -5.49,1.65 -0.61,1.58 -2.74,-1.5 -0.78,1.47 1.6,2.52 -0.81,0.52 -6.28,-2.14 0,0 0.05,0.52 0,0 -1.65,3.52 1.33,0.72 -0.19,1.67 -2.85,6.16 1.22,1.09 -4.36,6.11 -0.95,7.16 0,0 -1.48,-0.67 -1.1,0.91 -1.21,4.48 -2.08,-0.86 -1.79,2.83 -2.07,-0.98 1.52,-2.02 -1.72,-0.3 -0.85,0.86 -2.54,-0.7 -5.43,0.88 -0.46,1.49 -3.06,0.81 0.9,-1.71 -1.46,-0.12 -2.56,1.18 0.53,1.92 -2.29,2.16 -2.96,-0.38 -1.83,1.17 -3.02,-1.3 -2.7,2.16 -1.81,-0.28 1.35,0.76 -0.61,0.98 1.26,0.04 -0.48,0.66 2.15,0.81 -0.96,2.19 2.31,2.72 0,0 0.17,0 0,0 1.65,1.11 0,0 0.29,0 0,0 1.09,0.71 -0.83,0.77 0,0 0.04,0.25 0,0 -0.1,2.25 2.64,3.33 -0.97,0.84 1.77,1.38 -0.9,1.63 1.78,0.88 -0.54,2.78 0.97,2.59 -1.81,0.72 1.63,3.94 -1.36,3.45 0.87,0.38 0.61,-1.34 2.76,1.74 -4.49,4.09 -2.09,-0.51 -1,1.4 -4.38,-2.12 0,0 -0.18,-0.26 0,0 -0.78,1.48 -1.52,-0.56 -1.86,0.99 -1.23,-0.74 1.31,-2.91 -5.14,1.27 -0.88,1.95 -1.7,0.04 0,0 -3.56,0.1 -0.17,2.7 -4.55,-3.84 0.84,2.57 -1.99,-3.06 -5.16,-0.01 -1.94,-3.69 -5.58,-0.97 -6.83,-4.49 -1.8,-7 -3.78,-5.28 -8.06,-7.51 -0.41,-4.08 1.72,-0.15 -0.37,-1.03 3.58,-3.63 0.2,-2.45 2.1,-1.21 -5.02,-5.23 -6.12,-1.09 3.36,-2.17 -0.21,-5.83 -1.67,-0.36 -3.64,2.28 -3.16,-2.77 -2.329997,1.22 -4.7,-1.94 1.5,-1.12 0.12,-1.81 -2.23,-2.2 4.18,-3.01 0.02,-1.49 0,0 1.43,-1.77 0.9,1.27 3.499997,-0.29 0.78,-3.38 2.23,1.33 2.49,-1.11 0.89,1.4 0.26,-1.95 2.46,-0.69 0.68,-7.18 4.51,-2.7 0.76,1.38 3.94,-2.29 8.31,-0.06 1.57,-3.32 6.19,-2.43 -0.24,-1.99 3.76,0.44 1.03,1.79 4.84,1.39 3.8,-11.62 5.75,-2.37 -2.41,-12.26 0,0 -0.17,-0.16 0,0 -0.93,-3.91 2.32,-3.9 -1.49,-5.35 0.46,-5.85 z" 
                fill="rgb(151, 144, 238)" 
                stroke="white" 
                stroke-width=".7px"
                title="Pays de la Loire" 
                id="FR-R" 
            />
        </svg>