<svg xmlns="http://www.w3.org/2000/svg" viewBox="256.5849700000003 47.913927999999984 119.48999999999967 97.34000199999993" width="119.48999999999967" height="97.34000199999993">
            <path 
                d="m 266.91497,48.063928 0.59,0.47 0,0 0.97,1.44 5.8,-2 4.3,3.19 1.61,-1.27 0.75,0.62 -1.39,1.43 0.6,0.75 5.41,2.31 0.37,3.33 1.84,-0.58 0.83,1.25 5.01,-2.49 2.37,1.02 0.22,-1.68 1.09,2.1 1.98,-1.82 1.87,0.27 1.81,2.32 -4.44,2.64 -0.49,2.84 1.77,1.43 2.59,-3.29 1.39,-0.17 0.77,1.75 0.8,-1.86 1.05,0.17 -0.08,1.73 5.31,2.07 0.15,-2.96 0.93,0.07 2.12,0.94 -1.38,4.35 4.59,-2.17 0.26,3.67 2.34,-1.84 2.11,0.48 1.8,-1.13 3.32,0.41 3.25,2.66 3.58,-1.35 0.79,1.17 2.14,-0.1 1.42,-1.34 5.28,1.2 2.2,-2.36 2.91,1.91 1.89,-0.29 0.18,-1.55 2.11,-1.03 6.54,2.08 0.64,1.82 3.93,-2.24 -0.07,3.27 4.43,1.56 2.32,-0.68 0,0 3.7,1.32 0,0 -0.6,2.89 1.58,0.64 -0.1,2.29 -1.96,5.67 1.82,1.47 -2.69,3.71 -2.45,1.34 -0.46,2.88 -3.08,-0.3 -0.73,1.01 2.26,3.25 -1.17,1.680002 1.22,1.3 -1.57,1.13 1.13,3.91 -1.27,0.46 -0.06,4.97 -3.21,-1.09 -1.48,-1.86 -2.83,1.69 -0.18,2.25 -3.05,-0.73 -5.5,2.72 1.36,5 -1,1.39 1.17,1 0.69,-0.63 0.67,1.91 1.42,-0.27 -0.03,1.41 -1.81,1.05 -3.44,-0.51 -0.89,1.95 1.55,2.68 -2.13,1.07 -0.07,1.47 2.72,-0.39 1.13,1.82 -3.64,3.41 0.54,1.08 -1.22,0.23 -0.14,1.56 -1.76,0.16 -1.77,3.76 0,0 -1,0.92 -0.65,-1.43 -2.6,-0.73 -0.64,-3.55 -1.61,1.27 -1,-2.56 -1.67,0.62 -0.55,-2.12 -3.49,-2.51 0.97,-2.39 -2.16,-3.54 -2.84,-0.69 -0.14,2.01 -2.39,-0.4 -0.89,1.3 -0.78,-1.3 -4.85,1.35 -1.81,-1.67 -3.09,2.26 -4.19,-3 -2.05,1.81 -1.29,-2.82 -0.84,1.56 -1.74,-0.41 0.56,-0.72 -1.81,-1.46 -1.08,0.47 0.25,-0.82 -2.7,-0.83 -0.72,0.73 -1.82,-2.42 -1.17,1.69 -2.18,0.54 -0.6,-1.78 -1.99,1 -3.72,-2.96 -3.28,2.19 -4.93,0.82 -3.3,-1.42 -2.03,0.62 -0.75,-1.23 0,0 -0.38,0.01 0,0 0.52,-1.86 -1.5,-0.48 0,0 0.23,-2.09 2.02,-0.49 1.29,1.67 0.62,-1.81 -1.31,-1.09 -0.47,-4.74 -1.64,-1.74 0.76,-0.78 -1.07,-0.11 2.01,-3.72 0,0 0.4,-0.26 0,0 0.76,-2.16 -1.28,-0.5 -0.61,1.42 -1.14,-0.92 1.29,-2.19 -2.17,-2.830002 0,0 0.18,0 0,0 0.85,-2.61 -0.99,-1.34 2.25,-3.24 -1.88,0.9 -0.71,-0.9 2.5,-4.39 1.52,0.06 -2.15,-3.37 -0.92,-4.61 -10.78,-9.83 -0.15,-1.97 -2.96,0.37 0,0 3.08,-2.85 2.93,-6.36 1.91,-0.63 0.8,1.92 2.96,0.79 1.21,-0.88 -6.2,-5.56 0.68,-5.65 2.96,0.15 z" 
                fill="rgb(151, 144, 238)" 
                stroke="white" 
                stroke-width=".7px"
                title="Picardie" 
                id="FR-S" 
            />
        </svg>