<svg xmlns="http://www.w3.org/2000/svg" viewBox="134.52497000000005 248.08392999999998 115.15999999999997 124.58999999999995" width="115.15999999999997" height="124.58999999999995">
            <path 
                d="m 140.92497,316.03393 3.82,3.21 3.22,0.61 0.07,3.28 2.07,4.11 -1.85,3.58 -1.58,-4.83 -4.89,-4.34 -0.86,-5.62 z m -4.29,-12.52 1.52,1.4 -1.94,0.28 0.8,1.51 3.66,-1.56 -1.1,0.99 0.59,0.74 2.49,-0.45 4.75,2.76 -2.4,1.19 -6.33,-3.54 -2.98,0.01 -1.17,-2.49 2.11,-0.84 z m 16.37,-3.54 1.7,-0.04 0.88,-1.95 5.14,-1.27 -1.31,2.91 1.23,0.74 1.86,-0.99 1.52,0.56 0.78,-1.48 0,0 0.18,0.26 0,0 4.38,2.12 1,-1.4 2.09,0.51 4.49,-4.09 -2.76,-1.74 -0.61,1.34 -0.87,-0.38 1.36,-3.45 -1.63,-3.94 1.81,-0.72 -0.97,-2.59 0.54,-2.78 -1.78,-0.88 0.9,-1.63 -1.77,-1.38 0.97,-0.84 -2.64,-3.33 0.1,-2.25 0,0 -0.04,-0.25 0,0 0.83,-0.77 -1.09,-0.71 0,0 -0.29,0 0,0 -1.65,-1.11 0,0 -0.17,0 0,0 -2.31,-2.72 0.96,-2.19 -2.15,-0.81 0.48,-0.66 -1.26,-0.04 0.61,-0.98 -1.35,-0.76 1.81,0.28 2.7,-2.16 3.02,1.3 1.83,-1.17 2.96,0.38 2.29,-2.16 -0.53,-1.92 2.56,-1.18 1.46,0.12 -0.9,1.71 3.06,-0.81 0.46,-1.49 5.43,-0.88 2.54,0.7 0.85,-0.86 1.72,0.3 -1.52,2.02 2.07,0.98 1.79,-2.83 2.08,0.86 1.21,-4.48 1.1,-0.91 1.48,0.67 0,0 1.09,2.73 2.49,-0.36 -0.22,1.08 1.13,0.38 0.82,-0.86 0.76,1.44 -0.9,1.98 2.77,-0.75 0.96,1.76 1.44,-0.52 0.39,3.21 -0.88,0.49 1.34,3.63 1.73,-1.14 3.04,1.21 2.79,-1.78 3.84,0.1 -1.26,-2.97 2.07,-0.08 3.07,2.05 0.53,4.27 3.81,3.24 0.78,3.66 4.05,3.76 0.6,1.98 -1.46,3.9 0.75,1.7 4.31,2.05 0.23,1.85 3.03,-0.02 2.14,1.76 0.27,3.52 2.54,0.9 -0.64,1.91 0,0 -0.76,1.01 0,0 0,0 0,0 -0.86,-0.29 -1.14,2.52 -3.37,-0.89 -1.78,4.94 -4.28,-0.5 -2.14,3.43 -2.41,1.12 2.24,4.48 -1.54,0.84 1.03,1.61 -0.85,2.73 1.82,1.91 1.08,-0.83 1.68,1.33 0.91,2.41 -2.7,2.83 -2.91,-0.54 0.62,2.9 -1.82,5.42 -2.94,-0.75 0.12,2.5 -3.51,3.09 0,0 -2.69,4.53 -2.26,0.03 -0.27,4.8 -2.3,1.64 -0.72,2.23 -2.12,0.01 -2.08,2.58 -1.17,-1.02 0.61,1.33 -1.7,0.57 -1.19,3.41 0.78,4.26 -3.77,2.14 -1.68,3.22 -3.28,-1.23 -1.98,1.44 -1.13,2.22 0.96,0.7 -1.7,0.75 -0.3,2.43 -1.82,-1.35 -2.31,1.88 -1.96,-0.28 -2.82,-1.2 -0.89,-1.63 -1.41,0.28 -0.99,-1.67 -1.05,-0.2 -0.85,1.55 -0.74,-2.25 0,0 -0.05,-0.26 0,0 -0.96,-5.41 -5.81,-1.06 -0.93,-2.95 -0.34,1.52 -4.97,-0.42 0,0 -1.65,-5.77 -2.68,-3.92 -6.24,-4.03 -2.22,-3.68 -7.56,-4.38 -1.13,0.24 0.48,1.21 -0.61,-1.2 -0.06,-5.54 4.3,-1 -1.88,-2.99 2.64,-0.34 1.66,-2.9 -1.05,-2.23 0.91,-0.25 -0.22,-1.77 -1.5,-1.42 2.81,0.02 -2.03,-5.5 -1.73,-0.69 0.59,-1.22 -1.87,-0.65 0.98,-1.15 -2.36,0.71 -1.29,-1.1 1.55,-2.87 3.74,-2.89 -0.96,-2.54 0.74,-0.87 z" 
                fill="rgb(151, 144, 238)" 
                stroke="white" 
                stroke-width=".7px"
                title="Poitou-Charentes" 
                id="FR-T" 
            />
        </svg>