<svg xmlns="http://www.w3.org/2000/svg" viewBox="352.4649699999995 287.80393000000004 145.24000000000035 141.2199999999998" width="145.24000000000035" height="141.2199999999998">
            <path 
                d="m 361.22497,302.40393 -0.36,3.68 3.42,0.7 0.69,2 4.71,-1.76 3.13,1.49 1.22,-1.23 0.75,1 1.18,-0.59 -0.19,1.73 1.06,0.14 4.04,-1.77 1.37,-6.58 2.2,-0.08 1.88,1.77 2.67,-1.57 2.07,1.7 0.79,-2.13 1.77,-0.31 1.28,1.65 -1.29,1.18 2.35,1.53 -0.69,2.31 1.62,1.34 0.89,-0.25 6.69,-20.51 0.4,1.06 1.39,-0.84 3.01,1.85 4.56,-1.2 0.05,-0.91 1.59,0.81 1.22,2.86 3.26,0.7 0,0 -0.64,1.99 3.23,1.85 -0.66,0.72 1.76,3.58 0.85,-2.24 0.53,1.95 1.59,-0.01 -0.06,3.07 2.71,-0.25 4.32,-4.56 0.15,1.23 2.79,0.89 0.48,2.9 5.99,-0.23 8.11,-9.06 0,0 4.37,2.95 -2.81,4.91 0.93,2.04 -5.99,2.06 -0.64,1.2 1.25,0.9 -1.54,3.17 3.92,-1.4 3.17,0.72 6.93,-5.1 0.59,-1.85 -2.03,0.28 -0.53,-3.12 -1.14,-0.5 1.33,-2.89 11.07,-5.82 6.77,0.14 5.73,1.65 -2.05,4.3 3.9,4.46 -2.52,4.58 -0.29,3.95 4.21,0.78 -0.95,4.55 2.45,-0.97 4.26,6.58 0.27,1.85 -1.98,3.06 -3.46,1.86 -3.85,0.23 -0.55,6.61 4.49,4.38 3.51,0.7 -0.95,3.07 0.96,4.9 2.26,0.61 -0.22,1.32 2.1,0.15 0.61,2.15 3.02,1.61 -3.2,4.62 1.03,4.21 -2.71,2.6 -2.84,-0.49 -2.33,2.97 -2.18,0.08 -0.01,1.86 -1.83,0.56 -3.37,-1.9 -5.67,2.91 0,0 -2.19,-0.87 -1.51,1.41 -1.3,-0.56 -1.25,0.96 0.26,2.22 -1.48,0.18 -3.58,-1.07 -1.31,-3.11 -1.63,0.89 -2.01,-0.73 -1.71,6.12 4.96,1.02 -0.05,2.63 1.47,0.85 -0.1,4.94 -2.67,-1.11 -1.83,1.28 -4.71,-0.72 -3.22,2.82 -1.61,-1.14 -2.83,1.8 1.28,1.36 -1.21,1.23 -2.84,0.82 -2.32,-0.76 -1.17,3.09 1.31,0.93 -1.7,2.15 -1.67,-0.5 -0.84,1.34 -3.57,-0.74 0.2,2.32 -2.11,3.94 2.78,2.41 -1.47,0.13 -0.6,1.66 -6.48,-1.61 0.27,2.98 1.39,0.61 -0.87,1.03 -2.4,-0.34 0.47,2.91 2.61,2.15 1.17,-0.76 1.1,1.19 3.38,-0.19 -0.88,1.58 1.19,0.32 0.44,1.95 1.64,0 -0.01,4.09 -1.79,1.42 1.64,0.46 -0.17,0.99 -1.96,-0.24 0.35,-1 -1.57,-1.36 -2.5,3.39 -3.59,0.77 -0.81,-1.87 -2.18,-0.2 0.08,-2.6 -1.23,-0.81 -2.37,0.42 -2.03,-1.4 -0.81,1.16 -3.22,-1.2 0.61,-4.8 0,0 -0.66,0.31 0,0 -1.76,1.85 -2.02,-1.74 -10,4.63 -1.26,-4.96 -5.73,-0.97 -0.05,3.44 0,0 -5.98,-4.23 -2.16,0.31 -0.63,3.19 -1.76,-0.42 -0.15,-3.24 -2.73,0.47 -2.87,4.24 -5.29,-4.14 -3.4,1.02 -0.32,-4.18 1.18,-0.81 -3.35,-3.87 -1.48,-5.72 -2.06,-1.37 -1.73,-8.71 0,0 2.58,-1.42 1.07,-3.4 1.62,0.89 -0.24,-1.24 0.73,0.76 1.17,-0.8 0.27,-2.26 5.06,-0.05 2.83,-5.27 3.69,-0.58 -0.72,-2.71 3.46,-1.01 -1.37,-2.34 1.02,-1.75 1.14,0.08 0,0 0,-0.53 0,0 -1.04,-1.75 2.03,0.44 0.53,1.55 0.9,-0.53 -0.41,-2.45 1.79,-3.65 -2.27,-3.06 -2,1.09 -1.6,-1.09 0.9,-1.58 -1.63,-0.96 1.49,-1.09 -1.36,-1.88 -2.59,0.6 -1.62,-1.83 -2.27,-0.21 -1.39,0.51 0.37,1.13 -3.01,0.39 -0.42,1.32 -2.09,-0.78 -0.1,1.25 -1.36,-2.58 -1.56,-0.25 -1.8,2.47 -0.63,-3.59 3.08,-2.4 0.89,-3.53 -2.12,-4.87 -4.57,-3.16 -1.95,-3.53 0.15,-1.99 -3.81,-3.93 1.39,-1.33 -0.29,-3.36 1.63,-0.95 -2.56,-2.62 0.32,-2.34 3.59,-0.22 1.8,-1.54 -1.07,-3.23 0.67,-2.1 -1.18,-1.39 0.65,-3.05 -1.69,-4.56 4.82,-2.08 0,0 0.36,-0.05 0,0 0.32,-0.03 z m 42.64,109.76 0,0 -0.32,0.17 0,0 -0.36,0.64 0,0 -1.51,2.73 0.65,2.61 4.05,0.68 1.51,-3.92 1.98,-0.93 0,0 -0.03,-0.34 0,0 -2.91,-1.77 0,0 -0.5,-0.58 0,0 -0.43,-0.05 0,0 -0.17,-0.44 0,0 -1.28,1.03 -0.68,0.17 z" 
                fill="rgb(151, 144, 238)" 
                stroke="white" 
                stroke-width=".7px"
                title="Rhône-Alpes" 
                id="FR-V" 
            />
        </svg>