<svg xmlns="http://www.w3.org/2000/svg" viewBox="33.022505000000045 176.97394 251.669995 187.00000000000003" width="251.669995" height="187.00000000000003">
            <path 
                d="m 184.5425,178.23394 3.08,-1.26 3.54,0.39 4.13,2.32 7.08,8.54 10.33,0 1.47,-7.37 5.02,-0.78 4.43,0 11.5,6.98 2.36,-2.32 2.66,0 3.84,2.71 2.36,3.88 0.29,7.76 -0.55,3.61 0,0 -0.33,2.2 6.49,8.14 2.06,5.42 8.85,10.46 7.38,2.32 14.16,2.32 -0.59,6.2 -2.06,7.73 -3.84,6.96 -4.13,5.42 -3.54,0 0.88,11.21 -4.71,10.04 0,11.58 -1.48,5.02 -7.97,-0.38 -2.36,6.17 -14.16,15.81 -3.84,2.7 -0.88,2.7 1.47,2.7 3.25,0 3.54,-1.93 3.54,0 1.77,3.08 0.59,3.86 -2.65,7.7 -1.66,2.47 0,0 -5.13,8.7 0,4.71 0,0 -4.16,-0.65 -4.47,-2.78 -19.84,-7.51 -5.75,-7.24 -1.5,-0.84 -1.49,0.56 -7.25,8.63 -3.2,1.67 -2.98,0 -3.84,-1.67 -1.92,-3.9 -2.13,-1.39 -2.35,0.83 1.28,20.04 -2.99,2.22 -22.39,-0.55 -7.46,-2.23 -15.78,-2.78 -10.45,-3.34 -9.81,-0.83 -10.88,-8.91 -3.199995,-0.83 -0.64,-4.73 -2.77,-0.84 -6.61,0 -4.69,-0.83 -7.68,-3.62 -14.29,1.11 -5.54,3.34 -1.4,1.69 0,0 -8.02,-3.59 -0.33,-5.11 -1.65,-5.47 -10.58,-10.81 -0.95,-1.86 0.83,-3.42 7.97,-13.31 -0.54,-6.12 -1.54,-3.52 -1.03,-1.65 -2.89,-2.11 0,0 4.68,-0.51 9.86,-2.58 8.22,-6.89 2.31,-4.31 6.25,-4.3 9.53,-0.87 3.29,-0.86 3.29,-2.15 2.63,-0.43 3.62,2.58 5.59,1.73 5.589995,-0.44 2.3,-1.72 2.96,0 4.28,1.72 3.94,3.02 6.91,0 7.56,-4.31 4.28,0 4.6,1.29 5.92,6.04 4.6,0.43 2.63,-1.73 2.96,-0.86 5.27,0 3.61,1.29 4.61,0 10.19,-3.87 3.62,-3.45 2.96,0 1.32,-3.45 0,-3.44 -5.6,-6.47 -0.32,-3.88 0,-5.61 2.96,-7.76 -11.84,-1.72 0,-6.91 -0.99,-3.02 -7.56,-11.66 -0.33,-4.75 0.98,-4.75 3.29,-3.89 4.94,-3.89 5.26,-1.3 7.56,-0.43 z" 
                fill="rgb(151, 144, 238)" 
                stroke="white" 
                stroke-width=".7px"
                title="Aragac̣otn" 
                id="AM-AG" 
            />
        </svg>