<svg xmlns="http://www.w3.org/2000/svg" viewBox="214.72250000000003 364.6439400000002 201.13000000000005 154.94" width="201.13000000000005" height="154.94">
            <path 
                d="m 233.3325,425.38394 -1.43,-2.65 -2.73,-2.78 -6.58,-1.84 -3.04,-1.96 0,0 1.99,-15.36 -0.21,-3.33 -5.97,-7.78 -0.64,-3.61 0.85,-3.33 2.34,-1.39 5.76,-0.56 10.88,0.28 5.54,0.83 2.14,1.95 2.13,0.55 0.39,-0.81 0,0 6.6,6.55 3.84,1.54 5.01,0.38 3.84,1.92 4.72,4.99 1.77,0.77 1.48,-0.77 5.01,-5.76 5.02,-0.38 2.65,-1.15 4.72,-4.62 5.91,-3.84 5.16,-8.27 0,0 -0.59,13.84 3.24,5 6.5,1.92 5.01,-0.38 2.07,-0.77 0,-3.85 1.47,-1.53 3.54,0 2.66,-3.08 2.65,-0.77 3.54,0.39 1.19,-3.85 2.06,-3.07 17.56,-0.96 4.13,-9.23 4.42,-1.93 4.72,0.39 5.32,-2.31 23.89,0.77 1.14,-0.89 0,0 1.37,0.7 0,1.92 -3.54,19.23 0,9.99 20.95,31.86 -0.29,14.96 1.47,4.22 0,6.89 -1.47,12.65 1.98,3.54 0,0 0.38,0.67 -7.97,5.36 -3.25,5.35 -1.47,4.6 -0.79,7.14 0,0 -1.91,0 -6.17,4.31 -2.85,3.69 -2.17,5.84 -5.67,3.53 -5.72,2.31 -3.77,0.9 -14.59,0.26 -14.91,1.63 -8.52,1.16 -7.06,2.23 -2.46,-0.34 -1.26,-1.33 0.42,-4.97 -2.37,-1.38 -3.44,0.15 -1.31,-5.07 -3.3,-4.51 -1.42,-0.9 -2.8,0.94 0.16,-2.6 1.55,-4 -2.32,-1.81 -1.7,0.05 -1.95,1.59 -2.08,0.24 -13.39,-8.94 1.32,-2.37 -0.34,-1.8 -4.38,1.52 -1.59,-0.61 -0.75,-1.08 -0.41,-7 -1.68,-2.99 -4.12,-2.91 -2.36,-2.81 -1.66,-8.55 -4.24,-4.85 -4.37,-2.48 -8.56,-12.52 -5.76,-1.67 -2.58,-2.89 -8.99,-6.77 -5.47,0 z" 
                fill="rgb(151, 144, 238)" 
                stroke="white" 
                stroke-width=".7px"
                title="Ararat" 
                id="AM-AR" 
            />
        </svg>