<svg xmlns="http://www.w3.org/2000/svg" viewBox="240.7325 341.66394 61.96000000000001 58.07999999999993" width="61.96000000000001" height="58.07999999999993">
            <path 
                d="m 240.7325,356.00394 0,-4.71 5.13,-8.7 0,0 3.72,4.08 11.51,-0.39 12.98,-4.62 4.43,0 2.36,1.16 2.06,6.54 4.13,2.31 12.69,10.78 2.95,5 -0.88,5.77 -1.33,1.73 0,0 -5.16,8.27 -5.91,3.84 -4.72,4.62 -2.65,1.15 -5.02,0.38 -5.01,5.76 -1.48,0.77 -1.77,-0.77 -4.72,-4.99 -3.84,-1.92 -5.01,-0.38 -3.84,-1.54 -6.6,-6.55 0,0 0.67,-1.41 0.22,-4.72 -1.82,-1.26 1.71,-11.67 -2.13,-3.06 -1.49,-5.28 z" 
                fill="rgb(151, 144, 238)" 
                stroke="white" 
                stroke-width=".7px"
                title="Erevan" 
                id="AM-ER" 
            />
        </svg>