<svg xmlns="http://www.w3.org/2000/svg" viewBox="338.28249999999986 185.55393999999998 291.22999999999996 285.0999999999998" width="291.22999999999996" height="285.0999999999998">
            <path 
                d="m 509.2825,232.81394 -2.02,0.47 -1.54,-1.4 -3.92,-14.8 2.37,-5.3 4.04,-4.52 8.78,1.09 4.87,5.45 -1.07,8.1 -1.54,2.02 -1.9,1.09 -3.32,0.62 -2.25,5.92 -2.5,1.26 z m -169.71,-18.23 3.06,0.81 8.04,-0.62 2.84,-3.42 5.45,-3.86 3.12,-4.12 2.02,-1.4 5.27,2.23 9.1,6.5 6.05,0.94 3.93,-1.53 7.95,-0.77 15.63,-16.57 9.14,-4.37 3.52,0.05 6.43,-1.97 7.1,-0.93 7.81,1.24 7.1,2.18 7.81,3.73 15.05,14.14 0,0 -1.26,2.25 -0.41,3.72 0.55,1.74 4.53,2.83 1.19,1.71 -0.93,7.69 2.22,1.29 1.92,2.55 7.12,0.31 3.56,2.49 2.37,3.89 -0.59,1.87 -2.61,1.56 -0.71,2.18 1.31,3.89 -2.02,1.87 -0.59,2.33 0.95,5.29 3.82,5.6 10.14,7.86 1.98,0.37 1.03,1.2 -0.36,3.89 2.85,1.71 2.26,3.89 9.38,5.59 3.84,0.27 2.81,-0.73 3.68,2.33 4.51,5.75 3.92,2.17 0.83,4.19 1.9,3.57 1.9,1.55 10.8,0.16 5.48,4.19 3.56,1.09 2.9,-0.23 4.91,1.62 3.44,2.79 1.99,3.76 20.46,5.86 1.9,1.09 3.19,4.48 11.52,-0.3 6.77,4.96 0.03,5.79 -2.67,1.84 -1.96,-0.56 -0.14,2.31 5.68,6.13 4.11,5.59 0.46,1.73 -2.92,4.51 -0.81,3.84 -1.76,13.5 0.11,5.01 -0.95,1.7 -1.54,0.77 -2.89,0.03 -7.18,3.81 -0.13,2.97 1.31,2.47 -0.24,4.48 -1.9,7.57 -3.63,5.48 -0.52,3.14 -0.85,1.08 -1.44,0.84 -3.1,-0.48 -4.39,2.49 -1.5,5.36 -1.66,0.62 -1.7,-0.2 -4.24,-5.82 -3.44,-3.55 -2.14,-1.23 -3.8,1.54 -2.07,-1.03 -17.96,0.15 -3.68,-1.85 -1.42,0.15 -2.14,1.7 -3.09,1.08 -8.19,0.15 -2.24,2.14 -1.43,6.66 -5.87,0.08 0,0 -1.18,-1.66 -3.84,-1.92 -7.97,-0.38 -1.77,5.76 -5.9,4.6 -12.39,3.07 -28.62,1.54 -23.6,8.43 -12.98,9.97 -10.33,11.49 -4.43,2.68 -1.55,0.1 0,0 -1.99,-3.55 1.48,-12.64 0,-6.9 -1.48,-4.22 0.3,-14.96 -20.95,-31.86 0,-9.99 3.54,-19.23 0,-1.92 -1.37,-0.7 0,0 -1.14,-2.57 -5.02,-3.08 -3.83,0.39 -3.54,-1.92 -4.42,-6.16 -1.77,-11.94 -3.8,-6.44 -10.24,-47.71 2.82,-4.27 5.24,-4.86 -0.22,-1.13 -7.97,-1.54 -2.36,-1.16 -5.82,-5.29 -2.82,-8.36 -1.63,-8.17 -1.78,-3.11 -1.19,-1.67 -7.12,-2.41 -0.19,-28.99 0,0 1.29,0.29 z" 
                fill="rgb(151, 144, 238)" 
                stroke="white" 
                stroke-width=".7px"
                title="Geġark'unik'" 
                id="AM-GR" 
            />
        </svg>