<svg xmlns="http://www.w3.org/2000/svg" viewBox="236.01249999999987 192.4939400000001 158.99000000000012 203.21999999999994" width="158.99000000000012" height="203.21999999999994">
            <path 
                d="m 338.2025,214.24394 0.19,28.99 7.13,2.41 1.18,1.66 1.78,3.11 1.63,8.17 2.82,8.36 5.82,5.29 2.36,1.15 7.97,1.55 0.22,1.13 -5.24,4.86 -2.82,4.28 10.24,47.71 3.8,6.44 1.77,11.94 4.42,6.16 3.54,1.92 3.84,-0.38 5.01,3.08 1.14,2.57 0,0 -1.14,0.89 -23.89,-0.77 -5.32,2.31 -4.72,-0.39 -4.42,1.93 -4.13,9.23 -17.56,0.96 -2.06,3.07 -1.19,3.85 -3.54,-0.39 -2.65,0.77 -2.66,3.08 -3.54,0 -1.47,1.53 0,3.85 -2.07,0.77 -5.01,0.38 -6.5,-1.92 -3.24,-5 0.59,-13.84 0,0 1.33,-1.73 0.88,-5.77 -2.95,-5 -12.69,-10.78 -4.13,-2.31 -2.06,-6.54 -2.36,-1.16 -4.43,0 -12.98,4.62 -11.51,0.39 -3.72,-4.08 0,0 1.66,-2.47 2.65,-7.7 -0.59,-3.86 -1.77,-3.08 -3.54,0 -3.54,1.93 -3.25,0 -1.47,-2.7 0.88,-2.7 3.84,-2.7 14.16,-15.81 2.36,-6.17 7.97,0.38 1.48,-5.02 0,-11.58 4.71,-10.04 -0.88,-11.21 3.54,0 4.13,-5.42 3.84,-6.96 2.06,-7.73 0.59,-6.2 -14.16,-2.32 -7.38,-2.32 -8.85,-10.46 -2.06,-5.42 -6.49,-8.14 0.33,-2.2 0,0 7.63,-6.33 4.72,-2.71 18.89,-1.16 1.77,1.55 2.95,0.77 4.72,0 2.95,-1.94 4.43,0 8.85,2.72 10.32,5.42 6.99,2.37 2.06,2.9 7.57,1.99 2.58,1.64 0,0 0.26,2.34 1.43,1.52 0.67,-0.35 0,0 z" 
                fill="rgb(151, 144, 238)" 
                stroke="white" 
                stroke-width=".7px"
                title="Kotayk'" 
                id="AM-KT" 
            />
        </svg>