<svg xmlns="http://www.w3.org/2000/svg" viewBox="141.46249999999998 0.27394000000001895 231.36 209.64000000000004" width="231.36" height="209.64000000000004">
            <path 
                d="m 356.2425,13.38394 0.47,3.4 2.13,2.51 4.02,1.57 2.6,1.88 1.89,3.13 -0.7,3.13 -5.92,6.58 -4.73,2.19 -2.6,0.32 -5.21,5.01 4.86,5.68 5.7,3.07 3.38,3.53 3.03,0.47 3.21,2.45 3.73,3.41 0.72,2.24 -1.52,6.12 -1.15,2.35 -2.32,2.35 -9.34,5.06 -4.37,0.71 -4.36,1.88 -5.34,0.35 -4.18,1.76 -3.3,3.88 -1.33,4.82 -0.09,3.76 1.42,6.11 5.7,3.76 14.51,3.25 2.58,1.17 2.94,4.58 0,3.29 -1.34,3.05 -4.89,3.17 -4.54,12.55 -1.34,9.15 -2.31,2.93 -4.1,2.34 -2.22,2.34 -11.75,6.52 -4.1,7.03 -0.71,5.97 1.16,1.41 5.96,2.34 0.54,1.4 -4.63,4.8 0.44,2.81 3.15,5.74 4.34,4.41 -1.06,2.58 0.58,1.98 -2.1,6.83 -1.24,1.41 0,0 -2.58,-1.64 -7.57,-1.99 -2.06,-2.9 -6.99,-2.37 -10.32,-5.42 -8.85,-2.72 -4.43,0 -2.95,1.94 -4.72,0 -2.95,-0.77 -1.77,-1.55 -18.89,1.16 -4.72,2.71 -7.63,6.33 0,0 0.55,-3.61 -0.29,-7.76 -2.36,-3.88 -3.84,-2.71 -2.66,0 -2.36,2.32 -11.5,-6.98 -4.43,0 -5.02,0.78 -1.47,7.37 -10.33,0 -7.08,-8.54 -4.13,-2.32 -3.54,-0.39 -3.08,1.26 0,0 0,-2.1 -3.62,0 -6.58,1.3 -4.93,-0.43 -0.33,-2.16 0.66,-1.73 -0.66,-2.17 -7.56,-3.46 -8.22,1.3 -3.29,-4.33 -1.98,-5.19 -0.98,-15.59 2.3,-4.77 4.93,-4.33 3.29,-1.73 3.95,-1.3 4.93,0 3.62,-2.61 2.3,-3.03 0,-5.2 -1.32,-2.61 4.61,0 3.29,-3.47 3.94,-7.37 0.33,-3.04 -1.31,-1.74 -2.63,-0.43 -9.21,1.3 -4.28,-0.87 -0.98,-2.17 0.65,-12.15 -2.63,-3.91 -3.61,-1.31 -0.99,-5.64 -1.97,-3.05 -1.65,-0.87 -3.29,0 -3.94,-1.73 -2.63,-1.74 -2.96,-3.48 -0.33,-18.7 2.54,-7.18 0,0 8.85,-3.39 17.26,0.72 4.76,-0.86 2.74,-7.55 1.69,-8.49 1.3,-1.31 1.43,-0.05 3.06,2.76 1.73,0.48 5.42,-0.63 3.41,2.75 1.49,3.15 2.81,1.57 4.01,1.18 2.82,-0.2 2.06,-1.65 2.05,0.27 2.39,1.04 3.74,3.68 2.81,-0.19 1.04,-2.17 0.89,-6.87 1.49,-1.48 6.02,3.43 6.24,7.09 5.29,1.61 6.19,3.65 1.42,1.81 4.1,-0.47 7.81,-4.45 4.96,-9.34 1.69,-0.35 1.16,0.7 -1.6,8.96 1.96,0.24 3.73,-3.19 5.35,-1.06 1.69,1.65 0.44,1.77 1.34,0.83 1.33,-0.95 2.94,-14.03 1.07,-0.82 1.6,0 2.76,1.77 3.83,0.23 5.34,-0.23 1.78,-1.18 1.6,0 1.69,5.19 1.16,1.18 6.71,0.65 0.74,0.77 0.24,2.8 1.28,0.68 4.89,-4.34 10.49,-0.38 2.08,0.83 3.73,-1.2 8.38,3.52 5.66,1 3.42,-0.19 4.08,-1.57 -1.23,-3.08 -2.09,-0.76 -3.23,1.32 -5.18,-2.59 -5.88,-0.87 -5.56,-6.29 -0.57,-8.68 0.48,-3.28 1.76,-4.15 1.61,-1.26 3.04,0.82 5.13,6.36 6.12,1.19 3.85,2.14 z" 
                fill="rgb(151, 144, 238)" 
                stroke="white" 
                stroke-width=".7px"
                title="Loṙy" 
                id="AM-LO" 
            />
        </svg>