<svg xmlns="http://www.w3.org/2000/svg" viewBox="565.1025 471.57394 227.15999999999985 330.5600000000002" width="227.15999999999985" height="330.5600000000002">
            <path 
                d="m 589.9025,574.01394 -2.26,-8.95 -5.35,-5.07 -7.24,-2.45 -8.63,-1.3 0,0 -1.13,-12.04 -0.19,-14.96 3.98,-10.3 -0.95,-6.63 -1.89,-4.66 0.76,-9.58 4.92,-8.85 10.24,-13.27 7.16,-4.38 0,0 3.57,9.9 5.94,0.62 6.76,2.77 9.03,6.14 7.59,1.24 4.86,0 2.73,1.7 5.33,6 0.75,4.17 1.46,2.78 5.96,5.57 1.93,5.04 6.31,3.93 -1.3,2.9 0.95,3.53 1.54,1.39 4.51,-3.23 2.5,0.46 8.78,9.53 3.2,1.53 4.16,3.53 1.69,3.45 -0.86,3 1.49,3.9 0.29,7.19 2.49,-0.81 2.38,-3.53 6.76,-0.61 8.9,1.07 5.82,-4.91 9.25,-5.06 12.44,-0.94 1.15,5.59 1.43,1.84 4,-0.45 5.37,-5.69 1.43,0.61 -0.63,2.99 0.98,3.31 0,4.45 -1.42,4.44 1.42,2.61 5.54,1.59 2.16,-1.92 3.63,1.23 2.94,-2.48 12.6,-1.59 8.74,4.71 2.61,1.99 1.54,3.07 1.07,4.59 -0.59,1.54 -3.56,0 -1.83,-2.28 -2.55,0.05 -1.58,0.77 -2.62,3.86 -6.95,4.16 -0.23,2.08 1.18,3.39 7.98,7.72 1.77,3.21 -2.27,0.29 -2,-1.19 -4.5,-1.1 -1.58,-2.55 -2.28,-0.95 -3.37,2.44 -4.49,7.82 -1.49,0.91 -8.55,-2.07 -4.64,0.17 -1.75,2.48 -0.77,3.88 -2.87,3.22 0.52,9.26 3.68,5.81 1.67,4.43 2.13,1.38 1.3,-0.03 10.77,8.65 2.6,1.3 2.7,-1.43 3.38,-3.4 0.96,0.08 7.14,9.41 0.11,2.84 -2.85,2.45 -0.35,2.13 7.14,11.49 6.93,2.41 1.55,4.52 1.92,2.23 7.69,0.67 1.13,0.29 0.59,1.21 -1.22,1.06 -7.81,-0.15 -4.75,1.67 0.48,2.29 -0.65,2.15 -3.45,5.6 -2.65,2.16 -2.27,3.51 -2.14,-1.52 -2.14,-10.52 -2.85,-1.03 -2.01,2.47 0.95,4.81 -0.6,1.07 -1.9,-0.31 -2.72,-3.11 -4.78,-2.23 -5.16,-0.16 -1.84,2.1 -0.03,6.03 2.19,6.24 3.35,0.66 3.38,2.12 3.86,-1.65 2.14,1.32 -1.96,3.51 0.09,2.42 4.08,2.8 0.02,3.53 1.03,2.2 3.97,2.23 2.29,3.44 -0.3,2.22 -2.31,1.55 -0.84,2.85 1.6,1.94 4.57,0.87 -3.13,4.3 -0.24,1.83 2.61,11.72 -6.05,2.12 -0.36,3.2 1.19,4.25 -1.8,2.23 -3.42,1.88 -0.12,2.28 0.36,3.34 3.32,4.41 4.51,8.2 1.98,7.98 -2.49,1.85 -2.35,-0.72 -0.62,-4.28 -1.01,-0.96 -8.55,1.38 -3.28,-1.04 -2.92,-2.46 -1.18,-0.15 -2.95,0.76 -4.17,-0.35 -1.54,1.97 -1.6,0.16 -11.93,-8.82 -2.61,-1.06 -3.44,0 -2.49,0.91 -5.11,4.71 -2.02,-0.76 -5.46,0.15 -0.8,3.25 0.69,3.43 -1.78,2.43 -2.14,-0.15 0.47,-5.77 -1.42,-2.12 -1.07,0 -1.66,1.36 -1.31,3.8 0,3.03 -1.18,0.61 -2.97,-0.61 -0.95,2.28 2.32,3.98 0,2.12 -1.19,1.22 -2.02,-1.22 -0.73,-1.86 0,0 -0.2,-0.53 0,0 -2.39,-1.4 -2.26,0 -2.96,1.82 -2.14,4.25 -2.37,-1.21 0.11,-3.8 -1.66,-1.21 -2.39,7 -3.66,-0.32 1.19,-15.64 -1.31,-5.01 -3.32,-4.86 -2.02,-6.53 -2.49,-11.71 -0.81,-7.79 0.24,-5.18 -6.08,-5.05 -0.83,-2.59 0.24,-12.02 -1.54,-2.74 -6.3,-2.9 -4.24,-3.44 -0.53,-3.01 0.68,-6.88 -4.81,-6.48 1.18,-7.14 -3.47,-3.52 0,-5.62 -0.83,-3.58 -0.26,-10.9 1.09,-2.95 1.82,-0.7 0.47,-4.89 -0.35,-4.12 -1.63,-2.65 -8.28,-1.99 -5.7,-4.13 -2.49,-2.9 -4.16,-1.07 -7.24,-5.81 -4.39,-2.44 -1.57,-2.04 -11.7,-1.48 -1.58,-0.55 -3.51,-3.77 -0.93,-2.5 0.32,-4.69 3.15,-6.2 8.35,-11.67 0,-3.52 -1.35,-4.32 -2.61,-2.76 -0.8,-2.41 0.78,-10.36 z" 
                fill="rgb(151, 144, 238)" 
                stroke="white" 
                stroke-width=".7px"
                title="Syunik'" 
                id="AM-SU" 
            />
        </svg>