<svg xmlns="http://www.w3.org/2000/svg" viewBox="325.3725 1.0139399999999439 211.15000000000003 214.3800000000001" width="211.15000000000003" height="214.3800000000001">
            <path 
                d="m 475.9625,206.84394 -15.04,-14.14 -7.81,-3.73 -7.1,-2.18 -7.8,-1.24 -7.1,0.93 -6.43,1.97 -3.52,-0.05 -9.14,4.37 -15.63,16.56 -7.95,0.77 -3.93,1.53 -6.05,-0.93 -9.1,-6.5 -5.26,-2.23 -2.02,1.4 -3.11,4.12 -5.46,3.86 -2.83,3.41 -8.05,0.63 -3.06,-0.81 0,0 -4.7,-1.16 0,0 -0.67,0.35 -1.43,-1.52 -0.26,-2.34 0,0 1.24,-1.41 2.1,-6.83 -0.58,-1.98 1.06,-2.58 -4.34,-4.41 -3.15,-5.74 -0.44,-2.81 4.63,-4.8 -0.54,-1.4 -5.96,-2.34 -1.16,-1.41 0.71,-5.97 4.1,-7.03 11.75,-6.52 2.22,-2.34 4.1,-2.34 2.31,-2.93 1.34,-9.15 4.54,-12.55 4.89,-3.17 1.34,-3.05 0,-3.29 -2.94,-4.58 -2.58,-1.17 -14.51,-3.25 -5.7,-3.76 -1.42,-6.11 0.09,-3.76 1.33,-4.82 3.3,-3.88 4.18,-1.76 5.34,-0.35 4.36,-1.88 4.37,-0.71 9.34,-5.06 2.32,-2.35 1.15,-2.35 1.52,-6.12 -0.72,-2.24 -3.73,-3.41 -3.21,-2.45 -3.03,-0.47 -3.38,-3.53 -5.7,-3.07 -4.86,-5.68 5.21,-5.01 2.6,-0.32 4.73,-2.19 5.92,-6.58 0.7,-3.13 -1.89,-3.13 -2.6,-1.88 -4.02,-1.57 -2.13,-2.51 -0.47,-3.4 0,0 -0.15,-2.6 1.61,-1.82 2.38,1.44 1.98,3.23 5.23,1.39 5.05,0.04 1.42,-1.01 2.99,-5.09 10.37,-7.95 1.94,1.32 2.01,7.16 5.58,7.52 0.22,2.42 -2.02,7.21 -4.64,3.47 0.31,2.37 1.84,0.78 3.09,-0.78 2.79,3.14 2.61,1.42 2.02,2.98 2.79,-0.08 1.66,-1.49 1.2,-3.19 3.43,-0.82 1.84,-2.04 1.24,-0.24 3.62,2.68 6.31,8.5 7.19,1.18 2.01,2.12 0.6,4.79 -1.48,1.06 -3.06,4.37 -11.06,4.08 -12.26,1.48 -3,2.19 -2.31,3.79 -2.1,7.15 -2.45,3.59 1.1,3.87 2.22,1.64 3.17,-0.22 4.76,-3.42 2.42,-0.08 2.16,0.96 1.79,-0.69 0.87,-6.68 -1.08,-3.67 1.48,-1.85 1.89,-0.2 5.42,2.98 1.01,1.72 0.18,1.89 -1.36,4.31 0.65,2.35 4.46,-0.53 7.18,2.67 3.2,5.8 4.36,4.72 4.36,-1.51 3.09,-5.33 3.76,-0.84 1.61,1.31 1.72,5.8 3.02,3.91 7.49,-0.46 4.92,1.8 1.43,-0.55 1.74,-2.7 10.02,-5.24 5.9,-0.73 1.19,0.49 1.2,2.02 -1.12,2.35 -2.2,2.82 -5.93,4.46 0.17,1.96 2.67,5.33 3.53,1.2 4.72,-2.16 1.5,0.13 3.86,3.68 2.78,4.3 -0.29,1.88 -1.13,1.49 0.83,2.11 5.88,0.78 1.78,1.17 3.26,4.31 4.33,2.27 2.79,0.07 1.48,0.94 0.48,3.13 1.42,1.57 3.5,-2.59 1.84,0 1.9,1.02 1.29,1.77 2.63,7.89 0.18,4.23 -1.6,2.5 -1.43,4.45 -6.41,5.86 -4.63,6.32 -0.77,2.89 -2.07,2.19 -9.38,1.01 -6.53,5.94 -7.24,0.73 -5.1,1.72 -7.83,4.83 -2.02,2.81 -0.12,2.5 1.07,3.74 -1.66,1.72 -1.19,-0.47 -0.83,-1.87 -2.73,0.31 z" 
                fill="rgb(151, 144, 238)" 
                stroke="white" 
                stroke-width=".7px"
                title="Tavuš" 
                id="AM-TV" 
            />
        </svg>