<svg xmlns="http://www.w3.org/2000/svg" viewBox="402.3725 422.9739399999999 186.95000000000022 164.67000000000013" width="186.95000000000022" height="164.67000000000013">
            <path 
                d="m 408.5725,495.17394 -1.7,-1.14 -4.5,-0.31 0,0 0.79,-7.14 1.47,-4.6 3.25,-5.35 7.97,-5.36 -0.38,-0.67 0,0 1.56,-0.1 4.42,-2.68 10.33,-11.49 12.98,-9.97 23.61,-8.43 28.62,-1.53 12.39,-3.07 5.9,-4.6 1.77,-5.76 7.97,0.38 3.83,1.92 1.19,1.66 0,0 5.99,-0.01 1.54,6.25 1.67,0.93 11.03,-0.46 2.73,1.23 8.19,0.93 5.58,4.01 1.54,2 9.26,0.62 2.73,0.46 1.54,1.08 2.02,2.16 1.44,4.22 0,1.24 -2.38,2.15 -0.59,1.7 0.95,2.62 4.51,7.09 1.53,6.42 0,0 -7.16,4.38 -10.24,13.27 -4.92,8.85 -0.76,9.58 1.89,4.66 0.95,6.63 -3.98,10.3 0.19,14.96 1.13,12.04 0,0 -3.88,-2.08 -2.2,-0.22 -3.36,2.73 -2.01,2.69 -6.28,1.4 -6.05,4.76 -9.26,-1.38 -2.01,1.38 -3.21,5.82 -3.32,1.84 -2.85,-0.15 -2.14,1.84 -0.74,2.8 -8.39,5.78 -2.97,2.61 -0.51,1.58 -7.57,-0.58 -3.66,-7.39 -2.23,-2.13 -5.47,0.17 -3.73,-2.84 -8.9,0.3 -2.37,-1.37 -7.01,-6.44 -4.83,-11.42 -4.38,-3.23 -7.04,-0.95 -2.21,1.2 -3.52,4.29 -2.18,4.22 -2.98,0.33 -7.27,-3.34 0.09,-14.38 1.8,-3.88 -2.37,-2.15 -0.12,-3.99 2.52,-2.95 -1.68,-5.21 -3.69,-2.66 -3.52,-5.17 -2.47,-6.81 -4.79,-7.61 -6.86,-5.37 z" 
                fill="rgb(151, 144, 238)" 
                stroke="white" 
                stroke-width=".7px"
                title="Vayoc Jor" 
                id="AM-VD" 
            />
        </svg>