<svg xmlns="http://www.w3.org/2000/svg" viewBox="0.26250489999999405 39.31393999999998 184.93999510000006 244.34" width="184.93999510000006" height="244.34">
            <path 
                d="m 64.992505,162.72394 -0.99,-4.31 -5.82,-8.12 -1.3,-7.51 0.12,-4.85 1.3,-6.72 -1.66,-2.97 -0.47,-7.51 -5.7,-4.39 -7.48,-7.36 -9.99,-6.03 -5.4,-0.74 -4.23,-4.45 -3.42,-2.36 -3.41,-1.17 -7.7100001,-0.34 -0.99,-2.7 -1.63,-1.56 0.3,-11.37 -0.74,-2.94 -2.23,-3.53 -2.37,-1.47 -0.91,-4.28 4.17,-8.5 4.81,0.01 3.5800001,-1.94 8.17,-1.96 5.34,-2.36 5.26,0.39 8.57,5.5 3.86,-1.57 11.41,-0.93 3.72,0.53 17.18,8.64 8.26,-10.62 7.58,-5.2 4.81,-2.24 11.869995,-1.17 3.71,-1.38 6.97,-0.59 4.15,0.98 1.79,1.57 2.22,0.2 8.01,-5.89 2.82,0.39 4.15,-0.59 1.33,1.23 0,0 -2.54,7.18 0.33,18.7 2.96,3.48 2.63,1.74 3.94,1.73 3.29,0 1.65,0.87 1.97,3.05 0.99,5.64 3.61,1.31 2.63,3.91 -0.65,12.15 0.98,2.17 4.28,0.87 9.21,-1.3 2.63,0.43 1.31,1.74 -0.33,3.04 -3.94,7.37 -3.29,3.47 -4.61,0 1.32,2.61 0,5.2 -2.3,3.03 -3.62,2.61 -4.93,0 -3.95,1.3 -3.29,1.73 -4.93,4.33 -2.3,4.77 0.98,15.59 1.98,5.19 3.29,4.33 8.22,-1.3 7.56,3.46 0.66,2.17 -0.66,1.73 0.33,2.16 4.93,0.43 6.58,-1.3 3.62,0 0,2.1 0,0 -0.99,11.31 -7.56,0.43 -5.26,1.3 -4.94,3.89 -3.29,3.89 -0.98,4.75 0.33,4.75 7.56,11.66 0.99,3.02 0,6.91 11.84,1.72 -2.96,7.76 0,5.61 0.32,3.88 5.6,6.47 0,3.44 -1.32,3.45 -2.96,0 -3.62,3.45 -10.19,3.87 -4.61,0 -3.61,-1.29 -5.27,0 -2.96,0.86 -2.63,1.73 -4.6,-0.43 -5.92,-6.04 -4.6,-1.29 -4.28,0 -7.56,4.31 -6.91,0 -3.94,-3.02 -4.28,-1.72 -2.96,0 -2.3,1.72 -5.589995,0.44 -5.59,-1.73 -3.62,-2.58 -2.63,0.43 -3.29,2.15 -3.29,0.86 -9.53,0.87 -6.25,4.3 -2.31,4.31 -8.22,6.89 -9.86,2.58 -4.68,0.51 0,0 -5.33,-5.27 -4.62,-1.08 -2.59,-2.71 -0.27,-2.91 2.32,-0.81 0.33,-3.66 4.87,-2.42 9.85,-8.37 1.05,-0.44 0.59,1.21 1.27,0.6 1.24,-5.82 2.08,1.82 1.94,0.09 -1.49,-8.99 6.97,-2.1 4.63,-5.45 3.2,-7.47 1.43,-1.09 1.9,-6.23 1.89,-2.03 1.43,-3.89 0.47,-4.68 2.5,-1.71 2.53,-5.14 -1.53,-3.16 0.89,-0.51 0.24,-4.84 -1.66,-3.5 1.72,-6.13 -1.51,-5.57 z" 
                fill="rgb(151, 144, 238)" 
                stroke="white" 
                stroke-width=".7px"
                title="Širak" 
                id="AM-SH" 
            />
        </svg>