<svg xmlns="http://www.w3.org/2000/svg" viewBox="17.680000000000312 767.1705099999992 224.13999999999967 179.94000000000062" width="224.13999999999967" height="179.94000000000062">
            <path 
                d="m 154.29,767.18051 4.28,0 4.28,0 4.28,0 4.28,0 4.28,0 4.28,0 4.28,0 4.28,0 0,6.85 0,6.77 0,6.69 0,6.62 0,6.55 0,6.48 0,6.41 0,6.34 0,6.28 0,6.21 0,6.15 0,6.09 0,6.03 0,5.97 0,5.92 0,5.86 0.25,0.71 0.5,0.41 0.11,0.71 0.18,0.23 0.66,0.14 0.69,0.98 -0.07,0.28 -1.29,0 -0.28,0.04 -0.02,0.15 0.22,0.54 0.02,0.77 0.35,0.1 0.32,0.27 0.86,1.37 0.39,0.44 0.29,0.11 0.5,-0.14 1.41,0.16 0.31,0.14 0.82,1.66 0.43,0.48 1.93,0.98 0.21,0.07 0.05,-0.97 0.21,-0.47 0.7,0.36 0.99,0.87 0.27,0.47 0.06,0.84 0.31,0.11 0.48,0.48 0.09,0.81 0.34,0.92 0.23,0.21 0.93,0.1 0.22,0.15 0.44,0.64 0.14,0.76 0.49,0.63 0.25,0.49 0.1,0.51 -0.28,0.75 0.55,0.9 0.2,0.65 0.37,0.52 -0.19,0.62 0.03,0.47 0.2,0.33 0.27,0.03 1.18,-0.42 0.14,-0.22 0.14,-0.56 0.24,-0.29 1.07,0.82 1.12,0.52 0.23,0.17 -0.03,0.45 -0.78,1.18 0.31,0.58 0.33,0.36 1.46,0.96 1.81,-0.04 0.33,-0.21 0.25,0.05 0.68,1.58 1.5,1.75 0.36,0.59 0.88,2.17 0.23,0.32 0.74,-0.02 0.14,-0.1 0.06,-0.44 0.16,-0.27 0.29,-0.25 0.36,-0.17 0.39,0.13 0.36,0.47 0.6,1.55 0.59,0.52 0.39,0.59 0.42,0.43 0.3,0.67 0.6,0.71 0.28,1.43 0.25,0.36 0.66,0.37 0.37,0.44 0.72,0.42 0.11,0.1 0.06,0.18 0.19,0.96 0.14,0.3 0.51,0.39 1.31,0.45 1.57,1.54 0.2,0.37 0.07,0.38 -0.47,0.57 0.05,0.2 1.8,1.4 0.31,0.35 0.11,0.07 0.1,-0.01 0.14,-0.02 0.12,0 0.1,0.13 0.21,0.32 0.11,0.33 -0.08,0.25 -0.03,0.19 0.05,0.11 0.35,0.57 0.4,0.45 0.14,0.13 0.15,-0.05 0.55,-0.39 0.33,0 0.39,0.11 0.49,0.45 1.83,2.61 0.65,3.21 0.44,0.95 0.14,0.58 0,0.48 -0.24,0.42 -0.06,0.29 0.42,1.91 -0.05,0.92 -0.39,1.21 -0.46,0.54 0.03,0.23 0.16,0.26 0.32,0.18 0.71,0.07 0.22,0.1 0.01,0.34 -0.12,0.92 0.02,0.43 0.2,0.36 0.77,0.83 0.48,0.81 0.36,0.31 0.07,0.27 0.21,0.29 1.48,0.58 0.23,0.29 0.28,0.72 0.67,0.76 0.06,0.32 -0.11,0.29 -0.86,0 -3.82,0 -3.82,0 -3.82,0 -3.82,0 -1.65,0 -2.17,0 -3.82,0 -2.89,0 -0.94,0 -3.82,0 -3.82,0 -3.82,0 -3.82,0 -3.82,0 -3.82,0 -3.82,0 -3.82,0 -3.82,0 -3.82,0 -3.82,0 -3.82,0 -3.82,0 -0.92,0 -0.34,-0.48 -0.87,-0.63 -0.35,0 -0.35,0.19 -0.22,0.31 -0.2,0.62 -0.33,0 -0.28,-0.86 0.07,-0.39 0.29,-0.46 -0.02,-0.17 -0.63,0.13 -0.28,-0.12 -0.13,-0.25 0.05,-0.98 -0.34,-0.56 0.41,-0.24 1.05,-0.19 1.07,-0.02 0.31,-0.41 0.3,-1.04 -0.77,0.96 -0.46,0.1 -1.42,-0.36 -0.92,0.06 -0.12,-0.21 0.04,-0.21 0.2,-0.21 0.15,-0.72 0.22,-2.03 0.29,-0.74 0.1,-0.4 -0.07,-0.09 -1.23,1.42 -0.1,0.45 0.13,0.39 -0.12,0.8 -0.57,0.24 -0.34,-0.13 -0.64,0.67 -0.2,0.07 -2.94,-1.18 -0.29,-0.16 -0.51,-0.55 -0.72,-0.94 -0.23,-0.81 0.27,-0.69 0.28,-0.34 0.3,0 0.33,0.26 0.68,1.12 0.27,0.69 0.7,-0.1 1.13,-0.88 0.27,-0.33 -1.13,0.34 -0.49,-0.02 -0.5,-0.37 -0.51,-0.71 -0.26,-0.81 0,-2.58 0.17,-0.5 0.55,-0.37 0.35,-0.62 -0.03,-0.26 -0.34,-0.52 -0.49,-0.41 -0.48,-0.21 -0.11,0.06 0.74,1.13 -0.02,0.42 -0.82,1.1 -0.13,0.32 -0.01,1.08 -0.11,0.23 -0.66,0.3 -0.74,0.84 -1.25,0.29 -1.18,-0.08 -0.63,-0.42 -1.96,-2.07 -0.72,-0.87 -0.02,-0.73 -1.34,-2.58 0.01,-0.56 -0.47,-0.81 -0.52,-0.11 -0.12,-0.77 1.07,-1.67 0.67,-1.41 0.08,-0.44 -0.03,-0.69 -0.16,-1.53 0.14,-0.66 -0.66,0.88 -0.14,0.65 0.16,0.65 -0.1,0.74 -0.38,1.04 -0.66,1.1 -1.35,0.53 -2.39,-0.29 -0.28,-0.14 -0.17,-0.38 -0.12,-1.62 -0.15,0.2 -0.27,0.86 -0.22,1.23 -0.28,0.28 -0.5,0.02 -0.39,-0.2 -0.28,-0.42 -0.6,-0.04 -1.13,0.33 -0.53,-0.13 -0.63,-0.01 -1.27,-0.36 -1.51,-0.09 -0.41,-0.28 0.02,-0.54 0.28,-0.27 1.59,-0.24 1.54,-0.57 1.52,-0.28 -0.06,-0.29 -0.69,-0.09 -3.49,0.63 -1.1,-0.08 -0.19,-0.1 -0.03,-0.64 0.4,-0.61 0.67,-0.56 0.2,-0.43 -0.39,-0.18 -0.63,0.12 -0.3,-0.34 0.33,-1.34 -0.29,-1.37 -0.41,1.3 -0.62,0.71 -2.95,0.3 -0.48,0.38 -0.39,-0.01 -1.88,-0.69 -0.8,-0.42 -0.76,-0.62 -1.34,-1.4 -1.05,-0.91 -0.06,-1.68 0.23,-1.07 0.51,-1.2 1.91,-2.6 0.65,-0.49 0.59,-0.17 2.8,-0.23 2.09,-0.33 0.39,-0.16 -3.07,-0.19 -2.73,0.13 -0.93,0.41 -1.19,1.67 -0.3,0.7 -0.32,0.51 -0.21,0.01 -0.41,-0.18 -0.13,-0.22 -0.17,-0.55 -0.64,-0.87 -0.28,-1 -0.17,-1.47 0.05,-0.66 0.3,-0.84 0.92,-1.66 -1.18,0.04 0.14,-1.4 0.43,-1.52 1.09,-0.9 1.11,-0.65 1,-0.86 1.75,-0.57 0.6,1.17 1.5,0.35 0.44,0.53 0.53,0.97 0.66,0.92 0.79,0.88 0.22,0.06 -0.35,-0.75 -1.28,-1.65 -0.06,-0.58 -0.33,-0.63 -1.69,-0.91 -0.3,-0.35 -0.3,-0.92 -0.13,-0.6 0.19,-0.58 1.72,-1.77 0.39,-0.93 0,-0.44 -0.13,-0.5 -0.38,-0.86 -0.1,0 0.12,1.3 -0.06,0.51 -0.19,0.56 -0.28,0.43 -0.37,0.29 -3.7,4.02 -0.37,0.24 -1.37,0.36 -0.7,0.43 -0.38,0.56 -0.61,1.46 -0.84,2.91 -0.96,2.35 -0.82,-3.04 -1.47,-2.34 2.87,-2.33 0.07,-0.36 -0.28,-1.25 0.08,-0.38 0.27,-0.55 0.73,-0.8 -0.03,-0.08 -0.85,0.29 -1.31,1.81 -0.51,0.58 -0.27,0.08 -0.03,-1.06 0.7,-2.76 0.58,-2.69 0.21,-0.77 0.5,-0.78 -0.47,0.06 -2.32,1.2 -0.78,-0.75 -0.65,-3.92 -1.14,-1.54 -1.94,-1.26 -1.9,-0.59 -0.44,-1.13 -0.38,-1.37 0.51,-1.62 0.83,-0.77 0.77,-0.35 0.73,0.16 0.04,0.59 -0.49,1.6 0.65,0.15 2.61,1.93 0.57,0.16 1.08,-0.74 0.6,0.03 1.42,0.6 0.48,0.72 1.36,1.42 -0.2,-0.83 -1.48,-1.74 -0.83,-0.56 -1.45,-0.11 -0.9,0.29 -0.38,-0.08 -0.79,-0.44 -0.67,-0.73 -0.67,-1.6 -0.15,-0.75 0.04,-0.55 0.16,-0.5 0.28,-0.45 0.55,-0.33 0.83,-0.2 0.25,-0.2 -1.06,-0.92 -0.48,0 -1.66,1.35 -0.34,0.11 -0.15,-0.26 -0.14,-0.02 -0.49,0.67 -0.38,0.3 -1.36,2.06 -0.21,0.98 -0.08,1.46 -0.16,0.92 -0.24,0.37 -1.6,0.7 -0.91,1.42 -1.1,-1.23 -1.21,-1.19 -0.81,-2.08 -1.46,-0.37 -1.69,-1.18 -0.65,-1.05 0.92,-2.17 1.32,-1.64 0.2,-1.98 0.18,-0.43 2.26,-0.49 1.48,-0.99 -1.51,-0.09 -0.93,0.15 -1.67,0.69 -1.85,-1.36 -0.95,-1.25 -0.3,-1.06 0.33,-0.9 0.04,-0.92 0.17,-1.25 0.17,-0.54 0.39,-0.7 0.79,-0.46 0.7,-1.43 0.29,-1 1.44,-3.02 0.52,-1.31 0.98,-1.82 1.97,-2.87 -0.62,0.16 -0.33,0.25 -0.31,-0.03 -0.29,-0.31 -0.28,-0.64 -0.27,-0.97 -0.15,0.43 -0.03,1.82 -0.2,1.55 -0.35,1.08 -0.97,2.18 -0.57,0.85 -0.39,-0.79 0.3,-1.36 0.56,-1.09 0.1,-1.49 -0.53,-1.78 -0.32,-1.44 -0.12,-1.09 -0.02,-1 0.09,-0.9 0.22,-0.99 0.36,-1.07 -0.04,-0.12 0.1,-1 -0.08,-1.02 -0.3,-0.81 -0.38,-0.71 -1.05,0.42 -1.78,-0.64 -0.57,-1.74 -1.54,-0.53 -0.83,-1.24 -1.69,-0.61 -1.37,-0.42 -1.04,-0.72 -1.22,-0.84 -1.22,-0.9 -0.93,-0.68 -0.69,0.04 -1.55,0.1 -0.08,-1.54 -0.47,-0.93 0.18,-0.83 -0.86,-0.42 -1.27,-0.62 0.37,-1.58 0.28,-1.2 -1.13,-0.36 -1.62,-0.51 0.52,-1.08 0.42,-0.88 -0.62,-1.29 -1.26,-2.16 -0.97,-1.55 -1.26,-2.42 -1.11,-2.14 -0.91,-1.75 -0.76,-1.21 -1.07,-2.17 -1.39,-2.46 -1.32,-1.94 0.19,-1.26 -1.3,-1.58 -1.14,-1.61 -1.32,-1.86 -1.3,-0.91 -0.93,-0.65 -1.34,-0.94 -0.7,-0.84 -0.29,-0.71 -0.3,-0.5 -0.26,-0.7 -0.15,-0.82 -0.27,-0.51 -1.62,-1.22 -0.5,-0.77 -1.12,-0.89 -0.94,-0.37 -0.33,-0.3 -1.14,-2.69 0.18,-0.96 0.13,-0.96 -0.13,-0.49 -1.88,-2.06 -0.96,-0.86 -0.97,-0.89 -2.03,1.15 -2.08,1.17 -1.46,0.43 -2.01,0.59 0.67,1.27 -0.28,0.93 -0.63,0.43 -1.06,-0.05 0,3.15 -1,2.23 -2.1,0.04 -1.13,0.77 -1.68,1.13 -1.36,0.92 -1.44,1.48 -0.74,-0.21 0.33,-1.32 -0.54,-2.35 -0.44,-1.87 -0.93,-0.96 -1.56,-1.62 -1.17,-1.22 -1.67,-1.75 -1.17,-1.22 -1.22,-1.28 -1.6,-1.68 -0.66,-2.19 -1.46,-0.79 -1.57,-0.85 -0.12,-0.15 8.62,0.01 8.53,0 8.53,0 8.53,0 8.53,0 8.53,0 8.53,0 8.53,0 8.53,0 8.53,0 8.53,0 8.53,0 8.53,0 8.53,0 8.53,0 8.57,0 z m -57.33,83.03 -0.04,-0.54 0.42,-1.2 1.21,-2.52 -0.02,-0.72 -0.18,-1.08 -0.55,-1.77 -0.18,-0.96 -0.05,-1.1 0.08,-1.03 0.23,-0.96 0.33,-0.89 0.44,-0.83 -0.6,1.63 -0.28,1.51 0.11,1.74 0.37,1.55 0.28,1.05 0.14,0.7 0.06,0.63 -0.03,0.73 -0.41,0.92 -1.33,3.14 z m -3.24,3.99 0.74,-1 1.62,-1.74 0.88,-1.25 0.09,1.23 -1.3,2.06 -1.67,1.02 -0.36,-0.32 z m -3.15,4.49 -0.21,0.02 -0.08,-0.32 0.05,-0.67 0.28,-1.13 0.13,-0.26 1.16,0.2 0.17,0.08 0.04,0.22 -0.09,0.35 -0.37,0.51 -1.08,1 z m -15.5,5.38 0.82,0.9 1.97,-0.57 0.37,0.11 0.37,0.34 0.41,0.73 0.45,1.11 0.1,1.21 -0.18,0.43 -0.35,0.48 -3.14,1.92 -0.08,0.18 0.06,0.17 0.29,0.18 0.63,-0.02 2.49,-0.48 0.14,-0.33 0.17,-1.52 0.34,-0.81 0.03,-0.61 -0.23,-1.45 0.01,-0.58 1.74,-0.12 1.09,-0.54 1.11,-1 0.25,0.03 -0.16,1.81 -0.15,0.55 -1.06,2.2 -0.61,1.93 -0.3,1.9 -0.05,3.14 -0.26,1.06 -0.48,0.65 -3.01,1.13 -1.55,-0.07 -1.38,-1.03 -0.65,-0.71 0.49,-0.86 0.34,-0.04 0.97,0.17 0.75,0.32 0.33,0.01 -0.06,-0.2 -2.14,-1.62 -1.57,-0.74 -0.47,-0.83 -0.01,-0.64 -0.12,-0.36 -1.24,-2.25 -0.24,-0.89 -0.16,-1.26 0,-1.3 0.31,-2.11 0.14,-0.23 0.51,0.02 0.88,0.26 2.09,0.23 z m 21.69,2.58 -0.28,0.55 -0.63,0.85 -0.42,0.34 -0.21,-0.18 -0.56,-0.09 -0.6,-0.85 -0.47,-0.34 -0.31,-0.02 -0.15,0.31 -0.04,0.41 0.08,0.52 -0.05,0.23 -0.18,-0.05 -0.18,-0.24 -0.18,-0.44 -0.04,-0.44 0.1,-0.45 0.44,-0.61 1.37,-1.26 0.42,-0.23 0.45,0.05 0.73,0.59 0.16,0.17 0.55,1.18 z m 3.48,11.9 -0.18,0.05 -0.59,-0.18 -1.95,-2.53 -1.38,-0.92 -0.94,-1.25 -0.96,-0.8 0.59,-1.31 0.51,0.16 1.79,1.07 1.43,1.03 0.81,0.67 1.7,2.87 -0.13,0.41 -0.7,0.73 z m 6.1,0.75 -0.05,0.11 -0.93,0 -0.26,-0.15 -0.16,-0.31 -0.07,-0.47 0.15,-0.57 0.55,-1.09 0.02,-0.47 0.12,-0.2 0.39,0.55 0.16,0.51 0.08,2.09 z m 5.52,2.65 0.41,4.72 -0.03,1.5 -0.6,0.98 -0.42,1.64 -0.49,0.74 -0.47,-0.98 -0.04,-1.63 -0.12,-1.3 -0.15,-0.62 0.18,-2.43 -0.21,0.18 -0.55,1.07 -0.62,0.07 -1.1,-1.21 -0.55,-0.98 -0.09,-1.03 -0.73,-1.08 -0.08,-0.38 0.06,-0.4 0.6,-1.08 0.24,-0.73 0.21,-1.51 0.24,-0.59 0.56,0.08 1.01,0.68 1.05,0.74 0.97,0.99 0.72,2.56 z m -28.7,-3.81 0.91,1.38 0.27,1.23 -0.11,1.45 -1.44,0.55 -0.76,-0.44 -0.33,0.08 -0.5,0.43 0.6,0.19 0.85,0.71 0.74,0.92 1.05,0.17 1.39,0.64 -1.05,1.16 -0.16,0.66 1.32,1.83 0.12,0.46 0.42,0.09 0.98,-0.15 0.12,0.15 0,0.38 -0.6,1.06 0.06,0.21 0.54,0.17 1.04,0.01 0.24,1.05 -0.94,0.96 -1.8,-1.23 -0.8,-1.23 -0.46,-1.14 -0.55,-0.65 -1.67,-1.43 -2.53,-3.11 -0.65,-0.45 -0.66,-1.24 -0.19,-0.6 0.02,-0.4 0.26,-0.21 0.76,-0.14 0.01,-0.62 -2.91,-1.08 -0.32,-0.22 -0.38,-0.76 0.2,-0.11 1.6,0.13 1.72,-0.36 1.06,-0.28 0.42,-0.34 0.86,-0.44 0.36,0.03 0.89,0.53 z m 21.87,3.03 -0.13,0.12 -0.37,-0.2 -0.36,-0.39 -0.61,-1.1 -0.2,-0.46 -0.13,-0.75 0.12,-0.13 0.27,0.08 0.19,0.13 0.96,1.82 0.26,0.88 z m 3.38,7.12 -0.29,0.67 -1.2,-1.62 -0.44,-0.46 -0.89,-1.72 -0.16,-0.74 0.04,-0.42 0.16,-0.15 0.28,0.11 0.26,0.19 1.72,1.91 0.48,0.9 0.04,1.33 z m 5.09,1.6 -0.69,0.2 0.23,-0.79 0.07,-0.47 -0.12,-0.44 -0.09,-0.85 -0.03,-2 0.67,-1.26 1.05,-0.04 -0.01,0.64 -0.45,2.84 -0.23,1.31 -0.18,0.48 -0.22,0.38 z m -23.85,6.41 -0.16,0.03 -0.3,-0.3 -0.21,-0.49 -0.12,-1.27 0.09,-0.52 0.08,-0.2 0.78,0.81 -0.16,1.94 z m 27.83,7.04 -0.15,0.24 -0.36,0 -0.57,-0.24 -0.42,-0.53 -0.51,-1.66 0.06,-0.29 0.18,-0.29 0.82,-0.6 0.3,0.07 0.11,0.44 0.49,0.98 0.14,0.29 0,1.14 -0.09,0.45 z m 6.52,11.86 4.45,1.76 4.46,0.87 3.27,1.02 2.01,0.31 0.73,0.22 0.47,0.36 0.55,0.87 0.95,2.07 0.72,1.32 1.5,2.28 1.18,1.61 0.27,0.64 -0.25,0.21 0.02,0.38 0.9,1.56 1.68,1.4 1.32,0.66 2.78,1.09 1.7,1.05 0.53,0.73 0.74,0.71 0.31,0.49 0.61,1.8 1.13,1.73 1.16,3.28 0.22,-0.27 0.13,-0.98 0.13,-0.22 0.25,-0.1 0.23,0.38 0.21,0.86 0.74,2.04 -0.24,0.59 -0.21,0.06 -1,-0.28 -0.35,0.37 -0.47,0.74 -0.33,0.3 -0.19,-0.14 -2.89,-0.71 -1.78,-0.67 -2.34,-1.06 -2.81,-1.11 -1.6,-0.76 -1.34,-0.78 -0.93,-0.67 -0.18,-0.57 0.04,-0.27 1.8,-1.82 0.76,-0.98 0.29,-0.75 0.15,-0.79 -0.11,-0.97 -0.07,0.08 -0.16,0.93 -0.27,0.83 -0.32,0.65 -0.21,0.23 -2.16,0.32 -1.74,-0.1 -0.87,0.78 -0.26,0.1 -0.48,-0.26 -1.05,-1.04 -1.51,-0.85 0.15,-0.21 0.98,-0.44 0.52,-0.64 -0.09,-0.1 -0.35,0.04 -0.31,-0.13 -0.61,-0.83 -0.35,-0.23 -0.74,0.37 -0.3,0.02 -0.29,-0.55 0.41,-1.26 0.02,-0.3 -0.76,0.46 -0.25,-0.15 -0.24,-0.41 -0.22,-0.17 -0.62,0.08 -0.67,-0.38 -0.23,0.15 -0.09,0.55 -0.22,0.14 -1.02,-0.92 -0.23,-0.03 -0.5,0.7 -0.17,0.04 -0.26,-0.3 -0.14,-1.71 0.06,-0.49 0.14,-0.16 0.89,-0.4 2.56,-0.43 0.21,-0.31 -1.91,0.16 -0.5,-0.23 -0.53,-0.59 -0.56,0.01 -0.3,-0.19 -0.31,-0.42 -0.81,-1.56 -0.55,-0.39 -0.94,-0.25 -0.48,-0.3 -0.2,0.13 -0.2,0.44 -0.26,0.28 -0.64,0.16 -0.59,-0.11 -0.46,-0.43 -0.27,-0.54 -0.1,-0.6 0.25,-0.8 0,-0.32 -0.11,-0.37 -0.21,-0.3 -0.31,-0.23 -0.17,0.12 -0.03,0.47 -0.17,0.34 -0.53,0.26 -0.43,-0.46 -0.29,-0.64 -0.33,-0.46 -1.86,0 -0.86,0.59 -0.41,0.05 -0.43,-0.14 -0.08,-0.31 0.4,-0.86 -0.1,-1.14 -0.1,-0.29 -0.86,-0.17 -0.15,-0.28 0.51,-1.39 0.29,-0.26 0.38,-0.1 1.7,-0.11 0.57,0.2 0.82,0.85 -0.03,-0.32 -0.31,-0.96 -0.04,-0.58 0.57,-0.65 -0.54,-0.19 -2.02,-0.15 0.02,0.42 0.17,0.59 -1.2,0.52 -0.89,0.09 -0.85,-0.08 -0.69,-0.31 -1.18,-1.25 -0.74,-1.23 0.03,-0.67 0.41,-0.71 0.53,-0.48 1.26,-0.42 1.64,-0.04 1.84,0.56 4.59,2.51 z m 18.05,7.61 -0.1,0.74 -0.58,-1.19 -0.89,-2.54 0.12,-0.59 0.4,-0.84 0.36,-0.05 0.58,0.39 0.51,0.7 0.12,0.27 0.31,0.73 0.16,0.66 -0.35,0.8 -0.64,0.92 z m 1.85,0.94 -0.21,0.12 -0.22,-1.58 0.27,-0.57 0.08,-0.29 -0.03,-0.3 0.47,0.71 0.19,0.48 0.08,0.66 -0.01,0.18 -0.62,0.59 z m -14.91,5.87 -0.35,0.06 -0.56,-0.17 -0.63,-0.4 -1.11,-1.05 -0.11,-0.24 0.1,-0.21 0.32,-0.17 0.07,-0.28 -0.26,-0.76 0.89,-0.48 0.79,0.4 0.36,0.49 0.43,0.87 0.19,0.98 0.02,0.67 -0.15,0.29 z m 22.3,1.03 0.12,0.29 -1.99,-1.07 -0.85,-0.63 -0.33,-0.46 -0.21,-0.26 -1.01,-0.68 -0.17,-0.31 0.24,-0.23 0.68,0.14 1.13,0.51 1.01,0.84 1.38,1.86 z m -17.38,2.44 0.25,1.24 -1.1,-0.2 -0.38,-0.24 -0.02,-0.59 0.21,-0.56 0.84,0.2 0.2,0.15 z m 24.38,6.39 -0.11,0.15 -1.4,-0.96 -0.94,-1.26 -0.39,-0.77 1.85,1.91 0.94,0.63 0.05,0.3 z m -0.56,1.78 -0.38,0.35 -0.2,-0.05 -0.16,-0.24 -0.58,-2.38 0.25,0.05 0.78,0.74 -0.18,0.29 0.58,0.71 0.14,0.51 -0.25,0.02 z" 
                fill="rgb(151, 144, 238)" 
                stroke="white" 
                stroke-width=".7px"
                title="British Columbia" 
                id="CA-BC" 
            />
        </svg>