<svg xmlns="http://www.w3.org/2000/svg" viewBox="349.86999999999983 767.1705100000001 117.01000000000016 170.8699999999999" width="117.01000000000016" height="170.8699999999999">
            <path 
                d="m 466.88,821.05051 -2.3,2.55 -2.31,2.6 -2.32,2.58 -2.32,2.57 -3.13,3.61 -3.13,3.58 -3.14,3.57 -3.13,3.54 -2.74,3.28 -2.73,3.26 -2.74,3.24 -2.74,3.23 -2.29,2.81 -2.28,2.81 -2.29,2.78 -2.29,2.78 -3.43,3.49 -3.44,3.47 -3.44,3.45 -3.43,3.44 -0.01,6.35 -0.01,6.29 -0.01,6.23 -0.01,6.17 -0.01,6.12 0,6.05 -0.01,6.01 0.04,5.96 -0.02,2.28 -0.04,2.89 -2.11,-0.02 -3.82,0 -3.83,0 -3.82,0 -3.82,0 -1.1,0 -2.72,0 -3.82,0 -3.83,0 -3.82,0 -3.82,0 -3.82,0 -3.83,0 -3.82,0 -3.82,0 -3.82,0 -0.33,-5.85 -0.36,-5.88 -0.36,-5.94 -0.35,-5.99 -0.36,-6.05 -0.36,-6.11 -0.35,-6.16 -0.36,-6.22 -0.36,-6.28 -0.35,-6.34 -0.36,-6.41 -0.36,-6.47 -0.35,-6.54 -0.36,-6.61 -0.36,-6.68 -0.35,-6.76 -0.01,-4.18 0,-4.2 0,-4.24 0,-4.26 0,-4.3 0,-4.32 0,-4.36 0,-4.38 0,-4.42 0,-4.46 0,-4.48 0,-4.52 0,-4.56 0,-4.59 0,-4.62 0,-4.66 4.03,0 4.04,0 4.03,0 4.03,0 4.04,0 4.03,0 4.03,0 4.04,0 4.03,0 4.03,0 4.04,0 4.03,0 4.03,0 4.04,0 4.03,0 4.31,-0.01 -0.12,0.86 0.08,8.43 -0.11,3.7 -0.28,2.03 -0.45,1.11 -0.78,0.33 0.99,0.32 0.63,0.52 0.29,0.79 0.28,1.25 0.35,0.57 0.45,-0.09 0.4,0.12 0.35,0.35 1.08,1.78 1.19,0.5 0.05,0.99 -0.46,5.47 0,0.71 0.54,-1.37 0.57,-4.25 0.77,-1.9 0.6,-0.41 2.47,-0.21 2.64,0.48 0.99,0.06 0.87,-0.26 0.89,0.53 0.22,0.53 0.25,2.24 0.24,1.28 1.57,4.52 0.74,2.52 0.92,3.91 0.34,1.12 1.9,5.16 0.36,1.39 0.15,1.08 -0.06,0.75 -0.35,1.15 -0.63,1.56 -0.59,1.18 -0.54,0.81 -0.57,0.61 -0.57,0.4 0.04,0.1 0.65,-0.19 0.66,-0.41 1.27,-1.05 0.48,-0.23 1.37,-0.15 0.05,0.38 -0.67,0.78 0.15,0.07 0.96,-0.63 2.07,-0.9 8.13,-2.93 1.91,-0.25 2.74,0.53 2.22,1.25 2.42,1.6 2.54,1.16 4.02,1.08 1.18,0.52 z" 
                fill="rgb(151, 144, 238)" 
                stroke="white" 
                stroke-width=".7px"
                title="Manitoba" 
                id="CA-MB" 
            />
        </svg>