<svg xmlns="http://www.w3.org/2000/svg" viewBox="645.2000000000002 950.5005099999994 46.80000000000007 44.55000000000064" width="46.80000000000007" height="44.55000000000064">
            <path 
                d="m 690.26,977.46051 -0.18,0.45 -0.97,0.17 -0.51,0.82 -0.51,0.65 -0.38,0.18 -0.8,0.11 -0.7,0.26 -0.49,-0.77 -0.86,-1.03 -0.08,0.43 0.43,1.28 -1.66,2.24 -1.07,0.16 -1.43,1.04 -2.02,0.91 -2.35,1.73 -3.04,1.45 -0.64,0.01 -1.38,-1.2 0.39,-0.54 0.36,-0.74 -0.34,0.21 -0.22,0.32 -0.83,0.51 0.68,0.99 -0.33,0.37 -0.97,0.49 -0.9,0.71 -0.79,0.47 -0.64,-0.6 -1.76,0.76 -1.48,0.2 -0.32,-0.38 -0.09,-0.61 -0.52,-0.15 -0.96,0.17 -0.37,-0.32 -0.41,-0.16 -0.38,-0.13 -0.33,-0.1 -0.19,0.18 -0.18,0.24 -0.22,0.18 -0.46,-0.25 -0.29,-0.46 -0.47,-0.48 -0.18,-0.36 0.09,-0.42 0.21,-0.4 0.09,-0.48 -0.23,-0.55 -0.21,-0.31 -0.15,-0.36 0.05,-0.34 0.29,-0.16 0.27,-0.21 0.09,-0.45 -0.17,-0.48 -0.48,-0.2 -0.4,0.07 -0.58,-0.1 -0.56,-0.3 -0.37,-0.34 -0.28,-0.2 -0.22,0 -0.26,-0.2 -0.16,-0.33 0.02,-0.54 0.07,-0.33 0.15,-0.29 0.01,-0.32 -0.06,-0.23 -0.01,-0.18 0.04,-0.23 0.09,-0.45 -0.16,-0.33 -0.02,-1.15 -0.03,-2.16 -0.02,-1.66 -0.03,-2.09 -0.02,-1.52 -0.02,-2.14 -0.02,-2.04 -0.04,-1.93 -1.15,-1.11 -1.45,-1.41 -1.24,-0.94 -0.68,-0.11 -0.42,0.13 -0.17,0.37 -0.93,0.4 -1.69,0.43 -1.44,0.66 -0.53,0.01 -0.45,-0.11 -0.59,-0.33 -0.41,-0.49 -0.04,-0.28 3.81,-1.66 1.19,-0.79 0.59,-0.63 0.32,-0.46 0.13,-0.34 0,-1.37 0,-0.97 0,-0.97 0,-1.21 1.12,0 1.25,0 0,-0.92 0.81,0 0.99,0 1.56,0 1.13,0 0.03,0.4 0.27,0.39 1.92,1.13 0.52,-0.43 1.07,-0.09 1.16,-0.33 0.95,0.25 0.24,-0.85 0.74,-0.46 1.24,-0.33 0.65,0.15 1.82,-0.75 0.62,0.08 1.34,0.96 3.23,1.04 0.84,0.68 0.8,2.18 0.53,0.35 1.11,-0.23 1.25,-1.08 1.04,-0.58 2.03,-0.47 -0.4,0.72 1.55,-0.06 1.53,0.96 -0.57,0.68 -0.77,1.37 -0.54,2.66 -1.56,1.78 -2.09,1.74 0.53,0.42 0.61,0.26 1.34,-0.51 0.9,0.04 1,0.33 -0.31,1.35 -0.36,0.91 0.21,0.85 0.59,1.62 0.81,0.36 0.33,2.07 0.43,1.13 -0.06,0.9 0.82,0.58 0.14,0.92 2.96,0.26 0.6,0.35 2.05,0.35 0.39,0.25 0.37,0.5 -2.01,1.1 0.27,0.14 z m -3.99,-25.49 -1.03,0.69 0.45,-1.04 0.19,-0.27 0.17,-0.12 0.17,0.09 0.05,0.65 z m -0.29,0.96 -0.23,0.97 -0.78,0.82 -0.39,0.06 -0.18,-0.08 0.22,-0.53 -0.02,-0.92 0.65,-0.13 0.24,0.08 0.49,-0.27 z m -20.21,41.46 -1.21,0.66 0.47,-1.7 0.38,-0.52 0.51,0.18 -0.07,1.03 -0.08,0.35 z" 
                fill="rgb(151, 144, 238)" 
                stroke="white" 
                stroke-width=".7px"
                title="New Brunswick" 
                id="CA-NB" 
            />
        </svg>