<svg xmlns="http://www.w3.org/2000/svg" viewBox="656.8200000000003 761.650510000001 135.4100000000002 207.77999999999963" width="135.4100000000002" height="207.77999999999963">
            <path 
                d="m 752.39,903.78051 -0.01,-3.85 0,-4.2 -3.65,0 -3.64,0 -3.64,0 -3.65,0 -3.65,0 -3.64,0 -3.64,0 -3.65,0 -3.64,0 -3.64,0 -3.65,0 -3.64,0 -3.65,0 -3.64,0 -3.65,0 -3.64,0 -1.35,-0.14 -0.24,-0.14 -0.08,-0.34 0.06,-0.1 0.73,0.04 0.36,-0.17 -0.03,-0.5 -0.14,-0.64 -0.73,-2.33 -1.06,-0.69 -0.46,-0.53 -0.07,-0.54 -0.08,-0.16 -0.99,-0.42 -0.04,-0.12 0.06,-0.28 0.38,-0.59 0.56,-0.59 0.51,-0.35 0.79,-0.32 2.58,-0.55 0.89,-0.31 0.12,-0.28 -1.26,-1.26 -0.12,-0.34 -0.03,-0.43 0.16,-1.69 -0.05,-0.37 -0.46,-1.05 -0.59,-0.98 -0.46,-0.13 -0.69,0.07 -0.95,0.41 -0.11,0.17 -0.5,2.53 -0.31,0.25 -1.18,0.36 -0.35,0.58 -0.08,2.8 0.03,1.06 0.72,2.58 -0.25,2.8 -0.26,0.56 -0.9,0.71 -0.1,0.24 -0.45,2.23 -0.12,1.27 0.08,0.44 0.33,0.61 -0.01,0.58 -1.94,1.73 -0.82,0.12 -0.89,-1.73 -0.04,-0.36 0.09,-0.25 0.48,-0.4 0.11,-0.5 -0.28,-0.34 -0.96,-0.82 -1.5,-2.17 -0.93,-0.85 -0.91,-0.6 -1.17,-0.45 -1.16,-0.26 -0.48,0 -0.2,0.1 -0.69,1.49 -0.34,0.3 -0.38,0 -0.53,-0.3 -0.81,-0.15 -0.23,0.59 -0.19,0.16 -0.5,-0.03 -0.86,-0.39 -0.51,-0.41 -0.55,-1.46 -0.46,-0.3 -1.17,-1.04 -0.15,0.09 -0.28,1.55 -0.17,0.49 -0.3,-0.14 -0.26,-0.28 -0.29,-0.66 -0.21,-0.96 -0.01,-0.68 0.55,-0.83 0.07,-0.29 -0.29,-3.57 0.08,-0.41 0.45,-0.78 0.09,-0.96 0.14,-0.5 0.28,-0.31 0.09,-0.53 -0.25,-0.55 -0.55,-0.86 -0.34,-0.28 -0.36,-0.12 -0.2,0.2 -0.28,0.69 -0.84,0.4 -0.14,0.32 -0.36,2.39 -0.15,0.32 -1.13,0.6 -0.37,-0.18 -0.37,0.07 -0.48,-0.07 -0.7,-0.33 -0.35,-0.51 -0.01,-1.15 0.14,-1.29 0.23,-0.9 0.52,-1.38 0.05,-1.64 0.25,-2.18 -0.06,-0.39 -0.32,-0.43 -0.41,-0.14 -0.45,-0.37 -0.47,-1.28 -0.33,-0.61 -2.62,-0.88 -0.15,-0.18 -0.03,-0.33 0.19,-1.44 -0.14,-1 -0.53,-0.65 -2.03,-2.95 -0.04,-0.41 0.27,-0.6 0.45,-0.63 1.52,-1.45 0.03,-0.25 -0.07,-0.44 -0.6,-1.69 -0.25,-0.92 -0.09,-0.85 0.17,-0.71 0.21,-0.2 0.38,-0.11 1.99,0.85 0.26,-0.02 0.44,-1.03 0.77,-0.48 0.03,-0.56 -0.47,-0.45 -0.05,-0.27 -0.77,-1.96 -0.74,-1.42 -0.39,-1.04 -0.19,-0.82 0.1,-0.35 0.16,-0.2 0.62,-0.04 0.33,0.17 1.21,1.97 2.69,2.43 1.28,0.51 0.66,-0.78 -0.05,-0.75 -0.48,-1.58 0.16,-0.78 -0.49,-2.05 0.25,-0.99 -0.05,-0.32 -0.65,-1.27 -0.02,-0.27 0.23,-0.27 0.36,0.15 1.04,0.99 3.39,3.87 0.75,0.63 0.66,0.41 1.79,0.54 0.14,0.14 0.64,1.45 0.5,0.56 0.59,0.37 4.97,0.4 2.75,-0.23 4.25,0.12 3.86,1.43 1.42,0.34 0.47,-0.05 0.37,-0.45 0.79,-2.04 0.7,-2.2 0.14,-0.69 -0.04,-0.4 -0.64,-1.55 0.15,-0.85 0.21,-0.43 0.73,-0.66 2.4,-1.53 0.44,-0.51 -0.35,-1.02 -0.07,-0.57 0.08,-0.69 -0.03,-0.47 -1.35,-0.45 -0.53,-0.36 -0.46,-0.5 -0.98,-1.74 -1.58,-2.47 -0.07,-0.36 0.09,-0.64 0.33,-0.39 0.67,-0.45 0.25,-0.26 -0.18,-0.53 -2.31,-0.6 -0.45,-0.4 -0.74,-0.1 -0.32,-0.04 0.11,-0.76 0.83,-1.09 -0.12,-0.27 -1.53,-0.74 -0.28,-0.22 -0.06,-0.17 0.03,-0.56 -0.16,-0.97 0.75,-0.57 0.88,-0.15 0.26,-0.59 -0.26,-0.84 -1.41,-2.67 -0.03,-0.27 0.13,-0.5 0.63,-0.8 0.24,-0.55 0.48,-0.7 0.42,-0.42 0.24,-2.19 0.36,-0.99 0.39,-0.77 0.3,-1.61 -0.02,-0.22 -0.3,-0.63 -0.06,-0.66 0.52,-1.28 -0.17,-1.95 0.03,-0.66 0.13,-0.47 1.16,-1.48 0.15,-0.39 -0.03,-0.51 -0.15,-0.05 -0.88,0.51 -0.7,-0.17 -0.43,-0.12 -0.27,-0.3 -0.44,-0.88 -0.36,-0.31 -0.22,-0.02 -0.53,0.3 -0.3,-0.46 -0.49,-1.06 -0.83,-2.4 -1.44,-1.38 -0.12,-0.38 0.05,-0.39 0.21,-0.42 2.45,-3.23 0.67,-0.68 1.57,-1.04 0.1,-0.39 -0.03,-0.39 -0.37,-0.86 -1.4,0.18 -0.21,-0.17 -0.21,-0.76 0.01,-0.37 0.13,-0.35 0.35,-0.42 0.64,-0.31 3.65,-0.82 0.42,-0.2 0.08,-0.17 -0.07,-0.3 -0.28,-0.49 -0.51,-0.54 -0.67,-0.41 -0.55,-0.14 -2.36,0.88 -1.48,0.7 -0.33,0.03 -0.39,-0.29 -0.52,-1.39 -2.9,-0.79 -1.71,-0.31 -0.36,-0.34 -0.02,-0.6 0.16,-0.63 0.28,-0.35 0.28,-0.15 3.38,0.87 0.32,-0.06 0.3,-0.31 -0.07,-0.41 -0.98,-0.82 -0.32,-0.44 -0.25,-0.87 -0.13,-1.04 0.01,-2.28 0.14,-0.75 0.69,-1.02 0.42,-0.33 -0.06,-0.7 -0.53,-0.23 -2.42,1.09 -0.55,-0.39 -0.38,-0.92 0.24,-4.88 0.26,-0.86 0.86,-0.74 0.04,-0.29 -0.03,-0.2 -0.16,-0.18 -1.36,-0.77 -0.31,-0.41 -0.17,-0.48 0.06,-0.26 0.88,-0.25 0.64,-0.49 0.54,-0.34 0.25,-0.56 -0.2,-0.36 -1.3,-0.63 -0.52,-0.76 0,-0.23 0.28,-0.3 1.81,-0.7 1.03,0.68 0.57,0.72 0.15,1.02 -0.97,1.38 -1.66,1.03 -0.5,0.45 0.32,0.26 1.55,-0.82 1.36,-0.38 1.11,0.01 0.9,1.63 0.13,2.26 -0.52,1.87 0.68,-0.93 0.85,-0.51 0.69,1.22 0.08,1 0.37,0.93 0.79,1.25 0.82,1.09 -0.9,1.14 -1.08,0.68 0.23,0.51 1.48,0.54 0.2,0.54 -0.16,0.73 0.21,0 1.03,-1.12 0.88,0.15 1.12,2.42 -0.82,1.38 -1.25,0.63 -0.99,0.27 -1.38,-0.04 -0.54,0.21 0.27,0.46 1.32,0.01 2.02,-0.35 1.51,-0.57 0.66,-0.03 0.69,0.23 0.23,0.19 -0.73,0.4 -0.05,0.14 0.27,0.4 0.57,1.31 -0.05,0.29 -0.54,0.76 0.87,0.17 1.21,-0.35 0.38,0.39 0.74,1.56 0.47,1.6 -2.05,2.18 -1.04,0.45 -1.54,1.15 -0.43,0.92 -0.89,1.18 0.57,-0.01 1.59,-1.89 0.78,-0.44 0.58,0.11 0.23,0.32 -0.11,0.53 0.51,-0.07 2.14,-1.1 0.9,-0.22 1.16,-0.07 0.13,0.38 -0.72,2.64 -1.23,2.02 -2.25,1.24 -0.8,0.73 -0.98,1.17 0.37,0.21 2.14,-1.54 1.46,-0.61 2.06,-0.49 0.91,0.07 1.62,3.08 0.93,0.3 0.75,-0.16 1.42,0.88 0.53,0.85 -0.13,0.61 -0.48,0.36 -0.24,0.57 0.57,1.69 -0.33,0.95 -1.04,0.83 -0.74,0.42 -0.78,0.13 -0.76,0.74 -0.35,0.11 -1.06,-0.19 0.36,0.45 0.52,0.23 0.84,0.12 0.98,-0.23 0.95,0.03 1.5,0.53 0.63,0.66 0.01,0.18 -0.32,0.37 -0.48,1.22 -0.35,0.44 0.29,0.33 0.75,0.51 0.56,0.19 0.74,-0.17 0.79,0.22 2.64,2.84 -0.11,1.46 -0.4,1.12 0.16,1.26 0.01,1.55 -1.43,0.43 -4.76,-0.72 -2.72,-1.11 -0.14,-0.34 0.77,-0.74 -0.68,-0.05 -0.79,0.29 -0.33,0.27 0.91,1.17 2.5,1.03 1.12,1.24 1.23,0.11 0.37,0.22 0.68,0.72 -0.2,0.25 -1.25,0.09 -0.99,0.83 0.62,0.49 2.22,0.43 1.59,0.11 0.8,0.48 -0.66,0.53 -1.87,0.63 -0.05,0.93 1.38,0.37 1.23,-0.22 0.51,0.09 0.36,2.25 0.21,0.46 -1.32,0.4 -0.01,0.43 0.88,0.35 1.46,0.29 0.48,0.4 0.1,0.67 0.3,0.35 0.84,0.06 0.92,-0.83 0.54,-0.7 0.79,0.26 0.06,0.87 0.95,0.99 0.34,0.16 0.27,1.4 0.77,-1.24 0.57,0.26 0.64,0.06 -0.22,1.2 -0.38,0.94 0.5,0.59 0.39,0.88 1.04,1.2 -0.28,0.58 -1.23,1.23 -0.65,1.94 -0.15,0.67 -0.63,1.11 -0.87,1.08 0.54,-0.11 1.93,-1.98 1.15,-0.67 2.53,-0.36 0.61,-0.56 0.93,-0.23 0.57,0.64 0.06,1.14 0.75,0.36 0.79,-0.38 0.72,0.34 -0.43,0.72 -2.29,2.93 -0.67,1.17 -0.19,0.83 0.79,-1.13 2.88,-2.63 0.31,-0.39 0.63,-1.13 0.58,-0.74 1.55,0.26 0.8,0.53 0.37,1.48 0.63,1.6 0.95,1.77 2.51,0.86 0.91,0.14 1.57,-0.6 0.25,-0.83 1.23,-0.25 0.86,0.1 0.3,1.59 0.92,0.84 0.91,0.7 0.88,0.36 1.29,0.16 0.7,0.76 0,0.32 -0.72,0.82 -0.7,1.19 -1.22,0.83 -1.7,0.04 -2.35,0.52 -0.09,0.47 -0.52,0.51 -1.25,0.51 -0.68,0.39 -1.1,1.91 -0.67,0.81 -0.77,0.16 -1.09,-0.08 -0.71,0.17 -0.52,0.35 -0.31,0.52 -0.24,0.19 -1.46,0.52 -2.65,1.44 -1.4,0.04 -0.87,-0.17 -0.66,0.12 -0.45,0.4 -1.26,0.7 -0.38,0.43 -0.22,0.49 -0.17,1.01 -0.15,0.36 -0.25,0.21 -1.06,-0.21 -1.18,-0.65 0.23,0.69 1.88,1.17 0.54,0.65 -0.51,0.56 -1.19,0.88 -0.14,0.47 0.49,0.25 -0.19,0.4 -0.65,0.42 0.07,0.17 0.07,0.17 1.62,-0.6 1.45,-1.29 0.94,-1.31 0.47,-0.37 1.86,-0.49 1.1,-0.57 1.58,-1.04 1.73,-1.51 1.88,-1.99 2.4,-1.56 2.92,-1.13 2.14,-0.58 1.36,-0.03 0.07,-0.19 -1.22,-0.35 -1.01,-0.07 -1.26,0.26 -0.39,-0.61 0.04,-0.27 0.41,-0.45 1.06,-0.41 5.17,0.57 1.78,0.43 1.95,3.63 0.45,1.16 0.13,0.85 -0.2,0.53 -0.78,0.63 -2.2,1.24 -0.31,0.33 -0.03,0.17 0.96,0.25 0.3,0.34 0.49,1.38 0.99,-0.89 1.88,-2.17 1.54,-1.01 1.29,-0.28 1.54,-0.13 0.53,0.02 0.19,0.71 0.81,1.42 0.75,0.37 1.43,0.19 1.29,1.75 0.49,1.21 0.47,0.7 -0.04,0.47 0.08,0.4 0.34,0.6 0.17,0.5 -0.09,1.15 -0.75,2 0.56,1.81 -0.25,0.82 -0.13,1.3 0.48,0.86 0.14,0.5 -0.41,0.29 -2.86,0.71 -1.12,0.01 -0.29,0.43 0.87,0.13 1.58,-0.02 1.9,0.44 0.84,0.49 0.36,0.68 -0.09,0.54 -0.55,0.4 -1.07,-0.08 -1.03,-0.36 0.06,0.35 1.53,0.88 0.45,0.45 0.83,0.56 0.16,0.75 -0.2,0.76 -2.89,3.03 -2.38,1.92 -2.38,1.68 -3.83,3.21 -0.38,0.16 -0.69,0.06 -0.04,-0.02 z m -41.63,-94.35 0.75,0.49 0.2,1.81 -1.42,-0.11 -1.62,-1.21 -0.32,-0.88 0.04,-0.15 0.21,-0.15 0.41,0.21 0.4,-0.32 0.4,-0.1 0.95,0.41 z m 6.72,24.76 0.11,0.39 -1.38,-0.28 -0.49,-0.25 -0.04,-0.26 0.07,-0.4 0.27,-0.47 0.63,-0.36 0.34,0.19 0.74,0.49 0.1,0.3 -0.35,0.65 z m 50.5,63.15 -0.43,0.01 -0.1,-0.16 0.18,-0.56 0.48,-0.64 0.65,-0.18 -0.17,0.95 -0.61,0.58 z m -0.88,5.1 -0.66,1.43 -0.46,0.69 -0.42,0.22 -0.9,0.2 -1.89,0.22 -0.81,0.21 -0.12,0.95 0.12,0.5 0.28,0.39 0.35,0.11 0.78,-0.24 0.29,0.04 0.23,0.2 0.18,0.36 0.09,0.5 0.01,0.63 -0.14,0.76 -0.64,1.79 -0.81,0.99 -1.04,0.8 -0.25,0.31 -0.13,0.36 -0.13,1.17 -0.54,0.93 -1.67,2.36 -0.64,0.52 0,0.41 -0.26,1.12 -0.5,0.9 -1.39,2.05 -0.34,0.72 -0.15,0.57 0.02,0.81 -0.06,0.36 -0.32,0.68 -0.44,0.64 -0.09,0.31 0.17,0.56 0.18,0.2 0.02,0.51 -0.14,0.83 0.59,-0.53 1.31,-1.88 0.98,-1.14 0.66,-0.38 0.46,-0.5 0.49,-1.11 0.67,-1.06 0.61,-0.35 0.28,0.2 0.24,0.52 -0.05,0.66 -0.33,0.8 0.03,0.24 0.77,-0.59 1.33,-0.49 0.48,0.06 0.97,0.73 0.81,-0.08 1.29,-0.42 0.24,0.19 -0.22,0.64 -0.51,0.62 -1.2,0.88 -2.89,1.72 -0.9,1.18 0.17,-0.04 0.62,-0.51 0.66,-0.27 0.69,-0.04 0.29,0.15 -0.11,0.33 -0.09,0.91 -1.75,1.77 0.41,-0.07 2.03,-0.8 1.23,1.11 1.69,-0.38 1.02,-0.38 -0.03,0.23 0.22,0.48 -0.01,0.78 0.1,0.11 0.48,-0.26 0.09,-0.29 -0.03,-1.39 0.15,-0.14 0.33,0.22 0.2,0.36 0.06,1.01 -0.22,1.01 -0.31,0.93 -0.75,1.35 0.09,0.58 -0.19,0.63 0.17,0.02 0.74,-0.59 0.04,-0.24 -0.06,-0.56 0.08,-0.28 0.61,-0.61 1.01,-0.72 0.33,-0.11 0.14,0.17 -0.05,0.45 0.3,-0.11 0.65,-0.66 0.6,-0.4 0.55,-0.14 0.58,-0.45 0.6,-0.77 0.64,-0.64 0.69,-0.5 0.3,-0.03 -0.1,0.83 0.14,0.95 0.02,0.81 0.14,0.17 0.53,-0.86 0.3,-0.32 0.35,-0.12 0.41,0.07 2.81,-0.31 0.85,0.21 0.96,0.56 1.21,0.87 0.45,0.79 0.08,0.99 -0.12,0.69 -0.88,0.87 -0.78,0.58 -0.46,0.57 -0.14,0.57 -0.18,0.35 -0.52,0.49 -2.31,1.38 0.55,0.04 1.33,-0.3 0.88,-0.06 0.04,0.2 -0.35,0.39 -0.67,0.39 -0.07,0.19 0.03,0.25 0.72,0.3 0.92,-0.15 0.77,0.21 -0.07,0.33 -0.61,1.07 -0.18,0.67 -0.81,0.56 -1.63,0.89 -0.42,0.34 0.09,0.07 1.5,-0.65 0.76,-0.17 0.48,0 0.54,-0.63 0.85,-0.21 0.83,0.4 1.26,-1.08 0.45,-0.14 0.77,0.13 0.5,-0.2 0.83,-0.74 0.63,-0.36 0.13,0.03 0.13,0.3 0.06,0.85 -0.15,0.75 -0.21,0.48 -0.68,1.06 -0.42,0.37 -0.39,0.14 -0.68,-0.06 -0.3,0.16 -0.64,0.83 -1.13,0.84 -0.7,0.32 0.44,0.45 0.17,0.88 -0.25,0.27 -1.21,0.27 -0.05,0.15 -0.43,0.19 -1,0.3 0.68,0.13 1.26,-0.21 0.13,0.15 -0.17,0.61 -0.33,0.63 -1.49,1.63 -0.02,0.16 0.23,0.79 0.29,0.6 0.36,0.42 0.83,0.02 0.61,-0.19 0.9,-1.08 1.98,-3.38 1.77,-0.94 1.47,-1.05 0.34,0.21 0.16,0.24 -0.05,0.25 -0.74,0.86 -0.39,0.71 -1.01,2.19 -0.39,1.03 -0.19,1.08 0.05,1.87 0.11,0.32 0.32,0.43 0.59,-0.37 1,-0.92 0.64,-0.88 0.5,-1.44 0.31,-0.55 0.34,0.01 0.3,0.32 0.07,0.69 0.28,0.95 0.17,0.96 -0.13,1.05 -0.14,0.58 -2.05,4.25 0.22,0.75 0.05,0.46 -0.06,0.48 -0.65,2.02 -0.63,1.26 -0.34,0.54 -0.4,0.33 -0.47,0.12 -0.42,-0.18 -0.37,-0.48 -0.33,-0.25 -0.28,-0.02 -0.53,0.09 -1.38,1.03 -0.28,0.05 -0.2,-0.14 -0.24,-0.54 0.19,-2.72 0.12,-0.9 -0.28,-0.7 0.29,-1.17 0.01,-0.44 -0.17,-0.17 -0.35,0.11 -0.53,0.59 -0.71,1.06 -0.77,0.95 -1.34,1.31 -0.6,0.26 -0.24,-0.06 -0.27,-0.18 -0.37,-0.55 0,-0.48 0.16,-0.66 0.56,-1.56 1.1,-2.31 0.91,-1.65 0.17,-0.7 -0.25,-0.31 -0.21,-0.61 -0.35,-1.79 -0.44,-1.48 -0.52,-0.66 -1.3,-0.72 -0.24,0.17 -0.14,1 -1.53,2.86 -0.27,1.24 -0.19,0.46 -0.29,0.31 -0.67,0.38 0.18,-0.66 0.71,-1.47 -0.1,-0.14 -0.9,1.18 -0.69,0.65 -0.84,0.17 -0.51,-0.04 -0.49,0.18 -2.1,2.78 -0.08,0.92 -0.36,0.76 -1.03,1.37 -0.54,0.47 -0.77,0.08 -0.7,-0.24 -0.46,0.04 -1.09,0.43 -1.22,0.19 -0.5,-0.09 -0.32,-0.17 -0.62,-0.53 -0.07,-0.38 0.03,-0.22 0.32,-0.57 0.72,-0.72 0.6,-0.27 1.45,-0.36 1.06,-0.54 0.81,-0.8 0.36,-0.49 1.53,-2.51 1.93,-0.89 0.95,-0.72 0.67,-0.92 0.1,-0.32 -0.95,0.47 -0.49,0.11 -0.8,-0.17 -0.35,-0.31 -1.09,0.1 -1.52,-0.15 -0.22,0.24 -0.2,1.23 -0.2,0.65 -0.23,0.22 -0.34,0.13 -0.69,0.13 -1.78,-0.44 -0.33,-0.24 -0.45,-0.18 -1.97,0.4 -0.41,-0.04 0.39,-0.29 1.94,-0.9 0.2,-2.6 -0.12,-0.42 -0.54,0.36 -0.91,0.38 -0.62,-0.11 -0.29,-0.23 -0.26,0.2 -0.63,1.37 -0.37,0.17 -0.56,0.05 -1.2,0.5 -2.36,0.33 -0.46,0.36 -1.6,-0.13 -4.67,-0.75 -1.67,0.08 -2.01,-0.46 -0.37,-0.2 -2.81,0.08 -0.84,-0.11 0.06,-0.57 -0.09,-0.15 -0.82,0.63 -0.72,0.41 -0.93,0.35 -2.94,0.61 -1.58,0.13 -0.92,-0.42 -0.36,-0.42 -0.55,-1.36 -0.37,-1.71 0,-0.31 0.19,-0.6 0.62,-0.83 2.79,-2.19 2.24,-2.22 0.95,-1.16 0.92,-0.41 1.5,-0.97 0.05,-0.11 -1.45,0.12 -1.02,-0.27 -1.04,-0.11 -1.98,0.25 -2,0 -0.01,-0.5 0.94,-0.94 1.99,-1.61 0.2,-0.01 -0.61,0.75 -0.17,0.56 0.26,0.37 0.3,0.24 1.14,0.1 0.26,-0.32 0.41,-1.72 0.86,-2 0.46,-1.45 0.81,-1.11 0.4,-0.17 0.36,0.21 1.19,0.27 1.22,1.01 0.4,0.09 0.13,-0.09 -0.45,-0.3 -0.37,-0.48 -0.15,-0.45 0.45,-1.4 0.52,-0.4 0.09,-0.28 -1.05,-0.01 -0.84,-0.39 -0.25,-0.64 0.05,-1.12 0.27,-0.67 0.67,-0.88 0.82,-0.59 0.49,0.15 0.94,0.79 0.58,-0.22 -0.07,-0.26 -0.88,-1.26 -0.28,-0.94 0.03,-0.45 1.92,-4.49 0.94,-2.42 1.28,-3.71 0.3,-0.59 0.65,-1.1 0.27,-0.3 0.83,0 0.52,-0.13 -0.76,-0.49 -0.27,-0.34 -0.03,-0.36 0.21,-0.38 0.29,-0.28 0.99,-0.6 0.7,-0.99 0.43,-1.17 -0.06,-0.4 -0.22,-0.4 0.01,-0.22 0.53,-0.24 1.36,-1.39 0.18,-0.27 0.5,-1.86 0.61,-0.83 0.57,-0.42 0.91,-0.53 2.78,-1.28 1.63,-1.15 1.11,0.06 0.33,0.8 1.57,0.53 0.28,-0.57 -0.37,-0.7 0.31,-0.28 1.3,-0.25 0.23,0.09 0.39,0.4 -0.11,0.5 z m -0.69,11.64 -0.3,0.16 -0.28,-0.01 -0.26,-0.17 -0.04,-0.27 0.26,-0.57 0.69,-0.29 0.52,0.07 -0.03,0.29 -0.28,0.48 -0.28,0.31 z m 12.93,13.63 0.66,0.9 0.35,0.24 -2.31,0.97 -0.28,0.06 -0.15,-0.12 -0.02,-0.9 0.1,-0.7 0.17,-0.1 0.53,0.42 0.55,-0.87 0.4,0.1 z m -4.13,2.15 -1.38,0.8 -0.31,0.32 -0.38,0.16 -0.29,-0.25 -0.4,-0.85 0.07,-0.28 0.38,-0.04 0.22,0.11 0.06,0.26 0.17,0.13 0.28,0 1.03,-0.83 0.53,-0.13 0.19,0.16 -0.17,0.44 z m 2.93,28.98 -0.44,0.46 -0.45,-0.02 0.05,-0.4 0.55,-0.78 0.28,-0.56 0.01,-0.34 0.1,-0.26 0.42,-0.29 0.36,-0.53 -0.17,0.98 -0.71,1.74 z" 
                fill="rgb(151, 144, 238)" 
                stroke="white" 
                stroke-width=".7px"
                title="Newfoundland and Labrador" 
                id="CA-NL" 
            />
        </svg>