<svg xmlns="http://www.w3.org/2000/svg" viewBox="41.08999999999968 253.19050999999976 308.9200000000004 513.990000000001" width="308.9200000000004" height="513.990000000001">
            <path 
                d="m 278.13,256.44051 0.01,16.42 -0.16,-0.05 -2.43,1.09 -1.12,0.14 -3.02,-0.7 -0.76,-0.51 -1.67,-2.01 -1.28,-0.83 -0.54,0.44 -0.64,1.76 -1.21,2.18 -0.74,0.56 -2.17,-0.36 -3.33,-3.68 -3.82,1.09 -3.96,2.15 -1.55,0.4 -0.45,-0.62 -0.62,-1.61 0.1,-0.81 1.18,-2.48 2.64,-2.61 1.93,-1.48 3.83,-2.16 4.53,-1.22 1.69,-1.29 1.07,-1.85 2.95,-2.94 1.74,-1.22 2.33,-1.05 1.88,0.05 2.4,2.4 1.19,0.8 z m 0.01,26.59 0,6.93 -1.76,1.03 -4.94,2.03 -1.03,0.98 0.08,0.58 0.4,0.73 0.83,0.92 3.83,-0.21 0.92,0.4 0.33,0.59 0.2,0.87 0.12,1.13 0.01,3.81 -0.2,2.2 -0.53,1.98 -1.55,1.4 -2.79,1.85 -1.89,0.82 -1.49,-0.3 -1.49,0.19 -6.51,3.46 -2.01,0.02 -1.76,-0.83 -2.43,-3.27 -2.53,-1.29 -1.08,-1.48 -1.06,-0.81 -0.29,-1.19 -0.1,-0.89 0.18,-0.82 0.46,-0.74 0.15,-0.63 -0.42,-1.84 -0.19,-1.76 -0.73,-2.54 -0.11,-1.47 0,-0.96 0.12,-1.04 0.49,-1.86 0.25,-0.38 1.48,-0.29 1.95,-0.96 4.48,-2.8 9.84,-3.52 2.99,0.33 1.31,-0.69 2.41,-0.29 4.06,0.61 z m -34.33,14.35 -2.45,1.43 -1.63,-0.03 -2.88,-2.02 -3.34,-6.22 -0.44,-2.23 1.25,-0.4 0.91,-0.69 0.56,-0.98 1.07,-1.07 2.48,-1.61 0.3,0.62 -0.05,1.32 0.21,1.23 0.89,0.26 0.84,0.87 1.7,2.68 1.16,0.51 0.42,0.58 0.22,0.89 0.71,1.56 -0.01,0.8 -0.95,1.6 -0.97,0.9 z m -15.41,16.28 0.68,1.59 0.05,0.64 -0.33,0.67 -1.05,1.07 -5.29,3.55 -1.04,1.66 0.39,1.42 1.91,2.87 1.94,2.42 0.42,1.2 -0.92,1.22 -1.76,-0.39 -0.66,0.1 -0.62,0.56 0.17,1.07 1.95,3.53 0.64,1.89 -0.02,0.97 -0.35,0.95 -0.82,1.3 -1.29,1.64 -2.22,1.31 -4.77,1.75 -0.16,1.36 0.03,1.04 -0.12,2.51 -0.16,1.16 -0.57,1.94 -0.41,0.91 -0.71,0.62 -1.02,0.34 -1.3,0 -2.15,-1.67 -0.98,-1.07 -1.36,-2.32 -0.24,-1.55 0.13,-1.92 0.36,-2.98 0.59,-3.06 0.82,-3.15 0.24,-1.97 -0.34,-0.78 -0.56,-0.04 -1.75,1.28 -1.13,0.47 -0.88,0.93 -0.62,1.39 -0.35,1.5 -0.2,2.88 -0.33,1.57 -0.95,0.85 -1.42,-0.02 -0.54,0.48 -0.26,1.04 0.19,0.84 1.4,1.77 0.17,1.97 -0.17,1.19 -1.51,2.18 -0.35,0.73 -0.94,3.39 -0.35,0.85 -0.78,0.78 -0.78,-0.09 -0.7,-1.2 -1.06,-2.34 -0.72,-2.02 -0.37,-1.7 -0.31,-0.76 -0.51,0.52 -0.61,1.77 -0.02,1.36 0.13,2.02 -0.03,1.24 -0.9,1.46 0.13,0.66 1.57,1.78 0.2,0.8 0.01,1.24 -0.1,0.56 -0.63,-0.09 -0.53,1.42 -0.61,1.13 -1.6,2.08 -2.22,0.25 -1.84,1 -0.39,-0.03 -0.44,-1.63 -0.5,-3.25 -0.44,-1.85 -0.66,-0.95 -0.82,-3.73 -0.38,-1.21 -0.38,-0.49 -0.31,-0.13 -0.46,0.72 -1.07,5.34 -1.74,1.36 -0.96,0.25 -0.97,-0.15 -2.39,-1.45 -1.92,-0.54 -1.34,0.62 -2.2,2.16 -0.88,0.57 -1.19,-0.25 -0.52,-0.82 -0.44,-1.34 -0.05,-0.81 0.35,-0.29 0.55,-1.56 -0.02,-0.63 -0.54,-0.9 -0.01,-0.7 0.19,-0.48 -0.04,-0.34 -0.28,-0.2 -0.54,0.19 -1.96,1.04 0.22,-1.13 0.94,-2.36 2.28,-4.74 0.86,-1.4 0.52,-0.43 6.74,-1.53 0.47,-0.46 3.2,-6.49 0.91,-1.5 0.94,-1.19 4.59,-3.98 0.43,-0.91 0.72,-2.78 0.42,-0.7 0.99,-1.06 3.31,-5.68 3.02,-4.14 1.53,-2.58 2.1,-2.62 2.42,-1.13 7.3,-1.99 5.26,2.61 1.25,0.16 0.61,-0.74 0.55,-1.2 0.79,0.51 1.95,0.37 0.43,-0.29 0.82,-1.37 -0.56,-0.75 -2.36,-1.38 -0.14,-0.7 0.05,-0.67 0.83,-1.6 1,-1.04 2.9,-0.78 1.33,0.2 1.38,1.11 1.8,2.29 4.12,4.03 z m 17.85,24.8 -1.36,1.28 -9.31,-1.89 -0.51,-0.59 -0.24,-0.81 1.69,-2.21 2.04,-0.96 4.74,-0.77 1.65,0.87 1.09,1.01 0.62,0.88 0.26,1.64 -0.67,1.55 z m 31.9,45.08 0,3.88 0,19 -0.01,1.25 -1.55,0.38 -1.89,0.89 -1.4,1.15 -0.73,0.94 -1.12,2.21 -1.72,1.66 -3.11,1.81 -3.96,2.8 -7.09,2.85 -4.46,0.5 -4.46,-0.94 -1.41,-0.77 -1.48,-1.2 -3.03,-2.85 -0.84,-1.03 -0.97,-2.25 0.58,-1.5 1.62,-1.74 2.42,-1.58 4.83,-2.15 4.38,-3.46 1.55,-0.65 4.21,-0.53 2.13,0.33 1.54,-0.18 1.01,-0.48 1.5,-1.26 2.2,-2.51 1.61,-2.36 0.41,-1.11 -0.54,-1.04 -0.79,-0.15 -2.62,2.44 -1.32,0.82 -1.43,0.06 -1.97,0.83 -1.92,0.33 -0.37,-0.03 -2,-2.32 -1.07,-0.41 -0.5,0.24 -0.45,0.62 -0.87,1.71 -0.5,0.62 -0.86,0.45 -3.48,0.51 -3.34,0.86 -0.74,-0.53 -0.45,-0.99 -0.09,-0.6 -0.05,-2.04 -0.23,-0.81 0.29,-1.7 0.38,-1.3 0.47,-0.9 2.29,-2.66 0.32,-0.69 -1.09,0.14 -2.6,1.3 -0.34,-0.45 -0.61,-1.49 -0.29,-0.15 -0.33,0.62 -0.19,0.87 -0.45,3.58 -0.39,1.82 -1.04,-0.37 -1.29,-1.1 -0.48,-0.15 -0.28,0.35 0.09,0.62 1.31,3.04 0.01,1.06 -0.86,1.85 -3.65,3.06 -1.44,0.82 -0.51,-0.32 -0.46,-0.84 -0.41,-1.36 -0.95,-1.84 -0.56,-0.41 -0.63,-0.06 -0.58,0.38 -0.53,0.82 -0.33,0.86 -0.31,1.61 -0.67,1.23 -0.41,0.21 -3.71,-2.54 -2.99,-4.54 -3.27,0.71 -1.47,-0.16 -4.46,-1.67 -0.57,-1.04 -0.31,-1.35 0.03,-0.73 0.19,-0.76 0.56,-1.51 1.12,-2.3 0.47,-0.74 0.7,-0.61 0.93,-0.48 2.36,-0.27 6.08,-0.09 1.22,-0.36 6.65,-4.49 0.76,-0.74 0.98,-1.45 0.22,-0.6 -0.04,-0.39 -8.18,3.58 -3.51,0.77 -5.37,-0.58 -1.01,-0.56 -0.23,-1 1.12,-2.66 0.59,-0.99 1.53,-0.94 3.7,-1.34 4.94,-1.19 3.24,-0.03 2.72,-0.94 1.63,-1.08 -5.47,0.06 -6.59,0.51 -0.95,-0.35 -1.88,-1.42 -0.09,-1.04 0.75,-1.26 0.28,-0.94 -0.54,-2.11 0.17,-0.82 1.23,-1.77 2.19,-1.92 1.35,-0.27 2.61,0.66 7.43,0.68 1.44,-0.24 -0.91,-0.84 -1.29,-0.62 -5.74,-1.07 -1.19,-0.48 -0.23,-0.66 -0.09,-0.97 0.06,-1.29 0.42,-1.32 1.78,-2.77 5.22,-2.3 2.08,-0.32 2.08,0.15 2.11,1.03 0.94,0.89 0.47,1.1 0.23,1.02 0.03,1.77 0.1,0.69 0.38,1.15 1.22,2.7 0.89,0.84 4.13,-1.57 1.72,-0.35 1.73,0.49 2.52,1.62 3.26,4.85 4.2,4.91 -0.02,1.05 -1.61,1.63 -0.3,0.7 0.22,0.48 1.61,0.32 1.51,-0.24 1.44,0.36 0.32,0.42 0.53,1.77 0.73,3.11 0.87,2.31 1.01,1.52 0.99,0.78 1.46,0.06 1.47,-0.45 2.39,0.15 4.06,0.56 0,0 z m 0,-25.93 -1.78,-1.71 -0.42,-0.64 -0.34,-1.01 -0.27,-1.38 0.04,-1.07 0.35,-0.75 2.39,-2.4 0.03,8.96 z m -74.64,24.47 -2.56,2.31 -1.82,-0.24 -2.42,-1.7 -1.97,-0.58 -0.69,-0.56 -0.1,-0.59 0.67,-1.63 0.84,-1.31 2,-2.58 3.38,-5.01 2.21,-1.9 2.17,-1.35 2.22,-3.03 1.23,-1.36 1.06,-0.1 1.09,0.58 0.12,0.83 -1.14,4.13 -0.8,1.65 -1.57,4.24 -3.01,7.05 -0.91,1.15 z m -24.63,-5.99 -0.7,0.17 -0.78,-0.41 0.18,-0.93 1.75,-2.56 0.1,-0.73 -0.02,-0.6 -0.22,-0.7 0.44,-0.9 0.71,-0.37 0.23,0.35 0.08,0.78 -0.16,2.28 -0.22,1.1 -0.3,0.94 -0.46,0.84 -0.63,0.74 z m 12.01,56.32 0.07,0.14 2.31,-3.04 1.4,-0.17 0.98,0.27 0.31,0.39 0.2,0.6 0.1,1.32 0.06,3.26 0.13,0.4 0.32,-0.18 0.51,-0.77 2.52,-4.83 1.06,-1.33 0.73,-0.4 3.09,-0.73 2.1,0.02 2.32,0.45 1.73,0.68 2.83,1.99 2.23,2.29 2.04,2.42 6.85,9.01 2.9,2.63 1.11,1.49 0.49,1.08 0.43,1.35 0.13,1.26 -0.17,1.17 -0.32,0.82 -0.7,0.69 -4.19,2.93 -2.21,0.89 -2.19,1.29 -5.23,4.52 -3.58,2.14 -4.65,4.15 -8.77,6.6 -1.04,1.32 -0.48,0.94 -2.48,7.4 -0.94,1.7 -2.28,1.73 -2.89,0.43 -0.81,0.48 -0.13,2.51 -1.04,4.15 -0.5,2.78 -0.69,7.36 -0.16,0.73 -0.53,1.35 -0.89,1.46 -2.79,1.68 -2.06,0.88 -2.8,0.73 -0.67,-0.5 -0.68,-1.15 -0.7,-0.1 -0.44,0.18 -3.65,5.01 -3.52,2.01 -1.53,1.81 -1.08,0.85 -0.87,0.26 -1.43,-0.16 -1.03,-0.82 -0.93,-1.27 -0.7,-1.38 -1.81,-5.72 -0.78,-1.97 -0.66,-0.99 -1.77,-3.53 -0.49,-0.71 -6.74,-4.51 -3.28,-2.55 -0.79,-0.9 -0.74,-0.53 -4.22,0.35 -0.56,-0.14 -0.15,-0.38 0.5,-1.34 0.2,-0.85 0.06,-0.83 -0.07,-1.35 0.05,-0.24 1.6,-1.33 -0.26,-0.28 -0.19,-0.52 -0.12,-0.77 0.17,-0.54 0.46,-0.31 0.57,-1.25 0.67,-2.2 0.5,-1.24 0.69,-0.8 1.23,-2.14 0.88,-0.87 0.74,-1.09 0.02,-0.49 -0.3,-0.38 -0.1,-0.83 0.14,-2.61 -0.01,-1.35 0.13,-1.13 0.28,-0.91 0.35,-0.6 3.12,-1.91 0.16,-0.56 0.04,-0.64 -0.08,-0.72 -0.16,-0.51 -0.49,-0.42 -0.83,-0.12 -0.72,-1.11 -0.17,-0.54 0.29,-1.52 1.41,-2.44 0.47,-1.21 1.52,-5.48 2.78,-3.42 0.75,-3.71 2.09,-3.96 0,-0.55 -0.67,-1.36 -1.93,-0.94 -0.93,-1.46 -0.62,-1.66 -2.82,-9.64 -0.48,-0.72 -0.14,-1.13 -0.58,-0.75 0.12,-0.7 11.01,-2.93 7.58,-0.94 7.85,-2.57 2.19,-0.15 1.69,0.51 1.67,1.33 2.21,2.32 2.93,2.26 5.48,3.29 3.42,0.69 -1.37,2.6 -0.19,0.78 0,0.65 z m 87.26,35.78 0.01,8.08 0,16.13 0,15.66 0,15.22 0,14.8 0,14.41 -2.8,0 -2.8,0 -2.8,0 -2.8,0 -2.8,0 -2.8,0 -2.8,0 -2.8,0 0,2.34 -1.35,2.01 -1.01,0.01 -1.01,0.01 -0.03,-2.04 -0.03,-2.34 -4.89,0 -4.73,0 -4.73,0 -4.73,0 -4.73,0 -4.73,0 -4.73,0 -4.12,0 -0.18,2.96 1.14,1.68 1.14,1.67 1.14,1.67 0.39,1.18 -1.84,0 -1.23,-1.8 -1,-2.2 -0.16,-0.56 -0.24,-1.62 -0.32,-2.69 -0.1,-1.65 0.29,-1.01 0.24,-0.2 5.21,-1.97 9.19,-2.17 8.4,-1.47 3.81,0.13 2.25,0.69 2.25,0.32 4.08,0.15 5.14,1.02 1.03,-0.09 2.3,-0.69 0.68,-0.56 3.64,0.07 0.71,-0.34 0.65,-0.61 -0.84,-1.15 -3.48,-2.53 -9.25,-4.56 -2.25,-0.97 -3.23,-1.04 -1.87,-0.15 -2.39,0.59 -0.89,-0.03 -2.34,0.89 -2.22,0.56 -4.22,0.55 -6.09,0.4 -0.85,-0.12 -1.25,-0.69 -0.91,-0.2 -5.96,0.54 -5.33,-0.7 -6.07,-7.03 -1.01,-2.18 0.22,-0.89 0.75,-0.96 3.01,-2.76 1.07,-0.66 4.48,-1.49 4.47,-1.81 3.53,-1.71 1.73,-0.59 1.67,-0.07 1.35,-0.56 -0.27,-0.54 -1.1,-0.62 0.01,-0.88 0.57,-0.42 2.21,-0.45 2.35,0.54 1.17,-0.19 0.34,-0.6 -0.31,-0.48 -2.23,-1 -10.7,2.89 -4.99,0.27 -3.46,1.23 -1.9,-0.04 -2.26,-1.23 -0.3,-0.37 -0.04,-0.51 0.7,-1.65 2.42,-0.99 1.22,-2.8 -1.3,-0.05 -4.34,0.6 -1.9,-0.26 -2.56,-1.08 -0.75,-1.28 -0.32,-0.93 -0.05,-1.11 0.09,-3.17 0.22,-1.71 0.14,-0.39 3.18,-5.3 1.98,-1.11 1.39,-1.68 0.05,-0.71 -0.34,-0.71 -1.3,-1.73 -0.52,-0.88 -0.29,-0.84 0.22,-1.33 0.74,-1.83 2.16,-2.96 5.21,-5.98 2.65,-2.53 2.55,-1.37 3.57,-2.93 9.15,-4.9 8.19,-4.96 3.01,1.31 0.86,1.03 0.38,0.87 0.33,1.22 0.28,1.56 0.39,3.37 0.05,1.73 -0.07,1.73 -0.19,1.56 -0.31,1.39 -0.61,1.7 -0.92,2 -1.95,3.41 -0.21,0.99 0.57,0.38 1.04,-0.31 1.51,-1 1.94,-0.82 2.38,-0.64 0.63,0.78 0.4,-0.16 0.7,-1.27 0.12,-0.84 -0.09,-0.95 0.04,-2.07 0.37,-1.25 1.41,-2.64 0.76,-0.95 1.21,-0.44 2.87,0.28 2.69,1.51 3.64,1.48 5.31,3.71 1.66,1.58 0.17,1.36 -0.94,2.89 -2.29,4.07 -1.84,1.46 -0.71,0.89 1.2,0.62 0.78,1.04 1.18,-1.5 0.86,-1.68 1.22,-1.4 0.42,-0.12 0.1,0.3 -0.21,0.72 -0.09,0.7 0.03,0.69 0.14,0.42 0.75,0.21 0.4,-0.26 1.62,-1.97 1.59,-3.03 2.41,-1.97 0.66,-1.01 2.1,-0.84 -0.02,-0.59 0.1,-2.35 -0.73,-1 -2.46,-2.11 -1.22,-2.53 0.26,-1.95 1.36,0.28 3.72,0.21 0.77,0.26 -0.01,0.03 z m -95.74,95.56 0.02,8.39 0,5.17 0,5.13 0,5.08 0,5.03 0,4.99 0,4.94 2.29,1.87 2.29,1.86 2.29,1.85 2.29,1.85 2.29,1.84 2.29,1.83 2.29,1.83 2.29,1.82 2.29,1.82 2.29,1.81 2.29,1.8 2.29,1.8 2.29,1.79 2.29,1.79 2.29,1.78 2.29,1.78 2.29,1.77 2.29,1.76 2.29,1.76 2.29,1.75 2.29,1.75 2.29,1.74 2.29,1.74 2.29,1.73 2.29,1.73 2.29,1.72 2.29,1.72 2.29,1.71 2.29,1.71 2.29,1.7 2.29,1.7 2.29,1.69 4.11,0.03 4.11,0.03 4.11,0.03 4.11,0.03 2.58,3.2 2.58,3.18 2.58,3.16 2.58,3.14 2.7,1.89 2.17,0.71 3.91,0.72 3.91,0.72 3.91,0.72 3.91,0.72 3.91,0.72 3.91,0.72 3.91,0.72 3.91,0.72 3.91,0.71 3.91,0.71 3.91,0.71 3.91,0.71 3.91,0.71 3.91,0.71 3.91,0.71 3.91,0.71 0.11,3.04 -0.17,4.71 0,4.87 0,4.82 0,4.78 0,4.74 0,4.71 0,4.67 0,4.63 0,4.59 0,4.56 0,4.52 0,4.49 0,4.45 0,4.42 0,4.39 0,4.35 0,4.32 -4.48,0 -4.48,0 -4.48,0 -4.48,0 -4.48,0 -4.48,0 -4.48,0 -4.48,0 -4.48,0 -4.48,0 -4.48,0 -4.48,0 -4.48,0 -4.48,0 -4.48,0 -4.48,0 -5.6,0 -5.6,0 -5.6,0 -5.6,0 -5.6,0 -5.6,0 -5.6,0 -5.6,0 -5.6,0 -5.6,0 -5.6,0 -5.6,0 -5.6,0 -5.6,0 -5.6,0 -5.6,0 -4.28,0 -4.28,0 -4.28,0 -4.28,0 -4.28,0 -4.28,0 -4.28,0 -4.28,0 -0.21,-0.34 -0.34,-0.35 -1.02,-0.01 -0.15,-0.1 -0.02,-0.25 0.19,-0.7 -0.05,-0.49 -0.95,-1.78 -0.73,-1.73 -0.18,-0.58 -0.19,-1.81 -0.21,-0.38 -1.38,-0.38 -0.59,-1.33 -1.17,-1.73 -0.11,-0.37 0,-0.35 0.95,-1.6 -0.01,-0.62 -0.68,-2.4 -0.3,-0.14 -1.71,-0.01 -0.28,0.24 -0.2,0.44 -0.19,1.17 -2.43,0.29 -0.7,0.33 -0.83,0.62 -0.5,0.01 -2.94,-0.9 -1.41,-0.91 -0.32,0 -0.29,0.14 -0.23,0.32 -0.41,1.03 -0.55,-0.13 -0.31,-0.24 -0.14,-0.63 -0.42,-0.05 -0.55,0.18 -0.11,0.23 0,0.64 -0.18,0.28 -0.38,0.17 -0.48,0.07 -1.52,-0.36 -1.3,0.7 -0.92,-0.23 -0.58,0.2 -0.24,-0.1 -0.27,-0.48 0.01,-0.69 -0.21,-0.49 -0.06,-0.45 0.09,-1.21 -0.32,-1.89 -0.18,-0.2 -0.81,0.23 -0.34,-0.36 -0.03,-0.2 0.13,-0.23 0.5,-0.61 0.11,-1.32 -0.06,-0.72 -0.46,-2.48 -0.39,-0.64 -0.45,-1.13 -0.56,-0.56 -0.63,-0.33 -1.51,0.03 -1.26,-0.42 -0.43,-0.36 -0.51,-0.68 -0.84,-0.58 -1.67,-1.74 -0.23,-1.29 -0.24,-0.64 -0.42,-0.53 -1.01,-0.46 -0.23,-0.35 -0.24,-0.84 -0.97,-1.2 -0.3,-0.82 -1.44,-1.59 -0.49,-0.1 -0.56,0.19 -0.87,0.83 -0.34,0.1 -0.24,-0.17 -0.35,-0.73 -0.25,-0.15 -0.95,-0.24 -1.1,0.12 -0.65,-0.2 -0.41,-0.33 -0.13,-0.26 0.07,-0.33 0.2,-0.35 0.06,-0.34 -0.1,-0.32 -0.44,-1.11 0.02,-0.54 0.46,-0.98 -0.09,-0.3 -0.4,-0.44 -0.02,-0.27 0.08,-0.31 0.79,-0.56 0.09,-0.39 -0.19,-0.45 -2.13,-1.29 -0.37,-0.36 -0.04,-0.4 -0.27,-1.06 -0.17,-0.28 -0.68,-0.47 -0.15,-0.31 -0.06,-0.55 -0.14,-0.39 -0.54,-1.08 -0.09,-0.65 0.13,-0.59 0,-0.7 0.86,-2.1 0.05,-0.42 -0.16,-0.19 -0.94,-0.04 -0.83,-0.43 -0.38,-1.29 -0.32,-0.61 -0.65,-0.56 -0.73,-0.9 -0.66,-0.3 -0.06,-0.34 0.34,-0.51 1.37,-1.14 0.39,-0.6 0.54,-1.6 -0.09,-0.72 -0.29,-0.67 -0.52,-0.63 -0.27,-0.59 -0.78,-0.4 -0.17,-0.29 -0.14,-0.58 -0.12,-0.32 -0.28,-0.05 -0.91,0.39 -0.37,-0.15 -0.16,-0.36 0.04,-0.35 0.35,-0.33 1.03,-0.5 0.22,-0.23 0.03,-0.41 -0.19,-0.29 -1.28,-0.3 -0.73,-0.56 -1.34,-1.42 -1.32,-0.62 -0.87,-0.87 -0.31,-0.77 -0.49,-0.37 -0.23,-0.65 -0.52,-0.92 -0.1,-0.31 0.25,-0.56 0,-0.51 -0.16,-0.55 -0.46,-0.83 -0.27,-0.28 -0.13,-0.52 0.04,-0.54 -0.76,-1.58 -1.42,-0.96 -0.84,-0.24 -0.36,0.15 -0.45,0.74 -0.57,0.47 -0.66,0.27 -1.59,0 -0.3,-0.15 -0.05,-0.39 0.11,-0.4 0.54,-1.31 0.13,-0.54 -0.12,-0.39 -0.21,-0.23 -1.26,-0.67 -1.43,-2.24 -0.48,-0.38 -1.92,-1.27 -0.73,-0.31 -1.36,-0.06 -0.31,-0.29 -0.1,-0.3 -0.01,-0.37 0.15,-0.33 0.71,-0.88 0.07,-0.61 0,-0.95 0.14,-0.27 0.9,-1.09 0.24,-0.36 0.01,-0.4 -0.26,-0.38 -1.21,-0.41 -0.2,-0.32 -0.02,-1.3 -0.35,-0.31 -0.27,0.07 -0.88,0.3 -0.39,-0.13 -0.15,-0.25 -0.05,-0.4 0.1,-0.46 1.48,-1.18 0.27,-0.43 0.22,-0.87 1.76,-2.21 0.7,-2.04 0.65,-1.3 -0.01,-0.65 -0.89,-1.92 -0.74,-1.1 -1,-1.16 -0.4,-0.31 -0.19,-0.51 0.14,-0.64 1.78,-1.52 -0.02,-0.52 -0.25,-0.32 -1.01,0.1 -0.84,-0.77 -0.33,-0.12 -0.89,0.69 -0.47,0.58 -0.49,0.95 -0.73,0.32 -0.41,-0.07 -0.18,-0.37 0.25,-0.94 0.21,-0.55 -0.01,-0.35 -0.18,-0.25 -0.93,0.02 -1.68,0.47 -1.64,1.1 -0.79,0.01 -0.8,-0.16 -0.29,-0.26 -0.02,-0.79 -0.19,-0.86 -0.27,-0.54 -0.01,-0.48 0.16,-0.35 0.59,-0.85 0.22,-0.59 0.02,-0.71 -0.04,-0.9 -0.11,-0.81 -0.26,-0.23 -0.35,-0.11 -0.97,-0.07 -0.27,-0.02 -0.09,-0.47 0.09,-0.5 0.27,-1.52 0.18,-0.53 0.3,-0.1 0.28,-0.03 0.18,-0.16 0.02,-0.44 -0.06,-0.83 0.08,-0.61 0.13,-0.66 -0.15,-0.46 -0.66,-1.02 -0.34,-0.44 -0.04,-0.42 -0.02,-0.34 -0.25,-0.61 -0.06,-0.5 0.07,-0.43 0.13,-0.75 -0.1,-0.75 -0.48,-0.98 -0.68,-0.94 -0.96,-0.94 -0.2,-0.66 -0.02,-0.73 -0.56,0 -2.57,0 -2.57,0 -2.63,0 -2.57,0 -2.57,0 -2.57,0 -2.57,0 -0.39,-0.24 -0.23,-0.48 -0.26,-1.2 -0.01,-1.07 0.03,-0.65 0.02,-0.42 0.61,-1.04 0.38,-1.42 0.02,-0.39 -0.21,-1.16 -0.11,-0.49 -0.16,-0.43 -0.17,-0.67 0,-0.64 0.08,-1.5 -0.35,-1.47 -0.23,-0.55 -0.28,-0.37 -1.22,-1.17 -0.3,-0.86 -0.1,-1.04 0,-6.93 0,-7.02 0,-7.11 0.01,-6.8 2.88,0.32 2.29,1.23 4.52,3.37 0.93,0.3 0.25,-0.25 -1.58,-3.33 -0.25,-0.32 -1.82,-1.25 -2.14,-0.62 -0.16,-0.24 -0.4,-1.18 0.13,-0.46 0.47,-0.21 1.59,0.01 0.94,-0.19 0.13,-0.47 -0.68,-0.11 -0.82,-0.45 -0.96,-0.8 -0.54,-0.75 1.96,-5.04 0.69,0.51 1.03,-1.17 1.85,0.74 0.34,-0.41 0.23,-2.58 0.28,-0.62 0.52,-0.46 2.58,-0.46 3.22,0.46 0.33,-0.25 -0.31,-1.73 -0.04,-0.68 0.19,-1.56 0.2,-0.84 0.38,-0.42 1.5,0.33 0.47,0.77 0.5,1.32 0.51,0.75 1.59,0.76 0.18,0.53 -0.61,2 -0.64,1.04 -1.31,2.74 -0.08,0.7 2.03,-1.23 2.28,-1.7 1.96,-0.94 1.63,-0.17 1.17,-0.55 0.71,-0.94 0.5,-0.96 1.01,-3.11 0.67,-0.54 2.81,0.19 0.67,-0.09 0.43,-0.3 -0.08,-0.4 -0.57,-0.49 -0.8,-0.14 -0.02,-0.22 0.3,-0.51 0.44,-0.3 1.39,-0.36 0.91,1.13 0.62,0.08 2.06,-1.25 3.16,-3.34 1.26,-0.93 1.07,-0.16 0.92,0.61 0.71,-0.16 0.94,-1.9 0.37,-1.01 0.58,-0.88 2.34,-1.98 1.5,-0.43 0.91,0.37 1.09,0.82 0.9,0.32 1.18,-0.24 0.88,0.11 0.42,-0.4 1.51,-2.27 0.49,-0.02 0.47,0.67 0.76,1.65 0,0.82 -0.99,2 -7.27,5.67 -2.24,2.43 -1.11,0.89 -1.15,0.5 -2.22,0.42 -0.88,0.49 -1.49,0.44 -3.49,0.77 -0.67,0.38 -0.46,0.44 -1.25,2.94 -0.61,0.96 -1.2,1.44 -1.35,0.88 -1.84,0.34 -1.17,1.37 -1.35,2.63 -1.09,1.82 -1.24,1.54 -1.35,2.01 -0.35,1.05 0.4,1.38 0.22,0.46 1.36,0.74 0.53,-0.17 -0.49,-0.74 -1.14,-1.07 -0.15,-0.38 0.29,-0.3 5.36,0.81 1.15,-0.82 0.4,-0.69 -0.09,-0.36 -1.45,-0.15 -0.31,-0.66 -0.23,-1.25 -0.05,-0.99 0.13,-0.74 0.33,-0.94 1.56,-1.54 1.68,-0.66 1.29,-0.88 0.71,-0.83 1.92,-1.42 0.77,-1.15 0.42,-0.9 0.05,-0.45 -0.35,-0.33 0.28,-0.77 1.4,-0.69 0.62,-0.06 1.97,0.66 0.36,0.52 -0.19,1.37 0.28,-0.06 0.76,-1.74 0.42,-0.58 0.44,-0.12 0.44,0.22 0.45,0.56 0.24,1.68 0.04,2.78 0.1,1.12 0.5,-1.92 0.35,-0.89 1.92,-4.11 1.3,-2.26 1.46,-2.22 2.12,-1.66 4.89,-2.76 2.75,-0.75 1.4,-0.69 0.68,-0.6 0.44,-0.74 0.77,-0.85 0.14,0.07 -0.3,1.79 -0.2,0.52 -1.79,1.1 -0.18,0.84 0.19,1.3 0.31,0.85 0.42,0.41 0.74,-0.29 1.06,-1 1.32,-1.53 2.86,-3.91 0.25,-0.72 0.72,-3.16 1.64,-1.4 2.97,-1.6 0.73,-1.02 -2.6,-0.86 -0.54,-0.6 -0.08,-0.36 0.49,-0.92 -1.19,-0.91 -0.44,-0.56 0.02,-1.64 0.37,-1.18 0.78,-1.14 0.44,-0.2 1.16,0.67 0.98,0.86 3.37,3.97 1.35,1.93 0.78,1.51 1.9,4.69 0.84,2.69 0.67,2.76 0.66,1.98 0.65,1.21 3.24,4.76 1.67,2 1.4,1.24 1.61,0.98 1.82,0.72 1.24,0.06 1.93,-2 0.04,-1.32 -0.85,-2.21 -0.85,-1.54 0.1,-0.94 1.13,-1.81 -0.08,-0.63 0.24,-1.87 0.78,0.36 0.31,-0.07 0.44,-0.69 0.56,-1.3 0.71,-1.08 0.86,-0.86 0.23,-0.56 -0.85,-0.41 -0.51,0 -0.38,-0.18 -0.25,-0.37 0.34,-0.4 1.86,-1.01 0.35,-0.97 0.6,-0.64 0.76,-0.26 0.47,0.27 0.52,0.8 0.03,1.28 -0.23,2.08 -0.04,1.67 0.58,3.93 0.52,0.85 2.01,1.15 -0.12,0.95 -2.33,4.09 -0.5,1 -0.25,0.76 0.08,0.64 0.41,0.53 0.79,0.37 2.03,0.15 0.56,-0.35 3.95,-0.12 0.72,-0.3 0.61,-0.78 0.89,-1.96 1.01,-0.6 0.32,-0.55 0.62,-2.34 0.31,-2.73 0.3,-1.15 0.46,-0.71 0.62,-0.23 1.54,0.27 0.72,-0.23 2.84,0.23 2.85,-0.2 2.94,0.49 1.89,0.56 1.75,0.89 3.35,2.09 1.32,1.12 1.18,1.28 z" 
                fill="rgb(151, 144, 238)" 
                stroke="white" 
                stroke-width=".7px"
                title="Northwest Territories" 
                id="CA-NT" 
            />
        </svg>