<svg xmlns="http://www.w3.org/2000/svg" viewBox="669.6999999999999 964.5605100000002 59.139999999999986 44.3699899999998" width="59.139999999999986" height="44.3699899999998">
            <path 
                d="m 716.49,978.34051 0.3,0.1 1.21,-0.62 0.64,0.03 -0.03,0.45 -1.04,0.49 -0.48,0.37 0.6,0.34 -0.01,0.23 -0.72,0.55 -0.36,0.6 0.3,0.58 1.15,-0.57 0.47,0 0.64,0.13 0.61,-0.17 0.35,-0.28 2.03,-2.22 0.11,-0.29 -2.19,0.46 -0.25,-0.3 1.43,-1.35 -0.11,-0.71 0.72,-1.12 0.66,-0.67 0.49,-0.37 0.7,-0.35 0.49,0.53 0.16,0.96 1.2,-0.13 1.18,0.19 0.86,0.41 0.13,0.23 0.01,0.37 -0.29,0.66 -0.48,0.54 0.95,0.7 -0.13,0.3 -1.56,0.79 -0.88,0.79 -0.81,0.97 -1.62,1.13 -2.57,0.82 -0.81,0 -0.97,-0.25 -0.96,0.06 -0.94,0.3 -0.92,-0.03 -0.45,0.16 -0.42,-0.02 -0.36,-0.31 -0.76,-0.9 -0.37,-0.6 -0.41,-2.89 0.13,-1.52 0.64,-1.43 0.95,-0.95 0.55,-0.76 2.31,-4.52 0.45,-1.03 0.55,-0.88 0.99,-0.87 1.28,-1.47 0.41,-0.3 0.74,-0.14 0.72,0.08 -0.21,0.53 0.05,0.52 0.84,2.03 -0.01,0.4 -0.46,1.61 -0.88,2.59 -0.23,1.43 0.12,0.43 -0.36,0.72 -0.38,0.55 -1.51,1.03 -0.77,0.24 -0.73,0.38 -1.68,1.24 z m -28.78,1.4 0.38,-0.18 0.51,-0.65 0.51,-0.82 0.97,-0.17 0.18,-0.45 1.4,0.69 1.54,1.3 1.21,-0.25 0.52,0.04 1.36,0.81 0.38,0.4 0.21,0.36 0.68,-0.08 0.98,-0.31 1.77,0.08 1.88,0.46 -0.16,0.7 -0.29,0.48 1.47,-0.16 0.92,0.5 0.32,-0.24 0.23,-0.31 1.83,-0.85 2.35,-1.76 0.29,0.22 0.11,0.67 0.31,1.09 0.9,0.75 1.07,0.17 1.48,-0.57 0.58,0.5 0.69,0.95 0.66,1.25 -0.04,0.45 -0.84,0.39 -0.76,0.56 3.18,0.23 0.32,0.24 0.35,0.49 -0.32,0.49 -0.3,0.25 -0.58,-0.29 -1.06,0.26 -0.93,0.64 -0.99,0.36 -0.63,0.04 -0.71,0.29 -0.64,0.46 -0.67,0.13 -2.09,1.14 -2.14,0.73 -2.23,1.17 -2.28,0.74 -2.36,0.88 -0.51,0.08 -0.6,-0.04 -1.35,0.86 -0.67,-0.12 -0.68,0.15 -0.78,-0.19 -0.53,-0.35 0.41,0.91 0.12,0.84 -0.21,0.37 -0.38,0.43 -1.36,-0.08 -0.53,-0.3 -0.63,-0.45 -0.29,-0.72 -0.68,-0.52 -0.41,0.72 0,0.53 -0.5,0.73 -0.59,-1.24 -1.07,0.46 -0.47,1.32 0.24,0.38 0.33,1.01 -0.53,0.53 -0.39,-0.14 -0.81,1.47999 -0.98,0.54 -1.01,1.5 -1.2,1.14 -0.33,0.76 -2.01,1.74 -0.76,-0.05 -0.56,0.06 -0.85,0.72 -0.13,1.46 -0.37,-0.19 -0.38,0.05 -0.2,0.46 -0.28,0.08 -0.74,-0.43 -0.87,0.24 -0.68,-0.33 -0.87,-2.14 -0.46,-0.75 -0.82,-0.24 -0.21,0.46 -0.32,0.44 -0.79,-0.89 -0.6,-3.3 0,-0.8 0.84,-2.78999 2.08,-2.52 -0.66,-0.08 -1.83,1.75 0.19,-0.42 0.31,-0.44 0.62,-0.71 0.94,-0.67 1.25,-0.39 0.86,-0.06 0.59,-0.37 0.86,-0.66 0.16,-0.35 -0.76,0.4 -1.26,0.39 0.32,-0.52 0.32,-0.28 6.76,-4.55 1.36,-0.75 2.71,-0.96 0.38,-0.63 -0.37,-0.4 1.05,0.36 -0.09,0.52 -0.16,0.38 -0.06,0.65 0.1,0.62 1.07,0.3 0.89,1.15 -0.42,-1.57 0.8,-0.89 3.09,-1.19 2.58,-0.13 0.83,-0.55 -2.21,-0.37 -2.62,0.2 -1.62,-0.42 -2.23,0.27 -2.36,-0.26 -0.73,0.34 -0.59,0.75 -0.76,-0.33 -0.37,-0.05 -0.36,-0.26 0.77,-1.28 2.4,-1.91 1.46,-1.67 0.41,-0.35 0.23,-0.75 z m 30.06,4.42 -0.37,0.11 -0.09,-0.18 -0.57,-0.53 -0.05,-0.26 0.5,-0.25 1.02,0.13 -0.36,0.66 -0.08,0.32 z m -47.62,15.1 -0.45,0.44 0.11,-0.43 0.55,-1.09 0.36,-0.16 -0.57,1.24 z m 58.15,4.38999 -1.21,0.44 -1.04,-0.03 -0.69,-0.4 -0.03,-0.18 1.63,0.17 0.63,-0.09 1.25,-0.69 -0.54,0.78 z" 
                fill="rgb(151, 144, 238)" 
                stroke="white" 
                stroke-width=".7px"
                title="Nova Scotia" 
                id="CA-NS" 
            />
        </svg>