<svg xmlns="http://www.w3.org/2000/svg" viewBox="549.6299999999993 719.3605099999999 202.74000000000035 270.97000000000037" width="202.74000000000035" height="270.97000000000037">
            <path 
                d="m 685.03,761.69051 -1.81,0.7 -0.28,0.3 0,0.23 0.52,0.76 1.3,0.63 0.2,0.36 -0.25,0.56 -0.54,0.34 -0.64,0.49 -0.88,0.25 -0.06,0.26 0.17,0.48 0.31,0.41 1.36,0.77 0.16,0.18 0.03,0.2 -0.04,0.29 -0.86,0.74 -0.26,0.86 -0.24,4.88 0.38,0.92 0.55,0.39 2.42,-1.09 0.53,0.23 0.06,0.7 -0.42,0.33 -0.69,1.02 -0.14,0.75 -0.01,2.28 0.13,1.04 0.25,0.87 0.32,0.44 0.98,0.82 0.07,0.41 -0.3,0.31 -0.32,0.06 -3.38,-0.87 -0.28,0.15 -0.28,0.35 -0.16,0.63 0.02,0.6 0.36,0.34 1.71,0.31 2.9,0.79 0.52,1.39 0.39,0.29 0.33,-0.03 1.48,-0.7 2.36,-0.88 0.55,0.14 0.67,0.41 0.51,0.54 0.28,0.49 0.07,0.3 -0.08,0.17 -0.42,0.2 -3.65,0.82 -0.68,0.3 -0.35,0.42 -0.13,0.35 -0.01,0.37 0.21,0.76 0.21,0.17 1.4,-0.18 0.37,0.86 0.03,0.39 -0.1,0.39 -1.57,1.04 -0.67,0.68 -2.45,3.23 -0.21,0.42 -0.05,0.39 0.12,0.38 1.44,1.38 0.83,2.4 0.49,1.06 0.3,0.46 0.53,-0.3 0.22,0.02 0.36,0.31 0.44,0.88 0.27,0.3 0.43,0.12 0.7,0.17 0.88,-0.51 0.15,0.05 0.03,0.51 -0.15,0.39 -1.16,1.48 -0.13,0.47 -0.03,0.66 0.17,1.95 -0.52,1.28 0.06,0.66 0.3,0.63 0.02,0.22 -0.3,1.61 -0.39,0.77 -0.36,0.99 -0.24,2.19 -0.42,0.42 -0.48,0.7 -0.24,0.55 -0.63,0.8 -0.13,0.5 0.03,0.27 1.41,2.67 0.26,0.84 -0.26,0.59 -0.88,0.15 -0.75,0.57 0.16,0.97 -0.03,0.56 0.06,0.17 0.28,0.22 1.53,0.74 0.12,0.27 -0.83,1.09 -0.11,0.76 0.32,0.04 0.74,0.1 0.45,0.4 2.31,0.6 0.18,0.53 -0.25,0.26 -0.67,0.45 -0.33,0.39 -0.09,0.64 0.07,0.36 1.58,2.47 0.98,1.74 0.46,0.5 0.53,0.36 1.35,0.45 0.03,0.47 -0.08,0.69 0.07,0.57 0.35,1.02 -0.44,0.51 -2.4,1.53 -0.73,0.66 -0.21,0.43 -0.15,0.85 0.64,1.55 0.04,0.4 -0.14,0.69 -0.7,2.2 -0.79,2.04 -0.37,0.45 -0.47,0.05 -1.42,-0.34 -3.86,-1.43 -4.25,-0.12 -2.75,0.23 -4.97,-0.4 -0.59,-0.37 -0.5,-0.56 -0.64,-1.45 -0.14,-0.14 -1.79,-0.54 -0.66,-0.41 -0.75,-0.63 -3.39,-3.87 -1.04,-0.99 -0.36,-0.15 -0.23,0.27 0.02,0.27 0.65,1.27 0.05,0.32 -0.25,0.99 0.49,2.05 -0.16,0.78 0.48,1.58 0.05,0.75 -0.66,0.78 -1.28,-0.51 -2.69,-2.43 -1.21,-1.97 -0.33,-0.17 -0.62,0.04 -0.16,0.2 -0.1,0.35 0.19,0.82 0.39,1.04 0.74,1.42 0.77,1.96 0.05,0.27 0.47,0.45 -0.03,0.56 -0.77,0.48 -0.44,1.03 -0.26,0.02 -1.99,-0.85 -0.38,0.11 -0.21,0.2 -0.17,0.71 0.09,0.85 0.25,0.92 0.6,1.69 0.07,0.44 -0.03,0.25 -1.52,1.45 -0.45,0.63 -0.27,0.6 0.04,0.41 2.03,2.95 0.53,0.65 0.14,1 -0.19,1.44 0.03,0.33 0.15,0.18 2.62,0.88 0.33,0.61 0.47,1.28 0.45,0.37 0.41,0.14 0.32,0.43 0.06,0.39 -0.25,2.18 -0.05,1.64 -0.52,1.38 -0.23,0.9 -0.14,1.29 0.01,1.15 0.35,0.51 0.7,0.33 0.48,0.07 0.37,-0.07 0.37,0.18 1.13,-0.6 0.15,-0.32 0.36,-2.39 0.14,-0.32 0.84,-0.4 0.28,-0.69 0.2,-0.2 0.36,0.12 0.34,0.28 0.55,0.86 0.25,0.55 -0.09,0.53 -0.28,0.31 -0.14,0.5 -0.09,0.96 -0.45,0.78 -0.08,0.41 0.29,3.57 -0.07,0.29 -0.55,0.83 0.01,0.68 0.21,0.96 0.29,0.66 0.26,0.28 0.3,0.14 0.17,-0.49 0.28,-1.55 0.15,-0.09 1.17,1.04 0.46,0.3 0.55,1.46 0.51,0.41 0.86,0.39 0.5,0.03 0.19,-0.16 0.23,-0.59 0.81,0.15 0.53,0.3 0.38,0 0.34,-0.3 0.69,-1.49 0.2,-0.1 0.48,0 1.16,0.26 1.17,0.45 0.91,0.6 0.93,0.85 1.5,2.17 0.96,0.82 0.28,0.34 -0.11,0.5 -0.48,0.4 -0.09,0.25 0.04,0.36 0.89,1.73 0.82,-0.12 1.94,-1.73 0.01,-0.58 -0.33,-0.61 -0.08,-0.44 0.12,-1.27 0.45,-2.23 0.1,-0.24 0.9,-0.71 0.26,-0.56 0.25,-2.8 -0.72,-2.58 -0.03,-1.06 0.08,-2.8 0.35,-0.58 1.18,-0.36 0.31,-0.25 0.5,-2.53 0.11,-0.17 0.95,-0.41 0.69,-0.07 0.46,0.13 0.59,0.98 0.46,1.05 0.05,0.37 -0.16,1.69 0.03,0.43 0.12,0.34 1.26,1.26 -0.12,0.28 -0.89,0.31 -2.58,0.55 -0.79,0.32 -0.51,0.35 -0.56,0.59 -0.38,0.59 -0.06,0.28 0.04,0.12 0.99,0.42 0.08,0.16 0.07,0.54 0.46,0.53 1.06,0.69 0.73,2.33 0.14,0.64 0.03,0.5 -0.36,0.17 -0.73,-0.04 -0.06,0.1 0.08,0.34 0.24,0.14 1.35,0.14 3.64,0 3.65,0 3.64,0 3.65,0 3.64,0 3.65,0 3.64,0 3.64,0 3.65,0 3.64,0 3.64,0 3.65,0 3.65,0 3.64,0 3.64,0 3.65,0 0,4.2 0.01,3.85 -1.79,-0.5 -1.46,0.13 -2.76,0.62 -0.75,0.38 -1.51,1.11 -0.6,0.16 -1.62,0.23 -1.54,-0.15 -0.61,0.16 -0.74,0.54 -0.19,0.29 -0.21,0.93 -3.74,4.16 -0.99,1.4 -1.91,1.48 -2.1,2.58 -1.82,1.04 -0.64,1.43 -1.74,0.87 -3.21,0.22 -1.52,0.25 -1.78,-0.4 -1.34,0.62 -2.01,0.19 -0.98,-0.15 -3.9,1.37 -0.99,-1.3 -0.75,-0.5 -2.2,-0.08 -1.76,-0.54 -1.61,-0.1 -1.56,-0.24 -1.03,0 -1.07,0.14 -1.67,-0.03 -0.92,0.72 -3.12,-0.22 -1.32,-0.65 -1.08,-0.14 -1.45,0.14 -1.39,0.48 -3.03,-0.55 -3.22,0.47 -2.81,-0.31 -0.79,-0.31 -4.43,0.85 -1.73,-0.49 -1.53,1.3 -1.05,-0.27 -1.14,0.19 -0.38,-0.25 -0.76,0.17 -0.49,0.71 -0.64,0.08 -1.07,1.25 -1.79,1 -2.63,5.43 -0.25,2.07 -0.99,1.41 -0.87,0.19 -0.72,0.03 -4.54,1.03 -2.02,0.82 0.55,0.65 -0.66,0.48 -1.07,0.2 -1.16,0.59 -0.75,0.67 -0.37,0.92 -2.33,1.5 -2.71,3.46 -1.29,2.52 -1.57,1.82 -1.11,0.69 -0.79,0.11 -0.8,-0.22 -1.34,-0.85 -0.98,-0.09 -2.45,-1.19 -5.69,-1.2 0.86,0.45 0.75,0.74 1.5,0.19 1.53,-0.02 3.19,1.49 1.56,0.51 0.95,0.45 0.81,0.99 -0.58,1.95 -0.59,1.6 -0.8,1.23 -2.74,3.14 -1.33,1.05 -2.31,3.74 -2.39,1.75 -1.28,1.07 -1.36,1.69 -3.2,1.27 -1.19,0.32 -1.1,-0.17 -1.33,1.03 -1.58,0.63 -0.47,0.96 -3.8,2.56 -1.46,0.32 -1.24,0.68 -0.37,1.15 -1.11,0.7 -0.31,0.53 -0.93,1.61 -1.73,2.07 -2.11,0.35 -0.77,0.72 -0.89,1.16 -1.26,0.79 -2.49,-0.37 0.6,0.49 2.22,0.76 0.23,1.12 -1.11,0.27 -2.17,1.39 -0.65,-0.69 -0.58,-0.62 0.22,-0.96 0.34,-1.47 0.17,-0.75 -1.62,-0.82 -1.25,-0.25 -1.32,0.12 -2.72,0.85 -4.11,1.59 -2.49,0.39 -0.87,-0.81 -1.09,-0.27 -1.32,0.27 -1.29,-0.16 -1.25,-0.58 -1.02,-1.28 -0.78,-1.99 -0.63,-1.05 -0.43,-0.1 -0.17,-0.04 -0.2,0.19 -0.11,0.72 -0.14,0.24 -0.32,0.04 -0.49,-0.12 -0.63,-0.32 -1.19,-0.91 -0.3,-0.33 -0.14,-0.42 -0.09,-0.19 -0.71,-1.11 -0.01,-0.01 -2.78,-1.58 0,0 -0.02,-0.01 0.01,0.01 -6.97,-1.55 -2.87,-1.12 -1.09,-1.21 -1,-1.56 -1.35,-2.88 -1.79,-2.55 -0.63,-1.47 -0.06,-1.23 -0.33,-1.2 -0.61,-1.17 -0.11,-1 0.41,-0.9 0,-0.07 0,-3.76 0,-3.23 0,-3.24 0,-3.26 0,-3.28 0,-3.29 0,-3.31 0,-3.32 0,-3.34 0,-3.36 0,-3.37 0,-3.39 0,-3.41 0,-2.5 0.57,0.61 0.97,1.6 -0.29,-1.02 -0.64,-1.17 -0.61,-0.69 0,-3.7 -0.01,-4.57 0.21,-0.36 1.42,-0.84 0.37,0.08 0.29,1.02 0.34,0.21 0.66,0.16 0.55,0.35 0.45,0.54 0.32,0.55 0.19,0.56 0.42,1.82 0.3,0.84 0.05,-1.02 0.35,-1.61 0.27,-0.66 0.86,-0.97 -0.04,-0.42 -0.36,-0.56 -1.81,-2.42 -0.04,-0.59 0.48,-0.35 0.33,-0.67 0.18,-0.99 0.39,-0.72 1.13,-1.01 0.97,-1.56 0.5,-1.07 0.41,-0.57 0.39,-0.13 -0.58,-0.43 -0.12,-0.29 -0.03,-1.29 -0.25,-1.36 -0.39,-0.63 -1.1,-1.36 -0.18,-0.41 -0.19,-1.54 0.11,-0.77 0.29,-0.65 -0.16,-0.63 -1.02,-1.14 -0.4,-1 -0.44,-2.43 -0.4,-3.06 -0.46,-2.26 -0.51,-1.45 -0.12,-0.92 0.28,-0.38 0.37,-1.15 0.33,-0.28 0.51,0.08 0.01,-0.13 -0.79,-0.62 -0.39,-0.78 0.02,-0.29 0.69,-0.78 -0.12,-0.33 -0.51,-0.43 -1.57,-0.71 0.56,-0.28 0.36,-0.61 -0.07,-0.18 -0.62,-0.25 -0.71,-0.48 -0.54,-0.71 -0.67,-1.12 -0.41,-0.89 -0.4,-1.49 -0.69,-1.7 -0.3,-0.42 -0.35,-0.27 -0.39,-0.13 0.01,-0.26 0.42,-0.4 6.78,-2.86 0.56,-0.41 3.33,-1.61 1.54,-0.9 1.57,-1.29 2.13,-1.33 1.04,-0.86 0.66,-0.83 3.38,-3.33 1.43,-1.71 0.83,-1.47 1.21,-1.77 1.58,-2.06 1,-1.78 0.42,-1.48 0.52,-2.57 0.15,-2.28 0.09,-3.36 -0.05,-3.02 -0.42,-4.76 -0.26,-1.5 -0.48,-1.79 -1.17,-3.63 -0.21,-0.99 -0.73,-1.68 -2.38,-4.39 -2.98,-2.99 -0.57,-0.75 -1.18,-0.88 -1.79,-1.01 -1.16,-0.83 -3.03,-3.11 -1,-0.37 -0.38,-0.8 -0.08,-0.57 0.12,-1.5 0.18,-1.04 0.21,-0.76 0.25,-0.49 1.67,-2.31 0.93,-1.86 0.65,-1.02 0.72,-0.79 1.3,-1.04 0.74,-1.32 -0.17,-0.53 -0.58,-0.58 -0.13,-0.57 0.99,-1.45 0.14,-0.4 -0.13,-1.37 0.19,-0.31 1.22,-0.08 1.74,1.97 0.43,-0.17 -0.56,-0.54 -0.67,-1.33 0.1,-0.55 1.28,-1.44 0.04,-0.65 -0.37,-0.91 -0.04,-0.73 0.75,-1.73 -0.2,-0.36 -2.11,-0.34 -0.35,-0.48 0.12,-0.23 0.99,-0.58 0.08,-0.22 -1.75,-3.91 -0.29,-1.17 0.75,-1.45 0.85,-0.65 -0.11,-0.37 -1.11,-0.07 -0.68,-0.2 -0.68,-1.13 0.26,-0.72 0.24,-0.33 0.66,-1.69 0.64,-0.35 -0.12,-0.3 -2.41,0.72 -1.13,-0.59 -1.11,0.16 -0.53,-0.17 0.2,-0.61 2.02,-2.77 0.93,-1.5 0.58,-1.36 0.31,-0.91 0.03,-0.45 -0.2,-3.03 0.12,-0.83 0.78,-0.77 1.21,-1.46 -1.65,-1.32 -1.03,-1.29 -0.68,-0.64 -0.52,-0.63 -0.66,-1.33 -0.5,-1.73 -0.53,-3.51 -0.09,-1.94 0.12,-1.41 0.22,-0.69 0.36,-0.72 1.51,-1.37 2.65,-2.03 2.08,-0.8 1.5,0.44 2.92,0.48 2.36,1.16 7.17,2.89 1.27,1.28 -1.2,1.08 0.17,0.27 2.7,-2.05 0.71,-0.4 0.61,-0.1 2.04,0.8 0.82,0.12 1.03,0.66 2.46,2.19 0.18,-0.18 -0.69,-1.12 0.4,-0.53 1.94,-1.17 2.01,-0.96 1.42,-0.94 1.51,-1.24 1.02,-0.67 0.53,-0.08 0.67,0.37 1.81,1.65 1.16,0.84 0.93,0.88 1.31,1.56 0.51,0.34 0.99,1.05 1.32,-0.11 0.43,0.13 0.14,0.21 0.22,0.71 0.12,0.46 0.01,0.49 -0.3,1.37 -0.95,2.18 0.4,0.03 0.6,-0.47 0.78,-0.83 0.61,-0.29 1.3,0.66 1.21,1.07 0.43,0.56 0.47,0.92 0.4,0.47 0.37,0.91 -0.03,0.29 -0.35,0.44 -1.48,0.74 0.28,0.28 1.73,-0.46 0.53,-0.46 0.38,-0.77 0.5,-0.22 2.04,1.35 0.3,0.47 -0.13,0.37 -0.33,0.41 -0.89,0.45 -0.76,1.14 -0.12,0.49 0.54,0.35 1.33,0.15 -0.01,0.27 -0.77,0.5 -0.1,0.65 1.72,2.31 1.16,1.01 0.67,0.19 1.55,0.04 1.26,0.39 2.79,1.3 1.64,0.23 1.41,-0.4 0.94,-0.09 0.83,0.52 0.26,0.37 0.12,0.73 -0.02,1.09 0.45,0.76 0.92,0.44 0.75,-0.07 0.98,-0.86 0.82,-0.15 0.28,-0.64 0.24,-1.19 0.24,-0.65 0.6,-0.19 0.48,0.36 0.28,0.54 0.52,1.63 0.14,0.73 -0.06,0.66 -0.26,0.6 -0.51,0.64 -0.76,0.68 -0.59,0.97 -0.73,2.23 -0.27,1.46 -0.07,0.86 0.03,0.94 0.14,1.02 0.29,0.84 0.68,1.18 0.04,0.39 0.05,0.96 -0.06,0.42 -0.39,0.83 -1.09,0.83 -1.5,0.21 -4.9,0.05 -1.3,-0.2 0.31,0.75 1.37,0.24 1.25,-0.01 4.67,0.47 0.64,0.48 0.54,0.84 0.39,0.87 0.38,1.77 0.07,0.84 -0.21,0.93 -0.48,1.02 -0.33,1.35 -0.17,1.69 0.26,0.89 2.53,0.07 0.5,0.61 -0.06,0.45 -0.9,1.7 -0.08,0.48 0.41,1.14 -0.06,0.33 -0.25,0.33 -0.24,0.86 -0.23,1.38 -0.28,0.89 -0.69,0.69 -0.36,0.15 -0.26,-0.18 -0.68,-1.88 -0.28,-0.28 -0.26,0.18 -0.13,0.29 0,0.41 -0.12,0.42 -0.23,0.43 -1,0.69 -1.62,0.47 0.05,0.5 1.09,0.27 1.38,0.83 0.79,0.13 1.25,-0.67 2.41,-2.12 0.99,-0.58 0.88,-0.22 0.98,-0.03 1.09,0.16 2.18,-0.27 0.55,0.2 0.67,0.47 0.79,0.73 0.54,0.7 0.3,0.68 0.49,2.55 0.66,0.67 0.16,0.49 0.05,0.75 -0.04,1.46 -0.72,2.94 -0.38,1.08 -1,1.47 -1.15,0.67 -2.05,0.63 -1.07,0.52 -0.81,0.72 -0.05,0.4 2.33,-1.24 2.56,-0.6 0.73,-0.68 0.55,-0.66 0.56,-1.47 1.02,-3.83 0.58,-1.21 0.81,-0.21 0.36,0.41 0.84,2.25 0,0.57 -0.21,0.49 -1.37,2.18 0.49,-0.22 1.37,-2.05 0.29,-0.64 0.16,-0.94 0.44,-0.67 0.17,0.33 0.42,2.41 0.01,1.76 0.07,0.56 -0.15,1.66 0.17,0.3 0.41,-1.44 0.13,-1.09 0.19,-0.78 0.24,-0.46 1.68,-1.47 1.96,-1.2 1.29,-1.07 1.07,-0.51 1.6,-0.48 1.02,-0.99 0.45,-1.51 0.38,-1.04 0.31,-0.58 1.05,-1.04 0.57,-0.06 0.55,0.38 0.62,0.78 0.69,1.17 0.41,0.92 0.14,0.67 0.11,2.33 0.13,-0.01 0.64,-1.78 0.08,-0.63 -0.04,-0.67 -0.2,-0.67 -0.64,-1.46 -0.25,-0.92 0.06,-0.57 0.68,-0.32 1.01,-0.13 0.17,-0.24 -0.74,-0.61 -0.02,-0.33 0.71,-1.08 0.42,-0.06 0.82,0.17 -0.16,-0.56 0.01,-0.37 0.23,-0.14 1.36,0.35 0.16,-0.42 1.17,-0.04 0.11,-0.38 -1.01,-0.54 -0.99,-0.34 -0.3,-0.3 -0.23,-0.44 -0.31,-1.06 0.07,-0.28 0.28,0 0.48,0.29 0.26,-0.56 0.29,-1.31 0.29,-0.54 0.91,0.62 0.04,-0.27 -0.74,-2.07 0.13,-0.4 1.12,-0.15 0.68,0.26 1.79,1.52 0.32,-0.17 -0.27,-0.41 -0.92,-0.89 -0.83,-0.58 -0.74,-0.28 -0.55,-0.5 -0.61,-1.37 -0.1,-0.56 0.05,-0.74 0.42,-1.53 0.25,-0.33 0.43,-0.25 0.62,-0.16 0.69,0.15 1.41,1.01 0.24,-0.32 -0.76,-0.55 -0.41,-0.51 -0.2,-0.65 0.09,-0.74 0.6,-1.53 0.28,-1.23 1.27,-3.41 0.37,-0.62 0.4,-0.39 0.25,-0.41 1,-0.09 0.83,0.41 z m 25.22,174.96 -3.75,0.2 -2.99,-0.84 -2.21,-0.41 -2.17,-0.74 -4.7,-2.39 -0.54,-0.83 -0.45,-1.02 -0.9,-0.93 -0.97,-0.77 -4.98,-2.35 -0.41,-0.82 1.01,-0.54 1.16,-0.26 1.01,0.04 3.33,0.92 4.2,0.81 1.82,0.61 2.06,0.93 2.02,1.13 4.49,2.99 0.81,0.24 2.02,1.46 0.73,1.09 0.36,0.89 -0.44,0.45 -0.51,0.14 z m -43.96,14.47 -1.24,0.33 -0.74,0.46 -0.24,0.85 -0.95,-0.25 -1.16,0.33 -1.07,0.09 -0.52,0.43 -1.92,-1.13 -0.27,-0.39 -0.03,-0.4 -1.13,0 -1.56,0 -0.99,0 -0.81,0 0,0.92 -1.25,0 -1.12,0 0,1.21 0,0.97 0,0.97 0,1.37 -0.13,0.34 -0.32,0.46 -0.59,0.63 -1.19,0.79 -3.81,1.66 -0.1,-0.57 0.13,-1.17 -0.86,-0.24 -0.87,-0.24 -0.53,0.81 -0.51,0.68 -1.01,1.48 -1.42,2.07 -0.79,1.13 -1.38,1.99 -1.22,1.75 -0.27,1.79 -0.26,1.69 -1.01,1.29 -0.62,1.18 -0.27,1.3 -0.23,1.19 -0.02,1 0.17,0.52 -0.08,0.42 -0.33,0.49 -0.67,0.85 -0.12,0.82 -0.41,0.4 -1.16,0.8 -0.95,1.18 -0.05,0.67 0.14,0.55 0.02,0.34 -0.19,0.24 -0.38,-0.02 -0.41,0.08 -0.35,0.49 0.01,0.71 -0.25,0.51 -0.3,0.1 -0.25,-0.36 -0.3,-0.54 -0.36,-0.05 -0.54,0.36 -0.22,0.19 -0.45,0.4 -0.6,0.03 -1.13,-0.38 -0.82,1.14 -0.88,2.44 -3.73,0.01 -3.73,0.01 -3.73,0.01 -3.73,0.01 -1.53,0 -2.21,0 -3.73,0.01 -3.73,0.01 -2.09,0 -0.41,0 1.28,-0.48 2.66,-1.86 1.97,-0.67 2.56,-1.96 1.85,-0.38 0.35,-0.43 0.31,-1.63 0.17,-0.58 0.86,-1.61 1.04,-1.36 0.84,-1.88 1.52,-1.21 2.3,-1.01 2.13,-2.21 1.17,-0.67 1.13,-0.48 0.47,-0.9 0.7,-0.51 1.87,-1.05 2.06,-0.28 2.08,-0.87 1.6,-0.46 0.98,-0.82 1.42,-0.43 4.25,-2.36 1.18,-1.11 1.53,-2.27 1.33,-1.16 0.47,-1.24 1.93,-2.01 1.98,-2.66 0.99,-1.91 1.48,-1.07 2.86,-3.05 1.54,-1.22 0.62,-0.14 1.74,-1.09 1.08,-1.14 1.73,-1.15 3.13,-1.41 2.94,-1.7 3.97,-1.47 4.66,-2.21 3.76,-1.19 2.65,-0.17 3.22,-0.55 1.14,0.06 5.02,0.96 2.41,1.19 2.74,2.49 0.41,0.66 0.07,0.92 -1.45,-0.44 -1.28,-0.03 0.89,0.51 1.51,1.53 -0.07,1.9 -0.85,1.71 -2.55,0.84 -0.65,0.67 -0.53,1.11 -0.52,0.42 -1.24,0.49 -0.68,0.72 -2,1.14 -0.9,0.13 -1.04,-0.27 -2.5,-1.07 -1.54,-1.03 -0.77,0.57 -0.63,0.59 -1.48,-0.2 -0.68,0.26 -1.12,-0.29 -2.31,1.27 z m 42.94,9.79 0.32,0.25 0.57,-0.03 0.38,0.1 -0.55,0.49 -1.05,0.05 -0.51,-0.2 0.75,-2.52 0.87,-0.58 1.79,-1.65 0.72,-0.5 0.66,-0.2 0.7,0.12 -0.72,0.98 -0.96,0.05 -0.91,0.81 -0.6,0.9 -0.72,0.51 -0.5,0.63 -0.24,0.79 z m -81.68,5.4 -0.82,0.11 0.19,-0.45 1.11,-0.81 0.82,-0.45 0.48,0.01 -0.79,0.99 -0.99,0.6 z m -22.77,18.11 -0.69,0.25 -1.18,-0.24 -1.3,0.33 -0.36,0.01 0.96,-0.95 1.48,-0.58 1.48,-1.79 0.42,-0.05 -0.56,2.02 -0.11,0.72 -0.14,0.28 z m -1.16,-1.48 -1.08,0.26 -0.38,-0.11 1.19,-1.26 1.37,-0.29 -1.1,1.4 z" 
                fill="rgb(151, 144, 238)" 
                stroke="white" 
                stroke-width=".7px"
                title="Quebec" 
                id="CA-QC" 
            />
        </svg>