<svg xmlns="http://www.w3.org/2000/svg" viewBox="0.25000000000011013 561.6005099999992 154.02000000000004 205.5799999999998" width="154.02000000000004" height="205.5799999999998">
            <path 
                d="m 41.11,580.72051 -0.01,6.8 0,7.11 0,7.02 0,6.93 0.1,1.04 0.3,0.86 1.22,1.17 0.28,0.37 0.23,0.55 0.35,1.47 -0.08,1.5 0,0.64 0.17,0.67 0.16,0.43 0.11,0.49 0.21,1.16 -0.02,0.39 -0.38,1.42 -0.61,1.04 -0.02,0.42 -0.03,0.65 0.01,1.07 0.26,1.2 0.23,0.48 0.39,0.24 2.57,0 2.57,0 2.57,0 2.57,0 2.57,0 2.57,0 2.57,0 0.56,0 0.02,0.73 0.2,0.66 0.96,0.94 0.68,0.94 0.48,0.98 0.1,0.75 -0.13,0.75 -0.07,0.43 0.06,0.5 0.25,0.61 0.02,0.34 0.04,0.42 0.34,0.44 0.66,1.02 0.15,0.46 -0.13,0.66 -0.08,0.61 0.06,0.83 -0.02,0.44 -0.18,0.16 -0.28,0.03 -0.3,0.1 -0.18,0.53 -0.27,1.52 -0.09,0.5 0.09,0.47 0.27,0.02 0.97,0.07 0.35,0.11 0.26,0.23 0.11,0.81 0.04,0.9 -0.02,0.71 -0.22,0.59 -0.59,0.85 -0.16,0.35 0.01,0.48 0.27,0.54 0.19,0.86 0.02,0.79 0.29,0.26 0.8,0.16 0.79,-0.01 1.64,-1.1 1.68,-0.47 0.93,-0.02 0.18,0.25 0.01,0.35 -0.21,0.55 -0.25,0.94 0.18,0.37 0.41,0.07 0.73,-0.32 0.49,-0.95 0.47,-0.58 0.89,-0.69 0.33,0.12 0.84,0.77 1.01,-0.1 0.25,0.32 0.02,0.52 -1.78,1.52 -0.14,0.64 0.19,0.51 0.4,0.31 1,1.16 0.74,1.1 0.89,1.92 0.01,0.65 -0.65,1.28 -0.7,2.04 -1.76,2.21 -0.22,0.87 -0.27,0.43 -1.48,1.18 -0.1,0.46 0.05,0.4 0.15,0.25 0.39,0.13 0.88,-0.3 0.27,-0.07 0.35,0.31 0.02,1.3 0.2,0.32 1.21,0.41 0.26,0.38 -0.01,0.4 -0.24,0.36 -0.9,1.09 -0.14,0.27 0,0.95 -0.07,0.61 -0.71,0.88 -0.15,0.33 0.01,0.37 0.1,0.3 0.31,0.29 1.36,0.06 0.73,0.31 1.92,1.27 0.48,0.38 1.43,2.24 1.26,0.67 0.21,0.23 0.12,0.39 -0.13,0.54 -0.54,1.31 -0.11,0.4 0.05,0.39 0.3,0.15 1.59,0 0.66,-0.27 0.57,-0.47 0.45,-0.74 0.36,-0.15 0.84,0.24 1.42,0.96 0.76,1.58 -0.04,0.54 0.13,0.52 0.27,0.28 0.46,0.83 0.16,0.55 0,0.51 -0.25,0.56 0.1,0.31 0.52,0.92 0.23,0.65 0.49,0.37 0.31,0.77 0.87,0.87 1.32,0.62 1.34,1.42 0.73,0.56 1.28,0.3 0.19,0.29 -0.03,0.41 -0.22,0.23 -1.03,0.5 -0.35,0.33 -0.04,0.35 0.16,0.36 0.37,0.15 0.91,-0.39 0.28,0.05 0.12,0.32 0.14,0.58 0.17,0.29 0.78,0.4 0.27,0.59 0.52,0.63 0.29,0.67 0.09,0.72 -0.54,1.6 -0.39,0.6 -1.37,1.14 -0.34,0.51 0.06,0.34 0.66,0.3 0.73,0.9 0.65,0.56 0.32,0.61 0.38,1.29 0.83,0.43 0.94,0.04 0.16,0.19 -0.05,0.42 -0.86,2.1 0,0.7 -0.13,0.59 0.09,0.65 0.54,1.08 0.14,0.39 0.06,0.55 0.15,0.31 0.68,0.47 0.17,0.28 0.27,1.06 0.04,0.4 0.37,0.36 2.13,1.29 0.19,0.45 -0.09,0.39 -0.79,0.56 -0.08,0.31 0.02,0.27 0.4,0.44 0.09,0.3 -0.46,0.98 -0.02,0.54 0.44,1.11 0.1,0.32 -0.06,0.34 -0.2,0.35 -0.07,0.33 0.13,0.26 0.41,0.33 0.65,0.2 1.1,-0.12 0.95,0.24 0.25,0.15 0.35,0.73 0.24,0.17 0.34,-0.1 0.87,-0.83 0.56,-0.19 0.49,0.1 1.44,1.59 0.3,0.82 0.97,1.2 0.24,0.84 0.23,0.35 1.01,0.46 0.42,0.53 0.24,0.64 0.23,1.29 1.67,1.74 0.84,0.58 0.51,0.68 0.43,0.36 1.26,0.42 1.51,-0.03 0.63,0.33 0.56,0.56 0.45,1.13 0.39,0.64 0.46,2.48 0.06,0.72 -0.11,1.32 -0.5,0.61 -0.13,0.23 0.03,0.2 0.34,0.36 0.81,-0.23 0.18,0.2 0.32,1.89 -0.09,1.21 0.06,0.45 0.21,0.49 -0.01,0.69 0.27,0.48 0.24,0.1 0.58,-0.2 0.92,0.23 1.3,-0.7 1.52,0.36 0.48,-0.07 0.38,-0.17 0.18,-0.28 0,-0.64 0.11,-0.23 0.55,-0.18 0.42,0.05 0.14,0.63 0.31,0.24 0.55,0.13 0.41,-1.03 0.23,-0.32 0.29,-0.14 0.32,0 1.41,0.91 2.94,0.9 0.5,-0.01 0.83,-0.62 0.7,-0.33 2.43,-0.29 0.19,-1.17 0.2,-0.44 0.28,-0.24 1.71,0.01 0.3,0.14 0.68,2.4 0.01,0.62 -0.95,1.6 0,0.35 0.11,0.37 1.17,1.73 0.59,1.33 1.38,0.38 0.21,0.38 0.19,1.81 0.18,0.58 0.73,1.73 0.95,1.78 0.05,0.49 -0.19,0.7 0.02,0.25 0.15,0.1 1.02,0.01 0.34,0.35 0.21,0.34 -8.53,0 -8.53,0 -8.53,0 -8.53,0 -8.53,0 -8.53,0 -8.53,0 -8.53,0 -8.53,0 -8.53,0 -8.53,0 -8.53,0 -8.53,0 -8.53,0 -8.53,0 -8.62,-0.01 -1.15,-1.47 0.43,-1.6 0.52,-1.92 0,-1.16 -1.39,0.07 -2.09,0.11 -1.87,0.1 -1.38,1.36 -1.28,1.26 -2,-0.98 -2.29,-1.12 -0.65,1.47 -2.13,-0.74 -2.17,-0.75 0,-5.3 0,-5.35 0,-5.4 0,-5.45 0,-5.5 0,-5.55 0,-5.61 0,-5.66 0,-5.72 0,-5.78 0,-5.84 0,-5.9 0,-5.96 0,-6.02 0,-6.08 0,-6.15 0,-6.22 0,-6.29 0,-6.36 0,-6.43 0,-6.51 0,-6.58 0,-6.66 0,-6.74 0,-6.83 0,-6.91 0,-7 0,-7.09 0,-7.18 0,-7.28 0,-7.38 0,-7.47 1.27,0.4 4.08,0.84 3.84,-0.5 7.13,2.72 4.41,5.06 3.58,2.47 1.46,1.69 2.32,1.49 5.46,3.22 1.7,0.33 3.17,1.54 1.96,-0.2 0.48,0.06 z m -23.3,-17.23 -0.74,0.96 -1.18,-1.01 -0.31,-0.5 1.36,-1.33 0.6,0.05 1.27,0.79 0.47,0.7 -1.47,0.34 z" 
                fill="rgb(151, 144, 238)" 
                stroke="white" 
                stroke-width=".7px"
                title="Yukon" 
                id="CA-YT" 
            />
        </svg>