<svg xmlns="http://www.w3.org/2000/svg" viewBox="584.8039200000003 93.68081500000002 50.359999999999445 41.17999499999996" width="50.359999999999445" height="41.17999499999996">
            <path 
                d="m 626.44392,99.140815 0.17,0.66 0.56,0.759995 0.53,0.15 -0.08,0.45 0,0 0.6,0.52 0,0 1.28,0.85 0.48,0.61 -0.25,1.38 0.11,0.32 0.65,0.57 0.22,0.37 0.07,0.63 -0.19,0.82 0.14,0.42 0.43,0.4 -0.06,0.61 -0.26,0.39 0.29,0.33 0.8,0.55 0.18,1.15 -0.16,0.48 -0.03,0.78 -0.63,0.9 0.13,0.48 -0.11,0.89 0.29,0.37 0,0.93 0.22,0.58 -0.2,0.69 0.17,0.56 0.24,0.45 0.67,0.74 1.46,1.1 0.46,0.89 0.54,0.61 -0.04,0.72 -0.58,0.56 -0.59,0.34 -0.26,0.07 -0.47,-0.12 -0.37,-0.37 -0.22,-0.58 -0.29,-0.25 -0.52,-0.24 -1.25,0.16 -0.21,-1.07 -0.31,-0.23 -1.57,0.12 -2.1,-0.76 0,0 -0.54,0.06 0,0 -0.18,0.1 -0.6,0 -0.47,-0.33 -0.14,-0.26 0.17,-0.92 -0.33,-1.28 0.16,-1.3 -1.32,-4.26 -0.52,-0.85 -0.18,-0.59 -0.03,-0.86 -0.15,-0.36 -0.08,-0.93 -0.31,-0.64 0,0 0.02,-0.44 0,0 0.13,-0.67 -0.39,-1.27 0.54,-1.4 0,0 -0.02,-0.17 -0.43,-0.25 -0.08,-0.39 0.08,-0.1 0.52,0.13 0.05,0.47 0.37,0.39 -0.16,-0.49 0.11,-0.96 0.25,-0.24 1.06,-0.42 0.9,-0.21 0.16,-0.45 -0.13,-0.28 -0.44,-0.22 -0.17,-0.3 -0.02,-0.489995 0.76,-0.5 1.47,-0.06 z m -4.01,-5.23 0.26,0.13 1.04,-0.05 -0.94,0.68 -0.22,0.81 -0.51,-0.15 -0.57,0.08 0.1,0.88 0.37,0.4 -0.12,0.22 -0.69,0.54 -0.4,0.72 0.01,0.45 0.19,0.1 0.12,0.32 -0.05,0.35 -0.77,0.39 0,0 -1.24,2.339995 -0.53,0.28 -2.2,0.31 -1.27,0.33 -0.52,0.34 -0.61,1.54 -0.44,0.37 -1.15,0.11 -0.35,0.11 -0.24,0.25 -0.17,0.77 0.03,0.74 0.88,1.46 0.16,1.01 0.41,3.73 -0.07,1.47 0.23,2.58 0.28,0.52 0.44,0.26 1.33,0.3 0.25,0.16 -0.06,1.97 -1.05,2.1 -1.36,1.54 -0.08,0.62 0.09,0.25 0.34,-0.03 0.96,-0.92 0.12,0.08 -0.43,1.26 -1.51,2.21 -0.51,0.46 -0.13,0.53 0.07,0.15 0.88,-0.11 -0.08,0.27 -0.23,0.35 -1.32,0.93 -0.66,1.09 -0.69,0.87 -0.93,0.88 -1.85,1.09 0,0 -1.64,0.51 0,0 -0.66,-0.16 0,0 0.05,-0.28 0,0 0.69,-0.75 -0.13,-0.41 -1.32,-0.22 -0.97,-0.61 -0.89,-1.42 -0.29,-0.79 -0.63,-0.65 -1.43,-0.16 -0.97,-1.6 -0.67,-1.44 -0.18,-0.77 -0.06,-1.01 -0.25,-0.31 -0.33,-0.1 -0.32,0.1 -0.46,0.64 -0.31,0.11 -1.4,-0.44 -0.27,0.06 -0.45,0.36 -0.4,0.11 -1.01,-0.25 -0.29,-0.22 -0.05,-1.31 0.5,-1.76 -0.12,-0.21 -0.73,-0.57 -0.1,-0.22 0.13,-1.61 -1.79,-3.1 -1.09,-1.41 0,0 -0.8,-0.52 0,0 -0.38,-0.11 -0.48,0.16 -0.95,-1.23 -0.63,-0.34 0,0 -1.16,-0.28 2.89,-0.12 2.25,-0.36 3.45,-1.06 4.07,-1.54 1.27,-0.64 1.48,-0.88 1.7,-1.28 5.48,-4.78 4.07,-2.639995 2.57,-2.13 0.21,0.12 0.33,-0.06 6.74,-2.77 1.07,-0.32 0.05,0.23 z" 
                fill="rgb(151, 144, 238)" 
                stroke="white" 
                stroke-width=".7px"
                title="Brunei Darussalam" 
                id="BN" 
            />
        </svg>