<svg xmlns="http://www.w3.org/2000/svg" viewBox="114.41391999999985 180.04081 73.60000000000008 65.46999999999997" width="73.60000000000008" height="65.46999999999997">
            <path 
                d="m 152.79392,243.85081 -0.13,-0.1 -0.04,-0.27 0.11,-0.96 0.69,0.45 -0.02,0.59 -0.61,0.29 z m -37.49,-32.36 0.95,-0.22 0,0 0.64,-0.37 0.05,-0.94 -0.08,-0.32 -0.49,-0.46 -1.5,-0.53 -0.13,-0.53 0.05,-0.28 0.56,-0.36 0.19,-0.31 0,-1.68 0.25,-0.43 0.59,-3.18 0.88,-0.76 0.1,-0.62 1.78,-0.69 0.12,-0.54 0,0 0.06,-1.07 0.2,-0.31 0.67,-0.48 0.09,-0.36 -0.23,-0.9 0.33,-0.74 -0.23,-0.96 0.04,-0.92 0.36,-0.59 0.05,-0.42 0.69,-0.35 0.1,-0.29 -0.42,-0.73 -0.1,-0.49 2.82,-7.87 0,0 3.74,1.1 7.03,8.23 7.16,3.11 0.3,0 5.14,-2.11 2.45,-0.57 0.7,-0.03 2.44,1.35 1.4,0.23 1,1.22 4.38,2.21 0.59,0.12 0.35,-0.27 0.3,0.25 0.23,-0.03 0.48,-0.75 -0.3,-0.29 0,-0.53 -0.34,-0.53 0.02,-0.59 -0.15,-0.1 -0.76,0.2 -0.27,-0.22 0.14,-0.95 0.65,-0.27 0.25,0.04 -0.11,-0.44 -0.39,0.26 -0.15,-0.05 -0.06,-0.37 0.28,-0.31 0.57,-0.09 -0.29,-0.26 0.1,-0.37 0.23,-0.15 -0.21,-0.41 0,-0.3 0.13,-0.13 -0.25,-0.23 -0.03,-0.56 -0.2,0.66 -0.43,-0.03 -0.22,-0.31 -0.06,-0.65 0.23,-0.29 0.41,-0.11 0.66,0.22 0.29,-0.01 0.08,-0.36 0,0 0.26,0.2 0.62,0.12 0.35,-0.11 0.29,0.04 1.22,0.63 1.55,0.49 0.45,-0.18 0.03,-0.45 0.33,-0.11 0.34,0.45 -0.28,0.62 0.11,0.3 1.83,1.37 0.24,0.09 0.2,-0.28 0.26,0.16 0,0.16 -0.34,0.23 0.28,1.33 0.35,0.71 0.59,0.62 -0.11,0.16 -0.9,0.22 -0.13,0.29 0.9,2.18 0.57,0.23 0.51,0.92 1.81,2.26 0.98,0.25 0.24,0.46 0.78,0.94 -0.41,0.34 0.07,0.25 0.53,0.89 0.6,0.6 0.05,0.36 -0.44,-0.14 -0.48,0.29 -0.11,1.03 0.16,0.45 2.34,3.14 1.12,2.49 2.77,3.96 0.35,1.25 0.28,0.43 -0.02,0.27 -0.09,0.01 -0.25,-0.22 -0.1,-0.35 -0.29,-0.09 -0.25,1.11 0,0.76 0.18,0.57 0.32,0.53 0.61,0.63 0.34,0.11 0.39,-0.1 0,-0.38 0.44,0.37 -0.13,0.77 0.4,0.7 0.8,1.01 0.47,1.17 0.04,0.68 0.81,1.06 -0.26,0.36 0.03,0.31 0.69,1.04 0.64,0.64 0.06,0.22 -0.24,0.28 0.06,0.32 0.78,0.92 -0.44,0.4 0.12,0.58 -0.1,0.88 0.39,0.68 0.79,0.98 0.08,0.51 -0.45,0.25 -0.04,0.49 0.25,0.76 0.62,0.99 -0.01,0.27 -0.65,0.35 -0.08,0.19 -0.06,0.83 0.37,1.46 -0.3,0.25 -0.75,0.23 -0.27,-0.41 -0.26,-0.01 -0.78,0.75 -0.32,-0.02 -0.53,0.47 -0.58,-0.28 -0.47,-0.08 -0.55,0.26 -0.31,-0.22 -0.8,0.22 -0.3,-0.53 -0.95,-0.4 -0.68,-0.11 0.12,-0.37 0.46,-0.39 0.86,-1.06 -0.13,-0.04 -0.59,0.35 -0.5,-0.7 -2.15,-1.56 0.82,-1.09 -0.27,-0.57 0.6,-0.5 1.08,0 1.43,-0.99 0.15,-0.51 -0.83,0.69 -0.95,0.59 -0.37,-0.01 -0.5,-0.24 -0.7,0.42 -0.28,0.52 -0.03,0.3 -0.17,0.03 -0.47,-1.53 0.18,-0.73 -0.14,-0.35 -0.4,-0.64 -1.15,-1 -0.42,-0.51 -0.36,-1.23 -1.15,-0.49 -0.5,0.13 0.54,0.37 0.87,0.88 -0.09,0.49 0.25,0.82 0.11,0.17 1.05,0.69 0.67,1.52 -0.04,0.26 -0.42,0.49 0.23,1.77 -0.15,0.76 -0.74,0.65 -1.12,0.24 -1.47,-0.4 -1,0.03 -0.61,-0.31 -0.43,-0.47 -0.16,-0.48 -2.14,-0.74 -0.87,0.04 -1.11,1.16 -0.3,0.09 -0.97,-0.25 -0.37,-0.33 -0.3,-0.52 -0.3,0.07 0.17,0.56 -1.4,0.97 -1.24,1.39 -0.16,0.74 -0.36,0.59 -1.27,1.09 -0.92,0.05 -1.43,-0.39 -0.37,-1.23 0.09,-0.82 -0.2,-0.1 -0.18,0.18 0.13,1.86 0.48,0.9 -0.85,0.6 -0.43,0.58 -0.15,1.03 0.08,0.53 -0.19,0.06 -1.97,-2 -0.49,-0.24 -1.04,-2.45 -0.78,-2.59 -1.17,-2.77 -0.54,-0.84 -0.53,-0.5 -1.06,-0.76 -4.43,-1.74 -1.56,-0.77 -1.15,-0.65 -1.09,-0.95 -2.28,-1.66 -1.35,-0.66 -0.92,-0.39 -0.84,-0.17 -1.7,0.08 -2.21,-2.1 0.36,-0.37 0.03,-0.35 -2.76,-1.7 -1.15,-0.37 -1.1,-0.18 -1.59,0.02 -0.78,0.56 -0.2,-0.02 -0.75,-0.56 -1.41,-1.95 -1.62,-1.91 -2.74,-2.62 -0.28,-1.21 -0.46,-0.56 -1.59,-1.09 -0.74,-0.32 0,0 0.7,-0.17 0,0 0.19,-0.06 z m 67.7,-31.45 0.38,0.17 -0.06,0.26 0.32,0.36 0.31,1.53 0.29,0.47 0.24,0.79 0.32,0.25 -0.06,0.2 -0.23,-0.09 -0.14,0.2 0.07,0.46 0.73,0.53 -0.08,0.55 -0.25,0.39 0.14,0.38 -0.15,0.62 -0.11,0.06 -1.29,0.01 -0.58,0.17 -0.31,-0.07 -0.4,-0.22 -1.13,-1.05 0.07,-0.51 -0.2,-0.9 0.68,-0.82 1.01,-0.67 0.19,-0.34 -0.21,-0.74 -0.42,-0.35 -0.01,-0.42 0.25,-0.43 0.07,-0.65 0.56,-0.14 z" 
                fill="rgb(151, 144, 238)" 
                stroke="white" 
                stroke-width=".7px"
                title="Johor" 
                id="MY-01" 
            />
        </svg>