<svg xmlns="http://www.w3.org/2000/svg" viewBox="0.27392032000000077 33.60081500000005 60.19999967999999 58.439999999999976" width="60.19999967999999" height="58.439999999999976">
            <path 
                d="m 7.8839203,46.570815 0.11,0.32 -0.09,0.31 -0.37,0.84 -0.18,0.11 0,0.56 -0.11,0.04 -0.31,-0.45 -0.19,-0.63 -0.13,0.03 -0.24,0.41 -0.22,-0.1 0.11,-0.39 -0.32,-0.39 -0.34,-0.12 -0.04,-0.47 -0.18,-0.17 0.33,-0.45 0.49,-0.34 0.3,-0.72 0.1,-0.63 0.78,-0.3 0.35,-0.27 -0.01,-0.17 0.34,-0.24 0.22,0.02 0.04,0.77 -0.63,0.32 -0.05,0.41 0.09,0.27 0.08,0.08 0.25,-0.55 0.46,-0.26 0.62,0.65 0.02,0.25 -0.19,0.28 0.33,0.04 -0.01,0.21 -0.28,0.75 -0.15,0.12 -0.13,-0.53 -0.76,0.11 -0.16,0.18 0.07,0.1 z m 0.25,-10.37 0.71,0.46 0.18,0.41 -0.15,0.18 0.05,0.39 1.5399997,0.92 0.22,0.5 0.05,0.46 0.35,-0.19 0.08,0.11 0.04,0.29 -0.24,0.56 -0.22,0.23 0.07,0.2 0.48,0.49 -0.13,0.82 -0.43,0.05 -0.7899997,0.34 0.03,0.3 -0.11,0.12 -0.57,0.24 0.02,0.2 -0.17,0.03 -0.33,-0.08 -0.16,-0.27 0.18,-0.18 -0.25,-0.47 -0.3,-0.15 -0.99,0.14 -0.47,0.22 -0.01,0.31 -0.16,0.27 -1.09,0.92 -0.21,-0.15 -0.37,-0.03 -0.28,0.17 0.04,0.28 -0.1,0.13 -0.55,0.42 -0.27,-0.01 -0.09,-0.13 0.16,-0.4 -0.08,-0.44 -0.62,-1.09 0.36,-0.63 -0.1,-0.87 -0.32,-0.57 -0.75,0.23 -0.41,-0.17 -0.18,-0.28 -0.89999998,0.26 -0.16,-0.08 -0.23,-0.33 -0.21,-0.94 0.13,-0.42 -0.15,-1.26 0.34,-0.09 0.69999998,0.46 0.27,-0.07 0.18,-0.34 0.42,0.15 0.67,-0.17 0.86,0.25 0.24,-0.04 -0.14,0.52 0.11,0.16 0.19,0.03 0.13,-0.46 0.21,-0.05 1.3,0.21 0.62,-0.13 0.84,-1.21 0.4,0.14 0.27,-0.21 0.63,0.47 -0.23,-0.62 -0.85,-0.16 -0.02,-0.15 0.28,-0.37 0.44,0.17 z m 22.1499997,-2.34 1.76,0.46 1.18,-0.47 0.46,0.43 0.84,-0.18 0.22,0.14 0.35,0.84 0.94,0.56 0.86,0.09 0.12,-0.23 0.4,-0.2 0.5,0.51 1.37,0.48 1.14,0.54 1.06,0.26 0.85,-0.1 1.01,-0.7 0.18,-0.45 0.79,-1.11 0.12,0 0.32,0.21 -0.02,0.66 0.13,0.74 0.25,0.42 1.21,0.18 1.13,0.42 0.52,0.58 0.09,0.37 -0.18,0.89 0.03,1.7 0.33,0.39 0.46,-0.41 0.24,0.12 0.08,1.68 -0.5,0.56 -0.07,0.38 0.75,1.82 0.28,0.15 0.27,-0.15 0.26,-0.6 0.21,-0.14 1.04,0.67 0.6,-0.26 0.82,0.07 0.29,-0.23 0.96,-1.28 0.26,-0.09 0.42,0.22 0.41,0.61 0.54,0.5 0.31,0.12 2.98,-0.3 0.68,0.36 0.07,0.13 -0.26,0.44 0.86,1.72 -0.31,0.4 -0.45,0.24 -1.29,0.37 -0.2,0.47 -0.49,0.65 1.4,0.53 1.56,1.1 0.05,0.22 -0.09,0.16 -0.43,0.27 -0.21,0.66 -0.39,0.32 -0.12,0.27 0.39,0.65 -0.24,1.6 0.83,0.84 -1.16,1.35 -0.43,0.79 0.06,0.29 -0.14,0.28 -0.41,-0.28 -0.77,0.08 -0.81,-0.08 -0.43,0.21 0.14,0.46 -0.79,1.12 -0.01,1.11 0.13,0.56 -0.51,0.56 -0.49,0.32 -0.04,0.36 0.14,0.41 0,0 0.04,0.18 -0.21,0.56 -0.33,0.03 -0.82,-0.2 -0.14,0.03 -0.11,0.21 0.06,1.05 0.45,0.54 0.53,0.31 0.19,0.26 0.04,0.3 -0.39,1.1 0.02,0.74 -0.13,0.51 -0.41,0.14 -0.4,-0.08 -0.24,0.88 -0.58,0.45 -0.07,0.2 0.03,0.54 0.45,0.53 0.05,0.95 0.19,0.34 0,0.27 -0.93,1.97 -0.6,0.28 -0.69,-0.17 -0.31,0.22 -0.23,0.41 -0.27,0.82 -0.04,1.18 -0.49,0.82 0.11,0.66 -0.42,1.85 -0.5,0.26 -0.93,0.95 -0.48,-0.05 -0.67,0.22 -0.53,-0.12 -1.1,0.25 -0.08,0.4 -0.27,0.38 0.02,0.98 -0.37,0.37 -0.49,0.12 -0.42,0.25 -0.18,0.06 -0.32,-0.1 -0.1,0.08 -0.1,0.52 -0.73,1.07 0.23,0.35 -0.28,0.67 -0.21,0.14 -0.52,0.01 -0.38,0.36 -0.39,0.04 -0.65,1.53 -0.21,0.13 -0.88,0.09 -0.57,1.01 -0.5,0.51 -0.25,0.01 -0.44,-0.39 -0.54,0.19 -0.73,-0.29 -0.12,-0.35 0.28,-0.34 -0.03,-0.17 -0.31,-0.27 -0.41,0.14 -0.17,-0.42 0.35,-0.52 0,0 0.95,0.12 0.75,0.26 0.18,-0.19 -0.62,-5.08 -0.03,-1.21 -0.33,-2.82 0.06,-0.95 -0.08,-0.64 0.17,-2.9 -0.04,-3.17 -0.29,-0.25 -0.62,-0.13 -0.69,0.34 -0.34,0.05 -0.53,-0.06 -0.76,-0.31 -1.14,0.06 -1.18,-0.68 -0.65,-0.05 -0.42,0.26 -0.69,-0.02 0,0 -0.24,-0.09 -0.1,-0.2 0.09,-1.52 -0.13,-1.55 0.62,-1.11 -0.16,-0.81 0.5,-1.13 0.22,-1.49 -0.07,-2.16 -0.49,-4.61 -0.29,-1.48 -0.81,-2.68 -0.6,-0.95 -0.85,-0.74 -0.26,-0.39 -0.48,-2.25 -0.7,-1.52 -1.21,-1.59 -1.25,-0.8 0.07,-0.18 0,0 0.21,-0.89 0.33,-0.59 1.57,-1.67 0.4,-0.63 0.94,-0.87 0.9,-1.47 1.77,-1.27 0.71,-0.88 0.09,-0.23 0.17,-2.9 0,0 0.57,0.26 z" 
                fill="rgb(151, 144, 238)" 
                stroke="white" 
                stroke-width=".7px"
                title="Kedah" 
                id="MY-02" 
            />
        </svg>