<svg xmlns="http://www.w3.org/2000/svg" viewBox="68.70392 45.550815 53.67999999999995 68.13999500000006" width="53.67999999999995" height="68.13999500000006">
            <path 
                d="m 99.25392,45.550815 2.02,1.37 1.19,0.3 0.19,-0.22 -0.08,-0.37 1.41,-0.41 0.38,0.08 0.37,0.78 0.18,-0.13 0.15,-0.38 2.39,1.14 1.12,0.35 0.91,0.62 1.16,1.67 3.02,6.88 0.72,1.35 0.58,0.82 -0.26,0.25 0.08,0.53 1,0.81 0.37,-0.19 0.99,0.77 0,0 -0.84,1.08 -0.92,0.76 -0.81,1.1 -1.43,1.12 -0.75,0.93 -1.43,1.27 0.04,1.14 0.48,1.68 0.07,1.44 0.39,1.2 -0.14,0.53 -0.47,0.71 -0.04,0.41 0,1.36 0.3,0.66 0.06,1.13 -0.66,0.4 -0.03,0.26 0.17,0.24 1.27,0.83 0.4,0.62 0.41,0.18 0.12,0.18 -0.37,0.68 -0.08,0.75 -0.42,0.77 -0.09,0.42 -0.11,2.36 0.23,1.16 -0.28,1.41 0.75,0.11 2.08,1.03 0.38,0.51 0.8,0.49 0.49,1.01 -0.13,0.37 -0.56,0.19 -0.3,0.5 0.08,0.37 0.49,0.6 0.19,0.91 -0.54,1.2 0.47,1.64 0.01,0.4 -0.17,0.55 0.02,1.2 0.17,0.2 0.29,0.07 0.59,-0.18 0.68,0.04 0.81,0.469995 0.47,0.47 0.61,0.06 1.74,1.07 0.1,0.2 -0.07,0.92 0.28,0.43 0.44,1.3 -0.1,0.34 -0.31,0.37 0,0 -0.37,0.01 -1.22,-0.65 -0.38,0.13 -0.32,0.4 -0.06,0.43 0.42,2.24 -0.43,0.16 -0.75,-0.07 -0.26,-0.05 -0.48,-0.38 -0.43,0.02 -0.79,1.07 -0.55,0.48 -0.31,0.05 -0.26,-0.1 -0.66,-0.5 -0.79,-0.91 -0.4,-0.3 -0.53,-0.13 -1.6,-0.06 -1.35,0.28 -0.13,0.27 0.17,0.91 -1.42,1.66 -0.54,0.11 -0.77,-0.31 -0.67,-0.48 -1.71,0 -0.22,0.13 -0.23,0.94 -0.31,0.04 -0.46,-0.11 -0.91,-0.91 -0.66,-0.41 -0.23,-0.85 -0.35,-0.57 -1.22,-0.85 -0.14,-1.04 -0.51,-0.57 -0.29,-0.03 -0.5,0.16 -1.44,0.69 -0.45,0.34 -0.6,-0.44 -0.58,0.29 -0.26,-0.15 -0.35,-0.49 -0.13,-0.47 -0.27,0.15 -0.21,0.58 -0.39,-0.12 -0.35,-0.52 -0.23,-0.12 -0.32,0.24 -0.26,0.41 0.16,1.43 -0.38,1.62 -0.71,0.71 -0.49,1.52 -0.25,0.07 -0.4,-0.31 -0.14,-0.27 0.06,-0.78 -0.19,-0.94 -0.45,-0.34 -1.02,-0.23 -0.16,-0.12 -0.4,-1.26 -0.18,-0.14 -0.41,0.02 -0.32,-0.35 0.19,-0.62 -0.17,-0.39 -0.39,-0.23 -1,0.01 -0.33,0.32 -0.15,0.5 0,0.47 0.23,0.75 -0.27,1.05 0.14,0.88 -0.44,1.4 -0.53,0.53 -0.7,-0.32 -0.22,0.01 -0.39,0.68 -1.02,0.29 -0.67,0.37 -0.41,0.92 -0.46,0.32 -0.42,0.03 -0.64,0.3 -0.94,-0.44 -0.49,0.33 -0.31,-0.16 -0.44,-0.57 -0.73,-0.19 -1.07,-1.27 -0.47,-0.13 -0.97,0.12 -0.35,0.27 -0.53,0.81 -0.42,0.19 -0.92,-0.52 -1.35,-1.07 -0.95,0.19 0,0 -0.57,-0.69 -0.8,-1.42 -0.37,-0.46 -0.19,-0.4 -0.01,-0.54 0.32,-0.48 0.8,0.16 0.73,-0.16 0.11,-0.29 -0.4,-1.5 0.18,-0.2 0.71,-0.25 0.62,-1.61 0.04,-0.19 -0.29,-0.87 0.08,-0.45 0.36,-0.38 1.3,-0.33 -0.4,-0.37 0.09,-0.3 0.41,-0.39 0.16,-0.539995 -0.21,-1.14 0.02,-0.85 -0.85,-0.76 -0.04,-0.43 0.89,-0.87 0.05,-0.25 -0.13,-0.31 0.44,-0.56 0.29,-1.42 0.77,-0.76 -0.11,-0.79 0.21,-1.02 -0.09,-0.61 0.17,-0.46 -0.01,-0.55 0.25,-0.56 0.66,-0.81 -0.08,-0.78 0.62,-0.86 -0.19,-0.71 0.05,-0.32 0.16,-0.11 0.56,0.09 0.54,-0.58 0.6,-0.24 0.18,-1.08 0.18,-0.29 0.55,-0.39 0.2,-1.03 0.2,-0.21 0.59,0.18 0.82,0.91 1.8,0.5 0.45,-0.02 0.52,-0.22 0.31,-0.32 0.81,-0.19 0.71,-1.05 0,-0.4 -0.29,-0.48 -0.04,-0.42 0.25,0.31 2.05,1.59 1.59,0.03 1.9,0.25 0.84,-0.04 0.47,-0.35 1.84,-2.01 0.08,-0.3 -0.22,-0.94 0.03,-0.4 0.36,-0.3 0.46,-0.09 0.5,-0.73 0.03,-0.19 -0.25,-0.53 0.35,-1.57 -0.63,-0.24 -0.56,0.03 -0.09,-0.22 0.31,-1.35 -0.03,-0.49 -0.27,-0.41 -0.69,-0.39 0.23,-0.62 0.63,-0.2 0.14,-0.77 0.25,-0.31 -0.04,-0.3 -0.56,-0.7 -0.16,-0.46 0,-0.28 0.38,-0.36 0.1,-0.37 -0.28,-0.16 -0.33,0.26 -0.29,0.02 -0.35,-0.66 -0.54,-0.15 -0.15,-0.51 -1.03,-0.63 -0.17,-0.32 -0.19,-1.03 -0.48,-0.68 0,0 -0.07,-0.38 0.26,-0.63 0.54,-0.25 0.81,0.01 0.97,-0.96 0.04,-0.4 -0.38,-1.11 -0.42,-0.24 -0.04,-0.28 0.32,-0.72 0,-0.55 0.32,0.01 0.23,-0.19 -0.03,-1.1 0.14,-0.24 1.07,-0.77 -0.03,-0.54 0.66,-0.73 1.14,-0.67 1.11,-0.9 0.42,-0.16 0.32,-0.92 0.63,-0.72 0.22,-0.63 0.41,-0.42 -0.58,-1 -0.05,-0.79 0.13,-1.38 0.55,-0.64 z" 
                fill="rgb(151, 144, 238)" 
                stroke="white" 
                stroke-width=".7px"
                title="Kelantan" 
                id="MY-03" 
            />
        </svg>