<svg xmlns="http://www.w3.org/2000/svg" viewBox="94.30392 196.22081 24.990000000000023 15.500000000000028" width="24.990000000000023" height="15.500000000000028">
            <path 
                d="m 94.30392,200.93081 1.08,-0.47 0.38,-0.6 0.92,-0.73 0.08,-0.37 0.75,0.15 0.4,-0.83 0.56,-0.4 1.43,0.13 0.15,-0.15 1.41,-0.03 0.94,-1.41 0.61,0.17 1.36,0.9 0.93,0.25 1.5,-0.05 2.31,-0.9 0.92,-0.14 1.53,0.36 0.62,0.35 0.49,0.52 0.43,0.18 2.61,0.61 2.49,0.91 1.09,-0.09 0,0 -0.12,0.54 -1.78,0.69 -0.1,0.62 -0.88,0.76 -0.59,3.18 -0.25,0.43 0,1.68 -0.19,0.31 -0.56,0.36 -0.05,0.28 0.13,0.53 1.5,0.53 0.49,0.46 0.08,0.32 -0.05,0.94 -0.64,0.37 0,0 -1.12,0.26 0,0 -0.7,0.17 0,0 -1.25,-0.2 -1.42,-0.77 -1.31,-0.07 -1.1,-0.74 -1.04,-0.22 -0.49,-0.4 -2.43,-0.77 -2.05,-1.26 -0.78,-0.12 -0.48,0.19 -0.36,-0.03 -0.57,-1.05 -0.82,-0.99 -1.13,-0.61 -0.58,-0.5 -0.3,-0.98 -0.51,-0.79 -1.7,-1.02 -0.58,-0.15 -1.02,-0.04 -0.24,-0.27 z" 
                fill="rgb(151, 144, 238)" 
                stroke="white" 
                stroke-width=".7px"
                title="Melaka" 
                id="MY-04" 
            />
        </svg>