<svg xmlns="http://www.w3.org/2000/svg" viewBox="83.84391999999997 164.74081 39.87000000000005 36.10999999999996" width="39.87000000000005" height="36.10999999999996">
            <path 
                d="m 92.19392,165.63081 0.05,-0.33 0.17,-0.23 0.53,-0.32 0.29,-0.01 0.29,0.27 0.72,0.08 0.23,0.34 0.27,0.85 0.38,0.34 1.54,0.1 0.49,0.15 0.31,0.52 0.08,0.7 0.32,0.85 0.33,0.31 0.47,-0.08 0.58,-0.7 0.67,-0.07 0.38,-0.41 0.31,0.06 0.55,-0.1 0.83,0.88 0.23,0.11 4.81,1.42 4.15,0.93 0.19,0.11 2.53,3.2 0.31,0.59 0.36,0.14 7.31,4.92 0.98,0.17 0.24,0.17 0.62,2.14 0,0 -2.82,7.87 0.1,0.49 0.42,0.73 -0.1,0.29 -0.69,0.35 -0.05,0.42 -0.36,0.59 -0.04,0.92 0.23,0.96 -0.33,0.74 0.23,0.9 -0.09,0.36 -0.67,0.48 -0.2,0.31 -0.06,1.07 0,0 -1.09,0.09 -2.49,-0.91 -2.61,-0.61 -0.43,-0.18 -0.49,-0.52 -0.62,-0.35 -1.53,-0.36 -0.92,0.14 -2.31,0.9 -1.5,0.05 -0.93,-0.25 -1.36,-0.9 -0.61,-0.17 -0.94,1.41 -1.41,0.03 -0.15,0.15 -1.43,-0.13 -0.56,0.4 -0.4,0.83 -0.75,-0.15 -0.08,0.37 -0.92,0.73 -0.38,0.6 -1.08,0.47 0,0 -0.11,-0.32 0.13,-0.23 -0.16,-0.42 -0.63,-0.12 -0.32,-0.23 -0.22,-0.42 -0.37,-0.18 -0.38,-0.01 -0.96,0.33 -0.58,-0.12 -0.64,0.04 -0.29,0.16 -0.04,0.42 -0.18,0.02 -0.24,-0.32 0.32,-0.34 0.08,-0.64 -0.56,-2.08 -1.01,-1.31 -0.37,-0.09 -0.28,0.11 -0.5,-0.06 -0.04,-0.38 0.39,-0.45 -0.17,-1.29 -0.62,-0.64 -0.98,-0.49 -0.48,0.01 -0.56,0.35 -0.58,-0.06 -0.1,-0.16 0,0 0.05,-0.29 0.86,-0.28 -0.06,-0.89 0.61,-0.58 -0.16,-0.54 0.39,-0.48 0.16,-0.47 0.15,-1.26 -0.52,-6.1 4.91,0.17 0.67,-0.81 1.44,-3.31 0.67,-1.1 0.1,-0.6 1.11,-0.68 0.03,-0.66 -0.92,-2 0.08,-0.51 0.46,-0.82 0.02,-0.42 -0.48,-0.98 -0.17,-0.85 0.01,-0.99 -0.48,-0.8 -0.1,-0.85 -0.48,-0.2 z" 
                fill="rgb(151, 144, 238)" 
                stroke="white" 
                stroke-width=".7px"
                title="Negeri Sembilan" 
                id="MY-05" 
            />
        </svg>