<svg xmlns="http://www.w3.org/2000/svg" viewBox="29.253920000000022 57.930804999999886 66.12999999999997 91.27000500000011" width="66.12999999999997" height="91.27000500000011">
            <path 
                d="m 39.58392,109.65081 1.92,1.69 -0.15,0.4 -0.21,0.01 -0.22,0.21 0.18,0.99 -0.52,0.08 -0.62,0.34 -0.39,0.07 -0.96,-0.4 -0.29,0 -0.1,-0.12 0.21,-0.86 -0.07,-0.54 0.2,-0.61 0.49,-0.84 0.53,-0.42 z m 0.17,-4.38 1.56,0.71 0.29,0.7 -1,1.89 -0.11,0.07 -0.55,-0.16 -0.48,0.08 -0.68,0.31 -0.64,-1.89 -0.15,-1.03 0.04,-0.44 0.31,-0.56 0.56,0.2 0.85,0.12 z m 38.84,-47.339995 1.67,1.41 0.5,0.79 1.07,0.3 0.09,0.31 -0.03,1.98 0.32,0.59 0.85,0.78 0.37,0.86 0.25,0.03 0.22,-0.22 0.14,-0.62 0.3,-0.21 0.46,-0.11 0.48,-0.34 0.4,-0.09 0.32,0.15 0.69,1.26 0.74,0.71 0.53,0.37 0.34,-0.04 -0.04,-1.05 0.34,-0.94 0.68,-0.11 0.79,-0.69 0.49,-0.19 0,0 0.48,0.68 0.19,1.02 0.19,0.31 1.03,0.63 0.15,0.51 0.54,0.15 0.35,0.66 0.29,-0.02 0.33,-0.26 0.28,0.16 -0.1,0.37 -0.38,0.36 0,0.28 0.16,0.46 0.56,0.7 0.04,0.3 -0.25,0.31 -0.14,0.77 -0.63,0.2 -0.23,0.62 0.69,0.39 0.27,0.41 0.03,0.49 -0.31,1.35 0.09,0.22 0.56,-0.03 0.63,0.24 -0.35,1.57 0.25,0.53 -0.03,0.19 -0.5,0.73 -0.46,0.09 -0.38,0.31 -0.02,0.38 0.22,0.94 -0.08,0.3 -1.84,2.01 -0.47,0.35 -0.84,0.04 -1.9,-0.25 -1.59,-0.03 -2.05,-1.59 -0.25,-0.31 0.04,0.42 0.29,0.48 0,0.4 -0.71,1.05 -0.81,0.19 -0.31,0.32 -0.52,0.22 -0.45,0.02 -1.8,-0.5 -0.82,-0.91 -0.59,-0.18 -0.2,0.21 -0.2,1.03 -0.55,0.39 -0.18,0.29 -0.18,1.08 -0.6,0.24 -0.54,0.58 -0.56,-0.09 -0.16,0.11 -0.05,0.32 0.19,0.71 -0.63,0.88 0.12,0.75 -0.66,0.81 -0.25,0.56 0.01,0.55 -0.17,0.46 0.09,0.61 -0.21,1.02 0.11,0.79 -0.77,0.76 -0.29,1.42 -0.44,0.56 0.13,0.31 -0.05,0.25 -0.89,0.87 0.04,0.43 0.85,0.76 -0.02,0.85 0.21,1.14 -0.16,0.539995 -0.41,0.39 -0.09,0.3 0.4,0.37 -1.3,0.33 -0.36,0.38 -0.08,0.45 0.29,0.87 -0.04,0.19 -0.62,1.61 -0.71,0.25 -0.18,0.2 0.4,1.5 -0.11,0.29 -0.73,0.16 -0.8,-0.16 -0.32,0.48 0.01,0.54 0.19,0.4 0.37,0.46 0.8,1.42 0.57,0.69 0,0 -0.54,0.02 -0.39,0.28 -0.33,0.38 -0.08,0.44 0.23,1.92 0.25,0.33 0.75,0.34 0.05,0.38 -0.25,0.37 -0.59,0.23 -0.29,1.08 -0.28,0.45 -0.56,0.34 -0.15,0.48 0.08,0.22 0.28,0.02 0.36,0.2 0.17,0.36 0.08,0.63 0.2,0.17 1.38,-0.3 0.55,0.39 0.82,0.15 0.42,0.29 0.11,0.29 -0.56,1.33 0.15,0.29 0.61,0.42 0.09,0.24 0.02,0.92 -0.19,0.6 0.06,0.27 0.64,0.86 -0.42,0.51 0.15,0.68 0.21,0.3 0.3,0.14 1.56,0.17 0,0.31 -0.43,1.39 0.44,1.55 0.26,0.19 0.71,-0.03 1.5,1.04 0.48,0.63 0.02,0.57 -0.85,1.2 -0.18,0.73 0.15,0.34 0.53,0.46 0.11,0.3 0.05,1.48 -0.15,0.61 0.13,0.42 0.04,1.2 0.8,0.69 0.29,1.1 0,0.33 -0.42,0.52 -0.1,1.34 1.04,0.43 0.37,0.76 0,0 -0.99,-0.05 -0.13,0.26 0.25,0.33 -0.08,0.44 -0.28,0.38 -0.29,-0.14 -0.26,0.23 -0.29,0.56 0.15,0.41 -0.16,0.37 -0.4,0.25 -0.46,0.1 -0.44,0.77 -0.55,0.12 -0.53,-0.18 -1.38,-1.29 -1.21,-0.49 -0.24,-0.76 -0.19,-0.17 -0.74,-0.3 -1.07,-0.71 -0.33,0.07 -0.14,-0.83 -0.42,-0.36 -0.64,-0.1 -0.42,0.25 -0.38,0.04 -0.07,0.28 -0.38,0.48 0.81,2.18 -0.03,0.96 -0.33,0.25 -0.79,0.21 -0.36,0.4 -0.56,-0.03 -0.74,0.3 -0.84,-0.11 -0.34,-0.16 -0.03,-1.17 0.11,-0.6 -0.17,-0.04 -1.18,0.44 -0.49,-0.36 -0.29,-0.05 -0.88,0.24 -0.54,-0.63 -0.21,-0.61 -0.1,0.04 -0.1,0.42 -0.36,-0.04 -0.25,-0.18 0.27,-0.48 -0.34,-0.46 -0.5,0.77 -0.4,-0.09 -0.21,0.43 -0.13,0.02 -0.44,-0.41 -0.63,0.61 -0.17,-0.13 0,-0.14 0.2,-1.06 0.22,-0.05 0.51,0.21 0.18,-0.05 -0.41,-0.39 0,-0.48 -0.09,-0.09 -0.9,1 -0.27,-0.02 -0.16,-0.94 0.05,-0.51 -1.1,0.4 -0.1,-0.21 0.06,-0.4 -0.13,-0.11 -0.21,-0.09 -0.83,0.08 -0.38,0.23 -0.13,0.62 -0.21,0.3 -0.57,-0.06 -0.21,-0.19 -0.14,-0.55 0.13,-0.37 0.4,-0.36 0.06,-0.31 -0.22,-0.24 -0.96,-0.27 -0.24,-0.19 0.04,-1.11 -0.15,-0.16 -1.35,0.46 -3.01,0.3 -0.26,0.25 -0.22,1.11 -0.27,0.38 0,0 0.37,-1.61 0.03,-0.55 -0.66,-0.09 -0.6,0.17 -0.51,0.35 -0.88,-0.19 -1.59,-1.05 -0.38,-1.28 -0.18,-1.83 0.15,-1.47 0.17,-0.36 0.23,-0.17 0.55,-0.02 1.32,-0.5 0.28,-1.1 -0.22,-1.62 -0.53,-0.76 -0.59,-0.38 -1.11,-1.43 -0.48,-0.39 -1.28,-0.46 -1.05,0 -0.43,0.56 -0.43,-0.32 -0.15,-0.6 -0.38,-0.42 0.01,-0.31 0.28,-0.21 -0.01,-0.42 -0.56,-0.47 -0.19,-0.69 0.62,0.1 0.71,0.31 0.65,-0.19 0.39,-0.26 0.36,-0.36 0.29,-0.52 -0.11,-0.55 0.3,-0.86 -0.06,-0.67 -0.38,-0.15 0.09,0.36 -0.3,1.13 -0.04,0.88 -0.66,0.59 -1.23,-0.17 -0.63,-0.2 -0.18,-1.41 -0.44,-0.73 -0.11,-0.09 -0.6,0.1 0.05,-0.45 0.31,-0.45 0.73,-1.71 0.09,-1.52 -0.2,-0.18 0.37,-0.56 0.18,0.31 0.41,-0.08 0.25,-0.55 0.25,-1.28 -0.03,-1.61 0.16,-0.61 1.03,-0.79 0.48,-1.06 -0.21,-0.81 0.35,-0.25 0.06,-0.4 -1.67,-1.63 1.45,-1.4 0.55,-1.82 -0.3,-0.64 -0.87,-0.59 -1.15,-0.35 -0.14,-0.16 0.08,-0.49 0.37,-0.2 0.23,-0.39 -0.19,-0.61 0.24,-0.77 -0.2,-0.26 -0.86,-0.25 -0.66,0.03 -0.45,-0.73 -0.22,-0.03 -0.45,0.19 -0.43,-0.23 -0.07,-0.51 0.21,-0.13 0.03,-0.23 -0.65,-0.349995 0.09,-0.23 0.11,-0.1 0.19,0.04 0.48,0.49 0.2,0.02998 0.36,-0.19999 0.21,-0.2 -0.1,-0.64 0.17,-0.18 -0.13,-0.23 -0.32,-0.12 -0.61,0.37 -0.33,-0.55 -0.38,0 -0.24,0.22 0.22,0.54 -0.18,0.03 -0.26,-0.21 -0.16,0.11 -0.02,0.16 0.25,0.38 -0.18,0.15 -0.27,-0.48 -0.28,-0.23 -1.44,-0.47 -0.95,0.5 -0.2,-0.01 -0.52,-0.64 -0.34,-0.74 -0.1,-1.69 -0.09,-0.12 -0.43,0.19 -0.16,-0.17 -0.38,-0.83 -0.19,-0.85 -0.25,-0.35 -0.07,-0.39 -0.35,-0.75 -0.48,-0.6 0.01,-0.26 0.2,-0.35 0.74,-0.45 0.22,-0.71 0,0 0.53,0.08 3.04,-0.3 0.37,-0.07 0.38,-0.33 0.3,-0.01 0,0 -0.35,0.52 0.19,0.43 0.42,-0.15 0.31,0.27 0.03,0.17 -0.28,0.34 0.12,0.35 0.73,0.29 0.54,-0.19 0.44,0.39 0.25,-0.01 0.5,-0.51 0.57,-1.01 0.88,-0.09 0.21,-0.13 0.65,-1.53 0.39,-0.04 0.38,-0.36 0.52,-0.01 0.21,-0.14 0.28,-0.67 -0.23,-0.35 0.73,-1.07 0.1,-0.52 0.1,-0.08 0.32,0.1 0.17,-0.05 0.4,-0.26 0.49,-0.12 0.37,-0.37 -0.02,-0.98 0.27,-0.38 0.08,-0.4 1.1,-0.25 0.53,0.12 0.67,-0.22 0.48,0.05 0.93,-0.95 0.5,-0.26 0.42,-1.85 -0.11,-0.66 0.49,-0.82 0.04,-1.18 0.27,-0.82 0.23,-0.41 0.31,-0.22 0.69,0.17 0.6,-0.28 0.93,-1.97 0,-0.27 -0.19,-0.34 -0.05,-0.93 -0.45,-0.53 -0.03,-0.54 0.07,-0.2 0.58,-0.45 0.24,-0.88 0.4,0.08 0.41,-0.14 0.13,-0.51 -0.02,-0.74 0.39,-1.1 -0.04,-0.3 -0.19,-0.26 -0.53,-0.31 -0.45,-0.54 -0.06,-1.05 0.11,-0.21 0.14,-0.03 0.82,0.2 0.33,-0.03 0.21,-0.56 -0.04,-0.18 0,0 1.05,0.73 0.57,1.02 0.19,0.09 0.9,-0.07 0.29,0.25 1.8,2.41 0.57,1.02 0.36,0.77 0.09,0.84 0.94,-0.64 0.66,-0.75 0.87,-0.19 0.41,-0.28 1.03,-1.21 1.04,-0.92 0.11,-0.7 -0.4,-1.19 0.54,-1.42 0.73,-0.83 0.29,-0.16 0.2,0.05 0.9,0.5 1.19,-0.47 0.96,-0.64 1.01,-1.56 0.68,-0.15 2.42,0.16 0.56,-0.15 2.24,-1.63 1.03,-0.19 0.69,-0.44 z" 
                fill="rgb(151, 144, 238)" 
                stroke="white" 
                stroke-width=".7px"
                title="Perak" 
                id="MY-08" 
            />
        </svg>