<svg xmlns="http://www.w3.org/2000/svg" viewBox="19.773919999999983 26.090815 9.970000000000006 18.919999999999995" width="9.970000000000006" height="18.919999999999995">
            <path 
                d="m 23.05392,26.090815 0.39,0.13 0.81,1.06 0.72,-0.17 0,-0.34 0.18,-0.16 0.15,0.2 -0.01,0.47 0.46,0.1 -0.01,-0.22 0.24,-0.44 0.69,-0.03 0.02,0.88 0.31,0.48 0.86,0.48 -0.09,0.84 0.13,0.96 -0.48,0.35 -0.02,0.24 1.63,1.35 0.22,0.97 0.49,0.38 0,0 -0.17,2.9 -0.1,0.22 -0.71,0.89 -1.76,1.26 -0.9,1.47 -0.95,0.87 -0.4,0.63 -1.57,1.67 -0.34,0.59 -0.21,0.89 0,0 -0.39,-0.32 -0.62,-1.16 -1.37,-3.81 -0.37,-0.44 -0.11,-0.34 0.08,-0.58 0.86,-1.37 -0.11,-0.23 0.01,-0.39 0.58,-0.76 -0.24,-2.66 0.12,-0.95 0.06,-0.07 0.19,0.19 0.68,0.1 0.18,-0.22 -0.62,-1.45 -0.11,-0.71 0.3,-0.72 0.3,-0.24 -0.11,-0.55 0.07,-0.47 -0.26,-0.17 -0.07,-0.4 0.34,-0.2 0.3,-0.7 z" 
                fill="rgb(151, 144, 238)" 
                stroke="white" 
                stroke-width=".7px"
                title="Perlis" 
                id="MY-09" 
            />
        </svg>