<svg xmlns="http://www.w3.org/2000/svg" viewBox="21.833919999999992 72.02081499999998 15.119999999999997 18.31999999999998" width="15.119999999999997" height="18.31999999999998">
            <path 
                d="m 25.83392,76.300815 0.42,0.44 0.29,-0.08 0.65,0.18 0.15,0.41 0,0.67 0.69,0.51 0.67,0.11 -0.06,0.37 -1.12,1.21 -0.07,1.27 -1.29,3.29 0.04,0.38 -0.13,0.13 -0.24,-0.02 -0.31,-0.61 -0.3,-0.23 -0.42,-0.02 -0.86,-0.31 -0.46,0.19 -1.08,0.06 -0.17,0.25 -0.01,0.35 -0.3,-0.55 0.24,-0.63 -0.07,-0.39 0.29,-0.18 0.28,-0.01 -0.1,-0.6 0.06,-0.67 -0.38,-1.15 -0.09,-0.87 0,-1.54 -0.13,-0.48 0.15,-0.51 -0.09,-0.41 -0.25,-0.21 0,-0.13 0.18,-0.16 0.3,0.26 0.97,0.45 1.07,-0.22 0.71,-0.71 0.77,0.16 z m 2.94,-4.04 0.69,0.02 0.42,-0.26 0.65,0.05 1.18,0.68 1.14,-0.06 0.76,0.31 0.53,0.06 0.34,-0.05 0.69,-0.34 0.62,0.13 0.29,0.25 0.04,3.17 -0.17,2.9 0.08,0.64 -0.06,0.95 0.33,2.82 0.03,1.21 0.62,5.08 -0.18,0.19 -0.75,-0.26 -0.95,-0.12 0,0 -0.3,0.01 -0.38,0.33 -0.37,0.07 -3.04,0.3 -0.53,-0.08 0,0 0.09,-0.23 0.63,-0.49 0.64,-0.77 -0.01,-0.2 -0.2,-0.13 0.27,-1.85 -0.6,-1.9 0.31,-0.31 0,-0.33 -0.26,-1.07 -0.34,-0.31 0.11,-0.67 -1.64,-1.99 -0.1,-0.5 0.49,-0.99 0.25,-1.61 -0.39,-2.44 -0.39,-1.04 -0.27,-0.41 -0.65,-0.51 0.02,-0.13 0.36,-0.12 z" 
                fill="rgb(151, 144, 238)" 
                stroke="white" 
                stroke-width=".7px"
                title="Pulau Pinang" 
                id="MY-07" 
            />
        </svg>