<svg xmlns="http://www.w3.org/2000/svg" viewBox="633.7139199999997 0.2608148000000018 158.5300000000019 130.42999520000004" width="158.5300000000019" height="130.42999520000004">
            <path 
                d="m 713.80392,28.720815 0.02,-0.31 0.21,-0.28 0.31,-0.18 1.35,-0.14 1.4,0.3 0.58,-0.3 0.57,-0.5 -0.49,-0.5 -1.17,-0.29 -0.32,-0.83 0.16,-0.34 1.09,-0.51 0.34,0.18 0.83,0.13 1.03,-0.46 0.16,0.23 -0.04,0.29 0.77,1.47 0.65,0.77 0.02,0.79 -0.38,0.56 -0.84,0.55 -1.13,0.17 -0.9,0.63 -0.7,-0.09 -0.66,0.22 -0.63,-0.51 -1.44,-0.17 -0.79,-0.88 z m -17.38,-22.2300002 -0.01,-0.2 -0.5,-0.2 -0.42,0.18 0.16,-0.47 0.35,-0.09 0.31,0.06 0.1,0.17 0.13,-0.05 0.15,-0.15 0.06,-0.45 0.38,-0.01 0.74,0.26 0.62,-0.31 0.41,-0.36 0.91,0.35 0.35,-0.11 -0.25,-0.71 -0.45,-0.26 -0.21,-0.4 0.1,-0.56 0.5,-0.66 0.72,0.24 -0.21,0.55 0.36,0.35 0.81,0.28 0.1,-0.22 -0.29,-0.65 0.22,-1.07 -0.24,-0.8 -0.39,-0.67 -0.28,0.01 -0.34,0.47 -0.08,0.64 -0.32,0.42 -0.61,0.24 -1.37,0.85 -0.44,-0.01 -0.11,-0.3 -0.36,-0.03 -0.1,0.25 -0.46,0.3 -0.38,-0.06 -0.21,0.48 -0.02,0.39 -0.33,0.36 -0.29,0.63 0.02,0.52 -0.15,0.55 -0.39,0.61 0.07,0.21 0.28,0.17 1.36,-0.74 z m 6.36,0.74 0.04,0.27 0.37,0.09 -0.16,0.21 0.08,0.09 0.57,-0.05 -0.04,0.27 -0.44,0.4 -0.11,1.1 0.02,0.24 0.66,0.4300002 -0.18,0.52 0.1,0.09 0.64,-0.62 0.11,-0.3700002 -0.1,-0.42 0.16,-0.17 1.71,-0.94 0.83,-0.67 1.1,-0.42 0.3,0.18 1.13,0.02 0.48,-0.86 0.53,-0.58 0.09,0.13 -0.03,0.74 -0.26,0.53 0.2,0.12 0.44,-0.16 0.16,-0.13 -0.07,-0.24 0.16,-0.47 0.39,-0.26 0.44,-0.76 -0.11,-0.3 0.03,-0.36 -0.15,-0.03 -0.24,0.21 -0.34,-0.01 -0.13,-0.37 0.71,-0.37 -0.15,-0.15 -0.34,0.08 -0.13,-0.19 0.02,-0.27 0.47,-0.73 -0.01,-0.35 0.8,-0.58 0.07,-0.34 -0.53,-0.92 -0.21,-0.19 -0.19,0.11 -0.43,-0.02 -1.1,-0.5 -0.76,0.15 -0.54,0.35 -0.21,-0.06 -0.27,-0.33 -0.31,0.06 -0.44,0.58 -0.25,0.12 -0.33,-0.09 -0.09,-0.27 -0.17,-0.09 -0.28,0.66 -0.87,0.85 -0.66,0.25 -0.3,-0.15 -0.36,0.03 -0.63,0.29 -0.55,0.49 0.34,1.28 -0.41,0.98 -0.16,0.91 -0.03,0.2 0.47,0.13 -0.08,0.28 -0.21,0.03 -0.26,0.32 z m 60.09,103.7199952 0.42,1.14 0.24,-0.28 0.1,-0.63 0.2,-0.28 0.2,-0.13 0.33,0.08 0.28,-0.2 0.04,-0.37 -1.24,-0.54 -0.34,-0.31 -0.22,-0.03 -0.28,0.4 -0.65,-0.12 0.06,-0.26 -0.18,-0.22 -0.33,-0.01 -0.07,0.6 -0.2,0.2 -0.2,0 -0.07,-0.71 -0.43,-0.43 0.08,-0.2 -0.53,-0.09 -0.26,-0.23 -0.13,-0.21 0.1,-0.28 -0.2,-0.22 -0.25,-0.01 -0.72,0.59 -0.23,0.07 -0.05,0.44 0.09,0.27 -0.1,0.12 -0.97,0.09 -0.62,-0.2 -0.8,0.15 -1.09,-0.21 -0.63,0.17 -0.3,0.27 0.87,0.47 0.38,0.05 0.79,-0.16 1.48,0.58 1.23,0.18 0.24,0.25 0.13,0.57 0.77,0.11 0.17,-0.31 0.33,-0.15 1.44,0.85 0.72,-0.02 0.04,-0.19 -0.19,-0.15 0.28,-0.44 0.27,-0.06 z m 29.16,-25.309995 -0.42,0.19 -0.12,-0.13 0.04,-0.32 -0.22,-0.53 0.09,-0.28 0.32,-0.2 0.33,-1.33 -0.32,-1.95 -0.63,-1.18 -1.64,-1.63 -1.67,-0.84 -0.67,0.08 -1.32,0.47 -0.38,0.97 -0.73,0.32 -0.88,0.13 -1.94,-0.27 -2.22,-0.89 -0.53,-0.07 -0.08,0.35 0.21,1.18 -0.07,0.47 -0.97,0.29 -0.66,-0.01 -1.03,-0.44 0.91,-0.64 0.68,-0.1 0.19,-0.3 0.45,-0.25 -0.54,-0.82 -1.13,-0.78 -1.73,-0.86 -1.28,-1.07 -0.43,-0.17 0.16,1.03 -0.03,0.84 -0.09,0.88 -0.3,0.21 -0.13,-0.46 0.01,-1.32 0.27,-0.7 -0.4,-0.64 -0.87,-0.69 -1.14,-0.35 -1.46,-1.01 -2.31,-2.67 -0.38,-0.34 -0.49,-0.2 -0.49,0.09 -0.56,0.51 -0.45,0.23 -0.3,1.21 -0.1,1.02 -0.58,0.76 -0.34,1.25 -0.32,-0.01 -0.3,-0.29 0.31,-1.45 0.5,-0.41 0.34,-0.72 -0.2,-0.83 0.08,-0.73 0.57,-0.03 0.84,-0.64 -0.21,-0.5 -1.02,-1.07 -1.08,-0.56 -2.81,-2.01 -2.97,-1.63 -2.23,-1.56 -0.21,0.09 0.06,0.76 0.24,0.37 -0.13,0.82 -0.13,0.12 -0.59,-1.53 -0.27,-0.22 -1.41,-0.18 -1.98,-0.79 -0.13,-0.01 -0.29,0.45 -0.58,0.47 -2.52,0.62 -0.28,0.38 0.15,0.2 0.47,1.43 -0.31,0.46 -0.45,0.12 -0.3,-0.12 -0.37,0.58 0.9,1.42 -0.21,0.31 -0.46,0.18 -0.12,0.49 -0.24,0.09 -0.15,-0.15 -0.26,-1.49 -0.61,-0.19 -0.47,0.58 -0.81,-0.26 0.09,-0.69 -0.44,-0.04 -1,0.4 -0.43,0.62 -0.59,0.18 -0.56,0.46 -0.56,0.11 -1.09,-0.06 -0.44,0.5 0.05,-0.48 0.47,-0.47 -0.33,-0.1 -0.3,0.2 -0.17,-0.77 0.1,-0.37 0.38,-0.15 0.13,-0.22 -0.1,-0.31 -0.77,-0.17 -0.51,0.02 -0.45,-0.37 0.35,-0.48 -0.22,-0.07 -0.48,0.15 -0.4,-0.32 0.96,-0.44 -0.53,-0.56 0.04,-0.2 0.44,-0.01 0.31,-0.3 0.86,0.27 0.68,0.01 0.29,-0.16 -0.23,-0.29 1.36,0.01 0.77,-0.49 0.36,1.01 0.54,0.12 1.1,-0.71 0.85,-0.08 0.21,-0.33 -0.04,-0.35 0.54,-0.28 1.09,-0.31 0.39,-0.47 -0.76,-0.74 -0.41,-0.01 -0.3,-0.47 0.17,-0.93 -0.07,-0.15 -0.74,0.21 -1.24,-0.87 0.24,-0.6 0.48,-0.41 0.04,-0.37 -0.44,-0.34 -0.92,-1.31 -0.03,-0.24 0.34,-0.4 0.17,-0.62 -0.04,-0.19 -0.2,-0.02 -0.66,0.37 -0.43,0.03 -0.18,-1.35 -0.42,0.02 -0.6,-0.25 -0.53,0.34 -0.04,0.57 -0.19,0.25 -0.41,0.25 -0.32,0.49 -0.86,0.73 -0.53,0.22 -0.59,0.63 0.31,0.37 -0.38,0.69 -0.79,0.41 -1.29,0.28 -0.82,0.03 -1.38,-0.16 -1.35,0.03 -0.02,0.46 0.6,0.8 0.11,0.52 -0.03,0.35 -0.2,0.39 -0.13,-1.12 -0.45,-0.01 -1.02,0.29 -0.76,-0.09 -1.23,-0.39 -2.2,0.54 -1.21,-0.4 -3.82,1 -0.33,0.3 -0.2,0.38 -0.44,0.03 -0.23,-0.11 0.53,-0.67 0.24,-0.15 1.3,-0.28 2.48,-1.28 -0.41,-0.43 -0.13,0.41 -0.11,0.02 -0.13,-0.17 -0.09,-0.93 0.08,-0.27 0.29,0.01 0.1,0.52 0.17,0.04 0.25,-1.23 0.25,-0.09 0.25,0.19 0.29,-0.01 1.01,-0.85 0,-0.16 -0.17,-0.16 0.01,-1 0.33,-0.7 0.51,-0.33 0.43,-0.11 0.1,-0.26 -0.09,-0.5 -0.66,-1.21 -0.54,0.13 -0.02,-0.25 0.36,-0.35 -0.82,-0.84 -0.27,-0.76 -0.38,-0.48 -0.61,-0.33 0.93,-1.19 2.01,-1.32 1.07,0.07 0.96,0.22 0.18,-0.27 0.58,-1.58 0.25,-1.04 -0.07,-0.76 -0.3,-0.79 -0.08,-0.66 0.08,-1.25 0.58,-0.65 0.2,-0.89 -3.26,-2.57 -0.94,-0.52 -0.29,-0.35 -0.24,-0.03 -0.44,0.17 -0.33,-0.05 -2.16,-1.12 0.25,-0.59 -0.93,-1.12 -0.36,-0.91 -0.19,-1.18 -0.35,0.27 -0.85,1.31 -0.78,1.54 -0.41,0.03 -0.4,-0.18 -1.06,0.16 -0.83,-0.42 -0.47,-1.05 0.08,-0.34 -0.33,-0.21 -1.02,-0.17 -0.34,-0.47 -0.74,0.5 -0.67,-0.56 -0.38,0.49 -0.73,-0.29 -0.45,-1.53 -0.43,-0.95 -0.22,-0.93 0.71,-0.6 0.08,-0.5 -0.43,-0.57 -0.75,-0.38 -0.37,-0.36 -0.21,-1.2 -0.25,-0.65 -0.38,-0.13 -0.15,-0.39 0.56,-0.58 -0.25,-0.38 0.11,-0.28 0.85,-0.63 0.02,-0.25 -0.12,-0.14 -0.36,-0.04 0.65,-0.63 -0.13,-0.88 -0.26,-0.65 0.21,-0.36 -0.02,-0.18 -0.13,-0.11 -0.98,0.01 -0.47,-0.12 -0.66,-0.36 -0.23,-0.21 -0.09,-0.43 -0.4,-0.57 -0.47,-0.25 -0.62,-0.82 -0.81,0.02 -0.22,0.19 0.28,0.65 -0.09,0.17 -0.41,0.03 -0.84,-0.45 -1.11,0.49 -0.58,0.41 -0.12,0.47 0.12,0.13 0.59,0.42 0.45,0.08 -0.52,0.43 -0.33,0.11 -0.47,-0.04 -0.08,-0.39 -0.49,-0.28 -0.22,0.07 -0.1,0.17 -0.09,0.44 0.28,0.37 -0.13,1.39 0.46,0.09 0.49,0.48 0.04,0.7 -0.25,0.66 0.37,0.01 -0.03,0.21 -0.68,0.11 -0.64,0.3 -0.09,0.19 0.18,0.24 -0.63,1.19 -0.72,0.45 0.04,0.45 -0.76,0.78 -0.14,0.26 0.07,0.3 0.35,0.48 -0.13,0.71 -1.57,0.96 -0.48,0.6 -0.78,0.13 -1.31,1.67 -0.77,0.2 -0.15,0.63 -0.02,0.76 -1.74,0.69 -0.79,-0.01 -1.47,-0.57 -0.07,-0.36 0.2,-1.84 0.77,-0.81 0.29,-0.46 1.38,-2.77 1.6,-1.54 -0.27,-0.88 0.22,-1.22 -0.72,-0.6 0,-0.2 0.76,-0.53 -1.09,-0.25 -0.93,0.24 -0.31,0.22 -0.45,-0.57 -0.1,-0.77 0.24,0.01 0.72,0.57 0.16,-0.08 0.19,-0.6 0.29,-0.14 0.27,0 0.7,0.61 0.35,-0.09 0.1,-0.43 -0.96,-1.72 -0.06,-0.29 0.18,-0.33 -0.48,-0.85 -0.65,-0.2 -1.4,-1.63 -0.97,-0.92 -0.3,0.01 -0.89,1.94 0,0.86 -0.83,0.25 -0.09,0.25 0.25,0.58 -0.08,0.39 -0.97,1.74 -0.53,0.49 -1.17,0.41 0.17,1.07 0.9,0.34 0.16,0.34 -0.79,0.25 -0.44,1.08 -0.46,0.33 0.35,0.64 0.26,1.08 0.08,0.84 -0.1,0.36 -1.09,1.6 -0.54,0.31 -0.73,0.2 -0.4,0.31 -0.18,0.52 -1.02,1.38 -0.16,0.68 -1.51,1.92 -0.34,0.17 0.26,0.27 -0.26,1.08 -0.26,0.51 -0.35,0.4 -2.15,1.5 -2.42,1.55 -1.23,0.49 -0.06,0.17 0.44,0.37 0.01,0.31 -0.45,0.25 -0.19,-0.37 -0.46,0.22 -0.19,0.29 0.39,0.72 -0.19,0.65 0.46,0.58 -0.38,0.38 -0.74,0.11 -0.3,-0.08 0.11,-0.47 -0.12,-0.18 -0.25,0.1 -0.38,0.67 -0.28,0.24 -1.31,0.36 -0.35,0.26 -0.4,0.85 -0.62,0.41 -0.88,0.91 -0.55,1.35 -0.46,0.64 -0.46,0.4 -0.27,0.7 -1.25,1.08 -0.42,0.06 -0.59,0.32 0.75,1.18 0.58,-0.8 0.52,0.4 -0.51,1.16 -0.33,0.37 0.07,0.68 -0.08,1.41 -0.44,0.28 -0.46,-0.27 -0.71,0.76 -0.43,0.08 -0.5,1.25 -0.03,0.91 -0.12,0.53 -0.21,0.33 0.42,1.33 -0.21,0.65 -0.39,0.66 -0.01,0.28 -0.85,0.21 -0.24,0.41 -0.01,0.39 -1.38,0.94 -1.03,0.53 -1.72,0.67 -0.32,0.78 -0.08,2.4 -0.43,2.45 -0.28,0.83 -0.74,0.96 -0.94,0.62 -0.8,0.34 -1.38,0.42 -0.68,0.09 -0.95,-0.01 -3.15,-0.4 -0.88,-0.2 -0.73,-0.37 -0.67,-0.6 0.36,-1.1 0.23,-0.34 0.03,-0.36 -0.17,-0.37 -0.92,-0.26 -0.67,1.7 -0.76,1.3 -0.5,0.64 -2.11,1.61 -2.85,3.06 -0.71,0.44 -0.84,0.09 -0.38,0.26 -0.2,0.32 -0.03,1.56 -0.35,1.46 -0.27,0.46 -0.54,0.4 0.01,0.15 1.02,0.02 0.36,-0.28 0.19,-0.75 0.58,-0.41 0.19,0.03 -0.3,0.89 -0.49,0.58 1.38,0.92 0.02,-0.38 0.36,-0.25 0.52,0.57 0.03,0.45 -0.36,0.01 0.08,0.35 1.91,1.18 0.81,0.71 0.58,-0.05 0.27,0.09 0.19,0.32 0.96,-0.3 0.27,0.09 -0.14,0.43 -0.02,0.31 0.1,-0.01 0.52,-0.25 0.83,-1.47 0.46,0.12 0.07,0.14 -0.37,0.38 -0.06,0.25 0.15,0.94 -0.53,0.06 -0.26,0.41 -0.02,0.31 -0.76,0.87 0.1,1.03 -0.32,1.68 -0.79,0.86 -0.65,0.92 -0.79,0.16 -0.92,0.42 -0.58,1.16 0,0 1.03,0.49 0.91,0.25 0.74,-0.21 1.66,-0.94 2.04,-0.25 0.44,0.11 0.28,0.28 0.13,0.36 0.13,0.89 -0.05,0.5 0.48,1.13 0.21,1.399995 0.53,1.88 -0.04,1.95 -0.17,0.34 -0.4,0.22 -0.27,0.39 -1.38,3.32 -1.67,1.71 -0.31,0.8 -0.04,0.52 0.14,0.38 0.74,1.06 -0.03,1.05 0.42,0.81 -0.03,0.64 -0.56,0.46 -0.08,0.31 0.02,0.21 0.72,1.12 0.55,1.26 -0.06,0.69 -0.24,0.81 0.06,0.6 0.86,0.74 1.53,0.4 0.63,0.66 0.19,0.52 0.02,0.81 -1,1.87 -0.38,2.49 0.56,1.99 0.35,0.29 0.64,0.26 0,0 0.19,-1.22 0.7,-1.38 0.26,-0.16 0.59,0.15 0.2,-0.06 0.29,-0.59 0.82,-0.34 0.57,-1.1 0.21,-0.08 0.66,0.07 0.48,0.84 0.44,0.03 0.43,-0.26 0.15,-0.29 0.03,-0.67 0.15,-0.37 0.53,-0.34 0.28,-0.47 0.87,-0.54 -0.35,-0.99 0.37,-2.43 0.22,-0.33 0.37,-0.08 0.68,0.1 0.54,0.96 0.4,0.38 1.37,0.05 1.33,0.23 1.22,0.79 0.4,1.47 1.39,0.83 0.36,-0.23 0.81,-1.62 0.46,-0.64 1.21,-0.16 0.44,-0.27 0.22,-0.51 0.07,-0.83 0.25,-0.29 3.25,0.41 0.86,0.52 0.91,-0.33 0.69,0.01 1.28,-0.59 0.58,0.02 1.73,1.08 0.51,0.94 0.59,0.22 0.14,0.27 0.08,0.95 0.11,0.18 0.34,0.15 0.88,-0.25 0.36,-0.22 0.51,-1.26 0.74,0.44 0.73,-0.03 0.45,-0.16 0.07,-0.25 -0.29,-0.8 0.07,-0.35 0.24,-0.5 0.89,-0.64 0.22,-0.55 0.19,0.08 0.48,0.96 0.28,0.17 0.6,0.06 0.24,0.22 0.24,1.14 0.33,0.26 1.04,-0.18 0.58,-0.41 0.71,0.33 1.17,0 0.85,-0.51 0.48,-1.2 0.22,-0.06 0.76,0.61 0.75,1.09 0.32,0.08 0.57,-0.26 0.33,0.18 0.51,0.52 0.34,0 1.24,-0.37 1.3,-1.03 0.41,-0.12 0.57,0.38 0.82,0.06 0.41,0.49 0.25,0.13 1.55,-0.07 0.18,0.13 0.3,0.7 0.25,0.08 0.26,-0.14 0.32,-0.69 0.48,-0.25 2.37,0.51 0.43,-0.06 1.04,-0.43 1.35,0.44 1.21,-0.14 0.4,-0.33 0.01,-0.44 0.11,-0.11 1.3,-0.59 1.18,1.19 1.64,1.38 4.29,2.64 0.36,0.53 0.03,0.7 0.2,0.39 0.9,0.78 2.75,0.77 0.12,-0.07 0.34,-0.86 -0.27,-1.3 0.09,-0.33 -0.17,-0.33 1.1,-0.9 -0.32,-0.35 0.02,-0.29 -0.24,-0.26 -0.17,-0.6 0.14,-0.25 -0.03,-0.2 0.35,-0.46 1.37,0.17 0.78,-0.23 0.31,0.69 0.29,-0.02 0.1,-0.18 0.17,-1.6 -0.21,-0.37 -0.3,-0.14 -0.24,0.55 -0.45,-1.14 -0.4,-0.67 0.35,-0.21 0.34,0.11 0.66,-0.12 0.01,-0.14 -0.92,-0.29 0.04,-0.23 0.45,-0.17 0.26,0.31 0.57,-0.51 1.04,-0.41 0.7,0.36 0.23,0.49 -0.17,0.75 0.56,0.62 1.1,0.86 0.51,-0.03 0.49,0.16 0.71,0.77 0.91,0.25 0.51,-0.1 0.36,0.21 0.44,0.8 1.58,0.64 0.39,0.48 0.57,1.36 0.36,0.17 0.56,0.02 0.73,-0.34 0.5,-0.03 1.41,0.48 0.49,0.51 0.72,0.05 3.24,-1.31 0.87,-0.68 1.18,-0.6 1.87,-0.46 0.53,0.26 0.33,0.01 1.1,-0.28 0.43,-0.46 0.52,-0.18 1.68,-0.38 1.5,-0.06 0.5,-0.5 0.06,-0.59 -0.12,-0.11 -0.52,0.04 -0.22,-0.31 -0.02,-0.23 1,0.25 0.56,0.84 0.45,-0.22 0.59,0.02 0.36,0.58 0.38,0.09 0.44,0.01 0.96,-0.63 2.04,-0.63 0.95,0.11 0.73,0.29 0.99,-0.04 -0.21,-0.59 -0.03,-0.32 0.11,-0.23 0.24,-0.05 -0.06,0.28 0.13,0.13 0.22,-0.03 1.4,-1.14 -0.44,-0.65 -0.36,-0.18 -0.06,-0.31 0.82,0.03 0.37,0.19 0.01,0.63 0.37,0.13 0.22,-0.13 0.07,-0.42 0.92,-0.99 -0.11,-0.3 -0.67,-0.65 -0.2,-0.44 -0.29,-0.2 -0.71,-0.14 -0.07,-0.39 -0.39,-0.12 -0.11,0.15 0.1,0.26 -0.48,-0.09 0.09,-0.29 0.83,-0.49 -0.08,-0.22 -1.16,-0.32 -0.82,-0.13 -0.41,0.06 -0.92,1.14 -0.33,0.6 -0.52,-0.11 -0.15,-0.42 -0.28,-0.29 -1.54,-0.96 0.09,-0.22 0.34,-0.11 0.38,0.13 0.18,0.2 0.47,-0.16 0.47,-1.3 -0.15,-0.28 -0.36,-0.26 -0.52,0.23 -0.33,-0.48 -0.81,-0.8 -0.64,0.04 -0.26,0.61 -0.4,0.15 -0.22,-0.4 -0.63,-0.35 -0.45,-0.47 0.06,-0.54 -0.08,-0.14 -0.66,-0.19 -0.37,0.19 -0.47,0.07 -1.1,-0.23 -0.05,-0.92 -0.64,-0.23 -0.73,0.08 -0.16,-0.09 -0.4,-0.97 -1.17,-0.82 -0.27,-0.77 -0.88,-1.34 -0.1,-1.49 -0.26,-0.51 -0.73,-0.46 -0.22,-0.51 0.08,-0.21 -0.16,-0.09 -1.32,-0.04 -0.06,-0.97 -0.21,-0.32 0.02,-0.23 0.85,-0.26 0.4,0.25 0.25,-0.639995 0.06,-0.65 1.17,-0.43 0.05,-0.2 -0.37,-0.06 -0.06,-0.18 0.3,-0.36 0.55,-0.51 1.19,-0.62 0.68,-0.07 1.23,0.34 0.13,-0.34 -0.01,-0.36 0.32,-0.07 0.13,0.47 -0.16,0.29 0.47,0.1 0.25,-1.19 0.26,-0.59 0.45,-0.57 0.3,-0.12 0.86,0.16 1.39,-0.09 1.03,0.45 0.64,0.13 0.45,0.34 0.32,0.47 -0.26,0.87 0.25,0.56 0.69,0.69 0.12,0.42 1.81,0.01 0.45,-0.31 0.97,-1.24 0.46,0.29 0.79,0.06 1.03,0.34 2.51,0.43 0.38,-0.02 0.6,-0.51 1.01,-0.23 0.15,0.26 0.88,-0.09 0.49,-0.19 1.96,-1.26 1.34,-0.4 0.96,-0.01 1.27,-1.13 0.92,-0.36 1.27,-0.41 5.76,-1.42 3.22,-1.3 2.04,-1.62 0.52,-0.54 1.37,-1.82 -0.07,-0.22 0.16,-0.89 -0.21,-0.53 z m -66.29,38.789995 -0.72,0.11 -1.22,-0.99 -0.52,-0.17 -0.21,0.13 0.12,-0.13 -0.13,-0.32 -0.33,0.33 -0.13,0.45 0.13,0.27 -0.02,0.3 0.26,0.23 -0.01,0.35 0.3,0.35 0.31,0.08 0.74,0.67 1.23,0.52 0.65,-0.65 0.74,-0.38 -0.15,-0.74 -0.19,-0.2 -0.85,-0.21 z m 44.83,-7.61 0.31,0.23 -0.19,0.6 -0.1,-0.06 0,-0.36 -0.52,-0.12 -0.1,-0.32 -0.13,0.01 -0.05,0.15 -0.42,-0.23 -0.37,0.1 -0.17,-0.3 -0.27,-0.14 0.05,-0.17 -0.12,-0.2 -0.34,0.02 -0.01,-0.2 -0.89,0.17 -0.75,-0.34 -0.16,0.05 0.42,0.41 -0.5,0.12 0.06,0.31 0.38,0.36 0.03,0.22 0.7,0.45 -0.03,0.27 0.12,0.1 -0.57,0.86 0.03,0.25 0.25,0.06 0.37,-0.2 0.13,-0.22 0.42,-0.06 0.51,-0.55 1.46,0.17 0.16,-0.19 0.59,-0.07 0.58,-0.57 -0.39,-0.06 -0.07,-0.38 -0.42,-0.17 z" 
                fill="rgb(151, 144, 238)" 
                stroke="white" 
                stroke-width=".7px"
                title="Sabah" 
                id="MY-12" 
            />
        </svg>