<svg xmlns="http://www.w3.org/2000/svg" viewBox="399.63392000000033 95.4608150000001 248.22000000000025 166.4499949999999" width="248.22000000000025" height="166.4499949999999">
            <path 
                d="m 437.99392,230.64081 0.93,0.28 0.28,0.51 0.24,0.94 0.34,0.48 -0.11,0.83 -0.17,0.27 -0.24,0.07 -0.95,-0.66 -0.36,-0.03 -0.59,0.86 -0.12,0.31 0.06,0.3 0.27,0.26 0.27,0.02 0.16,-0.14 0.18,-0.53 0.29,-0.17 0.15,0.17 -0.27,0.42 0.01,0.3 0.21,0.13 0.47,0.02 0.06,0.27 -0.9,0.15 -0.24,-0.33 -0.2,-0.04 -0.37,0.26 -0.26,-0.09 -0.44,0.26 -0.18,-0.15 -0.28,-0.03 -0.22,-0.32 -0.25,-0.09 -0.34,-0.72 -0.01,-0.76 0.16,-0.17 0.29,0.36 0.28,-0.13 0.19,-0.43 -0.36,-0.37 0.88,-0.1 0.31,-0.43 -0.02,-0.31 -0.36,-0.65 0.02,-0.26 0.5,-0.32 0.69,-0.24 z m -9.12,-3.05 0.3,0.07 0.17,0.22 0.11,-0.18 0.31,0.02 0.09,0.45 -0.3,0.24 -0.04,0.38 0.54,0.72 0.43,0.23 -0.06,0.2 -0.64,0.72 -0.48,0.18 -0.58,0.03 -0.19,-0.11 0.09,-0.38 -0.08,-0.19 -0.33,-0.23 0.06,-0.56 -0.18,-0.31 -1.23,-0.23 -0.24,-0.21 -0.02,-0.29 0.31,-0.39 1.96,-0.38 z m 9.66,-1.56 0.16,0.01 0.33,0.29 0.43,0.77 -0.53,0.17 -0.57,0.48 -0.33,0.99 0.18,0.36 -0.11,0.17 -0.48,0.1 -0.06,0.36 0.2,0.23 0.48,0.13 -0.88,0.3 -0.83,0.71 0.01,0.68 0.36,0.57 -0.19,0.13 -1.48,0.27 -0.37,0.31 -0.13,-0.07 -0.02,-0.3 -0.28,-0.22 -0.2,-0.07 -0.26,0.22 -0.18,-0.03 0.06,-0.5 -0.08,-0.13 -0.31,0.11 -0.46,-0.22 -0.19,-0.8 -0.36,-0.78 0.54,-0.4 0.35,0.13 0.2,-0.11 0.03,-0.26 -0.21,-0.5 0.01,-0.63 0.58,-0.21 0.79,0.15 0.47,0.51 0.5,0.11 -0.28,-0.26 0.15,-0.48 0.47,-0.55 0.11,-0.92 0.67,-0.21 0.39,0.02 0.34,0.48 0.52,-0.08 0.45,-0.27 -0.25,-0.54 0.26,-0.22 z m -6.71,-2.26 0.43,0.33 -0.36,0.48 0.03,0.3 0.3,0.5 0.36,0.31 -0.09,1.6 0.76,0.56 0.01,1.2 0.25,0.65 -0.1,0.23 -0.48,-0.11 -0.24,0.28 -0.27,0.11 -0.47,-1.06 0.18,-1.25 -0.26,-0.37 -0.25,-0.13 -0.67,0.01 -0.11,-0.51 -0.43,-0.34 0.16,-0.47 0.39,-0.22 0.15,-0.23 -0.12,-0.29 0.13,-0.42 0.33,-0.45 -0.07,-0.17 0.1,-0.31 0.34,-0.23 z m 41.39,-15.93 0.11,-0.41 0.67,-0.13 -0.01,0.47 0.67,0.16 0.29,0.37 -0.26,0.37 -0.39,0.1 -0.24,-0.41 -0.25,-0.07 -0.19,0.08 -0.1,0.18 0.01,0.65 -0.83,0.27 -0.41,0.39 -0.12,0.36 0.05,0.69 -0.07,0.22 -0.19,0.14 -0.52,-0.18 -0.87,-0.67 -2.01,-0.51 -0.85,0.16 -0.59,-0.04 -1.15,0.49 -1.01,-0.88 0.32,-1.11 0.63,-0.25 0.9,-0.78 0.38,-0.8 0.19,-0.18 0.18,0.06 0.42,0.93 0.53,0.76 0.77,0.17 0.67,-0.34 0.19,-0.25 0.12,-0.67 -0.06,-1.44 -0.26,-0.88 0.06,-0.17 0.91,0.24 0.98,0.58 0.47,0.42 0.37,0.93 -0.14,0.79 0.35,0.34 0.28,-0.15 z m -4.57,-9.4 0.14,0.05 -0.01,0.14 -0.47,0.81 0.13,0.16 0.42,-0.45 1.42,0.68 1.48,0.45 0.09,0.2 -0.1,0.21 -0.65,0.52 -0.3,0.5 0.08,0.3 0.53,0.26 0.09,0.3 -0.71,0.3 -0.09,0.49 -0.98,1.36 0,1.73 0.25,1.32 -0.3,0.27 -0.67,0.19 -0.3,-0.09 -0.32,-1.05 -0.57,-0.73 -0.33,-0.24 -0.48,-0.06 -0.69,0.62 -0.14,-0.38 0.13,-1.97 -0.22,-1.45 -0.08,-1.56 0.56,-1.24 0.77,-0.86 1,-0.6 0.11,-0.16 0.21,-0.02 z m 5.83,-11.23 -0.41,-1.43 0.81,-0.55 0.07,0.11 -0.47,1.87 z m -2.4,-3.42 0.43,0.31 0.83,1.81 0.71,0.6 0.16,0.38 -0.27,1.66 0.17,2.31 -0.03,1.2 -0.24,1.08 0.11,2.08 -0.1,1.14 0.74,1.17 0.34,2.17 0.26,0.52 0.45,0.41 -0.12,0.41 -0.17,0.15 -0.27,0.01 -0.63,-0.22 -0.53,0.11 -0.25,0.32 -0.15,0.49 -0.28,0.17 -0.73,-0.89 0.02,-0.86 -0.21,-0.53 -0.54,-0.54 -1.01,-0.52 -0.07,-1.4 0.41,-1.89 -1.19,-5.3 -0.02,-2.5 0.33,-1.59 0.41,-0.91 0.59,-0.91 0.57,-0.38 0.28,-0.06 z m 22.24,-2.82 4.62,-0.68 6.37,-1.42 4.76,-1.41 9.26,-1.99 2.45,-0.42 0.66,0.21 0.46,-0.17 0.32,-0.38 0.78,-0.36 2.35,-0.74 3.05,-0.72 4.57,-0.89 2.21,-0.66 2.23,-1.12 1.13,-0.75 0.82,-0.69 0.78,-0.97 1.13,-1.71 -0.07,-0.2 -0.68,-0.73 0.98,-0.89 1.98,-1.34 1.02,-0.96 1.62,-2.79 1.67,-1.26 2.11,-1.99 0.6,-0.95 -0.38,-0.65 0.45,-0.66 2.73,-2.74 1.72,-2.89 0.43,-0.95 -0.15,-0.81 0.48,-0.77 1.19,-0.88 3.62,-2.29 4.71,-3.88 0.97,-0.94 2.74,-2.97 0.85,-1.13 1.42,-2.61 1.54,-1.65 2.78,-3.58 0.94,-1.52 0.63,-1.3 0.29,-1.09 -0.3,-0.23 -0.1,-0.31 0.92,-1.14 0.53,-2.08 0.06,-1.18 -0.16,-1.14 -1.08,-3.21 0.62,-0.53 3.93,0.31 1.92,-0.02 1.16,0.28 0,0 0.63,0.34 0.95,1.23 0.48,-0.16 0.38,0.11 0,0 0.8,0.52 0,0 1.09,1.41 1.79,3.1 -0.13,1.61 0.1,0.22 0.73,0.57 0.12,0.21 -0.5,1.76 0.05,1.31 0.29,0.22 1.01,0.25 0.4,-0.11 0.45,-0.36 0.27,-0.06 1.4,0.44 0.31,-0.11 0.46,-0.64 0.32,-0.1 0.33,0.1 0.25,0.31 0.06,1.01 0.18,0.77 0.67,1.44 0.97,1.6 1.43,0.16 0.63,0.65 0.29,0.79 0.89,1.42 0.97,0.61 1.32,0.22 0.13,0.41 -0.69,0.75 0,0 -0.05,0.28 0,0 0.66,0.16 0,0 1.64,-0.51 0,0 1.85,-1.09 0.93,-0.88 0.69,-0.87 0.66,-1.09 1.32,-0.93 0.23,-0.35 0.08,-0.27 -0.88,0.11 -0.07,-0.15 0.13,-0.53 0.51,-0.46 1.51,-2.21 0.43,-1.26 -0.12,-0.08 -0.96,0.92 -0.34,0.03 -0.09,-0.25 0.08,-0.62 1.36,-1.54 1.05,-2.1 0.06,-1.97 -0.25,-0.16 -1.33,-0.3 -0.44,-0.26 -0.28,-0.52 -0.23,-2.58 0.07,-1.47 -0.41,-3.73 -0.16,-1.01 -0.88,-1.46 -0.03,-0.74 0.17,-0.77 0.24,-0.25 0.35,-0.11 1.15,-0.11 0.44,-0.37 0.61,-1.54 0.52,-0.34 1.27,-0.33 2.2,-0.31 0.53,-0.28 1.24,-2.339995 0,0 0.78,-0.39 0.13,0.699995 0.17,0.28 -1.1,1.3 -0.38,1.49 0,1.02 0.22,0.2 0.21,-0.08 0.21,-2.42 0.38,-0.65 0.21,-0.1 0.14,0.27 -0.16,0.54 0.02,0.52 0.41,0.67 0.66,0.41 0.02,0.17 0,0 -0.54,1.4 0.39,1.27 -0.13,0.67 0,0 -0.02,0.44 0,0 0.31,0.64 0.08,0.93 0.15,0.36 0.03,0.86 0.18,0.59 0.52,0.85 1.32,4.26 -0.16,1.3 0.33,1.28 -0.17,0.92 0.14,0.26 0.47,0.33 0.6,0 0.18,-0.1 0,0 0.54,-0.06 0,0 2.1,0.76 1.57,-0.12 0.31,0.23 0.21,1.07 1.25,-0.16 0.52,0.24 0.29,0.25 0.22,0.58 0.37,0.37 0.47,0.12 0.26,-0.07 0.59,-0.34 0.58,-0.56 0.04,-0.72 -0.54,-0.61 -0.46,-0.89 -1.46,-1.1 -0.67,-0.74 -0.24,-0.45 -0.17,-0.56 0.2,-0.69 -0.22,-0.58 0,-0.93 -0.29,-0.37 0.11,-0.89 -0.13,-0.48 0.63,-0.9 0.03,-0.78 0.15,-0.47 -0.18,-1.15 -0.8,-0.55 -0.29,-0.33 0.26,-0.39 0.06,-0.61 -0.43,-0.4 -0.14,-0.42 0.19,-0.82 -0.07,-0.63 -0.22,-0.37 -0.65,-0.57 -0.11,-0.32 0.25,-1.38 -0.48,-0.61 -1.28,-0.85 0,0 -0.6,-0.52 0,0 0.08,-0.45 -0.53,-0.15 -0.56,-0.759995 -0.17,-0.66 0,0 -0.27,-0.03 -0.2,-0.34 2.06,-0.72 0.22,-0.41 -0.11,-0.96 0.52,-0.22 0.71,-0.04 0.31,0.14 0.1,0.18 0.49,1.4 0.5,0.38 1.34,0.28 1,0.66 0.58,0.02 1.03,-0.18 0.73,-0.32 0.5,-0.5 -0.14,-0.38 -0.01,-0.52 0.47,-0.12 1.14,-1.17 0.87,-0.16 0,0 1.03,0.49 0.95,0.19 0.74,-0.21 1.66,-0.94 2.04,-0.25 0.44,0.11 0.28,0.28 0.13,0.36 0.13,0.89 -0.05,0.5 0.48,1.13 0.21,1.399995 0.53,1.88 -0.04,1.95 -0.17,0.34 -0.4,0.22 -0.27,0.39 -1.38,3.32 -1.67,1.71 -0.31,0.8 -0.04,0.52 0.14,0.38 0.74,1.06 -0.03,1.05 0.42,0.81 -0.03,0.64 -0.56,0.46 -0.08,0.31 0.02,0.21 0.72,1.12 0.55,1.26 -0.06,0.69 -0.24,0.81 0.06,0.6 0.86,0.74 1.53,0.4 0.63,0.66 0.19,0.52 0.02,0.81 -1,1.87 -0.38,2.49 0.56,1.99 0.35,0.29 0.64,0.26 0,0 0.24,0.06 -0.32,2.09 -1.05,3.41 -0.66,1.08 -0.67,0.49 -0.65,0.25 -1.07,0.03 -0.34,0.16 -0.08,0.16 0.19,0.51 0.51,0.6 1.26,0.78 0.29,0.27 0.09,0.39 -0.22,1.2 -1.01,2.34 -0.3,1.06 -0.3,1.33 -0.07,2.41 0.37,2.37 0.88,1.11 0.31,2.63 1.23,1.78 0.25,0.69 -0.67,1.25 -0.32,0.15 -0.24,-0.09 -0.46,-1.35 -0.72,-0.21 -0.26,0.09 -1.43,2.83 -0.49,2.04 -0.21,0.48 -0.03,2.05 0.12,0.66 -0.08,0.64 -0.37,0.86 0.47,0.47 1.25,0.83 0.08,0.35 -0.13,0.33 -1.88,1.78 -0.09,0.43 0.11,0.78 -0.07,1.03 -0.33,0.6 -1.06,0.71 -1.45,-0.02 -0.54,0.15 -0.47,0.53 -0.19,0.43 -0.73,0.68 -2.46,0.2 -0.54,-0.13 -0.31,-1.26 -1.16,-1.24 -0.55,1.75 -0.97,1.05 -1.45,0.58 -0.7,0.84 -0.95,0.32 -0.13,0.13 -0.35,2.21 -0.79,0.93 -0.86,0.46 -0.6,0.67 -0.08,0.2 0.57,0.34 0.87,-0.01 0.25,0.24 0.11,0.32 -0.46,0.83 0.04,1 -0.28,0.38 -0.95,0.53 -0.23,0.29 0.04,0.96 0.49,1.46 -0.26,1 -0.69,0.54 0.02,0.46 0.48,0.45 0.19,0.48 0.11,0.04 0.65,-0.05 0.56,-0.5 0.67,-0.24 0.45,0.1 0.85,1.13 0.7,0.66 0.11,0.85 0.99,0.4 0.12,0.41 -0.08,0.84 -0.44,0.45 -1.32,0.66 -1.32,-0.18 -1.18,0.25 -0.96,0.75 -0.41,0.5 -0.39,1.35 -0.14,0.07 -1.04,-0.16 -0.43,0.05 -0.84,0.79 -0.38,0.66 -0.57,0.19 -0.54,0.5 -0.37,-0.12 -0.52,-0.55 -0.49,0.12 -0.43,0.7 -0.21,1.03 0.12,0.42 0.53,0.41 -0.03,0.39 -0.19,0.25 -0.82,0.24 -0.67,0.76 -0.41,0.14 -1.08,-0.1 -2.58,0.34 -0.55,0.31 -0.1,0.7 -0.31,0.69 -0.26,1.47 -0.1,1.08 0.1,0.74 0.29,0.54 0.6,0.07 0.29,0.32 0.07,0.59 -0.37,0.35 -0.07,0.21 -0.01,1.22 0.57,1.17 0.41,0.04 1.44,-0.81 0.54,0.13 0.48,0.36 0.11,0.48 -1.42,1.28 -0.27,0.54 0.06,0.73 0.94,0.86 0.09,0.27 -0.91,0.82 -1.33,0.06 -0.87,0.93 -0.31,0.69 -0.38,0.18 -0.4,-0.03 -0.68,-0.5 -0.49,-0.09 -0.48,0.09 -0.5,0.34 0.15,0.61 -0.08,0.35 -1.09,0.85 0.08,0.27 0.4,0.39 0.15,0.54 -0.18,0.99 0.32,1.08 -0.28,0.72 0.05,0.81 -0.12,0.69 -0.3,0.49 -0.8,0.6 -0.41,1.14 -0.44,0.7 -1.93,1.1 -0.03,0.66 -0.37,0.86 0.35,0.94 -0.19,0.89 -0.73,1.04 -0.3,0.68 -0.62,0.69 -1.12,-0.15 -1.72,-1.4 -0.94,-0.06 -2.83,-1.81 -0.33,0.01 -0.25,0.27 -0.14,0.46 -0.28,0.29 -1.62,0.47 -1.19,0.5 -0.82,0.63 -0.6,0.15 -1.01,-0.04 -0.31,0.12 -0.21,0.15 -0.83,1.18 -0.36,0.22 -0.4,-0.58 -1.33,-0.79 -0.69,-0.79 -0.28,-0.1 -1.16,0.34 -0.55,-0.3 -0.61,0.01 -2.41,0.71 -0.65,-0.04 -0.54,-0.25 -0.43,-0.02 -1.25,0.48 -0.29,0.32 -0.23,0.52 -3.45,1.3 -1.09,0.58 -0.2,0.44 0.35,0.41 0.06,0.66 -0.57,1.06 -0.28,0.31 -2.62,1.14 -1.51,0.42 -1.72,1.68 -0.69,-0.09 -0.64,0.15 -0.31,-0.23 0,-0.88 -0.99,-0.53 -0.71,-1.7 -0.24,-0.16 -0.58,-0.07 -0.85,-0.6 -0.33,0.02 -0.68,0.29 -0.8,0.01 -1.37,0.51 -0.71,0.65 -0.72,0.08 -0.44,-0.29 -0.8,-0.97 -1.07,-0.45 -0.47,-1.19 -0.2,-0.15 -0.85,-0.4 -2.31,-0.7 -2.11,-0.16 -0.79,0.36 -1.13,0.11 -1.49,-0.5 -0.91,-1.49 -0.62,-0.48 -0.2,0 -1.59,0.8 -1.54,0.5 -1.67,0.01 -0.19,-0.31 -0.01,-0.66 0.38,-0.67 2.14,-0.95 0.14,-0.15 0.33,-1.42 0.33,-0.43 0.46,-0.27 0.07,-0.21 -0.33,-0.84 -1.23,-0.38 -1.23,-0.58 -0.31,0.08 -0.41,0.45 -0.58,0.02 -1.71,-0.18 -0.66,-0.48 -0.48,-0.16 -0.49,0.01 -0.27,0.15 -0.43,0.67 -0.59,0.49 -0.22,0.52 -1.77,-0.1 -0.31,-0.46 -0.98,-0.41 -0.69,0.28 -0.27,-0.02 -0.58,-0.28 -1.37,0.43 -0.8,-0.03 -0.37,-0.13 -0.62,-0.46 -0.81,0.24 -1.39,-0.24 -3.45,-0.21 -0.67,-0.22 -0.65,0.2 -1.21,0.83 -0.19,0.23 -0.2,0.62 -0.33,0.33 -1.07,0.17 -2.14,0.72 -1.27,-0.09 -1.76,1.4 -1.18,0.42 -1.04,0.12 -0.63,0.42 -0.19,0.27 -0.2,1.12 0.13,0.2 0.92,0.48 0.08,0.29 -0.73,2.01 -1.09,1.04 -0.19,0.39 -0.23,0.9 0.05,0.79 -0.47,0.63 0.22,0.77 -0.15,0.73 -0.66,0.93 0.32,0.8 -0.16,0.51 -0.57,0.28 -1.73,-0.01 -2.06,0.38 -3.21,0.29 -0.53,0.21 -0.29,0.28 -0.44,0.91 -0.76,0.64 -0.75,0.39 -0.51,0.85 0.02,0.65 -0.17,0.76 -0.17,0.17 -0.55,0.12 -0.98,-0.11 -1.27,-0.55 -0.16,0.09 -0.18,0.58 -0.23,0 -0.74,-0.78 -1.21,0.37 -0.48,-0.01 -0.36,-0.55 -2.03,-0.83 -0.82,0.34 -1.75,1.51 -0.51,0.26 -0.6,-0.06 -0.59,0.11 0.06,1.2 -0.05,0.23 -0.24,0.14 -0.88,-0.33 -0.7,-1.83 -0.55,-0.61 -0.83,-0.52 -0.66,-0.03 -0.81,0.64 -0.45,0.2 -0.92,0.11 -0.7,-0.07 -0.45,-0.14 -1.24,-0.81 -3.99,-1.19 -0.71,-0.62 -0.66,0.21 -0.94,0.51 -2.23,0.5 -3.22,0.24 -1.4,0.55 -3.68,0.36 -0.98,-0.13 -0.44,0.3 -0.26,0.42 -0.08,0.64 -1.57,1.76 -1.09,-0.08 -0.88,0.23 -0.09,0.42 0.37,0.68 -0.09,0.36 -0.17,0.2 -0.28,0.05 -0.39,-0.21 -0.42,-0.72 -0.39,-0.14 -0.24,0.19 -0.06,0.64 -0.15,0.23 -0.32,0.07 -1.1,-0.19 -1.19,0.87 -1.02,0.25 -0.57,-0.23 -0.17,-0.23 -0.06,-0.56 -0.4,-0.16 -0.23,0.1 -0.04,0.89 -0.27,0.44 -2.08,0.7 -1.63,-0.61 -1.71,-0.32 -1.75,-1.31 -0.4,-0.57 -0.01,-0.19 0.21,-0.23 -0.02,-0.29 -0.33,-0.18 -0.91,-0.13 -0.09,-1.06 -0.15,-0.35 -0.33,-0.31 -0.53,-0.02 -0.74,0.34 -0.63,-0.19 -0.41,-0.32 -2.2,0.11 -0.26,-0.08 -0.09,-0.2 0.17,-0.54 0.02,-1.25 -0.67,-0.22 -0.69,-1.21 -0.01,-0.76 -0.15,-0.4 -0.37,-0.22 -0.75,0.05 -0.18,-0.1 -0.13,-0.43 0.06,-0.92 -0.57,-0.91 -0.28,-0.28 -1.44,-0.67 -1.38,0.14 -0.76,-0.1 -0.55,-0.63 -1.67,0.34 0.04,-0.42 0.75,-0.67 0.17,-0.29 -0.15,-0.79 -0.18,-0.25 -1.46,-0.65 -0.68,-0.53 -0.82,0.02 -0.2,-0.17 -0.76,-2.55 -0.03,-1.28 -0.87,-0.86 -0.55,-0.24 -2.81,0.1 -0.96,-0.2 -0.11,-1.33 0.35,-1 -0.3,-0.02 -0.68,0.66 -0.16,0.06 -0.3,-0.18 -0.79,-1.34 -3.56,-3.57 -0.28,-0.64 -0.81,-0.29 -0.56,-0.8 0.5,-3.89 0.66,-1.41 0,-0.55 -0.36,-0.39 -0.96,-0.34 -1.18,-0.12 -0.77,-0.32 -0.29,-0.38 -0.45,-1.08 -0.26,-0.18 -0.69,-0.1 -0.18,-0.21 -0.03,-0.64 -0.27,-0.37 -0.32,-1.48 0.17,-0.22 0.36,-0.12 0.45,0.2 0.32,-0.16 0.31,-0.39 0.44,-1.23 1.21,-0.73 0.57,-0.9 0.38,-0.75 0.19,-0.94 0.16,0.32 0.26,0.21 -0.17,0.08 0.02,0.52 -0.26,0.61 0.22,0.39 0.45,0.28 0.14,0.26 -0.38,-0.07 -0.26,0.18 0.01,1.01 -0.17,0.28 0.13,1.39 0.27,0.54 1.12,1.02 -0.11,0.63 0.31,0.27 1.39,0.72 2.04,0.71 0.2,0.56 0.58,0.61 0.12,-0.04 -0.05,-0.26 -0.35,-0.46 2.25,0.83 0.36,0.65 1.23,0.72 -0.42,0.9 0.63,0.4 1.02,0.35 0.49,0.46 -0.13,0.13 -0.4,-0.27 -0.31,-0.01 -0.38,0.14 0.01,0.14 0.47,-0.06 0.25,0.29 0.49,0.25 0.55,-0.03 0.41,-0.21 0.09,-0.32 0.33,-0.08 0.67,0.31 -0.07,0.2 0.12,0.43 0.7,-0.63 0.5,-0.18 4.62,-0.01 3.09,-0.32 0.18,0.23 -0.09,0.71 0.67,0.37 0.85,0.08 0.24,0.19 -0.01,0.58 0.08,0.19 0.36,0.2 -0.1,0.42 0.34,0.58 0.44,-0.14 0.8,-0.53 0.65,-0.69 -0.13,-0.88 -0.29,-0.29 -0.08,-0.25 0.57,-0.29 0.15,-0.36 0.69,-0.4 0.21,0.06 0.3,0.36 -0.24,1.3 0.86,1.86 0.25,0.8 0.47,0.23 0.35,-0.05 0,0.58 0.26,0.04 0.19,-0.17 0.4,0.12 0.06,0.29 -0.11,0.37 -0.43,0.23 0.23,0.34 0.33,0.01 0.18,-0.16 0.2,-0.6 0.26,-0.2 0.87,0.29 0.06,0.13 -0.3,0.4 -0.35,-0.32 -0.25,0.19 0.07,1.03 0.23,0.47 0.32,0.12 0.25,0.33 0.45,0.19 0.47,-0.25 0.22,0.11 0.48,-0.29 0.43,0.42 0.21,-0.12 0.5,0.06 0.19,-0.13 0.01,-0.26 -0.12,-0.12 -0.64,-0.13 0.29,-0.62 -0.12,-0.29 -0.18,-0.04 -0.34,0.21 -0.29,0.67 -0.2,-0.06 -0.2,-0.23 0.04,-0.36 0.66,-0.89 0.15,0 0.81,0.65 0.53,0.01 0.3,-0.39 0.22,-1.08 1.01,-0.47 1.01,-0.13 0.77,0.15 2.51,1.2 1.17,0.43 0.92,0.19 0.28,0.2 0.48,1.28 -0.02,0.92 -0.15,0.38 -1.31,0.61 -0.99,0.67 -1.27,0.49 -0.25,0.29 -0.1,0.79 0.16,0.31 0.54,0.41 0.45,-0.07 0.81,-0.65 0.57,-0.27 0.88,0.35 0.72,0.58 0.17,-0.09 -0.21,-0.34 -0.58,-0.37 -0.93,-0.36 -0.52,0.11 -0.89,0.72 -0.43,0.15 -0.34,-0.39 -0.11,-0.58 0.29,-0.29 1.14,-0.31 1.86,-0.82 0.89,-0.59 0.43,-0.87 0.2,-1.46 -0.1,-1.13 0.17,-0.31 0.35,-0.08 0.31,-0.36 0.61,0.01 2.29,1.13 0.65,0.48 2.65,0.61 1.55,0.95 0.66,0.48 0.46,0.51 0.7,1.33 0.49,0.6 0.75,0.67 0.54,0.3 1.28,0.21 0.95,0.29 1.19,0.88 0.73,0.3 0.98,-0.41 0.97,-0.86 1.36,-0.15 0.33,0.16 0.16,0.23 0.43,1.37 0.22,0.36 1.23,0.61 0.4,0.03 0.12,-0.11 0,-0.28 -0.48,-0.51 -0.18,-0.5 -0.03,-1.13 -0.48,-0.44 -1.37,-0.61 -0.83,-0.07 -1.53,0.36 -1.19,0.82 -1.6,-1.24 -2.24,-0.77 -0.52,-0.38 -0.28,-0.39 -0.22,-0.98 -0.65,-1.08 -0.93,-0.61 -0.31,-0.05 -0.28,0.16 -0.16,-0.11 0.21,-0.7 -0.21,-1.26 0.23,-0.33 0.69,-2.84 0.42,-0.61 0.51,-0.47 1.43,0.11 1.02,-0.38 1.01,0.25 0.57,0.01 0.16,0.13 0.04,0.71 0.27,0.73 0.72,0.49 0.58,-0.04 0.96,-0.45 0.21,0.09 0.38,0.55 0.55,0.29 1.22,-0.12 0.28,0.13 0.41,-0.19 -0.31,-0.23 -0.51,-0.17 -1.06,0.06 -0.54,-0.64 -0.54,-0.27 -0.46,0 -0.92,0.52 -0.35,-0.1 -0.3,-0.5 0.05,-0.92 -0.21,-0.55 -0.3,-0.26 -0.98,-0.17 -0.56,-0.76 -0.05,-0.53 -0.91,-0.94 0.27,-0.58 0.41,-0.45 0.99,-0.29 0.34,-0.48 0.18,-0.63 -0.18,-0.12 -0.73,1.06 -0.5,0.05 -0.14,-0.49 0.05,-0.63 0.43,-1.13 2.21,-4.23 0.12,-0.38 -0.12,-0.26 0.13,-0.8 0.3,-0.91 0.67,-1.39 0.59,-1.95 0.87,0.84 0.86,0.34 0.69,0.04 0.52,-0.29 0.43,0.14 0.38,0.47 0.58,-0.09 0.53,-0.36 0.04,-0.4 0.68,-0.61 -0.07,-0.63 0.17,-0.26 0.25,-1.56 0.31,0 0.68,0.48 0.54,-0.04 0.74,-0.39 1,0.59 0.18,-0.23 -0.61,-0.24 -0.57,-0.42 -0.44,0 -0.84,0.43 -0.4,-0.53 0.14,-0.26 0.01,-0.62 0.07,-0.08 0.54,0.52 0.52,0.25 0.2,-0.14 0.09,-0.41 -0.17,-0.48 -0.29,-0.35 -0.63,-0.22 0.11,-0.37 -0.09,-0.09 -0.79,0.13 -0.15,0.49 -0.23,0 -0.18,-0.25 0.15,-0.75 -0.33,-0.93 -0.6,-0.64 -0.98,-0.75 -0.19,-0.43 0.07,-0.27 0.87,-1.18 -0.07,-0.45 -0.61,-0.5 0.24,-0.26 0.56,-0.26 1.04,1.32 0.62,0.03 0.24,-0.14 0.53,-0.99 1.02,0.2 0.43,-0.18 0.64,-0.53 0.81,0.58 0.74,0.25 0.48,0.51 0.14,0.02 -0.2,-0.6 -0.34,-0.35 -0.75,-0.56 -1,-0.52 -0.86,-0.85 -0.16,-0.38 0.06,-1.26 -0.13,-0.32 -0.73,-0.91 0.21,-0.19 0.65,0.03 0.66,0.16 1.01,0.49 0.55,0.09 0.71,-0.21 0.62,-0.52 0.15,0.18 0.03,0.74 0.17,0.42 1.4,0.94 0.57,-0.19 0.12,-0.18 0.08,-0.61 0.17,-0.21 0.42,0.55 0.33,0.23 0.49,0.18 0.22,-0.35 -0.73,-0.16 -0.3,-0.67 -0.48,-0.1 -0.28,0.16 -0.29,0.95 -0.13,0.15 -0.16,-0.01 -0.55,-0.58 -0.59,-0.4 -0.04,-0.96 -0.26,-0.36 -0.62,-0.1 -0.75,0.51 -0.42,0.03 -1.47,-0.81 -1.18,-0.95 -0.09,-0.19 0.08,-1.01 0.87,-2.77 0.31,-1.47 0.12,-1.25 0.68,-0.46 1.09,-0.38 0.37,-0.85 0.29,-0.2 2.2,-0.85 2.14,-1.13 0.45,-0.46 0.34,-0.94 0.71,-0.82 0.57,0 0.35,0.78 1.61,0.78 1.73,0.57 0.14,-0.25 -2.67,-1.36 0.3,-0.21 0.95,-0.26 4.37,-0.86 1.86,-0.28 0.7,0.17 z" 
                fill="rgb(151, 144, 238)" 
                stroke="white" 
                stroke-width=".7px"
                title="Sarawak" 
                id="MY-13" 
            />
        </svg>