<svg xmlns="http://www.w3.org/2000/svg" viewBox="47.39391999999999 141.14080999999996 46.809999999999995 51.01999999999995" width="46.809999999999995" height="51.01999999999995">
            <path 
                d="m 47.39392,143.64081 0.27,-0.38 0.22,-1.11 0.26,-0.25 3.01,-0.3 1.35,-0.46 0.15,0.16 -0.04,1.11 0.24,0.19 0.96,0.27 0.22,0.24 -0.06,0.31 -0.4,0.36 -0.13,0.37 0.14,0.55 0.21,0.19 0.57,0.06 0.21,-0.3 0.13,-0.62 0.38,-0.23 0.83,-0.08 0.21,0.09 0.13,0.11 -0.06,0.4 0.1,0.21 1.1,-0.4 -0.05,0.51 0.16,0.94 0.27,0.02 0.9,-1 0.09,0.09 0,0.48 0.41,0.39 -0.18,0.05 -0.51,-0.21 -0.22,0.05 -0.2,1.06 0,0.14 0.17,0.13 0.63,-0.61 0.44,0.41 0.13,-0.02 0.21,-0.43 0.4,0.09 0.5,-0.77 0.34,0.46 -0.27,0.48 0.25,0.18 0.36,0.04 0.1,-0.42 0.1,-0.04 0.21,0.61 0.54,0.63 0.88,-0.24 0.29,0.05 0.49,0.36 1.15,-0.45 0.17,0.04 -0.11,0.6 0.03,1.17 0.34,0.16 0.84,0.11 0.74,-0.3 0.56,0.03 0.36,-0.4 0.79,-0.21 0.33,-0.25 0.03,-0.96 -0.81,-2.18 0.38,-0.48 0.07,-0.28 0.38,-0.04 0.42,-0.25 0.64,0.1 0.42,0.36 0.14,0.83 0.33,-0.07 1.07,0.71 0.74,0.3 0.19,0.17 0.24,0.76 1.21,0.49 1.38,1.29 0.53,0.18 0.55,-0.12 0.44,-0.77 0.46,-0.1 0.4,-0.25 0.16,-0.37 -0.15,-0.41 0.29,-0.56 0.26,-0.23 0.29,0.14 0.28,-0.38 0.08,-0.44 -0.25,-0.33 0.13,-0.26 0.99,0.05 0,0 1.29,1.67 1.13,0.69 0.77,0.14 1.07,-0.09 0.53,0.27 1.14,1.16 0.44,0.7 0.19,0.96 0.19,0.32 0.74,0.62 0.12,0.28 0.03,0.53 -0.27,0.61 0.03,0.88 -0.18,0.18 -0.82,0.31 -0.95,1.7 0.81,1.57 0.36,1.51 -0.17,0.45 -0.7,0.56 -0.31,1.05 0.7,0.47 0.13,0.37 1.5,2.16 2.07,1.16 1.15,-0.03 0.83,0.43 0,0 0.48,0.28 0.1,0.85 0.48,0.8 -0.01,0.99 0.17,0.85 0.48,0.98 -0.02,0.42 -0.46,0.82 -0.08,0.51 0.92,2 -0.03,0.66 -1.11,0.68 -0.1,0.6 -0.67,1.1 -1.44,3.31 -0.67,0.81 -4.91,-0.17 0.52,6.1 -0.15,1.26 -0.16,0.47 -0.39,0.48 0.16,0.54 -0.61,0.58 0.06,0.89 -0.86,0.28 -0.05,0.29 0,0 -0.01,0.13 -0.67,0.06 -0.28,-0.23 -0.2,-0.38 -0.51,-0.29 -1.72,-0.54 -0.76,-0.09 -1.26,-0.8 -1.57,-0.37 -1.68,-0.84 -0.59,-0.18 -0.85,-0.84 -1.35,-2.59 -0.71,-0.56 -0.24,-0.37 0.41,-0.46 0.07,-0.7 -0.19,-0.35 0.14,-0.47 0.34,-0.12 0.06,-0.61 0.79,-0.09 0.05,-0.51 0.32,-0.33 -0.1,-0.37 -0.61,-0.15 -0.31,-0.32 -0.19,0.15 0.27,0.39 -0.19,0.28 0,0.47 -0.18,-0.03 -0.03,-0.34 -0.33,-0.3 0.38,-0.72 0.3,-0.03 0.11,-0.17 -0.3,-0.6 -0.66,-0.04 -0.08,-0.22 0.45,-0.24 0.28,-0.37 0.54,-0.23 0.07,-0.29 -0.63,-0.5 -0.44,0.02 -0.21,0.21 -0.18,0.7 -0.67,0.65 -0.08,0.84 -0.17,0.38 -0.33,0.11 -0.53,-0.52 -0.02,-0.37 0.22,-0.43 0.19,-0.82 0.48,-0.55 0.42,-0.28 0.17,-0.33 -0.22,-0.54 -0.98,0.05 -0.34,-0.52 0.19,-1.94 -0.19,-0.53 -0.72,-0.88 -0.8,-0.68 -0.27,-0.55 -0.32,-3.45 -0.4,-1.7 -0.44,-0.75 -0.76,-0.98 -0.92,-0.73 -1.46,-0.95 -0.67,-0.28 -0.46,-1.22 -1.32,-2.02 -0.84,-0.83 -1.07,-1.64 -0.58,-1.63 -0.94,-2.15 -0.96,-1.37 -0.72,-0.75 -1.22,-0.97 -2.03,-0.61 -0.87,-2 -0.82,-0.94 -1.49,-0.97 -0.56,-0.15 -0.98,-0.02 -0.29,-0.3 -0.18,-0.78 z" 
                fill="rgb(151, 144, 238)" 
                stroke="white" 
                stroke-width=".7px"
                title="Selangor" 
                id="MY-10" 
            />
        </svg>