<svg xmlns="http://www.w3.org/2000/svg" viewBox="110.95391999999997 61.550815 44.71000000000005 78.60999500000003" width="44.71000000000005" height="78.60999500000003">
            <path 
                d="m 118.06392,62.100815 1.54,0.88 1.29,1.08 0.87,1.29 1.45,1.73 1.53,1.38 1.3,0.68 1.6,1.22 1.97,1.95 1.87,1.17 1.01,0.47 0.65,0.16 0.57,-0.28 1.03,0.62 0.62,0.54 4.75,4.66 1.7,2.47 1.49,2.62 -0.12,0.58 0.5,0.98 1.28,1.96 2.26,4.67 2.68,4.91 3.03,5.179995 0.59,1.4 -0.65,0.28 -0.07,0.28 1.12,3.2 -0.42,1.83 0.69,2.06 0.46,1.02 0.36,1.52 -0.39,0.48 -0.77,0.61 -0.15,1.19 0.48,1.43 -0.04,1.51 0.45,1.07 1.07,1.85 -0.85,2.74 -0.46,0.69 -0.74,0.33 -0.12,0.61 0.24,1.25 0,0 -3.1,0.4 -0.75,-0.14 -0.42,-0.24 -0.52,-0.54 -0.16,0.07 0.35,2.06 -0.21,0.72 -0.56,0.71 -0.19,1.36 0.2,0.42 0.54,0.36 0.25,0.37 0.01,1.88 0.46,1.44 0,0.37 -0.13,0.69 -0.85,0.75 0,0.25 0.36,0.65 -0.43,0.21 -0.19,-0.03 -0.26,-0.69 -1.03,-1.46 -0.04,-0.37 0.25,-0.39 -1.34,-1.21 -0.09,-0.78 -0.23,-0.11 -0.71,0.19 -0.26,-0.04 -0.28,-0.29 -0.2,-0.58 -0.16,-0.03 -0.78,0.29 -0.52,-0.03 -0.39,-0.49 -1.02,-0.58 -1.04,-1.29 -1.11,-0.24 -0.69,-0.71 -1.02,-0.14 -0.77,0.07 -1.01,-0.42 -1.08,0.42 -1.18,0.67 -0.92,-0.51 -0.57,-0.64 -0.11,-0.35 0.14,-0.35 0.73,-0.72 0.1,-0.26 0,-0.45 -0.27,-1.3 0.11,-0.38 0.6,-0.89 -0.13,-0.73 0.06,-0.44 1.02,-0.97 0.19,-0.85 0.27,-0.48 0.67,-0.21 0.7,0.15 0.32,-0.2 -0.03,-0.22 -0.29,-0.42 -0.09,-0.58 0.21,-0.54 0.59,-0.72 -0.14,-0.59 -0.52,-1.12 -0.49,-0.72 -0.86,-0.78 -0.73,-0.14 -1.07,0.48 -1.6,0 -0.47,-0.27 -0.38,-0.62 -0.5,-0.34 -0.44,-1.3 -0.07,-1.27 0.92,-0.24 0.24,-0.68 -0.4,-0.41 0,-0.16 0.98,-0.42 -0.63,-0.82 -0.25,-0.86 -0.77,-0.66 0.01,-0.25 -1.34,-0.17 -1.23,0.16 -2.26,-0.54 -0.78,-0.83 -0.75,-0.34 -1.25,-1.75 0,0 0.31,-0.37 0.1,-0.34 -0.44,-1.3 -0.28,-0.43 0.07,-0.92 -0.1,-0.2 -1.74,-1.07 -0.61,-0.06 -0.47,-0.47 -0.81,-0.469995 -0.68,-0.04 -0.59,0.18 -0.29,-0.07 -0.17,-0.2 -0.02,-1.2 0.17,-0.55 -0.01,-0.4 -0.47,-1.64 0.54,-1.2 -0.19,-0.91 -0.49,-0.6 -0.06,-0.4 0.29,-0.52 0.56,-0.19 0.13,-0.37 -0.49,-1.01 -0.8,-0.49 -0.38,-0.51 -2.08,-1.03 -0.75,-0.11 0.28,-1.41 -0.23,-1.16 0.11,-2.36 0.09,-0.42 0.42,-0.77 0.08,-0.75 0.37,-0.68 -0.12,-0.18 -0.41,-0.18 -0.4,-0.62 -1.27,-0.83 -0.17,-0.24 0.03,-0.26 0.66,-0.4 -0.06,-1.13 -0.3,-0.66 0,-1.36 0.04,-0.41 0.47,-0.71 0.14,-0.53 -0.39,-1.2 -0.07,-1.44 -0.48,-1.68 -0.04,-1.14 1.43,-1.27 0.75,-0.93 1.43,-1.12 0.81,-1.1 0.92,-0.76 0.84,-1.08 0,0 0.93,0.55 z" 
                fill="rgb(151, 144, 238)" 
                stroke="white" 
                stroke-width=".7px"
                title="Terengganu" 
                id="MY-11" 
            />
        </svg>