<svg xmlns="http://www.w3.org/2000/svg" viewBox="624.28392 79.93081499999997 8.889999999999986 6.980000000000047" width="8.889999999999986" height="6.980000000000047">
            <path 
                d="m 624.67392,86.470815 0.28,-0.07 0.15,0.09 0.1,0.29 -0.42,0.13 -0.2,-0.33 -0.3,-0.19 0.12,-0.13 0.27,0.21 z m 8.5,-1.82 -0.07,0.2 -0.25,-0.14 -0.37,-0.02 -0.17,-0.17 0.38,-0.43 0.4,0.08 0.08,0.48 z m -3.52,-4.65 0.22,0.24 -0.04,0.15 -0.19,0 -0.25,0.51 0.04,0.75 0.24,0.27 0.14,0.83 0.55,0.58 0.11,0.47 0.27,0.33 -0.18,0.29 -0.39,0.19 -0.35,0.05 -0.3,-0.19 -0.17,0.08 0.1,0.13 -0.01,0.43 0.43,0.19 -0.2,0.33 0,0.25 -0.11,0.04 -0.2,-0.28 -0.34,-0.08 -0.09,-0.14 0.08,-0.08 -0.39,-0.73 -0.48,-0.08 -0.12,-0.15 -0.15,0.15 -0.48,0.1 -0.19,0.41 -0.2,0.19 -0.24,-0.04 -0.24,0.44 -0.57,0.05 -0.02,-0.3 0.35,-0.51 0.1,-0.39 0.05,-0.7 0.65,-1.29 0.27,-0.28 0,-0.16 0.48,-0.73 1.08,-1.2 0.27,0.01 0.42,-0.2 0.05,0.07 z" 
                fill="rgb(151, 144, 238)" 
                stroke="white" 
                stroke-width=".7px"
                title="Wilayah Persekutuan Labuan" 
                id="MY-15" 
            />
        </svg>