<svg xmlns="http://www.w3.org/2000/svg" viewBox="85.655 167.81600000000006 132.64000000000016 161.31699999999992" width="132.64000000000016" height="161.31699999999992">
            <path 
                d="m 85.655,201.426 1.398,-0.794 0.897,-0.787 1.733,-0.879 1.134,-0.312 1.62,-1.582 0.863,-0.244 1.093,-1.063 0.291,-0.06 1.247,-1.464 1.641,-0.529 0.589,-0.555 0.418,-0.181 0.565,0.373 0.283,-0.013 0.549,-1.045 0.962,0.136 0.633,-0.671 0.954,0.347 0.163,-0.501 1.817,-0.735 0.358,0.19 0.433,-0.121 0.153,0.208 0.294,-0.196 0.503,0.216 0.239,-0.265 0.312,0.239 0.509,-0.213 0.251,-0.34 1.382,-0.232 0.149,-0.284 0.583,-0.236 0.283,0.334 1.165,0.045 0.199,-0.326 0.367,0.026 0.479,0.591 0.412,-0.354 0.038,0.406 0.412,0.193 0.642,-0.172 0.454,0.263 0.398,0.575 0.432,-0.173 0.516,0.501 0.299,-0.051 0.269,-0.354 0.835,0.347 0.992,-0.26 0.326,0.183 0.594,-0.146 0.266,-0.414 1.126,-0.388 0.384,0.175 0.708,-0.158 0.81,0.838 0.28,-0.047 1.083,0.554 0.372,-0.3 1.114,-0.309 0.86,0.294 0.258,-0.586 0.482,-0.003 1.455,0.6 0.643,-0.034 0.728,0.57 0.386,-0.072 0.181,0.189 -0.106,0.185 0.301,0.257 0.293,-0.133 0.353,0.302 1.07,0.158 1.737,-0.252 1.088,0.095 3.314,-0.861 0.358,-0.476 1.168,-0.318 0.357,-0.9 1.245,-0.508 0.439,-0.707 0.758,-0.377 0.086,-0.497 0.991,-0.337 0.282,0.396 0.352,-0.139 0.388,0.158 -0.081,-1.46 0.474,-0.326 0.36,0.233 0.637,-0.399 0.169,-0.933 0.255,-0.024 0.129,0.205 0.664,-0.266 0.172,-0.514 0.986,-0.604 0.422,-0.781 0.973,-0.515 0.22,-0.479 0.305,-0.041 0.373,0.333 0.318,-0.459 0.284,-0.065 0.172,-0.503 0.783,0.074 0.074,-0.362 0.293,0.054 0.944,-0.385 0.273,-1.244 0.307,-0.293 0.655,-0.129 0.699,-0.727 0.3,-0.444 -0.009,-0.334 0.348,-0.269 -0.035,-0.361 0.283,-0.502 1.762,-1.099 0.298,-0.023 0.184,-0.273 0.403,0.177 0.232,-0.54 0.703,-0.369 0.121,-0.719 0.729,0.152 0.612,-0.916 0.053,-0.306 -0.213,-0.283 0.185,-0.597 0.444,0.182 0.083,-0.569 0.354,0.206 0.602,-0.409 0.127,-0.688 -0.206,-0.648 0.968,-0.081 0.61,-0.987 -0.028,-0.315 1.153,-0.975 2.83,0.031 1.866,2.381 0.747,0.01 3.006,0.902 0,0 0.277,2.25 -0.223,3.037 1.437,0.883 2.543,0.739 2.425,-0.353 0.624,3.351 0.292,0.052 2.192,2.191 2.127,1.708 8.892,4.774 2.618,3.036 0.521,0.011 0.396,0.395 0.35,-0.637 3.066,1.758 1.295,-1.025 1.545,-0.783 0.968,1.984 2.24,2.34 1.504,0.215 1.611,1.835 0.201,1.508 1.217,0.067 0.044,0.223 0.334,-0.128 0.567,0.45 3.595,-0.34 0.45,2.25 -0.074,0.793 -0.844,1.38 0.918,3.291 1.422,3.359 -1.958,1.47 -3.928,4.549 -0.258,4.769 -1.508,5.583 2.083,5.463 -0.102,1.938 0.914,-0.121 0.643,1.659 -0.972,2.501 0.274,0.672 0.583,0.368 -0.643,1.05 0.297,2.396 -2.222,0.223 1.628,3.192 -0.041,0.292 -1.08,-0.169 -0.44,1.172 -3.756,1.9 1.574,2.349 0.584,1.863 0.485,0.288 -0.043,0.183 -0.568,0.022 0.031,0.538 0.201,0.389 0.755,0.572 0.944,2.204 0,0 -3.537,2.184 0.1,4.031 -3.063,-0.285 0.09,0.3 -2.322,1.712 -0.018,1.271 -2.78,1.897 -4.008,-1.569 -5.338,5.854 5.119,-0.169 0.229,1.439 -0.216,5.57 -4.799,0.099 -2.122,1.132 -0.817,1.031 -1.266,12.474 0.864,1.48 2.594,1.927 -0.346,0.135 0.129,0.365 -0.12,0.169 -0.543,-0.019 -0.274,-0.204 -0.295,0.372 -0.626,0.15 -0.596,-0.177 -0.213,0.314 0.05,0.347 -0.436,0.104 -0.376,-0.307 -0.466,-0.064 -0.019,0.479 -0.92,0.305 -0.492,-0.209 -0.676,0.758 -0.355,-0.137 1.291,4.724 0.107,1.692 -1.214,0.054 -2.883,6.003 4.659,3.219 -0.378,3.125 0.642,4.857 -0.333,3.167 -3.413,0.464 -1.023,-0.836 0,0 -13.045,-4.35 0.113,-0.656 -0.423,-0.195 -0.099,-0.351 -1.634,-0.143 -0.771,0.343 -0.405,-0.285 -1.099,-0.107 -0.434,-0.48 -0.206,0.322 -0.481,-0.353 -0.291,0.135 -0.446,-0.17 -0.345,0.257 -0.287,-0.229 -0.568,-0.051 -0.256,0.192 -0.289,-0.174 -0.498,0.04 -0.555,-0.685 -0.286,0.33 -0.729,-0.123 -0.043,-0.309 -0.367,-0.295 -0.622,0.349 -0.752,-0.572 -0.786,0.063 -0.552,-0.365 -0.779,-0.088 -0.501,0.146 -0.481,-0.575 -1.138,-0.259 -0.393,-0.604 -0.372,0.172 -27.379,-3.437 0,0 -1.848,-5.067 -0.201,-2.071 0.528,-0.912 1.534,-0.327 -0.251,0.259 -0.654,0.055 -0.214,0.34 0.076,0.137 0.515,-0.068 -0.264,1.212 1.144,-0.34 0.503,-0.586 0.025,-1.076 0.088,-0.408 -0.201,-0.082 0.126,-2.26 -0.767,-3.239 -2.627,-7.288 -0.943,-4.334 0.214,-2.77 0.314,-0.584 0.805,-0.326 -0.125,-1.316 0.151,-1.194 0.239,-0.366 0.415,-0.163 0.101,0.34 -0.49,0.813 -0.113,0.638 0.364,0.462 -0.503,2.797 0.541,-0.272 0.402,-0.475 0.956,0.055 -0.541,1.67 -0.214,1.141 0.101,0.285 0.566,-1.888 0.666,-0.665 -0.012,-0.367 -0.302,-0.217 0.729,-0.394 0.076,-0.313 1.433,-1.398 0.427,-0.854 -0.038,-2.809 0.239,-1.614 -0.692,-2.332 -0.352,-0.42 0.402,-1.247 -0.377,-1.098 0.101,-2.33 0.075,-0.854 -0.213,-0.975 -0.704,-1.313 0.264,-1.138 -0.101,-0.704 -0.88,-2.098 -1.006,-1.271 -0.515,-1.299 -0.39,-0.419 0.34,-0.257 -0.264,-0.46 0.201,-0.284 -1.182,-2.84 -0.038,-0.919 -0.968,-1.688 -0.553,-1.662 -1.896,-2.218 -1.485,-1.401 -0.05,-0.365 -1.27,-1.619 0.013,-1.634 -3.834,-4.573 -0.642,-1.064 -1.923,-2.05 -1.119,-1.994 -2.49,-2.412 -0.176,-0.875 -5.205,-4.483 0.176,-0.337 0.352,-0.04 0.151,-0.498 0.327,-0.135 0.276,-0.431 -0.025,-1.171 -0.604,-1.116 -1.76,-2.112 -2.037,-3.105 -0.151,-0.914 -0.478,-0.833 0.113,-0.243 -0.642,-1.315 0.365,-0.457 -0.038,-0.229 -1.898,-2.243 -0.076,-0.658 -0.553,-0.806 0.051,-0.336 -2.729,-3.021 0.038,-0.416 -0.402,-0.738 -1.572,-1.516 -0.251,-0.751 -0.528,-0.712 0.151,-0.442 -0.113,-0.402 -1.333,-1.367 -1.36,-1.885 z" 
                fill="rgb(151, 144, 238)" 
                stroke="white" 
                stroke-width=".7px"
                title="Erongo" 
                id="NA-ER" 
            />
        </svg>