<svg xmlns="http://www.w3.org/2000/svg" viewBox="122.91799999999986 297.5720000000001 251.165 133.83799999999974" width="251.165" height="133.83799999999974">
            <path 
                d="m 181.36,328.305 -0.819,8.207 3.422,1.011 2.408,0.043 3.346,-0.4 0.353,-1.633 2.765,-0.284 0.22,-0.25 3.926,-1.752 2.498,-0.563 1.904,0.38 3.467,-2.085 -0.747,1.911 0.457,2.258 -1.878,-0.253 -2.222,1.297 -1.406,1.134 0.671,0.714 4.751,0.255 0.982,2.095 -1.291,2.353 3.956,-2.148 -1.409,-4.509 3.101,-2.725 0.721,-1.637 0.855,1.296 1.381,-0.346 0.045,1.733 2.231,-0.023 -0.167,-0.854 1.871,0.373 -0.917,-3.789 -4.261,-0.651 -0.53,0.452 -3.517,-1.018 -0.682,0.083 0.611,-4.791 0.665,-1.736 -0.169,-0.617 0.358,-0.454 0.277,0.08 0.058,-0.879 0.867,-0.791 0.164,-0.43 0.691,-0.131 0.862,0.431 0.08,2.909 2.91,0.133 2.039,-1.278 2.504,-3.115 0.579,0.177 -0.066,-3.127 -4.259,-1.139 0.283,-1.832 3.009,-5.531 1.355,-3.867 1.615,-2.878 0.715,-0.041 1.115,1.023 0.533,1.444 0.057,-0.354 0.331,-0.044 0.523,0.04 0.269,0.326 0.235,-0.137 0.34,0.164 0.102,-0.2 0.16,0.219 0.66,-0.484 -0.014,-0.415 1.163,-0.118 0.559,0.63 0.849,1.578 3.995,-0.759 2.588,-0.796 2.652,-4.542 5.057,-0.076 2.96,1.615 0.796,-0.071 -0.125,0.827 0.34,0.344 0.053,0.644 -0.219,0.526 0.014,1.698 -0.378,0.231 0.365,2.018 7.14,-1.824 3.205,0.834 3.144,-1.01 -0.606,1.267 -2.501,1.257 0.503,1.152 0.12,2.503 -2.649,0.543 1.331,4.352 1.875,0.723 -0.2,4.687 0.679,3.267 3.516,-3.108 5.142,0.163 -0.044,-1.614 5.464,-0.023 3.375,-0.258 2.717,0.739 3.277,2.983 2.208,-1.174 0.546,0.756 2.117,-0.146 2.899,-1.526 4.322,-0.695 -0.814,-2.713 2.76,-0.854 5.22,-3.204 1.466,1.53 0,0 2.265,4.479 1.066,2.872 1.299,2.65 2.315,-1.87 3.812,4.064 4.629,0.783 8.165,-3.552 3.688,0.082 -1.301,1.673 4.506,0.048 1.553,0.873 3.351,-3.693 1.54,0.113 0.792,0.131 -0.035,9.173 29.574,0.006 3.679,-0.178 0,0 -0.024,86.544 0,0 -3.457,0.866 -0.33,-1.322 -6.228,2.697 -1.489,1.012 -2.327,-1.754 -3.793,-0.508 -2.09,-0.024 -0.681,-1.675 -4.589,-0.756 -2.383,0.067 -2.756,3.009 -1.579,-2.96 -3.616,-5.353 -1.843,2 -4.556,2.246 -6.052,-1.025 -6.115,0.037 -5.728,-0.49 -5.329,0.205 0.139,-4.438 -3.868,-0.39 -4.534,0.381 -7.688,-0.044 -4.01,1.731 -1.285,1.15 -8.467,2.231 -2.826,0.469 -1.422,0.022 -3.634,0.727 -2.358,-0.007 -2.334,0.558 -2.943,-0.265 -0.94,-0.137 -1.8,-0.983 -2.382,-0.068 -0.307,0.343 -0.682,0.021 -0.242,-0.171 -0.166,-0.575 -0.245,-0.032 -0.075,0.458 -3.868,3.816 0.012,5.935 -8.028,-3.679 -2.059,1.746 -1.581,-0.633 -3.123,1.233 -1.633,0.402 0.159,-2.587 -3.264,-1.793 -3.351,0.133 -0.96,-1.641 -4.903,-1.331 -3.481,-0.482 -2.172,0.384 -1.941,-4.461 -2.893,7.407 -2.872,0.209 1.325,-0.627 0.39,-0.616 0.106,-0.813 -0.311,-0.596 -1.339,-1.398 -1.204,-0.647 -4.771,1.701 0.838,5.411 1.355,5.022 0.812,3.853 -3.263,-2.445 -2.918,2.136 -3.396,-3.761 -2.24,-3.476 -5.079,-6.876 -3.464,1.03 -3.539,-21.756 -1.521,-7.926 -41.112,0.36 0,0 -0.851,0.012 -2.489,-4.854 0.201,-1.186 -0.339,-2.095 0.289,-0.083 0.076,-0.702 -1.396,-3.65 -1.22,-2.202 -1.76,-2.078 -0.427,-0.757 -2.854,-3.122 -1.559,-2.159 0.138,-1.044 0.603,-1.141 0.302,-1.236 -0.327,-1.924 -4.212,-9.304 -2.59,-8.414 -0.427,-3.423 0.125,-2.066 0.377,-1.095 0.604,-0.958 0.993,-0.629 0.541,0.041 0.264,-0.916 -0.365,-1.941 0.113,-1.012 -0.277,-2.009 0.201,-0.396 -0.515,-1.817 0.213,-0.847 -0.088,-1.065 0.201,-0.478 -0.101,-2.157 0.427,-1.91 -1.471,-4.286 0,0 27.379,3.437 0.372,-0.172 0.393,0.604 1.138,0.259 0.481,0.575 0.501,-0.146 0.779,0.088 0.552,0.365 0.786,-0.063 0.752,0.572 0.622,-0.349 0.367,0.295 0.043,0.309 0.729,0.123 0.286,-0.33 0.555,0.685 0.498,-0.04 0.289,0.174 0.256,-0.192 0.568,0.051 0.287,0.229 0.345,-0.257 0.446,0.17 0.291,-0.135 0.481,0.353 0.206,-0.322 0.434,0.48 1.096,0.115 0.405,0.285 0.771,-0.343 1.634,0.143 0.099,0.351 0.423,0.195 -0.113,0.656 13.049,4.347 z" 
                fill="rgb(151, 144, 238)" 
                stroke="white" 
                stroke-width=".7px"
                title="Hardap" 
                id="NA-HA" 
            />
        </svg>