<svg xmlns="http://www.w3.org/2000/svg" viewBox="138.79500000000007 388.337 235.26299999999998 200.13300000000015" width="235.26299999999998" height="200.13300000000015">
            <path 
                d="m 159.429,497.762 0.101,0.211 -0.176,-0.056 0.075,-0.155 z m -0.843,-3.822 -0.05,0.309 -0.125,-0.211 0.175,-0.098 z m -2.25,-6.179 0.188,0.771 0.176,0.07 0.138,0.604 0.164,0 0.05,0.352 -0.227,0.084 0,-0.365 -0.541,-0.688 0.052,-0.828 z m -4.362,-18.271 0.125,0.28 -0.164,0.434 -0.188,-0.07 -0.025,-0.531 0.252,-0.113 z m 2.828,-1.063 -0.013,0.602 -0.164,-0.294 0.177,-0.308 z m 0.025,-1.035 0.176,0.266 -0.239,0.392 0.063,-0.658 z m -9.869,-15.292 -0.063,0.307 -0.163,-0.167 0.226,-0.14 z m -3.197,-63.403 41.112,-0.36 1.521,7.926 3.539,21.756 3.464,-1.03 5.079,6.876 2.24,3.476 3.396,3.761 2.918,-2.136 3.263,2.445 -0.812,-3.853 -1.355,-5.022 -0.838,-5.411 4.771,-1.701 1.204,0.647 1.339,1.398 0.311,0.596 -0.106,0.813 -0.39,0.616 -1.325,0.627 2.872,-0.209 2.893,-7.407 1.941,4.461 2.172,-0.384 3.481,0.482 4.903,1.331 0.96,1.641 3.351,-0.133 3.264,1.793 -0.159,2.587 1.633,-0.402 3.123,-1.233 1.581,0.633 2.059,-1.746 8.028,3.679 -0.012,-5.935 3.868,-3.816 0.075,-0.458 0.245,0.032 0.166,0.575 0.242,0.171 0.682,-0.021 0.307,-0.343 2.382,0.068 1.8,0.983 0.938,0.135 2.943,0.265 2.334,-0.558 2.358,0.007 3.634,-0.727 1.422,-0.022 2.826,-0.469 8.467,-2.231 1.285,-1.15 4.01,-1.731 7.688,0.044 4.534,-0.381 3.868,0.39 -0.139,4.438 5.329,-0.205 5.728,0.49 6.115,-0.037 6.052,1.025 4.556,-2.246 1.843,-2 3.616,5.353 1.579,2.96 2.756,-3.009 2.383,-0.067 4.589,0.756 0.681,1.675 2.09,0.024 3.793,0.508 2.327,1.754 1.489,-1.012 6.228,-2.697 0.33,1.322 3.457,-0.866 0,0 -0.014,142.453 -0.108,0.22 -0.193,-0.028 -0.09,-0.289 -0.821,0.004 -2.625,1.002 -1.162,-0.236 -0.526,0.099 -0.576,0.718 -0.757,0.147 -0.353,0.605 0.053,0.467 -0.739,1.134 -0.527,0.29 -1.515,-0.359 -0.874,-0.642 -0.977,-0.157 -0.898,0.499 -0.989,1.127 -1.073,0.231 -0.214,0.464 -1.96,-1.031 -1.28,0.508 -0.54,0.44 -0.868,-0.09 -0.888,0.822 -0.135,1.572 -0.323,0.653 -1.463,0.727 -0.557,4.025 -0.529,0.414 -0.585,0.938 -1.072,0.623 -0.529,0.099 -1.253,0.855 -0.75,-0.157 -1.642,0.474 -0.777,-0.354 -0.682,0.067 -0.696,-0.285 -1.56,0.558 -0.496,0.872 -0.843,2.74 0.779,2.306 0.479,0.686 0.665,0.043 0.39,0.254 0.292,0.497 -0.044,0.401 -0.584,0.761 -1.717,-0.341 -0.61,0.416 -0.342,0.656 -1.228,1.207 -1.891,0.771 -0.881,-0.059 -0.747,0.445 -0.961,-0.188 -1.151,-0.398 -1.372,-1.367 -1.493,-0.113 -0.724,-2.158 -0.956,-0.868 -0.505,-0.05 -1.149,-0.63 -1.384,-0.086 -2.239,-0.573 -0.449,0.243 -0.928,-0.297 -0.513,0.172 -1.073,-0.304 -0.486,0.189 -1.326,-0.533 -0.915,-0.126 -1.85,0.543 -1.281,0.104 -0.775,-0.213 -0.715,0.056 -1.039,0.687 -1.671,0.129 -1.365,0.474 -1.147,1.194 -1.861,-0.319 -2.147,0.902 -2.562,-0.383 -0.754,-0.652 -2.243,0.203 -1.706,-0.266 -0.45,0.848 -1.538,-0.083 -0.837,0.845 -0.573,0.275 -1.176,-0.962 -0.674,-0.25 -0.875,0.131 -1.251,-0.931 -0.771,-0.326 -1.103,0.324 -0.574,-0.138 -0.892,-1.434 -0.559,-0.42 -0.081,-0.533 -0.848,-0.942 -0.51,-0.149 -0.349,-0.654 -0.564,-0.468 -0.782,0.227 -0.429,-0.087 -0.411,-0.923 -0.39,-0.278 -0.47,0.429 -1.218,-0.439 -2.336,-0.147 -0.358,-0.295 -1.782,0.136 -1.436,-0.925 -0.327,0.131 -0.502,0.903 -0.355,0.021 -0.411,-0.628 -0.46,-0.18 -0.528,0.286 -0.614,0.834 -0.586,0.289 -0.862,0.079 -1.401,-0.669 -0.33,-0.735 0.171,-0.979 -0.117,-0.736 -0.505,-0.939 -0.42,-0.304 -0.959,-0.162 -0.588,0.162 -0.112,0.358 -0.472,0.273 -2.318,-0.399 -0.858,0.611 -0.467,-0.148 -1.44,0.992 -0.54,0.001 -0.352,-0.366 0.307,-0.945 -0.149,-1.278 0.635,-1.073 -0.108,-0.839 0.258,-1.002 -0.302,-0.732 0.34,-0.867 -0.017,-0.46 -0.314,-0.422 -0.544,-0.175 -1.072,0.441 -0.403,-0.115 -0.179,-0.345 0.056,-1.271 -0.5,-1.402 -1.167,-0.72 -0.343,-1.067 0.264,-1.142 0.442,-0.71 1.628,-0.102 0.521,-0.465 0.627,-1.453 0.183,-1.205 -0.435,-1.088 -1.295,-1.705 0.286,-1.321 -0.511,-0.877 -0.394,-0.218 -0.303,-1.146 -1.015,-1.332 -1.149,-0.078 -1.322,1.079 -1.042,-0.382 -1.11,0.66 -0.738,-0.151 -0.871,-1.029 -0.583,-1.244 0.034,-1.045 0.597,-2.714 -0.202,-1.097 -0.575,-0.48 -0.583,0.076 -1.283,-0.378 -0.3,-0.376 -0.266,-0.933 -1.946,-1.744 -0.441,0.078 -0.265,0.406 -0.721,0.336 -1.333,0.15 -0.597,1.031 -0.285,0.162 -0.499,-0.246 -0.292,-0.438 -0.486,-0.171 -0.874,0.879 -1.417,-0.341 -1.119,0.269 -0.771,1.192 0.372,1.093 -0.007,0.998 -0.242,0.595 0.172,1.143 -0.778,0.466 -0.354,-0.468 -0.792,-0.393 -0.64,0.077 -0.204,0.402 0.156,0.455 0.946,0.754 0.223,0.688 -1.048,0.302 -1.001,-0.196 -0.35,0.422 0.164,0.585 0.874,0.595 -0.056,1.223 -0.427,0.362 -0.531,-0.022 -1.23,-0.847 -0.733,0.181 -0.258,0.52 -0.116,0.917 0.145,0.584 0.488,0.603 0.634,0.401 0.397,1.234 0.894,0.82 -1.787,1.785 -0.083,0.628 0.439,1.585 -0.358,0.664 -0.847,0.552 -0.729,1.555 -0.413,0.268 -1.089,-0.13 -0.185,-0.987 -0.312,-0.331 -0.792,0.063 -2.316,1.418 -0.386,1.033 -0.765,0.702 -2.97,1.055 -2.249,0.556 -0.555,0.389 -0.13,0.519 -0.438,0.478 -0.173,2.041 0.283,0.241 -5.517,-4.074 -2.188,-2.235 0.063,-0.313 -0.465,-0.37 -0.113,0.143 -3.759,-4.382 -3.671,-3.54 -3.143,-3.665 -1.923,-1.719 -1.069,-0.695 -1.974,-1.959 -1.144,-0.78 -2.1,-2.085 -0.377,-0.142 -6.324,-6.959 -0.151,-0.481 -1.383,-1.714 -0.227,-0.991 0.465,-0.622 -0.251,-1.048 -1.144,-1.415 -0.289,-0.934 -1.056,-1.527 -1.408,-1.23 -0.905,-1.116 -0.101,-0.382 -1.082,-0.919 0.063,-0.522 -0.729,-0.819 -0.138,-0.819 0.239,-0.41 -0.591,-0.819 -0.038,-0.438 0.44,-1.13 -0.666,-1.284 -0.817,-0.861 -0.05,-0.381 -0.541,-0.438 -0.151,-0.424 -0.956,-0.959 0.327,-0.254 -0.013,-0.282 -1.207,-1.933 0.063,-0.437 -0.604,-0.663 -0.629,-1.283 -1.056,-0.719 -0.201,-0.437 -0.741,-0.534 -0.202,-1.199 -0.415,-0.479 0.125,-0.226 -0.792,-0.662 -0.251,-0.647 -0.591,-0.479 -0.541,-0.985 -0.076,-0.521 -0.893,-1.295 -0.264,-1.323 0.138,-0.281 -0.176,-0.085 0.05,-0.521 -0.251,-0.338 0.038,-0.829 -0.704,-0.957 -0.101,-0.506 0.125,-0.366 -0.214,-0.323 0.013,-0.591 0.164,-0.59 0.339,-0.352 -0.314,-0.464 -0.038,-0.97 -0.503,-0.703 -0.201,-1.054 0,-0.28 0.076,0.21 0.201,-0.07 0.163,-0.478 -0.213,-0.786 -0.402,-0.618 -0.39,-0.238 -0.264,-0.843 -0.05,-1.671 0.327,-0.744 -0.088,-0.659 0.251,-0.604 -0.516,-2.413 -0.604,-0.575 -0.729,-0.182 -0.327,0.111 -0.076,0.548 -0.704,-0.771 -0.364,-0.154 -0.289,0.126 -0.453,-0.364 0.075,-0.926 0.227,-0.505 0.163,0.028 -0.427,-0.406 0.264,-0.239 -0.038,-0.519 -0.201,-0.042 -0.276,0.337 -0.201,-0.701 -0.176,-0.028 0.176,-0.742 -0.227,0.168 -0.151,-0.126 -0.188,-1.149 -0.327,0.225 -0.189,-0.322 -0.063,-1.205 -0.239,-0.308 -0.164,0.042 -0.151,-0.49 0.088,-0.295 0.188,0.057 0.05,-1.106 -0.478,-0.225 -0.226,0.07 0,0.267 -0.214,-0.322 -0.264,-1.946 -0.251,-0.378 0.063,-1.735 0.49,-0.14 0.377,-0.392 0.503,0.363 0.314,-0.657 0.188,0.224 -0.075,0.378 0.364,-1.259 0.428,0.965 -0.037,0.328 -0.34,0.168 0.214,0.182 -0.113,0.294 0.151,-0.056 -0.075,0.252 0.39,0.392 0.038,0.602 0.327,0.267 0.075,-0.658 -0.239,-0.657 0.427,-0.322 -0.377,-0.042 0.176,-1.455 0.038,0.573 0.214,0.084 0.163,-0.545 0.339,-0.168 -0.075,-0.825 0.628,-0.518 -0.327,-1.105 -0.83,0.07 -0.39,-0.489 -0.226,-3.452 -0.905,-1.09 0.201,-0.336 -0.566,-0.866 0.327,-0.014 0.151,-0.224 -0.063,-0.488 -1.031,-1.075 -0.201,-0.769 -0.667,-0.614 -2.263,-1.619 -2.564,-0.99 -1.119,-1.579 -0.001,-0.235 0.366,-0.195 -0.327,-1.102 0.189,-0.99 -0.164,-0.418 0.339,-0.167 -0.188,-0.182 0.138,-0.167 -0.201,-0.879 0.591,-0.696 -0.038,-0.795 0.239,-0.056 -0.49,-0.961 -0.666,-0.571 -0.164,-0.488 -0.113,0.084 -0.352,-0.878 0.327,-0.348 0.339,0.167 0.075,0.432 0.264,0.014 0.742,-0.515 0.465,-0.934 0.05,-2.103 -0.968,-2.561 0.113,-0.57 -0.201,-0.724 -2.125,-3.282 -0.302,-1.946 0.163,-1.557 0.227,-0.152 -0.088,-0.278 -0.843,-1.278 -1.483,-1.402 -0.038,-0.542 -0.667,-0.583 -0.164,-0.792 -0.553,-0.568 0.151,-0.875 0.679,0.056 0.138,-0.25 -0.063,-1.193 -0.49,-0.889 0.176,-0.818 -0.101,-0.749 0.742,-2.565 1.282,-1.969 -0.012,-0.998 -1.145,-2.743 -0.893,-1.107 0.302,-1.676 -1.458,-2.215 -0.164,-1.038 0.176,-0.415 -0.113,-1.065 0.139,-0.733 -0.49,-1.217 0.05,-0.622 0.264,-0.014 0.453,-1.425 0.327,-1.824 0.792,-1.354 -0.113,-1.561 0.39,-1.63 1.194,-1.713 -0.05,-0.911 -1.182,-2.939 0.841,-0.03 z" 
                fill="rgb(151, 144, 238)" 
                stroke="white" 
                stroke-width=".7px"
                title="Karas" 
                id="NA-KA" 
            />
        </svg>