<svg xmlns="http://www.w3.org/2000/svg" viewBox="283.5190000000001 20.439999999999984 77.12799999999993 84.794" width="77.12799999999993" height="84.794">
            <path 
                d="m 357.833,42.239 0.424,1.256 1.033,1.349 -0.193,1.216 -0.711,1.013 -8.724,7.159 10.985,20.697 -1.293,3.727 -0.128,2.101 0.516,7.122 -0.193,1.357 0.129,4.684 0.323,1.359 -0.581,1.901 -0.97,1.496 -1.356,0.679 -2.456,0.34 -1.099,0.611 -0.904,0.952 -0.905,1.564 -1.943,2.412 0,0 -11.803,-0.044 0.104,-17.924 -45.458,-2.754 0,0 -9.111,-0.498 0,-46.738 0,0 0,-16.801 0,0 19.146,-0.035 0.491,0.792 0.761,0.598 0.269,0.788 0.675,0.573 0.363,1.571 1.484,0.74 0.313,0.725 0.741,0.596 0.618,1.764 0.765,0.891 1.508,0.295 0.51,0.72 0.3,0.139 -0.067,0.811 0.421,0.739 4.827,3.518 0.857,1.287 1.176,-0.11 0.409,0.847 0.548,0.57 1.999,0.329 0.113,0.578 1.052,0.801 0.709,-0.099 0.742,0.608 0.527,0.166 1.716,0.016 1.171,0.446 0.851,-0.139 1.612,0.33 3.568,0.16 0.417,-0.174 0.643,-1.049 0.426,-0.098 1.09,0.296 0.309,-0.22 0.933,0.459 1.391,0.352 0.436,-0.054 0.565,-0.451 0.555,0.383 0.764,-0.132 0.82,0.608 0.504,-0.203 0.62,0.385 0.601,-0.147 0.166,0.305 -0.628,0.366 0.22,0.267 0.592,-0.213 0.871,0.338 0.24,-0.461 0.369,0.02 0.874,0.663 0.646,0.212 0.775,-0.132 0.648,0.114 0.921,-0.346 0.503,0.295 0.822,0.13 0.417,-0.197 0.407,0.249 0.152,-0.408 0.202,-0.043 1.74,0.426 0.901,0.007 0.462,-0.294 1.543,-0.045 z" 
                fill="rgb(151, 144, 238)" 
                stroke="white" 
                stroke-width=".7px"
                title="Kavango West" 
                id="NA-KW" 
            />
        </svg>