<svg xmlns="http://www.w3.org/2000/svg" viewBox="349.6619999999999 40.63299999999995 137.75700000000012 64.60100000000004" width="137.75700000000012" height="64.60100000000004">
            <path 
                d="m 349.787,105.234 1.943,-2.412 0.905,-1.564 0.904,-0.952 1.099,-0.611 2.456,-0.34 1.356,-0.679 0.97,-1.496 0.581,-1.901 -0.323,-1.359 -0.129,-4.684 0.193,-1.357 -0.516,-7.122 0.128,-2.101 1.293,-3.727 -10.985,-20.697 8.724,-7.159 0.711,-1.013 0.193,-1.216 -1.033,-1.349 -0.424,-1.256 0,0 0.946,-0.148 0.658,0.222 1.247,1.474 0.379,-0.095 -0.348,-0.22 0.107,-0.21 0.651,0.196 0.67,1.102 0.598,0.416 0.644,-0.137 0.355,-0.774 1.17,-0.82 0.828,-0.122 1.574,0.503 1.129,0.005 0.699,-0.137 0.995,-0.781 1.952,0.609 0.679,0.697 1.204,-0.159 1.333,0.635 1.488,-0.578 1.082,0.195 0.7,0.589 0.669,0.188 1.77,-0.972 0.534,-0.097 0.246,-0.365 2.044,0.434 0.805,-0.07 0.33,0.311 0.35,-0.113 0.54,-0.944 0.329,-0.167 0.424,-0.002 0.654,0.458 0.454,-0.49 0.699,-0.192 2.401,1.578 0.904,-0.068 1.248,0.578 1.008,0.041 0.614,0.305 0.865,1.493 0.952,0.236 1.891,1.205 0.562,0.183 1.521,0.025 0.517,-0.319 0.561,-0.055 0.448,0.465 0.225,-0.399 0.647,0.241 0.546,-0.154 1.477,0.668 0.412,0.659 0.796,0.503 2.039,-0.42 0.172,0.742 0.665,-0.097 0.614,0.315 0.607,0.054 0.72,0.523 1.173,0.064 1.364,-0.369 0.061,-0.357 -0.214,-0.221 0.27,-0.604 0.927,-0.148 0.129,-0.573 1.571,-0.401 0.708,-0.858 1.659,-0.585 0.866,0.274 2.646,-0.308 0.363,-0.331 1.606,0.188 0.716,-0.641 0.898,0.198 0.852,-0.313 0.987,0.145 1.872,-0.298 1.006,1.079 1.22,0.561 0.727,-0.011 1.69,0.879 1.563,0.019 0.862,0.576 0.254,0.524 1.173,0.058 0.905,0.661 0.277,0.004 48.199,-9.561 0,0 0.256,13.808 0,0 -46.854,9.671 -21.277,-0.007 -0.058,41.11 0,0 0,0 0,0 z" 
                fill="rgb(151, 144, 238)" 
                stroke="white" 
                stroke-width=".7px"
                title="Kavango East" 
                id="NA-KE" 
            />
        </svg>