<svg xmlns="http://www.w3.org/2000/svg" viewBox="180.54200000000034 226.5 125.7329999999998 116.24100000000016" width="125.7329999999998" height="116.24100000000016">
            <path 
                d="m 288.817,226.5 1.438,4.126 -3.378,2.804 -0.289,0.53 -0.02,0.356 0.238,0.205 0.233,0.786 0.668,0 0.686,0.577 0.016,0.338 0.204,0.098 -0.576,3.45 -1.169,0.188 -0.037,1.545 -0.727,-0.157 -0.545,2.575 0.598,0.069 0.623,2.808 -4.793,0.728 -0.46,3.661 1.693,4.086 0.294,0.388 0.037,-0.222 1.72,2.399 2.508,-0.67 2.173,3.545 1.461,0.852 -3.014,1.54 2.535,2.485 2.24,-1.715 1.149,4.79 0.918,8.017 1.613,3.831 -0.176,6.857 4.572,-0.762 0.038,2.209 -4.178,0.762 0.769,2.994 1.951,-0.541 0.457,1.477 2.74,0.212 1.207,3.564 -4.52,0.068 -0.835,2.402 5.203,4.315 2.193,2.064 -3.09,7.873 0,0 -1.467,-1.53 -5.219,3.204 -2.76,0.854 0.814,2.713 -4.322,0.696 -2.899,1.526 -2.117,0.146 -0.546,-0.755 -2.208,1.173 -3.277,-2.983 -2.717,-0.739 -3.375,0.258 -5.464,0.023 0.044,1.614 -5.142,-0.163 -3.516,3.109 -0.679,-3.267 0.2,-4.687 -1.875,-0.722 -1.331,-4.352 2.649,-0.543 -0.12,-2.503 -0.503,-1.152 2.501,-1.257 0.607,-1.266 -3.144,1.009 -3.205,-0.834 -7.14,1.825 -0.365,-2.018 0.378,-0.231 -0.013,-1.699 0.218,-0.526 -0.053,-0.644 -0.34,-0.343 0.125,-0.828 -0.796,0.072 -2.96,-1.615 -5.056,0.076 -2.652,4.542 -2.588,0.796 -3.995,0.758 -0.849,-1.578 -0.558,-0.63 -1.163,0.119 0.013,0.415 -0.66,0.484 -0.16,-0.219 -0.101,0.2 -0.34,-0.164 -0.236,0.137 -0.268,-0.326 -0.523,-0.04 -0.331,0.044 -0.057,0.353 -0.533,-1.444 -1.115,-1.023 -0.715,0.041 -1.615,2.877 -1.356,3.868 -3.009,5.531 -0.282,1.832 4.259,1.139 0.066,3.127 -0.579,-0.177 -2.504,3.115 -2.039,1.278 -2.91,-0.132 -0.081,-2.91 -0.862,-0.43 -0.691,0.131 -0.164,0.429 -0.867,0.791 -0.058,0.879 -0.277,-0.08 -0.358,0.454 0.169,0.617 -0.665,1.737 -0.611,4.791 0.681,-0.083 3.517,1.017 0.531,-0.452 4.26,0.652 0.917,3.789 -1.871,-0.373 0.166,0.853 -2.231,0.024 -0.046,-1.734 -1.381,0.346 -0.855,-1.296 -0.721,1.637 -3.101,2.724 1.409,4.509 -3.955,2.148 1.291,-2.352 -0.982,-2.095 -4.752,-0.255 -0.671,-0.714 1.406,-1.133 2.223,-1.297 1.878,0.253 -0.457,-2.258 0.747,-1.911 -3.467,2.085 -1.904,-0.38 -2.498,0.562 -3.926,1.752 -0.221,0.25 -2.765,0.284 -0.352,1.633 -3.346,0.401 -2.408,-0.043 -3.421,-1.011 0.818,-8.207 0,0 1.024,0.836 3.413,-0.464 0.332,-3.167 -0.641,-4.857 0.378,-3.125 -4.659,-3.219 2.883,-6.003 1.214,-0.054 -0.107,-1.692 -1.291,-4.724 0.356,0.137 0.676,-0.758 0.492,0.209 0.92,-0.305 0.019,-0.479 0.466,0.064 0.377,0.307 0.436,-0.104 -0.05,-0.347 0.214,-0.315 0.595,0.177 0.627,-0.15 0.295,-0.372 0.274,0.204 0.543,0.018 0.121,-0.169 -0.129,-0.365 0.346,-0.135 -2.594,-1.926 -0.865,-1.481 1.266,-12.473 0.817,-1.032 2.122,-1.132 4.799,-0.098 0.216,-5.571 -0.23,-1.439 -5.119,0.169 5.339,-5.854 4.008,1.57 2.78,-1.898 0.018,-1.271 2.322,-1.712 -0.09,-0.3 3.062,0.285 -0.1,-4.031 3.537,-2.184 0,0 4.473,-1.377 0.977,1.362 2.163,-1.79 2.374,0.846 0.866,-1.037 5.869,0.53 -1.516,-2.109 -3.751,0.458 -0.476,-0.941 1.119,-0.921 0.952,-1.773 0.586,0.115 -0.035,-1.063 0.999,0.237 2.795,2.545 0.583,2.097 4.126,-1.99 0.226,0.2 2.544,-2.754 1.179,2.566 2.686,-2.403 1.394,-0.978 1.141,2.783 2.692,-1.731 4.157,-1.614 -0.173,-2.829 1.243,-2.002 0.768,1.961 2.872,-1.111 1.037,0.088 0.154,-0.318 -0.066,-0.671 0.265,-0.228 -0.167,-0.413 0.164,-0.358 -0.45,-0.482 3.119,1.681 0.43,-3.53 -1.01,-3.28 1.75,-0.068 1.531,-1.264 -0.345,-0.895 2.717,-1.888 0.566,-1.617 3.952,-0.922 1.705,1.886 2.148,-0.848 2.477,-0.699 1.968,-1.228 1.637,-1.97 2.161,-0.89 2.465,-0.818 0.446,1.057 z" 
                fill="rgb(151, 144, 238)" 
                stroke="white" 
                stroke-width=".7px"
                title="Khomas" 
                id="NA-KH" 
            />
        </svg>