<svg xmlns="http://www.w3.org/2000/svg" viewBox="0 0 225.70799999999997 201.42600000000002" width="225.70799999999997" height="201.42600000000002">
            <path 
                d="m 65.421,0.387 0.632,-0.213 0.252,0.2 0.248,0.736 0.99,-0.085 1.07,0.507 0.848,0.168 0.822,-0.48 1.907,-0.189 0.481,-0.35 1.724,0.046 1.592,1.082 2.132,0.692 0.989,0.866 0.444,1.093 1.273,1.465 0.062,0.928 -0.78,0.977 0.266,0.414 0.435,0.026 1.114,0.572 1.478,0.889 1.694,1.381 0.873,0.37 1.958,2.005 0.622,-0.01 0.917,0.663 0.29,0.448 1.481,0.485 1.52,1.109 0.622,0.246 0.709,0.721 3.027,1.263 1.567,1.33 0.122,0.591 0.48,0.606 0.02,0.624 1.267,0.733 1.634,-0.081 1.178,-0.558 3.404,1.068 0.473,-0.174 0.321,-0.592 0.809,0.294 1.019,0.052 0.613,-0.643 1.402,-0.229 0.598,-0.435 0,0 0.377,0.165 -0.314,0.435 0.469,0.463 -0.779,1.581 0.024,0.431 -0.461,0.193 -0.211,0.967 -0.445,0.338 -0.768,1.72 -0.681,0.406 -0.788,1.52 0.728,0.905 1.742,0.951 -0.259,3.291 -0.65,1.039 -0.843,0.605 6.115,12.94 1.23,19.809 -0.447,10.991 1.79,5.932 2.338,4.806 -0.1,0.641 0.263,1.914 -1.642,5.044 -0.197,1.448 1.31,4.509 1.185,3.28 0.496,0.777 0.738,0.104 1.041,1.088 0.304,0.072 0.738,2.204 -0.046,1.343 -0.429,0.774 -0.574,0.48 -0.432,2.077 6.261,0.144 0.322,-4.333 -2.535,0.115 -0.1,-3.941 5.116,-0.576 11.979,0.028 5.253,-1.223 2.665,-0.147 5.109,0.912 5.218,-1.619 0,0 -0.126,2.609 2.506,0.085 2.302,-0.423 4.062,0.324 1.821,-0.466 0.428,0.455 9.141,1.864 4.019,-0.032 4.044,2.224 0,0 5.43,0.792 3.36,0.888 2.281,0.175 2.084,0.898 5.664,1.367 2.421,0.069 3.433,0.819 5.163,0.033 4.639,2.416 0,0 0.906,4.667 -1.034,17.107 0.483,1.213 -0.776,1.103 -3.607,1.087 -4.17,0.181 0.109,2.649 1.241,3.064 -3.176,-0.033 -1.077,0.32 -3.758,2.375 -1.948,0.44 -1.175,1.238 -0.126,3.743 0.823,1.367 -0.349,2.394 -3.511,1.745 -0.864,-1.666 -1.999,0.383 -2.317,1.21 -3.431,-0.254 -3.655,1.197 -1.757,1.568 -2.925,3.708 -2.869,-3.091 -4.041,0.187 -1.418,1.748 -0.446,1.797 -4.17,0 0,0 -3.006,-0.902 -0.747,-0.01 -1.866,-2.381 -2.83,-0.031 -1.153,0.974 0.028,0.315 -0.61,0.987 -0.969,0.081 0.206,0.648 -0.128,0.688 -0.601,0.409 -0.354,-0.206 -0.083,0.568 -0.444,-0.181 -0.185,0.596 0.214,0.284 -0.053,0.305 -0.612,0.916 -0.729,-0.152 -0.121,0.719 -0.703,0.368 -0.233,0.54 -0.403,-0.177 -0.184,0.273 -0.298,0.023 -1.762,1.098 -0.283,0.503 0.036,0.361 -0.349,0.268 0.009,0.334 -0.3,0.444 -0.698,0.727 -0.656,0.129 -0.306,0.293 -0.273,1.243 -0.944,0.386 -0.294,-0.054 -0.074,0.362 -0.783,-0.074 -0.172,0.503 -0.284,0.064 -0.319,0.459 -0.372,-0.332 -0.306,0.04 -0.22,0.479 -0.973,0.515 -0.422,0.781 -0.986,0.604 -0.172,0.514 -0.664,0.266 -0.129,-0.204 -0.255,0.024 -0.169,0.933 -0.637,0.399 -0.36,-0.233 -0.473,0.325 0.08,1.46 -0.388,-0.158 -0.352,0.139 -0.281,-0.397 -0.991,0.337 -0.086,0.497 -0.758,0.377 -0.44,0.707 -1.245,0.508 -0.357,0.9 -1.169,0.318 -0.358,0.476 -3.314,0.861 -1.088,-0.095 -1.737,0.252 -1.071,-0.158 -0.353,-0.303 -0.293,0.134 -0.301,-0.258 0.107,-0.185 -0.181,-0.189 -0.386,0.072 -0.728,-0.57 -0.643,0.034 -1.455,-0.6 -0.482,0.004 -0.258,0.586 -0.86,-0.294 -1.113,0.309 -0.372,0.3 -1.084,-0.554 -0.28,0.047 -0.81,-0.838 -0.707,0.157 -0.384,-0.175 -1.127,0.388 -0.265,0.414 -0.594,0.147 -0.326,-0.183 -0.992,0.26 -0.836,-0.346 -0.269,0.354 -0.299,0.051 -0.516,-0.502 -0.431,0.173 -0.398,-0.575 -0.454,-0.263 -0.642,0.172 -0.412,-0.193 -0.038,-0.406 -0.412,0.354 -0.479,-0.591 -0.367,-0.026 -0.198,0.326 -1.165,-0.045 -0.283,-0.335 -0.583,0.237 -0.149,0.283 -1.382,0.232 -0.252,0.341 -0.509,0.213 -0.311,-0.239 -0.239,0.264 -0.503,-0.215 -0.295,0.196 -0.153,-0.208 -0.433,0.121 -0.358,-0.19 -1.816,0.735 -0.164,0.502 -0.953,-0.347 -0.633,0.671 -0.962,-0.135 -0.549,1.045 -0.282,0.013 -0.565,-0.372 -0.418,0.18 -0.589,0.555 -1.641,0.529 -1.247,1.464 -0.29,0.06 -1.094,1.062 -0.862,0.245 -1.62,1.582 -1.134,0.311 -1.734,0.879 -0.897,0.787 -1.398,0.794 0,0 -1.207,-1.135 -0.478,-0.884 -0.767,-0.644 -0.113,-0.576 -0.83,-1.514 0.164,-0.536 -0.264,-1.446 -1.383,-1.808 -1.194,-2.075 -1.522,-1.727 -0.339,-0.976 -1.509,-1.499 -1.107,-2.18 -0.867,-2.22 0.252,-1.015 -0.73,-2.714 0.026,-1.216 -0.755,-1.616 -0.528,-2.163 -1.307,-1.95 -0.83,-2.229 -1.081,-1.441 -0.164,-0.734 -0.628,-0.92 0.238,-2.788 -0.553,-2.226 -0.037,-1.533 -0.466,-0.48 -1.181,-2.225 0.138,-1.066 -0.364,-1.199 -1.899,-2.237 0.038,-0.239 -0.453,-0.666 -1.723,-1.611 -1.256,-0.732 -1.245,-1.504 -0.227,-1.343 -0.364,-0.453 -0.252,-0.984 -0.075,-1.264 -1.571,-2.3 -1.245,-2.605 -0.101,-0.558 -0.792,-1.117 -0.817,-2.843 -2.539,-3.811 -0.755,-1.858 -0.201,-1.128 -2.59,-4.206 -1.144,-2.877 -1.169,-1.551 -1.157,-2.067 -0.189,-0.849 -0.741,-1.245 0.176,-1.47 -0.478,-1.669 -0.553,-1.02 -1.019,-1.218 -0.276,-0.755 -1.496,-2.395 -0.415,-0.926 -0.113,-1.125 -0.528,-1.138 -0.516,-0.423 -0.93,-1.971 -3.633,-3.292 -0.491,-0.872 -0.327,-1.427 -0.05,-1.428 -0.314,-0.832 -3.344,-4.028 0.012,-0.528 L 27.043,85.09 26.716,84.087 21.813,79.733 15.917,74.921 13.565,72.812 13.176,72.166 12.71,70.48 12.069,69.663 12.157,67.424 12.019,66.766 11.302,65.331 9.957,63.383 9.982,62.988 10.322,62.579 10.033,61.422 8.964,59.632 7.782,58.146 6.764,56.962 5.331,55.752 5.117,54.753 4.413,53.504 4.488,52.662 4.073,51.098 4.199,50.638 3.784,49.626 3.319,49.074 2.955,47.052 3.118,46.618 2.955,45.462 3.042,43.926 2.15,41.352 2.225,40.67 1.986,39.712 1.496,38.754 1.597,37.442 1.194,36.431 1.144,34.411 0.528,32.588 0.49,30.975 0,29.507 0.251,27.161 0.302,24.383 0.125,23.362 0.427,22.563 0.553,20.219 1.031,19.485 0.691,18.071 0.93,16.121 0.767,15.572 l 0,-1.936 1.717,0.855 0.984,-0.028 0.411,-0.162 0.748,-1.263 0.962,0.155 1.052,-0.428 1.079,-1.212 1.173,-0.455 0.729,-0.646 2.469,-0.514 2.012,-0.887 0.866,0.163 0.79,-0.545 1.193,0.7 0.755,-0.005 0.596,0.224 0.57,-0.233 0.709,-0.006 0.554,0.705 0.373,1.116 0.276,0.045 0.715,0.676 1.011,0.431 0.342,0.471 0.457,0.233 0.97,-0.24 0.891,0.334 0.484,-0.244 1.565,-0.248 0.772,-0.421 0.711,0.521 0.324,0.006 0.469,-0.503 0.53,0.025 0.166,-0.532 0.496,-0.137 0.586,0.154 0.405,0.341 0.212,2.03 0.328,0.222 1.323,-0.516 0.543,-0.559 0.438,0.318 1.427,0.012 0.224,-0.263 0.446,0.156 0.201,-0.305 0.78,0.107 0.519,-0.534 1.217,-0.038 0.45,-0.989 2.724,-1.651 0.397,0.032 0.681,-0.386 0.543,0.102 0.409,-0.527 1.217,-0.771 0.396,-0.058 1.036,-0.877 1.277,-0.285 0.761,-1.352 0.904,-0.177 0.136,-0.294 1.147,-0.548 0.212,-0.889 0.958,-0.167 0.966,-1.02 1.251,-0.14 0.187,-0.435 0.805,-0.262 0.302,-0.664 0.406,-0.234 3.042,-0.236 0.729,-0.239 1.3,0.203 L 63.707,0 Z" 
                fill="rgb(151, 144, 238)" 
                stroke="white" 
                stroke-width=".7px"
                title="Kunene" 
                id="NA-KU" 
            />
        </svg>