<svg xmlns="http://www.w3.org/2000/svg" viewBox="172.52799999999996 20.248 110.99100000000004 25.533999999999995" width="110.99100000000004" height="25.533999999999995">
            <path 
                d="m 232.429,20.248 0.102,0.261 10.516,0.166 7.594,-0.038 0.087,-0.387 32.791,0 0,0.225 0,0 0,16.801 0,0 -56.117,0.944 -17.65,7.562 -16.744,-11.4 0,0 0,0 0,0 -15.612,-0.82 0,0 -0.405,-0.732 0.415,-1.092 -0.209,-1.482 -0.66,-0.641 -0.061,-0.878 -0.214,-0.315 -0.889,-0.406 -0.591,-1.686 -1.094,-0.778 -0.354,-1.919 -0.342,-0.37 0.121,-0.593 -0.365,-0.958 -0.22,-1.405 0,0 z" 
                fill="rgb(151, 144, 238)" 
                stroke="white" 
                stroke-width=".7px"
                title="Ohangwena" 
                id="NA-OW" 
            />
        </svg>