<svg xmlns="http://www.w3.org/2000/svg" viewBox="281.5270000000002 155.68699999999987 137.89300000000003 176.15199999999996" width="137.89300000000003" height="176.15199999999996">
            <path 
                d="m 288.817,226.5 -0.19,-0.448 3.912,-1.282 -0.699,-0.856 1.629,-2.525 0.088,-1.693 -0.617,-0.912 0.115,-1.134 -0.412,-1.655 0.951,-0.058 -1.327,-5.03 1.993,0.193 -0.572,-2.241 -2.746,-0.213 0.046,-1.086 1.144,-2.977 2.53,-0.593 6.266,1.804 -1.411,-1.71 -0.489,-1.631 -0.699,-1.088 3.159,-1.292 0.063,-1.991 -3.1,1.145 0.789,-5.675 5.972,-1.862 2.187,4.444 0.347,-2.066 0.634,-2.106 -0.126,-1.5 1.058,-2.38 -0.098,-0.363 -0.741,-0.479 0.445,-0.729 1.086,-3.86 0.467,-0.331 0.036,-0.774 0.409,-0.397 0.022,-0.42 0.271,-0.217 0.556,-1.184 1.359,-1.691 0.026,-0.673 0.261,-0.603 3.986,-2.872 1.407,-1.869 0.41,-1.18 2.365,-1.86 2.459,-0.961 0.773,-0.485 0.768,0.107 0.88,-0.647 0.828,-0.231 0.672,0.037 0.235,-0.318 1.343,-0.228 0.349,-0.302 0.566,-1.369 1.261,-0.986 0.769,-0.223 0.695,0.047 1.498,-1.084 0.537,-0.055 1.029,-0.577 0.634,-0.044 0.299,-0.405 1.495,-0.25 0.551,-0.357 0.721,0.093 0.868,-0.424 0.766,-0.67 0.324,-0.067 0.552,0.247 1.461,-1.009 0.544,0.005 0.513,-0.311 -0.163,-0.874 0.491,-0.752 1.403,-0.509 1.591,-0.214 3.091,0.305 1.958,-0.065 0.617,-0.317 3.928,1.338 3.65,-0.802 0.628,0.023 1.279,0.652 2.579,-0.153 1.814,0.6 1.227,-0.185 1.581,0.508 1.17,-0.184 0.497,-0.315 2.514,0.783 4.824,0.347 -0.012,0.265 1.095,0.468 2.275,0.17 1.515,-0.143 3.744,0.59 1.29,0.349 0.473,0.886 0.345,0.097 2.897,-0.021 1.083,0.389 0.327,-0.685 0.507,-0.261 1.021,-0.084 2.697,0.822 0.852,0.078 1.147,-0.232 2.254,0.716 1.242,0.788 1.576,0.258 1.75,-0.335 2.096,0.071 1.845,-0.968 0.648,-0.567 0.296,0.22 1.72,-0.236 1.008,0.664 1.039,-0.45 0.685,-0.734 1.337,0.099 0.813,-0.204 0,0 0.207,80.502 -45.339,-0.101 0,90.951 0,0 -3.679,0.178 -29.574,-0.006 0.035,-9.173 -0.792,-0.13 -1.54,-0.114 -3.35,3.694 -1.553,-0.873 -4.506,-0.048 1.301,-1.673 -3.688,-0.082 -8.165,3.552 -4.629,-0.784 -3.811,-4.064 -2.316,1.87 -1.298,-2.65 -1.067,-2.872 -2.264,-4.479 0,0 3.09,-7.873 -2.193,-2.064 -5.203,-4.315 0.835,-2.402 4.52,-0.068 -1.207,-3.564 -2.74,-0.212 -0.457,-1.477 -1.951,0.541 -0.769,-2.994 4.178,-0.762 -0.038,-2.209 -4.572,0.762 0.176,-6.857 -1.613,-3.831 -0.918,-8.017 -1.149,-4.79 -2.24,1.715 -2.535,-2.485 3.014,-1.54 -1.461,-0.852 -2.173,-3.545 -2.508,0.67 -1.72,-2.399 -0.037,0.222 -0.294,-0.388 -1.693,-4.086 0.46,-3.661 4.793,-0.728 -0.623,-2.808 -0.598,-0.069 0.545,-2.575 0.727,0.157 0.037,-1.545 1.169,-0.188 0.576,-3.45 -0.204,-0.098 -0.016,-0.338 -0.686,-0.577 -0.668,0 -0.233,-0.786 -0.238,-0.205 0.02,-0.356 0.289,-0.53 3.378,-2.804 z" 
                fill="rgb(151, 144, 238)" 
                stroke="white" 
                stroke-width=".7px"
                title="Omaheke" 
                id="NA-OH" 
            />
        </svg>