<svg xmlns="http://www.w3.org/2000/svg" viewBox="108.44300000000008 19.970999999999982 68.96299999999998 96.41399999999999" width="68.96299999999998" height="96.41399999999999">
            <path 
                d="m 130.997,20.248 41.531,0.059 0,0 0.22,1.405 0.365,0.958 -0.121,0.593 0.342,0.37 0.354,1.919 1.094,0.778 0.591,1.686 0.889,0.406 0.214,0.315 0.061,0.878 0.66,0.641 0.209,1.482 -0.415,1.092 0.405,0.732 0,0 -17.019,17.053 1.008,0.73 0.507,0.191 0.301,-0.093 0.786,1.199 0.453,0.025 0.885,0.455 0.617,-0.017 0.605,0.408 0.566,-0.175 0.376,0.602 0.365,-0.184 0.736,0.258 0.759,0.78 0.02,-0.481 0.325,-0.075 0.549,0.959 0.262,-0.028 0.876,0.842 3.063,24.387 -0.913,-0.301 -2.004,4.038 2.769,6.822 -0.178,2.66 -0.94,1.125 -1.145,0.942 0.336,0.748 1.53,2.048 0.738,0.413 0.819,-0.001 0.605,0.647 -0.698,0.623 -1.309,-0.1 -2.488,0.847 -1.471,0.752 -0.011,0.334 -2.25,0.752 -0.435,0.743 -0.435,-0.361 -2.406,0.677 -0.862,0.467 -0.545,0.004 -0.013,1.324 0,0 -5.218,1.619 -5.109,-0.912 -2.665,0.147 -5.253,1.223 -11.979,-0.028 -5.116,0.576 0.1,3.941 2.535,-0.115 -0.322,4.333 -6.261,-0.144 0.432,-2.077 0.574,-0.48 0.429,-0.774 0.046,-1.343 -0.738,-2.204 -0.304,-0.072 -1.041,-1.088 -0.738,-0.104 -0.496,-0.777 -1.185,-3.28 -1.31,-4.509 0.197,-1.448 1.642,-5.044 -0.263,-1.914 0.1,-0.641 -2.338,-4.806 -1.79,-5.932 0.447,-10.991 -1.23,-19.809 -6.115,-12.94 0.843,-0.605 0.65,-1.039 0.259,-3.291 -1.742,-0.951 -0.728,-0.905 0.788,-1.52 0.681,-0.406 0.768,-1.72 0.445,-0.338 0.211,-0.967 0.461,-0.193 -0.024,-0.431 0.779,-1.581 -0.469,-0.463 0.314,-0.435 -0.377,-0.165 0,0 0.201,-1.027 z" 
                fill="rgb(151, 144, 238)" 
                stroke="white" 
                stroke-width=".7px"
                title="Omusati" 
                id="NA-OS" 
            />
        </svg>