<svg xmlns="http://www.w3.org/2000/svg" viewBox="160.37700000000007 33.56200000000001 34.41199999999992 78.679" width="34.41199999999992" height="78.679">
            <path 
                d="m 193.008,34.382 0,15.787 0.563,-0.237 -0.097,0.339 0.704,0.847 0.231,0.775 0.38,2.193 -0.115,3.313 -0.816,2.619 -1.45,1.471 -0.343,1.027 -1.483,1.013 0.126,2.068 0.458,1.705 -0.999,0 0.426,0.146 0.654,0.622 -0.551,0.609 0.058,1.912 -0.506,0.119 -0.229,0.508 0.772,0.211 0.215,0.242 0.066,0.517 -0.459,0.415 -0.101,0.6 0.687,0.204 1.443,1.151 -0.383,0.995 0.06,0.468 1.101,0.282 0.593,0.697 -0.309,1.503 0.442,1.071 -0.107,0.248 0.3,1.414 -0.408,-0.208 -0.105,-0.377 -0.559,0.006 -0.259,-0.569 -1.091,1.572 -2.972,2.228 -2.064,2.843 -0.882,1.756 -0.169,0.984 0.006,2.147 0.321,1.408 -0.351,0.252 0.361,0.348 -0.226,0.258 0.687,1.811 0.39,0.746 0.404,0.284 0.359,1.533 0.39,0.294 1.127,2.513 0.059,0.528 0.367,0.198 0.01,0.229 0.608,0.189 0.31,0.434 1.199,-0.207 -0.199,0.515 0.147,0.66 -0.518,0.259 -0.349,0.5 -1.529,0.638 -0.1,0.51 0.28,0.725 -0.093,0.772 0.49,2.131 -0.05,0.92 0.61,1.5 -0.213,0.675 0,0 -4.044,-2.224 -4.019,0.032 -9.141,-1.864 -0.428,-0.455 -1.821,0.466 -4.062,-0.324 -2.302,0.423 -2.506,-0.085 0.126,-2.609 0,0 0.013,-1.324 0.545,-0.004 0.862,-0.467 2.406,-0.677 0.435,0.361 0.435,-0.743 2.25,-0.752 0.011,-0.334 1.471,-0.752 2.488,-0.847 1.309,0.1 0.698,-0.623 -0.605,-0.647 -0.819,0.001 -0.738,-0.413 -1.53,-2.048 -0.336,-0.748 1.145,-0.942 0.94,-1.125 0.178,-2.66 -2.769,-6.822 2.004,-4.038 0.913,0.301 -3.063,-24.387 -0.876,-0.842 -0.262,0.028 -0.549,-0.959 -0.325,0.075 -0.02,0.481 -0.759,-0.78 -0.736,-0.258 -0.365,0.184 -0.376,-0.602 -0.566,0.175 -0.605,-0.408 -0.617,0.017 -0.885,-0.455 -0.453,-0.025 -0.786,-1.199 -0.301,0.093 -0.507,-0.191 -1.008,-0.73 17.019,-17.053 0,0 z" 
                fill="rgb(151, 144, 238)" 
                stroke="white" 
                stroke-width=".7px"
                title="Oshana" 
                id="NA-ON" 
            />
        </svg>