<svg xmlns="http://www.w3.org/2000/svg" viewBox="185.8060000000001 34.382 106.8239999999999 87.56800000000001" width="106.8239999999999" height="87.56800000000001">
            <path 
                d="m 193.008,34.382 16.744,11.4 17.65,-7.562 56.117,-0.944 0,0 0,46.738 9.111,0.498 0,0 -0.517,3.812 -0.402,0.703 0.014,6.001 -3.544,0.066 -0.598,3.243 -3.1,-0.283 0.214,2.75 0.582,3.155 -0.912,-0.122 -0.199,5.945 -2.8,0.184 0.05,2.042 -1.994,0.22 -0.087,1.307 -0.547,-0.084 0.076,2.708 2.44,3.372 -4.205,2.419 -0.887,-2.649 -4.151,0.958 -2.447,0.069 -2.304,-1.22 -1.934,-1.604 -0.782,1.172 -3.52,-2.247 0.377,-0.451 -3.43,-2.132 -0.58,1.33 -2.145,-1.961 0.192,-1.943 -0.088,-1.752 1.827,-0.221 0.086,-2.158 -3.001,0.407 0.161,1.641 -2.076,0.122 0.228,-2.786 -0.322,0.131 -1.093,-2.49 -3.129,1.308 -0.999,-2.418 -3.168,1.243 0.151,0.554 -0.569,0.659 0.054,0.746 -5.658,6.767 -4.146,1.929 -8.946,4.744 0,0 -4.639,-2.416 -5.163,-0.033 -3.433,-0.819 -2.421,-0.069 -5.664,-1.367 -2.084,-0.898 -2.281,-0.175 -3.36,-0.888 -5.43,-0.792 0,0 0.213,-0.675 -0.61,-1.5 0.05,-0.92 -0.49,-2.131 0.093,-0.772 -0.28,-0.725 0.1,-0.51 1.529,-0.638 0.349,-0.5 0.518,-0.259 -0.147,-0.66 0.199,-0.515 -1.199,0.207 -0.31,-0.434 -0.608,-0.189 -0.01,-0.229 -0.367,-0.198 -0.059,-0.528 -1.127,-2.513 -0.39,-0.294 -0.359,-1.533 -0.404,-0.284 -0.39,-0.746 -0.687,-1.811 0.226,-0.258 -0.361,-0.348 0.351,-0.252 -0.321,-1.408 -0.006,-2.147 0.169,-0.984 0.882,-1.756 2.064,-2.843 2.972,-2.228 1.091,-1.572 0.259,0.569 0.559,-0.006 0.105,0.377 0.408,0.208 -0.3,-1.414 0.107,-0.248 -0.442,-1.071 0.309,-1.503 -0.593,-0.697 -1.101,-0.282 -0.06,-0.468 0.383,-0.995 -1.443,-1.151 -0.687,-0.204 0.101,-0.6 0.459,-0.415 -0.066,-0.517 -0.215,-0.242 -0.772,-0.211 0.229,-0.508 0.506,-0.119 -0.058,-1.912 0.551,-0.609 -0.654,-0.622 -0.426,-0.146 0.999,0 -0.458,-1.705 -0.126,-2.068 1.483,-1.013 0.343,-1.027 1.45,-1.471 0.816,-2.619 0.115,-3.313 -0.38,-2.193 -0.231,-0.775 -0.704,-0.847 0.097,-0.339 -0.563,0.237 z" 
                fill="rgb(151, 144, 238)" 
                stroke="white" 
                stroke-width=".7px"
                title="Oshikoto" 
                id="NA-OT" 
            />
        </svg>