<svg xmlns="http://www.w3.org/2000/svg" viewBox="173.7649999999998 84.512 245.46500000000017 174.56300000000016" width="245.46500000000017" height="174.56300000000016">
            <path 
                d="m 292.63,84.512 45.458,2.754 -0.104,17.924 11.803,0.044 0,0 69.443,-0.019 0,0 0,0 0,0 -0.017,55.094 0,0 -0.813,0.204 -1.337,-0.099 -0.685,0.734 -1.039,0.45 -1.008,-0.664 -1.72,0.236 -0.296,-0.22 -0.648,0.567 -1.845,0.968 -2.096,-0.071 -1.75,0.335 -1.576,-0.258 -1.242,-0.788 -2.254,-0.716 -1.147,0.232 -0.852,-0.078 -2.697,-0.822 -1.021,0.084 -0.507,0.261 -0.327,0.685 -1.083,-0.389 -2.897,0.021 -0.345,-0.097 -0.473,-0.886 -1.29,-0.349 -3.744,-0.59 -1.515,0.143 -2.275,-0.17 -1.095,-0.468 0.012,-0.265 -4.824,-0.347 -2.514,-0.783 -0.497,0.315 -1.17,0.184 -1.581,-0.508 -1.227,0.185 -1.814,-0.6 -2.579,0.153 -1.279,-0.652 -0.628,-0.023 -3.65,0.802 -3.928,-1.338 -0.617,0.317 -1.958,0.065 -3.091,-0.305 -1.591,0.214 -1.403,0.509 -0.491,0.752 0.163,0.874 -0.513,0.311 -0.544,-0.005 -1.461,1.009 -0.552,-0.247 -0.324,0.067 -0.766,0.67 -0.868,0.424 -0.721,-0.093 -0.551,0.357 -1.495,0.25 -0.299,0.405 -0.634,0.044 -1.029,0.577 -0.537,0.055 -1.498,1.084 -0.695,-0.047 -0.769,0.223 -1.261,0.986 -0.566,1.369 -0.349,0.302 -1.343,0.228 -0.235,0.318 -0.672,-0.037 -0.828,0.231 -0.88,0.647 -0.768,-0.107 -0.773,0.485 -2.459,0.961 -2.365,1.86 -0.41,1.18 -1.407,1.869 -3.986,2.872 -0.261,0.603 -0.026,0.673 -1.359,1.691 -0.556,1.184 -0.271,0.217 -0.022,0.42 -0.409,0.397 -0.036,0.774 -0.467,0.331 -1.086,3.86 -0.445,0.729 0.741,0.479 0.098,0.363 -1.058,2.38 0.126,1.5 -0.634,2.106 -0.347,2.066 -2.187,-4.444 -5.972,1.862 -0.789,5.675 3.1,-1.145 -0.063,1.991 -3.159,1.292 0.699,1.088 0.489,1.631 1.411,1.71 -6.266,-1.804 -2.53,0.593 -1.144,2.977 -0.046,1.086 2.746,0.213 0.572,2.241 -1.993,-0.193 1.327,5.03 -0.951,0.058 0.412,1.655 -0.115,1.134 0.617,0.912 -0.088,1.693 -1.629,2.525 0.699,0.856 -3.912,1.282 0.19,0.448 0,0 0,0 0,0 -5.558,2.177 -0.446,-1.057 -2.465,0.818 -2.161,0.89 -1.637,1.97 -1.968,1.228 -2.477,0.699 -2.148,0.848 -1.705,-1.886 -3.952,0.922 -0.566,1.617 -2.717,1.888 0.345,0.895 -1.531,1.264 -1.75,0.068 1.01,3.28 -0.43,3.53 -3.119,-1.681 0.45,0.482 -0.164,0.358 0.167,0.413 -0.265,0.228 0.066,0.671 -0.154,0.318 -1.037,-0.088 -2.872,1.111 -0.768,-1.961 -1.243,2.002 0.173,2.829 -4.157,1.614 -2.692,1.731 -1.141,-2.783 -1.394,0.978 -2.686,2.403 -1.179,-2.566 -2.544,2.754 -0.226,-0.2 -4.126,1.99 -0.583,-2.097 -2.795,-2.545 -0.999,-0.237 0.035,1.063 -0.586,-0.115 -0.952,1.773 -1.119,0.921 0.476,0.941 3.751,-0.458 1.516,2.109 -5.869,-0.53 -0.866,1.037 -2.374,-0.846 -2.163,1.79 -0.977,-1.362 -4.473,1.377 0,0 -0.944,-2.204 -0.755,-0.572 -0.201,-0.389 -0.031,-0.538 0.568,-0.022 0.044,-0.183 -0.485,-0.288 -0.584,-1.863 -1.574,-2.349 3.756,-1.9 0.44,-1.172 1.08,0.169 0.041,-0.292 -1.628,-3.192 2.222,-0.223 -0.297,-2.396 0.642,-1.049 -0.583,-0.369 -0.274,-0.671 0.972,-2.501 -0.643,-1.66 -0.914,0.121 0.102,-1.938 -2.083,-5.463 1.508,-5.583 0.259,-4.768 3.928,-4.549 1.958,-1.47 -1.422,-3.359 -0.918,-3.291 0.844,-1.38 0.074,-0.793 -0.45,-2.25 -3.594,0.34 -0.568,-0.451 -0.334,0.128 -0.044,-0.222 -1.217,-0.068 -0.201,-1.508 -1.611,-1.834 -1.504,-0.215 -2.24,-2.34 -0.968,-1.985 -1.545,0.784 -1.295,1.025 -3.067,-1.758 -0.349,0.637 -0.397,-0.395 -0.52,-0.011 -2.618,-3.036 -8.893,-4.775 -2.126,-1.708 -2.193,-2.192 -0.292,-0.052 -0.624,-3.351 -2.425,0.353 -2.543,-0.739 -1.437,-0.883 0.223,-3.037 -0.277,-2.25 0,0 4.17,0 0.446,-1.797 1.418,-1.748 4.041,-0.187 2.869,3.091 2.925,-3.708 1.757,-1.568 3.655,-1.197 3.431,0.254 2.317,-1.21 1.999,-0.383 0.864,1.666 3.511,-1.745 0.349,-2.394 -0.823,-1.367 0.126,-3.743 1.175,-1.238 1.948,-0.44 3.758,-2.375 1.077,-0.32 3.176,0.033 -1.241,-3.064 -0.109,-2.649 4.17,-0.181 3.607,-1.087 0.776,-1.103 -0.483,-1.213 1.034,-17.107 -0.906,-4.667 0,0 8.946,-4.744 4.146,-1.929 5.658,-6.767 -0.054,-0.746 0.569,-0.659 -0.151,-0.554 3.168,-1.243 0.999,2.418 3.129,-1.308 1.093,2.49 0.322,-0.131 -0.228,2.786 2.076,-0.122 -0.161,-1.641 3.001,-0.407 -0.086,2.158 -1.827,0.221 0.088,1.752 -0.192,1.943 2.145,1.961 0.58,-1.33 3.43,2.132 -0.377,0.451 3.52,2.247 0.782,-1.172 1.934,1.604 2.304,1.22 2.447,-0.069 4.151,-0.958 0.887,2.649 4.205,-2.419 -2.44,-3.372 -0.076,-2.708 0.547,0.084 0.087,-1.307 1.994,-0.22 -0.05,-2.042 2.8,-0.184 0.199,-5.945 0.912,0.122 -0.582,-3.155 -0.214,-2.75 3.1,0.283 0.598,-3.243 3.544,-0.066 -0.014,-6.001 0.402,-0.703 z" 
                fill="rgb(151, 144, 238)" 
                stroke="white" 
                stroke-width=".7px"
                title="Otjozondjupa" 
                id="NA-OD" 
            />
        </svg>