<svg xmlns="http://www.w3.org/2000/svg" viewBox="487.1630000000004 23.948000000000054 124.83699999999948 48.983999999999995" width="124.83699999999948" height="48.983999999999995">
            <path 
                d="m 577.394,25.338 0.625,0.734 -0.034,0.947 0.426,0.701 0.316,0.021 0.988,-0.558 0.739,0.297 1.907,-0.029 1.366,-1.02 1.061,-0.043 1.261,-0.593 1.352,-0.355 1.422,0.543 0.383,0.518 0.995,-0.234 0.612,0.754 0.727,0.168 0.325,0.009 0.42,-0.393 0.563,-0.112 0.684,0.353 1.419,-0.043 0.656,0.84 0.881,0.384 0.939,-0.527 0.68,1.056 0.401,-0.024 0.569,-0.578 0.492,0.427 0.813,1.378 0.192,0.149 0.636,-0.343 0.779,-0.031 0.373,0.353 -0.141,0.858 0.166,0.269 0.681,-0.139 1.187,1.891 0.239,0.03 0.365,-0.382 0.241,0.291 -0.074,1.496 -0.297,0.686 0.121,0.118 1.307,-0.532 0.218,0.183 -0.18,0.576 0.781,-0.148 0.545,0.418 0.043,1.095 0.612,0.494 0.495,0.754 0.459,0.289 1.535,-0.122 1.335,0.818 -0.139,0.186 -0.487,0.039 -3.857,-0.515 -0.715,1.394 -0.718,-0.145 -0.566,1.002 -2.024,0.679 -0.752,-0.373 -0.056,-0.26 0.369,-0.057 0.128,-0.219 -0.516,-0.603 -0.338,0.065 -1.475,1.132 -0.435,-0.126 0.387,-0.47 -0.155,-0.292 -0.821,0.582 -0.479,-0.366 0.106,-0.282 -0.611,-0.462 0.582,-0.395 0.074,-0.337 -0.869,0.042 -0.356,0.211 -0.253,0.621 -0.486,0.179 -1.162,-0.03 -0.426,0.699 -0.973,0.314 -0.342,0.482 -0.524,-0.19 -1.017,0.217 -0.312,0.319 -1.233,0.405 0.067,0.488 -0.475,0.253 -0.262,-0.172 -0.237,0.219 -0.381,-0.161 -0.248,0.23 0.17,0.307 -0.819,0.251 -0.279,0.349 -0.283,-0.096 -0.067,-0.271 -0.294,-0.009 -0.384,0.882 0.088,0.216 -0.379,0.133 -0.592,0.829 -0.073,0.413 -0.327,0.002 -0.186,-0.227 -0.529,0.448 -0.751,-0.267 -0.228,0.154 -0.019,0.282 0.251,0.064 -0.064,0.337 -0.821,0.862 -0.694,0.2 -0.335,0.36 -0.29,0.578 -0.04,0.63 -1.139,1.618 -0.776,0.757 -2.01,0.018 -0.982,-0.317 -0.321,-0.628 -0.569,0.07 -0.042,-0.369 -0.404,-0.313 0.345,-0.523 0.041,-0.446 -1.387,-1.318 -0.081,-1.053 -0.225,0.402 -0.241,-0.064 -0.98,-0.755 -0.304,0.12 -0.358,-0.129 -0.368,0.426 -0.437,-0.454 -1.054,-0.061 -0.292,0.403 -0.422,0.121 -0.94,1.383 -0.922,0.297 -0.669,1.557 -0.228,0.034 -0.649,-0.951 -0.228,-0.053 -1.864,0.623 -1.339,-0.317 -0.282,0.121 -0.299,0.708 -0.759,0.265 -0.616,1.132 -1.367,1.242 -0.465,0.686 -1.096,0.688 -1.403,-0.323 -0.142,0.098 0.165,0.663 -0.228,0.327 -0.879,0.197 -0.25,0.392 -0.522,0.099 -0.607,0.904 -0.685,0.153 -0.727,1.024 -0.773,-0.216 -0.064,0.391 -1.033,0.404 -0.52,1.121 0.384,0.24 -0.333,0.676 -0.726,0.7 -1.509,0.585 -0.421,0.785 -0.04,0.545 -0.545,-0.096 -0.169,0.828 -1.728,0.879 -0.064,0.882 -0.436,0.37 -0.38,0.839 -1.209,1.112 -0.271,-0.012 -0.414,0.327 -0.25,0.458 -0.883,0.349 -0.218,0.348 -0.938,-0.226 -0.707,0.314 -0.794,1.557 -2.42,1.558 -0.556,-0.437 -0.403,0.011 -0.523,-0.468 -0.392,-0.034 0,-1.645 -0.426,-0.228 0.146,-1.722 -0.614,-1.173 0.478,-0.579 0.009,-0.272 -0.329,-0.718 0.053,-0.479 -0.774,-0.487 -0.438,-0.63 0.189,-0.768 -0.391,-0.74 -0.011,-0.544 -1.001,-0.502 -0.14,-0.979 -1.415,0.085 -0.533,-0.435 -0.336,-0.73 0.435,-0.543 -0.315,-0.272 -0.359,0.456 -0.36,0.031 -0.467,-0.348 -0.326,0.228 -0.25,-0.283 -0.512,0.228 -0.108,-0.218 0.217,-0.206 0.035,-1.012 -0.804,-0.73 -0.4,-1.348 -0.337,-0.164 -0.249,-0.642 -0.608,-0.631 -0.151,-0.588 -0.641,-0.588 -0.294,-0.001 -0.204,-1.108 0.555,-0.228 -1.011,-0.74 -0.076,-0.435 0.368,-0.576 -1.045,-0.802 -9.734,0.194 -26.133,5.309 0,0 -0.256,-13.808 0,0 19.493,-3.896 59.192,-12.332 0.433,-0.015 0.869,0.48 1.063,0.004 2.289,0.535 0.547,-0.374 -0.225,-0.281 1.947,-0.806 1.865,0.466 1.293,0.101 1.041,0.417 z" 
                fill="rgb(151, 144, 238)" 
                stroke="white" 
                stroke-width=".7px"
                title="Zambezi" 
                id="NA-CA" 
            />
        </svg>