<svg xmlns="http://www.w3.org/2000/svg" viewBox="0.28828616999998935 156.34235 73.34999982999997 103.74000000000012" width="73.34999982999997" height="103.74000000000012">
            <path 
                d="m 12.348286,175.80235 2.98,0.02 0.21,-1.72 3.29,-0.37 3.39,-1.4 0.3,0.55 1.48,0.12 0,-0.62 -1.13,-1.32 0.11,-0.64 3.95,2.38 2.06,-1.16 0.71,1.41 0.96,0.26 7.37,-1.66 2.62,-1.41 2.47,-0.44 0.52,-1.81 2.46,-1.55 6.83,-10.1 1.51,1.34 1.49,0.63 1.36,2.69 0.22,1.75 -0.39,0.86 -1.71,1.03 -1.3,2.06 -2.05,0.16 -0.74,2.65 -3.94,2.71 -0.33,1.01 3.36,2.39 0.45,1.98 2.17,0.34 0.07,1.41 1.94,0.92 -0.22,0.72 -0.81,0.52 0.09,1.02 -0.57,1.26 -1.91,0.66 -0.03,0.69 -1.08,1.42 0.17,0.71 1.5,1.75 2.81,0.13 1.74,1.89 3.32,0.03 -0.53,3.07 1.7,0.24 -0.05,1.33 1.44,0.64 1.41,4.95 0.58,0.74 1.72,-0.67 1.88,1.78 0.62,2.43 -1.56,4 -1.24,0.55 1.11,1.13 -0.59,1.61 1.11,0.11 0.57,1.28 1.77,1.42 0.46,0.19 1.13,-0.89 1.34,1.53 -3.48,4.38 -0.98,3.74 0.61,0.64 1.38,0.13 2.99,1.41 0,1.07 -1.27,1.82 0.17,0.72 1.2,0.55 0.1,2.57 -0.37,0.58 -1.52,0.16 -0.34,0.84 -1.77,0.07 -1.14,1.16 -0.78,1.76 -2.94,1.05 -1.91,-1.29 -1.66,-0.08 0.09,-2.3 -1.95,-0.64 -1.29,1.15 0.46,1.72 1.09,0.61 -1.11,1.92 -1.13,-0.29 -2.88,2.26 -0.65,-0.22 -1.63,0.97 -1.24,-0.76 -0.62,0.11 -0.19,0.75 0.5,0.6 -0.34,1.61 0.8,1.52 1.12,0.84 0.96,0 1.09,-1.31 1.12,0.59 0.07,0.8 -1.48,0.3 -0.49,3.05 -2.07,0.3 -1.02,-1.04 -0.53,0.21 0.12,1.54 0.68,1.28 -2.7,1.37 -1.54,2.08 -0.98,0.04 0.11,1.05 -1.16,1.22 0,0 -0.48,-1.48 -1.8,0.94 -2.63,-0.54 -4.26,2.04 -2.14,-2.28 -1.54,-0.05 -1.49,-1.49 -2.24,1.6 -2.32,-1.7 1.85,-2.18 -0.36,-0.84 -1.58,-0.69 1.85,-1.69 -1.38,-0.84 0.65,-1.2 -0.58,-0.81 1.99,-1.35 -0.48,-0.78 0.45,-0.48 -1.71,-1.12 -0.44,-0.59 0.33,-0.71 -0.77,-0.15 -0.74,-0.95 0.64,-0.42 -1.28,-3.01 -1.73,0.51 -1.26,-0.18 -3.51,-3.48 -2.12,-1.43 0.05,-2.62 -1.45,-5.57 -1.51,-2.21 1.05,-4.41 -1.06,-0.98 -2.4599998,-0.35 -1.6,-2.48 0.44,-0.69 -0.53,0.26 -1.35,-3.02 1.04,-0.18 -0.56,-0.75 0.89,-1.75 -3.86,-1.92 0.06,-1.69 -2.2,0.11 -1.01,-0.79 -0.16,-2.86 -0.83000003,-1.69 0.25,-0.37 1.57000003,0.02 0.02,-1.27 0.82,-1.62 -0.64,-0.36 -0.14,-1.27 1.22,-1.28 -1.02,-1.96 -0.29,-2.73 1.38,-0.78 -0.38,-0.76 0.42,-1.11 0.89,-0.37 0.54,-1.06 2.03,-1.7 -0.53,-1.01 0.35,-0.74 1.02,-0.43 0.82,0.54 0.61,-0.17 -0.52,-2.61 0.95,-0.2 -0.13,-1.03 1.0599998,-0.65 0.24,0.45 1.11,-0.04 -0.24,-1.1 z" 
                fill="rgb(151, 144, 238)" 
                stroke="white" 
                stroke-width=".7px"
                title="Bratislavský" 
                id="SK-BL" 
            />
        </svg>