<svg xmlns="http://www.w3.org/2000/svg" viewBox="357.48829000000023 99.85235000000002 235.72000000000003 108.36999999999988" width="235.72000000000003" height="108.36999999999988">
            <path 
                d="m 366.23829,121.29235 1.78,1.44 1.49,-0.41 0.24,-1.52 -0.54,-0.61 -0.03,-1.07 0.76,-1.14 0.04,-4.11 1.41,-0.87 0.16,-0.55 -0.1,-0.94 -1.11,-0.83 -0.24,-0.89 3.59,-3.73 1.25,-0.44 0.67,-0.99 1.5,-0.94 1.94,-0.5 1.6,-2.03 3.58,1.48 3.15,2.24 1.18,1.36 1.88,0.73 0.86,0.94 1.67,0.05 -3.45,-4.4 0.48,-1.36 2.45,-2.35 0.66,0.42 1.16,2.34 1.99,1.68 0.26,1.09 2.47,1.33 1.26,-0.75 2.41,-0.18 3.63,5.77 0.95,0.2 2.13,1.62 -0.35,-0.91 0.31,-2.38 1.21,-1.04 -0.02,-1.52 0.47,-0.42 3.27,-1.1 0.79,0.3 0.95,1.88 2.18,-1.65 0.55,0.29 0.49,1.35 0.75,0.06 1.12,-0.79 0.19,-0.29 -1.16,-1.72 0.12,-1.32 -1.03,-1.31 0.54,-0.44 1.2,0.75 1.23,0.1 2.25,1.68 2.92,-1.12 -0.2,0.85 -1.85,1.23 0.76,0.83 1.57,-0.02 0.29,0.71 5.79,-1.83 2.36,0.63 1.75,1.28 1.24,2.61 0.52,0.23 3.06,-2.3 2.41,4.02 1.57,0.92 0.44,2.82 4.49,0.26 3.02,1.23 3.02,0.21 1.39,-1.36 0.92,0.81 1.66,0.5 0.95,2.46 1.6,1.49 1.99,-2.1 2.67,1.57 0.29,-0.94 1.34,0.05 -0.06,1.81 2.18,-0.94 0.54,1.76 -1.63,5.57 1.28,1.58 2.45,1.46 1.99,-0.89 -0.1,-1.83 1.46,-1.31 0.85,-0.35 1,0.63 0.94,-0.84 3.08,0.01 0.34,-1.19 0.97,-0.97 -0.11,-2.4 0.32,-0.39 -0.72,-1.73 0.46,-0.52 1.69,-0.43 2.08,1.91 0.32,-3.53 0.61,0.9 0.57,2.71 2.22,0.4 0.6,-0.29 0,-0.76 1.24,-0.19 1.86,-1.43 0.07,2.91 1.28,0.33 0.61,0.69 -1.03,1.17 0.16,1.42 1.23,1.57 1.57,0.78 0.89,1.78 -0.22,1.79 1.3,2.23 3.79,0.99 0.75,0.72 -0.1,0.97 1.95,-0.06 2.26,1.35 4.22,-1.3 1.12,1.69 1.72,1.37 2.43,-0.38 4.21,-2.31 0.98,0.1 0.01,0.75 0.57,-2.48 1.95,-0.62 2.07,-1.74 0.2,-1.73 -1.12,-1.68 -0.69,-9.97 0.37,-2.23 1.1,-0.78 1.73,0.21 1.09,2.01 0.63,-0.26 0.61,0.44 0.78,-0.55 1.86,-0.23 5.4,2.1 2.84,1.94 1.86,3.13 3.67,0.39 0.75,1.4 3.54,0.02 4.43,-1.02 6.17,0.11 0.45,-0.82 -0.3,-5.44 0.81,-0.89 1.98,-0.79 0.95,-2.17 3.09,-3.14 3.4,0.43 1.15,0.81 1.05,4.33 1.03,1.49 0.26,2.39 5.13,-0.18 2.2,-0.89 1.66,0.89 3.5,0.17 0.73,0.51 0,0 -0.93,4.78 0.93,2.02 0.28,3.62 -0.84,0.9 -0.6,1.71 -2.74,2.75 -0.48,2.6 1.89,1.5 0.04,2.07 -1.1,1.24 -1.22,5.94 -3.88,1.25 -2.59,2.58 -2.95,2.13 -0.73,2.54 -1.5,1.5 -1.67,0.05 -1.49,1.93 -1.21,0 -0.08,0.98 -0.67,0.12 -2.08,4.66 -0.76,8.77 -1.96,13.72 0.23,3.84 0.48,1.18 1,-0.04 -0.41,1.25 -2.03,0.73 0.53,1.67 -1.24,0 -0.4,0.45 -0.9,-0.3 -1.22,0.6 -0.52,-0.86 -0.99,1.47 -0.29,-1.46 -0.81,-0.83 -0.35,0.8 -1.42,-0.14 -0.41,0.78 -2.98,-2.4 -1.3,1.3 -2.87,0.83 -0.37,0.47 -0.19,-0.58 -3.79,0.21 -1.57,1.23 -0.63,-0.06 0.47,0.73 -0.55,0.81 -0.96,-0.21 -0.97,-0.92 -1,0.6 -0.27,-0.82 -0.05,1.19 -0.54,-0.07 0.22,-0.85 -0.55,-0.3 -0.64,0.78 0.51,1.09 -0.5,0.23 0.02,-0.77 -0.39,-0.08 -0.42,0.97 -0.82,-0.33 -0.35,0.72 -0.52,-0.27 -0.27,-1.45 -2,-0.01 -0.39,0.5 -0.08,4.16 -1.11,0.59 -0.69,0.03 0.14,-0.7 -1.45,-0.19 -0.45,-0.68 -3.53,0.24 -0.88,-0.89 -3.44,-0.56 -1.47,-0.92 0.21,-1.82 -0.78,0.03 -0.6,-0.69 0.61,-1.07 -0.46,-0.87 -2.17,-1.28 -1.21,0.26 -0.97,-1.25 -0.14,-3.26 -0.3,0.13 -1.7,-4.89 -0.81,-0.39 -0.67,-1.25 0.25,-0.59 -0.99,-1.34 0.3,-0.8 -0.42,-0.22 0.16,-2.83 -0.34,-0.88 -0.52,0.09 -0.2,-2.04 -0.89,0.36 -1.27,-1 -0.79,0.39 -0.67,1.27 -1.35,-0.2 -0.56,-1.03 -0.77,0.57 -1.2,0.01 -0.25,-1.01 -1.5,-1.33 -1.16,-2.72 0.03,-1.69 -0.89,-0.32 -0.06,-0.55 -0.62,0 -0.15,-0.83 -1.32,0.25 -0.63,-1.02 -0.69,0.11 -1.36,-1.42 -1.29,-0.3 -1.13,-1.71 -1.06,0.16 -0.68,0.85 -0.24,2.71 -0.58,0.56 -1.68,-0.77 -2.32,0.83 -3.08,-0.29 -2.85,0.42 -0.14,-0.54 -0.48,0.78 1.08,0.33 -1.27,0.46 0.75,0.76 -0.46,1.22 -0.73,-0.11 0.6,1.17 -1.28,0.84 0.15,0.72 -0.97,0.14 -2.66,-0.96 -0.48,0.37 -2.97,-2.2 -0.69,0.06 -0.06,0.76 -1.24,-0.53 -0.45,0.88 -0.84,-0.24 0.02,1 -1.43,0.56 -0.35,-0.31 -0.11,0.5 -0.48,-0.32 -0.79,1.01 -0.76,-0.7 -2.39,1.04 -1.9,3.63 -1.18,0.31 -1.17,-0.15 -1.05,-0.9 -0.09,-1.99 -0.59,-1.04 -1.9,-0.62 -1.11,-0.86 -1.36,0.72 -0.01,-0.82 -0.82,0.26 -1.16,-0.29 -0.75,-0.72 -0.39,0.38 -0.97,-0.48 -2.26,0.95 -1.2,1.44 -0.77,-0.91 -0.91,0.46 -0.9,-0.38 -0.13,-1.72 -1.51,-0.31 -0.15,-1.09 -0.71,0.61 -0.68,-2.22 -1.05,-0.93 -4.07,1.09 -1.44,-0.09 -1.53,-2.06 -0.49,0.09 0,-2.18 -0.92,0.25 0.7,-1.25 -4.26,1.45 -7.35,0.82 -0.47,0.67 -0.59,-0.64 -1.69,-0.03 -3.1,1.48 -2.81,0.08 -1.08,1.28 -0.39,-0.41 -0.71,0.7 -1.4,0.28 -0.71,0.96 -1.53,-0.01 -1.23,0.62 -0.34,0.71 -4.07,-1.58 -1.07,2.64 -1.15,-0.43 -0.72,-1.02 -1.17,0.42 -0.76,0.92 0.1,1.49 0.82,0.93 -0.42,1.05 0.13,2.81 -1.36,0.29 -1.14,2.34 -2.14,1.37 0,0 -0.02,-0.71 -0.94,-0.75 -1.74,0.91 -1.56,0.02 -0.65,-2.06 -1.22,0.37 -1.46,2.36 -0.97,0.71 -2.16,0.69 -3.62,0.1 0.28,-0.58 -0.55,-0.52 -0.01,-1.14 -0.57,0.21 -0.77,-0.45 -0.33,0.48 -0.51,-0.78 0.21,-1.93 -0.94,-1.44 0.54,-2.91 1.37,-1.19 0.86,-1.62 -0.01,-1.84 2.3,-4.53 0.6,-3.22 -1.35,-0.22 -0.66,-1.48 -2.29,0.49 -2,-0.98 0,0 -0.13,-0.56 0.66,-0.82 0,0 -0.53,-0.95 -0.38,-3.38 1.02,-1.94 -1.32,-1.08 -1.48,-3.37 -1.29,-1.19 -1.07,-2.3 -4.39,-3.75 -2.07,0.29 -0.48,-1.16 0.31,-2 -0.85,-0.26 -0.28,-2.11 0.13,-0.97 2.47,-1.6 -0.61,-2.62 -0.84,-0.66 0.89,-0.87 -0.21,-3.67 4.43,-4.07 1.09,-3.94 z" 
                fill="rgb(151, 144, 238)" 
                stroke="white" 
                stroke-width=".7px"
                title="Košický" 
                id="SK-KI" 
            />
        </svg>