<svg xmlns="http://www.w3.org/2000/svg" viewBox="92.23828600000007 146.96235000000001 146.95000399999998 156.8100000000003" width="146.95000399999998" height="156.8100000000003">
            <path 
                d="m 122.16829,162.38235 1.48,-0.53 0.53,-0.95 0.81,0.16 1.15,-1.03 0.33,-1.16 -0.05,-2.54 -0.73,-0.58 -0.85,-3 -0.77,-0.71 -0.51,-3.48 1.43,-1.47 1.33,-0.13 1.2,1.45 4.97,-0.11 1.93,1.11 1.46,-0.51 3.55,3.24 1.37,4.32 1.66,1.61 1.42,-0.78 1.6,0.86 1.09,-0.28 1.27,0.68 1.44,4.04 1.15,1.71 -0.31,1.88 -2.42,2.34 1.64,1.35 -0.84,0.96 -0.03,1.05 0.36,0.51 3.14,-0.04 1.17,0.93 2,3.39 1.55,1.67 0.53,2.62 0.66,0.92 3.17,0.96 0.88,-0.53 0.27,-1.24 0.32,1.3 1.37,1.27 0.45,-1.56 1.96,-1.12 3.24,-3.29 2.86,-1.34 2.9,-2.71 1.95,-0.1 0,0 0.2,2.01 0.79,1.06 0.11,1 -1.49,1.43 -0.44,2.1 1.18,0.19 0.23,-1.07 0.92,-0.37 1.53,0.01 1.12,0.55 0.33,-0.27 0.74,1.35 -0.73,3.74 1.24,-0.15 -2.47,3.73 1.46,0.08 0.19,2.08 0.82,1.05 -1.74,4.25 -0.07,1.2 -1.03,0.9 -0.31,1.25 0.14,6.44 1.07,1.71 0.15,1.11 0.91,1 -0.12,0.87 0.52,0.4 0.51,-1.27 1.48,-1.34 1.67,-2.61 2.88,1.01 2.74,-1.38 0.72,-0.91 1.84,0.41 0.33,0.84 2.08,-1.38 0.73,-0.75 -0.08,-2.13 1.05,-0.39 -0.14,-1.33 0.69,-0.09 0.8,-0.98 -0.26,-0.58 1.86,-1.28 1.55,-2.29 1.55,-0.05 1.2,1.06 -0.19,1.09 2.05,1.9 0.94,2.22 0.53,-0.21 2.34,1.25 1.47,4.03 0.19,2.58 0.73,1.23 1.31,0.16 0.65,2.21 -1.12,3 0.06,3.18 -1.72,0.57 -1.18,0.99 -0.69,1.92 1.42,1.74 -0.05,0.42 -0.86,0.05 -0.07,0.8 2.12,3.24 -1.67,1.96 -0.77,-0.17 -1.02,1.34 0.56,3.1 1.74,0.33 0.35,-0.25 -0.12,-1.3 0.61,-0.35 2.34,0.75 0.96,0.98 3.41,0.94 4.45,0.25 -0.79,-2.34 0.64,-1.79 0.92,0.27 0.96,1.58 1.3,-2.14 0.97,0.9 3.97,-1.35 0.31,-0.47 1.15,0.43 1.32,-0.43 1.6,-1.94 2.37,1.63 -0.94,1.04 0.76,0.8 -1.07,0.96 -0.3,1.98 -0.8,0.54 1.37,2.09 0.41,2.39 -1.83,2.82 -2.21,1.58 -0.38,1.63 -1.09,0.51 0.02,2.55 0,0 -0.52,0.2 -0.18,0.88 -1.02,0.11 -1.7,2.12 -4.92,-0.54 -3.12,1.11 -1.72,-0.49 -0.37,-0.59 -0.64,1.05 0.15,0.49 -1.98,-0.03 -1.04,0.5 -1.16,-0.77 -1.33,0.75 -0.93,1.46 0.51,0.27 0.13,0.83 -1.23,1.39 0.44,2.29 -0.51,2.3 -0.27,-0.52 -0.49,0.72 0.48,0.15 -1.25,0.99 -1.94,-0.38 -0.85,0.44 -0.27,-0.47 -0.58,0.49 0.44,0.33 -0.95,0.42 -0.54,0.94 0.44,0.93 1.11,0.67 0.55,1.75 -0.96,0.14 0.7,3.13 -1.75,2.05 0.83,1.67 -0.47,0.33 0.37,0.45 -0.51,1.03 0.4,2.05 -0.37,0.2 0.22,2.18 3.06,0.71 0.78,1.11 2.45,1.16 0.9,2.41 2.09,1.22 -0.21,1.58 -5.89,-0.87 -5.87,1.62 -1.32,3.88 -4.68,3.3 -1.89,0.8 -5.05,0.78 -5.28,-1.27 -2.84,0.13 -2.46,1.5 -2.34,0.46 -0.73,-0.09 -1.65,-1.3 -2.32,-0.57 -3.84,1.85 -2.85,0.37 -5.38,2.1 -5.09,0.95 -6.93,-1.69 -5.73,0.12 -3.61,-1.18 -6.86,-1.25 -4.73,-0.02 -2.88,1.62 -3.32,-1.79 -2.74,2.07 -3.59,0.17 -1.6,0.64 -4.14,-1.06 -1.44,0.66 -3.8,-0.13 -2.55,0.56 -2.300004,-1.47 -5.7,-1.29 -1.76,-2.04 0,0 1.9,-1.8 1.05,-4.71 1.93,-0.05 0.4,0.67 1.23,0.01 0.67,0.56 0.870004,-1.9 2.89,-1.9 0.44,-1.29 -0.47,-3.04 1.16,-2.34 2.35,-0.79 1.85,-2.78 3.04,-1.76 1.39,-1.7 -2.48,-2.46 1.18,-2.05 -0.65,-3.96 0.76,-3.97 -1.27,-2.37 0.26,-2.13 -0.43,-1.01 1.57,-1.21 -0.5,-1.01 0.08,-1.45 -0.85,-0.96 -1.4,-0.11 -1.78,-1.16 1.15,-1.53 -0.72,-1.23 -2.74,2.09 -1.14,-0.21 -0.46,-2.18 1.27,-3.14 -0.15,-2.14 -2.95,-3.41 -3.970004,-2.47 2.540004,-1.85 1.42,-0.05 0.86,1.26 0.86,0.03 1.44,-1.78 -1.89,-3.74 2.03,0.26 1.27,-0.34 1.18,1.07 0.47,-1.07 2.36,-1.07 1.09,-1.18 0.28,-1.8 -0.37,-1.32 -2.89,-0.92 -1.21,-1.98 0.35,-1.09 0.99,0.59 1.24,-0.8 -0.1,-1.09 -0.6,-0.59 1.66,-2.67 -0.61,-1.4 -2.31,-0.24 -0.74,-1.49 1.47,-1.19 0.29,-4.16 1.17,-0.91 -0.46,-2.1 1.63,-1.26 -0.45,-0.68 1.03,-0.54 0.4,-1.35 2.61,-3.97 1.72,-3.98 -0.06,-0.82 1.13,-1.81 1.59,-0.03 -0.31,-0.97 1.27,-1.9 -0.38,-1.06 -2.56,-1.8 -3.09,-3.82 -0.98,-0.76 -3.47,-0.77 -0.41,-0.71 -0.77,0.03 -0.1,-1.04 1.85,-1.46 0.99,-5.2 1.94,-2.33 0.63,-2.49 2.14,0.75 0.75,0.82 2.98,-0.24 -0.28,-1.09 1.33,-0.11 1.34,-1.23 z" 
                fill="rgb(151, 144, 238)" 
                stroke="white" 
                stroke-width=".7px"
                title="Nitriansky" 
                id="SK-NI" 
            />
        </svg>