<svg xmlns="http://www.w3.org/2000/svg" viewBox="324.6982899999997 25.492350000000012 287.5900000000004 113.58999999999997" width="287.5900000000004" height="113.58999999999997">
            <path 
                d="m 477.77829,27.46235 3.01,-0.49 1.3,0.21 0.53,0.84 1.58,0.77 0.61,1.37 1.28,-0.39 2.03,0.21 0.44,1.08 2.87,2.32 1.44,-0.03 1.19,-0.6 1.82,0.29 1.35,-2.32 0.54,-0.2 2.82,1.9 0.38,-0.41 -0.45,-0.88 1.28,-1.53 2.19,0.32 1.5,-1.33 0.96,0.87 1.66,0.39 0.54,-0.46 0.78,0.18 1.25,-1.44 1.91,-0.62 1.22,2.77 1.59,1.22 0.03,1.05 2.45,0.98 1.93,-1.29 2.33,1.08 0.5,2.26 0.95,-0.04 0.8,1.18 2.19,1.33 0.48,2.92 0.96,1.46 1.33,0.39 -0.14,-2.27 0.93,-1.65 1.65,-0.62 1.4,-1.33 1.66,-0.11 0.75,0.88 0.01,1.19 1.18,1.54 0.62,0.05 0.79,-0.69 1.2,0.36 1.08,2.26 1.03,1.09 0.39,-0.49 1.15,-0.05 1.45,1.21 2.57,-0.57 0.75,0.26 2.41,6.11 1.71,2.12 3.4,2.83 -0.1,2.72 1.22,1.22 -1.01,4.88 1.65,1.35 6.01,2.15 4.11,0.72 0.19,1.27 3.65,1.68 1.09,1.07 0.93,-0.31 1.27,-1.33 1.47,0.24 0.77,0.74 0.35,1.35 -0.91,1.8 0.02,1.06 2.4,0.15 7.47,2.68 1.64,-1.69 3.59,0.25 1.24,2.13 1.05,0.52 0.2,1.41 3.36,3.29 0.61,0.13 1.73,-0.86 1.36,0.04 3.89,2.77 0.61,0.11 1.41,-1.05 3.17,-0.44 2.51,1.44 -1.35,1.4 -0.23,8.02 -1.41,1.19 0.87,2.34 -2.64,1.6 -2.07,-0.48 -2.47,1.2 -0.49,2.58 -0.85,0.63 -4.44,7 0.69,1.38 -0.69,1.2 -0.43,4.51 -2.55,1.46 -1.3,1.94 0,0 -0.73,-0.51 -3.5,-0.17 -1.66,-0.89 -2.2,0.89 -5.13,0.18 -0.26,-2.39 -1.03,-1.49 -1.05,-4.33 -1.15,-0.81 -3.4,-0.43 -3.09,3.14 -0.95,2.17 -1.98,0.79 -0.81,0.89 0.3,5.44 -0.45,0.82 -6.17,-0.11 -4.43,1.02 -3.54,-0.02 -0.75,-1.4 -3.67,-0.39 -1.86,-3.13 -2.84,-1.94 -5.4,-2.1 -1.86,0.23 -0.78,0.55 -0.61,-0.44 -0.63,0.26 -1.09,-2.01 -1.73,-0.21 -1.1,0.78 -0.37,2.23 0.69,9.97 1.12,1.68 -0.2,1.73 -2.07,1.74 -1.95,0.62 -0.57,2.48 -0.01,-0.75 -0.98,-0.1 -4.21,2.31 -2.43,0.38 -1.72,-1.37 -1.12,-1.69 -4.22,1.3 -2.26,-1.35 -1.95,0.06 0.1,-0.97 -0.75,-0.72 -3.79,-0.99 -1.3,-2.23 0.22,-1.79 -0.89,-1.78 -1.57,-0.78 -1.23,-1.57 -0.16,-1.42 1.03,-1.17 -0.61,-0.69 -1.28,-0.33 -0.07,-2.91 -1.86,1.43 -1.24,0.19 0,0.76 -0.6,0.29 -2.22,-0.4 -0.57,-2.71 -0.61,-0.9 -0.32,3.53 -2.08,-1.91 -1.69,0.43 -0.46,0.52 0.72,1.73 -0.32,0.39 0.11,2.4 -0.97,0.97 -0.34,1.19 -3.08,-0.01 -0.94,0.84 -1,-0.63 -0.85,0.35 -1.46,1.31 0.1,1.83 -1.99,0.89 -2.45,-1.46 -1.28,-1.58 1.63,-5.57 -0.54,-1.76 -2.18,0.94 0.06,-1.81 -1.34,-0.05 -0.29,0.94 -2.67,-1.57 -1.99,2.1 -1.6,-1.49 -0.95,-2.46 -1.66,-0.5 -0.92,-0.81 -1.39,1.36 -3.02,-0.21 -3.02,-1.23 -4.49,-0.26 -0.44,-2.82 -1.57,-0.92 -2.41,-4.02 -3.06,2.3 -0.52,-0.23 -1.24,-2.61 -1.75,-1.28 -2.36,-0.63 -5.79,1.83 -0.29,-0.71 -1.57,0.02 -0.76,-0.83 1.85,-1.23 0.2,-0.85 -2.92,1.12 -2.25,-1.68 -1.23,-0.1 -1.2,-0.75 -0.54,0.44 1.03,1.31 -0.12,1.32 1.16,1.72 -0.19,0.29 -1.12,0.79 -0.75,-0.06 -0.49,-1.35 -0.55,-0.29 -2.18,1.65 -0.95,-1.88 -0.79,-0.3 -3.27,1.1 -0.47,0.42 0.02,1.52 -1.21,1.04 -0.31,2.38 0.35,0.91 -2.13,-1.62 -0.95,-0.2 -3.63,-5.77 -2.41,0.18 -1.26,0.75 -2.47,-1.33 -0.26,-1.09 -1.99,-1.68 -1.16,-2.34 -0.66,-0.42 -2.45,2.35 -0.48,1.36 3.45,4.4 -1.67,-0.05 -0.86,-0.94 -1.88,-0.73 -1.18,-1.36 -3.15,-2.24 -3.58,-1.48 -1.6,2.03 -1.94,0.5 -1.5,0.94 -0.67,0.99 -1.25,0.44 -3.59,3.73 0.24,0.89 1.11,0.83 0.1,0.94 -0.16,0.55 -1.41,0.87 -0.04,4.11 -0.76,1.14 0.03,1.07 0.54,0.61 -0.24,1.52 -1.49,0.41 -1.78,-1.44 0,0 -1.48,-0.47 -2.79,-3.08 -1.31,-0.4 -1.54,0.21 -2.2,-2.06 -1.53,2.59 -1.94,1.33 -8.93,-1.3 -1.22,-1.53 -5.28,-0.49 0,0 0.43,-1.09 3.28,-0.64 2.29,-1.99 -0.42,-0.41 -1.81,-0.15 -1.61,-4.58 0.52,-1.35 -1.45,-0.96 -1.15,-2.75 -3.65,-2.61 0.33,-0.88 1.85,0.63 3.27,-1.43 -0.01,-3.08 1.08,-2.75 -0.18,-2.72 1.45,-3.9 0.14,-2.23 -1.41,-0.86 -1.34,0.83 -2.64,-0.46 -1.18,0.24 -0.99,-1.93 -0.15,1.15 -0.59,0.31 -1.66,-2.62 -1.7,0.12 -0.3,-1.17 -2.27,0.94 -0.64,-0.23 0.94,-2.31 -0.28,-0.54 0.38,-1.2 -3.23,-4.97 -0.62,-2.05 0,0 0.38,-0.88 2.68,-2 0.23,-2.58 2.13,-0.94 2.36,0.21 4.27,0.55 2.42,2.12 -0.11,0.96 1.41,1.68 1.92,0.77 3.42,2.78 1.7,0.04 0.12,-4.24 0.77,-1.92 0.81,-0.69 -0.63,-2.38 0.86,-1.09 0.24,-1.96 2.09,-2.98 0.37,-3.53 2.01,-3.26 0.52,0.02 0.88,1.81 1.58,-1.54 -0.71,-1.5 0.27,-0.64 1.32,-0.09 1.01,-2.21 1.91,-0.59 1.11,-1.21 1.04,1.07 1.19,-0.84 2.77,0.61 0.54,-0.69 0.81,-0.1 1.51,0.18 1.28,1.05 0.82,0 0.72,-0.85 0.18,-4.68 0.83,-1.96 -1.69,0.11 0.75,-2.01 1.35,-0.34 2.84,0.83 1.21,-1.52 0.72,0.84 0.05,1.73 1.19,0.21 1.96,-0.75 0.24,-1.37 0.53,-0.51 1.12,0.65 0.46,1.07 0.4,-1.65 -0.78,-0.23 0.22,-1.49 1.66,0.9 0.39,-0.15 -0.42,-0.41 2.66,-0.08 2.44,1.65 1.15,0.28 0.52,1.82 1.26,0.06 2.91,1.2 1.04,0.99 1.83,0.41 0.59,-1.05 1.06,0.18 1.07,-1.07 0.26,-1.38 1.07,-1.41 0.4,-2.09 3.35,2.8 1.6,-0.56 3.55,-2.68 1.79,0.28 1.44,0.81 1.48,-0.32 0.56,0.8 -0.26,1.29 1.52,0.72 -1,1.31 1.29,1.18 -0.06,2.14 2.67,-0.57 0.26,0.54 -0.41,1.47 1.76,-0.15 1.1,0.82 -0.39,0.73 -0.73,-0.98 0.3,0.77 -0.5,1.8 1.69,-0.56 1.45,2.08 1.05,0.05 1.91,-2.08 1.02,-0.1 2.06,3.09 -1.03,1.36 1.28,0.03 0.52,-0.83 1.39,-0.33 0.59,1.04 -0.28,0.84 0.55,1.21 1.91,1.71 3.48,-1.84 3.03,0.08 0.6,-0.82 -0.85,-2.43 2.02,-1.03 0.45,-1.95 0.67,-0.16 2.57,-2.78 0.58,-0.13 0.92,0.59 1.12,-0.52 0.82,0.93 0.64,-0.7 1.36,-0.2 1.2,-1.73 -3.7,-3.21 0.01,-1.03 -1.66,-0.59 -0.61,-1.88 0.45,-0.72 1.29,-0.08 3.41,-1.33 1.74,1 0.7,-1.8 0.6,-0.13 2.85,1.39 0.45,1.1 0.84,0.24 1.64,1.57 0.13,1.12 1.28,0.08 0.91,-0.48 0.76,0.36 1.97,-2.35 -0.35,-1.46 1.04,-1.86 0.82,0.41 2.6,-2.15 0.64,-2 0.8,-0.1 z" 
                fill="rgb(151, 144, 238)" 
                stroke="white" 
                stroke-width=".7px"
                title="Prešovský" 
                id="SK-PV" 
            />
        </svg>