<svg xmlns="http://www.w3.org/2000/svg" viewBox="55.58828599999992 48.95235 157.17000400000006 134.68999999999997" width="157.17000400000006" height="134.68999999999997">
            <path 
                d="m 159.56829,49.17235 0.78,0.4 2.44,-0.62 2.13,0.11 -0.07,2.17 0.83,1.24 0.93,0.51 2.08,3.91 1.63,1.65 -0.1,1.73 1.56,1.65 0.26,1.19 -0.34,0.94 0.69,0.98 0.11,1.19 1.82,1.32 0.31,2.28 1.34,0.57 3.4,3.23 2.03,1.13 1.25,0.2 0.1,1.64 3.25,1.11 0.27,2.78 1.44,1.37 -0.85,1.84 -1.75,1.13 -0.94,1.43 3.35,1.14 1.57,2.49 -0.36,0.89 0.33,0.91 -0.75,1.2 0.5,1.25 -0.16,2.62 -1.21,0.69 -0.33,1.32 -1.93,2.32 -0.68,0.49 -3.23,0.48 -2.24,1.45 -0.05,1.08 -1.13,1.8 -1.22,0.13 -1.9,1.11 -0.63,-0.12 0,1.14 1.41,1.54 5.22,0.48 1.48,-1.36 2.18,-0.52 0.31,-1.36 1.17,-1.8 1.38,-0.45 -0.2,1.07 0.83,1.08 1.76,-0.06 2.14,-0.84 4.56,1.42 2.43,-0.56 2.06,2.04 0.31,0.97 -0.83,1.8 -0.6,-0.19 -0.01,1.05 -1.08,1.8 1.7,2.41 -1.4,2.83 0.52,0.65 -0.31,4.64 2.34,1.22 1.17,1.4 1.02,-0.13 1.1,0.78 0.17,1.26 0.63,-0.11 0.86,1.02 1.33,0.21 -0.1,3.34 3.32,3.49 0.58,1.79 0.99,0.29 0.21,2.41 0,0 0.01,0.82 -0.64,0.49 -1.2,3.06 -1.47,2.31 -1.43,0.97 -1.72,-0.57 -1.21,0.99 -1.09,4.77 -2.86,2.32 0.49,2.14 -0.18,1.32 -2.12,-0.98 -1.08,0.26 -1.5,-0.36 -2.02,-1.04 -1.66,1.7 -1.97,3.9 -1.39,0.93 -0.79,1.35 0.13,1.71 -0.47,1.16 -1.21,0.13 -1.08,0.95 -3.8,0.04 -3.05,-0.82 -1.69,0.07 -0.5,3.65 0,0 -1.95,0.1 -2.9,2.71 -2.86,1.34 -3.24,3.29 -1.96,1.12 -0.45,1.56 -1.37,-1.27 -0.32,-1.3 -0.27,1.24 -0.88,0.53 -3.17,-0.96 -0.66,-0.92 -0.53,-2.62 -1.55,-1.67 -2,-3.39 -1.17,-0.93 -3.14,0.04 -0.36,-0.51 0.03,-1.05 0.84,-0.96 -1.64,-1.35 2.42,-2.34 0.31,-1.88 -1.15,-1.71 -1.44,-4.04 -1.27,-0.68 -1.09,0.28 -1.6,-0.86 -1.42,0.78 -1.66,-1.61 -1.37,-4.32 -3.55,-3.24 -1.46,0.51 -1.93,-1.11 -4.97,0.11 -1.2,-1.45 -1.33,0.13 -1.43,1.47 0.51,3.48 0.77,0.71 0.85,3 0.73,0.58 0.05,2.54 -0.33,1.16 -1.15,1.03 -0.81,-0.16 -0.53,0.95 -1.48,0.53 0,0 -1.97,0.65 -1.61,-1.42 -3.56,-0.26 -3.3,-1.22 -0.55,0.31 -1.14,-1.55 -0.54,1.05 -0.32,-0.03 0.1,-0.97 -0.26,0.93 -0.46,-0.03 -0.73,-1.45 0.2,-1.53 -0.45,-0.13 -1.64,-0.16 -0.22,2.29 -1.25,-0.1 -0.6,0.47 -0.4,-0.56 -1.8,0.3 -4.420004,-2.13 -2.12,-3.23 -2.35,-1.84 -0.8,1.09 -0.77,-0.16 -1.47,1.39 -0.46,-0.16 -2.06,1.29 0.12,0.88 -1.84,-0.14 -0.57,-0.44 -0.02,-0.66 -0.78,0.03 -0.36,1.44 0.96,1.66 -0.25,0.18 -4.53,0.9 -1.92,-0.86 -1.38,1.66 -0.96,0.39 -0.28,1.14 -1.11,-0.48 -0.74,0.82 -3.49,-6.33 -0.9,-3.47 -0.99,-0.16 0.04,-1.67 -0.64,-1.15 0.99,-2.92 1.51,-0.53 0.34,-1.71 -0.4,-1.44 -1.4,-0.47 -1.25,-2.42 -1.21,-0.08 -0.65,-0.94 -0.62,0.44 -2.06,-1.16 0.2,-0.66 -0.53,-1.33 -3.59,2.81 -0.57,-0.37 -1.08,0.52 -1.67,-1.34 0.13,-0.99 3.83,-1.99 0.79,-3.39 0,0 2.14,-2.12 1.16,0.17 0.68,-1.99 0.95,0.27 1.04,-1.39 2.73,0.91 3.92,3.94 0.99,0.37 1.46,-0.81 1.06,0.3 1.54,-1.23 3.03,-0.2 0.85,-2.23 2.08,-0.32 0.48,-1.28 1.02,-0.89 3.58,-0.02 2.06,-1.11 1.95,0.21 1.58,-2.09 1.96,-1.47 2.17,-3.6 2.390004,-1.65 0.34,-1.57 6.98,-0.47 2.07,0.75 1.66,-0.85 1.63,-4.95 0.3,-3.64 1.05,-2.12 0.12,-2.63 1.31,-1.4 1.06,-0.74 4.32,0.17 1.4,-0.76 3.91,0.64 4.88,-2.39 3.07,-3.59 -0.09,-1.41 1.97,-4.23 -0.5,-3.48 0.41,-0.62 0.67,-0.06 -1.18,-2.49 0.73,-1.35 0,-1.43 1.94,-1.65 -0.53,-1.35 0,-2.91 1.61,-2.01 0.37,-2.19 0.6,-0.58 0.07,-1.93 -1.04,-0.51 0.11,-2.46 4.13,-4 -0.03,-2.53 4.08,-1.22 4.5,-0.39 3.64,-1.39 0.24,-0.57 z" 
                fill="rgb(151, 144, 238)" 
                stroke="white" 
                stroke-width=".7px"
                title="TrenÄiansky" 
                id="SK-TC" 
            />
        </svg>