<svg xmlns="http://www.w3.org/2000/svg" viewBox="11.058285999999999 121.03234999999955 111.11000399999999 176.6600000000003" width="111.11000399999999" height="176.6600000000003">
            <path 
                d="m 39.038286,121.32235 5.15,1.16 1.44,1.1 1.93,0.05 0.77,1.23 2.26,1.72 1.65,-0.46 0.57,1.41 2.98,2.25 0.88,1.29 1.52,-0.86 2.15,0.78 0,0 -0.79,3.39 -3.83,1.99 -0.13,0.99 1.67,1.34 1.08,-0.52 0.57,0.37 3.59,-2.81 0.53,1.33 -0.2,0.66 2.06,1.16 0.62,-0.44 0.65,0.94 1.21,0.08 1.25,2.42 1.4,0.47 0.4,1.44 -0.34,1.71 -1.51,0.53 -0.99,2.92 0.64,1.15 -0.04,1.67 0.99,0.16 0.9,3.47 3.49,6.33 0.74,-0.82 1.11,0.48 0.28,-1.14 0.96,-0.39 1.38,-1.66 1.92,0.86 4.53,-0.9 0.25,-0.18 -0.96,-1.66 0.36,-1.44 0.78,-0.03 0.02,0.66 0.57,0.44 1.84,0.14 -0.12,-0.88 2.06,-1.29 0.46,0.16 1.47,-1.39 0.77,0.16 0.8,-1.09 2.35,1.84 2.12,3.23 4.420004,2.13 1.8,-0.3 0.4,0.56 0.6,-0.47 1.25,0.1 0.22,-2.29 1.64,0.16 0.45,0.13 -0.2,1.53 0.73,1.45 0.46,0.03 0.26,-0.93 -0.1,0.97 0.32,0.03 0.54,-1.05 1.14,1.55 0.55,-0.31 3.3,1.22 3.56,0.26 1.61,1.42 1.97,-0.65 0,0 -0.19,2.98 -1.34,1.23 -1.33,0.11 0.28,1.09 -2.98,0.24 -0.75,-0.82 -2.14,-0.75 -0.63,2.49 -1.94,2.33 -0.99,5.2 -1.85,1.46 0.1,1.04 0.77,-0.03 0.41,0.71 3.47,0.77 0.98,0.76 3.09,3.82 2.56,1.8 0.38,1.06 -1.27,1.9 0.31,0.97 -1.59,0.03 -1.13,1.81 0.06,0.82 -1.72,3.98 -2.61,3.97 -0.4,1.35 -1.03,0.54 0.45,0.68 -1.63,1.26 0.46,2.1 -1.17,0.91 -0.29,4.16 -1.47,1.19 0.74,1.49 2.31,0.24 0.61,1.4 -1.66,2.67 0.6,0.59 0.1,1.09 -1.24,0.8 -0.99,-0.59 -0.35,1.09 1.21,1.98 2.89,0.92 0.37,1.32 -0.28,1.8 -1.09,1.18 -2.36,1.07 -0.47,1.07 -1.18,-1.07 -1.27,0.34 -2.03,-0.26 1.89,3.74 -1.44,1.78 -0.86,-0.03 -0.86,-1.26 -1.42,0.05 -2.540004,1.85 3.970004,2.47 2.95,3.41 0.15,2.14 -1.27,3.14 0.46,2.18 1.14,0.21 2.74,-2.09 0.72,1.23 -1.15,1.53 1.78,1.16 1.4,0.11 0.85,0.96 -0.08,1.45 0.5,1.01 -1.57,1.21 0.43,1.01 -0.26,2.13 1.27,2.37 -0.76,3.97 0.65,3.96 -1.18,2.05 2.48,2.46 -1.39,1.7 -3.04,1.76 -1.85,2.78 -2.35,0.79 -1.16,2.34 0.47,3.04 -0.44,1.29 -2.89,1.9 -0.870004,1.9 -0.67,-0.56 -1.23,-0.01 -0.4,-0.67 -1.93,0.05 -1.05,4.71 -1.9,1.8 0,0 -1.28,-1.47 -5.16,-3.47 -2.78,-3.36 -3.65,1.08 -1.06,-0.41 -1.84,-3.19 -0.55,-2.19 -1.94,-2.33 -2.69,-0.24 -2.99,-2 -1.55,-0.52 -3.1,-6.69 -3.48,-3.98 -1.74,-1.13 -4.76,-5.66 -1.09,-0.38 -5.71,0.14 -1.84,-0.78 -0.61,-1.99 0,0 1.16,-1.22 -0.11,-1.05 0.98,-0.04 1.54,-2.08 2.7,-1.37 -0.68,-1.28 -0.12,-1.54 0.53,-0.21 1.02,1.04 2.07,-0.3 0.49,-3.05 1.48,-0.3 -0.07,-0.8 -1.12,-0.59 -1.09,1.31 -0.96,0 -1.12,-0.84 -0.8,-1.52 0.34,-1.61 -0.5,-0.6 0.19,-0.75 0.62,-0.11 1.24,0.76 1.63,-0.97 0.65,0.22 2.88,-2.26 1.13,0.29 1.11,-1.92 -1.09,-0.61 -0.46,-1.72 1.29,-1.15 1.95,0.64 -0.09,2.3 1.66,0.08 1.91,1.29 2.94,-1.05 0.78,-1.76 1.14,-1.16 1.77,-0.07 0.34,-0.84 1.52,-0.16 0.37,-0.58 -0.1,-2.57 -1.2,-0.55 -0.17,-0.72 1.27,-1.82 0,-1.07 -2.99,-1.41 -1.38,-0.13 -0.61,-0.64 0.98,-3.74 3.48,-4.38 -1.34,-1.53 -1.13,0.89 -0.46,-0.19 -1.77,-1.42 -0.57,-1.28 -1.11,-0.11 0.59,-1.61 -1.11,-1.13 1.24,-0.55 1.56,-4 -0.62,-2.43 -1.88,-1.78 -1.72,0.67 -0.58,-0.74 -1.41,-4.95 -1.44,-0.64 0.05,-1.33 -1.7,-0.24 0.53,-3.07 -3.32,-0.03 -1.74,-1.89 -2.81,-0.13 -1.5,-1.75 -0.17,-0.71 1.08,-1.42 0.03,-0.69 1.91,-0.66 0.57,-1.26 -0.09,-1.02 0.81,-0.52 0.22,-0.72 -1.94,-0.92 -0.07,-1.41 -2.17,-0.34 -0.45,-1.98 -3.36,-2.39 0.33,-1.01 3.94,-2.71 0.74,-2.65 2.05,-0.16 1.3,-2.06 1.71,-1.03 0.39,-0.86 -0.22,-1.75 -1.36,-2.69 -1.49,-0.63 -1.51,-1.34 -6.83,10.1 -2.46,1.55 -0.52,1.81 -2.47,0.44 -2.62,1.41 -7.37,1.66 -0.96,-0.26 -0.71,-1.41 -2.06,1.16 -3.95,-2.38 -0.11,0.64 1.13,1.32 0,0.62 -1.48,-0.12 -0.3,-0.55 -3.39,1.4 -3.29,0.37 -0.21,1.72 -2.98,-0.02 0,0 0.26,-0.46 -0.54,-0.37 -0.07,-0.71 0.93,-0.53 -0.87,-1.02 0.06,-1.33 -0.95,-1.45 -0.01,-0.35 0.72,-0.07 -0.57,-0.49 0.23,-1.29 -0.48,-2.83 0.71,-0.68 0.05,-2.06 1.48,-0.9 0.98,-2.64 0.71,-0.37 -0.79,-0.54 1.13,-0.21 -0.61,-0.67 0.06,-2.71 4.27,-4.27 -1.22,-1.44 0.18,-0.98 1.44,-1.44 0.14,-1.59 2.76,-3.81 0.41,-1.97 4.83,-3.31 0.22,-1.69 1.53,-1.63 0.04,-2.73 0.42,-0.94 4.66,-2.41 3.82,-4.46 0.53,-0.42 z" 
                fill="rgb(151, 144, 238)" 
                stroke="white" 
                stroke-width=".7px"
                title="Trnavský" 
                id="SK-TA" 
            />
        </svg>