<svg xmlns="http://www.w3.org/2000/svg" viewBox="159.56828999999993 0.30235 184.4500000000001 141.95" width="184.4500000000001" height="141.95">
            <path 
                d="m 281.26829,0.30235 1.03,1.46 -0.58,1.41 0.84,1.19 2.24,1.23 1.38,0.09 0.73,1.12 1.23,0.38 -0.06,5.61 2.37,4.77 0.23,3.04 1.28,1.55 0.32,1.44 1.44,1.67 0.25,1.09 1.5,-0.35 1.62,1.56 3.03,-1.61 -0.33,2.48 1.2,1.14 -2.01,4.42 3.15,0.05 2.11,0.95 0.73,-0.1 3.36,2.67 1.3,-0.87 1.27,-2.21 0.85,-0.64 1.87,-0.68 2.49,0.62 0.19,4.9 1.16,2.05 -0.15,1.97 -0.68,1.67 0.43,1.8 0.97,1.26 -1.42,4.16 0.24,0.59 1.39,0.36 1.28,2.85 -3.3,1.77 -0.31,2.52 -2.38,2.5 0.26,1.56 -0.84,1.88 0.8,1.2 1.03,0.25 0.85,0.96 1.1,-0.03 1.03,-1.03 1.3,1.17 1,-0.52 1.12,0.82 3.52,0.01 0,0 0.62,2.05 3.23,4.97 -0.38,1.2 0.28,0.54 -0.94,2.31 0.64,0.23 2.27,-0.94 0.3,1.17 1.7,-0.12 1.66,2.62 0.59,-0.31 0.15,-1.15 0.99,1.93 1.18,-0.24 2.64,0.46 1.34,-0.83 1.41,0.86 -0.14,2.23 -1.45,3.9 0.18,2.72 -1.08,2.75 0.01,3.08 -3.27,1.43 -1.85,-0.63 -0.33,0.88 3.65,2.61 1.15,2.75 1.45,0.96 -0.52,1.35 1.61,4.58 1.81,0.15 0.42,0.41 -2.29,1.99 -3.28,0.64 -0.43,1.09 0,0 -1.91,-1.98 -2.54,1.43 -8.11,-0.37 -4.77,0.66 -1.13,-0.44 -0.61,-0.85 -2.36,-0.09 -2.3,1.45 -1.22,0.04 -1.82,1.11 -1.52,-1.8 -4.78,1.75 -3.04,0 -3.12,-2.53 -1.48,-0.55 -2.75,-1.99 -0.79,-1.04 -2.24,-0.84 -1.56,-0.05 -1.41,-0.83 -1.51,1.04 -3.09,-0.41 -3.64,1.95 -1.65,0.42 -6.74,0 -5.07,5.85 -2.08,4.51 -6.92,1.1 -0.21,-0.61 1.61,-1.36 -0.07,-2.23 -0.63,-1.57 -2.04,-0.94 -3.67,1.03 -1.97,1.91 -1.41,-0.52 -1.33,0.73 -1.1,-0.43 -4.92,0.77 -2.11,-0.4 -0.69,0.32 -1.32,-0.08 -0.87,-0.89 -0.6,-0.03 -1.85,0.82 -0.79,2.87 -1.35,1.71 -1.13,0.12 -0.68,-0.41 -0.46,0.49 0.84,3.7 -0.9,1.62 0.13,1.44 0.51,0.95 2.45,2.12 -0.47,3.63 -1.63,1.31 -0.87,1.63 -2.84,0.37 -2.41,-0.65 -1.45,1.1 -1,-0.06 -1.12,-1.07 -1.84,-0.27 0.07,-1.25 -0.71,-0.06 -0.11,-1.5 -0.8,-0.19 -1.96,1.03 -1.33,1.82 -1.64,0.75 -0.44,0.9 0,0 -0.21,-2.41 -0.99,-0.29 -0.58,-1.79 -3.32,-3.49 0.1,-3.34 -1.33,-0.21 -0.86,-1.02 -0.63,0.11 -0.17,-1.26 -1.1,-0.78 -1.02,0.13 -1.17,-1.4 -2.34,-1.22 0.31,-4.64 -0.52,-0.65 1.4,-2.83 -1.7,-2.41 1.08,-1.8 0.01,-1.05 0.6,0.19 0.83,-1.8 -0.31,-0.97 -2.06,-2.04 -2.43,0.56 -4.56,-1.42 -2.14,0.84 -1.76,0.06 -0.83,-1.08 0.2,-1.07 -1.38,0.45 -1.17,1.8 -0.31,1.36 -2.18,0.52 -1.48,1.36 -5.22,-0.48 -1.41,-1.54 0,-1.14 0.63,0.12 1.9,-1.11 1.22,-0.13 1.13,-1.8 0.05,-1.08 2.24,-1.45 3.23,-0.48 0.68,-0.49 1.93,-2.32 0.33,-1.32 1.21,-0.69 0.16,-2.62 -0.5,-1.25 0.75,-1.2 -0.33,-0.91 0.36,-0.89 -1.57,-2.49 -3.35,-1.14 0.94,-1.43 1.75,-1.13 0.85,-1.84 -1.44,-1.37 -0.27,-2.78 -3.25,-1.11 -0.1,-1.64 -1.25,-0.2 -2.03,-1.13 -3.4,-3.23 -1.34,-0.57 -0.31,-2.28 -1.82,-1.32 -0.11,-1.19 -0.69,-0.98 0.34,-0.94 -0.26,-1.19 -1.56,-1.65 0.1,-1.73 -1.63,-1.65 -2.08,-3.91 -0.93,-0.51 -0.83,-1.24 0.07,-2.17 -2.13,-0.11 -2.44,0.62 -0.78,-0.4 0,0 4.23,-1.29 1.35,-1.22 1.24,-2.37 1.46,-0.8 -0.51,-0.88 1.55,-1.6 0.23,-0.82 -1.15,-4.35 0.7,-0.57 1.62,1.19 1.21,0.24 1.04,-0.29 0.72,-1.28 2.27,-1.21 0.11,-1.58 0.66,-1.34 0.91,-0.56 0.01,-0.93 1.17,-0.17 0.33,-1.09 1.61,-0.87 0.27,-1.23 0.82,-0.21 1.62,-1.56 -1.22,-3.01 0.06,-0.97 1.06,-0.62 0.15,-0.94 2.26,-1.16 3.06,-0.33 0.58,0.34 0.03,1.64 1.74,0.3 1.3,-0.44 0.68,0.31 0.92,-0.92 3.65,-0.87 1.1,1.2 2.25,-0.23 3.31,2 1.48,0 2.98,-2.87 1.74,-0.38 0.88,-0.98 2.76,-0.79 2.22,0.46 1.33,-0.39 0.66,0.62 2.6,0.28 4.59,-0.77 0.75,0.95 1.66,0.84 0.05,0.85 0.77,-0.18 0.17,0.36 -1.09,3 0.69,1.01 -0.47,0.56 -0.42,3.13 1.4,0.46 0.71,2.31 0.86,1.04 -0.4,1.59 -1.66,1.52 0.4,1.92 0.74,0.9 1.99,-0.56 1.27,0.59 2.66,-0.1 1.24,-1.1 -0.18,-0.49 0.79,-1.45 1.94,0.26 0.38,-0.75 1.78,0.21 2.03,1.96 1.27,0.17 1,-0.35 0.78,-0.99 1.33,1.04 2.64,-1.47 1.61,0.52 0.79,-0.81 -0.56,-0.73 0.09,-1.37 -0.59,-0.56 0,-0.77 1.97,-2.45 1.4,0.36 0.7,-1.03 0.3,-1.43 -0.92,-1.64 1.33,-2.08 -0.47,-0.82 0.79,-0.68 -0.04,-2.58 2.7,-2.46 0.28,-0.85 1.2,0.03 1.02,-0.56 1.48,0.35 1.3,-0.57 0.8,0.31 0.17,0.8 4.49,-1.03 0.59,-1.07 -0.19,-1.72 0.92,-0.89 -0.18,-1.51 3.12,-1.16 0.77,-1.09 0.12,-1.54 0.62,-0.53 2.99,-0.78 -0.12,-1.4 0.47,-0.89 0.92,0.26 z" 
                fill="rgb(151, 144, 238)" 
                stroke="white" 
                stroke-width=".7px"
                title="Žilinský" 
                id="SK-ZI" 
            />
        </svg>