<svg xmlns="http://www.w3.org/2000/svg" viewBox="706.4029699999996 104.45424999999985 62.390000000000555 94.2200000000001" width="62.390000000000555" height="94.2200000000001">
            <path 
                d="m 711.65297,153.22425 0.4,-0.08 -0.19,0.39 -0.33,-0.05 -0.15,-0.36 0.27,0.1 z m 37.98,-48.77 0.32,0.24 0.02,0.9 0.52,0.68 0.34,1.15 1,0.49 1.17,1.74 1.23,0.18 0.05,1.11 0.35,0.29 -0.1,0.2 0.52,0.38 0.52,-0.26 0.16,0.35 0.66,0.18 0.85,0.6 -0.27,0.88 0.11,1 -0.74,1.4 0.37,0.43 0.14,1.41 2.36,2.31 -0.51,1.11 0.25,1.58 0.82,0.8 2.57,0.93 -0.15,0.77 0.15,0.22 -0.41,0.99 0.29,0.54 0.97,0.36 0.21,-0.25 1.54,-0.52 0.62,0.06 1.4,0.94 0.85,1.6 0.29,1.19 -2.43,4.14 -0.59,0.59 0.57,1.14 -0.2,0.62 -0.9,0.42 -0.99,1.48 -1.06,0.13 -0.71,0.66 -0.37,0.71 -1.02,0.61 -0.44,0.76 -1.57,0.89 -0.39,3.44 0.18,0.42 0.71,0.17 -0.47,0.5 -0.18,0.9 -0.35,0.55 -0.29,0.01 -0.16,0.68 -0.43,0.58 0.02,0.75 -0.42,0.48 -0.21,1.36 0.29,0.19 0.34,-0.35 0.18,0.28 -0.57,0.66 -0.01,0.41 -0.53,0.21 -0.07,0.24 0.58,-0.14 1.15,0.79 0.24,1.11 2.19,2.62 1,1.87 0.54,0.15 0.51,1.91 0.86,1.57 0.82,0.75 0.5,-0.29 0.03,-0.3 0.32,0.01 0.06,0.27 0.36,-0.31 0.45,0.14 0.57,-0.59 -0.04,-0.22 1.02,-0.27 0.27,0.29 0.51,-0.54 0.65,-0.07 -0.04,0.42 0.21,0.14 -1.07,1.33 -0.05,0.55 0.47,0.29 -0.63,1.65 -0.46,0.34 -0.15,1.78 -0.31,0.4 -0.2,1.07 -0.48,-0.1 -1.23,0.25 -0.33,-0.57 -0.94,-0.4 -0.78,0.56 0.06,0.85 -0.19,0.19 -1.24,0.26 -1.04,-0.24 -0.72,0.49 -0.63,0 -0.45,0.32 0.3,0.74 -0.06,0.84 -0.14,0.65 -0.82,1.16 -0.2,1.37 -1.12,1.88 -1.34,0.93 -0.92,1.06 -0.37,-0.08 -0.49,0.37 0.06,0.43 -0.82,1.93 -0.01,1.25 -0.23,0.17 -0.04,0.52 -0.32,0.06 -0.28,0.79 -0.32,0.07 -0.27,0.65 -0.39,0.15 0.23,0.56 -0.53,0.85 0.19,0.39 -0.48,0.18 0.33,1.07 0,0 -0.4,-0.05 -0.57,0.36 -0.99,-0.33 -0.26,0.54 -0.44,0.06 -0.03,0.44 -0.56,0.09 -0.11,0.35 -0.58,-0.36 -0.39,-0.06 -0.38,-0.16 -1.39,0.38 -0.2,-0.12 -0.28,0.35 -0.66,0.07 -0.36,0.44 -0.24,0.01 -0.36,-0.02 -0.41,0.43 -0.25,-0.07 -0.75,0.69 -0.37,0.15 -0.71,0.02 -0.12,0.47 -1.09,0.16 -0.11,0.22 0.22,0.46 -0.36,-0.04 -0.36,0.23 -0.31,0.12 -0.54,0.14 -0.53,0.03 -0.19,-0.25 -0.36,0.31 -0.4,-0.15 -0.07,0.37 -0.41,-0.02 -0.16,0.4 -0.08,0.36 0.22,0.28 0.21,-0.06 0.11,0.37 -1.19,0.41 -0.27,0.61 -0.95,0.66 -0.46,-0.3 -2.1,-0.15 -1.41,-0.41 -1.86,-1.59 -0.82,-0.21 -0.02,-0.35 0,0 0.22,-0.43 0,0 -0.44,-0.9 -0.97,-0.14 -0.88,0.33 -0.55,-0.21 -1.79,0.47 -0.21,0.42 0.07,0.61 -0.27,0.38 -0.59,0.01 -0.14,0.36 -1.51,-0.41 0,0 -0.39,0.21 0,0 -1.79,-1.24 -0.59,0.32 -1.03,0.1 -0.61,0.88 -0.71,-0.93 -0.82,0.16 -1.22,-0.2 -0.12,0.2 -0.56,-1.37 -1.23,-0.15 -0.37,-0.32 0,0 0.06,-1.85 0.38,-1.63 -0.2,-1.08 -0.84,-1.56 0.73,-3 0.03,-1.19 0.42,-0.63 -0.31,0.04 -0.18,-0.7 -0.45,-0.42 0.64,-3.57 -0.21,-2.35 -0.39,-1.29 -1.11,-0.33 -0.67,-0.65 -0.49,0.12 -0.16,-0.25 0.67,-0.76 0.74,-1.49 1.5,-4.57 0.6,-3.44 -0.01,-2.38 -0.34,-2.59 -1.06,-3.02 -2.73,-3.1 0.1,-0.18 0.24,0.14 0.43,0.74 -0.07,-0.59 1.07,1.23 0.62,0.34 0.32,0.99 0.65,0.7 0.35,-0.09 -0.71,-0.86 -0.22,-0.72 0.68,0.18 -0.02,0.27 0.47,-0.1 0.08,-0.13 0.61,0.15 -0.35,0.63 0.28,-0.02 0.24,-0.59 0.77,0.71 1.26,0.13 1.19,0.49 -1.34,-1.52 -0.69,0.1 -0.3,-2.94 0,0 0.83,-0.26 0.77,-0.91 1.23,-0.19 -0.48,-2.43 1.34,-1.44 0.59,-0.23 0.53,-0.86 1.46,-0.91 0.65,-1.36 0.08,-0.64 0.5,-0.69 -1.69,-0.11 0.42,-0.83 1,-0.94 0.91,0.46 0.87,-0.61 0.47,-0.93 0.28,-0.04 0.38,0.46 0.83,-0.68 -0.24,-0.25 0.39,-0.37 1.12,0.69 0.55,-0.69 0.48,0.18 0.26,-0.66 0.25,0.51 0.81,0.55 -0.01,0.42 0.51,0.42 0.61,-0.02 0.35,-0.34 0.67,0.79 -0.15,0.46 0.38,0.18 0.21,-0.31 0.37,0.05 -0.07,0.7 0.35,0.28 0.67,0.05 0.64,-1.17 -0.83,-0.62 -0.26,0.52 -0.24,-0.94 -0.64,-0.35 0.09,-0.47 0.78,-0.68 -0.72,-0.5 -1.31,-0.31 -1.56,-0.76 0.88,-1.3 0.27,-0.78 -0.15,-0.63 0.67,-0.83 -0.24,-0.45 -0.54,0.24 -0.22,-0.43 -0.28,-0.06 -0.29,-1.65 -0.38,0.09 -0.3,-0.4 0.01,-0.83 -1.44,-0.66 -0.26,-0.55 0.38,-0.26 1.04,-1.78 1.42,-0.85 0.68,-0.14 1.14,-1.19 0.43,-0.15 0.13,-0.41 0.91,-0.86 -0.15,-0.71 0.7,-0.78 0.56,-0.05 0.21,0.43 0.97,-0.05 0.3,-0.81 0.64,-0.58 0.27,-0.73 0.44,-0.43 -0.09,-0.9 0.88,-0.18 0.38,-0.65 0.63,0.02 -0.06,0.28 0.36,0.55 1.87,1.16 4.42,-1.99 -0.08,-0.23 0.51,-0.97 -0.66,-0.4 -0.3,0.25 -0.02,-0.26 -0.92,-0.71 -0.08,-0.37 -0.66,-0.08 -0.13,-0.58 -0.59,-0.02 -0.7,-0.64 -0.05,-0.49 0.42,-0.07 0.47,-0.57 0,0 0.42,-0.25 0.46,-0.95 0.83,-0.23 0.82,-0.8 0.43,-0.9 1.05,-0.23 0.34,-0.62 0,0 -0.11,-0.65 0.27,-0.33 0,0 1.18,-0.71 0.73,0.98 0.31,0.1 1.31,-0.73 0.04,-0.41 0.41,-0.31 0.96,-0.01 0.39,-0.29 0,0 -0.1,-0.17 z" 
                fill="rgb(151, 144, 238)" 
                stroke="white" 
                stroke-width=".7px"
                title="Alentejo" 
                id="PT-ALE" 
            />
        </svg>