<svg xmlns="http://www.w3.org/2000/svg" viewBox="703.6029700000004 190.26425000000006 50.39999999999975 22.449999999999903" width="50.39999999999975" height="22.449999999999903">
            <path 
                d="m 736.79297,212.18425 1.64,0.39 0.55,-0.33 0.05,0.39 -0.71,0.08 -1.21,-0.31 -0.32,-0.22 z m 3.26,-0.51 -0.89,0.72 -0.02,-0.28 0.45,-0.48 0.49,-0.31 -0.03,0.35 z m 0.71,-0.55 0.08,0.19 -0.54,0.3 0.46,-0.49 z m -0.91,-0.36 0.23,0.22 -0.6,0.12 0.04,-0.29 0.27,-0.22 0.06,0.17 z m 1.06,-0.56 -0.15,0.3 -0.22,-0.21 0.01,0.35 -0.44,0.31 -0.18,-0.39 0.49,-0.34 0.49,-0.02 z m 2.77,-1.17 -2.17,1.6 -0.4,0.04 -0.12,-0.37 0.62,0.04 2.07,-1.31 z m -34,-15.36 0.37,0.32 1.23,0.15 0.56,1.37 0.12,-0.2 1.22,0.2 0.82,-0.16 0.71,0.93 0.61,-0.87 1.03,-0.09 0.59,-0.32 1.79,1.24 0,0 0.39,-0.21 0,0 1.51,0.41 0.14,-0.36 0.59,-0.01 0.27,-0.38 -0.07,-0.6 0.21,-0.42 1.79,-0.47 0.55,0.21 0.88,-0.33 0.97,0.14 0.44,0.9 0,0 -0.21,0.43 0,0 0.02,0.35 0.82,0.21 1.86,1.59 1.41,0.41 2.1,0.15 0.46,0.3 0.95,-0.66 0.27,-0.6 1.19,-0.41 -0.11,-0.37 -0.21,0.06 -0.21,-0.28 0.08,-0.36 0.16,-0.4 0.41,0.02 0.07,-0.37 0.4,0.15 0.36,-0.31 0.19,0.25 0.53,-0.03 0.54,-0.14 0.32,-0.12 0.36,-0.23 0.36,0.04 -0.21,-0.45 0.11,-0.22 1.09,-0.16 0.12,-0.47 0.71,-0.02 0.37,-0.15 0.75,-0.69 0.25,0.07 0.41,-0.43 0.36,0.02 0.24,-0.01 0.36,-0.44 0.66,-0.07 0.28,-0.35 0.2,0.12 1.39,-0.38 0.39,0.16 0.39,0.06 0.58,0.37 0.11,-0.35 0.56,-0.09 0.03,-0.44 0.44,-0.06 0.26,-0.53 0.99,0.33 0.57,-0.36 0.4,0.05 0,0 0.1,0.23 0.59,0.04 0.24,0.97 0.66,0.44 -0.19,0.69 0.41,0.69 -0.02,0.9 0.38,0.41 -0.57,0.37 0.71,0.77 0.12,1.13 -0.28,0.62 0.2,0.61 -0.07,0.79 0.65,1.45 -0.36,0.95 0.62,0.91 0.48,2.55 -0.26,-0.38 -1.98,-0.11 -1.15,0.31 -0.76,0.27 -0.41,0.13 -2.16,1.11 -0.72,0.66 -0.25,0.41 -0.62,0.1 -1.18,0.73 -0.55,0.7 -1.17,0.72 -3.07,0.81 -0.06,0.19 -0.77,-0.07 -0.23,0.42 -0.83,-0.08 -0.23,0.39 -0.62,-0.44 -0.26,0.31 -0.73,0.03 -1.85,-1.02 2.42,2.1 -3.72,-2.83 -1.64,-0.85 0.08,-0.26 -0.25,0.18 -1.78,-0.64 -1.55,0.32 -0.66,-0.14 -1.03,0.55 -0.5,-0.01 -1.93,-1.13 -1.7,0.56 -0.81,0.03 -1.98,-0.58 -0.91,-0.61 -0.85,-0.14 -0.39,0.16 -1.42,-0.31 -1.41,0.64 -0.19,0.24 0.03,0.87 -1.78,-0.29 -2.06,0.95 -0.91,-0.13 -0.72,0.23 -0.71,0.72 -0.22,-0.16 -0.73,0.15 -0.35,0.72 -0.6,0.17 -0.18,0.7 -0.31,-0.12 -0.33,0.46 0.08,-0.5 -0.51,-0.77 -0.62,-0.06 -0.07,0.33 -0.33,-0.2 0.54,-0.8 -0.15,-0.19 0.15,-0.27 0.53,-0.55 0.14,-0.96 0.61,-0.53 1.12,-2.27 -0.3,-0.7 0.11,-0.26 -0.26,-0.26 0.64,-0.32 1.14,-2.52 -0.12,-0.98 -0.35,-0.13 0.13,-0.59 -0.16,-0.4 1.01,-1.19 1.04,-2.24 0.26,-1.54 z" 
                fill="rgb(151, 144, 238)" 
                stroke="white" 
                stroke-width=".7px"
                title="Algarve" 
                id="PT-ALG" 
            />
        </svg>