<svg xmlns="http://www.w3.org/2000/svg" viewBox="702.10297 47.69424900000001 71.32999999999981 64.79000100000003" width="71.32999999999981" height="64.79000100000003">
            <path 
                d="m 714.28297,50.724249 1.49,-0.39 0.23,0.44 -0.13,0.75 0.68,1.5 0.05,0.9 0.44,0.64 0.5,-0.09 0.63,-0.66 0.31,0.03 -0.29,1.23 -0.62,0.47 0.3,0.7 0.34,0.09 -0.09,0.45 -0.57,0.47 0.17,0.85 0.97,0.5 -0.3,0.42 0.46,0.46 0.31,-0.11 0.23,-0.77 1.82,-0.18 0.12,0.4 0.47,0.14 0.03,-0.26 0.53,-0.33 0.15,-0.73 0.62,-0.06 1.09,0.93 0.62,-0.41 0.34,0.29 0.86,-0.05 0.27,0.62 0.11,-0.63 0.32,-0.24 0.04,-0.5 0.67,-1.03 -0.52,-1.3 0.79,-0.25 0.72,0.57 0.43,0.07 0.78,-0.81 1.08,0.73 0.8,-0.32 0.13,-0.47 -0.2,-0.65 -0.55,-0.64 0.22,-0.9 -0.36,-1.06 1.41,-1.79 0.71,0.24 0.53,-0.13 0.86,0.85 0.89,-0.15 0.18,-0.23 0.68,-0.03 0.7,-1.52 0.7,-0.39 1.39,-0.14 -0.77,1.17 0.81,0.08 0.8,0.44 0.79,0.99 0.38,0 0.8,-0.82 1.06,0.34 -0.18,0.52 0.25,0.71 1.96,0.12 -0.2,1.27 -0.45,0.96 0.72,1.24 0.3,-0.12 0.54,0.2 -0.04,-0.44 1.01,-0.38 0.77,1.39 0.48,0.4 0.25,-1.1 0.72,-0.69 1.35,0.11 0.2,0.41 0.6,0.26 0.44,0.86 0.46,0.25 0.38,0.58 0.5,-0.43 0.99,-2.14 -0.08,-0.26 -0.66,-0.4 0.22,-1.06 0.39,-0.19 0.58,0.54 0.47,0.03 0.58,-0.83 0.76,-0.38 0.24,-1.37 -0.34,-0.4 -1.23,-0.53 -0.07,-0.83 1.08,0.01 0.33,-0.46 0.71,0.29 1.6,-0.08 0.51,0.37 0.67,-1.05 0.52,-0.13 0.69,0.23 0,0 0.55,0.97 0,0 -0.44,-0.04 -0.12,0.3 0.06,0.72 0.47,0.63 -0.51,1.42 1.45,0.53 0.4,-1.07 0.82,-1.05 1.6,0.3 1.23,-0.46 0.49,-0.38 0.51,-1.29 -0.17,-0.34 0.28,-0.35 1.37,0.22 0,0 0.33,1.09 0.47,0.25 1.5,1.92 0.34,1.07 0.01,0.95 0.56,0.68 0.66,0.11 0.25,0.92 0.01,0.6 -0.81,0.15 0.31,1.55 -0.45,2.2 0.2,0.94 0.41,0.53 0.2,2.03 0.31,0.34 -0.5,1.43 -0.83,1.37 -0.19,0.99 1.32,0.76 -0.12,0.52 0.28,1.06 -0.58,0.49 -1.04,2.11 0.36,1.63 1.73,1.83 -0.38,0.4 0.04,1.04 -2.19,1.34 -0.26,1.45 -1.26,0.4 -1.34,-0.14 -0.41,0.83 -0.43,-0.12 -1,0.57 -0.6,1.64 0.38,0.39 0.02,1.4 0.57,1.03 0.75,-0.08 1.15,0.46 0.56,0.88 0.16,0.72 0.75,0.35 -0.1,0.39 0.44,0.39 0.19,0.98 0.39,0.19 -0.65,1.41 -0.06,1.57 -0.61,0.69 0.24,0.76 -0.22,1.43 -0.19,0.4 -0.61,0.36 -0.67,1.14 -0.68,0.04 -0.37,0.44 -0.13,0.76 0.42,0.88 -0.35,0.380001 -0.19,1.64 -0.77,2.16 -1.58,0.5 -1.85,-0.22 -0.71,0.42 -3.26,-0.56 -1.11,0.23 -1.54,0.83 -1.3,-0.4 -0.85,0.19 -1.68,-0.66 -2.65,-0.09 0,0 -0.39,0.29 -0.96,0.01 -0.41,0.31 -0.04,0.4 -1.3,0.73 -0.32,-0.1 -0.73,-0.98 -1.18,0.7 0,0 -0.26,0.31 0.1,0.67 0,0 -0.34,0.62 -1.05,0.23 -0.43,0.9 -0.82,0.8 -0.83,0.23 -0.46,0.95 -0.43,0.25 0,0 -1.91,-1.59 0,0 -0.8,-0.3 0,0 -0.44,0.29 -0.51,-0.13 -0.52,1.53 -0.68,0.76 0.18,0.7 -0.3,0.25 -0.41,-0.26 -0.69,0.4 -0.67,-0.16 0.19,-2.03 -0.82,-1.09 0.03,-1.79 -0.35,-0.08 -0.01,-0.34 -0.37,-0.43 -1.11,0.13 -0.66,-0.61 -1.75,-0.43 -0.53,-0.4 0.33,-2.38 -0.42,-0.1 0.23,-0.77 -0.22,-0.28 0.31,-0.44 -0.48,-1.430001 -0.7,0.420001 -0.55,-0.390001 -0.06,-0.73 -0.66,0.1 -0.86,-0.29 0.18,0.72 -0.15,0.41 0.27,0.570001 -0.25,0.02 -0.49,-0.680001 -1.04,0.920001 -0.44,-0.36 -0.86,0.29 -0.28,0.58 -0.69,0.37 0.06,-0.87 -0.44,-0.840001 0.02,-1.22 -0.51,-1.39 -0.88,0.76 -0.48,-0.38 -0.65,1.09 -1.38,0.92 -1.52,-0.39 -0.98,0.39 -0.42,0.510001 0.07,1.39 0.36,0.28 -0.3,0.11 -0.15,0.45 1.23,0.5 0.16,0.3 -0.28,0.36 -0.13,0.85 -1.73,0.91 0.47,1.13 0.06,1.39 0.45,0.64 -1.32,1.69 -0.67,-0.64 -0.29,0.36 0.45,1.78 -0.11,0.2 -1.23,0.13 -0.55,-0.21 -1.82,0.35 -0.68,-0.13 -0.48,0.13 -0.16,0.28 -0.44,-0.02 0.49,-2.73 0.69,-1.3 -0.59,-0.62 -0.6,0.4 -0.83,-1.51 -0.09,-0.8 0.66,-0.46 0.04,-0.61 -0.13,-0.31 -0.73,-0.49 0.08,-1.16 -0.43,-0.9 -0.58,-0.23 -0.59,0.65 -0.31,-0.02 -1.39,-1.13 0,0 2.63,-6.900001 2.8,-8.29 0.16,-1.07 -0.24,-0.2 -0.02,-0.18 -0.1,-0.59 -1.03,-0.75 -0.05,-0.37 1.01,-2.64 1.53,-5.22 2.38,-9.97 0.12,-0.78 -0.25,-0.32 1.57,-5.6 z" 
                fill="rgb(151, 144, 238)" 
                stroke="white" 
                stroke-width=".7px"
                title="Centro" 
                id="PT-C" 
            />
        </svg>