<svg xmlns="http://www.w3.org/2000/svg" viewBox="442.4529700000001 360.99425 44.50999999999988 109.30000000000001" width="44.50999999999988" height="109.30000000000001">
            <path 
                d="m 486.96297,470.25425 -0.55,0.04 0.11,-0.49 0.42,0.08 0.02,0.37 z m -19.14,-83.03 -0.71,-0.53 -0.26,-0.74 0.04,-0.98 0.22,1.31 0.71,0.94 z m -2.45,-6.31 1.26,1.97 0.27,1.65 -0.81,-1.9 -0.62,-0.47 -0.1,-1.25 z m -20.59,-11.08 0.88,0.1 0.43,0.74 0.84,0.7 0.6,0.01 0.41,0.46 1.22,0.28 1.17,-0.28 0.88,-0.55 1.73,0.12 1.02,-0.42 0.92,1.03 0.58,0.1 -0.12,0.36 0.72,0.43 0.45,0.71 1.05,0.05 0.23,0.3 0.38,-0.06 1.54,0.51 0.94,-0.29 0.33,0.55 -0.41,-0.29 -0.33,0.37 -0.57,-0.17 -0.74,0.3 -0.58,0.69 0.12,0.3 -0.4,0.62 -0.53,0.14 -0.42,0.92 -0.86,0.87 -0.65,0.12 -0.6,-0.29 -1.2,-0.07 -1.17,0.53 -0.43,-0.37 -1.47,-0.47 -0.61,0.03 -1.3,-0.48 -0.3,-0.31 -0.95,-0.07 -0.88,-0.8 -2.56,-1.37 -1.05,-1.39 -0.05,-0.79 -0.59,-0.74 2.33,-2.13 z m 25.59,-5.32 0.01,0.58 -0.41,-0.36 0.33,-0.58 0.07,0.36 z m 1.92,-3.52 0.49,0.31 0.34,-0.11 0.07,1.5 -1,-0.06 -1.83,1.41 -0.51,-0.59 0.28,-0.08 0.41,-0.66 -0.01,-0.62 0.73,-0.64 1.03,-0.46 z" 
                fill="rgb(151, 144, 238)" 
                stroke="white" 
                stroke-width=".7px"
                title="Madeira" 
                id="PT-M" 
            />
        </svg>