<svg xmlns="http://www.w3.org/2000/svg" viewBox="707.1829699999992 0.724248800000016 84.88000000000022 58.790000199999994" width="84.88000000000022" height="58.790000199999994">
            <path 
                d="m 728.95297,1.6242488 0.24,2.79 0.25,0.05 0.68,-0.51 1.24,-0.06 0.52,0.36 0.41,1 -0.13,1.37 -1.29,0.43 -1.04,1.01 -0.41,1.1 -0.63,0.61 -0.66,1.2800002 0.06,0.49 0.46,0.6 -0.06,0.5 0.99,-0.12 0.26,0.86 -0.07,1.52 1.17,0.41 2.28,-0.32 0.56,-0.56 0.76,-0.04 0.3,-0.73 0.84,-1.03 0.93,0.07 0.86,-0.29 0.52,-2.05 0.63,0.2 -0.18,2.56 0.39,0.46 0.49,-0.42 0.51,-0.11 0.06,-0.48 0.31,-0.2 1.43,-0.16 0.99,-0.65 0.66,0.26 1.16,-0.62 1.33,1.03 2.36,0.16 -0.53,0.48 -0.35,1.6 1.37,-0.08 1.31,-0.37 0.63,-0.4 -0.12,-0.64 0.59,-0.25 0.32,0.35 1.05,0.05 0.06,0.76 0.6,0.55 0.02,0.88 0.91,-0.79 0.22,-0.56 0.77,-0.47 0.32,0.44 1.32,-0.09 2.05,-1 0.57,-0.04 0.63,-0.47 0.43,-0.02 0.67,-1.64 -0.41,-0.9600002 0.2,-0.5 -0.19,-0.15 0.04,-0.52 0.28,-0.45 0.67,0.11 0.51,-0.54 1.66,0.69 0.34,0.88 0.28,0.19 0.54,0.01 0.26,-0.3 1.14,0.24 0.29,-0.54 0.62,-0.46 0.68,0.3 0.42,0.94 1.64,0.2 0.8,-0.33 1.24,0.15 0.8,-1.98 0.92,0.22 0.69,1.75 0.71,0.28 1.04,0.1900002 2.41,-0.3000002 0.61,-0.31 0.4,-0.81 1.18,0.95 0.18,0.5300002 -0.8,1.98 1.75,0.63 -0.27,0.43 -0.22,1.07 0.12,0.63 -0.25,0.09 -0.3,1.66 -0.34,1 -0.39,0.38 0.39,0.29 -0.05,0.44 0.27,0.14 -0.17,0.25 0.36,0.73 -0.09,0.2 -0.26,-0.1 0.12,0.54 1.57,1.23 1.32,-0.46 0.44,-0.68 2.08,0.44 0.79,-0.05 1.27,0.48 1.75,1.24 0.72,1.2 0.92,0.39 0.41,0.91 -0.65,0.7 -0.76,1.5 -0.64,0.35 0.15,0.64 -0.44,0.06 0.05,0.4 -0.6,0.31 -0.08,0.5 -0.64,0.74 0.28,0.69 -0.48,0.63 -0.69,0.34 0.47,0.52 0.03,0.47 -1.09,0.35 -0.52,-0.62 -0.68,0.36 -0.09,0.65 0.5,0.42 -0.44,0.35 -0.75,0.12 -0.37,0.56 0.24,0.33 -0.53,0.35 -0.05,0.5 -0.29,0.26 -0.75,-0.02 -0.55,0.41 -0.1,0.26 0.39,0.34 -0.44,0.34 -0.59,0.16 -0.33,-0.45 -0.76,0.7 -0.18,0.53 -0.69,0.3 -0.3,-0.07 -0.23,-0.61 -0.3,0.46 -0.23,-0.21 -0.69,0.26 -0.62,-0.17 -0.13,0.48 -1.2,1.1 0.08,0.38 -0.34,0.35 0.02,0.42 -2.22,2.06 -0.06,0.31 0.48,0.99 -1.04,1.77 -0.65,0.63 0.03,0.32 -1.62,0.4 -1.73,-0.47 -0.52,0.38 0,0 -1.36,-0.22 -0.28,0.35 0.17,0.35 -0.52,1.28 -0.49,0.38 -1.23,0.47 -1.59,-0.3 -0.83,1.05 -0.4,1.07 -1.45,-0.53 0.51,-1.42 -0.47,-0.62 -0.06,-0.72 0.13,-0.3 0.44,0.04 0,0 -0.55,-0.97 0,0 -0.69,-0.22 -0.52,0.13 -0.68,1.05 -0.5,-0.37 -1.6,0.09 -0.71,-0.3 -0.33,0.46 -1.08,-0.01 0.07,0.83 1.23,0.53 0.34,0.4 -0.25,1.37 -0.75,0.38 -0.58,0.82 -0.47,-0.03 -0.58,-0.54 -0.39,0.19 -0.23,1.06 0.67,0.4 0.07,0.26 -0.98,2.14 -0.5,0.42 -0.39,-0.58 -0.46,-0.24 -0.44,-0.86 -0.6,-0.26 -0.2,-0.41 -1.35,-0.11 -0.71,0.69 -0.25,1.09 -0.48,-0.4 -0.77,-1.39 -1.01,0.38 0.03,0.44 -0.53,-0.2 -0.31,0.12 -0.72,-1.24 0.46,-0.96 0.2,-1.27 -1.96,-0.12 -0.26,-0.71 0.19,-0.52 -1.07,-0.33 -0.8,0.82 -0.38,0 -0.79,-0.99 -0.8,-0.44 -0.81,-0.08 0.77,-1.17 -1.39,0.13 -0.7,0.39 -0.69,1.53 -0.68,0.03 -0.19,0.23 -0.89,0.15 -0.86,-0.85 -0.52,0.13 -0.71,-0.25 -1.42,1.8 0.36,1.06 -0.22,0.9 0.55,0.64 0.2,0.65 -0.13,0.47 -0.8,0.32 -1.08,-0.74 -0.78,0.82 -0.43,-0.07 -0.72,-0.57 -0.79,0.25 0.52,1.3 -0.67,1.03 -0.04,0.5 -0.32,0.24 -0.11,0.63 -0.27,-0.62 -0.86,0.05 -0.34,-0.29 -0.62,0.41 -1.09,-0.93 -0.62,0.05 -0.14,0.73 -0.53,0.33 -0.02,0.26 -0.47,-0.13 -0.12,-0.4 -1.82,0.18 -0.24,0.77 -0.31,0.1 -0.46,-0.46 0.3,-0.42 -0.97,-0.49 -0.17,-0.85 0.57,-0.47 0.09,-0.46 -0.33,-0.08 -0.31,-0.7 0.62,-0.48 0.29,-1.23 -0.31,-0.02 -0.63,0.66 -0.5,0.09 -0.44,-0.64 -0.05,-0.91 -0.68,-1.49 0.13,-0.75 -0.23,-0.44 -1.52,0.35 0,0 0.32,-2.27 -0.4,-1.35 -0.38,-3.73 -0.56,-0.75 -0.15,-0.66 -0.4,-0.08 -0.1,0.16 -0.2,-0.2 0.22,-0.47 -0.69,-2.22 0.13,-0.67 -0.52,-2.16 0.03,-1.02 -0.44,-0.33 -0.4,-1.19 -0.07,-0.36 -0.61,-1.45 0.37,-2.69 -0.42,-0.98 -0.17,-2.26 -0.99,-3.91 0.01,-0.95 -0.25,-0.36 -0.39,0.17 -1.04,-3.06 0.15,-2.1 0.28,-0.61 -0.35,-1 0.18,-1.24 0.82,-0.78 0.72,-1.19 1.19,-0.29 1,-0.8500002 0.34,-1.24 2.4,-1.44 0.26,-1.18 0.78,-0.83 0.96,-0.27 1.77,0.04 0.62,-0.35 -0.04,-0.5 0.2,-0.2 2.43,-0.11 0.6,0.42 0.76,-0.35 0.57,0.17 0.58,-0.58 1.01,0.25 0.43,-0.81 0.56,-0.07 0.86,-0.78 0.48,0.07 0.38,-0.73 0.73,0.25 0.62,-0.44 0.2,-0.47 0.28,0.9 z" 
                fill="rgb(151, 144, 238)" 
                stroke="white" 
                stroke-width=".7px"
                title="Norte" 
                id="PT-N" 
            />
        </svg>