<svg xmlns="http://www.w3.org/2000/svg" viewBox="0.31451079000008364 44.76262400000002 258.9899992099999 162.07999599999994" width="258.9899992099999" height="162.07999599999994">
            <path 
                d="m 259.30451,82.142624 -1.25,-0.27 -0.26,-0.58 -5.27,0.95 -15.98,1.45 -10.74,5.23 -4.19,0.58 -2.88,1.16 -1.83,3.19 0,7.259996 0.79,8.71 1.57,6.38 2.88,6.1 1.83,7.12 0,0 0,0 0,0 0,0 0,0 0,7.39 0,0 -4.45,6.38 0,0 0.79,2.03 0,0 2.36,2.32 2.1,4.35 0,0 1.31,8.7 0.26,11.02 1.05,11.02 2.09,7.83 0,6.67 0,0 -4.45,2.61 -9.16,1.16 -9.17,2.03 -10.62,3.91 0,0 -1.29,-1.76 0.64,-1.66 0.65,-6.41 -1.72,-2.14 0,-0.71 -0.64,-0.23 0.43,-9.73 -1.71,-0.24 0,-0.71 -0.43,0 0,-0.47 2.57,0.24 0.64,-0.71 0,-0.71 -0.43,0 0.21,-2.61 -1.07,-0.48 -0.21,-1.19 -1.5,0.24 0,-0.71 1.07,-0.24 0,-0.47 -1.07,-0.23 1.29,-0.24 -0.65,-4.99 -0.64,-0.95 0.64,-1.9 -1.07,-3.33 0.43,-0.95 -1.07,0 -1.07,-1.42 0.21,-1.19 -1.5,0 0,-0.48 1.5,-0.47 0,-0.48 -0.86,-0.24 0,-0.95 -1.07,0.24 0,0.71 -0.86,0 -0.86,-1.19 -0.43,-0.95 1.07,-0.24 0,-0.71 -0.43,-0.48 -1.29,0.24 0.86,-0.71 0,-0.71 -1.93,0.71 -1.5,-1.19 -0.21,-0.71 0.86,-0.47 0,-0.71 -0.86,0 0.64,-0.95 -0.86,-0.48 0.64,-0.23 0,-0.71 -2.14,0.24 0.21,-2.37 1.07,0.48 0.65,-0.48 0,-1.19 -1.5,0.24 -0.86,-0.71 -1.5,-3.8 -2.14,-3.33 -1.07,-2.85 0.21,-0.95 0.86,-0.24 0,-1.19 -1.29,0 -0.43,-1.19 -1.71,0 0.64,-0.71 0,-1.19 -0.64,-0.24 -2.79,0.71 -0.86,0.95 -1.29,0 -0.43,-0.95 -0.21,-2.37 1.07,0 1.5,-1.43 2.36,-0.24 -0.22,-3.56 -1.07,-1.42 -0.86,-2.61 0.21,-1.66 -0.86,-1.66 0.21,-2.61 -1.29,-1.9 0.22,-1.19 -0.64,0.24 -0.43,-1.9 0.43,-4.51 2.36,-1.9 -1.07,-1.42 -6,0.48 -16.51,2.85 0.43,4.75 -1.5,3.8 0.43,3.09 -0.64,0.95 0,2.14 -1.29,2.61 0,1.9 0.22,1.43 1.07,0 0.43,1.42 0,0.48 -1.29,0.47 0.86,3.8 1.5,-0.24 0,1.9 1.93,0 1.07,2.14 -1.5,2.85 0,2.85 0.64,1.9 -0.43,1.9 -1.5,0 -3.64,-2.37 -3.22,-0.71 -0.43,0 0,0.71 0.43,0 -0.21,1.42 -1.07,0.24 -0.43,-1.9 0.64,-0.71 -2.78,0 -4.08,1.19 -1.5,1.66 -3.22,-0.24 -1.29,-0.71 -2.57,0.24 0,-0.48 -0.86,0 -0.64,-0.71 -3,-0.71 0,-1.9 1.07,-1.19 0,-4.04 -3,-1.19 0,-5.7 0.86,-0.71 -3.43,-2.61 0,-2.85 -0.64,-2.14 0.86,-0.48 0,-0.71 -0.65,-0.71 -0.21,-2.85 0.64,0 -0.43,-1.42 1.93,-1.9 0.64,-4.28 0.43,0 0.43,-1.19 0,-2.85 2.15,0 -1.07,4.04 1.29,0.71 1.72,-2.38 1.72,0 0.43,-1.9 0.86,0 1.72,1.43 -0.21,-2.37 1.72,0 0.22,-0.71 -4.5,-1.899996 -0.64,-0.95 -4.29,-2.61 -8.79,-2.61 -29.799999,-1.66 -1.71,0.24 -1.07,1.43 -0.64,0 -1.71,-0.24 -0.43,-1.42 -2.14,-0.71 -0.65,0 -0.21,1.19 -1.14,0 0,-0.47 -1.07,0 -1.93,-1.19 -0.21,-1.19 -1.5,-2.14 -2.36,-1.42 -37.74,-20.53 -18.6500002,-5.22 -3.64,-0.71 -3.65000001,0 -0.22,-0.95 4.08000001,0 3.65,0.71 18.6500002,5.23 39.67,21.86 1.71,0 0.21,0.71 0.65,0 1.5,-0.95 1.29,0 1.07,0.71 1.29,2.38 5.36,-0.71 0.86,0.48 0.86,2.14 27.659999,1.19 4.72,0.71 6.22,2.14 6.22,4.28 6.86,2.609996 2.36,-0.24 0.64,-0.71 -0.21,-1.189996 0.64,-0.48 0.65,-4.52 -0.65,-9.03 -0.43,-0.48 0.43,-0.71 -1.07,-1.43 -0.43,0.95 -0.64,0 -0.43,-0.95 0.64,-0.47 -1.29,-0.24 -1.5,0.48 -0.43,-1.19 -0.43,0 -0.21,-1.9 0.21,-0.48 3,0.24 0.64,0.71 1.72,0.24 2.14,1.19 2.79,-0.48 -0.64,0.95 0.86,0.24 -0.64,0.48 0.22,0.48 1.07,0.24 -0.21,0.95 -0.65,0.24 -0.64,-1.19 -1.29,0 -1.29,0.95 0.22,0.71 -1.07,0.48 0,4.51 0.64,3.57 -0.64,6.419996 2.36,-0.949996 2.79,0.24 0.22,-0.48 4.29,0.48 0.86,4.039996 0.43,0 15.65,-2.61 -0.43,-0.71 -2.57,0.24 0.64,-0.949996 2.36,0.47 0,-0.71 1.29,0 0.22,1.429996 3,-0.24 0.43,-1.189996 1.07,-0.48 0.64,-2.61 1.07,0 0.86,-1.19 1.93,-3.8 0,-2.61 0.43,0 0,-1.45 -1.5,-0.47 -0.43,-2.14 0.43,0 -0.22,-2.85 1.5,-0.95 -0.21,-1.19 0.64,-1.9 -0.43,-1.9 -0.86,-0.71 -0.65,-1.9 -1.29,-0.24 -1.28,1.19 -0.43,-1.67 -1.29,-1.42 0.43,-0.48 -0.43,-2.14 -1.5,0 -0.43,-1.19 0.43,-1.19 1.72,0.24 0,0.95 0.64,0 0.22,-1.19 -1.5,0 -0.64,-0.95 0,-1.67 0.43,0 0.64,-2.61 2.36,0.24 -0.64,-1.9 1.28,0.71 1.5,-0.24 0.43,-0.95 1.5,0.48 0.21,-0.71 -1.29,-1.19 2.57,0.24 2.57,-1.9 0,-0.95 -0.64,0 0,-2.14 1.29,-0.24 -0.21,-2.38 0.86,0 0.64,1.66 0.43,0 2.15,-1.66 1.29,-0.24 0.21,-1.9 1.29,0 0.22,-0.71 0.64,0 -0.22,1.43 1.72,0 0.43,-0.95 1.93,-0.48 3.65,0 0,0.71 1.29,0.48 1.5,-1.43 0,-0.71 4.72,0.48 4.93,-0.48 0.65,-0.47 5.14,0 0.64,-0.71 0.64,0.71 3.01,0.47 1.93,-0.47 1.43,0.95 0,0 2.54,5.12 -0.3,2.35 -2.12,2.01 -0.91,1.85 0.6,2.52 4.23,1.68 7.26,1.17 5.44,-1.17 4.99,-1.84 2.72,-2.01 3.17,1.68 4.39,6.71 4.29,12.52 0,0 -0.23,0.71 0.65,0.21 1.93,-0.45 0.15,2.66 z m -99.26,-8.87 0.43,0.24 0.22,2.85 0.64,0 0.43,1.19 -0.86,1.43 -1.5,-0.71 0.64,-1.42 -0.64,-0.24 0.21,-1.19 -0.86,-1.42 0.43,-0.71 0.86,0 z m -96.699999,20.43 1.07,1.19 1.5,0.48 -2.78,2.38 -1.07,0 1.07,-2.85 -0.43,-1.19 0.64,0 z" 
                fill="rgb(151, 144, 238)" 
                stroke="white" 
                stroke-width=".7px"
                title=" Ash Shamālīyah" 
                id="BH-17" 
            />
        </svg>