<svg xmlns="http://www.w3.org/2000/svg" viewBox="172.7045100000001 129.47261999999938 287.0599999999997 482.7700000000012" width="287.0599999999997" height="482.7700000000012">
            <path 
                d="m 435.32451,575.83262 0.22,0.24 -0.21,0.94 -1.5,0.24 -0.64,-0.47 0.22,-0.71 1.91,-0.24 z m -17.15,-4.02 0.43,1.66 0.43,0.47 0.64,0 -0.43,0.48 0.43,1.18 0.43,-0.24 0,-1.18 1.07,0.47 -0.43,5.68 -1.07,0 0,-0.23 -1.93,0.24 -0.86,0.47 -0.21,0.47 -0.86,0.24 -0.22,0.47 -0.43,0 -0.21,0.47 -0.86,0.24 -0.21,0.47 -0.43,0 -0.22,0.47 -0.43,0 -0.21,0.47 -0.43,0 -1.29,1.18 -0.65,2.13 1.29,0.71 0.65,0.95 0.43,0 0,0.71 -1.5,0.71 -0.21,0.47 -0.86,0.47 0.64,0.95 -1.29,0.71 -0.64,1.42 0.43,0.95 -2.57,1.18 -1.07,1.42 0,1.18 0.64,0.95 1.29,0.24 -0.43,0.95 2.14,1.18 0.86,1.18 1.07,0 0.64,0.71 0.86,0.24 0.22,0.47 1.5,0.47 1.07,1.18 0.65,0 0.21,0.47 1.93,0.71 1.93,1.89 0.86,0 0,0.24 1.29,-0.23 0.86,0.94 0.43,0.95 -0.23,0.45 -0.43,0 -0.21,-0.71 -0.86,-0.23 -0.86,-0.71 -0.86,0 -0.43,-0.71 -1.07,-0.47 -0.43,-0.71 -1.93,-0.71 -0.86,-0.47 -0.21,-0.47 -1.07,0 -2.14,-1.18 -2.14,-0.24 -0.43,-0.47 -1.93,0 -0.86,-0.71 -1.72,-0.23 -0.86,-0.95 0,-0.71 -0.43,-0.47 -0.86,-0.47 -2.14,0 -0.21,-1.89 -1.72,-0.23 0,-0.71 -0.64,-0.47 0,-0.47 -0.65,-0.47 -0.21,-0.71 0.64,-5.91 1.5,-0.24 0,-1.42 -0.86,-0.47 0,-1.65 0.43,-0.47 0.65,0 0.64,-1.42 0.64,0 0.65,-0.47 0,-0.95 0.22,0 -0.21,-2.13 0.43,-0.71 0.64,-0.24 0.22,-1.42 1.29,-0.94 0,-0.95 0.22,-0.24 2.36,0 0.64,-0.47 0.22,-0.94 1.29,0 0.22,-0.47 1.28,-0.71 0.43,0 0,0.95 -0.21,0 0.22,0.71 0.65,0 0.21,-0.24 -0.21,-0.71 1.07,-0.47 0.21,-0.47 0.65,0.47 1.29,0.24 0.64,-0.95 0.22,-1.65 2.74,-0.52 z m 8.36,-1.42 0.21,0.24 -0.21,1.42 -0.86,0 -1.07,-0.71 0,-0.94 1.93,0 z m -0.22,-11.59 0,0.24 0.64,0 0.22,0.95 0.65,0 0.21,0.71 0.65,0.47 -0.21,0.71 -0.43,0.24 0,0.95 -1.71,0.24 -0.43,-0.47 0.43,-0.23 0.22,-0.71 -0.86,0 0,0.95 -0.43,0.71 -1.29,0 -0.65,-0.94 -0.64,-0.24 0.22,-0.94 0.64,-0.47 0,-0.47 1.29,0 0.22,-1.42 1.26,-0.28 z m 7.08,-22.23 0.64,0.47 2.14,0 0,1.42 0.86,1.42 0,1.42 -0.64,0 -0.43,-1.19 -0.86,-0.47 -0.43,-0.71 -1.07,-0.23 -0.43,0.47 0,1.42 -1.07,2.37 0.22,1.18 0.86,0 0.22,-0.47 0,-0.47 -0.64,-0.24 0.65,-1.65 1.93,0 0.22,1.18 -0.64,0.71 1.5,2.6 0,0.47 -3.22,-0.47 0.86,1.89 0.43,0.24 0,0.48 1.93,0 0.22,0.47 0.22,-1.18 1.29,-0.24 0.64,-2.13 1.5,0 0.43,-0.23 0,-0.71 0.64,0.23 0.65,-0.71 1.93,1.18 0.64,0 0.22,0.71 1.72,0 0,0.24 1.29,-0.23 0.21,-0.71 1.72,0.24 0.43,-0.47 0,0.47 0.64,0 0.22,2.13 0.64,0.24 0,0.71 1.93,0.24 0.43,0.71 0.86,0.47 0.64,1.89 -0.21,1.42 -3.43,3.79 0.86,0.95 1.07,0.47 0.43,0.95 -0.86,1.89 -1.72,-0.24 0,0.71 -2.36,0 0,0.24 -0.86,0 -0.64,0.47 -0.86,0 0,0.24 -0.64,0 -0.86,0.47 -0.21,0.47 -0.86,0.24 -0.21,0.47 -0.86,0 -1.28,-0.94 0.43,-1.65 1.29,-0.47 0.22,-0.24 -0.22,-0.47 -2.57,0 -0.22,-0.24 0,0.48 -2.36,0 -0.21,0.71 -2.15,0.47 -1.93,2.36 -0.86,-0.23 -0.21,-0.47 -1.29,-0.71 -0.21,-0.47 0.22,-3.07 -1.71,-2.13 -0.64,-2.84 0.86,-0.23 0.22,0.95 0.86,-0.23 0.22,-2.13 1.5,-0.23 0.43,-1.18 0.43,-0.23 -0.64,-0.71 -1.29,0 0,-0.95 -2.36,-1.65 0,-0.71 1.29,-2.84 -1.07,-0.47 -0.64,1.18 -0.86,0 -0.86,-0.94 -0.43,0 -0.64,-0.71 0.21,-0.24 -0.21,-1.89 -1.5,-1.42 -0.21,-0.71 0.86,0 0.22,-0.94 0.86,0 0.43,0.94 2.36,0.24 0,-0.24 0.65,0 -0.21,-1.18 0.43,-0.71 1.5,0 0.22,-0.47 1.15,0 z m -11.79,-6.39 0,0.47 1.29,0.47 0.22,1.19 0.64,0.95 0,1.18 1.07,0 0.22,0.71 -0.64,0.71 -1.07,0 0,0.24 -2.57,0 -1.07,1.66 -0.21,-0.47 -0.43,0 0,-0.95 -1.29,-0.71 -0.21,-1.89 0.22,-0.23 2.14,0 0.65,-1.18 -0.21,-1.19 0.43,-0.94 0.82,0 z m 7.5,-7.09 0.43,0.24 0.22,0.95 -0.43,0 -0.21,0.71 -0.43,0 -0.21,0.47 -0.43,0 0,-0.71 -1.07,-1.42 0.22,-0.23 1.07,0 0,0.24 0.84,-0.25 z m -12.65,-4.26 0.43,0.71 0.64,0.24 0,0.95 -0.43,0.47 -0.86,-0.24 0,-0.47 -0.64,-0.24 0.22,-1.18 0.64,-0.24 z m 35.38,-5.44 0.43,0.95 -0.43,2.6 1.5,0.47 0.86,0.48 0.22,0.47 1.71,0 1.29,1.18 -0.21,0.95 0.64,0 1.07,0.71 -0.86,0.95 -0.64,-0.24 -0.43,0.48 0,1.42 -0.86,0.95 0.22,2.37 -1.29,1.18 0,0.48 -1.5,0.47 0,0.24 -1.29,0 -0.21,0.71 -2.36,0 -0.86,0.71 -0.43,0 -0.21,0.71 -1.29,0.47 -0.43,1.19 -1.29,0 -0.64,-0.71 -1.5,-0.71 0.86,-0.47 0,-1.66 -0.65,-0.71 -0.43,0 -0.21,-0.71 -1.07,0.24 0,-0.47 -0.65,-0.47 0,-0.47 -0.64,-0.71 0,-1.89 0.22,0.24 0.86,-0.24 0,-1.42 0.43,0 -0.21,-1.18 0.64,0 0.22,-0.23 -0.21,-0.71 0.43,-0.47 0.86,0 0.22,-0.71 5.36,-0.71 0.22,-5.68 2.54,0 z m -11.8,-5.21 0.22,0.71 -0.43,0.47 -1.07,0 0,0.23 -0.64,-0.23 0.43,-0.95 1.49,-0.23 z m -0.42,-5.44 0,0.24 1.5,0 0.86,0.47 -0.43,0 -0.43,0.71 -1.93,-0.24 -0.43,-0.94 0.86,-0.24 z m -4.72,-25.09 0.21,1.89 -1.93,0.24 -0.43,-0.47 0.22,-0.71 0.86,-0.24 0.43,-0.71 0.64,0 z m 5.79,-1.89 -0.43,0.95 0,0.95 0.22,0.71 0.64,0.24 0.22,0.47 -0.64,0.48 -0.43,0.95 -1.72,0.71 -0.64,1.42 -0.64,0.47 0,0.47 -0.64,0.71 0.65,1.19 1.5,-0.24 0,1.18 -0.43,0 -0.43,0.71 0,1.42 0.64,0.94 0,2.37 -0.43,0 -0.86,1.18 -0.86,0.24 -0.43,0.48 0.21,0.71 -0.21,0.95 -1.72,0.95 -0.43,0.95 0,1.42 -0.64,1.42 -4.07,0.47 -1.28,0.71 -0.21,0.95 0.86,0.24 0,0.71 0.64,0.47 0,0.48 -1.28,-0.71 -0.64,0 -1.07,1.66 -0.22,2.6 -0.43,0.24 0,0.71 0.64,0.47 0,0.71 0.64,0.24 0.43,-0.95 1.72,-0.23 -0.21,-0.94 0.86,-0.71 0.22,-0.95 0.86,0 0.22,0.47 0.43,0 0.64,0.71 0,0.48 -0.86,1.65 0.43,0.95 0.43,0.24 0.22,0.95 1.07,0.95 1.07,-0.71 1.72,0.24 0.64,0.48 -0.21,0.24 0.22,0.71 1.29,0 0.64,1.66 0,2.6 -1.13,0 -0.43,0.71 -3,0 -0.21,2.13 -1.28,-0.24 -0.43,0.71 -1.72,0.23 0,0.24 -1.29,0 0,-0.47 0.86,-1.18 1.29,-0.47 -0.43,-0.71 -1.5,-0.47 -0.43,0.47 -0.65,0 -0.43,0.71 -1.93,-0.47 -0.86,2.13 -0.86,-0.24 -0.43,1.42 -1.5,0.24 0,0.24 -1.07,0 -0.64,-0.47 0.22,-0.47 0.21,0.24 0.86,-0.24 -0.21,-2.37 -0.86,0.24 0,-0.48 -1.07,-1.18 -1.93,0 0,-0.23 -1.07,0.23 0,-0.94 -1.07,-0.71 -0.64,0.24 0,1.19 -1.28,0.47 -0.43,-0.47 -0.86,0 -0.64,-0.48 -2.14,-0.47 -0.43,-0.94 -0.21,0.24 -3,-0.23 -0.21,0.47 -1.5,0.24 -0.43,0.71 -0.43,0 -0.43,0.48 -0.21,0.71 -0.43,-0.23 -1.07,0.71 0,2.13 1.29,1.42 0.43,0.24 0.86,-0.23 0,0.47 0.64,0.24 0.43,0.71 1.07,-0.24 0,-0.23 2.57,0 0.64,-0.47 1.72,0.24 0.43,-0.47 1.5,0.24 0.43,-1.18 1.71,0 0.43,1.42 0.65,-0.23 0.21,-0.71 0.43,0.24 0.43,-0.24 3,0.24 0,1.18 -0.64,0.95 -2.15,0.47 0,-0.23 -1.28,0 -0.65,-0.95 -0.43,0 -1.07,0.71 -0.21,1.18 -0.86,0.47 -2.14,0 -0.86,0.48 -1.29,2.6 0.22,3.31 -0.65,0.23 0,0.71 0.43,0.48 0.86,-0.24 1.29,1.42 -0.21,1.42 0.65,1.18 1.07,0 0.22,-0.71 0.21,0.24 1.29,-0.24 0.65,0.47 0,0.47 -1.07,-0.47 -0.43,1.42 -0.43,0.24 -0.21,2.13 0.86,0.47 0.22,0.47 -0.22,0.48 -0.43,0 -0.21,-0.47 -0.43,0.23 -0.21,2.13 0.43,0.24 0.64,-0.71 0.43,0 0.22,0.47 0.43,-0.47 2.14,0 0.22,-0.47 0.86,-0.24 0.22,3.31 1.72,1.18 0.86,0 0,1.18 -0.86,1.42 -0.21,2.37 0.64,0.24 0.86,-0.71 0.64,0 1.07,1.89 0,0.71 -0.64,-0.24 -1.29,2.37 -0.43,0 0,-0.71 -1.07,-0.71 -3.22,0 -0.43,0.24 -0.43,0.48 0,1.42 0.64,1.42 -0.43,0.24 -0.21,-0.47 -0.86,-0.47 -1.07,1.18 -0.43,1.65 -0.43,0 -0.64,0.71 0.43,1.66 -0.86,0.95 0.22,0.71 1.71,0.47 0.43,0.48 1.29,0 0.22,0.47 0.43,0 0,1.42 -0.86,0 -1.5,1.66 -1.93,0.47 -0.65,0.71 -0.43,1.42 -1.07,0.47 -0.43,1.18 -1.5,1.18 -0.21,0.71 -3.43,0 -0.21,-0.48 -0.86,0.24 -0.21,-1.89 0.64,-0.24 -0.21,-0.94 0.65,-0.47 0,-1.18 -0.43,-0.47 0,-0.71 0.64,-1.18 -0.21,0 0,-1.18 -0.86,-0.47 -0.21,-1.19 -0.64,-0.47 -0.21,-0.95 -0.64,-0.47 1.29,-0.71 -0.21,-0.47 -0.86,0 0,-0.71 0.43,-0.24 0,-0.67 0.43,0 0.22,-0.47 0.86,-0.47 0,-1.66 0.64,-0.94 0.22,-3.31 -0.43,-0.48 -0.21,-1.89 -0.64,-0.47 -0.21,-0.71 -0.64,-0.23 0.22,-0.71 -0.43,-0.95 -0.43,-0.47 -0.86,0 0,-0.47 -1.07,-0.71 -0.21,-0.71 -1.28,-0.71 -0.43,0 -0.21,0.71 -2.36,-0.24 0.22,-2.37 0.86,-0.47 0.22,-0.71 -0.86,-0.95 -1.07,0 -0.21,-1.42 -1.29,0.48 -1.72,1.66 -0.64,0 0.22,-0.95 0.43,0 1.08,-1.18 1.07,-0.23 0.43,-0.47 0.43,-1.42 1.5,0.47 0.43,-1.89 0.43,0.24 0.86,-0.24 0,-0.47 -0.64,-0.47 -1.5,0.47 -0.21,-1.42 1.07,-0.95 0.65,-4.97 1.29,0.23 0.43,-0.47 0,-0.71 -0.86,-1.65 0.22,-0.47 -1.07,-1.42 -0.43,0.24 0.43,1.42 -0.64,-0.24 -0.86,-1.89 0,-1.18 0.22,0 0,-1.18 1.93,-1.89 0.43,-1.42 0.43,-0.24 0.22,-2.37 0.22,0 -0.21,-3.07 0.86,-0.24 0.86,-0.94 0.64,-1.42 0.65,-0.47 0,-0.48 1.93,-2.36 0,-0.47 0.43,-0.23 0.21,-1.66 0.43,-0.47 1.29,-0.23 0.22,-0.95 0.64,0 0.43,-0.71 1.29,-0.47 0.43,-1.18 0.43,-0.24 0.22,-1.89 0.43,-0.24 0.86,0.47 0.64,-1.66 0.65,0 0.64,-0.71 -0.21,-1.42 1.07,-1.42 0.65,-1.89 0.86,-0.24 0.65,-0.95 0.86,0.24 0.43,-0.47 0.21,-0.95 -0.86,-0.47 -0.21,-0.47 0.22,-0.24 1.07,0.24 0.65,-0.95 0,-0.94 0.64,0 0,-0.24 0.86,-0.24 0.22,-0.47 1.29,-0.24 0,-0.24 1.29,0 0,0.24 1.72,0.24 0,0.24 1.93,0 0.43,-0.71 0.43,0 0.65,1.18 0,0.95 1.07,0.95 0.43,-0.71 1.29,-0.24 0.43,-0.47 0,-0.71 -0.43,-0.47 0,-1.18 -0.64,-0.24 -0.21,-0.47 0.43,-0.71 1.29,0 0.86,-1.42 0,-0.71 2.79,-0.23 0,-0.24 0.86,0 0.86,-0.47 0.43,-1.89 2.14,-0.24 0.64,-1.18 -0.22,-0.94 1.5,-0.24 0.43,-1.42 0.64,0 0,1.18 -0.77,0.4 z m 18.65,-7.58 0.43,0.47 0,0.95 -0.43,0.47 -1.5,0.24 -0.43,-0.71 0.43,-0.24 0.22,-0.95 1.28,-0.23 z m -28.51,-12.78 0.43,0.71 0.64,0 0,0.95 1.5,0 0,-0.23 0.86,0.24 -0.43,1.9 0.43,0.24 0.43,1.19 -1.5,1.42 -0.21,0.71 -1.71,0 0,0.24 -1.5,0.23 0,0.24 -1.72,0.47 0,0.24 -1.71,0.24 -0.21,0.47 -0.64,0.24 0,0.71 -2.15,-0.24 -0.21,-1.9 -0.43,-0.47 0.43,-0.94 -1.5,-0.24 -1.5,-1.89 0.43,-1.18 0,-1.18 1.07,0 0.86,-0.95 1.07,0.24 0,-0.71 1.5,0 0.22,0.24 -0.21,1.19 0.43,-0.47 3.22,-0.23 -0.21,-1.18 2.32,-0.3 z m -14.58,-1.42 0.65,1.42 1.07,0 0.43,1.89 1.28,2.13 0.22,2.13 -1.29,1.42 -4.07,-0.23 -0.43,0.48 -1.07,0 -0.21,-0.95 -2.57,0 -0.21,-1.66 -0.86,-0.95 0.22,-0.95 3.22,-2.37 1.93,-0.47 0.86,-0.95 0.22,-0.95 0.61,0 z m -142.48,-307.17 5.11,1.31 2.36,-0.22 1.96,-1.74 2.56,-1.52 0,0 1.38,2.39 0,0 0.79,4.14 2.36,4.35 5.11,5.44 6.82,5.08 -0.64,0.83 -0.21,0.95 0,0 1.5,0 0,0 1.29,1.42 -1.72,0.48 -0.43,2.14 -1.28,0.47 -0.64,1.19 1.29,4.99 -0.21,0.95 -0.64,0.71 0.64,1.19 0,0 2.36,0 0,0 0.64,2.37 0.43,0.48 0,0 -0.21,1.42 0,0 1.5,0.24 0,0.95 -0.64,0 -0.21,0.71 -2.79,0.24 -0.43,0.71 -0.43,0 -0.43,0.48 0,6.65 0.86,2.61 0,2.61 -0.43,0.95 -0.86,-0.24 0,0 0,0.71 0,0 1.07,2.37 0.64,4.75 1.72,-0.47 0,-0.26 1.07,0 0.21,0.71 0.22,-0.47 0.43,0 0.65,1.42 0.43,0 0.43,1.42 0.64,0 0.43,-0.47 0.86,-0.23 0.43,0.95 0.64,0 0.65,1.19 0,0.95 -1.72,4.04 -1.71,-0.95 0,0.24 -0.43,0 0.22,1.66 -0.43,0.95 -1.5,-0.47 0.21,0.95 0.86,0.24 -0.65,5.46 -0.43,1.19 0,1.42 -0.22,0 0,2.38 -0.21,0 0,1.9 0.86,0.47 0.22,1.9 -0.64,2.37 -2.15,0.24 -0.21,0.47 -1.07,0.48 0.64,1.42 -0.64,1.19 -0.65,4.98 -0.21,0 0.21,2.61 -0.43,1.19 -0.21,2.85 -0.86,2.85 0,2.61 -0.86,2.61 0,2.37 -0.86,1.42 0,0 0,3.32 0,0 -0.64,0.95 -0.21,1.19 0.86,0.48 0.86,0 0,0.24 1.5,0 0,0.47 -4.07,0.95 0.64,8.3 -1.5,1.66 0,0.48 0.43,0.47 0.21,1.42 1.72,0.24 0.43,0.95 0,0.48 -0.43,0 -0.43,0.71 -0.43,0 -0.64,0.71 0.86,0.95 0,0.71 -0.64,0.47 -0.21,0.95 1.07,0.48 0,0 0,1.42 0,0 -0.43,0.24 0,0.48 -1.5,0.48 -0.43,1.19 0,0 0,4.98 0,0 0.86,0.95 0.64,0.24 0.21,1.19 -1.37,1.34 0,0.95 -0.43,0.71 0.22,2.84 -1.29,2.85 0.22,1.9 -1.29,1.9 -1.29,4.74 -0.43,0.24 0.21,0.71 0.86,0.24 0.43,0.48 0.86,0 0.64,1.66 -0.21,4.27 -1.29,0.48 0.21,2.37 0.22,0 -0.43,7.35 -0.43,-0.71 0,-2.37 -0.43,-1.42 -1.5,0.48 0,0.95 -0.64,0.71 0.21,1.18 0.64,0.48 0,0.48 0.43,0 0.22,0.71 0.43,0 0.43,1.19 -0.65,0.47 -0.64,2.13 0,2.61 -0.64,1.42 0,3.55 -0.21,0 0,3.79 0.22,0 0.86,5.45 -1.29,4.27 -0.21,1.9 -0.86,1.19 1.5,2.13 0.21,1.42 1.07,2.13 0.21,1.42 0.43,0.24 0,0.71 -1.5,0.71 -3.86,4.27 -1.07,3.08 -1.29,1.42 0,0.48 -1.07,1.18 0,0.48 -0.64,0.47 -0.65,2.37 -0.43,0 -0.43,0.71 -0.21,-0.23 -1.5,0.24 -1.07,1.18 0,0.48 -0.86,0.24 0.22,0.47 -0.43,0.71 0.21,1.42 -1.07,-0.24 -0.64,0.48 0,0.71 -2.36,0.47 -0.64,0.95 -0.43,0 -0.64,0.95 -0.86,0.48 -0.86,2.37 -1.5,0.71 -0.43,0.95 -0.86,0.71 -0.43,1.19 -0.43,0 -0.43,0.71 -0.43,0 -0.43,0.71 -0.43,0 -0.86,0.95 -0.65,1.66 -0.86,0.95 -0.21,0.95 -0.43,0.24 -1.07,3.08 0,0 -0.21,2.84 0,0 0.64,1.9 0,1.18 -0.86,-0.47 -1.07,-2.37 -0.86,-0.95 -0.21,-0.95 -0.43,-0.23 -2.14,-6.4 -0.43,-0.24 -0.43,-1.18 -0.86,-0.95 -0.43,-1.42 -0.43,-0.24 -0.21,-0.95 -0.43,-0.24 -0.86,-1.89 -0.21,-1.9 -0.43,-0.71 -0.21,-1.9 -1.07,-3.55 -0.21,-2.84 -0.43,-1.18 0,-1.42 -0.21,0 0,0 0,-8.76 0,0 -0.43,-0.47 0,-0.71 -0.64,-0.95 0,-0.71 -0.43,-0.47 0,-0.71 -0.64,-0.95 0,-0.71 -0.43,-0.47 0,-0.71 -0.86,-1.9 -1.29,-1.66 0,-0.48 -0.43,-0.23 0,-0.47 -0.64,-0.47 -0.86,-1.9 -1.29,-1.66 0,-0.47 -0.64,-0.47 -0.43,-1.18 -0.65,-0.47 0,-0.48 -0.64,-0.47 -0.43,-1.19 -0.64,-0.47 -0.43,-1.18 -1.29,-1.42 -1.07,-2.37 -0.43,-0.23 -0.86,-2.14 -0.86,-0.95 -1.5,-3.32 -0.86,-0.95 -0.21,-0.95 -0.43,-0.23 -0.22,-0.95 -0.86,-0.95 -0.21,-0.95 -0.43,-0.23 -0.21,-0.95 -0.43,-0.24 0,-0.47 -0.86,-1.18 0,-3.08 -0.86,-2.37 -2.14,-2.37 -0.43,-1.42 -0.86,-0.47 -0.21,0.71 0.86,0.71 0,0.48 -0.43,0.24 -0.21,-0.71 -0.61,-0.03 -0.03,0.74 2.79,5.93 0,0 0,0.95 -0.43,0 0,0 -0.86,-0.95 0,-0.47 -0.65,-0.47 0,-0.47 -0.64,-0.48 0,-0.47 -0.64,-0.47 0,-0.47 -0.65,-0.48 0,-0.63 -7.5,-8.06 0,-0.47 -1.28,-1.18 0,-0.47 -1.5,-1.42 0,-0.47 -1.07,-1.19 -1.29,-0.47 -0.22,-0.95 -0.64,-0.71 -0.43,-0.47 -0.64,0 -1.29,-1.42 0,-0.47 -1.07,-0.95 0.21,-0.48 -0.21,-0.71 -1.29,-0.47 -0.64,-1.18 -0.64,0 -0.43,-0.71 -0.86,-0.23 -0.43,-0.48 -0.64,0 -0.64,-0.71 -1.32,-0.24 -0.61,-0.71 -0.43,0 -0.21,0.48 -1.71,-0.47 0,0 0,-0.71 0,0 -1.07,-0.24 -0.86,-1.19 -0.86,-0.23 -0.43,-0.52 -0.43,0.24 -0.22,-0.47 -0.42,0.23 -1.5,-1.42 -0.43,0 -0.22,-0.71 -1.07,-0.95 0,-0.47 -1.07,-0.95 0,-0.47 -1.07,-0.95 0,-0.47 -1.07,-1.18 -0.21,-1.66 -0.86,-0.95 -0.43,0 -0.43,-0.95 -0.64,-0.47 -2.36,-5.22 -0.43,-0.23 -1.07,-2.37 0.22,-2.37 -1.07,-0.95 -0.43,-2.13 0,-1.19 0.43,-0.47 0.22,-5.22 -0.64,-1.42 -0.86,-5.93 -1.07,-0.71 -0.22,-0.71 0.65,-0.47 0,0 0.64,0.95 0,0 1.07,-0.24 2.79,-8.06 3.65,-3.56 0.64,-1.66 0.43,0 1.72,-1.9 0.64,-1.9 0.43,0 0.21,-0.71 1.72,-1.9 0.43,-5.22 0.21,0 -0.64,-5.93 0.64,-1.9 -0.43,-0.48 -0.43,0 0,-0.71 0.64,0.24 0.21,-1.19 0.64,-0.24 -0.86,-0.47 0,-0.71 1.93,0 0.22,-1.19 1.07,-0.71 1.07,-4.75 0.43,-0.23 0.21,-0.95 0.86,-0.47 0.43,-0.95 0.43,-0.24 0,-0.47 0.43,-0.23 0,-0.48 0.43,-0.24 0.86,-2.37 0.43,-0.24 1.07,-2.37 -0.43,-0.95 0.43,-2.37 -1.5,-1.56 10.62,-3.91 9.17,-2.03 9.16,-1.16 4.45,-2.61 0,0 0,-6.67 -2.09,-7.83 -1.05,-11.02 -0.26,-11.02 -1.31,-8.7 0,0 -2.1,-4.35 -2.35,-2.32 0,0 -0.79,-2.03 0,0 2.88,-4.64 1.57,-1.74 0,0 0,-7.39 0,0 9.13,2.82 8.84,3.26 0,0 10.41,4.57 0,0 21.41,6.69 z" 
                fill="rgb(151, 144, 238)" 
                stroke="white" 
                stroke-width=".7px"
                title="Al Janūbīyah" 
                id="BH-14" 
            />
        </svg>