<svg xmlns="http://www.w3.org/2000/svg" viewBox="286.5445099999999 0.27262439999999866 68.19000000000028 92.00999959999999" width="68.19000000000028" height="92.00999959999999">
            <path 
                d="m 320.83451,8.0626244 0.86,0.78 3.43,0.95 4.29,0.2399996 0.86,1.19 1.08,0.24 0,1.19 -1.29,1.43 -1.5,-0.24 1.93,1.67 0,2.85 -1.71,3.8 0.86,5.71 -0.43,0.71 -1.5,0 0.64,1.19 1.5,-0.48 0.86,6.18 2.79,0 0.43,1.43 -1.5,1.43 -1.72,0 0.22,7.61 1.5,-0.24 1.07,0.71 0,0.95 -1.5,0.24 -1.07,-0.71 -0.43,5.23 -0.64,0 -1.07,-1.43 -1.93,0.24 1.72,-1.66 0.43,-1.67 -1.29,0.48 -0.21,1.19 -0.86,0 0,-2.15 -1.29,-0.71 1.07,-2.14 -2.36,-0.24 -0.86,-1.9 0.43,-0.48 0.65,1.66 1.71,0 0.21,-7.13 -1.29,0 0.64,1.9 0,0.48 -0.64,0 0.43,2.85 -2.15,-0.48 0.43,-1.19 -0.86,-0.71 0,-0.47 0.64,0 -0.43,-0.95 -1.72,-0.47 -0.43,0.71 -0.86,0 0,-1.9 -4.07,0.24 -0.43,1.19 -2.36,0.95 0.43,1.43 3.22,-1.9 1.07,0 0,0.48 -3,2.85 -0.64,0 0.43,0.48 0,2.38 -0.21,0.48 -1.29,0 -0.64,-5.47 -1.93,0.24 -0.43,-0.47 0.43,-2.38 -1.93,0.48 -2.14,-5.94 0.43,-0.95 1.07,-0.24 0,-0.71 -1.07,0 -0.22,0.71 -0.86,-0.48 0,-0.71 -1.07,0 0.65,-1.43 -1.93,1.66 -0.22,3.09 -0.86,1.43 0,4.04 -1.07,1.9 -0.86,0 -0.64,1.43 -4.5,0.47 -0.42,-1.66 -2.57,-1.19 -1.29,-2.85 -0.86,0 -1.29,-0.95 0,-1.9 0.64,-0.95 -1.08,-10.02 0.43,-1.19 -1.07,-1.9 0.64,-0.48 1.29,-3.33 -1.07,0 -0.21,-0.71 0,-4.2799996 -1.93,-0.24 0.64,-1.43 2.15,0 0.64,1.19 2.79,0 1.07,1.1899996 1.29,-1.1899996 -0.64,-1.43 1.07,-0.71 1.29,-2.14 1.07,0 0,0.48 -1.29,1.9 1.5,-0.24 1.07,-0.71 -0.86,-1.66 2.14,-1.19 2.15,0.48 0.43,-1.43 -0.65,-0.95 3.43,0 0,-0.96 2.14,-0.48 1.29,1.19 3.86,-0.24 0,1.43 3.43,3.81 1.93,0.48 0.86,0.95 1.49,0.17 z m 13.72,41.1999996 0.21,1.43 1.5,0 0.21,0.95 1.29,0 0.22,0.71 -1.07,0.71 0.22,0.48 14.36,0.48 0,8.56 -4.5,0.48 -0.21,9.27 2.36,0 4.08,9.03 1.29,0.71 0.22,2.62 -1.29,0 -1.07,-3.09 -0.64,-0.24 0.21,0.71 -6.64,2.85 -0.64,0.71 -0.43,2.14 1.5,0.71 0.43,1.9 1.29,0.47 0.22,1.43 -7.72,0 -0.43,-0.48 0.21,-1.66 -0.64,-0.71 -2.14,0 0.43,-1.19 -1.5,-1.42 -0.64,-2.37 -0.64,-0.48 0.21,-2.14 -0.64,-0.71 0.65,0 0,-0.47 -1.72,-6.89 -2.14,-2.14 -1.29,-0.24 -0.21,-3.33 -1.5,-1.43 -0.64,-2.61 -1.93,-1.66 0.21,-2.38 1.72,-0.24 1.29,0.95 0,-2.85 -1.72,-0.24 -0.43,-0.95 0.22,-1.9 3.21,0.48 0.86,-2.38 1.07,-0.71 -0.43,-2.14 1.07,0 0,-0.71 2.09,0 z" 
                fill="rgb(151, 144, 238)" 
                stroke="white" 
                stroke-width=".7px"
                title="Al Muḩarraq" 
                id="BH-15" 
            />
        </svg>