<svg xmlns="http://www.w3.org/2000/svg" viewBox="216.95451000000006 81.34262399999993 128.48000000000016 84.68999600000005" width="128.48000000000016" height="84.68999600000005">
            <path 
                d="m 321.26451,118.17262 0.64,2.85 1.07,0.24 1.71,2.85 0,1.19 -2.14,0.71 -1.07,1.19 -3,1.43 -1.5,-0.24 -1.07,-2.61 -1.93,0.48 -0.22,0.71 -1.28,0.24 -0.86,0.95 -1.29,0 0,-0.47 -1.71,0.24 0.86,2.85 -0.21,1.66 1.5,0.71 1.29,1.43 0,0.95 -1.5,0.24 0.21,2.38 -0.86,0.48 0,0.71 0.43,-0.48 1.29,0.24 0.22,0.95 -0.43,0.24 1.5,0 2.15,4.99 -0.43,0.47 1.93,3.56 -0.86,1.19 -1.93,-0.23 0.22,1.9 1.29,-0.24 -0.21,2.14 -1.07,0 0.22,0.47 -2.14,-1.19 0,-0.71 0.43,0 -0.43,-1.19 -1.93,0.24 -0.43,-0.95 0.43,-1.66 -1.07,-0.24 -0.65,-3.56 -4.5,-9.74 -0.65,0 -0.86,-1.66 -1.29,0.71 0.65,-1.43 -2.14,-5.7 -1.07,-1.19 -1.07,0.24 -0.86,0.95 0.86,0.71 2.57,5.46 0.43,3.09 1.71,3.56 1.72,3.32 3.22,2.85 0.86,1.9 -0.43,1.42 0.64,0.24 0.21,1.43 0.43,0 -0.22,1.19 -1.71,0.24 -0.22,0.95 -0.21,-0.48 -1.5,0.48 -0.21,1.19 -3.21,2.61 -0.43,1.42 1.5,0 -0.43,1.19 -2.14,0.48 0,2.14 1.05,2.42 0,0 0,0 0,0 -5.72,-4.29 -5.11,-5.44 -2.35,-4.35 -0.79,-4.13 0,0 -1.37,-2.39 0,0 -4.52,3.26 -2.35,0.22 -26.52,-8.05 0,0 -10.41,-4.57 0,0 -17.97,-6.08 0,0 -1.83,-7.12 -2.88,-6.09 -1.57,-6.38 -0.79,-8.71 0,-7.259996 1.83,-3.19 2.88,-1.16 4.19,-0.58 10.74,-5.22 15.98,-1.45 5.27,-0.95 0.26,0.58 1.25,0.27 0,0 0,1.11 -1.07,0.24 -0.64,-1.66 -0.86,0 0,0.47 0.64,0 -0.42,1.9 1.29,0.48 -0.86,0.95 0.22,0.71 2.57,0.71 -1.71,1.9 0.86,0.95 0.22,1.67 1.28,0.24 -0.21,2.61 2.14,1.9 1.29,0 0.86,2.14 1.29,1.19 1.5,0 -0.21,0.949996 1.07,2.38 1.07,0 -0.21,1.43 1.07,-0.48 0.43,1.9 3.43,0.48 0.86,1.9 2.14,1.67 1.29,0 0,0.95 1.29,0.24 1.93,2.61 -0.65,0.48 1.5,2.61 0,1.19 1.29,0 0.22,0.95 0.82,0.24 0.06,0.47 -0.67,0 0.21,1.19 5.15,-0.24 3,-0.95 0.21,0.48 1.93,0.24 -0.22,0.71 1.29,0.71 0.43,1.19 1.72,-0.48 0.64,1.66 2.57,0 0,-0.47 -2.14,-0.71 -1.07,-3.09 -4.5,-2.14 -1.07,-2.14 -3,-0.95 0.64,-4.28 -1.5,-0.24 -0.86,-4.51 -1.72,-2.14 0,-0.48 1.29,-0.24 0.86,-1.42 -0.64,-1.659996 -1.5,0.709996 -1.29,-1.899996 0.86,-0.71 0.65,-1.9 0.86,0 0.65,-1.9 1.28,-0.95 1.08,0 0.43,-1.66 1.72,-0.95 1.71,-2.61 1.72,-0.24 1.07,-0.95 2.79,0.71 5.79,0 -0.22,2.14 0.86,0 0.22,0.95 -1.72,3.09 -1.5,0.95 -0.43,0.95 1.93,0.24 -0.21,1.19 0.64,0 -0.21,1.19 0.65,0 0.21,1.9 2.36,2.379996 0.22,4.28 -0.64,0.24 0,-1.19 -1.07,0 0.64,1.43 -0.64,1.43 0.64,-0.24 0,0.48 -1.07,1.19 -1.29,-0.24 -0.21,0.48 1.5,4.75 0.86,7.84 1.5,0.47 0.21,1.19 3,-0.48 0.64,2.85 3.22,-1.43 -0.43,-1.19 4.72,-2.37 -0.43,-0.95 0.43,-4.04 8.58,-4.75 5.15,-2.14 1.72,-1.66 1.07,0 0.64,-1.19 -0.43,-2.14 0.65,0 2.36,2.85 0.21,1.43 -1.28,0 -1.29,-1.19 -2.15,3.33 -2.14,0.71 1.29,1.9 0.65,0.24 0.21,-0.48 2.15,-0.47 1.07,-1.9 1.93,0 0.86,-1.42 0.65,0 1.71,2.14 -0.21,0.95 -1.5,-0.48 0.21,0.71 2.14,0 1.29,1.42 0,0.71 -1.07,-0.24 -0.43,-0.71 -1.5,0 -2.57,0.24 -2.14,1.19 -4.5,-0.24 -1.07,0.71 -4.93,-0.95 -5.96,2.76 z m -20.18,47.07 0,0 1.1,0.79 0,0 0.21,-1.07 -1.31,0.28 z" 
                fill="rgb(151, 144, 238)" 
                stroke="white" 
                stroke-width=".7px"
                title="Al Wusţá" 
                id="BH-16" 
            />
        </svg>