<svg xmlns="http://www.w3.org/2000/svg" viewBox="219.79451000000026 26.91262400000002 84.66 69.63999999999997" width="84.66" height="69.63999999999997">
            <path 
                d="m 220.43451,46.412624 0.5,-0.95 5.58,0.24 -0.43,2.38 -2.14,0.71 2.79,0.24 -0.21,-0.95 1.07,-1.43 -0.21,-0.95 1.93,-0.24 0.86,0.95 1.93,0.24 0.43,0 -0.21,-0.71 0.43,-0.24 1.07,0 0.64,0.95 -0.43,0.95 0.43,0.48 0.86,-0.48 -0.21,-1.19 0.43,0 0.43,0.95 -0.21,0.95 -0.43,0 0.22,1.19 1.29,1.19 0,0.48 -1.5,-0.48 0,0.95 1.72,0.48 0.64,-0.48 1.5,0.24 0.43,2.38 1.93,0.24 0,-0.71 -0.86,-0.47 1.07,-0.24 1.06,0.47 -0.41,-0.71 1.29,-0.47 -0.43,-0.48 0.43,-0.71 1.29,0.24 0.86,-0.71 0.21,0.71 2.57,0 0.21,1.43 1.07,0.24 0,1.19 -0.86,0 0,1.16 1.28,-0.71 0.22,-0.95 0.86,-0.24 0.43,0 0,0.71 -1.29,0.47 0.64,0 0.22,0.71 0.86,0 -0.21,-0.48 1.29,0.24 1.07,-0.71 -0.64,-0.71 1.28,-1.43 -0.64,-2.14 0.86,0.48 0,-0.48 0.86,0.24 1.71,-0.71 1.93,-1.66 -0.64,-1.19 1.71,0.24 0.22,-0.71 1.5,0.24 0.43,-0.95 0.64,0 -0.21,-0.95 -0.86,-0.24 1.07,-1.43 0.86,0 0.86,2.14 0.86,0.24 0.86,-1.9 1.07,-1.19 0.86,0 0.43,-1.19 2.14,0 0.43,-0.95 3.22,-0.71 1.93,-1.43 3,-4.52 1.72,-6.66 0.86,0 0.22,0.71 -1.72,4.52 -0.21,2.62 -1.29,2.38 0.43,1.67 4.08,1.66 1.5,0 0.43,0.95 -0.43,0.95 0.86,0 -0.21,1.66 0.64,0.24 -1.07,2.14 0.86,2.85 -0.43,1.66 0.86,1.43 -1.5,0.95 0,1.66 -1.28,2.14 0,1.19 0.65,0.95 0.86,0 1.72,-1.19 2.57,0.24 0.21,1.43 0.43,-0.24 -0.21,-1.66 2.79,0.71 0,1.43 0.86,0.48 0.65,2.38 0.64,0 0.21,-1.66 0.43,0 -0.21,-1.9 2.36,-0.24 -0.22,1.43 -0.64,0 -0.21,0.71 0.21,0.95 1.07,0.24 -0.43,0.95 1.29,0 0.64,-1.19 3.43,0.71 0.86,6.18 -2.14,2.61 -2.36,1.43 -1.5,2.14 3.43,2.14 1.71,1.9 -5.14,-2.38 -1.07,0.24 -0.86,-0.47 0,-0.95 -0.64,0 -0.21,0.95 -1.07,0.71 -3,-1.43 -0.43,1.9 2.15,0.24 -0.21,1.43 -1.71,0.24 -1.72,-1.19 -1.29,0.95 -2.14,-0.71 0.21,0.71 -0.86,0.71 -3.43,1.43 -0.21,-0.71 -0.86,0.24 -0.64,-0.95 -1.29,0.24 -0.43,-0.47 -0.21,-2.38 -2.57,0 0.86,-1.9 0,-0.48 -1.07,0.24 0.64,-1.19 -3.86,-0.47 -1.29,-1.9 -0.65,0 -0.86,1.43 -1.29,-0.71 -0.86,1.19 -1.29,0 -0.21,0.95 -2.36,0.24 0.22,1.19 -1.07,0 0,0.48 -3.43,0 0,-1.19 -2.36,0 -0.21,2.38 2.36,0 0,0.71 -2.35,0.48 0,0 -4.29,-12.52 -4.39,-6.7 -3.17,-1.68 -2.72,2.01 -4.99,1.84 -5.44,1.17 -7.26,-1.17 -4.23,-1.67 -0.6,-2.52 0.91,-1.84 2.12,-2.01 0.3,-2.35 -2.69,-5.17 z m 54.52,37.08 1.08,0.24 -1.07,2.61 0.65,0.24 1.07,2.85 0.86,0.47 2.14,-0.24 0.43,2.14 -1.07,1.19 0.64,3.09 -1.28,-1.19 -3,-0.95 -2.57,2.61 -2.78,0 0,-4.51 1.5,-0.24 -1.29,-2.14 0,-0.95 1.93,-3.09 1.5,-0.48 0,-1.42 1.26,-0.23 z m -37.52,-37.56 0.43,0.71 2.79,0.24 0.43,2.85 1.07,0 -0.43,-0.95 1.5,0.48 0.22,2.14 -1.29,0.48 -0.86,-0.48 0,0.71 -1.07,0 0,-1.43 -1.5,-1.43 -0.64,0.24 0,0.71 -0.64,0 -0.21,-0.95 -1.07,0 0.43,-0.71 -0.43,-0.95 1.08,-0.71 -0.43,-0.95 0.62,0 z m 1.5,-9.03 0.86,2.14 0.86,-0.47 -0.43,-0.95 1.29,0 -0.21,1.9 -1.29,1.43 -3.64,0.71 0.21,-1.43 -0.86,-0.71 0.64,-0.48 0,-1.19 2.57,-0.95 z m 11.58,11.65 0.21,2.62 -1.5,0.24 -0.43,-1.9 0.86,-0.95 0.86,0 z" 
                fill="rgb(151, 144, 238)" 
                stroke="white" 
                stroke-width=".7px"
                title="Al ‘Āşimah" 
                id="BH-13" 
            />
        </svg>