<svg xmlns="http://www.w3.org/2000/svg" viewBox="763.7391699999997 322.42285 95.95000000000005 85.01999999999992" width="95.95000000000005" height="85.01999999999992">
            <path 
                d="m 772.87917,340.29285 2.13,0.73 0.62,0.83 0.71,0 0.88,1.28 0.09,1.28 -0.62,0.37 -0.8,-0.73 -1.15,-0.18 -0.18,-1.19 -1.59,-1.01 -0.09,-1.38 z m 47.44,-17.04 0,1.1 0.53,-0.18 0.53,-1.19 0.44,0.37 -0.35,0.92 0.53,-0.18 0.02,-0.41 0.59,0.23 -0.71,1.19 0.8,0.92 2.83,-0.18 0.35,-0.37 0.53,0.64 2.57,0.64 4.25,2.38 2.48,0.27 0.8,-0.37 0.71,0.82 2.21,-0.18 0.62,1.37 1.06,0.37 1.42,-0.73 1.5,0.46 0.53,-0.37 0.27,0.37 -0.62,0.55 0.53,0.27 0.44,-0.37 0,0.83 0.71,0 0.27,-0.73 1.15,0.37 0,0.83 -0.62,0 -1.24,1.1 0.44,1.1 1.06,0.18 -0.62,2.11 -0.44,0.27 1.06,2.75 6.02,6.05 2.74,3.39 0.62,0.18 0.18,0.64 0.8,-0.27 -0.53,1.1 0.8,2.47 -0.27,1.1 1.5,1.65 -1.95,-0.64 -0.97,1.28 -0.27,1.74 0.97,2.02 0.09,1.65 1.24,1.01 -0.27,2.29 0.71,0.46 0,1.74 0.8,1.47 -0.18,0.46 0.71,0.09 0,0.64 -0.97,-0.18 -0.27,0.37 0,1.46 -1.15,0.82 -0.35,1.92 -1.33,1.28 -0.18,1.19 -0.62,0.27 -0.53,4.3 -2.13,2.75 -0.88,0 -0.89,0.64 -0.35,-0.73 -0.62,-0.18 -1.95,2.11 -2.74,0.73 -1.5,1.74 0.27,0.55 -0.71,0.82 -0.8,-0.18 -1.24,1.01 -1.24,-0.46 -0.71,0.82 -1.95,0.55 -5.4,3.39 -0.71,0 -0.53,-0.64 -0.71,0.92 0.35,0.55 -0.53,0.18 -0.88,2.01 -2.83,0.92 -2.39,0.18 -0.71,0.55 0,0.64 -3.01,1.92 -2.12,2.56 -0.09,0.92 -1.42,0 -0.97,0.55 -1.59,-1.1 -0.97,0.37 -2.3,-0.46 -10.8,0.09 -7.53,1.37 -1.24,-1.28 -0.8,-0.18 -0.35,-1.65 -1.33,-1.19 -0.18,-1.92 -2.3,-1.83 -2.66,-1.1 -0.44,0.82 -0.44,0 -5.13,-1.28 -7.79,-3.57 -2.13,-2.75 0.44,-2.56 -1.15,-1.1 -0.97,1.1 0.09,-1.65 -1.59,-2.29 1.59,-2.75 0,-1.46 0.53,-0.92 -0.44,-2.11 0.27,-1.28 1.33,-1.1 0.27,-0.82 -1.33,-3.3 3.72,-4.21 1.5,-0.92 1.24,0.37 1.5,-0.37 7.26,-6.32 0.27,-1.1 1.24,-0.92 0.09,-1.92 -0.8,-1.83 0.8,-1.37 0.27,-1.65 1.77,-0.92 -0.35,-0.85 0.27,-0.82 -1.59,0.64 0,-0.82 -0.53,-0.18 -0.18,-1.56 -0.62,-0.46 -0.44,-1.74 -1.06,-0.55 -0.44,-2.38 -1.77,-0.64 -0.09,-0.92 0.71,-0.27 -0.27,-0.82 0.71,-1.19 0,-0.37 -0.44,0.18 -0.44,-0.46 0.71,-0.64 0.89,0.46 -0.44,-2.56 0.62,-1.01 1.33,-0.73 0,-1.19 -2.92,-1.46 0.8,-2.02 -0.18,-1.56 -0.88,-0.37 0.35,-2.11 1.95,-1.19 1.77,0 -0.53,2.11 1.59,0.46 2.39,1.83 1.15,-0.27 0.44,0.46 -0.27,0.92 2.21,1.83 5.4,1.74 5.49,0.37 2.39,-0.46 3.54,0.27 8.32,-1.74 2.04,-1.1 2.04,-2.2 1.06,0.18 0.53,-0.46 -0.18,-0.64 -1.24,0.27 -0.71,-1.28 0.35,-0.37 0.97,0.18 -0.44,-0.55 0.18,-1.19 1.5,-0.46 -0.19,0.83 z" 
                fill="rgb(151, 144, 238)" 
                stroke="white" 
                stroke-width=".7px"
                title="Boa Vista" 
                id="CV-BV" 
            />
        </svg>