<svg xmlns="http://www.w3.org/2000/svg" viewBox="678.5191700000001 615.7928499999994 46.549999999999955 73.41000000000065" width="46.549999999999955" height="73.41000000000065">
            <path 
                d="m 695.59917,615.79285 0.71,0.64 -0.18,1.19 0.71,0.46 -0.53,1.09 0.89,2.55 1.68,0.46 1.77,-0.18 0.62,-1.55 -0.35,-1.1 1.06,-1.46 0.35,1.46 -0.27,3.01 1.42,1.28 0.53,0 0.27,0.73 2.57,0.36 3.28,1.46 2.21,-1 1.06,-1.64 0.71,0.91 0.88,-0.91 1.33,0.55 0.18,1.37 0.89,0.09 -0.27,0.55 1.06,0.55 0.88,2.74 0.53,0.27 -0.35,0.46 0.35,1.28 -0.18,0.82 0.71,2.28 0.97,1.18 0,0.73 -0.27,1.28 -1.15,0.18 -0.27,1.28 -0.97,1 1.24,0.18 0.27,1.73 0.62,0.18 0.27,1.55 0.8,0.73 0.27,3.1 0.8,1.64 -0.18,0.91 0.71,1.55 -0.62,1.19 0.53,0.64 -0.35,1.19 0.88,1.91 -0.62,0.37 0.97,4.56 0.53,0.09 -0.18,1 0.35,0.18 -0.18,0.64 -1.06,0.73 0,0.91 1.59,3.46 -1.06,0.73 0.97,3.1 -2.21,0.82 -0.18,0.27 -1.15,2.46 -0.71,0.91 -0.35,0.55 -1.33,1.19 -0.71,0 0,1.09 -0.8,0.82 -1.06,-0.09 -1.24,1.55 -0.62,0.09 -0.44,-0.46 -0.88,0.91 -1.5,0.09 -0.62,1.09 -1.24,0.64 0,0.73 -1.06,0.55 -0.97,-0.27 -0.62,0.46 -0.27,0 -0.44,0 -0.97,2.55 -2.75,0.82 -2.57,-0.27 -2.39,-1 -2.39,-0.09 -1.77,0.46 -1.77,-1.09 -0.97,-0.09 0,-0.46 -1.5,-0.09 -1.33,-0.73 -0.97,0.18 -0.53,-1.55 -1.77,-1.73 0,-1 -1.42,-1.19 -0.97,0.09 0.09,-0.82 1.59,0.09 -0.09,-1.46 -1.95,-2.37 -0.44,0.09 -1.77,-2.1 -0.8,-0.27 0.44,2.46 -0.88,-2.37 0.44,-5.01 -0.62,-1.73 0.18,-1.19 0.8,-0.55 0.35,-1.09 0,-3.74 0.71,-2.73 -0.27,-2.28 0.53,-0.64 1.15,0.09 2.04,-0.82 -0.27,-5.2 0.27,-1 0.18,-1.91 -1.5,-3.19 -3.36,-0.27 0,-2.83 0.18,-0.37 1.06,0.18 1.06,-1.82 -0.27,-0.55 -1.06,-0.27 0.44,-1.09 2.3,0.64 1.42,-0.82 4.43,-4.29 0.53,-2.74 0.35,-0.64 0.8,-1.09 -1.95,-2.46 1.68,-0.37 0.71,0.73 0.71,-0.18 0.44,0.73 1.06,0 1.42,-1.09 0.09,-0.73 -1.86,-2.83 0.09,-0.64 1.24,-0.09 0.8,-1.19 0.53,0 -0.88,-1.1 0.35,-0.46 0.44,0.37 0.16,-1.84 z" 
                fill="rgb(151, 144, 238)" 
                stroke="white" 
                stroke-width=".7px"
                title="Maio" 
                id="CV-MA" 
            />
        </svg>