<svg xmlns="http://www.w3.org/2000/svg" viewBox="306.40917 710.14285 36.60000000000002 32.730000000000246" width="36.60000000000002" height="32.730000000000246">
            <path 
                d="m 306.40917,717.34285 1.9,-0.82 -0.53,-1.55 0.8,0.36 0.88,-0.82 1.33,-0.36 2.04,-1.91 0.88,-0.1 0.44,-0.82 1.24,-0.27 1.07,-0.91 0.71,0.82 1.32,0.46 3.81,-0.28 2.48,0.73 0.17,0.46 2.31,0.09 1.85,1.09 0.18,1.64 0.53,0.46 1.33,0 0.44,0.45 1.33,-0.18 1.24,0.55 1.06,1.64 0.62,2.18 1.95,0.82 0.71,0.91 0.97,4.19 -0.62,1.64 1.51,0.55 0.62,0.91 0.62,5.01 1.24,1.27 0.17,0.82 -0.62,2.46 0.27,1.37 -0.8,0.54 0,1.02 0,0 -7.87,0.13 -5.44,0.98 -2.84,-0.49 0,0 -3.31,-3.16 0,0 -2.84,-3.9 -0.24,-4.38 -4.02,-1.94 z" 
                fill="rgb(151, 144, 238)" 
                stroke="white" 
                stroke-width=".7px"
                title="Mosteiros" 
                id="CV-MO" 
            />
        </svg>