<svg xmlns="http://www.w3.org/2000/svg" viewBox="94.33917 11.132852 33.21000000000001 33.95999999999998" width="33.21000000000001" height="33.95999999999998">
            <path 
                d="m 109.13917,11.132852 1.5,0.92 -0.35,0.83 0.53,1.29 -0.18,1.28 0.71,0.56 -1.24,1.47 1.33,1.2 0,1.65 0.53,0.83 2.04,1.48 0.17,1.65 0.98,0.74 0.71,1.47 0.97,0.83 1.24,0 0.18,0.46 -0.45,0.46 0.8,0.46 1.77,-1.1 0,1.56 0.62,0 0.62,0.56 1.5,0 0.89,1.1 0.97,-1.1 1.33,0.82 -0.09,1.2 0.62,1.84 -0.35,2.76 1.06,0.37 -0.71,0.74 0.53,1.65 -1.85,1.94 -0.09,1.01 -1.51,0.83 -0.26,1.2 -0.45,0 -0.53,1 0,0 -13.68,-11.09 -3.08,-0.95 -4.9,0 -3.08,0.57 -1.63,-0.75 -0.36,-1.32 -1.61,-1.17 0,0 1.06,-0.53 2.9,-4.72 5.26,-6.22 3.81,-2.27 1.09,-4.53 z" 
                fill="rgb(151, 144, 238)" 
                stroke="white" 
                stroke-width=".7px"
                title="Paul" 
                id="CV-PA" 
            />
        </svg>