<svg xmlns="http://www.w3.org/2000/svg" viewBox="0.25916999999997303 24.572851999999997 122.42000000000003 74.89999999999993" width="122.42000000000003" height="74.89999999999993">
            <path 
                d="m 7.77917,39.582852 -0.18,-1.94 1.6,-0.27 0.79,-1.57 1.77,0 1.69,-1.1 1.86,-0.1 1.85,-1.28 1.07,-0.28 0.79,0.09 1.42,-1.56 0.89,0.46 0.53,-0.65 2.56,1.11 2.66,-0.65 0.09,-0.46 2.12,-1.38 0.44,-1.01 0.89,0.18 1.68,-0.55 0.44,-1.2 2.57,0.65 1.68,-0.09 2.3,-1.11 0.8,-1.29 0.97,0 1.24,-1.01 0,0 8.12,8.86 2.36,1.51 5.08,1.32 0.72,1.32 -0.18,3.21 0.73,0.94 1.45,0 7.62,-4.34 2.17,-0.38 9.43,0.57 3.63,-0.75 10.91,-6.45 0,0 1.61,1.17 0.36,1.32 1.63,0.75 3.08,-0.57 4.9,0 3.08,0.95 13.68,11.09 0,0 -0.09,0.56 -1.15,0.37 -0.62,1.29 -0.79,0.55 0,2.3 -3.63,1.47 -1.33,1.75 -3.1,1.47 -0.8,1.11 -3.63,2.2 -1.77,0.37 -1.06,0.83 -0.79,0.37 -0.8,-0.09 -1.33,2.11 -2.39,0.83 -2.21,0 -0.71,0.09 -2.21,-0.36 -2.31,0.36 -1.68,1.11 -1.59,0 -1.15,1.56 -1.15,0.64 -0.62,1.29 -1.06,0.56 -0.27,0.82 -2.83,1.48 -0.8,1.28 -0.35,0.74 -2.84,2.57 -1.68,2.58 -0.71,-0.09 -0.7,1.29 -1.42,0.82 -0.18,0.74 0.71,0.28 -0.44,0.82 -5.4,1.48 -0.98,1.93 -0.79,0.64 -0.36,1.66 -0.97,0.46 -1.86,3.4 -2.65,2.21 -0.36,1.19 -1.68,0.19 0.18,0.73 -0.36,0.37 -0.62,-0.55 -2.21,0.27 -0.62,0.74 -2.57,0.55 -0.53,1.56 -2.12,0.83 -0.09,-0.83 -0.97,0.28 -1.24,-1.29 -2.04,-0.18 -2.66,0.64 -1.32,-0.83 -0.71,0.19 -0.36,-0.74 -0.7,0.1 -0.62,-1.2 -0.89,0.18 -0.62,-0.46 -1.06,0 -0.35,0.83 -1.33,-0.09 -0.36,0.92 -0.79,0.09 0.17,-1.84 -1.06,-0.64 -0.35,0.46 -1.24,-0.19 -1.77,0.46 -0.53,1.38 -3.55,0.65 -1.23,1.38 -3.19,1.38 -2.57,-1.94 -1.06,-1.37 -0.09,-1.48 -0.44,-0.55 -1.77,-0.83 0.62,-1.37 -1.15,-0.92 -0.36,-0.92 0.36,-2.49 0.97,-1.38 0.8,-0.64 0.71,-0.46 0.44,-1.38 -0.8,-1.38 0,-1.56 -1.68,-2.03 -0.8,-1.1 -0.53,-1.47 0.62,-1.48 0.44,-3.4 -1.06,-5.79 -1.33,-2.4 -1.68,-1.29 -0.62,0.47 -1.94,-0.74 0.17,-0.46 -0.35,-0.19 -3.1,-0.55 -1.42,-1.84 -0.44,-1.65 -1.33,-1.11 -0.53,-1.84 0.09,-1.56 0.62,-0.37 -0.97,-1.29 0.08,-0.74 1.33,-0.82 -0.53,-1.11 1.24,-1.1 0.62,-2.21 2.92,-1.84 -0.44,-2.21 2.04,-0.46 z" 
                fill="rgb(151, 144, 238)" 
                stroke="white" 
                stroke-width=".7px"
                title="Porto Novo" 
                id="CV-PN" 
            />
        </svg>