<svg xmlns="http://www.w3.org/2000/svg" viewBox="565.5091700000005 729.6928499999998 42.709999999999354 30.569999999999823" width="42.709999999999354" height="30.569999999999823">
            <path 
                d="m 591.22917,756.95285 0.44,0.73 -0.18,0.64 -0.35,0 -0.27,-0.91 0.36,-0.46 z m 14.16,-20.85 1.15,2.55 0.53,0.36 1.06,-0.27 0.09,0.91 -0.62,0.18 0.18,0.73 -0.88,1 -2.21,1.37 -0.53,0 -0.35,-0.91 -0.71,-0.09 0.89,1.37 1.33,0 0.18,1 -1.06,1.37 0.09,0.55 -0.88,0.55 -0.44,-0.18 -0.44,0.64 -0.35,0.73 0.44,1 -0.27,1.28 -2.3,2.55 0,2.28 0.44,0.64 -1.06,2.55 -1.06,-0.09 -0.18,-1.64 -2.04,0.27 -0.53,0.64 -0.8,-0.82 -1.42,1 0.18,-0.73 -0.8,-0.55 -0.8,-1.82 -1.68,0.73 0,0.64 -0.62,0.27 0.44,1.91 -0.53,1.37 0.44,0.82 -0.97,-0.64 -0.09,-0.55 -1.06,-0.27 -0.53,0.55 -0.88,-0.55 -1.15,0.55 -1.68,-0.36 -1.15,0.46 -1.33,-0.55 -0.71,0.18 -1.42,-0.82 -1.16,0.82 0,0 -1.32,-2.78 -1.38,-1.24 -3.44,-5.66 -3.27,-3.89 -0.86,-3.01 -1.38,-2.12 -0.17,-3.01 -0.81,-2.22 0,0 1.14,0 0,0 1.91,-1.31 5.94,-2.18 6.36,-0.44 3.6,-1.31 4.03,-0.22 7.85,3.05 6.15,1.09 3.09,2.19 0,0 -0.19,0.08 z" 
                fill="rgb(151, 144, 238)" 
                stroke="white" 
                stroke-width=".7px"
                title="Praia" 
                id="CV-PR" 
            />
        </svg>