<svg xmlns="http://www.w3.org/2000/svg" viewBox="525.98917 707.6128500000001 52.129999999999995 51.429999999999836" width="52.129999999999995" height="51.429999999999836">
            <path 
                d="m 565.49917,735.10285 0.81,2.23 0.18,3.01 1.37,2.12 0.86,3.01 3.27,3.89 3.44,5.66 1.38,1.24 1.31,2.78 0,0 -2.21,0 -0.88,-1.82 -0.89,0.46 -0.97,-0.19 -0.27,-0.63 -0.88,0.63 -0.62,-0.54 -0.09,0.73 -0.88,0.36 -0.27,-1 -1.77,-0.36 -0.62,0.45 -1.24,0 -0.26,0.73 -1.69,0 -0.17,-1 -2.66,-0.82 -1.24,0.27 -1.5,-1.37 -0.89,0.73 -1.68,-0.27 -0.44,0.45 -0.98,0 -0.35,1.01 -1.06,-0.09 -0.98,-1.37 0.45,-0.55 -0.27,-1.09 -3.54,-0.54 -1.42,-0.64 -2.92,-1.73 -2.65,-2.92 -0.8,-0.09 -0.89,0.55 -0.08,-0.64 -0.45,-0.09 -0.71,0.46 -0.26,-0.64 -0.8,0 -0.71,-1.09 -0.79,-0.18 -2.48,-2.83 -1.95,-0.45 0.09,-0.55 -0.71,-0.09 -0.18,-1.37 -0.44,0 -0.35,-0.72 -0.98,-0.1 -1.32,-1.27 -0.62,-2.19 -1.86,-1.54 0,-1.19 0,0 4.19,-5.57 1.9,-0.43 0.64,-0.88 -1.7,-2.18 0.21,-2.4 1.7,-3.05 -0.21,-2.18 1.27,-1.75 1.27,-0.66 5.52,0 1.06,-5.89 1.91,-1.31 0,0 1.69,0 0,0 1.06,0.66 1.67,0.23 0,0 3.42,5.44 1.47,0.5 0,0 0.44,1.47 1.91,1.74 0.85,2.4 -0.43,5.46 -1.69,2.61 0.63,1.97 6.79,4.14 2.54,0.87 0,0 z" 
                fill="rgb(151, 144, 238)" 
                stroke="white" 
                stroke-width=".7px"
                title="Ribeira Grande de Santiago" 
                id="CV-RS" 
            />
        </svg>