<svg xmlns="http://www.w3.org/2000/svg" viewBox="321.3491700000005 173.54285 110.64999999999958 67.12000000000009" width="110.64999999999958" height="67.12000000000009">
            <path 
                d="m 321.49917,176.75285 0,0.12 0,0 0,0 0,0 0,-0.12 z m 3.54,-3.21 0.53,0.46 2.13,0.18 -0.09,1.38 0.53,0.83 1.42,-0.28 1.77,0.37 1.24,0.46 1.06,0.64 1.68,1.65 0.35,1.19 0.8,0.46 -0.09,0.92 1.42,0 0.89,1.47 0.44,1.93 1.33,0.64 1.24,-0.46 1.15,0.64 0.35,2.75 2.39,1.65 1.5,-0.55 2.3,-1.74 1.33,-0.73 3.72,1.29 0.18,-0.46 4.34,-0.37 1.42,-1.65 1.06,-0.28 -0.44,-1.01 2.48,0.92 2.13,-0.46 0.53,0.37 -0.09,0.55 3.19,2.02 1.42,0.09 0.35,-0.83 2.74,1.19 0.35,0.73 1.42,0.83 0.71,-0.18 1.06,0.46 0.53,-0.37 2.21,3.3 3.72,2.3 1.95,-0.09 1.95,1.01 2.57,-0.09 1.33,-2.02 1.5,-1.19 1.95,0.18 0.27,0.83 0.8,-0.09 2.21,1.28 3.81,0 0.97,-0.37 0.97,0.46 3.1,0.09 0.8,0.73 1.15,-0.27 1.77,0.55 0.8,-0.18 1.24,0.73 1.59,-0.18 0.62,0.83 1.06,0.55 0.97,0.09 1.33,0.92 1.15,-0.09 1.24,1.38 0.18,2.02 1.06,0.09 0.97,2.94 1.59,-0.55 1.24,0.46 1.06,-0.55 0.53,1.74 1.42,-0.37 0.71,0.64 0.62,1.28 0.8,0.09 0.18,0.73 0.8,0.55 -0.35,1.93 -2.12,2.75 0,1.38 -2.39,1.65 -1.86,-0.92 -1.51,-0.09 -1.24,0.64 -0.35,-1.56 -1.15,-0.82 -2.57,0.64 -1.15,-1.01 -0.71,0 -0.35,1.01 -1.15,0.64 -2.57,0.83 -3.36,0.09 -0.8,-0.28 -0.44,-1.01 -0.71,-0.37 -0.71,-0.18 -1.42,0 -0.71,1.38 -0.44,-0.46 -1.15,0.09 -0.71,-0.73 -0.89,0.18 -0.44,0.83 -1.33,-0.09 -0.27,-0.64 -1.33,0 -1.15,-0.64 0.62,-0.73 -1.77,-1.01 -1.33,-2.75 -0.88,-0.83 -1.24,0.64 -0.71,-0.18 -0.35,-0.73 -1.77,-0.92 -1.5,0 -2.3,-0.92 -0.35,-0.64 -1.06,-0.18 -0.62,-0.92 -2.39,-1.56 -0.62,-0.92 -2.57,0.18 -0.88,-0.09 -1.42,-0.27 -1.95,0.74 -0.35,-0.64 -0.8,-0.18 -1.77,0.73 -2.92,-1.47 -2.48,0.46 -1.86,-0.37 -2.12,0.55 -0.71,-0.64 -1.42,1.47 -1.59,0.73 -1.68,2.3 -3.72,0.28 -0.8,-0.37 -1.77,1.56 0.09,0.73 -2.04,2.85 -2.21,0.73 -0.71,1.1 0.09,1.1 -0.89,0.73 -0.18,2.3 0.35,1.38 -1.86,0.18 -0.62,0.83 -0.53,1.29 0.44,1.38 -0.71,0.55 -0.8,2.2 0.18,1.74 -1.24,1.93 -1.15,0.18 -0.53,0.92 0.35,1.84 -0.89,0.46 -0.8,2.75 0.18,0.83 0.97,0.46 -0.62,1.56 0.8,0.09 -0.97,0.46 -1.15,-0.37 -0.44,0.46 -1.15,0 0.26,1.47 -0.71,-0.27 -0.44,-1.24 0,0 0.73,-0.88 1.55,-7.13 0.86,-2.14 0,-3.21 2.58,-6.42 0.17,-10.52 -1.03,-2.85 -2.24,-1.96 -0.34,-4.46 -0.69,-1.78 -1.55,-1.78 -1.89,-1.78 -6.02,0 -2.41,-1.07 -1.03,-2.32 0,-1.61 0.52,-1.25 1.72,-1.61 0.34,-2.68 -2.41,-5.53 0,-1.12 0,0 0.96,-0.37 0.18,-0.92 2.38,-2.22 z" 
                fill="rgb(151, 144, 238)" 
                stroke="white" 
                stroke-width=".7px"
                title="Ribeira Brava" 
                id="CV-RB" 
            />
        </svg>