<svg xmlns="http://www.w3.org/2000/svg" viewBox="42.299169999999975 0.26285250000000016 66.84 41.46999950000001" width="66.84" height="41.46999950000001">
            <path 
                d="m 83.99917,3.3028525 1.06,-0.92 0.8,-2.12 1.24,0.09 0.53,0.37 0.71,2.49 1.32,0.27 4.34,3.13 4.96,2.03 2.57,0.55 3.01,0 0.53,-1.01 0.97,1.01 2.3,0.37 0.8,1.5699995 0,0 -0.68,0.98 -1.09,4.53 -3.81,2.27 -5.26,6.22 -2.9,4.72 -1.06,0.53 0,0 -10.91,6.45 -3.63,0.75 -9.43,-0.57 -2.17,0.38 -7.62,4.34 -1.45,0 -0.73,-0.94 0.18,-3.21 -0.72,-1.32 -5.08,-1.32 -2.36,-1.51 -8.12,-8.86 0,0 0.89,-0.74 -0.09,-3.03 3.19,-0.19 0.97,-1.01 0.18,-2.21 2.3,0.74 0.18,0.46 0.62,-0.28 0.53,-1.01 -0.71,-0.74 1.5,-1.11 0,-0.46 0.89,1.02 2.04,0.46 4.86,-1.2 1.24,-0.64 0.27,-1.66 1.15,-0.83 -0.44,-1.01 1.5,-0.56 0.8,-0.9199995 5.22,0 2.13,-1.01 0.62,-1.01 0.88,-0.46 1.33,-0.09 1.42,-1.02 5.31,-2.21 1.15,0.28 z" 
                fill="rgb(151, 144, 238)" 
                stroke="white" 
                stroke-width=".7px"
                title="Ribeira Grande" 
                id="CV-RG" 
            />
        </svg>