<svg xmlns="http://www.w3.org/2000/svg" viewBox="754.6891700000001 116.20284999999988 39.079999999999586 89.25000000000001" width="39.079999999999586" height="89.25000000000001">
            <path 
                d="m 778.71917,116.20285 2.3,1.56 0.53,2.85 0.88,-0.37 1.15,0.18 0.18,1.38 2.39,0.92 0.27,-0.46 0.71,0 1.06,0.83 -0.27,0.92 -0.44,0.09 0.44,1.1 -0.53,0.92 0.18,1.01 -0.44,0.64 -1.15,0.28 -0.27,2.57 -1.24,1.19 -0.44,1.1 0.62,1.01 1.86,0.92 0,1.29 0.97,2.57 1.33,1.19 0,1.56 0.97,0.28 1.42,1.65 0.41,-0.05 0.21,-0.5 0.18,0.46 -1.5,1.38 -0.44,2.02 0.27,0.55 -0.53,0.55 -1.24,-0.18 -0.35,-0.46 -1.51,0 -0.35,1.93 -0.8,1.1 -0.8,0.28 0.09,0.37 1.06,-0.18 0.27,0.37 -0.27,0.64 0.53,0.18 0.44,1.56 -0.44,0.83 0.35,0.37 -0.27,1.1 -0.53,0 -0.88,1.1 0.71,0.09 0.53,0.64 -0.18,1.19 0.71,0.37 0.35,0.92 -0.35,1.01 1.5,4.32 3.54,3.77 -0.71,2.3 0.53,0.64 0.53,3.03 1.24,1.47 0.27,1.19 -0.53,0.73 -0.8,0 -1.33,1.1 -1.06,2.2 -0.8,0.64 -0.62,4.04 -1.95,0.46 -1.68,2.02 0.27,5.6 2.04,4.68 1.42,1.01 0,1.1 0.71,0.83 -0.18,1.19 -0.8,0.27 -3.01,-1.65 -3.89,-0.46 -1.33,1.29 -0.53,-0.37 -1.24,2.29 -0.62,0.74 -0.62,0 -1.06,-0.46 -0.53,-0.92 0.09,-1.93 0.97,-1.75 0,-0.55 -1.5,-0.64 0.09,-1.19 0.71,-0.18 0.35,-1.01 -0.44,-0.09 0,-1.56 -0.44,-0.37 -0.44,-2.39 -1.59,-2.66 -3.01,-2.11 0.18,-1.1 -1.15,-0.09 0.53,-0.55 -0.53,-1.47 0.71,0.46 0,-0.55 -0.18,-0.73 -0.8,0 -0.09,-0.64 2.57,-1.65 0.88,-1.38 0.44,-2.02 0.09,-3.03 -0.88,-3.4 -2.39,-2.2 -2.3,-0.83 -4.96,-0.92 -0.53,1.01 -3.19,1.1 -1.86,-0.46 -0.18,-1.1 -0.53,-0.28 2.04,-3.49 2.04,-0.73 -0.62,-1.65 -1.68,-1.1 -0.35,-1.75 -1.06,-1.75 1.77,-2.94 1.24,0 -1.06,-1.47 1.33,-1.19 0,-1.93 -0.35,-0.55 -0.53,0.28 -0.53,0.37 -1.5,-0.74 -0.8,-1.01 -0.44,-3.12 1.15,-1.19 -0.71,-0.37 -0.09,-1.19 -0.71,-1.1 0.18,-1.65 -0.53,-1.01 -0.35,-2.94 0.53,-1.29 -0.18,-3.49 1.77,-1.93 0.62,-2.85 1.5,-0.74 0.44,-1.1 2.39,0 3.98,-1.65 0.27,-0.64 1.86,-1.29 0.44,-0.92 1.86,1.1 1.68,0.09 0.53,-0.74 0.71,0.09 0.53,-0.64 3.19,-1.1 1.24,-2.11 0.67,-0.18 z" 
                fill="rgb(151, 144, 238)" 
                stroke="white" 
                stroke-width=".7px"
                title="Sal" 
                id="CV-SL" 
            />
        </svg>