<svg xmlns="http://www.w3.org/2000/svg" viewBox="552.0191699999998 668.0428500000002 44.25000000000034 44.38000000000034" width="44.25000000000034" height="44.38000000000034">
            <path 
                d="m 574.91917,705.21285 -0.35,-3.56 -1.2,-4.6 -1.38,-0.89 -1.89,0 -0.86,0.18 -2.41,1.77 -0.69,0 -2.06,-0.71 -0.35,-1.41 -1.2,-0.53 -0.69,-1.78 -0.71,-0.42 0,0 0.85,-0.49 0,0 2.33,-0.21 0,-1.75 -1.69,-1.31 -9.97,0 0,0 -0.63,-0.66 0,0 0,-1.96 0.84,-0.65 1.7,-0.22 0.42,-0.88 0,-1.31 -1.27,-0.43 0,-1.31 1.06,-3.28 -0.42,-1.74 -2.21,-0.44 0,0 0.3,-0.44 3.18,0 1.49,-0.43 8.82,-7.71 0,0 0.87,0.46 0.62,-0.18 0.7,1.27 0.71,-1 0.89,0.27 0.18,0.28 -0.89,0.45 0.09,1.73 1.41,-0.18 0.62,0.46 -0.35,1.64 -0.71,0 0.09,0.54 -0.44,0.28 0.62,0.64 1.33,0.18 0.7,1 0.98,0.37 1.59,-0.1 -0.09,-0.63 0.62,0.09 -0.18,2 2.04,-0.54 0.98,-1.1 0.97,0 1.33,0.46 0.88,0.91 -0.71,1.46 0.8,-0.64 1.15,0.27 0.71,-0.73 0.35,1.73 1.33,0.19 -0.09,0.82 0.44,0.45 -0.26,1.1 -0.62,0.09 -0.27,0.73 0.71,0.73 0.09,1.27 1.15,-0.09 0.53,0.55 1.86,-0.28 1.06,1.01 1.51,0.36 1.59,-0.18 0.36,0.45 -0.18,2.83 1.33,2.92 -0.62,0.91 0.88,-0.37 0.71,0.91 0.09,0.82 0.71,0.28 -0.45,1.18 0.62,0.64 0,0 -1.21,1.7 -2.33,6.11 -2.12,3.71 -4.03,3.27 -2.54,0.88 -2.55,-0.22 -1.27,-2.84 -3.61,-1.75 -0.84,-1.52 0,0 z" 
                fill="rgb(151, 144, 238)" 
                stroke="white" 
                stroke-width=".7px"
                title="Santa Cruz" 
                id="CV-CR" 
            />
        </svg>