<svg xmlns="http://www.w3.org/2000/svg" viewBox="503.76917000000003 659.3728499999988 51.209999999999695 74.54000000000065" width="51.209999999999695" height="74.54000000000065">
            <path 
                d="m 552.39917,689.24285 -3.46,3.03 -4.47,1.59 -0.17,2.3 1.03,1.42 0,1.42 -1.55,2.3 0.69,3.01 -0.13,3.3 0,0 -0.59,0 0,0 -1.91,1.31 -1.06,5.89 -5.52,0 -1.27,0.66 -1.27,1.75 0.21,2.18 -1.7,3.05 -0.21,1.31 0,1.09 1.7,2.18 -0.64,0.88 -1.9,0.43 -4.19,5.57 0,0 -0.62,-0.36 -1.95,0.18 -0.8,-1.37 -1.32,-0.36 -0.45,-1.37 0.62,-1 0.36,0.37 1.5,-0.28 -0.26,-1.54 0.88,0.18 -0.09,-0.46 1.07,-0.64 0.17,-1.09 -0.79,-0.27 -0.27,-0.82 1.15,-0.64 -0.09,-1.36 -0.53,0.09 -0.53,-0.82 -0.53,0 0.09,-0.64 -1.51,-1.46 -0.62,-0.09 -0.7,-1.37 -1.78,-0.27 -0.97,-0.82 -0.88,-1.82 -0.71,-0.46 -0.89,0.37 -0.44,1.27 -1.24,0.1 -1.24,-2.28 -0.09,-1.73 -1.06,-0.73 -0.71,-1.73 -1.24,-0.28 -0.44,-0.91 0.27,-1.27 -1.86,-0.73 -0.98,-1.19 -0.62,0 -0.26,0.64 -1.15,-0.18 0.35,-1.28 -1.06,-1.54 0.35,-0.82 1.15,0.27 0.98,-0.46 -0.18,-1.64 -1.24,-2.09 0.36,-1 -0.36,-0.91 2.57,-1.37 -0.36,-1 0.45,-0.55 -0.36,-3.1 0.53,-1.82 0.54,0 -0.36,-1.37 0.71,-0.91 -0.09,-0.45 -1.15,-0.1 0.18,-1.09 1.59,-0.45 1.59,-2.37 -0.08,-0.82 -1.24,-0.73 0,-1.01 0.53,-0.18 0.53,-1.82 -1.86,-0.55 0.09,-2.82 -0.44,-0.73 1.15,-1.46 -2.13,-3.56 1.24,0.1 1.33,-0.92 -0.53,-1.73 0.26,-2 1.86,-2.34 0,0 3.95,0.06 2.33,-1.09 1.7,0.87 1.49,1.53 1.27,0.22 0.63,-0.22 1.06,-4.15 1.91,0.66 0.64,1.52 1.27,1.31 4.24,0 0,0 0.64,5.68 1.06,0.87 4.24,0 1.48,0.44 3.82,3.49 1.49,2.63 -0.43,1.96 -2.33,3.71 -0.21,1.09 0.42,0.88 1.91,0 3.39,-0.88 4.79,-6.11 0,0 2.21,0.44 0.42,1.74 -1.06,3.28 0,1.31 1.27,0.43 0,1.31 -0.42,0.88 -1.7,0.22 -0.84,0.65 0,1.96 0,0 z" 
                fill="rgb(151, 144, 238)" 
                stroke="white" 
                stroke-width=".7px"
                title="Santa Catarina" 
                id="CV-CA" 
            />
        </svg>