<svg xmlns="http://www.w3.org/2000/svg" viewBox="548.1691700000001 693.2628500000001 26.749999999999886 21.769999999999982" width="26.749999999999886" height="21.769999999999982">
            <path 
                d="m 574.91917,705.21285 -0.43,-0.43 0,0 -1.48,0.22 -2.76,4.14 -8.06,5.02 -4.45,0.87 -4.68,-0.59 0,0 -1.47,-0.5 -3.42,-5.44 0,0 6.39,-4.81 1.06,-1.97 0,-2.18 1.49,-3.93 2.96,-1.75 0,0 1.06,-0.6 0,0 0.71,0.42 0.69,1.78 1.2,0.53 0.35,1.41 2.06,0.71 0.69,0 2.41,-1.77 0.86,-0.18 1.89,0 1.38,0.89 1.2,4.6 z" 
                fill="rgb(151, 144, 238)" 
                stroke="white" 
                stroke-width=".7px"
                title="São Lourenço dos Órgãos" 
                id="CV-SO" 
            />
        </svg>