<svg xmlns="http://www.w3.org/2000/svg" viewBox="273.3491699999999 717.34285 72.50000000000006 71.46000000000004" width="72.50000000000006" height="71.46000000000004">
            <path 
                d="m 324.00917,740.76285 -2.6,2.69 -5.29,4.25 -1.93,2.38 -0.13,3.85 1.16,4.11 4.77,4.25 4,0.93 4,-0.27 5.94,-1.33 3.48,-2.52 4.13,-6.76 2.09,-2.12 0,0 0.8,1.36 -0.09,2.55 0.53,1.82 -0.44,1.91 0.8,1.45 0,3.83 0.62,1.45 -1.42,6.1 -0.71,1.28 -2.3,1.91 -0.18,1.27 -2.56,2.73 -3.63,3.1 -1.6,-0.19 -0.97,0.46 -1.86,1.91 -0.09,1 -0.97,-0.27 -3.72,1.82 -1.86,1.55 -2.12,0.09 -2.04,0.91 -2.92,0.54 -1.51,-0.36 -1.06,0.27 -0.97,-0.64 -0.53,0.28 -0.71,0 -0.27,-0.46 -5.31,0.55 -0.26,-0.64 -1.33,-0.73 -2.57,0.28 -1.15,-1.55 -1.68,-0.18 -1.06,-1.37 -1.24,-0.27 -0.98,-1.91 -1.24,-1.28 -1.32,-0.36 -3.01,-4 -2.04,-0.28 -3.19,-1.91 -1.32,-3.09 -3.72,-3.19 -4.61,-2 -1.59,-3.1 0.44,-4.73 -0.44,-1.55 0.18,-2.27 -0.27,-0.73 -0.7,0.18 -0.09,-0.73 1.06,-2.09 -0.09,-1.37 0.53,-1 -0.18,-1.73 0.8,-2 -0.26,-0.55 2.3,-3.64 0.09,-1.55 0.35,-0.18 -0.35,-0.73 1.23,-1 -0.08,-1.27 -0.45,-0.37 0.62,-0.45 0.18,-1.28 0.71,0.09 1.33,-0.82 0.44,-0.54 -0.09,-0.82 2.21,-1.55 -0.35,-0.82 0.8,-0.09 0.53,-1 2.39,-0.82 0.35,-1.01 1.6,-0.81 0.53,-1.74 1.59,-0.54 0.35,-0.55 2.57,-0.54 1.33,-1.01 0.09,-1.54 0.79,0.36 1.24,-0.36 0.98,-0.73 0.26,-0.82 3.72,0.91 3.94,-1.73 0,0 8.89,11.66 4.02,1.94 0.24,4.38 2.84,3.9 0,0 z" 
                fill="rgb(151, 144, 238)" 
                stroke="white" 
                stroke-width=".7px"
                title="São Filipe" 
                id="CV-SF" 
            />
        </svg>