<svg xmlns="http://www.w3.org/2000/svg" viewBox="553.0591700000006 696.75285 63.30999999999983 39.43999999999994" width="63.30999999999983" height="39.43999999999994">
            <path 
                d="m 596.26917,696.75285 0.45,0.27 -0.36,1.28 1.95,0 0.44,0.73 -0.17,0.91 1.32,0.82 -0.35,1.82 0.62,0.09 -0.27,0.64 1.33,0 -0.09,1 0.53,0 0,0.82 0.8,0.55 -0.97,1 0.62,0.73 0.79,-0.09 -0.26,0.82 0.53,0 0.26,-1.37 0.71,1.46 0.71,0.18 -0.62,-0.82 1.24,0.18 0,1.37 -0.62,1 1.77,-0.46 1.51,1.1 1.24,-0.09 0.88,1 0.27,1.64 -0.8,-0.46 -0.62,0.37 -1.42,-0.18 0.18,0.54 -0.62,0.46 1.24,0 -0.18,1.46 1.33,-1.37 1.15,0.09 0.62,-0.73 0.62,0.27 -0.53,1.01 0.18,0.36 0.79,-0.18 -0.44,0.91 0.36,1.55 -0.27,1 0.62,0.91 -0.62,1.46 0.97,0.27 0.62,-1.09 0.71,-0.09 0.71,0.73 -0.09,0.82 0.89,0.63 -0.36,0.19 0.45,0.72 -0.18,0.64 -0.62,0.18 -0.8,-0.45 -0.53,2 0.44,0.46 1.42,0 0.62,0.82 -3.1,0.27 1.24,0.27 0.44,0.82 1.15,-0.36 -0.97,2.09 0.89,2.1 -1.42,1.55 0.09,0.54 -0.89,-1 -0.62,-0.09 -0.71,-1.18 -0.08,0.36 -1.07,0 -0.53,1.55 -0.88,0.91 -1.42,0.36 -0.89,1.37 -2.02,-0.2 0,0 -3.1,-2.19 -6.14,-1.09 -7.85,-3.06 -4.03,0.22 -3.6,1.31 -6.37,0.44 -5.93,2.18 -1.91,1.3 0,0 -2.55,0 0,0 -2.54,-0.87 -6.79,-4.14 -0.63,-1.97 1.69,-2.61 0.43,-5.46 -0.85,-2.4 -1.91,-1.74 -0.44,-1.47 0,0 4.68,0.59 4.45,-0.87 8.06,-5.02 1.91,-3.27 0.85,-0.87 1.48,-0.22 0,0 1.28,1.31 0,0 0.84,1.52 3.61,1.75 1.27,2.84 2.55,0.22 2.54,-0.88 4.03,-3.27 2.12,-3.71 2.33,-6.11 z" 
                fill="rgb(151, 144, 238)" 
                stroke="white" 
                stroke-width=".7px"
                title="São Domingos" 
                id="CV-SD" 
            />
        </svg>