<svg xmlns="http://www.w3.org/2000/svg" viewBox="531.8691700000003 645.71285 34.479999999999905 37.900000000000205" width="34.479999999999905" height="37.900000000000205">
            <path 
                d="m 542.84917,645.71285 0.22,0.36 0.71,0 0.09,-0.36 2.83,0.36 0.98,0.82 1.32,-0.27 0.36,0.45 -0.27,1.19 1.77,0.55 -0.71,1.09 1.33,0.73 0.53,0.37 0.53,0.72 1.33,-0.45 1.42,1.18 1.59,0 0.18,0.82 0.97,1.01 0.18,2.09 1.24,0 0.09,0.46 0.97,0.36 0.8,2.1 -0.27,1.19 0.44,0.54 0.62,-0.54 0.54,0.18 0.17,1.55 0.89,0.36 -0.27,2.28 0.89,-0.09 0.09,0.55 0.7,-0.37 0.09,0.46 1.15,0.55 -0.44,0.73 0.02,1.36 0,0 -8.82,7.71 -1.49,0.43 -3.18,0 -0.3,0.44 0,0 -4.79,6.11 -3.39,0.88 -1.91,0 -0.42,-0.88 0.21,-1.09 2.33,-3.71 0.43,-1.96 -1.49,-2.63 -3.82,-3.49 -1.48,-0.44 -4.24,0 -1.06,-0.87 -0.64,-5.68 0,0 2.76,-3.27 0.1,-2.47 5.94,-6.29 z" 
                fill="rgb(151, 144, 238)" 
                stroke="white" 
                stroke-width=".7px"
                title="São Miguel" 
                id="CV-SM" 
            />
        </svg>