<svg xmlns="http://www.w3.org/2000/svg" viewBox="88.1391699999999 93.862852 163.8700000000001 104.45999799999998" width="163.8700000000001" height="104.45999799999998">
            <path 
                d="m 248.55917,190.52285 1.06,1.29 1.68,0.18 0.71,1.19 -0.8,2.66 -1.33,1.1 -0.18,1.1 -2.13,0.28 -1.42,-0.64 -3.1,0.09 -0.35,-1.38 -1.15,-1.56 0.89,-2.3 0.53,-0.55 1.95,0.46 3.64,-1.92 z m -30.89,-13.4 2.57,2.39 2.48,1.56 2.75,4.59 -2.3,-1.19 -1.33,0.09 -2.92,-2.66 0,-0.55 -0.8,-0.37 -1.86,-2.2 0.62,-1.47 0.79,-0.19 z m -30.81,-44.84 1.86,1.47 1.15,-0.09 0.35,0.74 1.06,0.46 4.34,1.29 0.44,0.46 -0.27,1.65 0.97,1.38 0.35,1.84 2.83,1.01 1.15,2.66 0.71,0.55 -0.44,0.83 0.53,1.01 2.13,2.39 1.86,0.74 1.95,0 3.36,-1.65 4.51,-0.09 0.89,0.83 0,1.47 -0.53,0.92 -1.86,1.84 -0.09,0.73 -2.3,-0.37 -1.24,1.1 -3.81,-0.64 -0.62,0.83 -1.5,-0.09 -0.09,0.46 -3.19,-0.55 -2.66,0 -0.89,0.46 -0.97,-0.28 -0.35,-3.58 -0.8,-1.29 -2.57,-1.93 -0.62,-1.01 -5.05,-2.57 -1.68,0.46 -2.04,-0.92 -1.68,-5.05 1.06,-0.46 0.97,-1.84 0.18,-2.02 0.97,-0.37 1.33,-2.02 -0.18,-0.64 0.48,-0.12 z m -45.41,-38.419998 3.36,2.3 1.33,2.39 0.09,1.749998 -0.71,-0.549998 -0.62,0.739998 0.35,1.29 -0.71,-0.19 -0.18,-0.64 -1.33,0.64 1.33,1.38 -0.71,0.09 -0.8,1.38 0.09,1.84 1.77,2.76 4.07,3.31 3.54,1.65 2.74,0.37 0.89,-1.1 2.21,-0.37 1.95,1.1 0.35,1.19 -0.35,1.29 -1.06,0.18 -1.68,1.29 0.44,1.75 0.89,0.74 -0.53,0.83 0.62,1.1 0.97,-0.18 0.71,0.46 -0.8,1.29 -0.18,4.87 -0.71,1.2 -2.21,0.55 -0.97,1.01 -2.04,-0.73 -2.21,0.55 -1.86,-0.55 -2.03,0.73 -0.35,0.74 -1.42,0.55 0,0.46 -3.19,1.75 -0.18,0.64 -1.33,-0.09 -0.71,0.64 -2.74,0.09 -0.44,0.46 -1.42,-0.09 -1.42,0.64 -2.12,-0.46 -0.62,0.64 -1.68,0.46 -0.27,1.19 -4.96,0.09 -0.8,0.73 0,1.65 -0.44,0.37 -2.75,0.28 -1.5,-0.92 -0.62,-0.37 -1.95,-1.19 -1.5,-0.46 -1.06,-1.1 -0.97,-0.74 -0.53,-0.74 -1.77,0.18 -2.12,-2.02 -1.86,-0.09 -1.86,-1.38 -1.86,0.55 -0.09,-0.64 -1.59,-1.01 -0.09,-0.46 -2.3,1.56 -1.42,-1.93 -1.33,-0.83 -0.18,-4.14 -0.97,-1.29 -1.86,-0.46 -5.05,1.01 0.09,-0.74 1.59,-2.02 -0.09,-0.64 0.89,-0.46 -0.09,-0.64 -1.77,-0.92 -0.09,-0.92 1.24,-0.74 0.97,0 0.53,-1.29 1.15,-0.55 0.09,-2.57 0.27,-0.37 1.15,0.18 0.35,-1.38 0.97,1.01 1.24,-0.18 1.15,-0.83 0.09,-1.1 -0.62,-1.01 0.88,-0.92 -0.09,-0.64 1.68,-0.09 -0.88,-2.21 2.66,1.29 0,-1.56 1.86,0.74 1.68,-1.66 2.21,0.09 0.62,0.92 0.18,1.65 0.44,-0.09 0.53,0.83 3.54,1.75 0.35,-0.92 1.95,-0.64 1.06,0.18 2.83,-2.94 -0.18,-1.29 -0.62,0.18 0.09,0.55 -0.89,-0.18 -0.35,-0.83 -0.62,0.64 -0.44,-0.37 -0.35,0.28 0,-0.74 0.71,-0.74 1.15,0.37 0.71,-0.74 -0.18,-1.47 -1.77,-0.83 0.09,-0.83 -0.35,-0.919998 2.57,0 0.44,-0.83 -0.27,-1.01 1.33,0.46 2.92,0 0.97,-2.57 1.33,-0.55 0.97,0.18 1.24,-1.29 0.71,0.74 -1.68,1.75 0.09,0.64 1.33,-0.55 0.62,1.75 3.01,1.47 1.59,0.18 2.92,-1.47 -0.35,-0.83 -0.44,0 0,-0.64 1.5,-0.55 0.44,-0.83 0.62,0.09 0.18,-0.74 -0.62,0.09 -0.18,-0.64 2.57,0 0.53,-0.46 1.36,-0.06 z" 
                fill="rgb(151, 144, 238)" 
                stroke="white" 
                stroke-width=".7px"
                title="São Vicente" 
                id="CV-SV" 
            />
        </svg>