<svg xmlns="http://www.w3.org/2000/svg" viewBox="505.97916999999995 615.61285 36.86999999999978 48.129999999999995" width="36.86999999999978" height="48.129999999999995">
            <path 
                d="m 509.07917,622.09285 0.89,1 1.06,-0.45 0,-0.83 -0.62,-0.64 1.68,-0.27 -0.89,-1.28 0.18,-1.64 0.62,-0.18 0.35,0.46 0.63,-0.28 0,-0.55 0.79,0.64 1.06,-0.45 0.71,0.18 -0.26,-0.73 0.44,-0.46 -0.09,-1 1.68,0.36 0.8,1.47 1.24,-0.46 0.09,0.82 2.65,0.46 0.27,1.18 0.62,0.28 0.62,-0.83 0.8,0.28 -0.27,-1.37 0.62,-0.46 1.59,0.64 1.33,-0.09 0.09,0.46 0.71,-0.28 0,0.92 -0.45,0.27 0.71,0.46 1.06,0 0.62,-1.19 0.54,0 0.7,0.64 -0.26,0.64 1.24,0.73 0.09,0.64 1.59,0.82 -0.09,0.45 0.97,1.28 -0.26,0.91 0.8,0.46 -0.98,2.73 -1.59,-0.27 -0.62,0.55 0.35,1 1.06,0.18 -1.15,4.11 0.18,1.82 0.71,0.46 -0.09,1.91 0.89,2.1 2.56,3.19 1.07,0 0.61,0.91 1.42,0.27 -0.09,0.74 1.15,-1.01 1.64,1.92 0,0 -2.18,5.12 -5.94,6.29 -0.1,2.47 -2.76,3.27 0,0 -4.24,0 -1.27,-1.31 -0.64,-1.52 -1.91,-0.66 -1.06,4.15 -0.63,0.22 -1.27,-0.22 -1.49,-1.53 -1.7,-0.87 -2.33,1.09 -3.95,-0.06 0,0 0.53,-2.77 0.53,-0.73 -0.35,-1.09 0.35,-3.74 0.45,-0.73 1.24,-0.36 2.03,-1.83 0.36,-0.63 -0.18,-2.1 0.53,-1.1 -0.09,-1.27 -1.24,-2.01 -2.3,-1.55 -1.5,0.27 0.17,-0.82 -0.97,-2.09 0.09,-2.92 -0.36,-0.73 1.95,-0.82 0.09,-0.82 -1.06,-1 -0.53,0.18 -0.09,-0.55 -0.53,0 -0.45,-1.19 -3.01,-0.36 -0.35,-0.37 0.18,-1.36 -0.89,-0.46 1.77,-2.37 2.48,0.46 0.44,-0.64 -0.17,-0.92 0.7,-0.91 -0.08,-0.64 -1.15,-0.63 -1.07,0.18 -0.44,-1.37 z" 
                fill="rgb(151, 144, 238)" 
                stroke="white" 
                stroke-width=".7px"
                title="Tarrafal" 
                id="CV-TA" 
            />
        </svg>