<svg xmlns="http://www.w3.org/2000/svg" viewBox="298.03917000000007 176.66285 40.499999999999886 63.430000000000064" width="40.499999999999886" height="63.430000000000064">
            <path 
                d="m 321.40917,176.66285 0.09,0.21 0,0 0,0 0,0 0.01,0.16 0,0 0,1.11 2.41,5.53 -0.34,2.68 -1.72,1.61 -0.52,1.24 0,1.61 1.03,2.32 2.41,1.07 6.02,0 1.89,1.78 1.55,1.79 0.69,1.78 0.34,4.46 2.24,1.96 1.03,2.86 -0.17,10.52 -2.58,6.42 0,3.21 -0.86,2.14 -1.55,7.13 -0.72,0.87 0,0 -1.33,-0.59 -0.98,1.56 -0.44,-0.19 -0.26,-2.11 0.7,-0.27 -0.44,-1.56 0.89,-0.74 -0.09,-1.37 -1.15,-1.29 -0.8,-2.29 -0.18,-2.3 -0.97,-2.11 -2.21,-0.91 -0.71,-1.38 -0.71,-0.18 -0.18,-1.75 -0.17,-1.28 -0.71,-0.83 0.18,-1.1 -0.54,-1.28 -2.03,-0.37 -0.8,-0.92 -0.09,-0.92 0.45,-0.18 -0.36,-1.56 0.44,-0.83 -0.88,-0.64 0.62,-0.37 -0.09,-0.82 -0.8,-0.55 -0.53,-1.56 -2.21,-1.38 -4.43,-0.28 -1.5,-1.37 -6.55,-3.49 -0.18,-0.83 -1.15,-1.1 -1.15,-0.18 -0.71,-0.65 0.62,-1.92 -1.77,-0.37 -1.06,-0.92 -0.36,-4.41 0.71,-1.19 0,-0.92 -0.71,-1.93 0.62,-2.48 1.24,-1.74 0.98,0.55 0.44,-0.18 -0.89,-1.29 1.07,-0.55 2.12,0.18 1.06,-1.1 2.04,0.19 2.04,-1.66 0.79,0.19 0.62,-1.47 2.39,-0.28 0.62,-0.82 0.44,0.55 1.69,-0.46 1.77,1.37 1.15,-0.36 0.44,0.36 z" 
                fill="rgb(151, 144, 238)" 
                stroke="white" 
                stroke-width=".7px"
                title="Tarrafal de São Nicolau" 
                id="CV-TS" 
            />
        </svg>