<svg xmlns="http://www.w3.org/2000/svg" viewBox="415.39271 251.23040000000026 196.86000000000018 237.08999999999997" width="196.86000000000018" height="237.08999999999997">
            <path 
                d="m 425.63271,387.2804 0.81,-2.42 -0.83,-2.76 1.1,-3.32 -1.93,-3.58 1.38,-2.21 2.48,0 2.21,1.1 4.69,0.28 2.49,-6.63 0.27,-2.76 -4.69,-2.21 -0.83,-1.65 -0.55,-4.69 2.49,-3.59 -3.59,-3.32 -2.76,-4.41 2.21,-5.8 1.93,-2.21 5.24,-3.31 4.7,0.28 2.2,2.76 3.87,1.38 4.41,-2.21 4.7,-1.66 1.38,2.49 3.31,0.55 2.48,0.83 0.56,2.48 1.38,1.93 2.2,1.38 4.42,0.83 4.42,-2.48 0,-3.59 -1.11,-4.69 2.76,-3.04 2.49,-3.31 4.97,0 2.48,3.31 3.04,-1.93 2.48,1.1 4.14,2.49 1.66,-2.49 5.24,-1.93 -2.76,-6.9 -5.24,-3.86 -1.11,-3.32 0,-3.03 -3.86,-1.66 -3.31,-3.59 0,-2.76 0.82,-3.03 3.32,-1.38 -2.49,-3.59 -0.55,-1.94 1.93,-1.38 -1.38,-3.58 -4.14,-1.11 -1.93,-3.31 -3.04,-0.55 -3.59,-1.66 0,-3.31 -3.03,-2.76 -2.76,-3.04 1.1,-1.65 2.76,-0.28 2.49,-2.76 2.76,0.55 2.48,1.93 1.11,1.66 2.48,0 2.76,1.1 4.42,-0.27 1.1,-4.14 0,-3.87 4.14,-1.38 1.38,-3.31 0.55,-2.21 1.66,-2.21 -0.36,-4.33 0,0 0.54,0.22 17.29,-0.33 13.5,3.24 11.33,7.33 13.3,23.38 8.49,7.28 7.1,-2.91 2.42,-4.51 9.11,-9.76 1.66,-1.18 1.39,-0.56 2.25,-0.38 3.36,0.57 2.7,1.59 5.51,3.99 2.25,2.87 1.15,4.46 -0.39,6.05 0.73,5.35 2.81,4.22 2.11,3.89 -2.87,2.86 -10.88,5.02 -9.11,15.8 -2.25,16.49 -4.68,14.23 -6.72,7.96 -17.84,9.03 -9.9,9.12 -2.5,7.35 2.81,6.31 -3.71,17.62 -10.32,7.47 -5.4,9.99 -0.62,8.87 3.74,8.12 6.75,3.27 0.04,5.04 -1.42,3.78 1.03,11.61 -24.48,2.1 -8.49,1.96 -2.36,-0.28 -2.77,-2.15 -7.2,-3.91 -3.4,-0.38 -5.12,0.38 -1.32,0.28 -1.11,1.21 -0.2,4.01 -0.42,1.49 -1.11,2.05 -3.05,2.33 -12.12,0.75 -3.71,1.44 -1.09,0.95 0,0 -1.44,-1.44 -1.66,-3.59 -3.86,-1.93 -4.7,1.38 -2.48,-0.28 -2.21,-3.86 -3.31,-0.83 -3.87,1.93 -1.93,-3.04 -2.21,0 -1.38,-3.03 -5.52,-9.39 -2.76,-0.55 -0.55,-7.45 1.93,-2.76 0.55,-3.59 3.59,-0.28 0.56,-4.14 0.82,-2.76 0.28,-2.48 -8.01,1.93 -2.48,-3.86 -4.42,-0.56 1.66,-3.86 0,-4.14 1.93,-1.66 3.59,0 1.93,-3.03 2.76,-1.38 3.04,-0.28 4.69,3.86 0,-3.31 2.49,-2.48 -2.49,-3.31 -3.59,-3.32 0.83,-3.86 1.38,-3.31 1.66,-6.63 -6.63,-4.97 -1.38,-4.41 0,0 z" 
                fill="rgb(151, 144, 238)" 
                stroke="white" 
                stroke-width=".7px"
                title="Gnjilane" 
                id="XK-GN" 
            />
        </svg>