<svg xmlns="http://www.w3.org/2000/svg" viewBox="0.2527142100000114 184.79040000000012 253.38999578999997 176.8799999999999" width="253.38999578999997" height="176.8799999999999">
            <path 
                d="m 180.78271,360.4904 -0.84,0.08 0,0 -2.76,1.1 -3.86,-6.07 0,-3.04 -2.21,-2.76 1.65,-3.86 -2.2,-2.76 -1.94,-0.28 -5.24,1.93 -3.04,-1.38 -2.76,-3.03 -7.17,-1.11 -6.63,3.04 -5.8,0 -2.48,-1.11 -5.52,-1.38 -2.76,1.94 -3.59,1.93 -11.04,0.55 -3.04,-2.21 1.38,-1.93 2.49,-2.48 -0.83,-2.49 -3.86,-0.55 -2.21,-2.49 -1.38,-2.76 3.31,-1.38 -2.21,-3.31 -2.48,-2.76 -2.21,-1.1 -2.209996,-2.76 -3.04,-0.55 -1.38,3.58 -4.41,2.49 -2.49,0.55 -2.76,-0.55 -11.87,-4.42 -4.69,-3.31 -5.52,0.55 -2.48,-0.83 -4.14,-6.9 -2.76,-0.83 -0.83,-3.58 2.76,-3.32 2.48,-3.59 -3.31,-1.1 -6.35,0 -5.52,-2.21 -7.45,-0.27 -5.96,-4.34 0,0 2.7,-3.5 -0.27,-1.26 -3.54,-2.3 -2.25,-2.12 -1.18,-1.55 -2.45,-4.6 -2.12,-3.05 -2.77,-1.55 -2.11,-0.09 -1.8,-0.52 -1.11,-0.84 -1.35,-2.12 -1.4899998,-1.31 -3.29,-1.04 -0.73,-0.75 -1.07,-2.72 -0.66,-0.94 -2.15,-7.61 -1.37999999,-2.54 -0.35,-1.41 0.1,-1.13 1.62999999,-2.3 1.39,-1.46 1.45,-2.21 0.52,-1.27 0.35,-1.83 0.07,-1.88 1.04,-2.35 0.62,-0.47 0.93,-0.47 1.18,0.14 4.3299998,1.74 2.43,0.47 1.17,0.8 2.22,0.37 3.5,1.41 3.98,1.98 3.92,0.61 3.15,1.74 3.6,1.22 3.19,0.71 2.6,-0.47 4.43,0.37 7.93,-0.04 5.47,0.56 4.78,1.74 4.06,0.05 3.63,-1.7 8.42,-11.84 1.21,-1.08 2.25,-2.73 0.14,-0.89 -0.38,-1.18 -1.7,-3.06 -0.86,-3.57 0.21,-1.32 0.65,-1.08 3.54,-3.53 4.53,-2.45 2.15,-0.84 1.39,-1.27 1.8,-2.26 1.45,-1.18 1.529996,-0.38 5.54,1.56 2.28,0.23 0.87,0.43 3.08,0.23 11.23,-2.02 24.62,-5.13 1.01,0.04 9.97,-1.55 0.8,-0.66 2.94,-1.32 1.8,-1.27 3.06,-4.96 0,0 3.11,0 4.14,-1.1 5.52,-0.55 4.14,-1.11 2.76,-2.21 4.14,-1.1 1.38,4.14 5.8,0.55 3.03,3.04 1.11,3.59 3.03,1.65 3.04,4.42 -0.28,6.35 7.45,0 -0.55,8.28 -1.93,4.14 -1.66,2.76 0,8.01 -2.76,4.96 -1.65,3.87 1.38,5.52 4.14,3.59 -0.28,4.14 -1.65,4.69 -3.59,4.14 -1.38,-0.55 -2.21,0.83 -1.93,4.14 0.55,3.31 3.86,1.1 1.66,1.38 0.83,4.42 4.69,8.01 2.76,3.31 5.52,-0.28 3.04,-3.03 0.83,-3.87 2.48,-1.1 0.83,1.65 3.86,2.76 -2.21,2.49 2.76,1.65 1.66,4.97 -6.07,4.42 1.65,8.28 5.53,0.55 2.76,1.11 5.24,3.86 1.38,7.45 2.21,0.83 3.31,-1.66 0,0 2.76,-0.27 -0.28,4.14 0,0 -2.2,3.31 -0.56,3.59 -7.72,0 -3.32,-0.55 -2.21,-2.76 -8.55,3.86 -4.42,8.01 -1.93,2.76 -0.55,5.24 -1.93,1.93 -1.39,3.04 -3.31,1.66 0.28,3.58 -4.97,-0.27 -5.52,0.83 -4.97,2.2 -7.45,-1.65 -4.42,0 -5.52,0.83 z" 
                fill="rgb(151, 144, 238)" 
                stroke="white" 
                stroke-width=".7px"
                title="Peć" 
                id="XK-PE" 
            />
        </svg>