<svg xmlns="http://www.w3.org/2000/svg" viewBox="251.16271000000003 65.02040000000021 254.77000000000018 325.7999999999996" width="254.77000000000018" height="325.7999999999996">
            <path 
                d="m 252.12271,318.5404 -0.14,-0.37 1.38,-3.59 0,-2.21 -2.2,-3.31 0.55,-3.87 2.48,-2.48 1.38,-5.52 1.66,-1.93 3.86,-1.11 3.87,-2.21 4.97,0.28 1.65,-3.31 -1.93,-4.14 -0.55,-2.76 1.38,-4.14 4.97,0 0.55,-3.04 2.76,-1.93 4.97,0 3.59,2.48 0.27,3.32 3.31,1.1 5.8,-4.14 0,-2.76 1.11,-4.42 5.24,-0.27 3.04,-0.83 3.86,-2.49 3.04,0 1.65,4.14 3.04,2.49 1.93,3.86 4.42,5.25 3.59,-0.28 6.35,-6.07 3.31,-3.59 4.41,-3.59 3.87,-2.21 3.31,-2.76 3.04,-1.65 -1.11,-4.97 0.83,-2.21 3.04,-0.55 1.1,-9.11 -2.21,-1.66 -2.2,-1.1 0.27,-3.04 4.97,-4.14 2.48,-3.03 3.59,-3.04 2.49,-0.55 0,-2.21 5.79,-0.28 1.11,-5.24 -1.38,-5.52 -3.31,-2.76 -2.49,-2.76 -3.59,-0.83 -0.83,-3.31 -0.55,-11.6 -3.03,-4.41 -0.83,-5.8 -2.21,-3.31 0,-6.07 3.86,-4.14 0.56,-8.56 2.76,-7.73 -0.28,-6.9 -6.07,-16.29 -2.21,-5.24 -2.48,-1.11 -4.15,-1.38 -1.93,-3.58 0.83,-4.97 -1.93,-1.66 -3.87,-1.38 -1.38,-6.24 -3.58,-4.41 0.55,-4.97 0,-2.21 1.65,-3.86 -2.48,-3.32 -1.66,-3.31 -2.2,0.55 -3.59,2.49 -3.32,-4.14 -1.93,-3.87 -0.65,-2.84 0,0 7.71,-2.55 2.19,-2.22 1.55,-1.14 1.04,-0.33 2.81,0.52 7.86,4.21 2.46,0.85 1.77,-0.33 8.38,-4.64 4.33,-2.83 1.45,-0.43 1.7,0.19 1.63,0.76 4.33,4.21 2.22,3.35 1.45,3.6 3.64,11.24 0.45,0.19 0.69,-0.19 5.02,-5.57 1.94,-0.95 1.6,-0.42 1.62,1.04 1.56,1.7 0.83,2.5 0.77,3.93 1,7.55 0.38,9.69 -0.07,8.07 -0.76,11.66 1.14,14.15 0.56,0.43 1,-0.43 5.79,-11.13 1.62,-1.46 1.84,-1.56 2.29,-0.66 3.01,0.42 3.01,1.89 1.77,1.7 5.06,15.05 -0.14,2.45 -4.71,12.16 -2.74,8.39 0.31,1.7 1.08,2.12 7.96,-1.08 7.55,-0.38 16.39,4.1 9.07,9 6.1,12.05 2.28,0.99 8.18,-3.58 2.53,3.58 -0.38,7.91 -0.49,4.42 -3.36,9.93 -6.44,9.31 -0.31,8.32 1.59,4.23 13.13,1.18 0.93,-0.1 1.25,0.29 9.91,0.51 4.22,3.86 10.75,4.01 0,0 0.36,4.33 -1.66,2.21 -0.55,2.21 -1.38,3.31 -4.14,1.38 0,3.87 -1.1,4.14 -4.42,0.27 -2.76,-1.1 -2.48,0 -1.11,-1.66 -2.48,-1.93 -2.76,-0.55 -2.49,2.76 -2.76,0.28 -1.1,1.65 2.76,3.04 3.03,2.76 0,3.31 3.59,1.66 3.04,0.55 1.93,3.31 4.14,1.11 1.38,3.58 -1.93,1.38 0.55,1.94 2.49,3.59 -3.32,1.38 -0.82,3.03 0,2.76 3.31,3.59 3.86,1.66 0,3.03 1.11,3.32 5.24,3.86 2.76,6.9 -5.24,1.93 -1.66,2.49 -4.14,-2.49 -2.48,-1.1 -3.04,1.93 -2.48,-3.31 -4.97,0 -2.49,3.31 -2.76,3.04 1.11,4.69 0,3.59 -4.42,2.48 -4.42,-0.83 -2.2,-1.38 -1.38,-1.93 -0.56,-2.48 -2.48,-0.83 -3.31,-0.55 -1.38,-2.49 -4.7,1.66 -4.41,2.21 -3.87,-1.38 -2.2,-2.76 -4.7,-0.28 -5.24,3.31 -1.93,2.21 -2.21,5.8 2.76,4.41 3.59,3.32 -2.49,3.59 0.55,4.69 0.83,1.65 4.69,2.21 -0.27,2.76 -2.49,6.63 -4.69,-0.28 -2.21,-1.1 -2.48,0 -1.38,2.21 1.93,3.58 -1.1,3.32 0.83,2.76 -0.81,2.42 0,0 -0.02,-0.05 0,0 -2.49,0.83 -1.38,2.76 -2.21,-0.28 -1.93,-4.41 -3.03,-2.76 -4.14,0.55 -3.59,-2.76 -6.9,0.27 -4.14,1.94 -2.76,0.55 -3.59,-1.11 -2.49,1.11 -3.58,2.76 -3.04,-0.28 -0.55,-3.59 -1.94,-3.58 -4.41,0 -6.35,-0.83 -1.66,-2.49 -2.21,-0.83 -10.21,4.7 -4.14,-1.66 -2.21,-1.38 -3.31,-0.27 -4.97,0.82 -5.52,-4.41 -1.1,3.03 -6.9,1.38 -1.38,-4.41 -2.21,-1.38 -3.87,-0.28 -2.76,1.66 -4.14,3.03 -1.1,3.04 -6.35,0.55 -3.84,0.77 0,0 -0.02,-0.22 0,0 -1.66,-4.69 -0.28,-3.04 -6.07,-1.93 -5.8,4.14 -2.76,-2.21 3.59,-4.69 -1.38,-3.03 -0.55,-2.76 5.52,-0.56 0.28,-6.62 -1.94,-0.83 -1.38,-4.14 -2.2,0.55 -2.49,6.07 -6.62,0 -2.49,2.21 -4.69,0.56 -5.24,5.52 -1.66,-3.59 0.28,-2.21 3.31,-3.87 1.1,-4.14 -0.55,-3.03 3.04,-2.76 0.55,-6.9 -4.97,-3.87 -1.38,-1.38 -1.93,-0.27 0,-2.76 4.14,-4.14 0.83,-4.97 -5.52,-3.04 -6.65,0.97 0,0 0.02,-0.25 z" 
                fill="rgb(151, 144, 238)" 
                stroke="white" 
                stroke-width=".7px"
                title="Pristina" 
                id="XK-PR" 
            />
        </svg>