<svg xmlns="http://www.w3.org/2000/svg" viewBox="153.8827100000001 317.67039999999974 177.32999999999993 379.07000000000005" width="177.32999999999993" height="379.07000000000005">
            <path 
                d="m 331.21271,528.9904 -4.71,3.56 -2.29,0.56 -7.07,0.79 -6.13,2.7 -3.63,3.39 -6.38,8.28 -2.35,2.52 -1.87,1.16 -1.15,0.32 -4.78,0.14 -5.26,-0.55 -1.07,0.18 -2.6,1.21 -1.94,1.63 -3.02,1.62 -5.29,1.35 -6.79,0.42 -1.11,0.28 -1.21,0.74 -1.39,1.31 -1.14,2.32 -2.53,2.7 -9.39,15.15 -1.04,2.32 -0.17,1.02 0.66,6.23 -0.18,5.71 0.63,9.8 0.76,2.55 3.19,5.01 0.62,3.11 -0.07,1.62 -1,3.39 -0.25,2.79 0.14,1.81 0.42,1.48 0.9,1.62 3.74,5.2 0.1,1.39 -12.26,11.96 -2.49,4.08 -1.21,1.39 -12.09,7.78 -5.61,2.78 -5.16,3.43 -1.7,2.13 -0.83,4.4 -0.38,0.84 -6.27,8.38 -1.7,1.85 -0.83,1.34 -1.8,5.65 -1.91,1.9 -2.87,2.17 -1.25,0.65 -2.49,-0.55 -2.32,-1.44 -0.49,-0.05 -3.43,1.95 -1.38,0.28 -3.95,-0.51 -1.53,-0.79 -0.41,-0.6 0.28,-3.7 -0.28,-1.21 -1.28,-2.77 -2.74,-9.54 0.52,-2.64 -0.35,-2.36 0.7,-2.51 0.17,-1.66 -1.18,-6.21 0.07,-4.36 0.56,-1.06 1.8,-0.33 1.35,-1.71 0.69,-0.42 6.75,-0.6 0.45,-0.28 -0.13,-3.38 -1.77,-2.74 -4.19,-11.73 2.39,-0.88 0.83,-0.55 1.52,-2.93 0.87,-1.02 3.39,-1.53 4.33,-3.01 1.56,-1.44 1.01,-6.26 0.97,-2.23 0.31,-1.35 -0.66,-4.5 0,-2.04 -0.94,-1.26 -1.97,-1.57 -1.49,-3.21 -1.94,-6.87 -1.35,-5.9 -1.11,-1.02 -0.62,-1.3 -0.97,-9.89 -5.82,-6.84 -1.04,-0.88 -1.42,-0.32 -4.47,-9.4 -0.97,-1.11 0.11,-1.12 3.63,-6.04 0,-0.65 -0.76,-1.07 -0.76,-1.82 -0.1,-1.3 0.2,-1.16 1.91,-3.91 0.1,-0.7 -0.14,-1.16 -3.84,-7.87 -0.07,-1.11 0.69,-1.07 0.04,-0.75 -2.5,-2.79 -2.66,-3.77 -0.04,-0.37 0.76,-0.98 -0.03,-0.47 -0.9,-2 -0.35,-1.44 -1.76,-2.94 -1.53,-3.44 -1.7,-9.13 -1.07,-3.54 -1.94,-1.96 -1.07,-1.77 -5.09,-4.57 -0.07,-1.81 -0.66,-2.66 -0.83,-1.03 -1.72,-1.12 0,0 2.05,-3.27 6.9,-1.38 3.59,-2.2 0.27,-4.14 6.07,-1.38 3.04,-3.59 1.38,-2.21 5.52,-1.11 0.83,-6.9 0.55,-2.48 2.21,2.76 1.1,3.31 1.66,-2.21 1.1,-2.76 3.87,-1.1 4.69,0 3.59,0.55 0,4.42 3.31,0 3.04,1.65 0.83,-3.58 1.93,-1.38 2.48,-3.04 1.66,-2.76 1.66,-4.69 2.2,-2.21 4.97,0 2.21,3.59 0.55,2.76 1.38,3.31 2.49,0.83 3.86,-3.31 0,-3.32 1.66,-4.14 3.03,-1.93 -0.55,-5.24 -0.55,-1.94 2.76,-2.76 -1.93,-6.07 1.1,-6.07 0.28,-4.69 -3.04,-3.87 -2.76,-3.04 4.14,-4.14 -1.38,-2.48 -3.31,-0.28 -2.76,-2.48 1.1,-5.8 -1.65,-0.82 -6.08,-1.11 -0.82,-3.31 -3.59,-1.66 -3.31,-3.31 -5.25,-0.83 -10.21,0 -3.31,-0.55 -0.28,-5.52 -1.38,-4.69 -5.52,-0.28 -2.49,-1.66 -2.2,-6.07 -3.59,-1.93 0,0 -2.2,0.2 0,0 1.92,-2.35 5.52,-0.83 4.42,0 7.45,1.65 4.97,-2.2 5.52,-0.83 4.97,0.27 -0.28,-3.58 3.31,-1.66 1.39,-3.04 1.93,-1.93 0.55,-5.24 1.93,-2.76 4.42,-8.01 8.55,-3.86 2.21,2.76 3.32,0.55 7.72,0 0.56,-3.59 2.2,-3.31 0,0 0.26,-3.89 0,0 6.65,-0.97 5.52,3.04 -0.83,4.97 -4.14,4.14 0,2.76 1.93,0.27 1.38,1.38 4.97,3.87 -0.55,6.9 -3.04,2.76 0.55,3.03 -1.1,4.14 -3.31,3.87 -0.28,2.21 1.66,3.59 5.24,-5.52 4.69,-0.56 2.49,-2.21 6.62,0 2.49,-6.07 2.2,-0.55 1.38,4.14 1.94,0.83 -0.28,6.62 -5.52,0.56 0.55,2.76 1.38,3.03 -3.59,4.69 2.76,2.21 5.8,-4.14 6.07,1.93 0.28,3.04 1.66,4.69 0,0 0.55,4.42 0,0 0.55,1.93 3.59,0 1.65,1.66 4.42,1.1 4.14,0.55 3.04,1.11 -0.55,3.86 2.2,3.32 2.21,1.1 3.04,2.76 -1.11,1.66 -4.14,0.27 -1.1,4.14 -3.59,0.28 0,2.76 1.93,2.21 2.49,0.82 2.21,2.49 -1.66,3.31 -5.52,-2.76 -3.59,1.66 0.28,3.03 2.48,1.94 4.97,0 4.14,3.86 2.76,3.59 0,4.97 3.31,2.48 -0.55,2.76 -2.21,2.76 0,4.42 2.76,0.55 0,3.31 2.21,3.04 -0.83,2.76 -3.03,1.93 1.65,5.52 2.49,2.76 -1.93,0.83 -4.42,0.83 -2.76,3.31 -2.76,-2.76 -3.31,0.83 -0.56,3.86 -1.93,5.25 -4.14,1.1 -3.59,2.76 -1.38,3.04 -2.76,3.03 -6.35,-3.58 -3.59,1.65 -0.27,2.76 1.1,1.94 0.56,2.76 -2.21,3.03 -2.49,0.83 0.55,4.42 3.59,1.38 8.56,1.38 11.04,-0.28 4.69,3.31 6.08,1.11 3.03,3.31 3.32,7.18 z" 
                fill="rgb(151, 144, 238)" 
                stroke="white" 
                stroke-width=".7px"
                title="Prizren" 
                id="XK-PZ" 
            />
        </svg>