<svg xmlns="http://www.w3.org/2000/svg" viewBox="287.5927099999998 371.2204000000002 172.86000000000024 177.93999999999988" width="172.86000000000024" height="177.93999999999988">
            <path 
                d="m 460.45271,488.3204 -1.99,1.71 -3.22,4.38 -4.85,5.5 -7.76,13.92 -8.45,26.44 -4.05,5.21 -2.22,2.19 -2.73,0.79 -4.16,0.7 -3.08,-1.86 -3.47,-0.38 -3.11,1.17 -2.22,0.32 -1.18,-0.23 -1.38,-1.26 -0.97,-2.13 -0.42,-3.08 -1.18,-3.81 -4.22,-7.54 -9.25,-9.36 -1.39,-5.07 -0.69,-6.71 -1.59,-3.49 -2.6,-3.07 -1.56,-1.4 -2.15,-0.98 -2.21,-0.09 -6.83,-1.12 -1.8,0.47 -1.45,1.21 -2.64,2.98 -9.14,5.12 -2.91,5.22 -2.35,2.6 -6.86,5.13 -2.36,0.83 -2.91,0.66 -3.6,2.32 -4.29,3.38 0,0 -2.76,-7.33 -3.32,-7.18 -3.03,-3.31 -6.08,-1.11 -4.69,-3.31 -11.04,0.28 -8.56,-1.38 -3.59,-1.38 -0.55,-4.42 2.49,-0.83 2.21,-3.03 -0.56,-2.76 -1.1,-1.94 0.27,-2.76 3.59,-1.65 6.35,3.58 2.76,-3.03 1.38,-3.04 3.59,-2.76 4.14,-1.1 1.93,-5.25 0.56,-3.86 3.31,-0.83 2.76,2.76 2.76,-3.31 4.42,-0.83 1.93,-0.83 -2.49,-2.76 -1.65,-5.52 3.03,-1.93 0.83,-2.76 -2.21,-3.04 0,-3.31 -2.76,-0.55 0,-4.42 2.21,-2.76 0.55,-2.76 -3.31,-2.48 0,-4.97 -2.76,-3.59 -4.14,-3.86 -4.97,0 -2.48,-1.94 -0.28,-3.03 3.59,-1.66 5.52,2.76 1.66,-3.31 -2.21,-2.49 -2.49,-0.82 -1.93,-2.21 0,-2.76 3.59,-0.28 1.1,-4.14 4.14,-0.27 1.11,-1.66 -3.04,-2.76 -2.21,-1.1 -2.2,-3.32 0.55,-3.86 -3.04,-1.11 -4.14,-0.55 -4.42,-1.1 -1.65,-1.66 -3.59,0 -0.55,-1.93 0,0 -0.53,-4.2 0,0 3.84,-0.77 6.35,-0.55 1.1,-3.04 4.14,-3.03 2.76,-1.66 3.87,0.28 2.21,1.38 1.38,4.41 6.9,-1.38 1.1,-3.03 5.52,4.41 4.97,-0.82 3.31,0.27 2.21,1.38 4.14,1.66 10.21,-4.7 2.21,0.83 1.66,2.49 6.35,0.83 4.41,0 1.94,3.58 0.55,3.59 3.04,0.28 3.58,-2.76 2.49,-1.11 3.59,1.11 2.76,-0.55 4.14,-1.94 6.9,-0.27 3.59,2.76 4.14,-0.55 3.03,2.76 1.93,4.41 2.21,0.28 1.38,-2.76 2.49,-0.83 0,0 1.65,4.42 0,0 1.38,4.41 6.63,4.97 -1.66,6.63 -1.38,3.31 -0.83,3.86 3.59,3.32 2.49,3.31 -2.49,2.48 0,3.31 -4.69,-3.86 -3.04,0.28 -2.76,1.38 -1.93,3.03 -3.59,0 -1.93,1.66 0,4.14 -1.66,3.86 4.42,0.56 2.48,3.86 8.01,-1.93 -0.28,2.48 -0.82,2.76 -0.56,4.14 -3.59,0.28 -0.55,3.59 -1.93,2.76 0.55,7.45 2.76,0.55 5.52,9.39 1.38,3.03 2.21,0 1.93,3.04 3.87,-1.93 3.31,0.83 2.21,3.86 2.48,0.28 4.7,-1.38 3.86,1.93 1.66,3.59 z" 
                fill="rgb(151, 144, 238)" 
                stroke="white" 
                stroke-width=".7px"
                title="Uroševac" 
                id="XK-UR" 
            />
        </svg>