<svg xmlns="http://www.w3.org/2000/svg" viewBox="9.462714200000011 289.43039999999996 231.75999579999998 193.37000000000006" width="231.75999579999998" height="193.37000000000006">
            <path 
                d="m 153.88271,482.8004 -1.33,-1.77 -3.4,-2.19 -0.2,-1.82 -0.52,-1.26 -3.16,-2.42 -2.49,-3.08 -3.95,-1.35 -2.25,-1.35 -5.06,-0.47 -0.31,-0.23 -0.62,-1.78 -2.29,-0.09 -2.14,-0.79 -1.84,-0.28 -1.8,-2.1 -1.28,-3.41 -0.66,-0.65 -1.32,-0.33 -3.84,-2.24 -1.56,-0.65 -2.81,-0.33 -2.46,-1.44 -2.14,-0.1 -0.14,-0.23 0.48,-3.03 -1.42,-1.54 -1.45,-2.24 -1.66,-0.66 -1.32,-0.98 -4.089996,0.14 -0.59,0.47 -1.45,2.01 -2.56,0.84 -1.98,2.33 -0.93,-0.23 -0.7,-0.8 -2.49,-1.3 -1.52,-1.73 -1.11,0.09 -4.47,1.45 -5.82,0.94 -0.35,-0.24 -0.83,-1.58 -2.42,-0.24 -1.46,-1.21 -0.24,-1.12 1.32,-1.78 -0.11,-1.58 -0.76,-1.96 -2.35,-2.76 -0.35,-1.26 1.07,-1.31 0.77,-0.46 0.58,0 0.21,-0.38 0.56,-4.06 -0.11,-3.64 -1.66,-1.87 0.31,-1.36 -0.52,-1.68 -1.21,-0.61 -1.07,-1.63 -4.09,-3.74 -3.92,-2.71 -0.52,-1.03 2.19,-4.48 2.66,-1.55 0.87,-0.79 0.55,-0.98 -0.27,-3.18 -0.94,-1.26 -1.21,-3.84 -0.66,-0.75 -2.11,-1.03 -2.05,-3.22 -4.12,-2.67 -0.48,-0.56 -0.18,-1.92 0.46,-0.79 1.14,-1.12 0.28,-1.17 -2.39,-3.33 -2.15,-1.21 -0.59,-0.89 -0.87,-3.46 -0.24,-2.16 -3.46,-3.46 -0.8,-1.08 -0.14,-0.93 0.42,-2.06 -0.18,-1.03 -0.45,-0.75 -3.18,-1.69 -0.7,-1.26 -0.55,-0.42 -4.92,-1.92 -2.01,-1.17 -3.53,-1.22 -0.38,-0.47 -0.24,-1.64 -2.67,0 -4.33,-2.43 -0.8,-0.7 -1.28,-3.28 -1.94,-2.16 -0.52,-2.34 -2.73,-1.78 -2.1199998,-0.28 4.8899998,-12.32 0.38,-2.91 -0.38,-2.53 -1.73,-4.69 -0.35,-4.59 0.69,-3.29 1.91,-2.86 1.66,-1.55 4.05,-2.15 4.47,-5.07 3.12,-4.51 1.45,-1.66 0,0 5.96,4.34 7.45,0.27 5.52,2.21 6.35,0 3.31,1.1 -2.48,3.59 -2.76,3.32 0.83,3.58 2.76,0.83 4.14,6.9 2.48,0.83 5.52,-0.55 4.69,3.31 11.87,4.42 2.76,0.55 2.49,-0.55 4.41,-2.49 1.38,-3.58 3.04,0.55 2.209996,2.76 2.21,1.1 2.48,2.76 2.21,3.31 -3.31,1.38 1.38,2.76 2.21,2.49 3.86,0.55 0.83,2.49 -2.49,2.48 -1.38,1.93 3.04,2.21 11.04,-0.55 3.59,-1.93 2.76,-1.94 5.52,1.38 2.48,1.11 5.8,0 6.63,-3.04 7.17,1.11 2.76,3.03 3.04,1.38 5.24,-1.93 1.94,0.28 2.2,2.76 -1.65,3.86 2.21,2.76 0,3.04 3.86,6.07 2.76,-1.1 0,0 3.04,-0.28 0,0 3.59,1.93 2.2,6.07 2.49,1.66 5.52,0.28 1.38,4.69 0.28,5.52 3.31,0.55 10.21,0 5.25,0.83 3.31,3.31 3.59,1.66 0.82,3.31 6.08,1.11 1.65,0.82 -1.1,5.8 2.76,2.48 3.31,0.28 1.38,2.48 -4.14,4.14 2.76,3.04 3.04,3.87 -0.28,4.69 -1.1,6.07 1.93,6.07 -2.76,2.76 0.55,1.94 0.55,5.24 -3.03,1.93 -1.66,4.14 0,3.32 -3.86,3.31 -2.49,-0.83 -1.38,-3.31 -0.55,-2.76 -2.21,-3.59 -4.97,0 -2.2,2.21 -1.66,4.69 -1.66,2.76 -2.48,3.04 -1.93,1.38 -0.83,3.58 -3.04,-1.65 -3.31,0 0,-4.42 -3.59,-0.55 -4.69,0 -3.87,1.1 -1.1,2.76 -1.66,2.21 -1.1,-3.31 -2.21,-2.76 -0.55,2.48 -0.83,6.9 -5.52,1.11 -1.38,2.21 -3.04,3.59 -6.07,1.38 -0.27,4.14 -3.59,2.2 -6.9,1.38 z" 
                fill="rgb(151, 144, 238)" 
                stroke="white" 
                stroke-width=".7px"
                title="Äakovica" 
                id="XK-DA" 
            />
        </svg>