<svg xmlns="http://www.w3.org/2000/svg" viewBox="295.62033000000014 210.1373200000007 496.63000000000005 361.6299999999999" width="496.63000000000005" height="361.6299999999999">
            <path 
                d="m 629.42033,211.68732 1.98,0.66 1.49,-0.33 0.92,-0.43 1.14,0.02 1.54,-0.26 2.22,-0.9 1.27,-0.03 1.13,0.21 -0.69,1.47 0.72,3.8 1.17,4.52 -0.19,4.04 -1.31,2.11 -4.26,2.7 -0.85,1.96 -0.67,2.23 -0.78,1.9 -1.6,0.95 -1.17,0.48 -0.65,0.96 0.11,1.08 0.65,1.38 1.73,0.51 1.74,-0.37 1.75,0.2 2.01,2.62 1.26,3.32 3.48,3.17 0.95,1.53 0.72,3.78 1.24,2.62 -0.05,3.02 0.14,1.53 2.84,3.88 0.56,1.75 1.21,0.6 1.41,-0.21 1.72,-1.06 2.05,-0.4 1.27,0.73 0.85,3.53 1.09,2.04 0.68,1.76 0.24,1.78 -0.23,2.04 -1.01,0.82 -1.48,0.38 -3.19,-0.25 -2.86,0.28 -1.5,0.7 -2.43,2.89 -1.71,3.32 -0.5,2.42 0.37,1.6 0.94,0.89 1.87,1.03 0.44,0.79 0.7,3.88 1.01,2.35 0.22,1.14 -0.27,5.76 0.38,1.54 1.19,4.11 1.72,1.95 1.73,3.53 0.41,1.91 -0.21,1.11 -0.55,0.59 -1.32,0.02 -0.54,0.45 0.01,0.63 0.87,0.89 2.36,1.12 3.05,1.88 4.09,0.58 0.95,0.64 0.86,0.94 1.47,2.81 0.98,1.02 5.62,1.09 4.08,-1.4 3.31,0.8 1.86,0.17 0.61,-0.22 0.69,-0.79 -1.38,-1.97 -0.1,-0.59 0.27,-1.33 3.63,-5.06 0.63,-1.27 -0.01,-1.43 -0.25,-1.57 0.21,-1.39 1.28,-1.79 0.99,-0.48 3.77,-0.28 2.24,0.45 2.61,1.86 0.98,-0.06 1.01,-0.6 0.73,-0.17 1.52,0.86 2.79,0.51 5.8,-0.88 0.46,0.18 1.75,-0.12 1.69,0.26 2.33,0.84 0.36,0.45 3.24,1.74 1.62,-0.01 1.74,-0.35 1.55,0.41 1.88,-0.06 0.81,0.58 1.31,1.92 1.12,1.22 1.17,0.43 3.16,-0.01 1.38,1.05 1.59,0.68 2.17,0.22 1.32,0.67 1.32,1.47 3.57,2.33 1.03,1.25 1,1.73 0.72,0.46 3.91,-0.8 1.17,-0.01 1.21,0.35 1.58,1.52 1.42,3.19 1.05,0.72 1.87,-0.14 0.76,-0.85 0.29,-0.65 1.07,-1.01 0.33,0.04 0.52,0.74 -0.02,1.11 -0.56,2.6 -0.11,2.75 0.28,2.66 0.6,2.08 0.03,1.13 -0.68,1.98 -1.27,1.74 -0.12,0.46 -1.39,1.3 -1.11,0.3 -1.48,-0.44 -1.15,0.27 -1.14,0.76 -0.88,1.24 -0.22,1.32 0.15,0.97 1.47,3.61 0.24,1.14 -0.47,1.43 -1.41,1.39 0.3,0.52 1.37,0.99 0.29,2.42 0.64,1.69 -0.17,1.73 -1.51,3.45 1.24,4.92 1.36,3.33 0.64,3.23 0.55,1.78 0.77,1.05 1.63,1 0.33,0.55 0.42,2.53 0.66,1.65 0.48,0.68 1,0.33 0.64,-0.25 0.73,-0.69 0.91,-0.08 0.69,0.67 1.11,2.13 -0.08,2.25 -0.45,2.99 0.4,3.71 -0.12,1.49 -0.38,1.09 0.06,0.97 0.6,1.18 1.12,1.51 0.47,1.39 -0.15,0.6 -2.12,3.29 -0.29,0.96 0.23,0.88 0.58,0.85 0.89,0.48 2.64,2.66 0.96,0.36 0.73,-0.19 0.99,0.24 1.13,1.11 0.84,1.76 0.3,1.58 -0.13,0.59 -3.29,2.68 -2.15,3.04 -1.46,0.83 -0.44,0.5 -0.73,1.16 -0.27,1.93 -1.32,1.17 -0.46,1.21 0.06,1 1.05,2.27 0.27,1.08 1.41,2.95 0.2,1.5 -0.05,3.68 0.33,1.55 0.64,0.43 0.92,0.1 1.17,0.87 0.34,0.72 0.63,0.73 1.64,0.35 2.02,1.68 0.55,-0.26 0.18,-0.74 -0.36,-2.33 0.15,-0.57 0.7,-0.24 0.82,0.34 1.93,1.8 1.69,0.85 0.73,1.29 -0.06,0.5 2.12,3.68 2.37,1.81 0.6,0.76 0.7,1.46 1.55,2.01 0.28,0.8 -0.21,0.93 0.28,1.28 -0.09,1 -0.45,0.91 -3.12,3.03 -0.06,0.47 0.38,2.09 0.63,1.17 0.53,0.59 0.87,1.92 -0.83,0.81 -1.45,0.44 -1.52,-0.01 -3.03,0.44 -1.44,0.55 -1.09,0.88 -2.91,1.46 -5.73,-0.02 -1.36,0.2 -1.31,0.78 -0.8,0.95 -0.16,0.69 0.18,1.54 -0.13,1.39 -0.38,1.02 -1.14,0.51 -0.8,0 -1.38,-4.99 -1.37,-1.27 -0.94,-1.2 -0.83,-2.12 -0.89,-1.29 -0.72,-1.5 -0.96,-0.65 -1.04,-1.64 -0.47,-0.31 -1.04,-0.13 -3.92,-1.54 -2.04,-1.1 -0.91,-0.16 -0.41,-0.31 -1.49,-0.61 -0.12,-0.56 -0.7,-0.78 -0.89,-1.78 -0.22,-0.15 -0.06,0.37 -0.34,0.35 -0.05,0.68 -0.29,0.49 -0.67,0.33 -0.04,0.3 -0.75,0.27 -0.21,-0.14 -0.23,0.05 -0.15,0.28 -0.67,0.22 -0.17,-0.18 -0.48,0.05 -0.17,0.19 -0.47,-0.02 -0.38,0.8 -0.59,0.14 -0.31,-0.07 -0.4,-0.57 -0.74,0.14 -0.34,-0.28 -0.26,-0.03 -1.71,0.34 -0.81,0.37 -1.56,-0.12 -0.83,0.54 -1.01,-1.63 -0.03,-1.15 -2.15,-1.07 -1.05,-0.03 -1.01,0.79 -1.14,-0.01 -1.39,0.55 -0.93,-0.38 -1.41,-0.95 -0.61,-0.07 -1.74,1.4 -0.79,0.47 -1.01,0.17 -0.92,-0.27 -1.43,0.03 -0.79,-0.36 -0.7,-0.58 -0.41,-0.96 0.3,-0.55 -0.08,-0.32 -1.34,-1.22 -1.02,-0.11 -1.13,0.11 -0.66,0.38 -0.25,0.3 -0.31,1.33 -0.21,0.27 -1.42,-0.11 -0.61,0.63 -0.54,0.16 -3.29,-0.44 -0.69,0.05 -0.94,-0.67 -1.13,-0.09 -0.94,-0.53 -0.61,-0.06 -0.88,1.51 -0.17,0.82 1.17,1.03 0.22,0.81 0.59,0.41 0.2,0.31 -0.22,0.22 -1.08,0.25 -0.85,1.81 -0.86,0.83 -0.68,0.18 -1.18,1.6 -1.74,0.29 -1.02,-0.79 -2.16,-0.02 -1.29,0.77 -0.48,0.56 -0.1,0.33 -0.95,0.25 -1.04,-0.23 -0.32,0.16 -0.01,0.33 -0.56,0.52 -0.86,0.22 -2.92,-0.38 -0.94,-0.48 -0.21,0.18 -0.03,0.29 0.09,1.04 -0.34,0.33 -0.32,0.06 -1.05,0.83 -0.65,0.26 -0.36,-0.77 -0.56,-0.07 -1.18,1.49 -1.26,0.98 -0.76,-0.26 -0.59,-0.75 -0.39,-0.17 -2.34,-0.32 -1.19,2.03 -0.06,0.79 -0.3,0.37 -2.03,-1.26 -0.57,-0.21 -0.3,0.05 -0.68,0.37 -0.57,0.02 -0.8,0.47 -1.36,0.43 -0.4,0.95 -0.42,0.38 -2.35,0.61 -1.31,1.22 -0.29,1.17 0.32,0.49 -0.33,0.59 -0.8,0.51 -0.91,0.34 -1.05,-0.82 -0.43,0.54 -0.81,0.41 -0.6,-0.95 -0.96,-0.21 -0.6,-0.62 -0.29,0.31 -0.39,0.15 -1.14,0.14 -0.19,0.56 0.27,0.63 -0.1,0.41 -0.45,0.27 -1.08,-0.64 -0.95,-0.28 -0.82,-1.35 -0.12,-0.59 -0.51,-0.38 -1.16,-0.03 -0.36,0.17 -0.42,-0.36 -0.92,-0.45 -0.99,-0.15 -0.81,0.44 -1.42,-0.17 -0.38,0.62 -0.22,0.73 -0.25,0.28 -0.56,-0.03 -1.35,-0.94 -0.93,-1.02 0.05,-1.59 -0.22,-0.1 -0.71,0.09 -0.23,-0.13 -0.13,-0.31 1.38,-1.59 0.22,-0.12 1.24,0.2 0.61,-0.43 0.21,-1.11 -0.52,-0.78 0.88,-2.04 0.79,0 0.68,0.77 2.19,-0.21 1.32,0.45 0.89,-1.12 1.11,0.24 0.8,-0.48 1.12,-0.09 0.46,-0.22 0.18,-0.2 0.11,-0.83 0.35,-0.48 1.09,-0.44 -0.08,-0.33 1.04,-0.23 -0.51,-0.94 0.17,-1.7 -0.21,-1.48 0.14,-0.25 -0.01,-0.72 -0.08,-0.73 -0.28,-0.55 0,-0.51 0.5,-0.51 0.07,-0.27 -0.25,-1.09 0.54,-4.19 -4.64,-0.07 -0.65,-0.42 -4.14,-1.25 -1.23,0.53 -1.02,1.14 -1.17,0.64 -0.7,-0.2 -0.74,-0.44 -1.74,-0.43 -1.57,-0.09 -2.11,-0.38 -0.13,-0.28 -0.6,0.04 -0.94,-0.69 -0.33,-0.01 -1.88,-1.56 -0.55,-0.1 -0.74,-0.61 -0.93,0.01 -1.31,-0.39 -0.29,0.3 -0.91,0.09 -0.17,-0.25 -0.99,0.11 -3.09,-0.08 -4.01,0.89 -0.8,0.59 -0.79,0.93 -0.38,0.08 -2.16,1.5 -0.46,0.12 -0.24,0.01 -0.43,-0.43 -0.04,-0.62 0.3,-0.64 -0.07,-0.4 -0.35,-0.5 -0.36,-0.03 -0.34,0.32 -0.47,-0.02 -0.47,-0.28 -0.14,-0.26 -1.14,-0.28 -1.06,0.01 -0.72,0.24 -0.5,-0.09 -0.82,0.15 -0.83,0.35 -0.76,0.55 -0.33,0.04 -0.64,0.59 -0.01,0.46 -0.19,0.27 -0.48,0.37 -1.57,0.53 -0.91,0.83 -0.19,0.44 0.08,0.2 -0.93,0.94 -0.16,0.36 -2.44,1.56 -0.96,0.23 -1.08,-0.59 -2.73,-0.07 -0.36,0.03 -1.53,0.7 -1.25,3.09 -0.62,0.88 -0.5,0.32 -0.75,0.13 -1.23,0.86 -0.42,1.21 0.16,0.51 -0.18,0.6 0.57,0.43 -1.05,1.72 -0.38,0.34 -1.3,0.57 -0.69,0.48 -0.42,-0.05 -0.31,0.3 -0.34,0.09 -0.21,0.28 -0.18,-0.07 -0.25,0.19 -0.4,-0.01 -0.24,0.25 -0.57,-0.02 -0.98,0.52 -0.72,-0.34 -0.64,0.07 -1.94,0.66 -0.68,-0.04 -0.56,0.27 -1.45,0.31 -0.3,0.5 -0.58,0.29 -1.54,0.1 -0.2,0.29 -1.21,0.54 -0.19,0.45 -0.23,0.15 -0.13,0.6 -0.54,0.2 -0.4,0.29 -0.11,0.25 -0.23,0.06 -0.12,0.21 0.08,0.26 -0.2,0.21 -0.25,-0.02 -0.26,0.55 -0.43,0.01 -0.54,0.76 -1.29,0.91 -0.09,0.24 -0.47,0.14 -0.77,0.61 -0.81,0.07 -0.1,0.21 -0.56,0.34 -0.04,0.2 -0.33,0 -0.76,0.31 -0.22,-0.29 -0.24,0.09 -0.38,-0.12 -0.94,-0.57 -0.66,0.34 -0.62,-0.12 -0.81,0.21 -1.99,1.98 -0.15,0.47 -0.51,0.46 -0.08,0.44 -0.58,0.32 -0.24,0.56 -0.53,0.43 -0.2,0.78 -0.25,0.13 -0.2,1.03 0.14,0.28 -0.28,0.07 -0.84,2.25 -0.08,0.61 -0.45,1.12 -0.21,0.17 -0.19,0.78 -0.52,0.58 -0.51,1.08 0.06,0.17 -0.25,0.67 -0.75,0.78 -0.08,0.37 -0.44,0.3 -0.42,1.05 -0.35,0.35 -0.04,0.44 -0.47,0.72 -0.84,0.57 -0.47,0.52 -0.09,0.61 0.3,0.11 -0.15,0.71 -1.27,1.37 -0.81,0.62 -0.88,2.11 -0.13,0.97 -0.51,0.74 -0.26,0.75 -0.33,0.01 -0.71,-0.49 -0.96,0.24 -0.8,-1.1 -1.26,-0.22 -1.57,0.66 -0.93,0.82 -0.51,0.19 -0.73,0.71 -0.72,0.21 -0.32,-0.27 -0.55,-0.05 -0.28,0.5 -0.27,0.18 -0.87,0.04 -0.98,0.39 -0.41,0.05 -0.31,-0.31 -0.65,0.01 -0.65,0.77 -0.34,-0.08 -0.26,0.23 -1.09,-0.29 -1.33,0.12 -0.14,0.15 -1.43,0.01 -0.72,0.6 -0.82,-0.23 -0.86,-0.83 -0.82,-0.05 -1.38,-0.69 -1.43,0.2 -0.24,-0.17 -1.14,0.28 -0.55,1.05 -0.26,-0.01 -0.41,0.29 -1.21,0.09 -0.65,0.41 -0.97,0.31 -0.5,-0.16 -0.71,0.11 -0.31,-0.3 -1.48,0.2 -0.58,0.8 -0.46,0.35 -0.82,0.04 -0.68,0.53 -1.08,0.03 -1.13,0.63 -0.94,0.82 -0.68,0.36 -0.38,0.53 -0.11,0.71 -0.51,0.33 -0.34,-0.07 -1.52,0.26 -0.59,0.29 -0.33,0.26 -0.85,1.33 -0.53,0.37 -1.94,0.28 -0.28,0.2 -0.45,0.76 -0.38,1.17 -0.39,0.48 -2.68,1.52 -1.63,1.55 -0.3,0.46 -1.04,-0.08 -0.21,0.18 -0.01,0.33 -0.19,0.22 -0.39,0.01 -1.05,0.7 -0.37,0.76 -0.21,1.12 -0.77,1.34 -0.89,-0.09 -0.9,0.56 -0.61,0.16 -0.4,-0.29 -0.85,0.21 -0.35,-0.17 -0.38,0.15 -1.21,1.07 -0.35,-0.04 -0.17,0.17 -0.23,1.03 -0.98,0.59 -0.76,0.09 -1.23,0.59 -0.14,0.32 -0.38,0.3 -0.41,1.31 -1.13,0.61 -1.06,1.51 -0.46,-0.09 -0.31,0.24 -2.29,2.86 -0.68,0.23 -1.88,1.09 -1.33,0.47 -0.6,0.35 -0.5,0.53 -0.65,0.16 -0.96,1.86 -2.34,2.06 -0.57,1.15 -0.92,0.37 -0.64,0.64 -0.31,0.01 -0.44,0.64 -0.46,-0.14 -1.01,0.16 -1.01,-0.32 -2.46,0.83 -0.73,0.1 -1.24,-0.09 -1.49,-0.34 -1.07,0.4 -1.43,0.1 -0.79,-0.2 -1.02,0.46 -0.75,0.15 -1.05,-0.43 -1.33,-0.23 -0.41,0.07 -0.61,0.58 -0.28,-0.01 -0.53,-0.35 -0.6,-0.77 -0.87,-0.75 -0.89,-0.37 -1.12,-0.03 -0.3,-0.3 -0.37,-0.45 -0.13,-0.56 -0.85,-1.73 -0.64,-0.39 -0.69,-0.79 -0.5,-0.17 -0.78,-0.94 -0.59,-0.41 -0.97,-1.35 -0.44,-1.02 -0.73,-1.09 -0.12,-0.99 -0.31,-0.71 -0.04,-1.2 -0.58,-0.97 -0.4,-2.09 -0.82,-1.98 -0.38,-1.66 0.09,-1.02 -0.23,-0.4 -0.55,-0.24 -0.87,-1.1 0.02,-0.46 0.3,-0.85 -0.34,-0.63 -0.54,-0.36 -0.22,-0.52 -0.04,-1.03 -0.54,-1.15 -0.46,-0.75 -0.97,-0.96 -0.71,-0.44 -0.17,-0.53 0.04,-0.6 -0.3,-0.84 -0.15,-0.23 -0.66,-0.3 -0.69,-1 -0.33,-0.99 0.02,-0.39 -0.45,-0.8 -0.07,-0.54 0.71,-2.52 -0.23,-0.31 -0.09,-1.04 0.11,-0.46 -0.28,-0.54 -0.1,-0.69 -0.48,-0.58 -0.14,-0.59 0.05,-0.4 0.25,-0.29 -0.48,-0.91 -0.67,-0.61 -0.35,-0.62 -0.54,-0.36 -0.36,-1.03 -0.83,-0.87 -0.14,-0.96 0.07,-0.72 -0.15,-0.14 0.04,-0.22 0.29,-0.16 0.04,-0.83 0.31,-1.03 0.72,-0.69 0.24,-0.77 -0.17,-0.51 0.19,-0.68 -0.39,-0.97 0.32,-0.86 -0.19,-0.26 -0.05,-0.52 0.38,-0.41 -0.08,-1.3 0.26,-0.11 0.09,-0.56 0.32,-0.36 -0.11,-0.8 -0.56,-1.48 0.55,-1.54 0.65,-0.01 0.48,-0.26 0.18,-0.73 -0.16,-0.69 -0.57,-0.56 -0.01,-0.48 -0.19,-0.27 0.13,-1.17 0.46,-0.21 -0.16,-0.45 0.58,-0.05 0.32,-0.7 0.83,-0.22 0.66,-0.66 -0.22,-0.05 -0.06,-0.2 0.17,-0.42 0.31,-0.2 0.17,-0.86 -0.27,-0.38 0.27,-0.92 -0.02,-0.52 0.57,-0.62 -0.27,-1 0.19,-0.76 0.47,-0.68 0.01,-0.51 -0.3,-0.55 0.15,-0.94 0.11,-0.25 0.96,-0.68 0.33,-0.82 -0.11,-0.44 -0.84,-0.48 -0.34,-0.76 -0.6,-0.51 -0.15,-0.68 0.52,-2.12 -0.15,-0.81 0.51,-1.22 -0.26,-0.41 -0.15,-0.79 -0.46,-0.49 -0.78,-0.11 -0.47,-0.59 0.14,-0.34 -0.04,-0.57 0.21,-0.35 -0.13,-0.58 0.25,-0.59 0.51,-0.11 0.86,0.2 0.54,-0.27 0.11,-0.33 -0.35,-0.57 0.11,-0.48 -0.1,-0.65 0.14,-0.66 0.47,-0.74 -0.08,-0.8 0.32,-0.63 0.02,-0.98 0.68,-0.39 0.96,-1.09 0.21,-0.33 0.03,-0.77 0.4,-0.68 -0.05,-0.36 -0.46,-0.5 -0.37,-0.99 -1.06,-1.85 -0.19,-0.76 -0.12,-1.77 -0.52,-0.74 -0.31,-0.08 -0.12,-0.33 0.29,-1 0.25,-0.29 0.08,-0.66 -0.11,-0.29 0.21,-0.28 0,-1.55 0.45,-2.6 -0.14,-1.66 0.87,-1.75 0.35,-0.32 0.48,-1.12 0.48,-0.64 0.2,-0.78 -0.25,-0.74 0.1,-0.41 -0.08,-1.05 0.18,-0.69 -0.26,-1.06 0.18,-0.82 0.54,-0.5 0.69,-1.3 0.57,-1.86 0.13,-0.94 0.48,-0.49 -0.28,-0.79 0.32,-0.9 -0.16,-0.45 0.02,-1.12 -1.83,-3.16 0.71,-0.8 0.54,-0.16 0.64,-1.16 3.97,-2.13 0.26,-0.23 0.32,-0.77 0.04,-0.48 -0.32,-1.28 -0.47,-0.87 0.07,-1.15 -0.35,-1.65 0.19,-0.81 0.28,-0.27 0.74,-1.91 0.14,-0.88 -0.69,-0.91 -0.21,-0.71 0.09,-0.31 -0.29,-0.25 -0.02,-1.09 0.55,-1.42 -0.11,-0.76 -0.1,-0.43 -1.35,-1.65 -0.81,-0.15 -1.58,-0.63 -0.98,-1.24 -1.36,-0.45 -0.19,-0.33 -0.52,-0.09 -1.02,0.13 -0.49,0.11 -1.06,0.57 -0.48,0.84 -0.49,0.44 -0.86,0.11 -0.85,0.31 -0.03,0.29 -0.83,0.69 -0.52,0.03 -1.31,0.86 -1.07,-0.07 -0.54,0.23 -0.34,0.25 -0.04,0.69 -0.79,0.82 -0.2,-0.27 -1.18,-0.01 -0.61,0.53 -0.45,-0.05 -0.34,0.25 -0.35,0.01 -0.43,-0.59 -0.72,0.17 -1.5,1.2 -1.02,0.56 -0.87,0.19 -1.48,0.95 -0.38,-1.08 0.02,-0.79 -1.12,-1.47 -0.07,-0.95 -0.6,-0.37 -1.09,-1.42 -0.18,-0.09 -0.69,0.08 -0.25,0.9 -0.58,0.8 -1.9,-0.22 -0.68,-0.45 -0.42,-0.95 0.14,-0.16 0.71,-0.06 0.02,-0.44 0.61,-0.23 0.04,-0.4 -0.4,-1.06 1.22,-2.01 -0.11,-1.37 -0.63,-0.93 0.22,-1 0.24,-0.4 0.62,0.09 0.14,-0.16 -0.01,-0.42 -0.37,-0.63 0,-0.3 0.39,-0.44 1.09,-0.59 0.51,-0.73 -0.17,-0.66 0.2,-0.96 -1.04,-0.24 -0.17,-1.13 0.54,-0.08 0.36,-0.31 0.69,0.35 0.39,-0.13 0.42,-0.53 0.33,-0.84 0.11,-0.9 0.33,-0.37 0.58,-0.33 0.06,-0.28 0.06,-0.5 -0.17,-0.61 0.24,-1.88 -0.49,-0.87 0.07,-0.16 0.78,-0.24 0.1,-0.73 0.26,-0.56 0.74,-0.27 0.28,-2.18 0.67,-1.44 0.13,-0.6 0.58,-0.53 0.56,0.24 0.79,-0.27 1.08,-1.38 -0.88,-1.5 -0.35,-3.21 0.45,-0.67 0.95,-0.72 0.12,-0.25 -0.01,-0.24 -0.45,-0.75 -0.57,-0.32 -0.29,-0.5 0.39,-0.94 0.39,-3.12 -0.87,-1.4 -0.97,-0.59 -0.43,0.07 -1.09,-0.19 -0.68,0.23 -0.27,-0.73 0.24,-0.6 -0.76,-0.68 0.74,-0.95 -0.52,-1.56 -0.54,-0.14 -0.65,0.31 -0.4,-0.09 -0.64,-0.29 -0.72,-0.74 -2.1,-0.29 -0.62,0.39 -0.66,-0.15 -0.74,0.32 -0.6,0.07 -0.7,-0.37 -0.24,-0.72 -1.1,-0.36 -0.93,-0.04 -0.65,-0.69 -0.6,-0.34 -1.12,-1.49 -0.35,-0.27 -0.95,-0.12 -0.57,-0.38 -0.09,-0.71 -0.3,-0.57 -0.49,-1.89 -0.92,-1.93 -0.84,-0.38 -0.8,-0.08 0.01,-1.08 -0.58,-0.65 -0.42,0.02 -0.39,0.62 -0.5,0.09 -0.26,-0.15 -0.41,-0.74 -0.47,-0.36 -1.19,0.12 -0.41,-0.57 0.43,-1.1 -0.55,-0.53 -0.5,-0.13 -0.76,0.07 -0.62,0.32 -0.97,0.97 -0.83,-0.16 -0.23,0.31 0.39,1.26 -0.62,0.54 -0.48,0.07 -0.23,-0.13 -0.36,-0.83 -0.67,-0.75 0,-1.32 -0.73,-1.01 -0.16,-1.82 -0.86,-1.32 0.24,-1.17 -1.04,-0.91 -0.67,-0.04 -0.6,-0.32 -0.93,-1 0.2,-0.49 -0.39,-0.6 -0.84,-0.4 -0.83,1.15 -0.61,0.55 -0.94,0.39 -0.38,-0.21 -0.9,-0.15 -0.76,0.16 -0.2,1.29 1.7,0.92 0.23,0.49 -0.54,1.21 0.12,0.72 -0.41,0.42 -0.73,-0.07 -0.41,-0.6 -0.71,0.14 -0.24,0.1 0,0.91 -0.84,0.47 -0.35,-0.02 -0.12,-0.62 -1.52,-0.46 0.1,-0.52 -0.76,-0.58 -0.05,-0.25 0.27,-0.8 -0.1,-0.46 -0.65,-0.83 -1.4,-0.56 -1,0.11 -0.69,1.02 -0.67,0.16 -0.12,0.53 0.4,0.37 0.03,0.2 -0.4,0.61 -0.25,0.74 -0.73,0.32 -0.34,-0.05 -0.21,-0.26 0.14,-0.63 -0.11,-0.23 -1.69,-0.82 -0.21,0.03 -0.34,0.81 -0.47,0.27 -0.68,0.11 -0.55,-0.08 -0.67,-0.57 -1,-0.1 -0.15,-0.22 -0.03,-0.49 -0.15,-0.07 -0.41,0.16 -0.98,-0.19 -0.33,0.48 -0.02,0.73 -0.48,0.67 -0.26,1.02 -0.41,0.88 -1.01,0.53 -1.1,0.81 -1.01,0.25 -1.84,-0.06 -0.6,-0.27 -0.29,-0.34 -0.25,0.04 -0.95,0.63 -1.27,1.11 -0.07,0.25 0.21,1.15 -0.28,0.78 0.07,0.21 0.8,0.2 0.29,-0.31 0.32,-0.08 0.49,0.48 0.14,0.38 -0.02,1.28 -0.37,0.64 -0.48,0.44 -1.21,0.35 -0.83,0.42 -0.23,0.16 0.07,0.52 -0.97,0.49 -1.16,0.09 -0.62,-0.49 -0.9,-0.1 -1.03,0.27 -0.8,0.54 0.11,1.32 -0.11,0.33 0.45,1.42 -0.43,0.92 -0.44,0.51 0.05,0.37 -0.21,0.61 0.46,1.1 -0.31,0.84 -0.11,0.9 -0.37,0.36 -2.46,0.86 -0.93,0.6 -0.3,0.25 -0.2,0.54 -0.61,0.44 -0.17,0.93 -1.14,1.13 -0.27,1.3 -0.47,1.03 0.02,1.97 -1.27,1.58 -0.36,0.13 -0.51,0.5 0.14,0.66 -0.48,0.96 -0.35,0.27 -0.09,0.94 -0.36,0.29 -0.31,1.01 0.05,0.99 -0.28,0.79 0.01,0.42 0.13,1.49 0.33,0.4 0.12,0.56 -0.02,0.33 -0.19,0.26 -0.55,0.18 -0.61,-0.27 -1.32,0.95 -0.19,0.61 -0.3,0.05 -0.84,0.69 -1.48,0.13 -0.73,0.5 -0.55,-0.37 -0.81,0.3 -1.24,1.44 -0.3,1.62 -0.21,0.13 -0.85,-0.11 -0.86,1.12 -1.63,0.7 -0.18,0.62 -0.2,0.19 -1.05,-0.05 -0.34,0.17 -0.1,0.5 0.42,0.44 0.06,0.38 -0.12,0.74 -0.26,0.29 -0.13,0.66 -0.28,0.34 -1.16,0.56 -0.23,0.63 -1.09,0.68 -0.16,0.97 -0.55,0.94 -0.17,0.11 -1.26,0 -0.87,0.49 -0.49,0.63 -0.56,0.41 -0.56,-0.05 0,0 -1.13,-1.65 -0.27,-2.35 0.09,-3.33 0.72,-2.15 0.92,-1.94 6.28,-11.17 0.63,-4.46 0.34,-8.6 0.65,-3.7 -0.12,-3.73 -0.76,-1.47 -1.37,-0.66 -1.18,-0.24 0.21,-0.82 -0.2,-0.21 0.84,-2.87 1.05,-2.87 3.07,-4.48 1.01,-1.01 8.91,-11.54 2.11,-2.24 0,0 0.17,0.23 0.69,-3.06 0.63,-1.97 0.7,-1.43 0.64,-0.88 0.99,-0.89 4.25,-2.71 1.46,-1.31 0.29,-3.09 -2.13,-5.18 16.52,-10.51 1.87,-0.81 1.19,1.25 -0.29,3.1 2.59,1.9 2.77,2.33 9.97,-5.55 1.64,-1.66 2.33,-0.47 1.84,-0.05 1.45,0.32 1.15,0.65 0.93,0.95 0.81,1.21 2.62,4.82 1.24,1.87 -1.12,4.36 -0.3,3.53 0.44,5.8 13.92,1.37 4,2.81 0.72,4.02 0.97,2.21 3.85,2.22 1.37,2.81 -0.04,2.01 0.2,-0.02 4.01,-5.89 2.62,0.48 5.69,3.58 0.24,-2.77 1.59,-0.94 1.01,-2.15 1.95,0.28 0.77,1.03 2.73,-0.48 0.45,-3.36 0.83,-2.36 1.17,-0.14 1.39,-1.33 1.56,-0.32 1.02,-2.34 1.4,-1.72 1.39,-0.93 1.02,-1.94 4.32,-0.97 0.76,1.64 0.98,0.05 2.98,-1.64 1.6,-1.52 3.13,1.16 0.96,1.24 1.4,-0.92 0.62,-1.17 1.8,-1.71 2.38,-0.48 1.01,-0.76 2.05,-4.09 3.6,-2.03 1.21,-1.74 2.38,-0.1 2.95,1.14 1.61,-1.53 3.14,1.74 2.23,-2.5 2.21,-1.71 1.04,-2.56 3.42,-2.25 1.8,-0.93 0.44,-2.39 3.37,0.74 2.15,2.48 3.79,0.14 -4.62,-9.98 -1.52,-4.86 -1.65,-10.04 2.67,-6.3 -0.36,-4 0.45,-5.17 4.41,-2.07 4.82,-1.3 0.67,-7.4 0.61,-0.39 0.14,-0.36 0,0 0.51,0.42 1.25,0.33 1.21,-0.3 0.45,-1.1 0.17,-3.59 0.89,-2.09 1.49,-2.56 2.21,-6.8 1.45,-2.05 2.08,-1.83 0.72,-0.33 2.88,0.5 1.01,-0.06 3.53,-1.67 1.61,-0.59 3.21,-0.67 0.8,-0.58 0.43,-0.73 0.4,-1.24 0.41,-0.54 0.73,-0.52 1.51,0.16 1.28,-0.29 1.24,0.46 0.78,0.56 0.71,1.75 1.15,0.71 1.71,0.05 1.7,-0.9 0.98,-1.38 1.09,-2.08 0.99,-0.57 3.23,0.85 2.25,-0.48 1.26,0.09 8.19,4.29 0.18,1.09 0.54,0.42 0.78,-0.33 2.97,-1.75 0.77,-0.2 1.35,0.6 3.28,0.23 1.41,-0.35 2.62,-1.21 1.67,-0.32 0.91,0.44 1.31,1.17 1.24,0.34 2.34,-0.84 1.55,-0.34 2.1,0.6 1.38,0.22 1.35,-0.22 1.52,-0.9 3.9,-1.49 1.74,0.44 3.18,1.56 3.39,0.44 1.41,-0.28 1.08,-0.05 1.19,0.16 0.54,-0.47 0.88,-3.29 1.21,-2.76 0.65,-0.2 2.17,2.37 1.87,0.33 2.91,0.09 2.72,-0.75 1.57,-0.76 0.95,-1.64 1.37,-3.89 0.58,-0.97 0.68,-0.58 1.31,0.29 1.47,0.68 1.03,-0.3 1.27,-0.79 2.23,-1.8 3.07,-0.4 1.77,0.14 z" 
                fill="rgb(151, 144, 238)" 
                stroke="white" 
                stroke-width=".7px"
                title="Gorno-Badakhshan" 
                id="TJ-GB" 
            />
        </svg>