<svg xmlns="http://www.w3.org/2000/svg" viewBox="40.9003280000003 305.7873199999999 277.9200019999995 233.17000000000053" width="277.9200019999995" height="233.17000000000053">
            <path 
                d="m 91.980328,407.67732 -0.17,0.97 0.21,0.59 -0.37,0.86 0.24,1.18 -0.37,0.84 0.04,1.38 -1.16,0.94 5.71,4.11 2.79,1.09 3.770002,0.61 4.73,0.07 5.71,-0.58 0.68,3.1 1.24,2.09 2.37,0.06 3.3,-1.55 0.11,-3.15 0.71,-2.81 0.93,-2.43 -0.05,-1.78 0.36,-1.61 1,0.54 1.18,-0.46 0.38,-1.01 -0.23,-10.82 -0.61,-0.78 -1.18,0.67 -1.19,0.26 -2,-0.5 -2.57,0.75 -1.21,-0.54 -0.02,-1.22 0.96,-1.67 0.75,-2.68 4.43,-12.05 3.47,-6.26 0.02,-1.24 -1.8,-4.05 1.19,-0.66 3.37,-5.23 3.79,-0.14 1.75,-1.12 3.21,-2.91 1.39,-1.06 2.19,-0.67 0.59,-2.67 0.6,-0.01 0.39,-0.21 1.41,2.42 4.39,0.92 3.97,-2.72 2.98,-1.28 2.19,-1.45 1.98,-1.66 2.39,-0.43 2.2,1.59 1.19,-0.62 1.78,-1.44 0.2,-0.61 0.99,0.19 1.4,0.99 2.59,-0.43 2.79,1.39 1.39,0.19 0.39,-2.23 0.99,-0.01 1.2,1.2 0.79,-1.02 2.15,-6.9 1.38,-2.04 5.98,1.38 0.8,-0.21 5.18,-0.43 3,0.99 3,2.62 6.58,-1.65 1.99,-2.24 3.01,1.21 1.8,-0.42 1.8,-0.21 1,-0.4 2.99,-2.04 1.21,0.81 0.22,6.88 0.41,2.42 0.79,-1.42 2.4,-2.43 1.14,-2.38 1.74,-2.87 0.92,-1.24 1.2,-0.81 2.67,-2.54 2.76,-1.33 1.41,-3.25 2.83,-4.69 1.41,0.2 2.84,-3.07 2.33,1.39 2.71,1.1 1.62,-0.25 1.73,-2.06 3.38,-7.56 4.69,-5.75 3.08,-4.94 1.43,-0.41 2.43,1.66 6.53,-2.24 1.79,4.75 3.04,0.85 1.4,2.28 1.01,1.03 2.63,0.65 1,1.66 1.4,1.66 1.19,2.07 -0.67,5.75 -0.25,3.7 2.03,-0.18 1.83,-1.21 1.24,-2.03 1.63,-0.18 1.24,-2.04 1.63,-0.59 6.73,-3.37 3.84,0.69 2.94,2.37 4.16,2.94 2.1,2.1 2.55,3.3 0,0 -2.11,2.24 -8.91,11.54 -1.01,1.01 -3.07,4.48 -1.05,2.87 -0.84,2.87 0.2,0.21 -0.21,0.82 1.18,0.24 1.37,0.66 0.76,1.47 0.12,3.73 -0.65,3.7 -0.34,8.6 -0.63,4.46 -6.28,11.17 -0.92,1.94 -0.72,2.15 -0.09,3.33 0.27,2.35 1.13,1.65 0,0 -0.33,1.11 0.01,0.75 -0.2,0.37 -0.24,0.06 -0.71,-0.52 -0.62,0.04 -0.16,-0.09 -0.13,-0.42 -0.39,-0.3 -0.29,0.09 -0.13,1 0.63,1.16 0.12,1.33 0.86,0.81 -0.04,0.25 -0.67,0.61 -0.45,0.16 -0.37,-0.08 -0.73,-0.8 -1.14,-0.02 -0.82,0.63 -1.12,0.39 -1.09,0.65 0.16,0.93 -0.04,0.35 -0.12,0.03 -1.23,-1.04 -0.3,-0.89 -0.76,-1.32 -0.46,-0.24 -0.35,0.26 -0.35,1.39 -0.74,0.48 -0.04,0.23 0.69,1.95 -0.02,0.66 0.22,0.95 -0.28,0.66 0.58,1.27 -0.05,0.24 -0.97,0.91 0.58,0.97 0.05,0.88 0.36,0.39 0.43,1.76 0.24,0.34 0.47,0.19 1.12,0.16 1.21,0.83 0.41,0.53 0.71,0.09 2.1,-0.19 0.7,0.14 0.76,0.66 0.62,1.07 0.55,0.35 0.56,-0.06 0.16,0.18 0.02,0.58 -0.64,1.7 0.24,0.53 -0.21,0.56 0.36,0.58 0.17,0.65 0.79,0.44 0.27,0.45 0.58,0.39 0.06,0.34 -0.78,1.47 -0.16,0.84 0.52,0.71 0.75,1.48 -0.28,1.09 -0.95,0.72 -0.01,0.28 0.32,1.12 0.21,0.29 0.38,-0.01 0.46,0.19 0.16,0.21 0.22,0.59 -0.01,0.56 -1.92,0.86 -0.14,0.24 0.05,0.3 0.23,0.14 0.07,0.27 -0.72,0.29 -0.45,2.79 -0.39,0.42 -0.74,0.25 -0.22,0.42 -0.09,1.13 0.3,0.24 -0.02,1.05 0.36,0.99 -0.09,0.92 -0.32,0.57 -0.71,-0.18 -0.13,0.23 -0.26,0.03 -0.23,-0.25 -0.13,-0.56 -0.34,0.04 -0.25,0.2 -1.02,0.08 -1.02,0.43 -0.91,0.12 -0.06,1.32 0.69,0.87 0.1,0.71 -0.44,0.17 -1.25,-0.24 -0.23,0.17 0.04,0.39 0.7,0.51 0.33,0.7 -0.19,0.51 -0.94,-0.2 -0.61,0.6 -0.42,0.11 -1.08,-1.09 -0.21,-0.04 -0.23,0.17 -0.06,0.33 0.41,0.71 0.1,1.08 -0.07,0.25 -0.77,0.79 -0.03,1.64 -0.22,0.58 -0.53,0.13 -0.31,-0.11 -0.52,-0.94 -0.23,-0.13 -0.22,0.28 -0.21,0.03 -0.57,1.21 -0.41,0.24 -1.29,-0.14 -0.34,-0.23 -1,0.39 -0.29,-0.02 -1.23,-0.98 -0.84,-0.28 -0.76,0.11 -0.31,-0.1 -0.73,-0.94 -0.95,-0.15 -0.81,-0.73 -0.25,-0.03 -0.67,0.7 -0.2,-0.01 -0.32,-0.69 -0.5,-0.35 -0.7,-0.01 -0.73,0.45 -0.54,-0.07 -0.49,-0.66 -1.37,-0.64 -0.59,-1.67 -0.18,-0.12 -3.01,0.44 -1.1,-0.2 -0.49,-0.48 0.04,-0.61 -0.17,-0.87 0.09,-1.07 -0.38,-0.54 -0.48,-1.56 -0.22,-0.2 -0.74,0.15 -1.56,-0.62 -1.24,-0.26 -4.43,0.23 -0.98,0.33 -0.85,0.49 -0.91,0.79 -0.39,0.56 -1.51,2.9 -0.64,0.3 -0.76,-0.04 -0.55,-0.23 -1.28,-0.92 -1.2,-0.62 -2.1,-0.13 -1.01,-0.29 -1.19,0.23 -1.73,1.19 -0.88,0.25 -1.02,0.02 -1.31,-0.27 -1.21,0.24 -1.02,-0.21 -1.28,0.2 -0.69,-0.16 -1.6,0.01 -1,0.36 -0.86,0.08 -0.38,-0.18 -1.8,-0.1 -0.42,-0.21 -1.37,-0.21 -0.85,-0.41 -1.22,-0.27 -0.66,-0.76 -0.33,-0.19 -0.43,0.05 -0.45,0.37 -0.67,0.97 -0.27,1.03 -0.94,1.74 0.08,1.11 -0.11,0.33 -0.93,0.66 -0.57,0.85 -0.42,1.85 -1.31,-0.02 -0.58,0.14 -1.29,1.17 -0.36,0.61 -0.29,-0.08 -0.26,0.2 0.22,0.89 -0.36,0.54 -0.11,0.7 -0.44,0.13 -0.78,-0.32 -0.64,0.25 -0.67,1.98 -0.72,0.93 -0.51,1.22 -0.49,0.29 -1.5,0.36 -0.45,0.61 -0.26,0.9 -1.03,0.73 0.22,0.66 0,0.65 -0.81,2.08 0.25,0.68 0.73,0.6 0.07,0.29 -0.87,1.28 0.27,0.92 0.37,0.52 0.19,1.48 0.18,0.13 0.84,-0.04 0.24,0.24 0.17,0.54 -0.06,0.33 -0.89,0.54 -0.34,2.78 0.31,0.97 0.72,0.64 0.86,-0.42 0.41,0.05 0.02,0.65 -0.61,0.83 0.04,0.33 0.19,0.34 1.1,0.77 0.36,0.54 -0.01,0.35 -0.85,0.86 0.07,0.56 0.81,1.03 0.39,1.24 -0.03,0.44 -0.53,1.35 -0.07,0.44 0.14,0.49 0.47,0.28 0.7,0.06 1.99,-0.48 0.44,0.22 0.16,0.31 -0.14,0.54 -0.96,1.43 -1.56,1.96 -0.32,1.17 -1.94,3.35 -0.29,0.33 -2.26,-0.23 -0.98,0.43 -1.03,1.1 -1.31,0.99 -1.1,1.14 -0.66,1.76 -0.31,0.6 -0.34,0.24 -0.9,0.29 -2.32,0.23 -1.41,1.3 -1.17,0.1 -0.48,0.22 -0.26,0.73 -0.68,0.18 -0.66,-0.21 -0.45,-0.38 -0.52,-0.89 -1.24,-0.95 -0.45,-1.2 -0.9,-0.97 -2.95,-1.75 -0.92,-0.23 -3.64,-2.49 -1.19,-0.97 -0.77,-0.33 -1.42,-2.26 -1.16,-3.05 -0.53,-1.02 -1.21,-1.06 -3.19,-1.85 -1.22,-1.03 -3.89,-5.34 -1.69,-1.16 -0.27,-0.36 -0.31,-0.94 -1.76,-0.9 -1.13,-0.29 -0.22,0.04 -0.73,0.8 -0.59,-0.11 -0.55,-0.3 -1.11,-1.15 -0.63,-0.29 -0.9,0.45 -0.29,0.68 0.56,2.72 0.45,0.98 0.66,0.58 1.14,0.39 0.53,0.83 0.03,0.35 -0.17,0.41 -1.5,1.17 -0.85,0.17 -0.75,-0.39 -0.37,-0.35 -0.53,-1.25 -1.87,-2.75 -2.65,-1.64 -0.83,-0.19 -1.32,0.72 -0.77,0.77 -0.64,1.9 0.61,2.11 0.64,0.73 1.07,0.49 0.47,1.01 -0.26,1.11 -0.94,0.66 -0.65,0.18 -0.59,-0.11 -0.59,-0.44 -0.42,-0.57 -0.27,-0.39 -0.24,-0.89 -0.34,-2.4 -0.17,-0.45 -0.51,-0.38 -0.88,-0.14 -2.56,1.04 -1.85,1.53 -1.28,-0.14 -3.7,-1.33 -0.53,0.12 -0.6,0.54 -0.18,0.72 0.27,0.94 0.73,1.04 0.38,1.22 -0.14,0.36 -0.5,0.41 -0.48,0.07 -1.39,-1.41 -0.27,-0.04 -0.49,0.34 -0.4,0.59 0.31,0.88 -0.28,2.06 -0.69,1.33 -1.1,0.31 -0.66,0.01 -1.54,1.17 -4.71,0.99 -0.28,0.18 -1.39,2.03 -1.16,0.89 -1.46,0.21 -1.7,-0.56 -1.34,0.19 -0.72,0.77 -0.6,0.97 -0.69,0.66 -0.61,0.05 -2.06,-1.17 -0.31,-0.04 -0.56,0.21 -0.5,0.55 -0.93,1.8 -0.08,1.11 -0.21,0.29 -1.4,0.84 -0.79,1.6 -0.96,0.95 -2.2,-0.17 -1.610002,-0.87 -0.84,-0.27 -2.42,-0.02 -1.7,0.57 -0.76,0.81 -0.75,1.66 -0.52,2.27 0.12,0.91 -0.18,3.37 -0.52,1.78 -0.44,0.64 -0.53,0.47 -0.58,0.33 -1.03,0.17 -0.46,-0.1 -1.23,-0.54 -2.37,-1.49 -0.47,-0.2 -0.67,0.07 -0.73,0.34 -3.22,2.22 -0.63,0.68 -1.1,0.72 -0.81,1.09 -1.38,0.26 -1.13,0.89 -1.39,1.46 -1.05,1.68 -1.07,0.34 -0.72,0.61 -0.66,0.34 -2.12,0.46 -0.69,0.46 -1.33,0.44 -2.64,-1.25 -0.81,-1.83 -0.12,-1.35 -1.04,-1.77 -0.94,-0.49 -2.2,-0.57 -1.73,-0.71 -2.09,-1.61 -0.58,-0.98 -0.35,-4.57 -0.55,-1.13 -0.85,-0.79 -0.77,-0.2 -2.47,0.15 -1.61,-0.11 -1.63,-0.37 -1.73,-0.73 -1.31,-0.77 -1.37,-1.34 -0.09,-0.41 0.09,-1.38 0.65,-2.42 0.07,-4.15 0.43,-1.82 -0.2,-0.91 -0.46,-1.01 1.51,-0.97 1.57,-5.37 0.58,-4.66 0.67,-10.06 -0.57,-8.87 0.1,-5.66 2.62,-8.57 2.51,-2.17 1.01,-1.22 2.82,-5.37 2.32,-5.38 5.07,-6.57 3.01,-2.17 2.55,-3.65 6.99,-14.94 1.8,-3.18 8.95,-1.54 2.75,-1.18 2.76,-1.42 0.79,-1.97 -0.21,-1.74 z" 
                fill="rgb(151, 144, 238)" 
                stroke="white" 
                stroke-width=".7px"
                title="Khatlon" 
                id="TJ-KT" 
            />
        </svg>