<svg xmlns="http://www.w3.org/2000/svg" viewBox="68.82033 191.02731999999963 426.1199999999998 233.9600000000005" width="426.1199999999998" height="233.9600000000005">
            <path 
                d="m 426.69033,196.19732 0.12,2.22 -0.34,1.63 -1.05,1.65 -0.42,1.94 0.03,1.71 0.9,4.3 1,2.33 1.48,0.78 3.7,0.53 1.36,0.64 1.45,0.02 2.14,-0.76 1.37,-0.68 3.27,-0.7 2.39,0.21 1.92,-0.33 1.2,0.07 2.62,1.73 1.15,1.97 0.62,3.39 -0.36,2.88 -0.42,0.74 -2.35,1.12 -1.64,2.12 -0.45,3.51 0.84,1.76 1.96,3.21 1.07,1.07 1.17,0.57 1.65,-0.15 1.82,-0.9 1.03,-0.2 3.39,0.27 2.1,0.76 1.16,-0.25 0.78,-0.39 1.3,-2.77 1.34,-2.19 1.37,-1.75 1.35,-0.42 2.45,-1.75 1.73,-0.4 2.4,-2.07 0.75,0.24 0.78,0.62 0.82,1.06 0.71,3.9 1.25,2.29 0.79,2.57 1.14,1.84 1.02,0.88 1.14,0.01 1.09,-0.18 3.2,0.2 0.87,0.37 1.35,2.55 0.89,0.87 1.88,1.32 0.62,1.17 0.21,1.6 -0.08,1.31 0.42,1.42 0.8,0.67 0,0 -0.14,0.36 -0.61,0.39 -0.67,7.4 -4.82,1.3 -4.41,2.07 -0.45,5.17 0.36,4 -2.67,6.3 1.65,10.04 1.52,4.86 4.62,9.98 -3.79,-0.14 -2.15,-2.48 -3.37,-0.74 -0.44,2.39 -1.8,0.93 -3.42,2.25 -1.04,2.56 -2.21,1.71 -2.23,2.5 -3.14,-1.74 -1.61,1.53 -2.95,-1.14 -2.38,0.1 -1.21,1.74 -3.6,2.03 -2.05,4.09 -1.01,0.76 -2.38,0.48 -1.8,1.71 -0.62,1.17 -1.4,0.92 -0.96,-1.24 -3.13,-1.16 -1.6,1.52 -2.98,1.64 -0.98,-0.05 -0.76,-1.64 -4.32,0.97 -1.02,1.94 -1.39,0.93 -1.4,1.72 -1.02,2.34 -1.56,0.32 -1.39,1.33 -1.17,0.14 -0.83,2.36 -0.45,3.36 -2.73,0.48 -0.77,-1.03 -1.95,-0.28 -1.01,2.15 -1.59,0.94 -0.24,2.77 -5.69,-3.58 -2.62,-0.48 -4.01,5.89 -0.2,0.02 0.04,-2.01 -1.37,-2.81 -3.85,-2.22 -0.97,-2.21 -0.72,-4.02 -4,-2.81 -13.92,-1.37 -0.44,-5.8 0.3,-3.53 1.12,-4.36 -1.24,-1.87 -2.62,-4.82 -0.81,-1.21 -0.93,-0.95 -1.15,-0.65 -1.45,-0.32 -1.84,0.05 -2.33,0.47 -1.64,1.66 -9.97,5.55 -2.77,-2.33 -2.59,-1.9 0.29,-3.1 -1.19,-1.25 -1.87,0.81 -16.52,10.51 2.13,5.18 -0.29,3.09 -1.46,1.31 -4.25,2.71 -0.99,0.89 -0.64,0.88 -0.7,1.43 -0.63,1.97 -0.69,3.06 -0.17,-0.23 0,0 -2.55,-3.3 -2.1,-2.1 -4.16,-2.94 -2.94,-2.37 -3.84,-0.69 -6.73,3.37 -1.63,0.59 -1.24,2.04 -1.63,0.18 -1.24,2.03 -1.83,1.21 -2.03,0.18 0.25,-3.7 0.67,-5.75 -1.19,-2.07 -1.4,-1.66 -1,-1.66 -2.63,-0.65 -1.01,-1.03 -1.4,-2.28 -3.04,-0.85 -1.79,-4.75 -6.53,2.24 -2.43,-1.66 -1.43,0.41 -3.08,4.94 -4.69,5.75 -3.38,7.56 -1.73,2.06 -1.62,0.25 -2.71,-1.1 -2.33,-1.39 -2.84,3.07 -1.41,-0.2 -2.83,4.69 -1.41,3.25 -2.76,1.33 -2.67,2.54 -1.2,0.81 -0.92,1.24 -1.74,2.87 -1.14,2.38 -2.4,2.43 -0.79,1.42 -0.41,-2.42 -0.22,-6.88 -1.21,-0.81 -2.99,2.04 -1,0.4 -1.8,0.21 -1.8,0.42 -3.01,-1.21 -1.99,2.24 -6.58,1.65 -3,-2.62 -3,-0.99 -5.18,0.43 -0.8,0.21 -5.98,-1.38 -1.38,2.04 -2.15,6.9 -0.79,1.02 -1.2,-1.2 -0.99,0.01 -0.39,2.23 -1.39,-0.19 -2.79,-1.39 -2.59,0.43 -1.4,-0.99 -0.99,-0.19 -0.2,0.61 -1.78,1.44 -1.19,0.62 -2.2,-1.59 -2.39,0.43 -1.98,1.66 -2.19,1.45 -2.98,1.28 -3.97,2.72 -4.39,-0.92 -1.41,-2.42 -0.39,0.21 -0.6,0.01 -0.59,2.67 -2.19,0.67 -1.39,1.06 -3.21,2.91 -1.75,1.12 -3.79,0.14 -3.37,5.23 -1.19,0.66 1.8,4.05 -0.02,1.24 -3.47,6.26 -4.43,12.05 -0.75,2.68 -0.96,1.67 0.02,1.22 1.21,0.54 2.57,-0.75 2,0.5 1.19,-0.26 1.18,-0.67 0.61,0.78 0.23,10.82 -0.38,1.01 -1.18,0.46 -1,-0.54 -0.36,1.61 0.05,1.78 -0.93,2.43 -0.71,2.81 -0.11,3.15 -3.3,1.55 -2.37,-0.06 -1.24,-2.09 -0.68,-3.1 -5.71,0.58 -4.73,-0.07 -3.770002,-0.61 -2.79,-1.09 -5.71,-4.11 1.16,-0.94 -0.04,-1.38 0.37,-0.84 -0.24,-1.18 0.37,-0.86 -0.21,-0.59 0.17,-0.97 0,0 0.15,-0.35 -0.17,-3.48 3.63,-6.86 2.55,-2.91 1.78,-1.45 0.760002,-0.98 0.32,-2.72 2.99,-10.61 0.04,-1.74 -2.41,-3.29 -1.61,-2.93 -0.04,-0.84 -4.36,-5.58 -2.2,-1.55 -3.2,-1.56 -2.97,-1.07 -0.49,-0.5 -0.22,-1.25 0.04,-1.75 -0.46,-1.75 -3.12,-5.3 -3.7,-2.08 -1,-0.02 -3.27,1.42 -1,-0.02 0.55,-2.23 1.28,-1.72 0.78,-1.48 0.8,-2.47 -2.2,-1.8 -5.35,-7.1 0.43,-8.99 0.29,-1.49 0.02,-1.25 1.03,-1.23 0.02,-1 -1.92,-4.29 -0.93,-3.27 1.03,-1.23 1.78,-1.47 2.51,-0.2 1.01,-0.23 0.78,-1.48 -4.87,-6.87 -0.72,-1.26 0.78,-1.23 5.53,-0.9 2.27,-0.7 1.3,-1.98 1.53,-0.97 1.26,-0.47 -0.24,-2 0,0 0.93,-0.11 0.39,-1.56 2.63,-0.57 1.62,-3.3 5.48,-5.07 1.4,-0.1 1.85,-1.67 1.43,-0.8 0.79,-0.04 1.33,0.38 6.21,3.49 3.74,-1.35 4.48,0.2 1.79,-1.38 1.79,-1.78 1.95,-0.4 4.51,-1.42 1.78,-1.2 1.21,-2.18 0.28,-3.94 1.2,-1.59 3.5,-0.43 4.88,-1.05 2.55,-1.42 2.92,-0.44 2.91,0.33 1.75,-0.24 1.38,-0.81 3.33,-1.26 2.31,1.87 2.53,-0.07 2.75,-1.25 2.74,-0.07 1.56,0.99 4.53,4.09 2.96,1.65 0.59,0.2 1.18,-0.62 5.13,-0.22 2.97,1.24 1.2,1.86 3.19,3.52 1.99,0.41 3.18,0 3.78,-2.08 4.17,-2.7 3.19,-2.29 1.78,-2.29 2,-1.25 2.62,0.41 2.83,1.44 6.68,2.88 1.42,0.2 1.21,-1.46 -0.42,-2.28 -1.23,-1.87 -0.01,-1.66 0.59,-2.08 2.63,-0.86 6.05,-2.76 0.85,-0.05 0.75,0.38 0.74,0.9 0.83,1.53 2.66,5.95 1.44,4.98 1.02,0.61 2.45,-0.85 1.43,-2.1 1.23,-1.05 3.48,3.09 1.64,0.61 0.82,-1.47 -0.41,-1.87 3.08,-2.95 0.21,0 -0.82,-1.45 0.41,-2.3 0.01,-3.97 -0.62,-3.13 1.45,-3.14 1.04,-1.69 -5.6,-8.91 4.37,-3.61 2.5,-1.7 0.23,-4.58 3.35,-0.66 2.91,2.69 2.31,-1.05 2.11,-2.07 2.95,-1.42 1.23,2.5 0.59,2.29 2.73,-0.36 2.59,-4.23 1.7,-1.38 2.33,-0.33 2.48,2.33 1.24,0.86 2.92,1.53 3.64,-1.74 3.61,-0.11 2.66,-2.84 4.2,-3.27 3,-0.14 3.55,1.77 3.2,-0.31 2.72,0.72 2.63,-2.57 4.77,1.67 1.4,-4.8 3.74,0.22 4.21,-0.75 1.85,-4.3 3.75,-0.15 1.63,-3.07 4.07,-2.98 0,0 3.32,2.02 0.89,1.24 0.73,2 0.13,1.21 0.02,3.54 0.33,1.03 0.19,2.54 0.54,0.65 1.55,0.65 2.77,0.13 2.29,-0.2 2.3,-0.46 0.76,0.04 1.23,0.57 1.22,0.94 2.1,-0.21 0.99,-0.9 1.31,-2.21 0.07,-2.59 0.55,-0.92 1.02,-0.14 0.86,0.55 1.54,2.04 1.95,1.55 1.51,0.08 2.35,-0.2 2.06,-0.65 1.49,-0.68 0.67,-0.73 0.84,-1.66 -0.31,-5.01 0.32,-1.39 0.89,-2.41 1,-0.96 1.36,-0.5 1.52,-0.05 4.28,0.41 2.44,-0.5 1.24,-0.69 3.49,-2.54 0.45,-1.24 0.93,-0.91 0.55,0.41 1.97,3.4 0.92,0.69 0.89,-0.02 1.24,-0.69 2.17,-2.67 0.57,-1.11 0.12,-2.21 1.95,-0.91 0.64,-0.09 3.2,0.55 2.28,0.13 2.13,-0.84 2.51,-1.82 1.9,-2.18 0.92,-0.64 1.15,-0.13 2.78,1.49 2.55,1.98 z" 
                fill="rgb(151, 144, 238)" 
                stroke="white" 
                stroke-width=".7px"
                title="Region of Republican Subordination" 
                id="TJ-RR" 
            />
        </svg>