<svg xmlns="http://www.w3.org/2000/svg" viewBox="0.2503278999996732 0.2573154000007736 367.57000210000024 288.8400045999997" width="367.57000210000024" height="288.8400045999997">
            <path 
                d="m 333.56033,158.39732 3.17,0.55 2.27,-0.73 1.86,-0.1 1.05,0.69 0.89,2.96 -3.63,2.53 -3.75,-0.35 -0.31,3.15 -0.94,2.5 -1.81,1.03 -2.38,-2.12 -1.67,-4.41 -5.29,-3.09 -3,-1.21 0.08,-2.43 0.96,-1.44 0.42,-0.01 4.77,1.09 4.32,0.72 2.99,0.67 z m 3.58,-139.810005 -0.45,0.77 -3.88,-5.1 -3.14,-4.4299997 -2.69,-1.98 -2.24,-0.06 -0.43,-1.5 0.6,-1.04 1.61,-1.23 -0.6,0.83 2.66,1.13 3.33,3.91 3.82,5.1999997 1.41,3.5 z m -21.75,-17.7699996 0.31,0.11 0.7,-0.16 1.61,0.8899999 0.2,0.85 0.4,0.65 1.41,1.31 1.02,0.66 0.15,1.36 0.71,0.52 1.95,2.64 0.67,-0.11 0.83,0.16 0.2,0.7699997 1.02,2.26 1.32,1.46 0.91,1.31 0.87,1.97 2.44,3.64 0.5,1.29 0.23,0.15 -0.03,0.35 0.32,0.81 0.59,0.01 0.27,0.81 1.29,0.9 0.85,0.94 1.24,3.03 1.84,0.69 1.17,1.04 0.67,1.17 0.94,1.02 -1.05,0.83 -0.38,-0.2 -0.65,0.39 0.17,0.72 -0.43,0.64 -0.82,0.23 -1.26,-0.55 -1.05,-2.68 -0.82,2.74 0.08,1.57 0.7,1.42 1.83,-0.53 1.56,0.02 0.57,0.2 0.59,0 1.89,0.99 -0.61,0.39 1.98,0.1 0.95,0.5 1.63,1.27 0.59,0.61 0.51,0.96 -0.15,0.71 -1.29,1.15 -0.66,2.23 -0.96,1.28 -1.46,0.09 -0.63,-0.56 -0.69,0.51 0.4,2.18 -0.1,1.47 -0.72,-0.07 -0.89,-0.62 -2.14,0.48 -0.91,1.09 -0.91,0.18 -0.33,0.63 -1.14,0.37 -1.49,1.62 -1.44,0.39 -0.79,0.84 -2.46,4.92 -1.93,2.44 -0.95,0.36 -1.58,0.04 -1.05,0.8 -1.71,-0.15 -1.31,0.18 -0.89,0.48 -0.43,0.88 -0.3,1.97 -0.98,0.98 -0.26,1.78 -1.04,0.92 -1.77,-0.01 -1.12,0.53 -3.42,1.06 -2.42,1.27 -2.65,0.49 -2.2,1.79 -1.8,0.48 -0.28,0.44 0.12,1.34 1.24,2.64 0.78,1.27 0.32,1.64 0.62,0.21 0.65,0.7 1,2.45 0.75,0.81 1,0.46 0.95,0.07 2,-0.94 0.7,-0.01 1.59,0.49 0.61,0.4 3.61,0.73 6.43,2.88 1.64,1.47 0.53,1.22 -0.32,1.94 0.81,2.030005 0.41,1.84 -0.83,2.18 -0.15,2.82 -0.29,0.26 1.18,2.07 1.57,0.86 0.72,1.94 0.76,1 0.88,2.12 0.97,1.62 0.91,0.56 0.92,0.19 3.31,-0.79 3.24,-0.48 0.38,-0.26 3.09,-0.26 2.74,-0.72 0.76,-0.01 5.45,-2.42 3.76,-2.79 0.59,0.18 2.44,-0.58 1.88,-0.19 5.27,-0.15 1.23,0.85 0.41,0.86 0.07,0.73 -0.3,1.36 -0.03,1.74 -0.32,0.29 -0.69,2.69 -0.87,0.87 -0.72,0.16 -0.14,0.25 -2.47,0.64 -1.06,0.72 -0.97,0.08 -5.07,-2.6 -1.91,-0.36 -0.97,0.14 -0.84,0.74 -0.94,4.25 -0.67,1.19 -1.81,1.4 -1.39,1.41 -1.86,1.04 -3.96,0.46 -3.94,-0.22 -1.52,0.66 -0.77,0.89 -0.5,1.37 0.04,0.78 0.58,0 -0.05,0.7 0.17,0.53 0.08,1.75 -0.29,1.04 0.52,1.57 -0.47,0.67 -0.65,1.75 -0.98,2.05 0.03,0.9 -0.62,0.69 -1.39,0.23 -5.03,3.65 -0.82,0.08 -0.87,0.75 -0.65,0.25 -0.44,-0.75 -2.43,0.24 0.01,0.3 -0.83,0.67 -0.36,1.23 0.48,0.98 1.58,1.75 0.03,0.61 -0.41,0.22 -3.67,-4.01 -1.21,0.12 -1.95,-1.78 -0.62,-1.21 1.08,-1.47 1.42,-1.46 3.28,-1.37 3.22,-2.65 0.53,-0.96 1.57,-1.79 -0.07,-0.53 -1.06,-0.06 -0.06,-0.67 -0.66,-0.2 -0.39,0.26 -0.15,-0.14 0.46,-0.8 -0.27,-0.54 -0.47,-0.32 -0.16,0.04 0.02,-0.14 -1.45,-0.99 -1.84,-0.35 -0.47,-0.28 -7.26,-0.9 -1.33,-0.35 -1.51,-0.95 -1.32,-2.27 -2.51,-0.28 -1.49,-0.55 -1.48,-1.83 -0.98,-0.7 -2.7,-1.3 -2.01,-0.46 -1.12,-0.45 -2.29,0.47 -3.2,-0.02 -1.38,-0.68 -0.6,-0.88 -6.86,-4.61 -4.03,-3.44 -2.55,-1.68 -1.06,0.18 -1.27,-0.02 -1.49,-0.64 -1.7,-0.07 -1.45,-0.65 -1.94,0.56 -1.88,1.32 -1.74,0.54 -1.41,0.88 -2.26,0.88 -0.4,0.42 -4.07,1.69 -1.44,0.43 -1.95,0.95 -2.76,0.76 -3.1,1.57 -0.58,0.53 -1.87,0.7 -4.75,2.84 -0.81,0.21 -1.68,-0.01 -3,-0.29 -3.35,0.98 -3.34,0.68 -2,0.1 -3.74,1.84 -0.59,0.68 -0.27,0.99 -0.42,2.74 0.19,0.57 -0.46,0.88 -0.38,1.61 0.14,0.75 2.3,4.5 -0.5,3.29 0.9,3.47 -0.18,1.39 -1.04,0.73 -1.82,0.95 -2.76,2.57 -1.17,0.6 -1.65,-0.06 -2.5,-1.23 -0.56,-2.31 -0.51,-3.58 -2.3,-3.39 -1.13,-3.19 -2.95,0 0.27,2.93 -1.2,5.31 -1.57,5.16 -2.11,2.09 -0.49,3.29 -0.08,2.28 -0.58,2.01 -1.76,3.12 -0.3,1.51 1.34,5.63 1.19,2.32 1.94,2.86 0.68,2.56 -0.63,3.66 0.35,1.03 0.73,0.79 0.16,2.79 0.61,0.65 0.22,0.89 -0.04,1.27 0.21,1.4 1.62,0.81 -1.87,6.65 2.56,3 0.89,0.03 1.05,-0.98 1.51,-3.37 0.39,-0.37 0.76,0.03 0.46,1.41 1.36,0.93 2.13,0.71 1.67,-0.7 1.49,0.81 0.37,0.39 2.2,-1.31 1.66,-0.32 1.68,-0.95 0.88,0.16 1.82,-1.2 1.52,0.05 1.62,-2.85 3.22,-1.53 3.25,1.26 1.65,-0.07 2.23,-1.94 1.66,-0.32 1.89,0.32 2,0.71 0.85,0.92 3.52,0.77 1.86,0.96 4.43,3.46 0.45,1.54 0.36,0.52 0.51,0.02 0.93,-1.1 1.18,-1.09 1.14,-1.54 0.47,-2.32 0.66,-0.61 2.23,-0.42 3.39,0.71 1.66,1.33 0.69,1.8 1.04,0.86 1.51,0.25 1.87,-0.81 0.99,-2.62 0.9,-0.28 0.61,0.47 0.41,0.9 -0.27,3.41 0.32,1.41 0.6,-0.67 0.46,-3.53 0.83,-1.68 3.02,-2.47 1.73,-0.43 0.87,0.48 0.59,2.49 1.35,0.94 1.7,0.33 1.01,-0.02 1.27,-1.53 0.37,-1.25 0.26,-1.76 0.8,-0.98 0.57,0.02 0.69,3.13 0.84,1.18 1.49,0.82 2.21,3.01 1.03,1.06 1.13,0.24 2.12,-0.6 1.31,-1.02 1.26,-1.21 3.5,-4.72 1.13,-1.09 1.48,-0.44 0.89,-0.02 1.94,0.53 1.54,1.08 2,0.72 1.48,-0.5 0.74,-1.04 1.16,-3.18 1.11,-0.65 1.46,-0.06 1.94,0.53 1.55,0.71 0.6,0.79 0.64,1.3 1.41,1.08 2.45,0.49 2.66,0 1.45,0.26 2.71,1.71 4.32,7.74 1.04,0.65 0,0 -4.07,2.98 -1.63,3.08 -3.75,0.15 -1.85,4.3 -4.2,0.75 -3.75,-0.23 -1.4,4.8 -4.77,-1.67 -2.63,2.56 -2.73,-0.72 -3.2,0.31 -3.55,-1.77 -2.99,0.14 -4.2,3.27 -2.66,2.84 -3.61,0.11 -3.64,1.74 -2.92,-1.53 -1.25,-0.86 -2.48,-2.33 -2.32,0.33 -1.71,1.38 -2.58,4.24 -2.73,0.36 -0.6,-2.29 -1.22,-2.5 -2.95,1.42 -2.12,2.07 -2.31,1.05 -2.91,-2.69 -3.35,0.66 -0.22,4.59 -2.5,1.7 -4.37,3.61 5.59,8.91 -1.04,1.68 -1.45,3.15 0.61,3.13 0,3.97 -0.41,2.3 0.82,1.45 -0.21,0 -3.08,2.94 0.41,1.87 -0.82,1.46 -1.64,-0.61 -3.48,-3.09 -1.23,1.05 -1.43,2.1 -2.45,0.86 -1.02,-0.61 -1.45,-4.98 -2.65,-5.96 -0.83,-1.52 -0.75,-0.91 -0.75,-0.38 -0.84,0.05 -6.06,2.75 -2.62,0.87 -0.59,2.08 0.01,1.66 1.23,1.86 0.42,2.28 -1.21,1.46 -1.42,-0.2 -6.69,-2.88 -2.83,-1.44 -2.62,-0.41 -2,1.25 -1.79,2.28 -3.18,2.29 -4.18,2.7 -3.77,2.08 -3.18,0.01 -1.99,-0.41 -3.19,-3.52 -1.2,-1.86 -2.97,-1.24 -5.13,0.22 -1.18,0.62 -0.59,-0.21 -2.96,-1.65 -4.53,-4.09 -1.57,-0.99 -2.74,0.07 -2.75,1.25 -2.53,0.08 -2.31,-1.87 -3.33,1.25 -1.38,0.81 -1.75,0.24 -2.91,-0.33 -2.92,0.44 -2.55,1.42 -4.88,1.05 -3.5,0.43 -1.2,1.59 -0.28,3.94 -1.21,2.17 -1.78,1.2 -4.51,1.42 -1.96,0.41 -1.79,1.78 -1.79,1.38 -4.48,-0.2 -3.74,1.35 -6.21,-3.49 -1.330002,-0.38 -0.79,0.04 -1.43,0.79 -1.85,1.67 -1.4,0.1 -5.48,5.07 -1.62,3.3 -2.63,0.57 -0.39,1.57 -0.94,0.11 0,0 -0.4,-2.78 0.76,-0.48 0.31,-2.75 -0.21,-1.76 -1.48,-1.04 -3.95,-3.35 -0.5,-0.26 -0.71,-2.27 -1.92,-4.06 -2.73,-1.82 -2.76,-0.31 -2.54,1.21 -1.53,0.97 -2.25,-0.55 -1.24,-1.03 -1.23,-1.53 -1.01,-0.02 -2.29,1.21 -1.51,0.22 -3.02,-0.06 -2.32,2.97 -1.26,-0.02 -2.01,-0.29 -2.98,-1.81 -4.53,0.42 -2.29,1.59 -1.37,-0.53 -1.01,0.49 -1.01,0.23 -1.5,-0.65 -1.72,-2.42 -0.3,-4.53 -0.96,-2.78 0.47,-5.53 0.77,-1.12 0.02,-1.26 -0.62,-0.64 -3.52,-0.18 -1.25,-0.52 -1.45,-3.67 -2.25,-1.04 -2.39,-0.42 -2.27,0.47 -1.76,-0.03 -1.88,-0.66 -1.37,-0.9 -3.8900001,-0.81 -2.13,-1.16 -1.62,-1.66 -3.08,-5.33 -0.76,-2.82 0.01,-1.01 0.51,-0.62 2.41,-0.72 4.95,-1.82 2.1500001,-0.47 0.88,0.27 2.64,0.42 0.39,-1 -0.48,-1.77 -2.08,-4.32 -1.8200001,-5.08 -4.41,-9.54 -1.24,-1.91 0.04,-2.91 0.78,-1.76 1.02,-0.24 4.2900001,1.2 0.63,0.01 0.9,-1.13 -0.45,-3.55 0.27,-1.51 8.79,-3.28 3.17,-0.08 1.27,-0.36 2.08,-3.39 1.41,-0.99 2.42,-0.85 1.17,-1.63 0.77,-0.62 0.89,0.02 4.28,1.85 0.51,0.01 2.17,-0.72 1.54,-0.86 1,0.52 4.38,3.12 3.04,0.18 2.12,1.94 4.15,1.85 2.03,-0.21 3.04,0.19 2.01,0.8 2.42,1.89 1.33,0.33 2.41,-0.19 1.64,0.41 2.13,1.06 4.93,0.36 1.65,-0.22 1.25,0.53 1,0.78 1.64,0.29 2.04,-0.59 2.79,-0.32 3.91,0.47 3.15,0.71 1.13,0.53 1.73,1.69 0.88,0.27 4.090002,-1.8 6.56,1.05 2.55,-0.57 2.38,0.82 1.81,-1.6 0.69,-2.26 0.47,-3.41 1.41,-0.72 1.81,-1.47 5.23,-5.94 0.61,-3.79 -4.16,-5.94 -0.6,-1.41 0.92,-1.12 1.4,-0.09 1.41,-0.6 0.67,-1.25 0.56,-2.02 1.07,-1.88 0.71,-2.9 -0.35,-1.28 -0.32,-2.42 0.19,-2.54 1.4,0.04 1.26,0.29 1.13,0.67 1.57,-1.48 1.69,-1.22 1.01,0.28 1.73,1.95 0.68,2.81 1.25,0.92 1.02,-0.23 0.52,-0.49 0.28,-0.88 0.32,-2.28 0.66,-0.87 2.05,-0.45 0.78,-0.61 0.81,-1.76 -0.08,-1.53 -1.79,-4.25 -2.3,-4.39 -0.19,-2.42 0.28,-0.88 1.03,-0.48 0.89,0.15 1.6,1.95 1.92,4.13 1.06,2.96 0.14,3.95 1.34,2.07 1.38,0.68 1.79,-0.2 1.57,-1.61 0.43,-1.51 -0.08,-1.66 -1.2,-2.45 -5.78,-7.17 -3.3,-3.09 -0.08,-0.66 0.92,-2.98 -0.12,-1.4 -0.74,-0.94 -1.34,-1.14 -0.77,-1.27 0.07,-1.17 0.53,-0.63 1.29,-0.44 1.43,0.22 1.62,2.44 0.65,2.85 1.02,0.57 0.33,-0.26 0.39,-1.28 0.08,-1 1.08,-1 1.5,-0.96 3.35,-0.77 1.66,-0.05 2,0 3.39,0.81 1.65,-0.13 0.71,-1.47 -0.11,-1.4 -0.89,-3.84 -0.9,-2.84 -1.86,-1.43 -6.97,0.24 -3.71,0.47 -7.58,1.96 -2.73,1.23 -6.34,1.78 -2.89,1.24 -4.74,0.99 -2.74,0.07 -5.79,-3.41 -1.9,-1.75 0.52,-1.34 6.4,-1.86 0.19,-0.31 1.93,-0.17 3.95,-1.18 9.59,-3.1 2.16,-0.99 3.67,1.2 1.61,0.28 2.86,-0.74 2.15,-1.18 0.85,-0.82 4.33,-1.02 7.44,-0.77 5.67,0.04 3.16,1 2.33,-0.02 2.61,0.29 1.41,-0.11 2.31,0.82 2.4,-0.19 1.71,-0.55 2.89,0.69 4.34,0.08 1.23,0.82 1.24,0.55 1.07,-0.89 -0.79,-1.6 -1.07,-3.08 -0.9,-0.93 -3.05,-0.6 -0.91,-0.93 0.52,-1.87 -0.77,-1.27 0.39,-1.36 0.83,-0.06 1.03,0.42 2.02,0.18 1.82,-0.14 2.49,-2.360005 0.01,-2 0.74,-1.22 -0.04,-2.67 -2.31,-1.83 -0.92,-1.1 0.03,-1.84 -0.64,-1.79 -0.89,-0.77 0.52,-1.88 -1.04,-0.42 -0.4,-0.8 -0.32,-1.98 -0.64,-1.79 -0.92,-1.1 0.02,-1.84 0.77,-0.9 0.09,-1.69 -1.46,-1.26 -2.96,-4.08 -0.14,-0.73 0.21,-0.91 0.39,-0.52 1.78,-1.35 1.68,-0.98 4.01,-0.53 1.93,0.39 0.66,-0.17 0.57,-0.59 -0.06,-0.4 0.89,-1.66 1.06,-0.51 0.57,-2.8 -1.25,-2.71 -0.76,-2.5 0.47,-7.75 0.14,-0.72 0.74,-0.85 -0.02,-0.71 0.46,-1.39 2.62,-3.42 1.44,-2.32 0.72,-0.27 2.91,-0.17 1.47,0.73 5.59,1.56 1.73,0.1 0.94,0.24 1.21,1.03 0.44,0.62 1.89,3.78 0.55,2.64 1.22,1.73 2.78,2 0.82,1.27 0.78,0.69 1.52,0.24 0.89,0.46 0.93,2.03 0.18,0.85 0.67,0.91 1.47,0.33 1.95,-0.25 1.63,0.02 2.06,-1.3 1.18,-2.14 1.92,-4.55 0.99,-0.89 0.71,-0.35 0.85,-0.12 3.16,0.9 0.67,-0.07 2.07,-2.22 1.47,-1.08 0.99,-0.37 0.95,-0.03 3.52,2.18 0.46,0.03 2.61,-2.47 1.69,-1.09 4.48,-0.65 0.62,-0.44 1.21,-0.35 2.34,-1.99 3.15,-1.24 5.26,-5.12 0.68,-0.97 0.62,-1.92 0.42,-0.7 0.67,-0.6 1.31,-0.23 0.78,0.14 1.49,0.77 2.52,0.4 3.23,-2.07 1.95,-0.85 0.55,-0.53 1.04,-1.73 0.63,-0.22 0.94,-0.79 0.58,-0.16 1.48,-1.01 1.47,-0.18 1.18,0.12 1.51,-0.52 0.82,-0.79 1.14,-2.22 0.01,-0.8 -0.64,-2.06 0.34,-1.59 0.59,-0.44 0.91,-1.38 0.06,-1.67 0.66,-1.1699996 -0.62,-2.83 0.02,-0.61 0.22,-0.41 0.84,-0.62 0.48,-0.68 0.39,-1.39 0.42,-0.67 0.8,-0.66 2.04,-1.01 0.91,-0.22 2.28,0.56 z" 
                fill="rgb(151, 144, 238)" 
                stroke="white" 
                stroke-width=".7px"
                title="Sughd" 
                id="TJ-SU" 
            />
        </svg>