<svg xmlns="http://www.w3.org/2000/svg" viewBox="80.50609399999999 290.65093 139.62999600000003 71.53999999999996" width="139.62999600000003" height="71.53999999999996">
            <path 
                d="m 101.28609,290.65093 1.54,0.77 1.15,1.54 3.08,1.55 4.23,1.17 2.69,0.02 2.31,-1.14 2.69,0.4 5.77,3.1 1.16,2.3 1.53,0.01 1.54,-1.52 2.69,0.78 0.39,2.3 7.69,1.57 4.23,-3.04 1.93,0.01 1.15,-1.9 1.54,-1.14 2.69,0.01 3.08,1.17 7.31,0.04 8.85,-3.78 5,-1.12 5,1.56 0.77,0.77 0.38,2.43 0,0 1.15,2.55 3.47,2.32 1.53,2.69 1.54,1.16 5.77,1.56 2.69,1.93 4.24,0.79 2.69,1.93 3.46,0.4 7.69,2.73 4.23,4.23 -1.15,1.14 -3.85,0.75 -1.16,1.52 -0.77,0 -0.38,-2.3 -1.54,-2.31 -2.3,-0.78 0,0 -1.16,0.76 -0.38,1.53 1.92,1.93 0,1.53 -5.39,-0.42 0,1.15 1.54,0.78 0,2.68 -0.77,1.52 -1.92,-0.01 -0.77,0.76 -1.54,-0.39 -1.16,0.76 -0.77,1.14 0,2.68 -2.69,0.75 -1.92,-1.54 -1.16,0.76 -1.54,2.67 -1.15,-0.01 -1.16,1.14 -4.23,-0.4 0,0 -0.38,1.52 0,0 1.15,0.78 1.93,0.01 0.77,0.77 -0.39,1.52 -1.54,1.14 -2.31,-0.39 -0.77,1.52 -3.46,0.75 -4.23,1.89 -0.77,1.91 -2.31,1.9 0,1.91 0,0 0,1.15 0,0 -0.39,3.05 1.92,1.16 -0.77,1.91 0,0 -3.84,-0.02 -3.46,1.12 -1.93,-0.39 -3.07,-3.46 -0.39,-3.44 -1.92,-1.92 0.39,-1.92 -0.77,-1.91 -3.46,-2.32 -2.31,-3.83 -0.77,-0.39 -4.23,-0.03 -1.16,1.53 -8.46,4.16 -3.08,2.66 -1.92,-0.01 -7.31,-6.16 -2.31,-0.78 -0.76,-1.54 -6.16,-3.09 -4.61,-0.41 -4.23,-1.17 -24.229996,-12 -1.93,-3.07 -0.76,-8.05 0.77,-3.05 5,-10.31 0,-6.51 1.54,-0.76 6.93,-0.73 5,-1.5 z" 
                fill="rgb(151, 144, 238)" 
                stroke="white" 
                stroke-width=".7px"
                title="Baoruco" 
                id="DO-03" 
            />
        </svg>