<svg xmlns="http://www.w3.org/2000/svg" viewBox="123.18608999999995 318.82093 104.25000000000003 152.8099999999999" width="104.25000000000003" height="152.8099999999999">
            <path 
                d="m 208.98609,318.82093 1.15,3.83 1.92,3.07 5.77,3.48 0.77,1.15 0.38,2.68 -1.54,1.9 -2.31,-0.01 -1.54,0.76 0,3.44 -0.77,0.76 -1.15,4.59 -1.15,0.76 -5.39,1.12 0,0.77 1.92,3.07 0.77,3.06 1.15,-0.76 2.31,0.4 1.54,1.92 0.38,1.91 4.62,1.56 1.54,-1.14 0.39,-1.14 2.31,-1.13 1.92,0.39 1.15,1.54 0,1.91 -1.54,0.76 -1.15,1.52 1.92,3.83 2.31,2.31 0.77,3.45 -0.77,3.44 -1.16,1.14 0,2.29 -1.16,1.9 -1.17,-0.04 0,0 -1.79,-1.47 0.06,-1.5 -1.26,-3.38 -2.27,-1.06 -1.13,-2.06 -5.38,-2.5 -2.39,0.69 -0.3,-1.19 -2.33,-1.06 -1.97,-0.06 -1.31,-1.44 -1.19,0.19 -1.91,0.69 -0.48,0.81 0.36,0.75 2.39,-1.38 0.72,0.13 0.24,0.81 -4.9,3.5 -3.88,4.32 -1.49,3.75 0,2.19 0.84,2.44 1.44,0.75 0.3,1.63 1.85,1.31 1.14,2.06 -1.91,2.06 2.75,3.75 1.38,0.63 1.32,4.75 2.51,2.75 -1.85,2.63 -0.24,3.88 -1.13,1.75 -0.42,2.31 -4.96,9.12 -0.84,0.75 -1.43,0.13 -2.45,3.12 0.12,1.94 -4.6,3.19 0.06,4.37 -1.49,0.19 -1.55,2.56 -1.2,0.31 -1.49,1.56 -2.87,5.62 -6.04,9.05 -1.49,0.75 -2.33,3.87 -2.99,1.62 -0.48,1.06 -4.42,3.37 -1.97,2.62 -1.43,3.56 -0.66,0.13 -0.58,-1.94 0,0 -0.31,-2.53 1.15,-1.52 -0.77,-4.96 -1.45,-1.06 -0.25,-3.25 -5.09,-6.38 -2.8,0 -1.27,4.25 -3.56,1.06 -4.04,-5.03 -2.31,-1.54 -1.79,0.3 0,-1.44 -1.02,-1.86 -2.54,-1.86 -4.58,0 -1.53,-1.86 -0.51,-1.59 0.76,-2.39 0,-4.78 0.51,-1.06 2.54,1.33 2.8,-0.8 4.07,-5.32 0.51,-2.39 -0.51,-4.52 -3.56,-5.85 4.58,-0.27 1.52,-1.86 -0.25,-1.06 -1.78,-1.6 -4.07,-2.66 -4.63,-0.51 0,0 0.64,-1.89 0,-4.97 1.92,-2.66 3.08,-0.75 3.08,1.55 3.46,-0.36 2.31,0.78 0.77,-0.76 -3.07,-10.33 -5.77,-11.11 0,-1.53 5.77,-7.61 6.15,4.62 8.85,1.96 5,0.03 9.23,-2.62 1.92,-1.9 1.54,-3.43 1.92,-1.52 0.77,-3.05 0,0 0.77,-1.91 -1.92,-1.16 0.39,-3.06 0,0 0,-1.15 0,0 0,-1.91 2.31,-1.9 0.77,-1.91 4.23,-1.89 3.46,-0.74 0.77,-1.53 2.31,0.4 1.54,-1.14 0.39,-1.53 -0.77,-0.77 -1.92,-0.01 -1.15,-0.77 0,0 0.39,-1.53 0,0 4.23,0.41 1.15,-1.14 1.15,0.01 1.54,-2.67 1.15,-0.76 1.92,1.54 2.69,-0.75 0,-2.68 0.77,-1.14 1.16,-0.76 1.54,0.39 0.77,-0.76 1.92,0.01 0.77,-1.53 0,-2.68 -1.54,-0.77 0,-1.15 5.39,0.41 0,-1.53 -1.92,-1.92 0.39,-1.53 1.09,-0.8 z" 
                fill="rgb(151, 144, 238)" 
                stroke="white" 
                stroke-width=".7px"
                title="Barahona" 
                id="DO-04" 
            />
        </svg>