<svg xmlns="http://www.w3.org/2000/svg" viewBox="48.806093999999945 4.8209298 138.79999600000005 87.4800002" width="138.79999600000005" height="87.4800002">
            <path 
                d="m 100.71609,4.8209298 0.78,0.62 7.17,1.1399999 2.57,-1.0099999 8.19,3.5399999 2.69,2.5300003 4.59,1.38 4.5,2.85 1.38,-0.13 2.39,1.52 7.83,1.64 5.08,0.76 0.55,-0.57 3.4,0.13 0.6,0.82 1.44,-0.01 0.12,1.08 1.86,0.64 1.85,1.13 4.9,0.89 1.99,-1.02 4.03,-0.69 0,0 1.29,0.65 0.37,1.14 -0.77,1.55 0,1.93 1.15,2.29 0.38,4.66 6.16,3.12 7.31,1.97 3.09,1.96 0,0 -2.32,9.61 -1.92,1.9 0,3.49 -0.77,1.15 0,1.55 1.92,4.63 0,6.18 -0.77,0 -0.77,-1.17 -1.14,1.17 -3.47,-0.81 -0.77,2.31 2.69,6.16 0.38,5.03 -0.77,1.54 0,1.93 -1.53,1.14 -1.55,3.08 0,0 -6.15,-2.35 -1.92,3.84 -2.31,0.37 -3.08,-2.71 -4.61,-0.01 -4.62,-4.67 -1.14,0.37 -1.55,2.31 -2.31,-0.4 -1.54,1.92 -5.38,2.67 -2.31,-0.01 -1.54,-1.16 -1.54,-0.01 -1.15,1.92 -0.77,0 0,-1.93 -5,-3.88 0.39,-1.92 -1.92,0.37 0.4,3.06 -1.17,0.4 0,0 -3.46,-1.94 -3.08,-0.79 -2.69,-3.48 -3.46,-1.17 -1.92,-1.17 -1.15,-1.55 -2.69,-0.79 -1.15,-1.55 0.39,-1.54 -1.15,-3.09 -5.38,-0.42 -2.309996,0.76 -1.54,1.53 -5.37,-0.41 -5.39,1.12 -7.69,-0.04 -12.31,-5.08 -3.85,0.36 -0.77,-1.16 -2.31,-0.4 -1.91,-2.3 0,0 0.79,-0.82 -0.63,-3.62 -2.41,-1.05 -1.35,-2.12 -0.84,-0.18 0.59,-2.12 -1.18,-0.44 -0.42,-1.06 0.18,-1.26 5.46,-1.2 1.79,-3.22 -0.11,-1.83 -1.03,-0.69 -0.18,-2.15 -1.19,0.76 -1.97,-4.04 -1.49,-2.72 1.26,-0.63 -0.54,-3.28 -1.43,-0.06 -0.42,1.58 -0.96,0.44 -0.23,0.95 -2.28,0.94 0,1.07 0.66,0.32 -0.4,0.89 -1.27,-0.64 0.66,-2.46 -0.24,-1.83 6.64,-5.87 0.48,-1.7 5.74,-1.07 5.44,-2.78 0.3,-2.08 3.11,-0.76 3.47,-2.9 1.14,-1.64 0.42,-1.98 -1.55,-5.4800002 1.14,0.24 0.06,-1.03 1.8,0.25 1.19,1.01 0.48,2.2100002 1.79,0.88 2.56,-1.77 -0.23,-2.0100002 0.78,-0.88 2.45,-0.5 0.78,0.57 1.91,-1.46 2.26,-0.76 3.96,0.89 5.369996,-1.38 z" 
                fill="rgb(151, 144, 238)" 
                stroke="white" 
                stroke-width=".7px"
                title="Cristi" 
                id="DO-15 Monte" 
            />
        </svg>