<svg xmlns="http://www.w3.org/2000/svg" viewBox="47.906094000000024 65.27093 79.60999599999997 94.02" width="79.60999599999997" height="94.02">
            <path 
                d="m 58.306094,65.27093 1.91,2.3 2.3,0.4 0.77,1.16 3.85,-0.36 12.31,5.07 7.69,0.05 5.4,-1.12 5.37,0.41 1.54,-1.53 2.309996,-0.76 5.38,0.41 1.16,3.09 -0.39,1.54 1.15,1.55 2.7,0.79 1.15,1.54 1.92,1.17 3.46,1.17 2.69,3.49 3.08,0.78 3.46,1.95 0,0 0,1.54 -5.77,6.13 -2.31,4.61 0,6.93 1.15,3.85 0,3.47 -1.16,1.92 -2.69,1.13 -0.38,0.77 0.76,5.4 -0.77,4.99 0.38,6.16 -5.77,1.12 -5.38,-1.18 0.77,3.85 4.23,3.1 0.77,1.92 0,0 -0.39,1.16 -2.69,1.52 -2.7,4.21 -2.69,-0.4 -1.15,-1.54 -2.689996,-0.78 -3.08,0.75 -4.23,-2.33 -1.93,1.91 -0.77,5.76 -0.77,0.77 -2.69,-0.79 -2.69,1.91 -2.31,3.06 -0.82,-0.27 -2.27,-0.46 -3.37,0.27 -0.43,-1.05 -2.28,-0.44 -1.18,-0.61 -1.6,0 -1.61,-1.32 -2.28,-1.84 0.42,-1.06 -0.42,-0.7 -3.47,-1.67 0.42,-0.79 -0.59,-1.5 -0.59,0.18 -0.84,3.44 -1.43,-1.5 -0.35,-1.93 -1.85,0.62 -0.17,-1.06 -1.27,-0.17 0.42,-2.12 -1.6,-0.44 0,-1.05 0.42,-1.68 -0.85,-0.88 -1.44,-3.17 -1.01,0.27 -1.19,-2.11 -1.43,-0.44 3.03,-1.68 4.22,-0.27 1.01,-3.35 2.7,-1.06 2.19,-1.68 1.43,0.79 0.76,-2.12 2.45,1.76 0.42,1.05 1.44,0 0.59,-0.7 -0.43,-1.41 0,-1.33 -1.02,-4.84 1.85,-2.56 0.17,-3.35 2.02,-2.56 -0.43,-1.23 0.68,-1.06 -0.26,-1.77 -1.44,-1.23 -0.59,-3.61 -1.17,-1.04 0.57,-1.08 -0.59,-1.67 0.76,-0.62 0.67,-2.38 -0.26,-2.47 -0.76,0.79 -1.68,-0.61 -0.77,-2.29 0.16,-2.38 -1.43,0.62 -0.76,-0.62 -0.01,-3.97 -1.43,-2.38 -5.24,-5.02 -0.44,-11.29 z" 
                fill="rgb(151, 144, 238)" 
                stroke="white" 
                stroke-width=".7px"
                title="Dajabón" 
                id="DO-05" 
            />
        </svg>