<svg xmlns="http://www.w3.org/2000/svg" viewBox="430.36609000000004 315.40093 28.630000000000052 26.04000000000002" width="28.630000000000052" height="26.04000000000002">
            <path 
                d="m 435.60609,341.41093 0.17,-2.24 2.37,-2.49 -0.13,-5.53 -1.32,-1.8 -5.01,-3.59 -1.32,-2.35 2.77,-1.52 0,-2.49 1.19,-2.76 1.72,-1.24 2.37,0.97 1.19,1.8 0.66,2.9 2.24,1.11 2.37,3.18 3.3,-1.38 7.65,-1.52 3.17,2.07 0,1.8 -1.85,3.46 0.3,2.37 0,0 -1.79,-0.25 -2.21,1.63 -4.24,1.57 -2.21,3.01 -2.45,1.25 -6.75,2.07 -2.19,0 z" 
                fill="rgb(151, 144, 238)" 
                stroke="white" 
                stroke-width=".7px"
                title="Distrito Nacional" 
                id="DO-01" 
            />
        </svg>