<svg xmlns="http://www.w3.org/2000/svg" viewBox="351.3760900000002 98.66092999999996 152.70999999999987 104.63000000000007" width="152.70999999999987" height="104.63000000000007">
            <path 
                d="m 385.24609,99.07093 1.92,2.32 3.46,0.79 1.16,1.16 1.53,0.01 1.16,0.78 0,1.15 0.77,0.78 2.69,-0.37 1.92,1.16 3.08,10.03 -1.16,7.69 1.54,1.16 1.15,4.24 4.23,8.49 1.54,0.77 6.92,-0.34 5.77,1.18 1.54,1.17 -0.77,4.22 0.38,2.7 2.31,2.32 10,1.98 8.08,3.5 13.07,3.54 1.54,0.78 1.54,1.93 5,3.1 6.15,1.57 5.77,0.03 0,0 2.31,-4.21 1.54,-0.76 3.85,0.02 2.69,1.55 4.23,0.41 3.46,-0.75 1.93,2.32 4.61,-0.74 1.93,0.78 -0.39,1.53 -1.54,-0.01 -1.92,2.3 -1.16,4.6 -1.54,-0.01 -0.38,1.54 -1.54,-0.01 -0.77,-0.77 -0.77,1.53 -1.92,0.37 0.77,1.54 -0.77,0.77 -3.47,2.28 -2.3,-0.01 0,2.31 2.3,2.7 1.54,4.62 -5,-0.03 -1.16,1.14 0,0 -2.69,-1.16 -3.85,-0.41 -1.15,0 -3.46,1.9 -6.54,-0.81 -4.23,1.9 -4.62,-1.57 0,10.37 -1.54,1.15 -7.31,-0.43 0,0 0.77,-6.14 2.31,-5.36 -0.38,-0.77 -2.7,-1.17 -3.84,-0.41 -2.69,-2.32 -4.62,-2.33 -1.92,-0.01 -2.7,2.68 -1.15,-0.01 -2.69,-1.94 -8.85,-2.35 -2.69,-2.32 -0.77,-0.01 -0.38,-1.15 -2.7,-0.02 -1.15,-2.31 -1.15,1.15 -2.7,0.75 -1.15,-0.77 0,-0.77 -2.69,-0.4 -0.77,1.53 -1.16,-0.39 -0.38,1.54 -1.16,-0.4 0.39,-2.3 -0.39,-0.77 -1.15,1.15 -1.15,-0.39 -1.93,3.44 0,-2.69 -0.77,0.77 -0.77,-0.77 -1.15,0.76 -1.54,-0.01 0.77,-2.69 -1.54,-0.39 -1.54,0.76 -2.69,3.06 -1.15,-1.54 -0.77,0.76 -0.39,1.92 -3.84,-1.18 -1.16,-1.92 -2.3,0.75 -0.77,-1.92 -0.77,0.76 -0.77,-0.77 -1.54,0.76 -1.54,-0.78 -1.54,0.38 -1.15,0.76 0,0.77 0.77,-0.38 -0.01,1.15 0,0 -1.53,-0.01 -1.54,-3.08 -3.08,-2.33 -2.69,-0.78 -3.84,-4.63 -1.93,-1.16 -2.3,-3.09 -0.77,-2.7 0,0 -0.77,-3.08 -1.15,-1.54 0,-3.08 1.15,-2.68 2.31,-1.53 1.54,-2.3 0,-3.84 1.93,-4.22 -0.39,-2.7 2.31,-6.52 1.16,-6.92 6.16,-4.59 1.54,-0.76 1.92,0.01 2.31,-2.29 4.62,-1.52 0,-1.15 -3.08,-1.17 -0.77,-1.93 1.15,-2.31 3.85,-1.9 1.54,0.01 1.54,-1.15 0.39,-3.07 -0.77,-1.55 -1.16,-0.39 0,0 z" 
                fill="rgb(151, 144, 238)" 
                stroke="white" 
                stroke-width=".7px"
                title="Duarte" 
                id="DO-06" 
            />
        </svg>