<svg xmlns="http://www.w3.org/2000/svg" viewBox="574.9160899999998 201.84092999999996 116.50999999999999 116.69000000000005" width="116.50999999999999" height="116.69000000000005">
            <path 
                d="m 616.04609,201.84093 1.79,0.57 4,6.72 3.47,0.19 0.78,2.64 2.03,1 0.6,-0.38 2.03,2.2 1.14,-0.25 1.2,0.75 4.48,-0.75 3.65,0.56 2.99,-0.69 1.56,-1.26 0.36,-1.44 -2.51,-2.51 0.06,-0.82 2.27,-1 1.49,1.19 2.33,0.06 1.26,-0.69 0.48,-1.07 -0.36,-0.75 2.15,-1.44 3.29,1.19 1.25,-1.26 1.38,0 2.75,1.01 2.81,0.19 11.24,7.85 1.73,-0.06 1.2,-1.07 3.17,0.32 4.78,3.27 1.67,-0.44 2.86,0.82 0,0 0,3.87 -1.92,-0.78 0.38,2.69 -0.77,0.76 -1.92,-0.78 -1.15,2.3 -3.08,0.37 -0.77,1.53 0.38,4.61 -1.54,0.38 -2.69,2.29 0,1.15 1.92,3.08 5.38,12.3 0.38,7.29 -0.77,2.68 -2.69,1.52 -3.08,4.2 -3.85,2.28 -3.46,6.5 -1.92,0.37 -3.46,-1.17 -5.38,0.35 -0.77,0.76 -0.77,2.68 0.38,3.45 -1.54,1.52 0.39,1.92 1.54,1.54 0,1.15 0,0 -3.85,-0.02 -2.69,-1.55 -0.77,0.38 -2.69,5.73 -1.54,1.91 -2.69,6.88 -3.46,4.58 -6.54,4.94 -0.77,2.68 -4.23,4.19 -4.62,1.51 0,0 1.16,-9.18 1.92,-0.75 -0.77,-1.53 -6.15,-0.04 -2.31,1.52 -2.31,0.37 -5.77,-3.09 -1.92,-4.61 -6.15,-4.25 -3.46,-1.17 -2.31,1.14 -2.31,-0.01 -1.15,-2.69 -3.07,-1.17 0,0 0.39,-3.83 1.15,0.01 1.15,-1.14 0.77,0 0.77,-1.14 0.77,-3.06 0,-4.6 2.31,-6.88 -0.38,-3.83 1.15,-2.68 0,-2.3 -1.92,-4.23 -6.53,-8.09 -1.92,-1.54 -5.38,-1.56 -1.15,-3.84 -1.92,-0.39 -1.54,-1.16 -2.69,-6.54 -2.31,-2.31 0,-2.3 1.15,-1.91 0.77,-7.67 1.92,-0.37 3.85,1.94 6.54,4.64 1.92,0.4 3.08,1.94 10.77,1.98 1.54,-0.37 1.16,-1.91 -0.38,-2.69 -3.85,-4.24 -4.23,-2.71 -3.08,-5.39 -0.38,-4.22 3.08,-0.75 2.3,-2.35 0,0 1.43,0.62 0,1.19 0.6,0.38 0.84,-0.69 1.91,0.25 1.32,-1.63 0.06,1.19 2.09,0.13 1.49,0.25 0.84,-0.75 1.91,0 0.36,1.19 0.78,0.13 -0.54,1.63 1.79,0.63 1.61,-2.45 -0.24,-5.47 -1.38,-1.82 -2.57,0.63 1.25,-1.19 1.42,-0.36 z" 
                fill="rgb(151, 144, 238)" 
                stroke="white" 
                stroke-width=".7px"
                title="El Seibo" 
                id="DO-08" 
            />
        </svg>