<svg xmlns="http://www.w3.org/2000/svg" viewBox="299.4460900000001 49.63093 112.34999999999991 93.37000000000006" width="112.34999999999991" height="93.37000000000006">
            <path 
                d="m 351.47609,49.63093 0,0.89 3.23,3.97 9.68,7.89 3.53,2.02 5.68,1.95 8.9,0.26 2.33,1.26 6.04,1.64 1.37,-0.13 2.39,1.64 1.62,-0.38 3.76,0.51 11.42,-2.35 0,0 0.37,1.53 -0.77,2.31 0,3.85 -0.77,3.08 -1.16,1.15 -5.38,2.28 -3.47,3.06 -2.69,0.37 -2.69,1.53 -1.16,-0.78 -4.61,0.36 -1.54,-0.78 -1.15,0.76 0.76,5.79 -1.92,5.76 0,0 -4.62,-0.41 0,0 -2.69,-2.33 -2.69,-3.86 -0.77,-2.7 1.15,-1.54 -0.38,-1.16 -1.15,-1.16 -2.7,-0.78 -2.3,-0.02 -1.93,1.15 -2.69,0.37 -1.92,2.68 -2.31,0.76 -0.77,0.77 -2.7,8.07 -1.92,0.76 -2.31,-0.78 -1.15,-1.55 -0.39,-4.62 -0.77,-0.78 -4.23,-0.79 -1.92,-1.17 -1.92,-2.71 -0.77,0 -5,11.52 0.38,5.4 -1.93,3.07 0,3.08 0.77,1.92 2.31,2.71 0,2.7 -2.7,5.75 -2.69,11.15 -1.54,3.07 -0.01,1.92 0,0 -1.15,0.37 -0.39,2.31 -0.76,0.76 -5.01,-0.02 -0.76,-1.16 0,-6.92 -3.46,-6.56 -0.77,-0.01 -1.54,1.53 -1.54,2.69 -3.46,0.36 -10.39,-1.21 -1.15,-1.16 -0.39,-1.93 -0.77,-0.39 0,0 0.78,-1.92 1.54,-1.53 1.92,0.01 1.54,1.55 0.77,-0.38 0,-1.15 -1.16,-1.16 -1.15,-3.47 -0.38,-3.85 0,-1.54 2.69,-4.61 -0.38,-5.77 1.16,-1.54 3.07,-0.75 3.85,-3.06 0,-4.62 0,0 1.16,-1.53 1.15,-0.38 0.77,-8.86 3.47,-4.22 0,-1.92 -1.16,-1.93 0,-1.16 1.54,-2.69 0.01,-1.93 -0.77,-0.39 0,-1.15 2.3,-0.76 -0.76,-0.77 0.38,-1.16 1.92,-1.91 1.16,0.77 0.77,-0.38 1.15,1.16 1.16,-1.15 2.69,0.02 0,0.77 0.77,0.39 0.38,-2.7 3.47,0.41 1.54,-1.15 0.76,0.01 1.54,3.09 1.54,0.01 1.16,-1.92 1.53,1.55 0.39,-1.93 0.77,0.01 0.77,1.93 1.53,-0.38 -0.38,-1.16 -1.15,0 0,-1.16 5,-0.74 0.38,-0.77 0,-1.93 -1.53,-3.48 2.31,-5.31 0,0 z" 
                fill="rgb(151, 144, 238)" 
                stroke="white" 
                stroke-width=".7px"
                title="Espaillat" 
                id="DO-09" 
            />
        </svg>