<svg xmlns="http://www.w3.org/2000/svg" viewBox="509.47609000000085 188.4509299999999 98.0599999999992 131.30000000000004" width="98.0599999999992" height="131.30000000000004">
            <path 
                d="m 600.99609,207.88093 -2.3,2.35 -3.08,0.75 0.38,4.22 3.08,5.39 4.23,2.71 3.85,4.24 0.38,2.69 -1.15,1.91 -1.54,0.38 -10.77,-1.98 -3.08,-1.94 -1.92,-0.39 -6.54,-4.64 -3.85,-1.94 -1.92,0.37 -0.77,7.67 -1.15,1.91 0,2.3 2.31,2.31 2.69,6.54 1.54,1.16 1.92,0.4 1.15,3.84 5.38,1.56 1.92,1.55 6.54,8.09 1.92,4.23 0,2.3 -1.15,2.68 0.38,3.84 -2.31,6.89 0,4.6 -0.77,3.06 -0.77,1.15 -0.77,0 -1.15,1.14 -1.15,-0.01 -0.39,3.83 0,0 -1.93,2.67 -2.31,1.14 -5,0.36 -0.77,1.53 0,3.06 -1.15,1.53 0,4.21 0.77,1.15 -2.31,-0.01 -0.39,2.3 -3.85,2.28 -3.08,3.05 -1.54,3.44 -4.23,-6.91 -0.38,-2.3 -1.92,-3.46 -0.77,-4.22 -3.46,-2.32 -1.54,-3.46 -0.38,-3.07 -2.31,-2.69 -1.15,-3.07 -2.31,-1.16 -0.38,-1.53 2.7,-3.43 -1.54,-2.31 0,-6.13 -2.31,-4.23 0,-2.3 -1.15,-1.16 -2.31,-0.4 -0.77,-1.92 0.77,-6.13 0.77,-1.15 0,0 1.54,-1.14 0.39,-2.68 1.54,-0.37 3.47,-4.58 4.23,-1.13 1.54,-3.83 3.08,-0.37 1.54,-2.68 0,-2.3 -1.54,-1.16 -2.31,-0.01 -6.15,1.12 -3.85,-2.71 -5.77,-1.95 -4.23,-3.09 -3.85,-1.17 -3.84,-3.09 -2.31,-0.4 -1.92,-1.16 -1.15,-1.92 -1.54,-1.16 -5.38,-2.33 -3.84,-3.48 -2.31,-1.16 -3.85,-0.79 -1.92,-3.08 0,0 2.31,-5.36 2.75,-11.07 0,0 2.45,0.5 5.02,-1.26 0.42,-0.75 1.73,0.19 1.02,-1.07 1.55,1.32 1.55,-0.06 0.42,0.94 2.69,0 4,-1.26 2.03,-0.25 1.44,-0.25 1.85,1.82 -0.06,1.01 5.14,-0.25 0.48,-0.63 1.25,1.13 0.78,1.01 0.72,0.38 2.51,-1.26 0.72,-4.71 -2.21,-0.56 -0.54,1.07 -1.08,-0.88 -0.48,1.13 -1.43,-0.26 -2.63,0.76 -0.06,-0.63 6.1,-1.7 3.17,0.44 4.6,-0.82 2.45,1.19 2.75,2.64 1.37,0.38 -0.42,1.13 0.72,0.75 -0.78,0.82 0.06,1.13 1.31,2.14 5.44,1.32 2.45,2.01 6.87,-1.19 1.61,1.76 0.96,0.06 0.42,1.32 3.53,0.88 3.94,3.39 6.69,-2.64 1.61,0 2.33,2.34 z" 
                fill="rgb(151, 144, 238)" 
                stroke="white" 
                stroke-width=".7px"
                title="Hato Mayor" 
                id="DO-30" 
            />
        </svg>