<svg xmlns="http://www.w3.org/2000/svg" viewBox="330.98609 85.11093000000002 51.56999999999999 76.43000000000006" width="51.56999999999999" height="76.43000000000006">
            <path 
                d="m 330.98609,139.56093 0.01,-1.92 1.54,-3.07 2.69,-11.15 2.7,-5.75 0,-2.7 -2.31,-2.71 -0.77,-1.92 0,-3.08 1.93,-3.07 -0.38,-5.4 5,-11.52 0.77,0 1.92,2.71 1.92,1.17 4.23,0.79 0.77,0.78 0.39,4.62 1.15,1.55 2.31,0.78 1.92,-0.76 2.7,-8.07 0.77,-0.77 2.31,-0.76 1.92,-2.68 2.69,-0.37 1.93,-1.15 2.3,0.02 2.7,0.78 1.15,1.16 0.38,1.16 -1.15,1.54 0.77,2.7 2.69,3.86 2.69,2.33 0,0 1.16,0.39 0.77,1.55 -0.39,3.07 -1.54,1.15 -1.54,-0.01 -3.85,1.9 -1.15,2.31 0.77,1.93 3.08,1.17 0,1.15 -4.62,1.52 -2.31,2.29 -1.92,-0.01 -1.54,0.76 -6.16,4.59 -1.16,6.92 -2.31,6.52 0.39,2.7 -1.93,4.22 0,3.84 -1.54,2.3 -2.31,1.53 -1.15,2.68 0,3.08 1.15,1.54 0.77,3.08 0,0 -4.62,-0.41 -6.54,1.12 -2.69,-3.48 -1.15,-4.23 -2.31,-4.25 -3.08,-2.71 -1.15,-2.69 z" 
                fill="rgb(151, 144, 238)" 
                stroke="white" 
                stroke-width=".7px"
                title="Hermanas Mirabal" 
                id="DO-19" 
            />
        </svg>