<svg xmlns="http://www.w3.org/2000/svg" viewBox="0.4060941899999926 282.67093 172.77999581000003 123.9899999999999" width="172.77999581000003" height="123.9899999999999">
            <path 
                d="m 44.876094,282.67093 8.71,0.05 18.85,3.93 12.31,-0.31 4.23,1.94 10.77,1.59 1.539996,0.78 0,0 0,0 0,0 0,0 0,0 -1.539996,1.14 -5,1.5 -6.93,0.73 -1.54,0.76 0,6.51 -5,10.31 -0.77,3.05 0.76,8.05 1.93,3.07 24.229996,12 4.23,1.17 4.61,0.41 6.16,3.09 0.76,1.54 2.31,0.78 7.31,6.16 1.92,0.01 3.08,-2.66 8.46,-4.16 1.16,-1.53 4.23,0.03 0.77,0.39 2.31,3.83 3.46,2.32 0.77,1.91 -0.39,1.92 1.92,1.92 0.39,3.44 3.07,3.46 1.93,0.39 3.46,-1.12 3.84,0.02 0,0 -0.77,3.05 -1.92,1.52 -1.54,3.43 -1.92,1.9 -9.24,2.63 -5,-0.03 -8.85,-1.96 -6.15,-4.62 -5.77,7.61 0,1.53 5.77,11.11 3.07,10.34 -0.77,0.75 -2.31,-0.77 -3.46,0.36 -3.08,-1.54 -3.07,0.74 -1.93,2.67 0,4.96 -0.64,1.89 0,0 -3.5,-2.41 -4.07,-4.52 -8.14,-7.19 -8.39,-0.79 -4.599996,-1.33 -4.89,-3.03 -5.26,-1.5 -3.82,0 -2.79,-1.59 -2.29,-2.67 -5.46,-3.9 -2.69,-3.46 -2.16,-0.01 -1.39,-1.14 -4.57,-1.61 0,0 6.78,-11.4 -21.7,-8.63 -1.86,-3.15 -5.66,-1.22 -3.05,-6.91 -7.1,-3.84 -6.08,-2.45 -2.03,-6.3 7.25,-1.33 -0.17,-2.89 -16.06,-17.07 -2.6299998,-5.87 -1.77,0 -2.29,-3.15 -3.04,0.44 -1.77000001,-1.66 2.36000001,-1.5 3.29,-1.06 3.45,-4.65 4.6499998,1.92 3.63,2.89 1.44,-0.44 1.76,-2.73 1.86,0 4.48,2.71 0.76,2.1 1.44,-0.17 1,-2.11 3.63,0.43 1.69,1.49 3.63,-1.06 2.62,0.61 1.85,-1.06 -0.68,-5.88 1.43,-1.93 z" 
                fill="rgb(151, 144, 238)" 
                stroke="white" 
                stroke-width=".7px"
                title="Independencia" 
                id="DO-10" 
            />
        </svg>