<svg xmlns="http://www.w3.org/2000/svg" viewBox="658.77609 216.48093 133.6700000000002 196.06" width="133.6700000000002" height="196.06">
            <path 
                d="m 696.60609,392.53093 1.2,1.19 7.41,2.06 4.42,2.81 4.18,0.13 -0.66,-0.69 0.3,-0.5 3.35,0.56 1.14,2 2.45,0.38 1.44,1.06 4.06,-0.56 1.61,0.69 3.23,-1.13 1.91,0.44 3.35,2.5 2.09,2.69 1.14,2.56 -0.12,2.69 -1.79,1.13 -0.66,-1.19 -1.08,0.25 -0.54,-1 -1.85,0 -4.42,-1.62 -5.68,-1 -2.21,1.31 -1.43,-0.25 -2.81,0.81 -1.49,1.63 -1.61,0.13 -14.52,-5.06 0.54,-0.81 -0.42,-1.19 -3.52,-4.31 -2.63,-1.94 0.36,-3.63 1.38,-1.38 1.88,-0.76 z m -5.14,-176.05 2.33,1.19 1.26,-0.13 3.11,2.64 3.05,0.56 6.99,4.84 0.78,1.13 2.39,1 2.87,3.77 7.59,6.53 0.6,1.57 5.32,5.78 0.36,1.32 2.87,1.57 1.02,2.13 3.41,2.01 8.37,8.79 2.81,1.95 1.08,-0.06 0.66,-1.51 1.5,0.88 -0.24,0.75 0.78,1 6.99,6.21 2.15,1.13 2.21,0.25 2.21,2.89 2.69,2.26 0.06,1.13 1.02,1.38 4.12,2.19 1.61,3.07 2.99,2.51 2.03,1.32 0.84,0 0.96,-1.13 4,3.39 3.65,1.76 4,5.45 -0.78,1.32 1.32,0.82 -0.36,2.76 -1.37,0.13 1.2,1.69 -1.61,4.2 -1.61,1.88 -1.85,3.76 -2.99,3.51 -0.36,2.01 -0.9,0.63 -2.45,4.39 -2.63,0.69 0.06,2.32 -2.03,3.7 0,1.13 -3.35,2.76 -1.25,0.25 -1.49,2.51 -3.11,2.88 -1.07,3.76 -0.3,10.83 -3.11,3.82 -5.32,1.69 -14.7,-4.69 -1.79,-1.56 -1.67,-0.31 -2.39,-1.5 -2.03,-1.81 -3.64,1.75 -0.78,1.31 -0.12,2.13 2.75,3.44 0.3,2.32 -3.05,6.76 -2.51,2.57 -1.2,2.56 -0.95,4.76 -0.96,0.63 0.12,5.82 0.12,0.69 0.12,2.5 -0.54,1.38 -3.88,-1.75 -0.72,0.5 -3.17,-0.06 -2.33,1.31 -3.52,0.06 -2.87,-0.94 -0.84,1.06 -1.19,-0.19 -1.02,1.25 -1.02,0.19 -0.51,-0.31 0.34,-0.89 1.13,0.2 0.78,-2.06 -1.91,-1.38 -1.19,0.06 -0.9,1.13 0.36,1.44 1.25,0.31 -0.2,0.5 -2.66,1.19 0.78,-1.88 -0.84,-4.94 -2.51,-3.19 -3.52,-8.57 -4,-5.44 -2.69,-6.07 -4.84,-3.57 -1.55,-2.88 0.66,-1.31 -0.66,-0.81 -12.66,-5.94 0,0 0.63,-1.98 1.54,-1.9 0.39,-8.03 2.31,-1.14 -0.38,-1.53 1.54,-1.9 0.39,-1.91 1.54,-1.52 3.46,-6.87 -0.77,-0.77 0,-8.04 -5.77,-3.86 -4.23,-6.92 -1.92,-0.78 -0.38,-5.36 -0.77,-1.15 -1.92,-0.39 0,-2.3 -2.31,-1.54 -0.38,-1.92 0,0 0,-1.15 -1.54,-1.54 -0.38,-1.92 1.54,-1.52 -0.38,-3.45 0.77,-2.68 0.77,-0.76 5.38,-0.35 3.46,1.17 1.92,-0.37 3.47,-6.5 3.85,-2.28 3.08,-4.2 2.69,-1.52 0.77,-2.68 -0.38,-7.29 -5.38,-12.3 -1.92,-3.08 0,-1.15 2.7,-2.29 1.54,-0.37 -0.38,-4.61 0.77,-1.53 3.08,-0.37 1.15,-2.3 1.92,0.78 0.77,-0.76 -0.38,-2.69 1.92,0.78 0,-3.87 0,0 -0.04,0 z" 
                fill="rgb(151, 144, 238)" 
                stroke="white" 
                stroke-width=".7px"
                title="La Altagracia" 
                id="DO-11" 
            />
        </svg>