<svg xmlns="http://www.w3.org/2000/svg" viewBox="26.776094000000025 144.08093 119.17999599999999 146.57000000000008" width="119.17999599999999" height="146.57000000000008">
            <path 
                d="m 111.34609,144.08093 1.92,0.79 1.92,-0.38 5,2.34 2.69,3.86 0.39,4.61 8.07,6.2 2.31,0.01 4.61,3.49 5,1.56 2.7,1.94 0,0 -0.39,0 0,0 -1.15,1.53 0,0 -1.16,10.37 0.77,2.69 -1.16,1.53 -2.69,1.52 -4.62,-0.02 -3.08,2.67 -1.53,-0.01 -0.39,-1.54 -2.69,-0.01 -3.84,-3.87 -7.31,-1.19 -2.31,0.75 -3.85,5.75 0.38,4.61 -2.69,4.2 -3.08,7.67 -0.39,4.99 -0.77,0.76 -2.31,0.37 -7.309996,-1.96 -1.92,0.37 -2.31,1.91 -8.08,9.93 0,1.15 0.77,0.78 1.54,0.39 -0.39,3.83 -3.46,5.74 -0.39,4.6 0.77,0.01 2.31,-2.29 0.77,0.38 -0.39,8.06 1.15,4.22 -1.54,1.91 -0.76,2.68 -1.16,0.76 3.08,1.94 0,1.53 1.53,1.93 3.08,1.55 1.54,0 0.38,1.16 2.7,1.55 0.38,1.91 -1.16,2.3 -1.15,0.76 -0.38,1.53 0.76,1.54 1.16,0.77 1.53,3.46 2.31,1.16 3.849996,-0.36 1.92,1.16 1.54,3.84 0,1.53 -1.54,5.74 -1.54,1.91 0,0 -1.539996,-0.78 -10.77,-1.59 -4.23,-1.94 -12.31,0.31 -18.85,-3.93 -8.71,-0.05 0,0 -0.35,-0.63 1.43,-1.49 1.77,0.7 0.84,-0.71 0.42,-3.16 9.87,-3.79 3.26,-18.53 0.32,-6.5 -1.18,-1.93 0,-1.67 0.16,-5.89 -0.34,-0.44 -2.28,-0.26 0.25,-1.67 -0.68,-1.22 -4.65,-3.42 -1.6,-0.17 -3.22,-9.31 0.33,-1.41 -2.02,-0.88 -0.76,1.24 -3.89,-1.4 -0.42,-1.32 -2.79,-0.79 -1.26,1.24 -0.76,-1.67 -1.6,1.67 -1.02,0.62 -1.26,1.32 0,-0.7 -1.44,-1.23 0.01,3.6 -1.6,0.18 -1.44,-0.61 -1.01,1.67 -0.59,-0.17 -0.6,-3.78 1.02,0.61 1.18,-0.26 -0.18,-3.17 2.03,-0.79 -0.17,-1.5 1.01,-0.44 0.17,1.49 1.43,-0.17 -0.25,-1.06 1.01,-1.06 -0.17,-1.31 1.6,0.43 0.84,-2.11 1.44,0 0.16,-1.23 0.59,0.35 0.6,2.37 4.72,-1.06 0.17,-1.06 1.44,-0.44 0.59,1.23 -0.42,0.7 1.43,0.79 0.85,-0.18 0.16,-0.88 -1.01,-0.79 0.17,-1.49 1.26,-1.06 0.76,0.44 1.27,-0.71 -1.61,-1.05 2.61,-3.17 0.59,0 0.59,1.32 0.85,-0.27 -0.6,-1.67 3.04,-2.91 2.02,1.06 0.59,-1.77 2.2,-0.35 1.01,-1.32 1.43,-0.62 0,-0.62 -1.01,-0.26 1.01,-1.67 1.43,1.05 1.77,-1.67 -2.36,-0.88 0.16,-1.41 2.02,0 1.02,-0.71 -0.42,-1.84 -1.61,-0.88 0.42,-1.06 1.6,-1.05 2.87,1.49 1.01,-1.5 -0.67,-1.85 1.26,0 1.18,0 1.61,0.78 2.02,-1.23 1.85,-3.79 -1.86,-1.31 3.04,-1.24 -1.61,-1.5 0.85,-0.17 0.17,-0.71 -0.18,-1.05 -0.84,-0.35 0.25,-1.06 2.2,0.35 0.59,-0.62 -3.04,-1.67 0.59,-0.88 1.43,0.44 0.59,-0.79 1.43,0.17 0.43,-1.06 -2.62,-1.49 0.16,-2.11 2.28,-1.06 0.59,0.88 0.59,-0.88 -1.44,-1.06 -1.78,-2.9 0.39,-0.59 2.31,-3.06 2.69,-1.91 2.69,0.79 0.77,-0.77 0.77,-5.76 1.93,-1.91 4.23,2.33 3.08,-0.75 2.689996,0.78 1.15,1.54 2.69,0.4 2.7,-4.21 2.69,-1.52 z" 
                fill="rgb(151, 144, 238)" 
                stroke="white" 
                stroke-width=".7px"
                title="La Estrelleta" 
                id="DO-07" 
            />
        </svg>