<svg xmlns="http://www.w3.org/2000/svg" viewBox="620.5960900000002 285.70092999999997 58.459999999999695 75.18" width="58.459999999999695" height="75.18">
            <path 
                d="m 644.19609,352.18093 3.17,3.69 0.9,2.82 0.24,0.94 -0.48,1.25 -4.78,-1.56 -2.09,-1.63 0,-0.81 1.02,0.19 0.72,-4.69 1.3,-0.2 z m -17.46,-33.69 4.62,-1.5 4.23,-4.19 0.77,-2.68 6.54,-4.94 3.46,-4.58 2.69,-6.88 1.54,-1.91 2.7,-5.73 0.77,-0.38 2.69,1.55 3.85,0.02 0,0 0.38,1.92 2.31,1.55 0,2.3 1.92,0.39 0.77,1.15 0.38,5.36 1.93,0.78 4.23,6.92 5.77,3.86 0,8.04 0.77,0.77 -3.46,6.87 -1.54,1.52 -0.39,1.91 -1.54,1.91 0.38,1.53 -2.31,1.14 -0.39,8.03 -1.54,1.9 -0.63,1.98 0,0 -2.1,-0.06 -4.24,-0.88 -2.03,-1.13 -1.31,0.81 -0.78,-1.57 -1.61,-0.37 -3.11,1.31 -0.36,1.25 -0.9,0.63 -4.3,-0.31 -3.7,1.44 -9.74,0.88 -4.79,-0.25 0,0 -1.54,-3.96 0.77,-2.67 -1.15,-1.92 0,-1.15 -3.46,-4.99 -1.15,-0.77 -1.54,-3.07 0,-1.91 1.54,-3.05 3.46,-3.43 1.14,-3.44 z" 
                fill="rgb(151, 144, 238)" 
                stroke="white" 
                stroke-width=".7px"
                title="La Romana" 
                id="DO-12" 
            />
        </svg>