<svg xmlns="http://www.w3.org/2000/svg" viewBox="234.0360899999997 128.20093000000008 138.1000000000001 156.5599999999999" width="138.1000000000001" height="156.5599999999999">
            <path 
                d="m 299.44609,128.22093 0.77,0.39 0.39,1.93 1.15,1.16 10.39,1.21 3.46,-0.36 1.54,-2.69 1.54,-1.53 0.77,0.01 3.46,6.56 0,6.92 0.76,1.16 5.01,0.02 0.76,-0.76 0.39,-2.31 1.15,-0.37 0,0 0.77,4.62 1.15,2.69 3.08,2.71 2.31,4.25 1.15,4.23 2.69,3.48 6.54,-1.12 4.62,0.41 0,0 0.77,2.7 2.3,3.09 1.93,1.16 3.84,4.63 2.69,0.78 3.08,2.33 1.54,3.08 1.53,0.01 0,0 1.16,0.39 -0.39,1.15 -0.77,0.38 -1.15,-1.16 -0.77,0 -1.15,3.45 -2.31,1.14 -4.62,0.36 -0.38,-0.77 -2.31,-0.02 -3.46,4.59 -1.54,-0.01 -3.08,1.52 -1.54,1.91 -1.54,3.84 0,0 0,-5 -2.69,-1.93 -6.15,-1.96 -3.08,1.91 -0.39,3.45 -3.85,3.05 -3.07,-1.55 -5.78,0.73 -2.69,1.52 -1.92,2.68 0,2.69 1.15,1.54 0.39,3.46 1.92,6.15 -0.01,5.76 -2.69,1.52 -1.54,-0.01 -1.54,1.15 -0.77,2.68 -3.85,3.43 -1.54,2.29 -6.15,3.42 -2.7,5.74 0.39,2.3 2.3,1.17 2.31,3.08 3.08,2.32 2.3,5.76 5,4.63 1.16,2.31 0,0 0,0 0,0 -1.16,1.53 0,1.15 1.15,5.37 -3.08,1.13 -1.15,1.15 -1.54,2.67 0.77,2.3 -0.39,1.15 -4.23,-0.02 -2.31,1.13 -1.92,1.91 0,4.6 -1.93,0.75 -3.84,-0.02 -1.54,-1.16 -3.46,-0.4 -6.16,1.5 -5,0.35 0,0 -0.41,-0.41 2.7,-2.18 0.79,-4.94 0,-6.57 -1.31,-3.98 -4.83,-4.11 -4.3,-0.52 -1.48,-1.1 -4.23,0.36 -5.79,-8.47 -2.35,-2.47 -4.04,-1.92 -1.27,-2.1 0.38,-3.14 -3.46,-4.23 -0.38,-9.6 1.15,-1.14 1.54,0.01 0,-1.92 -2.3,-3.09 -1.54,-0.77 -0.39,-3.46 1.55,-3.06 -3.47,-4.24 -1.54,-0.78 -1.92,0.76 -1.15,1.53 -3.08,1.13 0,0 -0.77,-3.07 -2.31,-3.85 -2.3,-1.55 0,0 1.54,-1.91 0,-1.54 -0.77,-3.46 -1.15,-1.93 0.38,-2.3 5.39,0.41 1.92,-1.52 1.15,-2.68 1.16,-0.76 3.46,0.4 3.08,-2.29 3.46,-0.75 1.16,-1.14 1.54,-4.6 3.46,0.02 4.23,-1.13 1.16,-1.15 0.77,0.01 0,-0.77 1.15,-0.76 2.31,-0.38 0.77,-1.14 2.3,-0.76 0.78,-4.99 1.54,-3.45 1.54,-1.53 1.15,0.39 1.15,3.08 2.69,0.4 1.54,1.16 1.93,-0.75 1.54,-1.92 0,-0.77 -1.54,-0.39 0.38,-2.69 -1.53,-1.16 1.54,-2.68 -0.77,-2.31 1.15,-1.53 -0.77,-0.39 -0.38,-1.93 1.15,-1.91 -1.53,-1.16 -5,-1.57 -8.47,-3.89 -0.77,-1.16 3.08,0.02 0,-1.16 -2.31,-1.17 -0.76,-3.08 3.07,0.02 0.77,-1.53 1.54,0.01 1.93,-1.53 5.38,0.41 0.77,-1.15 0,-1.92 0.77,-0.76 6.93,-1.89 4.23,-2.67 z" 
                fill="rgb(151, 144, 238)" 
                stroke="white" 
                stroke-width=".7px"
                title="La Vega" 
                id="DO-13" 
            />
        </svg>