<svg xmlns="http://www.w3.org/2000/svg" viewBox="385.24609000000015 56.76093 98.83999999999997 110.14999999999989" width="98.83999999999997" height="110.14999999999989">
            <path 
                d="m 433.89609,56.76093 1.49,0.13 1.73,0.63 2.63,-0.19 1.97,1.45 1.32,-0.12 0.96,1.76 1.25,0.13 0.12,2.02 1.25,1.13 0.72,0.32 1.2,-0.88 1.43,1.7 3.11,0.63 3.05,6.31 0.48,2.77 -0.6,2.4 -1.8,2.77 -0.05,4.23 -2.1,3.91 1.68,3.91 1.73,2.08 2.57,0.81 1.79,1.77 -0.95,1.57 0,9.21 -0.72,1.44 0.78,3.22 2.45,5.73 3.16,4.91 0,3.21 1.98,2.9 4.72,3.78 0.24,2.01 1.73,1.2 0.12,1.32 1.73,2.39 5.16,4.91 0,0 0.4,3.09 3.46,3.1 -1.54,-0.01 -2.69,-1.55 -0.77,0.38 1.92,2.32 -0.38,1.15 -0.77,-0.01 -2.31,-1.93 -1.54,0.37 0.38,2.31 1.16,1.93 0,1.54 0.77,0 0.38,1.16 -0.77,0.38 0,1.54 -0.77,0.76 -1.54,-1.16 -1.15,0.38 -0.39,3.07 3.08,1.94 0.38,1.92 0,0 -5.77,-0.03 -6.15,-1.57 -5,-3.1 -1.54,-1.93 -1.54,-0.78 -13.07,-3.54 -8.08,-3.5 -10,-1.98 -2.31,-2.32 -0.38,-2.7 0.77,-4.22 -1.54,-1.17 -5.77,-1.18 -6.92,0.34 -1.54,-0.77 -4.23,-8.49 -1.15,-4.24 -1.54,-1.16 1.16,-7.69 -3.08,-10.03 -1.92,-1.16 -2.69,0.37 -0.77,-0.78 0,-1.15 -1.16,-0.78 -1.53,-0.01 -1.16,-1.16 -3.46,-0.79 -1.92,-2.32 0,0 1.92,-5.76 -0.76,-5.79 1.15,-0.76 1.54,0.78 4.61,-0.36 1.16,0.78 2.69,-1.53 2.69,-0.37 3.47,-3.06 5.38,-2.28 1.16,-1.15 0.77,-3.08 0,-3.85 0.77,-2.31 -0.37,-1.53 0,0 2.21,-1.63 1.49,-4.1 1.26,-1.51 2.8,-2.4 1.74,-0.06 1.67,-0.51 4.24,-1.26 0.9,0 0.66,0.82 4.12,-0.19 z" 
                fill="rgb(151, 144, 238)" 
                stroke="white" 
                stroke-width=".7px"
                title="María Trinidad Sánchez" 
                id="DO-14" 
            />
        </svg>