<svg xmlns="http://www.w3.org/2000/svg" viewBox="300.17609 186.49093 83.18999999999994 91.06" width="83.18999999999994" height="91.06">
            <path 
                d="m 316.71609,259.67093 -1.16,-2.31 -5,-4.63 -2.3,-5.76 -3.08,-2.32 -2.31,-3.08 -2.3,-1.17 -0.39,-2.3 2.7,-5.74 6.15,-3.42 1.54,-2.29 3.85,-3.43 0.77,-2.68 1.54,-1.15 1.54,0.01 2.69,-1.52 0.01,-5.76 -1.92,-6.15 -0.39,-3.46 -1.15,-1.54 0,-2.69 1.92,-2.68 2.69,-1.52 5.78,-0.73 3.07,1.55 3.85,-3.05 0.39,-3.45 3.08,-1.91 6.15,1.96 2.69,1.93 0,5 0,0 0.77,3.46 4.23,4.63 -0.77,6.14 0.38,3.07 0.77,0.77 4.23,0.79 2.69,1.17 0.77,1.16 0,3.45 6.15,4.64 -0.42,0.38 2.8,2.55 4.36,2.36 3.01,3.57 3.27,2.5 3.02,4.51 0.98,4.04 0,0 -2.02,1.66 -2.31,0.75 -0.77,1.15 0,6.52 -0.77,1.91 0,0 -1.93,1.52 -4.62,1.51 -2.69,1.9 -1.92,2.29 -0.39,1.92 1.15,1.54 0.39,2.68 -0.39,1.15 -3.08,2.66 -0.76,1.92 -2.31,1.9 -1.16,-0.01 -3.56,-2.56 0,0 -2.97,-0.92 -1.93,-1.16 -2.31,-2.7 -3.46,-1.55 -5.77,1.88 -4.23,-0.4 -1.15,1.14 -1.16,-0.01 -3.84,-3.85 -5,-1.95 -3.08,-4.23 -1.92,-1.16 z" 
                fill="rgb(151, 144, 238)" 
                stroke="white" 
                stroke-width=".7px"
                title="Monseñor Nouel" 
                id="DO-28" 
            />
        </svg>