<svg xmlns="http://www.w3.org/2000/svg" viewBox="377.4960900000002 190.3509300000002 187.7199999999997 118.10999999999976" width="187.7199999999997" height="118.10999999999976">
            <path 
                d="m 484.06609,191.92093 0.77,0.01 1.54,1.93 1.92,1.16 1.16,0.01 1.92,1.16 4.61,4.25 2.31,3.47 9.23,3.51 1.93,2.31 0,0 1.92,3.08 3.84,0.79 2.31,1.17 3.85,3.47 5.38,2.34 1.54,1.16 1.15,1.92 1.93,1.16 2.3,0.4 3.85,3.09 3.84,1.17 4.23,3.1 5.77,1.95 3.85,2.7 6.16,-1.11 2.3,0.01 1.54,1.16 0,2.3 -1.54,2.68 -3.08,0.37 -1.54,3.82 -4.23,1.13 -3.46,4.58 -1.54,0.38 -0.39,2.68 -1.54,1.14 0,0 -0.38,-1.54 -1.92,-1.16 -1.16,0 -0.77,0.37 -3.08,4.97 -1.15,0.38 -2.31,4.59 -5,6.48 -3.86,12.63 -2.69,4.96 -2.68,3.17 0,0 -9.06,-3.26 -3.86,0 -1.55,3.25 -5.15,1.08 -2.06,1.35 -4.16,-0.33 -4.56,1.45 -2.31,-0.78 -4.62,3.42 0,1.92 -1.92,4.2 -3.08,1.52 -0.77,1.52 -3.08,1.9 -1.15,-3.07 0.38,-3.44 -1.15,-1.16 -0.77,-3.07 -3.85,-0.02 -0.76,-1.15 -0.39,-5.75 0.77,0.01 0,-0.77 -0.77,-0.77 -1.53,-0.01 -1.16,1.53 -0.77,-0.39 -0.77,-2.31 -3.07,-3.84 -0.39,-2.69 -1.53,-1.54 0,-1.15 -2.7,0.75 -2.69,-0.39 -4.23,2.65 -1.54,-0.01 -1.92,-1.54 -2.7,-0.01 -1.54,-1.16 -2.69,-0.78 -0.38,1.14 0.77,0.78 -0.01,2.29 -1.53,1.91 -2.7,0.37 -2.3,3.05 -1.93,-0.01 -1.15,-0.77 -3.85,-0.03 -2.31,1.91 -1.54,0.37 -5,-4.62 -3.07,-0.02 -2.7,0.75 -4.23,-0.79 -1.15,-0.77 -3.07,-6.15 -3.47,-4.62 -0.38,-1.53 -2.31,-0.4 -1.92,1.14 0,0 -1.16,-1.92 -4.22,-3.86 -5.01,-0.8 -1.15,-1.15 -0.77,-2.31 -5.76,-5.78 0,0 0.77,-1.91 0,-6.52 0.77,-1.15 2.31,-0.75 2.02,-1.66 0,0 1.05,-1.39 3.85,-1.9 4.62,0.79 5.77,-0.73 4.23,0.79 0.77,-0.76 0.77,-3.07 1.54,-1.52 4.23,0.02 4.23,-2.66 1.54,0.01 1.54,2.31 2.31,-0.37 1.92,0.78 1.15,-1.15 1.16,-3.44 1.15,-0.76 2.7,1.16 3.46,3.09 2.3,1.16 3.85,0.41 2.31,-2.29 1.54,-3.83 1.92,-1.91 3.47,-8.42 0.39,-5.75 -1.54,-1.16 -0.77,-3.46 3.85,-7.66 0,0 7.31,0.43 1.54,-1.15 0,-10.37 4.62,1.57 4.23,-1.9 6.54,0.81 3.46,-1.9 1.15,0 3.85,0.41 z" 
                fill="rgb(151, 144, 238)" 
                stroke="white" 
                stroke-width=".7px"
                title="Monte Plata" 
                id="DO-29" 
            />
        </svg>