<svg xmlns="http://www.w3.org/2000/svg" viewBox="48.576094 371.5109299999998 108.07999600000001 184.6400000000001" width="108.07999600000001" height="184.6400000000001">
            <path 
                d="m 78.246094,553.84093 1.2,0.75 0.18,1.25 -1.79,0.31 -0.6,-0.81 -0.24,-1.12 1.25,-0.38 z m 26.119996,-30.96 1.25,1.43 2.57,0.19 1.32,0.94 1.49,3.8 1.44,1.43 2.99,0 -1.31,1.31 -0.24,1.56 -4.66,3.99 -6.45,2.43 -3.699996,0.31 -0.96,-0.5 -0.84,-2.37 1.37,-3.92 1.609996,-2.24 0.42,-3.12 2.15,-1.31 1.55,-3.93 z m -42.779996,-151.37 4.57,1.61 1.39,1.14 2.17,0.01 2.69,3.46 5.45,3.91 2.29,2.66 2.8,1.6 3.82,0 5.26,1.5 4.89,3.03 4.599996,1.33 8.39,0.8 8.14,7.18 4.07,4.52 3.51,2.42 0,0 4.63,0.51 4.07,2.66 1.78,1.6 0.25,1.06 -1.52,1.86 -4.58,0.27 3.56,5.85 0.51,2.66 -0.51,4.25 -4.07,5.32 -2.8,0.8 -2.54,-1.33 -0.51,1.06 0,4.78 -0.76,2.39 0.51,1.6 1.53,1.86 4.58,0 2.54,1.86 1.02,1.86 0,1.44 1.79,-0.3 2.31,1.54 4.04,5.03 3.56,-1.06 1.27,-4.25 2.8,0 5.09,6.38 0.26,3.25 1.45,1.06 0.77,4.96 -1.15,1.52 0.31,2.53 0,0 -0.91,0.38 -0.36,1.06 0.06,4.81 -2.09,1.69 -1.08,-1.06 -1.91,0.94 -3.88,5.24 -4.24,8.23 -2.45,11.66 -0.84,2.18 -1.25,0.69 0.18,2.74 -0.96,0.94 0.06,1.19 -1.26,2.24 -1.97,0.94 -0.06,1.62 -2.63,3.8 0.42,1.56 -1.55,2.62 -1.55,0 -2.03,3.12 -1.55,-2.49 -2.63,-1.99 -0.78,-1.93 0.18,-1.31 -5.98,-5.55 -2.87,-8.92 -2.51,-5.42 -2.09,-2.81 -1.61,-1.37 -2.99,-1.06 0.18,-0.87 -1.19,-0.81 -5.019996,-1.93 -9.92,-0.44 -8.67,2.5 -4.18,0.13 -0.48,-0.56 -1.61,0.19 -1.61,-1.87 -2.03,-0.56 0,-0.5 3.71,-0.87 2.45,-2.18 1.55,-5.93 2.15,0.87 1.67,-0.44 1.61,-2.99 0.06,-2.93 -1.14,-3.06 -2.69,-2.87 0.06,-1.69 -1.91,-3.99 -3.77,-2.5 -0.6,-1.25 0.72,-1 1.73,0.13 0.6,-0.56 1.37,-3.99 -0.12,-2.31 -1.91,-2.93 -0.42,-2.37 -1.31,-2.37 -5.86,-5.25 -4.48,-2.31 -3.71,-4.25 -3.51,-1.12 0.72,-0.86 0.25,-1.92 2.36,-1.67 0.42,-3.76 1.01,-0.61 0,-1.92 0.84,-0.44 -0.43,-2.1 -0.84,-0.17 1.01,-1.49 -0.59,-1.05 -1.44,0.27 -1.18,-2.8 0.84,-0.79 -0.01,-3.59 0.76,0 -0.59,-1.48 -1.01,0 0.42,-0.79 0.59,0.17 -0.17,-1.66 -0.42,-0.26 -1.01,1.75 -0.85,-2.36 -0.59,0 -1.86,-2.27 0.67,-1.49 -2.36,0.62 -2.37,-2.71 0,-1.66 1.26,-1.93 1.18,-0.18 0.84,-0.88 -0.42,-1.66 1.01,-3.33 2.44,-1.49 0,-2.71 6.7,-11.83 z" 
                fill="rgb(151, 144, 238)" 
                stroke="white" 
                stroke-width=".7px"
                title="Pedernales" 
                id="DO-16" 
            />
        </svg>