<svg xmlns="http://www.w3.org/2000/svg" viewBox="305.9860899999999 323.8509299999995 86.87000000000012 69.81" width="86.87000000000012" height="69.81">
            <path 
                d="m 354.82609,323.85093 4.92,0.19 2.95,1.55 0.54,1.76 2.31,0.78 0.77,0.77 0,1.53 2.69,0.78 0,0 0,1.53 0,0 0,1.91 0.77,1.15 5,-0.35 0,0 0,1.53 0,0 0.77,0.39 0,1.15 -0.77,0.38 0,0.77 1.54,0.39 -0.77,1.53 1.54,0.01 0.77,-2.29 0.77,-0.38 0,2.68 2.31,-0.75 3.08,1.55 0,0.77 -1.15,1.14 -0.77,0 -0.38,-1.53 -0.77,-0.39 0,3.06 0.77,0.39 -0.77,0.76 -4.23,3.04 -5,-0.41 -1.92,1.9 0,1.53 2.69,-0.75 0.77,1.53 -0.39,2.68 0.77,1.53 0.77,0.01 1.16,-1.52 3.08,0.78 0,2.68 1.15,4.21 2.69,1.55 0.38,1.53 2.69,1.93 0.77,1.15 0.38,3.44 0.77,0.77 3.08,0.78 1.54,1.16 -0.39,3.44 -0.77,0.76 0,3.06 1.92,1.57 0,0 -2.08,1 -4.24,-1.69 -6.04,3.06 -1.91,-1.56 -6.81,-2 -6.75,2.25 -5.02,0.44 -4.9,-1.19 -3.41,0.13 -2.75,-1.37 -1.91,-0.13 -7.95,2.63 -8.07,4.57 -4.24,0.81 -4.24,1.75 -4.54,-3 -2.33,-0.06 -1.55,0.63 -4.12,-0.75 1.43,-3.13 1.73,-0.69 0,1.31 -0.24,-0.94 -1.31,0.5 -0.72,2.06 1.2,0.56 -0.24,-1.12 1.25,0.31 -0.06,-1.13 0.48,1.06 1.97,0.62 0.9,-1.19 2.45,0.81 1.37,-0.87 2.87,-0.13 0.36,-0.94 -3.47,-2.06 -1.79,0 -1.31,0 -3.53,-3.63 -0.18,-1.06 -1.37,-0.38 -0.78,-1 -3.23,-0.56 -1.79,-2.56 0,0 1.11,-1.05 8.46,-0.33 2.69,-1.51 3.85,0.02 2.31,-1.13 2.31,-5.34 0,-1.91 -1.15,-3.45 0.39,-5.73 4.24,-5.71 0,-3.06 -1.68,-2.83 0,0 0.56,-4.47 1.47,-2.06 1.47,-1.03 2.7,0 7.13,-4.12 3.19,0 3.69,-1.29 1.97,-3.35 4.13,-4.12 z" 
                fill="rgb(151, 144, 238)" 
                stroke="white" 
                stroke-width=".7px"
                title="Peravia" 
                id="DO-17" 
            />
        </svg>