<svg xmlns="http://www.w3.org/2000/svg" viewBox="168.58609000000013 0.2509298 182.82999999999987 94.18000020000004" width="182.82999999999987" height="94.18000020000004">
            <path 
                d="m 213.60609,0.2509298 4.96,0.38 4.72,3.16 4.96,2.3999999 0.96,-0.13 1.79,-2.21 5.92,2.91 4,-0.32 0.3,0.95 0.78,0.25 1.37,-1.26 2.57,0.82 2.99,-1.45 0.6,0.88 1.49,-0.3099999 0.54,1.07 -0.42,1.71 0.66,0.88 2.39,1.6400002 2.75,-0.06 7.17,9.22 -1.37,2.02 0.59,0.95 1.2,-0.06 0.96,-1.58 1.61,0.5 1.49,-0.88 2.39,0 2.45,1.64 0.12,0.89 1.02,0.12 0.06,1.27 3.94,1.32 1.8,1.9 -0.78,0.69 0.78,1.07 1.37,-1.38 0.84,0.18 0.12,0.7 4.66,2.33 0.6,1.02 1.55,0.37 2.03,2.66 2.45,0 0.24,1.45 1.43,0.82 1.32,-0.19 1.2,-1.39 2.8,2.08 4.13,1.33 4.3,-2.08 1.26,0.37 1.01,-0.5 2.15,2.27 1.26,-0.5 1.43,0.06 2.63,0.44 1.08,-0.31 -0.54,-1.71 1.91,-3.72 5.8,-1.2 7.71,0.57 2.03,1.01 1.91,2.39 1.98,1.08 1.73,2.46 2.69,0.06 1.91,1.96 4.06,6.37 0,0 -2.31,5.31 1.53,3.48 0,1.93 -0.38,0.77 -5,0.74 0,1.16 1.15,0 0.38,1.16 -1.53,0.38 -0.77,-1.93 -0.77,-0.01 -0.39,1.93 -1.53,-1.55 -1.16,1.92 -1.54,-0.01 -1.54,-3.09 -0.76,-0.01 -1.54,1.15 -3.47,-0.41 -0.38,2.7 -0.77,-0.39 0,-0.77 -2.69,-0.02 -1.16,1.15 -1.15,-1.16 -0.77,0.38 -1.16,-0.77 -1.92,1.91 -0.38,1.16 0.76,0.77 -2.3,0.76 0,1.15 0.77,0.39 -0.01,1.93 -1.54,2.69 0,1.16 1.16,1.93 0,1.92 -3.47,4.22 -0.77,8.86 -1.15,0.38 -1.16,1.53 0,0 -5,-2.72 -5.38,-1.96 -8.46,-1.59 -1.54,-2.32 0,-1.92 2.31,-8.08 -0.77,-3.47 -5.77,-3.51 -2.31,-0.01 -1.53,-0.78 -6.16,-3.89 -0.77,0 0,1.93 1.92,8.1 -0.77,2.31 -1.54,1.92 -5.77,2.28 -1.15,-0.01 -0.77,-0.78 -0.77,-2.7 -0.77,-0.77 -3.46,-0.41 -3.85,-4.26 -4.61,-3.49 -0.77,-0.01 0,1.16 -0.77,0.38 -3.07,-1.56 -2.31,-0.01 -4.23,-1.95 0,0 -8.47,-0.44 -1.54,-0.39 -1.92,-1.94 -1.54,0.76 -3.46,-3.49 -0.38,-1.92 -1.54,-0.01 -4.62,-2.73 -4.61,-4.65 -1.92,-0.01 -1.93,1.15 -4.23,-0.03 -4.61,-1.95 -1.54,-4.64 -2.31,-1.17 -7.69,-0.81 -3.46,-1.18 -2.29,-1.54 0,0 -3.1,-1.96 -7.3,-1.97 -6.16,-3.12 -0.38,-4.67 -1.16,-2.29 0.01,-1.93 0.77,-1.55 -0.37,-1.14 -1.29,-0.64 0,0 1.93,-1.14 -0.18,-2.27 1.2,-1.77 -0.96,-0.63 0.24,-1.84 3.65,1.96 1.07,1.52 2.75,0.62 0.84,-1.13 0.96,-1.2 1.31,-0.06 1.61,1.07 5.08,0.32 1.74,-1.64 4.96,-1.01 2.21,-1.14 2.21,-2.15 -0.36,-3.8500002 1.49,-1.52 2.21,-0.95 0.6,-1.77 4.01,-1.07 3.88,-1.9 z" 
                fill="rgb(151, 144, 238)" 
                stroke="white" 
                stroke-width=".7px"
                title="Puerto Plata" 
                id="DO-18" 
            />
        </svg>