<svg xmlns="http://www.w3.org/2000/svg" viewBox="474.1060900000003 129.38092999999998 140.26999999999992 80.41999999999996" width="140.26999999999992" height="80.41999999999996">
            <path 
                d="m 596.32609,129.38093 0.96,0.25 0.78,1.13 0.3,-0.57 1.79,-0.13 0.48,1.39 -1.37,3.21 -3.35,3.27 -3.05,4.85 -1.02,2.08 0.66,1.01 1.02,0.69 3.82,0.5 0.6,-0.57 1.97,0.25 2.45,-2.45 2.21,1.26 1.73,-0.25 3.88,-2.58 1.44,-0.06 0.18,0.88 2.21,-0.25 0.36,0.57 -0.18,3.34 -2.45,4.59 -5.98,4.15 -1.43,1.89 -2.51,1.2 -0.48,2.58 -1.14,1.89 0.18,3.21 -0.66,0.13 -0.12,2.2 -0.42,1.26 -2.39,0.88 -3.41,-0.69 -2.03,-0.31 -4.54,-0.06 -3.34,-2.45 -1.02,1.07 -2.21,-1.57 -1.14,0.88 -3.88,-2.14 -1.14,0.38 -0.54,1.01 -0.24,0.88 -6.04,-0.88 -7.17,0.38 -0.96,0.94 -0.06,1.57 -1.55,-0.63 -0.24,-1.32 -2.33,-0.25 -1.26,0.82 -2.15,-2.26 -1.85,-0.69 -2.21,0.13 -2.33,-1.13 -2.09,-0.19 -1.25,0.57 -1.13,-0.63 -0.84,0.44 -1.61,-1.45 -1.85,1.2 -0.6,-0.75 -2.15,-0.57 -1.55,0.57 -1.73,-0.69 -2.99,0.57 -4.78,-0.94 -1.02,-0.69 -2.09,0.44 -2.93,-1.76 -3.23,-0.13 -1.55,1.07 0.66,1.38 -0.48,7.86 -1.14,3.02 -1.19,6.67 -0.66,0.38 1.85,7.17 -1.13,1.26 1.73,3.14 3.11,0.57 0,0 -2.75,11.07 -2.31,5.36 0,0 -1.92,-2.31 -9.23,-3.51 -2.31,-3.47 -4.61,-4.25 -1.92,-1.16 -1.15,-0.01 -1.92,-1.16 -1.54,-1.93 -0.77,0 0,0 1.15,-1.15 5,0.03 -1.54,-4.62 -2.31,-2.7 0,-2.31 2.31,0.01 3.46,-2.29 0.77,-0.76 -0.77,-1.54 1.92,-0.37 0.77,-1.53 0.77,0.77 1.54,0.01 0.39,-1.53 1.54,0.01 1.16,-4.61 1.93,-2.29 1.54,0.01 0.39,-1.54 -1.92,-0.78 -4.62,0.74 -1.92,-2.32 -3.46,0.75 -4.23,-0.41 -2.69,-1.55 -3.85,-0.02 -1.54,0.76 -2.31,4.22 0,0 -0.38,-1.92 -3.08,-1.94 0.39,-3.07 1.15,-0.38 1.54,1.16 0.77,-0.76 0,-1.54 0.77,-0.38 -0.38,-1.16 -0.77,0 0,-1.54 -1.15,-1.93 -0.38,-2.31 1.54,-0.38 2.31,1.94 0.77,0 0.39,-1.15 -1.92,-2.32 0.77,-0.38 2.69,1.55 1.54,0.01 -3.46,-3.1 -0.4,-3.09 0,0 6.79,3.78 6.87,1.32 8.37,-1.95 3.59,-2.2 13.98,-0.94 2.93,-1.64 0.12,-2.33 2.45,0.31 0,-1.51 1.67,0.44 0.84,-1.51 1.2,-0.38 1.73,1.2 2.21,-1.13 0.54,0.63 2.39,-0.69 2.93,0.13 2.93,0.94 5.38,-1.13 1.79,0.19 0.9,1.39 0.96,-0.25 0.6,-1.07 0.78,0.13 0.96,1.57 1.85,1.2 1.97,-0.88 -0.12,-0.82 1.2,-0.31 0.84,1.2 1.08,0.06 2.57,1.95 0.66,0.13 0.42,-0.94 1.44,0.13 -0.06,0.82 1.85,1.01 1.73,0.5 1.97,-0.44 1.25,2.64 1.2,0.82 0.84,-0.31 0.42,1.2 1.56,0.13 0.84,-0.38 0.48,-2.96 -0.48,-0.88 0.96,-1.26 2.27,-1.26 1.08,-1.51 2.09,-0.5 1.61,-1.95 4.78,-0.82 -0.36,-1.32 1.61,-1.38 1.25,-0.19 0.78,1.2 2.57,-4.91 0.99,-0.19 z" 
                fill="rgb(151, 144, 238)" 
                stroke="white" 
                stroke-width=".7px"
                title="Samaná" 
                id="DO-20" 
            />
        </svg>