<svg xmlns="http://www.w3.org/2000/svg" viewBox="280.92608999999993 259.67093 75.30000000000007 84.55000000000024" width="75.30000000000007" height="84.55000000000024">
            <path 
                d="m 316.71609,259.67093 2.69,0.4 1.92,1.16 3.08,4.23 5,1.95 3.84,3.85 1.16,0.01 1.15,-1.14 4.23,0.4 5.77,-1.88 3.46,1.55 2.31,2.7 1.93,1.16 2.97,0.92 0,0 -2.63,4.47 -0.25,5.16 -0.49,1.8 -2.46,3.36 -0.24,3.35 2.7,4.38 0,5.67 -0.49,3.61 -2.7,6.7 0,2.06 3.93,4.38 1.23,2.06 0,1.87 0,0 -4.18,4.05 -1.97,3.35 -3.68,1.29 -3.2,0 -7.12,4.12 -2.71,0 -1.47,1.03 -1.48,2.06 -0.56,4.47 0,0 -3.7,-2.55 0.39,-2.68 -1.92,-3.07 0,-2.29 -1.93,-1.16 0.01,-2.3 1.15,-0.76 0,-0.76 -1.15,-1.16 -5.39,-0.79 -3.07,-4.23 -1.16,0.38 -1.15,-1.16 -5,-1.18 -1.15,-2.68 -1.54,-0.01 -2.31,1.14 -1.16,-0.39 -0.38,-1.54 -2.31,-2.69 0,-2.3 -0.77,-1.15 -6.92,-4.25 -1.92,-1.93 -0.77,-1.53 2.7,-4.2 -0.39,-6.51 -2.3,-3.85 -3.08,-2.7 -2.31,-1.16 0,0 5,-0.35 6.16,-1.5 3.46,0.4 1.54,1.16 3.84,0.02 1.93,-0.75 0,-4.6 1.92,-1.91 2.31,-1.13 4.23,0.02 0.39,-1.15 -0.77,-2.3 1.54,-2.67 1.15,-1.15 3.08,-1.13 -1.15,-5.37 0,-1.15 z" 
                fill="rgb(151, 144, 238)" 
                stroke="white" 
                stroke-width=".7px"
                title="San José de Ocoa" 
                id="DO-31" 
            />
        </svg>