<svg xmlns="http://www.w3.org/2000/svg" viewBox="514.026089999999 253.67093000000003 115.79000000000008 95.19000000000003" width="115.79000000000008" height="95.19000000000003">
            <path 
                d="m 547.89609,256.37093 -0.77,1.15 -0.77,6.13 0.77,1.92 2.31,0.39 1.15,1.16 0,2.3 2.31,4.23 -0.01,6.13 1.54,2.3 -2.69,3.44 0.38,1.53 2.31,1.16 1.15,3.08 2.31,2.69 0.38,3.07 1.54,3.45 3.46,2.32 0.77,4.22 1.92,3.45 0.39,2.3 4.22,6.92 1.54,-3.44 3.08,-3.04 3.85,-2.28 0.39,-2.3 2.3,0.02 -0.76,-1.15 0,-4.22 1.15,-1.52 0,-3.07 0.77,-1.52 5,-0.36 2.31,-1.13 1.93,-2.68 0,0 3.07,1.17 1.16,2.69 2.3,0.01 2.31,-1.13 3.46,1.16 6.16,4.25 1.92,4.61 5.77,3.09 2.31,-0.37 2.3,-1.51 6.16,0.03 0.77,1.54 -1.93,0.75 -1.15,9.18 0,0 -1.16,3.44 -3.46,3.43 -1.54,3.05 0,1.91 1.54,3.07 1.15,0.77 3.46,5 0,1.14 1.15,1.92 -0.77,2.68 1.54,3.96 0,0 -7.58,-2.69 -3.82,-0.06 -4.01,-1.07 -6.09,-2.38 -3.11,-2.38 1.08,-0.5 -0.9,-3.19 -2.33,-1.25 -3.77,0.88 -1.91,1.37 -7.11,0.13 -6.1,1.94 -0.77,-0.06 0.41,-0.32 -0.36,-0.75 -2.74,-0.31 0.3,-1.38 -1.02,-0.25 -1.26,0.88 -0.05,1.31 1.01,0.44 -0.48,0.5 -0.6,-0.31 0,1.19 -1.97,1 -5.79,0.38 -7.89,-0.94 -5.32,0.37 -7.65,1.32 -11.53,3.57 -4.4,-0.07 0,0 -0.02,-9.89 0.39,-0.77 1.54,0.01 0.38,-3.82 -10,-0.83 -6.54,-3.86 -1.92,-4.99 -2.69,-1.54 0.77,-1.53 2.31,-1.13 1.92,-4.97 3.47,-5.72 0,-1.15 -1.93,-2.31 1.54,-4.2 0.01,-1.92 -0.78,-0.39 -1.92,1.53 -0.77,-2.31 4.25,-5.22 0,0 2.68,-3.17 2.69,-4.96 3.86,-12.63 5,-6.48 2.31,-4.59 1.15,-0.38 3.08,-4.97 0.77,-0.37 1.16,0 1.92,1.16 z" 
                fill="rgb(151, 144, 238)" 
                stroke="white" 
                stroke-width=".7px"
                title="San Pedro de Macorís" 
                id="DO-23" 
            />
        </svg>