<svg xmlns="http://www.w3.org/2000/svg" viewBox="80.14609400000008 168.50093 160.02999600000004 135.00000000000009" width="160.02999600000004" height="135.00000000000009">
            <path 
                d="m 145.95609,168.50093 0.77,0.39 1.15,3.08 1.15,0.78 2.7,-1.14 3.46,0.02 5.38,1.95 3.08,-1.14 3.08,0.79 0,0 3.84,3.1 5.77,0.8 6.54,2.72 2.31,3.47 3.84,1.95 0.77,3.46 0,4.99 3.08,3.09 2.69,1.55 2.31,0.01 7.3,3.12 1.54,2.69 0,1.92 0.77,0.78 1.92,0.01 1.54,0.77 0.77,-1.14 3.85,-1.52 0.77,-1.91 1.54,-0.76 3.07,1.17 0.77,0 1.16,-1.14 1.54,0 4.23,1.56 1.54,1.16 4.23,0.8 0,0 2.3,1.55 2.31,3.85 0.77,3.07 0,0 -0.39,1.54 0.77,0.77 0,1.53 -1.15,1.53 -6.54,1.12 1.92,4.61 -1.54,2.3 -5.39,1.12 -1.53,2.67 -1.16,0 -3.08,1.51 0,1.16 0.77,0.77 -0.38,2.3 -2.31,4.59 -1.54,0.37 -0.77,1.15 1.53,5.76 2.69,5.38 0,2.69 -2.69,4.58 -0.77,2.68 -2.31,2.29 -0.77,2.29 -1.54,0 -1.92,-3.85 -0.77,-3.07 -1.54,-1.16 -2.69,-0.02 -2.31,1.53 -1.15,1.91 0.38,6.13 0.77,0.77 0,1.53 1.15,0.4 0.39,1.91 -0.77,0.77 -1.54,-0.01 -1.16,1.14 0,1.92 2.31,2.31 0.38,2.68 -1.92,0.37 -2.19,2.17 -3.84,0.1 -2.55,6.32 -2.26,0 -5.22,5.42 -5.49,0.18 0,0 -0.38,-2.43 -0.77,-0.77 -5,-1.56 -5,1.12 -8.85,3.78 -7.31,-0.04 -3.08,-1.17 -2.69,-0.01 -1.54,1.14 -1.15,1.9 -1.93,-0.01 -4.23,3.04 -7.69,-1.57 -0.39,-2.3 -2.69,-0.78 -1.54,1.52 -1.53,-0.01 -1.16,-2.3 -5.77,-3.1 -2.69,-0.4 -2.31,1.14 -2.69,-0.02 -4.23,-1.17 -3.08,-1.55 -1.15,-1.54 -1.54,-0.77 0,0 0,0 0,0 1.54,-1.91 1.54,-5.74 0,-1.53 -1.54,-3.84 -1.92,-1.16 -3.849996,0.36 -2.31,-1.16 -1.53,-3.46 -1.16,-0.77 -0.76,-1.54 0.38,-1.53 1.15,-0.76 1.16,-2.3 -0.38,-1.91 -2.7,-1.55 -0.38,-1.16 -1.54,0 -3.08,-1.55 -1.53,-1.93 0,-1.53 -3.08,-1.94 1.16,-0.76 0.76,-2.68 1.54,-1.91 -1.15,-4.22 0.39,-8.06 -0.77,-0.38 -2.31,2.29 -0.77,-0.01 0.39,-4.6 3.46,-5.74 0.39,-3.83 -1.54,-0.39 -0.77,-0.78 0,-1.15 8.08,-9.93 2.31,-1.91 1.92,-0.37 7.309996,1.96 2.31,-0.37 0.77,-0.76 0.39,-4.99 3.08,-7.67 2.69,-4.2 -0.38,-4.61 3.85,-5.75 2.31,-0.75 7.31,1.19 3.84,3.87 2.69,0.01 0.39,1.54 1.53,0.01 3.08,-2.67 4.62,0.02 2.69,-1.52 1.16,-1.53 -0.77,-2.69 1.16,-10.37 0,0 1.15,-1.53 0,0 z" 
                fill="rgb(151, 144, 238)" 
                stroke="white" 
                stroke-width=".7px"
                title="San Juan" 
                id="DO-22" 
            />
        </svg>