<svg xmlns="http://www.w3.org/2000/svg" viewBox="349.6660899999999 256.56093 81.2600000000001 129.1599999999999" width="81.2600000000001" height="129.1599999999999">
            <path 
                d="m 377.49609,256.56093 5.76,5.78 0.77,2.31 1.15,1.15 5.01,0.8 4.22,3.86 1.16,1.92 0,0 -1.16,0.76 -0.77,1.53 0,2.3 3.46,5 0,2.68 1.16,1.92 -0.39,3.06 2.69,3.08 1.15,2.69 -0.38,1.53 -0.77,0 -1.15,-1.54 -1.54,0.37 -0.78,6.13 1.93,1.54 0.38,3.07 2.31,4.22 1.54,0.39 0,1.91 1.15,1.16 0.77,3.45 -0.39,1.53 0.77,1.53 2.31,0.4 3.08,-0.37 0,-1.53 1.15,-0.37 1.15,2.3 2.7,1.93 0.38,2.68 1.54,2.31 -0.77,0.76 -3.08,-0.02 0,0.76 0.39,1.15 3.07,0.02 -0.38,4.21 1.15,-0.38 0,-1.53 1.54,-1.14 1.92,0.01 1.54,2.31 1.92,0.39 3.08,-3.42 0.39,1.15 -0.77,3.05 1.15,-0.37 0.38,2.29 1.54,1.16 -1.05,3.41 0,0 -1.72,1.63 -0.24,-1 -0.72,0.43 0.3,1.44 -1.25,0.69 -3.11,6.26 -0.6,-0.31 -1.25,1.32 0.59,0.12 -0.83,1.13 -1.26,0.62 -6.75,13.21 -1.97,1.69 -1.5,-0.5 -1.67,1.87 -0.42,2.44 -2.27,3.13 -2.69,2.07 -3.41,6.69 -1.67,0.94 -2.27,-1.75 -2.34,0.93 0,0 -1.92,-1.57 0,-3.05 0.77,-0.76 0.39,-3.44 -1.54,-1.16 -3.08,-0.78 -0.77,-0.77 -0.38,-3.44 -0.77,-1.15 -2.69,-1.93 -0.39,-1.53 -2.69,-1.54 -1.15,-4.22 0,-2.67 -3.08,-0.78 -1.15,1.52 -0.77,-0.01 -0.77,-1.53 0.39,-2.67 -0.77,-1.54 -2.7,0.75 0,-1.53 1.93,-1.9 5,0.41 4.23,-3.04 0.77,-0.76 -0.77,-0.38 0.01,-3.06 0.76,0.38 0.39,1.54 0.77,0 1.15,-1.14 0,-0.77 -3.07,-1.54 -2.31,0.75 0,-2.68 -0.77,0.38 -0.77,2.29 -1.54,-0.01 0.77,-1.52 -1.54,-0.4 0,-0.76 0.77,-0.38 0,-1.15 -0.77,-0.38 0,0 0,-1.53 0,0 -5,0.35 -0.77,-1.15 0,-1.91 0,0 0,-1.53 0,0 -2.69,-0.79 0,-1.53 -0.77,-0.77 -2.3,-0.77 -0.55,-1.76 -2.95,-1.55 -4.91,-0.19 0,0 0,-1.87 -1.23,-2.06 -3.93,-4.38 0,-2.06 2.7,-6.7 0.49,-3.61 0,-5.67 -2.7,-4.38 0.24,-3.35 2.46,-3.36 0.49,-1.8 0.25,-5.16 2.63,-4.47 0,0 3.56,2.56 1.16,0.01 2.31,-1.9 0.76,-1.92 3.08,-2.66 0.39,-1.15 -0.39,-2.68 -1.15,-1.54 0.39,-1.92 1.92,-2.29 2.69,-1.9 4.62,-1.51 z" 
                fill="rgb(151, 144, 238)" 
                stroke="white" 
                stroke-width=".7px"
                title="San Cristóbal" 
                id="DO-21" 
            />
        </svg>