<svg xmlns="http://www.w3.org/2000/svg" viewBox="105.57608999999997 84.53093 95.79000000000005 89.05" width="95.79000000000005" height="89.05">
            <path 
                d="m 127.51609,88.37093 1.18,-0.4 -0.4,-3.06 1.92,-0.38 -0.39,1.93 5,3.88 0,1.92 0.77,0.01 1.16,-1.92 1.53,0.01 1.54,1.16 2.31,0.01 5.39,-2.66 1.54,-1.92 2.3,0.4 1.56,-2.31 1.14,-0.37 4.62,4.67 4.61,0 3.07,2.72 2.31,-0.38 1.93,-3.84 6.15,2.35 0,0 0,4.62 1.54,1.55 0.38,4.62 0.77,0.78 1.92,0.01 2.31,1.17 2.69,0.01 5,3.11 3.08,0.02 2.69,-0.76 3.08,0.41 0,0 -1.54,3.07 -2.31,0.75 0,0.77 1.16,0.01 1.15,1.93 -0.77,2.69 0.77,0.77 2.69,0.4 -1.93,2.3 -3.84,-0.4 -3.08,1.52 -0.77,3.46 -0.77,0.76 -3.08,-0.4 0,1.15 -3.07,0.37 0.38,1.16 -0.77,1.53 -2.69,-0.01 -1.54,-3.09 -6.16,1.51 -3.46,1.9 -0.77,1.53 -1.15,0.77 0.77,3.46 -0.39,1.54 -1.92,-0.01 -0.77,-1.16 -1.16,3.07 -1.92,0.38 0,1.15 2.31,2.7 0,3.08 -1.16,1.53 0.77,5.01 -0.39,0.76 -1.92,-0.39 -0.77,1.53 1.54,3.47 2.69,0.79 1.92,4.23 -0.39,5.38 -1.54,4.22 0.39,2.31 0,0 -3.08,-0.79 -3.08,1.14 -5.38,-1.95 -3.46,-0.02 -2.7,1.14 -1.15,-0.78 -1.15,-3.08 -0.77,-0.39 0,0 -2.7,-1.94 -5,-1.56 -4.61,-3.49 -2.31,-0.01 -8.07,-6.2 -0.39,-4.61 -2.69,-3.86 -5,-2.34 -1.92,0.38 -1.92,-0.79 0,0 -0.77,-1.92 -4.23,-3.1 -0.77,-3.85 5.38,1.18 5.77,-1.12 -0.38,-6.16 0.77,-4.99 -0.76,-5.4 0.38,-0.77 2.69,-1.13 1.16,-1.92 0,-3.47 -1.15,-3.85 0,-6.93 2.31,-4.61 5.77,-6.13 z" 
                fill="rgb(151, 144, 238)" 
                stroke="white" 
                stroke-width=".7px"
                title="Santiago Rodríguez" 
                id="DO-26" 
            />
        </svg>