<svg xmlns="http://www.w3.org/2000/svg" viewBox="393.6360899999997 271.24093 141.54000000000013 75.92999999999978" width="141.54000000000013" height="75.92999999999978">
            <path 
                d="m 395.56609,272.38093 1.92,-1.14 2.31,0.4 0.38,1.53 3.47,4.62 3.07,6.15 1.15,0.77 4.23,0.79 2.7,-0.75 3.07,0.02 5,4.62 1.54,-0.37 2.31,-1.91 3.85,0.03 1.15,0.77 1.93,0.01 2.3,-3.05 2.7,-0.37 1.53,-1.91 0.01,-2.29 -0.77,-0.78 0.38,-1.14 2.69,0.78 1.54,1.16 2.7,0.01 1.92,1.54 1.54,0.01 4.23,-2.65 2.69,0.39 2.7,-0.75 0,1.15 1.53,1.54 0.39,2.69 3.07,3.84 0.77,2.31 0.77,0.39 1.16,-1.53 1.53,0.01 0.77,0.77 0,0.77 -0.77,-0.01 0.39,5.75 0.76,1.15 3.85,0.02 0.77,3.07 1.15,1.16 -0.38,3.44 1.15,3.07 3.08,-1.9 0.77,-1.52 3.08,-1.52 1.92,-4.2 0,-1.92 4.62,-3.42 2.31,0.78 4.56,-1.45 4.16,0.33 2.06,-1.35 5.15,-1.08 1.55,-3.25 3.86,0 9.06,3.26 0,0 -4.25,5.22 0.77,2.31 1.92,-1.53 0.78,0.39 -0.01,1.92 -1.54,4.2 1.93,2.31 0,1.15 -3.47,5.72 -1.92,4.97 -2.31,1.13 -0.77,1.53 2.69,1.54 1.92,4.99 6.54,3.86 10,0.83 -0.38,3.82 -1.54,-0.01 -0.39,0.77 0.02,9.89 0,0 -4.21,-1.19 -3.23,-2.63 -1.37,-2.25 -5.08,-3.51 -5.92,-0.25 -2.57,2.07 1.38,7.26 -0.96,1.38 -1.2,0.06 -7.05,-2.25 -2.39,-3.88 -0.42,-4.26 -3.64,-1.82 -3.35,-0.19 -4.72,-1.56 -10.34,-0.81 -6.93,0.37 -2.99,-1.06 -10.46,0.43 0,0 -0.3,-2.36 1.85,-3.46 0,-1.79 -3.17,-2.08 -7.65,1.52 -3.29,1.38 -2.38,-3.17 -2.24,-1.11 -0.66,-2.9 -1.18,-1.8 -2.37,-0.97 -1.72,1.25 -1.19,2.76 0,2.49 -2.76,1.52 1.31,2.35 5.01,3.59 1.32,1.8 0.13,5.53 -2.37,2.48 -0.17,2.24 0,0 -2.73,1.13 -3,-0.69 0,0 1.05,-3.41 -1.54,-1.16 -0.38,-2.29 -1.15,0.37 0.77,-3.05 -0.39,-1.15 -3.08,3.42 -1.92,-0.39 -1.54,-2.31 -1.92,-0.01 -1.54,1.14 0,1.53 -1.15,0.38 0.38,-4.21 -3.07,-0.02 -0.39,-1.15 0,-0.76 3.08,0.02 0.77,-0.76 -1.54,-2.31 -0.38,-2.68 -2.7,-1.93 -1.15,-2.3 -1.15,0.37 0,1.53 -3.08,0.37 -2.31,-0.4 -0.77,-1.53 0.39,-1.53 -0.77,-3.45 -1.15,-1.16 0,-1.91 -1.54,-0.39 -2.31,-4.22 -0.38,-3.07 -1.93,-1.54 0.78,-6.13 1.54,-0.37 1.15,1.54 0.77,0 0.38,-1.53 -1.15,-2.69 -2.69,-3.08 0.39,-3.06 -1.16,-1.92 0,-2.68 -3.46,-5 0,-2.3 0.77,-1.53 z" 
                fill="rgb(151, 144, 238)" 
                stroke="white" 
                stroke-width=".7px"
                title="Santo Domingo" 
                id="DO-32" 
            />
        </svg>