<svg xmlns="http://www.w3.org/2000/svg" viewBox="162.11608999999982 64.18093000000002 151.57999999999998 143.47999999999982" width="151.57999999999998" height="143.47999999999982">
            <path 
                d="m 245.62609,66.31093 4.23,1.95 2.31,0.01 3.07,1.56 0.77,-0.38 0,-1.16 0.77,0.01 4.61,3.49 3.85,4.26 3.46,0.41 0.77,0.77 0.77,2.7 0.77,0.78 1.15,0.01 5.77,-2.28 1.54,-1.92 0.77,-2.31 -1.92,-8.1 0,-1.93 0.77,0 6.16,3.89 1.53,0.78 2.31,0.01 5.77,3.51 0.77,3.47 -2.31,8.08 0,1.92 1.54,2.32 8.46,1.59 5.38,1.96 5,2.72 0,0 0,4.62 -3.85,3.06 -3.07,0.75 -1.16,1.54 0.38,5.77 -2.69,4.61 0,1.54 0.38,3.85 1.15,3.47 1.16,1.16 0,1.15 -0.77,0.38 -1.54,-1.55 -1.92,-0.01 -1.54,1.53 -0.78,1.92 0,0 -3.84,-0.02 -4.23,2.67 -6.93,1.89 -0.77,0.76 0,1.92 -0.77,1.15 -5.38,-0.41 -1.93,1.53 -1.54,-0.01 -0.77,1.53 -3.07,-0.02 0.76,3.08 2.31,1.17 0,1.16 -3.08,-0.02 0.77,1.16 8.47,3.89 5,1.57 1.53,1.16 -1.15,1.91 0.38,1.93 0.77,0.39 -1.15,1.53 0.77,2.31 -1.54,2.68 1.53,1.16 -0.38,2.69 1.54,0.39 0,0.77 -1.54,1.92 -1.93,0.75 -1.54,-1.16 -2.69,-0.4 -1.15,-3.08 -1.15,-0.39 -1.54,1.53 -1.54,3.45 -0.78,4.99 -2.3,0.76 -0.77,1.14 -2.31,0.38 -1.15,0.76 0,0.77 -0.77,-0.01 -1.16,1.15 -4.23,1.13 -3.46,-0.02 -1.54,4.6 -1.16,1.14 -3.46,0.75 -3.08,2.29 -3.46,-0.4 -1.16,0.76 -1.15,2.68 -1.92,1.52 -5.39,-0.41 -0.38,2.3 1.15,1.93 0.77,3.46 0,1.54 -1.54,1.91 0,0 -4.23,-0.8 -1.54,-1.16 -4.23,-1.56 -1.54,0 -1.16,1.14 -0.77,0 -3.07,-1.17 -1.54,0.76 -0.77,1.91 -3.85,1.52 -0.77,1.14 -1.54,-0.77 -1.92,-0.01 -0.77,-0.78 0,-1.92 -1.54,-2.69 -7.3,-3.12 -2.31,-0.01 -2.69,-1.55 -3.08,-3.09 0,-4.99 -0.77,-3.46 -3.84,-1.95 -2.31,-3.47 -6.54,-2.72 -5.77,-0.8 -3.84,-3.1 0,0 -0.39,-2.31 1.54,-4.22 0.39,-5.38 -1.92,-4.23 -2.69,-0.79 -1.54,-3.47 0.77,-1.53 1.92,0.39 0.39,-0.76 -0.77,-5.01 1.16,-1.53 0,-3.08 -2.31,-2.7 0,-1.15 1.92,-0.38 1.16,-3.07 0.77,1.16 1.92,0.01 0.39,-1.54 -0.77,-3.46 1.15,-0.77 0.77,-1.53 3.46,-1.9 6.16,-1.51 1.54,3.09 2.69,0.01 0.77,-1.53 -0.38,-1.16 3.07,-0.37 0,-1.15 3.08,0.4 0.77,-0.76 0.77,-3.46 3.08,-1.52 3.84,0.4 1.93,-2.3 -2.69,-0.4 -0.77,-0.77 0.77,-2.69 -1.15,-1.93 -1.16,-0.01 0,-0.77 2.31,-0.75 1.54,-3.07 0,0 3.08,1.94 1.15,0 3.85,2.72 3.84,1.56 7.31,-0.34 1.92,-1.15 1.54,-3.07 2.31,3.09 3.85,0.41 1.54,1.16 3.07,-1.52 2.7,0.02 2.3,0.78 3.08,-0.37 2.31,-3.06 -5,-2.34 -2.3,-3.48 0,-3.08 1.92,-3.45 1.16,-5.39 -2.31,-1.17 -1.92,-0.01 -0.77,-1.93 -1.16,0.76 -2.69,-2.32 0.77,-2.69 -1.92,-1.94 0,-2.7 0.39,-0.38 1.53,0.78 6.54,5.04 1.15,0.01 1.16,-2.69 1.54,-1.15 0.38,-2.31 1.93,-2.68 0,-3.09 z" 
                fill="rgb(151, 144, 238)" 
                stroke="white" 
                stroke-width=".7px"
                title="Santiago" 
                id="DO-25" 
            />
        </svg>