<svg xmlns="http://www.w3.org/2000/svg" viewBox="347.1260899999997 175.27093000000002 104.63000000000011 69.29999999999993" width="104.63000000000011" height="69.29999999999993">
            <path 
                d="m 370.97609,178.61093 0.01,-1.15 -0.77,0.38 0,-0.77 1.15,-0.76 1.54,-0.38 1.54,0.78 1.54,-0.76 0.77,0.77 0.77,-0.76 0.77,1.92 2.3,-0.75 1.16,1.92 3.84,1.18 0.39,-1.92 0.77,-0.76 1.15,1.54 2.69,-3.06 1.54,-0.76 1.54,0.39 -0.77,2.69 1.54,0.01 1.15,-0.76 0.77,0.77 0.77,-0.77 0,2.69 1.93,-3.44 1.15,0.39 1.15,-1.15 0.39,0 -0.39,3.07 1.16,0.4 0.38,-1.54 1.16,0.39 0.77,-1.53 2.69,0.4 0,0.77 1.15,0.77 2.7,-0.75 1.15,-1.15 1.15,2.31 2.7,0.02 0.38,1.15 0.77,0.01 2.69,2.32 8.85,2.35 2.69,1.94 1.15,0.01 2.7,-2.68 1.92,0.01 4.62,2.33 2.69,2.32 3.84,0.41 2.7,1.17 0.38,0.77 -2.31,5.36 -0.77,6.14 0,0 -3.85,7.66 0.77,3.46 1.54,1.16 -0.39,5.75 -3.47,8.42 -1.92,1.91 -1.54,3.83 -2.31,2.29 -3.85,-0.41 -2.3,-1.16 -3.46,-3.09 -2.7,-1.16 -1.15,0.76 -1.16,3.44 -1.15,1.15 -1.92,-0.78 -2.31,0.37 -1.54,-2.31 -1.54,-0.01 -4.23,2.66 -4.23,-0.02 -1.54,1.52 -0.77,3.07 -0.77,0.76 -4.23,-0.79 -5.77,0.73 -4.62,-0.79 -3.85,1.9 -1.05,1.39 0,0 -0.98,-4.04 -3.02,-4.51 -3.27,-2.5 -3.01,-3.57 -4.36,-2.36 -2.8,-2.55 0.42,-0.38 -6.15,-4.64 0,-3.45 -0.77,-1.16 -2.69,-1.17 -4.23,-0.79 -0.77,-0.77 -0.38,-3.07 0.77,-6.14 -4.23,-4.63 -0.77,-3.46 0,0 1.54,-3.84 1.54,-1.91 3.08,-1.52 1.54,0.01 3.46,-4.59 2.31,0.02 0.38,0.77 4.62,-0.36 2.31,-1.14 1.15,-3.45 0.77,0 1.15,1.16 0.77,-0.38 0.39,-1.15 z" 
                fill="rgb(151, 144, 238)" 
                stroke="white" 
                stroke-width=".7px"
                title="Sánchez Ramírez" 
                id="DO-24" 
            />
        </svg>