<svg xmlns="http://www.w3.org/2000/svg" viewBox="176.75609 41.32093 68.86999999999998 70.73000000000002" width="68.86999999999998" height="70.73000000000002">
            <path 
                d="m 187.56609,41.32093 2.29,1.54 3.46,1.18 7.69,0.81 2.31,1.17 1.54,4.64 4.61,1.95 4.23,0.03 1.93,-1.15 1.92,0.01 4.61,4.65 4.62,2.73 1.54,0.01 0.38,1.92 3.46,3.49 1.54,-0.76 1.92,1.94 1.54,0.39 8.47,0.44 0,0 -1.16,5.38 0,3.09 -1.93,2.68 -0.38,2.31 -1.54,1.15 -1.16,2.69 -1.15,-0.01 -6.54,-5.04 -1.53,-0.78 -0.39,0.38 0,2.7 1.92,1.94 -0.77,2.69 2.69,2.32 1.16,-0.76 0.77,1.93 1.92,0.01 2.31,1.17 -1.16,5.39 -1.92,3.45 0,3.08 2.3,3.48 5,2.34 -2.31,3.06 -3.08,0.37 -2.3,-0.78 -2.7,-0.02 -3.07,1.52 -1.54,-1.16 -3.85,-0.41 -2.31,-3.09 -1.54,3.07 -1.92,1.15 -7.31,0.34 -3.84,-1.56 -3.85,-2.72 -1.15,0 -3.08,-1.94 0,0 -3.08,-0.41 -2.69,0.76 -3.08,-0.02 -5,-3.11 -2.69,-0.01 -2.31,-1.17 -1.92,-0.01 -0.77,-0.78 -0.38,-4.62 -1.54,-1.55 0,-4.62 0,0 1.55,-3.08 1.53,-1.14 0,-1.93 0.77,-1.53 -0.38,-5.03 -2.69,-6.16 0.77,-2.31 3.47,0.81 1.14,-1.17 0.77,1.17 0.78,0 0,-6.19 -1.92,-4.63 0,-1.54 0.78,-1.15 0,-3.48 1.91,-1.91 z" 
                fill="rgb(151, 144, 238)" 
                stroke="white" 
                stroke-width=".7px"
                title="Valverde" 
                id="DO-27" 
            />
        </svg>