<svg xmlns="http://www.w3.org/2000/svg" viewBox="31.00999999999998 322.83999999999986 38.64 37.10000000000002" width="38.64" height="37.10000000000002">
            <path 
                d="m 31.54,336.25 0.06,0.01 0.28,0.14 0.44,0.24 1.17,0.78 3.74,-3.68 0.23,-0.45 0.1,-0.35 0.11,-0.55 -0.26,-0.43 -0.5,-0.25 -0.52,-1.41 1.7,-2.6 0.41,-0.49 0.16,-1.62 -0.19,-0.36 -0.9,-0.08 -0.31,-0.38 1.31,-1.64 1.95,-0.29 0.6,0.33 0.6,0.39 0.51,0.3 1.95,0.47 1.21,-0.03 0.87,1.02 0.4,0.98 0.88,1.26 0.65,0.4 0.3,0.12 0.48,0.08 0.51,0.13 0.36,0.18 1.22,1.05 0.17,0.43 0.46,0.57 0.3,0.21 2.14,0.36 1.76,-0.17 0.42,-0.12 0.49,0.19 0.46,0.67 0,0.74 -0.06,0.55 -0.03,0.59 0.06,0.42 0.28,1.06 0.18,0.36 0.51,0.37 0.23,-0.46 0.19,-0.45 0.23,-0.25 1.26,-0.6 0.93,-0.49 0.24,-0.23 0.22,-0.61 1.48,-0.32 3.29,-0.07 0.91,0.15 0,0 -0.02,0.82 -0.18,1.32 0.15,1.04 0.45,2.35 0.3,0.64 0.61,0.64 0.38,0.23 0.52,0.42 0.26,0.61 -0.06,0.59 -0.45,1.85 -0.88,0.92 -0.32,0.15 -0.69,-0.02 -0.45,-0.05 -0.39,0.06 -0.63,0.32 -2.01,1.18 -1.35,0.81 -0.38,0.24 -0.47,0.45 -0.24,0.4 -0.11,0.46 -0.06,0.97 0.01,0.47 0.14,0.48 0.14,1.16 0.21,2.02 -0.22,1.65 -0.67,1.93 -0.5,2.31 -0.11,0.69 -0.2,0.34 -1.31,0.07 -0.37,-0.17 -0.59,-0.83 -0.22,0.01 0,0 -0.04,-0.4 -0.09,-0.46 -0.17,-0.44 -0.3,-0.05 -0.96,-0.02 -0.8,-0.56 -0.39,-0.38 -0.45,-0.31 -0.36,-0.12 -2.27,-0.2 -0.38,0.07 -0.36,0.18 -0.42,0.4 -0.28,0.31 -0.36,0.2 -1.35,0.52 -0.54,-0.08 -0.66,-0.33 -2.1,-0.73 -0.42,-0.01 -1.07,0.2 -0.41,0.02 -0.44,-0.04 -0.41,-0.09 -0.36,-0.25 -0.42,-0.47 -0.42,-0.77 -0.15,-1.05 -0.32,-0.25 -2.06,0.04 -0.7,0.87 -0.28,0.48 -0.38,0.39 -0.44,0.23 -0.44,0.05 -0.4,-0.05 -0.36,-0.09 -0.48,-0.14 0,0 0.36,-0.64 -0.1,-2.02 -0.8,-2.84 -2.51,-7.18 -0.83,-2.78 -0.34,-2.16 0.02,-0.58 0.25,-1.05 z" 
                fill="rgb(151, 144, 238)" 
                stroke="white" 
                stroke-width=".7px"
                title="Araucanía" 
                id="CL-AR" 
            />
        </svg>