<svg xmlns="http://www.w3.org/2000/svg" viewBox="28.970703999999998 302.09563 38.228516 35.32451999999995" width="38.228516" height="35.32451999999995">
            <path 
                d="m 65.556641,314.7207 -0.355469,0.0859 -0.5625,-0.375 -0.375,0.14063 -0.5625,0.14062 -0.5625,-0.1875 -0.375,-0.375 -0.419922,-0.14062 -0.375,-0.14063 -0.234375,0.32813 -0.28125,-0.0469 -0.46875,-0.28125 -0.09375,-0.375 -0.46875,-0.37305 -0.373047,-0.32812 -0.421875,0.14062 0,0.375 0,0.32618 0,0.42187 -0.1875,0.375 -0.04687,0.60938 -0.328125,-0.14063 -0.46875,0.14063 -0.515625,0 -0.421875,0.28125 -0.373047,-0.28125 -0.375,-0.14063 -0.609375,-0.23437 -0.515625,0.0469 -0.375,0.1875 -0.234375,0.5625 -0.326172,0.32813 -0.5625,0.23242 -0.609375,0.0469 -0.421875,0 -0.609375,-0.37304 -0.232422,0 -0.1875,0.32617 -0.28125,0 -0.703124,-0.18555 -0.5625,0.37305 -0.982422,-0.23438 -0.515625,0.1875 0,-0.56054 0,-0.60938 0.140625,-0.60937 0.46875,-0.23438 0.560546,-0.60937 -0.140624,-0.41993 -0.326172,-0.14062 -0.375,-0.28125 -0.5625,0 -0.609375,-0.42188 -0.796875,-1.21875 -0.279297,0.32813 -0.75,-0.0469 -0.234375,-0.46679 -0.375,0 -0.234375,0.46679 -2.060547,-0.1875 0.1875,-0.60742 1.263672,0.0937 -0.1875,-0.42187 0.28125,-0.46875 -0.513672,-0.28125 -0.234375,-0.9375 0.09375,-0.41992 -0.1875,-0.70313 -0.796875,-0.84375 -0.796875,-0.14062 -0.328125,-0.6543 -0.326172,-0.32813 -0.421875,0.1875 -0.28125,-1.03125 -0.1875,-0.5625 0.28125,-0.375 -0.09375,-0.70117 -0.65625,0 -0.1875,-0.65625 0,-0.20508 -0.06641,0.17383 -0.638672,1.71094 -0.541016,1.96875 -0.279297,1.33008 -0.201172,0.25 -0.279296,0.13086 -0.34961,0 -0.439453,-0.10938 -0.330078,-0.33008 -0.509766,-0.23047 -0.220703,3.41993 -0.269531,3.2207 -0.351563,1.36914 -0.208984,0.48047 -0.339844,0.45898 -0.349609,0.27149 -0.589844,0.26953 -0.771484,0.23047 -0.369141,0.0586 -0.291015,0.01 -0.609375,0.01 -1.140625,-0.51953 L 31,316.0293 l -0.619141,-0.70899 -0.591797,0.42969 -0.158203,0.40039 -0.541015,2.62891 0.15039,0.33984 0.369141,0.33008 0.330078,0.41992 0.271485,0.55078 0.06836,0.66992 -0.169922,0.68946 -0.429687,0.43164 -0.529297,0.67968 -0.179688,0.46876 0.25,2.20117 0.878906,0.96875 1.009766,1.74023 0.640625,1.54102 0.320312,0.93945 0.179688,0.74023 -0.25,2.69922 -0.179688,0.3711 -0.28125,0.29883 -0.21875,0.45117 0.21875,0.93945 0.06055,0.01 0.28125,0.14062 0.439453,0.24023 1.169922,0.7793 3.740235,-3.67969 0.230469,-0.45117 0.09961,-0.34961 0.109375,-0.54883 -0.259766,-0.42968 -0.5,-0.25 -0.519531,-1.41016 1.699219,-2.60156 0.410156,-0.48828 0.160156,-1.6211 -0.189453,-0.35937 -0.900391,-0.0801 -0.310546,-0.38086 1.310546,-1.63867 1.949219,-0.29102 0.59961,0.33008 0.601562,0.39063 0.509766,0.29883 1.949219,0.4707 1.210937,-0.0293 0.869141,1.01953 0.40039,0.98047 0.878906,1.25977 0.650391,0.40039 0.300781,0.11914 0.480469,0.0801 0.509766,0.1289 0.359375,0.18164 1.220703,1.04883 0.169922,0.42969 0.458984,0.57031 0.300781,0.21094 2.140625,0.35937 1.759766,-0.16992 0.419922,-0.11914 0.490234,0.18945 0.458985,0.66993 0,0.74023 -0.06055,0.54883 -0.0293,0.58984 0.06055,0.42188 0.279297,1.05859 0.179687,0.36133 0.509766,0.36914 0.230469,-0.46094 0.189453,-0.44922 0.230468,-0.25 1.259766,-0.59961 0.929687,-0.49023 0.240235,-0.23047 0.220703,-0.60937 1.480469,-0.32032 3.289062,-0.0703 0.910157,0.15039 0.01953,-0.68945 -1.378907,-3.38086 -0.410156,-0.79883 -0.189453,-0.83984 -0.339844,-0.81055 -0.271484,-0.88086 -0.0293,-0.66992 0.08984,-0.58984 0.259766,-0.31055 0.490234,-0.36914 0.210937,-2.31055 -0.140625,-0.41992 -0.390625,-0.5293 -0.298828,-0.4707 -0.419922,-1.36914 0.189453,-0.59961 0.5,-0.58008 0.25,-0.78125 0.236329,-1.29883 z" 
                fill="rgb(151, 144, 238)" 
                stroke="white" 
                stroke-width=".7px"
                title="Biobío" 
                id="CL-BI" 
            />
        </svg>