<svg xmlns="http://www.w3.org/2000/svg" viewBox="41.839999999999996 272.21 34.67000000000001 32.19" width="34.67000000000001" height="32.19">
            <path 
                d="m 66.94,303.35 -0.09,-0.05 -0.42,-0.49 -0.15,-0.62 -0.1,-0.52 -0.49,-0.25 -0.33,0.05 -0.27,0.2 -1.13,1.44 -0.11,0.45 -0.04,0.38 -0.41,0.46 -0.58,-0.08 -1.41,-0.78 -0.29,-0.29 -1.53,-1.26 -1.19,-0.36 -0.89,-0.35 -0.52,-0.33 -0.35,-0.34 -0.18,-0.44 -0.36,-0.78 -0.93,-0.15 -0.34,0.1 -0.36,0.15 -0.32,-0.02 -0.77,-0.18 -0.25,-0.22 -0.1,-0.33 -0.19,-0.44 -1.1,-1.16 -0.11,0.54 0.03,0.44 -1.02,1.15 -1.75,-0.05 -0.36,-0.12 -2.72,-1.42 -2.06,-1.82 -0.1,-0.61 -0.22,-0.24 -1.59,-0.71 0,0 0.27,-0.18 0.71,-0.66 1.54,-1.56 0.18,-0.36 0.12,-0.55 -0.03,-0.64 -0.34,-0.83 -0.6,-1.48 0.04,-0.49 0.32,-0.38 0.59,-0.33 0.98,-0.83 0.91,-2.3 0.5,-1.45 0.21,-0.42 0.6,-0.72 0.46,-0.3 0.55,-0.32 0.81,-0.79 0.29,-0.64 0.13,-0.77 0.04,-0.52 0.02,-0.61 0.02,-0.5 0.12,-0.94 0.78,-1.73 0.32,-0.34 0.28,-0.43 0.34,-1.02 0,0 0.42,0.17 0.26,0.18 0.82,1.01 0.49,0.74 1.96,0.8 1.45,0.44 2.16,0.14 2.18,0.39 -0.06,-0.59 -0.05,-0.38 1.18,-1.02 2.53,-0.2 0.4,0 0.54,0.14 3.99,1.19 0.28,0.17 0.6,0.61 1.6,1.23 2.58,0.26 0.84,0.06 0.11,-0.01 0,0 -0.03,0.13 -0.02,0.66 0.02,0.64 0.06,0.36 -0.08,0.77 -0.25,0.42 -1,0.51 -0.44,0.09 -0.49,0.02 -0.34,0.09 -0.35,0.55 -0.03,0.45 0.24,0.5 0.25,0.2 1.57,0.98 0.37,2.62 -0.11,1.73 -0.21,0.36 0.14,0.65 0.49,1.09 0.44,1.33 -0.45,0.38 -0.38,0.66 -0.14,0.39 0.06,1.37 0.16,1.82 -0.4,1.06 -0.2,0.27 -0.41,0.23 -0.53,-0.04 -1.2,0.05 -1.65,1.86 -0.19,1.29 0.31,0.82 -0.15,0.42 -3.5,1.27 -0.41,-0.06 z" 
                fill="rgb(151, 144, 238)" 
                stroke="white" 
                stroke-width=".7px"
                title="Maule" 
                id="CL-ML" 
            />
        </svg>