<svg xmlns="http://www.w3.org/2000/svg" viewBox="40.515625 294.30078 26.423822 21.910229999999956" width="26.423822" height="21.910229999999956">
            <path 
                d="m 41.839844,294.30078 -0.208985,0.25 -0.28125,2.5586 -0.298828,3.58984 -0.535156,1.39648 0,0.20508 0.1875,0.65625 0.65625,0 0.09375,0.70117 -0.28125,0.375 0.1875,0.5625 0.28125,1.03125 0.421875,-0.1875 0.326172,0.32813 0.328125,0.6543 0.796875,0.14062 0.796875,0.84375 0.1875,0.70313 -0.09375,0.41992 0.234375,0.9375 0.513672,0.28125 -0.28125,0.46875 0.1875,0.42187 -1.263672,-0.0937 -0.1875,0.60742 2.060547,0.1875 0.234375,-0.46679 0.375,0 0.234375,0.46679 0.75,0.0469 0.279297,-0.32813 0.796875,1.21875 0.609375,0.42188 0.5625,0 0.375,0.28125 0.326172,0.14062 0.140624,0.41993 -0.560546,0.60937 -0.46875,0.23438 -0.140625,0.60937 0,0.60938 0,0.56054 0.515625,-0.1875 0.982422,0.23438 0.5625,-0.37305 0.703124,0.18555 0.28125,0 0.1875,-0.32617 0.232422,0 0.609375,0.37304 0.421875,0 0.609375,-0.0469 0.5625,-0.23242 0.326172,-0.32813 0.234375,-0.5625 0.375,-0.1875 0.515625,-0.0469 0.609375,0.23437 0.375,0.14063 0.373047,0.28125 0.421875,-0.28125 0.515625,0 0.46875,-0.14063 0.328125,0.14063 0.04687,-0.60938 0.1875,-0.375 0,-0.42187 0,-0.32618 0,-0.375 0.421875,-0.14062 0.373047,0.32812 0.46875,0.37305 0.09375,0.375 0.46875,0.28125 0.28125,0.0469 0.234375,-0.32813 0.375,0.14063 0.419922,0.14062 0.375,0.375 0.5625,0.1875 0.5625,-0.14062 0.375,-0.14063 0.5625,0.375 0.355469,-0.0859 0.01367,-0.0801 -0.509765,-2.4707 -0.541016,-2.30078 0.701172,-1.83008 1.169922,-3.43945 0.289063,-1.10938 0.259765,-0.14062 -0.08984,-0.0488 -0.419921,-0.49023 -0.150391,-0.6211 -0.09961,-0.51953 -0.490235,-0.25 -0.330078,0.0508 -0.269531,0.19922 -1.128906,1.43946 -0.111329,0.45117 -0.03906,0.3789 -0.410156,0.46094 -0.580079,-0.0801 -1.410156,-0.78125 -0.291015,-0.28906 -1.529297,-1.25977 -1.189453,-0.35937 -0.890625,-0.35156 -0.519532,-0.33008 -0.349609,-0.33984 -0.179687,-0.43946 -0.361329,-0.7793 -0.929687,-0.15039 -0.339844,0.0996 -0.359375,0.15039 -0.320312,-0.0195 -0.769532,-0.18164 -0.25,-0.21875 -0.101562,-0.33008 -0.189453,-0.43945 -1.09961,-1.16016 -0.109375,0.53907 0.0293,0.43945 -1.019531,1.15039 -1.75,-0.0488 -0.361328,-0.12109 -2.71875,-1.41992 -2.060547,-1.82031 -0.09961,-0.60938 -0.220703,-0.24023 -1.589844,-0.70899 z" 
                fill="rgb(151, 144, 238)" 
                stroke="white" 
                stroke-width=".7px"
                title="Ñuble" 
                id="CL-NU" 
            />
        </svg>