<svg xmlns="http://www.w3.org/2000/svg" viewBox="271.68070000000006 180.88027 102.5999999999998 165.3599999999999" width="102.5999999999998" height="165.3599999999999">
            <path 
                d="m 358.3807,181.13027 2.9,-0.25 1.25,5.26 3.21,-0.43 0.21,1.48 0.76,0.51 0.5,1.26 1.39,1.51 0.76,1.64 0,0 0.63,1.64 1.31,1.41 0,0 1.09,3.83 1.01,2.65 0,0 0.63,3.03 0,0 0.25,3.28 -0.76,1.52 -1.38,0.12 -0.51,-0.75 -1.89,0.5 -1.77,1.01 -1.39,0.63 -2.27,0.5 -1.51,1.52 -1.64,0.5 -2.15,0.26 -2.02,1.26 -1.51,1.89 -1.9,2.02 -1.51,2.02 0.13,5.3 -1.9,0.51 -1.13,1.38 4.52,96.32 0,0 0,0 0,0 0.91,21.78 0,0 0,0 0,0 -82.92,-31.44 0,0 4.34,-29.05 3.04,-15.89 1.06,-9.29 1.9,-9.49 0.63,-4.43 -1.06,-1.06 0.22,-3.37 4.22,-16.04 1.26,-5.27 1.69,-2.33 1.05,-4.85 1.9,-5.06 1.69,1.47 2.11,1.06 6.33,-6.33 0.85,-2.53 -1.48,-2.96 0.42,-5.27 0,0 -1.33,-2.34 0,0 1.79,0.65 0.94,0.97 1.56,1.14 3.79,1.48 0.21,1.9 2.54,1.47 0.21,2.54 1.26,1.05 2.53,0.84 1.9,0.21 1.9,1.27 3.38,-0.21 3.59,-0.42 2.53,-0.42 2.74,1.68 0,0 0,0 0,0 3.8,-0.21 0,0 0,0 0,0 2.32,1.27 2.53,-1.06 0.85,-2.53 1.07,-1.99 0.39,-1.21 0.76,-0.76 1.01,-0.25 0.63,-0.88 0.38,-1.01 -0.88,-0.89 -0.38,-0.88 1.13,-0.38 1.14,-0.88 0.88,-1.39 0.38,-1.39 0,0 0.51,-1.89 1.13,0.13 0,0 0.88,0.5 0,0 1.01,-0.25 1.14,-1.01 0,0 3.03,-0.13 0,0 0,-1.01 -0.76,-0.88 0,0 0,-1.26 1.39,-1.01 0,0 0.63,-1.14 0.51,-1.13 0.35,-1.17 z" 
                fill="rgb(151, 144, 238)" 
                stroke="white" 
                stroke-width=".7px"
                title="Ad Dākhilīyah" 
                id="OM-DA" 
            />
        </svg>