<svg xmlns="http://www.w3.org/2000/svg" viewBox="249.61070000000018 90.50026800000028 76.5999999999998 91.71000199999979" width="76.5999999999998" height="91.71000199999979">
            <path 
                d="m 326.2107,163.19027 -1.91,2.71 -2.7,3.41 -2.15,2.54 -1.38,0.77 -1.76,0.05 -3.41,0.72 -0.94,0.88 -0.94,1.49 -0.82,0.83 -1.16,0.05 -1.6,-0.16 -0.55,0.49 -0.38,0.94 -0.83,0.27 -1.76,0.06 -1.32,0.16 -1.55,1.6 -2.62,2.21 0,0 -1.26,-0.51 -6.69,-0.25 -1.13,-1.01 -0.38,-1.39 -0.76,-1.01 -1.23,-0.74 -0.54,-2.03 1.27,-0.76 -0.76,-0.89 -1.07,-0.49 -1.83,0.12 -1.26,-0.76 -1.65,-0.38 -1.64,0.38 -2.27,0.25 -1.01,0.51 -1.89,-0.26 -1.14,-1.26 -0.88,-0.63 -0.88,-1.26 -0.38,-2.27 -0.38,-1.14 -2.9,-1.51 -0.63,-1.64 -0.26,-3.79 -0.75,-1.51 -1.39,-0.26 -0.89,-1.01 -1.26,-0.38 -0.88,-1 -1.26,-2.02 -1.14,-0.51 0,0 -0.25,-1.51 1.01,-1.01 0.76,-1.01 -0.38,-1.64 -1.01,-0.63 -1.52,-0.76 -1.01,-0.25 -1.17,-1.53 -0.81,-1.33 -0.96,-1.12 0.16,-1.28 0.64,-1.11 0.89,-4.69 0.86,-1.69 0,-1.92 1.92,-1.91 1.91,0 -0.79,-1.76 -1.44,-1.43 -1.44,-0.48 -3.75,-0.09 0.4,-2.79 0.32,-3.82 1.28,-1.76 -1.12,-1.91 -1.11,-1.12 -0.8,-1.6 -0.48,-2.07 -0.96,-1.28 0.96,-1.91 1.12,-0.48 -0.64,-1.59 -0.32,-1.76 -1.12,0 -0.85,-1.35 0,0 0.01,-0.7 0.17,-0.74 0.28,-0.56 0,0 0.67,-0.560002 0,0 0.36,-0.11 1.01,0.09 0.46,-0.1 0,0 2.28,-0.8 0,0 0.75,-0.92 0,0 0.2,-0.35 0.26,-0.78 1.78,-0.48 0,0 0.46,-0.24 0.33,-0.42 0,0 0.04,-0.5 0,0 -0.13,-1.24 0,0 -0.22,-1.96 0,0 0.12,-0.52 0.29,-0.46 0.61,-0.24 0,0 1.23,-0.12 0,0 0.85,3.03 0.24,0.71 0.14,0.19 0.23,0.88 0.21,0.15 0.05,0.56 0.13,0.37 0.19,0.14 1.05,2.7 0.78,1.220002 0.84,1.58 0.34,1.29 0.34,0.79 0.29,1.8 1.3,2.66 0.39,1.02 2.02,3.75 0.23,0.66 0.21,0.19 0.87,1.5 0.69,0.91 3.39,5.31 1.79,1.9 1.69,1.64 0.9,0.68 0.1,0.21 0.39,0.07 0.32,0.23 0.91,1.6 0.62,0.79 0.25,0.49 3.33,4.9 0.84,1.46 1.95,2.67 1.03,1.1 0.71,1.56 0.25,0.15 0.2,0.43 0.69,1.04 1.75,2.1 1.02,1.07 2.14,1.86 1.86,1.49 0.31,0.14 0.15,-0.03 1.4,1.29 1.59,1.28 0.72,0.84 1.79,1.61 0.68,0.53 1.51,0.93 3.02,1.47 3.56,1.38 11.22,3.45 z" 
                fill="rgb(151, 144, 238)" 
                stroke="white" 
                stroke-width=".7px"
                title="Al Bāţinah North" 
                id="OM-BAN" 
            />
        </svg>