<svg xmlns="http://www.w3.org/2000/svg" viewBox="296.5807000000002 163.19026999999994 60.639999999999816 43.78999999999988" width="60.639999999999816" height="43.78999999999988">
            <path 
                d="m 298.4307,182.21027 2.62,-2.21 1.55,-1.6 1.32,-0.16 1.76,-0.06 0.83,-0.27 0.38,-0.94 0.55,-0.49 1.6,0.16 1.16,-0.05 0.82,-0.83 0.94,-1.49 0.94,-0.88 3.41,-0.72 1.76,-0.05 1.38,-0.77 2.15,-2.54 2.7,-3.41 1.91,-2.71 0,0 1.54,0.59 3.08,1.41 3.76,1.11 1.98,0.45 2.3,0.28 1.45,0 1.37,-0.37 0.97,-0.61 0.03,0.77 0.34,0.68 0.98,1.05 2.59,1.58 1.05,0.4 2.18,0.28 2.21,0 3.64,-0.35 0,0 -0.08,4.36 -1.26,4.42 1.14,0.38 1.39,1.64 0,0 0.35,-0.03 -0.35,1.17 -0.51,1.13 -0.63,1.14 0,0 -1.39,1.01 0,1.26 0,0 0.76,0.88 0,1.01 0,0 -3.03,0.13 0,0 -1.14,1.01 -1.01,0.25 0,0 -0.88,-0.5 0,0 -1.13,-0.13 -0.51,1.89 0,0 -0.38,1.39 -0.88,1.39 -1.14,0.88 -1.13,0.38 0.38,0.88 0.88,0.89 -0.38,1.01 -0.63,0.88 -1.01,0.25 -0.76,0.76 -0.39,1.21 -1.07,1.99 -0.85,2.53 -2.53,1.06 -2.32,-1.27 -3.8,0.21 -2.74,-1.68 -2.53,0.42 -3.59,0.42 -3.38,0.21 -1.9,-1.27 -1.9,-0.21 -2.53,-0.84 -1.26,-1.05 -0.21,-2.54 -2.54,-1.47 -0.21,-1.9 -3.79,-1.48 -1.56,-1.14 -0.94,-0.97 -1.79,-0.65 0,0 -0.36,-0.62 0,0 -1.05,-1.68 -0.42,-2.11 -2.11,-0.85 1.23,-2.46 0.62,-0.83 z" 
                fill="rgb(151, 144, 238)" 
                stroke="white" 
                stroke-width=".7px"
                title="Al Bāţinah South" 
                id="OM-BAS" 
            />
        </svg>