<svg xmlns="http://www.w3.org/2000/svg" viewBox="202.81070000000003 90.16026800000007 58.01999999999995 103.22000199999992" width="58.01999999999995" height="103.22000199999992">
            <path 
                d="m 241.3607,95.890268 0.28,0.88 0.25,0.47 0,0 0.15,0.27 -0.11,0.16 0,0 -1.24,-0.87 -0.28,-0.37 -0.67,-0.36 -0.52,-0.13 -0.41,0.01 -0.65,0.27 -0.24,0.26 -0.09,0.28 0.24,0.78 0.66,0.98 1.57,1.31 0.12,0.200002 -0.06,1.2 0.11,0.36 0.66,1.35 0.37,0.49 0.37,0.28 0.08,0.18 -0.16,0.31 0.13,0.1 0.07,0.53 0.23,0.22 0,0 0.53,0.46 1.24,0.34 0.51,-0.04 1.27,0.16 1.44,-0.46 0.32,-0.25 0.24,-1.08 0.21,-0.55 1.28,-0.38 0.15,-0.23 0.2,-0.81 0,0 0.85,1.35 1.12,0 0.32,1.76 0.64,1.59 -1.12,0.48 -0.96,1.91 0.96,1.28 0.48,2.07 0.8,1.6 1.11,1.12 1.12,1.91 -1.28,1.76 -0.32,3.82 -0.4,2.79 3.75,0.09 1.44,0.48 1.44,1.43 0.79,1.76 -1.91,0 -1.92,1.91 0,1.92 -0.86,1.69 -0.89,4.69 -0.64,1.11 -0.16,1.28 0.96,1.12 0.81,1.33 1.17,1.53 1.01,0.25 1.52,0.76 1.01,0.63 0.38,1.64 -0.76,1.01 -1.01,1.01 0.25,1.51 0,0 -2.31,0.22 -1.75,1.12 -2.71,0 -1.92,0.95 -2.23,-0.16 -1.76,-0.64 -3.55,0.12 -3.33,2.26 2.1,3.85 1.27,3.19 -2.55,0.16 -2.39,0.64 -2.24,1.11 -0.79,2.56 0.31,2.71 0.96,1.59 0.8,2.24 1.6,2.55 1.43,2.07 -0.96,1.28 0,2.07 -1.11,0.96 -3.35,0.32 -3.19,0.96 -2.56,0.95 -3.03,2.24 -2.55,1.43 -2.39,2.24 -2.4,1.27 -3.99,0.32 -4.14,0 -3.35,-0.16 -4.42,-0.41 0,0 0.81,-3.19 0.69,-4 0.33,-0.59 0.94,-1.18 1.36,-1.29 0.87,-0.64 0.46,-0.56 0.31,-0.57 0.24,-1.13 0.49,-1.57 0.25,-1.97 0.06,-1.36 0.29,-1.07 0.69,-1.68 0.42,-0.74 2.04,-2.48 0.79,-1.2 0.2,-0.65 0.02,-0.6 -0.42,-2.68 0.24,-3.22 -0.18,-0.64 -0.28,-0.53 -0.57,-0.3 -0.5,-0.42 -0.87,-0.29 -0.74,-0.44 -1.22,-0.8 -0.47,-0.42 -0.19,-0.81 -0.11,-1.19 0.69,-0.2 2.17,-0.18 0.79,-0.23 0.49,-0.36 0.7,-0.22 2.18,-1 -0.76,-0.01 1.67,-1.25 0.7,-0.35 0.73,-0.2 3.96,0.15 0.87,0.26 0.57,0.04 0.7,-0.11 1.75,-0.75 0.6,0.08 0.31,0.49 1.36,0.99 0.56,0.07 0.58,-0.22 3.72,-1.93 6.23,-1.6 0.58,-0.23 0.32,-0.25 -0.18,-0.8 -1.34,-2.42 -1.13,-1.42 -0.37,-2.89 -0.41,-0.36 -0.18,-0.29 -0.2,-0.64 0.08,-0.62 -0.55,-0.65 -2.15,0.12 -1.78,0.9 -0.59,0.4 -0.42,0.09 -0.41,-0.02 -0.85,-0.52 -0.89,-0.42 -0.9,0.14 -0.86,0.01 -0.49,-0.12 -0.32,-0.19 -0.21,-0.27 0.02,-0.35 0.64,-2.13 1.32,-2.09 1.24,-1.75 0.09,-1.19 -0.08,-2.28 -0.14,-0.73 -0.61,-0.81 -1.08,-0.95 -0.37,-0.2 -0.13,-1.02 0.15,-0.95 -0.06,-3.26 -0.37,-0.94 -0.02,-0.72 -0.27,-0.96 0.13,-0.94 1.55,-0.95 0.09,-0.51 -0.18,-1.08 0.03,-0.8 1.52,-1.43 0.21,-0.7 -1.16,-2.76 -0.37,-1.51 0.4,-1.81 0.03,-0.95 -0.35,-1.06 -0.29,-1.85 -0.32,-1.400002 -0.09,-0.72 0.09,-1.3 0.18,-0.58 0.3,-0.45 2.92,-3.82 2.19,-1.43 1.8,-0.85 1.32,-0.23 1.07,0.23 1.1,0.06 1.25,0.57 0,0 0.59,0.37 0,0 0.62,1.34 0.25,1.31 0.04,0.86 0,0 z" 
                fill="rgb(151, 144, 238)" 
                stroke="white" 
                stroke-width=".7px"
                title="Al Buraymī" 
                id="OM-BU" 
            />
        </svg>