<svg xmlns="http://www.w3.org/2000/svg" viewBox="180.9107000000003 314.8002700000003 192.46999999999974 211.12" width="192.46999999999974" height="211.12">
            <path 
                d="m 354.6007,346.24027 17.73,8.65 1.05,6.12 0,2.32 -1.05,2.54 -0.43,3.37 -2.91,-0.26 0,0 0.67,-1.27 0.07,-1.38 0.35,-0.67 0.23,0.07 -0.12,-0.34 0.13,-0.51 -0.79,-0.38 -1.32,-0.44 -0.45,-0.29 -0.98,-0.31 -0.48,0 -0.18,-0.1 -0.27,0 -0.23,0.25 -0.75,0.09 -0.42,0.17 -0.53,0.75 -0.87,0.32 -0.28,0.19 -0.75,0.81 -0.57,0.01 -1.53,0.63 -0.48,0.36 -0.37,0.65 0.1,0.28 0,1.06 -0.57,1.28 0.15,0.41 -0.18,1.17 0.15,0.72 -0.44,0.38 -0.25,-0.05 -0.57,0.63 -0.42,-0.05 -0.82,0.24 -1.53,0.63 -0.98,0.53 -1.2,0.85 -0.65,0.73 -0.24,0.4 -0.22,0.66 0,0.75 0.12,0.65 0.39,0.63 0.18,0.09 0.88,0.08 0.26,0.17 -0.42,1.01 -0.53,0.92 -0.27,0.24 -1.15,0.53 -2.02,1.16 -1.11,0.77 -1.71,1.72 -0.14,0.27 -0.02,0.53 -0.24,0.44 -1.02,1.04 -0.17,0.36 -0.15,0.86 -0.19,0.42 -0.07,0.39 0.17,1.84 0.17,0.36 0.29,0.12 0.36,-0.02 0.16,0.55 -0.16,0.56 -0.04,0.8 -0.77,2.59 0.03,0.29 0.31,0.31 -0.08,0.37 -0.21,0.29 -0.05,0.53 -0.32,0.61 -0.14,0.6 0.06,1.68 -0.44,0.6 -0.69,1.21 -0.25,1.38 -1.05,1.97 -0.16,0.73 0.22,0.33 -0.69,1.76 -0.3,0.57 0.09,0.32 -0.89,1.15 -0.09,0.53 0.11,0.29 -0.46,0.7 -2.37,2.68 -0.42,0.75 -0.25,0.68 -0.12,0.48 0,1.29 0.4,1.36 0.26,0.32 0.44,0.32 0.32,0.02 0.3,-0.17 0.13,0.41 0.26,0.22 0.26,0.02 0.13,-0.16 0.19,0 -0.19,1.4 -0.49,0.93 0.2,1.07 -0.97,3.02 -0.14,1.87 0.24,0.44 0.11,0.49 0.44,0.22 0.16,0.23 0.01,0.23 0.26,0.12 0.23,0.29 0.19,1.2 0.26,0.33 0.24,0.15 0.4,0.93 0.45,0.21 0.03,0.71 0.37,0.64 0.42,2.17 -0.16,1.6 -0.35,0.76 -0.49,1.43 -0.21,1.2 0,3.2 0.2,1.22 0.38,0.66 0.42,1.82 0.2,0.59 0.3,0.49 0.5,0.49 0.58,-0.15 0.45,0.05 0.59,0.79 -0.09,1.02 -0.4,1.25 0.06,0.73 -0.1,0.92 0.12,1.28 0.46,0.54 0.52,-0.03 -0.07,0.2 0.1,1.24 0.23,0.84 0.28,0.6 0.42,0.54 0.6,0.17 0.08,0.29 -0.74,0.62 -0.37,0.14 -0.32,0.39 -0.26,-0.19 -0.18,0.22 -0.05,0.49 -0.16,0.14 -0.35,0.08 -1.5,-0.05 -1.83,0.29 -0.5,0.37 -0.58,0.59 -0.58,0.15 -0.47,0.34 -1.41,0.2 -11.15,-0.15 -4.77,0.26 -5.47,0.66 -2.7,0.57 -2.27,0.71 -1.95,0.42 -1.67,0.53 -6.65,1.64 -1.11,0.37 -0.74,0.39 -0.71,0.17 -1.21,0.52 -2.25,1.1 -2.74,0.93 -1.62,0.71 -2.49,1.52 -1.34,0.98 -0.93,0.69 -1.05,1.03 -0.6,0.71 -0.19,0.42 -1.3,1.41 -3.74,4.55 -0.69,0.53 -0.42,0.44 -0.22,0.33 -0.34,0.31 -0.29,0.47 -0.34,1.25 0.42,-0.32 0.42,-1.23 0.45,-0.59 -0.39,0.77 -0.37,1.13 -0.53,1.01 -0.17,0.61 0.09,0.76 0,0.98 0.34,3.07 -0.13,0.52 -0.45,0.71 -0.85,1.9 -0.19,1.96 0.12,1.18 -0.12,0.99 -0.34,1.29 -0.07,0.58 -0.19,0.44 -0.34,0.41 -0.43,1.11 -1.44,2.46 -0.51,2.42 -0.27,0.42 0.01,0.78 0.18,0.18 0.16,0.46 -0.03,0.47 0.13,0.76 -0.04,0.59 -0.45,0.26 -1.03,0.32 -0.24,0.24 -0.4,0.79 -0.29,0.32 -0.27,0.19 -0.41,0.1 -1.06,0.49 -0.53,0.42 -0.53,0.26 -1.35,1.08 -0.4,0.64 -0.05,0.84 0.06,0.44 -0.17,0.34 -1.15,1.06 -0.77,0.5 -0.63,0.69 -0.9,0.27 -0.43,0.35 -0.31,0.36 -0.14,0.31 -0.02,0.46 0,0 -20.59,-35.35 -19.2,-31.02 -20.47,-31.86 -18.14,-26.77 0,0 15.76,-50.16 6.68,-21.63 1.99,-6.11 -0.02,-0.23 0.13,-0.2 0,0 66.23,-7.79 0,0 z" 
                fill="rgb(151, 144, 238)" 
                stroke="white" 
                stroke-width=".7px"
                title="Al Wusţá" 
                id="OM-WU" 
            />
        </svg>