<svg xmlns="http://www.w3.org/2000/svg" viewBox="247.66069999999996 62.10026800000001 13.32000000000005 33.77" width="13.32000000000005" height="33.77">
            <path 
                d="m 254.3307,93.720268 -0.22,1.29 0,0 -0.43,0.86 0,0 -0.19,-0.09 0,0 -2.07,-0.55 -2.37,-0.32 -0.86,-1.08 0,-0.97 1.19,-0.97 0.11,-2.05 -0.86,-1.73 -0.86,-1.08 -0.11,-0.97 0,0 0.03,-0.71 0,0 1.05,-0.15 1.29,0.54 0.97,1.4 0,0 0.56,0.56 -0.03,0.59 0,0 -0.09,0.93 1.5,1.48 0,0 0.19,0.01 -0.84,0.96 0,0 0.11,1.19 0,0 0.97,0.32 0.96,0.54 z m 2.05,-23.07 0,0.97 -0.97,0.54 -0.97,-0.43 0,-0.86 0.97,-0.65 0.97,0.43 z m 2.23,-7.35 1.34,-1.2 0,0 0.15,0.96 -0.11,0.97 -0.31,0.67 -0.11,0.6 -0.43,0.09 -0.11,0.41 0.1,0.53 0.16,0.27 0.29,0.25 0.19,0.09 0.11,-0.14 0.18,-0.04 -0.19,-0.41 0.19,-0.14 0.15,0.41 0.45,0.28 -0.13,0.39 0.42,0.39 -0.02,0.09 -0.26,0.11 0,0.16 0.23,0.21 0.08,0.21 -0.23,0.11 -0.15,0.23 -0.29,0.21 0,0.14 0.11,0.11 0,0 -1.35,0.85 -0.61,0.46 -0.27,0.32 0,0 -0.09,-1.76 0,0 -0.43,-1.4 0.32,-1.62 -0.18,-1.81 0,0 0.8,-1 z m 1.47,24.18 0.11,0.07 0.02,0.9 -0.06,0.05 -0.35,-0.19 0.28,-0.83 z m -0.4,-3.9 0.21,2.98 0.27,0.6 -0.35,1.04 -0.11,0.05 0,0.09 0.26,0.07 0.13,0.26 0,0.39 0.21,0.37 0.27,1.06 0,0 -1.22,0.13 0,0 -0.62,0.23 -0.29,0.46 -0.11,0.48 0,0 -0.76,-0.45 0,0 -1.44,-0.19 0,0 0.14,-1.96 0,-1.51 -1.19,-2.05 0,-1.19 0.86,-0.86 1.83,-0.11 1.91,0.11 z" 
                fill="rgb(151, 144, 238)" 
                stroke="white" 
                stroke-width=".7px"
                title="Ash ShÄriqah" 
                id="AE-SH" 
            />
        </svg>