<svg xmlns="http://www.w3.org/2000/svg" viewBox="354.3407000000003 170.39027 70.96999999999963 51.75999999999988" width="70.96999999999963" height="51.75999999999988">
            <path 
                d="m 357.4307,170.39027 2.7,0.1 0.65,0.12 1.27,0.34 2.41,0.87 1.52,0.68 3.12,2.59 1.53,0.98 0.61,0.29 2.17,0.72 1.11,0.23 1.64,-0.06 1.32,0.2 1.71,-0.16 1.08,-0.25 1.73,-0.68 0.58,-0.33 0.02,-0.47 0.26,-0.12 0,-0.18 0.21,0 0.13,-0.14 0.04,-0.29 0.1,-0.02 0.18,0.16 0.27,-0.25 0.45,0.35 0.03,0.4 0.37,0.19 0.63,-0.03 0.1,-0.14 0.34,-0.02 0.43,0.12 0.5,-0.07 0.08,-0.12 0.27,0.02 0.49,-0.14 -0.02,0.28 0.32,0.12 0.08,0.14 -0.24,-0.03 -0.19,0.1 -0.1,0.39 0.34,-0.02 0.16,-0.11 0.29,0.06 0.11,-0.3 0.24,0.3 0.1,0.01 0.06,-0.24 0.09,-0.04 0.38,0.56 0.19,0.07 0.07,-0.15 -0.03,-0.25 -0.15,-0.17 0.02,-0.16 0.29,0.16 0.06,0.42 -0.11,0.24 0.13,0.16 -0.08,0.1 0.03,0.11 0.23,-0.02 0.04,0.14 -0.43,0.4 0,0.12 0.26,0.05 0.16,0.18 0.08,0.31 -0.15,0.2 0.28,0.21 -0.07,0.13 0.21,0.23 0.07,0.42 0.09,0.11 0.49,0.03 0.22,0.12 0.27,0.33 0.12,0 0.16,-0.15 0.42,0.07 0.03,0.07 -0.15,0.12 0.07,0.16 0.5,-0.14 0.11,0.15 -0.4,0.13 -0.08,0.1 0.29,0.52 0.46,-0.2 0.15,-0.46 0.08,0.32 0.08,0.1 0.16,0 0.13,0.17 -0.03,0.23 0.91,0.68 0.26,0.02 0.55,-0.17 1.43,0.1 0.16,0.16 -0.05,0.22 -0.16,0.02 -0.03,0.28 0.35,0.3 -0.27,0.19 0.08,0.24 0.11,0.07 0.08,-0.29 0.1,0 0.03,0.31 0.13,-0.09 0.02,-0.26 -0.2,-0.24 0.1,-0.18 0.29,-0.03 0.16,0.26 0.52,-0.38 0.11,0.12 0.35,-0.07 0.07,0.24 -0.2,0.25 0.7,0.26 -0.07,0.17 -0.32,-0.03 0.15,0.38 0.41,0.26 0.2,0.34 -0.07,0.26 0.08,0.03 0.15,-0.12 0.38,0.91 -0.03,0.68 -0.08,0.19 0.15,0.44 0.01,0.68 0.23,1.36 0.82,0.73 0.05,0.43 0.29,0.63 0.69,0.53 1.11,0.64 0.32,0.07 0.4,0.28 0.24,0.57 0.57,0.42 0.29,0.33 0.22,0 0.28,0.16 0.37,0.45 0.08,0.25 0.27,0.24 0.9,0.28 0.47,0.3 0.14,0.29 -0.08,0.32 0.13,0.33 0.24,0.17 0,0.14 -0.11,0.11 0,0.59 0.29,1.1 0.39,1.06 0.33,0.57 0.34,0.39 0.92,0.48 0.53,0.4 1.46,1.42 0.15,0.38 0.08,0.64 -0.23,1.17 0.34,1.18 0.9,1.79 1.1,1.31 0.9,0.5 0.72,0.61 0.15,0.91 0.35,1.18 0.61,0.78 1.12,0.99 0.64,0.72 0.48,0.27 0.24,0.32 1.03,0.5 1.37,0.91 1.45,0.62 0.05,0.21 0.42,0.42 0.64,0.87 0.69,1.96 -15.94,1.49 0,0 -0.13,-3.41 0,0 0.76,-4.42 -1.27,-1.38 -1.51,0.25 -0.76,1.01 0,0 -1.39,2.02 -1.13,-0.63 -1.77,-1.27 -1.64,-0.63 0,0 -1.89,-0.75 -1.77,-1.14 0,0 -1.64,-1.39 0,0 -3.66,-1.51 -1.01,-1.26 -1.51,-0.64 -1.39,-2.01 -1.14,-1.39 0,0 -0.5,-0.76 -0.25,-1.39 0,0 -4.8,-0.25 -1.51,-1.39 -1.64,-0.76 0,0 -1.27,-0.88 -1.64,-0.88 -1.26,-0.89 -1.01,-0.88 0,0 -1.39,-0.38 -1.26,-1.39 -0.63,-1.64 0,0 -0.76,-1.64 -1.39,-1.51 -0.5,-1.26 -0.76,-0.51 -0.21,-1.48 -3.21,0.43 -1.25,-5.26 -2.9,0.25 0,0 -1.51,0.13 0,0 -1.39,-1.64 -1.14,-0.38 1.26,-4.42 0.08,-4.36 0,0 z" 
                fill="rgb(151, 144, 238)" 
                stroke="white" 
                stroke-width=".7px"
                title="Masqaţ" 
                id="OM-MA" 
            />
        </svg>