<svg xmlns="http://www.w3.org/2000/svg" viewBox="244.54069999999948 0.3102681999999829 25.640000000000526 74.92999980000003" width="25.640000000000526" height="74.92999980000003">
            <path 
                d="m 269.4307,0.3802682 0.05,0.25 0.19,0.13 0.21,0.32 -0.06,0.36 -0.08,0.07 0.11,0.21 0.21,-0.23 0.1,0.02 0.02,0.18 -0.29,0.25 -0.56,-0.04 -0.29,0.11 -0.23,0.27 -0.29,-0.05 0.05,-0.27 0.26,0.02 0.27,-0.25 0.03,-0.23 0.13,-0.13 -0.19,-0.39 0,-0.28 0.1,-0.18 0.26,-0.14 z m -4.42,0.68 0.19,0.07 0.08,0.25 0.35,0.05 0.19,-0.14 0.06,0.04 -0.03,0.21 -0.21,0.18 -0.06,0.29 -0.13,-0.14 -0.58,-0.05 -0.23,-0.27 -0.02,-0.11 0.16,-0.25 0.23,-0.13 z m -6.91,68.0799998 0.09,1.76 -0.23,0.42 -0.06,0.87 0,0 -0.08,0.39 -0.19,0.3 0,0 -0.19,0.25 -0.63,0.28 0,0 -0.39,0.28 0,0 -1.14,0.65 -0.79,0.78 0,0 -0.4,0.12 -0.42,0 -2.08,-0.41 0,0 -0.6,-0.27 -0.19,-0.19 -0.14,-0.5 0,0 -0.4,-3.08 0.5,-1.31 0,0 0.97,0 0.71,-0.18 1.45,-0.71 0.19,-0.44 0.08,-1.19 0,0 0.13,-0.58 0.27,-0.39 0.48,-0.32 1.67,-0.57 0.52,-0.28 0.59,-0.54 0,0 0.18,1.81 -0.32,1.62 0.42,1.43 z m -1.72,1.51 -0.97,-0.43 -0.97,0.65 0,0.86 0.97,0.43 0.97,-0.54 0,-0.97 z m 4.43,-70.3399998 0.06,0.16 -0.45,1.2 0.11,0.11 0.27,-0.04 0.11,-0.21 -0.02,-0.3 0.47,-0.16 0.02,0.57 -0.29,0.61 0.42,-0.11 0.13,-0.21 0.06,-0.41 0.11,-0.05 0.18,0.04 -0.13,0.89 0.31,-0.07 0.53,-0.98 0.23,0.25 0.16,0.3 -0.05,0.3 -0.4,-0.05 -0.05,0.09 0.06,0.23 0.18,0.11 -0.03,0.14 -0.18,0.04 0.06,0.29 -0.13,0.43 0.11,0.11 1,-0.75 0,-0.21 0.08,-0.02 0.27,0.48 0.1,-0.21 0.26,-0.2 -0.03,0.2 -0.23,0.34 0.26,1.04 0.21,0.04 0.08,-0.18 0.21,0.04 0.05,0.11 0.15,-0.07 0.05,-0.32 0.15,-0.14 0.27,-0.09 -0.11,0.79 0.34,0.05 0.23,0.2 0.15,-0.32 0.13,-0.05 0.05,0.09 0.87,0.23 0.56,-0.25 -0.02,-0.25 -0.37,-0.3 -0.11,-0.21 0.1,-0.29 -0.24,-0.11 -0.32,0.04 -0.37,-0.38 0.02,-0.21 0.27,0.05 0.11,0.16 0.24,-0.02 0.35,0.2 0.15,0 0.06,-0.05 -0.06,-0.25 0.26,-0.05 0.06,-0.13 0,-0.1 -0.14,-0.05 0.06,-0.13 0.39,0.04 0.02,0.13 -0.16,0.14 -0.03,0.75 0.32,0.52 -0.24,0.57 0.03,0.16 0.63,0.04 0.02,-0.11 0.18,-0.02 0.13,0.27 -0.11,0.29 -0.29,0.3 -0.24,0.02 -0.37,-0.23 -0.37,0.25 0.14,-0.45 -0.06,-0.18 -0.19,-0.04 -0.82,0.21 -0.48,-0.11 -0.56,0.13 -0.43,0.3 -0.24,0.36 -0.11,-0.11 0.03,-0.25 -0.08,-0.04 -0.16,0.14 -0.58,-0.02 -0.02,0.14 -0.42,0.13 -0.08,-0.18 -0.18,0.02 -0.05,0.39 0.16,0.04 0.4,0.93 -0.58,-0.05 -0.21,-0.36 -0.21,0 -0.4,0.07 0.03,0.32 -0.26,-0.2 -0.26,-0.02 -0.21,0.2 -0.08,0.23 0.14,0.39 0.31,-0.11 0.06,0.21 0.42,0.37 0.02,0.11 -0.06,0.29 -0.56,0.02 -0.03,0.16 -0.29,-0.04 -0.05,0.16 0.52,0.38 0.19,0.02 0.29,-0.14 -0.06,0.2 -0.45,0.14 0.43,0.45 0.5,-0.11 0.15,-0.2 0.1,0.09 0.11,0.14 -0.06,0.21 0.05,0.4099998 -0.1,0.18 0.06,0.09 0.51,-0.21 0.29,0.52 0.4,0.2 0.35,-0.21 0.29,-0.07 -0.05,-0.39 0.31,0.04 0.03,-0.16 -0.19,-0.1799998 0.08,-0.09 -0.11,-0.5 0.29,0.02 -0.02,0.34 0.18,0.2699998 0.74,0.04 0.11,-0.1399998 0.08,0.02 -0.01,0.4199998 0.69,-0.11 -0.23,0.2 -0.63,0.21 -0.23,0.27 0.03,0.14 0.18,0.09 -0.03,0.73 0.15,0.16 -0.02,0.13 0.35,0.36 0.06,0.32 -0.06,0.2 -0.53,0.12 -0.02,0.18 -0.16,0.01 -0.13,-0.11 0.13,-0.5 -0.31,-0.14 -0.11,0.09 -0.08,-0.04 0.45,-0.5 0,-0.39 -0.08,-0.21 -0.16,-0.14 -0.45,-0.14 -0.43,0.21 0.02,0.23 -0.21,0.08 0.02,0.41 -0.37,-0.07 -0.15,0.05 0.31,0.54 -0.14,0.32 -0.19,-0.11 -0.02,-0.11 -0.27,-0.07 -0.1,0.14 0.26,0.14 0.05,0.11 0.11,0.87 -0.03,0.46 -0.19,0.37 0.5,0.45 0.26,-0.11 0,-0.2 0.11,-0.05 0.05,-0.3 0.35,-0.14 -0.06,0.36 0.64,-0.13 -0.06,0.27 0.29,0.43 -0.03,0.73 0.24,0.02 0.16,-0.18 0.23,-0.07 0.06,0.14 -0.06,0.16 0.27,0.29 -0.03,0.32 -0.35,-0.21 -0.48,0.39 -0.05,-0.09 0.1,-0.39 -0.24,-0.2 -0.35,0.16 -0.5,0 -0.19,-0.18 -0.19,0.04 0.02,0.2 -0.26,0.05 0,-0.23 -0.42,0 -0.16,0.27 -0.29,0.18 -0.26,-0.13 -0.02,-0.3 -0.18,-0.02 -0.13,-0.2 0.03,-0.27 -0.24,-0.45 -0.29,0.09 0.1,-0.43 0.16,-0.02 0,-0.21 -0.32,-0.12 0.05,-0.3 0.16,-0.34 0.15,0.11 0.16,-0.09 -0.15,-0.3 0.21,-0.39 -0.24,-0.34 -0.39,0.16 -0.38,0.39 0.05,0.25 -0.23,0 -0.05,-0.16 -0.34,0.07 -0.03,0.21 -0.26,0.07 0.1,0.21 -0.05,0.43 0.23,-0.04 0.02,0.21 -0.35,0.09 -0.18,0.57 -0.37,0.04 0.16,-0.45 0.13,-0.09 0.02,-0.5 0.1,-0.09 -0.16,-0.21 -0.24,-0.13 -0.08,-0.23 0.05,-0.09 0.32,-0.04 0.14,-0.16 -0.14,-0.07 0.14,-0.25 0.25,0.04 0.2,0.18 0.27,-0.05 0.11,-0.11 -0.06,-0.11 0.08,-0.18 -0.23,-0.09 -0.05,-0.37 -0.31,-0.07 -0.32,-0.23 -0.27,-0.04 -0.29,0.13 -0.11,0.39 -0.34,-0.23 -0.15,0.05 0.05,0.45 -0.37,0.02 -0.32,0.68 0.06,0.09 0.34,-0.02 0.13,0.18 -0.27,0.37 -0.89,0.43 -0.61,-0.18 -0.37,0.48 0,0.18 0.5,0.32 0.02,0.18 -0.13,0.18 0.02,0.54 0.08,0.09 0.61,-0.59 0.03,-0.2 0.11,0.09 -0.24,0.66 -0.24,0.39 -0.16,-0.05 -0.1,0.11 0.06,0.14 0.19,0.04 0.15,0.2 -0.34,0.32 0,0.46 -0.11,0.07 -0.02,0.16 0.19,0.05 -0.27,0.36 0,0.23 0.35,0.04 0.5,-0.25 0.11,-0.3 -0.11,-0.11 0.02,-0.18 0.06,-0.09 0.18,-0.02 0.19,-0.68 0.13,-0.14 0.08,0.14 0.9,-0.84 0.29,0.39 -0.05,0.45 -0.16,0.04 -0.06,0.13 0.13,0.16 -0.19,0.34 -0.19,0.11 0.11,0.23 -0.03,0.16 -0.32,0.52 0.14,0.16 0.39,-0.12 0.03,0.34 0.18,0.18 0.48,-0.23 0.03,-0.11 -0.11,-0.11 -0.02,-0.16 0.05,-0.3 0.32,-0.25 0.26,-0.34 0.15,1.03 0.66,-0.62 0.13,0.05 -0.08,0.57 0.06,0.14 -0.03,0.16 -0.11,0.07 0.34,0.48 0.42,-0.11 0.76,-0.68 0.1,0.04 -0.04,0.33 0.08,0.09 0.34,-0.23 0.1,-0.32 0.1,0.02 0.05,0.3 0.34,0.09 0.11,-0.14 0.18,0.37 0.31,0 0.23,-0.25 0.29,-0.04 0.02,0.18 0.15,0.09 0.02,0.09 -0.45,0.02 -0.29,0.18 -0.52,0.53 -0.1,-0.16 -0.26,0.21 -0.45,-0.07 0.06,0.21 -0.37,0.61 0,0.09 0.24,0.18 -0.16,0.32 0.13,0.3 -0.05,0.11 -0.47,0.05 -0.21,-0.25 -0.16,0.09 0.05,0.16 -0.1,0.05 -0.21,-0.05 -0.11,0.11 -0.37,0.02 -0.05,-0.53 -0.08,-0.02 -0.23,0.27 -0.23,-0.02 -0.27,0.07 -0.08,0.16 -0.26,0 -0.13,0.25 -0.15,0 -0.03,0.07 0.14,0.23 0.21,-0.04 0.14,0.09 -0.16,0.16 -0.16,0.04 0,0.09 0.15,0.05 0.02,0.16 -0.06,0.07 -0.27,0 -0.03,0.07 0.03,0.11 0.29,0.14 0.16,-0.02 0.29,-0.57 0.08,0.09 0.37,-0.11 -0.02,0.27 0.32,0.29 0.58,-0.16 0.21,-0.23 0.13,-0.02 -0.02,0.46 -0.16,0 -0.05,0.75 -0.1,0.16 0.11,0.18 0.23,0.02 -0.1,0.37 0.23,0.09 0.26,0.55 -0.13,0.05 -0.16,-0.09 -0.27,-0.37 -0.27,0.04 0.06,0.43 -0.24,0.11 -0.27,-0.07 -0.18,0.14 0.05,0.18 0.13,0.02 0.02,0.14 -0.4,0.05 -0.23,0.43 0.77,0.43 0.13,-0.13 0.13,0.05 0.05,0.16 0.39,-0.16 0.1,0.64 -0.18,0.14 -0.02,0.27 0.13,0.43 0.27,0.27 0.37,0.02 0.15,-0.23 0.27,-0.16 0.29,-0.02 0.37,-0.21 0.13,0.02 -0.24,0.14 0,0.12 -0.77,0.39 0,0.27 0.18,0.43 -0.03,0.12 -0.11,0 -0.32,-0.23 -0.1,-0.21 -0.58,0 -0.26,0.41 -0.13,0 -0.08,-0.18 0.06,-0.25 -0.06,-0.05 -0.71,-0.04 -0.15,-0.29 -0.35,-0.02 -0.1,0.11 0.03,1.21 -0.1,0.44 0.1,0.36 0.05,0.07 0.47,0.04 0.34,0.14 0.03,0.12 -0.06,0.23 -0.47,0.62 0.05,0.12 0.13,0.04 -0.19,0.75 -0.61,0.75 -0.69,-0.07 -0.05,-0.2 -0.58,0.27 0.05,0.41 0.29,-0.07 0.26,0.07 0.45,0.3 0.03,0.25 -0.05,0.14 -0.56,0.25 -0.22,0 -0.52,-0.3 -0.08,0.05 -0.05,0.18 0.19,0.36 0.27,0.02 0.26,0.14 -0.16,0.3 0.06,0.21 -0.05,0.2 -0.14,0.11 0.16,0.59 -0.55,0.36 -0.05,0.34 -0.43,0.59 -0.24,-0.39 -0.06,-0.53 -0.1,-0.02 -0.11,0.84 0.21,0.37 0.05,0.27 -0.24,0.36 -0.16,0.02 -0.06,0.43 -0.6,1.05 -0.56,0.37 -0.56,0.6 -0.21,0.09 0.03,-0.32 0.42,-0.57 0.06,-0.48 0.31,-0.44 0.02,-0.3 -0.19,0.04 -0.4,0.44 -0.03,0.16 0.16,0.09 -0.07,0.27 -0.55,0.37 0.03,0.3 -0.43,0.18 -1.14,1.55 -0.06,0.37 -0.15,0.2 0.02,0.23 0.71,0.12 -0.16,0.25 -0.24,0.09 0.02,0.16 0.18,0 0.08,0.62 -0.34,0.39 -0.21,-0.04 -0.27,0.8 -0.05,0.64 0.02,0.07 0.19,0 0.02,0.14 -0.18,0.09 -0.02,0.94 -1.33,1.21 0,0 -0.79,-0.07 -0.65,-0.32 -0.57,-0.49 -0.41,-0.57 -0.24,-0.73 -0.97,-0.81 -0.81,0 -0.75,0.23 0,0 -0.26,-0.38 0,0 -0.14,-0.53 0,0 -0.09,-3.36 0.18,-1.73 0.44,-1.15 -0.9,-2.31 -0.02,-1.16 0.13,-1.03 0,0 0.82,-2.66 -0.08,-0.76 0.35,-0.83 0,0 0.64,-4.67 -0.25,-1.14 0,0 -0.02,-1.34 0.25,-1.39 0,0 -0.31,-1.45 -0.61,-0.8 -1.5,-0.24 -1.16,0.44 0,0 -0.85,-0.18 0,0 0.29,-0.88 0.5,-0.71 0,-0.2 0.45,-0.3 0.9,-1.84 0.53,-0.86 0.23,-0.05 0.02,0.34 0.43,-0.07 0.27,-0.36 0.16,-0.39 0.35,-0.25 0.23,-0.79 0.16,-0.25 0.06,-0.59 -0.08,-0.27 0.16,-0.84 0.15,-0.11 0.13,-0.37 0.1,-0.48 -0.03,-0.41 0.18,-0.34 0.32,-0.29 0.26,-0.3899998 0.26,-0.21 0.19,-0.02 -0.06,-0.16 0.05,-0.23 0.42,-0.36 0.21,0 0.21,0.18 -0.08,0.61 0.06,0.4499998 -0.24,0.29 -0.05,0.23 0.32,-0.13 0.29,0.96 -0.19,0.3 0,0.14 0.18,0.21 -0.03,0.32 -0.13,0.11 0.06,0.23 0.31,-0.23 0.08,-0.77 0.19,-0.18 0.18,-0.02 0.53,0.16 -0.06,0.37 0.08,0.3 0.24,0.16 0.21,0 0.15,-0.09 0.02,-0.54 0.11,-0.3 0.26,-0.25 0.16,-0.07 0.43,0.14 0.11,0.23 0.11,0.04 0.08,-0.2 0.37,-0.16 0.08,-0.21 0.16,0.07 0,0.13 -0.29,0.8 0.05,0.43 0.15,0.05 0.19,-0.54 0.1,-0.14 0.16,0 0.08,0.61 -0.19,0.41 0.05,0.2 0.37,0.39 0.6,0.05 0.21,-0.09 0.02,-0.14 -0.1,-0.11 -0.37,0.09 -0.08,-0.11 -0.02,-0.21 0.14,-0.11 0.63,0.18 0.45,0.27 0.16,0 0.05,-0.32 0.42,-0.07 -0.02,0.45 0.13,0.23 0.37,0.09 0.14,-0.11 0.19,-0.59 -0.16,-0.25 0.26,0.04 0.05,-0.27 0.31,-0.45 0.03,-0.27 0.11,0.02 0.21,0.32 0.24,-0.02 0.69,-0.29 0.18,0.07 0.06,0.13 0.47,-0.09 -0.05,0.21 0.06,0.2 0.34,0.11 0.15,0.25 0.4,-0.05 0.05,-0.07 -0.39,-0.64 0.27,-0.04 0.29,0.11 0.13,0.16 0.18,-0.09 0.03,-0.2 -0.11,-0.14 -0.6,-0.39 -0.23,-0.05 0.02,-0.07 0.64,-0.13 -0.13,-0.61 -0.23,-0.18 -0.27,0.02 -0.06,0.11 -0.56,0.21 0.18,-0.55 -0.24,-0.3799998 -0.27,0.25 -0.02,0.2899998 -0.13,0.3 -0.08,0 0.06,-0.32 -0.11,-0.2 0.11,-0.2699998 -0.13,-0.05 -0.19,0.3199998 0.02,0.41 -0.08,0.23 -0.18,-0.13 -0.13,0.02 -0.1,-0.45 -0.11,0 -0.23,0.12 -0.11,0.34 -0.31,0.18 0,0.16 -0.35,0.29 -0.13,0.3 -0.16,-0.05 0,-0.13 -0.23,-0.18 -0.11,0.36 -0.27,0.45 0,0.14 -0.79,0.34 -0.6,0.07 -0.37,-0.46 0.14,-0.46 -0.24,-0.3 0.08,-0.84 0.34,-0.43 -0.03,-0.2699998 0.14,-0.18 0.15,-0.05 0.02,0.23 0.16,0 0.16,-0.27 0,-0.25 -0.32,-0.61 0.03,-0.07 0.23,-0.02 -0.02,-0.13 -0.23,-0.2 0,-0.13 0.26,-1.18 0.11,-0.14 0.24,0.16 0.27,0.52 0.39,-0.05 0.29,0.62 0.43,0.11 0.02,0.14 -0.16,0.3 0.02,0.45 0.32,0.14 0.35,0.02 0.16,-0.18 0.24,0.05 0,0.14 0.23,0.11 0.37,-0.52 -0.06,-0.41 -0.29,-0.02 -0.43,-0.45 0.27,-0.09 0.15,-0.16 -0.08,-0.2 -0.45,0.04 -0.43,-0.11 -0.1,0.16 -0.1,0.02 0,-0.79 -0.53,0 -0.05,-0.39 -0.16,-0.18 -0.74,-0.38 0.11,-0.43 0.63,-0.55 0.11,0.04 0.13,0.41 0.39,-0.29 0.26,-0.34 0.18,0 0.13,0.14 0.08,0.29 0.18,-0.16 0.16,-0.02 -0.05,-0.61 0.19,-0.46 -0.21,0.02 -0.16,-0.09 0.13,-0.18 0.08,-0.43 0.27,-0.39 0.05,-0.79 -0.11,-0.09 0.02,-0.25 0.16,-0.2 0.1,-0.5 0.27,-0.59 0.07,-0.02 z m -1.37,0.8 0.19,0.23 0.34,0.14 0,0.16 -0.23,-0.02 -0.18,0.29 0.08,0.73 -0.21,1.07 -0.21,0.04 -0.16,0.25 -0.24,0.04 -0.14,-0.16 -0.03,-0.21 0.08,-1.13 0.16,-0.18 0.23,-0.55 0.39,-0.21 -0.05,-0.09 -0.21,0.05 -0.02,-0.38 0.21,-0.07 z m 3.8,-0.59 0.06,0.04 -0.03,0.09 -0.21,0.05 -0.05,0.39 -0.23,-0.11 0.18,-0.43 0.28,-0.03 z" 
                fill="rgb(151, 144, 238)" 
                stroke="white" 
                stroke-width=".7px"
                title="Musandam" 
                id="OM-MU" 
            />
        </svg>