<svg xmlns="http://www.w3.org/2000/svg" viewBox="237.83069999999998 95.94026799999999 7.130000000000024 9.110002000000009" width="7.130000000000024" height="9.110002000000009">
            <path 
                d="m 242.2207,105.05027 -0.23,-0.22 -0.07,-0.53 -0.13,-0.1 0.16,-0.31 -0.08,-0.18 -0.37,-0.28 -0.37,-0.49 -0.66,-1.35 -0.11,-0.36 0.06,-1.2 -0.12,-0.200002 -1.57,-1.31 -0.66,-0.98 -0.24,-0.78 0.09,-0.28 0.24,-0.26 0.65,-0.27 0.41,-0.01 0.52,0.13 0.67,0.36 0.28,0.37 1.24,0.87 0,0 0,0 0,0 0.55,0.71 1.29,1.02 0,0 0.9,1.020002 0,0 0.29,0.09 0,0 -0.96,2.52 z" 
                fill="rgb(151, 144, 238)" 
                stroke="white" 
                stroke-width=".7px"
                title="Neutral Zone" 
                id="AE-NZ1" 
            />
        </svg>