<svg xmlns="http://www.w3.org/2000/svg" viewBox="224.23070000000013 20.21026799999993 30.959999999999866 80.35000200000005" width="30.959999999999866" height="80.35000200000005">
            <path 
                d="m 241.3007,29.500268 -0.34,0.78 0.08,0.28 -0.64,1.51 -0.1,0.07 -0.11,-0.09 -0.06,-0.21 0.32,-0.64 0.6,-1.6 0.25,-0.1 z m -3.26,45.26 0.6,0.07 1.48,-0.11 0.66,0.27 0.39,0.27 0.4,0.11 0.29,-0.02 0.56,-0.51 0.6,-0.14 0.31,0.04 0.48,0.48 0.53,0.21 0.72,0.16 0.53,-0.11 0.42,-0.23 0.37,-0.92 0.48,-0.05 0.15,-0.12 0.08,-0.65 -0.37,-1.08 0,-0.34 0.11,-0.18 1.26,-0.27 0.6,-0.25 0.18,-0.19 0.42,-0.81 -0.03,-0.14 -0.11,-0.07 -0.84,0.09 -0.6,-0.16 -0.31,-0.55 -0.19,-0.09 -0.27,-0.02 -0.82,0.16 -0.34,-0.04 -0.13,-0.07 0.03,-0.19 0.23,-0.35 0.52,-0.21 1,-0.9 0.76,-0.07 2.22,0.62 0.05,0.14 -0.35,0.6 0.11,0.21 0.56,0.18 0,0 -0.5,1.31 0.4,3.08 0,0 0.08,0.29 0,0 -2.13,1.1 -0.11,1.19 -0.75,2.48 0,4.53 0,0 -0.11,2.59 0,0 0.11,0.97 0.86,1.08 0.86,1.73 -0.11,2.05 -1.19,0.97 0,0.97 0.86,1.08 2.37,0.32 2.07,0.55 0,0 0.6,0.28 0,0 0.4,0.46 0.1,0.49 0.6,1.37 0,0 -0.33,0.35 0,0 -0.42,0.12 0,0 0,0 0,0 -1.36,0.56 0,0 0,0 0,0 -0.5,0.13 0,0 -0.46,0.09 -1.01,-0.08 -0.36,0.1 0,0 -0.67,0.560002 0,0 -2.05,-0.04 -0.92,0.18 -1.06,-0.12 -0.4,0.07 -0.35,0.18 0,0 -0.32,0.04 -0.29,-0.09 0,0 -0.9,-1.020002 0,0 -1.29,-1.02 -0.55,-0.71 0,0 0.1,-0.16 -0.14,-0.27 0,0 -0.26,-0.47 -0.27,-0.88 0,0 -0.03,-0.99 0,0 -0.04,-0.86 -0.25,-1.31 -0.62,-1.34 0,0 -0.59,-0.37 0,0 -1.25,-0.57 -1.1,-0.07 0,-0.78 -0.24,-0.64 -0.74,-1.5 -0.47,-0.44 -0.18,-0.39 0.13,-1.06 -0.26,-1.52 1.37,-2.97 0.16,-0.55 0.19,-0.3 0.26,-0.07 0.06,-0.14 -0.61,-1.11 -0.92,-0.78 -0.23,-0.34 0.06,-1.29 0.18,-0.34 1.67,-0.76 0.13,-0.32 -0.02,-0.37 z m 3.97,-46.97 0.11,0.3 -0.08,0.07 -0.13,-0.04 -0.06,0.21 -0.11,0.07 -0.16,-0.05 -0.18,0.78 -0.23,0.36 -0.06,-0.07 0.63,-1.82 0.27,0.19 z m 6.01,-7.35 0.61,0.8 0.31,1.45 0,0 -0.25,1.39 0.02,1.34 0,0 0.25,1.14 -0.64,4.67 0,0 -0.35,0.83 0.08,0.76 -0.82,2.66 0,0 -0.13,1.03 0.02,1.16 0.9,2.31 -0.44,1.15 -0.18,1.73 0.09,3.36 0,0 0.14,0.53 0,0 0.23,0.33 0,0 -0.55,0.58 -0.74,0.23 -1.35,-0.07 -0.37,0.18 -0.32,0.32 -0.34,0.2 -0.39,0.11 -0.39,-0.11 -0.42,-0.53 -0.24,0.04 -0.7,0.66 -0.53,0.3 -0.34,0.34 -0.24,0.89 -0.24,0.32 -0.56,0.27 -0.4,0.05 -0.43,0.25 -0.56,0.04 -0.4,-0.27 -0.48,-0.11 -0.4,0.07 -0.29,0.21 -0.29,0.39 -0.06,0.91 0.5,1.49 -0.21,0.43 0.47,1.4 0.32,2.09 0.24,0.11 0.69,0.05 0.52,0.28 0.47,0.02 1.5,-0.23 1.22,0.16 0.74,-0.28 0.8,-0.67 0.32,-0.14 0.35,0.03 0.68,0.66 0.71,1.05 0.32,0.27 0.02,0.35 -0.23,0.58 -0.45,0.64 -1.63,1.58 0,0.32 0.32,0.43 0.03,0.44 0.56,0.28 0.39,0.02 1.3,-0.39 0.29,-0.02 0.1,0.11 0.11,1.68 -0.11,0.57 -0.21,0.48 -0.31,0.11 -0.89,-0.37 -0.13,0.05 -0.21,0.3 -0.21,0.62 -0.26,0.27 -0.97,0.35 -0.66,-0.09 -1.24,-0.6 -1.64,-0.28 -0.39,-0.19 -0.31,-0.39 -0.11,-0.43 -0.31,-0.35 -0.42,-0.27 0,0 -0.68,-0.34 -0.31,-0.3 -0.31,-0.07 -0.71,0.07 -0.19,0.2 -0.15,0.73 -0.03,1.52 -0.61,1.24 -0.32,0.46 -0.68,-0.87 -0.69,-1.29 -0.6,-0.71 -1.24,-0.99 -0.95,-0.39 -0.16,-0.3 0.34,-0.41 0.52,-0.35 0.63,-0.74 -0.06,-0.51 -2.58,-2.32 -0.55,-0.64 -0.32,-0.83 -0.02,-1.08 0.18,-1.77 -0.1,-0.96 -0.32,-0.98 -1.19,-2.11 -0.26,-1.9 -0.13,-0.44 -0.26,-0.32 -0.5,-0.07 -0.98,0.16 -0.48,-0.12 -0.96,-1.33 1.17,-1.47 0.27,-0.55 0.32,-0.04 0.31,0.23 0.23,0 -0.03,-0.18 -0.21,-0.02 0.05,-0.34 0.55,0.09 0.1,-0.3 -0.5,-0.09 -0.19,-0.18 -0.15,0.2 0.03,0.25 -0.19,0.05 -0.13,0.21 -0.11,-0.02 0.34,-0.73 0.13,-0.07 0.13,0.05 0.66,-0.94 0.11,-0.34 0.15,-0.02 0.08,0.23 -0.24,0.3 -0.03,0.18 0.29,0.14 -0.1,-0.27 1.88,0.11 0.55,-0.16 0.1,-0.12 0.68,-0.02 0.89,-0.52 1.53,-1.28 0.61,-0.68 0.42,-0.68 1.17,-1.21 0.23,-0.48 0.11,-0.14 0.19,-0.05 0.23,-0.53 -0.05,-0.25 0.08,-0.14 0.06,0 0.1,0.36 0.02,0.36 -0.06,0.09 0.11,0.57 -0.27,0.16 -0.26,0.41 -0.26,0.16 -0.06,0.44 0.27,0.05 -0.05,-0.27 0.06,-0.07 0.08,0.02 0.1,0.21 0.08,-0.04 -0.03,-0.28 0.16,-0.02 0.37,-0.32 0.23,0.27 0.32,-0.07 -0.08,-0.41 -0.52,-0.14 -0.06,-0.18 0.08,-0.09 0.61,0.18 0.08,-0.3 -0.82,-0.07 -0.05,-0.09 0.14,-0.41 -0.13,-0.41 0.19,-0.02 0.29,-0.37 0.18,-0.09 -0.02,-0.12 0.15,-0.14 0.39,-0.18 0.76,-1.32 0.56,-0.73 0.39,-0.85 0.15,-0.12 0.06,0.07 -0.08,0.05 0.02,0.18 -0.16,0.14 -0.1,0.34 -0.77,0.94 -0.32,0.77 -0.39,0.46 -0.03,0.18 -0.37,0.09 -0.05,0.14 0.19,0.02 0.56,-0.21 0.05,-0.16 -0.06,-0.14 0.37,-0.23 0.18,-0.25 0.13,-0.46 0.68,-1.03 0.03,-0.34 0.13,-0.05 0.02,0.11 0.21,-0.04 0.03,-0.2 -0.13,-0.11 0.06,-0.09 0.16,0.12 0.08,-0.37 -0.08,-0.11 -0.11,0 0,-0.11 0.26,-0.6 0.37,-0.02 0.16,0.16 0.53,0.05 0.23,-0.2 0.18,0.04 0.1,0.18 0.24,-0.18 0.03,-0.32 -0.18,-0.04 0.29,-0.34 -0.11,-0.55 0.05,-0.11 0.37,-0.05 0.05,-0.23 -0.16,-0.32 -0.1,-0.52 0.06,-0.14 0.11,0.05 0.08,-0.11 -0.16,-0.25 0.15,-0.16 0.05,-0.3 0.14,0.02 0.11,-0.09 0.06,-0.28 -0.05,-0.44 -0.1,-0.11 0,-0.34 0.08,-0.11 -0.47,-0.37 0.05,-0.45 -0.34,-0.09 -0.03,-0.6 0.08,-0.02 0.06,0.18 0.02,0.36 0.34,0 0.32,-0.48 0.27,-0.18 0.13,-0.27 0.24,-0.05 0.55,-2.12 0,-0.3 0.19,-0.48 -0.02,-0.43 0.37,-1.71 0.34,-0.39 0.11,-0.03 0,0 0.85,0.18 0,0 1.16,-0.44 1.5,0.23 z" 
                fill="rgb(151, 144, 238)" 
                stroke="white" 
                stroke-width=".7px"
                title="Ra’s al Khaymah" 
                id="AE-RK" 
            />
        </svg>