<svg xmlns="http://www.w3.org/2000/svg" viewBox="0.27069629000006046 400.9202699999997 259.18000370999994 203.77000000000004" width="259.18000370999994" height="203.77000000000004">
            <path 
                d="m 180.9107,400.92027 18.14,26.77 20.47,31.86 19.2,31.02 20.59,35.35 0,0 -0.13,0.42 0.27,0.44 0,0.72 -0.18,0.2 -0.5,0.13 -1.11,-0.03 -1.11,-0.17 -0.9,-0.4 -0.39,-0.08 -0.31,-0.34 -1.38,-0.13 -0.34,-0.24 -1.01,0 -0.53,-0.15 -1.8,0.13 -0.42,-0.07 -0.27,-0.25 -0.97,0.37 -0.03,0.18 -0.29,0.32 -0.39,0.17 -0.63,0.13 -0.43,-0.15 -0.34,0.1 -0.68,0.02 -0.26,0.32 -0.27,0.05 -1.4,-0.27 -2.41,-0.32 -1.27,-0.02 -0.61,0.08 -0.35,-0.1 -0.29,0.12 -0.5,-0.13 -0.43,0.05 -0.69,0.29 -0.24,0.24 -0.29,0.05 -0.6,0.3 -0.21,-0.02 -0.72,0.76 -0.63,0.17 -0.08,0.15 -0.42,0.1 -0.26,-0.18 -0.4,0.29 -0.19,-0.1 -0.53,0.1 -4.28,-0.33 -0.72,-0.12 -2.99,-0.02 -0.13,0.1 -5.94,0.76 -3.35,0.62 -2.88,0.76 -3.12,1.24 -1.45,0.81 -1.67,0.67 -0.31,0.25 -0.11,0.57 -0.19,0.08 0.11,0.4 -0.18,0.24 -0.29,1.02 0.16,0.17 0.1,0.29 -0.23,0.6 -0.58,0.47 -0.63,0.3 -0.72,1.19 -0.02,1.19 0.15,0.64 -0.06,0.34 -0.21,0.27 0.03,0.39 -0.06,0.1 -0.9,0.42 -0.34,0.25 -2.17,1.14 -0.43,0.62 -0.47,0.33 -0.02,0.39 -2.17,1.36 -0.4,0.49 0.11,0.59 -0.53,0.82 -0.48,0.38 -0.23,0.4 -0.35,0.72 -0.42,1.21 -0.1,0.67 0.06,0.96 0.24,0.13 0.1,0.22 -0.03,1.22 0.26,0.75 0.37,0.54 0.42,0.27 0.42,-0.07 0.34,0.2 0.43,-0.03 0.08,-0.12 0.11,0.05 0.39,0.44 0.03,0.23 0.21,0.29 0.58,1.42 0.23,0.18 0.02,0.45 0.51,0.17 -0.13,0.22 -0.16,0 -0.19,0.22 0.11,0.67 -0.24,0.18 -0.16,0.32 0.11,0.74 -0.24,0.15 -0.11,0.25 -0.45,0.18 -0.08,0.65 0.11,0.32 -0.82,0.97 -0.1,0.45 -0.14,0.22 0.05,0.25 -0.85,0.54 -0.42,0.84 -0.05,0.6 0.72,1.11 0.5,0.32 0.1,0.33 -0.51,0.39 -0.18,0.67 -0.84,0.59 -0.24,0.57 -0.21,0.15 -0.66,0.18 -0.55,0.47 -0.4,1.05 -0.52,0.62 0.03,0.69 0.18,0.25 -0.03,0.13 -0.34,0.22 -1.74,0.18 -0.39,0.12 -0.35,0.25 -0.76,1.21 -0.35,0.3 -0.24,0.67 -0.77,1 -0.6,0.59 0.06,0.2 -0.48,0.3 -0.1,-0.1 -0.24,0.12 0.08,0.33 -0.31,0.43 -0.19,0.07 -0.6,0.5 -0.6,0.17 -0.55,0.33 -0.16,0.25 -0.03,0.22 -0.97,0.3 -0.26,0.7 -0.35,0.28 -0.02,-0.43 0.08,-0.25 -0.18,-0.3 -0.66,-0.33 -0.8,0.07 -0.45,1.19 -0.27,0.37 -1.29,0.55 -0.18,-0.02 -0.4,-0.27 -0.27,0.07 0,0.54 -0.16,0.15 -0.8,0.17 -0.13,-0.47 -0.52,-0.37 -0.13,0 -0.02,0.69 -0.21,0.15 -0.23,0.35 -0.03,0.22 -1.05,0.13 -0.26,-0.15 -0.18,0 -0.23,0.08 0,0.2 -0.14,0.13 -0.45,-0.03 -0.23,-0.17 -0.27,-0.07 -0.92,0.08 -0.39,0.2 -0.1,-0.1 -0.34,-0.02 0.06,0.18 -0.69,0.13 0,0.12 0.19,0.2 -0.18,0.18 -0.76,0.05 -0.43,0.13 -0.32,-0.12 -0.39,-0.42 -0.32,-0.12 -0.21,0 -0.26,0.38 -0.23,0.07 -0.11,-0.35 -0.18,0 -0.05,-0.17 -0.27,-0.22 -0.34,0 -0.11,0.08 0.02,0.3 -0.55,-0.13 -0.53,0.22 -0.1,-0.07 0,-0.12 0.15,-0.1 0,-0.27 -0.52,0.12 -0.06,-0.45 -0.74,-0.1 -0.37,-0.03 -0.05,0.27 -0.26,-0.17 0,-0.47 -0.19,0 -0.06,0.12 -0.29,-0.1 -0.18,-0.2 -0.06,-0.13 0.51,-0.72 0,-0.25 -0.24,-0.17 -0.05,-0.2 0.11,-0.23 -0.29,-0.35 -0.63,-0.35 -1.67,-0.5 -0.76,-0.13 -0.53,0 -0.13,0.08 -2.01,-0.05 -0.08,-0.12 -3.28,-0.22 -4.44,0.05 -0.19,0.12 -0.02,0.18 -0.19,0.05 -0.39,-0.4 -0.08,0.38 -0.31,-0.07 -0.02,-0.17 -0.11,-0.05 -1.3,-0.08 -3.36,-0.02 -4.65,0.5 -2.24,0.44 -9.3,1.4 -2.66,0.65 -0.6,0.4 -0.53,0.55 -0.45,0.95 0.13,0.12 0.15,-0.05 0.06,0.1 -0.1,0.42 0.06,0.3 0.18,0.03 0.31,-0.23 0.24,0.08 -0.02,0.2 -0.32,0.4 -0.43,0.07 -0.26,-0.08 -0.21,0.07 -0.19,0.2 -0.23,0.03 -0.18,0.13 -0.19,0.54 -0.45,0.13 -0.02,0.22 -0.35,-0.25 -0.76,0.13 -0.11,0.65 -0.1,0.03 -1.82,-0.03 -0.76,0.29 -0.51,-0.18 -0.89,0.03 -0.79,0.15 -0.14,0.18 -0.66,0.23 -0.85,0.15 -0.1,-0.12 -1.08,0 -2.46,0.48 -1.06,0.45 -0.08,0.08 0.06,0.28 -0.79,0.65 -0.21,0.28 -1.27,0.92 -0.19,0.23 0,0.23 -0.55,0.02 -0.08,0.28 -0.31,0.15 -0.13,0.17 -0.11,0.03 -0.19,-0.1 -0.24,0.1 -0.02,0.25 -0.4,0.27 -0.23,0.55 0.19,0.79 -0.16,0.22 -4.170004,1.34 -0.82,0.4 -0.18,0.2 -0.32,-0.2 -4.14,-0.6 -2.56,0.38 -0.92,0.3 -3.35,0.79 -2.33,0.28 -0.95,0.25 -0.45,0.35 -0.61,0.13 -0.69,0.02 -6.31,1.74 -1.06,0.72 -0.68,0.13 -1.92,0.97 -0.6,0.43 -2.08,0.76 -21.42,-26.35 2.07,-15.38 -50.18999971,-75.26 6.88000001,-25.76 2.3,-0.8 0.21,-0.16 1.0999997,-0.32 0.24,-0.16 0.96,-0.28 0.31,-0.18 1.02,-0.29 0.28,-0.19 1.06,-0.29 0.21,-0.17 0.25,0.01 0.86,-0.32 0.21,-0.17 0.63,-0.13 0.65,-0.34 0.24,0.01 0.86,-0.32 0.18,-0.16 0.24,0.01 0.98,-0.4 0.33,0.08 1.08,-0.62 0.24,0.01 0.88,-0.33 0.18,-0.14 1.06,-0.3 0.22,-0.17 2.4,-0.79 0.21,-0.16 0.78,-0.2 6.98,-2.57 16.59,-5.82 0.33,-0.18 32.66,-11.41 1.06,-0.45 1.14,-0.33 0.18,-0.14 0.49,-0.03 1.57,-0.62 6.14,-2.11 0.18,-0.14 4.08,-1.37 1.08,-0.47 5.300004,-1.78 1.08,-0.38 0.18,-0.14 0,0.06 0.77,-0.22 1.82,-0.72 1.09,-0.31 0.24,-0.18 0,0.07 0.63,-0.2 0.65,-0.34 0.2,0.04 0.95,-0.34 0.14,-0.14 0.2,0.03 0.94,-0.32 0.15,-0.16 0.24,0.01 1.12,-0.48 0.46,-0.07 0.77,-0.38 0.22,0.03 0.93,-0.32 0.18,-0.17 0.24,0.01 1.07,-0.45 2.4,-0.76 0.18,-0.17 0.22,0.04 1.08,-0.48 1.17,-0.34 0.18,-0.15 0.18,0.04 1.08,-0.46 0.17,0.03 1.25,-0.53 9.29,-3.16 1.07,-0.45 0.14,0.04 2.24,-0.78 0.24,-0.15 1.04,-0.29 0.3,-0.17 1.15,-0.33 14.27,-4.99 1.31,-0.53 22.58,-7.67 z m 49.29,151.53 0.71,0.42 0.21,0.18 0.03,0.15 0.23,0.1 0.55,-0.07 0.15,0.12 0.02,0.54 -0.27,0.3 -0.05,0.17 -0.19,0.08 -0.27,-0.02 -0.29,0.3 -0.4,-0.47 -0.15,0.25 -0.26,-0.27 0.21,-0.18 -0.13,-0.27 -0.23,0.07 -0.14,0.17 -0.24,0.05 -0.21,-0.12 -0.21,0.05 -0.03,-0.15 -0.13,-0.1 -0.06,0.29 -0.08,0 -0.19,-0.57 0,-0.08 0.13,0 0.02,-0.18 0.15,-0.03 0.03,0.17 0.18,-0.02 0.32,-0.5 0.14,0.02 0.24,-0.32 0.21,-0.08 z m 11.6,-2.7 0.11,0.07 0.03,0.18 0.19,0.27 -0.05,0.76 0.16,0.2 -0.05,0.37 0.19,0.47 0.58,0.07 0.19,0.15 1.19,0 0.05,0.27 -0.06,0.1 -0.16,0.03 -0.19,0.39 -0.98,0.25 -1.27,0.75 -0.31,0.1 -0.69,-0.07 -0.24,-0.13 -0.19,0 -0.02,0.22 -0.18,-0.03 -0.48,0.13 -0.11,-0.03 0,-0.15 -0.1,-0.1 -0.65,0.08 -0.96,-0.38 -0.24,0 -0.11,0.1 -0.74,-0.47 -0.13,-0.37 0.16,0 0,-0.15 -0.05,-0.07 -0.31,0.03 -0.03,-0.13 0.37,-0.55 1.32,-0.52 0.36,-0.05 0.03,-0.07 -0.1,-0.12 0.15,-0.13 0.29,-0.03 0.16,0.13 0.45,-0.03 0.26,-0.05 0.39,-0.27 0.39,-0.08 0.39,-0.2 0.55,-0.49 0.26,-0.39 0.18,-0.06 z" 
                fill="rgb(151, 144, 238)" 
                stroke="white" 
                stroke-width=".7px"
                title="Z̧ufār" 
                id="OM-ZU" 
            />
        </svg>