<svg xmlns="http://www.w3.org/2000/svg" viewBox="160.96187999999998 391.4452299999999 43.47999999999999 16.599999999999966" width="43.47999999999999" height="16.599999999999966">
            <path 
                d="m 204.32188,391.49523 -1.88,3.69 -0.97,2.77 -0.38,2.45 0.31,0.62 0.4,-0.17 -0.37,0.65 0.1,0.18 0.49,0.11 -0.06,0.39 -0.24,-0.3 -0.49,-0.07 -0.29,0.35 0.16,0.27 -0.28,0.3 -0.57,0.04 -0.47,-0.19 -0.29,0.11 -0.74,-0.33 -0.55,-0.5 -0.49,0.23 0.17,-0.27 -0.08,-0.45 -1.11,-0.23 0.24,-0.76 2.11,-0.6 0.59,0.34 0.5,-0.47 0.07,-0.34 -0.33,-1.15 -0.57,-0.05 0.02,-0.14 0.4,-0.1 -0.55,-0.46 0.64,-0.16 0.29,0.21 0.02,-0.23 -1.81,-0.79 -0.48,0.48 0.09,1.69 -0.67,-1.11 0,0.44 -1.37,-0.26 -1.02,0.05 -2.09,1.15 -0.67,1.16 -0.29,1.39 -0.67,-0.26 -0.24,-0.4 0.05,-0.48 0.28,-0.07 0.02,-0.32 -1.4,-0.26 -0.52,0.23 -0.55,1.04 -0.04,0.49 1.68,-0.18 0.64,0.51 2.72,0.19 -0.62,0.62 0.3,0.67 -0.62,0.19 -0.38,-0.18 -0.09,-0.42 -0.6,0.21 -0.24,0.44 0.1,0.28 0.26,0.11 -0.12,0.32 -0.19,-0.26 -0.38,-0.1 -0.57,0.35 -1.37,0.14 -0.38,0.34 -0.19,-0.09 -0.14,-0.49 -0.33,-0.18 -0.45,0.06 -0.27,-0.28 0.05,-0.52 0.31,-0.14 0,-0.37 -0.6,-0.73 -0.66,-0.3 -1.02,-0.16 -1.28,0.14 -1.61,0.77 -1.32,1.31 -0.36,-0.56 0.66,-0.39 -0.17,-0.72 -0.37,-0.53 -1.55,-1.34 -1.28,-0.7 -1.14,-0.33 -1.95,-0.35 -1.87,-0.04 -0.86,0.12 -2.25,0.83 -1.94,1.3 -1.94,1.89 -2.01,2.5 -1.88,2.71 -0.28,-0.04 0.12,-0.3 -0.35,-0.37 -0.99,0.05 0,0 0.67,-3.15 1.81,-2.8 1.98,-2.64 5.77,-2.64 12.19,-0.33 5.27,-0.49 3.29,-1.48 1.98,-1.32 5.44,-0.82 5.08,-0.27 0,0 -0.12,0.05 z" 
                fill="rgb(151, 144, 238)" 
                stroke="white" 
                stroke-width=".7px"
                title="'Adan" 
                id="YE-AD" 
            />
        </svg>