<svg xmlns="http://www.w3.org/2000/svg" viewBox="106.28188000000002 149.92523000000003 52.48000000000003 75.43999999999997" width="52.48000000000003" height="75.43999999999997">
            <path 
                d="m 115.34188,224.13523 0,-1.32 0,0 1.65,-0.66 0,0 -0.49,-1.32 -1.32,-0.49 0,0 -0.33,-1.98 0,0 0.66,-2.14 2.3,-0.33 0.99,1.15 1.49,-0.32 0,-3.63 1.48,-0.66 0,0 -0.17,-1.81 0,0 -2.3,0 -0.17,-4.61 0,0 1.49,0.16 0,0 -0.5,-2.14 -0.99,-0.99 0.17,-1.31 -0.5,-1.16 0.5,-2.3 -0.99,-2.31 -1.81,-1.32 -1.98,0.99 -1.32,2.31 -1.64,0.66 -0.66,-1.82 0.98,-1.48 1.49,-0.49 0,0 0.82,-1.65 0,0 -1.81,-2.47 -0.82,-1.65 -1.32,-1.81 0.33,-5.44 -1.81,-1.64 0,0 -1.65,-1.32 0.33,-2.97 0,0 0,-2.47 -1.16,-3.46 1.16,-1.64 0,0 0.99,-1.32 0,0 -0.24,-12.3 1.26,-0.63 0,0 2.3,-0.83 5.27,-0.49 1.98,-0.99 1.15,-1.15 2.64,-0.66 0,0 1.81,0.33 2.14,1.32 3.46,0.33 0,0 2.8,0.33 2.8,0.65 4.7,-0.2 0,0 -0.02,0.04 0,0 3.46,0.66 1.65,0.82 1.81,-0.99 1.48,1.16 0,0 1.15,2.96 4.12,3.79 0,0 0.33,4.45 -1.15,0.99 -0.17,7.9 0,0 2.81,0 -0.66,5.27 -1.32,1.98 0.66,3.46 1.64,1.81 0,0 2.31,0.66 0,3.46 0,0 0.16,0.14 0,0 -1.67,1.59 -3.63,0.16 -1.98,1.98 -3.78,0 -0.33,3.3 -1.16,3.95 0.99,0.82 1.32,1.49 -0.66,2.38 -1.81,2.48 -2.97,2.47 0.17,3.62 1.48,0.66 -0.66,1.65 -2.47,0.66 -0.99,2.14 -2.8,1.97 -3.13,0.66 -0.16,-3.29 -2.64,1.48 0.33,1.48 -0.99,1.16 0.5,1.31 0,0 -4.19,-1.89 -1.81,-0.5 -0.82,-1.31 -1.32,0.16 -0.49,2.31 -1.82,0.16 -1.48,0.83 -1.48,-1.32 -1.98,0 0,0 z" 
                fill="rgb(151, 144, 238)" 
                stroke="white" 
                stroke-width=".7px"
                title="'AmrÄn" 
                id="YE-AM" 
            />
        </svg>