<svg xmlns="http://www.w3.org/2000/svg" viewBox="202.42188 302.95523 133.2900000000002 87.40000000000003" width="133.2900000000002" height="87.40000000000003">
            <path 
                d="m 205.01188,390.35523 -1.44,-2.16 -1.15,-2.8 0.33,-2.63 2.47,-1.48 2.3,-3.13 2.8,-7.25 0.99,-4.94 2.31,-0.66 1.65,-0.99 0.66,-2.64 -1.32,-1.64 -2.14,-2.14 -2.64,-1.32 1.65,-3.46 2.14,-1.48 1.65,-2.31 0.82,-2.47 -1.15,-1.15 -1.82,0 -2.47,0.82 -1.31,-1.98 1.15,-1.15 1.98,-0.5 2.3,0.17 -0.16,-2.47 -1.16,-0.99 0.33,-2.31 1.32,-0.98 2.97,0.49 1.81,-0.66 -0.33,-1.65 -1.32,-0.98 -0.49,-1.98 0.66,-1.32 0,0 4.28,0.17 0,0 2.96,-0.5 1.65,1.48 1.81,-1.15 3.96,0 0.82,1.65 1.81,2.14 5.77,-0.16 2.3,-1.16 2.64,-3.46 6.42,-3.13 3.96,-2.63 1.31,0 0.5,-2.64 -0.17,-2.63 1.82,-0.33 1.15,-0.83 0.82,-5.43 0.5,-2.15 0.99,-1.48 1.38,-0.74 0,0 2.47,-1.32 2.31,-0.98 1.97,-1.65 0,0 3.79,-0.33 3.3,1.65 1.48,2.47 2.14,2.63 0.49,2.14 -1.31,2.47 -0.66,1.98 -1.65,1.65 -0.16,1.81 0,0 3.95,-0.49 3.29,-0.83 0,0 2.47,-0.16 1.49,0.82 2.96,-1.65 0,0 3.63,-2.3 0.82,-3.13 0,0 1.45,-1.15 0,0 4.45,0.32 4.28,-0.82 3.13,0.82 3.46,2.15 5.6,0 0.99,2.14 0.98,-0.66 1.16,-2.31 0,0 0.82,-1.81 2.47,-0.33 1.82,0.99 0,6.59 2.8,1.48 2.3,1.81 0,0 0.5,12.93 0.66,5.77 0,0 0.98,1.98 -0.98,3.46 0,0 0.11,3.49 -1.42,0.17 -3.06,0.76 -2.39,0.94 -1.97,0.18 -6.02,1.38 -2.7,0.88 -1.05,0.53 -4.08,2.79 -5.17,1.98 -3.27,1.49 -2.58,-0.69 -2.46,-0.13 -5.63,1.29 -2.2,0.16 -2.39,0.51 -0.67,-0.23 -0.16,-0.28 -0.67,-0.14 -1.85,0 -1.09,0.28 -0.69,-0.14 -0.59,0.09 -0.17,-0.25 -0.49,0.02 -1.38,-0.41 -1.2,-0.08 -0.19,0.14 -1.45,-0.59 -1.52,-0.1 -1.82,0.18 -0.81,0.31 -1.73,0.06 -1.24,0.35 -1.75,-0.11 -0.69,0.23 -1.18,0.02 -0.12,0.14 -0.43,-0.12 -0.45,0.21 -4.15,-0.39 -1.23,0.2 -1.87,0.6 -1.87,0.05 -1.88,0.65 -2.8,-0.07 -1.59,0.58 -2.17,0.34 -2.42,0.85 -1.52,0.16 -0.38,0.32 -1.45,0.42 -2.16,0.05 -1.02,0.32 -1.63,1.04 -5.48,5.12 -2.92,3.57 -2.32,3.72 -0.45,-0.03 0.03,0.47 -0.17,0.32 -1.59,1.55 -1.13,1.4 -1.66,1.37 -1.76,0.57 -3.46,0.48 -2.92,0.61 -2.27,0.71 -3.08,1.36 -1.57,0.9 -1.66,1.53 z" 
                fill="rgb(151, 144, 238)" 
                stroke="white" 
                stroke-width=".7px"
                title="AbyÄn" 
                id="YE-AB" 
            />
        </svg>