<svg xmlns="http://www.w3.org/2000/svg" viewBox="173.16187999999997 270.09523 91.91999999999993 63.90999999999997" width="91.91999999999993" height="63.90999999999997">
            <path 
                d="m 222.42188,330.37523 -0.17,-8.4 -1.15,-1.64 -1.98,-0.17 -1.98,1.98 -1.81,1.48 -1.48,2.31 -2.31,0.16 -0.49,-1.15 -2.64,-0.16 0,0 -0.16,-3.63 0,0 -1.32,-1.48 -1.15,-1.65 -3.3,-0.16 -0.33,-3.63 -3.62,-3.95 -0.16,-1.48 -2.15,-0.33 -3.78,0.33 -3.13,0 -2.8,2.14 -3.13,-2.47 -1.49,1.97 -0.49,1.49 0,0 -2.97,0 0,0 -3.95,-1.16 -0.33,-3.79 1.32,-0.16 0.16,-2.31 -1.15,-0.65 0,0 -1.32,-0.33 0,-1.98 1.49,-1.48 3.78,0 1.32,-6.59 1.15,-0.83 1.65,0 -0.16,-2.8 -1.49,-1.64 -0.32,-6.1 1.81,-2.8 2.96,-2.31 3.13,-1.31 0,0 2.14,-2.64 0,0 2.55,-0.9 0,0 0.02,0.08 0,0 2.97,-1.32 2.8,0 1.32,-0.82 1.31,0 0.83,7.24 0.99,6.76 1.48,4.45 2.47,1.81 3.13,0.99 0.49,-2.15 1.98,-1.64 1.98,0.16 1.64,1.48 1.49,0.17 0.49,-1.48 -2.47,-1.82 0.99,-1.31 2.96,1.97 1.98,-0.16 0.66,-2.47 1.15,-1.81 1.81,0.98 -0.33,1.98 3.63,0 0.66,-2.63 1.64,-3.79 -0.15,-2.31 0,0 8.46,0.25 0,0 0.49,7.9 0,0 6.76,0.5 3.62,6.92 1.32,4.77 0,0 0,5.28 3.79,-0.17 1.97,-0.82 1.65,0 1.65,2.14 4.28,3.95 0,0 -1.38,0.74 -0.99,1.48 -0.5,2.15 -0.82,5.43 -1.15,0.83 -1.82,0.33 0.17,2.63 -0.5,2.64 -1.31,0 -3.96,2.63 -6.42,3.13 -2.64,3.46 -2.3,1.16 -5.77,0.16 -1.81,-2.14 -0.82,-1.65 -3.96,0 -1.81,1.15 -1.65,-1.48 -2.96,0.5 0,0 z" 
                fill="rgb(151, 144, 238)" 
                stroke="white" 
                stroke-width=".7px"
                title="Al Bayḑā'" 
                id="YE-BA" 
            />
        </svg>