<svg xmlns="http://www.w3.org/2000/svg" viewBox="140.48188000000005 102.31522999999999 183.58999999999992 107.57" width="183.58999999999992" height="107.57">
            <path 
                d="m 313.01188,184.49523 -11.43,1.01 -24.54,3.79 0,0 -11.53,1.48 -10.87,2.14 -7.09,1.81 0,0 -4.77,1.65 -3.63,2.8 -2.8,2.8 -1.98,3.79 -1.64,2.31 -4.78,1.81 -13.51,0 0,0 -24.38,-16.8 -15.48,0 -1.32,0.82 0,0 -3.95,-0.16 -2.64,-0.83 -3.62,-0.16 0,0 -2.14,0.33 -2.31,-1.98 0,0 0,-3.46 -2.31,-0.66 0,0 -1.64,-1.81 -0.66,-3.46 1.32,-1.98 0.66,-5.27 -2.81,0 0,0 0.17,-7.9 1.15,-0.99 -0.33,-4.45 0,0 -4.12,-3.79 -1.15,-2.96 0,0 -1.48,-1.16 -1.81,0.99 -1.65,-0.82 -3.46,-0.66 0,0 1.65,-2.97 3.29,-1.31 14.66,-14.33 6.26,-4.29 4.12,-2.14 4.78,-0.82 17.62,0 -0.13,-24.55 20.13,0 11.3,7.28 11.29,0.76 15.32,2.51 15.81,1.76 9.29,0.75 14.06,0 19.33,-2.76 14.78,19.94 0,0 0.03,39.44 0,0 z" 
                fill="rgb(151, 144, 238)" 
                stroke="white" 
                stroke-width=".7px"
                title="Al Jawf" 
                id="YE-JA" 
            />
        </svg>