<svg xmlns="http://www.w3.org/2000/svg" viewBox="518.9918799999998 0.2452336000000681 186.62000000000035 253.47999639999986" width="186.62000000000035" height="253.47999639999986">
            <path 
                d="m 559.77188,253.70523 -1.2,-2.42 -1.22,-1.47 -1.22,-3.42 -1.71,-3.42 -1.96,-2.44 -1.46,-3.18 -3.67,-0.24 -0.97,-1.47 -1.96,-0.98 -3.42,-0.97 -4.64,-2.45 -5.62,-1.71 -5.13,-0.48 -0.24,-2.2 1.95,-0.49 -0.24,-5.13 -4.16,-1.47 -2.44,-0.49 -1.47,-1.95 0.25,-2.44 2.2,-10.26 0.73,-6.36 1.96,-3.17 1.95,-1.71 0.98,-3.18 -1.47,-2.44 -1.95,-2.2 -2.69,-1.95 1.46,-5.62 2.2,-4.15 1.47,-3.42 -0.24,-4.4 2.93,-4.4 -2.2,-1.46 -0.25,-2.94 1.71,-2.68 2.2,-2.45 3.67,-2.44 5.37,-1.46 4.89,-0.25 3.42,-1.71 2.68,-2.2 1.96,-2.2 0.24,-4.15 4.16,-3.42 4.88,-3.17 5.13,-3.67 4.15,-2.2 4.16,-1.95 2.93,-0.25 0.73,-2.93 0.98,-1.71 2.44,-3.17 3.42,-2.69 2.93,-3.42 0.74,-2.93 1.95,-2.93 3.18,-5.619996 4.15,-10.26 3.17,-7.09 1.47,-7.33 1.95,-19.05 1.23,-4.64 2.19,-3.42 1.96,-4.15 3.42,-5.13 2.2,-6.11 2.44,-4.64 2.2,-3.67 3.42,-4.39 2.93,-3.18 1.95,-3.42 5.38,-6.1100004 2.19,-4.79 0,0 24.6,52.3500004 0.24,5.09 23.47,48.879996 -2.42,4.59 4.84,-0.48 1.45,5.08 16.94,36.54 -3.84,1.54 -2.73,0.72 -4.34,0.85 -2.01,0.91 -5.81,2.01 -0.26,0.21 -0.01,0.31 -1.79,0.77 -0.89,0.16 -3.81,1.31 -0.29,0.32 -1.42,0.72 -7.84,2.6 -5.39,2.19 -2.65,1.43 -2.3,1.61 -2.7,2.29 -3.04,3.39 -5.47,6.95 -1.17,2.81 -0.73,1.28 -0.14,2.29 -0.48,1.63 -0.5,0.45 -1.35,3.45 -0.76,1.23 -0.36,1.31 0.25,2.14 0.4,0.25 0.28,0.54 0.62,0.23 -0.28,0.88 -0.22,0.16 -0.22,3.25 0.96,0.81 0.7,0.21 0.98,1.41 -0.64,-0.25 -0.15,0.36 0.64,1.02 -0.32,0.78 0.45,0.29 0.02,0.2 -0.47,0.07 -0.34,0.43 -0.09,0.89 0.35,1.11 0.14,1.3 1.83,5.69 -0.95,0.57 -0.88,0.93 -1.91,0.38 -10.56,3.73 -3.05,1.16 -0.67,0.57 -4.22,1.71 -0.8,0.69 -0.52,0.74 0.45,0.33 -0.31,0.47 0.05,0.25 0.61,0.53 -0.62,-0.05 -0.25,0.25 -0.98,-0.89 -0.57,-0.29 -4.27,1.23 -4.38,1.79 -2.3,1.44 -0.55,1.43 0.1,0.9 1.3,0.45 0.34,0.45 -0.27,0.32 -1.14,0.01 -0.78,0.45 -1.54,-0.04 -0.14,-0.26 -1.66,0.21 -2.27,0.66 -3.9,1.53 -0.33,0.48 -0.88,0.5 -0.07,0.47 -0.4,-0.25 -0.33,0.16 -0.03,0.23 -0.44,-0.11 -1.07,0.57 0.07,0.64 -0.9,-0.34 -1.99,0.82 -0.29,0.18 -0.02,0.66 -1.31,0.07 -0.38,-0.32 -0.26,0 -0.38,0.3 -0.45,-0.03 -1.66,0.53 -4.33,1.96 -1.35,0.18 -3.78,1.34 -0.8,0.05 -0.07,-0.86 -0.14,0.68 -0.41,0.46 -6.14,1.13 -6.78,1.99 -1.26,0.16 -4.9,1.62 -0.52,-0.14 z" 
                fill="rgb(151, 144, 238)" 
                stroke="white" 
                stroke-width=".7px"
                title="Al Mahrah" 
                id="YE-MR" 
            />
        </svg>