<svg xmlns="http://www.w3.org/2000/svg" viewBox="90.21188299999999 221.66522999999998 42.329997000000006 33.08000000000001" width="42.329997000000006" height="33.08000000000001">
            <path 
                d="m 131.72188,225.36523 0.82,1.82 -2.47,1.31 0.66,1.65 1.32,0.33 0,1.48 -1.49,0.33 -0.98,0.83 -0.83,1.64 -3.62,0 -0.83,1.98 -2.3,2.14 -2.8,1.81 -3.79,0.83 -1.48,2.14 -2.97,0.33 -1.32,1.48 -0.49,3.29 1.15,0.83 -0.16,1.32 -0.5,1.48 -1.97,0.99 0,0 -0.59,1.37 -0.4,-0.14 0,0 -1.48,-0.82 0,0 -1.81,-0.99 -1.16,-0.99 -0.82,-1.15 -0.17,-2.31 0,0 -1.479997,-1.97 -4.61,-3.13 -2.31,-2.15 -0.99,-1.81 -1.15,-0.99 -0.49,-5.93 0,0 1.97,-1.31 -0.82,-1.49 0,0 -0.99,-0.98 0.17,-2.31 0,0 3.22,-0.33 0.99,-0.82 3.46,-0.17 3.129997,-1.15 3.3,-0.17 2.47,-0.33 0,0 3.13,0.83 3.62,0.49 2.47,-0.82 0,0 1.98,0 1.48,1.32 1.48,-0.83 1.82,-0.16 0.49,-2.31 1.32,-0.16 0.82,1.31 1.81,0.5 z" 
                fill="rgb(151, 144, 238)" 
                stroke="white" 
                stroke-width=".7px"
                title="Al Maḩwīt" 
                id="YE-MW" 
            />
        </svg>