<svg xmlns="http://www.w3.org/2000/svg" viewBox="0.26188271000000063 201.90523000000005 122.39999728999999 143.80999999999992" width="122.39999728999999" height="143.80999999999992">
            <path 
                d="m 60.341883,337.24523 0.23,0.15 0.19,0.65 -0.14,0.3 -0.47,0.28 -0.12,1.15 0.23,0.64 -0.52,-0.12 -0.28,0.27 -0.02,0.35 -0.55,0.14 0.07,0.32 -0.22,0.62 -1.04,1.77 -0.31,0.16 -0.8,-0.19 -0.55,0.18 -0.21,0.46 -0.35,0.05 -0.22,0.41 -0.26,0.04 0.04,0.67 -0.12,-0.25 -0.21,-0.02 -0.86,0.44 -0.41,-0.37 -0.16,-0.94 0.14,-0.19 0.4,-0.07 0.07,-0.25 0.45,0.16 0.09,-0.21 -0.17,-0.34 0.16,-0.32 1.11,-0.62 0.16,-0.58 -0.1,-0.78 0.23,-0.76 0.59,-0.76 0.93,-0.25 0.33,-0.65 0.61,-0.16 0.57,-0.44 0.81,-0.02 0.24,-0.21 -0.04,-0.32 0.43,-0.16 0.05,-0.23 z m 1.71,-6.13 0.21,0.07 -0.02,0.16 -0.98,1.82 -1.16,0.46 0,-0.53 -0.21,-0.25 0.52,-0.87 0.8,-0.76 0.84,-0.1 z m -2.83,-12.38 0.33,0.76 1.23,1.08 0.09,0.85 0.42,0.05 -0.43,0.58 0.1,2 -0.62,0.97 -0.02,1.19 0.23,0.35 0.07,0.73 -0.57,0.59 0.02,0.21 0.26,0.04 0.21,0.53 0.31,0.21 -0.67,0.53 -0.6,-0.25 0.28,-0.94 -0.54,-0.04 -0.64,0.43 0.21,0.44 -0.35,0.23 -0.26,-0.27 0.14,-1.35 0.83,-0.89 -0.09,-0.28 -0.36,-0.18 -1,0.16 -0.66,-0.14 -0.26,-0.68 -0.52,0.17 -0.15,-0.1 0.09,-0.73 -0.17,-0.32 -1.05,-0.58 -0.59,0.09 0.03,-0.97 -0.66,-0.11 0.24,-0.39 0.64,-0.46 0.38,-0.74 0.21,0.28 0.31,-0.11 0.48,-0.94 -0.28,0 -0.35,0.6 0.23,-0.64 1.66,-1.17 0.45,0.05 0.57,-0.57 0.52,0.04 0.3,-0.31 z m 8.94,-35.76 0.16,0.09 -0.19,0.3 0.16,0.28 0.71,-0.14 -0.09,0.69 0.33,0.37 1.31,-0.32 -0.1,0.25 -0.73,0.3 -0.15,0.3 -0.43,-0.19 -0.86,-0.62 -0.5,-0.71 0.1,-0.57 0.28,-0.03 z m -46.51,-25.53 0.59,0.41 -0.05,0.69 -0.28,0.09 0.05,0.25 -0.36,-0.05 -0.02,-0.44 -0.28,0.11 -0.21,-0.34 0.14,-0.5 0.42,-0.22 z m 1.16,-3.1 0.57,0.16 0.45,0.59 -0.17,0.34 0.16,0.05 -0.1,0.39 0.29,0.57 -0.16,0.43 -0.9,0.82 -0.24,-0.02 -0.03,-0.36 -0.38,-0.28 -0.19,-0.89 -0.35,-0.59 0.14,-0.2 -0.14,-0.18 0.19,0.07 0.42,-0.25 0.05,-0.41 0.39,-0.24 z m 28.31,-24.24 0.5,0.11 -0.14,0.39 0.71,0.59 -0.02,0.71 -0.74,-0.44 -0.16,0.36 -0.47,0.25 -0.5,-0.52 -0.29,-0.07 -0.02,0.3 -0.33,0.13 -0.6,0.8 0.43,-0.04 0.78,-0.46 0.09,0.48 -0.55,0.28 0.42,0.61 -0.5,0.21 -0.43,-0.11 -1.57,0.25 0.02,0.23 0.52,0.05 0.23,0.41 0.47,0 1.99,-1.02 0.69,-0.02 -0.47,1.55 -0.28,0.27 -0.14,0.66 -0.57,0.96 0.26,0.73 -0.5,-0.02 0.05,0.3 0.31,0.02 0.21,0.7 -0.22,1.28 -0.35,0.7 -0.81,0.75 -0.41,1.07 -0.92,0.09 -0.55,-0.21 -1.37,-1.18 -0.67,-1.02 -0.07,-0.84 1.23,-0.02 0.64,-1.62 -0.04,-0.77 -0.5,-1.07 0.05,-0.96 -0.24,-0.43 2.11,-2.51 0.78,-0.28 -0.35,-0.61 0.83,-0.2 1.18,-0.86 0.28,0.04 z m -7.95,-3.11 0.87,0.39 0.81,-0.09 0.12,0.14 -1.19,1.46 -0.78,-0.11 -0.1,-0.23 0.16,-0.48 0.64,0.04 0.04,-0.53 -0.97,0.02 0.14,0.21 -0.12,0.28 -0.21,-0.05 -0.5,0.3 -0.26,-0.45 0.26,-0.5 1.09,-0.4 z m -8.44,-1.82 0.71,0.28 -0.02,0.21 -0.33,0.2 0.26,1.52 0.43,0.48 1.59,1.09 0.05,0.32 -0.16,0.14 -1.04,-0.57 -0.9,-0.93 -0.1,-0.75 -0.35,-0.39 -0.15,-0.82 -0.62,-0.57 0.63,-0.21 z m -32.8600003,-1.51 0.33,0.07 0.34,0.39 -0.07,1.12 -1.63999999,0.66 -0.47,-0.39 -0.1,-0.71 0.64,-0.86 0.96999999,-0.28 z m 44.7200003,-1.29 0.05,0.39 -0.35,0.57 -0.33,0.25 -0.81,0.05 0,-0.52 0.17,-0.16 0.48,-0.05 0.79,-0.53 z m 2.56,-4.73 0.4,0.25 0.28,0.55 1.78,0.61 0,0.21 -0.21,0.16 -1.23,-0.23 -0.52,0.52 -0.59,-0.04 -0.24,-0.34 0,-0.71 -0.62,-0.45 -0.02,-0.2 0.12,-0.21 0.85,-0.12 z m -2.47,-3.75 0.45,0.07 0.09,0.25 -0.28,0.21 -1.54,-0.12 0.16,-0.32 1.12,-0.09 z m -16.55,-0.3 0.26,0.13 0.05,1.25 0.5,2.25 -0.79,-0.62 -0.26,-1.05 -0.48,-0.11 0.23,-1.61 0.49,-0.24 z m 12.81,-1.28 0.33,0.25 -0.05,0.52 -0.17,0.18 -0.64,-0.07 0.07,-0.46 0.46,-0.42 z m -6.88,-0.86 1.04,0.88 1.16,0.5 0.54,0.04 0.35,0.36 0.76,-0.14 0.12,0.27 0.35,0.16 1.56,-0.04 -0.15,0.54 0.19,0.23 -0.14,-0.04 -0.05,0.32 -1.38,0.16 -2.89,-0.62 -1.35,0.23 -0.4,0.25 -0.45,-1.02 0.42,-0.66 -0.29,-0.34 0.09,-0.2 -0.22,-0.41 0.19,-0.36 0.55,-0.11 z m 14.78,-1.45 0.07,0.34 -0.52,1.34 -0.81,0.7 -0.41,-0.12 0.1,-0.73 0.54,-1.07 1.03,-0.46 z m 11.54,-6.86 1.8,0.07 2.97,2.31 1.98,0.49 0.99,0.82 2.8,-0.16 2.14,-0.66 2.47,-0.16 3.79,-1.98 5.44,-1.81 2.31,-0.16 1.48,0.99 0,5.93 -2.14,2.31 -0.16,1.98 0.99,0.82 0.33,3.79 -1.34,0 -0.16,1.48 1.32,0.99 0,5.6 1.15,0.49 0,0 -0.16,2.31 0.99,0.99 0,0 0.82,1.48 -1.98,1.32 0,0 0.49,5.93 1.15,0.99 0.99,1.81 2.31,2.14 4.61,3.13 1.479997,1.98 0,0 0.17,2.31 0.82,1.15 1.15,0.99 1.81,0.99 0,0 1.48,0.82 0,0 0.4,0.13 -0.4,0.94 0.17,1.65 0,0 1.98,0.82 2.47,0.49 0,0 2.97,0 1.65,1.65 0,0 -1.48,1.81 0,0 -0.19,0.67 -0.14,-0.01 0,0 -4.78,-0.16 -0.82,2.47 -1.65,1.65 -2.31,0.49 -1.65,4.28 1.15,1.32 0.49,2.31 0.82,1.15 -1.81,2.31 -0.33,4.94 2.14,1.98 0,0 0.66,2.97 0.99,2.47 0,0 0.66,2.97 0,0 0.82,1.48 -0.16,1.65 -1.15,0.49 0,0 0,1.48 0,0 -2.14,0 -1.81,0.33 0,0 0,1.81 1.48,2.31 2.14,3.95 1.15,1.15 0,0 -0.66,1.81 -1.81,0.99 0.5,2.47 2.14,1.32 0,0 3.29,0.16 3.79,3.95 2.64,0 1.81,-1.15 0,0 1.34,-1.19 0.31,1.85 0,0 1.32,0.66 0,0 -1.65,1.48 -1.65,0.66 0,0 0.33,2.47 -1.15,1.81 -2.96,-2.47 -0.99,1.32 0.33,1.65 0,0 1.15,1.32 0.99,1.48 0,0 -2.59,0.12 0,0 -0.04,-0.12 0,0 -1.81,0 -2.14,1.32 -2.47,-0.49 -3.62,0.82 0,0 -0.66,2.97 -0.16,1.81 0,0 0.49,1.48 -2.96,0.33 -0.99,3.46 -1.319997,1.15 -1.81,0.33 0,0 -1.98,1.15 -1.81,0.66 0,0 -1.25,0.42 0,0 -0.21,-1.97 -3.22,-7.91 -0.19,-1.82 0.4,-1.29 -0.07,-0.57 -0.78,-0.94 -1.35,-0.67 0.05,-0.78 -0.67,-0.97 -1.88,-1.29 -0.14,-1.04 -0.74,-1.06 -0.02,-1.43 -1.35,-1.51 -0.1,-0.64 -0.55,-0.83 -0.95,-0.58 0.52,-0.62 0.14,-0.87 -1.25,-2.36 0.07,-1.08 -0.81,-2.52 -0.07,-1.47 -0.54,-2.15 -0.62,-0.81 -1.23,-2.87 -0.26,-2.27 -0.62,-1.7 -1.59,-2.52 -0.12,-1.37 -0.38,-1.51 -0.31,-0.44 -0.02,-0.96 -0.69,-1.12 -0.55,-2.8 -1.28,-0.92 -0.16,-1.17 0.19,-0.53 0.48,0.32 -0.16,1.01 0.19,0.57 1.11,0.32 -0.17,0.23 0.54,2.49 0.88,0.03 -0.07,0.66 0.31,0.48 0.4,0.05 0.62,2.13 0.45,0.02 0.05,-1.63 -1.07,-0.83 -0.24,0.11 -0.16,-0.19 0.35,-0.16 0.59,0.07 0.31,-0.51 -0.04,-0.23 -0.78,-0.51 0.4,-0.5 -0.1,-0.96 0.38,-0.53 0.05,-0.75 -0.19,-0.34 -0.35,-0.07 -0.17,-0.51 -0.78,-0.16 -0.14,-0.21 0.03,-0.19 0.57,0.11 0.29,-0.44 -1.21,-3.68 0.09,-2.22 -1.14,-0.94 0.1,-0.82 -1.12,-1.76 -0.16,-1.74 0.35,-1.01 -0.19,-1.12 -0.52,-1.19 -1.23,-0.96 -0.15,-0.8 -0.26,-0.32 -2.01,-1.65 -0.26,-1.32 -0.57,-1.53 0.09,-1.03 0.33,-0.55 0.47,0.27 -0.21,0.52 0.54,0.6 0.45,-0.05 0.28,0.27 -0.83,0.2 -0.09,0.39 -0.04,1.05 0.35,0.41 0.21,1.12 0.19,0.11 0.29,0.05 0.36,-0.92 -0.43,-0.71 0.8,0.05 0.66,-0.36 0.09,0.3 -0.57,0.25 -0.19,0.66 0.67,1.32 0.42,0.34 -0.28,1.14 0.47,0.13 0.17,-0.14 0.09,-1.39 -0.14,-0.2 0.42,-0.44 0.02,-0.76 -0.35,-0.71 -0.52,-0.43 0.35,-0.28 0.52,0.36 -0.1,0.41 0.26,0.3 0.38,-0.53 -0.45,-1.14 -0.05,-1.8 -1.04,-3.15 -0.67,-1.03 -1.28,-1.08 -0.6,-0.12 -0.33,-0.32 -0.22,-0.59 -0.42,-0.34 0.14,-0.94 -0.38,-0.39 -0.02,-2.12 -0.26,-0.43 0.36,-0.5 0.28,-1.44 -1.11,-2.08 -0.73,-0.69 -3.84,-2.12 -3.68,-1.23 -2.75,-0.55 -0.64,0.5 -0.07,0.48 0.19,0.52 -0.43,0.75 -0.74,0.14 -0.74,-0.14 -0.47,-0.11 -0.48,-0.37 -0.24,-0.96 -1.35,-1.53 0.19,-1.17 0.45,-0.5 1.16,0.62 0.24,0.52 0.54,0.11 1.83,0 0.71,-0.69 -0.04,-0.77 0.33,-0.23 0.28,-0.85 -1.16,-1.66 -0.07,-0.93 0.88,-0.48 0.45,-0.71 0,-1.51 0.17,-0.36 0.35,-0.21 0.38,0.14 0.07,0.77 -0.67,1.23 -0.35,1.46 0.19,0.3 0.88,-0.41 0.8,-0.02 0.02,0.64 0.62,0.54 -0.21,0.82 0.42,0.46 0.57,-0.27 0.33,0.07 0.07,0.36 0.4,-0.37 0.35,-0.02 0.12,0.36 0.38,0.3 -0.26,0.96 0.17,0.93 0.28,0.18 0.74,-0.27 -0.07,-0.39 1.63,-2.01 -0.02,-0.69 -1.04,-1.1 -0.54,-0.19 -0.54,0.05 0.65,-0.77 0.21,-0.43 0.31,-1.92 -0.04,-0.57 -0.78,-0.02 -0.26,-0.37 0,-0.37 0.29,-0.16 -0.05,-0.96 -0.66,-1.05 -0.09,-0.62 -0.59,-0.3 0.67,-0.96 0.16,-0.75 -0.14,-0.46 0.24,-0.52 -0.83,-0.96 0.09,-0.73 -0.43,-0.52 -0.22,-1.07 -0.55,-1.21 -1.16,-0.66 -0.8,0.07 -0.28,-0.14 -0.66,-0.84 -0.12,-0.53 0.76,-0.07 0.49,-1.39 0.5,-0.41 -0.14,-0.71 -1,-0.64 0,-0.89 -0.74,-0.64 0.48,-0.64 -0.19,-0.46 0.07,-0.55 0.57,-0.93 -0.05,-0.86 -0.17,-0.18 -0.85,0.11 -0.67,0.8 -0.28,-0.75 0.07,-0.12 0.33,0.11 -0.1,-0.55 0.14,-0.82 -0.33,-0.05 0.5,-0.71 0.17,0.21 0.1,-0.59 0.45,-0.05 0.67,0.52 0.16,-0.34 -0.52,-0.09 -0.21,-0.52 0.97,0.16 0.31,-0.37 1.18,-0.71 0.31,-1.21 -0.29,-0.57 0.35,-0.07 0.24,-0.41 0.38,0.14 0.29,-0.09 0.26,-0.71 -0.04,-0.3 -0.17,0 0.02,-0.36 0.4,0.05 0.74,-0.5 0.09,-0.32 -0.15,-0.37 0.23,-0.59 1.92,-2.09 0.14,-0.52 z" 
                fill="rgb(151, 144, 238)" 
                stroke="white" 
                stroke-width=".7px"
                title="Al Ḩudaydah" 
                id="YE-HU" 
            />
        </svg>