<svg xmlns="http://www.w3.org/2000/svg" viewBox="159.33187999999998 308.4752299999998 49.08000000000001 43.980000000000246" width="49.08000000000001" height="43.980000000000246">
            <path 
                d="m 208.41188,324.63523 -1.97,5.42 -2.14,2.47 -3.3,2.8 -3.46,2.14 -2.47,2.3 -2.63,0.5 -1.82,1.65 -1.81,-0.99 -2.8,0 1.98,5.93 0.82,3.29 -3.13,0 -0.66,-1.15 -1.64,0 -0.66,1.15 -1.65,0.99 -2.64,0.33 -1.97,0.66 -1.81,-1.32 -2.15,1.65 -1.31,-1.32 -2.15,-0.66 0,0 -0.98,-1.81 -1.16,-1.48 -3.46,-0.5 -1.31,0.83 -2.31,-0.5 -0.33,-2.47 1.81,-0.66 0.17,-1.64 -0.5,-2.48 0,0 -1.64,-2.47 0,0 0.33,-2.14 2.14,-1.64 1.15,-1.98 2.31,-2.64 -0.66,-2.47 1.64,-1.32 2.64,-0.98 3.62,0 1.49,-1.49 -2.31,-0.66 -1.15,-1.64 1.15,-1.82 1.81,-0.65 0.17,-2.97 1.48,-0.16 1.65,0.49 1.81,-1.32 -0.08,-1.97 0,0 2.88,0 0,0 0.49,-1.49 1.49,-1.97 3.13,2.47 2.8,-2.14 3.13,0 3.78,-0.33 2.15,0.33 0.16,1.48 3.62,3.95 0.33,3.63 3.3,0.16 1.15,1.65 1.32,1.48 0,0 z" 
                fill="rgb(151, 144, 238)" 
                stroke="white" 
                stroke-width=".7px"
                title="Aḑ Ḑāli'" 
                id="YE-DA" 
            />
        </svg>