<svg xmlns="http://www.w3.org/2000/svg" viewBox="103.22188 257.81523000000004 85.99000000000004 61.44999999999999" width="85.99000000000004" height="61.44999999999999">
            <path 
                d="m 121.03188,316.91523 -1.34,1.19 0,0 -1.81,1.16 -2.63,0 -3.79,-3.96 -3.3,-0.16 0,0 -2.14,-1.32 -0.49,-2.47 1.81,-0.99 0.66,-1.81 0,0 -1.16,-1.15 -2.14,-3.96 -1.48,-2.3 0,-1.82 0,0 1.81,-0.32 2.31,0 0,0 0.16,1.31 1.49,0 0.82,-1.64 1.81,-1.32 1.48,-0.66 1.16,-1.48 0.49,-1.82 3.79,-0.49 0.66,1.32 3.29,-0.17 1.98,-1.48 2.96,-1.48 3.13,-3.3 1.49,-1.31 0.33,-1.65 -2.14,-2.64 0.49,-3.13 -2.14,-1.97 -3.79,-2.8 -3.3,-3.13 -0.35,-2.21 0,0 0.35,0.06 0,0 0,-1.48 4.78,0 0.17,1.32 1.81,0 2.47,-2.14 0.49,-1.81 1.98,-0.33 1.48,-1.32 0.99,-1.48 1.65,0 0.16,-1.65 1.49,-1.32 7.24,0.33 4.62,3.79 6.91,0.49 0.83,-1.15 -0.99,-0.66 0,-1.65 1.98,0 1.64,1.65 1.82,1.49 2.96,-0.99 2.64,-0.33 0.98,-1.32 1.65,-0.99 2.14,-0.33 1.98,-0.99 3.95,-0.33 1.49,0.66 -0.17,9.23 2.97,0.33 1.31,0.98 0.99,1.16 0.83,1.32 0.65,2.3 1.82,1 0,0 -0.73,0.9 0,0 -3.13,1.31 -2.96,2.31 -1.81,2.8 0.32,6.1 1.49,1.64 0.16,2.8 -1.65,0 -1.15,0.83 -1.32,6.59 -3.78,0 -1.49,1.48 0,1.98 1.32,0.33 0,0 -3.23,2.38 -1.65,-2.3 -3.95,-0.17 -0.82,-0.82 -0.83,-1.98 -2.8,0 -1.64,-0.99 -1.65,-0.66 -1.98,0 -1.97,-0.65 -1.32,-1.98 -1.32,-0.99 -0.99,-1.15 -1.81,-0.5 -1.15,4.62 -3.13,0.16 -0.5,1.32 -2.3,0 0,-6.76 -1.49,0 -1.81,2.15 -0.66,1.64 -1.97,2.14 -1.65,0.33 -1.32,1.65 -1.48,-0.16 -0.66,1.31 1.15,0.5 0.33,1.65 0.83,1.64 -2.31,2.64 -3.46,2.31 -1.48,0.32 0.16,-2.63 -2.3,0 0,2.63 -1.16,4.12 -1.15,1.16 0,0 z" 
                fill="rgb(151, 144, 238)" 
                stroke="white" 
                stroke-width=".7px"
                title="DhamÄr" 
                id="YE-DH" 
            />
        </svg>