<svg xmlns="http://www.w3.org/2000/svg" viewBox="114.46188000000001 293.39523000000025 64.14000000000001 49.4199999999999" width="64.14000000000001" height="49.4199999999999">
            <path 
                d="m 174.48188,303.86523 1.15,0.65 -0.16,2.31 -1.32,0.16 0.33,3.79 3.95,1.16 0,0 0.09,0 0,0 0.08,1.97 -1.81,1.32 -1.65,-0.49 -1.48,0.16 -0.17,2.97 -1.81,0.65 -1.15,1.82 1.15,1.64 2.31,0.66 -1.49,1.49 -3.62,0 -2.64,0.98 -1.64,1.32 0.66,2.47 -2.31,2.64 -1.15,1.98 -2.14,1.64 -0.33,2.14 0,0 1,1.5 0,0 -1.27,1.72 -1.48,1.48 -1.48,0.82 -1.98,-0.49 -1.48,-1.48 -0.83,-1.16 -1.48,0.83 -1.15,1.48 -1.81,0 0,-2.31 -3.3,0.33 -2.8,-2.14 -0.82,1.48 -2.47,-1.64 -2.47,-0.66 -1.82,0.16 -2.96,-0.16 0.16,-1.49 1.32,-1.15 0.82,-1.15 -1.31,-1.32 -1.65,0.49 -0.33,1.32 -1.65,1.49 -0.82,-1.49 0.66,-1.48 0,-1.65 -2.31,0.17 -2.63,2.3 -1.32,-1.81 -1.15,0.5 -0.17,1.97 -2.3,-0.49 -2.8,-0.33 -0.17,-1.81 0,0 -0.62,-1.86 0,0 2.6,-0.12 0,0 -0.99,-1.48 -1.15,-1.32 0,0 -0.33,-1.65 0.98,-1.31 2.97,2.47 1.15,-1.82 -0.33,-2.47 0,0 1.65,-0.66 1.65,-1.48 0,0 -1.32,-0.66 0,0 -0.33,-1.97 0,0 1.15,-1.16 1.16,-4.12 0,-2.63 2.3,0 -0.16,2.63 1.48,-0.32 3.46,-2.31 2.31,-2.64 -0.83,-1.64 -0.33,-1.65 -1.15,-0.5 0.66,-1.31 1.48,0.16 1.32,-1.65 1.65,-0.33 1.97,-2.14 0.66,-1.64 1.81,-2.15 1.49,0 0,6.76 2.3,0 0.5,-1.32 3.13,-0.16 1.15,-4.62 1.81,0.5 0.99,1.15 1.32,0.99 1.32,1.98 1.97,0.65 1.98,0 1.65,0.66 1.64,0.99 2.8,0 0.83,1.98 0.82,0.82 3.95,0.17 1.65,2.3 z" 
                fill="rgb(151, 144, 238)" 
                stroke="white" 
                stroke-width=".7px"
                title="Ibb" 
                id="YE-IB" 
            />
        </svg>