<svg xmlns="http://www.w3.org/2000/svg" viewBox="106.17188 320.1652299999997 116.24999999999993 92.62000000000012" width="116.24999999999993" height="92.62000000000012">
            <path 
                d="m 106.17188,406.92523 0.44,-2.75 1.32,-1.81 3.3,-5.43 1.48,-3.79 1.48,-2.31 1.98,-0.16 1.32,-1.49 -0.33,-5.43 0.33,-1.49 2.96,0.5 1.98,-0.5 0.66,-1.48 1.64,-0.49 1.16,-0.99 1.31,0 1.82,1.48 3.62,0.66 1.65,1.81 0.99,-0.82 -0.17,-2.47 1.32,-0.83 1.15,0.66 0.83,1.49 3.12,-0.17 0.17,-3.79 4.94,0.17 -1.15,-1.32 -0.82,-1.81 1.48,-0.17 0,-2.8 1.32,-0.16 0.98,2.47 4.62,-0.5 1.64,0.66 1.16,-1.31 1.81,-0.83 0,-1.97 -1.32,-1.65 0.99,-2.47 -1.32,-1.16 0.33,-1.31 1.98,-0.83 1.81,0.5 2.14,0 0.33,-1.65 -1.65,-0.66 -1.81,-0.33 -1.81,-0.66 -0.17,-1.97 1.32,-0.83 1.48,-0.49 1.49,-0.17 0.82,-0.99 1.48,-0.82 1.82,-0.66 1.64,-1.81 1.81,-1.32 0,0 2.15,0.66 1.31,1.32 2.15,-1.65 1.81,1.32 1.97,-0.66 2.64,-0.33 1.65,-0.99 0.66,-1.15 1.64,0 0.66,1.15 3.13,0 -0.82,-3.29 -1.98,-5.93 2.8,0 1.81,0.99 1.82,-1.65 2.63,-0.5 2.47,-2.3 3.46,-2.14 3.3,-2.8 2.14,-2.47 1.97,-5.42 0,0 0,0.15 0,0 2.64,0.16 0.49,1.15 2.31,-0.16 1.48,-2.31 1.81,-1.48 1.98,-1.98 1.98,0.17 1.15,1.64 0.17,8.4 0,0 -4.02,-0.16 0,0 -0.66,1.32 0.49,1.98 1.32,0.98 0.33,1.65 -1.81,0.66 -2.97,-0.49 -1.32,0.98 -0.33,2.31 1.16,0.99 0.16,2.47 -2.3,-0.17 -1.98,0.5 -1.15,1.15 1.31,1.98 2.47,-0.82 1.82,0 1.15,1.15 -0.82,2.47 -1.65,2.31 -2.14,1.48 -1.65,3.46 2.64,1.32 2.14,2.14 1.32,1.64 -0.66,2.64 -1.65,0.99 -2.31,0.66 -0.99,4.94 -2.8,7.25 -2.3,3.13 -2.47,1.48 -0.33,2.63 1.15,2.8 1.44,2.16 0,0 -0.64,1.03 0,0 -5.08,0.27 -5.44,0.83 -1.97,1.32 -3.3,1.48 -5.27,0.49 -12.19,0.33 -5.77,2.64 -1.97,2.63 -1.82,2.8 -0.66,3.15 0,0 -2.64,0.92 -4.01,2.27 -1.32,-0.07 -0.84,0.35 -0.99,-0.49 -0.9,-0.09 -2.4,1.04 -1.16,0.1 -0.73,-0.38 -0.74,-0.07 -0.52,-0.43 0.12,-0.07 0.52,0.37 1,0.11 0.21,0.19 0.9,0.07 0.73,-0.21 0,-0.79 -0.32,-0.44 -1.79,-0.72 -1.47,0.38 -2.51,1.61 -1.14,0.29 -1.49,0.8 -3.77,0.1 -1.06,0.57 -1.67,0.05 -1.13,-0.27 -0.78,-0.7 0.02,-1.5 -0.43,-0.74 -3.96,-1.28 -2.87,-1.64 -0.69,-0.14 -0.97,0.21 -0.76,-0.25 -0.87,-0.72 -0.53,-0.19 -1.01,-0.32 -1.04,-0.09 -1.08,-0.67 -2.05,-0.08 -0.36,-0.39 -0.69,-0.21 -0.4,0.09 -1.81,-0.92 -0.92,0.25 -1.04,0.59 -2.77,3.37 -0.2,0.04 -0.21,-0.39 z" 
                fill="rgb(151, 144, 238)" 
                stroke="white" 
                stroke-width=".7px"
                title="Laḩij" 
                id="YE-LA" 
            />
        </svg>