<svg xmlns="http://www.w3.org/2000/svg" viewBox="169.4718800000001 184.4952299999999 143.53999999999996 106.85" width="143.53999999999996" height="106.85">
            <path 
                d="m 231.09188,276.51523 0.15,2.31 -1.64,3.79 -0.66,2.63 -3.63,0 0.33,-1.98 -1.81,-0.98 -1.15,1.81 -0.66,2.47 -1.98,0.16 -2.96,-1.97 -0.99,1.31 2.47,1.82 -0.49,1.48 -1.49,-0.17 -1.64,-1.48 -1.98,-0.16 -1.98,1.64 -0.49,2.15 -3.13,-0.99 -2.47,-1.81 -1.48,-4.45 -0.99,-6.76 -0.83,-7.24 -1.31,0 -1.32,0.82 -2.8,0 -2.97,1.32 0,0 -0.66,-1.98 0,0 -0.33,-2.63 1.49,-1.49 1.81,-3.13 1.15,-3.95 3.3,-3.95 3.29,-2.97 2.8,-8.07 0.33,-3.95 -2.14,-0.33 -14.99,-7.58 -1.98,-0.49 0,6.26 -6.59,-0.33 -0.82,-7.91 -3.29,2.3 -2.64,1.32 -2.31,-0.82 -2.14,-1.48 0.83,-2.47 3.79,-0.33 2.14,-0.83 1.64,-1.15 1.65,-1.65 2.31,-1.15 1.97,-0.33 2.31,-0.82 1.32,-2.15 -0.83,-1.81 -1.64,-0.66 -2.97,-0.82 -2.47,-6.09 0.33,-2.48 -1.15,-5.6 -2.31,-4.94 -0.99,-1.32 -0.16,-1.64 -1.98,-0.91 0,0 0,0 0,0 1.32,-0.82 15.48,0 24.38,16.8 0,0 13.51,0 4.78,-1.81 1.64,-2.31 1.98,-3.79 2.8,-2.8 3.63,-2.8 4.77,-1.65 0,0 7.09,-1.81 10.87,-2.14 11.53,-1.48 0,0 24.54,-3.79 11.43,-1.01 0,0 -31.04,34.97 0,0 -1.24,1.29 -19.77,12.19 0,0 -6.09,4.78 -4.29,2.8 -3.29,1.81 0,0 -2.97,1.15 -2.8,4.29 -5.1,3.62 0,0 -3.46,4.61 -2.8,4.94 0,0 0.33,5.6 -1.81,4.12 0,0 -0.33,5.77 z" 
                fill="rgb(151, 144, 238)" 
                stroke="white" 
                stroke-width=".7px"
                title="Ma'rib" 
                id="YE-MA" 
            />
        </svg>