<svg xmlns="http://www.w3.org/2000/svg" viewBox="102.89187999999997 262.59522999999996 29.489999999999995 37.720000000000084" width="29.489999999999995" height="37.720000000000084">
            <path 
                d="m 114.23188,262.76523 -0.14,0.49 0,0 2.64,4.28 1.97,0.99 0,0 2.45,0.43 0,0 0.35,2.21 3.3,3.13 3.79,2.8 2.14,1.97 -0.49,3.13 2.14,2.64 -0.33,1.65 -1.49,1.31 -3.13,3.3 -2.96,1.48 -1.98,1.48 -3.29,0.17 -0.66,-1.32 -3.79,0.49 -0.49,1.82 -1.16,1.48 -1.48,0.66 -1.81,1.32 -0.82,1.64 -1.49,0 -0.16,-1.31 0,0 -0.17,0 0,0 0,-1.49 0,0 1.16,-0.49 0.16,-1.65 -0.82,-1.48 0,0 -0.66,-2.97 0,0 -0.99,-2.47 -0.66,-2.96 0,0 -2.14,-1.98 0.33,-4.94 1.81,-2.31 -0.82,-1.15 -0.5,-2.31 -1.15,-1.31 1.65,-4.29 2.3,-0.49 1.65,-1.65 0.83,-2.47 4.77,0.17 0,0 z" 
                fill="rgb(151, 144, 238)" 
                stroke="white" 
                stroke-width=".7px"
                title="Raymah" 
                id="YE-RA" 
            />
        </svg>