<svg xmlns="http://www.w3.org/2000/svg" viewBox="228.35188 212.03523000000007 193.88000000000005 136.80999999999995" width="193.88000000000005" height="136.80999999999995">
            <path 
                d="m 334.87188,348.84523 -0.14,-3.47 0,0 0.98,-3.46 -0.98,-1.98 0,0 -0.66,-5.77 -0.5,-12.93 0,0 -2.3,-1.81 -2.8,-1.48 0,-6.59 -1.82,-0.99 -2.47,0.33 -0.82,1.81 0,0 -1.15,2.31 -0.99,0.66 -0.99,-2.14 -5.6,0 -3.46,-2.14 -3.13,-0.83 -4.28,0.83 -4.45,-0.33 0,0 -1.45,1.15 0,0 -0.82,3.13 -3.63,2.3 0,0 -2.96,1.65 -1.49,-0.82 -2.47,0.16 0,0 -3.29,0.83 -3.95,0.49 0,0 0.16,-1.81 1.65,-1.65 0.66,-1.98 1.31,-2.47 -0.49,-2.14 -2.14,-2.63 -1.48,-2.47 -3.3,-1.65 -3.79,0.33 0,0 -1.97,1.65 -2.31,0.98 -2.47,1.32 0,0 -4.28,-3.95 -1.65,-2.14 -1.65,0 -1.97,0.82 -3.79,0.17 0,-5.28 0,0 -1.32,-4.77 -3.63,-6.92 -6.75,-0.5 0,0 -0.49,-7.9 0,0 -11.2,-0.33 0.33,-5.77 0,0 1.81,-4.12 -0.33,-5.6 0,0 2.8,-4.94 3.46,-4.61 0,0 5.1,-3.62 2.8,-4.29 2.97,-1.15 0,0 3.29,-1.81 4.29,-2.8 6.09,-4.78 0,0 19.77,-12.19 1.24,-1.29 0,0 37.51,-3.85 22.14,-0.65 22.81,-2.93 14.33,0.97 -8.15,12.71 0,0 -8.47,8.14 0,0 -1.62,11.73 -2.61,4.23 0,0 3.26,1.3 3.91,2.93 0,0 -0.33,3.91 -1.95,2.93 -3.26,1.63 -5.54,3.26 -3.26,2.61 1.63,2.6 2.93,1.96 4.89,6.51 -0.32,4.89 2.6,0 0,0 11.73,6.19 6.19,0.97 1.95,3.91 0,0 3.91,2.61 5.21,4.23 0.33,2.61 1.95,2.93 0,0 8.79,3.26 6.19,0 2.61,-0.66 2.6,-1.63 0,2.94 0,0 2.61,0.97 2.93,3.26 0,0 2.61,3.91 0.15,0.45 0,0 -1.84,0.14 -1.73,0.46 -0.72,0.36 -2.22,1.88 -0.69,-0.29 -0.74,0.37 -0.4,0.47 -0.45,-0.15 -0.14,-0.23 0.04,-0.87 -1.01,-0.67 -0.45,0.14 0.11,0.36 -0.12,0.1 -0.56,0.02 -0.17,-0.25 -0.85,-0.16 -0.81,0.61 -0.8,-0.38 -1.24,0.32 -0.35,-0.49 -0.97,-0.25 -0.39,0.19 -0.31,0.43 0.32,0.3 0.09,0.39 -0.5,-0.09 -1.49,0.71 -0.15,0.62 -0.42,-0.02 -0.55,-0.65 -0.42,0.4 -1.02,-0.03 -0.08,0.23 0.2,0.37 -0.43,0.23 -0.22,-0.12 -0.06,-0.41 -1.05,-0.02 -0.49,-0.23 -0.51,0.89 -0.64,0.14 -0.97,-0.14 -0.21,0.42 -0.59,-0.19 0.21,-1.24 -0.83,-0.8 -2.68,-1.57 -1.97,-0.78 -1.99,-0.66 -2.16,-0.32 -2.03,0.12 -1.74,0.43 -2.74,1.44 -2.31,2.16 -3.32,2.42 -1.23,1.19 -2.11,0.74 -2.61,0.18 -1.61,0.44 -1.13,0.62 -1.88,1.47 -1.04,0.48 -1.71,1.72 -1.19,1.73 -2.04,1.49 -6.46,5.92 -3.47,2.36 -0.73,0.7 -1.78,0.52 -1.73,0.12 -2.21,0.9 -4.03,1.26 z" 
                fill="rgb(151, 144, 238)" 
                stroke="white" 
                stroke-width=".7px"
                title="Shabwah" 
                id="YE-SH" 
            />
        </svg>