<svg xmlns="http://www.w3.org/2000/svg" viewBox="88.24188300000002 329.14523 80.81999700000001 81.24000000000001" width="80.81999700000001" height="81.24000000000001">
            <path 
                d="m 99.721883,407.85523 0.899997,0.48 0.38,-0.12 0.42,0.42 -0.19,0.35 0.24,0.41 -0.12,0.14 0.14,0.32 -0.5,0.53 -0.33,-0.12 0.21,-0.25 -0.15,-0.39 -0.22,0.41 -0.36,0.04 0.26,-0.81 -0.36,-0.44 -0.239997,0.41 -0.86,-0.26 0.78,0.81 -1.19,-0.48 -0.36,-0.42 0.17,-0.48 0.38,-0.26 1,-0.29 z m 14.699997,-78.71 0.66,1.98 0,0 0.17,1.81 2.8,0.33 2.31,0.49 0.17,-1.98 1.15,-0.49 1.32,1.81 2.64,-2.31 2.31,-0.16 0,1.65 -0.66,1.48 0.82,1.48 1.65,-1.48 0.33,-1.32 1.65,-0.49 1.32,1.32 -0.82,1.15 -1.32,1.15 -0.16,1.48 2.97,0.17 1.81,-0.16 2.47,0.66 2.47,1.65 0.82,-1.48 2.8,2.14 3.29,-0.33 0,2.31 1.81,0 1.15,-1.48 1.48,-0.82 0.82,1.15 1.48,1.48 1.98,0.49 1.48,-0.82 1.48,-1.48 1.26,-1.71 0,0 0.65,0.97 0,0 0.49,2.47 -0.16,1.65 -1.81,0.66 0.33,2.47 2.31,0.49 1.32,-0.82 3.46,0.49 1.15,1.48 0.99,1.81 0,0 -1.81,1.32 -1.65,1.81 -1.81,0.66 -1.48,0.82 -0.82,0.99 -1.48,0.17 -1.48,0.49 -1.32,0.82 0.17,1.98 1.81,0.66 1.81,0.33 1.65,0.66 -0.33,1.65 -2.14,0 -1.81,-0.49 -1.98,0.82 -0.33,1.32 1.32,1.15 -0.99,2.47 1.32,1.65 0,1.98 -1.81,0.82 -1.15,1.32 -1.65,-0.66 -4.61,0.49 -0.99,-2.47 -1.32,0.17 0,2.8 -1.48,0.17 0.82,1.81 1.15,1.32 -4.94,-0.16 -0.16,3.79 -3.13,0.16 -0.82,-1.48 -1.15,-0.66 -1.32,0.82 0.17,2.47 -0.99,0.82 -1.65,-1.81 -3.62,-0.66 -1.81,-1.48 -1.32,0 -1.15,0.99 -1.65,0.49 -0.66,1.48 -1.98,0.49 -2.96,-0.49 -0.33,1.48 0.33,5.44 -1.32,1.48 -1.98,0.17 -1.48,2.31 -1.48,3.79 -3.29,5.44 -1.32,1.81 -0.44,2.74 0,0 -0.57,0.44 -0.09,0.32 -0.28,-0.32 -0.45,0.42 -0.09,-0.48 -0.14,0.35 -0.31,0.07 -0.38,-0.42 -0.19,0.12 0.04,0.34 -0.33,-0.18 -0.19,0.12 0.23,-0.42 -0.21,0 -0.22,0.33 -0.17,-0.07 -0.29,-0.56 0.09,-0.33 -0.41,-0.21 1.18,-1.41 0.26,0.49 0.99,-0.02 -0.78,-0.67 -0.43,0.07 -0.21,-0.18 0.35,-2.71 0.85,-2.64 0.45,-0.79 -0.04,-0.44 -2.42,-2.8 -0.02,-0.39 -1.23,-1.73 -0.52,-1.67 -1.299997,-0.92 0.24,-0.25 0.03,-0.6 -0.81,-1.78 -1.83,-2.98 -1.35,-2.89 -2.32,-2.88 -1.69,-2.59 -1.75,-3.39 -0.55,-2.37 -1.12,-1.89 0.05,-0.41 0.31,-0.23 -0.09,0.76 0.78,1.25 0.1,-1.5 -0.28,-0.44 -0.16,-1.02 -0.29,0.11 -0.03,0.63 -0.14,-0.65 0.14,-0.33 0.36,-0.02 0.19,-0.72 -0.41,-0.41 0.4,0.04 0.33,-0.25 0.17,-0.49 0.14,-1.92 -0.14,-3.27 0.42,-0.3 0.14,-0.56 -0.04,-0.34 -0.24,-0.21 0.23,-4.01 0.19,-0.9 0.36,-0.25 -0.1,-0.58 0.5,-1.01 -0.12,-0.35 0.14,-0.49 0.52,-0.76 -0.24,-0.87 0.47,0.02 0.45,-0.57 -0.05,-0.64 -0.5,-0.62 -0.1,-0.9 0.31,-2.24 0,0 1.25,-0.42 0,0 1.81,-0.66 1.98,-1.15 0,0 1.81,-0.33 1.319997,-1.15 0.99,-3.46 2.97,-0.33 -0.49,-1.48 0,0 0.17,-1.81 0.66,-2.96 0,0 3.62,-0.82 2.47,0.49 2.14,-1.32 1.71,0 z" 
                fill="rgb(151, 144, 238)" 
                stroke="white" 
                stroke-width=".7px"
                title="Tā‘izz" 
                id="YE-TA" 
            />
        </svg>