<svg xmlns="http://www.w3.org/2000/svg" viewBox="106.72187999999998 191.24523 99.64999999999993 83.5399999999999" width="99.64999999999993" height="83.5399999999999">
            <path 
                d="m 158.76188,191.24523 2.15,1.84 2.14,-0.33 0,0 3.62,0.17 2.64,0.82 3.95,0.17 0,0 1.98,0.91 0.17,1.65 0.99,1.32 2.31,4.94 1.15,5.6 -0.33,2.47 2.47,6.1 2.97,0.82 1.65,0.66 0.82,1.81 -1.32,2.14 -2.31,0.82 -1.98,0.33 -2.31,1.15 -1.65,1.65 -1.65,1.15 -2.14,0.82 -3.79,0.33 -0.82,2.47 2.14,1.48 2.31,0.82 2.64,-1.32 3.29,-2.31 0.82,7.91 6.59,0.33 0,-6.26 1.98,0.49 14.99,7.58 2.14,0.33 -0.33,3.95 -2.8,8.07 -3.29,2.97 -3.29,3.95 -1.15,3.95 -1.81,3.13 -1.48,1.48 0.33,2.64 0,0 0.63,1.9 0,0 -2.54,0.9 0,0 -1.41,1.74 0,0 -1.82,-0.99 -0.66,-2.31 -0.82,-1.32 -0.99,-1.15 -1.32,-0.99 -2.96,-0.33 0.17,-9.22 -1.48,-0.66 -3.95,0.33 -1.98,0.99 -2.14,0.33 -1.65,0.99 -0.99,1.32 -2.63,0.33 -2.96,0.99 -1.81,-1.48 -1.65,-1.65 -1.98,0 0,1.65 0.99,0.66 -0.82,1.15 -6.92,-0.49 -4.61,-3.79 -7.25,-0.33 -1.48,1.32 -0.16,1.65 -1.65,0 -0.99,1.48 -1.48,1.32 -1.98,0.33 -0.49,1.81 -2.47,2.14 -1.81,0 -0.16,-1.32 -4.78,0 0,1.48 0,0 -2.8,-0.49 0,0 -1.98,-0.99 -2.64,-4.28 0,0 0.33,-1.15 0,0 1.48,-1.81 0,0 -1.65,-1.65 -2.96,0 0,0 -2.47,-0.49 -1.98,-0.82 0,0 -0.16,-1.65 0.99,-2.31 0,0 1.98,-0.99 0.49,-1.48 0.17,-1.32 -1.15,-0.82 0.49,-3.29 1.32,-1.48 2.97,-0.33 1.48,-2.14 3.79,-0.82 2.8,-1.81 2.31,-2.14 0.82,-1.98 3.62,0 0.82,-1.65 0.99,-0.82 1.48,-0.33 0,-1.48 -1.32,-0.33 -0.66,-1.65 2.47,-1.32 -0.82,-1.81 0,0 -0.49,-1.32 0.99,-1.15 -0.33,-1.48 2.64,-1.48 0.17,3.29 3.13,-0.66 2.8,-1.98 0.99,-2.14 2.47,-0.66 0.66,-1.65 -1.48,-0.66 -0.16,-3.62 2.97,-2.47 1.81,-2.47 0.66,-2.39 -1.32,-1.48 -0.99,-0.82 1.15,-3.95 0.33,-3.29 3.79,0 1.98,-1.98 3.62,-0.16 1.61,-1.63 z m 1.78,29.02 0,0 -2.96,-1.65 -1.81,1.32 -1.81,0 -0.49,1.81 -1.98,0.17 -1.32,1.65 -0.99,3.29 -1.48,1.15 -2.47,0 -0.99,1.98 1.98,0.66 1.32,1.48 -1.48,2.31 0.33,2.14 1.48,0.17 0.66,3.29 3.29,0 1.48,-2.47 0,-2.14 -1.48,-1.98 -0.33,-2.64 2.14,-1.81 1.48,-1.65 0.49,-2.31 3.13,-0.33 0.82,-1.48 1.81,0.99 1.32,-0.16 -2.14,-3.79 z" 
                fill="rgb(151, 144, 238)" 
                stroke="white" 
                stroke-width=".7px"
                title="Şan‘ā'" 
                id="YE-SN" 
            />
        </svg>