<svg xmlns="http://www.w3.org/2000/svg" viewBox="82.83188300000002 94.24523400000002 110.02999700000008 61.60999599999998" width="110.02999700000008" height="61.60999599999998">
            <path 
                d="m 140.50188,152.68523 -4.7,0.2 -2.8,-0.65 -2.8,-0.33 0,0 -3.46,-0.33 -2.14,-1.32 -1.81,-0.33 0,0 -2.64,0.66 -1.15,1.15 -1.98,0.99 -5.27,0.49 -2.3,0.83 0,0 -1.32,0.66 0,0 -2.64,-0.5 -2.47,-0.82 -1.97,0.33 -1.489997,0.49 0,0 -3.95,1.65 -2.8,-0.33 -1.65,-1.15 0,0 -1.97,-0.17 -0.75,-0.81 0,0 0.35,-0.19 0.06,-0.4 -0.11,-0.95 -0.56,-0.55 0.23,-1.01 -0.53,-1.35 0.02,-0.43 0.65,-0.46 0.09,-0.46 -0.16,-0.55 1.72,0.36 0.87,-0.56 -0.36,-1.28 -0.5,-0.27 0.42,-0.94 -0.03,-1.34 -0.85,-0.01 -0.98,-0.85 -0.6,-1.5 -0.75,-0.35 -2.05,-0.27 -1.3,-1.84 -0.8,-0.64 -0.44,-2.03 0.73,-0.39 0.87,-0.08 1.11,-0.8 -0.35,-0.61 -0.25,-2.3 0.14,-2.16 4.11,0.48 0.98,-1.65 -1.48,-2.96 -2.95,-0.87 -0.46,0.04 -1.31,0.69 -0.22,-1.88 0.18,-0.35 1.12,-0.57 0.2,-1.93 -0.27,-0.36 -0.02,-0.33 1.02,-0.31 0.28,-0.28 -0.13,-0.41 0.14,-0.33 0.64,-0.34 0.81,-0.81 0.02,-0.53 -0.83,-1.13 -0.24,-0.74 0.29,-0.97 2.21,-0.72 0.57,-0.59 1.1,-0.11 0.86,0.14 1.6,-1.1 0.71,-0.1 1.01,0.14 0.01,-0.7 -0.42,-0.75 -0.49,-0.36 -0.68,-0.05 -0.3,-0.21 0.39,-0.49 -0.03,-0.28 -0.36,-0.41 -1.41,-0.6 -1.4,-1.02 -0.16,-1.32 0,-2.96 2.31,-4.279996 2.14,-1.82 2.97,-0.98 3.289997,-0.66 2.97,-0.17 2.3,0.83 2.47,1.81 2.97,2.63 2.47,3.129996 3.46,3.63 0.28,0.52 0.94,0.27 1.34,-0.79 1.94,0.12 1.09,0.51 -0.07,0.66 0.21,0.45 0.55,-0.32 0.54,0 0.68,0.47 1.01,0 0.78,0.37 0.54,-0.49 0.43,0.23 1.93,-0.52 1.97,0.82 2.74,0.48 2.47,-3.48 3.19,-0.11 2.15,-0.84 1.96,2.39 1.46,-2.72 15,-1.98 5.77,-0.25 4.77,2.51 3.51,-0.5 2.51,-1.76 15.52,0 0.13,24.55 -17.62,0 -4.78,0.82 -4.12,2.14 -6.26,4.29 -14.66,14.33 -3.29,1.31 z" 
                fill="rgb(151, 144, 238)" 
                stroke="white" 
                stroke-width=".7px"
                title="Şā‘dah" 
                id="YE-SD" 
            />
        </svg>