<svg xmlns="http://www.w3.org/2000/svg" viewBox="58.84188299999998 151.47522999999987 62.929997000000014 74.80000000000004" width="62.929997000000014" height="74.80000000000004">
            <path 
                d="m 87.281883,153.47523 1.16,-0.08 0,0 0.75,0.81 1.97,0.17 0,0 1.65,1.15 2.8,0.33 3.95,-1.65 0,0 1.489997,-0.49 1.97,-0.33 2.47,0.82 2.64,0.5 0,0 0.3,12.27 0,0 -0.99,1.32 0,0 -1.16,1.64 1.16,3.46 0,2.47 0,0 -0.33,2.97 1.65,1.32 0,0 1.81,1.64 -0.33,5.44 1.32,1.81 0.82,1.65 1.81,2.47 0,0 -0.82,1.65 0,0 -1.48,0.49 -0.99,1.48 0.66,1.82 1.64,-0.66 1.32,-2.31 1.98,-0.99 1.81,1.32 0.99,2.31 -0.5,2.3 0.5,1.16 -0.17,1.31 0.99,0.99 0.5,2.14 0,0 -1.49,-0.16 0,0 0.17,4.61 2.3,0 0,0 0.17,1.81 0,0 -1.48,0.66 0,3.63 -1.49,0.32 -0.98,-1.15 -2.31,0.33 -0.66,2.14 0,0 0.33,1.98 0,0 1.32,0.49 0.49,1.32 0,0 -1.65,0.66 0,0 0,1.32 -1.48,0.49 -3.62,-0.49 -3.13,-0.83 0,0 -2.47,0.33 -3.3,0.17 -3.129997,1.15 -3.46,0.17 -0.99,0.82 -3.22,0.33 0,0 -1.16,-0.49 0,-5.61 -1.31,-0.98 0.16,-1.49 1.32,0 -0.33,-3.79 -0.99,-0.82 0.16,-1.98 2.15,-2.3 0,-5.93 -1.49,-0.99 -2.3,0.16 -5.44,1.82 -3.79,1.97 -2.47,0.17 -2.14,0.66 -2.8,0.16 -0.99,-0.82 -1.97,-0.5 -2.97,-2.3 -1.8,-0.07 0,0 0.14,-1.79 0.21,-0.35 -0.06,-1.22 0.4,-1.14 -0.03,-0.75 0.27,-0.93 -0.27,-1.36 0.69,-1.54 0.07,-0.89 -0.23,-0.56 0.05,-0.52 0.3,-0.48 -0.12,-1.18 -0.62,-0.96 0.24,-0.42 -0.68,-2.63 0.16,-0.71 -0.26,-1.31 0.4,-0.68 0.01,-0.34 -0.08,-0.71 -0.57,-0.83 -0.71,-1.82 0.24,-0.88 -0.09,-1.15 -0.45,-1.04 -0.24,-1.25 0.26,-1.32 -0.09,-0.52 -0.34,-0.56 -0.24,-1.1 -1.4,-0.97 -0.5,-1.32 0.83,-0.98 2.47,0.16 1.15,0.82 4.83,0.25 0.84,-0.68 2.15,-0.07 0.22,-1.79 -1.03,-2.79 0.06,-0.31 1.54,-0.93 0.82,-0.94 0.66,-0.29 1.27,-0.04 2.54,-0.94 1.93,-0.31 0.69,-0.44 1.55,-0.36 0.28,-0.46 -0.37,-1.45 1.04,-2.72 0.16,-1.36 0.66,-0.87 0,-0.27 -0.76,-0.97 -0.03,-0.39 1.19,-0.31 0.32,0.4 1.58,0.83 1.33,0.33 z" 
                fill="rgb(151, 144, 238)" 
                stroke="white" 
                stroke-width=".7px"
                title="Ḩajjah" 
                id="YE-HJ" 
            />
        </svg>