<svg xmlns="http://www.w3.org/2000/svg" viewBox="281.9818799999999 0.24523360000044203 510.28000000000037 442.20999639999945" width="510.28000000000037" height="442.20999639999945">
            <path 
                d="m 698.96188,438.98523 0.9,0.11 0.19,0.21 1.23,0.08 0.16,0.41 0.37,0.14 0.36,0.43 -0.1,1.56 -1.76,0.53 -0.19,-0.37 -1.8,-0.53 -0.88,-0.93 -0.99,-0.44 -0.67,0 -0.47,-0.3 0.19,-0.3 1.7,-0.21 0.02,-0.32 1.74,-0.07 z m -59.29,-4.05 0.12,0.19 0.71,0.16 0.87,-0.37 0.41,0.34 0.11,-0.21 0.39,0.02 0.12,0.17 0.28,-0.09 0.47,0.39 0.59,-0.07 1.27,1.27 0.35,-0.14 1.66,0.97 0.46,-0.23 2.41,0.3 0.55,-0.19 0.76,0.21 0.59,-0.34 0.31,0.39 0.73,0.12 0.19,-0.2 0.86,0.67 0.47,0.12 1.14,-0.39 0.78,0.25 1.51,0.14 0.97,-0.61 0.26,0.07 -1.02,0.79 -0.38,0.02 -0.31,0.37 -0.03,0.65 0.17,0.25 0.64,0.19 -0.07,0.39 -0.38,0.09 -0.78,-0.33 -1.81,0.58 -1.83,-0.07 -0.37,0.27 -1.85,-0.61 -0.21,0.12 -1.57,-0.14 -0.66,-1.48 -0.24,-0.11 -1.4,0.18 -1.06,-0.32 -0.33,0.14 -0.5,-0.33 -0.54,0.26 -0.62,-0.23 -0.33,-0.7 -1.05,-0.46 -0.78,0.21 -0.14,-0.16 -1.07,0.12 0.14,-0.19 -0.59,-0.44 -1.64,-0.72 -0.15,-0.3 0.43,-0.23 -0.07,-0.25 -0.36,0.16 0.1,-0.42 1.32,-0.24 z m 90.81,-29.77 2.09,0.79 1.82,0.23 2.16,-0.17 0.29,-0.18 0.36,0.09 3.08,2.45 3.74,2.62 2.34,1.09 2.4,0.53 0.73,-0.25 0.81,-0.76 1.19,-1.97 0.62,-0.32 1.35,-0.28 1.09,0.53 1.04,0.26 0.31,-0.16 0.42,0.25 0.57,-0.34 0.33,0.05 0.35,-0.44 1.74,0.07 4.48,-1.81 0.47,-0.72 0.16,-0.76 0.35,-0.09 1.61,0.35 0.54,0.31 1.03,1.04 1.34,0.74 0.55,0 0.97,-0.32 0.48,-0.4 0.02,0.6 0.64,0.37 0.24,0.42 0.61,0.44 -0.5,0.49 1.23,-0.49 0.92,0.41 0.81,0 0.17,0.61 0.74,0.26 0.73,0.65 0.35,0.11 0.33,-0.21 0.73,0.58 0.43,-0.12 0.52,0.28 1.04,0.04 0.36,0.18 0.31,-0.18 0.36,0.06 1.97,1.21 0.85,0.35 0.97,0.04 1.12,1.02 2.15,1.16 1.16,0.04 1.22,-0.81 0.51,0.3 0.83,-0.18 -0.04,0.6 0.19,0.28 -0.54,-0.07 -1.33,0.58 -2.45,0.46 -0.88,0.38 -0.73,1.38 0.33,0.51 0,0.37 -0.69,-0.02 -0.52,0.42 -0.55,0.1 -0.28,0.21 -0.05,0.42 -0.4,-0.03 -0.97,0.42 -1.4,0.14 -1.76,0.67 -0.86,0 -0.07,0.18 -1.83,-0.05 -1.42,0.23 -2.01,0.85 -0.5,0.53 -0.6,1.55 -1.71,0.35 -0.78,0.85 -2.51,1.6 -0.8,0.09 -2.06,-0.37 -3.34,0.24 -1.09,0.3 -0.33,0.81 -0.59,0.41 -2.3,-0.49 -2.71,0.14 -5.55,1.37 -3.25,0.4 -3.6,0.3 -3.18,-0.18 -1.61,-0.33 -4.92,-1.78 -0.97,0 -0.19,-0.26 -0.54,0.11 -0.22,-0.79 0.12,-0.18 -0.66,-0.39 -0.83,-1.51 -1.56,-1.34 -1.18,-0.67 -0.29,-0.88 -0.71,-0.79 -0.55,-0.12 -2.52,-1.27 -6.57,-4.14 -0.07,-0.4 0.85,-0.48 0.69,0.32 0.57,0.02 2.68,-0.65 0.76,-0.63 0.29,-0.69 0.1,-2.48 0.23,-0.67 -0.09,-0.58 -0.22,-0.05 0.09,-0.69 -0.26,-0.84 1.25,-0.69 1.07,-0.35 0.55,-0.07 0.42,0.18 1.14,-0.21 0.99,-1.27 0.1,-0.51 1.4,0.06 0.64,-0.63 1.55,-0.34 z m -330.88,-350.459996 -22.47,27.04 -15.31,19.219996 -4.23,12.05 -3.91,9.45 -4.56,2.93 -3.91,2.93 -4.23,1.96 -4.23,2.93 -12.7,-0.65 0,0 0.03,39.44 0,0 -42.1,47.47 37.5,-3.85 22.15,-0.65 22.8,-2.93 14.33,0.98 -8.14,12.7 0,0 -8.47,8.14 0,0 -1.63,11.73 -2.6,4.23 0,0 3.26,1.3 3.91,2.93 0,0 -0.33,3.91 -1.95,2.93 -3.26,1.63 -5.54,3.26 -3.26,2.61 1.63,2.61 2.93,1.96 4.89,6.51 -0.33,4.89 2.61,0 0,0 11.73,6.19 6.19,0.98 1.95,3.91 0,0 3.91,2.61 5.21,4.23 0.33,2.61 1.96,2.93 0,0 8.79,3.26 6.19,0 2.61,-0.65 2.61,-1.63 0,2.93 0,0 2.61,0.98 2.93,3.26 0,0 2.61,3.91 0.15,0.45 0,0 4.7,0.23 0.76,-0.09 0.1,-0.55 0.16,0.51 0.74,-0.23 2.08,-1.84 1.73,-2.46 1.25,-0.9 1.06,-0.19 1.21,-1.63 0.28,0.11 0.69,-0.62 1.7,-2.38 0.33,-0.09 0.21,-0.89 -0.15,-0.89 0.31,-0.62 2.11,-1.01 0.43,0.25 0.17,-0.34 0.45,-0.09 0.36,-0.48 0.62,-1.74 0.45,-0.14 0.45,-0.53 1.99,-0.14 0.81,-0.73 0.16,-0.28 -0.1,-1.13 -0.73,-0.39 -0.02,-0.58 0.36,-0.51 0.21,-1.15 0.93,-1.99 0.42,-0.18 0.12,-0.87 2.82,-3.78 2.68,-2.27 0.55,-0.23 0.83,0.04 0.57,0.12 0.12,0.32 0.4,-0.25 0.4,0.25 -0.02,0.34 0.24,0 0.19,0.34 0.83,0.34 0.09,-0.34 -0.28,-0.5 0.09,-0.64 0.55,-1.01 2.63,-1.4 2.68,-1.76 5.97,-3.16 3.75,-1.23 1.52,-0.83 1.56,-0.6 0.86,-0.28 0.42,0.21 0,-0.37 4.41,-2.5 3.65,-1.42 3.32,-0.91 4.55,-0.8 4.81,-1.67 0.62,0.02 1.19,-0.34 5.21,-2.35 1.71,0.27 1.87,-0.41 1.09,0.07 1.02,1.73 -0.26,0.34 2.47,-0.69 2.94,-1.26 1,0.23 0.74,-0.14 0.64,0.43 1.71,-0.14 0.47,-0.3 -0.07,-0.62 0.47,-0.46 4.15,-2.47 2.94,-1.28 0.83,-0.19 0.85,0.62 0.03,-0.28 0.57,-0.52 0.1,-0.44 1.9,-1.67 2.34,-1.58 4.1,-2.26 6.95,-1.78 4.84,-0.73 2.47,-0.62 1.09,0.14 5.02,-1.28 0,0 -1.2,-2.43 -1.22,-1.46 -1.22,-3.42 -1.71,-3.42 -1.95,-2.44 -1.47,-3.18 -3.66,-0.24 -0.98,-1.47 -1.95,-0.98 -3.42,-0.98 -4.64,-2.44 -5.62,-1.71 -5.13,-0.49 -0.24,-2.2 1.96,-0.49 -0.24,-5.13 -4.15,-1.47 -2.44,-0.49 -1.47,-1.95 0.25,-2.44 2.2,-10.26 0.73,-6.35 1.96,-3.18 1.95,-1.71 0.98,-3.18 -1.47,-2.44 -1.95,-2.2 -2.69,-1.95 1.47,-5.62 2.2,-4.15 1.47,-3.42 -0.24,-4.4 2.93,-4.4 -2.2,-1.47 -0.24,-2.93 1.71,-2.69 2.2,-2.44 3.67,-2.44 5.37,-1.47 4.89,-0.24 3.42,-1.71 2.69,-2.2 1.95,-2.2 0.24,-4.15 4.15,-3.42 4.89,-3.18 5.13,-3.66 4.15,-2.2 4.15,-1.95 2.93,-0.24 0.73,-2.93 0.98,-1.71 2.44,-3.18 3.42,-2.69 2.93,-3.42 0.73,-2.93 1.95,-2.93 3.18,-5.619996 4.15,-10.26 3.18,-7.08 1.47,-7.33 1.95,-19.05 1.22,-4.64 2.2,-3.42 1.95,-4.15 3.42,-5.13 2.2,-6.11 2.44,-4.64 2.2,-3.66 3.42,-4.4 2.93,-3.18 1.95,-3.42 5.37,-6.1100004 2.14,-4.91 0,0 -74.35,14.7300004 -104.56,11.4 -57.98,28.33 z" 
                fill="rgb(151, 144, 238)" 
                stroke="white" 
                stroke-width=".7px"
                title="Ḩaḑramawt" 
                id="YE-HD" 
            />
        </svg>