<svg xmlns="http://www.w3.org/2000/svg" viewBox="73.26299999999999 78.17684999999996 8.619000000000028 17.52233000000001" width="8.619000000000028" height="17.52233000000001">
            <path 
                d="m 81.211,80.14721 -0.116,0.18395 -0.178,0.37996 -0.008,0.29653 0.424,0.62523 0.049,0.0633 0.109,0.0975 0.059,0.1166 0.051,0.30759 0.029,0.34679 0.034,0.2332 0.205,0.3277 0.013,0.13168 -0.142,0.48952 -0.034,0.0522 -0.037,0.0131 -0.22,-0.0423 -0.094,0.0532 -0.12,0.16585 -0.073,0.16587 -0.004,0.0693 0.195,0.30759 -0.123,0.44329 -0.126,0.27643 -0.226,0.15782 -0.202,0.0371 -0.141,0.0744 -0.082,0.0975 0.012,0.31663 -0.298,0.28849 -0.165,0.20204 -0.08,0.12164 0.034,0.37192 -0.106,0.37593 -0.184,0.29654 -0.412,0.0643 -0.346,0.0362 -0.118,0.75489 0.006,0.47748 -0.032,0.48752 -0.057,0.19902 0.024,0.27944 -0.026,0.63227 -0.046,0.49757 0.061,0.13369 0.035,0.29251 -0.002,0.30257 0.088,0.21008 0.096,0.18395 -0.003,0.0945 -0.051,0.0593 -0.043,0.0774 0,0.71168 0.018,0.21311 -0.026,0.13469 -0.074,0.11258 0.029,0.35986 0.06,0.22919 0.06,0.16887 -0.058,0.14073 -0.051,0.18596 -0.077,0.47444 -0.005,0.16486 -1.177,0.11559 -1.316,0.18999 -0.549,0.12364 -0.032,-0.0955 0.468,-0.12364 -0.097,-0.37091 -0.292,-0.43827 -0.114,-0.0804 -0.059,-0.21813 0.071,-0.14274 -0.034,-0.0965 -0.024,-0.29552 -0.144,-0.32669 0.263,-0.0131 0,-1.05042 0,-1.00922 0,-0.86045 0,-0.68152 -0.051,-0.81721 -0.007,-0.60011 -0.011,-0.79208 -0.095,-0.24729 -0.398,-0.41916 -0.109,-0.21712 -0.019,-0.28849 -0.089,-0.29654 -0.005,-0.51968 -0.007,-0.60513 -0.036,-0.0975 -0.432,-0.28849 -0.611,-0.40912 -0.466,-0.31161 -0.034,-0.0232 -0.047,-0.0764 0.068,-0.92277 0.096,-0.12062 0.149,-0.37996 0.072,-0.30759 0.067,0.001 0.094,-0.0995 0.076,-0.14677 0.081,0.0322 0.136,0.0282 0.062,-0.0522 -0.008,-0.11358 0.045,-0.11459 0.107,-0.0522 0.028,-0.10253 0,-0.11862 0.092,-0.0312 0.158,0.005 0.128,-0.0372 0.103,-0.0603 0.134,-0.23923 0.075,-0.0834 0.023,-0.0593 0.076,-0.0522 0.209,-0.0242 0.169,0.0181 0.108,0.13871 0.723,-0.12162 0.344,0.0714 0.703,-0.60311 0.159,-0.17793 0.213,-0.4262 0.073,-0.16284 0.066,-0.29352 -0.139,-0.5418 0.008,-0.0965 0.29,-0.11661 0.362,-0.0905 0.14,-0.007 0.093,-0.0462 0.132,-0.11761 0.215,-0.0854 0.127,0.0282 0.078,0.0171 0.762,0.7167 0.331,0.36188 0.088,0.18495 0.171,0.13369 0.252,0.0824 0.23,0.18395 z" 
                fill="rgb(151, 144, 238)" 
                stroke="white" 
                stroke-width=".7px"
                title="Benin" 
                id="BJ" 
            />
        </svg>