<svg xmlns="http://www.w3.org/2000/svg" viewBox="55.619000000000014 70.40136000000001 22.206999999999994 16.22166999999996" width="22.206999999999994" height="16.22166999999996">
            <path 
                d="m 71.731,70.88436 -0.039,0.13469 -0.002,0.23823 -0.05,0.37695 -0.06,0.45133 0.244,0.29151 0.292,0.31361 0.078,0.12164 -0.078,0.30859 0.055,0.18093 0.154,0.30156 0.262,0.38298 0.269,0.39303 0.186,0.0512 0.177,0.0322 0.108,0.0704 0.157,0.0683 0.157,0.0442 0.136,0.0865 0.087,0.0844 0.113,0.24225 0.303,0.15983 0.212,0.15781 -0.085,0.0804 -0.264,-0.0322 -0.248,-0.0693 -0.033,0.1166 -0.01,0.4443 0.039,0.36891 0.058,0.0492 0.25,0.0683 0.595,0.47947 0.538,0.45435 0.181,0.11761 0.297,0.0442 0.334,0.0191 0.143,-0.0422 0.323,-0.22817 0.172,-0.0252 0.159,0.006 0.086,0.0362 0.155,0.18696 0.145,0.28145 0.041,0.20808 -0.013,0.11158 -0.049,0.0422 -0.265,0.0532 -0.115,0.0422 -0.028,0.0603 0.041,0.13972 0.051,0.0905 0.289,0.40509 0.418,0.54683 0.129,0.13972 -0.073,0.16284 -0.213,0.4262 -0.159,0.17793 -0.703,0.60311 -0.344,-0.0714 -0.723,0.12162 -0.108,-0.13871 -0.169,-0.0181 -0.209,0.0242 -0.076,0.0522 -0.023,0.0593 -0.075,0.0834 -0.134,0.23923 -0.103,0.0603 -0.128,0.0372 -0.158,-0.005 -0.092,0.0312 0,0.11862 -0.028,0.10253 -0.107,0.0522 -0.045,0.11459 0.008,0.11358 -0.062,0.0522 -0.136,-0.0282 -0.081,-0.0322 -0.076,0.14677 -0.094,0.0995 -0.067,-0.001 -0.723,0.0292 -0.263,0.0784 -0.158,0.002 -0.006,-0.0663 -0.019,-0.0392 -0.912,-0.22215 -0.639,-0.13168 -0.648,-0.14575 -0.037,0.1367 -0.093,0.0885 -0.14,0.006 -0.097,-0.0211 -0.065,0.10554 -0.108,0.13972 -0.15,0.0673 -0.147,0.0864 -0.083,0.0754 -0.06,0.001 -0.148,-0.17691 -0.197,-0.0181 -0.368,0.0292 -0.166,-0.0482 -0.226,-0.0231 -0.534,0.0362 -0.853,-0.0724 -0.14,0.0392 -0.037,0.0322 -0.845,0.008 -0.929,0.009 -0.778,0.008 -0.681,0.007 -0.001,-0.0302 -0.219,-0.004 -0.024,0.0593 -0.193,0.71168 -0.021,0.387 0.103,0.24024 0.115,0.15279 0.129,0.0633 0.013,0.0864 -0.104,0.11158 0.009,0.11359 0.122,0.11761 0.03,0.12464 -0.062,0.12967 0.015,0.31161 0.09,0.49355 0.003,0.31965 -0.086,0.14575 0.041,0.25029 0.167,0.35283 0.03,0.14877 -0.06,0.0694 -0.139,0.0915 -0.141,-0.003 -0.164,-0.2131 -0.072,-0.0955 -0.132,-0.21713 -0.113,-0.21712 -0.152,-0.0955 -0.15,-0.0885 -0.182,-0.27642 -0.176,-0.13168 -0.186,0.0371 -0.271,-0.0512 -0.547,-0.0683 -0.588,0.0201 -0.244,0.0633 -0.241,0.10051 -0.611,0.22215 -0.241,0.10856 -0.183,0.27743 -0.208,-0.006 -0.207,-0.0885 -0.13,-0.12565 -0.279,0.0272 -0.269,-0.12163 -0.26,-0.24024 -0.192,-0.0794 -0.245,-0.17391 -0.067,-0.33171 -0.155,-0.2322 -0.142,-0.32367 -0.212,-0.14474 -0.244,-0.0774 -0.337,0.0161 -0.221,-0.12968 -0.175,-0.18897 0.046,-0.16385 0.079,-0.2332 0.009,-0.22416 0.052,-0.36388 -0.032,-0.45535 -0.061,-0.31764 0.186,-0.13269 0.215,-0.11861 0.134,-0.21612 0.139,-0.4855 0.058,-0.41917 -0.043,-0.15581 -0.071,-0.12364 -0.057,-0.18092 -0.033,-0.22115 0.039,-0.193 0.163,-0.17892 0.204,-0.14877 0.145,-0.0724 0.384,-0.0744 0.48,-0.11057 0.277,-0.12665 0.202,-0.12566 0.113,-0.10051 0.115,-0.20405 0.186,-0.15883 0.144,-0.16083 0.02,-0.4453 -0.001,-0.25431 -0.107,-0.14073 -0.058,-0.11962 0.711,-0.3498 0.005,-0.24628 -0.099,-0.27542 -0.139,-0.22215 -0.052,-0.19098 0.197,-0.22617 0.175,-0.16988 0.127,-0.14375 0.28,-0.21912 0.292,-0.0573 0.263,0.0824 0.779,0.51668 0.135,0.0332 0.162,-0.0391 0.206,-0.13672 0.266,-0.10654 0.098,-0.34579 -0.009,-0.50863 0.061,-0.23321 0.14,-0.0422 0.448,0.0975 0.117,0.005 0.13,-0.0322 0.095,-0.0895 -0.004,-0.16485 -0.021,-0.14576 0.146,-0.47244 0.267,-0.35584 0.539,-0.44429 0.168,-0.0895 0.195,-0.0452 0.966,0.30559 0.157,-0.0754 0.236,-0.75791 0.262,-0.0724 0.314,-0.0131 0.204,-0.0653 0.106,-0.0522 0.46,-0.28849 0.81,-0.39203 0.436,-0.16887 0.085,-0.0633 0.312,-0.27844 0.414,-0.31964 0.264,-0.0643 0.365,-0.0231 0.23,0.0522 0.062,0.0905 0.076,0.0462 0.476,-0.1357 0.682,0.21611 z" 
                fill="rgb(151, 144, 238)" 
                stroke="white" 
                stroke-width=".7px"
                title="Burkina Faso" 
                id="BF" 
            />
        </svg>