<svg xmlns="http://www.w3.org/2000/svg" viewBox="152.54799999999997 119.63797000000002 5.044000000000011 6.015059999999991" width="5.044000000000011" height="6.015059999999991">
            <path 
                d="m 156.869,119.88248 -0.056,0.0734 -0.257,0.52471 -0.05,0.0794 0.028,0.0482 0.11,0.0995 -0.065,0.16585 -0.025,0.0443 -0.049,0.15379 0.027,0.14173 0.062,0.0522 0.167,0.0683 0.25,0.0492 0.295,0.11861 0.199,0.0211 0.047,0.0855 -0.009,0.15179 0.048,0.13168 0.001,0.23621 -0.059,0.20808 -0.304,0.0975 -0.157,0.10655 -0.042,0.0542 0.038,0.0623 0.02,0.0834 -0.286,0.20807 -0.294,0.2704 -0.07,0.18194 -0.059,0.21612 -0.086,0.13771 -0.224,0.19903 -0.229,0.40007 -0.112,0.25933 -0.561,0.62323 -0.499,0.31161 -0.145,0.10554 -0.883,-0.0181 -0.067,-0.42016 -0.134,-0.57397 -0.304,-0.51767 -0.032,-0.21712 0.014,-0.41816 0.001,-0.58703 -0.02,-0.31564 0.007,-0.23019 0.038,-0.40006 -0.005,-0.23924 -0.199,-0.27543 -0.248,-0.29351 -0.136,-0.14374 -0.007,-0.1156 0.001,-0.10756 0.04,-0.1558 0.097,-0.1739 0.109,-0.0191 0.268,0.0694 0.279,0.14775 0.148,0.33272 0.114,0.0472 0.206,-0.001 0.527,-0.0432 0.131,0.005 0.239,-0.0794 0.238,-0.13973 0.069,-0.14475 0.055,-0.32668 0.05,-0.58603 0.122,-0.006 0.332,0.20807 0.072,0.0141 0.069,-0.007 0.116,-0.10353 0.141,-0.0845 0.105,0.002 0.386,-0.0975 0.207,0.17691 0.13,0.0553 z" 
                fill="rgb(151, 144, 238)" 
                stroke="white" 
                stroke-width=".7px"
                title="Burundi" 
                id="BI" 
            />
        </svg>