<svg xmlns="http://www.w3.org/2000/svg" viewBox="140.44999999999985 19.49892000000003 34.14999999999995 30.43020999999997" width="34.14999999999995" height="30.43020999999997">
            <path 
                d="m 167.097,20.59355 0.041,0.0995 0.092,0.27542 0.233,0.69962 0.204,0.54682 0.249,0.75591 0.078,0.28949 0.033,0.20004 0.362,0.82828 0.215,0.6785 0.157,0.55085 0.222,0.80214 0.096,0.27944 -0.157,0.14575 -0.314,0.51969 -0.335,1.64551 -0.479,1.2796 -0.054,0.79913 -0.077,0.28749 -0.228,0.40409 -0.276,0.39504 -0.491,-0.20406 -0.8,-0.69559 -0.466,-0.66142 -0.5,-0.42821 -0.472,-0.56794 -0.129,-0.40911 0.005,-0.26336 -0.206,-0.64232 -0.153,-0.30457 -0.576,-0.68453 -0.165,-0.3659 -0.126,-0.16183 -0.127,-0.2312 -0.209,-0.89362 -0.228,-0.56893 -0.26,0.15781 0.046,0.23923 -0.227,0.33072 -0.137,0.38297 0.105,0.31262 0.471,0.47545 0.095,0.20809 0.11,0.44931 -0.018,0.61016 0.076,0.20606 0.353,0.45234 0.126,0.26838 0.076,0.23119 0.117,0.20908 0.35,0.39203 0.503,0.74585 0.477,0.5026 0.345,0.24225 0.146,0.24226 0.033,0.62422 -0.026,0.29754 0.303,0.55989 0.112,0.28246 0.292,0.23019 0.134,0.26235 0.123,0.42721 0.185,1.2595 0.254,0.30861 0.785,1.6475 0.662,1.03837 0.32,0.774 0.489,0.93884 0.957,2.05462 0.569,0.63127 0.227,0.35483 0.412,0.2724 0.446,0.39404 -0.425,-0.0383 -0.108,0.0232 -0.149,0.0673 -0.071,0.23923 -0.031,0.19501 0.052,1.03033 0.117,0.5247 0.374,0.99012 0.279,0.29653 0.136,0.19199 0.19,0.13972 0.887,0.33775 0.519,0.71167 1.166,0.89864 0.114,0.24829 0.003,0.0573 -0.921,0.001 -0.921,0 -0.921,0 -0.921,0 -0.92,0 -0.922,10e-4 -0.92,0 -0.921,0 -0.921,0 -0.921,0 -0.921,0 -0.92,0 -0.921,9.9e-4 -0.921,0 -0.921,0 -0.921,0 -0.525,0 0.09,-0.26939 0.055,-0.18998 -0.062,-0.13269 -0.179,-0.0332 -0.117,0.0423 -0.275,0.56391 -0.144,0.0222 -0.327,0 -1.072,0 -1.073,0 -1.072,0 -1.072,-10e-4 -1.072,0 -1.072,0 -1.072,0 -1.072,0 -1.072,-0.001 -1.073,0 -1.072,0 -1.072,0 -1.072,0 -1.072,0 -1.073,-10e-4 -1.072,0 0,-0.67951 0,-0.68152 0,-0.68253 0,-0.68252 0,-0.68454 0,-0.68554 0,-0.68655 0,-0.68755 0,-0.68956 0,-0.68956 0,-0.69158 0,-0.69358 0,-0.69358 0,-0.6956 0,-0.6966 0,-0.6976 0,-0.69961 0,-0.70063 0,-0.70162 0,-0.70262 0,-0.70565 0,-0.70565 0,-0.70766 0,-0.70865 0,-0.71067 0,-0.71168 0,-0.71369 0,-0.71469 0,-0.7167 0,-0.71772 0,-0.71971 0,-0.72073 -0.024,-0.13469 -0.156,-0.49154 -0.141,-0.62523 -0.154,-0.76998 -0.02,-0.25029 -0.258,-0.79611 -0.024,-0.22617 0.065,-0.16083 0.424,-0.67248 0.128,-0.32769 0.107,-0.39303 0.036,-0.31965 -0.125,-0.49054 -0.146,-0.44128 -0.049,-0.45233 -0.021,-0.4453 0.217,-0.30458 0.26,-0.28547 0.097,-0.1749 0.154,-0.19702 0.108,-0.0925 0.211,0.40007 0.44,0.0683 1.434,-0.35583 1.583,0.35884 0.873,0.13672 1.346,0.30456 0.819,0.54281 0.225,0.0683 0.589,-0.0111 0.386,0.32065 1.536,0.1538 0.82,0.35282 0.465,0.28146 0.279,0.0865 0.247,-0.0141 0.333,-0.10554 0.421,-0.19802 0.457,-0.27542 0.949,-0.70866 0.336,-0.12465 0.219,0.0332 0.267,-0.0101 0.111,-0.19199 0.141,-0.13168 0.088,-0.14977 0.144,-0.18094 0.494,-0.0502 0.989,-0.3096 -0.111,0.14676 -0.901,0.34679 0.386,0.0432 0.395,-0.11861 0.451,-0.0754 0.082,-0.14776 0.059,-0.27643 0.086,-0.0391 0.312,0.0522 0.927,0.4262 0.231,0.008 0.653,-0.2322 0.139,-0.0492 0.212,0.12866 0.482,0.52974 -0.168,-0.0111 -0.516,-0.45434 -0.046,0.22717 -0.294,0.39805 0.367,0.17189 0.299,0.0643 0.16,0.22214 0.101,0.19702 0.295,-0.0865 0.211,-0.2684 -0.11,-0.14976 -0.074,-0.1548 0.096,-0.004 0.205,0.12767 0.587,0.50963 0.198,0.10554 0.228,-0.0181 0.477,-0.14274 0.133,0.0221 0.64,-0.18797 0.075,0.13772 0.106,0.1367 0.516,-0.15279 0.809,0.002 0.663,-0.16585 0.768,-0.40409 z" 
                fill="rgb(151, 144, 238)" 
                stroke="white" 
                stroke-width=".7px"
                title="Egypt" 
                id="EG" 
            />
        </svg>