<svg xmlns="http://www.w3.org/2000/svg" viewBox="95.54600000000002 106.70246000000003 16.214 17.436200000000028" width="16.214" height="17.436200000000028">
            <path 
                d="m 108.429,107.09643 -0.014,0.19601 -0.223,0.48048 -0.104,0.36992 -0.026,0.39303 0.061,0.31764 0.107,0.22517 0.069,0.24627 -0.053,0.17189 -0.108,0.0734 0.074,0.0865 0.162,0.0201 0.276,-0.0744 0.424,-0.13168 0.555,-0.18998 0.365,-0.10153 0.603,0.0643 0.322,0.0724 0.165,0.13268 0.178,0.56492 0.088,0.0865 0.146,0.24024 0.122,0.28848 0.026,0.14677 -0.014,0.10554 -0.122,0.15581 -0.138,0.23019 -0.049,0.13871 -0.115,0.10354 -0.146,0.10153 -0.403,0.0412 -0.062,0.0603 -0.112,0.24426 -0.213,0.20707 -0.097,0.19601 -0.085,0.26135 0.017,0.32267 -0.043,0.4654 -0.043,0.31564 0.106,0.11056 0.482,0.0764 0.093,0.0623 0.128,0.19501 0.164,0.18394 0.44,0.11561 0.171,0.13972 0.139,0.1538 0.018,0.12564 -0.1,0.50561 -0.096,0.48551 0.038,0.36992 0.035,0.35282 0.053,0.51365 -0.023,0.31362 -0.125,0.19199 0,0.14977 0.057,0.18094 -0.11,0.50059 -0.071,0.0844 -0.197,0.0935 -0.104,0.1347 -0.033,0.21109 -0.106,0.2895 -0.11,0.10554 0,0.1347 0.106,0.0975 -0.002,0.15078 -0.197,0.17893 -0.118,0.1367 -0.263,0.0673 -0.3,-0.0714 -0.07,-0.0995 0.072,-0.1548 -0.026,-0.12464 -0.103,-0.13068 -0.161,-0.33573 -0.142,-0.0714 -0.079,0.13771 -0.244,0.25532 -0.431,0.3277 -0.302,0.0262 -0.558,-0.0995 -0.467,-0.1568 -0.221,-0.38399 -0.137,-0.31764 -0.2,-0.36789 -0.224,-0.17491 -0.239,-0.11258 -0.106,-0.007 -0.342,0.20506 -0.103,0.0814 0.001,0.17189 0.032,0.16083 0.053,0.0774 0.044,0.10354 -0.008,0.15982 -0.061,0.21411 -0.021,0.23622 -1.072,0.2322 -0.185,-0.0834 -0.135,-0.10656 -0.162,0.0191 -0.466,0.12062 -0.171,-0.0844 -0.169,-0.0613 -0.078,0.0512 -0.006,0.10051 0.079,0.55689 -0.026,0.21209 -0.104,0.27743 -0.055,0.18798 0.285,0.0522 0.102,0.0875 0.1,0.13972 0.137,0.13067 0.009,0.0794 -0.155,0.14575 -0.053,0.17892 0.074,0.13973 0.193,0.14675 0.283,0.15178 0.138,0.0995 -0.014,0.0915 -0.131,0.19299 -0.05,0.16485 -0.09,0.14776 0.019,0.13672 0.127,0.12765 -0.013,0.11359 -0.087,0.0865 -0.176,-0.0181 -0.149,0.0121 -0.133,-0.0351 -0.418,-0.44128 -0.092,-0.0131 -0.606,0.33976 -0.151,0.13872 -0.125,0.20104 -0.168,0.43324 -0.275,-0.25231 -0.238,-0.46138 -0.277,-0.28447 -0.583,-0.45736 -0.156,-0.33775 -0.667,-0.74284 -0.958,-0.74284 -0.693,-0.64433 -0.105,-0.14273 0.117,0.0171 0.669,0.32166 0.091,-0.0361 0.077,-0.0724 -0.288,-0.16887 -0.276,-0.13269 -0.259,-0.0824 -0.259,0.007 -0.145,-0.1357 -0.094,-0.20707 -0.048,-0.17691 -0.115,-0.18596 -0.367,-0.38198 -0.089,-0.14777 -0.201,-0.20103 0.122,-0.0272 0.394,0.193 0.035,-0.0774 -0.034,-0.11259 -0.396,-0.18294 -0.214,-0.0121 -0.05,-0.12867 0.029,-0.14877 -0.283,-0.55587 -0.294,-0.41715 -0.046,-0.19702 0.793,0.90668 0.106,0.0151 0.14,-0.008 0.328,-0.10151 -0.063,-0.12164 -0.148,-0.12966 -0.143,0.0603 -0.187,0.0121 -0.098,-0.0542 -0.044,-0.0935 0.187,-0.44027 -0.081,0.0231 -0.059,0.0774 -0.103,0.0383 -0.158,0.0221 -0.391,-0.23521 -0.344,-0.63529 -0.091,-0.13067 -0.092,-0.22114 -0.091,-0.0915 -0.396,-0.90368 0.151,0.0673 0.181,0.26135 0.351,-0.0553 0.137,-0.15078 0.119,0.005 0.123,-0.0342 0.154,-0.14273 0.45,-0.62323 0.119,-0.82023 -0.039,-0.48752 -0.066,-0.4845 0.149,-0.1548 0.059,0.10252 0.029,0.17189 0.07,0.12767 0.16,0.11358 0.298,0.0302 0.46,0.17994 0.164,0.11358 0.045,-0.22817 0.53,-0.19401 -0.161,-0.0694 -0.47,0.0764 -0.646,-0.29051 -0.215,-0.18395 -0.2,-0.35081 -0.207,-0.18294 0.014,-0.16385 0.464,-0.15178 0.123,0.0171 0.049,0.18093 0.125,0.0744 0.047,-0.0252 0.021,-0.1538 0.001,-0.41414 -0.141,-0.59407 0.043,-0.11459 0.127,-0.0412 0.113,-0.0784 0.079,-0.0141 0.157,0.0141 0.079,0.13771 0.043,0.0754 0.159,0.0351 0.13,0.0734 0.112,-0.0201 0.093,-0.0855 0.136,-0.0181 0.423,0.002 0.383,0.001 0.762,0.002 0.763,0.003 0.763,0.002 0.574,0.002 -0.002,-0.33875 -0.003,-0.52371 -0.003,-0.6192 -0.004,-0.59407 -0.003,-0.54883 -0.003,-0.64835 0.031,-0.18697 0.038,-0.0764 -0.014,-0.10755 0.591,-0.007 1.068,0.0472 0.467,-0.006 0.133,0.009 0.584,-0.0332 0.472,0.0412 0.201,0.0452 0.181,0.0232 0.566,0.0282 0.739,-0.0352 0.251,0.008 0.139,0.0905 z" 
                fill="rgb(151, 144, 238)" 
                stroke="white" 
                stroke-width=".7px"
                title="Gabon" 
                id="GA" 
            />
        </svg>