<svg xmlns="http://www.w3.org/2000/svg" viewBox="167.23000000000005 13.580359999999995 4.680999999999955 13.019240000000007" width="4.680999999999955" height="13.019240000000007">
            <path 
                d="m 171.557,15.91638 -0.148,0.0201 -0.346,0.15581 -0.047,0.0472 -0.061,0.0905 -0.011,0.0694 -0.049,0.74787 -0.188,-0.0211 -0.229,-0.16284 -0.045,-0.14073 -0.069,-0.0482 -0.164,-0.0181 -0.31,-0.0714 -0.36,0.24627 -0.153,0.40609 -0.031,0.18999 -0.122,0.39805 0.043,0.24527 0.021,0.31664 0.031,0.25833 -0.032,0.1558 -0.069,0.0824 0.02,0.0593 0.062,0.0221 0.197,-0.0703 0.207,0.0703 0.199,0.13369 0.016,0.0865 -0.141,0.0512 -0.333,0.20205 -0.235,0.23421 -0.061,0.21612 -0.159,0.46037 0.022,0.0945 0.077,0.0553 0.542,-0.0492 0.493,-0.18596 0.371,-0.19802 0.117,0.0121 -0.078,0.50662 0.002,0.002 -0.064,0.3096 0.025,0.0522 0.084,0.26939 -0.159,0.49154 -0.176,0.40007 -0.062,0.18898 -0.172,0.42117 -0.176,0.48751 -0.094,0.33574 0.021,0.11862 -0.043,0.61416 0.025,0.17391 -0.206,0.53174 -0.041,0.26236 -0.083,0.35483 -0.142,0.74988 -0.194,0.25129 -0.096,-0.27944 -0.222,-0.80214 -0.157,-0.55085 -0.215,-0.6785 -0.362,-0.82828 -0.033,-0.20004 -0.078,-0.28949 -0.249,-0.75591 -0.204,-0.54682 -0.233,-0.69962 0.289,-0.27743 0.005,-0.22918 0.492,-0.53678 -0.004,-0.0522 -0.131,-0.14274 0.019,-0.0241 0.545,-1.00218 0.352,-0.99514 0.331,-1.39018 0.236,-0.70866 0.2,-0.47043 0.088,-0.39001 0.322,-0.0272 0.24,0.0412 0.288,0.0131 0.23,-0.14675 0.11,-0.43927 0.131,-0.0714 0.067,0.10454 0.068,-0.1156 0.301,-0.194 0.149,-0.12464 0.149,-0.1538 0.08,-0.0553 -0.05,0.20606 -0.04,0.1347 0,0.1759 0.061,0.0965 0.083,0.19099 0.051,0.19098 -0.108,0.15782 0.01,0.16485 0.029,0.13872 0.088,0.16184 -0.158,0.2915 -0.156,0.26738 z" 
                fill="rgb(151, 144, 238)" 
                stroke="white" 
                stroke-width=".7px"
                title="Israel" 
                id="IL" 
            />
        </svg>