<svg xmlns="http://www.w3.org/2000/svg" viewBox="169.20999999999998 13.781389999999988 12.184999999999889 13.74090000000001" width="12.184999999999889" height="13.74090000000001">
            <path 
                d="m 180.982,17.94688 -0.416,0.387 -0.098,0.0422 -0.541,0.15983 -1.106,0.32769 -0.741,0.21913 -0.948,0.27945 -0.787,0.2332 -0.779,0.22918 -0.722,0.21311 0.412,0.44831 0.629,0.68453 0.42,0.45536 0.495,0.58502 0.442,0.5217 0.469,0.55184 -0.329,0.18697 -0.542,0.30759 -0.055,0.0563 -0.047,0.0573 -0.224,0.54783 -0.176,0.43122 -0.061,0.0532 -0.756,0.15882 -0.765,0.15882 -0.482,0.10152 -0.145,0.11058 -0.314,0.53577 -0.325,0.55085 -0.542,0.45032 -0.602,0.49857 -0.149,0.0322 -0.435,-0.0764 -0.744,-0.13068 -0.719,-0.12665 -0.492,-0.0855 -0.597,-0.10554 0.087,-0.42118 -0.024,-0.22817 0.142,-0.74988 0.083,-0.35483 0.041,-0.26236 0.206,-0.53174 -0.025,-0.17391 0.043,-0.61416 -0.021,-0.11862 0.094,-0.33574 0.176,-0.48751 0.172,-0.42117 0.062,-0.18898 0.176,-0.40007 0.159,-0.49154 -0.084,-0.26939 -0.025,-0.0522 0.064,-0.3096 -0.002,-0.002 0.078,-0.50662 0.042,-0.27341 0.095,-0.36287 0.168,-0.3076 -0.078,-0.72474 0.009,-0.39202 0.105,-0.44631 -0.058,-0.5237 0.049,-0.74787 0.011,-0.0694 0.061,-0.0905 0.047,-0.0472 0.346,-0.15581 0.148,-0.0201 0.302,0.0704 0.173,0.15681 0.289,0.44328 0.45,0.12867 0.181,0.12565 0.246,0.23421 0.301,0.0855 0.952,0.14575 0.759,-0.49254 0.642,-0.41715 0.729,-0.47446 0.496,-0.32367 0.846,-0.55185 0.558,-0.3488 0.733,-0.46138 0.724,-0.45535 0.201,0.74283 0.196,0.72474 0.203,0.74787 0.198,0.72474 -0.214,0.0694 0.168,0.55386 0.277,-0.0844 0.301,-0.0653 0.127,0.35584 z" 
                fill="rgb(151, 144, 238)" 
                stroke="white" 
                stroke-width=".7px"
                title="Jordan" 
                id="JO" 
            />
        </svg>