<svg xmlns="http://www.w3.org/2000/svg" viewBox="147.04099999999994 196.83595000000003 6.563999999999936 6.653299999999973" width="6.563999999999936" height="6.653299999999973">
            <path 
                d="m 151.77,201.73133 -0.252,0.0804 -0.035,0.006 -0.163,-0.0181 -0.216,0.0191 -0.169,0.0442 -0.132,0.0171 -0.215,0.23018 -0.392,0.62121 -0.104,0.13068 -0.028,0.24527 -0.091,0.194 -0.112,0.15078 -0.108,0.0371 -0.326,-0.0603 -0.418,-0.0774 -0.243,-0.18797 -0.216,-0.24728 -0.113,-0.17993 -0.12,-0.0985 -0.041,-0.0553 -0.169,-0.0824 -0.064,-0.0432 -0.057,-0.0312 -0.068,-0.11861 -0.041,-0.10354 0.016,-0.28849 -0.12,-0.17189 -0.205,-0.2925 -0.129,-0.24025 -0.177,-0.32769 -0.109,-0.27945 -0.112,-0.2895 0.015,-0.12464 0.107,-0.0845 0.315,-0.14575 0.244,-0.11257 0.175,-0.20608 0.191,-0.30758 0.093,-0.18395 0.093,-0.0844 0.101,-0.12967 0.177,-0.28849 0.197,-0.31965 0.211,-0.34277 0.266,-0.0995 0.363,-0.11459 0.35,-0.29954 0.416,-0.2513 0.671,-0.27342 0.313,-0.0693 0.12,-0.0402 0.075,0.0522 0.08,0.15581 0.114,0.13168 0.265,0.22716 0.112,0.0553 0.274,0.33775 0.292,0.2312 0.337,0.26737 0.229,0.13269 0.118,0.0371 0.096,0.23723 0.099,0.17591 0.055,0.16485 -0.011,0.16083 -0.106,0.39404 -0.155,0.40308 -0.125,0.16686 -0.152,0.10655 -0.148,0.15983 -0.057,0.32367 -0.067,0.38097 -0.194,0.15681 -0.15,0.10353 -0.209,0.12666 z" 
                fill="rgb(151, 144, 238)" 
                stroke="white" 
                stroke-width=".7px"
                title="Lesotho" 
                id="LS" 
            />
        </svg>