<svg xmlns="http://www.w3.org/2000/svg" viewBox="155.94100000000017 142.6424500000001 29.815000000000055 48.740319999999855" width="29.815000000000055" height="48.740319999999855">
            <path 
                d="m 163.415,191.34467 -0.308,0.005 -0.527,0.0151 -0.312,0.009 -0.349,0.009 -0.432,-0.0885 -0.243,0.0191 -0.02,-1.00419 -0.079,-0.22014 -0.083,-0.32166 -0.02,-0.20606 0.052,-0.20707 0.025,-0.3277 -0.023,-0.28748 -0.258,-0.14374 -0.057,-0.0452 -0.056,-0.22517 -0.022,-0.34779 0.181,-0.44128 -0.015,-0.84738 0.021,-0.29754 -0.003,-0.58804 -0.004,-0.71067 -0.003,-0.63629 0.007,-0.54783 -0.054,-0.25933 -0.045,-0.14275 -0.12,-0.28949 -0.14,-0.60211 -0.165,-0.45435 -0.212,-0.29954 -0.067,-0.15782 -0.068,-0.21009 -0.201,-0.37192 -0.164,-0.21612 -0.045,-0.17289 0.006,-0.44731 -0.183,-0.80113 -0.133,-0.58302 -0.2,-0.63126 -0.134,-0.42117 -0.02,-0.0724 -0.015,-0.15982 0.398,-0.31262 0.398,-0.44028 0.466,-0.51465 0.416,-0.45938 0.366,-0.40308 0.501,-0.55085 0.495,-0.54381 0.116,-0.0694 0.049,-0.0442 -0.214,-0.4825 0.344,-0.55988 0.019,-0.36388 -0.015,-0.3478 0.042,-0.15983 0.104,-0.13972 0.402,-0.2905 0.304,-0.46239 0.249,-0.43224 0.346,-0.69358 0.034,-0.16384 0.005,-0.16787 -0.094,-0.23622 -0.23,-0.37896 -0.167,-0.32769 -0.149,-0.5036 0.15,-0.43726 0.053,-0.26437 0,-0.14273 -0.066,-0.1347 -0.168,-0.10253 -0.14,-0.0663 -0.047,-0.18094 -0.001,-0.2141 0.063,-0.11862 0.372,-0.19199 0.084,-0.10454 0.044,-0.1166 0.004,-0.16586 0.115,-0.41514 0.142,-0.39404 0.01,-0.13872 -0.05,-0.12162 -0.039,-0.22215 -0.025,-0.33473 -0.002,-0.93583 0.073,-0.96399 -0.032,-0.54581 -0.238,-0.62724 -0.023,-0.45234 0.173,-0.31563 0.028,-0.18596 -0.126,-0.0242 -0.26,-0.0191 -0.192,-0.0583 -0.297,-0.25833 -0.516,-0.21512 -0.586,-0.196 -0.852,-0.0583 -0.708,-0.62724 -0.555,-0.10052 -0.179,-0.0804 -0.533,-0.37595 -0.835,-0.0351 -0.866,-0.0372 -0.54,-0.0111 -0.08,-0.0502 -0.031,-0.51767 -0.006,-0.45937 -0.046,-0.39907 -0.082,-0.45434 -0.126,-0.17691 -0.15,-0.30659 -0.076,-0.33774 -0.009,-0.16385 0.028,-0.0583 0.601,-0.24024 0.257,-0.11861 0.381,-0.13771 0.678,-0.18999 0.605,-0.16988 0.555,-0.16485 0.588,-0.1749 0.239,-0.11761 0.297,-0.11761 0.711,-0.23622 0.203,-0.0814 0.408,-0.13168 0.205,-0.0512 0.787,-0.2704 0.902,-0.3096 0.316,-0.10856 0.603,-0.20707 0.117,0.0855 0.411,0.71168 0.323,0.41917 0.368,0.388 0.062,-0.0191 0.106,-0.0905 0.184,-0.0371 0.585,-0.0875 0.223,-0.005 0.147,-0.10454 0.3,-0.0734 0.347,-0.0442 0.119,0.0472 0.366,0.50259 0.053,0.38399 0.076,0.55587 0.018,0.27141 -0.006,0.36287 -0.041,0.45434 -0.297,0.52372 -0.057,0.26034 -0.159,0.40308 -0.21,0.19902 -0.104,0.16285 0.006,0.16887 0.112,0.14173 0.246,0.25532 0.076,0.16586 -0.022,0.14676 0.001,0.20003 0.059,0.13872 0.07,0.0804 0.243,0.13068 0.238,0.32869 0.41,0.39706 0.49,0.56592 0.23,0.17389 0.181,0.0423 0.09,0.18897 -0.05,0.22115 -0.141,0.12565 0.058,0.18093 0.08,0.0945 0.089,0.0482 0.215,0.0111 0.2,-0.0371 0.05,-0.0633 -0.026,-0.84737 -0.144,-0.49355 -0.145,-0.193 -0.031,-0.0382 0.051,-0.16184 0.161,-0.37795 0.137,-0.37493 0.087,-0.15782 0.101,-0.0955 0.676,-0.10152 0.308,-0.0875 0.13,-0.10956 0.101,-0.29051 0.081,-0.81119 0.029,-0.76093 -0.07,-0.4453 0.097,-0.67046 0.148,-0.41515 -0.073,-0.0814 -0.055,-0.55889 -0.44,-0.59508 -0.566,-0.76495 -0.317,-0.41112 -0.36,-0.46742 -0.656,-0.73178 -0.3,-0.26436 -0.158,-0.10354 -0.53,-0.0844 -0.141,-0.14072 -0.134,-0.22416 -0.051,-0.41414 -0.009,-0.3096 -0.06,-0.52672 -0.107,-0.74384 -0.048,-0.21914 -0.151,-0.55888 -0.144,-0.53175 -0.008,-0.13168 0.051,-0.12766 0.244,-0.39102 0.173,-0.27743 0.082,-0.15179 0.147,-0.41213 0.035,-0.20003 0.115,-0.0905 0.469,-0.0371 0.373,0.007 0.626,-0.009 0.661,0.0242 0.093,0.0181 0.149,0.0432 0.168,-0.007 0.187,-0.0583 0.207,-0.14273 0.227,-0.22718 0.354,0.005 0.479,0.23622 0.262,0.20606 0.044,0.17592 0.321,0.10252 0.598,0.0282 0.435,-0.0915 0.273,-0.21109 0.286,-0.11159 0.298,-0.0131 0.225,0.0724 0.153,0.1568 0.293,0.11259 0.434,0.0683 0.474,-0.10153 0.514,-0.27039 0.293,-0.28246 0.072,-0.29352 0.085,-0.17892 0.098,-0.0633 0.272,-0.0362 0.447,-0.0101 0.389,0.0925 0.496,0.29251 0.313,-0.194 0.537,-0.33272 0.541,-0.17591 0.515,-0.001 0.423,-0.12666 0.33,-0.25129 0.349,-0.15984 0.368,-0.0673 0.344,-0.12163 0.481,-0.26135 0.499,-0.37996 0.508,-0.388 0.326,-0.24929 0.149,0.29351 0.267,0.26839 -0.159,0.1558 -0.192,0.13972 0.31,0.18697 -0.227,0.28246 -0.028,0.19601 0.058,0.0774 0.05,0.11459 -0.149,0.32368 -0.198,0.24828 -0.051,0.18998 0.175,0.33473 -0.09,0.59508 0.169,0.53577 0.047,0.27441 0.059,0.18395 -0.084,0.3287 0.022,0.55486 0.039,0.22919 -0.101,0.28547 0.172,0.0985 0.091,0.31363 -0.024,0.35281 -0.053,0.18999 -0.296,0.23019 -0.035,0.0895 0.004,0.1357 0.37,0.004 0.013,0.21008 -0.024,0.16587 0.014,0.3116 -0.049,0.20204 0.086,0.2312 -0.105,0.25632 0.036,0.19803 0.005,0.25632 0.086,0.64835 0.015,0.80214 0.019,0.12867 0.132,0.0905 0.185,0.0452 -0.007,0.22014 -0.206,0.28749 -0.012,0.17892 0.03,0.2513 0.226,-0.34177 0.136,0.001 0.121,0.1337 -0.017,0.19701 0.042,0.0975 -0.018,0.19098 0.067,0.24226 -0.026,0.21109 -0.166,0.14775 -0.211,0.25332 -0.038,0.23722 0.02,0.15581 -0.146,0.0492 -0.068,0.0965 0.099,0.22416 -0.006,0.19803 -0.258,0.61718 -0.688,0.84537 -0.297,0.30055 -0.278,0.32669 0,0.13469 -0.027,0.1166 -0.324,0.46742 -0.348,0.0764 -0.193,0.12565 0.151,0.41213 -0.225,0.0955 -0.391,0.32467 -1.075,0.62423 -0.17,0.14475 -0.273,0.38298 -0.36,0.0925 -0.2,0.10856 -0.357,0.0391 -0.125,-0.0272 -0.122,0.0141 -0.103,0.0824 -0.709,0.26939 -0.662,0.2131 -0.163,0.0975 -0.108,0.13268 -0.586,0.21109 -0.918,0.52169 -0.751,0.49858 -0.544,0.49857 -0.144,0.0754 -0.168,0.1729 -0.057,0.25532 -0.055,0.14474 -0.403,0.52672 -0.606,0.62323 -0.118,0.16987 -0.241,0.34679 -0.023,0.22718 -0.215,0.0693 -0.18,-0.21712 -0.077,0.41916 -0.147,0.0302 -0.163,-0.0865 -0.407,0.20807 -0.354,0.24024 -0.568,0.50562 -0.803,0.98107 -1.171,0.9489 -0.16,0.0272 -0.108,-0.004 -0.369,-0.33071 -0.201,-0.0242 0.18,0.19602 0.119,0.16384 -0.03,0.32067 0.014,0.48147 -0.145,0.93785 0.02,0.20506 0.167,0.26638 0.315,0.32568 0.295,0.4061 0.38,1.16803 0.029,0.60312 0.392,0.77098 0.015,0.33473 0.159,0.83331 -0.011,0.67548 -0.028,0.41415 0.189,0.1749 0.07,-0.15781 -0.02,-0.26236 0.05,-0.42017 0.105,-0.18697 0.105,0.0262 0.031,0.19802 0.071,0.17591 0.029,0.16485 0.005,0.22416 -0.145,0.85341 0.043,0.34779 0.195,0.58201 -0.228,0.67649 -0.33,1.59826 -0.019,0.27743 0.08,0.12063 0.177,0.0412 0.065,-0.20506 0.104,0.002 0.055,0.12063 -0.147,0.73981 -0.145,0.32468 -0.515,0.79712 -0.277,0.34177 -0.46,0.33674 -1.08,0.52672 -2.165,0.76294 -0.858,0.37494 -0.513,0.22416 -1.084,0.71268 -0.474,0.47847 -0.195,0.54984 -0.187,0.2513 -0.184,0.31965 0.16,0.27442 0.157,0.20807 0.186,0.13972 0.096,0.12062 0.126,0.0834 0.126,-0.43224 0.063,-0.13469 0.108,-0.0101 -0.06,0.52672 -0.125,1.81337 -0.013,0.0703 z m 5.145,-43.99428 0.075,-0.0633 0.029,-0.0834 -10e-4,-0.0814 -0.047,-0.0502 -0.068,-0.0292 -0.098,0.0171 -0.035,0.11057 -0.015,0.15279 0.062,0.0512 0.098,-0.0242 z m -0.218,-0.27743 -0.049,-0.0834 -0.092,-0.0392 -0.105,0.0322 -0.035,0.10454 0.109,0.13469 0.116,0.002 0.056,-0.15077 z" 
                fill="rgb(151, 144, 238)" 
                stroke="white" 
                stroke-width=".7px"
                title="Mozambique" 
                id="MZ" 
            />
        </svg>