<svg xmlns="http://www.w3.org/2000/svg" viewBox="104.01700000000007 161.42219999999998 37.99199999999989 36.557890000000015" width="37.99199999999989" height="36.557890000000015">
            <path 
                d="m 136.738,163.39729 0.601,-0.12062 0.574,-0.1156 0.667,-0.11559 0.534,-0.0925 0.134,-0.0242 1.285,0.10756 0.56,0.0754 0.195,0.0744 0.253,0.193 0.468,0.46942 -0.12,-0.0181 -0.862,0.0995 -0.328,0.12766 -0.734,0.55386 -0.156,-0.0714 -0.176,-0.1146 -0.149,-0.0331 -0.323,0.13269 -0.322,0.15982 -0.355,0.22617 -0.293,0.22114 -0.096,0.11962 -0.459,0.45737 -0.15,0.0734 -0.133,0.0322 -0.054,-0.0211 -0.057,-0.19702 -0.282,-0.45837 -0.452,-0.6011 -0.132,-0.0583 -0.091,-0.0231 -0.335,0.0292 -0.974,0.16988 -0.822,0.14273 -1.259,0.24527 -1.352,0.19702 -0.833,0.12163 -0.726,0.0362 0.001,0.59508 10e-4,1.20925 0.002,1.21025 0.002,1.21427 0.002,1.21629 0.001,1.2203 0.002,1.22332 0.002,1.22734 0.002,1.23036 0,0.53777 -0.024,0.1156 -0.416,0 -0.941,0 -0.791,0 -0.64,0 0.001,0.73379 10e-4,0.86949 0,0.87151 0.001,0.87351 0.001,0.87452 10e-4,0.87753 0.001,0.87854 0.001,0.88155 10e-4,0.88256 0,0.66745 0,0.0764 0,1.29972 0,1.38214 0,1.38717 0,1.39219 0,1.39822 0,1.40325 0,1.40828 0,1.41531 0,0.44932 -0.288,-0.006 -0.579,0.1739 -0.369,0.22616 -0.16,0.27844 -0.212,0.16888 -0.266,0.0603 -0.117,0.14173 0.032,0.22516 -0.103,0.17189 -0.235,0.11962 -0.381,-0.0352 -0.526,-0.18897 -0.669,-0.0443 -0.812,0.0995 -0.585,-0.0462 -0.355,-0.194 -0.377,-0.10957 -0.399,-0.0282 -0.232,-0.0804 -0.474,-0.14375 -0.09,-0.24727 -0.056,-0.18597 -0.135,-0.196 -0.015,-0.15883 0.106,-0.12062 0.015,-0.19299 -0.075,-0.26739 -0.131,-0.12967 -0.186,0.007 -0.116,-0.10253 -0.046,-0.21109 -0.109,-0.15983 -0.261,-0.16284 -0.345,0.12263 -0.163,0.18596 -0.096,0.2895 -0.087,0.14575 -0.044,0.24226 -0.02,0.17189 -0.088,0.18395 -0.092,0.0744 -0.095,-0.0341 -0.177,0.0744 -0.391,0.27039 -0.111,0.14274 -0.315,-0.25833 -0.92,-0.97202 -0.327,-0.25231 -0.482,-0.59407 -1.06,-1.83548 -0.151,-0.35282 -0.202,-0.88256 -0.232,-0.65237 -0.026,-0.37595 0.111,-0.21309 -0.068,-0.2885 -0.119,-0.25833 -0.361,-0.33775 -0.103,-1.1238 -0.242,-0.72474 0.053,-0.5981 -0.116,-0.54381 -0.011,-0.34779 0.052,-0.66141 -0.194,-0.75893 -0.393,-0.73982 -0.355,-1.0655 -0.051,-0.46642 0.038,-1.24945 -0.069,-0.50964 0.004,-0.59708 -0.14,-0.61819 -0.058,-0.33674 0.099,-0.26638 0.058,0.0844 0.102,0.0403 0.069,-0.35383 0.016,-0.31262 -0.177,-0.76997 -0.395,-0.78607 -0.979,-1.27659 -0.239,-0.48651 -0.136,-0.40208 -1.092,-1.67465 -0.466,-1.17708 -0.326,-1.01525 -0.354,-0.46741 -1.639,-3.27592 -0.363,-0.52069 -0.654,-0.62222 -0.153,-0.20707 -0.252,-0.59206 -0.492,-0.79209 -0.12,-0.73882 -0.033,-0.83632 0.06,-0.6393 0.448,-0.0663 0.313,-0.17088 0.281,-0.0111 0.278,0.13369 0.295,0.0101 0.115,-0.0222 0.53,0.0191 0.304,-0.1528 0.361,-0.15279 0.208,-0.13469 0.292,-0.13772 0.387,-0.13972 0.22,0.0111 0.27,0.0522 0.359,0.0542 0.203,0.0935 0.24,0.29754 0.373,0.27039 0.274,0.16184 0.315,0.21209 0.094,0.0824 0.139,0.0452 0.085,0.0141 0.585,-0.0332 0.529,-0.0292 0.571,0.001 1.073,0.001 1.074,0.002 1.074,0.001 1.074,0.002 1.074,0.002 1.073,0.002 1.074,0.001 1.074,0.002 0.439,0.001 0.767,0.009 0.808,0.0101 0.089,0.0171 0.09,0.0563 0.074,0.0543 0.285,0.37393 0.364,0.39202 0.304,0.18496 0.362,0.11057 0.34,0.0412 0.318,-0.0272 0.526,0.0502 0.736,0.12665 0.765,0.0371 0.793,-0.0512 0.557,0.0694 0.322,0.192 0.33,0.13067 0.338,0.0683 0.456,-0.0403 0.576,-0.14877 0.49,0.0211 0.227,0.10756 0.135,0.003 0.846,-0.15581 0.68,-0.12464 1.021,-0.20004 0.841,-0.16484 1.246,-0.24326 z" 
                fill="rgb(151, 144, 238)" 
                stroke="white" 
                stroke-width=".7px"
                title="Namibia" 
                id="NA" 
            />
        </svg>