<svg xmlns="http://www.w3.org/2000/svg" viewBox="102.35699999999994 102.81527999999989 21.026000000000053 24.38096000000006" width="21.026000000000053" height="24.38096000000006">
            <path 
                d="m 123.35,103.40235 0.033,0.48953 -0.21,0.60914 -0.158,0.45636 -0.414,0.7539 -0.37,0.67548 -0.391,1.12582 0.002,0.82326 -0.043,0.51767 -0.128,0.31664 -0.308,0.85139 -0.046,0.73279 0.11,0.89563 -0.105,0.84939 -0.321,0.80214 -0.138,0.63126 0.08,0.76093 -0.589,0.63327 -0.741,0.62925 -0.48,0.18194 -0.373,0.2121 -0.266,0.24024 -0.087,0.13068 -0.194,0.2915 -0.441,0.90367 -0.23,0.39604 -0.301,0.33875 -0.448,0.41314 -0.164,0.19501 -0.067,0.28346 0.029,0.52069 0.043,1.5872 -0.075,0.46038 -0.123,0.75691 -0.44,0.84838 -0.33,0.47143 -0.33,0.14476 -0.434,0.12765 -0.208,0.15983 -0.127,0.23622 -0.242,0.20506 -0.357,0.17591 -0.452,0.43123 -0.545,0.68755 -0.373,0.39403 -0.2,0.10153 -0.207,0.009 -0.215,-0.0824 -0.179,-0.0111 -0.09,0.0371 -0.058,-0.0302 -0.085,-0.0643 0.003,-0.15882 -0.025,-0.26236 -0.105,-0.27039 0.125,-0.21713 0.112,-0.16485 -0.02,-0.0865 -0.112,-0.13771 -0.125,-0.19802 -0.118,0.0141 -0.251,0.15078 -0.261,0.11861 -0.244,0.0492 -0.192,0.12263 -0.105,0.0663 -0.165,0 -0.092,-0.0734 -0.201,-0.0704 -0.109,0.0242 -0.062,0.0342 -0.026,0.24929 -0.024,0.21109 -0.039,0.19802 -0.072,0.0925 -0.303,0.0985 -0.206,0.1357 -0.177,0.0915 -0.11,-0.0231 -0.22,-0.17992 -0.219,-0.16687 -0.121,-0.14073 -0.068,-0.10052 -0.044,-0.0442 -0.138,-0.007 -0.041,0.0925 -0.069,-0.0432 -0.215,-0.18998 -0.254,-0.29955 -0.092,-0.0462 -0.14,0.005 -0.222,0.11058 -0.218,0.17189 -0.393,0.15881 -0.328,0.0885 -0.03,0.10856 -0.077,0.18696 -0.108,0.1166 -0.291,0.0362 -0.105,0.16686 -0.251,0.32167 -0.166,0.14675 -0.044,-0.0623 -0.101,-0.0784 -0.206,-0.24929 -0.204,-0.3106 -0.054,-0.14073 -0.058,-0.0804 -0.009,-0.31161 -0.307,-0.36991 -0.77,-0.6574 -0.082,-0.19601 -0.658,-0.6011 0.168,-0.43324 0.125,-0.20104 0.151,-0.13871 0.606,-0.33977 0.092,0.0131 0.418,0.44128 0.133,0.0351 0.149,-0.0121 0.176,0.0181 0.087,-0.0865 0.013,-0.11359 -0.127,-0.12765 -0.019,-0.13672 0.09,-0.14776 0.05,-0.16485 0.131,-0.19299 0.014,-0.0915 -0.138,-0.0995 -0.283,-0.15178 -0.193,-0.14675 -0.074,-0.13973 0.053,-0.17892 0.155,-0.14575 -0.009,-0.0794 -0.137,-0.13067 -0.1,-0.13972 -0.102,-0.0875 -0.285,-0.0522 0.055,-0.18798 0.104,-0.27743 0.026,-0.21209 -0.079,-0.55688 0.006,-0.10051 0.078,-0.0512 0.169,0.0613 0.171,0.0844 0.466,-0.12062 0.162,-0.0191 0.135,0.10656 0.185,0.0834 1.072,-0.2322 0.021,-0.23622 0.061,-0.21411 0.008,-0.15982 -0.044,-0.10354 -0.053,-0.0774 -0.032,-0.16083 -0.001,-0.17189 0.103,-0.0814 0.342,-0.20506 0.106,0.007 0.239,0.11259 0.224,0.1749 0.2,0.36789 0.137,0.31764 0.221,0.38399 0.467,0.15681 0.558,0.0995 0.302,-0.0262 0.431,-0.3277 0.244,-0.25532 0.079,-0.13771 0.142,0.0714 0.161,0.33573 0.103,0.13068 0.026,0.12464 -0.072,0.1548 0.07,0.0995 0.3,0.0714 0.263,-0.0673 0.118,-0.1367 0.197,-0.17893 0.002,-0.15078 -0.106,-0.0975 0,-0.1347 0.11,-0.10554 0.106,-0.2895 0.033,-0.21109 0.104,-0.1347 0.197,-0.0935 0.071,-0.0844 0.11,-0.50059 -0.057,-0.18094 0,-0.14977 0.125,-0.19199 0.023,-0.31362 -0.053,-0.51365 -0.035,-0.35282 -0.038,-0.36992 0.096,-0.48551 0.1,-0.50561 -0.018,-0.12564 -0.139,-0.1538 -0.171,-0.13972 -0.44,-0.1156 -0.164,-0.18395 -0.128,-0.19501 -0.093,-0.0623 -0.482,-0.0764 -0.106,-0.11056 0.043,-0.31564 0.043,-0.4654 -0.017,-0.32267 0.085,-0.26135 0.097,-0.19601 0.213,-0.20707 0.112,-0.24426 0.062,-0.0603 0.403,-0.0412 0.146,-0.10153 0.115,-0.10354 0.049,-0.13871 0.138,-0.23019 0.122,-0.15581 0.014,-0.10554 -0.026,-0.14676 -0.122,-0.28849 -0.146,-0.24024 -0.088,-0.0865 -0.178,-0.56492 -0.165,-0.13268 -0.322,-0.0724 -0.603,-0.0643 -0.365,0.10153 -0.555,0.18998 -0.424,0.13168 -0.276,0.0744 -0.162,-0.0201 -0.074,-0.0865 0.108,-0.0734 0.053,-0.17189 -0.069,-0.24627 -0.107,-0.22517 -0.061,-0.31764 0.026,-0.39303 0.104,-0.36992 0.223,-0.48048 0.014,-0.19601 0.673,0.006 0.672,0.006 0.734,-0.005 0.709,-0.004 0.553,0.0161 0.266,-0.12465 0.253,0.18898 0.124,0.0412 0.042,-0.0151 0.097,0.13268 0.315,-0.0141 0.05,0.0302 0.027,0.16084 0.292,-0.004 0.144,0.0352 0.117,-0.004 0.17,-0.0925 0.122,0.0302 0.222,0.12063 0.158,0.10353 0.221,-0.0342 0.512,0.0181 0.397,0.0995 0.393,0.27543 0.263,0.15881 0.236,0.23522 0.087,-0.0423 0.082,-0.0643 0.046,-0.0282 -0.003,-0.20103 -0.132,-0.34277 -0.051,-0.2905 0.029,-0.23823 0.1,-0.17189 0.171,-0.10354 0.017,-0.16083 0.002,-0.0221 0.192,-0.38298 0.19,-0.38097 0.229,-0.44429 0.189,-0.36689 -0.025,-0.18195 0.019,-0.2714 0.039,-0.30257 -0.01,-0.17993 0.055,-0.12162 0.131,-0.45233 0.077,-0.26237 0.113,-0.1176 0.176,-0.0844 0.256,-0.003 0.668,-0.0573 0.624,-0.11761 0.207,-0.0522 0.391,-0.18897 0.151,-0.008 0.129,0.0724 0.754,0.21712 0.207,0.0855 0.076,-0.0131 0.114,0.0191 0.177,0.002 0.172,-0.0262 0.11,0.0262 0.139,0.14375 0.093,-0.0161 0.121,-0.10455 0.227,-0.10655 0.439,-0.11861 0.071,0.0532 0.152,0.26336 z" 
                fill="rgb(151, 144, 238)" 
                stroke="white" 
                stroke-width=".7px"
                title="Republic of Congo" 
                id="CG" 
            />
        </svg>