<svg xmlns="http://www.w3.org/2000/svg" viewBox="21.906999999999993 65.73497000000002 17.26900000000001 12.601880000000008" width="17.26900000000001" height="12.601880000000008">
            <path 
                d="m 36.655,71.18189 0.264,0.46541 -0.057,0.22415 -0.06,0.32569 0.149,0.23722 0.175,0.1538 0.125,0.14273 0.138,0.19501 0.022,0.39002 -0.025,0.28044 0.09,0.12666 0.076,0.16083 -0.015,0.13269 -0.05,0.11861 -0.168,0.15681 -0.028,0.2905 0.272,0.35182 0.175,0.19199 -10e-4,0.10957 0.049,0.12062 0.129,0.14073 0.08,-0.0332 0.087,-0.11459 0.039,-0.0794 0.236,0.0352 0.11,0.0362 0.151,0.23019 0.055,0.15279 0.036,0.19199 0.157,0.23924 0.137,0.16887 0.028,0.10554 0.122,0.14274 -0.075,0.31664 0.008,0.16183 -0.083,0.4252 -0.019,0.20104 0.006,0.0734 0.186,0.15178 -0.02,0.21411 -0.189,-0.0372 -0.328,-0.0252 -0.657,0.11157 -0.227,-0.0452 -0.431,0.0151 -0.308,0.0613 -0.39,0.13972 -0.303,-0.0351 -0.164,-0.10957 -0.216,0.008 -0.243,-0.0593 -0.258,-0.10655 -0.237,-0.0532 -0.255,-0.19602 -0.119,-0.0342 -0.084,0.0512 -0.071,0.0643 -0.073,0.0403 -0.139,-0.0352 -0.052,-0.13269 0.044,-0.12866 0.012,-0.0975 -0.065,-0.0532 -0.155,-0.0171 -0.252,0 -0.406,-0.0403 -0.092,-0.0252 -0.909,-0.0332 -0.941,-0.004 -0.798,-0.003 -1.008,-0.005 -0.708,-0.003 -0.661,-0.003 -0.51,0.26236 -0.553,0.28245 -0.743,0.15079 -0.855,-0.0563 -0.273,0.0412 -0.283,0.12565 -0.208,0.0905 -0.294,0.0553 -0.381,-0.0452 -0.154,0.0272 -0.095,-0.12867 -0.11,-0.20908 0.069,-0.15279 0.232,-0.0985 0.349,-0.12866 0.183,0.0663 0.107,0.003 0.02,-0.0824 -0.034,-0.0442 -0.264,-0.11157 -0.136,-0.14776 -0.113,0.0864 -0.098,0.18094 -0.081,0.0542 -0.119,0.0502 -0.067,-0.12264 -0.03,-0.11962 0.055,-0.0935 -0.028,-0.51969 0.032,-0.27743 -0.017,-0.24225 0.165,-0.15982 0.157,-0.0995 0.611,-0.009 0.569,-0.009 0.548,0.006 0.558,0.005 0.055,-0.48552 0.177,-0.0381 0.264,-0.0502 0.493,-0.0593 0.549,-0.0563 0.117,-0.0955 0.091,-0.16083 0.057,-0.14476 0.114,-0.0613 0.154,0.0482 0.201,0.0764 0.209,0.11661 0.239,0.10856 0.159,0.0694 0.383,0.17088 0.655,0.23823 0.538,0.0955 0.651,-0.1749 0.47,-0.11158 0.058,-0.20908 -0.073,-0.20405 -0.35,-0.18696 -0.476,0.0211 -0.146,0.0502 -0.222,0.0623 -0.133,0.0242 -0.224,-0.0432 -0.285,-0.16184 -0.179,-0.16284 -0.251,-0.0754 -0.297,-0.0774 -0.477,-0.33473 -0.248,-0.0603 -0.236,-0.0171 -0.452,0.0663 -0.442,0.17893 -0.232,0.4061 -0.442,-0.006 -0.939,-0.0121 -0.862,-0.0121 -0.711,0.0272 -0.072,-0.29452 -0.168,-0.23522 -0.274,-0.20003 -0.06,-0.18697 0.092,-0.16284 0.265,-0.13268 0.06,-0.0965 -0.139,0.0151 -0.209,0.0864 -0.139,0.004 -0.017,-0.25732 -0.232,-0.33272 -0.262,-0.56392 -0.296,-0.23019 -0.249,-0.45736 -0.26,-0.1749 -0.239,-0.0814 -0.204,0.0161 -0.075,0.20908 -0.254,-0.30055 0.347,-0.10756 0.743,-0.37694 0.853,-1.07958 0.765,-1.28162 0.099,-0.30256 0.094,-0.2302 0.061,-0.52471 0.11,-0.31261 0.103,-0.0603 0.13,-0.24024 0.156,-0.42117 0.178,-0.23421 0.198,-0.0462 0.155,0.0211 0.11,0.0865 0.323,0.0542 0.535,0.0201 0.414,-0.0633 0.292,-0.14576 0.384,-0.0744 0.475,-0.002 0.251,-0.0613 0.024,-0.12062 0.062,-0.0361 0.099,0.0472 0.094,-0.0191 0.087,-0.0865 0.088,-0.005 0.087,0.0744 0.398,0.0221 0.71,-0.0292 0.655,0.22114 0.602,0.47144 0.311,0.31462 0.019,0.15782 0.1,0.15882 0.18,0.15982 0.164,0.0292 0.15,-0.10052 0.117,0.0111 0.084,0.12263 0.172,0.0252 0.191,-0.0754 0.136,0.0262 0.025,0.0724 0.032,0.0392 0.092,0.0171 0.124,0.0925 0.175,0.25029 0.142,0.34879 0.109,0.44732 0.145,0.24325 0.179,0.0392 0.105,0.0915 0.02,0.10656 0.053,0.0724 0.086,0.0403 0.152,-0.0242 0.178,0.15078 0.192,0.32769 0.03,0.14675 -0.03,0.0794 0.011,0.0583 0.128,0.0553 0.12,0.10655 0.098,0.16083 0.212,0.14274 0.326,0.12564 0.235,0.18697 0.144,0.24828 0.298,0.20908 z" 
                fill="rgb(151, 144, 238)" 
                stroke="white" 
                stroke-width=".7px"
                title="Senegal" 
                id="SN" 
            />
        </svg>