<svg xmlns="http://www.w3.org/2000/svg" viewBox="33.818000000000005 84.98914 8.44300000000002 8.76334" width="8.44300000000002" height="8.76334">
            <path 
                d="m 42.261,89.28944 -0.007,0.0875 -0.081,0.4061 -0.126,0.3478 -0.083,0.0854 -0.357,0.0915 -0.152,0.15279 -0.131,0.49455 -0.084,0.388 -0.123,0.0653 -0.524,0.55989 -0.343,0.21209 -0.239,0.18295 -0.227,0.23723 -0.285,0.23119 -0.306,0.39002 -0.218,0.40508 -0.149,0.12565 -0.112,-0.11459 -0.521,-0.39906 -0.55,-0.26839 -1.171,-0.4463 -0.39,-0.12565 0.014,-0.15882 0.134,-0.2905 -0.218,-0.34076 0.084,-0.24829 -0.084,0 -0.168,0.14878 -0.357,-0.0433 -0.237,-0.2131 -0.193,-0.0784 -0.084,-0.10654 -0.124,-0.56191 -0.089,-0.25532 -0.179,-0.15781 -0.359,-0.0393 -0.148,-0.34278 -0.199,-0.26637 0.033,-0.16385 0.162,0.009 0.127,0.11962 0.205,0.0492 0.255,-0.28849 0.228,-0.15681 0.053,-0.1367 -0.028,-0.0754 -0.138,0.1166 -0.378,-0.0302 -0.094,0.10454 -0.169,0.0332 -0.131,-0.33675 0.006,-0.19902 0.054,-0.21813 0.381,-0.0383 0.033,-0.0703 -0.265,-0.0472 -0.331,-0.25431 -0.06,-0.17591 0.164,-0.0593 0.157,0.0262 0.136,0.0383 0.148,-0.0633 0.138,-0.0965 0.083,-0.12363 0.112,-0.33072 0.358,-0.11056 0.211,-0.20306 0.201,-0.31462 0.092,-0.22115 0.083,-0.11057 0.052,-0.0955 0.039,-0.10454 0.09,-0.0965 0.094,-0.23422 0.064,-0.2131 0.206,-0.10253 0.422,-0.0905 0.38,0.1548 0.616,-0.13469 0.033,-0.20003 0.564,-0.003 0.668,-0.004 0.556,-0.003 0.191,0.0532 0.069,0.14877 0.183,0.2332 0.191,0.16184 0.237,0.35483 0.276,0.41314 0.298,0.37292 0.191,0.20204 0.022,0.0704 -0.014,0.0804 -0.095,0.18897 -0.081,0.20506 0.008,0.0774 0.057,0.0383 0.312,0.0633 0.028,0.22817 0,0.31564 0.151,0.29452 0.144,0.21611 -0.007,0.0774 -0.352,0.36891 -0.137,0.3669 -0.07,0.10352 -0.028,0.0824 0.07,0.0392 0.097,-0.0242 0.136,0.0302 0.13,0.0111 0.172,-0.13168 0.287,-0.33673 0.096,-0.0413 0.214,0.0362 z m -6.295,2.96833 -0.041,0.0734 -0.187,-0.18195 -0.967,-0.27241 0.273,-0.14474 0.671,-0.0432 0.2,0.0844 0.089,0.0704 0.033,0.13368 -0.071,0.28045 z" 
                fill="rgb(151, 144, 238)" 
                stroke="white" 
                stroke-width=".7px"
                title="Sierra Leone" 
                id="SL" 
            />
        </svg>