<svg xmlns="http://www.w3.org/2000/svg" viewBox="171.49300000000005 0.26337999999999717 18.507999999999953 17.04314" width="18.507999999999953" height="17.04314">
            <path 
                d="m 190.001,0.92896 0,0.0472 -0.025,0.12163 -0.317,0.34981 -0.43,0.47444 -0.309,0.29956 -0.52,0.50259 -0.389,0.10756 -0.654,0.18093 -0.176,0.17491 -0.164,0.28346 -0.096,0.387 -0.028,0.24124 -0.017,0.45033 0.153,0.46742 0.147,0.44731 0.019,0.29553 -0.015,0.29049 -0.142,0.31061 -0.155,0.42519 -0.089,0.47948 -0.047,0.89563 -0.001,0.76093 -0.013,0.12364 -0.269,0.53476 -0.314,0.62523 -0.146,0.14375 -0.689,0.18596 -0.752,0.45635 -0.841,0.50963 -0.763,0.46139 -0.801,0.4835 -0.831,0.50058 -0.594,0.35684 -0.795,0.47748 -0.724,0.45535 -0.733,0.46138 -0.558,0.3488 -0.846,0.55185 -0.496,0.32367 -0.729,0.47446 -0.642,0.41715 -0.759,0.49254 -0.952,-0.14575 -0.301,-0.0855 -0.246,-0.23421 -0.181,-0.12565 -0.45,-0.12867 -0.289,-0.44328 -0.173,-0.15681 -0.302,-0.0704 0.04,-0.15882 0.156,-0.26738 0.158,-0.2915 -0.088,-0.16184 -0.029,-0.13872 -0.01,-0.16485 0.108,-0.15782 -0.051,-0.19098 -0.083,-0.19099 -0.061,-0.0965 0,-0.1759 0.04,-0.1347 0.05,-0.20606 0.128,-0.11259 0.033,-0.11761 0.115,-0.11559 0.153,-0.0945 0.035,-0.0754 -0.022,-0.0432 -0.154,-0.0855 -0.083,-0.14978 0.074,-0.21813 0.049,-0.0683 0.092,-0.10655 0.206,-0.16083 0.161,-0.0262 0.139,-10e-4 0.236,0.0141 0.183,0.0292 0.047,-0.0423 -0.007,-0.0532 -0.226,-0.13168 -0.012,-0.10554 0.056,-0.11259 0.16,-0.17892 0.191,-0.13068 0.097,-0.0231 0.218,-0.26336 0.14,-0.29452 -0.227,-0.7177 -0.136,-0.1156 -0.222,-0.0985 -0.131,-0.0151 -0.01,-0.0472 0.175,-0.18194 0.124,-0.15983 -0.137,-0.15078 -0.247,-0.0714 -0.091,0.15681 -0.316,0.0141 -0.49,-0.002 -0.216,-0.76194 -0.033,-0.33071 0.006,-0.38298 0.149,-0.56089 -0.07,-0.26035 -0.006,-0.17591 -0.038,-0.24125 -0.387,-0.52069 0.211,-0.96096 0.149,-0.2332 0.21,0.0221 0.448,0.27341 0.074,-0.008 0.136,-0.35986 0.132,-0.12162 0.276,-0.10756 0.079,-0.58301 0.129,-0.11158 0.156,-0.0603 0.24,-0.0121 0.208,-0.0342 0.013,-0.10253 -0.292,-0.67649 0.026,-0.17189 0.141,-0.68152 0.089,-0.26739 0.085,-0.0875 0.331,0.0342 0.463,0.12063 0.123,0.196 0.227,0.17491 0.339,-0.0121 0.393,0.0332 0.306,0.0111 0.245,-0.12264 0.553,-0.22918 0.273,-0.0764 0.249,-0.10152 0.8,-0.37594 0.321,0.0292 0.219,0.0492 0.168,0.0603 0.376,0.25632 0.311,0.25934 0.219,0.0774 0.392,-0.006 0.567,0.0502 0.696,-0.004 0.407,-0.0724 0.519,-0.12766 0.926,-0.30659 1.218,-0.64231 0.716,-0.31261 0.309,-0.0372 0.402,-0.003 0.402,0.0814 0.456,0.0583 0.211,-0.005 0.493,-0.0643 0.64,-0.13067 0.402,-0.10656 0.486,-0.1749 0.303,-0.2915 0.098,-0.0302 0.126,0.0532 0.059,0.0201 0.124,0.16485 z" 
                fill="rgb(151, 144, 238)" 
                stroke="white" 
                stroke-width=".7px"
                title="Syria" 
                id="SY" 
            />
        </svg>