<svg xmlns="http://www.w3.org/2000/svg" viewBox="23.132999999999964 32.418469999999964 23.621000000000027 21.09098999999999" width="23.621000000000027" height="21.09098999999999">
            <path 
                d="m 46.751,33.58968 0.001,0.52572 0,0.62423 10e-4,0.62221 10e-4,0.70766 0,0.70363 0,0.51164 0,0.35584 -0.571,0 -0.523,0 -0.523,0 -0.522,0 -0.523,0 -0.523,0 -0.523,0 -0.523,0 -0.523,0 -0.523,0 -0.523,0 -0.523,0 -0.523,0 -0.523,0 -0.523,0 -0.522,0 -0.523,0 -0.42,0 0,0.37293 0,0.42318 0,0.4242 0,0.42318 0,0.42319 0,0.42218 0,0.42218 0,0.42118 0,0.42117 0,0.42017 0,0.42018 0,0.42017 0,0.41816 0,0.41916 0,0.41816 0,0.41816 0,0.41716 0,0.37192 -0.02,0.33272 -0.168,0.0985 -0.401,0.17691 -0.412,0.18194 -0.523,0.0834 -0.172,0.0593 -0.334,0.23923 -0.439,0.31463 -0.38,0.2724 -0.251,0.35384 -0.091,0.194 -0.037,0.20405 0.029,0.19501 0.137,0.39002 0.037,0.19701 0.021,0.34277 0.023,0.37192 0.025,0.40107 0.025,0.40107 0.026,0.4252 0.027,0.4262 0.027,0.42721 0.02,0.31764 0.025,0.40007 -0.425,10e-4 -0.643,0 -0.644,0.001 -0.644,10e-4 -0.643,10e-4 -0.643,0.001 -0.644,10e-4 -0.644,0 -0.643,10e-4 -0.644,9.9e-4 -0.643,0.001 -0.643,10e-4 -0.644,10e-4 -0.644,10e-4 -0.643,0 -0.644,0.001 -0.643,10e-4 -0.36,10e-4 -0.116,0.5619 -0.103,0.40308 -0.06,0.3287 0.044,0.27744 -0.142,-0.15179 0.25,-1.56408 0.018,-0.13168 0.204,-1.44647 0.385,-0.78606 0.307,-0.3468 0.476,-0.17992 0.437,-0.7921 0.153,-0.73077 0.287,-0.33674 0.09,-0.26336 -0.113,-0.20104 0.271,-0.39504 0.328,-0.60513 0.152,-0.38901 0.383,-0.60211 0.047,-0.13369 -0.034,-0.15077 -0.151,0.12765 -0.161,0.22315 -0.191,0.17592 0.078,-0.21612 0.15,-0.31764 0.341,-0.33372 0.538,-0.3669 1.116,-1.24946 0.42,-0.21612 0.378,-0.52772 0.135,-0.46943 0.037,-1.07957 0.135,-0.57096 0.246,-0.44529 0.294,-0.8132 0.224,-0.36288 0.146,-0.74384 0.159,-0.28246 0.285,-0.1357 0.404,-0.37092 0.607,-0.23019 0.719,-0.48349 0.337,-0.2895 0.225,-0.43224 0.241,-0.86244 0.431,-0.90971 0.221,-0.68755 12.234,-0.0141 0.002,9.9e-4 0,-9.9e-4 0.377,0 0,0.52571 z" 
                fill="rgb(151, 144, 238)" 
                stroke="white" 
                stroke-width=".7px"
                title="Western Sahara" 
                id="EH" 
            />
        </svg>