<svg xmlns="http://www.w3.org/2000/svg" viewBox="844.8244400000001 622.6960600000004 33.549999999999955 53.360000000000014" width="33.549999999999955" height="53.360000000000014">
            <path 
                d="m 871.73444,622.94606 0.25,1.46 0.25,1.46 0.25,1.46 0.25,1.45 0.25,1.45 0.25,1.45 0.25,1.45 0.25,1.45 0.25,1.44 0.25,1.44 0.25,1.44 0.25,1.44 0.25,1.43 0.25,1.43 0.25,1.43 0.25,1.43 0.23,0.65 0.19,1.05 1.33,3.09 0.39,1.3 -0.11,0.54 0.17,0.46 0.44,0.38 -0.08,0.44 -0.6,0.5 -0.39,0.6 -0.28,1.07 0,0 -0.56,1.88 -0.01,1.14 0.54,1.56 0,0 0.11,0.69 -0.36,3.04 0.24,1.95 0.57,1.27 -3.04,0.01 -3.04,0 -3.04,0 -3.04,0 -3.04,0 -3.04,0 -3.04,0 -3.04,0 -0.13,0.78 0.06,0.75 0.33,0.71 1.36,1.35 0.13,0.33 -0.24,1.04 0.04,0.74 -0.15,0.38 -0.33,0.34 -0.09,0.37 -0.22,0.1 -1.03,1.12 -3.61,0.37 0.2,-0.25 0.76,-0.05 1.07,-0.36 -0.22,-0.6 -0.41,-0.66 -0.38,-0.07 -0.25,-0.39 0.01,-1.22 -0.24,-0.71 -0.59,-0.73 -0.2,0.14 -0.43,1.25 -0.36,1.64 -0.18,0.53 -1.07,0.04 -0.95,-0.11 -0.47,0.03 -0.12,-2.24 -0.1,-2.04 -0.1,-2.05 -0.1,-2.05 -0.1,-2.06 -0.1,-2.06 -0.1,-2.07 -0.1,-2.07 0.23,-2.04 0.23,-2.04 0.23,-2.05 0.23,-2.05 0.23,-2.06 0.23,-2.06 0.23,-2.07 0.23,-2.07 0.23,-2.07 0.23,-2.08 0.23,-2.08 0.23,-2.09 0.23,-2.09 0.23,-2.1 0.23,-2.1 0.23,-2.11 0.06,-0.54 0.01,-0.18 0.03,-0.27 -0.83,-0.75 -0.16,-0.15 -0.12,-0.14 0.12,-0.01 1.51,0.02 1.51,0.02 1.51,0.02 1.51,0.02 1.51,0.02 1.51,0.02 1.51,0.02 1.51,0.02 1.51,0.02 1.51,0.02 1.51,0.02 1.51,0.02 1.51,0.02 1.51,0.02 1.51,0.02 1.47,-0.05 z m -23.04,52.85 -0.83,0.23 -1.23,-0.02 -0.25,-0.08 0.49,-0.16 1.46,-0.21 0.36,0.24 z" 
                fill="rgb(151, 144, 238)" 
                stroke="white" 
                stroke-width=".7px"
                title="Alabama" 
                id="US-AL" 
            />
        </svg>