<svg xmlns="http://www.w3.org/2000/svg" viewBox="651.2444400000005 551.4960599999999 66.20999999999935 48.270000000000095" width="66.20999999999935" height="48.270000000000095">
            <path 
                d="m 717.34444,563.81606 0.01,2.3 0,2.28 0.01,2.28 0.01,2.28 0,2.26 0.01,2.26 0.01,2.26 0,2.25 0.01,2.24 0.01,2.24 0.01,2.23 0,2.23 0.01,2.22 0.01,2.21 0,2.21 0.01,2.2 -2.33,0 -2.32,0 -2.33,0 -2.32,0 -3.56,0 -3.56,0 -3.55,0 -3.56,0 -3.56,0 -3.55,0 -3.56,0 -3.56,0 -3.55,0 -3.56,0 -3.56,0 -3.56,0 -3.55,0 -3.56,0 -3.56,0 -3.55,0 0,-2.93 0,-2.95 0,-2.96 0,-2.97 0,-2.98 0,-2.99 0,-3 0,-3.01 0,-3.02 0,-3.03 0,-3.05 0,-3.05 0,-3.07 0,-3.08 0,-3.08 0,-3.1 2.95,0 2.96,0 2.96,0 2.95,0 2.96,0 2.96,0 2.95,0 2.96,0 2.96,0 2.95,0 2.96,0 2.95,0 2.96,0 2.96,0 2.95,0 2.96,0 2.35,0 2.35,0 2.35,0 2.35,0 2.35,0 2.35,0 2.34,0 2.35,0 0.01,1.55 0,1.55 0,1.54 0,1.54 0,1.54 0,1.54 0,1.53 z" 
                fill="rgb(151, 144, 238)" 
                stroke="white" 
                stroke-width=".7px"
                title="Colorado" 
                id="US-CO" 
            />
        </svg>