<svg xmlns="http://www.w3.org/2000/svg" viewBox="871.7344400000001 622.966059999999 44.729999999999905 51.55000000000052" width="44.729999999999905" height="51.55000000000052">
            <path 
                d="m 916.46444,656.34606 -0.48,0.93 -1.15,0.58 -0.35,-0.02 -0.29,0.17 0.17,0.42 0.29,0.3 -0.01,0.28 -0.3,0.38 -0.6,0.11 -0.34,0.44 0.11,0.41 0.2,0.23 -0.04,0.39 -0.68,0.4 -0.16,0.39 0.34,0.11 0.26,-0.11 0.19,0.08 -0.41,0.65 -0.37,0.4 -0.35,0.71 -0.81,0.2 0.03,0.23 0.46,0.2 0.38,0.55 -0.72,1.01 -0.45,-0.08 -0.27,-0.22 -0.17,0.8 0.07,0.42 -0.17,0.87 -0.28,1.04 -0.19,0.43 0.04,0.79 0.12,0.77 -1.59,-0.1 -1.95,-0.72 -0.52,-0.14 -0.2,0.06 -0.24,0.27 -0.28,0.12 -0.24,0.5 -0.03,0.86 0.18,1.02 -0.08,0.89 -0.3,0.79 -0.48,0.36 -0.47,-0.05 -0.3,-0.19 -0.11,-0.31 -0.06,-0.64 -0.25,-0.56 -0.01,-0.36 -1.5,-0.1 -1.5,-0.1 -1.5,-0.1 -1.5,-0.1 -1.5,-0.1 -1.5,-0.1 -1.5,-0.1 -1.5,-0.1 -1.5,-0.1 -1.5,-0.1 -1.5,-0.1 -1.5,-0.1 -1.5,-0.1 -1.5,-0.1 -1.5,-0.1 -1.5,-0.1 -0.88,-0.06 -0.03,-0.42 -0.75,-1.78 -0.39,-0.86 -0.57,-1.27 -0.24,-1.95 0.36,-3.04 -0.11,-0.69 0,0 -0.54,-1.56 0.01,-1.14 0.56,-1.88 0,0 0.28,-1.07 0.39,-0.6 0.6,-0.5 0.08,-0.44 -0.44,-0.38 -0.17,-0.46 0.11,-0.54 -0.39,-1.3 -1.33,-3.09 -0.19,-1.05 -0.23,-0.65 -0.25,-1.43 -0.25,-1.43 -0.25,-1.43 -0.25,-1.43 -0.25,-1.44 -0.25,-1.44 -0.25,-1.44 -0.25,-1.44 -0.25,-1.45 -0.25,-1.45 -0.25,-1.45 -0.25,-1.45 -0.25,-1.45 -0.25,-1.46 -0.25,-1.46 -0.25,-1.46 3.06,0.04 3.06,0.04 3.06,0.04 3.06,0.04 2.85,-0.04 2.85,-0.04 2.85,-0.04 2.85,-0.04 -0.06,0.01 -0.46,0.77 -1.38,1.45 -0.37,1.11 1.78,1.24 0.01,0.01 1.06,1 0.73,0.39 0.74,0.12 0.46,0.33 0.27,0.8 0,0 2.16,3.95 0,0 2.24,2.03 0.9,1 0.45,0.96 1.91,1.58 0.65,0.85 0.03,0.64 0.23,0.46 0.42,0.27 0.4,0.58 0.39,0.88 0.76,0.77 1.14,0.65 0.83,1.49 0.53,2.31 0.54,1.34 0.82,0.56 1.12,1.97 0.36,1.17 -0.02,1.03 0.57,0.8 1.88,0.86 z m -5.15,11.62 -0.42,2.66 -0.18,-0.94 -0.02,-0.91 0.32,-0.54 0.3,-0.27 z" 
                fill="rgb(151, 144, 238)" 
                stroke="white" 
                stroke-width=".7px"
                title="Georgia" 
                id="US-GA" 
            />
        </svg>