<svg xmlns="http://www.w3.org/2000/svg" viewBox="574.4744400000003 445.19606 57.899999999999636 93.77999999999997" width="57.899999999999636" height="93.77999999999997">
            <path 
                d="m 632.36444,506.79606 0,2.05 0.01,2.04 0,2.04 0,2.04 0,2.03 0,2.02 0,2.02 0,2.01 0,2.01 0,2 0,2 0,1.99 0,1.99 0,1.98 0,1.98 0,1.97 -1.76,0 -1.76,0 -1.76,0 -1.76,0 -1.76,0 -1.76,0 -1.76,0 -1.76,0 -1.76,0 -1.76,0 -1.76,0 -1.76,0 -1.76,0 -1.76,0 -1.76,0 -1.76,0 -3.5,0 -3.5,0 -3.5,0 -3.5,0 -3.5,0 -3.5,0.01 -3.5,0 -3.5,0 0,-2.82 -0.01,-2.84 0,-2.84 -0.01,-2.85 0,-2.86 0,-2.88 -0.01,-2.88 0,-3.18 -0.01,-0.07 0.6,-1.96 0.12,-0.96 -0.15,-0.54 0.1,-0.52 0.36,-0.5 -0.01,-0.56 -0.38,-0.59 -0.72,-0.4 -1.04,-0.19 -0.54,-0.71 -0.04,-1.21 0.78,-1.87 1.6,-2.53 0.87,-1.79 0.16,-1.06 0.96,-2.44 1.77,-3.84 0.68,-2.47 -0.41,-1.08 -0.91,-1.04 -1.39,-0.99 -0.98,-1.16 -0.26,-0.59 -0.32,-0.73 -0.16,-0.92 0.24,-0.53 -0.2,-0.93 -0.63,-1.33 -0.27,-0.9 0.06,-0.32 0.07,-0.13 -0.01,-2.18 0,-2.2 -0.01,-2.2 -0.01,-2.2 -0.01,-2.21 -0.01,-2.22 0,-2.23 -0.01,-2.23 -0.01,-2.24 -0.01,-2.24 0,-2.26 -0.01,-2.26 -0.01,-2.27 -0.01,-2.27 0,-2.28 -0.02,-2.28 3.03,0 4.01,0 2.28,0 0,3.52 0,3.51 0,3.49 0,3.48 1.01,1.41 0.75,0.86 0.48,0.93 0.73,0.97 0.14,0.35 0.26,1.04 -0.19,0.75 0.39,0.77 -0.07,0.37 -0.29,0.2 -0.06,0.06 0.01,0.08 0.1,0.12 1.03,0.73 1.01,1.02 1.28,0.7 0.41,0.41 1.69,2.02 0.88,1.29 0.92,0.94 0.46,1.07 0.95,0.93 0.24,0.48 0.06,0.1 0.13,0.01 0.59,-0.22 0.15,0.06 0.29,0.37 0.06,0.56 0.21,0.24 0.37,0.13 0.42,0.04 1.29,-0.27 0.28,0 0.14,0.11 0.06,0.3 -0.02,0.49 -0.13,0.7 -0.39,0.69 0.07,0.64 -0.31,1.48 -0.29,1 -0.03,0.96 -0.36,0.56 0.2,0.66 -0.14,1 0.13,0.26 0.46,0.46 0.18,1.23 -0.08,0.23 -0.82,0.48 -0.28,0.31 -0.11,0.45 0.36,1.29 -0.35,0.71 -0.04,0.61 0.08,0.16 0.76,0.33 0.92,0.72 0.29,0.16 0.21,-0.03 0.39,-0.24 0.43,-0.49 0.88,-0.5 1.04,-1.06 0.05,-0.3 0.08,-0.16 0.14,0 0.33,0.15 0.65,0.64 0.57,0.36 0.1,0.08 0.05,0.18 -0.03,0.64 0.32,0.5 0.09,0.82 0.33,0.83 0.23,0.99 0.85,1.28 0.46,0.91 0.51,0.42 0.31,0.48 0.22,0.58 0.09,0.47 -0.3,0.85 0.08,0.35 0.27,0.38 0.88,0.88 0.17,0.07 0.82,-0.09 0.44,0.14 0.44,0.44 0.44,0.66 0.29,0.67 0.08,0.79 0.45,0.87 0.06,0.77 0.28,0.34 0.56,0.46 0.54,0.28 0.21,0.02 0.15,-0.12 0.05,-0.43 0.21,-0.32 0.67,-0.46 0.64,0.01 2.41,0.38 0.16,-0.02 0.11,-0.13 0.41,-0.7 0.33,-0.28 0.51,-0.09 1.48,0.18 1.71,-0.1 0.89,0.2 1.3,-0.26 1.5,0.19 0.2,-0.11 0.04,-0.15 -0.13,-0.26 -0.02,-0.52 0.3,-0.62 0.1,-0.53 0.31,-0.3 0.4,-0.16 0.33,0.02 0.32,0.28 0.36,0.47 0.64,1.28 0.34,0.46 0.41,0.4 z" 
                fill="rgb(151, 144, 238)" 
                stroke="white" 
                stroke-width=".7px"
                title="Idaho" 
                id="US-ID" 
            />
        </svg>