<svg xmlns="http://www.w3.org/2000/svg" viewBox="816.4044399999998 532.4760600000003 37.500000000000455 67.39999999999975" width="37.500000000000455" height="67.39999999999975">
            <path 
                d="m 851.13444,532.68606 -0.01,1.98 0.15,1.64 0.28,0.73 0.33,0.54 0.35,0.34 0.41,1.06 0.46,1.78 0.43,1.17 0.34,0.48 -0.02,3.35 -0.01,3.74 -0.01,3.73 -0.02,3.7 -0.01,3.7 -0.01,3.67 -0.02,3.66 -0.01,3.44 0,0.06 -0.44,0.37 -0.3,0.64 0.08,0.69 -0.12,0.49 -0.3,0.3 0.15,0.75 0.59,1.2 0.36,1.19 0.12,1.17 -0.11,0.83 -0.51,0.76 -0.49,1.64 -0.42,0.65 -0.52,0.22 -0.46,0.61 -0.4,1 -0.43,0.48 -0.46,-0.03 -0.34,0.19 -0.22,0.39 0.03,0.41 0.27,0.44 -0.09,0.4 -0.45,0.37 0.01,0.18 0.14,0.11 -0.05,0.17 -0.29,0.18 -0.17,0.55 0.02,0.91 -0.16,0.46 -0.3,0.02 -0.04,0.25 0.5,1.03 -0.29,0.21 -0.52,0.85 -0.11,0.93 0.31,1.02 -0.78,0.83 -1.88,0.62 -0.99,0.56 -0.11,0.48 0.13,0.73 0.37,0.98 0.07,0.68 -0.24,0.38 -1.34,-0.26 -2.44,-0.89 -1.63,0.03 -0.83,0.95 -0.29,0.72 0.1,0.58 -0.66,-0.71 -0.45,-0.32 -0.08,0.02 -0.1,0.09 -0.04,0.22 0.03,0.16 0.06,0.18 -0.03,0.11 -0.11,0.01 -0.48,-0.27 -0.58,-0.79 -0.69,-1.3 -0.15,-1.03 0.39,-0.77 0,-0.8 -0.39,-0.85 -0.19,-0.83 0,-0.81 -0.94,-1.22 -1.88,-1.62 -1.38,-1.01 -0.89,-0.38 -1.03,-0.81 -1.18,-1.25 -0.63,-0.96 -0.08,-0.66 0.54,-1.77 1.56,-3.88 0.18,-0.45 0.05,-0.17 -0.07,-0.17 -0.15,-0.16 -0.66,-0.46 -1.26,-0.39 -1.17,-0.21 -0.93,0.46 -0.81,-0.94 -0.7,-2.35 -1.71,-2.48 -2.74,-2.62 -1.59,-1.79 -0.44,-0.94 -0.39,-1.42 -0.32,-1.9 0.01,-1.57 0.55,-1.89 0.48,-0.22 0.1,-0.62 -0.13,-1.1 0.52,-0.83 1.16,-0.56 1.07,-1.24 0.96,-1.92 0.43,-1.38 -0.09,-0.83 -0.35,-0.79 -0.62,-0.75 -0.14,-0.92 0.32,-1.11 1.03,-0.71 1.73,-0.3 1.58,-0.56 1.41,-0.83 0.84,-0.89 0.27,-0.98 0.4,-0.76 0.55,-0.54 0.39,-0.89 0.23,-1.23 0.03,-0.91 -0.17,-0.59 -0.62,-0.68 -1.07,-0.77 -0.6,-0.73 -0.14,-0.68 -0.56,-0.73 -0.99,-0.78 -0.57,-0.87 4.32,0.04 4.24,0.03 4.24,0.03 4.24,0.03 4.24,0.04 4.24,0.03 z" 
                fill="rgb(151, 144, 238)" 
                stroke="white" 
                stroke-width=".7px"
                title="Illinois" 
                id="US-IL" 
            />
        </svg>