<svg xmlns="http://www.w3.org/2000/svg" viewBox="848.4644400000001 541.9960599999999 31.120000000000232 48.49000000000001" width="31.120000000000232" height="48.49000000000001">
            <path 
                d="m 879.52444,542.73606 -0.03,4.08 -0.04,4.06 -0.03,4.03 -0.03,4.02 -0.03,4 -0.03,3.97 -0.04,3.96 -0.01,4.02 -0.15,0.11 -0.22,0.52 0.24,0.53 -0.01,0.43 -0.26,0.33 0.09,0.24 0.44,0.16 0.17,0.38 -0.1,0.59 -0.95,0.59 -1.81,0.68 -0.4,0.19 -0.32,0.09 -0.15,-0.04 0,0 -0.24,-0.13 -0.33,-0.27 -0.57,-0.13 -0.93,0.09 -0.37,0.56 0.19,1.04 -0.32,0.8 -0.82,0.55 -0.59,0.73 -0.35,0.91 -0.57,0.55 -0.77,0.19 -0.63,0.84 -0.48,1.48 -0.52,0.91 -0.56,0.36 -0.78,-0.09 -0.98,-0.54 -0.56,-0.54 -0.15,-0.57 -0.29,-0.4 -0.27,-0.18 -0.18,0 -0.01,0.08 0.08,0.16 -0.1,0.17 -0.61,0.06 -0.26,0.23 0.09,0.41 -0.14,0.28 -0.35,0.17 -0.19,0.39 -0.02,0.61 -0.25,0.56 -0.47,0.5 -0.7,-0.17 -0.91,-0.84 -0.93,-0.2 -0.95,0.46 -0.7,0.61 -0.47,0.77 -0.44,0.19 -0.65,-0.59 -1.53,-0.81 -0.8,-0.17 -0.58,0.19 -0.4,-0.09 -0.14,-0.22 -0.11,-0.09 -0.11,0.11 -0.01,0.71 -0.14,0.44 -0.26,0.19 -0.2,-0.15 -0.14,-0.48 -0.33,-0.16 -0.52,0.17 -0.53,-0.07 -0.46,-0.29 -0.17,0.03 -0.13,0.14 0.04,0.55 -0.1,0.44 -0.24,0.29 -0.34,0.07 -0.45,-0.15 -0.19,0.14 -0.5,-1.03 0.04,-0.25 0.3,-0.02 0.16,-0.46 -0.02,-0.91 0.17,-0.55 0.29,-0.18 0.05,-0.17 -0.14,-0.11 -0.01,-0.18 0.45,-0.37 0.09,-0.4 -0.27,-0.44 -0.03,-0.41 0.22,-0.39 0.34,-0.19 0.46,0.03 0.43,-0.48 0.4,-1 0.46,-0.61 0.52,-0.22 0.42,-0.65 0.49,-1.64 0.51,-0.76 0.11,-0.83 -0.12,-1.17 -0.36,-1.19 -0.59,-1.2 -0.15,-0.75 0.3,-0.3 0.12,-0.49 -0.08,-0.69 0.3,-0.64 0.44,-0.37 0,-0.06 0.01,-3.44 0.02,-3.66 0.01,-3.67 0.01,-3.7 0.02,-3.7 0.01,-3.73 0.01,-3.74 0.02,-3.35 0.06,0.09 0.35,0.32 0.28,0.18 0.21,0.03 0.12,0.28 0.53,0.16 0.97,0.07 0.89,-0.11 0.81,-0.29 1.98,-1.14 2.33,0 2.85,0 2.85,0.01 2.86,0 2.85,0 2.85,0 2.86,0 z" 
                fill="rgb(151, 144, 238)" 
                stroke="white" 
                stroke-width=".7px"
                title="Indiana" 
                id="US-IN" 
            />
        </svg>