<svg xmlns="http://www.w3.org/2000/svg" viewBox="834.67444 574.4960599999995 71.4799999999999 31.179999999999836" width="71.4799999999999" height="31.179999999999836">
            <path 
                d="m 900.07444,582.61606 0.22,0.33 0.1,1.77 -0.07,0.35 -0.32,0.72 0.02,0.38 0.27,0.6 1,1.38 0.1,0.54 0.39,0.53 0.34,0.78 1.07,1.67 1.66,1.38 1.3,0.37 -3.56,2.87 -1.63,1.04 -1.55,0.83 -0.13,0.14 -0.35,0.92 -0.94,0.81 -0.59,0.85 -1.41,0.71 -1,0.97 -2.51,0.95 -1.41,0.33 -0.95,0.56 -0.07,0.03 -0.07,0.03 -0.07,0.03 -0.07,0.03 -0.07,0.03 -0.07,0.03 -0.07,0.03 -0.07,0.03 -3.27,-0.11 -3.27,-0.11 -3.27,-0.11 -3.27,-0.11 -3.27,-0.11 -3.27,-0.11 -3.27,-0.11 -3.27,-0.11 -3.13,0.06 -3.13,0.06 -3.13,0.06 -3.13,0.06 -0.28,-0.36 -0.82,-0.08 -1.27,-0.13 -0.05,0 0.37,1.2 0.01,1.04 -0.03,0.01 -1.47,0 -1.63,0 -1.63,0 -1.63,0 -1.63,0 -1.63,0 -1.63,0 -1.87,0 0.5,-1.02 0.43,-0.27 0.2,-0.05 0.47,0.19 0.23,0.07 0.5,-0.36 0.44,-1.05 0.25,-1.12 0.07,-1.18 -0.3,-0.94 -0.1,-0.58 0.29,-0.72 0.83,-0.95 1.63,-0.03 2.44,0.89 1.34,0.26 0.24,-0.38 -0.07,-0.68 -0.37,-0.98 -0.13,-0.73 0.11,-0.48 0.99,-0.55 1.87,-0.63 0.78,-0.82 -0.31,-1.02 0.11,-0.93 0.52,-0.85 0.29,-0.21 0.19,-0.14 0.44,0.15 0.34,-0.07 0.24,-0.28 0.1,-0.44 -0.04,-0.56 0.13,-0.13 0.17,-0.03 0.46,0.29 0.52,0.07 0.52,-0.17 0.33,0.16 0.14,0.49 0.2,0.15 0.26,-0.19 0.14,-0.45 0.01,-0.71 0.11,-0.11 0.11,0.09 0.14,0.22 0.4,0.09 0.58,-0.2 0.8,0.17 1.54,0.82 0.64,0.59 0.45,-0.19 0.46,-0.77 0.71,-0.61 0.94,-0.45 0.93,0.19 0.92,0.84 0.7,0.17 0.48,-0.5 0.25,-0.55 0.02,-0.61 0.19,-0.39 0.35,-0.17 0.13,-0.29 -0.08,-0.41 0.26,-0.23 0.61,-0.06 0.1,-0.17 -0.07,-0.16 0.01,-0.08 0.18,0 0.26,0.18 0.29,0.4 0.15,0.56 0.57,0.55 0.98,0.53 0.77,0.09 0.57,-0.35 0.52,-0.92 0.48,-1.48 0.63,-0.84 0.77,-0.19 0.56,-0.55 0.35,-0.91 0.59,-0.73 0.83,-0.55 0.32,-0.8 -0.19,-1.04 0.37,-0.56 0.93,-0.09 0.57,0.12 0.33,0.28 0.24,0.13 0,0 0.15,0.04 0.32,-0.08 0.39,-0.2 1.81,-0.67 0.95,-0.6 0.1,-0.59 -0.17,-0.38 -0.44,-0.16 -0.09,-0.25 0.26,-0.33 0.01,-0.43 -0.24,-0.53 0.22,-0.52 0.15,-0.11 0.53,-0.4 0.55,-0.05 0.44,0.42 0.62,0.1 0.81,-0.21 0.74,0.14 0.68,0.5 0.64,0.91 0.59,1.32 1.07,0.8 1.55,0.29 1.13,0.52 0.71,0.74 0.59,0.24 0.69,-0.4 0.73,-0.21 0.73,0.25 0.98,0.63 1.45,-0.14 1.91,-0.9 1.13,0.04 0.34,0.99 0.81,1.04 1.29,1.08 0.1,-0.03 z m -64.71,22.98 -0.66,0.02 -0.03,-0.14 0.04,-0.32 0.05,-0.14 0.13,-0.03 0.15,0 0.21,0.3 0.11,0.31 z" 
                fill="rgb(151, 144, 238)" 
                stroke="white" 
                stroke-width=".7px"
                title="Kentucky" 
                id="US-KY" 
            />
        </svg>