<svg xmlns="http://www.w3.org/2000/svg" viewBox="1008.6643999999995 466.7860599999999 38.540000000001214 58.60000000000025" width="38.540000000001214" height="58.60000000000025">
            <path 
                d="m 1027.7144,469.08606 0.05,0.29 0.43,0.51 0.62,0.35 0.47,0.12 0.55,-0.01 1.51,-0.69 1.77,-0.45 0.97,-0.42 0.18,-0.39 0.44,-0.14 0.71,0.12 1.31,0.98 1.52,1.48 1.21,1.17 0.04,2.02 0.02,2.14 0.03,2.25 0.02,1.6 0.03,2.19 0.02,1.74 0.03,2.26 0.02,1.21 0.17,0.35 -0.1,0.47 -0.04,0.24 0.01,0.19 0.07,0.24 -0.01,0.33 -0.15,0.3 -0.08,0.35 -0.02,0.57 0.17,0.35 0.28,0.21 0.23,0 0.3,0.21 0.39,0.36 0.59,0.31 0.61,0.11 0.42,-0.08 0.51,0.21 0.18,0.5 -0.1,0.47 -0.29,0.22 -0.31,0.17 -0.05,0.36 0.15,0.38 0.22,0.33 0.24,0.58 -0.1,0.5 -0.22,0.42 -0.1,0.44 0.19,0.38 0.5,0.5 0.31,0.48 0.49,0.27 0.23,-0.19 0.19,-0.25 0.2,-0.19 0.34,0.11 0.4,0.14 0.43,0.17 -0.05,0.41 0.26,0.68 0.21,1.31 -0.32,0.59 0.07,0.79 0.87,0.23 0.21,0.24 0.04,0.29 -1.92,2.01 -1.63,-0.28 -0.88,0.53 -0.92,0.16 -0.41,0.9 -0.51,0.19 -0.69,-0.05 -0.6,-0.25 -0.46,0.12 -0.64,1.61 -0.52,-0.14 -0.21,0.58 -0.27,0.25 -0.4,0.22 -0.35,-0.72 -0.22,-0.68 -0.33,-0.15 -0.43,-0.17 -0.45,0.01 -0.3,0.1 -0.37,0.44 -0.54,0.38 -0.41,-0.31 -0.32,-0.51 -0.27,0.81 -0.39,0.86 0.07,1 -0.17,0.59 -0.38,-0.16 -0.37,-0.52 -1.05,-0.42 -0.83,0.04 0.17,-0.56 0.79,-0.8 -0.24,-0.16 -0.39,0.11 -0.17,-0.11 0.28,-0.73 0.03,-0.8 -0.35,0.28 -0.44,0.85 -1.07,0.67 0.05,1.13 -1.01,2.3 -0.05,0.98 -0.65,0.78 -0.84,0.67 -1.12,-0.19 -0.85,0.58 -0.43,0.67 -0.38,0.1 -0.2,-0.85 -0.14,-0.26 -0.31,1.25 -0.32,0.08 -0.12,-0.89 -0.15,-0.59 -0.44,0.51 -0.29,1.34 -0.3,-0.11 -0.1,-0.5 -0.22,-0.15 -0.07,0.57 0.11,0.8 -0.16,0.43 -0.3,-0.23 -0.3,-0.38 -0.5,0.29 -0.46,0.12 0,-0.39 0.09,-0.48 -0.91,0.27 -1.1,0.89 -0.85,1.23 0.29,0.2 0.33,0.39 -1.48,1.89 -1.52,1.7 -1.15,2.76 -0.46,0.32 -0.4,0.5 -0.75,-1.2 -0.15,-0.97 -0.85,-1.15 -0.34,-0.79 -0.11,-0.89 0.05,-0.96 -0.07,-1.44 -0.07,-1.44 -0.07,-1.44 -0.07,-1.44 -0.07,-1.45 -0.07,-1.45 -0.07,-1.45 -0.07,-1.45 -0.07,-1.46 -0.07,-1.46 -0.07,-1.46 -0.07,-1.47 -0.07,-1.47 -0.07,-1.47 -0.07,-1.47 -0.07,-1.32 0.23,-0.2 0.57,-0.38 0.37,0.05 0.32,0.57 0.27,0.38 0.31,-0.11 0.27,-0.53 -0.01,-0.74 0.36,-0.52 0.43,-0.08 0.4,0.02 0.2,-0.25 -0.02,-0.36 -0.14,-0.58 0.05,-0.7 1,-1.24 1.22,-0.84 0.43,-0.42 0.12,-0.86 0.7,-0.89 0.35,-0.51 0.09,-0.45 -0.18,-0.55 0.02,-1.05 0.24,-1.25 0.29,-1.37 0.65,-1.23 1.06,-1.35 0.27,-1.78 0.29,-1.88 1.28,-1.84 1.45,-2.09 0.83,-1.19 1.49,-2.17 1.06,-1.55 0.53,-0.71 0.56,-0.85 0.91,0.25 0.9,0.25 -0.13,1.23 0.01,0.57 z m 8.16,39.89 -0.55,0.26 -0.6,-0.11 0.01,0.69 -0.07,0.25 -0.67,-0.36 -0.24,-0.23 0.02,-0.92 0.59,-0.87 0.45,-0.34 0.58,0.24 0.44,0.97 0.04,0.42 z m -4.11,1.79 -0.36,0.26 -0.38,-0.08 -0.01,-0.65 0.12,-0.22 0.13,-0.1 0.2,0.18 0.3,0.61 z" 
                fill="rgb(151, 144, 238)" 
                stroke="white" 
                stroke-width=".7px"
                title="Maine" 
                id="US-ME" 
            />
        </svg>