<svg xmlns="http://www.w3.org/2000/svg" viewBox="826.644440000001 456.78606 75.32999999999879 85.94999999999959" width="75.32999999999879" height="85.94999999999959">
            <path 
                d="m 840.37444,460.29606 -0.05,0.23 0.34,0.07 -0.06,0.12 -0.37,0.21 -1.05,0.43 -0.71,0.14 -0.36,-0.15 -0.04,-0.29 0.29,-0.42 0,-0.21 -0.29,0 0.07,-0.17 0.43,-0.33 3.68,-2.12 1.57,-0.77 0.84,-0.25 0.14,0.12 -0.91,0.8 -0.15,0.33 0.04,0.22 -0.3,0.42 -2.69,1.48 -0.42,0.14 z m 6.9,9.95 -0.17,0.45 0.03,0.27 -1.14,1.18 -0.42,0.75 -0.35,0.12 -0.28,-0.51 0,-0.41 0.28,-0.31 0.28,-0.44 0.04,-0.61 -0.11,-0.22 -0.35,0.55 0.19,0.12 0.06,0.09 -0.07,0.2 -1.31,-0.29 -0.4,-0.43 0.06,-0.59 0.44,-0.76 1.58,-1.61 0.7,-0.45 1.98,-0.71 1.09,-0.16 1.1,0 0.79,0.23 0.49,0.47 -0.47,0.31 -2.17,0.26 -0.06,0.08 0.41,0.25 0.08,0.18 -0.38,0.47 -1.92,1.52 z m 36.37,9.69 0.29,0.18 0.2,0.3 0.49,0.84 0.24,0.57 0.15,0.84 0.1,0.28 -0.01,0.49 -0.33,0.33 -0.09,0.26 0.2,0.26 1.11,0.07 0.51,0.26 0.19,0.29 -0.13,0.32 0.07,0.34 0.27,0.36 0.89,0.55 0.22,0.26 -0.06,0.28 -0.27,0.18 -0.47,0.08 -3.41,-0.52 -1,-0.08 -0.15,0.19 -0.1,0.03 -0.16,-0.05 -0.29,-0.01 -0.15,-0.12 -0.12,-0.34 -0.3,-0.22 -0.47,-0.1 -0.41,0.26 -0.47,1.02 0.07,0.19 -0.08,0.66 0.12,0.18 -0.01,0.15 -0.13,0.12 -0.28,-0.02 -0.42,-0.16 -1.6,-1.55 -1.21,-0.77 -1.5,-0.57 -1.19,-0.28 -0.87,0.01 -0.72,0.4 -0.56,0.78 -0.88,0.44 -1.19,0.11 -0.65,0.21 -0.1,0.31 -0.43,0.01 -0.76,-0.3 -0.78,-0.08 -0.81,0.13 -0.59,0.31 -0.63,0.96 -0.12,0.47 -0.45,0.41 -1.2,0.64 -0.06,0.24 -0.63,0.73 -0.2,0.4 0,0.39 -0.21,-0.02 -0.43,-0.44 -0.02,-0.59 0.39,-0.75 0.35,-0.36 0.31,0.02 0.19,-0.33 0.07,-0.68 -0.11,-0.34 -0.6,0.13 -0.31,0.27 -0.4,0.06 -0.48,-0.16 -0.42,0.37 -0.37,0.9 -0.44,0.59 -0.51,0.28 -0.34,-0.31 -0.17,-0.89 0,-0.7 0.21,-0.85 -0.11,-0.17 -0.21,0.27 -0.32,0.71 -0.43,1.54 -0.28,0.5 -0.37,0.21 -0.59,0.93 -0.81,1.65 -0.91,1.6 -1.01,1.54 -0.61,0.83 -0.2,0.12 -0.09,0.28 -0.03,0.64 -0.45,-0.18 -0.38,-0.52 -0.23,-0.54 -0.02,-0.55 0.55,-1.37 0.05,-0.22 -0.06,-0.13 -0.3,-0.15 -0.68,0.25 -0.69,0.05 -0.22,-0.09 -0.09,-0.24 0.01,-0.37 0.14,-0.44 0.41,-0.81 0,-0.77 0.19,-0.44 -0.18,-0.82 0.05,-0.39 -0.29,-0.43 -0.78,-0.56 -1.82,-0.75 0.19,-0.84 -0.08,-0.36 -0.45,-0.54 -1.91,-0.63 -1.3,-0.29 -1.29,-0.01 -0.92,-0.23 -1.04,-0.07 -0.66,-0.38 -0.66,-0.38 -0.66,-0.38 -0.66,-0.38 -1.18,-0.33 -1.18,-0.33 -1.18,-0.33 -1.18,-0.33 -1.18,-0.33 -1.18,-0.33 -1.18,-0.33 -1.18,-0.33 -0.26,-0.57 -0.26,-0.57 -0.26,-0.57 -0.26,-0.57 -0.54,-0.24 -0.29,-0.13 -0.21,-0.3 -0.48,0.13 -0.19,-0.5 0.05,-0.11 0.62,-0.13 1.77,-0.71 1.51,-0.87 1.25,-1.03 1.56,-0.63 1.87,-0.23 1.33,-0.36 0.81,-0.5 1.08,-0.97 0.61,-0.28 0.76,-0.09 0.57,-0.38 0.39,-0.66 0.73,-0.75 1.07,-0.85 0.61,-0.34 0.15,0.16 0.06,0.3 -0.04,0.44 0.27,0.35 0.58,0.27 0.26,0.36 -0.05,0.45 0.16,0.38 0.36,0.31 0.1,0.68 -0.17,1.05 -0.02,0.68 0.13,0.31 0.13,0.17 0.21,-0.17 0.26,-0.37 0.09,-0.23 0.07,-0.23 1.57,-1.06 0.31,-0.05 0.51,0.27 2.37,0.38 0.94,0.27 0.99,0.61 0.33,0.23 1.21,1.96 0.55,0.77 0.34,0.21 0.19,0.3 0.16,0.69 0.19,0.21 1.76,0.15 0.8,-0.13 0.49,-0.28 0.54,0.18 0.59,0.64 0.58,0.18 0.58,-0.28 0.54,0.01 0.51,0.3 0.24,0.22 0.15,-0.01 1,-0.97 1.21,-0.86 1.61,-0.94 0.93,-0.42 0.26,0.1 1.49,-0.31 1.34,-0.03 1.77,0.19 1.64,-0.22 1.51,-0.63 1.34,-0.35 1.17,-0.08 0.44,0.18 -0.29,0.42 -0.15,0.73 -0.02,1.03 -0.1,0.65 -0.18,0.27 -0.02,0.26 0.13,0.25 1.13,0.16 0.59,0.33 0.68,0.01 0.77,-0.3 0.59,0.11 0.41,0.53 0.59,0.1 0.58,-0.38 0.41,-0.36 0.35,-0.16 0.24,0.05 z m 2.12,1.94 0,0.29 -0.29,-0.07 -0.24,-0.2 -0.19,-0.33 -0.24,-0.82 -0.37,-0.58 0.55,-0.66 0.33,-0.08 0.36,0.15 0.05,0.39 -0.26,0.62 0.01,0.64 0.29,0.65 z m 0.12,1.58 -0.13,0.08 -0.47,-0.53 -0.1,-0.33 0.07,-0.27 0.18,-0.01 0.3,0.25 0.17,0.29 0.04,0.33 -0.06,0.19 z m 5.81,3.15 0.09,0.3 -0.23,0.44 -0.66,0.23 -1.34,-0.02 -0.87,-0.17 -0.4,-0.32 -0.09,-0.16 0.04,-0.35 0.19,-0.02 0.29,0.19 0.43,-0.08 0.57,-0.36 0.3,-0.27 0.03,-0.18 -0.18,-0.34 0.15,-0.14 0.71,0.13 0.26,0.22 0.48,0.76 0.23,0.14 z m -9.92,2.6 1.21,0.19 0.12,-0.1 0.34,0.36 0.05,0.3 -0.14,0.25 -0.21,0.14 -0.27,0.02 -0.43,-0.26 -0.71,-0.68 0.04,-0.22 z m -1.93,0.38 0.67,0.25 1.21,0.83 1.14,0.48 1.08,0.14 0.79,0.29 0.5,0.45 0.36,0.5 0.22,0.55 0.52,0.31 0.81,0.07 0.64,0.23 0.47,0.4 2.59,1.03 1.08,0.54 0.6,0.53 0.17,0.34 -0.05,0.34 0.06,0.36 0.44,0.7 0.17,0.06 0.1,0.34 0.04,0.61 0.13,0.41 0.22,0.21 -0.13,0.08 -0.8,-0.35 -0.45,0.11 -0.21,0.46 -0.03,0.43 0.15,0.41 1.02,1.22 0.27,1.11 0.05,1.34 -0.13,0.52 -0.11,1.15 -0.08,1.78 -0.02,0.61 -0.34,0.59 -0.91,0.85 -0.01,-0.16 -0.22,-0.04 -0.24,0.13 -0.33,0.73 -0.28,1.33 -0.34,0.72 -0.4,0.11 -0.24,0.19 -0.08,0.27 -0.43,0.18 -0.79,0.09 -0.54,0.4 -0.4,1.13 0.02,0.54 -0.19,0.67 0.01,0.58 0.21,0.48 0.64,0.48 1.06,0.48 0.63,0.07 0.44,-0.2 0.46,-0.79 0.44,-0.31 0.54,-0.13 0.2,-0.36 0.89,-1.57 0,-0.35 -0.32,-0.13 0.05,-0.1 0.42,-0.06 0.36,-0.21 0.31,-0.36 0.54,-0.27 1.32,-0.41 0.71,-0.47 0.45,-0.08 0.65,0.25 0.85,0.58 0.67,0.84 0.5,1.1 0.63,2.85 0.76,4.58 0.52,2.55 0.28,0.54 0.14,0.27 -0.67,3.56 -0.54,1.46 -0.94,0.85 -0.93,0.82 -1.16,1.38 -1.28,0.68 -0.65,0.4 -0.14,0.26 -0.16,-0.08 -0.35,0.75 -0.31,1.03 -0.12,0.79 0.11,0.44 -0.27,0.28 -0.48,0.52 -0.09,0.19 0.03,0.31 -0.1,0.15 -0.23,-0.01 -0.18,0.15 -0.43,0.55 -0.75,1.43 -0.12,0.26 -0.09,0.08 -3.13,0.12 -3.13,0.12 -3.13,0.12 -3.13,0.12 0,-0.73 -2.85,0 -2.85,0 -2.85,0 -2.85,0 -2.85,0 -2.85,0 -2.33,0 0.61,-0.35 1,-0.82 0.56,-0.73 0.54,-0.96 0.52,-1.19 1.06,-1.79 0.52,-1.08 0.5,-1.38 0.38,-1.44 0.25,-1.51 0.12,-1.57 -0.01,-1.63 -0.25,-1.64 -0.49,-1.66 -0.27,-0.85 -0.1,-0.23 -0.89,-2.13 -1.01,-2.98 0.01,-0.25 0.94,-1.78 0.02,-0.24 -0.1,-1.45 -0.2,-0.73 -0.48,-0.98 0.02,-0.25 0.98,-1.25 0.59,-0.95 0.53,-1.16 0.35,-1.35 0.16,-1.55 0,-1.03 -0.17,-0.52 0.02,-0.4 0.21,-0.28 1.05,-0.36 0.35,-0.61 0.08,-1.08 0.21,-0.54 0.35,0.01 0.33,-0.22 0.3,-0.45 0.4,-0.13 0.5,0.2 0.69,-0.67 0.89,-1.54 0.68,-0.86 0.48,-0.18 0.09,0.14 -0.3,0.46 -0.09,0.51 0.12,0.55 -0.1,0.53 -0.22,0.73 0.14,0.23 -0.38,1.17 -0.02,0.58 0.23,0.44 0.28,-0.15 0.32,-0.75 0.1,-0.4 -0.13,-0.05 0.05,-0.32 0.22,-0.59 0.2,-0.28 0.17,0.03 0.05,0.32 -0.08,0.61 -0.51,1.45 -0.1,0.44 0.11,0.12 0.61,-0.9 0.51,-1.44 0.39,-1.11 0.07,-0.6 -0.12,-1.56 0.02,-0.64 0.15,-0.44 0.53,-0.5 0.91,-0.56 0.9,-0.3 0.89,-0.04 0.62,-0.15 0.35,-0.27 -0.12,-0.21 -0.6,-0.16 -0.45,-0.35 -0.31,-0.54 -0.1,-0.62 0.1,-0.7 0.38,-0.69 0.66,-0.67 0.21,-0.5 -0.24,-0.32 0.28,-0.11 0.81,0.09 0.56,-0.09 0.32,-0.27 -0.04,0 z m -7.43,2.55 -0.32,0.07 -0.25,-0.16 0.04,-0.63 0.33,-1.1 0.32,-0.5 0.43,0.2 -0.09,0.13 0.09,1.17 -0.16,0.52 -0.39,0.3 z m -4,6.68 -0.11,0.19 -0.26,-0.02 -0.21,-0.18 -0.2,-0.58 0.07,-0.13 0.51,0.08 0.18,0.25 0.02,0.39 z" 
                fill="rgb(151, 144, 238)" 
                stroke="white" 
                stroke-width=".7px"
                title="Michigan" 
                id="US-MI" 
            />
        </svg>