<svg xmlns="http://www.w3.org/2000/svg" viewBox="762.464440000001 439.7960600000001 72.02999999999929 80.01999999999987" width="72.02999999999929" height="80.01999999999987">
            <path 
                d="m 798.73444,450.56606 1.13,-0.17 0.97,0.05 0.97,0.08 0.52,0.12 1.5,0.62 0.98,0.51 1.41,0.95 0.78,0.42 0.37,0.98 0.44,1.26 0.62,0 0.47,-0.74 1.19,-0.13 1.57,0.52 1.38,1.47 1.99,1.31 1.21,0.65 1.23,0 1.57,-0.65 1.67,-1.25 1.2,-0.22 0.71,0.12 0.4,0.98 0.5,0.37 1.29,-0.11 2.7,0.19 2.15,-0.27 0.49,0.56 0.44,0.88 0.87,0.28 1.18,-0.28 1.86,0.19 -0.26,0.14 -0.27,-0.03 -0.36,0.21 -0.45,0.45 -1.03,0.64 -1.61,0.84 -1.86,0.76 -3.77,1.38 -2.35,1.43 -1.04,0.86 -4.04,4.28 -2.44,2.27 -3.95,3.18 -0.37,0.4 -0.03,0.37 -0.17,-0.01 -0.65,0.77 -0.28,0.49 -0.64,0.14 0,1.97 0,1.96 0,1.96 0,1.95 -0.31,0.2 -0.39,0.46 -0.54,0.11 -2.54,1.6 -0.42,0.46 -0.46,1.07 -0.83,1.2 -0.21,0.64 0.04,0.86 1.27,0.69 0.47,0.66 0.23,0.81 -0.03,0.7 -0.64,1.37 -0.11,0.55 0.07,1.67 -0.32,0.52 0.26,1.35 0.02,0.47 -0.2,1.48 -0.14,0.43 0.25,0.77 0.03,0.08 1.19,1.06 1,0.59 0.9,0.19 0.7,0.45 0.51,0.72 0.68,0.47 0.86,0.22 0.88,0.6 1.34,1.46 0.67,1.24 1.17,0.88 1.9,0.94 1.24,0.83 0.59,0.71 0.39,1.81 0.31,3.82 -3.11,0.01 -3.06,0 -3.06,0 -3.06,0 -3.06,0 -3.06,0 -3.06,0 -3.06,0 -3.06,0 -3.06,0 -3.06,0 -3.06,0 -3.06,0 -3.06,0 -3.06,0 -3.06,0 0,-2.91 0,-2.92 0,-2.93 0,-2.94 0,-2.95 0,-2.96 0,-2.98 0,-2.99 -0.72,-0.99 -1.57,-0.8 -0.39,-0.48 -0.73,-1.2 -0.29,-0.51 -0.05,-0.4 0.35,-0.45 1.42,-1.3 0.45,-0.6 0.22,-0.58 0.33,-1.34 -0.13,-1.03 0.09,-1.61 -0.29,-1.21 -0.06,-0.6 -0.18,-0.75 -1.07,-1.98 -0.26,-1.6 -0.27,-0.79 -0.09,-2.04 0.03,-0.58 0.21,-1.11 -0.45,-0.75 -0.07,-0.62 -0.21,-4.9 -0.14,-0.7 0.04,-2.28 -0.82,-2.41 -0.39,-0.82 -0.2,-1 0.02,-0.48 -0.67,-1.65 -0.45,-1.83 0.04,-1.59 -0.14,-1.2 0.05,-0.94 -0.12,-1.41 0.14,-0.8 0.01,-1.25 -0.92,-4.45 1.15,0 4.01,0 4.01,0 4.01,0 4.01,0 2.22,0.02 0.04,-3.03 0.03,-2.4 2.03,0.29 0.61,0.44 0.19,0.21 -0.06,0.66 0.17,2 0.37,1.67 0.85,1.99 0,0.01 0.07,0.78 0.28,0.49 0.51,0.45 1.95,0.55 3.38,0.64 1.92,0.73 0.45,0.83 0.9,0.33 1.35,-0.16 0.95,-0.35 0.87,-0.79 z m 0,0 -0.04,0 0.04,0 0,0 z" 
                fill="rgb(151, 144, 238)" 
                stroke="white" 
                stroke-width=".7px"
                title="Minnesota" 
                id="US-MN" 
            />
        </svg>