<svg xmlns="http://www.w3.org/2000/svg" viewBox="776.2644400000005 556.15606 62.52999999999997 55.36999999999989" width="62.52999999999997" height="55.36999999999989">
            <path 
                d="m 816.96444,559.17606 -0.55,1.89 -0.01,1.57 0.32,1.9 0.39,1.42 0.44,0.94 1.59,1.79 2.74,2.62 1.71,2.48 0.7,2.35 0.81,0.94 0.93,-0.46 1.17,0.21 1.26,0.39 0.66,0.46 0.15,0.16 0.07,0.17 -0.05,0.17 -0.18,0.45 -1.56,3.88 -0.54,1.77 0.08,0.66 0.63,0.96 1.18,1.25 1.03,0.81 0.89,0.38 1.38,1.01 1.88,1.62 0.94,1.22 0,0.81 0.19,0.83 0.39,0.85 0,0.8 -0.39,0.77 0.15,1.03 0.69,1.3 0.58,0.79 0.48,0.27 0.11,-0.01 0.03,-0.11 -0.06,-0.18 -0.03,-0.16 0.04,-0.22 0.1,-0.09 0.08,-0.02 0.45,0.32 0.66,0.71 0.3,0.94 -0.06,1.18 -0.26,1.12 -0.44,1.05 -0.5,0.36 -0.22,-0.06 -0.48,-0.19 -0.19,0.06 -0.44,0.27 -0.49,1.02 -0.02,0.03 -0.18,0.1 -0.13,-0.1 -0.02,-0.06 -0.09,-0.3 -0.21,-0.31 -0.16,0 -0.13,0.02 -0.05,0.15 -0.05,0.32 0.03,0.14 0.16,0.87 -0.14,0.62 -0.46,0.25 -0.07,0.35 0.26,0.4 0,0.18 -0.1,0.14 -0.32,0.05 -0.24,0.09 -0.19,0.32 0.38,0.61 -0.08,0.73 -0.52,0.86 -0.07,0.34 -1.72,0.02 -1.55,0.03 -1.55,0.02 -1.55,0.03 0.74,-1.24 0.47,-0.44 0.35,-0.47 0.63,-0.44 0.69,-0.94 0.08,-0.44 -0.07,-0.43 -0.41,-0.59 -0.41,-0.92 -2.63,0 -2.62,0 -2.62,0 -2.62,0 -2.62,0 -2.63,0 -2.62,0 -2.62,0 -2.62,0 -2.62,0 -2.62,0 -2.63,0 -2.62,0 -2.62,0 -2.62,0 -2.62,0 0,-1.45 0,-1.47 0,-1.46 0,-1.47 0,-1.53 -0.01,-1.53 0,-1.54 0,-1.54 -0.01,-1.54 0,-1.54 -0.01,-1.55 0,-1.55 0,-1.55 -0.01,-1.56 0,-1.55 -0.01,-1.57 0,-1.56 0,-1.57 -0.01,-1.57 0,-1.57 0.02,-0.46 -1.46,-0.84 -0.66,-0.79 -0.33,-1.02 -0.66,-1.01 -0.99,-1 -0.16,-1.08 0.66,-1.14 0.56,-0.59 0.44,-0.02 0.05,-0.49 -0.35,-0.98 -0.51,-0.36 -0.67,0.25 -0.57,-0.02 -2.17,-1.58 -0.15,-0.11 -0.67,-1.05 -0.28,-1.25 -0.54,-0.82 -0.81,-0.38 -0.51,-0.82 -0.22,-1.28 -0.52,-1.29 -0.24,-0.38 2.35,-0.01 2.38,-0.02 2.37,-0.02 2.38,-0.02 2.37,-0.02 2.38,-0.01 2.37,-0.02 2.38,-0.02 2.37,-0.02 2.37,-0.02 2.38,-0.01 2.37,-0.02 2.38,-0.02 2.37,-0.02 2.38,-0.01 2.37,-0.02 0.47,0.9 0.51,0.26 0.1,0.29 0.67,0.46 0.15,0.46 z" 
                fill="rgb(151, 144, 238)" 
                stroke="white" 
                stroke-width=".7px"
                title="Missouri" 
                id="US-MO" 
            />
        </svg>