<svg xmlns="http://www.w3.org/2000/svg" viewBox="814.9544400000001 622.9460599999999 33.6099999999999 53.5" width="33.6099999999999" height="53.5">
            <path 
                d="m 847.73444,622.96606 0.83,0.75 -0.03,0.27 -0.01,0.18 -0.06,0.54 -0.23,2.11 -0.23,2.1 -0.23,2.1 -0.23,2.09 -0.23,2.09 -0.23,2.08 -0.23,2.08 -0.23,2.07 -0.23,2.07 -0.23,2.07 -0.23,2.06 -0.23,2.06 -0.23,2.05 -0.23,2.05 -0.23,2.04 -0.23,2.04 0.1,2.07 0.1,2.07 0.1,2.06 0.1,2.06 0.1,2.05 0.1,2.05 0.1,2.04 0.12,2.24 -2.75,0.17 -1.2,-0.55 -0.5,-0.11 -0.3,0.01 -1.4,0.51 -1.6,0.39 -0.38,-0.12 -0.54,-0.02 -1.16,1.33 -0.73,0.33 -0.23,-0.09 -0.26,-0.09 -0.18,-0.15 -0.35,-0.79 -0.11,-0.57 -0.42,-1.24 -0.48,-0.69 -0.54,-0.46 -0.25,-0.46 0,-0.31 -0.17,-0.55 0.03,-0.44 0.66,-1.69 0.28,-1.26 -2.26,0 -2.26,0 -2.26,0 -2.26,0 -2.26,0 -2.26,0 -2.26,0 -2.25,-0.01 0.04,-0.3 0.39,-0.39 0.14,-0.49 -0.32,-1.18 0.12,-0.65 0.56,-0.12 0.28,-0.63 0,-1.14 0.22,-0.77 0.44,-0.4 0.42,-0.93 0.4,-1.47 0.81,-1.22 1.22,-0.96 0.6,-0.83 0.04,-0.64 0.13,-0.3 0.25,-0.16 0.41,-0.44 0.54,-0.6 0.09,-0.41 -0.03,-0.29 -0.04,-0.31 -0.43,-0.56 -0.65,-0.47 -0.42,-0.74 0.03,-0.57 -0.14,-0.5 -0.32,-0.43 0.07,-0.4 0.45,-0.37 0.02,-0.35 -0.41,-0.33 0,-0.59 0.4,-0.85 -0.03,-0.59 -0.45,-0.33 -0.05,-0.55 -0.03,-0.28 0.43,-1.98 -0.1,-0.26 -0.43,-0.6 -0.05,-0.73 0.26,-0.89 -0.13,-0.69 -0.36,-0.25 -0.09,-0.28 -0.11,-0.41 0.39,-0.38 0.02,-0.35 -0.35,-0.32 0.22,-0.45 0.79,-0.58 0.22,-0.33 0.23,-0.35 0.14,-0.83 -0.11,-0.5 -0.19,-0.33 0.09,-0.17 0.16,-0.15 0.94,-0.3 0.27,-0.21 0.06,-0.26 -0.3,-0.64 0.29,-0.68 0.87,-0.72 0.46,-0.63 0.05,-0.55 0.42,-0.4 0.78,-0.25 0.48,-1.02 0.19,-1.79 0.23,-0.76 0.4,-0.11 0.21,-0.25 0.07,-0.52 0.49,-0.53 0.9,-0.54 0.36,-0.53 -0.11,-0.28 0,-0.36 2.4,0 2.5,0 2.5,0 2.5,0 2.5,0 2.5,0 2.5,0 2.54,0.02 z m -3.62,53.22 -0.12,0.12 -0.83,-0.23 -0.51,-0.21 -0.09,-0.21 1.4,0.38 0.15,0.15 z" 
                fill="rgb(151, 144, 238)" 
                stroke="white" 
                stroke-width=".7px"
                title="Mississippi" 
                id="US-MS" 
            />
        </svg>