<svg xmlns="http://www.w3.org/2000/svg" viewBox="585.3244400000004 445.1960599999999 113.37999999999954 62.940000000000225" width="113.37999999999954" height="62.940000000000225">
            <path 
                d="m 698.64444,487.55606 0.01,3.13 0.02,3.11 0.01,3.11 0.02,3.09 0,0.04 -0.01,0.04 0,0.04 0,0.04 -0.07,0 -0.08,0 -0.07,0 -0.08,0 -2.06,0 -2.06,0 -2.07,0 -2.06,0 -2.06,0 -2.07,0 -2.06,0 -2.06,0 -2.07,0 -2.06,0 -2.06,0 -2.07,0 -2.06,0 -2.06,0 -2.07,0 -2.06,0 -2.06,0 -2.07,0 -2.06,0 -2.06,0 -2.07,0 -2.06,0 -2.06,0 -2.06,0 -2.07,0 -2.06,0 -2.06,0 -2.07,0 -2.06,0 -2.06,0 -2.07,0 -2.06,0 0,1.67 0,1.66 0,1.65 -0.01,1.66 -0.62,-0.35 -0.41,-0.4 -0.34,-0.46 -0.64,-1.28 -0.36,-0.47 -0.32,-0.28 -0.33,-0.02 -0.4,0.16 -0.31,0.3 -0.1,0.53 -0.3,0.62 0.02,0.52 0.13,0.26 -0.04,0.15 -0.2,0.11 -1.5,-0.19 -1.3,0.26 -0.89,-0.2 -1.71,0.1 -1.48,-0.18 -0.51,0.09 -0.33,0.28 -0.41,0.7 -0.11,0.13 -0.16,0.02 -2.41,-0.38 -0.64,-0.01 -0.67,0.46 -0.21,0.32 -0.05,0.43 -0.15,0.12 -0.21,-0.02 -0.54,-0.28 -0.56,-0.46 -0.28,-0.34 -0.06,-0.77 -0.45,-0.87 -0.08,-0.79 -0.29,-0.67 -0.44,-0.66 -0.44,-0.44 -0.44,-0.14 -0.82,0.09 -0.17,-0.07 -0.88,-0.88 -0.27,-0.38 -0.08,-0.35 0.3,-0.85 -0.09,-0.47 -0.22,-0.58 -0.31,-0.48 -0.51,-0.42 -0.46,-0.91 -0.85,-1.28 -0.23,-0.99 -0.33,-0.83 -0.09,-0.82 -0.32,-0.5 0.03,-0.64 -0.05,-0.18 -0.1,-0.08 -0.57,-0.36 -0.65,-0.64 -0.33,-0.15 -0.14,0 -0.08,0.16 -0.05,0.3 -1.04,1.06 -0.88,0.5 -0.43,0.49 -0.39,0.24 -0.21,0.03 -0.29,-0.16 -0.92,-0.72 -0.76,-0.33 -0.08,-0.16 0.04,-0.61 0.35,-0.71 -0.36,-1.29 0.11,-0.45 0.28,-0.31 0.82,-0.48 0.08,-0.23 -0.18,-1.23 -0.46,-0.46 -0.13,-0.26 0.14,-1 -0.2,-0.66 0.36,-0.56 0.03,-0.96 0.29,-1 0.31,-1.48 -0.07,-0.64 0.39,-0.69 0.13,-0.7 0.02,-0.49 -0.06,-0.3 -0.14,-0.11 -0.28,0 -1.29,0.27 -0.42,-0.04 -0.37,-0.13 -0.21,-0.24 -0.06,-0.56 -0.29,-0.37 -0.15,-0.06 -0.59,0.22 -0.13,-0.01 -0.06,-0.1 -0.24,-0.48 -0.95,-0.93 -0.46,-1.07 -0.92,-0.94 -0.88,-1.29 -1.69,-2.02 -0.41,-0.41 -1.28,-0.7 -1.01,-1.02 -1.03,-0.73 -0.1,-0.12 -0.01,-0.08 0.06,-0.06 0.29,-0.2 0.07,-0.37 -0.39,-0.77 0.19,-0.75 -0.26,-1.04 -0.14,-0.35 -0.73,-0.97 -0.48,-0.93 -0.75,-0.86 -1.01,-1.41 0,-3.48 0,-3.49 0,-3.51 0,-3.52 1.74,0 4.01,0 4.02,0 4.01,0 4.01,0 0.91,0 3.11,0 4.01,0 4.01,0 4.02,0 4.01,0 4.02,0 4.01,0 4.01,0 4.02,0 3.03,0 0.98,0 4.02,0 4.01,0 4.01,0 4.02,0 4.01,0 4.01,0 4.02,0 4.01,0 4.01,0 4.02,0 4.01,0 4.02,0 4.01,0 2.99,0 0.02,2.71 0.02,2.71 0.01,2.7 0.01,2.7 0.01,2.68 0.02,2.67 0.01,2.66 0.01,2.65 0.02,2.65 0.01,2.63 0.01,2.62 0.02,2.62 0.01,2.6 0.01,2.6 0.02,2.58 z" 
                fill="rgb(151, 144, 238)" 
                stroke="white" 
                stroke-width=".7px"
                title="Montana" 
                id="US-MT" 
            />
        </svg>