<svg xmlns="http://www.w3.org/2000/svg" viewBox="698.474439999999 526.2460600000006 81.73000000000093 37.569999999999595" width="81.73000000000093" height="37.569999999999595">
            <path 
                d="m 769.52444,532.50606 0.29,0.06 0.63,1.12 0.26,2 0.57,1.62 0.89,1.22 0.44,0.89 0,0.57 0.22,0.6 0.42,0.65 0.16,1.09 -0.08,1.55 0.18,0.82 0.44,0.1 0.2,0.21 -0.06,0.34 0.14,0.25 0.36,0.16 0.1,0.44 -0.16,0.73 0.13,0.45 0.42,0.19 0.08,0.36 -0.26,0.52 0.04,0.42 0.34,0.3 0.23,1.34 0.11,2.37 -0.04,1.38 -0.19,0.41 0.31,0.85 0.57,0.92 0.24,0.38 0.52,1.29 0.22,1.28 0.51,0.82 0.81,0.38 0.54,0.82 0.28,1.25 0.67,1.05 0.15,0.11 -1.7,0 -1.97,0 -1.97,0 -1.97,0 -1.98,0 -1.97,0 -1.97,0 -1.98,0 -1.97,0 -1.97,0 -1.98,0 -1.97,0 -1.97,0 -1.98,0 -1.97,0 -1.97,0 -1.97,0 -1.98,0 -1.97,0 -1.97,0 -1.98,0 -1.97,0 -1.97,0 -1.98,0 -1.97,0 -1.97,0 -1.98,0 -1.97,0 -1.97,0 -1.97,0 -1.98,0 -1.97,0 0,-1.53 0,-1.53 0,-1.54 0,-1.54 0,-1.54 0,-1.54 0,-1.55 -0.01,-1.55 -2.35,0 -2.34,0 -2.35,0 -2.35,0 -2.35,0 -2.35,0 -2.35,0 -2.35,0 -0.01,-3.12 -0.01,-3.12 -0.01,-3.14 0,-3.15 -0.01,-3.16 -0.01,-3.18 -0.01,-3.18 -0.01,-3.2 3.26,0 3.26,0 3.26,0 3.25,0 3.26,0 3.26,0 3.26,0 3.26,0 3.25,0 3.26,0 3.26,0 3.26,0 3.26,0 3.26,0 3.25,0 3.73,0 2.81,1.91 1.67,0.59 0.8,-0.56 1.72,-0.32 2.65,-0.08 1.67,0.26 0.7,0.6 1.36,0.68 2.03,0.75 1.21,0.82 0.4,0.88 0.71,0.55 z" 
                fill="rgb(151, 144, 238)" 
                stroke="white" 
                stroke-width=".7px"
                title="Nebraska" 
                id="US-NE" 
            />
        </svg>