<svg xmlns="http://www.w3.org/2000/svg" viewBox="994.7744399999997 496.26606000000015 17.129960000000324 33.799999999999955" width="17.129960000000324" height="33.799999999999955">
            <path 
                d="m 1011.9044,525.35606 -0.42,1.66 -0.27,0.82 -1.1,-0.06 -0.48,0.13 -0.96,0.59 -0.59,0.22 -0.97,1 -0.82,0.35 -1.34,-0.05 -1.34,-0.04 -1.34,-0.04 -1.34,-0.05 -1.32996,-0.04 -1.34,-0.05 -1.34,-0.04 -1.34,-0.05 -0.16,-0.45 -0.52,-0.82 -0.13,-0.34 0.03,-0.38 0.29,-1.03 0.21,-0.32 0.22,-0.6 0.33,-2.39 0.29,-1.39 0.21,-2.54 0.21,-0.75 0.24,-0.46 0.38,-1.2 0.7,-0.99 0.46,-1.21 0.55,-1.06 0.09,-0.62 0.41,-1.35 0.29,-2.41 0.28,-0.38 1.25996,-0.33 0.4,-0.25 1.34,-1 0.42,-0.42 0.27,-0.42 0.21,-0.68 0.15,-0.18 0.03,-0.37 -0.47,-1.59 -0.02,-0.58 1.04,-1.81 -0.22,-1.05 0.15,-0.26 0.92,-2.57 0.87,-1.19 1.18,0.4 0.63,-0.04 0.47,-0.41 0.07,1.32 0.07,1.47 0.08,1.47 0.07,1.47 0.07,1.47 0.07,1.46 0.07,1.46 0.08,1.46 0.07,1.45 0.07,1.45 0.07,1.45 0.07,1.45 0.08,1.44 0.07,1.44 0.07,1.44 0.07,1.44 -0.05,0.95 0.12,0.89 0.34,0.79 0.85,1.15 0.15,0.97 z" 
                fill="rgb(151, 144, 238)" 
                stroke="white" 
                stroke-width=".7px"
                title="New Hampshire" 
                id="US-NH" 
            />
        </svg>