<svg xmlns="http://www.w3.org/2000/svg" viewBox="926.794440000002 500.0960600000008 74.08995999999797 57.35999999999916" width="74.08995999999797" height="57.35999999999916">
            <path 
                d="m 988.18444,529.42606 -0.3,1.07 -0.3,1.07 -0.3,1.07 -0.3,1.07 -0.3,1.07 -0.3,1.07 -0.3,1.06 -0.3,1.06 0.25,0.31 -0.08,1.2 -0.08,1.2 -0.08,1.2 -0.08,1.19 -0.08,1.19 -0.08,1.19 -0.08,1.19 -0.08,1.19 0.29,0.48 0.29,0.48 -0.35,0.22 -0.55,0.35 -0.58,0.37 -0.76,0.48 0.38,0.62 0.49,0.78 -0.39,0.32 -1.01,1.08 -0.68,0.58 -0.56,0.19 -0.34,0.49 -0.38,0.32 0.36,-1.08 0.39,-0.91 0.33,-1.77 -0.1,-1.44 -0.41,-0.59 -0.42,-0.4 0.49,1.42 0.08,1.74 -0.01,0.05 -0.9,-0.56 -0.93,-0.57 -0.93,-0.57 -0.93,-0.57 -0.93,-0.57 -0.93,-0.57 -0.93,-0.57 -0.93,-0.57 -0.2,-0.47 -0.34,-0.36 -1.68,-0.63 -0.43,-0.42 -0.39,-0.57 -0.27,-0.7 -0.14,-0.73 -0.01,-0.58 0.12,-0.65 -0.39,-0.43 -0.01,-0.41 -0.25,-0.27 -1.1,-0.49 -0.33,-0.69 -0.73,-0.65 -1.3,0 -1.3,0 -1.3,0 -1.3,0 -1.3,0 -1.3,0 -1.3,0 -1.3,0 -1.3,0 -1.3,0 -1.3,0 -1.3,0 -1.3,0 -1.3,0 -1.3,0 -1.3,0 -1.3,0 -1.3,0 -1.3,0 -1.3,0 -1.3,0 -1.3,0 -1.3,0 -1.3,0 -1.3,0 -1.3,0 -1.3,0 -1.3,0 -1.3,0 -1.3,0 -1.3,0 -1.3,0 0,-1.7 0,-1.7 0,-0.07 0.55,-0.31 1.81,-1.15 0.9,-0.84 0.95,-0.7 1,-0.55 0.79,-0.71 0.59,-0.87 0.65,-0.65 0.71,-0.43 0.38,-0.45 0.05,-0.47 -0.13,-0.64 -0.31,-0.8 -0.04,-0.63 0.23,-0.46 0.05,-0.31 -0.13,-0.16 -1.49,-0.46 0.06,-2.21 -0.02,-0.06 0.08,-0.03 3.42,-0.98 2.18,-0.34 2.66,-0.09 3.17,0.48 1.23,0.44 0.78,0.56 0.9,0.15 1.02,-0.26 1.41,-0.09 1.81,0.09 0.97,0.13 0.13,0.18 0.12,-0.05 0.12,-0.28 0.48,-0.31 1.35,-0.47 0.18,0.1 0.28,-0.24 0.38,-0.57 0.69,-0.63 1.01,-0.69 0.91,-0.36 0.81,-0.03 0.54,-0.17 0.27,-0.31 0.08,-0.28 -0.11,-0.24 0.05,-0.26 0.04,-0.13 -0.04,-0.11 -0.1,-0.22 -0.08,-1.14 -0.16,-0.53 -0.22,-0.39 -0.14,-0.31 0.03,-0.27 0.49,-0.33 -0.04,0.31 0.13,0.09 0.23,-0.14 0.52,-0.68 0.06,-0.26 0.36,-0.27 0.26,-0.41 -0.29,-0.06 -0.69,0.12 -0.16,-0.12 0.36,-0.55 -0.07,-0.31 -0.11,-0.13 -0.23,-0.05 -0.78,0.48 -0.24,0.04 -0.03,-0.25 -0.4,-0.57 1.08,-1.01 3.82,-2.81 0.39,-0.43 0.14,-0.38 -0.1,-0.33 -0.11,-0.08 0.06,-0.08 3.68,-3.63 2.09,-1.68 1.73,-0.94 1.31,-0.45 0.89,0.06 0.5,-0.06 0.43,0 2.19,0 3.92,-0.01 3.92,-0.01 2.32,0 0.07,0.88 -0.2,1.04 0.16,1.13 -0.22,2.35 0.59,1.81 -0.14,1.21 0.04,1.3 -0.1,0.32 -0.46,0.75 -0.27,0.73 -0.15,0.74 0.01,0.48 0.4,2.12 0.08,0.93 -0.01,0.54 -0.35,1.74 -0.02,0.49 0.1,0.14 0.13,0 0.4,-0.54 0.18,-0.08 0.23,0.13 0.56,0.82 -0.03,1.47 -0.02,1.06 -0.02,1.18 -0.04,1.77 -0.03,1.29 -0.02,1.18 -0.02,0.9 -0.13,0.66 0.19,0.79 z m -26.91,-19.72 -0.3,0.11 -0.07,-0.15 0.05,-0.15 0.25,-0.18 0.41,0 -0.05,0.14 -0.29,0.23 z m -1.41,3.75 -0.14,0.04 0.01,-0.28 0.14,-0.18 0.28,-0.08 -0.01,0.14 -0.28,0.36 z m -25.12,12.51 -0.29,0.44 -0.28,-0.04 -0.2,-0.14 -0.07,-0.28 0.05,-0.35 0.25,-0.15 0.67,0.13 0.02,0.14 -0.15,0.25 z m 60.44,25.71 -0.67,0.8 0.6,0.08 0.52,-0.24 0.49,-0.48 1.14,-0.65 0.98,-0.28 0.31,-0.06 0.46,0.45 0.92,-0.36 0.94996,-0.2 -4.09996,2.07 -0.84,0.23 -1.2,0.61 -1.13,0.44 -0.82,0.16 -4.06,1.53 -0.32,0.03 -0.35,-0.15 -3.35,0.79 -1.37,0.09 -1.25,0.27 0.92,-0.63 0.02,-0.24 -0.22,-0.19 -0.49,0.05 -0.51,0.65 -0.81,0.22 -0.16,-0.71 0.27,-0.55 0.37,-0.52 0.8,-0.82 1.15,-0.52 0.58,-0.45 0.4,0.4 0.09,-0.54 0.31,-0.31 0.34,-0.17 0.81,0 0.44,-0.08 0.32,-0.18 0.33,-0.03 0.89,0.24 0.87,-0.07 0.7,-0.34 0.73,-0.11 1.93,-0.08 1.92,-0.25 0.77,-0.44 1.61,-1.23 0.93,-0.34 -1.44,1.42 -0.78,0.69 z m -15.8,5.73 -0.45,0.05 0.45,-1.18 0.83,-0.54 0.3,0.11 0.01,0.42 -0.12,0.36 -0.55,0.55 -0.47,0.23 z" 
                fill="rgb(151, 144, 238)" 
                stroke="white" 
                stroke-width=".7px"
                title="New York" 
                id="US-NY" 
            />
        </svg>