<svg xmlns="http://www.w3.org/2000/svg" viewBox="698.3944399999999 487.55605999999983 71.38999999999987 44.94999999999999" width="71.38999999999987" height="44.94999999999999">
            <path 
                d="m 768.81444,487.55606 -0.32,1.34 -0.22,0.59 -0.46,0.59 -1.42,1.3 -0.35,0.45 0.05,0.4 0.29,0.51 0.73,1.2 0.39,0.49 1.56,0.8 0.72,0.99 0,2.99 0,2.98 0,2.96 0,2.96 0,2.94 0,2.93 0,2.92 0,2.91 -1.36,0.05 0.16,0.81 0.37,0.79 0.07,0.46 -0.08,0.37 -0.25,0.33 0.06,0.52 0.07,0.15 0.62,0.33 0.2,0.46 0.07,0.52 -0.01,0.39 -0.38,0.72 -0.1,0.95 -0.46,1.41 -0.51,0.86 -0.1,0.44 0.05,0.35 0.78,0.91 0.05,0.36 0.25,0.47 0.24,1.05 -0.72,-0.18 -0.71,-0.55 -0.4,-0.88 -1.21,-0.82 -2.03,-0.75 -1.36,-0.68 -0.7,-0.6 -1.67,-0.26 -2.65,0.08 -1.72,0.32 -0.8,0.56 -1.67,-0.59 -2.81,-1.91 -3.73,0 -3.25,0 -3.26,0 -3.26,0 -3.26,0 -3.26,0 -3.26,0 -3.25,0 -3.26,0 -3.26,0 -3.26,0 -3.26,0 -3.25,0 -3.26,0 -3.26,0 -3.26,0 -0.01,-3.22 -0.01,-3.22 -0.01,-3.24 -0.01,-3.26 -0.01,-3.26 -0.01,-3.28 -0.01,-3.3 -0.01,-3.31 0.08,0 0.07,0 0.08,0 0.07,0 0,-0.04 0,-0.04 0.01,-0.04 0,-0.04 -0.02,-3.09 -0.01,-3.11 -0.02,-3.11 -0.01,-3.13 2.19,0 2.19,0 2.2,0 2.19,0 2.19,0 2.2,0 2.19,0 2.19,0 2.2,0 2.19,0 2.19,0 2.19,0 2.2,0 2.19,0 2.19,0 2.2,0 2.19,0 2.19,0 2.2,0 2.19,0 2.19,0 2.19,0 2.2,0 2.19,0 2.19,0 2.2,0 2.19,0 2.19,0 2.19,0 2.2,0 2.19,0 z" 
                fill="rgb(151, 144, 238)" 
                stroke="white" 
                stroke-width=".7px"
                title="South Dakota" 
                id="US-SD" 
            />
        </svg>