<svg xmlns="http://www.w3.org/2000/svg" viewBox="827.7744400000007 603.3760600000002 81.2799999999994 19.70999999999981" width="81.2799999999994" height="19.70999999999981">
            <path 
                d="m 890.14444,604.40606 2.14,0.01 4.56,0.02 3.24,0.02 2.66,0.01 1.57,0.01 1.98,0.01 0.44,-0.24 0.99,0.04 1.33,0.05 -0.43,0.9 -0.03,0.6 -0.24,0.89 -0.01,0.59 -0.69,0.03 -0.41,0.15 -0.54,0.39 -1.34,2.13 -0.47,0.19 -0.77,-0.55 -1.06,0.23 -0.69,0.4 -1.03,1.04 -0.4,0.33 -0.31,0.12 -0.22,-0.01 -0.11,-0.17 -0.09,-0.52 -0.12,-0.18 -0.32,0 -0.52,0.2 -0.52,0.35 -0.54,0.6 -0.71,-0.05 -0.13,0.15 -0.17,0.7 -0.28,0.51 -0.38,0.39 -1.23,0.3 -1.54,1.07 -2.13,1.13 -2,0.28 -0.83,0.23 -0.56,0.29 -1.25,1.16 -0.55,1.47 -0.63,0.28 -0.97,0.01 -0.27,0.13 -0.25,0.56 -0.35,2.43 -3.06,-0.03 -3.06,-0.04 -3.05,-0.04 -3.06,-0.03 -1.51,-0.02 -1.51,-0.02 -1.51,-0.02 -1.51,-0.01 -1.51,-0.02 -1.51,-0.02 -1.51,-0.01 -1.51,-0.02 -1.51,-0.02 -1.51,-0.02 -1.51,-0.01 -1.51,-0.02 -1.51,-0.02 -1.51,-0.01 -1.51,-0.02 -1.51,-0.02 -0.12,0.01 0.11,0.14 0.17,0.15 -2.56,0 -2.5,-0.01 -2.5,0 -2.5,0 -2.5,-0.01 -2.5,0 -2.5,0 -2.4,-0.01 0,-0.03 0.35,-0.48 1.07,-0.78 0.47,-1.03 -0.14,-1.27 0.39,-1.14 0.93,-1.03 0.38,-1.02 -0.16,-1.01 0.46,-0.82 1.09,-0.64 0.15,-0.26 -0.04,-0.19 -0.02,-0.22 0.01,-0.09 0.05,-0.2 0.24,-0.11 0.32,-0.1 0.14,-0.16 0,-0.26 -0.19,-0.46 0.04,-0.21 0.07,-0.34 0.52,-0.86 0.08,-0.73 -0.38,-0.61 0.19,-0.32 0.24,-0.09 0.32,-0.05 0.1,-0.14 0,-0.18 -0.26,-0.4 0.07,-0.35 0.46,-0.25 0.14,-0.62 -0.16,-0.87 0.66,-0.02 0.02,0.06 0.13,0.1 0.18,-0.1 0.02,-0.03 1.87,0 1.62,0 1.63,0 1.62,0.01 1.63,0 1.62,0 1.63,0 1.47,0 0.03,-0.02 0,-1.04 -0.38,-1.2 0.05,0 1.27,0.13 0.83,0.08 0.27,0.36 3.14,-0.06 3.13,-0.06 3.13,-0.06 3.14,-0.06 3.27,0.11 3.26,0.12 3.27,0.11 3.27,0.12 3.27,0.11 3.27,0.11 3.26,0.12 3.27,0.11 0.08,-0.03 0.07,-0.02 0.07,-0.03 0.08,-0.03 0.07,-0.02 0.08,-0.03 0.07,-0.02 z" 
                fill="rgb(151, 144, 238)" 
                stroke="white" 
                stroke-width=".7px"
                title="Tennessee" 
                id="US-TN" 
            />
        </svg>