<svg xmlns="http://www.w3.org/2000/svg" viewBox="673.65444 605.64606 123.64999999999975 116.64999999999998" width="123.64999999999975" height="116.64999999999998">
            <path 
                d="m 788.32444,638.28606 0.49,0.55 0.39,0.16 0.12,0.22 0.19,0.06 0.24,-0.05 0.36,-0.25 0.53,0.07 0.44,-0.09 0.87,0.13 0.48,0.26 0.01,1.52 0.01,1.52 0.01,1.52 0.01,1.52 0,1.41 0,1.41 0,1.41 0,1.41 0,1.41 0,1.4 0,1.4 0,1.4 1.3,1.35 0.56,0.93 0.18,0.47 0.06,1.61 0.13,0.39 0.65,0.6 0.01,0.4 0.68,1.16 -0.02,0.54 0.65,1.24 0.37,0.32 0.06,0.83 0.2,0.63 -0.3,0.45 0.13,0.63 -0.18,0.58 -0.1,0.77 -0.43,1.19 -0.38,0.58 -0.52,1.12 0.05,0.92 -0.3,1.01 -0.04,0.39 0.28,0.67 0.1,1.84 -0.15,0.39 -0.63,1.08 -0.45,-0.03 -0.99,1.78 0.56,1 -0.04,0.36 -1.97,0.2 -4.47,2 -1.74,1.08 0.09,-0.36 2.11,-1.4 -0.74,-0.21 -1.2,0.35 -0.43,-0.13 0.51,-1.16 -0.17,-1.02 -0.85,-0.03 -0.54,0.82 -0.38,-0.04 -0.49,-0.35 -0.38,0.11 0.28,1.85 0.54,0.76 0.45,0.97 -1.22,1.19 -1.14,0.98 -0.12,0.95 -1.14,1.24 -1.07,0.7 -2.53,1.64 -0.72,0.35 -1.14,0.76 -1.57,0.57 -1.51,0.91 -0.51,0.14 0.96,-0.77 1.14,-0.76 -0.98,0.1 -1.51,-0.35 -0.92,-0.02 -0.01,0.28 -0.7,0.39 -0.73,-0.57 -0.32,-0.39 -0.15,-0.33 -0.31,-0.08 -0.3,0.16 1.09,2.35 0.46,0.1 0.51,0.23 -0.64,0.55 -0.69,0.41 -1.08,0.28 -0.92,-0.86 -0.2,1.07 -0.12,1.07 -0.31,0.27 -0.49,0.39 -0.27,-0.29 -0.13,-0.41 -0.31,0.37 -0.46,0.28 -0.76,0.05 -0.57,0.15 0.01,0.44 0.16,0.44 1.01,-0.35 -0.37,1.14 -0.93,1.13 -0.75,0.27 -1.15,-0.17 -0.29,0.11 -0.25,0.23 1.34,1.76 -0.86,2.65 -0.55,0.96 -0.38,0.12 -0.42,0.03 -1.49,-0.85 -0.81,-0.66 0.72,1.8 1.95,0.52 0.1,0.68 -0.01,0.58 -0.38,0.68 -0.36,0.9 0.27,0.63 0.31,1.55 0.26,0.71 0.29,2.16 0.31,0.93 1.77,3.43 0.6,0.03 0.1,0.37 -0.06,0.71 -1.28,0.21 -0.54,0.32 -0.1,0.27 -0.08,0.15 -0.16,-0.01 -0.61,-0.2 -1.38,-0.97 -2.02,-0.6 -2.65,-0.23 -1.81,-0.49 -0.97,-0.74 -1.01,-0.44 -1.06,-0.14 -0.88,-0.4 -0.69,-0.67 -1.02,-0.43 -1.34,-0.19 -0.87,-0.5 -0.61,-1.23 0,-0.02 -0.54,-2.05 -0.68,-1.29 -1.33,-1.6 -0.12,-0.21 0,0 -0.01,-0.26 0.17,-0.93 -0.14,-0.67 -0.42,-0.55 -0.1,-0.58 0.23,-0.61 0.02,-0.73 -0.2,-0.85 -0.85,-0.92 -1.5,-1 -1.27,-1.45 -1.05,-1.92 -1.04,-1.33 -1.03,-0.74 -0.7,-0.9 -0.38,-1.07 -0.11,-0.62 0.15,-0.17 -0.63,-1.19 -1.42,-2.21 -0.82,-1.62 -0.21,-1.03 -0.9,-1.22 -1.6,-1.42 -0.87,-0.92 -0.21,-0.64 0,0 -2.49,-1.87 -0.72,-1.17 -0.57,-0.37 -0.65,0.04 -0.33,-0.11 -0.02,-0.26 -0.21,-0.01 -0.4,0.24 -1.32,0.05 -2.25,-0.14 -1.62,-0.32 -1,-0.5 -0.7,0.07 -0.4,0.63 -0.85,0.41 -1.31,0.18 -1.12,1.17 -0.94,2.15 -0.41,1.38 0.12,0.62 -0.25,0.45 -0.61,0.28 -0.62,0.62 -0.63,0.97 -0.74,0.47 -0.84,-0.03 -1.56,-0.75 -2.27,-1.46 -1.78,-0.9 -1.29,-0.34 -1.14,-0.68 -0.99,-1.01 -0.91,-0.67 -0.83,-0.34 -0.97,-1.12 -1.11,-1.91 -0.56,-1.47 0,-1.56 -1.46,-3.4 -0.77,-1.48 -0.57,-0.68 -1.12,-0.81 -1.67,-0.95 -2.24,-1.89 -2.81,-2.85 -1.99,-1.72 -1.17,-0.58 -1.01,-1.03 -0.86,-1.48 -0.84,-0.94 -0.09,-0.04 -1.14,-0.56 0,0 -0.96,-2 0.06,0 2.12,0 2.12,0 2.12,0 2.12,0 2.12,0 2.12,0 2.12,0 2.12,0 2.12,0 2.12,0 2.12,0 2.12,0 2.12,0 2.12,0 2.12,0 2.12,0 0.01,-3.11 0.01,-3.12 0.01,-3.13 0.01,-3.14 0.01,-3.15 0.01,-3.16 0.01,-3.17 0.01,-3.18 0.01,-3.19 0.01,-3.2 0.01,-3.21 0.01,-3.23 0.01,-3.24 0.01,-3.25 0.01,-3.26 0.01,-3.27 0.39,-0.01 1.76,0 1.76,0 1.76,0 1.76,0 1.76,0 1.76,0 1.76,0 1.76,0 1.76,0 1.76,0 1.76,0 1.76,0 1.76,0 1.76,0 1.76,0 1.76,0 0,1.39 0,1.39 0,1.39 0,1.39 0,1.39 0,1.38 0,1.38 0,1.38 0,1.38 0,1.38 0,1.37 0,1.37 0,1.37 0,1.37 0,1.36 0,1.36 0.55,0.12 0.69,0.38 1.71,1.45 0.5,0.31 0.9,-0.18 0.98,0.18 0.26,-0.03 0.19,-0.62 0.09,-0.13 0.14,0.02 0.85,0.55 0.16,0.22 0.5,0.79 0.13,0.94 0.27,0.14 0.52,0.11 1.26,0.06 1.6,0.61 0.65,0.09 1.15,-0.17 1.08,0.82 0.38,0.12 0.31,-0.11 0.61,-0.6 1.33,0.07 1.09,-0.11 0.08,0.69 0.19,0.5 0.9,0.53 0.22,0.25 0.04,0.84 0.23,0.21 0.36,0.08 0.38,-0.05 0.44,-0.26 0.97,-0.83 0.3,-0.2 0.18,-0.02 0.18,0.04 0.15,0.18 0.33,0.63 0.84,0.34 0.48,0.53 0.3,0.08 0.33,-0.1 0.52,-0.33 0.41,0.02 0.47,-0.33 0.19,0.07 0.08,0.23 -0.14,0.7 0.08,0.26 0.19,0.31 0.26,0.22 0.25,0.03 0.19,-0.18 0.35,-0.88 -0.02,-0.32 0.4,-0.11 0.18,-0.17 0.23,-0.64 0.41,-0.17 0.22,0.03 0.2,0.18 0.4,0.58 0.95,0.33 0.25,0.02 0.25,-0.12 0.43,-0.48 0.22,-0.06 0.18,0.07 0.1,0.07 0.04,0.57 0.98,0.64 0.72,0.19 0.7,0.65 0.2,0.07 0.34,-0.52 0.67,-0.19 0.64,-0.54 1.86,-0.69 0.74,0.22 0.75,-0.01 0.2,-0.3 1.32,-0.44 0.27,-0.17 0.37,0.22 0.13,0.32 0.17,0.13 0.91,0.16 0.5,-0.02 0.92,-0.41 0.36,-0.52 0.21,-0.03 0.66,0.25 1.73,1.05 0.88,0.85 0.98,0.41 0.53,0.36 2.15,0.54 z m -5.23,49.44 -0.47,0.1 2.05,-1.65 0.43,-0.55 0.55,0.02 -0.92,0.93 -1.64,1.15 z m -16.23,10.6 -0.35,0.04 0.43,-0.57 0.7,-0.29 1.53,-1.1 0.62,-0.08 0.33,-0.38 0.14,-0.06 -0.09,0.47 -1.23,0.66 -2.08,1.31 z m -2.36,2.66 -0.2,0.03 0.46,-0.87 0.08,-0.35 0.75,-1.1 0.39,-0.16 0.17,0.47 -0.77,0.77 -0.88,1.21 z m -3.19,6.36 -0.29,0.61 0.08,-0.9 0.76,-2.06 1.55,-2.71 0.65,-0.45 -1.79,2.97 -0.96,2.54 z m 1.72,11.96 -0.13,0.48 -0.78,-2.26 -1.27,-5.14 -0.05,-2.94 0.2,-1.01 0.33,4.15 1.4,5.25 0.3,1.47 z" 
                fill="rgb(151, 144, 238)" 
                stroke="white" 
                stroke-width=".7px"
                title="Texas" 
                id="US-TX" 
            />
        </svg>