<svg xmlns="http://www.w3.org/2000/svg" viewBox="28.384177999999963 151.78362000000004 133.22000200000008 72.34" width="133.22000200000008" height="72.34">
            <path 
                d="m 76.704178,154.35362 2.3,0.2 0.91,-0.42 1.12,-0.01 0.35,1.93 0.24,0.06 0.57,-0.52 0.04,0.69 0.82,0.48 0.82,-0.71 0.56,0.64 0.19,-0.14 -0.11,-0.82 0.59,-0.98 2.36,0.5 0.77,-0.14 0.59,-0.34 1.03,-1.43 2.79,-0.04 0.54,0.42 0.94,0.05 0.51,0.46 0.5,-0.39 1.83,-0.47 1.58,0.78 0.95,-0.02 1.740002,-0.66 2.4,-0.39 0.76,-1.21 0.48,-0.09 1.52,0.98 0.63,0.8 -1.82,2.78 1.4,0.14 0.62,0.5 2.57,0.79 0.68,-0.45 2.23,-0.37 1.61,-2.77 0.87,1.43 0.28,-0.15 0.43,0.44 0.46,-0.22 0.02,1.15 2.16,0.19 0.43,0.96 0.98,-0.22 0.27,1.26 0.61,0.09 0.75,-0.4 0.35,0.37 1.33,-0.26 0.5,0.3 0.3,0.5 -0.05,0.78 -0.44,0.75 -0.09,0.91 0.87,2.01 0.12,1.74 1.19,1.45 0.83,2.07 0.64,0.83 0.24,-0.69 0.96,-0.06 0.68,0.18 0.66,0.71 3.34,-0.05 2.79,0.36 0.8,0.44 0.39,3.47 1.08,1.15 0.23,0.62 1.18,0.88 0.15,0.64 1.06,1.09 0.71,-0.4 1.96,0.34 0.85,1.4 0.28,-0.77 0.51,0.32 0.36,-0.28 0.23,-1.56 0.27,-0.31 0.54,0.29 0.54,-0.14 1.9,0.97 0.68,-0.24 4.35,0.61 0.98,-0.12 0.92,0.97 0.47,-0.31 0.92,0.03 0,0 0.86,0.58 0.21,1.41 1.84,0.11 1.11,0.91 0.43,0 0,0 -2.15,1.96 -1.35,0.65 -1.44,0.3 -0.16,0.35 0.32,0.6 0.07,1.09 -0.54,0.91 0.12,0.43 -1.01,1.65 0.3,1.59 -0.13,1.26 -0.35,0.5 -1.35,0.48 -1.41,-0.36 -1.1,0.38 -1.3,-0.55 -0.86,0.02 -0.31,0.13 -0.25,0.8 -0.63,0.13 -1.01,-0.28 -0.75,0.63 -0.43,-0.29 -0.61,-1.41 -0.61,-0.69 -0.35,0.59 -1.33,0.62 -0.59,0.96 -0.6,0.13 -0.26,0.52 -0.38,0.1 1.02,3.07 0.67,0.75 1.63,0.7 0.34,0.7 -0.16,0.45 -0.72,0.44 -1.33,0.14 -0.13,1.26 -1.4,0.92 -0.36,1.19 -1.04,0.05 -0.29,0.6 1.22,1.02 -0.3,0.8 0.28,0.31 -0.03,1.09 0.34,1.21 -0.31,1.58 0.75,0.66 -0.48,1.64 -0.31,-0.16 -0.93,0.23 0.12,0.28 -0.59,0.21 -0.84,-0.57 -0.49,0.56 -0.11,0.81 -2.43,-0.27 -0.32,0.29 -0.11,0.76 0.04,0.69 1.01,0.93 0.55,1.12 2.02,0.43 0.79,-0.44 1.1,0.36 0.39,0.79 -1.49,2.42 0,0 -2.78,-1.65 -0.49,-0.61 -0.66,-0.14 -0.24,-2.53 -0.42,-0.09 -1.22,0.07 -0.29,1.57 -0.85,2.05 -1.82,-0.56 -0.4,-0.46 -1.09,-0.07 -0.65,-0.56 -0.54,0.46 0.33,0.79 -1.39,2.03 -0.71,-0.61 -1.52,-0.06 -0.57,-0.49 -0.48,0.03 -0.82,0.61 -0.73,-0.41 -0.63,0.75 -0.33,-0.8 0.09,-0.98 -2.25,-0.81 -1.59,-1.21 -4.13,-1.34 -0.2,-0.67 0.38,-0.75 -0.27,-0.92 -0.23,-0.01 -0.73,0.65 -1.38,-0.36 -0.82,0.76 -1.6,0 -0.45,0.6 -0.34,1.45 -1.66,1.23 -0.59,-0.06 -0.86,-0.98 -1.09,1.22 -0.45,0.15 -0.6,-0.82 -0.57,-0.28 -1.2,0.88 -0.15,1.47 -0.720002,0.34 -1.44,-0.2 -0.2,-0.35 0.21,-0.75 -1.32,-0.39 -1.07,0.13 -0.75,-1.85 -0.69,0.56 0.02,0.65 -1.4,1.74 -0.11,1.99 -1.43,0.78 -0.37,-0.68 0.24,-1.14 -0.4,-0.97 -0.78,-0.87 -1.01,-0.11 0.16,-0.98 -0.34,-0.68 0.4,-0.46 -0.15,-0.34 -0.62,0.05 -0.48,-0.39 -0.11,-0.52 -1.61,-0.67 -0.13,-0.44 -1.58,-0.62 -0.74,0.23 -0.38,-0.82 -1.57,-0.35 0.26,-2.94 -0.88,-2.16 -0.76,-0.19 -1,0.29 -0.23,0.54 -1.94,1.53 -1.2,1.84 -2.68,1.7 -0.67,-0.19 -0.58,0.33 -0.7,0.87 -0.22,1.46 -0.88,0.05 -0.9,-2.32 -2.73,-1.57 0.43,1.21 -1.05,0.01 -0.39,0.41 -0.69,0.13 -0.44,1.82 -0.65,1.02 -3.67,-1.54 -1.75,-1.67 -0.04,-0.88 -1.01,0.07 -0.38,1.71 -0.42,-0.02 -1.63,1.5 -1.64,-1.89 -0.08,-1.3 -0.49,-0.19 -0.43,-2.27 -1.36,-0.08 -1.43,0.98 -0.58,-0.7 -0.17,0.51 -2.02,-1.12 -0.32,0.55 -2.3,0 -1.54,-2.12 -0.11,-1.19 -0.5,0.15 -1.5,-1.06 -1.2,0.2 -0.58,-0.64 -1.68,-0.05 -1.79,-1.37 -0.47,-1.34 -1.19,-0.57 -0.52,-1.72 -1.28,-0.24 -1.59,0.22 -0.6,-0.42 -0.16,-0.99 -1.18,-0.13 0,0 0.68,-0.17 0.45,-0.48 1,-3.94 1.98,0.23 -0.6,-3.97 1.67,-2.6 0.93,0.26 5.28,-1.35 1.09,1.47 1.73,0.87 0.36,-0.12 0.17,-1.15 1.27,-0.2 0.44,1.29 2.64,0.44 2,-0.66 0.83,1.57 1.77,0.53 0.52,-0.92 0.36,0.13 0.32,-0.43 1.33,-0.52 0.76,-3.54 2.03,-0.44 0.17,0.61 1.62,-0.05 0.5,-0.52 -0.57,-1.32 0.33,-0.44 0,-1.04 0.74,-0.4 0.74,-0.93 -0.09,-2.61 0.51,-2.36 0.62,-0.08 0.47,-0.99 4.01,0.86 0.64,-0.22 -0.35,-0.8 1.49,-2.46 0.26,-0.99 -1.3,-2.2 -1.43,-0.12 -0.86,-2.28 0.96,-3.07 -0.01,-0.74 1.03,-0.38 0.16,-0.59 0.53,-0.51 0.15,-0.81 1.02,-1.49 -0.91,-0.41 -0.21,-0.41 0.73,-2.52 0.85,-1.06 1.53,-0.06 1.06,-0.73 1.15,0.94 1.65,0.45 0.64,-2.18 z" 
                fill="rgb(151, 144, 238)" 
                stroke="white" 
                stroke-width=".7px"
                title="Arad" 
                id="RO-AR" 
            />
        </svg>