<svg xmlns="http://www.w3.org/2000/svg" viewBox="269.98418000000015 251.52362 58.17999999999989 112.81999999999977" width="58.17999999999989" height="112.81999999999977">
            <path 
                d="m 286.88418,252.27362 1.8,-0.32 2.47,0 0.34,-0.43 1.41,0.2 0.76,0.44 1.77,-0.39 0.61,0.1 0.3,1.25 0.37,0.15 2.99,-0.15 0.63,-0.26 1.43,0.26 1.21,0.79 1.54,-0.86 3.04,0.77 0.96,-0.22 0.85,-0.64 1.3,0.93 0.77,0 0.76,0.39 1.52,-0.09 0.79,0.8 0.65,0.03 0.4,0.87 0.96,0.54 0.68,1.42 1.23,0.62 0.29,0.53 0.83,0.56 0.76,-0.53 1.85,1.14 0.62,1.49 -0.27,2.17 0.6,0.34 0.1,0.73 0.57,0.82 0.13,2.07 -0.3,0.38 0.03,0.53 0.88,-0.12 1.21,0.73 0.72,-0.81 0.32,0.18 0.5,2.33 -0.26,0.75 0.89,0.82 0,0 -0.3,0.9 0.57,1.52 -0.34,1.14 -0.58,0.53 0.22,1.49 -0.67,1.62 0.01,0.99 -1.64,2.05 0.78,3.28 -0.02,0.89 -0.83,0.62 -1.53,0.07 -0.64,0.47 0.29,0.91 0.03,2 -1.8,0.78 -1.5,-1 -0.83,-2.03 -2.07,-2.6 -1.28,1.35 0.03,1.88 1.23,-0.02 0.15,0.29 -0.19,2.39 -0.55,1.08 -0.02,1.19 1.02,0.47 -0.32,1.04 0.41,0.23 -0.1,0.55 0.43,0.82 0.58,0.44 -0.22,1.33 -0.65,1.26 -1.55,-0.61 -0.68,0.65 -0.03,1.35 1.17,1.9 1.25,-0.3 0.64,1.34 0.94,-0.02 0.7,2.2 -0.37,1.04 -1.18,0.66 -0.63,3.53 0.28,0.98 -0.2,1.09 0.43,0.51 1.48,5.4 -0.31,1.84 0.2,1.33 -0.25,0.74 0.54,0.6 0.08,1.11 -0.64,5.74 -0.5,0.52 -0.22,1.09 2.99,1.69 -0.18,1.05 -1.98,2.22 -0.31,0.2 -0.76,-0.34 -0.73,0.39 2.45,2.43 -0.52,1.78 0.83,1.06 0.58,-0.02 0.58,0.51 1.5,2.77 1.05,0.84 0.27,-0.07 0.37,2.37 -0.31,0.49 0.27,0.19 -1.03,0.96 1.29,3.05 -0.09,0.46 -0.67,0.44 0.38,1.12 -0.05,0.96 -0.78,0.65 -2.99,-0.57 0,0 -1.37,1.12 -0.34,-0.78 -6.99,3 0.19,0.24 -0.67,0.54 -1.16,-0.49 -0.57,0.65 -1.72,-0.73 -0.41,0.65 -0.49,-0.41 -0.37,0.45 -0.18,-0.46 -2.23,2.22 -4.85,-0.22 -0.02,0.53 -1.98,0.2 -1.13,-1.11 -1.78,0.64 0,0 -0.44,-0.83 -1.08,-0.21 -2.14,0.27 0.05,-0.54 -0.54,-0.13 -0.52,-1.12 -0.38,-0.17 0.45,-0.9 -0.7,-1.91 0.45,-1.92 -0.51,-0.15 0.32,-1.64 -0.71,-1.22 0.02,-0.67 0.79,-1.3 -0.02,-1.17 -0.6,-1.24 0.29,-0.67 -0.18,-0.55 0.29,-0.2 -0.09,-1.14 -0.86,-0.81 -0.04,-0.51 0.08,-0.79 0.8,-1.16 -0.39,-1.37 -0.35,-0.28 -0.22,-1.23 -0.79,-1.25 0.17,-0.88 -0.18,-0.87 -1.03,-1.97 0.25,-0.85 0.97,-0.59 -0.14,-1.51 0.22,-0.68 -2.32,-0.21 -3.05,0.45 -2,-2.11 -0.33,-3.93 -0.93,-0.27 -0.23,-1.35 -1.06,-1.72 -0.06,-1.73 -0.58,-0.4 0.02,-3.22 -0.69,0.33 -0.57,-0.41 -0.7,1.55 -0.04,0.77 -0.59,0.29 0.12,0.67 -0.94,0.72 0.24,1.23 -0.16,1.1 -0.71,-0.18 -0.4,0.73 -3.02,-0.24 -0.06,-0.37 0.86,-1.45 -0.77,-0.72 0,0 3.01,-4.38 -0.64,-0.59 -0.02,-0.78 1.39,-3.36 -0.72,-0.24 -0.58,0.37 1.11,-2.68 1.29,-1.73 -0.71,-1.16 0.68,-1.26 0.04,-1.24 0.56,-1.14 -1.51,-1.21 -0.32,-0.56 0.41,-0.75 1.19,-0.73 -0.44,-1.09 -0.97,0.03 0.06,-1.37 0.54,-0.31 0.73,0.54 0.24,-0.14 0.56,-2.29 -1.23,-1.9 0.23,-0.45 0.79,-0.22 0.2,-1.7 -0.27,-0.46 -0.48,0 -0.59,-0.6 0.23,-0.67 -1.37,-1.28 -0.93,-1.47 0.73,-1.7 -0.18,-0.56 0.44,-0.25 -0.21,-0.94 1.08,-1.34 -0.49,-0.8 0.7,-0.53 -0.43,-0.26 -0.29,-1.89 0.15,-0.6 -1.17,-0.22 1.02,-0.83 -0.28,-1.87 0.61,-0.64 0,-0.35 -1.65,-0.93 -0.29,-1.96 -0.76,-0.87 0.29,-1.31 -0.62,-0.56 0.35,-1.29 -0.2,-0.88 -0.8,-1.35 0.31,-0.47 0.81,-0.29 1.05,-3.46 1.1,-0.88 0.36,-0.66 -0.05,-0.67 0.37,-0.9 -0.54,-2.24 0,0 1.02,-1.04 1.4,0.46 1.72,-0.56 0.82,0.63 1.36,-0.7 0.51,-0.69 0.56,0.05 0.9,-0.61 1.52,-0.13 2.1,0.59 z" 
                fill="rgb(151, 144, 238)" 
                stroke="white" 
                stroke-width=".7px"
                title="Argeș" 
                id="RO-AG" 
            />
        </svg>