<svg xmlns="http://www.w3.org/2000/svg" viewBox="370.41418 137.60361999999995 98.95000000000005 75.65000000000009" width="98.95000000000005" height="75.65000000000009">
            <path 
                d="m 370.41418,150.81362 1.35,-1.15 0.89,0.31 2.63,-0.02 1.1,-0.51 0.38,0.81 -0.29,0.7 0.49,1.35 -0.08,1.55 1.45,0.9 1.07,-0.84 1.49,-0.23 0.67,1.42 0.34,0.19 2.29,-1.07 1.32,-0.03 0.24,-1.45 1.33,-2.05 1.89,-1.14 -0.16,0.98 1.21,0.93 0.92,2.62 1.55,0.8 1,0.01 0.8,0.4 0.82,-0.08 1.43,-0.71 3.36,-2.69 2.31,0.22 1.2,-0.32 1.15,-1.35 1.48,0.2 2.02,2.27 0.95,-1.16 0.58,-0.27 1.18,-1.77 1.44,-1.05 1.11,-0.25 1.94,-1.46 0.41,-1.08 -0.24,-1.8 0.59,-0.49 3.2,0.3 0.11,-1.33 0.38,-0.15 1.53,2.36 0.94,2.5 0.92,-0.03 1.06,-0.56 0.74,-0.85 -0.48,-0.8 0.73,-0.42 -0.36,-0.63 1.9,-1.35 0.32,-2.26 1.12,-0.71 0.04,-1.97 2.35,0.3 -0.2,0.64 0.81,0.05 -0.07,1.1 -0.43,0.29 0.02,0.63 -0.9,-0.14 -0.06,0.25 1.34,0.35 0.04,0.37 -0.4,0.31 1.03,0.25 -0.19,0.8 0.33,-0.04 0.06,-0.66 0.55,-0.2 0.68,1.18 -0.18,0.49 0.19,1.03 1.17,0.13 1.04,-0.8 2.98,-0.71 0.85,0.16 0.27,-0.27 0.52,1.19 0.58,0.01 1.41,-1.27 0.65,-0.05 0.49,0.31 1.03,1.99 0.97,0.1 0.85,-0.46 -0.12,1.3 0.44,0.36 0.73,-0.22 0.87,-1.95 1.32,-0.19 0,0 1.86,1.75 4.98,3.02 0.84,1.27 -0.09,1.08 -1.04,1.1 0.94,1 0.23,0.96 -1.58,1.36 -0.93,1.28 1.94,1.91 0.75,1.55 0.71,0.2 0.82,2.5 1.66,2.63 0.33,1.18 0.68,0.57 0.25,1.88 1.22,2.93 0.62,0.83 0.44,2.51 0.79,1.38 1.02,0.92 0.2,2.7 1.58,4.02 -0.46,0.18 -0.15,0.69 -0.41,0.14 -0.12,1 0.52,0.42 -0.25,1.11 0.75,3.86 -0.31,0.45 0.64,0.61 -0.08,1.07 0.51,2.57 0.29,0.58 0.89,0.04 0.13,0.31 -0.28,1.55 -0.74,1.06 -0.34,1.16 -0.34,0.18 0,0 -0.59,-0.81 -0.84,-0.44 -0.72,-2.41 -0.64,0.17 -0.69,-0.71 -2.34,0.01 -0.07,0.65 -0.5,-0.13 -0.15,0.38 -0.01,2.1 -0.63,0.11 -1.08,-0.23 -0.35,-0.86 -1.59,-0.22 -0.14,-0.58 0.35,-0.25 -0.02,-0.4 -0.72,-1.6 -1.16,0.6 -1.31,-0.02 -1,-0.66 0.48,1.8 -1.16,0.74 -0.52,0.06 -1.87,-1.22 -0.46,0.13 -0.15,0.69 -0.29,-0.01 -0.24,0.95 -0.63,-0.19 -0.51,-0.77 -0.42,-0.07 -0.11,1.11 -1.26,1.06 -1.85,1.05 0.13,1.1 1.43,0.27 -0.56,1.35 0.71,0.36 -0.11,0.27 -0.31,-0.13 -0.39,0.76 -3.16,-1.12 -0.36,0.54 0.36,1.36 -0.49,0.76 -1.66,-0.8 -0.48,0.04 -1.34,-0.8 -0.33,0.39 -1.98,-1.41 -3.26,3.41 -0.09,0.78 -0.37,0.45 -0.62,-0.12 -1.6,-1.17 -0.41,0.16 -1.25,-0.67 -1.85,1.26 -1.69,0.06 -2.91,-1.03 -0.13,-0.7 -0.54,0.24 -1.27,-0.09 -0.7,-0.66 -0.79,0.55 -0.86,-0.33 -0.5,0.11 -1.23,1.19 -1.7,-0.03 -0.88,0.68 -0.47,1.14 -1.53,1.16 -1.56,0.58 -0.96,1.46 -0.34,0.11 -3.35,-0.29 -1.35,-1.34 -2.18,0.36 -1.39,-0.63 0,0 -0.14,-1.08 -0.66,-1.15 0.04,-0.57 0.82,-0.57 -0.95,-1.6 -2.68,0.07 -2.23,-1.47 -0.66,-0.85 0.49,-3.37 -0.95,-1.9 0.62,-2.21 -1.23,-3.09 -2.24,-1 -1.69,-0.17 0,0 -0.21,-0.27 0.27,-0.55 -0.51,-0.5 -0.06,-1.06 1.8,-2.4 0.66,-2.87 -0.35,-0.46 -1.04,-0.7 -0.64,0.02 -1.14,0.58 -0.67,1.06 -1.46,1.03 -1.65,0.31 -1.81,-0.28 -0.27,-0.62 0.63,-1.87 0.35,-2.87 0.5,-0.25 0.35,-0.8 -0.01,-0.33 -0.62,-0.36 1.02,-1.37 -8.04,-0.4 -0.29,-0.52 -3.27,-0.95 -1.29,-1.43 0.96,-0.54 0.51,-1.35 0.86,-0.2 -0.55,-0.76 0.82,-1.18 0.92,-0.88 1.64,-0.43 0.34,-1.23 -0.35,-0.69 -0.26,-1.83 -1.93,-2.53 -1.01,-2.28 -1.31,-1.65 -0.32,-1.49 0.32,-1.42 0.78,-0.46 0.09,-0.69 -0.46,-0.54 0.19,-0.83 -0.32,-0.81 z" 
                fill="rgb(151, 144, 238)" 
                stroke="white" 
                stroke-width=".7px"
                title="Bacău" 
                id="RO-BC" 
            />
        </svg>