<svg xmlns="http://www.w3.org/2000/svg" viewBox="75.84417799999994 63.46362 89.97000199999997 116.77999999999994" width="89.97000199999997" height="116.77999999999994">
            <path 
                d="m 124.88418,63.46362 0.59,0.55 1.86,0.62 0.49,2.07 0.62,0.01 -0.1,0.7 0.6,0.46 0.74,-0.02 -0.17,0.57 0.32,0.59 -0.46,1.17 1.49,-0.2 0.72,0.25 0.4,1.84 -0.57,0.4 0.16,0.88 2.36,0.68 1.51,1.12 -0.93,0.77 0.37,0.31 0.17,2.15 0.42,1.54 0.39,-0.06 0.19,1.1 1.05,-0.37 0.26,0.26 0.48,-0.21 0.54,0.19 0.8,-0.49 0.09,0.36 0.54,-0.01 0.95,0.96 0.79,-0.7 0.83,-0.04 1.17,-0.78 0.56,0.08 2.24,1.11 -0.15,0.81 0.28,0.08 0,0.86 0.4,0.02 0.3,0.58 1.27,-0.22 0.69,0.47 0.6,2.28 1.72,2.41 0.66,-0.05 0,0 0.26,1.32 -0.27,0.44 -1.59,1.09 -1.98,0.4 -0.46,1.82 0.31,3.38 -0.31,1.96 -0.24,0.39 -1.36,0.6 -0.69,1.29 0.13,2.05 -1.2,1.09 0.73,0.97 1.62,0.06 0.45,1.32 0,1.42 1.69,1.68 0.04,0.4 -0.8,0.71 0.82,1.53 -0.06,0.81 0.79,0.94 2.1,-0.5 0.49,1.56 1.17,1.18 3.38,0.44 0.49,0.4 0.2,0.77 1.09,-0.51 0.48,0.07 0.23,3.42 0,0 -0.42,1 -0.92,0.72 -0.36,0.99 -1.06,0.75 -0.01,2.85 1.23,0.23 1.69,1.61 3.49,2.44 -3.18,5.79 -0.4,1.71 -3.57,1.38 -0.46,0.73 -0.35,1.49 0.98,1.01 1.37,0 1.28,0.73 -0.32,1.72 1.65,1.93 0.9,2.77 -1.94,1.82 -2.17,-0.69 -0.39,0.66 -1.81,0.41 -0.01,0.28 0.55,0.29 0.28,1.01 1.21,0.31 0.67,-0.11 1.37,-1.46 0.52,0.02 0.89,0.61 0.75,-0.27 2.45,1.76 0.19,1.38 1.24,-0.39 0.84,2.74 -0.7,3.63 0,0 -0.61,-0.7 -2.25,-0.71 -0.87,-0.61 -0.44,-0.86 -1.28,0.45 -0.6,0.85 -1.22,0.95 -0.04,1.21 0.66,0.53 0.68,-0.06 0.5,0.67 -0.2,0.62 -0.42,-0.48 -0.35,0.14 -2.07,1.9 -0.07,1.68 0.27,0.9 -0.37,0.32 -0.05,0.64 1.27,2.99 -0.33,0.8 -1.07,1.26 0.42,2.96 0.48,1.34 0,0 -0.92,-0.03 -0.47,0.31 -0.92,-0.97 -0.98,0.12 -4.35,-0.61 -0.68,0.24 -1.9,-0.97 -0.54,0.14 -0.54,-0.29 -0.27,0.31 -0.23,1.56 -0.36,0.28 -0.51,-0.32 -0.28,0.77 -0.85,-1.4 -1.96,-0.34 -0.71,0.4 -1.06,-1.09 -0.15,-0.64 -1.18,-0.88 -0.23,-0.62 -1.08,-1.15 -0.39,-3.47 -0.8,-0.44 -2.79,-0.36 -3.34,0.05 -0.66,-0.71 -0.68,-0.18 -0.96,0.06 -0.24,0.69 -0.64,-0.83 -0.83,-2.07 -1.19,-1.45 -0.12,-1.74 -0.87,-2.01 0.09,-0.91 0.44,-0.75 0.05,-0.78 -0.3,-0.5 -0.5,-0.3 -1.33,0.26 -0.35,-0.37 -0.75,0.4 -0.61,-0.09 -0.27,-1.26 -0.98,0.22 -0.43,-0.96 -2.16,-0.19 -0.02,-1.15 -0.46,0.22 -0.43,-0.44 -0.28,0.15 -0.87,-1.43 -1.61,2.77 -2.23,0.37 -0.68,0.45 -2.57,-0.79 -0.62,-0.5 -1.4,-0.14 1.82,-2.78 -0.63,-0.8 -1.52,-0.98 -0.48,0.09 -0.76,1.21 -2.4,0.39 -1.740002,0.66 -0.95,0.02 -1.58,-0.78 -1.83,0.47 -0.5,0.39 -0.51,-0.46 -0.94,-0.05 -0.54,-0.42 -2.79,0.04 -1.03,1.43 -0.59,0.34 -0.77,0.14 -2.36,-0.5 -0.59,0.98 0.11,0.82 -0.19,0.14 -0.56,-0.64 -0.82,0.71 -0.82,-0.48 -0.04,-0.69 -0.57,0.52 -0.24,-0.06 -0.35,-1.93 -1.12,0.01 -0.91,0.42 -2.3,-0.2 0,0 0.61,-0.61 0.2,-0.69 -0.72,-0.15 -0.28,-0.34 -0.67,-1.44 0.13,-0.64 1.27,0.47 1.33,-0.61 1.34,0.89 0.91,-1.19 0.37,-1.24 1.02,-0.81 -0.12,-1.78 -2.22,-1.8 -0.46,-0.09 -0.05,-0.66 0.4,-0.86 1.21,-0.76 0.69,-1.7 0.23,-0.75 -0.14,-2.65 0.89,-0.31 0.2,-0.54 1.19,-0.67 2.41,-0.64 0.48,-0.42 0.18,-1.89 0.68,-0.17 -0.47,-1.71 -0.54,-0.51 0.05,-1.69 0.35,-0.44 2.1,-0.13 1.35,-2.15 0.94,0.26 0.51,-0.97 -0.01,-0.49 -0.88,-0.29 0.67,-1.41 -0.05,-0.93 0.75,-0.42 -0.44,-0.53 -0.22,-1.08 -1.01,-0.19 -0.91,-1.93 2.14,-0.51 0.46,-1 1.02,-0.76 -0.13,-0.43 0.79,-0.51 0.02,-1.08 0.71,-1.19 2.6,-0.97 1.72,0.01 -0.2,-0.32 0.09,-1.1 0.56,-0.57 1.130002,-4.03 0.92,-0.63 0.53,0.02 1.21,-0.94 0,-2.85 -0.68,-0.54 0.23,-1.29 1.21,-2.36 0.79,-0.46 0.36,-0.64 -0.56,-1.36 0.45,-0.23 0.67,-2.38 1.6,-2.31 0.27,-1.16 0.76,-1.08 0.18,-0.98 0.83,-0.1 0.6,-0.42 1.21,0.13 0.7,-0.31 1.18,0.37 1.54,-3.23 -0.2,-1.04 0.26,-0.6 -0.57,-1.38 0.42,-0.83 -0.79,-0.38 -0.81,-2.02 0.31,-2.28 0.57,-1.55 1.6,-2.19 1.03,0.98 0.6,-0.77 -1.07,-0.96 0.1,-0.21 1.47,-1.18 0.81,0.42 0.35,-0.31 0.64,-1.2 1.46,-1.51 0.04,-0.82 2.7,0.52 z" 
                fill="rgb(151, 144, 238)" 
                stroke="white" 
                stroke-width=".7px"
                title="Bihor" 
                id="RO-BH" 
            />
        </svg>