<svg xmlns="http://www.w3.org/2000/svg" viewBox="377.22417999999976 0.5136199999999882 84.67000000000007 79.33" width="84.67000000000007" height="79.33">
            <path 
                d="m 418.37418,2.12362 1.23,0.41 2.03,-0.33 1.03,0.5 0.25,-0.73 0.48,0.2 0.86,-0.61 0.34,1.05 0.77,0.07 0.39,1.6 0.32,0.03 1,-0.74 0.61,1.49 1.58,1.55 1.46,0.02 -0.27,0.62 -0.72,0.31 0.7,1.05 0.48,0.13 0.63,-0.26 -0.37,-1.61 1.04,-0.09 0.85,0.45 0.34,1.1 -0.45,0.72 -0.55,0.15 0,0.91 0.7,0.49 1.92,-0.08 1.07,0.95 -0.19,0.52 -0.56,0.19 -1.31,-0.83 -0.31,0.11 -0.16,1.1 0.45,0.64 0.68,0.4 1.04,0.02 0.96,0.67 1.16,-1.55 0.59,0.13 -0.38,0.83 0.13,0.37 0.64,-0.6 0.28,0.04 -0.35,1.12 0.42,1.47 -0.9,1.37 1,0.66 0.28,1.2 2.2,1.61 0.28,1.55 1.29,0.27 -0.05,0.58 -0.66,0.45 -0.24,0.82 0.18,0.61 0.63,0.03 0.65,-0.56 0.74,-0.17 0.17,0.51 -0.37,0.97 0.31,0.6 0.68,0.17 1.76,-0.22 -0.72,2.33 -0.59,0.3 2.29,2.05 -1.53,1.64 -0.22,0.85 2.37,1.08 0.79,0.75 0.67,2.83 0.03,2.25 1.01,0.84 1.29,0.43 0.22,0.29 -0.94,0.89 -0.8,-0.72 -0.37,0.63 -0.02,0.71 0.36,0.32 1.29,-0.1 0.01,0.41 -0.71,0.59 0.12,0.72 1.09,0.35 0.25,1.59 0.81,-0.18 -0.08,1.9 0.28,0.1 0.7,-0.53 0.36,0.83 -0.41,0.35 0.06,0.25 0.52,0.16 0.43,-0.45 0.23,0.31 -0.15,0.36 -0.6,0.12 -0.37,0.71 0.21,0.62 0.73,0.32 -0.27,0.49 -0.85,-0.55 -0.72,0.23 -0.09,-0.64 -1,1.21 1.07,0.71 0.32,1.22 0.73,-0.07 -0.64,1.02 0.58,0.65 0.9,0.21 -0.11,1.69 0.79,0.17 0.48,0.92 0.08,0.91 1.27,1.52 1.61,0.59 0.4,1.32 0.49,0.37 -0.13,0.44 1.24,0.77 0,0 -0.94,0.64 -1.08,-0.19 -2.18,0.82 -0.29,-0.27 -2.2,1.68 -1,-0.75 -0.88,0.08 -0.59,0.66 0.32,0.18 0.68,2.29 -0.27,0.2 -0.54,-0.15 -0.86,0.66 -0.87,0.2 -3.66,0.09 -0.19,-1.58 -0.61,0.88 -0.9,0.57 -1.51,-1.87 -0.87,-0.56 -0.52,0.06 -0.59,1.16 -0.76,3.41 0.28,0.66 -0.11,3.01 -1.03,-0.37 0.01,1.11 -0.74,0.32 -0.73,1.27 -0.89,-1.27 -0.19,-0.78 -0.76,-0.64 -0.96,-2.22 -1.03,-0.02 -0.88,-0.59 -0.47,0.35 -1.98,-0.41 -0.6,0.48 -1.66,0.21 -1.17,-0.12 -1.23,-0.5 -0.85,0.25 -1.87,-1.29 -0.42,0.44 -0.83,0.02 -1.44,-1.08 -2,-0.58 -1.18,0.83 0.83,1.1 -0.36,0.85 -1.14,0.47 -1.11,-0.52 -0.08,1.11 -1.13,1 0,0 -0.54,0.67 -0.73,-0.02 -1.01,-0.62 -1.38,0.71 -1.12,0.13 -0.5,0.46 -0.38,-0.11 0.09,-0.42 -0.33,-0.34 0.29,-0.52 -0.27,-0.52 0.12,-1.26 -0.52,-0.08 -0.08,-0.5 -0.46,-0.38 -0.78,0.42 -0.68,-1.09 0.32,-0.42 0.92,-0.37 2.06,-0.46 0.05,-1.1 -1.71,-0.3 -0.05,-0.62 -0.74,-1.34 -0.03,-1.02 -0.5,-0.77 0.15,-0.39 -1.14,-0.38 0.22,-0.46 -0.48,-1.03 0.72,-0.07 -0.19,-0.6 0.41,-0.35 -0.29,-0.81 -0.74,-0.23 0.11,-0.8 0.37,-0.33 -0.56,-0.65 0.64,-0.14 0.11,-0.27 -0.67,-0.51 -1.16,0.06 0.08,-0.37 -0.52,0.03 -0.46,-0.38 0.13,-0.45 -0.55,0.12 -0.14,-0.42 -0.8,-0.19 0.3,-0.3 -0.56,-0.5 0.08,-0.62 0.36,-0.39 -1.35,-0.58 0.45,-0.27 -0.29,-0.55 -0.67,0.48 0.07,-0.66 -0.42,-0.28 0.25,-0.59 -0.58,-0.36 0.01,-0.56 -0.67,0.27 -0.09,-0.54 -0.75,-0.16 -0.04,0.43 -0.38,0.04 -0.08,-0.19 0.31,-0.13 -0.27,-0.06 0.13,-0.4 -0.81,0.18 -0.2,-0.7 -0.5,-0.16 -0.37,-1.08 0.92,-0.84 -0.31,-0.39 0.39,0 0.02,-0.23 -0.79,-0.73 -0.41,0.28 -0.16,-0.56 -0.31,0.28 0.07,-0.53 -0.47,0.31 -0.49,-0.89 -3.05,-3.41 0.02,-1.26 0.33,0 0.03,-0.34 -0.82,0.18 0.07,-0.59 -0.26,-0.22 -0.17,0.36 -0.32,-0.14 -0.1,-0.43 0.4,-0.12 -0.28,-0.48 0.51,-0.28 -0.37,-0.55 -0.53,-0.14 -0.14,-0.73 -0.28,-0.01 -0.5,0.67 -0.67,-1.35 -0.04,-0.67 -0.74,-0.82 -0.58,0.06 -0.13,-0.55 -0.45,-0.01 -0.83,-0.93 -0.28,0.54 -0.48,-0.03 -0.15,0.66 -1.02,0.43 -0.24,-0.76 -0.65,-0.09 -0.15,-0.71 0.61,-0.91 -0.54,-0.18 -0.02,-0.88 -1.11,0.01 -0.21,-0.9 -1,0.44 -0.1,-0.7 -0.36,0.33 -0.95,-0.43 -0.31,-1.29 -2.45,-3.78 0,0 1.7,0.49 1.15,-0.73 1.02,0.14 1.52,-0.37 1.83,-1.07 0.87,-2.41 0.38,-2.52 4,-3.02 0.81,-3.49 0.74,-1.51 2.36,-2.47 -0.47,-1.9 0.44,-0.52 0.86,0.01 -0.02,-0.61 0.83,0.5 1.1,-1.17 0.37,0.14 -0.17,0.55 0.34,0.37 0.89,-0.15 1.49,-1.22 2.17,-0.49 0.11,-0.71 0.78,-0.67 0.71,0.43 1.4,-0.07 0.67,0.47 1.02,0.21 1.25,-0.63 0.25,-0.94 1.32,0.55 -0.14,-1.11 0.48,-1.19 0.69,-0.28 0.63,0.72 1.48,-0.09 -0.28,-1.06 0.9,0.3 0.26,-1.03 0.36,0.15 0.33,0.74 0.51,0.04 0.41,-1.1 0.35,-0.01 0.19,0.36 -0.28,1.01 0.27,0.24 1.1,-0.29 1.22,-1.53 0.39,1.15 z" 
                fill="rgb(151, 144, 238)" 
                stroke="white" 
                stroke-width=".7px"
                title="Botoșani" 
                id="RO-BT" 
            />
        </svg>