<svg xmlns="http://www.w3.org/2000/svg" viewBox="283.2141799999998 198.51361999999997 94.96999999999997 74.06999999999974" width="94.96999999999997" height="74.06999999999974">
            <path 
                d="m 318.22418,199.90362 0.56,0.08 0.55,-0.4 1.91,1.75 2.2,1.13 0.25,-0.15 0.49,-2.44 2.36,-1.36 1.44,1.01 0.29,-0.31 0.35,0.37 0.48,-0.36 0.88,1.53 0.42,0.02 0.2,0.63 0.39,-0.43 -0.37,1.14 0.53,0.81 3.39,0.61 0.62,-0.18 1.14,0.48 0.14,0.84 0,0 0.14,1.58 -0.26,0.97 -0.44,0.49 0.49,1.12 1.03,0.57 0.35,0.65 0.48,0.23 0.8,1.43 1.05,-0.69 0.89,-0.25 0.92,0.17 0.9,-0.37 1.01,1.91 0.31,0 0.09,0.62 0.51,-0.17 0.06,0.48 -0.53,0.7 -0.24,0.9 -0.66,0.19 0,0.83 -0.82,-0.22 -0.4,2.27 0.41,2.25 -0.11,0.35 -0.48,0.07 0.33,0.22 -0.09,0.83 0.37,0.19 -0.06,0.35 0.63,0.44 0.03,0.7 -0.47,0.57 0.09,0.71 0.44,0.31 1.7,-0.25 0.53,0.59 0.63,0.12 -0.57,1.13 -0.81,0.22 -0.85,-0.25 -0.52,0.22 0.57,0.28 -0.02,0.38 0.37,0.2 -0.06,0.56 -0.37,0.16 0.33,0.53 -0.43,0.12 0.27,0.51 -0.14,0.51 0.68,1.23 1.28,0.46 0.42,-0.44 0.06,0.29 0.73,0.23 0.58,1.38 0.4,-0.2 0.38,0.45 0.39,-0.26 0.07,0.29 -0.46,0.34 0.57,0.56 0.15,-0.61 0.25,1.16 0.28,-0.51 0.84,0.81 -0.23,0.4 0.41,0.61 0.38,0.1 -0.23,0.87 0.29,0.47 1.04,-0.13 0.43,-1.33 0.46,-0.09 0.71,0.32 0.36,-0.43 0.54,0.01 0.68,0.42 0.39,0.99 0.84,0.3 1.49,-0.37 1.01,0.58 -0.04,0.5 1.32,0.15 -0.1,1.06 0.62,0.14 0.41,0.9 0.9,0.41 -0.05,0.43 0.51,0.18 0.41,0.81 2.89,-0.22 0.28,0.25 0.04,0.59 0.44,-0.11 0.97,0.69 1.98,0.57 0.82,1.89 -0.63,0.5 -0.2,0.82 -0.35,0.26 3.73,1.1 -0.45,1.88 2.78,-0.01 0.12,0.76 2.29,1.72 0.05,3.11 0.41,0.68 -0.48,3.09 0,0 -0.47,0.15 -0.87,1.01 -0.64,1.86 -1.07,0.39 0,0 -2,-1.43 -0.32,-0.79 -0.91,-0.99 -1.88,0.53 -2.82,-0.58 -1.45,1.58 -0.39,1.1 0.51,0.62 -0.92,1.67 -0.05,1.42 -1.13,0.9 -0.17,1.03 -2.46,-0.68 -1.11,-3.09 -0.96,-0.53 -0.51,-0.67 -0.68,0.28 -0.8,0.93 -1.69,-0.09 -0.75,0.51 0.02,-0.62 -0.31,-0.27 -5.06,-1.43 -1.27,0.09 -0.84,0.74 -0.46,0.06 -1.03,1.38 -1.93,-0.17 -1.65,0.26 -1,-0.5 -1.14,0 -1.5,0.96 -0.97,0.01 -0.85,1.31 0,0 0,0 0,0 -1.3,0.28 -1.09,0.94 -0.27,0.66 0.14,2.42 -0.36,0.63 -2.5,-0.28 -2.9,0.83 0,0 -0.89,-0.82 0.26,-0.75 -0.5,-2.33 -0.32,-0.18 -0.72,0.81 -1.21,-0.73 -0.88,0.12 -0.03,-0.53 0.3,-0.38 -0.13,-2.07 -0.57,-0.82 -0.1,-0.73 -0.6,-0.34 0.27,-2.17 -0.62,-1.49 -1.85,-1.14 -0.76,0.53 -0.83,-0.56 -0.29,-0.53 -1.23,-0.62 -0.68,-1.42 -0.96,-0.54 -0.4,-0.87 -0.65,-0.03 -0.79,-0.8 -1.52,0.09 -0.76,-0.39 -0.77,0 -1.3,-0.93 -0.85,0.64 -0.96,0.22 -3.04,-0.77 -1.54,0.86 -1.21,-0.79 -1.43,-0.26 -0.63,0.26 -2.99,0.15 -0.37,-0.15 -0.3,-1.25 -0.61,-0.1 -1.77,0.39 -0.76,-0.44 -1.41,-0.2 -0.34,0.43 -2.47,0 -1.8,0.32 0,0 -0.13,-1.08 -0.52,-0.66 0.04,-1.24 0.56,-1.43 -0.32,-0.87 0.28,-1.67 -0.53,-1.34 0.03,-1.77 -2.34,-4.79 -0.22,-1.77 -0.49,-0.79 -0.03,-1.11 1.84,-1.71 1.92,-1.25 2.45,-0.62 2.85,0.2 0.23,-0.93 -0.2,-0.83 0.26,-0.32 -0.35,-0.56 -1.89,-1.25 -1.49,-1.39 -0.32,-1.27 -0.58,-0.7 0,-0.83 -0.28,-0.43 0.11,-0.75 1.18,-0.59 2.3,1.12 -0.01,-1.28 1.04,-1.24 0,-1.31 1.31,0.19 2.96,-0.59 0.1,-0.63 -0.64,-0.6 0.55,-0.77 -0.16,-0.54 1.29,-0.47 0.71,0.04 0.62,-1.82 1.14,-0.61 -0.26,-0.34 0.1,-0.45 1.07,-0.73 0.99,-0.21 0.68,-0.72 0.84,-0.36 -0.31,-0.57 0.11,-0.61 0,0 0.5,-0.55 0.1,-0.49 -0.34,-0.88 0.49,-0.83 1.42,-1.28 0.75,-0.03 0.45,-0.94 1.31,-1.24 1.21,0.77 1.63,-0.09 1.21,-0.93 1.32,-0.15 1.38,1.06 1.39,0.16 0.43,-0.18 -0.09,-1.03 0.29,-0.65 0.91,-0.12 z" 
                fill="rgb(151, 144, 238)" 
                stroke="white" 
                stroke-width=".7px"
                title="Brașov" 
                id="RO-BV" 
            />
        </svg>