<svg xmlns="http://www.w3.org/2000/svg" viewBox="441.0841800000002 262.40362 73.05999999999995 68.3400000000002" width="73.05999999999995" height="68.3400000000002">
            <path 
                d="m 472.45418,263.12362 0.67,-0.72 0.41,0.39 1.92,0.3 0.78,1.48 -0.03,0.55 1.2,-0.34 -0.08,-0.65 1.85,-1.67 0.37,0.29 -0.32,1.01 0.15,0.49 1.87,-0.86 0.26,0.6 -0.77,0.74 0.13,0.39 2.04,0.2 0.16,0.43 -0.55,0.65 0.25,0.12 1.08,-0.46 0.08,0.88 1.18,-0.47 -0.69,2.47 0.19,0.59 2.55,-0.72 0.3,0.61 -0.09,0.69 1.81,0.54 0.15,0.66 1.83,-0.52 1.42,0.32 0.11,-0.26 -0.55,-0.24 0.66,-0.41 0.24,-0.9 0.66,0.35 0.18,-0.69 0.98,0.31 1.21,0.94 1.56,0.03 0.9,0.31 1.76,1.12 0.61,-0.92 0.74,0.39 1.55,-0.63 0,0 -0.12,4.1 -1.95,5.01 0,1.5 1.66,1.93 2.33,1.18 2.42,0.45 1.05,-0.89 0.27,0.12 0.28,1.44 0.68,0.76 -2.48,4.05 3.35,2.2 1.77,1.79 1.43,0.55 0.27,0.39 -1.8,1.21 0.61,1.49 -0.22,0.5 -0.7,0.18 -1.73,-0.38 -0.16,0.22 -0.13,1.9 1.2,4.07 -1.14,0.62 -0.43,1.31 0.84,3.19 0.63,0.58 -1.18,2.03 -0.58,3.44 0.09,1.11 1.04,0.67 0.04,0.28 -0.59,1.01 -1.19,0.48 -0.88,0.94 -0.3,1.66 -0.98,1.59 -0.45,2.36 0,0 -0.61,1.59 -1.3,0.75 -0.68,1.25 -0.57,-0.33 -0.8,0.55 -0.96,-0.03 -3.07,-1.8 -3.55,0.8 -1.11,0.92 0,0 -0.25,-1.16 -2.79,-0.4 -7.75,1.27 -8.59,-1.75 -3.7,0.05 -0.11,1.04 -1.27,-0.09 -0.42,-0.63 -4.1,-0.07 -0.18,-0.78 -1.06,0.07 -1.24,1.2 -2.58,-1.5 0.5,-0.92 -0.16,-0.09 -2.73,-0.2 -3.09,5.45 -2.64,-2.19 -0.88,-0.4 0.22,-0.78 -0.71,-1.08 0,0 0.07,-0.26 -0.59,-0.38 -0.03,-0.34 -0.84,-0.46 0.19,-0.27 1.44,0.48 0.11,-0.27 0.94,-4.16 -0.07,-0.35 -1.27,-0.69 0.22,-0.65 1.64,0.55 1.51,-5.44 -1.45,-0.48 0.57,-1.97 0.69,0.3 1.43,-0.4 0.1,-2.35 -0.46,-0.15 0.19,-0.88 -2.04,-0.21 -0.24,-2.71 -2.72,-0.28 0.25,-3.3 0.39,-0.58 -0.24,-1.34 0.17,-0.71 -1.78,-0.03 -0.62,-0.62 -1.28,-6.5 -0.79,0.77 -3,1.51 -1.36,-1.49 0.95,-1.65 0.99,-0.74 1.26,-2.12 2.95,-2.79 0.75,0.88 0.44,-0.3 1.43,1.35 0.27,-0.27 1.82,1.19 0.27,-0.87 2.67,1.98 0.68,-1.28 0.9,-0.04 0.83,-0.96 0.88,0.75 1,-1.31 -0.89,-0.66 0.72,-1.17 -1.02,-0.52 0.22,-0.46 0.96,0.31 0.51,-1.07 1.06,0.08 0.17,-0.59 -0.37,-0.64 1.23,-0.54 0,-2.3 -0.64,-1.51 0.86,-0.27 0.08,-0.55 0.96,-0.37 -0.06,-0.89 -0.57,-0.67 0.09,-0.31 0.42,0.01 2.19,-1.2 -0.42,-1.7 0,0 -0.28,-1.01 1.11,-0.13 2.75,-1.67 -0.23,-0.5 0.84,-0.64 -0.37,-0.57 z" 
                fill="rgb(151, 144, 238)" 
                stroke="white" 
                stroke-width=".7px"
                title="Brăila" 
                id="RO-BR" 
            />
        </svg>