<svg xmlns="http://www.w3.org/2000/svg" viewBox="70.64417799999988 246.26362 88.09000200000007 99.06000000000029" width="88.09000200000007" height="99.06000000000029">
            <path 
                d="m 140.39418,246.26362 1.77,0.89 0.02,1.17 1.39,2.12 0.48,0.01 0.75,0.54 -0.24,0.65 0.63,0.44 0.89,2.31 0.7,0.59 0.72,-0.1 0.75,-0.69 0.48,0.25 1.72,-0.39 0.85,0.84 0.06,1.11 2.24,-0.34 0.28,-0.29 0.41,0.65 -0.76,2.49 1.14,-0.32 1.32,1.72 0.25,0.45 -0.17,0.59 1.32,1.8 0.9,6.22 0.43,0.46 0.01,0.46 -2.7,4.84 -0.15,0.66 0.32,0.44 -0.61,0.19 -1.06,1.29 -1.18,0.57 -2.17,2.36 0.58,0.95 0.16,1.49 -0.3,1.63 -0.59,1 2.13,-0.07 0.65,0.23 0.97,0.88 0,0 -0.07,0.97 -1.18,1.12 -1.41,0.04 -1.2,1.11 -1.56,2.73 -0.18,1.2 1.06,1.41 1.06,0.41 0.68,-0.36 1.06,-0.01 1.21,0.99 0.7,0.03 0.38,1.72 0.28,0.19 0,0 -0.34,0.4 -0.12,-0.45 -0.18,0.14 -0.13,0.66 -0.56,0.42 -2.59,3.54 -1.5,1.31 -1.29,2.42 -1.11,0.59 -3.26,3.1 -0.02,0.25 1.32,0.46 0.33,0.46 -0.93,0.49 -0.71,1.03 0.35,1.23 -0.65,2.69 0.31,2.17 -0.69,0.16 -0.54,0.74 -0.78,2.17 -0.75,1.08 -0.08,1.17 -0.71,0.41 -0.68,0.92 -0.75,0.18 -0.72,2.11 -1.83,-0.11 -0.52,-0.56 -1.6,0.62 -1.55,0.1 -3.16,-0.47 -2.15,-2.39 -1.11,-0.68 -0.5,0.03 -0.27,1.64 -0.76,0.85 0.11,1.89 0.4,0.87 -0.5,0.43 -0.01,0.72 -0.37,0.03 -0.12,0.31 -1.88,0.23 -0.51,5.23 -0.71,1.75 0.26,0.59 1.67,0.48 0.43,0.94 -0.22,0.74 0.16,0.71 -0.53,0.91 0.17,0.77 -0.68,0.66 0.11,0.65 -0.86,0.63 -0.39,-0.35 -0.38,-1.12 -0.7,0.69 -0.97,-0.28 -1.01,-2.02 -0.78,-0.42 -0.93,0.63 -0.48,1.04 -0.66,0.53 -2.35,-1.39 -0.33,0.7 0,0 -0.61,-2.14 -0.41,-0.48 -2.39,-0.21 -2.21,-1.12 -1.96,0.19 -1.56,-0.53 -3.95,-0.28 -0.910002,-0.83 -4.52,0.84 -1.94,-1.01 -3.97,0.26 -0.71,-0.61 -0.35,-0.86 -0.36,-2.11 0.23,-1.18 -0.8,-2.61 -1.07,-1.46 -3.25,-1.19 -1.72,0.23 -2.39,-0.57 -3.13,0.23 -1.45,-0.29 -0.68,-0.9 -0.51,-1.98 -1.64,-1.29 -0.14,-0.57 0.46,-0.21 -0.58,-0.25 0.36,-0.33 -0.27,0.09 -0.25,-0.5 0.65,0 -0.3,-0.87 0.36,-0.15 -0.19,-0.29 0.57,-1.05 0.96,0.21 0.4,-0.4 0.99,0.28 0.08,-0.25 0.68,0.07 0,-0.25 0.55,-0.06 0.2,0.3 0.41,-0.22 0.23,0.21 0.36,-0.23 -0.06,-0.25 0.49,-0.06 1,0.79 0.22,-0.41 0.82,0.25 0.3,-0.32 0.42,0.15 1.05,-0.82 3.23,-0.79 -0.13,-1.62 -0.54,-1.06 0.2,-0.46 -0.5,-0.7 -1.19,-0.72 -0.46,0.12 -3.23,-1.89 -1.52,-0.32 -0.54,0.13 -2.02,-1.66 0.48,-0.71 -0.6,-0.29 0.06,-0.28 -1.53,-0.81 0.27,-0.25 -0.52,-0.34 -0.1,0.17 -1.1,-1.29 0.1,-0.29 1.09,-0.4 0.22,0.27 0.22,-0.31 0.63,0.13 0.7,-0.81 0.18,0.22 0.78,-0.16 0.1,0.3 2.17,-0.69 -0.33,-1.42 0.44,-1.42 1.68,-1.84 -0.78,-1.31 0.47,-1.43 1.47,-0.41 1.77,-1.35 0,-0.86 -0.82,-1.88 -1.45,-0.16 -0.61,-1.61 0,0 0.57,-0.65 0.58,0.45 1.07,-0.79 -0.38,-1.46 1.05,-1.39 -0.33,-1.12 0.69,-0.42 0.11,-1.3 1.19,-0.72 -0.33,-1.35 0.4,-0.69 -2.01,-2.15 0.01,-1.21 -0.65,-1.07 -2.1,-1.03 -1.28,-1.5 0.33,-0.52 -0.84,-0.52 0.09,-0.52 -0.71,-1.52 0.1,-0.79 2.37,-0.99 0.79,-0.11 0.29,0.46 0.77,-0.25 -0.45,-0.64 -0.56,-0.15 -0.09,-0.5 -0.75,0.39 -0.55,-0.05 -0.34,-0.8 -0.38,-3.19 1.73,-0.94 1.56,-0.14 1.01,-0.55 0.77,0.15 1,-1.48 0.73,0.24 0.61,-0.73 -0.56,-0.95 0.46,-0.44 -0.02,-0.42 0.68,-1.24 -0.03,-0.56 0.84,-1.4 2.47,-0.09 0.94,-0.88 0.82,-0.31 1.91,0.12 0.8,0.87 0.05,0.85 1.53,0.14 0.99,0.59 0.8,1.89 0.43,0.29 2.61,-0.19 1.900002,-0.69 0.71,0.31 1.82,0.13 0.36,-0.71 -0.25,-1.52 2.38,-0.45 -0.48,0.93 -0.56,0.36 -0.02,1.27 0.65,0.77 0.35,-0.33 1.08,0.01 1.12,-0.38 0.85,1.34 -0.93,2.14 1.23,0.75 0.48,-0.33 0.49,0.53 0.76,-0.38 2.71,0.29 0.69,-1.82 1.08,-0.52 -0.03,-1.65 -0.55,-1.03 0.18,-0.16 -0.35,-1.55 0.35,-0.33 -0.24,-0.7 1.15,-0.74 0.67,0.8 2.03,-1.87 0.41,0.17 0.56,-0.56 1.07,-0.03 0.29,-0.92 1.37,-2.14 1.11,0.33 0.75,1.22 1.72,0.94 1.34,-0.03 1.22,1.69 0.74,0.12 0.55,-0.75 1.71,-5.02 1.06,-1.54 1.55,1.09 2.21,-0.36 0.86,-0.76 0.81,1.06 z" 
                fill="rgb(151, 144, 238)" 
                stroke="white" 
                stroke-width=".7px"
                title="Caraș-Severin" 
                id="RO-CS" 
            />
        </svg>