<svg xmlns="http://www.w3.org/2000/svg" viewBox="154.85418000000004 86.45361999999999 102.94 91.90999999999987" width="102.94" height="91.90999999999987">
            <path 
                d="m 232.18418,89.74362 -0.05,-0.7 -0.63,-0.51 1.5,-2.04 1.84,-0.04 0.64,1.22 0.65,0.27 0.86,-0.29 0.73,0.19 0.96,-0.55 0.65,0.15 0.65,-0.41 2.3,-0.37 0.85,0.58 0.59,0.05 0,0 -0.25,1.23 0.44,1.23 -0.29,0.38 0.45,0.82 -1.95,1.22 -1.04,1.19 -2.1,-1.36 -0.38,0.11 -0.99,1.14 -0.18,5.27 0.36,2.1 0.5,0.85 -0.15,1.44 0.22,0.78 0.67,0.71 0.47,0.26 1.99,-0.04 0.92,1.39 0.46,-0.18 -0.4,-0.86 0.95,-0.2 1.21,1.98 -0.34,0.48 0.1,1.28 1.27,1.34 2.98,-0.55 0.59,0.5 0.2,1.32 0.71,0.69 0.96,1.97 -0.1,0.84 -1.4,2.41 0.17,0.93 -1.09,1.12 1.15,0.81 -0.29,1.2 -0.53,0.5 0.2,1.78 0.7,0.93 -0.27,0.92 2.36,0.42 0.59,0.53 0.12,2.14 1.42,-0.4 0.71,0.24 0.05,1.31 1.41,0.75 0.01,0.92 0.56,0.25 -0.2,0.28 1.12,0.48 -0.26,0.33 -1.41,0.07 0.34,0.93 -0.91,2.29 0.32,1.22 -1.41,0.79 0.19,1.24 -0.71,0.46 0.08,0.82 0,0 0.45,0.96 -1.29,1.05 -2.21,0.64 -0.09,0.96 -0.34,0.42 -1.31,0.23 -0.51,0.85 -1.81,0.44 -0.44,0.63 0.89,1.95 1.02,0.09 1.05,0.51 0.73,0.8 0.03,0.31 -0.43,0.38 0.27,0.46 -0.45,0.31 -0.67,2.32 -2.55,0.32 -0.68,0.73 -1.14,0.34 -0.31,1.25 -0.57,0.3 0,1.22 1.06,0.11 2.07,0.81 -1,2.76 -0.63,0.51 -0.11,1.26 -0.76,0.22 0.45,1.22 -0.54,0.87 -0.69,0.23 -1.82,-0.99 -1.04,0.64 -0.48,1.3 -0.54,0.36 0.56,1.02 -0.14,1.13 0.24,0.59 -0.28,0.4 0.23,0.51 -0.33,0.37 0,1.73 0,0 -1.05,0.56 -1.73,0.02 -1.41,0.41 -1.06,-0.18 -1.39,0.51 -1.63,-0.27 -0.45,-1.49 -1.19,-0.33 -1.64,0.73 -1.24,-0.37 -0.85,0.57 -1.75,0.45 -1.82,-0.38 -1.17,0.57 -0.76,0.87 0.51,1.37 -1.54,-0.16 0.39,1.27 0.61,0.27 0.59,-0.44 0.03,0.84 -1.19,0.73 -0.86,-0.29 -0.57,0.14 -1.82,-1.1 -1.27,0.23 -0.55,-0.92 0.39,-1.05 -0.04,-1.45 0.59,-0.89 0.88,-0.44 0.46,-1.06 -0.07,-0.65 -1.42,-1.41 -1.19,-0.19 -1.55,1.16 -1.06,0.19 -1.98,-1.3 -1.11,0.38 -0.76,-1.3 -0.64,-0.05 -0.44,-1.16 -0.56,-0.03 -1.53,-1.59 -1.68,-0.43 -0.9,-0.77 -0.78,-0.08 -1.02,0.33 -1.32,1.82 -1.82,0.88 -0.96,0.04 -1.36,0.97 -0.37,0.9 -1.37,0.08 -0.54,0.61 -3.17,-0.61 -0.34,-1.32 -1.03,0.31 -0.35,-0.14 -1.4,0.6 -0.95,0.98 -1.15,-0.02 -0.5,0.65 -0.08,1.14 -0.38,0.41 -2.12,-0.49 -0.75,0.43 -0.31,-0.44 0.73,-2 -1.11,-0.53 -0.43,-3.08 -1.3,-1.66 -1.34,-0.46 -0.72,0.56 -1.07,-0.01 -0.44,-0.49 -1.15,-0.06 -0.73,0.13 -1.87,1.43 -1.25,0.2 -2.18,-0.85 -1.14,-0.03 -1.2,-1.23 -0.11,-0.44 0,0 0.7,-3.63 -0.84,-2.74 -1.24,0.39 -0.19,-1.38 -2.45,-1.76 -0.75,0.27 -0.89,-0.61 -0.52,-0.02 -1.37,1.46 -0.67,0.11 -1.21,-0.31 -0.28,-1.01 -0.55,-0.29 0.01,-0.28 1.81,-0.41 0.39,-0.66 2.17,0.69 1.94,-1.82 -0.9,-2.77 -1.65,-1.93 0.32,-1.72 -1.28,-0.73 -1.37,0 -0.98,-1.01 0.35,-1.49 0.46,-0.73 3.57,-1.38 0.4,-1.71 3.18,-5.79 -3.49,-2.44 -1.69,-1.61 -1.23,-0.23 0.01,-2.85 1.06,-0.75 0.36,-0.99 0.92,-0.72 0.42,-1 0,0 1.59,-0.08 1.29,0.53 1.2,0.11 2.41,-0.86 1.04,0.4 1.22,-0.46 0.31,1.08 0.76,-0.34 0.24,1.12 1.62,0.21 0.43,0.32 -0.14,0.83 -0.66,0.25 0.1,2.9 0.5,0.6 1.05,0.09 0.7,0.81 0.27,1.34 1.01,0.14 0,0.44 0.79,0.56 0.64,-0.36 0.57,0.23 1.15,-0.38 0.33,0.49 0.51,0.01 -0.31,0.43 0.16,0.66 1.2,-1.2 0.3,0.7 -0.1,1.15 0.34,0.15 1.61,-2.2 0.07,0.43 0.8,0.12 0.09,0.36 0.75,0.44 -0.53,0.83 -0.52,1.98 1.27,0.28 0.5,0.42 1.51,-0.58 1.04,-0.09 0.95,-1.11 1.62,-0.27 1.05,0.55 0.09,-0.83 0.54,-0.44 0.27,-0.81 0.46,-0.04 -0.51,-0.98 -0.19,-2.19 0.48,-0.46 0.33,-0.9 -0.6,-1.1 1.19,-0.43 0.15,-0.4 0.31,0.25 -0.08,1.11 0.92,0.25 0.56,0.93 -0.15,1.49 0.51,0.67 1.31,-0.23 0.26,0.77 0.86,0.27 1.43,-1.03 0.8,0.36 0.92,-0.63 0.48,-0.78 -0.07,-0.62 0.49,-0.22 0.56,-0.92 0.63,-0.31 -0.13,-1.06 -0.64,-0.52 0.11,-0.28 0.77,0.07 -0.13,-0.9 1,-0.14 0.9,-0.59 -0.82,-0.16 0.4,-0.74 1.49,0.33 0.3,-0.03 0.05,-0.36 0.72,0.2 0.57,-0.91 0.62,-0.26 -0.12,-0.44 0.84,-0.62 -0.28,-0.91 1.03,-0.29 0.06,-0.91 -0.9,-0.69 0.31,-0.26 -0.25,-1 -0.91,-0.28 -0.03,-0.82 -1.83,-2.09 1.31,-0.05 0.13,-0.47 0.87,0.44 1.23,-0.01 0.15,-0.73 -0.67,-0.37 0.22,-0.67 1.49,-0.25 0.11,-0.97 -0.18,-0.5 -0.68,-0.35 -0.15,-2.1 0.91,-0.29 1.28,0.13 0.92,-0.5 0.68,0.3 -0.31,-0.8 1.23,-1.57 1.3,0.35 1.41,1.21 0.59,-0.75 0.43,-0.01 0.92,-0.76 -0.37,-1.29 0.6,-1.28 0.81,-0.5 0.24,-0.75 0.95,-0.48 1.61,-1.53 0.81,-0.27 0.12,-0.45 0.76,-0.49 0.48,0.85 1.13,-0.55 0.72,-2.03 2.26,1.11 1.49,1.82 0.44,-0.05 -0.37,-2.19 -1.05,-1.47 0.71,-1.03 -0.23,-0.35 0.5,-1.03 0.9,-0.51 -0.02,-0.82 0.83,-0.59 z" 
                fill="rgb(151, 144, 238)" 
                stroke="white" 
                stroke-width=".7px"
                title="Cluj" 
                id="RO-CJ" 
            />
        </svg>