<svg xmlns="http://www.w3.org/2000/svg" viewBox="454.4141799999999 325.50361999999996 112.09000000000026 96.20000000000022" width="112.09000000000026" height="96.20000000000022">
            <path 
                d="m 562.60418,336.04362 1.22,0.7 -0.43,1.3 -0.47,-0.95 0.03,-0.7 -0.67,0.34 -0.24,0.75 0.04,-0.94 0.52,-0.5 z m -8.15,0.71 0.53,0.02 -0.06,0.34 -0.82,0.98 0.27,-1.06 -0.21,0.14 -0.11,-0.36 -0.55,0.35 -0.04,-0.22 1.61,-1.28 0.38,-0.03 -1,1.12 z m 9.46,-1.18 1.26,1.06 0.85,-1.14 0.48,0.28 -2.85,3.68 -2.03,3.18 0.54,-1.41 2.98,-3.94 -0.37,-0.54 -0.84,-0.06 0.05,-0.37 -0.62,-0.67 -0.32,0.27 -0.06,-0.65 0.93,0.31 z m -6.49,-1.4 1.86,0.11 1.37,0.4 0.47,0.52 1.21,-0.14 0.44,0.29 -0.56,0.81 -0.19,-0.39 -0.29,0 -0.63,0.64 -2.31,1.28 0.23,0.27 -2.69,2.24 -0.03,0.34 -0.63,0.54 -0.34,-0.87 1.21,-1.45 4.05,-2.93 -1.14,-1.29 -0.54,0.08 -0.73,-0.31 -1.94,0.73 -0.44,0.49 -0.52,-0.34 0.16,-0.38 1.98,-0.64 z m -51.29,-8.62 2.66,0.81 0.76,-0.3 0.46,-0.56 1.29,0.23 2.54,1.76 -0.73,0.92 -0.05,0.64 1.32,0.87 0.87,-0.16 0.02,-0.66 0.36,-0.24 2.53,0.07 0.06,0.95 -0.31,0.37 -0.07,1.23 0.82,0.42 -0.61,1.1 3.69,1.7 -0.18,0.36 1.08,0.26 -0.03,0.23 0.58,0.22 0.1,0.94 4.2,0.54 -1.13,1.85 0.45,0.15 1.92,0.45 0.25,-0.84 1.78,0.3 0.19,-0.93 0.4,0.12 0.11,-0.42 0.83,0.11 0.26,0.1 -0.5,0.76 0.8,0.19 -0.11,0.79 0.56,0.17 -0.17,0.62 1.06,-0.72 2.23,0.01 0.23,-1.82 2.75,0.33 6.99,-0.84 0.73,0.23 -0.13,-1.91 1.05,0.02 0.81,-0.47 0.32,-0.02 0.56,0.57 -0.01,0.83 0.44,0.43 0.57,0.05 0.5,-0.65 0.4,0.28 0,0 0.06,1.13 0.47,0.43 0.32,1.8 0.42,0.32 0.59,-0.36 0.25,0.31 1.43,-0.35 0.45,0.89 -3.59,3.12 1.13,-2.02 -0.09,-0.42 -0.43,-0.16 -0.55,0.55 -1.37,-0.04 -0.18,1.51 0.37,0.99 -0.16,0.99 0.73,0.57 1.27,-1.06 -0.1,0.47 -1.78,1.69 -0.5,0.04 -0.29,-0.64 -0.95,-0.02 0.03,0.81 -1.04,1.16 0.51,0.91 0.98,-1.39 0.92,-0.13 1.17,0.39 -1.7,4.87 0.16,1.41 -0.19,1.02 0.43,0.6 0.44,0.17 0.6,-2.38 1.62,-2.41 2.62,-2.83 0.6,-1.19 0.78,-0.6 2.93,-1.01 0.75,-1.23 -2.1,4.36 -2.14,3.54 -6.65,7.97 -1.74,2.74 -0.63,0.58 -1.37,2.8 -1.83,0.05 -0.98,1.03 -0.39,0.04 -0.58,0.83 0.41,0.24 -0.88,2.74 -0.11,3.67 0.57,2.25 1.24,1.37 0.33,1.01 -0.03,1.72 0.62,0.82 -0.94,0.15 -0.38,0.58 0.5,0.06 0.01,0.22 -0.54,-0.02 -0.29,0.31 0.89,0.46 0.34,0.5 0.5,0.05 -1.26,0.41 0.12,0.32 0.41,-0.13 0.71,2.44 -0.3,-0.01 -0.01,-0.46 -0.58,0 -0.01,0.4 -0.21,0.02 -0.07,-0.64 0.49,-0.22 -0.23,-0.8 -0.54,0.12 -0.19,2.34 -1.06,0.26 0.06,0.44 0.75,-0.3 0.39,0.44 0.45,0 0.02,-0.33 0.96,0.04 0.14,0.69 -1.51,0.34 -0.32,1 0.23,1.68 1.42,4.14 -0.1,1.06 0.3,0.73 -0.67,0.85 -0.19,1.04 -1.01,1.57 -0.03,0.97 -0.32,0.59 0.16,0.95 -1.48,2.26 -0.45,1.78 0.11,2.43 -1.04,0.96 -0.27,2.84 -0.63,0.54 0.21,0.05 -0.2,0.72 0.63,0.36 -0.44,0.21 0.06,0.79 -0.46,1.9 0.3,1.48 -8.61,0.46 -6.43,-1.67 -7.37,-0.6 -8.11,-3.67 -5.51,-3.08 -1.88,-0.78 -1.06,-4.88 -1.55,-3.97 -0.56,-3.67 -1.79,-2.27 -4.77,3.73 -5.81,0.74 -1.11,0.41 -1.76,-0.52 -2.3,-5.97 -1.9,-1.59 -2.07,3.2 -9.03,-0.87 -4.67,0.91 -1.95,-2.49 -0.86,-1.55 -4.25,-1.54 -0.05,-0.81 -0.86,-1.26 -0.04,-0.54 0.5,-0.45 -0.39,-0.31 -0.31,-1.15 0,0 1.29,-0.99 1.29,-0.35 1.25,0.17 1.48,0.9 2.45,-0.35 2.6,0.71 1.26,-0.04 1.91,-1.63 1.52,-0.86 1.14,-1.34 4.9,-2.8 2.66,-0.67 4.49,0.82 1.2,-0.18 3.95,-3.44 0.93,-0.53 1.8,-0.55 1.81,0.16 1.62,-0.52 1.98,0.31 1.18,-0.2 1.13,-0.86 2.71,-3.94 1.25,-2.38 0.2,-0.91 0,0 0.44,-1.92 0.95,-1.64 1.46,-1.65 0.76,-1.55 2.07,-1.49 0.24,-1.16 -0.56,-1.1 -0.56,-3 -0.4,-0.62 -1.77,-1.13 -0.49,-0.71 -0.86,-2.72 -1.54,-2.59 0.03,-0.93 0.89,-1.46 0.46,-1.71 -0.8,-2.12 -0.53,-0.89 -2.8,-2.48 -2.03,0 -1.21,-1.34 -2.35,-1.19 -0.75,-1.76 0.45,-3.14 0,0 1.1,-0.92 3.55,-0.8 3.08,1.8 0.96,0.03 0.8,-0.55 0.57,0.33 0.67,-1.25 1.31,-0.75 0.58,-1.62 z" 
                fill="rgb(151, 144, 238)" 
                stroke="white" 
                stroke-width=".7px"
                title="Constanța" 
                id="RO-CT" 
            />
        </svg>