<svg xmlns="http://www.w3.org/2000/svg" viewBox="335.8841800000003 188.99362 64.52999999999963 71.33000000000001" width="64.52999999999963" height="71.33000000000001">
            <path 
                d="m 336.44418,204.67362 2.04,-0.84 1.27,-3.07 -0.15,-0.99 0.5,-0.82 -0.19,-0.42 0.21,-0.33 1.59,-0.57 0.45,-1.21 1.89,-0.54 1.66,-2.71 1.97,-0.33 2.69,-1.59 0.46,-0.42 0.81,-1.84 0.83,0.42 0.9,-0.23 1.66,1.64 -0.91,1.32 1.35,1.31 -0.11,0.61 0.94,0.41 0.09,0.86 0.49,0.22 1.27,1.89 0.05,0.59 0.5,0.25 -0.52,0.9 0.68,0.15 0.21,0.76 2.01,1.87 0.2,1.34 0.45,0.73 0.44,0.2 2.61,-0.01 1.84,-0.96 1.13,0.29 2.69,-0.53 0.79,0.74 0.65,-0.36 1.06,0.02 0.76,-0.97 0.35,-2.19 3.17,0.49 0.77,-0.64 1.32,0.19 0.97,-0.82 2.47,1.12 0.27,-0.22 0.1,-1.39 0.28,-0.37 0.67,-0.13 1.3,0.43 0.79,-2.4 1.52,-0.32 0.9,-0.85 -0.36,-1.61 0.53,-0.52 -0.06,-0.83 0,0 1.69,0.17 2.24,1 1.23,3.09 -0.62,2.21 0.95,1.9 -0.49,3.37 0.66,0.85 2.23,1.47 2.68,-0.07 0.95,1.6 -0.82,0.57 -0.04,0.57 0.66,1.15 0.14,1.08 0,0 0.26,2.3 -0.61,1.65 0.35,1.04 -1.38,1.36 -1.21,0.73 -0.49,0.87 -0.01,1.14 -0.3,0.49 0.5,1.74 -0.74,0.37 -0.43,1.36 0.19,1.4 0.52,0.98 -0.99,2.9 0.38,1.13 -0.29,1.37 1.18,1.74 0,0 -0.65,1.94 0.49,1.22 -0.34,1.64 0.23,1.28 -2.33,1.16 0.13,1.01 -1.14,2.62 0,0.91 -0.62,1.94 0.24,2.15 -1.16,1.96 -0.67,0.36 -1.36,1.76 -1.78,-1.8 -0.45,-1.29 -2.09,-0.13 -1.78,1.23 -0.64,2.33 0.2,0.85 -2.76,4.68 -1.57,0.18 -0.37,0.4 -0.96,-0.17 0,0 0.48,-3.09 -0.41,-0.68 -0.05,-3.11 -2.29,-1.72 -0.12,-0.76 -2.78,0.01 0.45,-1.88 -3.73,-1.1 0.35,-0.26 0.2,-0.82 0.63,-0.5 -0.82,-1.89 -1.98,-0.57 -0.97,-0.69 -0.44,0.11 -0.04,-0.59 -0.28,-0.25 -2.89,0.22 -0.41,-0.81 -0.51,-0.18 0.05,-0.43 -0.9,-0.41 -0.41,-0.9 -0.62,-0.14 0.1,-1.06 -1.32,-0.15 0.04,-0.5 -1.01,-0.58 -1.49,0.37 -0.84,-0.3 -0.39,-0.99 -0.68,-0.42 -0.54,-0.01 -0.36,0.43 -0.71,-0.32 -0.46,0.09 -0.43,1.33 -1.04,0.13 -0.29,-0.47 0.23,-0.87 -0.38,-0.1 -0.41,-0.61 0.23,-0.4 -0.84,-0.81 -0.28,0.51 -0.25,-1.16 -0.15,0.61 -0.57,-0.56 0.46,-0.34 -0.07,-0.29 -0.39,0.26 -0.38,-0.45 -0.4,0.2 -0.58,-1.38 -0.73,-0.23 -0.06,-0.29 -0.42,0.44 -1.28,-0.46 -0.68,-1.23 0.14,-0.51 -0.27,-0.51 0.43,-0.12 -0.33,-0.53 0.37,-0.16 0.06,-0.56 -0.37,-0.2 0.02,-0.38 -0.57,-0.28 0.52,-0.22 0.85,0.25 0.81,-0.22 0.57,-1.13 -0.63,-0.12 -0.53,-0.59 -1.7,0.25 -0.44,-0.31 -0.09,-0.71 0.47,-0.57 -0.03,-0.7 -0.63,-0.44 0.06,-0.35 -0.37,-0.19 0.09,-0.83 -0.33,-0.22 0.48,-0.07 0.11,-0.35 -0.41,-2.25 0.4,-2.27 0.82,0.22 0,-0.83 0.66,-0.19 0.24,-0.9 0.53,-0.7 -0.06,-0.48 -0.51,0.17 -0.09,-0.62 -0.31,0 -1.01,-1.91 -0.9,0.37 -0.92,-0.17 -0.89,0.25 -1.05,0.69 -0.8,-1.43 -0.48,-0.23 -0.35,-0.65 -1.03,-0.57 -0.49,-1.12 0.44,-0.49 0.26,-0.97 z" 
                fill="rgb(151, 144, 238)" 
                stroke="white" 
                stroke-width=".7px"
                title="Covasna" 
                id="RO-CV" 
            />
        </svg>