<svg xmlns="http://www.w3.org/2000/svg" viewBox="388.1141800000001 344.20361999999994 114.30000000000007 50.70999999999992" width="114.30000000000007" height="50.70999999999992">
            <path 
                d="m 398.70418,351.20362 3.27,-2.47 -1.97,-0.25 2.92,-3.11 2.19,1.46 0.17,0.93 1.78,2.2 3,1.08 1.74,-2.46 0.41,-0.03 2.37,-4.35 0.93,0.58 -0.47,1.29 1.09,0.59 1.23,0.23 -0.26,2.26 0.88,0.92 2.4,0.61 0.51,-2.33 1.16,0.09 -0.27,2.85 2.18,0.86 1.55,-1.74 0.9,0.15 -0.14,0.9 1.36,-0.42 0.72,0.25 0.26,-0.81 0.98,0.2 0.2,0.15 -0.13,0.76 3.29,-0.82 0.72,-0.47 4.71,-0.11 -0.12,2.14 3.91,-0.33 0.06,2.27 2.91,0.15 0.37,-1.64 3.42,0.93 0.03,0.36 1.02,0.21 0.28,-1.39 -0.27,-0.19 0.44,-0.97 0.87,0.12 -0.06,0.36 0.29,0.14 -0.26,1.32 2.26,0.47 0.88,-2.23 1.03,0.16 -0.03,1.82 4.13,0.45 0.45,-2.75 0.85,0.12 -0.06,0.79 1.3,0.1 -0.09,0.85 8.15,-0.19 0.43,-1.72 0.04,-2.48 1.26,0.15 0.2,-1.88 0.79,-0.02 0.78,0.41 0.36,3.14 0.07,4.46 3.16,0.06 0.14,0.63 1.35,0.04 -0.04,2.52 0.45,0.12 -0.07,0.59 1.41,0.72 3.37,0.66 -0.02,0.23 0.72,0.15 1.81,1.59 -1.34,1.06 0.83,1.35 -0.67,0.49 1.61,1.82 1,-0.94 0.69,1.11 0.21,-0.21 0.67,0.65 0.65,-0.22 0.65,-0.69 0.64,-2.06 0.69,-0.97 6.21,1.53 2.06,1.23 2.16,0.8 0,0 -0.2,0.91 -1.25,2.38 -2.71,3.94 -1.13,0.85 -1.18,0.2 -1.98,-0.3 -1.61,0.52 -1.82,-0.16 -1.8,0.55 -0.93,0.53 -3.95,3.44 -1.2,0.18 -4.49,-0.82 -2.65,0.66 -4.91,2.8 -1.13,1.34 -1.53,0.87 -1.91,1.62 -1.26,0.05 -2.6,-0.71 -2.46,0.35 -1.47,-0.9 -1.25,-0.17 -1.29,0.35 -1.3,0.99 0,0 -0.49,-0.24 -2.03,0.9 -2.04,-0.11 -1.41,-0.35 -1.22,-1.04 -2.24,-0.66 -1.97,0.27 -1.97,-1.07 -0.67,-0.02 -4.37,1.38 -2.26,-0.14 -3.52,0.41 -3.25,1.36 -6.07,3.51 -1.04,0.24 -1.09,0.2 -0.88,-0.36 -1.21,0.06 -2.2,1.11 -2.67,0.48 -1.16,0.52 -4.13,-0.25 -6.02,1.66 -3.89,-0.76 -1.07,0.39 0,0 -1.14,-5.42 4.01,-2.68 0.38,0.1 0.66,-1.28 -0.04,-1.08 -0.27,-0.76 -0.44,0 -0.22,-1.68 -0.86,-0.39 0.11,-0.53 0.85,-0.19 0,-0.54 -0.8,-0.52 -0.12,-1.38 -2.39,-0.14 -0.42,-1.62 -1.16,-0.3 -0.27,0.24 -0.78,-0.92 -1.02,-0.03 -0.71,-0.68 -0.7,-1.41 0.02,-0.49 -2.11,-1.38 0,0 1.61,-1.86 -1.39,-1.21 1.63,-1.62 0,0 0.41,0.24 0.95,-0.72 0.39,0.26 0.95,-0.87 -0.58,-0.1 0.99,-0.95 -0.85,-0.06 -0.48,-1.81 0.56,-0.02 0.35,0.65 0.71,-0.25 -0.64,-0.93 0.95,-0.38 0.49,0.31 0.1,-0.7 1.03,-0.85 0.67,-0.41 0.5,0.15 0.73,-0.29 0.7,0.39 0.82,-0.78 3.12,-1.82 -0.23,-0.58 -0.65,0.01 0.47,-0.57 -0.4,-0.28 -0.29,0.53 -0.62,-0.45 -0.65,0.39 -2.13,-0.06 -0.07,-0.63 -0.59,-0.08 -0.03,-0.51 -0.43,0.03 -0.07,-0.54 0,0 -0.83,-0.76 2.12,-2.29 0,0 0.69,0.34 z" 
                fill="rgb(151, 144, 238)" 
                stroke="white" 
                stroke-width=".7px"
                title="Călărași" 
                id="RO-CL" 
            />
        </svg>