<svg xmlns="http://www.w3.org/2000/svg" viewBox="315.3041800000001 267.10362 55.92999999999989 93.91000000000014" width="55.92999999999989" height="93.91000000000014">
            <path 
                d="m 336.17418,267.10362 1.19,1.31 0.76,3.26 -0.63,1.66 0.18,0.46 -0.5,0.51 -0.12,1.07 0.37,0.98 -0.31,0.59 0.51,0.89 1.93,0.23 0.36,0.57 1.33,0.67 1.49,2.06 0.18,1.56 -1.36,1.13 -0.79,3.13 0.57,3.16 2.06,0.16 0.24,2.09 0.23,0.27 0.55,-0.09 1.27,1.13 0.55,2.28 0.66,1.26 1.79,1.66 0.92,0.29 0.8,1.19 0.49,0.06 0.04,2.65 0.35,0.51 0.18,1.15 -0.17,1.16 -0.35,0.53 0.3,4.88 0.61,0.12 -0.25,-0.62 0.76,-0.34 0.45,0.59 0.87,-0.43 0.91,0.19 0.19,0.47 0.49,0.21 0.25,0.91 1.9,-0.45 0.14,0.46 1.21,1.24 0.17,0.61 0.39,-0.09 0.84,1.26 -0.04,0.69 -1.04,0.38 0.69,2.13 -1.63,1.95 0.68,1.09 2,1.28 0.37,0.81 0.67,-0.38 0.31,0.22 0.73,-0.71 0.74,-0.11 0.09,0.89 0.43,0.24 1.31,2.07 2.07,2.32 -0.19,0.29 0.5,0.21 0.92,1.36 -0.38,0.84 -2.23,1.52 1.17,2.06 0.33,0.21 1.2,-2.24 1.08,0.04 0,0 0.09,1.75 0,0 0.12,0.2 0.65,-0.11 0,0 0.27,0.51 -0.74,0.53 0,0 0.17,0.23 -0.56,0.04 0.59,1.6 -0.57,0.7 -0.65,0.27 -1.2,-0.11 -0.28,1.15 2.9,1.89 0.49,0.99 -2.73,3 -2.76,1.65 0,0 -1.13,-1.33 -0.85,-0.57 -0.73,0.98 0,0 0.4,0.36 -0.98,3.05 0,0 -0.46,0.99 -1.54,-1.53 -1.62,0.43 -0.39,0.39 -0.6,-0.2 -0.51,0.49 -1.68,-0.77 -1.36,0.18 -0.9,-0.74 -2.21,2.01 -0.38,-0.72 -0.64,-0.2 -0.3,-0.53 -0.63,-0.27 -0.14,-0.73 -0.51,0.05 -0.48,-0.61 -1.07,0.74 -0.9,1.61 -0.79,0.54 -0.38,-0.13 -0.48,-0.82 -0.75,-0.21 -4.72,2.46 -2.24,3.54 0,0 -0.23,0.25 -1.28,-1.12 1.17,-1.77 -1.09,-0.71 -1.19,0.22 -1.6,-1.14 -2.81,0.28 -0.42,0.3 1.1,2.56 -0.2,0.39 0.62,0.52 -0.84,1.54 -0.77,-0.62 -0.32,0.97 -0.39,-0.07 -0.31,0.32 -0.44,1.06 -1.36,0.85 0.29,0.58 -1.82,0.92 -1.18,-0.12 -0.39,0.24 -2.44,-3.18 0,0 2.99,0.57 0.78,-0.65 0.05,-0.96 -0.38,-1.12 0.67,-0.44 0.09,-0.46 -1.29,-3.05 1.03,-0.96 -0.27,-0.19 0.31,-0.49 -0.37,-2.37 -0.27,0.07 -1.05,-0.84 -1.5,-2.77 -0.58,-0.51 -0.58,0.02 -0.83,-1.06 0.52,-1.78 -2.45,-2.43 0.73,-0.39 0.76,0.34 0.31,-0.2 1.98,-2.22 0.18,-1.05 -2.99,-1.69 0.22,-1.09 0.5,-0.52 0.64,-5.74 -0.08,-1.11 -0.54,-0.6 0.25,-0.74 -0.2,-1.33 0.31,-1.84 -1.48,-5.4 -0.43,-0.51 0.2,-1.09 -0.28,-0.98 0.63,-3.53 1.18,-0.66 0.37,-1.04 -0.7,-2.2 -0.94,0.02 -0.64,-1.34 -1.25,0.3 -1.17,-1.9 0.03,-1.35 0.68,-0.65 1.55,0.61 0.65,-1.26 0.22,-1.33 -0.58,-0.44 -0.43,-0.82 0.1,-0.55 -0.41,-0.23 0.32,-1.04 -1.02,-0.47 0.02,-1.19 0.55,-1.08 0.19,-2.39 -0.15,-0.29 -1.23,0.02 -0.03,-1.88 1.28,-1.35 2.07,2.6 0.83,2.03 1.5,1 1.8,-0.78 -0.03,-2 -0.29,-0.91 0.64,-0.47 1.53,-0.07 0.83,-0.62 0.02,-0.89 -0.78,-3.28 1.64,-2.05 -0.01,-0.99 0.67,-1.62 -0.22,-1.49 0.58,-0.53 0.34,-1.14 -0.57,-1.52 0.3,-0.9 0,0 2.9,-0.83 2.5,0.28 0.36,-0.63 -0.14,-2.42 0.27,-0.66 1.09,-0.94 z" 
                fill="rgb(151, 144, 238)" 
                stroke="white" 
                stroke-width=".7px"
                title="Dâmbovița" 
                id="RO-DB" 
            />
        </svg>