<svg xmlns="http://www.w3.org/2000/svg" viewBox="336.77418 347.83361999999994 62.67000000000007 77.86999999999995" width="62.67000000000007" height="77.86999999999995">
            <path 
                d="m 336.77418,355.56362 2.24,-3.54 4.72,-2.46 0.75,0.21 0.48,0.82 0.38,0.13 0.79,-0.54 0.9,-1.61 1.07,-0.74 0.48,0.61 0.51,-0.05 0.14,0.73 0.63,0.27 0.3,0.53 0.64,0.2 0.38,0.72 2.21,-2.01 0.9,0.74 1.36,-0.18 1.68,0.77 0.51,-0.49 0.6,0.2 0.39,-0.39 1.62,-0.43 1.54,1.53 0.46,-0.99 0,0 1.47,0.25 0.82,-0.53 1.13,1.18 0.92,1.26 -1.49,2.83 1.08,0.36 -1.24,2.44 -1.05,-0.64 -0.55,-0.01 -0.21,-0.82 0.19,-0.66 -0.29,-0.3 -0.97,0.76 0.31,0.2 0.36,1.29 0.05,1.04 -0.39,0.53 0.41,0.47 0.26,1.22 -2.52,1.6 -0.12,0.75 0.66,0.64 1.15,0.39 0.22,0.92 2.3,1.12 -0.12,1.01 0.61,0.43 2.58,0.97 2.05,0.13 1.15,1.11 0.38,1.23 -1.45,3.03 1.66,-2.68 0.55,-0.16 0.6,0.68 0.92,0.09 0.15,0.98 0.57,0.15 1.07,1.23 1.76,-0.06 0.11,1.45 0,0 3.42,1.57 1.3,-0.31 0,0 0.66,-1.06 0,0 0.62,0.3 1.38,-2.03 0,0 0.26,0 0.3,0.61 0.4,-0.19 0.57,-1.31 0.39,0.16 0,0 1.27,-1.75 0,0 2.11,1.38 -0.02,0.49 0.7,1.41 0.71,0.68 1.02,0.03 0.78,0.92 0.27,-0.24 1.16,0.3 0.42,1.62 2.39,0.14 0.12,1.38 0.8,0.52 0,0.54 -0.85,0.19 -0.11,0.53 0.86,0.39 0.22,1.68 0.44,0 0.27,0.76 0.04,1.08 -0.66,1.28 -0.38,-0.1 -4.01,2.68 1.14,5.42 0,0 -3.84,0.94 -2.25,1.45 -4.54,2.2 -3.41,0.01 -2.66,1.65 -1.71,1.91 -1.6,3.44 -0.68,0.57 -2.55,1.14 -3.49,2.42 -1.74,2.13 -3.11,5.29 -1.82,1.78 -2.51,1.12 -1.85,3.26 -3.38,1.8 -3.88,0.05 0,0 -0.58,-3.28 -0.66,-8.43 -1.54,-0.02 -0.6,-0.77 0.19,-1.5 -1.51,-2.3 0.9,-0.37 0.29,-0.55 -0.15,-3.98 0.61,-1.02 -1.24,-1.96 0.81,-0.47 -0.37,-0.75 -0.47,-0.28 -0.58,-5.97 0.1,-0.23 2.17,-0.37 -0.05,-0.44 -0.87,-0.49 0.01,-1.24 1.22,-1.62 0.34,-0.91 0.56,0.47 0.38,-0.01 -0.45,-0.76 0.71,-0.93 0.2,-0.02 -0.16,0.47 0.22,0.93 0.74,0.49 0.2,-0.31 -0.19,-1.04 0.26,-0.27 0.46,0.34 0.04,-1.05 1.73,-0.57 -1.1,-1.56 -2.67,-1.73 0.7,-2.96 -0.14,-0.95 1,-1.29 0.97,-2.82 -0.24,-0.73 -0.83,-0.54 -0.55,0 0.17,-0.55 -0.35,-0.38 0.1,-1.16 -0.79,-0.25 -0.33,1.64 -0.19,0.02 -1.82,-1.18 0.57,-1.28 -2.07,-0.87 -0.42,0.12 0.05,-0.43 -0.38,0.44 -0.29,-0.21 -0.53,0.36 -0.96,-0.73 -3.47,0.26 -2.25,-0.85 0.24,-2.38 1.4,-1.82 -0.61,-0.77 0.93,-0.74 0.09,-0.51 0.54,-0.19 0.2,-0.48 -0.22,-0.43 -1.24,-0.25 0.15,-0.22 -0.29,-0.15 -0.28,-0.82 -1.23,-0.38 0.35,-0.63 -0.17,-0.38 0.9,-1.29 -0.64,-0.29 0.42,-0.62 z" 
                fill="rgb(151, 144, 238)" 
                stroke="white" 
                stroke-width=".7px"
                title="Giurgiu" 
                id="RO-GR" 
            />
        </svg>