<svg xmlns="http://www.w3.org/2000/svg" viewBox="149.1841800000001 275.21362 83.79999999999984 71.38000000000017" width="83.79999999999984" height="71.38000000000017">
            <path 
                d="m 215.74418,275.21362 0.62,0.75 1.1,0.45 0.41,0.53 0,0 0.4,-0.09 0.8,-1.45 0,0 0.91,0.09 0.39,0.61 0.92,0.25 0.14,0.65 0.45,0.27 2.08,-0.21 0.62,0.62 0.71,-0.68 1.67,-0.67 0.67,-0.62 1.17,-0.27 1.52,0.33 0.85,0.91 0.96,0.28 0.17,0.56 -0.22,1.59 -1.59,1.85 -0.92,1.85 -0.43,0.25 0.18,0.36 -0.17,0.44 1.18,4.15 1.57,1.95 0.64,1.33 0.44,2.84 -1.97,0.79 -0.67,0.98 0.4,0.53 0.17,1.6 -0.45,2.89 -0.77,0.67 -0.06,1.64 -1.1,2.05 -0.2,0.97 -1.74,0.98 -0.12,1.08 0.57,2.3 0.35,0.42 0.03,1.04 -0.11,4.07 -0.47,0.72 0.15,1.12 -0.46,1.41 1.28,0.14 1.37,3.31 -0.48,0.42 -0.54,0.05 -0.04,0.93 -0.35,0.44 -0.34,2.88 0.8,3.1 -0.82,3.29 -0.39,0 0,0 0.11,-0.45 -1.28,0.09 -0.56,-0.46 -0.33,0.21 -0.12,0.57 -0.62,-0.14 0.11,2.83 -0.72,2.03 0.29,0.58 -0.28,0.81 0.53,0.53 0.14,1.45 -0.76,3.26 -0.22,-0.02 -0.06,-0.5 -0.51,-0.03 -0.01,-0.86 -0.36,-0.14 -2.44,0.24 -0.32,0.41 -1.45,0.54 -1.29,-0.28 -0.52,-0.46 -0.01,-1 -0.72,-0.48 -1.55,0.76 -1.63,-0.33 -0.58,0.88 -1.34,0.28 -0.4,1.11 -0.48,0.16 -0.19,0.47 -1.51,0.12 -0.97,0.46 0,0 -0.92,-0.51 -0.95,-1.15 -1.6,-0.31 0.66,-0.79 0.02,-0.85 -2.37,-1.45 -1.01,-0.29 -2.84,-2 -0.77,-0.14 -3.6,-1.78 -0.47,0.09 -0.88,-0.66 -2.26,0.08 -3.24,-1.18 -0.43,0.45 -0.27,-0.31 -2.75,-0.61 -0.24,-0.48 -0.53,-0.08 -0.82,-0.87 -0.02,-0.33 0.37,-0.15 -0.48,-0.48 0.34,-0.24 -0.26,-0.46 -0.18,0.2 -0.19,-0.17 -0.18,0.34 -0.35,-0.74 -1.45,-0.1 -1.54,-1.17 -0.03,-0.88 -0.55,-0.37 -0.56,-1.59 -0.87,-0.86 -0.73,-0.35 -0.94,1.11 -1.05,-0.73 0.02,-0.96 0.65,-0.63 -2.16,-1.52 -0.79,-3.01 0.11,-2.18 -0.38,-2.31 -0.54,-0.8 -0.32,-2.31 -0.4,-0.37 0.23,-0.5 0.9,-0.49 0.15,-0.75 0.38,-0.24 -0.33,-1.13 -1.13,-1.35 -1.41,0.05 -0.33,-0.99 -0.91,-1.1 -0.19,-0.79 -1.82,-1.38 -1.12,-0.49 -0.89,-1.29 -1.74,0.11 -1.54,-1.04 -0.62,-0.08 -1.51,-2.89 -0.38,-0.29 -0.65,0.26 -0.23,-0.34 -0.47,-0.07 0,0 -0.28,-0.19 -0.38,-1.72 -0.7,-0.03 -1.21,-0.99 -1.06,0.01 -0.68,0.36 -1.06,-0.41 -1.06,-1.41 0.18,-1.2 1.56,-2.73 1.2,-1.11 1.41,-0.04 1.18,-1.12 0.07,-0.97 0,0 2.08,-1.64 1.72,-0.64 1.79,0.02 0.81,-0.54 3.58,-1.01 1.49,-0.9 2.41,1.88 1.16,-0.68 5.04,-0.26 1.29,-1.61 0.26,0 0.77,1.95 0.04,0.74 0.34,0.39 0.94,0.24 0.54,2.47 1.08,0.2 2.84,-2.49 -0.13,-1.34 0.51,-2.18 1.56,0.11 2.79,1.49 0.89,0.1 0.95,-0.85 1.66,-0.5 0.68,-0.94 1.92,-0.99 2.8,0.1 1.1,0.57 0.35,-0.08 0.73,-0.61 0.44,-1.97 0.98,-0.61 1.51,0.5 0.26,-0.86 1.16,1.95 1.59,1.1 0.99,0.24 0.3,0.67 0.64,0.17 1.37,-0.54 0.6,-0.9 2.17,-1.53 1.29,-0.27 0.45,-0.78 1.4,-0.42 0.53,-0.62 z" 
                fill="rgb(151, 144, 238)" 
                stroke="white" 
                stroke-width=".7px"
                title="Gorj" 
                id="RO-GJ" 
            />
        </svg>