<svg xmlns="http://www.w3.org/2000/svg" viewBox="296.73418000000004 108.91362000000001 93.91000000000008 95.76000000000013" width="93.91000000000008" height="95.76000000000013">
            <path 
                d="m 322.48418,113.18362 0.77,-0.23 0.75,-0.98 1.31,0.04 0.79,-0.81 0.39,-0.84 0.64,-0.13 2.5,1.67 1.55,0.23 1.52,0.87 0.46,-0.45 -0.06,-1.11 0.49,-0.25 0.45,-1.38 3.17,-0.9 1.22,0.19 1.26,1.39 0.84,0.03 0.79,0.6 0.35,2.64 1.42,0.25 0.79,-0.23 2.14,0.74 0.42,-0.26 0.98,-1.53 2.31,0.6 0,0 0.99,-0.1 3.92,1.7 0.66,1.8 1.45,1.46 0.11,0.57 0.36,0.12 -0.01,0.77 -0.34,0.54 0.8,0.97 1.39,3.82 0.34,0 0.71,-1.13 1.64,0.08 0.38,0.38 0.01,0.69 1.1,0.95 -0.6,0.64 -0.78,-0.42 -0.16,1.61 -1.06,1.16 -0.92,-0.39 -0.7,0.05 -0.05,1.05 -1.55,1.65 -0.39,0.97 -0.64,0.43 1.25,1.67 -0.37,1.36 -0.68,0.39 0.04,0.59 0.4,0.53 1.21,0.18 1.2,1.04 -0.18,2.57 0.73,1.55 -0.28,1.41 0.28,1.16 -1.1,1.09 0.33,0.41 -0.09,0.44 -1.05,0.55 0.35,0.97 0.4,0.01 0.48,1 4.02,4.87 2.18,0.05 0.41,-0.42 -0.33,-1.3 -1.24,-1.85 0.51,-1.03 0.44,0.38 0.5,-0.48 2.2,0.12 0.91,0.36 1.22,-0.12 0.28,0.61 0,0 1.45,1.93 0.32,0.81 -0.19,0.83 0.46,0.54 -0.09,0.69 -0.78,0.46 -0.32,1.42 0.32,1.49 1.31,1.65 1.01,2.28 1.93,2.53 0.26,1.83 0.35,0.69 -0.34,1.23 -1.64,0.43 -0.92,0.88 -0.82,1.18 0.55,0.76 -0.86,0.2 -0.51,1.35 -0.96,0.54 1.29,1.43 3.27,0.95 0.29,0.52 8.04,0.4 -1.02,1.37 0.62,0.36 0.01,0.33 -0.35,0.8 -0.5,0.25 -0.35,2.87 -0.63,1.87 0.27,0.62 1.81,0.28 1.65,-0.31 1.46,-1.03 0.67,-1.06 1.14,-0.58 0.64,-0.02 1.04,0.7 0.35,0.46 -0.66,2.87 -1.8,2.4 0.06,1.06 0.51,0.5 -0.27,0.55 0.21,0.27 0,0 0.06,0.83 -0.53,0.52 0.36,1.61 -0.9,0.85 -1.52,0.32 -0.79,2.4 -1.3,-0.43 -0.67,0.13 -0.28,0.37 -0.1,1.39 -0.27,0.22 -2.47,-1.12 -0.97,0.82 -1.32,-0.19 -0.77,0.64 -3.17,-0.49 -0.35,2.19 -0.76,0.97 -1.06,-0.02 -0.65,0.36 -0.79,-0.74 -2.69,0.53 -1.13,-0.29 -1.84,0.96 -2.61,0.01 -0.44,-0.2 -0.45,-0.73 -0.2,-1.34 -2.01,-1.87 -0.21,-0.76 -0.68,-0.15 0.52,-0.9 -0.5,-0.25 -0.05,-0.59 -1.27,-1.89 -0.49,-0.22 -0.09,-0.86 -0.94,-0.41 0.11,-0.61 -1.35,-1.31 0.91,-1.32 -1.66,-1.64 -0.9,0.23 -0.83,-0.42 -0.81,1.84 -0.46,0.42 -2.69,1.59 -1.97,0.33 -1.66,2.71 -1.89,0.54 -0.45,1.21 -1.59,0.57 -0.21,0.33 0.19,0.42 -0.5,0.82 0.15,0.99 -1.27,3.07 -2.04,0.84 0,0 -0.14,-0.84 -1.14,-0.48 -0.62,0.18 -3.39,-0.61 -0.53,-0.81 0.37,-1.14 -0.39,0.43 -0.2,-0.63 -0.42,-0.02 -0.88,-1.53 -0.48,0.36 -0.35,-0.37 -0.29,0.31 -1.44,-1.01 -2.36,1.36 -0.49,2.44 -0.25,0.15 -2.2,-1.13 -1.91,-1.75 -0.55,0.4 -0.56,-0.08 0,0 -0.89,-0.91 -1.93,-1.13 -0.47,-0.72 -1.12,-3.43 -1.68,0.02 -0.09,-0.82 -0.55,-0.36 -1.03,-0.03 -0.87,0.49 -0.61,-0.47 -0.7,0.11 -0.55,-0.38 -0.8,0.27 -0.76,-0.31 -1.05,0.14 -0.23,-0.19 -1.1,0.26 -1.04,-0.43 0.14,-0.51 -0.48,-1.65 -2.23,-1.43 -0.55,-0.05 -0.75,0.53 -1.18,-2.15 0.65,-0.42 1.1,-1.92 -1.53,-0.25 -0.34,-1.02 0.06,-0.88 -0.55,-0.51 -0.36,-0.99 0.85,-0.94 2.54,0.64 0.88,-0.61 0.8,0.31 1.26,1.11 2.33,-1.23 0.21,-0.72 -0.81,-1.16 -0.72,-0.35 -0.96,-1.87 0.51,-0.67 3.72,-2.24 0.79,-2.05 0.97,-0.97 -0.71,-0.63 -1.05,-0.11 -0.81,2.1 -0.75,-1.56 0.36,-1.37 1.75,-1.08 0.64,-2.29 1.44,-1.05 1.35,-0.25 1.34,-1.98 3.5,0.37 0.72,-0.29 0.7,-1.6 0.91,-0.91 1.12,-1.98 1.74,-1.68 1.04,-1.51 3.32,-2.12 0.39,-0.57 -0.6,-2.25 0.82,-2.74 0.1,-1.78 -0.25,-1.07 1.01,-1.82 -1.55,-1.16 -0.41,-1.4 0.31,-1.7 -1.4,-0.88 -0.59,-0.06 0.15,-1.4 0.93,-2.44 0.06,-1.15 0.41,-0.15 0.01,-1 -0.37,-0.93 0.44,-0.61 0.27,-1.2 -0.32,-1.01 0.15,-1.51 -0.41,-0.13 -0.14,-0.39 -0.06,-2.21 0.28,-0.56 -0.39,-1.6 0.14,-1.62 -2.53,-2.75 z" 
                fill="rgb(151, 144, 238)" 
                stroke="white" 
                stroke-width=".7px"
                title="Harghita" 
                id="RO-HR" 
            />
        </svg>