<svg xmlns="http://www.w3.org/2000/svg" viewBox="403.64418000000035 65.63362000000001 105.75 72.96999999999997" width="105.75" height="72.96999999999997">
            <path 
                d="m 462.68418,66.28362 1.38,-0.14 0.23,0.32 -0.74,0.81 0.05,0.66 0.94,0.29 -0.54,0.73 1.02,0.61 -0.62,0.07 0.06,0.39 0.84,0.74 0.8,-0.12 -0.07,0.28 -0.73,0.25 0.47,0.91 0.82,-0.58 0.19,0.1 -0.74,0.86 -0.06,0.94 0.8,0.77 0.38,1.29 1.33,-0.23 -0.09,0.78 0.89,0.21 0.24,-0.24 -0.14,-0.45 0.52,-0.5 0,1.56 0.47,-0.72 0.92,0.31 -0.31,-0.63 0.44,-0.35 0.24,1.09 0.88,0.65 0.26,0.68 0.84,-0.11 -0.09,1.31 -0.86,0.31 0.18,0.85 -0.53,0.5 0.13,0.54 0.43,0.35 0.55,-0.12 0.31,0.54 0.01,0.9 0.65,0.1 -0.15,0.87 -0.81,0.42 -0.06,1.96 0.24,0.09 0.65,-0.51 0.07,0.32 -0.7,0.54 0.69,0.07 0.34,0.35 0.46,-0.69 0.32,0.51 -0.41,1.81 0.72,-0.2 -0.05,1 0.54,-0.27 0.15,0.23 -0.87,1.06 -0.93,-0.29 -0.36,0.4 0.86,0.02 -0.15,0.66 0.44,0.35 0.37,-1.1 0.38,0.38 -0.33,0.73 0.75,-0.22 0.26,-0.64 0.41,1.47 0.7,-0.12 -0.33,0.77 0.8,0.34 0.23,-0.23 -0.16,-0.37 0.36,-0.19 0.38,0.29 0.37,-0.25 0.4,0.75 0.29,-0.01 -0.01,-0.9 0.25,-0.03 0.44,2.36 0.39,-0.66 0.92,0.22 -0.08,-1 0.89,0.55 0.68,-0.07 0.58,1.04 -0.07,0.74 0.7,-0.05 -0.18,1.18 0.88,0.69 -0.95,0.03 0.13,0.59 0.37,-0.34 0.37,0.4 -0.67,0.35 -0.06,0.46 0.4,0.43 0.41,-0.2 -0.14,0.9 1.23,0 -0.34,0.81 1.05,0.25 -0.56,1.41 0.82,-0.31 -0.24,1.62 0.44,0.27 0.59,-0.2 -0.38,1.8 1,0.66 -0.65,0.75 -0.01,0.39 -0.84,-0.17 -0.24,0.32 0.11,0.37 0.57,-0.22 0.31,0.62 -1.12,-0.22 -0.08,0.29 2.62,0.57 0.55,-0.28 0.13,0.5 0.81,-0.24 0.49,0.55 -0.05,0.46 -0.46,0.24 -0.25,-0.8 -0.33,0.5 -0.6,0.24 0.3,0.62 1.58,0.36 0,0.53 0.33,0.35 0.25,-0.42 0.61,-0.02 0.08,0.28 -0.43,0.27 0.34,-0.08 0.7,0.45 -0.21,0.6 0.92,0.59 0.21,1.14 0.56,-0.25 0.47,0.84 0.61,0.03 0.6,0.53 0.35,-0.07 0.04,-0.33 0.41,0.51 0.79,0.25 0.04,0.37 -0.77,0.09 -0.08,0.27 0.43,0.32 0.75,-0.18 -0.26,0.67 0.8,-0.24 0.74,0.93 0.75,-0.22 0.11,0.9 1.5,0.54 0.31,-0.4 0.86,0.28 0.19,0.33 0.43,-0.42 0.34,1.06 -0.83,-0.53 -0.55,0.81 0.51,0.08 0.63,0.84 0.2,-0.51 0.29,0.62 1.57,0.81 -0.17,0.54 0.44,0.01 0.77,0.56 -0.13,0.32 -0.65,0.26 0,0.67 -0.42,0.27 0.37,0.64 0.58,0 -0.22,0.83 0.37,-0.32 0.19,0.33 -0.29,0.72 -0.45,-0.17 0.12,0.61 -0.5,-0.2 0.23,0.33 1.31,0.18 0.04,0.27 -0.6,0.07 0.99,0.65 -0.53,1.13 -0.53,-0.11 -0.05,0.58 -0.54,-0.23 -0.2,0.46 0.29,0.23 -0.18,0.41 0.48,-0.13 0.28,0.41 0.38,-0.3 0.33,0.58 0.11,-0.46 0.22,0.09 -0.05,1.03 0.34,0.38 -1.2,0.72 0.74,0.13 -0.07,0.49 0.83,0.64 -0.27,0.32 0.44,0.1 -0.03,0.39 -0.46,-0.07 -0.14,0.34 0,0 -0.43,-0.3 -0.5,0.31 -0.79,-0.21 -0.65,0.51 -0.58,-0.39 -1.68,0.26 -1.04,0.49 -0.84,-0.01 -0.62,-0.49 -0.78,0.24 -0.91,-1.53 -2.17,0.2 -0.43,-0.49 -1.12,0.67 0.87,0.9 -0.18,0.73 0.93,1.3 -1.1,0.15 -0.41,-0.75 -1.1,-0.44 -0.79,-1.01 -2.92,-2.04 -1.81,-0.16 0.18,-1.53 -0.23,-0.2 -1.83,-0.47 -0.54,0.37 -0.8,-0.29 -1.24,0.23 -1.48,-3 -3.17,-3.48 -0.13,-0.98 -1.05,-0.42 -0.24,-0.45 -0.97,-0.38 -0.78,-0.73 -0.76,0.85 -0.09,0.91 -0.44,0.76 0.46,2.78 -0.24,0.92 0.9,-0.27 0.51,0.97 0.65,0.47 -0.13,0.6 -2.08,1.02 -0.83,0.06 -4.84,-0.83 -0.12,0.79 0.71,1.03 -0.25,0.25 -2.78,0.04 0.43,1.36 -0.61,0.35 -0.45,0.1 -0.74,-1.54 -1.53,0.44 -0.36,-0.7 -1.84,0.35 -0.53,-0.89 -0.96,-0.44 -3.59,0.88 -0.06,1.05 -1.35,0.66 -0.85,-1.3 -2.28,0.11 -0.62,-0.38 -0.45,0.46 -1.44,0.07 -1.54,-1.1 0,0 -0.81,-2.74 -2.31,-2.28 -1.88,-1.09 -0.04,-0.64 0.85,-0.74 1.19,0.13 -0.09,-1.06 1.25,-0.61 0.71,-1.05 0.2,-0.97 0.63,0.27 0.68,0.9 2.09,-0.7 0.35,-0.89 -0.02,-0.54 -1.43,-0.57 -0.49,-0.68 -1.77,-0.76 -0.21,-0.63 0.34,-0.89 -0.04,-1.16 -0.29,-0.48 -0.7,-0.19 0.15,-1.18 -1.36,-0.26 -1,0.53 -1.19,-1.08 -3.82,0.38 -0.38,1.67 -1.18,1.84 0.29,0.47 -0.4,0.25 -1.98,-0.23 -1.15,-3.4 -0.59,-0.03 -0.27,0.16 -0.1,0.9 -0.4,0.26 -0.18,0.68 0.16,0.95 -1.73,0.1 -2.91,1.59 -4.48,-0.88 -0.89,-2.54 -3.76,-4.01 -0.85,0 -1.75,1.41 -1.62,-1.97 -2.64,1.89 0.1,0.5 -0.33,0.06 -0.62,-0.62 -0.15,-3.51 -0.65,-0.63 0.81,-0.71 -0.87,-1.63 0.1,-1.2 -0.31,-0.54 -0.03,-1.48 -1.01,-1.44 -1.58,-0.5 -0.24,-1.29 -0.61,-0.97 -2.14,-1.06 0.06,-0.51 0,0 0.15,-0.77 0.94,-0.5 0.36,-1.18 0.56,-0.73 0.99,-0.03 0.13,-0.48 -0.41,-0.07 0.13,-1.22 -0.45,-0.49 -0.73,0 -0.85,-1.27 -0.73,-0.02 -0.37,-0.78 -0.8,0.33 0.09,-0.6 -0.29,0.08 -0.53,-1.51 0.22,-1.37 -0.38,-1.37 -0.43,-0.47 0.07,-0.39 2,-0.88 0.39,0.31 0.62,1.81 1.61,0.25 0.38,-0.34 1.58,0.92 1.14,1.29 1.41,0.03 0.33,-0.37 0.87,-0.07 1.58,0.16 0.08,-0.46 -0.72,-0.48 0.89,-0.44 -0.17,-0.61 -0.48,-0.25 -0.12,-0.48 -0.64,-0.61 -0.64,0.15 0.1,-0.5 -0.42,-0.35 1.73,-0.55 0.57,-0.76 0.09,-0.51 -0.5,-0.03 -0.25,-0.78 0.12,-0.75 0.6,-0.39 0,-2.84 0,0 1.13,-1 0.08,-1.11 1.11,0.52 1.14,-0.47 0.36,-0.85 -0.83,-1.1 1.18,-0.83 2,0.58 1.44,1.08 0.83,-0.02 0.42,-0.44 1.87,1.29 0.85,-0.25 1.23,0.5 1.17,0.12 1.66,-0.21 0.6,-0.48 1.98,0.41 0.47,-0.35 0.88,0.59 1.03,0.02 0.96,2.22 0.76,0.64 0.19,0.78 0.89,1.27 0.73,-1.27 0.74,-0.32 -0.01,-1.11 1.03,0.37 0.11,-3.01 -0.28,-0.66 0.76,-3.41 0.59,-1.16 0.52,-0.06 0.87,0.56 1.51,1.87 0.9,-0.57 0.61,-0.88 0.19,1.58 3.66,-0.09 0.87,-0.2 0.86,-0.66 0.54,0.15 0.27,-0.2 -0.68,-2.29 -0.32,-0.18 0.59,-0.66 0.88,-0.08 1,0.75 2.2,-1.68 0.29,0.27 2.18,-0.82 1.08,0.19 0.94,-0.64 0,0 z" 
                fill="rgb(151, 144, 238)" 
                stroke="white" 
                stroke-width=".7px"
                title="Iași" 
                id="RO-IS" 
            />
        </svg>