<svg xmlns="http://www.w3.org/2000/svg" viewBox="175.24418 24.043620000000033 135.61999999999992 66.13999999999999" width="135.61999999999992" height="66.13999999999999">
            <path 
                d="m 214.29418,25.59362 1.28,-0.13 0.45,-0.3 1.43,-0.03 0.55,0.55 0.59,-0.08 0.53,0.29 0.48,0.89 1.21,0.68 2.77,-0.76 0.6,0.37 0.46,-0.58 1.49,-0.24 0.93,0.43 0.46,-0.35 0.54,0.1 0.51,0.5 1.41,0.31 0.95,0.79 0.72,1.15 0.85,2.48 1.21,0.76 1.06,-0.94 3.84,-0.5 0.72,-1.47 1,0.04 0.59,-0.38 0.38,0.69 1.64,-0.77 1.53,1.72 1.91,-0.32 2.13,1.45 1.12,2.17 1.93,0.24 1.46,-0.61 0.6,0.21 1.19,-0.15 1.83,1.89 0.53,0.11 1.85,-0.99 1.53,0.1 2.84,-1.92 0.48,0.66 1.14,0.43 2.08,-1.12 -0.04,-0.96 0.61,-0.87 0.18,-0.77 0.94,-0.6 0.7,-0.08 1.06,-0.9 1.07,0.71 1.51,0.09 2.31,1.02 0.98,-0.89 1.24,-0.08 0.55,0.24 0.49,-0.9 0.77,0 0.65,0.25 0.97,1.33 0.11,0.58 0.6,-0.55 1.22,0.17 0.58,2.44 0.96,0.46 0.2,0.83 0.62,0.47 0.61,0.98 -0.5,1.86 0.38,1.14 1.98,1.06 0.21,1.21 0.89,0.1 1.07,-0.32 1.07,1.27 0.4,-0.63 0.52,-0.23 0.76,0.24 0.35,1.13 2.87,0.47 -0.43,1.36 0.97,1.2 -0.04,1.23 0.99,0.58 0.41,0.97 1.26,1.07 0.59,1.87 -0.14,0.94 3.92,-0.5 0,0 -0.05,1.26 0.37,0.52 0.08,0.89 1.15,0.17 0.78,0.48 1.85,2.17 2.85,1.59 0.32,0.9 -0.42,0.82 -2.83,0.61 -2.96,2.26 -0.93,1.3 0,0 -3.38,-0.61 -1.42,0.83 -0.74,0.09 -0.33,-1.17 -0.7,0.04 -1.44,0.46 -0.73,0.55 -0.44,0.71 0.29,0.66 -0.22,0.7 -0.66,0.19 -0.69,-0.43 -0.59,0.3 -1.62,0.16 -1.93,-0.46 -2.02,1.52 -1.2,0.24 -1.36,-0.33 -0.32,-0.91 -1.29,-0.23 -1.4,0.55 -0.51,-0.35 -0.94,-0.04 -0.8,0.61 -1,-0.02 -0.71,-0.31 -0.68,-0.84 -0.81,-0.04 -2.2,-1.05 -0.83,0.02 -1.19,-0.8 -1.4,0.28 -1.17,-0.35 -0.7,-0.62 -1.3,-0.27 -1.91,3.21 -1.21,0.46 -2.28,-0.77 -0.11,1.68 -1.4,1.46 -0.11,1.47 -0.48,0.36 -0.15,0.61 -0.62,-0.28 -0.52,0.31 -0.52,1.57 -2.14,-0.57 -0.44,0.16 -0.26,-0.28 -0.53,0.29 -1.62,-0.16 -1.26,0.59 -1.16,-0.05 -0.72,0.98 -0.24,1.89 0.69,1.27 -1.05,2.87 -1.46,1.51 -0.72,0.08 0.03,0.91 -1,1.99 -1.65,0.47 -0.32,1.11 -0.41,0.15 0,0 -0.59,-0.05 -0.85,-0.58 -2.3,0.37 -0.65,0.41 -0.65,-0.15 -0.96,0.55 -0.73,-0.19 -0.86,0.29 -0.65,-0.27 -0.64,-1.22 -1.84,0.04 -1.5,2.04 0.63,0.51 0.05,0.7 0,0 -1.02,-0.18 -1.38,-0.77 -0.8,0.68 -1.82,0.08 -0.36,0.48 -1.29,-0.22 -0.77,0.37 -1.1,-0.22 0.19,-0.59 0.48,-0.35 -0.51,-0.85 -0.93,-0.26 -0.82,0.12 -0.86,-2.15 -1.61,-0.89 -0.55,0.32 -0.56,-0.06 -1.92,1.18 -0.9,-0.3 -1.61,0.74 -0.23,-0.45 -1.27,-0.29 -2.18,0.51 -0.71,-0.36 -0.07,-0.65 -3.73,-0.16 -1.17,-0.96 -0.76,-0.09 -0.35,-0.36 -2.64,-0.46 -0.59,0.13 -0.15,-1.28 -0.25,-0.13 -0.68,0.4 -0.51,-0.17 -0.77,-1.43 -0.84,0.29 -1.16,-0.84 -1.63,0.14 -0.92,-0.53 -1.43,-0.06 0.14,-0.53 -0.22,-0.43 -0.41,-0.06 -0.26,0.4 -0.03,-0.54 -0.93,-0.49 -0.78,0.03 -0.2,-0.28 -1.44,1.37 -1.17,-0.34 -1.64,0.75 -1.08,1.11 0,0 -0.11,-0.79 -1.24,-0.88 -1.78,0.52 -0.54,0.61 -1,0.16 -0.56,0.43 -3.26,-1.34 -0.25,-2.24 0.67,-0.83 -0.59,-0.94 0.01,-0.53 0.48,-0.21 1.52,0.7 0.96,-1.04 0.1,0.43 0.27,-0.16 1.09,0.32 0.8,-0.32 -0.22,-1.85 0.71,-4.37 1.49,-2.37 0.61,-0.3 3.71,-4.04 2.11,3.46 0.71,0.56 1.13,0.61 1.16,0.01 1.43,1.75 0.68,0.28 0.63,0.22 1.32,-0.28 0.49,-0.64 0.03,-0.5 -0.05,-0.38 -0.56,-0.41 0.48,-2.43 -0.45,-0.91 0.85,-3.26 1.86,-0.09 0.53,-0.29 0.33,-0.85 0.66,-0.03 0.7,-1.15 1.04,-0.09 1.07,-1.36 -0.64,-0.67 -0.81,0.56 -0.37,-0.48 0,-0.82 -0.62,-0.58 -0.53,-0.04 -0.27,-0.7 -0.89,0.42 -1.36,-0.46 -0.64,-0.49 -0.24,-0.93 -0.99,0.52 -0.91,-0.41 -1.1,0.39 -0.35,-0.13 0.01,-1.49 -0.41,-0.45 -0.06,-0.59 0.71,-0.66 1.02,-1.96 0.15,-1.64 0.49,0.07 0.79,-0.38 0.59,0.74 0.67,-0.08 3.12,1.26 1.87,-0.47 0.31,0.27 0.38,-0.09 0.36,0.5 1.07,0.08 0.44,0.65 0.89,-0.25 0.72,0.18 0.55,0.63 0.8,-0.48 1.02,-1.42 1.04,-0.21 0.54,-0.54 2.17,-1.13 1.42,-0.31 0.19,-1.02 0.73,-0.97 0.01,-0.75 0.8,-0.58 0.52,-0.93 0.73,-0.21 0.1,0.59 0.39,0.01 0.57,-0.66 0.43,-0.03 0.99,-1.38 -0.4,-0.44 -0.7,-2.02 -0.78,-0.66 -1.14,-0.03 -0.33,-0.25 -0.64,-1.31 -0.02,-1.07 -0.4,-0.25 -0.72,-1.45 -0.74,0.33 -0.69,-0.24 -2.29,-1.58 -0.53,-0.86 0,0 0.29,-0.33 0.07,-0.82 1.06,-1.46 0.44,-2.29 0.8,0.91 z" 
                fill="rgb(151, 144, 238)" 
                stroke="white" 
                stroke-width=".7px"
                title="Maramureș" 
                id="RO-MM" 
            />
        </svg>