<svg xmlns="http://www.w3.org/2000/svg" viewBox="113.32418 297.85361999999986 93.64999999999999 91.21000000000015" width="93.64999999999999" height="91.21000000000015">
            <path 
                d="m 113.32418,343.33362 0.33,-0.7 2.35,1.39 0.66,-0.53 0.48,-1.04 0.93,-0.63 0.78,0.42 1.01,2.02 0.97,0.28 0.7,-0.69 0.38,1.12 0.39,0.35 0.86,-0.63 -0.11,-0.65 0.68,-0.66 -0.17,-0.77 0.53,-0.91 -0.16,-0.71 0.22,-0.74 -0.43,-0.94 -1.67,-0.48 -0.26,-0.59 0.71,-1.75 0.51,-5.23 1.88,-0.23 0.12,-0.31 0.37,-0.03 0.01,-0.72 0.5,-0.43 -0.4,-0.87 -0.11,-1.89 0.76,-0.85 0.27,-1.64 0.5,-0.03 1.11,0.68 2.15,2.39 3.16,0.47 1.55,-0.1 1.6,-0.62 0.52,0.56 1.83,0.11 0.72,-2.11 0.75,-0.18 0.68,-0.92 0.71,-0.41 0.08,-1.17 0.75,-1.08 0.78,-2.17 0.54,-0.74 0.69,-0.16 -0.31,-2.17 0.65,-2.69 -0.35,-1.23 0.71,-1.03 0.93,-0.49 -0.33,-0.46 -1.32,-0.46 0.02,-0.25 3.26,-3.1 1.11,-0.59 1.29,-2.42 1.5,-1.31 2.59,-3.54 0.56,-0.42 0.13,-0.66 0.18,-0.14 0.12,0.45 0.34,-0.4 0,0 0.47,0.07 0.23,0.34 0.65,-0.26 0.38,0.29 1.51,2.89 0.62,0.08 1.54,1.04 1.74,-0.11 0.89,1.29 1.12,0.49 1.82,1.38 0.19,0.79 0.91,1.1 0.33,0.99 1.41,-0.05 1.13,1.35 0.33,1.13 -0.38,0.24 -0.15,0.75 -0.9,0.49 -0.23,0.5 0.4,0.37 0.32,2.31 0.54,0.8 0.38,2.31 -0.11,2.18 0.79,3.01 2.16,1.52 -0.65,0.63 -0.02,0.96 1.05,0.73 0.94,-1.11 0.73,0.35 0.87,0.86 0.56,1.59 0.55,0.37 0.03,0.88 1.54,1.17 1.45,0.1 0.35,0.74 0.18,-0.34 0.19,0.17 0.18,-0.2 0.26,0.46 -0.34,0.24 0.48,0.48 -0.37,0.15 0.02,0.33 0.82,0.87 0.53,0.08 0.24,0.48 2.75,0.61 0.27,0.31 0.43,-0.45 3.24,1.18 2.26,-0.08 0.88,0.66 0.47,-0.09 3.6,1.78 0.77,0.14 2.84,2 1.01,0.29 2.37,1.45 -0.02,0.85 -0.66,0.79 1.6,0.31 0.95,1.15 0.92,0.51 0,0 -0.27,1.56 -0.55,0.95 -0.72,0.91 -0.7,0.03 -0.27,0.52 -1.32,-1.18 -1.35,0.9 -0.26,-0.6 -0.99,-0.14 -1.06,1.2 -2.39,-0.46 -3.1,0.31 0.1,0.9 0.85,0 0.53,0.58 0.02,0.82 -2.5,0.54 -0.03,0.96 -2.62,1.54 -0.18,1.82 -0.57,1.64 -0.75,-0.39 -0.27,0.52 -0.66,-0.24 -0.45,0.87 0.8,0.9 0.59,-0.09 1.49,0.65 2.74,1.63 0.17,1.23 -1.74,-0.03 -0.55,0.68 -0.97,-0.17 -0.18,0.56 0.14,1.59 -0.39,0.29 -0.32,0.91 -2.99,0.67 -0.87,1.91 -0.81,3.43 -1.63,0.47 -0.11,1.05 2.43,1.27 -1.18,7.56 -0.68,0.03 -1.58,-0.98 -1.81,-0.66 -3.73,3.84 -0.7,2.17 0,0 -1.94,-0.16 -1.26,-0.42 -3.45,-2.66 -3.87,-1.98 -4.01,-3.8 -3.29,-0.5 -1.02,-0.78 -0.49,-0.86 0.99,-2.9 -0.07,-1.18 -0.37,-0.82 -1.47,-1.06 -4.65,-0.81 -1.7,-0.74 -2.32,-3.37 -1.31,-3.78 -0.18,-2.99 -1.81,-1.57 -0.72,-1.34 -0.24,-1.53 0.58,-0.79 1.71,0.09 1.72,0.51 1.05,-0.29 0.86,-0.61 0.62,-1.01 0.45,-3.78 1.32,-1.4 2.75,0.05 4.37,2.98 1.29,-0.39 2.75,-1.5 0.36,-0.9 -0.55,-1.54 -2.97,-3.56 -1.5,-0.45 -0.85,-0.96 -3.16,0.29 -1.3,-0.47 -2.51,-1.87 -1.82,-2.4 -4.04,-4.3 -1.18,-0.23 -2.57,1.08 -0.75,1.33 -0.94,0.83 -0.99,0.33 -2.29,-0.01 -1.74,1.17 -0.65,0.85 -0.23,1.47 -1.56,1.25 -0.33,1.71 -0.6,1.36 -1.51,2.16 -2.34,4.83 -1.08,3.06 -0.42,0.43 -2.01,0.46 -1.65,-0.49 -2.77,-1.92 -0.39,-0.81 -0.31,-1.97 -2.1,-1.41 -0.57,-2.15 -0.12,-2.33 z" 
                fill="rgb(151, 144, 238)" 
                stroke="white" 
                stroke-width=".7px"
                title="Mehedinți" 
                id="RO-MH" 
            />
        </svg>