<svg xmlns="http://www.w3.org/2000/svg" viewBox="239.63417999999984 108.56362 87.55000000000018 99.61000000000003" width="87.55000000000018" height="99.61000000000003">
            <path 
                d="m 311.49418,108.56362 1.8,1.62 1.84,-0.25 1.12,0.48 0.3,-0.43 0.71,-0.13 0.35,-0.49 0.7,-0.11 3.85,3.02 0.38,0.53 -0.06,0.38 0,0 -0.32,2.8 2.53,2.75 -0.14,1.62 0.39,1.6 -0.28,0.56 0.06,2.21 0.14,0.39 0.41,0.13 -0.15,1.51 0.32,1.01 -0.27,1.2 -0.44,0.61 0.37,0.93 -0.01,1 -0.41,0.15 -0.06,1.15 -0.93,2.44 -0.15,1.4 0.59,0.06 1.4,0.88 -0.31,1.7 0.41,1.4 1.55,1.16 -1.01,1.82 0.25,1.07 -0.1,1.78 -0.82,2.74 0.6,2.25 -0.39,0.57 -3.32,2.12 -1.04,1.51 -1.74,1.68 -1.12,1.98 -0.91,0.91 -0.7,1.6 -0.72,0.29 -3.5,-0.37 -1.34,1.98 -1.35,0.25 -1.44,1.05 -0.64,2.29 -1.75,1.08 -0.36,1.37 0.75,1.56 0.81,-2.1 1.05,0.11 0.71,0.63 -0.97,0.97 -0.79,2.05 -3.72,2.24 -0.51,0.67 0.96,1.87 0.72,0.35 0.81,1.16 -0.21,0.72 -2.33,1.23 -1.26,-1.11 -0.8,-0.31 -0.88,0.61 -2.54,-0.64 -0.85,0.94 0.36,0.99 0.55,0.51 -0.06,0.88 0.34,1.02 1.53,0.25 -1.1,1.92 -0.65,0.42 1.18,2.15 0.75,-0.53 0.55,0.05 2.23,1.43 0.48,1.65 -0.14,0.51 1.04,0.43 1.1,-0.26 0.23,0.19 1.05,-0.14 0.76,0.31 0.8,-0.27 0.55,0.38 0.7,-0.11 0.61,0.47 0.87,-0.49 1.03,0.03 0.55,0.36 0.09,0.82 1.68,-0.02 1.12,3.43 0.47,0.72 1.93,1.13 0.89,0.91 0,0 -0.49,0.72 -0.91,0.12 -0.29,0.65 0.09,1.03 -0.43,0.18 -1.39,-0.16 -1.38,-1.06 -1.32,0.15 -1.21,0.93 -1.63,0.09 -1.21,-0.77 -1.31,1.24 -0.45,0.94 -0.75,0.03 -1.42,1.28 -0.49,0.83 0.34,0.88 -0.1,0.49 -0.5,0.55 0,0 -1.71,-0.23 -1.05,-1 -0.07,-1.08 -0.8,-0.48 -1.37,-0.05 -1.72,0.43 -1.33,0.99 -0.91,0.19 -0.74,-0.56 -1.07,-0.28 0.08,0.74 -0.66,0.64 -0.95,0.19 -0.35,-0.49 -1.15,0.14 -0.9,1 -1.04,-0.25 -0.91,-0.68 -0.1,-0.57 -0.51,-0.26 -0.24,-0.55 0.2,-0.99 -0.18,-0.67 0.38,-0.65 -0.21,-0.98 0.41,-1.32 -0.36,-1.6 0.56,-2.31 -0.28,-1.34 0.2,-0.85 -0.72,-0.27 0.21,-0.58 -0.38,-0.08 -0.35,-0.8 0.82,-1.13 -0.51,-0.7 -0.06,-1.72 0.22,-0.58 -0.19,-0.2 -1.72,0.51 -0.61,0.91 0.01,0.56 -0.56,0.19 -0.05,0.62 -1.66,0.41 -0.61,-0.62 -1.6,-0.65 -0.23,0.55 -1.52,-0.32 -0.06,0.81 -1.75,-0.2 -0.75,0.88 0.1,-0.61 -0.78,-0.72 -1.77,-0.27 -1.26,0.26 -0.96,-0.44 -2.32,1.1 -0.68,0.71 -1.15,-0.38 -0.54,-0.51 -2.3,0.16 -0.84,-0.38 -2.3,0.08 -0.77,0.49 -0.14,0.56 0,0 -0.23,-0.32 -0.63,-0.13 -1.31,-1.42 -1.4,0.2 0.2,-0.86 -0.2,-0.61 -0.7,-0.38 -1.06,-0.05 -1.65,-1.36 -0.23,-0.58 0.28,-1.03 -0.91,-1.85 -0.4,-0.22 -1.39,0.26 -0.43,-0.37 -1.18,0.31 -2.04,-1.03 -1.89,-1.42 -0.25,-0.62 -0.49,-0.3 0.07,-0.59 -0.66,-0.5 -0.06,-0.37 1.56,-1.65 -0.06,-1.8 0.18,-0.46 0.71,-0.41 0.19,-2.49 -0.74,-0.15 -0.49,0.29 0.15,0.73 -1.09,1.33 -0.44,0.1 -1.58,-0.07 -0.73,-2.16 0,0 0,-1.73 0.33,-0.37 -0.23,-0.51 0.28,-0.4 -0.24,-0.59 0.14,-1.13 -0.56,-1.02 0.54,-0.36 0.48,-1.3 1.04,-0.64 1.82,0.99 0.69,-0.23 0.54,-0.87 -0.45,-1.22 0.76,-0.22 0.11,-1.26 0.63,-0.51 1,-2.76 -2.07,-0.81 -1.06,-0.11 0,-1.22 0.57,-0.3 0.31,-1.25 1.14,-0.34 0.68,-0.73 2.55,-0.32 0.67,-2.32 0.45,-0.31 -0.27,-0.46 0.43,-0.38 -0.03,-0.31 -0.73,-0.8 -1.05,-0.51 -1.02,-0.09 -0.89,-1.95 0.44,-0.63 1.81,-0.44 0.51,-0.85 1.31,-0.23 0.34,-0.42 0.09,-0.96 2.21,-0.64 1.29,-1.05 -0.45,-0.96 0,0 0.75,0.08 1.68,1.27 0.97,0.41 0.66,0.94 2.26,0.67 -0.09,0.74 1.19,0.56 0.87,-0.45 0.86,0.44 0.76,-0.35 0.77,0.12 0.53,-0.54 0.19,0.49 0.73,0.47 1.02,-0.76 1.16,-0.23 0.61,-0.97 0.62,0.03 0.15,-0.42 0.73,-0.06 0.21,0.51 0.96,0.44 0.83,-1.74 -0.44,-0.97 0.96,-1.91 -0.25,-1.19 2.28,-1 -0.11,-1.23 0.69,0.25 0.7,-0.37 0.66,-1.87 -0.71,-1.17 -0.05,-0.98 0.57,-0.27 0.09,-0.61 1.75,0.15 -0.44,-0.99 0.44,-0.09 0.37,0.3 1.06,-0.31 -0.1,-0.99 0.83,-1.46 0.48,-0.38 1.14,0.32 0.2,-1.08 0.59,0.39 0.1,0.49 0.31,0.04 0.14,0.56 0.3,0.1 0.03,0.54 0.55,0.59 -0.22,0.61 0.22,0.44 0.83,0.45 1.86,0.1 0.46,0.64 1.58,-0.35 -0.09,-0.76 0.24,-0.55 0.94,-0.18 -1.42,-1.18 0.91,-1.56 0.12,-1.32 0.28,-0.4 -0.19,-0.94 0.82,-1.42 1.11,-0.45 0.89,-1.75 0.39,-2.53 1.3,-1.3 0.8,-1.45 3.99,-3.12 1,-0.27 1.48,0.47 0.89,-0.08 1.19,-1.48 2.26,0.07 0.69,0.6 1.58,-0.19 0.48,-0.25 0.85,-1.24 z" 
                fill="rgb(151, 144, 238)" 
                stroke="white" 
                stroke-width=".7px"
                title="Mureș" 
                id="RO-MS" 
            />
        </svg>