<svg xmlns="http://www.w3.org/2000/svg" viewBox="349.73418 89.29362000000002 102.41999999999996 66.0000000000001" width="102.41999999999996" height="66.0000000000001">
            <path 
                d="m 349.73418,113.33362 0.49,-1.44 -0.01,-1.43 0.48,-0.42 0.2,-0.71 1.16,-1.08 0.21,-2.47 0.22,-0.35 0.75,0.04 0.54,-0.42 -0.12,-1.7 -0.36,-0.48 1.42,-1.69 1.62,-0.41 2.22,-0.18 0.52,0.22 1.68,-2.96 0,-0.47 -1.37,-0.97 -0.36,-1.24 -0.78,-0.56 -0.62,-2.03 -1.07,-1.03 0.06,-0.32 0.56,-0.29 2.25,0.57 0.66,0.47 1.12,-0.16 1.17,1.45 1.04,0.7 1.67,2.63 1.07,0.18 0.95,-0.45 0.38,-1.11 1.14,-0.44 0.96,0.03 0.82,-0.65 1.76,0.68 1.12,-0.72 0.59,0.16 0.69,0.75 1.71,0.22 1.99,-0.89 1.01,-0.85 0.75,-0.14 0.59,0.78 1.38,-0.78 1.54,0.6 0.64,-1.03 2.44,1.1 1.45,0.98 1.17,-1.84 0.58,0.28 1.49,0.04 1.23,-0.6 0.67,-0.99 4.79,-2.62 0.72,0.74 1.55,0.28 0.81,2.49 0.93,0.3 3.03,3.15 0.21,0.69 0.8,0.36 0,0 -0.06,0.51 2.14,1.06 0.61,0.97 0.24,1.29 1.58,0.5 1.01,1.44 0.03,1.48 0.31,0.54 -0.1,1.2 0.87,1.63 -0.81,0.71 0.65,0.63 0.15,3.51 0.62,0.62 0.33,-0.06 -0.1,-0.5 2.64,-1.89 1.62,1.97 1.75,-1.41 0.85,0 3.76,4.01 0.89,2.54 4.48,0.88 2.91,-1.59 1.73,-0.1 -0.16,-0.95 0.18,-0.68 0.4,-0.26 0.1,-0.9 0.27,-0.16 0.59,0.03 1.15,3.4 1.98,0.23 0.4,-0.25 -0.29,-0.47 1.18,-1.84 0.38,-1.67 3.82,-0.38 1.19,1.08 1,-0.53 1.36,0.26 -0.15,1.18 0.7,0.19 0.29,0.48 0.04,1.16 -0.34,0.89 0.21,0.63 1.77,0.76 0.49,0.68 1.43,0.57 0.02,0.54 -0.35,0.89 -2.09,0.7 -0.68,-0.9 -0.63,-0.27 -0.2,0.97 -0.71,1.05 -1.25,0.61 0.09,1.06 -1.19,-0.13 -0.85,0.74 0.04,0.64 1.88,1.09 2.31,2.28 0.81,2.74 0,0 -0.69,0.88 1.9,2.22 -0.32,1.47 0.56,1.52 -0.13,0.5 -0.34,0.11 0.1,0.77 -0.3,0.29 0.38,2.83 -0.92,0.34 -0.38,0.6 0,0 -1.32,0.19 -0.87,1.95 -0.73,0.22 -0.44,-0.36 0.12,-1.3 -0.85,0.46 -0.97,-0.1 -1.03,-1.99 -0.49,-0.31 -0.65,0.05 -1.41,1.27 -0.58,-0.01 -0.52,-1.19 -0.27,0.27 -0.85,-0.16 -2.98,0.71 -1.04,0.8 -1.17,-0.13 -0.19,-1.03 0.18,-0.49 -0.68,-1.18 -0.55,0.2 -0.06,0.66 -0.33,0.04 0.19,-0.8 -1.03,-0.25 0.4,-0.31 -0.04,-0.37 -1.34,-0.35 0.06,-0.25 0.9,0.14 -0.02,-0.63 0.43,-0.29 0.07,-1.1 -0.81,-0.05 0.2,-0.64 -2.35,-0.3 -0.04,1.97 -1.12,0.71 -0.32,2.26 -1.9,1.35 0.36,0.63 -0.73,0.42 0.48,0.8 -0.74,0.85 -1.06,0.56 -0.92,0.03 -0.94,-2.5 -1.53,-2.36 -0.38,0.15 -0.11,1.33 -3.2,-0.3 -0.59,0.49 0.24,1.8 -0.41,1.08 -1.94,1.46 -1.11,0.25 -1.44,1.05 -1.18,1.77 -0.58,0.27 -0.95,1.16 -2.02,-2.27 -1.48,-0.2 -1.15,1.35 -1.2,0.32 -2.31,-0.22 -3.36,2.69 -1.43,0.71 -0.82,0.08 -0.8,-0.4 -1,-0.01 -1.55,-0.8 -0.92,-2.62 -1.21,-0.93 0.16,-0.98 -1.89,1.14 -1.33,2.05 -0.24,1.45 -1.32,0.03 -2.29,1.07 -0.34,-0.19 -0.67,-1.42 -1.49,0.23 -1.07,0.84 -1.45,-0.9 0.08,-1.55 -0.49,-1.35 0.29,-0.7 -0.38,-0.81 -1.1,0.51 -2.63,0.02 -0.89,-0.31 -1.35,1.15 0,0 -0.28,-0.61 -1.22,0.12 -0.91,-0.36 -2.2,-0.12 -0.5,0.48 -0.44,-0.38 -0.51,1.03 1.24,1.85 0.33,1.3 -0.41,0.42 -2.18,-0.05 -4.02,-4.87 -0.48,-1 -0.4,-0.01 -0.35,-0.97 1.05,-0.55 0.09,-0.44 -0.33,-0.41 1.1,-1.09 -0.28,-1.16 0.28,-1.41 -0.73,-1.55 0.18,-2.57 -1.2,-1.04 -1.21,-0.18 -0.4,-0.53 -0.04,-0.59 0.68,-0.39 0.37,-1.36 -1.25,-1.67 0.64,-0.43 0.39,-0.97 1.55,-1.65 0.05,-1.05 0.7,-0.05 0.92,0.39 1.06,-1.16 0.16,-1.61 0.78,0.42 0.6,-0.64 -1.1,-0.95 -0.01,-0.69 -0.38,-0.38 -1.64,-0.08 -0.71,1.13 -0.34,0 -1.39,-3.82 -0.8,-0.97 0.34,-0.54 0.01,-0.77 -0.36,-0.12 -0.11,-0.57 -1.45,-1.46 -0.66,-1.8 -3.92,-1.7 z" 
                fill="rgb(151, 144, 238)" 
                stroke="white" 
                stroke-width=".7px"
                title="Neamț" 
                id="RO-NT" 
            />
        </svg>