<svg xmlns="http://www.w3.org/2000/svg" viewBox="233.53418000000028 316.77362 64.0599999999996 109.60000000000025" width="64.0599999999996" height="109.60000000000025">
            <path 
                d="m 237.68418,350.29362 0.54,-0.37 1.08,0.34 2.03,-0.71 1.11,0.11 1.76,0.63 -0.16,1.06 1.01,-0.67 0.05,1.03 -0.34,0.45 0.68,0.17 0.55,1.1 2,0.04 1.09,-0.92 -0.23,-1.1 0.63,-0.31 -0.13,-0.38 0.52,-0.08 -0.06,-1.34 1.02,-0.35 0.69,-1.19 -0.2,-0.47 0.44,0.07 0.37,-0.27 0.34,0.35 1.2,-0.64 1.15,0.73 0.28,0.5 0.28,-0.23 0.61,0.18 1.63,-0.25 0.34,-0.35 -0.02,-1.52 0.72,0.14 2.22,-0.39 -0.21,-1.85 2.94,2.05 -0.45,-3.49 0.44,-0.49 -1.31,-2.4 -0.2,-1.15 0.35,-0.72 -0.84,-0.36 -0.5,-1.37 -0.44,0.17 -0.16,-0.85 -0.5,-0.52 0.09,-1.46 0.44,-1.05 -0.3,-0.59 0.27,-0.78 -0.07,-0.99 0.76,-0.82 -0.15,-0.58 0.34,-0.34 -0.21,-0.42 1.43,-0.18 -0.25,-1.82 0.3,-0.96 -0.17,-1.23 0.17,-0.91 1.82,-1.47 -0.63,-1.22 0.09,-0.5 1.94,-0.95 0.68,-0.06 0.61,-0.65 0.49,0.28 0.95,-1.2 1.13,0.72 0.2,0.63 -0.36,2.38 0.5,0.74 0,0 0.77,0.72 -0.86,1.45 0.06,0.37 3.02,0.24 0.4,-0.73 0.71,0.18 0.16,-1.1 -0.24,-1.23 0.94,-0.72 -0.12,-0.67 0.59,-0.29 0.04,-0.77 0.7,-1.55 0.57,0.41 0.69,-0.33 -0.02,3.22 0.58,0.4 0.06,1.73 1.06,1.72 0.23,1.35 0.93,0.27 0.33,3.93 2,2.11 3.05,-0.45 2.32,0.21 -0.22,0.68 0.14,1.51 -0.97,0.59 -0.25,0.85 1.03,1.97 0.18,0.87 -0.17,0.88 0.79,1.25 0.22,1.23 0.35,0.28 0.39,1.37 -0.8,1.16 -0.08,0.79 0.04,0.51 0.86,0.81 0.09,1.14 -0.29,0.2 0.18,0.55 -0.29,0.67 0.6,1.24 0.02,1.17 -0.79,1.3 -0.02,0.67 0.71,1.22 -0.32,1.64 0.51,0.15 -0.45,1.92 0.7,1.91 -0.45,0.9 0.38,0.17 0.52,1.12 0.54,0.13 -0.05,0.54 2.14,-0.27 1.08,0.21 0.44,0.83 0,0 0.17,1.4 1.13,2.95 1.18,1.14 -0.75,0.74 -0.5,0.06 0.25,0.75 -0.56,0.46 0.2,2.34 -0.13,2.29 -0.29,0.32 0.33,0.36 -0.66,0.45 1.45,0.6 -1.93,1.7 -0.9,1.48 0.74,2.31 -0.14,0.57 2.53,2.32 0.63,2.01 0.04,1.28 -1.08,0.64 -2.95,0.41 0.03,0.5 -2.03,0.43 0.05,0.4 -2.89,0.78 0.77,1.8 -2.27,0.69 -1.92,0.1 -4.28,1.85 -0.73,0.63 0.29,1.06 0.38,-0.14 0.06,0.76 0.6,0.64 0.23,0.96 0.4,0.44 0.92,-0.11 0.2,1.62 0.92,0.33 -0.97,0.76 1.05,0.97 0.55,0.98 -0.14,0.82 0.35,1 0.39,0.61 0.39,-0.03 0.55,0.62 -0.01,0.9 0.58,-0.14 0.35,0.3 -0.15,0.64 0.55,-0.12 0.07,1.04 1.38,1.21 -0.26,0.45 -1.58,-0.05 -0.73,0.5 0.07,0.36 0.33,0.23 0.43,-0.61 0.8,-0.06 1.23,0.18 0.04,0.5 0.78,-0.19 0.24,0.27 0.75,-0.09 -2.06,1.13 -0.12,0.29 0.39,0.55 -0.27,0.76 -1.12,-0.19 0.04,0.46 -0.89,0.18 0.01,0.81 -0.71,0.2 0.1,1.1 -0.76,0.13 -0.01,0.48 -1.12,0 -0.32,0.67 0.46,0.34 0.18,1.05 -0.58,0.41 0,0 -1.52,-1.55 -2.29,-0.83 -5.86,-1.01 -3.71,1.62 -2.61,0.78 -1.34,1.3 -0.45,0.81 -2.38,1.36 -2.38,-0.11 -5.31,1.16 -2.31,0.23 -1.2,-0.06 -1.44,-0.59 0,0 -0.69,-0.98 -1.41,-0.88 1.1,-6.53 0.41,0.23 2.5,-4.85 0.59,-0.03 0.27,-0.68 0.68,0.07 0.42,-1.36 0.35,-0.03 1.4,-6.2 -0.62,-0.44 0.42,-0.1 0.23,-0.8 -0.55,-0.25 -0.98,-1.13 0.35,-0.9 1.13,0.31 0.16,-0.64 -0.8,-0.36 0.58,-1.66 -0.37,-0.09 0.05,-0.72 -0.96,-0.37 -0.44,0.23 0.14,-1.04 -0.83,-0.33 0.85,-5.17 -0.16,-0.73 0.46,-1.39 0.62,-4.41 0.35,0.03 0.6,-1.91 -1.42,-0.27 0.96,-3.42 -0.67,0.03 0.06,-0.48 -0.42,-0.17 -0.29,-1.52 -1.64,0.31 -1.48,-1.89 -0.57,-0.3 -0.07,-0.4 -2.36,-0.51 -0.55,-0.53 -0.13,-1.76 -0.7,-0.44 -0.92,-1.95 -0.61,-0.14 -0.61,-1.34 -0.59,-0.43 -0.13,-0.62 -0.46,-0.4 -0.42,0.06 0.55,-1.32 -1.51,-0.98 -1.3,-0.22 -0.2,0.55 -2.34,-0.85 0,-0.78 0.84,-1.03 0.04,-0.54 -0.95,-0.18 -0.47,-0.44 -0.65,0.43 -0.42,0.76 -1.53,-1.27 0.08,-0.87 -1.7,-0.92 0.52,-1.14 -0.02,-0.9 -1.99,-0.91 1.76,-1.51 0.71,-0.99 -0.01,-0.83 -0.7,-0.4 1.23,-0.39 z" 
                fill="rgb(151, 144, 238)" 
                stroke="white" 
                stroke-width=".7px"
                title="Olt" 
                id="RO-OT" 
            />
        </svg>