<svg xmlns="http://www.w3.org/2000/svg" viewBox="124.88418000000007 14.29362 94.51999999999995 74.42999999999999" width="94.51999999999995" height="74.42999999999999">
            <path 
                d="m 188.48418,14.29362 0.8,0.22 0.78,1.97 3.51,0.48 0.49,-0.79 0.83,0.1 0.17,1.3 1.42,1.31 -0.43,0.28 -0.41,0.89 0.14,0.56 0.77,0.89 0.71,0.26 0.81,-0.15 0.66,0.75 0.65,-0.09 0.12,0.22 -0.35,0.21 -0.19,0.76 0.19,0.51 0.64,0.19 0.52,-0.21 0.46,0.53 1.08,0.54 0.14,0.55 0.65,-0.13 0.86,0.3 0.29,0.78 0.7,0.54 1.26,-0.15 0.19,0.61 0.65,0.18 0.26,0.52 1.96,0.23 0.81,0.55 0.4,-0.06 0,0 0.53,0.86 2.29,1.58 0.69,0.24 0.74,-0.33 0.72,1.45 0.4,0.25 0.02,1.07 0.64,1.31 0.33,0.25 1.14,0.03 0.78,0.66 0.7,2.02 0.4,0.44 -0.99,1.38 -0.43,0.03 -0.57,0.66 -0.39,-0.01 -0.1,-0.59 -0.73,0.21 -0.52,0.93 -0.8,0.58 -0.01,0.75 -0.73,0.97 -0.19,1.02 -1.42,0.31 -2.17,1.13 -0.54,0.54 -1.04,0.21 -1.02,1.42 -0.8,0.48 -0.55,-0.63 -0.72,-0.18 -0.89,0.25 -0.44,-0.65 -1.07,-0.08 -0.36,-0.5 -0.38,0.09 -0.31,-0.27 -1.87,0.47 -3.12,-1.26 -0.67,0.08 -0.59,-0.74 -0.79,0.38 -0.49,-0.07 -0.15,1.64 -1.02,1.96 -0.71,0.66 0.06,0.59 0.41,0.45 -0.01,1.49 0.35,0.13 1.1,-0.39 0.91,0.41 0.99,-0.52 0.24,0.93 0.64,0.49 1.36,0.46 0.89,-0.42 0.27,0.7 0.53,0.04 0.62,0.58 0,0.82 0.37,0.48 0.81,-0.56 0.64,0.67 -1.07,1.36 -1.04,0.09 -0.7,1.15 -0.66,0.03 -0.33,0.85 -0.53,0.29 -1.86,0.09 -0.85,3.26 0.45,0.91 -0.48,2.43 0.56,0.41 0.05,0.38 -0.03,0.5 -0.49,0.64 -1.32,0.28 -0.63,-0.22 -0.68,-0.28 -1.43,-1.75 -1.16,-0.01 -1.13,-0.61 -0.71,-0.56 -2.11,-3.46 -3.71,4.04 -0.61,0.3 -1.49,2.37 -0.71,4.37 0.22,1.85 -0.8,0.32 -1.09,-0.32 -0.27,0.16 -0.1,-0.43 -0.96,1.04 -1.52,-0.7 -0.48,0.21 -0.01,0.53 0.59,0.94 -0.67,0.83 0.25,2.24 3.26,1.34 0.56,-0.43 1,-0.16 0.54,-0.61 1.78,-0.52 1.24,0.88 0.11,0.79 0,0 0.68,0.71 0.22,0.9 -0.13,0.93 -1.07,0.64 -0.07,1.03 -1.2,0.92 0.01,0.42 -0.58,0.09 -0.63,1.07 -2.77,-0.9 -0.48,0.59 -0.54,-0.44 -0.57,0.15 -0.78,0.82 -1.31,-0.71 -1.29,-2.12 0.01,-0.44 -1.39,-0.05 0.56,-1.93 -1.13,-0.12 -0.67,0.53 -0.21,-0.36 -2.94,-1.42 -1.15,0.54 -1.01,1.67 -0.32,-0.79 -0.96,-0.52 -1.34,0.68 -3.98,0.19 -0.61,0.57 -0.65,1.33 -0.84,0.7 -2.26,0.28 -0.35,1.44 -1.08,1.21 -0.24,-0.25 -0.79,0.09 0,0 -0.66,0.05 -1.72,-2.41 -0.6,-2.28 -0.69,-0.47 -1.27,0.22 -0.3,-0.58 -0.4,-0.02 0,-0.86 -0.28,-0.08 0.15,-0.81 -2.24,-1.11 -0.56,-0.08 -1.17,0.78 -0.83,0.04 -0.79,0.7 -0.95,-0.96 -0.54,0.01 -0.09,-0.36 -0.8,0.49 -0.54,-0.19 -0.48,0.21 -0.26,-0.26 -1.05,0.37 -0.19,-1.1 -0.39,0.06 -0.42,-1.54 -0.17,-2.15 -0.37,-0.31 0.93,-0.77 -1.51,-1.12 -2.36,-0.68 -0.16,-0.88 0.57,-0.4 -0.4,-1.84 -0.72,-0.25 -1.49,0.2 0.46,-1.17 -0.32,-0.59 0.17,-0.57 -0.74,0.02 -0.6,-0.46 0.1,-0.7 -0.62,-0.01 -0.49,-2.07 -1.86,-0.62 -0.59,-0.55 0,0 1.03,-4.35 0.43,0.1 0.73,-0.76 0.11,-2.12 0.31,-0.64 0.55,-0.4 1.11,-0.05 0.32,-0.35 0.06,-1.89 0.33,-1.15 1.36,0.1 2.02,-1.3 0.04,-2.3 1.05,0.39 1.43,1.3 2.01,0.4 1.5,-0.08 0.16,0.38 1.16,0.1 -0.25,-0.9 1.45,-5.1 1.19,-0.16 0.98,-0.51 3.58,2.7 0.79,0.98 3.93,0.04 0.38,-0.53 0.8,0.08 0.59,-0.35 1.07,-0.03 0.81,-0.62 0.89,-0.07 1.29,-2.62 -0.07,-0.37 0.64,-0.54 0.19,-1 0.91,-0.31 1.51,0.39 1.69,-0.79 0.18,-0.94 -0.42,-1.01 -0.66,-0.4 0.32,-1.21 -0.54,-0.65 -0.07,-0.57 0.56,-0.19 1.7,0.32 2.2,-1.64 1.16,-0.04 1.08,-1.28 0.83,-1.65 0.62,-0.54 0.2,-0.64 0.75,-0.16 -0.04,-0.32 0.85,-0.44 1.76,-0.04 0.89,-0.59 -0.53,-0.62 -0.13,-2.4 -0.88,-0.2 -0.32,-0.6 0.56,-1.21 0.86,0.16 1.27,0.91 0.08,-0.48 0.62,0.13 0.29,0.63 0.28,-0.18 0.48,0.31 0.2,-0.12 0.43,0.73 0.71,0.11 0.4,0.57 0.39,-0.17 0.77,-1.18 0.79,0.28 1.62,-0.45 1.39,-0.02 0.38,-0.94 -0.51,-0.03 0.04,-0.35 1.12,-1.55 -0.61,-0.72 0.82,-1.05 -0.4,-1.22 1.17,-1.1 -0.02,-0.4 -0.57,-0.53 1.08,-0.82 0.54,0.08 0.59,-0.77 0.11,-0.87 0.92,-0.22 z" 
                fill="rgb(151, 144, 238)" 
                stroke="white" 
                stroke-width=".7px"
                title="Satu Mare" 
                id="RO-SM" 
            />
        </svg>