<svg xmlns="http://www.w3.org/2000/svg" viewBox="215.67418 189.09362 87.90000000000012 76.42000000000013" width="87.90000000000012" height="76.42000000000013">
            <path 
                d="m 258.81418,192.79362 0.14,-0.56 0.77,-0.49 2.3,-0.08 0.84,0.38 2.3,-0.16 0.54,0.51 1.15,0.38 0.68,-0.71 2.32,-1.1 0.96,0.44 1.26,-0.26 1.77,0.27 0.78,0.72 -0.1,0.61 0.75,-0.88 1.75,0.2 0.06,-0.81 1.52,0.32 0.23,-0.55 1.6,0.65 0.61,0.62 1.66,-0.41 0.05,-0.62 0.56,-0.19 -0.01,-0.56 0.61,-0.91 1.72,-0.51 0.19,0.2 -0.22,0.58 0.06,1.72 0.51,0.7 -0.82,1.13 0.35,0.8 0.38,0.08 -0.21,0.58 0.72,0.27 -0.2,0.85 0.28,1.34 -0.56,2.31 0.36,1.6 -0.41,1.32 0.21,0.98 -0.38,0.65 0.18,0.67 -0.2,0.99 0.24,0.55 0.51,0.26 0.1,0.57 0.91,0.68 1.04,0.25 0.9,-1 1.15,-0.14 0.35,0.49 0.95,-0.19 0.66,-0.64 -0.08,-0.74 1.07,0.28 0.74,0.56 0.91,-0.19 1.33,-0.99 1.72,-0.43 1.37,0.05 0.8,0.48 0.07,1.08 1.05,1 1.71,0.23 0,0 -0.11,0.61 0.31,0.57 -0.84,0.36 -0.68,0.72 -0.99,0.21 -1.07,0.73 -0.1,0.45 0.26,0.34 -1.14,0.61 -0.62,1.82 -0.71,-0.04 -1.29,0.47 0.16,0.54 -0.55,0.77 0.64,0.6 -0.1,0.63 -2.96,0.59 -1.31,-0.19 0,1.31 -1.04,1.24 0.01,1.28 -2.3,-1.12 -1.18,0.59 -0.11,0.75 0.28,0.43 0,0.83 0.58,0.7 0.32,1.27 1.49,1.39 1.89,1.25 0.35,0.56 -0.26,0.32 0.2,0.83 -0.23,0.93 -2.85,-0.2 -2.45,0.62 -1.92,1.25 -1.84,1.71 0.03,1.11 0.49,0.79 0.22,1.77 2.34,4.79 -0.03,1.77 0.53,1.34 -0.28,1.67 0.32,0.87 -0.56,1.43 -0.04,1.24 0.52,0.66 0.13,1.08 0,0 -1.01,0.65 -2.1,-0.59 -1.52,0.13 -0.9,0.61 -0.56,-0.05 -0.51,0.69 -1.36,0.7 -0.82,-0.63 -1.72,0.56 -1.4,-0.46 -1.02,1.04 0,0 -1.19,-0.61 -0.66,0 -0.87,-0.76 -0.92,0.76 -1.17,-0.27 -2.17,0.13 -2.07,-0.33 -1.21,0.45 -1.55,1.18 -1.21,-0.32 -1.78,2.65 -1.82,0.04 -1.78,1.71 -5.56,0.13 -0.37,0.8 -1.82,0.41 -1.9,-1.05 -1.11,-0.15 -1.12,-0.9 -1.28,0.38 -0.82,-0.58 -1.38,0.29 -2.85,-0.29 -0.71,0.42 -1.27,0.06 -1.26,0.51 -0.82,-0.91 -0.49,-0.16 -2.52,0.6 -1.11,-0.28 -0.64,0.35 -0.68,1.2 -1.03,0.27 -0.99,0.82 -2.46,0.34 -1.07,1.82 -1.54,1.34 -0.85,0.44 -1.42,0.1 -0.01,-0.63 0,0 1.34,-0.15 0.44,-0.39 -0.53,-2.61 0.13,-1.8 -0.96,-2.58 -1.65,-1.48 0.34,-0.37 0.34,-1.75 1.21,-0.43 0.59,-0.83 -0.15,-0.8 -0.73,-0.39 0.05,-0.93 0.52,-0.29 0.14,-1 -1.28,-1.87 -2.44,-1.43 -0.17,-2.6 0.74,-1.28 -0.05,-0.83 1.26,-0.77 0.76,0.05 0.57,-0.31 0.94,-1.87 1.37,-0.43 -0.37,-0.22 -0.03,-0.62 -0.66,-0.1 -0.32,-0.69 -0.75,-0.14 -0.7,-0.56 0.78,-1.72 0.85,-0.82 0.9,-0.02 0.53,-0.69 1.41,-0.55 1.88,0.39 0.59,-1.39 -0.28,-0.89 0.46,-1.72 -0.09,-0.83 0.66,-1.1 -0.17,-0.39 -1.02,-0.58 0.73,-1.44 -0.61,-0.55 2.53,-0.25 1.12,-0.77 0.6,0.17 0.48,-0.21 0.63,0.35 1.39,-2.33 1.88,-1.12 -0.49,-1.81 0.67,-0.72 -0.46,-0.77 0.52,-0.44 -0.7,-0.2 -0.61,-0.66 1.58,-2.17 0.57,-0.01 0.58,-0.8 1.03,0.4 0.5,-0.45 1.93,0.31 1.18,-0.25 -0.04,0.73 0.87,0.41 0.94,1.14 -0.03,0.43 0.78,1.33 0.26,-0.64 -0.2,-0.81 2.59,-1.57 -0.53,-0.53 0.5,-0.52 -0.42,-0.85 0.77,-1.43 0.99,-0.92 -0.38,-0.88 1.16,-1.08 0.86,-0.24 0.19,-1.09 1.49,-1.87 0.74,-0.36 1.54,0.19 2.71,-1.63 1.27,-0.38 0.22,-0.87 -0.53,-0.76 -0.92,-0.27 -0.31,-0.39 0.38,-1.77 0.7,-0.86 -0.56,-0.84 3.32,-1.69 z" 
                fill="rgb(151, 144, 238)" 
                stroke="white" 
                stroke-width=".7px"
                title="Sibiu" 
                id="RO-SB" 
            />
        </svg>