<svg xmlns="http://www.w3.org/2000/svg" viewBox="303.46418000000017 27.033619999999907 112.42999999999978 87.49000000000007" width="112.42999999999978" height="87.49000000000007">
            <path 
                d="m 377.22418,27.45362 2.45,3.78 0.31,1.29 0.95,0.43 0.36,-0.33 0.1,0.7 1,-0.44 0.21,0.9 1.11,-0.01 0.02,0.88 0.54,0.18 -0.61,0.91 0.15,0.71 0.65,0.09 0.24,0.76 1.02,-0.43 0.15,-0.66 0.48,0.03 0.28,-0.54 0.83,0.93 0.45,0.01 0.13,0.55 0.58,-0.06 0.74,0.82 0.04,0.67 0.67,1.35 0.5,-0.67 0.28,0.01 0.14,0.73 0.53,0.14 0.37,0.55 -0.51,0.28 0.28,0.48 -0.4,0.12 0.1,0.43 0.32,0.14 0.17,-0.36 0.26,0.22 -0.07,0.59 0.82,-0.18 -0.03,0.34 -0.33,0 -0.02,1.26 3.05,3.41 0.49,0.89 0.47,-0.31 -0.07,0.53 0.31,-0.28 0.16,0.56 0.41,-0.28 0.79,0.73 -0.02,0.23 -0.39,0 0.31,0.39 -0.92,0.84 0.37,1.08 0.5,0.16 0.2,0.7 0.81,-0.18 -0.13,0.4 0.27,0.06 -0.31,0.13 0.08,0.19 0.38,-0.04 0.04,-0.43 0.75,0.16 0.09,0.54 0.67,-0.27 -0.01,0.56 0.58,0.36 -0.25,0.59 0.42,0.28 -0.07,0.66 0.67,-0.48 0.29,0.55 -0.45,0.27 1.35,0.58 -0.36,0.39 -0.08,0.62 0.56,0.5 -0.3,0.3 0.8,0.19 0.14,0.42 0.55,-0.12 -0.13,0.45 0.46,0.38 0.52,-0.03 -0.08,0.37 1.16,-0.06 0.67,0.51 -0.11,0.27 -0.64,0.14 0.56,0.65 -0.37,0.33 -0.11,0.8 0.74,0.23 0.29,0.81 -0.41,0.35 0.19,0.6 -0.72,0.07 0.48,1.03 -0.22,0.46 1.14,0.38 -0.15,0.39 0.5,0.77 0.03,1.02 0.74,1.34 0.05,0.62 1.71,0.3 -0.05,1.1 -2.06,0.46 -0.92,0.37 -0.32,0.42 0.68,1.09 0.78,-0.42 0.46,0.38 0.08,0.5 0.52,0.08 -0.12,1.26 0.27,0.52 -0.29,0.52 0.33,0.34 -0.09,0.42 0.38,0.11 0.5,-0.46 1.12,-0.13 1.38,-0.71 1.01,0.62 0.73,0.02 0.54,-0.67 0,0 0,2.84 -0.6,0.39 -0.12,0.75 0.25,0.78 0.5,0.03 -0.09,0.51 -0.57,0.76 -1.73,0.55 0.42,0.35 -0.1,0.5 0.64,-0.15 0.64,0.61 0.12,0.48 0.48,0.25 0.17,0.61 -0.89,0.44 0.72,0.48 -0.08,0.46 -1.58,-0.16 -0.87,0.07 -0.33,0.37 -1.41,-0.03 -1.14,-1.29 -1.58,-0.92 -0.38,0.34 -1.61,-0.25 -0.62,-1.81 -0.39,-0.31 -2,0.88 -0.07,0.39 0.43,0.47 0.38,1.37 -0.22,1.37 0.53,1.51 0.29,-0.08 -0.09,0.6 0.8,-0.33 0.37,0.78 0.73,0.02 0.85,1.27 0.73,0 0.45,0.49 -0.13,1.22 0.41,0.07 -0.13,0.48 -0.99,0.03 -0.56,0.73 -0.36,1.18 -0.94,0.5 -0.15,0.77 0,0 -0.8,-0.36 -0.21,-0.69 -3.03,-3.15 -0.93,-0.3 -0.81,-2.49 -1.55,-0.28 -0.72,-0.74 -4.79,2.62 -0.67,0.99 -1.23,0.6 -1.49,-0.04 -0.58,-0.28 -1.17,1.84 -1.45,-0.98 -2.44,-1.1 -0.64,1.03 -1.54,-0.6 -1.38,0.78 -0.59,-0.78 -0.75,0.14 -1.01,0.85 -1.99,0.89 -1.71,-0.22 -0.69,-0.75 -0.59,-0.16 -1.12,0.72 -1.76,-0.68 -0.82,0.65 -0.96,-0.03 -1.14,0.44 -0.38,1.11 -0.95,0.45 -1.07,-0.18 -1.67,-2.63 -1.04,-0.7 -1.17,-1.45 -1.12,0.16 -0.66,-0.47 -2.25,-0.57 -0.56,0.29 -0.06,0.32 1.07,1.03 0.62,2.03 0.78,0.56 0.36,1.24 1.37,0.97 0,0.47 -1.68,2.96 -0.52,-0.22 -2.22,0.18 -1.62,0.41 -1.42,1.69 0.36,0.48 0.12,1.7 -0.54,0.42 -0.75,-0.04 -0.22,0.35 -0.21,2.47 -1.16,1.08 -0.2,0.71 -0.48,0.42 0.01,1.43 -0.49,1.44 0,0 -2.31,-0.6 -0.98,1.53 -0.42,0.26 -2.14,-0.74 -0.79,0.23 -1.42,-0.25 -0.35,-2.64 -0.79,-0.6 -0.84,-0.03 -1.26,-1.39 -1.22,-0.19 -3.17,0.9 -0.45,1.38 -0.49,0.25 0.06,1.11 -0.46,0.45 -1.52,-0.87 -1.55,-0.23 -2.5,-1.67 -0.64,0.13 -0.39,0.84 -0.79,0.81 -1.31,-0.04 -0.75,0.98 -0.77,0.23 0,0 0.06,-0.38 -0.38,-0.53 -3.85,-3.02 -0.7,0.11 -0.35,0.49 -0.71,0.13 -0.3,0.43 -1.12,-0.48 -1.84,0.25 -1.8,-1.62 0,0 0.08,-0.43 -0.77,-0.74 0.39,-0.75 -0.11,-0.58 0.36,-0.35 -0.66,-2.32 0.11,-0.7 -0.87,-0.15 -0.39,-0.69 0.35,-1.37 0.7,-0.47 0.24,-3.36 -1.16,-1.59 -0.38,-1.1 1.75,-1.76 0.94,-0.5 -0.46,-1.56 0.17,-0.64 -0.72,-1.65 0.42,-1.56 -0.51,-0.83 -0.65,0.23 -0.67,-0.16 -0.27,-0.88 -1.85,-1.98 0.03,-1.34 0.73,-1.23 0.55,0.09 0.54,0.82 0.55,-0.01 1.05,-0.57 -0.04,-1.18 0.38,-0.25 0.15,-0.74 -1.34,-1.24 1.64,-0.82 1.23,-1.37 -0.02,-0.29 -0.55,-0.76 -1.62,-0.09 -0.94,-1.2 -0.95,-2.54 -0.83,-0.33 0.61,-0.93 0.04,-0.59 -1.31,-0.55 -1.03,-1.15 -0.07,-0.4 -1.33,-0.97 -1.28,-0.11 0,0 0.93,-1.3 2.96,-2.26 2.83,-0.61 0.42,-0.82 -0.32,-0.9 -2.85,-1.59 -1.85,-2.17 -0.78,-0.48 -1.15,-0.17 -0.08,-0.89 -0.37,-0.52 0.05,-1.26 0,0 2.78,-0.07 0.7,0.41 0.68,-0.86 2.05,0.86 0.98,-2.08 0.86,0.5 3.15,-1.25 0.43,-1.44 0.62,-0.95 0.95,-0.99 0.86,0.1 0.35,-0.27 0.26,-0.74 -0.17,-0.96 0.81,-0.72 0.17,-0.97 0.78,-0.68 0.87,-1.93 0.85,-0.48 0.1,-2.21 0.56,-0.96 0.48,-0.28 2.02,0.19 2.8,-2.06 1.49,0.04 12.95,-2.17 3.38,-0.12 2.21,-1 1.59,-0.14 2.34,0.74 1.48,-0.17 0.59,0.24 0.99,-0.32 0.53,0.32 2.32,0.22 2.3,-1.08 0.99,-1.24 2.25,-0.62 1.95,0.89 0.98,-0.31 0.65,-1.29 1.39,0.15 0.99,0.47 7.22,-1.69 z" 
                fill="rgb(151, 144, 238)" 
                stroke="white" 
                stroke-width=".7px"
                title="Suceava" 
                id="RO-SV" 
            />
        </svg>