<svg xmlns="http://www.w3.org/2000/svg" viewBox="144.72418000000005 78.22362 87.45999999999998 57.37000000000002" width="87.45999999999998" height="57.37000000000002">
            <path 
                d="m 183.98418,81.11362 1.08,-1.11 1.64,-0.75 1.17,0.34 1.44,-1.37 0.2,0.28 0.78,-0.03 0.93,0.49 0.03,0.54 0.26,-0.4 0.41,0.06 0.22,0.43 -0.14,0.53 1.43,0.06 0.92,0.53 1.63,-0.14 1.16,0.84 0.84,-0.29 0.77,1.43 0.51,0.17 0.68,-0.4 0.25,0.13 0.15,1.28 0.59,-0.13 2.64,0.46 0.35,0.36 0.76,0.09 1.17,0.96 3.73,0.16 0.07,0.65 0.71,0.36 2.18,-0.51 1.27,0.29 0.23,0.45 1.61,-0.74 0.9,0.3 1.92,-1.18 0.56,0.06 0.55,-0.32 1.61,0.89 0.86,2.15 0.82,-0.12 0.93,0.26 0.51,0.85 -0.48,0.35 -0.19,0.59 1.1,0.22 0.77,-0.37 1.29,0.22 0.36,-0.48 1.82,-0.08 0.8,-0.68 1.38,0.77 1.02,0.18 0,0 -0.23,0.87 -0.83,0.59 0.02,0.82 -0.9,0.51 -0.5,1.03 0.23,0.35 -0.71,1.03 1.05,1.47 0.37,2.19 -0.44,0.05 -1.49,-1.82 -2.26,-1.11 -0.72,2.03 -1.13,0.55 -0.48,-0.85 -0.76,0.49 -0.12,0.45 -0.81,0.27 -1.61,1.53 -0.95,0.48 -0.24,0.75 -0.81,0.5 -0.6,1.28 0.37,1.29 -0.92,0.76 -0.43,0.01 -0.59,0.75 -1.41,-1.21 -1.3,-0.35 -1.23,1.57 0.31,0.8 -0.68,-0.3 -0.92,0.5 -1.28,-0.13 -0.91,0.29 0.15,2.1 0.68,0.35 0.18,0.5 -0.11,0.97 -1.49,0.25 -0.22,0.67 0.67,0.37 -0.15,0.73 -1.23,0.01 -0.87,-0.44 -0.13,0.47 -1.31,0.05 1.83,2.09 0.03,0.82 0.91,0.28 0.25,1 -0.31,0.26 0.9,0.69 -0.06,0.91 -1.03,0.29 0.28,0.91 -0.84,0.62 0.12,0.44 -0.62,0.26 -0.57,0.91 -0.72,-0.2 -0.05,0.36 -0.3,0.03 -1.49,-0.33 -0.4,0.74 0.82,0.16 -0.9,0.59 -1,0.14 0.13,0.9 -0.77,-0.07 -0.11,0.28 0.64,0.52 0.13,1.06 -0.63,0.31 -0.56,0.92 -0.49,0.22 0.07,0.62 -0.48,0.78 -0.92,0.63 -0.8,-0.36 -1.43,1.03 -0.86,-0.27 -0.26,-0.77 -1.31,0.23 -0.51,-0.67 0.15,-1.49 -0.56,-0.93 -0.92,-0.25 0.08,-1.11 -0.31,-0.25 -0.15,0.4 -1.19,0.43 0.6,1.1 -0.33,0.9 -0.48,0.46 0.19,2.19 0.51,0.98 -0.46,0.04 -0.27,0.81 -0.54,0.44 -0.09,0.83 -1.05,-0.55 -1.62,0.27 -0.95,1.11 -1.04,0.09 -1.51,0.58 -0.5,-0.42 -1.27,-0.28 0.52,-1.98 0.53,-0.83 -0.75,-0.44 -0.09,-0.36 -0.8,-0.12 -0.07,-0.43 -1.61,2.2 -0.34,-0.15 0.1,-1.15 -0.3,-0.7 -1.2,1.2 -0.16,-0.66 0.31,-0.43 -0.51,-0.01 -0.33,-0.49 -1.15,0.38 -0.57,-0.23 -0.64,0.36 -0.79,-0.56 0,-0.44 -1.01,-0.14 -0.27,-1.34 -0.7,-0.81 -1.05,-0.09 -0.5,-0.6 -0.1,-2.9 0.66,-0.25 0.14,-0.83 -0.43,-0.32 -1.62,-0.21 -0.24,-1.12 -0.76,0.34 -0.31,-1.08 -1.22,0.46 -1.04,-0.4 -2.41,0.86 -1.2,-0.11 -1.29,-0.53 -1.59,0.08 0,0 -0.23,-3.42 -0.48,-0.07 -1.09,0.51 -0.2,-0.77 -0.49,-0.4 -3.38,-0.44 -1.17,-1.18 -0.49,-1.56 -2.1,0.5 -0.79,-0.94 0.06,-0.81 -0.82,-1.53 0.8,-0.71 -0.04,-0.4 -1.69,-1.68 0,-1.42 -0.45,-1.32 -1.62,-0.06 -0.73,-0.97 1.2,-1.09 -0.13,-2.05 0.69,-1.29 1.36,-0.6 0.24,-0.39 0.31,-1.96 -0.31,-3.38 0.46,-1.82 1.98,-0.4 1.59,-1.09 0.27,-0.44 -0.26,-1.32 0,0 0.79,-0.09 0.24,0.25 1.08,-1.21 0.35,-1.44 2.26,-0.28 0.84,-0.7 0.65,-1.33 0.61,-0.57 3.98,-0.19 1.34,-0.68 0.96,0.52 0.32,0.79 1.01,-1.67 1.15,-0.54 2.94,1.42 0.21,0.36 0.67,-0.53 1.13,0.12 -0.56,1.93 1.39,0.05 -0.01,0.44 1.29,2.12 1.31,0.71 0.78,-0.82 0.57,-0.15 0.54,0.44 0.48,-0.59 2.77,0.9 0.63,-1.07 0.58,-0.09 -0.01,-0.42 1.2,-0.92 0.07,-1.03 1.07,-0.64 0.13,-0.93 -0.22,-0.9 z" 
                fill="rgb(151, 144, 238)" 
                stroke="white" 
                stroke-width=".7px"
                title="Sălaj" 
                id="RO-SJ" 
            />
        </svg>