<svg xmlns="http://www.w3.org/2000/svg" viewBox="0.28417827999988665 197.44362 147.9000017200001 92.65000000000003" width="147.9000017200001" height="92.65000000000003">
            <path 
                d="m 21.984178,201.48362 1.97,1.82 0.74,0.27 0.42,-0.35 0.66,-1.92 1.36,0.68 0.51,-0.19 0.74,-1.2 0,0 1.18,0.13 0.16,0.99 0.6,0.42 1.59,-0.22 1.28,0.24 0.52,1.72 1.19,0.57 0.47,1.34 1.79,1.37 1.68,0.05 0.58,0.64 1.2,-0.2 1.5,1.06 0.5,-0.15 0.11,1.19 1.54,2.12 2.3,0 0.32,-0.55 2.02,1.12 0.17,-0.51 0.58,0.7 1.43,-0.98 1.36,0.08 0.43,2.27 0.49,0.19 0.08,1.3 1.64,1.89 1.63,-1.5 0.42,0.02 0.38,-1.71 1.01,-0.07 0.04,0.88 1.75,1.67 3.67,1.54 0.65,-1.02 0.44,-1.82 0.69,-0.13 0.39,-0.41 1.05,-0.01 -0.43,-1.21 2.73,1.57 0.9,2.32 0.88,-0.05 0.22,-1.46 0.7,-0.87 0.58,-0.33 0.67,0.19 2.68,-1.7 1.2,-1.84 1.94,-1.53 0.23,-0.54 1,-0.29 0.76,0.19 0.88,2.16 -0.26,2.94 1.57,0.35 0.38,0.82 0.74,-0.23 1.58,0.62 0.13,0.44 1.61,0.67 0.11,0.52 0.48,0.39 0.62,-0.05 0.15,0.34 -0.4,0.46 0.34,0.68 -0.16,0.98 1.01,0.11 0.78,0.87 0.4,0.97 -0.24,1.14 0.37,0.68 1.43,-0.78 0.11,-1.99 1.4,-1.74 -0.02,-0.65 0.69,-0.56 0.75,1.85 1.07,-0.13 1.32,0.39 -0.21,0.75 0.2,0.35 1.44,0.2 0.720002,-0.34 0.15,-1.47 1.2,-0.88 0.57,0.28 0.6,0.82 0.45,-0.15 1.09,-1.22 0.86,0.98 0.59,0.06 1.66,-1.23 0.34,-1.45 0.45,-0.6 1.6,0 0.82,-0.76 1.38,0.36 0.73,-0.65 0.23,0.01 0.27,0.92 -0.38,0.75 0.2,0.67 4.13,1.34 1.59,1.21 2.25,0.81 -0.09,0.98 0.33,0.8 0.63,-0.75 0.73,0.41 0.82,-0.61 0.48,-0.03 0.57,0.49 1.52,0.06 0.71,0.61 1.39,-2.03 -0.33,-0.79 0.54,-0.46 0.65,0.56 1.09,0.07 0.4,0.46 1.82,0.56 0.85,-2.05 0.29,-1.57 1.22,-0.07 0.42,0.09 0.24,2.53 0.66,0.14 0.49,0.61 2.78,1.65 0,0 0.22,0.49 -0.37,0.87 -1.29,0.77 -0.66,0.87 0.84,0.64 0.74,1.41 0.72,0.67 0.13,0.65 1.42,-0.44 0.71,0.73 1.02,0 0.44,1.28 0.44,-0.2 -0.18,0.86 0.48,3.59 1.23,0.37 1.57,-1.09 1.47,1.62 -1.87,3.61 -1.35,-0.03 -0.58,0.58 -1.12,0.26 -0.37,0.83 0.06,1.58 -1.48,2.44 -0.67,0.36 -0.41,0.61 0,0 -1.52,1.53 -0.81,-1.06 -0.86,0.76 -2.21,0.36 -1.55,-1.09 -1.06,1.54 -1.71,5.02 -0.55,0.75 -0.74,-0.12 -1.22,-1.69 -1.34,0.03 -1.72,-0.94 -0.75,-1.22 -1.11,-0.33 -1.37,2.14 -0.29,0.92 -1.07,0.03 -0.56,0.56 -0.41,-0.17 -2.03,1.87 -0.67,-0.8 -1.15,0.74 0.24,0.7 -0.35,0.33 0.35,1.55 -0.18,0.16 0.55,1.03 0.03,1.65 -1.08,0.52 -0.69,1.82 -2.71,-0.29 -0.76,0.38 -0.49,-0.53 -0.48,0.33 -1.23,-0.75 0.93,-2.14 -0.85,-1.34 -1.12,0.38 -1.08,-0.01 -0.35,0.33 -0.65,-0.77 0.02,-1.27 0.56,-0.36 0.48,-0.93 -2.38,0.45 0.25,1.52 -0.36,0.71 -1.82,-0.13 -0.71,-0.31 -1.900002,0.69 -2.61,0.19 -0.43,-0.29 -0.8,-1.89 -0.99,-0.59 -1.53,-0.14 -0.05,-0.85 -0.8,-0.87 -1.91,-0.12 -0.82,0.31 -0.94,0.88 -2.47,0.09 -0.84,1.4 0.03,0.56 -0.68,1.24 0.02,0.42 -0.46,0.44 0.56,0.95 -0.61,0.73 -0.73,-0.24 -1,1.48 -0.77,-0.15 -1.01,0.55 -1.56,0.14 -1.73,0.94 0.38,3.19 0.34,0.8 0.55,0.05 0.75,-0.39 0.09,0.5 0.56,0.15 0.45,0.64 -0.77,0.25 -0.29,-0.46 -0.79,0.11 -2.37,0.99 -0.1,0.79 0.71,1.52 -0.09,0.52 0.84,0.52 -0.33,0.52 1.28,1.5 2.1,1.03 0.65,1.07 -0.01,1.21 2.01,2.15 -0.4,0.69 0.33,1.35 -1.19,0.72 -0.11,1.3 -0.69,0.42 0.33,1.12 -1.05,1.39 0.38,1.46 -1.07,0.79 -0.58,-0.45 -0.57,0.65 0,0 -3.09,-1.29 -0.22,-0.61 -0.82,-0.54 -0.81,-1.1 -0.3,-0.02 -0.54,0.96 -1.61,-0.7 -0.64,0.3 -1.43,-0.97 0.01,-0.25 -0.82,-0.06 0.07,-0.29 -0.61,0.16 -1.58,-0.42 -1.09,1.16 -3.09,-2.07 -0.56,0.15 -0.99,-1.42 0.33,-0.9 -1.1,-1.1 -0.1,-1.03 -0.29,-0.8 -0.27,-0.07 0.19,-0.69 -0.21,-0.28 0.21,-0.18 -0.56,-0.35 -0.56,0.44 -0.33,-0.48 -0.77,0.83 0.32,0.33 -0.57,0.61 -1.21,0.13 -1.88,0.71 -1.02,-1.94 -0.67,0.28 -0.6,-0.2 0.09,-1.39 -2.92,0.67 -0.39,-1.56 -0.91,-0.16 -0.91,-1.24 -1.44,-0.87 -0.61,-0.71 -0.16,-1.02 -0.15,0.19 -0.96,-0.28 -0.08,-0.48 0.36,-0.05 -0.99,-2.21 -1.26,0.05 -2.41,-1.4 0.46,-0.02 0.35,-0.69 -0.08,-0.58 0.41,0.03 -0.15,-0.77 -0.27,-0.03 -0.47,-0.91 -2.22,-1.4 -4.04,-0.01 0,-0.72 0.42,-0.23 -0.56,-0.88 2.56,-1.49 1.58,-1.79 -0.85,-1.32 0.25,-0.13 -0.77,-1.3 0.14,-0.2 -1.21,-1.85 -1.47,0.49 -0.42,-2.74 0.9,-0.92 0.64,-2.15 1.01,-1.01 -0.32,-1.38 0.21,-0.89 -0.46,-0.46 0.42,-1.18 -0.25,-0.24 0.26,-3.26 0.34,-1.03 0.52,-0.06 0.47,-2.45 -2.57,-1.01 -0.6,2.94 -2.69,-0.12 -0.78,0.27 -0.17,0.35 -1.16,-0.15 -0.62,-1.42 0.25,-0.06 -0.67,-2.86 -1.35,0.31 -0.37,-1.25 -0.42,-0.36 0.62,-1.62 -3.16,-3.24 -0.83,0.22 -0.28,-0.93 -0.85,0.21 -0.79,-3.82 -1.49,0.39 0.22,0.56 -2.2,0.74 -0.91,-1.77 -1.19,-3.96 -2.33,-1.59 -2.6999997,0.47 -3.84,-3.22 0.39,-0.07 0.24,-0.59 -1.12,-2.94 0.22,-0.99 -2.15,-2.14 -0.51,-1.36 -1.83000002,-1.06 -0.52,-0.95 0.03,-0.25 1.11000002,-0.5 -1.06000002,0.01 -0.21,-0.5 1.66000002,-2.35 1.31,-0.98 0.26,0.65 2.7,-1.89 0.84,1.8 0.88,-0.85 0.86,0.77 0.38,-0.65 1.1599997,0.87 1.2,0.46 1.17,0.09 0.62,-0.24 2.01,-2.28 0.01,-1.6 0.28,-0.46 1.35,0.84 1.6,0.36 z" 
                fill="rgb(151, 144, 238)" 
                stroke="white" 
                stroke-width=".7px"
                title="Timiș" 
                id="RO-TM" 
            />
        </svg>