<svg xmlns="http://www.w3.org/2000/svg" viewBox="501.06417999999906 264.80361999999974 111.22000000000082 75.92000000000013" width="111.22000000000082" height="75.92000000000013">
            <path 
                d="m 601.97418,326.83362 -1.4,0.72 -0.5,-0.19 0.38,-0.46 1.15,-0.14 0.08,-0.26 0.75,-0.21 0.75,-0.74 -1.21,1.28 z m 1.56,-1.62 -0.14,-0.18 1.5,-1.84 0.68,-1.38 0.45,-1.79 -0.77,-1.5 0.41,-0.01 0.29,0.24 0.21,1.1 -0.38,1.9 -0.59,1.29 -1.66,2.17 z m -83.54,-56.91 -0.26,2.67 1.27,1.55 2.05,4.34 0.94,1.13 9.09,3.94 4.75,2.69 4.97,0.49 4.62,1.75 4.39,-1.15 0.85,-0.49 -0.05,-0.91 -1.79,-1.16 -0.77,-1.63 0.14,-0.4 0.6,-0.32 1.78,-0.09 0.78,-1 0.06,-0.91 -1.44,-0.88 0.28,-0.8 1.14,-0.5 1.08,0.04 1.3,1.46 0.9,0.34 1.27,-0.07 2.69,2.75 0.92,0.56 0.8,0.07 0.56,-0.39 0.22,-0.64 -0.28,-1.94 1.11,-1.74 1.47,-0.19 3.56,-2.47 1.08,-0.1 1.56,-1.15 1.47,-0.18 2.92,-1.19 1.75,-1.06 0.56,-1.23 2.11,-0.63 1.27,-1.2 1.27,-0.08 0.96,0.6 0.98,0.03 2.23,-1.95 0.61,0.02 1.24,1.02 1.9,-0.24 0.76,0.29 2.3,-0.61 0.91,0.92 2.27,0.93 4.57,1.26 3.21,2.2 3.74,4.74 0.8,2.37 0.56,3.41 -0.93,1.06 -0.17,1.42 0.72,2.22 0.69,0.9 -0.62,0.3 -0.56,-0.49 -2.2,-0.32 0.03,-0.79 -0.25,0.69 0.33,2.46 0.52,1.88 0.65,0.83 0.98,0.08 0.72,-0.25 -0.12,0.33 0.39,0.27 0.15,-0.38 0.51,-0.22 1.42,-0.17 -0.98,0.33 -1.11,1.43 -1.57,4.33 -2.34,19.49 -0.38,0.17 -0.79,-0.47 -0.19,0.27 0,0.67 0.52,0.13 0.13,0.31 -0.16,0.32 0.28,1.39 -0.23,0.88 -0.69,0.11 -0.3,0.67 -0.3,-0.18 -0.24,0.33 -0.97,-0.09 -0.49,0.81 -0.72,0.45 -1.24,-0.11 -12.01,1.54 -0.23,-0.11 0.6,-0.09 -0.32,-0.36 -0.43,0.17 -0.63,-0.2 0.93,-0.35 -0.65,0.07 -0.71,0.15 -0.25,0.46 -0.76,-0.05 0.1,0.25 1.44,0.18 -5.95,0.89 -6.22,1.91 -2.71,1.43 -1.49,1.13 -3.06,3.06 -1.57,2.01 -1.51,-1.79 -0.89,-3.29 0.36,0.39 0.83,0.01 2.19,-0.6 6.56,-3.34 0.76,-0.93 0.19,-1.25 0.53,-1.08 -0.86,-1.69 -2.64,-3.06 -0.56,1.23 0.95,1.52 0.01,0.44 -1.47,0.44 -0.49,0.77 -1.25,-2.29 -0.4,-0.25 0.02,-1.65 -0.58,-1.9 -0.05,-2.32 0.29,-1.29 0.43,-1.02 2.8,-0.7 0.69,-0.57 0.13,-1.98 -0.62,-0.87 -3.15,-1.1 -2.02,-0.02 -0.34,-1.57 -1.53,0 -1.48,0.36 0.37,1.9 -1.03,0.82 -1.18,0.06 0.6,-0.68 0.27,-1.27 -0.49,-0.19 -0.73,1.38 -0.32,-0.94 -0.1,0.91 0.28,0.55 -0.38,0.21 -0.88,-2.41 -0.84,-1.32 -0.13,0.26 0.64,1.62 -0.12,0.87 0.27,0.73 0.43,0.05 -0.01,0.26 -0.78,0.89 -0.46,0 -1.78,1.3 -0.6,4.27 0.63,0.76 -0.11,2.04 0.73,0.86 0.88,0.4 2.56,3.07 0.71,0.35 0.58,-0.05 0.47,0.46 -0.45,0.43 -0.03,0.5 -2.31,0.97 1.08,0.31 -0.63,0.52 -0.16,1.32 0.31,0.84 1.06,0.69 0.42,0.62 -0.62,0.65 -3.51,0.16 1.22,-0.59 0.06,-0.25 -0.39,-0.16 -1.08,0.43 0.05,0.65 -1.87,0.69 -1.2,0.95 -2.85,0.82 -0.19,-0.23 0.4,-0.44 1.13,-0.16 0.14,-0.26 -1.42,0.25 -0.43,0.42 -0.24,1.35 -1.09,-0.59 -0.83,0.24 -0.31,-0.15 -0.6,-0.57 -0.22,-0.93 -0.85,-0.16 -0.21,0.65 0.82,1.24 3.25,0.68 0.4,-0.15 -0.13,0.76 -0.61,0.31 0.88,0.49 1.6,0.09 -0.32,0.3 -0.64,-0.01 0.12,0.41 -1.11,0.47 0,0 -0.4,-0.28 -0.5,0.65 -0.57,-0.05 -0.44,-0.43 0.01,-0.83 -0.56,-0.57 -0.32,0.02 -0.81,0.47 -1.05,-0.02 0.13,1.91 -0.73,-0.23 -6.99,0.84 -2.75,-0.33 -0.23,1.82 -2.23,-0.01 -1.06,0.72 0.17,-0.62 -0.56,-0.17 0.11,-0.79 -0.8,-0.19 0.5,-0.76 -0.26,-0.1 -0.83,-0.11 -0.11,0.42 -0.4,-0.12 -0.19,0.93 -1.78,-0.3 -0.25,0.84 -1.92,-0.45 -0.45,-0.15 1.13,-1.85 -4.2,-0.54 -0.1,-0.94 -0.58,-0.22 0.03,-0.23 -1.08,-0.26 0.18,-0.36 -3.69,-1.7 0.61,-1.1 -0.82,-0.42 0.07,-1.23 0.31,-0.37 -0.06,-0.95 -2.53,-0.07 -0.36,0.24 -0.02,0.66 -0.87,0.16 -1.32,-0.87 0.05,-0.64 0.73,-0.92 -2.54,-1.76 -1.29,-0.23 -0.46,0.56 -0.76,0.3 -2.66,-0.81 0,0 0.45,-2.36 0.98,-1.59 0.3,-1.66 0.87,-0.95 1.19,-0.47 0.6,-1.01 -0.05,-0.28 -1.04,-0.67 -0.09,-1.11 0.58,-3.45 1.18,-2.02 -0.63,-0.58 -0.85,-3.19 0.43,-1.32 1.14,-0.62 -1.2,-4.07 0.12,-1.9 0.16,-0.22 1.73,0.38 0.7,-0.18 0.22,-0.5 -0.6,-1.49 1.79,-1.21 -0.27,-0.39 -1.42,-0.55 -1.77,-1.79 -3.34,-2.2 2.47,-4.06 -0.68,-0.75 -0.28,-1.45 -0.27,-0.12 -1.05,0.89 -2.42,-0.45 -2.33,-1.17 -1.66,-1.94 -0.01,-1.5 1.95,-5.01 0.12,-4.1 0,0 0.55,-0.96 1.58,-1.29 2.23,-1.11 1.48,0.02 1.22,0.35 2.55,1.95 0.8,0.17 0.33,-0.38 0.17,-2.98 0.55,-0.94 0.82,-0.57 0,0 1,0.07 2.67,1.16 0.6,0.86 0.31,1.41 z" 
                fill="rgb(151, 144, 238)" 
                stroke="white" 
                stroke-width=".7px"
                title="Tulcea" 
                id="RO-TL" 
            />
        </svg>