<svg xmlns="http://www.w3.org/2000/svg" viewBox="214.8041799999997 253.55362 61.17000000000024 99.91999999999999" width="61.17000000000024" height="99.91999999999999">
            <path 
                d="m 218.48418,264.88362 0.01,0.63 1.42,-0.1 0.85,-0.44 1.54,-1.34 1.07,-1.82 2.46,-0.34 0.99,-0.82 1.03,-0.27 0.68,-1.2 0.64,-0.35 1.11,0.28 2.52,-0.6 0.49,0.16 0.82,0.91 1.26,-0.51 1.27,-0.06 0.71,-0.42 2.85,0.29 1.38,-0.29 0.82,0.58 1.28,-0.38 1.12,0.9 1.11,0.15 1.9,1.05 1.82,-0.41 0.37,-0.8 5.56,-0.13 1.78,-1.71 1.82,-0.04 1.78,-2.65 1.21,0.32 1.55,-1.18 1.21,-0.45 2.07,0.33 2.17,-0.13 1.17,0.27 0.92,-0.76 0.87,0.76 0.66,0 1.19,0.61 0,0 0.54,2.24 -0.37,0.9 0.05,0.67 -0.36,0.66 -1.1,0.88 -1.05,3.46 -0.81,0.29 -0.31,0.47 0.8,1.35 0.2,0.88 -0.35,1.29 0.62,0.56 -0.29,1.31 0.76,0.87 0.29,1.96 1.65,0.93 0,0.35 -0.61,0.64 0.28,1.87 -1.02,0.83 1.17,0.22 -0.15,0.6 0.29,1.89 0.43,0.26 -0.7,0.53 0.49,0.8 -1.08,1.34 0.21,0.94 -0.44,0.25 0.18,0.56 -0.73,1.7 0.93,1.47 1.37,1.28 -0.23,0.67 0.59,0.6 0.48,0 0.27,0.46 -0.2,1.7 -0.79,0.22 -0.23,0.45 1.23,1.9 -0.56,2.29 -0.24,0.14 -0.73,-0.54 -0.54,0.31 -0.06,1.37 0.97,-0.03 0.44,1.09 -1.19,0.73 -0.41,0.75 0.32,0.56 1.51,1.21 -0.56,1.14 -0.04,1.24 -0.68,1.26 0.71,1.16 -1.29,1.73 -1.11,2.68 0.58,-0.37 0.72,0.24 -1.39,3.36 0.02,0.78 0.64,0.59 -3.01,4.38 0,0 -0.5,-0.74 0.36,-2.38 -0.2,-0.63 -1.13,-0.72 -0.95,1.2 -0.49,-0.28 -0.61,0.65 -0.68,0.06 -1.94,0.95 -0.09,0.5 0.63,1.22 -1.82,1.47 -0.17,0.91 0.17,1.23 -0.3,0.96 0.25,1.82 -1.43,0.18 0.21,0.42 -0.34,0.34 0.15,0.58 -0.76,0.82 0.07,0.99 -0.27,0.78 0.3,0.59 -0.44,1.05 -0.09,1.46 0.5,0.52 0.16,0.85 0.44,-0.17 0.5,1.37 0.84,0.36 -0.35,0.72 0.2,1.15 1.31,2.4 -0.44,0.49 0.45,3.49 -2.94,-2.05 0.21,1.85 -2.22,0.39 -0.72,-0.14 0.02,1.52 -0.34,0.35 -1.63,0.25 -0.61,-0.18 -0.28,0.23 -0.28,-0.5 -1.15,-0.73 -1.2,0.64 -0.34,-0.35 -0.37,0.27 -0.44,-0.07 0.2,0.47 -0.69,1.19 -1.02,0.35 0.06,1.34 -0.52,0.08 0.13,0.38 -0.63,0.31 0.23,1.1 -1.09,0.92 -2,-0.04 -0.55,-1.1 -0.68,-0.17 0.34,-0.45 -0.05,-1.03 -1.01,0.67 0.16,-1.06 -1.76,-0.63 -1.11,-0.11 -2.03,0.71 -1.08,-0.34 -0.54,0.37 0,0 -0.42,-2.99 -0.57,-1.42 -0.86,0.18 -0.43,-0.89 -0.03,-1.76 0.35,-0.32 0.11,-1.37 -4.12,-1.45 -1.37,0.05 -1,-1.04 -0.26,0.2 -0.16,1.27 -0.32,0.18 -0.52,-2.55 -0.32,-0.38 -0.4,0.11 -0.21,-0.21 0.1,-1.2 0.49,-0.91 -0.66,-0.93 -0.06,-0.91 0,0 0.39,0 0.82,-3.29 -0.8,-3.1 0.34,-2.88 0.35,-0.44 0.04,-0.93 0.54,-0.05 0.48,-0.42 -1.37,-3.31 -1.28,-0.14 0.46,-1.41 -0.15,-1.12 0.47,-0.72 0.11,-4.07 -0.03,-1.04 -0.35,-0.42 -0.57,-2.3 0.12,-1.08 1.74,-0.98 0.2,-0.97 1.1,-2.05 0.06,-1.64 0.77,-0.67 0.45,-2.89 -0.17,-1.6 -0.4,-0.53 0.67,-0.98 1.97,-0.79 -0.44,-2.84 -0.64,-1.33 -1.57,-1.95 -1.18,-4.15 0.17,-0.44 -0.18,-0.36 0.43,-0.25 0.92,-1.85 1.59,-1.85 0.22,-1.59 -0.17,-0.56 -0.96,-0.28 -0.85,-0.91 -1.52,-0.33 -1.17,0.27 -0.67,0.62 -1.67,0.67 -0.71,0.68 -0.62,-0.62 -2.08,0.21 -0.45,-0.27 -0.14,-0.65 -0.92,-0.25 -0.39,-0.61 -0.91,-0.09 0,0 -0.66,1.27 -0.54,0.27 0,0 -0.41,-0.53 -1.1,-0.45 -0.62,-0.75 0,0 -0.12,-0.98 0.89,-1.27 -0.01,-0.93 -0.7,-1.23 0.12,-1.87 -1.12,-0.42 0.61,-0.77 0.63,-1.56 0.11,-1.69 0,0 0.52,0.34 0.52,-0.23 z" 
                fill="rgb(151, 144, 238)" 
                stroke="white" 
                stroke-width=".7px"
                title="Vâlcea" 
                id="RO-VL" 
            />
        </svg>