<svg xmlns="http://www.w3.org/2000/svg" viewBox="596.7444399999996 599.7360600000002 54.500000000000455 64.36999999999978" width="54.500000000000455" height="64.36999999999978">
            <path 
                d="m 651.24444,599.76606 0,4.16 -0.01,4.13 0,4.11 0,4.09 0,4.08 0,4.06 0,4.04 0,4.02 0,4.01 0,3.99 0,3.97 0,3.96 0,3.94 0,3.93 0,3.91 0,3.9 -2.14,0 -3.33,0.01 -3.33,0.01 -3.32,0.01 -3.33,0 -3.33,0.01 -4.46,-1.62 -4.47,-1.63 -4.46,-1.63 -4.46,-1.63 -4.47,-1.64 -4.46,-1.64 -4.47,-1.64 -4.46,-1.64 0.45,-0.63 0.59,-1.67 0.04,-0.1 0,0 1.31,-0.12 0.62,-0.42 0.36,-0.77 0.08,-0.79 -0.2,-0.79 -0.57,-0.6 -0.91,-0.39 -0.53,-1.09 -0.14,-1.81 0.16,-0.98 0.48,-0.14 0.46,-0.44 0.43,-0.74 0.33,-0.81 0.21,-0.88 0.04,-1.11 -0.13,-1.35 0.85,-1.66 0.84,-1.03 1.56,-1.26 0.36,-0.38 0,-0.31 0,-0.03 -0.32,-0.44 -1.4,-0.88 -0.6,-0.63 -0.05,-0.58 -0.02,-0.01 -0.18,-0.56 -1.5,-2.34 -0.5,-1.28 0,-0.96 0,-0.08 0.18,-4.07 -0.54,-1.41 -0.13,-0.8 0.16,-0.98 -0.04,-0.62 -0.26,-0.53 -0.06,-0.97 -0.03,-1.2 -0.43,-0.77 -0.08,-0.34 0.24,-0.83 0.44,-0.43 0.72,-0.3 0.82,-0.1 0.93,0.09 0.71,0.38 0.47,0.65 0.46,0.33 0.46,0.01 0.6,-0.53 0.54,-1.15 0.18,-0.07 0.02,-5.02 0.01,-4.58 2.94,0 2.93,0 2.94,0 2.94,0.01 2.94,0 2.94,0 2.93,0 2.94,0.01 2.94,0 2.94,0 2.94,0 2.93,0 2.94,0.01 2.94,0 2.94,0 z" 
                fill="rgb(151, 144, 238)" 
                stroke="white" 
                stroke-width=".7px"
                title="Arizona" 
                id="US-AZ" 
            />
        </svg>