<svg xmlns="http://www.w3.org/2000/svg" viewBox="983.76444 538.2760599999996 18.139959999999974 13.330000000000382" width="18.139959999999974" height="13.330000000000382">
            <path 
                d="m 1001.8544,538.82606 0.01,0.68 0,0.95 0.01,0.69 0.01,0.94 0,1.08 0.01,0.99 0.01,0.86 -0.03,0.51 -0.05,0.78 -0.24,0.3 -0.12,0.72 -0.82,-0.07 -1.35996,0.18 -1.8,0.43 -1,-0.25 -1.02,0.45 -3.46,0.13 -0.73,-0.24 -0.93,0.85 -1.49,0.51 -3.78,1.91 -0.44,0.38 -0.49,-0.78 -0.38,-0.62 0.76,-0.49 0.58,-0.37 0.55,-0.34 0.36,-0.23 -0.29,-0.48 -0.28,-0.48 0.07,-1.19 0.08,-1.18 0.07,-1.19 0.08,-1.19 0.07,-1.2 0.08,-1.19 0.07,-1.2 0.08,-1.2 0.79,0.04 0.79,0.03 0.79,0.03 0.8,0.04 0.79,0.03 0.79,0.04 0.79,0.03 0.79,0.03 0.01,0.33 0.41,-0.04 0.05,-0.29 1.13,0.02 1.12,0.02 1.13,0.02 1.12,0.02 1.13,0.01 1.12,0.02 1.12996,0.02 1.12,0.02 z" 
                fill="rgb(151, 144, 238)" 
                stroke="white" 
                stroke-width=".7px"
                title="Connecticut" 
                id="US-CT" 
            />
        </svg>