<svg xmlns="http://www.w3.org/2000/svg" viewBox="964.3544399999998 565.7460600000002 7.050000000000182 16.789999999999623" width="7.050000000000182" height="16.789999999999623">
            <path 
                d="m 967.77444,566.08606 -0.41,0.43 -0.35,0.77 -0.81,0.93 0.06,0.63 0.14,0.44 -0.07,0.93 0.51,0.9 1.01,1.47 0.19,2.28 0.77,1.52 1.18,1.78 0.91,0.5 0.04,0.66 -0.41,1.08 -0.56,0.5 0.72,-0.1 0.36,0.25 0.35,0.9 -0.02,0.57 -1.01,0.01 -2.08,0 -2.09,0 -0.95,0 -0.02,0 -0.02,0 -0.02,0 -0.02,0 -0.03,0 -0.02,0 -0.02,0 -0.02,0 -0.09,-1.9 -0.09,-1.9 -0.09,-1.91 -0.1,-1.91 -0.09,-1.92 -0.09,-1.92 -0.09,-1.92 -0.09,-1.93 0.71,-0.98 0.3,-0.3 0.4,-0.15 1.17,-0.05 z" 
                fill="rgb(151, 144, 238)" 
                stroke="white" 
                stroke-width=".7px"
                title="Delaware" 
                id="US-DE" 
            />
        </svg>