<svg xmlns="http://www.w3.org/2000/svg" viewBox="853.0144400000007 667.6760600000001 71.25999999999965 68.37999999999965" width="71.25999999999965" height="68.37999999999965">
            <path 
                d="m 910.51444,670.58606 0.44,0.99 0.67,4.03 0.46,1.4 0.83,3.76 1.36,3.63 1.93,4.37 3.16,5.27 0.38,0.75 -0.41,0.63 -0.13,0.66 -0.04,0.99 0.11,0.96 0.37,1.18 0.72,1.8 -0.4,-0.36 -1.04,-2.58 -0.12,-1.52 0.15,-2.16 -0.24,0.05 -0.2,0.7 -0.11,0.82 -0.26,0.32 -0.36,-1.26 0.03,-0.57 0.38,-0.66 -0.11,-0.24 -0.62,-0.34 -0.13,-0.54 0.08,-0.53 -0.35,-0.28 -0.28,0.01 0.19,1.3 0.29,0.8 0.36,1.91 0.59,1.16 0.34,0.97 3.99,10.3 0.94,1.31 0.35,0.94 0.36,1.96 0.08,2.51 -0.65,4.57 -0.15,3.1 -0.09,-0.09 -0.06,-0.33 -0.15,-0.04 -0.57,1.42 -0.77,1.28 -0.25,1.99 -0.37,0.99 -1.11,1.05 -0.69,-0.03 -1.68,0.79 -1.18,-0.21 -1.41,0.44 -0.93,-0.05 -0.54,-0.94 0.08,-0.42 0.21,-0.42 0.36,-0.1 1.25,0.98 0.23,-0.41 -0.38,-0.49 -0.72,-0.27 -0.53,-0.3 -1.07,-2.24 -1.11,-1.54 -0.19,-1.03 -1.91,-0.63 -1.39,-0.95 -0.9,-1.7 -0.52,-3.02 -0.61,-0.34 -0.26,-0.24 0.6,-1.12 0.63,-0.94 -0.5,0.23 -0.37,0.35 -0.47,0.83 -0.34,0.13 -0.31,-0.13 -0.36,-1.59 0.1,-1.96 0.51,-0.74 -0.78,-0.02 -0.8,0.28 0.12,0.66 -0.11,0.36 -0.59,-0.09 -0.44,-0.23 -0.6,-0.68 -0.82,-1.3 -1.69,-3.59 -0.33,-0.51 -0.56,-0.53 0.26,-0.17 0.48,-0.1 1.08,-1.62 0.85,-0.98 0.28,-0.68 -0.05,-0.29 -0.38,-0.42 -0.49,0.37 -0.21,-0.11 -0.56,-0.85 -0.53,-0.24 -0.37,0.19 0.39,0.7 0.35,0.26 -0.14,1.02 -0.14,0.33 -0.33,0.29 -0.51,-0.16 -0.26,0.25 -0.31,-0.26 -0.3,-0.45 -0.34,-0.74 0.89,-4.15 0.83,-2.65 0.09,-3.03 0.06,-0.45 -0.07,-0.81 -1.11,-1.76 -4.91,-4.3 -3.8,-5.11 -3.29,-1.92 -2.5,0.42 -0.43,0.39 -0.19,0.51 0.16,0.57 -0.23,0.24 -0.67,-0.03 -0.9,0.13 -2.36,1.35 -0.83,-0.05 -0.76,0.35 -0.57,0.26 -1.48,0.14 -1.25,0.3 -0.54,-0.16 -0.35,-0.78 0,-0.81 0.29,0.62 0.44,0.48 0.2,-0.19 0.08,-0.43 -0.44,-0.84 -1.42,-1.08 -1.61,-1.58 0.49,0.05 0.12,-0.34 -0.5,-0.44 0.21,-0.51 0.35,-0.54 -0.68,0.08 -0.61,0.38 -0.02,0.47 -0.12,0.37 -0.33,-0.05 -0.61,-0.46 -3.01,-1.28 -2.63,-0.72 2.02,-0.33 1.09,0.25 -0.13,-0.39 -0.26,-0.25 -0.86,-0.31 -1.1,0.12 -0.69,-0.15 -0.71,0.31 -0.78,0.46 -0.69,0.24 -2.71,0.33 -2.2,0.36 0.35,-0.38 0.38,-0.24 1.3,-0.37 0.19,-0.77 -0.31,-0.74 -0.34,0.18 -0.36,0.58 -0.44,-0.42 -0.49,0 -0.13,0.93 -0.63,0.62 -0.28,0.62 -1.83,0.49 -0.24,-0.16 0.54,-0.59 -0.04,-0.33 -0.39,0.18 0.09,-0.37 0.33,-0.34 0.15,-0.38 -0.04,-0.74 0.24,-1.04 -0.13,-0.33 -1.36,-1.35 -0.33,-0.71 -0.06,-0.75 0.13,-0.78 3.04,0 3.04,0 3.04,0 3.04,0 3.04,0 3.04,0 3.04,0 3.04,-0.01 0.39,0.86 0.75,1.78 0.03,0.42 0.88,0.06 1.5,0.1 1.5,0.1 1.5,0.1 1.5,0.1 1.5,0.1 1.5,0.1 1.5,0.1 1.5,0.1 1.5,0.1 1.5,0.1 1.5,0.1 1.5,0.1 1.5,0.1 1.5,0.1 1.5,0.1 1.5,0.1 0.01,0.36 0.25,0.56 0.06,0.64 0.11,0.31 0.3,0.19 0.47,0.05 0.48,-0.36 0.3,-0.79 0.08,-0.89 -0.18,-1.02 0.03,-0.86 0.24,-0.5 0.28,-0.12 0.24,-0.27 0.2,-0.06 0.52,0.14 1.95,0.72 1.66,0.09 z m -32.04,11.8 -0.95,0.39 -1.02,-0.28 0.63,-0.05 0.46,0.11 1.16,-0.56 0.61,-0.42 0.71,-0.16 -1.6,0.97 z m 44.44,25.18 0.15,0.78 -0.87,-1.8 -1.07,-2.83 -0.57,-2.19 0.39,0.59 0.38,1.23 1.59,4.22 z m -17.86,7.63 -0.01,0.61 -0.47,-1.03 -0.32,-1.14 0.45,0.37 0.35,1.19 z m 0.44,1.03 -0.34,0.27 -0.68,-0.2 -0.37,-0.36 -0.16,-0.7 0.59,0.74 0.21,0.17 0.75,0.08 z m 15.58,13.64 -1.87,1.94 0.21,-0.49 0.73,-1.04 0.24,-0.49 0.49,-0.31 0.46,-0.56 0.03,-0.66 0.67,-0.46 0.22,-0.07 -1.18,2.14 z m -2.41,2.47 -0.25,0.05 0.37,-0.44 0.1,0.03 -0.22,0.36 z m -1.8,1.03 -0.18,0 0.09,-0.15 0.37,-0.29 0.13,0.11 -0.02,0.15 -0.39,0.18 z m -2.02,0.89 -0.43,0.24 -0.45,-0.18 0.49,-0.24 1.46,-0.26 -0.55,0.33 -0.52,0.11 z m -2.74,0.68 -0.28,0.21 -0.13,-0.07 0,-0.31 -0.4,-0.68 0.01,-0.18 0.92,0.67 0.02,0.18 -0.14,0.18 z m -2.18,0.53 -0.61,0.1 0.49,-0.41 0.16,-0.62 0.29,0.48 -0.01,0.29 -0.32,0.16 z m -2.04,0.57 -0.24,0.02 -0.02,-0.16 0.41,-0.19 0.27,0.01 -0.01,0.21 -0.41,0.11 z" 
                fill="rgb(151, 144, 238)" 
                stroke="white" 
                stroke-width=".7px"
                title="Florida" 
                id="US-FL" 
            />
        </svg>