<svg xmlns="http://www.w3.org/2000/svg" viewBox="717.3444400000016 563.81606 69.72000000000082 35.950000000000045" width="69.72000000000082" height="35.950000000000045">
            <path 
                d="m 787.06444,599.76606 -2.18,0 -2.17,0 -2.18,0 -2.17,0 -2.18,0 -2.17,0 -2.18,0 -2.17,0 -2.18,0 -2.17,0 -2.18,0 -2.17,0 -2.18,0 -2.17,0 -2.18,0 -2.17,0 -2.18,0 -2.18,0 -2.17,0 -2.18,0 -2.17,0 -2.18,0 -2.17,0 -2.18,0 -2.17,0 -2.18,0 -2.17,0 -2.18,0 -2.17,0 -2.18,0 -2.18,0 -2.17,0 -0.01,-2.2 0,-2.21 -0.01,-2.21 -0.01,-2.22 0,-2.23 -0.01,-2.23 -0.01,-2.24 -0.01,-2.24 0,-2.25 -0.01,-2.26 -0.01,-2.26 0,-2.26 -0.01,-2.28 -0.01,-2.28 0,-2.28 -0.01,-2.3 1.97,0 1.98,0 1.97,0 1.97,0 1.97,0 1.98,0 1.97,0 1.97,0 1.98,0 1.97,0 1.97,0 1.98,0 1.97,0 1.97,0 1.98,0 1.97,0 1.97,0 1.97,0 1.98,0 1.97,0 1.97,0 1.98,0 1.97,0 1.97,0 1.98,0 1.97,0 1.97,0 1.98,0 1.97,0 1.97,0 1.97,0 1.7,0 2.17,1.58 0.57,0.02 0.67,-0.25 0.51,0.36 0.35,0.98 -0.05,0.49 -0.44,0.02 -0.56,0.59 -0.66,1.14 0.16,1.08 0.99,1 0.66,1.01 0.33,1.02 0.66,0.79 1.46,0.84 -0.02,0.46 0,1.57 0.01,1.57 0,1.57 0,1.56 0.01,1.57 0,1.55 0.01,1.56 0,1.55 0,1.55 0.01,1.55 0,1.54 0.01,1.54 0,1.54 0,1.54 0.01,1.53 z" 
                fill="rgb(151, 144, 238)" 
                stroke="white" 
                stroke-width=".7px"
                title="Kansas" 
                id="US-KS" 
            />
        </svg>