<svg xmlns="http://www.w3.org/2000/svg" viewBox="929.5044400000004 567.22606 41.86999999999978 21.28999999999985" width="41.86999999999978" height="21.28999999999985">
            <path 
                d="m 964.35444,567.22606 0.09,1.93 0.09,1.92 0.09,1.92 0.09,1.92 0.09,1.91 0.09,1.91 0.09,1.9 0.09,1.9 0.02,0 0.02,0 0.02,0 0.02,0 0.02,0 0.02,0 0.02,0 0.02,0 0.95,0 2.09,0 2.09,0 1.01,-0.01 -0.01,0.35 -0.12,0.52 -0.22,0.21 0.01,-0.53 -0.15,-0.18 -0.25,0.23 -0.16,0.26 -0.07,1.03 -0.17,0.51 -0.62,0.15 -0.63,1.35 -0.58,0.76 -0.21,0.48 -0.88,0.12 -1.42,0.19 -0.37,0.54 -0.71,-0.23 -1.09,0.03 0.21,-0.73 0.32,-0.64 -0.57,-0.64 -0.34,-0.08 -0.35,-0.26 0.41,-0.53 0.2,-0.56 -0.12,-0.69 0.17,-0.52 -0.28,0.08 -0.46,0.55 -0.28,0.22 -0.17,-0.49 -0.2,0.11 -0.13,0.33 -0.29,0.18 -0.61,-0.46 -0.9,-0.52 -0.5,-0.9 -0.28,-0.7 0.29,-1.26 0.62,-0.22 0.8,0.21 1.05,0 -0.15,-0.28 -0.38,0.05 -1.11,-1.03 -0.36,-0.62 -0.62,-0.17 -0.28,0.6 -0.31,0.16 0.38,-1.31 0.5,-0.05 0.74,-0.36 -0.22,-0.76 -0.47,-0.33 -0.85,0.42 0.01,-0.53 0.16,-0.68 0.64,0 0.56,0.22 0.48,-1.1 0.02,-0.49 -0.79,0.72 -0.18,-1.55 0.78,-1.49 0.74,-0.65 0.93,0.02 0.94,-0.11 -0.59,-0.27 -0.61,-0.15 0.46,-0.59 0.39,-0.11 0.38,-0.52 -0.92,0.08 0.11,-0.98 -0.45,0.2 -0.53,0.09 -0.21,0.42 0.04,0.69 -0.16,0.45 -0.42,0.36 -0.7,0.28 -0.07,-0.49 -0.23,-0.22 -0.09,1.05 -0.18,0.36 -0.51,-0.98 -0.15,0.2 0.02,0.28 -0.13,0.48 -0.44,0.25 0.03,0.62 -0.17,0.34 -1.41,-0.54 -0.03,0.18 0.8,1.16 0.58,0.39 0.07,0.63 -0.5,0.52 -0.69,-0.45 -0.12,0.03 0.37,0.77 0.24,0.67 -0.24,0.57 0.04,0.69 -0.05,0.63 -0.15,0.55 0.33,2.53 0.4,0.68 0.4,0.66 0.21,0.61 -0.42,0.09 -0.67,-0.5 -0.59,-0.38 -0.7,-1.23 -0.12,-0.49 -0.17,-0.39 0.08,0.89 0.25,1 2.2,2.22 0.41,0.85 0.31,0.67 -0.08,0.64 -0.57,-0.45 -0.49,-0.58 -1.31,-0.65 -1.65,-0.41 -0.93,-1.52 0,0.64 -0.21,0.54 -0.57,-0.66 -0.36,-0.56 -0.12,-0.61 -0.71,0.04 -0.75,0.53 -0.72,-0.13 -0.08,-1.04 0.19,-0.55 0.81,-1.31 0.76,-0.67 0.34,-0.86 -0.11,-1.34 0.1,1 0.83,-0.98 -0.54,-0.77 -0.5,-0.72 -0.75,0.82 -0.64,-0.31 -1.04,-1.02 -1.69,-0.72 -0.24,-0.36 0.03,-0.4 0.23,-0.55 -0.52,-0.54 -1.27,-0.53 -0.54,-0.45 -0.12,-0.1 -0.05,-0.55 -0.17,-0.35 -0.28,-0.15 -0.05,-0.24 0.17,-0.33 -0.17,-0.35 -0.52,-0.38 -0.18,-0.33 0.16,-0.29 -0.26,-0.13 -0.68,0.02 -0.67,-0.27 -0.66,-0.57 -0.79,-0.1 -1.36,0.57 -0.77,0.14 -0.34,0.32 -0.17,0.55 -0.33,0.28 -0.75,0.01 -0.12,-0.02 -0.85,-0.18 -0.6,-0.34 -0.11,-0.14 0.07,-0.29 -0.11,-0.13 -0.18,-0.02 -0.17,0.17 -0.18,0.52 -1.47,1.42 -0.71,-0.28 -0.27,0.01 -2.05,2 -0.62,0.32 -1.21,0.9 0.02,-1.55 0.02,-1.55 0.03,-1.56 0.02,-1.56 2.17,0 2.17,0 2.17,0 2.17,0 2.17,0 2.17,0 2.17,0 2.17,0 2.17,0 2.19,0 2.17,0 2.17,0 2.17,0 2.17,0 2.17,0 2.19,0 z m 5.26,20.26 -0.25,0.03 0.25,-0.42 0.83,-2 0.37,-0.69 -0.36,1.4 -0.63,1.29 -0.21,0.39 z" 
                fill="rgb(151, 144, 238)" 
                stroke="white" 
                stroke-width=".7px"
                title="Maryland" 
                id="US-MD" 
            />
        </svg>