<svg xmlns="http://www.w3.org/2000/svg" viewBox="985.7944399999999 527.7660599999997 33.649959999999965 20.630000000000337" width="33.649959999999965" height="20.630000000000337">
            <path 
                d="m 1011.2144,527.83606 -0.22,0.66 0.27,0.66 0.18,0.67 0.43,0.66 0.37,0.06 0.4,-0.12 0.29,0.03 0.19,0.28 -0.08,0.34 -0.46,0.08 -0.85,0.59 -0.75,0.23 -0.37,0.71 -0.56,0.82 -1.09,1.28 0.47,0.39 1.68,0.44 0.75,0.46 1.14,2.38 -0.26,0.24 -0.1,0.44 1.01,0.61 0.32,1.7 0.83,0.58 1.24,0.36 1.51,-0.51 1.26,-0.71 -0.04,-0.58 -0.79,-1.35 -0.19,-0.64 -0.59,-0.41 -0.22,0.35 -0.38,-0.45 -0.04,-0.26 0.35,-0.12 0.41,0.05 0.48,0.24 1.23,1.48 0.34,1.93 0.07,1.23 -0.14,0.42 -0.36,-0.09 -0.69,0.08 -3.25,0.63 -0.72,0.56 -1.65,0.6 -0.1,-0.3 0.12,-0.63 -0.1,-1.28 -0.33,-0.06 -2.57,2.09 -0.99,0.13 -0.83,0.61 -0.19,-0.34 -0.15,-1.56 0.52,-1.31 -0.28,0.02 -0.52,0.47 -0.32,-0.56 -0.35,-0.3 -0.34,-0.29 0.01,-0.47 0.02,-0.71 -0.39,-0.14 -0.04,-0.87 -0.03,-0.57 -0.71,0.01 -0.58,0.01 -0.93,0.02 -0.97,0.01 -0.71,0.01 -0.01,-0.14 -1.13,-0.02 -1.12996,-0.02 -1.13,-0.02 -1.13,-0.02 -1.13,-0.02 -1.12,-0.02 -1.13,-0.02 -1.13,-0.02 -0.05,0.29 -0.41,0.04 -0.01,-0.33 -0.79,-0.03 -0.79,-0.03 -0.79,-0.03 -0.79,-0.03 -0.79,-0.03 -0.79,-0.03 -0.79,-0.03 -0.79,-0.03 -0.25,-0.31 0.3,-1.06 0.3,-1.06 0.3,-1.07 0.3,-1.07 0.3,-1.07 0.3,-1.07 0.3,-1.07 0.3,-1.07 0.92,0.04 0.93,0.04 0.93,0.04 0.92,0.04 0.93,0.04 0.92,0.03 0.93,0.04 0.93,0.04 1.34,0.04 1.34,0.04 1.34,0.04 1.33996,0.04 1.34,0.04 1.34,0.04 1.34,0.04 1.34,0.04 0.82,-0.35 0.97,-1 0.59,-0.22 0.96,-0.6 0.48,-0.13 1.07,0.07 z m 2.79,18.98 -2.59,0.61 -0.41,-0.39 0.65,-0.18 0.82,-0.94 0.54,-0.11 0.85,0.53 0.14,0.48 z m 5.01,1.38 -0.73,0.2 -1.68,-0.46 1.38,-0.39 0.23,-0.14 0.18,-0.57 0.02,-0.29 0.52,1.23 0.08,0.42 z" 
                fill="rgb(151, 144, 238)" 
                stroke="white" 
                stroke-width=".7px"
                title="Massachusetts" 
                id="US-MA" 
            />
        </svg>