<svg xmlns="http://www.w3.org/2000/svg" viewBox="548.1244399999994 538.96606 56.11000000000058 84.09000000000003" width="56.11000000000058" height="84.09000000000003">
            <path 
                d="m 604.23444,599.73606 -0.01,4.58 -0.02,5.02 -0.18,0.07 -0.54,1.15 -0.6,0.53 -0.46,-0.01 -0.46,-0.33 -0.47,-0.65 -0.71,-0.38 -0.93,-0.09 -0.82,0.1 -0.72,0.3 -0.44,0.43 -0.24,0.83 0.08,0.34 0.43,0.77 0.03,1.2 0.06,0.97 0.26,0.53 0.04,0.62 -0.16,0.98 0.13,0.8 0.54,1.41 -0.18,4.07 0,0.08 -2.56,-2.43 -2.39,-2.27 -2.39,-2.28 -2.39,-2.29 -2.39,-2.29 -2.39,-2.3 -2.39,-2.31 -2.39,-2.31 -1.72,-1.61 -1.73,-1.61 -1.73,-1.61 -1.72,-1.62 -1.73,-1.62 -1.72,-1.63 -1.73,-1.63 -1.73,-1.63 -2.2,-1.94 -2.21,-1.94 -2.2,-1.95 -2.2,-1.95 -2.21,-1.96 -2.2,-1.96 -2.21,-1.96 -2.2,-1.97 0,-2.27 -0.01,-2.27 0,-2.28 0,-2.28 0,-2.29 0,-2.3 0,-2.3 0,-2.31 0,-2.32 0,-2.32 0,-2.33 0,-2.33 0,-2.34 0,-2.35 0,-2.36 0,-2.36 3.51,0 3.51,0 3.51,0 3.51,0 3.52,0 3.51,0 3.51,0 3.51,0 3.5,0 3.5,0 3.5,-0.01 3.5,0 3.5,0 3.5,0 3.5,0 3.5,0 0,1.97 0,1.96 0,1.96 0,1.95 0,1.95 0,1.95 0,1.94 0,1.93 0,1.93 0,1.93 0,1.92 0,1.92 0.01,1.91 0,1.91 0,1.91 0,1.89 0,1.9 0,1.89 0,1.89 0,1.88 0,1.88 0,1.87 0,1.87 0,1.87 0,1.86 0,1.86 0.01,1.85 0,1.85 0,1.85 0,1.84 0,1.84 z" 
                fill="rgb(151, 144, 238)" 
                stroke="white" 
                stroke-width=".7px"
                title="Nevada" 
                id="US-NV" 
            />
        </svg>