<svg xmlns="http://www.w3.org/2000/svg" viewBox="966.7944400000001 547.0360600000006 15.209999999999923 29.63999999999976" width="15.209999999999923" height="29.63999999999976">
            <path 
                d="m 982.00444,551.59606 -0.16,0.97 -0.93,1.96 -0.39,0.45 -0.46,0.4 -0.35,0.17 -0.32,0.31 -0.37,0.49 -0.35,0.98 0.21,0.89 1.8,0.33 0.48,-0.28 0.25,0.64 0.14,0.89 -0.14,0.96 -0.3,0.97 -0.23,1.21 -0.19,1.83 -0.29,1.65 -0.04,-0.5 0.18,-2 -0.29,0.21 -0.2,0.46 -0.55,2.58 -0.76,1.37 -0.7,0.95 -0.72,-0.16 0.16,0.75 -0.2,0.39 -0.17,0.82 -0.43,0.54 -0.4,-0.05 -0.58,0.37 -0.23,0.29 -0.02,0.54 -0.39,0.48 -1.4,2.49 -1.21,0.73 -0.29,-0.11 0.32,-1.17 0.22,-1.19 -0.74,-0.52 -0.71,-0.27 -0.81,0.04 -0.89,-0.92 -1.15,-0.67 -1.61,-1.82 0.05,-0.51 -0.04,-0.85 0.49,-1.35 0.47,-0.94 0.65,-0.49 1.88,-0.5 0.47,-0.75 0.28,-0.63 0.48,-0.42 1.08,-0.76 1.64,-0.92 -2.27,-3.09 -0.54,-0.18 -0.6,-1.51 -0.69,-0.42 -0.17,-0.24 -0.03,-1.16 0.06,-0.67 0.1,-0.39 0.59,-0.33 0.34,-0.67 0.01,-0.35 -0.45,-1.08 0,-0.34 0.86,-0.66 1.12,-1.29 0.67,-1.41 0.27,-0.41 0.33,-0.29 0.74,-0.4 0.93,0.57 0.93,0.57 0.93,0.57 0.93,0.57 0.93,0.57 0.93,0.57 0.93,0.57 0.91,0.57 z m -2.11,16.14 -1.1,1.84 -0.02,-0.35 1.38,-2.29 -0.26,0.8 z" 
                fill="rgb(151, 144, 238)" 
                stroke="white" 
                stroke-width=".7px"
                title="New Jersey" 
                id="US-NJ" 
            />
        </svg>