<svg xmlns="http://www.w3.org/2000/svg" viewBox="651.2344399999996 599.7660600000002 56.920000000000414 64.29999999999995" width="56.920000000000414" height="64.29999999999995">
            <path 
                d="m 708.15444,605.61606 -0.39,0.01 -0.01,3.27 -0.02,3.26 -0.01,3.25 -0.02,3.23 -0.01,3.23 -0.01,3.21 -0.02,3.21 -0.01,3.19 -0.01,3.18 -0.02,3.17 -0.01,3.16 -0.02,3.15 -0.01,3.14 -0.01,3.13 -0.02,3.12 -0.01,3.11 -2.12,0 -2.11,0 -2.12,0 -2.12,0.01 -2.11,0 -2.12,0 -2.11,0 -2.12,0 -2.12,0 -2.11,0 -2.12,0 -2.11,0 -2.12,0.01 -2.12,0 -2.11,0 -2.12,0 -0.05,0 0.96,2 -0.01,0 1.14,0.57 -0.07,-0.02 -2.07,-0.02 -2.07,-0.01 -2.07,-0.01 -2.07,-0.01 -2.07,-0.02 -2.07,-0.01 -2.07,-0.01 -2.07,-0.01 0,1.24 -0.01,1.23 0,1.24 -0.01,1.23 -3.33,0.01 -3.32,0.01 -1.19,0 0,-3.9 0,-3.91 0,-3.93 0,-3.94 0,-3.96 0,-3.97 0,-3.99 0,-4.01 0,-4.02 0,-4.04 0,-4.06 0,-4.08 0,-4.09 0,-4.11 0.01,-4.13 0,-4.16 3.55,0 3.56,0 3.56,0 3.55,0 3.56,0 3.56,0 3.56,0 3.55,0 3.56,0 3.56,0 3.55,0 3.56,0 3.56,0 3.55,0 3.56,0 3.56,0 0,1.47 0,1.46 0,1.46 z" 
                fill="rgb(151, 144, 238)" 
                stroke="white" 
                stroke-width=".7px"
                title="New Mexico" 
                id="US-NM" 
            />
        </svg>