<svg xmlns="http://www.w3.org/2000/svg" viewBox="883.9844399999998 604.2360599999995 83.47000000000025 31.450000000000045" width="83.47000000000025" height="31.450000000000045">
            <path 
                d="m 962.64444,605.02606 -0.25,0.91 0.13,0.52 0.5,0.54 0.55,1.34 0.44,1.8 -0.59,-0.73 -0.63,-0.39 -0.98,-0.3 -0.88,-0.52 0.06,0.75 -0.08,0.81 -0.67,-0.25 -0.46,-0.27 0.41,0.86 -0.88,-0.26 -0.59,0.05 -0.38,0.76 -0.51,0.46 -0.76,0.15 -1.13,-0.7 -0.36,-0.84 -0.15,-0.94 -0.06,1.11 0.2,1.16 -0.07,0.88 1.08,0.16 1.01,-0.14 1.37,0.04 0.89,-0.17 0.54,-0.28 1.29,0.24 0.09,1.06 -0.15,1.05 -0.07,1.12 0.36,-0.01 0.42,-0.36 0.21,-2.01 1.18,-0.74 0.39,0.05 0.38,0.65 0.13,0.66 0.13,0.9 -0.28,1.37 -1.81,1.6 -1.29,1.47 -0.66,0.3 -0.95,-0.17 -1.08,-0.37 -0.53,-0.07 -0.4,0.12 -0.25,-0.45 -0.16,-0.83 -0.42,-0.28 -0.32,0.03 -0.22,0.88 -1.01,0.25 -1.37,-0.36 -1.44,-0.74 0.62,0.79 3.57,1.48 0.4,0.28 0.38,0.4 -0.5,0.63 -0.39,0.71 -0.06,0.56 -0.14,0.35 -1.42,0.95 -0.77,-0.17 -1.97,-1.71 0.9,1.48 0.72,0.63 1.45,0.33 2.71,-0.55 0.89,0.6 -0.73,1.07 -0.73,0.75 -0.95,0.08 -0.84,0.2 -0.25,0.51 -0.6,0.03 -0.93,0.03 -1.45,0.05 -0.79,-0.12 -1.11,1.05 -0.42,0.14 -0.58,-0.2 -0.25,-0.84 -0.26,-0.42 -0.01,1.58 0.1,0.42 0.21,0.32 -1.3,0.86 -1.24,1.07 -0.45,0.29 -0.51,0.53 -1.04,1.54 -0.26,1.12 -0.37,1.25 -0.05,-0.56 0.06,-0.95 -0.26,-1.08 -0.16,1.99 -0.4,0.92 -3.7,-0.06 -1.49,0.46 -1.36,-1.37 -1.27,-1.29 -1.27,-1.29 -1.27,-1.29 -1.27,-1.3 -1.27,-1.3 -1.27,-1.3 -1.27,-1.3 -1.33,-0.05 -1.33,-0.04 -1.33,-0.05 -1.33,-0.04 -1.33,-0.05 -1.33,-0.04 -1.33,-0.05 -1.33,-0.04 -0.05,-0.9 -0.04,-0.64 -0.83,-1.09 -0.49,-0.64 -1.05,0.55 -0.06,-0.27 0.04,-0.48 -0.09,-0.17 -0.29,-0.12 -1.49,-0.07 -1.49,-0.07 -1.49,-0.07 -1.49,-0.07 -1.49,-0.07 -1.49,-0.07 -1.49,-0.07 -1.49,-0.07 -0.34,-0.11 -0.67,0.38 -1.77,0.57 -0.87,0.5 -0.32,-0.03 -1.5,0.49 -1.5,0.49 -0.17,0 -2.85,0.04 -2.85,0.04 -2.85,0.04 -2.85,0.04 0.35,-2.44 0.24,-0.56 0.27,-0.13 0.98,-0.01 0.62,-0.28 0.55,-1.47 1.25,-1.16 0.56,-0.29 0.84,-0.23 1.99,-0.28 2.14,-1.13 1.54,-1.07 1.22,-0.3 0.38,-0.39 0.28,-0.51 0.17,-0.7 0.13,-0.15 0.71,0.05 0.54,-0.61 0.52,-0.35 0.52,-0.2 0.32,-0.01 0.12,0.18 0.09,0.52 0.11,0.17 0.22,0.01 0.3,-0.12 0.4,-0.33 1.04,-1.04 0.69,-0.4 1.06,-0.23 0.77,0.55 0.46,-0.19 1.35,-2.13 0.54,-0.39 0.4,-0.15 0.7,-0.03 0.01,-0.59 0.24,-0.89 0.03,-0.61 0.43,-0.89 0.16,0.18 3.41,0.03 3.41,0.03 3.41,0.03 3.41,0.03 3.41,0.03 3.41,0.03 3.41,0.03 3.41,0.03 3.41,0.03 3.41,0.03 3.41,0.03 3.41,0.03 3.41,0.03 3.41,0.03 3.41,0.03 2.27,0.16 z m 0.73,0.02 0.3,0 0.94,3.74 1.88,4.06 0.23,0.7 -0.44,-0.61 -1.39,-2.68 -0.78,-1.96 -0.74,-3.25 z m 2.38,8.06 -0.14,0.24 -0.63,-1.28 0.64,0.41 0.11,0.34 0.02,0.29 z m 0.86,7.1 -1.26,0.31 -0.11,-0.1 1.45,-0.65 0.46,-2.31 0.06,-1.07 -0.22,-1.88 0.01,-0.39 0.24,0.61 0.21,1.76 -0.08,1.33 -0.42,1.93 -0.34,0.46 z m -2.24,0.57 -1.71,0.82 -0.19,-0.05 1.12,-0.59 0.78,-0.18 z m -6.79,6.25 -0.23,0.13 0.86,-1.42 1.7,-1.81 0.46,-0.28 -1.42,1.54 -1.37,1.84 z m -0.4,-0.13 -0.21,0.03 -0.37,-0.13 -0.51,-0.24 -0.11,-0.18 0.49,0.06 0.71,0.46 z" 
                fill="rgb(151, 144, 238)" 
                stroke="white" 
                stroke-width=".7px"
                title="North Carolina" 
                id="US-NC" 
            />
        </svg>