<svg xmlns="http://www.w3.org/2000/svg" viewBox="698.4244399999985 445.19606000000005 70.39000000000146 42.35999999999996" width="70.39000000000146" height="42.35999999999996">
            <path 
                d="m 768.81444,487.55606 -2.19,0 -2.19,0 -2.2,0 -2.19,0 -2.19,0 -2.19,0 -2.2,0 -2.19,0 -2.19,0 -2.2,0 -2.19,0 -2.19,0 -2.19,0 -2.2,0 -2.19,0 -2.19,0 -2.2,0 -2.19,0 -2.19,0 -2.2,0 -2.19,0 -2.19,0 -2.19,0 -2.2,0 -2.19,0 -2.19,0 -2.2,0 -2.19,0 -2.19,0 -2.2,0 -2.19,0 -2.19,0 -0.01,-2.58 -0.02,-2.58 -0.01,-2.6 -0.01,-2.6 -0.02,-2.62 -0.01,-2.62 -0.01,-2.63 -0.02,-2.65 -0.01,-2.65 -0.01,-2.66 -0.02,-2.67 -0.01,-2.68 -0.01,-2.7 -0.01,-2.7 -0.02,-2.71 -0.02,-2.71 1.02,0 4.02,0 4.01,0 4.01,0 4.02,0 4.01,0 4.02,0 4.01,0 4.01,0 4.02,0 4.01,0 4.02,0 4.01,0 4.01,0 4.02,0 4.01,0 2.86,0 0.92,4.45 -0.01,1.25 -0.14,0.8 0.12,1.4 -0.05,0.94 0.14,1.2 -0.04,1.59 0.45,1.83 0.67,1.65 -0.02,0.48 0.2,0.99 0.39,0.82 0.83,2.42 -0.04,2.28 0.14,0.7 0.21,4.9 0.07,0.61 0.45,0.75 -0.21,1.11 -0.03,0.57 0.09,2.04 0.26,0.79 0.26,1.61 1.07,1.98 0.18,0.75 0.06,0.6 0.29,1.21 -0.09,1.61 z" 
                fill="rgb(151, 144, 238)" 
                stroke="white" 
                stroke-width=".7px"
                title="North Dakota" 
                id="US-ND" 
            />
        </svg>