<svg xmlns="http://www.w3.org/2000/svg" viewBox="879.28444 539.11606 40.5 43.899999999999864" width="40.5" height="43.899999999999864">
            <path 
                d="m 919.78444,555.87606 -1.11,0.54 -0.21,0.5 0.34,0.63 0.18,0.82 0.02,1 -0.62,2.2 -1.28,3.38 -0.64,2.12 -0.02,0.87 -0.84,1.13 -1.66,1.4 -1.16,0.84 -0.66,0.29 -0.56,-0.02 -0.44,-0.34 -0.5,0.23 -0.56,0.8 -0.51,0.41 -0.48,0.02 -0.41,0.52 -0.34,1 -0.32,0.58 -0.3,0.15 -0.02,0.51 0.25,0.86 -0.02,0.31 -0.14,0.01 -0.13,-0.05 -0.33,0.19 -0.36,0.48 -0.14,0.01 -0.1,-0.08 -0.1,-0.63 -0.3,-0.44 -0.48,-0.26 -0.67,0.58 -0.86,1.42 -0.37,0.92 0.14,0.64 0.08,0.93 -0.22,0.38 -0.46,0.14 -0.37,0.51 -0.25,0.86 -0.65,0.55 -1.04,0.23 -1.09,-0.4 -0.08,-0.03 -1.29,-1.08 -0.81,-1.04 -0.34,-0.99 -1.12,-0.05 -1.92,0.91 -1.44,0.13 -0.98,-0.62 -0.73,-0.25 -0.73,0.21 -0.7,0.4 -0.58,-0.24 -0.72,-0.74 -1.13,-0.52 -1.55,-0.29 -1.08,-0.81 -0.59,-1.31 -0.64,-0.91 -0.67,-0.5 -0.75,-0.14 -0.8,0.2 -0.62,-0.1 -0.44,-0.42 -0.56,0.05 -0.52,0.4 0.01,-4.02 0.04,-3.96 0.03,-3.97 0.03,-4 0.03,-4.02 0.03,-4.03 0.04,-4.06 0.03,-4.08 3.13,-0.12 3.14,-0.11 3.13,-0.13 3.14,-0.11 0.09,-0.08 -0.02,0.04 0.13,0.22 0.85,0.14 0.58,0.26 0.45,0.39 1.64,0.77 0.5,0.47 0.49,0.26 0.5,0.05 0.33,-0.15 0.19,-0.34 0.23,-0.03 0.28,0.3 0.92,0.33 0.03,0.1 -2.55,0.57 -0.53,0.27 0.64,0.18 0.64,-0.04 0.65,-0.27 0.75,0.01 0.65,0.13 0.21,-0.11 0.08,-0.06 1.11,0.75 0.42,0.12 0.43,-0.09 0.45,-0.28 0.98,-0.37 1.52,-0.45 1.46,-0.19 1.4,0.09 0.89,-0.13 0.81,-0.47 1.79,-1.54 2.05,-1.24 3.39,-1.55 3.28,-1.21 0,1.05 0,1.32 0,1.32 0,1.31 0,1.32 0,1.31 0,1.31 0,1.31 0,1.3 0,1.3 0,1.31 0,1.29 z" 
                fill="rgb(151, 144, 238)" 
                stroke="white" 
                stroke-width=".7px"
                title="Ohio" 
                id="US-OH" 
            />
        </svg>