<svg xmlns="http://www.w3.org/2000/svg" viewBox="505.3944399999998 483.73606000000007 75.90000000000032 55.24000000000001" width="75.90000000000032" height="55.24000000000001">
            <path 
                d="m 517.81444,484.70606 0.94,-0.34 0.74,0.26 0.94,0.61 0.93,1.85 0.91,3.07 0.2,1.02 0.71,0.63 0.84,0.03 3.37,0.45 0.5,-0.03 0,0 0.61,-0.12 1.91,-1.17 2.07,-0.38 2.45,0.08 1.5,0.34 0.55,0.58 1.31,0.06 3.1,-0.68 3.43,-0.48 1.84,-0.49 2.09,-1.02 4.75,-1.3 2.37,-0.15 1.2,-0.49 0.28,-0.25 0.17,-0.01 2.5,0 2.49,0 2.5,-0.01 2.5,0 2.5,0 2.5,-0.01 2.5,0 2.33,0 0.26,0.59 0.98,1.16 1.39,0.99 0.91,1.04 0.41,1.08 -0.68,2.47 -1.77,3.84 -0.96,2.44 -0.16,1.06 -0.87,1.79 -1.6,2.53 -0.78,1.87 0.04,1.21 0.54,0.71 1.04,0.19 0.72,0.4 0.38,0.59 0.01,0.56 -0.36,0.5 -0.1,0.52 0.15,0.54 -0.12,0.96 -0.6,1.96 0.01,0.07 0,3.18 0.01,2.88 0,2.88 0,2.86 0.01,2.85 0,2.84 0.01,2.84 0,2.82 -3.51,0 -3.51,0 -3.51,0 -3.52,0 -3.51,0 -3.51,0 -3.51,0 -3.51,0 -2.48,0 -2.49,0 -2.48,0 -2.48,0 -2.48,0 -2.48,0 -2.48,0 -2.49,0 -2.48,0 -2.48,0 -2.48,0 -2.48,0 -2.49,0 -2.48,0 -2.48,0 -2.57,-0.01 -1.19,-1.54 -0.52,-2.3 -0.1,-0.97 0.14,-2.58 -0.36,-1.1 -0.9,-1.82 0.39,-1.59 0.41,-0.97 1.02,-4.23 0.24,-0.34 0.43,0.01 0.74,-0.73 -0.34,-0.16 -0.52,0.34 0.46,-1.68 0.52,-1.45 0.33,-0.52 0.17,-4.74 0.3,-3.63 0.49,-1.21 -0.17,-1.24 0.19,-1.69 -0.14,-1.71 1.05,-8.28 -0.14,-1.01 0.32,-1.35 -0.3,-3.57 0.13,-4.02 -0.26,-0.51 -0.14,-0.56 0.25,-0.08 0.48,0.59 2.24,-0.01 1.44,-0.54 0.52,0.18 0.6,0.73 0.76,0.15 z" 
                fill="rgb(151, 144, 238)" 
                stroke="white" 
                stroke-width=".7px"
                title="Oregon" 
                id="US-OR" 
            />
        </svg>