<svg xmlns="http://www.w3.org/2000/svg" viewBox="1001.4643999999998 538.74606 5.75 8.629999999999995" width="5.75" height="8.629999999999995">
            <path 
                d="m 1007.1944,542.67606 -0.35,0.32 -0.37,-0.49 -0.19,-0.53 -0.27,-0.3 -0.29,-0.11 0.25,1.16 -0.59,0.87 -0.16,2.25 -0.75,0.93 -2.32,0.6 -0.69,-0.06 0.12,-0.72 0.24,-0.3 0.05,-0.78 0.03,-0.51 -0.01,-0.86 -0.01,-0.99 -0.01,-1.08 -0.01,-0.95 -0.01,-0.69 -0.01,-0.95 0,-0.68 0.71,-0.01 0.97,-0.01 0.93,-0.02 0.58,-0.01 0.71,-0.01 0.03,0.57 0.04,0.87 0.39,0.14 -0.02,0.71 -0.01,0.47 0.34,0.29 0.35,0.3 0.33,0.58 z m -0.07,2.69 -0.47,0.34 -0.52,-0.06 0.26,-0.46 0.1,-0.68 0.26,-0.75 0.15,-0.23 0.31,-0.2 -0.09,2.04 z m -1.17,0.08 -0.26,0.23 -0.1,-0.61 0.18,-0.7 0.19,-0.02 0.09,0.37 -0.1,0.73 z" 
                fill="rgb(151, 144, 238)" 
                stroke="white" 
                stroke-width=".7px"
                title="Rhode Island" 
                id="US-RI" 
            />
        </svg>