<svg xmlns="http://www.w3.org/2000/svg" viewBox="893.0844400000003 620.5360599999995 45.09999999999968 35.81000000000017" width="45.09999999999968" height="35.81000000000017">
            <path 
                d="m 938.18444,635.71606 -0.12,0.04 -2.49,1.68 -0.74,0.74 -2.05,2.84 -0.52,1.81 -0.42,-0.76 0.1,-0.57 0.01,-0.47 -0.52,1 0.49,1.46 -0.44,0.56 -1.35,1.04 -0.74,0.17 -0.84,0.29 -0.26,1.03 -1.13,0.94 -0.66,0.42 -1.2,-0.26 0.37,0.91 -0.44,0.68 -0.77,0.53 -0.95,0.34 -0.54,-0.04 -0.46,0.18 -0.37,0.44 -0.89,0.41 -0.92,-0.23 -1.05,-0.14 -0.58,0.24 0.98,0.41 0.52,0.58 -0.1,0.79 -0.27,0.3 -0.62,0.41 -0.27,-0.06 -0.16,-0.37 -0.2,-0.77 -0.29,0.16 -0.05,0.36 -0.25,0.13 -0.88,-1.23 0.05,0.94 0.3,0.72 0.3,0.37 0.3,0.21 0.07,0.34 -0.6,0.81 -0.31,0.18 -0.55,0.13 -0.31,0.5 0.1,0.44 -1.91,-0.89 -0.57,-0.8 0.02,-1.03 -0.36,-1.17 -1.12,-1.96 -0.81,-0.56 -0.54,-1.34 -0.53,-2.32 -0.83,-1.48 -1.14,-0.65 -0.76,-0.77 -0.39,-0.88 -0.4,-0.58 -0.42,-0.27 -0.23,-0.45 -0.03,-0.65 -0.65,-0.85 -1.91,-1.58 -0.45,-0.96 -0.9,-1 -2.24,-2.03 0,0 -2.15,-3.95 -0.01,0 -0.27,-0.8 -0.46,-0.33 -0.74,-0.12 -0.73,-0.39 -1.06,-1 -0.01,-0.01 -1.78,-1.24 0.37,-1.11 1.37,-1.46 0.46,-0.77 0.07,-0.01 0.17,0 1.5,-0.49 1.5,-0.48 0.32,0.02 0.87,-0.5 1.76,-0.57 0.68,-0.38 0.34,0.11 1.49,0.06 1.5,0.07 1.49,0.06 1.49,0.07 1.49,0.07 1.5,0.06 1.49,0.07 1.49,0.06 0.29,0.12 0.09,0.17 -0.04,0.48 0.06,0.27 1.05,-0.55 0.49,0.63 0.83,1.09 0.04,0.64 0.05,0.9 1.33,0.04 1.33,0.05 1.33,0.04 1.33,0.05 1.33,0.04 1.33,0.05 1.33,0.04 1.33,0.05 1.27,1.3 1.27,1.3 1.27,1.3 1.27,1.29 1.27,1.3 1.28,1.29 1.27,1.29 z" 
                fill="rgb(151, 144, 238)" 
                stroke="white" 
                stroke-width=".7px"
                title="South Carolina" 
                id="US-SC" 
            />
        </svg>