<svg xmlns="http://www.w3.org/2000/svg" viewBox="604.2144399999996 538.96606 47.03000000000054 60.80000000000007" width="47.03000000000054" height="60.80000000000007">
            <path 
                d="m 632.37444,538.96606 0.01,1.58 0,1.57 0,1.57 0,1.57 0,1.56 0,1.56 0,1.56 0,1.56 2.35,0 2.36,0 2.36,0 2.36,0 2.36,0 2.35,0 2.36,0 2.36,0 0,3.1 0,3.08 0,3.08 0,3.07 0,3.05 0,3.05 0,3.03 0,3.02 0,3.01 0,3 0,2.99 0,2.98 0,2.97 0,2.96 0,2.95 0,2.93 -2.94,0 -2.94,0 -2.94,0 -2.94,-0.01 -2.93,0 -2.94,0 -2.94,0 -2.94,0 -2.94,-0.01 -2.93,0 -2.94,0 -2.94,0 -2.94,-0.01 -2.94,0 -2.93,0 -2.94,0 0,-1.84 0,-1.84 0,-1.84 0,-1.85 0,-1.85 -0.01,-1.85 0,-1.86 0,-1.86 0,-1.87 0,-1.87 0,-1.87 0,-1.88 0,-1.88 0,-1.89 0,-1.89 0,-1.9 0,-1.89 0,-1.91 0,-1.91 -0.01,-1.91 0,-1.92 0,-1.92 0,-1.93 0,-1.93 0,-1.93 0,-1.94 0,-1.95 0,-1.95 0,-1.95 0,-1.96 0,-1.96 0,-1.97 1.76,0 1.76,0 1.76,0 1.76,0 1.76,0 1.76,0 1.76,0 1.76,0 1.76,0 1.76,0 1.76,0 1.76,0 1.76,0 1.76,0 1.76,0 z" 
                fill="rgb(151, 144, 238)" 
                stroke="white" 
                stroke-width=".7px"
                title="Utah" 
                id="US-UT" 
            />
        </svg>