<svg xmlns="http://www.w3.org/2000/svg" viewBox="986.5544400000002 500.0760600000004 18.039960000000065 29.629999999999598" width="18.039960000000065" height="29.629999999999598">
            <path 
                d="m 995.58444,529.70606 -0.92,-0.03 -0.93,-0.04 -0.92,-0.03 -0.93,-0.04 -0.93,-0.03 -0.92,-0.04 -0.93,-0.03 -0.92,-0.04 -0.25,-0.77 0.12,-0.66 0.02,-0.91 0.03,-1.17 0.02,-1.3 0.04,-1.77 0.02,-1.18 0.03,-1.07 0.03,-1.46 -0.56,-0.82 -0.23,-0.14 -0.18,0.09 -0.39,0.54 -0.13,-0.01 -0.1,-0.14 0.02,-0.49 0.35,-1.74 0.01,-0.55 -0.07,-0.93 -0.4,-2.12 -0.01,-0.48 0.16,-0.73 0.27,-0.74 0.46,-0.75 0.1,-0.31 -0.03,-1.3 0.14,-1.21 -0.59,-1.81 0.22,-2.35 -0.16,-1.12 0.19,-1.04 -0.06,-0.88 1.6,-0.01 3.92,0 3.91,-0.01 3.91996,-0.01 3.92,0 -0.15,0.26 0.22,1.05 -1.04,1.81 0.02,0.58 0.47,1.59 -0.03,0.37 -0.15,0.18 -0.21,0.68 -0.27,0.42 -0.42,0.42 -1.34,1 -0.4,0.25 -1.25996,0.33 -0.28,0.38 -0.29,2.41 -0.41,1.35 -0.09,0.62 -0.55,1.06 -0.46,1.21 -0.7,0.99 -0.38,1.2 -0.24,0.46 -0.21,0.75 -0.21,2.54 -0.29,1.39 -0.33,2.39 -0.22,0.6 -0.21,0.32 -0.29,1.03 -0.03,0.38 0.13,0.34 0.52,0.82 z" 
                fill="rgb(151, 144, 238)" 
                stroke="white" 
                stroke-width=".7px"
                title="Vermont" 
                id="US-VT" 
            />
        </svg>