<svg xmlns="http://www.w3.org/2000/svg" viewBox="890.0444400000006 570.5460600000001 79.56999999999937 34.48999999999944" width="79.56999999999937" height="34.48999999999944">
            <path 
                d="m 946.07444,571.79606 0.54,0.45 1.27,0.53 0.52,0.54 -0.23,0.55 -0.03,0.4 0.24,0.36 1.69,0.72 1.04,1.02 0.64,0.31 0.19,0.09 0.46,0.25 0.21,0.31 -0.14,1.37 -0.44,0.68 -0.69,0.52 -0.9,0.92 -0.22,0.85 -0.28,1.59 0.38,0.54 0.39,0.14 1.15,-0.36 0.59,0.16 1.32,1.91 2.46,0.75 0.9,0.47 0.73,0.99 1.1,0.57 0.85,0.83 0.02,0.54 -0.3,0.64 -0.12,0.86 -0.36,0.54 -0.87,0.06 -0.53,-0.14 -2.83,-3.04 -0.34,-0.28 -1.05,-1.59 -1.23,-0.86 -0.38,0.02 1.75,1.58 0.71,1.1 1.26,1.54 0.9,0.65 0.66,1.02 0.62,0.48 1.68,0.68 -0.58,0.49 0.93,0.42 0.13,0.76 -0.09,0.87 -1.29,-0.34 -0.04,0.64 0.12,0.38 -0.57,0.31 -0.79,-0.42 -2.06,-2.31 0.02,0.31 0.17,0.36 1.2,1.49 1.07,0.89 0.91,0.4 0.7,0.75 0.25,0.45 0.16,0.68 -0.52,0.46 -0.59,0.26 -0.58,-0.46 -0.42,-0.49 -0.9,-0.83 -0.27,-0.93 -0.68,0.05 -2.86,-1.18 -2.3,-0.14 0.22,0.24 0.29,0.16 1.83,0.29 0.72,0.54 1.5,0.48 0.88,0.13 0.36,1.47 1.22,1.01 0.16,0.75 0.83,0.08 1.46,-0.74 0.94,0.26 1.36,0.21 0.31,0.59 0.23,1.13 0.48,1.27 0.31,1.24 -0.3,0 -0.73,-0.01 -2.34,-0.02 -3.41,-0.03 -3.41,-0.03 -3.41,-0.03 -3.41,-0.03 -3.41,-0.03 -3.41,-0.03 -3.41,-0.03 -3.41,-0.03 -3.41,-0.03 -3.41,-0.03 -3.41,-0.03 -3.41,-0.03 -3.41,-0.03 -3.41,-0.03 -3.41,-0.03 -0.16,-0.18 -1.34,-0.05 -0.98,-0.04 -0.44,0.24 -1.97,-0.01 -1.57,-0.01 -2.66,-0.01 -3.24,-0.02 -4.57,-0.02 -2.13,-0.01 0.95,-0.56 1.41,-0.33 2.51,-0.95 1,-0.97 1.41,-0.71 0.59,-0.85 0.94,-0.81 0.35,-0.92 0.13,-0.14 1.55,-0.83 1.63,-1.04 3.56,-2.87 0.07,0.38 -0.13,0.41 0.3,0.48 0.25,0.75 0.35,0.46 0.44,0.37 0.73,0.33 0.86,0.58 0.68,0.16 0.23,-0.02 0.75,-0.56 0.62,-0.3 0.65,-0.61 1.16,0.83 0.46,0 1.14,-0.36 1.07,-0.1 0.27,-0.11 0.4,-0.34 0.01,-0.69 0.09,-0.18 0.18,-0.08 0.21,-0.02 0.48,0.25 0.47,0.01 2,-0.8 0.15,0.06 0.25,0.37 0.88,-0.47 0.52,-0.44 0.23,-0.66 0.43,-0.65 -0.09,-0.29 -0.28,-0.38 0.37,-0.88 0.54,-0.87 2.04,-2.64 0.65,-1.6 0.85,-1.03 0.28,-0.82 0.64,-0.81 0.44,-1.68 0.27,-0.34 0.39,-0.06 0.4,0.21 0.29,0.31 0.19,0.5 1.03,0.44 0.86,0.05 0.6,-0.32 0.35,-0.59 0.47,-1.11 0.45,-0.66 0.29,-0.83 0.3,-0.57 0.46,-0.36 1.16,0.02 0.6,-0.51 0.46,-0.58 0.28,-0.19 0.33,0.03 1.05,-0.93 1.38,-1.95 0.3,-1.23 0.36,-0.89 0.14,-0.91 0.27,-0.5 1.22,0.99 0.7,0.57 1.6,1.3 1.06,0.86 0.42,-0.99 0.68,-1.48 z m 23.29,15.72 0.25,-0.03 0,0 -1.01,1.81 -0.43,0.19 1.19,-1.97 z m -3.83,1 0.37,-0.54 1.42,-0.19 0.88,-0.12 -2.08,4.67 0.09,0.86 -0.42,0.28 -0.63,0.22 -0.64,0.51 -0.42,0.56 -0.39,1.52 -0.76,1.7 -0.47,-0.71 -0.12,-0.61 0.21,-1.59 0.82,-2.61 0.9,-1.63 0.69,-0.77 0.55,-1.55 z" 
                fill="rgb(151, 144, 238)" 
                stroke="white" 
                stroke-width=".7px"
                title="Virginia" 
                id="US-VA" 
            />
        </svg>