<svg xmlns="http://www.w3.org/2000/svg" viewBox="503.7544399999998 445.19606000000005 73.59000000000037 47.10000000000002" width="73.59000000000037" height="47.10000000000002">
            <path 
                d="m 577.34444,486.75606 -2.33,0 -2.5,0 -2.5,0 -2.5,0 -2.5,0 -2.5,0 -2.5,0 -2.5,0 -0.16,0 -0.28,0.25 -1.2,0.49 -2.37,0.15 -4.76,1.3 -2.09,1.02 -1.84,0.5 -3.43,0.48 -3.1,0.68 -1.31,-0.06 -0.55,-0.58 -1.5,-0.33 -2.45,-0.08 -2.07,0.39 -1.91,1.17 -0.61,0.12 0,0 -0.5,0.04 -3.37,-0.46 -0.84,-0.03 -0.72,-0.62 -0.19,-1.02 -0.91,-3.08 -0.93,-1.85 -0.94,-0.61 -0.74,-0.25 -0.94,0.34 -0.29,-0.19 -0.45,-0.05 -1,-0.68 -0.57,-0.68 -1.75,0.05 -0.36,-0.44 -1.95,0.44 -0.6,-0.45 -1.06,0.29 0.26,-1.27 -0.05,-1.6 0.05,-1.56 0.26,1.14 0.66,1.21 0.32,-1.37 0.22,-1.73 -0.65,-0.67 -1.07,-0.49 -0.38,-1.62 2.54,-1.38 -1.35,-0.29 -0.53,-0.62 -0.65,-0.08 -0.05,0.48 -0.21,0.63 -0.23,-0.83 -0.07,-0.98 -0.27,-1.68 -1.04,-2.71 -0.63,-3.53 -0.79,-1.75 -1.52,-1.68 -0.4,-0.98 -0.36,-2.49 0.2,-1.89 -0.28,-1.33 0.73,0.08 1.92,1.05 2.39,0.82 0.72,0.6 1.16,0.44 6.41,0.69 0.42,-0.07 0.83,-0.43 0.35,0.05 0.94,0.97 0.47,0.12 0.61,-0.05 0.45,-0.19 0.77,-0.67 0.1,0.25 -0.01,0.62 0.28,0.88 0.57,1.14 0.21,0.71 -1.15,1.99 -0.22,0.04 -0.03,-0.67 -0.15,-0.13 -2.16,3.36 -0.76,1.59 -0.08,0.72 0.03,0.42 0.3,0.1 0.69,-0.16 1.02,-0.66 0.05,-0.14 -0.95,0.23 -0.46,0.02 0.06,-0.75 0.11,-0.36 0.62,-1.11 0.65,-0.67 0.93,-0.71 0.54,-0.59 0.37,-0.86 1.03,-1.03 0.19,-0.29 -0.04,-0.85 0.07,-0.16 0.5,0.11 0.21,1.45 -0.12,0.65 -0.89,0.79 -0.11,0.28 0.16,1.08 -0.14,0.1 -0.34,-0.13 -0.11,0.07 0.84,1.17 0.27,0.91 0.04,0.81 -0.23,1.55 -0.25,0.26 -0.42,-0.09 -0.56,-0.48 -0.12,0.16 -0.44,1.2 -0.15,-0.11 -0.28,-1.42 -0.15,-0.11 -0.86,0.65 -0.34,0.62 -0.3,0.99 -0.38,0.46 1.07,0.1 0.96,-0.2 0.77,0.47 0.26,0.01 0.71,-0.46 0.22,-0.31 0.58,-1.5 0.29,-0.27 0.44,-0.01 0.42,-0.23 0.62,-0.82 0.02,-0.33 -0.23,-1.85 0.07,-1.05 -0.12,-0.33 -0.28,-0.35 0.04,-0.34 0.22,-0.55 0.02,-0.5 -0.19,-0.45 0.08,-0.51 0.59,-1.09 0.11,-0.48 0.72,-1.09 -0.18,-0.44 -0.53,-0.54 -0.33,-0.47 -0.34,-0.74 -0.26,-0.25 -0.08,0.11 0.36,1.21 -0.08,0.08 -0.93,-0.65 -0.22,-0.41 -0.11,-0.56 0.08,-0.42 0.5,-0.41 0.6,-0.15 -0.05,-0.35 -0.75,-1.13 -0.5,-0.52 -0.39,-0.25 -0.52,-0.07 -0.23,-0.19 -0.06,-0.27 0.11,-0.35 0.28,-0.11 0.8,0.14 0.43,-0.25 -0.04,-0.45 -0.13,-0.25 0.02,-1.62 -0.31,-1.32 -0.16,-0.22 -0.17,-0.02 -0.18,0.18 -0.5,0.05 -0.31,-0.43 -0.34,-0.84 -0.62,-2 0.96,0 4.01,0 4.01,0 4.01,0 4.01,0 4.01,0 4.01,0 4.01,0 4.01,0 4.01,0 4.01,0 4.01,0 4.01,0 4.01,0 0.98,0 0.02,2.28 0.01,2.28 0.01,2.28 0.01,2.27 0.01,2.26 0.01,2.25 0.01,2.25 0.01,2.24 0.01,2.23 0.01,2.23 0.01,2.22 0.01,2.21 0.01,2.21 0.01,2.2 0.01,2.19 0.01,2.19 -0.07,0.13 -0.06,0.32 0.27,0.91 0.63,1.32 0.2,0.93 -0.24,0.53 0.17,0.92 0.39,0.71 z m -55.4,-36.99 0.13,0.31 -0.38,0.3 -0.27,0.05 -0.43,-0.48 -0.19,-0.06 0.15,0.74 -0.05,0.25 -0.88,-0.46 -0.16,-0.36 0.25,-0.38 0.55,-0.4 0.19,-0.05 1.09,0.54 z m -2.18,2.44 0.25,0.46 -1.01,-0.3 -0.43,-0.27 -0.13,-0.26 -0.15,-0.86 0.07,-0.28 0.45,-0.1 0.85,1.06 0.1,0.55 z m 1.81,0.98 -0.15,0.14 -0.5,-0.19 -0.3,-0.32 -0.1,-0.39 0.19,-0.75 0.25,-0.19 0.16,0.04 0.07,0.66 0.45,0.7 -0.07,0.3 z m 2.34,3.88 0.46,1.84 0.2,-0.77 1.28,1.33 0,0.65 -0.16,0.22 -0.27,0.08 -0.25,-0.19 -0.23,-0.46 -0.29,-0.24 -0.61,-0.16 -0.32,-0.52 -0.11,-0.36 -0.03,-1.03 -0.15,-0.32 -0.33,-0.07 -0.31,-0.25 -0.48,-0.72 -0.07,-0.19 0.23,-0.59 0.52,-0.99 0.38,-0.47 0.24,0.05 0.29,0.3 0.35,0.54 -0.06,0.38 -1.41,0.75 -0.05,0.17 0.68,0.21 0.25,0.19 0.25,0.62 z m 0.71,7.86 -0.05,0.27 -0.52,-0.32 -0.17,-0.29 0.02,-0.66 0.13,-0.43 0.1,-0.09 0.31,0.19 0.09,0.11 0.09,1.22 z m 0.97,2.77 -0.04,0.32 -0.36,0.25 -0.19,-0.06 -0.01,-0.37 -0.1,-0.06 -0.39,0.45 0.03,-0.88 0.19,-0.93 0.17,-0.02 0.25,0.61 0.45,0.69 z m -4.32,2.64 -0.09,0.27 -0.13,-0.01 -0.29,-0.55 -0.04,-0.39 0.25,-0.28 0.34,0.81 -0.04,0.15 z" 
                fill="rgb(151, 144, 238)" 
                stroke="white" 
                stroke-width=".7px"
                title="Washington" 
                id="US-WA" 
            />
        </svg>