<svg xmlns="http://www.w3.org/2000/svg" viewBox="900.0144399999998 555.8760600000004 46.059999999999945 41.45999999999981" width="46.059999999999945" height="41.45999999999981">
            <path 
                d="m 929.59444,567.21606 -0.03,1.56 -0.02,1.56 -0.03,1.55 -0.02,1.55 1.2,-0.9 0.63,-0.32 2.05,-1.99 0.27,-0.01 0.71,0.28 1.47,-1.42 0.18,-0.51 0.17,-0.17 0.19,0.02 0.11,0.13 -0.07,0.3 0.11,0.14 0.61,0.34 0.84,0.19 0.12,0.02 0.75,-0.01 0.33,-0.28 0.17,-0.55 0.34,-0.32 0.76,-0.14 1.36,-0.56 0.78,0.09 0.67,0.57 0.67,0.27 0.68,-0.02 0.27,0.13 -0.16,0.29 0.18,0.34 0.51,0.38 0.18,0.35 -0.17,0.32 0.06,0.24 0.27,0.16 0.17,0.35 0.05,0.55 0.12,0.1 -0.61,1.45 -0.42,0.99 -1.06,-0.86 -1.6,-1.3 -0.7,-0.57 -1.22,-0.99 -0.27,0.5 -0.14,0.91 -0.36,0.89 -0.29,1.23 -1.38,1.95 -1.05,0.93 -0.32,-0.02 -0.28,0.19 -0.46,0.58 -0.59,0.5 -1.16,-0.02 -0.47,0.36 -0.3,0.58 -0.29,0.83 -0.45,0.65 -0.48,1.11 -0.35,0.59 -0.6,0.32 -0.87,-0.05 -1.02,-0.45 -0.19,-0.5 -0.29,-0.31 -0.4,-0.21 -0.39,0.05 -0.27,0.34 -0.44,1.68 -0.64,0.81 -0.28,0.83 -0.85,1.03 -0.65,1.6 -2.03,2.64 -0.55,0.87 -0.37,0.87 0.28,0.38 0.09,0.29 -0.43,0.65 -0.23,0.66 -0.52,0.44 -0.87,0.47 -0.26,-0.37 -0.15,-0.06 -2,0.81 -0.47,-0.01 -0.48,-0.26 -0.21,0.02 -0.18,0.09 -0.09,0.17 -0.01,0.7 -0.4,0.34 -0.27,0.11 -1.07,0.1 -1.13,0.36 -0.46,0 -1.16,-0.83 -0.65,0.61 -0.63,0.29 -0.74,0.56 -0.23,0.02 -0.68,-0.16 -0.86,-0.58 -0.72,-0.33 -0.44,-0.36 -0.35,-0.47 -0.25,-0.75 -0.3,-0.47 0.13,-0.41 -0.07,-0.38 -1.3,-0.37 -1.67,-1.38 -1.07,-1.67 -0.34,-0.78 -0.39,-0.53 -0.1,-0.53 -1,-1.39 -0.27,-0.6 -0.02,-0.38 0.32,-0.72 0.07,-0.35 -0.11,-1.78 -0.22,-0.33 1.09,0.4 1.04,-0.23 0.65,-0.55 0.25,-0.86 0.37,-0.51 0.46,-0.14 0.22,-0.38 -0.08,-0.93 -0.14,-0.64 0.37,-0.92 0.86,-1.42 0.67,-0.58 0.48,0.26 0.3,0.44 0.1,0.63 0.1,0.08 0.14,-0.01 0.36,-0.48 0.33,-0.19 0.13,0.05 0.14,-0.01 0.02,-0.31 -0.25,-0.86 0.02,-0.51 0.3,-0.15 0.32,-0.58 0.34,-1 0.41,-0.52 0.48,-0.02 0.51,-0.41 0.56,-0.8 0.5,-0.23 0.44,0.34 0.56,0.02 0.66,-0.29 1.16,-0.84 1.66,-1.4 0.84,-1.13 0.02,-0.87 0.64,-2.12 1.28,-3.38 0.62,-2.2 -0.02,-1 -0.18,-0.82 -0.34,-0.63 0.21,-0.5 1.11,-0.54 -0.01,1.42 0,1.42 0,1.43 0,1.42 0,1.42 0.01,1.41 0,1.42 0,1.41 1.22,0 1.23,0 1.23,0 1.22,0 1.23,0 1.22,0 1.23,0 z" 
                fill="rgb(151, 144, 238)" 
                stroke="white" 
                stroke-width=".7px"
                title="West Virginia" 
                id="US-WV" 
            />
        </svg>