<svg xmlns="http://www.w3.org/2000/svg" viewBox="632.3644399999991 500.1560599999999 66.18000000000075 51.34000000000003" width="66.18000000000075" height="51.34000000000003">
            <path 
                d="m 698.47444,526.24606 0.01,3.2 0.01,3.18 0.01,3.18 0.01,3.16 0,3.15 0.01,3.14 0.01,3.12 0.01,3.12 -2.96,0 -2.95,0 -2.96,0 -2.96,0 -2.95,0 -2.96,0 -2.95,0 -2.96,0 -2.96,0 -2.95,0 -2.96,0 -2.96,0 -2.95,0 -2.96,0 -2.96,0 -2.95,0 -2.36,0 -2.36,0 -2.35,0 -2.36,0 -2.36,0 -2.36,0 -2.36,0 -2.35,0 0,-1.56 0,-1.56 0,-1.56 0,-1.56 0,-1.57 0,-1.57 0,-1.57 -0.01,-1.58 0,-1.97 0,-1.98 0,-1.98 0,-1.99 0,-1.99 0,-2 0,-2 0,-2.01 0,-2.01 0,-2.02 0,-2.02 0,-2.03 0,-2.04 0,-2.04 -0.01,-2.04 0,-2.05 0.01,-1.66 0,-1.65 0,-1.66 0,-1.67 2.06,0 2.07,0 2.06,0 2.06,0 2.07,0 2.06,0 2.06,0 2.07,0 2.06,0 2.06,0 2.06,0 2.07,0 2.06,0 2.06,0 2.07,0 2.06,0 2.06,0 2.07,0 2.06,0 2.06,0 2.07,0 2.06,0 2.06,0 2.07,0 2.06,0 2.06,0 2.07,0 2.06,0 2.06,0 2.07,0 2.06,0 2.06,0 0.01,3.31 0.01,3.3 0.01,3.28 0.01,3.26 0.01,3.26 0.01,3.24 0.01,3.22 z" 
                fill="rgb(151, 144, 238)" 
                stroke="white" 
                stroke-width=".7px"
                title="Wyoming" 
                id="US-WY" 
            />
        </svg>