<svg xmlns="http://www.w3.org/2000/svg" viewBox="316.2899300000001 135.05888999999993 25.69999999999999 41.7000000000001" width="25.69999999999999" height="41.7000000000001">
            <path 
                d="m 323.48993,155.40889 -0.69,-2.75 -1.39,-1.62 0.51,-0.81 0.74,0.23 0.6,0.89 0.19,-1.14 -0.26,-0.41 0.4,-0.61 0.19,-1.4 -0.34,-1.41 -1.07,-0.44 -0.45,0.43 -0.54,0.81 -0.61,2.06 0.54,0.42 -0.08,1.26 -0.75,-0.29 -0.89,0.15 -0.19,0.25 0.17,0.85 -2.1,-0.09 -0.96,-1.84 -0.22,-1.3 0.14,-0.73 1.93,1.32 0.67,-0.21 1.48,-1.46 0.87,-1.57 0.8,-2.39 0.6,-3 0.03,-1.67 -1.72,-1.81 0,0 0.51,-0.11 1.13,0.35 0.26,-0.87 0.77,-0.35 0.54,0.32 0.21,0.49 1.48,-0.13 0.81,0.28 1.35,-0.38 0.86,0.18 0.5,-1 1.31,-0.11 0.27,0.84 0.8,0 1.15,1.19 1,-0.84 1.25,0.84 0.79,-0.63 0.76,-0.05 0.72,-0.62 0.71,0.1 0.24,-1.08 1.23,-0.49 -0.16,2.35 2.13,-0.23 0.28,1.84 -0.41,0.27 -0.5,1.22 0.14,1.31 0,0 -0.4,0.57 -0.61,0.22 -0.81,1.11 0.4,0.49 -0.15,1.56 -0.52,0.46 -0.05,2.68 0.62,2.5 -0.56,0.18 -0.49,-0.48 -0.82,0.45 0.07,1.06 1.12,0.66 -0.82,1.47 -0.39,0.14 0.66,1.17 0.13,1.08 -0.51,1.19 -0.27,-0.03 -0.61,0.86 -0.42,0.11 0.21,0.72 -0.43,1.34 -0.78,0.85 0.05,0.81 -0.45,0.12 -0.05,0.65 0.39,0.09 0.6,1.25 -0.15,0.92 0.53,0.75 1.12,0.77 -0.33,1.06 0.85,0.44 -0.6,0.3 -0.47,0.83 0.27,0.22 -0.28,0.97 0.97,0.38 0.14,0.4 -0.79,1.37 0.08,1.15 0,0 -0.71,0.17 -1.64,1.57 -1.76,0.36 -0.27,-0.18 0,0 -0.24,-0.45 -1.52,-0.53 -0.58,-1.8 -1.06,-0.08 -0.35,-0.77 -1.08,0.27 -3.08,-0.94 -0.79,-0.7 -0.71,-0.18 -0.2,-1.17 -0.98,0.24 -0.37,0.46 -2.51,-0.41 0,0 0.68,-1.47 -0.23,-0.93 0.39,-0.78 -0.04,-0.53 0.39,-0.61 0.7,-0.11 0.94,-2.39 0.8,-4.19 0.04,-4.1 z" 
                fill="rgb(151, 144, 238)" 
                stroke="white" 
                stroke-width=".7px"
                title="Akita" 
                id="JP-05" 
            />
        </svg>