<svg xmlns="http://www.w3.org/2000/svg" viewBox="319.59993000000003 108.04889000000001 35.9199999999999 34.47000000000001" width="35.9199999999999" height="34.47000000000001">
            <path 
                d="m 344.61993,125.64889 0.92,-0.83 0.58,-1.05 0.57,-1.85 0.23,-2.45 0.59,-1.14 -0.72,-2.06 -0.86,-1.04 -0.79,-0.08 -0.85,1.61 -1.13,0.81 -1.52,-0.42 -0.67,0.65 -1.81,0.34 -0.85,0.87 -0.93,-0.47 0.69,-4.59 0.42,-0.66 0.31,-1.84 1.43,-2.03 -0.22,-0.82 0.3,-0.55 1.72,1.57 1.32,0.11 0.89,0.5 1.57,1.97 1.46,0.85 0.89,0.11 1,-0.37 2.04,-1.67 -1.49,6.85 -0.1,5.09 0.55,5.55 1.37,4.86 1.18,1.09 0.67,-0.39 0.23,0.55 1.91,1.89 0,0 -0.47,0.54 -1.39,0.62 -0.11,0.83 -0.89,0.69 -1.24,-0.77 -0.68,0.09 -1.72,1.1 -0.68,-1.08 -1.96,1.49 -1.52,0.38 -0.74,0.5 -0.04,0.72 -0.46,0.02 -1,0.78 -0.94,-0.01 -0.46,-0.68 0,0 -0.14,-1.31 0.5,-1.22 0.41,-0.27 -0.28,-1.84 -2.13,0.23 0.16,-2.35 -1.23,0.49 -0.24,1.08 -0.71,-0.1 -0.72,0.62 -0.76,0.05 -0.79,0.63 -1.25,-0.84 -1,0.84 -1.15,-1.19 -0.8,0 -0.27,-0.84 -1.31,0.11 -0.5,1 -0.86,-0.18 -1.35,0.38 -0.81,-0.28 -1.48,0.13 -0.21,-0.49 -0.54,-0.32 -0.77,0.35 -0.26,0.87 -1.13,-0.35 -0.51,0.11 0,0 0.26,-1.78 -0.19,-1.44 -0.45,-0.86 -0.96,0.05 -0.15,-0.82 1.78,-1.42 1.02,-1.8 0.65,-0.44 0.61,-0.25 1.23,0.69 1.43,-1.07 0.81,-0.1 0.42,-0.61 1.02,-3.61 0.07,-3.8 -0.69,-0.75 -0.7,-0.08 0.17,-0.39 0.88,0.23 0.38,-0.43 0.4,-2.95 1.09,0.69 0.67,0.99 0.64,0.36 0.67,-0.19 1,-1.01 1.09,0.38 0.65,0.72 -0.11,2.27 0.39,2.52 0.73,3.28 0.93,1.19 1.33,-0.11 1.19,-1.28 0.22,-0.56 -0.22,-1.24 0.33,-1.45 1.49,0.54 0.68,0.96 -0.18,0.55 0.73,-0.01 0.92,0.45 0.53,0.88 0.77,0.21 z" 
                fill="rgb(151, 144, 238)" 
                stroke="white" 
                stroke-width=".7px"
                title="Aomori" 
                id="JP-02" 
            />
        </svg>