<svg xmlns="http://www.w3.org/2000/svg" viewBox="317.4499299999999 245.55889 22.010000000000048 28.810000000000088" width="22.010000000000048" height="28.810000000000088">
            <path 
                d="m 319.14993,263.11889 0.14,-0.21 0.96,0.42 0.39,-0.47 -0.3,-0.72 0.09,-0.58 1.35,-0.38 -0.12,-0.51 0.28,-0.13 0.24,0.38 1.51,-2.16 0.57,0.45 0.23,-0.35 -0.54,-1.29 -0.76,-0.83 -1.21,-1.19 -0.69,0.29 -0.35,-0.76 0,0 -1.08,-2.26 0,0 0.34,-0.26 0.22,-1.33 -1.68,-3.22 -0.05,-1.04 -0.71,-1.41 0,0 0.42,0.03 0.33,0.84 1.63,2.01 0.72,0.24 0.2,0.71 1.04,0.7 2.46,0.86 0.58,0.72 1.02,-0.41 0.86,0.11 0.59,-0.4 0.8,0.23 0.86,-0.82 2.01,-0.52 1.08,0.52 0.91,-0.04 1.13,0.97 1.23,0.26 1.11,1.53 2.5,1.54 0,0 -0.11,0.65 -0.76,-0.51 -1.5,0.5 -0.8,-0.22 -0.75,0.19 -2.72,2.07 -1.39,1.57 -1.12,2.16 -0.29,2.32 0.47,1.23 -0.61,2.85 -0.67,0.14 -0.47,1.02 -0.28,0.1 -2.15,0.62 -0.23,-0.44 -1.28,0.19 -0.81,1.1 -1.97,1.36 -0.51,1.21 0.1,0.58 -0.45,0.61 -1.04,0.43 -1.17,-0.21 -0.19,-0.72 -1.31,-0.67 0.03,-0.29 0.8,0.11 1.25,-0.56 -0.78,-1.66 0.46,-0.5 -0.36,-0.36 0.29,-0.7 -0.41,-0.57 0.01,-0.83 0.92,-0.71 0.08,-0.52 -0.44,-0.75 0.06,-0.39 -0.75,-0.46 0.54,-1.46 z" 
                fill="rgb(151, 144, 238)" 
                stroke="white" 
                stroke-width=".7px"
                title="Chiba" 
                id="JP-12" 
            />
        </svg>