<svg xmlns="http://www.w3.org/2000/svg" viewBox="232.68992999999998 240.64889000000005 27.24999999999997 23.090000000000146" width="27.24999999999997" height="23.090000000000146">
            <path 
                d="m 238.25993,258.18889 1.16,0.72 0.07,0.38 0.31,-0.04 0.42,-0.26 -0.65,-0.81 0.2,-0.13 0.54,0.36 0.37,-0.65 -0.58,-0.45 -0.25,-0.84 0.59,0.15 0.43,0.69 0.76,-0.4 0.15,0.35 1.22,-0.36 0.23,-0.43 -0.25,-0.32 0.06,-0.95 -0.43,-0.68 1.24,-0.99 0.39,0.6 -0.23,1.43 0.36,0.54 0.6,-0.11 0.48,-1.52 0.02,-1.28 -0.57,-1.13 -1.52,-1.52 0.08,-1.1 -0.79,-1.19 1.06,-1.27 0.35,-1.49 2.1,-3.09 -0.24,-0.66 0.85,0 1.53,-1.09 0,0 1.68,1.59 0.25,1.25 0.41,0.38 0.9,-0.13 0.65,0.76 0.47,0.05 1.75,-0.42 1.86,1.46 0.24,0.62 1.89,-0.48 0,0 0.21,0.49 -0.49,0.37 -0.25,1.39 0.5,0.37 -0.05,0.53 0.79,0.28 -0.13,0.49 0.64,0.53 0.3,1.22 -0.63,0.46 -0.17,0.78 -1.34,-0.02 -1.13,0.49 -0.42,-0.52 -0.46,0.45 -0.52,-0.17 -0.49,0.44 -0.82,-0.21 -0.56,0.77 -0.3,-0.51 -1.06,0.02 -1.17,-0.42 -0.9,0.48 -0.01,0.97 -0.99,1.64 0,0 -1.81,-0.94 -0.67,0.13 -0.31,0.67 0.83,1.76 -0.13,0.75 -1.1,-0.32 -0.35,1.07 -1.29,0.13 -0.45,0.87 -0.46,0.1 -0.77,-0.77 -1.04,2.77 -0.57,0.28 -0.35,-0.4 -0.66,-0.01 -0.05,0.5 -0.37,0.1 -0.45,0.74 0,0 -1.37,0.26 -1.51,-0.59 -1.73,-0.19 -0.13,-0.87 -1.31,-1.21 0.29,-1 -0.52,-0.42 0.41,-0.9 0,0 0.88,0.17 -0.21,1.09 0.18,0.25 2.58,0.39 1.78,-0.38 0.27,-0.88 -0.65,0.27 -0.03,-0.5 -0.57,-0.11 0.52,-0.59 0.41,-0.08 z" 
                fill="rgb(151, 144, 238)" 
                stroke="white" 
                stroke-width=".7px"
                title="Fukui" 
                id="JP-18" 
            />
        </svg>