<svg xmlns="http://www.w3.org/2000/svg" viewBox="248.98993000000002 236.55889 27.08999999999986 31.86999999999992" width="27.08999999999986" height="31.86999999999992">
            <path 
                d="m 251.72993,266.75889 -0.72,-0.69 0.32,-0.21 0.02,-0.93 0.32,-0.52 0.04,-1.34 0.55,-0.44 -0.53,-0.85 0.09,-1 -0.63,-0.64 0.24,-0.89 -0.55,-0.71 -0.31,0.5 -0.78,-0.29 0.12,-1.6 -0.66,-0.07 -0.26,-1.07 0,0 0.98,-1.64 0.01,-0.97 0.9,-0.48 1.17,0.42 1.06,-0.01 0.3,0.51 0.56,-0.77 0.82,0.22 0.48,-0.44 0.52,0.17 0.46,-0.44 0.41,0.52 1.13,-0.49 1.35,0.02 0.17,-0.78 0.62,-0.46 -0.3,-1.22 -0.64,-0.52 0.12,-0.49 -0.79,-0.28 0.05,-0.53 -0.49,-0.37 0.24,-1.39 0.5,-0.37 -0.21,-0.49 0,0 0.5,-1.09 -0.23,-0.74 0.61,-0.23 0.94,-1.67 -0.04,-0.39 -0.76,-0.43 -0.25,-0.58 0,0 0.58,-0.08 0.29,-1.06 0.77,-0.56 0.25,0.59 0.35,-0.36 0.92,0.51 0.34,0.77 -0.26,0.73 0.34,0.08 1.39,-1.22 0.25,-1.15 2.08,-2.02 0.55,-0.02 0.25,0.44 1.46,-0.69 0.59,0.05 0.04,0.88 0.21,0.04 1.35,-0.8 0.28,0.78 1.13,0.35 0.71,-0.34 0.84,0.82 0.94,0.07 0,0 0.13,0.51 1.03,0.66 0.09,0.53 -0.09,0.78 -1.39,1.81 0.38,0.55 -0.05,0.52 -0.75,0.71 -0.01,0.81 0.46,0.5 0.72,0.25 -0.39,1.57 -1,0.76 -0.37,0.92 -0.44,0.1 -0.52,1.06 -0.42,0.07 -0.33,-0.33 -1.15,0.35 -0.35,1.06 -0.59,0.25 -0.11,0.54 0.29,0.39 1.04,0.01 0.05,0.51 1.23,0.37 0.8,1.79 0.78,0.7 -0.43,1.28 0.39,0.45 -0.07,1.1 0.31,0.55 1.07,-0.32 0.57,0.54 0,0.91 -0.65,0.7 0.71,0.98 -0.87,0.29 0.26,1.27 -0.84,0.65 0.01,0.53 0,0 -0.8,0.08 -1.72,1.4 -0.99,-0.49 0.02,-0.32 -0.84,-0.04 0.07,-0.24 -0.75,-0.48 -0.63,0.02 -0.92,0.73 -0.85,0.17 -0.52,-0.71 -0.94,-0.39 -0.3,0.21 -0.32,-0.15 -0.27,-0.32 0.09,-0.49 -0.49,-0.2 0.03,-0.65 -1.18,-0.87 0.02,-0.56 -1.49,1.12 -1.66,0.5 -1.27,-0.15 -1.69,2.98 -0.22,2.19 0,0 -1.08,-0.12 -1.69,-2.5 z" 
                fill="rgb(151, 144, 238)" 
                stroke="white" 
                stroke-width=".7px"
                title="Gifu" 
                id="JP-21" 
            />
        </svg>