<svg xmlns="http://www.w3.org/2000/svg" viewBox="290.8099299999999 222.03889 24.860000000000127 26.109999999999985" width="24.860000000000127" height="26.109999999999985">
            <path 
                d="m 315.66993,242.52889 -0.31,0.58 -0.49,0.18 -0.52,-0.48 -2.54,0.48 -1.81,-1.34 -0.86,0.21 -0.97,-0.29 -0.6,0.15 -1.69,-0.86 -0.7,-0.05 -1.23,1.97 -0.02,0.93 -0.42,0.76 -1.53,0.07 -0.46,0.78 -1.52,0.4 -0.92,1.01 -1.23,0.02 -0.75,1.01 0,0 -0.36,0.09 -0.36,-0.52 -0.61,-0.19 -0.38,-1.77 0.33,-0.35 -0.28,-0.67 -0.65,-0.08 -0.44,-0.76 0.16,-0.17 0.46,0.33 0.45,-0.48 0.03,-0.81 -0.42,-0.44 -0.23,-1.11 1.03,-0.68 0.07,-1.48 -0.29,-1.15 -0.83,-0.25 -0.7,0.1 -0.44,0.4 -0.88,-0.25 -0.21,0.31 -0.43,-0.07 -1.25,-0.74 -0.06,-1.3 0.6,-1.66 -0.02,-0.99 0.96,-1.18 0.96,-0.16 0.01,-1.09 1.79,-0.36 1.55,-0.83 0,0 0.25,0.17 0.36,-0.63 1.2,0.44 0.79,-0.67 -0.1,-1 0.64,0.03 1.49,-0.62 -0.25,-0.44 0.29,-0.95 0.85,0.11 0.09,-0.26 -0.27,-1.93 1.64,-0.28 0.82,-0.73 0.12,-0.95 1.54,1.55 0.11,0.76 0.92,0.07 0.23,0.34 0,0 0.01,0.37 0.52,-0.2 2.3,0.71 0,0 -0.58,1.54 1.02,0.44 -1.02,1.41 0.28,1.17 -0.59,0.89 -0.18,1.37 1.47,0.74 1.23,-0.07 0.34,0.68 -0.82,0.65 -0.4,1.2 0.33,0.76 -1.19,1.55 -0.18,0.96 1.05,0.78 -0.04,0.58 1.11,0.97 1.01,-0.29 0.71,0.43 1.11,-0.18 0.38,0.24 -0.09,0.28 z" 
                fill="rgb(151, 144, 238)" 
                stroke="white" 
                stroke-width=".7px"
                title="Gunma" 
                id="JP-10" 
            />
        </svg>