<svg xmlns="http://www.w3.org/2000/svg" viewBox="310.52993000000004 0.27888680000000515 126.44999999999993 111.66000319999993" width="126.44999999999993" height="111.66000319999993">
            <path 
                d="m 330.00993,71.568887 2.71,-2.13 0.04,-0.59 -1.96,-3.17 -1.38,-0.99 -0.7,-1.16 0.68,-2.54 -0.27,-0.48 1.64,0.11 0.6,-0.42 0.21,-0.54 0.53,-0.21 2.75,2.66 1.93,0.87 1.13,1.28 2.48,-0.47 0.17,-0.42 1.02,-0.32 0.72,0.02 -0.14,1.17 3.04,1.39 2.2,-1.22 1.97,-2.15 0.99,-1.6 0.1,-2.35 -1.38,-2.76 0.54,-1.94 -0.66,-1.44 -0.45,-2.27 1.02,-2.1 1.47,-0.89 0.76,-0.05 2.03,-1.32 0.93,-1.89 0.41,-1.95 -0.35,-7.86 0.5,-0.32 1.64,-3.44 0.21,-2.86 0.38,-0.79 0.13,-1.6 -0.3,-3.27 -0.77,-3.84 -3.04,-7.32 -0.31,-1.1600002 0.07,-0.99 0.86,-1.27 0.79,-1.95 -0.41,-1.4 0.15,-1.28 0.75,0.77 0.13,0.52 0.39,0.16 1.76,-0.28 1.35,-0.94 0.55,-1.99 0.87,-0.31 0.47,0.33 0.56,1.29 0.59,0.34 0.63,1.47 2.32,1.7 2.21,3.12 4.95,5.5600002 3.91,7.23 2.58,2.55 2.44,3.1 5.58,4.4 1.57,0.89 0.33,0.95 1.26,0.96 3.7,1.94 3.24,1.28 5.88,1.69 2.79,0.53 0.44,-0.31 0.29,0.77 -0.06,1.28 0.87,1.55 0.58,0.48 3.21,1.01 3.41,0.21 2.57,-0.32 2.28,-1.99 1.54,-1.92 2.18,-2.04 1.83,-1.26 0.66,-1.45 1.1,-1.16 0.78,-1.38 0.46,0.03 0.45,2.23 -1.21,2.49 -0.91,0.92 -0.6,2.4 -1.73,2.13 -0.94,2.12 0.1,0.83 -0.77,2.05 0.22,1.06 1.35,2.58 1.49,1.97 1.52,5.23 1.49,1.96 -1.16,-0.53 -0.19,-0.53 -1.14,-0.22 -0.24,0.37 0.21,1.26 0.86,-0.67 0.47,0.4 -0.29,0.55 0.37,0.39 0.4,-0.28 2.55,0.62 2.09,-1.7 0.32,-0.6 1.11,-0.71 0.24,-0.5 3.28,0.2 -0.19,0.5 -1.17,0.91 -1.73,0.31 -1.87,1.03 -0.8,2.93 -0.77,-0.36 -1.24,-0.05 -2.71,0.51 -1.51,0.9 -1.26,-0.21 -0.62,0.6 -0.14,1.15 -1.6,2.15 -1.02,0.49 -1.9,-0.1 -0.9,-0.79 0.03,-0.53 0.33,-0.31 -0.55,-0.37 -0.73,0.1 -1.19,1.73 -0.02,0.41 1.15,1.13 -2.01,-0.12 -1.15,-0.35 -3.58,-0.02 -0.69,-0.15 -1.58,-1.27 -3.06,0.54 -2.43,1.18 -3.4,2.53 -5.27,5.27 -4.08,5.8 -1.53,3.31 -0.28,1.67 0.55,1.44 -0.82,3.88 -0.91,1.53 0,1.61 -3.7,-3.72 -4.85,-2.02 -8.09,-4.45 -2.38,-1.67 -1.84,-2.05 -3.21,-0.94 -2.21,-2.05 -1.82,-1.2 -1.83,-0.53 -2.38,-0.04 -3.17,1.04 -2.08,1.29 -2.68,2.28 -1.59,0.89 -2.12,2.45 -0.34,0.75 -1.07,-0.4 -0.33,-0.55 0.38,-0.29 0.59,0.64 0.12,-0.81 -1.35,-0.41 -0.87,-2.37 -0.79,-0.4 -1.07,-1.12 -0.12,-0.58 -1.27,-1.23 -1.24,-0.09 -1.25,0.53 -0.97,-0.59 -1.21,0.03 -1.68,1.81 -1.44,2.75 -0.71,2.55 0.28,1.94 2.32,1.2 2.74,2.35 0.75,0.14 1.37,-0.53 2.04,0.31 1.23,2.21 1.63,1.22 1.08,1.88 3.15,1.36 0.55,0.890003 0.79,0.59 -0.61,0.61 -0.95,0.01 -1.1,1.3 -1.66,0.66 -0.86,-0.79 -2.78,-0.91 -0.93,0.16 -0.28,0.62 -0.41,0.1 -0.18,-0.61 0.68,-0.45 -0.2,-0.67 -0.59,-0.37 -0.86,0.08 -0.41,0.33 -0.43,1.68 -1.44,1.06 -1.29,0.1 -0.35,0.33 -0.31,3.94 -0.4,0.48 -0.94,0.03 -1.96,0.87 -0.9,1.89 -0.39,0.32 -1.02,-0.8 -1.14,0.22 -0.9,-0.71 -1.08,-2.72 -0.09,-0.86 0.41,-1.77 1.35,-3.03 0,-1.05 0.77,0.08 0.29,-0.59 0.31,-2.700003 -0.4,-1.98 -1.9,-2.94 -0.67,-0.36 -1.3,-0.12 -0.51,-1.33 -0.85,-0.88 -1.14,-0.41 -0.39,-0.73 -0.19,-1.39 0.31,-1.12 0.94,-1.03 0.33,-0.95 0.03,-2.65 -0.49,-2.23 0.92,-1.45 1.12,-0.62 2.28,-0.06 0.61,-0.91 1.39,-0.73 0.85,-1.92 0.82,0.57 0.56,0.97 0.89,-0.23 0.09,-1.39 0.82,-0.84 0.85,-1.71 z m 14.72,-61.43 -0.09,-1.2300002 1.28,-1.25 2.07,1.21 0.51,1.8100002 -1.81,1.49 -1.37,-1.07 -0.59,-0.96 z m -31.88,81.17 -0.29,2.22 -0.39,0.63 -0.65,0.23 -0.02,0.36 -0.61,-0.54 0.06,-1.71 -0.42,-1.11 0.74,-1.09 1.91,-0.38 0.46,-0.52 0.03,0.64 -0.82,1.27 z m 30.35,-86.7800002 -0.26,2.59 -0.39,0.13 -0.88,-2.97 0.22,-1.31 -0.61,-0.34 0.09,-0.73 0.65,0.85 0.66,-0.15 -0.02,-0.59 0.34,0.27 0.35,0.78 -0.15,1.47 z" 
                fill="rgb(151, 144, 238)" 
                stroke="white" 
                stroke-width=".7px"
                title="HokkaidoÂ" 
                id="JP-01" 
            />
        </svg>