<svg xmlns="http://www.w3.org/2000/svg" viewBox="209.11992999999998 255.7488899999999 23.88000000000011 35.5" width="23.88000000000011" height="35.5">
            <path 
                d="m 213.21993,277.54889 -1.09,0.9 -1.21,-0.22 0,0 -0.54,-1.37 -1.08,-0.96 -0.18,-0.47 0.7,-1.31 -0.68,-0.85 0.35,-0.32 0.15,-0.91 -0.2,-0.59 0.92,-0.54 0.06,-0.93 0.59,-0.25 0.24,-1.1 0.24,-0.26 0.67,0.07 0.08,-0.78 -0.63,-0.66 0.44,-0.8 0,0 0.58,0.26 1.64,-1.15 -0.26,-1.16 0.15,-0.43 -0.73,-0.96 0.09,-1.08 -0.73,-0.34 -0.49,-1.88 0.12,-1.02 -0.38,-0.77 -0.69,-0.52 0,0 2.13,-0.66 1.22,-0.74 1.2,0.31 0.42,0.47 0.82,-0.67 1.38,0.2 1.28,-0.29 0.45,0.33 0.98,-0.06 0,0 0.02,2.02 0.86,0.8 0.21,0.61 0.72,0.18 1.33,-0.66 0.32,0.54 0,2.63 -0.91,0.52 -1.14,-0.55 -0.37,1 0.02,1.27 1.49,0.61 1.32,1.13 0.76,-0.46 1.02,0.02 0.02,0.78 0.86,0.82 -0.25,0.55 0.55,0.24 0.43,-0.36 0.81,0.04 0.22,0.06 0.04,0.73 0.85,-0.18 0.97,0.49 0.29,1.26 -0.38,0.21 -0.17,0.54 0,0 -0.43,-0.05 -0.29,0.31 0.4,0.24 0.08,0.97 -0.24,0.36 1.4,0.81 0.96,0.14 -0.91,0.51 0.43,0.25 -0.47,2.04 0.74,1.24 0.15,1.43 -0.54,1.21 0,0 -0.44,-0.33 0.14,-0.47 -0.25,-0.52 -0.92,0.32 -0.42,-0.6 -0.97,-0.13 -1.98,0.94 -0.1,0.68 -2.58,0.64 -4.27,-1.72 -1.67,-1.65 -5.72,0.05 z m 9.4,11.08 0.22,0.77 -2.06,0.84 -0.98,0.82 -1.34,0.19 -0.01,-0.45 -0.59,-0.31 0.06,-0.5 -0.43,-0.16 -0.54,-1.01 0.67,-0.96 0.38,0.24 0.47,-0.24 1.33,-2.82 0.4,-0.46 0.41,0.01 0.95,-1.5 0.95,-0.43 0.77,-1.12 0.55,-0.29 0.44,0.83 -0.6,0.72 -0.15,0.77 -1.78,2.33 -0.01,1.54 0.89,1.19 z" 
                fill="rgb(151, 144, 238)" 
                stroke="white" 
                stroke-width=".7px"
                title="Hyogo" 
                id="JP-28" 
            />
        </svg>