<svg xmlns="http://www.w3.org/2000/svg" viewBox="316.34993 224.8388899999999 23.129999999999995 29.770000000000095" width="23.129999999999995" height="29.770000000000095">
            <path 
                d="m 333.51993,240.30889 -0.1,2.12 0.89,3.27 2.68,5.5 1.63,2.49 0.82,0.47 0.04,0.45 0,0 -2.5,-1.54 -1.11,-1.53 -1.23,-0.26 -1.13,-0.97 -0.91,0.04 -1.08,-0.52 -2.01,0.52 -0.86,0.82 -0.8,-0.23 -0.59,0.4 -0.86,-0.11 -1.02,0.41 -0.58,-0.72 -2.46,-0.86 -1.04,-0.7 -0.2,-0.71 -0.72,-0.24 -1.63,-2.01 -0.33,-0.84 -0.42,-0.03 0,0 -0.39,0.35 -0.39,-0.1 -0.87,-1.96 0.17,-0.89 0,0 0.73,-0.06 1.65,-0.87 0.55,-1.69 1.13,0.28 0.12,-0.88 1,-0.47 0.13,-0.45 1.56,-0.08 0.26,-0.13 0.05,-0.52 0.67,0.24 0.41,-0.46 0.44,-0.02 0.28,0.39 0.67,-0.21 0.21,-1.17 0.92,-1.85 -0.02,-1.81 -0.57,-1.95 0.28,-0.38 0.95,-0.21 0.1,-0.31 -0.63,-1 0.22,-1.3 -0.28,-0.99 0.09,-1.99 0,0 0.55,0.03 0.76,1.02 0.82,0.25 0.33,1.16 1.14,0.42 0.43,0.57 1.46,-1.4 1.12,-0.49 -0.46,-1.3 0.34,-0.46 0.57,1.03 3.43,1.04 0,0 0.04,0.02 0,0 0.03,0.01 0,0 0.18,0.64 -0.63,0.17 -0.49,0.95 -1.18,4 -0.7,1.17 -0.78,2.27 0.16,2.88 -1.04,1.29 z" 
                fill="rgb(151, 144, 238)" 
                stroke="white" 
                stroke-width=".7px"
                title="Ibaraki" 
                id="JP-08" 
            />
        </svg>