<svg xmlns="http://www.w3.org/2000/svg" viewBox="248.33992999999998 210.22889000000006 21.970000000000027 36.00999999999996" width="21.970000000000027" height="36.00999999999996">
            <path 
                d="m 257.72993,221.14889 -0.06,-1.29 -0.32,-0.14 -0.36,0.34 -0.3,-0.28 0.61,-2.33 0.4,-0.35 0,-1.67 0.35,-0.38 1.44,-1.17 1.13,-0.51 1.13,0.28 2.9,-1.48 0.42,-0.58 0.98,-0.48 1.27,-0.17 1.32,-0.71 1.03,0.13 0.47,0.66 -0.24,0.47 0.41,0.81 -0.61,0.29 -1.01,-0.04 -0.53,0.36 -0.28,1.17 0.6,1.05 -0.66,0.98 -1.79,-0.05 -0.89,0.5 -0.57,1.49 -1.16,0.86 -0.56,-0.53 -0.49,-0.08 0.17,-0.61 -0.35,0 -1.46,2.17 0.54,0.23 -0.17,0.62 -0.51,0.12 0.12,0.43 -0.26,0.39 0.56,0.09 0.56,-0.57 1.13,1.11 0.75,-0.65 0.2,-0.68 0.56,0 0.04,3.49 0,0 -1.24,-0.1 -0.72,0.26 -1.4,1.37 -0.6,3.49 -0.55,0.65 -0.16,0.98 0.23,0.46 -0.76,1.23 0.19,1.13 0.46,0.58 -0.75,2.96 0.45,1.88 -0.32,0.42 0.14,0.88 0,0 0.25,0.58 0.76,0.43 0.04,0.39 -0.94,1.68 -0.6,0.23 0.22,0.73 -0.5,1.09 0,0 -1.89,0.48 -0.24,-0.62 -1.86,-1.46 -1.75,0.42 -0.47,-0.05 -0.65,-0.76 -0.9,0.13 -0.41,-0.38 -0.25,-1.25 -1.68,-1.59 0,0 1.1,-1.4 0.92,-0.32 1.41,-1.36 4.47,-6.03 1.09,-1.97 1.33,-3.8 0.04,-2.3 -0.95,-1.48 -0.02,-0.87 z" 
                fill="rgb(151, 144, 238)" 
                stroke="white" 
                stroke-width=".7px"
                title="Ishikawa" 
                id="JP-17" 
            />
        </svg>