<svg xmlns="http://www.w3.org/2000/svg" viewBox="335.2899299999999 136.65888999999999 27.80999999999989 43.220000000000084" width="27.80999999999989" height="43.220000000000084">
            <path 
                d="m 359.85993,166.19889 0.42,0.16 0.05,0.45 -0.83,-0.04 0.53,0.53 0.5,-0.01 0.33,0.68 -1.03,0.43 -0.73,-0.03 0.01,0.36 0.49,0.27 0.55,-0.12 0.01,0.24 -0.66,0.53 -0.74,-0.03 -0.26,0.27 1.67,1.04 -0.86,0.3 -1.26,-0.53 0.21,0.97 1.02,0.26 -1.22,0.18 0.74,0.57 -0.27,0.28 -1.09,-0.08 -0.47,0.25 -0.42,-0.47 0.04,-0.57 -0.35,-0.17 0.06,0.61 -0.3,0.44 0.69,0.86 -0.43,0.06 0.11,0.91 -0.47,0.34 -0.72,-0.96 0.25,-0.53 -0.2,-0.19 -0.92,0.09 0.16,0.75 0,0 -1.17,-0.49 -1.44,-0.13 -0.24,0.52 0.11,1.78 -0.68,0.7 0.1,0.51 -0.5,1.94 -2.45,-1 -0.9,0.87 -0.17,0.7 -0.52,0.18 -1.77,-1.01 -0.47,-1.09 0.59,-0.55 -0.25,-0.5 -0.72,-0.2 -2.21,0.25 -0.55,-0.81 -1.44,-0.48 -1.22,-0.91 -0.95,0.14 0,0 -0.08,-1.15 0.79,-1.37 -0.14,-0.4 -0.97,-0.38 0.28,-0.97 -0.27,-0.22 0.47,-0.83 0.6,-0.3 -0.85,-0.44 0.33,-1.06 -1.12,-0.77 -0.53,-0.75 0.15,-0.92 -0.6,-1.25 -0.39,-0.09 0.05,-0.65 0.45,-0.12 -0.05,-0.81 0.78,-0.85 0.43,-1.34 -0.21,-0.72 0.42,-0.11 0.61,-0.86 0.27,0.03 0.51,-1.19 -0.13,-1.08 -0.66,-1.17 0.39,-0.14 0.82,-1.47 -1.12,-0.66 -0.07,-1.06 0.82,-0.45 0.49,0.48 0.56,-0.18 -0.62,-2.5 0.05,-2.68 0.52,-0.46 0.15,-1.56 -0.4,-0.49 0.81,-1.11 0.61,-0.22 0.4,-0.57 0,0 0.46,0.68 0.94,0.01 1,-0.78 0.46,-0.02 0.04,-0.72 0.74,-0.5 1.52,-0.38 1.96,-1.49 0.68,1.08 1.72,-1.1 0.68,-0.09 1.24,0.77 0.89,-0.69 0.11,-0.83 1.39,-0.62 0.47,-0.54 0,0 1.37,2.04 1.54,3.46 -0.98,1.08 1.39,0.6 0.46,0.64 -0.12,0.25 -0.49,0.01 -0.36,0.54 0.11,0.98 0.33,0.48 0.51,0.17 0.49,0.89 0.69,0.12 0.4,0.7 -0.32,1.6 0.72,1.21 0.23,2.98 -0.42,1.69 0.44,0.07 -0.85,2.57 0.25,0 1.33,-1.8 0.02,2.02 0.6,0.08 0.29,0.7 -0.15,0.36 -0.62,0.08 -0.86,1.17 -0.7,0.25 0.43,0.88 1.16,-1.13 0.31,-0.05 0.2,0.37 -0.43,1.33 -1.12,0.26 -0.89,0.6 -0.81,1.19 0.34,0.35 0.79,-0.42 0.44,0.54 -1.7,0.29 0.37,0.39 z" 
                fill="rgb(151, 144, 238)" 
                stroke="white" 
                stroke-width=".7px"
                title="Iwate" 
                id="JP-03" 
            />
        </svg>