<svg xmlns="http://www.w3.org/2000/svg" viewBox="7.009303799999946 317.19854999999984 208.14999619999992 475.0999999999998" width="208.14999619999992" height="475.0999999999998">
            <path 
                d="m 215.1393,399.42855 -0.07,10.29 -0.61,4.04 -2.84,8.1 -6.52,11.71 -1.99,4.04 -1.85,3.27 -0.89,4.04 1.97,4.28 7.69,10.35 1.37,2.94 0.86,4.18 0.18,3.13 -1.17,5.13 -1.06,3.67 -6.6,10.17 -0.7,4.08 0.41,3.26 1.41,3.9 -0.01,4.12 -2.99,2.75 -6.48,4.25 -4.6,10.16 -0.06,3.62 0.87,3.29 -0.88,4.03 -3.3,1.19 -2.57,3.11 -1.52,4.16 -0.02,8.14 -2.43,5.67 -4.23,7.72 -0.91,4.43 -2.56,2.38 -5.09,9.82 -0.41,3.28 -3.9,18.08 -1.19,3.56 -2.38,3.42 -0.68,2.69 5.96,11.21 0.91,3.1 -0.55,2.37 -3.83,4.24 -1.1,3.42 0.59,3.96 -3.28,7.28 5.4,23.89 -13.34,19.14 -3.59,14.26 0.54,15.48 -5.08,10.16 -0.77,3.72 0.5,2.95 -0.5,3.99 -2.94,12.23 0,6.66 0.46,4.16 0.04,3.85 -2.26,2.77 -3.08,2.26 -2.62,3.04 -1.85,3.71 -1.68,4.72 -0.34,-0.11 -0.72,0.05 -0.43,-0.44 -0.38,0 -0.14,0.55 -0.2,0.06 -0.09,0.54 -0.24,0.28 -0.05,0.27 -0.43,0 -0.09,0.27 -0.44,0.17 -0.19,0.38 -0.14,0.82 -0.43,0.72 -0.38,0 0,0.16 -0.53,0.6 -0.62,0.38 -0.15,0.55 -0.67,0.66 0,0.82 -0.43,0.27 -0.62,0.88 -0.34,0.27 0,0.5 -0.76,0.87 -0.72,0.33 -4.35,-5.04 -2.27,-4.29 -0.82,-3.3 -0.69,-5.75 1.62,-5.38 0.81,-5.39 -0.78,-3.71 -3.09,-5.39 0.12,-9.51 -17.629996,-49.49 0.35,-2.99 -5.58,-15.43 -14.85,-41.99 -3.51,-13.2 -12.03,-7.87 -0.44,-6.11 3.57,-10.06 -7.48,-8.77 0.5,-10.87 -4.99,-20.76 -15.18,-31.89 -9.84,-28.81 -14.2200002,-47.2 7.7600002,-5.82 7.67,-6.62 1.9,-3.49 -0.04,-5.41 -0.43,-5.79 1.51,-5.04 5.74,-7.38 17.3,-16.76 5.02,-1.2 1.53,-2.71 -0.02,-3.87 -2.35,-3.47 -7.49,-7 4.16,-6.77 0.72,-0.45 0.34,-0.5 -0.05,-0.11 -0.29,-0.06 0.05,-0.5 -0.15,-0.06 0,-0.16 0.58,-0.68 0,0.23 -0.43,0.5 0.48,0.11 0.09,0.17 0.15,-0.05 2.63,-4.37 0.34,-1.18 0.62,-0.44 0.96,-1.24 0.38,-0.78 -0.05,-0.28 0.53,-0.67 0.28,-0.73 0.24,-0.17 0.1,0.23 0.19,0 2.92,-5.21 0.53,-0.73 1.34,-2.69 0.76,-0.95 0.39,-1.12 1.91,-3.31 1.73,-3.7 0.86,-1.45 0.86,-2.08 0.29,-0.5 0.14,-0.06 -0.05,-0.17 0.48,-0.89 0.48,-1.35 0.62,-1.12 0.72,-1.68 -0.52,-0.56 -0.29,-0.96 0.05,-0.78 0.47,-1.18 0.15,0 0,0.39 -0.19,0.12 -0.29,0.67 0,0.95 0.62,1.07 0.39,0 0.09,-0.28 -0.48,-0.28 0,-0.17 0.19,-0.11 -0.04,-0.56 0.14,-0.17 0.05,-0.45 0,-0.17 -0.19,-0.11 0,-0.23 0.43,0 0.19,0.23 1.1,0 0.1,-0.28 0.38,-0.39 0.09,-0.23 -0.24,-0.11 -0.04,-0.28 0.04,-1.46 0.15,-0.11 0.05,0.22 0.14,0 0,-0.11 0.38,-0.22 1.43,-3.6 1.11,-2.38 0,0 0.65,0 0.67,-0.28 0.48,-0.45 0.86,-0.11 1.05,1.29 1.2,0.11 1.67,-0.61 0.63,0.33 0.33,0.56 -0.14,0.73 -1.34,1.41 -0.1,0.39 0.34,1.51 -0.43,1.41 0.04,2.18 -0.48,0.4 -0.91,0.05 -0.76,-0.11 -1.73,-0.62 -0.43,0.06 -0.62,0.33 -0.48,0.9 0,0.79 0.43,1.01 1.78,0.95 0.62,0.78 0.14,0.79 -0.33,0.62 -0.48,0.45 -1.3,0.56 -0.81,0.56 -0.38,0.56 0,0.5 0.24,0.67 0.81,0.62 1.92,0.11 1.05,0.28 1.05,0.84 0.43,0.06 1.58,-0.28 0.48,-0.5 0.05,-1.29 0.34,-0.12 1.1,0.28 0.43,-0.05 0.43,-0.51 -0.05,-0.44 -0.96,-0.9 -0.33,-1.07 -1.34,-0.56 -0.15,-0.56 0.82,-0.17 1.63,0.23 0.71,-0.11 0.53,-0.4 1.1,-1.23 0.39,0.06 2.96,1.68 0.96,0.84 0.77,1.12 0.43,0.95 1.24,3.87 0.96,1.35 0.57,0.39 1.11,-0.28 0.52,-0.39 0.91,-0.96 1.729996,-2.41 1.1,-1.23 0.53,-0.39 0.39,0 0,0 0.27,0 0.96,0.95 1.1,1.63 0.72,1.62 0.77,2.52 0.38,0.51 0.58,0.33 1.53,-0.33 0.86,0.11 0.62,0.22 0.86,1.07 0,0.73 -0.91,1.9 0.1,0.73 0.77,2.07 0.09,0.84 -0.09,1.29 -0.48,0.95 -0.15,0.79 0.24,3.02 -0.14,1.63 0.43,1.4 0,1.39 -0.29,1.57 0.43,1.01 2.64,1.51 2.49,1.68 2.34,1.29 0.77,0.67 0.96,1.34 2.68,0.67 0.57,0.28 3.75,2.91 0,0 -2.67,3.98 -1.52,7.57 0.75,8.2 -0.64,3.5 -3.45,6.55 -3.82,4.93 -3.35,6.73 0.47,4 1.93,3.13 2.77,2.29 4.28,1.15 7.83,-1.03 7.22,-1.8 7.05,0.59 9.94,0.64 3.64,-1.89 2.39,0.55 3.73,-0.64 3.23,-0.28 4.14,-0.78 2.53,-1.52 5.03,-5.15 4.29,-4.83 5.58,-2.48 5.73,-4.18 6.09,-5.38 2.72,-0.96 11.39,0.17 z" 
                fill="rgb(151, 144, 238)" 
                stroke="white" 
                stroke-width=".7px"
                title="HaDarom" 
                id="IL-D" 
            />
        </svg>