<svg xmlns="http://www.w3.org/2000/svg" viewBox="76.419304 209.5385500000001 67.32999600000004 130.70999999999998" width="67.32999600000004" height="130.70999999999998">
            <path 
                d="m 76.419304,318.03855 1.58,-3.95 0.19,-0.85 0.53,-1.12 0,-0.22 0.19,-0.23 0.24,-1.23 0.29,-0.56 0.04,-0.68 0.2,-0.05 0.04,-0.23 0.15,-0.05 0,-0.4 0.09,-0.17 0.15,0 0,-0.28 0.09,0 0.39,-0.67 0.24,-0.11 0.04,-0.34 1.44,-2.13 1.24,-3.04 1.2,-3.14 2.11,-7.28 0,0 1.41,0.23 0.81,0.62 1.15,0.22 3.07,-0.05 1.48,0.84 1.2,0.17 2.68,-0.17 1.439996,-0.4 1.19,-1.12 2.3,-2.81 1.15,-0.67 0.86,0 0.96,0.39 0.86,1.46 0.67,0.28 0.96,-0.39 0.19,-0.34 0.53,-0.33 1.15,-0.29 1.67,0.17 0.67,-0.67 0.05,-0.9 -0.24,-0.67 -0.72,-0.74 -1.91,-0.84 -0.91,-5.51 -0.24,-0.67 -0.67,-0.73 -1.68,-1.13 -0.57,-0.79 -0.14,-0.78 0.14,-1.13 0.24,-0.67 0.05,-1.75 0.24,-1.57 1.48,-1.8 1.15,-2.08 0.53,-1.3 0.04,-1.74 -0.48,-1.35 0.34,-1.07 0.1,-2.65 -0.29,-0.67 -1.49,-0.79 -0.52,-0.9 -0.91,-0.45 -1.29,-1.13 -1.35,-0.51 -3.68,-0.45 -1.269996,-0.04 0,0 0.29,-0.77 0,-0.28 -0.15,-0.17 0.05,-0.29 0.53,-1.23 0.239996,-0.23 -0.05,-0.45 0.43,-0.79 0.05,-0.67 0.52,-0.79 0.1,-0.79 0.24,-0.56 -0.1,-0.57 0.39,-0.39 0,-0.9 0.33,-1.47 0.29,-0.45 0.48,-1.3 -0.05,-0.67 0.19,-0.28 0.24,-0.79 -0.05,-0.17 0.54,-1.41 0.04,-0.84 -0.15,0 0,-0.17 0.34,-0.57 0.1,-1.29 0.52,-1.02 0.1,-0.56 0.43,-0.96 -0.05,-0.68 0.19,0.12 0.15,-0.06 -0.1,-0.96 0.19,-1.01 0.19,-0.17 -0.04,-0.4 0.71,-3.21 0,-0.23 -0.24,-0.17 -0.04,-0.28 0.62,-0.34 0.05,-0.17 0.33,-1.91 0.19,-0.51 0,-0.68 0.29,-0.56 0.81,-3.73 0,-0.67 0.24,-1.24 -0.28,0 0,-0.12 0.52,-0.5 0.15,-0.34 0.09,-0.79 -0.09,-0.68 0.28,-1.13 -0.33,-0.22 0.24,-0.51 0.19,-0.12 0.38,-1.01 0.15,-0.06 0.14,-0.84 0,0 2.23,-0.09 1.58,0.28 1.96,0.85 0.77,0.17 1.24,-0.06 2.06,-0.79 1.68,-0.22 2.63,0.17 2.63,0.62 4.12,0 0.72,0.22 0.57,0.4 0.86,0.96 0.63,1.24 1.19,0.68 1.2,1.58 0.77,0.17 1.24,0 4.8,-1.52 0.79,0.05 0,0 -0.36,2.62 -1.2,1.17 -4.48,2.01 -1.15,1.45 -1.83,3.44 -0.19,5.47 0.81,5.81 -0.57,1.5 -1.46,1.04 -2.37,3.43 -3.11,7.05 -0.3,2.37 0.08,2.35 2.35,3.52 0.93,1.95 1.31,5.78 0.21,2.6 -0.55,2.12 -1.4,2.65 -0.2,1.61 0.54,1.35 1.8,1.92 1.98,3.77 0.57,2.33 -0.4,2.99 -1.38,3.01 0.04,1.36 0.33,1.09 -0.76,0.62 0.75,2 -2.36,5.04 0.42,4.58 2.64,3.56 3.94,3.14 0.83,3.24 -1.52,4.72 -8.61,1.54 -0.15,0.23 0,0 -4.43,-0.19 -2.67,-0.33 -1.55,0.17 -1.27,0.99 -1.55,4.46 -1.83,1.15 -5.5,1.16 -2.82,0.99 -3.52,3.46 -0.76,1.96 0,0 -0.39,0 -0.53,0.39 -1.1,1.23 -1.729996,2.41 -0.91,0.96 -0.52,0.39 -1.11,0.28 -0.57,-0.39 -0.96,-1.35 -1.24,-3.87 -0.43,-0.95 -0.77,-1.12 -0.96,-0.84 -2.96,-1.68 -0.39,-0.06 -1.1,1.23 -0.53,0.4 -0.71,0.11 -1.63,-0.23 -0.82,0.17 0.15,0.56 1.34,0.56 0.33,1.07 0.96,0.9 0.05,0.44 -0.43,0.51 -0.43,0.05 -1.1,-0.28 -0.34,0.12 -0.05,1.29 -0.48,0.5 -1.58,0.28 -0.43,-0.06 -1.05,-0.84 -1.05,-0.28 -1.92,-0.11 -0.81,-0.62 -0.24,-0.67 0,-0.5 0.38,-0.56 0.81,-0.56 1.3,-0.56 0.48,-0.45 0.33,-0.62 -0.14,-0.79 -0.62,-0.78 -1.78,-0.95 -0.43,-1.01 0,-0.79 0.48,-0.9 0.62,-0.33 0.43,-0.06 1.73,0.62 0.76,0.11 0.91,-0.05 0.48,-0.4 -0.04,-2.18 0.43,-1.41 -0.34,-1.51 0.1,-0.39 1.34,-1.41 0.14,-0.73 -0.33,-0.56 -0.63,-0.33 -1.67,0.61 -1.2,-0.11 -1.05,-1.29 -0.86,0.11 -0.48,0.45 -0.67,0.28 z" 
                fill="rgb(151, 144, 238)" 
                stroke="white" 
                stroke-width=".7px"
                title="HaMerkaz" 
                id="IL-M" 
            />
        </svg>