<svg xmlns="http://www.w3.org/2000/svg" viewBox="137.2493 31.498548000000056 114.87 182.21000199999995" width="114.87" height="182.21000199999995">
            <path 
                d="m 209.7393,209.61855 -1.14,-1.01 0.05,-1.03 -1.22,-1.58 -1,-2.94 0.21,-4.06 -0.54,-4.36 -2.8,-4.74 -2.79,-2.08 -1.46,-0.36 -3.31,-0.06 -8.43,1.55 -2.01,-0.01 -1.37,-0.36 -2.71,-1.34 -2.64,-1.94 -3.08,-3.19 -2.38,-1.3 -1.67,0.25 -0.92,0.46 -0.96,1.09 0,0 -0.91,-1.54 -0.43,-0.45 -2.01,-0.79 -0.57,-0.4 -1.3,-2.43 -0.48,-0.45 -0.62,-0.28 -1,0.39 -1.25,2.04 -1.87,0.9 -0.52,0.45 -0.29,1.53 -0.38,0.57 -1.11,0.34 -1.14,2.09 -0.72,0.62 -1.05,0.39 -0.48,0 -2.83,-0.9 -2.68,0 -0.72,-0.23 -0.62,-0.73 -0.43,-1.02 -0.67,-0.28 -0.29,0.22 -0.77,0.06 -0.52,-1.35 -0.53,-0.4 -1.05,-0.34 -0.34,-1.08 0.53,-1.75 0.09,-1.35 -0.43,-0.51 -0.95,-0.4 -0.43,-0.96 -0.34,-0.17 -0.81,0.06 -0.48,-0.46 -0.29,-1.07 0,-1.7 -0.67,-0.73 -0.33,-0.12 -0.49,-0.45 -0.14,-0.79 0.39,-0.57 0.67,-0.22 1.29,0 1.34,0.56 0.81,0.12 1.06,-0.23 0.14,-0.74 -0.38,-0.56 -2.59,-0.68 -0.57,-0.79 -0.1,-0.85 0.19,-1.19 0.67,-1.19 0.48,-0.51 0.96,-0.39 0.86,0 1.05,0.28 1.92,0.96 0.77,0 0.52,-0.45 0.53,-0.85 1.24,-2.94 0.58,-0.8 3.02,-1.69 0.47,-0.46 0.29,-0.62 -0.05,-1.24 -0.57,-0.8 -0.82,-0.62 -0.28,-0.68 0.09,-2.04 0.24,-0.68 0.43,-0.45 0.43,-0.06 0.48,0.46 0.87,1.47 0.33,0.17 0.62,-0.23 1.1,-1.24 0.29,-0.63 0.15,-0.79 0,-0.45 -0.39,-1.02 1.63,-1.19 0.38,-0.51 0.1,-0.4 -0.77,-2.04 -0.09,-0.85 0.09,-0.39 2.54,-4.03 0.1,-1.19 0.33,-1.08 -0.05,-0.9 -0.33,-0.96 -0.91,-1.42 -1.25,-3.06 -0.04,-1.25 0.67,-2.61 -0.15,-0.79 -1.1,-0.8 -3.21,-0.96 -1.77,-1.53 -1.53,-0.8 0,-0.74 0.57,-2.21 0.05,-0.9 -0.38,-0.52 -0.91,-0.51 -0.67,-0.73 -0.38,-1.02 -0.15,-1.25 -0.32,-0.08 0.51,-3.73 -0.69,-2.03 -1.2,0.17 0,0 -0.33,-0.49 -0.39,-0.29 -0.57,-0.05 -0.19,0.17 0,0.45 -0.34,-0.11 -0.43,0.05 0,-0.45 0.77,-2.04 0.09,-1.48 0.67,-2.780002 0.05,-1.65 0.15,-0.34 -0.05,-0.68 0.09,-0.06 0,-0.57 0.2,-0.68 -0.05,-0.28 0.43,-1.08 0,-0.51 0.29,-0.12 0,-1.53 0.19,-0.17 0.14,-0.85 0.67,-1.25 -0.05,-0.8 -0.14,-0.28 0.14,-0.12 0,-0.74 0.24,-0.45 -0.04,-0.57 0.28,-0.62 -0.05,-0.17 0.24,-0.12 -0.09,-0.57 0.33,-0.68 0.15,-0.85 0.24,-0.46 0.09,-0.85 0.48,-0.85 -0.19,-0.11 0,-0.46 0.48,-0.4 -0.1,-0.11 0.15,-0.46 -0.1,-0.28 0.34,-0.51 -0.1,-0.57 0.14,0 -0.04,-0.62 0.23,-0.18 0.05,-1.3 0.19,-0.4 0.1,-1.88 0.19,-0.34 0,-0.62 -0.14,-0.18 0,-1.94 7.69,-0.11 5.43,-0.46 6.11,1.06 0.6,-0.26 0.99,-1.07 1.99,-0.65 6.38,-0.21 6.64,-0.93 3.41,0.81 2.9,5.51 1.62,1.86 2.6,1.54 1,0.29 4.38,-1.95 4.73,-0.38 1.25,-0.66 2.94,-2.83 0.85,-1.16 1.41,-1.04 0.75,-0.08 3.04,0.73 2.91,-1.1 0.41,-0.49 0.23,-2.59 0.39,-0.86 3.28,-1.39 0.86,-2.05 0.35,-4.48 1.08,-4.97 1.11,-1.93 0.85,-2.28 -0.14,-2.49 -0.62,-2.8 0.08,-1.6 1.47,-3.35 1,-0.84 1.62,-2.13 1.65,-3.64 0.41,-0.43 1.21,0.99 4.08,5.82 0.67,0.21 0.63,-0.61 0,0 1.44,1.35 1.28,0.31 1.29,-0.33 2.26,-1.21 1.03,-0.13 2.17,0.29 0.99,0.58 0.16,0.53 -1.48,3.42 -0.84,3.21 -0.12,4.47 0.31,2.73 0.83,3.57 -0.01,1.38 -0.64,2.49 -2.57,6.86 -0.47,4.48 -0.06,5.32 -0.5,-0.58 -1.85,0.56 -0.81,0.94 -1.78,3.4 -2.83,2.83 0.06,0.96 1.99,3.74 0.29,4.73 -0.76,10.480002 -0.35,1.75 -1,2.21 -0.05,1.06 0.36,0.87 0.79,0.44 1.29,-0.56 0.72,1.24 1.52,1.63 2.24,4.39 0.75,1.94 0.47,3.25 -0.33,3.08 -1.21,4.61 -0.31,7.42 -0.53,3.58 -1.93,4.04 -3.27,3.32 -0.05,0.4 1.25,0.89 3.3,1.49 0.49,0.54 0.09,1.28 0,0 -4.86,2.12 -1.12,1.28 0.32,2.87 -1.95,0.77 0.08,1.24 -0.42,0.49 -1.52,0.43 -2.49,1.89 -0.23,2.09 0.54,0.63 -0.25,3.03 0.39,0.94 1.28,0.7 0.34,1.27 -0.82,1.9 -0.12,1.91 1.77,3.67 -0.17,0.42 -1.72,-0.02 -0.31,1.92 -0.79,-0.02 -1,-0.66 -0.37,0.2 0.11,1.21 1.16,1.88 -0.38,0.64 -1.74,0.37 -0.92,1.29 0.82,0.62 1.11,-0.03 1.1,2.51 1.29,0.52 0.33,0.55 -0.21,1.04 -2.13,3.83 -0.15,1.03 0.27,0.92 1.43,0.7 0.35,0.68 -0.43,1 -0.84,0.03 -0.58,0.53 0.42,2.69 -2.02,0.63 0.5,4.6 -0.3,0.75 -1.29,0.38 -0.18,0.33 1.65,2.78 -1.41,-0.14 -4,-1.15 -5.08,-2.37 -2.16,-0.66 -3.92,-0.17 -2.58,0.75 z" 
                fill="rgb(151, 144, 238)" 
                stroke="white" 
                stroke-width=".7px"
                title="HaẔafon" 
                id="IL-Z" 
            />
        </svg>