<svg xmlns="http://www.w3.org/2000/svg" viewBox="103.02930000000005 320.24855000000014 70.21 52.63999999999993" width="70.21" height="52.63999999999993">
            <path 
                d="m 170.9293,345.68855 -0.24,0.38 -8.69,0.22 -7.34,3.01 -9.01,8.91 -8.08,3.88 -2.86,2.5 -5.26,5.68 -1.57,2.62 0,0 -3.75,-2.91 -0.57,-0.28 -2.68,-0.67 -0.96,-1.34 -0.77,-0.67 -2.34,-1.29 -2.49,-1.68 -2.64,-1.51 -0.43,-1.01 0.29,-1.57 0,-1.39 -0.43,-1.4 0.14,-1.63 -0.24,-3.02 0.15,-0.79 0.48,-0.95 0.09,-1.29 -0.09,-0.84 -0.77,-2.07 -0.1,-0.73 0.91,-1.9 0,-0.73 -0.86,-1.07 -0.62,-0.22 -0.86,-0.11 -1.53,0.33 -0.58,-0.33 -0.38,-0.51 -0.77,-2.52 -0.72,-1.62 -1.1,-1.63 -0.96,-0.95 -0.27,0 0,0 0.76,-1.96 3.52,-3.46 2.82,-0.99 5.5,-1.16 1.83,-1.15 1.55,-4.46 1.27,-0.99 1.55,-0.17 2.67,0.33 4.43,0.19 0,0 -1.97,2.91 1.44,5.41 3.33,1.43 4.76,0.68 4.39,-1.57 3.24,-3.52 3.28,-1.94 3.8,3.51 3.46,1.66 7.45,3 7.99,-0.04 3.14,3.28 -0.51,7.3 z" 
                fill="rgb(151, 144, 238)" 
                stroke="white" 
                stroke-width=".7px"
                title="Jerusalem" 
                id="IL-JM" 
            />
        </svg>