<svg xmlns="http://www.w3.org/2000/svg" viewBox="0.2893038499999969 180.82854999999992 232.0199961500001 268.30000000000007" width="232.0199961500001" height="268.30000000000007">
            <path 
                d="m 54.949304,385.00855 0.02,3.87 -1.53,2.72 -4.99,1.19 -15.95,15.44 -1.38,1.33 -5.75,7.39 -0.68,2.26 -0.83,2.78 0.43,5.79 0.04,5.41 -1.9,3.49 -6.37,5.5 -1.31,1.13 -7.7600002,5.82 -6.69999995,-22.25 0.38,-0.29 5.11999995,-5.01 5.8900002,-6.31 1.87,-1.67 1.58,-1.45 3.21,-3.35 2.54,-2.79 4.07,-4.91 1.01,-1.4 1.34,-1.56 3.78,-4.19 7.85,-10.13 4.32,-6.24 1.86,-3 7.5,6.96 2.34,3.47 z m 177.239996,-136.33 -0.48,-1.61 -0.17,-3.25 -0.67,-2.9 0.62,-4.49 -1.18,-2.93 0.04,-1.44 0.84,-2.36 -1.35,-3.62 0.13,-1.63 0.55,-1.42 0.49,-3.04 -0.42,-1.19 -1.27,-1.58 0.33,-3.64 -4,-1.15 -5.08,-2.37 -2.17,-0.66 -3.92,-0.17 -2.58,0.75 -2.18,-0.35 -1.14,-1.01 0.05,-1.03 -1.23,-1.58 -1,-2.94 0.21,-4.06 -0.54,-4.36 -2.8,-4.74 -2.79,-2.08 -1.46,-0.36 -3.32,-0.05 -8.43,1.55 -2.01,-0.01 -1.37,-0.36 -2.71,-1.34 -2.65,-1.94 -3.07,-3.19 -2.39,-1.3 -1.67,0.26 -0.91,0.46 -3.17,3.58 -0.6,1.24 -2.06,2 -3.4,2.47 -4.29,2.19 -6.93,2.62 -1.31,0.99 -1.03,1.93 -0.57,1.08 -0.76,2.83 -0.8,5.21 -1.5,4.16 -0.71,5.15 -1.21,1.17 -4.48,2.01 -1.15,1.45 -1.83,3.44 -0.19,5.47 0.81,5.81 -0.57,1.51 -0.36,0.26 -1.09,0.78 -2.37,3.43 -3.12,7.05 -0.29,2.37 0.08,2.35 2.35,3.52 0.93,1.95 1.31,5.78 0.21,2.6 -0.55,2.12 -1.4,2.65 -0.1,0.81 -0.1,0.8 0.54,1.34 1.8,1.92 0.24,0.45 1.74,3.32 0.57,2.33 -0.4,2.98 -1.39,3.01 0.04,1.36 0.33,1.09 -0.76,0.62 0.76,2 -2.36,5.05 0.42,4.58 2.64,3.56 3.94,3.14 0.83,3.24 -1.53,4.72 -8.6,1.54 -2.13,3.15 1.44,5.41 3.33,1.43 4.76,0.69 4.39,-1.58 3.24,-3.52 2.35,-1.39 0.94,-0.55 3.79,3.51 3.47,1.66 7.44,3 8,-0.04 3.14,3.28 -0.52,7.3 -1.8,2.81 -0.24,0.37 -8.69,0.23 -7.35,3 -7.45,7.37 -1.56,1.54 -8.08,3.88 -2.86,2.5 -5.26,5.68 -1.57,2.62 -2.67,3.98 -1.52,7.56 0.75,8.2 -0.64,3.5 -3.45,6.55 -3.82,4.93 -3.35,6.73 0.47,4 1.94,3.13 2.76,2.29 4.28,1.14 7.82,-1.03 7.23,-1.8 7.04,0.59 9.94,0.64 3.64,-1.89 2.39,0.55 3.73,-0.64 3.22,-0.27 4.15,-0.78 2.53,-1.52 5.03,-5.15 4.29,-4.83 5.58,-2.48 5.72,-4.18 1.67,-1.47 4.43,-3.91 2.72,-0.96 11.39,0.16 0.12,-8.34 0.35,-8.99 3.64,-12.49 3.74,-11.77 1.59,-5.01 0.2,-0.36 4.17,-7.48 -2.13,-11.79 1.36,-3.83 -1.79,-2.87 1.68,-3.32 -3,-1.91 -1.68,-8.51 3.11,-3 1.09,-7.22 -2.88,-6.34 1.61,-2.34 -0.28,-1.38 -1.89,-2.18 -0.38,-8.72 0.49,-0.98 0.93,-1.86 0.56,-3.59 2.43,-3.29 0.66,-2.25 0.49,-5.4 1.11,-5.06 1.49,-2.94 0.42,-1.73 -0.12,-2.34 z" 
                fill="rgb(151, 144, 238)" 
                stroke="white" 
                stroke-width=".7px"
                title="Palestine" 
                id="PS" 
            />
        </svg>