<svg xmlns="http://www.w3.org/2000/svg" viewBox="86.859304 253.63855000000012 26.44999600000004 39.700000000000045" width="26.44999600000004" height="39.700000000000045">
            <path 
                d="m 86.859304,291.30855 0.38,-1.49 0.38,-0.89 0.15,-1.3 0.38,-0.5 -0.24,-0.17 0.34,-1.13 0.28,-0.45 0,-0.33 0.2,-0.45 0.24,-0.28 0.14,-1.24 0.57,-0.45 0,-0.51 -0.19,-0.16 0.53,-0.51 0.33,0 0.43,-0.34 0.53,-0.84 0.34,-1.07 0.24,-0.34 0.04,-0.5 -0.09,-0.12 0.29,-0.11 -0.2,-0.28 0.15,-0.17 -0.1,-0.05 0.1,-0.4 0.72,-1.68 0.04,-0.51 0.21,-0.11 0.13,-0.34 -0.24,-0.68 0,-0.56 0.38,-0.28 0.19,0.06 0.29,-0.9 0.43,-0.85 -0.24,-0.45 0.05,-0.33 0.14,0 0.1,0.28 0.19,0 0.53,-1.63 0.33,-1.69 0.43,-0.57 0.15,-0.39 -0.05,-0.22 0.14,-0.12 0.48,-1.85 0,-0.85 0.58,-1.46 -0.1,-0.62 0.53,-0.28 -0.05,-0.45 -0.34,-0.23 0.1,-1.29 0.19,-0.17 0.29,0.11 0.09,-0.17 0.68,-2.25 0.47,-2.53 0.34,-0.58 0,0 1.269996,0.04 3.68,0.45 1.35,0.51 1.29,1.13 0.91,0.45 0.52,0.9 1.49,0.79 0.29,0.67 -0.1,2.65 -0.34,1.07 0.48,1.35 -0.04,1.74 -0.53,1.3 -1.15,2.08 -1.48,1.8 -0.24,1.57 -0.05,1.75 -0.24,0.67 -0.14,1.13 0.14,0.78 0.57,0.79 1.68,1.13 0.67,0.73 0.24,0.67 0.91,5.51 1.91,0.84 0.72,0.74 0.24,0.67 -0.05,0.9 -0.67,0.67 -1.67,-0.17 -1.15,0.29 -0.53,0.33 -0.19,0.34 -0.96,0.39 -0.67,-0.28 -0.86,-1.46 -0.96,-0.39 -0.86,0 -1.15,0.67 -2.3,2.81 -1.19,1.12 -1.439996,0.4 -2.68,0.17 -1.2,-0.17 -1.48,-0.84 -3.07,0.05 -1.15,-0.22 -0.81,-0.62 z" 
                fill="rgb(151, 144, 238)" 
                stroke="white" 
                stroke-width=".7px"
                title="Tel-Aviv" 
                id="IL-TA" 
            />
        </svg>