<svg xmlns="http://www.w3.org/2000/svg" viewBox="333.4510699999995 0.3218073999999713 273.76000000000045 236.47000260000007" width="273.76000000000045" height="236.47000260000007">
            <path 
                d="m 607.21107,0.3218074 -2.93,4.17 0.24,2.92 -1.52,0.99 0.47,4.7799996 -1.07,0.42 0.05,1.79 -1.02,0.22 -0.99,1.96 -7.19,0.77 -1.05,1.75 -4.71,0.13 -1.94,2.47 -1.39,-0.42 -1.26,1.7 -7.51,1.44 -10.96,8.17 -0.08,2.85 -1.83,0.26 -0.71,1.31 -1.55,6.94 -2.59,0.51 -5.44,5.15 -5.54,1.73 -17.92,16.63 -11.59,4.38 -6.62,4.09 -7.35,2.91 -14.12,9.43 -14.81,15.970003 0,3.7 -1.75,2.78 0.26,2.46 -2.85,3.99 -13.52,2.2 -3.84,-2.2 -3.27,1.12 -2.38,-0.32 -5.15,2.97 -3.71,3.67 -3.48,7.5 -2.12,2.01 -4.39,7.43 0.18,9.85 -1.18,2.33 0.03,3.47 3.11,8.63 -0.42,2.42 1.05,2.33 1.99,0.32 4.03,8.34 2.35,0.99 0.78,-0.54 0.37,1.15 -1.75,-0.38 1.05,1.31 1.6,-0.35 0.08,1.31 0.79,0.06 0.76,4.27 7.11,10.18 2.62,1.34 4.58,5.25 2.72,1.27 6.46,7.89 1.07,3.24 2.56,1.11 -0.68,1.46 0.6,1.65 3.9,5.05 -2.35,1.14 0.16,0.73 1.6,1.88 0.08,2.29 1.36,1.14 0.94,-0.6 0.5,1.56 -0.58,1.65 -1.62,-0.48 0.39,-1.37 -1.33,-0.86 -2.48,1.88 -3.11,-2.96 -6.72,-2.03 -3.48,-2.77 -2.17,-0.19 -1.31,1.02 -3.69,-1.43 -1.54,0.99 -0.71,-1.4 -1.99,0.19 -0.47,-0.73 -2.01,0.95 -1.41,-0.35 -0.39,1.97 -1.83,-0.64 -12.29,3.53 -0.13,0.51 0,0 -2.72,0.86 -2.88,-1.11 -3.48,-8.77 -0.24,-3.24 -11.64,0.35 -2.83,-2.48 -8,-0.06 0.86,-1.97 -1.05,-0.79 -2.56,0.38 -0.1,-2.61 -3.98,-2.45 -0.21,-3.37 -3.5,-2.1 -5.54,4.55 -1.23,-0.25 -2.17,-3.69 2.9,-6.81 -1.15,-1.21 -1.23,-0.16 -3.19,4.04 -2.46,-0.45 -0.94,0.67 -0.99,2.42 -5.55,0.76 -1.36,-7.99 0.37,-4.58 -7.22,-4.3 -0.94,-2.29 -3.06,1.31 -4.05,0.25 0,0 -1.73,-4.23 -1.6,-0.83 -3.5,0.89 -2.62,-0.76 -0.21,-1.37 -1.52,0.54 -1.73,-1.72 -0.76,-2.96 0.73,-1.75 1.86,-0.38 3.95,-4.4 0.94,-2.68 -0.13,-4.01 -2.25,-2.33 -1.05,-8.51 1.15,-1.34 2.64,-0.16 0.44,-1.31 -1.41,-3.35 -2.8,-1.28 0.26,-2.87 -1.67,-5.01 0.24,-3.48 0,0 -2.09,-3.8 0.44,-0.54 2.67,-0.32 10.57,-5.97 4.66,-1.18 1.78,-2.62 2.54,0.77 6.36,-1.79 0.81,-2.3 2.41,-0.64 0.37,-2.23 -2.41,0.19 -1.7,-1.44 -0.76,-3.29 0,0 1.05,-1.47 1.44,-0.32 0.99,0.83 1.91,-1.63 0.94,0.61 2.54,-1.37 5.26,-4.02 0.73,-1.820003 2.72,-0.42 1.52,-1.76 1.8,-0.32 0.79,-1.69 1.99,-0.16 3.11,-2.24 2.88,-0.29 1.83,-1.34 4.5,0.67 4.03,-1.05 3.37,1.02 8.61,-0.42 7.77,-2.46 2.56,-2.36 2.56,0.58 0.99,-1.05 3.95,-0.7 0.47,-1.41 3.87,0.19 3.06,-1.57 1.2,-1.66 3.17,0.61 3.35,-0.99 3.06,-2.84 5.21,-1.02 5.05,-3.96 1.2,0.64 3.66,-1.57 1.91,-2.62 1.57,0.22 3.09,-1.95 2.59,-2.94 2.07,0.54 9.81,-3.55 4.11,-6.85 2.67,-1.54 0.92,-2.82 3.74,-1.79 0.79,-4.29 1.25,-1.09 1.94,0.1 1.94,1.66 3.32,-0.06 1.2,-1.54 1.36,1.92 1.78,-1.73 0.37,1.22 2.17,0.03 3.19,-1.63 1.81,-2.88 3.19,0.16 1.1,-1.54 0.52,0.77 1.2,-0.45 1.67,-1.82 0.39,1.02 2.28,0.16 4.87,-4.03 3.01,-1.09 1.78,-4.07 1.8,1.15 3.17,-3.07 0.18,-4.1 2.54,-0.29 0.21,-0.8 2.98,0.16 1.18,-2.02 3.17,-1.28 3.11,-0.71 0.5,1.19 2.77,-0.35 1.25,-2.15 1.52,0.1 0.37,-1.44 1.18,0 3.71,-3.08 3.9,-0.22 0.63,1.19 1.39,0.03 4.84,-2.47 2.62,0.38 3.61,-3.1099996 0.24,-2.4 1.52,-0.26 0.73,2.02 2.69,0 1.94,-2.24 1.67,-0.1 -0.29,-0.83 2.07,-1.44 -0.05,-0.99 3.45,-1.35 7.86,-1.03 z" 
                fill="rgb(151, 144, 238)" 
                stroke="white" 
                stroke-width=".7px"
                title="Famagusta" 
                id="CY-04" 
            />
        </svg>