<svg xmlns="http://www.w3.org/2000/svg" viewBox="170.88106999999985 94.84180700000003 195.94000000000005 54.440002999999976" width="195.94000000000005" height="54.440002999999976">
            <path 
                d="m 173.87107,96.751807 5,2.43 4.03,0.73 7.35,6.450003 0.92,-0.67 7.11,1.44 1.62,-0.89 4.55,3.19 4.24,1.05 8.5,0.35 3.06,-2.14 1.41,-2.43 1.1,1.56 3.45,-0.35 1.1,1.5 8.4,2.71 3.82,0.42 3.06,-2.52 2.64,0 10.07,4.44 3.01,-0.73 0.86,-1.28 4.53,1.92 3.48,-1.18 3.69,2.07 4.55,-0.13 2.69,0.22 4.6,2.17 3.56,-0.83 2.59,1.05 1.81,-1.4 1.28,1.28 0.76,-0.57 5.15,1.02 1.05,-0.8 0.99,1.05 2.96,0.06 2.48,-1.28 4.84,0.41 2.35,-0.8 1.7,1.34 2.88,0.1 2.28,-1.15 0.86,0.48 0.76,-1.09 4.71,-0.35 5.1,-2.36 1.96,0.8 7.01,-0.8 9.44,-3.06 1.23,-1.4 1.44,1.69 6.25,-1.56 0.79,0.96 3.01,-0.77 0,0 0.76,3.29 1.7,1.44 2.41,-0.19 -0.37,2.23 -2.41,0.64 -0.81,2.3 -6.36,1.79 -2.54,-0.77 -1.78,2.62 -4.66,1.18 -10.57,5.97 -2.67,0.32 -0.44,0.54 2.09,3.8 0,0 -2.07,0.86 -3.35,-1.53 -5.07,2.23 -1.94,-0.7 2.22,-0.16 1.1,-1.15 -3.82,-0.89 -0.86,1.31 -3.22,0.41 -8.61,-0.64 -3.48,3.92 -0.39,1.85 0.84,1.98 -0.92,2.1 -1.78,-0.16 -6.54,3.16 -8.03,1.18 -2.43,-0.73 -10.12,0.19 -1.33,1.4 -2.17,-2.39 -6.59,-1.21 -0.81,1.53 -3.56,-3.22 -1.99,-0.51 -0.81,1.15 -1.28,-1.05 -0.99,1.56 -1.57,-1.02 -0.39,2.42 -2.33,-0.35 -0.63,3.48 -0.86,-1.31 -3.92,0.7 -1.07,-3.63 -1.57,-0.35 -1.49,-1.75 -1.33,0.92 -4.45,-0.38 -0.21,-1.37 -3.03,-1.44 -0.86,0.86 1.2,1.79 -2.67,-0.32 -0.18,-1.56 -0.71,0.16 -0.97,0.77 0.18,2.36 -2.93,-2.01 -0.97,0.22 0.71,0.96 -0.84,0.48 -2.96,-1.59 -1.73,0.48 -1.07,-0.67 -4.16,0.96 -5.21,-0.45 -2.25,1.63 -3.92,-1.95 -0.97,-1.63 -2.33,-0.26 0.18,-3.57 -1.62,1.95 -4,1.95 -1.15,-1.08 -7.19,0.29 -0.89,1.24 -3.79,-0.51 -6.23,-3.09 -3.27,-0.51 0,0 0.86,-11.68 -1.2,-4.79 0.1,-6.8 -0.5,-1.76 -1.94,-0.45 -0.92,-2.78 -0.37,-14.470003 2.99,1.91 z" 
                fill="rgb(151, 144, 238)" 
                stroke="white" 
                stroke-width=".7px"
                title="Kyrenia" 
                id="CY-06" 
            />
        </svg>