<svg xmlns="http://www.w3.org/2000/svg" viewBox="224.6410700000001 185.97181 202.56000000000003 126.50999999999988" width="202.56000000000003" height="126.50999999999988">
            <path 
                d="m 347.05107,187.53181 4.06,-0.25 3.06,-1.31 0.94,2.29 7.22,4.3 -0.37,4.58 1.36,7.99 5.55,-0.77 0.99,-2.41 0.94,-0.67 2.46,0.44 3.19,-4.04 1.23,0.16 1.15,1.21 -2.9,6.81 2.17,3.69 1.23,0.25 5.55,-4.55 3.5,2.1 0.21,3.37 3.98,2.45 0.1,2.61 2.56,-0.38 1.05,0.79 -0.86,1.98 8,0.06 2.83,2.48 11.64,-0.35 0.23,3.24 3.48,8.77 2.88,1.12 2.72,-0.86 0,0 -0.24,1.87 -2.56,3.02 -5.91,3.15 -2.75,0.38 -7.3,-6.39 -13.91,-5.37 -1.44,0.51 -5.57,-1.02 -1.42,0.83 -2.85,-1.08 -0.86,0.98 -6.12,0.04 -6.85,2.12 -6.02,4.17 -2.85,4.44 -1.31,3.94 1.31,2.04 -1.07,-0.67 -0.26,0.63 0.36,0.67 -0.63,2.6 0.84,-0.22 -1.36,0.92 0.24,6.32 -1.08,5.37 0.87,3.65 -7.82,9.64 -1.52,6.09 -5.28,-1.55 -8.19,0.44 -8.97,8.02 -4.58,2.35 -1.15,2.82 -6.33,0.41 -11.28,3.78 -3.32,3.45 -5.78,1.46 -6.17,5.04 -6.18,0.06 -5.72,3.77 -2.46,0.06 0.94,1.11 -3.48,-1.74 0.58,-0.63 -0.95,-0.35 -4.21,-0.16 -3.16,1.84 0,0 -1.52,-2.16 0.71,-2.5 -1.21,-2.03 1.26,-4.05 0.68,-7.99 -4.16,-7.48 -1.78,-1.84 -3.5,-1.15 -1.49,-4.37 -1.65,-0.48 -0.87,-2.69 -4.31,-3.24 -5.97,-0.54 -0.39,-1.05 -4.5,-1.71 -5.05,0.38 -0.96,-0.32 0,-1.46 -1.7,0.42 -2.38,-0.96 1.59,-7.42 0,0 4.68,-4.76 4.56,-0.58 -0.58,-2.35 2.04,-1.93 0.68,1.68 1.28,-0.38 0.76,1.49 1.2,-1.55 2.2,0.25 0.84,2.83 4.47,-0.26 3.51,-2.13 2.14,0 -0.57,1.91 3.74,0.22 0.05,2.92 -1.44,0.83 3.9,0.06 2.35,-2.7 5.26,-2.19 3.48,-3.36 0.99,-3.94 3.56,-2.29 1.15,-1.87 3.92,2.41 0.87,2.45 3.92,-1.97 4.66,-0.7 5.93,1.94 2.41,-1.34 2.41,-5.27 -1.34,-3.37 0.03,-4 3.66,0.6 3.61,3.02 1.47,-0.63 1.12,1.62 5.86,-4.61 7.72,3.72 -1.13,-2.07 0.55,-2.61 1.31,-1.74 2.09,-0.73 -0.6,-1.62 1.18,-0.42 -0.92,-3.59 1.96,0.67 0.21,-2.61 -2.17,-0.63 -2.56,-6.3 -0.94,-5.82 -2.96,0.64 -0.52,-0.64 1.17,-5.76 3.22,-1.59 -0.13,-1.53 2.33,-0.98 0,-3.06 -1.31,-1.17 1.36,-2.36 2.51,-0.51 1.52,-1.81 3.82,1.05 1.46,2.67 3.56,0 1.75,1.78 3.82,0.35 z" 
                fill="rgb(151, 144, 238)" 
                stroke="white" 
                stroke-width=".7px"
                title="Larnaca" 
                id="CY-03" 
            />
        </svg>