<svg xmlns="http://www.w3.org/2000/svg" viewBox="97.36107200000002 234.53180999999998 166.069998 125.46000000000006" width="166.069998" height="125.46000000000006">
            <path 
                d="m 131.67107,252.07181 0.21,-5.43 1.78,-4.2 -0.76,-3.08 1.08,-1.46 3.97,0.07 0.5,-2.55 1.2,-0.89 7.9,2.8 4.11,2.6 3.32,-0.25 2.14,2.67 4.84,0.25 2.46,-0.92 5.86,1.56 10.36,-6.93 3.69,1.4 5.83,0.1 5.05,7.02 2.56,0.28 3.85,2.8 2.14,0.16 0.63,3.33 1.88,3.27 3.4,2.67 1.97,-0.61 1.23,-1.93 3.74,-0.42 3.61,1.02 1.43,2.6 2.33,-0.31 2.25,1.11 0,0 -1.59,7.42 2.38,0.96 1.7,-0.42 0,1.46 0.96,0.32 5.05,-0.38 4.5,1.71 0.39,1.05 5.97,0.54 4.31,3.24 0.87,2.69 1.65,0.48 1.49,4.37 3.5,1.15 1.78,1.84 4.16,7.48 -0.68,7.99 -1.26,4.05 1.21,2.03 -0.71,2.5 1.52,2.16 0,0 -1.21,3.13 -2.95,0.95 -17.13,-0.25 -11.96,-2.22 -21.71,7.98 -3.27,2.41 -2.61,3.71 0.02,-0.64 -2.72,0.57 -2.59,2.63 0.47,3.01 -2.01,-1.4 -1.39,3.17 -1.46,6.55 0.65,9.36 4.61,4.18 2.56,3.89 -2.25,1.52 -6.8,-2.37 -7.22,-0.98 -2.54,1.67 -4.47,-0.85 -3.66,1.29 -0.08,-0.91 2.01,-1.58 -0.6,-3.2 -0.76,-0.22 0.66,-1.61 -3.82,-8.86 -3.51,-5.95 -9.28,-9.02 -2.96,0.41 -3.84,-1.3 -1.47,1.9 -4.79,-1.2 -1.28,1.64 -7.37,-0.79 -4.56,2.35 -3.61,0 -0.81,1.77 -1.75,0.13 -1.31,1.26 -6.12,-0.98 -1.04,0.63 -0.42,1.93 -3.27,0.32 -6.59,-3.58 -8.109998,-1.99 0,0 -0.68,-7.16 0.97,-2.88 -2.04,-4.21 2.45,-0.51 2.279998,-1.74 -0.47,-2.15 1.23,-2.38 1.75,0.54 2.88,-1.08 2.35,-2.85 1.28,0.03 1.1,-2.28 1.89,-0.25 0.83,-1.3 2.23,0.22 1.2,-6.62 1.28,-0.57 -1.99,-2.86 -3.37,-0.7 0.26,-2.4 -1.62,-0.99 2.95,-3.11 2.18,0.77 0.39,-3.78 1.57,-2.06 5.7,-2.28 -0.26,-2.79 1.49,-4.41 4.11,-3.5 2.77,-1.04 1.2,-2.95 2.38,-0.73 -0.42,-3.72 -4.44,-1.17 z" 
                fill="rgb(151, 144, 238)" 
                stroke="white" 
                stroke-width=".7px"
                title="Limassol" 
                id="CY-02" 
            />
        </svg>