<svg xmlns="http://www.w3.org/2000/svg" viewBox="78.29107199999994 132.89180999999996 268.7899980000002 125.94000000000005" width="268.7899980000002" height="125.94000000000005">
            <path 
                d="m 174.86107,137.54181 3.27,0.51 6.23,3.09 3.79,0.51 0.89,-1.24 7.19,-0.29 1.15,1.08 4,-1.95 1.62,-1.95 -0.18,3.57 2.33,0.26 0.97,1.63 3.92,1.95 2.25,-1.63 5.21,0.45 2.46,-0.96 4.5,0.19 2.96,1.59 0.84,-0.48 -0.71,-0.96 0.97,-0.22 2.93,2.01 -0.18,-2.36 0.97,-0.77 0.71,-0.16 0.18,1.56 2.67,0.32 -1.2,-1.79 0.86,-0.86 3.03,1.44 0.21,1.37 4.45,0.38 1.33,-0.92 1.49,1.75 1.57,0.35 1.07,3.63 3.92,-0.7 0.86,1.31 0.63,-3.48 2.33,0.35 0.39,-2.42 1.57,1.02 0.99,-1.56 1.28,1.05 0.81,-1.15 1.99,0.51 3.56,3.22 0.81,-1.53 6.59,1.21 2.17,2.39 1.33,-1.4 10.12,-0.19 2.43,0.73 8.03,-1.18 6.54,-3.16 1.78,0.16 0.92,-2.1 -0.84,-1.98 0.39,-1.85 3.48,-3.92 8.61,0.64 3.22,-0.41 0.86,-1.31 3.82,0.89 -1.1,1.15 -2.22,0.16 1.94,0.7 5.07,-2.23 3.35,1.53 2.07,-0.86 0,0 -0.24,3.48 1.67,5.01 -0.26,2.87 2.8,1.28 1.41,3.35 -0.44,1.31 -2.64,0.16 -1.15,1.34 1.05,8.51 2.25,2.33 0.13,4.01 -0.94,2.68 -3.95,4.4 -1.86,0.38 -0.73,1.75 0.76,2.96 1.73,1.72 1.52,-0.54 0.21,1.37 2.62,0.76 3.5,-0.89 1.6,0.83 1.73,4.23 0,0 -3.74,6.65 -3.82,-0.35 -1.75,-1.78 -3.56,0 -1.46,-2.67 -3.82,-1.05 -1.52,1.81 -2.51,0.51 -1.36,2.35 1.31,1.18 0,3.06 -2.33,0.99 0.13,1.53 -3.22,1.59 -1.18,5.76 0.52,0.64 2.96,-0.64 0.94,5.82 2.56,6.3 2.17,0.64 -0.21,2.61 -1.96,-0.67 0.92,3.59 -1.18,0.41 0.6,1.62 -2.09,0.73 -1.31,1.75 -0.55,2.61 1.13,2.06 -7.72,-3.72 -5.86,4.61 -1.13,-1.62 -1.46,0.64 -3.61,-3.02 -3.66,-0.6 -0.03,4 1.33,3.37 -2.41,5.27 -2.41,1.33 -5.94,-1.94 -4.66,0.7 -3.92,1.97 -0.86,-2.45 -3.92,-2.41 -1.15,1.87 -3.56,2.29 -0.99,3.94 -3.48,3.37 -5.26,2.19 -2.35,2.7 -3.9,-0.06 1.44,-0.83 -0.05,-2.92 -3.74,-0.22 0.58,-1.9 -2.15,0 -3.5,2.13 -4.47,0.25 -0.84,-2.83 -2.2,-0.25 -1.2,1.56 -0.76,-1.49 -1.28,0.38 -0.68,-1.68 -2.04,1.94 0.58,2.35 -4.55,0.57 -4.68,4.76 0,0 -2.25,-1.11 -2.33,0.32 -1.44,-2.6 -3.61,-1.02 -3.74,0.41 -1.23,1.94 -1.96,0.6 -3.4,-2.67 -1.88,-3.27 -0.63,-3.33 -2.15,-0.16 -3.84,-2.79 -2.56,-0.29 -5.05,-7.02 -5.83,-0.1 -3.69,-1.4 -10.36,6.93 -5.86,-1.56 -2.46,0.92 -4.84,-0.25 -2.15,-2.67 -3.32,0.25 -4.11,-2.6 -7.9,-2.8 -1.2,0.89 -0.5,2.54 -3.98,-0.06 -1.07,1.46 0.76,3.08 -1.78,4.19 -0.21,5.43 0,0 -2.85,0.92 -0.13,-2.64 -4.71,-1.87 -1.86,1.37 -0.71,4 -1.28,0.41 -1.12,3.43 -6.46,-2.54 2.2,-0.79 1.41,-2.13 -5.18,-0.83 0.31,2.7 -1.33,2.79 -2.48,-4.7 -2.64,-1.62 -1.23,-7.34 0.78,-1.08 2.3,0.16 -0.18,-4.35 1.91,-3.21 -0.81,-5.47 -2.33,-0.57 2.35,-3.05 -0.24,-2.19 -1.86,-3.88 -1.96,-0.76 -0.31,-3.94 -1.39,-1.72 -7.009998,-2.29 -2.93,-7.03 -2.25,-0.6 1.83,-2.26 0.39,-2.23 3.11,0.29 1.7,-1.85 -0.63,-1.13 0.63,-9.64 -5.91,-2.39 0.05,-5.19 -4.81,-2.36 -3.4,-4.87 -3.19,-1.46 -1.18,-1.53 0,0 3.74,-0.92 2.3,-1.82 3.95,0.16 4.68,-4.56 1.88,1.15 2.04,-0.45 1.39,-1.43 2.299998,-0.22 2.9,1.18 1.33,-0.73 0.97,1.75 1.62,0.57 5.02,1.18 4.05,-0.19 4.58,1.85 2.12,-0.61 1.57,2.17 9.94,3.66 3.17,3.18 5.39,1.75 2.54,1.94 3.87,-0.8 7.82,-5.29 3.35,-0.76 4.53,-4.87 3.82,-7.65 5.7,-21.35 z" 
                fill="rgb(151, 144, 238)" 
                stroke="white" 
                stroke-width=".7px"
                title="Nicosia" 
                id="CY-01" 
            />
        </svg>