<svg xmlns="http://www.w3.org/2000/svg" viewBox="0.2610718400000791 166.49181000000033 137.15999815999993 163.38999999999976" width="137.15999815999993" height="163.38999999999976">
            <path 
                d="m 76.171072,168.46181 2.12,0.19 0,0 1.18,1.53 3.19,1.46 3.4,4.87 4.81,2.36 -0.05,5.19 5.91,2.39 -0.63,9.64 0.63,1.11 -1.7,1.85 -3.11,-0.29 -0.39,2.23 -1.83,2.26 2.25,0.6 2.93,7.03 7.009998,2.29 1.39,1.72 0.31,3.94 1.96,0.76 1.86,3.88 0.24,2.19 -2.35,3.05 2.33,0.57 0.81,5.47 -1.91,3.21 0.18,4.35 -2.3,-0.16 -0.78,1.08 1.23,7.34 2.64,1.62 2.48,4.7 1.33,-2.79 -0.31,-2.7 5.18,0.83 -1.41,2.13 -2.2,0.79 6.46,2.54 1.12,-3.43 1.28,-0.41 0.71,-4 1.86,-1.37 4.71,1.87 0.13,2.64 2.85,-0.92 0,0 0.86,4.92 4.45,1.17 0.42,3.71 -2.38,0.73 -1.2,2.95 -2.77,1.05 -4.11,3.49 -1.49,4.41 0.26,2.79 -5.7,2.28 -1.57,2.06 -0.39,3.77 -2.17,-0.76 -2.96,3.11 1.62,0.98 -0.26,2.41 3.37,0.7 1.99,2.85 -1.28,0.57 -1.2,6.62 -2.22,-0.22 -0.84,1.3 -1.88,0.25 -1.1,2.28 -1.28,-0.03 -2.35,2.85 -2.88,1.08 -1.75,-0.54 -1.23,2.38 0.47,2.15 -2.279998,1.74 -2.46,0.51 2.04,4.21 -0.97,2.88 0.68,7.16 0,0 -3.92,-2.18 -5.52,-0.98 -5.49,-4.59 -4.26,-1.14 -5.36,-3.77 -1.46,0.41 -2.41,-1.14 -2.3,0.76 -4.05,-3.1 -5.39,1.3 -2.01,-2.19 -1.67,0.03 -1.99,-2.82 -6.33,-4.78 -3.71,-0.32 -0.21,-1.27 -2.3,-1.52 -2.43,-3.77 -1.65,0.79 -2.41,-0.52 1.73,-3.68 -1.46,-5.93 -1.86,-1.59 -0.08,-8.63 -1.75,-1.97 0.78,-0.32 -0.55,-0.86 0.81,-1.27 -0.65,-2.63 -1.78,-2.32 -3.3,-0.1 0.55,-1.21 -0.97,-1.14 -1.52,1.02 -0.34,-1.84 -3.19,0.16 -1.57,-4.95 -2.15,-1.4 -0.26,-2.25 -4.16,-4.83 -0.21,-0.98 2.54,-2.25 0.05,-4.64 -3.37,-7.27 -2.7200002,-0.86 0.03,-2.64 1.7500002,0.57 1.28,-1.91 -1.13,-2.13 1.13,-3.53 -0.68,-2.45 0.68,-2.23 -4.6800002,-6.87 -1.62,0.25 0.24,-1.43 -2.72,-4.36 -1.18,-0.38 0.63,-1.53 -1.59999996,-2.26 0.49999996,-1.88 -1.19999996,-5.1 1.22999996,-3.18 -0.13,-2.77 0.92,-1.11 -0.1,-2.04 1.15,-0.19 1.26,-1.81 4.55,4.58 -0.55,0.7 0.99,1.78 10.8500002,7.64 3.32,3.85 5.21,2 5.81,0.64 7.93,-1.94 6.57,-3.94 6.28,-5.57 6.98,-10.85 4.42,-10.79 0.97,0.1 3.32,-2.93 2.83,-6.63 1.26,-0.51 0.84,1.97 z" 
                fill="rgb(151, 144, 238)" 
                stroke="white" 
                stroke-width=".7px"
                title="Paphos" 
                id="CY-05" 
            />
        </svg>