<svg xmlns="http://www.w3.org/2000/svg" viewBox="43.116011000000036 309.37195 181.74999899999997 164.78000000000003" width="181.74999899999997" height="164.78000000000003">
            <path 
                d="m 52.276011,352.46195 2.36,0.07 0.29,-2.89 3.6,-0.4 0.81,-2.95 5.95,-3.59 8.96,5.37 0.66,-5.96 2.23,0.06 -0.66,-3.08 1.68,-2.79 5.32,1.61 0.33,-1.34 6.37,5.62 0.42,2.27 6.84,-6.97 0.26,-3.5 6.409999,-1.97 2.07,-8.32 -2.23,-1.11 2.96,-2.13 0.13,-2.99 6.71,-2.31 -0.76,-2.31 2.48,-0.73 -2.53,-1.2 1.22,-1.55 2.67,0.08 0.36,2.13 5.87,2.22 2.69,-0.54 -0.96,5.24 3.32,-0.21 3.49,5.01 5.85,-5.43 0.62,-3.94 2.56,-2.63 0,0 7.73,0.08 4.86,3.32 2.2,4.22 -1.49,4.67 7.83,1.25 1.9,4.56 10.1,5.38 5.92,-0.05 0.27,-2.03 2.64,-0.87 5.91,0.79 0.68,-6.08 5.02,-1.64 10.41,1.97 5.35,4.14 0,0 0,0.8 0,0 1.44,3.67 -4.13,3.22 2.18,9.91 11.94,-1.04 -1.79,6.74 2.22,1.2 -0.2,8.44 3.25,5.27 0,0 -8,3.01 -3.76,-2.77 -0.6,2.09 -3.19,1.38 2.15,6.94 -3.75,2.19 -0.28,4.57 1.61,2.08 -3.09,0.28 1.34,1.64 -5.02,0.39 -0.22,5.53 -3.59,-1.48 -0.97,2.42 2.74,1.09 -0.8,2.64 -3.4,1.14 1.16,6.23 -3.82,-0.98 -1.87,2.24 2.32,2.52 -4.26,3.04 2.21,2.27 -1.4,0.85 0.59,5.94 -7.62,1.15 -3.49,6.22 -0.78,7.23 -6.06,-1.5 0,0 -0.28,0.19 0,0 -2.18,3.2 0,0 -3.14,3.82 3.09,1.75 2.31,7.05 3.41,1.25 1.51,6.94 -1.77,1.23 -1.37,-2.71 -1.31,2.13 -3.41,-0.07 -1,2.22 -2.29,-0.67 -3.75,5.85 -5.71,4.4 -6.63,-4.2 -1.45,-7.41 -7.49,-9.49 -3.22,-0.75 -1.35,-4.81 -3.44,-0.33 -1.54,1.51 -5.1,-6.22 7.11,-7.13 2.92,0.49 2.44,-2.56 0.23,-3.88 2.43,-0.97 -6.22,-8 -6.61,-0.88 -0.97,3.55 -1.92,0.65 -5.15,-3.4 -4.76,6.18 -2.31,-1.41 2.15,-1.6 -1.93,-5.2 -7.87,0.94 -2.8,-7.76 -6.689999,1.75 -6.18,-3.78 -4.9,-0.12 -5.22,-2.92 -3.95,2.95 -0.42,-5.63 -5.48,-5.21 -0.17,-8.62 -2.19,-1.9 -4.1,1.22 -0.14,-3.26 -2.42,2.89 -4.16,-3.17 -4.64,1.15 -1.03,1.98 3.27,2.25 -1.98,4.27 0.75,5.41 -10.88,-0.4 8.56,-17.45 4.6,-18.8 -0.3,-4.7 z" 
                fill="rgb(151, 144, 238)" 
                stroke="white" 
                stroke-width=".7px"
                title="Dolnośląskie" 
                id="PL-DS" 
            />
        </svg>