<svg xmlns="http://www.w3.org/2000/svg" viewBox="191.03601000000012 110.04195 153.53000000000006 146.90999999999997" width="153.53000000000006" height="146.90999999999997">
            <path 
                d="m 199.87601,140.08195 1.83,-9.57 5.46,-4.05 0.85,3.64 3.03,0.68 2.05,-1.87 3.9,2.64 -0.92,-2.94 3.92,-0.19 -1.01,-2.98 2.33,-5.97 4.47,0.44 4.5,-2.56 -1.95,-5.15 5.3,0.52 3.58,3.4 4.24,-6.08 2.35,2.49 2.43,-0.85 1.08,2.42 1.93,-1.27 0,0 0,1.09 0,0 4.17,0.14 -0.25,4.37 11.97,1.53 0.72,-1.66 2.74,-0.19 -0.25,2.46 2.4,2.61 1.91,-0.44 -0.5,-1.86 3.18,0.39 1.55,-2.22 4.72,1.15 2.33,-1.62 -1.82,5.83 1.84,3.84 8.36,1.09 -0.17,1.82 5.48,-1.92 9.22,1.2 0,0 3.42,1.53 0.28,5.8 4.19,10.88 1.9,1.37 0.83,-2.1 4.3,-0.39 3.84,3.26 -0.16,1.82 3.93,-0.77 1.43,3.71 9.13,-0.77 2.7,7.66 -2.77,1.38 0.29,2.41 3.16,0.74 0.09,2.4 0,0 -0.32,0 0,0 1.48,5.21 0,0 -4.22,3.12 0,0 -0.45,-0.15 0,0 -1.11,1.69 -1.89,-0.54 1.07,7.46 2.27,1.7 -1.61,3.42 1.01,3.19 -7.65,-3.48 1.35,3.04 -2.97,2.43 -5.12,-0.99 4.13,8.54 -2.49,-0.21 -2.91,4.85 4.89,4.66 -0.46,2.02 1.61,-0.07 -1.48,1.76 1.61,2.67 -5.15,-1.79 0.58,5.09 -2.17,0.17 -2.86,4.6 3.21,2.54 -3.48,3.17 0,0 -0.81,0.01 0,0 -0.04,4.17 -1.7,-0.24 4.41,1.75 -4.7,6.35 -3.15,0.02 1.51,1.72 0,0 0.35,0.57 0,0 -0.36,2.69 0,0 -4.88,3.23 0.63,2.24 -1.23,-1.7 -9.39,2.67 0,0 -4.71,-2.34 0.38,-1.91 -3.27,-2.46 -0.58,3.36 -9.64,3.32 -2.37,-6.42 -2.19,-0.22 0.22,-2.84 -1.61,0.63 -0.5,-2.83 -3.43,-1.75 -1.99,0.55 -2.27,-3.59 -2.02,-0.55 -1.61,2.8 -4.62,0.62 -1.24,-7.26 -6.52,6.11 -3.45,-0.19 -0.49,-2.18 -6.33,-1.47 0.19,-3.36 -6.57,0.94 0.48,-3.47 -1.32,1.09 -1.97,-2.95 -1.19,1.01 -2.85,-5.62 -2.3,0.55 -2.78,-2.16 -1.38,2.32 -0.41,-2.3 -5.16,5.62 0.17,-4.76 -3.14,-0.43 0.09,-5.63 -3.23,0.43 -3.4,3.25 -3.18,-0.86 0.96,-4.72 -5.05,-2.8 0.33,-2.92 5.78,-0.32 0.9,-14.06 -7.48,-5.57 -4.81,0.91 -0.9,-2.18 1.48,-2.16 0,0 0.3,-0.06 0,0 -0.44,-5.92 2.35,-1.44 -0.65,-3.96 2.39,-1.2 -3.22,-1.31 0.64,-4.69 -1.64,-1.48 5.51,-1.26 1.48,-4.09 -6.04,-8.07 -3.49,-1.17 -0.9,1.44 -1.19,-3.46 z" 
                fill="rgb(151, 144, 238)" 
                stroke="white" 
                stroke-width=".7px"
                title="Kujawsko-Pomorskie" 
                id="PL-KP" 
            />
        </svg>