<svg xmlns="http://www.w3.org/2000/svg" viewBox="457.7860099999995 261.67195 154.55000000000035 198.2500000000001" width="154.55000000000035" height="198.2500000000001">
            <path 
                d="m 550.36601,261.67195 2.86,0.17 0,0 1.46,0.79 0.1,4.9 11.53,2.55 1.83,2.78 4.67,-0.67 -0.83,2.65 3.72,4.2 3.05,-0.69 3.27,3.66 -0.6,2.22 2.81,6.59 -3.78,4.21 1.15,1.57 -2.02,1.61 1.59,2.39 -0.48,2.01 -1.46,-0.42 -0.28,3.52 2.34,3.97 -6.83,7 1.89,2.99 -1.29,5.36 1.69,10.73 2.69,0.57 0.69,3.1 2.62,0.78 -0.8,4.2 3.23,2.6 -1.08,4.96 -2.89,3.47 0.55,4.01 3.12,0 2.6,7.58 7.99,6.12 -0.77,4.96 3.17,2.5 1.55,5.73 -1.32,0.41 2.65,1.97 0.85,3.76 5.06,5.73 5.67,2.24 -2.44,2.8 -6.26,-0.16 -2.53,2.62 0.37,3.75 3.37,0.92 -0.35,4.04 3.31,0.34 -0.51,3.97 2.02,4.11 -0.36,7.12 -3.51,11.18 -2.23,3.25 -16.49,2.25 -2.61,5.42 -8.72,7.86 0,0 -2.14,-1.19 0.63,-3.27 -6.87,-0.81 1.7,-4.27 0,0 -0.44,0 0,0 -2.96,-2.01 0.55,-3.51 -1.74,-0.54 -6.57,5.05 -4.19,-3.61 -9.98,10.38 -25.03,-1.99 0.03,-1.87 4.7,-2.6 -11,1.12 -4.15,-5.32 -2.23,0.38 0.64,-2.6 2.89,-1.11 -0.83,-2.59 6.08,0.83 2.6,-2.46 -3.85,-0.46 3.04,-1.03 -0.38,-1.39 -2.82,0.12 0.53,-6.62 -3.37,-1.46 -2.94,0.98 -4.24,-3.72 -5.5,-0.48 -2.96,-4.18 -4.26,-0.19 4.14,-8.58 -2.28,-4.17 -6.41,-1.89 -3.31,3.39 -6.7,1.1 -2.6,-3.2 0,0 -1.59,-2.93 -2.16,-21.93 0,0 -0.84,-5.52 1.62,-3.1 -1.88,-3.9 3.15,-9.16 -2.81,-0.34 1.8,-0.82 1.71,-5.09 -1.21,-2.6 -1.58,0.57 -2.84,-2.46 2.6,-2.61 2.24,1.01 2.03,-5.63 -3.28,-8.78 -6.52,0.12 -5.83,-5.35 1.89,-4.09 6.24,4.7 0.69,-2.84 5.16,-0.55 -0.02,-2.62 3.69,-2.19 0.3,-2.08 -3.7,-3.64 6.85,-4.6 -1.96,-4.03 -3.96,1.16 -0.82,-1.91 3.63,-4.06 -1.95,-5.24 0.82,-3.95 9.16,-5.33 5.32,2.11 1.53,-2.48 6.89,1.67 2.83,-2.8 2.04,3.39 4.59,-0.7 4.63,-4.85 7.61,5.78 2.84,-4.66 -1.28,-2.71 3.45,-3.3 5.93,4.43 2.38,-1.31 4.06,1.64 0.44,-4.1 3.4,-0.03 -1.57,-2.93 3.03,-3.41 5.4,0.38 -2.64,-4.26 z" 
                fill="rgb(151, 144, 238)" 
                stroke="white" 
                stroke-width=".7px"
                title="Lubelskie" 
                id="PL-LU" 
            />
        </svg>