<svg xmlns="http://www.w3.org/2000/svg" viewBox="25.446011000000027 177.56194999999997 115.17999900000001 174.97000000000008" width="115.17999900000001" height="174.97000000000008">
            <path 
                d="m 29.506011,229.60195 -0.07,-3.59 2.09,-1.77 4.71,2.56 2.27,-1.43 3.25,-11.53 3.98,-3.2 -0.79,-3.01 3.89,-1.21 -2.05,-1.91 2.03,-2.75 5.28,4.37 2.56,-1.8 2.21,2.53 14.95,-6.38 -2.16,-6.48 4.55,1.01 3.33,-3.79 8.18,-2.82 5.7,3.18 2.63,-2.22 2.41,1.22 2.289999,-1.28 -0.979999,-2.08 3.249999,-1.31 -1.68,-2.15 2.51,-0.51 -0.53,-1.96 3.09,-1.37 -0.42,-2.36 8.12,1.94 -1.5,6.34 0,0 -0.6,4.16 0,0 0,0.34 0,0 0.47,3.08 0,0 0.17,0.12 0,0 0.79,10.74 -4.27,2.06 -0.82,2.47 2.6,1.13 0.64,7.19 -8.67,2.02 1.16,3.4 -2.25,6.75 4.27,6.14 -1.43,2.48 3.21,3.2 1.03,4.35 -3.1,1.99 -1.39,-2.71 -0.78,1.75 5.55,4.78 -2.96,12.84 1.53,11.54 -1.85,3.41 4.27,4.48 1.28,-1.71 2.25,1.04 0.53,2.27 -1.83,2.56 3.65,4.84 6.41,-1.85 0.88,6.68 -2.21,3.12 3.68,0.2 2.39,2.16 2.75,-3.51 3,0.8 5.46,4.6 2.21,6.55 0,0 -2.56,2.63 -0.62,3.94 -5.85,5.43 -3.49,-5.01 -3.32,0.21 0.96,-5.24 -2.69,0.54 -5.87,-2.22 -0.36,-2.13 -2.67,-0.08 -1.22,1.55 2.53,1.2 -2.48,0.73 0.76,2.31 -6.71,2.31 -0.13,2.99 -2.96,2.13 2.23,1.11 -2.07,8.32 -6.409999,1.97 -0.26,3.5 -6.84,6.97 -0.42,-2.27 -6.37,-5.62 -0.33,1.34 -5.32,-1.61 -1.68,2.79 0.66,3.08 -2.23,-0.06 -0.66,5.96 -8.96,-5.37 -5.95,3.59 -0.81,2.95 -3.6,0.4 -0.29,2.89 -2.36,-0.07 0,0 -1.36,-10.33 -13.52,-5.97 -1.12,-3.07 3.26,-4.4 -0.46,-5.18 -5.39,-6.45 -1.4,-6.86 -3.35,-2.52 1.16,-3.39 5.16,-4.55 1.18,-10.01 2.73,-6.1 -4.72,-5.15 1.96,-11.94 -7.41,-3.73 -3.55,-12.06 0.91,-3.83 5.26,-6.14 -1.91,-3.88 2.08,-3.85 z" 
                fill="rgb(151, 144, 238)" 
                stroke="white" 
                stroke-width=".7px"
                title="Lubuskie" 
                id="PL-LB" 
            />
        </svg>