<svg xmlns="http://www.w3.org/2000/svg" viewBox="314.28600999999975 141.10194999999996 236.07999999999998 245.47999999999993" width="236.07999999999998" height="245.47999999999993">
            <path 
                d="m 344.56601,174.58195 5.17,0.78 -0.66,-3.99 5.11,-3.02 0,0 0.28,0.55 0,0 -0.55,3.45 4.17,2.77 7.24,-1.96 2.42,2.23 2.19,-1.07 8.52,1.78 4.34,-2.57 -0.66,-4.69 4.84,-3.75 5.94,2.12 6.32,-2.68 3.76,-6.22 8.07,2.02 1.32,-3.05 3.18,0.23 -0.99,-2.79 1.62,-1.3 3.81,-0.35 3.43,2.92 13.48,-9.88 5.34,1.04 5.13,-2.12 0.3,-2.38 8.99,-1.55 0,0 0.34,1.5 0,0 -0.46,0 0,0 2.6,3.99 -0.82,1.85 3.52,4.22 -1.89,3.64 2.38,-0.38 2.71,2.4 -4.16,-0.07 0,0 0.04,-0.41 0,0 -1.57,3.19 0.96,2.36 -2.06,-0.37 3.87,5.18 -1.13,0.7 2.21,4.43 -0.59,2.79 2.31,2.78 4.51,-0.55 3.63,5.47 4.44,-1.07 0,0 -1.09,1.59 0,0 1.08,1.71 -2.57,-0.71 -1.08,3.62 7.24,4.73 0,0 -0.52,0 0,0 2.29,2.28 -2.12,2.14 2.77,6.37 10.71,-0.79 0.26,-2.86 3.03,0.13 0.5,3.61 1.9,-0.41 -0.86,1.84 -2.85,0.06 2.22,5.9 2.21,-0.21 0.82,2.18 3.28,-2.16 -0.13,-1.62 4.3,0.81 0.56,13.51 -4.29,4.49 3.93,2.74 4.22,6.38 -0.94,3.97 2.54,1.82 -0.68,4.07 2.28,3.01 7.72,0.08 1.39,2.7 1.4,-1.88 5.95,2.54 6.2,-1.18 2.78,3.78 3.07,0.67 0.52,3.99 3.54,-1.63 1.27,1.65 0,0 -5.68,6.55 2.64,4.26 -5.4,-0.38 -3.03,3.41 1.57,2.93 -3.4,0.03 -0.44,4.1 -4.06,-1.64 -2.38,1.31 -5.93,-4.43 -3.45,3.3 1.28,2.71 -2.84,4.66 -7.61,-5.78 -4.63,4.85 -4.59,0.7 -2.04,-3.39 -2.83,2.8 -6.89,-1.67 -1.53,2.48 -5.32,-2.11 -9.16,5.33 -0.82,3.95 1.95,5.24 -3.63,4.06 0.82,1.91 3.96,-1.16 1.96,4.03 -6.85,4.6 3.7,3.64 -0.3,2.08 -3.69,2.19 0.02,2.62 -5.16,0.55 -0.69,2.84 -6.24,-4.7 -1.89,4.09 5.83,5.35 6.52,-0.12 3.28,8.78 -2.03,5.63 -2.24,-1.01 -2.6,2.61 2.84,2.46 1.58,-0.57 1.21,2.6 -1.71,5.09 -1.8,0.82 2.81,0.34 -3.15,9.16 1.88,3.9 -1.62,3.1 0.84,5.52 0,0 -3.19,2.84 -2.82,-0.24 -2,-3.52 -3.88,0.16 1.13,1.08 -5.27,1.57 -2.09,-0.94 0.3,1.95 -3.14,2.39 -4.93,-2.72 -1.9,-4.32 -12.16,0.44 0.67,-4.69 -4.45,-2.44 1.75,-3.16 -2.23,-2.67 -1.48,5.52 -3.68,1.22 -0.81,-2.07 -2.28,2.13 -3.16,-2.51 -0.23,3.47 -2.01,-0.78 -0.07,1.58 -8.5,-4.46 -1.94,2.18 0.71,-4.43 -5.65,-4.89 -3.19,0.98 -0.91,-5.65 -2.62,-1.86 1.31,-2.9 -5.43,-0.84 0,0 0.42,-3.54 4.01,-4.17 2.46,-6.05 -0.53,-2.18 -5,0.89 1.07,-5.22 -2.14,-1.57 -2.61,-8.5 4.62,-3.78 3.23,2.86 6.18,1.32 2.31,-3.88 -0.01,-2.82 -4.6,-2.23 -0.12,-6.15 -1.45,-0.7 3.81,-0.33 -3.22,-7.31 -3.7,-0.19 -1.09,-2.92 -3.52,-2.33 -6.81,2.88 -0.47,-2.42 -4.27,0.08 2.92,-2.86 -0.3,-1.69 -1.26,-2.84 -3.34,-1.72 3.43,-2.73 0.76,-4.71 -4.61,-1.35 -1.63,-2.81 -3.6,-0.15 -2.26,-3.84 0.49,-4.82 -3.26,-3.31 -3.18,1.22 -0.57,-2.52 -4.13,-2.61 -2.56,3.17 -2.77,-0.47 -3.69,2.05 -2.86,-1.32 -2.55,1.99 -2.55,-3.47 -7.31,-2.92 0.23,-1.81 -2.87,-1.52 -6.65,0.82 -3.94,-4.72 0,0 0.36,-2.69 0,0 -0.35,-0.57 0,0 -1.51,-1.72 3.15,-0.02 4.7,-6.35 -4.41,-1.75 1.7,0.24 0.04,-4.17 0,0 0.81,-0.01 0,0 3.48,-3.17 -3.21,-2.54 2.86,-4.6 2.17,-0.17 -0.58,-5.09 5.15,1.79 -1.61,-2.67 1.48,-1.76 -1.61,0.07 0.46,-2.02 -4.89,-4.66 2.91,-4.85 2.49,0.21 -4.13,-8.54 5.12,0.99 2.97,-2.43 -1.35,-3.04 7.65,3.48 -1.01,-3.19 1.61,-3.42 -2.27,-1.7 -1.07,-7.46 1.89,0.54 1.11,-1.69 0,0 0.45,0.15 0,0 z" 
                fill="rgb(151, 144, 238)" 
                stroke="white" 
                stroke-width=".7px"
                title="Mazowieckie" 
                id="PL-MZ" 
            />
        </svg>