<svg xmlns="http://www.w3.org/2000/svg" viewBox="303.16600999999997 434.09195 142.61999999999983 126.46000000000004" width="142.61999999999983" height="126.46000000000004">
            <path 
                d="m 356.06601,435.48195 2.32,-1.39 17.38,4.79 0.03,3.39 4.08,6.48 -2.68,1.19 0.18,2.55 4.23,3.07 -1.57,2.02 3.45,3.27 -1.37,2.56 2.2,0.26 0.28,1.66 15.9,-1.88 6.83,-7.39 2.82,1.54 3.53,-3.16 10.05,-1.02 4.65,-3.64 2.57,2.35 1.98,-2.37 0,0 0.6,3.86 -4.45,5.21 1.88,4.38 -1.48,6.53 1.96,0.55 -1.77,0.41 2.55,0.67 0.59,2.74 -2,0.47 1.23,1.53 -2.31,1.72 2.51,2.64 -2.59,4.18 1.95,5.39 5.76,0.43 0.99,2.02 -0.8,1.56 -3.06,-0.17 -0.17,3.14 -5.62,1.18 1.86,2.34 -0.76,3.61 5.45,0.14 1.11,1.95 3.01,0.42 2.49,5.29 0.73,4.96 -2.6,5.24 2.94,1.87 -0.85,2.37 3.71,4.71 -1.83,0.87 0.45,4.9 0,0 -7.4,-2.54 -4.02,5.46 -5.12,-3.07 -4.42,1.34 3.15,4.25 -3.79,1 -3.13,5.24 -3.72,1.01 -1.58,-2.74 -1.83,0.64 -0.59,-2.54 -1.67,1.25 -2.4,-0.9 0.75,-1.33 -3.07,-1.2 -1.18,-4.26 -5.63,1.41 -1.92,-1.6 -2.54,3.9 -6.37,-3.66 -2.46,-0.15 0.09,1.92 -0.9,-0.98 -1.56,1.51 -1.13,-1.59 -2.31,0.39 -1.22,5.56 -5.7,-0.73 -3.71,4.45 -0.8,-1.05 -3.9,12.69 -8.49,-5.17 -2.57,0.42 -1.82,3.11 -5.13,-0.21 -1.31,-3.36 3.43,-3.97 -1.68,-2.09 -0.28,-10.18 -4.45,2.16 -5.35,-2.04 0.66,-4.6 -3.52,0.23 -3.34,-10.96 -3.18,-1.62 -0.52,-2.16 0,0 0.83,-5.29 -5.96,-2.43 4.61,-4.34 -0.67,-3.22 -7.27,-1.17 -1.98,-7.72 -7.39,0.61 2.21,-7.79 -1.13,-0.97 -2.23,1.42 0,0 -0.65,0 0,0 -1.08,0.04 0,0 -0.75,0 0,0 -2.15,-1.08 1.89,-1.2 -0.23,-3.31 3.47,-5.84 3.88,-0.63 -1.19,-0.87 2.33,-5.28 0,0 0.33,0 0,0 0.28,1.89 1.06,-2.8 4.11,-0.58 1.53,-2.17 -1.32,-1.61 4.43,-1.7 0.68,-2.13 -6.2,-3.1 -1.07,-3.04 3.41,-2.68 7.6,-0.39 0.44,-3 -2.47,-1.87 0,0 0.32,-0.1 0,0 2.51,0.58 -0.5,-2.62 2.08,-1.98 3.86,1.09 3.98,-0.73 3.14,-2.89 8.56,0.53 2.84,-1.39 0.08,-1.89 4.39,-0.14 z" 
                fill="rgb(151, 144, 238)" 
                stroke="white" 
                stroke-width=".7px"
                title="Małopolskie" 
                id="PL-MA" 
            />
        </svg>