<svg xmlns="http://www.w3.org/2000/svg" viewBox="170.55601000000013 369.22195 108.92999999999984 116.9299999999999" width="108.92999999999984" height="116.9299999999999">
            <path 
                d="m 224.86601,369.22195 3.1,1.56 -1.85,5.38 3.97,1.51 16.72,-6.84 0,0 8.89,3.93 9.74,1.43 1.49,2.78 1.84,-4.53 1.74,-0.23 2.15,5.46 5,2.85 0,0 1.83,3.3 -2.43,1.24 0.07,2.92 -2.33,1.66 1.76,3.74 -1.33,5.48 -3.27,2.59 -0.74,3.07 -2.98,0.74 4.31,5.19 -5.64,4.2 2.72,7.49 4.11,1.78 0.3,5.28 -10.44,0.47 2.85,8.15 -6.23,-2.36 0.52,4.23 -1.46,2.03 1.82,2.87 -2.21,3.08 2.93,3.13 -0.74,4.62 1.73,0.27 0.29,2.33 -4.52,-0.98 -7.12,4.12 0.42,1.78 0,0 0.38,-0.03 0,0 -7.82,1.35 -0.66,1.4 -0.56,-1.37 -2.4,0.59 0.66,6.23 -2.38,4.24 0,0 -1.82,2.57 2.44,0.21 0.05,2.96 -2.48,-1.27 -8.25,4.33 -2.53,-3.62 -3.16,-0.9 -3.54,-8.13 -4.17,-0.5 -3.49,-4.56 10.1,-4.5 0.39,-2.82 -2.42,-2 1.67,-4.03 -2.1,-2.04 -1.87,-0.66 0.06,2.57 -4.54,3.3 -7.23,-0.85 -3.38,2.21 -3.29,-2.97 -2.06,1.76 -0.13,-6.07 -4.05,0.83 -5.06,-4.29 0.16,-2.05 -3.68,0.46 -2.04,-2.29 -8.27,-1.27 -3.85,-2.77 0,0 2.18,-3.2 0,0 0.28,-0.19 0,0 6.06,1.5 0.78,-7.23 3.49,-6.22 7.62,-1.15 -0.59,-5.94 1.4,-0.85 -2.21,-2.27 4.26,-3.04 -2.32,-2.52 1.87,-2.24 3.82,0.98 -1.16,-6.23 3.4,-1.14 0.8,-2.64 -2.74,-1.09 0.97,-2.42 3.59,1.48 0.22,-5.53 5.02,-0.39 -1.34,-1.64 3.09,-0.28 -1.61,-2.08 0.28,-4.57 3.75,-2.19 -2.15,-6.94 3.19,-1.38 0.6,-2.09 3.76,2.77 z" 
                fill="rgb(151, 144, 238)" 
                stroke="white" 
                stroke-width=".7px"
                title="Opolskie" 
                id="PL-OP" 
            />
        </svg>