<svg xmlns="http://www.w3.org/2000/svg" viewBox="428.69601000000046 404.86195 146.69999999999982 172.10000000000002" width="146.69999999999982" height="172.10000000000002">
            <path 
                d="m 473.17601,406.15195 2.6,3.2 6.7,-1.1 3.31,-3.39 6.41,1.89 2.28,4.17 -4.14,8.58 4.26,0.19 2.96,4.18 5.5,0.48 4.24,3.72 2.94,-0.98 3.37,1.46 -0.53,6.62 2.82,-0.12 0.38,1.39 -3.04,1.03 3.85,0.46 -2.6,2.46 -6.08,-0.83 0.83,2.59 -2.89,1.11 -0.64,2.6 2.23,-0.38 4.15,5.32 11,-1.12 -4.7,2.6 -0.03,1.87 25.03,1.99 9.98,-10.38 4.19,3.61 6.57,-5.05 1.74,0.54 -0.55,3.51 2.96,2.01 0,0 0.44,0 0,0 -1.7,4.27 6.87,0.81 -0.63,3.27 2.14,1.19 0,0 -16.02,13.82 -38.94,54.02 3.49,3.42 2.98,12.33 -0.4,10.64 -1.51,1.59 1.95,1.42 -2.4,3.75 0.7,0.98 2.23,-1.67 -1,2.22 3.05,0.08 2.46,4.27 3.66,1.43 -1.49,2.77 1.48,5.49 -2.6,0.48 -4.7,-4.72 -5.39,1.29 -5.75,-5.31 -5.42,1.01 -4.69,-1.25 -3.34,-4.2 -2.99,0.82 -5.65,-1.62 -0.13,-2.83 -2.1,0.81 -8.6,-3.95 -1.01,-5.81 -4.3,-6.32 -3.61,-0.21 -3.81,-3.82 -2.69,1.17 -0.45,2.25 -4.13,-5.43 -3.83,-0.44 -1.62,-2.89 -9.7,3.21 -4.72,-1.85 0,0 -0.45,-4.9 1.83,-0.87 -3.71,-4.71 0.85,-2.37 -2.94,-1.87 2.6,-5.24 -0.73,-4.96 -2.49,-5.29 -3.01,-0.42 -1.11,-1.95 -5.45,-0.14 0.76,-3.61 -1.86,-2.34 5.62,-1.18 0.17,-3.14 3.06,0.17 0.8,-1.56 -0.99,-2.02 -5.76,-0.43 -1.95,-5.39 2.59,-4.18 -2.51,-2.64 2.31,-1.72 -1.23,-1.53 2,-0.47 -0.59,-2.74 -2.55,-0.67 1.77,-0.41 -1.96,-0.55 1.48,-6.53 -1.88,-4.38 4.45,-5.21 -0.6,-3.86 0,0 0.25,-0.03 0,0 0.5,-0.36 0,0 5.64,-6.07 8.13,-3.3 0.16,-3.32 9.16,-2.47 4.51,-8.66 5.09,-4.19 1.91,1.04 z" 
                fill="rgb(151, 144, 238)" 
                stroke="white" 
                stroke-width=".7px"
                title="Podkarpackie" 
                id="PL-PK" 
            />
        </svg>