<svg xmlns="http://www.w3.org/2000/svg" viewBox="456.55600999999984 45.131946 143.4099999999999 216.71000400000005" width="143.4099999999999" height="216.71000400000005">
            <path 
                d="m 534.05601,45.131946 8.8,2.7 -1.01,2.15 4.06,1.89 -1.12,2.89 2.98,1.81 3.27,-1.68 5.5,5.73 6.29,0.99 9.11,10.32 2.54,9.03 -0.2,3.57 -2.62,3.3 2.07,4.23 0.5,9.920004 1.71,1.11 -0.2,8.45 2.03,2.72 4.75,22.82 8.54,25.37 7.17,11.69 -2.78,7.74 4.52,12.33 -1.82,2.12 1.34,22.66 -12.42,10.6 -5.88,0.03 -10.11,5.33 -6.98,8.27 -10.87,18.62 0,0 -2.86,-0.17 0,0 -1.27,-1.65 -3.54,1.63 -0.52,-3.99 -3.07,-0.67 -2.78,-3.78 -6.2,1.18 -5.95,-2.54 -1.4,1.88 -1.39,-2.7 -7.72,-0.08 -2.28,-3.01 0.68,-4.07 -2.54,-1.82 0.94,-3.97 -4.22,-6.38 -3.93,-2.74 4.29,-4.49 -0.56,-13.51 -4.3,-0.81 0.13,1.62 -3.28,2.16 -0.82,-2.18 -2.21,0.21 -2.22,-5.9 2.85,-0.06 0.86,-1.84 -1.9,0.41 -0.5,-3.61 -3.03,-0.13 -0.26,2.86 -10.71,0.79 -2.77,-6.37 2.12,-2.14 -2.29,-2.28 0,0 0.52,0 0,0 -7.24,-4.73 1.08,-3.62 2.57,0.71 -1.08,-1.71 0,0 1.09,-1.59 0,0 -4.44,1.07 -3.63,-5.47 -4.51,0.55 -2.31,-2.78 0.59,-2.79 -2.21,-4.43 1.13,-0.7 -3.87,-5.18 2.06,0.37 -0.96,-2.36 1.57,-3.19 0,0 -0.04,0.41 0,0 4.16,0.07 -2.71,-2.4 -2.38,0.38 1.89,-3.64 -3.52,-4.22 0.82,-1.85 -2.6,-3.99 0,0 0.46,0 0,0 -0.34,-1.5 0,0 0.72,0.04 0,0 4.77,-1.29 10.62,3.56 3.84,-5.19 4.03,-1.33 2.32,2.41 20.1,-16.22 3.92,-2.63 2.94,1.81 -0.56,-3.3 3.24,-0.17 4.3,-3.75 1.36,1.73 1.3,-3.89 1.06,0.7 0,0 0.77,-0.4 0,0 3.69,-2.88 0.91,-5.51 3.87,-4.52 -0.73,-5.080004 -6.94,-11.58 -3.4,-2.14 1.47,-4.4 -2.6,-4.98 -2.75,0.49 -4.66,-5.92 2.64,-4.37 6.48,-2.02 0.96,-1.98 3.66,0.79 4.61,-1.76 1.89,-5.24 -1.14,-2.27 0,0 2.86,-4.42 z" 
                fill="rgb(151, 144, 238)" 
                stroke="white" 
                stroke-width=".7px"
                title="Podlaskie" 
                id="PL-PD" 
            />
        </svg>