<svg xmlns="http://www.w3.org/2000/svg" viewBox="158.5860099999998 0.2519457999999978 179.0700000000002 139.8500042" width="179.0700000000002" height="139.8500042">
            <path 
                d="m 255.10601,0.2519458 22.84,13.6100002 9.27,8.47 -0.74,3.58 -6.45,-9.89 -17.22,-10.7300002 -1.71,6.1700002 4.71,3.71 -0.1,6.56 2.89,-0.88 -0.19,3.28 3.25,6.22 -1.2,1.38 -2.56,-0.86 3.28,1.51 0.32,8.05 3.81,4.16 5.99,0.86 -2.08,0.64 2.63,2.59 9.97,2.94 2.77,-2.08 3.63,2.26 12.67,-0.89 13.08,-3.12 13.69,-6.93 -14.48,8.71 -11.38,3.15 2.12,2.41 0.2,4.05 0,0 3.71,6.59 -4.4,3.62 1.31,2.21 -3.06,8.78 4.45,2.02 -1.14,1.74 1.15,1.85 1.94,-0.94 5.3,2.75 -1.62,3.08 1.48,3.18 11.07,-2.41 -2.99,7.53 0,0 0,0.33 0,0 -4.04,7.100004 1.26,1.07 -1.07,2.95 -2.14,-3.21 -5.66,-1.46 -2.21,1.21 -0.98,6.62 -4.71,5.03 -0.16,5.17 -2.29,0.15 -2.92,3.39 0.45,2.92 0,0 -9.22,-1.2 -5.48,1.93 0.17,-1.83 -8.36,-1.09 -1.84,-3.84 1.82,-5.83 -2.33,1.62 -4.72,-1.14 -1.55,2.21 -3.19,-0.38 0.5,1.85 -1.91,0.44 -2.39,-2.61 0.25,-2.46 -2.75,0.2 -0.71,1.66 -11.98,-1.53 0.25,-4.36 -4.16,-0.14 0,0 0,-1.09 0,0 -1.93,1.28 -1.09,-2.42 -2.43,0.84 -2.34,-2.48 -4.25,6.08 -3.58,-3.4 -5.3,-0.53 1.95,5.15 -4.5,2.56 -4.47,-0.44 -2.33,5.97 1.01,2.99 -3.92,0.18 0.92,2.94 -3.89,-2.65 -2.05,1.88 -3.03,-0.69 -0.85,-3.63 -5.46,4.04 -1.83,9.57 0,0 -3.31,-1.18 0,0 -0.24,-0.09 0,0 -1.78,-2.67 -3.85,-0.56 0,0 -1.32,0.06 0,0 -3.49,0.7 -4.06,-1.63 -2.63,2.55 -3.2,0.02 0.02,-3.3 -3.11,0.58 -3.44,-11.61 0,0 -2.17,-9.18 5.27,-5.36 -4.44,-3.3 0.03,-3.76 1.34,-1.29 4.65,0.73 0.81,-3.420004 -6.46,-3.65 -0.13,-3.64 -2.04,-2.34 -1.54,-0.81 -0.76,2.57 0,0 -0.71,0.06 0,0 -0.35,-4.92 0,0 0.42,-0.51 0,0 1.23,-4.1 -1.89,-2.77 1.32,-1.79 -5.46,-10.1 0.96,-2.11 7.53,-2.85 0.67,-2.34 -3.07,-3.61 -0.48,-4.96 2.7,-0.69 -0.42,-7.69 -1.44,-3.33 -2.93,-1.21 -2.81,-8.19 0,0 10.51,-2.71 8.99,-7.85 13.07,-6.8 42.29,-10.2100002 20.95,-0.59 z" 
                fill="rgb(151, 144, 238)" 
                stroke="white" 
                stroke-width=".7px"
                title="Pomorskie" 
                id="PL-PM" 
            />
        </svg>