<svg xmlns="http://www.w3.org/2000/svg" viewBox="306.4060100000002 42.341946 224.09999999999974 133.76000400000004" width="224.09999999999974" height="133.76000400000004">
            <path 
                d="m 349.88601,42.341946 47.77,7.46 49.85,5.19 81.86,-5.18 0,0 1.14,2.27 -1.89,5.24 -4.61,1.76 -3.66,-0.79 -0.96,1.98 -6.48,2.02 -2.64,4.37 4.66,5.92 2.75,-0.49 2.6,4.98 -1.47,4.4 3.4,2.14 6.94,11.58 0.73,5.080004 -3.87,4.52 -0.91,5.51 -3.69,2.88 0,0 -0.77,0.4 0,0 -1.06,-0.7 -1.3,3.89 -1.36,-1.73 -4.3,3.75 -3.24,0.17 0.56,3.3 -2.94,-1.81 -3.92,2.63 -20.1,16.22 -2.32,-2.41 -4.03,1.33 -3.84,5.19 -10.62,-3.56 -4.77,1.29 0,0 -0.72,-0.04 0,0 -8.99,1.55 -0.3,2.38 -5.13,2.12 -5.34,-1.04 -13.48,9.88 -3.43,-2.92 -3.81,0.35 -1.62,1.3 0.99,2.79 -3.18,-0.23 -1.32,3.05 -8.07,-2.02 -3.76,6.22 -6.32,2.68 -5.94,-2.12 -4.84,3.75 0.66,4.69 -4.34,2.57 -8.52,-1.78 -2.19,1.07 -2.42,-2.23 -7.24,1.96 -4.17,-2.77 0.55,-3.45 0,0 -0.28,-0.55 0,0 -5.11,3.02 0.66,3.99 -5.17,-0.78 0,0 -1.48,-5.21 0,0 0.32,0 0,0 -0.09,-2.4 -3.16,-0.74 -0.29,-2.41 2.77,-1.38 -2.7,-7.66 -9.13,0.77 -1.43,-3.71 -3.93,0.77 0.16,-1.82 -3.84,-3.26 -4.3,0.39 -0.83,2.1 -1.9,-1.37 -4.19,-10.88 -0.28,-5.8 -3.42,-1.53 0,0 -0.44,-2.93 2.92,-3.39 2.29,-0.15 0.16,-5.17 4.71,-5.04 0.99,-6.61 2.2,-1.21 5.66,1.47 2.14,3.2 1.07,-2.95 -1.26,-1.07 4.04,-7.100004 0,0 0,-0.33 0,0 2.98,-7.53 -11.07,2.41 -1.48,-3.18 1.62,-3.07 -5.31,-2.75 -1.94,0.94 -1.15,-1.84 1.14,-1.74 -4.45,-2.03 3.06,-8.78 -1.31,-2.2 4.4,-3.63 -3.7,-6.58 0,0 6.94,1.03 1.72,-1.96 -2.69,6.09 1.05,0.57 1.24,-4.55 6.02,-5.97 10.69,-3.72 4.69,-7.99 z" 
                fill="rgb(151, 144, 238)" 
                stroke="white" 
                stroke-width=".7px"
                title="Warmińsko-Mazurskie" 
                id="PL-WN" 
            />
        </svg>