<svg xmlns="http://www.w3.org/2000/svg" viewBox="101.82601000000012 122.95195 202.64999999999986 254.71999999999997" width="202.64999999999986" height="254.71999999999997">
            <path 
                d="m 169.47601,122.95195 3.43,11.61 3.12,-0.59 -0.02,3.3 3.2,-0.02 2.63,-2.55 4.06,1.63 3.49,-0.7 0,0 1.32,-0.06 0,0 3.84,0.57 1.78,2.67 0,0 0.24,0.09 0,0 3.31,1.18 0,0 -8.84,11.43 1.19,3.46 0.9,-1.44 3.49,1.17 6.04,8.07 -1.48,4.09 -5.51,1.26 1.64,1.48 -0.64,4.69 3.22,1.31 -2.39,1.2 0.65,3.96 -2.35,1.44 0.44,5.92 0,0 -0.3,0.06 0,0 -1.48,2.16 0.9,2.18 4.81,-0.91 7.48,5.57 -0.9,14.06 -5.78,0.32 -0.33,2.92 5.05,2.8 -0.96,4.72 3.18,0.86 3.4,-3.25 3.23,-0.43 -0.09,5.63 3.14,0.43 -0.17,4.76 5.16,-5.62 0.41,2.3 1.38,-2.32 2.78,2.16 2.3,-0.55 2.85,5.62 1.19,-1.01 1.97,2.95 1.32,-1.09 -0.48,3.47 6.57,-0.94 -0.19,3.36 6.33,1.47 0.49,2.18 3.45,0.19 6.52,-6.11 1.24,7.26 4.62,-0.62 1.61,-2.8 2.02,0.55 2.27,3.59 1.99,-0.55 3.43,1.75 0.5,2.83 1.61,-0.63 -0.22,2.84 2.19,0.22 2.37,6.42 9.64,-3.32 0.58,-3.36 3.27,2.46 -0.38,1.91 4.71,2.34 0,0 -0.99,6.05 4.26,0.55 0.29,2.44 -2.03,1.37 1.06,2.12 -5.84,-1.63 -3.96,1.58 -1.21,5.72 2.17,2 -1.01,3.89 -5.27,0.13 -0.87,2.7 -5.19,-1.77 -1.92,1.18 0.82,9.57 4.06,3.75 -5.68,6.71 -0.56,3.98 -5.7,-2.14 -4.83,1.17 -0.76,-2.23 -1.84,0.61 -0.19,3.06 -1.91,-0.46 0.29,2.15 -1.89,1.29 1.16,2.54 -1.63,1.67 0.43,4 -3.53,4.5 1.71,0.74 -2.03,4.95 1.76,0.68 -1.25,6.02 1.46,5.68 -3.35,5.51 -5.41,-3.16 -2.8,0.79 1.44,1.97 -0.77,2.92 -3.43,0.38 -1.08,2.78 -2.76,0.51 1.86,8.75 4.28,-0.57 -1.47,9.43 0,0 -16.72,6.84 -3.97,-1.51 1.85,-5.38 -3.1,-1.56 0,0 -3.25,-5.27 0.2,-8.44 -2.22,-1.2 1.79,-6.74 -11.94,1.04 -2.18,-9.91 4.13,-3.22 -1.44,-3.67 0,0 0,-0.8 0,0 -5.35,-4.14 -10.41,-1.97 -5.02,1.64 -0.68,6.08 -5.91,-0.79 -2.64,0.87 -0.27,2.03 -5.92,0.05 -10.1,-5.38 -1.9,-4.56 -7.83,-1.25 1.49,-4.67 -2.2,-4.22 -4.86,-3.32 -7.73,-0.08 0,0 -2.21,-6.55 -5.46,-4.6 -3,-0.8 -2.75,3.51 -2.39,-2.16 -3.68,-0.2 2.21,-3.12 -0.88,-6.68 -6.41,1.85 -3.65,-4.84 1.83,-2.56 -0.53,-2.27 -2.25,-1.04 -1.28,1.71 -4.27,-4.48 1.85,-3.41 -1.53,-11.54 2.96,-12.84 -5.55,-4.78 0.78,-1.75 1.39,2.71 3.1,-1.99 -1.03,-4.35 -3.21,-3.2 1.43,-2.48 -4.27,-6.14 2.25,-6.75 -1.16,-3.4 8.67,-2.02 -0.64,-7.19 -2.6,-1.13 0.82,-2.47 4.27,-2.06 -0.79,-10.74 0,0 -0.17,-0.12 0,0 -0.47,-3.08 0,0 0,-0.34 0,0 0.6,-4.16 0,0 9.45,3.39 9.03,-4.33 3.05,0.79 -0.73,-1.03 3.57,-3.48 -1.1,-3.93 2.74,-1.03 1.18,-4.38 1.29,1.49 2.5,-2.79 2.56,0.78 1.11,-4.71 1.7,0.48 0.12,-1.65 4.77,2.08 -0.58,-5.45 4.91,-4.04 -4.53,-4.27 -4.64,-1.27 -3.19,-3.02 -1.84,0.59 -1.67,-8.49 0.44,-1.14 2.23,1.68 9.63,-1.61 4.42,-3.61 1.89,-10.32 4.31,-2.2 1.17,1.85 z" 
                fill="rgb(151, 144, 238)" 
                stroke="white" 
                stroke-width=".7px"
                title="Wielkopolskie" 
                id="PL-WP" 
            />
        </svg>