<svg xmlns="http://www.w3.org/2000/svg" viewBox="242.13600999999989 250.51195 157.16000000000003 151.59000000000003" width="157.16000000000003" height="151.59000000000003">
            <path 
                d="m 315.78601,250.51195 3.94,4.72 6.65,-0.82 2.87,1.52 -0.23,1.81 7.31,2.92 2.55,3.47 2.55,-1.99 2.86,1.32 3.69,-2.05 2.77,0.47 2.56,-3.17 4.13,2.61 0.57,2.52 3.18,-1.22 3.26,3.31 -0.49,4.82 2.26,3.84 3.6,0.15 1.63,2.81 4.61,1.35 -0.76,4.71 -3.43,2.73 3.34,1.72 1.26,2.84 0.3,1.69 -2.92,2.86 4.27,-0.08 0.47,2.42 6.81,-2.88 3.52,2.33 1.09,2.92 3.7,0.19 3.22,7.31 -3.81,0.33 1.45,0.7 0.12,6.15 4.6,2.23 0.01,2.82 -2.31,3.88 -6.18,-1.32 -3.23,-2.86 -4.62,3.78 2.61,8.5 2.14,1.57 -1.07,5.22 5,-0.89 0.53,2.18 -2.46,6.05 -4.01,4.17 -0.42,3.54 0,0 -0.86,3.01 -2.62,0.97 1.29,3.99 -1.37,3.19 -2.38,-2.01 -1.72,1.63 -2.68,-1.75 -1.09,0.34 1.37,4 -1.44,0.99 -3.7,-0.35 -1.59,1.72 -6.12,-2.44 -2.87,1.24 1.31,3.06 -2.52,2.32 0.1,6.09 4.67,1.46 -1.79,9.23 -4.2,-2.17 -5.25,-6.14 -2.9,7.07 0.88,4.34 0,0 0,0.97 0,0 -0.85,1.4 0,0 -0.09,-0.01 0,0 -1.03,1.08 0,0 -0.47,0.35 0,0 -1.04,0.12 0,0 0.08,0.24 0,0 -2.44,3.36 0,0 -4.57,1.09 -0.37,-3 -4.86,-2.51 -5.58,1.98 -1.1,-5.22 -4.06,-5.92 -1.29,-0.84 -2.4,1.91 -2.43,-2.97 0.52,-2.22 -3.89,1.28 0.41,2.73 -2.69,1.64 -3.63,-2.94 -1.73,0.77 -2.06,-3.24 -2.02,0.58 -7.17,-6.17 -1.98,0.33 -2.18,3.72 -1.56,-1.57 -11.66,2.08 0,0 -5,-2.85 -2.15,-5.46 -1.74,0.23 -1.84,4.53 -1.49,-2.78 -9.74,-1.43 -8.89,-3.93 0,0 1.47,-9.43 -4.28,0.57 -1.86,-8.75 2.76,-0.51 1.08,-2.78 3.43,-0.38 0.77,-2.92 -1.44,-1.97 2.8,-0.79 5.41,3.16 3.35,-5.51 -1.46,-5.68 1.25,-6.02 -1.76,-0.68 2.03,-4.95 -1.71,-0.74 3.53,-4.5 -0.43,-4 1.63,-1.67 -1.16,-2.54 1.89,-1.29 -0.29,-2.15 1.91,0.46 0.19,-3.06 1.84,-0.61 0.76,2.23 4.83,-1.17 5.7,2.14 0.56,-3.98 5.68,-6.71 -4.06,-3.75 -0.82,-9.57 1.92,-1.18 5.19,1.77 0.87,-2.7 5.27,-0.13 1.01,-3.89 -2.17,-2 1.21,-5.72 3.96,-1.58 5.84,1.63 -1.06,-2.12 2.03,-1.37 -0.29,-2.44 -4.26,-0.55 0.99,-6.05 0,0 9.39,-2.67 1.23,1.7 -0.63,-2.24 z" 
                fill="rgb(151, 144, 238)" 
                stroke="white" 
                stroke-width=".7px"
                title="Łódzkie" 
                id="PL-LD" 
            />
        </svg>