<svg xmlns="http://www.w3.org/2000/svg" viewBox="239.09600999999995 377.96195 118.28999999999999 162.48000000000025" width="118.28999999999999" height="162.48000000000025">
            <path 
                d="m 277.65601,382.52195 11.66,-2.08 1.56,1.57 2.18,-3.72 1.98,-0.33 7.17,6.17 2.02,-0.58 2.06,3.24 1.73,-0.77 3.63,2.94 2.69,-1.64 -0.41,-2.73 3.89,-1.28 -0.52,2.22 2.43,2.97 2.4,-1.91 1.29,0.84 4.06,5.92 1.1,5.22 5.58,-1.98 4.86,2.51 0.37,3 4.57,-1.09 0,0 5.28,4.07 -0.22,1.44 -2.23,-0.94 -2.68,5.98 -2.89,-0.78 1.43,3.98 7.14,0.81 2.08,1.73 -1.73,1.11 0.16,2.24 4.13,0.63 -0.64,2.97 -3.27,0.17 -4.35,6.3 6.9,1.43 0.7,2.59 2.3,0.74 0,0 1.32,2.84 -4.39,0.14 -0.08,1.89 -2.84,1.39 -8.56,-0.53 -3.14,2.89 -3.98,0.73 -3.86,-1.09 -2.08,1.98 0.5,2.62 -2.51,-0.58 0,0 -0.32,0.1 0,0 2.47,1.87 -0.44,3 -7.6,0.39 -3.41,2.68 1.07,3.04 6.2,3.1 -0.68,2.13 -4.43,1.7 1.32,1.61 -1.53,2.17 -4.11,0.58 -1.06,2.8 -0.28,-1.89 0,0 -0.33,0 0,0 -2.33,5.28 1.19,0.87 -3.88,0.63 -3.47,5.84 0.23,3.31 -1.89,1.2 2.15,1.08 0,0 0.75,0 0,0 1.08,-0.04 0,0 0.65,0 0,0 2.23,-1.42 1.13,0.97 -2.21,7.79 7.39,-0.61 1.98,7.72 7.27,1.17 0.67,3.22 -4.61,4.34 5.96,2.43 -0.83,5.29 0,0 -5.94,4.16 -0.66,2.97 -6.03,0.41 -2.25,7.23 -2.31,1.75 0.37,2.24 -4.41,0.84 -2.9,-1.33 -2.38,2.02 -3.39,0.04 -0.48,-10.14 -8.29,-1.85 1.34,-2.49 -3.15,-11.9 -4,0.07 -2.01,-2.69 -5.1,-1.69 -3.35,-9.92 2.11,-3.17 -2.4,-1.77 0.42,-3.89 -5.1,1.64 -3.61,-3.22 -5.88,-1 1.14,1.34 -2.03,1.84 -2.55,-4.68 -3.82,-0.71 -0.49,-2.47 -3.22,1.49 -2.32,-1.15 -1.63,-4.66 -3.36,-2.07 0,0 2.38,-4.24 -0.66,-6.23 2.4,-0.59 0.56,1.37 0.66,-1.4 7.82,-1.35 0,0 -0.38,0.03 0,0 -0.42,-1.78 7.12,-4.12 4.52,0.98 -0.29,-2.33 -1.73,-0.27 0.74,-4.62 -2.93,-3.13 2.21,-3.08 -1.82,-2.87 1.46,-2.03 -0.52,-4.23 6.23,2.36 -2.85,-8.15 10.44,-0.47 -0.3,-5.28 -4.11,-1.78 -2.72,-7.49 5.64,-4.2 -4.31,-5.19 2.98,-0.74 0.74,-3.07 3.27,-2.59 1.33,-5.48 -1.76,-3.74 2.33,-1.66 -0.07,-2.92 2.43,-1.24 z" 
                fill="rgb(151, 144, 238)" 
                stroke="white" 
                stroke-width=".7px"
                title="Śląskie" 
                id="PL-SL" 
            />
        </svg>