<svg xmlns="http://www.w3.org/2000/svg" viewBox="341.21601000000015 353.71195 131.9599999999998 111.61999999999989" width="131.9599999999998" height="111.61999999999989">
            <path 
                d="m 385.27601,353.71195 5.43,0.84 -1.31,2.9 2.62,1.86 0.91,5.65 3.19,-0.98 5.65,4.89 -0.71,4.43 1.94,-2.18 8.5,4.46 0.07,-1.58 2.01,0.78 0.23,-3.47 3.16,2.51 2.28,-2.13 0.81,2.07 3.68,-1.22 1.48,-5.52 2.23,2.67 -1.75,3.16 4.45,2.44 -0.67,4.69 12.16,-0.44 1.9,4.32 4.93,2.72 3.14,-2.39 -0.3,-1.95 2.09,0.94 5.27,-1.57 -1.13,-1.08 3.88,-0.16 2,3.52 2.82,0.24 3.19,-2.84 0,0 2.16,21.93 1.59,2.93 0,0 -4.9,16.25 -1.91,-1.04 -5.09,4.19 -4.51,8.66 -9.16,2.47 -0.16,3.32 -8.13,3.3 -5.64,6.07 0,0 -0.5,0.36 0,0 -0.25,0.03 0,0 -1.98,2.37 -2.57,-2.35 -4.65,3.64 -10.05,1.02 -3.53,3.16 -2.82,-1.54 -6.83,7.39 -15.9,1.88 -0.28,-1.66 -2.2,-0.26 1.37,-2.56 -3.45,-3.27 1.57,-2.02 -4.23,-3.07 -0.18,-2.55 2.68,-1.19 -4.08,-6.48 -0.03,-3.39 -17.38,-4.79 -2.32,1.39 0,0 -2.3,-0.74 -0.7,-2.59 -6.9,-1.43 4.35,-6.3 3.27,-0.17 0.64,-2.97 -4.13,-0.63 -0.16,-2.24 1.73,-1.11 -2.08,-1.73 -7.14,-0.81 -1.43,-3.98 2.89,0.78 2.68,-5.98 2.23,0.94 0.22,-1.44 -5.28,-4.07 0,0 2.44,-3.36 0,0 -0.08,-0.24 0,0 1.04,-0.12 0,0 0.47,-0.35 0,0 1.03,-1.08 0,0 0.09,0.01 0,0 0.85,-1.4 0,0 0,-0.97 0,0 -0.88,-4.34 2.9,-7.07 5.25,6.14 4.2,2.17 1.79,-9.23 -4.67,-1.46 -0.1,-6.09 2.52,-2.32 -1.31,-3.06 2.87,-1.24 6.12,2.44 1.59,-1.72 3.7,0.35 1.44,-0.99 -1.37,-4 1.09,-0.34 2.68,1.75 1.72,-1.63 2.38,2.01 1.37,-3.19 -1.29,-3.99 2.62,-0.97 z" 
                fill="rgb(151, 144, 238)" 
                stroke="white" 
                stroke-width=".7px"
                title="Świętokrzyskie" 
                id="PL-SK" 
            />
        </svg>