<svg xmlns="http://www.w3.org/2000/svg" viewBox="484.17930000000007 92.77131800000001 79.89000000000004 110.77000200000006" width="79.89000000000004" height="110.77000200000006">
            <path 
                d="m 512.3093,94.201318 3.88,-0.85 4.09,0.32 3.42,0.98 1.03,1.44 1.6,0.26 1.78,-1.56 4.01,-2.02 2.61,2.73 4.22,2.37 -0.82,2.130002 -0.1,4.07 0.71,-1.24 1.26,0.34 2.39,2.12 4.13,1.25 2.11,3.04 4.37,-3.46 0.45,0.77 0.72,-0.21 1.42,-2.27 0.5,0.03 1.07,2.22 2.37,2.23 0.45,1.39 -0.56,4.81 0.37,1.68 1.63,2.49 1.55,0.63 1.1,1.58 0,0 -4.41,-0.88 -3.43,-2.28 0.16,-1.34 -0.63,-0.36 -4.16,-0.71 -4.78,0.98 -4.18,-1.95 -2.9,0.26 -4.16,-0.52 -2.2,-0.56 -3.52,-3.25 -7.92,-1.57 -1.32,0.65 -1.32,-0.5 -1.06,1.5 -2.97,1.49 -2.37,2.12 -3.58,0.29 -1.4,-1.16 -2.04,0.62 -1.27,2.37 0.8,3.41 -2.04,1.23 -0.33,1.48 0.46,0.9 -4.71,3.71 -0.53,2.65 0.39,0.46 1.32,-0.33 1.33,0.86 2.23,-1 2.97,4.43 0.01,2.47 -2.3,3.24 -1.21,3.12 -0.1,1.16 0.58,0.8 4.17,0.48 4.55,-1.52 1.46,0.76 2.06,0.01 1.32,1.15 0.48,4.14 -1.6,2.67 -2.96,1.72 -3,0.46 -4.23,4.62 2.79,6.74 0.98,0.44 1.62,-0.24 3.19,4.09 0.34,1.21 -0.63,5.02 -2.62,3.51 -3.2,0.54 -0.23,2.78 3.77,1.56 2.49,2.63 1.13,2.94 1.92,-0.25 3.67,1.49 0.13,1.52 -1.36,2.91 3.71,0.72 1.85,5.14 0,0 -2.59,1.04 -1.11,-0.18 -1.41,-1.94 -12.64,-6.25 -3.16,-3.78 -1.58,-0.05 -2.88,1.21 -1.24,-0.67 -0.91,-1.36 -4.72,-1.91 -0.06,-1.54 1.36,-1.34 -0.05,-1.75 -1.41,-0.96 -0.72,-2.38 0.38,-0.72 -0.62,-1.46 0.3,-0.83 -0.87,-0.27 -0.54,-1.53 1.03,-3.08 1.14,-0.95 -0.71,-1.49 0.12,-0.96 0.78,-0.63 -0.18,-1.96 -2.25,-2.56 0.2,-1.86 0.96,-1.58 -0.24,-2.24 -1,-1.94 0.73,-4.32 -2.15,-4.36 0,0 -0.8,-2.33 -1.73,-11.59 -1.95,-1.9 -0.58,-1.93 1.68,-9.23 0.85,-0.79 4.53,-0.74 1.67,1.12 0.63,-0.14 1.28,-3.69 -0.41,-2.28 1.54,-1.42 0.88,-2.37 4.16,-2.42 2.86,0.01 2.91,-1.91 2.66,-4.14 0.16,-1.9 1.14,-1.050002 -0.9,-1.98 0.14,-1.39 z" 
                fill="rgb(151, 144, 238)" 
                stroke="white" 
                stroke-width=".7px"
                title="Azad Kashmir" 
                id="PK-JK" 
            />
        </svg>