<svg xmlns="http://www.w3.org/2000/svg" viewBox="323.32929999999993 101.60132 101.38999999999999 178.90999999999997" width="101.38999999999999" height="178.90999999999997">
            <path 
                d="m 411.8293,101.60132 2.41,2.68 2.34,4.8 4.26,0.76 1.16,0.72 0.32,0.86 -0.98,2.02 -0.24,2.28 -2.57,1.53 -0.86,3.08 -1.13,1.16 1.88,3.75 -2.79,4.41 -1.87,0.78 -2.88,4.76 -2.23,1.6 -2.92,5.78 -0.07,3.79 2.01,3.76 -0.04,2.95 3.43,2.22 -0.28,2.87 0.67,1.19 3.08,0.38 2.33,-0.78 2.43,-1.68 1.08,-2.07 4.35,3.38 -0.16,1.33 -1.72,2.18 0.89,2.03 -5.01,4.06 -3.48,0.57 -1.13,-0.8 -0.23,-1.05 1.51,-1.6 0.04,-0.74 -2.81,0.1 -4.95,-1.05 -3.54,0.76 -5.38,-4.02 -2.5,-1.16 -0.89,1.03 0.42,3.04 -1.26,1.12 -0.56,2.14 -1.59,0.11 -0.91,0.73 -3.28,0.13 -6.73,-1.12 -1,3.84 -3.23,0.84 -2.38,2.21 -3.67,0.41 2.3,3.91 2.44,2.53 3.17,1.06 0.53,1.67 4.88,0.31 1.42,1.06 -2.24,3.31 -3.83,3.04 -2.81,0.71 -3.42,-0.02 -0.53,-0.73 -2.62,3.48 -2.41,6.38 -1.18,0.91 0.23,4.09 6.96,11.08 -0.71,1.08 -1.65,-0.39 -1.3,0.37 -5.88,6.47 -7.04,4.52 -1.67,2.23 -0.25,2.1 6.94,21.99 1.52,2.48 3.8,1.8 -3,2.61 3.04,12.15 0,0 -0.88,1.18 -4.56,1.13 0.24,3.48 -0.18,0.66 -0.74,0.19 0,0 -0.96,-2.91 1,-6.38 -0.19,-7.96 -0.73,-1.05 -2.82,2.43 -2.79,0.32 -1.14,3.6 -0.86,0.62 -1.14,-6.48 -1.73,-1.78 -1.52,-0.54 0.22,-9.79 0.81,-6.84 -0.32,-0.39 -2.49,1.99 -1.29,-0.84 1.42,-3.64 -2.77,-1.78 1.14,-3.85 -5.75,0.94 -1.52,2.84 -3.33,2.6 -1.12,-0.6 -7.34,0.28 0,0 -0.88,-2.33 -1.07,-7.23 0.31,-9.35 -1.55,-4.79 1.72,-3.26 3.87,-1.54 3.12,-4.44 -0.59,-1.27 0.02,-1.79 -1.87,-1.65 1.78,-1.3 1.03,-2.21 2.29,-1.06 -1.65,-3.49 0.46,-3.46 0.35,0.23 3.02,-3.3 -0.42,-0.59 4.81,0.33 3.17,-1.7 3.44,1.46 1.6,-0.38 1.13,-1.14 2.98,-0.67 1.71,-3.23 1,0.93 2.47,-0.22 1.05,-0.96 -0.54,-0.89 2.45,-1.4 2.2,-2.67 1.64,0 -0.23,-0.59 0.59,-0.38 -0.55,-1.08 0.54,-1.01 -1.07,-1.88 -1.64,-0.61 -0.68,-1.2 -0.97,-0.25 -1.28,-2.25 0.88,-5.32 -0.66,-0.71 -1.41,-0.05 -0.42,-3.13 -1.21,-0.59 -2.45,0.39 -2.15,-0.44 -1.2,-1.23 -0.08,-2.58 -2.32,-3.88 -1.53,-1.29 0.53,-1.67 0.97,-0.58 -0.01,-1.75 3.88,-0.46 2.51,1.44 3.63,-0.02 2.7,1.22 1.55,-0.33 1.83,0.79 3.87,0.14 0.36,1.08 2.53,0.41 0.63,-0.21 0.11,-0.85 0.73,0.24 2.12,-0.86 6.73,0.44 2.18,-1.25 2.35,0.23 1.27,-1.53 5.7,-1.95 0.43,-0.5 -0.14,-2.01 0.81,-0.23 1.91,-2.27 -0.21,-1.81 0.55,-1.2 -0.98,-0.6 -0.17,-1.4 1.9,-3.35 0,-0.9 -3.68,-1.75 -2.68,-3.05 -0.43,-4.37 1.25,0.83 0.81,-1.09 1.9,-0.95 1.18,-2.14 -0.84,-1.36 0.21,-1.29 5.04,-2.92 -0.42,-0.87 0.57,-1.27 1.28,-0.66 1.17,-3.46 0.73,0.31 4.39,-2.78 2.55,-0.74 z" 
                fill="rgb(151, 144, 238)" 
                stroke="white" 
                stroke-width=".7px"
                title="Federally Administered Tribal Areas" 
                id="PK-TA" 
            />
        </svg>