<svg xmlns="http://www.w3.org/2000/svg" viewBox="449.88930000000016 0.2713180999998928 206.18000000000018 122.49000190000008" width="206.18000000000018" height="122.49000190000008">
            <path 
                d="m 536.1193,3.7913181 1.05,-0.18 2.42,-1.77 0.76,3.59 2.75,2.58 3.98,-3.71 1.58,0.29 3.12,-0.7 0.75,1.5 2.75,1.51 2.38,-0.38 3.98,1.09 0.32,0.39 -0.82,1.18 1.1,1.5699999 0.22,5.09 1.22,2.41 0.54,0.25 1.19,-0.71 1.23,0.41 -0.16,-1.52 0.75,-0.59 4.1,-0.11 2.99,1.08 2.3,1.58 5.02,4.47 0.54,3.42 1.91,2.44 1.67,4.26 -0.01,0.95 -1.63,2.48 0.2,2.11 0.84,0.21 1.77,2.95 -1.91,0.29 -0.18,1.7 0.68,0.9 -2.06,0.33 -0.16,0.78 -0.97,0.45 0.37,3.08 2.14,2.44 3.49,0.17 2.72,4.12 0.5,4.49 1.81,-0.83 4.91,0.83 1.73,-1.78 2.14,0.01 1.03,-1.05 1.18,0.26 2.37,-1.45 0.9,1.18 -0.49,3.52 0.7,1.62 2.71,1.27 3.34,3.98 3.86,0.14 3.92,3.07 3.99,0.33 1.45,1.56 3.58,1.81 4.86,-0.12 3.44,2.94 5.21,-1.29 2.69,0.9 3.49,-0.17 3.94,-1.73 1.76,0.76 -0.74,-0.02 -6.71,6.35 -19.1,14.72 -3.42,1.44 -1.94,-0.68 -0.8,4.670002 -1.05,0.17 -3.88,-1.73 -2.28,1.74 -2.39,0.41 -0.23,4.06 -2.38,3.78 -4.64,0.06 -3.39,-1.69 -3.41,2.74 -2.7,0.2 -2.17,2.21 -3.95,1.92 -1.4,-0.15 -1.83,-1.39 -1.47,0.28 -1.73,1.89 -1.76,-0.06 -1.07,1.23 -2.92,1.42 -3.63,2.75 -5.17,-1.07 -5.84,-0.22 0,0 -1.1,-1.58 -1.55,-0.63 -1.63,-2.49 -0.37,-1.68 0.56,-4.81 -0.45,-1.39 -2.37,-2.23 -1.07,-2.22 -0.5,-0.03 -1.42,2.27 -0.72,0.21 -0.45,-0.77 -4.37,3.46 -2.11,-3.04 -4.13,-1.25 -2.39,-2.12 -1.26,-0.34 -0.71,1.24 0.1,-4.07 0.82,-2.130002 -4.22,-2.37 -2.61,-2.73 -4.01,2.02 -1.78,1.56 -1.6,-0.26 -1.03,-1.44 -3.42,-0.98 -4.09,-0.32 -3.88,0.85 0,0 -1.79,-1.25 -1.88,0.37 -0.9,-1.23 -2.05,-0.65 -1.54,-1.23 -2.55,0.07 -1.92,-1.41 -2.84,0.77 -1.07,-3.8 0.02,-3.86 0.6,-1.74 1.78,-1.21 1.77,-2.74 -1.02,-0.87 -14.15,-2.4 -5.16,-1.92 -5.61,-4.51 -0.94,-2.42 0.48,-3.73 -1.22,-1.03 -1.12,-0.12 -3.38,1.37 -5.84,-1.05 -5.98,1.79 -3.7,-1.31 -1,-1.67 -1.41,-0.91 2.1,-5.11 -1.87,-3.95 0.97,-2.58 -0.13,-2.76 0.8,-1.88 1.8,-1.18 2.68,0.11 1.25,-1.86 5.48,-3.46 0.94,-3.7 3.27,-0.87 0.17,-1.31 2.76,-1.87 1.45,-3.25 -0.96,-2.95 0.46,-1.16 1.77,-0.28 1.99,-1.26 3.5,0.56 4.17,-1.68 2,-0.26 2.93,1.21 3.1,-0.12 0.89,1.04 2.87,0.22 1.58,-0.84 1.37,0.33 1.2,-0.38 3.1,0.65 0.59,-1.95 -0.88,-2.07 -1.65,-0.57 -0.65,-1.23 -3.27,-0.87 -1.37,-2.07 0,0 -0.73,-0.6799999 0.8,-0.35 1.64,-0.07 1.1,0.58 4.12,-0.4 7.26,2.9999999 3.56,0.24 1.25,-3.2799999 3.88,0.45 6.5,-4.61 3.75,-0.14 0.74,1.63 0.85,0.24 0.51,-3.58 1.53,-0.75 0.33,-1.88 2.45,-0.29 0.85,2.27 z" 
                fill="rgb(151, 144, 238)" 
                stroke="white" 
                stroke-width=".7px"
                title="Gilgit-Baltistan" 
                id="PK-GB" 
            />
        </svg>