<svg xmlns="http://www.w3.org/2000/svg" viewBox="355.5592999999996 10.161318 156.75000000000028 263.7100020000001" width="156.75000000000028" height="263.7100020000001">
            <path 
                d="m 494.2993,10.161318 1.37,2.07 3.27,0.87 0.65,1.23 1.65,0.57 0.88,2.07 -0.59,1.95 -3.1,-0.65 -1.2,0.38 -1.37,-0.33 -1.58,0.84 -2.87,-0.22 -0.89,-1.04 -3.1,0.12 -2.93,-1.21 -2,0.26 -4.17,1.68 -3.5,-0.56 -1.99,1.26 -1.77,0.28 -0.46,1.16 0.96,2.95 -1.45,3.25 -2.76,1.87 -0.17,1.31 -3.27,0.87 -0.94,3.7 -5.48,3.46 -1.25,1.86 -2.68,-0.11 -1.8,1.18 -0.8,1.88 0.13,2.76 -0.97,2.58 1.87,3.95 -2.1,5.11 1.41,0.91 1,1.67 3.7,1.31 5.98,-1.79 5.84,1.05 3.38,-1.37 1.12,0.12 1.22,1.03 -0.48,3.73 0.94,2.42 5.61,4.51 5.16,1.92 14.15,2.4 1.02,0.87 -1.77,2.74 -1.78,1.21 -0.6,1.74 -0.02,3.86 1.07,3.8 2.84,-0.77 1.92,1.41 2.55,-0.07 1.54,1.23 2.05,0.65 0.9,1.23 1.88,-0.37 1.79,1.25 0,0 -2.35,1.63 -0.14,1.39 0.9,1.98 -1.14,1.050002 -0.16,1.9 -2.66,4.14 -2.91,1.91 -2.86,-0.01 -4.16,2.42 -0.88,2.37 -1.54,1.42 0.41,2.28 -1.28,3.69 -0.63,0.14 -1.67,-1.12 -4.53,0.74 -0.85,0.79 -1.68,9.23 0.58,1.93 1.95,1.9 1.73,11.59 0.8,2.33 0,0 -2.24,1.86 -1.57,-0.32 -0.95,0.47 -0.23,0.54 0.71,1.28 -1.6,0.72 0,0 -2.25,2.79 -1.77,0.37 -1.23,0.96 -3.42,0.39 -1.7,-0.7 -3.87,1.97 0,0 -1.87,0.79 -1.1,-1.43 -3.38,-0.28 -0.04,-2.21 -0.9,-1.53 -0.06,-2.75 -0.72,-0.49 -0.17,-1.49 -1.01,0.19 -2.84,3.14 -1.81,-0.11 -1.13,-0.88 0.93,-2.44 -3.32,-0.23 -1.32,-2.53 -1.44,-0.01 -0.57,-1.2 -0.88,0.2 -1.35,0.66 -1.96,2.07 -4.66,1.53 0.32,7.63 -3.32,0.03 -2.65,-0.89 -0.44,1.06 -1.6,0.6 -1.08,3.08 -1.07,1.11 0,3.38 -1.16,1.45 0.27,1.66 -2.21,2.06 -0.97,2.91 -1,0.99 -4.6,1.65 -0.93,1.09 0.33,1.38 -1.03,2.25 2.01,2.67 0.21,1.61 -1.9,2.89 0.22,1.99 -3.69,-1.81 -2.03,-5.12 -1.41,-0.22 -1.63,0.7 -1.88,-1.38 -1.89,0.21 -0.1,1.45 1.4,2.52 -0.55,2.48 1.49,1.23 -0.36,2.08 -2.43,0.62 -1.42,1.22 -1.74,-0.93 -1.3,0.02 -3.54,2.26 -1.4,2.19 -0.16,4.28 -0.83,1.67 2.11,7.9 1.38,0.54 1.63,-0.34 0.84,0.8 0.07,1.08 -0.98,2.23 0.86,0.51 2.14,-1.54 1.53,0.01 0.62,2.25 -0.84,4.89 -2.76,0.32 -0.98,0.61 -2.9,4.18 -0.03,3.35 -2.82,1.85 0.24,2.64 -1.54,4.13 -0.29,2.57 -0.81,1.1 -0.03,1.49 -1.58,1.29 -2.84,5.72 -2.26,2.3 0.08,1.99 -0.73,2.37 -0.86,0.83 -0.07,1.29 1.6,-0.64 0.63,1.44 -0.88,1.36 0.23,2.57 -1.94,0.98 0.49,1.35 -0.93,2.73 -2.42,2.05 -0.73,-2.64 -2.32,1.12 -4.59,-1.43 -4.12,2.04 -0.61,1.59 -1.18,0.57 0,1.12 0,0 -3.04,-12.15 3,-2.61 -3.8,-1.8 -1.52,-2.48 -6.94,-21.99 0.25,-2.1 1.67,-2.23 7.04,-4.52 5.88,-6.47 1.3,-0.37 1.65,0.39 0.71,-1.08 -6.96,-11.08 -0.23,-4.09 1.18,-0.91 2.41,-6.38 2.62,-3.48 0.53,0.73 3.42,0.02 2.81,-0.71 3.83,-3.04 2.24,-3.31 -1.42,-1.06 -4.88,-0.31 -0.53,-1.67 -3.17,-1.06 -2.44,-2.53 -2.3,-3.91 3.67,-0.41 2.38,-2.21 3.23,-0.84 1,-3.84 6.73,1.12 3.28,-0.13 0.91,-0.73 1.59,-0.11 0.56,-2.14 1.26,-1.12 -0.42,-3.04 0.89,-1.03 2.5,1.16 5.38,4.02 3.54,-0.76 4.95,1.05 2.81,-0.1 -0.04,0.74 -1.51,1.6 0.23,1.05 1.13,0.8 3.48,-0.57 5.01,-4.06 -0.89,-2.03 1.72,-2.18 0.16,-1.33 -4.35,-3.38 -1.08,2.07 -2.43,1.68 -2.33,0.78 -3.08,-0.38 -0.67,-1.19 0.28,-2.87 -3.43,-2.22 0.04,-2.95 -2.01,-3.76 0.07,-3.79 2.92,-5.78 2.23,-1.6 2.88,-4.76 1.87,-0.78 2.79,-4.41 -1.88,-3.75 1.13,-1.16 0.86,-3.08 2.57,-1.53 0.24,-2.28 0.98,-2.02 -0.32,-0.86 -1.16,-0.72 -4.26,-0.76 -2.34,-4.8 -2.41,-2.68 0,0 1.25,-2.550002 1.05,-0.27 -1.36,-0.77 -0.67,-2.2 3.16,-2.32 2.78,-3.15 -0.09,-0.89 -1.91,-0.85 -2.74,-3.22 4.04,-5.67 -0.18,-1.17 -1.79,-2.59 0.99,-2.49 -1.1,-1.18 -3.56,-1.37 1.99,-3.97 -0.61,-1.45 -2.55,-1.7 0.92,-1.37 -0.86,-0.77 -0.63,-2.12 -2.9,-2.53 -0.5,-2.35 -0.8,-0.65 -1.35,0.25 -0.56,-0.91 -2.9,-1.75 -0.78,-1.7 1.52,-1.66 0.1,-1.02 1.81,-1.69 1.55,-0.27 1.33,-1.66 2.24,-1.08 0.64,-2.18 5.94,-3 -0.31,-1.23 -1.38,-1.12 1.99,-1.52 0.95,-1.51 0.05,-1.87 2.8,1.28 2.76,2.28 2.38,0.06 0.17,-1.43 -1.67,-0.61 0.52,-3.04 2.98,0.01 1.02,-2.66 3,-0.33 1.79,-1.34 1.45,-0.08 0.24,-2.46 4.25,-0.77 -0.62,-1.39 1.72,-2.88 2.37,0.41 1.33,-0.69 2.06,-0.12 0.81,-0.71 3.25,-0.05 1.94,-2.18 3.34,-1.23 9.71,0.36 7.97,-1.54 3.85,-0.19 5.15,1.22 4.81,-1.49 2.55,0.36 z" 
                fill="rgb(151, 144, 238)" 
                stroke="white" 
                stroke-width=".7px"
                title="Khyber Pakhtunkhwa" 
                id="PK-KP" 
            />
        </svg>