<svg xmlns="http://www.w3.org/2000/svg" viewBox="326.81930000000085 144.77131999999997 233.46999999999974 284.7700000000001" width="233.46999999999974" height="284.7700000000001">
            <path 
                d="m 367.8593,273.87132 0,-1.12 1.18,-0.57 0.61,-1.59 4.12,-2.04 4.59,1.43 2.32,-1.12 0.73,2.64 2.42,-2.05 0.93,-2.73 -0.49,-1.35 1.94,-0.98 -0.23,-2.57 0.88,-1.36 -0.63,-1.44 -1.6,0.64 0.07,-1.29 0.86,-0.83 0.73,-2.37 -0.08,-1.99 2.26,-2.3 2.84,-5.72 1.58,-1.29 0.03,-1.49 0.81,-1.1 0.29,-2.57 1.54,-4.13 -0.24,-2.64 2.82,-1.85 0.03,-3.35 2.9,-4.18 0.98,-0.61 2.76,-0.32 0.84,-4.89 -0.62,-2.25 -1.53,-0.01 -2.14,1.54 -0.86,-0.51 0.98,-2.23 -0.07,-1.08 -0.84,-0.8 -1.63,0.34 -1.38,-0.54 -2.11,-7.9 0.83,-1.67 0.16,-4.28 1.4,-2.19 3.54,-2.26 1.3,-0.02 1.74,0.93 1.42,-1.22 2.43,-0.62 0.36,-2.08 -1.49,-1.23 0.55,-2.48 -1.4,-2.52 0.1,-1.45 1.89,-0.21 1.88,1.38 1.63,-0.7 1.41,0.22 2.03,5.12 3.69,1.81 -0.22,-1.99 1.9,-2.89 -0.21,-1.61 -2.01,-2.67 1.03,-2.25 -0.33,-1.38 0.93,-1.09 4.6,-1.65 1,-0.99 0.97,-2.91 2.21,-2.06 -0.27,-1.66 1.16,-1.45 0,-3.38 1.07,-1.11 1.08,-3.08 1.6,-0.6 0.44,-1.06 2.65,0.89 3.32,-0.03 -0.32,-7.63 4.66,-1.53 1.96,-2.07 1.35,-0.66 0.88,-0.2 0.57,1.2 1.44,0.01 1.32,2.53 3.32,0.23 -0.93,2.44 1.13,0.88 1.81,0.11 2.84,-3.14 1.01,-0.19 0.17,1.49 0.72,0.49 0.06,2.75 0.9,1.53 0.04,2.21 3.38,0.28 1.1,1.43 1.87,-0.79 0,0 0.27,6.28 1.37,-0.12 1.74,-2.62 0.73,1.74 0.6,4.4 -0.17,2.83 2.39,2.9 6.17,1.23 6.43,-2.02 0.45,-0.8 -0.65,-6.24 -2.14,-5.08 -2.06,-1.02 -0.91,-3.04 0.02,-4.22 0,0 1.6,-0.72 -0.71,-1.28 0.23,-0.54 0.95,-0.47 1.57,0.32 2.24,-1.86 0,0 2.15,4.36 -0.73,4.32 1,1.94 0.24,2.24 -0.96,1.58 -0.2,1.86 2.25,2.56 0.18,1.96 -0.78,0.63 -0.12,0.96 0.71,1.49 -1.14,0.95 -1.03,3.08 0.54,1.53 0.87,0.27 -0.3,0.83 0.62,1.46 -0.38,0.72 0.72,2.38 1.41,0.96 0.05,1.75 -1.36,1.34 0.06,1.54 4.72,1.91 0.91,1.36 1.24,0.67 2.88,-1.21 1.58,0.05 3.16,3.78 12.64,6.25 1.41,1.94 1.11,0.18 2.59,-1.04 0,0 2.7,2.34 3.2,-0.78 1.05,-1.56 0.02,-1.42 2.13,-0.77 -1.81,5.55 1,2.76 -1.31,2.15 0.39,2.32 1.09,1.01 0.24,2.06 2.33,0.63 3.42,-0.78 5.33,2.21 2.2,-2 2.03,0.53 1.76,2.69 0.76,0.35 1.58,-0.5 0.27,0.87 1.39,0.28 3.83,3.08 0.36,1.96 1.05,0.9 -0.15,1.55 -1.77,1.91 -0.12,1.53 -1.2,0.77 -0.43,1.34 -1.27,1.16 -0.44,0.12 -0.2,-1.27 -1.06,-0.19 -0.39,1.5 -0.8,0.71 -0.78,-0.67 -1.09,0 -0.93,1.06 -3.37,1.39 -3.06,-1.67 -1.11,0.74 -0.96,-0.05 -0.28,1.2 -0.96,0.17 0.21,0.5 -1.06,0.54 -0.36,1.92 -2.37,0.13 -0.46,0.67 -1.03,-0.93 -0.23,1.5 -1.68,0.3 -1.44,1.67 -0.86,-0.21 -0.77,1.93 -0.93,0.66 -0.48,2.37 0.3,1.06 -1.3,0.36 -0.03,1.01 3.23,7.01 0.11,1.52 -1.12,0.59 -0.35,0.87 2.35,0.68 -0.22,0.4 0.82,0.81 -0.64,1.64 -1.19,1.2 -1.66,4.44 -0.83,-0.01 -0.74,1.19 0.43,1.11 -0.81,2.97 0.13,1.94 1.5,0.76 0.33,1.62 1.29,-0.43 0.27,-1.72 1.13,-0.16 0.37,0.71 0.77,-0.62 1.02,0.2 0.66,1.58 -0.86,1.52 -1.92,0.65 -0.87,0.16 -1.61,-1.08 -1.03,2.46 0.24,0.86 -1.6,1.19 -1.01,0.05 -1.93,1.8 -0.18,0.89 -1.95,0.93 -0.1,1.77 -0.79,-0.39 -1.02,0.31 -1.18,2.15 0.45,0.76 -1.36,0.66 0.76,1.69 -1.92,0.48 -3.14,3.89 -1.26,0.02 -0.37,1.18 -0.69,-0.31 0.06,1.67 -0.96,0.92 0.64,0.43 -0.26,0.7 -0.43,0.41 -1.26,-0.71 -1.94,1.59 -0.82,1.92 -1.05,-0.24 -0.29,1.88 -0.95,0.18 -1.24,2.15 1.44,1.43 1.91,3.34 0.33,2.97 -6.93,5.72 -6.81,1.96 -8.5,3.75 -4.65,16.89 -7.04,13.6 -3.45,4.48 -2.26,5.29 -8.91,4.06 -12.63,7.51 -3.2,4.35 -4.55,13.44 -7.29,6.6 -2.42,3.49 -1.39,7.39 -9.25,3.85 -9.61,0.14 -5.29,1.04 -15.04,6.24 -4.9,-0.82 -3.06,-5.3 -0.69,-3.98 -3.79,-3.89 -1.25,-0.55 -1.98,-0.05 -4.37,1.11 -2.44,2.7 -3.71,2.67 0,0 -6.43,-2.93 -3.22,-3.01 -2.36,-4.01 -2.52,-7.01 0.09,-1.5 -1,-0.85 -0.21,-3.19 -1.86,-0.54 -0.66,-2.21 -5.34,-0.89 -0.02,-1.21 -4.14,-0.71 -4.22,1.84 0,0 -1.88,-3.01 -0.12,-1.23 3.39,-1.9 2.51,-3.78 1.96,-4.63 -1.27,-1.98 0.35,-2.92 2.8,-2.59 2.51,-3.9 2.28,-1.29 1.73,-8.31 -0.65,-0.9 -1.65,1.17 -1.54,-2.29 0.76,-1.56 -0.35,-1.16 -3.71,-1.52 1.32,-4.64 -0.07,-4.94 1.2,-1.51 4.37,-1.3 1.22,-2.29 2.42,-1.66 4.9,-10.97 -0.02,-3.13 2.22,-2.24 1.07,-1.94 -0.02,-1.27 -1.21,-0.44 -0.98,0.2 -1.22,1.33 -0.17,-2.16 -1.25,-0.67 1.3,-3.1 0.17,-3.26 4.46,-7.74 -0.86,-1.9 0.34,-2.28 0.47,-0.65 1.78,-0.13 0.39,-1.55 1.52,-0.18 0.41,-2.62 2.49,-0.46 0.11,-1.49 -0.98,-0.64 -0.06,-0.66 0.48,-8.61 0,0 0.74,-0.19 0.18,-0.66 -0.24,-3.48 4.56,-1.13 z" 
                fill="rgb(151, 144, 238)" 
                stroke="white" 
                stroke-width=".7px"
                title="Punjab" 
                id="PK-PB" 
            />
        </svg>