<svg xmlns="http://www.w3.org/2000/svg" viewBox="223.26929999999993 393.41131999999993 173.36000000000013 206.60000000000002" width="173.36000000000013" height="206.60000000000002">
            <path 
                d="m 279.6793,595.00132 2.74,-0.55 0.42,2.42 -1.39,3.1 -0.96,0.04 -0.52,-0.63 -2.25,0.41 -0.25,-0.89 1.15,-0.76 0,-2.28 1.06,-0.86 z m 111.99,-25.98 0.3,-3.4 -0.66,-0.78 0.09,-2.45 0.77,-1.32 3.35,-2.12 -1.33,-1.33 -1.91,-4.62 -3.02,-4.81 -1.98,-8.9 -4.94,-5.14 -0.86,-2.38 -2.71,-2.91 0.53,-5.45 -0.45,-0.28 0.19,-5.84 -0.59,-1.56 -1.89,-0.4 -3.13,1.28 -5.28,0.55 -4.64,-1.6 -1.36,-2.78 -2.57,-2.27 -3.17,-5.34 -0.52,-5.54 2.42,-3.95 1.06,-3.38 -0.31,-1.97 0.75,-8.41 -0.62,-2.75 -1.11,-1.02 -2.81,-1.07 -7.23,0.78 -2.47,-0.48 -3.62,-2.65 -7.98,-3.71 -1.23,-2.85 1.14,-9.09 2.51,-6.42 3.4,-3.72 7.58,-6.55 2.87,-4.31 3.1,-2.34 3.54,-9.16 3.84,-5.13 0,0 -6.44,-2.93 -3.22,-3.01 -2.35,-4.01 -2.52,-7.01 0.09,-1.49 -1,-0.85 -0.21,-3.19 -1.86,-0.53 -0.66,-2.21 -5.34,-0.89 -0.02,-1.22 -4.15,-0.7 -4.22,1.84 0,0 -22.99,0.95 -6.73,-0.53 -5.39,0.88 -1.53,1.26 -2.13,3.41 -4.28,1.97 -11.67,9.28 -2.08,3.46 -2.69,0.68 -3.78,2.28 -3.8,1.28 -9.49,1.45 -0.7,0.65 -0.99,4.66 -1.49,2.14 -2.14,1.68 -1.06,3.7 -2.06,2.36 -0.5,5.13 -1.59,4.03 -0.09,1.95 1.16,12.61 -0.59,4.52 0.73,4.61 -0.63,3.89 0.86,5.52 11.06,19.35 -0.91,7.05 0.55,3.11 -0.3,2.74 -1.9,3.54 -0.49,2.63 -3.29,2.61 -0.64,2.63 -1.9,0.89 -2.46,4.34 0.18,3.49 -1.19,2.86 -2.26,1.51 -1.86,2.48 -0.13,2.66 -3.16,3.47 -2.95,0.41 -3.8,2.5 -2.19,2.57 0,0 0.14,0.42 -1.19,0.17 -1.02,1.07 -0.19,0.75 0.47,0.54 2.38,-0.42 0.94,-0.72 2.76,0.6 0.46,-0.9 0.77,-0.07 2.24,0.87 2.7,2.35 -0.77,-1.73 -1.64,-0.81 -0.14,-0.61 1.97,-0.48 0.09,0.77 0.49,-0.11 0.17,1.72 1.49,0.35 2.18,2.47 0.91,-0.6 -0.65,-1.33 1.33,0.68 2.68,-1 1.43,0.49 0.33,1.31 -2.47,1.55 1.11,1.8 -0.96,0.65 0.41,0.8 1.9,0.23 0.24,1.75 -0.85,2.21 1.55,1.66 -0.29,0.98 1.72,1.96 0.43,3.2 1.62,0.9 -1.54,0.54 0.24,0.46 -0.81,0.59 0.81,2.18 1.34,0.68 -0.57,1.43 1.32,2.36 0.18,2.27 0.95,0.64 0.33,2.91 1.5,0.59 0.31,0.77 1.73,0.27 -0.54,1.85 1.68,0.68 1.08,-0.4 0.62,1.39 2.06,1.51 1,0.09 0,1.24 0.76,0.36 2.13,-0.23 -0.46,-1.06 0.83,-0.03 1.57,1.15 0.15,-0.41 1.67,0 0.42,-3.78 1.09,0.43 2.42,2.89 0.76,-0.35 0.6,0.84 -0.43,1.25 0.81,0.88 1.1,-0.98 0.04,0.65 0.72,0.34 0.81,-0.85 -0.1,-4.73 1.82,2.58 4.17,-0.54 0.22,-1.19 1.85,-0.89 1.5,-1.61 1.7,0.55 0.25,-1.73 1.55,-1.02 0.68,1.14 1.05,-1.18 0.83,0.22 2.14,-0.88 0.69,2.63 1.28,-0.57 7.82,0.05 0.58,-13.57 2.41,-1.02 0.83,4.22 1.19,0.48 0.75,-0.08 0.78,-2.29 1.12,-0.99 0.9,1.65 1.16,0.49 3.57,-1.82 4.13,1.43 4.27,-1.75 2,0.44 2.69,-0.31 2.69,0.79 3.85,-0.96 4.79,4.33 9.83,0.42 1.76,-0.18 1.36,-0.99 2.31,-4.13 9.72,-2.65 7.34,-2.75 2,0.76 -1.54,2.36 0.59,1.45 -0.59,0.7 0.6,0.35 -0.52,1.4 3.14,1.15 5.82,0.1 3.42,-1.45 -0.35,-1.42 2.89,-2.34 1.5,-0.6 0.56,0.58 1.32,-0.02 1.59,-1.44 1.42,-0.48 0.35,-0.88 -0.59,-0.73 -4.37,-0.59 z" 
                fill="rgb(151, 144, 238)" 
                stroke="white" 
                stroke-width=".7px"
                title="Sindh" 
                id="PK-SD" 
            />
        </svg>