<svg xmlns="http://www.w3.org/2000/svg" viewBox="525.3631600000003 433.1885 248.77999999999997 142.20000000000016" width="248.77999999999997" height="142.20000000000016">
            <path 
                d="m 713.35316,433.1885 4.53,0.8 3.88,5.56 -5.17,4.78 0.65,2.38 3.23,-0.8 2.58,1.59 3.23,-2.38 2.59,2.38 -3.88,3.18 0,5.57 2.59,0 -0.65,11.92 -5.82,0.8 0,2.39 2.59,0.78 0,3.19 3.88,3.18 3.23,0 2.59,-1.6 0,-7.15 1.94,-0.79 10.35,3.97 6.46,5.57 4.53,1.59 -0.65,7.95 5.82,2.38 2.59,7.16 9.05,3.17 0.65,3.18 -4.53,3.18 -4.53,0 -9.69,-4.76 -0.65,-2.39 -4.53,-2.38 -6.46,0 -10.35,5.55 -1.29,4.77 13.58,-1.58 8.4,3.18 -0.65,7.15 -5.17,3.18 -5.82,-0.79 -1.29,-2.39 -5.18,-2.38 -6.46,0 4.53,6.35 3.23,0 1.94,2.39 0,7.15 -5.82,3.17 0,5.57 0,0 -2,9.94 0,0 -9.92,5.65 -6.01,-3.04 -1.77,-4.35 -9.56,-1.74 -5.31,10.44 -2.83,0.44 -7.44,10 -2.12,0.44 -7.79,-6.09 -16.64,-4.35 -8.5,0 -13.45,-6.97 -2.83,2.18 -2.48,10.88 -3.18,1.73 -10.63,-1.73 -9.2,1.73 -5.66,-1.3 -13.81,0.87 -19.47,11.75 -4.96,-0.44 -13.1,-5.22 -6.72,1.31 -11.33,-3.92 0,0 -7.44,-9.13 -1.41,-6.53 -2.48,-2.61 0.35,-6.09 13.1,-23.06 3.54,-2.18 26.2,-2.17 14.16,12.18 2.48,-0.43 0.35,-10.45 8.15,-10.44 2.12,-0.87 10.27,3.92 10.97,-1.31 2.12,-4.35 1.42,-10.88 -1.06,-15.67 7.43,-4.78 12.75,1.3 9.91,10.88 1.77,0 1.77,-6.09 5.31,-0.44 6.37,2.18 6.37,4.79 11.69,-0.44 7.79,-10.01 14.86,0 2.84,-3.91 -1.77,-17.85 -5.31,-1.74 3.18,-6.09 7.08,-4.36 z" 
                fill="rgb(151, 144, 238)" 
                stroke="white" 
                stroke-width=".7px"
                title="Central" 
                id="MT_CE" 
            />
        </svg>