<svg xmlns="http://www.w3.org/2000/svg" viewBox="0.25315999999996563 0.26850369999989376 392.38 226.91999630000004" width="392.38" height="226.91999630000004">
            <path 
                d="m 321.50316,192.9485 3.88,3.99 0,3.18 1.94,0.8 0,4.78 -4.52,-4.78 -6.47,1.58 -4.53,-4.78 0,-3.18 9.7,-1.59 z m 43.33,-15.11 3.23,3.98 -1.29,3.98 4.53,5.57 7.11,0 12.28,13.53 1.94,4.78 -3.88,5.56 -0.64,3.98 -7.76,-0.79 -10.99,2.38 -0.65,1.6 -4.53,-0.8 -1.29,1.6 -9.05,-1.6 -2.59,1.6 1.94,0.79 -0.65,1.6 -14.87,-0.8 -5.18,2.39 -5.17,0 6.47,-8.75 5.82,-3.98 0.65,-3.19 -0.65,-3.18 -3.88,1.6 -1.94,-1.6 -0.65,-3.98 -3.88,-1.6 -3.23,-7.96 1.94,-3.18 -4.52,-3.98 1.94,-5.57 8.41,1.6 2.58,-3.98 4.53,0 1.94,5.56 1.94,-5.56 3.88,0 4.53,3.18 4.52,0.8 1.94,3.98 0,-8.76 5.17,-0.8 z m -237.96,-177.5699963 3.88,3.18 6.47,0 5.82,2.38 11.64,-0.8 1.29,1.6 6.47,0 0,3.19 -2.59,0.8000003 0,2.4 3.24,2.38 12.93,1.6 1.29,5.57 -1.93,3.99 0.64,3.18 3.89,0 1.94,-6.38 1.29,0.8 0.65,-1.6 7.12,0 3.23,3.19 3.88,0 10.35,11.15 0.65,6.38 3.24,3.98 8.4,2.38 1.29,4.78 7.75,2.4 1.94,3.98 6.46,-0.8 7.12,-12.74 6.47,-0.8 1.94,3.98 2.58,0 2.59,7.96 2.59,2.4 5.81,0.79 7.12,9.56 5.17,-0.8 7.76,-4.77 12.29,1.59 1.94,3.98 1.3,15.14 4.53,1.59 0.65,6.38 3.88,0 3.23,-3.18 9.06,3.18 5.17,9.559996 24.57,24.68 3.88,7.17 1.29,8.76 -5.17,4.77 -10.34,1.6 -4.52,5.58 -11,0.8 -5.82,7.16 -10.99,0 -3.23,-3.18 -5.17,-0.8 -5.82,0 0,1.6 -5.17,0.79 -4.53,0 -3.88,-3.18 -2.58,0 -2.59,3.18 -5.17,-1.58 -1.3,4.78 5.17,0.79 -20.04,15.13 -5.82,0 -1.94,-1.6 -3.23,1.6 -0.65,3.98 -4.53,1.6 -13.57,-0.8 -1.94,4.78 -16.17,-3.18 -5.82,5.56 -13.57,4.78 -5.17,4.78 0,2.39 -1.94,0 -6.47,-7.97 -8.4,0 -5.82,-11.14 -14.22,0 -3.24,-2.39 -15.51,0 -2.58,-2.38 -8.41,0 -2.58,-3.18 -3.88,0.8 -3.88,-1.6 0,-1.6 -8.4,1.6 0,1.6 -3.88,0 -1.29,2.38 -6.47,-3.18 0.65,-2.39 -5.17,1.6 -3.88,-6.37 -2.59,0 -1.29,-3.98 -8.4,-8.76 0,-7.16 -7.76,-7.16 -7.76,0.79 1.94,-1.58 -5.82,-3.19 -10.99,0 -2.59,3.19 -3.23,-0.8 -5.82,1.6 0,-1.6 -1.94,0.8 -8.4,-5.58 -3.23,0.8 -4.53,-5.58 0,-4.78 7.12,-7.96 -1.29,-3.98 1.29,-7.16 -3.24,-9.559996 0.65,-2.39 3.88,-0.8 0.65,-3.18 -1.94,-2.38 -2.58,0 -1.29,-8.76 8.4,-8.76 0.65,-3.98 -2.59,-11.95 -8.4,-3.98 -5.17,0 -0.65,-1.59 -1.94,-22.3 2.59,-8.76 7.12,1.59 12.93,0 1.94,-1.59 10.99,0.8 5.17,-3.98 3.88,-7.18 7.76,0 8.4,-3.9800003 9.05,0 11,-2.38 3.23,3.18 4.52,0 3.24,-6.38 3.88,0 6.47,3.98 5.82,0 1.94,-4.77 6.47,0 1.94,1.59 8.28,-1.67 z" 
                fill="rgb(151, 144, 238)" 
                stroke="white" 
                stroke-width=".7px"
                title="Gozo" 
                id="MT_GO" 
            />
        </svg>