<svg xmlns="http://www.w3.org/2000/svg" viewBox="479.92315999999977 545.3684999999996 374.40000000000015 246.9000000000002" width="374.40000000000015" height="246.9000000000002">
            <path 
                d="m 731.40316,548.8485 4.6,3.48 -2.48,6.96 -1.77,1.74 -3.89,0 -5.31,6.09 -8.15,0.87 -8.14,5.22 -9.2,13.49 -1.42,4.78 9.91,9.14 -4.95,2.17 0,2.61 5.31,4.78 8.49,3.05 4.25,5.65 8.14,1.74 2.84,10.88 4.95,-0.44 2.48,-3.48 10.62,-5.22 6.73,-0.87 8.49,6.53 13.81,5.21 10.27,20.44 12.39,17.4 1.06,6.52 2.12,0.87 1.77,6.52 13.46,4.78 12.03,12.61 2.48,8.26 4.96,5.65 -0.39,8.51 0,0 -2.59,-0.79 -7.11,-9.53 -9.7,2.37 -7.76,0 1.94,2.39 -2.59,3.97 5.17,0 1.95,9.53 -1.95,2.38 -10.34,0.8 3.23,9.52 1.94,0.8 0,4.77 2.59,0 1.3,-3.19 5.81,-2.38 12.28,13.5 5.83,0.79 -1.94,-4.76 -3.89,-3.18 -1.93,-5.55 9.7,0 7.76,7.14 0.64,6.35 5.82,-3.18 1.3,0 0,2.39 -2.59,0.8 -7.11,8.73 -4.53,-5.56 -1.94,12.7 -8.41,5.56 0,2.38 -5.17,1.59 -3.23,3.17 -5.17,0 -4.53,3.97 -21.34,-1.59 -2.59,-1.58 -12.28,2.37 -10.99,-2.37 -3.24,-3.17 -5.81,-0.8 -11,-7.15 -2.59,0 -0.64,-2.38 -4.53,0 -1.94,-2.39 -6.46,-0.78 -3.88,-2.39 -12.93,-0.79 -1.3,1.59 -5.82,0 -5.17,-2.38 -1.94,-3.18 -3.88,0.79 -0.65,2.39 -5.82,-1.59 -0.64,2.38 -7.12,0 0,-2.38 -2.58,0 -0.65,-1.59 -4.53,0.79 0,-1.59 -4.52,0 -8.41,-8.73 -12.29,-0.79 -7.11,-2.38 -0.64,-1.58 -0.65,1.58 -2.59,-0.8 0,2.39 -1.94,1.58 -7.11,0 -25.86,-12.7 -3.24,0 -2.58,2.38 -10.35,-10.32 -17.46,-1.58 -7.11,-2.39 -9.06,0 -7.76,-3.97 -3.87,-8.73 0,-5.56 -13.58,-2.38 -10.99,-4.77 -2.59,3.18 -3.23,-4.77 -3.23,-1.58 0.64,-1.59 -7.76,0.79 -3.88,-2.39 -3.23,-11.11 -5.83,-0.79 -5.17,-7.94 0,0 2.25,-2.81 0.36,-6.96 10.62,-11.74 2.47,-10.44 4.61,-6.52 2.83,-10 10.26,-0.44 5.67,3.92 4.6,-0.87 5.66,-3.05 14.17,-12.61 0,-3.04 -4.61,-6.09 -0.35,-13.48 -3.89,-8.27 2.12,-20.01 0,0 11.33,3.92 6.72,-1.31 13.1,5.22 4.96,0.44 19.47,-11.75 13.81,-0.87 5.66,1.3 9.2,-1.73 10.63,1.73 3.18,-1.73 2.48,-10.88 2.83,-2.18 13.45,6.97 8.5,0 16.64,4.35 7.79,6.09 2.12,-0.44 7.44,-10 2.83,-0.44 5.31,-10.44 9.56,1.74 1.77,4.35 6.01,3.04 z" 
                fill="rgb(151, 144, 238)" 
                stroke="white" 
                stroke-width=".7px"
                title="South Eastern" 
                id="MT_SE" 
            />
        </svg>