<svg xmlns="http://www.w3.org/2000/svg" viewBox="695.6431600000001 512.6785000000003 220.74999999999977 243.07000000000005" width="220.74999999999977" height="243.07000000000005">
            <path 
                d="m 836.86316,724.7885 0.39,-8.51 -4.96,-5.65 -2.48,-8.26 -12.03,-12.61 -13.46,-4.78 -1.77,-6.52 -2.12,-0.87 -1.06,-6.52 -12.39,-17.4 -10.27,-20.44 -13.81,-5.21 -8.49,-6.53 -6.73,0.87 -10.62,5.22 -2.48,3.48 -4.95,0.44 -2.84,-10.88 -8.14,-1.74 -4.25,-5.65 -8.49,-3.05 -5.31,-4.78 0,-2.61 4.95,-2.17 -9.91,-9.14 1.42,-4.78 9.2,-13.49 8.14,-5.22 8.15,-0.87 5.31,-6.09 3.89,0 1.77,-1.74 2.48,-6.96 -4.6,-3.48 0,0 2,-9.94 0,0 4.52,-0.8 3.88,-5.55 3.23,0 1.95,-3.19 2.59,0 2.58,-4.77 2.59,0 1.94,-3.18 5.81,-0.79 4.53,-4.77 7.12,1.59 6.46,-4.77 3.88,0 -2.58,16.69 -2.59,2.39 -5.82,0 -1.94,1.58 -4.53,5.57 0,3.17 -4.53,2.39 -4.52,11.12 -3.88,3.19 -5.82,1.58 -3.88,6.37 -5.82,1.58 1.94,4.77 3.88,0 3.88,-3.98 1.94,0 1.94,-4.77 9.7,-1.58 5.17,-3.18 3.89,2.39 1.93,5.56 1.94,0 1.95,7.15 0.64,-4.77 -7.76,-19.86 8.41,2.38 5.81,8.74 2.59,0 -2.59,-10.33 -3.23,-3.18 1.3,-2.38 5.81,7.15 12.29,3.17 0,-1.58 -3.23,0 -5.18,-7.94 3.24,-4.77 4.52,-0.8 -6.47,-6.36 0.66,-3.18 -1.95,-5.56 1.95,-1.59 5.81,3.18 1.94,4.77 1.95,-2.39 5.17,0 4.53,3.19 3.23,0 3.88,3.97 6.46,-0.8 3.23,2.38 3.88,0 13.58,15.11 9.7,2.37 5.83,9.54 3.23,0 3.23,3.18 0.65,6.36 7.76,0.8 7.75,4.76 14.23,18.27 3.88,1.59 3.88,9.54 7.11,5.56 -0.64,2.38 -7.12,0 -2.58,2.39 -7.77,-1.59 -3.87,4.76 -7.76,0 -2.59,2.38 0,2.39 2.59,0 0.64,-1.59 9.06,-0.8 0.64,-2.38 5.17,-0.79 7.77,4.76 3.23,4.77 5.17,0.8 0,1.58 -7.76,5.56 -3.88,6.36 -5.17,0.79 -5.82,3.97 0.65,1.59 -4.53,0 -3.23,3.17 -0.65,4.77 3.24,3.19 2.58,1.58 11.64,0.79 -1.29,5.57 -1.95,0 -0.64,2.37 -2.59,0 -1.29,6.36 1.94,0 1.94,3.97 5.17,2.38 3.24,4.77 0,3.17 -7.77,3.98 -5.81,-8.74 -8.41,-1.59 -3.88,3.97 2.59,6.36 -5.82,0 -1.94,3.17 1.29,5.57 8.41,2.37 0.64,1.59 -4.52,7.15 0.64,4.76 3.88,4.77 -0.64,6.34 -1.94,0.8 -0.65,6.36 -5.17,-0.8 5.17,3.97 0,3.17 -4.53,0 1.3,7.94 -5.17,0 -1.95,-3.17 -0.64,-7.15 -4.53,-5.56 1.3,-10.32 -3.24,-2.38 -9.05,-24.61 -3.88,-3.97 -12.28,-3.18 -0.65,2.38 2.58,7.94 2.59,0 -1.29,3.97 2.58,6.36 -3.88,7.14 z" 
                fill="rgb(151, 144, 238)" 
                stroke="white" 
                stroke-width=".7px"
                title="Southern" 
                id="MT_SO" 
            />
        </svg>