<svg xmlns="http://www.w3.org/2000/svg" viewBox="0.25079981999992884 380.27437000000003 391.6000001800001 407.7899999999998" width="391.6000001800001" height="407.7899999999998">
            <path 
                d="m 115.3908,647.83437 1.13,1.13 2.94,5.14 4.48,4.99 1.37,4.34 1.58,3.6 1.11,2.27 1.07,1.12 3.23,2.17 4.95,1.69 2.54,0.65 2.59,0.09 1.18,0.47 2.72,0.08 0.96,0.75 0.26,1.79 -0.37,6.56 -0.59,2.92 -1.5,4.16 -0.05,5.84 2.01,4.18 1.82,6.2 0.78,1.43 5.4,5.31 16.18,21.01 0,0 -1.58,-0.71 -1.8,-0.23 -3.54,0.73 -3.05,1.98 -4.97,2.12 -2.35,1.81 -6.48,3.48 -16.87,2.51 -3.7,0.83 -11.24,4.58 -4.38,3.97 -3.63,4.17 -3.26,1.98 -10.12,2.54 -14.15,0.86 -3.9,0.56 -3.12,1.41 -2.56,3.48 -1.55,0.98 -1.96,0.26 -2.99,-0.75 -1.76,-0.85 -3.06,-2.23 -3.01,-1.15 -2.33,-0.3 -2.31,0.5 -1.1,0.63 -1.63,1.71 -2.91,5.27 -2.48,5.66 -2.41,4.05 -1.48,1.57 -2.08,0.87 -2.22,0.05 -2.09,-0.71 -3.36,-3.41 -1.04,-1.8 -1.79,-6.34 -0.99,-1.96 -1.48,-1.64 -2.16,-0.89 -2.35,0 -3.41,0.83 -3.44,1.48 -3.07,-1.54 -2.4600002,-2.77 -4.26,-10.52 -2.76999998,-15.28 -0.28,-5.14 0.59,-5.01 2.47999998,-8 5.24,-3.94 5.0500002,-2.66 2.4,-1.72 5.22,-1.61 3.99,-2.24 4.43,-1.26 3.99,-2.31 4.41,-1.33 3.98,-2.34 4.41,-1.34 3.97,-2.35 5.09,-1.84 6.61,-5.61 10.04,-5.86 6.61,-5.63 5.75,-2.37 7.25,-6.1 9.4,-5.5 4.39,-3.86 3.83,-4.21 2,-4.8 2.52,-3.82 1.49,-4.83 z m 120.11,-7.73 9.36,3.07 2.23,-0.62 3.6,-2.04 2.2,0.08 2.53,1.04 0,0 -0.71,2.22 -1.88,3.22 -0.12,2.56 4.75,5.93 0.56,3.35 0.05,4.45 0.48,1.67 0.03,4.65 1.11,3.54 3.8,4.61 2.42,1.9 4.21,4.29 0.72,3.21 -2.83,2.5 -3.99,1.36 -3.54,2.37 -6.77,3.73 -5.08,1.21 -4.4,-0.01 -7.95,-1.73 -0.81,-0.59 -5.34,-5.44 -3.22,-3.85 -3.66,-6.2 -0.73,-2.33 1.07,-4.87 -0.01,-5.36 -0.92,-11.21 2.77,-6.04 2.7,-3.21 7.37,-7.46 z m 134.48,-198.82 -1.15,28.66 11.04,23.18 11.98,15.36 -20.92,31.1 -2.76,4.87 0,0 0.33,-3.22 -1.15,-0.22 -4.15,-3.04 -15.69,-7.17 -5.38,-1.33 -1.15,-0.63 -1.18,-4.49 -0.12,-3.07 -0.94,-2.91 -0.1,-5.22 -1.41,-3.15 -0.22,-2.4 -1.53,-2.13 0,0 -0.05,-1.75 -1.62,-5.88 -1.96,-3.4 -0.59,-3.66 0.01,-9.96 -1.14,-3.08 -4.83,-6.11 -3.5,-2.44 -4.78,-5.13 -5.52,-4.85 0,0 -3.13,-2.56 -3.04,-3.59 -6.64,-0.16 -2.74,-0.67 -6.34,-2.77 -4.06,-2.96 -6.55,-3.89 -4.15,-1.2 -5.42,-0.11 -1.29,-0.67 -1.16,-1.14 0,0 -0.29,-1.6 0.27,-1.64 1.6,-3.15 -0.5,-2.45 0.46,-1.21 0.1,-3.69 0.53,-1.72 -1.02,-2.67 0.44,-1.62 0.09,-2.79 1.98,-2.83 1.12,-2.58 0.21,-4.11 2.09,-5.05 0,0 1.46,-1.78 0.88,-1.84 1.86,-1.36 3.89,-3.96 1.03,-3.11 0.18,-2.81 0.59,-1.18 1.89,-1.91 1.1,-1.72 0.65,-2.44 0,0 4.73,3.72 16.43,15.02 10.48,22.81 21.32,12.9 29.43,6.56 z" 
                fill="rgb(151, 144, 238)" 
                stroke="white" 
                stroke-width=".7px"
                title="Balzers" 
                id="LI-01" 
            />
        </svg>