<svg xmlns="http://www.w3.org/2000/svg" viewBox="41.35079999999996 143.2943699999999 218.9800000000001 147.7800000000002" width="218.9800000000001" height="147.7800000000002">
            <path 
                d="m 196.2508,275.77437 -2.4,-3.34 0.48,-2.05 0.05,-4.47 1.14,-2.09 2.17,-1.16 0.47,0.24 4.41,6.58 3.22,2.18 3.66,1.68 7.09,2.26 2.2,0.36 0,0 -0.82,9.51 -1.86,3.89 -6.11,-1.76 -3.57,1.28 0,0 -3.6,-7.2 -6.53,-5.91 z m -133.27,-57.89 2.55,2.41 7.21,4.49 0.96,-0.17 3.14,-3.13 0.96,-0.39 1.56,1.31 1.09,2.21 -8.47,9.6 -5.92,8.65 -4.55,7.71 -3.56,4.15 -0.15,3.44 0.47,1.25 0.16,1.97 5.7,4.06 0.71,-0.09 2.8,-1.94 4.95,-0.03 0.72,-0.26 0.6,-1.31 0.6,-8.1 0.51,-1.43 0.05,-3.45 0.51,-1.44 0.03,-3.21 0.46,-0.71 0.8,-0.12 13.65,8.48 0.61,1.85 0.07,2.83 0.98,5.28 0.06,2.68 0.48,1.32 -0.05,2.04 0,0 -5.41,-0.03 -2.15,-0.54 -2.89,0.04 0,0 -1.2,0.57 -22.41,20.75 -1.61,1.11 -0.88,-0.5 -6.05,-12.87 -4.39,-3.35 -4.33,-2.49 0,0 0.47,-7.79 2.79,-3.29 2.05,-5.34 2.14,-3.03 1.87,-4.91 2.14,-2.96 1.9,-4.91 2.05,-3.05 0.67,-1.78 1.32,-7 2.45,-3.87 1.78,-4.71 z m 120.8,-67.13 -7.46,5.02 -4.99,3.86 -2.17,2.18 -1.78,2.7 -2.95,-0.44 -0.95,-0.44 -2.2,-0.01 -1.91,0.65 -1.69,1.7 -6,9.36 0.83,1.54 4.21,4.29 0.25,1.08 -8.88,5.77 -2.21,3.1 -1.75,5.28 -0.13,2.39 -0.51,1.55 0.11,1.4 1.58,2.75 14.56,12.66 19.18,14.26 0.86,-0.28 5.2,-5.93 2.36,-0.12 1.49,0.43 0.67,-0.48 1.39,-5.66 0.6,-1.17 0.75,-0.48 17.72,-4.38 4.82,0.07 2.77,3.34 3.19,6.32 3.32,11.01 -0.97,0.85 -6.83,2.37 -6.47,3.18 -0.33,0.94 0.86,1.36 4.45,4.46 2.43,1.73 3.25,1.19 4.19,0.81 8.76,5.77 6.41,1.77 1.24,-0.05 2.79,-1.02 3.8,0.7 4.73,3.6 5.87,5.89 0.98,0.66 1.11,-0.65 0,0 -2.63,3.42 -12.83,20.02 0,0 -9.98,-5.96 -7.92,2.53 -1.3,-0.08 -0.59,-0.66 -2.11,-4.92 -1.4,-6.04 0,0 -0.9,-10.81 -1.65,-3.91 -3.75,-6.23 -0.69,-0.43 -12.3,-2.94 -0.43,-2.47 -3.75,-3.8 -7.76,-4.85 -1.53,0.89 -2.61,2.31 -1.15,1.55 2.61,5.66 4.99,1.35 0.56,0.43 0.06,4.68 -1.69,0.73 -4.07,0.71 -4.12,1.58 -9.98,6.78 -1.74,0.11 -1.54,-0.55 -1.78,0.08 -0.76,1.35 -0.1,3.49 -0.71,2.87 0,0 -3.76,1.28 -2.37,0.09 -6.9,-1.63 -2.96,-0.23 0,0 -0.86,-0.75 0,0 -1.31,-5.04 -0.68,-1.02 -43.61,-17.37 -13.9,-40.85 -0.67,-4.49 0.32,-0.59 0.98,-0.13 4.9,1.16 4.95,-0.15 0.68,-1.93 0.15,-3.02 0.69,-0.31 2.45,0.04 0.53,-0.52 0.04,-8.67 -0.51,-1.75 -0.02,-3.38 0.53,-2.04 0.19,-3.01 3.54,-2.12 3.6,-0.81 2.26,-1.63 3.26,-3.25 2.65,-3.95 2.49,-2.22 8.09,-0.16 4.21,-3.59 3.62,-0.09 1.61,0.84 0.74,2.17 1.61,2.87 2.08,1.11 1.41,0.05 1.67,-1.16 0.81,-1.86 1.14,-1.44 1.24,-0.81 2.17,-0.2 2.99,-3.48 6.05,-0.21 2.78,-3.57 0,0 0.33,-1.02 2.69,-3.25 4.07,-3.49 3.02,-3.6 3.47,-2.05 0.53,0 0.61,0.61 2.02,3.53 0.8,2.54 0.58,0.78 z" 
                fill="rgb(151, 144, 238)" 
                stroke="white" 
                stroke-width=".7px"
                title="Eschen" 
                id="LI-02" 
            />
        </svg>