<svg xmlns="http://www.w3.org/2000/svg" viewBox="57.80079999999988 124.90437 163.7000000000001 153.44000000000008" width="163.7000000000001" height="153.44000000000008">
            <path 
                d="m 166.7108,274.50437 0.71,-2.87 0.1,-3.49 0.76,-1.35 1.78,-0.08 1.54,0.55 1.74,-0.11 9.98,-6.78 4.12,-1.58 4.07,-0.71 1.69,-0.73 -0.06,-4.68 -0.56,-0.43 -4.99,-1.35 -2.61,-5.66 1.15,-1.55 2.61,-2.31 1.53,-0.89 7.76,4.85 3.75,3.8 0.43,2.47 12.3,2.94 0.69,0.43 3.75,6.23 1.65,3.91 0.9,10.81 0,0 -2.77,0.04 0,0 -2.2,-0.36 -7.09,-2.26 -3.66,-1.68 -3.22,-2.18 -4.4,-6.58 -0.47,-0.24 -2.17,1.16 -1.14,2.09 -0.05,4.47 -0.48,2.05 2.4,3.34 0,0 -3.75,2.57 0,0 -0.93,-1.55 -2.22,-1.7 -6.4,-3.96 -6.71,0.03 -6.37,2.48 -3.16,0.86 z m -65.33,-146.66 0.49,0.31 -0.1,0.54 3.83,2.41 2.51,1.08 3.76,-2.16 3.53,-2.98 3.22,-2.14 0.82,0.01 3.74,3.83 1.67,2.25 0.3,0.92 -0.26,2.12 0.22,1.04 1.66,1.05 3.8,1.29 1.7,1.71 1.17,4.15 0.06,4.41 0.63,0.94 2.4,2.24 6.92,0.07 0,0 -0.8,1.44 0,3.13 0.63,0.76 2.18,1.16 2.01,0.05 5.77,-1.58 1.35,0.09 2.94,1.04 3.24,0 1.6,-0.51 3.18,0.12 0,0 -2.78,3.57 -6.05,0.22 -2.99,3.48 -2.17,0.2 -1.24,0.81 -1.14,1.44 -0.81,1.86 -1.67,1.16 -1.41,-0.05 -2.08,-1.1 -1.6,-2.87 -0.74,-2.17 -1.6,-0.84 -3.62,0.09 -4.2,3.59 -8.09,0.16 -2.49,2.23 -2.65,3.95 -3.26,3.25 -2.26,1.63 -3.6,0.81 -3.54,2.12 -0.19,3.01 -0.53,2.04 0.03,3.38 0.51,1.75 -0.04,8.67 -0.53,0.53 -2.45,-0.04 -0.69,0.31 -0.15,3.02 -0.68,1.93 -4.95,0.15 -4.9,-1.16 -0.98,0.14 -0.32,0.59 0.67,4.49 13.9,40.85 43.61,17.37 0.68,1.02 1.31,5.04 0,0 -3.8,-0.24 -1.18,-0.47 -2.58,-0.09 -1.18,-0.47 -2.72,-0.12 -1.19,-0.47 -2.96,-0.07 -1.74,-0.53 0,0 -2.02,-0.04 -1.21,-0.47 -2.53,-0.09 -1.23,-0.47 -2.87,-0.12 -2.08,-0.5 -8.54,0.03 0,0 -3.3,-0.65 -9.07,-0.07 -2.75,-0.55 -4.24,-0.04 0,0 0.05,-2.03 -0.48,-1.32 -0.06,-2.68 -0.98,-5.28 -0.07,-2.83 -0.61,-1.85 -13.68,-8.5 -0.8,0.12 -0.45,0.71 -0.03,3.21 -0.5,1.44 -0.05,3.45 -0.5,1.43 -0.6,8.1 -0.6,1.31 -0.72,0.26 -4.95,0.03 -2.8,1.94 -0.71,0.09 -5.7,-4.06 -0.16,-1.97 -0.47,-1.25 0.15,-3.44 3.56,-4.15 4.55,-7.71 5.93,-8.65 8.47,-9.6 -1.09,-2.21 -1.56,-1.31 -0.96,0.39 -3.13,3.13 -0.96,0.18 -7.21,-4.49 -2.55,-2.41 0,0 1.74,-2.45 0.91,-2.78 0.94,-6.55 2.57,-6.97 1.28,-9.06 2.54,-6.97 1.07,-7.94 0.95,-3.18 3.87,-7.98 3.35,-5.57 2.75,-3.6 2.05,-4.79 6.09,-7.01 1.55,-4.11 2.49,-3.78 1.99,-4.86 2.24,-2.44 z" 
                fill="rgb(151, 144, 238)" 
                stroke="white" 
                stroke-width=".7px"
                title="Gamprin" 
                id="LI-03" 
            />
        </svg>