<svg xmlns="http://www.w3.org/2000/svg" viewBox="132.50080000000003 270.79436999999996 155.03000000000003 131.60000000000014" width="155.03000000000003" height="131.60000000000014">
            <path 
                d="m 152.3808,305.45437 -0.6,-0.05 -2.57,-2.12 -1.55,-2.38 -0.13,-1.64 1.26,-2.34 1.15,0.11 5.54,3.05 0.48,3.91 -0.5,0.5 -3.08,0.96 z m 69.14,-29.52 1.4,6.04 2.11,4.92 0.59,0.66 1.3,0.08 7.92,-2.53 9.98,5.96 0,0 1,21.19 5.32,27.33 5.98,15.28 15.67,13.79 14.74,11.6 0,0 -0.64,2.44 -1.1,1.72 -1.88,1.91 -0.58,1.19 -0.18,2.82 -1.03,3.11 -3.89,3.96 -1.86,1.36 -0.88,1.85 -1.46,1.78 0,0 -1.43,-0.09 -7.36,-2.19 -7.16,-3.93 -8.06,-6.54 -14.76,-12.83 -6.45,-4.89 -12.86,-6.48 0,0 5.87,-8.11 4.23,-3.39 1.53,-3.39 2.84,-4.35 -19.45,-12.11 -6.23,-4.69 -10.2,-0.63 -0.87,0.71 -1.83,3.62 -1.3,0.5 -14.28,-3.44 -1.07,-0.51 -0.39,-0.66 0.02,-6.1 -0.5,-1.99 -0.1,-5.62 -2.19,-4.45 -3.37,-4.19 -4.93,-3.39 3.5,-7.18 2.45,-6.31 2.19,-3.85 0.91,-0.07 4.26,1.63 3.7,-2.35 3.44,-2.98 8.37,-1.24 2.3,-1.24 0,0 1.8,1.74 5.09,3.02 1.51,1.95 1.25,3.33 1.89,-0.81 0,0 3.57,-1.28 6.11,1.77 1.86,-3.89 0.82,-9.51 0,0 2.77,-0.05 z m -34.29,44.02 0.75,0.36 0.3,3.03 0.76,0.46 1.91,-0.07 1.32,-0.48 3.79,-0.08 1.26,-0.67 0.63,-1.44 -0.21,-0.98 -3.46,-4.23 -5.63,-0.28 -2.56,-3.08 -3.85,-0.11 -0.44,0.77 0.09,4.43 0.92,1.13 2.02,1.2 2.4,0.04 z m -54.73,-49.16 1.74,0.53 2.97,0.07 1.19,0.47 2.72,0.12 1.19,0.47 2.58,0.09 1.18,0.47 3.8,0.24 0,0 0.86,0.75 0,0 10.22,10.83 -0.07,1.62 -2.22,3.88 -1.09,1.24 -1.33,-0.69 -12.28,-11.64 -9.38,-4.27 -1.85,-2.94 -0.23,-1.24 z" 
                fill="rgb(151, 144, 238)" 
                stroke="white" 
                stroke-width=".7px"
                title="Planken" 
                id="LI-05" 
            />
        </svg>