<svg xmlns="http://www.w3.org/2000/svg" viewBox="101.38080000000001 0.39436689999999963 106.49 150.55000310000003" width="106.49" height="150.55000310000003">
            <path 
                d="m 140.2508,10.534367 2.02,-3.3900001 5.45,-6.75 7.33,8.81 11.32,11.7400001 14.21,18.65 20.07,17.74 4.97,6.42 0,0 -1.63,-0.93 -5.84,6.95 -5.38,5.42 -10.81,10.23 -8.92,7.26 -6.16,6.48 -1.62,2.300003 0.22,0.7 7.53,7.63 5,3.43 1.28,0.42 9.04,-5.92 12.69,-12.130003 5.48,-4.41 1.37,-0.49 -0.02,1.38 -1.7,3.71 -5.48,10.360003 -6.99,7.04 -6.2,4.56 -4.66,5.74 -6.63,3.44 -7.86,5.07 -6.09,3.44 -4.25,4.14 -2.9,0.07 -2.51,-0.57 -2.59,0.29 -6.55,11.58 0,0 -6.91,-0.07 -2.41,-2.24 -0.62,-0.94 -0.06,-4.41 -1.17,-4.15 -1.7,-1.72 -3.8,-1.29 -1.65,-1.05 -0.22,-1.04 0.25,-2.12 -0.29,-0.92 -1.67,-2.25 -3.74,-3.83 -0.83,-0.01 -3.21,2.14 -3.54,2.98 -3.76,2.16 -2.51,-1.08 -3.83,-2.41 0.1,-0.54 -0.49,-0.31 0,0 3.84,-4.6 1.55,-4.1 2.5,-3.76 1.54,-4.16 2.74,-3.64 3.19,-5.65 2.16,-6.560003 2.35,-4.03 1.63,-7.82 2.36,-4.04 1.7,-5.65 2.14,-4.65 1.71,-5.64 2.45,-3.95 1.71,-5.62 2.45,-5.69 1.57,-6.17 2.32,-5.87 0.38,-2.24 0.14,-11.78 -0.36,-4.75 z" 
                fill="rgb(151, 144, 238)" 
                stroke="white" 
                stroke-width=".7px"
                title="Ruggell" 
                id="LI-06" 
            />
        </svg>