<svg xmlns="http://www.w3.org/2000/svg" viewBox="33.77079999999999 267.29436999999996 334.7499999999998 475.51999999999987" width="334.7499999999998" height="475.51999999999987">
            <path 
                d="m 281.6608,634.19437 6.01,0.18 1.5,0.58 6.1,4.1 11.43,3.89 6.41,1.29 3.34,1.03 1.69,-0.07 1.98,-0.77 0,0 1.34,3.22 0.59,2.62 0.08,2.77 1.63,3.94 3.38,4.22 2.82,2.69 2.16,3.38 0.76,2.41 1.67,3.39 1.33,1.79 1.27,3.31 1.12,0.79 0,0 -3,20.06 -9.42,40.52 2,2.31 -1.65,-0.01 -2.26,0.98 0,0 -5.16,-3.47 -3.1,-4.74 -3.42,-2.38 -3.77,-3.29 -3.24,-4.44 -4.15,-8.74 -6.4,-5.06 0.33,-0.74 5.95,-5.83 0.4,-0.93 -7.28,-13.96 -5.54,-18.14 -5.67,-15.06 -1.02,-4.36 3.01,-8.47 -2.96,-7.07 -0.26,-1.94 z m -14.7,-194.71 1.16,1.15 1.3,0.67 5.42,0.11 4.15,1.2 6.55,3.89 4.06,2.96 6.34,2.77 2.74,0.67 6.64,0.16 3.04,3.6 3.13,2.56 0,0 -1.18,2.22 -7.63,10.86 -4.51,4.74 -1.01,0.69 -6.92,2.14 -7.11,0.67 -1.23,0.69 -0.02,1.14 4.64,7.03 1.32,3.92 5.46,4.98 8.13,0.15 2.31,0.53 3.83,0.07 3.7,-1.06 2.78,0.05 3.02,0.71 3.78,5.72 2.32,0.14 6.15,1.6 4.09,0 2.08,-0.71 0,0 1.53,2.13 0.22,2.4 1.41,3.15 0.1,5.22 0.94,2.91 0.12,3.07 1.18,4.5 1.15,0.63 5.39,1.33 15.69,7.17 4.15,3.04 1.15,0.22 -0.33,3.22 0,0 -7.9,13.89 3.87,3.81 0,0 -2.43,2.97 -1.77,3.26 -4.49,-0.93 -16.76,-5.33 -2.2,0.44 -7,-0.03 -2.06,0.5 -2.07,-0.52 -5,-0.08 -4.55,-1.05 -4.05,-0.04 -1.94,0.78 -2.84,2.72 -3.26,2.17 -2.1,0.7 -2.66,0.14 -2.41,1.53 0,0 -0.92,-0.19 -3.1,-1.92 -4.2,-1.28 -2.9,-1.52 -5.98,-0.12 -3.29,-1.04 -2.72,-0.07 0,0 0.53,-2.81 0.08,-4.43 0.48,-1.91 0.05,-6.11 0.52,-1.63 0.08,-3.7 3.63,-9.2 2.77,-8.98 0.11,-3.31 0.52,-1.74 -0.19,-5.09 -0.71,-0.81 -8.58,-1.28 -6.46,-2.6 -5.7,-0.73 -3.44,-1.18 -6.01,-4.7 -2.59,-2.93 -2.5,-3.58 -9.82,-6.22 -0.59,-0.66 -0.62,-1.74 0.17,-2.77 2.45,-3.62 1.39,-3.7 3.08,-4.44 1.13,-0.08 2.45,2.06 1.09,-0.16 1.69,-2.38 -0.03,-4.24 0.34,-1.01 3.95,-3.72 3.57,-4.63 2.38,-1.8 4.83,-4.87 2.78,-6.18 0.6,-2.42 0.07,-4.5 z m -77.91,-123.84 4.38,0 1.2,0.47 3.23,4.16 0.04,1.2 -0.57,1.02 -1.66,0.75 -3.67,0.03 -1.9,0.53 -1.55,-0.15 -0.3,-0.58 -0.03,-2.37 -0.42,-0.58 -3.25,-0.31 -2.54,-1.98 -0.12,-5.11 0.63,-0.42 3.6,0.16 0.96,0.86 1.37,2.1 0.6,0.22 z m -106.86,-48.35 1.27,1.82 4.51,15.88 0.53,1.09 6.65,8.49 3.45,10.46 0.61,1.16 0.79,0.22 6.47,0 2.51,-0.51 6.63,0.03 3.33,-0.5 0.51,-0.4 -7.42,-35.88 0,0 8.54,-0.03 2.09,0.5 2.88,0.12 1.23,0.47 2.53,0.1 1.21,0.47 2.02,0.04 0,0 0.21,1.25 1.85,2.94 9.38,4.27 12.28,11.64 1.33,0.69 1.1,-1.24 2.22,-3.88 0.07,-1.62 -10.22,-10.83 0,0 2.96,0.23 6.9,1.63 2.38,-0.09 3.76,-1.28 0,0 3.17,-0.86 6.37,-2.48 6.71,-0.03 6.4,3.96 2.23,1.7 0.93,1.55 0,0 2.32,1.28 0,0 -2.3,1.24 -8.37,1.24 -3.44,2.98 -3.69,2.35 -4.26,-1.63 -0.91,0.07 -2.19,3.85 -2.45,6.31 -3.5,7.18 4.93,3.4 3.37,4.19 2.19,4.45 0.1,5.62 0.5,1.99 -0.02,6.1 0.39,0.66 1.07,0.51 14.28,3.44 1.3,-0.5 1.84,-3.62 0.87,-0.71 10.2,0.63 6.23,4.69 19.45,12.11 -2.84,4.35 -1.53,3.39 -4.23,3.4 -5.87,8.11 0,0 -1.42,1.58 -3.44,5.58 -5.66,6.75 -0.5,1.48 0,0 -9.86,-4.9 -3.06,-0.09 -1.4,-0.48 -3.46,-0.08 -3.08,-0.55 -8.84,0.5 -7.27,-0.04 -6.92,1.01 -5.06,-0.04 -15.06,-4.86 -8.21,-1.28 -1.2,-0.47 -2.57,-0.01 -0.5,0.36 -3.99,8.08 -2.09,0.67 -3.32,0.01 -0.84,0.73 0.48,3.31 0.01,6.3 0.5,2.36 -0.2,3.91 -7.51,1.85 -7.08,3.03 -0.91,0.07 -9.96,-5.63 -1.62,-1.05 -1.11,-1.24 -4.3,-20.44 -0.01,-3.57 1.03,-2.48 -0.01,-1.28 -1.4,-0.65 -1.9,-0.16 -11.68,-2.65 -2.15,-0.12 -1.07,-0.44 -8.85,-0.01 -0.3,0.46 0,1.48 2.07,9.36 0.11,2.33 0.64,1.85 25.96,22.68 0,0.84 -1.91,2.41 -0.2,0.89 0.67,0.96 3.06,2.64 2.28,12.39 3.23,9.35 1.63,2.84 9.54,11.94 -0.12,0.66 -1.77,1.02 -5.19,2.14 -1.78,0.07 -2.07,-6.88 -3.11,-3.76 -6.08,-8.87 -5.75,-7.23 -1.32,-0.57 -6.14,-0.01 -3.23,0.51 3.46,6.14 13.95,20.43 5.61,22.28 0,0 -3.01,-6.04 -4.1,-6.31 -7.87,-7.51 -2.24,-2.54 -2.05,-5.22 -3.06,-4.52 -2.04,-5.79 -2.3,-4.82 -1.97,-5.78 -2.2,-3.34 -2.15,-5.04 -2.66,-3.98 -1.74,-4.23 -2.67,-3.99 -1.73,-4.24 -2.97,-5 -4.17,-13.74 -1.81,-10.36 -2.79,-7.21 -1.52,-9.2 -3.43,-15.14 -1.5,-16.73 0.7,-10.33 0.54,-3.35 2.6,-9.77 0.82,-11.96 2.92,-12.19 0,0 4.33,2.49 4.39,3.36 6.05,12.87 0.88,0.5 1.61,-1.1 22.37,-20.77 1.21,-0.59 z m 44.78,59.89 1.41,0.67 3.56,7.38 1.1,1.06 4.59,2.17 1.04,-0.63 4.31,-6.57 -0.07,-0.63 -0.53,-0.57 -6.98,-5.44 -9.43,-4.54 -1.08,0.28 -1.67,4.96 -0.15,1.35 0.71,0.49 3.19,0.02 z m 21.53,-29.96 -1.06,2.68 0.21,1 1.56,2.38 2.75,2.2 3.69,-1.13 0.37,-1.13 -0.68,-3.37 -5.96,-2.98 -0.88,0.35 z" 
                fill="rgb(151, 144, 238)" 
                stroke="white" 
                stroke-width=".7px"
                title="Schaan" 
                id="LI-07" 
            />
        </svg>