<svg xmlns="http://www.w3.org/2000/svg" viewBox="142.64079999999993 62.82436700000004 94.24000000000001 94.660003" width="94.24000000000001" height="94.660003">
            <path 
                d="m 217.6108,135.49437 -3.74,-1.62 -1.9,-1.53 -2.27,0.26 -0.38,0.57 0.38,1.13 -0.61,0.79 -3.47,0.11 -10.59,5.33 -4.41,3.84 -3.51,5.67 -1.11,0.6 -2.22,0.11 0,0 -0.73,-0.85 -0.8,-2.53 -2.02,-3.54 -0.61,-0.6 -0.52,0 -3.47,2.05 -3.02,3.6 -4.07,3.49 -2.68,3.25 -0.33,1.02 0,0 -3.18,-0.12 -1.6,0.51 -3.24,0 -2.94,-1.03 -1.35,-0.1 -5.76,1.58 -2.01,-0.05 -2.18,-1.16 -0.63,-0.76 0,-3.13 0.8,-1.44 0,0 6.55,-11.58 2.59,-0.29 2.51,0.57 2.9,-0.07 4.25,-4.14 6.09,-3.44 7.86,-5.07 6.63,-3.44 4.66,-5.74 6.2,-4.56 6.99,-7.04 5.48,-10.360003 1.7,-3.71 0.02,-1.38 -1.37,0.49 -5.48,4.41 -12.69,12.130003 -9.04,5.92 -1.28,-0.42 -5,-3.43 -7.53,-7.63 -0.22,-0.7 1.62,-2.300003 6.16,-6.48 8.92,-7.26 10.81,-10.23 5.38,-5.42 5.84,-6.95 1.63,0.93 0,0 11.41,14.71 19.85,29.490003 -11.47,18.59 z" 
                fill="rgb(151, 144, 238)" 
                stroke="white" 
                stroke-width=".7px"
                title="Schellenberg" 
                id="LI-08" 
            />
        </svg>