<svg xmlns="http://www.w3.org/2000/svg" viewBox="143.66080000000005 365.4443699999997 253.92999999999995 313.5100000000001" width="253.92999999999995" height="313.5100000000001">
            <path 
                d="m 296.5408,569.37437 2.41,-1.53 2.66,-0.13 2.1,-0.7 3.26,-2.17 2.84,-2.72 1.94,-0.78 4.05,0.04 4.55,1.05 5,0.08 2.07,0.52 2.06,-0.5 7,0.03 2.2,-0.44 16.76,5.33 4.49,0.93 1.77,-3.26 2.43,-2.97 0,0 14.52,14.29 10.76,17.95 8.18,23.76 -6.47,22.04 -3.46,23.33 -25.77,0.51 -22.94,10.27 -0.7,4.65 0,0 -1.12,-0.79 -1.27,-3.31 -1.33,-1.79 -1.67,-3.39 -0.76,-2.41 -2.16,-3.37 -2.81,-2.69 -3.38,-4.22 -1.63,-3.94 -0.08,-2.77 -0.59,-2.62 -1.34,-3.21 0,0 2.27,-1.38 0.7,-1.25 0.62,-3.11 0.09,-2.6 0.46,-1.18 0.09,-2.61 0.47,-1.18 0.11,-2.73 2.02,-5.62 1.28,-4.78 1.98,-4.22 0.03,-2.68 -3.03,-3.25 -1.61,-2.62 -1.12,-5.17 -0.13,-3.26 -1.08,-4.28 -0.7,-1.51 -2.87,-2.49 -2.81,-3.67 -2.44,-2 -0.85,-1.86 -1.59,-2.19 -2.69,-2.73 -5.38,-3.79 -4.42,-1.39 -2.97,-1.52 z m -22.52,-167 -2.09,5.05 -0.21,4.11 -1.12,2.59 -1.97,2.83 -0.09,2.79 -0.44,1.62 1.02,2.67 -0.53,1.72 -0.1,3.69 -0.46,1.21 0.5,2.45 -1.6,3.15 -0.27,1.64 0.29,1.6 0,0 -0.1,4.46 -0.6,2.42 -2.78,6.18 -4.83,4.87 -2.38,1.8 -3.57,4.63 -3.95,3.72 -0.34,1.01 0.03,4.24 -1.69,2.38 -1.09,0.16 -2.45,-2.06 -1.13,0.08 -3.08,4.44 -1.39,3.7 -2.45,3.62 -0.17,2.77 0.63,1.74 0.59,0.66 9.82,6.22 2.5,3.58 2.6,2.93 6.01,4.7 3.44,1.19 5.71,0.73 6.46,2.6 8.58,1.28 0.71,0.81 0.2,5.09 -0.52,1.74 -0.11,3.31 -2.77,8.98 -3.63,9.2 -0.08,3.7 -0.51,1.63 -0.05,6.11 -0.48,1.91 -0.08,4.43 -0.53,2.81 0,0 -2.62,6.66 -1.64,6.5 -0.15,2.54 -0.5,1.6 0.03,7.6 0.43,1.02 0.69,4.64 2.18,5.62 0,0 -2.76,0.1 -1.41,0.48 -3.95,0.01 -1.43,0.5 -5.01,-0.04 -0.63,0.42 -0.02,2.19 0.52,1.75 -0.02,14.11 2.55,7.91 1.15,5.21 -1.2,3.91 -1.68,3.04 -1.04,1.41 -1.5,1.2 0,0 -2.53,-1.04 -2.2,-0.08 -3.6,2.04 -2.22,0.62 -9.36,-3.07 0,0 -0.52,-2.38 0,-13.73 -6.5,-7.85 -1.12,0.05 -9.44,5.56 -1.23,0 -5.71,-4.36 -13.19,-14.28 -0.78,-2.27 -0.67,-4.34 -0.77,-2.04 -10.65,-8.18 -1.09,-0.27 -5.2,0.98 -2.52,0.03 -1.13,0.46 -2.63,0.05 -1.84,0.53 -2.38,-0.09 -1.14,-1.16 -3.18,-5.45 -0.14,-0.89 2.63,-6.18 2.22,-10.95 0.1,-2.46 0.51,-1.91 -0.04,-9 -2.33,-7.33 -2.58,-0.12 -1.71,0.47 -3.56,-1.2 -0.94,-0.62 -3.15,-4.27 -0.08,-1.12 1.49,-3.3 0,-0.82 -5.08,-7.02 -0.27,-6.54 -4.53,-6.65 0,0 5.64,-2.33 1.15,-4.36 0.1,-2.48 0.53,-1.87 -0.33,-1.6 -2.66,-2.17 -2.24,-2.58 -0.65,-2.48 -0.09,-3.69 -3.57,-4.79 -0.12,-2.91 -0.5,-1.59 0.05,-8.14 2.27,-8.52 2.3,-3.7 4.46,-2.07 1.52,-0.98 0.26,-0.59 -0.09,-2.34 -2.46,-5.4 -1.63,-4.81 0.04,-3.37 2,-1.31 2.58,0.71 4.51,7.73 2.86,1.28 0.88,0.07 1.35,-1.12 0.23,-0.86 -0.07,-4.86 -2.06,-5.47 0.11,-2.06 1.14,-1.72 2.94,-0.66 6.35,0.14 3.32,2.25 3.51,5.37 0.97,0.43 6.27,-2.8 4.18,-4.05 3.78,-1.59 2.37,-0.27 0.02,-2.19 -3.07,-12.1 -0.04,-1.87 4.21,-11 1.86,-5.97 2.5,-5.37 2.17,-5.95 0.12,-3.34 -0.34,-1.28 0,0 0.5,-1.48 5.67,-6.75 3.44,-5.58 1.42,-1.58 0,0 12.86,6.48 6.45,4.89 14.76,12.84 8.06,6.55 7.16,3.93 7.36,2.19 1.31,0.05 z" 
                fill="rgb(151, 144, 238)" 
                stroke="white" 
                stroke-width=".7px"
                title="Triesenberg" 
                id="LI-10" 
            />
        </svg>