<svg xmlns="http://www.w3.org/2000/svg" viewBox="106.60080000000002 509.73436999999984 217.32999999999996 282.66000000000037" width="217.32999999999996" height="282.66000000000037">
            <path 
                d="m 146.3408,511.43437 4.53,6.64 0.26,6.55 5.08,7.02 0,0.82 -1.48,3.3 0.08,1.11 3.15,4.27 0.94,0.62 3.56,1.2 1.71,-0.47 2.58,0.12 2.33,7.33 0.04,9 -0.51,1.91 -0.1,2.46 -2.22,10.96 -2.63,6.17 0.14,0.89 3.18,5.45 1.14,1.15 2.38,0.1 1.84,-0.53 2.63,-0.05 1.13,-0.46 2.52,-0.02 5.21,-0.98 1.09,0.26 10.65,8.18 0.76,2.05 0.67,4.34 0.79,2.28 13.19,14.28 5.7,4.36 1.23,0 9.45,-5.56 1.12,-0.05 6.5,7.86 0,13.73 0.52,2.38 0,0 -7.38,7.45 -2.7,3.21 -2.77,6.04 0.92,11.22 0.01,5.36 -1.06,4.87 0.73,2.33 3.62,6.16 3.22,3.84 5.34,5.45 0.81,0.59 7.95,1.73 4.41,0.02 5.08,-1.21 6.77,-3.73 3.55,-2.36 3.99,-1.36 2.83,-2.5 -0.72,-3.22 -4.21,-4.29 -2.42,-1.89 -3.8,-4.61 -1.11,-3.54 -0.02,-4.65 -0.48,-1.67 -0.04,-4.45 -0.57,-3.35 -4.75,-5.93 0.12,-2.56 1.88,-3.21 0.72,-2.22 0,0 1.5,-1.2 1.03,-1.41 1.69,-3.04 1.2,-3.91 -1.15,-5.21 -2.55,-7.91 0.02,-14.11 -0.52,-1.75 0.03,-2.19 0.63,-0.42 5,0.04 1.44,-0.49 3.94,-0.02 1.42,-0.48 2.76,-0.1 0,0 -0.16,7.54 0.46,1.18 0.09,2.74 1.61,7.19 2.68,7.41 2.43,3.99 1.85,3.93 0.84,0.79 0,0 0.23,1.94 2.97,7.08 -3.01,8.47 1.02,4.36 5.66,15.06 5.55,18.14 7.28,13.95 -0.4,0.93 -5.95,5.83 -0.33,0.74 6.4,5.06 4.15,8.74 3.24,4.43 3.78,3.3 3.41,2.38 3.1,4.74 5.17,3.47 0,0 -4.25,2.46 -3.85,3.02 -4.28,1.89 -4.74,3.14 -4,1.65 -7.01,2.26 -2.03,1.55 -7.3,7.32 -5.75,1.82 -6.13,2.75 -6.43,2.01 -12.8,1.37 -12.96,2.17 -2.49,0.69 -9.31,4.62 -10.8,6.82 -4.96,4.04 -5.89,-3.27 -1.56,-1.46 -3.65,-4.95 -0.46,-2.04 -0.41,-10.59 -1.33,-9.17 -0.68,-2.87 -2.03,-4.36 -3.9,-4 -4.41,-3.38 -5.64,-2.19 -7.29,-5.6 -4.14,-1.47 -2.28,-1.33 0,0 -16.19,-21.01 -5.4,-5.31 -0.78,-1.42 -1.82,-6.2 -2.01,-4.18 0.05,-5.84 1.51,-4.15 0.58,-2.92 0.37,-6.56 -0.26,-1.79 -0.96,-0.75 -2.72,-0.09 -1.17,-0.47 -2.59,-0.09 -2.54,-0.65 -4.95,-1.69 -3.23,-2.17 -1.06,-1.11 -1.11,-2.27 -1.58,-3.61 -1.38,-4.34 -4.48,-4.99 -2.94,-5.14 -1.12,-1.13 0,0 2.79,-6.41 1.66,-6.07 2.14,-4.72 0.72,-3.2 0.33,-5.58 -0.1,-25.12 -0.39,-3.24 -2.59,-9.39 -1.9,-10.84 -4.2,-10.2 -2.83,-5.79 1.07,-4.15 0.51,-5.2 -0.11,-6.54 -0.56,-5.1 -1.16,-5.14 -1.41,-9.08 -2.76,-9.58 0,0 8.37,-1.67 6.1,-0.61 1.71,-0.47 5.67,0.07 6.76,1.57 4,0.11 3.27,0.54 z" 
                fill="rgb(151, 144, 238)" 
                stroke="white" 
                stroke-width=".7px"
                title="Triesen" 
                id="LI-09" 
            />
        </svg>