<svg xmlns="http://www.w3.org/2000/svg" viewBox="60.090800000000044 267.24437000000006 275.3799999999999 378.0399999999998" width="275.3799999999999" height="378.0399999999998">
            <path 
                d="m 273.4408,563.23437 2.72,0.07 3.29,1.04 5.98,0.12 2.9,1.52 4.2,1.28 3.1,1.93 0.92,0.19 0,0 2.94,1.51 4.42,1.39 5.38,3.8 2.69,2.73 1.59,2.19 0.85,1.86 2.44,2.01 2.81,3.67 2.87,2.49 0.71,1.51 1.08,4.28 0.13,3.26 1.12,5.17 1.61,2.62 3.03,3.26 -0.03,2.68 -1.98,4.22 -1.28,4.78 -2.02,5.62 -0.11,2.73 -0.47,1.18 -0.08,2.57 -0.46,1.18 -0.08,2.6 -0.62,3.11 -0.69,1.25 -2.27,1.39 0,0 -1.98,0.77 -1.69,0.07 -3.34,-1.03 -6.41,-1.29 -11.43,-3.89 -6.1,-4.1 -1.5,-0.58 -6.01,-0.17 0,0 -0.84,-0.79 -1.85,-3.93 -2.43,-3.99 -2.68,-7.41 -1.62,-7.18 -0.09,-2.74 -0.46,-1.18 0.16,-7.53 0,0 -2.18,-5.62 -0.69,-4.64 -0.43,-1.02 -0.02,-7.6 0.5,-1.6 0.15,-2.54 1.64,-6.5 2.61,-6.72 z m 38.04,-104.02 5.52,4.85 4.78,5.13 3.5,2.44 4.83,6.11 1.14,3.08 0,9.96 0.59,3.66 1.96,3.41 1.62,5.88 0.05,1.75 0,0 -2.08,0.71 -4.09,0 -6.15,-1.6 -2.32,-0.13 -3.78,-5.72 -3.02,-0.71 -2.78,-0.06 -3.7,1.06 -3.83,-0.07 -2.31,-0.52 -8.12,-0.15 -5.46,-4.98 -1.31,-3.92 -4.64,-7.03 0.02,-1.14 1.23,-0.69 7.11,-0.67 6.92,-2.14 1.01,-0.69 4.51,-4.74 7.63,-10.86 1.17,-2.22 z m -217.72,9.64 -5.61,-22.28 -13.95,-20.42 -3.46,-6.14 3.23,-0.51 6.14,0.01 1.32,0.57 5.75,7.23 6.07,8.87 2.99,3.65 2.07,6.88 1.78,-0.07 5.19,-2.14 1.77,-1.02 0.12,-0.66 -9.54,-11.94 -1.63,-2.84 -3.23,-9.35 -2.28,-12.39 -3.06,-2.64 -0.67,-0.96 0.2,-0.89 1.91,-2.41 0,-0.83 -25.96,-22.68 -0.64,-1.84 -0.11,-2.33 -2.07,-9.36 0,-1.48 0.3,-0.46 8.86,0.01 1.07,0.44 2.15,0.12 11.68,2.65 1.9,0.16 1.4,0.65 0.01,1.28 -1.03,2.48 0.01,3.57 4.3,20.44 1.11,1.24 1.62,1.05 9.96,5.63 0.91,-0.07 7.08,-3.03 7.51,-1.84 0.2,-3.91 -0.5,-2.36 -0.01,-6.3 -0.48,-3.31 0.84,-0.73 3.32,-0.01 2.09,-0.67 3.99,-8.08 0.5,-0.36 2.57,0.01 1.2,0.47 8.21,1.28 15.06,4.86 5.06,0.04 6.92,-1.01 7.27,0.04 8.84,-0.5 3.08,0.55 3.46,0.08 1.4,0.49 3.07,0.09 9.86,4.9 0,0 0.34,1.28 -0.12,3.34 -2.17,5.95 -2.5,5.37 -1.86,5.97 -4.21,11 0.04,1.87 3.07,12.11 -0.02,2.19 -2.37,0.27 -3.78,1.59 -4.18,4.05 -6.27,2.8 -0.97,-0.43 -3.51,-5.37 -3.32,-2.25 -6.35,-0.13 -2.93,0.66 -1.14,1.72 -0.11,2.06 2.06,5.47 0.07,4.86 -0.23,0.86 -1.35,1.12 -0.88,-0.07 -2.86,-1.28 -4.51,-7.73 -2.58,-0.71 -2,1.31 -0.04,3.37 1.63,4.81 2.46,5.4 0.09,2.34 -0.26,0.59 -1.52,0.98 -4.45,2.07 -2.3,3.7 -2.27,8.52 -0.05,8.14 0.5,1.59 0.12,2.91 3.57,4.79 0.09,3.69 0.65,2.48 2.24,2.58 2.66,2.17 0.33,1.6 -0.53,1.87 -0.1,2.48 -1.15,4.36 -5.64,2.33 0,0 -3.85,0.59 -3.27,-0.54 -4,-0.11 -6.76,-1.57 -5.67,-0.07 -1.71,0.47 -6.1,0.61 -8.36,1.67 0,0 -2.09,-10.7 -2.76,-7.42 -2.1,-10.11 -2.1,-4.95 -2.24,-7.32 -1.5,-3.12 z m 44.6,-141.76 4.01,2.98 0.63,0.98 -4.34,6.79 -0.82,0.65 -5.47,-2.75 -4,-7.88 -1.4,-0.67 -3.45,-0.07 -0.46,-0.65 1.82,-6.1 1.08,-0.28 8.58,4.01 3.82,2.99 z m 68.02,-38.2 -1.89,0.81 -1.24,-3.33 -1.54,-1.99 -5.09,-3.02 -1.8,-1.74 0,0 -2.32,-1.28 0,0 3.75,-2.57 0,0 6.54,5.93 3.59,7.19 z m -94.38,-19.77 7.42,35.88 -0.51,0.4 -3.32,0.5 -6.63,-0.03 -2.51,0.51 -6.47,0 -0.79,-0.21 -0.61,-1.16 -3.45,-10.46 -6.65,-8.49 -0.53,-1.09 -4.5,-15.87 -1.27,-1.82 0,0 2.89,-0.04 2.15,0.54 5.41,0.03 0,0 4.24,0.04 2.75,0.55 9.07,0.07 3.31,0.65 z" 
                fill="rgb(151, 144, 238)" 
                stroke="white" 
                stroke-width=".7px"
                title="Vaduz" 
                id="LI-11" 
            />
        </svg>