<svg xmlns="http://www.w3.org/2000/svg" viewBox="86.06999999999985 371.91000000000025 202.69000000000014 136.65999999999997" width="202.69000000000014" height="136.65999999999997">
            <path 
                d="m 250.92,394.52 4.25,6.42 1,2.7 1.12,5.4 2.25,5.06 3,5.91 1.87,5.06 0.75,4.05 -0.5,3.37 -4.37,2.37 -1.75,2.86 0.75,4.22 1.87,5.57 2.13,2.36 2.12,5.48 2.37,5.91 2.37,4.22 3.25,1.18 1.62,4.21 1.38,5.23 1.87,2.87 2.37,3.54 2.87,3.04 1.87,3.21 2.13,3.54 1.25,2.87 0,2.86 -2.75,4.73 -3.84,4.96 -8.24,0.51 -12.36,-1.01 -6.12,-1.35 -12.36,-0.34 -8.36,-0.17 -10.12,-0.84 -7.99,-3.04 -4.87,-2.02 -5.35,-2.03 -5.24,-1.18 -4.5,-0.17 -5.12,3.21 -5.12,4.55 -4.24,1.86 -7.24,2.87 -5.5,-1.02 -6.24,-3.2 -6.49,-6.07 -6.62,-5.74 -7.12,-5.73 -6.37,-4.56 -5.49,-2.7 -6.61,-4.05 -5.62,-4.21 -4.25,-3.54 -3.87,-2.71 -4.52,-2.63 -5.62,-4.21 -5.37,-3.21 -5.11,-4.05 -4.07,-3.69 1.79,-2.11 0.68,-4.57 0.57,-1.46 3.37,-2.73 2.1,-1.92 4.04,-4.66 3.75,-2.53 3.75,-1.72 8.24,-8 4.99,-4.49 0.49,-0.87 2.17,-0.45 5,-1.18 4.87,-2.87 3.49,-2.36 7.62,-1.69 7.36,-2.37 4.63,-2.19 5.11,-0.17 5.12,-0.84 5.75,1.18 4.49,-0.17 4.12,0.17 2.5,-1.35 3.12,-3.71 4.12,-1.19 3.27,-0.17 3.22,-0.16 4.25,-3.38 3.24,-4.39 4.87,-0.67 6.25,-0.34 4.61,-0.67 3.63,-3.21 1.24,-2.53 3.19,-4.39 4.74,-1.18 4.25,2.19 1.75,6.25 2.74,6.92 1.63,2.7 2.24,0.67 4.12,0.68 z" 
                fill="rgb(151, 144, 238)" 
                stroke="white" 
                stroke-width=".7px"
                title="Andorra la Vella" 
                id="AD-07" 
            />
        </svg>