<svg xmlns="http://www.w3.org/2000/svg" viewBox="316.12999999999994 72.1700000000002 475.8700000000004 243.50999999999993" width="475.8700000000004" height="243.50999999999993">
            <path 
                d="m 490.16,79.63 12.59,2.28 7.67,0.97 3.21,10.35 3.04,2.98 2.43,2.12 4.12,1.86 3,0.84 2.12,1.44 3.31,1.01 2.87,-1.26 1.25,-1.69 1.43,-1.86 1.75,-1.69 2.37,-0.43 3.19,0.76 2.93,0.76 3.5,-0.33 4.12,-1.61 2.44,-2.05 4.37,-0.42 1.72,-1.22 3,-3.75 3.07,-1.12 3.22,-0.2 2.7,0.2 3.59,1.93 4.95,1.32 5.54,2.43 3.3,0.91 3.59,0.21 4.57,-0.41 5.17,-0.2 4.44,3.24 2.13,2.54 7.69,2.15 6.21,4.61 10.49,8.53 14.21,-0.53 4.89,-2.42 5.68,-0.56 5.82,1.95 5.09,0.18 4.12,-0.84 7.39,-3.12 2.13,2.49 1.47,5.69 0.87,5.75 -7.59,8.74 -4.4,3.77 -2.11,6.17 -3.01,7.69 -2.62,2.87 -2.62,1.52 -2.5,2.03 -1.5,5.24 -1.77,7.25 0.4,17.34 1,1.69 3.12,2.19 10.74,-0.72 21.01,2.05 10.49,5.96 13.23,6.25 10.28,3.41 15.32,3.69 24.35,-3.69 5.06,-2.01 5.37,0.17 1.75,3.04 1,2.37 1.5,4.56 2.24,2.36 2.38,5.24 1.96,5.37 -1.32,1.9 -3.36,3.69 -7.52,6.78 -6.24,3.21 -3.87,2.87 -5.37,3.71 -10.12,4.23 -7.61,-1.06 -21.1,0.38 -12.25,2.1 -3.2,2.29 -3.19,2.84 -4.2,3.51 -7.99,9.73 -4.29,3.78 -0.86,1.56 -7.92,0.43 -7.49,-0.34 -10.49,0.34 -18.23,-2.7 -14.23,-1.02 -12.23,-1.68 -8.25,0 -6.49,-1.69 -9.49,0 -6.74,-0.34 -5.24,1.35 -2.25,3.38 -3.25,2.7 -3.74,-1.69 -2.75,-4.73 -2.74,-1.01 -5.25,0.34 -4.49,5.74 -5.25,3.71 -4.99,3.72 -5,5.07 -6.74,6.41 -5.95,6.3 -1.78,0.76 -9.7,4.3 -5.39,-0.48 -4.79,-1.14 -3.11,-3.19 -4.48,-3.05 -9.87,-0.53 -1.94,-2.02 -2.7,-2.33 -3.67,-4.16 -2.92,-2.83 -2.55,-0.51 -2.77,0.61 -3,2.02 -7.19,1.12 -2.32,1.01 -3.67,0.71 -2.34,0.51 -3.07,1.92 -5.02,4.87 -2.82,3.68 -1.46,3.07 -3.49,0.54 -1.71,-0.96 -6.77,1.67 -2.61,2.53 -2.3,2.57 -2.7,1.21 -4.49,-0.27 -3.99,-1.35 -0.95,-1.2 -2.79,-3.96 -4.39,-2.16 -2.2,-1.48 -6.79,0.4 -14.08,0.27 -14.69,0.54 -53.67,2.33 3.36,-1.99 8.39,-5.39 3.93,-1.59 2.38,-4.05 1.24,-6.93 2.63,-8.27 0,-6.25 -1.75,-6.58 -2.62,-5.24 -3.6,-2.53 -1.42,-2.44 -0.6,-2.63 0.15,-4.26 -1.05,-5.17 -1.65,-3.44 -1.27,-3.04 -0.08,-6.77 1.43,-8.11 0.07,-8.31 -0.6,-5.78 -1.12,-4.36 -1.63,-1.11 0.11,-1.95 0.72,-1.95 2.44,-2.11 2.93,-0.84 2.22,-2.21 2.45,-2.81 3.67,-1.83 3.07,-2.73 2.17,-3.96 1.43,-2.94 0.6,-3.34 -0.68,-4.62 1.27,-5.67 0.3,-4.36 0.68,-3.45 2.47,-2.13 1.57,-1.93 1.65,-2.23 1.42,-2.03 2.03,-0.91 4.57,-1.01 7.72,-2.05 2.32,-2.79 3.37,-2.19 2.24,-3.55 5.5,-5.39 2.24,-4.42 2.25,-2.7 2.5,-1.86 4.99,-1.69 4.25,-0.85 6.62,-1.52 5.86,-0.17 1.17,-2.33 0.41,-3.76 -0.57,-3.3 -1.19,-1.54 -1.18,-1.5 -0.27,-3.34 1.89,-8.25 -2.39,-3.82 -2.1,-3.55 -0.97,-3.94 1.71,-0.56 1.9,-0.63 3.5,-3 3.93,-3.98 3.83,0.65 3,4.39 9.11,-0.17 5.18,2.11 5.03,-1.3 8.03,-1.46 7.25,0.2 7.26,-1.82 3.83,-4.22 5.64,-2.76 2.39,-0.32 3.24,2.59 4.07,3.25 z" 
                fill="rgb(151, 144, 238)" 
                stroke="white" 
                stroke-width=".7px"
                title="Canillo" 
                id="AD-02" 
            />
        </svg>