<svg xmlns="http://www.w3.org/2000/svg" viewBox="283.8599999999996 272.49 405.6500000000005 201.22000000000008" width="405.6500000000005" height="201.22000000000008">
            <path 
                d="m 587.95,272.49 6.74,0.34 9.49,0 6.49,1.69 8.25,0 12.23,1.68 14.23,1.02 18.23,2.7 10.49,-0.34 7.49,0.34 7.92,-0.43 -1.44,2.63 -1.19,6.88 -4.01,5.08 -1.9,2.7 -0.8,3.78 0.3,3.24 0.9,3.38 -0.4,7.7 -1.4,4.73 -0.4,5.81 0.2,6.07 0.91,9.95 0.59,3.33 -1.4,4.19 -2.7,4.72 -1.7,2.03 -2.29,2.16 -0.9,3.92 -1.3,3.91 -1.7,2.3 -4.09,4.72 -4.2,6.89 -2.4,3.24 -2.89,2.01 -0.1,7.93 8.59,4.99 0.8,14.72 0.6,6.62 0.1,13.22 -0.5,1.76 -1.3,1.82 -9.45,4.54 -3.14,2.21 -3.89,5.94 -4.46,7.62 -4.93,6.55 -3.2,4.05 -3.89,3.24 -4,2.29 -4.19,1.35 -3.6,-0.27 -6.39,-5.26 -5.2,-3.51 -10.63,-9.31 -5,-2.16 -4.09,-0.41 -4.5,0.81 -3.89,1.35 -5.1,0.14 -6.77,0.78 -7.26,1.38 -4.59,1.48 -9.69,0.41 -7.58,-1.09 -1.6,0.83 -3.31,1.35 -1.12,2.53 -11.82,-1.82 -5.99,-2.16 -13.39,-3.24 -7.99,-1.08 -11.79,-3.24 -8.79,-2.97 -10.58,-1.35 -6.9,-2.49 -5.61,-3.07 -3.87,-2.2 -2.38,-1.52 -2.99,-0.16 -2.87,0.16 -2.25,2.2 -3.12,2.87 -2,0.84 -6.37,1.18 -8.36,-2.02 -5.75,-1.69 -5.85,-5.79 -10.63,-5.85 -8.24,-4.73 -7.36,-6.58 -6.5,-6.75 -7.86,-7.09 -7.87,-5.23 -8.99,-7.09 -5.12,-4.65 -3.12,-2.54 -2.87,-0.17 -3.49,1.86 -2.88,1.69 -2.62,-0.68 -2.62,-1.85 -4.86,0.67 -3.17,2.57 -2.82,4.35 -1.75,2.7 -4.74,2.53 -5.25,0.51 -4.86,-1.01 -4.62,-3.88 -3.75,-4.9 -1.75,-5.4 -1.37,-9.28 -0.38,-3.55 2,-2.87 1.74,-2.43 0.26,-3.81 -1.12,-4.39 -0.25,-4.05 1.24,-4.22 2.5,-3.21 2.75,-3.38 4.49,-4.22 3,-2.53 2.25,-4.05 2.49,-3.04 2.5,-3.55 0.87,-2.87 1.22,-4.88 0.16,-3.51 1.12,-2.53 1.32,-3.4 3.73,0.88 53.67,-2.33 14.69,-0.54 14.08,-0.27 6.79,-0.4 2.2,1.48 4.39,2.16 2.79,3.96 0.95,1.2 3.99,1.35 4.49,0.27 2.7,-1.21 2.3,-2.57 2.61,-2.53 6.77,-1.67 1.71,0.96 3.49,-0.54 1.46,-3.07 2.82,-3.68 5.02,-4.87 3.07,-1.92 2.34,-0.51 3.67,-0.71 2.32,-1.01 7.19,-1.12 3,-2.02 2.77,-0.61 2.55,0.51 2.92,2.83 3.67,4.16 2.7,2.33 1.94,2.02 9.87,0.53 4.48,3.05 3.11,3.19 4.79,1.14 5.39,0.48 9.7,-4.3 1.78,-0.76 5.95,-6.3 6.74,-6.41 5,-5.07 4.99,-3.72 5.25,-3.71 4.49,-5.74 5.25,-0.34 2.74,1.01 2.75,4.73 3.74,1.69 3.25,-2.7 2.25,-3.38 z" 
                fill="rgb(151, 144, 238)" 
                stroke="white" 
                stroke-width=".7px"
                title="Encamp" 
                id="AD-03" 
            />
        </svg>