<svg xmlns="http://www.w3.org/2000/svg" viewBox="236.07 369.25000000000017 297.92000000000047 216.36999999999995" width="297.92000000000047" height="216.36999999999995">
            <path 
                d="m 236.07,374.1 3.54,-3.21 10.92,-0.71 6.93,3.24 6.87,1.35 7.12,-1.01 6.24,-1.52 2.67,-2.53 2.19,-0.46 1.31,1.61 0.38,3.55 1.37,9.28 1.75,5.4 3.75,4.9 4.62,3.88 4.86,1.01 5.25,-0.51 4.74,-2.53 1.75,-2.7 2.82,-4.35 3.17,-2.57 4.86,-0.67 2.62,1.85 2.62,0.68 2.88,-1.69 3.49,-1.86 2.87,0.17 3.12,2.54 5.12,4.65 8.99,7.09 7.87,5.23 7.86,7.09 6.5,6.75 7.36,6.58 8.24,4.73 10.63,5.85 5.85,5.79 5.75,1.69 8.36,2.02 6.37,-1.18 2,-0.84 3.12,-2.87 2.25,-2.2 2.87,-0.16 2.99,0.16 2.38,1.52 3.87,2.2 5.61,3.07 6.9,2.49 10.58,1.35 8.79,2.97 11.79,3.24 7.99,1.08 13.39,3.24 5.99,2.16 11.82,1.82 -1.37,4.64 0,3.69 0.12,8.35 0,8.01 -0.31,8.27 -0.75,2.7 -0.75,3.12 -0.56,2.36 0.18,2.11 1.57,1.85 0.87,2.95 2.97,3.94 0,3.12 -2.94,2.27 -3.69,2.92 -2.7,4.85 -3.26,6.4 -3.36,1.71 -9.87,0.56 -4.4,-1.42 -3.78,-1.7 -3.36,1.42 -3.36,2.9 -3.89,2.02 -5.7,-1.21 -2.7,-4.14 -3.69,-0.45 -2.91,2.87 -3.58,2.53 -2.7,2.29 -1.14,3.61 -2.69,0.97 -3.27,-0.29 -1.31,-1.37 -5.25,-2.36 -2.94,-1.48 -4.32,-1.3 -4.7,3.35 -3.36,-0.28 -6.09,-0.85 -4.82,0.28 -5.25,1.7 -4.2,0.57 -4.82,-0.85 -5.67,-1.99 -6.3,-4.82 -4.84,0.12 -2.92,0.73 -1.42,1.65 -3.75,1.13 -4.3,1.48 -3.9,1.22 -3.69,3.64 -3.8,5.26 -4.19,8.09 -0.98,4.18 -5.04,15.87 -2.1,3.97 -2.72,1.7 -4.08,-0.73 -4.53,-4.94 -5.25,-5.67 -6.92,-9.35 -1.92,-4.42 -2.42,-2.34 -2.31,-0.63 -3.24,0.31 -1.5,1.25 -1.82,1.9 -1.85,-0.2 -2.24,0.14 -2.15,-0.48 -1.33,-2.99 -1.88,-2.87 -3.87,-4.72 -3.99,-4.89 -2.62,-2.53 -2.88,-3.54 -1,-5.23 0,-2.86 -0.37,-3.04 -1.56,-1.33 -3.06,-0.69 -4.24,-0.17 -4.5,-0.84 -2.5,-3.88 -1.62,-5.74 -0.5,-7.42 3.84,-4.96 2.75,-4.73 0,-2.86 -1.25,-2.87 -2.13,-3.54 -1.87,-3.21 -2.87,-3.04 -2.37,-3.54 -1.87,-2.87 -1.38,-5.23 -1.62,-4.21 -3.25,-1.18 -2.37,-4.22 -2.37,-5.91 -2.12,-5.48 -2.13,-2.36 -1.87,-5.57 -0.75,-4.22 1.75,-2.86 4.37,-2.37 0.5,-3.37 -0.75,-4.05 -1.87,-5.06 -3,-5.91 -2.25,-5.06 -1.12,-5.4 -1,-2.7 -4.25,-6.42 -2.37,-3.2 -4.12,-0.68 -2.24,-0.67 -1.63,-2.7 -2.74,-6.92 z" 
                fill="rgb(151, 144, 238)" 
                stroke="white" 
                stroke-width=".7px"
                title="Escaldes-Engordany" 
                id="AD-08" 
            />
        </svg>