<svg xmlns="http://www.w3.org/2000/svg" viewBox="10.119999999999768 137.5599999999997 302.2800000000002 274.6300000000001" width="302.2800000000002" height="274.6300000000001">
            <path 
                d="m 140.51,148.57 1.75,1.86 1.62,1.86 4.49,0.85 4,1.86 7.61,2.73 1.88,3.69 3.49,1.69 3.37,-0.34 2.74,-1.11 5.75,2.8 3.38,7.94 0.02,5.55 -0.65,4.18 1.32,4.87 1.08,5.19 -0.24,6.65 -0.36,5.19 0.84,4.21 0.36,6.65 2.16,4.54 3.23,3.41 2.16,3.89 1.56,5.35 2.64,4.87 3.83,5.32 4.68,4.16 2.75,2.6 4.2,1.46 4.43,1.62 2.16,3.4 1.44,4.71 2.16,5.02 2.27,0.81 2.64,1.46 2.88,4.38 0.6,4.38 -1.2,2.75 0,5.03 0,4.22 2.64,3.89 0.68,4.16 0.84,0.73 1.12,2.29 5.63,-0.54 5.75,-1.13 1.68,1.13 5.39,0.65 4.91,2.11 5.28,1.3 7.12,4.02 5.43,1.44 6.03,-1.92 6.37,-0.16 3.62,-2.54 5.61,-1.35 4.12,1.35 8,1.18 4.63,3.04 -1.32,3.4 -1.12,2.53 -0.16,3.51 -1.22,4.88 -0.87,2.87 -2.5,3.55 -2.49,3.04 -2.25,4.05 -3,2.53 -4.49,4.22 -2.75,3.38 -2.5,3.21 -1.24,4.22 0.25,4.05 1.12,4.39 -0.26,3.81 -1.74,2.43 -2,2.87 -1.31,-1.61 -2.19,0.46 -2.67,2.53 -6.24,1.52 -7.12,1.01 -6.87,-1.35 -6.93,-3.24 -10.92,0.71 -3.54,3.21 -4.25,-2.19 -4.74,1.18 -3.19,4.39 -1.24,2.53 -3.63,3.21 -4.61,0.67 -6.25,0.34 -4.87,0.67 -3.24,4.39 -4.25,3.38 -3.22,0.16 -3.27,0.17 -4.12,1.19 -3.12,3.71 -2.5,1.35 -4.12,-0.17 -4.49,0.17 -5.75,-1.18 -5.12,0.84 -5.11,0.17 -4.63,2.19 -7.36,2.37 -7.62,1.69 -3.49,2.36 -4.87,2.87 -5,1.18 -2.17,0.45 0.76,-1.34 -1.08,-5.18 -1.67,-4.7 -8.75,-19.93 -3.12,-5.99 -3.24,-4.7 -4.91,-5.03 -2.52,-3.07 -3.23,-5.35 -2.52,-6.81 -1.08,-5.18 0.24,-4.22 1.44,-2.92 0.96,-2.43 0.01,-5.25 -1.68,-2.27 -3.77,-2.56 -5.67,-2.84 -5.25,-3.12 -3.57,-1.42 -4.19,-0.85 -3.36,0 -3.36,0.57 -2.31,1.7 -7.3,4.15 -6.24,2.59 -4.8,2.79 -3.28,0.41 -2.31,0.56 -3.35,1.71 -4.62,3.4 -2.1,1.42 -4.11,3.65 -5.15,0.65 -2.91,-0.89 -0.84,-0.29 -0.42,-0.85 -0.42,-3.4 0.42,-4.83 2.73,-2.87 1.92,-2.27 1.56,-2.92 2.99,-4.86 2.4,-2.43 0.15,-5.65 0,-1.71 -0.42,-5.96 0.63,-1.98 2.31,-3.98 3.15,-6.81 1.89,-4.26 2.31,-5.39 3.98,-4.83 3.36,-3.69 1.89,-1.14 4.83,-1.41 4.41,-1.99 5.03,-2.56 6.93,-3.12 3.57,-2.27 2.1,-2.27 3.56,-3.41 1.05,-1.99 0.42,-2.55 0.21,-3.69 -0.42,-2.28 -0.84,-2.27 -0.84,-1.99 -0.63,-1.13 -2.09,-1.42 -5.67,-1.14 -3.78,-0.57 -2.31,-1.13 -2.73,-1.42 -2.31,-1.42 -1.25,-1.7 -2.31,-3.7 -3.15,-4.54 -1.47,-2.27 -1.47,-1.99 -2.94,-4.83 -1.89,-2.55 -0.84,-1.71 0,-1.13 0.21,-1.14 1.05,-1.7 0.42,-1.99 0.42,-1.71 0,-1.7 0.42,-2.56 0.63,-1.42 1.05,-0.57 1.47,-0.56 3.57,-1.14 1.68,-0.85 2.31,-2.56 5.45,-5.4 5.25,-3.4 4.41,-4.55 1.05,-2.27 1.05,-5.11 0.63,-4.55 1.47,-2.27 1.25,-3.7 0.63,-5.11 0,-3.36 11.34,-0.05 5.87,1.71 4.2,0 5.08,0.9 3.36,-0.97 2.27,-1.79 2.76,-7.14 6.47,-0.38 2.73,-2.27 9.44,0 6.46,8.73 6.18,1.78 z" 
                fill="rgb(151, 144, 238)" 
                stroke="white" 
                stroke-width=".7px"
                title="La Massana" 
                id="AD-04" 
            />
        </svg>