<svg xmlns="http://www.w3.org/2000/svg" viewBox="122.49999999999987 -1.2961853812498703e-14 288.35000000000014 308.79999999999995" width="288.35000000000014" height="308.79999999999995">
            <path 
                d="m 404.07,85.04 0.97,3.94 2.1,3.55 2.39,3.82 -1.89,8.25 0.27,3.34 1.18,1.5 1.19,1.54 0.57,3.3 -0.41,3.76 -1.17,2.33 -5.86,0.17 -6.62,1.52 -4.25,0.85 -4.99,1.69 -2.5,1.86 -2.25,2.7 -2.24,4.42 -5.5,5.39 -2.24,3.55 -3.37,2.19 -2.32,2.79 -7.72,2.05 -4.57,1.01 -2.03,0.91 -1.42,2.03 -1.65,2.23 -1.57,1.93 -2.47,2.13 -0.68,3.45 -0.3,4.36 -1.27,5.67 0.68,4.62 -0.6,3.34 -1.43,2.94 -2.17,3.96 -3.07,2.73 -3.67,1.83 -2.45,2.81 -2.22,2.21 -2.93,0.84 -2.44,2.11 -0.72,1.95 -0.11,1.95 1.63,1.11 1.12,4.36 0.6,5.78 -0.07,8.31 -1.43,8.11 0.08,6.77 1.27,3.04 1.65,3.44 1.05,5.17 -0.15,4.26 0.6,2.63 1.42,2.44 3.6,2.53 2.62,5.24 1.75,6.58 0,6.25 -2.63,8.27 -1.24,6.93 -2.38,4.05 -3.93,1.59 -8.39,5.39 -3.36,1.99 -3.73,-0.88 -4.63,-3.04 -8,-1.18 -4.12,-1.35 -5.61,1.35 -3.62,2.54 -6.37,0.16 -6.03,1.92 -5.43,-1.44 -7.12,-4.02 -5.28,-1.3 -4.91,-2.11 -5.39,-0.65 -1.68,-1.13 -5.75,1.13 -5.63,0.54 -1.12,-2.29 -0.84,-0.73 -0.68,-4.16 -2.64,-3.89 0,-4.22 0,-5.03 1.2,-2.75 -0.6,-4.38 -2.88,-4.38 -2.64,-1.46 -2.27,-0.81 -2.16,-5.02 -1.44,-4.71 -2.16,-3.4 -4.43,-1.62 -4.2,-1.46 -2.75,-2.6 -4.68,-4.16 -3.83,-5.32 -2.64,-4.87 -1.56,-5.35 -2.16,-3.89 -3.23,-3.41 -2.16,-4.54 -0.36,-6.65 -0.84,-4.21 0.36,-5.19 0.24,-6.65 -1.08,-5.19 -1.32,-4.87 0.65,-4.18 -0.02,-5.55 -3.38,-7.94 -5.75,-2.8 -2.74,1.11 -3.37,0.34 -3.49,-1.69 -1.88,-3.69 -7.61,-2.73 -4,-1.86 -4.49,-0.85 -1.62,-1.86 -1.75,-1.86 -3.37,-0.5 -6.18,-1.78 -6.46,-8.73 2.73,-4.83 8.45,-11.18 1.92,-2.59 3,-3.57 -1.2,-3.74 -2.16,-2.92 -2.16,-5.68 -0.72,-3.89 -0.81,-5.53 -1.49,-1.82 -1.49,-3.81 -4.12,-2.64 0.12,-4.06 1.46,-2.35 -0.17,-2.21 -1.63,-4.6 -3.13,-3.22 -0.6,-3.73 1.08,-2.92 1.31,-2.6 0.84,-5.36 2.4,-2.6 2.16,-2.92 3.33,-0.6 1.58,-1.75 2.64,-3.74 2.64,-2.92 0.59,-4.22 0,-3.41 -0.59,-3.25 0.36,-3.73 2.55,-2.15 0.63,-5.12 -0.43,-7.02 1.32,-1.95 5.2,-0.41 3.36,-0.29 3.36,0 4.61,0.29 4.2,0 1.54,-2.67 3.84,-1.3 4.91,0.55 1.05,1.14 3.77,5.69 2.73,4.83 1.89,3.98 2.31,3.98 2.1,1.71 0.84,0.57 8.81,0.85 9.45,-1.42 8.91,-0.67 7.04,1.52 5.13,0.65 3,-3.73 2.36,-5.16 5.56,-3.61 3.6,-2.11 2.28,-1.46 4.43,-0.98 3.96,1.95 4.31,3.41 4.2,-1.18 4.2,-3.98 2.01,-2.41 3.49,-0.71 4.92,-2.44 7.55,-3.41 5.15,-1.94 3.72,-0.17 6.95,4.25 6.95,5.49 3.84,-0.16 1.56,-1.46 2.99,-3.09 5.65,-0.21 0.83,0.93 3.93,8.22 3.83,4.71 3.84,3.08 10.02,-1.02 1.96,5.57 1.32,2.11 0,7.47 1.56,1.94 4.19,-0.31 0.8,2.4 -0.46,3.84 0.36,4.22 1.92,3.73 2.63,3.74 5.04,4.71 3.24,2.43 6.71,0 7.91,0.97 4.19,2.76 2.52,3.74 3.55,4.41 4.41,6.25 2.71,4.43 3.59,0.16 z" 
                fill="rgb(151, 144, 238)" 
                stroke="white" 
                stroke-width=".7px"
                title="Ordino" 
                id="AD-05" 
            />
        </svg>