<svg xmlns="http://www.w3.org/2000/svg" viewBox="8.637535131583718e-14 447.24999999999983 318.09000000000003 199.56" width="318.09000000000003" height="199.56">
            <path 
                d="m 100.62,458.2 5.62,4.21 4.52,2.63 3.87,2.71 4.25,3.54 5.62,4.21 6.61,4.05 5.49,2.7 6.37,4.56 7.12,5.73 6.62,5.74 6.49,6.07 6.24,3.2 5.5,1.02 7.24,-2.87 4.24,-1.86 5.12,-4.55 5.12,-3.21 4.5,0.17 5.24,1.18 5.35,2.03 4.87,2.02 7.99,3.04 10.12,0.84 8.36,0.17 12.36,0.34 6.12,1.35 12.36,1.01 8.24,-0.51 0.5,7.42 1.62,5.74 2.5,3.88 4.5,0.84 4.24,0.17 3.06,0.69 1.56,1.33 0.37,3.04 0,2.86 1,5.23 2.88,3.54 2.62,2.53 3.99,4.89 3.87,4.72 1.88,2.87 1.33,2.99 -1.35,1.35 -0.95,1.76 -1.09,6.77 0.36,3.74 1.63,6.19 -0.71,8.63 1.62,9.98 -0.69,3.75 -2.94,0.78 -4.37,0.42 -3.44,2.53 -0.62,5.9 -0.31,8.85 0.31,6.32 -0.62,6.74 -2.19,1.69 -6.24,0.84 -2.5,-1.69 -2.18,-0.42 -3.13,1.27 -3.12,0.42 -6.24,0 -2.81,-1.27 -3.12,0 -2.18,2.53 -8.43,-0.84 -0.18,-0.08 -3.35,0.85 -10.81,0 -3.77,3.86 -4.05,1.27 -4.06,0.42 -8.12,3.79 -12.48,-1.26 -6.56,-1.27 -6.55,-3.79 -1.13,-1.72 -10.68,-5.26 -8.4,-1.99 -13.43,0.29 -10.7,1.13 -1.82,-0.32 -6.81,-1.88 -9.46,-3.73 -7.8,-0.85 -5.31,-1.26 -1.97,-1.55 -26.7,-0.95 -3.59,-1.94 -6.65,-0.55 -2.51,-1.14 -3.78,-1.98 -3.78,-4.53 -3.99,-4.54 -2.73,-4.53 -0.63,-0.85 0,-0.85 1.05,-0.29 2.73,0 1.81,0.39 -0.46,-3.3 -0.36,-2.59 -0.72,-3.07 -1.32,-1.78 -0.48,-2.92 -1.07,-3.23 -1.2,-1.78 -2.04,-1.46 -0.66,-8.31 -0.21,-3.12 0.21,-2.27 0.42,-0.85 1.04,-1.41 1.68,-1.71 3.36,-3.11 1.68,-1.42 2.73,-3.68 -0.21,-1.99 -0.42,-0.85 -1.89,-1.7 -3.15,-1.99 -2.73,-1.98 -2.94,-2.55 -1.46,-1.98 -0.84,-1.99 -0.63,-4.82 0.21,-4.25 -0.21,-5.67 0,-2.55 -0.42,-3.69 0.21,-2.27 0.63,-2.55 1.12,-2.08 -1.41,-2.72 -6.22,-5.87 -6.44,-7.39 -3.67,-4.15 -18.43,-0.3 -3.62,-0.84 -2.85,-0.68 -1.2,0.07 -1.59,0.81 -2.25,0.54 -2,-0.74 -1.4,-2.63 -1.48,-2.1 -3.89,0.27 -2.1,0 -1.1,0.81 -1.5,0.68 -1.69,-0.27 -1.4,-1.35 -1,-1.49 -0.7,-1.75 -0.5,-2.43 1.5,-2.97 2.1,-1.62 2.49,-1.75 3.2,-2.43 2.6,-2.57 1.59,-2.02 1.6,-2.29 2.9,-1.76 2.7,-1.21 6.59,-0.14 2.5,-0.54 2.79,-1.21 2.51,-0.21 8.14,0.37 13.28,0 6.8,-1.34 3.58,-3.41 7.4,-1.45 4.9,-2.16 5.49,-3.51 1.41,-1.67 4.07,3.69 5.11,4.05 z" 
                fill="rgb(151, 144, 238)" 
                stroke="white" 
                stroke-width=".7px"
                title="Sant Julià de Lòria" 
                id="AD-06" 
            />
        </svg>