<svg xmlns="http://www.w3.org/2000/svg" viewBox="99.49362900000017 26.81085799999984 243.43000099999995 240.6400020000001" width="243.43000099999995" height="240.6400020000001">
            <path 
                d="m 243.33363,26.900858 13.39,7.81 6.77,-2.22 1.02,2.38 0.9,1.15 3.76,1.62 6.66,2.3 3.69,2.05 6.43,7.03 2.76,1.52 1.42,0.34 1.22,-0.03 1.35,-0.47 1.36,-0.95 1.51,-1.63 0.9,-0.47 3.92,-0.94 2.85,-2.85 0.49,-0.26 0.54,0.23 0.8,0.82 1.79,2.94 -0.04,0.97 -0.74,2.11 -0.63,0.98 0.11,1.02 1.9,1.3 1.24,2.44 0.66,1.85 0.96,0.98 1.91,-0.1 2.03,0.29 1.27,0.53 0.88,0.77 1.24,1.69 0.12,1.01 0.63,0.52 1.39,0 3.96,0.84 1.01,0.4 1.38,1.43 3.24,1.09 0.81,1.01 0.47,1.39 -0.51,1.15 0.61,1.42 0.24,1.27 -0.83,1.38 0.03,1.03 -0.65,0.63 -2.82,0.83 0.37,1.17 1.39,0.66 0.49,1.03 2.29,0.54 1.64,1.05 0.23,1.41 0.88,1.41 1.16,-1.13 0.9,-0.5 1.27,0.02 1.88,0.73 2.33,-0.41 1.36,0.02 0,0 -1.34,38.680002 0.1,32.71 -0.12,24.27 -0.4,22.48 0.9,14.52 -0.05,4.97 -1.36,2.86 0.01,2.66 -1.32,4.59 -1.09,2.28 -2.92,2.56 1.38,4.41 0,0 -2.25,-0.11 -2.84,1.29 -1.97,1.72 -1.39,1.6 -2.77,2.15 -3.24,1.25 -7.58,0.61 -4.67,1.51 -4.66,0.18 -3.15,-1.93 -2.61,-0.68 -4.71,-0.04 -0.11,0.29 -7.72,1.59 -2.65,-0.15 -2.72,1.74 -1.06,1.13 -2.73,1.28 -1.58,1.14 -3.02,3.03 -2.63,0.76 -2.17,2.83 -0.48,1.57 -2.71,4.17 -2.48,0.03 0,0 -1.65,-1.22 -2.04,-0.93 -1.01,-1.3 -0.35,-2.53 -2.9,-0.78 -2.82,-0.16 -3.45,0.15 -4.86,-0.85 -1.5,-2.44 0.26,-3.47 1.39,-1.77 2.34,-0.76 2.28,-4.91 1.62,-1.83 3.11,-0.08 2.98,-0.26 2.45,-3.24 2.97,-2.79 4.33,-1.62 0.95,-3.38 -0.44,-3.56 -2.96,-2.99 -3.52,-0.42 -6.73,-0.11 -0.76,-2.4 -0.67,-3.85 -2.74,-1.26 -1.14,-1.93 -2.98,-6.04 -0.03,-3.18 -0.31,-5.13 0.39,-2.61 -2.22,-1.5 1.52,-3.22 1.55,-2.41 1.57,-3.8 -1.08,-3.78 -2.36,-2.48 -1.97,-2.49 -1.97,-0.7 -2.91,0.94 -2.55,1.58 -4.16,1.44 -6.39,-4.45 -3.35,-4.88 0,0 2.39,-3.96 1.38,-4.42 1.13,-0.73 -2.52,-3.86 0.8,-6.9 0.09,-3.24 0,0 2.99,-0.08 4.38,0.29 0.96,-0.43 -0.6,-1.03 0.03,-1.27 -0.43,-1.08 -1.24,-0.95 -1.78,-0.01 -2.21,-3.06 -3.38,0.32 0,0 -0.18,-2.37 0.06,-2.25 -3.06,-0.44 -3.04,-1.88 -4.04,-2.72 -4.55,-4.85 -5.43,-2.97 -7.76,-0.08 -2.27,-3.35 -3.07,-2.92 -3.28,-2.16 -4.09,-5.04 -1.73,-4.52 -0.26,-3.17 -1.23,-3.32 -0.63,-2.130002 -2.27,-0.8 -2.5,-1.32 -4.91,-0.85 -2.45,-1.44 -2.55,-0.68 -2.46,0.53 -3,-0.15 -1.96,-0.47 -3.64,-4.99 -3.63,-2.33 -3.64,-0.88 -3.75,-0.25 -5.04,0.55 -5.96,0.97 -3.63,-0.31 -1.94,-1.79 -1.93,-5.68 -0.14,-3.24 -3.16,-1.93 -6.27,-2.44 -3.18,-2.86 -1.63,-3.02 -1.05,-2.7 -0.82,-2.69 -1.84,-2.33 -5.290001,-8.77 1.160001,-1.94 2.57,-0.59 3.75,-1.72 2.59,-2.27 0.82,-1.48 1.76,-5.49 1.23,-1.36 4.6,-0.07 1.97,-1.5 1.9,0.01 3.03,3.73 3.1,2.18 2.3,0.05 0.67,-3.09 0.4,-4.53 1.07,-4.17 0,0 2.46,1.13 7.57,4.03 41.58,14.98 14.25,5.95 22.81,-13.36 21.66,-13.28 z" 
                fill="rgb(151, 144, 238)" 
                stroke="white" 
                stroke-width=".7px"
                title="Alajuela" 
                id="CR-A" 
            />
        </svg>