<svg xmlns="http://www.w3.org/2000/svg" viewBox="356.45363000000003 206.02086 147.45999999999992 124.99999999999997" width="147.45999999999992" height="124.99999999999997">
            <path 
                d="m 383.60363,206.02086 24.84,13.29 5.84,3.31 13.02,5.47 19.51,9.28 31.8,0.17 25.3,-0.17 -1.16,1.76 -2.56,1.22 -0.92,2.11 0.06,2.13 -2.69,0.54 0.11,4.2 0.79,3.96 1.41,3.31 0.05,4.38 -0.36,1.34 1.48,3.82 -3.64,4.08 -7.43,10.3 -2.52,2.84 -2.17,2.76 -1.87,3.23 -0.17,4.73 -1.21,4.07 -4.1,3.91 -3.55,2.7 -10.45,9.62 1.27,2.1 1.35,3.42 0.35,2.58 -0.33,2.72 0.69,2.11 0.93,3.71 0,0 -4.25,-1.96 -6.23,-5.31 -2.68,-1.08 -3.59,-0.88 -4.73,-2.93 -1.98,-0.92 -2.26,-2.65 -2.38,-0.86 -2.06,0.29 -1.41,1.19 -1.1,2.11 -3.06,1.99 -2.38,-1.15 -3.95,0.97 -2.26,-0.57 -0.86,-2.11 -2.82,-0.09 -1.4,-0.89 -0.83,-2.92 0.58,-2.49 -1.78,0.22 -2.75,-1.12 -2.31,-0.63 -2.16,-1.03 -2.89,-0.62 -2.46,-1.83 -1.05,-2.68 0.02,-3.64 -0.84,-1.47 -3.24,-0.55 -0.96,0.55 -2.08,-0.29 -1.51,-0.77 -2.89,-2.86 -1.71,0.86 -0.99,-0.5 -0.61,-1.31 -2.04,-1.32 -2.02,-0.18 -0.72,-1.07 0.24,-1.91 -0.14,-2.94 -4.82,-2.12 -2.28,-3.51 -1.79,-4.68 -1.42,0.61 -5.09,3.08 -2.42,0.13 -3.31,0.78 -3.11,-0.2 -2.04,-1.04 0.87,-1.82 -0.3,-2.64 1.14,-0.26 3.58,-1.77 3.72,-2.82 1.99,-1.09 0.53,-1.68 2.71,-4.06 1.01,-1.18 0.87,-1.7 0.82,-1.75 0.02,-1.56 -0.95,-1.07 -1.9,-0.06 -3.15,0.43 0.27,-2.83 2.82,-1.98 2.4,-2.84 0.21,-3.01 1.31,-0.72 8.25,-1.09 2.83,0.55 3.43,-0.67 1.97,-1.67 1.62,-1.77 1.74,0.53 1.4,0.6 3.42,-1.08 0.88,-1.76 -1.34,-2.79 -0.55,-3.33 -0.14,-3.17 -1.4,-2.91 -3,-2.74 -3.95,-1.51 -2.12,-1.79 -2.2,-9.52 z" 
                fill="rgb(151, 144, 238)" 
                stroke="white" 
                stroke-width=".7px"
                title="Cartago" 
                id="CR-C" 
            />
        </svg>