<svg xmlns="http://www.w3.org/2000/svg" viewBox="0.5836293899999334 0.25085770000033086 225.06000061000006 286.94000229999983" width="225.06000061000006" height="286.94000229999983">
            <path 
                d="m 7.4136294,70.270858 0.61,1.29 -0.98,0.17 -0.62,-0.67 -0.89,0.13 -0.31,-0.36 1.11,-0.26 0.4,-0.35 0.68,0.05 z m 75.1899996,-59.53 20.190001,7.42 10.88,-0.04 11.43,5.9 7.3,3.35 0,0 -1.06,4.17 -0.4,4.53 -0.67,3.09 -2.3,-0.05 -3.1,-2.17 -3.03,-3.74 -1.9,-0.01 -1.97,1.5 -4.6,0.07 -1.23,1.37 -1.75,5.49 -0.82,1.47 -2.59,2.27 -3.75,1.72 -2.57,0.59 -1.160001,1.94 5.290001,8.77 1.84,2.32 0.82,2.7 1.05,2.69 1.63,3.02 3.18,2.87 6.27,2.43 3.16,1.94 0.14,3.24 1.93,5.68 1.95,1.8 3.63,0.31 5.96,-0.97 5.05,-0.54 3.74,0.24 3.65,0.89 3.63,2.33 3.64,4.99 1.97,0.47 2.99,0.15 2.46,-0.53 2.55,0.68 2.45,1.44 4.91,0.85 2.51,1.32 2.26,0.81 0.63,2.120002 1.24,3.32 0.26,3.17 1.73,4.52 4.1,5.04 3.28,2.17 3.06,2.92 2.27,3.35 7.76,0.08 5.43,2.97 4.55,4.85 4.04,2.72 3.04,1.88 3.06,0.44 -0.06,2.25 0.18,2.36 0,0 -2.61,1.11 -2.82,-0.15 -5.49,-5.46 -1.79,-2.61 -3.87,-2.96 -3.03,-1.71 -2.89,-0.44 -0.05,-1.79 0.26,-0.99 -0.71,-0.79 -0.91,0.49 -3.02,-1.36 -0.47,1.92 -1.94,0.69 -1.18,-1.01 -3,-0.32 -0.38,1.05 -1.09,0.15 -2.59,-0.16 5.06,4.43 3.52,2.74 1.74,0.36 -0.16,-1.73 2.31,0.4 2.31,2.6 3.26,1.64 3.18,0.61 2.43,0.68 2.75,1.95 0.39,3.86 4.39,0.69 4.36,1.84 3.32,1.59 0,0 -0.09,3.24 -0.8,6.9 2.52,3.86 -1.13,0.72 -1.38,4.43 -2.39,3.95 0,0 -3.18,-2.63 -4.35,-1.27 -3.41,1.59 -3.11,4.25 -1.03,4.42 -0.28,2.49 -3.33,8.87 1.05,6.91 -3.89,0.97 -4.16,3.81 0.73,3.79 -2.42,4.34 -2.53,0.07 -4.15,-2.49 -10.06,-4 -4.43,-2.42 -3.68,0.1 0.65,7.01 0,0 -1.89,-0.34 -0.39,-0.53 0.09,-0.49 -1.53,-1.79 -2.11,-1.62 0.23,-0.79 0.97,0.19 0.66,0.63 1.41,0.28 0.53,-0.3 0.23,-0.48 -0.48,-1.15 -1.2,0.47 -3.48,-1.23 -1.01,-0.81 -1.28,-0.23 -2.89,1.21 -1.17,1.49 -1.42,0.34 -0.53,-0.54 -0.88,-0.14 -0.7,-0.45 -1.37,0.16 -2.03,-1.08 -2.43,-0.38 -0.58,0.3 -1.68,-0.46 -1.14,-0.59 -1.46,-0.33 -1.5,-0.99 -1.58,-1.52 -0.38,-1.99 -1.13,-2.4 0.71,-0.39 0.41,-1.41 -0.21,-1.33 -1.22,-2 -1.45,-1.43 -0.13,-0.8 -1.19,-0.45 -1.1,-0.94 -2.86,-1.58 -1.85,-0.64 -0.79,-0.81 1.13,-2.2 -0.08,-0.89 -2.98,-3 -1.06,-0.32 -0.83,-0.76 -0.56,-1.42 -1.49,-1.34 -5.4,-0.14 -0.8,0.21 -1.03,0.96 -1.32,-0.99 -1.46,0.07 1.23,0.76 0.79,1.12 0.66,0.18 0.8,-0.57 1.46,0.37 2.4,-1.13 0.89,-0.03 1.72,0.72 1.49,1.61 1.13,1.83 2.42,1.53 0.48,0.93 -0.01,0.71 -0.68,1.81 0.21,1.51 0.57,0.67 2.12,0.46 1.58,0.9 4.04,3.45 0.51,2.4 -0.46,1.28 -0.11,2.65 0.51,1.91 -0.54,1.05 0.33,2.35 -0.23,0.48 -0.62,0.3 -0.14,0.88 1.32,5.15 2.22,3.69 -2.41,-2.19 -1.19,-0.19 -0.22,-0.31 -1.28,0.03 -0.66,-0.8 -3.68,0.85 -1.16,1.23 0.71,0.45 0.8,-1.1 1.06,0.05 0.7,0.89 -0.85,0.52 -0.63,0.83 0.22,0.44 0.53,-0.04 1.65,-1.44 0.09,-0.53 -0.35,-0.62 0.58,-0.17 0.75,0.49 2.39,0.07 1.01,0.67 0.39,0.93 -0.18,0.4 -1.11,0.21 1.19,0.72 0.22,0.62 -0.94,1.05 0.51,1.64 0.58,-0.57 2.15,2.23 1.36,0.99 4.23,1.77 0.97,0.9 0.56,1.77 1.1,0.5 1.52,2.32 2.07,1.08 1.1,0.01 0.67,-0.7 0.39,0.62 -0.19,1.81 -0.36,0.62 -0.66,-0.09 -1.05,-1.03 -1.95,-0.15 -0.97,-0.58 -1.14,-1.07 -0.78,-1.47 -0.94,0.88 -0.62,-0.14 -0.49,0.39 0.74,0.76 1.2,-0.12 1,1.82 0.84,0.19 0.61,1.07 1.33,-0.34 0.78,1.34 0.44,0.05 0.27,0.54 0,0 -0.87,1.21 -1.59,5.07 -2.24,2.25 -2.29,0.52 -3.63,-0.31 -1.06,1.13 -4.18,0.86 -2.79,0.88 -3.84,0.45 -3.03,2.91 0.02,2.89 2.05,1.56 4.11,0.93 3.64,0.48 4.47,1.55 4.41,7.9 4.16,0.58 -1.36,2.92 -1.6,2.7 -0.95,3.14 0.71,5.06 -2.23,4.91 -2.81,2.44 -2.49,3.35 0,0 -0.9,-0.95 -2.85,-2.19 -3.47,-1.8 -0.04,-0.75 0.53,-0.52 0.23,-0.88 -1.12,-2.97 -5.18,-4.03 -1.76,-0.99 -2.07,-0.68 -2.16,-0.33 -0.03,-0.97 -1.53,-1.3 -4.35,-2.65 -1.85,-0.33 -3.08,-1.49 -1.81,-0.55 -0.71,0.04 -0.54,1.1 -1.68,-0.19 -2.2,-0.91 -0.920001,-0.98 -0.97,-0.5 -1.99,-0.33 -2.52,0.38 -0.59,1.63 -0.54,0.44 -0.8,-0.05 -3.52,-2.02 -0.34,-1.24 -0.61,-0.4 -1.91,1.22 -0.93,-0.14 -0.36,0.53 -0.48,-0.14 -0.16,-1.64 -1.93,-1.57 -0.8,-0.09 -1.73,0.87 -2.03,-0.02 -2.51,-0.95 -2.08,0.56 -1.14,-0.81 -2.07,-0.24 -1.76,-1.52 -1.73,0.34 -1.19,-0.28 -3.01,0.02 -0.7,-0.45 -0.21,-1.33 -0.97,-0.85 -1.41,-0.41 -1.24,0.08 -0.71,0.39 0.04,0.62 -0.31,0.48 -2.77,-1.39 0.4,-0.84 0.58,-0.26 0.27,-0.84 -0.42,-2.75 -0.78,-1.64 -1.36,-1.87 0.18,-0.71 -1.22,-2.4 -3.81,-4.76 -0.56,-1.24 -1.41,-1.29 -1.37,-0.76 -3.69,-3.83 -1.05,-1.51 -0.69,-2.62 -0.52,-0.89 -2.37,-2.06 -0.35,-0.84 -0.48,-0.18 -0.87,-1.42 -2.85,-3.61 -0.07,-1.99 -1.14,-1.25 -1.37,-5.81 -1.23,-1.52 -0.12,-1.37 -2.17,-4.8 -3.02,-4.1 0.14,-1.11 -0.47,-1.95 0.06,-1.77 -2.22,-4.89 -0.16,-1.95 0.59,-1.94 -1.08,-3.82 2.37,-2.15 0.89,-1.37 -0.78,-2.27 -1.05,-1.74 -1.58,-1.65 -0.61,-1.07 -0.93,-0.32 -0.44,-0.58 -0.49,0.22 -0.66,-0.67 -0.49,-0.05 -0.08,-0.62 0.72,-1.72 1.29,-0.92 0.66,-0.04 0.61,0.67 0.54,-0.92 0.8,0.09 0.45,-0.66 0.37,-1.55 0.67,-0.39 1.67,-3.4 0.58,-0.13 0.49,-0.57 0.63,-1.55 0.53,0.18 0.39,0.89 2.21,0.37 0.75,-0.39 0.72,-0.79 1.09,-3.89 -0.51,-2.57 1.24,0.14 0.48,0.93 1.16,-0.61 0.99,-1.5 0.19,-1.5 -0.66,-0.63 -0.38,-2.57 -1.46,-0.94 0.23,-0.53 -0.44,-0.36 -0.89,-0.14 -0.48,-0.49 -0.03,-1.6 -1.01,-1.07 0.76,-0.75 -0.57,-1.11 -1.37,-0.94 0.09,-0.4 2.97,-0.51 0.59,-1.1 0.8,-0.57 -0.08,-0.71 0.58,-0.79 -0.04,-0.35 1.16,-0.88 1.28,0.41 0.93,-0.17 0.48,1.16 1.19,1.03 1.29,-0.04 3.61,-3.03 2.22,-0.82 1.79,-1.71 0.13,0.4 0.79,0.54 0.8,-0.04 1.12,-1.45 -0.18,-0.4 0.18,-0.44 -0.74,-1.42 0.13,-0.31 2.04,-0.16 1.47,-0.65 0.54,-0.53 -0.34,-1.6 0.36,-0.53 1.5,0.15 0.45,-0.62 2.17,0.42 0.54,-0.44 0.41,-0.88 0.23,-1.5 1.33,0.23 0.37,-1.81 0.72,-0.66 1.11,-0.43 0.28,-1.55 -0.24,-0.7 -0.66,-0.67 -3.76,-1.32 -0.89,0.35 -1.34,1.19 -1.95,0.38 -0.02,2.22 -0.71,0.3 -0.45,1.33 -1.64,0.47 -0.4,0.66 -1.11,-0.41 -0.08,-0.4 1.69,-1 0.5,-1.59 -0.75,-0.54 0.63,-1.19 0.44,0.05 0.41,-0.66 0.97,0.05 0.72,-1.15 -0.13,-0.36 -0.84,-0.36 -0.8,0.04 0.81,-1.01 0.97,-0.08 0.59,-1.19 -0.48,-0.67 0.14,-0.4 1.42,0.37 2.18,-1.44 0.32,-0.75 -1.45,-6.840002 -0.98,-2.62 0.48,-1.47 -0.25,-2 0.96,-3.14 0.1,-1.24 -1.27,-1.92 -2.16,-2.02 -0.88,-1.29 -0.91,-2.22 -2.71,0.24 -0.83,-1.03 -1.38,0.08 -0.66,-0.67 -0.75,-0.1 -1.69,0.3 -1.68,-1.08 -1.55,-0.01 -1.17,0.11 -1.29,0.65 -1.17,1.72 -2.38,-1.44 -2.74,-0.86 -0.89,0.04 -0.35,-1.16 -0.52,-0.89 -0.67,-0.49 -0.35,-0.85 0.19,-1.37 2.83,0.6 0.14,-0.8 -1.18,-2.32 -2.49,0.69 -1.46,-0.1 -2.39,-1.04 -5.11,-0.12 -1.39,-3.44 -0.66,-0.54 -2.35,-0.69 -5.1299996,-2.22 -1.01,-0.85 -1.68,-0.63 -1.02,0.04 -0.71,0.53 -3.2,0.82 -1.02000001,-0.36 1.83000001,-1.1 2.53,-0.51 1.69,-0.87 0.67,-0.7 2.8399996,-0.42 1.16,-0.61 1.69,-0.21 0.58,-0.39 0.4,-0.75 2.27,-0.47 1.04,-2.08 -0.79,-0.98 -3.01,-1.62 2.09,-0.03 0.54,-0.31 5.32,0.98 0.71,-0.53 1.38,0.1 1.1,0.72 0.71,-0.17 1.23,1.3 0.08,0.62 -0.89,0.75 0.43,2 0.57,0.54 1.24,0.14 1.23,1.12 1.69,0.1 0.71,-0.44 0.18,-0.62 -0.22,-0.67 -1.5,-1.57 0.14,-0.49 0.98,0.01 0.77,-1.37 0.84,0.36 0.36,-0.58 1.78,-0.12 0.67,0.23 0.44,1.02 0.98,-0.79 1.73,0.24 0.63,-0.57 1.24,-0.03 1.02,0.32 0.66,0.58 0.45,-0.31 0.8,0.1 0.53,0.76 -0.23,0.84 0.88,0.72 0.97,0.14 0.45,-0.48 0.02,-1.91 1.25,-0.39 0.45,-0.79 -0.26,-0.71 -2.86,-1.49 0.44,-0.93 1.64,0.32 0.32,-0.97 0.76,-0.35 1.6,-0.08 0.72,-0.79 0.19,-1.37 -0.39,-0.89 -0.79,-0.67 -2.27,-1.17 -2.98,-3.5 -0.71,-0.41 -1.42,-0.14 -1.01,-0.76 -1.59,-0.68 -1.63,-2.01 1.48,-2.03 1.51,0.01 0.23,-0.44 -0.48,-0.71 0.09,-0.44 0.71,-0.44 1.2,0.19 0.45,-0.4 1.76,1.61 0.26,0.98 0.35,0.31 4.17,0.79 1.65,-0.48 1.03,-0.92 1.11,-0.39 0.59,-0.84 0.23,-0.84 -0.42,-3.25 -1.14,-1.21 -0.97,-0.36 -1.15,-1.16 -1.59,0.07 3.17,-5.72 3.21,-4.96 0.77,-1.75 6.64,-10.5700003 0.83,-1.56 0.61,-2.38 0.75,-0.63 0.89,-0.04 8.28,1.27 1.45,0.39 1.44,1.42 3.68,4.73 1.14,2.0200003 1.02,0.66 z" 
                fill="rgb(151, 144, 238)" 
                stroke="white" 
                stroke-width=".7px"
                title="Guanacaste" 
                id="CR-G" 
            />
        </svg>