<svg xmlns="http://www.w3.org/2000/svg" viewBox="185.11363 126.98085999999999 47.190000000000026 24.17000000000003" width="47.190000000000026" height="24.17000000000003">
            <path 
                d="m 222.69363,143.64086 3.38,-0.32 2.21,3.06 1.78,0.01 1.24,0.95 0.43,1.08 -0.03,1.27 0.6,1.03 -0.96,0.43 -4.38,-0.29 -2.99,0.08 0,0 -3.32,-1.58 -4.36,-1.85 -4.38,-0.68 -0.39,-3.87 -2.76,-1.94 -2.43,-0.69 -3.18,-0.61 -3.26,-1.64 -2.31,-2.6 -2.31,-0.4 0.16,1.73 -1.74,-0.35 -3.52,-2.74 -5.06,-4.43 2.59,0.16 1.09,-0.14 0.38,-1.05 3,0.32 1.17,1.01 1.94,-0.69 0.47,-1.92 3.02,1.36 0.91,-0.49 0.71,0.79 -0.26,0.99 0.05,1.79 2.88,0.45 3.04,1.7 3.87,2.96 1.79,2.61 5.49,5.46 2.82,0.15 z" 
                fill="rgb(151, 144, 238)" 
                stroke="white" 
                stroke-width=".7px"
                title="Laguna de Arenal" 
                id="CR-LA" 
            />
        </svg>