<svg xmlns="http://www.w3.org/2000/svg" viewBox="383.6036299999996 54.17085799999943 264.44000000000017 360.91000200000013" width="264.44000000000017" height="360.91000200000013">
            <path 
                d="m 446.82363,71.210858 1.38,5.79 2.26,6.34 -3.67,0.58 -1.15,-3.47 -0.95,-3.67 -1.72,-3.66 -1.33,3.28 1.14,3.47 1.53,3.86 0.95,3.66 -0.19,3.86 -1.72,3.09 -3.24,1.35 3.82,-0.58 2.48,-2.89 1.33,3.47 0.96,-3.47 2.23,-5.49 0.31,2.57 1.77,5.53 -0.3,0.51 0.37,1.19 0.26,-0.1 2.27,5.540002 1.35,4.19 4.06,9.11 0.42,1.65 1.81,3.48 0.15,1.78 -0.35,2.21 2.73,6.6 0.69,1.34 0.19,-0.79 -2.8,-7.67 0.36,-0.7 3.63,8.52 0.65,0.99 0.63,2.45 1.1,2.76 2.12,3.23 3.44,6.57 3.67,5.73 2.15,4.38 1.69,1.8 4.98,6.99 1.89,3.36 4.76,4.73 -0.06,0.88 -0.75,-0.14 -0.96,-0.86 -0.57,-0.16 0.03,0.59 2.93,2.05 0.23,-0.75 0.83,0.72 6.16,7.64 4.58,6.76 0.34,1.02 0.56,0.72 -0.05,0.58 1.17,1.26 1.03,1.69 0.17,0.72 -0.64,1.72 0.06,0.47 1.02,-0.52 0.39,0.13 0.16,-0.35 -0.63,-1.86 -1.84,-3.78 0.41,-0.48 0.78,0.72 2.38,3.59 6.98,8.26 0.3,0.72 -0.35,-0.05 -0.36,0.39 0.47,0.71 0.67,2.27 0.7,0.5 0.67,-0.08 -1.04,-1.61 0.23,-0.74 4.59,5.34 0.45,0.29 1.04,1.88 1.08,0.98 1.12,1.79 3.14,2.97 9.15,12.51 1,1.12 2.99,1.38 0.97,-0.37 0.73,-0.96 0.67,-0.39 1.19,-0.02 1.35,-0.86 0.66,0.01 1.13,1.04 1.34,-0.6 2.76,1.33 1.01,0.91 -0.24,0.97 0.34,0.76 -0.65,1.84 0.06,1.15 3.99,6.98 3.57,3.51 0.94,1.3 -0.14,0.44 -0.8,0.47 0.17,0.31 1.67,0.57 1.9,2.55 8.65,10.68 3.61,5.51 5.2,5.84 3.4,4.93 1.8,0.78 1.52,1.49 1.76,0.39 1.94,-0.01 2.2,-1.77 0.75,0.19 0.39,0.58 -1.46,1.92 -0.21,1.94 0.78,0.9 2.9,5.8 0.67,2 1.48,0.87 0.51,1.51 1.21,1.08 3.52,0.91 1.51,-0.63 0.71,0.14 3.84,2.15 1.33,0.03 2.54,1.11 1.81,0.26 0.97,-0.16 1.12,-0.73 1.79,1.05 2.33,0.44 1.16,-0.15 1.16,-0.86 1.15,0.02 1.66,0.92 1.16,-0.38 1.14,0.12 1.3,1.26 -0.3,2.07 0.91,0.94 0.29,1.11 0.69,0.68 0.68,1.29 1.26,1.09 5.21,2.53 1.48,1.09 0.66,0.24 0.39,0.33 0.33,1.44 1.03,2.69 -0.1,0.92 -1.51,-0.03 -0.49,-0.43 -1.53,-2.62 -0.99,-0.86 -2.41,-0.22 -1.34,0.14 -0.78,0.9 -0.17,0.59 0.14,1.17 0.94,3.03 -0.55,2.07 -1.83,3.64 -0.68,0.57 -1.99,-0.55 -0.84,-0.01 -0.67,0.32 -0.77,0.82 -1.25,-0.03 -0.99,-0.94 -1.04,-2.19 -0.5,-0.01 -1.35,0.89 -1.02,0.98 -0.64,-1.6 -0.99,0.22 -0.36,0.3 -2.6,-0.01 -0.57,-0.41 -0.09,-2.03 -1.61,-1.62 1.39,-0.81 0.32,-0.53 -0.47,-0.84 -1.01,-0.55 -1.12,-1.44 -0.52,1.8 -0.4,0.21 -3.35,-2.75 0.57,-1.79 -0.08,-0.41 -2.25,-0.47 -0.63,-1.68 -0.57,-0.43 -1.58,-0.62 -1.92,0.05 -1.47,-1.62 -2.8,-1.9 -0.59,-0.17 -3.45,1.35 -1.64,-1.46 -2.48,-1.47 -0.73,-1.1 -3.43,0.18 -0.92,0.64 -0.69,-0.05 -0.41,0.7 -0.48,2.03 -2.28,1.59 -0.73,3.74 -0.82,0.95 0.61,0.5 -0.08,2.07 0.48,0.19 1.29,-0.28 0.65,0.67 -0.24,0.88 0.34,0.93 -0.68,1.05 0.51,0.94 -0.51,1.09 0.26,0.62 0.82,0.86 2.03,-0.1 0.3,0.5 -0.99,0.95 0.17,0.27 0.53,0.05 0.68,-0.56 0.74,0.37 0.36,0.79 0.84,-0.04 0.28,0.92 -0.39,0.45 -3.44,0.99 -11.69,2.43 -2.14,0.72 -0.39,0.45 -0.27,6.15 0.11,17.49 0.4,2.66 0.02,44.68 0.22,4.33 0.43,1.07 0.5,0.33 0,0 0.41,2.27 -4.99,-1.48 -2.58,-1.94 -2,-3.81 -1.96,-11 -2.74,-1.48 -5.78,-1 -4.06,-1.1 -0.31,-1.03 0.61,-3.13 -2.37,-4.77 0.34,-2.2 -0.68,-3.9 -2.55,-0.91 -5.02,-2.63 -4.14,-1.9 -2.67,-0.91 -4.12,-5.83 -2.88,-2.51 -3.74,0.33 -3.25,0.84 -3.19,-0.72 -2.51,-3.57 -1.58,-0.99 -4.74,-0.91 -2.82,-2.23 -2.13,-2.3 -3.85,-2.03 -2.73,1.28 -0.72,1 -0.32,3.18 -0.94,1.46 -2.08,-0.46 -1.72,0.16 -3.01,1.41 -1.92,1.55 -0.46,-2.35 -1.78,-1.8 -3.42,-1.29 0,0 -4.5,-3.25 -4,-8.19 -2.02,-4.84 -1.3,-5.96 -3.18,-2.85 0,0 -0.93,-3.71 -0.69,-2.11 0.33,-2.72 -0.35,-2.58 -1.35,-3.42 -1.27,-2.1 10.45,-9.62 3.55,-2.7 4.1,-3.91 1.21,-4.07 0.17,-4.73 1.87,-3.23 2.17,-2.76 2.52,-2.84 7.43,-10.3 3.64,-4.08 -1.48,-3.82 0.36,-1.34 -0.05,-4.38 -1.41,-3.31 -0.79,-3.96 -0.11,-4.2 2.69,-0.54 -0.06,-2.13 0.92,-2.11 2.56,-1.22 1.16,-1.76 -25.3,0.17 -31.8,-0.17 -19.51,-9.28 -13.02,-5.47 -5.84,-3.31 -24.84,-13.29 0,0 2.26,-5.84 1.1,-2.22 0,0 3.67,-2.53 2.12,-2.54 2.05,-3 1.59,-2.7 1.49,-4.95 2.09,-3.52 1.47,-3.05 -0.32,-5.65 -0.93,-5.23 -2.8,-3.68 -1.8,-5.09 0.5,-2.79 3.54,-5.18 3,0.03 2.15,-1.44 -0.64,-2.3 1.45,-3.97 -1.22,-4.88 -2.5,-5.71 0.07,-3.82 2.44,-5.62 -1.66,-2.09 -0.62,-1.66 0.42,-5.91 1.42,-3.05 2.76,0.16 1.55,-2.47 2.06,-2.43 2.13,-0.11 2.34,-0.53 2.3,-2.2 6.28,0.23 5.23,-0.03 -1.16,-2.630002 -1.42,-1.35 -2.23,-1.73 -3.18,-2.86 0.59,-1.81 0.29,-2.03 -2.94,-1.37 0,0 1.94,-1.52 2.01,-0.9 2.44,-0.19 1.3,-1.09 1.07,-0.11 1.78,0.73 3.36,-0.65 1.61,-0.82 2.1,-3.12 0.44,-2 -1.79,-5.2 -0.03,-2.21 0.6,-3.68 -0.24,-1.34 -0.72,-1.23 -0.99,-0.95 0.72,-2.94 -0.52,-0.95 -2.7,-3 -0.05,-0.74 0.21,-0.39 2.07,0.45 1.94,0.65 3.98,3.57 3.23,3.69 z" 
                fill="rgb(151, 144, 238)" 
                stroke="white" 
                stroke-width=".7px"
                title="Limón" 
                id="CR-L" 
            />
        </svg>