<svg xmlns="http://www.w3.org/2000/svg" viewBox="259.5536299999999 197.96085999999977 222.72000000000014 213.67000000000004" width="222.72000000000014" height="213.67000000000004">
            <path 
                d="m 383.60363,206.02086 1.66,4.17 2.2,9.52 2.12,1.79 3.95,1.51 3,2.74 1.4,2.91 0.14,3.17 0.55,3.33 1.34,2.79 -0.88,1.76 -3.42,1.08 -1.4,-0.6 -1.74,-0.53 -1.62,1.77 -1.97,1.67 -3.43,0.67 -2.83,-0.55 -8.25,1.09 -1.31,0.72 -0.21,3.01 -2.4,2.84 -2.82,1.98 -0.27,2.83 3.15,-0.43 1.9,0.06 0.95,1.07 -0.02,1.56 -0.82,1.75 -0.87,1.7 -1.01,1.18 -2.71,4.06 -0.53,1.68 -1.99,1.09 -3.72,2.82 -3.58,1.77 -1.14,0.26 0.3,2.64 -0.87,1.82 2.04,1.04 3.11,0.2 3.31,-0.78 2.42,-0.13 5.09,-3.08 1.42,-0.61 1.79,4.68 2.28,3.51 4.82,2.12 0.14,2.94 -0.24,1.91 0.72,1.07 2.02,0.18 2.04,1.32 0.61,1.31 0.99,0.5 1.71,-0.86 2.89,2.86 1.51,0.77 2.08,0.29 0.96,-0.55 3.24,0.55 0.84,1.47 -0.02,3.64 1.05,2.68 2.46,1.83 2.89,0.62 2.16,1.03 2.31,0.63 2.75,1.12 1.78,-0.22 -0.58,2.49 0.83,2.92 1.4,0.89 2.82,0.09 0.86,2.11 2.26,0.57 3.95,-0.97 2.38,1.15 3.06,-1.99 1.1,-2.11 1.41,-1.19 2.06,-0.29 2.38,0.86 2.26,2.65 1.98,0.92 4.73,2.93 3.59,0.88 2.68,1.08 6.23,5.31 4.25,1.96 0,0 3.18,2.85 1.3,5.96 2.02,4.84 4,8.19 4.5,3.25 0,0 -2.67,3.59 -1.76,2.99 -2.75,2.72 -2.83,5.95 -1.8,1.78 -2.26,1.56 -1.66,2.46 0.26,1.21 -0.4,4.16 -2.22,3.11 -0.14,1.16 2,1.73 2.67,1.14 4.03,-0.06 1.17,2.74 0.27,1.6 -1.56,4.19 -2.8,2.84 -0.07,3.98 -1.41,3.09 -1.86,1.66 -3.12,1.47 -4.07,0.45 -2.53,-1.89 -9.01,-3.73 -3.17,-4.35 -4.6,-2.12 -3.6,-1.11 -2.11,-3.69 -2.26,-5.24 -3.55,-5.95 -6.39,-4.49 -4.3,5.18 -4.97,-0.85 -6.41,-3.28 -5.18,-4.3 -0.57,-6.49 -0.03,-3.17 2.01,-4.38 -2.27,-0.97 -2.07,-0.12 -2.17,-1.55 -2.6,-2.76 -2.26,-4.78 -0.61,-3.32 -3.06,-0.67 -1.52,1.54 -1.21,1.99 -3.55,0.67 -3.71,-3.36 -1.79,-4.44 -2.91,0.65 -1.46,-2.9 -0.33,-1.66 -3.76,-2.84 -3.38,-1.69 -2.58,-4.03 -3.37,-1.35 -0.34,-3.85 0.52,-6.65 -4.19,-1.73 -3.75,1.6 -2.21,-0.75 -2.22,-3.4 0.71,-6.01 -0.98,-2.23 -1.58,-0.82 -4.09,-0.41 -6.04,2.12 -4.15,-2.13 -2.58,0.18 -3.16,0.03 -5.35,-1.87 -4.5,-2.82 -3.27,2.39 -6.04,0.22 -3.27,0.44 -4.44,-0.63 -1.43,2.4 1.59,3.82 -1.88,2.82 -2.28,3 -2.9,3.25 -1.94,-1.62 -0.94,-2.68 -3.21,0.43 -3.49,0.67 -5.98,0.16 -3.54,-1.06 -1.33,-0.54 -2.62,-3.16 -0.95,-3.37 -0.1,-3.63 -4.5,-4.84 -0.93,-2.51 0.46,-4.57 -1.56,-4.52 0.54,-5.67 1.3,-0.84 4.61,0.22 3.48,-3.09 -1.26,-2.05 -2.7,0.08 -1.56,-4.41 -3.27,0.09 0.1,-2.54 2.02,-2.25 0,0 2.48,-0.03 2.71,-4.17 0.48,-1.57 2.17,-2.83 2.63,-0.76 3.02,-3.03 1.58,-1.14 2.73,-1.28 1.06,-1.13 2.72,-1.74 2.65,0.15 7.72,-1.59 0.11,-0.29 4.71,0.04 2.61,0.68 3.15,1.93 4.66,-0.18 4.67,-1.51 7.58,-0.61 3.24,-1.25 2.77,-2.15 1.39,-1.6 1.97,-1.72 2.84,-1.29 2.25,0.11 0,0 2.2,0.57 1.28,0.55 0.92,0.2 2.42,0.23 3.48,-1.2 2.88,0.39 0.88,0.55 3.6,-1.08 2.35,-0.35 1.13,-0.61 2.88,0.04 2.9,-1.18 3.06,-1.82 2.45,-2.83 1.02,-2.86 0.5,-2.9 -2.39,-3.45 -1.08,-1.94 0.48,-1.22 0.13,-1.68 0.82,-1.64 3.39,-0.21 2.28,-0.52 1.62,-2.06 0.29,-6.53 -0.12,-2.54 1.67,-2.18 9.21,-6.26 0,0 -1.1,2.22 z" 
                fill="rgb(151, 144, 238)" 
                stroke="white" 
                stroke-width=".7px"
                title="San José" 
                id="CR-SJ" 
            />
        </svg>