<svg xmlns="http://www.w3.org/2000/svg" viewBox="145.47349000000006 530.1457700000002 88.24000000000007 149.77999999999975" width="88.24000000000007" height="149.77999999999975">
            <path 
                d="m 230.92349,611.16577 -1.65,0.81 -1.8,-1.9 -3.35,-2.8 0.33,-0.96 0.85,-0.01 0.61,-0.65 0.98,-1.64 0.44,-1.52 0.88,-0.15 -0.71,-0.94 0.69,-0.59 -0.27,-1.98 -0.7,-0.93 -0.12,-2.06 -1.12,-1.74 -0.76,-2.42 -1.07,-1.91 -0.91,-1.25 -1.67,0.92 0.26,0.72 -1.4,1.26 -4.25,-5.45 -0.45,-0.38 -0.68,0.37 -1.06,-1.44 0.93,-0.88 -0.01,-0.46 -0.55,-0.48 -3.12,-1.26 -0.88,-3.06 1.38,-0.36 1.29,-0.95 3.25,-0.19 1.31,1.4 0.21,0.6 1.48,-2.75 0.4,-1.28 -1.32,0.07 -2.18,-3.07 0.52,-1.26 3.07,0.59 -0.15,-0.53 -0.8,-0.38 -1.94,-1.63 0,-0.28 -0.77,-0.93 -0.49,-1.67 -0.51,-0.49 0.03,-0.99 -0.76,-0.89 -0.56,-4.43 1.15,-0.27 -0.23,-1.89 -1.09,-2.54 -0.41,-3.9 -1.39,-1.67 -0.46,-0.11 1.57,-3.61 1.76,-2.37 -1.2,-1.33 0,0 -4.56,2.03 -3.25,-0.77 -2.72,-3.87 -1.39,-0.98 -2.1,-0.87 -5.22,-0.3 -1.65,-0.61 -7.54,-5.76 -3.53,2.75 -0.9,5.29 -0.97,2.36 -1.5,0.68 0,0 -4.07,1.83 -4.23,5.23 0.96,5.87 -1.58,0.74 0.39,0.75 -0.47,0.25 0.34,2.41 -0.52,1.49 -0.46,3.54 1.32,0.96 -7.77,-1.65 -5.49,2.88 -0.22,-0.12 0,0 0.1,0.35 -1.24,3.27 -1.27,0.21 0.11,0.99 -0.26,0.16 0.06,1.05 -0.84,0.41 -0.14,-0.4 -0.95,0.26 0.2,0.54 0.76,-0.21 0.11,0.28 1.47,-1.11 0.38,1.23 -0.35,0.15 0.2,1.04 -0.32,0.22 0.58,1.51 0.78,-0.4 0.45,1.34 -0.13,3.21 1.65,0.14 1.25,0.57 0.41,0.73 0.04,1.86 -2.67,0.62 -0.24,-0.9 -0.63,1.92 0.82,-0.34 1.08,1.68 -0.54,0.58 0.49,0.08 0.87,1.18 0.26,0.02 -0.02,0.4 1.83,3.92 1.09,3.67 1.98,1.42 -2.28,2.16 -0.24,0.94 1.2,0.36 1.13,-0.36 0.2,0.63 -0.92,0.31 0.36,1.83 -0.96,0.24 0.28,1.14 -0.6,0.24 0.36,1.52 -0.16,0.05 -0.2,-0.4 -0.19,0.07 0.31,0.88 -0.39,0.18 -0.33,-0.28 -0.17,0.77 0.33,0.98 -0.4,0.51 -1.02,-0.31 -0.57,-0.64 0.35,0.97 0.4,-0.2 0.33,0.26 -0.91,0.21 -0.16,0.63 -0.83,0.75 -0.57,-1.51 -0.34,0.06 0.17,-0.47 -0.67,0.51 -0.26,-0.54 -1.14,0.63 -0.26,-0.12 0.16,0.59 -0.37,0.27 0.67,1.21 -0.75,1.11 -3.84,-2.35 -3.3,4.62 0.08,0.46 -2.04,1.98 -0.75,1.11 0,0 0.36,3.27 0.78,1.22 0.57,-0.19 0.33,0.32 0.18,1.4 2.31,1.59 3.16,-0.01 0.43,-0.47 0.87,4.32 1.41,1.97 0.72,0.24 0.93,-0.13 0.11,-0.43 0.28,0.02 -0.03,0.57 0.21,0.08 0.11,-0.52 0.1,0.42 0.39,0.19 -0.37,0.18 0.41,0.42 0.44,-0.35 -0.37,-0.89 0.17,-0.3 2.1,-1.49 0.11,-0.46 1.75,1.19 1.36,3.18 0.7,0.81 1.61,0.83 -0.2,4.31 1.18,0.42 0.87,1.55 -1.15,2.15 -1.07,0.76 -1.52,0.3 -0.76,0.61 -0.6,1.98 0.15,1.52 3.65,4.71 4.25,4.41 -0.76,0.91 -1.37,0.61 0,2.58 0.61,1.67 1.52,0 1.22,0.46 0.15,1.06 -0.44,1.73 0,0 0.52,0.16 -1.23,-0.38 0,0 -0.61,-0.68 -0.9,2.58 0.3,1.07 0.81,0.97 0.55,2.31 0.41,-2.08 0.47,-0.08 0.83,-0.58 0.88,0.6 -0.04,1.51 -1.21,1.38 2.15,0.45 -0.65,2.22 0.15,1.67 1.36,2.03 0,0 3.41,-1.14 -0.12,-0.64 0.58,0.35 0.86,-0.08 0.8,0.84 1.29,-1.25 2.2,0.36 0.68,-0.47 5.15,-0.47 2.24,-9.65 -0.2,-3.02 0.85,0.03 0.23,-0.25 1.06,0.42 1.34,-0.47 0.85,-0.86 1.01,-1.58 0.29,0.16 0.34,-0.25 0.13,0.27 0.4,0.16 0.1,-0.2 1.39,0.68 0.27,0.37 -0.28,0.06 -0.16,0.45 0.83,0.43 2.05,-5.79 0.67,-0.57 -0.25,-1.44 1.12,0.45 -0.71,2.19 1.49,-0.26 0.49,-1.57 0.17,0.53 1.78,1.46 -0.07,0.78 0.45,0.63 -0.07,0.51 0.69,0.63 0.97,-0.22 0.26,-0.93 0.42,0.78 -0.09,0.71 0.24,0.43 0.33,0.03 -0.1,2.75 0.48,1.09 0.91,0.81 0.7,1.29 0.85,0.15 0.71,-2.05 1.14,0.58 1.25,-0.05 0.54,-0.99 0.2,0.45 0.34,-0.25 0.42,0.95 -0.41,0.87 0.46,1.19 0,0 0.32,-0.03 0.13,-0.37 0.26,0.09 0.49,-0.52 -0.12,-0.95 0.66,-0.37 -0.02,-0.39 0.3,-0.25 -0.1,-0.55 1.28,0.44 1.01,0.82 2.2,0.89 0.26,-1.22 -0.07,-0.19 -0.19,0.26 0.19,-1.28 -0.16,-0.14 0.24,0.02 0.3,-1.85 -0.71,-2.33 -0.35,-0.26 -1.16,-2.56 -1.19,-1.81 -0.81,-0.53 -1.1,-0.29 0.37,-0.43 -0.11,-0.97 0.26,-0.54 -0.15,-0.71 0.32,-0.47 -0.53,-1.14 0.17,-0.87 -0.83,-0.15 -0.87,0.39 0.55,-1.44 -0.03,-1.54 -0.24,-0.71 0.29,-1.34 2.31,-1.34 -6.15,-9.94 2.97,-5.54 0.5,0.5 1.14,-0.74 -0.01,-0.22 1.52,-0.07 0.01,-0.71 0.45,-0.53 0.19,-0.02 0.13,0.33 -0.02,0.69 0.34,0.09 0.34,-0.72 0.32,0.2 0.84,-0.77 -0.54,-1.21 1.18,-0.18 -0.09,-0.58 0.28,0.16 0.71,-0.69 1.48,2.31 0.22,0.22 0.31,-0.26 0.25,1.05 0.47,0.34 0.68,-0.31 0.23,-1.08 -0.59,-0.57 -0.45,-1.78 0.2,-1.08 -0.71,-0.83 1.9,-0.55 0.04,-0.22 0.36,-0.12 -0.56,-1.26 0.27,-0.27 -0.14,-0.82 3.38,-0.9 -2.94,-3.36 0.79,-1.58 -0.21,-1.33 0.35,-0.47 z" 
                fill="rgb(151, 144, 238)" 
                stroke="white" 
                stroke-width=".7px"
                title="Central Finland" 
                id="FI-08" 
            />
        </svg>