<svg xmlns="http://www.w3.org/2000/svg" viewBox="106.38349000000001 487.10577 71.78999999999992 78.38999999999999" width="71.78999999999992" height="78.38999999999999">
            <path 
                d="m 132.15349,488.40577 0.17,-0.5 0.49,0.18 0,-0.36 0.63,-0.3 -0.04,-0.25 0.47,-0.07 0.09,0.56 0.22,-0.09 0.79,1.82 -0.52,-0.29 -0.37,-0.84 -0.23,0.35 -0.14,-0.39 -0.23,-0.01 -0.15,0.55 -0.67,-0.11 -0.08,0.26 -0.43,-0.51 z m -25.33,19.24 -0.44,0.33 0.03,0.43 0.31,-0.01 0.12,0.3 0.15,-0.33 0.34,0.14 0.01,-0.62 -0.52,-0.24 z m 5.58,7.71 -0.58,-0.58 -0.29,-0.11 -0.12,0.19 -0.24,-0.33 0.43,-0.14 0.4,0.15 0.09,-0.2 -0.43,-0.33 0.27,-0.14 -0.25,-0.61 0.37,-0.32 -0.7,-1.07 0.82,0.27 -0.31,-0.9 -0.4,0.26 0.05,-0.49 -0.33,-0.01 0.09,-1.04 -0.69,0.14 -0.01,-0.3 -0.78,-0.18 -1.36,0.26 -0.29,-0.8 -0.36,-0.07 -0.23,0.14 0.12,0.27 -0.24,0.07 0.45,0.44 -0.4,0.29 -0.25,-0.19 -0.06,0.26 0.48,0.08 0.13,1.1 1.53,0.65 0.53,-0.23 0.42,0.69 0.02,0.33 -0.76,-0.07 0.01,0.35 0.48,0.62 -0.1,0.26 -0.82,0.07 0,-0.36 0.33,0.04 -0.23,-0.44 -0.27,0.04 0.19,0.91 -0.14,0.17 0,0 0.5,1.15 -0.27,0.68 0,0 0.16,-0.32 -0.04,0.88 1.29,1.44 0,0 0.33,0.57 -0.05,-0.65 0.95,-0.34 0.14,0.23 0.78,-0.27 0.02,-0.4 0,0 0.16,-1.34 -0.21,-0.74 -0.33,-0.03 z m 22.78,-25.37 0.08,0.22 -0.54,0.12 0.07,0.59 -0.13,0.26 -0.14,-0.13 -0.21,0.67 -0.27,0.04 -0.05,0.57 -0.68,-0.68 -0.07,0.24 0.52,0.5 -0.16,0.53 -0.19,0.02 0.28,0.66 -0.53,0.11 -0.71,-0.8 -0.42,0.09 0.01,0.42 -0.13,-0.15 -0.12,0.26 0.54,1.13 -0.23,0.84 -0.25,-0.06 0.58,0.53 -0.19,-0.53 0.13,-0.23 0.98,1.48 -0.24,1.04 -0.25,0.2 0.13,0.91 -0.58,0.17 0.04,-0.37 -0.41,-0.6 -0.22,0.08 0.36,0.37 -0.04,0.26 -0.59,0.09 -0.16,0.25 -0.59,-0.14 -0.29,-0.42 -1.03,-0.26 -0.12,-0.59 -0.22,0.5 -0.77,-0.12 -0.65,-1.18 -0.41,-0.17 -0.09,-0.6 -0.76,-0.08 -0.33,0.26 -0.26,-0.24 0.19,0.85 -0.58,0.49 -0.17,0.83 0.36,3.14 -0.13,0.45 -0.39,0.15 0.45,0.17 0.14,0.6 -0.64,0.04 0.76,0.76 -0.31,0.59 -0.79,0.2 1.07,1 0.38,1.06 -0.14,0.19 -0.23,-0.13 -0.44,0.5 -0.17,-0.21 -0.32,0.48 0.56,0.46 -0.3,0.31 -0.49,-0.38 0.33,0.73 -0.39,-0.17 -0.16,0.19 -0.37,-0.88 -0.47,-0.34 -0.25,-0.53 -0.2,0.15 -0.2,-0.31 -0.17,1.05 0.68,0.41 -1,0.36 -0.16,0.37 -0.65,-0.68 -0.8,0.33 0.22,0.5 -0.41,-0.33 -0.35,0.18 -0.56,-0.52 0.39,0.55 -0.42,-0.07 0.13,0.78 -0.73,-0.99 -0.77,-0.04 -0.29,0.66 -0.59,-0.99 -0.25,-0.01 0.28,0.52 -0.41,-0.06 0.29,0.22 0.61,1.34 -0.3,0.33 -0.24,-0.28 -0.17,0.4 -0.78,-0.84 -0.4,-1.19 -0.62,-0.33 0.21,0.58 -0.17,0.29 0.48,0.18 1.28,2.13 -0.4,1.25 -0.58,0.08 0.14,-0.91 -0.41,-0.27 -0.12,-0.68 -0.49,-0.25 0.04,0.43 -0.21,0.26 -0.53,0.04 -0.04,-0.21 -0.26,-0.01 -0.4,0.87 0.35,0.28 -0.36,0.31 0.1,0.27 -0.52,-0.09 0.16,0.87 0.74,0.62 -0.54,0.86 -0.29,-0.12 0.16,-0.13 -0.27,-0.33 -0.41,0.36 0.37,0.75 0.4,0.09 -0.23,-0.02 0.15,0.53 -0.59,0.67 0.49,-0.09 -0.14,0.54 0,0 1.77,1.16 4.46,3.82 0.61,0.29 0.27,0.55 0.32,-0.18 -0.07,-0.56 0.56,-0.96 0.06,-0.59 0.31,-0.28 0.19,0.09 0.06,-0.35 0.54,-0.19 -0.08,-0.21 0.91,-0.54 1.18,0.46 0.35,-0.15 -0.32,-0.01 0.22,-0.25 0.63,0.17 0.41,0.63 0.49,-0.17 0.92,1.12 0.28,-0.3 0.01,-1.61 0.65,-1.08 3.28,2.8 0.6,0.84 4.51,3.73 0.1,0.14 -1.2,1.29 -1.77,-0.97 -1.21,1.42 -2.05,1.21 -0.77,-0.19 -0.6,-0.78 -0.09,-0.53 0.24,0.06 -0.26,-0.7 0.23,0.11 -0.17,-0.68 -0.51,0.84 -0.59,-0.06 0.26,0.24 0.24,1.22 -1.01,0.8 0,0.34 0.43,0.3 -0.38,0.42 0.15,0.17 -0.21,0.03 -0.45,-0.6 -0.51,0.19 2.18,2.22 0.15,-0.36 0.3,0.02 0.12,-0.23 0.64,0.26 -0.08,-0.2 0.87,-0.88 0.83,1.46 -0.25,0.14 -0.09,0.47 -0.38,0.19 0,0.44 0.75,-0.14 0.11,0.25 -0.23,0.24 0.37,0.3 -0.25,0.41 2.2,1.58 0.23,4.95 0.34,0.74 -0.24,0.11 0.02,1.11 1.57,3.72 -0.36,0.23 0,0 2.24,4.75 2.81,2.54 3.13,0.12 2.03,0.58 2.54,1.64 2.26,2.2 2.17,3.02 -0.73,0.63 -0.11,-0.61 -0.62,0.42 0.04,0.38 -0.19,-0.2 -0.26,0.1 0.09,0.39 -0.41,0.56 1.2,-0.5 1.86,2.21 -0.15,-0.65 1.63,-0.54 1.46,1.55 0,0 0.22,0.12 5.48,-2.88 7.77,1.65 -1.31,-0.95 0.46,-3.54 0.52,-1.49 -0.34,-2.4 0.46,-0.25 -0.39,-0.75 1.58,-0.74 -0.97,-5.87 4.23,-5.23 4.07,-1.84 0,0 -3.75,-4.66 -3.19,-4.62 -2.11,-1.82 -4.22,-2.67 -1.88,-2.9 -4.31,-10.71 -4.51,-1.72 -1.16,-1.03 -0.57,-2.44 -0.34,-0.41 0.18,-0.12 -0.25,-1.15 -1.31,-0.49 -2.46,-4.77 -0.45,-4.76 -2.61,-1.55 -1.86,-0.42 0.16,-0.58 -1.25,-0.74 -0.08,0.14 -0.91,-0.42 -0.14,-0.49 -0.1,0.23 -0.53,-0.24 0.01,0.38 -0.2,0.02 -1.39,-1.11 -0.52,0.91 -0.18,-0.01 -0.14,-0.47 0.42,-0.42 -0.21,-0.11 0.06,-0.5 -0.72,-0.36 -0.21,-0.51 -0.54,0.01 -1.45,-1.04 0,0 0.01,0.29 -0.28,0.04 z" 
                fill="rgb(151, 144, 238)" 
                stroke="white" 
                stroke-width=".7px"
                title="Central Ostrobothnia" 
                id="FI-07" 
            />
        </svg>