<svg xmlns="http://www.w3.org/2000/svg" viewBox="53.29348800000001 703.1457700000008 89.18000199999999 76.53999999999917" width="89.18000199999999" height="76.53999999999917">
            <path 
                d="m 92.883488,777.13577 -0.13,0.5 0.22,0.21 -0.93,1.12 -0.43,-1.04 0.19,-0.85 0.55,-0.11 0.02,0.21 0.33,-0.01 0.14,-0.33 0.04,0.3 z m 2,-0.87 0.13,0.64 -0.37,0.8 0.02,1.54 -0.59,0.44 -0.42,-1.73 0.68,-0.96 -0.04,-0.37 0.39,-0.83 0.2,0.47 z m 2.93,-0.79 1.11,0.28 0.06,0.7 -0.19,0.29 -1.41,0.58 -0.25,-0.36 0.17,-0.09 -0.21,-0.38 0.21,-0.27 -0.16,-0.47 0.67,-0.28 z m 3.060002,-0.18 0.26,0.03 -0.23,0.25 0.77,0.81 -0.22,0.22 0.35,0.36 -0.26,0.19 -1.16,-0.61 -0.07,-0.72 0.27,-0.48 0.29,-0.05 z m 9.48,-5.04 0.65,0.14 -0.65,0.44 -0.04,0.35 0.29,0.24 -0.26,0.34 0.1,0.19 -1.12,0.72 0.51,0.34 -0.66,0.49 0.31,0.65 -0.88,0.25 0.11,-0.38 -0.35,-0.21 0.23,-0.49 -0.18,-1.48 0.69,0.21 0.46,-0.38 -0.12,-0.3 -0.85,0.07 -0.38,-0.28 1.2,-0.88 0.59,0.23 0.11,-0.47 0.24,0.21 z m 0.41,-3.56 1.25,0.33 -0.29,0.62 0.33,0.16 -0.15,0.47 0.31,0.1 -0.09,0.53 -0.24,0.03 -0.23,0.43 -0.9,-0.44 -0.51,0.67 -0.72,0.05 -0.21,-0.41 -0.63,0.33 -0.74,0.04 -0.01,-0.35 0.36,-0.18 0.6,0.18 -0.08,-0.99 0.69,-1.21 1.26,-0.36 z m -30.630002,-0.38 1.1,0.13 0.42,0.24 0.04,0.32 -1.54,0.56 -0.94,-0.18 -0.02,-0.51 -0.65,-0.23 0.12,-0.33 1.52,-0.66 -0.05,0.66 z m -11.7,-3.62 1.5,0.57 0.92,-0.18 0.42,0.2 -0.23,0.3 0.2,0.06 -0.06,1 -0.72,0.56 -0.45,-0.19 -0.35,0.18 0.06,0.43 0.34,-0.22 0.21,0.32 0.27,1.27 -0.74,0.44 -2.01,0.26 -2.05,-0.19 -0.14,-0.3 0.2,-0.17 -0.69,-0.53 0.44,-0.78 -0.23,-0.25 0.22,-0.78 0.98,-0.44 -0.28,-0.22 0.96,-1.03 0.49,-0.31 0.2,0.17 0.54,-0.17 z m 25.04,-1.45 -0.06,0.85 -0.3,0.17 0.17,0.44 -0.54,1.11 -0.49,-0.12 -0.32,0.42 -0.05,1.06 -0.48,-0.06 -0.4,0.22 -0.38,-0.18 -0.25,0.28 -0.15,-0.49 0.36,-0.53 -0.29,-0.47 0.67,-1.63 0.43,0.06 1.25,-0.96 0.83,-0.17 z m -9.13,-0.77 0.08,1.5 -0.55,0.15 -0.4,0.46 -1.27,-0.01 1.03,0.63 -0.02,0.92 -0.26,0 0.04,-0.19 -0.55,0.17 0.44,0.46 -0.58,0.09 -0.34,0.45 -0.91,0.1 -0.27,-0.56 0.2,-0.49 -0.58,-0.17 0.17,0.34 -0.37,0.82 -1.05,-1.1 0.28,-0.66 0.4,-0.01 -0.26,-0.52 0.07,-0.58 1.64,-0.57 0.45,0.28 0.92,-1.25 1.52,-0.45 0.17,0.19 z m -14.8,-2.06 -0.43,0.54 0.2,0.42 -0.98,0.22 0.28,0.81 -0.46,0.12 -0.45,-0.3 -0.47,0.57 -0.22,-0.04 -0.13,-0.45 0.47,-1.79 2.1,-0.3 0.09,0.2 z m 21.34,-1.18 -0.06,0.99 0.59,0.78 0.11,0.55 -0.87,1.39 -0.31,0.02 -0.46,0.94 -1.49,0.33 -0.31,0.39 -0.2,-0.04 0.14,-0.31 -0.29,-0.01 0.02,-0.19 -0.5,0.15 0.24,-0.67 -0.4,-0.05 0.14,-0.41 0.24,0.06 0.24,-0.34 0.69,-1.87 -0.5,0.32 -0.33,-0.23 -0.64,0.3 -0.31,-0.18 -0.18,0.55 -0.81,0.33 -0.08,-0.37 -0.99,-0.12 0.71,-0.45 0,-0.2 1.16,-0.13 0.29,0.21 0.48,-0.38 1.27,0.19 1.1,-1.08 1.31,-0.47 z m 4.99,-2.37 0.22,0.71 -0.69,0.26 0.06,0.63 -0.53,0.35 -0.33,0.6 -0.05,1.23 -1.57,0.43 -0.62,-0.04 -0.74,0.41 -0.04,-0.53 -0.56,-0.7 0.01,-0.7 1.58,-0.93 0.23,-0.91 0.9,-0.31 1.3,-0.08 0.83,-0.42 z m -17.08,-0.29 1.09,-0.03 -0.01,0.17 0.79,0.21 -0.46,0.43 0.01,0.87 -0.35,-0.1 -0.27,0.21 0.33,0.43 -0.18,0.1 -1.49,-0.12 -0.99,-0.64 0.21,-0.97 -0.56,-0.15 0.04,-0.19 1.84,-0.22 z m 33.060002,0.04 0.69,0.75 -1.5,2.63 -1.29,1.36 0.01,1.04 -0.71,0.39 -0.42,-0.12 -0.28,1.32 0.1,0.48 0.39,0.24 -0.36,0.33 -0.73,0.1 -0.14,0.39 0.87,0.38 -0.34,0.38 0.33,0.12 -0.02,0.27 0.36,0.29 -0.35,0.66 0.24,0.25 0.54,0.03 -0.74,0.58 -0.17,1.4 -0.37,0.68 -0.75,0.64 -0.98,0.17 -0.48,0.38 0.27,1.83 -0.31,0.14 -0.1,-0.31 -0.37,0.51 0.12,0.2 0.97,0.17 -0.16,1.26 -0.67,0.36 -0.21,-0.61 -0.39,0.49 -0.55,-0.15 -0.65,0.59 -0.38,0.01 -0.63,-1.76 0.31,-0.57 -0.49,-0.4 -0.58,1.62 0.16,0.27 -1.09,0.23 0.14,-0.27 -0.54,-0.43 -0.710002,0.42 -0.59,-0.7 -0.71,0.03 -0.06,0.25 -1.71,0.66 -0.52,0.49 -0.43,-0.36 0.04,0.59 -0.36,0.38 -0.55,-0.14 -0.09,-0.26 0.12,-0.45 0.26,0.08 -0.27,-1.3 -0.24,-0.09 0.11,0.77 -0.64,0.79 -0.3,-0.29 0.08,-1.17 -0.43,-0.08 0.32,1.67 -0.4,0.39 -0.51,-1.41 0.27,-1.02 -0.65,-1.44 0.08,-1.87 0.79,-0.15 0.7,-1.11 0.32,-0.03 0.4,0.42 -0.07,0.37 0.39,-0.21 0.49,0.35 -0.01,0.57 0.37,0.23 -0.17,0.61 0.52,-0.21 0.14,-0.48 -0.47,-0.47 0.12,-0.51 0.55,-0.47 -1.24,-0.29 -0.53,-0.51 0.03,-0.25 -0.39,0 0.23,-0.81 0.89,-0.05 2.83,-1.6 -0.38,-0.1 -1.55,0.38 -1.28,-0.4 0.08,-0.21 -1.08,0.6 -0.17,-0.13 0.18,-0.23 -0.25,-0.34 0.1,-0.81 0.78,-0.49 0,-0.26 0.63,-0.61 -0.19,-1.3 0.4,-0.91 0.53,-0.21 0.77,0.72 -0.44,0.51 0.13,0.35 -0.84,0.56 0.47,0.14 1.36,-0.27 0.42,0.41 0.55,-0.47 1.1,-0.03 0.210002,-0.58 -0.170002,-0.1 0.560002,-0.62 0.65,-0.07 0.42,0.19 2.77,-0.57 0.97,0.15 0.5,-0.31 0.06,0.29 0.42,0.07 1.79,-0.42 0.59,-0.41 0.02,-0.93 0.38,-0.37 -0.31,-0.24 0.37,-0.53 0.33,0.46 0.35,-0.5 0.26,-0.88 -0.1,-0.5 0.6,-0.59 0.89,-0.3 0.37,0.2 z m -22.660002,-1.26 0.99,0.32 0.55,0.82 -0.11,-0.44 0.62,0.02 0.15,-0.28 1.31,0.48 0,0.47 -0.51,0.97 0.39,0.35 -0.69,0.19 -0.11,0.31 -0.35,-0.04 0.22,-0.42 -0.38,-0.04 -0.5,-0.49 -0.07,0.66 -1.11,1 0.02,0.26 -1.35,0.03 0.35,0.7 0.22,0 -0.23,0.38 -1.65,-0.29 -0.63,0.36 -1.07,0.1 -0.85,-0.28 0.41,-0.51 -0.31,-0.11 0.3,-0.42 0.19,0.51 1.28,-0.2 0.17,0.22 0.27,-0.27 0.96,0.33 0.12,-0.24 -0.23,-0.32 0.35,-0.53 -0.44,-0.1 -0.23,0.5 -1.21,0.25 0.16,-0.3 -0.99,-0.18 -0.29,-0.58 -0.27,0.53 -0.2,-0.03 -0.56,-0.73 0.2,-0.68 -0.17,-0.25 0.4,-0.04 -0.09,-0.55 0.49,-0.41 0.01,-0.19 -0.44,-0.03 -0.02,-0.37 0.39,-0.23 0.11,0.19 0.39,-0.31 0.18,0.19 0.69,-0.05 1.12,-0.33 0.89,0.17 0.28,0.37 0.38,-0.5 0.5,0.06 z m -7.72,-0.24 0.34,0.18 -0.1,0.31 0.59,0.3 -0.04,0.56 -0.37,0.33 -0.61,0.1 -1.41,-0.63 -1.38,-0.28 0.54,-0.26 0.53,0.05 -0.05,-0.3 0.97,-0.43 0.99,0.07 z m -11.29,-1.86 1.06,0.32 -0.14,0.26 0.17,0.32 0.66,0.1 0.09,0.54 -1.05,-0.3 -0.63,0.19 -0.34,-0.21 0.18,-0.48 -0.36,-0.09 -0.28,-0.52 0.64,-0.13 z m 24.39,-0.4 -0.46,0.74 0.33,0.13 -0.07,0.44 0.88,-0.05 0.54,0.51 0.8,-0.17 0.49,0.18 0.5,-0.35 0.19,0.34 -0.19,-0.02 -0.06,0.41 -2.11,2 -0.92,0.19 -0.16,-0.15 -1.47,0.52 0.11,-1.43 -2.1,-0.5 0,-0.33 0.37,-0.47 0.07,-0.7 0.77,-0.03 -0.31,-0.28 -0.02,-0.43 0.54,0.12 1.35,-0.68 1.05,-0.21 -0.12,0.22 z m -4.09,-0.4 0.26,0.36 0.09,0.79 -1,0.44 -3.04,0.78 -0.56,-0.38 -0.07,-0.28 0.31,-0.3 -0.7,0.26 -0.11,-0.25 0.27,-0.35 1.2,-0.38 3.35,-0.69 z m 5.81,-2.01 0.11,0.4 -0.95,1.34 -0.23,-0.12 -1.77,0.52 -1.23,0.65 -0.95,-0.32 -0.16,0.32 -0.22,-0.16 0.07,-0.81 0.38,-0.32 4.95,-1.5 z m -8.02,-1.46 0.13,0.5 0.72,0.45 0.44,1.2 0.34,-0.04 0.05,0.51 -1.04,-0.65 0.1,0.62 -0.54,0.08 -0.21,0.3 -0.64,0 -0.13,-0.23 -0.92,0.23 0,-0.38 -0.43,-0.08 -0.06,-0.58 -0.25,-0.19 0.11,-0.52 0.41,-0.41 0.42,0.04 -0.04,-0.23 0.35,-0.23 0.23,0.1 0.24,-0.49 0.72,0 z m -13.51,-1.08 0.61,0.56 -0.02,0.29 0.28,0.01 -0.29,0.87 -0.78,-0.32 -0.44,0.12 -0.04,-0.36 0.99,-0.13 0.01,-0.18 -0.67,-0.04 -0.23,-0.42 0.17,-0.45 0.41,0.05 z m -5.33,-0.53 0.27,0.49 -0.16,0.39 0.19,0.34 -0.06,0.71 -0.65,-0.28 0.18,0.89 -0.83,0.74 -0.12,-0.67 0.2,-1.42 0.86,-1.41 0.12,0.22 z m 9.29,-1.88 1.71,0.61 0.28,0.57 0.24,-0.17 0.24,0.38 0.72,0.22 0.29,0.49 -0.23,0.63 0.82,0.09 0.33,-0.08 0.07,-0.24 0.22,0.3 -0.2,0.98 -1.04,0.33 -0.2,-0.39 -0.31,0.39 -0.15,-0.16 -0.68,0.08 -0.23,-0.25 0.19,-0.12 -0.33,-0.21 0.1,-0.45 -1.28,-0.49 -0.19,-0.76 -0.2,0.07 -0.46,-0.38 0.37,-0.17 -0.08,-1.27 z m -2.37,-0.28 1.54,0.84 0.28,0.82 0.36,0.23 0.6,1.7 0.51,0.2 0.09,0.65 0.58,0.35 -0.13,0.34 0.25,0.61 -0.51,0.45 -0.12,0.61 1.14,-0.1 0.71,0.26 -0.21,0.51 0.79,0.3 -0.25,0.59 0.63,-0.01 0.08,0.47 -0.78,0.28 0.1,0.34 -1.44,0.11 -2.22,-0.3 -0.46,-0.23 0.04,-0.19 -0.61,0.12 -1.74,-0.5 -0.16,-0.56 1.24,0.22 0.41,-0.15 -0.75,-0.38 -0.04,-0.29 -0.95,-0.3 -0.74,-0.53 -0.21,-0.54 0.05,-0.25 0.49,-0.08 0.53,-0.43 -0.99,0.06 0.12,-0.42 0.97,-0.08 0.46,-1.16 -0.78,-0.5 -0.2,-0.66 0.38,-1.85 -0.15,-0.29 0.19,-0.21 0.43,0.15 0.01,-0.33 0.46,0.13 z m -3,-4.31 0.66,0.65 -0.01,-0.5 0.44,0.25 -0.03,0.34 0.36,0.24 -0.12,0.71 -0.36,0.62 -0.34,0.08 0.04,0.46 -0.31,0.04 0.2,0.3 -0.73,0.19 -0.62,0.77 0.28,1.32 -0.43,-0.06 -0.08,0.65 -0.25,0.06 -0.12,0.37 -0.43,-0.36 -0.2,-0.54 0.2,-0.68 0.29,-0.04 -0.08,-0.56 -0.39,-0.21 0.51,-0.84 -0.34,-0.56 0.57,-0.56 -0.08,-0.27 0.37,-0.23 0.28,0.1 -0.05,-0.29 0.44,-0.38 -0.04,-0.44 0.37,-0.63 z m -6.88,0.25 0.47,1.37 -0.43,0.18 -0.67,-1.21 0.05,-0.56 0.35,-0.03 0.23,0.25 z m -9.98,-2.26 0.82,0.38 0.26,0.66 0.89,0.42 0.3,0.83 0.28,-0.05 0.24,1.16 -0.24,0.25 0.16,0.65 0.57,0.3 -0.08,0.59 0.28,0.31 0.2,-0.14 0.21,0.18 -0.16,0.43 -0.96,0.01 -0.07,0.39 -0.34,-0.27 -0.67,0.08 -0.41,-0.39 0.43,-0.38 -0.71,0 -0.13,-0.38 0.43,-0.06 -0.03,-0.34 -0.34,-0.03 -0.55,0.51 -0.26,-0.21 0.01,-0.99 0.31,-0.16 0.92,0.19 0.26,-0.27 -0.43,-1.18 -0.49,0.04 -0.47,-0.39 0.16,-0.23 -0.56,-1.04 0.17,-0.87 z m 4.67,-0.66 0.58,0.16 0.27,0.34 -0.08,0.42 0.53,0.31 -0.02,1.48 0.71,0 0.44,0.3 -0.21,-0.59 0.73,0.14 0.17,0.82 0.28,-0.06 0.01,-0.49 0.61,0.27 0.66,0.77 -0.19,0.43 0.5,0.14 -0.14,0.38 -0.51,-0.06 -0.11,-0.55 -0.79,0.02 -0.3,-0.3 0.09,1.43 0.65,1.21 -0.5,0.32 0.11,0.29 -0.57,0.53 -1.13,-0.44 -0.06,-0.59 0.19,-0.06 -0.18,-0.44 -0.96,-0.32 -0.12,-0.49 -0.44,-0.21 -0.07,-0.9 -0.52,0.25 -1.21,-1.08 0.51,-2.21 0.08,0.29 0.57,-0.51 0.31,-0.49 -0.16,-0.47 0.27,-0.04 z m -5.66,-1.22 0.21,0.59 0.45,0.04 0.35,0.5 -0.04,0.31 -0.38,0.04 0.27,0.26 -0.15,0.47 -0.47,-0.44 -0.22,-0.85 -0.8,-0.68 -0.52,0.19 0,-0.34 0.5,-0.15 0.48,0.42 -0.08,-0.4 0.4,0.04 z m 0.57,-0.9 0.44,0.16 0.23,0.45 -0.29,0.85 -0.57,-0.86 0.37,-0.17 -0.18,-0.43 z m 1.74,-2.61 0.62,-0.07 -0.07,0.58 0.49,-0.35 0.49,0.12 0.01,0.87 -0.36,-0.2 -0.27,0.89 0.25,-0.21 0.63,0.66 0.23,-0.23 0.56,0.89 -0.5,0.17 -0.14,0.44 0.3,0.08 0.05,-0.28 0.23,0.18 0.13,0.63 -0.19,0.1 0.5,0.36 0.15,0.7 -0.24,0.31 -1.77,-2.41 0.19,0.57 -0.18,0.42 0.5,1.13 -0.24,0.09 0.13,0.45 -0.28,0.16 -0.45,-0.44 -0.27,0.14 -0.17,-0.16 0.23,-0.25 -0.5,-1.27 -0.6,0.46 -0.05,-0.38 -0.52,-0.34 0.24,-0.12 0,-0.33 -0.57,-0.81 0.12,-0.26 -0.23,-0.7 0.32,0.07 -0.15,-0.42 0.58,-0.1 0.05,-0.18 0.22,0.4 0.6,-0.33 0.36,-0.57 -0.71,-0.1 -0.26,-0.25 0.09,-0.21 0.45,0.1 z m 2.2,-6.43 0.39,0.18 0.65,0.87 -0.52,0.64 -0.43,-0.17 -0.25,-0.33 0.19,-0.22 -0.6,-0.56 0.12,-0.39 0.45,-0.02 z m -6.23,-2.48 1.02,1.13 0,0.47 -0.35,0.06 -0.5,-0.43 -0.33,0.04 -0.33,-0.98 0.31,-0.68 0.18,0.39 z m 4.14,-0.62 0.4,0.28 -0.52,0.54 -0.4,-0.33 -0.25,0.27 -0.31,-0.11 0.16,-0.43 0.75,-0.59 0.17,0.37 z m -0.45,-2.78 0.21,0.07 -0.02,0.83 0.37,0.48 -0.02,0.64 -0.62,0.48 0.13,-0.6 -0.58,-0.07 0.32,0.6 -0.61,0.57 -0.18,-0.44 0.32,-0.24 -0.45,-1.01 0.45,0.24 0.1,-0.17 -0.07,-0.23 -0.5,-0.05 0.05,-0.37 0.27,-0.22 0.46,0.48 0.02,-0.27 0.36,-0.23 -0.16,-0.22 0.15,-0.27 z m -1.75,-2.36 0.27,0.07 0.23,0.56 0.37,-0.19 -0.04,-0.26 1.5,0.1 -0.45,0.44 0.15,0.52 -1.01,0.53 -0.5,1.57 -0.61,0.1 -0.2,-0.66 -0.57,-0.71 1.04,-0.34 0.19,-0.54 -0.59,0.09 -0.14,0.37 -0.49,-0.19 -0.04,0.31 -0.14,-0.96 0.18,-0.46 0.85,-0.35 z m 6.77,-10.17 0.33,1.35 1.96,1.69 0,0 1.9,-0.15 0.48,-0.28 0,0 1.29,-0.01 0.08,-1.64 0,0 0.02,-0.49 0.37,-0.59 0.97,2.21 0.15,1.11 0.32,0.28 1.06,-0.59 0.57,0.41 0.62,-0.24 0.95,-0.78 -0.41,-0.86 0.72,-0.51 1.52,-0.01 -0.63,0.93 1.24,0.72 1.3,1.64 0.68,-0.22 0.63,0.57 0.86,0.03 -0.1,2.17 1.58,2.21 -0.34,0.71 0.49,0.26 0.37,-0.27 3.68,-0.2 0.97,1.95 0.39,-0.18 0.62,-1.29 0.81,0.34 0.08,-0.26 -0.93,-0.43 1.4,-1.27 0.98,-0.39 0.3,0.35 1.38,0.41 1.49,-1.11 1.69,-0.24 3.38,-0.93 2.07,0.74 -1.89,-2.42 1.77,-0.93 3.800002,0.25 0.44,0.32 2.2,-0.85 0.41,-0.39 0.61,0.39 0.43,-1.41 -0.11,-0.81 -0.5,-0.88 0.61,-0.23 -0.1,-0.48 0.43,-0.74 0.01,-0.32 -0.68,-0.71 0.25,-1.45 1.41,1.13 0.46,1.67 1.03,0.47 0.4,-0.18 0.29,0.74 1.1,0.03 1.45,1.35 1.27,-0.6 1.66,-0.16 1.34,0.24 0.56,1.67 1.04,0.25 0,0 1.73,2.46 1.31,0.63 -0.15,0.8 0.31,0.35 -0.39,0.72 0.03,0.58 -1.16,-0.18 0.24,0.37 0.21,1.63 -3.45,-0.22 -0.62,0.5 0.09,2.97 2.52,0.64 0.27,0.27 -0.93,0.56 -1.41,2.76 0.5,0.63 2.38,2.08 0.96,1.31 0.18,-0.83 1.69,0.51 3.44,-1.93 1.45,0.02 0.49,0.2 -0.01,1.1 0.88,0.61 0.42,0.96 1.02,0.55 1.57,0.05 1.84,0.71 -0.2,0.81 0.31,0.86 1.01,-0.38 1,0.74 2.13,-0.25 1.54,0.25 0.35,-0.14 0.87,0.29 0,0 -1.03,2 1.59,0.77 0.02,0.38 -0.98,1.83 0,0.94 -1.35,0.14 0.6,1.12 -0.01,0.31 -0.43,0.25 0.5,0.66 0.02,1.02 -0.86,0.88 -0.7,-0.2 -2.58,0.28 -0.82,1.15 0.12,0.55 -0.62,0.9 2.84,0.02 0.29,1.33 -0.27,1.47 0.11,1.3 -0.48,0.01 -0.91,1 -0.67,0.13 -0.02,0.56 0.34,0.24 0.05,1.21 -0.23,1.97 -1.23,0.88 -0.51,-0.57 -0.93,1.24 -0.51,0.1 -0.05,1.39 -0.35,-0.71 -0.12,0.64 -0.56,-0.12 -0.3,0.37 1.93,1.34 -0.38,0.22 0.51,2.02 -1.16,0.67 -0.83,-0.54 -1.07,-0.13 -2.76,1.95 -1.58,0.42 -1.16,-0.12 -0.53,1.06 -1.51,-1.41 0.31,-0.98 -0.62,-0.04 -0.75,0.77 -0.14,1.44 -0.49,0.11 -1.56,1.15 -0.63,0.05 0.01,0.7 -1.51,1.38 -2.46,0.54 -0.11,-0.19 -0.41,0.52 -0.94,-0.87 0,0 0.28,-0.29 -0.28,-0.39 0.31,-0.48 -0.2,-0.19 -0.39,-0.18 -0.86,1.01 -0.57,-0.01 0.13,-0.45 0.32,-0.06 -0.6,-0.45 0.63,-0.29 -0.5,-0.34 -1,-0.03 -1.15,-0.54 0.08,-0.4 -0.91,-0.47 -0.11,-1.16 0.53,-0.26 -0.59,-1.45 0.64,-0.64 0.72,-1.59 1.11,-0.86 -0.06,-1.12 0.82,-0.35 0.18,-0.97 0.6,-0.23 0.41,0.14 1.24,-2.88 -0.05,-0.66 0.23,-0.52 0.2,-0.27 0.38,-0.03 0.69,-0.91 -0.63,-0.5 -0.31,0.03 -0.49,0.59 0.04,0.19 0.27,-0.03 0.01,0.36 -1.05,1 0.04,0.73 -0.72,0.44 -0.3,-0.52 -0.23,0.03 -1.43,0.99 -2.06,0.64 -0.8,1.51 -2.02,1.8 -1.55,0.37 -0.67,0.42 -1.37,-0.11 -0.16,0.21 -1.83,0.31 -0.12,0.28 -0.73,0.33 -0.150002,0.42 -0.5,0.4 -1.66,0.17 0.3,-1.04 0.94,-0.15 -0.18,-0.3 1.290002,-0.6 -0.920002,-0.89 -0.07,-0.68 -1.09,0.12 0.22,0.46 -0.23,0.26 -0.66,-0.22 -0.04,0.46 -0.43,0.01 0.06,-0.21 -0.24,-0.17 -0.51,0.18 -0.6,-0.65 0.68,-0.02 0.18,-0.37 -0.35,-0.03 0.08,-0.68 1.17,-1.53 1.38,-1.31 0.03,-0.42 0.42,-0.26 -0.31,-0.58 0.22,-0.49 0.41,0.2 0.780002,-0.67 0.12,-0.9 0.63,-0.62 0.71,-1.37 -0.5,0.11 -0.84,1.34 -0.650002,0.48 -0.94,-0.52 -0.44,0.27 -1.43,-0.1 -0.76,-0.41 1.1,-1.77 -0.13,-0.18 -3.37,1.23 -0.27,0.28 -3.01,0.78 -0.29,-0.2 0,-1.38 -0.44,0.08 -0.74,-1 -0.34,0.01 -0.97,-1.49 -2.63,0.32 -0.28,-0.28 0.22,-0.73 -0.73,0.31 -0.29,0.43 -0.97,-0.8 -1.24,-0.23 -0.32,-1.29 0.52,-0.03 -0.17,-0.66 -0.33,-0.03 -0.35,0.26 -0.54,-0.18 -0.19,-0.53 0.48,-1.04 -0.69,0.64 -0.76,-0.36 0.18,-0.52 0.28,-0.04 -0.29,-0.8 0.34,-0.42 -0.2,-0.12 -0.47,0.4 -0.45,-0.38 -0.39,0.02 0.27,-0.73 -0.98,-0.27 0.04,0.48 -0.38,1.04 -0.28,-0.14 0.02,-0.23 0.19,0.01 -0.03,-0.7 -0.24,-0.25 -0.34,0.03 -0.09,0.38 0.29,0.3 -0.02,0.72 0.28,0.26 0,1.24 0.16,0.24 0.24,-0.08 -0.13,0.49 0.41,0.38 -0.41,0.61 -0.65,-0.39 -0.12,-0.43 -1.34,-0.49 -0.28,0.73 -0.11,-0.21 -0.47,0.26 -0.18,-0.3 -0.7,0.25 0.13,0.97 -0.44,0.03 0.2,-0.25 -0.7,-0.17 -0.14,-0.81 0.72,-0.26 0.07,-0.42 0.49,0.19 0.75,-0.23 -0.13,-0.89 0.23,-0.49 0.27,-0.06 -0.06,-0.86 0.42,-0.42 -0.01,-0.6 -0.39,-0.4 0.07,-0.2 0.44,0.12 -0.01,-0.27 -0.45,-0.25 0.07,-0.6 0.35,-0.1 0.01,-0.54 -0.25,-0.33 0.18,-0.16 0.28,0.24 0.22,-0.26 -0.42,-0.57 0.14,-0.48 0.31,0.23 0.12,-0.17 -0.12,-1.04 0.4,-1.16 -2.12,1.89 -0.81,1.37 -1,0.36 -0.39,-0.25 -0.23,0.45 -0.7,0.06 -0.24,0.4 -0.37,-0.23 0.37,2.08 -0.2,0.59 -0.17,-0.11 -0.27,0.3 -0.23,1.43 -0.9,1.12 -1.1,0.32 -0.25,0.33 -0.39,-0.73 0.54,-0.97 0.5,-0.1 -0.27,-1.01 -0.22,0 -0.24,-0.52 -0.43,-0.3 -0.37,-0.69 0.04,-0.4 -2.56,-1.18 -0.61,0.06 0.04,-0.33 -1.18,-1.13 0.41,-0.06 0.05,-0.59 -0.34,-0.12 -0.11,-0.91 0.17,-0.51 0.23,0.63 0.47,-0.29 0,-0.25 -0.37,-0.25 0.38,-0.16 -0.13,-0.5 -1.22,0.01 -0.41,-0.61 -0.51,-0.16 -0.09,-0.53 -0.27,0.03 -0.11,-0.33 -1.06,-0.82 0.41,-0.12 -0.02,-0.32 0.3,-0.13 -0.16,-0.26 0.22,-0.25 -0.54,-0.05 0.09,-0.68 0.23,-0.2 1.77,0.1 0.36,0.18 -0.16,0.27 0.25,0.01 0.04,0.23 0.47,-0.16 0.44,0.29 0.51,-0.02 -0.4,-0.83 0.37,0.01 -0.13,-0.31 -0.4,-0.22 -0.67,-1.08 1.19,-0.37 -0.79,-0.18 -0.17,-0.53 -1.13,-0.48 -0.21,-0.29 0.12,-0.18 -0.32,-0.27 0.72,-0.84 -1.04,-0.86 0.19,-0.43 0.42,-0.12 -0.11,-0.83 -0.43,-0.2 -0.31,0.37 -0.18,-0.38 -0.3,0.32 0.21,-1.8 -0.23,0.39 -0.32,0.03 -0.18,-0.28 0.58,-0.9 -1.73,-0.62 1.11,-0.32 0.16,-0.85 1.54,0 0.85,0.64 0.04,-0.41 0.65,-0.15 0.13,-0.34 -0.23,-0.32 -0.37,0.16 -0.9,-0.22 -0.47,-0.79 -0.05,-0.6 -0.37,-0.09 -0.28,-0.28 0.03,-0.3 -0.39,-0.18 0.13,0.56 1.21,1.78 -0.44,-0.22 -0.28,0.32 -0.8,-0.05 -0.04,0.2 -2.3,-0.83 0.06,0.37 0.74,0.01 0.14,0.28 -1.33,0.2 -0.91,-0.21 -0.22,-0.31 0.32,-0.18 -0.66,-0.31 0.66,-0.28 -0.39,-0.39 0.61,0.07 0.54,-0.65 0.38,-0.01 0.73,0.62 -0.07,-0.59 0.35,-0.02 0.07,-0.21 0.76,0.18 -0.4,-1.02 -0.33,-0.2 0.04,-0.21 0.53,0.08 0.18,-0.72 -2.55,-1.61 0.46,-0.11 0.02,-0.53 0.61,0.03 0.2,-0.19 -0.07,-0.38 0.56,-0.3 0.6,0.53 0.11,0.61 0.88,1 -0.15,0.21 0.2,0.03 0.06,0.55 0.33,-0.03 0.49,0.78 0.34,-0.3 0.52,0.95 -0.26,0.07 0.01,0.49 -0.73,-0.24 -0.29,0.42 1.09,0.15 0.35,-0.34 0.96,1.34 0.23,-0.7 -0.58,-1.04 0.38,-0.46 -0.08,-0.39 -0.41,-0.39 0.09,-0.25 -0.75,-0.24 0.12,-0.65 -0.42,-0.71 -0.23,-0.07 0,0.35 -0.64,-0.93 -0.29,-0.55 0,-0.72 -0.65,-0.21 0.48,-0.68 -0.45,-0.11 -0.67,-0.64 0.8,-1.04 -0.79,0.11 -0.46,-0.4 -0.27,-1.93 0.86,0.14 0.34,0.56 1.91,1.01 0.39,0.75 0.4,0.14 z" 
                fill="rgb(151, 144, 238)" 
                stroke="white" 
                stroke-width=".7px"
                title="Finland Proper" 
                id="FI-19" 
            />
        </svg>