<svg xmlns="http://www.w3.org/2000/svg" viewBox="210.30348999999993 690.5657699999999 62.35000000000011 56.84999999999923" width="62.35000000000011" height="56.84999999999923">
            <path 
                d="m 225.30349,691.82577 1.01,-0.35 0.58,0.43 2.23,-1.34 1.25,3.16 -1.27,1.5 0.99,0.95 2.68,-1.56 0.48,-0.68 0.45,-1.82 2.37,-1.01 1.04,-0.13 0.5,2.56 -0.14,0.26 0.96,1.07 0.31,1.05 -0.51,1.8 3.96,2.11 2.1,-0.27 0.74,-0.58 0.62,0.3 1.93,-0.15 0,0 0.28,1.42 -0.93,1.34 -0.03,0.61 -0.27,0.37 0.35,0.4 0.47,-0.36 0.55,0.49 0.03,0.35 0.35,0.15 -1.6,0.32 -1.09,1.12 -0.07,1.36 0.41,1.31 -0.58,1.17 1,0.82 0.75,-0.64 0.41,-0.03 0.41,1.17 0.02,0.84 0.21,0.41 0.45,-0.09 0.14,0.39 -2.15,1.05 -0.86,-0.17 -0.7,-0.94 -0.28,0.26 0.44,0.78 2.54,3.11 2.79,0.68 2.2,0.93 2.58,3.8 1.68,1.45 1.36,0.08 2,-0.5 2.17,0.23 1.15,0.43 -0.12,0.48 0.72,1.78 1.28,0.15 0.63,-0.67 0.53,0.24 1.3,0.02 0.36,1.83 1.3,2.6 1.64,0.76 0.16,0.51 -0.13,0.72 1.22,-0.14 0,0 -3.81,4.19 -1.1,1.68 0.17,1.16 -0.98,0.45 -0.53,0.55 -0.37,-0.01 -0.57,-1.8 0.17,-0.39 -0.27,-0.23 -0.38,0.15 -0.56,-0.16 -0.41,0.27 0.46,0.56 -0.59,0.3 0.23,0.25 0.01,0.7 -0.25,0.65 0.18,0.55 0.63,0.17 0.18,0.65 -0.4,0.21 -0.11,0.54 0.42,0.3 -0.06,0.66 -0.3,0.19 -0.94,-0.36 -0.64,0.73 -0.84,-0.26 -0.13,-0.24 -0.64,-0.03 -0.15,0.06 0.16,0.6 -0.45,0.04 -0.27,-0.39 -0.72,-0.23 0.27,0.67 0.79,0.51 -0.02,0.38 -1.36,-0.48 -0.38,-0.5 -0.04,-0.47 -0.02,0.14 -0.67,-0.6 -0.28,0.25 -0.81,-0.64 -0.26,0.06 -0.26,-0.56 -0.31,0.29 0.08,0.34 -0.83,0.25 -0.06,0.41 0.34,0.69 0.51,0.07 0.33,0.87 -0.14,0.37 -0.47,-0.08 -0.8,-0.83 -0.5,0.22 -0.01,0.32 -0.26,0 -0.52,-0.47 0.06,-0.65 -1.31,-1.43 -0.13,0.54 0.49,0.31 -0.16,0.3 -1.19,-0.14 -0.04,-0.31 0.66,-0.23 0.08,-0.38 -0.21,-0.3 -0.62,0.16 -0.82,-0.29 -0.18,-0.77 -0.62,0.39 -0.25,0.58 -0.43,-0.44 0.02,-0.34 -1,-0.4 -0.38,0.41 -0.75,0.25 -0.04,-0.65 0.27,-0.46 -0.51,-0.79 0.16,-0.54 0.42,-0.04 2.1,1.77 0.26,-0.44 -0.84,-0.53 -0.31,-0.49 -0.75,-0.3 0.05,-0.39 -0.87,-0.3 -0.86,0.14 0.28,1.8 -0.18,0.04 -0.18,0.92 -0.41,0.14 -0.72,-0.35 -0.76,-1.15 -0.51,0.58 -0.38,-0.38 -1.25,0.98 -0.22,-0.82 -0.43,-0.34 0.16,-0.29 -0.17,-0.5 -0.56,-0.11 0.66,1.99 -0.56,0.8 -0.43,0.04 -0.32,-0.33 0.29,1.2 -0.28,0.44 -0.28,-0.36 -0.14,0.49 0.63,1.53 -0.4,-0.18 -0.44,-1.28 -0.49,0.14 -0.13,0.43 0.7,0.4 -0.76,1.68 -1.44,-1.7 -0.33,0.16 -0.05,0.4 0.48,0.93 0.61,0.17 -0.09,0.5 0.41,0.48 -0.34,0.19 0,0.27 -0.88,0.03 -0.13,-0.57 -0.72,-0.21 -0.07,0.43 -0.36,-0.09 0.02,-0.67 -0.26,-0.36 0.89,-0.29 0.09,-0.21 -0.21,-0.48 0.2,-0.32 -0.6,-0.81 -0.32,0.76 -0.62,0.05 -0.88,0.73 -1.05,-1.06 0.11,-0.36 -1.12,-0.56 0.45,2.29 -0.76,-0.13 -0.41,1.28 -1.12,-0.14 0.04,0.63 -0.55,-0.49 -0.24,0.1 -0.45,-1.56 -0.53,-0.31 -0.22,0.25 -0.22,-0.19 -0.24,0.2 -0.1,-0.3 -0.46,-0.03 -0.3,0.52 -0.31,-0.13 0.08,0.94 0.2,0.17 -0.11,0.59 -0.68,-0.57 -0.21,-0.78 -0.43,-0.21 -0.19,0.27 -0.73,-0.92 -0.43,-0.15 -0.46,-1.32 -0.48,-0.29 0,0 0.32,-0.34 -0.12,-0.38 0.23,-0.82 1.3,-0.84 -0.05,-0.45 -0.63,-0.66 0.47,-0.22 0.17,-0.45 0.32,0.17 0.73,-0.24 0.17,-1.31 1.42,-2.12 1,-0.38 1,-0.04 0.49,0.29 0.83,1.35 1.04,0.64 0.8,0.21 -0.28,-0.62 -1.98,-4.16 -1.18,-0.16 -1.5,0.59 -0.12,0.92 -0.9,1.35 -0.72,1.99 -0.15,-1.17 -0.9,-0.23 -0.9,0.07 -0.06,-1.05 -0.92,-1.78 -0.75,-0.56 -2.62,-0.72 0.45,-0.45 -0.76,-0.54 -0.43,-1.27 0.16,-1.16 -0.96,-1.11 0.03,-1.17 -0.75,-0.42 -0.25,-0.43 -0.46,0.05 -0.07,0.8 -0.76,0.01 -0.63,-0.61 0,0 -0.3,-2.98 -1.11,-1.13 -1.35,-0.77 -0.84,0.18 -0.63,-0.45 0.48,-1.61 0.92,-0.62 -0.24,-0.86 0.32,-0.91 1.46,-2.1 -3.52,-0.56 -0.58,-2.3 0.2,-0.68 0.45,-0.11 -0.04,0.49 0.41,0.35 1.32,-0.88 0.12,-1.46 0.4,-1.34 -0.46,-1.2 -0.47,-0.18 0.14,-1.89 -1.95,-1.25 1.85,-2.92 1.11,-0.97 0.37,1.18 0.58,-0.09 2.15,0.51 1.02,-1.21 -0.01,-0.91 2.35,-0.55 1.39,-1.1 0.45,-1.8 0.97,-1.35 0.02,-1.1 0.57,-0.58 1.02,-0.21 1.04,-0.51 z" 
                fill="rgb(151, 144, 238)" 
                stroke="white" 
                stroke-width=".7px"
                title="Kymenlaakso" 
                id="FI-09" 
            />
        </svg>