<svg xmlns="http://www.w3.org/2000/svg" viewBox="34.683488000000516 0.25576509999976205 303.0800019999993 382.7100049000004" width="303.0800019999993" height="382.7100049000004">
            <path 
                d="m 178.71349,380.83577 0.18,0.6 -0.24,0.56 -0.14,-0.35 -0.49,-0.14 -0.08,-0.37 0.04,-0.32 0.51,-0.22 0.22,0.24 z m -14.61,-6.74 0.49,0.13 -0.35,0.99 -0.37,0.37 0.34,0.56 0.08,0.78 -0.51,-0.2 -0.12,0.97 -1.05,-0.02 -0.22,-0.24 -0.04,0.33 -0.29,-0.39 -0.63,0.21 0.47,-0.6 -0.47,0.19 0.18,-0.47 -0.17,0.01 -0.03,-0.45 0.45,-0.02 0.1,-0.19 0.31,0.29 0.35,-0.06 0.6,-0.46 0.57,-0.85 0.09,-1.13 0.22,0.25 z m 107.88,-372.3500049 0.65,5.95 5.65,8.6599999 5.88,3.66 -0.52,2.92 2.46,3.02 16.18,8.03 7.09,3.24 1.13,5.01 5.36,14.83 -3.84,7.44 -12.31,15.55 -0.04,4.64 -0.82,5.49 1.73,3.25 2.33,2.15 -13.71,10.680005 -2.73,1.48 1.69,2.64 6.27,-0.06 4.33,1.5 -3.18,12.17 -8.67,16.75 7.02,29.93 21.58,10.33 2.22,4.87 0.5,0.26 -0.06,0.73 1.45,3.54 0.78,1.23 2.74,6.14 1.02,1.26 2.86,5.88 8.36,7.69 2.38,1.86 -3.01,13.2 -2.98,3.77 -2.35,4.32 -1.53,2.27 -0.19,0.77 -0.9,0.91 -0.18,0.52 -0.59,0.14 -0.44,1.3 -0.67,0.23 -0.17,0.62 0.83,0.27 -0.04,0.41 -0.97,0.78 -0.92,-0.31 -0.18,0.56 -0.39,0.12 -0.02,0.28 0.44,0.21 -0.28,0.4 -0.42,-0.11 -0.53,0.36 -0.11,-0.22 -0.43,0.09 -0.6,1.83 0.35,0.62 -14.17,23.45 -1.02,2.89 -0.21,2.81 0.86,5.72 1.82,4.08 0.04,0.28 -0.42,0.43 0.05,0.41 0.82,0.29 0.15,0.49 0.47,0.15 6.65,11.39 -0.01,1.21 0.79,1.26 -0.25,0.4 0.19,0.39 0.54,0.05 0.56,0.43 -0.2,0.66 1.94,3.25 3.18,8.81 0,0 -10.01,0.06 -0.1,1.9 -17.9,-6.21 -0.95,5.8 -1.53,0.03 -0.49,0.28 -0.41,-0.35 0.22,1.15 -0.45,-0.01 -0.29,1.44 -0.8,-0.02 -0.05,2.33 0.18,0.65 -0.22,0.94 -0.22,0.1 1.66,5.03 0.39,0.28 1.15,-0.13 0.17,1.13 0.53,0.32 0.75,-1.11 0.86,0.05 1.13,0.45 -0.19,0.67 0.55,0.7 -0.07,0.95 -0.64,0.49 0.41,0.4 -0.43,0.73 1.05,1.69 -1.66,1.88 -0.08,1.97 -0.86,0.68 -2.59,-0.02 0.63,2.87 0.55,0.41 -0.43,1.12 2.06,0.76 0.29,0.66 0.49,0.08 0.04,0.65 0.76,-0.53 0.6,0.54 -0.87,0.48 -0.1,0.34 0.19,0.57 0.31,0.17 -0.07,1.72 -2.28,0.13 -0.71,1.04 -1.72,-0.07 -0.05,-0.92 -1.62,-0.74 -0.08,0.42 -1.9,0.03 -0.07,1.04 -2.19,0.24 -0.02,-0.92 0.64,-0.73 -0.35,-0.09 -0.26,0.3 -1.32,0.25 -0.02,0.26 0.54,0.2 0.02,1.15 0.29,0.13 -0.22,0.85 -0.55,-0.19 -0.19,0.24 0.11,0.6 1.92,1.11 0.85,2.22 1.53,2.1 0.2,3.5 -1.57,0.1 -7.68,3.41 -1.88,-0.48 -0.63,-0.56 -7.43,-0.55 -0.2,-0.59 -0.39,0.05 0,0.17 0.36,0.05 -0.12,0.3 -4.42,-0.33 0.17,-0.79 0.84,0.16 0.04,-0.43 0.37,-0.27 -0.06,-0.4 -0.33,0.02 -0.35,0.79 -0.59,-0.22 -2.34,-4.62 -1.27,-4.64 -1.09,0.24 -0.16,0.27 -0.56,-0.08 -0.71,0.95 -0.37,1.07 -0.78,0.27 -3.02,-2.87 -1.04,1.54 0.24,0.44 -0.19,0.13 -0.3,-0.2 -4.86,7.45 -0.23,-0.14 -0.32,0.19 0.2,0.44 -0.36,0.56 -0.18,-0.18 -0.03,0.49 -1.95,3.07 0.08,0.34 0.31,0.16 -0.44,0.22 -0.21,-0.33 -1.45,2.24 -0.59,0.28 0.25,0.48 -0.86,0.9 -1.2,-0.66 -0.9,0.42 -0.01,0.81 0.43,0.03 0.01,0.63 -1.17,0.09 -0.14,-1.18 -4.38,2.01 -0.58,0.09 -4.27,-0.56 -0.14,0.19 -0.08,-0.24 -0.19,0.71 -0.64,-0.77 -8.77,-0.29 -7.13,-0.87 -0.04,-7.56 -11.71,6.31 -11.85,-0.15 -2,1.14 -1.65,3.25 -2.52,1.36 -1,1.16 -0.24,-0.12 -1.95,3.7 -1.45,1.47 0,0 -0.23,-0.28 0.4,-0.08 -0.32,-0.39 0.08,-0.29 -0.24,-0.42 -0.43,-0.2 -0.19,-0.84 -1.93,-0.6 -0.05,-0.46 -0.94,0.03 0.1,0.19 -0.36,-0.05 0.06,-0.17 -0.38,0.19 -0.5,-0.18 -1.01,-0.84 0.14,-0.9 -0.35,-0.39 0.24,-0.53 -0.65,0.29 -0.36,-0.39 -0.2,0.47 -0.26,0.03 -0.26,-0.46 0.05,0.31 -0.36,0.43 -0.52,-0.24 0.19,-0.35 -0.18,0.12 -0.26,-0.29 -0.1,0.19 -0.22,-0.34 0.26,0.84 -0.26,0.11 -0.22,0.77 -0.19,0.05 -0.39,-0.95 -0.77,-0.5 -0.37,0.36 0.1,0.4 -0.29,-0.1 -0.13,0.92 -0.23,-0.02 -0.29,0.43 0.23,0.2 -0.56,0.35 -0.07,0.43 -0.35,-0.11 -0.08,-0.36 -0.41,0.01 -0.02,-0.26 -0.6,-0.04 0.17,-0.8 -0.21,-0.34 0.24,-0.13 0.21,0.23 0.14,-0.51 -0.42,-0.28 0.11,-0.19 -0.7,-0.81 0.11,-0.38 -0.61,-0.08 -0.67,-0.92 0.45,-0.62 0.48,1.22 0.3,0.09 -0.26,-1.13 0.13,-0.41 -0.8,-0.68 -0.33,0.05 0.08,0.32 -0.39,-0.16 -0.75,-1.38 -0.55,0.29 -0.2,-0.47 0.13,-0.88 -0.89,-0.11 0.04,-1.14 -0.25,1.35 -0.35,0.03 0.19,-1.8 -0.37,1.57 -1.54,-0.67 0.02,-0.6 0.73,-0.2 0.75,-1.01 -0.13,-0.46 -1.2,0.59 -0.72,-0.04 0.13,-0.66 0.33,-0.23 -0.06,-0.33 -0.54,0.88 0.03,0.42 -0.46,0.16 -0.83,-0.5 -0.13,-0.34 -0.52,0.19 -0.04,-0.29 -0.32,-0.15 -0.05,0.3 -0.48,-0.72 -0.6,-0.17 -0.52,-1.25 0.03,1.16 -0.34,0.09 -0.16,-0.38 -0.13,0.19 -0.16,-0.12 -0.19,-0.73 -0.01,0.21 -0.59,-0.63 -0.16,-0.97 -0.47,-0.68 -0.06,0.37 0.52,0.85 -0.07,0.37 -0.77,-1.03 -0.49,-0.3 -0.19,0.09 0.85,0.98 -0.09,0.97 -0.4,-0.16 0.27,0.32 -0.17,0.4 0.13,0.59 -0.29,0.19 0.18,0.33 -0.79,-0.07 1.06,0.65 -0.24,0.75 -0.28,-0.12 -0.1,-0.44 -0.15,0.2 -0.22,-0.08 -0.39,-0.59 0.17,1.03 -0.55,0.21 -0.35,-0.23 0.3,0.97 -0.32,-0.35 -0.02,0.3 -0.37,0.02 0.13,-0.3 -0.15,0.09 -0.38,-0.94 -0.02,-0.9 0.19,-0.18 0.28,0.16 -0.1,-0.3 0.37,-0.37 0.1,-0.92 -0.29,-0.34 -0.59,-3.05 -0.5,-0.69 0.19,-0.89 0.54,-0.18 -0.58,-1.9 -0.53,-0.7 -0.17,-1.13 0.23,-1.13 -0.96,-0.38 -0.4,-0.97 -1.06,-1.44 -0.06,-0.5 0.37,-0.35 -0.13,-1.96 -1.45,-2.41 -1.33,-3.07 -0.67,-0.57 -0.11,-1.17 0.32,-1.01 -0.34,-0.76 0.16,-0.64 -0.69,-1.25 0.31,-0.64 -0.04,-0.83 -0.37,-0.48 -0.76,-0.37 -0.7,0.09 -0.4,-0.47 -0.76,0.13 -1.45,-1.35 -1.9,-0.62 0.16,-0.93 -0.42,-0.71 -0.59,-0.37 -0.29,-0.86 0.17,-1.07 -0.87,-1.13 0.05,-1.05 -0.69,-2.47 0.31,-3.98 0.8,-1.99 0.08,-0.73 -0.18,-0.49 -0.55,-0.46 -0.81,-2.44 0.31,-2.1 2.17,-1.67 -0.15,-1.16 0.34,-0.53 0.18,-0.99 0.24,0.39 0.33,-0.05 0.52,-0.58 0.95,-0.39 0.09,-0.49 -0.37,-1.03 2.25,-1.69 0.59,-1.46 0.03,-2.04 0.31,-1.09 -0.46,-1.17 0.07,-0.98 -0.23,-1.05 0.68,-1.48 0.28,-3 0.38,-0.81 -0.59,-1.54 0.04,-0.75 -0.34,-0.36 0.13,-0.78 0.41,-0.5 0.75,-0.2 -0.27,-1.7 0.21,-0.23 0.51,0.05 1.04,0.97 0.58,-0.16 -0.14,-0.94 0.38,-0.51 0.21,-1.52 -0.71,-1.45 -0.09,-0.79 -1.05,-2.73 -0.7,-0.44 -0.39,-1 -1.2,-1.46 0.11,-1.47 -0.25,-0.44 0,-1.02 -0.37,-0.38 -0.65,-0.14 -0.39,-1.57 -0.5,-0.24 -0.23,-0.88 -0.96,-0.69 -0.76,-1.24 -0.73,-1.37 -0.13,-0.79 -1.29,-1.77 -0.57,-3.1 -0.75,-0.9 -0.32,-0.94 -2.22,-3.68 0.42,-1.18 0.72,-0.46 -0.06,-0.72 0.31,-0.81 -0.92,-1.1 -0.62,-0.31 0.47,-0.89 -0.29,-0.96 0.55,-0.35 -0.2,-0.82 0.48,-0.57 0.86,-0.38 0.51,0.17 1.88,-0.92 1.25,-0.06 0.55,-0.94 0.62,-2.71 0.62,-0.78 -0.51,-0.96 -0.67,-0.11 0.07,-0.66 -0.33,-0.88 0.14,-0.86 -0.54,-0.61 0.07,-0.44 0.98,-1.31 0.01,-0.99 0.39,-0.87 -0.31,-0.52 -1.4,-0.84 -1.21,0.23 -2.14,-0.85 -0.71,-0.05 -1.06,-0.57 -0.56,0.12 -0.61,1.02 -0.67,0.02 -1.72,-1.1 -0.26,-0.38 -0.64,-0.24 -0.52,-1.47 0.38,-1.35 0.8,-0.43 0.24,-1.02 1.17,-0.93 0.33,-0.77 -0.64,-0.98 -0.23,-0.96 0.89,-0.39 0.66,0.3 0.74,-1.13 0.37,-0.19 -0.04,-2.19 0.6,-1.25 -0.58,-0.39 -0.1,-0.79 -1.31,-2.27 -0.12,-0.53 0.21,-1.17 -0.27,-0.64 0.08,-0.6 -0.48,-0.57 0.22,-0.38 -0.18,-1.36 0.27,-0.54 -0.37,-0.8 0.51,-1.2 -0.23,-1.93 0.32,-1.21 -0.43,-0.87 -0.23,-1.38 0.28,-0.85 -0.14,-1.24 0.38,-0.42 0.13,-1.31 0.77,-1.85 0.82,-0.48 0.29,-0.62 0.56,0.37 0.44,-0.03 0.38,-0.77 1.53,-1.2 0.08,-0.85 0.59,-1.25 -0.43,-0.86 0,-0.82 -1.56,-0.93 -0.88,-0.03 -1.14,-1.65 -0.23,-1.24 -1.97,-1.13 -0.18,-0.96 -0.58,-0.49 -1.41,-0.53 -0.44,-0.42 -0.07,-0.73 -0.47,-0.46 -0.32,-1.92 -0.78,-1.34 -0.41,-1.59 0.14,-0.39 -0.78,-2.28 -0.44,-0.08 -0.39,-0.52 -0.66,-0.03 -0.2,0.62 -1.35,0.33 -0.29,0.48 -0.82,0.45 -0.35,0.12 -0.38,-0.32 -0.43,-1.56 0.18,-1.53 -0.13,-0.84 0.62,-1.32 -0.63,-0.53 0.01,-1.2 0.34,-1.16 -0.24,-1.22 -0.94,-0.43 -1.22,-1.39 -0.43,-1.3 0.18,-1.57 -0.42,-0.6 -0.71,-0.03 -1.5,-1.09 -0.53,-1.05 -1.69,-0.11 -0.81,-1.37 -1.63,-1.19 -0.23,-0.68 0.33,-1.08 -1.43,-0.88 -0.95,0.67 -1.23,0.03 -0.2,-0.78 -1.13,-0.43 -0.14,-0.23 0.17,-0.3 -0.28,-0.36 -1.21,-0.72 -0.13,-1.36 -0.54,-0.03 -0.21,0.61 -1.340002,0.44 -0.7,-1.06 -0.65,-0.09 -1.24,-0.62 -0.85,0.04 -1.1,-1.97 -0.91,-0.13 -1.38,1.65 -0.52,0.18 -0.13,-0.27 0.31,-1.37 -0.28,-0.57 0.27,-0.9 -0.13,-0.16 -0.57,0.15 -1.02,-0.27 -0.45,0.44 -1.08,-0.29 -0.84,0.75 -0.63,-0.63 -1.63,0.86 -0.73,-0.1 -0.41,-0.91 -0.47,0.29 -0.78,-0.31 -0.58,0.3 -0.52,-0.1 -0.76,-1.3 -0.68,-2.28 0.27,-1.03 -0.41,-0.06 -0.76,-1.54 -0.81,-0.52 -0.41,-0.81 -1.35,-1.57 -0.77,0.06 -0.08,-0.43 -0.61,-0.15 -2.01,0.45 -1.99,-0.44 -0.58,-0.66 -0.08,-1.11 0.46,-0.63 -0.08,-0.73 -1.39,-1.2 -0.42,-0.9 -0.81,-0.42 -0.25,-0.79 -1.09,-0.33 -0.47,-0.28 -0.17,-0.41 -2,-0.08 -1.11,-0.46 -0.41,-0.48 -0.73,-0.34 -0.35,-0.47 0.03,-0.7 -0.25,-0.46 0.24,-0.53 -0.48,-1.8 0.17,-1.1 -0.68,-1.42 -0.8,-0.22 -1.32,0.71 -0.77,-0.25 -1.01,-1.74 -0.48,-1.83 -0.5,-0.92 -1.61,-1.03 -0.09,-0.41 -1.1,-0.92 -0.84,-1.36 -1.38,-0.8 -0.22,-0.74 -0.85,-0.87 -0.67,0 0.12,-0.38 -1.03,-0.88 -0.19,-0.08 -0.35,0.5 -0.7,-0.02 -0.03,-0.44 -0.72,-0.2 -0.6,0.14 -0.47,0.55 -0.76,-0.23 0.79,-0.67 -0.83,-1.61 -0.75,-0.33 -0.26,-1.14 0.68,-0.6 0.79,0.16 0.7,-1.65 -0.11,-0.99 -1,-1.43 -0.46,-0.06 -0.88,-0.72 -0.7,-1.890005 -0.5,-0.63 -0.88,-0.85 -1.41,-0.42 -0.74,-0.54 -0.8,0.14 -1.42,-0.22 -1.52,-0.77 -0.42,0.02 -0.78,-0.57 5.52,-5.5 10.89,7.47 1.63,-6.02 -1.65,-1.65 -0.35,-1.68 -1.82,-4.66 0.56,-2.83 2.83,-3.31 5.88,-4.64 11,3.18 3.43,5.99 8.26,12.69 5.97,9.980005 0.61,3.42 4.71,8.15 1.16,9.65 5.05,-2.28 2.040002,1.47 6.39,3.5 7.88,-0.15 3.91,5.35 8.73,-5.57 7.43,-1.17 1.83,-3.94 1.44,-6.2 3.12,-1.5 3.6,0.86 2.9,4.16 2.64,-0.91 -0.14,3.3 1.74,0.7 1.54,1.72 1.53,0.79 9.64,3.05 5.58,3.95 2.49,6.58 1.36,0.59 0.52,-4.82 1.54,-0.68 0.33,0 0.57,0.49 0.66,-0.34 0.2,-0.72 0.33,0.1 0.51,-0.33 0.61,0.6 0.38,-0.27 0.35,-1.1 0.78,-0.34 -0.27,-3.65 0.27,-2.25 0.46,-0.72 -0.23,-0.65 0.03,-2.58 0.36,-1.08 0.19,-2.01 0.56,-1.12 1.29,-0.99 0.4,-0.76 0.64,-0.56 0.43,-1.4 0.94,-1.01 0.42,-0.17 0.34,-0.56 3.25,-2.15 0.06,-0.44 0.28,-0.23 0.36,0.08 2,-1.15 0.38,0.11 0.12,0.51 1.41,1.02 0.56,-0.04 0.93,0.38 1.23,-0.87 0.13,-0.56 0.78,-0.71 0.38,-1.6 0.84,-1.85 0,-0.57 0.62,-1.25 0.03,-1.27 0.37,-0.91 1.52,-1.980005 0.04,-1.07 -0.64,-0.5 -0.22,-0.79 0.13,-1.68 -0.93,-1.97 0.13,-2.17 -0.21,-1.01 0.67,-2.03 -1.5,-5.26 -0.02,-0.74 0.51,-0.67 0.02,-1.22 -0.34,-0.64 0.23,-0.91 -0.18,-1.02 0.89,-0.76 0.02,-0.89 0.39,-0.42 -0.06,-0.44 0.25,-0.41 -0.31,-0.86 0.3,-0.59 -0.16,-1.36 0.51,-0.88 0.07,-1.22 0.59,-0.34 0.19,-1.05 0.97,-0.38 -0.04,-1.4 0.5,-0.7 0.22,-0.9 0.35,-0.06 -0.48,-1.06 -0.57,0.18 -0.08,-0.66 0.35,-0.14 0.01,-0.22 -0.32,-0.29 -0.47,-0.04 -0.07,-0.29 0.47,-0.45 -0.04,-0.66 0.53,-1.21 0.27,-1.59 0.96,-0.88 -0.41,-1.75 0.88,-2.99 -0.28,-0.6 -0.8,-0.74 -0.09,-0.58 1.65,-0.88 1.37,-1.36 1.31,-3.41 -0.49,-0.95 0.09,-1.13 -0.28,-1.34 -0.65,-0.67 -1.09,-0.39 -0.24,-0.4 0.55,-1.27 1.07,-0.82 0.9,-2.03 0.98,-1 1.99,-0.36 1.78,-1 0.69,-0.83 0.41,-1.29 0.91,-0.4 -0.01,-0.88 0.25,-0.51 0.77,-0.43 0.5,-1.23 0.43,-0.11 0.14,-0.28 -0.08,-1.74 2.73,-1.83 0.44,-0.72 0.55,-0.13 0.6,-0.73 1.08,-2.6 0.09,-0.79 -0.29,-1.12 0.89,-0.78 0.55,-0.86 0.31,-1.75 0.9,-0.56 1.96,-0.34 1.82,-0.94 1.95,-0.52 0.26,0.16 0.35,1.16 0.83,0.37 0.54,-0.07 1.65,-1.17 2.03,-0.1 0.04,1.55 0.45,0.88 0.58,0.25 0.91,-0.28 0.61,-0.48 0.97,0 0.77,0.62 0.61,1.2 1.24,0.87 0.79,-0.68 1.12,0.05 1.05,-1.37 0.55,-0.03 2.54,-1.4 2.15,-0.7 0.07,-0.71 -0.31,-0.78 -0.46,-0.39 0.26,-0.63 0.93,-0.7899999 0.6,0.16 0.72,-0.24 1.02,-0.99 0.64,-1.12 0.87,-0.61 2.99,-0.29 0.47,-1.01 -0.04,-1.13 0.49,-1.22 0.51,-0.31 0.17,-0.44 1.19,-0.72 2.25,-0.13 1.09,0.79 0.91,0.32 1.61,-1.16 3.74,-0.96 1.14,-0.49 0.27,0.03 0.18,1.46 z" 
                fill="rgb(151, 144, 238)" 
                stroke="white" 
                stroke-width=".7px"
                title="Lapland" 
                id="FI-10" 
            />
        </svg>