<svg xmlns="http://www.w3.org/2000/svg" viewBox="284.47349 510.82577000000003 103.14000000000016 150.91999999999996" width="103.14000000000016" height="150.91999999999996">
            <path 
                d="m 284.47349,519.87577 3.61,-7.31 -0.51,-0.95 1.86,-0.79 11.89,3.28 4.3,-0.57 8.36,-0.5 7.49,-1.38 5.27,-0.65 1.34,9.5 1.71,3.14 3.12,-3.25 3.17,-0.6 0,0 2.89,3.52 -0.08,0.36 0.38,0.64 1.13,1.04 0.54,0.92 3.5,4 0.61,1.99 4.09,2.82 3.12,5.61 9.79,4.38 1.8,2.01 0.3,0.61 2.16,0.89 0.47,-0.03 0.35,1.46 1.13,2.07 1.28,0.29 2.05,1.54 0.47,0.68 0.62,0.12 0.41,0.47 0.39,0.09 0.81,1.44 2.19,1.64 -0.01,1.64 0.27,0.93 0.28,0.25 0.01,2.65 0.52,2.38 0.78,1.01 2.08,1.51 0.68,0.92 0.22,0.74 0.66,0.46 0.52,-0.03 1.16,1.27 -0.39,1.3 1.68,0.71 2.67,6.12 -4.17,7.78 0.31,0.92 -0.85,-0.06 -1.87,6.56 0.13,1.05 -0.27,0.34 -0.13,1.48 -0.34,0.35 -0.54,0.12 0.1,0.19 -4.03,9.81 -1.19,0.36 0.04,0.44 -0.38,0.4 -0.25,1.03 -0.14,1.45 -0.85,0.35 -6.07,7.29 0.46,0.46 -0.23,1 -0.34,0.47 -1.29,-0.3 -2.16,2.35 -0.8,0.38 -0.07,0.65 -2.78,3.55 -2.01,0 -0.88,1.35 0.19,1.11 -1.01,2.13 -5.04,7.17 0.01,0.26 -2.14,2.27 -0.93,1.47 -1.33,0.88 0.17,1.41 -0.35,0.64 -0.87,0.14 -2,2.74 -0.53,0.1 0.04,0.59 -1.69,2.08 0,0 -0.38,-0.82 -1.14,0.52 -17.16,9.07 0,0 0.38,-0.97 1.36,-1.32 0.79,-0.41 1.2,-2.09 0.44,-2.03 -0.08,-1.01 -0.7,-1.11 0.93,-0.7 -2.55,-3.33 0.03,-1.52 1.41,-2.76 -2.96,-3.23 0.1,-0.42 -2.01,-0.61 -1.55,-2.86 -1.63,-8.11 0.68,-2.48 -1.22,-1.12 -2.57,-5.41 -0.53,-3.91 -0.85,-1.37 -1.21,-0.7 -1,1.1 -0.75,-0.47 -0.5,0.7 0.19,0.81 -1.34,-0.2 -0.4,-0.26 -0.53,-0.69 0.44,-0.57 -0.08,-0.19 -0.81,-0.77 0.74,-3.75 0.4,-0.63 -0.14,-0.18 -0.22,-0.19 -0.84,0.08 -1.35,-1.1 -1.09,-0.29 0.01,-0.18 1.05,-0.27 -0.17,-0.79 -0.77,-0.33 -2.1,-2.07 0.06,-0.81 -2.58,-1.62 -2.32,-2.8 -3.65,-0.61 -0.68,-0.58 0,0 0,0 0,0 0.08,-0.84 1.43,-1.66 -1.88,-2.56 -0.3,-0.96 0.31,-1.08 1.21,-1.17 1.19,0.18 0.97,-1.75 -0.1,-0.95 0.96,-1.12 0.52,-0.36 0.98,0.66 0.3,-0.08 -0.02,0.37 0.58,0.82 1.66,0.88 0.08,0.51 0.91,1.06 0.35,-0.1 0.82,-2.04 4.14,-2.92 -0.79,-0.77 -0.6,-0.41 -0.22,0.18 -0.6,-0.75 -0.56,-0.19 -0.16,-0.28 0.21,-0.32 -0.37,0.07 -0.33,-0.99 -0.68,-0.5 -0.09,-0.54 -0.92,-0.62 -0.24,-1.21 0.11,-0.18 0.89,0.97 0.57,0.08 0.48,-0.27 -0.37,-0.73 0.28,0.07 -0.04,-0.29 -0.91,-0.33 0.45,-0.62 -0.12,-0.29 3.02,-1.82 -0.94,-1.85 -3.67,-1.83 -0.35,-0.57 -0.45,-0.01 -0.32,-0.45 -0.66,-0.31 -0.56,-0.76 0.1,-0.6 -0.76,-1.41 -3.85,-5.31 -0.31,-0.91 -1.4,-0.98 -1.36,-0.49 1.55,-2.61 -0.38,-0.49 0.05,-0.23 0.83,-0.39 0.15,-0.64 0.83,-0.48 -0.12,-0.86 -0.52,-0.01 0.9,-0.61 -0.2,-0.41 0.89,-0.89 0.72,-5.36 -1.73,-1.71 -0.38,0.04 -0.9,-0.9 -0.48,-3.19 -1.47,-4.23 0.29,-0.94 0.67,-0.52 0.53,0.48 1.04,-0.89 -0.42,-0.53 -0.41,0.15 -1.04,-0.49 -0.35,-0.3 0.12,-0.44 -0.35,-0.02 -0.63,-5.96 0.22,-0.78 0.39,-0.38 -0.63,-0.92 -1.12,-0.92 -0.85,0.28 -1.06,-0.04 -0.12,0.23 -0.84,-0.34 -1.15,-1.96 z" 
                fill="rgb(151, 144, 238)" 
                stroke="white" 
                stroke-width=".7px"
                title="North Karelia" 
                id="FI-13" 
            />
        </svg>