<svg xmlns="http://www.w3.org/2000/svg" viewBox="210.3634900000001 499.47576999999995 97.71000000000006 130.9199999999999" width="97.71000000000006" height="130.9199999999999">
            <path 
                d="m 281.72349,526.07577 -0.58,-0.44 -1.45,-2.26 -1.33,-0.58 -0.8,-0.76 -2.66,-4.05 -4.67,-4.99 -0.7,0.11 -3.42,-2.84 -1.28,-1.43 -2.56,-1.09 -0.51,0.27 -3.5,-2.74 -1.9,-0.29 0.48,0.78 -1.51,0.38 -0.61,-0.25 -0.19,-0.54 -0.25,-0.07 0.24,-0.51 -0.21,-0.19 -5.11,-1.75 -3.96,-0.53 -0.41,0.44 -0.23,-0.2 -3.07,-0.35 -4.74,-2.72 0,0 -6.16,3.01 -0.63,-0.51 -0.26,0.27 0.36,0.06 0.1,0.37 -2.46,1.37 -0.67,-0.5 0.41,0.71 -0.96,0.91 -0.31,-0.48 -0.66,0.15 0.27,0.9 -0.17,0.26 -4.74,4.2 -0.19,-0.14 -0.83,0.37 0.24,0.32 -0.1,0.17 -3.96,3.39 0.69,1.89 0.59,4.24 0.2,3.06 -0.44,0.1 -0.04,0.28 0.5,0.06 0.08,0.25 0.79,7.53 -3.12,1.64 -0.21,4.87 -1.59,3.05 0,0 1.2,1.33 -1.76,2.37 -1.57,3.61 0.46,0.11 1.39,1.67 0.41,3.9 1.09,2.54 0.23,1.89 -1.15,0.27 0.56,4.43 0.76,0.89 -0.03,0.99 0.51,0.49 0.49,1.67 0.77,0.93 0,0.28 1.94,1.63 0.8,0.38 0.15,0.53 -3.07,-0.59 -0.52,1.26 2.18,3.07 1.32,-0.07 -0.4,1.28 -1.48,2.75 -0.21,-0.6 -1.31,-1.4 -3.25,0.19 -1.29,0.95 -1.38,0.36 0.88,3.06 3.12,1.26 0.55,0.48 0.01,0.46 -0.93,0.88 1.06,1.44 0.68,-0.37 0.45,0.38 4.25,5.45 1.4,-1.26 -0.26,-0.72 1.67,-0.92 0.91,1.25 1.07,1.91 0.76,2.42 1.12,1.74 0.12,2.06 0.7,0.93 0.27,1.98 -0.69,0.59 0.71,0.94 -0.88,0.15 -0.44,1.52 -0.98,1.64 -0.61,0.65 -0.85,0.01 -0.33,0.96 3.35,2.8 1.8,1.9 1.65,-0.81 0.78,0.7 0,0 1.72,2 2.23,-1.26 -0.51,-0.92 0.51,-0.85 0.4,-0.14 0.41,-0.57 0.44,-0.12 0.25,-0.4 0.22,0.66 0.68,0.77 0.9,0.54 0.59,0.99 0.52,-1.06 -0.73,-1.31 0.56,-0.75 0.16,-0.07 0.81,1.33 2.07,-0.09 0.62,-1.16 0.73,0.19 0.12,-0.71 0.4,-0.23 -0.15,-0.53 1.61,1.69 0.32,1.19 -0.19,0.4 0.84,0.2 -0.14,-0.96 0.62,-0.55 0.22,0.26 -0.42,0.54 0.12,0.32 0.38,-0.13 0.28,-1.16 0.74,0.05 0.02,0.38 0.53,0.73 0.26,-0.12 0.3,0.2 0.56,-1.62 1.11,-0.78 0.67,0.01 -0.3,-0.78 0.5,0.05 0.17,-0.56 -0.79,-0.49 0.55,-0.51 0.65,0.93 0.13,0.78 0.69,0.1 0.25,0.58 1.04,0.83 0.29,0 0.23,0.84 3.33,1.51 1.93,2.09 0.74,1.36 0.98,0.75 0.26,0.96 2.15,0.51 0.3,0.47 -1.12,1.3 0.15,1.17 1.52,0.83 0.93,1.15 0.52,1.11 0.33,0.14 0.52,-0.59 1.17,0.49 -0.05,-0.78 0.81,0.54 1.49,1.78 0.13,-0.41 3.64,2.53 3.64,0 1.98,-0.61 0.76,0 2.13,1.22 1.82,0.3 4.26,1.98 1.97,0 1.07,-1.22 0.46,-0.91 0,-1.52 -4.87,-6.08 -2.89,1.67 -0.6,-0.3 0.15,-1.98 -0.46,-1.52 -1.77,-0.24 0,0 -0.11,-0.66 0,0 0.35,-0.63 -0.26,-0.39 -1.21,-0.68 -0.04,-1.41 -1.21,-0.73 0.21,-0.58 1.08,-0.74 0.36,0.05 0.05,-0.77 -0.69,-0.7 0.43,-0.82 0.49,0.38 0.63,-0.15 1.03,0.79 0.8,-0.07 0.3,-1.62 -0.78,-1.22 0.24,-0.5 0.36,0.1 0.46,-1.6 0.24,-0.14 -0.32,-0.53 -0.01,-0.97 0.47,-0.84 -0.35,-0.49 1.06,0.4 0.34,-0.15 0.67,0.47 0.26,-0.16 1.47,1.24 0.74,-1.38 -1.06,-0.64 -0.48,0.04 -0.76,-0.44 0.02,-0.17 0.23,-0.18 1.81,0.27 0.77,-0.84 0.57,1.13 0.81,-0.54 0.66,-0.82 0.05,-0.4 -0.87,-0.32 1.11,-0.74 0.4,-2.05 0.29,-0.48 0,0 0.08,-0.84 1.43,-1.66 -1.88,-2.56 -0.3,-0.96 0.31,-1.08 1.21,-1.17 1.19,0.18 0.97,-1.75 -0.1,-0.95 0.96,-1.12 0.52,-0.36 0.98,0.66 0.3,-0.08 -0.02,0.37 0.58,0.82 1.66,0.88 0.08,0.51 0.91,1.06 0.35,-0.1 0.82,-2.04 4.14,-2.92 -0.79,-0.77 -0.6,-0.41 -0.22,0.18 -0.6,-0.75 -0.56,-0.19 -0.16,-0.28 0.21,-0.32 -0.37,0.07 -0.33,-0.99 -0.68,-0.5 -0.09,-0.54 -0.92,-0.62 -0.24,-1.21 0.11,-0.18 0.89,0.97 0.57,0.08 0.48,-0.27 -0.37,-0.73 0.28,0.07 -0.04,-0.29 -0.91,-0.33 0.45,-0.62 -0.12,-0.29 3.02,-1.82 -0.94,-1.85 -3.67,-1.83 -0.35,-0.57 -0.45,-0.01 -0.32,-0.45 -0.66,-0.31 -0.56,-0.76 0.1,-0.6 -0.76,-1.41 -3.85,-5.31 -0.31,-0.91 -1.4,-0.98 -1.36,-0.49 1.55,-2.61 -0.38,-0.49 0.05,-0.23 0.83,-0.39 0.15,-0.64 0.83,-0.48 -0.12,-0.86 -0.52,-0.01 0.9,-0.61 -0.2,-0.41 0.89,-0.89 0.72,-5.36 -1.73,-1.71 -0.38,0.04 -0.9,-0.9 -0.48,-3.19 -1.47,-4.23 0.29,-0.94 0.67,-0.52 0.53,0.48 1.04,-0.89 -0.42,-0.53 -0.41,0.15 -1.04,-0.49 -0.35,-0.3 0.12,-0.44 -0.35,-0.02 -0.63,-5.96 0.22,-0.78 0.39,-0.38 -0.63,-0.92 -1.12,-0.92 -0.85,0.28 -1.06,-0.04 -0.12,0.23 -0.84,-0.34 -1.15,-1.96 -2.11,-2.15 z" 
                fill="rgb(151, 144, 238)" 
                stroke="white" 
                stroke-width=".7px"
                title="Northern Savonia" 
                id="FI-15" 
            />
        </svg>