<svg xmlns="http://www.w3.org/2000/svg" viewBox="135.06349000000026 312.41577 206.2600000000002 230.7899999999998" width="206.2600000000002" height="230.7899999999998">
            <path 
                d="m 162.75349,425.09577 0.82,-0.34 0.54,-1.26 1.76,-1.74 1.22,0.1 0.77,-0.34 1.59,0.3 2.34,-1 0.76,0.24 0.89,0.86 0.38,0.81 -0.47,-0.03 0.04,0.84 0.51,0.02 0.13,-0.28 0.6,0.26 0.97,-0.17 0.96,0.45 1.4,-0.09 0.52,0.24 0.47,0.71 -0.28,0.4 -0.92,0.51 -1.37,0.06 -0.71,-0.29 -1.07,0.05 -0.09,-0.56 -0.2,0.05 -0.43,-0.48 -1.3,-0.07 -0.64,-0.46 -0.8,0.36 -0.53,-0.07 -0.2,0.49 0.18,0.12 1.05,-0.48 -0.38,0.67 0.08,0.62 0.19,0.15 0.4,-0.3 0.17,0.9 0.5,0.11 0.28,0.71 0.21,0.02 -0.1,0.25 0.28,0.54 -0.34,0.93 0.17,1.56 -0.38,0.08 -0.15,0.34 -0.24,-0.15 -0.96,0.97 -0.89,0.32 0.13,0.35 -0.2,0.07 -0.7,-0.3 0.14,-0.11 -0.43,-0.33 0.14,-0.24 -0.77,-0.34 0.12,-0.68 -0.22,-0.38 0.57,0.02 -0.15,-0.6 -0.33,0.26 -1.17,0.06 0.1,0.23 0.8,0.33 -0.81,0.4 -1.37,0.05 -0.25,0.2 -0.59,-0.43 -0.6,-0.75 0.17,-0.39 -0.15,-0.37 -0.89,-0.67 -0.41,-0.67 0.01,-0.33 0.3,0.04 -0.48,-0.61 0.23,-0.33 -0.45,-0.35 -0.05,-0.85 -0.42,-0.21 z m 22.29,-22.38 -0.31,-0.15 -0.18,0.25 0.13,0.17 0.36,-0.27 z m 152.64,-49.19 -0.86,-0.96 -0.17,-3.36 -0.24,-0.17 -0.37,-1.24 0.18,-0.27 -0.28,-0.23 -1.38,-6.3 -6.92,-11.2 -0.44,-0.08 0.3,-0.44 -0.27,-0.28 -1.97,-6.66 -2,-5.67 0,0 -10.01,0.06 -0.1,1.9 -17.9,-6.21 -0.95,5.8 -1.53,0.03 -0.49,0.28 -0.41,-0.35 0.22,1.15 -0.45,-0.01 -0.29,1.44 -0.8,-0.02 -0.05,2.33 0.18,0.65 -0.22,0.94 -0.22,0.1 1.66,5.03 0.39,0.28 1.15,-0.13 0.17,1.13 0.53,0.32 0.75,-1.11 0.86,0.05 1.13,0.45 -0.19,0.67 0.55,0.7 -0.07,0.95 -0.64,0.49 0.41,0.4 -0.43,0.73 1.05,1.69 -1.66,1.88 -0.08,1.97 -0.86,0.68 -2.59,-0.02 0.63,2.87 0.55,0.41 -0.43,1.12 2.06,0.76 0.29,0.66 0.49,0.08 0.04,0.65 0.76,-0.53 0.6,0.54 -0.87,0.48 -0.1,0.34 0.19,0.57 0.31,0.17 -0.07,1.72 -2.28,0.13 -0.71,1.04 -1.72,-0.07 -0.05,-0.92 -1.62,-0.74 -0.08,0.42 -1.9,0.03 -0.07,1.04 -2.19,0.24 -0.02,-0.92 0.64,-0.73 -0.35,-0.09 -0.26,0.3 -1.32,0.25 -0.02,0.26 0.54,0.2 0.02,1.15 0.29,0.13 -0.22,0.85 -0.55,-0.19 -0.19,0.24 0.11,0.6 1.92,1.11 0.85,2.22 1.53,2.1 0.2,3.5 -1.57,0.1 -7.68,3.41 -1.88,-0.48 -0.63,-0.56 -7.43,-0.55 -0.2,-0.59 -0.39,0.05 0,0.17 0.36,0.05 -0.12,0.3 -4.42,-0.33 0.17,-0.79 0.84,0.16 0.04,-0.43 0.37,-0.27 -0.06,-0.4 -0.33,0.02 -0.35,0.79 -0.59,-0.22 -2.34,-4.62 -1.27,-4.64 -1.09,0.24 -0.16,0.27 -0.56,-0.08 -0.71,0.95 -0.37,1.07 -0.78,0.27 -3.02,-2.87 -1.04,1.54 0.24,0.44 -0.19,0.13 -0.3,-0.2 -4.86,7.45 -0.23,-0.14 -0.32,0.19 0.2,0.44 -0.36,0.56 -0.18,-0.18 -0.03,0.49 -1.95,3.07 0.08,0.34 0.31,0.16 -0.44,0.22 -0.21,-0.33 -1.45,2.24 -0.59,0.28 0.25,0.48 -0.86,0.9 -1.2,-0.66 -0.9,0.42 -0.01,0.81 0.43,0.03 0.01,0.63 -1.17,0.09 -0.14,-1.18 -4.38,2.01 -0.58,0.09 -4.27,-0.56 -0.14,0.19 -0.08,-0.24 -0.19,0.71 -0.64,-0.77 -8.77,-0.29 -7.13,-0.87 -0.04,-7.56 -11.71,6.31 -11.85,-0.15 -2,1.14 -1.65,3.25 -2.52,1.36 -1,1.16 -0.24,-0.12 -1.95,3.7 -1.45,1.47 0,0 -0.07,1.1 0.19,0.56 0.2,-0.44 0.46,-0.14 0.04,0.39 0.21,0.07 0.02,0.29 -0.17,-0.03 0.13,1.16 0.29,-0.4 -0.07,-0.4 0.2,-0.15 0.12,0.39 0.14,-0.57 0.4,-0.43 0.36,0.15 -0.11,0.38 0.21,0.08 0.48,-1.67 -0.2,1.37 0.51,0.47 0.56,-0.23 0.34,0.29 -0.42,0.25 0.23,0.25 -0.06,0.73 0.76,0.65 0.16,-0.14 0.57,1.27 0.4,0.31 -0.2,0.39 0.75,0.62 -0.17,0.6 0.21,0.08 0.32,0.95 0.12,-0.25 0.51,-0.11 0.13,0.24 0.12,-0.2 0.43,0.56 -0.6,0.16 0.37,0.52 -0.18,0.22 0.56,0.32 0.32,0.66 -0.06,0.15 -0.78,-0.14 0.11,0.49 -0.19,0.08 0.85,0.35 0.09,0.28 -0.7,-0.07 0.87,0.51 0.23,0.71 -0.13,0.25 -0.74,0.02 -0.32,0.38 0.18,0.2 -0.23,0.54 -0.31,-0.08 -0.46,0.58 -0.31,-0.13 -0.27,-0.62 -0.73,0.05 -0.09,0.63 0.34,0.51 -0.15,0.28 0.51,0.2 0.37,0.51 -0.12,0.21 -0.7,-0.22 0.28,0.52 -0.5,0.12 0.01,0.33 1,-0.25 0.75,0.15 0.65,0.67 -0.13,0.18 0.21,0.57 -0.94,0.21 -0.65,-0.36 -0.36,0.18 0.31,1.02 -0.07,0.16 -0.37,-0.23 -0.06,0.21 -0.73,0.04 0.22,1.09 -0.31,0.22 1.35,0.71 -0.18,0.1 0.35,0.56 0.8,0.67 0.02,0.31 -0.29,0.22 -0.64,-0.26 0.17,0.57 -0.33,0.35 -0.5,0.09 -0.06,0.39 0.14,0.27 0.52,-0.24 0.96,0.05 0.57,0.41 0.13,0.4 -0.76,-0.02 -0.11,0.66 -0.57,0.39 0.94,0.16 -0.04,0.34 0.43,-0.11 0.32,0.64 -0.35,-0.09 -0.23,0.2 -1.39,-0.63 -0.29,0.14 0.11,0.29 0.2,-0.1 0.05,1.01 -0.68,-0.26 -0.22,0.3 0.44,0.53 0.46,-0.1 0.34,0.34 -0.33,0.15 -0.14,0.79 -0.48,-0.21 -0.13,0.21 0.04,0.39 0.28,-0.05 -0.11,0.24 0.39,0.43 -0.15,0.66 -0.88,0.44 -0.49,-0.38 -0.19,0.29 0.36,2.52 -0.34,0.74 0.3,0.18 0.22,-0.17 1.74,0.27 -0.05,0.27 0.5,-0.02 0.84,1.12 0.82,0 0.6,0.56 -0.31,0.6 0.33,0.25 0.24,1.32 0.59,0.7 -0.39,-0.08 -0.09,0.29 0.35,0.17 0.05,0.52 0.43,0.52 -0.18,0.03 -0.12,0.7 0.13,1.5 -0.58,0.07 -0.1,0.45 0.67,1.04 0.83,0.23 0.21,0.36 1.22,0.69 0.08,1.46 -0.84,0.64 -0.73,-0.11 -0.3,0.26 -0.48,-0.3 -0.25,-0.84 -0.61,-0.08 -1.12,-0.82 -0.35,-0.91 -0.47,-0.47 -0.32,0.12 -1.31,-0.6 -0.14,0.27 -0.38,-0.24 -0.09,-0.5 -0.73,0.08 -1.25,-0.57 0.92,0.88 -0.38,0.34 0.07,0.93 -0.61,0.16 0.65,2 1.83,1.53 0.52,0.81 1.53,1.1 0.78,-0.47 0.62,0.2 0.1,0.39 -0.21,0.02 0.45,0.17 -0.04,0.23 0.35,0.2 -0.16,0.08 0.21,0.42 -0.35,0.11 0.34,0.2 -0.02,0.21 -0.69,0.21 -0.46,1.12 0.06,0.53 -0.43,-0.11 0.13,0.62 -0.34,0.21 0.55,0.37 -0.69,0.08 -0.02,0.5 -0.44,0.14 -0.08,0.47 -1.29,0.08 -0.16,-0.13 0.13,-0.13 -0.45,-0.06 0.67,-0.22 0.09,-0.38 -0.46,-1.09 0.6,0.08 -0.03,-0.2 -1.27,-1.25 -0.52,0.16 0.21,0.32 -0.17,0.12 -0.33,-0.42 -0.46,0.15 -0.28,-0.76 -0.46,-0.29 -0.04,-0.61 0.35,0.13 -0.16,-0.76 -0.96,-0.44 -0.57,0.98 -0.71,-0.89 -0.02,-1.13 -0.56,0.11 -0.62,-0.36 -0.17,0.54 -0.64,0.3 -1.19,0.24 -0.84,-0.35 -1.25,0.54 0.04,1.08 -0.37,0.41 -0.24,-0.04 -0.04,0.3 -0.74,0.08 -0.93,-0.21 -0.19,-0.25 -1.25,0.29 -1.1,-0.56 0.19,0.21 -0.66,0.53 -0.12,0.37 -2.05,0.34 -0.34,0.81 0.58,0.75 0.02,0.69 -0.16,0.11 -0.21,-0.62 -0.6,-0.34 -0.4,0.2 -0.23,0.6 -0.35,0.07 -0.22,1.28 0.22,0.76 -0.3,0.27 -0.12,0.62 -0.64,-0.41 0.05,-1.15 0.19,-0.19 -0.28,-0.56 -1.03,0.23 -0.26,0.29 -2.06,0.83 0.3,1.09 0.57,0.15 0.38,0.89 -0.06,1.04 -0.23,0.14 -0.58,-0.2 0.32,0.55 -0.21,0.54 0.22,0.15 0,0.39 -0.23,0.2 0.52,0.43 0.07,0.94 -0.07,-0.22 -0.51,1.1 -0.36,0.01 -0.24,0.47 -0.29,0.09 -0.36,-0.24 -0.54,0.37 0.41,-0.01 0.11,0.28 -0.57,0 0.24,0.37 -0.59,0.27 0.01,-0.25 -0.43,-0.13 -0.28,0.52 -0.64,0.09 -0.15,0.2 0.41,0.08 -0.12,0.13 0.27,0.27 0.09,-0.4 0.33,-0.13 -0.14,0.69 -1.95,1.22 0.1,0.5 0.43,0.08 -0.5,0.15 -0.14,1.14 -0.63,0.57 0.18,0.12 0.44,-0.42 0.85,-0.21 -1.06,1.16 -0.46,0.78 0.06,0.33 -0.74,0.45 0.73,0.12 -0.12,0.22 -0.3,-0.16 -0.04,0.23 0.41,0.1 -0.54,0.3 0.57,0.45 -0.08,0.55 -0.47,0.17 0.1,0.74 -0.36,-0.02 0.52,0.48 0.17,0.58 -0.3,0.76 -0.47,0.26 -0.02,0.47 -0.5,-0.15 -0.15,0.37 -0.75,0.04 0.04,0.28 -0.24,0.07 -0.52,-0.11 -0.42,-0.91 -0.3,0.26 -0.59,-0.19 0.06,0.46 0.48,0.46 -0.01,0.63 0.43,0.27 0.21,-0.1 -0.12,0.6 0.51,0.36 -0.85,0.28 -0.08,-0.61 -0.43,-0.18 0.16,0.24 -0.33,0.05 0.35,0.3 -0.97,0.13 0.2,0.21 -0.24,0.67 0.14,0.29 0.52,0.12 0.03,1.04 0.86,0.29 0.16,0.74 -1.74,-0.73 -0.23,-1.37 -0.44,-0.36 -0.14,0.32 -0.22,-0.01 0.3,0.39 -0.15,0.36 -0.24,-0.02 -0.02,0.33 -0.28,0.16 -0.22,-0.04 0.38,0.22 -0.15,0.38 -0.92,-0.09 -0.27,0.44 -0.44,-0.18 0.12,0.42 -0.4,0.03 -0.2,0.81 -0.38,-0.29 -0.32,0.14 -0.2,-0.24 -0.2,0.08 0.61,0.49 -0.34,0.21 0.42,0.5 -0.12,0.5 -1.16,0.65 -1.07,-0.25 0.05,0.67 0.25,0.21 -0.61,-0.28 0.17,0.61 -0.33,0.1 0.18,0.22 -0.62,-0.01 -0.1,1.11 -0.17,0.36 -0.24,-0.07 0.15,0.44 -0.24,-0.04 0.24,0.42 -0.28,0.13 0.34,0.21 -0.03,0.2 -0.28,0.41 -0.79,0.21 -0.39,0.6 -0.45,-0.13 -0.28,0.55 -0.09,3.23 -0.42,0.24 -1.5,0.14 0.11,-0.13 -0.65,-0.56 0.02,0.36 0.13,-0.13 0.09,0.17 -0.44,1.41 0.42,0.64 -0.3,-0.09 -0.5,-0.91 0.15,0.44 -0.31,0.7 0.45,-0.24 0.27,0.58 -0.45,0.15 -0.52,1.13 -0.4,0.05 -0.27,0.44 -0.36,-0.06 -0.79,0.71 -0.83,-0.13 -0.27,-0.25 0.07,0.18 -0.18,0.02 -0.19,-0.31 -0.11,0.38 -0.27,-0.32 0.02,0.25 -0.37,0.26 0.69,0.21 -0.35,0.2 0.03,0.56 0.88,1.29 -0.38,0.7 -0.43,-0.04 -0.05,0.34 -0.27,-0.18 0.19,0.48 0,0 1.45,1.04 0.54,-0.01 0.21,0.51 0.72,0.36 -0.06,0.5 0.21,0.11 -0.42,0.42 0.14,0.47 0.18,0.01 0.52,-0.91 1.39,1.11 0.2,-0.02 -0.01,-0.38 0.53,0.24 0.1,-0.23 0.14,0.49 0.91,0.42 0.08,-0.14 1.25,0.74 -0.16,0.58 1.86,0.42 2.61,1.55 0.45,4.76 2.46,4.77 1.31,0.49 0.25,1.15 -0.18,0.12 0.34,0.41 0.57,2.44 1.16,1.03 4.51,1.72 4.31,10.71 1.88,2.9 4.22,2.67 2.11,1.82 3.19,4.62 3.75,4.66 0,0 1.5,-0.67 0.98,-2.37 0.9,-5.28 3.54,-2.76 7.54,5.77 1.65,0.61 5.22,0.3 2.09,0.87 1.39,0.98 2.72,3.87 3.25,0.77 4.56,-2.03 0,0 0,0 0,0 1.59,-3.05 0.22,-4.87 3.11,-1.64 -0.79,-7.53 -0.08,-0.25 -0.49,-0.06 0.04,-0.28 0.44,-0.09 -0.2,-3.07 -0.59,-4.24 -0.69,-1.89 3.96,-3.39 0.11,-0.17 -0.24,-0.31 0.83,-0.37 0.19,0.13 4.73,-4.2 0.17,-0.25 -0.27,-0.9 0.66,-0.15 0.31,0.48 0.97,-0.9 -0.41,-0.71 0.67,0.5 2.45,-1.37 -0.1,-0.38 -0.35,-0.05 0.25,-0.28 0.63,0.52 6.16,-3.01 0,0 0,0 0,0 -2.89,-1.55 -0.37,-15.07 -1.74,-0.29 -0.81,-0.6 0.04,-2.58 -0.28,-0.38 -4.05,-0.37 -2.82,-2.5 -0.12,-0.77 0.64,-0.76 -0.5,-0.57 0.36,0.1 -0.23,-0.61 0.4,0.13 -0.15,-0.72 0.17,-0.16 -0.29,-0.12 -0.38,0.34 -1.08,-2.37 -4.27,-3.72 1.15,-1.4 -0.3,-0.55 0.83,-0.16 -0.21,-0.68 0.65,0.31 3.26,-3.88 2.77,0.45 -0.49,-1.22 0.76,-0.35 0.25,0.54 0.46,0.19 -0.07,-1.41 0.79,-1.71 0.27,0.05 1.41,-1.12 -0.06,-1 -0.57,-0.52 0.58,-0.55 0.32,0.43 0.33,0.01 0.4,-0.35 0.12,0.15 -0.05,0.29 -0.62,0.37 0.79,1.01 0.29,-0.24 -0.49,-0.34 0.77,-0.42 -0.08,-0.28 0.76,-0.34 0.26,0.43 3.19,-1.31 0.65,-2.08 0.87,0.33 -0.26,-0.49 0.17,-0.41 0.31,0.12 0.22,-0.27 -0.03,-0.4 -0.29,-0.06 0.05,-1.08 0.33,-0.07 0.15,-0.58 -0.48,-0.49 0.53,-1.82 7.59,-5.68 1.2,0.26 0.61,0.52 0.34,-0.22 4.49,1.22 0.72,-1.42 -0.21,-0.04 -0.25,-0.84 1,-0.26 0.3,-0.68 -1.04,-2.62 1.1,-2.76 -0.14,-0.64 -0.66,-0.45 0.5,-0.38 -0.27,-0.91 -1.62,-2.15 -0.43,-0.14 -0.15,-0.58 -1.74,-2.37 2.11,-4.79 3.96,0.27 3.74,-0.52 1.09,-0.74 -0.03,-0.24 0.4,0.01 1.67,-1.1 1.16,0.38 0.36,-0.1 1.98,0.86 0.48,-0.83 -0.14,0.91 3.38,1.08 1.32,-5.98 0.32,0.13 -0.27,-0.24 0.04,-0.3 0.8,0.52 -0.01,-0.2 -0.61,-0.23 0.6,-0.55 -0.09,-0.3 -0.33,0.41 -0.29,0 0.25,-1.87 2.75,-2.6 7.37,-1.63 0.44,0.46 0.31,-0.58 4.93,-0.95 0.15,-0.2 0.74,0.07 0.4,-0.75 0.35,0.15 -0.47,0.54 0.19,-0.03 0.13,0.55 0.51,0.13 -0.39,-0.24 -0.07,-0.47 3.2,-0.6 0.23,-0.21 0.43,-1.58 -0.2,-0.33 0.76,-3.19 0.86,-1.38 -0.27,-1.34 5.02,-2.19 -0.86,-0.22 0.04,-0.18 0.49,0.08 0,-0.4 0.34,-0.05 0.17,0.66 4.72,-2.11 2.76,0.78 2.45,-0.9 0.85,-0.06 -0.78,-0.05 0.9,-0.92 0.92,0.22 -0.35,-0.36 -0.46,-0.02 0.96,-1 0.26,0.27 0.07,-0.66 0.82,-0.84 -0.14,-1.92 3.36,-0.2 5.81,2.46 0.72,-0.25 -0.02,-0.51 0.88,-0.51 5.11,0.94 1.38,-0.29 0,0 3.49,-4.89 -3.5,-3.78 -1.02,-2.15 9.37,-4.58 0.89,0.74 3.06,1.37 -0.11,-2.08 -2.19,-15.78 -1.34,-5.28 z" 
                fill="rgb(151, 144, 238)" 
                stroke="white" 
                stroke-width=".7px"
                title="Northern Ostrobothnia" 
                id="FI-14" 
            />
        </svg>