<svg xmlns="http://www.w3.org/2000/svg" viewBox="50.713488000000005 507.21577000000036 86.15000199999994 138.6599999999995" width="86.15000199999994" height="138.6599999999995">
            <path 
                d="m 54.993488,620.33577 0.27,-1.38 0.43,-0.65 -0.29,1.62 -0.41,0.41 z m 1.41,-4.36 0.32,-0.04 -0.02,0.61 0.3,-0.01 0.12,0.23 -0.13,1.75 0.18,0.66 -0.27,-0.11 -0.1,0.85 -0.25,-0.13 0.16,-0.47 -0.39,-0.45 -0.04,0.64 -0.28,0.19 -0.12,-0.26 0.12,-2.61 0.4,-0.85 z m -1.08,1.28 0.02,0.79 -0.46,0.24 0.3,-1.52 0.76,-1.27 -0.21,2.62 -0.11,-0.94 -0.3,0.08 z m 0.15,-3.41 0.39,0.86 -1.08,2.85 -0.21,-0.3 0.11,-0.99 0.44,-1.16 0.26,-0.02 -0.11,-0.83 -0.48,0.37 0.64,-0.93 0.04,0.15 z m -4.08,-10.79 0.73,0.76 -0.48,2.11 0.28,0.01 0,0.59 -0.19,-0.19 -0.44,0.15 -0.58,-1.58 0.68,-1.85 z m -0.53,-11.34 0.71,-0.01 0.44,1.19 -0.21,0.96 -0.38,0.06 -0.01,0.41 -0.41,-0.13 -0.23,-0.58 0.09,-1.9 z m 3.94,-8.81 1.3,0.75 0.31,-0.31 0.23,0.13 -0.46,1.51 -1.44,0.55 -0.92,-0.06 -0.15,0.25 -0.37,-0.34 -0.57,0.39 -0.63,-0.24 0.08,-0.55 0.13,0.18 0.33,-0.32 -0.26,-0.36 0.92,-0.33 0.24,-0.64 1.26,-0.61 z m -0.02,-4.16 0.62,0.67 0.34,-0.06 -0.24,0.36 0.53,0.41 0.56,1.02 0.21,2.05 -0.51,-0.69 -0.67,-0.31 0.23,-0.73 -1.28,-1.46 0.21,-1.26 z m 7.01,-2.16 -0.33,0.29 0.21,0.48 0.17,-0.19 0.32,0.15 -0.29,0.31 0.17,0.21 0.35,-0.07 -0.17,0.41 0.18,0.34 -0.2,0.32 -0.33,-0.09 -0.11,-0.37 -0.47,-0.21 -0.46,0.5 -0.5,-0.4 -0.09,-0.39 1.18,-1.37 0.37,0.08 z m -7.95,-3.72 1.64,1.59 0.3,-0.06 -0.04,1.24 0.38,1.72 -0.45,0.39 -0.25,-0.95 -0.4,-0.04 -0.2,0.25 -0.07,0.83 -0.28,-0.22 -0.27,0.12 -0.77,-0.97 0.1,-1.14 0.29,0.15 -0.16,0.43 0.24,0.34 0.33,-0.43 -0.25,-0.72 -0.39,-0.09 -0.18,-0.82 -0.47,-0.72 0.36,-0.43 0.32,0.08 0.22,-0.55 z m 6.17,0.14 0.44,0.07 0.7,0.64 0.09,0.7 -1.02,-0.69 -0.07,0.3 -0.28,-0.16 0.12,-0.46 0.25,-0.04 -0.5,-0.27 -0.13,0.22 -0.12,-0.52 0.34,-0.09 0.18,0.3 z m 1.35,-0.55 1.05,0.54 -0.2,0.06 0.29,0.81 -1.34,-0.48 -0.13,-0.81 0.33,-0.12 z m -5.92,-0.57 0.27,0.16 -0.25,0.2 0.42,0.29 0.13,0.8 0.37,-0.58 0.12,0.58 -0.14,0.46 -0.37,-0.08 -0.42,0.37 -0.28,-0.17 -0.16,-0.56 -0.21,0.05 -0.11,-0.84 0.58,-0.09 -0.21,-0.58 0.19,-0.18 0.07,0.17 z m 5.58,-1.4 -0.04,0.37 0.41,-0.11 0.24,0.23 0.23,-0.3 0.17,0.52 0.74,0.48 0.81,-0.2 -0.81,1.44 -0.63,-0.23 -0.04,-0.16 0.26,0.06 0.13,-0.23 -0.12,-0.18 -0.19,0.18 -0.5,-0.08 -1.3,-0.66 -0.02,-0.35 -0.44,-0.49 1.1,-0.29 z m 2.12,-2.67 0.48,1.08 -0.26,0.68 -0.27,0.07 0.27,0.87 0.31,0.21 -0.95,0.84 -0.92,-1.12 0.62,-0.54 -0.64,-0.17 0.41,-0.93 0.32,-0.24 -0.09,-0.73 0.72,-0.02 z m 4.6,-0.91 0.28,0.5 -0.4,0.4 -0.83,-0.12 0.3,-0.68 0.33,0.01 -0.11,-0.45 0.43,0.34 z m -9.77,-11.99 0.24,0.21 0.25,-0.11 -0.03,0.39 0.42,0.05 0.15,0.36 -0.22,0.27 -0.86,-0.21 -0.2,-0.34 0.32,0 -0.07,-0.62 z m 14.5,-3.36 0.1,-0.19 1.12,1.17 -0.07,0.21 0.46,0.2 -0.17,0.55 0.34,0.06 -0.29,0.16 0.08,0.48 -0.24,-0.07 -0.14,0.35 -0.38,0 -0.25,-0.31 -0.18,0.11 -0.78,-1.19 -0.15,-0.79 0.2,-0.17 -0.5,-0.64 0.28,-0.14 0.06,0.26 0.51,-0.05 z m -15.91,-0.54 0.49,-0.01 -0.06,0.49 0.19,0.11 -0.37,0.29 0.08,0.26 -0.34,0.06 0.14,0.55 0.56,-0.08 0.27,-1.14 0.25,0.18 -0.17,0.28 0.24,0.01 0.11,0.65 -0.34,0.2 -0.09,0.66 -0.47,-0.21 -0.42,0.99 -0.33,0 -0.27,1.65 0.08,0.47 0.44,0.47 0.64,-0.35 0.2,0.33 0.49,-0.27 -0.3,-0.18 -0.11,-0.47 0.25,-0.12 0.44,0.45 1.05,0.25 0.15,-0.83 -0.3,-0.11 0.88,-0.52 0.04,-0.19 -0.21,-0.03 0.45,-0.48 0.14,0.41 0.69,-0.43 -0.08,-0.65 0.21,0.33 0.39,-0.27 0.03,0.3 1,0.31 -0.19,0.4 0.37,0.09 -0.02,0.29 0.43,0.28 0.47,0.92 -0.39,0.37 0.13,0.82 -0.19,0.4 0.57,0.66 -0.1,0.64 -1.12,0.1 -0.47,-0.45 0.4,1.39 -0.56,-0.62 -0.25,0.63 -0.69,0.03 0.15,-1.64 0.5,-0.26 -1.06,0.15 -0.2,0.29 0.17,0.81 -0.31,-0.22 -0.66,1.45 -0.73,0.04 0.17,0.37 0.7,-0.18 -0.14,0.56 -0.31,0.22 0.3,0.5 -0.46,-0.2 -0.36,0.45 -0.86,-0.08 -1.44,-0.93 0.1,-1.03 -0.38,-0.93 -0.49,0.87 -0.84,-0.07 -0.04,0.32 -0.41,-0.21 -0.46,-1.09 0.18,0.01 0.11,-0.34 -0.17,-0.16 -0.14,0.2 -0.41,-0.59 0.2,-0.21 -0.12,-0.51 0.35,-0.03 -0.11,-0.46 -0.4,-0.36 -0.7,-1.8 -0.26,0.08 0.31,-0.84 0.35,0.04 -0.02,-0.2 -1.29,-0.59 -0.07,-0.24 0.1,-0.35 0.24,-0.05 -0.32,-0.7 0.05,-0.58 0.65,0.26 0.04,0.76 0.29,0.3 0.15,-0.19 1.01,0.57 0.18,-0.29 0.16,0.31 0.49,0.09 0.16,-0.33 -0.23,-1.02 0.3,-0.23 0.3,0.25 -0.11,-0.21 0.67,-0.78 0.01,-0.32 0.35,-0.17 0.33,0.18 z m 14.72,-0.59 0.5,0.38 0.02,0.25 -0.27,0.16 0.05,0.38 -0.38,-0.13 0.08,1.06 0.36,0.23 -0.08,0.33 0.41,0.56 -0.55,-0.45 -0.02,-0.33 -0.57,-0.24 0.03,0.53 -0.36,0.36 0.29,0.48 -0.2,1.36 -0.11,0.19 -0.58,-0.02 -0.22,-0.45 -0.23,-0.02 0.09,-0.74 -0.36,-0.86 0.11,-0.29 0.32,0.04 -0.21,-0.41 -0.36,-0.06 0.26,-0.4 0.67,-0.29 0.19,-1.18 0.74,0.08 0.38,-0.52 z m 17.8,-0.04 -0.03,0.31 0.27,0.08 -0.22,0.11 0.04,0.93 -0.28,-0.57 0.14,-0.99 0.08,0.13 z m -0.96,-0.83 0.46,-0.04 -0.01,0.33 0.19,-0.01 -0.15,0.56 0.12,1.94 -0.34,0.53 -0.2,1.23 -0.22,0.07 -0.2,-0.23 -0.13,0.4 -0.19,-0.01 -0.7,-0.5 -0.32,0.04 -0.19,-0.79 -0.4,0.11 0.13,0.35 -0.66,-0.15 1.06,0.65 -0.16,1.58 -0.5,-0.23 0.09,0.41 -0.59,-0.49 -0.22,0.03 0.06,0.24 -0.4,-0.11 -0.31,-0.46 -1.46,-0.23 0.17,-0.31 0.81,-0.11 -1.32,-0.96 0.09,0.49 -0.56,-0.19 -0.21,0.19 -0.46,-0.26 -0.6,0.33 -0.3,-0.23 -0.29,0.14 0.06,-1.4 0.5,-1.6 0.36,0.09 0.07,0.46 0.43,0.04 0.16,0.43 0.28,-0.41 -0.22,-0.38 -0.82,-0.43 0.25,-0.42 0.04,0.25 0.23,-0.1 0.13,-0.4 0.29,0.02 0,0.36 0.36,0.09 -0.06,0.37 0.48,0.32 0.38,0.86 0.1,0.7 -0.18,0.37 0.47,0.09 0.38,-0.11 -0.08,-0.26 0.35,-0.15 -0.57,-0.62 0.02,-0.63 -0.22,0.02 -0.3,-0.45 -0.01,-0.73 0.31,0.58 0.69,-0.54 -0.04,-0.2 0.5,-0.19 0.55,0.11 0.11,0.55 0.52,-0.46 -0.15,0.32 0.27,0.21 -0.32,0.08 0.33,0.56 0.5,-0.65 0.37,0.34 0.47,0 0.07,0.7 0.53,-0.54 0.02,-1.1 0.3,-0.46 z m -28.06,-2.13 0.95,0.07 0.4,0.28 0.32,-0.35 0.93,0.3 -0.51,0.4 0.33,0.82 -0.29,0.36 0.12,0.27 -0.83,0.78 0.27,0.43 -0.33,0.86 0.21,0.12 -0.72,0.47 -1.08,1.49 -0.39,-0.19 0.3,-0.52 -0.15,-0.04 0.46,-0.43 -0.25,-0.19 0.07,-0.48 0.4,-0.04 0.23,-0.31 -0.42,-0.06 0.29,-0.39 -1.2,0.14 -0.44,0.38 0.01,0.31 -0.26,0.06 0,-0.16 -0.45,0 -0.03,-0.26 -0.02,-0.79 0.41,-0.5 -0.65,0.03 -0.07,-0.3 -0.97,0.41 -0.26,-0.11 0.78,-0.51 -0.31,-0.59 0.47,-0.8 -0.35,-0.17 0.53,-0.13 0.09,0.41 0.34,-0.03 0.92,-0.81 0.77,-0.3 0.38,0.07 z m 21.72,-1.5 0.22,0.66 0.57,-0.79 0.42,0.29 0.1,-0.17 0.42,0.12 -0.13,0.23 0.72,-0.03 0.25,0.68 -0.72,-0.17 0.1,0.29 -0.27,0.04 0.58,0.22 0.12,0.51 -0.66,0.3 -0.19,0.36 -0.26,-0.06 -0.21,0.62 -0.31,0.02 -0.33,0.69 -0.19,-0.04 -0.19,-0.63 -0.52,-0.13 -0.64,0.11 -0.32,0.72 -0.97,0.36 -0.04,-0.73 0.58,-0.19 -0.24,-0.19 0.01,-0.47 0.37,-0.1 0.03,-0.68 0.55,-0.73 0.3,-0.04 -0.12,-0.75 0.42,0.13 -0.12,-0.34 0.34,0.06 -0.18,-0.35 0.16,-0.18 0.35,0.36 z m -24.69,-0.41 0.43,0.39 -0.37,0.56 0.26,0.42 -0.25,0.13 -0.12,0.5 -0.33,0.08 0.02,0.29 -0.54,-0.08 -0.13,0.29 -0.55,-0.14 -0.08,-0.31 -0.42,-0.22 0.41,-0.47 -0.13,-0.29 0.23,-0.55 0.67,0.06 0,-0.4 0.9,-0.26 z m 13.99,-0.1 0.25,0.19 -0.31,0.19 0.31,0.3 -0.44,0.24 -0.02,0.3 -0.67,-0.03 0.32,-0.44 -0.58,0.13 0.3,-0.33 -0.5,0.04 0.13,-0.61 0.08,0.24 0.51,0.09 0.22,-0.27 0.4,-0.04 z m 2.85,-2.39 -0.45,0.06 0.16,-0.3 0.29,0.24 z m -0.66,-0.81 0.21,0.06 -0.47,0.17 0.05,-0.39 0.21,0.16 z m -0.6,-0.85 0.47,0.04 0.04,0.26 -0.35,0.05 0.11,0.16 0.16,-0.14 0,0.19 -0.35,0.26 0.22,0.03 -0.14,0.32 0.24,0.12 -0.27,0.45 0.44,0.1 -0.87,0.14 0.26,-0.32 -0.31,0 -0.01,-0.17 -0.85,0.29 0.16,-0.33 0.74,-0.09 0.1,-0.59 -0.34,0.29 -0.38,-0.1 0.17,-0.24 -0.23,-0.13 0.44,0.09 0.23,-0.19 0.2,0.19 0.02,-0.26 -0.76,0.04 0.94,-0.16 -0.25,-0.34 0.17,0.04 z m -0.56,0.22 -0.14,-0.32 0.33,-0.17 -0.19,0.49 z m 2.26,-0.42 0.62,0.14 -0.46,0.32 0.68,-0.14 0.14,0.44 -0.15,0.13 0.31,0.02 -0.26,0.13 0.28,0.13 -0.22,0.68 0.25,-0.15 -0.25,0.42 -0.09,-0.24 -0.5,0.01 0,0.19 -0.74,-0.23 0.6,-0.3 -0.25,-0.24 0.1,-0.53 -0.7,0.03 0.14,-0.32 0.34,0.16 0.21,-0.18 -0.26,-0.1 0.08,-0.28 -0.37,0.05 -0.05,-0.16 0.55,0.02 z m -0.3,-0.16 -0.32,-0.04 0.54,-0.21 -0.22,0.25 z m 19.02,-11.85 0.39,-0.03 0.35,0.88 0.3,0.1 -0.11,0.84 -0.43,0.63 -0.21,-0.25 0.06,-0.71 -0.41,0.17 -0.36,-0.17 0.24,-1.46 0.18,0 z m 7.670002,-11.31 0.82,0.37 0.48,0.72 -0.76,-0.42 -0.29,0.14 0.03,0.71 -0.17,-0.04 -0.17,0.46 0.15,0.28 -0.3,0.35 -0.15,-0.56 -0.550002,-0.21 -0.07,-0.31 0.480002,-1.22 0.5,-0.27 z m 12.88,-0.51 1.77,1.16 4.46,3.82 0.61,0.29 0.27,0.55 0.32,-0.18 -0.07,-0.56 0.56,-0.96 0.06,-0.59 0.31,-0.28 0.19,0.09 0.06,-0.35 0.54,-0.19 -0.08,-0.21 0.91,-0.54 1.18,0.46 0.35,-0.15 -0.32,-0.01 0.22,-0.25 0.63,0.17 0.41,0.63 0.49,-0.17 0.92,1.12 0.28,-0.3 0.01,-1.61 0.65,-1.08 3.28,2.8 0.6,0.84 4.51,3.73 0.1,0.14 -1.2,1.29 -1.77,-0.97 -1.21,1.42 -2.05,1.21 -0.77,-0.19 -0.6,-0.78 -0.09,-0.53 0.24,0.06 -0.26,-0.7 0.23,0.11 -0.17,-0.68 -0.51,0.84 -0.59,-0.06 0.26,0.24 0.24,1.22 -1.01,0.8 0,0.34 0.43,0.3 -0.38,0.42 0.15,0.17 -0.21,0.03 -0.45,-0.6 -0.51,0.19 2.18,2.22 0.15,-0.36 0.3,0.02 0.12,-0.23 0.64,0.26 -0.08,-0.2 0.87,-0.88 0.83,1.46 -0.25,0.14 -0.09,0.47 -0.38,0.19 0,0.44 0.75,-0.14 0.11,0.25 -0.23,0.24 0.37,0.3 -0.25,0.41 2.2,1.58 0.23,4.95 0.34,0.74 -0.24,0.11 0.02,1.11 1.57,3.72 -0.36,0.23 0,0 -2.23,-1.4 -1.06,-1.39 0.15,-0.26 -0.61,-0.68 -0.19,0.06 -0.54,-0.81 0.25,-0.14 -0.02,-0.29 -0.72,-1.4 -0.38,-0.13 -0.36,0.41 -0.37,-0.44 -1.2,-0.61 -0.37,0.13 -0.97,-0.59 -0.28,0.16 -0.85,-1.12 -4.11,2.03 -0.47,1.31 -0.35,0.24 0.12,0.35 -1.1,3.19 -2.98,3.61 -0.22,-0.18 0.22,-0.16 -0.96,-0.95 -1.52,0.35 -0.34,-1.25 -0.82,0.1 0.06,0.53 -0.92,-0.04 0.25,2.71 -2.67,-1.45 -0.47,-0.04 -0.02,-0.17 0.42,0 0.07,-0.21 -0.88,-0.35 -0.12,0.18 0.27,0.55 -0.34,-0.17 -0.09,0.25 0.45,0.43 -1.49,0.04 0.17,-0.28 -0.39,-0.01 -0.02,-0.21 -0.49,-0.21 -0.17,0.01 0.09,0.21 -0.44,0.01 0.15,0.21 -0.42,0.06 -0.14,-0.38 -0.39,-0.19 -0.33,0.12 -0.5,-0.21 -0.54,0.19 0.05,0.46 0.66,-0.33 0.38,0.9 -0.94,0.67 -0.26,-0.35 -2.22,1.42 0.81,1.42 -2.12,1.31 -0.38,-0.33 -1.140002,1.24 -0.16,0.89 1.810002,1.14 -0.4,0.57 0.32,0.04 0.67,1.3 -1.17,0.66 -0.620002,1.47 1.160002,-0.52 0.28,0.55 1.71,-0.85 0.13,4.75 -0.35,0.02 -0.3,-0.41 -0.87,0.13 0.1,0.28 0.38,-0.02 0.12,1.31 -0.52,0.3 0.15,0.4 -0.89,0.2 0.04,0.25 -0.64,0.18 0.65,0 0.51,0.29 0.07,0.42 -0.43,0.17 0.08,0.18 -0.69,-0.89 -2.070002,1.37 0.8,1.07 -0.21,0.22 -0.18,-0.46 -0.48,0.54 -0.32,-0.21 -0.21,0.37 0.24,0.08 -0.29,0.48 -0.13,-0.18 -1.07,1.82 -0.31,0.57 0.04,1.23 -0.22,0.56 -0.87,1.21 0.09,0.14 -0.67,0.53 0.38,0.57 -0.66,1.4 0.05,0.72 -0.67,0.12 0,1.09 0.42,0.77 0.19,1.37 -0.54,0.51 -0.54,0.11 -0.1,0.64 -0.48,0.44 -1.62,3.23 -0.93,0.31 -2.4,2.78 -2.41,-1.08 -0.13,0.44 -1.65,-0.55 -0.21,0.31 -2.95,-1.31 0.08,-0.33 -0.42,-0.17 -0.08,0.19 -1.39,-0.54 0,-0.35 -1.07,-0.35 -0.18,-0.36 -0.48,-0.13 -0.08,-0.54 -0.43,0.12 -0.35,-1.88 -1.88,-1.25 -0.25,1.15 -1.12,1.82 0.03,4.49 0.56,2.4 1.41,1.92 -1.33,1.23 -0.29,-0.13 0.27,-0.69 -0.2,-0.42 -0.28,1.41 -0.42,0.4 0.14,0.17 -0.65,0.61 -0.25,-0.01 0.07,0.15 -0.57,0.63 0.13,0.17 -0.51,0.06 -0.5,0.38 -0.22,0.98 -0.75,0.8 -1.07,0.46 0.18,3.2 0.52,0.13 -0.09,1.12 -2.12,6.43 -0.84,-0.59 -0.24,0.33 1.13,0.86 0.15,2.98 -0.87,1.15 0.66,0.4 0.47,1.07 1.95,-0.37 0.05,0.36 0.22,-0.09 -0.07,-0.3 0.67,-0.19 1.23,0.87 -0.06,1.02 -0.43,0.24 -0.11,0.45 0.44,0.63 -0.39,2.99 0.1,1.11 0.48,0.05 -0.11,-0.19 0.28,-0.32 0.33,0.15 -0.11,0.24 0.91,0.47 0.39,0.68 -0.13,0.15 0.18,0.43 0.82,1.19 -1.87,0.38 -1.35,1.76 1.22,1.36 -0.31,1.59 -0.43,0.31 0.17,-0.29 -0.17,-0.29 -0.43,0.44 -0.8,-0.52 0.04,2.38 -0.53,1.02 0.78,2.69 -0.7,1.34 0.62,1.38 0,0 -4.03,-0.37 -3.05,1.11 -1.47,2.22 -1.62,1.31 0,0 -0.32,-0.15 -0.27,-0.64 0.21,0 0.26,-1.08 0.21,0.17 0.2,-1.29 -0.25,0.05 -0.12,-0.2 -1.34,1.11 -0.23,-0.46 0.37,-0.4 0.29,-2.59 0.42,-1.14 -0.17,-1.08 0.22,-0.25 0.26,-2.05 -0.26,-2.92 -0.25,0.44 -0.01,-0.31 0.68,-1.19 0.26,0.29 -0.28,1.03 0.34,0.37 0.66,-0.2 0.05,-2.99 0.67,-1.02 0.53,-0.27 0.06,-0.49 0.25,0.13 0.14,-0.5 -0.18,-0.19 0.24,-0.47 -0.2,-0.31 -0.51,0.85 -0.08,-0.84 -0.43,-0.07 0.33,-1.69 -0.27,0.17 0.04,-0.95 -0.52,0.12 -0.35,1.17 -1.08,0.21 0.03,-0.86 0.79,-1.12 -0.12,-0.21 0.53,-2.26 -0.3,-0.34 -0.31,1.35 -0.28,-0.28 -0.28,0.2 0.29,-0.82 -0.39,0.36 -0.4,-0.55 -0.05,-0.49 0.34,-0.91 0.23,0.13 0.13,0.85 0.46,-0.69 0.17,0.65 0.34,-1.05 0.31,-2.57 -0.64,-0.4 -0.39,0.42 -0.2,-0.12 -0.22,0.96 -0.22,-0.07 -0.05,0.67 -0.19,-0.08 -0.04,-2.13 -0.48,0.46 0.13,-0.5 -0.21,-0.45 0.36,-1.01 0.2,-0.05 -0.07,-0.31 -0.32,-0.03 -0.31,0.98 -0.71,0.22 -0.38,-0.01 -0.72,-0.87 -0.12,-0.52 0.75,-1.81 -0.3,-0.19 0.27,-0.6 -0.51,0.26 -0.26,0.64 -0.22,-0.31 -0.53,0.83 -0.38,0.03 -0.25,0.6 -0.04,-0.54 -0.28,0.25 1.09,-3.56 0.19,-1.48 -1,2.3 -0.22,-0.27 0.08,-0.89 -0.27,0.32 -0.6,0.18 -0.29,-0.17 -0.06,-0.46 -0.35,-0.05 -0.36,-0.51 0.32,-0.42 0.53,-0.14 -0.17,-0.13 0.74,-2.15 -0.25,-0.18 -0.52,0.47 -0.61,0.17 -0.14,-1.92 0.8,0.04 0.75,1.06 0.43,-0.71 -0.02,-0.71 -0.56,-0.22 0.01,-0.94 0.41,0 0.13,-0.82 0.23,0.01 0.33,-0.52 0.31,-0.02 0.13,-0.69 0.93,-0.14 0.05,-0.21 -1.17,-0.41 -0.16,-0.55 0.34,0.03 0.03,-0.25 -0.29,-0.13 -1.55,0.58 -0.02,-1.49 -0.24,-0.4 -0.46,0.36 0.1,0.45 -0.56,0.58 0.11,0.35 -0.3,0.2 -0.03,0.69 -0.43,-0.19 -0.3,-0.52 -0.05,-0.67 0.47,0.28 0.31,-0.15 -0.23,-0.4 -0.3,0.1 0.2,-1.22 -0.19,-0.34 0.18,-1.17 0.67,-1 -0.42,-0.22 -0.4,0.29 -0.1,-0.57 0.22,0.04 0.03,-0.79 0.32,-0.14 -0.04,0.42 0.5,-0.08 0.46,0.21 0.74,-0.63 -0.14,-0.85 0.3,-0.36 0.26,0.13 0.09,-0.29 0.19,0.18 0.37,-1.3 -0.04,-0.88 -0.37,-0.1 -0.28,0.33 -0.33,0.02 -0.3,-0.45 -0.42,-1.35 0.02,-1.48 -0.24,-0.25 0.54,-0.31 0.17,-0.31 -0.12,-0.33 0.58,0.06 0,-0.24 0.45,-0.01 0.49,0.75 0.53,0.22 0.24,-0.27 -0.17,-0.5 0.25,-0.27 -0.06,-0.33 0.95,-0.55 -0.09,-0.48 0.27,0.05 0.05,-2.29 0.4,0.18 0.19,-0.15 -0.33,-0.48 0.27,-0.06 0,-0.3 -0.16,-0.32 -0.48,-0.2 0.09,-0.37 0.51,0.46 0.31,-0.39 0.56,-0.13 0.87,0.74 1.47,0.71 0.74,-0.3 0.5,0.16 0.14,-0.21 -0.01,-1.63 0.67,-1.62 -0.11,-1.4 0.32,-1 1.67,-0.73 -0.51,-1.08 0.18,-0.25 -0.13,-0.52 0.33,0.05 0,-0.32 0.3,0.06 -0.05,-0.51 -0.79,-0.15 0.42,-0.39 -0.57,-0.2 -0.45,-0.55 0.21,-0.22 0.21,0.28 0.25,-0.19 0.12,-0.58 0.47,0.32 0.17,1.08 0.39,0.13 -0.04,-1.04 -0.37,-0.61 -0.29,0.01 -0.58,-1.05 0.19,-0.65 0.94,0.18 0.25,-0.37 0.36,0.46 0.24,-0.3 -0.29,-0.63 0.28,-0.46 -0.12,-0.25 0.8,-0.41 0.43,0.24 0.19,0.64 0.34,-0.28 -0.02,0.47 0.24,0.08 -0.13,0.23 0.34,0.01 0.12,0.51 0.49,0.24 0.37,-0.59 0.26,0.34 -0.03,0.41 0.32,0.01 0.07,0.37 0.41,0.05 0.1,0.3 0.45,-0.18 0.59,-0.72 -0.17,-0.27 0.13,-0.75 -0.57,-0.06 -0.2,0.37 -0.3,-0.28 0.14,-0.13 -0.19,-0.32 -0.41,-0.01 -0.25,-0.46 -0.61,-0.11 -0.47,-1.15 0.43,-0.64 -0.22,-0.09 -0.2,0.39 -0.51,-0.03 0.1,-0.9 0.05,0.16 0.54,-0.39 -0.34,-0.16 -0.11,-0.33 -0.31,0.41 -0.54,-0.09 -0.23,-0.47 0.12,-0.31 -1.43,-2.04 -0.19,-0.99 0.21,-0.08 0.2,-0.84 0.81,0.02 0.04,0.35 0.38,-0.4 0.61,0.04 -1.42,-0.64 -0.58,0.32 -0.12,-1.65 0.19,-1.13 0.21,-0.55 0.46,0.07 0.14,-0.42 0.29,0.13 -0.25,-0.88 -0.33,-0.04 0.48,-0.32 -0.4,-0.46 0.46,-0.26 -0.15,-0.24 0.83,-0.19 0.09,-0.83 0.34,0.16 -0.26,0.23 -0.06,0.7 0.32,1.49 -0.33,0.38 0.38,0.25 0.27,-0.11 0.05,0.55 0.58,0.23 0.43,0.64 0.74,-0.03 -0.29,0.61 0.36,-0.17 0.72,0.42 0.66,-1.74 0.72,0.25 0.76,1.3 0.65,-0.33 -0.7,-0.31 -0.15,-1.28 0.16,0.06 0.35,-0.55 0.24,0.67 0.22,-0.75 0.38,-0.42 -0.25,-0.11 0.42,-0.79 0.39,0 0.27,-0.48 0.24,0.08 -0.12,0.84 0.17,0.51 0.6,-0.04 -0.06,-0.18 0.65,-0.73 0.1,0.52 0.4,0.17 0.58,-1.04 0.2,0.08 0.5,-0.34 0.56,0.26 0.16,0.94 -0.4,0.62 0.3,0.43 0.61,-1.23 0.58,1.18 0.05,-1.08 0.16,-0.22 0.56,0.09 0.06,0.87 0.17,-0.17 0.19,0.21 0.28,-0.46 0.14,0.46 0.02,0.53 -0.34,0.48 -0.17,-0.2 -0.19,0.72 0.43,-0.2 0.31,0.65 -0.17,0.58 -0.62,0.26 -0.69,-0.5 -0.54,0.15 -0.17,0.36 0.16,0.36 0.21,-0.28 0.11,1.27 0.21,-0.05 0.03,0.4 -1,0.02 0.64,0.74 0.08,0.62 0.32,-0.13 0.27,0.52 0.58,0.28 0.34,-0.18 -0.43,-1.13 -0.45,-0.35 0.04,-1.31 0.37,-0.13 0.29,-0.45 0.71,0.24 0.27,0.35 0.25,-0.33 -0.33,-0.91 0.25,-0.45 -0.5,-0.4 -0.2,-0.72 0.25,-0.25 -0.03,-0.81 0.42,0.26 0.01,0.25 0.59,-0.36 0.75,0.01 -0.18,-0.31 0.41,0.06 0.21,0.48 -0.26,1.09 0.14,0.4 0.37,0.05 0.12,-0.38 0.27,0.22 0.13,-0.55 0.73,-0.19 0.13,-0.44 0.9,0.16 0.19,-0.72 0.28,-0.35 0.24,0.1 0.11,-0.33 0.42,0.47 0.96,0.27 -0.25,-1.49 0.12,-0.61 0.55,-0.49 -0.09,-0.57 0.38,0.01 0,-0.36 0.68,-0.07 -0.14,-0.82 0.73,0.12 0.92,1.51 0.26,-0.23 0.62,0.41 0.22,-0.92 -0.39,-0.66 0.13,-0.48 -0.24,-0.01 -0.18,-0.38 0.5,0.21 0.13,-0.37 0.75,-0.25 0.12,-0.38 -1.68,-3.28 -0.61,-0.15 -0.89,-0.73 0.18,-0.96 -0.26,-0.5 -0.97,-0.23 -0.08,-0.46 -0.86,-0.66 -0.08,-0.6 -0.9,-1.18 0.23,-0.57 -0.25,-0.35 0.17,-0.69 0.68,-0.11 0.1,-0.24 0.98,0.3 0.51,-0.39 0.86,-0.16 0.51,0.94 0.08,-0.2 0.22,0.23 0.59,1.65 0.1,-0.92 0.46,0.42 0.31,0.9 1.1,0.61 -0.81,-1.24 -1.88,-1.89 -1.12,-2.14 0.21,-0.44 -0.36,-0.43 0.69,-0.87 -0.05,-0.49 0.46,-0.48 0.22,-1.13 0.36,-0.42 0.04,-0.41 -0.43,-0.42 1.41,0.52 0.18,-0.2 0.13,0.22 -0.31,1.53 -0.39,0.16 -0.29,-0.16 -0.17,0.25 0.8,0.44 -0.15,0.46 0.35,0.24 0.26,1 -0.14,0.37 -0.03,-0.39 -0.24,0.28 -0.14,-0.1 -0.27,0.59 0.74,0.04 0.31,-0.47 0.24,0.72 0.26,0.31 0.2,-0.08 -0.21,0.62 0.31,0.57 -0.03,0.72 0.31,-0.21 0.4,-1.02 0.11,0.96 0.28,0.26 0.06,-2.67 0.3,-0.13 0.79,-2.01 -0.07,-0.59 -0.37,-0.29 -0.29,-0.74 0.56,0.05 -0.03,0.43 0.35,0.05 -0.36,-1.21 0.23,0.14 0.16,0.7 0.73,0.16 -0.35,-0.54 -0.07,-0.98 0.71,-0.75 -0.22,-0.75 -0.28,0.04 -0.55,1.18 -0.6,0.37 -0.26,-1.09 -0.59,0.35 -0.49,-0.03 0.31,-0.37 -0.24,-0.56 0.46,-0.33 0.13,0.45 0.87,-0.07 0.02,-0.32 0.34,0.11 0.16,-0.18 -0.12,-0.7 0.41,0.52 0.22,-0.28 -0.21,-0.36 0.73,-0.19 -0.3,-1.04 0.22,-1.29 0.17,0.14 0.49,-0.44 0.36,-1 0.78,-0.08 0.13,0.35 0.460002,0.19 0.5,-1.28 -0.2,-0.38 0.37,-0.53 -0.09,-1.87 0.45,0.03 0.62,0.61 -0.04,0.72 -0.27,-0.35 -0.2,0.43 0.3,0.63 -0.15,0.33 0.55,-0.32 -0.13,-0.66 0.34,-0.05 0.43,0.84 0.13,-0.27 0.28,1.04 0.2,-0.54 0.22,0.05 -0.34,-1.44 0.09,-0.58 0.41,-0.14 0.94,0.76 0.17,-0.32 0.49,1.07 0.36,0.06 0.23,0.38 -0.27,1.18 0.41,1.08 0.25,-1.11 -0.35,-0.4 0.17,-0.58 0.85,0.44 0.1,0.47 0.35,0.12 0.04,0.62 0.51,0.54 0.12,0.58 0.4,-0.15 0.29,-1.17 -0.87,-0.96 -0.07,-0.63 0.22,0.03 0.09,-0.42 -0.4,-0.34 0.13,-0.48 0.24,0.32 0.28,-0.14 0.08,0.5 0.4,-0.12 -0.02,0.27 -0.46,-0.05 -0.03,0.31 0.44,0.54 0.26,-0.19 -0.04,-0.34 1.04,-0.07 -0.17,-1.28 0.39,0.11 0,-0.38 0.43,-0.25 0.27,0.64 0.27,-0.67 -0.29,-0.07 -0.05,-0.4 -0.42,-0.35 -0.94,-0.2 0.08,-0.45 -0.34,0.1 -0.03,0.4 -0.62,-0.86 0.28,-0.25 0.95,-0.13 -0.25,-0.57 0.3,0.1 -0.09,-0.37 0.58,0 0.09,0.31 0.34,-0.1 0.24,0.26 0.37,-0.04 -0.76,-1.52 0,0 0.33,0.57 -0.05,-0.65 0.95,-0.34 0.14,0.23 0.78,-0.27 0.02,-0.4 0,0 0.52,0.58 0.29,-0.69 z m -7.94,-0.24 0.34,-0.04 0.7,1.04 0.31,0.02 0.06,-0.31 0.45,0.04 -0.05,0.28 0.21,-0.14 0.05,0.33 -0.43,1.14 -0.34,0.07 0.13,0.44 -0.33,1.35 -0.27,-0.33 0.06,-0.5 -0.82,0.06 0.34,0.14 0.02,0.76 -0.11,0.43 -0.65,-0.17 0.34,0.61 -0.3,0.28 -1.4,-0.64 -0.65,-1.41 0.21,-0.37 -0.86,-0.64 0,-0.4 0.87,-0.53 0.42,-0.73 0.26,0.12 0.19,-0.3 0.28,0.07 0.7,-0.9 0.19,-0.03 0.08,0.26 z m -3.17,-0.88 0.23,0.7 -0.35,0.21 0.11,0.56 -0.28,-0.46 -0.02,-0.46 0.19,-0.05 -0.4,-0.45 0.01,-0.43 0.39,0.07 0.12,0.31 z m 3.92,-3.68 0.44,-0.2 0.14,0.42 0.35,0.12 0.57,-0.35 0.45,0.55 -0.21,0.25 0.8,1.17 0,0 0.5,1.15 -0.27,0.68 0,0 -0.42,-0.1 -0.14,0.37 -0.74,-0.24 0.23,0.77 -0.12,0.25 -0.68,-0.49 0,-0.25 -0.27,0.2 0.08,0.18 -0.3,0.02 -0.51,-0.9 -0.09,0.48 -1.04,0.19 -0.53,-0.13 0.27,0.42 -0.6,0.51 -0.42,-0.46 -0.41,-0.09 -0.05,-0.4 -0.5,0.04 -0.08,-0.53 -0.4,-0.52 0.16,-0.14 0.22,0.19 0.04,-0.3 0.48,0.05 -0.3,-0.65 0.37,0.03 -0.05,-0.58 0.49,0.57 -0.27,-1.17 0.57,-0.33 0.04,0.46 0.3,-0.18 0.01,-0.29 2.52,0.55 0.09,-0.43 0.55,0.04 -0.28,-0.32 -0.46,0.16 -0.56,-0.3 -0.3,-0.69 0.29,-0.03 0.04,0.25 z m -1.2,-1.47 0.67,0.12 0.06,1.28 -0.27,-0.24 -0.23,0.09 0.02,-0.3 -0.27,0.05 -0.2,-0.28 0.22,-0.72 z m 0.77,-3.26 -0.07,0.68 -0.4,-0.43 -0.74,-0.12 0.77,-0.72 0.44,0.59 z" 
                fill="rgb(151, 144, 238)" 
                stroke="white" 
                stroke-width=".7px"
                title="Ostrobothnia" 
                id="FI-12" 
            />
        </svg>