<svg xmlns="http://www.w3.org/2000/svg" viewBox="172.2834900000001 656.3757699999996 53.01999999999987 74.9000000000002" width="53.01999999999987" height="74.9000000000002">
            <path 
                d="m 176.12349,679.92577 3.41,-1.14 -0.12,-0.64 0.58,0.35 0.86,-0.08 0.8,0.84 1.29,-1.25 2.2,0.36 0.68,-0.47 5.15,-0.47 2.24,-9.65 -0.2,-3.02 0.85,0.03 0.23,-0.25 1.06,0.42 1.34,-0.47 0.85,-0.86 1.01,-1.58 0.29,0.16 0.34,-0.25 0.13,0.27 0.4,0.16 0.1,-0.2 1.39,0.68 0.27,0.37 -0.28,0.06 -0.16,0.45 0.83,0.43 2.05,-5.79 0.67,-0.57 -0.25,-1.44 1.12,0.45 -0.71,2.19 1.49,-0.26 0.49,-1.57 0.17,0.53 1.78,1.46 -0.07,0.78 0.45,0.63 -0.07,0.51 0.69,0.63 0.97,-0.22 0.26,-0.93 0.42,0.78 -0.09,0.71 0.24,0.43 0.33,0.03 -0.1,2.75 0.48,1.09 0.91,0.81 0.7,1.29 0.85,0.15 0.71,-2.05 1.14,0.58 1.25,-0.05 0.54,-0.99 0.2,0.45 0.34,-0.25 0.42,0.95 -0.41,0.87 0.46,1.19 0,0 0,0 0,0 0.1,2.36 -0.47,-0.36 -1.35,-0.08 0.37,0.1 0.39,0.71 -0.05,1.05 0.17,0.5 0.34,0.05 -0.22,1.29 -0.76,0.2 0.25,1 1.08,0.1 0.06,-1.18 0.22,-0.02 0.21,0.98 0.48,-0.14 0.24,0.47 -2.71,-0.13 -0.03,0.39 0.68,1.18 0.27,1 -1.6,1.34 0.7,1.39 1.75,1.86 -1.13,1.68 0.09,0.38 1.01,-0.21 0,0.86 2.15,2.18 0.51,0.2 0,0 0.23,-0.23 1.86,0.17 0,0 0.42,0.07 0.47,0.99 0.21,1.81 0.27,0.55 0,0 0,0 0,0 -1.02,0.52 -1.02,0.21 -0.56,0.59 -0.02,1.1 -0.97,1.35 -0.45,1.8 -1.39,1.1 -2.35,0.55 0.01,0.91 -1.03,1.21 -2.14,-0.51 -0.58,0.09 -0.37,-1.18 -1.11,0.97 -1.84,2.92 1.95,1.24 -0.14,1.9 0.47,0.18 0.47,1.2 -0.4,1.34 -0.12,1.46 -1.32,0.88 -0.42,-0.35 0.04,-0.49 -0.45,0.11 -0.2,0.67 0.58,2.31 3.52,0.55 -1.46,2.11 -0.32,0.91 0.24,0.86 -0.92,0.61 -0.48,1.62 0.63,0.44 0.84,-0.18 1.35,0.77 1.12,1.13 0.3,2.98 0,0 0.45,1.82 -0.29,0.85 -2.31,1.67 -1.05,0.3 -2.6,-1.96 -3.01,0.7 -0.62,-1.99 -1.8,0.28 -0.8,1.09 -1.77,0.35 -1.02,0.08 -0.79,-0.66 -0.83,0.7 -0.56,1.05 -1.02,-0.08 0.01,0.81 -1.05,0.12 -0.11,0.44 -2.89,-2.12 0,0 0,0 0,0 0.18,-1.09 -0.32,-1.51 -1.32,-3.2 -1.24,-0.17 -1.74,2.81 -1.93,-0.48 -0.68,0.56 -0.47,-1.68 -2.01,-1.72 -0.42,-2.4 -0.34,0.04 -0.27,0.35 -0.13,1.06 -2.46,0.21 0,0 -0.12,-0.49 -0.45,-0.03 -0.41,-1.12 0.4,-1.54 0.59,-0.05 -0.49,-3.53 -1.5,-0.6 -1.24,-0.08 0.52,-2.13 0.46,-0.42 0.65,-1.33 -0.29,-0.17 0.14,-0.5 -0.88,0.11 -0.04,-0.39 0.57,-0.57 0.08,-0.57 -0.23,-0.03 -0.4,-0.72 1,-1.27 3,-0.89 0.55,-0.69 0.95,-0.18 0.57,-1.88 1.36,-1.55 -0.47,-0.3 -0.21,-0.55 1.04,-1.03 -0.6,-1.28 0.3,-0.68 -0.17,-0.61 -0.6,-0.26 -0.35,-0.78 -0.82,-0.74 0.05,-1.17 -0.64,-0.02 -2.41,-0.95 -2.47,0.54 -0.53,-2.83 -0.79,0.79 -0.56,0.23 -0.66,-1 -0.64,0.52 -0.19,-0.06 -0.4,-2.77 0,0 0,0 0,0 -0.76,-2 0.5,-2.13 -0.32,-0.39 0.52,-1.56 -1.23,-1.46 0.11,-0.42 -0.36,-0.57 -0.38,-1.67 z" 
                fill="rgb(151, 144, 238)" 
                stroke="white" 
                stroke-width=".7px"
                title="Päijänne Tavastia" 
                id="FI-16" 
            />
        </svg>