<svg xmlns="http://www.w3.org/2000/svg" viewBox="59.6734879999999 621.69577 65.63000200000008 96.36999999999989" width="65.63000200000008" height="96.36999999999989">
            <path 
                d="m 62.383488,695.74577 0.98,0.46 0.63,0.7 -1.12,0.04 -0.91,-1.18 0.42,-0.02 z m -1.63,-0.23 0.95,0.14 0.25,0.38 -0.33,-0.08 -0.35,0.62 0.87,0.96 -0.23,0.39 -0.66,-0.18 -0.03,0.39 -0.44,0.01 0.06,0.27 -0.86,-0.34 0.25,-0.66 -0.52,-0.4 0.59,-0.51 0.48,-0.02 -0.03,-0.97 z m 3.02,-2.09 0.34,0.12 0.74,-0.2 0.28,0.54 0.53,0.05 0.26,0.28 -0.42,0.42 0.27,0.08 -0.02,0.48 -0.73,0.13 -0.53,-0.62 -0.68,-0.06 0.24,-0.25 -0.31,-0.07 0.06,-0.19 -1.06,0.15 -0.08,-0.22 0.31,-0.07 -0.43,-0.38 0.6,-0.36 0.63,0.17 z m 0.74,-26.42 0.88,0.04 0.05,0.41 0.42,0.1 -0.05,0.66 -0.58,-0.28 0.17,0.6 -0.35,0.09 -1.02,-0.33 -0.06,0.29 -0.26,-0.02 -1.15,-0.75 -0.03,0.52 0.99,0.81 -0.05,0.74 -0.12,-0.39 -0.47,-0.2 -0.61,-0.77 0.03,-0.68 -0.19,0.2 -0.33,-0.28 -0.19,0.29 -0.33,-0.37 0.15,-0.36 0.51,0.14 -0.06,-0.24 0.35,-0.13 1.29,0.93 0.63,0.06 0.13,-0.32 -0.22,-0.23 0.37,-0.11 -0.29,-0.44 0.39,0.02 z m 43.170002,-42.62 -0.14,0.39 0.21,0.5 -0.18,0.09 -0.21,1.2 0.69,0.27 -0.12,0.78 0.43,1.71 -0.41,0.71 0.65,1.16 -0.83,0.53 -0.56,-0.06 -1.46,0.63 -0.2,0.93 0.18,-0.03 0.33,5.6 -1.92,0.57 -1.14,-0.09 -2.58,1.15 -2.170002,2.74 1.21,0.91 0.36,-0.1 0.540002,0.23 0.13,0.25 -0.36,0.22 0.14,0.52 0.27,0.04 0.23,-0.69 -0.08,-0.67 0.45,0.31 -0.13,0.88 1.11,0.21 0.05,0.67 -0.31,0.27 0.62,1.46 0.64,0.61 0.47,0.16 0.54,-0.16 0.03,0.26 0.63,0.46 -0.15,1.41 1.54,0.59 0.15,0.7 -1.62,0.71 0.34,0.78 0.64,-0.41 0.88,1.46 1.06,1.15 -0.18,1.15 -0.44,0.22 0.21,0.36 -0.36,1.38 -0.58,1.01 -0.26,0.11 -0.39,-0.28 -1.18,0.53 0.13,0.45 -0.47,0.42 -0.4,-0.12 -0.13,0.45 -0.71,0.48 0.37,1.48 -0.14,0.28 -1.27,0.16 0.21,0.91 0.77,0.77 -0.93,0.26 0.19,0.87 1,-0.43 0.13,-0.92 0.32,-0.05 0.1,0.31 0.4,-0.07 -0.13,1.14 0.43,0.69 -0.69,1.42 -1.36,-1.19 1.12,2.76 -1.66,1.11 -0.11,1.4 -1.25,1.31 -0.620002,-0.34 2.360002,4.68 0.44,0.33 0.24,-0.31 1.44,0.1 0.2,1.01 -0.49,0.16 0.57,1.72 -2.07,0.49 0.34,1.44 -0.4,-0.73 -0.18,0.1 0.12,0.69 -0.43,-0.2 -0.2,0.25 -0.43,0.03 0.29,0.71 -0.08,0.4 -1.980002,-0.61 -0.04,-0.17 -0.47,0.2 1.020002,3.46 -1.030002,0.76 1.250002,1.47 0.12,0.47 0.3,0.13 0.86,2.09 -0.19,0.4 0.4,0.5 0.02,0.53 1.81,0.05 0.17,0.34 0.13,-0.36 1.88,0.02 2.4,1.09 0.38,-0.4 2.5,2.03 1.46,0.88 2.12,-0.14 0.26,0.82 0.45,-0.19 -0.35,-0.85 1.53,0.02 2,-1.01 2.01,0.29 0.35,-0.98 1,0.19 -0.4,2.49 1.34,0.96 2.53,2.51 -3.57,1.38 -0.2,-0.46 -0.75,-0.05 -0.14,0.61 -0.23,-0.02 0.26,0.3 0.51,0.09 0.02,1.08 0.35,0.05 0.04,0.29 0.72,0.11 -0.51,0.32 -1.32,0.19 0.08,0.36 1.14,0.17 0.15,0.35 0.43,0.03 -0.87,2.49 0,0 0.27,0.4 -0.11,0.46 -1.58,-0.07 -0.55,0.4 0,0 -1.04,-0.25 -0.56,-1.67 -1.34,-0.24 -1.66,0.16 -1.27,0.6 -1.45,-1.35 -1.1,-0.03 -0.29,-0.74 -0.4,0.18 -1.03,-0.47 -0.46,-1.67 -1.41,-1.13 -0.25,1.45 0.68,0.71 -0.01,0.32 -0.43,0.74 0.1,0.48 -0.61,0.23 0.5,0.88 0.11,0.81 -0.43,1.41 -0.61,-0.39 -0.41,0.39 -2.2,0.85 -0.44,-0.32 -3.800002,-0.25 -1.77,0.93 1.89,2.42 -2.07,-0.74 -3.38,0.93 -1.67,0.23 -1.49,1.11 -1.38,-0.41 -0.3,-0.35 -0.98,0.39 -1.4,1.27 0.93,0.43 -0.08,0.26 -0.81,-0.34 -0.62,1.29 -0.39,0.18 -0.97,-1.95 -3.68,0.2 -0.37,0.27 -0.49,-0.26 0.34,-0.71 -1.58,-2.21 0.1,-2.17 -0.86,-0.03 -0.63,-0.57 -0.68,0.22 -1.3,-1.64 -1.24,-0.72 0.63,-0.93 -1.52,0.01 -0.72,0.51 0.41,0.86 -0.95,0.78 -0.62,0.24 -0.57,-0.41 -1.06,0.59 -0.32,-0.28 -0.15,-1.11 -0.97,-2.21 -0.37,0.59 -0.02,0.49 0,0 -0.55,0.3 -0.82,1.35 0,0 -0.48,0.28 -1.9,0.15 0,0 -1.72,-1.41 -0.57,-1.62 0.11,-0.75 0.46,-0.6 -0.51,0.11 -0.25,-0.53 -1.11,-0.41 -0.32,-0.62 0.62,-0.19 0.71,0.63 0.82,-0.36 0.64,0.38 0.57,-0.5 -0.82,-0.36 0.28,-0.56 -0.35,-0.05 -0.11,-0.52 0.44,-0.27 -0.15,-0.11 0.15,-0.36 -0.55,-0.11 -0.52,-0.52 1.35,-0.44 -0.1,-0.7 -0.99,-0.95 0.26,-0.42 0.41,0.23 0.22,-0.21 -0.4,-0.35 -0.02,-0.52 0.2,-0.22 -0.45,-0.39 1.15,0.03 0.04,-0.21 0.41,-0.07 1.16,0.73 0.44,0 -1.05,-0.95 0,-0.41 0.36,-0.31 -0.38,-0.36 0.61,-0.16 0,-0.72 0.66,-0.19 1.71,1.36 0.15,-0.34 -0.51,-0.46 0.88,-0.27 -1.12,-0.49 -1.13,-0.92 -0.5,-0.01 -0.07,-0.25 -1.07,-0.66 -0.27,-0.8 0.14,-0.46 0.88,-0.16 -0.15,-0.91 -0.61,-0.42 0.78,-0.61 0.3,0.21 0.1,0.61 0.86,0.4 -0.33,-0.8 -0.79,-0.59 0.4,-0.44 0.38,-0.05 -0.07,-0.31 0.49,-0.41 0.04,-0.69 0.24,-0.24 -0.84,-0.19 -0.62,-0.43 0.18,-0.17 0.39,0.22 -0.25,-0.36 0.48,-0.33 -1.16,-0.61 -0.14,-0.39 1.2,0.2 -0.25,-0.49 0.99,0.27 -0.84,-0.67 -0.23,-0.32 0.15,-0.27 -0.79,-0.81 -0.58,-0.06 -1.47,-1.03 0.31,-0.8 2.67,1 0.44,-0.35 -0.03,0.42 0.3,0.13 0.34,-0.47 0.35,0.2 0.1,-0.66 0.37,-0.47 -0.78,-0.65 -0.29,-0.69 -1.15,-1.26 -0.35,0.42 -1.55,-1.85 -0.53,0 -0.1,-0.25 0.64,-0.19 0.57,0.37 0.17,-0.29 0.23,0.03 1.08,0.34 0.33,0.36 0.5,-0.07 0.5,0.49 1.86,-0.84 -0.06,-0.52 -1.48,-1.02 0.28,-0.04 0.16,-0.42 -0.38,0.16 -0.24,-0.2 0.23,-0.1 -0.1,-0.17 -0.44,0.15 0.07,0.33 0.24,0.04 -0.19,0.31 -0.75,-0.05 -0.35,0.29 -0.55,-1.53 0.09,-0.68 -0.29,-0.68 -0.52,-0.25 -0.63,0.34 0.3,-0.62 -0.23,-0.39 0.32,-0.02 0.14,-0.27 -0.17,-0.29 -0.67,0.24 0.08,-0.67 1.69,-0.32 0.46,1.16 0.64,0.17 0.76,0.68 0.21,-0.1 0.24,0.21 0.31,-0.3 0.19,0.09 0.04,0.52 1.18,0.78 2,0.01 -0.68,-0.54 -0.38,-0.68 -0.6,-0.07 -0.29,-0.27 -0.11,-0.2 0.3,-0.08 -0.27,-0.29 -0.38,0.05 -0.18,-0.34 0.44,0.03 -0.51,-0.6 -0.61,-0.21 0.5,-0.14 -0.61,-0.51 0.04,-1.45 -0.31,0.28 -0.5,-0.98 0.14,-0.35 -0.17,-0.72 -0.33,-0.24 -0.68,0.07 -0.09,-0.69 0.33,-0.05 -0.83,-0.65 -0.3,-0.87 0.95,0.21 -0.44,-0.29 -0.03,-0.32 -0.26,0.05 -0.23,-0.83 -0.34,-0.15 -0.31,-0.64 0.29,-0.06 0.72,0.85 0.43,-0.77 -0.09,-0.34 -0.28,0.12 0.18,-0.4 0.29,-0.07 0.68,0.33 -0.77,-1.67 -0.9,-0.58 -0.64,-0.78 0.28,-0.1 -0.59,-0.34 -0.15,0.27 0.32,0.66 -0.83,-0.31 0.09,-0.47 -0.72,-0.19 -0.24,-0.48 0.04,-0.68 -0.56,-0.56 -0.27,0.09 0.34,-0.28 0.69,0.36 0.09,-0.43 0.43,0.36 0.51,-0.24 0.35,0.34 -0.14,0.41 0.2,0.27 -0.39,0.26 -0.01,0.32 0.62,0.07 -0.04,-0.61 0.33,-0.03 -0.17,-0.91 0.24,0.05 -0.03,-0.89 0.28,-0.25 -0.78,-0.45 -0.26,0.1 -0.79,-0.57 0.47,0.1 -0.48,-0.65 0.48,0.08 0.13,-0.28 -0.18,-0.55 -0.31,0.41 -0.22,-1.04 0.2,0.09 -0.04,-0.39 0.22,-0.2 -0.38,-1.14 -0.66,-0.6 -0.46,-0.97 0.38,-1.02 -1.24,-0.84 0.62,-1.02 -0.68,-0.17 -0.16,0.18 0.22,0.14 -0.1,0.3 -0.23,0.12 -0.15,-0.19 -0.36,0.8 -0.8,-0.25 0.01,-0.33 -0.35,-0.27 0.03,-0.48 -0.28,-0.01 0,0 1.62,-1.31 1.47,-2.22 3.05,-1.11 4.03,0.37 0,0 1.95,-0.06 8.51,2.78 4.31,-3.5 2.82,-4.76 4.09,-0.21 3.86,-6.4 1.86,-0.99 0.59,0.16 2.170002,-6.8 5.06,2.55 2.62,0.14 z" 
                fill="rgb(151, 144, 238)" 
                stroke="white" 
                stroke-width=".7px"
                title="Satakunta" 
                id="FI-17" 
            />
        </svg>