<svg xmlns="http://www.w3.org/2000/svg" viewBox="239.60348999999997 652.1557700000004 101.93 79.51999999999953" width="101.93" height="79.51999999999953">
            <path 
                d="m 332.49349,665.21577 -0.5,0.02 -0.83,1.01 -0.29,1.26 -1.78,2.25 -0.4,1.71 -1.78,1.77 -1.38,1.65 -0.02,0.47 -1.18,1.22 -0.43,0.33 -1.13,0.24 -1.92,0.05 0.16,2.05 -5.75,7.55 -1.81,3.67 -0.8,1.08 0.07,0.39 -1.41,0.93 -1.23,1.34 -5.31,3.86 -1.23,1.72 -1.39,0.57 -0.96,0.11 -0.41,0.52 -1.63,0.91 -0.47,1.81 -2.88,3.17 -1.01,4.24 -0.97,2.07 -1.27,-0.41 -1.34,0.23 -1.05,-0.25 -0.35,0.15 -0.14,-0.2 -1.36,2.02 -0.61,0.23 -4.02,4.39 -0.38,-0.19 -0.44,1.12 -2.92,3.8 -1.53,0.33 -1.17,2.44 -4.56,4.69 0,0 -1.23,0.14 0.14,-0.72 -0.16,-0.52 -1.65,-0.75 -1.29,-2.61 -0.36,-1.83 -1.3,-0.02 -0.53,-0.24 -0.63,0.67 -1.27,-0.15 -0.72,-1.78 0.11,-0.48 -1.15,-0.42 -2.17,-0.23 -2,0.49 -1.36,-0.08 -1.68,-1.45 -2.58,-3.81 -2.2,-0.92 -2.79,-0.68 -2.54,-3.11 -0.44,-0.78 0.28,-0.26 0.7,0.94 0.86,0.16 2.15,-1.05 -0.15,-0.39 -0.45,0.08 -0.21,-0.41 -0.02,-0.83 -0.41,-1.17 -0.41,0.02 -0.75,0.64 -1,-0.82 0.59,-1.17 -0.41,-1.32 0.07,-1.36 1.09,-1.11 1.59,-0.32 -0.35,-0.14 -0.03,-0.35 -0.55,-0.49 -0.47,0.36 -0.35,-0.4 0.26,-0.37 0.03,-0.6 0.94,-1.34 -0.29,-1.42 0,0 0.76,-0.31 1.34,0.06 1.03,-0.69 0.43,0.52 1.2,-0.26 0.26,-0.38 -0.09,-1.04 0.9,-0.47 -0.07,-0.68 -0.81,0.17 -1.07,-0.94 -0.24,-0.46 0.19,-0.54 0.76,-0.55 -1.29,-1.76 -0.54,-1.8 -0.28,0.2 -0.23,-0.26 -1.26,-0.37 -0.51,-0.67 1.29,0.06 0.07,-0.59 -1.57,-0.47 -0.83,0.1 -0.49,0.31 -0.86,-0.2 -0.12,0.71 -1.89,-0.96 -1.52,-1.27 -0.6,-0.02 -0.81,0.46 -1.14,-0.16 0.21,-0.65 1.2,-0.66 0.68,-1.3 0.82,0.37 0.86,-0.02 0.58,0.74 0.5,0.08 0.5,-0.25 0.45,0.09 0.08,-0.49 0.33,-0.06 0.13,-0.93 0.36,-0.54 3.22,-0.2 0.58,0.36 0.64,-0.3 1.98,0.36 2.11,1.04 1.13,0.06 1.68,0.95 1.01,0.19 0.64,0.62 3.17,-0.02 2.53,-0.95 3.28,1.25 2.38,0.06 4.16,-0.31 6.25,-1.65 0.43,0.19 -0.14,-0.51 0.4,0.02 0.37,-0.46 0.73,-1.7 1.04,0.02 0.09,-1.04 2.65,-1.71 -0.2,-1.97 0.68,-1.72 0.32,0.08 0.36,0.71 0.88,-0.91 1.09,1.02 0,1.3 0.98,0.24 0.77,-0.16 0.48,0.58 1.68,-0.3 0.13,0.55 0.85,-0.24 0.29,-0.57 0.97,-0.35 1.21,-0.02 1.23,0.32 0.03,-1.1 0.63,-0.55 -0.01,-2.17 0.17,-0.09 2.2,0.6 2.22,-0.85 0.49,0.28 2.42,0.14 5.39,-1.68 1.37,0.11 0.9,-2.38 3.58,-3.91 1.28,-0.84 3.2,-1.36 0.27,-0.39 0.36,-2.15 0,0 17.16,-9.07 1.14,-0.52 0.38,0.82 0,0 -2.28,2.25 -1.04,3.58 -5.46,5.61 z" 
                fill="rgb(151, 144, 238)" 
                stroke="white" 
                stroke-width=".7px"
                title="South Karelia" 
                id="FI-02" 
            />
        </svg>