<svg xmlns="http://www.w3.org/2000/svg" viewBox="216.11348999999993 597.61577 111.06000000000014 102.20999999999981" width="111.06000000000014" height="102.20999999999981">
            <path 
                d="m 293.59349,598.09577 -0.4,2.05 -1.11,0.74 0.87,0.32 -0.05,0.4 -0.66,0.82 -0.81,0.54 -0.57,-1.13 -0.77,0.84 -1.81,-0.27 -0.23,0.18 -0.02,0.17 0.76,0.44 0.48,-0.04 1.06,0.64 -0.74,1.38 -1.47,-1.24 -0.26,0.16 -0.67,-0.47 -0.34,0.15 -1.06,-0.4 0.35,0.49 -0.47,0.84 0.01,0.97 0.32,0.53 -0.24,0.14 -0.46,1.6 -0.36,-0.1 -0.24,0.5 0.78,1.22 -0.3,1.62 -0.8,0.07 -1.03,-0.79 -0.63,0.15 -0.49,-0.38 -0.43,0.82 0.69,0.7 -0.05,0.77 -0.36,-0.05 -1.08,0.74 -0.21,0.58 1.21,0.73 0.04,1.41 1.21,0.68 0.26,0.39 -0.35,0.63 0,0 0.11,0.66 0,0 1.77,0.24 0.46,1.52 -0.15,1.98 0.6,0.3 2.89,-1.67 4.87,6.08 0,1.52 -0.46,0.91 -1.07,1.22 -1.97,0 -4.26,-1.98 -1.82,-0.3 -2.13,-1.22 -0.76,0 -1.98,0.61 -3.64,0 -3.64,-2.53 -0.13,0.41 -1.49,-1.78 -0.81,-0.54 0.05,0.78 -1.17,-0.49 -0.52,0.59 -0.33,-0.14 -0.52,-1.11 -0.93,-1.15 -1.52,-0.83 -0.15,-1.17 1.12,-1.3 -0.3,-0.47 -2.15,-0.51 -0.26,-0.96 -0.98,-0.75 -0.74,-1.36 -1.93,-2.09 -3.33,-1.51 -0.23,-0.84 -0.29,0 -1.04,-0.83 -0.25,-0.58 -0.69,-0.1 -0.13,-0.78 -0.65,-0.93 -0.55,0.51 0.79,0.49 -0.17,0.56 -0.5,-0.05 0.3,0.78 -0.67,-0.01 -1.11,0.78 -0.56,1.62 -0.3,-0.2 -0.26,0.12 -0.53,-0.73 -0.02,-0.38 -0.74,-0.05 -0.28,1.16 -0.38,0.13 -0.12,-0.32 0.42,-0.54 -0.22,-0.26 -0.62,0.55 0.14,0.96 -0.84,-0.2 0.19,-0.4 -0.32,-1.19 -1.61,-1.69 0.15,0.53 -0.4,0.23 -0.12,0.71 -0.73,-0.19 -0.62,1.16 -2.07,0.09 -0.81,-1.33 -0.16,0.07 -0.56,0.75 0.73,1.31 -0.52,1.06 -0.59,-0.99 -0.9,-0.54 -0.68,-0.77 -0.22,-0.66 -0.25,0.4 -0.44,0.12 -0.41,0.57 -0.4,0.14 -0.51,0.85 0.51,0.92 -2.23,1.26 -1.72,-2 0,0 -0.35,0.47 0.21,1.33 -0.79,1.58 2.94,3.36 -3.38,0.9 0.14,0.82 -0.27,0.27 0.56,1.26 -0.36,0.12 -0.04,0.22 -1.9,0.55 0.71,0.83 -0.2,1.08 0.45,1.78 0.59,0.57 -0.23,1.08 -0.68,0.31 -0.47,-0.34 -0.25,-1.05 -0.31,0.26 -0.22,-0.22 -1.48,-2.31 -0.71,0.69 -0.28,-0.16 0.09,0.58 -1.18,0.18 0.54,1.21 -0.84,0.77 -0.32,-0.2 -0.34,0.72 -0.34,-0.09 0.02,-0.69 -0.13,-0.33 -0.19,0.02 -0.45,0.53 -0.01,0.71 -1.52,0.07 0.01,0.22 -1.14,0.74 -0.5,-0.5 -2.97,5.54 6.15,9.94 -2.31,1.34 -0.29,1.34 0.24,0.71 0.03,1.54 -0.55,1.44 0.87,-0.39 0.83,0.15 -0.17,0.87 0.53,1.14 -0.32,0.47 0.15,0.71 -0.26,0.54 0.11,0.97 -0.37,0.43 1.1,0.29 0.81,0.53 1.19,1.81 1.16,2.56 0.35,0.26 0.71,2.33 -0.3,1.85 -0.24,-0.02 0.16,0.14 -0.19,1.28 0.19,-0.26 0.07,0.19 -0.26,1.22 -2.2,-0.89 -1.01,-0.82 -1.28,-0.44 0.1,0.55 -0.3,0.25 0.02,0.39 -0.66,0.37 0.12,0.95 -0.49,0.52 -0.26,-0.09 -0.13,0.37 -0.32,0.03 0,0 0.1,2.36 -0.47,-0.36 -1.35,-0.08 0.37,0.1 0.39,0.71 -0.05,1.05 0.17,0.5 0.34,0.05 -0.22,1.29 -0.76,0.2 0.25,1 1.08,0.1 0.06,-1.18 0.22,-0.02 0.21,0.98 0.48,-0.14 0.24,0.47 -2.71,-0.13 -0.03,0.39 0.68,1.18 0.27,1 -1.6,1.34 0.7,1.39 1.75,1.86 -1.13,1.68 0.09,0.38 1.01,-0.21 0,0.86 2.15,2.18 0.51,0.2 0,0 0.25,-0.23 1.84,0.17 0,0 0.42,0.07 0.47,0.99 0.21,1.81 0.27,0.55 0,0 1.02,-0.35 0.58,0.43 2.23,-1.34 1.24,3.16 -1.26,1.5 0.99,0.95 2.68,-1.56 0.48,-0.68 0.45,-1.82 2.37,-1.01 1.04,-0.13 0.51,2.56 -0.14,0.26 0.95,1.08 0.31,1.04 -0.5,1.8 3.95,2.11 2.11,-0.27 0.73,-0.57 0.62,0.29 1.93,-0.14 0,0 0.76,-0.31 1.34,0.06 1.03,-0.69 0.43,0.52 1.2,-0.26 0.26,-0.38 -0.09,-1.04 0.9,-0.47 -0.07,-0.68 -0.81,0.17 -1.07,-0.94 -0.24,-0.46 0.19,-0.54 0.76,-0.55 -1.29,-1.76 -0.54,-1.8 -0.28,0.2 -0.23,-0.26 -1.26,-0.37 -0.51,-0.67 1.29,0.06 0.07,-0.59 -1.57,-0.47 -0.83,0.1 -0.49,0.31 -0.86,-0.2 -0.12,0.71 -1.89,-0.96 -1.52,-1.27 -0.6,-0.02 -0.81,0.46 -1.14,-0.16 0.21,-0.65 1.2,-0.66 0.68,-1.3 0.82,0.37 0.86,-0.02 0.58,0.74 0.5,0.08 0.5,-0.25 0.45,0.09 0.08,-0.49 0.33,-0.06 0.13,-0.93 0.36,-0.54 3.22,-0.2 0.58,0.36 0.64,-0.3 1.98,0.36 2.11,1.04 1.13,0.06 1.68,0.95 1.01,0.19 0.64,0.62 3.17,-0.02 2.53,-0.95 3.28,1.25 2.38,0.06 4.16,-0.31 6.25,-1.65 0.43,0.19 -0.14,-0.51 0.4,0.02 0.37,-0.46 0.73,-1.7 1.04,0.02 0.09,-1.04 2.65,-1.71 -0.2,-1.97 0.68,-1.72 0.32,0.08 0.36,0.71 0.88,-0.91 1.09,1.02 0,1.3 0.98,0.24 0.77,-0.16 0.48,0.58 1.68,-0.3 0.13,0.55 0.85,-0.24 0.29,-0.57 0.97,-0.35 1.21,-0.02 1.23,0.32 0.03,-1.1 0.63,-0.55 -0.01,-2.17 0.17,-0.09 2.2,0.6 2.22,-0.85 0.49,0.28 2.42,0.14 5.39,-1.68 1.37,0.11 0.9,-2.38 3.58,-3.91 1.28,-0.84 3.2,-1.36 0.27,-0.39 0.36,-2.15 0,0 0.38,-0.97 1.36,-1.32 0.79,-0.41 1.2,-2.09 0.44,-2.03 -0.08,-1.01 -0.7,-1.11 0.93,-0.7 -2.55,-3.33 0.03,-1.52 1.41,-2.76 -2.96,-3.23 0.1,-0.42 -2.01,-0.61 -1.55,-2.86 -1.63,-8.11 0.68,-2.48 -1.22,-1.12 -2.57,-5.41 -0.53,-3.91 -0.85,-1.37 -1.21,-0.7 -1,1.1 -0.75,-0.47 -0.5,0.7 0.19,0.81 -1.34,-0.2 -0.4,-0.26 -0.53,-0.69 0.44,-0.57 -0.08,-0.19 -0.81,-0.77 0.74,-3.75 0.4,-0.63 -0.14,-0.18 -0.22,-0.19 -0.84,0.08 -1.35,-1.1 -1.09,-0.29 0.01,-0.18 1.05,-0.27 -0.17,-0.79 -0.77,-0.33 -2.1,-2.07 0.06,-0.81 -2.58,-1.62 -2.32,-2.8 -3.65,-0.61 -0.68,-0.58 z" 
                fill="rgb(151, 144, 238)" 
                stroke="white" 
                stroke-width=".7px"
                title="Southern Savonia" 
                id="FI-04" 
            />
        </svg>