<svg xmlns="http://www.w3.org/2000/svg" viewBox="117.50348999999987 688.36577 68.18000000000002 50.679999999999495" width="68.18000000000002" height="50.679999999999495">
            <path 
                d="m 174.20349,688.36577 0.4,2.77 0.19,0.06 0.64,-0.52 0.66,1 0.56,-0.23 0.79,-0.79 0.53,2.83 2.47,-0.54 2.41,0.95 0.64,0.02 -0.05,1.17 0.82,0.74 0.35,0.78 0.6,0.26 0.17,0.61 -0.3,0.68 0.6,1.28 -1.04,1.03 0.21,0.55 0.47,0.3 -1.36,1.55 -0.57,1.88 -0.95,0.18 -0.55,0.69 -3,0.89 -1,1.27 0.4,0.72 0.23,0.03 -0.08,0.57 -0.57,0.57 0.04,0.39 0.88,-0.11 -0.14,0.5 0.29,0.17 -0.65,1.33 -0.46,0.42 -0.52,2.13 1.24,0.08 1.5,0.6 0.49,3.53 -0.59,0.05 -0.4,1.54 0.41,1.12 0.45,0.03 0.12,0.49 0,0 -0.13,0.4 1.59,1.95 -0.05,0.64 -1.98,0.41 -0.16,0.76 -0.86,1.67 0.24,0.72 1.68,-2.07 0.85,0.97 1.49,0.48 -1.52,0.55 -1.9,1.14 0.8,2.41 -1.57,-0.47 -0.25,-0.63 -0.61,-0.41 -3.2,0.72 0,0.29 -0.41,0.1 -0.09,0.31 -0.74,-0.02 -0.11,0.28 -1.92,0 -0.03,-0.47 -0.73,-0.31 -0.44,1.05 -0.55,0.05 -0.39,-0.32 -0.86,0.75 -1.54,-0.12 -1.11,-0.69 -0.56,0.07 -0.78,-0.54 -1.53,1.99 -0.11,2.3 0.41,1.01 -0.89,1.69 -3.94,0.45 -0.81,-1.67 0.33,-0.91 -0.82,-0.72 -1.11,-0.53 -1.74,1.77 0.31,0.9 -0.59,0.3 -1.62,-2.17 0.06,-1.19 -1.93,-0.65 -1.36,0.3 -0.93,-0.36 -0.62,0.04 -1.4,-1.05 -2.29,0.4 -1.2,-0.57 -0.44,-0.46 -0.63,0.26 0,0 -0.87,-0.29 -0.35,0.14 -1.54,-0.24 -2.13,0.24 -1,-0.73 -1.01,0.38 -0.31,-0.87 0.2,-0.8 -1.84,-0.71 -1.57,-0.06 -1.02,-0.55 -0.42,-0.96 -0.88,-0.61 0.01,-1.11 -0.48,-0.2 -1.45,-0.02 -3.44,1.93 -1.69,-0.51 -0.18,0.83 -0.96,-1.3 -2.38,-2.08 -0.49,-0.64 1.41,-2.76 0.93,-0.55 -0.27,-0.27 -2.52,-0.64 -0.09,-2.97 0.62,-0.51 3.45,0.22 -0.21,-1.62 -0.23,-0.38 1.16,0.18 -0.03,-0.58 0.39,-0.72 -0.31,-0.35 0.15,-0.8 -1.3,-0.63 -1.73,-2.45 0,0 0.55,-0.4 1.58,0.07 0.11,-0.46 -0.27,-0.4 0,0 2.33,0.64 0.89,-0.24 0.67,0.95 0.34,1.21 0.5,0.78 0.24,0.12 0.22,-0.3 0.62,0.02 0.93,0.55 0.11,-0.16 -0.44,-0.29 -0.12,-0.4 0.15,-0.12 -0.28,-0.26 0.41,-0.12 0.29,-0.47 0.95,-0.25 0.92,0.35 0.33,-0.67 0.63,0.24 0.13,-0.33 0.61,0.34 -0.44,0.29 0.38,0.44 0.73,-0.49 0.35,-0.73 0.34,-0.12 1.84,0.02 0.85,-0.35 0.75,0.54 0,0 0,0 0,0 -0.02,0.64 0,0 0,0 0,0 0.59,0 0.35,-0.29 0.9,0.52 1.45,3.2 0.79,-0.97 -0.4,-1.63 -1.13,-1.39 0.55,-0.15 0.03,-0.59 0.34,0.2 1.04,-0.89 -0.42,-0.96 -2.3,0.75 0.33,-0.68 -0.22,-0.45 0.17,-0.49 -1.41,-0.5 1.47,-1.41 0.64,-0.2 0.71,0.49 1.46,-0.58 4.16,-2.34 0.31,-0.37 0.45,-0.01 0.54,0.33 0.14,-0.24 1.37,-0.31 1.09,0.33 0.11,-0.16 -0.38,-0.72 0.19,-0.49 1.44,-0.07 1.55,-0.39 1.42,-1.82 0.05,-0.35 0.26,-0.03 0.48,-0.57 -1.06,-1.12 -0.32,-0.83 0.57,-0.53 -0.12,-0.12 0.29,-0.58 0.82,0.43 2.55,-1.04 0.35,0.17 0.16,-0.51 0.53,0.06 0.29,-0.65 0.57,-0.42 0.34,0.14 1.13,-1.02 2.54,-1.42 0.54,0.97 0.23,-0.09 2.05,0.87 0.82,-0.12 0.62,0.53 0.31,-0.55 0.5,-2.5 1.17,3.23 1.24,-0.26 2.53,-0.94 -0.28,-0.68 z" 
                fill="rgb(151, 144, 238)" 
                stroke="white" 
                stroke-width=".7px"
                title="Tavastia Proper" 
                id="FI-06" 
            />
        </svg>