<svg xmlns="http://www.w3.org/2000/svg" viewBox="107.05349000000007 720.1857700000018 126.09999999999997 66.53999999999894" width="126.09999999999997" height="66.53999999999894">
            <path 
                d="m 204.19349,756.86577 -0.2,0.37 0.15,0.35 -0.58,0.39 -0.5,-0.23 -0.71,0.12 -0.11,1.14 0.2,0.33 -0.3,0.12 -0.71,-0.86 -0.24,0.04 -0.02,0.34 -0.93,-1.13 -0.42,-0.03 -0.21,-1 -1.09,0.15 -0.31,-0.32 -0.29,-1.62 -0.43,-0.19 0.04,-0.92 -0.42,-0.3 1.54,-0.39 0.96,0.06 0.31,0.72 0.67,0.48 0.68,0.15 0.08,0.6 0.35,0.11 0.42,1.25 0.89,0.34 0.89,-0.32 0.29,0.25 z m 5.24,-0.93 -0.2,-0.32 0.15,-1.58 -0.38,-0.03 -0.29,-0.46 0.32,-0.47 -0.37,-0.09 -0.22,-0.38 -0.43,0.12 -1,-0.91 -0.29,0.96 0.25,0.03 0.44,1.33 0.23,0.1 0,0.89 -0.7,0.21 0.24,0.8 -0.02,0.34 -0.27,0.1 0.23,0.91 0.52,-0.37 0.84,-0.14 0.54,-0.68 0.31,0.63 0.54,-0.11 0.4,-0.53 -0.27,-0.19 -0.57,-0.16 z m -10.89,2.09 -0.31,-0.18 -0.11,0.22 -0.29,-0.29 -0.05,-0.71 -0.51,-0.17 0.13,-0.3 -0.62,-0.05 -0.29,-0.81 0.34,-0.56 -0.52,-0.82 -0.88,0.85 -0.14,2.59 0.49,1.06 0.92,0.75 -0.7,0.6 0.7,0.9 0.33,-0.03 0.01,0.67 0.54,-0.41 -0.11,-1.29 0.72,0.03 0.11,-0.68 0.39,0.02 -0.21,-0.74 0.06,-0.65 z m 17.2,-32.32 0.63,0.61 0.76,-0.01 0.07,-0.8 0.46,-0.05 0.25,0.43 0.75,0.42 -0.03,1.17 0.96,1.11 -0.16,1.16 0.43,1.27 0.76,0.54 -0.45,0.45 2.62,0.72 0.75,0.56 0.92,1.78 0.06,1.05 0.9,-0.07 0.9,0.23 0.15,1.17 0.72,-1.99 0.9,-1.35 0.12,-0.92 1.5,-0.59 1.18,0.16 1.98,4.16 0.28,0.62 -0.8,-0.21 -1.04,-0.64 -0.83,-1.35 -0.49,-0.29 -1,0.04 -1,0.38 -1.42,2.12 -0.17,1.31 -0.73,0.24 -0.32,-0.17 -0.17,0.45 -0.47,0.22 0.63,0.66 0.05,0.45 -1.3,0.84 -0.23,0.82 0.12,0.38 -0.32,0.34 0,0 -0.27,-0.11 -0.18,0.97 0.37,0.34 0,0.3 -0.37,-0.16 -0.05,0.22 0.52,0.83 0.14,1.35 -0.18,0.12 -0.07,0.92 -0.32,0.23 -0.75,-0.21 0.13,-0.4 -0.21,-0.36 -0.51,-0.01 0.41,1.05 -0.18,0.25 0.34,1.51 -1,-1.19 0.11,-0.29 -0.77,-0.07 0.18,0.72 -0.75,-0.45 -0.58,0.45 0.58,0.9 -0.47,0.06 -0.03,0.72 -0.61,-0.11 -0.22,-1.08 -0.56,-1.03 0.28,-0.75 -0.58,-0.29 0.18,-0.47 -1.15,-1.14 0.04,-0.33 -0.38,-0.56 -0.19,0.38 0.47,2.25 0.34,0.57 -0.28,0.19 0.37,0.61 0.19,-0.03 -0.02,0.52 -1.4,-0.3 -0.04,-0.64 -0.5,0.12 -0.2,-0.3 -0.55,-0.19 -0.45,-0.8 0.2,1.67 0.61,0.02 0.09,0.36 -0.42,0.99 0.59,-0.17 0.2,0.67 -0.14,0.41 -1.22,-0.48 -0.47,-0.62 0.32,-0.45 -0.37,-0.47 -0.48,-0.1 -1.4,-1.16 0.01,-0.56 -0.72,-0.79 -0.37,0.23 -0.07,0.51 -0.76,-1.09 -2.08,-2.16 -0.37,0.42 0.22,0.48 -0.21,0.41 0.09,0.47 0.17,0.15 0.95,-0.38 0.18,1.23 1.35,1.11 -0.76,1.17 -0.07,0.55 0.85,0.42 1.24,2.1 0.68,0.05 0.24,0.45 -0.21,0.57 0.23,0.32 -0.8,0.82 0.14,0.24 -0.23,0.28 -0.46,-0.12 -0.59,0.25 -1.04,-0.18 0.43,-0.76 -0.23,-0.23 -0.35,-1.48 -0.29,0.17 -0.43,-0.75 -1.52,-0.27 -0.32,-0.47 0.08,-0.27 -0.94,-0.43 -0.41,-1.55 -0.91,-0.77 -0.92,-0.21 0.15,0.27 0.35,0.04 0.33,0.89 0.75,0.5 0.2,0.94 0.43,0.41 0.42,1.08 -0.22,0.32 0.2,0.12 -1.7,1.18 0.56,1.11 0.19,-0.12 0.45,0.44 -0.15,0.42 -0.41,0.07 0.19,0.84 0.42,-0.07 0.22,0.29 -0.25,0.41 0.86,0.63 -0.03,0.6 -0.87,0.45 -0.47,0.17 -0.71,-1.26 -0.25,-0.68 0.03,-1 -0.32,-0.08 -1.07,0.42 -0.44,-0.22 -0.44,-0.97 -0.54,-0.44 -0.4,-0.73 -0.49,-0.18 0.06,0.5 -0.21,0.01 -0.56,-0.4 -0.38,-0.75 -0.61,-0.4 -1.03,0.41 -0.41,-0.12 -0.16,-0.3 0.1,-0.84 0.68,-0.07 0.05,-0.42 1.4,1.14 0.31,-0.68 -0.83,-0.39 0.43,-0.68 -0.52,-0.57 -0.11,0.25 -0.7,-0.08 -1.55,2.24 0.24,0.06 -0.19,0.65 -0.47,-0.02 -0.67,0.91 -0.38,-1.15 -1.2,0.06 -0.21,0.25 -0.3,-0.29 -0.04,0.5 0.46,-0.01 0.55,0.37 0.26,0.72 -0.61,1.75 -0.77,0.71 0.01,0.41 -0.65,0.8 0.1,0.22 -0.31,-0.01 -0.38,-0.4 -0.94,0.27 -2.02,-0.14 0.24,-1.02 -0.44,-0.03 -0.81,0.37 -0.14,0.43 -1.99,0.11 -0.76,0.35 -0.45,-0.17 -0.32,0.39 -0.6,0.09 -0.21,0.76 -0.73,-0.25 0.06,1.7 -0.35,0.23 0.32,0.32 -0.29,0.33 -0.32,0.28 -0.2,-0.61 -0.88,0.16 0.64,1.03 -1.8,-1.1 -0.94,0.15 0.15,0.4 -0.18,0.33 -0.64,-0.15 -0.95,0.64 -0.28,-0.04 -0.26,-1.14 0.77,-0.1 -0.25,-0.38 0.06,-0.59 -0.5,-0.09 0.06,0.42 -0.31,0.08 -0.42,1.5 -0.81,0.42 0.3,0.91 -0.14,0.55 -0.89,0.02 -0.36,0.43 -0.61,-0.46 0.1,-0.31 -0.21,-0.23 0.28,-1.15 -0.22,-0.34 -0.19,0.19 -0.72,-0.25 -0.16,-0.51 -0.54,-0.35 0.06,-0.35 -0.3,-0.24 -0.15,0.4 -0.34,-0.03 -0.38,0.35 0,0.55 0.67,-0.17 0.1,0.17 -0.2,1.41 0.64,0.19 0.24,-0.36 0.18,0.34 0.39,-0.24 0.36,0.08 0.11,0.63 -0.25,0.13 0.15,0.71 -0.63,0.03 0.06,-0.53 -0.52,0.08 -0.14,-0.68 -1.25,-0.31 -0.28,0.51 -1.58,0.58 -0.17,0.4 -0.92,-0.17 -1.16,0.53 0.92,0.54 0.43,-0.31 0.24,0.56 -0.72,0.22 -0.75,-0.33 -0.36,0.42 0.3,0.23 -0.39,0.1 -0.66,-1.58 -0.4,0.24 -0.27,-0.93 -0.33,-0.3 -0.29,0.08 -0.08,0.25 0.44,0.37 -0.01,0.78 -0.46,0.89 0.72,0.31 0.24,-0.43 0.32,0.98 -0.28,0.8 -1.95,2.05 -0.34,0.08 -0.58,1.05 -0.38,0.08 0.28,0.85 -0.59,0.5 -0.7,0.08 0.13,0.75 -0.26,0.38 -0.5,0.48 -0.78,0.27 -0.12,0.28 -0.64,0.15 -0.21,0.44 -0.61,-0.14 -0.68,0.88 0,-0.95 0.99,-0.68 0.35,-1 -0.33,-0.08 1.23,-1.59 -0.61,0.18 -0.07,-0.84 -0.44,0.24 -0.21,0.58 -0.21,-0.28 -0.3,1.08 -0.74,0.08 -0.07,-0.75 -0.32,0.18 -0.45,-0.14 -0.29,0.17 -0.13,0.8 0.26,0.26 -0.49,0.32 -0.14,-0.15 -0.36,0.15 -0.01,-0.72 0.57,-0.95 0.73,-0.49 -0.04,-0.83 0.54,-0.6 -0.2,0.08 0.15,-1.53 -0.82,-0.59 -0.37,0.14 -0.21,0.7 -0.37,-0.01 0.17,-0.24 -0.58,-0.35 -0.12,0.54 -0.33,0.12 0.3,0.22 -0.18,0.33 0.66,0.33 0.01,0.28 -0.49,0.24 -0.68,-0.22 -0.51,0.41 -0.03,0.45 -0.61,0.17 -0.79,-0.95 0.08,0.71 -0.39,-0.08 -0.1,-0.72 -0.27,0.23 -0.23,-0.35 -0.16,0.25 -0.5,-0.05 -0.32,0.56 0.35,-0.01 0.2,0.44 0.46,0.13 0.33,0.48 -0.07,0.34 -0.28,-0.15 -0.02,0.2 -0.49,0.07 -0.13,-0.17 -0.25,0.2 -0.52,-0.26 0.13,-0.31 -0.54,-0.17 0.01,-0.52 0.47,-0.1 0.06,-0.42 -1.08,0.78 0.3,0.52 -0.31,-0.03 -0.13,0.43 -0.45,-0.28 0.08,-0.15 -1.07,0.06 0.64,0.38 0,0.37 -0.28,-0.26 -1.63,-0.1 -0.21,-0.77 0.14,-0.34 0.38,-0.18 -0.81,-0.01 -0.48,0.5 0,0.5 -1.27,1.26 -1.02,-0.1 -1.31,-0.5 -0.61,0.09 2.19,0.86 -0.11,0.83 -0.4,-0.35 -1.28,0.14 -0.12,-0.18 0.27,-0.07 0.38,-0.75 -1.3,0.42 -1.03,1.93 -0.76,0.46 -0.68,0.05 -0.06,-0.31 0.52,-0.03 -0.4,-1.02 -0.61,0.33 -0.4,-0.31 -0.88,0.05 0.15,0.24 0.71,0.12 0,0.56 -0.39,0.23 0.17,0.61 -0.49,-0.03 -0.52,-0.91 -0.29,0.1 0.25,0.46 -0.17,0.17 0.57,0.5 0.24,0.71 -0.78,-0.27 -0.49,0.54 -0.54,0.19 -1.22,-0.01 -0.6,-0.31 -0.95,0.42 -1.44,-0.2 -2.57,0.83 -0.3,0.41 -1.25,0.11 -0.3,-0.11 0.03,-0.25 -0.42,-0.24 -0.09,-0.5 -0.26,-0.12 0.38,-0.5 1.1,-0.67 0.94,0.7 0.23,-0.13 -0.31,-0.52 0.1,-0.5 2.49,-1.37 -1.17,-0.12 -0.57,0.2 -0.25,0.71 -0.56,0.12 -0.16,0.27 -0.74,0.08 0.18,-0.83 -0.51,-0.3 -0.25,0.25 0.04,0.36 -0.28,0.04 -0.15,0.58 -0.26,0.12 -0.13,0.96 -0.28,0.4 -1.88,1.04 -0.38,0.69 -1.02,0.45 -0.17,0.31 -0.93,0.17 -0.39,0.34 0,1.02 0.3,0.2 -0.13,0.41 0.47,0.17 -0.39,0.44 0.02,0.36 0.27,0.01 0.24,0.5 -0.7,0.18 -0.31,-0.15 -1.27,0.77 -0.47,-0.46 -0.19,0.29 -0.39,0.06 0.04,0.2 -1.04,0.11 -0.36,-0.03 0.04,-0.38 -0.41,-0.15 -0.28,0.29 0.23,0.2 -0.31,0.16 -0.73,-0.27 0.21,0.52 -0.24,0.01 -0.28,-0.37 -1.25,0.29 -0.36,-0.25 -1.43,0.57 -0.58,-0.38 -0.89,0.87 -0.41,0.01 -0.1,-0.2 0.38,-0.46 -0.04,-0.3 0.71,-0.3 -0.03,-0.5 0.32,0.08 -0.03,-0.58 0.44,-0.13 0.22,0.29 0.33,-0.17 0.09,-0.35 0.59,0.22 0.63,-0.66 0.64,-0.22 0.13,-0.36 0.68,0.02 0.2,-0.35 0.45,0.03 0.29,-0.73 0.81,-0.08 0.01,-0.27 1.79,0.04 0.38,-0.36 -0.33,-1.2 0.12,-0.41 -0.62,-0.3 0.29,-0.89 0.26,-0.25 0.73,-0.11 0.84,-1.1 -0.59,-1.1 -0.53,0.43 0.11,0.77 0.32,0.17 -0.26,0.54 -0.37,0.24 -0.39,-0.12 0.02,-0.44 0.31,0.19 -0.04,-0.55 -0.31,-0.51 -0.34,0 -0.45,0.31 0.04,0.91 -0.33,0.36 -0.42,-0.03 0.03,-0.21 -0.44,-0.14 0.29,-2.28 0.36,-1.12 0.55,-0.22 0.13,0.13 0.48,-0.48 1.39,-0.29 0.65,-1.11 -0.49,-0.13 -0.38,0.27 -0.4,0.82 -2.47,0.8 -1.16,0.99 -0.28,-0.15 -0.61,0.2 -0.17,0.49 0.59,0.08 0.8,-0.37 0.12,0.38 -0.38,0.61 0.22,0.03 -0.21,0.36 0.12,0.24 -0.44,0.61 0.4,0.76 -0.03,0.94 -0.67,0.39 -0.35,-0.16 -0.22,0.54 -0.16,-0.18 0.11,-0.58 -0.37,-0.08 -0.38,-0.76 -0.56,-0.12 -0.27,-1.05 -0.29,0.34 -0.14,1.03 0.49,-0.17 0.19,0.32 0.31,-0.04 0.4,1.07 -0.75,-0.8 -0.37,0.59 -0.47,-0.17 -0.03,0.38 -0.51,0.36 -0.63,-0.38 -0.55,0.14 -0.54,-0.25 -0.64,-0.86 -0.17,-0.66 -0.33,-0.18 0.52,-0.62 -0.41,-0.55 -0.57,-0.33 -0.23,0.09 -0.24,-0.89 -0.3,-0.07 -0.16,-2.36 0.6,-0.15 0.09,-0.26 0.35,0.06 0.12,0.45 -0.32,0.14 0.22,0.4 -0.27,0.01 0.14,0.92 0.44,0.11 -0.38,0.43 0.41,0.15 -0.19,0.54 0.17,0.44 0.8,-0.85 0.6,-0.06 0.38,0.46 0.16,-0.24 -0.23,-0.71 0.24,-0.27 1.2,0.03 0.14,0.15 -0.17,0.61 0.56,-0.02 0.19,0.51 0.26,0.08 0.06,-0.3 0.78,-0.26 -0.14,-0.4 0.25,-0.3 0.39,0.01 0.11,-0.75 -0.41,0.09 -0.21,-0.25 -0.02,-0.84 -0.52,-0.55 0.19,-0.24 -0.35,-0.16 0.32,-0.49 0.95,-0.54 0.89,0.45 1.76,0.32 0.29,-0.49 1.31,-0.46 -0.11,-0.16 0.27,-0.45 0.53,-0.21 1.76,0.31 -0.78,1.2 0.3,0.27 0.54,-1.09 0.92,-0.51 -1.01,-0.07 -0.22,-0.4 -2.53,0.04 -0.57,0.12 -0.21,0.45 -0.33,-0.03 -0.39,0.43 0.29,0.44 -0.19,0.46 -0.82,-0.28 -0.01,-0.22 -0.57,0.24 -0.26,-0.4 0.37,-0.02 0.2,-0.28 -0.66,-0.1 -0.21,-0.38 0.13,-0.22 -0.47,-0.38 -0.51,0.56 -0.51,-0.06 -0.36,-0.48 -0.12,-0.94 1.06,-0.06 0.01,-0.33 -0.57,-0.24 0.78,-0.35 0,0 0.94,0.87 0.41,-0.52 0.11,0.19 2.46,-0.54 1.51,-1.38 -0.01,-0.7 0.63,-0.05 1.56,-1.15 0.49,-0.11 0.14,-1.44 0.75,-0.77 0.62,0.04 -0.31,0.98 1.51,1.41 0.53,-1.06 1.16,0.12 1.58,-0.42 2.76,-1.95 1.07,0.13 0.83,0.54 1.16,-0.67 -0.51,-2.02 0.38,-0.22 -1.93,-1.34 0.3,-0.37 0.56,0.12 0.12,-0.64 0.35,0.71 0.05,-1.39 0.51,-0.1 0.93,-1.24 0.51,0.57 1.23,-0.88 0.23,-1.97 -0.05,-1.21 -0.34,-0.24 0.02,-0.56 0.67,-0.13 0.91,-1 0.48,-0.01 -0.11,-1.3 0.27,-1.47 -0.29,-1.33 -2.84,-0.02 0.62,-0.9 -0.12,-0.55 0.82,-1.15 2.58,-0.28 0.7,0.2 0.86,-0.88 -0.02,-1.02 -0.5,-0.66 0.43,-0.25 0.01,-0.31 -0.6,-1.12 1.35,-0.14 0,-0.94 0.98,-1.83 -0.02,-0.38 -1.59,-0.77 1.03,-2 0,0 0.63,-0.27 0.44,0.46 1.2,0.57 2.29,-0.4 1.4,1.05 0.62,-0.04 0.93,0.36 1.36,-0.29 1.92,0.65 -0.06,1.18 1.62,2.17 0.59,-0.3 -0.31,-0.9 1.74,-1.77 1.1,0.53 0.82,0.72 -0.33,0.92 0.81,1.67 3.95,-0.45 0.89,-1.68 -0.41,-1.01 0.11,-2.3 1.53,-1.99 0.79,0.54 0.56,-0.07 1.11,0.69 1.53,0.12 0.86,-0.74 0.39,0.32 0.55,-0.06 0.44,-1.05 0.73,0.31 0.03,0.47 1.92,0.01 0.11,-0.28 0.74,0.01 0.1,-0.31 0.4,-0.1 0,-0.29 3.2,-0.72 0.6,0.41 0.26,0.63 1.57,0.48 -0.81,-2.42 1.9,-1.13 1.53,-0.56 -1.5,-0.48 -0.85,-0.97 -1.68,2.08 -0.24,-0.72 0.87,-1.67 0.15,-0.75 1.99,-0.41 0.04,-0.64 -1.59,-1.95 0.14,-0.41 0,0 2.46,-0.2 0.12,-1.06 0.27,-0.35 0.34,-0.05 0.43,2.4 2.01,1.73 0.47,1.68 0.68,-0.56 1.92,0.48 1.74,-2.8 1.24,0.16 1.32,3.2 0.32,1.51 -0.18,1.09 2.88,2.12 0.11,-0.44 1.05,-0.12 -0.02,-0.8 1.03,0.07 0.56,-1.04 0.82,-0.71 0.8,0.67 1.01,-0.08 1.78,-0.36 0.79,-1.09 1.8,-0.27 0.62,1.98 3.01,-0.69 2.61,1.96 1.05,-0.3 2.31,-1.67 0.3,-0.86 -0.43,-1.74 z" 
                fill="rgb(151, 144, 238)" 
                stroke="white" 
                stroke-width=".7px"
                title="Uusimaa" 
                id="FI-18" 
            />
        </svg>