<svg xmlns="http://www.w3.org/2000/svg" viewBox="0.2834879900000027 738.8357700000004 52.24000001 42.009999999999536" width="52.24000001" height="42.009999999999536">
            <path 
                d="m 47.493488,778.83577 0.59,0.58 -0.24,0.17 -0.41,-0.22 -0.67,0.84 -0.42,-0.46 0.19,-0.63 -0.13,-0.17 1.09,-0.11 z m -2.69,-0.25 -0.3,0.78 0.7,0.9 0.7,0.17 0.09,0.38 0.76,0.03 0.11,-0.37 -0.51,-0.06 0.17,-0.26 -0.35,-0.2 0.2,-0.49 -0.05,-0.42 -0.25,-0.15 0.16,-0.2 -0.18,-0.08 0.01,-0.43 -0.31,-0.13 -0.18,0.38 -0.77,0.15 z m 1.46,-1.18 0.07,0.63 0.48,0.34 0.2,0.45 0.66,-0.08 0.73,0.53 -0.26,0.29 0.36,0.25 0.5,-0.17 -0.16,-0.3 0.17,-0.34 -0.25,0.03 -0.01,-0.49 -0.83,-0.04 -0.26,-0.54 0.58,0.31 0.94,0.03 0.12,-0.62 -0.22,0.13 -0.21,-0.35 -0.41,0.32 -0.43,-0.52 -0.54,0.17 -0.31,-0.4 -0.56,-0.03 -0.36,0.4 z m -15.18,-1.99 0.41,0.02 0.22,-1.14 -0.3,0.01 -0.49,-0.65 -0.29,0.01 -0.04,0.2 -0.5,-0.27 -0.38,0.17 0.75,1.1 0.62,0.55 z m -3.38,-1.9 -0.23,0.35 0.11,0.24 0.64,-0.1 -0.27,0.35 -0.66,0.12 -0.56,0.96 -0.22,-0.04 0.19,0.43 0.33,0.17 0.04,-0.33 0.25,-0.06 0.26,0.34 0.01,-0.29 0.42,-0.25 0.01,-0.4 0.35,0.28 0.25,-0.68 0.38,0.19 -0.4,0.32 0.25,0.53 -0.12,0.17 0.79,0.18 -0.05,-0.45 0.88,0.19 0.04,-0.74 -0.82,-1.23 -0.38,-0.16 0.03,0.38 -0.75,-0.76 -0.77,0.29 z m -11.81,-0.74 0.75,0.08 -0.14,0.37 1.07,0.88 0.28,-0.59 -0.28,-0.1 -0.09,-0.46 -0.56,0.01 -0.17,-0.34 -0.96,-0.27 0.1,0.42 z m -0.23,-0.71 0.5,0.34 0.41,-0.01 0.08,-1.14 -0.99,0.81 z m 19.72,-0.92 -0.67,-0.5 -0.03,0.22 -0.7,0.35 -0.1,0.25 0.34,0.35 -1.22,1.39 0.29,0.86 0.35,0.01 -0.13,0.24 1.23,-0.21 -0.21,-0.63 0.63,-0.56 -0.24,0.56 0.14,0.36 0.75,-0.07 0.27,-0.13 -0.01,-0.26 0.25,0 0.08,-0.87 0.3,-0.13 -0.38,-0.49 -0.61,0.13 0.02,-0.46 -0.24,-0.21 0.66,-0.48 -0.62,-0.28 -0.15,0.56 z m -2.02,-0.32 -0.24,-0.22 -1.16,0.31 -0.11,0.94 0.34,0.24 -0.53,0.89 -0.06,0.28 0.3,0.31 -0.18,0.17 0.54,0.03 -0.15,-0.22 0.77,-0.58 -0.33,-0.24 0.87,-0.35 0.4,-0.47 -0.24,-0.64 0.46,-0.14 -0.15,-0.36 0.46,-0.04 -0.11,-0.28 -0.78,0.17 -0.1,0.2 z m -2.82,0.16 -0.47,1.03 -0.92,0.86 0.08,0.4 1.14,0.13 0.13,-0.33 0.25,0.15 0.47,-0.19 0.52,-1.14 0.13,-1.04 0.4,-0.44 -0.32,-0.18 -0.55,0.24 -0.86,0.51 z m -2.92,-0.66 0.44,-0.29 0.17,0.23 0.18,-0.55 -0.38,-0.76 -0.38,0.76 -0.03,0.61 z m 4.22,-1.53 -0.42,0.39 0.45,0.22 0.8,-0.19 -0.07,-0.17 0.44,0.06 0.01,0.17 0.63,-0.15 -0.95,-0.64 -0.96,-0.04 0.07,0.35 z m 3.81,0.03 0.59,0.35 0.29,-0.26 -0.5,-0.31 0.4,-0.51 -0.41,-0.18 -0.47,0.54 0.1,0.37 z m -3.21,-1.06 0.61,0.06 0.07,0.34 1.11,0.4 0.92,0.07 -0.04,-0.47 0.3,-0.14 -0.14,-0.4 -1.11,0.21 0.04,-0.29 -0.58,-0.19 -0.27,0.52 -0.02,-0.49 -0.52,0.03 -0.37,0.35 z m 4.94,-2.36 0.07,0.67 0.86,1.29 0.68,0.24 0.18,-0.29 -0.22,-0.22 0.2,-0.27 -0.13,-0.13 0.21,-0.17 -0.32,-0.4 0,-0.58 -0.26,-0.42 -0.66,-0.01 0.21,-0.29 -0.38,0.03 -0.44,0.55 z m -13.05,-0.8 0.14,0.27 -0.25,0.12 0.58,1.06 -0.35,-0.1 -0.3,0.31 -0.03,-0.54 -0.16,-0.27 -0.14,0.11 0.06,0.78 0.4,0.74 -0.5,0.53 0.06,0.51 -0.28,0.44 0.08,0.28 0.66,-0.12 0.13,0.51 0.34,0.31 0.42,0.01 -0.32,0.75 0.52,0.23 0.6,-0.39 0.29,-0.5 -0.33,-0.67 0.05,-1.3 0.31,0.16 0.5,-0.47 -0.46,-0.34 0.27,-1.9 -0.79,-0.5 -0.06,-0.42 -0.44,-0.21 -0.13,0.08 0.34,0.53 -0.32,0.83 -0.12,-0.98 -0.58,-0.62 -0.19,0.77 z m 10.89,-0.1 1.35,-0.27 -0.02,-0.52 -0.84,0.17 -0.49,0.62 z m -7.47,-0.81 -0.11,0.44 -0.16,-0.1 -0.26,0.25 0.33,0.29 0.82,-0.52 -0.11,-0.88 -0.51,0.52 z m 2.96,-0.81 -0.17,0.7 -0.45,0.17 -0.36,0.66 0.41,0.13 0.49,-0.42 0.34,0.12 0.41,-0.86 -0.33,-0.53 -0.34,0.03 z m -4.29,-1.76 -0.52,0.48 -0.01,0.5 -0.75,0.54 0.27,0.71 0.64,-0.39 0.02,-0.83 0.25,-0.42 0.5,0.19 0.43,-0.21 0.2,-0.46 -0.33,-0.45 0.19,-0.7 -0.57,0.04 -0.32,1 z m 11.94,-0.56 0.12,0.5 -0.29,0.24 0.2,0.59 0.53,-0.25 -0.24,0.48 0.24,0.33 0.5,-0.39 0.11,0.19 0.4,-0.08 0.18,-0.47 -0.42,-1.41 -0.53,-0.41 0,0.39 -0.56,-0.67 -0.24,0.96 z m -10.55,-3.75 0.42,-0.05 0.03,0.54 -0.22,0.22 0.11,0.53 -0.71,0.19 0.33,1.11 -0.18,0.36 0.48,0.21 0.44,-0.54 0.58,0.03 -0.46,0.45 0.44,0.34 -0.15,1.1 0.22,0.71 0.63,-0.39 0.18,-0.82 -0.39,-0.15 0.79,-0.29 0.34,-1.35 0.31,-0.2 -0.09,-0.41 -0.37,-0.32 -0.51,0.15 0.09,-0.73 -1.27,-0.93 -0.17,0.1 -0.74,-0.57 -0.47,0.3 0.34,0.41 z m 14.15,-0.89 -0.34,0.98 -0.3,-0.53 -0.22,0.03 0.32,0.67 -0.27,0.01 -0.05,0.37 -0.26,-0.23 -0.26,0.28 -0.02,0.57 1.03,0.84 0.02,0.75 0.88,0.48 0.1,-0.26 0.36,0.37 0.16,-0.38 -0.39,-0.6 0.08,-0.19 0.3,0.17 0.16,-0.37 0.46,-0.21 0.28,0.2 -0.31,-1.63 -0.33,-0.06 -0.38,-0.66 -0.28,-0.09 0.13,-0.26 -0.2,-0.19 -0.45,0.18 -0.22,-0.24 z m -9.06,-0.1 0.45,0.87 0.33,-0.3 -0.42,-1.13 -0.36,0.56 z m -3.56,-0.77 -0.48,-0.01 0.73,1.06 -0.24,0.71 0.65,0.32 0.16,-0.25 -0.31,-0.32 0.39,-0.64 -0.36,-0.39 0.21,-0.47 -0.98,-0.23 0.23,0.22 z m 1.78,-0.5 -0.37,0.06 -0.3,0.82 0.76,-0.47 0.3,0.24 0.16,-0.26 -0.27,-0.44 0.12,-0.44 -0.4,0.49 z m 17.44,-0.95 -0.4,-0.14 -0.13,0.25 0.21,0.28 -0.68,0.26 0.11,0.27 0.5,0.06 -0.12,0.34 0.64,0.57 0.23,-0.33 -0.17,-0.39 0.22,-0.03 0.05,-1.44 -0.28,-0.26 -0.18,0.56 z m -2.55,-0.99 0.77,2.11 0.4,-0.31 -0.17,-0.13 0.08,-0.79 -0.71,-1.53 -0.37,0.65 z m -17.89,-0.47 -0.27,0.1 0.02,0.25 0.99,0.58 0.24,-0.25 0.14,0.26 0.27,-0.34 -0.01,-0.75 -0.67,-0.33 -0.18,0.17 -0.12,-0.32 -0.54,0.03 0.13,0.6 z m -1.34,1.13 0.27,-0.25 0.3,0.24 0.32,-0.52 0.22,-1.51 -0.28,-0.14 -1.17,1.26 0.34,0.92 z m 23.98,-2.12 0.28,1.21 1.07,0.75 0.17,-0.25 -0.59,-0.35 -0.15,-0.36 0.32,-0.15 -0.91,-1.06 -0.19,0.21 z m -9.27,0.22 -0.53,0.57 -0.13,0.96 -0.31,0.22 0.17,1.34 0.22,0.01 0.66,-1.03 0.5,0.12 -0.01,-0.37 0.33,-0.19 -0.13,-0.69 0.29,-0.38 -0.36,-0.84 -0.34,0.08 -0.64,-0.34 0.28,0.54 z m -20.97,-1.38 0.19,0.45 0.32,0.1 0.31,-1.13 -0.29,0.03 -0.53,0.55 z m -0.83,-0.45 0.02,0.21 0.33,0.04 -0.02,0.23 0.27,0.02 0.53,-0.59 0.12,-0.89 -0.62,0.03 -0.63,0.95 z m 30.47,-1.72 0.22,1.05 0.25,-0.52 -0.03,0.84 0.28,-0.01 -0.04,-0.26 0.4,0.11 0.12,-1.09 -0.44,-0.17 -0.39,-0.54 -0.37,0.59 z m -37.82,-0.54 -0.57,0.91 -0.51,-0.55 -0.6,1.4 -0.04,0.67 0.6,0.79 -0.79,-0.15 -0.43,0.99 0.31,-0.16 0.28,0.37 -0.09,0.99 -0.34,0.25 0.8,0.75 0.32,-1.07 -0.49,-0.24 0.31,-0.65 -0.44,-0.26 0.49,-0.14 0.4,0.52 0.42,1.98 0.54,-0.21 0.11,0.21 0.41,-0.01 0.52,-0.97 0.73,0.75 -0.05,0.48 -0.49,0.03 -0.19,0.23 0.49,0.35 -0.6,0.63 -0.11,-1.44 -0.71,0.11 -0.48,0.54 0.05,0.17 0.33,-0.04 0.09,0.57 0.27,-0.52 0.25,0.73 -0.03,0.33 -0.32,0.17 0.2,0.37 0.81,-0.99 0.04,1.36 -0.35,0.82 -0.4,-0.13 -0.29,0.27 0.09,0.82 -0.48,0.47 -0.44,-0.1 -0.34,0.45 0.12,-1.84 -0.68,0.39 0.2,1.4 -0.24,0.08 -0.19,0.57 0.74,0.17 0.09,0.27 -0.44,0.23 0.17,1.36 -0.54,0.11 -0.36,-3.22 -0.78,-0.65 -0.03,-0.38 0.41,-1.3 0.5,-0.76 0.18,-0.98 0.32,-0.12 -0.17,-0.59 -1.6,-0.94 -0.4,0.23 0.36,0.77 -0.05,0.34 -0.26,0.05 0.3,0.95 -0.26,1.02 -0.25,0.14 -0.25,-0.35 0.05,-0.53 -0.46,-0.03 -0.52,0.65 -0.71,-0.73 -0.67,-0.04 0.06,-0.35 -0.29,0.02 -0.19,0.61 -0.27,0.16 0.54,0.95 0.22,-0.11 0.21,1.15 -0.24,0.85 0.42,1 0.55,0.38 -0.03,0.44 0.2,0.07 -0.23,1.21 0.53,1.53 -0.04,0.79 0.51,1 -0.15,0.34 0.59,0.89 -0.16,0.32 0.17,0.61 0.68,0.92 -0.13,0.37 0.52,0.25 0.5,-0.17 0.05,-0.74 0.37,-0.38 0.45,0.25 0.23,1.08 0.58,-0.2 0.17,0.44 0.47,-0.64 0.53,0.41 0.45,-0.56 0.81,1.23 0.44,-2.55 0.33,2.59 0.75,1.16 0.21,-0.38 -0.03,-1.13 -0.4,-0.61 -0.12,-1.13 0.73,-0.13 0.36,0.59 0.21,1.74 -0.29,0.01 -0.05,0.34 0.27,0.33 0.33,-0.36 0.2,0.22 0.52,-0.04 0.43,1.38 0.46,0.54 0.19,-0.43 0.52,0.44 0.05,-0.47 0.5,-0.24 0.87,1.53 -0.09,1.45 0.23,0.4 0.72,-0.34 0.01,0.63 0.66,-0.24 0.08,-0.41 -0.21,-0.1 0.54,-0.79 0.38,1.47 -0.17,0.42 0.35,0.17 -0.48,0.24 0.18,0.79 0.27,-0.47 0.57,-0.36 -0.33,-0.34 0.41,-0.06 -0.04,-0.52 0.82,-0.6 0,-0.29 -0.3,-0.33 -0.25,0.06 -0.36,-0.8 0.2,-0.25 -0.04,-1.2 0.33,-0.92 -0.47,-0.03 0.16,-0.38 0.4,-0.08 0.02,-0.68 -0.41,-0.49 -0.09,0.39 -0.48,0.25 -0.69,-0.66 -1.22,0.03 -0.62,-0.69 -0.5,-0.08 -0.4,-0.56 -0.18,0.08 -0.21,1.36 -0.29,-0.56 -0.24,0.04 0.04,0.67 -0.17,0.23 -0.45,-0.01 -0.71,-1.27 0.78,-0.04 -0.01,-0.63 0.25,-0.44 -0.4,-0.58 -0.5,0.26 -0.1,-1.58 0.34,0.14 0.15,-0.17 0.19,-0.92 -0.23,-0.89 0.2,-0.04 0.16,-0.72 -0.3,-0.22 -0.75,0.38 -0.2,0.64 0.23,0.6 -0.22,0.11 -0.27,-0.84 0.5,-0.98 -0.24,-0.06 -0.16,-0.69 0.12,-0.48 0.35,-0.2 0.19,-0.98 -0.2,-0.4 0.59,0.08 0.41,0.71 0.03,0.24 -0.18,-0.04 -0.35,0.54 0.46,0.49 -0.06,0.36 0.45,0.33 0.21,-0.34 0.54,0.98 0.42,0.09 0.85,-0.93 0.16,0.69 0.4,0.01 0.93,0.85 0.39,-0.26 0.02,-0.89 0.35,-0.12 -0.03,-0.46 0.58,0.13 0.39,-0.28 0.38,0.04 0.25,-0.51 0.58,0.54 0.45,-0.34 0.33,-0.87 -0.34,0.06 -0.44,-0.29 -0.49,0.42 -1.04,-1.72 0.22,-0.26 0.7,0.94 -0.06,-0.36 0.43,-0.17 0.11,-0.46 -0.19,-1.08 0.29,-0.32 0.03,-0.5 0.52,-0.37 -0.27,-0.16 -0.31,0.15 -0.39,-0.55 -1.25,-0.41 0.01,-0.62 -0.33,0.3 0.06,0.46 -0.29,-0.06 -0.14,0.28 -0.14,-0.3 1.02,-1.79 -0.25,-0.44 -0.48,0.43 0.12,-1.1 -0.53,-0.18 0.07,0.4 -0.81,-0.7 -0.27,0.06 0.48,1.33 -1.02,-0.75 0.33,-0.14 0,-0.5 -0.22,0.39 -0.35,0.08 -0.23,-0.56 -0.28,0.07 -0.18,-0.22 0.25,-0.52 0.38,0.21 0.09,-0.23 -0.01,-0.31 -0.37,-0.19 -0.91,-0.15 -0.88,0.17 -0.89,-0.43 -0.4,0.53 -0.94,-0.34 -0.9,0.45 -0.57,-0.48 0.75,-1.57 -0.36,-0.17 -0.6,0.5 -0.1,-0.36 0.24,-0.29 -0.14,-0.67 -0.33,0.34 -0.1,-0.82 -1.58,-0.21 -0.54,0.06 z m 39.72,-3.26 -0.19,-0.41 -0.41,0.09 -0.07,0.78 -0.33,-0.48 -0.23,0.69 0.51,0.39 -0.27,0.16 0.12,0.34 0.19,-0.08 0.56,0.38 0.38,-0.88 -0.16,-0.47 0.36,-0.32 -0.23,-0.65 -0.23,0.46 z m -1.86,-1.73 0.19,0.6 0.45,0.04 0.02,0.3 0.44,0.38 0.75,-0.14 -0.51,-0.78 -0.42,0.15 -0.25,-0.16 0.39,-0.07 -0.8,-0.53 -0.26,0.21 z m -49.66000001,15.06 0.14,0.79 -0.4,0.87 0.15,0.24 0.47,0.05 0.21000001,0.21 1.02,-0.28 0.27,0.32 -0.12,-0.88 -0.22,0.21 -0.33,-0.68 0.07,-0.28 0.27,0.08 0.16,-0.27 -0.74,-0.05 -0.31,0.69 -0.54000001,0.12 0.3,-0.45 -0.05,-0.7 -0.35,0 z m 3.96000001,-2.81 -0.01,0.77 -0.44,0.47 -0.3,1.13 -0.59,1.02 -0.42,-0.02 -0.1,-0.23 -0.26,0.14 0.17,1.78 -0.27,0.37 0.17,0.98 -0.51,-0.03 -0.24,0.82 0.19,1.25 -0.24,0.21 0.09,0.43 0.5,0.44 0.31,1.03 0.16,0.12 0.37,-0.23 0.51,0.42 0.96,-0.47 -0.44,-1.11 0.23,-0.37 -0.17,-0.42 0.37,-0.07 0.15,-0.45 -0.59,-0.26 0.03,-0.67 -0.32,-1 0.15,-0.35 0.63,1.89 0.51,-0.23 -0.27,0.97 0.6,0.3 0.12,0.65 0.57,0.23 0.38,-0.39 0.38,-1.68 -0.12,-1.92 -0.73,-0.19 -0.42,-0.72 0.26,-0.13 -0.1,-0.73 0.27,-0.33 -0.39,-0.61 -0.22,0.26 -0.22,-0.13 0.09,-0.39 -0.27,-0.69 -0.29,-0.11 -0.05,-1.66 -0.19,-0.09 z m 7.08,2.6 0.76,-2.37 -0.48,0.06 0.06,-0.41 -0.21,-0.28 -0.8,1.35 0.67,1.65 z m -6.46,-6.37 -1.41,0.93 -0.21,1.01 0.44,0.23 0.18,0.61 0.44,-1.88 0.49,-0.47 0.07,-0.43 z m 3.53,0.23 -0.04,0.87 0.21,0.06 0,-0.42 0.33,-0.35 0.29,0.19 0.28,-0.79 -0.48,0 -0.59,0.44 z m -1.48,-0.02 0.65,0.58 0.14,-0.42 -0.35,-0.89 -0.31,-0.22 0.13,0.66 -0.26,0.29 z m 0.86,-1.29 -0.32,0.25 0.12,0.48 0.3,-0.03 0.05,0.4 0.61,-0.32 0.08,-0.29 -0.18,-0.13 0.06,-0.71 -0.73,-0.13 0.01,0.48 z m 1.17,-1.79 0.92,2.12 0.87,-2.4 -0.51,0.42 -0.11,0.56 -0.28,-0.46 -0.29,0.64 -0.25,-0.39 0.28,-1.36 -0.56,0.06 -0.07,0.81 z m 24.04,20.6 0.8,0.6 -0.24,0.19 0.13,0.36 0.83,-0.24 0.03,0.23 0.43,-0.27 -0.26,-0.48 -1.43,-0.51 -0.29,0.12 z m -26.03,-5.72 -0.37,0.16 -0.13,0.44 0.23,0.79 0.43,-0.98 -0.16,-0.41 z m 33.03,-3.16 0.11,0.86 0.24,0.11 0.38,-0.57 -0.01,-0.45 -0.23,0.04 -0.16,-0.3 0.11,-0.93 -0.34,0.14 -0.1,1.1 z m 3.69,-1.16 0.7,1.04 0.21,-1.02 -0.35,-0.88 -0.56,0.86 z m -3.4,-1.75 0.25,-1.01 0.28,0.25 0.22,-0.19 0.22,0.19 0.01,-0.62 -0.66,-0.23 -0.29,0.17 -0.03,1.44 z m 9.58,-1.8 0.92,1.03 0.22,-0.39 -0.51,-0.77 -0.63,0.13 z m -42.33,-1.14 -0.22,-0.04 -0.06,0.65 0.24,-0.33 0.38,0.23 0.19,-0.13 -0.2,-0.82 -0.33,0.44 z m 22.07,-0.87 0.08,0.34 0.26,-0.08 0.55,-0.6 -1,-0.43 0.11,0.77 z m -23.09,-0.19 0.46,0.91 0.3,-0.59 -0.11,-1.05 -0.65,0.73 z m 2.66,-1.23 -0.4,-0.01 -0.05,0.25 0.31,0.37 0.17,-0.19 0.46,0.35 0.25,-0.65 -0.33,0.14 -0.29,-0.5 -0.12,0.24 z m 6.18,-1.14 0.42,0.25 0.13,-0.26 0.25,0.17 0.11,-0.36 -0.26,-0.35 -0.34,0.04 -0.31,0.51 z m 2.34,-0.36 0.28,0.11 0.08,-0.29 0.62,0.37 -0.11,-0.52 -0.29,-0.22 -0.34,-0.07 -0.32,0.27 0.08,0.35 z m -1.71,-0.62 0.41,0.82 0.32,0.16 0.04,-0.71 -0.36,-0.26 0.2,-0.74 -0.61,0.73 z m 25.19,-1.01 0.04,0.79 0.79,0.99 -0.11,-0.9 -0.36,-0.29 0.31,-0.39 -0.25,-0.41 -0.42,0.21 z m -4.71,-0.14 -0.43,0.44 0.7,0.46 0.31,-0.4 -0.33,-0.33 -0.07,-0.63 -0.46,-0.03 0.28,0.49 z m 11.35,-0.74 0.66,1 0.2,-0.71 0.22,0.08 -0.23,-0.41 0.14,-0.45 -0.2,-0.12 -0.36,0.19 -0.43,0.42 z m 2.51,-0.93 -0.55,-0.17 -0.18,0.24 -0.41,-0.27 -0.08,0.23 0.19,0.36 0.5,-0.12 0.16,0.33 0.78,-0.63 -0.04,-0.25 -0.37,0.28 z m -31.99,-0.19 -0.28,0.53 0.24,0.28 0.09,-0.37 0.33,0.12 0.26,0.77 0.15,-1.38 -0.3,0.22 -0.14,-0.31 -0.35,0.14 z m 27.89,-2.09 0.32,0.12 0.09,0.56 -0.23,0.2 0.23,0.66 -0.14,0.36 0.28,0.25 0.46,-0.06 0.19,-1.28 -0.37,-0.29 0.08,-0.4 -0.26,0.19 -0.53,-0.69 -0.12,0.38 z m 3.98,-3.61 0.73,0.78 1.06,0.16 0.05,-0.77 -0.27,-0.27 -0.23,0.08 0.1,-0.36 -1.01,-0.03 -0.43,0.41 z m -0.44,-1.5 0.5,0.22 -0.08,0.56 0.78,-1.04 -1.33,-0.06 0.13,0.32 z" 
                fill="rgb(151, 144, 238)" 
                stroke="white" 
                stroke-width=".7px"
                title="Åland Islands" 
                id="FI-01" 
            />
        </svg>