<svg xmlns="http://www.w3.org/2000/svg" viewBox="583.3499999999999 0 201.5200000000002 283.3299999999999" width="201.5200000000002" height="283.3299999999999">
            <path 
                d="m 769.76,0 -1.28,0.44 -1.19,2.22 -2.39,2.41 -2.7,1.94 -4.87,1.71 -2.85,2.13 -4.44,4.43 -1.41,1.86 -0.88,0.86 -2.1,0.78 -9.4,7.39 -1.43,0.75 -7.75,3.33 -7.53,5.21 -1.9,0.81 -12.61,2.78 -5.8,0.43 -1.29,0.43 -1.19,0.66 -14.74,11.86 -1.75,0.97 -1.89,0.57 -2,-0.02 -1.58,-0.59 -3.06,-1.68 -1.77,-0.35 -2.32,1.05 -2.6,0.51 -9.83,0 -2.54,0.58 -2.01,1.77 -1.32,0.92 -1.57,0.4 -1,0.63 -2.99,2.87 -1.37,0.73 -0.84,-0.03 -1.62,-0.39 -0.9,-0.09 -0.82,0.15 -1.52,0.72 -2.24,0.61 -1.2,1.03 -1.69,2.14 -7.41,5.05 -1.87,2.33 -0.04,0.14 -2.83,3.83 -0.19,0.32 -0.15,0.35 -0.13,0.37 -0.41,2.11 -0.9,2.19 -0.27,1.62 -0.16,0.58 -0.2,0.43 -0.38,0.58 -0.2,0.57 -0.17,0.8 -0.2,1.6 -0.54,2.21 -0.45,5.44 0.03,0.68 0.45,1.77 0.38,0.8 0.2,0.3 0.69,1.32 0.71,0.81 0.83,1.23 0.35,0.65 0.06,0.83 -0.03,1.21 -0.5,3.86 -0.23,0.79 -0.18,0.32 -0.13,0.39 -0.33,2.1 -0.12,0.35 -0.18,0.31 -0.99,1.04 -0.92,0.59 -0.23,0.26 -0.17,0.39 -0.31,1.8 -0.68,1.74 -0.29,0.34 -0.33,0.26 -1.54,0.6 -0.3,0.16 -0.26,0.73 -0.21,1.15 -0.19,2.64 -0.19,1.16 -0.24,0.74 -2.74,2.28 -0.95,0.56 -1.46,0.62 -0.32,0.19 -0.28,0.22 -0.25,0.25 -0.85,1.14 -0.98,0.99 -0.3,0.23 -0.72,0.34 -0.34,0.23 -0.17,0.5 -0.36,1.37 -1.12,2.69 -0.33,1.33 -0.59,4.76 -0.31,0.68 -0.35,0.44 -1.32,0.76 -0.84,0.74 -1.38,1.83 -2.13,2.13 -0.46,0.6 -0.4,0.68 -0.45,0.62 -0.54,0.53 -1.24,0.9 -1.05,0.59 -0.31,0.21 -0.15,0.41 0.01,0.57 0.66,1.57 0.46,0.79 0.13,0.54 0.07,0.7 -0.05,1.28 -0.23,1.33 -0.26,0.82 -0.77,3.68 0.05,0.53 0.16,0.51 0.37,0.74 0.22,0.66 0.14,3.54 -0.07,0.51 -0.94,1.79 -0.11,0.42 -0.04,0.45 0.2,2.3 -0.05,0.49 -0.08,0.47 -0.14,0.41 -0.19,0.35 -0.5,0.57 -0.17,0.54 -0.09,0.77 0.12,1.5 -0.27,1.91 0,0.62 0.1,0.84 -0.03,0.61 -0.06,0.53 -0.22,0.89 -0.02,0.74 0.15,2.56 -0.05,0.84 -0.1,0.63 -0.19,0.63 -0.03,1.44 -0.08,0.53 -0.13,0.49 -0.4,0.71 -1.66,2.11 -0.1,0.39 0.04,0.4 0.45,0.49 0.48,0.22 3.86,0.74 1.64,0.55 0.36,0.19 0.31,0.24 0.27,0.27 0.45,0.59 0.54,0.54 0.33,0.2 0.37,0.18 0.84,0.27 0.93,0.19 0.81,0.24 0.27,0.05 0.32,-0.09 2.7,-1.79 0.35,-0.17 0.36,-0.12 0.89,-0.11 0.88,0.04 0.31,0.27 0.23,0.61 0.1,2.13 -0.06,0.64 -0.17,0.37 -0.75,0.85 -0.15,0.36 -0.07,0.39 0.01,0.87 -0.07,0.39 -0.42,0.62 -0.15,0.35 -0.04,0.43 0.06,0.88 -0.06,0.45 -0.15,0.37 -0.49,0.59 -0.22,0.32 -0.44,1.21 -0.22,0.32 -0.81,0.79 -0.23,0.3 -0.21,0.33 -0.15,0.41 -0.24,0.87 -0.17,0.37 -0.22,0.32 -1.32,1.36 -0.56,0.49 -0.97,0.62 -1.4,1.25 -1.54,1.15 -1.23,1.38 -0.16,0.24 -0.13,0.23 -0.1,0.34 -0.08,0.42 0,0.45 0.63,3.31 0.2,0.58 0.3,0.44 0.69,0.46 0.45,0.03 0.41,-0.09 0.32,-0.22 0.33,-0.19 0.36,-0.16 0.39,-0.11 0.41,-0.01 0.41,0.29 0.32,0.54 0.49,1.85 0.47,1.24 0.47,0.86 0.09,0.85 -0.02,0.59 -0.5,2.88 0.01,0.48 0.11,0.54 0.26,0.54 1.12,1.5 1.06,1.79 0.38,0.87 0.47,1.5 0.17,0.86 0.04,0.72 -0.1,0.96 0.03,0.5 0.11,0.49 0.32,1.04 0.11,0.47 2.36,5.99 0.36,0.59 1.08,1.01 0.42,0.47 0.34,0.55 0.97,2.12 0.13,0.39 0.05,0.43 -0.02,0.46 0.08,0.5 0.25,0.52 0.63,0.7 0.36,0.52 0.48,1.61 4.46,6.62 0.33,0.71 0.21,0.82 1.06,1.39 4.51,3.93 2.3,-0.44 2.29,0.36 2.84,1.14 2.92,0.79 9.44,-0.26 1.77,-0.27 2.51,-1.46 1.11,-0.34 5.05,-0.65 1.41,-0.46 4.16,-3.2 2.37,-0.8 3.22,-2.3 4.49,-0.98 0.74,-0.39 0.4,-1.84 1.06,-1.48 1.46,-1.09 1.65,-0.66 3.31,-0.37 1.94,0.11 2.76,1.16 1.78,-0.77 2.62,-2.2 2.66,-1.66 1.68,-0.73 1.54,-0.3 0.61,-0.25 0.76,-1.09 0.68,-0.24 2.85,-0.53 1.54,-0.68 1.68,-1.09 1.35,-1.34 0.56,-1.41 0.47,-0.87 1.12,-0.84 1.35,-0.71 1.17,-0.46 2.36,-0.36 0.77,-0.22 0.5,-0.38 0.5,-0.53 0.58,-0.47 0.75,-0.21 3.08,-0.2 1.4,-0.32 1.45,-0.53 4.32,-3.24 1.6,-0.46 3.13,0 2.39,0.53 0.92,0 2.46,-1.34 4.24,-5.25 2.02,-1.91 2.16,-1.19 1.04,-0.83 1.02,-2.07 1.39,-0.67 3.17,-1.05 0.73,-0.59 1.83,-2.05 0.96,-0.6 0.38,0.07 0.42,0.33 2.77,0.44 0.94,0.58 0.73,0.7 1.03,0.65 3.06,0.31 6.22,-1.92 2.85,-0.56 3.55,0.02 1.31,0.68 0.51,1.71 0.74,1.68 1.76,0.87 2.05,0.04 1.65,-0.77 0,0 0,-0.01 0.88,-1.15 0.44,-1.61 0.16,-3.32 0.56,-1.29 2.28,-2.46 0.29,-1.76 -0.35,0.13 -0.84,0.21 -0.35,0.13 0,-6.32 -1.89,1.58 -0.99,0.39 -0.19,-0.93 0.63,-1.07 1.05,-0.76 0.97,-0.9 0.42,-1.51 0.51,-5.81 -0.15,-1.35 -0.69,-2.6 -0.19,-1.38 0.35,-2.55 1.8,-4.47 0.42,-2.5 -0.45,-1.37 -1.06,-0.01 -1.28,0.35 -1.08,-0.3 -0.87,-0.53 -1.25,-0.32 -1.15,0.05 -0.6,0.54 0.3,1.23 0.82,1.06 0.4,1.1 -1.01,1.35 -1.17,0.42 -1.14,-0.38 -3.8,-3.48 -0.38,-0.84 -0.13,-1.46 0.53,-1.17 1.27,-1.28 1.54,-1.09 2.16,-1.15 0.46,-0.12 0.66,0.06 0.85,0.42 0.25,0.52 -0.07,0.65 0.5,0.41 0.18,0.29 0.2,-0.06 0.66,-0.64 0.46,-0.63 0.84,-2.05 0.3,-1.5 -0.67,-0.9 -0.93,-0.61 -0.46,-0.65 0.37,-0.57 2.11,0.19 1.1,-0.7 -0.21,-0.11 -0.23,-0.61 -0.13,-0.77 0.06,-0.62 1.21,1.17 1.61,0.43 1.62,-0.36 1.21,-1.24 0.28,-0.86 0,-0.85 -0.4,-0.65 -0.91,-0.27 -0.36,-0.4 -0.64,-2.01 -0.54,-0.79 -0.86,-0.07 -0.83,0.44 -0.62,-0.03 -0.71,-3.39 -0.05,-0.98 0.5,-0.75 0.82,0 1.29,1.47 0.74,-0.11 0.53,-0.95 -0.42,-0.64 -2.18,-1.12 -0.85,-0.22 -0.67,-0.49 -0.29,-1.12 0.08,-5.28 -0.39,-0.36 -3.15,-0.15 -0.92,-0.15 -0.79,-0.35 -1.05,-1.22 0.16,-1.29 1.96,-2.8 0.62,-1.63 0.49,-0.7 1.72,-0.45 0.61,-0.45 0.44,-0.64 0.22,-0.81 -2.17,0.28 -1.04,-0.18 -0.66,-0.62 -0.23,-1.23 0.32,-0.97 0.48,-0.93 0.23,-1.07 -0.49,-1.94 -1.19,-2.03 -1.65,-1.24 -1.85,0.43 0.18,-1.62 0.76,-0.2 1.06,0.45 1.08,0.33 1.03,-0.58 0.86,-1.35 0.57,-1.58 0.16,-1.27 -0.43,-1.24 -1.38,-2.12 -0.3,-1.36 0.14,-1.08 0.89,-3.7 0.21,-2.48 0.48,-0.8 1.13,-1.21 0,-0.7 -2.29,-3.26 -1.01,-2.26 -0.51,-2.29 0.51,-2.23 2.04,-2.09 -1.05,-0.44 -0.4,0.07 -0.65,0.37 -0.96,-1.2 -0.42,-1.32 -0.14,-3.73 -0.1,-0.49 -0.24,-0.41 -1.39,-1.34 -0.35,-1.51 -0.21,-2.49 -0.24,-0.9 -0.81,-1.11 0.14,-0.66 1.7,-1.94 0.45,-0.86 -0.57,-0.94 -1.16,-1.08 -0.88,-1.19 0.32,-1.22 0.89,-1.04 0.61,-1.05 0.79,-2.38 0.53,-2.97 0.47,-2.58 -0.41,-2.42 -2.18,0.54 -0.71,-1.1 -1.02,-1.25 -1.18,-1.13 -1.14,-0.66 -0.56,1.57 -0.59,-0.57 -0.65,-1.46 -0.77,-1.16 0.88,-0.14 1.8,0 0.96,-0.34 0.62,-0.77 1.1,-2.67 0.56,-1 5.01,-3.69 0.92,-1.33 -0.04,-0.76 -0.57,-1.91 0.05,-0.99 0.44,-0.84 2.41,-2.57 1.13,-1.59 1.04,-2.45 0.02,-2.18 -1.92,-0.83 -0.71,0.5 -0.99,1.9 -0.86,0.22 -0.61,-0.76 0.62,-2.65 -0.79,-2.83 0.92,-2.15 1.52,-1.97 1.37,-1.25 4.12,-1.96 1.41,-1.46 -1.37,-1.57 -5.27,-2.65 -1.45,-1.24 -0.23,0.67 -0.3,0.54 -0.42,0.47 -0.59,0.41 -0.52,-2.66 6.35,-5.01 2.43,-0.69 2.88,0.28 1.09,-0.33 -0.61,-1.27 -1.16,-0.58 -2.95,-0.38 -1.08,-0.61 -0.55,-1.22 -0.17,-2.61 -0.54,-1.16 -1.16,-0.59 -1.56,-0.3 -1.37,-0.51 -0.57,-1.21 0.57,-0.85 1.12,-1.01 0.8,-1.28 -0.38,-1.6 -1.25,-0.82 -2.01,1.71 -1.42,-0.33 0.8,-1 L 770.93,0.27 769.76,0 Z" 
                fill="rgb(151, 144, 238)" 
                stroke="white" 
                stroke-width=".7px"
                title="Cabo Delgado" 
                id="MZ-P" 
            />
        </svg>