<svg xmlns="http://www.w3.org/2000/svg" viewBox="220.41999999999987 819.9800000000001 184.9200000000001 318.30999999999983" width="184.9200000000001" height="318.30999999999983">
            <path 
                d="m 394.01,886.88 2.66,-11.29 0.46,-5.84 -0.11,-1.95 -0.41,-1.23 -0.67,-0.06 -0.86,1.58 -2.41,10.02 -0.82,6.15 0.04,1.6 0.58,1.14 1.54,-0.12 z m -26.14,-63.19 0.43,-0.82 0.51,-1.78 -0.93,-0.18 0.01,-0.39 0.35,-0.52 0,-0.01 0,-0.01 -0.44,0 -1.29,0.14 -1.58,1.17 -1,0.29 -5.85,0.9 -7.7,3.22 -0.81,0.52 -0.34,0.66 -0.49,0.61 -4.06,2.8 -1.24,1.93 -1.61,1.76 -2.4,0.35 -0.77,-0.38 -3.29,-2.67 -0.68,-0.03 -0.73,0.2 -0.94,0.13 -1.26,0.43 -3.62,2.87 -8.72,2.7 -2.11,1.7 -3.27,5.28 -2.17,2.71 -2.35,1.47 -1.32,0 -1.2,-0.51 -2.28,-2.01 -1.79,-0.79 -1.52,0.78 -2.1,2.53 -1.76,1 -1.25,-0.33 -0.97,-0.81 -0.92,-0.46 -8.62,0.77 -3.77,0.34 -1.29,0.77 -1.54,1.74 -2.09,3 -0.26,0.64 -0.19,0.73 -0.3,0.59 -0.54,0.24 -0.26,0.21 -0.8,0.38 -0.85,0.16 -0.4,-0.45 -0.67,-1.28 -1.6,-0.47 -1.88,0.06 -4.22,0.74 -13.04,-0.59 -3.01,0.34 -2.63,0.93 -5.13,4.1 -1.59,0.98 -3.06,0.7 -2.8,1.42 -1.57,0.49 -1.78,-0.08 -0.26,-0.1 -0.44,1.74 -0.34,0.83 -0.37,0.72 -2.23,2.76 -1.19,2.09 -0.49,0.63 -0.53,0.58 -1.17,1.06 -1.56,1.8 -0.58,1.05 -0.23,0.32 -0.39,0.7 -0.14,0.4 -0.1,0.44 -0.06,0.47 -0.02,0.5 0.03,0.52 1.02,4.22 0.12,0.93 -0.04,0.65 -0.27,0.84 -0.18,0.89 -0.01,0.99 0.14,0.57 0.32,0.56 7.67,9.73 5.14,4.09 0.14,0.24 0.1,0.43 -0.01,2.02 0.12,1.21 0.31,1.24 2.39,3.7 0.14,0.91 0.04,0.64 -0.24,2.02 -1.17,5.25 0.02,0.52 0.36,1.97 0.09,1.52 -0.1,1.47 0.07,1.04 0.83,3.28 0.17,1.56 -0.05,0.48 -0.12,0.42 -0.28,0.28 -0.38,0.21 -2.17,0.74 -0.67,0.46 -0.27,0.28 -0.19,0.36 -0.1,0.43 -0.15,3.05 -0.07,0.45 -0.8,2.47 -0.72,4.62 0.01,0.52 0.05,0.53 0.21,1.03 0.78,1.95 4.5,7.11 0.48,0.5 0.43,0.37 1,0.68 0.29,0.27 0.51,0.6 0.91,1.33 0.63,1.14 1.38,2 1.41,1.41 2.23,1.57 0.51,0.23 0.64,0.38 1.78,1.57 1.37,0.85 0.6,0.53 0.51,0.63 0.43,0.72 0.49,0.64 0.31,0.26 1.68,1.1 0.58,0.55 1,1.27 1.2,2.22 2.65,3.75 0.5,1.61 0.19,1.48 -0.03,1.46 0.12,0.5 0.49,0.56 0.41,0.34 0.4,0.26 0.31,0.25 0.75,0.97 0.28,0.28 0.64,0.48 0.9,0.99 0.8,1.07 0.58,0.41 0.55,0.25 0.4,0.14 0.38,0.28 0.88,0.98 0.41,0.33 0.45,0.56 0.47,0.7 1.7,3.15 0.24,0.32 0.27,0.3 0.51,0.65 0.17,0.42 0.13,0.48 0,1.28 0.1,0.68 0.24,0.72 1,1.72 0.29,0.71 0.12,1.05 0,2.26 0.15,0.59 0.27,0.55 0.64,0.72 0.47,0.37 0.8,0.47 0.27,0.3 0.17,0.34 -0.08,0.52 -0.22,0.36 -0.36,0.25 -2.17,0.69 -0.86,0.02 -0.4,0.08 -0.29,0.23 -0.16,0.37 -0.05,0.47 0.02,0.5 0.11,0.57 0.21,0.61 0.82,1.42 0.11,0.67 -0.01,0.47 0.04,0.46 0.19,0.43 0.77,0.69 0.33,0.45 0.24,0.6 0.23,1.13 0.22,0.68 0.33,0.48 0.13,0.15 0.11,0.07 0.41,0.14 0.42,0.05 1,-0.02 0.53,0.27 0.48,0.56 1.01,2 0.15,0.61 -0.19,0.52 -0.27,0.37 -0.28,0.32 -0.18,0.34 -0.03,0.43 0.19,0.48 0.45,0.64 0.23,0.46 -0.09,0.58 -0.27,0.34 -0.36,0.28 -0.38,0.2 -0.34,0.23 -0.2,0.35 -0.13,0.42 -0.34,0.75 -0.24,0.34 -0.25,0.29 -1.27,1.04 -0.2,0.34 -0.14,0.41 0.03,0.44 0.18,0.36 0.51,0.18 0.43,-0.07 0.43,-0.16 0.74,-0.42 0.39,-0.15 0.41,-0.04 0.36,0.15 0.33,0.4 1.13,2.14 0.18,0.57 -0.04,0.6 -0.2,0.4 -0.53,0.63 -0.2,0.35 -0.06,0.95 -0.08,0.39 -0.88,1.33 -0.15,0.41 -0.07,2.06 -0.2,1.43 0.05,1.3 -0.28,0.92 -0.07,0.6 0.08,0.81 0.32,1.53 -0.04,0.76 -0.12,0.58 -0.12,0.4 -0.05,0.47 0.51,5.61 -0.2,1.53 0.1,0.85 -0.1,0.5 -0.11,0.33 -0.08,0.11 -0.1,0.16 -0.54,1.22 -0.25,0.83 -0.05,0.49 0.03,0.49 0.57,2.42 0.04,0.61 -0.01,0.76 0.08,0.21 0.18,-0.04 0.52,-0.54 0.51,-0.21 0.51,-0.08 0.43,0.1 0.41,0.15 0.75,0.37 0.38,0.15 0.42,0.05 0.74,-0.14 0.2,0.14 0.35,17.73 0.17,1.26 0.32,1.31 9.23,16.11 0.55,0.69 0.54,0.2 3.1,-1.07 3.18,-0.65 0.89,-0.3 0.77,-0.41 0.33,-0.26 0.63,-0.37 0.15,-0.06 0.15,-0.04 0.87,-0.14 0.42,-0.13 0.39,-0.2 1,-0.73 0.44,-0.15 0.51,-0.06 0.97,-0.02 0.44,-0.11 1.06,-0.65 0.47,-0.11 1.51,-0.07 0.48,-0.08 0.42,-0.15 1.95,-0.95 0.44,-0.06 0.41,0.1 0.38,0.17 0.23,0.32 0.01,0.46 -0.54,0.86 -2.27,2.3 -0.6,0.81 -0.36,1.01 0.7,1.22 5.67,5.8 0.28,0.58 -0.39,0.44 -10.71,5.61 -0.94,0.64 -0.65,0.69 0.12,0.93 0.28,1.23 0.14,1.17 0.3,1.16 0.44,0.9 0.68,0.82 1.31,0.33 5.88,0.2 2.26,0.91 2.31,4.06 0.19,-0.08 12.5,-3.19 12.28,-5.91 22.11,-11.86 5.58,-5.56 0.39,-0.73 0.16,-0.82 0.03,-1.07 0.21,-0.82 8.51,-9.36 11.61,-17.24 0.88,-1.54 0.4,-1.63 0.24,-0.43 0.55,-0.46 0.54,-0.56 0.25,-0.76 -0.15,-0.92 -0.71,-1.68 -0.16,-1.07 0.18,-1.67 4.32,-14.25 -0.14,-0.42 -0.47,-0.25 -0.23,-0.63 -0.35,-3.65 -0.79,-0.92 -3.08,-0.77 0,0.61 0.31,0.92 -0.56,5.77 -0.48,0.73 -0.89,-0.01 -1.42,-0.68 -1.97,-1.8 -1.08,-0.65 -1.1,0.21 -0.77,1.26 0.12,1.51 1.21,2.84 -3.49,4.19 -0.67,0.07 0.18,-0.89 0.69,-1.56 0.16,-0.94 -0.08,-0.98 -0.33,-1.59 -0.05,-0.5 0.19,-0.83 0.58,-1.14 0.26,-0.84 0.12,-1.01 -0.12,-2.7 0.16,-1.7 0.7,-3.22 0.16,-1.56 -0.06,-0.9 -0.45,-1.9 -0.44,-0.17 -0.82,-0.6 -0.25,-0.66 1.25,-0.3 1.86,0.42 0.29,1.08 -0.33,1.47 -0.07,1.56 0.77,1.66 0.66,-0.72 0.49,-1.8 0.17,-1.66 0,-7.06 1.21,-10.69 4.37,-13.38 0.54,-3.43 -0.12,-1.68 -0.74,-3.01 -0.16,-1.72 0.2,-1.65 0.53,-1.3 1.36,-2.43 2.92,-7.28 1.66,-2.42 2.73,-5.62 0.39,-2.36 -1.53,-0.72 0,0.51 0.57,0.79 -0.61,0.43 -1.23,-0.02 -1.31,-0.59 -0.07,0.73 -0.21,0.48 -0.74,1.02 -1.28,-3.21 -2.36,-17.75 0.25,-10.19 3.72,-12.6 0.19,-1.74 -0.52,-5.34 0,-1.64 1.02,-10.04 -0.5,0 -0.23,1.37 -0.66,1.95 -0.29,4.54 -0.29,1.4 -0.59,1.39 -1.54,-13.7 0.27,-1.93 0.03,-0.95 -0.3,-0.76 -0.6,-0.33 -0.86,-0.09 -0.77,0.35 -0.34,0.95 -0.15,0.19 -0.38,0.25 -0.44,0.24 -0.32,0.1 -0.31,0.2 0,0.49 0.09,0.56 -0.07,0.47 -1.63,2.34 -0.38,0.97 0.69,0.46 1.88,3.42 -0.99,1.29 -0.7,-0.55 -0.88,-2.4 -0.49,0.42 -0.29,0.52 -0.04,0.6 0.3,0.74 -1.29,3.01 0.02,3.98 1.02,3.97 1.75,2.95 -1.72,1.05 -0.55,1.2 0.22,3.56 -0.5,0.86 -1.08,-1.21 -1.45,-2.68 -1.26,-0.7 -1.35,-0.53 -1.06,-0.95 -0.44,-1.99 0.02,-3.46 2.24,-20.86 -0.67,-6.78 -0.77,-3.84 -0.36,-5.15 -0.3,-1.33 -2.25,-4.98 -0.7,-3.49 0.37,-7.02 -0.19,-3.45 -2.33,-5.52 -0.99,-0.59 -1.09,-1.39 -4.56,-7.88 -2.37,-6.19 -0.62,-7.07 0.71,-2.33 0.53,-5.22 -0.11,-1.4 -2.24,9.56 -1.87,2 0.2,-3.44 -0.2,-0.91 -0.75,-0.69 -0.81,-0.22 -0.3,-0.32 0.79,-0.98 0.88,-0.45 0.89,-0.2 0.53,-0.43 -0.2,-1.12 -0.62,-0.53 -0.87,-0.28 -0.5,-0.43 0.45,-0.96 -0.75,-0.54 -0.17,-0.57 0.03,-0.72 -0.13,-0.92 0.16,0.05 0.2,-0.31 0.15,-0.48 -0.05,-0.42 -0.27,-0.38 -0.27,-0.08 -0.31,-0.05 -1.12,-0.76 -0.71,-0.31 -0.44,-0.55 0.09,-1.17 0.54,-0.95 0.63,0.11 0.61,0.52 0.51,0.32 1.32,-0.22 0.98,-0.71 0.53,-1.22 -0.01,-2.26 0.09,-0.65 -0.07,-0.49 -0.27,-0.09 -0.52,0.01 -0.52,-0.13 -0.23,-0.59 0.27,-0.99 0.65,-0.43 0.83,0.09 0.82,0.53 0.6,-0.74 z" 
                fill="rgb(151, 144, 238)" 
                stroke="white" 
                stroke-width=".7px"
                title="Inhambane" 
                id="MZ-I" 
            />
        </svg>