<svg xmlns="http://www.w3.org/2000/svg" viewBox="159.8099999999998 458.80000000000007 169.6100000000001 413.10999999999945" width="169.6100000000001" height="413.10999999999945">
            <path 
                d="m 287.13,476.85 -1.21,-0.29 -0.58,-0.84 -0.27,-1.09 -0.37,-0.93 -0.89,-0.4 -1.31,-0.1 -0.9,-0.27 -1.89,-0.99 -1.44,-1.21 -2.28,-3.69 -2.56,-3.19 -2.15,-3.45 -1.37,-1.6 -0.19,0.26 -2.82,0 -0.93,0.2 -3.38,1.24 -1.23,0.13 -7.56,-0.67 -2.52,0.33 -2.02,0.79 -1.86,1.22 -1.59,1.58 -2.49,3.75 -0.61,0.47 0.17,1.8 -0.03,0.56 -0.21,1.16 0.05,0.43 0.39,0.67 0.12,0.37 -0.12,0.61 -0.36,0.73 -4.31,5.47 -0.25,0.48 -0.12,0.61 -0.19,0.45 -0.44,0.35 -0.87,0.3 -0.35,0.17 -0.95,0.68 -1.28,1.45 -0.23,0.42 -0.17,0.54 -0.07,0.89 0.07,1.11 -0.03,0.42 -0.32,1.29 -0.01,0.44 0.06,0.41 -0.13,0.65 -0.36,0.82 -2.51,3.66 -0.24,0.52 -2.48,7.26 -0.4,1.82 -0.08,0.91 -0.16,0.32 -0.3,0.44 -0.66,0.6 -0.49,0.32 -0.48,0.18 -2.64,0.43 -0.41,0.15 -0.35,0.19 -0.27,0.28 -0.48,0.63 -0.26,0.27 -0.63,0.44 -0.8,0.74 -0.59,0.74 -0.93,1.46 -0.9,2.42 -0.12,1.73 -0.14,0.64 -0.36,0.75 -0.15,0.62 0.04,0.86 0.63,1.87 -0.02,0.48 -0.17,0.65 -2.8,5.59 -0.63,0.96 -0.75,0.95 -0.08,0.43 0.23,0.68 0.21,0.47 0.14,0.61 0.06,0.45 -0.54,2.22 -1.95,0.8 -1.07,1.65 -2.95,5.79 -0.49,0.61 -0.65,0.43 -0.48,0.53 0.01,0.87 0.79,2.66 0.33,0.66 1.32,1.03 2.82,1.3 1.03,1.38 0.31,1.63 -0.3,1.52 -1.24,2.92 -0.29,3.03 0.23,3.46 -0.31,2.89 -1.92,1.29 -1.24,0.58 -0.83,1.32 -0.48,1.64 -0.21,1.54 0.12,1.54 0.89,2.22 0.14,1.39 -0.3,1.03 -0.58,0.53 -0.6,0.4 -0.38,0.62 0.12,0.75 0.92,1.1 -0.07,0.68 -0.41,1.56 0.17,1.78 2.64,8.16 0.25,2.61 -0.05,0.59 -0.68,1.7 -0.58,1.04 -0.44,0.61 -0.13,0.65 0.33,1.19 1.14,1.68 3.52,2.86 1.35,1.52 0.59,1.52 -0.35,0.87 -2.17,1.66 -1.58,2.31 -0.21,-0.05 0.1,0.77 0.96,1.14 0.26,0.81 -0.49,1.61 -1.34,1.02 -1.65,0.78 -1.47,0.88 -1.34,0.72 -1.43,0.42 -1.29,0.54 -0.93,1.08 -0.19,1.33 0.26,1.63 0.96,2.85 2.26,4.51 0.59,2.16 -0.16,2.63 -0.52,2.12 -0.81,1.71 -1.3,1.06 -1.98,0.17 -3.08,-0.24 -2.28,0.34 -7.23,3.41 -0.12,0.72 0.52,4.28 0.49,1.17 0.94,0.63 -0.8,0.61 -0.97,0.54 -0.73,0.67 -0.11,0.97 0.57,1.78 0.12,0.87 -0.12,1.01 0.18,1.06 0.6,0.63 0.85,0.3 1.02,0.05 4.67,-0.71 1.3,0.15 0.82,0.34 0.43,0.36 0.23,0.54 0.17,0.93 0.37,0.98 0.6,0.61 0.7,0.56 0.63,0.78 0.48,2.73 -2.18,9.87 -0.08,1.96 -0.26,1.43 -0.6,1.33 -1.1,1.76 -2.8,3.21 -0.18,0.78 0.16,2.34 -0.48,3.23 0.09,1.64 0.79,0.95 1.44,0.07 1.37,-0.18 1.06,0.38 0.51,1.73 0.02,1.46 -0.53,5.77 0.02,0.74 0.19,0.78 0.11,1.04 -0.32,0.77 -0.44,0.69 -0.24,0.81 0.25,1.77 0.86,0.87 1.36,0.31 1.73,0.09 1.69,-0.47 2.25,-2.31 1.4,-0.48 1.33,0.76 0.11,1.61 -0.62,3.1 0.62,1.4 1.25,1.28 1.62,1.03 1.67,0.7 0.75,0.89 -0.24,1.53 -0.5,1.88 -0.12,3.29 -1.45,4.71 -0.28,5.91 0.45,1.87 0.22,0.62 -4.02,-0.14 -1.03,0.9 -0.43,2.45 -0.59,1.15 -1.19,0.37 -1.22,0.23 -0.69,0.72 -0.55,3.9 -0.38,1.24 -1.02,1.9 -0.17,0.78 0.1,0.55 0.5,1.08 0.04,0.64 -0.54,2.45 -0.41,1.15 -0.58,1.02 -3.34,4.16 -4.88,6.07 -2.36,4.62 -2.46,4.82 -1.9,2.1 -3.22,0.54 -3.54,-0.44 -3.26,0.43 -2.37,3.09 -0.79,3.41 -0.15,3.32 1.08,8.63 1.03,8.36 -0.46,3.07 -1.76,3.53 -3.8,4.89 -5.81,7.51 0.41,0.7 1.1,0.7 0.67,0.93 0.34,0.05 0.33,-0.02 0.22,0.17 -0.01,0.54 -0.28,0.51 -0.29,0.44 -0.09,0.32 5.48,9.42 0.09,0.34 3.24,2.86 4.23,2.69 1.18,0.51 4.86,-0.21 1.51,0.21 2.93,1.27 8.47,6.57 1.13,0.52 1.26,0.37 1.44,0.14 4.31,-0.58 1.13,0.03 1.04,0.41 1.37,0.83 1.19,1.1 0.5,1.22 0.19,2.36 0.59,0.68 1.13,-0.06 1.73,0.13 0.61,0.61 1.44,1.11 1.44,0.44 0.67,-1.36 0.49,-1.38 1.2,-1.55 1.5,-1.38 1.38,-0.91 4.54,-2.01 1.36,-0.24 1.71,0.3 2.71,1.12 0.26,0.1 1.78,0.08 1.57,-0.49 2.8,-1.42 3.06,-0.7 1.59,-0.98 5.13,-4.1 2.63,-0.93 3.01,-0.34 13.04,0.59 4.22,-0.74 1.88,-0.06 1.6,0.47 0.67,1.28 0.4,0.45 0.85,-0.16 0.8,-0.38 0.26,-0.21 0.54,-0.24 0.3,-0.59 0.19,-0.73 0.26,-0.64 2.09,-3 1.54,-1.74 1.29,-0.77 3.77,-0.34 0.4,-5.66 0.19,-1.05 0.39,-1.15 0.35,-0.35 1.13,-0.62 0.28,-0.28 0.14,-0.46 0.03,-0.59 -0.15,-0.91 -0.02,-0.74 0.11,-0.73 0.44,-0.87 0.37,-0.47 0.42,-0.3 0.82,-0.33 1.5,-0.78 0.63,-0.49 0.27,-0.29 0.23,-0.32 0.2,-0.35 0.43,-1.18 0.08,-0.49 -0.01,-0.58 -0.23,-0.82 -0.34,-0.52 -0.49,-0.56 -7.57,-5.9 -0.76,-0.25 -6.08,-0.51 -0.94,-0.17 -0.61,-0.35 -0.24,-0.83 -0.34,-16.53 -0.13,-1.06 -0.32,-0.95 -0.81,-0.68 -8.95,-3.24 -1.05,-0.58 -18.83,-19.8 -0.25,-1.05 -0.06,-1.06 0.06,-0.98 -0.04,-0.73 -0.11,-0.51 0.02,-0.8 0.23,-1.11 1.5,-4.03 0.07,-0.45 -0.09,-0.56 -0.16,-0.44 -0.41,-0.76 -0.93,-1.29 -0.21,-0.38 -0.22,-0.93 -0.15,-1.6 -0.11,-0.48 -0.15,-0.4 -0.23,-0.33 -0.63,-0.47 -1.94,-0.74 -0.29,-0.26 -0.21,-0.34 -1.88,-6.72 0.05,-0.49 0.27,-0.46 6.94,-5.79 0.37,-0.55 0.75,-0.73 0.31,-0.24 0.36,-0.21 0.39,-0.18 0.86,-0.28 0.77,-0.36 0.34,-0.21 0.78,-0.86 0.32,-0.25 0.36,-0.2 0.86,-0.26 0.5,-0.04 1.46,0.03 0.46,-0.08 0.42,-0.14 1.73,-1.07 0.39,-0.13 0.39,-0.01 0.37,0.13 0.27,0.27 0.21,0.34 0.33,1.41 0.19,0.37 0.33,0.22 0.74,0.32 0.34,0.2 0.6,0.5 1.43,1.58 0.08,0.06 0.19,0.11 0.34,0.07 0.87,0.03 0.31,0.04 0.22,-0.17 1.97,-3.4 0.09,-0.09 0.16,-0.1 1.02,-0.45 1.84,-0.34 0.5,-0.19 0.24,-0.15 0.14,-0.1 0.84,-0.8 0.42,-0.29 0.57,-0.31 2.48,-0.95 0.64,-0.48 0.24,-0.23 0.24,-0.33 0.6,-1.21 0.3,-0.46 0.36,-0.37 1.87,-1.09 0.24,-0.2 0.41,-0.57 0.12,-0.08 0.19,-0.04 0.94,-0.03 0.78,-0.14 1.28,-0.53 0.31,-0.19 -0.19,-0.11 -1.22,-0.55 -0.27,-0.19 -0.18,-0.18 -0.65,-0.77 -0.32,-0.27 -0.35,-0.19 -0.4,-0.13 -0.91,0.01 -0.46,-0.04 -0.39,-0.15 -0.34,-0.26 -0.25,-0.3 -0.51,-1.12 -0.27,-0.26 -0.35,-0.2 -0.43,-0.11 -1.61,0.02 -0.51,-0.04 -0.11,-0.82 -0.03,-1.55 0.45,-3.85 0.01,-1.62 -0.09,-1.02 -1.85,-3.01 -0.18,-0.41 -0.13,-0.42 -0.18,-0.89 0.08,-0.52 0.23,-0.5 0.76,-0.51 0.63,-0.21 0.8,-0.1 1.93,-0.06 0.89,-0.22 0.51,-0.47 0.17,-1.32 0.03,-19.93 7.54,-28.16 0.41,-2.55 -0.58,0.07 -0.91,-0.35 -0.7,-0.75 -0.42,-0.78 -0.49,-0.7 -0.9,-0.53 -1.79,-0.32 -0.74,-0.31 -0.68,-0.81 -0.39,-0.9 -0.51,-1.82 -0.47,-0.85 -0.71,-0.66 -0.76,-0.32 -0.8,-0.21 -0.86,-0.35 -0.77,-0.67 -0.36,-0.8 -0.29,-0.85 -0.51,-0.85 -0.76,-0.56 -2.67,-0.83 -2.6,-1.65 -1.06,-0.26 -2.41,-0.16 -0.83,-1.89 0.11,-0.96 0.75,-2.82 0.4,-0.85 1.09,-1.39 2.25,-2.3 1.22,-1.98 0.4,-0.51 0.37,-0.38 0.65,-0.44 0.79,-0.87 0.58,-0.89 0.46,-0.31 0.42,-0.12 0.4,-0.05 0.4,-0.27 1.27,-1.73 0.27,-0.51 0.01,-0.78 -0.14,-0.48 -0.2,-0.44 -0.44,-0.66 -0.19,-0.38 -0.13,-0.44 -0.17,-0.97 -0.17,-0.37 -0.38,-0.13 -0.76,-0.14 -0.17,-0.29 -0.04,-0.41 0.06,-0.43 0.77,-2.4 0.14,-0.89 0.01,-0.48 -0.04,-0.49 -0.13,-0.43 -0.32,-0.79 -1.77,-3.25 -0.16,-0.39 -0.06,-0.44 0.11,-0.52 2.09,-2.25 0.87,-1.29 0.25,-0.28 1.23,-0.98 1.8,-0.98 0.94,-0.72 0.8,-0.81 0.24,-0.4 0.19,-0.51 0.47,-2.48 0.48,-1.08 0.83,0.11 0.43,0.15 2.23,0.35 0.72,0.25 0.23,0.14 0.19,0.16 1.04,1.02 0.24,0.31 0.76,1.46 0.27,0.87 0.16,1 0.13,0.43 0.19,0.36 0.51,0.58 0.3,0.25 0.97,0.63 0.31,0.24 0.73,0.78 1.05,0.67 0.76,0.31 0.77,0.22 0.37,0.06 0.58,-0.12 0.24,-0.13 0.12,-0.05 0.15,-0.11 2.29,-3.18 0.82,-0.69 0.99,-0.15 3.17,0.44 1.22,-1.21 0.97,-2.45 1.79,-6.92 0.34,-3.19 0.03,-2.22 -0.46,-1.09 -0.04,-0.23 0.41,-3.44 -0.15,-0.81 -0.27,-0.51 -0.59,-0.38 -0.37,-0.35 -0.95,-1.14 -0.21,-0.36 -0.28,-0.33 -0.42,-0.34 -6.21,-2.37 -0.72,-0.57 -0.18,-0.9 0.02,-1.02 1.01,-7.66 -0.14,-1.08 -2.19,-8.4 -0.08,-1.11 0.18,-1.01 3.03,-7.35 0.28,-1.04 -0.02,-4.12 0.59,-3.97 1.07,-3.34 1.35,-2.97 0.57,-1.65 0.2,-1.48 -0.25,-4.45 0.03,-0.53 0.08,-0.54 0.18,-0.61 4.46,-9.29 0.48,-0.61 1.17,-0.9 2.25,-1.22 0.63,-0.25 3.77,-0.95 5.51,-2.61 0.49,-0.35 1.52,-1.31 0.85,-0.91 0.87,-1.37 1.42,-3.22 4.49,-5.21 -14.15,-7.78 -4.07,-1.3 -4.99,-0.96 -5.04,-0.28 -1.33,-0.51 -1.2,-0.8 -3.81,-3.24 -0.59,-0.33 -0.79,-0.26 -1.64,-0.33 -0.79,-0.29 -1.22,-0.12 -2.67,0.68 z" 
                fill="rgb(151, 144, 238)" 
                stroke="white" 
                stroke-width=".7px"
                title="Manica" 
                id="MZ-B" 
            />
        </svg>