<svg xmlns="http://www.w3.org/2000/svg" viewBox="127.19000000000005 1085.329999999999 92.74999999999997 220.72000000000094" width="92.74999999999997" height="220.72000000000094">
            <path 
                d="m 207.57,1234.62 0.51,-2.45 0.05,-0.93 -2.12,0.96 -2.71,1.75 -1.73,2.26 0.86,2.45 0.53,-1.94 -0.02,-0.34 0.99,-0.19 0.27,0.37 0.04,0.57 0.29,0.39 0.86,0.48 0.24,0.34 0.19,-0.08 0.71,-0.74 0.24,-0.51 0.8,-2.39 z m -46.83,71.43 8.77,-0.25 9.71,-0.29 10.55,-0.31 11.63,-0.35 -0.24,-0.8 -0.65,-1.23 -0.14,-0.85 0.86,-2.32 0.17,-0.84 0.46,-6.66 -0.46,-3.45 0.18,-0.99 0.69,-1.9 1.02,-6.36 0.84,-23.35 1.93,-13.43 -0.05,-2.24 -2.94,1.3 -0.92,0.69 -0.62,1 -0.69,3.87 -0.86,2.68 -0.4,2.23 0.09,2.21 0.7,2.66 -1.12,0.1 -0.88,0.49 -0.78,0.34 -0.85,-0.41 -1.46,-1.28 -1.08,-1.68 -0.97,-1.91 -1.62,-2 -1.11,-0.86 -1.85,-1.11 -1.91,-0.41 -1.3,1.24 -0.46,-1.8 -1.36,-3.58 -0.44,-2.56 -0.41,-0.48 -0.58,-0.42 -0.65,-0.61 -0.54,-0.93 -0.67,-1.91 -0.53,-0.91 -0.78,-0.68 -1.61,-0.62 -0.74,-0.46 -0.35,-0.52 -0.55,-1.39 -0.38,-0.64 -0.62,-0.31 -1.14,-0.37 -1.12,-0.19 -0.51,0.3 -0.08,2.71 0.08,0.41 -0.8,0.39 -0.79,-0.91 -0.3,-1.56 0.63,-1.6 1.12,-0.89 1.24,-0.41 0.77,-2.59 1.94,-4.44 5.83,1.8 2.14,1.94 2.13,-2.06 0.44,-0.94 0.31,-1.02 0.2,-1.13 0.08,-1.19 0.27,-0.88 0.6,-0.53 0.69,-0.47 0.53,-0.68 0.46,0 0.31,0.76 0.15,0.58 -0.06,0.48 0.35,-0.74 -0.55,-4.14 1.05,-1.79 1.37,-5.35 1.72,-3.48 3.93,-5.62 2.11,-2.4 19.49,-13.71 -0.13,-3.7 0.06,-0.46 0.33,-1.33 0.31,-1.89 0.01,-0.51 -0.21,-1.54 -0.13,-0.46 -0.35,-0.84 -0.64,-1.13 -0.36,-0.42 -0.53,-0.43 -1.06,-0.57 -1.27,-0.43 -5.34,-0.6 -0.32,-0.11 -0.25,-0.73 -0.12,-0.77 0.01,-0.39 0.05,-0.28 0.31,-1.08 0.06,-0.46 -0.39,-2.53 0.03,-1.45 -0.12,-0.76 -0.12,-0.37 -0.04,-0.32 0.08,-0.36 0.13,-0.88 -0.07,-0.48 -0.31,-0.48 -0.53,-0.42 -1.11,-0.51 -0.74,-0.19 -1.67,-0.17 -0.44,-0.15 -0.36,-0.33 -0.18,-0.86 -0.51,-8.73 0.11,-0.36 0.2,-0.34 0.25,-0.27 0.26,-0.33 0.21,-0.34 -0.03,-0.57 -0.23,-0.8 -0.72,-1.39 -0.06,-1.26 0.12,-1.25 1.25,-4.56 -0.13,-0.99 -0.64,-0.6 -3.84,-1.6 -1.01,-0.65 -1.17,-0.97 -0.57,-0.6 -0.35,-0.54 -0.35,-2.05 -0.28,-0.91 -0.38,-0.81 -4.64,-7.14 -2.88,-3.43 -0.21,-0.38 -0.17,-0.41 -0.13,-0.47 -0.37,-8.17 0.07,-1.26 -0.04,-0.36 -0.15,-0.41 -0.26,-0.39 -0.45,-0.4 -0.44,-0.22 -1.88,-0.63 -0.91,-0.51 -0.33,-0.24 -0.36,-0.19 -0.47,-0.14 -0.61,-0.04 -1.51,0.32 -1.81,0.66 -0.48,0.12 -0.52,0.06 -0.68,-0.05 -0.75,-0.18 -1.13,-0.49 -2.1,-1.33 -2.25,-0.88 -0.42,-0.3 -4.06,-4.58 -0.61,-0.53 -0.67,-0.44 -1.19,-0.48 -8.82,-1.28 -1.83,-0.95 -0.64,-0.17 -2.43,-0.43 -1.36,-0.47 -0.33,-0.24 -0.94,-0.57 -4.39,-0.68 -1.8,-0.56 -0.69,-0.13 -0.57,-0.03 -0.56,0.03 -9.4,4.62 -1.18,0.75 2.63,5.74 1.89,6.33 0.41,6.39 -0.62,5.68 0.07,11.52 0.07,13.95 0.05,9.9 0.07,13.2 0.12,18.05 -1.29,4.07 -0.3,2.11 -0.09,2.74 0.28,2.6 0.78,1.72 0.44,1.74 0.7,5.23 0.01,1.81 -0.32,1.11 -0.51,0.51 -0.73,0.44 -0.96,0.93 -0.59,1.01 -3.2,8.38 -0.45,2.31 0.31,2.5 2.95,9.63 1.96,1.86 2.16,1.17 5,1.29 -0.99,2.62 0.4,3.01 0.89,3.1 0.52,2.9 -0.28,2.23 -2.48,6.63 -0.37,2.44 0.94,8.65 0.56,2.35 3.55,7.18 0.78,6.89 -0.26,21.69 2.2,0.48 3.82,-0.45 2.18,0.08 5.47,0.9 4.24,0.7 z" 
                fill="rgb(151, 144, 238)" 
                stroke="white" 
                stroke-width=".7px"
                title="Maputo" 
                id="MZ-L" 
            />
        </svg>