<svg xmlns="http://www.w3.org/2000/svg" viewBox="488.6800000000006 228.94 310.7000000000009 267.07000000000056" width="310.7000000000009" height="267.07000000000056">
            <path 
                d="m 728.37,459.38 0.41,-1.1 -0.14,-1.38 0.62,-2.28 2,-2.08 0.35,-1.59 -0.21,-1.79 -2.56,-0.27 -3.66,0.83 -2.14,1.04 -0.83,1.38 -0.27,3.04 1.1,2.69 1.8,1.52 1.66,0.55 1.87,-0.56 z m 23.19,-227.67 -1.03,-0.65 -0.73,-0.7 -0.94,-0.58 -2.77,-0.44 -0.42,-0.33 -0.38,-0.07 -0.96,0.6 -1.83,2.05 -0.73,0.59 -3.17,1.05 -1.39,0.67 -1.02,2.07 -1.04,0.83 -2.16,1.19 -2.02,1.91 -4.24,5.25 -2.46,1.34 -0.92,0 -2.39,-0.53 -3.13,0 -1.6,0.46 -4.32,3.24 -1.45,0.53 -1.4,0.32 -3.08,0.2 -0.75,0.21 -0.58,0.47 -0.5,0.53 -0.5,0.38 -0.77,0.22 -2.36,0.36 -1.17,0.46 -1.35,0.71 -1.12,0.84 -0.47,0.87 -0.56,1.41 -1.35,1.34 -1.68,1.09 -1.54,0.68 -2.85,0.53 -0.68,0.24 -0.76,1.09 -0.61,0.25 -1.54,0.3 -1.68,0.73 -2.66,1.66 -2.62,2.2 -1.78,0.77 -2.76,-1.16 -1.94,-0.11 -3.31,0.37 -1.65,0.66 -1.46,1.09 -1.06,1.48 -0.4,1.84 -0.74,0.39 -4.49,0.98 -3.22,2.3 -2.37,0.8 -4.16,3.2 -1.41,0.46 -5.05,0.65 -1.11,0.34 -2.51,1.46 -1.77,0.27 -9.44,0.26 -2.92,-0.79 -2.84,-1.14 -2.29,-0.36 -2.3,0.44 -2.32,1.06 -2.94,0.86 -6.52,0.76 -2.95,1.55 -2.6,2.69 -1.52,1.13 -12.65,2.4 -0.73,0.48 -0.48,0.78 -1.15,0.97 -1.37,0.83 -1.15,0.31 -2.73,-1.37 -1.57,-2.43 -1.74,-2 -3.25,-0.03 -1.34,0.86 -1.96,2.37 -1.06,0.48 -5.91,-0.53 -1.48,0.14 -1.64,0.62 -0.91,1.12 0.7,1.61 0.02,1.41 -1.25,1.93 -1.72,1.78 -1.41,0.97 -5.93,0 -1.13,0.61 -2.93,3.04 -2.68,3.72 -2.15,2.41 -2.62,2.2 -7.68,4.27 -1.46,0.28 -0.45,-0.18 -1.45,-0.77 -0.92,-0.16 -0.92,0.12 -0.43,0.24 -0.26,0.35 -4.9,4.09 -1.44,0.55 -0.91,0.17 -0.67,0.41 -1.25,1.01 -0.78,0.34 -1.6,0.41 -0.74,0.32 -0.93,0.76 -2.23,2.44 -0.44,0.78 -0.47,0.51 -4.03,1.64 -2,2.67 -1.18,2.36 -0.31,0.81 -0.7,1.51 -3.34,3.49 -0.56,0.98 -0.18,0.56 -1.01,1.54 -3.91,3.9 37.6,0.58 0.52,0.54 1.26,0.94 1.12,1.03 1.01,1.13 0.45,0.62 0.17,0.35 0.14,0.39 0.19,0.84 0.17,0.35 0.23,0.31 0.51,0.56 0.38,0.68 1.51,4.22 0.35,0.44 0.57,0.44 2.48,1.21 0.25,0.29 0.36,0.78 0.25,0.42 0.44,0.5 0.42,0.1 0.36,-0.09 1.7,-0.94 0.39,-0.13 1.32,-0.23 0.39,-0.12 0.38,-0.16 0.33,-0.19 0.3,-0.25 0.46,-0.6 1.46,-2.43 0.52,-0.57 1.06,-0.8 0.37,-0.15 0.52,-0.12 0.96,-0.05 0.58,0.18 1.24,0.66 0.46,0.29 0.31,0.33 0.82,1.29 0.17,0.36 0.39,0.37 0.57,0.39 1.25,0.46 0.64,0.34 0.37,0.37 0.29,1.01 0.5,0.57 0.55,0.21 0.89,0.07 0.53,0.13 0.4,0.21 0.76,0.75 0.83,0.48 0.63,0.19 0.57,0.04 0.43,-0.07 0.78,-0.26 2.02,-1.16 0.28,-0.25 0.75,-0.89 0.33,-0.24 0.45,-0.13 1.14,-0.07 0.46,-0.08 0.38,-0.13 0.68,-0.38 0.62,-0.46 0.46,-0.18 0.61,-0.12 1.06,-0.02 0.58,0.14 0.42,0.24 0.25,0.28 1.06,1.6 0.49,0.59 0.31,0.32 0.44,0.3 0.66,0.37 0.54,0.11 0.43,-0.06 0.86,-0.36 2.71,0.05 0.51,0.2 0.36,0.24 0.4,0.61 0.26,0.28 0.86,0.76 0.25,0.29 0.19,0.34 0.17,0.36 0.62,0.52 1.03,0.59 3.74,1.5 0.78,0.48 1.05,0.87 0.84,0.18 0.97,0.39 0.86,0.61 1.29,0.73 0.31,0.35 0.1,0.37 -0.05,0.42 -0.1,0.4 0.03,0.43 0.25,0.4 1.09,0.69 0.33,0.3 0.2,0.33 0.69,1.42 0.4,0.65 1,1.17 1.1,0.71 1.21,0.62 0.75,0.25 4,0.6 0.47,-0.02 0.9,-0.13 1.71,-0.46 0.57,-0.08 0.39,0.13 2.25,1.18 0.29,0.2 0.53,0.47 0.9,0.66 0.49,0.53 0.25,0.35 0.09,0.11 0.69,0.46 0.71,0.37 0.38,0.34 0.27,0.36 0.23,0.81 0.19,0.4 0.26,0.37 1.35,0.8 1.12,0.81 0.75,0.28 1.88,0.36 0.52,0.18 0.64,0.46 0.29,0.25 0.5,0.57 0.19,0.35 0.42,1.16 0.24,1.3 0.14,0.39 0.58,0.52 0.98,0.59 3.45,1.56 3.69,0.9 0.74,0.34 0.48,0.38 0.14,0.38 0.3,1.25 0.34,0.72 0.25,0.29 0.29,0.26 0.98,0.69 0.25,0.29 0.24,0.3 3.99,2.68 0.55,0.46 0.37,0.67 0.48,1.11 1.53,2.21 0.18,0.36 0.13,0.38 0.38,1.7 0.17,0.49 0.28,0.53 0.61,0.7 0.29,0.49 0.13,0.47 -0.05,0.39 0.07,0.48 0.23,0.57 1.3,1.42 0.35,0.45 0.16,0.36 0.09,0.43 0.01,0.46 -0.03,0.5 -0.19,0.91 -0.01,0.48 0.06,0.42 0.17,0.4 0.44,0.7 1.53,1.91 1.6,2.66 1.46,3.82 0.11,0.4 0.07,0.45 -0.06,0.93 -0.12,0.43 -0.14,0.4 -0.78,1.43 -0.1,0.42 -0.05,0.47 0.06,0.92 -0.03,0.5 -0.15,0.95 -0.01,0.48 0.11,0.41 0.96,2.72 0.71,1.4 0.25,0.81 0.38,0.69 0.93,1.17 0.84,1.29 0.36,0.71 0.57,1.54 0.84,1.24 0.11,0.22 0.36,1.01 0.44,2.16 0.14,0.38 0.19,0.35 0.91,1.24 0.39,0.67 0.29,0.76 0.45,1.66 0.24,1.67 0.01,0.22 0.11,0.56 0.09,1.06 -0.05,0.98 -0.05,0.45 -0.16,0.39 -0.23,0.31 -0.36,0.23 -0.47,0.17 -1.18,0.2 -0.79,0.24 -0.79,0.4 -0.27,0.22 -0.26,0.3 -0.21,0.33 -0.16,0.39 -0.1,0.46 -0.12,2.6 0.08,0.93 0.14,0.55 0.22,0.57 0.47,0.8 0.37,0.37 0.31,0.23 2.1,0.94 0.54,0.38 0.39,0.35 0.41,0.67 0.78,1.86 0.62,0.99 0.69,1.43 0.05,0.43 0.21,0.66 0.35,0.75 1.92,2.38 0.49,1.16 0.23,0.39 0.61,0.81 0.2,0.39 0.05,0.45 0.02,0.48 -0.17,1.96 0.08,0.77 0.11,0.1 0.01,-0.31 1.37,0.69 1.05,-0.69 1.96,-2.9 1.27,-1.09 11.41,-7.31 13.26,-6.91 1.9,-1.96 0.72,-0.51 3.03,-0.98 2.24,-1.85 3.07,-1.74 1.5,-1.1 1.26,-1.34 0.36,-0.61 0.06,-0.63 -0.08,-0.49 -0.1,-0.14 0.81,-0.94 0.76,-0.48 2.02,-0.73 -0.4,-0.37 -0.71,-0.87 -0.39,-0.36 0.8,0.06 0.77,-0.06 0.75,-0.19 0.71,-0.35 0.09,0.56 0.38,1.03 0.09,0.55 1.26,-0.48 3.41,-2.18 -1.42,-0.73 -1.23,-1.08 -0.96,-1.39 -0.55,-1.62 -0.06,-0.93 0.11,-1.93 -0.05,-0.93 -0.84,-0.11 -0.52,-0.28 -0.12,-0.68 0.18,-0.34 2.26,-1.95 4.65,-2.52 1.39,-0.4 4.81,-0.09 2.6,-1.26 2.03,-2.93 3.12,-6.02 2.42,-2.24 0.88,-1.21 0.34,-1.94 0.45,-1.48 0.87,-1.27 0.6,-1.37 -0.43,-1.8 -2.67,2.69 -1.62,0.91 -0.84,-0.88 0.31,-0.71 0.85,-0.52 0.97,-0.31 0.7,-0.11 0.85,-0.39 0.31,-0.87 0.16,-0.99 0.47,-0.69 3.18,-1.87 14.96,-15.7 4.68,-7.79 1.12,-1.37 3.01,-2.21 1.14,-1.37 0.23,-2.04 1.9,0.49 0.68,-0.06 1.01,-0.43 1.13,-0.74 0.86,-0.85 0.64,-1 0.5,-1.13 -0.92,0.07 -0.26,-0.81 0.27,-1.18 0.63,-1.04 0.27,-0.58 -0.12,-1.26 0.13,-0.59 0.38,-0.49 1.44,-1.35 0.43,-0.52 0.39,-0.66 0.23,-0.66 -0.13,-1.23 0.34,-0.51 2.82,-3.1 0.18,-0.98 -0.95,-1.18 1.57,-0.83 0.31,-2.17 -0.56,-2.49 -1.04,-1.72 -1.87,-1.12 -1.94,-0.26 -1.52,0.91 -0.64,2.36 -1.12,-0.76 -1.33,-0.47 -2.68,-0.42 0.53,-1.16 0.62,-2.82 0.39,-0.8 1.05,-0.29 1.52,0.1 1.52,0.35 1.09,0.42 1.51,-2.34 2.07,-0.81 2.34,-0.31 2.34,-0.84 -2.81,-3.84 -0.95,-2.24 0.67,-1.41 4.16,1.11 0.98,-0.2 0.72,-0.3 0.77,0.08 1.12,0.95 0.03,-1.2 -0.55,-1.71 -0.8,-1.74 -0.78,-1.24 -0.88,0.19 -3.57,0 -1.2,-0.19 -1.29,-1.06 -0.42,-1.32 -0.09,-1.47 -0.29,-1.46 0.86,0.88 0.84,2.36 0.63,0.47 1.32,-0.11 1.36,-0.38 1.24,-0.65 0.98,-0.98 2.7,-2.81 0.37,-0.67 0.56,-0.59 3.6,-1.52 0.35,-0.32 0.18,-0.42 0,-0.44 -0.27,-0.45 -0.47,-0.57 -0.03,-0.38 0.14,-0.43 1.04,-4.56 -0.17,-1.23 -0.16,-0.53 0,-1.07 -0.09,-0.51 -0.39,-0.64 -0.47,-0.44 -0.44,-0.31 -0.25,-0.26 -0.64,-1.33 -0.14,-0.83 1.57,-4.44 0.11,-1.33 -0.38,-1.08 -0.94,-0.59 -0.75,0.39 -0.68,0.77 -0.76,0.55 -1.15,0.04 -0.81,-0.37 -0.07,-0.68 1,-0.88 1.14,-0.43 2.3,-0.53 0.97,-0.65 0.79,-2.3 -1.06,-2.35 -2.03,-1.82 -2.11,-0.74 -0.94,0.19 -4.53,2.2 -0.59,0.6 -2.06,6.53 -1.11,1.8 -1.59,1.5 -0.05,-1.22 0.57,-3.6 -0.19,0.04 -0.35,-0.25 -0.34,-0.42 -0.15,-0.43 1.54,-1.59 -0.94,-0.7 -0.07,-0.88 0.69,-0.49 1.34,0.44 -1.53,-8.48 1.15,0.28 1.44,1.52 1.04,0.31 0.8,-0.34 1.77,-1.43 1.03,-0.34 -0.19,-1.26 0.02,-1.52 0.36,-1.46 0.83,-1.11 -1.26,-0.74 -0.39,-0.87 0.16,-2.36 -0.41,-1.16 -0.92,-1.09 -0.92,-0.64 -3.69,1.56 -1.87,1.45 0.02,2.26 -0.78,0.6 -0.78,0.38 -0.78,0.02 -0.79,-0.47 0.46,-0.22 1.13,-0.84 -0.9,-0.68 0.13,-0.79 0.23,-0.78 -0.52,-0.66 -0.67,0.04 -0.84,1.49 -1.03,0.33 0.44,-2.19 -1.1,-1.59 -0.51,-1.31 2.2,-1.32 2.16,-0.33 0.98,-0.35 0.74,-0.89 0.16,-1.07 -0.39,-0.92 -0.73,-0.73 -0.87,-0.52 2.94,-1.13 0.86,-0.94 0.36,-2.07 -0.14,-1.6 -0.76,-3.39 -0.17,-1.93 -0.18,-0.63 -0.41,-0.73 -0.5,-0.65 -1.17,-1.13 -0.15,-0.85 -0.05,-0.85 -0.98,-2.08 -1.17,-9.19 -0.37,-1.4 -2.06,-4.45 -0.24,-1.74 0.83,-1.52 2.47,-2.3 0.98,-1.18 -0.09,-0.51 -1.55,-0.51 -1.16,-1.21 -1.1,-1.41 -1.31,-1.09 -1.65,0.77 -2.05,-0.04 -1.76,-0.87 -0.74,-1.68 -0.51,-1.71 -1.31,-0.68 -3.55,-0.02 -2.85,0.56 -6.22,1.92 -3.06,-0.31 z" 
                fill="rgb(151, 144, 238)" 
                stroke="white" 
                stroke-width=".7px"
                title="Nampula" 
                id="MZ-N" 
            />
        </svg>