<svg xmlns="http://www.w3.org/2000/svg" viewBox="311.2199999999997 59.74 311.07999999999925 328.0699999999999" width="311.07999999999925" height="328.0699999999999">
            <path 
                d="m 597.84,62.37 -0.89,-0.25 -1.48,-1.08 -0.73,-0.25 -0.24,-0.15 -0.4,-0.71 -0.13,-0.19 -0.46,0.01 -0.38,0.18 -0.23,0.23 0,0.12 -0.59,-0.02 -1.69,-0.03 -4.3,0.73 -0.71,0.76 -0.67,0.17 -3.06,0.19 -1.24,0.3 -4.72,2.7 -0.52,0.66 -0.19,1.13 -1.16,3.46 -0.7,0.94 0.1,1.37 -1.8,3.23 -0.39,1.72 0.3,1.02 0.45,0.95 0.14,0.94 -0.62,1.02 -0.94,0.84 -1.56,1.11 -5.47,2.42 -3.34,2.69 -1.4,0.8 -1.61,0.29 -2.39,0.02 -1.63,0.32 -2.72,1.44 -1.57,0.34 -0.91,0.41 -0.58,0.95 -0.43,1.06 -0.42,0.77 -0.62,0.54 -0.51,0.27 -1.43,0.24 -1.72,0 -3.72,-1.05 -0.61,-0.31 -1.34,-1.42 -0.87,-0.42 -0.7,0.05 -0.59,0.29 -0.59,0.38 -0.73,0.33 -2.69,0.29 -3.28,-0.35 -6.39,-1.46 -2.64,-1.28 -2.63,-2.22 -2.04,-2.57 -0.9,-2.36 -1.18,0.69 -0.67,0.51 -0.71,0.31 -6.95,0.63 -1.11,-0.22 -1.87,-1.21 -1.48,-0.11 -0.72,-0.37 -1.27,0.43 -3.4,4.05 -2.09,3.08 -0.68,0.64 -0.86,0.46 -2.77,1.06 -0.73,0.6 -0.41,0.5 -0.55,0.35 -2,0.22 -1.12,0.39 -4.72,0.76 -1.3,-0.15 -1.88,-0.94 -0.42,-0.16 -0.48,-0.4 -0.45,-1.8 -0.59,-0.42 -8.78,0 -0.36,0.17 -0.38,0.36 -0.52,0.35 -2.37,0.36 -2.73,0.79 -1.1,0.12 -0.78,-0.23 -1.17,-0.71 -0.9,-0.16 -3.1,0.53 -0.86,-0.6 -0.68,-1.39 -0.22,-1.58 0.48,-1.15 -0.5,-1.53 -0.18,-1.74 -0.42,-1.43 -1.21,-0.59 -0.68,-0.16 -0.51,-0.39 -0.49,-0.52 -0.63,-0.5 -0.73,-0.31 -1.66,-0.43 -0.74,-0.3 -2.74,-1.7 -1.57,-0.71 -1.08,0.07 -1.45,0.43 -1.41,-0.74 -0.67,-1.45 0.71,-1.72 -1.3,-1.57 -1,-0.5 -2.83,0.03 -0.48,-0.14 -2.13,-0.91 -3.08,-0.57 -0.99,0.68 -2.35,2.98 -1.33,1.05 -3.78,0.69 -1.38,0.82 0.58,1.69 -0.9,0.59 -0.84,1.02 -0.63,1.07 -0.52,1.57 -0.76,0.49 -4.05,1.07 -0.09,-0.01 -1.76,1 -1.24,-0.32 -1.21,-0.48 -0.82,0.06 -0.1,1.32 -0.85,-0.28 -0.34,-0.43 -0.2,-0.53 -0.4,-0.58 -0.67,-0.51 -0.35,-0.04 -0.29,0.17 -0.49,0.14 -0.02,0.08 -1,0.4 -0.33,0.03 -1.85,-0.09 -0.7,-0.23 -0.49,-0.49 -0.13,-0.42 -3.14,0.09 -31.36,-0.32 -23.56,-0.27 -2.59,0.64 -0.72,0.98 0,1.4 0.51,3.33 -0.15,3.1 -0.57,3.03 -3.05,7.55 -5.73,8.69 -8.08,12.28 -1.6,3.89 -0.36,3.46 0.12,0.43 1.86,6.63 4.42,15.69 4.16,14.82 0.98,8.63 1.23,10.81 1.04,9.24 0.87,7.7 -0.49,6.54 0.19,6.33 2.47,5.61 0.09,0.15 0.26,0.25 1.27,1.28 0.88,1.21 1.53,2.73 0.35,0.86 0.09,0.46 0.22,0.32 0.81,0.42 1.21,0.24 9.62,-0.16 2.57,0.4 2.52,0.91 0.06,0.04 2.29,1.43 7.68,7.05 6.58,6.06 6.54,7.85 8.09,9.69 6.87,8.24 6.44,7.73 5.04,9.75 6.51,8.28 7.9,10.03 2.71,3.46 2.73,3.47 3.66,3.73 0.88,1.13 0.43,1.32 0.77,16.27 0.5,0.69 0.97,0.15 1.62,-0.05 -2.82,6.71 -2.07,4.92 -3.64,8.6 -0.5,1.95 0.02,1.82 0.31,1.26 1.76,7.28 2.14,8.76 -0.21,3.21 1.92,0 25.1,-0.21 0.67,0.09 0.48,0.16 0.34,0.21 0.86,0.82 0.34,0.22 0.4,0.15 0.46,0.1 0.41,0.15 0.39,0.17 0.65,0.44 0.74,0.38 0.42,0.13 0.57,-0.18 0.64,-0.49 0.92,-1.43 0.41,-0.8 0.23,-0.71 0.11,-1.56 -0.08,-0.93 -0.1,-0.43 -0.03,-0.43 0.02,-0.43 0.13,-0.39 0.17,-0.36 1.61,-2.12 2.09,-4.09 0.26,-0.35 0.31,-0.29 0.56,-0.15 0.46,0.03 1.33,0.33 0.45,0.01 0.44,-0.05 0.38,-0.14 1.26,-0.74 0.48,-0.12 0.93,-0.14 0.34,-0.18 2.68,-1.91 0.54,-0.22 0.4,-0.07 0.95,-0.06 0.43,-0.08 0.38,-0.16 2.39,-1.45 4.17,-4.69 1.02,-0.84 0.33,-0.5 0.37,-1.04 0.34,-0.58 0.52,-0.41 0.54,-0.34 0.52,-0.52 3.07,-4.77 0.3,-1.18 -0.09,-3.24 3.91,-3.9 1.01,-1.54 0.18,-0.56 0.56,-0.98 3.34,-3.49 0.7,-1.51 0.31,-0.81 1.18,-2.36 2,-2.67 4.03,-1.64 0.47,-0.51 0.44,-0.78 2.23,-2.44 0.93,-0.76 0.74,-0.32 1.6,-0.41 0.78,-0.34 1.25,-1.01 0.67,-0.41 0.91,-0.17 1.44,-0.55 4.9,-4.09 0.26,-0.35 0.43,-0.24 0.92,-0.12 0.92,0.16 1.45,0.77 0.45,0.18 1.46,-0.28 7.68,-4.27 2.62,-2.2 2.15,-2.41 2.68,-3.72 2.93,-3.04 1.13,-0.61 5.93,0 1.41,-0.97 1.72,-1.78 1.25,-1.93 -0.02,-1.41 -0.7,-1.61 0.91,-1.12 1.64,-0.62 1.48,-0.14 5.91,0.53 1.06,-0.48 1.96,-2.37 1.34,-0.86 3.25,0.03 1.74,2 1.57,2.43 2.73,1.37 1.15,-0.31 1.37,-0.83 1.15,-0.97 0.48,-0.78 0.73,-0.48 12.65,-2.4 1.52,-1.13 2.6,-2.69 2.95,-1.55 6.52,-0.76 2.94,-0.86 2.32,-1.06 -4.51,-3.93 -1.06,-1.39 -0.21,-0.82 -0.33,-0.71 -4.46,-6.62 -0.48,-1.61 -0.36,-0.52 -0.63,-0.7 -0.25,-0.52 -0.08,-0.5 0.02,-0.46 -0.05,-0.43 -0.13,-0.39 -0.97,-2.12 -0.34,-0.55 -0.42,-0.47 -1.08,-1.01 -0.36,-0.59 -2.36,-5.99 -0.11,-0.47 -0.32,-1.04 -0.11,-0.49 -0.03,-0.5 0.1,-0.96 -0.04,-0.72 -0.17,-0.86 -0.47,-1.5 -0.38,-0.87 -1.06,-1.79 -1.12,-1.5 -0.26,-0.54 -0.11,-0.54 -0.01,-0.48 0.5,-2.88 0.02,-0.59 -0.09,-0.85 -0.47,-0.86 -0.47,-1.24 -0.49,-1.85 -0.32,-0.54 -0.41,-0.29 -0.41,0.01 -0.39,0.11 -0.36,0.16 -0.33,0.19 -0.32,0.22 -0.41,0.09 -0.45,-0.03 -0.69,-0.46 -0.3,-0.44 -0.2,-0.58 -0.63,-3.31 0,-0.45 0.08,-0.42 0.1,-0.34 0.13,-0.23 0.16,-0.24 1.23,-1.38 1.54,-1.15 1.4,-1.25 0.97,-0.62 0.56,-0.49 1.32,-1.36 0.22,-0.32 0.17,-0.37 0.24,-0.87 0.15,-0.41 0.21,-0.33 0.23,-0.3 0.81,-0.79 0.22,-0.32 0.44,-1.21 0.22,-0.32 0.49,-0.59 0.15,-0.37 0.06,-0.45 -0.06,-0.88 0.04,-0.43 0.15,-0.35 0.42,-0.62 0.07,-0.39 -0.01,-0.87 0.07,-0.39 0.15,-0.36 0.75,-0.85 0.17,-0.37 0.06,-0.64 -0.1,-2.13 -0.23,-0.61 -0.31,-0.27 -0.88,-0.04 -0.89,0.11 -0.36,0.12 -0.35,0.17 -2.7,1.79 -0.32,0.09 -0.27,-0.05 -0.81,-0.24 -0.93,-0.19 -0.84,-0.27 -0.37,-0.18 -0.33,-0.2 -0.54,-0.54 -0.45,-0.59 -0.27,-0.27 -0.31,-0.24 -0.36,-0.19 -1.64,-0.55 -3.86,-0.74 -0.48,-0.22 -0.45,-0.49 -0.04,-0.4 0.1,-0.39 1.66,-2.11 0.4,-0.71 0.13,-0.49 0.08,-0.53 0.03,-1.44 0.19,-0.63 0.1,-0.63 0.05,-0.84 -0.15,-2.56 0.02,-0.74 0.22,-0.89 0.06,-0.53 0.03,-0.61 -0.1,-0.84 0,-0.62 0.27,-1.91 -0.12,-1.5 0.09,-0.77 0.17,-0.54 0.5,-0.57 0.19,-0.35 0.14,-0.41 0.08,-0.47 0.05,-0.49 -0.2,-2.3 0.04,-0.45 0.11,-0.42 0.94,-1.79 0.07,-0.51 -0.14,-3.54 -0.22,-0.66 -0.37,-0.74 -0.16,-0.51 -0.05,-0.53 0.77,-3.68 0.26,-0.82 0.23,-1.33 0.05,-1.28 -0.07,-0.7 -0.13,-0.54 -0.46,-0.79 -0.66,-1.57 -0.01,-0.57 0.15,-0.41 0.31,-0.21 1.05,-0.59 1.24,-0.9 0.54,-0.53 0.45,-0.62 0.4,-0.68 0.46,-0.6 2.13,-2.13 1.38,-1.83 0.84,-0.74 1.32,-0.76 0.35,-0.44 0.31,-0.68 0.59,-4.76 0.33,-1.33 1.12,-2.69 0.36,-1.37 0.17,-0.5 0.34,-0.23 0.72,-0.34 0.3,-0.23 0.98,-0.99 0.85,-1.14 0.25,-0.25 0.28,-0.22 0.32,-0.19 1.46,-0.62 0.95,-0.56 2.74,-2.28 0.24,-0.74 0.19,-1.16 0.19,-2.64 0.21,-1.15 0.26,-0.73 0.3,-0.16 1.54,-0.6 0.33,-0.26 0.29,-0.34 0.68,-1.74 0.31,-1.8 0.17,-0.39 0.23,-0.26 0.92,-0.59 0.99,-1.04 0.18,-0.31 0.12,-0.35 0.33,-2.1 0.13,-0.39 0.18,-0.32 0.23,-0.79 0.5,-3.86 0.03,-1.21 -0.06,-0.83 -0.35,-0.65 -0.83,-1.23 -0.71,-0.81 -0.69,-1.32 -0.2,-0.3 -0.38,-0.8 -0.45,-1.77 -0.03,-0.68 0.45,-5.44 0.54,-2.21 0.2,-1.6 0.17,-0.8 0.2,-0.57 0.38,-0.58 0.2,-0.43 0.16,-0.58 0.27,-1.62 0.9,-2.19 0.41,-2.11 0.13,-0.37 0.15,-0.35 0.19,-0.32 2.83,-3.83 0.04,-0.14 -0.04,-0.02 -2.21,-1.29 -5.96,-1.51 -2.66,-1.37 -4.15,-4.38 -2.69,-1.88 -3.48,-0.55 -0.74,0.21 -1.67,0.7 -0.86,0.15 z m -270.94,53.28 2.69,-0.57 2.19,1.28 1.03,2.35 -0.71,2.66 -1.55,1.55 -1.14,-0.05 -0.94,-1 -0.96,-1.38 -2,-2.28 -0.17,-1.28 1.49,-1.24 0.07,-0.04 z m 9.5,11.26 -1.5,-0.51 -0.96,-1.59 -0.03,-1.61 0.49,-1.8 1.39,-3.34 1,-0.69 1.61,0.1 1.71,0.6 1.19,0.82 0.62,1.55 -0.24,1.94 -0.83,1.91 -1.18,1.43 -1.57,0.91 -1.7,0.28 z" 
                fill="rgb(151, 144, 238)" 
                stroke="white" 
                stroke-width=".7px"
                title="Niassa" 
                id="MZ-A" 
            />
        </svg>