<svg xmlns="http://www.w3.org/2000/svg" viewBox="-2.0171364578658313e-14 272.71999999999997 385.0900000000001 289.97999999999973" width="385.0900000000001" height="289.97999999999973">
            <path 
                d="m 236.28,289.52 -0.21,-0.41 -0.54,-0.5 -0.67,-0.27 -1.07,-0.7 -0.63,-0.72 -1.88,-3.11 -0.33,-1.4 0.38,-3.85 -0.83,-2.2 -1.68,-1.33 -4.15,-2.31 -5.46,1.88 -6.55,2.25 -9.45,3.25 -12.95,4.44 -12.64,4.36 -11.37,3.91 -7.9,2.72 -6.99,2.4 -6.04,1.12 -2.88,0.89 -5.67,2.63 -7.55,2.51 -9.89,3.29 -10.74,3.58 -5.17,2.73 -6.99,3.71 -6.45,2.41 -7.82,1.91 -9.68,2.36 -7.79,1.91 -1.34,0.1 -10.64,2.46 -7.47,1.73 -10.43,3.84 -6.4,2.37 -7.99,2.94 -6.99,3.51 -5.57,2.79 -6.58,0.8 -1.24,0.33 0,0.04 -0.04,0.51 0.53,2.32 0,3.48 0.37,3.37 2.8,9.73 1.87,3.71 2.44,1.61 1.08,0.41 0.95,1.02 0.79,1.38 0.52,1.45 0.32,1.6 0.2,5.08 0.23,0.89 1.11,1.55 0.24,0.75 -0.2,0.78 -1.38,2.7 -0.49,1.72 0.16,1.08 2.15,2.29 0.39,0.61 0.86,2.3 -0.17,0.2 -1.06,0.43 0.11,6.31 0.11,7.44 0.16,9.35 0.09,5.44 8.44,-0.06 5.4,-0.04 12.26,-0.09 8.09,-0.05 3.35,0.7 3.03,2.14 1.21,1.3 1.11,0.85 1.25,0.18 1.68,-0.73 0.88,-0.76 1.39,-1.59 1.1,-0.57 0.64,0.16 0.59,0.46 0.57,0.03 0.62,-1.1 1.88,-1.17 3.34,0.26 7.63,1.82 1.42,0.53 1.23,0.89 1.08,1.36 1.41,2.64 0.94,1.09 1.46,0.8 0.75,0.53 0.32,0.72 0.24,0.73 0.47,0.52 0.28,0.05 0.59,-0.14 0.3,-0.04 0.36,0.21 -0.02,0.36 -0.1,0.38 0.14,0.23 1.46,0.19 1.63,0.02 1.5,0.22 1.12,0.8 2.9,1.45 12.55,0.84 1.85,0.83 2.06,1.72 4.56,5 1.45,1.24 3.15,1.66 0.9,0.76 0.66,1.38 0.37,3 0.65,1.19 1.2,0.58 7.81,1.26 14.85,-0.38 5.92,0.91 7.76,3.14 11.91,4.83 8.99,3.64 0.85,0.79 0.37,1.13 0.05,1.81 0.75,3.09 2,1.54 0.43,0.18 0.03,0.01 0.64,-0.44 1.05,-0.41 1.17,-0.19 2.35,0.14 4.61,1.03 2.36,0.16 1.22,-0.35 2.25,-1.43 1.25,-0.53 0.93,-0.11 -0.52,2.25 -2.12,8.28 -1.29,2.52 -1.18,1.56 -5.39,5.3 0.1,0.5 4.25,7.6 3.14,5.6 1.93,4.54 1.02,4.86 0.1,2.93 0.03,0.78 0.28,1.72 0.78,1.56 0.66,0.55 1.68,0.94 0.52,0.7 0.06,1.26 -0.46,1.23 -0.35,0.54 1.95,-0.8 0.54,-2.22 -0.06,-0.45 -0.14,-0.61 -0.21,-0.47 -0.23,-0.68 0.08,-0.43 0.75,-0.95 0.63,-0.96 2.8,-5.59 0.17,-0.65 0.02,-0.48 -0.63,-1.87 -0.04,-0.86 0.15,-0.62 0.36,-0.75 0.14,-0.64 0.12,-1.73 0.9,-2.42 0.93,-1.46 0.59,-0.74 0.8,-0.74 0.63,-0.44 0.26,-0.27 0.48,-0.63 0.27,-0.28 0.35,-0.19 0.41,-0.15 2.64,-0.43 0.48,-0.18 0.49,-0.32 0.66,-0.6 0.3,-0.44 0.16,-0.32 0.08,-0.91 0.4,-1.82 2.48,-7.26 0.24,-0.52 2.51,-3.66 0.36,-0.82 0.13,-0.65 -0.06,-0.41 0.01,-0.44 0.32,-1.29 0.03,-0.42 -0.07,-1.11 0.07,-0.89 0.17,-0.54 0.23,-0.42 1.28,-1.45 0.95,-0.68 0.35,-0.17 0.87,-0.3 0.44,-0.35 0.19,-0.45 0.12,-0.61 0.25,-0.48 4.31,-5.47 0.36,-0.73 0.12,-0.61 -0.12,-0.37 -0.39,-0.67 -0.05,-0.43 0.21,-1.16 0.03,-0.56 -0.17,-1.8 0.61,-0.47 2.49,-3.75 1.59,-1.58 1.86,-1.22 2.02,-0.79 2.52,-0.33 7.56,0.67 1.23,-0.13 3.38,-1.24 0.93,-0.2 2.82,0 0.19,-0.26 1.37,1.6 2.15,3.45 2.56,3.19 2.28,3.69 1.44,1.21 1.89,0.99 0.9,0.27 1.31,0.1 0.89,0.4 0.37,0.93 0.27,1.09 0.58,0.84 1.21,0.29 2.67,-0.68 1.22,0.12 0.79,0.29 1.64,0.33 0.79,0.26 0.59,0.33 3.81,3.24 1.2,0.8 1.33,0.51 5.04,0.28 4.99,0.96 4.07,1.3 14.15,7.78 5.65,3.1 5.72,1.64 1.75,0.87 6.78,5.74 0.63,0.79 1.07,2.38 1.85,7.83 3.01,5.1 1.43,3.29 0.88,3.02 0.15,1.58 0.41,0.09 0.29,0.72 1.22,2.01 0.28,1.1 0.15,0.38 0.79,1.08 2.19,5.45 0.66,3.36 0.33,0.63 1.17,1.3 0.39,0.6 0.97,2.81 0.08,0.45 0,1.49 0.1,0.49 0.35,0.72 0.99,1.32 1.21,1.29 2.35,1.64 1.94,1.79 0.72,0.33 0.54,0.84 0.97,0.71 4.83,2.47 1.7,1.37 0.87,0.55 0.72,-3.35 0.07,-15.3 -0.85,-4.47 -0.03,-0.34 0.07,-1.9 0.1,-0.65 0.21,-0.55 0.93,-1.46 0.03,-0.64 -0.54,-2.84 -1.77,-3.52 -0.39,-1.5 -0.38,-9.11 -0.3,-1.19 -4.28,0.47 -7.58,-0.26 -3.96,-0.63 -1.15,-1.12 0.23,-2.03 -2.44,-3.78 0.59,-2.46 1.63,-1.36 1.9,-0.94 1.66,-1.19 0.88,-2.15 0.22,-2.53 -0.05,-2.85 -0.69,-2.43 -1.69,-1.27 -2.48,-0.07 -2.24,0.22 -2.14,-0.36 -2.22,-1.77 -1.38,-1.87 -0.64,-0.7 -1.03,-0.76 -0.51,-0.19 -1.15,-0.21 -0.51,-0.29 -0.35,-0.6 -0.24,-1.51 -0.32,-0.65 -0.51,-0.38 -0.69,-0.51 -1.32,-0.56 -1.15,-0.69 -0.74,-1.2 -0.54,-1.7 -0.61,-1.08 -3.49,-2.98 -0.77,-1.05 -1.34,-2.62 -0.97,-1.08 -4.76,-2.55 -0.57,-0.21 -0.47,-0.36 -0.92,-2.33 -0.4,-0.72 -0.5,-0.56 -2.43,-1.85 -0.94,-0.93 -0.81,-1.22 -2.11,-5.42 -1.68,-1.75 -3.33,-0.49 -2.59,-0.1 -1.46,-1.51 -3.1,-6.85 0.3,-2.66 1.48,-5.06 -0.33,-2.19 -1.27,-1.78 -6.27,-6.64 -1.09,-0.68 -2.5,-1.19 -0.94,-0.83 -0.81,-2.17 -0.14,-2.79 0.38,-2.73 0.81,-1.96 2.13,-2.32 1.34,-1.04 1.27,-0.61 1.56,-0.48 0.81,-0.49 0.03,-0.04 4.65,-6.52 0.89,-2.48 0.24,-3.1 -0.68,-4.71 0.01,-2.63 0.94,-1.31 1.35,-0.7 1.48,-2.39 1.51,-0.94 0.5,-0.96 0.37,-1.98 0.35,-0.96 0.86,-1.15 0.92,-0.64 0.98,-0.53 1.01,-0.76 1.38,-2.02 0.3,-2.04 -0.75,-5.53 -0.81,-5.96 0.17,-1.33 0.7,-0.85 -0.2,-0.89 -0.47,-0.97 -0.17,-1.1 0.44,-1.1 1.53,-2.14 0.55,-1.15 0.14,-1.31 -0.54,-1.18 -0.83,-1.17 -0.67,-1.24 -0.44,-1.55 -0.18,-1.31 -0.03,-5.74 -0.42,-2.45 -0.8,-2.29 -1.26,-2.5 -0.72,-2.66 1.02,-4.63 -0.09,-2.59 -1.23,-2.47 -3.92,-3.9 -1.74,-2.16 -2.46,-5.07 -1,-1.45 -0.63,-0.9 -2.11,-1.14 -0.66,0.12 -0.56,0.37 -0.55,0.44 -0.57,0.38 -0.6,0.12 -1.21,-0.13 -0.56,0.07 -7.44,2.68 -5.47,0.15 -2.41,1.03 -0.55,0.79 -0.88,1.96 -0.59,0.39 -7.9,-1.07 -2.2,0 -2.06,0.53 -4.37,2.68 -2.13,0.78 -2.13,-0.21 -4.04,-3.13 -1.59,0.5 -1.14,1.75 -0.64,2.26 -0.01,2.68 -0.24,1.39 -0.74,0.53 -1.32,-0.41 -0.89,-0.81 -0.64,-1.03 -0.46,-1.26 -1.06,-2.94 -0.64,-0.98 -0.86,-0.68 -2.02,-0.95 -0.86,-0.68 -0.64,-1 -0.39,-0.97 -0.49,-0.93 -1,-0.88 -3.17,-1.43 -0.97,-0.79 -1.37,-1.84 -3.8,-7.76 -1.32,-1.85 -1.05,-2.03 z" 
                fill="rgb(151, 144, 238)" 
                stroke="white" 
                stroke-width=".7px"
                title="Tete" 
                id="MZ-T" 
            />
        </svg>