<svg xmlns="http://www.w3.org/2000/svg" viewBox="369.69999999999976 349.60999999999996 300.4700000000009 306.28000000000037" width="300.4700000000009" height="306.28000000000037">
            <path 
                d="m 539.06,366.33 -0.42,-0.1 -0.44,-0.5 -0.25,-0.42 -0.36,-0.78 -0.25,-0.29 -2.48,-1.21 -0.57,-0.44 -0.35,-0.44 -1.51,-4.22 -0.38,-0.68 -0.51,-0.56 -0.23,-0.31 -0.17,-0.35 -0.19,-0.84 -0.14,-0.39 -0.17,-0.35 -0.45,-0.62 -1.01,-1.13 -1.12,-1.03 -1.26,-0.94 -0.52,-0.54 -37.6,-0.58 0.09,3.24 -0.3,1.18 -3.07,4.77 -0.52,0.52 -0.54,0.34 -0.52,0.41 -0.34,0.58 -0.37,1.04 -0.33,0.5 -1.02,0.84 -4.17,4.69 -2.39,1.45 -0.38,0.16 -0.43,0.08 -0.95,0.06 -0.4,0.07 -0.54,0.22 -2.68,1.91 -0.34,0.18 -0.93,0.14 -0.48,0.12 -1.26,0.74 -0.38,0.14 -0.44,0.05 -0.45,-0.01 -1.33,-0.33 -0.46,-0.03 -0.56,0.15 -0.31,0.29 -0.26,0.35 -2.09,4.09 -1.61,2.12 -0.17,0.36 -0.13,0.39 -0.02,0.43 0.03,0.43 0.1,0.43 0.08,0.93 -0.11,1.56 -0.23,0.71 -0.41,0.8 -0.92,1.43 -0.64,0.49 -0.57,0.18 -0.42,-0.13 -0.74,-0.38 -0.65,-0.44 -0.39,-0.17 -0.41,-0.15 -0.46,-0.1 -0.4,-0.15 -0.34,-0.22 -0.86,-0.82 -0.34,-0.21 -0.48,-0.16 -0.67,-0.09 -25.1,0.21 -1.92,0 -0.01,0.07 -0.42,6.18 -0.67,9.75 -0.47,6.92 -0.76,11.24 -0.76,2.92 -0.52,1.99 0.03,1.24 0.42,2.38 -0.08,1.23 -0.71,1.69 -1.13,1.29 -5.45,3.81 -0.79,0.41 -0.69,0.06 -1.43,-0.27 -0.77,0.04 -7.17,2.18 -1.82,0.18 -0.38,0.47 -0.22,1.21 -0.49,0.72 -0.94,-0.04 -1,-0.49 -0.65,-0.6 -0.54,-1.31 -1.24,-0.84 -1.55,-0.43 -1.48,-0.08 -1.71,0.44 -1.41,0.97 -5.24,4.78 -0.43,0.52 -1.66,1.98 -1.38,2.94 -0.51,3.63 0.17,0.82 0.9,2.2 -0.29,0.8 -1.78,2.15 -0.11,0.39 -0.29,1.06 0.02,3.12 -0.41,1.4 -1.03,1.1 -5.25,3.51 -0.95,0.67 1.23,3.49 1.21,1.94 0.31,0.81 0.43,0.65 0.84,0.28 0.69,0.12 1.65,0.64 0.48,0.27 0.34,0.37 0.39,0.81 0.3,0.43 0.23,0.15 0.64,0.28 0.21,0.15 1.81,2 0.23,0.41 0.22,5.19 0.3,1.56 1.51,3.06 0.38,1.95 -1.88,1.61 -0.18,1.66 0.17,2.98 -0.24,0.36 -0.46,0.35 -0.36,0.4 0.03,0.5 0.35,0.36 2.43,1.46 0.45,0.67 -0.38,1.02 -0.8,1.44 -0.09,1.27 0.66,2.96 0.1,1.59 -0.2,1.31 -0.41,1.08 -0.56,0.89 -0.02,0.01 0.3,1.19 0.38,9.11 0.39,1.5 1.77,3.52 0.54,2.84 -0.03,0.64 -0.93,1.46 -0.21,0.55 -0.1,0.65 -0.07,1.9 0.03,0.34 0.85,4.47 -0.07,15.3 -0.72,3.35 0.94,0.6 0.83,0.71 2.5,3.14 1,0.58 0.44,0.76 1.3,1.14 0.34,0.61 0.41,0.1 0.44,1.29 0.47,2.83 0.38,1.29 0.63,0.86 2.75,1.52 0.92,0.83 0.63,0.9 0.9,2.14 0.62,0.93 0.84,0.54 0.95,0.42 0.95,0.57 2.31,2.29 1.02,0.43 0.96,0 1.91,-0.5 0.72,-0.09 1.09,0.32 1.79,1.06 2.37,0.57 1.53,0.86 2.74,2.34 3.74,1.74 1.49,1.27 -0.8,1.6 1.97,2.01 0.55,0.7 1.14,2.12 0.49,0.58 -0.2,2.03 1.52,1.56 4.6,2.33 3.23,1.2 0.79,0.55 1.02,1.37 0.8,0.79 1.61,0.79 1.09,1.3 0.75,1.48 0.66,1.83 0.43,1.93 0.36,0.96 0.51,0.41 0.04,0.64 1.04,3.02 0.49,0.94 0.35,0.9 -0.1,3.65 0.36,1.1 0.38,0.85 -0.18,0.56 -1.33,0.2 -1.43,1.09 -0.3,2.46 0.36,2.6 0.55,1.48 -1.41,0.66 0.29,0.79 1.38,0.34 1.85,-0.71 1.31,1.95 1.34,1.47 0.12,0.48 -1.33,2.03 -0.88,0.85 -1.03,0.61 -1.07,0.25 -0.1,0.08 -0.02,0 0,0.27 -0.3,0.74 -0.15,0.59 0.36,4.58 1.12,1.13 2.66,-0.29 2.21,-0.68 2.47,-0.41 1.04,0.49 0.66,0.12 0.29,-0.35 -0.11,-0.73 -0.29,-0.56 -0.49,-0.38 -0.65,-0.2 1.04,-2.59 -0.42,-2.85 -1.64,-5.51 0.1,-2.45 2.57,5.11 1.74,1.72 1.38,0.47 1.69,0.89 1.7,0.54 1.41,-0.54 0.99,-0.52 1.25,-0.47 0.66,-0.78 -0.98,-1.82 -0.01,-0.77 -0.09,-0.24 -0.23,-0.16 -0.52,-0.22 -0.28,-0.16 0.13,0.62 -0.7,0.33 -0.61,-0.22 0.65,-1.69 0.24,-1.73 0.29,-0.62 0.61,-0.35 0.4,0.23 0.16,0.7 -0.14,1.05 1.18,-1.8 2.93,-6.33 1.35,-1.65 0.38,-0.93 -0.46,-0.97 -0.04,-0.62 1.04,-0.27 1.38,-0.04 0.96,0.09 -0.26,-0.54 -0.25,-1.57 1.57,0.73 0.48,0.36 0.48,-1.14 0.55,-3.2 2.48,-0.56 3.51,-3.27 7.06,-8.29 3.05,-2.59 5.22,-6.43 0.89,-1.67 -1.05,0.54 -2.2,1.63 -1.42,0.53 1.18,-2.43 0.76,-1.14 1.15,-0.75 1.43,0.12 1.72,0.57 1.43,0.23 0.59,-0.96 0.24,-1.43 0.64,-1.12 1.95,-2.05 1.03,-1.34 2.3,-4.37 -1.03,-0.66 -0.83,-0.71 -0.87,-0.56 -2.51,-0.62 -0.56,-1.01 -0.36,-2.92 -0.59,-2.54 -1.04,-2.64 -1.64,-1.28 -2.42,1.61 0.99,-2.02 1.98,-0.51 2.17,0.78 1.54,1.75 0.24,1.22 -0.01,1.09 0.27,0.98 1.06,0.83 0.99,0.52 0.77,0.59 0.66,0.76 0.68,1.02 0.51,-0.54 0.48,1.54 0.04,0.61 2.21,-2.12 5.48,-9.2 5.27,-4.65 2.15,-2.73 0.33,-2.91 1.72,0.5 2.24,-0.68 1.93,-1.27 0.84,-1.27 0.29,-1.08 0.77,-0.46 2.01,-0.05 1.06,-0.24 0.75,-0.63 1.27,-1.82 0.77,0.67 1.09,-0.29 1.13,-0.82 2.01,-2.03 9.66,-5.76 1.86,-2.1 2.6,0.38 3,-2.05 2.78,-2.43 1.88,-0.79 -0.21,1.02 0.76,-0.12 9.72,-6.69 4.14,-2.23 9.85,-2.15 4.88,-1.91 1.74,-1.36 -1.49,-1.03 1.62,-1.31 -0.86,-1.74 -1.76,-1.84 -1.05,-1.61 0.83,0.48 0.91,0.34 0.96,0.06 0.89,-0.35 -0.51,-1.61 1.09,1.54 0.11,5.3 1.37,1.81 1.27,0.05 1.06,-0.75 1.72,-1.99 0.98,-0.72 21.24,-8.51 -0.35,-0.65 -0.03,-0.67 0.29,-0.6 0.6,-0.5 0.5,0.15 0.58,0.6 0.82,0.58 1.17,0.02 3.51,-3.59 -0.32,1.44 2.59,-0.43 2.77,-1.07 1.36,-1.67 -1.65,-2.25 1.24,0.37 1.78,1.88 1.14,0.44 11.82,-1.11 2.79,-0.92 4.35,-2.96 2.49,-0.24 2.63,0.16 2.7,-0.3 1.2,-0.6 1.09,-1.01 0.84,-1.27 0.46,-1.41 0,-1.53 -0.68,-0.01 -1.12,0.36 -1.32,-0.48 1.48,-0.42 1.31,-0.67 0.83,-1.08 0.01,-1.28 0,0 -0.11,-0.1 -0.08,-0.77 0.17,-1.96 -0.02,-0.48 -0.05,-0.45 -0.2,-0.39 -0.61,-0.81 -0.23,-0.39 -0.49,-1.16 -1.92,-2.38 -0.35,-0.75 -0.21,-0.66 -0.05,-0.43 -0.69,-1.43 -0.62,-0.99 -0.78,-1.86 -0.41,-0.67 -0.39,-0.35 -0.54,-0.38 -2.1,-0.94 -0.31,-0.23 -0.37,-0.37 -0.47,-0.8 -0.22,-0.57 -0.14,-0.55 -0.08,-0.93 0.12,-2.6 0.1,-0.46 0.16,-0.39 0.21,-0.33 0.26,-0.3 0.27,-0.22 0.79,-0.4 0.79,-0.24 1.18,-0.2 0.47,-0.17 0.36,-0.23 0.23,-0.31 0.16,-0.39 0.05,-0.45 0.05,-0.98 -0.09,-1.06 -0.11,-0.56 -0.01,-0.22 -0.24,-1.67 -0.45,-1.66 -0.29,-0.76 -0.39,-0.67 -0.91,-1.24 -0.19,-0.35 -0.14,-0.38 -0.44,-2.16 -0.36,-1.01 -0.11,-0.22 -0.84,-1.24 -0.57,-1.54 -0.36,-0.71 -0.84,-1.29 -0.93,-1.17 -0.38,-0.69 -0.25,-0.81 -0.71,-1.4 -0.96,-2.72 -0.11,-0.41 0.01,-0.48 0.15,-0.95 0.03,-0.5 -0.06,-0.92 0.05,-0.47 0.1,-0.42 0.78,-1.43 0.14,-0.4 0.12,-0.43 0.06,-0.93 -0.07,-0.45 -0.11,-0.4 -1.46,-3.82 -1.6,-2.66 -1.53,-1.91 -0.44,-0.7 -0.17,-0.4 -0.06,-0.42 0.01,-0.48 0.19,-0.91 0.03,-0.5 -0.01,-0.46 -0.09,-0.43 -0.16,-0.36 -0.35,-0.45 -1.3,-1.42 -0.23,-0.57 -0.07,-0.48 0.05,-0.39 -0.13,-0.47 -0.29,-0.49 -0.61,-0.7 -0.28,-0.53 -0.17,-0.49 -0.38,-1.7 -0.13,-0.38 -0.18,-0.36 -1.53,-2.21 -0.48,-1.11 -0.37,-0.67 -0.55,-0.46 -3.99,-2.68 -0.24,-0.3 -0.25,-0.29 -0.98,-0.69 -0.29,-0.26 -0.25,-0.29 -0.34,-0.72 -0.3,-1.25 -0.14,-0.38 -0.48,-0.38 -0.74,-0.34 -3.69,-0.9 -3.45,-1.56 -0.98,-0.59 -0.58,-0.52 -0.14,-0.39 -0.24,-1.3 -0.42,-1.16 -0.19,-0.35 -0.5,-0.57 -0.29,-0.25 -0.64,-0.46 -0.52,-0.18 -1.88,-0.36 -0.75,-0.28 -1.12,-0.81 -1.35,-0.8 -0.26,-0.37 -0.19,-0.4 -0.23,-0.81 -0.27,-0.36 -0.38,-0.34 -0.71,-0.37 -0.69,-0.46 -0.09,-0.11 -0.25,-0.35 -0.49,-0.53 -0.9,-0.66 -0.53,-0.47 -0.29,-0.2 -2.25,-1.18 -0.39,-0.13 -0.57,0.08 -1.71,0.46 -0.9,0.13 -0.47,0.02 -4,-0.6 -0.75,-0.25 -1.21,-0.62 -1.1,-0.71 -1,-1.17 -0.4,-0.65 -0.69,-1.42 -0.2,-0.33 -0.33,-0.3 -1.09,-0.69 -0.25,-0.4 -0.03,-0.43 0.1,-0.4 0.05,-0.42 -0.1,-0.37 -0.31,-0.35 -1.29,-0.73 -0.86,-0.61 -0.97,-0.39 -0.84,-0.18 -1.05,-0.87 -0.78,-0.48 -3.74,-1.5 -1.03,-0.59 -0.62,-0.52 -0.17,-0.36 -0.19,-0.34 -0.25,-0.29 -0.86,-0.76 -0.26,-0.28 -0.4,-0.61 -0.36,-0.24 -0.51,-0.2 -2.71,-0.05 -0.86,0.36 -0.43,0.06 -0.54,-0.11 -0.66,-0.37 -0.44,-0.3 -0.31,-0.32 -0.49,-0.59 -1.06,-1.6 -0.25,-0.28 -0.42,-0.24 -0.58,-0.14 -1.06,0.02 -0.61,0.12 -0.46,0.18 -0.62,0.46 -0.68,0.38 -0.38,0.13 -0.46,0.08 -1.14,0.07 -0.45,0.13 -0.33,0.24 -0.75,0.89 -0.28,0.25 -2.02,1.16 -0.78,0.26 -0.43,0.07 -0.57,-0.04 -0.63,-0.19 -0.83,-0.48 -0.76,-0.75 -0.4,-0.21 -0.53,-0.13 -0.89,-0.07 -0.55,-0.21 -0.5,-0.57 -0.29,-1.01 -0.37,-0.37 -0.64,-0.34 -1.25,-0.46 -0.57,-0.39 -0.39,-0.37 -0.17,-0.36 -0.82,-1.29 -0.31,-0.33 -0.46,-0.29 -1.24,-0.66 -0.58,-0.18 -0.96,0.05 -0.52,0.12 -0.37,0.15 -1.06,0.8 -0.52,0.57 -1.46,2.43 -0.46,0.6 -0.3,0.25 -0.33,0.19 -0.38,0.16 -0.39,0.12 -1.32,0.23 -0.39,0.13 -1.7,0.94 -0.36,0.09 z" 
                fill="rgb(151, 144, 238)" 
                stroke="white" 
                stroke-width=".7px"
                title="Zambezia" 
                id="MZ-Q" 
            />
        </svg>