<svg xmlns="http://www.w3.org/2000/svg" viewBox="0.25008300999986255 490.44985 322.3299969900001 303.7399999999995" width="322.3299969900001" height="303.7399999999995">
            <path 
                d="m 291.29008,490.44985 14.21,3.7 1.77,1.53 7.26,12.11 0.96,5.91 4.62,14.1 1.7,14.65 -5.76,8.87 -0.76,8.69 2.77,8.27 4.52,6.38 -2.64,1.99 -6.15,0.65 -7.02,3.28 -6.16,1.48 -21.92,9.98 -6.17,0.64 -16.84,-3.42 -13.25,0.56 -8.84,-1.66 -15.91,-0.1 4.49,4.67 4.46,2.13 9.84,9.29 0.88,-0.1 4.51,5.5 0.96,5.92 -0.86,0.97 -0.76,10.35 -0.86,0.92 0.98,5.92 0,0 2.75,7.44 0.04,2.54 4.59,10.67 2.87,15.99 3.69,9.89 -27.01,25.92 -6.1,4.07 -6.96,6.74 -11.39,6.29 -9.58,9.56 -7.9,3.37 -9.61,7.03 -4.39,1.29 -16.54,17.14 -10.56,2.77 -11.35,8.92 -16.73,3.42 -13.89,16.03 0,0 -6.159997,1.48 -4.5,-6.38 -4.57,-10.67 -0.18,-12.01 -5.35,-3.7 -5.32,-1.2 0.72,-10.35 -0.9,-2.45 -4.49,-4.71 -5.39,-5.4 -14.24,-8 -12.51,-8.96 -14.21,-5.41 -3.56,-2.22 -8.94,-7.62 -5.43,-7.99 -1.83,-4.99 -0.12,-8.55 -1.84,-4.07 -0.06,-5.13 -0.89,-0.78 0.85,-1.8 0.56,-21.49 0.86,-0.93 -0.38,-25.69 -1.83,-4.94 -0.11,-6.84 -1.85,-6.15 -1.32999999,-1.15 0.02,-27.55 3.40999999,-8.04 -0.12,-7.71 1.69,-5.32 1.74,-2.73 8.74,-6.05 18.63,6.65 19.49,3.15 13.34,7.16 6.16,-0.65 3.23,-2.03 5.61,1.16 5.29,-0.56 2.61,-2.86 0.75,-6.94 0.89,-0.92 3.54,0.46 7.909997,-3.37 1.78,0.69 7.92,-0.83 0.87,-0.93 9.4,-17.14 10.45,-14.05 13.8,-22 1.74,-1.9 4.4,-0.46 0.88,-0.97 12.37,0.46 12.45,5.55 41.45,-3.42 0.9,0.78 7.94,-0.83 0.89,0.79 22.09,-0.6 0.88,0.78 7.04,-0.74 0.9,0.79 29.1,-3 z" 
                fill="rgb(151, 144, 238)" 
                stroke="white" 
                stroke-width=".7px"
                title="Acquaviva" 
                id="SM-01" 
            />
        </svg>