<svg xmlns="http://www.w3.org/2000/svg" viewBox="217.6800799999999 328.2098500000008 478.8799999999999 610.4299999999996" width="478.8799999999999" height="610.4299999999996">
            <path 
                d="m 538.07008,455.55985 -6.15,3.19 -6.09,4.94 -2.62,2.82 -3.43,7.21 -2.41,14.84 -3.49,4.62 -5.93,15.21 0.04,3.42 -0.86,0.97 1.18,21.3 -0.85,0.93 0.06,4.3 -1.68,6.14 -3.42,7.21 0.03,1.71 -7.83,9.38 -10.31,18.21 0.3,20.57 8.06,7.72 3.53,-0.38 3.52,-2.07 4.38,-0.47 0.88,-0.92 6.16,-0.65 0.88,-0.92 10.6,-0.28 19.52,6.56 3.57,2.22 -4.95,24.49 1.78,-0.18 13.12,-8.18 3.88,23.57 0.9,0.78 -2.57,6.24 -0.75,7.81 10.59,0.6 3.58,2.22 9.73,3.28 6.28,5.36 11.56,4.8 2.65,-0.27 14.16,2.81 15.9,-0.78 0.88,0.78 9.71,-1.01 0,0 1.81,3.23 25.02,19.69 12.21,-8.97 9.68,-4.43 5.28,-0.51 0.4,27.35 -10.35,16.5 -8.54,18.89 -0.82,5.22 -16.5,18.81 -1.71,3.6 0.98,5.08 2.69,3.98 2.77,7.44 0.1,6.83 -0.87,0.97 -4.41,0.42 -4.36,4.76 -0.79,4.34 1.81,4.11 0.09,5.13 -0.88,0.97 -4.41,0.46 -2.61,2.82 0.06,3.42 3.54,1.34 0.05,3.42 -1.72,2.77 -5.27,2.26 -4.35,4.71 0.06,4.3 -2.6,2.82 -21.06,9.88 0,0 -3.5,1.2 -6.1,4.95 -11.4,6.33 -9.53,11.22 -8.8,1.8 -3.5,3.79 -7.04,1.57 -8.76,3.46 -11.36,8.87 -14.02,7.49 -7.92,1.66 -0.89,0.92 -7.91,0.84 -8.8,3.46 -12.33,2.12 -6.12,3.24 -16.72,5.13 -5.29,0.55 -0.87,0.97 -17.64,1.8 0,0 -0.02,-1.71 4.31,-8.17 -0.12,-6.84 0.88,-0.92 0.79,-6.1 12.09,-18.39 8.71,-7.76 -0.05,-4.25 -0.89,-0.78 -0.08,-4.25 -1.84,-5.82 -0.1,-6.01 -0.9,-0.74 -1.19,-21.29 -0.9,-0.79 -2.87,-15.98 -1.85,-4.95 -0.57,-38.48 -0.92,-1.62 -10.63,-3.18 -2.03,-17.79 -4.58,-12.38 -32.33,-34.38 -8.03,-6.01 -7.13,-3.55 -11.49,-2.22 -14.23,-5.41 -13.27,-2.91 -2.68,-1.43 -16.79,-0.83 -0.9,-0.79 -16.77,0.88 -6.21,-1.94 -16.27,-24.03 -15.22,-14.69 -2.7,-4.02 -0.95,-3.33 -4.42,-1.25 -9.8,-4.99 -6.18,-1.06 -11.55,-3.97 -7.96,-0.88 0,0 -0.98,-5.92 0.86,-0.92 0.76,-10.35 0.86,-0.97 -0.96,-5.92 -4.51,-5.5 -0.88,0.1 -9.84,-9.29 -4.46,-2.13 -4.49,-4.67 15.91,0.1 8.84,1.66 13.25,-0.56 16.84,3.42 6.17,-0.64 21.92,-9.98 6.16,-1.48 7.02,-3.28 6.15,-0.65 2.64,-1.99 -4.52,-6.38 -2.77,-8.27 0.76,-8.69 5.76,-8.87 -1.7,-14.65 -4.62,-14.1 -0.96,-5.91 -7.26,-12.11 -1.77,-1.53 -14.21,-3.7 0,0 12.99,-18.48 7.88,-4.21 2.61,-2.86 62.26,-89.59 7.86,-5.08 12.33,-3.01 6.14,-3.19 0,0 17.7,3.33 13.27,0.33 0.89,0.78 12.35,-0.41 0.87,-0.98 10.58,-1.94 7,-3.28 2.65,-0.28 7.88,-5.13 4.39,-1.29 9.64,-5.27 2.6,-1.99 10.42,-13.08 2.65,-0.28 9.62,-6.15 1.75,-0.18 9.84,7.58 5.35,2.86 0.01,1.72 -0.86,0.97 -1.49,19 -22.54,28.06 14.38,18.21 -12.94,19.32 0.89,1.62 19.63,13.4 7.24,11.28 z" 
                fill="rgb(151, 144, 238)" 
                stroke="white" 
                stroke-width=".7px"
                title="Borgo Maggiore" 
                id="SM-06" 
            />
        </svg>