<svg xmlns="http://www.w3.org/2000/svg" viewBox="484.3100800000008 329.58985 473.6199999999994 357.0800000000008" width="473.6199999999994" height="357.0800000000008">
            <path 
                d="m 919.48008,329.58985 0.14,9.43 11.71,15.91 0.94,3.33 -12.76,32.22 -5.92,17.75 -1.75,2.72 46.09,69.84 0,0 -10.47,7.95 -15.61,19.6 -15.73,11.05 -13.05,14.19 -1.68,5.31 -6,11.79 -5.08,15.94 -6.05,7.49 -3.59,-3.05 -2.66,-0.61 -21.16,2.18 -2.68,-1.44 -0.01,-2.54 3.44,-4.66 -1.77,-1.53 -10.6,1.94 -2.64,-0.55 -1.78,-0.7 -4.47,-4.66 -2.73,-4.86 -2.68,-2.31 -8.85,-1.66 -6.25,-2.77 -4.4,0.46 -6.98,4.99 -4.42,0.46 -5.37,-6.28 -0.05,-1.71 -2.67,-2.31 -2.63,1.1 -6.04,10.08 -4.4,0.46 -7.14,-4.44 -4.41,0.47 -8.72,7.76 -7.04,0.74 -5.25,3.98 -12.34,1.24 -9.6,7.86 -6.15,3.19 -10.57,1.11 -3.53,-0.51 0.06,4.3 -1.68,6.19 -6,11.74 -0.84,3.51 -0.77,6.93 1.81,4.95 -6.93,8.45 -13.93,12.57 -7.88,5.08 -6.15,1.53 -0.54,23.2 -0.88,0.92 0.99,5.92 -13.99,9.98 -5.23,4.85 0,0 -9.71,1.01 -0.88,-0.78 -15.9,0.78 -14.16,-2.81 -2.65,0.27 -11.56,-4.8 -6.28,-5.36 -9.73,-3.28 -3.58,-2.22 -10.59,-0.6 0.75,-7.81 2.57,-6.24 -0.9,-0.78 -3.88,-23.57 -13.12,8.18 -1.78,0.18 4.95,-24.49 -3.57,-2.22 -19.52,-6.56 -10.6,0.28 -0.88,0.92 -6.16,0.65 -0.88,0.92 -4.38,0.47 -3.52,2.07 -3.53,0.38 -8.06,-7.72 -0.3,-20.57 10.31,-18.21 7.83,-9.38 -0.03,-1.71 3.42,-7.21 1.68,-6.14 -0.06,-4.3 0.85,-0.93 -1.18,-21.3 0.86,-0.97 -0.04,-3.42 5.93,-15.21 3.49,-4.62 2.41,-14.84 3.43,-7.21 2.62,-2.82 6.09,-4.94 6.15,-3.19 0,0 7.03,-1.57 0.87,-0.97 21.17,-2.18 0.88,-0.92 5.28,-0.56 2.62,-1.98 12.94,-21.08 6.08,-5.78 8.77,-5.18 8.8,-2.63 26.32,-11.28 1.65,-7.03 2.62,-2.82 3.51,-0.36 5.35,1.98 14.43,19.97 5.31,2.04 6.2,0.18 2.66,1.43 2.71,4.9 1.88,6.66 9.78,4.11 1.76,-0.18 6.32,8.78 2.75,7.44 1.78,0.7 5.26,-2.27 12.18,-13.26 8.76,-4.35 8.64,-12.9 5.21,-5.68 8.76,-4.35 6.88,-12.71 4.35,-5.55 6.14,-1.52 8.74,-6.06 6.94,-8.41 0.84,-2.68 8,2.63 17.64,-2.68 3.53,1.34 9.71,-1.01 9.64,-4.4 14.88,-9.29 2.65,-0.23 3.49,-2.08 11.5,-0.32 19.18,-15.72 14.96,-3.28 z" 
                fill="rgb(151, 144, 238)" 
                stroke="white" 
                stroke-width=".7px"
                title="Domagnano" 
                id="SM-03" 
            />
        </svg>