<svg xmlns="http://www.w3.org/2000/svg" viewBox="617.4600800000004 480.78984999999886 375.8499999999998 468.84000000000094" width="375.8499999999998" height="468.84000000000094">
            <path 
                d="m 982.39008,646.56985 -9.62,0.69 -10.53,3.65 -6.11,6.61 -4.3,6.47 -3.4,9.33 -6.02,10.49 -6.07,7.48 -7.2,4.58 -4.47,5.31 -1.4,2.59 0.14,10.26 -8.64,12.89 -1.67,6.19 -7.79,10.21 -3.42,8.09 -2.49,9.65 0.06,4.3 -6.85,15.25 0.27,17.97 -4.23,12.43 -4.29,8.17 -11.31,12.29 -9.68,2.73 -7,4.15 -2.64,0.28 -0.89,-0.78 -12.35,2.12 -11.38,5.45 -6.96,7.58 -8.63,12.89 -1.71,4.48 0.03,3.42 -6.08,5.77 -6.02,10.9 -0.83,3.51 -6.03,9.2 1.08,13.58 0.89,0.78 0.12,8.55 0.93,2.45 3.54,0.5 0.05,3.42 0.9,0.79 -0.87,0.92 0,0 -19.4,1.99 -0.89,-0.74 -5.31,0.55 -0.87,-0.78 -5.31,0.55 -0.88,-0.78 -5.31,0.55 -0.87,-0.74 -5.3,0.51 -0.91,-0.74 -5.29,0.55 -0.89,-0.78 -5.28,0.55 -0.91,-0.78 -7.93,0 -1.54,15.56 -15.02,-0.18 -1.78,-0.65 -0.18,-11.96 -0.89,-0.79 -0.04,-3.41 -26.61,-6.7 -2.7,-3.97 -0.02,-1.71 -2.71,-4.02 -3.67,-9.06 -14.15,-1.1 -0.91,-1.62 -0.08,-5.13 -0.88,-0.78 -0.22,-14.51 -1.86,-5.82 -14.87,9.24 0,0 -8.99,-8.5 -15.95,-6.05 -3.59,-3.93 -0.05,-1.71 0,0 21.06,-9.88 2.6,-2.82 -0.06,-4.3 4.35,-4.71 5.27,-2.26 1.72,-2.77 -0.05,-3.42 -3.54,-1.34 -0.06,-3.42 2.61,-2.82 4.41,-0.46 0.88,-0.97 -0.09,-5.13 -1.81,-4.11 0.79,-4.34 4.36,-4.76 4.41,-0.42 0.87,-0.97 -0.1,-6.83 -2.77,-7.44 -2.69,-3.98 -0.98,-5.08 1.71,-3.6 16.5,-18.81 0.82,-5.22 8.54,-18.89 10.35,-16.5 -0.4,-27.35 -5.28,0.51 -9.68,4.43 -12.21,8.97 -25.02,-19.69 -1.81,-3.23 0,0 5.23,-4.85 13.99,-9.98 -0.99,-5.92 0.88,-0.92 0.54,-23.2 6.15,-1.53 7.88,-5.08 13.93,-12.57 6.93,-8.45 -1.81,-4.95 0.77,-6.93 0.84,-3.51 6,-11.74 1.68,-6.19 -0.06,-4.3 3.53,0.51 10.57,-1.11 6.15,-3.19 9.6,-7.86 12.34,-1.24 5.25,-3.98 7.04,-0.74 8.72,-7.76 4.41,-0.47 7.14,4.44 4.4,-0.46 6.04,-10.08 2.63,-1.1 2.67,2.31 0.05,1.71 5.37,6.28 4.42,-0.46 6.98,-4.99 4.4,-0.46 6.25,2.77 8.85,1.66 2.68,2.31 2.73,4.86 4.47,4.66 1.78,0.7 2.64,0.55 10.6,-1.94 1.77,1.53 -3.44,4.66 0.01,2.54 2.68,1.44 21.16,-2.18 2.66,0.61 3.59,3.05 6.05,-7.49 5.08,-15.94 6,-11.79 1.68,-5.31 13.05,-14.19 15.73,-11.05 15.61,-19.6 10.47,-7.95 0,0 14.44,20.8 1.83,4.07 1.91,9.24 3.7,10.77 0.04,3.42 5.56,17.43 0.96,5.91 0.91,0.74 0.03,3.42 3.71,10.77 0.05,3.42 0.89,0.78 1.35,32.4 -3.35,12.38 -1.59,11.28 z" 
                fill="rgb(151, 144, 238)" 
                stroke="white" 
                stroke-width=".7px"
                title="Faetano" 
                id="SM-04" 
            />
        </svg>