<svg xmlns="http://www.w3.org/2000/svg" viewBox="250.43008000000017 867.26985 405.9599999999999 356.99995" width="405.9599999999999" height="356.99995">
            <path 
                d="m 617.46008,867.26985 0.05,1.71 3.59,3.93 15.95,6.05 8.99,8.5 0,0 -3.23,21.02 3.96,20.18 0.99,26.15 -7.63,5.03 -9.28,11.96 -7.62,4.12 -4.63,1.38 -7.3,5.5 0.32,19.25995 16.26,2.72 7.96,-15.55995 20.55,10.98995 0,16.07 -9.94,6.88 -4.65,4.58 -1.67,13.3 -5.29,6.88 -7.96,2.72 -2.99,4.16 24.88,44.93 -7.31,16.03 -12.59,0 -6.96,9.65 -27.17,29.78 -0.36,20.27 0,0 -12.04,2.08 -7.89,5.08 -1.74,0.19 -5.37,-3.74 -14.83,12.69 -8.75,5.18 -9.66,3.55 -1.71,2.77 -3.31,14.87 -17.78,-6.7 -4.41,0.42 -4.37,2.17 -9.71,1.02 -2.62,1.1 -5.22,4.85 -7.02,3.28 -7.1,-1.85 -16.8,-1.66 -0.92,-1.61 -5.35,-3.74 -7.09,-1.85 -5.38,-4.57 -15.1,-6.14 -6.25,-4.53 -2.7,-3.97 -0.96,-4.2 3.39,-10.62 -0.06,-3.42 -3.53,-0.51 -6.21,-2.77 -4.48,-3.83 -0.07,-4.25 -0.91,-0.78 4.34,-6.42 -1.8,-2.4 -1.79,-0.69 5.97,-14.32 -2.73,-4.85 -12.51,-10.71 -2.67,-0.56 -19.58,-10.85 -2.66,-0.55 -2.68,-2.31 -0.95,-4.16 -6.34,-11.36 -1.78,-0.64 -0.86,0.92 -24.66,5.96 -20.02,19.21 6.28,7.89 -5.19,6.56 -3.39,-2.91 -4.49,0.19 -6.2,5.86 -0.93,-4.15 -1.8,-2.41 -2.65,-0.6 -3.54,1.25 0,0 -1.03,-10.16 6.1,-5.77 13.83,-20.27 -0.05,-2.59 0.88,-0.92 -0.14,-9.42 -0.89,-0.74 -1.05,-11.04 -5.46,-11.45 -3.61,-4.76 -8.96,-7.62 -2.64,-0.6 -4.48,-3.83 -4.59,-11.5 -6.3,-7.9 -5.34,-2.91 -7.09,-1.85 -3.59,-3.88 -0.96,-5.03 0.86,-0.97 -0.1,-7.71 0,0 6.14,-2.30995 4.4,-0.47 0.88,-0.97 5.3,-0.5 11.39,-5.5 15.89,-1.62 0.88,0.74 8.82,-0.04 0.9,0.78 22.95,-1.52 16.87,5.95 42.92,-24.11 10.62,2.31 18.53,-1.89 0.88,0.74 5.29,-0.51 7.12,3.51 1.75,-1.01 3.44,-6.33 4.24,-11.6 4.29,-8.17 -0.02,-1.71 4.29,-8.13 0,0 17.64,-1.8 0.87,-0.97 5.29,-0.55 16.72,-5.13 6.12,-3.24 12.33,-2.12 8.8,-3.46 7.91,-0.84 0.89,-0.92 7.92,-1.66 14.02,-7.49 11.36,-8.87 8.76,-3.46 7.04,-1.57 3.5,-3.79 8.8,-1.8 9.53,-11.22 11.4,-6.33 6.1,-4.95 z" 
                fill="rgb(151, 144, 238)" 
                stroke="white" 
                stroke-width=".7px"
                title="Fiorentino" 
                id="SM-05" 
            />
        </svg>