<svg xmlns="http://www.w3.org/2000/svg" viewBox="594.3800799999998 878.21985 221.99999999999977 297.7099500000004" width="221.99999999999977" height="297.7099500000004">
            <path 
                d="m 646.04008,887.45985 14.87,-9.24 1.86,5.82 0.22,14.51 0.88,0.78 0.08,5.13 0.91,1.62 14.15,1.1 3.67,9.06 2.71,4.02 0.02,1.71 2.7,3.97 26.61,6.7 0.04,3.41 0.89,0.79 0.18,11.96 1.78,0.65 15.02,0.18 1.54,-15.56 7.93,0 0.91,0.78 5.28,-0.55 0.89,0.78 5.29,-0.55 0.91,0.74 5.3,-0.51 0.87,0.74 5.31,-0.55 0.88,0.78 5.31,-0.55 0.87,0.78 5.31,-0.55 0.89,0.74 19.4,-1.99 0,0 -2.56,7.11 0.08,5.13 1.84,4.11 0.03,3.42 0.91,-0.09 -0.86,2.63 0.24,16.26 -1.65,7.02 3.58,3.92 0.88,-0.09 0.13,8.55 7.07,0.14 3.55,1.34 2.67,2.3 0.95,2.45 -0.78,7.80995 -20.87,22.72 -1.68,6.14 0.08,3.42 -0.89,0.97 0.05,3.42 -7.67,17.92 0.01,1.71 -8.47,15.33 -6.33,9.23 -2.53,6.19 -2.33,1.43 -1.88,3.42 -5.84,23.74 -1.71,3.6 -5.66,35.69 -0.86,0.97 -0.89,-0.78 -16.76,1.75 -0.89,-0.78 -50.3,3.46 -0.87,-0.74 -15.89,1.62 -0.89,-0.74 -17.64,1.8 -0.9,-0.74 -9.68,0.97 -0.88,0.97 -5.29,0.51 -6.14,2.35 -10.57,1.94 -0.86,0.97 -12.35,1.3 -0.91,-0.79 -2.93,0.32 0,0 0.36,-20.27 27.17,-29.78 6.96,-9.65 12.59,0 7.31,-16.03 -24.88,-44.93 2.99,-4.16 7.96,-2.72 5.29,-6.88 1.67,-13.3 4.65,-4.58 9.94,-6.88 0,-16.07 -20.55,-10.98995 -7.96,15.55995 -16.26,-2.72 -0.32,-19.25995 7.3,-5.5 4.63,-1.38 7.62,-4.12 9.28,-11.96 7.63,-5.03 -0.99,-26.15 -3.96,-20.18 z" 
                fill="rgb(151, 144, 238)" 
                stroke="white" 
                stroke-width=".7px"
                title="Montegiardino" 
                id="SM-08" 
            />
        </svg>