<svg xmlns="http://www.w3.org/2000/svg" viewBox="103.25007999999993 633.62985 372.35 367.3699499999998" width="372.35" height="367.3699499999998">
            <path 
                d="m 241.32008,633.62985 7.96,0.88 11.55,3.97 6.18,1.06 9.8,4.99 4.42,1.25 0.95,3.33 2.7,4.02 15.22,14.69 16.27,24.03 6.21,1.94 16.77,-0.88 0.9,0.79 16.79,0.83 2.68,1.43 13.27,2.91 14.23,5.41 11.49,2.22 7.13,3.55 8.03,6.01 32.33,34.38 4.58,12.38 2.03,17.79 10.63,3.18 0.92,1.62 0.57,38.48 1.85,4.95 2.87,15.98 0.9,0.79 1.19,21.29 0.9,0.74 0.1,6.01 0.88,0.78 1.04,9.29 0.89,0.78 0.05,4.25 -8.71,7.76 -12.09,18.39 -0.79,6.1 -0.88,0.92 0.12,6.84 -4.31,8.17 0.02,1.71 0,0 -4.29,8.13 0.02,1.71 -4.29,8.17 -4.24,11.6 -3.44,6.33 -1.75,1.01 -7.12,-3.51 -5.29,0.51 -0.88,-0.74 -18.53,1.89 -10.62,-2.31 -42.92,24.11 -16.87,-5.95 -22.95,1.52 -0.9,-0.78 -8.82,0.04 -0.88,-0.74 -15.89,1.62 -11.39,5.5 -5.3,0.5 -0.88,0.97 -4.4,0.47 -6.14,2.30995 0,0 -0.98,-5.86995 -2.71,-4.02 -12.46,-7.25 -8.01,-3.46 -10.74,-10.9 -4.43,-1.25 -6.33,-7.9 -0.1,-7.71 9.36,-23.24 -0.1,-7.71 -6.4,-14.74 -5.4,-5.45 9.61,-8.73 3.52,-0.32 0.86,-0.97 5.29,-0.56 8.85,1.67 7.95,-0.83 7.91,-2.5 1.31,-31 -5.31,-0.32 -16.66,7.72 -1,-7.58 -0.88,-0.79 -0.25,-16.26 0.87,-0.92 -0.04,-2.59 -13.96,10.91 -1.78,0.13 -13.42,-11.45 -2.83,-13.4 -7.11,-2.68 -1.79,-1.57 -12.4,-2.13 -7.07,-0.13 -8.94,-7.63 -5.35,-2.91 -14.12,-0.23 -0.88,0.93 -7.93,0.83 -0.86,0.97 -7.94,0.78 -0.88,0.97 -12.33,2.13 0,0 -1.17,-18.71 -0.91,-1.62 0,0 13.89,-16.03 16.73,-3.42 11.35,-8.92 10.56,-2.77 16.54,-17.14 4.39,-1.29 9.61,-7.03 7.9,-3.37 9.58,-9.56 11.39,-6.29 6.96,-6.74 6.1,-4.07 27.01,-25.92 -3.69,-9.89 -2.87,-15.99 -4.59,-10.67 -0.04,-2.54 z" 
                fill="rgb(151, 144, 238)" 
                stroke="white" 
                stroke-width=".7px"
                title="San Marino" 
                id="SM-07" 
            />
        </svg>