<svg xmlns="http://www.w3.org/2000/svg" viewBox="403.33008000000035 0.26984830000007376 581.4299999999994 455.2900016999998" width="581.4299999999994" height="455.2900016999998">
            <path 
                d="m 978.82008,42.679848 0.91,1.99 0.17,10.27 0.87,0.78 0.15,10.27 2.78,8.28 1.06,11.88 -1.76,1.07 -8.81,0.92 -12.26,7.26 -6.06,7.490002 -1.67,7.03 -6.91,10.13 -6.98,5.87 -3.41,8.1 4.58,11.51 0.07,4.3 0.9,0.74 0.09,6.84 1.86,5.83 1.01,9.34 0.91,0.74 1.22,22.2 9.15,22.19 0.14,9.43 -7.83,8.51 -6.16,2.36 -12.17,12.39 -14.98,2.4 -0.88,0.97 -8.81,0.88 7.5,29.27 0.09,5.13 0.89,0.74 2.01,16.09 0.9,0.78 0.08,5.97 0.9,0.78 0.08,6.01 0.9,0.74 0.13,9.43 0,0 -14.06,4.86 -14.96,3.28 -19.18,15.72 -11.5,0.32 -3.49,2.08 -2.65,0.23 -14.88,9.29 -9.64,4.4 -9.71,1.01 -3.53,-1.34 -17.64,2.68 -8,-2.63 -0.84,2.68 -6.94,8.41 -8.74,6.06 -6.14,1.52 -4.35,5.55 -6.88,12.71 -8.76,4.35 -5.21,5.68 -8.64,12.9 -8.76,4.35 -12.18,13.26 -5.26,2.27 -1.78,-0.7 -2.75,-7.44 -6.32,-8.78 -1.76,0.18 -9.78,-4.11 -1.88,-6.66 -2.71,-4.9 -2.66,-1.43 -6.2,-0.18 -5.31,-2.04 -14.43,-19.97 -5.35,-1.98 -3.51,0.36 -2.62,2.82 -1.65,7.03 -26.32,11.28 -8.8,2.63 -8.77,5.18 -6.08,5.78 -12.94,21.08 -2.62,1.98 -5.28,0.56 -0.88,0.92 -21.17,2.18 -0.87,0.97 -7.03,1.57 0,0 -0.94,-3.33 -7.24,-11.28 -19.63,-13.4 -0.89,-1.62 12.94,-19.32 -14.38,-18.21 22.54,-28.06 1.49,-19 0.86,-0.97 -0.01,-1.72 -5.35,-2.86 -9.84,-7.58 -1.75,0.18 -9.62,6.15 -2.65,0.28 -10.42,13.08 -2.6,1.99 -9.64,5.27 -4.39,1.29 -7.88,5.13 -2.65,0.28 -7,3.28 -10.58,1.94 -0.87,0.98 -12.35,0.41 -0.89,-0.78 -13.27,-0.33 -17.7,-3.33 0,0 -0.03,-1.71 27.76,-32.86 101.26,-80.77 30.54,-25.48 4.37,-2.17 15.7,-14.47 7.88,-3.38 7.88,-5.96 5.24,-2.27 5.32,-0.55 3.48,-2.04 8.68,-9.48 9.67,-4.44 6.11,-4.07 20.26,-3.79 6.11,-4.95 7.04,-1.57 8.74,-6.89 4.37,-2.17 9.71,-1.02 5.31,1.16 14.12,-1.44 0.85,-0.97 4.42,-0.41 6.14,-2.36 8.73,-6.94 17.42,-16.37 6.13,-4.07 10.58,-1.06 4.42,1.25 2.65,-0.28 2.67,1.43 5.29,-1.38 6.07,-7.49 10.49,-7.08 7.72,-15.400002 7.81,-8.51 1.76,-1.06 16.76,-0.88 9.6,-8.69 12.34,-1.3 7.89,-4.21 9.52,-13.87 -0.05,-2.55 -3.58,-3.09 0.8,-4.35 4.39,-3.05 4.41,-0.42 0.85,-0.97 2.58,-6.24 0.78,-5.23 5.25,-3.98 9.73,-0.18 2.6,-2.82 -0.03,-1.72 4.31,-6.42 2.65,-0.28 4.46,2.08 2.62,-0.28 6.93,-11.0099997 2.63,-0.23 2.74,5.69 0.04,2.5899997 4.51,5.55 3.52,0.46 4.33,-5.59 6.2,-0.65 3.54,1.39 4.47,4.67 6.21,1.06 2.62,-1.11 1.72,-2.77 -0.03,-3.42 0.89,-0.1 -0.13,-8.5499997 5.25,-2.27 5.34,2.04 0.2,13.6899997 0.89,0.78 1.06,11.01 0.89,0.79 z" 
                fill="rgb(151, 144, 238)" 
                stroke="white" 
                stroke-width=".7px"
                title="Serravalle" 
                id="SM-09" 
            />
        </svg>