<svg xmlns="http://www.w3.org/2000/svg" viewBox="0.6166900000004645 253.5393000000002 579.9199999999996 538.7300000000005" width="579.9199999999996" height="538.7300000000005">
            <path 
                d="m 572.43669,566.3093 -4.27,3.47 -2.17,4.91 -9.27,14.44 -7.12,8.3 -2.78,2.46 -1.55,2.45 0.62,3.08 3.09,2.45 3.1,-1.84 1.23,-3.07 3.1,-2.46 8.35,-2.15 2.78,-6.45 4.64,-5.22 4.33,-2.16 3.09,0.62 0.93,3.07 -0.31,3.38 -14.23,27.96 -2.78,4.91 -1.86,2.15 -1.23,4.92 -2.17,1.23 -1.85,3.38 -3.1,2.46 -8.66,11.12 -2.16,1.53 -1.24,6.46 -4.64,3.07 -1.54,7.99 -2.17,2.15 -1.86,0.92 0.31,3.07 1.24,1.84 3.4,0 4.02,-3.38 2.79,0 1.23,1.85 0.31,3.07 -0.61,4.61 -3.72,3.38 -0.92,1.53 -0.62,3.69 -4.95,3.69 -1.24,5.83 -10.51,4.31 -2.17,1.84 -1.24,2.46 -0.61,3.07 -12.99,11.67 -7.74,8.91 -1.54,3.07 -5.88,7.99 -1.55,4 -9.89,12.29 -9.28,5.22 -8.97,6.45 -14.23,8.6 -20.41,7.07 -12.37,1.84 -10.21,2.46 -12.37,-0.92 0.93,-3.38 1.85,-0.92 2.17,-3.38 6.8,-2.46 0.62,-2.15 -0.93,-2.46 0.93,-2.15 -0.93,-3.99 -2.16,-2.46 -3.4,-1.23 -2.17,-3.69 -3.09,-1.84 -9.59,-1.84 -6.49,0.92 -8.35,-1.84 -1.55,-1.54 -0.62,-3.69 -1.85,-2.76 -0.62,-3.07 -5.01,-3.38 -3.1,-4 -3.4,-2.76 -10.82,-4 -0.62,-1.53 0,-2.15 1.85,-1.23 0,-4 -1.54,-2.76 -2.48,-2.77 -3.09,-0.3 -2.78,-1.23 0.62,-1.85 1.85,-2.45 0.62,-5.23 -2.47,-4.3 -2.79,-3.07 -6.18,-2.46 -2.48,-1.53 -9.59,-6.76 -1.85,-2.46 -2.48,-0.31 -2.78,1.54 -7.11,1.53 -2.17,-0.92 -3.09,-2.45 -4.95,-9.22 -3.09,-3.69 -3.71,-3.07 -2.17,-5.84 -0.62,-5.22 -4.64,-7.68 -3.09,-7.68 -4.95,-5.22 -2.78,-9.22 0.31,-5.84 -1.86,-1.53 -3.09,-6.15 -2.17,-2.15 1.86,-5.53 -0.31,-3.99 0.93,-8.61 -2.48,-2.45 -1.54,-2.77 0,-3.38 -1.24,-0.92 -5.57,-0.61 -2.47,1.53 -0.31,3.69 -2.47,-0.62 -3.41,0.62 -0.31,1.84 -3.09,3.07 0,2.77 -1.85,5.22 -2.48,1.85 -8.04,-4.31 -2.78,-0.92 -2.48,-2.76 -2.78,-0.92 -0.62,0.92 -7.73,0 -3.09,-1.54 -4.64,-0.61 -7.12,2.15 -4.64,5.83 -10.82,-4.6 -5.88,0.3 -11.44,1.85 -4.02,-1.54 -2.79,-3.07 -1.23,-2.46 0.31,-3.07 1.54,-4.3 1.24,-13.83 2.47,-16.28 1.55,-4.61 1.55,-1.23 4.02,-11.37 0.93,-4.6 -0.31,-3.08 -3.41,-1.22 -2.47,-2.46 -2.16,-0.62 -4.64,-3.38 -2.48,-2.76 -3.4,-1.66 0.31,-3.07 1.24,-4 2.47,-7.06 2.17,-4 0.61,-3.68 -3.09,-10.45 -0.62,-4.91 -6.49,-14.44 -3.71,-6.76 -5.26,-7.38 -0.62,-2.45 0.62,-6.15 -6.5,-12.6 -3.09,-7.06 -1.24,-4.3 -3.4,-4.92 -1.55,-3.68 -8.35,-5.54 -10.51,-9.21 -10.21,-6.76 -2.16,0 -5.26,3.07 -3.09,-0.31 -0.62,-3.99 -1.24,-1.54 -1.24,-4.3 -10.21,-13.83 -8.36,-7.78 -5.21,-0.69 -9.92,-2.42 -18.73,-1.38 -14.33,-3.11 -3.65,-2.08 -1.91,-2.07 8.7,0.69 13.39,-0.52 1.57,1.38 1.91,0.18 13.22,-1.9 10.79,0.51 12.53,-1.21 9.74,0.35 8.21,-0.4 17.82,-3.12 6.05,-1.72 0.43,0.43 32.83,-9.26 0.66,0.22 2.37,-1.29 6.48,-1.94 1.08,0 0,0.86 1.73,0.43 -0.22,-1.51 1.73,-1.29 19.87,-6.67 6.26,-2.37 0.87,-0.86 1.51,0.43 1.73,-1.51 2.16,-0.43 1.29,-1.07 10.79,-3.69 9.95,-4.28 3.02,-0.43 2.38,-1.5 12.1,-3.66 10.58,-4.31 2.16,-0.21 6.26,-2.8 1.52,0.86 0.42,-1.08 1.52,-1.29 1.51,-0.43 1.29,-1.51 1.09,0.43 1.5,-1.07 8.86,-3.66 6.91,-3.88 1.08,-1.29 1.29,0 4.76,-2.37 8.21,-4.73 2.59,-2.16 7.56,-3.87 14.25,-9.04 12.75,-9.69 0,0 2.39,4.88 2.74,3.64 0.46,5.46 3.67,8.19 0.45,7.73 2.29,4.55 -0.91,8.19 29.76,39.58 21.99,-6.82 15.57,25.93 -0.92,14.1 -1.83,5.91 -2.29,3.64 0.46,8.65 5.49,3.64 11.91,6.09 88.85,92.35 6.87,20.02 5.49,25.47 3.67,10.01 10.53,3.19 19.23,8.18 z" 
                fill="rgb(151, 144, 238)" 
                stroke="white" 
                stroke-width=".7px"
                title="Belait" 
                id="BN-BE" 
            />
        </svg>