<svg xmlns="http://www.w3.org/2000/svg" viewBox="508.74669000000006 0.26930210000012345 281.02 241.18999789999995" width="281.02" height="241.18999789999995">
            <path 
                d="m 725.09669,117.2293 -3.02,0.64 -3.3,2.95 -5,1.87 -0.71,-0.34 0.2,-2.22 2.22,-3.31 1.31,0.44 6.67,-5.19 1.57,-0.1 2.17,0.63 0.36,0.57 -0.31,2.51 -2.16,1.55 z m -8.56,-6.26 -1.08,-0.24 -0.77,-1.25 0.25,-2.18 3.29,-2.88 1.01,-2.99 1.15,-0.62 0.95,0.55 0.39,1.19 0.18,4.37 -2.35,2.21 -3.02,1.84 z m 5.21,-10.01 -1.14,-0.46 -0.09,-1.469998 1.72,-5.43 1.61,-1.12 0.91,0.8 -0.03,1.98 -2.98,5.699998 z m 9.26,-46.919998 -0.91,-0.3 -0.39,-1.39 1.31,-3.56 1.67,-1.08 1.43,1.16 -0.01,1.07 -1.41,2.85 -1.69,1.25 z m 25.01,-26.53 4.2,0.81 10.04,-0.58 1.75,-0.46 0.47,-1.04 2.45,-0.7 1.63,1.74 1.52,3.83 2.8,3.25 1.52,3.02 0,1.04 1.75,0.46 0.47,0.46 -0.12,1.04 -0.58,1.04 -2.1,0.35 -12.14,-2.09 -7.94,0.46 -7.47,-1.16 -2.57,-1.97 -0.47,-1.74 -1.87,-2.2 -2.57,-1.74 -2.92,-1.04 -1.75,-2.78 -0.35,-5.57 0.7,-1.28 1.63,-0.7 1.98,1.74 9.94,5.81 z m 20.43,-22.8399999 4.09,0.23 3.62,-0.7 3.62,0.46 1.99,0.81 -1.29,0.46 -6.89,-0.23 -2.1,0.81 -12.14,0.46 -8.87,1.97 -1.28,-0.7 2.34,-1.74 10.86,-2.78 6.05,0.95 z m -51.61,-3.02 0.93,4.75 4.67,1.39 22.18,-0.58 1.63,-1.04 1.75,-2.32 0,1.51 -2.45,4.18 -4.44,2.0899999 -0.8,1.04 -6.07,2.32 -6.19,3.6 -1.87,3.48 0.23,9.97 -2.57,3.02 -6.07,0.66 -2.28,-0.41 -1.04,-1.04 -6.64,-0.82 -2.07,0.82 0.62,2.27 -0.42,1.03 -2.49,1.86 0,1.24 2.08,0.82 4.77,3.92 0.42,2.27 -0.42,0.82 -4.36,1.24 -0.42,3.3 1.87,1.86 4.57,-1.03 2.67,1.14 -0.46,1.59 -2.3,4.22 -6.63,4.05 -2.48,3.68 -4.11,2.64 -2.64,6.66 -5.06,7.25 -2.22,4.99 -4.4,7 -2.45,6.319998 -1.57,1.56 -6.65,2.14 -3.82,3.3 -4.31,2.63 -0.2,0.97 1.76,-0.19 3.33,-1.56 6.75,-0.1 7.24,-6.12 3.42,-7.099998 3.32,-5.15 1.58,-0.49 2.35,0.19 1.27,2.24 0.59,2.43 -0.13,4.649998 1.41,1.24 0.68,1.46 -0.29,1.75 -0.98,1.56 -2.35,1.75 -11.65,6.8 -12.33,9.82 -1.47,3.69 0.29,3.4 0.78,2.43 3.19,3.81 -0.13,1.99 -1.55,1.23 -5.23,2.11 -0.56,2.75 0.84,1.9 1.86,0.61 1.24,1.84 0.62,2.46 -1.55,1.54 -4.02,7.37 -3.71,4.92 -2.17,7.99 -2.17,-0.31 -4.02,-1.84 -13.61,-0.92 -4.95,-0.92 -22.27,0.31 -9.3,-0.86 -7.34,1.36 -9.95,5.65 -2.78,2.46 -8.04,3.07 -7.04,1.94 -6.57,6.36 -4.33,7.99 -0.93,3.99 -5.88,12.6 -0.79,4.14 -2,2.62 -7.11,3.38 -17.63,2.77 -7.42,3.38 -4.64,0.61 -4.64,3.07 -2.17,2.15 -3.4,1.23 0,0 2.75,-44.33 17.24,-40.4 8.13,-39.75 0,-11.96 -2.1,-21.319998 0,0 0.87,0.65 1.73,-2.15 0.43,0.43 1.29,-0.86 -2.81,-2.59 -2.38,-5.6 -0.43,-2.58 1.3,-2.59 0.87,0.65 -1.09,0.86 0,2.8 0.43,1.94 1.95,3.66 1.08,0.22 1.95,-1.08 1.94,-2.15 1.3,0.43 -0.65,2.15 1.08,0.43 3.24,-2.8 -1.51,-3.44 -1.73,-1.94 -3.89,-2.37 -1.29,-0.22 -2.16,0.65 -0.65,-0.65 1.08,-0.86 2.59,0 4.11,2.15 3.89,4.31 0.65,1.51 1.73,-0.65 0.87,0.22 3.02,-2.8 -0.65,-1.08 -0.86,0 0.43,-1.29 2.16,-0.86 0.43,0.65 -0.65,0.86 1.3,0.86 0.65,-0.43 0.65,-0.64 -1.08,-1.29 0.87,-0.54 1.29,0.11 0.65,-1.72 2.37,-1.07 0.87,-1.73 1.3,0.86 1.51,-1.51 -0.87,-1.72 1.3,-1.08 0.65,0.22 1.29,-1.51 0.65,0.22 1.3,-1.51 -0.65,-0.65 0.43,-0.43 3.25,3.23 1.08,0.22 1.08,-1.29 -0.22,-2.37 2.16,-1.08 1.08,0.86 -1.73,1.08 -0.21,2.8 1.94,-1.08 2.17,0 -0.22,-0.65 1.51,-2.37 -0.43,-1.08 0.43,-1.51 1.29,0 1.3,2.8 2.16,0 1.51,-1.08 0.43,-2.8 -1.51,-0.65 0.21,-1.08 2.38,-0.22 0.65,0.64 -0.65,3.45 2.48,-0.75 6.59,-3.12 1.29,-1.3 1.08,0.22 5.18,-2.8 5.4,-1.94 0.86,-1.08 0.44,0.43 0.86,-0.22 8.64,-4.52 2.37,-0.43 6.05,-2.8 2.16,-1.72 3.89,-1.08 5.81,-2.77 10.17,-3.26 2.38,-1.29 1.95,-0.22 1.67,-1.08 2.6,-0.43 12.79,-5.82 1.2,0 1.78,-1.24 8.95,-2.8 8.38,-3.5 2.81,-0.22 1.08,-0.8599999 1.29,0 7.78,-2.8 2.81,-1.51 1.51,0 8.98,-2.7 2.12,-2.09 1.86,0.34 1.05,1.04 z" 
                fill="rgb(151, 144, 238)" 
                stroke="white" 
                stroke-width=".7px"
                title="Brunei-Muara" 
                id="BN-BM" 
            />
        </svg>