<svg xmlns="http://www.w3.org/2000/svg" viewBox="708.3866900000003 101.28929999999959 263.60999999999945 466.84000000000026" width="263.60999999999945" height="466.84000000000026">
            <path 
                d="m 808.05669,102.3993 0,5.99 2.59,2.89 0,1.33 1.57,3.11 0,3.33 -0.45,2.22 -1.34,0.22 -1.34,-1.55 -1.56,0 -1.12,1.11 0.22,3.77 -1.34,2.89 0,2.22 1.56,1.55 4.25,1.11 4.02,0.22 2.46,-1.55 4.25,0.44 0.44,3.33 1.79,0.45 3.13,-0.89 2.91,0 2.23,1.11 0.67,2 -2.9,3.77 2.23,2.88 0.23,3.34 0.89,1.77 1.79,1.55 5.58,7.11 6.93,5.1 2.68,2.89 9.84,6.22 3.35,3.77 7.15,4.88 3.13,2.89 -0.23,31.57 6.04,7.99 2.68,6.44 8.94,8.65 1.12,2 -5.14,20.42 0,4.89 2.01,2.88 7.6,0.67 2.01,1.11 2.23,7.55 -4.69,12.65 -0.45,5.33 1.79,2 10.5,7.1 2.68,2.44 3.58,3.33 2.01,4.22 2.24,11.76 0.67,7.77 -0.9,7.33 -4.02,13.67 -4.69,7.77 -1.12,3.11 -4.02,14.65 2.23,5.33 -0.89,4 -2.01,3.33 1.34,6.65 2.23,7.33 2.01,4.22 0.45,3.33 0,3.55 -1.34,2.89 -0.22,4.66 0.67,3.33 1.34,3.11 2.01,2.21 0.45,1.56 -1.35,4.88 -4.02,9.55 -0.45,2.44 2.02,5.77 0.67,4.22 5.14,4.93 6.92,8.43 4.03,3.11 1.34,3.33 0.22,5.55 0.67,2 6.93,3.77 8.94,2.67 2.46,3.99 2.68,0.22 1.79,0.89 1.34,2 1.11,4.88 3.58,5.33 1.56,5.55 3.58,6.88 2.23,1.56 3.13,0.66 2.46,1.56 2.01,2.44 -0.44,4.22 -1.79,4.66 -3.35,3.33 0.44,1.99 -0.89,3.11 -2.01,1.56 -4.25,1.99 -1.56,2.22 -0.23,2 -1.56,1.78 -3.58,1.77 -0.89,1.78 -5.36,3.77 -2.91,0.67 -2.01,-0.44 -0.89,-2 -3.13,-2 -2.68,-2.66 -3.36,-4.22 -0.67,-2 -4.49,-2.58 -2.01,-1.99 -2.01,-3.55 -0.23,-1.78 1.34,-5.77 -0.89,-2 -6.03,1.11 -5.81,-0.89 -3.13,-3.99 -1.34,-0.23 -2.24,0 -4.24,4.44 -3.13,1.34 -2.91,0 -2.68,-0.89 -3.13,-2.44 -2.01,-2.22 -0.89,-7.11 0.67,-4.21 -0.67,-3.11 -1.57,-2.67 -3.35,-0.88 -6.03,1.55 -2.24,-0.22 -5.36,1.55 -6.93,0.67 -2.9,-0.67 -8.5,-3.77 -2.23,-1.56 -4.02,-0.88 -2.69,0.66 -8.71,0 -3.8,-1.55 -6.93,-4.22 -6.93,-2.22 -15.19,4.44 -3.13,1.55 -5.36,0.89 -3.58,0 -5.36,-2.66 -10.28,-7.33 -2.24,0.22 -1.78,-2.44 1.11,-3.77 2.68,-3.11 2.91,-5.55 0.15,-2.54 1.19,-3.16 0.34,-6.06 -7.15,-9.77 -0.67,-3.78 0.22,-4.21 2.23,-9.77 1.34,-3.33 0.45,-4.22 -0.45,-3.11 -3.12,-5.1 -0.23,-10.44 -4.47,-6.21 -2.45,-7.99 0.22,-5.55 1.12,-3.55 0.22,-7.33 -1.34,-3.77 -3.8,-4.89 -5.14,-9.32 -0.45,-5.11 -2.68,-12.6 -2.46,-5.11 -6.7,-5.77 -2.01,-3.78 -2.46,-5.1 -0.9,-4.66 -4.69,-10.66 -0.44,-3.77 -1.12,-3.11 -1.34,-1.55 -0.9,-2.45 1.12,-3.55 5.81,-5.1 1.12,-2.22 -6.93,-3.78 -3.8,-3.33 0.45,-3.77 0.89,-2.22 4.7,-0.22 0,-2 -3.13,-2.22 -0.67,-7.77 -5.81,-4.66 0,-1.78 1.34,-1.77 2.23,0.44 2.46,-1.11 0.67,-1.55 -0.89,-1.56 -2.24,-1.55 -2.46,2.22 -2.23,-0.45 -0.67,-1.77 0,-1.56 3.8,-7.99 0.44,-4.22 -2.01,-0.88 -1.56,-2.36 2.9,-2.88 1.79,-0.89 1.34,-2.44 -1.34,-1.78 -4.24,-1.55 -2.02,-1.56 -1.34,1.56 -1.78,0.89 -1.57,-0.23 -1.12,-1.55 -0.67,-3.55 -1.34,-2.89 0.9,-2.88 1.11,-1.33 2.02,0.22 4.46,-3.33 0.23,-2.44 -2.24,-6.89 2.01,-4.44 5.37,-4.21 9.38,-5.11 1.57,-2.22 -1.34,-4.44 -4.25,-0.44 -3.35,0.89 -2.46,-0.45 -2.23,-1.33 -2.46,-2.66 -1.12,-4 1.79,-1.78 0.89,-9.1 1.57,-0.66 0.89,0.88 3.58,-0.44 5.58,-4 3.35,-3.55 3.36,-1.11 3.13,-4.22 6.92,-4.21 2.68,0.44 2.46,-0.67 2.24,-1.77 3.8,-0.89 3.35,0 1.79,1.33 2.46,-1.55 3.35,-3.33 3.13,0.44 2.45,2.44 2.02,0.23 3.12,-0.89 0.45,-4.66 -2.46,-2.44 -0.22,-2.22 1.12,-1.34 2.9,2.45 1.57,-0.45 -0.23,-2.66 -5.14,-4.22 -2.23,0 -2.91,-0.89 -6.92,-8.66 -1.57,-5.77 0.45,-2.66 1.56,-2.67 5.37,-1.11 4.91,-3.33 1.12,-1.33 7.82,0 8.94,-1.55 1.56,-1.56 2.24,-0.22 1.34,1.34 2.01,-0.23 6.26,-2.66 z" 
                fill="rgb(151, 144, 238)" 
                stroke="white" 
                stroke-width=".7px"
                title="Temburong" 
                id="BN-TE" 
            />
        </svg>