<svg xmlns="http://www.w3.org/2000/svg" viewBox="319.6766900000004 83.649302 280.6499999999997 482.65999799999986" width="280.6499999999997" height="482.65999799999986">
            <path 
                d="m 534.80669,83.649302 2.1,21.329998 0,11.95 -8.13,39.75 -17.25,40.4 -2.74,44.34 0,0 -1.86,1.84 2.17,1.84 5.87,1.54 2.17,1.23 0,5.83 -1.24,3.08 -2.47,1.23 -1.24,2.45 0.31,6.76 3.4,0 2.78,0.92 1.55,1.23 0.93,5.23 1.37,2.97 2.78,1.21 3.48,-0.17 3.13,1.21 0.35,1.73 -1.53,3.49 -1.85,2.46 0,3.07 0.62,1.85 2.47,2.15 -0.93,16.89 1.24,2.46 4.64,3.38 0.98,2.71 -0.05,10.56 0.62,3.38 1.23,0.92 -2.47,3.69 0.93,2.46 4.33,1.53 1.23,1.23 -0.3,2.46 -1.55,1.23 1.85,2.76 0.62,3.08 -0.31,5.83 -1.23,3.08 0.31,3.99 2.78,9.83 -0.93,6.15 2.48,5.83 -0.93,21.2 0.31,9.22 -1.24,11.67 0.93,3.69 1.54,2.77 0.62,3.68 -0.31,5.84 4.64,8.91 -0.62,3.69 1.86,8.29 3.71,3.69 9.28,4.3 3.71,0.31 3.09,-1.54 3.1,2.15 9.89,-0.31 3.41,-2.15 4.33,-1.53 3.71,0.92 1.85,5.22 -0.92,4.49 -0.31,7.06 -2.17,5.23 -1.24,1.53 1.86,4.92 0,2.15 -1.24,11.67 -4.02,20.28 -2.78,6.14 -5.88,8.61 -4.64,3.99 -2.78,4.92 -2.17,1.53 0,4.3 -1.6,1.45 0,0 -26.89,-10.19 -19.23,-8.18 -10.53,-3.19 -3.67,-10.01 -5.49,-25.47 -6.87,-20.02 -88.85,-92.35 -11.91,-6.09 -5.49,-3.64 -0.46,-8.65 2.29,-3.64 1.83,-5.91 0.92,-14.1 -15.57,-25.93 -21.99,6.82 -29.76,-39.58 0.91,-8.19 -2.29,-4.55 -0.45,-7.73 -3.67,-8.19 -0.46,-5.46 -2.74,-3.64 -2.39,-4.88 0,0 9.51,-7.75 6.47,-4.52 0.22,-0.86 1.73,-0.86 8.2,-6.89 0.65,-1.08 4.97,-3.66 6.05,-5.17 6.69,-7.1 1.3,-0.65 0.86,0.65 1.73,-0.22 0.87,-0.43 1.08,-1.72 1.29,0.21 0.87,0.87 2.59,-1.73 3.45,0 4.11,-4.52 0.21,-3.87 -2.15,0.21 -6.49,6.03 -2.16,0.86 -0.21,-1.29 2.16,-2.8 3.02,-1.94 5.18,-5.38 8.66,-6.47 5.38,-4.72 0.44,-1.08 6.2,-4.16 16.04,-14.79 3.89,-4.31 7.13,-6.02 1.29,-1.73 6.7,-4.09 3.67,-3.44 0.44,0.21 6.26,-4.31 1.95,-0.43 4.74,-3.66 11.02,-6.67 2.16,-1.94 1.3,-0.21 2.8,-2.37 1.08,-0.22 5.4,-3.88 1.51,-0.43 1.95,-1.72 4.97,-2.37 4.75,-3.66 7.99,-4.95 2.16,-2.15 5.18,-3.02 5.83,-4.95 6.92,-4.099998 3.02,-2.58 0.43,-2.37 0.65,-0.21 1.09,1.07 0.86,-0.64 0.64,-0.97 0,-1.62 0.92,0.97 1.46,-0.75 0.65,-0.65 -0.65,-1.29 0.65,-1.08 1.08,1.08 1.08,-0.21 0.21,-1.08 -0.43,-0.43 0.65,-1.29 1.08,0.64 0.65,-0.67 -0.22,-2.13 z" 
                fill="rgb(151, 144, 238)" 
                stroke="white" 
                stroke-width=".7px"
                title="Tutong" 
                id="BN-TU" 
            />
        </svg>