<svg xmlns="http://www.w3.org/2000/svg" viewBox="154.74957000000003 308.63199 55.819999999999936 68.31000000000006" width="55.819999999999936" height="68.31000000000006">
            <path 
                d="m 196.34957,308.92199 0.22,-0.29 1.01,2.43 0.81,6.49 1.63,2.43 3.65,3.52 6.7,3.78 0.2,2.43 -3.04,1.89 -3.45,3.51 -3.45,4.59 -4.47,3.24 -1.83,2.97 -2.84,0.81 -2.23,1.35 -0.61,2.97 0,3.53 0,0 -5.48,-1.64 -4.67,0.54 -0.81,1.62 -0.2,2.7 1.42,3.5 0.61,3.51 0,2.97 2.03,3.24 3.65,-1.08 1.94,0 0,0 -0.11,3.77 -4.27,2.16 -4.26,1.08 -11.57,-0.27 -1.22,-2.43 0,-2.42 -1.42,-2.43 -7.92,-5.4 -1.21,-2.43 -0.41,-2.96 0.41,-3.51 2.92,-1.54 0,0 2.76,-4.4 3.05,-7.56 3.24,-2.16 0,0 5.28,-0.54 3.86,-2.7 2.64,-3.78 2.84,-9.45 2.43,-2.44 3.66,-1.08 4.06,-3.51 z" 
                fill="rgb(151, 144, 238)" 
                stroke="white" 
                stroke-width=".7px"
                title=" Vraneštica" 
                id="MK-15" 
            />
        </svg>