<svg xmlns="http://www.w3.org/2000/svg" viewBox="329.0995699999999 109.81199 28.79000000000002 34.42999999999999" width="28.79000000000002" height="34.42999999999999">
            <path 
                d="m 329.76957,109.81199 1.56,2.3 4.09,4.35 2.39,4.34 2.22,1.83 4.94,1.14 1.71,-0.68 2.16,-8.87 0,0 2.65,0 6.06,3.28 0.34,4.62 0,0 -5.65,5.76 -8.18,10.42 -5.7,1.06 -5.22,2.9 -1.48,1.85 -1.47,0.13 -0.7,-0.68 0,0 -0.39,-0.37 0.4,-7 1.37,-2.37 2.17,-1.98 0.2,-1.85 -1.09,-9.64 -2.85,-4.23 -0.2,-4.75 z" 
                fill="rgb(151, 144, 238)" 
                stroke="white" 
                stroke-width=".7px"
                title="AraÄinovo" 
                id="MK-02" 
            />
        </svg>