<svg xmlns="http://www.w3.org/2000/svg" viewBox="657.6695700000001 216.79199 109.53999999999985 117.47000000000003" width="109.53999999999985" height="117.47000000000003">
            <path 
                d="m 673.91957,216.79199 0.79,2.11 3.03,-0.19 11.4,1.35 4.33,1.35 5.7,2.96 0,0 0.5,3.21 4.19,11.17 2.16,1.16 0.58,2.31 0.14,3.86 1.16,2.69 2.45,0.58 0.87,-0.58 0.29,-2.11 1.73,-1.35 4.18,-0.2 13.28,2.51 3.46,1.54 1.59,2.89 0,2.89 4.18,-0.19 4.77,0.38 4.61,2.89 5.78,4.81 8.22,2.7 3.9,2.9 0,0 -0.3,1.5 -1.01,0.28 -2.97,3.67 -1.24,3.01 0.07,0.86 -0.69,0.29 -0.44,1.72 -1.38,0.96 0.1,1.08 0.7,0.7 -0.18,1.95 -0.66,0.31 -0.65,-0.6 -1.41,0.74 -2.27,-0.34 -1.97,0.79 -0.25,-0.43 -0.47,1.52 -1.89,1.07 -0.17,2.4 -0.84,1.41 1.38,1.99 0.21,0.99 -0.38,1.12 0.61,1.29 -0.34,2.66 -0.68,1.05 -0.14,1.56 0.38,1.17 -0.74,1.81 0.39,3.8 0.65,1.64 2.28,0.12 0.21,1.18 1.45,1.55 -0.33,0.83 0.47,2.97 0.76,1.47 1.1,0.41 0.14,1.43 -1.26,2.4 0.22,4.52 -3.11,0.69 -0.02,1.76 -0.54,1.46 0.46,1.33 0,0 -2.3,0.97 -10.68,0.77 -9.81,0 0,0 -1.44,0 -2.74,-3.84 -2.75,-1.92 -10.31,-0.58 -8.95,-1.53 -4.48,-3.08 -2.59,-3.07 -0.87,-3.65 -2.16,-3.07 -3.19,-0.43 0,0 -9.08,-2.07 -6.64,0.19 -0.14,-3.46 3.75,-1.54 0.72,-1.92 0.15,-6.15 -1.01,-2.5 -1.45,-1.35 -3.61,-0.96 -4.32,-4.61 -2.1,-0.53 -1.44,1.2 -1.62,3.85 -2.35,0.72 -0.9,-2.89 0.36,-3.36 -0.31,-0.77 0,0 -1.13,-2.84 -0.54,-3.37 0.18,-2.64 5.95,-9.38 0.18,-2.17 -1.44,-1.69 -2.35,-1.2 -2.16,-1.92 -1.09,-5.3 -0.13,-7.17 0,0 2.46,-2.22 3.32,-0.58 4.19,0 2.88,-3.46 2.02,-4.82 1.16,-4.82 0.43,-6.75 -0.43,-4.24 -1.01,-2.12 0.57,-3.28 z" 
                fill="rgb(151, 144, 238)" 
                stroke="white" 
                stroke-width=".7px"
                title="Berovo" 
                id="MK-03" 
            />
        </svg>