<svg xmlns="http://www.w3.org/2000/svg" viewBox="187.94957000000014 454.0419900000002 132.78999999999994 142.82999999999998" width="132.78999999999994" height="142.82999999999998">
            <path 
                d="m 260.85957,457.91199 2.69,3.83 0,3.36 -2.68,5.14 0,3.95 1.04,3.55 1.64,3.56 2.69,3.15 2.99,1.98 4.02,1.38 1.8,1.78 0.74,5.32 -0.45,10.66 0.75,2.17 1.49,1.58 2.39,1.38 2.39,0.59 1.64,0 5.37,-3.55 1.49,-0.39 4.48,0.59 0.76,0.66 0,0 -0.62,1.75 0,4.11 -0.73,2.42 -1.1,1.69 -0.18,2.9 0.55,4.11 0.92,1.69 3.66,3.87 0.54,3.62 0.37,8.69 6.59,1.7 1.28,2.89 7.87,8.94 3.29,4.82 0.91,3.38 0.19,3.62 1.1,4.82 -0.1,4.11 0,0 -13.49,-0.13 -9.15,-3.99 -27.53,18.11 -15.35,5.12 -10.41,0.03 -3.6,-2.63 0,0 1.48,-5.16 0.74,-4.38 1.11,-2.43 0.37,-2.67 -0.74,-1.95 -3.14,-1.94 0.37,-5.11 -1.29,-5.11 -1.66,-1.21 -7.38,-0.24 -3.13,-0.98 0,-3.16 -1.29,-2.68 -3.32,-4.62 -4.06,-2.19 -12.73,0.24 -2.21,-1.94 0,-3.17 -0.74,-2.43 -4.61,-5.11 -1.48,-2.93 -0.73,-3.41 0,-3.65 -1.34,-1.1 -5.3,-0.91 -2.08,-2.44 0,-4.57 1.15,-3.95 5.54,-4.57 3,-5.18 0.69,-4.58 -0.69,-3.65 -2.77,-3.05 0.12,-2.19 0,0 10.25,-4.83 7.15,-0.91 7.15,-3.36 3.46,-4.57 4.61,-2.75 3.92,-0.3 3.92,-6.71 2.76,-0.31 3.46,-1.83 5.53,-4.27 3,-5.19 3.36,-2.32 0,0 1.48,-0.43 1.85,2.13 2.07,1.53 z" 
                fill="rgb(151, 144, 238)" 
                stroke="white" 
                stroke-width=".7px"
                title="Bitola" 
                id="MK-04" 
            />
        </svg>