<svg xmlns="http://www.w3.org/2000/svg" viewBox="622.3595700000001 440.70199 48.26999999999998 53.59999999999991" width="48.26999999999998" height="53.59999999999991">
            <path 
                d="m 641.10957,445.35199 0.57,2.2 1.72,1.92 2.17,0.96 2.9,4.2 5.61,0.36 2.45,-1.08 4.16,0.12 2.27,0.84 5.16,3.71 1.45,0 0.72,0.96 0,8.5 0.34,0.08 0,0 -2.55,0.85 -2.94,2.46 -3.67,9.18 -5.86,8.53 -6.5,5.16 -1.62,-0.57 0,0 1.45,-1.04 -2.64,-2.36 -4.62,-3.11 -7.79,-4.07 -6.88,-0.48 -0.72,-0.84 0.27,-3.83 1.63,-5.15 0.54,-5.28 -0.36,-2.03 -6.01,-8.73 0,0 5.58,-3.95 0.88,-9.67 1.33,-2.34 5.3,-0.15 1.33,2.64 2.87,1.9 z" 
                fill="rgb(151, 144, 238)" 
                stroke="white" 
                stroke-width=".7px"
                title="Bogdanci" 
                id="MK-05" 
            />
        </svg>