<svg xmlns="http://www.w3.org/2000/svg" viewBox="89.07957200000003 143.19199000000006 72.66999799999998 46.75999999999999" width="72.66999799999998" height="46.75999999999999">
            <path 
                d="m 152.74957,157.75199 0.28,7.74 1.21,1.91 7.51,0.27 -0.2,2.99 -2.23,5.98 -2.03,2.99 -2.23,1.62 -3.25,0.55 -1.42,2.17 0.2,1.9 1.42,4.08 -2.16,0 0,0 -1.29,0 -2.03,-1.9 -4.06,-0.82 -16.44,-9.24 -9.95,-3.26 -18.879998,-3.26 -3.48,1.03 0,0 -4.64,-3.58 1.88,-5.92 0.07,-1.57 0,0 4.65,-2.19 3.45,-3.53 4.669998,-2.45 5.28,-1.91 3.65,-2.72 3.05,-2.99 3.45,-2.18 4.67,-0.27 17.45,4.08 2.85,1.63 7.3,8.71 z" 
                fill="rgb(151, 144, 238)" 
                stroke="white" 
                stroke-width=".7px"
                title="Bogovinje" 
                id="MK-06" 
            />
        </svg>