<svg xmlns="http://www.w3.org/2000/svg" viewBox="149.84957 151.90198999999993 71.47999999999996 77.01000000000008" width="71.47999999999996" height="77.01000000000008">
            <path 
                d="m 171.62957,157.67199 3.01,5.38 3.45,3.53 2.64,0.27 1.63,0.82 0.61,9.51 2.84,1.63 4.06,0 1.42,3.53 0,1.36 -0.81,1.9 -2.64,0.55 -0.81,2.98 0,7.61 3.04,0.54 8.32,0.27 5.89,5.16 9.74,-0.27 1.22,-4.07 2.23,-0.82 2.24,0 1.62,2.44 0,3.86 0,0 -5.28,-0.33 -5.88,4.35 -7.11,7.87 -5.07,8.13 -4.26,4.07 -4.2,0.97 0,0 -1.39,-2.59 -5.88,-7.87 -5.48,-4.34 -2.44,-2.99 0.41,-2.98 -0.82,-3.26 -6.49,0.27 -6.5,-0.81 -6.49,-3.8 -2.31,-0.93 0,0 -1.75,-0.7 0,-7.33 -0.54,-1.63 0,0 2.16,0 -1.42,-4.08 -0.2,-1.9 1.42,-2.17 3.25,-0.55 2.23,-1.62 2.03,-2.99 2.23,-5.98 0.2,-2.99 -7.51,-0.27 -1.21,-1.91 -0.28,-7.74 0,0 1.19,0.13 2.23,-4.9 1.83,-1.08 1.83,0.27 6.29,4.62 z" 
                fill="rgb(151, 144, 238)" 
                stroke="white" 
                stroke-width=".7px"
                title="Brvenica" 
                id="MK-08" 
            />
        </svg>