<svg xmlns="http://www.w3.org/2000/svg" viewBox="293.65957000000003 80.04199200000004 27.00999999999999 59.569997999999984" width="27.00999999999999" height="59.569997999999984">
            <path 
                d="m 320.66957,97.011992 -3.63,2.19 -5.63,7.059998 -3.38,6.55 -0.75,8.07 0,14.1 -1.88,4.02 -4.5,0 0,0.61 0,0 -5.38,-3.51 0,0 -0.67,-1.78 0,0 -0.98,-3.95 -0.21,-5.17 0.33,0.36 0,0 1.16,1.23 0.49,-0.88 2.63,-1 -0.75,-14.11 0.75,-9.07 1.5,-5.549998 4.51,-8.07 2.63,-6.56 4.5,-1.51 1.76,0.59 0,0 -1.06,2.86 3.41,4.01 z" 
                fill="rgb(151, 144, 238)" 
                stroke="white" 
                stroke-width=".7px"
                title="Butel" 
                id="MK-09" 
            />
        </svg>