<svg xmlns="http://www.w3.org/2000/svg" viewBox="0.28957241999999206 308.54199 82.93999957999999 62.920000000000016" width="82.93999957999999" height="62.920000000000016">
            <path 
                d="m 30.079572,308.54199 5.84,6.56 7.61,5.49 10.15,2.11 3.49,0 6.35,5.49 3.48,5.49 4.13,4.64 6.66,2.53 4.12,2.11 1.32,6.75 0,0 -2.87,-1.37 -2.44,0.54 -2.03,2.7 -1.22,3.51 -2.43,11.87 -2.4,4.5 0,0 -1.05,-1.26 -0.91,1.03 0,0 -1.83,-3.81 -4.76,-0.85 0,-11.8 -2.22,-7.17 -3.48,0 -3.18,-2.95 -1.9,-7.6 -3.49,-5.06 -5.39,-0.85 -7.3,0 -3.48,5.91 -6.66,4.22 -6.98,3.38 -1.34,1.24 0,0 -0.19,-2.28 -1.4,-1.19 -1.92,0.48 -4.3099996,-0.96 -2.51,-2.73 -0.25,-2.91 -3.4,-1.69 -1.59999998,-3.46 2.33999998,-3.12 2.29,-7.67 1.43,-2.4 4.2599996,0.31 4.08,-1.95 9.2,-3.01 z" 
                fill="rgb(151, 144, 238)" 
                stroke="white" 
                stroke-width=".7px"
                title="Debar" 
                id="MK-21" 
            />
        </svg>