<svg xmlns="http://www.w3.org/2000/svg" viewBox="652.4795699999996 110.32199 82.13000000000011 114.35999999999996" width="82.13000000000011" height="114.35999999999996">
            <path 
                d="m 665.72957,115.38199 0.93,-0.03 1.5,2.19 2.08,0.69 0.87,-0.49 0.56,0.56 0.55,-0.56 3.23,0.63 4.03,-1.37 1.06,0.08 1.32,-0.98 -0.34,2.41 1.91,2.01 1.02,0.2 0.09,1.28 1.32,2.72 2.12,1.42 0.96,0.18 1.08,-0.78 1.03,0.05 0.89,1.05 2.73,0.48 2.17,0.91 0.44,0.73 1.67,0.27 0.42,0.61 1.19,-0.53 0.82,0.28 1.45,-0.28 1.29,-1.41 0.53,-2.07 4.64,7.54 2.85,2.67 4.65,0.56 1.34,-0.4 1.74,-1.38 1.44,1.29 2.1,-0.36 0.62,2.36 -0.32,1.8 -1.95,3.09 0.25,0.56 4.37,2.19 -0.39,2.07 0.39,0.72 -0.24,4.69 1.17,1.02 -0.58,2.42 0.05,3.51 -0.6,2.4 0.8,2.88 -0.53,1.13 1.05,0.86 -0.19,1.12 -0.99,1.53 1.2,1.39 0.57,2.92 1,1.52 2.38,0.92 0.83,1.78 -0.05,1.99 1.62,2.65 -0.7,2.06 0.16,1.4 1.24,1.32 -0.71,1.67 0.74,2.14 0.01,1.48 0,0 -8.96,6.47 -4.04,4.43 -5.92,11.77 -2.6,0.39 -3.46,1.35 -2.17,3.47 -3.03,3.28 -2.45,0.38 -2.81,-0.31 0,0 -5.7,-2.96 -4.33,-1.35 -11.4,-1.35 -3.03,0.19 -0.79,-2.11 0,0 -0.08,-4.64 0.58,-2.9 2.16,-2.89 1.88,-3.67 2.16,-12.35 3.76,-7.34 1.29,-1.16 0,-2.12 -2.88,-0.2 -6.5,-1.54 -11.69,-6.18 -9.38,-2.71 -1.29,-1.16 -0.83,-22.37 0,0 -0.62,-6.63 0.72,-2.13 4.62,-1.16 0.72,-1.16 0.83,-24.16 0,0 1.37,0.81 0.28,1.58 z" 
                fill="rgb(151, 144, 238)" 
                stroke="white" 
                stroke-width=".7px"
                title="DelÄevo" 
                id="MK-23" 
            />
        </svg>