<svg xmlns="http://www.w3.org/2000/svg" viewBox="494.37957000000006 345.47199 80.75999999999988 85.65000000000009" width="80.75999999999988" height="85.65000000000009">
            <path 
                d="m 560.25957,345.47199 0.86,2.04 2.74,0.38 6.06,3.26 1.44,3.07 -0.57,2.88 -2.6,2.49 -0.58,2.5 0.87,8.05 0.87,1.42 0,0 -1.47,5.07 -0.22,3.97 0.55,3.23 1.66,4.84 1.47,1.7 0,0 -0.43,3.19 0.26,2.04 2.44,3.24 1.28,4.08 0.25,3.06 -0.51,5.11 -1.54,0.51 -6.54,-0.34 -6.15,0.34 -1.54,1.36 -3.98,5.1 -0.1,1.37 0,0 -1.89,0.73 -8.61,5.94 -7.58,4.34 -4.99,0.68 -5.51,-0.68 -9.29,-6.17 -1.55,-4.34 -1.38,-2.28 -1.89,-0.23 -1.72,-0.91 -2.24,-2.51 -1.21,-0.46 -12.54,-11.57 0.5,-0.04 0,0 10.52,0.33 4.51,-1.03 0.89,-1.6 1.21,-4.54 0.44,-4.09 -0.88,-2.2 -3.86,-5.12 -0.77,-1.75 0.33,-1.32 1.1,-1.46 1.54,-0.15 3.31,-2.63 2.42,-5.42 2.65,-10.25 1.32,-2.34 3.08,-2.34 3.31,-3.96 2.09,-1.46 2.76,0 1.76,0.58 3.2,3.08 3.08,1.76 4.74,2.49 2.75,0.88 1.55,0 2.2,-2.79 1.65,-3.95 3.64,-2.35 z" 
                fill="rgb(151, 144, 238)" 
                stroke="white" 
                stroke-width=".7px"
                title="Demir Kapija" 
                id="MK-24" 
            />
        </svg>