<svg xmlns="http://www.w3.org/2000/svg" viewBox="151.65957000000003 386.8819899999999 102.94 104.94000000000005" width="102.94" height="104.94000000000005">
            <path 
                d="m 207.75957,387.59199 7.07,3.5 2.3,1.91 0,5.74 4.62,-0.76 4.61,0.76 3.45,0 2.02,3.06 -0.29,16.06 0.58,1.53 5.48,-0.38 2.88,-1.53 2.88,1.14 3.75,4.59 0.86,4.97 1.44,4.96 3.46,3.06 1.73,3.06 0,8.4 -0.87,2.67 -0.17,4.14 0,0 -3.36,2.32 -3,5.19 -5.53,4.27 -3.46,1.83 -2.76,0.31 -3.92,6.71 -3.92,0.3 -4.61,2.75 -3.46,4.57 -7.15,3.36 -7.15,0.91 -10.25,4.83 0,0 -4.04,-6.23 -1.66,-6.34 0,-5.13 -1.48,-8.3 -1.29,-3.17 -5.72,-0.25 -2.02,-2.44 -0.93,-3.42 -0.37,0.7 0,0 -0.36,-1.92 -2.01,-3.33 0,0 -3.16,-6.44 0,-4.64 -3.5,-1.96 -2.03,-2.69 -2.95,-8.07 -5.9,-3.18 -5.17,-4.89 -0.74,-3.18 0,-4.16 0.38,-0.74 0,0 1.84,-3.66 6.82,-5.14 7.19,-3.18 14.58,0.24 9.02,-0.41 4.89,-3.06 4.62,-4.59 0.86,-3.06 4.61,-2.3 z" 
                fill="rgb(151, 144, 238)" 
                stroke="white" 
                stroke-width=".7px"
                title="Demir Hisar" 
                id="MK-25" 
            />
        </svg>