<svg xmlns="http://www.w3.org/2000/svg" viewBox="641.10957 424.15199 59.09000000000003 59.37000000000006" width="59.09000000000003" height="59.37000000000006">
            <path 
                d="m 641.10957,445.35199 2.96,-0.84 2.66,-1.76 6.19,-9.22 10.99,0.15 1.77,-0.88 0.77,-2.35 0,-2.34 1.66,-2.64 2.1,-1.32 3.09,0.3 3.65,1.02 8.73,-0.58 4.64,0.73 8.46,2.93 1.42,1.02 0,0 -1.19,16.65 -0.47,-0.51 0,0 -0.98,-1.05 -2.54,-1.03 -6.52,0.44 -3.76,2.64 -2.54,3.8 -0.88,2.2 -0.34,3.51 1.44,5.56 4.86,9.22 5.81,5.55 0,0 -0.3,1.41 -5.89,5.56 -1.79,-0.28 -5.16,-4.18 -2.6,-3.42 -2.16,-3.96 -3.19,-3.23 -1.37,-0.33 0,0 -0.34,-0.08 0,-8.5 -0.72,-0.96 -1.45,0 -5.16,-3.71 -2.27,-0.84 -4.16,-0.12 -2.45,1.08 -5.61,-0.36 -2.9,-4.2 -2.17,-0.96 -1.72,-1.92 z" 
                fill="rgb(151, 144, 238)" 
                stroke="white" 
                stroke-width=".7px"
                title="Dojran" 
                id="MK-26" 
            />
        </svg>