<svg xmlns="http://www.w3.org/2000/svg" viewBox="244.07956999999988 303.5919899999999 104.44000000000011 97.74999999999983" width="104.44000000000011" height="97.74999999999983">
            <path 
                d="m 279.19957,303.59199 2.56,0 12.24,4.37 2.54,2.79 0.89,3.38 1.49,2.77 1.64,1.4 3.29,1.19 1.49,3.77 0.75,4.77 0.44,9.53 1.94,3.58 2.09,2.38 3.14,1.58 7.76,-0.19 1.79,-1.39 1.94,-0.2 2.09,0.59 2.23,7.74 1.05,1.59 1.94,0.99 10.89,2.78 2.84,2.38 1.94,2.98 0.35,1.58 0,0 -3.49,1.59 -2.38,2.58 -1.79,4.95 -0.6,4.76 -6.72,2.38 -3.58,4.56 -3.13,1.58 -10,0.4 -7.09,2.18 -6.27,0 -3.88,3.37 -3.13,4.95 -2.09,0.4 -4.29,3.69 0,0 -0.56,-0.92 -3.43,-2.18 -3.88,-0.2 -2.69,0.4 -2.24,0.99 -2.38,0.2 -1.65,0 -1.49,-0.6 -0.89,-1.78 -1.79,-9.9 -1.94,-0.8 -1.35,0.6 -2.24,1.98 -1.94,0.2 -1.49,1.18 -0.35,0.94 0,0 -2.41,-1.33 -1.04,-2.18 -7.61,-8.52 -3.44,-1.79 0.15,-2.77 1.2,-1.59 10.15,0.2 0.29,-4.36 -1.04,-2.38 -1.79,-1.19 -4.78,-5.55 -5.05,-7.58 0,0 -0.32,-2.94 0.45,-0.99 2.24,-1.39 2.09,0 1.64,-0.99 1.19,-2.78 1.34,-1.59 3.51,-0.59 8.66,3.96 -0.3,-10.52 0.89,-2.78 1.64,-2.98 6.72,-8.14 1.94,-4.77 0.75,-12.32 z" 
                fill="rgb(151, 144, 238)" 
                stroke="white" 
                stroke-width=".7px"
                title="Dolneni" 
                id="MK-27" 
            />
        </svg>