<svg xmlns="http://www.w3.org/2000/svg" viewBox="69.83957200000003 294.79199 137.91999800000002 117.25000000000006" width="137.91999800000002" height="117.25000000000006">
            <path 
                d="m 134.24957,332.55199 0.81,4.72 1.83,2.7 2.03,1.89 4.67,2.97 4.26,1.89 4.47,1.35 4.46,3.24 1.3,2.24 0,0 -2.92,1.54 -0.41,3.51 0.41,2.96 1.21,2.43 7.92,5.4 1.42,2.43 0,2.42 1.22,2.43 11.57,0.27 4.26,-1.08 4.27,-2.16 0.11,-3.77 0,0 2.93,-1.35 2.44,-0.27 3.24,6.2 8.73,3.78 1.61,1.18 0,0 -0.78,1.68 2.12,4.74 0.33,1.7 0,0 -1.29,-0.71 -4.61,2.3 -0.86,3.06 -4.62,4.59 -4.89,3.06 -9.02,0.41 -14.58,-0.24 -7.19,3.18 -6.82,5.14 -1.84,3.66 0,0 -1.65,-2.5 -2.64,-5.65 -2.44,-2.7 -5.68,-1.88 -2.24,-4.58 0.62,-4.58 -1.02,-5.12 -3.25,-6.74 -2.03,-5.67 -11.57,-0.27 -6.49,-1.61 -9.34,-0.81 -21.309998,0.54 -9.75,-0.54 -2.64,2.45 0,0 -0.77,-0.92 0,0 2.4,-4.5 2.43,-11.87 1.22,-3.51 2.03,-2.7 2.44,-0.54 2.87,1.37 0,0 3.42,1.33 4.87,0.81 3.86,-1.35 3.24,-3.24 3.589998,-6.83 3.81,-2.11 0.31,-8.86 3.81,-4.23 0,-16.89 -2.43,-13.55 0,0 3.4,0.59 2.23,4.06 1.42,5.14 2.03,5.13 5.08,0.81 4.26,10 4.67,5.14 2.23,6.48 z" 
                fill="rgb(151, 144, 238)" 
                stroke="white" 
                stroke-width=".7px"
                title="Drugovo" 
                id="MK-28" 
            />
        </svg>