<svg xmlns="http://www.w3.org/2000/svg" viewBox="300.4495700000001 97.01199199999999 42.0499999999999 77.95999800000001" width="42.0499999999999" height="77.95999800000001">
            <path 
                d="m 329.48957,143.56199 -2.95,4.77 0.1,1.45 0.69,1.32 2.95,1.85 2.07,0.66 6.89,5.01 2.86,5.41 0.4,7.08 0,0 -3.28,3.86 0,0 -3.62,-6.73 -1.78,-0.47 0,0 -2.51,-4.11 -5.25,-4.02 -8.27,-4.03 -6.38,-5.03 -4.5,-2.52 -3.01,-0.5 -3.45,-2.13 0,0 0.45,-5.82 0,0 0,-0.61 4.5,0 1.88,-4.02 0,-14.1 0.75,-8.07 3.38,-6.55 5.63,-7.059998 3.63,-2.19 0,0 2.65,4.339998 6.45,8.46 0,0 -0.67,1.56 0.2,4.75 2.85,4.23 1.09,9.64 -0.2,1.85 -2.17,1.98 -1.37,2.37 -0.4,7 z" 
                fill="rgb(151, 144, 238)" 
                stroke="white" 
                stroke-width=".7px"
                title="Gazi Baba" 
                id="MK-17" 
            />
        </svg>