<svg xmlns="http://www.w3.org/2000/svg" viewBox="532.3695700000002 390.37199 116.56999999999982 103.82999999999987" width="116.56999999999982" height="103.82999999999987">
            <path 
                d="m 571.33957,390.37199 9.25,1.09 2.98,3.23 3.87,1.9 3.2,0.44 1.99,1.62 2.43,3.95 4.87,5.58 2.76,4.25 2.1,2.05 3.2,1.32 2.21,0 1.11,0.59 0.66,2.78 -0.11,11.57 3.43,9.38 0,7.32 2.43,0.88 0.99,1.61 0,1.9 2.93,4.98 0.72,0 0,0 6.01,8.73 0.36,2.03 -0.54,5.28 -1.63,5.15 -0.27,3.83 0.72,0.84 6.88,0.48 7.79,4.07 4.62,3.11 2.64,2.36 -1.45,1.04 0,0 -9.47,-4.88 -3.78,-0.01 -6.38,1.15 -3.76,0.91 -2.2,1.05 -9.94,2.25 -11.31,-0.49 -4.18,-1.3 -4.39,-5.91 -3.55,-0.26 -0.37,-0.39 -8.27,0.54 -8.03,1.65 -2.64,-0.76 -4.06,-5.19 -3.51,1.05 -8.76,-5.81 -0.44,-0.67 -2.91,-1.58 -9.27,0.12 -1.6,-0.33 0,0 -6.3,-1.66 0.97,-4.35 1.03,-2.21 1.79,-0.85 5.13,-0.85 4.36,0.17 2.05,-0.17 0.9,-0.51 0,-2.03 -1.41,-3.74 -0.51,-3.56 -1.8,-5.1 0.26,-2.55 3.72,-0.34 3.59,-1.7 5.51,-4.75 2.95,-1.19 0.13,-2.38 -0.77,-1.02 -1.54,0 -1.67,-0.85 -0.64,-12.07 -1.64,-3.73 0,0 0.1,-1.37 3.98,-5.1 1.54,-1.36 6.15,-0.34 6.54,0.34 1.54,-0.51 0.51,-5.11 -0.25,-3.06 -1.28,-4.08 -2.44,-3.24 -0.26,-2.04 z" 
                fill="rgb(151, 144, 238)" 
                stroke="white" 
                stroke-width=".7px"
                title="Gevgelija" 
                id="MK-18" 
            />
        </svg>