<svg xmlns="http://www.w3.org/2000/svg" viewBox="44.14957200000002 199.61199 145.37999799999994 91.21000000000015" width="145.37999799999994" height="91.21000000000015">
            <path 
                d="m 152.13957,199.61199 2.31,0.93 6.49,3.8 6.5,0.81 6.49,-0.27 0.82,3.26 -0.41,2.98 2.44,2.99 5.48,4.34 5.88,7.87 1.39,2.59 0,0 -7.98,0.93 -1.63,3.8 0,10.03 -0.81,1.62 -2.44,0 -1.62,1.36 -0.41,2.17 1.42,4.06 2.85,2.17 0.4,6.77 3.25,6.77 0.61,7.04 -1.58,5.85 0,0 -1.87,-0.17 -2.64,2.17 -3.25,0.54 -3.85,1.35 -4.27,0.54 -4.46,3.25 -0.27,1.66 0,0 -2.78,-2.47 -5.07,-6.5 -4.47,-3.25 -4.67,-2.43 -6.29,-1.9 -3.32,0.34 0,0 -0.64,-3.59 -4.46,-5.14 -6.09,-10.56 4.26,-4.34 0,-2.16 -11.57,-0.28 -3.65,2.17 -2.85,-3.25 -0.61,-7.86 -3.85,-6.78 -1.83,-2.17 -4.669998,-0.27 -11.57,-1.9 -6.29,0 -5.69,7.33 -3.45,2.71 -12.58,-1.63 -4.67,-4.07 -6.9,-3.25 -3.12,-3.57 0,0 3.19,-5.1 3.68,-1.27 3.33,-7.56 2.69,0.03 3.82,-2.97 3.27,-4.57 9.95,2.5 6.94,-0.41 8.01,-4.31 0,0 1.27,0.64 12.179998,0.82 2.03,2.44 1.83,5.15 1.83,2.72 5.27,2.98 5.48,0.82 3.66,-3.26 7.71,-1.08 9.74,2.44 5.69,-1.9 3.04,-3.53 -1.42,-6.51 2.64,-3.53 z" 
                fill="rgb(151, 144, 238)" 
                stroke="white" 
                stroke-width=".7px"
                title="Gostivar" 
                id="MK-19" 
            />
        </svg>