<svg xmlns="http://www.w3.org/2000/svg" viewBox="399.85957000000013 252.02199000000002 78.99000000000001 94.0300000000002" width="78.99000000000001" height="94.0300000000002">
            <path 
                d="m 427.09957,255.40199 0.26,-2.67 0.94,-0.71 3.45,0 1.86,0.53 0.8,1.42 0.39,3.55 1.47,4.61 0.13,7.79 1.33,7.27 1.06,2.48 1.86,1.06 3.85,1.06 5.45,0.36 3.32,-2.13 2.92,-2.83 1.18,-2.35 0,0 0.94,0.76 5.23,-0.5 3.11,0.33 5.79,3.66 0,0 0.19,2.48 -0.88,2.49 -1.61,2.33 -1.75,3.81 -1.86,1 -2.12,2.32 -1.37,2.99 -0.37,4.47 0.99,1.83 1.99,1.16 2.24,0 4.61,-2.49 2.49,-0.83 1.62,0 1.87,1.5 0.37,3.98 -2.24,5.14 -2.61,4.47 0.24,2.32 1,0.5 1.62,1.82 0,1.99 -3.11,7.46 -3.86,0.16 -1,-1.49 -0.62,-3.15 -0.02,-4.52 -1.4,-1.66 -1.87,0 -0.87,0.77 0,0 -2.4,-1.39 -2.49,0 -2.64,1.66 -0.78,5.79 -4.36,0 -1.87,-1.65 -3.58,-0.83 -1.86,1.45 -1.87,2.28 -1.09,3.1 -1.71,2.08 -4.67,0 -4.51,-2.28 -1.56,-1.45 -2.49,-0.83 -2.18,0.21 -0.93,0.82 0,3.73 1.09,4.76 0,2.08 -2.34,2.68 -4.98,0.42 -3.42,2.9 -0.16,0.58 0,0 -8.26,-4.99 -0.93,-3.53 0.66,-7.96 4.12,-4.59 1.33,-3.01 0,-3.89 -1.2,-2.48 -7.31,-5.13 -1.86,-2.65 0.49,-7.86 0,0 0.98,-6.3 0.93,-1.42 7.97,-0.71 2.92,-4.6 5.05,-11.87 5.05,-5.14 2.65,-3.36 1.2,-5.85 z" 
                fill="rgb(151, 144, 238)" 
                stroke="white" 
                stroke-width=".7px"
                title="Gradsko" 
                id="MK-20" 
            />
        </svg>