<svg xmlns="http://www.w3.org/2000/svg" viewBox="174.24957000000006 58.12199199999999 60.36999999999995 87.90999800000002" width="60.36999999999995" height="87.90999800000002">
            <path 
                d="m 234.61957,97.501992 -3.56,4.229998 -15.45,1.64 -3.43,1.65 -1.22,1.64 4.9,5.27 2.21,0 1.96,-1.32 1.71,-0.32 1.23,3.61 0,3.62 -1.23,1.65 -2.94,1.31 -1.96,2.31 -0.25,2.3 0.74,3.16 2.55,4.73 0,3.16 -5.69,2.36 -4.12,0.79 -1.57,0.79 -0.78,0.79 -0.16,1.69 0,0 -4.87,0.15 -1.58,0.9 -1.58,2.42 -8.35,-0.6 -3.62,-1.21 -0.67,-1.51 1.8,-1.82 0,-2.72 -1.58,-1.21 -2.26,1.21 -3.38,0 -5.19,-1.52 -1.21,-1.25 0,0 -0.6,-2.6 0,0 -0.22,-0.99 1.12,-1.21 13.55,-2.72 4.74,-2.43 2.03,-4.84 3.39,-6.06 2.71,-2.12 3.16,-3.94 0.45,-4.54 -1.13,-3.64 -2.26,-1.519998 -2.93,-0.6 -2.49,-1.52 -2.71,-5.45 -4.06,-5.76 -4.51,-5.46 -8.24,-7.58 0,0 5.93,-4.38 3.01,-4.17 3.92,-3.15 4.16,-2.6 7.66,0.39 4.24,3.48 4.13,0.91 2.86,4.38 3.41,1.8 -0.54,6.59 4.49,1.79 4.03,3.13 4.35,6.05 z" 
                fill="rgb(151, 144, 238)" 
                stroke="white" 
                stroke-width=".7px"
                title="Jegunovce" 
                id="MK-35" 
            />
        </svg>