<svg xmlns="http://www.w3.org/2000/svg" viewBox="506.4595699999999 193.03199 98.31 63.73000000000002" width="98.31" height="63.73000000000002">
            <path 
                d="m 513.85957,195.48199 4.23,-2.45 1.92,0.51 0.9,1.71 0,1.88 1.02,3.25 3.2,1.37 10.87,-0.51 1.32,-1.51 0,0 3.02,3.73 6.65,6.16 7.93,5.81 11.89,2.05 3.59,-0.51 3.45,0.17 6.65,6.66 6.39,0.52 0.99,-1.44 0,0 9.29,1 7.6,0.16 0,0 -0.15,7.76 0,0 -1.94,0.69 -6.49,5.01 0,5.4 -0.58,4.04 -1.3,3.28 -2.24,2.31 -1.15,2.57 0,0 -1.53,-1.92 -4.35,-0.17 -4.41,1.53 -6.53,0.52 -8.05,1.7 -6.4,0 -3.45,-4.61 -4.48,-4.61 -6.13,-5.29 -6.01,-1.02 -3.84,-4.44 -5.5,-4.96 -4.35,-2.73 -4.47,-0.68 -6.01,-0.17 -3.46,-0.69 -2.55,-3.93 -2.05,-5.98 -0.89,-7.01 0,-5.64 2.55,-5.3 z" 
                fill="rgb(151, 144, 238)" 
                stroke="white" 
                stroke-width=".7px"
                title="Karbinci" 
                id="MK-37" 
            />
        </svg>