<svg xmlns="http://www.w3.org/2000/svg" viewBox="274.2295700000001 126.58199 21.769999999999982 34.05999999999999" width="21.769999999999982" height="34.05999999999999">
            <path 
                d="m 274.60957,126.58199 3.54,0.46 3.26,2.5 1.87,3.74 3.49,4.06 4.65,1.25 2.57,0 1.5,-1.34 0,0 -0.15,3.51 0,0 -1.68,0.27 -3.27,2.29 -0.72,2.48 -0.71,0.96 -0.43,4.2 1,2.1 2.99,3.43 1.57,0 0.85,-1.72 -0.14,-2.67 1.2,-0.38 0,0 -0.74,6.41 0.38,2.51 0,0 -20.28,0 -0.55,-1.23 0,0 -0.58,-1.28 0.19,-13.53 0,0 z" 
                fill="rgb(151, 144, 238)" 
                stroke="white" 
                stroke-width=".7px"
                title="Karpoš" 
                id="MK-38" 
            />
        </svg>