<svg xmlns="http://www.w3.org/2000/svg" viewBox="399.9295699999995 339.26198999999997 161.1100000000003 161.92000000000013" width="161.1100000000003" height="161.92000000000013">
            <path 
                d="m 464.23957,339.91199 2.14,1.83 3.27,0 2.64,-0.21 3.12,-1.86 2.49,-0.41 3.11,1.24 1.56,2.28 -0.16,8.28 3.11,15.3 0,14.27 1.4,6.2 2.65,4.54 0.62,3.31 0,4.34 4.69,2.91 0,0 -0.5,0.04 12.54,11.57 1.21,0.46 2.24,2.51 1.72,0.91 1.89,0.23 1.38,2.28 1.55,4.34 9.29,6.17 5.51,0.68 4.99,-0.68 7.58,-4.34 8.61,-5.94 1.89,-0.73 0,0 1.64,3.73 0.64,12.07 1.67,0.85 1.54,0 0.77,1.02 -0.13,2.38 -2.95,1.19 -5.51,4.75 -3.59,1.7 -3.72,0.34 -0.26,2.55 1.8,5.1 0.51,3.56 1.41,3.74 0,2.03 -0.9,0.51 -2.05,0.17 -4.36,-0.17 -5.13,0.85 -1.79,0.85 -1.03,2.21 -0.97,4.35 6.3,1.66 0,0 -14.94,3.02 -10.32,11.17 -2.22,1.73 -7.54,-1.27 -1.87,-2.05 -1.43,-0.37 -7.6,-4.9 -0.85,-3.4 -3.62,-1.1 -0.7,1.16 -1.3,-0.84 -3.98,8.13 -3.66,2.45 -8.71,0.8 -1.86,1.04 -7.06,0.72 -3.43,1.12 -2.99,3.02 -7.42,5.88 0,0 -0.71,-1.98 -0.62,-4.52 0,-3.5 -0.78,-2.06 -5.91,-0.21 -2.34,-0.61 -1.71,-1.24 -1.09,-8.85 0.39,-12.88 -2.33,-3.91 -1.56,-0.82 -1.87,-3.51 0.63,-8.45 3.42,-6.39 0.62,-3.3 1.09,-1.24 -0.62,-1.65 -5.14,-0.41 -7.78,0.41 -2.64,-0.82 -1.4,-2.89 -1.56,-5.36 -0.78,-3.51 -0.15,-5.99 0.46,-6.6 0.63,-2.89 1.71,-3.3 0.15,-5.79 -0.62,-3.51 -3.35,-5.06 -0.62,-3.51 0.31,-7.85 1.09,-2.28 0,-4.96 -0.62,-2.07 -1.56,0.83 -2.33,4.96 -2.96,0 -1.55,-1.03 -3.27,-3.52 -1.87,-2.89 0,-3.2 0,0 0,-0.53 2.65,-3.1 1.71,-3.31 1.87,-1.86 3.58,0.62 1.65,2.05 0,0 4.88,7.05 2.65,2.9 7.78,0.62 2.02,-0.62 9.34,-0.21 2.18,-1.65 0.62,-5.17 1.4,-1.45 2.65,0 2.02,0.82 2.49,1.25 2.49,2.06 1.71,0.62 1.56,-0.62 0.15,-3.1 1.25,-1.65 5.29,-3.31 0.78,-6.62 -0.32,-5.38 0.94,-3.32 z" 
                fill="rgb(151, 144, 238)" 
                stroke="white" 
                stroke-width=".7px"
                title="Kavadarci" 
                id="MK-36" 
            />
        </svg>