<svg xmlns="http://www.w3.org/2000/svg" viewBox="295.25956999999994 149.89199 33.05000000000001 33.11000000000004" width="33.05000000000001" height="33.11000000000004">
            <path 
                d="m 297.45957,149.89199 2.69,3.21 3.75,0.5 3.38,4.53 3.38,2.51 6.38,2.52 4.13,1 4.51,3.52 2.63,3.82 0,0 -4.03,1.89 -1.48,1.71 -1.47,4.74 -1.19,2.11 -2.26,1.05 -3.74,-1.45 -0.69,-1.84 0,-8.83 -2.79,-3.2 -3,0 -2.63,1.51 -3.38,0 -0.28,-0.45 0,0 -1.22,-2.06 0,-5.03 -1.88,-1.01 -2.63,0 0,0 -0.38,-2.51 0.74,-6.41 0,0 z" 
                fill="rgb(151, 144, 238)" 
                stroke="white" 
                stroke-width=".7px"
                title="Kisela Voda" 
                id="MK-39" 
            />
        </svg>