<svg xmlns="http://www.w3.org/2000/svg" viewBox="134.24956999999995 320.52198999999996 32.880000000000024 33.03000000000003" width="32.880000000000024" height="33.03000000000003">
            <path 
                d="m 155.62957,320.98199 -0.27,1.43 1.22,1.9 1.22,5.13 2.03,0 1.82,-1.62 1.42,-0.27 2.44,1.89 1.62,2.97 0,7.02 0,0 -3.24,2.16 -3.05,7.56 -2.76,4.4 0,0 -1.3,-2.24 -4.46,-3.24 -4.47,-1.35 -4.26,-1.89 -4.67,-2.97 -2.03,-1.89 -1.83,-2.7 -0.81,-4.72 0,0 0,-2.03 1.42,-3.24 5.08,-1.08 6.29,-2.97 2.23,-1.9 3.25,-0.81 z" 
                fill="rgb(151, 144, 238)" 
                stroke="white" 
                stroke-width=".7px"
                title="KiÄevo" 
                id="MK-40" 
            />
        </svg>