<svg xmlns="http://www.w3.org/2000/svg" viewBox="547.83957 301.24199 75.84999999999991 71.0100000000001" width="75.84999999999991" height="71.0100000000001">
            <path 
                d="m 567.33957,301.24199 3.09,1.32 2.02,0 2.74,0.77 5.05,4.42 16.16,1.35 2.6,2.11 4.18,4.61 2.75,4.61 4.11,5 0,2.3 -0.72,1.92 -3.03,1.92 -0.15,2.12 1.59,1.34 2.89,0.77 3.89,0 7.55,2.39 0,0 -0.33,0.29 -0.15,2.5 0.22,6.33 1.01,3.27 0.43,3.64 0.45,0.4 0,0 -0.38,2.67 -1.44,1.35 -3.61,-0.58 -1.58,-1.15 -2.17,0 -3.61,1.15 -4.32,2.11 -2.02,2.11 -0.06,0.66 0,0 -5.57,-1.04 -5.49,0.19 -13.42,3.26 -7.36,2.87 -1.15,2.11 -0.43,1.92 -1.3,0 -0.43,-0.69 0,0 -0.87,-1.42 -0.87,-8.05 0.58,-2.5 2.6,-2.49 0.57,-2.88 -1.44,-3.07 -6.06,-3.26 -2.74,-0.38 -0.86,-2.04 0,0 -0.44,-1.03 -0.14,-4.03 -1.45,-3.27 -4.76,-7.49 -5.29,-6.11 0,0 -0.34,-0.42 0.29,-1.92 7.21,-6.15 7.22,-8.07 3.46,-3.27 z" 
                fill="rgb(151, 144, 238)" 
                stroke="white" 
                stroke-width=".7px"
                title="KonÄe" 
                id="MK-41" 
            />
        </svg>