<svg xmlns="http://www.w3.org/2000/svg" viewBox="546.9095699999998 96.94199200000007 79.43000000000018 103.78999799999995" width="79.43000000000018" height="103.78999799999995">
            <path 
                d="m 595.74957,97.861992 1.3,5.159998 2.02,1.16 1.44,-1.36 1.16,-2.32 1.87,-0.969998 1.74,1.159998 2.02,2.91 0.28,12.78 1.3,3.49 7.51,4.06 1.15,1.36 0.87,6.19 -0.15,3.1 3.32,4.64 0.73,2.32 2.01,2.52 0,7.93 0.58,3.09 1.44,2.51 0,3.14 0,0 -4.54,3.05 -3.61,-0.2 -1.44,-1.16 -1.44,-2.12 -3.32,-2.32 -4.91,0.19 -0.87,1.55 -1.44,11.02 -1.44,4.05 0.29,13.33 -2.17,2.51 -0.09,0.87 0,0 -3.69,0.83 -3.52,5.38 -1.38,0.67 -1.63,-0.51 -0.37,-1.51 -1.26,-1 -1.63,0 -5.4,5.2 -5.1,0.17 0,0 -1.36,-0.67 -1.63,-2.19 -1.38,0 -1.76,-0.84 -1.5,-6.04 -1.88,-3.86 -0.26,-9.57 0.76,-1.85 1,-0.67 0,-3.03 -0.75,-1.01 -11.8,0.34 -4.64,-3.19 -3.89,-4.88 -1.3,-3.78 0,0 -0.08,-0.42 1.51,-1.85 3.01,-2.18 3.76,-3.87 4.39,-3.53 3.27,-6.39 4.58,-2.86 1.38,-0.34 2.6,-10.26 0,0 2.79,-10.94 2.13,-3.71 0.38,-3.37 -0.5,-3.03 -1.38,-3.2 -0.44,-3.599998 0,0 0,-1.25 0.8,-1.08 15.76,-0.67 z" 
                fill="rgb(151, 144, 238)" 
                stroke="white" 
                stroke-width=".7px"
                title="KoÄani" 
                id="MK-42" 
            />
        </svg>