<svg xmlns="http://www.w3.org/2000/svg" viewBox="445.4095700000002 71.34199200000006 131.29999999999978 71.10999799999999" width="131.29999999999978" height="71.10999799999999">
            <path 
                d="m 476.33957,71.781992 4.74,4.93 3.02,0 0.83,0.92 0.42,6.48 1.1,1.85 6.88,0.37 4.96,2.59 3.44,4.44 10.47,8.689998 5.1,-0.18 3.03,-1.48 3.85,-0.929998 2.76,-1.29 0.55,-1.3 0.27,-6.28 3.17,-1.16 0,0 -0.25,1.51 1.55,1.85 7.74,0.23 4.65,-0.23 5.86,-1.16 2.58,-0.92 1.89,-1.85 2.24,0.7 3.1,3.23 5.34,1.39 8.76,5.76 0,0 0.44,3.599998 1.38,3.2 0.5,3.03 -0.38,3.37 -2.13,3.71 -2.79,10.94 0,0 -2.51,-4.04 -4.48,-3.92 -3.62,-2.08 -5.5,-0.46 -10.51,0.23 -1.2,0.92 0,12.24 -2.07,3 -1.37,0 -2.41,-0.92 -3.27,-4.62 -1.55,-0.23 -1.55,0.69 -1.55,1.62 -1.72,0.46 -3.62,0 -1.55,-1.15 -1.37,-3.01 -2.93,-2.07 -10.67,4.15 -2.85,1.62 -3.95,0.69 -6.37,-0.23 -1.73,0.92 -2.06,2.77 -2.58,7.85 -1.38,0.23 -1.38,-0.46 -2.06,-1.62 -4.82,-2.53 -2.09,0.52 0,0 -1.9,-0.64 -4.24,0.87 -5.7,0 0,0 -0.85,-3.09 -3.58,-3.51 -2.21,-1.3 -1.37,-1.47 -1.24,-7.39 -0.97,-2.22 -7.71,-0.55 -1.24,-1.85 -0.27,-2.77 1.93,-3.88 3.44,-4.44 0.82,-5.92 1.14,-1.449998 0,0 0.31,-0.4 3.86,-0.18 3.58,-1.3 3.03,-4.62 2.89,-5.73 0.27,-4.26 -0.27,-9.81 1.51,-1.11 z" 
                fill="rgb(151, 144, 238)" 
                stroke="white" 
                stroke-width=".7px"
                title="Kratovo" 
                id="MK-43" 
            />
        </svg>