<svg xmlns="http://www.w3.org/2000/svg" viewBox="499.7495700000001 0.2519921999999897 120.5900000000002 99.68999980000001" width="120.5900000000002" height="99.68999980000001">
            <path 
                d="m 558.03957,4.8619922 4.03,4.8800001 4.11,3.5399997 5.8,3.03 2.14,-1.95 2.45,1.52 0.77,-0.19 0.81,0.56 1.59,-0.5 2.5,3.84 0.32,1.95 3.83,2.04 -0.7,2.48 1.57,2.79 1.28,0.98 0.27,1.07 0.89,0.74 0.45,1.49 1.61,1.41 1.08,-0.1 0.17,3.29 2.86,-0.68 0.21,1.02 1.1,1.26 0,1.96 3.19,2.48 -0.49,2.22 2.17,3.26 0.53,2.56 0.69,0.35 -0.01,1.34 2.33,3.24 0.73,2.72 -0.18,0.89 4.54,0.25 4.73,2.68 0.71,1.83 -0.66,1.32 0.12,1.16 1.03,2.4 0.44,3.64 3.29,4.58 -1.37,0.69 -0.13,0.9 0,0 -14.57,9.65 -3.18,4.65 -5.34,2.91 0,0.85 0,0 -4.8,-0.92 -15.76,0.67 -0.8,1.08 0,1.25 0,0 -8.76,-5.76 -5.34,-1.39 -3.1,-3.23 -2.24,-0.7 -1.89,1.85 -2.58,0.92 -5.86,1.16 -4.65,0.23 -7.74,-0.23 -1.55,-1.85 0.25,-1.51 0,0 0.09,-0.57 2.93,-2.78 0.17,-5.08 -0.69,-2.78 -1.72,-2.78 -0.69,-3.7 0,-5.32 -3.44,-7.64 0.35,-8.1 1.37,-1.62 1.38,-3.25 0,-2.77 -2.75,-1.39 -8.96,0 -5.51,-2.79 -11.01,-15.76 -2.7,-7.09 0,0 11.18,-2.42 5.86,-1.78 6.41,-7.0299998 5.15,0.08 13.23,-3.02 4.44,-1.59 6.56,0.3 z" 
                fill="rgb(151, 144, 238)" 
                stroke="white" 
                stroke-width=".7px"
                title="Kriva Palanka" 
                id="MK-44" 
            />
        </svg>