<svg xmlns="http://www.w3.org/2000/svg" viewBox="259.2295700000001 386.55199 36.18999999999994 56.90999999999997" width="36.18999999999994" height="56.90999999999997">
            <path 
                d="m 259.76957,391.45199 0.35,-0.94 1.49,-1.18 1.94,-0.2 2.24,-1.98 1.35,-0.6 1.94,0.8 1.79,9.9 0.89,1.78 1.49,0.6 1.65,0 2.38,-0.2 2.24,-0.99 2.69,-0.4 3.88,0.2 3.43,2.18 0.56,0.92 0,0 -4.81,4.23 -0.15,1.18 0.15,2.58 1.34,0.99 0.15,2.18 1.19,1.58 6.12,0.59 1.35,0.99 0,3.57 -1.2,2.77 -1.49,1.98 -1.49,9.69 -6.27,7.32 -2.54,1.78 -4.33,0.2 -1.87,0.49 0,0 -2.83,-1.68 -2.38,-3.56 -3.14,-1.58 -0.75,0.07 0,0 -0.14,-2.05 -2.09,-0.2 -1.64,-0.79 0.59,-2.37 1.05,-1.19 1.49,-4.95 0.45,-4.15 -0.45,-4.16 -1.94,-3.36 -3.73,-4.16 -1.49,-2.97 0.15,-13.86 z" 
                fill="rgb(151, 144, 238)" 
                stroke="white" 
                stroke-width=".7px"
                title="Krivogaštani" 
                id="MK-45" 
            />
        </svg>