<svg xmlns="http://www.w3.org/2000/svg" viewBox="205.30957000000006 352.41199 61.82000000000005 105.50000000000011" width="61.82000000000005" height="105.50000000000011">
            <path 
                d="m 244.39957,352.41199 5.05,7.58 4.78,5.55 1.79,1.19 1.04,2.38 -0.29,4.36 -10.15,-0.2 -1.2,1.59 -0.15,2.77 3.44,1.79 7.61,8.52 1.04,2.18 2.41,1.33 0,0 -0.39,1.05 -0.15,13.86 1.49,2.97 3.73,4.16 1.94,3.36 0.45,4.16 -0.45,4.15 -1.49,4.95 -1.05,1.19 -0.59,2.37 1.64,0.79 2.09,0.2 0.14,2.05 0,0 -3.72,0.92 -3.44,9.68 -2.09,3.17 -0.3,3.75 3.28,3.68 0,0 -1.9,-0.21 -2.07,-1.53 -1.85,-2.13 -1.48,0.43 0,0 0.17,-4.14 0.87,-2.67 0,-8.4 -1.73,-3.06 -3.46,-3.06 -1.44,-4.96 -0.86,-4.97 -3.75,-4.59 -2.88,-1.14 -2.88,1.53 -5.48,0.38 -0.58,-1.53 0.29,-16.06 -2.02,-3.06 -3.45,0 -4.61,-0.76 -4.62,0.76 0,-5.74 -2.3,-1.91 -7.07,-3.5 0,0 -0.33,-1.7 -2.12,-4.74 0.78,-1.68 0,0 0.52,-1.13 2.28,-1.51 11.2,-4.31 4.71,-2.75 0,0 4.06,-2 9.74,-3.45 1.14,-3.24 0,-6.05 0.65,-2.59 z" 
                fill="rgb(151, 144, 238)" 
                stroke="white" 
                stroke-width=".7px"
                title="Kruševo" 
                id="MK-46" 
            />
        </svg>