<svg xmlns="http://www.w3.org/2000/svg" viewBox="347.2395700000003 37.081992 117.61000000000001 124.959998" width="117.61000000000001" height="124.959998">
            <path 
                d="m 388.80957,37.081992 4.29,0.49 0,0 0.55,1.13 7.35,2.69 2,2.4 0.1,3.39 -0.63,1.98 -6.3,2.26 -0.63,2.12 -0.11,3.25 1.79,2.97 0.1,8.04 -1.99,3.67 -0.53,4.38 0.32,6.63 1.05,3.25 2.73,4.09 5.04,6.07 2.42,0.98 2.41,0 1.47,-2.25 3.05,-1.55 2.83,-0.57 2.1,-1.69 2.42,-0.85 3.57,-0.7 2,0.14 2.73,2.82 8.29,2.68 2.53,0.14 0.94,-0.28 1.37,-1.69 0.83,-4.1 1.69,-1.12 2.62,-0.29 2.1,0.99 3.43,10.2 0,0 -1.14,1.449998 -0.82,5.92 -3.44,4.44 -1.93,3.88 0.27,2.77 1.24,1.85 7.71,0.55 0.97,2.22 1.24,7.39 1.37,1.47 2.21,1.3 3.58,3.51 0.85,3.09 0,0 -0.58,3.55 -2.89,2.22 -5.51,2.03 -4.4,2.4 -3.31,0.18 -1.79,-1.84 -1.93,-3.88 -3.17,-3.51 -4.13,-1.11 -4.54,0.19 -3.72,0.74 -6.47,5.72 -1.65,2.22 -0.69,2.76 0,2.96 -1.52,2.03 -2.48,2.03 -0.96,2.21 -2.34,1.66 -0.43,0.89 0,0 -4.04,-2.79 -2.44,-3.41 -2.87,-2 -7.87,0.14 -1.7,1.43 -2.34,1 -2.02,0 -1.8,-0.86 -1.17,-3.27 -2.98,-2.28 -2.97,-0.57 -4.47,-2.42 -1.64,-1.98 0,0 -0.38,-0.45 0,-1.7 0.85,-4.85 0,-3.56 -0.79,-1.57 -4.15,0 -7.12,-6.13 -3.61,-2.14 -0.94,-2.51 0,0 -0.34,-4.62 -6.06,-3.28 -2.65,0 0,0 -1.49,-0.85 -0.11,-3 0.85,-2.56 4.46,-2.43 4.47,-4.28 1.27,-4.139998 0.27,-10.99 1.06,-2.14 1.49,-0.57 1.81,0.57 1.8,1.43 1.6,0.28 0.95,-0.71 0,-10.43 2.02,-1.57 2.34,-0.29 1.7,-0.71 0.53,-1.57 0,-3.43 -2.01,-8.15 -0.21,-14.08 0,0 1.66,1.03 4.98,-0.78 4.2,-2.27 2.63,-3.68 z" 
                fill="rgb(151, 144, 238)" 
                stroke="white" 
                stroke-width=".7px"
                title="Kumanovo" 
                id="MK-47" 
            />
        </svg>