<svg xmlns="http://www.w3.org/2000/svg" viewBox="54.34957200000001 474.36199 52.999998000000005 103.85000000000002" width="52.999998000000005" height="103.85000000000002">
            <path 
                d="m 85.909572,475.54199 1.55,2.32 3.65,1.88 3.05,9.66 3.04,4.57 2.64,2.14 3.249998,0.81 3.86,2.95 -0.81,6.71 0,4.29 0.4,15.02 0.81,7.24 -0.2,8.04 -3.45,10.71 -4.869998,8.84 -3.45,11.51 -6.3,3.75 -2.61,2.23 0,0 -2.9,-8.42 -6.93,-23.52 -6.71,-24.69 -3.48,-8.95 -1.15,-2.18 -10.95,-2.35 0,0 0.23,-5.55 1.82,-8.58 6.09,-16.65 2.85,-2.69 6.9,-0.27 z" 
                fill="rgb(151, 144, 238)" 
                stroke="white" 
                stroke-width=".7px"
                title="Lake Ohrid" 
                id="MK-LKO" 
            />
        </svg>