<svg xmlns="http://www.w3.org/2000/svg" viewBox="310.3495700000001 32.171992 63.509999999999934 91.59999799999999" width="63.509999999999934" height="91.59999799999999">
            <path 
                d="m 324.70957,39.211992 3.23,1.77 8.37,-1.52 4.8,-2.31 3.85,-0.22 3.92,2.45 4.54,1.25 4.29,-0.78 4.89,0.28 5.27,2.14 3.77,2.33 0,0 0.21,14.08 2.01,8.15 0,3.43 -0.53,1.57 -1.7,0.71 -2.34,0.29 -2.02,1.57 0,10.43 -0.95,0.71 -1.6,-0.28 -1.8,-1.43 -1.81,-0.57 -1.49,0.57 -1.06,2.14 -0.27,10.99 -1.27,4.139998 -4.47,4.28 -4.46,2.43 -0.85,2.56 0.11,3 1.49,0.85 0,0 -2.16,8.87 -1.71,0.68 -4.94,-1.14 -2.22,-1.83 -2.39,-4.34 -4.09,-4.35 -1.56,-2.3 0,0 -6.45,-8.46 -2.65,-4.339998 0,0 -5.15,-9.51 -3.41,-4.01 1.06,-2.86 0,0 5.33,-2.58 2.77,-2.58 0.85,-5.44 0,-5.45 -1.06,-2.29 -2.56,-0.86 -3.41,-4.01 -3.2,-5.45 -0.59,-2.93 0,0 -0.68,-3.37 0.21,-6.32 -0.48,-7.04 4.73,-0.14 5.88,3.18 z" 
                fill="rgb(151, 144, 238)" 
                stroke="white" 
                stroke-width=".7px"
                title="Lipkovo" 
                id="MK-48" 
            />
        </svg>