<svg xmlns="http://www.w3.org/2000/svg" viewBox="413.27956999999986 205.53199 60.110000000000014 76.61999999999995" width="60.110000000000014" height="76.61999999999995">
            <path 
                d="m 423.27957,205.53199 4.37,0.3 3.01,1.15 6.89,8.98 4.3,1.84 3.44,0.69 2.59,2.07 9.81,12.65 6.02,6.2 5.34,4.6 4.34,2.9 0,0 -2.01,0.61 0,1.33 1.12,1.17 0,1.66 -0.5,0.99 -4.35,0.5 -1.12,3.49 -1.13,0.34 -1.74,-1.33 -0.99,-1.67 -2.24,-2.15 -1.62,-1 -1.62,0 -1.87,1 -1.24,2.82 -2.99,3.49 -1.12,5.15 0.87,1.66 6.1,5.15 0.12,4.48 0.31,0.24 0,0 -1.18,2.35 -2.92,2.83 -3.32,2.13 -5.45,-0.36 -3.85,-1.06 -1.86,-1.06 -1.06,-2.48 -1.33,-7.27 -0.13,-7.79 -1.47,-4.61 -0.39,-3.55 -0.8,-1.42 -1.86,-0.53 -3.45,0 -0.94,0.71 -0.26,2.67 0,0 -5.05,-9.06 -2.39,-0.88 -3.46,0 -0.93,-1.42 0.8,-3.37 3.86,-8.87 0,-2.84 -6.12,-7.99 -0.53,-1.6 0.93,-1.6 8.11,-8.52 1.06,-1.78 z" 
                fill="rgb(151, 144, 238)" 
                stroke="white" 
                stroke-width=".7px"
                title="Lozovo" 
                id="MK-49" 
            />
        </svg>