<svg xmlns="http://www.w3.org/2000/svg" viewBox="595.74957 79.80199199999997 63.620000000000005 83.00999799999998" width="63.620000000000005" height="83.00999799999998">
            <path 
                d="m 640.27957,98.731992 2.15,-0.26 3.01,4.899998 1.75,0.16 1.78,1.39 1.79,-0.84 3.89,1.45 1.26,1.75 0.97,0.25 1.9,1.7 0.59,1.09 0,0 -0.83,24.16 -0.72,1.16 -4.62,1.16 -0.72,2.13 0.62,6.63 0,0 -2.73,-1.31 -4.62,-0.58 -2.3,0.39 -1.88,1.74 -1.3,6.19 -4.04,8.5 -3.46,2.32 -2.17,0 -4.26,-2.08 0,0 0,-3.14 -1.44,-2.51 -0.58,-3.09 0,-7.93 -2.01,-2.52 -0.73,-2.32 -3.32,-4.64 0.15,-3.1 -0.87,-6.19 -1.15,-1.36 -7.51,-4.06 -1.3,-3.49 -0.28,-12.78 -2.02,-2.91 -1.74,-1.159998 -1.87,0.969998 -1.16,2.32 -1.44,1.36 -2.02,-1.16 -1.3,-5.159998 0,0 0,-0.85 5.34,-2.91 3.18,-4.65 14.57,-9.65 0,0 3.8,2.97 1.28,2.78 3.24,1.75 2.64,0.8 1.62,2.3 2.5,1.98 0.87,2.23 z" 
                fill="rgb(151, 144, 238)" 
                stroke="white" 
                stroke-width=".7px"
                title="Makedonska Kamenica" 
                id="MK-51" 
            />
        </svg>