<svg xmlns="http://www.w3.org/2000/svg" viewBox="174.63957000000005 203.5219899999999 111.33999999999997 166.24999999999994" width="111.33999999999997" height="166.24999999999994">
            <path 
                d="m 236.50957,212.73199 6.81,7.55 4.41,7.21 5.64,7.86 4.66,9.17 5.88,5.24 4.91,0.65 1.91,-1.5 0,0 2.22,0.74 3.45,0 2.68,3.07 0,13.8 3.45,7.16 2.68,2.55 0.34,-1.2 0,0 0.43,2.86 -1.96,3.59 -5.4,6.21 -0.24,2.62 1.23,3.26 -0.41,10.02 0,0 -2.36,0 -0.75,12.32 -1.94,4.77 -6.72,8.14 -1.64,2.98 -0.89,2.78 0.3,10.52 -8.66,-3.96 -3.51,0.59 -1.34,1.59 -1.19,2.78 -1.64,0.99 -2.09,0 -2.24,1.39 -0.45,0.99 0.32,2.94 0,0 -4.01,0.03 -0.65,2.59 0,6.05 -1.14,3.24 -9.74,3.45 -4.06,2 0,0 -0.97,-4.37 -2.93,-1.73 -3.08,-0.43 -3.57,-1.51 -1.79,-1.95 -1.14,-1.94 -0.32,-1.51 -0.16,-6.26 -1.46,-1.08 -3.74,0 -4.38,2.81 -5.04,1.72 -4.54,0.22 -3.03,0.83 0,0 0,-3.53 0.61,-2.97 2.23,-1.35 2.84,-0.81 1.83,-2.97 4.47,-3.24 3.45,-4.59 3.45,-3.51 3.04,-1.89 -0.2,-2.43 -6.7,-3.78 -3.65,-3.52 -1.63,-2.43 -0.81,-6.49 -1.01,-2.43 -0.22,0.29 0,0 0.42,-5.43 0,-11.36 -1.62,-3.24 -4.27,-1.9 -6.49,-0.27 -1.83,-1.62 -0.97,-3.62 0,0 1.58,-5.85 -0.61,-7.04 -3.25,-6.77 -0.4,-6.77 -2.85,-2.17 -1.42,-4.06 0.41,-2.17 1.62,-1.36 2.44,0 0.81,-1.62 0,-10.03 1.63,-3.8 7.98,-0.93 0,0 4.2,-0.97 4.26,-4.07 5.07,-8.13 7.11,-7.87 5.88,-4.35 5.28,0.33 0,0 2.84,0.76 3.66,2.44 3.45,3.26 z" 
                fill="rgb(151, 144, 238)" 
                stroke="white" 
                stroke-width=".7px"
                title="Makedonski Brod" 
                id="MK-52" 
            />
        </svg>