<svg xmlns="http://www.w3.org/2000/svg" viewBox="19.359571999999975 224.84199 115.019998 127.01000000000005" width="115.019998" height="127.01000000000005">
            <path 
                d="m 40.199572,224.84199 3.29,2.21 0.66,-1.05 0,0 3.12,3.57 6.9,3.25 4.67,4.07 12.58,1.63 3.45,-2.71 5.69,-7.33 6.29,0 11.57,1.9 4.669998,0.27 1.83,2.17 3.85,6.78 0.61,7.86 2.85,3.25 3.65,-2.17 11.57,0.28 0,2.16 -4.26,4.34 6.09,10.56 4.46,5.14 0.64,3.59 0,0 -4.8,0.48 -1.62,1.35 -6.91,0 -3.45,2.16 -5.27,6.23 -2.44,1.89 -6.9,0.27 -3.249998,4.06 0.2,2.71 2.439998,1.89 4.06,-1.08 1.27,0.22 0,0 2.43,13.55 0,16.89 -3.81,4.23 -0.31,8.86 -3.81,2.11 -3.589998,6.83 -3.24,3.24 -3.86,1.35 -4.87,-0.81 -3.42,-1.33 0,0 -1.32,-6.75 -4.12,-2.11 -6.66,-2.53 -4.13,-4.64 -3.48,-5.49 -6.35,-5.49 -3.49,0 -10.15,-2.11 -7.61,-5.49 -5.84,-6.56 0,0 1.77,-1.41 -0.27,-3.23 -1.95,-7.68 -3.79,-6.87 -1.97,-3.11 -1.01,-0.85 -0.49,-2.15 0.44,-2.21 -0.34,-2.15 -1.55,-3.61 1.84,-9.66 -0.01,-3.73 -0.59,-3.39 -2.05,-5.76 -0.75,-5.24 0.25,-4.39 1.24,-3.84 1.68,-2.31 1.57,-3.56 0.49,-3.47 2,-2.19 3,-1.48 5.26,-1.07 0.45,0.81 z" 
                fill="rgb(151, 144, 238)" 
                stroke="white" 
                stroke-width=".7px"
                title="Mavrovo i Rostuša" 
                id="MK-50" 
            />
        </svg>