<svg xmlns="http://www.w3.org/2000/svg" viewBox="257.5795699999999 436.6419900000001 89.93000000000006 74.64999999999998" width="89.93000000000006" height="74.64999999999998">
            <path 
                d="m 276.22957,443.46199 -0.36,0.1 0.3,2.57 1.49,2.17 7.46,1.19 3.88,2.37 3.58,5.73 3.73,2.97 1.12,3.16 1.79,1.78 6.57,0.39 1.94,0.79 2.09,3.76 5.82,3.15 6.71,0.2 3.88,-2.76 2.24,0 5.52,4.34 4.18,1.58 4.63,0.79 3.58,1.19 1.13,1.29 0,0 -1.43,6.18 -12.81,16.45 -3.48,2.18 -13.72,-1.94 -8.69,-3.39 -3.11,0 -4.76,3.39 -2.74,3.63 -0.67,1.88 0,0 -0.76,-0.66 -4.48,-0.59 -1.49,0.39 -5.37,3.55 -1.64,0 -2.39,-0.59 -2.39,-1.38 -1.49,-1.58 -0.75,-2.17 0.45,-10.66 -0.74,-5.32 -1.8,-1.78 -4.02,-1.38 -2.99,-1.98 -2.69,-3.15 -1.64,-3.56 -1.04,-3.55 0,-3.95 2.68,-5.14 0,-3.36 -2.69,-3.83 0,0 -3.28,-3.68 0.3,-3.75 2.09,-3.17 3.44,-9.68 3.72,-0.92 0,0 0.75,-0.07 3.14,1.58 2.38,3.56 z" 
                fill="rgb(151, 144, 238)" 
                stroke="white" 
                stroke-width=".7px"
                title="Mogila" 
                id="MK-53" 
            />
        </svg>