<svg xmlns="http://www.w3.org/2000/svg" viewBox="462.66957000000025 279.09199 97.59000000000003 123.1699999999999" width="97.59000000000003" height="123.1699999999999">
            <path 
                d="m 472.43957,279.09199 3.55,2.98 2.86,0.17 2.99,1.16 3.36,5.47 2.49,2.82 1.49,0 1.5,-0.66 0.99,-1.33 2.49,-5.47 2.12,-0.33 2.61,3.31 1.13,2.83 1.12,4.64 0.37,4.48 1.37,3.81 1.87,1.5 2.49,-0.67 8.21,0.5 4.86,1.66 0.87,2.65 0.12,5.81 2.37,1.49 3.36,1.49 7.72,5.3 5.35,1.49 5.73,-0.16 2.35,-0.49 0,0 5.29,6.11 4.76,7.49 1.45,3.27 0.14,4.03 0.44,1.03 0,0 -4.84,4.83 -3.64,2.35 -1.65,3.95 -2.2,2.79 -1.55,0 -2.75,-0.88 -4.74,-2.49 -3.08,-1.76 -3.2,-3.08 -1.76,-0.58 -2.76,0 -2.09,1.46 -3.31,3.96 -3.08,2.34 -1.32,2.34 -2.65,10.25 -2.42,5.42 -3.31,2.63 -1.54,0.15 -1.1,1.46 -0.33,1.32 0.77,1.75 3.86,5.12 0.88,2.2 -0.44,4.09 -1.21,4.54 -0.89,1.6 -4.51,1.03 -10.52,-0.33 0,0 -4.69,-2.91 0,-4.34 -0.62,-3.31 -2.65,-4.54 -1.4,-6.2 0,-14.27 -3.11,-15.3 0.16,-8.28 -1.56,-2.28 -3.11,-1.24 -2.49,0.41 -3.12,1.86 -2.64,0.21 -3.27,0 -2.14,-1.83 0,0 0.27,-7.28 -0.4,-12.69 0,0 0.87,-0.77 1.87,0 1.4,1.66 0.02,4.52 0.62,3.15 1,1.49 3.86,-0.16 3.11,-7.46 0,-1.99 -1.62,-1.82 -1,-0.5 -0.24,-2.32 2.61,-4.47 2.24,-5.14 -0.37,-3.98 -1.87,-1.5 -1.62,0 -2.49,0.83 -4.61,2.49 -2.24,0 -1.99,-1.16 -0.99,-1.83 0.37,-4.47 1.37,-2.99 2.12,-2.32 1.86,-1 1.75,-3.81 1.61,-2.33 0.88,-2.49 z" 
                fill="rgb(151, 144, 238)" 
                stroke="white" 
                stroke-width=".7px"
                title="Negotino" 
                id="MK-54" 
            />
        </svg>