<svg xmlns="http://www.w3.org/2000/svg" viewBox="293.46956999999986 477.68199 146.30000000000007 116.73999999999984" width="146.30000000000007" height="116.73999999999984">
            <path 
                d="m 347.50957,480.22199 2.59,-2.3 2.2,-0.24 1.28,1.46 2.93,5.56 4.75,3.39 4.03,1.45 15.37,2.18 10.06,4.84 7.32,1.45 2.75,1.94 3.11,4.11 2.56,1.69 4.21,1.21 6.95,-0.24 1.28,-2.42 0.92,-0.24 0.91,0.48 1.1,2.42 5.86,5.56 3.29,0.73 6.77,3.14 1.96,1.63 0,0 0.06,0.76 -3.66,6.49 -3.9,0.42 -2.3,6.45 -2.11,1.49 -3.43,0.81 -2.05,3.25 -1.95,4.74 -2.11,3.71 -8.51,6.8 -2.28,12.1 -3.5,4.02 -9.01,1.22 -6.64,-0.94 -6.22,-3.47 -3,0.56 -9.71,6.55 -0.64,7.7 -2.52,0.47 0.17,2.22 -2.31,0.91 -3.91,-0.34 -2.25,0.33 -11.8,9.45 -4.45,0.7 -2.95,-1.92 -10.91,-14.7 -7.18,-0.07 0,0 0.1,-4.11 -1.1,-4.82 -0.19,-3.62 -0.91,-3.38 -3.29,-4.82 -7.87,-8.94 -1.28,-2.89 -6.59,-1.7 -0.37,-8.69 -0.54,-3.62 -3.66,-3.87 -0.92,-1.69 -0.55,-4.11 0.18,-2.9 1.1,-1.69 0.73,-2.42 0,-4.11 0.62,-1.75 0,0 0.67,-1.88 2.74,-3.63 4.76,-3.39 3.11,0 8.69,3.39 13.72,1.94 3.48,-2.18 12.81,-16.45 z" 
                fill="rgb(151, 144, 238)" 
                stroke="white" 
                stroke-width=".7px"
                title="Novaci" 
                id="MK-55" 
            />
        </svg>