<svg xmlns="http://www.w3.org/2000/svg" viewBox="707.8795699999998 332.5219899999999 50.47999999999979 73.77000000000004" width="50.47999999999979" height="73.77000000000004">
            <path 
                d="m 754.84957,372.73199 -0.22,0.49 -1.86,0.15 -1.44,1.82 -1.33,2.83 0.31,2.72 2.19,1.31 0,0.92 2.42,3.9 -0.56,2.04 0,3.08 1.86,5.08 0.41,3.18 -0.07,0.82 -0.42,0.2 -3.65,0.2 -0.36,0.59 0.51,2.37 -2.83,0.75 -8.73,-0.76 -8.84,-0.09 -8.21,1.96 -9.02,-2.08 -3.65,1.36 -0.62,0.62 0,0 -0.55,-0.79 -0.29,-20.12 -2.02,-1.91 0,-0.77 0,0 0.29,-1.15 3.75,-3.06 0.58,-2.11 0,-14.38 1.44,-1.92 7.5,-5.95 5.92,-8.25 1.88,-1.54 0.86,-3.26 -0.43,-6.72 0,0 9.81,0 10.68,-0.77 2.3,-0.97 0,0 0.99,2.54 2.45,2.56 0.24,1.01 -0.75,4.76 -2.6,1.86 -1.33,2.37 0.74,0.72 0.13,0.8 -0.21,0.54 0.63,2.16 -0.23,2.51 1.99,1.17 -1.12,3.5 0.63,1.94 2.93,2.75 1.41,2.48 -0.16,1.18 -1.47,1.72 z" 
                fill="rgb(151, 144, 238)" 
                stroke="white" 
                stroke-width=".7px"
                title="Novo Selo" 
                id="MK-56" 
            />
        </svg>