<svg xmlns="http://www.w3.org/2000/svg" viewBox="85.90957199999993 441.84199 91.56999800000004 140.55999999999995" width="91.56999800000004" height="140.55999999999995">
            <path 
                d="m 86.959572,473.71199 9.43,-0.42 1.83,-4.03 5.279998,-2.15 -0.41,-8.06 3.65,-7.26 3.86,-2.42 0.61,-3.23 2.03,-1.88 3.05,-0.54 7.71,0.27 5.07,-2.15 8.32,0 10.97,3.76 7.91,5.38 14.42,2.15 4.42,-1.14 0,0 2.01,3.33 0.36,1.92 0,0 -2.76,5.16 -3.69,4.15 -6.46,4.89 -18.44,10.74 -3.5,3.41 -6.09,7.81 -2.21,6.34 -1.48,8.53 -0.55,12.67 -2.58,1.22 -1.48,1.46 0.18,5.85 1.66,1.95 1.66,3.9 -0.55,8.03 -2.4,2.68 -7.74,0.73 -3.51,2.68 -2.58,9.97 0,8.27 0.47,2.47 -1.75,1.75 -4.5,9.07 0,0 -13.289998,1.43 -5.75,-1.34 -2.89,-1.72 -0.78,-1.13 0,0 2.61,-2.23 6.3,-3.75 3.45,-11.51 4.869998,-8.84 3.45,-10.71 0.2,-8.04 -0.81,-7.24 -0.4,-15.02 0,-4.29 0.81,-6.71 -3.86,-2.95 -3.249998,-0.81 -2.64,-2.14 -3.04,-4.57 -3.05,-9.66 -3.65,-1.88 -1.55,-2.32 0,0 z" 
                fill="rgb(151, 144, 238)" 
                stroke="white" 
                stroke-width=".7px"
                title="Ohrid" 
                id="MK-58" 
            />
        </svg>