<svg xmlns="http://www.w3.org/2000/svg" viewBox="155.35957000000008 281.31198999999987 41.40999999999997 58.12000000000006" width="41.40999999999997" height="58.12000000000006">
            <path 
                d="m 181.58957,281.48199 0.97,3.62 1.83,1.62 6.49,0.27 4.27,1.9 1.62,3.24 0,11.36 -0.42,5.43 0,0 -4.45,7.01 -4.06,3.51 -3.66,1.08 -2.43,2.44 -2.84,9.45 -2.64,3.78 -3.86,2.7 -5.28,0.54 0,0 0,-7.02 -1.62,-2.97 -2.44,-1.89 -1.42,0.27 -1.82,1.62 -2.03,0 -1.22,-5.13 -1.22,-1.9 0.27,-1.43 0,0 0.34,-1.81 1.62,-1.08 1.42,-4.59 2.24,-4.06 0.2,-11.08 -1.02,-4.06 0.55,-3.48 0,0 0.27,-1.66 4.46,-3.25 4.27,-0.54 3.85,-1.35 3.25,-0.54 2.64,-2.17 z" 
                fill="rgb(151, 144, 238)" 
                stroke="white" 
                stroke-width=".7px"
                title="Oslomej" 
                id="MK-57" 
            />
        </svg>