<svg xmlns="http://www.w3.org/2000/svg" viewBox="699.1695700000001 193.14199000000008 75.46000000000004 75.2899999999999" width="75.46000000000004" height="75.2899999999999">
            <path 
                d="m 736.23957,194.36199 1.48,-0.87 1.17,0.36 1.14,1.23 0.68,1.43 1.19,1.16 0.33,1.27 0.73,0.46 -0.15,1.19 1.12,1.63 0.54,2.43 0.76,0.84 0.88,0.23 -0.22,2.09 1.35,2.24 1.19,3.37 -0.13,3.32 0.38,2.4 1.34,1.47 1.08,3.32 1.7,1.34 1.15,3.18 1.59,1.8 0.77,-0.13 1.45,5.17 -0.03,0.83 -0.58,0.57 0.51,1.03 1.71,1.01 0.31,-1.19 1.54,-0.26 1.13,-1.88 0.98,1.61 1.37,-1.77 2.46,-0.08 0.82,2.84 1.41,1.65 -0.12,2.78 1.68,0.7 0.27,0.56 0.59,3 1.96,3.44 0,1.49 0.74,1.27 -0.74,1.28 -0.04,0.94 0.9,3.09 -1.48,1.13 -0.7,1.82 -1.25,0.02 -3.99,7.26 0,0 -3.9,-2.9 -8.22,-2.7 -5.78,-4.81 -4.61,-2.89 -4.77,-0.38 -4.18,0.19 0,-2.89 -1.59,-2.89 -3.46,-1.54 -13.28,-2.51 -4.18,0.2 -1.73,1.35 -0.29,2.11 -0.87,0.58 -2.45,-0.58 -1.16,-2.69 -0.14,-3.86 -0.58,-2.31 -2.16,-1.16 -4.19,-11.17 -0.5,-3.21 0,0 2.81,0.31 2.45,-0.38 3.03,-3.28 2.17,-3.47 3.46,-1.35 2.6,-0.39 5.92,-11.77 4.04,-4.43 8.96,-6.47 0,0 0.41,0.98 z" 
                fill="rgb(151, 144, 238)" 
                stroke="white" 
                stroke-width=".7px"
                title="PehÄevo" 
                id="MK-60" 
            />
        </svg>