<svg xmlns="http://www.w3.org/2000/svg" viewBox="337.62957000000006 145.03199 74.70999999999998 73.77999999999992" width="74.70999999999998" height="73.77999999999992">
            <path 
                d="m 374.02957,145.03199 1.64,1.98 4.47,2.42 2.97,0.57 2.98,2.28 1.17,3.27 1.8,0.86 2.02,0 2.34,-1 1.7,-1.43 7.87,-0.14 2.87,2 2.44,3.41 4.04,2.79 0,0 -1.09,2.24 -1.68,5.62 -0.14,4.49 0,0 -10.45,7.82 -4.12,1.6 -3.85,-0.18 -1.73,0.89 -0.27,1.42 0.8,6.4 -0.4,7.29 -0.66,3.91 -1.46,4.08 -2,8.35 -0.79,1.6 -1.6,0.53 -3.59,-1.24 -3.32,-4.8 -2.12,0 -0.13,1.42 -3.06,3.2 -1.06,2.13 -1.73,0 -0.27,-0.89 0.67,-1.42 -0.13,-3.02 -0.8,-0.71 -1.2,0.54 -1.46,1.42 -2.26,-0.18 -3.32,-0.53 -3.05,-1.42 -0.08,-0.99 0,0 -0.06,-0.79 2.53,-4.08 0.53,-20.62 -1.46,-2.13 -2.79,0.26 -3.99,-2 -2.82,-0.88 -4.35,-0.19 0,0 -3.46,-0.04 -1.82,-0.44 -0.67,-2.22 0.67,-2.45 0.92,-1.06 0,0 3.28,-3.86 0,0 0.78,-1.3 2.32,-0.67 3.32,-2.23 3.66,-1.78 1.99,-2.89 2.66,0 2.49,2.23 2.66,1.33 7.8,-0.67 1,-2 -0.67,-3.56 -1.85,-1.74 0,-1.57 0.42,-1.71 4.25,-9.25 z" 
                fill="rgb(151, 144, 238)" 
                stroke="white" 
                stroke-width=".7px"
                title="Petrovec" 
                id="MK-59" 
            />
        </svg>