<svg xmlns="http://www.w3.org/2000/svg" viewBox="177.48956999999996 348.99199 47.31000000000003 30.47999999999996" width="47.31000000000003" height="30.47999999999996">
            <path 
                d="m 188.64957,354.57199 3.03,-0.83 4.54,-0.22 5.04,-1.72 4.38,-2.81 3.74,0 1.46,1.08 0.16,6.26 0.32,1.51 1.14,1.94 1.79,1.95 3.57,1.51 3.08,0.43 2.93,1.73 0.97,4.37 0,0 -4.71,2.75 -11.2,4.31 -2.28,1.51 -0.52,1.13 0,0 -1.61,-1.18 -8.73,-3.78 -3.24,-6.2 -2.44,0.27 -2.93,1.35 0,0 -1.94,0 -3.65,1.08 -2.03,-3.24 0,-2.97 -0.61,-3.51 -1.42,-3.5 0.2,-2.7 0.81,-1.62 4.67,-0.54 z" 
                fill="rgb(151, 144, 238)" 
                stroke="white" 
                stroke-width=".7px"
                title="Plasnica" 
                id="MK-61" 
            />
        </svg>