<svg xmlns="http://www.w3.org/2000/svg" viewBox="275.86957000000007 351.6519900000001 171.29999999999984 166.36999999999983" width="171.29999999999984" height="166.36999999999983">
            <path 
                d="m 399.92957,364.82199 0,3.2 1.87,2.89 3.27,3.52 1.55,1.03 2.96,0 2.33,-4.96 1.56,-0.83 0.62,2.07 0,4.96 -1.09,2.28 -0.31,7.85 0.62,3.51 3.35,5.06 0.62,3.51 -0.15,5.79 -1.71,3.3 -0.63,2.89 -0.46,6.6 0.15,5.99 0.78,3.51 1.56,5.36 1.4,2.89 2.64,0.82 7.78,-0.41 5.14,0.41 0.62,1.65 -1.09,1.24 -0.62,3.3 -3.42,6.39 -0.63,8.45 1.87,3.51 1.56,0.82 2.33,3.91 -0.39,12.88 1.09,8.85 1.71,1.24 2.34,0.61 5.91,0.21 0.78,2.06 0,3.5 0.62,4.52 0.71,1.98 0,0 -6.02,3.79 -1.31,4.28 -0.54,4.25 0.41,4.52 0,0 -1.96,-1.63 -6.77,-3.14 -3.29,-0.73 -5.86,-5.56 -1.1,-2.42 -0.91,-0.48 -0.92,0.24 -1.28,2.42 -6.95,0.24 -4.21,-1.21 -2.56,-1.69 -3.11,-4.11 -2.75,-1.94 -7.32,-1.45 -10.06,-4.84 -15.37,-2.18 -4.03,-1.45 -4.75,-3.39 -2.93,-5.56 -1.28,-1.46 -2.2,0.24 -2.59,2.3 0,0 -1.13,-1.29 -3.58,-1.19 -4.63,-0.79 -4.18,-1.58 -5.52,-4.34 -2.24,0 -3.88,2.76 -6.71,-0.2 -5.82,-3.15 -2.09,-3.76 -1.94,-0.79 -6.57,-0.39 -1.79,-1.78 -1.12,-3.16 -3.73,-2.97 -3.58,-5.73 -3.88,-2.37 -7.46,-1.19 -1.49,-2.17 -0.3,-2.57 0.36,-0.1 0,0 1.87,-0.49 4.33,-0.2 2.54,-1.78 6.27,-7.32 1.49,-9.69 1.49,-1.98 1.2,-2.77 0,-3.57 -1.35,-0.99 -6.12,-0.59 -1.19,-1.58 -0.15,-2.18 -1.34,-0.99 -0.15,-2.58 0.15,-1.18 4.81,-4.23 0,0 4.29,-3.69 2.09,-0.4 3.13,-4.95 3.88,-3.37 6.27,0 7.09,-2.18 10,-0.4 3.13,-1.58 3.58,-4.56 6.72,-2.38 0.6,-4.76 1.79,-4.95 2.38,-2.58 3.49,-1.59 0,0 6.21,0.6 2.24,1.58 1.64,2.58 0.6,2.18 2.84,0.2 2.83,-0.79 1.64,-0.8 2.24,-4.75 0.45,-7.94 0.9,-1.58 0.89,-0.6 7.91,-0.6 3.88,-2.38 2.09,0 1.64,0.6 1.19,1.98 8.06,3.97 2.54,5.36 z" 
                fill="rgb(151, 144, 238)" 
                stroke="white" 
                stroke-width=".7px"
                title="Prilep" 
                id="MK-62" 
            />
        </svg>