<svg xmlns="http://www.w3.org/2000/svg" viewBox="472.5795700000005 117.29198999999996 98.82999999999953 84.46" width="98.82999999999953" height="84.46">
            <path 
                d="m 571.40957,127.79199 -2.6,10.26 -1.38,0.34 -4.58,2.86 -3.27,6.39 -4.39,3.53 -3.76,3.87 -3.01,2.18 -1.51,1.85 0.08,0.42 0,0 -1.4,-0.87 -1.15,0.17 -2.05,1.54 -2.3,4.46 -1.28,6.67 -1.66,2.91 -2.69,1.37 -2.17,1.72 -2.18,2.56 -1.66,0 -1.28,0.69 -0.89,2.05 0.38,2.91 3.84,5.65 6.82,8.41 0,0 -1.32,1.51 -10.87,0.51 -3.2,-1.37 -1.02,-3.25 0,-1.88 -0.9,-1.71 -1.92,-0.51 -4.23,2.45 0,0 -0.99,-1.85 -1.17,-0.79 -2.76,0.79 -3.73,-1.58 -4.52,-0.26 -1.6,0.49 0,0 0,-0.96 -3.96,-4.6 0.17,-0.92 1.55,-1.16 0.86,-2.53 0,-4.38 -1.2,-0.92 -2.76,-0.69 -1.89,-1.84 -6.03,-11.76 -8.26,-5.77 -4.13,-3.92 -0.86,-3 0.69,-4.38 3.42,-7.09 0,0 2.09,-0.52 4.82,2.53 2.06,1.62 1.38,0.46 1.38,-0.23 2.58,-7.85 2.06,-2.77 1.73,-0.92 6.37,0.23 3.95,-0.69 2.85,-1.62 10.67,-4.15 2.93,2.07 1.37,3.01 1.55,1.15 3.62,0 1.72,-0.46 1.55,-1.62 1.55,-0.69 1.55,0.23 3.27,4.62 2.41,0.92 1.37,0 2.07,-3 0,-12.24 1.2,-0.92 10.51,-0.23 5.5,0.46 3.62,2.08 4.48,3.92 z" 
                fill="rgb(151, 144, 238)" 
                stroke="white" 
                stroke-width=".7px"
                title="Probištip" 
                id="MK-63" 
            />
        </svg>