<svg xmlns="http://www.w3.org/2000/svg" viewBox="557.57957 231.80199 107.25999999999999 106.38999999999999" width="107.25999999999999" height="106.38999999999999">
            <path 
                d="m 604.61957,231.80199 2.96,0.69 2.17,1.74 3.32,3.66 2.6,1.15 6.78,-0.19 4.18,-0.96 1.74,-1.74 1.44,-3.85 2.16,-0.19 1.01,0.96 1.73,4.05 6.79,3.47 7.36,6.74 3.75,1.54 5.06,0.39 0,0 0.13,7.17 1.09,5.3 2.16,1.92 2.35,1.2 1.44,1.69 -0.18,2.17 -5.95,9.38 -0.18,2.64 0.54,3.37 1.13,2.84 0,0 -0.81,1.01 -9.09,0.96 -1.15,1.15 -3.76,6.93 -0.86,2.69 0.14,2.31 1.73,2.88 2.46,3.84 2.16,1.35 0.72,5.57 1.16,2.31 0.43,2.69 -0.29,6.91 -1.73,2.69 -2.45,2.69 -1.73,-0.19 -8.95,-8.84 -4.76,-2.88 -1.73,0 -1.3,0.77 -1.59,3.84 -2.89,2.11 -3.89,0.58 -1.16,0.96 0,1.54 2.17,4.41 0,2.11 -0.97,0.86 0,0 -7.55,-2.39 -3.89,0 -2.89,-0.77 -1.59,-1.34 0.15,-2.12 3.03,-1.92 0.72,-1.92 0,-2.3 -4.11,-5 -2.75,-4.61 -4.18,-4.61 -2.6,-2.11 -16.16,-1.35 -5.05,-4.42 -2.74,-0.77 -2.02,0 -3.09,-1.32 0,0 -3.55,-2.14 -1.45,-2.88 0,-7.12 -0.57,-3.27 -1.16,-1.54 -3.03,-8.08 1.01,-2.31 5.05,-5.19 1.88,-0.39 4.04,2.89 6.06,2.11 3.32,0.2 2.31,-0.39 4.62,-9.82 5.05,-8.21 0,0 1.15,-2.57 2.24,-2.31 1.3,-3.28 0.58,-4.04 0,-5.4 6.49,-5.01 z" 
                fill="rgb(151, 144, 238)" 
                stroke="white" 
                stroke-width=".7px"
                title="Radoviš" 
                id="MK-64" 
            />
        </svg>