<svg xmlns="http://www.w3.org/2000/svg" viewBox="475.69957000000034 16.011992 58.419999999999845 86.03999800000003" width="58.419999999999845" height="86.03999800000003">
            <path 
                d="m 499.74957,16.011992 2.7,7.09 11.01,15.76 5.51,2.79 8.96,0 2.75,1.39 0,2.77 -1.38,3.25 -1.37,1.62 -0.35,8.1 3.44,7.64 0,5.32 0.69,3.7 1.72,2.78 0.69,2.78 -0.17,5.08 -2.93,2.78 -0.09,0.57 0,0 -3.17,1.16 -0.27,6.28 -0.55,1.3 -2.76,1.29 -3.85,0.929998 -3.03,1.48 -5.1,0.18 -10.47,-8.689998 -3.44,-4.44 -4.96,-2.59 -6.88,-0.37 -1.1,-1.85 -0.42,-6.48 -0.83,-0.92 -3.02,0 -4.74,-4.93 0,0 3.56,0.12 2.21,-0.37 1.38,-1.85 0,-2.6 -1.11,-2.96 -3.71,-6.11 -0.14,-10.93 -2.27,-4.26 -0.56,-2.78 1.11,-2.41 5.92,-0.93 2.06,-2.41 -0.69,-10.38 -1.07,-2.89 0,0 10.04,-3.44 z" 
                fill="rgb(151, 144, 238)" 
                stroke="white" 
                stroke-width=".7px"
                title="Rankovce" 
                id="MK-65" 
            />
        </svg>