<svg xmlns="http://www.w3.org/2000/svg" viewBox="109.17956999999994 456.54199 135.63 143.7100000000001" width="135.63" height="143.7100000000001">
            <path 
                d="m 177.47957,457.24199 0.37,-0.7 0.93,3.42 2.02,2.44 5.72,0.25 1.29,3.17 1.48,8.3 0,5.13 1.66,6.34 4.04,6.23 0,0 -0.12,2.19 2.77,3.05 0.69,3.65 -0.69,4.58 -3,5.18 -5.54,4.57 -1.15,3.95 0,4.57 2.08,2.44 5.3,0.91 1.34,1.1 0,3.65 0.73,3.41 1.48,2.93 4.61,5.11 0.74,2.43 0,3.17 2.21,1.94 12.73,-0.24 4.06,2.19 3.32,4.62 1.29,2.68 0,3.16 3.13,0.98 7.38,0.24 1.66,1.21 1.29,5.11 -0.37,5.11 3.14,1.94 0.74,1.95 -0.37,2.67 -1.11,2.43 -0.74,4.38 -1.48,5.16 0,0 -8.14,-5.96 -17.68,8.33 -13.02,2.53 -36.84,1.11 -2.53,-1.11 -0.42,-6.67 -1.19,-8.42 -1.65,-2.27 -4.05,-2.5 -1.36,-2.02 -2.27,-1.84 -6.63,-1.36 -6.7,2.75 -5.81,-1.16 -6.23,-2.99 -1.47,-0.15 -5.83,2.03 -5.69,5.35 -2.58,0.99 -1.84,0.09 0,0 4.5,-9.07 1.75,-1.75 -0.47,-2.47 0,-8.27 2.58,-9.97 3.51,-2.68 7.74,-0.73 2.4,-2.68 0.55,-8.03 -1.66,-3.9 -1.66,-1.95 -0.18,-5.85 1.48,-1.46 2.58,-1.22 0.55,-12.67 1.48,-8.53 2.21,-6.34 6.09,-7.81 3.5,-3.41 18.44,-10.74 6.46,-4.89 3.69,-4.15 z" 
                fill="rgb(151, 144, 238)" 
                stroke="white" 
                stroke-width=".7px"
                title="Resen" 
                id="MK-66" 
            />
        </svg>