<svg xmlns="http://www.w3.org/2000/svg" viewBox="411.38957000000016 318.5519899999999 53.119999999999834 50.710000000000036" width="53.119999999999834" height="50.710000000000036">
            <path 
                d="m 464.10957,319.94199 0.4,12.69 -0.27,7.28 0,0 -0.97,1 -0.94,3.32 0.32,5.38 -0.78,6.62 -5.29,3.31 -1.25,1.65 -0.15,3.1 -1.56,0.62 -1.71,-0.62 -2.49,-2.06 -2.49,-1.25 -2.02,-0.82 -2.65,0 -1.4,1.45 -0.62,5.17 -2.18,1.65 -9.34,0.21 -2.02,0.62 -7.78,-0.62 -2.65,-2.9 -4.88,-7.05 0,0 0.52,-6.81 1.4,-5.83 0,0 0.16,-0.58 3.42,-2.9 4.98,-0.42 2.34,-2.68 0,-2.08 -1.09,-4.76 0,-3.73 0.93,-0.82 2.18,-0.21 2.49,0.83 1.56,1.45 4.51,2.28 4.67,0 1.71,-2.08 1.09,-3.1 1.87,-2.28 1.86,-1.45 3.58,0.83 1.87,1.65 4.36,0 0.78,-5.79 2.64,-1.66 2.49,0 z" 
                fill="rgb(151, 144, 238)" 
                stroke="white" 
                stroke-width=".7px"
                title="Rosoman" 
                id="MK-67" 
            />
        </svg>