<svg xmlns="http://www.w3.org/2000/svg" viewBox="207.51957000000013 97.501992 67.28999999999994 90.66999800000002" width="67.28999999999994" height="90.66999800000002">
            <path 
                d="m 234.61957,97.501992 3.53,6.989998 0.62,-0.01 0,0 0.74,7.56 2.09,5.32 2.8,1.56 3.26,-0.63 1.86,-2.18 2.33,-0.32 2.56,2.82 0.93,5.31 3.49,6.55 3.26,7.49 4.66,5.93 7.67,0.71 0,0 -0.19,13.53 0.58,1.28 0,0 -1.09,1.83 -6.86,0.33 -5.15,2.95 -5.89,4.6 -7.11,7.55 -3.92,2.95 -11.77,4.6 -1.47,2.95 -0.07,1 0,0 -2.97,-1.59 -3.92,-4.73 -1.96,-0.26 -2.36,-2.62 0,-3.94 0.79,-6.83 2.15,-10.77 0.2,-5.26 -0.98,-1.57 -8.04,-5.26 -3.73,-1.58 -3.14,-0.79 0.04,-0.41 0,0 0.16,-1.69 0.78,-0.79 1.57,-0.79 4.12,-0.79 5.69,-2.36 0,-3.16 -2.55,-4.73 -0.74,-3.16 0.25,-2.3 1.96,-2.31 2.94,-1.31 1.23,-1.65 0,-3.62 -1.23,-3.61 -1.71,0.32 -1.96,1.32 -2.21,0 -4.9,-5.27 1.22,-1.64 3.43,-1.65 15.45,-1.64 z" 
                fill="rgb(151, 144, 238)" 
                stroke="white" 
                stroke-width=".7px"
                title="Saraj" 
                id="MK-68" 
            />
        </svg>