<svg xmlns="http://www.w3.org/2000/svg" viewBox="231.29957000000007 159.41199 70.07 91.00000000000003" width="70.07" height="91.00000000000003">
            <path 
                d="m 274.80957,159.41199 0.55,1.23 20.28,0 0,0 2.63,0 1.88,1.01 0,5.03 1.22,2.06 0,0 -0.11,4.86 -2.15,10.24 -12.56,0.79 -4.7,-2.36 -3.14,-0.79 -4.12,0 -4.71,1.31 -2.16,2.36 0,5.25 1.38,3.68 3.72,0 4.12,1.31 2.36,0.26 1.57,1.58 -0.4,2.1 -2.74,0 -3.14,2.36 -1.18,3.41 -1.76,7.86 -0.59,4.46 -1.18,0.79 -1.96,0 -1.18,1.31 -0.39,3.14 1.37,1.57 2.75,1.05 1.34,3.91 -2.3,4.09 -1.15,6.14 0,4.61 1.53,4.6 0.84,0.28 0,0 -1.91,1.5 -4.91,-0.65 -5.88,-5.24 -4.66,-9.17 -5.64,-7.86 -4.41,-7.21 -6.81,-7.55 0,0 -0.3,-0.31 1.72,-5.25 0.73,-10.16 -5.15,-3.61 -2.21,-2.95 0.18,-2.28 0,0 0.07,-1 1.47,-2.95 11.77,-4.6 3.92,-2.95 7.11,-7.55 5.89,-4.6 5.15,-2.95 6.86,-0.33 z" 
                fill="rgb(151, 144, 238)" 
                stroke="white" 
                stroke-width=".7px"
                title="Sopište" 
                id="MK-70" 
            />
        </svg>