<svg xmlns="http://www.w3.org/2000/svg" viewBox="393.09956999999974 7.701992300000011 91.69000000000028 91.04999970000001" width="91.69000000000028" height="91.04999970000001">
            <path 
                d="m 467.51957,14.311992 7.73,7.48 5.56,-0.01 2.22,-0.76 0,0 1.07,2.89 0.69,10.38 -2.06,2.41 -5.92,0.93 -1.11,2.41 0.56,2.78 2.27,4.26 0.14,10.93 3.71,6.11 1.11,2.96 0,2.6 -1.38,1.85 -2.21,0.37 -3.56,-0.12 0,0 -8.42,-0.44 -1.51,1.11 0.27,7.04 -0.27,7.03 -2.89,5.73 -3.03,4.62 -3.58,1.3 -3.86,0.18 -0.31,0.4 0,0 -3.43,-10.2 -2.1,-0.99 -2.62,0.29 -1.69,1.12 -0.83,4.1 -1.37,1.69 -0.94,0.28 -2.53,-0.14 -8.29,-2.68 -2.73,-2.82 -2,-0.14 -3.57,0.7 -2.42,0.85 -2.1,1.69 -2.83,0.57 -3.05,1.55 -1.47,2.25 -2.41,0 -2.42,-0.98 -5.04,-6.07 -2.73,-4.09 -1.05,-3.25 -0.32,-6.63 0.53,-4.38 1.99,-3.67 -0.1,-8.04 -1.79,-2.97 0.11,-3.25 0.63,-2.12 6.3,-2.26 0.63,-1.98 -0.1,-3.39 -2,-2.4 -7.35,-2.69 -0.55,-1.13 0,0 6.3,-0.39 6.73,-1.17 1.05,-6.08 -0.13,-5.72 0.52,-3.39 8.16,-7.93 5.46,-0.35 9.16,11.98 21.3,-16.8199997 9.58,6.4199997 z" 
                fill="rgb(151, 144, 238)" 
                stroke="white" 
                stroke-width=".7px"
                title="Staro NagoriÄane" 
                id="MK-71" 
            />
        </svg>