<svg xmlns="http://www.w3.org/2000/svg" viewBox="12.16957199999999 370.20198999999997 80.57 137.89999999999992" width="80.57" height="137.89999999999992">
            <path 
                d="m 70.609572,372.38199 12.59,24.77 1.22,9.97 0,9.43 7.91,12.11 0.41,3.5 -1.02,8.87 -2.23,7.26 -4.67,5.92 -1.01,2.96 0,2.68 0.61,2.96 2.63,2.96 -0.81,6.18 0.72,1.76 0,0 -1.05,1.83 0,0 -13.67,-1.18 -6.9,0.27 -2.85,2.69 -6.09,16.65 -1.82,8.58 -0.23,5.55 0,0 -10.18,-2.63 -1.09,-1.54 -2.3,-4.18 -0.32,-3.86 0.81,-2.01 2.38,-2.45 -0.53,-2.55 -2.47,-6.28 -7.19,-12.4 -2.04,-5.02 -2.58,0.2 -2.04,-1.13 -1.13,-1.86 -4.7,-12.56 0,0 3.26,0 7.69,2.32 7.02,-0.58 5.49,-3.78 7.25,0 3.51,-2.03 2.2,-2.33 0,-2.91 -0.44,-2.04 -2.2,-2.04 -2.41,0 -2.86,0.59 -4.61,4.07 -4.61,-0.29 -3.07,-1.46 -3.52,-0.29 -9.44,0.29 -4.31,1.56 0,0 -1.38,-1.63 -0.94,-3.68 0.86,-5.07 -4.75,-17.81 -1.49,-2.16 -0.05,-4.54 1.39,-2.71 0.97,-0.08 1.81,2.14 1.34,0.54 2.29,0.14 1.53,-1.09 1.69,-3.06 0.19,-1.64 2.42,-2.14 0.99,-3.65 1.21,-1.07 1.56,-4.68 1.91,-8.98 0,0 18.03,0.16 8.73,0.54 4.26,-2.42 5.39,-6.79 0,0 0.91,-1.03 1.05,1.26 0,0 z" 
                fill="rgb(151, 144, 238)" 
                stroke="white" 
                stroke-width=".7px"
                title="Struga" 
                id="MK-72" 
            />
        </svg>