<svg xmlns="http://www.w3.org/2000/svg" viewBox="604.4095699999997 344.82199 106.33000000000015 72.4500000000001" width="106.33000000000015" height="72.4500000000001">
            <path 
                d="m 623.68957,354.62199 0.42,0.37 3.17,-3.64 1.74,-2.31 1.87,-3.84 3.03,-0.38 3.47,1.92 2.02,0 2.45,1.92 3.61,1.73 6.2,8.05 8.8,0.2 4.77,-1.92 3.03,-0.58 3.75,-3.07 1.87,-0.97 0,0 3.68,3.85 2.31,7.86 -0.14,2.11 -2.31,4.99 0,2.3 2.89,0.96 1.3,1.34 1.58,0 1.88,-1.72 4.47,-0.39 1.16,1.54 1.01,5.17 0.86,1.34 1.88,1.73 2.45,1.34 2.6,0.38 4.62,-2.11 3.75,-0.19 0,0 0,0.77 2.02,1.91 0.29,20.12 0.55,0.79 0,0 -2.03,2.04 -6.27,1.32 -1.44,3.5 0,0 -6.11,-4.01 -10.96,-5.75 -3.61,-0.96 -2.02,0.58 -2.17,1.34 -3.32,7.85 -2.88,3.25 -1.59,0 -1.01,-1.53 -2.02,-0.19 -1.59,0.96 -1.15,1.91 -2.02,0.77 -6.21,0 -2.31,-0.77 0,-2.68 -5.48,-5.17 -2.02,-0.19 -3.47,1.34 -9.09,0 -0.43,-5.93 -5.48,-9.96 0,-1.73 1.15,-3.06 2.31,-2.88 1.16,-2.68 0,-1.92 -1.45,-2.3 -1.59,-1.34 -2.88,-0.38 -5.92,0.19 -3.75,-1.72 -6.06,-6.14 -4.62,-5.94 0.09,-1.07 0,0 0.06,-0.66 2.02,-2.11 4.32,-2.11 3.61,-1.15 2.17,0 1.58,1.15 3.61,0.58 1.44,-1.35 z" 
                fill="rgb(151, 144, 238)" 
                stroke="white" 
                stroke-width=".7px"
                title="Strumica" 
                id="MK-73" 
            />
        </svg>