<svg xmlns="http://www.w3.org/2000/svg" viewBox="266.34957 167.6819899999999 77.2299999999999 108.5500000000001" width="77.2299999999999" height="108.5500000000001">
            <path 
                d="m 339.21957,174.97199 -0.92,1.06 -0.67,2.45 0.67,2.22 1.82,0.44 3.46,0.04 0,0 -1.27,2.29 -3.86,1.24 -5.98,4.45 -4,2.14 -0.79,5.7 -2,3.91 -2.26,1.96 -1.46,2.13 -0.67,6.23 -1.33,1.6 -2.79,0.17 -1.73,-0.35 -0.8,-1.07 -0.14,-2.84 -0.53,-1.6 -2.26,-0.18 -2.53,2.84 -1.99,4.45 0.4,8.54 1.06,2.84 3.73,4.8 1.19,2.84 -1.59,5.33 0.21,3.59 0,0 -8.56,2.66 -3.19,2.62 -5.39,11.12 -2.21,2.29 -3.43,1.31 -1.47,2.29 -2.39,10.55 0,0 -0.34,1.2 -2.68,-2.55 -3.45,-7.16 0,-13.8 -2.68,-3.07 -3.45,0 -2.22,-0.74 0,0 -0.84,-0.28 -1.53,-4.6 0,-4.61 1.15,-6.14 2.3,-4.09 -1.34,-3.91 -2.75,-1.05 -1.37,-1.57 0.39,-3.14 1.18,-1.31 1.96,0 1.18,-0.79 0.59,-4.46 1.76,-7.86 1.18,-3.41 3.14,-2.36 2.74,0 0.4,-2.1 -1.57,-1.58 -2.36,-0.26 -4.12,-1.31 -3.72,0 -1.38,-3.68 0,-5.25 2.16,-2.36 4.71,-1.31 4.12,0 3.14,0.79 4.7,2.36 12.56,-0.79 2.15,-10.24 0.11,-4.86 0,0 0.28,0.45 3.38,0 2.63,-1.51 3,0 2.79,3.2 0,8.83 0.69,1.84 3.74,1.45 2.26,-1.05 1.19,-2.11 1.47,-4.74 1.48,-1.71 4.03,-1.89 0,0 5.51,-3.73 0,0 1.78,0.47 z" 
                fill="rgb(151, 144, 238)" 
                stroke="white" 
                stroke-width=".7px"
                title="StudeniÄani" 
                id="MK-74" 
            />
        </svg>