<svg xmlns="http://www.w3.org/2000/svg" viewBox="135.4095700000001 72.421992 69.98999999999992 60.37999800000004" width="69.98999999999992" height="60.37999800000004">
            <path 
                d="m 177.06957,72.421992 8.24,7.58 4.51,5.46 4.06,5.76 2.71,5.45 2.49,1.52 2.93,0.6 2.26,1.519998 1.13,3.64 -0.45,4.54 -3.16,3.94 -2.71,2.12 -3.39,6.06 -2.03,4.84 -4.74,2.43 -13.55,2.72 -1.12,1.21 0.22,0.99 0,0 -3.07,-0.77 -2.64,-1.63 -0.81,-1.63 0,-5.45 0.81,-2.99 -1.22,-2.45 -2.23,-3 -2.64,-1.09 -1.83,0 -2.64,-0.82 -2.64,-7.35 -2.43,-4.91 -2.64,-2.999998 -6.7,-4.08 -8.38,-3.06 0,0 4.2,-3.25 13.47,-1.59 5.88,-1.37 2.96,-4.77 8.35,-1.97 z" 
                fill="rgb(151, 144, 238)" 
                stroke="white" 
                stroke-width=".7px"
                title="Tearce" 
                id="MK-75" 
            />
        </svg>