<svg xmlns="http://www.w3.org/2000/svg" viewBox="84.5295719999999 90.571992 95.589998 70.85999800000005" width="95.589998" height="70.85999800000005">
            <path 
                d="m 135.40957,90.571992 8.38,3.06 6.7,4.08 2.64,2.999998 2.43,4.91 2.64,7.35 2.64,0.82 1.83,0 2.64,1.09 2.23,3 1.22,2.45 -0.81,2.99 0,5.45 0.81,1.63 2.64,1.63 3.07,0.77 0,0 0.6,2.6 0,0 -1.85,0.44 -3.24,4.63 0,1.09 1.21,1.36 2.64,0.82 0.61,1.9 1.42,2.18 3.25,1.08 1.01,0.82 -0.2,2.99 -6.09,1.91 -2.2,3.05 0,0 -5.51,-0.88 -6.29,-4.62 -1.83,-0.27 -1.83,1.08 -2.23,4.9 -1.19,-0.13 0,0 -1.25,-0.14 -7.3,-8.71 -2.85,-1.63 -17.45,-4.08 -4.67,0.27 -3.45,2.18 -3.05,2.99 -3.65,2.72 -5.28,1.91 -4.669998,2.45 -3.45,3.53 -4.65,2.19 0,0 0.15,-3.51 -5.81,-9.49 -0.84,-5.86 1.94,-5.41 -0.2,-8.41 15.629998,-19.83 9.96,-7.99 10.71,0.88 5.49,-0.69 4.14,-5.239998 z" 
                fill="rgb(151, 144, 238)" 
                stroke="white" 
                stroke-width=".7px"
                title="Tetovo" 
                id="MK-76" 
            />
        </svg>