<svg xmlns="http://www.w3.org/2000/svg" viewBox="338.5795699999999 174.39199 88.5200000000001 125.57000000000002" width="88.5200000000001" height="125.57000000000002">
            <path 
                d="m 409.42957,174.39199 -0.03,5.19 3.27,12.67 10.61,13.28 0,0 0.1,1.94 -1.06,1.78 -8.11,8.52 -0.93,1.6 0.53,1.6 6.12,7.99 0,2.84 -3.86,8.87 -0.8,3.37 0.93,1.42 3.46,0 2.39,0.88 5.05,9.06 0,0 0,5.31 -1.2,5.85 -2.65,3.36 -5.05,5.14 -5.05,11.87 -2.92,4.6 -7.97,0.71 -0.93,1.42 -0.98,6.3 0,0 -2.96,-0.32 -6.92,-1.77 -2.66,-3.01 -0.8,-10.29 -1.07,-1.59 -1.46,0.35 -3.72,3.55 -1.6,0.71 -1.6,-0.18 -1.59,-2.48 -0.53,-2.31 0.13,-2.3 -0.8,-3.37 -2.53,-3.91 -1.06,-6.74 -1.86,-4.44 -3.2,-1.59 -7.05,-0.89 -4.79,-2.31 -1.73,-0.36 -1.59,0 -2.4,1.96 -1.73,0 -1.59,-1.24 -4.79,-9.95 -1.87,-2.66 0.3,-0.92 0,0 0.1,-0.33 5.46,-0.53 4.79,-1.77 1.86,-1.25 6.12,-10.13 0,-7.28 -1.46,-0.89 -1.2,-1.78 0,-7.82 1.44,-0.51 0,0 0.08,0.99 3.05,1.42 3.32,0.53 2.26,0.18 1.46,-1.42 1.2,-0.54 0.8,0.71 0.13,3.02 -0.67,1.42 0.27,0.89 1.73,0 1.06,-2.13 3.06,-3.2 0.13,-1.42 2.12,0 3.32,4.8 3.59,1.24 1.6,-0.53 0.79,-1.6 2,-8.35 1.46,-4.08 0.66,-3.91 0.4,-7.29 -0.8,-6.4 0.27,-1.42 1.73,-0.89 3.85,0.18 4.12,-1.6 z" 
                fill="rgb(151, 144, 238)" 
                stroke="white" 
                stroke-width=".7px"
                title="Veles" 
                id="MK-13" 
            />
        </svg>