<svg xmlns="http://www.w3.org/2000/svg" viewBox="601.3595700000001 143.67198999999997 84.30999999999995 105.59000000000003" width="84.30999999999995" height="105.59000000000003">
            <path 
                d="m 653.09957,145.56199 0.83,22.37 1.29,1.16 9.38,2.71 11.69,6.18 6.5,1.54 2.88,0.2 0,2.12 -1.29,1.16 -3.76,7.34 -2.16,12.35 -1.88,3.67 -2.16,2.89 -0.58,2.9 0.08,4.64 0,0 -0.66,0.18 -0.57,3.28 1.01,2.12 0.43,4.24 -0.43,6.75 -1.16,4.82 -2.02,4.82 -2.88,3.46 -4.19,0 -3.32,0.58 -2.46,2.22 0,0 -5.06,-0.39 -3.75,-1.54 -7.36,-6.74 -6.79,-3.47 -1.73,-4.05 -1.01,-0.96 -2.16,0.19 -1.44,3.85 -1.74,1.74 -4.18,0.96 -6.78,0.19 -2.6,-1.15 -3.32,-3.66 -2.17,-1.74 -2.96,-0.69 0,0 0.15,-7.76 0,0 0.72,-9.29 -0.29,-11.57 -1.29,-7.53 -1.59,-1.74 -0.96,-2.41 0,0 0.09,-0.87 2.17,-2.51 -0.29,-13.33 1.44,-4.05 1.44,-11.02 0.87,-1.55 4.91,-0.19 3.32,2.32 1.44,2.12 1.44,1.16 3.61,0.2 4.54,-3.05 0,0 4.26,2.08 2.17,0 3.46,-2.32 4.04,-8.5 1.3,-6.19 1.88,-1.74 2.3,-0.39 4.62,0.58 z" 
                fill="rgb(151, 144, 238)" 
                stroke="white" 
                stroke-width=".7px"
                title="Vinica" 
                id="MK-14" 
            />
        </svg>