<svg xmlns="http://www.w3.org/2000/svg" viewBox="87.51957200000003 171.47199 64.61999799999997 46.44" width="64.61999799999997" height="46.44">
            <path 
                d="m 93.719572,172.50199 3.48,-1.03 18.879998,3.26 9.95,3.26 16.44,9.24 4.06,0.82 2.03,1.9 1.29,0 0,0 0.54,1.63 0,7.33 1.75,0.7 0,0 -2.16,0.93 -2.64,3.53 1.42,6.51 -3.04,3.53 -5.69,1.9 -9.74,-2.44 -7.71,1.08 -3.66,3.26 -5.48,-0.82 -5.27,-2.98 -1.83,-2.72 -1.83,-5.15 -2.03,-2.44 -12.179998,-0.82 -1.27,-0.64 0,0 11.829998,-8.7 -13.339998,-12.42 z" 
                fill="rgb(151, 144, 238)" 
                stroke="white" 
                stroke-width=".7px"
                title="Vrapčište" 
                id="MK-16" 
            />
        </svg>