<svg xmlns="http://www.w3.org/2000/svg" viewBox="99.739572 274.27198999999996 61.709998 58.28000000000003" width="61.709998" height="58.28000000000003">
            <path 
                d="m 160.97957,290.82199 -0.55,3.48 1.02,4.06 -0.2,11.08 -2.24,4.06 -1.42,4.59 -1.62,1.08 -0.34,1.81 0,0 -3.11,-0.46 -3.25,0.81 -2.23,1.9 -6.29,2.97 -5.08,1.08 -1.42,3.24 0,2.03 0,0 -1.22,-0.41 -2.23,-6.48 -4.67,-5.14 -4.26,-10 -5.08,-0.81 -2.03,-5.13 -1.42,-5.14 -2.23,-4.06 -3.4,-0.59 0,0 -1.27,-0.22 -4.06,1.08 -2.439998,-1.89 -0.2,-2.71 3.249998,-4.06 6.9,-0.27 2.44,-1.89 5.27,-6.23 3.45,-2.16 6.91,0 1.62,-1.35 4.8,-0.48 0,0 3.32,-0.34 6.29,1.9 4.67,2.43 4.47,3.25 5.07,6.5 z" 
                fill="rgb(151, 144, 238)" 
                stroke="white" 
                stroke-width=".7px"
                title="Zajas" 
                id="MK-31" 
            />
        </svg>