<svg xmlns="http://www.w3.org/2000/svg" viewBox="307.18957 181.18199 51.80000000000001 62.75" width="51.80000000000001" height="62.75">
            <path 
                d="m 343.57957,181.18199 4.35,0.19 2.82,0.88 3.99,2 2.79,-0.26 1.46,2.13 -0.53,20.62 -2.53,4.08 0.06,0.79 0,0 -1.44,0.51 0,7.82 1.2,1.78 1.46,0.89 0,7.28 -6.12,10.13 -1.86,1.25 -4.79,1.77 -5.46,0.53 -0.1,0.33 0,0 -2.29,-0.68 -22.62,0.71 -1.78,-1.74 0,0 -0.21,-3.59 1.59,-5.33 -1.19,-2.84 -3.73,-4.8 -1.06,-2.84 -0.4,-8.54 1.99,-4.45 2.53,-2.84 2.26,0.18 0.53,1.6 0.14,2.84 0.8,1.07 1.73,0.35 2.79,-0.17 1.33,-1.6 0.67,-6.23 1.46,-2.13 2.26,-1.96 2,-3.91 0.79,-5.7 4,-2.14 5.98,-4.45 3.86,-1.24 z" 
                fill="rgb(151, 144, 238)" 
                stroke="white" 
                stroke-width=".7px"
                title="Zelenikovo" 
                id="MK-32" 
            />
        </svg>