<svg xmlns="http://www.w3.org/2000/svg" viewBox="278.37957000000023 242.19199 134.92999999999978 128.8999999999999" width="134.92999999999978" height="128.8999999999999">
            <path 
                d="m 312.18957,242.19199 1.78,1.74 22.62,-0.71 2.29,0.68 0,0 -0.3,0.92 1.87,2.66 4.79,9.95 1.59,1.24 1.73,0 2.4,-1.96 1.59,0 1.73,0.36 4.79,2.31 7.05,0.89 3.2,1.59 1.86,4.44 1.06,6.74 2.53,3.91 0.8,3.37 -0.13,2.3 0.53,2.31 1.59,2.48 1.6,0.18 1.6,-0.71 3.72,-3.55 1.46,-0.35 1.07,1.59 0.8,10.29 2.66,3.01 6.92,1.77 2.96,0.32 0,0 -0.49,7.86 1.86,2.65 7.31,5.13 1.2,2.48 0,3.89 -1.33,3.01 -4.12,4.59 -0.66,7.96 0.93,3.53 8.26,4.99 0,0 -1.4,5.83 -0.52,6.81 0,0 -1.65,-2.05 -3.58,-0.62 -1.87,1.86 -1.71,3.31 -2.65,3.1 0,0.53 0,0 -1.62,-1.26 -2.54,-5.36 -8.06,-3.97 -1.19,-1.98 -1.64,-0.6 -2.09,0 -3.88,2.38 -7.91,0.6 -0.89,0.6 -0.9,1.58 -0.45,7.94 -2.24,4.75 -1.64,0.8 -2.83,0.79 -2.84,-0.2 -0.6,-2.18 -1.64,-2.58 -2.24,-1.58 -6.21,-0.6 0,0 -0.35,-1.58 -1.94,-2.98 -2.84,-2.38 -10.89,-2.78 -1.94,-0.99 -1.05,-1.59 -2.23,-7.74 -2.09,-0.59 -1.94,0.2 -1.79,1.39 -7.76,0.19 -3.14,-1.58 -2.09,-2.38 -1.94,-3.58 -0.44,-9.53 -0.75,-4.77 -1.49,-3.77 -3.29,-1.19 -1.64,-1.4 -1.49,-2.77 -0.89,-3.38 -2.54,-2.79 -12.24,-4.37 -2.56,0 0,0 0.41,-10.02 -1.23,-3.26 0.24,-2.62 5.4,-6.21 1.96,-3.59 -0.43,-2.86 0,0 2.39,-10.55 1.47,-2.29 3.43,-1.31 2.21,-2.29 5.39,-11.12 3.19,-2.62 z" 
                fill="rgb(151, 144, 238)" 
                stroke="white" 
                stroke-width=".7px"
                title="Čaška" 
                id="MK-80" 
            />
        </svg>