<svg xmlns="http://www.w3.org/2000/svg" viewBox="526.2795699999998 158.62198999999998 61.60000000000002 65.69999999999999" width="61.60000000000002" height="65.69999999999999">
            <path 
                d="m 546.98957,159.49199 1.3,3.78 3.89,4.88 4.64,3.19 11.8,-0.34 0.75,1.01 0,3.03 -1,0.67 -0.76,1.85 0.26,9.57 1.88,3.86 1.5,6.04 1.76,0.84 1.38,0 1.63,2.19 1.36,0.67 0,0 0.08,5.37 0.76,3.35 3.01,2.86 3.39,4.36 3.26,6.21 0,0 -0.99,1.44 -6.39,-0.52 -6.65,-6.66 -3.45,-0.17 -3.59,0.51 -11.89,-2.05 -7.93,-5.81 -6.65,-6.16 -3.02,-3.73 0,0 -6.82,-8.41 -3.84,-5.65 -0.38,-2.91 0.89,-2.05 1.28,-0.69 1.66,0 2.18,-2.56 2.17,-1.72 2.69,-1.37 1.66,-2.91 1.28,-6.67 2.3,-4.46 2.05,-1.54 1.15,-0.17 z" 
                fill="rgb(151, 144, 238)" 
                stroke="white" 
                stroke-width=".7px"
                title="Češinovo-Obleševo" 
                id="MK-81" 
            />
        </svg>