<svg xmlns="http://www.w3.org/2000/svg" viewBox="256.49957000000006 46.98199200000003 65.61999999999995 91.60999799999999" width="65.61999999999995" height="91.60999799999999">
            <path 
                d="m 311.29957,49.041992 0.59,2.93 3.2,5.45 3.41,4.01 2.56,0.86 1.06,2.29 0,5.45 -0.85,5.44 -2.77,2.58 -5.33,2.58 0,0 -1.76,-0.59 -4.5,1.51 -2.63,6.56 -4.51,8.07 -1.5,5.549998 -0.75,9.07 0.75,14.11 -2.63,1 -0.49,0.88 -1.16,-1.23 0,0 -3.26,-6.33 -2.33,-2.19 -2.56,0.63 -2.1,2.19 -0.23,6.87 0.93,0.93 2.56,0.32 1.86,2.18 0.7,2.5 1.86,2.5 2.1,0.31 1.33,-1.15 0,0 0.67,1.78 0,0 -0.03,1.15 0,0 -1.5,1.34 -2.57,0 -4.65,-1.25 -3.49,-4.06 -1.87,-3.74 -3.26,-2.5 -3.54,-0.46 0,0 0,-5.7 -5.26,-11.59 -9.24,-9.07 0,0 0.58,-1.299998 -3.49,-6.25 -0.7,-3.75 3.03,-5.64 3.26,-7.82 0.31,-3.63 5.05,-4.02 6.43,-3.83 4.78,-4.56 2.7,-4.35 1.44,-7.15 5.6,0 2.79,1.56 2.33,0.63 3.72,-0.32 1.4,-1.87 5.12,-0.94 3.73,1.87 z" 
                fill="rgb(151, 144, 238)" 
                stroke="white" 
                stroke-width=".7px"
                title="Čučer Sandevo" 
                id="MK-82" 
            />
        </svg>