<svg xmlns="http://www.w3.org/2000/svg" viewBox="449.9695699999997 191.79199 140.95000000000022 132.39999999999992" width="140.95000000000022" height="132.39999999999992">
            <path 
                d="m 499.08957,192.28199 1.6,-0.49 4.52,0.26 3.73,1.58 2.76,-0.79 1.17,0.79 0.99,1.85 0,0 -4.85,4.22 -2.55,5.3 0,5.64 0.89,7.01 2.05,5.98 2.55,3.93 3.46,0.69 6.01,0.17 4.47,0.68 4.35,2.73 5.5,4.96 3.84,4.44 6.01,1.02 6.13,5.29 4.48,4.61 3.45,4.61 6.4,0 8.05,-1.7 6.53,-0.52 4.41,-1.53 4.35,0.17 1.53,1.92 0,0 -5.05,8.21 -4.62,9.82 -2.31,0.39 -3.32,-0.2 -6.06,-2.11 -4.04,-2.89 -1.88,0.39 -5.05,5.19 -1.01,2.31 3.03,8.08 1.16,1.54 0.57,3.27 0,7.12 1.45,2.88 3.55,2.14 0,0 -1.32,2.47 -3.46,3.27 -7.22,8.07 -7.21,6.15 -0.29,1.92 0.34,0.42 0,0 -2.35,0.49 -5.73,0.16 -5.35,-1.49 -7.72,-5.3 -3.36,-1.49 -2.37,-1.49 -0.12,-5.81 -0.87,-2.65 -4.86,-1.66 -8.21,-0.5 -2.49,0.67 -1.87,-1.5 -1.37,-3.81 -0.37,-4.48 -1.12,-4.64 -1.13,-2.83 -2.61,-3.31 -2.12,0.33 -2.49,5.47 -0.99,1.33 -1.5,0.66 -1.49,0 -2.49,-2.82 -3.36,-5.47 -2.99,-1.16 -2.86,-0.17 -3.55,-2.98 0,0 -5.79,-3.66 -3.11,-0.33 -5.23,0.5 -0.94,-0.76 0,0 -0.31,-0.24 -0.12,-4.48 -6.1,-5.15 -0.87,-1.66 1.12,-5.15 2.99,-3.49 1.24,-2.82 1.87,-1 1.62,0 1.62,1 2.24,2.15 0.99,1.67 1.74,1.33 1.13,-0.34 1.12,-3.49 4.35,-0.5 0.5,-0.99 0,-1.66 -1.12,-1.17 0,-1.33 2.01,-0.61 0,0 3.23,2.39 1.73,2.53 2.06,0.92 1.72,0 1.04,-1.15 -0.69,-2.99 -1.55,-0.69 -1.04,-1.15 1.04,-2.76 1.55,-0.46 0.17,-2.76 -0.86,-2.98 -2.93,-4.83 0.17,-1.61 1.04,-1.15 5.51,-1.61 1.89,-3.22 4.82,-6.44 2.24,-3.92 3.7,-2.3 0.34,-2.53 -0.51,-2.3 -3.45,-5.98 -0.34,-3 0.52,-1.61 1.89,-0.69 1.55,-1.15 0.86,-1.61 z" 
                fill="rgb(151, 144, 238)" 
                stroke="white" 
                stroke-width=".7px"
                title="Štip" 
                id="MK-83" 
            />
        </svg>