<svg xmlns="http://www.w3.org/2000/svg" viewBox="169.97957000000008 135.40199 68.67999999999992 77.32999999999998" width="68.67999999999992" height="77.32999999999998">
            <path 
                d="m 175.06957,135.40199 1.21,1.25 5.19,1.52 3.38,0 2.26,-1.21 1.58,1.21 0,2.72 -1.8,1.82 0.67,1.51 3.62,1.21 8.35,0.6 1.58,-2.42 1.58,-0.9 4.87,-0.15 0,0 -0.04,0.41 3.14,0.79 3.73,1.58 8.04,5.26 0.98,1.57 -0.2,5.26 -2.15,10.77 -0.79,6.83 0,3.94 2.36,2.62 1.96,0.26 3.92,4.73 2.97,1.59 0,0 -0.18,2.28 2.21,2.95 5.15,3.61 -0.73,10.16 -1.72,5.25 0.3,0.31 0,0 -5.23,-2.42 -3.45,-3.26 -3.66,-2.44 -2.84,-0.76 0,0 0,-3.86 -1.62,-2.44 -2.24,0 -2.23,0.82 -1.22,4.07 -9.74,0.27 -5.89,-5.16 -8.32,-0.27 -3.04,-0.54 0,-7.61 0.81,-2.98 2.64,-0.55 0.81,-1.9 0,-1.36 -1.42,-3.53 -4.06,0 -2.84,-1.63 -0.61,-9.51 -1.63,-0.82 -2.64,-0.27 -3.45,-3.53 -3.01,-5.38 0,0 2.2,-3.05 6.09,-1.91 0.2,-2.99 -1.01,-0.82 -3.25,-1.08 -1.42,-2.18 -0.61,-1.9 -2.64,-0.82 -1.21,-1.36 0,-1.09 3.24,-4.63 z" 
                fill="rgb(151, 144, 238)" 
                stroke="white" 
                stroke-width=".7px"
                title="Želino" 
                id="MK-30" 
            />
        </svg>