<svg xmlns="http://www.w3.org/2000/svg" viewBox="210.5612599999998 409.69247 342.66999999999996 148.73999999999995" width="342.66999999999996" height="148.73999999999995">
            <path 
                d="m 232.06126,409.69247 6.52,7.36 14.01,9.8 8.21,4.9 5.32,1.22 7.73,4.66 4.11,-1.47 0.72,-1.72 -0.01,-3 0,0 0.71,-0.52 2.48,-0.74 1.03,0.31 0.1,0.53 -0.41,1.47 -1.44,0.41 2.24,1.89 -0.29,1.46 1.77,1.35 0.92,1.06 -0.21,1.04 -4.54,-0.1 1.65,1.25 -1.44,2.62 -2.17,0.83 0.21,1.26 1.03,1.99 1.34,1.77 2.17,1.36 4.64,2.7 3.81,3.47 0.42,1.46 1.54,1.26 2.27,-0.11 0.62,1.57 0.93,0.53 1.24,-0.21 2.37,2.09 0.62,1.25 0.93,0.52 2.06,1.57 3.09,2.62 1.44,0.83 3,0.11 0.82,-0.73 4.02,1.04 1.24,-0.91 1.96,-0.97 1.75,-1.99 -0.31,-2.09 0.93,-1.35 3.61,1.56 4.02,0.1 4.13,1.05 2.57,0.11 2.99,0.52 0.83,-0.31 -0.41,-1.99 2.57,-1.26 -0.11,-0.62 -2.15,0.42 -0.21,-0.53 0.21,-3.24 1.13,-1.36 -0.31,-1.15 -0.62,-0.73 -1.44,-0.94 -2.27,-0.42 -1.03,-1.15 -2.06,0.1 -1.86,-1.56 -0.52,-1.47 -1.54,-2.19 0.62,-2.09 1.03,-0.53 1.54,0.32 2.79,-0.53 0,-1.57 1.65,-0.2 0,-1.05 1.86,-3.45 0.52,-0.12 1.44,2.42 2.06,0.52 2.58,-1.04 0.61,-1.15 2.38,-0.63 2.26,-0.11 1.45,-1.77 7.11,-1.78 2.38,0.1 2.47,-3.66 4.95,1.78 2.47,-0.31 1.66,-1.15 2.06,0.1 1.65,-1.15 1.65,-1.67 0.2,-1.99 0.83,-0.42 1.24,0.52 0.92,-2.5 1.04,-0.63 3.09,0.94 2.24,-0.52 0.75,1.04 2.06,0.11 1.65,-1.57 2.37,0.31 2.07,0 2.06,0 1.54,-0.42 0.62,-1.46 0,-0.73 -1.04,-1.17 0.43,-1.24 3.19,4.71 3.51,-1.14 0.62,1.77 1.34,-0.11 0.62,-0.63 2.88,1.15 1.55,-0.21 3.71,-0.94 1.55,-0.83 3.3,-0.84 4.33,0.42 3.2,-0.93 1.7,0.19 0,0 0,23.22 74.42,-0.73 0.36,1.46 1.08,1.27 2.16,0.55 3.06,-0.37 2.15,-1.27 2.16,-0.55 3.6,0.18 3.67,-0.67 0,0 1.12,3.28 1.76,2.29 -0.21,0.52 0.93,0.42 -0.2,1.15 0.62,0.31 0.51,-0.62 1.24,0.83 0.62,-0.31 3.19,1.26 0.72,-0.74 -1.54,-1.36 -0.41,0.84 -1.33,-0.42 -0.84,-0.42 -2.06,0 0.31,-0.83 3.19,0.1 0.83,-1.04 2.68,1.46 1.44,1.67 1.45,0.74 1.44,1.04 0.62,1.25 3.3,3.25 0.41,5.43 2.89,2.93 0,1.05 1.73,1.8 2.66,0.87 -13.38,21.28 0,0 -56.24,-26.74 -14.5,2.29 -43.69,8.44 -21.05,39.22 0,0 -68.01,40.17 0,0 -4.76,0.49 -60.17,1 -54.83,-52.48 -6.04,-72.49 15.46,-18.86 z" 
                fill="rgb(151, 144, 238)" 
                stroke="white" 
                stroke-width=".7px"
                title="Arta" 
                id="DJ-AR" 
            />
        </svg>