<svg xmlns="http://www.w3.org/2000/svg" viewBox="0.26125694000001953 316.53246999999976 336.10000306 362.0100000000002" width="336.10000306" height="362.0100000000002">
            <path 
                d="m 232.06126,409.69247 -6.04,4.91 -15.46,18.86 6.04,72.49 54.83,52.48 60.17,-1 4.76,-0.49 0,0 -4.55,2.68 0,0 -19.79,12.51 0.09,42.41 0,0 -0.64,1.17 -0.09,2.63 -0.7,0.53 -7.63,2.05 -8.26,3.04 -4.49,0.8 -16.12,5.74 -30.23,21.42 -1.4,0.53 -21.41,-6.15 -2.37,0.59 -0.31,2.46 -3.03,1.54 -10.66,-1.47 -1.76,-0.98 -5.59,1.51 -4.14,0.5 -2.04,1.01 -0.75,0.88 -0.16,1.4 -1.68,1.41 -3.03,1.19 -22.75,1.96 -3.2,0.72 -1,-0.92 0.28,-1.17 -1.12,-1.15 -1.28,-0.4 -9.53,-0.67 -1.39,0.83 -2.33,-0.1 -2.04,1.01 -0.99,-0.05 -0.83,-1.33 1.45,-1.76 -1.12,-0.63 -2.79,0.96 -2.38,2.17 -7.81,0.71 -1.87,4.82 -6.7,-0.01 -3.8,6.3 -0.91,2.46 -6.37,0.31 -4.1,-1.08 -10.170003,5.23 -2.58,0.15 -11.24,-1.54 -6.37,4.92 -2.13,0.46 -2.28,-0.15 -3.64,-5.69 -1.82,-1.69 -5.16,-2.15 -9.42,-1.23 -4.09,-1.38 -9.11,-1.54 -2.89,-1.07 -11.38,-0.92 -1.52,-3.38 -1.37,-0.92 -7.8900001,-0.77 -0.91,-1.54 -1.22,-4.61 0.15,-2.46 1.22,-1.99 3.4900001,-2.77 2.43,-21.08 1.06,-28.72 1.06,-7.07 0.76,-37.36 -1.52,-23.85 -1.97,-13.07 -2.32,-6.66 -10.1500001,-41.74 -0.91,-4.36 0.35,-1.51 -1.23999996,-2.86 0.75999996,-3.54 5.23,-9.68 0.69,-2.54 4.0700001,-5.79 -0.43,-6 1.22,-4.31 1.06,-2.77 3.8,-5.55 -1.52,-5.08 0.61,-4.93 4.25,-11.55 1.21,-6.93 2.73,-7.09 2.95,-10.89 16.83,-8.44 4.87,-3.38 1.79,-7.28 2.22,-1.65 17.59,-8.15 1.97,-1.73 0.77,-3.1 0.96,-1.62 11.9,-17.47 0,0 54.760003,10.56 14.33,5.71 65.43,66.12 5.16,3.41 z" 
                fill="rgb(151, 144, 238)" 
                stroke="white" 
                stroke-width=".7px"
                title="Dikhil" 
                id="DJ-DI" 
            />
        </svg>