<svg xmlns="http://www.w3.org/2000/svg" viewBox="433.50126 411.0424699999999 94.61000000000001 37.170000000000016" width="94.61000000000001" height="37.170000000000016">
            <path 
                d="m 527.29126,436.67247 0.72,0.73 0.1,1.26 -1.55,0.42 -0.72,-0.52 0,-1.36 1.45,-0.53 z m -14.03,-25.63 -0.21,4.09 2.07,1.14 1.05,2.32 -0.42,0.61 -1.97,0.42 -0.31,1.15 0.52,2.2 1.13,2.61 0.84,0.72 0.81,2.83 2.99,3.45 0.62,1.67 -0.1,2.93 0.93,0.21 1.75,2.2 1.24,0 0.72,3.03 1.14,1.67 0,0.63 0.11,0.6 0,0 -3.67,0.68 -3.6,-0.18 -2.16,0.55 -2.16,1.27 -3.06,0.37 -2.16,-0.55 -1.08,-1.28 -0.36,-1.46 -74.42,0.73 0,-23.22 0,0 2.1,-0.66 3.52,0.14 2.48,-0.1 4.33,1.46 2.36,-0.63 2.69,0.73 4.95,-0.62 3.2,0.63 0.72,-0.42 -0.41,-0.53 0.41,-0.1 3.4,0.31 1.65,-0.73 2.68,-0.21 6.7,1.05 2.48,1.67 3.09,-0.1 1.13,0.73 -0.92,-1.47 -0.83,-0.21 0.1,-1.57 4.23,-0.42 2.27,0.42 1.44,1.15 1.44,0 2.37,1.88 1.14,2.32 3.09,1.03 2.89,-2.2 1.75,-0.63 2.58,0.1 1.55,-0.31 2.06,-0.73 1.13,-1.67 2.48,0.43 0.51,-2.31 1.24,-0.94 0.1,-1.67 -2.99,0.1 -0.21,1.36 -1.55,-0.1 0.93,-0.52 -0.1,-0.94 1.03,-1.15 -0.62,-0.21 -0.62,0.52 -0.42,-0.94 -0.63,0.62 0.01,0.85 -0.62,0.21 -0.31,-1.05 2.27,-1.87 3.59,-0.09 0.64,-1.91 -0.21,-1.26 1.47,-0.83 z" 
                fill="rgb(151, 144, 238)" 
                stroke="white" 
                stroke-width=".7px"
                title="Djibouti" 
                id="DJ-DJ" 
            />
        </svg>