<svg xmlns="http://www.w3.org/2000/svg" viewBox="85.79125699999999 73.30247300000029 404.07000300000016 364.32999700000005" width="404.07000300000016" height="364.32999700000005">
            <path 
                d="m 272.74126,78.012473 4.55,0.37 10.32,4.42 16.79,12.32 21.09,23.589997 18.97,14.52 0,0 -0.91,4.59 -5.08,2.22 -2.9,2.45 -1.69,3.2 -1.69,1.96 -0.72,2.46 1.45,3.68 2.41,2.21 2.9,8.11 5.32,11.3 4.59,5.65 5.79,4.42 5.32,5.65 9.42,5.16 3.86,0.49 4.59,1.47 3.14,2.21 3.39,0.98 5.07,4.42 0.24,2.95 1.69,2.45 26.3,28.21 33.66,37.33 12.32,12.27 5.07,10.05 0.97,5.4 6.52,13 4.11,3.19 2.41,2.94 7.85,4.72 0,0 -1.55,1.99 -3.82,0.84 -0.83,1.56 -1.85,1.69 0,1.99 -2.27,0.73 -1.34,3.03 -0.82,0.53 -2.27,0.62 -1.65,-0.51 -2.87,0.29 -1.05,0.75 -2.17,0.42 -2.88,-0.53 -0.83,0.94 -2.16,0.63 -1.76,-0.31 -1.98,-2.29 -0.9,-0.01 -2.07,1.67 -1.12,0.31 -5.17,-0.1 -1.54,1.68 -1.76,0.83 -1.23,1.57 -0.92,3.36 -1.25,1.98 -2.65,1.36 -3.02,2.41 -1.14,-0.42 -0.61,-0.94 -0.11,-2.51 -0.72,1.04 -0.89,0.32 0.79,1.47 -1.24,0.52 -1.96,-0.63 -0.51,-1.78 -0.93,-0.84 -3.47,-0.42 -1.69,0.73 -1.96,-0.1 -1.85,-1.26 -2.07,1.05 -1.54,0.1 -1.65,-0.94 -3.1,-1.67 -2.07,0.41 -2.37,2.93 -3.09,2 -6.9,0.42 -2.89,4.29 -3.92,3.14 -2.37,0.73 -1.86,0.21 -4.12,-0.32 -1.35,0.52 -3.81,-0.1 -1.24,0.76 -2.47,2.8 -4.13,9 -1.65,1.57 -0.82,1.67 -1.55,1.15 -0.4,6.71 -0.73,2.08 -1.24,1.68 -2.06,1.46 -6.91,3.35 -1.45,2.72 -1.54,1.05 -2.06,2.61 -2.99,4.29 -2.07,5.65 -0.2,4.18 -0.19,5.34 -0.54,3.03 -1.46,1.46 -1.22,1.16 -0.72,2.61 -1.75,0.42 0.2,1.57 1.86,3.66 -0.21,0.83 -3.5,-0.83 -1.96,-1.68 -2.99,-0.94 0.31,2.51 -0.62,0.21 -1.14,-1.88 -1.96,-1.36 -0.82,-0.31 -0.75,0.08 -1.62,-0.08 -2.89,-1.78 -0.41,0.94 4.1,2.41 -0.49,0.62 2.37,1.68 -4.33,0.1 -1.75,-0.63 -3.72,-2.51 -0.51,-0.83 -4.13,-1.57 -1.34,-1.26 -0.62,0.11 -0.41,0.94 -1.65,0.21 -2.58,1.25 -1.13,1.15 -2.27,0.74 -3.61,-3.67 -0.41,1.16 -0.52,-0.11 -2.37,-3.56 -2.27,-1.98 -1.02,-0.64 -2.79,0.12 -4.23,-2.2 -1.14,0.31 -2.68,-0.21 -0.51,2.1 -1.34,0.73 -0.93,1.77 -0.72,-0.94 -1.13,0.11 0.1,0.63 1.64,0.73 -0.92,0.84 -0.2,1.15 0.07,0.62 1.27,0.63 0,0 0.01,3 -0.72,1.72 -4.11,1.47 -7.73,-4.66 -5.32,-1.22 -8.21,-4.9 -14.01,-9.8 -6.52,-7.36 0,0 0,0 0,0 -6.59,-7.36 -5.16,-3.41 -65.43,-66.12 -14.33,-5.71 -54.760003,-10.56 0,0 14.300003,-20.96 13.74,-17.44 3.1,-7.93 1.79,-1.91 6.51,-11.61 2.24,-6.84 4.48,-9.11 3.18,-3.04 6.53,-1.78 3.56,-0.12 4.09,-15.5 4.96,-6.22 7.19,-13.17 9.74,-11.08 9.31,-14.13 15.99,-15.19 7.17,-7.73 8.59,-27.42 20.1,-27.259997 9.03,-10.86 13.81,-13.85 4.24,-0.08 3.18,1.17 3.47,2.06 3.76,0.3 z" 
                fill="rgb(151, 144, 238)" 
                stroke="white" 
                stroke-width=".7px"
                title="Tadjourah" 
                id="DJ-TA" 
            />
        </svg>