<svg xmlns="http://www.w3.org/2000/svg" viewBox="104.0680000000001 125.57770000000004 34.53899999999993 38.93859999999994" width="34.53899999999993" height="38.93859999999994">
            <path 
                d="m 107.809,126.1569 -0.043,0.0452 -0.308,0.12465 -0.331,0.1166 -0.435,0.47445 -0.22,0.20506 -0.064,0.0512 -0.199,0.11358 -0.144,0.0975 0.005,0.0532 0.096,0.0623 0.098,0.10253 -0.01,0.77501 -0.042,0.76394 -0.054,0.0643 -0.276,0.0252 -0.367,0.0532 -0.117,0.0342 -0.041,-0.0754 -0.123,-0.27945 0.069,-0.26536 0.074,-0.19803 -0.083,-0.40308 -0.187,-0.35885 -0.198,-0.45536 -0.061,-0.0875 0.167,-0.14675 0.251,-0.32167 0.105,-0.16686 0.291,-0.0371 0.108,-0.1166 0.077,-0.18697 0.03,-0.10856 0.328,-0.0885 0.394,-0.15781 0.218,-0.1729 0.221,-0.11057 0.14,-0.004 0.092,0.0452 0.253,0.29955 0.215,0.18898 0.071,0.0452 z m 30.573,17.65018 0.062,0.37393 0.061,0.51969 0.043,0.37394 0.044,0.16786 0.015,0.0895 -0.049,0.0965 -0.04,0.22416 -0.079,0.19902 -0.044,0.13872 0.037,0.25532 -0.03,0.36589 -0.031,0.387 -0.01,0.37293 0.105,0.66745 -0.015,0.20505 -0.131,0.34981 -0.099,0.26538 -0.064,0.30758 -0.012,0.16083 0.24,0.45435 -0.014,0.0905 -0.184,0.0282 -0.152,0.008 -0.582,0 -0.834,0 -0.834,0 -0.834,0 -0.767,0 -0.734,0 -0.647,0 0,0.44832 0,0.92478 0,0.92578 0,0.92679 0,0.9288 0,0.9298 0,0.93081 0,0.93181 0,0.93383 0,0.67448 0.169,0.89664 0.31,0.97704 0.121,0.0905 0.312,0.17993 0.433,0.3679 0.243,0.27844 0.494,0.4835 0.657,0.61719 0.633,0.55385 0.559,0.48853 -0.877,0.17189 -1.247,0.24326 -0.841,0.16484 -1.021,0.20004 -0.68,0.12565 -0.847,0.1558 -0.135,-0.003 -0.227,-0.10756 -0.49,-0.0211 -0.576,0.14877 -0.457,0.0403 -0.338,-0.0683 -0.33,-0.12968 -0.322,-0.19199 -0.557,-0.0703 -0.793,0.0522 -0.764,-0.0371 -0.736,-0.12665 -0.526,-0.0502 -0.317,0.0272 -0.34,-0.0412 -0.363,-0.10956 -0.303,-0.18597 -0.364,-0.39202 -0.285,-0.37393 -0.074,-0.0532 -0.09,-0.0573 -0.089,-0.0171 -0.808,-0.0101 -0.767,-0.009 -0.439,-0.001 -1.074,-0.001 -1.074,-0.001 -1.074,-0.002 -1.074,-0.001 -1.074,-0.002 -1.074,-0.001 -1.074,-0.002 -1.074,-0.001 -0.57,-9.9e-4 -0.53,0.0302 -0.585,0.0322 -0.084,-0.0141 -0.139,-0.0452 -0.095,-0.0824 -0.315,-0.2121 -0.274,-0.16082 -0.373,-0.27141 -0.241,-0.29653 -0.203,-0.0945 -0.359,-0.0533 -0.27,-0.0522 -0.22,-0.0121 -0.387,0.13972 -0.292,0.13872 -0.208,0.13369 -0.361,0.15279 -0.304,0.15278 -0.53,-0.0201 -0.115,0.0222 -0.295,-0.0101 -0.278,-0.13369 -0.282,0.0121 -0.313,0.16987 -0.448,0.0663 0.104,-1.10872 0.109,-0.48953 0.003,-0.58503 -0.064,-1.5118 -0.077,-0.20808 -0.052,-0.24326 0.277,-0.18495 0.141,-0.14173 0.191,-0.2503 0.136,-0.35081 0.16,-0.77199 0.582,-1.77216 0.276,-1.73194 0.35,-0.81822 0.131,-0.91674 0.974,-1.1811 0.24,-0.72475 0.504,-0.35483 0.713,-0.37795 0.508,-0.67248 0.246,-0.4654 0.28,-0.89161 -0.003,-0.9298 0.178,-1.23941 -0.039,-0.35584 -0.266,-0.49254 -0.049,-0.35182 -0.247,-0.34578 -0.264,-0.26135 -0.124,-0.46641 -0.458,-0.7348 -0.125,-0.48953 -0.219,-0.35182 -0.035,-0.43324 -0.115,-0.45837 -0.224,-0.45233 -0.209,-0.51767 0,-0.16184 0.136,-0.195 0.129,-0.0633 -0.043,0.0985 -0.086,0.1156 0.021,0.0895 0.856,-0.90669 0.054,-0.17691 -0.029,-0.19803 -0.004,-0.24224 0.034,-0.28146 -0.808,-1.66962 -0.641,-1.55001 -0.109,-0.78305 -0.848,-1.02831 -0.334,-0.66846 -0.19,-0.46841 -0.143,-0.17692 0.054,-0.0895 0.218,-0.0231 0.486,-0.10856 0.666,-0.11862 0.615,-0.2714 0.164,-0.12062 0.326,-0.0242 0.332,0.0724 0.123,-0.0522 0.07,-0.004 0.779,0 0.324,-0.0181 0.601,0.005 0.379,0.0222 0.216,0.0302 0.583,0.0472 0.728,-0.0111 0.257,-0.0242 0.954,-0.0161 0.942,-0.0161 0.847,-0.0141 0.936,0.003 0.716,0.002 0.326,0.0975 0.296,0.18496 0.135,0.16787 0.064,0.0744 0.088,0.17691 0.162,0.14073 0.058,0.21713 -0.047,0.29452 0.023,0.35483 0.094,0.41413 0.197,0.43425 0.298,0.45635 0.13,0.36188 -0.039,0.26838 0.092,0.28346 0.222,0.29855 0.162,0.15782 0.094,0.11961 0.252,0.45837 0.467,0.73178 0.35,0.54883 0.123,0.0653 0.179,-0.0231 0.38,-0.0542 0.376,-0.0111 0.269,0.11259 0.108,-0.0191 0.405,-0.21812 0.402,-0.0663 0.42,-0.0905 0.219,-0.0925 0.255,0 0.687,0.17591 0.13,0.009 0.556,0 0.556,-0.0985 0.082,-0.7358 0.005,-0.14576 0.134,-0.27643 0.17,-0.24125 0.021,-0.23018 -0.01,-0.31463 0.123,-0.38097 0.373,-0.30357 0.603,-0.14373 0.343,-0.0282 0.541,-0.0844 0.82,-0.0855 0.303,0.0111 0.024,0.0432 -0.174,0.52672 -0.003,0.17189 0.063,0.1739 0.139,0.0945 0.851,0.0101 0.784,0.0101 0.899,0.0331 0.674,0.0242 0.086,0.0262 0.068,0.0392 0.1,0.26135 -0.022,0.51064 -0.15,0.74585 0.058,0.69761 0.267,0.64935 0.027,0.99816 -0.094,0.59608 -0.119,0.75188 -0.046,0.85341 0.122,0.35685 0.258,0.37292 0.394,0.39102 0.305,0.50562 0.216,0.62221 0.078,0.39203 -0.058,0.16183 0.004,0.27945 0.067,0.39805 -0.075,0.26436 -0.216,0.12967 -0.072,0.17893 0.109,0.34378 0.027,0.31261 0.085,0.11962 0.062,0.0865 0.102,0.0131 0.219,-0.11158 0.262,-0.20807 0.21,-0.0875 0.296,0.0111 0.416,0.0593 0.734,0.0211 0.226,-0.0371 0.683,-0.28045 0.179,-0.0211 0.27,0.0262 0.383,0.0834 0.386,0.0171 0.188,-0.0865 0.017,-0.11358 0.06,-0.14776 0.104,-0.0553 z" 
                fill="rgb(151, 144, 238)" 
                stroke="white" 
                stroke-width=".7px"
                title="Angola" 
                id="AO" 
            />
        </svg>