<svg xmlns="http://www.w3.org/2000/svg" viewBox="111.62100000000005 82.14839999999997 36.40599999999988 24.643100000000018" width="36.40599999999988" height="24.643100000000018">
            <path 
                d="m 135.277,82.36668 0.198,0.35483 0.095,0.12464 0.818,0.83833 0.158,0.19903 0.405,0.60814 0.248,0.41012 0.285,0.59005 0.027,0.32066 -0.037,0.27341 -0.057,0.77701 -0.074,0.22315 -0.359,0.41816 -0.016,0.18798 0.075,0.15681 0.108,0.0643 0.068,0.0774 -0.041,0.36187 0.129,0.14173 0.269,0.0945 0.681,0.0643 0.354,0.0522 0.279,0.0724 0.133,0.0351 0.073,0.12766 -0.114,0.41715 0.079,0.26035 0.233,0.22014 0.236,0.0935 0.226,0.0542 0.788,0.1357 0.327,0.15278 0.432,0.48853 0.542,0.4443 0.132,0.23521 -0.024,0.21411 -0.161,0.25933 0.025,0.10656 0.249,0.26034 0.285,0.26538 0.522,0.29552 0.904,0.4634 0.415,0.3096 0.141,0.2342 0.232,0.25532 0.323,0.2332 0.217,0.17994 -0.15,0.50762 0.045,0.16686 0.081,0.14475 0.189,0.20003 0.075,0.25632 0.187,0.32066 0.223,0.14576 0.373,0.0542 0.196,0.14877 0.41,0.25532 0.396,0.22013 0.169,0.15078 0.105,0.1347 0.09,0.15882 0.045,0.15882 0.009,0.34277 0.068,0.42519 0.213,0.29051 0.198,0.21712 -0.809,-0.24929 -0.121,-0.005 -0.143,0.0432 -0.423,0.30558 -0.134,0.0382 -0.154,-0.0272 -0.379,-0.0371 -1.288,-0.24225 -0.992,-0.2322 -0.298,-0.0844 -0.53,-0.0804 -0.35,0.15882 -0.329,0.54381 -0.094,0.10755 -0.517,0.15983 -0.244,-0.0432 -0.597,0.14877 -0.922,-0.22517 -0.329,0.0442 -0.259,0.11358 -0.662,0.24628 -0.402,0.14072 -0.468,0.12767 -0.444,0.19601 -0.299,0.10655 -0.292,-10e-4 -0.264,-0.11057 -0.289,-0.0955 -0.345,-0.0191 -0.36,0.0553 -0.306,0.21712 -0.124,0.1548 -0.265,0.41112 -0.313,0.66845 -0.123,0.1347 -0.034,0.0131 -0.077,0.0563 -1.442,-0.33373 -0.621,-0.0774 -0.419,0.10254 -0.526,-0.18697 -0.23,-0.0332 -0.108,0.0593 -0.293,-0.0844 -0.476,-0.22818 -0.457,-0.0955 -0.409,0.0332 -0.25,-0.0764 -0.202,-0.22115 -0.26,-0.40709 -0.47,-0.40409 -0.628,-0.32267 -0.393,-0.24427 -0.156,-0.16283 -0.339,-0.0905 -0.519,-0.0171 -0.498,0.15983 -0.716,0.50461 -0.664,1.03434 -0.37,0.39605 -0.297,0.10152 -0.075,0.25029 0.147,0.39605 0.039,0.45535 -0.104,0.77399 0.038,0.56292 -0.158,-0.0895 -0.152,-0.26336 -0.071,-0.0532 -0.439,0.11861 -0.227,0.10655 -0.121,0.10455 -0.093,0.0161 -0.139,-0.14375 -0.11,-0.0262 -0.172,0.0262 -0.177,-0.002 -0.114,-0.0191 -0.076,0.0131 -0.207,-0.0855 -0.754,-0.21712 -0.129,-0.0724 -0.151,0.008 -0.391,0.18897 -0.207,0.0522 -0.624,0.11761 -0.668,0.0573 -0.256,0.003 -0.176,0.0844 -0.113,0.1176 -0.077,0.26236 -0.131,0.45234 -0.055,0.12162 0.01,0.17993 -0.039,0.30257 -0.019,0.2714 0.025,0.18194 -0.189,0.3669 -0.229,0.44429 -0.19,0.38096 -0.192,0.38299 -0.133,-0.26236 -0.082,-0.30758 -0.032,-0.35283 0.018,-0.0935 -0.051,-0.10454 -0.004,-0.0231 -0.064,-0.26638 0.065,-0.18596 -0.053,-0.194 -0.156,-0.19099 -0.141,-0.14675 -0.082,-0.13168 -0.067,-0.0563 -0.155,-0.0201 -0.209,-0.0683 -0.277,-0.28749 -0.268,-0.27944 -0.344,-0.35785 -0.275,-0.3096 -0.338,-0.37896 -0.312,-0.35081 -0.187,-0.33774 -0.076,-0.19401 0.091,-0.0191 0.135,-0.004 0.057,-0.0352 0.003,-0.0905 -0.139,-0.26637 -0.066,-0.33976 -0.115,-0.20707 -0.363,-0.31865 -0.346,-0.24224 -0.11,-0.12465 -0.062,-0.17791 -0.133,-1.12381 -0.059,-0.31966 -0.109,-0.13972 -0.079,-0.0653 -0.03,-0.0794 0.014,-0.20003 0.046,-0.17893 -0.002,-0.0703 0.094,-0.15682 0,-1.04137 -0.051,-0.0533 -0.061,-0.0905 -0.097,0.007 -0.111,-0.009 -0.11,-0.15178 -0.092,-0.19099 0.027,-0.1357 0.096,-0.11258 0.105,-0.0995 0.133,-0.0824 0.393,-0.16685 0.111,-0.0834 0.07,-0.10253 0.046,-0.13872 0.228,-0.53678 0.34,-0.53476 0.145,-0.11057 0.145,-0.35383 0.199,-0.43324 0.08,-0.20204 0.059,-0.20104 0.11,-0.16183 0.374,-0.26738 0.283,-0.46843 0.307,0.0252 0.314,0.0744 0.403,0.0371 0.316,-0.0905 0.205,-0.18294 0.451,-0.14575 0.527,-0.16888 0.071,-0.25129 0.155,-0.13168 0.179,-0.11661 0.062,-0.0151 0.013,0.0834 0.109,0.26235 0.223,0.25834 0.327,0.28547 0.093,-0.0181 0.203,-0.21611 0.51,-0.13369 0.129,-0.0593 0.362,-0.31462 0.436,-0.20204 0.096,-0.0181 0.157,-0.0532 0.44,-0.20908 0.313,0.0282 0.503,-0.0331 0.839,-0.0985 0.606,-0.0332 0.307,-0.0392 0.076,-0.0422 0.119,-0.30257 0.091,-0.0855 0.228,-0.13067 0.446,-0.45636 0.293,-0.38599 0.082,-0.12866 0.007,-0.0101 0.06,-0.0241 0.126,-0.16285 -0.125,-0.16786 -0.5,-0.34277 0.007,-0.0462 -0.028,-0.0583 0.027,-0.0472 0.191,-0.13973 0.257,-0.15882 0.274,-0.0593 0.715,0.0121 0.61,-0.0342 0.142,0.008 0.476,-0.0814 0.325,-0.0724 0.334,-0.16485 0.757,0.0171 0.63,-0.42018 0.182,-0.0744 0.079,-0.0653 0.024,-0.0643 0.295,-0.16686 0.33,-0.34479 0.261,-0.3106 0.071,-0.21913 0.714,-0.74284 0.249,0.0151 0.122,-0.0915 0.283,-0.49657 0.088,-0.0905 0.133,-0.0312 0.161,-0.0563 0.14,-0.14676 0.121,-0.21914 0.001,-0.27039 -0.055,-0.21713 0,-0.10555 0.068,-0.0965 0.114,-0.0975 0.542,-0.26739 0.138,-0.12966 0.082,-0.11661 0.152,-0.0211 0.166,0.0121 0.105,-0.0724 0.118,-0.12163 0.376,-0.16385 0.348,-0.12765 0.366,0.0532 0.298,0.0663 0.244,0.0774 z" 
                fill="rgb(151, 144, 238)" 
                stroke="white" 
                stroke-width=".7px"
                title="Central African Republic" 
                id="CF" 
            />
        </svg>