<svg xmlns="http://www.w3.org/2000/svg" viewBox="173.34800000000007 61.83670000000005 18.77899999999994 16.361509999999953" width="18.77899999999994" height="16.361509999999953">
            <path 
                d="m 192.127,77.2432 -0.312,0.1337 -0.344,0.11761 -0.049,-0.004 -0.114,0.1538 -0.163,0.42017 -0.179,0.12263 -0.094,0.0111 -0.535,-0.39303 -0.083,-0.0221 -0.116,0.0774 -0.084,0.0804 -0.249,-0.29854 -0.182,-0.26336 -0.254,-0.31463 -0.247,-0.14173 -0.265,-0.17792 -0.26,-0.41314 -0.265,-0.45535 -0.393,-0.37292 -0.735,-0.53778 -0.675,-0.68152 -0.516,-0.71268 -0.333,-0.37192 -0.142,-0.0945 -0.688,-0.23321 -0.48,-0.32669 -0.37,-0.26939 -0.227,-0.0724 -0.22,-0.009 -0.469,0.0532 -0.39,-0.16888 -0.164,0 -0.261,-0.0492 -0.205,-0.0603 -0.241,0.0724 -0.494,0.12063 -0.203,-0.0262 -0.11,-0.16786 -0.065,-0.12867 -0.172,-0.13369 -0.142,0 -0.079,0.11961 -0.516,0.30257 -0.863,0.16786 -0.205,-0.0121 -0.153,-0.12162 -0.436,-0.51969 -0.125,-0.0844 -0.099,-0.008 -0.202,-0.0613 -0.189,-0.0995 -0.166,-0.2131 -0.167,-0.12162 -0.179,0.41715 -0.314,0.72776 -0.168,0.39001 -0.217,0.5016 -0.068,0.0151 -0.111,-0.0362 -0.431,-0.62523 -0.271,-0.23522 -0.202,0.0222 -0.147,0.11559 -0.093,0.20908 -0.101,0.12866 -0.109,0.0502 -0.235,-0.0252 -0.361,-0.0995 -0.373,0.0211 -0.384,0.14274 -0.051,0.004 -0.09,-0.8323 -0.06,-0.55688 -0.064,-0.59004 -0.06,-0.55789 0.267,-0.34277 0.124,-0.32568 0.318,-1.05947 0.127,-0.2111 0.25,-0.56793 0.035,-0.16485 0.247,-0.71771 -0.023,-0.47747 -0.05,-0.48249 0.135,-0.28648 0.12,-0.22918 -0.008,-0.193 0.054,-0.45133 0.039,-0.11258 0.147,-0.007 0.303,0.0583 0.223,-0.0452 0.257,0 0.198,-0.0141 0.117,-0.13771 0.161,-0.52672 0.104,-0.10555 0.081,-0.0322 0.227,-0.0975 0.194,-0.1538 0.158,-0.10956 0.059,-0.0222 0.167,-0.0141 0.167,-0.0643 0.077,-0.0744 0.211,-0.0593 0.207,0.0332 0.139,-0.0653 0.093,-0.0422 0.105,-0.003 0.097,-0.0613 0.039,-0.0935 0.063,-0.0603 0.161,-0.13671 0.074,-0.0995 0.033,-0.10052 0.033,-0.0794 0.071,-0.1347 0.282,-0.33774 0.243,-0.19602 0.848,1.70078 0.344,1.00319 0.304,1.0444 0.225,1.56508 0.214,0.79612 0.346,0.39202 0.237,0.74083 0.203,0.0282 0.147,0.20305 0.252,0.69459 0.181,0.25834 0.095,-0.22215 -0.011,-0.12766 -0.071,-0.2141 0.065,-0.27543 0.141,-0.16485 0.322,0.22516 0.176,0.16987 0.047,0.34076 0.074,0.18898 0.336,0.40007 0.284,0.1166 0.368,0.0292 0.308,0.0875 0.247,0.14676 0.463,0.4061 1.059,0.35584 0.851,1.08963 0.501,0.7539 1.647,1.14088 0.285,0.54583 0.148,0.53476 0.346,-0.0252 0.594,0.58402 0.173,0.44328 0.486,0.16084 0.083,-0.26235 0.235,0.21511 0.1,0.33673 z m -8.532,-9.76544 0.094,0.28145 -0.274,-0.10756 -0.045,-0.0583 0.12,-0.11158 0.026,-0.0683 0.079,0.0643 z m 0.181,1.12581 0.116,0.1548 0.081,-0.0151 0.064,-0.0512 0.045,-0.10957 0.443,0.21612 -0.025,0.14374 -0.265,0.007 -0.305,-0.0613 -0.283,0.0211 -0.337,-0.0623 -0.078,-0.24427 0.215,0.11761 0.111,-0.0292 0.02,-0.0312 -0.152,-0.16485 -0.214,-0.0331 0.015,-0.12968 0.096,-0.0512 0.059,-0.0633 -0.123,-0.17792 0.241,0.0402 0.152,0.10755 0.1,0.12565 0.024,0.2905 z" 
                fill="rgb(151, 144, 238)" 
                stroke="white" 
                stroke-width=".7px"
                title="Eritrea" 
                id="ER" 
            />
        </svg>