<svg xmlns="http://www.w3.org/2000/svg" viewBox="28.878999999999998 77.34353999999999 20.68500000000003 15.53648999999993" width="20.68500000000003" height="15.53648999999993">
            <path 
                d="m 39.156,78.11672 -0.08,0.0774 -0.083,0.16787 -0.076,0.20706 -0.077,0.13872 0.027,0.0905 0.219,0.18093 0.307,0.25331 0.125,0.0332 0.143,-0.0603 0.225,-0.20103 0.179,-0.21713 0.171,-0.10554 0.201,0.007 0.16,0.15278 0.195,0.33774 0.178,0.30659 0.023,0.0312 0.072,0.0502 0.09,-0.002 0.094,-0.0744 0.069,-0.0452 0.083,-0.14072 0.347,-0.4252 0.261,-0.1166 0.093,-0.0312 0.182,-0.0643 0.303,0.10052 0.439,0.17491 0.533,0.21209 0.187,0.0362 0.11,-0.0362 0.159,-0.28748 0.198,-0.11359 0.283,-0.13269 0.23,-0.0673 0.131,-0.009 0.05,-0.0784 0.025,-0.1176 -0.027,-0.12163 -0.148,-0.21813 -0.004,-0.0643 0.085,-0.0422 0.182,-0.0322 0.237,0.0222 0.267,0.0945 0.217,0.1357 0.124,0.16184 0.135,0.34578 0.104,0.33574 0.268,0.53275 -0.005,0.3307 -0.006,0.38299 0.12,0.0724 0.13,0.0302 0.061,0.0563 0.13,0.29453 0.123,0.0855 0.147,0.0201 0.276,0.18796 0.177,0.0744 0.025,0.0563 -0.006,0.0784 -0.069,0.0985 -0.107,0.0683 -0.159,0.12866 -0.132,0.16787 -0.272,0.40308 -0.008,0.0754 0.058,0.0542 0.112,0.0101 0.12,-0.0282 0.25,-0.14676 0.196,0.0522 0.189,0.11258 0.069,0.11661 0.018,0.15278 -0.043,0.19802 -0.007,0.22014 0.063,0.37594 0.099,0.37595 0.098,0.1367 0.629,0.33071 0.061,0.12364 0.031,0.13972 -0.045,0.18998 -0.065,0.10655 -0.18,0.16586 -0.165,0.12766 -0.052,0.13972 0.026,0.26035 0,0.58804 0.025,0.50963 0.136,0.18395 0.162,0.0945 0.192,-0.0181 0.186,-0.0342 -0.011,0.30457 -0.05,0.34076 0.22,0.10555 0.112,0.10353 0.061,0.0975 -0.349,0.18093 -0.101,0.10555 -0.047,0.28446 0.011,0.26337 0.469,0.18696 0.181,0.22013 0.08,0.22819 0.028,0.43122 -0.042,0.0985 -0.121,0.001 -0.136,-0.13269 -0.101,-0.12866 -0.127,0 -0.237,-0.0292 -0.269,-0.0502 -0.333,0.0141 -0.118,0.0211 -0.076,0.0774 -0.02,0.1357 -0.034,0.43726 0.109,0.0955 0.215,0.10856 0.141,0.0462 0.117,-0.0131 0.09,0.0704 0.019,0.18797 -0.061,0.13771 -0.118,0.12866 -0.149,0.32971 0.025,0.12465 0.007,0.17792 -0.255,0.48248 -0.072,0.0945 -0.337,-0.0955 -0.219,-0.0312 -0.159,0.12163 -0.1,-0.0764 -0.118,-0.11159 -0.041,-0.14675 -0.08,-0.0312 -0.147,-10e-4 -0.136,0.0834 -0.06,0.15179 -0.009,0.1749 -0.021,0.1347 -0.081,0.0814 -0.165,0.2121 -0.077,0.19501 -0.096,0.16988 -0.137,-0.0101 -0.063,-0.0241 -0.044,0.0452 -0.213,0.0945 -0.183,0.0262 -0.048,-0.0975 -0.107,-0.0784 -0.119,-0.1558 -0.135,-0.12465 -0.258,-0.0885 -0.102,0.0403 -0.122,-0.0111 -0.08,-0.0492 0.011,-0.0754 0.135,-0.18997 0.077,-0.1749 0.043,-0.19099 -10e-4,-0.18295 -0.072,-0.25632 -0.116,-0.20406 -0.029,-0.1176 0.014,-0.16888 -0.027,-0.1568 -0.038,-0.0814 -0.018,-0.1548 -0.036,-0.14173 -0.069,-0.0542 -0.038,-0.23722 0.011,-0.24426 -0.1,-0.0915 L 44.15,89.5249 44.057,89.4284 44,89.32285 l -0.057,-0.0312 -0.049,0.007 -0.044,0.0653 -0.052,0.0141 -0.092,-0.22817 -0.038,-0.009 -0.064,0.0522 -0.729,0.25331 -0.032,-0.0985 -0.061,-0.1166 -0.14,-0.0393 -0.241,0.0875 -0.14,0.0101 -0.216,-0.0292 -0.096,0.0412 -0.287,0.33674 -0.172,0.13168 -0.13,-0.0111 -0.136,-0.0302 -0.096,0.0242 -0.071,-0.0383 0.028,-0.0824 0.07,-0.10254 0.137,-0.36688 0.352,-0.36891 0.007,-0.0784 -0.144,-0.21512 -0.151,-0.29452 0,-0.31563 -0.029,-0.22818 -0.311,-0.0643 -0.057,-0.0383 -0.008,-0.0774 0.08,-0.20406 0.095,-0.18997 0.014,-0.0794 -0.022,-0.0714 -0.191,-0.20103 -0.298,-0.37293 -0.276,-0.41313 -0.237,-0.35384 -0.192,-0.16183 -0.183,-0.2342 -0.069,-0.14877 -0.191,-0.0533 -0.556,0.003 -0.669,0.004 -0.564,0.002 -0.033,0.20104 -0.616,0.13368 -0.38,-0.15379 -0.422,0.0905 -0.206,0.10152 -0.064,0.2131 -0.094,0.23422 -0.09,0.0965 -0.038,0.10455 -0.052,0.0955 -0.083,0.11058 -0.092,0.22014 -0.201,0.31462 -0.211,0.20305 -0.358,0.10957 -0.112,0.3307 -0.082,0.12364 -0.138,0.0955 -0.148,0.0633 -0.136,-0.0383 -0.157,-0.0262 -0.164,0.0593 -0.028,-0.0824 0.093,-0.26235 -0.074,-0.13571 -0.281,-0.27241 -0.027,-0.13067 -0.086,-0.16988 -0.371,-0.35081 -0.345,0.0221 0.096,-0.29352 -0.004,-0.39001 -0.118,-0.21311 0.03,-0.21712 -0.064,0.0131 -0.115,0.14977 -0.186,-0.0482 -0.378,-0.2322 -0.189,-0.22416 -0.022,-0.192 -0.043,-0.0744 -0.115,0.0403 -0.236,-0.004 -0.721,-0.34176 -0.512,-0.85844 -0.011,-0.194 0.073,-0.33372 -0.017,-0.0905 -0.235,0.22115 -0.045,-0.14877 -0.18,-0.34479 -0.052,-0.19902 -0.172,-0.0885 -0.139,-0.0151 -0.107,0.0663 -0.141,0.40308 -0.105,-0.002 -0.109,-0.0865 0.023,-0.30156 0.124,-0.14877 0.153,-0.22817 0.464,-0.95293 0.165,-0.21812 0.105,-0.0764 0.219,-0.009 0.428,-0.12765 0.35,-0.21009 0.175,-0.0855 0.401,0.0221 0.475,-0.0361 0.619,-0.20406 0.011,-0.28146 -0.005,-0.35985 -0.021,-0.14274 -0.22,-0.12866 -0.128,-0.11158 -0.11,-0.14173 -0.134,-0.10152 0.005,-0.10555 0.168,-0.0915 0.106,-0.0462 0.252,0.002 0.083,-0.0522 0.063,-0.0915 0.071,-0.2322 0.025,-0.24426 -0.166,-0.3287 0.009,-0.2322 0.909,0.0332 0.092,0.0252 0.406,0.0402 0.252,0 0.155,0.0171 0.065,0.0532 -0.012,0.0975 -0.044,0.12866 0.052,0.13269 0.139,0.0352 0.073,-0.0402 0.071,-0.0643 0.084,-0.0512 0.119,0.0342 0.255,0.19602 0.237,0.0532 0.258,0.10655 0.243,0.0593 0.216,-0.008 0.164,0.10957 0.303,0.0352 0.39,-0.13972 0.308,-0.0613 0.431,-0.0151 0.227,0.0452 0.657,-0.11157 0.328,0.0252 z" 
                fill="rgb(151, 144, 238)" 
                stroke="white" 
                stroke-width=".7px"
                title="Guinea" 
                id="GN" 
            />
        </svg>