<svg xmlns="http://www.w3.org/2000/svg" viewBox="23.236999999999917 33.592190000000045 34.34900000000008 37.77256999999997" width="34.34900000000008" height="37.77256999999997">
            <path 
                d="m 57.586,40.74968 -0.983,0 -1.313,9.9e-4 -0.895,0 -0.919,0 -0.861,0 0.075,0.70464 0.08,0.76797 0.08,0.76595 0.08,0.76496 0.08,0.76294 0.08,0.76194 0.08,0.75992 0.08,0.75792 0.08,0.75691 0.08,0.75489 0.08,0.7539 0.08,0.7539 0.08,0.75188 0.08,0.75088 0.08,0.74988 0.08,0.74786 0.08,0.74686 0.08,0.74585 0.08,0.74384 0.08,0.74284 0.08,0.74183 0.08,0.74083 0.08,0.73881 0.08,0.73782 0.08,0.7368 0.08,0.73581 0.08,0.73479 0.08,0.73379 0.08,0.73279 0.08,0.73178 0.08,0.73078 0.08,0.72976 0.08,0.72876 0.078,0.70565 0.334,0.36991 0.42,0.4644 -0.123,0.6574 -0.146,0.78304 -0.16,0.85341 -0.593,0 -0.573,0 -0.572,0 -0.572,0 -0.572,0 -0.573,0 -0.572,0 -0.572,0 -0.572,0 -0.572,0 -0.573,0 -0.572,0 -0.572,0 -0.572,0 -0.573,0 -0.572,0 -0.572,0 -0.533,0 -0.328,-0.0201 -0.117,-0.0663 -0.042,-0.44128 -0.098,0.0282 -0.116,0.12966 -0.06,0.14073 0.021,0.18395 -0.019,0.15581 -0.368,0.0613 -0.497,0.10454 -0.523,0.0804 -0.528,-0.0292 -0.18,-0.0362 -0.191,-0.0583 -0.42,-0.0633 -0.229,-0.005 -0.262,0.0141 -0.309,0.0351 -0.099,0.0814 -0.233,0.3287 -0.226,0.38096 -0.147,-0.002 -0.166,-0.20908 -0.455,-0.39404 -0.551,-0.51868 -0.251,-0.25733 -0.133,-0.0332 -0.264,0.18495 -0.222,0.17792 -0.236,0.25131 -0.107,0.24124 -0.085,0.28447 -0.038,0.33473 -0.086,0.39001 -0.191,0.31463 -0.226,0.23723 -0.168,0.11157 -0.065,0.0613 -0.494,-0.18496 -0.062,-0.0231 -0.298,-0.20908 -0.144,-0.24829 -0.235,-0.18695 -0.326,-0.12565 -0.212,-0.14275 -0.099,-0.16082 -0.12,-0.10655 -0.127,-0.0553 -0.012,-0.0573 0.03,-0.0794 -0.03,-0.14676 -0.191,-0.3277 -0.178,-0.15078 -0.152,0.0242 -0.086,-0.0403 -0.052,-0.0724 -0.021,-0.10555 -0.104,-0.0915 -0.18,-0.0403 -0.145,-0.24325 -0.109,-0.44731 -0.142,-0.3488 -0.174,-0.2503 -0.125,-0.0935 -0.092,-0.0171 -0.031,-0.0392 -0.025,-0.0724 -0.136,-0.0262 -0.191,0.0754 -0.172,-0.0252 -0.084,-0.12264 -0.117,-0.0111 -0.149,0.10052 -0.165,-0.0292 -0.18,-0.15983 -0.1,-0.15882 -0.019,-0.15782 -0.311,-0.31462 -0.602,-0.47244 -0.656,-0.22115 -0.71,0.0292 -0.398,-0.0221 -0.087,-0.0744 -0.087,0.006 -0.088,0.0865 -0.093,0.0191 -0.099,-0.0482 -0.062,0.0361 -0.024,0.12063 -0.25,0.0623 -0.475,0.001 -0.384,0.0744 -0.292,0.14675 -0.414,0.0633 -0.536,-0.0201 -0.323,-0.0542 -0.11,-0.0865 -0.154,-0.0211 -0.198,0.0462 -0.178,0.23421 -0.157,0.42118 -0.129,0.24024 -0.103,0.0593 -0.11,0.31362 -0.062,0.52472 -0.093,0.23018 -0.001,-1.30876 0.153,-0.48953 0.05,-0.43022 0.328,-0.95192 0.391,-0.78003 0.361,-1.03736 0.136,-1.0072 -0.046,-0.98811 -0.107,-0.88054 -0.183,-0.58302 -0.177,-0.84537 -0.261,-0.4463 -0.478,-0.39002 -0.107,-0.22817 0.111,-0.0855 0.291,-0.0583 0.185,-0.30457 -0.392,0.11761 0.453,-0.93483 0.141,-0.63729 -0.022,-0.41917 0.086,-0.25934 -0.346,-0.5619 -0.269,-0.70866 -0.139,-0.11158 -0.144,-0.0593 -0.013,0.16687 -0.078,0.14877 -0.168,-0.0895 -0.297,-0.51566 -0.415,-0.84034 -0.146,-0.0865 -0.121,0.1156 -0.076,0.11057 -0.14,0.70163 -0.045,-0.27844 0.061,-0.3277 0.103,-0.40409 0.116,-0.56189 0.36,0 0.644,-10e-4 0.644,-0.001 0.644,0 0.644,-10e-4 0.644,-10e-4 0.643,-0.001 0.644,0 0.644,-10e-4 0.644,-9.9e-4 0.644,0 0.644,-10e-4 0.644,-10e-4 0.643,0 0.644,-0.001 0.644,-10e-4 0.643,0 0.425,0 -0.025,-0.40006 -0.02,-0.31764 -0.027,-0.42721 -0.027,-0.42519 -0.026,-0.42621 -0.025,-0.40107 -0.025,-0.40107 -0.023,-0.37192 -0.021,-0.34177 -0.037,-0.19702 -0.137,-0.39101 -0.029,-0.19401 0.037,-0.20506 0.091,-0.193 0.251,-0.35382 0.38,-0.27241 0.438,-0.31462 0.334,-0.24024 0.171,-0.0593 0.523,-0.0834 0.412,-0.18193 0.401,-0.17692 0.168,-0.0985 0.02,-0.33272 0,-0.37192 0,-0.41715 0,-0.41816 0,-0.41816 0,-0.41917 0,-0.41917 0,-0.41916 0,-0.42017 0,-0.42017 0,-0.42017 0,-0.42117 0,-0.42219 0,-0.42218 0,-0.42319 0,-0.42318 0,-0.42419 0,-0.42419 0,-0.37192 0.42,0 0.523,0 0.522,0 0.523,0 0.523,0 0.523,0 0.523,0 0.523,0 0.523,0 0.523,0 0.523,0 0.523,0 0.523,0 0.523,0 0.522,0 0.523,0 0.523,0 0.571,0 0,-0.35584 0,-0.51164 -0.001,-0.70364 0,-0.70766 -10e-4,-0.62322 0,-0.62422 -10e-4,-0.52572 0.528,0.3488 0.528,0.34881 0.528,0.3488 0.528,0.3478 0.528,0.34779 0.528,0.34679 0.527,0.34679 0.528,0.3468 0.528,0.34679 0.528,0.34578 0.528,0.34579 0.528,0.34478 0.528,0.34478 0.528,0.34478 0.528,0.34478 0.527,0.34378 0.442,0.28749 0.679,0.46339 0.633,0.43122 0.625,0.43124 z m -32.417,16.0479 -0.18,0.2895 -0.08,-0.11057 -0.031,-0.18999 0.16,-0.2724 0.076,-0.14073 0.139,-0.0512 -0.084,0.47546 z" 
                fill="rgb(151, 144, 238)" 
                stroke="white" 
                stroke-width=".7px"
                title="Mauritania" 
                id="MR" 
            />
        </svg>