<svg xmlns="http://www.w3.org/2000/svg" viewBox="71.57999999999994 45.296849999999985 44.341000000000065 34.85063000000002" width="44.341000000000065" height="34.85063000000002">
            <path 
                d="m 113.159,46.8894 0.308,1.75707 0.234,1.50277 0.016,0.95493 0.011,0.24928 0.096,0.16787 0.218,0.16888 0.88,1.3751 -0.188,0.23823 0.132,0.42519 0.228,0.18195 0.732,0.81621 0.095,0.16084 -0.04,0.12866 -0.513,0.95794 -0.087,0.23422 -0.102,1.21729 -0.072,0.85743 -0.1,1.17406 -0.118,1.40224 -0.095,1.1791 -0.126,1.55603 -0.119,1.46759 -0.736,0.80415 -1.306,1.42336 -1.063,1.15597 -0.533,0.77299 -1.041,1.50678 -0.462,0.97303 -0.362,0.50763 -0.183,0.21611 0.162,0.71168 0.282,1.24242 -0.504,0.008 -0.289,0.0885 -0.365,0.28247 -0.408,0.11157 -0.496,0.24627 -0.314,0.19702 -0.295,0.15581 -0.406,0.38097 -0.132,0.28949 -0.404,0.0573 -0.565,-0.0472 -0.359,-0.29251 -0.832,-0.30458 -0.54,-0.12363 -0.25,-0.0371 -1.271,-0.0522 -1.356,0.11961 -0.691,0.14174 -0.126,0.0312 -0.392,0.18395 -0.325,0.20405 -0.879,0.93382 -1.164,-0.0312 -0.684,-0.10353 -0.581,-0.14576 -0.827,-0.43624 -1.013,-0.66645 -0.391,-0.0905 -0.351,-0.0522 -0.117,0.009 -1.21,0.66342 -0.233,-0.0141 -0.285,0.0744 -0.188,0.16485 -0.139,0.0824 -0.145,0.0141 -0.191,-0.0362 -0.186,-0.10152 -0.186,-0.18496 -0.499,-0.73882 -0.103,-0.12966 -0.213,-0.21914 -0.358,-0.34176 -0.243,-0.15882 -0.148,-0.0412 -0.176,0.0272 -0.972,-0.29352 -0.971,-0.3106 -0.214,0.0403 -0.152,0.0643 -0.336,0.22918 -0.396,0.0423 -0.503,-0.0181 -0.276,-0.0312 -0.444,0.0764 -0.296,0.0915 -0.388,0.1558 -0.503,0.42319 -0.144,0.0542 -0.122,0.0704 -0.168,1.15797 -0.137,0.3478 -0.255,0.45938 -0.501,0.43826 -0.344,0.26537 -0.008,0.35785 -0.027,0.58502 -0.005,0.40107 0.023,0.26136 -0.058,0.12464 -0.023,0.11358 0.018,0.16988 0.082,0.0814 0.048,0.10656 -0.032,0.0864 -0.162,0.10253 -0.179,-0.26135 -0.23,-0.18395 -0.252,-0.0824 -0.171,-0.13369 -0.088,-0.18495 -0.331,-0.36188 -0.762,-0.7167 -0.078,-0.0171 -0.127,-0.0282 -0.215,0.0854 -0.132,0.11761 -0.093,0.0462 -0.14,0.007 -0.362,0.0905 -0.29,0.11661 -0.008,0.0965 0.139,0.5418 -0.066,0.29352 -0.129,-0.13972 -0.418,-0.54683 -0.289,-0.40509 -0.051,-0.0905 -0.041,-0.13972 0.028,-0.0603 0.115,-0.0422 0.265,-0.0532 0.049,-0.0422 0.013,-0.11158 -0.041,-0.20808 -0.145,-0.28145 -0.155,-0.18696 -0.086,-0.0362 -0.159,-0.006 -0.172,0.0252 -0.323,0.22817 -0.143,0.0423 -0.334,-0.0191 -0.297,-0.0442 -0.181,-0.11761 -0.538,-0.45435 -0.595,-0.47947 -0.25,-0.0683 -0.058,-0.0492 -0.039,-0.36891 0.01,-0.4443 0.033,-0.1166 0.248,0.0693 0.264,0.0322 0.085,-0.0804 -0.212,-0.15781 -0.303,-0.15983 -0.113,-0.24225 -0.087,-0.0844 -0.136,-0.0865 -0.157,-0.0442 -0.157,-0.0683 -0.108,-0.0704 -0.177,-0.0322 -0.186,-0.0512 -0.269,-0.39303 -0.262,-0.38298 -0.154,-0.30156 -0.055,-0.18093 0.078,-0.30859 -0.078,-0.12164 -0.292,-0.31361 -0.244,-0.29151 0.06,-0.45133 0.05,-0.37695 0.002,-0.23823 0.039,-0.13469 0.031,-0.15179 0.162,-0.0482 0.412,0.004 0.801,0.0704 0.642,-0.0794 0.036,-0.0141 0.453,-0.40409 0.502,-0.42418 0.755,-0.0412 0.814,-0.0442 0.642,-0.0221 0.934,-0.0322 0.754,-0.0282 0.874,-0.0322 0.026,-0.19501 0.054,-0.0482 0.086,-0.007 0.642,0.10454 0.604,0.10152 0.046,-0.3689 0.53,-0.46138 0.301,-0.0945 0.074,-0.0804 0.095,-0.15581 0.059,-0.24124 0.026,-0.17088 0.112,-0.14274 0.082,-0.26236 0.108,-0.45837 0.299,-0.48249 0.171,-0.65538 0.025,-0.63327 0.033,-0.48149 0.089,-0.0985 L 83.002,63.9482 83,63.08475 l -0.003,-0.73078 -0.003,-0.9107 -0.002,-0.80014 -0.003,-0.86948 -0.002,-0.78104 -0.002,-0.51868 0.613,-0.12365 0.633,-0.12866 0.926,-0.18797 1.003,-0.20304 1.093,-0.22216 0.248,-0.13368 0.825,-0.75289 0.373,-0.34076 0.74,-0.67549 0.571,-0.52371 0.726,-0.66543 0.769,-0.67047 0.613,-0.53677 0.964,-0.60815 1.453,-0.91773 1.453,-0.92076 1.454,-0.92277 1.453,-0.92478 1.453,-0.92578 1.453,-0.9288 1.454,-0.93081 1.453,-0.93282 1.462,0.35584 1.389,0.33674 1.397,0.33875 0.329,0.18596 0.741,0.66243 0.949,0.84636 0.041,0.0121 0.043,0.004 0.912,-0.49857 1.188,-0.65036 z" 
                fill="rgb(151, 144, 238)" 
                stroke="white" 
                stroke-width=".7px"
                title="Niger" 
                id="NE" 
            />
        </svg>