<svg xmlns="http://www.w3.org/2000/svg" viewBox="216.99600000000012 36.51298999999999 22.061000000000178 29.310220000000015" width="22.061000000000178" height="29.310220000000015">
            <path 
                d="m 229.12,38.71617 -0.055,0.0714 -0.081,0.007 -0.186,-0.0613 -0.109,-0.14174 0.021,-0.17288 0.006,-0.31966 0.053,-0.30156 -0.015,-0.31965 -0.144,-0.0643 -0.101,0.0181 0.235,-0.45133 0.093,-0.0693 0.087,0.0292 0.217,-0.0482 0.114,-0.24527 0.091,-0.13369 0.097,0.0161 0.047,0.0754 -0.034,0.37293 -0.004,0.3106 -0.12,0.9489 -0.124,0.16385 -0.063,0.13269 -0.025,0.18294 z m -0.046,1.28967 -0.116,0.0834 -0.083,-0.0141 0.017,-0.16586 0.05,-0.11559 0.12,0.009 0.029,0.0693 -0.017,0.1337 z m -8.969,25.81737 -0.17,-0.386 -0.17,-0.38599 -0.171,-0.38599 -0.17,-0.387 -0.119,-0.2714 -0.2,-0.0955 -0.122,-0.28648 -0.124,-0.29352 -0.124,-0.29351 -0.124,-0.29352 -0.124,-0.29351 -0.125,-0.29452 -0.124,-0.29453 -0.124,-0.29452 -0.124,-0.29452 -0.125,-0.29452 -0.124,-0.29452 -0.124,-0.29553 -0.124,-0.29553 -0.124,-0.29552 -0.125,-0.29553 -0.124,-0.29553 -0.124,-0.29552 0.396,-0.13973 0.482,-0.16987 0.483,-0.16988 0.482,-0.16988 0.483,-0.16987 0.482,-0.16988 0.482,-0.17089 0.483,-0.16987 0.482,-0.16988 0.483,-0.17088 0.482,-0.17089 0.482,-0.16987 0.483,-0.17089 0.482,-0.17088 0.482,-0.17088 0.483,-0.17089 0.482,-0.17088 0.299,-0.10554 0.124,-0.39806 0.103,-0.33071 0.103,-0.3307 0.103,-0.33172 0.104,-0.33172 0.103,-0.33171 0.103,-0.33171 0.103,-0.33272 0.104,-0.33272 0.103,-0.33272 0.103,-0.33272 0.103,-0.33372 0.103,-0.33373 0.104,-0.33372 0.103,-0.33373 0.103,-0.33472 0.103,-0.33473 0.095,-0.30659 -0.178,-0.29552 -0.238,-0.39806 -0.25,-0.41615 -0.234,-0.39203 -0.171,-0.28547 -0.206,-0.34478 0.022,-0.44329 -0.005,-0.22215 0.021,-0.34076 0.197,-0.47344 0.233,-0.60312 0.17,-0.40107 0.147,-0.34981 0.118,-0.28045 0.065,-0.2895 -0.035,-0.20404 -0.077,-0.0744 -0.065,-0.0965 0.223,-0.1548 0.418,-0.10052 0.231,0.0211 0.322,-0.0744 0.256,-0.0673 0.02,-0.0905 -0.072,-0.15279 -0.106,-0.22315 -0.361,-0.0231 -0.109,-0.0623 0.126,-0.32971 -0.005,-0.10453 -0.048,-0.12364 -0.053,-0.20708 0.026,-0.26738 0.074,-0.18194 10e-4,-0.14676 -0.035,-0.30156 0.011,-0.26838 0.076,-0.13369 0.135,-0.12465 0.127,-0.0633 0.132,0.004 0.105,0.0532 0.045,0.14073 -0.028,0.0975 -0.075,0.0131 -0.026,0.0412 0.107,0.18798 0.155,0.18394 0.12,-0.0312 0.134,-0.14474 0.142,-0.1166 0.177,-0.10354 0.129,-0.20004 0.11,-0.12966 0.098,-0.0181 0.286,0.8122 0.424,0.75892 0.374,0.41816 0.389,0.56693 0.591,0.52069 0.271,0.17792 1.099,0.36489 0.601,0.1367 0.828,0.13067 0.573,0.28347 0.192,0.0181 0.3,-0.0844 0.219,0.007 0.548,0.386 0.161,0.36589 0.228,0.19299 0.201,0.30357 0.131,0.31764 0.463,0.48351 0.326,0.5438 0.332,0.40208 0.297,0.25029 0.45,0.0985 0.358,0.11258 0.04,0.26839 -0.037,0.34981 -0.068,0.25833 -0.334,0.5026 -0.08,0.3096 -0.378,0.51064 -0.41,0.85541 -0.188,0.19099 -0.661,0.44028 -0.486,0.52973 -0.576,0.91875 -0.438,0.90869 -0.168,0.2905 -0.353,0.0603 -0.231,-0.0252 -0.16,-0.0854 0.063,-0.24828 0.038,-0.27643 -0.213,0.0292 -0.187,0.0573 -0.437,0.6785 -0.24,0.29754 -0.051,0.37695 -0.116,0.48651 -0.171,0.44732 -0.076,0.37593 0.003,0.21311 0.128,0.51968 0.009,0.53175 0.074,0.31865 0.06,0.38196 -0.205,0.11761 -0.176,0.0583 -0.696,0.0422 -0.705,0.12264 -0.616,0.22114 -0.368,0.22014 -0.479,0.49154 -0.293,1.24543 -0.469,0.52471 -0.318,0.10957 -0.765,0.0462 -1.077,0.14474 -0.378,0.12565 -0.628,0.75792 -0.049,0.23823 0.121,0.17189 0.04,0.18998 -0.057,0.17792 -0.285,0.47948 -0.308,0.34779 -0.82,0.21813 -0.301,-0.12968 -0.275,-0.0653 -0.532,-0.007 -0.866,0.0824 -0.319,0.25733 -0.503,0.18194 -0.464,0.28045 -0.876,0.10655 -0.601,0.22617 z m 15.818,-10.55453 -0.177,0.0453 -0.051,-0.0211 0.001,-0.37795 0.412,-0.47645 0.271,-0.55085 0.187,0.49254 -0.325,0.27543 -0.176,0.47043 -0.142,0.14273 z" 
                fill="rgb(151, 144, 238)" 
                stroke="white" 
                stroke-width=".7px"
                title="Oman" 
                id="OM" 
            />
        </svg>