<svg xmlns="http://www.w3.org/2000/svg" viewBox="168.26800000000003 17.947810000000054 59.00399999999999 48.69339999999999" width="59.00399999999999" height="48.69339999999999">
            <path 
                d="m 201.711,27.82491 0.542,0.0693 0.723,0.0925 0.439,0.0633 0.826,0.11761 0.247,0.48651 0.09,0.34076 0.083,0.33171 0.248,0.30257 0.563,-0.007 0.499,-0.006 0.615,-0.0101 0.488,-0.007 0.157,0.30055 0.069,0.29955 0.29,0.70866 0.414,0.55185 0.099,0.20104 0.066,0.30256 -0.072,0.11259 -0.028,0.12966 0.307,0.30156 0.506,0.25532 0.198,0.0643 0.225,0.11257 -0.175,0.17391 0.299,0.40207 0.347,0.40911 0.372,0.0925 0.502,0.61719 0.757,0.39906 0.459,0.5227 -0.043,0.0101 -0.135,-0.0532 -0.169,-0.0714 -0.051,0.0643 0.009,0.21914 0.045,0.25732 0.234,0.22216 0.208,0.15982 0.081,0.30256 -0.164,0.65036 -0.057,0 -0.11,-0.0563 -0.117,-0.0131 -0.063,0.0371 0.139,0.46742 0.139,0.35785 0.166,0.28346 0.139,0.41414 0.119,0.17692 0.487,0.43927 0.15,0.36689 0.139,0.68252 0.306,0.37997 0.165,0.29251 0.221,0.24828 0.144,0.33876 0.204,0.26034 0.106,0.0653 0.159,0.0272 0.198,10e-4 0.237,-0.0673 0.253,-0.0633 0.197,0.13168 0.204,-0.0201 0.021,0.12264 -0.137,0.16686 -0.168,0.42017 0.239,0.0663 0.229,0.0332 0.162,0.0673 0.095,0 0,0.0875 0.011,0.39806 0.057,0.15178 0.104,0.1347 0.154,0.20104 0.154,0.20104 0.154,0.20104 0.154,0.20104 0.154,0.20104 0.155,0.20103 0.154,0.20004 0.154,0.20103 0.154,0.20004 0.154,0.20003 0.154,0.20003 0.154,0.20004 0.154,0.20003 0.154,0.20003 0.155,0.20004 0.154,0.19902 0.127,0.16486 0.236,0.0312 0.075,0.0101 0.213,0.0282 0.33,0.0433 0.428,0.0573 0.507,0.0673 0.565,0.0744 0.605,0.0804 0.624,0.0824 0.625,0.0824 0.604,0.0804 0.565,0.0754 0.507,0.0663 0.429,0.0573 0.33,0.0432 0.213,0.0282 0.075,0.0101 0.223,0.0292 0.042,-0.007 0.187,-0.24427 0.206,0.34478 0.171,0.28548 0.234,0.39202 0.25,0.41615 0.238,0.39806 0.178,0.29553 -0.095,0.30658 -0.103,0.33473 -0.103,0.33473 -0.103,0.33372 -0.104,0.33373 -0.103,0.33371 -0.103,0.33373 -0.103,0.33272 -0.103,0.33272 -0.104,0.33272 -0.103,0.33272 -0.103,0.33172 -0.103,0.33171 -0.104,0.33171 -0.103,0.33171 -0.103,0.33071 -0.103,0.33071 -0.124,0.39805 -0.299,0.10556 -0.482,0.17088 -0.483,0.17088 -0.482,0.17088 -0.482,0.17088 -0.483,0.17088 -0.482,0.16988 -0.482,0.17088 -0.483,0.17089 -0.482,0.16987 -0.483,0.16988 -0.482,0.17088 -0.482,0.16988 -0.483,0.16988 -0.482,0.16988 -0.483,0.16988 -0.482,0.16988 -0.396,0.13972 -0.659,0.0935 -0.64,0.0905 -0.72,0.10253 -0.865,0.12364 -0.679,0.0965 -0.99,0.14073 -0.889,0.12565 -0.833,0.11861 -0.833,0.11862 -0.709,0.10051 -0.423,0.11661 -0.497,0.25632 -0.763,0.39303 -0.778,0.39907 -0.403,0.20707 -0.422,0.53073 -0.214,0.2684 -0.386,0.4855 -0.292,0.36589 -0.349,0.43726 -0.152,0.388 -0.235,0.5991 -0.203,0.15078 -0.332,0.195 -0.302,0.13872 -0.471,-0.0201 -0.269,-0.36791 -0.285,-0.39101 -0.143,-0.15681 -0.128,-0.008 -0.473,0.0492 -0.57,0.0603 -0.672,-0.0633 -0.775,-0.0744 -0.727,-0.0693 -0.362,-0.0522 -0.477,-0.25331 -0.123,-0.0502 -0.125,-0.0121 -0.566,-0.006 -0.561,-0.006 -0.562,0.0804 -0.538,-0.0292 -0.558,0.0462 -0.196,0.0965 -0.218,-0.005 -0.136,0.0855 -0.12,0.0403 -0.142,-0.0734 -0.174,0.0161 -0.256,-0.0633 -0.167,-0.16586 -0.158,-0.14575 -0.163,-0.0804 -0.182,-0.0502 -0.158,-10e-4 -0.202,0.0885 -0.123,0.0855 -0.312,0.28648 -0.013,0.10254 0.142,0.17088 -0.043,0.0804 -0.184,0.10052 -0.057,0.2704 -0.027,0.14776 -0.027,0.35382 0.082,0.27844 0.109,0.10253 0.005,0.11962 -0.06,0.23923 -0.169,0.0734 -0.124,0.22717 -0.076,0.10554 -0.132,0.12062 -0.525,0.40108 -0.026,-0.2332 -0.167,-0.3458 -0.012,-0.24425 -0.078,-0.24527 -0.144,-0.18898 -0.266,-0.19701 -0.024,-0.26739 -0.194,-0.26436 -0.257,-0.2131 -0.143,-0.39403 -0.108,-0.52372 -0.678,-0.68956 -0.848,-0.63728 -0.258,-0.35886 -0.422,-0.73278 -0.213,-0.58 -0.567,-0.66846 -0.024,-0.25733 -0.084,-0.31361 -0.131,-0.34981 -0.079,-0.27543 -0.569,-1.21226 -0.184,-0.193 -0.158,-0.2714 -0.041,-0.21008 -0.05,-0.11459 -0.402,-0.19903 -0.375,-0.51065 -1.127,-0.8142 -0.552,-0.0814 -0.437,-0.2915 -0.322,-0.38097 -0.343,-0.6574 -0.604,-0.71167 -0.512,-1.01123 0.161,-0.36891 -0.01,-0.25933 -0.158,-0.43727 -0.171,-0.33774 -0.118,-0.31965 0.093,-0.45938 0.036,-0.51465 0.101,-0.27342 0.073,-0.30055 -0.095,-0.60512 -0.17,-0.32468 0.017,-0.21612 -0.193,-0.10554 -0.156,-0.23522 0.163,0 -0.296,-0.32669 -0.109,-0.18193 -0.112,-0.4443 -0.143,-0.33976 -0.459,-0.77198 -0.22,-0.47144 -0.492,-0.61016 -0.534,-0.45132 -0.339,-0.20506 -0.164,-0.18697 -0.277,-0.006 -0.302,-0.26739 -0.211,-0.0101 -0.267,-0.0433 -0.314,-0.51566 -0.259,-0.4835 -0.442,-0.63025 0.111,-0.16486 0.129,-0.26838 -0.064,-0.35182 -0.07,-0.23924 -0.195,-0.43625 -0.641,-1.08762 -0.17,-0.15982 -0.273,-0.18396 -0.168,-0.47244 -0.077,-0.42419 -0.439,-0.20606 -0.755,-1.53392 -0.438,-0.53779 -0.173,-0.36186 -0.506,-0.59608 -0.249,-0.59407 -0.51,-0.54883 -0.442,-0.95393 -0.683,-0.95595 -0.287,-0.16585 -0.704,-0.0683 -0.296,-0.0703 -0.272,0.21007 -0.024,-0.26637 0.188,-0.3689 0.271,-0.77601 0.054,-0.68152 0.426,-2.03251 0.598,0.10455 0.492,0.0865 0.719,0.12664 0.744,0.13068 0.435,0.0764 0.149,-0.0331 0.602,-0.49858 0.542,-0.45033 0.325,-0.55184 0.314,-0.53577 0.144,-0.11058 0.482,-0.10052 0.765,-0.15982 0.757,-0.15782 0.061,-0.0542 0.176,-0.43122 0.224,-0.54783 0.046,-0.0573 0.055,-0.0563 0.542,-0.30758 0.329,-0.18697 -0.469,-0.55185 -0.442,-0.52169 -0.496,-0.58503 -0.42,-0.45636 -0.629,-0.68352 -0.412,-0.44833 0.721,-0.21309 0.78,-0.23019 0.787,-0.2322 0.947,-0.27944 0.741,-0.21914 1.106,-0.32769 0.541,-0.15983 0.098,-0.0423 0.416,-0.38799 0.626,0.10856 0.941,0.16384 0.909,0.15681 0.958,0.18596 0.307,0.15078 0.925,0.55487 0.601,0.35986 0.702,0.41916 0.877,0.52371 0.602,0.35885 0.771,0.45937 0.601,0.5237 0.761,0.66243 0.836,0.72575 0.688,0.5629 0.948,0.774 0.934,0.76094 0.915,0.74283 0.732,0.59408 0.927,0.74987 0.072,0.0282 0.937,0.0844 1.259,0.11459 1.265,0.1146 1.142,0.10353 0.498,-0.10554 z m -27.886,10.69725 -0.026,0.0422 -0.118,-0.10957 0.007,-0.24024 0.102,-0.1367 -0.008,0.18696 0.044,0.18897 -0.001,0.0683 z m 0.86,1.02531 -0.074,0 -0.197,-0.21009 -0.115,-0.1548 -0.118,-0.10454 -0.538,-0.21008 -0.073,-0.13571 0.082,-0.1357 0.058,0.13469 0.098,0.0794 0.445,0.18998 0.496,0.41414 0.085,0.0342 -0.149,0.0985 z m 14.274,26.07973 0.217,0.0171 -0.09,-0.0935 -0.019,-0.0452 0.094,-0.13469 0.31,0.27744 -0.009,0.32869 -0.026,0.0754 -0.084,-0.0704 -0.055,-0.0694 -0.017,-0.0744 -0.086,-0.0804 -0.302,0.0522 -0.188,-0.0895 -0.269,-0.27643 -0.072,-0.20003 0.112,-0.0392 0.119,-0.0965 0.075,-0.15782 -0.069,-0.16385 0.16,0.0262 0.086,0.16787 0.017,0.38097 0.024,0.0804 -0.044,0.0875 0.116,0.0975 z" 
                fill="rgb(151, 144, 238)" 
                stroke="white" 
                stroke-width=".7px"
                title="Saudi Arabia" 
                id="SA" 
            />
        </svg>