<svg xmlns="http://www.w3.org/2000/svg" viewBox="132.37299999999993 49.300249999999956 47.10499999999993 39.47720000000002" width="47.10499999999993" height="39.47720000000002">
            <path 
                d="m 159.431,49.65669 -0.09,0.26939 0.525,0 0.921,0 0.921,0 0.921,0 0.921,-9.9e-4 0.92,0 0.921,0 0.921,0 0.921,0 0.921,0 0.92,0 0.922,-10e-4 0.92,0 0.921,0 0.921,0 0.921,0 0.921,-10e-4 0.031,0.68956 0.124,0.54984 0.434,0.78505 0.366,0.42219 0.132,0.2322 0.012,0.10755 -0.017,0.10052 -0.111,-0.1156 -0.188,-0.0784 -0.026,0.3669 0.043,0.26034 0.045,0.48953 0.154,0.52471 -0.111,0.4845 0.015,0.82024 0.194,0.98107 -0.039,0.62523 0.317,1.45552 0.308,0.80616 0.169,0.19802 0.191,0.10656 0.366,0.0683 0.539,0.40911 0.427,0.43223 0.152,0.22617 0.206,0.24728 0.142,-0.0442 0.087,-0.0663 0.139,0.20003 0.677,0.43123 0.1,0.20003 -0.244,0.19602 -0.281,0.33774 -0.071,0.1347 -0.033,0.0794 -0.033,0.10052 -0.074,0.0995 -0.161,0.13671 -0.064,0.0593 -0.038,0.0945 -0.097,0.0613 -0.106,0.003 -0.092,0.0422 -0.139,0.0643 -0.207,-0.0332 -0.211,0.0593 -0.077,0.0744 -0.168,0.0653 -0.167,0.0141 -0.059,0.0221 -0.158,0.10957 -0.194,0.15379 -0.227,0.0975 -0.08,0.0322 -0.104,0.10554 -0.161,0.52672 -0.118,0.13772 -0.198,0.0141 -0.257,0 -0.223,0.0452 -0.303,-0.0583 -0.147,0.007 -0.039,0.11258 -0.054,0.45133 0.007,0.19401 -0.12,0.22817 -0.134,0.28648 0.049,0.4825 0.023,0.47746 -0.246,0.71771 -0.035,0.16485 -0.249,0.56794 -0.128,0.2121 -0.318,1.05947 -0.124,0.32568 -0.266,0.34276 0.06,0.55789 0.064,0.59005 0.06,0.55687 0.09,0.8313 -0.226,0.77601 0.009,0.42319 -0.158,0.62321 -0.125,0.28849 -0.111,0.16988 -0.093,0.17691 -0.172,0.38801 -0.146,0.51164 -0.065,0.52371 -0.005,0.30457 -0.029,0.13872 -0.049,0.0885 -0.337,0.0573 -0.469,0.0623 -0.252,0.0683 -0.169,0.10655 -0.208,0.24828 -0.412,0.67951 -0.215,0.41615 -0.338,0.56894 -0.393,0.40208 -0.083,0.19601 -0.065,0.36388 -0.145,0.57597 -0.133,0.40811 0.024,0.32971 -0.124,0.56994 0.018,0.27743 -0.138,0.1548 -0.185,0.14676 -0.126,0.0372 -0.27,-0.16788 -0.206,-0.16987 -0.084,-0.0452 -0.179,0.10654 -0.215,0.15782 -0.246,0.3679 -0.191,0.37192 0.11,0.78909 -0.01,0.17188 -0.056,0.18797 -0.298,0.58703 -0.074,0.18596 -0.108,0.35182 -0.115,0.61417 -0.004,0.14776 0,0 -0.003,0 -0.522,-0.002 -0.009,-0.003 -0.008,-0.009 -0.008,-0.0131 -0.009,-0.0191 -0.02,-0.0804 -0.011,-0.12566 0.018,-0.21712 0.058,-0.25834 0.181,-0.36287 0.009,-0.0302 0.002,-0.0171 0,-0.0191 -0.017,-0.0653 -0.021,-0.0563 -0.01,-0.0844 0.031,-0.18897 0.003,-0.0583 -0.004,-0.0744 -0.014,-0.0482 -0.126,-0.31462 -0.042,-0.0502 -1.215,-1.00218 -0.222,-0.2724 -0.024,-0.0181 -0.03,-0.0141 -0.617,-0.22918 -0.03,-0.0231 0.004,-0.0332 0.019,-0.0433 0.074,-0.13267 0.01,-0.0342 0.011,-0.0532 -0.278,-2.11894 0.001,-0.0412 0.012,-0.0282 0.01,-0.0171 0.037,-0.0452 0.032,-0.0462 0.037,-0.0824 0.009,-0.0302 0.039,-0.37996 -0.003,-0.33171 0.162,-0.55386 0.018,-0.23622 -1.34,-0.0171 -0.008,0.0121 -0.001,0.0151 0.003,0.0161 0.002,0.0181 -10e-4,0.0372 -0.01,0.0683 -0.003,0.0371 0.001,0.0361 0.021,0.13369 0.035,0.0995 0.005,0.0332 0.002,0.0362 -0.004,0.0693 -1.865,0.008 0.738,0.83231 0.009,0.0171 0.013,0.0452 0.005,0.0342 0.014,0.29251 -0.039,0.46239 0.008,0.29753 0.043,0.193 0.2,0.37996 -0.013,0.0714 -0.046,0.0895 -1.323,1.12783 -0.037,0.0532 -0.184,0.47043 -0.175,0.27241 -0.077,0.0784 -0.307,0.38298 -1.207,1.2012 -0.198,0.0804 -0.601,0.0332 -0.318,0.009 -0.036,0.009 -0.054,0.0201 -0.033,0.0312 -0.039,0.0231 -0.039,-0.0121 -0.045,-0.0332 -0.742,-0.67248 -1.324,-0.84938 -0.127,0.0774 -0.749,0.3659 -0.154,0.0945 -0.086,0.0673 -0.004,0.40911 -0.131,0.20707 -0.236,0.22718 -0.648,0.14375 -0.337,0.12263 -0.345,0.18395 -0.056,0.0462 0,-0.001 -0.132,0.12766 -0.261,0.25632 -0.028,0.19903 0.042,0.17893 -2.233,-0.007 -0.147,-0.14274 -0.31,-0.62724 -0.014,-0.006 -0.228,0.0393 -2.036,-0.0734 -0.291,0.0653 -0.582,0.25934 -0.293,0.0433 -0.302,-0.11862 -1.071,-1.25045 -0.231,-0.14978 -0.085,-0.0804 -0.158,-0.21912 -0.229,-0.13069 -0.077,-0.0945 -0.025,-0.13369 0.007,-0.27543 -0.075,-0.17188 -0.169,-0.0392 -1.44,0.29049 -0.206,-0.0332 -0.302,0.0522 -0.104,0.0512 -0.122,0.16485 -0.025,0.17088 0.004,0.17289 -0.037,0.16988 -0.11,0.18998 -0.41,0.42419 -0.091,0.18496 0.019,0.46641 -0.027,0.23623 -0.062,0.10955 -0.178,0.17893 -0.065,0.10354 -0.03,0.14575 -0.01,0.30759 -0.032,0.14374 -0.224,0.36187 -0.053,0.12766 -0.013,0.26035 -0.036,0.0794 -0.651,0.20606 -0.243,0.13168 -0.149,0.20305 -0.036,0.0865 0,0 -0.279,-0.0724 -0.354,-0.0522 -0.681,-0.0643 -0.269,-0.0945 -0.129,-0.14173 0.041,-0.36187 -0.068,-0.0774 -0.108,-0.0643 -0.075,-0.15681 0.016,-0.18798 0.359,-0.41816 0.074,-0.22315 0.057,-0.77701 0.037,-0.27341 -0.027,-0.32066 -0.285,-0.59005 -0.248,-0.41012 -0.405,-0.60814 -0.158,-0.19903 -0.818,-0.83833 -0.095,-0.12464 -0.198,-0.35483 0.098,-0.31262 0.12,-0.4644 0.014,-0.21511 -0.056,-0.22214 -0.207,-0.16687 -0.184,-0.0201 -0.082,-0.0845 -0.16,-0.12264 -0.158,-0.0955 -0.14,-0.18296 -0.097,-0.25632 0.069,-0.91774 -0.047,-0.12263 -0.209,-0.0342 -0.049,-0.0663 0.008,-0.1759 -0.112,-0.52372 -0.126,-0.43424 0.067,-0.23924 -0.174,-0.32769 -0.334,-0.14072 -0.315,0.0432 -0.338,0.0653 -0.204,-0.0181 -0.139,-0.0613 -0.099,-0.11962 -0.05,-0.14274 0.046,-0.2131 0.186,-0.39202 0.231,-0.32167 0.471,-0.29451 0.125,-0.15581 0.072,-0.1739 0.012,-0.19903 -0.032,-0.21008 -0.053,-0.19199 -0.139,-0.25432 -0.127,-0.29955 -0.003,-0.20104 0.061,-0.14474 0.126,-0.1749 0.25,-0.19703 0.06,-0.0392 0.157,-0.10554 0.137,-0.0774 0.342,-0.20708 0.08,-0.0995 -0.029,-0.11961 -0.084,-0.0975 -0.138,-0.1367 -0.028,-0.16787 -0.04,-0.28648 -0.071,-0.18295 -0.051,-0.13368 0.097,-0.10053 0.145,-0.13971 0.181,-0.0855 0.279,-0.0724 0.11,-0.10052 0.032,-0.19099 -0.009,-0.18295 0.101,-0.13569 0.135,-0.29152 0.109,-0.13267 0.183,-0.15179 0.183,-0.18998 0.081,-0.22115 0.023,-0.21209 -0.1,-0.64534 0.211,-0.26939 0.27,-0.22315 0.388,0.0151 0.602,-0.0492 0.41,-0.0925 0.292,0.003 0.667,0.12061 0.055,-0.0292 0.015,-0.0242 0.036,-0.17088 -0.001,-0.43023 -0.001,-1.30272 -0.001,-1.30475 -0.001,-1.30775 -10e-4,-1.31178 -0.001,-1.3148 -0.001,-1.3178 -0.001,-1.32183 -0.001,-1.32485 0,-0.37192 0,-0.37091 0,-0.37193 0,-0.37291 0.692,9.9e-4 0.693,0 0.692,0 0.692,10e-4 0.009,-0.006 0.009,-0.005 0.008,-0.006 0.009,-0.004 0.001,-1.4897 0,-1.49472 0.001,-1.49975 0,-1.50477 1.072,0 1.073,10e-4 1.072,0 1.072,0 1.072,0 1.072,0 1.073,0 1.072,0.001 1.072,0 1.072,0 1.072,0 1.072,0 1.072,10e-4 1.072,0 1.073,0 1.072,0 0.327,0 0.144,-0.0222 0.275,-0.56391 0.117,-0.0423 0.179,0.0332 0.062,0.13269 z" 
                fill="rgb(151, 144, 238)" 
                stroke="white" 
                stroke-width=".7px"
                title="Sudan" 
                id="SD" 
            />
        </svg>