<svg xmlns="http://www.w3.org/2000/svg" viewBox="141.91100000000003 157.55213999999992 21.843000000000103 20.06260000000009" width="21.843000000000103" height="20.06260000000009">
            <path 
                d="m 158.929,177.61474 -0.254,-0.1729 -0.347,-0.11257 -0.442,-0.0522 -0.573,0.0211 -0.706,0.0955 -0.757,-0.1156 -0.809,-0.32368 -0.671,-0.11459 -0.802,0.14073 -0.036,0.003 -0.138,-0.10956 -0.22,-0.23623 -0.365,-0.0422 -0.099,-0.0542 -0.082,-0.0885 -0.054,-0.11258 -0.021,-0.12565 0.06,-0.38801 -0.033,-0.0432 -0.097,-0.0472 -0.201,-0.0462 -0.481,-0.17592 -0.606,-0.17088 -0.983,-0.18696 -0.382,-0.0482 -0.089,-0.0573 -0.11,-0.14273 -0.189,-0.44531 -0.177,-0.29351 -0.423,-0.45334 -0.067,-0.13972 0.021,-0.35987 0.031,-0.28949 0.045,-0.24527 -0.02,-0.23019 -0.006,-0.28547 0.013,-0.19099 -0.057,-0.0824 -0.153,-0.0583 -0.437,-0.0262 -0.528,0.0111 -0.017,-0.2895 -0.051,-0.44831 -0.098,-0.25734 -0.122,-0.13369 -0.243,-0.13972 -0.491,-0.19098 -0.669,-0.2905 -0.572,-0.43023 -0.655,-0.53376 -0.205,-0.0925 -0.242,-0.50059 -0.368,-0.85643 0.024,-0.28446 -0.056,-0.13973 -0.358,-0.41916 -0.079,-0.21813 -0.063,-0.22013 -0.569,-0.61317 -0.194,-0.26738 -0.148,-0.34378 -0.147,-0.27442 -0.124,-0.11056 -0.162,-0.18597 -0.112,-0.2131 -0.052,-0.15882 0.043,-0.2121 0.055,-0.14575 0.541,0.15078 0.296,0.0131 0.232,-0.0744 0.286,0.10052 0.342,0.27543 0.372,0.0532 0.403,-0.17088 0.544,0.0522 0.685,0.27442 0.568,0.0552 0.676,-0.24527 0.603,-0.67749 0.568,-0.63629 0.558,-0.73379 0.336,-0.59207 0.493,-0.48147 0.65,-0.37093 0.662,-0.31261 1.013,-0.38298 0,0.001 0.202,-0.31663 0.068,-0.34378 0,-0.47847 0.052,-0.3096 0.106,-0.14172 0.168,-0.10957 0.217,-0.14274 0.667,-0.36288 0.559,-0.2322 0.68,-0.15278 0.745,-0.001 0.718,-0.002 0.408,-0.001 0.006,0.45938 0.031,0.51767 0.08,0.0492 0.54,0.0111 0.866,0.0371 0.835,0.0342 0.533,0.37594 0.179,0.0804 0.554,0.10052 0.708,0.62623 0.852,0.0583 0.586,0.196 0.516,0.21512 0.297,0.25833 0.192,0.0583 0.26,0.0191 0.126,0.0242 -0.027,0.18596 -0.174,0.31563 0.023,0.45234 0.239,0.62724 0.032,0.54682 -0.073,0.96398 0.002,0.93584 0.025,0.33473 0.039,0.22114 0.051,0.12162 -0.01,0.13872 -0.142,0.39404 -0.114,0.41414 -0.004,0.16586 -0.044,0.1176 -0.085,0.10354 -0.372,0.19199 -0.063,0.11861 0.001,0.21511 0.047,0.18094 0.14,0.0663 0.168,0.10253 0.066,0.1347 0.001,0.14273 -0.054,0.26437 -0.15,0.43726 0.15,0.5046 0.167,0.3277 0.231,0.37795 0.096,0.23421 -0.005,0.16786 -0.035,0.16385 -0.345,0.69359 -0.249,0.43223 -0.304,0.46239 -0.402,0.2905 -0.104,0.13973 -0.041,0.15881 0.014,0.3478 -0.018,0.36488 -0.344,0.5599 0.213,0.48249 -0.048,0.0452 -0.116,0.0683 -0.495,0.5438 -0.501,0.55185 -0.366,0.40309 -0.416,0.45837 -0.466,0.51465 -0.399,0.44128 z" 
                fill="rgb(151, 144, 238)" 
                stroke="white" 
                stroke-width=".7px"
                title="Zimbabwe" 
                id="ZW" 
            />
        </svg>