<svg xmlns="http://www.w3.org/2000/svg" viewBox="540.44 222.44000000000003 137.8099999999996 118.13999999999996" width="137.8099999999996" height="118.13999999999996">
            <path 
                d="M613.61,298.81l-1.28,0.67l-0.25,0.12l-0.89,0.72l-1.25,1.21l-0.62,0.9l-0.13,0.48l0.01,1.02l0.13,0.5l0.67,1.31l0.13,0.5l0.01,1.02l-0.12,0.49l-2.24,4.35l-1.83,2.32l-1.11,2.18l-0.13,0.49l-0.09,1.06l0.04,1.63l0.21,1.02l0.67,1.3l0.14,0.5l0.09,1.05l-0.08,1.05l-0.38,0.9l-1.29,1.52l-0.98,1.71l-0.98,1.13l-0.54,0.8l-0.21,1l-0.05,3.27l-0.17,1.04l-2.33,4.51l-2.87,-4.21l-0.74,-0.88l-1.98,-2.04l-0.6,-0.88l-0.14,-0.49l-0.09,-3.79l-0.18,-1.02l-1.09,-2.22l-0.59,-0.81l-2.12,-2.28l-1.36,-2.64l-0.13,-0.5l-0.08,-1.07l0,-3.83l-0.2,-1.02l-0.24,-0.43l-1.28,-1.58l-0.87,-1.68l-0.57,-0.68l-1.12,-0.88l-0.75,-0.3l-1.64,-0.18l-7.27,-0.12l-2.19,-0.15l-0.5,-0.14l-1.3,-0.68l-0.5,-0.14l-1.63,-0.13l-3.92,-0.07l-1.07,-0.16l-0.7,-0.33l-0.55,-0.53l-0.92,-1.55l-1.3,-1.58l-2.05,-4.03l-4.27,-4.45l-0.34,-0.42l-0.69,-1.39l-0.62,-0.87l-2.98,-2.98l-0.74,-0.52l-1.37,-0.69l-1.59,-1.29l-1.35,-0.71l-0.54,-0.47l-0.22,-0.31l-0.31,-0.71l-0.1,-0.52L541,280l-0.56,-4.06l1.17,0.32l1.56,0.59l1.36,0.86l1.21,0.63l2.18,1.62l0.93,0.44l0.39,0.29l0.61,0.76l0.41,0.92l0.58,0.65l0.34,0.12l0.65,-0.27l0.94,-0.92l0.41,-0.61l0.64,-1.32l0.58,-0.69l1.33,-1.28l0.71,-0.56l1.31,-0.61l0.55,-0.44l1.59,-2.68l0.39,-0.94l0.99,-1.25l1.97,-1.9l0.8,-0.63l1.1,-0.46l2.75,-0.13l0.89,-0.21l0.34,-0.17l0.3,-0.23l0.46,-0.6l1.16,-2.06l0.37,-0.95l1.16,-2.05l0.75,-0.85l2.44,-1.28l2.05,-0.4l1.31,-0.62l1.04,-0.15l2.21,-0.03l0.89,-0.21l0.63,-0.41l0.25,-0.28l0.84,-1.43l0.95,-1l0.74,-0.52l1.2,-0.56l2.1,-1.13l0.62,-0.44l0.25,-0.29l1.39,-2.37l0.39,-0.96l0.95,-1.46l1.37,-2.47l2.94,-0.35l2.89,0l1.59,-0.19l1.31,-0.63l0.5,-0.12l4.98,-0.02l0.92,-0.2l1.13,-0.65l1.43,-1.34l0.78,-1.08l0.2,-1.02l0.03,-3.3l0.2,-1.02l0.54,-0.81l1.44,-1.46l0.93,-1.16l0.65,-1.3l0.9,-1.02l1.01,-0.95l1.09,-0.78l0.93,-0.4l0.55,-0.45l0.44,-0.63l1.11,-2.11l0.35,-1.44l0.2,-0.32l0.33,-0.13l0.4,0.06l0.35,0.18l0.69,0.57l8.23,8.39l0.62,0.87l0.39,0.95l0.72,1.28l0.38,0.96l0.75,1.29l0.42,0.82l0.47,0.62l0.3,0.24l0.34,0.19l0.89,0.26l3.35,0.12l1.64,-0.07l0.51,-0.12l1.31,-0.64l0.5,-0.14l1.68,-0.29l1.16,-0.06l1.41,-0.69l0.62,-0.21l2.15,-3.96l0.95,0.34l2.09,0.34l-1.41,2.11l-0.46,2.29l-0.08,2.06l-0.21,0.66l0.42,0.13l0.01,0l0,0l0.8,-0.09l1.31,-0.42l1.29,-0.72l2.25,-1.05l0.5,-0.11l1.02,0.02l0.5,0.13l1.31,0.67l2.04,0.53l3.53,1.84l1.04,0.21l2.74,0.19l0.51,0.14l1.33,0.65l2.1,0.4l0.46,0.18l0.46,0.47l0.16,0.45l0,0.98l-0.16,0.44l-0.05,0.07l-0.24,0.23l-0.63,0.3l-2.1,0.3l-1.33,0.59l-0.51,0.11l-2.15,0.16l-0.5,0.12l-1.31,0.61l-2.03,0.42l-1.31,0.61l-3.15,0.39l-2.25,1.02l-1.27,0.71l-1.76,0.72l-0.38,0.07l-0.38,-0.09l-1.75,-0.81l-1.29,-0.73l-0.5,-0.14l-1.08,-0.12l-5.03,-0.12l-0.01,0l-0.01,0l-1.65,0.07l-0.51,0.12l-1.34,0.61l-1.44,0.35l-0.33,0.19l-3.56,0.66l-1.9,-0.38l-1.55,-0.71l-1.04,-0.09l-0.01,0l-0.01,0l-1.04,0.16l-1.33,0.63l-1.47,0.45l-0.57,0.42l-0.47,0.61l-0.53,0.99l-0.29,1.56l-0.27,0.84l-0.6,0.97l-0.72,0.63l-0.34,0.16l-1.22,0.37l-1.32,0.61l-0.51,0.11h-0.01l-3.3,0.01l-0.24,0.03l-0.33,0l-0.25,0.06l-0.26,0.03l-0.18,0.08l-0.2,0.05l-0.19,0.12l-0.13,0.06l-0.22,0.17l-0.1,0.06l-0.47,0.59l-1.19,2.05l-0.1,0.23l-0.82,1.67l-0.16,0.3l-0.15,1l0.16,1.01l0.65,1.31l0.13,0.5l0.23,3.22l0.13,0.5l0.65,1.3l0.2,1.06l-0.01,15.04l-0.02,0.38l-0.18,0.92l-0.64,1.28l-0.13,0.49l-0.21,2.11l-0.13,0.5l-1.54,2.62l-0.1,0.11L613.61,298.81zM658.03,264.54l-0.38,-2.44l-2.9,-0.31l-3.66,-0.23l-4.27,0.31l-0.38,3.28l-0.69,2.9l-1.37,2.59l-0.92,2.59l-0.08,2.9l2.74,0.84l3.2,-2.59l2.44,-1.83l2.13,1.3l1.68,1.52l2.06,-1.14l0.91,-2.52l1.6,-2.21l-1.22,-2.59L658.03,264.54z" 
                fill="rgb(151, 144, 238)" 
                stroke="white" 
                stroke-width=".7px"
                title="Abşeron" 
                id="AZ-ABS" 
            />
        </svg>