<svg xmlns="http://www.w3.org/2000/svg" viewBox="500.32 569 48.06 43" width="48.06" height="43">
            <path 
                d="M547.98,569.81L548.25,576.37L548.38,585.38L548.25,601.08L546.47,601.62L541.15,602.58L538.15,604.76L536.23,606.81L532.96,607.77L527.63,608.18L525.58,610.63L523.13,612L518.35,611.45L516.3,609.41L512.34,608.18L507.02,604.35L507.41,600.27L506.56,598.25L505.88,596.05L505.4,594.84L503.93,592.33L502.91,591.14L501.05,589.3L500.32,588.41L500.32,588.41L501.32,587.55L502.79,585.13L502.97,584.12L503.02,581.98L503.22,580.99L503.6,580.39L504.56,579.47L505.3,579L506.64,578.41L508.43,577.14L510.91,575.91L511.41,575.81L512.46,575.84L512.96,575.98L514.25,576.59L515.09,576.59L515.79,576.29L518.04,574.71L520.29,573.74L520.29,573.74L523.58,574.83L527.55,575.02L529.18,574.95L529.68,574.84L535.44,572.16L537.48,571.75L538.79,571.16L540.83,570.74L542.14,570.14L542.64,570.02L542.64,570.02L543.59,569.97L543.74,569.81L547.16,569L547.16,569z" 
                fill="rgb(151, 144, 238)" 
                stroke="white" 
                stroke-width=".7px"
                title="Astara" 
                id="AZ-AST" 
            />
        </svg>