<svg xmlns="http://www.w3.org/2000/svg" viewBox="303.59 289.42 89.74000000000001 93.16999999999996" width="89.74000000000001" height="93.16999999999996">
            <path 
                d="M393.33,311.4L389.71,318.56L389.24,320.55L386.34,326.15L386.14,327.26L386.12,330.83L386.02,331.99L385.88,332.52L385.24,333.8L385.04,334.9L385,338.47L384.91,339.62L384.77,340.16L384.14,341.44L384.01,341.93L383.79,344.02L383.66,344.51L381.47,348.87L381.05,349.47L379.93,350.46L378.84,350.92L377.76,351.03L374.97,351.03L374.06,351.23L372.94,351.88L370.99,353.53L369.9,354L368.12,354.13L363.83,353.99L362.74,354.08L362.3,354.23L361.85,354.67L361.31,356.56L361.13,356.86L360.6,357.36L359.27,358.07L357.69,358.33L356.83,358.58L355.83,359.15L355.29,359.64L355.1,359.93L354.95,360.4L354.84,361.46L354.86,363.1L354.98,364.17L355.42,365.14L356.45,366.43L356.64,366.96L356.53,367.29L356.27,367.59L354.49,368.51L353.61,369.23L353.04,369.93L352.91,370.24L352.86,370.69L353.08,371.36L353.53,371.92L355.22,372.92L356.03,373.77L356.57,374.85L357.45,377.39L357.45,377.39L353.2,377.9L351.44,378.61L350.93,378.72L347.67,378.93L346.58,379.4L344.21,381.32L343.11,381.8L337.05,382.59L337.05,382.59L338.65,379.81L339.11,378.78L339.48,377.6L341.31,374.18L341.47,373.18L341.32,372.17L340.18,370.08L339.48,369.19L337.85,368.27L336.27,366.99L334.48,366.03L332.91,364.75L331.15,363.82L329.83,362.56L329.43,361.92L329.27,361.42L328.79,357.07L328.79,357.07L330.37,355.99L331.19,355.21L331.94,354.14L333.27,352.61L333.65,351.7L333.76,349.55L333.53,347.98L332.38,345.87L331.91,345.26L331.61,345.03L330.9,344.69L329.83,344.52L327.59,344.47L326.51,344.54L325.56,344.86L320.24,347.41L318.2,347.84L316.91,348.38L316.44,348.4L315.38,347.98L314.14,347.07L313.43,346.69L312.52,346.43L310.4,346.09L309.08,345.44L307.54,345.04L306.44,344.51L305.25,343.5L304.07,342.2L303.8,341.72L303.59,340.69L303.66,339.1L303.8,338.61L304.2,338L305.44,336.86L306.89,336.2L307.81,335.58L308.6,334.79L308.99,334.18L309.13,333.66L309.22,332.53L309.18,326.09L309.33,324.97L309.65,324.29L310.19,323.78L310.89,323.49L311.97,323.38L314.78,323.39L315.68,323.18L316.33,322.78L316.59,322.5L317.73,320.56L317.9,320.13L317.92,319.67L317.83,319.33L317.44,318.72L317.15,318.49L316.44,318.15L314.5,317.6L313.48,316.98L312.93,316.46L312.59,315.68L312.55,315.17L312.74,314.2L313.17,313.64L314.15,312.98L315.79,312.29L317.09,311.62L318.05,311.26L320.53,309.99L321.27,309.48L322.21,308.49L322.91,307.07L323.56,306.16L326.13,303.31L326.13,303.31L325.25,301.76L325.08,301.28L325.04,300.83L325.16,300.47L325.67,299.9L326.01,299.73L326.63,299.68L327.23,299.95L327.72,300.5L329.52,303.82L330.27,304.71L332.71,306.12L333.95,306.29L334.76,306.16L337.59,304.67L340.13,302.49L341.84,301.67L345.51,298.41L349.45,296.4L350.24,295.85L352.4,293.97L353.74,293.36L354.29,293.02L355.43,291.96L357.86,289.42L357.86,289.42L357.19,294.72L357.13,298.04L357.23,299.65L357.37,300.14L357.65,300.61L359.63,302.76L360.26,303.68L360.73,305.71L361.37,307.03L361.85,308.45L362.31,308.9L363.27,309.13L364.33,309.04L365.43,308.56L367.04,307.48L367.78,307.2L371.04,306.99L371.55,306.88L372.86,306.27L373.36,306.16L376.62,306L377.13,305.89L378.42,305.32L378.9,305.26L379.38,305.34L380.67,305.98L382.74,306.51L383.75,306.94L384.36,307.01L384.78,306.68L384.93,306.26L385.12,304.7L385.24,304.18L385.56,303.52L386.22,302.61L386.76,302.31L387.08,302.31L387.77,302.53L389.76,303.41L390.76,304.06L391.3,304.59L391.68,305.36L391.97,306.36L392.64,307.71z" 
                fill="rgb(151, 144, 238)" 
                stroke="white" 
                stroke-width=".7px"
                title="Ağcabədi" 
                id="AZ-AGC" 
            />
        </svg>