<svg xmlns="http://www.w3.org/2000/svg" viewBox="318.74 196.17 59.25999999999999 86.78999999999999" width="59.25999999999999" height="86.78999999999999">
            <path 
                d="M373.37,241.89L369.92,240.52L367.62,239.34L367.23,239.24L366.85,239.32L365.09,240.05L363.78,240.71L362.74,240.87L361.09,240.9L360.12,241.11L359.67,241.55L359.5,241.99L359.16,244.04L358.52,245.33L358.4,245.83L358.31,246.9L358.27,250.74L358.06,251.76L357.4,253.04L357.26,253.54L357.17,254.6L357.24,255.66L357.58,256.61L358.52,258.27L358.99,258.89L359.62,259.36L363.28,261.45L364.42,262.58L364.83,263.28L364.98,263.85L365,265.2L365,265.2L362.92,269.63L362.56,270.59L361.85,271.84L361.55,273.48L361.2,274.26L360.23,275.33L352.26,282.96L352.26,282.96L349.97,281.81L348.82,281.51L347.18,281.28L346.73,281.1L346.28,280.63L346.12,280.18L345.79,278.11L344.67,275.99L344.2,275.38L343.58,274.9L341.89,273.97L340.47,273.43L339.77,273.03L339.41,272.32L339.33,270.73L339.44,269.65L340.06,267.83L339.93,267.3L339.72,267.12L339.3,266.96L337.15,266.76L336.22,266.53L335.09,265.84L334.14,264.81L333.06,262.69L332.74,261.74L332.62,256.81L332.52,256.3L332.19,255.6L331.67,255.05L329.51,253.79L328.56,253.06L328.07,252.45L326.77,250.41L326.4,250.21L324.96,249.8L324.48,249.52L323.59,248.78L322.36,247.51L321.75,246.58L321.6,246.08L321.35,243.93L320.97,242.86L318.74,238.66L318.74,238.66L319.18,238.33L321.2,237.65L321.97,237.25L323.62,235.84L324.68,234.52L325.09,233.59L325.82,232.34L326.21,231.4L326.9,230.13L327.04,229.64L327.13,228.57L327.03,226.4L326.9,225.9L325.09,222.36L324.96,221.86L324.85,220.24L324.9,216.94L325.1,215.92L325.75,214.63L325.88,214.13L326.1,212.01L326.23,211.52L328,208.05L328.13,207.55L328.35,205.43L328.48,204.93L329.12,203.65L329.25,203.15L329.49,200.42L330.62,196.17L330.62,196.17L333.72,197.08L338.26,197.32L339.3,197.53L344.62,200.36L345.57,200.72L346.62,200.79L347.58,200.57L348.07,200.13L348.76,199.08L349.47,198.77L349.95,198.77L350.43,198.87L351.74,199.54L353.78,200.07L355.09,200.75L357,201.33L358.55,202.28L358.98,202.49L359.47,202.59L360.31,202.47L365.34,200.94L365.34,200.94L365.55,202.73L365.97,204.51L366.12,205.74L366.1,215.57L366.21,216.69L366.36,217.17L366.78,217.74L367.74,218.45L369.38,219.22L372.21,220.76L373.08,221.49L373.67,222.12L373.67,222.12L375.9,225.31L377.64,227.27L377.89,227.64L378,228.01L377.89,228.38L377.63,228.74L375.5,230.93L374.12,233.53L373.94,234.42L373.85,237.32z" 
                fill="rgb(151, 144, 238)" 
                stroke="white" 
                stroke-width=".7px"
                title="Ağdaş" 
                id="AZ-AGS" 
            />
        </svg>