<svg xmlns="http://www.w3.org/2000/svg" viewBox="47.59 77.46 86.88999999999999 87.56000000000002" width="86.88999999999999" height="87.56000000000002">
            <path 
                d="M81.79,156.02L81.9,152.58L81.8,151.39L81.66,150.85L81,149.48L80.87,148.97L80.67,144.58L80.54,144.07L79.87,142.75L79.74,142.25L79.67,140.64L79.9,139.62L80.14,139.19L81.41,137.65L81.63,137.24L81.7,136.78L81.64,136.3L81.02,135L80.9,134.5L80.89,133.46L81.01,132.96L81.65,131.67L81.78,131.17L82,129.03L82.13,128.53L82.78,127.23L83.26,125.21L83.9,123.92L84.39,120.78L85.05,119.48L85.18,118.98L85.27,117.91L85.2,116.83L85.07,116.32L83.98,114.03L83.56,113.41L82.84,112.66L82.09,112.13L81.34,111.82L80.25,111.66L76.9,111.59L75.82,111.47L75.32,111.33L74.01,110.66L73.51,110.52L71.37,110.26L70.86,110.12L69.55,109.45L67.52,108.94L66.23,108.22L65.27,107.81L64,107.05L63.04,106.64L60.58,105.23L57.55,102.68L55.09,101.26L51.88,99.68L50.56,98.87L48.59,97.85L47.59,97.2L47.59,97.2L50.7,92.38L52.43,90.9L54.34,88.54L55.2,88.04L58.88,87.3L60.15,86.17L61.11,85.03L62.96,83.71L64.05,83.22L65.15,80.03L66.02,79.05L67.75,79.03L68.77,78.73L69.77,78.8L71.17,77.75L72.14,77.46L73.5,77.7L75.28,78.68L77.19,80.74L80.06,82.84L83.38,84.91L84.38,84.98L85.39,84.85L86.17,84.35L87.24,83.33L89.33,80.78L89.93,80.92L90.97,80.91L92.01,81.07L92.96,81.58L95.17,84.22L95.91,84.93L97.09,85.65L99.64,86.53L104.03,87.61L105.81,88.42L106.44,89.88L106.88,92.5L107.58,93.33L108.33,93.89L109.44,94.38L110.54,94.75L112.93,94.07L115.27,93.86L116.74,94.22L120.28,96.36L121.59,96.8L122.57,96.9L125.34,95.19L126.11,95.24L126.91,96.18L128.93,98.17L129.12,98.71L128.81,99.17L128.13,99.41L126.09,99.47L125.4,99.62L124.82,99.88L124.27,100.64L123.44,101.28L122.8,102.71L122.12,103.72L121.4,103.87L121.01,104.63L120.98,105.23L121.5,106.18L122.89,108.23L126.37,113.13L130.09,115.66L132.96,117.09L134.48,118.25L134.48,118.25L133.37,119.08L130.89,120.39L129.93,120.75L128.65,121.45L127.7,121.81L126.42,122.51L125.46,122.88L122.99,124.17L122.24,124.69L120.26,126.54L119.18,127.76L118.78,128.71L118.48,130.28L117.96,131.3L117.25,132.24L116.64,132.72L115.98,133.08L115.37,133.23L114.98,133.13L113.2,132.29L109.67,130.3L108.04,129.56L107.37,129.33L107.07,129.33L106.82,129.45L106.64,129.66L106.48,130.09L106.41,130.59L106.39,132.27L106.5,133.93L106.63,134.44L107.24,135.72L107.35,137.1L107.75,138.92L109.56,142.48L109.69,142.98L109.79,144.06L109.79,146.29L109.7,147.36L109.57,147.87L108.47,150.08L107.85,150.91L104.75,153.98L103.57,154.97L102.48,155.44L99.81,155.75L98.49,156.35L96.41,156.64L95.7,156.97L95.5,157.23L95.34,157.68L95.14,159.26L94.84,160.1L93.86,161.18L92.43,162.07L91.58,163.21L91.58,163.21L87.63,165.02L86.95,164.96L86.24,164.7L85.74,164.24L85.61,163.24L86.02,158.9L88.57,155.03L88.51,154.35L87.88,154.09L84.76,154.47z" 
                fill="rgb(151, 144, 238)" 
                stroke="white" 
                stroke-width=".7px"
                title="Ağstafa" 
                id="AZ-AGA" 
            />
        </svg>