<svg xmlns="http://www.w3.org/2000/svg" viewBox="438.53 195.31 75.71000000000004 89.26999999999998" width="75.71000000000004" height="89.26999999999998">
            <path 
                d="M486.19,284.58L483.29,283.11L482.33,282.34L481.52,281.48L481.11,280.85L480.03,278.6L479.59,276.56L478.47,274.45L478,273.84L477.36,273.41L476.46,273.16L473.67,273.05L472.59,272.89L471.88,272.57L471.57,272.33L471.1,271.72L470.18,270.05L470,269.62L469.94,269.15L470.01,268.67L470.63,267.4L470.76,266.91L471.01,264.79L471.15,264.3L471.81,263.01L471.93,262.52L471.94,261.5L471.82,261L470.59,258.39L469.71,257.1L469.14,256.67L468.65,256.51L467.54,256.39L460.97,256.25L459.79,256.28L458.84,256.48L457.72,257.13L455.76,258.99L454.66,260.21L453.92,261.46L453.45,262.06L452.81,262.46L451.94,262.63L451.42,262.56L450.67,262.27L449.92,261.74L449.21,260.97L448.84,260.32L448.5,258.25L448.35,257.82L447.94,257.48L447.32,257.53L445.36,258.33L444.07,258.97L443.58,259.04L443.1,258.97L440.83,257.91L439.21,256.83L438.79,256.25L438.56,255.25L438.53,253.6L438.65,251.98L438.78,251.48L439.44,250.2L439.92,248.2L440.59,246.92L442.36,240.69L442.36,240.69L443.25,241.72L444.15,242.39L444.67,242.48L445.05,242.43L445.78,242.12L446.19,241.82L446.91,241.11L447.29,240.49L447.48,239.45L447.58,236.72L447.71,236.23L448.27,235.4L454.4,229.5L455.53,228.86L457.82,228.29L459.12,227.47L459.54,226.91L460.06,224.49L460.48,223.86L460.76,223.62L463.19,222.3L464.15,221.95L467.66,220.2L468.62,219.84L471.08,218.55L472.87,217.24L474.61,216.38L476.17,215.13L477.95,214.24L480.64,211.91L482.01,211.28L483.09,210.5L483.72,209.84L484.13,209.24L484.53,208.3L485.22,207.03L485.66,205.01L486.32,203.73L486.77,201.71L487.44,200.42L487.9,198.33L488.72,196.54L488.97,195.31L488.97,195.31L490.58,197.88L490.78,198.39L491.06,200.01L491.42,200.91L492.32,201.98L493.7,203.28L494.44,203.79L495.37,204.23L495.92,204.7L496.14,205.01L496.46,205.73L496.84,207.27L497.51,208.58L497.63,209.08L497.63,210.12L497.49,210.61L497.25,211.03L495.65,212.96L494.58,215.14L494.52,215.61L494.6,216.09L495.21,217.37L495.28,217.84L495.21,218.31L495,218.72L493.72,220.24L493.04,221.58L492.42,222.41L486.96,227.71L485.86,228.88L484.5,231.49L484.43,231.97L484.5,232.44L484.69,232.87L485.58,234.67L487.15,236.67L488.01,238.37L488.95,239.4L489.7,239.93L490.44,240.25L491.99,240.65L493.29,241.34L493.8,241.47L495.43,241.6L502.13,241.71L503.77,241.89L504.86,242.42L506.3,243.58L507.99,244.49L509.78,245.88L512.3,247.23L513.76,247.6L514.1,247.8L514.24,248.14L514.09,248.86L513.49,249.84L512.98,250.44L512.35,250.92L511.33,251.53L509.78,252.25L507.85,253.55L505.38,254.84L504.43,255.2L503.15,255.89L502.19,256.24L499.72,257.52L498.56,258.36L497.22,259.69L496.74,260.42L496.54,261.44L496.56,266.41L496.47,267.47L496.33,267.96L495.75,268.8L493.54,271.14L490.63,275.45L490.63,275.45L489.69,275.88L489.17,276.37L488.96,276.7L488.57,278.81L487.77,280.57z" 
                fill="rgb(151, 144, 238)" 
                stroke="white" 
                stroke-width=".7px"
                title="Ağsu" 
                id="AZ-AGU" 
            />
        </svg>