<svg xmlns="http://www.w3.org/2000/svg" viewBox="47.03 409.07 62.83 101.23000000000002" width="62.83" height="101.23000000000002">
            <path 
                d="M93.79,417.61L93.47,419.89L91.68,420.66L88.86,424.24L85.02,427.06L81.95,429.11L82.71,432.18L85.53,432.95L87.32,432.95L88.86,435L89.37,438.84L91.42,442.17L94.24,442.17L99.36,442.68L100.64,443.96L103.2,447.03L107.04,449.85L105.76,453.43L106.79,454.97L106.79,454.97L109.6,454.97L109.6,454.97L109.86,457.79L109.09,460.09L106.02,462.14L106.02,465.98L105.51,468.54L101.41,469.06L98.85,469.82L98.85,472.64L101.66,475.2L104.23,476.99L104.99,479.3L104.74,482.63L102.43,484.68L101.15,489.03L103.71,492.1L107.04,494.41L108.07,497.74L107.81,500.81L106.02,503.11L106.27,506.7L106.27,509.03L106.27,509.03L104.32,510.15L103.65,510.3L102.5,510.1L99.14,508.09L96.87,507.2L93.18,506.24L91.49,505.39L90.27,504.49L89.25,503.37L88.88,501.95L90.77,498.07L90.78,496.21L91.05,495.02L90.62,494.56L88.49,494.5L85.47,492.62L84.67,491.71L84.33,489.9L84.67,488.12L83.87,486.14L79.74,480.65L79.6,478.53L79,476.35L77.61,475.49L74.89,475.97L73.64,474.16L74.68,473.21L75.87,471.02L75.4,469.95L74.24,469.72L72.6,470.43L70.62,472.01L65.14,470.28L61.77,468.96L59.18,468.98L58.39,468.07L58.08,467.05L56.69,465.58L55.79,466.01L55.59,467.65L53.41,467.92L52.9,462.91L47.03,451.08L47.03,451.08L50.7,450.62L52.75,452.67L55.83,451.13L57.87,450.62L59.41,451.64L62.23,449.08L65.04,446.78L66.32,442.42L68.63,438.07L70.42,434.23L71.45,430.9L71.45,425.52L70.93,421.68L74.01,419.89L74.52,416.05L77.16,409.07L77.16,409.07L77.95,409.37L82.12,410.34L85.94,412.42L88.84,412.33L90.02,413.46L91.48,416.88L91.96,417.38L92.85,417.55z" 
                fill="rgb(151, 144, 238)" 
                stroke="white" 
                stroke-width=".7px"
                title="Babək" 
                id="AZ-BAB" 
            />
        </svg>