<svg xmlns="http://www.w3.org/2000/svg" viewBox="598.7599999999998 230.19999999999996 174.72000000000025 159.73999999999998" width="174.72000000000025" height="159.73999999999998">
            <path 
                d="M773.48,277.97l-0.32,0.84l-0.99,-0.45l-1.07,-0.02l-2.16,0.59l-0.92,0.51l-1.68,2.7l-0.78,0.76l-0.98,0.35l-0.48,-0.4l1.49,-1.57l1.1,-1.6l-0.3,-0.58l0.05,-2.26l-0.45,-0.76l-1.75,-0.8l-0.14,-0.25l0.82,-0.68l-0.69,-1.1l-0.88,0.08l-0.8,-1.19l0.3,-0.25l1.42,0.49l1.62,2.21l1.45,1.01l0.25,1.1l0.36,0.35l0.51,-0.79l0,-0.79l-0.69,-3.28l1.15,0.46l1.1,0.98l0.44,-0.08l-0.16,-0.41l0.28,-0.49l2.73,2.99L773.48,277.97zM741.25,290.17l-0.24,2.63l0.14,4.17l-0.76,1.87l-0.45,-5.07l-0.46,-1.94l-0.91,-1.79l-0.22,-1.49l0.31,-1.68l-0.82,-3.64l-0.69,-1.13l-2.94,-3.44l-1.12,-0.3l-1.61,-1.45l-2.29,-0.48l-0.45,-0.32l-0.08,-0.4l-6.51,-3.44l-2.12,-0.7l-1.92,-0.25l-1.85,0.35l-0.98,-0.13l-2.37,-1.44l-3.83,-1.05l-2.56,-0.22l-1.83,0.59l-1.11,0.93l-0.9,2.1l-1.29,-0.23l-0.41,0.2l-0.86,-0.55l-1.01,-0.21l-1.64,0.14l-2.15,0.57l-0.81,0.64l-0.84,1.47l-0.93,0.71l-1,0.07l-2.45,-0.96l-0.95,-0.04l-2.59,0.65l-0.46,-2.06l-0.91,-1.43l-1.18,-1.05l-1.26,-0.54l-1.07,-0.92l-2.5,-0.45l-2.39,0.12l-1.37,-0.2l-1.18,0.38l-0.52,-0.36l-1.29,0.69l-0.89,0.16l-0.77,0.65l-0.39,0.88l0.07,1.08l0.44,0.87l0.26,0.22l0.82,-0.33l0.57,0.29l0.08,0.4l-0.4,0.48l-0.57,0.15l-0.03,2.26l-0.99,3.29l-0.66,0.78l-0.83,0.45l-1.58,-0.05l-1.11,-0.45l-2.9,0.55l-2.94,1.1l-1.5,0.94l-2.09,1.81l-1.26,0.45l-2.1,-0.45l-1.31,0.05l-1.46,0.43l-1.07,0.98l-1.29,2.15l-2.62,1.09l-1.27,1.04l-0.29,1.12l0.91,0.04l-0.15,0.38l-0.83,0.45l-0.71,0.02l-0.2,-1.47l-0.4,-0.09l-1.16,1.3l-4.33,1.79l-2.23,2.11l-2.12,0.86l-2.62,0.62l-0.96,0.6l-3.08,3.39l-2.46,0.59l-0.76,0.65l-0.28,0.53l-0.45,3.21l0.44,3.35l2.06,2.93l0.04,0.48l-1.64,0.26l-0.85,0.8l-1.55,-0.36l-1.28,1.24l-1.21,0.26l-0.97,1.27l-1.58,0.98l-0.47,1.46l0.28,1.92l0.84,2.79l1.42,2.95l1.09,1.63l3.01,3.31l2.04,3.27l-0.37,0.95l-2.91,2.36l-0.97,0.3l-1.42,1.1l-1.17,0.39l-0.87,0.97l-0.61,1.87l-0.25,2.13l1.3,6.63l1.1,2.75l0.75,0.91l0.66,1.44l-1.24,1.65l-1.52,0.32l-1.14,1.25l-0.56,3.63l-0.8,1.87l-1.47,1.77l-0.4,1.11l-0.12,2.43l0.4,3l1.59,5.95l0.94,1.5l1.35,3.25l-1.65,0.95l-1.55,0.36l-2.27,1.32l-1.79,1.7l-0.74,1.08l-0.59,-1.31l-0.14,-0.57l-0.2,-5.32l-0.14,-0.54l-0.63,-1.3l-0.14,-0.56l-0.1,-1.19l0.06,-11.17l0.27,-1.24l1.3,-1.98l-0.42,-4.98l-0.15,-3.27l-0.38,-0.92l-1.29,-1.56l-0.95,-1.75l-1.57,-1.97l-1.09,-2.22l-0.44,-3.12l-0.68,-1.33l-0.41,-1.61l-0.4,-0.81l-0.8,-0.62l2.33,-4.51l0.17,-1.04l0.05,-3.27l0.21,-1l0.54,-0.8l0.98,-1.13l0.98,-1.71l1.29,-1.52l0.38,-0.9l0.08,-1.05l-0.09,-1.05l-0.14,-0.5l-0.67,-1.3l-0.21,-1.02l-0.04,-1.63l0.09,-1.06l0.13,-0.49l1.11,-2.18l1.83,-2.32l2.23,-4.35l0.12,-0.49l-0.01,-1.02l-0.13,-0.5l-0.67,-1.31l-0.13,-0.5l-0.01,-1.02l0.13,-0.48l0.62,-0.9l1.25,-1.21l0.89,-0.72l0.24,-0.12l1.15,-0.56l0.13,-0.11l0.17,-0.09l0.17,-0.18l0.07,-0.06l0.03,-0.06l0.22,-0.24l1.33,-2.38l0.13,-0.5l0.21,-2.11l0.13,-0.49l0.64,-1.28l0.13,-0.51l0.03,-0.41l0.02,-0.13v-0.25l0.05,-0.86l-0.03,-14.18l-0.2,-1.06l-0.65,-1.3l-0.13,-0.5l-0.22,-3.22l-0.13,-0.5l-0.65,-1.31l-0.16,-1.01l0.15,-1l0.15,-0.3l0.52,-0.97l0.3,-0.71l0.11,-0.23l1.18,-2.05l0.47,-0.59l0.08,-0.06l0.35,-0.22l0.39,-0.17l0.44,-0.11l0.57,-0.06l3.54,-0.04h0.02l0.51,-0.11l1.32,-0.61l0.99,-0.27l0.21,-0.1l0.25,-0.07l0.1,-0.08l0.22,-0.1l0.51,-0.52l0.6,-0.97l0.27,-0.84l0.29,-1.56l0.53,-0.99l0.47,-0.61l0.57,-0.42l1.47,-0.45l1.33,-0.63l1.04,-0.16l1.03,0.09l1.55,0.71l1.91,0.38l0.01,0l0.01,0l3.56,-0.66l0.33,-0.19l1.44,-0.35l1.34,-0.61l0.51,-0.12l1.64,-0.06l5.02,0.12l1.08,0.12l0.5,0.14l1.29,0.73l1.75,0.81l0.39,0.09l0.01,0l0.01,0l0.39,-0.07l1.76,-0.72l1.27,-0.71l2.25,-1.02l3.15,-0.39l1.31,-0.61l2.03,-0.42l1.31,-0.61l0.5,-0.12l2.15,-0.16l0.51,-0.11l1.33,-0.59l2.1,-0.3l0.46,-0.16l0.15,-0.15l0.1,-0.05l0.15,-0.19l0.07,-0.07l0.16,-0.44l0,-0.98l-0.16,-0.45l-0.46,-0.47l-0.46,-0.18l-2.1,-0.4l-1.33,-0.65l-0.51,-0.14l-2.74,-0.19l-1.04,-0.21l-3.53,-1.84l-2.04,-0.53l-1.31,-0.67l-0.5,-0.13l-1.04,-0.02l0,0l-0.01,0l-0.5,0.11l-2.25,1.05L657,240.5l-1.31,0.42l-0.79,0.09l-0.41,-0.13l0.21,-0.66l0.08,-2.06l0.46,-2.29l1.41,-2.11l0.46,0.07l3.9,-0.55l1.34,0.15l2.23,1.38l2.38,0.52l8.26,-1.25l7.29,-1.61l3.63,-1.56l1.91,-0.47l1.71,0.03l1.92,1.32l1.54,0.17l4.99,-1.16l1.23,0.03l1.21,-0.63l0.32,0.92l-0.94,1.67l0.32,0.86l2.87,3.08l0.56,2.28l0.64,0.89l1.47,0.96l0.76,1.26l0.95,0.52l3.7,0.44l0.69,0.7l1.69,0.27l1.91,1.32l0.88,-0.52l0.59,0.01l0.86,0.55l1.28,-0.05l0.69,0.3l0.58,0.65l0.93,-0.2l1.55,2.68l0.06,1.08l1.28,1.27l0.29,1.14l1.28,0.83l0.36,1.7l0.8,0.35l0.73,-0.65l1,2.99l1,1.2l4.98,2.91l1.48,1.21l0.4,2.14l1.05,2.48l1.62,2.73l0.3,1.1l-0.14,3.76l0.22,2.36l-0.76,3.98l0.9,3.57l-0.21,1.45l0.76,1.26l0.17,2.08L741.25,290.17zM660.16,269.49l-1.22,-2.59l-0.92,-2.36l-0.38,-2.44l-2.9,-0.31l-3.66,-0.23l-4.27,0.31l-0.38,3.28l-0.69,2.9l-1.37,2.59l-0.92,2.59l-0.08,2.9l2.74,0.84l3.2,-2.59l2.44,-1.83l2.13,1.3l1.68,1.52l2.06,-1.14l0.91,-2.52L660.16,269.49zM646.54,332.53h-2.98l0.36,3.48l-0.67,1.12l0.37,0.58l2.02,-0.72l1.25,-0.07l0.42,-0.36l0.21,-0.83l-0.95,-1.99L646.54,332.53zM734.48,252.51l0.79,2.3l0.74,1.06l0.02,1.15l1.11,0.5l1.15,1.73l-1.16,0.49l0.13,0.37l0.87,0.08l0.7,2.37l0.47,3.14l0.43,0.08l-0.2,-3.47l0.72,-1.8l0.61,-0.58l-0.02,-0.68l-0.56,-1.76l-0.71,0.01l-0.64,-0.81l-0.31,-1.9l-0.42,-0.59l0.65,-1.49l-0.96,-2.95l-0.62,-0.57l-0.83,0l-0.84,-0.9l-0.62,0.41l-0.3,0.65l-0.57,0.19l-0.86,0.76l-0.86,-0.2l-0.16,0.42l0.55,0.92L734.48,252.51z" 
                fill="rgb(151, 144, 238)" 
                stroke="white" 
                stroke-width=".7px"
                title="Bakı" 
                id="AZ-BA" 
            />
        </svg>