<svg xmlns="http://www.w3.org/2000/svg" viewBox="186.85000000000005 0.33 71.4599999999999 62.660000000000004" width="71.4599999999999" height="62.660000000000004">
            <path 
                d="M218.98,0.33l0.98,0.72l0.73,1.22l1.54,0.94l2.05,0.38l1.91,0.22l4.73,-0.17l1.84,0.61l1.47,0.67l0.84,1.05l0.1,1.3l0.04,7.21l0.48,1.07l1,1.22l1.18,0.86l2.09,0.21l1.03,-0.4l1.65,-0.74l2.09,-1.48l4.55,-2.06l1.88,-0.28l3.14,1.16l1,0.17l0.99,-0.48l0.36,-0.79l0.1,-1.21l0.32,-0.83l0,0l0.93,1.25l0.28,0.74l0.03,0.41l-0.15,1.98l-0.1,4.51l-0.13,0.51l-1.09,2.23l-0.97,1.22l-4.89,4.75l-0.74,0.5l-1.36,0.65l-2.68,2.36l-1.78,0.91l-2.69,2.36l-1.75,0.87l-1.33,1.23l-0.42,0.61l-1.08,2.24l-0.13,0.51l-0.19,2.16l-0.13,0.51l-0.65,1.3l-0.46,2.05l-0.68,1.29l-0.54,1.3l-0.62,1l-0.5,0.6l-0.61,0.49l-1.01,0.62l-1.88,0.95l-1.45,1.11l-1.32,0.63l-1.82,1.34l-0.71,0.36l-0.91,0.2l-3.89,-0.03l-1.01,0.2l-0.57,0.42l-1.04,1.29l-1,0.93l-1.69,0.86l-1.79,1.34l-2.47,1.27l-0.48,0.06l-0.48,-0.08l-0.43,-0.2l-0.87,-0.51l-1.02,-0.44l-2.88,-1.66l0,0l-0.32,-1.92l0.58,-1.5l-1.03,-2.05l-3.9,-1.69l0.08,-0.26l-2.29,-0.34l-3.75,3.75l-2.41,-2.95l-0.27,-8.3l-1.88,-5.62l-1.88,-9.64l3.48,-4.55l5.89,-2.14l6.62,-1.38l5.76,-5.18l2.87,-1.95l2.07,-1.05l2.16,-2.22l0.77,-1.06l1.42,-2.9l0.66,-2.16L218.98,0.33z" 
                fill="rgb(151, 144, 238)" 
                stroke="white" 
                stroke-width=".7px"
                title="Balakən" 
                id="AZ-BAL" 
            />
        </svg>