<svg xmlns="http://www.w3.org/2000/svg" viewBox="291.83 238.66 66.17000000000002 67.63000000000002" width="66.17000000000002" height="67.63000000000002">
            <path 
                d="M307.29,303.81L306.99,301.2L306.78,300.44L306.1,299.07L305.96,298.52L305.87,297.36L305.89,285.52L306,284.37L306.15,283.83L306.8,282.54L306.91,282.05L306.94,281.54L306.74,280.68L306.32,280.06L305.69,279.63L304.79,279.38L302.02,279.11L301.27,278.81L300.52,278.3L299.81,277.57L299.39,276.95L297.74,273.41L296.87,272.08L296,271.3L293.96,269.99L293.75,269.61L293.36,268.2L292.73,266.88L292.6,266.37L292.36,263.53L291.83,260.87L291.83,260.87L294.25,257.72L295.45,256.32L296.21,254.67L297.59,252.21L300.33,248.41L302.44,248.1L304.46,248.47L305.8,249.33L307.06,250.61L308.16,251.55L309.25,251.9L312.11,250.08L314.7,248.11L315.86,247.02L316.62,245.79L316.99,244.9L317.5,243.19L318.74,238.66L318.74,238.66L320.97,242.86L321.35,243.93L321.6,246.08L321.75,246.58L322.36,247.51L323.59,248.78L324.48,249.52L324.96,249.8L326.4,250.21L326.77,250.41L328.07,252.45L328.56,253.06L329.51,253.79L331.67,255.05L332.19,255.6L332.52,256.3L332.62,256.81L332.74,261.74L333.06,262.69L334.14,264.81L335.09,265.84L336.22,266.53L337.15,266.76L339.3,266.96L339.72,267.12L339.93,267.3L340.06,267.83L339.44,269.65L339.33,270.73L339.41,272.32L339.77,273.03L340.47,273.43L341.89,273.97L343.58,274.9L344.2,275.38L344.67,275.99L345.79,278.11L346.12,280.18L346.28,280.63L346.73,281.1L347.18,281.28L348.82,281.51L349.97,281.81L352.26,282.96L352.26,282.96L350.67,285.85L350.6,286.36L350.67,286.85L351.04,287.47L351.76,288.15L352.18,288.38L352.67,288.48L354.96,288.15L357.18,288.26L357.64,288.39L357.94,288.64L358,289.03L357.86,289.42L357.86,289.42L355.43,291.96L354.29,293.02L353.74,293.36L352.4,293.97L350.24,295.85L349.45,296.4L345.51,298.41L341.84,301.67L340.13,302.49L337.59,304.67L334.76,306.16L333.95,306.29L332.71,306.12L330.27,304.71L329.52,303.82L327.72,300.5L327.23,299.95L326.63,299.68L326.01,299.73L325.67,299.9L325.16,300.47L325.04,300.83L325.08,301.28L325.25,301.76L326.13,303.31L326.13,303.31L320.97,303.77L318.7,303.79L317.12,303.52L315.8,302.86L315.3,302.71L314.22,302.59L312.55,302.56L311.22,302.7z" 
                fill="rgb(151, 144, 238)" 
                stroke="white" 
                stroke-width=".7px"
                title="Bərdə" 
                id="AZ-BAR" 
            />
        </svg>