<svg xmlns="http://www.w3.org/2000/svg" viewBox="98.85 440.53 58.25 76.20000000000005" width="58.25" height="76.20000000000005">
            <path 
                d="M157.1,448.64L154.67,452.41L150.32,458.81L147.25,460.09L144.94,463.42L144.69,471.87L142.38,475.2L140.33,477.51L139.56,480.84L138.8,483.4L136.23,486.98L134.19,489.29L132.39,493.13L132.14,496.46L131.11,500.3L130.09,502.09L132.91,504.14L134.95,504.39L137.52,507.72L138.03,510.8L135.98,512.85L135.47,515.15L133.89,516.73L133.89,516.73L133.02,516.38L128.96,516.18L126.76,515.55L126.33,514.48L125.49,513.72L123.85,513.21L120.94,512.74L119.21,512L117.39,511.83L115.69,512.33L113.15,513.52L112.02,513.44L111.65,512.99L111.87,512.69L111.86,511.68L111.5,511.23L109.44,510.66L107.88,508.96L106.74,508.76L106.27,509.03L106.27,509.03L106.27,506.7L106.02,503.11L107.81,500.81L108.07,497.74L107.04,494.41L103.71,492.1L101.15,489.03L102.43,484.68L104.74,482.63L104.99,479.3L104.23,476.99L101.66,475.2L98.85,472.64L98.85,469.82L101.41,469.06L105.51,468.54L106.02,465.98L106.02,462.14L109.09,460.09L109.86,457.79L109.6,454.97L109.6,454.97L109.07,454.97L109.07,454.97L110.88,453.43L113.44,451.9L115.24,450.36L118.82,450.36L121.13,448.83L122.92,446.01L125.48,446.01L126.76,447.03L127.27,449.34L129.58,450.87L131.11,449.59L133.16,447.29L134.95,444.73L135.47,442.17L138.57,440.53L138.57,440.53L138.94,440.92L139.78,441.21L145.93,441.98L148.69,443.26L151.07,445.02L153.45,446.12z" 
                fill="rgb(151, 144, 238)" 
                stroke="white" 
                stroke-width=".7px"
                title="Culfa" 
                id="AZ-CUL" 
            />
        </svg>