<svg xmlns="http://www.w3.org/2000/svg" viewBox="256.7 421.78 75.32999999999998 58.860000000000014" width="75.32999999999998" height="58.860000000000014">
            <path 
                d="M332.03,443.06L329,444.89L325.95,446.94L323.71,450.25L318.18,451.51L314.88,452.45L309,457.1L306.88,459.09L304.43,461.85L303.87,464.87L302.14,470.2L300.28,473.29L298.72,474.74L297.62,475.51L295.57,475.63L295.3,477.33L293.51,478.55L289.92,480.64L287.55,478.55L285.94,476.6L283.71,476.74L281.13,477.27L279,478.08L279,478.08L279.02,474.51L278.94,473.44L278.81,472.94L277.7,470.74L276.12,468.78L275.17,467.22L274.61,466.64L273.31,465.71L272.74,464.95L272.49,464.43L272.49,464.43L271.04,462.88L270.07,462.12L266.82,460.55L264.34,459.15L263.6,458.62L262.46,457.29L261.38,455.09L261.25,454.55L261.16,453.42L261.17,448.75L260.97,447.66L259.88,445.45L259.45,444.85L258.21,443.68L257.03,442.86L256.84,442.48L256.7,441.52L256.71,438.27L256.94,436.73L258.28,434.3L259.17,432.91L259.64,432.5L260.06,432.39L260.67,432.39L260.67,432.39L263.56,432.82L264.58,433.07L265.43,433.49L266.85,434.52L269.09,435.61L269.56,435.65L269.9,435.57L270.53,435.2L270.99,434.61L272.18,432.57L272.57,431.64L273.25,430.41L273.31,429.94L273.24,429.47L273.05,429.05L272.56,428.22L272.16,427.28L271.39,426.02L270.58,424.26L270.49,423.87L270.53,423.57L271.04,422.64L271.55,422.12L271.86,421.95L272.89,421.78L273.95,421.91L274.99,422.49L276.32,423.94L277.33,424.62L278,424.95L280.11,425.39L281.11,425.93L281.7,426.39L282.01,426.92L281.91,427.58L281.47,428.56L281.36,429.05L281.36,429.54L281.65,430.31L282.19,430.83L282.86,431.27L285.09,432.46L287.46,434.49L289.34,435.5L290.97,436.56L291.09,436.93L291.04,437.35L290.56,438.62L290.56,438.92L290.9,439.35L291.82,439.57L292.89,439.49L293.65,439.21L294.41,438.71L296.69,436.57L297.83,435.78L298.55,435.59L299.03,435.64L300.32,436.22L300.8,436.27L301.48,436.06L302,435.58L302.25,434.93L302.21,434.46L301.16,432.24L300.38,430.98L299.98,430.04L299.5,429.2L299.33,428.78L299.29,428.32L299.38,427.98L299.77,427.37L301.2,426.45L301.72,425.96L302.94,423.92L302.94,423.92L308.79,427.54L309.23,427.77L311.16,428.29L311.87,428.67L312.66,429.33L313.41,430.31L313.8,431.25L314.52,432.52L314.9,433.46L315.59,434.75L316.09,436.63L316.51,437.25L316.8,437.48L317.47,437.73L317.94,437.71L319.24,437.14L319.75,437.01L321.91,436.83L322.41,436.71L323.7,436.14L324.54,436.2L325.23,436.54L327.06,437.91L328.38,438.57L329.09,439.15L331,441.18L331.64,442.49z" 
                fill="rgb(151, 144, 238)" 
                stroke="white" 
                stroke-width=".7px"
                title="Cəbrayıl" 
                id="AZ-CAB" 
            />
        </svg>