<svg xmlns="http://www.w3.org/2000/svg" viewBox="445.16 431.5 83.80000000000001 74.01999999999998" width="83.80000000000001" height="74.01999999999998">
            <path 
                d="M476.71,499.69L476.57,498.89L476.21,497.94L475.31,496.23L474.28,494.96L472.98,492.93L470.19,489.54L468.5,488L467.86,484.64L467.41,484.2L465.89,483.91L464.72,483.02L461.87,482.52L460.55,481.72L459.54,481.49L458.28,480.26L457.78,479.54L457.57,478.23L456.81,476.67L456.89,475.85L454.8,474.15L453.42,473.63L449.66,471.29L448.29,470.03L447.08,469.15L446.59,468.51L446.57,467.93L446.08,467.4L446.55,465.91L445.94,465.11L445.16,462.34L445.6,459.99L445.41,459.14L445.45,458.17L445.84,457.53L446.88,457.29L447.08,456.34L447.8,455.58L448.24,454.38L449.88,452.6L450.73,452.52L451.81,451.47L453.39,450.97L453.62,450.1L454.03,449.62L455.5,448.5L456.19,448.28L456.9,448.56L458.85,447.62L460.3,447.83L462.22,447.13L463.04,446.47L463.05,445.61L463.76,445.78L466.49,444.11L468.68,443.27L469.65,442.38L471.06,442.44L472.61,441.36L472.78,441.32L472.78,441.32L472.96,449.35L473.01,449.91L473.25,450.8L473.69,451.42L473.98,451.67L474.69,452L475.77,452.17L477.44,452.16L478.36,451.95L479.08,451.59L479.85,450.95L480.41,450.29L481.01,449.06L481.42,448.47L482.53,447.47L483.62,447.02L486.9,446.8L487.65,446.53L488.41,446.05L490.38,444.25L491.48,443.06L493.32,439.69L494.07,438.85L496.51,437.56L497.56,437.39L499.17,437.55L499.87,437.89L500.43,438.41L501.83,440.81L502.89,443.03L503.08,444.05L503.18,447.81L503.32,448.3L503.58,448.78L504.74,450.07L505.51,450.77L506.65,451.46L508.13,451.77L509.79,451.76L510.68,451.54L511.33,451.13L511.58,450.86L512.73,448.94L513.07,447.98L513.16,446.28L513.09,441.06L512.89,439.97L512.49,438.97L512.42,438.33L512.53,438.06L513,437.59L515.46,436.24L515.99,435.71L516.31,435.04L516.75,433.02L517.16,432.46L518.43,431.66L519.25,431.5L519.73,431.58L520.17,431.77L523.45,433.46L525.12,433.65L528.96,433.66L528.96,433.66L526.14,436.94L524.74,438.73L522.27,443.44L522.27,443.44L522.14,443.95L522.14,443.95L522.04,445.62L522.04,445.62L522.03,453.01L522.07,454.13L522.26,455.19L522.26,455.19L523.34,457.39L524.08,458.64L524.47,459.58L525.2,460.83L525.59,461.76L526.32,463.01L526.72,463.94L526.72,463.94L527.4,465.21L527.6,466.28L527.64,467.42L527.64,467.42L527.54,474.33L527.14,475.66L525.89,478.14L525.89,478.14L523.18,477.06L522.02,476.88L520.93,476.93L520.47,477.08L520.22,477.27L520.03,477.53L519.91,477.97L520.02,478.96L520.53,480.29L520.53,480.59L520.2,480.99L519.79,481.09L519.31,481.08L518.82,480.96L517.49,480.27L516.98,480.13L515.91,480.08L515.05,480.3L513.73,481.12L513.3,481.67L513.15,482.14L513.09,482.66L513.15,483.7L513.3,484.19L513.55,484.61L515.17,486.59L516.01,488.39L516.04,488.66L515.77,489.13L515.18,489.52L513.05,490.59L512.08,490.93L510.8,491.61L509.84,491.96L507.37,493.21L506.23,494.04L504.25,495.89L503.53,496.68L502.18,499.26L501.88,500.76L501.53,501.61L500.31,502.94L499.12,503.9L498.02,504.36L494.69,504.62L491.17,505.52L491.17,505.52L489.11,502.73L487.26,500.84L486.27,500.11L485.33,499.64L483.49,498.3L482.96,498.02L482.4,497.84L481.38,497.82L480.28,498.24L478.45,499.36L477.86,499.56z" 
                fill="rgb(151, 144, 238)" 
                stroke="white" 
                stroke-width=".7px"
                title="Cəlilabab" 
                id="AZ-CAL" 
            />
        </svg>