<svg xmlns="http://www.w3.org/2000/svg" viewBox="139.76 216.85 55.32000000000002 64.69000000000003" width="55.32000000000002" height="64.69000000000003">
            <path 
                d="M184.32,279.56L180.55,279.86L177.17,279.99L176.67,280.11L175.35,280.71L174.24,280.89L169.45,280.82L168.29,280.7L167.74,280.55L166.43,279.9L165.92,279.76L163.79,279.47L163.29,279.33L161.97,278.68L161.41,278.53L160.21,278.4L158.36,278.36L157.15,278.43L156.59,278.56L155.26,279.17L154.74,279.3L152.44,279.48L151.3,279.73L150.85,279.98L150.17,281.15L150.17,281.15L145.71,281.53L144.88,281.54L143.71,281.34L142.79,280.59L141.58,278.89L140.97,278.29L140.97,278.29L140.88,276.72L141.03,275.55L141.26,274.95L141.59,274.43L142.8,273.38L143.08,272.52L143.15,267.15L143.36,265.99L145.36,262.15L144.25,259.92L142.42,257.31L141.24,255.17L140.69,253.87L140,252.58L139.87,252.08L139.78,251.01L139.76,247.14L139.86,245.52L140,245.03L140.25,244.59L140.94,243.8L144.47,240.48L145.57,239.78L147.7,238.67L148.68,238.3L150.04,237.55L151.1,237.11L152.07,236.39L152.07,236.39L153.15,235.29L153.18,234.2L156.91,230.56L157.45,229.8L158.11,228.46L160.54,225.86L160.81,225.46L161.19,224.52L161.93,223.27L162.3,222.33L163.03,221.08L163.4,220.13L164.78,217.73L165.34,217.21L166.04,216.91L166.43,216.85L167.59,217L168.88,217.75L169.85,218.16L171.16,218.96L172.18,219.4L174.17,220.79L174.17,220.79L178.15,223.34L179.65,224.43L181.36,225.28L184.11,227.83L185.82,228.7L188.59,231.24L190.23,232.06L190.65,232.54L190.72,232.8L190.41,233.45L189.27,234.74L188.69,235.99L188.14,236.74L184.32,240.46L183.7,241.17L182.85,242.84L181.43,244.46L181.24,244.81L181.16,245.45L181.37,246.09L181.93,247.04L182.32,247.99L183.17,249.1L190.25,256.2L191.44,257.08L193.3,258.22L194.88,259.36L195.08,260.98L193.33,264.23L192.76,265.17L192.04,266.02L189.84,268.15L189.13,268.71L187.79,269.3L187.05,269.79L186.08,270.73L185.66,271.33L185.26,272.26L184.56,273.53L184.44,273.98L184.35,274.96z" 
                fill="rgb(151, 144, 238)" 
                stroke="white" 
                stroke-width=".7px"
                title="Daşkəsən" 
                id="AZ-DAS" 
            />
        </svg>