<svg xmlns="http://www.w3.org/2000/svg" viewBox="298.07 377.39 82.44999999999999 65.67000000000002" width="82.44999999999999" height="65.67000000000002">
            <path 
                d="M341.53,433.26L340.54,434.51L338.88,437.96L336.93,439.94L332.03,443.06L332.03,443.06L331.64,442.49L331,441.18L329.09,439.15L328.38,438.57L327.06,437.91L325.23,436.54L324.54,436.2L323.7,436.14L322.41,436.71L321.91,436.83L319.75,437.01L319.24,437.14L317.94,437.71L317.47,437.73L316.8,437.48L316.51,437.25L316.09,436.63L315.59,434.75L314.9,433.46L314.52,432.52L313.8,431.25L313.41,430.31L312.66,429.33L311.87,428.67L311.16,428.29L309.23,427.77L308.79,427.54L302.94,423.92L302.94,423.92L303.97,422.97L304.27,422.49L304.38,421.98L304.34,421.47L303.91,420.12L303.93,419.83L304.06,419.6L304.29,419.43L304.72,419.29L307.99,419.2L308.41,419.07L308.75,418.67L308.69,418.06L308.16,416.56L307.9,413.33L307.77,412.83L307.18,411.56L307.15,411.1L307.39,410.44L307.85,409.91L309.04,409.32L309.67,408.77L309.8,408.43L309.77,408.16L309.45,407.26L309.4,406.79L309.46,406.31L309.82,405.33L309.87,404.71L309.54,404.28L308.62,404.06L307.56,404.14L306.8,404.42L306.03,404.92L302.94,407.7L300.58,408.88L300.17,408.96L299.87,408.91L299.23,408.61L298.61,408.16L298.2,407.59L298.07,407.11L298.18,406.13L298.64,405.39L300.3,403.44L300.89,403.05L301.37,402.91L303.55,402.83L304.6,402.68L307.23,401.55L308.24,400.94L308.78,400.43L309.12,399.66L309.16,399.16L308.96,398.21L308.5,397.78L308.05,397.65L307.56,397.67L306.82,397.92L305.2,399.01L304.09,399.49L303.04,399.53L302.09,399.2L300.07,398.02L299.78,397.76L299.35,397.11L299.11,396.23L299.09,395.71L299.15,395.2L299.31,394.76L299.51,394.51L299.77,394.32L300.23,394.17L300.75,394.11L305.25,394.21L306.84,394.04L308.13,393.39L309.08,393.03L310.35,392.34L311.31,391.98L314.12,390.5L314.92,389.87L315.95,388.86L316.54,388.18L317.23,387.08L317.7,386.62L318.12,386.5L319.73,386.7L320.21,386.64L323.74,385.01L324.25,384.89L325.32,384.83L329.79,384.93L330.87,384.87L331.82,384.56L335.1,382.99L335.84,382.78L337.05,382.59L337.05,382.59L343.11,381.8L344.21,381.32L346.58,379.4L347.67,378.93L350.93,378.72L351.44,378.61L353.2,377.9L357.45,377.39L357.45,377.39L358.35,381.1L358.92,382.13L359.4,382.76L359.98,383.18L360.47,383.33L363.76,383.54L364.55,383.88L365.07,384.42L365.5,385.08L366.49,387.12L367.77,388.68L368.68,390.42L369.63,391.5L371.36,393.23L372.4,394.13L374.15,395.04L376.14,396.59L377.47,397.24L378.17,397.83L379.03,398.79L380.31,401.32L380.44,401.82L380.52,402.88L380.52,405.06L380.43,406.11L380.29,406.6L378.48,409.98L378.48,409.98L375.04,412.35L370.93,415.95L367.5,418.2L362.74,420.15L359.06,421.29L356.32,422.57L352.12,424.3L349.32,424.46L346.75,425.36L345.23,428.25L343.51,430.78z" 
                fill="rgb(151, 144, 238)" 
                stroke="white" 
                stroke-width=".7px"
                title="Füzuli" 
                id="AZ-FUZ" 
            />
        </svg>