<svg xmlns="http://www.w3.org/2000/svg" viewBox="205.52000000000024 165.27999999999997 85.52999999999977 123.13" width="85.52999999999977" height="123.13">
            <path 
                d="M291.05,241.13l-0.13,-0.25l-0.22,-0.19l-0.43,-0.16l-0.5,-0.08l-1.65,-0.01l-1.05,0.2l-1.34,0.64l-0.51,0.13l-1.06,0.04l-0.52,-0.07l-0.79,-0.35l-0.74,-0.87l-0.53,-1.02l-0.46,-2.06l-0.64,-1.32l-0.19,-1.03l0.07,-1.59l0.13,-0.49l0.65,-1.29l0.14,-0.54l0.12,-1.75l0.02,-3.01l-0.06,-1.19l-0.24,-0.94l-0.39,-0.66l-0.53,-0.48l-0.92,-0.47l-1.85,-1.39l-0.72,-0.39l-0.91,-0.24l-1.08,-0.02l-0.91,0.2l-0.71,0.36l-1.37,1.03l-1.83,0.98l-1.19,0.96l-0.84,0.52l-0.98,0.14l-0.45,-0.08l-0.35,-0.2l-0.2,-0.36l-0.15,-0.98l0.04,-2.78l0.22,-1.02l0.54,-0.82l0.97,-1.15l1.01,-1.78l2.34,-2.52l1.07,-1.84l1.02,-1.26l0.19,-0.54l-0.11,-0.34l-0.26,-0.32l-1.74,-1.02l-1.74,-1.28l-0.75,-0.31l-0.53,-0.11l-3.33,-0.15l-1.04,-0.21l-2.44,-1.39l-0.52,-0.56l-0.32,-0.71l-0.16,-1.07l-0.02,-1.67l0.05,-1.1l0.21,-1.03l2.92,-5.66l0.2,-1.12l-0.01,-10.87l-0.21,-1.13l-0.64,-1.32l-0.14,-0.55l-0.1,-1.17l0,-3.63l0.08,-1.21l0.22,-1.11l1.35,-4.82l-3.78,3.64l-0.61,0.72l-0.76,1.42l-0.56,0.75l-4.13,4.09l-0.53,0.75l-0.62,1.33l-0.96,1.06l-3.47,3.4l-0.54,0.75l-0.63,1.34l-0.98,1.07l-3.51,3.36l-0.74,0.49l-1.34,0.58l-2.4,2.15l-0.74,0.49l-1.36,0.58l-0.7,0.57l-0.58,0.64l-0.23,0.55l0.06,0.29l1.35,2.79l0.01,0.57l-0.88,1.7l-0.47,0.61l-0.64,0.44l-3.67,1.89l-1.19,0.99l-1.25,1.34l-0.33,0.8l-0.11,1.85l-0.15,0.89l-1.02,1.98l-0.38,0.96l-0.2,1l-0.16,1.63l2.05,1.74l0.46,1.08l1.47,2.79l0.2,1.1l-0.07,1.63l-0.14,0.5l-0.69,1.28l-0.2,1.02l0.01,6.62l0.24,0.89l0.41,0.66l0.55,0.47l0.88,0.45l0.43,0.48l0.12,0.44l-0.12,0.79l-0.47,1.29l-0.27,0.41l-2.46,2.6l-0.67,1.34l-0.62,0.84l-9.89,9.57l-1.1,1.18l-3.17,6.16l-1.1,1.18l-3.97,3.79l-0.7,0.8l-0.25,0.44l-0.2,1.02l-0.01,3.85l-0.09,1.06l-0.13,0.49l-0.67,1.27l-0.19,0.96l-0.03,5.23l0.18,4.79l1,0.72l2.18,1.26l2.29,1.15l0.51,0.14l1.08,0.11l3.35,0.08l2.19,-0.05l0.5,-0.12l1.29,-0.65l0.95,-0.37l2.46,-1.3l1.93,-1.3l4.01,-2.08l4.89,-3.97l-0.11,-1.04l0.43,-1.77l0.76,-1.03l0.79,-0.65l1.1,-0.46l2.16,-0.28l0.74,-0.27l0.76,-0.49l1.55,-1.34l0.76,-0.49l0.74,-0.29l1.54,-0.35l2.25,-1l2.11,-1.1l1.13,-0.73l2.06,-1.79l1.38,-0.68l1.83,-1.3l0.71,-0.35l0.94,-0.21l1.16,-0.04l7.63,0.21l1.72,-0.06l0.53,-0.12l2.13,-1.07l1.12,-0.73l2.06,-1.79l1.85,-0.96l2.6,-2.24l1.81,-0.98l0.66,-0.74l0.5,-0.99l0.74,-1l1.7,-1.76l1.64,-0.95l1.21,-0.57l1.35,0.03l0.93,-0.65l0.25,-1.99l0.72,-1.14l0.14,-1.98l0.63,-2.02L291.05,241.13zM269.64,258.31l-1.84,1.35l-3.56,-0.49l-1.72,-1.84l-0.12,-2.45l0.98,-1.96l3.07,-0.98l3.19,1.23l0.61,3.19L269.64,258.31z" 
                fill="rgb(151, 144, 238)" 
                stroke="white" 
                stroke-width=".7px"
                title="Goranboy" 
                id="AZ-GOR" 
            />
        </svg>