<svg xmlns="http://www.w3.org/2000/svg" viewBox="174.17 188.52 57.48000000000002 96.45000000000002" width="57.48000000000002" height="96.45000000000002">
            <path 
                d="M184.32,279.56L184.35,274.96L184.44,273.98L184.56,273.53L185.26,272.26L185.66,271.33L186.08,270.73L187.05,269.79L187.79,269.3L189.13,268.71L189.84,268.15L192.04,266.02L192.76,265.17L193.33,264.23L195.08,260.98L194.88,259.36L193.3,258.22L191.44,257.08L190.25,256.2L183.17,249.1L182.32,247.99L181.93,247.04L181.37,246.09L181.16,245.45L181.24,244.81L181.43,244.46L182.85,242.84L183.7,241.17L184.32,240.46L188.14,236.74L188.69,235.99L189.27,234.74L190.41,233.45L190.72,232.8L190.65,232.54L190.23,232.06L188.59,231.24L185.82,228.7L184.11,227.83L181.36,225.28L179.65,224.43L178.15,223.34L174.17,220.79L174.17,220.79L177.15,218.65L178.92,216.63L179.5,216.23L179.99,216.08L181.09,216L188.84,216.16L189.41,216.08L190.16,215.8L190.91,215.31L191.63,214.6L192.05,214L192.92,212.22L193.25,211.28L193.37,207.46L193.56,206.44L195.34,202.97L195.48,202.42L195.57,201.26L195.58,197.64L195.8,196.53L196.04,196.1L197.61,194.15L200.38,188.52L200.38,188.52L202.57,192.28L204.26,195.6L204.39,196.1L204.61,198.23L204.74,198.74L205.38,200.06L205.51,200.56L205.61,201.65L205.75,206.93L205.75,206.93L204.17,207.96L201.85,209.18L201,209.96L200.39,210.91L200.27,211.44L200.3,211.92L201.01,213.73L201.13,215.35L201.01,216.97L200.87,217.47L200.23,218.78L200.12,219.27L200.17,220.29L200.38,220.82L200.71,221.3L201.15,221.68L203.42,222.9L203.89,222.93L204.41,222.79L204.88,222.5L207.41,219.52L209.32,217.93L210.75,216.46L211.29,215.55L211.91,213.66L211.91,213.66L214.54,215.01L218.35,215.99L222.61,216.08L225.07,215.46L225.94,214.78L225.94,214.78L227.99,216.53L228.45,217.6L229.92,220.39L230.11,221.48L230.04,223.11L229.91,223.61L229.22,224.89L229.02,225.91L229.03,232.53L229.27,233.43L229.68,234.09L230.23,234.55L231.11,235.01L231.54,235.48L231.65,235.92L231.54,236.71L231.07,238L230.8,238.41L228.34,241.01L227.68,242.35L227.06,243.19L217.17,252.76L216.07,253.94L212.9,260.1L211.81,261.28L207.83,265.07L207.13,265.86L206.87,266.3L206.68,267.32L206.67,271.17L206.58,272.23L206.45,272.72L205.77,273.99L205.58,274.95L205.55,280.18L205.73,284.97L205.73,284.97L201.73,283.91L199.48,283.55L198.97,283.4L197.65,282.75L197.08,282.6L195.24,282.46L189.57,282.36L188.33,282.23L187.28,281.82z" 
                fill="rgb(151, 144, 238)" 
                stroke="white" 
                stroke-width=".7px"
                title="Göygöl" 
                id="AZ-GYG" 
            />
        </svg>