<svg xmlns="http://www.w3.org/2000/svg" viewBox="373.23 215.96 61.60999999999996 40.74999999999997" width="61.60999999999996" height="40.74999999999997">
            <path 
                d="M427.06,256.38L424.71,254.9L424.09,254.61L423.58,254.54L423.08,254.6L421.77,255.2L420.73,255.38L416.83,255.34L415.25,255.09L413.96,254.37L413,253.96L411.73,253.2L410.78,252.8L409.51,252.05L408.55,251.65L407.28,250.9L406.32,250.5L405.05,249.75L404.09,249.34L402.82,248.58L401.87,248.17L400.57,247.43L400.06,247.29L399,247.21L398.47,247.26L397.69,247.59L396.95,248.45L395.95,250.28L395.5,250.88L394.88,251.25L394.54,251.33L394.07,251.3L391.83,250.23L389.37,248.8L388.62,248.25L386.67,246.49L383.86,244.87L383.36,244.75L382.31,244.79L381.22,245.28L379.37,246.6L378.88,246.73L377.94,246.67L377.59,246.48L377.38,246.13L376.94,244.86L376.61,244.58L374.93,243.55L373.51,242.99L373.27,242.69L373.23,242.37L373.37,241.89L373.37,241.89L373.85,237.32L373.94,234.42L374.12,233.53L375.5,230.93L377.63,228.74L377.89,228.38L378,228.01L377.89,227.64L377.64,227.27L375.9,225.31L373.67,222.12L373.67,222.12L378.14,219.51L380.71,218.34L381.25,218.22L382.4,218.16L387.18,218.28L388.96,218.21L390,217.83L392.68,215.96L392.68,215.96L396.8,217.17L399.49,217.64L405.23,220.65L405.71,220.73L406.18,220.67L409.69,218.99L410.16,218.93L410.64,219L411.93,219.66L413.97,220.17L415.27,220.86L418.43,221.38L419.74,222.06L421.78,222.56L423.08,223.24L425.12,223.74L426.42,224.42L429.59,224.92L432.43,226.5L433.21,227.18L433.79,227.87L434.76,229.95L434.84,230.34L434.75,230.72L433.97,232.45L433.22,233.7L432.82,234.63L430.97,236.96L429.85,239.16L429.72,239.66L429.68,241.31L429.94,242.4L430.53,243.2L431.63,244.05L431.63,244.05L432.53,247.27L432.93,249.04L433.02,251.82L432.79,253.39L432.16,254.69L431.75,256.1L431.52,256.44L431.15,256.63L430.04,256.71z" 
                fill="rgb(151, 144, 238)" 
                stroke="white" 
                stroke-width=".7px"
                title="Göyçay" 
                id="AZ-GOY" 
            />
        </svg>