<svg xmlns="http://www.w3.org/2000/svg" viewBox="78.53000000000002 190.20000000000005 73.96999999999996 88.11999999999995" width="73.96999999999996" height="88.11999999999995">
            <path 
                d="M151.89,225.25l0.57,-1.62l0.04,-0.47l-0.11,-0.44l-0.42,-0.48l-0.89,-0.44l-0.75,-0.52l-2,-2l-0.48,-0.76l-0.52,-1.9l-0.42,-0.64l-0.29,-0.26l-2.42,-1.42l-0.97,-0.39l-2.09,-1.2l-0.87,-0.77l-0.92,-1.56l-1.3,-1.59l-0.93,-1.79l-1.3,-1.58l-1.36,-2.66l-0.18,-1.04l-0.1,-2.73l-0.3,-0.83l-0.51,-0.66l-0.67,-0.64l-0.74,-0.52l-0.94,-0.43l-0.55,-0.46l-1.21,-2.1l-2.17,-3.15l-0.74,4.18l-0.78,1.72l-0.2,1.1l0.01,6.48l0.21,1.1l0.64,1.31l0.15,1.01l-0.16,1l-0.64,1.29l-0.21,1.1l-0.02,11.9l-0.1,1.74l-0.14,0.54l-1.06,2.24l-0.8,1.32l-0.5,0.6l-0.61,0.49l-0.68,0.39l-0.66,0.25l-0.85,-0.07l-1.11,-0.66l-1.13,-1.12l-1.43,-1.75l-0.58,-0.42l-0.49,-0.16l-2.14,-0.27l-0.49,-0.16l-0.31,-0.18l-0.52,-0.53l-0.58,-0.98l-0.17,-0.81l0.08,-0.48l0.62,-1.29l0.14,-0.5l0.12,-1.07l-0.01,-1.09l-0.23,-1l-0.72,-0.83l-1.32,-0.82l-0.97,-0.4l-3.54,-1.85l-0.55,-0.15l-1.17,-0.11l-4.85,-0.12l-0.93,-0.26l-0.63,-0.43l-0.42,-0.63l-0.25,-0.93l-0.02,-4.82l-0.08,-1.17l-0.13,-0.55l-1.34,-2.64l-1.4,-1.55l-3.47,2.88l-3.71,1.6l-0.66,0.7l-0.88,2.91l-0.47,1.14l-1.14,1.08l-1.94,2.4l-2.39,4.26l-0.15,1.14l-0.06,0.83l0.29,0.92l1.4,0.84l0.53,0.77l0.1,0.68l-0.27,1.18l0.13,2.11l0.61,0.89l1.36,0.79l3.42,-0.45l2.44,1.74l0.9,0.27l1.77,3.03l-1.6,3.2l-0.11,1.03l0.97,2.05l-0.75,1.13l-0.64,1.45l-0.21,1.54l0.31,1.63l1.03,1.22l5.37,4.17l1.81,0.33l3.55,0.43l1.25,0.63l1.55,1l1.13,1.7l1.35,3.56l4.57,4.14l2.21,2.52l1.57,2.66l2.29,2.57l3.75,0.24l2.43,0.56l8.04,2.84l6.21,3.06l1.39,0.8l1.54,1.24l0.76,0.75l-0.09,-1.57l0.15,-1.17l0.23,-0.6l0.32,-0.52l1.21,-1.05l0.28,-0.86l0.07,-5.37l0.21,-1.16l2,-3.85l-1.11,-2.23l-1.83,-2.61l-1.18,-2.13l-0.55,-1.3l-0.7,-1.29l-0.13,-0.5l-0.09,-1.07l-0.02,-3.87l0.09,-1.62l0.14,-0.49l0.25,-0.44l0.69,-0.79l3.52,-3.32l1.1,-0.7l2.13,-1.11l0.98,-0.37l1.36,-0.75l1.06,-0.44l0.96,-0.72l-0.98,-1.02l-0.12,-0.28l-0.03,-0.47l0.15,-0.58l0.99,-0.97l0.01,-2.63l-0.1,-1.15l-0.14,-0.52l-0.64,-1.31l-0.06,-0.48l0.08,-0.47L151.89,225.25zM101.34,220.46l-1.46,2.29l-3.56,-0.06l-3.11,-2.92l-0.7,-2.8l1.91,-2.99l1.59,-0.64l1.33,0.57l1.91,1.33l2.67,3.11L101.34,220.46z" 
                fill="rgb(151, 144, 238)" 
                stroke="white" 
                stroke-width=".7px"
                title="Gədəbəy" 
                id="AZ-GAD" 
            />
        </svg>