<svg xmlns="http://www.w3.org/2000/svg" viewBox="200.12 206.73 12.569999999999993 16.200000000000017" width="12.569999999999993" height="16.200000000000017">
            <path 
                d="M205.75,206.93L207.63,206.73L209.41,206.74L209.96,206.87L210.67,207.2L211.7,207.9L212.21,208.46L212.49,208.97L212.66,209.53L212.69,210.06L212.31,212.27L211.91,213.66L211.91,213.66L211.29,215.55L210.75,216.46L209.32,217.93L207.41,219.52L204.88,222.5L204.41,222.79L203.89,222.93L203.42,222.9L201.15,221.68L200.71,221.3L200.38,220.82L200.17,220.29L200.12,219.27L200.23,218.78L200.87,217.47L201.01,216.97L201.13,215.35L201.01,213.73L200.3,211.92L200.27,211.44L200.39,210.91L201,209.96L201.85,209.18L204.17,207.96z" 
                fill="rgb(151, 144, 238)" 
                stroke="white" 
                stroke-width=".7px"
                title="Gəncə" 
                id="AZ-GA" 
            />
        </svg>