<svg xmlns="http://www.w3.org/2000/svg" viewBox="486.19 273.14 121.14000000000004 91.62" width="121.14000000000004" height="91.62">
            <path 
                d="M551.12,347.31L551.14,344.86L551.25,344.14L551.59,343.49L552.91,341.98L553.13,341.58L553.21,340.96L553.14,340.65L552.61,339.84L550.46,337.56L549.81,336.18L548.42,333.81L548.16,333.6L547.58,333.45L546.92,333.57L545.39,334.24L544.85,334.78L544.53,335.48L544.47,335.86L544.6,337L545.33,338.29L545.73,339.24L546.5,340.69L546.6,342.13L546.36,346.03L546.36,346.03L542.2,343.73L541.52,343.21L541.18,342.46L540.99,339.8L540.85,339.3L540.48,338.68L539.26,337.48L537.83,336.75L536.92,336.09L535.9,334.96L535.04,333.51L534.18,332.74L532.08,331.58L529.43,331.14L527.11,330.33L524.42,329.92L522.63,329.18L519.99,328.7L518.67,328.05L516.79,327.48L516.15,327.05L515.68,326.44L514.49,324.36L513.45,322.14L513.39,321.67L513.46,321.2L513.64,320.78L515.23,317.77L515.73,315.75L516.21,314.42L516.09,313.82L515.31,313.1L514.31,312.57L512.23,312.08L506.89,309.33L505.93,308.98L504.22,308.84L493.72,308.64L488.5,308.82L488.5,308.82L488.72,306.13L488.74,303.08L488.95,302.06L489.59,300.77L489.74,300.22L489.85,298.44L489.81,296.62L489.59,295.48L488.96,294.17L488.81,293.63L488.72,292.49L488.71,288.32L488.6,287.13L488.42,286.57L487.8,285.69L487.24,285.18L486.19,284.58L486.19,284.58L487.77,280.57L488.57,278.81L488.96,276.7L489.17,276.37L489.69,275.88L490.63,275.45L490.63,275.45L491.84,276.22L493.06,276.65L494.23,276.77L498.2,276.88L499.66,277.18L500.78,277.89L502.32,279.31L503.08,279.83L503.81,280.16L505.34,280.57L506.66,281.23L508.19,281.65L508.93,281.97L511.11,283.55L512.51,284.3L514.21,285.62L516.24,286.76L516.67,286.93L517.15,286.97L518.2,286.59L520.7,284.48L522.56,283.52L523.87,282.41L525.03,281.15L525.3,280.68L525.44,280.19L525.8,277.45L526.74,273.14L526.74,273.14L529.15,275.66L530.02,276.24L530.54,276.4L532.19,276.55L536.16,276.58L537.92,276.4L540.43,275.94L540.43,275.94L541,280L541.14,282.21L541.24,282.74L541.55,283.45L541.77,283.76L542.31,284.23L543.66,284.94L545.24,286.23L546.61,286.92L547.34,287.43L550.32,290.42L550.94,291.29L551.63,292.68L551.63,292.68L551.97,293.1L551.97,293.1L556.24,297.55L558.29,301.58L559.58,303.17L560.51,304.72L561.06,305.25L561.76,305.58L562.83,305.74L566.75,305.81L568.38,305.94L568.88,306.08L570.18,306.76L570.68,306.91L570.68,306.91L572.87,307.06L580.14,307.17L580.14,307.17L581.78,307.35L581.78,307.35L582.52,307.66L582.52,307.66L583.64,308.54L583.64,308.54L584.21,309.22L585.08,310.9L585.08,310.9L586.36,312.48L586.36,312.48L586.59,312.91L586.59,312.91L586.8,313.92L586.8,317.76L586.8,317.76L586.88,318.82L587,319.32L587,319.32L588.37,321.96L588.37,321.96L590.49,324.24L590.49,324.24L591.07,325.04L592.17,327.27L592.17,327.27L592.35,328.29L592.44,332.08L592.58,332.58L593.17,333.46L593.17,333.46L595.15,335.5L595.89,336.38L598.75,340.59L599.32,340.96L599.75,341.5L600.37,343.63L601.05,344.95L601.49,348.08L602.85,350.71L604.15,352.27L605.1,354.02L606.09,355.19L606.63,356.01L606.84,357.02L606.92,359.78L607.33,364.76L607.33,364.76L603,360.89L602.3,360.41L600.9,359.7L600.07,358.98L598.9,357.78L598.32,357.06L597.73,355.79L597.31,355.17L596.21,354.12L595.51,353.78L594.68,353.72L592.44,354.71L591.15,355.39L590.64,355.51L589.57,355.56L588.5,355.46L587.99,355.31L586.68,354.63L586.18,354.48L585.11,354.39L584.03,354.49L581.73,355.25L580.66,355.31L579.66,355.09L576.9,353.84L574.9,353.16L569.96,352.77L566.71,350.92L562.8,347.93L560.29,346.51L559.51,346.23L558.58,346.13L555.01,346.08L553.66,346.89L551.88,347.59z" 
                fill="rgb(151, 144, 238)" 
                stroke="white" 
                stroke-width=".7px"
                title="Hacıqabul" 
                id="AZ-HAC" 
            />
        </svg>