<svg xmlns="http://www.w3.org/2000/svg" viewBox="393.88 309.74 84.29000000000002 97.70999999999998" width="84.29000000000002" height="97.70999999999998">
            <path 
                d="M399.45,395.64L399.44,389.13L399.53,388.08L399.91,387.18L401.2,385.67L402.07,384.05L402.6,383.43L403.62,382.56L404.94,381.96L406.94,380.49L408.72,379.62L411.42,377.32L412.8,376.69L413.55,376.21L414.23,375.6L414.73,374.98L414.96,374.21L414.88,373.74L414.43,373.01L413.46,371.98L412.26,370.96L409.41,369.4L407.87,369.01L406.87,368.43L406.41,367.83L405.7,366.61L404.4,365.04L402.59,361.59L402.12,360.98L401.49,360.55L399.59,360.01L398.27,359.35L396.7,359.03L395.84,358.74L394.53,357.87L394.09,357.3L393.88,356.3L393.94,355.25L394.09,354.76L394.71,353.89L397.18,351.55L397.92,350.74L398.19,350.28L398.34,349.79L398.41,348.74L398.27,347.69L397.93,346.99L397.69,346.7L397.06,346.23L395.87,345.63L394.85,344.99L394.3,344.47L394.11,344.17L393.9,343.17L393.92,342.65L394.14,341.77L394.55,341.13L395.1,340.68L396.45,340.03L398.04,338.81L399.41,338.18L401.41,336.71L403.05,335.86L403.54,335.32L404.68,333.37L404.89,332.95L405.05,331.94L404.89,330.93L404.23,329.63L403.78,327.6L403.02,326.25L402.52,325.64L401.91,325.14L400.9,324.5L399.35,323.72L398.2,322.84L396.94,321.39L394.82,318.08L394.82,318.08L400.61,318.69L403.43,318.79L404.52,318.71L405.4,318.36L406.05,317.75L406.73,316.65L407.69,314.65L407.69,314.65L409.23,318.16L409.72,321.04L410.48,322.39L411,322.93L411.3,323.12L412.32,323.35L413.39,323.31L413.9,323.18L415.2,322.49L416.96,321.74L417.35,321.66L417.73,321.75L419.5,322.56L420.78,323.35L422.42,324.08L423.11,324.32L423.44,324.32L423.99,324.03L424.45,323.45L424.95,322.48L425.01,322L424.93,321.51L424.23,320.21L423.36,318.25L423.29,317.63L423.41,317.4L423.63,317.22L424.06,317.09L427.34,317L427.79,316.86L428.06,316.67L428.25,316.42L428.41,315.98L428.73,313.92L429.98,311.38L430.55,310.72L431.33,310.08L432.03,309.77L432.88,309.74L434.98,310.87L435.59,311.35L436.15,312.37L436.66,314.25L437.51,315.55L438.08,315.98L439.91,316.6L440.91,317.22L441.45,317.74L441.78,318.52L442.15,320.46L442.54,321.13L443.07,321.6L444.37,322.29L445.82,323.43L446.92,323.95L448,324.1L449.11,324.12L450.2,324.06L451.41,323.81L451.9,323.78L452.38,323.88L454.23,325.09L455.55,325.76L456.25,326.35L459.12,329.21L460.04,330.4L460.46,331.9L461.02,336.01L461.02,336.01L459.2,339.36L458.06,341.25L457.88,341.81L457.99,342.18L458.24,342.55L460.02,344.42L460.62,345.23L461.74,347.46L461.86,347.95L461.86,348.97L461.73,349.46L461.03,350.71L460.63,351.64L459.89,352.87L459.5,353.8L458.76,355.03L458.37,355.96L457.63,357.19L457.24,358.11L456.53,359.36L456.4,359.85L456.32,360.9L456.4,361.96L456.53,362.45L457.2,363.75L457.52,365.27L457.87,366.2L458.93,368.3L459.87,369.33L460.62,369.87L463.11,371.21L463.61,371.34L465.76,371.58L466.27,371.71L467.58,372.36L469.71,372.69L470.6,372.94L471.23,373.37L471.49,373.65L472.43,375.18L473.73,376.76L474.11,377.68L474.18,378.73L474.09,379.78L473.96,380.27L473.28,381.53L473.08,382.54L473.01,390.18L473.14,391.68L473.33,392.06L474.86,393.16L476.54,394.78L477.22,395.71L478.17,397.35L478.17,397.35L477.93,398.14L476.84,399.67L475.96,401.41L474.96,402.48L471.37,405.92L470.19,406.9L469.48,407.26L468.61,407.45L465.04,407.42L463.54,407.3L463.08,407.17L461.8,406.44L460.84,406.05L458.04,404.45L455.5,402.18L454.16,401.53L452.19,399.96L450.4,399.03L447.73,396.6L445.98,395.7L444.61,394.46L434.21,384.06L433.07,383.17L430.6,381.82L428.55,381.35L427.25,380.65L426.82,380.52L425.43,380.4L424.08,380.57L421.57,381.83L420.81,382.34L419.88,383.34L419.72,383.66L419.64,384.31L419.85,385.01L421.94,388.42L421.94,388.42L421.03,389.09L418.65,390.34L416.43,390.83L414.78,391.67L406.31,390.99L402.64,392.5L400.14,394.88z" 
                fill="rgb(151, 144, 238)" 
                stroke="white" 
                stroke-width=".7px"
                title="İmişli" 
                id="AZ-IMI" 
            />
        </svg>