<svg xmlns="http://www.w3.org/2000/svg" viewBox="392.68 148.39 101.65999999999997 95.66000000000003" width="101.65999999999997" height="95.66000000000003">
            <path 
                d="M488.97,195.31L488.72,196.54L487.9,198.33L487.44,200.42L486.77,201.71L486.32,203.73L485.66,205.01L485.22,207.03L484.53,208.3L484.13,209.24L483.72,209.84L483.09,210.5L482.01,211.28L480.64,211.91L477.95,214.24L476.17,215.13L474.61,216.38L472.87,217.24L471.08,218.55L468.62,219.84L467.66,220.2L464.15,221.95L463.19,222.3L460.76,223.62L460.48,223.86L460.06,224.49L459.54,226.91L459.12,227.47L457.82,228.29L455.53,228.86L454.4,229.5L448.27,235.4L447.71,236.23L447.58,236.72L447.48,239.45L447.29,240.49L446.91,241.11L446.19,241.82L445.78,242.12L445.05,242.43L444.67,242.48L444.15,242.39L443.25,241.72L442.36,240.69L442.36,240.69L438.08,242.32L437.51,242.61L436.29,243.49L431.63,244.05L431.63,244.05L430.53,243.2L429.94,242.4L429.68,241.31L429.72,239.66L429.85,239.16L430.97,236.96L432.82,234.63L433.22,233.7L433.97,232.45L434.75,230.72L434.84,230.34L434.76,229.95L433.79,227.87L433.21,227.18L432.43,226.5L429.59,224.92L426.42,224.42L425.12,223.74L423.08,223.24L421.78,222.56L419.74,222.06L418.43,221.38L415.27,220.86L413.97,220.17L411.93,219.66L410.64,219L410.16,218.93L409.69,218.99L406.18,220.67L405.71,220.73L405.23,220.65L399.49,217.64L396.8,217.17L392.68,215.96L392.68,215.96L393.52,214.57L394.18,213.18L394.65,212.51L395.21,212.05L396.15,211.64L396.89,211.15L398.09,209.9L399.4,207.4L399.78,206.46L400.5,205.21L400.89,204.26L401.61,203.01L402.15,201.72L402.77,200.74L403.27,200.15L403.87,199.66L404.88,199.07L406.19,198.56L408.66,197.28L410.59,195.97L416.13,193.22L416.74,192.77L416.98,192.47L417.3,191.78L417.44,190.72L417.43,185.15L417.5,184.64L417.67,184.2L417.86,183.95L418.58,183.61L420.67,183.34L422.83,182.29L423.93,181.59L424.65,180.88L425.07,180.28L426.17,178.06L426.3,177.56L426.36,175.95L426.17,174.91L425.51,173.59L425.17,172.06L424.78,171.13L423.5,169.54L422.53,167.75L421.54,166.56L421,165.73L420.87,165.23L420.86,164.19L420.98,163.7L421.58,162.44L421.67,161.37L422.07,160.31L422.8,159.39L423.46,158.83L424.12,158.58L424.47,158.71L424.79,158.98L425.57,160.03L425.92,160.17L426.31,160.12L426.58,159.98L427.03,159.46L427.33,158.76L427.72,156.09L428.36,154.78L428.83,152.74L429.39,151.86L432.14,148.39L432.14,148.39L434.01,149.04L435.2,149.34L436.37,149.46L439.75,149.58L440.78,149.8L443.25,151.19L445.19,152.56L445.92,152.88L447.46,153.3L448.77,153.98L450.25,154.46L453.21,156.33L454.16,156.75L455.44,157.5L456.39,157.91L457.67,158.66L458.62,159.07L459.89,159.83L462.14,160.96L462.64,161.09L463.68,161.1L464.18,160.99L465.49,160.36L466.5,160.22L467.52,160.39L468.83,161.05L469.34,161.2L471.48,161.46L471.98,161.6L476.48,163.9L477.4,164.6L478.24,165.52L478.59,166.05L479.08,167.15L479.47,168.39L479.47,168.39L480.47,170.51L481.02,171.45L482.64,173.28L483.83,174.32L485.71,175.33L487.06,176.22L489.41,178.33L490.77,179.21L491.93,179.82L492.56,180.28L493.03,180.91L494.19,183.03L494.34,184.05L494.18,185.07L493.47,186.34L493.07,187.28L492.32,188.53L491.94,189.47L491.2,190.74L490.43,192.72z" 
                fill="rgb(151, 144, 238)" 
                stroke="white" 
                stroke-width=".7px"
                title="İsmayıllı" 
                id="AZ-ISM" 
            />
        </svg>