<svg xmlns="http://www.w3.org/2000/svg" viewBox="407.69 240.69 82.16000000000003 95.32" width="82.16000000000003" height="95.32">
            <path 
                d="M407.69,314.65L409.59,313.22L410.37,312.75L411.22,312.49L413.41,312.26L414.16,311.99L414.93,311.5L416.11,310.42L416.86,309.57L417.88,307.74L419.86,305.68L420.48,304.78L420.63,304.29L420.73,303.24L420.73,300.49L420.61,298.88L420.48,298.38L419.84,297.08L419.71,296.58L419.48,294.47L419.34,293.97L418.71,292.67L418.57,292.14L418.48,291.02L418.54,282.29L419.35,278.58L419.35,278.58L421.44,276.72L422.54,275.53L426.09,268.65L426.22,268.12L426.31,266.98L426.35,260.48L427.06,256.38L427.06,256.38L430.04,256.71L431.15,256.63L431.52,256.44L431.75,256.1L432.16,254.69L432.79,253.39L433.02,251.82L432.93,249.04L432.53,247.27L431.63,244.05L431.63,244.05L436.29,243.49L437.51,242.61L438.08,242.32L442.36,240.69L442.36,240.69L440.59,246.92L439.92,248.2L439.44,250.2L438.78,251.48L438.65,251.98L438.53,253.6L438.56,255.25L438.79,256.25L439.21,256.83L440.83,257.91L443.1,258.97L443.58,259.04L444.07,258.97L445.36,258.33L447.32,257.53L447.94,257.48L448.35,257.82L448.5,258.25L448.84,260.32L449.21,260.97L449.92,261.74L450.67,262.27L451.42,262.56L451.94,262.63L452.81,262.46L453.45,262.06L453.92,261.46L454.66,260.21L455.76,258.99L457.72,257.13L458.84,256.48L459.79,256.28L460.97,256.25L467.54,256.39L468.65,256.51L469.14,256.67L469.71,257.1L470.59,258.39L471.82,261L471.94,261.5L471.93,262.52L471.81,263.01L471.15,264.3L471.01,264.79L470.76,266.91L470.63,267.4L470.01,268.67L469.94,269.15L470,269.62L470.18,270.05L471.1,271.72L471.57,272.33L471.88,272.57L472.59,272.89L473.67,273.05L476.46,273.16L477.36,273.41L478,273.84L478.47,274.45L479.59,276.56L480.03,278.6L481.11,280.85L481.52,281.48L482.33,282.34L483.29,283.11L486.19,284.58L486.19,284.58L487.24,285.18L487.8,285.69L488.42,286.57L488.6,287.13L488.71,288.32L488.72,292.49L488.81,293.63L488.96,294.17L489.59,295.48L489.81,296.62L489.85,298.44L489.74,300.22L489.59,300.77L488.95,302.06L488.74,303.08L488.72,306.13L488.5,308.82L488.5,308.82L486.92,309.52L485.31,310.39L483.72,310.73L483.02,311.05L482.72,311.28L482.25,311.88L480.65,314.72L480.19,315.33L479.57,315.77L475.93,317.66L473.39,319.44L473.19,319.81L472.84,321.24L471.06,324.68L470.94,325.17L470.96,326.2L471.09,326.7L471.71,327.99L471.75,328.45L471.51,329.1L471.28,329.38L470.66,329.78L468.74,330.24L466.04,331.48L464.32,332.85L461.02,336.01L461.02,336.01L460.46,331.9L460.04,330.4L459.12,329.21L456.25,326.35L455.55,325.76L454.23,325.09L452.38,323.88L451.9,323.78L451.41,323.81L450.2,324.06L449.11,324.12L448,324.1L446.92,323.95L445.82,323.43L444.37,322.29L443.07,321.6L442.54,321.13L442.15,320.46L441.78,318.52L441.45,317.74L440.91,317.22L439.91,316.6L438.08,315.98L437.51,315.55L436.66,314.25L436.15,312.37L435.59,311.35L434.98,310.87L432.88,309.74L432.03,309.77L431.33,310.08L430.55,310.72L429.98,311.38L428.73,313.92L428.41,315.98L428.25,316.42L428.06,316.67L427.79,316.86L427.34,317L424.06,317.09L423.63,317.22L423.41,317.4L423.29,317.63L423.36,318.25L424.23,320.21L424.93,321.51L425.01,322L424.95,322.48L424.45,323.45L423.99,324.03L423.44,324.32L423.11,324.32L422.42,324.08L420.78,323.35L419.5,322.56L417.73,321.75L417.35,321.66L416.96,321.74L415.2,322.49L413.9,323.18L413.39,323.31L412.32,323.35L411.3,323.12L411,322.93L410.48,322.39L409.72,321.04L409.23,318.16z" 
                fill="rgb(151, 144, 238)" 
                stroke="white" 
                stroke-width=".7px"
                title="Kürdəmir" 
                id="AZ-KUR" 
            />
        </svg>