<svg xmlns="http://www.w3.org/2000/svg" viewBox="37.95 401.22 39.209999999999994 51.44999999999999" width="39.209999999999994" height="51.44999999999999">
            <path 
                d="M77.16,409.07L74.52,416.05L74.01,419.89L70.93,421.68L71.45,425.52L71.45,430.9L70.42,434.23L68.63,438.07L66.32,442.42L65.04,446.78L62.23,449.08L59.41,451.64L57.87,450.62L55.83,451.13L52.75,452.67L50.7,450.62L47.03,451.08L47.03,451.08L46.87,450.75L45.07,452.15L44.56,450.11L41.23,446.26L37.95,441.81L37.95,441.81L38.67,438.58L41.23,435.25L45.58,431.92L50.45,429.11L55.57,425.27L58.64,418.61L60.44,413.23L61.2,407.34L65.3,403.24L69.14,401.96L71.91,401.22L71.91,401.22L75.07,406.69L75.39,407.88L76.5,408.81z" 
                fill="rgb(151, 144, 238)" 
                stroke="white" 
                stroke-width=".7px"
                title="Kǝngǝrli" 
                id="AZ-KAN" 
            />
        </svg>