<svg xmlns="http://www.w3.org/2000/svg" viewBox="108.05 278.36 156.32 87.18" width="156.32" height="87.18">
            <path 
                d="M255.96,329.4L251.41,330.65L248.45,330.83L247.94,330.94L246.93,331.45L246.31,331.9L245.88,332.45L245.42,333.89L244.3,335.96L243.87,336.58L243.32,337.03L242.03,337.66L240.22,338.97L238.67,339.6L237.89,339.7L237.47,339.56L236.99,339.06L236.12,337.67L235.4,336.92L234.65,336.38L233.91,336.05L232.36,335.63L231.07,335.01L230.6,334.98L230.25,335.06L229.64,335.42L228.3,337.42L227.16,338.46L225.99,339L223.33,339.71L223.33,339.71L219.16,341.13L217.7,341.96L216.74,342.32L215.47,343.02L214.51,343.38L213.23,344.04L212.19,344.2L208.29,344.13L207.21,344.19L206.71,344.31L205.42,344.96L204.47,345.32L202.01,346.61L200.09,347.91L198.05,348.96L197.11,349.29L195.57,349.57L194.27,350.18L193.23,350.34L189.38,350.39L188.88,350.5L187.57,351.12L187.07,351.23L183.81,351.36L183.3,351.48L181.99,352.09L181.49,352.2L179.35,352.36L178.84,352.48L177.53,353.09L177.03,353.21L174.88,353.39L174.37,353.51L173.08,354.07L172.6,354.09L171.88,353.87L170.78,353.01L170.22,352.32L169.62,351.05L169.12,350.3L167.13,348.27L166.37,347.77L165.88,347.63L164.93,347.65L164.57,347.84L164.37,348.19L164.13,350.22L164.01,350.72L163.38,352.01L163.25,352.5L163.06,354.61L162.92,355.1L162.67,355.54L160.77,357.5L159.33,358.79L158.59,359.26L157.27,359.86L156.56,360.42L152.54,364.26L151.76,364.94L150.82,365.54L150.82,365.54L148.77,364.59L143.23,362.92L142.22,362.22L141.52,361.51L141.14,360.7L140.73,357.53L138.85,348.75L138.79,345.6L138.13,344.38L136.07,343.3L133.87,342.8L130.95,342.84L130.1,342.58L126.41,339.51L119.32,337.31L115.33,336.97L113.63,335.16L113.15,334.11L113.01,332.68L113.1,332.52L108.05,332.53L109.39,330.24L110.75,328.47L113,326.97L115.36,325.71L117.92,325.49L122.42,326.11L128.18,326.54L130.1,326.76L131.22,327.11L132.07,327.65L135.84,331.17L137.5,331.85L138.43,332.36L139.21,332.38L139.77,332.09L140.42,331.64L141.15,330.92L144.78,328.34L145.65,328.05L147.29,328.31L148.06,327.86L148.51,327.29L148.62,326.31L150.11,319.99L149.83,316.84L149.84,315.46L150.23,314.45L150.69,313.84L151.42,313.31L152.94,312.66L155.03,311.43L156.09,310.45L156.71,309.49L157.81,307.48L158.41,304.15L158.69,302L158.75,300.3L159.18,298.27L160.13,297.16L160.73,295.88L160.48,294.97L158.31,292.01L156.93,290.81L155.56,290.53L152.72,289.44L151.88,288.81L151.44,287.81L151.77,286.52L152.44,286.39L153.3,286.54L155.51,287.6L156.41,287.83L157.49,287.36L157.83,286.86L157.42,286.13L153.39,282.04L152.2,281.25L151.26,281.05L150.17,281.15L150.17,281.15L150.85,279.98L151.3,279.73L152.44,279.48L154.74,279.3L155.26,279.17L156.59,278.56L157.15,278.43L158.36,278.36L160.21,278.4L161.41,278.53L161.97,278.68L163.29,279.33L163.79,279.47L165.92,279.76L166.43,279.9L167.74,280.55L168.29,280.7L169.45,280.82L174.24,280.89L175.35,280.71L176.67,280.11L177.17,279.99L180.55,279.86L184.32,279.56L184.32,279.56L187.28,281.82L188.33,282.23L189.57,282.36L195.24,282.46L197.08,282.6L197.65,282.75L198.97,283.4L199.48,283.55L201.73,283.91L205.73,284.97L205.73,284.97L206.73,285.69L208.91,286.96L211.2,288.1L211.71,288.24L212.79,288.35L216.14,288.44L218.33,288.38L218.84,288.27L220.13,287.61L221.08,287.25L223.54,285.95L225.46,284.65L229.47,282.57L234.37,278.6L234.37,278.6L233.48,283.09L233.16,284.16L232.48,285.04L231,285.86L230.52,286.4L230.21,287.1L230.05,288.79L230.05,295.19L230.15,296.89L230.28,297.41L232.07,300.92L232.26,301.95L232.39,304.64L232.52,305.15L233.15,306.47L233.43,308.55L233.52,309.02L233.72,309.37L234.08,309.57L234.53,309.65L235.5,309.51L236.39,308.93L238.48,307.1L240.86,305.81L241.81,305.49L242.88,305.44L243.95,305.54L244.46,305.68L245.77,306.35L248.41,306.81L249.11,307.15L249.66,307.67L250.31,308.8L250.98,309.69L255.85,314.66L257.57,316.23L258.97,316.98L259.49,317.44L259.83,318.08L259.9,318.42L259.86,318.89L259.3,320.14L259.23,320.6L259.3,321.06L259.82,321.8L260.86,322.51L261.66,323.26L264.37,326.85L264.37,326.85L262.12,327.24L260.69,327.66L257.43,327.77L256.84,328.09z" 
                fill="rgb(151, 144, 238)" 
                stroke="white" 
                stroke-width=".7px"
                title="Kəlbəcər" 
                id="AZ-KAL" 
            />
        </svg>