<svg xmlns="http://www.w3.org/2000/svg" viewBox="150.82 339.71 110.13 88.94" width="110.13" height="88.94">
            <path 
                d="M223.33,339.71L222,344.32L221.29,345.61L221.16,346.1L221.1,347.15L221.31,348.14L221.5,348.44L222.05,348.96L224.88,350.62L225.36,351.13L225.87,351.87L227.35,352.88L228.31,353.87L228.72,354.48L229.12,355.42L229.84,356.69L230.22,357.64L230.95,358.9L231.33,359.84L232.07,361.11L232.45,362.05L233.15,363.33L233.61,365.33L234.26,366.63L234.46,367.65L234.59,369.83L235.15,374.08L235.15,374.08L235.64,376.75L235.8,377.28L236.48,378.64L236.61,379.15L236.82,383.46L237.38,385.15L237.29,385.52L236.51,387.21L234.66,389.52L233.55,391.68L233.42,392.17L233.33,393.22L233.31,397.06L233.41,398.12L233.75,398.9L234.28,399.4L235.22,399.88L235.53,399.92L235.93,399.84L236.78,399.5L237.28,399.41L238.32,399.46L239.07,399.75L239.82,400.27L240.53,401L241.62,402.76L242.16,403.32L244.15,404.49L244.57,404.66L245.05,404.7L245.72,404.47L246.01,404.26L246.48,403.68L247.61,401.62L248.06,399.61L248.73,398.35L249.11,397.41L249.91,396.14L250.42,395.62L251.19,395.27L252.18,395L253.5,394.38L254.01,394.27L255.65,394.19L257.89,394.3L258.42,394.41L259.12,394.75L259.65,395.28L259.98,395.97L260.12,396.91L260.27,399.45L260.95,402.96L260.95,402.96L259.56,403.63L258.58,403.91L257.22,404L255.23,404L253.97,404.13L253.39,404.32L252.44,404.9L251.53,405.89L251.24,406.67L251.22,407.14L251.29,407.58L251.48,407.96L253.81,409.54L254.24,410.1L254.41,410.57L254.56,412.31L254.49,415.92L254.2,416.75L253.88,417.02L251.89,418.32L248.4,420.94L248.4,420.94L247.57,420.96L246.66,421.43L245.07,422.8L240.2,427.45L239.4,428.07L238.31,428.54L237.23,428.65L234.43,428.61L233.32,428.55L232.25,428.35L230.46,427.29L226.62,424.37L226.62,424.37L227.84,422.19L228.42,421.57L229.05,421.09L229.63,420.9L230.18,420.94L230.83,421.4L231.67,422.75L234.05,423.34L234.58,423.58L235.11,423.97L235.82,424L236.32,423.81L236.02,422.97L235.38,422.11L233.39,420.37L231.15,418.02L230.64,416.72L230.52,416.22L230.49,415.76L230.65,415.12L230.86,414.83L231.23,414.54L233.13,413.7L234.33,412.92L234.66,412.62L235.43,411.2L235.72,410.87L236.55,410.46L237.02,410.35L237.45,410.33L238.2,410.51L239.15,410.6L239.52,410.34L239.43,409.53L238.14,406.64L237.8,406.27L236.31,405.59L235.34,404.6L234.81,403.73L234.36,403.41L233.68,403.22L232.89,403.2L232.16,403.4L229.14,403.88L227,404.06L226.17,404.59L225.85,405.04L225.44,405.38L225.01,405.37L223.99,404.74L223.52,404.73L223.03,405.07L222.87,405.55L222.37,405.74L221.82,405.7L221.42,405.54L220.54,404.69L220.27,404.17L220.01,402.7L220.2,401.94L220.52,398.59L220.56,398.04L220.45,397.58L219.83,397.11L219.19,397.04L218.54,397.16L217.43,398.8L216.87,399.15L216.45,399.26L215.28,397.69L215.04,397.55L214.4,397.44L214.11,397.23L213.81,396.82L213.59,395.85L213.13,394.9L212.92,394.64L212.39,394.45L210.87,394.55L209.98,394.73L206.95,395.64L203.37,397.69L201.64,398.79L198.23,400.4L197.03,400.64L196.44,400.6L195.69,400.5L194.96,400.23L193.57,399.98L192.69,399.69L191.65,399.88L191.11,400.07L190.21,400.65L188.98,403.16L188.79,403.88L188.54,404.09L188.06,404.09L187.46,403.78L186.98,403.1L187.01,402.52L187.41,400.92L186.55,399.26L186.5,398.6L186.94,397.55L186.93,396.88L186.71,396L185.92,394.29L185.53,393.81L184.87,393.27L183.44,392.47L181.09,390.87L179.84,389.82L178.9,388.75L177.72,387.62L177.15,387.35L175.69,387.73L174.35,387.71L173.7,387.32L172.77,386.49L172.29,385.82L172.23,385.51L172.45,385.26L173.57,384.51L173.74,384.18L173.35,383.11L172.81,382.72L172.21,382.53L171.35,382.04L169.55,380.92L169.08,380.52L168.25,378.77L168.21,378.23L168.07,377.85L166.7,376.26L165.79,375.73L164.91,374.9L164.13,373.42L163.74,371.21L163.21,370.53L156.04,367.95L150.82,365.54L150.82,365.54L151.76,364.94L152.54,364.26L156.56,360.42L157.27,359.86L158.59,359.26L159.33,358.79L160.77,357.5L162.67,355.54L162.92,355.1L163.06,354.61L163.25,352.5L163.38,352.01L164.01,350.72L164.13,350.22L164.37,348.19L164.57,347.84L164.93,347.65L165.88,347.63L166.37,347.77L167.13,348.27L169.12,350.3L169.62,351.05L170.22,352.32L170.78,353.01L171.88,353.87L172.6,354.09L173.08,354.07L174.37,353.51L174.88,353.39L177.03,353.21L177.53,353.09L178.84,352.48L179.35,352.36L181.49,352.2L181.99,352.09L183.3,351.48L183.81,351.36L187.07,351.23L187.57,351.12L188.88,350.5L189.38,350.39L193.23,350.34L194.27,350.18L195.57,349.57L197.11,349.29L198.05,348.96L200.09,347.91L202.01,346.61L204.47,345.32L205.42,344.96L206.71,344.31L207.21,344.19L208.29,344.13L212.19,344.2L213.23,344.04L214.51,343.38L215.47,343.02L216.74,342.32L217.7,341.96L219.16,341.13z" 
                fill="rgb(151, 144, 238)" 
                stroke="white" 
                stroke-width=".7px"
                title="Laçın" 
                id="AZ-LAC" 
            />
        </svg>