<svg xmlns="http://www.w3.org/2000/svg" viewBox="460.89 513.28 64.00999999999999 75.13" width="64.00999999999999" height="75.13">
            <path 
                d="M520.29,573.74L518.04,574.71L515.79,576.29L515.09,576.59L514.25,576.59L512.96,575.98L512.46,575.84L511.41,575.81L510.91,575.91L508.43,577.14L506.64,578.41L505.3,579L504.56,579.47L503.6,580.39L503.22,580.99L503.02,581.98L502.97,584.12L502.79,585.13L501.32,587.55L500.32,588.41L500.32,588.41L498.75,586.25L498.19,585.74L496.76,584.88L496.27,584.28L495.85,583.57L495.27,581.98L495.26,580.82L494.91,579.95L494.58,579.46L493.24,578.95L492.43,578.83L491.58,578.87L490.76,578.64L489.99,577.87L489.48,576.89L488.99,575.52L488.87,574.6L488.88,573.29L489.09,571.89L488.95,570.7L488.46,570.11L487.42,569.31L485.85,568.73L485.19,568.72L483.93,569.05L482.21,570.13L481.41,570.44L479.59,570.45L478.64,570.65L477.42,570.98L475.53,571.76L474.68,571.81L473.82,571.65L472.61,571.37L469.75,570.42L468.8,569.31L468.11,567.88L467.96,566.26L467.77,565.58L467.32,564.37L466.91,563.81L465.87,563.05L463.5,562.04L462.82,561.65L462.05,560.88L461.75,560.31L461.61,559.7L461.27,556.82L461.26,555.93L461.45,555L461.98,554.08L462.19,553.49L462.13,553.11L461.5,552.02L461.27,550.52L460.89,550.05L460.89,550.05L461.54,548.82L461.92,547.35L462.24,546.67L462.72,546.13L464.21,545.35L464.87,544.49L465.09,543.63L465.15,540.41L465.35,539.41L465.94,538.58L467.83,536.63L469.33,534.17L470.26,533.09L471.49,532.37L473.21,531.65L474.93,530.58L475.89,529.63L476.7,528.51L477.3,527.85L479.13,526.25L483.14,524.22L484.92,522.94L486.62,522.14L488.41,520.86L494.29,518L495.88,516.92L497.43,516.13L498.39,515.41L500.4,513.28L500.4,513.28L504.86,518.32L506.21,520.92L506.42,522.18L506.45,525.57L506.45,525.57L504.49,529.14L503.97,530.37L503.22,531.59L502.82,532.51L502.11,533.74L501.95,534.72L502.11,535.71L502.82,536.97L503.21,537.91L503.94,539.15L504.33,540.08L504.75,540.69L505.47,541.4L506.57,542.13L508.69,543.28L510.07,543.91L515.71,547.51L516.13,548.14L516.64,549.98L517.73,552.17L519.31,554.11L519.55,554.53L519.75,555.53L519.74,556.58L519.52,557.58L518.83,558.82L518.72,559.78L518.85,560.23L519.02,560.53L519.57,561.03L520.57,561.66L521.75,562.25L522.38,562.7L523.59,564.5L524.56,565.63L524.8,566L524.9,566.36L524.8,566.71L524.56,567.06L523.32,568.55L522.9,569.47L521.83,571.02z" 
                fill="rgb(151, 144, 238)" 
                stroke="white" 
                stroke-width=".7px"
                title="Lerik" 
                id="AZ-LER" 
            />
        </svg>