<svg xmlns="http://www.w3.org/2000/svg" viewBox="501.9300000000001 457.30999999999995 89.06999999999988 117.70000000000039" width="89.06999999999988" height="117.70000000000039">
            <path 
                d="M545.65,553.57l-0.27,-4.5l-1.09,-5.19l-1.09,-3.96l-2.73,-5.05l-1.37,-1.91l-0.68,-3.28l0.45,-7.84l0.41,-1.42l-2.23,-0.06l-1.08,0.13l-0.7,0.3l-0.3,0.23l-0.25,0.28l-1.82,3.11l-0.47,0.58l-0.3,0.22l-0.7,0.29l-2.14,0.28l-0.75,0.26l-2.19,1.44l-1.38,0.66l-2.06,1.75l-0.79,0.5l-0.74,0.28l-1.54,0.35l-1.29,0.65l-1.77,0.71l-0.4,0.08l-1.02,-0.35l-1.68,-0.99l-2.5,-2.22l-2.01,-1.09l-2.74,-2.26l-1.96,3.57l-0.53,1.24l-0.75,1.22l-0.39,0.92l-0.71,1.23l-0.16,0.99l0.16,0.99l0.71,1.26l0.39,0.93l0.74,1.25l0.39,0.93l0.42,0.6l0.72,0.72l1.1,0.73l2.12,1.15l1.38,0.63l5.64,3.6l0.42,0.62l0.51,1.84l1.09,2.19l1.58,1.94l0.24,0.42l0.2,1l-0.01,1.05l-0.21,1l-0.69,1.25l-0.11,0.95l0.12,0.46l0.18,0.29l0.54,0.5l1.01,0.63l1.18,0.59l0.64,0.45l1.21,1.8l0.97,1.13l0.24,0.36l0.1,0.36l-0.1,0.36l-0.24,0.35l-1.24,1.49l-0.42,0.92l-1.06,1.56l-1.55,2.71l3.29,1.09l3.96,0.19l1.63,-0.07l0.5,-0.12l5.76,-2.67l2.04,-0.41l1.31,-0.59l2.04,-0.42l1.31,-0.6l0.5,-0.12l1.13,-0.05l0.01,-0.16l3.38,-0.81l0.82,0.82l0.14,-2.59l-1.09,-4.1L545.65,553.57zM543.06,554.11l-2.32,0.55l-2.73,-1.64l-0.55,-2.46l2.18,-2.18l2.59,-0.27l1.64,1.64l0.55,2.59L543.06,554.11zM591,476.1l-0.68,3.7l-0.29,1l-0.42,0.88l-0.94,0.93l-0.24,0.41l-0.47,1.46l-0.21,1.03l-0.04,1.04l0.34,1.47l0.01,0.52l-0.27,1.55l-0.96,3.93l-0.95,-0.58l0.18,-1.82l-0.77,-0.95l-0.98,-1.57l-1.27,-1.37l0.41,-2.27l-2.49,2.65l-2.17,0.59l-2.56,1.38l-2.76,-0.79l-0.42,-3.06l-0.32,-0.34l0.1,-0.58l0.38,-0.21l0.55,-2.27l-1.3,-0.7l0.37,-0.86l0.56,-0.49l-0.39,-1.22l-0.87,-0.45l-1.65,0.52l-0.9,-0.13l-0.53,-0.6l-0.26,-0.73l0.19,-1.17l0.29,-0.59l1.01,-0.03l0.13,-0.74l-0.33,-0.61l0.04,-0.17l-2.7,0.71l-1.97,0.74l-2.71,1.48l-1.23,2.46h-3.2l-5.17,5.17l-2.1,1.18l0.77,1.61l-0.52,0.72l-0.23,2.18l-0.41,1.45l-1.27,1.4l0.21,0.34l1.62,0.72l0.73,0.95l0.51,1.22l0.7,3.51l-0.22,3.58l0.36,2.47l-0.13,0.63l-1.07,1.67l-0.41,1.32l0.74,1.39l1.72,1.97l-0.25,3.69l-0.98,3.94l-2.71,1.72l0.25,3.45l-1.23,3.44l-1.97,2.21l-2.71,0.25l-2.71,-0.49l0.74,-3.45l1.97,-1.23l0.49,-1.97v-3.45l2.46,-3.2l1.48,-2.21l0.36,-1.78l-0.54,-2.58l0,-2.06l-0.22,-1.08l-0.25,-0.44l-1.31,-1.57l-1.17,-2.17l-0.34,-0.92l-0.09,-1.05l0.05,-1.6l0.08,-0.52l0.14,-0.49l0.64,-1.24l0.07,-0.46l-0.07,-0.46l-0.23,-0.44l-0.69,-0.82l-2.31,-2.21l-0.72,-0.57l-1.31,-0.66l-0.54,-0.46l-0.4,-0.64l-0.23,-0.87l-0.04,-3.79l0.14,-1.8l0.95,-4.97l0.79,-0.98l0.5,-1.21l0.76,-1.29l0.4,-0.94l0.63,-0.83l15.85,-15.08l0.72,-0.8l0.73,-1.22l0.47,-0.6l0.3,-0.23l0.7,-0.29l1.04,0.01l1.09,0.5l0.78,0.67l0.57,0.68l0.58,1.26l0.72,1.26l0.38,0.94l0.73,1.25l0.38,0.94l0.72,1.26l0.53,1.29l0.62,0.98l0.51,0.54l0.79,0.34l0.53,0.07l3.35,0.08l1.08,0.15l1.09,0.51l2.35,2.05l2.81,1.57l0.5,0.14l1.08,0.1l3.38,0.03l1.34,0.45l0.88,0.6l0.33,0.61L591,476.1zM586.29,498.08l1.66,-1.19l-0.37,5.38l-0.32,1.13l-1.77,2.1l-3.31,3.23l-0.4,2.34l1.37,1.05l0.48,1.61l0.52,2.67l-2.7,0.48l-3.47,0.24l-3.47,0.73l-2.5,0.32l-2.18,-0.64l-1.37,-2.5l0.4,-1.21l2.1,-1.61h2.66l1.69,-1.45l2.66,-2.98l2.74,-2.5l4.19,-5L586.29,498.08z" 
                fill="rgb(151, 144, 238)" 
                stroke="white" 
                stroke-width=".7px"
                title="Lənkəran" 
                id="AZ-LAN" 
            />
        </svg>