<svg xmlns="http://www.w3.org/2000/svg" viewBox="284.89 196.54 17.430000000000007 11.909999999999997" width="17.430000000000007" height="11.909999999999997">
            <path 
                d="M293.76,199.44L294.24,199.52L294.72,199.46L297.92,197.9L298.68,197.73L299.08,197.87L299.66,198.59L300.22,199.08L300.67,199.25L300.92,199.26L301,199.92L300.92,200.93L301.87,201.81L302.32,202.89L301.64,204.42L300.84,205.71L300.05,206.3L298.06,207.31L296,207.7L294.69,208.34L294.19,208.45L293.15,208.44L292.65,208.3L291.36,207.57L290.4,207.17L287.98,205.73L287.43,205.17L286.5,203.61L285.49,202.42L284.97,201.6L284.89,201.12L284.96,200.65L285.63,199.38L286.01,198.41L286.59,197.42L287.06,196.84L287.6,196.54L288.27,196.64L290.25,197.53L291.53,198.32z" 
                fill="rgb(151, 144, 238)" 
                stroke="white" 
                stroke-width=".7px"
                title="Mingəçevir" 
                id="AZ-MI" 
            />
        </svg>