<svg xmlns="http://www.w3.org/2000/svg" viewBox="522.0399999999997 402.1100000000002 98.25999999999999 114.2799999999998" width="98.25999999999999" height="114.2799999999998">
            <path 
                d="M584.2,516.38l-0.04,0.01l0,0l-0.52,-2.67l-0.48,-1.61l-1.37,-1.05l0.4,-2.34l3.31,-3.23l1.77,-2.1l0.32,-1.13l0.37,-5.38l0,0l1.56,0.95l0.4,5v4.11l-0.97,2.98l-0.64,4.27l-1.21,1.45L584.2,516.38zM564.09,403.01l1.28,3.53l1.11,3.42l0.34,-0.07l0,0l0.61,0.13l0.51,0.47l1.63,2.08l0.9,1.74l1.28,1.57l0,0l0.86,1.66l0,0l0.57,0.67l0.77,0.67l0,0l0.69,0.42l0,0l2.12,1.18l0.96,0.4l1.29,0.7l3.17,0.54l0,0l1.25,0.62l0,0l0.42,0.05l0.36,-0.12l0,0l0.25,-0.29l0,0l0.75,-1.06l1.01,-0.91l2.82,-1.46l0,0l0.5,-0.13l0,0l1.54,-0.27l1.31,-0.61l0.5,-0.11l2.16,-0.14l0.51,-0.11l1.53,-0.73l-0.21,1.97l0.1,1.95l0.73,2.16l1.33,2.61l1.07,1.64l2.69,2.69l2.28,1.96l2.18,2.62l2.77,2.65l1.04,0.83l1.06,0.28l1,-0.34l0.4,0.3l-0.36,0.49l0.2,0.36l0.45,-0.31l0.67,0.13l0.18,0.81l-0.21,0.9l-1.61,3.28l-0.12,0.96l0.88,1.41l1.18,3.35l1.77,1.58l0.98,2.76l2.76,3.15v3.35l-2.56,0.59l-6.1,-0.79l-1.18,-0.98l-4.13,-5.71l-2.17,-0.99l-2.56,-2.36l-2.27,0.57l-2.84,2.38l-1.18,3.54l0.59,4.53l-1.32,2.42l0.14,0.73l-0.59,5.51l0.2,5.51l-1.77,9.84l-0.79,2.76l-0.79,1.97l-0.39,4.73l-3.69,-0.94l0.88,-3.59l0.27,-1.55l0,0l-0.01,-0.52l-0.34,-1.47l0.04,-1.04l0.21,-1.03l0.47,-1.46l0.24,-0.41l0.94,-0.93l0.42,-0.88l0.29,-1l0.68,-3.7l-0.05,-0.49l-0.33,-0.61l-0.88,-0.6l-1.34,-0.45l-3.38,-0.03l-1.08,-0.1l-0.5,-0.14l-2.81,-1.57l-2.35,-2.05l-1.09,-0.51l-1.08,-0.15l-3.35,-0.08l-0.53,-0.07l-0.79,-0.34l-0.51,-0.54l-0.62,-0.98l-0.53,-1.29l-0.72,-1.26l-0.38,-0.94l-0.73,-1.25l-0.38,-0.94l-0.72,-1.26l-0.58,-1.26l-0.57,-0.68l-0.78,-0.67l-1.09,-0.5l-1.04,-0.01l-0.7,0.29l-0.3,0.23l-0.47,0.6l-0.73,1.22l-0.72,0.8l-15.85,15.08l-0.63,0.83l-0.4,0.94l-0.76,1.29l-0.5,1.21l-0.79,0.98l0,0l-2.75,-0.28l-1.61,-0.06l0,0l-1.67,0.08l0,0l-0.51,0.12l-1.32,0.6l0,0l-1.04,0.18l0,0l-2.21,-0.04l0,0l-0.54,-0.09l0,0l-0.81,-0.33l0,0l-0.75,-0.63l0,0l-1.84,-2.2l1.26,-2.48l0.4,-1.34l0.08,-1.73l0.01,-5.18l0,0l-0.03,-1.13l-0.2,-1.07l-0.68,-1.27l0,0l-0.39,-0.93l-0.73,-1.25l-0.39,-0.93l-0.73,-1.25l-0.39,-0.93l-0.73,-1.25l-1.08,-2.2l0,0l-0.2,-1.06l-0.04,-1.12l0.01,-7.39l0,0l0.1,-1.66l0,0l0.13,-0.51l0,0l2.46,-4.71l1.41,-1.79l2.82,-3.28l1.96,1.3l1.61,1.39l0.75,0.52l0,0l1.33,0.66l1.38,1.23l0,0l2.56,2.56l1.04,0.91l1.32,0.67l0,0l1.46,1.11l0,0l1.08,0.65l0.9,0.19l0.52,-0.04l0,0l0.38,-0.1l0,0l1.12,-0.65l3,-2.84l0,0l0.77,-0.67l0,0l1.14,-0.63l0,0l1.97,-0.32l0,0l0.46,-0.15l0.46,-0.43l0.24,-0.93l0.02,-1.07l-0.11,-1.06l-0.14,-0.5l-0.68,-1.29l-0.14,-0.49l0,0l-0.07,-0.52l0,0l-0.04,-3.79l0.09,-1.05l0.13,-0.49l0.7,-1.24l0,0l0.39,-0.92l1.18,-2.01l0.76,-0.83l0,0l3.98,-2.07l0.81,-0.62l0,0l1.35,-1.31l0,0l0.48,-0.72l0.14,-0.49l0,0l0.06,-3.77l-4.37,-3.76l-1.29,-2.57l-0.32,-1.93v-3.53l0,0l2.89,0.32L564.09,403.01z" 
                fill="rgb(151, 144, 238)" 
                stroke="white" 
                stroke-width=".7px"
                title="Neftçala" 
                id="AZ-NEF" 
            />
        </svg>