<svg xmlns="http://www.w3.org/2000/svg" viewBox="130.09 448.64 53.59 82.39999999999998" width="53.59" height="82.39999999999998">
            <path 
                d="M133.89,516.73L135.47,515.15L135.98,512.85L138.03,510.8L137.52,507.72L134.95,504.39L132.91,504.14L130.09,502.09L131.11,500.3L132.14,496.46L132.39,493.13L134.19,489.29L136.23,486.98L138.8,483.4L139.56,480.84L140.33,477.51L142.38,475.2L144.69,471.87L144.94,463.42L147.25,460.09L150.32,458.81L154.67,452.41L157.1,448.64L157.1,448.64L159.41,450.24L163.74,452.71L163.74,459.43L163.42,459.87L163.16,460.91L163.3,466.68L163.74,468.58L163.74,471.56L164.76,472.39L165.57,473.43L165.62,474.12L165.18,474.97L164.95,476.16L164.87,476.67L164.95,477.21L165.06,477.67L165.5,478.3L166.94,479.87L167.5,480.64L167.61,481.1L167.62,481.76L167.21,483.12L167.14,484.87L167.66,486.7L168.36,488.21L169.43,489.1L171.41,490.05L171.98,490.44L173.23,491.51L173.45,491.92L174.31,494.62L174.61,496.08L174.89,496.8L175.28,497.35L177.09,499.25L177.37,500.93L177.23,503.86L178.19,506.97L178.81,509.76L179.21,510.98L180.09,512.93L181.26,516.19L181.94,517.62L182.2,518.57L183.68,522.46L183.28,525.05L181.82,531.04L180.05,530.09L178.44,527.98L177.5,527.27L175.01,526.38L173.71,525.5L172.05,523.2L171.24,523.29L170.96,524.94L170.31,525.71L169.77,525.71L169.48,525.92L168.55,525.94L163.74,525.27L156.64,522.31L155.8,522.64L153.3,525.14L152.54,525.43L151.13,525.03L147.69,523.26L146.25,522.88L145.48,522.17L144.79,520.45L144.05,519.93L142.75,519.76L140.13,520.62L138.32,519.36L136.26,517.66z" 
                fill="rgb(151, 144, 238)" 
                stroke="white" 
                stroke-width=".7px"
                title="Ordubad" 
                id="AZ-ORD" 
            />
        </svg>