<svg xmlns="http://www.w3.org/2000/svg" viewBox="331.58 110.94 56.83000000000004 84.06" width="56.83000000000004" height="84.06">
            <path 
                d="M344.86,110.94L349.39,112.86L350.51,112.96L352.96,112.13L354.3,112.01L355.24,112.26L356.48,113.17L359.08,112.55L359.91,112.84L360.9,113.74L361.57,114.62L361.57,116.9L361.35,117.93L362.01,118.93L363.51,120.18L364.8,121.49L366.7,123.21L367.5,123.37L369.98,122.67L371.43,121.91L373.09,121.64L374.83,120.58L375.92,119.03L376.98,118.09L378.4,117.81L379.27,118.06L379.96,118.62L381.01,119.88L381.87,120.29L383.38,120.5L386.21,120.06L387.2,120.36L387.96,120.81L387.96,120.81L387.37,129.85L387.47,131.04L387.62,131.58L388.29,132.95L388.41,133.46L388.41,134.5L388.28,135L386.47,138.48L386.34,138.98L386.17,144.48L386.04,144.98L385.34,146.25L384.96,147.19L383.55,149.79L382.26,151.33L381.31,153.07L379.19,155.3L378.64,156.11L378.43,157.13L378.44,159.33L378.66,160.37L379.33,161.69L379.47,162.19L379.56,163.27L379.48,164.33L379.35,164.83L378.65,166.1L378.26,167.05L377.52,168.3L377.11,169.23L375.27,171.58L374.18,173.78L374.05,174.28L373.85,176.41L373.72,176.91L373.08,178.2L372.95,178.7L372.74,180.83L372.61,181.32L371.96,182.61L371.83,183.11L371.62,185.24L371.48,185.73L370.83,187.02L370.7,187.52L370.6,188.59L370.63,190.83L371.19,195L371.19,195L368.54,193.46L366.31,191.69L363.84,190.28L360.66,188.73L359.38,187.98L358.43,187.57L354.92,185.67L353.97,185.27L351.5,183.87L350.36,182.97L345.01,177.53L344.05,176.29L343.65,175.33L342.92,174.05L342.54,173.09L341.85,171.79L341.67,170.74L341.63,167.96L341.41,166.98L340.95,166.53L340.51,166.4L340.01,166.39L339.51,166.5L338.18,167.14L337.68,167.25L337.19,167.23L336.74,167.1L336.48,166.91L336.28,166.65L336.13,166.19L336.08,165.14L336.29,164.1L336.92,162.81L336.95,162.33L336.71,161.66L336.49,161.36L335.88,160.89L332.59,159.02L332.06,158.46L331.73,157.75L331.58,156.68L331.61,155.02L331.82,153.99L332.49,152.7L332.62,152.2L332.76,149.48L332.94,148.45L340.32,133.96L340.78,131.93L342.57,128.45L342.7,127.95L342.79,126.87L342.79,119.59L342.83,117.22L342.96,116.02z" 
                fill="rgb(151, 144, 238)" 
                stroke="white" 
                stroke-width=".7px"
                title="Oğuz" 
                id="AZ-OGU" 
            />
        </svg>