<svg xmlns="http://www.w3.org/2000/svg" viewBox="514.54 200.58 80.41000000000008 82.53999999999999" width="80.41000000000008" height="82.53999999999999">
            <path 
                d="M526.74,273.14L521.08,273.01L520.03,273.19L518.71,273.83L518.2,273.96L517.11,274.01L516.03,273.85L515.32,273.51L514.8,272.97L514.54,272.29L514.57,271.81L514.84,271.16L515.27,270.51L515.8,269.99L516.61,269.67L518.74,269.41L520.87,268.35L521.48,267.9L521.72,267.61L522.04,266.92L522.13,266.4L522.22,264.22L522.4,263.2L523.09,261.93L523.48,261L524.22,259.76L524.61,258.82L525.36,257.58L526.24,255.82L526.43,255.4L526.49,254.93L526.41,254.46L526.19,254.04L524.11,251.76L523.87,251.39L523.75,251.02L524.31,249.34L524.4,248.28L524.33,247.22L524.2,246.72L523.54,245.41L523.41,244.91L523.2,240.56L523.07,240.06L522.42,238.76L522.27,237.74L522.44,236.74L523.07,235.47L523.14,235L523.07,234.53L522.63,233.79L521.66,232.76L520.24,231.51L519.13,230.76L518.94,230.38L518.91,229.44L519.04,228.96L519.28,228.54L520.59,227L521.57,225.27L522.87,223.74L523.25,222.83L523.36,221.22L523.31,219.01L523.1,217.98L522.43,216.68L522.3,216.17L522.2,215.1L522.19,212.89L522.41,211.33L523.51,209.13L525.08,207.18L526.02,205.66L526.57,205.16L527.27,204.86L529.42,204.59L530.18,204.32L530.93,203.86L534.81,200.89L534.81,200.89L536.5,200.58L537.65,200.71L539,201.44L539.97,201.83L542.44,203.25L544.22,204.64L545.97,205.57L548.64,208.03L550.02,208.71L551.09,209.54L551.94,210.53L552.51,211.81L553.45,213.04L563.66,223.35L564.41,223.9L566.88,225.27L567.8,225.46L570.25,225.57L571.17,225.76L572.46,226.48L573.42,226.88L576.23,228.5L577.01,229.18L577.58,229.86L578.15,231.14L578.87,232.42L579.24,233.39L579.97,234.67L580.35,235.63L580.76,236.25L581.73,237.24L582.47,237.76L583.82,238.42L585.97,240.4L586.7,240.93L589.16,242.32L590.13,242.72L592.08,243.92L594.95,245.32L594.95,245.32L593.58,247.79L592.64,249.25L592.25,250.21L590.86,252.58L590.86,252.58L590.61,252.86L590.61,252.86L589.99,253.31L589.99,253.31L587.88,254.44L587.88,254.44L586.69,255L585.94,255.52L584.99,256.52L584.16,257.95L583.91,258.23L583.27,258.64L582.38,258.85L580.17,258.88L579.13,259.04L577.82,259.65L575.77,260.05L573.34,261.33L572.58,262.18L571.42,264.23L571.05,265.18L569.88,267.24L569.42,267.84L569.12,268.06L569.12,268.06L568.78,268.23L568.78,268.23L567.89,268.44L565.13,268.56L564.03,269.03L563.23,269.65L563.23,269.65L561.26,271.55L561.26,271.55L560.27,272.8L560.27,272.8L559.88,273.74L559.88,273.74L558.29,276.42L557.75,276.86L556.44,277.47L555.73,278.03L554.4,279.31L553.81,280L553.81,280L553.18,281.33L552.76,281.94L552.76,281.94L551.82,282.86L551.17,283.12L551.17,283.12L550.82,283L550.82,283L550.25,282.35L549.84,281.43L549.23,280.68L549.23,280.68L548.84,280.39L548.84,280.39L547.91,279.95L545.73,278.33L544.52,277.7L543.16,276.84L541.6,276.26L540.43,275.94L540.43,275.94L537.92,276.4L536.16,276.58L532.19,276.55L530.54,276.4L530.02,276.24L529.15,275.66z" 
                fill="rgb(151, 144, 238)" 
                stroke="white" 
                stroke-width=".7px"
                title="Qobustan" 
                id="AZ-QOB" 
            />
        </svg>