<svg xmlns="http://www.w3.org/2000/svg" viewBox="214.82 420.65 57.670000000000016 62.93000000000001" width="57.670000000000016" height="62.93000000000001">
            <path 
                d="M226.62,424.37L230.46,427.29L232.25,428.35L233.32,428.55L234.43,428.61L237.23,428.65L238.31,428.54L239.4,428.07L240.2,427.45L245.07,422.8L246.66,421.43L247.57,420.96L248.4,420.94L248.4,420.94L251.29,421.38L253.94,422.25L254.42,422.22L255.72,421.66L256.22,421.54L258.38,421.36L258.89,421.24L260.18,420.67L260.65,420.65L261,420.74L261.62,421.13L262.08,421.73L262.81,422.95L264.11,424.53L264.32,424.94L264.4,425.4L264.34,425.87L263.68,427.11L263.06,428.76L260.67,432.39L260.67,432.39L260.06,432.39L259.64,432.5L259.17,432.91L258.28,434.3L256.94,436.73L256.71,438.27L256.7,441.52L256.84,442.48L257.03,442.86L258.21,443.68L259.45,444.85L259.88,445.45L260.97,447.66L261.17,448.75L261.16,453.42L261.25,454.55L261.38,455.09L262.46,457.29L263.6,458.62L264.34,459.15L266.82,460.55L270.07,462.12L271.04,462.88L272.49,464.43L272.49,464.43L268.84,466.49L266.44,467.58L263.69,469.96L261.96,470.75L260.88,471.65L258.08,474.3L257.12,475.33L256.51,476.62L255.74,477.84L255.12,479.17L254.39,480.46L253.76,481.3L252.24,483.1L251.02,483.58L249.45,483.58L248.38,481.63L248.03,480.89L247.88,480.31L247.76,478.51L247.81,475.55L248.02,474.46L248.67,473.2L248.81,472.65L248.94,469.68L248.86,468.49L248.58,467.59L247.72,466.31L246.94,465.78L246.94,465.78L246.99,465.7L246.68,465.06L246.08,464.9L244.48,464.74L242.61,464.78L242.01,464.55L241.39,464.08L240.99,463.37L240.46,461.85L240.39,461.38L240.17,460.97L236.5,459.7L234.98,457.5L234.49,456.01L233.95,453.67L233.87,453.17L234.76,451.78L234.83,451.12L234.51,449.89L233.03,448.15L232.14,446.58L230.57,444.69L230.06,444.65L229.69,444.91L228.27,446.45L227.56,447L226.84,447.21L226.2,446.98L225.46,446.52L222.82,444.4L220.61,442.87L219.76,441.95L217.72,438.85L217.35,438.02L216.77,435.87L215.06,432.08L214.86,431.43L214.82,430.89L214.99,430.52L215.43,429.99L216.35,429.18L216.73,427.87L216.75,427.12L217.24,426.19L217.68,425.81L218.22,425.62L218.88,425.61L219.44,425.77L220.14,425.72L223.17,426.65L224.13,426.86L224.67,426.82L225.46,426.34z" 
                fill="rgb(151, 144, 238)" 
                stroke="white" 
                stroke-width=".7px"
                title="Qubadlı" 
                id="AZ-QBI" 
            />
        </svg>