<svg xmlns="http://www.w3.org/2000/svg" viewBox="416.74 74.76 110.72000000000003 102.92999999999999" width="110.72000000000003" height="102.92999999999999">
            <path 
                d="M479.47,168.39L479.08,167.15L478.59,166.05L478.24,165.52L477.4,164.6L476.48,163.9L471.98,161.6L471.48,161.46L469.34,161.2L468.83,161.05L467.52,160.39L466.5,160.22L465.49,160.36L464.18,160.99L463.68,161.1L462.64,161.09L462.14,160.96L459.89,159.83L458.62,159.07L457.67,158.66L456.39,157.91L455.44,157.5L454.16,156.75L453.21,156.33L450.25,154.46L448.77,153.98L447.46,153.3L445.92,152.88L445.19,152.56L443.25,151.19L440.78,149.8L439.75,149.58L436.37,149.46L435.2,149.34L434.01,149.04L432.14,148.39L432.14,148.39L429.94,146.19L428.79,145.31L427.57,144.91L424.74,144.67L423.64,144.15L422.47,143.1L418.19,138.66L417.62,137.83L416.82,135.88L416.74,135.48L417.47,133.5L418.32,131.86L418.32,131.86L426.01,125.16L442.61,113.39L457.18,103.6L476.03,89.6L479.73,85.97L480.54,85.31L483.36,83.79L484.31,83.43L485.58,82.72L486.54,82.36L487.83,81.7L489.88,81.29L495.64,78.51L497.68,78.1L498.98,77.44L499.93,77.08L501.22,76.38L502.2,76.03L503.21,75.48L504.08,74.76L504.08,74.76L504.56,76.43L506.91,78.71L507.81,80.23L509.03,82.88L509.83,84.24L510.22,85.23L512.07,88.79L512.45,89.76L513.19,91.05L513.56,92.02L514.3,93.31L514.67,94.28L515.4,95.59L515.93,96.93L516.79,98.21L517.33,98.54L517.99,98.47L519.98,97.66L521.26,96.91L522.23,96.53L523.18,96.01L523.78,95.84L524.31,95.99L525.27,97.33L526.37,98.45L526.37,98.45L525.8,102.47L525.52,105.27L525.41,105.66L524.72,106.95L524.6,107.4L524.5,108.38L524.48,110.92L524.58,111.9L524.71,112.35L525.28,113.19L527.08,115.09L527.34,115.47L527.46,115.85L527.38,116.23L526.58,117.97L526.31,118.38L523.85,121.01L522.68,122.84L522.06,123.29L519.14,124.82L518.52,125.27L517.35,127.09L514.91,129.72L514.25,131.07L513.5,132.33L513.11,133.28L512.43,134.54L512.36,134.86L512.44,135.5L512.98,136.34L522.25,145.76L522.94,146.57L523.31,147.42L523.3,148.67L523.2,149.06L522.51,150.35L522.18,152L521.88,152.71L521.36,153.35L520.33,154.23L518.61,155.04L517.54,155.91L516.23,157.23L515.74,157.97L515.61,158.4L515.52,159.78L515.74,161.13L516.31,161.96L518.15,163.88L518.46,164.27L518.74,165L518.68,165.64L518.02,166.9L517.82,167.86L517.78,174.14L517.9,177.69L517.9,177.69L515.35,176.91L513.25,175.84L511.19,175.32L509.88,174.65L507.85,174.13L506.53,173.47L503.38,172.93L499.84,171.1L497.81,170.59L494.28,168.74L493.75,168.6L492.02,168.46L484.9,168.33z" 
                fill="rgb(151, 144, 238)" 
                stroke="white" 
                stroke-width=".7px"
                title="Quba" 
                id="AZ-QBA" 
            />
        </svg>