<svg xmlns="http://www.w3.org/2000/svg" viewBox="401.87 32.17 102.61000000000001 99.69000000000001" width="102.61000000000001" height="99.69000000000001">
            <path 
                d="M504.08,74.76L503.21,75.48L502.2,76.03L501.22,76.38L499.93,77.08L498.98,77.44L497.68,78.1L495.64,78.51L489.88,81.29L487.83,81.7L486.54,82.36L485.58,82.72L484.31,83.43L483.36,83.79L480.54,85.31L479.73,85.97L476.03,89.6L457.18,103.6L442.61,113.39L426.01,125.16L418.32,131.86L418.32,131.86L416.76,131.79L414.68,131.22L412.73,131.1L412.16,130.94L410.74,130.26L407.52,129.74L405.4,128.55L404.78,128.06L404.3,127.41L401.87,121.53L401.87,121.53L402.62,121.3L404.4,121.13L408.14,121.55L410.23,121.44L412.02,121.1L413.65,120.04L414.31,118.95L414.71,117.81L414.73,116.05L414.24,112.89L414.51,111.78L415.23,110.46L418.78,106.9L419.38,105.77L419.72,104.79L419.87,103.55L419.96,98.77L420.23,96.46L421.41,94.28L422.47,93.38L426.19,91.79L427.05,90.76L429.63,86.9L431.35,83.74L433.1,79.02L433.25,77.3L433.26,75.08L433.98,73.88L434.78,73.4L440.25,72.21L442.76,72.13L444.04,71.56L446.13,71.01L448.87,71.06L451.33,71.58L453.61,71.29L456.18,69.6L459.08,68.98L461.32,68.03L462.35,65.2L463.44,63.29L465.21,61.55L467.63,60.41L470.5,59.67L475.07,57.07L481.09,52.14L482.79,49.59L483.46,47.49L484.06,44.54L484.69,39.49L485.55,36.23L486.08,33.22L486.08,33.22L487.52,33.03L488.93,32.37L489.45,32.25L491.12,32.17L493.36,32.28L494.26,32.55L494.9,32.99L495.38,33.62L496.2,35.29L496.29,35.68L496.2,36.07L495.41,37.84L494.65,39.1L494.25,40.06L493.55,41.34L493.42,41.84L493.32,43.48L493.3,50.8L493.39,51.9L493.53,52.41L493.91,53.05L494.62,53.81L495.38,54.34L496.13,54.65L496.67,54.75L500.05,54.84L501.14,54.96L501.63,55.12L502.2,55.55L502.82,56.51L502.99,57.12L502.9,57.52L502.08,59.3L500.18,61.68L499.47,63.24L499.31,63.8L499.44,64.15L499.71,64.47L501.4,65.4L502.12,66L502.75,66.69L503.14,67.33L503.28,67.84L503.48,70.01L503.62,70.53L504.28,71.87L504.41,72.38L504.48,73.45L504.42,73.97z" 
                fill="rgb(151, 144, 238)" 
                stroke="white" 
                stroke-width=".7px"
                title="Qusar" 
                id="AZ-QUS" 
            />
        </svg>