<svg xmlns="http://www.w3.org/2000/svg" viewBox="461.02 308.64 92.31000000000006 93.71000000000004" width="92.31000000000006" height="93.71000000000004">
            <path 
                d="M504.95,392.21L502.54,392.29L501.6,392.04L501.25,391.7L501.03,391.25L500.93,390.75L501.05,389.74L501.6,388.75L502.08,388.15L502.66,387.74L503.15,387.6L505.26,387.33L506.58,386.73L507.08,386.62L509.82,386.56L510.86,386.4L512.15,385.75L513.11,385.39L514.38,384.7L515.34,384.35L517.76,383.04L518.3,382.52L519.46,380.6L520.08,379.26L520.82,378.03L521.21,377.1L521.92,375.85L522.08,374.85L521.92,373.85L518.97,368.16L518.77,367.14L518.79,363.89L518.99,362.88L519.67,361.62L519.81,361.13L519.92,359.53L519.83,357.92L519.45,357.01L517.02,354.33L516.35,352.98L515.84,352.24L514.13,350.5L513.36,349.98L512.62,349.68L512.08,349.58L509.33,349.33L508.24,348.83L507.44,348.17L504.58,345.42L502.89,344.52L501.44,343.37L500.35,342.85L498.72,342.66L495.35,342.59L494.28,342.67L493.8,342.81L493.23,343.23L491.72,345.55L491.34,345.73L490.37,345.76L489.87,345.64L489.2,345.3L488.18,344.61L487.63,344.05L487.16,343.38L486.58,342.38L485.83,340.61L485.76,340.23L485.88,339.86L486.13,339.5L487.56,338.07L488.15,337.34L488.26,336.97L488.05,336.41L486.89,335.31L484.79,334.19L483.29,333.14L482.12,332.54L480.88,332.46L477.43,333.51L475.89,334.03L473.01,335.4L472.03,335.73L469.64,336.96L467.79,338.33L466.46,338.95L464.88,340.13L464.52,340.37L464.15,340.46L463.7,340.25L463.11,339.53L461.02,336.01L461.02,336.01L464.32,332.85L466.04,331.48L468.74,330.24L470.66,329.78L471.28,329.38L471.51,329.1L471.75,328.45L471.71,327.99L471.09,326.7L470.96,326.2L470.94,325.17L471.06,324.68L472.84,321.24L473.19,319.81L473.39,319.44L475.93,317.66L479.57,315.77L480.19,315.33L480.65,314.72L482.25,311.88L482.72,311.28L483.02,311.05L483.72,310.73L485.31,310.39L486.92,309.52L488.5,308.82L488.5,308.82L493.72,308.64L504.22,308.84L505.93,308.98L506.89,309.33L512.23,312.08L514.31,312.57L515.31,313.1L516.09,313.82L516.21,314.42L515.73,315.75L515.23,317.77L513.64,320.78L513.46,321.2L513.39,321.67L513.45,322.14L514.49,324.36L515.68,326.44L516.15,327.05L516.79,327.48L518.67,328.05L519.99,328.7L522.63,329.18L524.42,329.92L527.11,330.33L529.43,331.14L532.08,331.58L534.18,332.74L535.04,333.51L535.9,334.96L536.92,336.09L537.83,336.75L539.26,337.48L540.48,338.68L540.85,339.3L540.99,339.8L541.18,342.46L541.52,343.21L542.2,343.73L546.36,346.03L546.36,346.03L545.83,346.8L545.75,347.43L545.85,347.68L546.41,348L546.41,348L545.76,348.98L544.35,349.98L543.55,351.52L543.64,353.59L544.41,355.14L547.57,357.73L549.07,359.23L549.51,359.88L549.58,360.16L549.5,360.54L548.7,362.25L547.92,363.49L547.13,365.2L547.05,365.57L547.17,365.96L547.78,366.75L552.54,371.47L553.13,372.33L553.28,372.83L553.33,374.41L553.13,375.42L551.3,378.83L551.1,379.84L551.06,383.1L551.18,384.7L551.31,385.2L551.98,386.49L552.18,387.5L552.24,389.68L552.07,391.27L551.75,391.95L551.22,392.48L548.77,393.76L547.8,394.11L545.68,395.2L545.07,395.64L544.84,395.92L544.6,396.57L544.63,397.03L545.25,398.32L545.75,400.35L546.15,401.27L546.18,401.54L545.91,402.01L545.32,402.33L544.49,402.35L543.83,402.06L542.81,401.38L541.15,399.69L540.44,399.35L539.92,399.24L538.26,399.13L534.34,399.1L533.28,399.26L531.49,400L529.39,400.08L529.39,400.08L524.94,398.84L524.43,398.67L523.11,397.98L521.07,397.49L519.76,396.82L517.73,396.33L516.42,395.66L514.38,395.17L513.08,394.5L511.03,394.01L509.73,393.3L507.35,392.19L506.47,392.06z" 
                fill="rgb(151, 144, 238)" 
                stroke="white" 
                stroke-width=".7px"
                title="Sabirabad" 
                id="AZ-SAB" 
            />
        </svg>