<svg xmlns="http://www.w3.org/2000/svg" viewBox="525.4 346.08 82.25 98.72000000000003" width="82.25" height="98.72000000000003">
            <path 
                d="M566.83,409.89L566.48,409.96L565.38,406.55L564.09,403.01L564.09,403.01L560.24,402.37L557.35,402.05L557.35,402.05L557.35,405.58L557.67,407.51L558.95,410.08L563.32,413.84L563.26,417.61L563.26,417.61L563.12,418.1L562.65,418.82L562.65,418.82L561.3,420.13L561.3,420.13L560.49,420.76L556.51,422.82L556.51,422.82L555.75,423.65L554.57,425.66L554.18,426.58L554.18,426.58L553.49,427.83L553.36,428.32L553.27,429.37L553.31,433.16L553.31,433.16L553.37,433.68L553.37,433.68L553.51,434.17L554.19,435.46L554.33,435.96L554.43,437.02L554.41,438.08L554.18,439.02L553.72,439.45L553.26,439.59L553.26,439.59L551.29,439.91L551.29,439.91L550.15,440.54L550.15,440.54L549.37,441.21L549.37,441.21L546.38,444.06L545.25,444.7L545.25,444.7L544.88,444.8L544.88,444.8L543.84,444.78L543.1,444.49L542.37,444L542.37,444L540.92,442.89L540.92,442.89L539.6,442.23L538.56,441.32L536,438.76L536,438.76L534.62,437.53L533.29,436.87L533.29,436.87L532.53,436.35L530.92,434.96L528.96,433.66L528.96,433.66L529.71,430.17L530,427.77L530.12,427.34L530.8,426.08L530.92,425.59L530.92,424.58L530.79,424.1L530.55,423.68L529.26,422.12L528.29,420.37L525.86,417.71L525.48,416.8L525.4,415.75L525.49,414.71L525.63,414.22L526.29,412.96L526.43,412.47L526.64,409.29L526.77,408.8L527.42,407.54L527.88,404.88L529.39,400.08L529.39,400.08L531.49,400L533.28,399.26L534.34,399.1L538.26,399.13L539.92,399.24L540.44,399.35L541.15,399.69L542.81,401.38L543.83,402.06L544.49,402.35L545.32,402.33L545.91,402.01L546.18,401.54L546.15,401.27L545.75,400.35L545.25,398.32L544.63,397.03L544.6,396.57L544.84,395.92L545.07,395.64L545.68,395.2L547.8,394.11L548.77,393.76L551.22,392.48L551.75,391.95L552.07,391.27L552.24,389.68L552.18,387.5L551.98,386.49L551.31,385.2L551.18,384.7L551.06,383.1L551.1,379.84L551.3,378.83L553.13,375.42L553.33,374.41L553.28,372.83L553.13,372.33L552.54,371.47L547.78,366.75L547.17,365.96L547.05,365.57L547.13,365.2L547.92,363.49L548.7,362.25L549.5,360.54L549.58,360.16L549.51,359.88L549.07,359.23L547.57,357.73L544.41,355.14L543.64,353.59L543.55,351.52L544.35,349.98L545.76,348.98L546.41,348L546.41,348L547.67,348.35L548.99,349.08L549.83,349.21L550.15,349.17L550.7,348.89L550.89,348.64L551.04,348.24L551.12,347.31L551.12,347.31L551.88,347.59L553.66,346.89L555.01,346.08L558.58,346.13L559.51,346.23L560.29,346.51L562.8,347.93L566.71,350.92L569.96,352.77L574.9,353.16L576.9,353.84L579.66,355.09L580.66,355.31L581.73,355.25L584.03,354.49L585.11,354.39L586.18,354.48L586.68,354.63L587.99,355.31L588.5,355.46L589.57,355.56L590.64,355.51L591.15,355.39L592.44,354.71L594.68,353.72L595.51,353.78L596.21,354.12L597.31,355.17L597.73,355.79L598.32,357.06L598.9,357.78L600.07,358.98L600.9,359.7L602.3,360.41L603,360.89L607.33,364.76L607.33,364.76L606.04,366.74L605.77,367.98L605.71,379.15L605.81,380.34L605.96,380.91L606.58,382.21L606.72,382.75L606.92,388.06L607.06,388.63L607.65,389.93L607.35,390.38L604.92,392.96L604.16,393.41L602.42,397.92L602.18,400.24L601.43,402.68L600.88,403.56L600.08,406.79L600.14,407.45L598.11,412.63L597.23,415.63L597.11,416.83L595.58,417.57L595.07,417.68L592.91,417.82L592.41,417.93L591.1,418.54L589.55,418.81L589.55,418.81L589.05,418.94L589.05,418.94L586.23,420.4L585.22,421.3L584.47,422.36L584.47,422.36L584.22,422.66L584.22,422.66L583.87,422.77L583.45,422.72L583.45,422.72L582.2,422.1L582.2,422.1L579.02,421.57L577.73,420.87L576.77,420.47L574.66,419.29L574.66,419.29L573.96,418.87L573.96,418.87L573.19,418.2L572.63,417.53L572.63,417.53L571.77,415.87L571.77,415.87L570.49,414.31L569.59,412.57L567.96,410.49L567.44,410.02z" 
                fill="rgb(151, 144, 238)" 
                stroke="white" 
                stroke-width=".7px"
                title="Salyan" 
                id="AZ-SAL" 
            />
        </svg>