<svg xmlns="http://www.w3.org/2000/svg" viewBox="176.02 122.72 88.10999999999999 93.36000000000001" width="88.10999999999999" height="93.36000000000001">
            <path 
                d="M182.55,122.72L185.56,124.23L190.84,123.62L198.52,123.93L202.44,127.54L206.66,132.66L208.92,135.98L212.68,140.65L215.09,140.65L217.96,139.14L220.97,140.35L221.57,144.11L224.59,148.11L226.39,147.65L228.2,144.19L231.97,138.77L234.53,136.96L237.69,137.71L240.71,138.92L242.82,141.33L244.32,141.48L245.38,140.57L248.08,140.63L249.11,142.91L249.04,143.42L249.04,143.42L250.31,144.1L250.79,144.17L251.26,144.11L252.56,143.51L253.06,143.38L254.14,143.29L256.34,143.41L257.3,143.77L258.97,144.74L259.58,145.22L259.82,145.53L260.14,146.24L260.24,146.77L260.26,151.78L260.35,152.86L260.48,153.36L261.13,154.68L261.6,156.72L262.7,158.98L263.88,160.81L264.11,161.95L264.13,165.34L264.13,165.34L260.35,168.98L259.73,169.7L258.98,171.12L258.42,171.86L254.28,175.96L253.75,176.7L253.13,178.04L252.17,179.09L248.7,182.49L248.17,183.24L247.54,184.57L246.57,185.65L243.06,189L242.32,189.5L240.99,190.07L238.59,192.22L237.84,192.72L236.49,193.29L235.78,193.86L235.2,194.5L234.97,195.05L235.03,195.34L236.38,198.13L236.39,198.71L235.5,200.41L235.04,201.02L234.4,201.46L230.73,203.35L229.54,204.34L228.3,205.68L227.97,206.48L227.85,208.33L227.7,209.22L226.68,211.2L226.3,212.16L226.1,213.15L225.94,214.78L225.94,214.78L225.07,215.46L222.61,216.08L218.35,215.99L214.54,215.01L211.91,213.66L211.91,213.66L212.31,212.27L212.69,210.06L212.66,209.53L212.49,208.97L212.21,208.46L211.7,207.9L210.67,207.2L209.96,206.87L209.41,206.74L207.63,206.73L205.75,206.93L205.75,206.93L205.61,201.65L205.51,200.56L205.38,200.06L204.74,198.74L204.61,198.23L204.39,196.1L204.26,195.6L202.57,192.28L200.38,188.52L200.38,188.52L199.86,185.61L199.28,184.73L197.11,182.39L196.75,181.56L196.76,180.32L197.12,179.51L198.73,177.57L199.13,176.64L199.84,175.37L200.01,174.5L200.16,172.66L200.28,172.23L200.94,170.95L201.06,170.51L201.2,167.61L201.37,166.69L202.07,165.43L202.47,164.49L204.07,162.56L205.24,160.38L205.56,159.55L205.56,158.3L205.45,157.91L204.74,156.61L204.35,155.64L203.6,154.36L203.22,153.4L202.48,152.11L202.11,151.15L200.73,148.48L199.71,147.31L195.61,143.15L194.94,142.36L194.07,140.59L190.78,135.54L190.78,135.54L190.43,135.07L189.61,134.48L186.83,133.84L185.49,133.16L183.57,132.58L182.86,132.19L181.27,131.02L178.77,129.63L178.25,129.48L177.11,129.36L176.02,127.79L176.02,127.79L176.35,127.6L177.29,124.2L179.76,123.53L180.44,122.72z" 
                fill="rgb(151, 144, 238)" 
                stroke="white" 
                stroke-width=".7px"
                title="Samux" 
                id="AZ-SMX" 
            />
        </svg>