<svg xmlns="http://www.w3.org/2000/svg" viewBox="536.72 126.86 71.98000000000002 54.92999999999999" width="71.98000000000002" height="54.92999999999999">
            <path 
                d="M608.7,179.73L607.27,180.29L604.94,180.19L602.83,179.19L601.6,178.83L601.04,178.78L600.51,178.86L600.02,179.08L597.43,181.22L596.72,181.57L595.76,181.79L585.38,181.61L584.19,181.49L583.64,181.34L581.4,180.22L580.12,179.47L579.17,179.06L576.71,177.64L574.79,176.25L572.74,175.12L571.8,174.75L570.24,174.41L569.22,173.87L568.27,173.14L567.34,171.83L567.01,171.15L566.89,170.64L566.79,168.97L566.84,164L566.45,163.12L565.64,162.74L564.61,163.39L562.63,163.96L559.34,165.77L559.14,166.15L558.78,167.59L558.15,168.89L557.87,171.02L557.64,171.9L557.22,172.53L556.61,172.98L554.49,174.06L552.44,174.46L548.9,176.14L546.86,176.55L543.26,178.26L541.93,178.4L539.64,178.14L539.64,178.14L538.88,173.46L538.73,172.95L538.07,171.61L537.94,171.06L537.85,169.9L537.82,165.13L537.61,164.01L536.95,162.68L536.81,162.18L536.72,161.11L536.79,160.04L536.94,159.54L537.21,159.07L538.82,157.38L539.73,156.63L541.8,155.52L542.88,154.59L544.01,154.54L544.91,154.74L546.78,154.67L547.79,153.92L548.66,152.94L549.94,150.8L550.34,149.84L551.04,148.57L551.23,147.53L551.27,146.44L551.27,144.2L551.16,142.57L551.03,142.07L550.38,140.75L549.9,138.71L548.1,135.13L547.93,134.11L548.09,133.08L548.29,132.65L549.23,130.99L549.71,130.39L550.35,129.98L551.24,129.77L555.15,129.8L556.23,129.73L556.74,129.61L558.04,128.99L559.06,128.86L560.08,129.05L561.39,129.73L561.89,129.87L562.92,129.9L563.86,129.6L569.2,126.98L569.7,126.86L570.77,126.88L571.65,127.19L573.08,128.22L575.7,131.47L578.99,134.43L581.08,135.22L581.08,135.22L581.17,139.11L583.85,145.93L584.59,150.48L585.24,151.93L584.4,152.47L584.4,152.91L585.7,153.73L587.28,156.69L590.4,160.29L593.58,163.14L595.49,165.41L598.37,167.39L599.13,168.37L601.93,173.59L602.77,174.58L606.6,176.76z" 
                fill="rgb(151, 144, 238)" 
                stroke="white" 
                stroke-width=".7px"
                title="Siyəzən" 
                id="AZ-SIY" 
            />
        </svg>