<svg xmlns="http://www.w3.org/2000/svg" viewBox="0 365.08 30.989999999999995 37.64000000000004" width="30.989999999999995" height="37.64000000000004">
            <path 
                d="M18.18,376.87l5.46,1.99l1.79,-0.03l1.99,-0.47l3.11,-1.27l0,0l0.46,5.17l-1.79,2.3l-2.82,1.02l-3.07,2.82v3.07l1.79,2.56v1.79l-1.02,3.58l-5.12,2.3l-3.33,1.02l-1.85,-0.12l0,0l0.34,-2.81l-1.6,0.69l-2.47,-1.98l-4.66,0.89l-2.05,-2.82l3.33,-5.38l-1.28,-2.82l-2.82,-2.05L0,383.78l1.02,-2.82l3.33,-1.54l2.82,-2.56l5.63,-1.28L18.18,376.87zM26.12,372h-1.54l-1.79,-1.54l-1.02,-2.05v-2.05l3.58,-1.28h2.3l0.51,1.54v1.02l-1.02,0.77l-0.26,2.05L26.12,372z" 
                fill="rgb(151, 144, 238)" 
                stroke="white" 
                stroke-width=".7px"
                title="Sədərək" 
                id="AZ-SAD" 
            />
        </svg>