<svg xmlns="http://www.w3.org/2000/svg" viewBox="91.58 118.25 99.2 111.72" width="99.2" height="111.72">
            <path 
                d="M127.08,190.2L126.35,194.38L125.56,196.1L125.36,197.2L125.37,203.68L125.58,204.78L126.22,206.09L126.37,207.1L126.22,208.1L125.58,209.39L125.37,210.49L125.34,222.4L125.24,224.14L125.11,224.68L124.05,226.91L123.25,228.24L122.75,228.83L122.14,229.32L121.46,229.72L120.8,229.97L119.95,229.9L118.84,229.24L117.72,228.11L116.28,226.36L115.7,225.94L115.22,225.77L113.08,225.5L112.59,225.34L112.28,225.16L111.75,224.63L111.17,223.65L111,222.84L111.07,222.36L111.7,221.06L111.84,220.56L111.96,219.49L111.95,218.4L111.72,217.4L111,216.57L109.69,215.75L108.71,215.34L105.17,213.5L104.62,213.35L103.45,213.24L98.59,213.11L97.66,212.85L97.04,212.42L96.61,211.79L96.37,210.85L96.35,206.03L96.27,204.86L96.13,204.31L94.79,201.67L93.39,200.12L93.39,200.12L98.12,196.38L103.25,192.52L106.92,189.97L108.32,188.31L109.05,186.98L110.05,184.14L110.31,182.48L110.1,179.16L109.85,178.12L109.32,177.46L108.26,176.87L106.68,177.62L106.08,176.52L104.91,175.73L104.17,175.34L101.08,174.77L100.61,174.43L99.56,172.29L99.09,171.99L98.65,171.98L96.57,172.27L97.01,169.58L96.71,169.17L95.56,168.89L94.55,168.02L93.91,166.77L93.75,165.57L93.83,164.21L93.42,163.48L92.99,163.15L92.2,162.92L91.58,163.21L91.58,163.21L92.43,162.07L93.86,161.18L94.84,160.1L95.14,159.26L95.34,157.68L95.5,157.23L95.7,156.97L96.41,156.64L98.49,156.35L99.81,155.75L102.48,155.44L103.57,154.97L104.75,153.98L107.85,150.91L108.47,150.08L109.57,147.87L109.7,147.36L109.79,146.29L109.79,144.06L109.69,142.98L109.56,142.48L107.75,138.92L107.35,137.1L107.24,135.72L106.63,134.44L106.5,133.93L106.39,132.27L106.41,130.59L106.48,130.09L106.64,129.66L106.82,129.45L107.07,129.33L107.37,129.33L108.04,129.56L109.67,130.3L113.2,132.29L114.98,133.13L115.37,133.23L115.98,133.08L116.64,132.72L117.25,132.24L117.96,131.3L118.48,130.28L118.78,128.71L119.18,127.76L120.26,126.54L122.24,124.69L122.99,124.17L125.46,122.88L126.42,122.51L127.7,121.81L128.65,121.45L129.93,120.75L130.89,120.39L133.37,119.08L134.48,118.25L134.48,118.25L135.65,119.19L138.11,120.11L140.05,120.5L143.22,120.37L144.81,120.79L147.06,121.83L150.12,123.46L152.91,125.97L156.33,127.89L160.6,128.17L163.22,127.75L164.43,127.39L167.38,127.7L170.79,127.51L172.42,127.81L174.55,128.62L176.02,127.79L176.02,127.79L177.11,129.36L178.25,129.48L178.77,129.63L181.27,131.02L182.86,132.19L183.57,132.58L185.49,133.16L186.83,133.84L189.61,134.48L190.43,135.07L190.78,135.54L190.78,135.54L188.9,140.31L188.45,141.14L187.32,142.37L181.61,147.9L180.48,149.12L179.52,150.91L177.12,153.54L176.75,154.46L176.5,156.61L176.19,157.31L175.66,157.83L174.96,158.14L173.86,158.26L152.1,157.73L151.03,157.81L150.58,157.96L150.32,158.15L150.12,158.4L149.96,158.85L149.64,160.93L149.01,162.24L148.54,164.26L148,165.07L147.03,166.22L146.35,167.57L145.63,168.51L144.61,169.39L143.29,170L142.55,170.49L139.02,173.7L137.7,174.31L136.96,174.8L135.58,176.1L134.18,177.85L133.63,178.37L132.3,179.2L131,179.71L128.89,180.81L128.01,181.54L126.85,183.5L126.52,184.44L126.52,185.49L126.64,186L127.27,187.4L127.35,187.9L127.29,189z" 
                fill="rgb(151, 144, 238)" 
                stroke="white" 
                stroke-width=".7px"
                title="Tovuz" 
                id="AZ-TOV" 
            />
        </svg>