<svg xmlns="http://www.w3.org/2000/svg" viewBox="230.05 249.75 77.24000000000001 77.10000000000002" width="77.24000000000001" height="77.10000000000002">
            <path 
                d="M307.29,303.81L305.55,303.7L305.03,303.79L303.59,304.39L303.06,304.49L301.99,304.42L300.89,303.91L300.11,303.23L299.4,302.21L299.2,301.18L299.16,298.98L298.97,297.94L298.22,296.86L297.36,296.09L296.88,295.81L296.39,295.68L295.43,295.71L295.05,295.89L294.3,296.87L293.73,297.32L293.02,297.6L292.5,297.65L291.61,297.47L290.9,297.08L288.8,295.15L287.9,294.53L286.92,294.34L286.46,294.4L286.11,294.58L285.91,294.93L285.82,295.39L285.82,296.44L286.04,297.48L286.68,298.79L286.75,299.27L286.68,299.74L286.11,300.63L284.51,302.12L283.38,302.77L281.45,303.25L280.13,303.86L279.63,303.97L278.56,304.02L277.48,303.9L276.98,303.75L275.68,303.11L275.2,303.02L274.71,303.07L272.61,304.1L272,304.55L271.77,304.85L271.45,305.54L271.34,306.05L271.22,310.96L271.1,311.46L270.45,312.74L269.97,314.16L269.53,314.7L268.9,315.15L267.89,315.68L266.56,316.17L265.55,316.75L265.01,317.24L264.82,317.54L264.61,318.52L264.68,319.57L264.81,320.07L265.46,321.38L265.58,322.16L265.28,323.8L264.37,326.85L264.37,326.85L261.66,323.26L260.86,322.51L259.82,321.8L259.3,321.06L259.23,320.6L259.3,320.14L259.86,318.89L259.9,318.42L259.83,318.08L259.49,317.44L258.97,316.98L257.57,316.23L255.85,314.66L250.98,309.69L250.31,308.8L249.66,307.67L249.11,307.15L248.41,306.81L245.77,306.35L244.46,305.68L243.95,305.54L242.88,305.44L241.81,305.49L240.86,305.81L238.48,307.1L236.39,308.93L235.5,309.51L234.53,309.65L234.08,309.57L233.72,309.37L233.52,309.02L233.43,308.55L233.15,306.47L232.52,305.15L232.39,304.64L232.26,301.95L232.07,300.92L230.28,297.41L230.15,296.89L230.05,295.19L230.05,288.79L230.21,287.1L230.52,286.4L231,285.86L232.48,285.04L233.16,284.16L233.48,283.09L234.37,278.6L234.37,278.6L234.26,277.55L234.69,275.78L235.46,274.75L236.25,274.1L237.35,273.64L239.51,273.36L240.25,273.08L241.01,272.6L242.57,271.26L243.32,270.76L244.06,270.47L245.59,270.12L247.85,269.12L249.95,268.02L251.08,267.29L253.14,265.5L254.52,264.82L256.35,263.52L257.06,263.17L257.99,262.96L259.15,262.92L266.78,263.13L268.49,263.07L269.02,262.95L271.15,261.88L272.27,261.15L274.33,259.36L276.18,258.4L278.78,256.16L280.6,255.18L281.25,254.44L281.75,253.45L282.49,252.46L284.2,250.7L285.84,249.75L285.84,249.75L286.33,250.27L286.73,251.1L287.02,254.22L287.14,254.65L287.85,255.94L288.24,256.9L289.06,257.99L291.83,260.87L291.83,260.87L292.36,263.53L292.6,266.37L292.73,266.88L293.36,268.2L293.75,269.61L293.96,269.99L296,271.3L296.87,272.08L297.74,273.41L299.39,276.95L299.81,277.57L300.52,278.3L301.27,278.81L302.02,279.11L304.79,279.38L305.69,279.63L306.32,280.06L306.74,280.68L306.94,281.54L306.91,282.05L306.8,282.54L306.15,283.83L306,284.37L305.89,285.52L305.87,297.36L305.96,298.52L306.1,299.07L306.78,300.44L306.99,301.2z" 
                fill="rgb(151, 144, 238)" 
                stroke="white" 
                stroke-width=".7px"
                title="Tərtər" 
                id="AZ-TAR" 
            />
        </svg>