<svg xmlns="http://www.w3.org/2000/svg" viewBox="357.17 239.24 69.88999999999999 43.31999999999999" width="69.88999999999999" height="43.31999999999999">
            <path 
                d="M419.35,278.58L413.48,278.35L411.28,278.4L410.78,278.52L409.47,279.14L408.97,279.26L406.83,279.43L406.32,279.55L405.02,280.16L403.44,280.35L397.32,280.18L396.28,279.96L394.98,279.27L394.47,279.13L393.4,279.02L392.33,279.07L391.38,279.39L389.34,280.47L387.76,281.6L387.05,282L385.86,282.46L385.07,282.56L384.65,282.42L384.17,281.93L383.01,279.85L382.61,278.89L381.97,277.99L375.92,271.9L375.17,271.36L372.71,269.97L371.75,269.57L370.47,268.83L368.85,268.09L365,265.2L365,265.2L364.98,263.85L364.83,263.28L364.42,262.58L363.28,261.45L359.62,259.36L358.99,258.89L358.52,258.27L357.58,256.61L357.24,255.66L357.17,254.6L357.26,253.54L357.4,253.04L358.06,251.76L358.27,250.74L358.31,246.9L358.4,245.83L358.52,245.33L359.16,244.04L359.5,241.99L359.67,241.55L360.12,241.11L361.09,240.9L362.74,240.87L363.78,240.71L365.09,240.05L366.85,239.32L367.23,239.24L367.62,239.34L369.92,240.52L373.37,241.89L373.37,241.89L373.23,242.37L373.27,242.69L373.51,242.99L374.93,243.55L376.61,244.58L376.94,244.86L377.38,246.13L377.59,246.48L377.94,246.67L378.88,246.73L379.37,246.6L381.22,245.28L382.31,244.79L383.36,244.75L383.86,244.87L386.67,246.49L388.62,248.25L389.37,248.8L391.83,250.23L394.07,251.3L394.54,251.33L394.88,251.25L395.5,250.88L395.95,250.28L396.95,248.45L397.69,247.59L398.47,247.26L399,247.21L400.06,247.29L400.57,247.43L401.87,248.17L402.82,248.58L404.09,249.34L405.05,249.75L406.32,250.5L407.28,250.9L408.55,251.65L409.51,252.05L410.78,252.8L411.73,253.2L413,253.96L413.96,254.37L415.25,255.09L416.83,255.34L420.73,255.38L421.77,255.2L423.08,254.6L423.58,254.54L424.09,254.61L424.71,254.9L427.06,256.38L427.06,256.38L426.35,260.48L426.31,266.98L426.22,268.12L426.09,268.65L422.54,275.53L421.44,276.72z" 
                fill="rgb(151, 144, 238)" 
                stroke="white" 
                stroke-width=".7px"
                title="Ucar" 
                id="AZ-UCA" 
            />
        </svg>