<svg xmlns="http://www.w3.org/2000/svg" viewBox="486.08 3.97 83.74000000000007 95.03" width="83.74000000000007" height="95.03">
            <path 
                d="M526.37,98.45L525.27,97.33L524.31,95.99L523.78,95.84L523.18,96.01L522.23,96.53L521.26,96.91L519.98,97.66L517.99,98.47L517.33,98.54L516.79,98.21L515.93,96.93L515.4,95.59L514.67,94.28L514.3,93.31L513.56,92.02L513.19,91.05L512.45,89.76L512.07,88.79L510.22,85.23L509.83,84.24L509.03,82.88L507.81,80.23L506.91,78.71L504.56,76.43L504.08,74.76L504.08,74.76L504.42,73.97L504.48,73.45L504.41,72.38L504.28,71.87L503.62,70.53L503.48,70.01L503.28,67.84L503.14,67.33L502.75,66.69L502.12,66L501.4,65.4L499.71,64.47L499.44,64.15L499.31,63.8L499.47,63.24L500.18,61.68L502.08,59.3L502.9,57.52L502.99,57.12L502.82,56.51L502.2,55.55L501.63,55.12L501.14,54.96L500.05,54.84L496.67,54.75L496.13,54.65L495.38,54.34L494.62,53.81L493.91,53.05L493.53,52.41L493.39,51.9L493.3,50.8L493.32,43.48L493.42,41.84L493.55,41.34L494.25,40.06L494.65,39.1L495.41,37.84L496.2,36.07L496.29,35.68L496.2,35.29L495.38,33.62L494.9,32.99L494.26,32.55L493.36,32.28L491.12,32.17L489.45,32.25L488.93,32.37L487.52,33.03L486.08,33.22L486.08,33.22L486.14,32.87L486.95,31.67L490.69,21.35L492.32,15.79L494.07,13.88L494.2,11.5L493.84,9L495.23,7.04L496.06,4.45L498.57,3.97L500.57,5.66L501.47,7.79L503.93,10.43L505.8,11.41L507.14,13.17L509.54,14.8L515.33,20.15L517.8,22.99L519.7,24.79L521.31,26.73L523.85,30.79L525.55,32.53L529.2,39.23L531.29,43.95L531.94,44.52L532.71,44.42L533.37,44.87L539.09,52.92L541.37,55.51L546.26,62.17L551.77,68.39L553.29,71.4L557.52,76.92L561.84,84.46L569.2,95.32L569.82,97.14L569.82,97.14L560.49,97.61L559.24,97.56L558.12,97.33L554.54,95.43L554.03,95.29L552.95,95.17L549.6,95.1L548.52,95.17L548.02,95.29L545.55,96.58L543.61,97.9L542.87,98.2L541.32,98.54L539.97,99L539.36,98.87L538.31,97.83L537.67,97.35L536.02,96.35L535.59,96.15L535.11,96.07L534.63,96.13L534.21,96.3L532.4,97.14L531.11,97.87L528.74,98.85L527.51,98.78z" 
                fill="rgb(151, 144, 238)" 
                stroke="white" 
                stroke-width=".7px"
                title="Xaçmaz" 
                id="AZ-XAC" 
            />
        </svg>