<svg xmlns="http://www.w3.org/2000/svg" viewBox="248.4 352.59 93.07000000000002 86.98000000000002" width="93.07000000000002" height="86.98000000000002">
            <path 
                d="M337.05,382.59L335.84,382.78L335.1,382.99L331.82,384.56L330.87,384.87L329.79,384.93L325.32,384.83L324.25,384.89L323.74,385.01L320.21,386.64L319.73,386.7L318.12,386.5L317.7,386.62L317.23,387.08L316.54,388.18L315.95,388.86L314.92,389.87L314.12,390.5L311.31,391.98L310.35,392.34L309.08,393.03L308.13,393.39L306.84,394.04L305.25,394.21L300.75,394.11L300.23,394.17L299.77,394.32L299.51,394.51L299.31,394.76L299.15,395.2L299.09,395.71L299.11,396.23L299.35,397.11L299.78,397.76L300.07,398.02L302.09,399.2L303.04,399.53L304.09,399.49L305.2,399.01L306.82,397.92L307.56,397.67L308.05,397.65L308.5,397.78L308.96,398.21L309.16,399.16L309.12,399.66L308.78,400.43L308.24,400.94L307.23,401.55L304.6,402.68L303.55,402.83L301.37,402.91L300.89,403.05L300.3,403.44L298.64,405.39L298.18,406.13L298.07,407.11L298.2,407.59L298.61,408.16L299.23,408.61L299.87,408.91L300.17,408.96L300.58,408.88L302.94,407.7L306.03,404.92L306.8,404.42L307.56,404.14L308.62,404.06L309.54,404.28L309.87,404.71L309.82,405.33L309.46,406.31L309.4,406.79L309.45,407.26L309.77,408.16L309.8,408.43L309.67,408.77L309.04,409.32L307.85,409.91L307.39,410.44L307.15,411.1L307.18,411.56L307.77,412.83L307.9,413.33L308.16,416.56L308.69,418.06L308.75,418.67L308.41,419.07L307.99,419.2L304.72,419.29L304.29,419.43L304.06,419.6L303.93,419.83L303.91,420.12L304.34,421.47L304.38,421.98L304.27,422.49L303.97,422.97L302.94,423.92L302.94,423.92L301.72,425.96L301.2,426.45L299.77,427.37L299.38,427.98L299.29,428.32L299.33,428.78L299.5,429.2L299.98,430.04L300.38,430.98L301.16,432.24L302.21,434.46L302.25,434.93L302,435.58L301.48,436.06L300.8,436.27L300.32,436.22L299.03,435.64L298.55,435.59L297.83,435.78L296.69,436.57L294.41,438.71L293.65,439.21L292.89,439.49L291.82,439.57L290.9,439.35L290.56,438.92L290.56,438.62L291.04,437.35L291.09,436.93L290.97,436.56L289.34,435.5L287.46,434.49L285.09,432.46L282.86,431.27L282.19,430.83L281.65,430.31L281.36,429.54L281.36,429.05L281.47,428.56L281.91,427.58L282.01,426.92L281.7,426.39L281.11,425.93L280.11,425.39L278,424.95L277.33,424.62L276.32,423.94L274.99,422.49L273.95,421.91L272.89,421.78L271.86,421.95L271.55,422.12L271.04,422.64L270.53,423.57L270.49,423.87L270.58,424.26L271.39,426.02L272.16,427.28L272.56,428.22L273.05,429.05L273.24,429.47L273.31,429.94L273.25,430.41L272.57,431.64L272.18,432.57L270.99,434.61L270.53,435.2L269.9,435.57L269.56,435.65L269.09,435.61L266.85,434.52L265.43,433.49L264.58,433.07L263.56,432.82L260.67,432.39L260.67,432.39L263.06,428.76L263.68,427.11L264.34,425.87L264.4,425.4L264.32,424.94L264.11,424.53L262.81,422.95L262.08,421.73L261.62,421.13L261,420.74L260.65,420.65L260.18,420.67L258.89,421.24L258.38,421.36L256.22,421.54L255.72,421.66L254.42,422.22L253.94,422.25L251.29,421.38L248.4,420.94L248.4,420.94L251.89,418.32L253.88,417.02L254.2,416.75L254.49,415.92L254.56,412.31L254.41,410.57L254.24,410.1L253.81,409.54L251.48,407.96L251.29,407.58L251.22,407.14L251.24,406.67L251.53,405.89L252.44,404.9L253.39,404.32L253.97,404.13L255.23,404L257.22,404L258.58,403.91L259.56,403.63L260.95,402.96L260.95,402.96L262.74,399.7L264.15,397.96L264.97,396.33L266.4,394.57L268.05,391.57L268.05,391.57L269.61,392.45L270.5,393.08L270.96,393.58L271.69,394.95L272.36,395.73L273.13,396.39L273.55,396.61L274.03,396.7L274.5,396.63L275.24,396.2L279.27,392.42L280.03,391.92L281.58,391.21L282.58,390.62L283.13,390.13L283.32,389.83L283.54,388.85L283.46,386.71L283.33,386.21L282.66,384.92L282.2,382.91L281.94,382.46L281.24,381.64L276.16,376.52L274.69,374.44L273.7,372.75L273.63,372.29L273.71,371.83L273.93,371.42L275.51,369.52L276.42,367.65L276.42,367.65L282.62,364.4L287.22,362.85L289.11,360.61L289.61,357.45L290,356.18L290.28,354.65L290.65,353.96L291.37,353.64L294.07,353.49L294.58,353.38L295.9,352.76L296.41,352.64L297.48,352.59L298.56,352.73L299.65,353.26L303.11,356.45L305.91,358.06L306.88,358.45L309.31,359.71L312.67,360.73L314.75,361.71L316.08,362.18L316.55,361.91L316.98,361.21L318.15,358.64L318.55,357.95L319.27,356.98L319.86,356.58L320.88,356.38L324.26,356.41L326.49,356.31L327.61,356.57L328.79,357.07L328.79,357.07L329.27,361.42L329.43,361.92L329.83,362.56L331.15,363.82L332.91,364.75L334.48,366.03L336.27,366.99L337.85,368.27L339.48,369.19L340.18,370.08L341.32,372.17L341.47,373.18L341.31,374.18L339.48,377.6L339.11,378.78L338.65,379.81z" 
                fill="rgb(151, 144, 238)" 
                stroke="white" 
                stroke-width=".7px"
                title="Xocavənd" 
                id="AZ-XVD" 
            />
        </svg>