<svg xmlns="http://www.w3.org/2000/svg" viewBox="221.1 329.4 64.69000000000003 67.30000000000001" width="64.69000000000003" height="67.30000000000001">
            <path 
                d="M268.05,391.57L267.45,390.44L267.04,389.35L266.74,386.38L266.41,385.53L265.14,384.09L262.81,382.09L262.17,381.37L260.35,377.89L259.96,376.39L259.63,375.7L259.4,375.41L258.8,374.93L255.52,373.09L253.57,371.75L252.83,371.43L251.3,371L249.99,370.33L248.95,370.13L247.87,370.13L247.34,370.21L246.6,370.49L244.66,371.78L242.18,373.04L241.14,373.21L238.28,373.38L235.15,374.08L235.15,374.08L234.59,369.83L234.46,367.65L234.26,366.63L233.61,365.33L233.15,363.33L232.45,362.05L232.07,361.11L231.33,359.84L230.95,358.9L230.22,357.64L229.84,356.69L229.12,355.42L228.72,354.48L228.31,353.87L227.35,352.88L225.87,351.87L225.36,351.13L224.88,350.62L222.05,348.96L221.5,348.44L221.31,348.14L221.1,347.15L221.16,346.1L221.29,345.61L222,344.32L223.33,339.71L223.33,339.71L225.99,339L227.16,338.46L228.3,337.42L229.64,335.42L230.25,335.06L230.6,334.98L231.07,335.01L232.36,335.63L233.91,336.05L234.65,336.38L235.4,336.92L236.12,337.67L236.99,339.06L237.47,339.56L237.89,339.7L238.67,339.6L240.22,338.97L242.03,337.66L243.32,337.03L243.87,336.58L244.3,335.96L245.42,333.89L245.88,332.45L246.31,331.9L246.93,331.45L247.94,330.94L248.45,330.83L251.41,330.65L255.96,329.4L255.96,329.4L257.02,330.97L257.66,331.64L259.78,332.82L260.73,333.17L261.78,333.19L262.28,333.08L265.81,331.33L266.32,331.21L267.94,331.2L268.86,331.44L269.57,331.83L270.38,332.49L271.71,333.9L272.21,334.64L272.88,336L274.99,338.28L275.54,339.1L275.73,340.12L275.78,343.4L276.01,344.28L276.43,344.92L277.04,345.39L279.16,346.59L280.82,347.14L281.31,347.18L281.8,347.09L283.23,346.25L283.58,346.17L283.92,346.25L284.58,346.73L285.42,347.7L285.73,348.53L285.79,349.06L285.72,350.66L285.59,351.16L284.91,352.43L284.44,354.42L283.93,355.16L281.96,357.24L280.65,359.27L279.2,361.02L278.75,361.92L277.55,365.33L276.42,367.65L276.42,367.65L275.51,369.52L273.93,371.42L273.71,371.83L273.63,372.29L273.7,372.75L274.69,374.44L276.16,376.52L281.24,381.64L281.94,382.46L282.2,382.91L282.66,384.92L283.33,386.21L283.46,386.71L283.54,388.85L283.32,389.83L283.13,390.13L282.58,390.62L281.58,391.21L280.03,391.92L279.27,392.42L275.24,396.2L274.5,396.63L274.03,396.7L273.55,396.61L273.13,396.39L272.36,395.73L271.69,394.95L270.96,393.58L270.5,393.08L269.61,392.45z" 
                fill="rgb(151, 144, 238)" 
                stroke="white" 
                stroke-width=".7px"
                title="Xocalı" 
                id="AZ-XCI" 
            />
        </svg>