<svg xmlns="http://www.w3.org/2000/svg" viewBox="528.88 162.74 100.75999999999999 82.57999999999998" width="100.75999999999999" height="82.57999999999998">
            <path 
                d="M629.62,218.56L626.76,218.72L625.73,218.87L623.49,219.93L623.12,221.28L623.97,222.58L623.97,222.58L623.77,222.9L623.43,224.34L623.43,224.34L622.31,226.45L622.31,226.45L621.87,227.08L621.33,227.53L621.33,227.53L620.4,227.93L619.31,228.71L619.31,228.71L618.3,229.66L617.39,230.68L617.39,230.68L616.75,231.97L616.75,231.97L615.82,233.13L614.38,234.59L613.83,235.4L613.63,236.42L613.6,239.72L613.41,240.74L612.63,241.82L611.2,243.16L611.2,243.16L610.07,243.81L609.15,244L609.15,244L604.17,244.02L603.67,244.14L602.36,244.77L602.36,244.77L600.78,244.96L600.78,244.96L597.88,244.97L594.95,245.32L594.95,245.32L592.08,243.92L590.13,242.72L589.16,242.32L586.7,240.93L585.97,240.4L583.82,238.42L582.47,237.76L581.73,237.24L580.76,236.25L580.35,235.63L579.97,234.67L579.24,233.39L578.87,232.42L578.15,231.14L577.58,229.86L577.01,229.18L576.23,228.5L573.42,226.88L572.46,226.48L571.17,225.76L570.25,225.57L567.8,225.46L566.88,225.27L564.41,223.9L563.66,223.35L553.45,213.04L552.51,211.81L551.94,210.53L551.09,209.54L550.02,208.71L548.64,208.03L545.97,205.57L544.22,204.64L542.44,203.25L539.97,201.83L539,201.44L537.65,200.71L536.5,200.58L534.81,200.89L534.81,200.89L532.37,198.35L531.5,197.27L530.95,196.01L529.46,193.13L529.03,191.98L528.91,191.12L528.88,189.79L528.93,188.96L529.1,188.18L529.7,187.12L531.35,184.66L531.35,184.66L536.42,179.79L537.42,179.17L539.64,178.14L539.64,178.14L541.93,178.4L543.26,178.26L546.86,176.55L548.9,176.14L552.44,174.46L554.49,174.06L556.61,172.98L557.22,172.53L557.64,171.9L557.87,171.02L558.15,168.89L558.78,167.59L559.14,166.15L559.34,165.77L562.63,163.96L564.61,163.39L565.64,162.74L566.45,163.12L566.84,164L566.79,168.97L566.89,170.64L567.01,171.15L567.34,171.83L568.27,173.14L569.22,173.87L570.24,174.41L571.8,174.75L572.74,175.12L574.79,176.25L576.71,177.64L579.17,179.06L580.12,179.47L581.4,180.22L583.64,181.34L584.19,181.49L585.38,181.61L595.76,181.79L596.72,181.57L597.43,181.22L600.02,179.08L600.51,178.86L601.04,178.78L601.6,178.83L602.83,179.19L604.94,180.19L607.27,180.29L608.7,179.73L608.7,179.73L611.05,182.1L612.11,184.3L613.38,185.92L614.64,186.74L617.77,187.43L619.42,188.32L621.25,187.94L622.72,187.98L624.47,188.56L626.06,189.69L627.46,191.52L628.35,193.94L629.43,195.39L629.64,196.2L629.2,196.73L628.35,196.9L628.11,197.44L628.83,199.37L627.31,201.96L627.01,203.69L627.16,209.25L628.16,216.22z" 
                fill="rgb(151, 144, 238)" 
                stroke="white" 
                stroke-width=".7px"
                title="Xızı" 
                id="AZ-XIZ" 
            />
        </svg>