<svg xmlns="http://www.w3.org/2000/svg" viewBox="429.23 497.82 71.16999999999996 52.22999999999996" width="71.16999999999996" height="52.22999999999996">
            <path 
                d="M500.4,513.28L498.39,515.41L497.43,516.13L495.88,516.92L494.29,518L488.41,520.86L486.62,522.14L484.92,522.94L483.14,524.22L479.13,526.25L477.3,527.85L476.7,528.51L475.89,529.63L474.93,530.58L473.21,531.65L471.49,532.37L470.26,533.09L469.33,534.17L467.83,536.63L465.94,538.58L465.35,539.41L465.15,540.41L465.09,543.63L464.87,544.49L464.21,545.35L462.72,546.13L462.24,546.67L461.92,547.35L461.54,548.82L460.89,550.05L460.89,550.05L459.7,549.36L457.25,548.36L456.37,547.83L454.1,545.77L452.79,545.07L450.72,544.59L449.08,544.36L447.22,543.64L445.79,542.9L445.23,542.5L444.22,542.36L443.37,542.37L442.85,542.08L442.82,541.51L441.77,539.9L440.85,539.36L440.06,539.09L434.65,535.42L434.07,534.79L432.87,532.57L430.76,529.97L430.38,529.29L429.81,527.42L429.34,524.97L429.23,523.62L429.82,519.25L430.21,518.73L430.71,518.51L431.67,519.12L432.85,519.44L434.36,519.29L435.29,519.36L436.3,519.3L437.26,519.14L437.94,518.79L438.45,518.26L438.66,517.71L438.81,515.5L438.97,514.71L439.47,513.91L440.03,513.53L441.9,512.93L442.48,512.79L443.52,512.7L445.27,512.69L446.69,512.54L449.5,511.23L454.57,511.06L457.03,510.59L458.33,510.13L460.63,509.63L462.02,509.49L464.47,509.45L465.47,509.32L466.58,509.03L467.79,508.43L470.83,506.3L474.73,504.25L475.55,503.52L476.1,502.87L476.49,502.11L476.76,501.29L476.81,500.59L476.71,499.69L476.71,499.69L477.86,499.56L478.45,499.36L480.28,498.24L481.38,497.82L482.4,497.84L482.96,498.02L483.49,498.3L485.33,499.64L486.27,500.11L487.26,500.84L489.11,502.73L491.17,505.52L491.17,505.52L490.87,507.12L490.86,509.04L490.99,509.61L491.64,510.95L491.95,511.91L492.35,512.59L493.07,512.94L494.11,513L494.63,512.91L495.74,512.44L497.12,511.54L497.57,511.42L498.3,511.7z" 
                fill="rgb(151, 144, 238)" 
                stroke="white" 
                stroke-width=".7px"
                title="Yardımlı" 
                id="AZ-YAR" 
            />
        </svg>