<svg xmlns="http://www.w3.org/2000/svg" viewBox="260.1900000000001 164.84000000000003 70.42999999999967 96.07999999999998" width="70.42999999999967" height="96.07999999999998">
            <path 
                d="M328.5,195.26l-2.37,-0.65l-1.32,-0.7l-2.05,-0.49l-1.29,-0.72l-1.3,-0.56l-2.49,-1.44l-1.84,-1.24l-0.49,-0.22l-2.63,-0.47l-1.29,-0.72l-0.96,-0.4l-1.27,-0.76l-0.96,-0.4l-1.27,-0.76l-0.96,-0.4l-2.46,-1.41l-1.92,-1.4l-2.46,-1.41l-0.96,-0.4l-1.27,-0.76l-0.96,-0.4l-1.27,-0.76l-0.96,-0.4l-1.27,-0.76l-0.96,-0.41l-1.48,-0.92l-3.42,-1.4l-2.62,-0.99l-1.52,-0.92l-0.97,-0.4l-1.28,-0.76l-0.96,-0.4l-2.46,-1.41l-1.92,-1.4l-3.65,-2.07l-1.79,-1.39l-0.39,-0.2l-1.22,-0.12l-3.72,0.48l-1.35,4.82l-0.22,1.11l-0.08,1.21l0,3.63l0.1,1.17l0.14,0.55l0.64,1.32l0.21,1.13l0.01,10.87l-0.2,1.12l-2.92,5.66l-0.21,1.03l-0.05,1.1l0.02,1.67l0.16,1.07l0.32,0.71l0.52,0.56l2.44,1.39l1.04,0.21l3.33,0.15l0.53,0.11l0.75,0.31l1.74,1.28l1.74,1.02l0.26,0.32l0.11,0.34l-0.19,0.54l-1.02,1.26l-1.07,1.84l-2.34,2.52l-1.01,1.78l-0.97,1.15l-0.54,0.82l-0.22,1.02l-0.04,2.78l0.15,0.98l0.2,0.36l0.35,0.2l0.45,0.08l0.98,-0.14l0.84,-0.52l1.19,-0.96l1.83,-0.98l1.37,-1.03l0.71,-0.36l0.91,-0.2l1.08,0.02l0.91,0.24l0.72,0.39l1.85,1.39l0.92,0.47l0.53,0.48l0.39,0.66l0.24,0.94l0.06,1.19l-0.02,3.01l-0.12,1.75l-0.14,0.54l-0.65,1.29l-0.13,0.49l-0.07,1.59l0.19,1.03l0.64,1.32l0.46,2.06l0.53,1.02l0.74,0.87l0.79,0.35l0.52,0.07l1.06,-0.04l0.51,-0.13l1.34,-0.64l1.05,-0.2l1.65,0.01l0.5,0.08l0.43,0.16l0.22,0.19l0.13,0.25l0.02,0.31l-0.63,2.02l-0.14,1.98l-0.72,1.14l-0.25,1.99l-0.93,0.65l-1.35,-0.03l-1.21,0.57l0.49,0.53l0.41,0.83l0.29,3.12l0.12,0.42l0.71,1.29l0.39,0.96l0.82,1.09l2.77,2.88l2.42,-3.15l1.2,-1.4l0.76,-1.65l1.38,-2.46l2.75,-3.81l2.11,-0.31l2.02,0.38l1.34,0.86l1.26,1.27l1.09,0.94l1.09,0.36l2.86,-1.83l2.59,-1.97l1.16,-1.09l0.75,-1.24l0.38,-0.89l0.51,-1.71l1.24,-4.52l0.43,-0.33l2.03,-0.69l0.77,-0.4l1.65,-1.42l1.06,-1.31l0.4,-0.93l0.73,-1.25l0.39,-0.94l0.69,-1.27l0.13,-0.5l0.1,-1.07l-0.1,-2.17l-0.14,-0.5l-1.8,-3.54l-0.13,-0.5l-0.11,-1.62l0.05,-3.3l0.2,-1.02l0.65,-1.29l0.13,-0.5l0.22,-2.12l0.13,-0.5l1.77,-3.47l0.13,-0.5l0.21,-2.12l0.13,-0.5l0.64,-1.29l0.13,-0.5l0.24,-2.72l1.13,-4.25L328.5,195.26zM301.64,204.42l-0.81,1.29l-0.79,0.59l-1.98,1.01L296,207.7l-1.3,0.64l-0.5,0.11l-1.04,-0.02l-0.5,-0.13l-1.29,-0.73l-0.96,-0.41l-2.42,-1.44l-0.55,-0.55l-0.94,-1.57l-1.01,-1.19l-0.51,-0.82l-0.08,-0.48l0.07,-0.48l0.67,-1.27l0.38,-0.97l0.58,-0.98l0.47,-0.58l0.54,-0.3l0.67,0.1l1.98,0.89l1.28,0.79l2.23,1.12l0.48,0.08l0.48,-0.06l3.2,-1.56l0.76,-0.17l0.4,0.13l0.58,0.73l0.56,0.49l0.44,0.17l0.26,0l0.07,0.66l-0.07,1.01l0.94,0.89l0.45,1.07L301.64,204.42zM318.32,231.22l-2.08,0.98l-3.43,-0.25l-2.57,-1.72l-0.74,-2.45l0.49,-2.33l2.21,-1.84l2.45,-0.25l2.7,1.23l1.1,1.23l0.37,3.31L318.32,231.22z" 
                fill="rgb(151, 144, 238)" 
                stroke="white" 
                stroke-width=".7px"
                title="Yevlax" 
                id="AZ-YEV" 
            />
        </svg>