<svg xmlns="http://www.w3.org/2000/svg" viewBox="203.9 7.86 95.9 86.36" width="95.9" height="86.36">
            <path 
                d="M217.92,76.22L214.7,74.79L210.24,73.15L208.96,72.04L208.39,71.02L208.74,68.5L208.44,66.95L206.69,64.53L206.35,63.93L204.82,62L203.9,60.03L203.9,60.03L206.79,61.69L207.81,62.14L208.68,62.65L209.11,62.85L209.59,62.92L210.07,62.86L212.54,61.6L214.33,60.26L216.02,59.4L217.02,58.47L218.06,57.19L218.63,56.77L219.64,56.57L223.53,56.6L224.44,56.4L225.15,56.04L226.97,54.7L228.29,54.07L229.74,52.96L231.62,52.02L232.63,51.4L233.24,50.91L233.74,50.31L234.36,49.32L234.91,48.02L235.59,46.73L236.05,44.68L236.69,43.38L236.82,42.87L237.01,40.71L237.14,40.2L238.22,37.96L238.64,37.35L239.96,36.12L241.71,35.25L244.4,32.89L246.18,31.98L248.87,29.62L250.23,28.97L250.96,28.47L255.85,23.72L256.83,22.5L257.92,20.26L258.05,19.76L258.15,15.25L258.3,13.27L258.27,12.87L258,12.13L257.07,10.88L257.07,10.88L257.79,10.22L259.8,8.78L261.04,8.27L262.68,7.86L263.46,8.38L264.33,9.63L264.71,11.19L264.72,12.65L265.97,16.23L266,18.86L266.39,20.17L266.97,21.58L268.27,23.01L270.41,24.81L273.57,28.2L274.36,29.29L274.71,30.56L275.53,31.12L276.75,31.7L278,31.72L282.12,31.07L283.07,31.36L284.03,32.38L284.89,33.91L285.3,36.12L285.37,37.29L285.07,38.45L285.15,39.22L285.76,40.06L288.02,44.21L290.53,47.31L293.98,47.73L295.04,48.22L295.69,48.94L296.13,49.85L296.39,51.07L296.02,52.02L295.01,52.78L294.27,54L294.26,55.04L294.41,56.1L297.17,62L298.23,61.89L299.33,61.59L299.8,61.57L299.8,61.57L298.5,65.35L296.87,67.98L296.47,68.17L294.38,68.44L293.63,68.72L292.87,69.23L290.91,70.93L289.82,71.42L289.29,71.5L287.68,71.42L287.17,71.28L285.86,70.59L285.36,70.44L282.1,70.15L281.6,70.01L280.29,69.34L279.78,69.19L277.65,68.92L277.14,68.78L275.83,68.1L274.8,67.88L269.23,67.72L267.6,67.79L267.1,67.91L265.79,68.52L263.13,68.86L262.03,69.33L261.25,69.98L260.54,70.97L260.07,73.02L259.87,73.46L259.39,74.31L259.01,75.27L258.28,76.53L257.89,77.48L257.16,78.74L256.77,79.69L256.04,80.96L255.66,81.91L254.93,83.17L254.54,84.12L253.81,85.38L253.43,86.33L252.7,87.6L252.3,88.54L250.75,90.5L249.88,92.17L249.27,92.9L247.98,93.94L247.98,93.94L247.67,93.35L246.95,92.96L246.46,94.22L245.83,94.03L245.58,93.38L245.23,92.92L244.67,93.36L243.94,93.34L243.87,92.62L244.16,91.9L244.27,91.26L243.83,90.71L243.38,90.7L242.99,91.41L242.89,91.87L242.36,91.49L242.19,91.03L239.21,90.14L238.22,89.75L238.04,89.03L237.9,88.94L230.28,85.95L228.34,85.3L225.8,83.54L224.79,82.74L223.71,80.72L222.52,79.5L221.69,79.06L218.72,78.9L218.37,78.64L218.32,77.03L218.11,76.3z" 
                fill="rgb(151, 144, 238)" 
                stroke="white" 
                stroke-width=".7px"
                title="Zaqatala" 
                id="AZ-ZAQ" 
            />
        </svg>