<svg xmlns="http://www.w3.org/2000/svg" viewBox="350.6 265.2 70.13 53.59000000000003" width="70.13" height="53.59000000000003">
            <path 
                d="M407.69,314.65L406.73,316.65L406.05,317.75L405.4,318.36L404.52,318.71L403.43,318.79L400.61,318.69L394.82,318.08L394.82,318.08L397.76,316.02L398,315.77L398.14,315.37L397.9,314.88L397.12,314.14L393.33,311.4L393.33,311.4L392.64,307.71L391.97,306.36L391.68,305.36L391.3,304.59L390.76,304.06L389.76,303.41L387.77,302.53L387.08,302.31L386.76,302.31L386.22,302.61L385.56,303.52L385.24,304.18L385.12,304.7L384.93,306.26L384.78,306.68L384.36,307.01L383.75,306.94L382.74,306.51L380.67,305.98L379.38,305.34L378.9,305.26L378.42,305.32L377.13,305.89L376.62,306L373.36,306.16L372.86,306.27L371.55,306.88L371.04,306.99L367.78,307.2L367.04,307.48L365.43,308.56L364.33,309.04L363.27,309.13L362.31,308.9L361.85,308.45L361.37,307.03L360.73,305.71L360.26,303.68L359.63,302.76L357.65,300.61L357.37,300.14L357.23,299.65L357.13,298.04L357.19,294.72L357.86,289.42L357.86,289.42L358,289.03L357.94,288.64L357.64,288.39L357.18,288.26L354.96,288.15L352.67,288.48L352.18,288.38L351.76,288.15L351.04,287.47L350.67,286.85L350.6,286.36L350.67,285.85L352.26,282.96L352.26,282.96L360.23,275.33L361.2,274.26L361.55,273.48L361.85,271.84L362.56,270.59L362.92,269.63L365,265.2L365,265.2L368.85,268.09L370.47,268.83L371.75,269.57L372.71,269.97L375.17,271.36L375.92,271.9L381.97,277.99L382.61,278.89L383.01,279.85L384.17,281.93L384.65,282.42L385.07,282.56L385.86,282.46L387.05,282L387.76,281.6L389.34,280.47L391.38,279.39L392.33,279.07L393.4,279.02L394.47,279.13L394.98,279.27L396.28,279.96L397.32,280.18L403.44,280.35L405.02,280.16L406.32,279.55L406.83,279.43L408.97,279.26L409.47,279.14L410.78,278.52L411.28,278.4L413.48,278.35L419.35,278.58L419.35,278.58L418.54,282.29L418.48,291.02L418.57,292.14L418.71,292.67L419.34,293.97L419.48,294.47L419.71,296.58L419.84,297.08L420.48,298.38L420.61,298.88L420.73,300.49L420.73,303.24L420.63,304.29L420.48,304.78L419.86,305.68L417.88,307.74L416.86,309.57L416.11,310.42L414.93,311.5L414.16,311.99L413.41,312.26L411.22,312.49L410.37,312.75L409.59,313.22z" 
                fill="rgb(151, 144, 238)" 
                stroke="white" 
                stroke-width=".7px"
                title="Zərdab" 
                id="AZ-ZAR" 
            />
        </svg>