<svg xmlns="http://www.w3.org/2000/svg" viewBox="512.36 95.1 68.72000000000003 89.56" width="68.72000000000003" height="89.56">
            <path 
                d="M581.08,135.22L578.99,134.43L575.7,131.47L573.08,128.22L571.65,127.19L570.77,126.88L569.7,126.86L569.2,126.98L563.86,129.6L562.92,129.9L561.89,129.87L561.39,129.73L560.08,129.05L559.06,128.86L558.04,128.99L556.74,129.61L556.23,129.73L555.15,129.8L551.24,129.77L550.35,129.98L549.71,130.39L549.23,130.99L548.29,132.65L548.09,133.08L547.93,134.11L548.1,135.13L549.9,138.71L550.38,140.75L551.03,142.07L551.16,142.57L551.27,144.2L551.27,146.44L551.23,147.53L551.04,148.57L550.34,149.84L549.94,150.8L548.66,152.94L547.79,153.92L546.78,154.67L544.91,154.74L544.01,154.54L542.88,154.59L541.8,155.52L539.73,156.63L538.82,157.38L537.21,159.07L536.94,159.54L536.79,160.04L536.72,161.11L536.81,162.18L536.95,162.68L537.61,164.01L537.82,165.13L537.85,169.9L537.94,171.06L538.07,171.61L538.73,172.95L538.88,173.46L539.64,178.14L539.64,178.14L537.42,179.17L536.42,179.79L531.35,184.66L531.35,184.66L528.09,182.91L526.79,182.36L525.5,181.6L524.54,181.2L523.27,180.44L522.3,180.03L520.29,178.81L517.9,177.69L517.9,177.69L517.78,174.14L517.82,167.86L518.02,166.9L518.68,165.64L518.74,165L518.46,164.27L518.15,163.88L516.31,161.96L515.74,161.13L515.52,159.78L515.61,158.4L515.74,157.97L516.23,157.23L517.54,155.91L518.61,155.04L520.33,154.23L521.36,153.35L521.88,152.71L522.18,152L522.51,150.35L523.2,149.06L523.3,148.67L523.31,147.42L522.94,146.57L522.25,145.76L512.98,136.34L512.44,135.5L512.36,134.86L512.43,134.54L513.11,133.28L513.5,132.33L514.25,131.07L514.91,129.72L517.35,127.09L518.52,125.27L519.14,124.82L522.06,123.29L522.68,122.84L523.85,121.01L526.31,118.38L526.58,117.97L527.38,116.23L527.46,115.85L527.34,115.47L527.08,115.09L525.28,113.19L524.71,112.35L524.58,111.9L524.48,110.92L524.5,108.38L524.6,107.4L524.72,106.95L525.41,105.66L525.52,105.27L525.8,102.47L526.37,98.45L526.37,98.45L527.51,98.78L528.74,98.85L531.11,97.87L532.4,97.14L534.21,96.3L534.63,96.13L535.11,96.07L535.59,96.15L536.02,96.35L537.67,97.35L538.31,97.83L539.36,98.87L539.97,99L541.32,98.54L542.87,98.2L543.61,97.9L545.55,96.58L548.02,95.29L548.52,95.17L549.6,95.1L552.95,95.17L554.03,95.29L554.54,95.43L558.12,97.33L559.24,97.56L560.49,97.61L569.82,97.14L569.82,97.14L570.12,98.05L572.76,101.46L576.47,110.96L576.72,113.51L577.85,117.21L579.17,127.88L580.71,133.42z" 
                fill="rgb(151, 144, 238)" 
                stroke="white" 
                stroke-width=".7px"
                title="Şabran" 
                id="AZ-SBN" 
            />
        </svg>