<svg xmlns="http://www.w3.org/2000/svg" viewBox="81.95 399.83 60.7 55.14000000000004" width="60.7" height="55.14000000000004">
            <path 
                d="M138.57,440.53L135.47,442.17L134.95,444.73L133.16,447.29L131.11,449.59L129.58,450.87L127.27,449.34L126.76,447.03L125.48,446.01L122.92,446.01L121.13,448.83L118.82,450.36L115.24,450.36L113.44,451.9L110.88,453.43L109.07,454.97L109.07,454.97L106.79,454.97L106.79,454.97L105.76,453.43L107.04,449.85L103.2,447.03L100.64,443.96L99.36,442.68L94.24,442.17L91.42,442.17L89.37,438.84L88.86,435L87.32,432.95L85.53,432.95L82.71,432.18L81.95,429.11L85.02,427.06L88.86,424.24L91.68,420.66L93.47,419.89L93.79,417.61L93.79,417.61L95.81,417.74L97.68,417.12L98.91,416.29L102.64,411.96L103.79,411.06L108.17,409.38L112.23,407.03L115.71,406.63L117.87,405.79L120.09,404.26L122.33,401.27L124.11,399.83L125.27,399.94L130.03,402.5L133.92,403.02L135.18,403.97L136.17,405.09L137.2,407.2L139.62,410.18L140.38,411.6L140.74,413.26L140.33,418.75L140.75,420.03L142.13,421.49L142.65,423.05L142.27,424.63L140.51,428.65L138.42,431.83L136.75,435.12L136.58,437.6L137.08,438.92z" 
                fill="rgb(151, 144, 238)" 
                stroke="white" 
                stroke-width=".7px"
                title="Şahbuz" 
                id="AZ-SAH" 
            />
        </svg>