<svg xmlns="http://www.w3.org/2000/svg" viewBox="544.47 333.45 8.740000000000009 15.759999999999991" width="8.740000000000009" height="15.759999999999991">
            <path 
                d="M551.12,347.31L551.04,348.24L550.89,348.64L550.7,348.89L550.15,349.17L549.83,349.21L548.99,349.08L547.67,348.35L546.41,348L546.41,348L545.85,347.68L545.75,347.43L545.83,346.8L546.36,346.03L546.36,346.03L546.6,342.13L546.5,340.69L545.73,339.24L545.33,338.29L544.6,337L544.47,335.86L544.53,335.48L544.85,334.78L545.39,334.24L546.92,333.57L547.58,333.45L548.16,333.6L548.42,333.81L549.81,336.18L550.46,337.56L552.61,339.84L553.14,340.65L553.21,340.96L553.13,341.58L552.91,341.98L551.59,343.49L551.25,344.14L551.14,344.86z" 
                fill="rgb(151, 144, 238)" 
                stroke="white" 
                stroke-width=".7px"
                title="Şirvan City" 
                id="AZ-SR" 
            />
        </svg>