<svg xmlns="http://www.w3.org/2000/svg" viewBox="126.52 135.54 79.04 100.85" width="79.04" height="100.85">
            <path 
                d="M174.17,220.79L172.18,219.4L171.16,218.96L169.85,218.16L168.88,217.75L167.59,217L166.43,216.85L166.04,216.91L165.34,217.21L164.78,217.73L163.4,220.13L163.03,221.08L162.3,222.33L161.93,223.27L161.19,224.52L160.81,225.46L160.54,225.86L158.11,228.46L157.45,229.8L156.91,230.56L153.18,234.2L153.15,235.29L152.07,236.39L152.07,236.39L151.08,235.37L150.97,235.09L150.94,234.63L151.08,234.05L152.07,233.07L152.07,230.45L151.97,229.29L151.83,228.77L151.19,227.46L151.13,226.98L151.2,226.51L151.89,225.25L152.47,223.63L152.5,223.16L152.4,222.72L151.97,222.25L151.08,221.81L150.33,221.29L148.33,219.29L147.85,218.53L147.33,216.63L146.92,215.98L146.63,215.73L144.21,214.31L143.24,213.92L141.15,212.71L140.28,211.95L139.36,210.38L138.05,208.79L137.12,207.01L135.82,205.43L134.46,202.76L134.28,201.73L134.18,198.99L133.88,198.17L133.37,197.51L132.7,196.87L131.96,196.35L131.02,195.92L130.46,195.45L129.25,193.35L127.08,190.2L127.08,190.2L127.29,189L127.35,187.9L127.27,187.4L126.64,186L126.52,185.49L126.52,184.44L126.85,183.5L128.01,181.54L128.89,180.81L131,179.71L132.3,179.2L133.63,178.37L134.18,177.85L135.58,176.1L136.96,174.8L137.7,174.31L139.02,173.7L142.55,170.49L143.29,170L144.61,169.39L145.63,168.51L146.35,167.57L147.03,166.22L148,165.07L148.54,164.26L149.01,162.24L149.64,160.93L149.96,158.85L150.12,158.4L150.32,158.15L150.58,157.96L151.03,157.81L152.1,157.73L173.86,158.26L174.96,158.14L175.66,157.83L176.19,157.31L176.5,156.61L176.75,154.46L177.12,153.54L179.52,150.91L180.48,149.12L181.61,147.9L187.32,142.37L188.45,141.14L188.9,140.31L190.78,135.54L190.78,135.54L194.07,140.59L194.94,142.36L195.61,143.15L199.71,147.31L200.73,148.48L202.11,151.15L202.48,152.11L203.22,153.4L203.6,154.36L204.35,155.64L204.74,156.61L205.45,157.91L205.56,158.3L205.56,159.55L205.24,160.38L204.07,162.56L202.47,164.49L202.07,165.43L201.37,166.69L201.2,167.61L201.06,170.51L200.94,170.95L200.28,172.23L200.16,172.66L200.01,174.5L199.84,175.37L199.13,176.64L198.73,177.57L197.12,179.51L196.76,180.32L196.75,181.56L197.11,182.39L199.28,184.73L199.86,185.61L200.38,188.52L200.38,188.52L197.61,194.15L196.04,196.1L195.8,196.53L195.58,197.64L195.57,201.26L195.48,202.42L195.34,202.97L193.56,206.44L193.37,207.46L193.25,211.28L192.92,212.22L192.05,214L191.63,214.6L190.91,215.31L190.16,215.8L189.41,216.08L188.84,216.16L181.09,216L179.99,216.08L179.5,216.23L178.92,216.63L177.15,218.65z" 
                fill="rgb(151, 144, 238)" 
                stroke="white" 
                stroke-width=".7px"
                title="Şəmkir" 
                id="AZ-SKR" 
            />
        </svg>