<svg xmlns="http://www.w3.org/2000/svg" viewBox="269.28000000000003 74.11000000000001 102.42999999999995 128.48000000000002" width="102.42999999999995" height="128.48000000000002">
            <path 
                d="M371.19,195l-2.64,-1.54l-2.23,-1.77l-2.47,-1.41l-3.19,-1.55l-1.27,-0.75l-0.96,-0.4l-3.5,-1.91l-0.96,-0.4l-2.46,-1.4l-1.14,-0.9l-5.36,-5.44l-0.96,-1.24l-0.4,-0.95l-0.73,-1.28l-0.38,-0.96l-0.69,-1.3l-0.18,-1.04l-0.04,-2.78l-0.22,-0.98l-0.45,-0.45l-0.45,-0.13l-0.49,-0.01l-0.5,0.1l-1.33,0.65l-0.5,0.1l-0.5,-0.01l-0.45,-0.14l-0.26,-0.19l-0.2,-0.26l-0.15,-0.46l-0.05,-1.05l0.21,-1.04l0.63,-1.29l0.04,-0.47l-0.24,-0.67l-0.22,-0.3l-0.61,-0.47l-3.29,-1.88l-0.53,-0.56l-0.33,-0.71l-0.15,-1.07l0.03,-1.65l0.21,-1.03l0.67,-1.29l0.13,-0.5l0.14,-2.72l0.19,-1.03l7.38,-14.49l0.45,-2.03l1.79,-3.48l0.13,-0.5l0.09,-1.08l0,-7.28l0.04,-2.37l0.13,-1.2l1.9,-5.08l-3.43,-1.55l-2.6,-0.94l-3.42,-2.03l-3.87,-2.69l-0.99,-1.1l-0.37,-2.03l-0.34,-3.69l-0.52,-1.16l0,-3.87l-0.22,-1.39l-0.48,-0.79l-0.83,-0.24l-1.91,0.34l-0.44,-0.06l-0.54,-0.43l-0.53,-0.59l-0.21,-1.34l0.26,-1.84l0.94,-1.84l0.6,-0.77l-0.03,-0.93l-0.82,-0.49L323.86,81l-0.99,-0.25l-0.58,-0.43l-0.59,-0.96l-0.26,-1.87l-0.41,-1.35l-0.81,-1.21l-0.55,-0.55l-0.44,-0.27l-2.01,9.71l-0.92,1.41l-1.54,1.54l-0.76,0.53l-3.68,1.91l-0.74,0.52l-0.93,1.02L308.04,92l-0.41,0.61l-1.11,1.02l-1.09,0.47l-2.66,0.33l-10.23,4.89l-2.04,0.42l-2.25,1.02l-2.8,1.53l-2.5,2.14l-1.86,0.96l-1.72,1.54l-0.74,0.86l-0.26,0.48l-0.2,1.03l-0.05,1.67l-0.13,1.07l-0.52,1.02l-0.53,0.45l-1.34,0.67l-1.61,1.22l-1.63,0.87l-0.47,0.56l-0.31,0.71l-0.16,1.72l0.04,6.5l-0.11,1.72L271.2,128l-0.65,1.3l-0.13,0.5l-0.25,3.26l-0.14,0.5l-0.65,1.3l-0.1,0.96l0.13,0.44l0.44,0.47l1.42,0.52l1.32,0.68l1.5,0.47l2.97,1.89l1.19,0.63l1.14,0.9l1.54,1.68l0.98,1.85l1.54,2.02l1.09,2.26l0.46,2.04l1.77,3.56l0.2,1.11l0,14.33l-0.09,1.84l-0.28,2.42l3.42,1.4l1.48,0.92l0.96,0.41l1.27,0.76l0.96,0.4l1.27,0.76l0.96,0.4l1.27,0.76l0.96,0.4l2.46,1.41l1.92,1.4l2.46,1.41l0.96,0.4l1.27,0.76l0.96,0.4l1.27,0.76l0.96,0.4l1.29,0.72l2.63,0.47l0.49,0.22l1.84,1.24l2.49,1.44l1.3,0.56l1.29,0.72l2.05,0.49l1.32,0.7l2.37,0.65l2.12,0.91l3.1,0.91l4.55,0.23l1.04,0.21l5.33,2.83l0.95,0.36l1.05,0.07l0.96,-0.22l0.49,-0.44l0.69,-1.05l0.71,-0.31l0.48,-0.01l0.48,0.1l1.3,0.66l2.04,0.53l1.31,0.69l1.91,0.58l1.55,0.94l0.43,0.21l0.48,0.1l0.84,-0.12l5.03,-1.53l0.79,-1.31l0.33,-0.29l0.43,-0.17l0.94,-0.02l0.45,0.12l1.32,0.74l0.5,0.13l0.67,-0.01l0.57,-0.28l0.31,-0.56l0.08,-1L371.19,195zM320.41,129.05l-2.32,0.96l-4.78,-0.82l-1.09,-2.46v-2.46l2.05,-2.59l2.32,-1.5l2.46,1.09l1.5,1.37l0.96,3.55L320.41,129.05z" 
                fill="rgb(151, 144, 238)" 
                stroke="white" 
                stroke-width=".7px"
                title="Şəki" 
                id="AZ-SAK" 
            />
        </svg>