<svg xmlns="http://www.w3.org/2000/svg" viewBox="190.22000000000003 153.84916000000013 132.98999999999995 141.66999999999993" width="132.98999999999995" height="141.66999999999993">
            <path 
                d="m 291.15,283.37916 -1.19,-0.2 -6.32,1.84 -5.31,0.6 -1.95,0.46 -1.04,1.36 -0.71,1.01 -3.99,2.79 -1.27,-0.58 -1.38,-1.06 -1.35,-1.25 -0.84,-0.35 -4.43,-0.34 -6.45,-1.91 -1.58,-0.51 -1.36,-0.2 -0.06,1.18 0.61,3.82 0.17,3.01 -0.7,0.52 -2.61,-0.26 -1.85,-0.18 -2.31,0.29 -1.12,0.29 -3.06,1.62 -0.84,0.11 -3.51,0.08 -0.59,-0.34 -1.56,-1.45 -0.87,-0.98 -1.93,-2.48 -0.36,-1.02 0.74,-1.64 0.11,-1.26 -0.24,-1.18 -0.63,-1.54 -0.62,-1.14 -0.43,-1.08 -0.18,-0.99 0.18,-0.98 0.63,-1.2 0.21,-3.15 -2.37,-0.47 -0.84,-0.28 -0.74,-0.66 -0.61,-1.65 -0.15,-1.25 -0.05,-1.32 -0.21,-2.85 -0.6,-0.7 -1.88,-1.01 -0.96,-0.14 -9.57,1.69 -1.19,0.37 -0.9,0.11 -4.32,-0.19 -3.39,-4.76 -0.29,-0.96 0.01,-1.09 -0.01,-3.37 -0.28,-1.55 -3.67,-7.77 -0.88,-0.82 -2.1,-1.34 -0.39,-5.42 2.27,-0.76 1.57,0.11 1.48,0.53 1.93,-1.61 0.08,-1.51 -0.51,-1.41 -0.75,-1.72 0.67,-1.01 5.86,-0.22 2.94,0.6 1.4,0.7 0.83,0.23 0.77,-0.42 1.17,-7.02 -0.41,-1.66 -0.56,-1.36 -0.6,-0.91 -2.07,-2.81 -1.55,-0.43 -0.9,-0.46 -2.5,-2 -7.58,-7.72 -0.88,-0.92 -0.81,-0.87 -2.48,-2.81 -1.29,-1.6 -3.06,-0.68 -0.57,-3.8 1.5,-0.45 0.95,-0.59 0.89,-0.96 0.6,-1.53 0.23,-1.46 0.44,-2.18 0.53,-0.75 2.35,-1.66 1.1,-0.34 1.39,-0.41 1.23,-1.93 0.19,0.17 0.06,1.77 -0.17,2.48 -1.39,-0.34 -0.93,-0.5 -0.98,0.63 -0.44,1.9 0.15,2.05 2.14,1.1 2.27,0.18 2.43,-0.59 0.55,-0.68 0.52,-4.28 -0.29,-2.12 -0.59,-4.42 -0.5,-5.93 -0.35,-2.92 -1.98,-2.94 -2.26,-1.62 -2.12,-0.65 -0.01,-1.29 1.8,-2.23 2.75,-0.49 5.94,-1.77 9.95,-8.28 0.24,-1.24 0.7,0.55 0.42,0.73 0.29,0.81 0.08,0.84 0.02,1.5 0.12,1.09 0.22,1.28 0.56,2.02 0.58,1.07 0.59,0.76 0.79,0.74 0.93,0.58 1.2,0.62 1.07,0.42 1.47,0.74 0.61,0.73 0.19,1.05 -0.03,1.77 -0.07,1.35 -0.2,1.37 -0.34,1.08 -0.63,1.08 -0.75,0.87 -1.19,1.18 -0.81,0.57 -1.96,2 -1.03,1.19 -0.99,2.06 -0.47,1.42 -0.31,1.42 -0.36,2.16 -0.14,1.13 -0.09,2.08 -0.47,1.61 -1.57,1.56 -0.98,0.96 -0.78,1.33 -0.38,4.27 -0.02,1.46 0.06,0.93 0.33,2.16 0.34,1.49 0.34,1.15 0.61,1.12 1.56,2.39 3.88,5.04 1.41,0.23 1.23,-0.05 0.91,-0.1 2.82,-0.11 8.05,-0.05 2.01,0.03 2.99,0.15 1.28,-0.32 6.91,-8.57 0.53,-3.06 1.2,-2.04 0.51,-0.73 1.05,-1.02 1.28,-0.23 0.9,0.48 1.29,1.14 0.87,0.28 0.69,-0.62 0.43,-1.96 0.83,-2.31 1.01,-0.35 1.36,-0.45 1.1,-0.52 0.93,-1.28 0.29,-0.82 0.48,-1.17 4.57,-4.35 1.14,-0.3 2.45,0.1 2.17,0.17 2.34,0 1.13,-0.05 1.02,-0.29 0.85,-0.41 0.82,-0.62 0.64,-0.76 0.48,-0.73 1.29,-1.85 1.26,-1.35 2.08,1.77 2.23,1.88 0.8,0.59 1.7,1.12 2.16,1.29 1.11,0.7 0.81,0.62 0.96,1.05 0.37,0.78 0.21,1.01 0.02,0.89 -0.02,3.09 0.19,1.99 0.88,1.08 -0.96,4.56 -2.76,6.89 0,0.97 0.42,0.75 0.61,0.73 3.33,3.42 2.18,-1.69 0.51,-0.81 0.95,-1.95 0.88,-1.15 0.81,-0.53 0.78,0.33 0.51,1.04 0.11,1.44 -0.48,0.8 -0.93,1.1 -0.79,1.49 -0.21,1 -0.27,3.95 0.13,1.21 2.39,7.11 1.46,0.22 1.21,-0.02 1.57,-0.39 4.36,-3.77 1.26,-1.15 1.93,-1.91 2.32,-2.33 2.24,-2.25 -0.22,0.75 -0.21,1.22 0.01,0.85 0.49,4.36 0.53,1.04 0.77,0.93 0.46,1.64 -0.07,1.05 -1.86,1.7 -1.87,0.84 -1.4,0.75 -2.12,2.27 -1.08,1.8 -0.78,1.36 -0.64,0.63 -1.27,1.01 -4.87,3.79 -2.71,1.26 -1.3,0.04 -1.49,1.85 -0.39,1.41 0.33,3.53 1.05,1.73 -0.35,0.86 -3.89,4.33 -0.97,0.72 -1.64,0.7 -0.5,0.57 -0.61,0.82 -1.12,3.44 0,1.72 0.17,5.11 -0.7,0.71 -1.41,5.04 z" 
                fill="rgb(151, 144, 238)" 
                stroke="white" 
                stroke-width=".7px"
                title="Antioquia" 
                id="CO-ANT" 
            />
        </svg>