<svg xmlns="http://www.w3.org/2000/svg" viewBox="386.86 228.61915999999997 119.92999999999995 43.80000000000001" width="119.92999999999995" height="43.80000000000001">
            <path 
                d="m 489.73,272.41916 -2.52,-1.54 -6.85,-5.51 -2.48,-2.24 -3.24,-1.43 -7.33,-0.14 -2.12,0.67 -2.18,1.24 -0.78,0.35 -1.1,0.45 -6.04,0.4 -2.51,0 -5.69,-0.18 -2.78,-0.16 -1.59,-0.17 -8.34,-1.82 -1.16,-0.46 -2.29,0.59 -1.33,0.54 -1.07,0.63 -6.81,1.95 -0.83,0.07 -3.11,-0.01 -1.18,-0.93 -5.51,0.3 -8.92,1.87 -1.55,1.09 -0.75,0.66 -2.99,1.8 -0.86,-0.03 -1.67,-0.35 -3.5,-1.58 -3.34,-4.4 -0.37,-1.46 -0.08,-1 0.22,-1.79 3.45,-3.89 4.11,-2.1 1.02,-0.88 0.34,-1.25 0.09,-1.14 2.35,-5.44 1.89,-3.33 0.29,-0.87 0.13,-0.81 0.21,-1.38 0.1,-1.35 0.33,-1.22 0.58,-1.05 1.89,-2.85 2.06,0.95 1.82,-0.02 1.16,-0.66 4.23,-1.78 2.33,-0.59 1.81,0.11 2,0.53 2.67,0.67 1,0.23 5.42,0.04 2.88,1.44 3.35,0.99 6.44,-0.87 0.81,-0.34 1.42,-0.64 2.58,-1.65 0.9,-1.11 1.19,-0.3 1.57,-0.21 4.11,-0.44 6.89,1.64 4.57,1.95 2.29,1.16 1.04,0.79 0.7,0.47 0.83,0.31 1.2,0.27 1.33,-0.3 0.78,-0.63 0.89,-0.54 2.61,-0.35 1.62,0.28 16.26,20.16 12.17,15.16 -1.63,1.32 -1.13,0.57 -2.18,0.76 -1.64,0.13 -2.41,0.03 -2.36,-0.26 -2.56,-0.26 -1.25,0.22 -1.38,0.59 z" 
                fill="rgb(151, 144, 238)" 
                stroke="white" 
                stroke-width=".7px"
                title="Arauca" 
                id="CO-ARA" 
            />
        </svg>