<svg xmlns="http://www.w3.org/2000/svg" viewBox="266.83000000000004 61.579162 22.029999999999973 35.870000000000005" width="22.029999999999973" height="35.870000000000005">
            <path 
                d="m 267.15,75.139162 0.88,-0.22 7.55,-4.18 0.32,-1.25 0.36,-1.28 4.2,-4.27 2.19,-2.12 0.29,-0.24 -0.03,0.24 0.81,2.01 1.32,0.84 0.97,0.92 0.53,0.89 2.21,4.07 0.11,5.72 -0.07,2.72 -0.22,4.29 -0.38,1.8 -1.9,1.26 -0.89,0.84 -0.74,0.95 -2.24,5.11 -1.73,4.21 -3.15,-2.67 -4.91,-2.97 -5.06,-3.66 -0.34,-1.77 0.31,-1.35 0.23,-1.05 0.08,-1.21 -0.24,-1.36 -0.78,-2.35 1.04,-0.95 -0.37,-1.37 -0.63,0.66 0.08,-1.44 z" 
                fill="rgb(151, 144, 238)" 
                stroke="white" 
                stroke-width=".7px"
                title="Atlántico" 
                id="CO-ATL" 
            />
        </svg>