<svg xmlns="http://www.w3.org/2000/svg" viewBox="253.18000000000004 75.129162 75.34999999999994 157.31999799999994" width="75.34999999999994" height="157.31999799999994">
            <path 
                d="m 327.18,184.94916 -1.1,0.66 -1.57,1.44 -0.63,1.51 -0.21,0.93 0.01,1.39 0.03,1.26 1.21,4.04 0.74,1.55 0.64,3.23 -0.78,6.67 -1.71,2.71 -1.7,3.9 -0.74,6.38 -2.24,2.25 -2.32,2.33 -1.92,1.91 -1.26,1.15 -4.37,3.78 -1.57,0.39 -1.21,0.02 -1.47,-0.22 -2.38,-7.11 -0.14,-1.22 0.27,-3.95 0.21,-0.99 0.78,-1.5 0.93,-1.1 0.49,-0.8 -0.11,-1.44 -0.51,-1.04 -0.78,-0.32 -0.81,0.53 -0.89,1.15 -0.95,1.95 -0.5,0.8 -2.18,1.69 -3.33,-3.41 -0.62,-0.73 -0.41,-0.75 -0.01,-0.97 2.77,-6.88 0.96,-4.56 -0.88,-1.08 -0.19,-1.99 0.02,-3.09 -0.02,-0.9 -0.21,-1.01 -0.38,-0.77 -0.95,-1.05 -0.81,-0.62 -1.11,-0.7 -2.16,-1.29 -1.69,-1.13 -0.8,-0.59 -2.23,-1.88 -2.08,-1.77 1.8,-0.85 0.65,-0.74 0.36,-1.46 0.35,-0.28 1.16,-0.4 1.53,-0.28 1.99,-0.26 0.92,-1.1 1.68,-3.39 1.11,-3.01 -0.59,-0.98 -0.61,-1.9 -0.37,-1.6 0.01,-7.48 1.53,-1.33 -2.21,-4.96 -1.33,-2.11 -1.19,-1.09 -2.37,-1.66 -1.08,-0.61 -0.79,-0.33 -0.85,-0.31 -2.42,-1.53 -1.7,-2.08 -1.39,-2.76 -0.68,-1.6 -0.17,-1.16 0.11,-0.98 0.33,-2.24 -0.05,-1.14 -0.16,-0.95 -0.66,-0.97 -1.02,-1.23 -0.76,-0.84 -10.63,-8.77 -3.15,-2.26 0.08,-0.87 -0.14,-2.98 -0.38,-1.08 -1.82,-0.79 -3.78,-4.67 -2.01,-4.63 -1.73,0.42 -0.7,0.32 0.45,-1.91 1.55,-1.99 0.1,-2.269998 -0.63,-7.53 2.55,-1.2 -0.06,-1.85 -0.72,-2.46 1.15,-1.78 2.77,-2.74 4.98,-2.74 1.1,0.13 0.39,0.62 0.79,2.35 0.23,1.37 -0.07,1.2 -0.23,1.05 -0.31,1.35 0.34,1.76 5.06,3.66 4.91,2.97 3.15,2.67 -1.37,4.519998 0.4,1.3 1.92,0.91 1.52,0.42 2.2,3.09 -0.29,1.61 -1.31,0.78 -1.23,0.55 -0.39,1.09 0.13,2.57 0.11,0.9 1.93,6.36 0.4,0.74 1.02,4.38 -0.46,2.85 -0.06,1.96 2.45,1.08 0.87,-0.1 0.91,-0.13 2.6,1.77 2.81,3.03 4.13,1.7 1.38,-0.02 3.8,1.7 1.76,1.1 3.11,2.79 1.06,1.71 2.25,2.24 5.8,1.9 3.31,0.67 2.1,0.03 -0.26,2.81 0.68,1.44 1.05,0.96 0.58,5.21 -0.25,3.29 1.18,2.39 0.53,0.86 1.03,3.54 0.45,4.05 -0.23,4.58 -1.12,4.87 z m -60.31,-107.549998 -0.72,-0.29 0.17,-1.92 0.83,-0.06 -0.2,0.81 -0.08,1.46 z" 
                fill="rgb(151, 144, 238)" 
                stroke="white" 
                stroke-width=".7px"
                title="Bolívar" 
                id="CO-BOL" 
            />
        </svg>