<svg xmlns="http://www.w3.org/2000/svg" viewBox="291.14999999999986 230.10915999999997 112.7100000000001 99.00000000000006" width="112.7100000000001" height="99.00000000000006">
            <path 
                d="m 379.75,237.26916 2.52,0 2.74,-0.09 0.98,-0.32 1.21,-1.07 0.59,-1.12 0.66,-1.37 4.14,-2.36 0.85,-0.31 1.07,0.1 1.37,0.37 1.15,0.03 0.8,-0.37 0.8,-0.65 2.53,1.89 2.7,0.27 -1.89,2.85 -0.58,1.05 -0.33,1.22 -0.1,1.35 -0.21,1.38 -0.13,0.81 -0.29,0.87 -1.89,3.33 -2.35,5.44 -0.09,1.14 -0.34,1.25 -1.02,0.88 -4.11,2.1 -3.45,3.89 -0.33,0.23 -1.22,1.2 -0.63,1.04 -0.3,1.06 -0.1,1.16 -0.24,5.2 2.07,2.23 -1.16,4.91 -0.57,0.62 -0.68,2.81 4.47,1.92 1.94,3.31 0.05,0.96 -1.82,4.44 -3.31,1.37 -0.77,-0.47 -0.85,0.33 -0.63,0.6 -0.77,1.08 -0.75,1.12 -1.11,1.58 -0.75,0.91 -5.38,3.89 -4.02,0.55 -1.26,-1.42 -2.07,-1.52 -5.2,6.47 -1.12,3.14 0.41,0.83 2.09,1.9 0.44,0.93 -0.14,0.81 -1.17,1.31 -1.25,0.71 -1.4,0.31 -1.06,0.88 -0.72,1.19 -1.34,4.47 -0.25,1.04 0.13,0.83 1.31,2.2 -1.74,2.92 -1.79,0.23 -2.08,-0.35 -0.93,-0.51 -0.57,-0.78 -1.32,-1.68 -2.56,-1.8 -0.97,-0.47 -0.85,-0.29 -1.25,-0.48 -0.99,-0.42 -1.23,-0.77 -2.41,-1.6 -1.38,-1.32 -0.31,-1.18 0.71,-2.72 0.65,-1.04 1.5,-1.6 -0.71,-4.07 -0.8,-1.62 -0.78,-1.41 -1.79,-5.69 -2.85,-3.4 -2.91,-0.75 -3.21,-3.17 -1.71,0.38 -1.99,1.4 -0.56,1.49 -0.07,1.2 -1.8,1.9 -0.85,0.81 -0.77,0.38 -1.42,0.56 -0.97,-0.07 -5.35,-3.99 -2.76,-0.96 -3.49,-4.45 -0.42,-1.53 1.16,-1.33 0.78,-1.04 -0.68,-3.94 -1.08,-1.24 -1.66,1.26 -2.33,1.11 -1.57,-0.26 -1.83,-0.55 -5.02,1.06 -0.74,0.61 -0.02,-0.59 -0.75,-0.82 0.57,-2.94 1.41,-5.04 0.7,-0.71 -0.17,-5.11 0,-1.72 1.12,-3.44 0.61,-0.82 0.5,-0.57 1.39,1.63 2.17,3.51 1.59,2.38 1.42,1.3 1.17,0.34 0.78,-0.34 0.75,-0.41 1.08,-0.33 1.05,0.38 1.9,4.05 3.72,3.45 4.47,2.5 0.69,0.67 0.77,2.03 0.81,0.67 4.91,-1.21 5.41,-0.62 1.31,1.04 1.25,0.83 1,-0.67 0.69,-2.38 0.17,-0.86 0.79,-4.74 2.44,-5.91 1.27,-1.71 4.82,2.54 0.79,0.74 0.4,0.95 0.08,1.12 -0.1,0.9 -0.31,1.12 -1.1,2.07 -0.16,1.02 0.27,1.69 0.62,1.19 0.89,0.69 1.38,0.39 1.24,-0.14 2.3,-1.08 0.7,-0.75 0.17,-0.99 -0.51,-1.43 0.17,-1.22 0.66,-0.73 1.12,-0.55 0.88,-0.23 1.17,-0.13 1.12,0.22 2.59,0.41 3.01,-2.97 7.64,-9.45 1.1,-2.02 0.62,-1.72 -0.11,-2.08 -0.64,-1.19 -0.65,-1.03 -0.29,-1.44 0.03,-4.14 1.21,-0.19 2.37,1.47 0.53,1.18 0.76,2.73 2.16,-0.07 0.96,-0.21 0.79,-0.47 0.67,-0.8 0.47,-0.95 1.91,-5.51 0.25,-1.09 0.07,-1.21 -0.47,-6.04 -0.41,-1.28 z" 
                fill="rgb(151, 144, 238)" 
                stroke="white" 
                stroke-width=".7px"
                title="Boyacá" 
                id="CO-BOY" 
            />
        </svg>