<svg xmlns="http://www.w3.org/2000/svg" viewBox="238.86 283.1791599999998 53.06 39.55000000000018" width="53.06" height="39.55000000000018">
            <path 
                d="m 260.77,322.72916 -3.31,-2.86 -1.68,-1.04 -0.85,-0.05 -3.19,-0.17 -4.29,-1.56 -4.6,1.08 -1.46,0.01 -0.89,-0.73 -1.64,-4.43 0.6,-1.41 4.5,-4.18 4.08,-2.31 1.44,-1.67 0.97,-1.89 -3.47,-2.47 -2.81,0.64 -1.59,0.79 -1.09,0.35 -0.7,-0.9 0.26,-4.6 3.06,-1.62 1.12,-0.29 2.31,-0.29 1.85,0.18 2.61,0.26 0.7,-0.52 -0.17,-3.01 -0.61,-3.82 0.06,-1.18 1.36,0.2 1.58,0.51 6.45,1.91 4.43,0.34 0.84,0.35 1.35,1.25 1.38,1.06 1.27,0.58 3.99,-2.79 0.71,-1.01 1.04,-1.36 1.95,-0.46 5.31,-0.6 6.32,-1.84 1.19,0.2 0.75,0.82 0.02,0.59 -0.31,0.54 -0.72,8.91 0.29,1.84 -1.27,3.23 -0.58,1.16 -0.63,1.06 -1.11,1.57 -0.03,-0.03 -0.9,-0.32 -1.61,-0.41 -1.72,-0.11 -2.49,0 -0.93,0.19 -2.91,0.7 -1.1,0.59 -1.26,1 -0.98,1 -0.41,0.72 -0.51,1.19 -0.7,0.45 -3.71,0.38 -1.4,0 -1.33,0.2 -1.15,1.29 -0.29,0.84 -1.76,6.43 0.51,1.14 0.74,0.97 -0.02,0.91 -0.65,0.77 z" 
                fill="rgb(151, 144, 238)" 
                stroke="white" 
                stroke-width=".7px"
                title="Caldas" 
                id="CO-CAL" 
            />
        </svg>