<svg xmlns="http://www.w3.org/2000/svg" viewBox="356.18 259.82915999999994 133.54999999999995 84.2100000000002" width="133.54999999999995" height="84.2100000000002">
            <path 
                d="m 357.62,325.95916 -1.31,-2.2 -0.13,-0.83 0.25,-1.04 1.34,-4.47 0.72,-1.19 1.06,-0.88 1.4,-0.31 1.25,-0.71 1.17,-1.31 0.14,-0.81 -0.44,-0.93 -2.09,-1.9 -0.41,-0.83 1.12,-3.14 5.2,-6.47 2.07,1.52 1.26,1.42 4.02,-0.55 5.38,-3.89 0.75,-0.91 1.11,-1.58 0.75,-1.12 0.77,-1.08 0.63,-0.6 0.85,-0.33 0.77,0.47 3.31,-1.37 1.82,-4.44 -0.05,-0.96 -1.94,-3.31 -4.47,-1.92 0.68,-2.81 0.57,-0.62 1.16,-4.91 -2.07,-2.23 0.24,-5.2 0.1,-1.16 0.3,-1.06 0.63,-1.04 1.22,-1.2 0.33,-0.23 -0.22,1.79 0.08,1 0.37,1.46 3.34,4.4 3.5,1.58 1.67,0.35 0.86,0.03 2.99,-1.8 0.75,-0.66 1.55,-1.09 8.92,-1.87 5.51,-0.3 1.18,0.93 3.11,0.01 0.83,-0.07 6.81,-1.95 1.07,-0.63 1.33,-0.54 2.29,-0.59 1.16,0.46 8.34,1.82 1.59,0.17 2.78,0.16 5.69,0.18 2.51,0 6.04,-0.4 1.1,-0.45 0.78,-0.35 2.18,-1.24 2.12,-0.67 7.33,0.14 3.24,1.43 2.48,2.24 6.85,5.51 2.52,1.54 -0.5,0.35 -1.35,1.63 -0.62,0.94 -1.01,2.14 -0.56,1.74 -1.01,2.72 -4.26,5.6 -1.07,1.2 -2.93,1.87 -1.06,0.34 -2.48,0.6 -0.95,0.17 -2.03,-0.06 -1.11,0.13 -3.85,1.51 -7.47,4.44 -0.87,0.55 -1.15,0.76 -0.43,1.06 0,0.84 -0.08,0.85 -6.52,6 -1.18,0.7 -1.72,0.83 -4.5,7.6 -0.75,0.97 -0.91,0.77 -0.7,0.44 -0.4,0.44 -3.31,2.04 -1.53,0.87 -1.58,0.52 -1.15,0.1 -2.57,0.94 -0.98,0.42 -8.14,3.7 -2.77,2.05 -0.8,0.47 -1.2,0.49 -3.61,1.22 -4.36,2.78 -0.88,0.97 -3.56,2.78 -2.6,1.19 -1.19,-0.1 -0.9,-0.99 -0.86,-0.84 -1.27,-0.42 -3.75,0.44 -3.45,1.3 -1.17,1.54 -0.68,0.62 -1.5,0.91 -3.8,0.55 -4.27,0.47 -5.33,0.47 -0.81,-0.73 -7.1,-7.7 -2.02,-2.77 -0.46,-1.49 -0.43,-1.11 -1.24,-1.73 -1.37,-1.73 z" 
                fill="rgb(151, 144, 238)" 
                stroke="white" 
                stroke-width=".7px"
                title="Casanare" 
                id="CO-CAS" 
            />
        </svg>