<svg xmlns="http://www.w3.org/2000/svg" viewBox="155.98999999999995 383.9391599999999 88.73999999999995 96.2600000000001" width="88.73999999999995" height="96.2600000000001">
            <path 
                d="m 233.26,477.33916 -0.45,1.04 -4.27,1.57 -1.15,0.25 -5.26,-0.04 -1.36,-0.19 -0.92,-0.3 -4.65,-1.93 -1.01,-1.11 -1.08,-2.24 0.51,-3.99 0.26,-0.81 0.41,-0.72 0.45,-0.89 -0.04,-0.83 -0.45,-1.15 -1.58,-3.09 -1.11,-1 -1.78,-0.16 -1.2,0.72 -1.1,1.8 -1.49,1.18 -1.19,0.29 -2.88,0.56 1.11,-1.97 0.89,-7.17 -0.11,-1.09 -0.86,-1.22 -7.79,-4.81 -0.83,0.09 -1.59,0.58 -0.91,0.2 -5.72,0.42 -1.57,0.01 -1.26,-0.16 0.4,-5.5 0.47,-0.72 1.23,-1.27 0.94,-0.47 0.94,-1.4 0.36,-1 -1.08,-0.98 -1.74,-1.54 -3.37,-4.12 -1.81,-3.05 -0.65,-0.92 -0.76,-0.4 -4.38,0.49 -1.92,0.05 -0.85,0 -2.21,-0.3 -1.18,-0.27 -0.85,-0.28 -1.09,-0.59 -1.69,-1.41 -0.51,-0.88 -1.58,-3.45 -1.42,-2.53 -2.39,-3.56 -1.11,-1.41 -0.51,-0.89 -0.42,-0.99 -0.11,-0.75 0.16,-1.65 1.39,1.91 0.26,1.08 1.49,0.74 3.03,-0.39 1.74,-1.68 -0.79,-1.32 -0.68,-4.66 2.76,-4.52 6.1,-7.53 0.76,-0.38 5.36,-8.24 0.38,-1.13 1.4,1.59 1.83,2.64 6.53,4.76 7.38,0.68 0.93,-1.32 2.41,1.15 2.44,2.73 5.5,-2.78 3.7,-2.22 1.85,-0.21 5.01,-2.22 0.94,-1.75 -0.1,-1.63 -0.69,-0.92 0.93,-1.6 1.95,-0.23 3.5,0.65 1.5,0.79 1.04,0.64 1.27,0.72 1.75,0.77 1.47,0.53 1.75,0.23 0.06,0.7 -0.19,1.37 -0.08,1 0.47,0.81 1.15,1.65 1.22,2.14 0.6,1.3 0.56,0.79 2.59,7.63 2.07,4.51 1.1,1.72 0.61,1.07 1.73,4.39 0.45,1.24 0.15,0.87 -3.09,0.8 -0.8,-0.22 -1.98,-1.64 -1.8,-1.16 -1.8,-0.58 -1.33,0.8 -0.84,1.16 -1.23,1.68 -0.77,0.68 -1.04,0.44 -1.21,0.17 -2.02,-0.55 -0.89,-0.08 -0.95,0.52 -4.02,4.54 -0.12,0.82 0.75,2.27 0.4,0.95 0.45,0.92 0.34,1.37 0,1.22 -0.62,0.54 -1.12,0.3 -1.64,-0.1 -1.68,-0.57 -1.23,-0.67 -1.37,-0.62 -1.34,-0.29 -1.79,0.4 -1.2,0.85 -0.04,2.09 0.58,6.4 0.81,0.94 0.93,0.04 1.38,-0.05 1.9,0.83 1.8,2.54 0.23,1.26 -0.15,1.51 -0.18,1.45 0.44,0.97 3.02,2.86 4.32,2.7 0.85,0.3 1.03,-0.05 1.99,-0.46 0.02,1.76 -1.97,4.16 -1.41,2.55 -1.39,1.36 -0.24,1.28 0.75,4.24 2.41,1.57 2.45,0.86 1.08,0.58 z" 
                fill="rgb(151, 144, 238)" 
                stroke="white" 
                stroke-width=".7px"
                title="Cauca" 
                id="CO-CAU" 
            />
        </svg>