<svg xmlns="http://www.w3.org/2000/svg" viewBox="313.66 70.27916199999999 49.74000000000001 133.3499979999999" width="49.74000000000001" height="133.3499979999999">
            <path 
                d="m 327.18,184.94916 1.12,-4.88 0.23,-4.58 -0.45,-4.05 -1.03,-3.54 -0.52,-0.86 -1.18,-2.39 0.25,-3.29 -0.57,-5.21 -1.05,-0.97 -0.68,-1.43 0.26,-2.81 0.39,-0.67 1.41,-2.03 0.86,-1.54 -0.86,-1.37 -1.25,-1.31 -1.21,-1.07 -2.16,-4.68 -0.35,-1.23 -0.83,-1.39 -1.94,-3.03 -0.54,-0.8 -1.22,-1.09 -1.33,-0.54 -0.87,-0.78 2.61,-3.54 1.16,-0.64 4.39,0.24 5.47,-0.32 -2.25,-6.41 -4.91,-6.87 -4.74,-6.28 1,-3.83 0.38,-1.09 3.89,-6.679998 2.24,-1.23 0.84,-0.28 5.51,-2.08 8.12,-3.9 -0.5,-1.44 -1.55,-1.53 -0.31,-1.13 -0.03,-0.84 0.11,-0.87 0.57,-0.95 0.83,-1.98 -1.48,-1.72 -1.58,-1.72 -0.56,-0.83 -0.19,-1.26 0.28,-0.92 0.77,-1.03 0.71,1.12 0.71,0.73 1.19,0.32 1.05,0.1 3.66,0.06 3.28,-0.02 1.92,-0.09 1.24,0.21 1.43,0.88 6.88,7.39 0.61,1.58 -0.46,2.82 -0.5,1.07 -1.3,0.57 -2.27,2.87 2.28,1.55 1.41,-0.08 1.44,-0.26 0.91,-0.25 1.62,-0.35 1.27,-0.11 2.11,0.2 0.48,0.12 -0.26,3.17 -0.99,9.739998 -0.73,1.43 -0.86,3.33 -0.37,4.03 -0.75,5.68 -3.17,6.6 -1.48,1.99 -5.26,6.35 -4.89,7.58 -0.59,2.26 -0.25,0.39 -0.41,0.84 -0.51,1.29 -0.19,0.82 -0.98,6.7 -0.15,3.12 0.36,2.1 0.09,2.44 -0.59,1.51 -0.65,0.83 -1.38,1.34 -0.57,0.99 -0.31,1.05 -0.33,2.99 1.74,6.83 0.47,1.03 1.15,0.35 1.16,-0.96 0.05,-1.14 -0.06,-0.9 -0.15,-1.34 0.54,-0.75 1.44,-0.11 0.93,0.43 0.44,0.76 0.19,0.92 0.03,1.35 -0.11,1.93 -0.34,1.69 -1.17,0.72 -0.92,0.12 -0.64,0.73 0,0.98 0.6,1.47 1.55,2.15 0.95,2 0.43,1.17 0.97,3.93 -0.24,1.41 -2.51,5.23 -1,1.57 -1.08,1.01 -1.77,0.93 -1.16,0.29 -4.49,0.55 -0.2,-0.52 -1.06,-0.96 -1.75,-0.14 -2.53,-0.17 -0.54,-1.09 0.38,-1.49 0.96,-1.44 0.81,-1.31 0.31,-1.69 -1.41,-4.01 -0.81,-1.79 -1.61,-3.08 z" 
                fill="rgb(151, 144, 238)" 
                stroke="white" 
                stroke-width=".7px"
                title="Cesar" 
                id="CO-CES" 
            />
        </svg>