<svg xmlns="http://www.w3.org/2000/svg" viewBox="158.05999999999983 163.4391599999999 78.0200000000001 192.6300000000001" width="78.0200000000001" height="192.6300000000001">
            <path 
                d="m 179.67,163.43916 0.81,0.53 1.92,3.47 0.64,2.56 1.8,2.15 0.86,0.56 0.85,0.31 1.47,0.39 1.21,0.99 0.64,0.99 1.53,2.49 4.66,3.63 0.54,2 0.29,1.28 2.51,1.55 2.03,-0.48 -1.24,1.92 -1.39,0.42 -1.1,0.33 -2.36,1.67 -0.53,0.75 -0.44,2.18 -0.23,1.46 -0.61,1.53 -0.88,0.96 -0.96,0.59 -1.49,0.45 0.56,3.8 3.07,0.68 1.28,1.6 2.48,2.81 0.81,0.87 0.88,0.92 7.58,7.72 2.49,2 0.9,0.46 1.55,0.42 2.07,2.81 0.6,0.92 0.56,1.35 0.41,1.67 -1.17,7.02 -0.76,0.42 -0.83,-0.23 -1.41,-0.71 -2.94,-0.6 -5.86,0.22 -0.67,1.01 0.75,1.71 0.52,1.42 -0.09,1.51 -1.93,1.61 -1.48,-0.53 -1.56,-0.11 -2.27,0.76 0.39,5.42 2.1,1.34 0.88,0.82 3.66,7.77 0.29,1.54 0.01,3.38 -0.02,1.09 0.29,0.96 3.39,4.76 4.33,0.19 0.9,-0.11 1.19,-0.37 9.57,-1.69 0.96,0.14 1.88,1.01 0.6,0.7 0.21,2.85 0.05,1.31 0.15,1.25 0.61,1.66 0.74,0.66 0.85,0.29 2.37,0.46 -0.22,3.16 -0.63,1.2 -0.17,0.97 0.17,0.99 0.43,1.08 0.62,1.14 0.63,1.54 0.24,1.18 -0.11,1.26 -0.74,1.64 0.35,1.02 1.94,2.47 0.87,0.98 1.56,1.45 -0.79,0.25 -0.98,0.37 -1.36,0.51 -6.78,3.22 -0.77,0.5 -3.46,3.6 0.26,1.25 3.91,8.54 0.46,0.74 0.73,0.76 0.81,0.52 0.92,0.48 0.68,0.25 -0.09,0.65 -0.26,1.02 -0.54,1.19 -0.78,0.56 -0.96,0.42 -0.85,0.5 -4.62,3.79 -0.58,0.67 -0.46,0.98 -3.01,6.85 -3.09,5.73 -0.52,0.77 -0.22,0.96 -0.08,0.9 0.17,1.82 0.25,1.15 0.25,0.81 0.34,0.79 1,1.19 1.85,1.83 -0.56,1.47 -4.61,3.69 -6.39,2.03 -1.11,0.15 -1.14,-0.07 -0.9,-0.36 -2.94,-1.82 -5.7,-1.9 -4.12,-3.52 -1.33,-0.55 -0.95,0.05 -1.58,0.39 -0.75,-0.6 -0.92,-1.73 0.24,-0.64 -1.96,-0.42 -1.96,0.07 -1.86,-2.99 1.47,-4.14 0.17,-0.27 0.34,-0.89 0.87,-3.1 -0.15,-4.17 -0.21,-2.93 -0.74,-3.98 -0.33,-1.07 -0.23,-1.03 -0.34,-3 -0.43,-5.84 0.04,-2.96 0.72,-1.97 0.24,-1.55 -0.5,-2.38 -1.52,-6.49 -3.46,-1.97 -2.12,-0.6 1.14,-2.69 3.46,-1.64 1.57,0.26 0.96,0.56 1.33,-0.5 3.15,-3.81 0.4,-2.02 -0.17,-1.24 -3.87,-8.2 -2.85,-3.83 -1.91,-2.06 -0.88,-1.14 -0.54,-1.11 0.54,-4.02 2.82,1.78 0.91,-1.72 1.21,-4.52 0.64,-7.25 -2.79,-5.08 -1.47,-0.88 -0.94,-0.1 -8.24,-6.69 0.56,-4.15 -0.14,-0.97 -1.01,-2.27 -4.64,-3.96 -3.97,-3.18 3.39,-10.31 1.31,0.13 1.12,-0.37 0.68,-0.89 0.46,-1.26 -0.35,-1.34 -1.04,-1.79 -0.19,-0.87 -0.01,-1.4 0.02,-1.07 0.61,-1.11 3.3,1.68 1.64,3.14 0.57,1.69 0.42,0.96 0.94,0.54 10.16,-7.25 0.04,-1.01 -1.65,-2.16 2.42,-4.48 0.67,-0.74 3.28,-1.34 0.71,-2.57 -0.7,-3.66 -1.17,-2.37 -1.22,-2.21 -0.93,-0.71 -2.18,-2.15 -0.56,-0.71 -0.23,-2.16 -0.02,-1.12 -0.26,-1.43 -1.27,-2.18 -0.96,-0.88 -1.63,0.03 -0.3,-2.05 0.97,-1.48 0.56,-0.4 2.75,-3.29 0.26,-1.18 z m -1.35,179.4 0.95,0.54 0.83,1.89 1.5,0.46 -0.55,0.5 -6.89,1.22 -1.99,0.55 0.41,-1.49 4.34,-4.07 0.42,-0.11 0.52,0.19 0.46,0.32 z" 
                fill="rgb(151, 144, 238)" 
                stroke="white" 
                stroke-width=".7px"
                title="Chocó" 
                id="CO-CHO" 
            />
        </svg>