<svg xmlns="http://www.w3.org/2000/svg" viewBox="281.39 281.5591599999999 76.23000000000019 85.60000000000025" width="76.23000000000019" height="85.60000000000025">
            <path 
                d="m 287.56,303.06916 0.03,0.03 1.11,-1.57 0.63,-1.06 0.58,-1.16 1.27,-3.23 -0.29,-1.84 0.72,-8.91 0.31,-0.54 0.74,-0.61 5.02,-1.06 1.83,0.55 1.57,0.26 2.33,-1.11 1.66,-1.26 1.08,1.24 0.68,3.94 -0.78,1.04 -1.16,1.33 0.42,1.53 3.49,4.45 2.76,0.96 5.35,3.99 0.97,0.07 1.42,-0.56 0.77,-0.38 0.85,-0.81 1.8,-1.9 0.07,-1.2 0.56,-1.49 1.99,-1.4 1.71,-0.38 3.21,3.17 2.91,0.75 2.85,3.4 1.79,5.69 0.78,1.41 0.8,1.62 0.71,4.07 -1.5,1.6 -0.65,1.04 -0.71,2.72 0.31,1.18 1.38,1.32 2.41,1.6 1.23,0.77 0.99,0.42 1.25,0.48 0.85,0.29 0.97,0.47 2.56,1.8 1.32,1.68 0.57,0.78 0.93,0.51 2.08,0.35 1.79,-0.23 1.74,-2.92 0,0.82 -0.31,0.9 -0.72,3.86 -2.18,11.92 -3.28,1.71 -6.72,-1.69 -2.1,0.53 -1.03,0.68 -0.89,0.19 -2.06,-0.45 -0.92,-0.77 -0.82,-2.28 -0.2,-0.94 -0.23,-1.44 -0.52,-1.44 -0.8,-0.64 -1.13,-0.58 -5.22,-1.33 -1.3,0.99 -1.47,2.25 -0.6,1.5 0.73,0.97 1.21,0.3 1.77,3.71 0.17,0.92 0,2.06 -1.1,0.56 -0.93,-0.01 -1.73,0.06 -6.67,3.4 -0.78,0.61 -0.86,0.87 -0.89,0.7 -1.77,1.12 -0.98,0.35 -1.06,0.08 -0.07,-2.59 1.19,-4.83 0.87,-4.32 0.28,-4.09 0.23,-1.04 0.51,-1.2 0.37,-0.76 0.77,-1.22 1,-0.97 0.77,-0.93 0.76,-1.23 0.12,-6.87 -0.33,-1.97 -2.12,-1.12 -1.02,0.17 -4.33,7.49 -1.39,9.59 0.21,2.86 0.42,2.63 -0.2,1.5 -2.2,5.36 -1.05,0.39 -2.07,0.07 -2.32,3.26 0.11,2.81 -0.83,3.17 -0.36,0.76 -1.25,2.16 -1.3,1.8 -1.01,0.83 0.11,-0.22 0.45,-1.23 -0.14,-0.95 -1.63,-0.9 -0.6,-0.76 -0.05,-0.26 1.03,-2.57 0.11,-1.25 0.15,-4.73 1.37,-2.79 -0.04,-1.24 -0.42,-0.96 -1.36,-2.05 -0.98,-1.13 -1.15,-0.34 -1.46,0.49 -0.98,1.57 -1.17,0.53 -1.01,-0.11 -8.01,-3.09 -0.82,-0.65 0.67,-1.82 2.89,-5.47 0.72,-2.2 -0.51,-1.15 -0.27,-1.5 -0.17,-1.32 -0.42,-4.47 2.2,-4.78 1.81,-11.55 -0.58,-6.74 z" 
                fill="rgb(151, 144, 238)" 
                stroke="white" 
                stroke-width=".7px"
                title="Cundinamarca" 
                id="CO-CUN" 
            />
        </svg>