<svg xmlns="http://www.w3.org/2000/svg" viewBox="214.67999999999995 131.7791599999999 72.44000000000005 86.03000000000009" width="72.44000000000005" height="86.03000000000009">
            <path 
                d="m 284.32,183.68916 -1.26,1.35 -1.29,1.85 -0.48,0.73 -0.64,0.76 -0.82,0.62 -0.85,0.41 -1.02,0.29 -1.13,0.05 -2.34,0 -2.17,-0.17 -2.45,-0.1 -1.14,0.3 -4.57,4.35 -0.48,1.17 -0.29,0.82 -0.93,1.28 -1.1,0.52 -1.36,0.45 -1.01,0.35 -0.83,2.31 -0.43,1.96 -0.69,0.62 -0.87,-0.28 -1.29,-1.14 -0.9,-0.48 -1.28,0.23 -1.05,1.02 -0.51,0.73 -1.2,2.04 -0.53,3.06 -6.91,8.57 -1.28,0.32 -2.99,-0.15 -2.01,-0.03 -8.05,0.05 -2.82,0.11 -0.91,0.1 -1.23,0.05 -1.41,-0.23 -3.88,-5.04 -1.56,-2.39 -0.61,-1.12 -0.34,-1.15 -0.34,-1.49 -0.33,-2.16 -0.06,-0.93 0.02,-1.46 0.38,-4.27 0.78,-1.33 0.98,-0.96 1.57,-1.56 0.47,-1.61 0.09,-2.08 0.14,-1.13 0.36,-2.16 0.31,-1.42 0.47,-1.42 0.99,-2.06 1.03,-1.19 1.96,-2 0.81,-0.57 1.19,-1.18 0.75,-0.87 0.63,-1.08 0.34,-1.08 0.2,-1.37 0.07,-1.35 0.03,-1.77 -0.19,-1.05 -0.61,-0.73 -1.47,-0.74 -1.07,-0.42 -1.2,-0.62 -0.93,-0.58 -0.79,-0.74 -0.59,-0.76 -0.58,-1.07 -0.56,-2.02 -0.22,-1.28 -0.12,-1.09 -0.02,-1.5 -0.08,-0.84 -0.29,-0.81 -0.42,-0.73 -0.7,-0.55 0.32,-0.01 0.82,-0.16 1.05,-0.23 2.31,-0.93 2.2,-2.35 3.44,-8.15 0.33,-1.82 2.56,-3.31 0.86,-0.84 0.75,-0.41 6.3,-3.18 4.23,-0.68 3.74,0.72 0.68,1.41 0.68,0.9 0.75,0.82 0.77,0.65 5.31,3.48 3.83,3.99 0.78,0.66 3.13,0.77 0.85,0.35 0.81,0.45 2.43,2.09 1.56,4.25 0.05,1.04 -0.54,2.53 -1.25,-0.5 -1.34,0.13 -1.77,0.25 -3.17,1.2 -0.06,1.16 2.4,6.25 1.18,7.04 1.2,0.35 1.64,-0.55 0.89,-0.13 1.01,0.59 0.16,2.23 0.24,1.71 3.1,-0.83 2.35,-1.62 0.81,-0.8 1.12,-1.22 5.83,2.44 2.98,2.66 0.18,1.58 0.28,1.55 0.93,1.25 -0.36,1.47 -0.65,0.74 z" 
                fill="rgb(151, 144, 238)" 
                stroke="white" 
                stroke-width=".7px"
                title="Córdoba" 
                id="CO-COR" 
            />
        </svg>