<svg xmlns="http://www.w3.org/2000/svg" viewBox="297.99 322.30915999999996 21.039999999999907 46.13000000000005" width="21.039999999999907" height="46.13000000000005">
            <path 
                d="m 297.99,367.15916 1.01,-0.83 1.3,-1.8 1.25,-2.16 0.36,-0.76 0.83,-3.17 -0.11,-2.81 2.32,-3.26 2.07,-0.07 1.05,-0.39 2.2,-5.36 0.2,-1.5 -0.42,-2.63 -0.21,-2.86 1.39,-9.59 4.33,-7.49 1.02,-0.17 2.12,1.12 0.33,1.97 -0.12,6.87 -0.76,1.23 -0.77,0.93 -1,0.97 -0.77,1.22 -0.37,0.76 -0.51,1.2 -0.23,1.04 -0.28,4.09 -0.87,4.32 -1.19,4.83 0.07,2.59 -1.5,-0.07 -1.23,0.26 -1.04,0.78 -5.88,6.41 -0.75,1.3 -0.59,1.49 -0.86,1.9 -0.68,0.75 -0.83,0.17 -0.77,-0.42 z" 
                fill="rgb(151, 144, 238)" 
                stroke="white" 
                stroke-width=".7px"
                title="Distrito Capital de Bogotá" 
                id="CO-DC" 
            />
        </svg>