<svg xmlns="http://www.w3.org/2000/svg" viewBox="447.99999999999994 354.13916 164.25000000000006 117.80999999999983" width="164.25000000000006" height="117.80999999999983">
            <path 
                d="m 577.71,354.13916 0.65,3.17 0.5,1.99 1.87,5.07 0.79,1.59 0.67,0.75 0.94,0.34 1.45,-0.17 1.24,-0.06 0.85,0.56 2.23,3.12 0.36,1.65 1.35,3.92 0.59,1.09 0.75,0.53 0.88,0.27 1.45,0.56 0.56,2.33 -2.21,3.37 -0.96,0.37 -2.71,2.09 -2.66,2.59 -6.45,6.06 -7.27,6.81 0.39,2.03 2.38,-0.22 5.41,0.95 1.18,0.66 0.67,1.19 2.24,3.45 2.05,1.09 6.61,7.35 1.8,1.44 0.97,0.41 1.58,0.65 1.12,0.84 0.75,2.3 -0.43,0.83 -0.94,0.87 -0.39,0.81 0.22,1.29 0.53,1.48 0.97,2.22 0.6,0.85 1.95,4.34 5.01,13.55 2.69,9.67 1.13,7.19 0.31,1.34 0.68,1.04 0.19,0.21 -0.61,-0.01 -6.08,1.58 -1.75,0.41 -0.37,-0.87 -0.15,-2.97 0,-0.82 0.31,-4.05 0.27,-1.2 0.42,-0.97 0.28,-3.35 -0.59,-4.11 -1.75,-4.69 -1.95,-3.43 -1.88,-2.34 -0.89,-0.66 -1.51,-2.25 -1.82,-3.52 -0.45,-1.24 -0.23,-1.04 -0.59,-1.01 -3.41,-1.22 -3.44,1.47 -2.47,1.63 -0.83,0.58 -3.31,3.26 -0.44,1.5 -0.42,0.71 -3.46,4.12 -1.67,1.42 -2.51,1.19 -1.74,0.41 -1.11,0.11 -1.07,-0.14 -0.95,-0.32 -0.8,-0.6 -1.04,-1.35 -1.24,-2.13 -0.4,-0.77 -0.55,-2.25 -0.67,-1.01 -0.79,-0.49 -2.08,-0.57 -0.91,0 -1.24,1.8 -0.43,0.98 -0.83,2.33 1,3.17 0.88,0.15 1.19,0.22 1.22,1.73 -27.85,-0.08 -11.3,-0.06 -5.65,-0.02 -5.46,0 -1.14,-0.67 -2.43,-0.65 -3.9,-0.97 -6.05,1.59 -3.48,1.54 -2.51,-0.12 -1.37,-1.12 -3.78,-0.92 -1.14,-0.17 -1.28,-0.08 -1.19,-0.41 -1.62,-1.27 -2.07,-1.78 -0.97,-1.37 -0.28,-3.72 0.99,-0.49 0.63,-0.93 -0.51,-2.37 -0.11,-0.23 0.66,-1.34 2.34,-1.72 1.03,-0.58 2.24,-2.67 -1.33,-2.25 -1.85,-0.87 -1.76,1.03 -7.7,1.45 -7.39,0.07 -6.19,-2.91 -1.14,-2.33 -1.21,-2.72 -3.12,-3.87 -2.62,-0.02 -0.88,-1.17 1.92,-1.65 2.16,-1.34 3.04,-1.8 1.3,-0.82 5.37,-3.61 0.83,-1.19 1.97,-0.35 1.93,-0.51 1.04,-0.46 3.08,-4.22 -0.1,-1.27 -0.31,-1.74 0.29,-3.26 2.06,-3.47 1.69,-0.44 1.64,-0.01 1.8,-0.32 -0.27,-3.03 -0.66,-0.96 -0.6,-1.35 1.35,-1.78 3.39,-1.21 1.15,0.68 2.04,0 4.87,-4.28 4.53,-1.77 1.92,-0.32 2.56,-1.25 1.53,-1.5 0.1,-1.01 -0.27,-1.42 0.83,-0.89 3.77,-0.21 2.05,1.06 2.74,-0.37 1.15,-0.98 3.43,-0.49 1.81,0.76 1.09,0.89 0.25,1.38 6.26,-1.23 4.88,-1.04 2.18,0.93 1.95,-1.69 2.21,-2.15 2.57,-0.74 2,0.17 2.94,0.2 2.03,-0.65 0.71,-1.34 0.51,-0.66 5.73,-5.05 0.9,-0.45 7.15,-0.83 5.42,0 3.36,1.65 0.59,0.79 0.09,1.07 0.74,0.63 2,-1.48 1.37,-1.49 0.96,-1.19 0.77,-0.55 3,-1.12 z" 
                fill="rgb(151, 144, 238)" 
                stroke="white" 
                stroke-width=".7px"
                title="Guainía" 
                id="CO-GUA" 
            />
        </svg>