<svg xmlns="http://www.w3.org/2000/svg" viewBox="332.64 401.6991600000001 150.55000000000007 90.71999999999991" width="150.55000000000007" height="90.71999999999991">
            <path 
                d="m 476.92,435.05916 -1.04,-0.04 -7.48,2.87 -12.49,3.43 -2.17,0.21 -2.31,-0.04 -4.67,-0.38 -5.39,4.19 -0.89,0.43 -1.87,-0.07 -1.25,0.26 -4.03,2.49 -2.78,3.73 -5.08,5.72 -2.85,1.97 -0.69,1.18 -2.49,6.2 0.07,1.07 0.17,1.14 -0.02,2.2 -3.08,4.22 -2.62,2.55 -1,0.12 -1.36,0.32 -1.31,1.01 -0.55,0.83 -0.36,1.25 -0.25,1.12 -3.59,3.38 -5.29,5.05 -0.73,0.81 -0.07,0.12 -0.72,0.02 -1.94,-1.51 -3.87,-1.35 -0.92,0.41 -0.88,0.27 -1.83,-3.54 -1.05,-2.77 -4.99,-6.62 -2.52,-2.45 -1.57,0.3 -0.84,-0.24 -3.44,-2.26 -0.87,-1.41 -2.7,-0.68 -3.57,0.68 -1.88,0.9 -1.5,2.22 0.16,0.97 0.47,0.9 -0.51,0.84 -6.35,4.77 -0.98,0.22 -1.49,-0.11 -3.16,-1.33 -0.77,-1.31 -3.67,-3.11 -1.25,-0.85 -1.08,-0.69 -1.43,-1.01 -0.82,-0.79 -0.79,-0.84 -0.67,-1.21 -0.06,-1.34 -0.26,-1.21 -1.48,-3.15 -1.48,-1.68 -1.75,-1.48 -3.2,-3.95 -0.78,-1.26 -0.37,-2.15 0.06,-1.51 0.06,-0.36 -0.01,-1.21 0.12,-9.84 0.02,-1.32 0.46,-14.08 1.1,-3.68 8.97,1.14 3.08,-0.36 6.05,-1.34 7.68,-2.61 1.64,-2 1.27,-2.82 0.67,-0.61 1.48,-0.66 1.21,-0.31 1.72,0.99 7.84,-1.91 1.23,-1.83 1.91,-1.75 7.01,-3.58 11.04,-1.01 3.54,0.71 8.19,-1.25 2.63,-0.75 5.58,0.31 7.51,-0.11 4.97,-1.12 4.58,-0.03 2,0 2,0.2 0.54,0.38 0.3,2.14 3.72,-0.67 4.55,1.35 2.35,1.27 4.2,0.21 1.13,-1.01 0.42,-1.77 0.63,-0.99 2.67,0.99 2.1,0.94 1.07,0.33 0.69,-0.32 -0.83,1.19 -5.37,3.61 -1.3,0.82 -3.04,1.8 -2.16,1.34 -1.92,1.65 0.88,1.17 2.62,0.02 3.12,3.87 1.21,2.72 1.14,2.33 6.19,2.91 7.39,-0.07 7.7,-1.45 1.76,-1.03 1.85,0.87 1.33,2.25 -2.24,2.67 -1.03,0.58 -2.34,1.72 z" 
                fill="rgb(151, 144, 238)" 
                stroke="white" 
                stroke-width=".7px"
                title="Guaviar" 
                id="CO-GUV" 
            />
        </svg>