<svg xmlns="http://www.w3.org/2000/svg" viewBox="210.74999999999997 362.8391599999998 87.80000000000004 94.4100000000002" width="87.80000000000004" height="94.4100000000002">
            <path 
                d="m 229.7,456.73916 -1.99,0.46 -1.03,0.05 -0.85,-0.3 -4.32,-2.7 -3.02,-2.86 -0.44,-0.97 0.18,-1.45 0.15,-1.51 -0.23,-1.26 -1.8,-2.54 -1.9,-0.83 -1.38,0.05 -0.93,-0.04 -0.81,-0.94 -0.58,-6.4 0.04,-2.09 1.2,-0.85 1.79,-0.4 1.34,0.29 1.37,0.62 1.23,0.67 1.68,0.57 1.64,0.1 1.12,-0.3 0.62,-0.54 0,-1.22 -0.34,-1.37 -0.45,-0.92 -0.4,-0.95 -0.75,-2.27 0.12,-0.82 4.02,-4.54 0.95,-0.52 0.89,0.08 2.02,0.55 1.21,-0.17 1.04,-0.44 0.77,-0.68 1.23,-1.68 0.84,-1.16 1.33,-0.8 1.8,0.58 1.8,1.16 1.98,1.64 0.8,0.22 3.09,-0.8 -0.15,-0.87 -0.45,-1.24 -1.73,-4.39 -0.61,-1.07 -1.1,-1.72 -2.07,-4.51 -2.59,-7.63 -0.56,-0.79 0.24,0.06 0.82,0.02 1.04,-0.07 2.48,-0.61 1.61,-0.64 2.62,-1.88 0.98,-1 2.23,-2.17 1.1,-0.44 1.61,-0.05 1.36,-0.06 1.23,-0.16 0.81,-0.33 0.22,-0.9 -0.14,-1.36 2.2,-3.76 0.62,-0.79 6.16,-2.58 1.13,-0.36 11.21,-1.69 1.19,0.35 0.45,0.89 -0.23,1.67 -0.57,0.8 -0.83,0.67 -0.51,1.19 0.89,1.01 1.81,0.46 1.24,-0.05 1.15,-0.27 2.75,-2 3.53,-4.24 -0.07,-1.23 -0.36,-0.99 0.29,-0.85 2.24,-3.72 1.6,-2.32 2.99,-3.8 1.02,-1.25 1.25,-1.04 0.98,-0.74 0.32,-0.17 0.05,0.26 0.6,0.76 1.63,0.9 0.14,0.95 -0.45,1.23 -0.11,0.22 -1.62,4.08 -0.46,0.93 -0.62,0.81 -1.03,1.21 -0.49,0.93 -0.7,2.43 -0.68,2.72 0.23,0.87 0.14,0.98 0.11,2.33 -2.28,3.96 -0.73,1 -0.91,1.07 -1.11,0.84 -0.71,0.45 -1.06,0.59 -1.7,1.15 -2.25,1.65 -1.06,0.92 -1.07,2.76 -0.25,0.31 -3.11,3.89 -0.53,1.17 0.1,1.54 0.79,1.2 0.5,0.89 0.24,1.31 -1.86,2.32 -4.37,3.57 -1.21,0.31 -0.82,-0.33 -1.48,-0.39 -1.33,1.24 -0.53,0.81 -0.35,1.38 -0.42,2.29 -1.71,3.19 -1.82,1.56 -6.57,7.74 -0.77,2.36 -3.46,4.63 -4.3,5.05 -7.85,10.15 -1.33,0.95 -1.35,0 -1.65,0.12 -4.31,0.34 z" 
                fill="rgb(151, 144, 238)" 
                stroke="white" 
                stroke-width=".7px"
                title="Huila" 
                id="CO-HUI" 
            />
        </svg>