<svg xmlns="http://www.w3.org/2000/svg" viewBox="279.31999999999994 51.939162 58.17999999999995 98.99999799999998" width="58.17999999999995" height="98.99999799999998">
            <path 
                d="m 323.56,150.93916 -2.1,-0.03 -3.31,-0.67 -5.8,-1.9 -2.25,-2.23 -1.06,-1.72 -3.11,-2.78 -1.76,-1.1 -3.81,-1.7 -1.38,0.01 -4.13,-1.69 -2.81,-3.04 -2.61,-1.77 -0.91,0.13 -0.86,0.1 -2.45,-1.07 0.06,-1.97 0.46,-2.84 -1.01,-4.38 -0.4,-0.74 -1.94,-6.36 -0.11,-0.9 -0.12,-2.57 0.39,-1.09 1.23,-0.55 1.31,-0.79 0.29,-1.61 -2.2,-3.08 -1.52,-0.43 -1.92,-0.9 -0.41,-1.3 1.37,-4.519998 1.73,-4.21 2.24,-5.11 0.74,-0.95 0.89,-0.84 1.9,-1.26 0.38,-1.8 0.22,-4.29 0.07,-2.72 -0.11,-5.72 -2.21,-4.07 -0.53,-0.89 -0.97,-0.92 -1.32,-0.84 -0.81,-2.01 0.03,-0.24 1.08,0.83 13.59,4.68 1.19,0.26 1.04,0.14 1.12,0.03 1.81,0 1.57,-0.15 1.06,-0.21 0.98,-0.3 -0.52,0.65 -0.93,0.35 -1.13,0.16 -2.65,0.22 -1.91,-0.23 -5.21,3.91 -0.65,2.25 0.59,1.68 3.05,-1.23 2.22,1.95 0.31,0.98 2.59,0.02 0.81,-0.56 0.7,-1.16 1.08,-3.35 1.72,-4.33 1.11,-2.06 1.39,-4.24 -0.37,-3.26 0.07,-1.6 0.89,-1.43 1.09,-1.69 1.4,-0.91 4.86,-1.04 1,0.05 1.78,0.68 0.76,0.83 3.47,1.43 3.14,0.8 4.88,0.02 1.69,-0.25 1.51,-0.08 1.55,-0.03 0.82,0.1 0.01,0.92 -0.28,0.87 -0.73,1.27 -0.66,1.07 -0.76,0.69 -1.23,1.8 -0.78,5.6 0.67,2.57 -0.77,1.03 -0.28,0.92 0.19,1.26 0.56,0.83 1.58,1.72 1.48,1.72 -0.83,1.98 -0.57,0.95 -0.11,0.87 0.03,0.84 0.31,1.13 1.55,1.53 0.5,1.44 -8.12,3.9 -5.51,2.08 -0.84,0.28 -2.24,1.23 -3.89,6.679998 -0.38,1.09 -1,3.83 4.74,6.28 4.91,6.87 2.25,6.41 -5.47,0.32 -4.39,-0.24 -1.16,0.64 -2.61,3.54 0.87,0.78 1.33,0.54 1.22,1.09 0.54,0.8 1.94,3.03 0.83,1.39 0.35,1.23 2.16,4.68 1.21,1.07 1.25,1.31 0.86,1.37 -0.86,1.54 -1.41,2.03 z" 
                fill="rgb(151, 144, 238)" 
                stroke="white" 
                stroke-width=".7px"
                title="Magdalena" 
                id="CO-MAG" 
            />
        </svg>