<svg xmlns="http://www.w3.org/2000/svg" viewBox="279.98999999999967 319.10916 158.8000000000003 135.76999999999992" width="158.8000000000003" height="135.76999999999992">
            <path 
                d="m 438.66,319.10916 -0.08,0.37 0.02,21.15 0.02,9.15 0.04,10.54 0.03,25.31 0.03,10.52 0.02,5.6 0.05,0.53 -0.54,-0.38 -2,-0.2 -2,0 -4.58,0.03 -4.97,1.12 -7.51,0.11 -5.58,-0.31 -2.63,0.75 -8.19,1.25 -3.54,-0.71 -11.04,1.01 -7.01,3.58 -1.91,1.75 -1.23,1.83 -7.84,1.91 -1.72,-0.99 -1.21,0.31 -1.48,0.66 -0.67,0.61 -1.27,2.82 -1.64,2 -7.68,2.61 -6.05,1.34 -3.08,0.36 -8.97,-1.14 -1.1,3.68 -0.46,14.08 -0.02,1.32 -0.12,9.84 0.01,1.21 -1.36,-0.48 -1.1,-0.08 -1.33,0.19 -3.09,0.9 -1.44,0.46 -1.91,0.73 -1.1,0.19 -2.04,0.24 -1.31,-0.24 -5.07,-3.66 -1.01,-1.61 -2.63,-2.59 -2.52,-0.62 -1.3,-0.21 -1.06,-0.09 -0.99,-0.12 -1.28,-0.25 -1.76,-0.37 -1.91,-0.78 -1.24,-0.84 -1.25,-1.46 -1.35,-1.68 -1.42,-2.54 -0.27,-1.17 -0.06,-0.84 0.02,-1.69 0.04,-1.34 -0.4,-2.8 -0.31,-1.07 -0.7,-1.59 -0.85,-2.44 -0.2,-1.04 -0.62,-8.03 0.34,-1.14 1.25,-1.78 0.58,-0.58 0.95,-1.12 0.52,-1.1 0.3,-1.08 0.09,-0.97 -0.11,-0.87 -0.49,-1.15 -0.5,-0.67 -0.87,-0.84 -0.85,-0.62 -4.06,-2.83 -0.86,-0.46 -0.87,-0.36 -1.66,-0.48 -3.71,-0.92 1.07,-2.76 1.06,-0.92 2.25,-1.65 1.7,-1.15 1.06,-0.59 0.71,-0.45 1.11,-0.84 0.91,-1.07 0.73,-1 2.28,-3.96 -0.11,-2.33 -0.14,-0.98 -0.23,-0.87 0.68,-2.72 0.7,-2.43 0.49,-0.93 1.03,-1.21 0.62,-0.81 0.46,-0.93 1.62,-4.08 0.11,0.86 0.77,0.42 0.83,-0.17 0.68,-0.75 0.86,-1.9 0.59,-1.49 0.75,-1.3 5.88,-6.41 1.04,-0.78 1.23,-0.26 1.5,0.07 1.06,-0.08 0.98,-0.35 1.77,-1.12 0.89,-0.7 0.86,-0.87 0.78,-0.61 6.67,-3.4 1.73,-0.06 0.93,0.01 1.1,-0.56 0,-2.06 -0.17,-0.92 -1.77,-3.71 -1.21,-0.3 -0.73,-0.97 0.6,-1.5 1.47,-2.25 1.3,-0.99 5.22,1.33 1.13,0.58 0.8,0.64 0.52,1.44 0.23,1.44 0.2,0.94 0.82,2.28 0.92,0.77 2.06,0.45 0.89,-0.19 1.03,-0.68 2.1,-0.53 6.72,1.69 3.28,-1.71 2.18,-11.92 0.72,-3.86 0.31,-0.9 1.37,1.73 1.24,1.73 0.43,1.11 0.46,1.49 2.02,2.77 7.1,7.7 0.81,0.73 5.33,-0.47 4.27,-0.47 3.8,-0.55 1.5,-0.91 0.68,-0.62 1.17,-1.54 3.45,-1.3 3.75,-0.44 1.27,0.42 0.86,0.84 0.9,0.99 1.19,0.1 2.6,-1.19 3.56,-2.78 0.88,-0.97 4.36,-2.78 3.61,-1.22 1.2,-0.49 0.8,-0.47 2.77,-2.05 8.14,-3.7 0.98,-0.42 2.57,-0.94 1.15,-0.1 1.58,-0.52 1.53,-0.87 3.31,-2.04 z" 
                fill="rgb(151, 144, 238)" 
                stroke="white" 
                stroke-width=".7px"
                title="Meta" 
                id="CO-MET" 
            />
        </svg>