<svg xmlns="http://www.w3.org/2000/svg" viewBox="110.28000000000006 411.48915999999997 93.64999999999989 94.75999999999993" width="93.64999999999989" height="94.75999999999993">
            <path 
                d="m 201.92,466.29916 -0.8,0.12 -1.22,0.27 -0.9,0.36 -3.75,2.2 -0.9,0.53 -1.29,0.81 -1.17,0.84 -0.46,0.71 0.23,7.78 0.22,1.07 0.44,1.07 1.27,3.91 1.35,5.89 -0.07,0.97 -1.45,0.8 -1.23,0.4 -1.16,0.25 -0.64,3.1 0.5,1.49 0.39,1.52 0.26,2.3 0.07,1.35 -0.09,1.2 -4.62,1.01 -1.12,-0.05 -3.82,-1.1 -2.79,-0.89 -1.76,-1.15 -1.2,-5.26 0.2,-1.8 0.11,-1.5 -0.84,-1.38 -1.22,-0.4 -0.83,0.28 -0.92,0.11 -1.21,-0.75 -0.61,-0.5 -1.84,-1.01 -0.92,-0.74 -0.51,-0.89 -0.1,-1.26 0.22,-1.15 -0.91,-1.14 -0.84,-0.33 -3.35,0.71 -1.41,0.8 -1.64,-0.22 -1.21,-0.49 -1.91,-2.02 -2.87,-1.19 -1.35,0.16 -1.56,-0.16 -1.24,-0.47 -3.1,-2.24 -2.26,-1.94 -0.76,-0.48 -1.45,-0.37 -1.09,-0.2 -0.91,-0.36 -0.89,-0.65 -3.62,-3.51 -0.59,-0.83 -0.44,-0.73 -3.03,-0.69 -0.83,0.44 -1.29,-1.82 -1.66,-0.78 -1.02,-0.4 -0.86,-0.56 -5.45,-6.23 -2.02,-4.51 -2.87,-1.34 -0.84,-0.16 -1.52,-0.04 -1.87,-0.55 -0.8,-1.35 3.22,-4.94 3.77,-3 1.47,-0.45 3.45,0.64 1.19,0.62 4.59,1.68 1.39,-0.1 1.56,-4.71 0.15,-1.43 -2.07,-4.13 -0.96,-0.49 -1.43,-1.39 -1.09,-3.72 -0.26,-1.59 1.83,-3.93 2.47,-4.59 0.71,-1.14 0.35,1.58 0.65,-1.3 0.75,-0.48 2.37,-0.37 0.4,-2.5 1.14,-0.17 1.6,1.22 0.85,0.84 0.91,0.83 3.36,-3.33 4.97,1.16 0.9,0.14 5.59,-1.44 1.51,-1.45 0.38,-2.17 0.1,0.75 0.42,0.98 0.51,0.89 1.1,1.41 2.39,3.56 1.42,2.53 1.58,3.45 0.52,0.88 1.69,1.42 1.09,0.59 0.85,0.27 1.18,0.27 2.21,0.3 0.85,0 1.92,-0.05 4.38,-0.5 0.76,0.4 0.66,0.93 1.81,3.05 3.37,4.11 1.75,1.55 1.08,0.98 -0.36,1 -0.94,1.41 -0.93,0.47 -1.24,1.26 -0.47,0.72 -0.4,5.5 1.26,0.16 1.57,-0.01 5.71,-0.42 0.92,-0.19 1.59,-0.58 0.83,-0.1 7.79,4.81 0.86,1.22 0.1,1.1 -0.89,7.16 -1.12,1.97 z m -53.53,-48.7 -0.35,-0.07 -3.33,-3.08 -0.03,-0.56 0.11,-0.66 0.33,-0.6 0.57,-0.75 1.24,-0.31 0.48,-0.08 0.68,0.1 1.13,2.05 0.17,0.39 0.39,2.05 -0.13,0.43 -0.99,0.97 -0.27,0.12 z" 
                fill="rgb(151, 144, 238)" 
                stroke="white" 
                stroke-width=".7px"
                title="Nariño" 
                id="CO-NAR" 
            />
        </svg>