<svg xmlns="http://www.w3.org/2000/svg" viewBox="190.37000000000012 461.74915999999985 134.82999999999998 81.85000000000002" width="134.82999999999998" height="81.85000000000002">
            <path 
                d="m 233.26,477.33916 0.58,-0.23 4.85,0.35 0.99,1.25 -0.14,1.45 0.47,0.84 2.77,3.05 3.76,1.36 2.83,-0.42 1.75,-0.64 3.81,2.14 0.54,1.32 0.94,0.95 3.44,0.92 2.21,-0.15 0.81,-0.17 1.17,-0.36 1.65,0.4 1.17,0.9 1.63,4.4 -0.38,1.42 0.15,1.26 1.27,2.62 1.16,0.26 1.25,-0.71 1.15,-0.75 3.91,1.81 0.65,0.63 0.52,1.08 -0.11,0.82 -0.55,1.11 1.04,4.75 4.34,1.82 1.25,0.29 4.43,0.63 0.81,0.61 0.66,1.05 1.56,4.51 -0.63,0.67 -0.9,0.73 0.9,3.22 3.24,1.94 4.88,0.91 0.79,-0.73 -0.15,-0.83 0.67,-0.6 4.36,1.33 1.86,1.44 0.79,1.09 3.57,2.03 3.07,0.85 1.43,1.5 1.98,1.97 2.75,1.49 1.48,0.52 3.51,0.85 -2.87,0.86 -5.06,1.68 -6.54,2.22 -5.34,1.93 -0.82,0.27 -1.41,0.35 -0.24,-0.39 -0.73,-1.01 -6.72,-5.14 -2.09,-1.4 -1.04,0.94 -3.13,-1.84 -0.29,-1.15 -0.05,-0.9 -0.17,-0.9 -0.51,-1.17 -0.65,-1.04 -0.95,-1.14 -0.81,-0.31 -0.85,0.22 -1.18,0.81 -0.78,0.29 -3.21,-1.37 -0.93,-1.16 -2.5,-1.95 -4.77,-3.18 -2.8,-0.35 -0.48,1.29 -0.38,1.13 -1.37,1.09 -1.1,-0.12 -0.59,-0.71 -1.05,-0.57 -1,-0.41 -2.03,-0.26 -1.46,-0.51 -3.48,-2.11 -2.33,-1.63 -4.89,-0.46 -1.38,0.31 -1.37,-0.46 -6.26,-4.77 -2.78,-3.81 -1.84,-2.61 -0.63,-0.72 -4.33,-1.36 -4.03,-1.01 -6.51,0.13 -0.28,4.94 -1.69,1.01 -3.97,1.14 -0.89,-0.06 -0.75,-0.42 -1.12,-1.14 -4.31,-1 -0.43,0.82 -1.78,0.58 -1.7,0.31 -2.27,0.08 -6.95,-2.73 -1.83,-2.19 0.09,-1.19 -0.07,-1.35 -0.26,-2.3 -0.39,-1.52 -0.5,-1.49 0.63,-3.1 1.16,-0.25 1.22,-0.4 1.46,-0.8 0.07,-0.96 -1.35,-5.9 -1.27,-3.91 -0.43,-1.07 -0.22,-1.07 -0.24,-7.78 0.47,-0.7 1.17,-0.84 1.29,-0.81 0.91,-0.53 3.75,-2.2 0.91,-0.36 1.22,-0.28 0.8,-0.12 2.88,-0.56 1.19,-0.29 1.49,-1.18 1.1,-1.8 1.2,-0.72 1.78,0.16 1.11,1 1.58,3.09 0.45,1.15 0.04,0.83 -0.45,0.89 -0.41,0.72 -0.26,0.81 -0.51,3.99 1.08,2.24 1.01,1.11 4.65,1.93 0.92,0.3 1.36,0.19 5.26,0.04 1.15,-0.25 4.27,-1.57 z" 
                fill="rgb(151, 144, 238)" 
                stroke="white" 
                stroke-width=".7px"
                title="Putumayo" 
                id="CO-PUT" 
            />
        </svg>