<svg xmlns="http://www.w3.org/2000/svg" viewBox="241.50000000000014 326.90916 19.499999999999915 26.000000000000057" width="19.499999999999915" height="26.000000000000057">
            <path 
                d="m 248.16,327.66916 0.6,-0.28 4.3,0.31 2.69,0.41 1.23,0.33 1.13,-0.04 2.6,-1.49 0.29,0.55 -3.27,4.79 -2.84,3.41 -1.24,1.59 -0.47,0.92 0.09,1.94 -0.1,1.64 -0.31,0.84 -0.35,0.79 -0.39,0.73 -0.51,0.65 -1.03,1.2 -2.49,3.73 -0.42,2.12 0.05,1.1 -0.92,-0.65 -0.75,-1.33 -0.62,-2.08 -0.76,-2.69 -2.88,-12.71 -0.29,-1.41 0.1,-0.95 0.66,-0.59 2.07,0.18 1.98,-0.04 1.86,-0.38 0.48,-0.8 z" 
                fill="rgb(151, 144, 238)" 
                stroke="white" 
                stroke-width=".7px"
                title="Quindío" 
                id="CO-QUI" 
            />
        </svg>