<svg xmlns="http://www.w3.org/2000/svg" viewBox="221.97000000000003 295.1791599999999 38.799999999999955 33.260000000000105" width="38.799999999999955" height="33.260000000000105">
            <path 
                d="m 260.71,326.90916 -2.6,1.49 -1.13,0.04 -1.23,-0.33 -2.69,-0.41 -4.3,-0.31 -0.6,0.28 -2.48,-1.15 -5.39,-1.35 -3.17,-4.57 -3.27,-3.18 -1.47,-1.22 -0.87,-0.31 -1.78,0.31 -0.67,-0.26 -0.92,-0.48 -0.81,-0.52 -0.73,-0.77 -0.46,-0.74 -3.91,-8.54 -0.26,-1.25 3.46,-3.61 0.76,-0.5 6.78,-3.22 1.36,-0.51 0.99,-0.37 0.79,-0.25 0.59,0.34 3.51,-0.08 0.84,-0.11 -0.26,4.6 0.7,0.9 1.09,-0.35 1.59,-0.79 2.81,-0.64 3.47,2.47 -0.97,1.89 -1.44,1.67 -4.08,2.31 -4.5,4.18 -0.6,1.41 1.64,4.43 0.89,0.73 1.46,-0.01 4.6,-1.08 4.29,1.56 3.19,0.17 0.85,0.05 1.68,1.04 3.31,2.86 -1.6,2.1 0.17,0.81 z" 
                fill="rgb(151, 144, 238)" 
                stroke="white" 
                stroke-width=".7px"
                title="Risaralda" 
                id="CO-RIS" 
            />
        </svg>