<svg xmlns="http://www.w3.org/2000/svg" viewBox="295.89000000000027 184.94916000000006 85.05000000000001 99.95000000000005" width="85.05000000000001" height="99.95000000000005">
            <path 
                d="m 321.38,220.60916 0.74,-6.38 1.7,-3.89 1.71,-2.71 0.78,-6.67 -0.64,-3.23 -0.74,-1.55 -1.21,-4.04 -0.03,-1.26 -0.02,-1.39 0.21,-0.93 0.63,-1.51 1.57,-1.44 1.1,-0.66 0.55,0.99 1.61,3.08 0.81,1.79 1.41,4.01 -0.31,1.69 -0.81,1.31 -0.96,1.44 -0.38,1.49 0.54,1.09 2.53,0.17 1.75,0.14 1.06,0.96 0.2,0.52 1.48,0.72 1.63,1.63 0.52,1.45 0.93,0.78 0.81,0.26 5.7,1.74 2.72,-0.23 0.87,-1.45 0.49,-0.8 0.84,-0.45 7.78,0.03 1.01,0.28 3.49,6.04 0.55,1.09 1.1,2.96 0.16,0.98 0,0.95 -0.4,4.76 0.24,6.64 8.25,3.49 0.91,-0.62 2.98,-0.83 0.67,0.63 0.05,1.52 -0.16,1.62 0.55,0.65 0.85,0 0.55,-0.2 0.31,0.68 0.41,1.28 0.47,6.04 -0.07,1.21 -0.25,1.09 -1.91,5.51 -0.47,0.95 -0.67,0.8 -0.79,0.47 -0.96,0.21 -2.16,0.07 -0.76,-2.73 -0.53,-1.18 -2.37,-1.47 -1.21,0.19 -0.03,4.14 0.29,1.44 0.65,1.03 0.64,1.19 0.11,2.08 -0.62,1.72 -1.1,2.02 -7.64,9.45 -3.01,2.97 -2.59,-0.41 -1.12,-0.22 -1.17,0.13 -0.88,0.23 -1.12,0.55 -0.66,0.73 -0.17,1.22 0.51,1.43 -0.17,0.99 -0.7,0.75 -2.3,1.08 -1.24,0.14 -1.38,-0.39 -0.89,-0.69 -0.62,-1.19 -0.27,-1.69 0.16,-1.02 1.1,-2.07 0.31,-1.12 0.1,-0.9 -0.08,-1.12 -0.4,-0.95 -0.79,-0.74 -4.82,-2.54 -1.27,1.71 -2.44,5.91 -0.79,4.74 -0.17,0.86 -0.69,2.38 -1,0.67 -1.25,-0.83 -1.31,-1.04 -5.41,0.62 -4.91,1.21 -0.81,-0.67 -0.77,-2.03 -0.69,-0.67 -4.47,-2.5 -3.72,-3.45 -1.9,-4.05 -1.05,-0.38 -1.08,0.33 -0.75,0.41 -0.78,0.34 -1.17,-0.34 -1.42,-1.3 -1.59,-2.38 -2.17,-3.51 -1.39,-1.63 1.64,-0.7 0.97,-0.72 3.89,-4.33 0.35,-0.86 -1.05,-1.73 -0.33,-3.53 0.39,-1.41 1.49,-1.85 1.3,-0.04 2.71,-1.26 4.87,-3.79 1.27,-1.01 0.64,-0.63 0.78,-1.36 1.08,-1.8 2.12,-2.27 1.4,-0.75 1.87,-0.84 1.86,-1.7 0.07,-1.05 -0.46,-1.64 -0.77,-0.93 -0.53,-1.04 -0.49,-4.36 -0.01,-0.85 0.21,-1.22 z" 
                fill="rgb(151, 144, 238)" 
                stroke="white" 
                stroke-width=".7px"
                title="Santander" 
                id="CO-SAN" 
            />
        </svg>