<svg xmlns="http://www.w3.org/2000/svg" viewBox="247.32 104.03915999999998 48.54000000000002 76.59" width="48.54000000000002" height="76.59">
            <path 
                d="m 247.32,132.49916 1.54,0.41 1.28,-0.6 0.92,-0.93 0.59,-0.99 0.91,-2.1 0.29,-1.01 0.22,-1.5 0.02,-0.96 -0.26,-1.18 -0.41,-1.28 -1.05,-1.39 -1.4,-2.55 1.06,-2.67 1.61,-5.52 0.24,-0.92 0.42,-2.75 0,-1.09 -0.1,-0.7 0.7,-0.32 1.73,-0.41 2.01,4.63 3.77,4.67 1.82,0.78 0.39,1.08 0.14,2.98 -0.08,0.87 3.14,2.26 10.64,8.77 0.75,0.84 1.02,1.23 0.67,0.97 0.16,0.94 0.04,1.15 -0.33,2.23 -0.11,0.98 0.17,1.16 0.67,1.61 1.4,2.76 1.69,2.07 2.42,1.54 0.85,0.31 0.79,0.33 1.07,0.61 2.37,1.66 1.19,1.09 1.33,2.11 2.21,4.96 -1.52,1.33 -0.01,7.48 0.36,1.6 0.62,1.9 0.59,0.98 -1.11,3.01 -1.69,3.39 -0.91,1.1 -1.99,0.26 -1.53,0.27 -1.15,0.41 -0.36,0.27 -0.93,-1.25 -0.28,-1.55 -0.18,-1.58 -2.98,-2.66 -5.83,-2.44 -1.12,1.22 -0.81,0.8 -2.35,1.62 -3.1,0.83 -0.24,-1.71 -0.16,-2.23 -1.01,-0.59 -0.89,0.13 -1.64,0.55 -1.2,-0.35 -1.18,-7.04 -2.4,-6.25 0.06,-1.16 3.17,-1.2 1.77,-0.25 1.34,-0.13 1.25,0.5 0.54,-2.53 -0.05,-1.04 -1.56,-4.25 -2.43,-2.09 -0.81,-0.45 -0.85,-0.35 -3.13,-0.77 -0.78,-0.66 -3.83,-3.99 -5.31,-3.48 -0.77,-0.65 -0.75,-0.82 -0.68,-0.9 z" 
                fill="rgb(151, 144, 238)" 
                stroke="white" 
                stroke-width=".7px"
                title="Sucre" 
                id="CO-SUC" 
            />
        </svg>