<svg xmlns="http://www.w3.org/2000/svg" viewBox="232.02999999999994 302.2291599999999 66.75999999999996 95.09000000000015" width="66.75999999999996" height="95.09000000000015">
            <path 
                d="m 247.72,352.90916 -0.05,-1.1 0.42,-2.12 2.49,-3.73 1.03,-1.2 0.51,-0.65 0.39,-0.73 0.35,-0.79 0.31,-0.84 0.1,-1.64 -0.09,-1.94 0.47,-0.92 1.24,-1.59 2.84,-3.41 3.27,-4.79 -0.29,-0.55 -1.37,-1.27 -0.17,-0.81 1.6,-2.1 2.21,-1.73 0.65,-0.77 0.02,-0.91 -0.74,-0.97 -0.51,-1.14 1.76,-6.43 0.29,-0.84 1.15,-1.29 1.33,-0.2 1.4,0 3.71,-0.38 0.7,-0.45 0.51,-1.19 0.41,-0.72 0.98,-1 1.26,-1 1.1,-0.59 2.91,-0.7 0.93,-0.19 2.49,0 1.72,0.11 1.61,0.41 0.9,0.32 0.17,0.45 0.58,6.74 -1.81,11.55 -2.2,4.78 0.42,4.47 0.17,1.32 0.27,1.5 0.51,1.15 -0.72,2.2 -2.89,5.47 -0.67,1.82 0.82,0.65 8.01,3.09 1.01,0.11 1.17,-0.53 0.98,-1.57 1.46,-0.49 1.15,0.34 0.98,1.13 1.36,2.05 0.42,0.96 0.04,1.24 -1.37,2.79 -0.15,4.73 -0.11,1.25 -1.03,2.57 -0.32,0.17 -0.98,0.74 -1.25,1.04 -1.02,1.25 -2.99,3.8 -1.6,2.32 -2.24,3.72 -0.29,0.85 0.36,0.99 0.07,1.23 -3.53,4.24 -2.75,2 -1.15,0.27 -1.24,0.05 -1.81,-0.46 -0.89,-1.01 0.51,-1.19 0.83,-0.67 0.57,-0.8 0.23,-1.67 -0.45,-0.89 -1.19,-0.35 -11.21,1.69 -1.13,0.36 -6.16,2.58 -0.62,0.79 -2.2,3.76 0.14,1.36 -0.22,0.9 -0.81,0.33 -1.23,0.16 -1.36,0.06 -1.61,0.05 -1.1,0.44 -2.23,2.17 -0.98,1 -2.62,1.88 -1.61,0.64 -2.48,0.61 -1.04,0.07 -0.82,-0.02 -0.24,-0.06 -0.6,-1.3 -1.22,-2.14 -1.15,-1.65 -0.47,-0.81 0.08,-1 0.19,-1.37 -0.06,-0.7 0.5,-0.4 3.17,-10.68 2.26,-8.81 0.92,-5.04 0.31,-0.86 1.12,-1.99 1.13,-1.68 0.93,-1.04 0.83,-0.18 0.77,0.35 0.78,0.31 2.53,-2.03 0.23,-1.2 0.08,-1.63 z" 
                fill="rgb(151, 144, 238)" 
                stroke="white" 
                stroke-width=".7px"
                title="Tolima" 
                id="CO-TOL" 
            />
        </svg>