<svg xmlns="http://www.w3.org/2000/svg" viewBox="175.49 315.8891600000001 73.16000000000011 81.60999999999996" width="73.16000000000011" height="81.60999999999996">
            <path 
                d="m 232.24,388.26916 -1.75,-0.23 -1.47,-0.53 -1.75,-0.77 -1.27,-0.72 -1.04,-0.64 -1.5,-0.79 -3.5,-0.65 -1.95,0.23 -0.93,1.6 0.69,0.92 0.1,1.63 -0.94,1.75 -5.01,2.22 -1.85,0.21 -3.7,2.22 -5.5,2.78 -2.44,-2.73 -2.41,-1.15 -0.93,1.32 -7.38,-0.68 -6.53,-4.76 -1.83,-2.64 -1.4,-1.59 -0.96,-0.53 -1.5,-1.19 0.74,-1.12 3.55,-2.26 4.94,-6.31 1.34,-0.36 2.91,-3.72 0.52,-1.77 0.11,-2.45 3.83,-6.14 -2.07,0.48 -1.22,0.5 -1.94,1.31 -1.19,0.78 -2,0.19 -1.17,-0.05 -0.88,-0.48 -0.45,-2.63 0.49,-1.43 1.06,-0.65 1.88,-0.22 1.12,-3.62 -0.96,-0.69 -2.06,-0.76 -1.41,1.32 -0.73,0.92 -0.68,2.24 -0.63,1.45 -0.9,1.03 -2.32,-2.98 -0.49,-1.35 -0.11,-4.54 0.47,-1.5 3.64,-1.58 2.52,0.09 1.15,-1.25 0.92,1.72 0.75,0.61 1.58,-0.39 0.95,-0.04 1.33,0.54 4.12,3.53 5.7,1.9 2.94,1.82 0.91,0.37 1.14,0.07 1.11,-0.15 6.39,-2.03 4.61,-3.69 0.55,-1.47 -1.84,-1.83 -1.01,-1.2 -0.34,-0.78 -0.25,-0.81 -0.26,-1.15 -0.17,-1.83 0.08,-0.9 0.22,-0.96 0.52,-0.77 3.09,-5.73 3.01,-6.85 0.45,-0.98 0.58,-0.67 4.62,-3.79 0.85,-0.5 0.96,-0.42 0.78,-0.56 0.54,-1.2 0.26,-1.02 0.09,-0.64 1.78,-0.31 0.87,0.31 1.47,1.22 3.27,3.18 3.17,4.57 5.39,1.35 2.48,1.15 0.49,1.79 -0.48,0.8 -1.86,0.38 -1.98,0.04 -2.07,-0.18 -0.66,0.59 -0.1,0.95 0.29,1.41 2.88,12.71 0.76,2.69 0.62,2.08 0.75,1.33 0.92,0.65 0.08,0.48 -0.08,1.63 -0.23,1.2 -2.53,2.03 -0.78,-0.31 -0.77,-0.35 -0.83,0.18 -0.93,1.04 -1.13,1.68 -1.12,1.99 -0.31,0.86 -0.92,5.04 -2.26,8.81 -3.17,10.68 z" 
                fill="rgb(151, 144, 238)" 
                stroke="white" 
                stroke-width=".7px"
                title="Valle del Cauca" 
                id="CO-VAC" 
            />
        </svg>