<svg xmlns="http://www.w3.org/2000/svg" viewBox="399.4500000000001 435.01915999999994 119.76999999999992 132.85000000000002" width="119.76999999999992" height="132.85000000000002">
            <path 
                d="m 506.27,561.61916 -1.01,2.19 0.14,3.16 -6.72,0.9 -0.78,-3.54 0.06,-0.91 -3.25,-2.81 -4.23,1.02 -2.85,1.32 -0.82,0.3 -1.36,-0.23 -0.29,-0.84 1.12,-3.18 -0.2,-1.52 -5.83,0.39 -1.36,0.88 -0.65,0.88 -0.06,0.84 0.59,0.66 1.19,0.3 0.6,0.61 -0.32,0.95 -0.69,0.77 -0.84,0.36 -1.15,-0.09 -5.07,-4.02 -0.51,-0.86 -0.32,-0.98 0.27,-0.89 1.42,-0.83 1.08,-0.84 -0.34,-1.76 -0.95,-0.98 -1.04,-0.9 -0.06,-1.57 1.33,-2.12 -0.06,-4.82 1.5,-5.54 -0.71,-0.92 -2.02,-1.06 -2.46,1.85 0.72,1.21 -1.46,0.33 -2.75,-0.9 -1.32,-1.24 -0.6,-0.94 -1.61,-1.66 -10.41,-3.36 -0.7,1.33 -3.01,1.22 -1.62,-2.64 -1.69,-7.58 -1.04,-1.96 -2.08,-2.2 -1.58,0.65 -4.11,-1.3 -8.52,-5.18 -0.98,-0.75 -1.89,-0.93 -3.04,-0.14 -0.76,0.62 -0.39,0.42 -0.91,0.25 -3.81,-2.1 -3.27,-2.07 -3,-2.73 -2.59,-0.66 -1.44,-4.41 -2.74,-4.78 -2.77,-3.2 -0.8,-0.69 0.07,-0.12 0.73,-0.81 5.29,-5.05 3.59,-3.38 0.25,-1.12 0.36,-1.25 0.55,-0.83 1.31,-1.01 1.36,-0.32 1,-0.12 2.62,-2.55 3.08,-4.22 0.02,-2.2 -0.17,-1.14 -0.07,-1.07 2.49,-6.2 0.69,-1.18 2.85,-1.97 5.08,-5.72 2.78,-3.73 4.03,-2.49 1.25,-0.26 1.87,0.07 0.89,-0.43 5.39,-4.19 4.67,0.38 2.31,0.04 2.17,-0.21 12.49,-3.43 7.48,-2.87 1.04,0.04 0.11,0.23 0.51,2.37 -0.63,0.93 -0.99,0.49 0.28,3.72 0.97,1.37 2.07,1.78 1.62,1.27 1.19,0.41 1.28,0.08 1.14,0.17 3.78,0.92 1.37,1.12 0.15,0.51 0,25.63 5.11,-0.01 4.32,-0.23 7.35,1.62 2.41,-0.74 1.58,-0.67 3.03,1.6 1.52,1.42 3.61,5.55 -0.78,4.53 1.3,4.46 -3.38,1.13 -3.2,-0.27 -1.71,-1.37 -5.37,-3.28 -9.24,2.43 -2.74,1.77 -1.89,1.33 -5.22,0.15 -2.52,0 -2.52,0.52 -0.07,3.02 -0.08,5.85 -0.05,2.52 -0.12,6.68 -0.13,5.88 -0.08,3.61 -0.02,2.84 1.5,1.89 3.63,4.12 8,6.2 0.92,0.21 1.18,0.24 2.39,1.12 0.99,1.06 1.36,4.71 -0.38,1.35 -0.56,1.33 -0.78,0.98 0.11,1.29 3.91,7.27 1.52,0.88 1.92,1.89 z" 
                fill="rgb(151, 144, 238)" 
                stroke="white" 
                stroke-width=".7px"
                title="Vaupés" 
                id="CO-VAU" 
            />
        </svg>