<svg xmlns="http://www.w3.org/2000/svg" viewBox="438.5799999999998 261.20915999999994 151.27000000000032 145.37" width="151.27000000000032" height="145.37">
            <path 
                d="m 438.66,319.10916 0.7,-0.44 0.91,-0.77 0.75,-0.97 4.5,-7.6 1.72,-0.83 1.18,-0.7 6.52,-6 0.08,-0.85 0,-0.84 0.43,-1.06 1.15,-0.76 0.87,-0.55 7.47,-4.44 3.85,-1.51 1.11,-0.13 2.03,0.06 0.95,-0.17 2.48,-0.6 1.06,-0.34 2.93,-1.87 1.07,-1.2 4.26,-5.6 1.01,-2.72 0.56,-1.74 1.01,-2.14 0.62,-0.94 1.35,-1.63 0.5,-0.35 0.52,-0.33 1.38,-0.59 1.25,-0.22 2.56,0.26 2.36,0.26 2.41,-0.03 1.64,-0.13 2.18,-0.76 1.13,-0.57 1.63,-1.32 1.04,-0.5 1.35,-0.62 2.28,-0.11 0.63,1.06 1.24,1.31 1.19,0.28 1.92,-0.67 1.73,-1.67 1.55,-1.57 1.14,-0.99 1.3,-0.53 1.26,0.05 8.16,1.17 3.06,0.7 1.71,0.51 1.07,0.64 1.97,0.25 3.64,-1.2 3.01,-0.9 0.95,-0.17 1.43,-0.05 1.85,0.5 2.26,0.48 1,-0.32 2.7,-0.95 1.47,-0.5 1.6,-0.49 0.95,-0.03 1.18,0.08 1.54,0.34 1.27,0.32 1.54,-0.07 1.67,-0.43 1.62,-0.84 3.59,-2.86 5.68,0.6 2.39,0.32 2.95,0.94 1.2,0.8 1.58,1.55 0.97,0.45 0.75,0.06 -1.43,1.61 -0.14,1.34 0.29,0.97 0.66,1.16 1.42,1.27 0.87,1.78 -0.51,0.77 -1.46,0.88 -0.71,0.57 -2.18,2.07 -2.69,2.74 -0.94,1.34 -0.95,2.5 -0.36,1.98 0.12,1.28 0.27,1.64 0.35,1.4 0.74,1.24 -1.38,2.87 -1.61,1.22 -2.44,1.5 -0.89,0.22 -1.43,0.97 -1.84,3.15 0.78,7.2 0.38,1.57 0.73,2.21 0.05,2.72 -0.5,5.84 -0.13,1.22 -0.33,2.66 -1.4,7.21 3.05,9.3 -0.68,1.42 -0.18,1.12 -0.03,1.69 0.81,2.68 2.37,3.24 0.85,1.66 -0.92,0.29 -3,1.12 -0.77,0.55 -0.96,1.19 -1.37,1.49 -2,1.48 -0.74,-0.63 -0.09,-1.07 -0.59,-0.79 -3.36,-1.65 -5.42,0 -7.15,0.83 -0.9,0.45 -5.73,5.05 -0.51,0.66 -0.71,1.34 -2.03,0.65 -2.94,-0.2 -2,-0.17 -2.57,0.74 -2.21,2.15 -1.95,1.69 -2.18,-0.93 -4.88,1.04 -6.26,1.23 -0.25,-1.38 -1.09,-0.89 -1.81,-0.76 -3.43,0.49 -1.15,0.98 -2.74,0.37 -2.05,-1.06 -3.77,0.21 -0.83,0.89 0.27,1.42 -0.1,1.01 -1.53,1.5 -2.56,1.25 -1.92,0.32 -4.53,1.77 -4.87,4.28 -2.04,0 -1.15,-0.68 -3.39,1.21 -1.35,1.78 0.6,1.35 0.66,0.96 0.27,3.03 -1.8,0.32 -1.64,0.01 -1.69,0.44 -2.06,3.47 -0.29,3.26 0.31,1.74 0.1,1.27 -3.08,4.22 -1.04,0.46 -1.93,0.51 -1.97,0.35 -0.69,0.32 -1.07,-0.33 -2.1,-0.94 -2.67,-0.99 -0.63,0.99 -0.42,1.77 -1.13,1.01 -4.2,-0.21 -2.35,-1.27 -4.55,-1.35 -3.72,0.67 -0.3,-2.14 -0.05,-0.53 -0.02,-5.6 -0.03,-10.52 -0.03,-25.31 -0.04,-10.54 -0.02,-9.15 -0.02,-21.15 z" 
                fill="rgb(151, 144, 238)" 
                stroke="white" 
                stroke-width=".7px"
                title="Vichada" 
                id="CO-VID" 
            />
        </svg>