<svg xmlns="http://www.w3.org/2000/svg" viewBox="149.63268999999997 204.1225800000001 115.49000000000007 150.48999999999987" width="115.49000000000007" height="150.48999999999987">
            <path 
                d="m 206.65269,344.54258 -2.02,0.38 -3.88,3.39 -0.72,3.39 -5.82,0.97 -3.39,1.94 -7.5,-7.75 -4.36,-6.3 -0.25,-1.69 4.12,-0.49 0.73,-2.42 -2.91,-2.66 2.42,-3.15 -0.24,-3.15 2.91,-1.69 0.72,-3.88 -2.18,-1.69 1.46,-2.18 0.48,-4.6 -4.84,-3.88 -0.24,-6.54 -1.7,-2.66 -5.57,10.17 -2.9,-1.94 -1.22,-2.9 -2.9,-2.18 -2.42,0.24 -0.97,3.87 -3.15,1.22 -2.18,-2.67 -3.63,-1.21 -2.91,-2.42 1.45,-3.15 0,0 0.25,-4.6 -2.67,-1.94 -0.99,-4.96 0,0 2.72,-1.98 1.67,-3.01 2.83,-2.53 12.29,-5.86 -5.82,-4.5 0.13,-1.46 4.51,-3.24 1.47,-3.2 -1.66,-3.59 0.32,-2.42 6.58,-1.73 2.24,-1.57 0.22,-2.22 -3.22,-3.89 -0.06,-3.17 2,-4.05 4.98,-4.12 11.69,-5.63 -1.09,-3.74 0.68,-2.94 1.5,-1.61 4.67,-1.39 1.8,-2.26 0.83,-2.71 -0.44,-3.64 -1.24,-2.51 -2.74,-0.73 0,0 1.69,-2.18 0,0 5.33,-1.21 0,0 3.82,-0.2 0,0 0.29,6.71 5.37,5.08 2.4,5.75 6.57,3 -0.26,2.08 3.37,7.47 6.67,-0.2 2,1.06 4.11,16.34 -2.74,7.92 1.63,5.88 5.36,3.68 6.83,9.85 5.01,3.2 3.94,0.58 0,0 0.51,0.02 0,0 -0.78,3.88 0.49,5.32 2.66,0.73 2.91,3.87 -9.21,1.46 -4.11,3.15 3.39,3.14 1.69,3.15 3.64,0 -0.25,2.91 4.85,5.32 1.45,4.61 -2.66,2.18 -2.67,-0.25 -2.66,-1.69 -2.42,0.73 -1.46,5.56 -2.42,2.91 6.78,6.54 -3.15,1.69 0,0 0.23,4.79 0,0 -2.11,-1.73 -3.39,-0.73 -0.97,-2.91 -3.64,-0.24 -1.93,1.7 -4.12,-0.49 -2.18,-2.9 -0.24,-3.64 -2.67,-1.21 -2.42,0.73 -1.21,1.69 -4.84,1.22 -1.94,-8.48 -7.99,-1.45 -1.45,-1.7 -3.39,-0.97 -0.73,3.39 -1.7,1.94 1.22,2.66 2.17,1.21 1.46,3.15 -5.57,7.03 0,0 z" 
                fill="rgb(151, 144, 238)" 
                stroke="white" 
                stroke-width=".7px"
                title="Beograd" 
                id="RS-00" 
            />
        </svg>