<svg xmlns="http://www.w3.org/2000/svg" viewBox="333.0426899999998 548.5325799999997 147.6500000000002 92.43000000000018" width="147.6500000000002" height="92.43000000000018">
            <path 
                d="m 480.69269,601.90258 -0.4,2.67 -1.22,1.39 -4.06,3.26 -3.65,1.13 0,0 -3.45,-0.1 -2.59,2.15 -2.16,0 -1.72,3.89 -3.02,2.15 -4.32,0.87 -0.86,2.59 -1.9,1.19 -3.86,0 -5.25,-1.66 0,-5.8 -1.66,0 -0.82,1.38 -2.77,-4.42 -7.45,3.59 -1.11,-2.48 0.28,-3.87 -5.8,-0.55 -3.86,3.04 -3.32,-2.76 -2.48,0 -2.49,5.52 -6.07,0.83 -3.04,-2.21 -3.04,0.27 -2.21,1.66 -4.14,0 -1.93,3.04 0,2.21 -2.49,3.04 -1.1,7.17 -3.59,1.11 -0.1,1.82 0,0 -0.12,-0.07 0,0 -2.62,0.14 -4.94,5.78 -2.66,1.09 -3.18,-2.72 -4.98,-8.76 -4.24,-2.74 -5.06,-1.21 -6.47,0.12 0,0 -0.13,-0.05 0,0 -5.68,-2.98 -9.44,-0.7 -0.48,-4.7 3.11,-5.55 0.89,-6.27 0,0 -0.64,-0.91 0,0 5.33,-3.06 2.5,-4.29 -1.43,-2.86 0.36,-3.57 1.79,-0.72 0,-3.92 -2.5,-4.65 7.14,-4.64 1.79,-2.86 6.07,0 6.43,-3.22 2.15,-2.86 4.64,-0.35 5.72,-5.36 2.86,-0.36 6.43,-2.86 4.28,-5.71 0,0 -0.55,-1.47 0,0 6.16,-0.99 4.96,-2.21 2.21,1.94 0.28,3.86 7.46,-4.97 4.41,0.28 4.42,1.38 9.11,9.39 3.04,1.1 0.28,3.87 4.97,-0.56 1.1,2.21 2.21,-0.27 1.93,-3.87 1.94,-1.1 0,0 0,2.48 0,0 3.03,0.28 1.39,2.48 -1.94,1.11 -0.27,1.93 -3.87,0.28 -2.21,2.48 1.93,3.04 3.59,1.1 0.83,1.94 3.32,0 4.97,1.93 11.04,6.35 -3.31,3.87 7.45,8.56 z" 
                fill="rgb(151, 144, 238)" 
                stroke="white" 
                stroke-width=".7px"
                title="JablaniÄki okrug" 
                id="RS-23" 
            />
        </svg>