<svg xmlns="http://www.w3.org/2000/svg" viewBox="80.64269400000005 297.2225800000001 130.209996 90.81" width="130.209996" height="90.81">
            <path 
                d="m 153.15269,297.79258 -0.11,1.12 0,0 -1.45,3.15 2.91,2.42 3.63,1.21 2.18,2.67 3.15,-1.22 0.97,-3.87 2.42,-0.24 2.9,2.18 1.22,2.9 2.9,1.94 5.57,-10.17 1.7,2.66 0.24,6.54 4.84,3.88 -0.48,4.6 -1.46,2.18 2.18,1.69 -0.72,3.88 -2.91,1.69 0.24,3.15 -2.42,3.15 2.91,2.66 -0.73,2.42 -4.12,0.49 0.25,1.69 4.36,6.3 7.5,7.75 3.39,-1.94 5.82,-0.97 0.72,-3.39 3.88,-3.39 2.02,-0.38 0,0 -0.09,0.87 0,0 2.91,0.24 0.24,8.23 1.14,1.33 0,0 -2.11,3.52 0,0 -5.32,6.54 -3.15,0.96 -2.67,4.85 -3.87,0.97 -1.45,3.63 -4.36,0 -3.64,1.69 -5.81,-0.48 -5.08,4.6 -6.06,0.73 0,0 -1.82,0.54 0,0 -0.84,-1.51 -7.51,-0.73 -3.87,0.49 -3.64,2.42 -3.39,-2.42 -2.66,-5.09 -3.87,-0.97 -3.88,1.94 -2.18,2.66 -2.66,-2.42 -3.39,0 1.21,2.67 2.9,2.42 1.21,3.63 -1.21,2.18 -4.11,0 -0.97,-3.63 -2.91,-4.12 -14.29,-8.48 0,0 -2.65,0.49 -2.67,-3.39 -3.15,-1.46 0,-5.08 -2.419996,-3.63 -4.85,-0.73 -3.39,-1.94 -4.6,-0.97 -5.08,-3.63 2.42,-3.15 3.15,-1.93 0.96,-2.91 4.36,-0.73 0.25,-2.9 -5.57,-5.33 1.21,-1.21 3.39,-0.24 0,-2.67 1.45,-3.63 -0.24,-2.91 -3.15,-2.42 1.45,-1.69 5.09,0 2.66,-1.21 4.359996,1.93 0.97,2.67 2.91,0.48 2.66,-2.66 6.3,-0.97 2.18,3.15 4.11,0.48 4.12,1.7 1.94,2.9 3.39,1.46 3.39,-0.25 1.93,-4.35 0,-3.64 1.94,-3.39 0.24,-3.15 -0.24,-3.87 -3.39,-7.02 6.3,-6.06 3.39,2.18 3.15,-1.21 0.97,-1.69 z" 
                fill="rgb(151, 144, 238)" 
                stroke="white" 
                stroke-width=".7px"
                title="Kolubarski okrug" 
                id="RS-09" 
            />
        </svg>