<svg xmlns="http://www.w3.org/2000/svg" viewBox="37.90269399999997 233.24258000000012 116.35999599999997 151.83999999999983" width="116.35999599999997" height="151.83999999999983">
            <path 
                d="m 153.30269,297.79258 -4.46,-0.57 -0.97,1.69 -3.15,1.21 -3.39,-2.18 -6.3,6.06 3.39,7.02 0.25,3.87 -0.25,3.15 -1.93,3.39 0,3.64 -1.94,4.35 -3.39,0.25 -3.39,-1.46 -1.94,-2.9 -4.12,-1.7 -4.11,-0.48 -2.18,-3.15 -6.3,0.97 -2.66,2.66 -2.91,-0.48 -0.97,-2.67 -4.359996,-1.93 -2.66,1.21 -5.09,0 -1.45,1.69 3.15,2.42 0.24,2.91 -1.45,3.63 0,2.67 -3.39,0.24 -1.21,1.21 5.57,5.33 -0.24,2.9 -4.36,0.73 -0.97,2.91 -3.15,1.93 -2.42,3.15 5.08,3.63 4.6,0.97 3.39,1.94 4.85,0.73 2.419996,3.63 0,5.08 3.15,1.46 2.68,3.39 0.22,3.87 -0.96,3.15 -1.7,-1.94 -2.42,-0.72 -12.069996,8.43 -1.52,-4.59 -2.96,-1.05 -0.04,-1.55 1.57,-1.98 -0.77,-1.51 -2.18,0.63 -1.84,2.31 -3.3,-2 -1.44,-4.47 -6.31,-2.65 0.02,-4.09 -2.04,-2.42 0.62,-2.36 -2.64,-3.45 -0.38,-3.3 -3.63,0.18 -2.28,-1.21 -2.71,1.97 -2.75,0.63 -2.22,-1.42 -1.42,-3.81 -3.84,1.57 -1.77,-0.45 -1.71,-3.09 -2.97,-2.73 0.46,-3.9 -2.21,-0.56 -1.09,-2.31 1.04,-2.23 -1.32,0 -0.5,-0.99 0.82,-4.43 4.2,-2.59 0.75,-1.46 -0.02,-6.74 -2.02,-6.99 -1.68,-1.46 1.3,-3.79 5.74,-0.38 0.73,-2.38 2.35,-2.5 -0.2,-1.63 -1.72,-1.09 1.37,-3.05 4.17,-2.03 -0.35,-2.92 1.99,-1.04 0.82,-2.58 1.25,-0.16 -0.45,-1.53 1.21,-3.16 1.78,-1.52 0.68,-3.66 4.55,-2.38 -1.49,-2.67 0.73,-2.37 -0.67,-1.65 2.28,0.76 1.05,-1.69 -2.28,-2.2 0.33,-1.71 -1.25,-0.97 0.55,-0.96 2.97,-0.53 -0.76,-1.68 -1.52,0.64 -2,-0.89 2.7,-1.64 -0.76,-1.97 0.37,-1.09 1.39,-0.2 -0.75,-1.49 2.01,0.65 1.27,-0.56 2.28,-3.05 -1.34,-2.57 2.27,0.59 2.17,-2.76 -1.7,-0.74 -0.14,-2.89 -2.49,-2.84 -3.92,-2.1 0.69,-1.75 7.12,1.71 2.37,-1.57 1.14,2.43 1.44,-1.82 5.71,3.17 3.84,-4.16 2.36,3.4 3.42,0.62 9.639996,-0.57 7.08,-4.42 4.73,0.2 2.63,3.05 3.84,-0.47 0.35,2.99 -1.83,2.04 -5.85,12.44 -0.23,5.21 0.93,3.4 3.03,3.31 9.15,0.62 9.32,7.59 6.01,3.02 3.27,0.76 7.49,-1.15 0.14,2.39 -3.87,2.9 -5.06,1.09 -1.17,1.87 0.78,1.71 4.64,1.25 1.19,4.91 2.67,1.94 z" 
                fill="rgb(151, 144, 238)" 
                stroke="white" 
                stroke-width=".7px"
                title="MaÄvanski okrug" 
                id="RS-08" 
            />
        </svg>