<svg xmlns="http://www.w3.org/2000/svg" viewBox="146.02269 355.09257999999977 93.2399999999999 175.1700000000002" width="93.2399999999999" height="175.1700000000002">
            <path 
                d="m 238.39269,424.94258 -0.98,-0.43 0,0 -5.72,1.78 -3.57,4.29 0.36,6.07 -6.79,3.22 -2.86,4.64 -2.5,2.15 -5.72,0.35 0.72,3.22 2.86,4.29 0.71,5 -2.5,2.5 -4.29,-1.79 -3.21,1.79 -1.43,3.57 3.57,3.58 -2.86,7.5 -7.14,6.43 3.21,3.93 5.36,1.07 2.14,4.65 4.29,3.21 -2.86,10.72 2.86,2.5 -0.36,9.29 -4.64,1.79 -4.29,5.71 -0.71,4.29 -3.57,-1.43 -3.93,-3.22 0,0 -0.18,0 0,0 0.58,-2.45 -2.66,-1.7 -3.15,-0.24 -7.75,1.94 -3.15,2.18 -4.12,-0.73 -4.36,-2.66 0.97,-5.09 -2.42,-3.15 -0.97,-3.63 -3.87,-3.39 -0.73,-4.36 -4.36,-7.5 -7.26,-7.75 -4.36,-0.97 -0.73,-3.88 2.67,-4.6 1.69,-0.73 0.48,2.18 4.12,-0.24 4.6,-7.02 3.39,-2.91 3.88,-0.24 3.15,-1.69 0.48,-3.39 3.88,-2.18 4.11,1.93 2.91,-2.42 -1.94,-4.12 0,-4.35 -4.6,-6.54 -3.15,-7.27 1.7,-7.26 -3.64,-2.18 0,-4.85 -1.69,-5.57 0,-5.32 1.69,-3.64 -6.53,-7.99 3.39,-6.78 -2.67,-5.08 1.21,-3.39 -0.24,-3.64 0,0 2.42,-0.72 0,0 6.06,-0.73 5.08,-4.6 5.81,0.48 3.64,-1.69 4.36,0 1.45,-3.63 3.87,-0.97 2.67,-4.85 3.15,-0.96 5.32,-6.54 0,0 2.18,-3.64 0,0 2.42,2.91 0.25,6.3 4.36,5.81 3.39,0.24 2.42,2.66 2.42,5.09 0.24,4.36 9.45,7.51 3.39,4.84 -0.73,2.18 -3.63,0.48 -9.45,8 2.91,6.53 3.15,2.91 3.39,5.09 3.87,2.66 z" 
                fill="rgb(151, 144, 238)" 
                stroke="white" 
                stroke-width=".7px"
                title="MoraviÄki okrug" 
                id="RS-17" 
            />
        </svg>