<svg xmlns="http://www.w3.org/2000/svg" viewBox="250.3526900000001 271.24257999999986 56.41999999999979 94.19000000000011" width="56.41999999999979" height="94.19000000000011">
            <path 
                d="m 300.54269,365.43258 -2.49,-0.31 0.49,-3.87 -3.63,-0.73 -1.94,1.69 -3.63,-4.11 -5.57,-3.15 -1.7,-4.6 -4.36,1.69 -5.33,0 -6.29,-2.66 -5.09,-0.49 1.21,-5.08 -1.21,-0.73 0,0 -6.29,-0.24 -0.25,-5.09 0,0 3.15,-1.69 -6.78,-6.54 2.42,-2.91 1.46,-5.56 2.42,-0.73 2.66,1.69 2.67,0.25 2.66,-2.18 -1.45,-4.61 -4.85,-5.32 0.25,-2.91 -3.64,0 -1.69,-3.15 -3.39,-3.14 4.11,-3.15 9.21,-1.46 -2.91,-3.87 -2.66,-0.73 -0.49,-5.32 0.78,-3.88 0,0 1.4,0.06 0,0 6.75,-0.64 7.01,-1.91 9.14,-8.2 4.21,-0.61 0,0 2.01,0.29 0,0 -0.54,8.1 0.72,3.64 3.15,2.9 -0.48,3.64 1.21,2.9 8.96,3.39 -1.21,10.17 5.08,10.9 -0.48,5.09 -5.33,6.05 0.49,4.12 5.32,1.93 0.97,4.36 -6.78,2.18 -0.42,4.29 0,0 -1.07,2.15 6.43,8.93 -2.5,3.21 -1.43,4.65 0,0 z" 
                fill="rgb(151, 144, 238)" 
                stroke="white" 
                stroke-width=".7px"
                title="Podunavski okrug" 
                id="RS-10" 
            />
        </svg>