<svg xmlns="http://www.w3.org/2000/svg" viewBox="254.91269000000003 425.6525800000001 104.33000000000001 132.39000000000004" width="104.33000000000001" height="132.39000000000004">
            <path 
                d="m 347.45269,510.75258 -0.36,-0.78 0,0 -8.22,-2.86 -3.57,1.78 -3.93,-3.21 -3.21,0.36 -0.72,2.14 -2.86,0 -4.28,2.5 -6.44,0.36 -1.78,2.5 0.36,5.71 -1.79,2.86 -3.93,0.36 -0.71,6.07 -2.15,4.29 -5,3.22 -2.86,-1.43 -3.57,-3.57 -4.65,2.5 -2.5,-2.86 -2.14,1.43 -1.07,4.64 -1.79,0.72 0,8.93 -2.14,2.86 -1.07,3.57 0.27,5.2 0,0 -0.2,-0.09 0,0 -3.49,-2.1 -3.46,-0.78 -3.24,-3.24 -0.9,-4.17 1.34,-1.2 2.23,-0.27 4.59,1.58 0.28,-2.16 -6.88,-11.78 -3.43,-2.16 -2.55,-0.09 0,0 -0.45,0 0,0 2.67,-5.54 -2.86,-2.5 5.36,-5 0.71,-6.43 -4.28,-4.29 -5.72,-0.71 -0.36,-5.36 2.86,-10 -4.65,-3.94 1.79,-2.85 3.93,1.78 2.86,-2.14 2.86,0.36 2.86,2.14 4.28,1.07 3.93,-2.5 -1.78,-4.29 -0.36,-4.64 -1.79,-3.22 0,-2.85 3.93,0 0.72,-3.22 -6.79,-5 0.36,-2.86 2.5,-3.57 0.36,-5.36 4.28,-6.79 0,0 4.29,3.93 0,0 2.86,-1.79 7.5,2.86 3.93,0 3.93,1.43 3.93,-1.43 -1.79,-3.57 0.36,-2.86 2.86,1.07 3.57,0 3.57,-3.57 2.86,-1.07 0.72,-10.36 3.21,-2.86 1.08,4.64 -2.51,1.43 1.08,7.51 6.78,-0.36 1.43,-2.86 3.58,0.36 0.71,2.5 2.86,1.07 -4.29,2.14 2.15,1.79 3.21,0.36 0.36,2.5 3.21,0 2.86,-1.43 4.29,-4.64 0,0 1.43,3.93 0,0 0,3.57 2.86,1.78 -1.08,2.86 -3.57,2.5 -1.43,4.29 3.93,7.5 3.93,1.43 1.43,11.08 3.57,2.14 -0.35,5.36 -3.22,4.65 1.43,5.35 2.86,3.22 -2.86,3.57 -3.57,0.36 -2.15,3.57 z" 
                fill="rgb(151, 144, 238)" 
                stroke="white" 
                stroke-width=".7px"
                title="Rasinski okrug" 
                id="RS-19" 
            />
        </svg>