<svg xmlns="http://www.w3.org/2000/svg" viewBox="127.04269000000006 2.7525781999999905 112.87999999999995 106.83000179999999" width="112.87999999999995" height="106.83000179999999">
            <path 
                d="m 169.90269,90.942578 0,-1.84 -2.18,-3.15 -10.17,-2.91 -6.06,0 -4.6,-2.66 -9.2,-0.73 0,0 -2.91,-0.97 0,0 -0.72,-2.18 -2.67,-1.69 -0.72,-3.39 -1.45,-1.94 0.24,-5.09 -2.42,-4.6 0.48,-3.14 2.91,-0.73 0,-2.66 -2.18,-3.88 1.21,-9.69 6.05,-12.83 1.45,-10.17 2.18,-1.94 1.21,-2.66 -1.49,-5.0599998 0,0 6.32,-3.95 8.13,-0.05 3.8,0.76 1.75,4.67 2.89,-0.47 0.64,0.71 4.48,-5.95 1.53,3.45 3.73,2.61 2.85,-0.71 2.51,-1.94 6.44,6.7699998 2.19,-1.32 0.54,2.67 2.09,-2.04 -0.57,1.94 2.46,0.04 -2.27,1.2 0.96,2.31 3.71,2.18 1.01,2.72 4.31,4.28 -0.43,1.98 2.23,5.88 -1.26,1.34 7.69,6.43 5.4,-0.93 4.67,3.18 4.21,11.47 4.41,-1.47 -0.44,-1.13 2.98,-0.78 1.58,7.65 1.7,-0.43 0.56,1.88 1.66,-0.45 6.34,6.49 -1.26,3.23 1.52,3 0,0 -2.6,0.95 -0.49,3.63 -2.42,3.63 -0.48,8.96 -4.36,0 -2.42,-2.42 -5.33,4.6 -1.94,4.6 1.7,9.200002 -5.33,0 -2.66,-1.69 -7.51,3.87 -6.54,-0.24 -3.39,-2.9 4.36,-5.09 0,-4.120002 6.54,-3.15 0.97,-3.87 -4.12,-2.42 -1.21,-4.6 -4.36,-7.75 -2.91,1.21 -4.6,-1.45 -15.74,2.18 -1.69,3.63 -1.94,1.21 3.15,2.9 0,3.88 -2.67,1.94 0,0 z" 
                fill="rgb(151, 144, 238)" 
                stroke="white" 
                stroke-width=".7px"
                title="Severnobanatski okrug" 
                id="RS-03" 
            />
        </svg>