<svg xmlns="http://www.w3.org/2000/svg" viewBox="156.19269000000003 73.87257800000008 129.30999999999995 132.25000199999994" width="129.30999999999995" height="132.25000199999994">
            <path 
                d="m 197.72269,206.12258 -3.51,-1.85 -2.9,-5.57 -3.64,-3.15 0,0 2.67,-1.69 0,0 -1.45,-3.88 4.6,-3.63 2.42,-3.63 -2.91,-5.33 -11.38,-11.87 5.33,-3.63 1.45,-2.66 -2.42,-2.18 -4.6,-1.7 -2.18,-2.9 0,-4.6 1.94,-1.94 0.72,-2.42 -1.45,-3.88 -3.63,3.15 -3.39,-1.21 0.97,-6.05 -1.22,-3.15 -3.39,-0.97 -0.96,-3.15 -2.67,-1.69 -2.9,5.81 -2.67,2.66 -1.69,-2.66 0.48,-4.6 1.7,-2.91 -1.94,-3.39 7.51,-4.36 3.14,-3.39 -3.63,-1.21 -5.08,1.69 -0.25,-3.63 3.64,-1.69 0.24,-4.36 -7.75,1.69 -0.73,-3.14 1.46,-1.7 8.47,-0.73 -2.18,-6.780002 2.42,-2.9 0,0 5.57,0 0,0 2.67,-1.94 0,-3.88 -3.15,-2.9 1.94,-1.21 1.69,-3.63 15.74,-2.18 4.6,1.45 2.91,-1.21 4.36,7.75 1.21,4.6 4.12,2.42 -0.97,3.87 -6.54,3.15 0,4.120002 -4.36,5.09 3.39,2.9 6.54,0.24 7.51,-3.87 2.66,1.69 5.33,0 -1.7,-9.200002 1.94,-4.6 5.33,-4.6 2.42,2.42 4.36,0 0.48,-8.96 2.42,-3.63 0.49,-3.63 2.6,-0.95 0,0 2.78,-0.38 1.12,7 0.96,1.69 1.82,0.39 2.4,-1.34 5.39,0.24 1.21,-5.89 5.13,2.04 -0.94,4.89 -1.03,0.13 -0.68,2.06 -0.03,7.01 -0.83,2.35 0.91,0.93 0.22,4.55 -2.02,2.010002 -1.29,4.31 -1.8,1.85 0.84,5.48 2.96,-0.98 4.87,9.62 -3.16,3.58 -5.12,2.99 1.11,1.75 -0.83,1.9 8.1,0.04 4.43,2.8 1.78,3.42 -0.82,-0.07 -0.54,2.54 -0.93,0.04 4.84,2.82 2.53,-0.11 1.98,4.43 -0.72,0.09 0.15,0.96 2.22,0.18 1.54,3.46 2.88,1.75 1.83,2.48 1.82,0.32 0.5,2.41 0,0 -1.83,1.95 -10.66,1.7 -5.57,4.6 -7.99,3.14 5.33,3.4 -0.97,2.17 -3.39,0.97 -6.54,4.12 -5.57,8.23 -9.44,-9.68 -8.48,-1.46 -1.69,-1.93 -1.94,0.97 -1.69,5.08 -6.3,-0.97 -2.18,1.21 -2.91,3.15 -2.42,4.6 0.49,7.75 -2.67,1.94 -0.97,3.15 0,0 -4.6,0.24 0,0 -5.33,1.21 0,0 z" 
                fill="rgb(151, 144, 238)" 
                stroke="white" 
                stroke-width=".7px"
                title="Srednjebanatski okrug" 
                id="RS-02" 
            />
        </svg>