<svg xmlns="http://www.w3.org/2000/svg" viewBox="369.9426900000002 366.3425800000001 130.4099999999998 153.38999999999987" width="130.4099999999998" height="153.38999999999987">
            <path 
                d="m 482.59269,392.85258 1.23,2.39 -1.89,2.46 -11.03,0.61 -0.57,1.2 -3.91,1.12 0.7,2.12 -0.94,1.74 -0.04,7.75 -2.51,2.35 0.74,3.16 -1.04,7.01 -3.68,10.68 3.19,7.04 2.44,2.14 -0.83,5.21 1.08,1.61 0.64,4.2 2.15,3.27 3.47,2.8 3.55,1.2 1.65,3.04 -1.51,3.1 1.83,3.77 -0.62,6.69 6.07,16.55 2.18,1.36 3.21,0.05 2.91,4.75 7.85,1.58 1.44,4.75 0,0 -2.07,0.41 -2.76,2.21 -7.45,8.56 -5.8,-0.83 -3.04,-3.31 -0.27,-3.59 -2.77,1.1 -0.82,1.66 -4.42,1.66 -3.59,-3.04 -2.76,-0.28 -4.7,-2.48 -3.03,0 0,0 0,0.74 0,0 0.27,-6.26 1.11,-2.49 -2.76,-6.07 -2.77,-1.94 -1.38,2.49 -3.59,1.1 -6.62,-6.35 -2.49,1.94 -7.18,0.55 -1.38,-3.59 -3.04,-0.28 -2.21,-2.21 -5.52,-0.55 0.55,-1.93 -1.93,-3.32 0.28,-1.93 -4.97,-5.24 -3.59,-1.66 -2.76,0.83 0.82,3.03 4.42,4.42 0,3.04 -3.03,0.28 -1.39,-2.21 -2.2,0 -0.83,1.93 -2.49,0 -0.83,-3.31 -1.93,-1.38 -4.42,-8.01 -2.76,1.93 -7.18,-2.21 -2.76,-1.93 -0.83,-3.59 -2.76,-2.49 -4.42,-7.18 -0.27,-4.14 1.65,-3.59 -0.55,-2.48 -2.21,-2.49 2.21,-3.86 -4.14,-5.53 -1.05,-3.01 0,0 0.02,-0.02 0,0 4.64,-5 -2.14,-8.22 0.36,-1.78 5,-0.36 2.14,-6.79 3.93,-6.79 0,0 1.48,-4.44 0,0 3.02,1.21 2.48,-1.93 3.59,1.37 1.93,-1.65 5.25,0 3.59,6.63 4.97,3.03 4.42,1.11 1.93,-2.76 3.04,-0.56 4.69,10.77 3.32,0.83 0,2.76 4.14,-2.21 1.38,-2.48 3.31,-1.11 0.83,-6.9 2.49,-5.25 6.9,-7.45 -1.66,-3.59 0.28,-5.52 -1.94,-2.76 0,-3.32 -3.03,-3.86 3.31,-2.21 1.66,-6.08 2.76,3.87 4.14,1.65 6.35,1.39 8.29,-1.11 3.86,6.08 3.04,0 3.86,4.14 -1.93,2.48 -3.03,0.83 0.27,6.9 2.76,1.38 4.42,-2.76 0.55,1.66 z" 
                fill="rgb(151, 144, 238)" 
                stroke="white" 
                stroke-width=".7px"
                title="ZajeÄarski okrug" 
                id="RS-15" 
            />
        </svg>