<svg xmlns="http://www.w3.org/2000/svg" viewBox="201.28921 449.04988999999995 175.18000000000004 169.56" width="175.18000000000004" height="169.56">
            <path 
                d="m 223.26921,618.60989 -4.78,-3.95 -5.94,-6.02 -1.3,-2.78 -0.17,-1.75 0.4,-9.86 1.56,-4.73 0.65,-7.87 2.57,-7.42 3.24,-6.58 0.76,-2.91 -3.57,-14.3 -0.16,-3.07 2.49,-8.83 4.65,-2.81 4.5,-0.81 3.25,-0.15 1.88,-0.53 7.11,-3.92 5.49,-5.38 2.63,-3.84 -3.34,-5.03 -1.4,-4.8 0.19,-2.32 -1.76,-4.29 -2.86,-2.48 -3.8,-0.32 -1.27,0.34 -1.48,0.99 -4.93,-0.22 -7.85,-3.6 -4.01,-2.7 -0.49,-1.63 -6.45,-7.81 -1.11,-3.36 2.07,-4.2 -0.44,-6.45 3.97,-3.85 0.37,-1.13 -0.11,-1.06 -0.94,-0.86 -8.32,-1.41 -1.24,-6.85 -2.04,-4.89 0.4,-4.12 10.68,2.61 4.14,1.35 1.16,-0.51 0,0 4.73,5.87 0.55,2.5 3.09,1.93 6.58,3.08 0.09,-1.33 -0.44,-1.46 1.77,-2.02 4.92,-3.62 2.59,-1.17 3.33,0.06 5.84,2.13 3.28,5.2 3.7,2.01 1.78,-0.01 3.21,-1.08 1.93,-2.07 2.06,-0.11 1.63,2.9 0,0 1.27,0.81 0.13,3.5 1.72,4.33 11.81,13.34 2.12,4.67 2.26,0.43 1.07,-0.22 0.99,-0.89 0.66,-1.29 0.28,-3.84 0.77,-0.9 7.29,0.1 -1.38,11.15 1.91,25.82 0.08,11.04 1.54,4.2 0.45,3.8 -0.05,4.14 0.8,14.04 0.84,0.7 7.63,0.65 4.47,-3.01 6.48,3.71 55.02,-0.2 0,0 -3.56,4.86 0.42,23.5 0,0 -38.78,0.17 -47.74,-0.32 -3.32,-2.35 -1.37,-1.92 -5.3,-1.42 -0.53,1.37 0.1,5.71 -0.8,4.66 -0.69,1.19 -1,0.65 -6.62,-0.49 -6.6,-2.66 -3.9,-3.51 -3.74,-4.21 -3.4,-0.61 -1.86,2.94 -0.37,2.6 -1.11,2.58 -2.62,0.55 -1.92,-0.93 -2.14,-2.22 -8.35,-4.26 -4.14,-0.49 -0.77,1.57 z" 
                fill="rgb(151, 144, 238)" 
                stroke="white" 
                stroke-width=".7px"
                title="Chuquisaca" 
                id="BO-H" 
            />
        </svg>