<svg xmlns="http://www.w3.org/2000/svg" viewBox="133.03920999999997 309.66988999999984 141.72000000000003 156.20999999999987" width="141.72000000000003" height="156.20999999999987">
            <path 
                d="m 153.24921,429.69989 -3.96,-9 -5.08,-6.75 -2.77,-2.68 -6.6,-4.73 0,0 7.97,-4.19 -3.08,-15.55 -6.69,-10.02 3.97,-7.79 2.33,-0.44 3.87,-0.11 1.86,-0.68 0.83,-0.8 1.02,-1.88 1.11,-7.25 0.14,-2.17 -1.59,-2.97 -1.1,-6.56 -0.41,-5.16 -4.71,-8.94 -1.65,-1.83 -0.25,-13.64 0.58,-1.41 2.08,-2.36 4.08,-3.12 0,0 12.17,11.71 2.32,2.92 1.63,4.62 1.44,2.02 9.91,10.96 7.41,4.87 4.91,1.75 6.06,1.22 3.62,-0.06 10.58,-2.9 7.64,-2.38 4.45,-2.31 0.98,-0.95 0.88,-1.98 2.53,-7.64 -0.47,-1.95 4.47,-8.98 20.43,-2.38 5,-0.9 0,0 -1.16,3.45 0.33,4.39 1.07,2.99 0.96,5.4 1.04,11.09 -3.03,8.6 -2.41,4.06 -1.91,4.83 0.19,4.43 0.6,1.93 3.64,7.27 15.54,10.15 2.5,2 5.72,6.95 0.52,1.06 -0.23,3.74 -6.16,0.03 -2.99,2.26 -0.04,2.57 -0.73,1.48 -8.1,11.77 -3.35,3.5 -2.97,2.44 -0.4,1.16 0.14,1.78 3.65,4.04 7.81,12.71 2.74,8.75 0.75,0.77 1.5,0.55 3.92,3.08 0.58,5.09 -2.57,3.68 0,0 -1.63,-2.9 -2.06,0.11 -1.93,2.07 -3.21,1.08 -1.78,0.01 -3.7,-2.01 -3.28,-5.2 -5.84,-2.13 -3.33,-0.06 -2.59,1.17 -4.92,3.62 -1.77,2.02 0.44,1.46 -0.09,1.33 -6.58,-3.08 -3.09,-1.93 -0.55,-2.5 -4.73,-5.87 0,0 -6.56,-5.11 -4.4,-4.85 -3.9,-5.21 -3.26,-3.1 -5.07,-3.69 -3.53,-1.67 -2.76,0.62 -2.96,-3.4 -1.42,-2.71 -1.01,-0.56 -2.98,-0.41 -4.35,0.92 -7.97,6.13 -1.62,0.26 -4.1,-0.46 z" 
                fill="rgb(151, 144, 238)" 
                stroke="white" 
                stroke-width=".7px"
                title="Cochabamba" 
                id="BO-C" 
            />
        </svg>