<svg xmlns="http://www.w3.org/2000/svg" viewBox="106.03921000000003 36.619892999999934 300.96 313.119997" width="300.96" height="313.119997">
            <path 
                d="m 145.19921,309.66989 -13.98,-14.13 -1.69,-0.62 -0.74,-0.85 -0.54,-1.37 -0.37,-5.6 -7.03,-11.95 -0.98,-0.99 -3.65,-0.04 -2.75,-1.94 -0.96,-2.51 -0.07,-1.93 0.98,-4.8 -0.38,-2.43 -4.74,-4.81 -1.44,-4.44 0.12,-6.03 -0.94,-7.81 1.91,-5.28 -0.79,-10.22 2.02,-11.96 1.43,-3.66 1.59,-0.75 4.53,-6.21 -0.13,-1.19 -1.4,-0.79 -1.12,-6.03 0.46,-1.52 3.17,-4.7 2.21,-1.19 6.69,-8.4 5.06,-4.07 4.62,-15.11 1.18,-5.42 -0.78,-3.79 0.53,-8.12 0.62,-0.8 0,0 0.8,-0.75 0.69,-1.48 -0.68,-3.12 0.69,-4.69 1.53,-4.97 0.13,-1.62 -1.52,-4.71 -1.64,-2.97 0.84,-8.08 0.65,-1.11 6.86,-2.21 2.53,-2.18 -0.42,-3.219997 1.14,-5.3 1.03,-1.57 3.42,-0.76 7.65,0.08 6.99,-3.84 1.17,-0.97 1.37,-2.22 -0.12,-1.35 5.62,-8.14 4.19,-7.15 1.59,-5.01 -0.86,-0.72 -1.75,-0.11 3.86,-3.01 1.49,-0.11 3.01,0.71 8.53,-5.94 5.37,-6.21 6.52,-3.97 2.65,-3.59 0.97,-0.79 3.1,-0.51 0,0 0.23,1.03 -0.56,1.45 -2,1.59 0.2,7.41 2.42,6.99 3.74,6.37 0.67,5.35 -5.01,9.4 0.57,5.36 2.14,6.65 1.91,4.57 1.04,0.55 2.43,0.05 0.94,0.66 2.7,4.91 -2.01,4.959997 0.88,2.06 2.13,1.03 1.57,-3.74 2.83,2.86 0.96,2.81 1.33,8.2 0.43,1 1.21,1.11 8.82,0.9 0.93,0.66 2.65,5.56 6.1,3.12 5.1,1.6 0.98,6.37 3.81,3.84 2.44,1.39 4.02,0.71 2.75,-0.15 3.15,0.33 6.9,1.66 0.99,0.98 4.64,0.53 1.48,-0.96 1.41,-1.79 3.69,-1.73 6.33,0.54 10.11,5.12 0.36,1.31 2.46,2.98 4.57,2.58 3.93,0.09 1.56,-1.28 4.17,-2.32 3.34,1.24 0.91,4.5 2.77,4.72 4.92,3.13 6.4,5.43 4.11,-1.92 2.14,2 0.02,1.28 13.15,5.84 5.86,-0.25 1.2,-0.74 1.56,-0.29 5.05,1.69 1.42,6.05 4.18,4.68 1.49,0.68 4.99,4.05 0.28,1.38 1.42,2.99 1.53,0.51 10.92,-2.14 0,0 -100.55,57.94 -19.26,5.36 0.63,1.43 1.09,4.78 -1.04,11.53 1.13,4.05 3.35,7.44 9.59,14.72 2.61,2.58 6.99,3.76 2.18,3.32 3.49,6.95 -1.43,0.85 -55.47,-2.27 -5.12,-0.33 -4.03,-0.92 0,0 -5,0.9 -20.43,2.38 -4.47,8.98 0.47,1.95 -2.53,7.64 -0.88,1.98 -0.98,0.95 -4.45,2.31 -7.64,2.38 -10.58,2.9 -3.62,0.06 -6.06,-1.22 -4.91,-1.75 -7.41,-4.87 -9.91,-10.96 -1.44,-2.02 -1.63,-4.62 -2.32,-2.92 z" 
                fill="rgb(151, 144, 238)" 
                stroke="white" 
                stroke-width=".7px"
                title="El Beni" 
                id="BO-B" 
            />
        </svg>