<svg xmlns="http://www.w3.org/2000/svg" viewBox="0.3792065199999408 113.61989000000005 147.79000348000002 318.52999999999986" width="147.79000348000002" height="318.52999999999986">
            <path 
                d="m 145.19921,309.66989 -4.08,3.12 -2.08,2.36 -0.58,1.41 0.25,13.64 1.65,1.83 4.71,8.94 0.41,5.16 1.1,6.56 1.59,2.97 -0.14,2.17 -1.11,7.25 -1.02,1.88 -0.83,0.8 -1.86,0.68 -3.87,0.11 -2.33,0.44 -3.97,7.79 6.69,10.02 3.08,15.55 -7.97,4.19 0,0 -2.7,-2.92 -2.13,-3.61 -1.27,-1.1 -1.43,-0.33 -1.94,0.34 -6.29,2.04 -7.04,4.1 -5.85,4.49 -9.870003,6.36 -0.09,1.34 0.95,1.73 0.17,1.65 -0.91,1.69 -1.38,0.68 -1.66,-0.26 -10.36,-7.73 -6.85,-3.04 -2.05,-0.47 -7.16,-0.12 -6.23,0.59 -3.39,1.33 -3.1,2.01 -5.8,7.13 -5.89,4.7 -3.1,1.57 -6.13,1.58 -3.65,1.86 0,0 -2.96,-0.47 -7.94,-2.61 -1.22,-2.76 -0.31,-1.85 0.14,-3.52 -1.86,-4.19 -6.6400005,-5.92 -0.63,-6.71 -0.07,-6.64 -4.52,-4.39 -3.29999998,-0.43 1.87999998,-3.8 4.41,-4.45 6.3100005,-3.03 0.98,-1.01 3.34,-6.64 6.49,-7.76 4.26,-3.48 4.8,-2.86 -0.1,-1.44 -0.89,-1.09 -0.47,-3.18 0.36,-3.9 2.19,-2.79 7.94,-3.43 0.46,-1.45 -0.72,-1.46 -2.75,-0.77 -3.79,-3.89 -3.86,-0.07 -1.31,1.03 -3.5,-0.27 -0.99,-0.55 -2.73,-2.85 -10.45,-27.91 4.46,-9.5 3.24,-5.82 3.65,-3.39 1.32,0.08 1.35,-0.46 0.3,-1.39 -3.06,-3.59 -4.9,-4.11 -4.36,-5.95 0.84,-8.51 1.07,-1.08 1.66,-0.66 3.11,-4.12 0.21,-3.69 0.47,-1.42 12.67,-10.91 -0.79,-2.18 -0.13,-4.51 0.81,-0.88 6.48,-1.63 -2.05,-8.7 -3.15,-2.31 -0.71,-1.08 -1.97,-9.04 -2.45,-4.3 4.21,-7.3 0.91,-3.06 0.03,-12.07 -0.39,-5.48 0.25,-7.17 -0.5,-1.27 0,-7.02 4.73,-5.55 3.23,-1.25 3.62,-7.62 3.52,-4.29 0,0 1.78,-0.13 8.11,-4.1 2.06,-3.3 1.51,-4.53 1.94,-1.69 3.67,-2.26 0.53,-1.12 -0.09,-4.59 0.36,-1.36 0.88,-1.01 2.2,-1.18 8.88,-2.72 2.31,-1.4 0.77,-1.37 37.710003,16.9 15.3,7.69 0,0 -0.62,0.8 -0.53,8.12 0.78,3.79 -1.18,5.42 -4.62,15.11 -5.06,4.07 -6.69,8.4 -2.21,1.19 -3.17,4.7 -0.46,1.52 1.12,6.03 1.4,0.79 0.13,1.19 -4.53,6.21 -1.59,0.75 -1.43,3.66 -2.02,11.96 0.79,10.22 -1.91,5.28 0.94,7.81 -0.12,6.03 1.44,4.44 4.74,4.81 0.38,2.43 -0.98,4.8 0.07,1.93 0.96,2.51 2.75,1.94 3.65,0.04 0.98,0.99 7.03,11.95 0.37,5.6 0.54,1.37 0.74,0.85 1.69,0.62 z" 
                fill="rgb(151, 144, 238)" 
                stroke="white" 
                stroke-width=".7px"
                title="La Paz" 
                id="BO-L" 
            />
        </svg>