<svg xmlns="http://www.w3.org/2000/svg" viewBox="25.959207000000024 398.57989000000015 156.81000300000002 129.28000000000003" width="156.81000300000002" height="129.28000000000003">
            <path 
                d="m 29.689207,432.14989 3.65,-1.86 6.13,-1.58 3.1,-1.57 5.89,-4.7 5.8,-7.13 3.1,-2.01 3.39,-1.33 6.23,-0.59 7.16,0.12 2.05,0.47 6.85,3.04 10.36,7.73 1.66,0.26 1.38,-0.68 0.91,-1.69 -0.17,-1.65 -0.95,-1.73 0.09,-1.34 9.870003,-6.36 5.85,-4.49 7.04,-4.1 6.29,-2.04 1.94,-0.34 1.43,0.33 1.27,1.1 2.13,3.61 2.7,2.92 0,0 6.6,4.73 2.77,2.68 5.08,6.75 3.96,9 0,0 -0.73,1.53 -4.26,1.47 -0.87,0.81 -0.5,4.61 0.28,2.29 0.97,1.27 3.04,1.24 3.05,-0.46 3.93,0.93 -0.44,1.19 -2.08,1.28 -1.86,0.66 -3.23,2.27 -0.67,7.18 2.25,5.09 0.86,1.16 5.26,4.32 5.7,2.19 2.71,0.09 2.83,0.92 1.4,1.14 2.41,7.42 1.43,3.24 2.34,3.42 5.53,6.43 0.17,1.08 -0.87,1.18 -1.43,0.42 -10.75,0.89 -3.51,-0.09 -3.45,0.58 -4.02,2.32 -6.95,6.57 -2.15,1.4 -43.14,18.87 -6.880003,2.91 -1.89,0.34 -14.15,-5.05 -16.09,-5.14 -12.46,-4.56 0,0 6.5,-7.07 -2.42,-3.44 -3,-2.64 -4.59,-1.98 -7.08,-7.44 -5.92,-4.09 -3.32,-5.92 1.66,-3.73 -3.41,-7.4 -1.21,-4.47 -0.41,-5.21 0.46,-4.05 -0.82,-2.24 -1.76,-2.58 -0.82,-8.66 -2.25,-2.56 -0.68,-1.53 0.47,-1.35 2.89,-2.01 0.46,-0.98 z" 
                fill="rgb(151, 144, 238)" 
                stroke="white" 
                stroke-width=".7px"
                title="Oruro" 
                id="BO-O" 
            />
        </svg>