<svg xmlns="http://www.w3.org/2000/svg" viewBox="4.809206500000002 0.2698924999999921 215.8100035 144.1099975" width="215.8100035" height="144.1099975">
            <path 
                d="m 49.919207,144.37989 -12.68,-25.79 -32.4300005,-53.539997 4.11,0 3.7600005,-0.68 16.95,1.5 11.46,2.5 4.39,-0.66 -0.24,6.84 3.33,-0.13 6.26,-1.61 2.72,-2.24 6.06,-2.12 2.95,-0.55 3.18,-1.39 7.88,-11.25 0.29,-1.39 0.85,-1.36 2.06,-1.47 2.2,-0.83 7.65,-0.17 2.44,0.43 3.79,2.43 1.97,-0.93 1.430003,-3.81 3.29,-4.58 1.37,-1.31 6.71,-3.2 6.19,-4.21 0.17,-1.81 4.94,-0.59 2.13,0.6 5.36,-2.8 9.24,-9.02 6.73,-5.12 5.09,-2.15 1.45,-2.18 7.63,-1.22 2.13,0.35 13.21,-4.6500005 4.92,-1.1 5.33,0.21 11.4,-0.47 7.05,3.28 1.85,0.01 2.7,-3.11 0.18,-1.66 3.53,-3.16 1.78,0.36 1.51,0.87 3.79,7.06 -1.75,5.3300005 0.31,4.93 1.34,2.9 0.74,5.95 -1.13,3.61 -3.36,3.37 -0.89,1.97 0,0 -3.1,0.51 -0.97,0.79 -2.65,3.59 -6.52,3.97 -5.37,6.21 -8.53,5.94 -3.01,-0.71 -1.49,0.11 -3.86,3.01 1.75,0.11 0.86,0.72 -1.59,5.01 -4.19,7.15 -5.62,8.14 0.12,1.35 -1.37,2.22 -1.17,0.97 -6.99,3.84 -7.65,-0.08 -3.42,0.76 -1.03,1.57 -1.14,5.3 0.42,3.219997 -2.53,2.18 -6.86,2.21 -0.65,1.11 -0.84,8.08 1.64,2.97 1.52,4.71 -0.13,1.62 -1.53,4.97 -0.69,4.69 0.68,3.12 -0.69,1.48 -0.8,0.75 0,0 -15.3,-7.69 -37.710003,-16.9 -0.77,1.37 -2.31,1.4 -8.88,2.72 -2.2,1.18 -0.88,1.01 -0.36,1.36 0.09,4.59 -0.53,1.12 -3.67,2.26 -1.94,1.69 -1.51,4.53 -2.06,3.3 -8.11,4.1 z" 
                fill="rgb(151, 144, 238)" 
                stroke="white" 
                stroke-width=".7px"
                title="Pando" 
                id="BO-N" 
            />
        </svg>