<svg xmlns="http://www.w3.org/2000/svg" viewBox="44.32920700000003 422.4098899999998 204.20000299999998 270.10000000000014" width="204.20000299999998" height="270.10000000000014">
            <path 
                d="m 223.26921,618.60989 0.12,2.14 -0.94,3.09 -0.81,1.46 -1.03,0.8 -1.6,4.29 -0.37,2.23 2.78,3.14 3.36,5.29 1.71,7.44 -0.88,0.25 0,0 -20.61,0.29 -2.96,0.48 -4.66,0.06 -3.17,-2.09 -5.71,-7.47 -7.64,-5.48 -7.34,-2.77 -0.66,0.88 -2.78,12.88 -0.79,2.26 -1.94,2.15 -13.67,4.07 -3.65,0.23 -2.41,1.7 -1.75,7.99 -0.17,2.82 -7.65,2.77 -4.85,2.49 0.5,5.99 -5.64,4.64 -2.98,5.55 -19.95,4.33 -10.800003,-1.26 -4.19,-2.72 -0.39,-6.27 1.73,-8.58 -4.18,-13.81 0.49,-1.43 0.02,-1.88 -1.1,-7.28 -1.43,-2.4 -1.22,-0.72 -4.45,-4.62 -0.12,-6.42 -0.89,-5.27 -1.69,-4.22 -2.39,-3.09 -0.13,-16.85 -11.87,-19.25 -4.12,-0.06 -1.31,-0.61 -1.43,-1.87 -0.28,-1.14 0.03,-7.32 1.82,-2.47 2.86,-1.98 0.26,-1.08 -1.28,-1.38 -2.87,-2 -4.04,-1.54 -3.1,-1.8 -1.7,-1.83 -1.39,-2.51 -0.13,-2.7 1,-1.14 1.58,-0.76 -0.88,-5.35 -2.29,-5.42 -0.92,-1.17 0.38,-1.35 6.39,-1.74 3.67,-0.16 2.74,-7.32 -2.2,-4.4 -6.19,-4.86 0.13,-2.07 5.78,-7.3 0,0 12.46,4.56 16.09,5.14 14.15,5.05 1.89,-0.34 6.880003,-2.91 43.14,-18.87 2.15,-1.4 6.95,-6.57 4.02,-2.32 3.45,-0.58 3.51,0.09 10.75,-0.89 1.43,-0.42 0.87,-1.18 -0.17,-1.08 -5.53,-6.43 -2.34,-3.42 -1.43,-3.24 -2.41,-7.42 -1.4,-1.14 -2.83,-0.92 -2.71,-0.09 -5.7,-2.19 -5.26,-4.32 -0.86,-1.16 -2.25,-5.09 0.67,-7.18 3.23,-2.27 1.86,-0.66 2.08,-1.28 0.44,-1.19 -3.93,-0.93 -3.05,0.46 -3.04,-1.24 -0.97,-1.27 -0.28,-2.29 0.5,-4.61 0.87,-0.81 4.26,-1.47 0.73,-1.53 0,0 8.53,-0.44 4.1,0.46 1.62,-0.26 7.97,-6.13 4.35,-0.92 2.98,0.41 1.01,0.56 1.42,2.71 2.96,3.4 2.76,-0.62 3.53,1.67 5.07,3.69 3.26,3.1 3.9,5.21 4.4,4.85 6.56,5.11 0,0 -1.16,0.51 -4.14,-1.35 -10.68,-2.61 -0.4,4.12 2.04,4.89 1.24,6.85 8.32,1.41 0.94,0.86 0.11,1.06 -0.37,1.13 -3.97,3.85 0.44,6.45 -2.07,4.2 1.11,3.36 6.45,7.81 0.49,1.63 4.01,2.7 7.85,3.6 4.93,0.22 1.48,-0.99 1.27,-0.34 3.8,0.32 2.86,2.48 1.76,4.29 -0.19,2.32 1.4,4.8 3.34,5.03 -2.63,3.84 -5.49,5.38 -7.11,3.92 -1.88,0.53 -3.25,0.15 -4.5,0.81 -4.65,2.81 -2.49,8.83 0.16,3.07 3.57,14.3 -0.76,2.91 -3.24,6.58 -2.57,7.42 -0.65,7.87 -1.56,4.73 -0.4,9.86 0.17,1.75 1.3,2.78 5.94,6.02 z" 
                fill="rgb(151, 144, 238)" 
                stroke="white" 
                stroke-width=".7px"
                title="Potosí" 
                id="BO-P" 
            />
        </svg>