<svg xmlns="http://www.w3.org/2000/svg" viewBox="246.04921000000002 195.38989000000026 366.3299999999999 366.1999999999998" width="366.3299999999999" height="366.1999999999998">
            <path 
                d="m 532.95921,501.52989 -44.68,-2.76 -31.85,8.62 -56.94,9.89 -8.61,23.19 -14.41,20.92 0,0 -55.02,0.2 -6.48,-3.71 -4.47,3.01 -7.63,-0.65 -0.84,-0.7 -0.8,-14.04 0.05,-4.14 -0.45,-3.8 -1.54,-4.2 -0.08,-11.04 -1.91,-25.82 1.38,-11.15 -7.29,-0.1 -0.77,0.9 -0.28,3.84 -0.66,1.29 -0.99,0.89 -1.07,0.22 -2.26,-0.43 -2.12,-4.67 -11.81,-13.34 -1.72,-4.33 -0.13,-3.5 -1.27,-0.81 0,0 2.57,-3.68 -0.58,-5.09 -3.92,-3.08 -1.5,-0.55 -0.75,-0.77 -2.74,-8.75 -7.81,-12.71 -3.65,-4.04 -0.14,-1.78 0.4,-1.16 2.97,-2.44 3.35,-3.5 8.1,-11.77 0.73,-1.48 0.04,-2.57 2.99,-2.26 6.16,-0.03 0.23,-3.74 -0.52,-1.06 -5.72,-6.95 -2.5,-2 -15.54,-10.15 -3.64,-7.27 -0.6,-1.93 -0.19,-4.43 1.91,-4.83 2.41,-4.06 3.03,-8.6 -1.04,-11.09 -0.96,-5.4 -1.07,-2.99 -0.33,-4.39 1.16,-3.45 0,0 4.03,0.92 5.12,0.33 55.47,2.27 1.43,-0.85 -3.49,-6.95 -2.18,-3.32 -6.99,-3.76 -2.61,-2.58 -9.59,-14.72 -3.35,-7.44 -1.13,-4.05 1.04,-11.53 -1.09,-4.78 -0.63,-1.43 19.26,-5.36 100.55,-57.94 0,0 0.81,0.97 2.84,1.26 1.43,0.15 22.89,-3.11 1.75,2.46 2.34,2.17 8.38,4.98 2.39,0.15 3.46,2.9 10.03,3.35 4.65,9.49 -0.81,2.19 -1.27,1.93 -1.97,1.79 -0.86,3.42 1.58,6.37 1.17,1.72 7.38,15.47 1.12,24.39 -15.76,0.2 17.35,19.8 3.38,40.88 86.8,3.48 1.22,-0.51 1.32,-1.94 3.09,-0.19 0.16,6.11 -1.11,5.74 -3.68,3.53 -2.45,3.69 -0.4,1.6 0.63,11.83 1.96,5.72 0.86,5.36 -0.1,4.12 0.96,3.62 0.97,1.02 3.87,1.09 2.24,1.39 6.53,4.55 0.59,1.37 0.87,0.87 3.78,2.21 1.67,0.17 4.13,-2.04 7.87,6.94 -1.02,0.99 -0.69,1.31 1.02,2.59 2.12,2.14 -0.08,6.18 9.97,18.92 -1.58,2.26 -0.55,1.48 -10.44,33.39 2.39,0.4 0.92,6.89 -3.63,0.21 -17.37,36.87 13.58,12.48 -2.47,2.86 -10.53,6.41 -2.48,1.01 1.09,-2.76 0.21,-1.82 0.09,-5.13 -0.99,-8.27 -5.91,-3.56 z" 
                fill="rgb(151, 144, 238)" 
                stroke="white" 
                stroke-width=".7px"
                title="Santa Cruz" 
                id="BO-S" 
            />
        </svg>