<?xml version="1.0" encoding="UTF-8" standalone="no"?>
        <svg xmlns="http://www.w3.org/2000/svg">
            <path
                d="m 95.191,1.53207 0.059,0.18697 0.01,0.1749 -0.266,0.16284 -0.175,0.0945 -0.21,0.44932 -0.389,0.30457 -0.065,0.0925 0.003,0.0834 0.264,0.13771 0.088,0.13067 0.041,0.1749 -0.118,0.62524 -0.074,0.47847 -0.097,0.62623 0.004,0.23823 0.1,0.28547 0.099,0.22216 0.031,0.25129 -0.035,0.61819 0.121,0.35685 0.097,0.3287 -0.231,0.40911 -0.099,0.36086 -0.062,0.51567 -0.025,0.32468 -0.149,0.29954 -0.194,0.28045 -0.219,0.1749 -0.27,0.15079 -0.311,0.19802 -0.252,0.52974 -0.545,0.44027 -0.114,0.15078 -0.051,0.35182 0.013,0.48751 0.096,0.387 0.261,0.57095 0.229,0.62724 0.062,0.31463 0.088,0.11961 0.322,0.20507 0.557,0.27743 0.103,0.11358 0.276,0.43023 0.262,0.76997 0.082,0.50864 0.51,0.40408 0.471,0.37192 0.452,0.32669 0.491,0.35384 0.071,0.10855 0.163,0.74887 0.163,0.74183 0.178,0.81522 0.18,0.81621 0.212,0.95795 0.12,0.5418 0.145,0.65639 0.171,0.76797 -0.275,0.16284 -0.31,0.20808 0.226,0.39403 0.436,0.64031 0.263,0.51566 0.092,0.22416 0.205,0.63829 0.167,0.61719 0.043,0.20004 0.061,0.47445 -0.075,1.30273 0.12,1.64751 0.162,0.81823 -0.255,0.7368 -0.218,0.70264 0.014,0.35282 0.12,0.54984 0.118,0.4061 0.16,0.21309 -0.031,0.68253 -0.067,0.24728 -0.49,0.35684 -0.543,0.32669 -0.15,0.27643 -0.043,0.30758 0.072,0.2503 0.373,0.55286 0.561,0.82727 0.617,0.90869 0.051,0.22818 0.025,0.64333 0.257,0.80717 0.278,0.35181 0.104,0.26236 0.197,0.18797 0.196,0.13771 0.122,0.0161 0.693,-0.21913 1.185,0.36188 1.121,0.36789 0.082,0.0724 0.245,0.46541 0.401,0.75892 0.297,0.60612 0.266,0.5418 -1.453,0.93282 -1.454,0.93081 -1.453,0.9288 -1.453,0.92578 -1.453,0.92478 -1.454,0.92277 -1.453,0.92076 -1.453,0.91773 -0.964,0.60815 -0.613,0.53677 -0.769,0.67047 -0.726,0.66543 -0.571,0.52371 -0.74,0.67549 -0.373,0.34076 -0.825,0.75289 -0.248,0.13368 -1.093,0.22216 -1.003,0.20304 -0.926,0.18797 -0.633,0.12867 -0.613,0.12364 -0.891,0.1749 -0.636,0.12565 -0.686,0.13469 -0.107,0.0231 -0.124,0.005 -0.093,-0.005 -0.19,-0.0744 -0.229,-0.1759 -0.153,-0.0905 -0.038,-0.13871 0.089,-0.18496 0.111,-0.16585 0.042,-0.13068 0.076,-0.0995 0.098,-0.0804 0.004,-0.11359 -0.081,-0.18696 -0.071,-0.25833 0.003,-0.46943 0.002,-0.15681 0,-0.0563 -0.205,-0.17993 -0.387,-0.19903 -0.356,-0.1166 -0.162,-0.0402 -0.393,-0.0704 -0.543,-0.12564 -0.191,-0.0865 -0.352,-0.43726 -0.173,-0.11157 -0.815,-0.0744 -0.271,-0.0724 -0.222,-0.10354 -0.19,-0.14073 -0.107,-0.24024 -0.032,-0.19601 -0.071,-0.0935 -0.899,-0.47445 -0.229,-0.16083 -0.121,-0.14978 -0.004,-0.22214 0.024,-0.27241 -0.038,-0.24225 -0.038,-0.11862 -0.411,-0.28748 -0.919,-0.64533 -0.919,-0.64534 -0.919,-0.64633 -0.919,-0.64736 -0.919,-0.64834 -0.919,-0.64936 -0.919,-0.65036 -0.919,-0.65136 -0.919,-0.65338 -0.92,-0.65236 -0.918,-0.6554 -0.919,-0.65538 -0.919,-0.65639 -0.92,-0.6584 -0.919,-0.65941 -0.919,-0.66041 -0.777,-0.55788 -0.857,-0.59105 -0.637,-0.43324 -0.632,-0.43224 -0.68,-0.46339 -0.442,-0.28749 -0.527,-0.34377 -0.528,-0.34479 -0.528,-0.34477 -0.528,-0.34479 -0.528,-0.34477 -0.528,-0.34579 -0.527,-0.34579 -0.528,-0.34679 -0.528,-0.34679 -0.527,-0.34679 -0.528,-0.3468 -0.528,-0.34779 -0.528,-0.3478 -0.528,-0.3488 -0.528,-0.34881 -0.527,-0.3488 0,-0.64533 0,-0.52571 0,-0.774 0,-0.67348 0,-0.67348 0,-0.4644 0,-0.4845 0.014,-0.21914 0.052,-0.0935 0.285,-0.15781 0.446,-0.35987 0.165,-0.15982 0.211,-0.16183 0.747,-0.48752 0.155,-0.1367 0.726,-0.56191 0.17,-0.0824 0.39,-0.0553 0.163,-0.10554 0.219,-0.22517 0.322,-0.25733 0.209,-0.12263 0.05,-0.0221 0.134,-0.0181 0.671,0.0764 0.282,0.0573 0.337,0.0482 0.105,-0.0331 0.09,-0.0804 0.127,-0.17993 0.027,-0.2141 0.008,-0.18697 0.02,-0.0814 0.059,-0.0372 0.147,0.0141 0.196,0.0252 0.401,-0.008 0.136,-0.0262 0.455,-0.0403 0.643,-0.12163 0.51,-0.15883 0.406,-0.12565 0.435,-0.3307 0.319,-0.34881 0.331,-0.52069 0.263,-0.45233 0.533,-0.28246 0.445,-0.17189 0.255,-0.0673 0.578,-0.23923 0.489,-0.36187 0.459,-0.33975 0.351,-0.0452 0.444,-0.0563 0.099,-0.0633 0.112,-0.12062 0.006,-0.2131 -0.134,-0.14978 -0.162,-0.0784 -0.115,-0.0865 -0.114,-0.0161 -0.061,-0.10253 0.034,-0.18898 0.017,-0.1749 0.073,-0.1749 -0.02,-0.24728 -0.114,-0.24728 -0.035,-0.17792 0.008,-0.17692 0.056,-0.1377 0.164,-0.0915 0.191,-0.0352 0.268,0.0442 0.463,-0.0593 1.185,-0.4282 0.082,-0.13169 0.076,-0.29653 0.085,-0.26034 0.123,-0.0875 0.067,-0.0191 0.395,-0.0703 0.559,-0.0985 0.21,-0.0141 0.61,0.0282 0.444,0.0211 0.718,0.0342 0.51,0.0171 0.444,0.0151 0.566,0.0201 0.139,-0.0603 0,-0.18998 -0.102,-0.35383 0.062,-0.22114 0.218,-0.20506 0.272,-0.22919 -0.127,-0.27944 -0.217,-0.18697 -0.303,-0.22516 -0.157,-0.0915 -0.275,-0.27241 -0.168,-0.3106 -0.114,-0.65539 -0.209,-0.3679 -0.152,-0.45435 0.135,-0.83532 -0.202,-0.5056 -0.031,-0.21914 -0.002,-0.25833 0.062,-0.44731 -0.04,-0.63026 -0.238,-0.65136 0.112,-0.22215 0.052,-0.1156 L 66.239,9.97667 66.022,9.7696 65.93,9.59771 65.978,9.43688 66.091,9.20267 66.081,9.10417 65.73,8.8187 65.138,8.3553 64.972,8.15226 64.891,7.89794 l 0.567,0.0653 0.293,-0.0312 0.672,-0.30557 0.534,-0.41314 0.415,-0.21008 0.365,-0.45334 0.331,-0.28648 0.478,-0.3096 1.379,-0.66846 0.211,-0.005 0.454,0.15178 0.395,-0.0472 0.27,-0.23422 0.291,-0.56492 0.451,-0.34477 0.569,-0.34579 0.774,-0.33071 0.507,-0.30457 0.802,-0.26436 2.013,-0.16788 1.034,-0.14977 0.703,0.0342 0.71,-0.4845 0.355,-0.15983 1.537,-0.0372 0.725,-0.35483 2.748,0 0.336,0.11862 0.33,0.19098 0.562,0.45938 0.28,0.10052 0.363,-0.0955 0.844,-0.43525 0.952,-0.22717 0.518,-0.25934 0.22,-0.37896 0.446,-0.13972 0.251,0.29151 0.987,0.29352 0.606,-0.0844 0.266,-0.0885 -0.096,-0.43525 0.641,0.1156 0.492,0.21008 0.515,0.42018 0.334,0.0834 0.608,-0.18899 z"
                fill="white"
                stroke="black"
                title="Algeria"
                id="DZ" />
        </svg>