<?xml version="1.0" encoding="UTF-8" standalone="no"?>
        <svg xmlns="http://www.w3.org/2000/svg">
            <path
                d="m 142.009,163.84862 -0.055,0.14575 -0.043,0.2121 0.052,0.15882 0.112,0.2131 0.162,0.18597 0.124,0.11056 0.147,0.27442 0.148,0.34378 0.194,0.26738 0.569,0.61317 0.063,0.22013 0.079,0.21813 0.358,0.41916 0.056,0.13973 -0.024,0.28446 0.368,0.85643 0.242,0.50059 0.205,0.0925 0.655,0.53376 0.572,0.43023 0.669,0.2905 0.491,0.19098 0.243,0.13972 0.122,0.13369 0.098,0.25734 0.051,0.44831 0.017,0.2895 0.528,-0.0111 0.437,0.0262 0.153,0.0583 0.057,0.0824 -0.013,0.19099 0.006,0.28547 0.02,0.23019 -0.045,0.24527 -0.031,0.28949 -0.021,0.35987 0.067,0.13972 0.423,0.45334 0.177,0.29351 0.189,0.44531 0.11,0.14273 0.089,0.0573 0.382,0.0482 0.983,0.18696 0.606,0.17088 0.481,0.17592 0.201,0.0462 0.097,0.0472 0.033,0.0432 -0.06,0.38801 0.021,0.12565 0.054,0.11258 0.082,0.0885 0.099,0.0542 0.365,0.0422 0.22,0.23623 0.138,0.10956 -0.659,0.0593 -0.327,0.19701 -0.189,0.35383 -0.298,0.26034 -0.405,0.16587 -0.428,0.11358 -0.452,0.0623 -0.482,0.30458 -0.511,0.54783 -0.261,0.34477 -0.011,0.14274 -0.114,0.12264 -0.219,0.10353 -0.124,0.12565 -0.028,0.14576 -0.117,0.0693 -0.204,-0.006 -0.144,0.10756 -0.083,0.21913 -0.18,0.13369 -0.28,0.0472 -0.241,0.12364 -0.203,0.20104 -0.155,0.10253 -0.11,0.003 -0.171,0.16385 -0.277,0.38801 -0.046,0.17993 -0.38,1.46557 -0.208,0.17389 -0.402,0.30257 -0.326,0.36287 -0.14,0.21411 -0.153,0.0955 -0.748,0.17893 -0.277,0.0955 -0.337,0.13872 -0.084,0.12464 -0.083,0.45636 -0.232,0.65337 -0.188,0.4835 -0.122,0.42118 -0.212,0.5237 -0.184,0.17591 -0.209,0.16083 -0.274,0.0794 -0.373,0.0502 -0.339,-0.0141 -0.262,0.007 -0.364,0.18496 -0.34,0.0131 -0.54,-0.10755 -0.437,-0.10354 -0.195,-0.0211 -0.386,-0.34277 -0.248,0.006 -0.379,-0.0272 -0.213,-0.0784 -0.197,-0.1749 -0.429,-0.34378 -0.419,-0.27843 -0.371,-0.16486 -0.346,-0.0764 -0.329,0.0683 -0.256,0.0734 -0.099,0.0362 -0.199,0.14375 -0.203,0.27241 -0.169,0.42619 -0.064,0.26136 -0.188,0.55586 -0.249,0.66745 -0.119,0.19199 -0.138,0.14274 -0.218,0.12665 -0.711,0.53175 -0.356,0.6001 -0.224,0.1749 -0.27,0.0814 -0.229,0.0512 -0.126,0.10052 -0.141,0.30357 -0.122,0.10755 -0.135,0.0412 -0.407,-0.0362 -0.13,-0.0312 -1.078,0.0593 -0.329,-0.0955 -0.233,-0.0391 -0.367,0.12666 -0.154,-0.0834 -0.123,-0.25231 -0.06,-0.50661 0.019,-0.43023 0.2,-0.32468 0.166,-0.23722 0.163,-0.31061 0.021,-0.13871 -0.033,-0.12465 -0.032,-0.25431 -0.018,-0.26135 -0.231,-0.56894 -0.284,-0.75289 -0.383,-0.83733 -0.119,-0.23019 -0.24,-0.36287 -0.888,-0.68956 -0.136,-0.0935 0,-0.0764 0,-0.66745 -10e-4,-0.88256 -0.001,-0.88155 -0.001,-0.87854 -10e-4,-0.87753 -0.001,-0.87452 -0.001,-0.87351 0,-0.87151 -10e-4,-0.86949 -0.001,-0.73379 0.64,0 0.791,0 0.941,0 0.416,0 0.024,-0.1156 0,-0.53777 -0.002,-1.23036 -0.002,-1.22734 -0.002,-1.22332 -0.001,-1.2203 -0.002,-1.21629 -0.002,-1.21427 -0.002,-1.21025 -10e-4,-1.20925 -0.001,-0.59508 0.726,-0.0362 0.833,-0.12163 1.352,-0.19702 1.259,-0.24527 0.822,-0.14273 0.974,-0.16988 0.335,-0.0292 0.091,0.0231 0.132,0.0583 0.452,0.6011 0.282,0.45837 0.057,0.19702 0.054,0.0211 0.133,-0.0322 0.15,-0.0734 0.459,-0.45737 0.096,-0.11962 0.293,-0.22114 0.355,-0.22617 0.322,-0.15982 0.323,-0.13269 0.149,0.0331 0.176,0.1146 0.156,0.0714 0.734,-0.55386 0.328,-0.12766 0.862,-0.0995 z"
                fill="white"
                stroke="black"
                title="Botswana"
                id="BW" />
        </svg>