<?xml version="1.0" encoding="UTF-8" standalone="no"?>
        <svg xmlns="http://www.w3.org/2000/svg">
            <path
                d="m 114.565,92.01049 -0.283,0.46843 -0.374,0.26738 -0.11,0.16183 -0.059,0.20104 -0.08,0.20204 -0.199,0.43324 -0.145,0.35383 -0.145,0.11057 -0.34,0.53476 -0.228,0.53678 -0.046,0.13872 -0.07,0.10253 -0.111,0.0834 -0.393,0.16685 -0.133,0.0824 -0.105,0.0995 -0.096,0.11258 -0.027,0.1357 0.092,0.19099 0.11,0.15178 0.111,0.009 0.097,-0.007 0.061,0.0905 0.051,0.0533 0,1.04137 -0.094,0.15682 0.002,0.0703 -0.046,0.17893 -0.014,0.20003 0.03,0.0794 0.079,0.0653 0.109,0.13972 0.059,0.31966 0.133,1.12381 0.062,0.17791 0.11,0.12465 0.346,0.24224 0.363,0.31865 0.115,0.20707 0.066,0.33976 0.139,0.26637 -0.003,0.0905 -0.057,0.0352 -0.135,0.004 -0.091,0.0191 0.076,0.19401 0.187,0.33774 0.312,0.35081 0.338,0.37896 0.275,0.3096 0.344,0.35785 0.268,0.27944 0.277,0.28749 0.209,0.0683 0.155,0.0201 0.067,0.0563 0.082,0.13168 0.141,0.14675 0.156,0.19099 0.053,0.194 -0.065,0.18596 0.064,0.26638 0.004,0.0231 0.051,0.10454 -0.018,0.0935 0.032,0.35283 0.082,0.30758 0.133,0.26236 -0.002,0.0221 -0.017,0.16083 -0.171,0.10354 -0.1,0.17189 -0.029,0.23823 0.051,0.2905 0.132,0.34277 0.003,0.20103 -0.046,0.0282 -0.082,0.0643 -0.087,0.0423 -0.236,-0.23522 -0.263,-0.15881 -0.393,-0.27543 -0.397,-0.0995 -0.512,-0.0181 -0.221,0.0342 -0.158,-0.10353 -0.222,-0.12063 -0.122,-0.0302 -0.17,0.0925 -0.117,0.004 -0.144,-0.0352 -0.292,0.004 -0.027,-0.16084 -0.05,-0.0302 -0.315,0.0141 -0.097,-0.13268 -0.042,0.0151 -0.124,-0.0412 -0.253,-0.18898 -0.266,0.12465 -0.553,-0.0161 -0.709,0.004 -0.734,0.005 -0.672,-0.006 -0.673,-0.006 -0.067,-0.17591 -0.139,-0.0905 -0.251,-0.008 -0.739,0.0352 -0.566,-0.0282 -0.181,-0.0232 -0.201,-0.0452 -0.472,-0.0412 -0.584,0.0332 -0.133,-0.009 -0.467,0.006 -1.068,-0.0472 -0.591,0.007 0.014,0.10755 -0.038,0.0764 -0.031,0.18697 -0.652,-0.001 -0.858,0 -0.81,0 -0.548,0 -0.918,0 -0.308,-0.12766 -0.093,-0.0824 -0.019,-0.0925 -0.011,-0.0623 -0.072,-0.0181 0.059,-0.6594 0.129,-0.54884 0.05,-0.50963 0.177,-0.45535 -0.094,-0.45134 -0.109,-0.19701 -0.573,-0.63931 0.263,-0.24124 -0.346,0.0331 -0.074,-0.23823 -0.168,-0.28447 0.103,-0.0462 0.099,-0.1558 0.313,0.0472 -0.01,-0.0764 -0.27,-0.23923 0.026,-0.12063 0.111,-0.13469 -0.054,-0.0573 -0.194,0.14073 -0.14,-0.005 -0.108,-0.0905 -0.08,-0.0151 0.048,0.18294 -0.109,0.16385 -0.103,0.0573 -0.176,-0.0101 -0.144,-0.0412 -0.039,-0.0915 -0.135,-0.0694 -0.38,-0.12162 -0.319,-0.14275 -0.064,-0.39 -0.127,-0.16788 -0.052,-0.18998 -0.03,-0.21712 0.044,-0.33372 -0.082,-0.0532 -0.092,-0.0181 -0.138,0.0161 -0.127,-0.0181 -0.152,-0.18496 -0.133,-0.0714 0.082,0.33975 -0.094,0.0955 -0.229,-0.0272 -0.098,-0.12866 -0.019,-0.0965 0.105,-0.41012 -0.041,-0.009 0.082,-0.21813 0.156,-0.26536 0.211,-0.33674 0.239,-0.42419 0.164,-0.74887 0.111,-0.46742 0.101,-0.4262 0.175,-0.38499 0.177,-0.25733 0.501,-0.49858 0.378,-0.37694 0.193,-0.15178 0.134,-0.12767 0.236,-0.14575 0.241,-0.1739 0.185,-0.33272 0.151,-0.3106 0.115,-0.0673 0.151,-0.0542 0.462,-0.33373 0.293,-0.21209 0.068,0.10555 0.05,0.13067 0.056,0.0603 0.246,0.0412 0.337,-0.002 0.194,-0.0381 0.103,-0.11057 0.105,-0.30256 0.061,-0.0573 0.079,-0.0151 0.368,0.21109 0.306,0.30055 0.302,0.29755 0.153,0.10554 0.067,0.1166 0.132,0.5418 0.076,0.13469 0.131,0.0563 0.236,-0.0362 0.245,-0.0955 0.216,-0.13871 0.213,-0.17994 0.145,-0.16183 0.063,-0.11961 0.032,-0.4433 0.048,-0.0975 0.217,-0.17693 0.364,-0.29552 0.208,-0.16988 -0.018,-0.0603 -0.13,-0.18093 -0.115,-0.19904 0.117,-0.20505 0.121,-0.15782 0.459,-0.53376 0.002,-0.17691 0.024,-0.2141 0.367,-0.60714 0.211,-0.80617 0.006,-0.1558 0.219,-0.38901 0.259,-0.49858 0.503,-0.0804 0.193,-0.12465 0.223,-0.22013 0.144,-0.20507 0.068,-0.19499 0.05,-0.37696 0.089,-0.42921 0.055,-0.37696 0.151,-0.3488 0.252,-0.1759 0.438,-0.14676 0.066,-0.0683 0.063,-0.2312 0.049,-0.48048 0.014,-0.2895 0.017,-0.12565 0.056,-0.21712 0.406,-0.38499 0.18,-0.60311 0.16,-0.63227 0.461,-0.76495 0.54,-0.76194 0.25,-0.20506 0.211,-0.0945 0.244,-0.0101 0.166,-0.0563 0.581,-0.37996 0.243,-0.12866 0.179,-0.13168 0.043,-0.1156 0.018,-0.16787 -0.056,-0.39404 0.1,-0.28848 0.059,-0.44932 0.024,-0.34981 -0.021,-0.12163 -0.091,-0.16787 -0.017,-0.0362 -0.174,-0.21813 -0.291,-0.13168 -0.4,-0.0362 -0.212,-0.0774 -0.035,-0.18295 -0.02,-0.10554 -0.021,-0.11459 -0.029,-0.25431 -0.269,-1.33993 0.508,0.004 0.608,0.15983 0.153,0.12062 0.081,0.45837 0.22,0.26034 0.387,0.21311 0.241,0.44128 0.094,0.66744 0.213,0.39907 0.049,0.0633 0.241,0.57597 0.06,0.17692 0.018,0.3468 -0.027,0.2342 0.123,0.2895 -0.186,0.49455 -0.056,0.30257 -0.016,0.42519 0.109,0.74987 0.178,0.578 0.193,0.4674 0.211,0.36288 0.347,0.40007 0.371,0.36489 0.345,0.23018 -0.32,0.1347 -0.62,0.0171 -0.356,-0.0774 -0.17,-0.004 -0.171,0.0482 -0.662,0.0693 -0.668,-0.0322 -0.619,-0.0915 -0.376,0.0151 -0.29,0.22214 -0.236,0.33373 -0.22,0.26436 0.077,0.29251 0.166,0.16184 0.32,0.35584 0.286,0.34478 0.147,0.2312 0.572,0.50661 0.552,0.45234 0.108,0.0754 0.155,0.0814 0.096,0.0332 0.301,0.25935 0.416,0.4252 0.382,0.66543 0.271,0.67549 0.264,0.65639 0.116,0.11058 0.184,0.0703 0.022,0.14072 -0.014,0.20808 -0.057,0.16988 z"
                fill="white"
                stroke="black"
                title="Cameroon"
                id="CM" />
        </svg>