<?xml version="1.0" encoding="UTF-8" standalone="no"?>
        <svg xmlns="http://www.w3.org/2000/svg">
            <path
                d="M 0.482,64.9507 0.209,65.011 0.093,64.9818 0.055,64.7486 0,64.5948 0.013,64.5265 0.64,64.22595 l 0.221,0.0502 0.154,0.24024 -0.105,0.13268 -0.428,0.30156 z m 0.793,0.37594 -0.23,0.0703 -0.143,-0.009 -0.205,-0.10353 0.064,-0.11158 0.222,-0.12465 0.153,-0.0262 0.125,0.22215 0.014,0.0824 z m 5.61,0.46641 -0.09,0.14978 -0.11,-0.22014 -0.06,-0.0522 -0.029,-0.31563 0.163,-0.0945 0.079,-0.008 0.002,0.32669 0.045,0.2141 z m -3.366,0.10655 0.116,0.0855 0.038,0.0623 -0.172,0.0322 -0.418,-0.11258 -0.111,0.0684 -0.111,0.24225 -0.213,-0.3669 0.015,-0.1347 0.045,-0.0392 0.296,0.0965 0.515,0.0663 z m 3.283,1.12582 0.234,0.0532 0.089,-0.0191 0.149,0.0121 0.16,0.15278 0.03,0.16285 L 7.385,67.5913 7.075,67.75917 6.896,67.73907 6.685,67.58628 6.806,67.28472 6.802,67.02538 Z M 5.324,70.60391 5.155,70.87028 4.783,70.84918 4.592,70.73961 4.368,70.40489 4.375,70.14555 4.454,69.92038 4.44,69.72537 l 0.032,-0.0512 0.115,0.0342 0.019,0.13167 0.338,0.32167 0.125,0.0623 0.255,0.37997 z m 0.736,-0.37394 -0.078,0.0111 -0.117,-0.13067 0.026,-0.18094 -0.013,-0.0472 0.104,-0.193 0.204,0.0171 0.052,0.14374 0.01,0.29553 -0.188,0.0844 z M 2.9,71.04418 2.682,71.15476 2.529,71.10656 2.384,70.99197 2.314,70.82611 2.371,70.68338 2.665,70.51551 2.841,70.56971 2.935,70.83107 2.9,71.04416 Z"
                fill="white"
                stroke="black"
                title="Cape Verde"
                id="CV" />
        </svg>