<?xml version="1.0" encoding="UTF-8" standalone="no"?>
        <svg xmlns="http://www.w3.org/2000/svg">
            <path
                d="m 138.421,57.4218 0.001,1.32485 0.001,1.32183 0.001,1.3178 0.001,1.3148 10e-4,1.31178 0.001,1.30775 0.001,1.30475 0.001,1.30272 0.001,0.43023 -0.036,0.17088 -0.015,0.0242 -0.055,0.0292 -0.667,-0.12062 -0.292,-0.003 -0.41,0.0925 -0.602,0.0492 -0.388,-0.0151 -0.27,0.22315 -0.211,0.26939 0.1,0.64534 -0.023,0.21209 -0.081,0.22115 -0.183,0.18998 -0.183,0.15178 -0.109,0.13268 -0.135,0.29152 -0.101,0.13569 0.009,0.18295 -0.032,0.19099 -0.11,0.10052 -0.279,0.0724 -0.181,0.0855 -0.145,0.13972 -0.097,0.10052 0.051,0.13369 0.071,0.18295 0.04,0.28648 0.028,0.16787 0.138,0.1367 0.084,0.0975 0.029,0.11961 -0.08,0.0995 -0.342,0.20708 -0.137,0.0774 -0.157,0.10554 -0.06,0.0392 -0.25,0.19702 -0.126,0.17491 -0.061,0.14474 0.003,0.20104 0.127,0.29955 0.139,0.25432 0.053,0.19199 0.032,0.21008 -0.012,0.19903 -0.072,0.1739 -0.125,0.1558 -0.471,0.29452 -0.231,0.32167 -0.186,0.39202 -0.046,0.2131 0.05,0.14274 0.099,0.11962 0.139,0.0613 0.204,0.0181 0.338,-0.0653 0.315,-0.0432 0.334,0.14072 0.174,0.32769 -0.067,0.23924 0.126,0.43424 0.112,0.52371 -0.008,0.17591 0.049,0.0663 0.209,0.0342 0.047,0.12263 -0.069,0.91774 0.097,0.25632 0.14,0.18296 0.158,0.0955 0.16,0.12264 0.082,0.0845 0.184,0.0201 0.207,0.16686 0.056,0.22215 -0.014,0.21511 -0.12,0.4644 -0.098,0.31262 -0.12,-0.0211 -0.244,-0.0774 -0.298,-0.0663 -0.366,-0.0532 -0.348,0.12765 -0.376,0.16385 -0.118,0.12163 -0.105,0.0724 -0.166,-0.0121 -0.152,0.0211 -0.082,0.11661 -0.138,0.12966 -0.542,0.26739 -0.114,0.0975 -0.068,0.0965 0,0.10554 0.055,0.21713 -0.001,0.27039 -0.121,0.21914 -0.14,0.14676 -0.161,0.0563 -0.133,0.0312 -0.088,0.0905 -0.283,0.49657 -0.122,0.0915 -0.249,-0.0151 -0.714,0.74284 -0.071,0.21913 -0.261,0.3106 -0.33,0.34479 -0.295,0.16686 -0.024,0.0643 -0.079,0.0653 -0.182,0.0744 -0.63,0.42018 -0.757,-0.0171 -0.334,0.16485 -0.325,0.0724 -0.476,0.0814 -0.142,-0.008 -0.61,0.0342 -0.715,-0.0121 -0.274,0.0593 -0.257,0.15882 -0.191,0.13973 -0.027,0.0472 0.028,0.0583 -0.007,0.0462 0.5,0.34277 0.125,0.16786 -0.126,0.16285 -0.06,0.0241 -0.007,0.0101 -0.082,0.12866 -0.293,0.38599 -0.446,0.45636 -0.228,0.13067 -0.091,0.0855 -0.119,0.30257 -0.076,0.0422 -0.307,0.0392 -0.606,0.0331 -0.839,0.0985 -0.503,0.0331 -0.313,-0.0282 -0.44,0.20908 -0.157,0.0532 -0.096,0.0181 -0.436,0.20204 -0.362,0.31462 -0.129,0.0593 -0.51,0.13369 -0.203,0.21611 -0.093,0.0181 -0.327,-0.28547 -0.223,-0.25834 -0.109,-0.26235 -0.013,-0.0834 -0.062,0.0151 -0.179,0.11661 -0.155,0.13168 -0.071,0.25129 -0.527,0.16888 -0.451,0.14575 -0.205,0.18294 -0.316,0.0905 -0.403,-0.0371 -0.314,-0.0744 -0.307,-0.0252 0.147,-0.22817 0.057,-0.16989 0.014,-0.20807 -0.022,-0.14072 -0.184,-0.0703 -0.116,-0.11058 -0.264,-0.65639 -0.271,-0.67549 -0.382,-0.66543 -0.416,-0.4252 -0.301,-0.25935 -0.096,-0.0332 -0.155,-0.0814 -0.108,-0.0754 -0.552,-0.45234 -0.572,-0.50661 -0.147,-0.2312 -0.286,-0.34478 -0.32,-0.35584 -0.166,-0.16184 -0.077,-0.29251 0.22,-0.26436 0.236,-0.33373 0.29,-0.22214 0.376,-0.0151 0.619,0.0915 0.668,0.0322 0.662,-0.0693 0.171,-0.0482 0.17,0.004 0.356,0.0774 0.62,-0.0171 0.32,-0.13469 -0.345,-0.23018 -0.371,-0.36489 -0.347,-0.40007 -0.211,-0.36288 -0.193,-0.4674 -0.178,-0.578 -0.109,-0.74987 0.016,-0.42519 0.056,-0.30257 0.186,-0.49455 -0.123,-0.2895 0.027,-0.2342 -0.018,-0.3468 -0.06,-0.17692 -0.241,-0.57597 -0.049,-0.0633 -0.213,-0.39907 -0.094,-0.66744 -0.241,-0.44128 -0.387,-0.21311 -0.22,-0.26034 -0.081,-0.45837 -0.153,-0.12062 -0.608,-0.15983 -0.508,-0.004 -0.369,-0.51767 -0.474,-0.66644 -0.441,-0.6192 -0.282,-1.24242 -0.162,-0.71168 0.183,-0.21611 0.362,-0.50763 0.462,-0.97303 1.041,-1.50678 0.533,-0.77299 1.063,-1.15597 1.306,-1.42336 0.736,-0.80415 0.119,-1.46759 0.126,-1.55603 0.095,-1.1791 0.118,-1.40224 0.1,-1.17406 0.072,-0.85743 0.102,-1.21729 0.087,-0.23422 0.513,-0.95794 0.04,-0.12866 -0.095,-0.16084 -0.732,-0.81621 -0.228,-0.18195 -0.132,-0.42519 0.188,-0.23823 -0.88,-1.3751 -0.218,-0.16888 -0.096,-0.16787 -0.011,-0.24928 -0.016,-0.95493 -0.234,-1.50277 -0.308,-1.75707 1.034,-0.5016 0.785,-0.38197 1.002,-0.48752 0.928,0.49958 1.345,0.72173 1.345,0.71972 1.344,0.71972 1.345,0.71871 1.344,0.71671 1.345,0.71468 1.344,0.7147 1.345,0.71368 1.344,0.71168 1.345,0.71067 1.344,0.70967 1.345,0.70866 1.344,0.70766 1.345,0.70664 1.344,0.70464 z"
                fill="white"
                stroke="black"
                title="Chad"
                id="TD" />
        </svg>