<?xml version="1.0" encoding="UTF-8" standalone="no"?>
        <svg xmlns="http://www.w3.org/2000/svg">
            <path
                d="m 193.107,146.75029 -0.053,0.0382 -0.256,-0.16383 -0.146,-0.0382 -0.215,-0.26436 0.083,-0.91473 0.069,-0.11761 0.052,-0.0472 0.119,-0.0171 0.145,0.11459 -0.038,0.58804 0.191,0.39604 0.123,0.31464 -0.074,0.11157 z m 2.836,0.51667 0.141,0.39604 -0.001,0.29855 -0.06,0.0945 -0.126,-0.0623 -0.232,-0.23724 -0.441,-0.23119 0.203,-0.0191 0.118,0.0231 0.125,-0.0211 0.078,-0.13067 0.016,-0.0774 0.11,-0.0623 0.069,0.0292 z m -1.93,0.64634 0.197,0.1759 -0.548,-0.0724 -0.086,-0.15883 -0.004,-0.1166 0.205,0.0252 0.236,0.14676 z"
                fill="white"
                stroke="black"
                title="Comoros"
                id="KM" />
        </svg>