<?xml version="1.0" encoding="UTF-8" standalone="no"?>
        <svg xmlns="http://www.w3.org/2000/svg">
            <path
                d="m 55.619,83.77495 0.175,0.18897 0.222,0.12968 0.337,-0.0161 0.244,0.0774 0.211,0.14575 0.142,0.32266 0.155,0.2322 0.067,0.33171 0.245,0.17391 0.192,0.0794 0.26,0.24024 0.269,0.12263 0.278,-0.0282 0.13,0.12565 0.208,0.0885 0.208,0.006 0.183,-0.27743 0.242,-0.10957 0.611,-0.22114 0.241,-0.10051 0.244,-0.0633 0.588,-0.0201 0.547,0.0683 0.271,0.0512 0.186,-0.0382 0.176,0.13168 0.182,0.27643 0.149,0.0885 0.152,0.0955 0.113,0.21812 0.132,0.21612 0.072,0.0955 0.164,0.21309 0.141,0.003 0.139,-0.0925 0.06,-0.0683 0.027,0.14073 -0.055,0.22818 0.011,0.14173 0.077,0.0542 -0.042,0.18194 -0.161,0.3096 -10e-4,0.18295 0.16,0.0573 0.114,0.194 0.068,0.33171 0.069,0.11058 0.007,0.0683 0.116,0.80315 0.143,0.80516 -0.091,0.10454 -0.125,0.0312 -0.081,0.0371 -0.023,0.0754 0.053,0.10956 -0.035,0.10052 -0.156,0.0694 -0.339,0.25532 -0.023,0.10153 -0.09,0.21712 -0.075,0.13268 -0.111,0.24627 -0.176,0.65137 -0.065,0.53979 -0.01,0.16686 -0.068,0.1156 -0.077,0.16786 -0.368,0.46139 -0.188,0.37695 0.024,0.16385 0.009,0.16485 -0.056,0.11861 0.01,0.31864 0.045,0.26639 0.066,0.26134 0.267,0.73982 0.139,0.44932 0.086,0.36188 0.076,0.24325 0.071,0.0985 0.029,0.0935 0.396,0.0673 0.078,0.0533 0.108,0.47143 -0.02,0.2131 -0.078,0.0814 0.002,0.17994 -0.018,0.22415 -0.058,0.0885 -0.222,0.0111 -0.151,0.0844 -0.198,-0.0342 -0.019,-0.0553 -0.107,-0.0201 -0.294,-0.12765 0.048,-0.40912 -0.136,-0.0171 -0.105,0.0542 -0.209,0.49053 -0.1,0.0844 -1.468,-0.2533 -0.319,-0.20406 -0.382,-0.0462 -0.666,0.0231 -0.549,0.0613 -0.157,0.12364 1.386,-0.0724 0.149,0.0141 0.07,0.0744 -1.752,0.16183 -0.668,0.0965 -0.198,-0.0262 -0.15,-0.15682 -0.726,-0.0191 -0.149,0.0512 -0.09,0.1156 0.286,-0.0252 0.451,-0.006 0.121,0.0885 -1.412,0.11559 -0.979,0.22115 -0.415,0.16385 -1.366,0.53777 -0.833,0.25331 -0.218,0.0935 -0.379,0.26336 -0.487,0.16586 -0.546,0.3096 -0.333,0.0694 -0.075,-0.0985 -0.009,-0.52271 -0.046,-0.70061 0.017,-0.2684 0.044,-0.2523 10e-4,-0.20908 0.166,-0.0784 0.044,-0.0875 0.025,-0.2724 0.155,-0.24828 0.003,-0.43224 0.046,-0.0895 0.035,-0.11459 -0.066,-0.28347 -0.086,-0.53475 -0.042,-0.0352 -0.038,0.0231 -0.087,0.0101 -0.343,-0.18495 -0.265,-0.0322 -0.186,-0.15782 -0.013,-0.17993 -0.09,-0.10554 -0.063,-0.20807 -0.093,-0.23823 -0.261,-0.14476 -0.245,-0.0351 -0.174,0.0312 -0.204,-0.009 -0.234,-0.0804 -0.162,-0.0905 -0.153,-0.1749 -0.142,-0.13871 -0.113,0.0171 -0.138,-0.0332 -0.136,-0.0633 -0.044,-0.0492 0.568,-0.55688 0.193,-0.27241 0.021,-0.16685 0.002,-0.16787 0.062,-0.17189 0.016,-0.26235 -0.314,-0.95494 -0.08,-0.29553 -0.084,-0.0865 -0.054,-0.0332 0.159,-0.12264 0.219,0.0322 0.336,0.0955 0.073,-0.0945 0.254,-0.48248 -0.007,-0.17893 -0.025,-0.12364 0.149,-0.33071 0.118,-0.12766 0.061,-0.13771 -0.019,-0.18898 -0.089,-0.0703 -0.118,0.0131 -0.141,-0.0462 -0.215,-0.10856 -0.109,-0.0965 0.034,-0.43726 0.02,-0.1357 0.076,-0.0784 0.118,-0.0211 0.333,-0.0131 0.27,0.0502 0.237,0.0292 0.126,0 0.102,0.12966 0.136,0.13269 0.12,-0.001 0.042,-0.0985 -0.028,-0.43123 -0.08,-0.22818 -0.181,-0.22013 -0.468,-0.18798 -0.011,-0.26235 0.047,-0.28447 0.101,-0.10555 0.348,-0.18093 -0.061,-0.0975 -0.111,-0.10353 -0.221,-0.10454 0.051,-0.34076 0.011,-0.30458 -0.187,0.0342 -0.192,0.0181 -0.162,-0.0935 -0.136,-0.18496 -0.025,-0.50863 0,-0.58804 -0.026,-0.26034 0.052,-0.13872 0.165,-0.12766 0.18,-0.16585 0.064,-0.10555 0.083,-0.002 0.216,-0.0633 0.196,-0.14475 0.183,-0.30156 0.247,-0.24224 0.278,0.0181 0.082,-0.0442 0.098,-0.008 0.116,0.15982 0.117,0.12163 0.083,0.003 0.062,0.2302 0.507,0.0965 0.217,0.0633 0.183,0.16787 0.064,0.004 0.077,-0.0352 0.06,-0.0583 0.012,-0.0643 -0.079,-0.15077 0.035,-0.13571 0.082,-0.12162 0.131,-0.008 0.197,-0.0342 0.226,0 0.168,0.0222 0.067,-0.12163 -0.064,-0.34177 0.017,-0.18897 0.027,-0.15882 0.063,-0.0643 0.251,0.20004 0.23,0.0724 0.165,0.006 0.046,-0.0383 -0.07,-0.21811 0.019,-0.0653 0.061,-0.0382 0.108,-0.0222 0.293,-0.0885 0.03,0.0171 0.055,0.34378 -0.025,0.11258 0.062,0.23321 0.076,0.21611 -0.006,0.0885 -0.063,0.13369 -0.074,0.12264 0.008,0.0502 0.117,0.0834 0.224,0.0865 0.232,0.0201 0.129,-0.12565 0.134,-0.10253 0.093,-0.0915 0.032,-0.13571 0.147,-0.0995 0.42,-0.12465 0.386,-0.0191 0.096,0.0392 z m 6.839,14.99045 -0.077,0.11157 -0.372,-0.0714 0.088,-0.0935 0.361,0.0533 z"
                fill="white"
                stroke="black"
                title="Côte d'Ivoire"
                id="CI" />
        </svg>