<?xml version="1.0" encoding="UTF-8" standalone="no"?>
        <svg xmlns="http://www.w3.org/2000/svg">
            <path
                d="m 148.027,98.81867 0.102,0.19701 0.145,0.20205 0.486,0.34176 0.154,0.18999 0.119,0.21108 0.075,0.16486 0.15,0.13168 0.21,0.0844 0.18,0.10052 0.11,0.14777 0.165,0.15379 0.318,0.20908 0.155,0.005 0.179,0.0292 0.158,0.0553 0.169,-0.0161 0.273,-0.13671 0.322,-0.22918 0.246,-0.14173 0.595,0.0502 0.332,0.1156 0.264,0.16183 0.206,-0.0101 0.449,-0.29955 0.238,-0.31864 0.231,-0.0683 0.35,0.13872 0.289,0.29754 0.254,0.43223 0.179,0.16485 0.245,0.25532 0.487,0.54984 0.634,0.27543 0.246,0.13569 0.08,0.13571 0.047,0.18093 0.016,0.19601 0.077,0.0814 0.171,-0.0282 0.146,-0.0282 0.161,0.0563 0.112,0.14273 0.056,0.11158 0.061,0.11961 0.159,0.0764 0.031,0.1538 -0.109,0.18696 -0.112,0.16787 -0.136,0.33373 -0.071,0.34176 0.092,0.11359 0.097,0.0945 0.052,0.0955 0.031,0.11158 -0.012,0.13068 -0.216,0.47445 -0.111,0.41414 -0.004,0.21008 0.285,0.1548 0.37,-0.008 0.117,0.0945 0.117,0.15078 0.103,0.0774 0.156,-0.002 0.108,0.0522 0.043,0.10655 0.126,0.11459 0.106,0.12665 -0.051,0.16184 -0.009,0.12364 -0.264,0.34378 -0.606,0.67046 -1.304,1.24343 -0.001,10e-4 -0.44,0.14977 -0.227,0.23119 -0.161,0.36288 -0.38,0.30759 -0.293,0.12465 -0.031,0.0734 -0.023,0.33373 0.03,0.48953 -0.137,0.22416 -0.199,0.43625 -0.103,0.2724 -0.08,0.0532 -0.089,0.13671 -0.056,0.44429 -0.038,0.14978 -0.143,0.91974 0.041,0.26236 -0.111,0.43726 -0.005,0.25733 -0.046,0.29151 -0.079,0.2523 0.005,0.40409 0.045,0.6594 -0.008,0.0875 -0.11,0.0613 -0.196,0.16385 -0.185,0.10957 -0.141,0.0282 -0.235,0.2915 -0.2,0.27644 -0.15,0.26939 -0.039,0.12364 0.031,0.3488 0.021,0.41313 -0.046,0.17792 -0.07,0.10555 -0.328,0.22416 -0.216,0.16082 -0.102,0.0844 -0.053,0.12967 0.095,0.30558 0.007,0.22315 0.078,0.13168 0.26,0.10655 -0.001,0.10756 0.007,0.1156 0.136,0.14374 0.248,0.29351 0.199,0.27543 0.005,0.23924 -0.038,0.40006 -0.007,0.23019 0.02,0.31563 -0.001,0.58704 -0.014,0.41816 0.032,0.21712 0.304,0.51767 0.134,0.57397 0.067,0.42016 0.003,0.1337 -0.103,0.4835 -0.117,0.46942 -0.007,0.17792 0.055,0.23722 0.217,0.54281 0.158,0.39504 0.076,0.23823 0.109,0.27744 0.145,0.42519 0.036,0.20205 -0.03,0.15077 -0.296,0.53376 -0.03,0.16787 0.073,0.41414 0.097,0.40006 0.14,0.22718 0.334,0.62724 0.249,0.2121 0.459,0.31361 0.405,0.31563 0.156,0.16385 0.143,0.18295 0.282,0.46841 0.172,0.38097 0.091,0.34478 0.221,0.47145 0.206,0.43725 0.266,0.53476 0.188,0.37795 0.085,0.25231 -0.486,0.0754 -0.703,0.10755 -0.775,0.11962 -0.8,0.12264 -0.793,0.12263 -0.752,0.1156 -0.683,0.10453 -0.208,0.0583 0.102,0.29753 -0.047,0.31262 -0.135,0.24225 -0.214,0.29753 -0.097,0.11862 -0.218,0.2322 -0.182,0.16385 -0.371,0.27542 -0.234,0.15782 -0.002,0.14273 0.394,0.66745 0.179,0.47947 0.073,0.43324 -0.004,0.24929 -0.015,0.51265 -0.018,0.61015 -0.027,0.24024 0.107,0.43525 -0.019,0.33976 -0.265,0.37996 -0.074,0.37293 -0.134,0.5036 -0.185,0.69961 -0.132,0.36791 0.073,0.23923 0.066,0.16083 0.07,0.21611 0.142,0.32569 0.166,0.19199 0.093,0.0824 0.546,0.41112 0.227,0.19802 0.346,0.39404 0.256,0.26135 0.356,0.0613 0.427,0.0985 0.236,0.0764 0.162,-0.0371 0.055,-0.0925 -0.008,-0.19702 -0.028,-0.14474 0.045,-0.11158 0.145,-0.0734 0.371,-0.0121 0.161,-0.0985 0.128,-0.0242 0.001,0.43223 0,0.41415 10e-4,0.5036 0,0.57798 0.001,0.47446 0,0.50461 0.001,0.583 -0.003,0.0653 -0.057,0.13168 -0.147,0.0452 -0.199,-0.11358 -0.012,-0.11962 -0.049,-0.2141 -0.092,-0.10957 -0.121,-0.0342 -0.204,0.0552 -0.28,0.15782 -0.359,0.13872 -0.146,0.0794 -0.253,-0.0101 -0.274,-0.0754 -0.201,-0.17792 -0.058,-0.26638 -0.177,-0.2734 -0.24,-0.39605 -0.121,-0.16184 -0.16,-0.18496 -0.162,-0.0211 -0.181,-0.0512 -0.111,-0.27039 -0.104,-0.34177 -0.064,-0.13168 -0.108,-0.16988 -0.155,-0.10354 -0.338,-0.1367 -0.472,-0.18999 -0.594,-0.23923 -0.282,-0.0121 -0.316,-0.0402 -0.198,-0.11358 -0.113,-0.0905 -0.13,-0.33171 -0.178,-0.38801 -0.521,-0.46137 -0.117,-0.51064 -0.105,-0.0734 -0.179,0.0412 -0.138,0.0633 -0.055,0.13771 -0.139,0.46038 -0.077,0.21209 -0.052,0.0593 -0.114,0.0683 -0.186,0.0623 -0.265,0.0312 -0.374,-0.0121 -0.468,-0.0683 -0.252,-0.0512 -0.683,-0.0764 -0.198,-0.0372 -0.279,-0.10052 -0.201,-0.10052 -0.662,-0.21713 -0.301,0.0262 -0.145,-0.15379 -0.131,-0.0754 -0.18,-0.14475 -0.08,-0.19802 -0.107,-0.4252 0.026,-0.22717 0.077,-0.25331 -0.086,-0.0703 -0.12,0 -0.172,0.0875 -0.305,0.0492 -0.559,0.11158 -0.198,0.0623 -0.219,0.0482 -0.168,0.0432 -0.42,0.24426 -0.146,0.0262 -0.249,-0.0875 -0.12,-0.13068 0.12,-0.14776 0.051,-0.18395 -0.085,-0.35886 -0.129,-0.16585 -0.372,-0.11862 -0.143,-0.0111 -0.06,-0.20103 -0.103,-0.18296 -0.212,-0.0351 -0.102,-0.0211 -0.106,0.0563 -0.06,0.14777 -0.017,0.11358 -0.189,0.0865 -0.386,-0.0171 -0.383,-0.0824 -0.269,-0.0272 -0.179,0.0211 -0.684,0.28045 -0.225,0.0371 -0.734,-0.0211 -0.416,-0.0593 -0.296,-0.0101 -0.21,0.0875 -0.262,0.20807 -0.219,0.11158 -0.101,-0.0121 -0.062,-0.0875 -0.086,-0.11861 -0.027,-0.31362 -0.109,-0.34277 0.072,-0.17994 0.216,-0.12866 0.075,-0.26537 -0.067,-0.39806 -0.004,-0.27943 0.058,-0.16185 -0.078,-0.39202 -0.216,-0.62222 -0.305,-0.5056 -0.394,-0.39103 -0.258,-0.37293 -0.122,-0.35684 0.046,-0.8534 0.119,-0.75088 0.094,-0.59608 -0.027,-0.99816 -0.267,-0.64936 -0.058,-0.6976 0.151,-0.74585 0.022,-0.51064 -0.1,-0.26135 -0.068,-0.0392 -0.086,-0.0262 -0.675,-0.0252 -0.899,-0.0332 -0.784,-0.0101 -0.851,-0.0101 -0.139,-0.0945 -0.063,-0.17389 0.003,-0.17189 0.174,-0.52672 -0.025,-0.0432 -0.302,-0.0111 -0.82,0.0855 -0.541,0.0844 -0.343,0.0282 -0.603,0.14375 -0.373,0.30357 -0.122,0.38096 0.01,0.31463 -0.021,0.23019 -0.17,0.24024 -0.134,0.27642 -0.005,0.14576 -0.082,0.7358 -0.556,0.0985 -0.556,0 -0.13,-0.009 -0.687,-0.1759 -0.255,-10e-4 -0.218,0.0925 -0.421,0.0905 -0.402,0.0663 -0.405,0.21812 -0.108,0.0191 -0.269,-0.11358 -0.376,0.0111 -0.381,0.0542 -0.178,0.0242 -0.123,-0.0663 -0.35,-0.54884 -0.466,-0.73078 -0.253,-0.45837 -0.094,-0.11961 -0.162,-0.15782 -0.222,-0.29854 -0.092,-0.28347 0.039,-0.26838 -0.13,-0.36187 -0.299,-0.45536 -0.197,-0.43424 -0.094,-0.41514 -0.023,-0.35383 0.047,-0.29552 -0.057,-0.21713 -0.163,-0.13972 -0.088,-0.17792 -0.064,-0.0734 -0.135,-0.16787 -0.297,-0.18495 -0.326,-0.0975 -0.716,-0.002 -0.935,-0.003 -0.847,0.0141 -0.942,0.0161 -0.954,0.0161 -0.257,0.0242 -0.728,0.0111 -0.583,-0.0472 -0.216,-0.0302 -0.38,-0.0231 -0.6,-0.005 -0.325,0.0181 -0.778,0.001 -0.071,0.004 -0.123,0.0522 -0.332,-0.0724 -0.326,0.0242 -0.182,-0.0804 -0.4,0.0502 -0.194,0.0663 -0.311,0.23421 -0.467,0.12163 -0.173,-0.0101 -0.115,-0.0391 -0.271,-0.25733 -0.21,-0.24728 -0.075,-0.13771 0.117,-0.0342 0.367,-0.0522 0.276,-0.0252 0.054,-0.0653 0.042,-0.76394 0.01,-0.77501 -0.098,-0.10253 -0.096,-0.0623 -0.004,-0.0532 0.143,-0.0975 0.199,-0.11358 0.064,-0.0512 0.22,-0.20506 0.435,-0.47445 0.331,-0.1166 0.308,-0.12465 0.043,-0.0452 0.041,-0.0925 0.138,0.007 0.044,0.0442 0.068,0.10052 0.121,0.14073 0.219,0.16687 0.22,0.17992 0.11,0.0231 0.177,-0.0915 0.206,-0.1357 0.303,-0.0985 0.072,-0.0925 0.039,-0.19802 0.024,-0.21109 0.026,-0.24929 0.062,-0.0342 0.109,-0.0242 0.201,0.0704 0.092,0.0734 0.165,0 0.105,-0.0663 0.192,-0.12263 0.244,-0.0492 0.261,-0.11861 0.251,-0.15078 0.118,-0.0141 0.125,0.19802 0.112,0.13771 0.02,0.0865 -0.112,0.16485 -0.125,0.21713 0.105,0.27039 0.025,0.26236 -0.003,0.15882 0.085,0.0643 0.058,0.0302 0.09,-0.0371 0.179,0.0111 0.215,0.0824 0.207,-0.009 0.2,-0.10153 0.373,-0.39403 0.545,-0.68755 0.452,-0.43123 0.357,-0.17591 0.242,-0.20506 0.127,-0.23622 0.208,-0.15983 0.434,-0.12765 0.33,-0.14476 0.33,-0.47143 0.44,-0.84838 0.123,-0.75692 0.075,-0.46037 -0.043,-1.5872 -0.029,-0.52069 0.067,-0.28346 0.164,-0.19501 0.448,-0.41314 0.301,-0.33875 0.23,-0.39604 0.441,-0.90367 0.194,-0.2915 0.087,-0.13069 0.266,-0.24023 0.373,-0.2121 0.48,-0.18194 0.741,-0.62925 0.589,-0.63327 -0.08,-0.76093 0.138,-0.63126 0.321,-0.80214 0.105,-0.84939 -0.11,-0.89563 0.046,-0.73279 0.308,-0.85139 0.128,-0.31664 0.043,-0.51767 -0.002,-0.82326 0.391,-1.12582 0.37,-0.67548 0.414,-0.7539 0.158,-0.45636 0.21,-0.60914 -0.033,-0.48953 -0.038,-0.56292 0.104,-0.77399 -0.039,-0.45535 -0.147,-0.39605 0.075,-0.25029 0.297,-0.10152 0.37,-0.39605 0.664,-1.03434 0.716,-0.50461 0.498,-0.15983 0.519,0.0171 0.339,0.0905 0.156,0.16284 0.393,0.24427 0.628,0.32267 0.47,0.40409 0.26,0.40709 0.202,0.22115 0.25,0.0764 0.409,-0.0332 0.457,0.0955 0.476,0.22818 0.293,0.0844 0.108,-0.0593 0.23,0.0332 0.526,0.18697 0.419,-0.10254 0.621,0.0774 1.442,0.33373 0.077,-0.0563 0.034,-0.0131 0.123,-0.1347 0.313,-0.66845 0.265,-0.41112 0.124,-0.1548 0.306,-0.21712 0.36,-0.0553 0.345,0.0191 0.289,0.0955 0.264,0.11057 0.292,0.001 0.299,-0.10655 0.444,-0.19601 0.468,-0.12767 0.402,-0.14072 0.662,-0.24628 0.259,-0.11358 0.329,-0.0442 0.922,0.22517 0.597,-0.14877 0.244,0.0432 0.517,-0.15983 0.094,-0.10755 0.329,-0.54381 0.35,-0.15882 0.53,0.0804 0.298,0.0844 0.992,0.2322 1.288,0.24225 0.379,0.0371 0.154,0.0272 0.134,-0.0382 0.423,-0.30558 0.143,-0.0432 0.121,0.005 z"
                fill="white"
                stroke="black"
                title="Democratic Republic of Congo"
                id="CD" />
        </svg>