<?xml version="1.0" encoding="UTF-8" standalone="no"?>
        <svg xmlns="http://www.w3.org/2000/svg">
            <path
                d="m 192.49,80.70911 -0.243,0.38298 -0.311,0.49053 -0.353,0.55688 -0.221,0.004 -0.171,-0.0322 -0.118,-0.0945 -0.242,-0.10354 -0.273,-0.007 -0.26,0.0965 -0.44,0.11961 -0.398,0.0392 -0.321,0.0663 -0.265,0.0774 -0.24,-0.0422 -0.207,-0.0694 -0.046,-0.59306 -0.048,-0.64332 0.005,-0.5036 0.073,-0.27744 0.065,-0.10856 0.376,-0.38298 0.13,-0.15681 0.429,-0.63529 0.369,-0.54581 0.275,-0.40711 0.085,-0.0804 0.116,-0.0784 0.082,0.0231 0.536,0.39303 0.094,-0.0111 0.179,-0.12163 0.162,-0.42017 0.114,-0.1538 0.049,0.004 0.344,-0.11761 0.311,-0.1337 0.04,0.13872 0.47,0.56493 0.155,0.27743 0.157,0.50862 -0.082,0.28246 -0.123,0.18496 -0.181,0.16384 -0.629,0.40308 -0.699,0.25633 -0.446,0.51365 -0.332,-0.0352 0.051,0.194 0.123,0.0221 0.194,-0.0372 0.385,-0.14876 0.341,-0.0714 0.369,-0.005 0.334,0.0643 z"
                fill="white"
                stroke="black"
                title="Djibouti"
                id="DJ" />
        </svg>