<?xml version="1.0" encoding="UTF-8" standalone="no"?>
        <svg xmlns="http://www.w3.org/2000/svg">
            <path
                d="m 178.978,72.28358 0.205,0.0121 0.863,-0.16786 0.516,-0.30257 0.078,-0.11961 0.142,0 0.172,0.13369 0.065,0.12867 0.11,0.16887 0.203,0.0262 0.493,-0.11962 0.242,-0.0724 0.204,0.0593 0.261,0.0492 0.164,0 0.39,0.16987 0.468,-0.0542 0.221,0.009 0.227,0.0724 0.369,0.26939 0.481,0.32669 0.688,0.2332 0.142,0.0945 0.332,0.37192 0.516,0.71268 0.675,0.68152 0.736,0.53778 0.393,0.37192 0.265,0.45535 0.26,0.41314 0.265,0.17792 0.246,0.14073 0.255,0.31462 0.182,0.26336 0.248,0.29854 -0.275,0.40711 -0.369,0.54581 -0.429,0.63529 -0.13,0.15681 -0.376,0.38298 -0.065,0.10856 -0.073,0.27744 -0.005,0.5036 0.048,0.64332 0.046,0.59306 0.207,0.0694 0.24,0.0423 0.265,-0.0774 0.321,-0.0663 0.398,-0.0392 0.44,-0.11961 0.26,-0.0965 0.273,0.007 0.242,0.10354 0.118,0.0945 0.171,0.0322 0.221,-0.004 -0.047,0.11158 -0.121,0.16284 -0.149,0.16283 -0.131,0.16889 -0.291,0.47244 -0.009,0.0603 0.036,0.0935 0.157,0.21511 0.164,0.3488 0.092,0.31966 0.071,0.15479 0.199,0.17692 0.287,0.36488 0.152,0.24627 0.317,0.13168 0.103,0.31162 0.237,0.45836 0.256,0.36589 0.248,0.28648 0.276,0.11057 0.111,0.009 0.579,0.52973 0.441,0.40309 0.109,0.0643 0.795,0.26437 0.915,0.30357 0.734,0.24325 0.935,0.3096 0.922,0.30659 0.865,0.2915 1.214,0.41012 0.978,0.3307 0.772,0.26136 0.164,0.0814 0.919,0 0.933,0 0.955,0 -0.692,0.67247 -0.783,0.76093 -0.822,0.79813 -0.53,0.51365 -0.839,0.81521 -0.699,0.67751 -0.719,0.73981 -0.65,0.66947 -0.846,0.92678 -0.548,0.5991 -0.858,0.93985 -0.539,0.58904 -0.082,0.0342 -0.771,-0.0442 -0.75,-0.0442 -0.958,-0.0552 -0.11,0.002 -0.279,0.0553 -0.169,0.0542 -0.69,0.15881 -0.127,0.0412 -0.573,0.2523 -0.585,0.29754 -0.308,0.22918 -0.238,0.33172 -0.102,0.23622 -0.107,0.10353 -0.182,0.0905 -1.225,0.22416 -0.356,0.0302 -0.573,0.17893 -0.306,0.29954 -0.087,0.15078 -0.411,-0.004 -0.718,0.0443 -0.307,0.0482 -0.15,0.008 -0.275,-9.9e-4 -0.226,-0.0542 -0.15,-0.0814 -0.186,-0.18394 -0.416,-0.37293 -0.302,-0.23321 -0.663,0.26839 -0.597,0.26638 -0.847,0.37895 -0.483,0.27141 -0.145,0.2724 -0.373,0.49557 -0.333,0.30457 -0.125,0.0371 -0.755,-0.0633 -0.272,-0.0623 -0.45,-0.0553 -0.605,-0.10755 -0.405,-0.1156 -0.44,-0.0141 -0.634,-0.0392 -0.391,-0.0834 -0.397,-0.27543 -0.51,-0.3307 -0.526,-0.34076 -0.542,-0.35082 -0.64,-0.40409 -0.699,-0.44128 -0.16,-0.0442 -0.07,-0.008 -0.759,-0.0201 -0.789,-0.0211 -0.533,-0.0141 -0.168,-0.0512 -0.122,-0.10051 -0.165,-0.32669 -0.208,-0.2322 -0.232,-0.29654 -0.019,-0.40006 0.064,-0.43727 0.06,-0.14474 -0.034,-0.14374 0.009,-0.19803 -0.13,-0.18394 -0.776,-0.2111 -0.126,0.0161 -0.129,0.0794 -0.147,0.0563 -0.106,-0.0532 -0.065,-0.0784 -0.002,-0.12968 0.013,-0.0965 -0.045,-0.0532 -0.247,-0.19703 -0.232,-0.25933 -0.14,-0.28648 -0.136,-0.23522 -0.068,-0.52571 -0.172,-0.32367 -0.168,-0.39605 -0.249,-0.75491 -0.108,-0.26034 -0.202,-0.1749 -0.213,-0.16183 -0.221,-0.33473 -0.575,-0.29553 -0.221,-0.23019 -0.383,-0.39907 -0.095,-0.20204 -0.028,-0.20003 -0.119,-0.18798 -0.212,-0.21209 -0.663,-0.45635 -0.183,-0.0542 -0.237,-0.0492 -0.348,-0.0452 -0.467,-0.10454 -0.408,-0.17892 -0.185,-0.12666 -0.044,-0.0875 0.038,-0.14675 0.148,-0.2523 0.28,-0.59608 0.194,-0.41113 0.132,-0.1166 0.359,-0.0292 0.382,0.0121 0.279,0.0302 0.394,0.005 0.472,-0.0352 0.187,-0.13771 0.148,-0.15078 0.062,-0.10555 0.02,-0.26638 -0.001,-0.2141 -0.03,-0.82124 -0.018,-0.5026 -0.021,-0.57497 0.003,-0.1156 0.004,-0.14776 0.115,-0.61417 0.108,-0.35182 0.074,-0.18596 0.298,-0.58703 0.056,-0.18797 0.01,-0.17189 -0.11,-0.78908 0.191,-0.37192 0.246,-0.3679 0.215,-0.15782 0.179,-0.10654 0.084,0.0452 0.206,0.16987 0.27,0.16788 0.126,-0.0372 0.185,-0.14676 0.138,-0.1548 -0.018,-0.27743 0.124,-0.56994 -0.024,-0.32971 0.133,-0.40811 0.145,-0.57598 0.065,-0.36388 0.083,-0.196 0.393,-0.40208 0.338,-0.56894 0.215,-0.41615 0.412,-0.67951 0.208,-0.24828 0.169,-0.10656 0.252,-0.0683 0.469,-0.0623 0.337,-0.0573 0.049,-0.0885 0.029,-0.13872 0.005,-0.30458 0.065,-0.5237 0.146,-0.51164 0.172,-0.38801 0.093,-0.17691 0.111,-0.16988 0.125,-0.28849 0.158,-0.62321 -0.009,-0.4232 0.226,-0.776 0.05,-0.004 0.384,-0.14274 0.373,-0.0211 0.361,0.0995 0.235,0.0252 0.11,-0.0502 0.101,-0.12867 0.093,-0.20908 0.148,-0.1156 0.202,-0.0221 0.27,0.23522 0.431,0.62422 0.111,0.0371 0.069,-0.0161 0.216,-0.50159 0.169,-0.38901 0.314,-0.72776 0.179,-0.41715 0.167,0.12063 0.166,0.21309 0.188,0.0995 0.203,0.0613 0.098,0.008 0.125,0.0845 0.436,0.51968 z"
                fill="white"
                stroke="black"
                title="Ethiopia"
                id="ET" />
        </svg>