<?xml version="1.0" encoding="UTF-8" standalone="no"?>
        <svg xmlns="http://www.w3.org/2000/svg">
            <path
                d="m 24.074,76.22193 -0.016,-0.24325 -0.156,-0.55488 0.209,-0.24224 0.227,-0.14375 0.153,0.11459 0.046,0.22617 0.118,0.1548 0.402,0.0965 0.397,-0.0693 0.243,0.0322 -0.007,-0.12565 0.082,-0.16687 0.483,-0.0714 0.51,-0.0472 0.525,-0.10052 0.411,0.004 0.122,-0.0272 -0.029,-0.0433 -0.369,-0.0482 -0.787,0.1146 -0.801,0.0342 -0.607,0.30256 -0.249,-0.0282 -0.252,-0.30256 -0.09,-0.37293 0.711,-0.0272 0.862,0.0121 0.939,0.0121 0.442,0.006 0.232,-0.4061 0.442,-0.17893 0.452,-0.0663 0.236,0.0171 0.248,0.0603 0.477,0.33474 0.297,0.0774 0.251,0.0754 0.179,0.16284 0.285,0.16184 0.224,0.0432 0.133,-0.0242 0.222,-0.0623 0.146,-0.0502 0.476,-0.0211 0.35,0.18696 0.073,0.20405 -0.058,0.20908 -0.47,0.11158 -0.651,0.1749 -0.538,-0.0955 -0.655,-0.23823 -0.383,-0.17088 -0.159,-0.0694 -0.239,-0.10856 -0.209,-0.11661 -0.201,-0.0764 -0.154,-0.0482 -0.114,0.0613 -0.057,0.14475 -0.091,0.16083 -0.117,0.0955 -0.549,0.0563 -0.493,0.0593 -0.264,0.0502 -0.177,0.0382 -0.055,0.48552 -0.558,-0.005 -0.548,-0.006 -0.569,0.009 -0.611,0.009 -0.157,0.0995 z"
                fill="white"
                stroke="black"
                title="Gambia"
                id="GM" />
        </svg>