<?xml version="1.0" encoding="UTF-8" standalone="no"?>
        <svg xmlns="http://www.w3.org/2000/svg">
            <path
                d="m 70.928,81.80678 0.179,0.17189 0.04,0.0985 -0.065,0.37091 -0.132,0.25834 -0.083,0.24325 0.012,0.12063 0.08,0.12163 0.273,0.18998 0.139,0.12364 0.166,0.18696 0.19,0.18295 0.325,0.23823 0.138,0.0432 -0.007,0.0663 -0.045,0.0915 -0.03,0.88658 -0.025,0.22918 -0.023,0.1156 -0.031,0.33071 -0.034,0.0472 -0.061,-0.004 -0.057,0.0131 -0.014,0.0653 0.023,0.0683 0.196,0.0472 -0.043,0.0502 -0.145,0.0452 -0.068,0.0995 0.03,0.11359 -0.081,0.0915 0.023,0.0613 0.052,0.0442 0.083,-0.0161 0.229,-0.15279 0.096,-0.0161 0.119,0.0312 0.219,0.23321 0.009,0.11358 -0.089,0.38901 -0.087,0.30055 -0.016,0.40108 0.092,0.22416 -0.013,0.12364 -0.1,0.10655 -0.226,0.1548 0.017,0.10554 0.103,0.19702 0.191,0.21913 0.373,0.2714 0.196,0.35283 0.005,0.14373 -0.114,0.14375 -0.135,0.12465 -0.044,0.17992 0.061,1.18211 -0.295,0.51265 -0.003,0.14676 0.03,0.16887 0.078,0.10353 0.15,0.0282 0.123,0.0985 -0.043,0.35986 -0.065,0.36588 -0.011,0.17792 -0.036,0.0845 -0.117,0.0683 -0.042,0.1156 0.03,0.14273 -0.022,0.10555 0.062,0.1367 0.135,0.16988 0.216,0.42218 0.082,0.0332 0.038,0.0895 -0.024,0.0855 0.084,0.18696 0.24,0.18696 0.252,0.16285 0.204,0.0231 0.048,0.14575 0.134,0.18596 0.097,0.0814 0.155,0.0533 0.127,0.0282 0.007,0.15681 -0.23,0.10655 -0.155,0.16184 -0.118,0.24627 -0.164,0.27141 -0.564,0.14072 -0.216,0.001 -1.157,0.007 -1.083,0.53276 -0.624,0.18998 -0.384,0.29954 -0.516,0.21311 -0.36,0.25933 -0.749,0.12364 -1.227,0.4061 -0.384,0.16184 -0.388,0.28246 -0.631,0.33071 -0.249,-0.004 -0.494,-0.3096 -0.372,-0.1548 -0.91,-0.23722 -0.679,-0.0925 -0.328,-0.10152 -0.09,-0.0171 0.077,-0.11157 0.19,-0.007 0.198,0.0332 0.151,-0.0844 0.221,-0.0111 0.058,-0.0895 0.018,-0.22315 -0.002,-0.18094 0.077,-0.0804 0.02,-0.2131 -0.109,-0.47144 -0.077,-0.0542 -0.396,-0.0663 -0.03,-0.0945 -0.071,-0.0985 -0.076,-0.24327 -0.086,-0.36186 -0.139,-0.44932 -0.267,-0.73983 -0.066,-0.26236 -0.045,-0.26637 -0.01,-0.31864 0.055,-0.11862 -0.008,-0.16485 -0.025,-0.16485 0.188,-0.37695 0.368,-0.46239 0.077,-0.16686 0.069,-0.11559 0.01,-0.16687 0.065,-0.53878 0.176,-0.65137 0.111,-0.24627 0.075,-0.13369 0.09,-0.21712 0.023,-0.10153 0.339,-0.25632 0.156,-0.0683 0.035,-0.10153 -0.053,-0.10957 0.023,-0.0754 0.081,-0.0371 0.125,-0.0302 0.091,-0.10555 -0.143,-0.80516 -0.116,-0.80315 -0.007,-0.0683 -0.068,-0.11057 -0.068,-0.33171 -0.115,-0.19501 -0.16,-0.0563 10e-4,-0.18295 0.161,-0.3106 0.042,-0.18093 -0.077,-0.0542 -0.011,-0.14174 0.055,-0.22818 -0.027,-0.14072 -0.03,-0.14877 -0.167,-0.35283 -0.041,-0.25029 0.086,-0.14575 -0.003,-0.31965 -0.09,-0.49355 -0.015,-0.31161 0.062,-0.12967 -0.03,-0.12464 -0.122,-0.11761 -0.009,-0.1136 0.104,-0.11157 -0.013,-0.0864 -0.129,-0.0633 -0.115,-0.15279 -0.103,-0.24024 0.021,-0.387 0.193,-0.71168 0.024,-0.0593 0.219,0.004 0.001,0.0302 0.681,-0.007 0.778,-0.008 0.929,-0.009 0.845,-0.008 0.037,-0.0322 0.14,-0.0392 0.853,0.0724 0.534,-0.0361 0.226,0.0231 0.166,0.0482 0.368,-0.0292 0.197,0.0181 0.148,0.17691 0.06,-0.001 0.083,-0.0754 0.147,-0.0864 0.15,-0.0673 0.108,-0.13972 0.065,-0.10554 0.097,0.0211 0.14,-0.006 0.093,-0.0885 0.037,-0.1367 z"
                fill="white"
                stroke="black"
                title="Ghana"
                id="GH" />
        </svg>