<?xml version="1.0" encoding="UTF-8" standalone="no"?>
        <svg xmlns="http://www.w3.org/2000/svg">
            <path
                d="m 32.589,77.34372 -0.009,0.2322 0.166,0.3287 -0.024,0.24426 -0.072,0.2312 -0.063,0.0915 -0.083,0.0532 -0.252,-0.002 -0.106,0.0462 -0.168,0.0905 -0.004,0.10656 0.134,0.10152 0.11,0.14173 0.128,0.11158 0.22,0.12866 0.021,0.14274 0.006,0.35985 -0.012,0.28146 -0.619,0.20406 -0.475,0.0361 -0.402,-0.0221 -0.175,0.0855 -0.35,0.21009 -0.427,0.12765 -0.219,0.009 -0.105,0.0764 -0.166,0.21812 -0.463,0.95293 -0.153,0.22817 -0.124,0.14877 -0.142,-0.20204 0.11,-0.37393 -0.119,0.005 -0.236,0.30257 -0.115,0.009 0.015,-0.35785 -0.131,-0.0131 -0.152,0.0252 -0.212,-0.18696 -0.021,-0.13972 0.017,-0.19501 0.129,-0.12464 -0.018,-0.0522 -0.125,-0.0151 -0.14,0.0332 -0.086,-0.0593 0.142,-0.25331 0.496,-0.2121 0.249,-0.0221 0.256,-0.0482 -0.14,-0.18294 -0.303,-0.0724 -0.242,0.0502 -0.121,0.13168 -0.149,0.0222 -0.25,-0.31061 0.004,-0.15581 0.093,-0.18495 0.145,-0.0834 0.575,0.002 0.218,-0.10453 0.088,-0.0191 0.083,-0.0945 -0.018,-0.0633 -0.094,-0.003 -0.215,0.12363 -0.692,-0.0462 -0.221,0.0744 -0.385,0.28447 -0.474,0.15681 -0.344,-0.0663 0.11,-0.38097 -0.049,-0.0512 -0.108,-0.0633 -0.504,0.12162 -0.381,-0.17389 -0.151,-0.21009 0.026,-0.26436 0.18,-0.17893 0.028,-0.0895 -0.19,-0.0171 -0.35,0.11158 -0.771,-0.43224 0.154,-0.0272 0.38,0.0452 0.295,-0.0542 0.208,-0.0915 0.283,-0.12565 0.273,-0.0412 0.855,0.0563 0.743,-0.15077 0.552,-0.28347 0.51,-0.26135 0.661,0.003 0.708,0.003 1.007,0.004 0.798,0.003 0.944,0.007 z m -6.334,2.27174 -0.146,0.35082 -0.18,-0.0393 -0.126,-0.20908 -0.014,-0.0885 0.366,-0.0282 0.1,0.0141 z m 1.215,0.9871 -0.026,0.0663 -0.16,-0.0563 0.233,-0.24125 0.152,-0.0422 -0.005,0.18495 -0.117,0.0392 -0.077,0.0492 z m -0.978,0.20405 -0.132,0.0895 -0.136,-0.0423 -0.073,-0.0804 0.011,-0.14374 0.154,-0.20305 0.138,0.0262 0.038,0.35382 z m 0.496,0.71571 0,0.1176 -0.119,-0.0221 -0.035,-0.0351 0.071,-0.21209 0.104,-0.0945 0.128,0.0151 0.038,0.0282 -0.025,0.0814 -0.056,0.0673 -0.106,0.0543 z m -1.092,0.4463 -0.225,0.0422 -0.102,-0.14174 -0.015,-0.0552 0.117,-0.0472 0.053,-0.002 0.089,-0.10353 0.11,-0.0683 0.049,-0.0221 0.057,0.005 0.041,0.22717 -0.054,0.0955 -0.12,0.0704 z m 0.613,-0.0663 -0.026,0.0794 -0.165,-0.0121 0.037,-0.0804 -0.036,-0.0231 0.047,-0.24125 0.025,-0.0371 0.08,0.0895 0.011,0.0371 0.027,0.18797 z"
                fill="white"
                stroke="black"
                title="Guinea-Bissau"
                id="GW" />
        </svg>