<?xml version="1.0" encoding="UTF-8" standalone="no"?>
        <svg xmlns="http://www.w3.org/2000/svg">
            <path
                d="m 196.754,0.80934 0,0.0262 0.093,0.25028 0.231,0.92981 0.132,0.11761 0.15,0.0985 0.106,0.13772 0.042,0.13872 -0.013,0.21511 0.005,0.24929 0.062,0.19098 0.086,0.14474 0.08,0.0724 0.12,0.007 0.144,0.0352 0.097,0.14374 0.309,1.04842 0.029,0.13671 0.13,0.0442 0.213,-0.0201 0.219,0.10856 0.234,0.16887 0.22,0.31865 0.148,0.0512 0.464,-0.0472 0.634,0.0512 0.297,0.16384 -0.03,0.10152 -0.229,0.11259 -0.403,0.13269 -0.119,0.22415 -0.067,0.2905 0.012,0.16284 0.099,0.17893 0.284,0.35583 0.016,0.12867 0.051,0.17892 0.053,0.12264 -0.059,0.23622 -0.258,0.16385 -0.339,0.17691 -0.681,0.78807 -0.051,0.16987 0.004,0.4644 -0.068,0.13269 -0.215,-0.002 -0.168,-0.0242 -0.009,0.16184 -0.107,0.21712 -0.061,0.18796 0.25,0.44329 0.045,0.23522 -0.04,0.21411 -0.232,0.3679 -0.137,0.24728 0.033,0.0553 0.181,0.0985 0.562,0.80717 0.181,0.28347 0.238,-0.0744 0.089,0.005 0.069,0.0452 0.043,0.0955 0,0.12062 -0.06,0.18093 0.303,0.0734 0.109,0.18295 0.353,0.62523 -0.013,0.18596 -0.169,0.29452 -0.002,0.19501 0.036,0.1749 0.055,0.0613 0.521,0.0252 0.221,0.0703 0.541,0.31764 0.616,0.48752 0.503,0.39906 0.429,0.33875 0.46,-0.0241 0.125,0.0613 0.116,0.10555 0.132,0.27843 0.263,0.62825 0.224,0.20808 0.345,0.50158 0.324,0.46944 -0.213,0.63728 -0.209,0.66142 0,0.85039 0,0.45636 0.44,0.0191 0.489,0.0221 0.004,0.54381 0.004,0.54581 0.004,0.62121 0.144,0.0262 0.228,0.13369 0.098,0.20104 0.122,0.10956 0.149,0.0181 0.146,0.0985 0.145,0.17993 0.053,0.13469 -0.039,0.0935 0.031,0.16284 0.101,0.23321 0.123,0.10957 0.191,0.1347 -0.259,0.0774 -0.28,-0.0593 -0.597,-0.2724 -0.194,-0.008 -0.253,0.10353 -0.011,0.0925 -0.631,-0.30457 -0.227,-0.0613 -0.082,-0.006 -0.362,0.003 -0.515,0.0553 -0.303,0.12364 -0.21,0.13067 -0.096,0.12867 -0.034,0.0693 -0.164,0.37896 -0.19,0.48552 -0.197,0.43624 -0.383,0.61317 -0.212,0.28247 -0.455,0.52471 -0.492,0.10554 -1.141,-0.10353 -1.265,-0.1156 -1.259,-0.11359 -0.937,-0.0855 -0.072,-0.0282 -0.927,-0.74987 -0.732,-0.59406 -0.915,-0.74285 -0.934,-0.76092 -0.948,-0.773 -0.689,-0.56291 -0.836,-0.72575 -0.761,-0.66242 -0.601,-0.52471 -0.771,-0.45836 -0.602,-0.35987 -0.878,-0.5237 -0.701,-0.41917 -0.601,-0.35986 -0.925,-0.55486 -0.307,-0.15079 -0.959,-0.18596 -0.909,-0.1568 -0.941,-0.16284 -0.626,-0.10856 0.413,-0.39605 -0.127,-0.35584 -0.301,0.0653 -0.277,0.0844 -0.168,-0.55386 0.214,-0.0694 -0.198,-0.72474 -0.203,-0.74787 -0.196,-0.72474 -0.201,-0.74283 0.795,-0.47748 0.594,-0.35684 0.831,-0.50058 0.801,-0.4835 0.763,-0.46139 0.841,-0.50963 0.752,-0.45635 0.689,-0.18596 0.146,-0.14375 0.314,-0.62523 0.269,-0.53476 0.013,-0.12364 0.001,-0.76093 0.047,-0.89563 0.089,-0.47948 0.155,-0.42519 0.142,-0.31061 0.015,-0.29049 -0.019,-0.29553 -0.147,-0.44731 -0.153,-0.46742 0.017,-0.45033 0.028,-0.24124 0.096,-0.387 0.164,-0.28346 0.176,-0.1749 0.654,-0.18094 0.389,-0.10756 0.52,-0.50259 0.309,-0.29956 0.43,-0.47444 0.317,-0.34981 0.025,-0.12163 0,-0.0472 0.272,-0.0714 0.503,-0.4252 0.297,-0.39705 0.094,-0.0351 0.265,0.12967 0.19,0.0362 0.437,-0.15077 0.26,0.0794 0.219,0.10052 0.122,0.007 0.587,0.24727 0.147,0.0302 0.302,0.0302 0.451,0.0141 0.291,-0.16183 0.205,-0.15581 0.144,0.004 0.14,0.0372 0.118,0.0663 0.099,0.1166 0.047,0.16687 -0.019,0.53174 0.044,0.13972 0.08,0.10052 0.101,0.0191 0.123,-0.1156 0.214,-0.16786 0.264,-0.18295 0.196,-0.16787 0.113,-0.0633 0.177,0.009 0.173,0.0292 z"
                fill="white"
                stroke="black"
                title="Iraq"
                id="IQ" />
        </svg>