<?xml version="1.0" encoding="UTF-8" standalone="no"?>
        <svg xmlns="http://www.w3.org/2000/svg">
            <path
                d="m 188.668,102.0001 -0.345,0.49456 -0.414,0.59306 -0.763,1.09064 -0.58,0.57396 -0.438,0.43424 -0.041,0.0784 0.002,0.4835 0.005,1.1821 0.009,2.36321 0.009,2.36221 0.009,2.3622 0.004,1.1811 0.002,0.39705 0.385,0.49657 0.376,0.48551 0.497,0.64131 0.267,0.34378 0.044,0.11459 -0.014,0.23018 -0.409,0.48149 -0.335,0.21914 -0.451,0.10453 -0.135,-0.0201 -0.177,-0.0683 -0.069,0.1156 -0.052,0.17993 -0.1,-0.0383 -0.075,-0.0532 0.045,0.31965 0.046,0.15782 -0.069,0.21109 -0.219,0.18596 -0.02,0.15782 -0.474,0.41213 -0.673,0.0452 -0.354,0.20506 -0.157,0.16787 -0.12,0.36689 0.042,0.56191 -0.188,0.43223 -0.035,0.21712 -0.348,0.28045 -0.154,0.25733 -0.114,0.26236 -0.099,0.11459 -0.118,0.58703 -0.162,0.35684 -0.044,0.11862 -0.04,0.10655 -0.125,0.20908 -0.082,0.14474 -0.059,0.0945 -0.41,0.91473 -0.32,0.41313 -0.251,-0.0472 -0.167,0.15982 -0.018,0.0754 -0.089,-0.0422 -0.209,-0.15179 -0.431,-0.31061 -0.431,-0.3106 -0.431,-0.3106 -0.431,-0.31061 -0.431,-0.3106 -0.431,-0.31061 -0.431,-0.3106 -0.431,-0.31061 -0.253,-0.18193 -0.111,-0.10756 -0.088,-0.21411 -0.042,-0.0533 -0.115,-0.0673 -0.135,-0.0151 -0.039,-0.0412 10e-4,-0.10354 0.046,-0.14876 0.159,-0.28448 0.017,-0.16786 -0.031,-0.18998 -0.049,-0.30458 -0.043,-0.0694 -0.286,-0.15982 -0.598,-0.33372 -0.598,-0.33373 -0.598,-0.33372 -0.599,-0.33373 -0.598,-0.33372 -0.598,-0.33373 -0.598,-0.33372 -0.598,-0.33373 -0.599,-0.33372 -0.598,-0.33372 -0.599,-0.33372 -0.598,-0.33373 -0.598,-0.33372 -0.598,-0.33373 -0.598,-0.33372 -0.599,-0.33373 -0.225,-0.12565 -0.202,-0.10554 -0.214,0 -0.009,-0.47747 0.068,-1.21527 -0.008,-1.06752 0.061,-0.53476 0.264,-0.33876 0.122,-0.24627 0.087,-0.34377 0.138,-0.28045 0.313,-0.22818 0.056,-0.12565 0.332,-0.38096 0.199,-0.48954 0.15,-0.16686 0.188,-0.1538 0.132,-0.0814 0.218,-0.0814 0.171,-0.0462 0.031,-0.0392 0.015,-0.0794 -0.057,-0.30357 0.073,-0.0995 0.116,-0.20305 0.133,-0.18898 0.12,-0.12062 0.067,-0.12363 0.031,-0.21311 0.005,-0.15178 -0.001,-0.24728 -0.038,-0.5619 -0.141,-0.47043 -0.087,-0.52673 0.064,-0.17288 -0.111,-0.3086 -0.055,-0.0171 -0.09,-0.0673 -0.116,-0.2915 -0.087,-0.26538 -0.054,-0.0663 -0.376,-0.2322 -0.187,-0.54783 -0.21,-0.12164 -0.114,-0.54481 -0.022,-0.15479 0.119,-0.54382 -0.012,-0.12464 -0.126,-0.11459 -0.353,-0.11761 -0.286,-0.22416 0.037,-0.0784 0.021,-0.0814 -0.151,-0.0542 -0.438,-0.92981 0.563,-0.55888 0.571,-0.56593 0.729,-0.7167 0.669,-0.6584 0.578,-0.56894 0.516,-0.50762 -0.013,0.0965 0.002,0.12867 0.064,0.0784 0.106,0.0542 0.147,-0.0573 0.129,-0.0794 0.126,-0.0171 0.775,0.21109 0.13,0.18395 -0.009,0.19803 0.034,0.14373 -0.06,0.14475 -0.064,0.43626 0.02,0.40006 0.231,0.29653 0.208,0.2322 0.165,0.32669 0.122,0.10052 0.168,0.0522 0.533,0.0141 0.789,0.0211 0.759,0.0201 0.069,0.008 0.161,0.0442 0.699,0.44027 0.64,0.40409 0.542,0.35081 0.526,0.34076 0.511,0.33172 0.396,0.27442 0.391,0.0834 0.635,0.0403 0.439,0.0141 0.406,0.11559 0.604,0.10756 0.45,0.0553 0.272,0.0623 0.755,0.0633 0.125,-0.0372 0.333,-0.30457 0.373,-0.49556 0.146,-0.27241 0.482,-0.2714 0.847,-0.37795 0.597,-0.26739 0.664,-0.26838 0.302,0.2322 0.416,0.37292 0.186,0.18395 0.149,0.0814 0.226,0.0542 0.275,9.9e-4 0.15,-0.008 0.307,-0.0482 0.718,-0.0442 0.422,0.0121 z m -2.497,17.20489 -0.104,0.0242 0.054,-0.16083 0.308,-0.20607 0.125,0.0462 0.024,0.0462 -0.007,0.0433 -0.052,0.0422 -0.348,0.16486 z"
                fill="white"
                stroke="black"
                title="Kenya"
                id="KE" />
        </svg>