<?xml version="1.0" encoding="UTF-8" standalone="no"?>
        <svg xmlns="http://www.w3.org/2000/svg">
            <path
                d="m 599.589,120.9098 0.092,0.0532 0.07,0.0724 0.034,0.10052 0,0.0252 -0.054,-10e-4 -0.065,-0.0312 -0.047,-0.0422 -0.024,-0.0111 -0.01,-0.009 0.056,0.006 0.064,0.0422 0.048,0.0191 0,-0.0492 -0.058,-0.0855 -0.034,-0.0292 -0.044,-0.0252 -0.05,-0.0171 -0.034,0.0151 -0.019,0.007 -0.01,-0.0201 0.01,-0.0181 0.018,-0.0181 0.06,0.0161 z m 1.719,1.03635 -0.013,0.0211 -0.02,-0.0181 0.014,-0.0331 0.012,-0.0282 0.019,0.0151 -0.012,0.0433 z m -0.416,3.72926 -0.027,0.0131 -0.032,-0.004 -0.021,-0.0191 0,-0.0302 0.026,-0.0211 0.037,0.007 0.021,0.0272 0,0.0272 z m -2.754,0.1337 0.018,0.0191 0.041,-0.005 0.036,-0.003 -0.022,0.0191 -0.074,0.008 -0.036,-0.0482 0.045,-0.0371 0.04,-0.006 0,0.0101 0,0.0111 -0.019,0 -0.03,0.009 0,0.0232 z m -6.45,0.46137 0.033,0.0372 0,0.0181 -0.016,-0.003 -0.048,-0.0111 -0.016,-0.0221 0.035,0.0151 0.015,-0.003 -0.032,-0.0331 -0.028,-0.0242 -0.021,-0.0101 0,-0.0121 0.026,0.006 0.052,0.0422 z m -967.75,-24.1186 0.224,0.23724 -0.043,0.11961 -0.162,-0.0111 -0.074,-0.0423 0.126,-0.0211 0.021,-0.0442 -0.058,-0.0693 -0.077,-0.0482 -0.053,0 -0.013,0.0955 -0.087,-0.0744 0.051,-0.0744 0.062,-0.0492 0.083,-0.0181 z m 932.62,2.23053 -0.178,0.0935 -0.054,-0.0151 0.211,-0.13268 -0.001,0.0161 0.022,0.0383 z m -0.352,0.21813 -0.208,0.10856 -0.056,-0.0583 0.075,-0.002 0.14,-0.10455 0.169,-0.008 -0.02,0.0583 -0.1,0.006 z m -926.664,3.35433 0.467,0.32467 -0.198,0.0231 -0.488,-0.15681 -0.446,-0.32065 0.133,-0.0693 0.065,0.1156 0.203,0.10755 0.12,-0.22617 0.079,-0.0512 -0.356,-0.2332 0.141,0.0121 0.337,0.15883 -0.057,0.31563 z m 927.153,0.0272 0.014,0.0643 -0.16,-0.17591 -0.095,-0.11359 0.006,-0.0492 0.043,0.0312 0.053,0.0553 0.035,0.0442 0.104,0.14373 z m 0.031,0.35987 -0.102,0.0121 0.076,-0.0403 0.021,-0.0553 -0.012,-0.1739 0.04,0.0141 0.014,0.0714 0.007,0.10454 -0.044,0.0673 z m 0.024,1.05243 -0.075,0.0101 0.049,-0.0573 0.321,-0.0633 0.028,-0.0181 0.052,0.0351 -10e-4,0.0332 -0.023,0.0171 -0.159,9.9e-4 -0.125,0.0302 -0.067,0.0121 z m -0.016,0.92177 0.151,0.11057 -0.02,0.0764 -0.051,0.0875 -0.197,0.22316 -0.06,-0.0211 0.192,-0.20204 0.074,-0.13369 -0.11,-0.10253 -0.044,0.0222 -0.018,0 -0.038,-0.0955 0.038,0 0.083,0.0352 z m 4.143,5.08627 -0.091,0.0764 -0.035,-0.0693 0.045,-0.0855 -0.076,-0.35484 -0.126,-0.0482 -0.075,-0.10655 0.036,0 0.126,0.0975 0.101,0.0443 0.059,0.2332 0.036,0.2131 z m -13.913,0.20104 -0.026,0.006 -0.053,-0.0292 0.007,-0.0361 0.037,-0.0161 0.047,0.0272 -0.012,0.0482 z m 14.655,0.9479 0.017,0.14475 -0.064,-0.0191 -0.021,-0.0563 -0.021,-0.14576 -0.067,-0.14273 0.076,0.0382 0.063,0.11158 0.017,0.0694 z m -925.381,8.06868 -0.008,0.0171 -0.034,-0.0222 -0.066,-0.0412 -0.056,-0.0452 -0.001,-0.0191 0.079,-0.0272 0.101,-0.0211 0.022,0.0292 -0.019,0.0412 -0.018,0.0885 z m -2.547,4.32736 -0.065,0.0151 -0.076,0 -0.038,-0.0372 -0.002,-0.0302 0.026,0 0.024,0.005 0.108,0.005 0.028,0.0221 -0.005,0.0201 z m 11.454,16.48516 -0.023,0.0453 -0.044,-0.0161 -0.026,-0.0573 -0.009,-0.0623 0.017,-0.0502 0.029,0.002 0.033,0.0623 0.023,0.0764 z"
                fill="white"
                stroke="black"
                title="Kiribati"
                id="KI" />
        </svg>