<?xml version="1.0" encoding="UTF-8" standalone="no"?>
        <svg xmlns="http://www.w3.org/2000/svg">
            <path
                d="m 205.772,24.96513 -0.014,0.11962 0.09,0.35684 0.201,0.38901 0.165,0.31463 0.021,0.14776 -0.151,-0.0211 -0.115,-0.0593 -0.221,-0.0623 -0.427,0.41715 -0.258,0.22718 -0.007,0.0774 0.344,0.0875 0.253,-0.002 0.176,-0.0613 0.149,0.0975 0.098,0.25733 0.039,0.20908 0.234,0.74284 0.194,0.25029 0.242,0.44229 0.09,0.22918 0.052,0.19199 0.148,0.28347 -0.488,0.007 -0.615,0.0101 -0.499,0.006 -0.563,0.007 -0.248,-0.30256 -0.083,-0.33171 -0.09,-0.34076 -0.247,-0.48651 -0.826,-0.11761 -0.439,-0.0633 -0.723,-0.0925 -0.542,-0.0694 0.456,-0.52471 0.212,-0.28246 0.383,-0.61216 0.197,-0.43726 0.19,-0.48551 0.164,-0.37795 0.034,-0.0693 0.095,-0.12866 0.21,-0.13168 0.303,-0.12364 0.515,-0.0542 0.362,-0.003 0.082,0.006 0.228,0.0613 0.629,0.30257 z m 0.833,1.15899 -0.161,0.0724 -0.108,-0.0312 -0.104,-0.17389 -0.171,-0.43224 0.093,-0.16184 -0.003,-0.0693 0.019,-0.0522 0.053,-0.0332 0.055,-0.20405 0.074,-0.0623 0.12,0.13771 0.338,0.49757 -0.002,0.20305 -0.02,0.0814 -0.183,0.22818 z"
                fill="white"
                stroke="black"
                title="Kuwait"
                id="KW" />
        </svg>