<?xml version="1.0" encoding="UTF-8" standalone="no"?>
        <svg xmlns="http://www.w3.org/2000/svg">
            <path
                d="m 47.303,91.91199 0.055,0.0332 0.084,0.0865 0.08,0.29553 0.314,0.95393 -0.016,0.26336 -0.062,0.17189 -0.002,0.16786 -0.021,0.16687 -0.192,0.2714 -0.568,0.55688 0.044,0.0492 0.135,0.0633 0.139,0.0322 0.113,-0.0171 0.142,0.13871 0.153,0.17491 0.162,0.0915 0.234,0.0794 0.204,0.009 0.174,-0.0312 0.245,0.0352 0.261,0.14474 0.093,0.23823 0.063,0.20809 0.09,0.10554 0.013,0.17993 0.185,0.15781 0.265,0.0322 0.343,0.18495 0.087,-0.0101 0.038,-0.0231 0.042,0.0352 0.086,0.53477 0.067,0.28346 -0.036,0.11559 -0.045,0.0895 -0.003,0.43223 -0.156,0.24728 -0.025,0.27241 -0.043,0.0875 -0.166,0.0784 -10e-4,0.20908 -0.045,0.25231 -0.017,0.26738 0.046,0.70163 0.009,0.52168 0.075,0.0985 -0.323,-0.0433 -0.95,-0.39906 -0.731,-0.22818 -2.451,-1.30675 -0.68,-0.52471 -0.786,-0.78103 -1.745,-1.57514 -0.398,-0.2523 -0.502,-0.12264 -0.31,-0.13469 -0.219,-0.14575 -0.178,-0.43626 -0.437,-0.26034 -0.805,-0.36992 -0.606,-0.61517 0.149,-0.12666 0.218,-0.40509 0.306,-0.38901 0.285,-0.23119 0.226,-0.23824 0.24,-0.18194 0.342,-0.2131 0.525,-0.55989 0.122,-0.0653 0.084,-0.388 0.132,-0.49355 0.152,-0.15379 0.357,-0.0915 0.083,-0.0855 0.126,-0.3488 0.082,-0.4051 0.007,-0.0885 0.14,-0.0101 0.241,-0.0875 0.14,0.0392 0.061,0.1166 0.032,0.0985 0.729,-0.25331 0.064,-0.0522 0.038,0.009 0.092,0.22817 0.052,-0.0141 0.044,-0.0653 0.049,-0.007 0.057,0.0312 0.057,0.10555 0.093,0.0965 0.158,0.0673 0.1,0.0915 -0.011,0.24426 0.038,0.23722 0.069,0.0542 0.036,0.14173 0.018,0.1548 0.038,0.0814 0.027,0.1568 -0.014,0.16888 0.029,0.1176 0.116,0.20406 0.072,0.25632 10e-4,0.18295 -0.043,0.19099 -0.077,0.1749 -0.135,0.18998 -0.011,0.0754 0.08,0.0492 0.122,0.0111 0.102,-0.0403 0.258,0.0885 0.135,0.12465 0.119,0.1558 0.107,0.0784 0.048,0.0975 0.183,-0.0262 0.213,-0.0945 0.044,-0.0452 0.063,0.0241 0.137,0.0101 0.096,-0.16988 0.077,-0.19501 0.165,-0.2121 0.081,-0.0814 0.021,-0.1347 0.009,-0.1749 0.06,-0.15179 0.136,-0.0834 0.147,0.001 0.08,0.0312 0.041,0.14675 0.118,0.11159 z"
                fill="white"
                stroke="black"
                title="Liberia"
                id="LR" />
        </svg>