<?xml version="1.0" encoding="UTF-8" standalone="no"?>
        <svg xmlns="http://www.w3.org/2000/svg">
            <path
                d="m 141.705,19.49889 -0.108,0.0925 -0.154,0.19702 -0.097,0.1749 -0.26,0.28547 -0.217,0.30458 0.021,0.4453 0.049,0.45233 0.146,0.44128 0.125,0.49054 -0.036,0.31965 -0.107,0.39303 -0.128,0.32769 -0.424,0.67248 -0.065,0.16083 0.024,0.22617 0.258,0.79611 0.02,0.25029 0.154,0.76998 0.141,0.62523 0.156,0.49154 0.024,0.13469 0,0.72073 0,0.71971 0,0.71772 0,0.7167 0,0.71469 0,0.71369 0,0.71168 0,0.71067 0,0.70865 0,0.70766 0,0.70565 0,0.70565 0,0.70262 0,0.70162 0,0.70063 0,0.69961 0,0.6976 0,0.6966 0,0.6956 0,0.69358 0,0.69358 0,0.69158 0,0.68956 0,0.68956 0,0.68755 0,0.68655 0,0.68554 0,0.68454 0,0.68252 0,0.68253 0,0.68152 0,0.67951 0,1.50477 -0.001,1.49975 0,1.49472 -0.001,1.4897 -0.009,0.004 -0.008,0.006 -0.009,0.005 -0.009,0.006 -0.692,-10e-4 -0.692,0 -0.693,0 -0.692,-9.9e-4 0,0.37291 0,0.37193 0,0.37091 0,0.37192 -1.345,-0.70464 -1.344,-0.70464 -1.345,-0.70664 -1.344,-0.70766 -1.345,-0.70866 -1.344,-0.70967 -1.345,-0.71067 -1.344,-0.71168 -1.345,-0.71368 -1.344,-0.7147 -1.345,-0.71468 -1.344,-0.71671 -1.345,-0.71871 -1.344,-0.71972 -1.345,-0.71972 -1.345,-0.72173 -0.928,-0.49958 -1.002,0.48752 -0.785,0.38197 -1.034,0.5016 0,0 -1.188,0.65036 -0.912,0.49857 -0.043,-0.004 -0.041,-0.0121 -0.949,-0.84636 -0.741,-0.66243 -0.329,-0.18596 -1.397,-0.33875 -1.389,-0.33674 -1.462,-0.35584 -0.266,-0.5418 -0.297,-0.60612 -0.401,-0.75892 -0.245,-0.46541 -0.082,-0.0724 -1.121,-0.36789 -1.185,-0.36188 -0.693,0.21913 -0.122,-0.0161 -0.196,-0.13771 -0.197,-0.18797 -0.104,-0.26236 -0.278,-0.35181 -0.257,-0.80717 -0.025,-0.64333 -0.051,-0.22818 -0.617,-0.90869 -0.561,-0.82727 -0.373,-0.55286 -0.072,-0.2503 0.043,-0.30758 0.15,-0.27643 0.543,-0.32669 0.49,-0.35684 0.067,-0.24728 0.031,-0.68253 -0.16,-0.21309 -0.118,-0.4061 -0.12,-0.54984 -0.014,-0.35282 0.218,-0.70264 0.255,-0.7368 -0.162,-0.81823 -0.12,-1.64751 0.075,-1.30273 -0.061,-0.47445 -0.043,-0.20004 -0.167,-0.61719 -0.205,-0.63829 -0.092,-0.22415 -0.263,-0.51567 -0.436,-0.64031 -0.226,-0.39403 0.31,-0.20808 0.275,-0.16284 0.335,-0.17189 0.475,-0.19501 0.246,-0.14676 0.105,-0.12363 0.357,-0.50461 0.186,-0.27945 0.254,-0.38297 0.111,-0.26739 0.003,-0.24727 -0.039,-0.29955 -0.198,-0.71771 -0.162,-0.69961 0.126,-0.2704 0.101,-0.12867 0.221,-0.3297 0.088,-0.0663 0.477,-0.10253 0.19,-0.21913 0.146,-0.27542 0.037,-0.14476 0.208,-0.15178 0.249,-0.15178 0.153,-0.19702 0.502,-0.30558 0.458,-0.27844 0.533,-0.29352 0.412,-0.22716 0.087,-0.19904 -0.006,-0.17188 -0.224,-0.39203 0,-0.4644 0.015,-0.38599 0.022,-0.22817 0.099,-0.63629 0.006,-0.0895 0.428,0.2121 0.439,0.0844 1.309,0.78707 0.413,0.0985 0.916,0.0935 1.079,-0.32167 0.408,-0.0583 0.71,0.30257 0.313,0.0855 0.526,0.0231 0.899,0.27341 0.229,0.0955 0.524,0.43626 0.251,0.13067 1.861,0.39906 0.254,0.26436 0.259,0.50361 0.011,0.62522 0.143,0.45235 0.231,0.58602 0.279,0.41414 0.309,0.34478 0.355,0.21511 0.816,0.31764 0.92,0.12164 0.928,0.0412 1.593,0.43727 1.351,0.5036 0.333,0.24828 0.677,0.24325 1.345,1.1801 0.749,0.4071 0.525,0.0784 0.471,-0.0714 0.837,-0.40811 0.346,-0.24326 0.842,-1.01926 0.277,-0.53275 0.11,-0.37695 -0.027,-0.38298 -0.105,-0.34478 -0.236,-0.36187 -0.165,-0.47847 -0.097,-0.86346 0.132,-0.6001 0.161,-0.35986 0.254,-0.3679 0.699,-0.70464 0.703,-0.49758 1.239,-0.65136 0.719,-0.007 0.298,-0.0724 0.592,-0.46138 0.24,-0.0171 0.332,0.11258 0.976,-0.0322 0.43,0.12868 0.513,0.28747 0.648,0.17792 0.457,0.17792 0.487,0.22818 0.11,0.56794 -0.054,0.16887 -0.012,0.22013 0.505,0.39002 1.435,0.18294 0.283,0.10455 0.395,0.29854 0.254,0.0915 0.983,0.0422 0.573,-0.0633 0.546,0.10455 0.202,0.10051 0.209,0.23321 0.253,0.56492 z"
                fill="white"
                stroke="black"
                title="Libya"
                id="LY" />
        </svg>