<?xml version="1.0" encoding="UTF-8" standalone="no"?>
        <svg xmlns="http://www.w3.org/2000/svg">
            <path
                d="m 210.15,148.27215 0.129,0.30056 0.15,0.28849 0.469,0.6976 0.201,0.26839 0.171,0.28547 0.083,0.56994 0.299,0.88659 0.281,1.33489 0.086,1.37209 0.087,0.63026 0.219,0.59406 0.359,0.61719 0.116,0.68655 -0.22,0.70866 -0.317,0.66845 -0.082,0.12566 -0.149,0.17188 -0.067,-0.007 -0.254,-0.17289 -0.208,-0.28246 -0.263,-0.66443 -0.096,-0.33675 -0.11,-0.0532 -0.308,0.0292 -0.223,0.20908 -0.041,0.13168 0.048,0.37493 0.085,0.33675 0.037,0.34276 0.007,0.43123 0.083,0.13068 0.122,0.10956 0.127,0.28246 0.022,0.67348 -0.078,0.34076 -0.217,0.29351 0.013,0.16184 0.081,0.16687 -0.077,0.10052 -0.289,0.12665 -0.117,0.11258 -0.156,0.29854 -0.253,0.60915 -0.034,0.3116 0.158,0.94891 -0.044,0.67348 -0.322,1.29167 -0.186,0.61418 -0.263,0.73479 -0.402,0.97002 -0.398,1.2213 -0.338,1.25951 -0.25,0.75892 -0.284,0.74886 -0.389,1.32586 -0.33,1.34997 -0.491,1.48969 -0.678,1.66762 -0.073,0.21813 -0.141,0.85542 -0.152,0.74384 -0.182,0.73781 -0.38,1.22232 -0.043,0.37695 -0.086,0.36287 -0.366,0.76998 -0.155,0.28648 -0.109,0.30457 -0.062,0.387 -0.109,0.37394 -0.268,0.68855 -0.399,0.59306 -0.272,0.21612 -0.588,0.31362 -0.298,0.0633 -0.661,0.007 -0.64,0.17892 -0.667,0.34377 -0.642,0.39505 -0.246,0.18797 -0.271,0.10755 -0.848,0.0222 -0.254,-0.0855 -0.849,-0.64936 -0.329,-0.10655 -0.623,-0.0885 -0.188,-0.0552 -0.171,-0.0845 -0.252,-0.33875 -0.5,-0.28547 -0.12,-0.0895 -0.076,-0.19701 -0.052,-0.2121 -0.13,-0.23722 -0.096,-0.45134 -0.163,-0.31462 -0.46,-0.55587 -0.049,-0.17792 -0.037,-0.58904 0.015,-0.39806 -0.045,-0.72776 0.053,-0.34177 0.162,-0.30758 -0.066,-0.33272 -0.172,-0.34981 -0.064,-0.36086 -0.126,-0.32871 -0.482,-0.59105 -0.113,-0.2905 -0.078,-0.30055 -0.182,-0.93583 -0.022,-0.32569 0.027,-0.68755 0.067,-0.35383 0.117,-0.24627 0.029,-0.18395 0.076,-0.15782 0.114,-0.12565 0.077,-0.14977 0.18,-0.87451 0.228,-0.19401 0.338,-0.11158 0.271,-0.22817 0.156,-0.3076 0.156,-0.63427 0.426,-0.62825 0.152,-0.3297 0.344,-0.49858 0.304,-0.69961 0.092,-0.32971 0.066,-0.33673 0.077,-0.73882 0.058,-0.36689 -0.012,-0.36388 -0.174,-0.37293 -0.415,-0.6765 -0.013,-0.12565 0.033,-0.50259 -0.035,-0.36288 -0.153,-0.36186 -0.196,-0.33976 -0.193,-0.63528 -0.094,-1.04842 0.02,-0.37795 -0.057,-0.33574 -0.14,-0.31964 0.1,-0.55789 1.241,-2.02043 0.041,-0.23724 -0.05,-0.61416 0.026,-0.35685 0.043,-0.13268 0.095,-0.0774 0.212,-0.0371 1.003,-0.0875 0.129,-0.0623 0.25,-0.16887 0.344,-0.3277 0.158,-0.0945 0.136,0.0352 0.087,0.13972 0.112,0.0764 0.405,-0.14777 0.155,-0.004 0.159,0.0241 0.074,-0.1367 0.044,-0.18294 0.059,-0.12867 0.108,-0.0734 0.521,-0.0403 0.333,-0.0522 0.43,-0.12767 0.092,0.0252 0.347,0.46038 0.105,0.0392 0.135,0.0191 0.118,-0.0834 -0.282,-0.24024 -0.042,-0.1357 0.015,-0.1548 0.151,-0.33071 0.252,-0.2523 0.56,-0.38298 0.582,-0.44229 0.169,-0.0302 0.143,0.0693 0.11,0.5227 -0.014,0.0855 0.093,0.0121 0.108,-0.0643 0.096,-0.21009 0.005,-0.1749 -0.078,-0.16786 -0.038,-0.14174 -0.003,-0.13067 0.295,-0.3086 0.232,-0.29351 0.107,-0.35082 0.093,-0.16183 0.245,-0.18195 0.072,0.0282 0.057,0.14777 0.032,0.1568 -0.063,0.15581 -0.089,0.15379 -0.036,0.20506 0.138,0.0402 0.13,-0.0492 0.19,-0.37092 0.217,-0.35081 0.129,-0.18295 0.163,-0.12665 0.271,0.0252 0.263,0.0784 -0.429,-0.3699 -0.107,-0.50663 0.51,-0.87552 0.005,-0.18193 0.074,-0.0563 0.035,-0.0703 -0.264,-0.29452 -0.05,-0.14676 0.035,-0.22215 0.126,-0.19702 0.115,-0.13771 0.163,-0.0532 0.129,0.0754 0.284,0.24226 0.191,0.0371 0.231,-0.2322 0.189,-0.2905 0.284,-0.19903 0.323,-0.12364 0.491,-0.45736 0.32,-0.95493 0.025,-0.27844 -0.071,-0.33674 -0.113,-0.32066 -0.189,-0.40007 0.049,-0.0885 0.269,0.0533 0.09,-0.0563 0.292,-0.35382 0.481,-0.67751 0.158,0.001 0.136,0.12565 0.051,0.18596 0.096,0.1367 0.325,0.32167 0.163,0.23119 z m -3.358,2.67985 0.004,0.10453 -0.369,-0.0432 -0.058,-0.36087 0.181,-0.0111 0.04,-0.14776 0.11,-0.0181 0.119,0.32066 -0.027,0.15581 z m 4.475,10.28011 -0.315,0.53877 0.089,-0.44932 0.365,-0.64734 0.104,-0.0492 -0.243,0.60715 z"
                fill="white"
                stroke="black"
                title="Madagascar"
                id="MG" />
        </svg>