<?xml version="1.0" encoding="UTF-8" standalone="no"?>
        <svg xmlns="http://www.w3.org/2000/svg">
            <path
                d="m 169.234,145.82451 -0.373,-0.007 -0.469,0.0371 -0.115,0.0905 -0.035,0.20003 -0.147,0.41213 -0.082,0.15179 -0.173,0.27743 -0.244,0.39102 -0.051,0.12766 0.008,0.13168 0.144,0.53175 0.151,0.55888 0.048,0.21914 0.107,0.74384 0.06,0.52672 0.009,0.3096 0.051,0.41414 0.134,0.22416 0.141,0.14072 0.53,0.0844 0.158,0.10354 0.3,0.26436 0.656,0.73178 0.36,0.46742 0.317,0.41112 0.566,0.76495 0.44,0.59508 0.055,0.55889 0.073,0.0814 -0.148,0.41515 -0.097,0.67046 0.07,0.4453 -0.029,0.76093 -0.081,0.81119 -0.101,0.29051 -0.13,0.10956 -0.308,0.0875 -0.676,0.10152 -0.101,0.0955 -0.087,0.15782 -0.137,0.37493 -0.161,0.37795 -0.051,0.16184 0.031,0.0382 0.145,0.193 0.144,0.49355 0.026,0.84737 -0.05,0.0633 -0.2,0.0371 -0.215,-0.0111 -0.089,-0.0482 -0.08,-0.0945 -0.058,-0.18093 0.141,-0.12565 0.05,-0.22115 -0.09,-0.18897 -0.181,-0.0423 -0.23,-0.17389 -0.49,-0.56592 -0.41,-0.39706 -0.238,-0.32869 -0.243,-0.13068 -0.07,-0.0804 -0.059,-0.13872 -0.001,-0.20003 0.022,-0.14676 -0.076,-0.16586 -0.246,-0.25532 -0.112,-0.14173 -0.006,-0.16887 0.104,-0.16285 0.21,-0.19902 0.159,-0.40308 0.057,-0.26034 0.297,-0.52372 0.041,-0.45434 0.006,-0.36287 -0.018,-0.27141 -0.076,-0.55587 -0.053,-0.38399 -0.366,-0.50259 -0.119,-0.0472 -0.347,0.0442 -0.3,0.0734 -0.147,0.10454 -0.223,0.005 -0.585,0.0875 -0.184,0.0371 -0.106,0.0905 -0.062,0.0191 -0.368,-0.388 -0.323,-0.41917 -0.411,-0.71168 -0.117,-0.0855 -0.15,-0.20908 -0.125,0.0522 -0.172,0.14676 -0.093,0.0403 -0.048,-0.004 -0.031,-0.0371 -0.038,-0.0935 -0.133,-0.26839 -0.149,-0.19199 -0.158,-0.0744 -0.129,-0.0885 0.057,-0.0854 0.06,-0.0613 -0.026,-0.0633 -0.072,-0.0925 -0.28,-0.13369 -0.004,-0.0573 0.247,-0.1156 0.156,-0.13771 0.106,-0.13168 0.134,-0.28849 0.109,-0.28748 0.082,-0.0935 0.028,-0.18999 -0.019,-0.2141 0.055,-0.27342 0.026,-0.25833 -0.083,-0.10052 -0.07,-0.1739 0.083,-0.29553 0.13,-0.20404 0.623,-0.2121 0.434,-0.19199 0.092,-0.0834 0.147,-0.16384 0.082,-0.15983 -0.059,-0.0472 -0.341,-0.004 -0.084,-0.0613 -0.246,-0.56191 0.136,-0.64332 0.012,-0.2523 -0.003,-0.31362 -0.043,-0.22818 -0.108,-0.0955 -0.066,-0.12263 0.018,-0.33473 0.1,-0.0402 0.216,-0.44229 0.096,-0.26035 -0.115,-0.20807 -0.127,-0.29653 -0.058,-0.18898 -0.032,-0.0623 0.088,-0.1166 0.146,-0.11258 0.164,-0.0312 0.173,-0.0532 0.545,-0.54885 0.007,-0.10655 -0.099,-0.18395 -0.204,-0.27743 -0.045,-0.11258 -0.024,-0.33373 -0.081,-0.0995 -0.299,-0.22416 -0.23,-0.23621 0.072,-0.23924 0.039,-0.26136 -0.114,-0.14374 -0.169,-0.14877 -0.105,-0.21712 -0.048,-0.16183 -0.133,-0.0643 -0.123,-0.002 -0.09,0.10052 -0.097,-0.009 -0.118,-0.0352 -0.039,-0.13972 -0.007,-0.15077 -0.081,-0.10254 -0.078,-0.14273 -0.01,-0.0754 0.049,-0.0222 0.103,-0.0131 0.439,0.28648 0.266,0.0131 0.296,0.0532 0.253,0.25231 0.131,0.0332 0.167,-0.0352 0.478,-0.0262 0.192,0.0362 0.247,0.14776 0.097,0.0201 0.155,0.006 0.027,-0.0402 0.016,-0.0875 -0.027,-0.17692 0.035,-0.0955 0.094,-0.10354 0.261,0.12063 0.652,0.55084 0.02,0.0714 0.416,0.54683 0.135,0.23119 0,0.12263 0.128,0.47847 0.028,0.22416 -0.029,0.17088 0.005,0.13672 0.05,0.19499 -0.017,0.0824 0.148,0.28648 0.071,0.24124 0.015,0.23521 -0.042,0.23019 -0.131,0.33473 -0.022,0.1347 0.029,0.12263 0.085,0.1337 0.141,0.14374 0.106,0.17289 0.072,0.20405 0.061,0.0925 0.076,-0.002 0.14,0.0312 0.112,0.11962 0.13,0.20003 0.043,0.2302 0.026,0.0995 z m -0.892,1.24845 -0.056,0.15178 -0.116,-0.002 -0.109,-0.13469 0.035,-0.10455 0.105,-0.0322 0.092,0.0392 0.049,0.0824 z m 0.218,0.27743 -0.099,0.0231 -0.062,-0.0512 0.015,-0.15279 0.035,-0.11057 0.098,-0.0171 0.068,0.0292 0.047,0.0502 0.001,0.0814 -0.029,0.0834 -0.074,0.0643 z"
                fill="white"
                stroke="black"
                title="Malawi"
                id="MW" />
        </svg>