<?xml version="1.0" encoding="UTF-8" standalone="no"?>
        <svg xmlns="http://www.w3.org/2000/svg">
            <path
                d="m 82.985,58.47324 0.002,0.51868 0.002,0.78104 0.003,0.86948 0.002,0.80014 0.003,0.9107 0.003,0.73078 0.002,0.86346 0.003,0.85743 -0.089,0.0985 -0.033,0.48149 -0.025,0.63327 -0.171,0.65538 -0.299,0.48249 -0.108,0.45837 -0.082,0.26236 -0.112,0.14274 -0.026,0.17088 -0.059,0.24124 -0.095,0.15581 -0.074,0.0804 -0.301,0.0945 -0.53,0.46138 -0.046,0.3689 -0.604,-0.10152 -0.642,-0.10454 -0.086,0.007 -0.054,0.0482 -0.026,0.19501 -0.874,0.0322 -0.754,0.0282 -0.934,0.0322 -0.642,0.0221 -0.814,0.0442 -0.755,0.0412 -0.502,0.42418 -0.453,0.40409 -0.036,0.0141 -0.642,0.0794 -0.801,-0.0704 -0.412,-0.004 -0.162,0.0482 -0.031,0.15179 -0.59,-0.21311 -0.682,-0.21611 -0.476,0.1357 -0.076,-0.0462 -0.062,-0.0905 -0.23,-0.0522 -0.365,0.0231 -0.264,0.0643 -0.414,0.31964 -0.312,0.27844 -0.085,0.0633 -0.436,0.16887 -0.81,0.39203 -0.46,0.28849 -0.106,0.0522 -0.204,0.0653 -0.314,0.0131 -0.262,0.0724 -0.236,0.75791 -0.157,0.0754 -0.966,-0.30559 -0.195,0.0452 -0.168,0.0895 -0.539,0.44429 -0.267,0.35584 -0.146,0.47244 0.021,0.14576 0.004,0.16485 -0.095,0.0895 -0.13,0.0322 -0.117,-0.005 -0.448,-0.0975 -0.14,0.0422 -0.061,0.23321 0.009,0.50863 -0.098,0.34579 -0.266,0.10654 -0.206,0.13671 -0.162,0.0391 -0.135,-0.0331 -0.779,-0.51668 -0.263,-0.0824 -0.292,0.0573 -0.28,0.21912 -0.127,0.14375 -0.175,0.16988 -0.197,0.22617 0.052,0.19098 0.139,0.22215 0.099,0.27542 -0.005,0.24628 -0.711,0.3498 0.058,0.11962 0.107,0.14073 0.001,0.25431 -0.02,0.4453 -0.144,0.16083 -0.186,0.15882 -0.115,0.20406 -0.113,0.10051 -0.202,0.12566 -0.277,0.12665 -0.48,0.11057 -0.384,0.0744 -0.145,0.0724 -0.204,0.14877 -0.163,0.17892 -0.039,0.193 0.033,0.22114 0.057,0.18093 0.071,0.12364 0.043,0.15581 -0.058,0.41917 -0.139,0.4855 -0.134,0.21612 -0.215,0.11861 -0.186,0.13269 0.061,0.31764 0.032,0.45535 -0.052,0.36388 -0.009,0.22416 -0.079,0.2332 -0.046,0.16385 -0.093,-0.0403 -0.386,0.0191 -0.42,0.12464 -0.147,0.0995 -0.032,0.1357 -0.093,0.0915 -0.134,0.10253 -0.129,0.12565 -0.232,-0.0201 -0.224,-0.0864 -0.117,-0.0834 -0.007,-0.0502 0.073,-0.12263 0.063,-0.13369 0.006,-0.0885 -0.076,-0.21713 -0.062,-0.2332 0.025,-0.11157 -0.055,-0.34378 -0.03,-0.0171 -0.294,0.0885 -0.107,0.0221 -0.061,0.0383 -0.02,0.0653 0.071,0.21813 -0.046,0.0371 -0.165,-0.005 -0.23,-0.0724 -0.251,-0.20003 -0.063,0.0653 -0.027,0.15882 -0.017,0.18797 0.064,0.34177 -0.067,0.12163 -0.168,-0.0221 -0.226,10e-4 -0.197,0.0332 -0.131,0.008 -0.081,0.12163 -0.035,0.13671 0.079,0.15077 -0.012,0.0643 -0.061,0.0583 -0.077,0.0352 -0.064,-0.004 -0.182,-0.16787 -0.218,-0.0623 -0.507,-0.0965 -0.061,-0.22918 -0.084,-0.004 -0.117,-0.12063 -0.116,-0.15982 -0.098,0.008 -0.082,0.0452 -0.278,-0.0181 -0.247,0.24225 -0.183,0.30156 -0.196,0.14474 -0.216,0.0633 -0.083,0.002 0.045,-0.18998 -0.031,-0.13972 -0.061,-0.12364 -0.629,-0.33071 -0.098,-0.1367 -0.099,-0.37595 -0.063,-0.37594 0.007,-0.22014 0.043,-0.19802 -0.018,-0.15278 -0.069,-0.11661 -0.189,-0.11258 -0.196,-0.0522 -0.25,0.14676 -0.12,0.0282 -0.112,-0.0101 -0.058,-0.0542 0.008,-0.0754 0.272,-0.40308 0.132,-0.16787 0.159,-0.12866 0.107,-0.0683 0.069,-0.0985 0.006,-0.0784 -0.025,-0.0563 -0.177,-0.0744 -0.276,-0.18796 -0.147,-0.0201 -0.123,-0.0855 -0.13,-0.29453 -0.061,-0.0563 -0.13,-0.0302 -0.12,-0.0724 0.006,-0.38299 0.005,-0.3307 -0.268,-0.53275 -0.104,-0.33574 -0.135,-0.34578 -0.124,-0.16184 -0.217,-0.1357 -0.267,-0.0945 -0.237,-0.0222 -0.182,0.0322 -0.085,0.0423 0.004,0.0643 0.148,0.21813 0.027,0.12163 -0.025,0.1176 -0.05,0.0784 -0.131,0.009 -0.23,0.0673 -0.283,0.13269 -0.198,0.11359 -0.159,0.28748 -0.11,0.0362 -0.187,-0.0362 -0.533,-0.21209 -0.439,-0.17491 -0.303,-0.10052 -0.182,0.0643 -0.093,0.0312 -0.261,0.1166 -0.347,0.4252 -0.083,0.14072 -0.069,0.0452 -0.094,0.0744 -0.09,0.002 -0.072,-0.0502 -0.023,-0.0312 -0.178,-0.30659 -0.195,-0.33774 -0.16,-0.15278 -0.201,-0.007 -0.171,0.10554 -0.179,0.21713 -0.225,0.20103 -0.143,0.0603 -0.125,-0.0332 -0.307,-0.25331 -0.219,-0.18093 -0.027,-0.0905 0.077,-0.13872 0.076,-0.20706 0.083,-0.16787 0.08,-0.0774 0.02,-0.21411 -0.186,-0.15178 -0.006,-0.0734 0.019,-0.20104 0.083,-0.4252 -0.008,-0.16183 0.075,-0.31664 -0.122,-0.14274 -0.028,-0.10554 -0.137,-0.16887 -0.157,-0.23924 -0.036,-0.19199 -0.055,-0.15279 -0.151,-0.23019 -0.11,-0.0362 -0.236,-0.0352 -0.039,0.0794 -0.087,0.11459 -0.08,0.0332 -0.129,-0.14073 -0.049,-0.12062 10e-4,-0.10957 -0.175,-0.19199 -0.272,-0.35182 0.028,-0.2905 0.168,-0.15681 0.05,-0.11861 0.015,-0.13269 -0.076,-0.16083 -0.09,-0.12666 0.025,-0.28044 -0.022,-0.39002 -0.138,-0.19501 -0.125,-0.14273 -0.175,-0.1538 -0.149,-0.23722 0.06,-0.32569 0.057,-0.22415 -0.264,-0.46541 0.494,0.18395 0.065,-0.0603 0.168,-0.11258 0.227,-0.23723 0.19,-0.31462 0.086,-0.38901 0.038,-0.33573 0.085,-0.28448 0.108,-0.24124 0.236,-0.2513 0.222,-0.17792 0.264,-0.18495 0.134,0.0332 0.251,0.25833 0.551,0.51767 0.455,0.39404 0.166,0.20908 0.147,0.002 0.226,-0.38197 0.234,-0.3287 0.099,-0.0804 0.308,-0.0362 0.262,-0.0141 0.229,0.006 0.42,0.0633 0.192,0.0583 0.18,0.0352 0.528,0.0292 0.523,-0.0804 0.497,-0.10353 0.368,-0.0613 0.019,-0.1558 -0.021,-0.18395 0.059,-0.13972 0.116,-0.12968 0.098,-0.0292 0.042,0.44229 0.117,0.0663 0.328,0.0191 0.533,0 0.572,0 0.572,0 0.573,0 0.572,0 0.572,0 0.573,0 0.572,0 0.573,0 0.572,0 0.572,0 0.572,0 0.573,0 0.572,0 0.573,0 0.572,0 0.573,0 0.593,0 0.16,-0.85341 0.146,-0.78305 0.122,-0.65739 -0.42,-0.4644 -0.334,-0.36991 -0.078,-0.70565 -0.079,-0.72876 -0.08,-0.72977 -0.081,-0.73078 -0.079,-0.73178 -0.08,-0.73278 -0.08,-0.73379 -0.08,-0.7348 -0.08,-0.7358 -0.08,-0.73781 -0.08,-0.73782 -0.08,-0.73881 -0.08,-0.74083 -0.079,-0.74183 -0.08,-0.74284 -0.081,-0.74485 -0.079,-0.74484 -0.08,-0.74686 -0.08,-0.74786 -0.08,-0.74888 -0.08,-0.75088 -0.08,-0.75088 -0.08,-0.75389 -0.08,-0.75389 -0.08,-0.75591 -0.079,-0.75691 -0.08,-0.75891 -0.08,-0.75993 -0.08,-0.76194 -0.08,-0.76294 -0.08,-0.76395 -0.08,-0.76596 -0.08,-0.76797 -0.075,-0.70464 0.862,0 0.919,-9.9e-4 0.895,0 1.313,-10e-4 0.983,0 0.857,0.59105 0.777,0.55788 0.919,0.66041 0.919,0.65941 0.92,0.6584 0.919,0.65639 0.919,0.65538 0.918,0.6554 0.92,0.65236 0.919,0.65338 0.919,0.65136 0.919,0.65036 0.919,0.64936 0.919,0.64834 0.919,0.64736 0.919,0.64633 0.919,0.64534 0.919,0.64533 0.411,0.28748 0.038,0.11862 0.038,0.24225 -0.024,0.27241 0.004,0.22214 0.121,0.14978 0.229,0.16083 0.899,0.47445 0.071,0.0935 0.032,0.19601 0.107,0.24024 0.19,0.14073 0.222,0.10354 0.271,0.0724 0.815,0.0744 0.173,0.11157 0.352,0.43726 0.191,0.0865 0.543,0.12564 0.393,0.0704 0.162,0.0403 0.356,0.1166 0.387,0.19903 0.205,0.17993 0,0.0563 -0.002,0.15681 -0.003,0.46943 0.071,0.25833 0.081,0.18696 -0.004,0.11359 -0.098,0.0804 -0.076,0.0995 -0.042,0.13068 -0.111,0.16585 -0.089,0.18496 0.038,0.13871 0.153,0.0905 0.229,0.1759 0.19,0.0744 0.093,0.005 0.124,-0.005 0.107,-0.0231 0.686,-0.13469 0.636,-0.12565 z"
                fill="white"
                stroke="black"
                title="Mali"
                id="ML" />
        </svg>