<?xml version="1.0" encoding="UTF-8" standalone="no"?>
        <svg xmlns="http://www.w3.org/2000/svg">
            <path
                d="m 109.307,74.3764 0.441,0.6202 0.474,0.66644 0.369,0.51768 0.27,1.33992 0.029,0.25432 0.021,0.11459 0.021,0.10554 0.035,0.18194 0.212,0.0784 0.4,0.0361 0.291,0.13168 0.174,0.21813 0.017,0.0362 0.092,0.16786 0.021,0.12163 -0.025,0.34981 -0.059,0.44933 -0.1,0.28948 0.056,0.39404 -0.018,0.16787 -0.044,0.11459 -0.179,0.13168 -0.243,0.12866 -0.581,0.37997 -0.166,0.0563 -0.243,0.0101 -0.211,0.0945 -0.25,0.20506 -0.54,0.76193 -0.461,0.76496 -0.16,0.63226 -0.18,0.60312 -0.406,0.38499 -0.057,0.21611 -0.017,0.12565 -0.014,0.29051 -0.049,0.48048 -0.063,0.23119 -0.065,0.0683 -0.438,0.14675 -0.252,0.17591 -0.151,0.3488 -0.055,0.37695 -0.088,0.42922 -0.05,0.37694 -0.068,0.19501 -0.144,0.20507 -0.223,0.22013 -0.193,0.12464 -0.503,0.0814 -0.259,0.49857 -0.219,0.38901 -0.006,0.15581 -0.211,0.80616 -0.367,0.60713 -0.024,0.21411 -0.001,0.17591 -0.459,0.53376 -0.122,0.15782 -0.117,0.20606 0.116,0.19902 0.129,0.18094 0.019,0.0613 -0.208,0.16987 -0.364,0.29553 -0.217,0.17691 -0.048,0.0965 -0.032,0.44328 -0.063,0.11962 -0.145,0.16284 -0.213,0.17893 -0.216,0.13872 -0.245,0.0965 -0.235,0.0362 -0.132,-0.0563 -0.075,-0.1347 -0.132,-0.5428 -0.067,-0.1166 -0.153,-0.10555 -0.302,-0.29753 -0.306,-0.30056 -0.369,-0.21109 -0.079,0.0151 -0.061,0.0573 -0.105,0.30257 -0.103,0.11057 -0.194,0.0383 -0.337,0.002 -0.246,-0.0423 -0.056,-0.0603 -0.05,-0.13068 -0.068,-0.10454 -0.294,0.2121 -0.462,0.33372 -0.15,0.0542 -0.115,0.0673 -0.152,0.3106 -0.185,0.33272 -0.241,0.17391 -0.235,0.14675 -0.135,0.12766 -0.193,0.15078 -0.378,0.37695 -0.501,0.49857 -0.177,0.25734 -0.175,0.38498 -0.102,0.42621 -0.111,0.4664 -0.163,0.74988 -0.24,0.42419 -0.21,0.33673 -0.156,0.26437 -0.082,0.21813 -0.034,-0.007 -0.082,0.0935 -0.234,-0.0613 -0.105,-0.18999 -0.145,-0.0312 -0.25,-0.27843 -0.053,0.0462 0.264,0.70766 -0.098,0.27643 -0.743,0.006 -0.639,0.0925 -0.439,-0.008 -0.22,-0.10052 -0.098,-0.26537 -0.038,0.0272 -0.022,0.14173 -0.139,0.11158 -0.493,0.0211 -0.218,-0.18094 -0.176,-0.20305 -0.189,-0.0895 0.029,0.0844 0.217,0.19802 -0.026,0.28447 -0.397,0.3297 -0.253,0.0191 -0.155,-0.14173 -0.081,-0.23119 -0.041,-0.34177 -0.104,-0.22315 -0.056,0 0.052,0.20405 0.017,0.16686 0.002,0.34679 0.189,0.26939 -0.29,0.0834 -0.118,0.003 -0.23,0.006 -0.044,-0.10052 -0.044,-0.22315 -0.061,-0.0583 -0.071,0.37795 -0.153,0.0262 -0.106,-0.003 -0.456,0.0824 -0.102,-0.0161 -0.021,-0.0703 0.054,-0.10455 -0.012,-0.16988 -0.158,0.13068 -0.025,0.26235 -0.09,0.0423 -0.271,-0.0371 -0.297,-0.1347 -0.181,-0.1377 -0.302,-0.19199 -0.592,-0.53779 -0.096,-0.24225 -0.169,-0.29653 -0.126,-0.30155 -0.182,-0.51467 0.056,-0.0371 0.137,0.0442 0.067,-0.0774 -0.246,-0.0563 -0.051,-0.0603 -0.017,-0.18094 0.011,-0.22114 0.2,-0.0774 0.173,-0.0383 0.087,-0.13369 0.05,-0.13469 -0.459,0.20405 -0.431,-0.2312 -0.093,-0.13972 0.047,-0.10755 0.206,-0.0161 0.294,0.008 0.176,-0.10454 -0.108,-0.0372 -0.19,0.004 -0.07,-0.0694 0.006,-0.16787 -0.062,0.0372 -0.082,0.14877 -0.29,0.10956 -0.17,-0.10956 -0.017,-0.24326 -0.037,-0.10956 -0.143,-0.0855 -0.508,-0.64433 -0.638,-0.53777 -0.567,-0.37091 -0.857,-0.17692 -1.794,0.007 -0.101,-0.0512 0.11,-0.0844 0.157,-0.0573 0.577,-0.30056 -0.097,-0.0402 -0.6,0.18797 -0.205,0.0181 -0.266,0.36086 -1.58,0.0603 -0.185,0.0191 0.004,-0.16486 0.077,-0.47444 0.051,-0.18697 0.059,-0.14073 -0.061,-0.16887 -0.06,-0.22919 -0.029,-0.35985 0.074,-0.11158 0.025,-0.1357 -0.018,-0.21311 0,-0.71167 0.043,-0.0774 0.051,-0.0593 0.003,-0.0945 -0.096,-0.18395 -0.089,-0.21009 0.003,-0.30256 -0.036,-0.29251 -0.061,-0.1337 0.046,-0.49857 0.026,-0.63126 -0.024,-0.28045 0.058,-0.19802 0.031,-0.48752 -0.005,-0.47746 0.118,-0.75491 0.346,-0.0361 0.412,-0.0633 0.184,-0.29654 0.106,-0.37593 -0.034,-0.37192 0.08,-0.12264 0.165,-0.20204 0.298,-0.28849 -0.012,-0.31664 0.082,-0.0975 0.141,-0.0734 0.202,-0.0371 0.226,-0.15782 0.125,-0.27643 0.123,-0.44228 -0.194,-0.3086 0.003,-0.0683 0.074,-0.16586 0.119,-0.16586 0.094,-0.0532 0.22,0.0422 0.038,-0.0141 0.034,-0.0522 0.142,-0.48952 -0.013,-0.13168 -0.205,-0.3277 -0.034,-0.2332 -0.03,-0.34679 -0.05,-0.30759 -0.059,-0.1166 -0.109,-0.0975 -0.049,-0.0633 -0.424,-0.62523 0.007,-0.29652 0.178,-0.37897 0.116,-0.18395 0.162,-0.10253 0.032,-0.0875 -0.048,-0.10655 -0.082,-0.0804 -0.019,-0.17089 0.023,-0.11358 0.058,-0.12464 -0.023,-0.26136 0.005,-0.40107 0.027,-0.58502 0.008,-0.35785 0.344,-0.26537 0.501,-0.43927 0.255,-0.45938 0.137,-0.34779 0.168,-1.15798 0.122,-0.0704 0.144,-0.0542 0.503,-0.42218 0.387,-0.15681 0.296,-0.0905 0.445,-0.0764 0.276,0.0312 0.503,0.0191 0.396,-0.0422 0.336,-0.23019 0.152,-0.0643 0.214,-0.0402 0.972,0.31059 0.971,0.29352 0.176,-0.0272 0.148,0.0412 0.243,0.15882 0.358,0.34076 0.213,0.22014 0.103,0.12866 0.499,0.73882 0.186,0.18596 0.187,0.10153 0.19,0.0361 0.146,-0.0141 0.138,-0.0834 0.188,-0.16484 0.286,-0.0754 0.233,0.0151 1.209,-0.66444 0.117,-0.009 0.352,0.0522 0.391,0.0915 1.013,0.66644 0.827,0.43626 0.581,0.14575 0.685,0.10353 1.163,0.0312 0.879,-0.93382 0.325,-0.20406 0.392,-0.18395 0.126,-0.0312 0.691,-0.14174 1.355,-0.11961 1.271,0.0522 0.25,0.0371 0.54,0.12364 0.832,0.30458 0.359,0.2925 0.564,0.0482 0.404,-0.0583 0.132,-0.28949 0.406,-0.38097 0.295,-0.1548 0.313,-0.19802 0.496,-0.24628 0.408,-0.11056 0.365,-0.28247 0.289,-0.0895 0.502,-0.007 z m -17.697,26.38531 -0.271,0.0855 -0.178,-0.0211 0.244,-0.37192 0.124,0.0804 0.159,0.0332 -0.078,0.19401 z"
                fill="white"
                stroke="black"
                title="Nigeria"
                id="NG" />
        </svg>