<?xml version="1.0" encoding="UTF-8" standalone="no"?>
        <svg xmlns="http://www.w3.org/2000/svg">
            <path
                d="m 215.004,41.94988 -0.253,0.0633 -0.237,0.0673 -0.198,-0.002 -0.16,-0.0262 -0.106,-0.0653 -0.204,-0.26135 -0.144,-0.33876 0.089,-0.18897 0.03,-0.11761 -0.195,-0.89462 -0.063,-0.68856 0.023,-0.14072 0.111,-0.16284 0.186,-0.35986 0.099,-0.34679 0.278,-0.80215 0.295,-0.3096 0.432,-0.22717 0.356,0.44429 0.432,0.33876 0.083,0.37895 -0.127,0.3086 -0.118,0.48852 0.071,0.22517 0.026,0.195 0.117,0.32669 0.114,0.42319 0.019,0.29452 -0.061,0.2724 -0.151,0.22919 -0.296,0.68755 -0.088,0.0714 z"
                fill="white"
                stroke="black"
                title="Qatar"
                id="QA" />
        </svg>