<?xml version="1.0" encoding="UTF-8" standalone="no"?>
        <svg xmlns="http://www.w3.org/2000/svg">
            <path
                d="m 156.746,116.14619 -0.092,0.0432 -0.019,0.13571 0.106,0.21612 0.348,0.4463 0.221,0.0814 0.144,0.1739 0.142,0.29251 0.042,0.3669 -0.059,0.44027 0.035,0.32669 0.128,0.21511 0.033,0.27844 -0.06,0.34176 -0.074,0.20507 -0.087,0.0683 -0.099,0.0252 -0.134,-0.0231 -0.163,0.0292 -0.177,0.0643 -0.112,0.009 -0.07,-0.0121 -0.13,-0.0553 -0.207,-0.17691 -0.386,0.0975 -0.105,-0.002 -0.141,0.0845 -0.116,0.10353 -0.069,0.007 -0.072,-0.0141 -0.332,-0.20807 -0.122,0.006 -0.05,0.58603 -0.055,0.32668 -0.069,0.14475 -0.238,0.13973 -0.239,0.0794 -0.131,-0.005 -0.527,0.0432 -0.206,0.001 -0.114,-0.0472 -0.148,-0.33272 -0.279,-0.14775 -0.268,-0.0694 -0.109,0.0191 -0.097,0.1739 -0.04,0.1558 -0.26,-0.10655 -0.078,-0.13168 -0.007,-0.22315 -0.095,-0.30558 0.053,-0.12967 0.102,-0.0844 0.216,-0.16082 0.328,-0.22416 0.07,-0.10555 0.046,-0.17792 -0.021,-0.41313 -0.031,-0.3488 0.039,-0.12364 0.15,-0.26939 0.2,-0.27644 0.235,-0.2915 0.141,-0.0282 0.185,-0.10957 0.196,-0.16385 0.11,-0.0613 0.092,-0.002 0.605,-0.14475 0.06,0.0452 0.098,0.28045 0.052,0.0412 0.084,0.0101 0.17,-0.0643 0.311,-0.22013 0.136,-0.13269 0.16,-0.18797 0.205,-0.21109 0.114,-0.18496 0.111,-0.10755 0.146,-0.0322 0.162,0.009 z"
                fill="white"
                stroke="black"
                title="Rwanda"
                id="RW" />
        </svg>