<?xml version="1.0" encoding="UTF-8" standalone="no"?>
        <svg xmlns="http://www.w3.org/2000/svg">
            <path
                d="m 187.682,117.90628 0.013,-0.2302 -0.044,-0.11459 -0.266,-0.34477 -0.497,-0.64132 -0.376,-0.48551 -0.385,-0.49556 -0.002,-0.39705 -0.004,-1.1811 -0.01,-2.3612 -0.008,-2.3622 -0.01,-2.36221 -0.005,-1.1821 -0.001,-0.4835 0.04,-0.0784 0.439,-0.43324 0.58,-0.57496 0.762,-1.09064 0.414,-0.59407 0.346,-0.49355 0.087,-0.15078 0.306,-0.29954 0.573,-0.17893 0.356,-0.0302 1.225,-0.22416 0.182,-0.0905 0.107,-0.10353 0.102,-0.23622 0.238,-0.33172 0.308,-0.22918 0.585,-0.29754 0.573,-0.2523 0.127,-0.0412 0.69,-0.15881 0.169,-0.0542 0.279,-0.0553 0.11,-0.002 0.958,0.0552 0.75,0.0442 0.771,0.0443 0.082,-0.0342 0.539,-0.58904 0.858,-0.93985 0.548,-0.5991 0.846,-0.92678 0.65,-0.66947 0.719,-0.73981 0.699,-0.67751 0.839,-0.81521 0.53,-0.51365 0.822,-0.79813 0.783,-0.76093 0.692,-0.67247 -0.955,0 -0.933,0 -0.919,0 -0.164,-0.0814 -0.772,-0.26136 -0.978,-0.3307 -1.214,-0.41012 -0.865,-0.2915 -0.922,-0.30659 -0.935,-0.3096 -0.734,-0.24325 -0.915,-0.30357 -0.795,-0.26437 -0.109,-0.0643 -0.441,-0.40309 -0.579,-0.52973 -0.111,-0.009 -0.276,-0.11057 -0.248,-0.28648 -0.256,-0.36589 -0.237,-0.45836 -0.103,-0.31162 -0.317,-0.13168 -0.152,-0.24627 -0.287,-0.36488 -0.199,-0.17692 -0.071,-0.15479 -0.092,-0.31966 -0.164,-0.3488 -0.157,-0.21511 -0.036,-0.0935 0.009,-0.0603 0.291,-0.47244 0.131,-0.16889 0.149,-0.16283 0.121,-0.16284 0.047,-0.11158 0.353,-0.55688 0.311,-0.49053 0.243,-0.38298 0.548,0.43826 0.533,0.88859 0.621,0.71772 0.858,0.66543 0.34,0.22517 0.301,0.1186 1.561,-0.0181 1.108,-0.60714 1.006,-0.44028 0.338,-0.0915 0.584,0.12062 0.644,0.0362 0.579,0.13369 0.294,-0.0342 1.146,-0.51165 0.72,-0.49858 0.491,-0.2121 0.193,-0.002 0.67,0.17993 0.861,-0.0784 1.178,-0.43023 0.375,-0.0875 0.286,-0.006 0.641,0.194 0.1,-0.0101 0.347,-0.0362 0.915,-0.20505 0.713,-0.3096 1.313,-0.22416 0.999,-0.56693 0.175,-0.27442 0.302,-0.34579 0.438,-0.11358 1.12,0.40609 0.179,0.0322 -0.065,0.24526 -0.039,0.2503 -0.229,0.43626 -0.147,0.4845 0.108,0.73982 0.052,1.19819 -0.027,0.17389 -0.074,0.17089 -0.031,0.1357 -0.121,0.0472 -0.053,0.0774 0.088,0.0302 0.35,-0.12967 -0.006,-0.14374 0.02,-0.0704 0.288,0.15983 0.206,0.0663 0.06,0.15078 -0.016,0.10253 -0.327,-0.0472 -0.167,-0.0794 -0.485,0.13068 -0.297,0.14072 -0.089,0.23521 -0.069,0.93684 -0.115,0.60714 -0.022,0.80315 -0.393,0.53074 -0.132,0.37393 -0.584,0.74987 -0.304,0.63931 -0.1,0.31261 -0.513,0.87653 -0.705,0.67147 -0.254,0.85744 -0.252,0.53777 -0.285,0.48651 -0.622,0.86648 -0.318,0.60111 -0.399,1.04338 -0.123,0.65941 -1.123,1.91389 -1.165,1.52387 -0.725,1.28162 -1.302,1.48568 -1.775,1.9169 -2.324,2.27375 -0.63,0.46339 -2.543,1.40224 -1.649,1.17407 -0.842,0.79912 -0.884,0.69561 -0.702,0.66241 -2.121,2.23355 -0.218,0.21008 -0.206,0.19802 -0.267,0.37896 -0.186,0.14978 -0.506,0.6393 -0.317,0.3307 -0.354,0.3277 -0.151,0.23119 -0.106,0.26638 -0.119,0.14777 -0.319,0.63528 -0.282,0.41615 z"
                fill="white"
                stroke="black"
                title="Somalia"
                id="SO" />
        </svg>