<?xml version="1.0" encoding="UTF-8" standalone="no"?>
        <svg xmlns="http://www.w3.org/2000/svg">
            <path
                d="m 158.929,177.61474 0.015,0.15982 0.02,0.0724 0.134,0.42118 0.2,0.63125 0.133,0.58302 0.183,0.80113 -0.006,0.44732 0.045,0.17289 0.164,0.21611 0.201,0.37193 0.068,0.21008 0.067,0.15782 0.212,0.29955 0.165,0.45434 0.14,0.60212 0.12,0.28949 0.045,0.14274 0.054,0.25933 -0.007,0.54784 0.003,0.63628 0.004,0.71068 0.003,0.58804 -0.021,0.29753 0.015,0.84738 -0.181,0.44128 0.022,0.3478 0.056,0.22516 -0.074,0.0351 -0.141,0.0403 -0.648,-0.35685 -0.632,-0.37694 -0.091,-0.0111 -0.133,0.0393 -0.358,0.27342 -0.335,0.42821 -0.154,0.36588 -0.247,0.37795 -0.398,0.60916 -0.041,0.13168 -0.004,0.49657 0.019,0.47344 0.035,0.0663 0.215,0.0221 0.154,0.38801 0.352,0.6192 0.591,0.39806 0.549,0.18093 0.766,0.0452 0.606,-0.0131 -0.035,-0.41816 0.06,-0.67046 0.077,-0.45032 0.085,-0.0201 0.159,0.0433 0.088,0.0462 0.243,-0.0191 0.432,0.0885 0.349,-0.009 0.312,-0.009 0.527,-0.0151 0.308,-0.005 -0.104,0.72675 -0.402,1.1409 -0.137,0.52471 -0.343,1.88071 -0.448,0.95192 -0.251,0.39403 -0.726,0.69761 -0.202,0.14173 -0.179,0.0905 -0.318,0.0804 -1.244,1.41732 -0.463,0.68554 -0.412,1.00218 -0.409,0.55184 -0.601,1.1801 -0.537,0.91372 -0.515,0.83632 -0.891,1.15396 -0.396,0.33474 -0.267,0.15278 -0.708,0.67248 -0.997,1.08561 -0.763,0.96498 -1.141,1.09968 -0.661,0.48249 -0.992,0.95192 -0.277,0.14073 -1.118,0.88758 -0.804,0.54079 -1.301,0.62825 -0.517,0.17591 -1.235,-0.16284 -0.515,0.0864 -0.431,0.37997 -0.04,0.54683 -0.18,0.0824 -0.272,-0.0241 -0.863,-0.22818 -0.468,0.0432 -0.273,0.29251 -0.22,0.36991 -0.65,0.0191 -1.158,-0.38298 -1.362,-0.2332 -0.315,-0.0262 -0.66,0.28447 -0.23,0.0412 -0.961,-0.0613 -0.533,-0.17892 -0.51,-0.001 -0.391,0.14776 -0.474,0.0522 -1.281,1.03032 -0.662,0.001 -0.571,0.11962 -0.283,-0.004 -0.53,-0.14475 -0.197,0.0101 -0.302,0.0643 -0.302,0.18195 -0.688,0.0784 -0.267,0.15581 -1.162,0.94589 -0.265,-0.0382 -0.214,-0.0613 -0.604,-0.0121 -0.683,-0.5036 -0.262,0.0322 0.07,-0.15078 0.021,-0.26738 -0.145,-0.18898 -0.097,-0.0844 -0.268,0.0161 -0.143,-0.22718 -0.41,-0.0211 -0.142,0.0573 -0.197,0.0121 -0.017,-0.23019 0.015,-0.14475 -0.012,-0.22215 -0.049,-0.27241 -0.159,-0.0865 -0.122,-0.0362 -0.29,0.0191 -0.2,0.0292 -0.094,0.0794 -0.107,0.20005 -0.001,0.60713 -0.144,-0.1739 -0.164,-0.36388 -0.053,-0.388 0.059,-0.45737 0.311,-0.1739 -0.024,-0.30859 -0.066,-0.26738 -0.347,-0.68353 -0.135,-0.31262 -0.294,-0.21108 -0.229,-0.50864 -0.23,-0.18395 -0.096,-0.35583 -0.225,-0.28346 -0.076,-0.44832 0.124,-0.25633 0.196,-0.14072 0.2,0.22214 0.249,-0.0865 0.353,-0.32367 0.209,-0.49054 0.013,-0.78303 -0.054,-0.48752 -0.28,-1.25649 -0.132,-0.2885 -0.632,-0.89562 -0.733,-1.19518 -0.927,-1.87469 -0.443,-1.12179 -0.671,-2.25163 -0.591,-1.26755 -0.726,-1.17808 -0.093,-0.0764 0.111,-0.14274 0.391,-0.2714 0.177,-0.0734 0.095,0.0341 0.092,-0.0744 0.089,-0.18395 0.02,-0.17189 0.044,-0.24326 0.087,-0.14575 0.096,-0.2895 0.163,-0.18596 0.345,-0.12364 0.261,0.16385 0.109,0.15983 0.045,0.21108 0.116,0.10253 0.186,-0.007 0.131,0.12966 0.076,0.26739 -0.015,0.193 -0.106,0.12062 0.015,0.15782 0.135,0.19601 0.056,0.18696 0.09,0.24728 0.474,0.14374 0.232,0.0804 0.399,0.0272 0.377,0.11057 0.355,0.193 0.584,0.0462 0.813,-0.0995 0.669,0.0442 0.525,0.18898 0.381,0.0352 0.236,-0.11962 0.103,-0.17188 -0.032,-0.22517 0.117,-0.14173 0.265,-0.0603 0.212,-0.16887 0.16,-0.27844 0.369,-0.22617 0.579,-0.17391 0.288,0.006 0,-0.44932 0,-1.41532 0,-1.40827 0,-1.40325 0,-1.39822 0,-1.39219 0,-1.38616 0,-1.38215 0,-1.29971 0.135,0.0935 0.889,0.68956 0.24,0.36288 0.119,0.23019 0.382,0.83732 0.284,0.75289 0.231,0.56895 0.018,0.26034 0.033,0.25431 0.033,0.12565 -0.021,0.13872 -0.163,0.3106 -0.166,0.23722 -0.2,0.32468 -0.019,0.42922 0.06,0.50661 0.123,0.25231 0.154,0.0834 0.368,-0.12565 0.233,0.0393 0.329,0.0965 1.078,-0.0593 0.13,0.0312 0.407,0.0362 0.136,-0.0422 0.122,-0.10756 0.141,-0.30357 0.126,-0.10052 0.229,-0.0512 0.271,-0.0824 0.224,-0.17491 0.355,-0.60009 0.711,-0.53176 0.218,-0.12665 0.138,-0.14274 0.12,-0.19199 0.249,-0.66745 0.188,-0.55486 0.064,-0.26135 0.168,-0.4262 0.203,-0.27241 0.199,-0.14375 0.1,-0.0362 0.256,-0.0734 0.329,-0.0683 0.346,0.0764 0.371,0.16485 0.419,0.27743 0.429,0.34378 0.197,0.1749 0.213,0.0784 0.379,0.0272 0.248,-0.006 0.386,0.34177 0.195,0.0211 0.437,0.10353 0.54,0.10655 0.339,-0.0121 0.364,-0.18496 0.262,-0.008 0.339,0.0151 0.373,-0.0502 0.273,-0.0794 0.209,-0.16083 0.184,-0.17591 0.212,-0.52371 0.122,-0.42017 0.188,-0.48349 0.231,-0.65439 0.083,-0.45535 0.084,-0.12565 0.336,-0.13872 0.277,-0.0955 0.748,-0.17892 0.153,-0.0955 0.14,-0.21411 0.326,-0.36288 0.402,-0.30256 0.208,-0.17289 0.38,-1.46558 0.046,-0.18093 0.276,-0.388 0.171,-0.16385 0.11,-0.003 0.156,-0.10253 0.203,-0.20104 0.241,-0.12464 0.279,-0.0462 0.181,-0.13368 0.083,-0.21914 0.144,-0.10655 0.205,0.006 0.117,-0.0693 0.028,-0.14575 0.124,-0.12565 0.219,-0.10354 0.114,-0.12364 0.011,-0.14172 0.261,-0.34479 0.511,-0.54783 0.481,-0.30457 0.452,-0.0623 0.429,-0.11359 0.405,-0.16586 0.297,-0.26034 0.19,-0.35383 0.327,-0.19802 0.659,-0.0583 0.036,-0.003 0.802,-0.14073 0.671,0.1146 0.809,0.32367 0.757,0.11459 0.706,-0.0945 0.574,-0.0211 0.441,0.0522 0.348,0.11259 0.25,0.1749 z m -7.159,24.11659 0.461,-0.20606 0.208,-0.12566 0.15,-0.10353 0.194,-0.15681 0.067,-0.38097 0.057,-0.32367 0.148,-0.15983 0.152,-0.10554 0.125,-0.16787 0.155,-0.40308 0.106,-0.39403 0.011,-0.16084 -0.055,-0.16485 -0.099,-0.17591 -0.097,-0.23722 -0.117,-0.0371 -0.229,-0.13269 -0.337,-0.26738 -0.292,-0.2322 -0.274,-0.33674 -0.112,-0.0553 -0.265,-0.22817 -0.114,-0.13068 -0.08,-0.15681 -0.075,-0.0512 -0.119,0.0403 -0.313,0.0694 -0.671,0.27341 -0.416,0.2513 -0.35,0.29955 -0.363,0.11459 -0.266,0.0995 -0.211,0.34278 -0.197,0.31965 -0.177,0.28848 -0.102,0.12968 -0.092,0.0834 -0.093,0.18495 -0.191,0.30759 -0.175,0.20607 -0.244,0.11258 -0.315,0.14575 -0.107,0.0844 -0.015,0.12464 0.112,0.2895 0.108,0.27944 0.177,0.32769 0.13,0.24024 0.205,0.29352 0.12,0.17189 -0.016,0.28849 0.041,0.10354 0.068,0.11961 0.057,0.0302 0.064,0.0432 0.17,0.0834 0.041,0.0553 0.119,0.0985 0.114,0.17993 0.216,0.24728 0.243,0.18797 0.417,0.0774 0.326,0.0603 0.108,-0.0371 0.111,-0.15179 0.091,-0.193 0.029,-0.24526 0.104,-0.13068 0.391,-0.62221 0.215,-0.23019 0.132,-0.0171 0.169,-0.0442 0.216,-0.0191 0.162,0.0191 0.035,-0.007 0.254,-0.0824 z"
                fill="white"
                stroke="black"
                title="South Africa"
                id="ZA" />
        </svg>