<?xml version="1.0" encoding="UTF-8" standalone="no"?>
        <svg xmlns="http://www.w3.org/2000/svg">
            <path
                d="m 166.427,85.42849 -0.181,0.36287 -0.058,0.25834 -0.018,0.21712 0.011,0.12566 0.02,0.0804 0.009,0.0191 0.008,0.0131 0.008,0.009 0.009,0.003 0.522,0.002 0.003,0 0,0 -0.003,0.1156 0.021,0.57497 0.018,0.5026 0.03,0.82124 0.001,0.21411 -0.02,0.26637 -0.062,0.10555 -0.148,0.15078 -0.187,0.13771 -0.472,0.0352 -0.394,-0.005 -0.279,-0.0302 -0.382,-0.0121 -0.359,0.0292 -0.132,0.1166 -0.194,0.41113 -0.28,0.59608 -0.148,0.2523 -0.038,0.14675 0.044,0.0875 0.185,0.12666 0.408,0.17892 0.467,0.10454 0.348,0.0452 0.237,0.0492 0.183,0.0542 0.663,0.45635 0.212,0.2121 0.119,0.18797 0.028,0.20003 0.095,0.20204 0.383,0.39907 0.221,0.23019 0.575,0.29553 0.221,0.33473 0.213,0.16183 0.202,0.1749 0.108,0.26035 0.249,0.7549 0.168,0.39605 0.172,0.32367 0.068,0.52571 0.136,0.23522 0.14,0.28648 0.232,0.25933 0.247,0.19703 0.045,0.0532 -0.516,0.50762 -0.579,0.56894 -0.669,0.65941 -0.729,0.71569 -0.571,0.56693 -0.563,0.55889 -0.658,0.66042 -0.486,0.48752 -0.081,0.0683 -0.141,0.0905 -0.463,0.002 -0.478,-0.0573 -0.44,-0.29652 -0.447,0.23019 -0.283,0.0724 -0.169,0.0262 -0.399,0.0371 -0.559,0.12364 -0.253,0.1538 -0.137,0.12163 -0.113,0.22416 -0.057,0.0231 -0.103,-0.0262 -0.143,-0.0905 -0.299,-0.12966 -0.151,-0.28548 -0.138,-0.17189 -0.115,-0.0905 -0.474,0.28448 -0.23,0.0663 -0.188,-0.008 -0.344,-0.15982 -0.38,-0.13671 -0.196,0.001 -0.293,0.17089 -0.333,0.25532 -0.171,0.25231 -0.083,0.14976 -0.061,-0.11961 -0.056,-0.11158 -0.112,-0.14273 -0.161,-0.0563 -0.146,0.0282 -0.171,0.0282 -0.077,-0.0814 -0.016,-0.196 -0.047,-0.18094 -0.08,-0.13571 -0.246,-0.13569 -0.634,-0.27542 -0.487,-0.54984 -0.245,-0.25533 -0.179,-0.16485 -0.254,-0.43223 -0.289,-0.29754 -0.35,-0.13872 -0.231,0.0683 -0.238,0.31864 -0.449,0.29955 -0.206,0.0101 -0.264,-0.16183 -0.332,-0.1156 -0.595,-0.0502 -0.246,0.14173 -0.322,0.22918 -0.273,0.13671 -0.169,0.0161 -0.158,-0.0553 -0.179,-0.0292 -0.155,-0.005 -0.318,-0.20908 -0.165,-0.15379 -0.11,-0.14777 -0.18,-0.10052 -0.21,-0.0844 -0.15,-0.13168 -0.075,-0.16486 -0.119,-0.21108 -0.154,-0.18999 -0.486,-0.34176 -0.145,-0.20205 -0.102,-0.19701 -0.198,-0.21712 -0.213,-0.29051 -0.068,-0.42519 -0.009,-0.34277 -0.045,-0.15882 -0.09,-0.15882 -0.105,-0.1347 -0.169,-0.15078 -0.396,-0.22013 -0.41,-0.25532 -0.196,-0.14877 -0.373,-0.0542 -0.223,-0.14576 -0.187,-0.32066 -0.075,-0.25632 -0.189,-0.20003 -0.081,-0.14475 -0.045,-0.16686 0.15,-0.50762 -0.217,-0.17994 -0.323,-0.2332 -0.232,-0.25532 -0.141,-0.2342 -0.415,-0.3096 -0.904,-0.46339 -0.522,-0.29553 -0.285,-0.26538 -0.249,-0.26034 -0.025,-0.10656 0.161,-0.25933 0.024,-0.21411 -0.132,-0.23521 -0.542,-0.4443 -0.432,-0.48853 -0.327,-0.15278 -0.788,-0.1357 -0.226,-0.0542 -0.236,-0.0935 -0.233,-0.22014 -0.079,-0.26035 0.114,-0.41715 -0.073,-0.12766 -0.133,-0.0351 0,0 0.036,-0.0865 0.149,-0.20305 0.243,-0.13168 0.651,-0.20606 0.036,-0.0794 0.013,-0.26035 0.053,-0.12766 0.224,-0.36187 0.032,-0.14374 0.01,-0.30759 0.03,-0.14575 0.065,-0.10354 0.178,-0.17893 0.062,-0.10956 0.027,-0.23622 -0.019,-0.46641 0.091,-0.18496 0.41,-0.42419 0.11,-0.18998 0.037,-0.16988 -0.004,-0.17289 0.025,-0.17088 0.122,-0.16485 0.104,-0.0512 0.302,-0.0522 0.206,0.0332 1.44,-0.29049 0.169,0.0393 0.075,0.17188 -0.007,0.27543 0.025,0.13369 0.077,0.0945 0.229,0.13068 0.158,0.21913 0.085,0.0804 0.231,0.14977 1.071,1.25046 0.302,0.11862 0.293,-0.0433 0.582,-0.25934 0.291,-0.0653 2.036,0.0734 0.228,-0.0392 0.014,0.006 0.31,0.62724 0.147,0.14274 2.233,0.007 -0.042,-0.17893 0.028,-0.19903 0.261,-0.25632 0.132,-0.12766 0,0.001 0.056,-0.0462 0.345,-0.18395 0.337,-0.12264 0.648,-0.14374 0.236,-0.22718 0.131,-0.20707 0.004,-0.40911 0.086,-0.0673 0.154,-0.0945 0.749,-0.3659 0.127,-0.0774 1.324,0.84938 0.742,0.67248 0.045,0.0331 0.039,0.0121 0.039,-0.0231 0.033,-0.0312 0.054,-0.0201 0.036,-0.009 0.318,-0.009 0.601,-0.0332 0.198,-0.0804 1.207,-1.2012 0.307,-0.38298 0.077,-0.0784 0.175,-0.27241 0.184,-0.47043 0.037,-0.0532 1.323,-1.12783 0.046,-0.0895 0.013,-0.0714 -0.2,-0.37996 -0.043,-0.193 -0.008,-0.29753 0.039,-0.46239 -0.014,-0.29251 -0.005,-0.0342 -0.013,-0.0453 -0.009,-0.0171 -0.738,-0.83231 1.865,-0.008 0.004,-0.0693 -0.002,-0.0362 -0.005,-0.0332 -0.035,-0.0995 -0.021,-0.13369 -0.001,-0.0361 0.003,-0.0372 0.01,-0.0683 10e-4,-0.0372 -0.002,-0.0181 -0.003,-0.0161 0.001,-0.0151 0.008,-0.0121 1.34,0.0171 -0.018,0.23622 -0.162,0.55386 0.003,0.33171 -0.039,0.37996 -0.009,0.0302 -0.037,0.0824 -0.032,0.0462 -0.037,0.0452 -0.01,0.0171 -0.012,0.0282 -0.001,0.0412 0.278,2.11894 -0.011,0.0532 -0.01,0.0342 -0.074,0.13267 -0.019,0.0433 -0.004,0.0332 0.03,0.0231 0.617,0.22918 0.03,0.0141 0.024,0.0181 0.222,0.2724 1.215,1.00218 0.042,0.0502 0.126,0.31462 0.014,0.0482 0.004,0.0744 -0.003,0.0583 -0.031,0.18897 0.01,0.0844 0.021,0.0563 0.017,0.0653 0,0.0191 -0.002,0.0171 z"
                fill="white"
                stroke="black"
                title="South Sudan"
                id="SS" />
        </svg>