<?xml version="1.0" encoding="UTF-8" standalone="no"?>
        <svg xmlns="http://www.w3.org/2000/svg">
            <path
                d="m 160.783,188.55124 0.056,0.0452 0.259,0.14373 0.023,0.28749 -0.025,0.3277 -0.052,0.20706 0.02,0.20606 0.083,0.32167 0.079,0.22013 0.019,1.00319 -0.088,-0.0462 -0.159,-0.0432 -0.085,0.0201 -0.077,0.45133 -0.06,0.67047 0.036,0.41715 -0.606,0.0131 -0.766,-0.0452 -0.549,-0.18093 -0.592,-0.39705 -0.351,-0.6192 -0.154,-0.388 -0.215,-0.0222 -0.035,-0.0663 -0.019,-0.47345 0.004,-0.49556 0.041,-0.13168 0.398,-0.61015 0.247,-0.37795 0.154,-0.36489 0.335,-0.42921 0.358,-0.27342 0.133,-0.0392 0.092,0.0111 0.632,0.37594 0.648,0.35684 0.142,-0.0402 z"
                fill="white"
                stroke="black"
                title="Swaziland"
                id="SZ" />
        </svg>