<?xml version="1.0" encoding="UTF-8" standalone="no"?>
        <svg xmlns="http://www.w3.org/2000/svg">
            <path
                d="m 182.57,135.5826 -0.152,0.0371 -0.059,-0.0362 -0.093,-0.11861 0.162,-0.10052 0.157,-0.19501 0.365,-0.28648 0.125,-0.18898 0.045,-0.0402 -0.026,0.22315 -0.206,0.48752 -0.176,0.0322 -0.142,0.18596 z m -0.603,-5.09131 0.215,0.60011 -0.027,0.11257 -0.152,0.0683 -0.079,0.006 -0.094,-0.0965 -0.066,-0.20204 -0.115,0.0482 -0.196,-0.24226 -0.194,-0.0121 -0.172,-0.2885 0.067,-0.2513 -0.039,-0.42921 0.209,-0.21914 0.118,-0.36991 0.136,0.2523 0.031,0.39404 0.183,0.46239 0.153,0.14274 0.022,0.0242 z m 1.034,-3.57145 0.017,0.14173 -0.043,0.1337 0.009,0.42519 -0.017,0.28246 -0.16,0.39102 -0.131,0.13972 -0.117,-0.0412 -0.096,-0.0643 -0.075,-0.10756 0.152,-0.7167 -0.078,-0.52471 0.301,0.0502 0.238,-0.10957 z m -25.374,-10.96464 0.059,0.008 0.294,0 0.499,0 0.499,0 0.499,0 0.499,0 0.499,0 0.499,0 0.499,0 0.499,0 0.499,0 0.499,0 0.499,0 0.499,0 0.499,0 0.499,0 0.499,0 0.499,0 0.307,0 0.214,0 0.202,0.10555 0.225,0.12565 0.599,0.33372 0.598,0.33372 0.598,0.33372 0.598,0.33373 0.598,0.33372 0.599,0.33373 0.598,0.33372 0.599,0.33373 0.598,0.33372 0.598,0.33373 0.598,0.33372 0.598,0.33372 0.599,0.33372 0.598,0.33373 0.598,0.33372 0.598,0.33373 0.286,0.15982 0.043,0.0694 0.049,0.30457 0.031,0.18999 -0.017,0.16787 -0.159,0.28446 -0.046,0.14877 -0.001,0.10354 0.039,0.0412 0.135,0.0151 0.115,0.0673 0.042,0.0532 0.088,0.21411 0.111,0.10755 0.253,0.18195 0.431,0.3106 0.431,0.3106 0.431,0.3106 0.431,0.31061 0.431,0.31061 0.431,0.3106 0.431,0.31061 0.431,0.3106 0.209,0.15178 0.089,0.0423 -0.056,0.23621 -0.221,0.57397 -0.013,0.23923 -0.086,0.28146 -0.083,0.18596 -0.225,0.80817 -0.188,0.30256 -0.257,0.70867 -0.041,0.54281 0.142,0.37996 0.052,0.35584 0.302,0.3498 0.241,0.12464 0.163,0.15983 0.289,0.36489 0.166,0.36588 0.519,0.17993 0.207,0.41113 -0.075,0.28246 -0.241,0.23421 -0.225,0.37895 -0.181,0.49858 -0.004,0.76294 0.122,-0.1156 0.275,0.18697 0.035,0.56191 -0.283,0.65437 -0.087,0.30659 -0.014,0.26336 0.206,0.78505 0.312,0.39907 -0.029,0.12263 -0.081,0.10454 0.534,0.70766 -0.044,0.61618 0.2,0.48048 0.087,0.41615 0.132,0.31965 0.025,0.22014 -0.165,0.24426 0.389,0.0613 0.229,0.20003 0.108,0.19099 0.281,-0.008 0.152,0.13067 0.22,0.10856 0.485,0.32166 0.131,0.16184 0.047,0.0935 0.031,0.0613 -0.326,0.24929 -0.508,0.388 -0.499,0.37997 -0.481,0.26134 -0.344,0.12164 -0.368,0.0673 -0.349,0.15983 -0.33,0.2513 -0.423,0.12665 -0.515,10e-4 -0.541,0.17592 -0.537,0.33272 -0.313,0.194 -0.496,-0.29252 -0.389,-0.0925 -0.447,0.0101 -0.272,0.0362 -0.098,0.0633 -0.085,0.17893 -0.072,0.29351 -0.293,0.28247 -0.514,0.27039 -0.474,0.10153 -0.434,-0.0683 -0.293,-0.11258 -0.153,-0.15681 -0.225,-0.0724 -0.298,0.0131 -0.286,0.11158 -0.273,0.21109 -0.435,0.0915 -0.598,-0.0282 -0.321,-0.10254 -0.044,-0.1759 -0.262,-0.20606 -0.479,-0.23623 -0.354,-0.005 -0.227,0.22717 -0.207,0.14274 -0.187,0.0583 -0.168,0.007 -0.149,-0.0433 -0.093,-0.0181 -0.661,-0.0242 -0.626,0.009 -0.02,-0.0985 -0.043,-0.23019 -0.13,-0.20003 -0.112,-0.11962 -0.14,-0.0312 -0.076,0.002 -0.061,-0.0925 -0.072,-0.20406 -0.106,-0.17289 -0.141,-0.14375 -0.085,-0.13369 -0.029,-0.12263 0.022,-0.13469 0.131,-0.33473 0.042,-0.23019 -0.015,-0.23522 -0.071,-0.24125 -0.148,-0.28648 0.017,-0.0824 -0.05,-0.19501 -0.005,-0.1367 0.029,-0.17088 -0.028,-0.22416 -0.128,-0.47848 0,-0.12263 -0.135,-0.2312 -0.416,-0.54682 -0.02,-0.0714 -0.652,-0.55085 -0.261,-0.12062 -0.094,0.10353 -0.035,0.0955 0.027,0.17691 -0.016,0.0875 -0.027,0.0403 -0.155,-0.006 -0.097,-0.0201 -0.247,-0.14777 -0.192,-0.0362 -0.478,0.0262 -0.167,0.0352 -0.131,-0.0332 -0.253,-0.2523 -0.296,-0.0532 -0.266,-0.0131 -0.439,-0.28648 -0.103,0.0131 -0.049,0.0221 -0.159,-0.0754 -0.299,-0.16686 -0.416,-0.14676 -0.34,-0.16385 -0.152,-0.15982 -0.319,-0.0613 -0.276,-0.0262 -0.256,-0.14877 -0.265,-0.0171 -0.26,-0.0382 -0.058,-0.0975 -0.009,-0.21914 -0.091,-0.0573 -0.191,-0.0563 -0.206,0.003 -0.125,0.0312 -0.074,-0.0161 -0.171,-0.12868 -0.159,-0.16384 -0.06,-0.26135 -0.24,-0.16787 -0.277,-0.13268 -0.77,0.0141 -0.121,-0.0403 -0.183,-0.13268 -0.214,-0.21913 -0.172,-0.2503 -0.151,-0.33875 -0.072,-0.20506 -0.085,-0.2523 -0.188,-0.37795 -0.266,-0.53476 -0.206,-0.43827 -0.221,-0.47043 -0.09,-0.34478 -0.172,-0.38097 -0.282,-0.46842 -0.143,-0.18295 -0.156,-0.16384 -0.405,-0.31563 -0.459,-0.31362 -0.249,-0.21109 -0.334,-0.62825 -0.14,-0.22717 -0.097,-0.39906 -0.073,-0.41415 0.03,-0.16786 0.296,-0.53376 0.03,-0.14977 -0.036,-0.20205 -0.146,-0.42519 -0.109,-0.27744 -0.076,-0.23722 -0.158,-0.39504 -0.217,-0.54381 -0.055,-0.23722 0.007,-0.17792 0.117,-0.46943 0.103,-0.48349 -0.003,-0.13269 0.883,0.0181 0.145,-0.10556 0.499,-0.31161 0.561,-0.62422 0.112,-0.25934 0.229,-0.40007 0.224,-0.19802 0.086,-0.13771 0.059,-0.21612 0.07,-0.18294 0.294,-0.2704 0.286,-0.20807 -0.021,-0.0834 -0.038,-0.0623 0.042,-0.0532 0.156,-0.10656 0.304,-0.0975 0.06,-0.20807 -0.001,-0.23623 -0.049,-0.13168 0.009,-0.15178 -0.047,-0.0844 -0.199,-0.0211 -0.295,-0.11761 -0.25,-0.0492 -0.167,-0.0683 -0.062,-0.0522 -0.027,-0.14174 0.049,-0.1548 0.025,-0.0442 0.064,-0.16587 -0.109,-0.0995 -0.028,-0.0482 0.05,-0.0794 0.257,-0.52471 0.056,-0.0734 0.112,-0.009 0.177,-0.0643 0.164,-0.0292 0.134,0.0222 0.099,-0.0252 0.087,-0.0673 0.074,-0.20507 0.061,-0.34175 -0.034,-0.27844 -0.128,-0.21512 -0.035,-0.32769 0.059,-0.44027 -0.042,-0.36589 -0.142,-0.29251 -0.145,-0.1739 -0.221,-0.0824 -0.348,-0.44631 -0.106,-0.21611 0.019,-0.13469 0.092,-0.0433 0.028,-0.0131 0.222,0.0201 0.208,-0.0512 0.194,-0.12263 0.188,-0.0352 0.038,0.006 z"
                fill="white"
                stroke="black"
                title="Tanzania"
                id="TZ" />
        </svg>