<?xml version="1.0" encoding="UTF-8" standalone="no"?>
        <svg xmlns="http://www.w3.org/2000/svg">
            <path
                d="m 73.648,82.15659 -0.072,0.30759 -0.149,0.37996 -0.096,0.12062 -0.068,0.92277 0.047,0.0764 0.034,0.0232 0.466,0.31161 0.611,0.40912 0.432,0.28849 0.036,0.0975 0.007,0.60513 0.005,0.51968 0.089,0.29654 0.019,0.28849 0.109,0.21712 0.398,0.41916 0.095,0.24728 0.011,0.79209 0.007,0.60011 0.051,0.81721 0,0.68152 0,0.86045 0,1.00922 0,1.05042 -0.263,0.0131 0.144,0.32669 0.024,0.29552 0.034,0.0965 -0.071,0.14274 0.059,0.21813 0.114,0.0804 0.292,0.43827 0.097,0.37091 -0.468,0.12364 0.032,0.0955 -0.875,0.19701 -0.346,0.16284 -0.007,-0.15681 -0.127,-0.0282 -0.155,-0.0533 -0.097,-0.0814 -0.134,-0.18596 -0.048,-0.14575 -0.204,-0.0231 -0.252,-0.16285 -0.24,-0.18696 -0.084,-0.18696 0.024,-0.0855 -0.038,-0.0895 -0.082,-0.0332 -0.216,-0.42218 -0.135,-0.16988 -0.062,-0.1367 0.022,-0.10555 -0.03,-0.14273 0.042,-0.1156 0.117,-0.0683 0.036,-0.0845 0.011,-0.17792 0.065,-0.36588 0.043,-0.35986 -0.123,-0.0985 -0.15,-0.0282 -0.078,-0.10353 -0.03,-0.16887 0.003,-0.14676 0.295,-0.51265 -0.061,-1.18211 0.044,-0.17992 0.135,-0.12465 0.114,-0.14375 -0.005,-0.14373 -0.196,-0.35283 -0.373,-0.2714 -0.191,-0.21913 -0.103,-0.19702 -0.017,-0.10554 0.226,-0.1548 0.1,-0.10655 0.013,-0.12364 -0.092,-0.22416 0.016,-0.40108 0.087,-0.30055 0.089,-0.38901 -0.009,-0.11358 -0.219,-0.23321 -0.119,-0.0312 -0.096,0.0161 -0.229,0.15279 -0.083,0.0161 -0.052,-0.0442 -0.023,-0.0613 0.081,-0.0915 -0.03,-0.11359 0.068,-0.0995 0.145,-0.0452 0.043,-0.0502 -0.196,-0.0472 -0.023,-0.0683 0.014,-0.0653 0.057,-0.0131 0.061,0.004 0.034,-0.0472 0.031,-0.33071 0.023,-0.1156 0.025,-0.22918 0.03,-0.88658 0.045,-0.0915 0.007,-0.0663 -0.138,-0.0432 -0.325,-0.23823 -0.19,-0.18295 -0.166,-0.18696 -0.139,-0.12364 -0.273,-0.18998 -0.08,-0.12163 -0.012,-0.12063 0.083,-0.24325 0.132,-0.25834 0.065,-0.37091 -0.04,-0.0985 -0.179,-0.17189 0.639,0.13168 0.912,0.22215 0.019,0.0392 0.006,0.0663 0.158,-0.002 0.263,-0.0784 z"
                fill="white"
                stroke="black"
                title="Togo"
                id="TG" />
        </svg>