<?xml version="1.0" encoding="UTF-8" standalone="no"?>
        <svg xmlns="http://www.w3.org/2000/svg">
            <path
                d="m 103.408,14.41965 -0.006,0.0885 -0.099,0.63629 -0.022,0.22817 -0.015,0.387 0,0.4644 0.224,0.39203 0.006,0.17188 -0.087,0.19904 -0.413,0.22716 -0.533,0.29352 -0.458,0.27844 -0.502,0.30558 -0.154,0.19702 -0.249,0.15178 -0.208,0.15178 -0.038,0.14576 -0.146,0.27442 -0.19,0.21913 -0.477,0.10353 -0.088,0.0653 -0.221,0.3297 -0.102,0.12867 -0.126,0.2704 0.162,0.69961 0.198,0.71771 0.039,0.29854 -0.003,0.24828 -0.111,0.26739 -0.254,0.38197 -0.186,0.28045 -0.357,0.5036 -0.105,0.12464 -0.246,0.14676 -0.475,0.194 -0.335,0.17189 -0.17,-0.76797 -0.146,-0.65638 -0.12,-0.54281 -0.211,-0.95795 -0.18,-0.81622 -0.179,-0.81521 -0.163,-0.74183 -0.164,-0.74887 -0.07,-0.10956 -0.491,-0.35383 -0.452,-0.32669 -0.471,-0.37192 -0.51,-0.40308 -0.082,-0.50863 -0.262,-0.76998 -0.276,-0.43022 -0.104,-0.11259 -0.557,-0.27843 -0.321,-0.20506 -0.088,-0.11962 -0.062,-0.31462 -0.229,-0.62724 -0.261,-0.57096 -0.096,-0.387 -0.013,-0.48752 0.051,-0.35282 0.114,-0.15078 0.544,-0.44027 0.252,-0.52973 0.312,-0.19904 0.27,-0.14977 0.219,-0.17491 0.194,-0.28044 0.148,-0.29955 0.025,-0.32468 0.062,-0.51566 0.099,-0.36087 0.23,-0.40911 L 94.576,7.22247 94.454,6.86663 94.489,6.24844 94.458,5.99714 94.359,5.77499 94.258,5.48952 94.255,5.25128 94.352,4.62505 94.426,4.14557 94.544,3.52135 94.502,3.34644 94.414,3.21577 94.15,3.07806 l -0.003,-0.0834 0.064,-0.0925 0.39,-0.30558 0.209,-0.44932 0.175,-0.0935 0.266,-0.16284 -0.01,-0.1749 -0.06,-0.18797 0.693,-0.21209 0.66,-0.55688 0.233,-0.13671 1.532,-0.51465 0.199,0.0351 0.223,0.0754 -0.064,0.192 -0.088,0.15178 0.13,0.26838 0.186,-0.16384 -0.047,-0.10956 -0.011,-0.14576 0.315,-0.0131 0.279,0.0231 0.306,0.15983 -0.021,0.60613 0.408,0.59206 -0.115,0.29452 0.334,0.1739 0.297,-0.20908 0.149,-0.3086 0.547,-0.17892 0.52,-0.45435 0.288,-0.0462 0.065,0.37292 0.139,0.32569 -0.197,0.11459 -0.25,0.34578 -0.475,0.87452 -0.437,0.25632 -0.328,0.33574 -0.106,0.23823 -0.032,0.27743 0.082,0.49657 0.239,0.5036 0.276,0.30357 0.266,0.0945 0.619,0.47847 -0.01,0.28346 0.086,0.33674 0.033,0.40912 0.215,0.32669 -0.46,0.70966 -0.252,0.51164 -0.492,0.70364 -0.438,0.45635 -0.938,0.6765 -0.23,0.22416 -0.15,0.2322 -0.069,0.24225 0.025,0.28447 0.309,0.69861 0.411,0.41112 0.418,0.22215 0.727,-0.0895 -0.025,0.2684 0.052,0.32065 0.295,-0.0151 0.198,-0.0502 0.167,-0.31262 0.355,0.2141 0.185,0.65137 0.301,0.20305 0.035,0.0754 -0.106,0.0502 -0.083,0.0744 0.089,0.0532 0.291,0.0804 0.176,-0.0512 0.298,0.14977 z m -0.636,-5.32149 -0.433,0.24627 0.083,-0.21411 0.286,-0.25933 0.074,0.0623 -0.01,0.16485 z m -0.899,3.5041 -0.074,0.0161 -0.136,0.0915 -0.072,0.0101 -0.204,-0.10354 -0.078,10e-4 -0.098,-0.0724 0.033,-0.39403 0.032,-0.11157 0.496,-0.0151 0.269,0.23622 0.044,0.0623 0.011,0.0673 -0.125,0.13168 -0.098,0.0804 z"
                fill="white"
                stroke="black"
                title="Tunisia"
                id="TN" />
        </svg>