<?xml version="1.0" encoding="UTF-8" standalone="no"?>
        <svg xmlns="http://www.w3.org/2000/svg">
            <path
                d="m 166.27,115.96324 -0.307,0 -0.499,0 -0.499,0 -0.499,0 -0.499,0 -0.498,0 -0.499,0 -0.499,0 -0.499,0 -0.499,0 -0.499,0 -0.499,0 -0.499,0 -0.498,0 -0.499,0 -0.499,0 -0.499,0 -0.295,0 -0.059,-0.008 -0.041,-0.0121 -0.188,0.0352 -0.195,0.12364 -0.207,0.0502 -0.222,-0.0191 -0.028,0.0131 -0.112,-0.003 -0.162,-0.009 -0.146,0.0322 -0.111,0.10755 -0.114,0.18496 -0.205,0.21109 -0.16,0.18797 -0.136,0.13269 -0.311,0.22013 -0.17,0.0643 -0.084,-0.0101 -0.052,-0.0412 -0.098,-0.28045 -0.06,-0.0452 -0.605,0.14475 -0.092,0.002 0.008,-0.0875 -0.045,-0.6594 -0.005,-0.40409 0.079,-0.2523 0.046,-0.29151 0.005,-0.25733 0.111,-0.43726 -0.041,-0.26236 0.143,-0.91974 0.038,-0.14978 0.056,-0.44429 0.089,-0.13671 0.08,-0.0532 0.103,-0.2724 0.199,-0.43625 0.137,-0.22416 -0.03,-0.48953 0.023,-0.33373 0.031,-0.0734 0.293,-0.12465 0.38,-0.30759 0.161,-0.36288 0.227,-0.23119 0.44,-0.14977 0.001,-0.001 1.304,-1.24343 0.606,-0.67046 0.264,-0.34378 0.009,-0.12364 0.051,-0.16184 -0.106,-0.12665 -0.126,-0.11459 -0.043,-0.10655 -0.108,-0.0522 -0.156,0.002 -0.103,-0.0774 -0.117,-0.15078 -0.117,-0.0945 -0.37,0.008 -0.285,-0.1548 0.004,-0.21008 0.111,-0.41414 0.216,-0.47445 0.012,-0.13068 -0.031,-0.11158 -0.052,-0.0955 -0.097,-0.0945 -0.092,-0.11359 0.071,-0.34176 0.136,-0.33373 0.112,-0.16787 0.109,-0.18696 -0.031,-0.1538 -0.159,-0.0764 0.083,-0.14976 0.171,-0.25231 0.333,-0.25532 0.293,-0.17089 0.196,-0.001 0.38,0.13671 0.344,0.15982 0.188,0.008 0.23,-0.0663 0.474,-0.28448 0.115,0.0905 0.138,0.17189 0.151,0.28548 0.299,0.12966 0.143,0.0905 0.103,0.0262 0.057,-0.0231 0.113,-0.22416 0.137,-0.12163 0.253,-0.1538 0.559,-0.12364 0.399,-0.0371 0.169,-0.0262 0.283,-0.0724 0.447,-0.23019 0.44,0.29652 0.478,0.0573 0.463,-0.002 0.141,-0.0905 0.081,-0.0683 0.486,-0.48752 0.658,-0.66042 0.438,0.92981 0.151,0.0552 -0.022,0.0804 -0.037,0.0784 0.287,0.22416 0.353,0.11761 0.126,0.11459 0.011,0.12364 -0.119,0.54381 0.022,0.1548 0.114,0.54482 0.21,0.12162 0.186,0.54884 0.377,0.23219 0.054,0.0663 0.087,0.26537 0.115,0.29151 0.09,0.0673 0.055,0.0171 0.111,0.30759 -0.064,0.1739 0.087,0.52673 0.141,0.47042 0.038,0.5619 0.001,0.24728 -0.005,0.15179 -0.031,0.21309 -0.067,0.12364 -0.12,0.12063 -0.134,0.18897 -0.116,0.20305 -0.073,0.0995 0.057,0.30357 -0.015,0.0794 -0.03,0.0382 -0.171,0.0462 -0.218,0.0814 -0.132,0.0804 -0.188,0.1548 -0.15,0.16585 -0.199,0.48953 -0.332,0.38198 -0.056,0.12565 -0.313,0.22717 -0.138,0.28045 -0.088,0.34378 -0.121,0.24627 -0.265,0.33875 -0.06,0.53476 0.008,1.06651 -0.069,1.21628 z"
                fill="white"
                stroke="black"
                title="Uganda"
                id="UG" />
        </svg>