<?xml version="1.0" encoding="UTF-8" standalone="no"?>
        <svg xmlns="http://www.w3.org/2000/svg">
            <path
                d="m 220.105,65.82321 -1.415,0.52069 -0.373,0.23119 -0.339,0.28547 -0.254,0.35685 -0.178,0.62623 0.135,0.57196 -0.013,0.30659 -0.365,0.20305 -0.341,0.14575 -0.379,0.22315 -0.23,0.0553 -0.188,0.17691 -0.219,0.12364 -0.789,0.32166 -0.862,0.24828 -1.37,0.29754 -0.529,0.32266 -0.481,0.22115 -0.731,0.0663 -1.004,0.30659 -0.558,0.24526 -0.693,0.39906 -0.153,0.12565 -0.122,0.29352 -0.213,0.25331 -0.417,0.41514 -0.313,0.2131 -0.209,0.0111 -0.406,0.1166 -0.481,0.0242 -0.808,-0.14575 -0.208,0.10151 -0.171,0.16185 -0.623,0.28447 -0.633,0.56793 -0.463,0.15078 -0.749,0.17792 -0.524,0.23622 -0.352,0.0945 -0.453,0.0492 -0.839,-0.0242 -0.795,0.0855 -0.737,0.15982 -0.346,0.30256 -0.395,0.47948 -0.645,0.19803 -0.152,0.17189 -0.199,0.35282 -0.417,0.0915 -0.378,0.0593 -0.386,-0.1538 -0.728,0.4262 -0.275,0.0704 -0.418,0.0171 -0.297,0.0895 -0.213,-0.0252 -0.265,-0.16687 -0.564,-0.20204 -0.412,0.13168 -0.035,-0.40308 -0.683,-1.23236 0.142,-1.07456 0,-0.15178 -0.136,-0.48049 -0.407,-0.43926 0.012,-0.55688 -0.136,-0.39806 -0.108,-0.41012 0.035,-0.10856 0.006,-0.0985 -0.208,-0.63227 -0.069,-0.12766 -0.026,-0.13269 0.068,-0.10152 -0.002,-0.11761 -0.11,-0.194 -0.117,-0.36992 -0.555,-0.29049 0.113,-0.27241 0.108,0.0955 0.146,0.0814 0.03,-0.1759 0.002,-0.13168 -0.232,-0.82326 0.344,-1.09968 -0.113,-0.99213 0.525,-0.40107 0.132,-0.12062 0.076,-0.10555 0.124,-0.22717 0.169,-0.0734 0.06,-0.23924 -0.005,-0.11961 -0.109,-0.10253 -0.082,-0.27844 0.027,-0.35383 0.027,-0.14776 0.057,-0.2704 0.184,-0.10052 0.043,-0.0804 -0.142,-0.17089 0.013,-0.10253 0.312,-0.28648 0.123,-0.0855 0.202,-0.0885 0.158,9.9e-4 0.182,0.0502 0.163,0.0804 0.158,0.14575 0.167,0.16585 0.256,0.0633 0.174,-0.0161 0.142,0.0734 0.12,-0.0403 0.136,-0.0854 0.218,0.005 0.196,-0.0965 0.558,-0.0462 0.538,0.0292 0.562,-0.0804 0.561,0.006 0.566,0.006 0.125,0.0121 0.123,0.0502 0.477,0.25331 0.362,0.0522 0.727,0.0694 0.775,0.0744 0.672,0.0633 0.57,-0.0603 0.473,-0.0492 0.128,0.008 0.143,0.15681 0.285,0.39102 0.269,0.3679 0.471,0.0201 0.302,-0.13872 0.332,-0.19501 0.203,-0.15078 0.235,-0.59909 0.152,-0.38801 0.349,-0.43726 0.292,-0.36588 0.386,-0.48552 0.214,-0.26838 0.422,-0.53074 0.403,-0.20707 0.778,-0.39906 0.763,-0.39303 0.497,-0.25632 0.423,-0.11661 0.709,-0.10052 0.833,-0.11861 0.833,-0.11862 0.889,-0.12564 0.99,-0.14073 0.679,-0.0965 0.865,-0.12364 0.72,-0.10253 0.64,-0.0905 0.659,-0.0935 0.124,0.29553 0.124,0.29553 0.125,0.29552 0.124,0.29553 0.124,0.29552 0.124,0.29553 0.124,0.29452 0.125,0.29452 0.124,0.29453 0.124,0.29452 0.124,0.29452 0.125,0.29452 0.124,0.29352 0.124,0.29351 0.124,0.29352 0.124,0.29351 0.122,0.28648 0.2,0.0955 0.119,0.2714 0.17,0.387 0.171,0.38599 0.17,0.386 0.168,0.387 z m -29.455,3.92327 -0.088,0.0643 -0.027,-0.11258 0.058,-0.25331 0.092,-0.0734 0.062,0.18797 -0.04,0.10353 -0.057,0.0834 z m 0.553,3.85893 -0.037,0.0613 -0.051,-0.0131 -0.174,-0.15379 0.191,-0.17189 0.102,0.15982 -0.031,0.11761 z m -0.089,0.77199 -0.186,0.0885 0.127,-0.22918 0.13,-0.0472 0.036,0.009 -0.107,0.17892 z m 30.892,3.07288 0.174,0.0342 0.263,-0.0995 0.754,-0.0131 0.909,0.31965 -0.172,0.0834 -0.102,0.11559 -0.399,0.10554 -0.398,0.24627 -1.152,0.11963 -0.338,-0.0663 -0.278,-0.23823 -0.515,-0.3096 0.203,-0.19802 0.044,-0.0905 0.076,-0.0865 0.291,-0.14978 0.291,0.0242 0.349,0.20305 z"
                fill="white"
                stroke="black"
                title="Yemen"
                id="YE" />
        </svg>