<?xml version="1.0" encoding="UTF-8" standalone="no"?>
        <svg xmlns="http://www.w3.org/2000/svg">
            <path
                d="m 163.51,139.63754 0.01,0.0754 0.077,0.14274 0.081,0.10253 0.007,0.15078 0.038,0.14073 0.118,0.0342 0.097,0.009 0.09,-0.10052 0.122,0.002 0.134,0.0643 0.048,0.16183 0.105,0.21712 0.169,0.14877 0.114,0.14374 -0.039,0.26135 -0.072,0.23823 0.23,0.23622 0.299,0.22416 0.081,0.0995 0.024,0.33373 0.046,0.11258 0.203,0.27744 0.099,0.18395 -0.007,0.10654 -0.545,0.54984 -0.173,0.0533 -0.164,0.0312 -0.146,0.11259 -0.088,0.1176 0.032,0.0623 0.058,0.18797 0.127,0.29754 0.115,0.20808 -0.096,0.26034 -0.216,0.44228 -0.1,0.0393 -0.018,0.33473 0.066,0.12263 0.108,0.0965 0.044,0.22717 0.003,0.31363 -0.012,0.2523 -0.136,0.64231 0.246,0.56191 0.084,0.0613 0.341,0.004 0.058,0.0472 -0.081,0.15982 -0.148,0.16486 -0.091,0.0834 -0.434,0.192 -0.623,0.21208 -0.13,0.20306 -0.083,0.29653 0.07,0.17389 0.082,0.0995 -0.026,0.25833 -0.055,0.27342 0.019,0.21511 -0.028,0.18998 -0.082,0.0935 -0.109,0.28648 -0.134,0.28849 -0.106,0.13168 -0.156,0.13771 -0.247,0.11459 0.004,0.0583 0.28,0.13269 0.072,0.0925 0.026,0.0633 -0.06,0.0603 -0.057,0.0854 0.129,0.0885 0.158,0.0744 0.149,0.19199 0.133,0.26839 0.038,0.0945 0.031,0.0371 0.048,0.004 0.093,-0.0403 0.171,-0.14675 0.125,-0.0522 0.151,0.20908 -0.603,0.20707 -0.316,0.10856 -0.901,0.3096 -0.787,0.27039 -0.205,0.0512 -0.408,0.13168 -0.203,0.0814 -0.711,0.23622 -0.297,0.11761 -0.239,0.1176 -0.587,0.1749 -0.555,0.16486 -0.606,0.17088 -0.678,0.18998 -0.381,0.13772 -0.257,0.1186 -0.601,0.24125 -0.028,0.0583 0.008,0.16385 0.077,0.33774 0.15,0.30658 0.126,0.17691 0.082,0.45435 0.046,0.39906 -0.408,0.001 -0.718,0.002 -0.745,0.001 -0.68,0.15278 -0.559,0.2322 -0.667,0.36288 -0.217,0.14274 -0.168,0.10957 -0.106,0.14172 -0.052,0.3096 0,0.47847 -0.068,0.34378 -0.202,0.31663 0,-10e-4 -1.013,0.38298 -0.662,0.31261 -0.65,0.37093 -0.493,0.48147 -0.336,0.59207 -0.558,0.73379 -0.568,0.63629 -0.603,0.67749 -0.676,0.24527 -0.568,-0.0552 -0.685,-0.27442 -0.544,-0.0522 -0.403,0.17088 -0.372,-0.0532 -0.342,-0.27543 -0.286,-0.10052 -0.232,0.0744 -0.296,-0.0131 -0.541,-0.15079 -0.468,-0.46942 -0.253,-0.193 -0.195,-0.0744 -0.56,-0.0754 -1.285,-0.10756 -0.134,0.0242 -0.534,0.0925 -0.667,0.11559 -0.574,0.1156 -0.601,0.12062 -0.559,-0.48853 -0.633,-0.55385 -0.657,-0.6182 -0.493,-0.4835 -0.244,-0.27844 -0.433,-0.36789 -0.312,-0.17993 -0.121,-0.0905 -0.31,-0.97705 -0.169,-0.89663 0,-0.67448 -10e-4,-0.93383 0,-0.93282 0,-0.93081 -0.001,-0.9298 0,-0.9288 0,-0.92578 -0.001,-0.92579 0,-0.92477 0,-0.44932 0.647,0 0.734,0 0.767,0 0.834,0 0.834,0 0.834,0 0.582,0 0.153,-0.007 0.184,-0.0282 0.013,-0.0915 -0.24,-0.45334 0.012,-0.16084 0.064,-0.30758 0.099,-0.26538 0.131,-0.3488 0.014,-0.20505 -0.105,-0.66846 0.01,-0.37192 0.03,-0.387 0.03,-0.36589 -0.036,-0.25532 0.044,-0.13872 0.079,-0.19902 0.041,-0.22517 0.049,-0.0965 -0.016,-0.0895 -0.044,-0.16685 -0.044,-0.37394 -0.061,-0.51969 -0.061,-0.37393 0.102,0.0211 0.212,0.0351 0.103,0.18296 0.06,0.20103 0.143,0.0111 0.372,0.11862 0.129,0.16585 0.085,0.35886 -0.051,0.18395 -0.12,0.14776 0.12,0.13068 0.249,0.0875 0.146,-0.0262 0.42,-0.24426 0.168,-0.0432 0.219,-0.0482 0.198,-0.0623 0.559,-0.11158 0.305,-0.0492 0.172,-0.0875 0.12,0 0.086,0.0703 -0.077,0.25331 -0.026,0.22717 0.107,0.4252 0.08,0.19802 0.18,0.14475 0.131,0.0754 0.145,0.15379 0.301,-0.0262 0.662,0.21713 0.201,0.10052 0.279,0.10052 0.198,0.0372 0.683,0.0764 0.252,0.0512 0.468,0.0683 0.374,0.0121 0.265,-0.0312 0.186,-0.0623 0.114,-0.0683 0.052,-0.0593 0.077,-0.21209 0.139,-0.46038 0.055,-0.13771 0.138,-0.0633 0.179,-0.0413 0.105,0.0734 0.117,0.51064 0.521,0.46137 0.178,0.38801 0.13,0.33171 0.113,0.0905 0.198,0.11358 0.316,0.0403 0.282,0.0121 0.594,0.23923 0.472,0.18999 0.338,0.1367 0.155,0.10354 0.108,0.16988 0.064,0.13168 0.104,0.34177 0.111,0.27039 0.181,0.0512 0.162,0.0211 0.16,0.18496 0.121,0.16184 0.24,0.39605 0.177,0.2734 0.058,0.26638 0.201,0.17792 0.274,0.0754 0.253,0.0101 0.146,-0.0794 0.359,-0.13872 0.28,-0.15782 0.204,-0.0552 0.121,0.0342 0.092,0.10957 0.049,0.2141 0.012,0.11962 0.199,0.11358 0.147,-0.0452 0.057,-0.13168 0.003,-0.0653 -0.001,-0.583 0,-0.50461 -0.001,-0.47446 0,-0.57798 -10e-4,-0.5036 0,-0.41415 -0.001,-0.43223 -0.128,0.0242 -0.161,0.0985 -0.371,0.0121 -0.145,0.0734 -0.045,0.11158 0.028,0.14474 0.008,0.19702 -0.055,0.0925 -0.162,0.0371 -0.236,-0.0764 -0.427,-0.0985 -0.356,-0.0613 -0.256,-0.26136 -0.346,-0.39404 -0.227,-0.19802 -0.546,-0.41112 -0.093,-0.0824 -0.166,-0.19199 -0.142,-0.32569 -0.07,-0.21611 -0.066,-0.16083 -0.073,-0.23923 0.132,-0.36791 0.185,-0.69961 0.134,-0.5036 0.074,-0.37293 0.265,-0.37996 0.019,-0.33976 -0.107,-0.43525 0.027,-0.24024 0.018,-0.61015 0.015,-0.51265 0.004,-0.24929 -0.073,-0.43324 -0.179,-0.47947 -0.394,-0.66745 0.002,-0.14273 0.234,-0.15782 0.371,-0.27542 0.182,-0.16385 0.218,-0.2322 0.097,-0.11862 0.214,-0.29753 0.135,-0.24225 0.047,-0.31262 -0.102,-0.29753 0.208,-0.0583 0.683,-0.10453 0.752,-0.1156 0.793,-0.12263 0.8,-0.12264 0.775,-0.11962 0.703,-0.10755 0.486,-0.0754 0.072,0.20405 0.152,0.33975 0.171,0.24929 0.215,0.21914 0.182,0.13269 0.121,0.0403 0.77,-0.0141 0.276,0.13269 0.241,0.16887 0.06,0.26136 0.158,0.16384 0.171,0.12867 0.074,0.0161 0.126,-0.0312 0.206,-0.003 0.191,0.0563 0.091,0.0573 0.009,0.21912 0.058,0.0975 0.26,0.0383 0.265,0.0171 0.256,0.14877 0.276,0.0262 0.32,0.0613 0.152,0.15982 0.339,0.16385 0.416,0.14676 0.3,0.16586 z"
                fill="white"
                stroke="black"
                title="Zambia"
                id="ZM" />
        </svg>