<svg xmlns="http://www.w3.org/2000/svg" viewBox="58.54713799999993 97.9217489999999 171.16000200000005 141.65000100000003" width="171.16000200000005" height="141.65000100000003">
            <path 
                d="m 69.877138,99.541749 3.04,-0.27 1.65,0.770001 1.35,-0.280001 4.37,2.870001 3.31,-0.2 3.19,-2.31 0.67,-1.320001 1.16,0.96 2.81,0.450001 4.98,-1.520001 0.55,-0.74 3.04,0.99 2.560002,-0.58 1.79,0.52 1.08,1.410001 3.06,0.71 1.77,1.08 3.4,3.16 1.14,-0.44 2.3,1.35 0.4,1.54 1.52,0.19 1.88,1.52 2.42,0.02 2.73,-2.75 3.06,-0.36 3.71,1.52 4.44,0.71 1.28,1.54 3.09,0.53 1.33,1.34 2.32,4.21 0,1.93 3.01,1.84 0.39,1.87 0.65,0.52 2.2,0.19 4.26,-2.47 3.9,0.82 1.21,-0.96 1.81,2.2 1.88,0.71 1.99,-0.49 1.81,-1.29 1.5,0.19 3.69,-1.4 1.5,0.63 -0.15,0.49 3.74,2.51 3.65,-0.44 1.8,-0.83 0.69,-0.93 4.25,-0.09 0.73,-0.54 2.13,0.52 3.15,-1.82 2.39,-0.46 3.6,0.16 1.25,1.73 -0.95,0.28 -0.15,1.26 1.8,1.35 0.4,1.73 0.67,0.36 3.8,0 2.13,0.66 0.34,1.4 1.04,-0.3 1.64,0.68 3.04,-3.49 2.45,0.36 3.53,3.79 0,1.43 2.26,3.02 1.18,5.19 0.82,0.74 2.57,-0.85 0,0 -0.02,0.28 0,0 -0.86,1.12 -2.39,0.25 -1.47,0.82 0,0.58 1.9,1.37 0.37,1.32 -0.77,2.06 -1.61,1.75 0.08,0.66 0.62,0.93 1.92,0.8 0.46,0.93 -0.21,0.77 -1.94,1.4 -1.35,1.89 2.83,4.88 -0.87,1.81 2.85,1.15 -0.53,1.43 1.82,1.97 -3.29,0.14 -1.1,1.59 0.08,0.79 2.73,0.88 -0.53,1.23 1.5,2.36 -4.65,3.69 0.15,1.76 -1.01,0.84 -0.43,1.24 -2.61,2.43 -1.1,-0.43 -0.55,0.63 -0.89,-0.06 -1.32,1.23 -0.3,1.59 -1.18,0.98 -0.89,-0.54 -3.52,-0.03 -1.44,-0.9 -1.63,0.22 -0.46,0.57 1.73,1.18 -2.03,1.28 0,0 -4.68,0.71 -0.34,-0.49 0,0 -1.35,-0.46 -1.96,0.57 -1.54,-0.33 0.17,2 0.99,1.97 1.98,1.91 -4.71,2.68 -2.74,0 0.25,2.11 -0.76,1.12 -0.8,-0.33 -0.08,-1.36 -2.16,-0.2 -0.02,1.29 -0.69,0.41 -0.91,-0.71 -1.5,2.71 -1.63,0.3 -1.6,1.12 -0.51,3.39 1.78,1.74 -0.26,1.12 0.45,1.02 -0.99,2.15 -2.45,0.2 -1.46,-1.34 -2,0.54 -7.69,-1.2 -1.14,0.74 -1.07,2.21 -3.95,-0.03 -0.82,1.53 -1.42,0.77 -1.26,2.7 0.4,4.83 -0.3,0.88 -1.46,1.14 -0.46,2.6 -2.47,1.5 0.02,1.2 -2.11,1.28 -0.15,1.88 -1.29,0.38 -1.75,-0.49 -0.12,1.2 -1.31,-0.02 -0.38,0.54 0.14,1.69 -1.07,0 -0.97,0.9 0,0 -1.25,0.3 -1.86,-0.46 -0.21,-0.74 -0.99,0.06 -0.4,-0.96 -1.62,-0.35 0.59,-1.56 -1,-0.95 0.19,-1.86 -0.88,-0.82 0.44,-0.81 -0.34,-0.47 -1.12,0.17 -1.01,0.92 -0.78,-0.13 -0.42,1.09 -1.16,0.11 1.41,-1.56 0.32,-1.14 -1.44,-0.33 0.59,-0.52 -0.92,-2.84 -1.8,-0.82 -2.45,-2.48 -4.51,-2.73 -1.29,-1.42 -1.04,-2.32 0.61,-3.31 1.65,-2.81 2.28,-1.59 0.36,-2.32 1.04,-1.91 1.51,-1.18 -0.31,-1.86 2.57,-3.11 0.72,-1.67 0.06,-2.35 -5.04,-1.1 -1.77,-0.98 -2.07,1.01 -2.16,-0.87 -2.65,1.23 -2.26,-0.82 -0.85,-2.66 0.49,-3.75 1.45,-3.09 1.54,-0.63 0.64,-2.11 -0.25,-2.93 -1.91,-1.26 0.11,-0.87 -9.01,1.86 -7.94,2.71 -5.490002,0.85 -4.56,0.05 -4.22,-3.47 -7.76,-4.63 -4.97,-5.34 -2.27,-0.55 -1.69,-3.04 -1.21,-1.1 -0.74,0 -1.35,-2.74 0.32,-1.35 -1.48,-1.31 4.01,-3.43 -0.76,-5.16 0.7,-1.34 6.33,-2.06 2.09,-2.03 2.43,0.25 0.97,-0.96 1.44,0.11 1.41,-0.61 1.84,-2.41 0.69,-1.92 -0.33,-1.02 -1.97,0.17 -1.88,-2.09 0.3,-1.51 -0.8,-1.84 0.1,-2.61 -1.37,0.05 -2.58,-1.45 0,-0.63 -2.08,-1.41 -5.05,-1.48 -2.79,-3.46 -6.58,2.86 -4.07,0.99 -0.76,-0.86 0.48,-2.03 0,0 1.94,-1.62 0.19,-2.04 0.97,-2.2 -0.99,-2.33 2.87,-3.47 -0.17,-0.8 -0.91,-0.6 0.58,-2.04 -0.66,-2.12 2.22,-2.56 -0.05,-3.220001 1.36,-0.85 z" 
                fill="rgb(151, 144, 238)" 
                stroke="white" 
                stroke-width=".7px"
                title="Gorenjska" 
                id="SI-GO" 
            />
        </svg>