<svg xmlns="http://www.w3.org/2000/svg" viewBox="0.327138010000085 119.21175000000035 147.54000198999992 186.80999999999972" width="147.54000198999992" height="186.80999999999972">
            <path 
                d="m 53.457138,120.42175 0.38,0.83 1.77,-0.28 3.42,0.8 0,0 -0.48,2.03 0.76,0.86 4.07,-0.99 6.58,-2.86 2.79,3.46 5.05,1.48 2.08,1.41 0,0.63 2.58,1.45 1.37,-0.05 -0.1,2.61 0.8,1.84 -0.3,1.51 1.88,2.09 1.97,-0.17 0.33,1.02 -0.69,1.92 -1.84,2.41 -1.41,0.61 -1.44,-0.11 -0.97,0.96 -2.43,-0.25 -2.09,2.03 -6.33,2.06 -0.7,1.34 0.76,5.16 -4.01,3.43 1.48,1.31 -0.32,1.35 1.35,2.74 0.74,0 1.21,1.1 1.69,3.04 2.27,0.55 4.97,5.34 7.76,4.63 4.22,3.47 4.56,-0.05 5.490002,-0.85 7.94,-2.71 9.01,-1.86 -0.11,0.87 1.91,1.26 0.25,2.93 -0.64,2.11 -1.54,0.63 -1.45,3.09 -0.49,3.75 0.85,2.66 2.26,0.82 2.65,-1.23 2.16,0.87 2.07,-1.01 1.77,0.98 5.04,1.1 -0.06,2.35 -0.72,1.67 -2.57,3.11 0.31,1.86 -1.51,1.18 -1.04,1.91 -0.36,2.32 -2.28,1.59 -1.65,2.81 -0.61,3.31 1.04,2.32 1.29,1.42 4.51,2.73 2.45,2.48 1.8,0.82 0.92,2.84 -0.59,0.52 1.44,0.33 -0.32,1.14 -1.41,1.56 1.16,-0.11 0.42,-1.09 0.78,0.13 1.01,-0.92 1.12,-0.17 0.34,0.47 -0.44,0.81 0.88,0.82 -0.19,1.86 1,0.95 -0.59,1.56 1.62,0.35 0.4,0.96 0.99,-0.06 0.21,0.74 1.86,0.46 1.25,-0.3 0,0 1.05,0.6 -0.8,1.2 0.46,1.53 -1.16,0.03 -1.2,3.24 -0.8,0.46 -2.64,-0.38 0.06,1.53 -1.01,0.46 0.38,1.91 1.84,-0.68 -0.47,1.58 0.61,1.14 0,1.94 -1.33,0.84 -0.33,3.22 -2.52,1.6 0.68,2.07 0,3.73 2.58,1.99 0.88,1.41 0.74,5.04 0.97,2.34 0,0 -1.35,1.47 -1.18,0.08 -1.25,1.03 -1.77,2.48 0.26,0.87 -10.01,3.15 3.55,6.28 0.06,0.95 -0.44,3.32 -0.6,-1.09 -1.41,0.79 -0.53,7.68 -1.39,-0.08 -0.93,3.02 0,0 -2.07,-1.14 -1.14,-1.42 -2.68,-0.46 -0.97,1.66 -0.84,-0.11 -1.17,1.06 0.6,-2.01 -2.87,-2.12 -2.92,-0.98 -0.8,-1.11 -1.07,0.08 -0.32,-0.84 -1.21,0.27 -2.74,-1.38 -5.44,-4.46 -0.22,-1.09 -0.84,-0.05 0.02,-0.87 -0.91,0.05 0,-1.9 -1.050002,-0.11 0.25,-1.27 -4.03,1.22 -2.87,-0.16 -1.01,-0.82 -0.85,0.05 -1.2,-1.3 -0.13,-1.39 -1.86,-0.49 -0.5,-0.89 -1.37,-0.38 -0.79,1 -0.84,-0.13 -0.09,1.9 -4.13,0.24 -1.78,-1.46 -1.54,-0.47 -0.97,-1.71 -3.5,-2.61 -5.66,-1.63 0.47,1.96 -0.72,3.45 -2.49,2.15 -2.18,0.02 -1.56,5.14 -4.73,0 -2.63,-1.06 -8.07,-0.08 -2.19,0.57 0,0 -1.84,-6.06 -2,-1.03 0.04,-2.75 0.99,-1.17 0.61,-2.58 1.59,-2.02 -0.83,-2.28 1.27,-2.29 2.66,-2.09 2.24,-4.58 0.4,-2.01 2.7,-3.46 -0.78,-4.27 1.92,-8.45 -1.48,-1.23 -3.59,1.91 -0.52,-0.79 -4.08,-1.31 -2.72,2.1 -0.32,1.25 -1.88,2.18 -2.57,-0.27 -1.25,1.2 -2.26,-0.08 -4.28,-3.85 -1.73,-0.08 -2.7,-3.46 -0.24,-1.33 -1.22,-1.42 -1.04,-0.25 -0.08,-0.6 1.92,-2.21 2.16,-0.24 1.73,-3.11 0.67,-3.82 -0.49,-1.2 -1.43,-0.66 0.15,-2.75 1.1,-1.12 4.85,-1.64 2.58,-3.85 5.46,-2.27 1.42,-1.91 3.04,-2.13 1.35,-2.38 1.43,-0.54 2.45,-2.13 1.75,-2.65 2.18,-1.64 1.92,-3.91 -0.15,-2.27 1.39,-1.45 0.76,-2.66 -1.45,-2.4 -3.97,-1.65 -1.18,0.11 -3.09,2 -0.57,-0.44 0.45,-1.01 -3.95,0.08 -0.42,-0.68 -3.42,1.78 -0.97,-0.93 0.11,-1.84 -1.51,-2.7 -4.09,-2.3 -1.37,-0.14 -0.49,-1.48 -1.77,0.33 -0.57,0.6 -2.89,-0.03 -1.14,-1.61 -1.94,-0.85 -1.88,-0.25 -1.67,0.63 -3.48,-0.82 -0.45,0.3 0.81,1.59 -0.4,1.59 -4.48,1.72 -2.3,-1.06 -0.61,-1.24 1.09,-1.2 0.11,-1.04 -0.72,-1.1 1.5,-0.62 0.78,-1.16 -1.69,-1.45 -3.29,-4.38 -2.03,-9.48 -1.55999999,-0.11 -0.63,-2 5.25999999,-0.74 2.46,-2.22 0.09,-1.89 1.41,-1.57 3.27,-0.79 1.65,-3.1 -2.21,-5.49 0.48,-1.29 2.66,-0.77 3.15,0.52 2.89,-2.47 2.13,-0.19 2.51,-1.7 1.01,0.3 0.19,-1.62 1.9,-1.48 1.59,0.14 1.58,-1.43 1.54,-0.14 1.58,-1.51 1.17,-0.14 2.04,-3.29 0.43,-4.02 0.69,-1.42 0.97,-0.22 1.73,-2.04 4.98,-1.26 1.82,0.16 3.25,-1.21 z" 
                fill="rgb(151, 144, 238)" 
                stroke="white" 
                stroke-width=".7px"
                title="Goriška" 
                id="SI-SP" 
            />
        </svg>