<svg xmlns="http://www.w3.org/2000/svg" viewBox="221.76713999999984 232.1817500000003 165.52999999999994 165.45999999999975" width="165.52999999999994" height="165.45999999999975">
            <path 
                d="m 227.08714,297.82175 0.63,-1.23 5.26,0.49 0.25,-1.46 0.47,-0.06 1.12,0.46 2.85,-0.46 2.55,0.79 1.03,-0.44 2.22,0.66 1.25,-1.58 2.21,-0.71 2.09,-2.77 2.64,0.44 2.6,2.61 0.4,1.65 6.43,4.67 0.96,3.48 1.62,2.36 0.55,0.52 0.91,-0.57 1.07,1.65 6.97,5.59 4.35,4.37 1.5,1.03 1.52,-0.29 0.36,0.94 1.47,1.04 0.63,-1.36 1.71,-1.11 -0.21,-5.32 1,-1.11 -0.6,-1.5 0.32,-1.73 -2.41,-1.66 -2.7,0.25 -0.86,0.67 -0.72,-1.95 -0.76,-0.08 -0.91,2.14 -3.29,-0.76 -2.11,-4.72 0,-2.58 1.01,-1.55 -0.36,-0.84 0.36,-0.74 -1.24,-1.3 -2.96,-0.84 -0.13,-1.74 0.76,-0.9 -0.16,-0.73 -1.52,-1.2 -1.18,-0.21 -0.05,-1.42 -0.86,-1.17 -1.78,1.04 -0.23,-6.01 1.42,-1.01 0.65,-1.68 1.48,-0.49 -1.59,-3.81 -2.17,-1.39 -1.05,-2.18 0.21,-3.15 1.07,-0.03 0.38,-0.63 -1.86,-2.01 -0.99,-2.2 -1.24,-5.07 1.01,-1.09 -1.01,-0.03 -0.74,-0.68 -0.44,0.66 -0.87,-1.09 -0.78,0.16 -0.09,0.76 -1.33,-1.63 1.34,-3.16 0.94,-0.27 -0.67,-1.37 1.25,-1.17 0.27,0.68 0.53,-0.3 0.08,-2.34 1.75,-2.37 1.18,-0.16 -0.61,-1.01 1.42,-2.1 2.3,1.01 2.49,-1.67 0.15,-1.74 1.81,-0.14 1.63,-1.8 0.82,0.63 0.13,0.84 0.93,-0.21 0.78,1.03 1.14,-1.01 0.78,1.23 0.76,-0.41 1.22,0.52 1.06,-0.74 3.54,0.47 1.31,-1.42 -0.12,-2.13 1.03,-0.05 0.72,-1.04 1.41,0.68 1.04,2.98 1.66,0 -0.04,2.53 1.29,1.12 0.59,1.63 1.6,1.45 2.41,-0.14 2.91,-0.92 0.21,-3.14 1.76,-1.14 2.47,0.38 1.37,1.58 2.99,-0.27 2.33,1.71 0.93,0.03 0.21,-0.76 1.83,0.3 0.85,-0.68 -0.45,-1.72 1.31,-0.63 0.38,-0.79 1.25,-0.08 0.59,-1.47 -1.14,-3.36 -0.97,-0.46 0.61,-1.34 5.32,0.22 0.8,1.09 3.08,1.2 0.76,-2.18 1.76,-1.42 1.64,0.55 -0.48,0.81 3.12,0.03 0,0 4.05,1.31 0.68,2.13 0.86,-0.68 0.21,-1.34 0.59,-0.22 3.24,0.11 1.6,0.82 0.25,1.77 -0.57,1.37 -2.3,1.09 -0.5,2.78 1.81,0.92 0.25,2.68 2.03,1.17 4.48,4.3 4.22,1.75 1.24,0.05 -0.12,-1.41 0.78,-0.55 1.6,0.76 0.21,-1.55 1.61,-0.08 0.54,-0.74 -0.27,-2.1 1.39,-0.08 1.12,0.71 1.86,3.35 1.79,-0.13 0.11,-1.69 -1.56,-1.77 0.8,-1.15 0,-1.09 0.63,-0.27 2.58,0.82 2.21,1.93 -0.12,-3 2.99,1.09 2.35,-0.19 0.08,3.46 2.56,0.79 0.8,1.37 -0.06,0.73 -1.4,1.56 0.78,11 -1.56,4.08 1.12,0.98 4.48,1.44 2.15,1.33 -0.62,1.77 0.57,0.36 0.19,2.58 2.39,-0.03 -1.12,1.99 -4.31,0.87 -0.35,1.06 1.24,0.98 0.49,2.45 1.69,2.25 3.01,10.03 0,0 -2.23,1.71 -0.74,1.39 -1.52,-0.11 -0.82,0.73 -1.59,0.14 -6.79,4.02 -4.67,1.65 -1.54,1.93 -2.38,1.25 -3.34,4.26 -4.18,1.06 -0.23,0.51 2.13,1.57 1.75,-0.73 1.16,0.35 0.66,2.34 0.55,0.38 2.15,-0.73 0.84,1.22 0.13,3.17 1.88,1.71 -0.21,-0.92 0.74,-1.9 1.87,-0.08 -0.63,2.6 2.77,4.04 0.86,-0.87 -1.45,-3.98 0.19,-1.28 2.36,-1.6 1.35,-3.12 3.44,-0.08 0.38,1.19 -0.55,2.63 1.16,0.28 0.09,1.11 -0.51,2.25 -1.81,0.49 -0.3,3.52 0.46,0.33 0.45,-0.52 0.19,-1.06 1.18,0.03 0.42,-2.87 1.14,-0.74 0.11,1.47 1.33,2.17 1.46,0.97 1.13,1.68 0,1.28 0.83,0.81 0.38,2.09 1.94,1.11 -2.15,2.27 -1.69,0.63 -2.35,-0.87 -0.67,-1.35 -1.42,0.4 -3.25,-0.57 -0.78,0.95 1.73,0.84 -0.19,0.92 -1.89,0.9 -2.9,-0.27 -4.47,1 -0.02,2.19 0.95,2.6 -3.04,0.38 -2.71,2.19 4.1,5.61 0.51,12.66 0.78,0.94 1.69,0.16 -0.15,2.01 2.03,0.94 1.33,2.6 4.81,2.89 1.28,1.75 1.42,-0.75 0.55,1 2.42,1.73 -5.21,3.21 -2.43,5.13 -1.75,0.14 -1.26,0.89 -6.08,-1.54 -5.01,-1.95 -5.5,3.41 -2.94,4.18 -0.32,2.51 -0.63,0.46 -3.46,0.08 -2.05,-2.62 -0.88,0.81 0.02,1.27 -1.46,1.46 -2.96,0.11 -1.39,-0.54 -2.02,-1.38 -1.9,-3.64 -2.85,-1.03 -3.57,-4.02 -3.34,-1.24 -0.42,-0.84 0.23,-3.62 -1.35,-0.03 -1.75,-1.35 -1.73,-0.16 -1.07,-1.49 -0.94,0.08 -1.81,1.79 -2.58,0.4 -0.56,-1.13 -2.24,-1.84 -5.66,-0.65 -2.62,-3.08 -7.09,-5.19 -1.77,0.27 -0.44,1.35 -1.25,1.17 0.49,3.94 -0.76,1.22 0.52,1.51 -1.29,4.59 -3.37,0.3 -2.79,1.03 -1.37,1.51 -9.73,1.73 -0.38,-2.95 -1.61,-1.91 -0.14,-2.08 -1.16,-1.35 0.65,-1.11 -1.16,-2.06 -1.73,0.49 -0.25,-1.43 -3.45,-0.41 0.01,-1.32 -1.99,0.22 -1.71,-2.14 -1.88,-1.05 -0.84,-1.46 -3.02,-1.46 -2.89,-0.22 -0.64,2.16 -1.6,0.16 -1.29,-2.19 0.8,-5.22 1.29,-0.64 0.82,-1.74 -1.18,-2.35 -0.14,-1.43 -2.49,-3.28 -5.16,-0.73 -2.3,-3.33 -2.02,-0.4 -0.7,-2.2 -3.06,-1.11 -2.6,-2.49 0.98,-3.57 -0.32,-0.79 1.52,-4.44 1.29,-1.03 -1.74,-0.55 -1.16,-1.4 -1.3,0.81 -2.16,0.24 -0.42,-1.19 -0.36,0.46 -0.34,-0.95 -0.63,-0.05 0,0 -1.37,-0.17 -0.87,-9.21 -3.86,-8.44 -0.55,-2.99 1.77,-0.7 1.9,4.42 3.76,-0.76 -1.14,-4.12 -1.39,-0.85 1.2,-5.92 -0.88,-0.48 -2.01,0.1 -1.56,-2.25 0.44,-0.43 z" 
                fill="rgb(151, 144, 238)" 
                stroke="white" 
                stroke-width=".7px"
                title="Jugovzhodna Slovenija" 
                id="SI-JS" 
            />
        </svg>