<svg xmlns="http://www.w3.org/2000/svg" viewBox="247.87713999999983 60.10174900000007 126.39000000000016 76.75000099999991" width="126.39000000000016" height="76.75000099999991">
            <path 
                d="m 338.55714,60.631749 0.42,0.41 1.46,-0.33 0.66,0.8 3.05,-0.3 1.9,2.2 4.69,1.52 1.06,-0.3 2.15,1.13 4.73,-1.44 3.46,0.14 2.93,-2.23 2.75,-0.14 2.3,1.38 1.39,-1.52 2.76,0.5 0,0 -0.86,3.81 0.3,4 -5.39,0.22 -0.72,0.77 0.01,3.53 -2.6,1.98 -0.8,1.46 -0.87,-0.13 -0.76,0.66 -0.12,2.84 -1.95,8.59 -1.88,2.07 -1.62,0.36 -0.53,1.15 -1.18,0.36 -0.04,2.26 -0.74,1.71 -0.97,-0.06 -0.07,1.07 -0.75,-0.02 0.18,1.480001 -0.97,4.3 0.97,0.33 0.79,-0.42 2.87,-2.89 2.85,0.42 0.73,0.58 2.88,-1.6 1.05,0.91 2.01,-0.47 0.88,1.54 -0.12,1.46 0,0 -0.55,0.41 0.59,3.28 2.85,3.1 -0.97,1.85 -4.77,1.07 -1.88,1.57 -2.47,0.9 -1.82,5.12 -0.1,4.26 -0.8,0.57 -2.01,4.34 -0.72,0.22 0.4,1.68 -5.8,3.18 -2.3,0.58 -0.72,-0.71 -2.79,-0.55 -0.29,-0.52 0.04,-1.38 1.58,-0.93 0.4,-0.93 -0.31,-2.06 -1.37,0.52 -0.93,-0.25 -1.65,0.93 -0.17,1.43 -1.48,0.08 -0.61,-1.45 -0.93,0.33 -3.42,-1.81 -0.57,-1.87 -0.84,-0.41 -0.09,-1.6 -2.42,-0.57 -2.94,-1.63 -0.74,0.86 0.32,2.17 -4.37,-3.16 -5.36,-1.49 -2.34,-1.32 -4.07,-0.33 -5.89,-4.04 -1.73,-0.19 -1.5,-1.13 -1.02,-0.03 1.33,3.11 -2.83,0.85 -0.57,1.85 -5.61,-0.17 -3.31,3.35 -4.77,-0.33 -3.26,0.88 -2.44,-1.67 -5.26,0.68 -2.32,-0.49 -1.4,-1.24 -1.47,0.39 -1.04,-0.97 -1.28,0.36 -0.55,2.09 -1.25,0.91 -0.69,-0.11 -2.33,-5.53 -1.26,-0.85 -1.27,-0.08 -0.49,-1.05 -6.07,0.61 -4.01,-0.96 0,0 -0.26,-1.71 1.35,-1.57 1.82,1.19 1.5,-0.5 0.12,-1.59 -0.8,-0.91 0.87,-1.57 1.67,-0.27 -0.05,-3.09 0.61,-0.99 0.02,-1.65 1.84,1.43 0.85,2.09 2.46,-4.42 1.52,2.11 1.8,-1.89 3.21,-0.06 1.96,1.27 3.95,-2.12 2.02,-0.39 0,-3.630001 1.44,-1.82 -0.3,-1.68 1.59,-1.13 -1.69,-1.07 0.42,-1.08 1.23,-0.44 1.28,-2.97 -0.76,-1.57 1.44,-0.5 -0.36,-1.87 2.24,-2.18 0.71,-2.42 0.51,-0.44 0.87,0.41 0.84,-1.02 -0.08,-2.51 2.91,-1.96 1.41,-0.3 2.32,0.91 2.14,1.63 0.34,-0.8 0.86,1.35 0.95,-0.61 -0.32,-5.24 1.78,1.46 2.11,-2.34 2.17,-1.21 2.68,2.4 0.59,3 1.16,1.71 3.25,-2.87 -0.18,-2.45 2.59,-2.32 1.52,-2.84 2.43,-1.1 2.78,-2.13 4.42,0.17 2.89,1.54 0.97,-1.21 2.05,-0.77 1.71,-1.69 3.63,1.47 0.33,0.99 0.66,-0.06 0.4,-1.62 1.6,-0.17 0.28,-0.72 z" 
                fill="rgb(151, 144, 238)" 
                stroke="white" 
                stroke-width=".7px"
                title="Koroška" 
                id="SI-KO" 
            />
        </svg>