<svg xmlns="http://www.w3.org/2000/svg" viewBox="127.81714000000001 269.40175 101.38000000000007 114.16999999999967" width="101.38000000000007" height="114.16999999999967">
            <path 
                d="m 144.80714,276.07175 0.72,-0.79 1.92,0.08 1.22,-1.2 1.27,1.34 5.38,-1.15 3.97,2.4 1.25,-0.14 1.73,1.74 -0.11,0.66 3.51,-0.22 0.38,0.24 -0.64,0.9 1.95,0.73 0.37,0.69 1.74,-1.77 -0.28,1.08 2.43,-0.08 1.31,1.47 4.43,-9.38 -0.17,-1.31 1.73,-1.6 1.65,-0.36 5.63,1.99 1.38,2.2 0.44,2.26 1.22,-0.13 0.74,1.11 1.71,-1.69 2.52,2.23 0.12,1.47 0.82,0.9 0.78,0 0.96,-2.34 1.51,-0.79 1.46,0.33 3.53,4.95 1.66,-1.01 0.41,-1.93 1.41,-2.12 2.34,0.68 1.56,-0.57 3.07,-2.61 1.3,2.45 -0.23,1.93 -1.07,0.65 0.18,1.41 2.05,2.59 -0.44,0.89 3.52,3.57 1.42,3.42 3.27,0.49 0.59,3.26 2.05,1.39 0.61,1.44 0,0 -3.23,0.19 -0.44,0.43 1.56,2.25 2.01,-0.1 0.88,0.48 -1.2,5.92 1.39,0.85 1.14,4.12 -3.76,0.76 -1.9,-4.42 -1.77,0.7 0.55,2.99 3.86,8.44 0.87,9.21 1.37,0.17 0,0 -1.37,6.01 -4.69,8.13 -2.62,2.68 -2.78,1.08 -2.34,0.14 0.59,4.84 -1.44,3.68 -0.65,7.36 -1.38,2.46 -0.78,0.09 -5.63,4.7 -2.43,1.32 -1.86,2.22 -2.87,-0.73 0,0.84 -2.8,0.65 -1.35,2.65 -5.37,2.26 -2.36,-0.43 -1.52,0.46 -3.55,3.32 -1.24,-1.37 -0.7,-2.08 -2.57,0 -1.52,-0.79 -1.73,-1.92 -2.24,0.25 -0.34,0.75 -1.77,0.84 -3.46,-5.29 -3.06,0.59 -1.31,0.87 -3.23,4.86 -0.13,3.32 -3.48,-1.05 -1.01,-0.81 -3.36,-0.46 -2.72,0.38 -1.67,1.1 -1.9,-0.05 0,0 -0.04,-0.84 0.97,-0.29 -0.57,-1.92 0.48,-0.08 -0.9,-1.79 0.48,-1.97 -1.24,0.38 -0.47,1.43 -1.41,-0.59 -0.38,-1.19 -5.45,-1.25 2.47,-2.29 0.76,-4.09 1.88,-2.48 0.38,-1.73 -1.58,-0.68 -1.17,0.6 -0.84,-0.65 0.28,-3.36 0.73,-1.13 -0.19,-1.28 1.14,-0.35 0.22,-0.62 1.34,-9.93 -3.16,-1.44 0.74,-2.14 -3.11,-1.97 1.06,-1.85 -0.34,-2.79 -1.88,-1.33 1.27,-3.73 -0.76,-1.06 0.19,-3.01 -0.13,-0.57 -1.64,-0.11 -0.62,-0.89 0.53,-1.33 -0.33,-0.65 1.26,-1.79 -0.19,-1.79 1.01,-0.03 0.41,-1.06 2.83,0.38 0.67,-1.06 -0.4,-3.22 -1.63,-0.66 1.29,-0.4 0.09,-1.06 -1.65,0.33 0.08,-0.87 -0.54,0.3 -0.28,-0.95 0.87,-0.57 -0.24,-0.55 -2.64,-1.84 -4.22,-0.49 -1.39,-2.36 0,0 0.93,-3.02 1.39,0.08 0.53,-7.68 1.41,-0.79 0.6,1.09 0.44,-3.32 -0.06,-0.95 -3.55,-6.28 10.01,-3.15 -0.26,-0.87 1.77,-2.48 1.25,-1.03 1.18,-0.08 z" 
                fill="rgb(151, 144, 238)" 
                stroke="white" 
                stroke-width=".7px"
                title="Notranjsko-kraška" 
                id="SI-NO" 
            />
        </svg>