<svg xmlns="http://www.w3.org/2000/svg" viewBox="36.73713800000006 278.7917500000001 107.97000199999998 118.38999999999993" width="107.97000199999998" height="118.38999999999993">
            <path 
                d="m 42.207138,290.94175 2.19,-0.57 8.07,0.08 2.63,1.06 4.73,0 1.56,-5.14 2.18,-0.02 2.49,-2.15 0.72,-3.45 -0.47,-1.96 5.66,1.63 3.5,2.61 0.97,1.71 1.54,0.47 1.78,1.46 4.13,-0.24 0.09,-1.9 0.84,0.13 0.79,-1 1.37,0.38 0.5,0.89 1.86,0.49 0.13,1.39 1.2,1.3 0.85,-0.05 1.01,0.82 2.87,0.16 4.03,-1.22 -0.25,1.27 1.050002,0.11 0,1.9 0.91,-0.05 -0.02,0.87 0.84,0.05 0.22,1.09 5.44,4.46 2.74,1.38 1.21,-0.27 0.32,0.84 1.07,-0.08 0.8,1.11 2.92,0.98 2.87,2.12 -0.6,2.01 1.17,-1.06 0.84,0.11 0.97,-1.66 2.68,0.46 1.14,1.42 2.07,1.14 0,0 1.39,2.36 4.22,0.49 2.64,1.84 0.24,0.55 -0.87,0.57 0.28,0.95 0.54,-0.3 -0.08,0.87 1.65,-0.33 -0.09,1.06 -1.29,0.4 1.63,0.66 0.4,3.22 -0.67,1.06 -2.83,-0.38 -0.41,1.06 -1.01,0.03 0.19,1.79 -1.26,1.79 0.33,0.65 -0.53,1.33 0.62,0.89 1.64,0.11 0.13,0.57 -0.19,3.01 0.76,1.06 -1.27,3.73 1.88,1.33 0.34,2.79 -1.06,1.85 3.11,1.97 -0.74,2.14 3.16,1.44 -1.34,9.93 -0.22,0.62 -1.14,0.35 0.19,1.28 -0.73,1.13 -0.28,3.36 0.84,0.65 1.17,-0.6 1.58,0.68 -0.38,1.73 -1.88,2.48 -0.76,4.09 -2.47,2.29 5.45,1.25 0.38,1.19 1.41,0.59 0.47,-1.43 1.24,-0.38 -0.48,1.97 0.9,1.79 -0.48,0.08 0.57,1.92 -0.97,0.29 0.04,0.84 0,0 -2.89,-1.35 -5.01,0.16 -3.25,-0.75 -4.81,-3.92 -1.5,-0.11 -5.51,-5.27 -2.4,-0.11 -0.6,1.27 0.22,1.84 -4.82,-1.81 -2.25,2.67 1.18,2.14 2.3,1 2.43,2.73 -0.89,0.27 0.78,1.29 -1.16,2.35 0.49,3.41 -2.92,2.4 -2.99,-1.3 -0.98,-1.1 -7.85,1.35 -0.57,1.29 -1.830002,1.49 -0.05,1.02 -1.71,1.27 -0.42,2.03 -1.52,0.24 -2.51,-0.51 -2.09,0.51 -0.59,-1.7 -1.77,-0.65 -5.15,0.08 -0.32,-1.81 -1.86,-0.67 0.85,-2.89 -1,-1.38 -2.74,-1.48 -2.2,0.32 -1.89,-0.54 -1.71,-1.78 -3.11,0.4 -2.23,3 -3.49,0.6 -1.52,0.78 -2.13,2.21 -1.81,0.62 -5.26,-4.13 -7.85,-2 -2.28,-1.75 -1.71,-1.7 1.03,-0.76 0.38,-1.59 -1.43,-2.98 0.36,-0.45 0.46,0.29 -0.27,-0.67 0.4,-0.46 1.75,0.05 -0.91,-0.13 0.57,-0.65 -0.55,-0.3 -0.31,-1.7 -1.36,0.16 -1.43,-0.76 -0.95,0.36 -0.53,-0.41 -0.57,-1.24 0.15,-1.76 -0.93,-1.27 3.12,1.21 4.06,0.3 1.39,-0.97 -0.57,-0.95 -0.34,0.92 -0.29,-0.21 0.12,-2.01 2.35,-0.62 3.31,1.68 2.53,0.38 2.3,-0.71 -0.38,-1.1 0.32,-0.98 2.66,0.79 0.85,-1.63 1.96,-0.86 3.31,-0.03 3.11,1.3 0.73,-1.46 2.71,-0.95 -1.16,-0.29 0.19,-0.84 2.55,-0.22 -2.43,-0.32 0.59,-1.22 1.71,-0.27 0.07,-0.89 -3.45,-3.09 -4.41,-2.6 0.28,-1.03 2.66,-0.16 0.65,-0.67 4.18,-0.74 9.14,4.82 8,-0.51 2.57,-1.54 2.73,-2.93 0.82,-2.89 6.040002,-3.39 3.16,-3.03 -1.96,-1.87 -4.390002,-1.98 -4.05,-3.55 -5.79,-7.83 -0.35,-5.81 -4.67,-4.12 -1.81,-4.88 -0.72,-0.66 -3.86,-0.92 -2.28,-1.93 -3.21,0.36 -2.03,-1.33 0.55,-0.79 -5.4,-3.07 -5.89,-5.62 -0.99,0.51 -1,-2.2 -5.34,0.82 0.24,-1.22 -3.72,1.82 -0.42,-1.23 -4.52,-2.06 z" 
                fill="rgb(151, 144, 238)" 
                stroke="white" 
                stroke-width=".7px"
                title="Obalno-kraška" 
                id="SI-JP" 
            />
        </svg>