<svg xmlns="http://www.w3.org/2000/svg" viewBox="138.9571400000002 138.64175 191.57999999999993 182.3599999999998" width="191.57999999999993" height="182.3599999999998">
            <path 
                d="m 228.85714,138.64175 4.6,3.1 1.02,-1.13 4.01,0.28 4.24,-1.57 0.19,7.33 -0.42,1.32 3.38,3.81 2.34,0.11 0.76,0.96 0.42,3.48 -0.51,3.27 1.63,0.6 3.82,-1.02 0.13,1.68 -1.65,3.15 1.61,2.33 0.02,1.92 -1.52,2.71 1.39,2.27 4.56,0 5.19,1.73 1.25,-0.77 2.55,0.8 4.45,-1.43 9.67,0.74 2.41,2.11 3,1.15 0.42,1.07 1.67,0.24 0.9,1.13 1.31,-0.52 1.18,3.31 2.35,0.38 -0.97,1.23 -1.14,-0.35 -0.74,1.67 0,0 -1.67,0.22 0.25,5.09 -0.99,1.09 -1.25,0.3 -0.12,1.75 -3.48,-0.87 -2.2,1.56 -1.6,0.35 -6.86,0.27 0.69,1.1 1.88,0.38 -0.13,1.4 0.98,0.49 0.74,1.91 1.41,0.71 -1.24,2.71 0.16,2.13 1.31,0 1.4,-0.74 0.59,0.33 4.85,-0.71 1.31,0.57 0.93,1.26 -0.64,2.82 0.76,1.03 0.07,1.53 2.64,2.79 2.06,0.25 3.91,0.16 2.41,-0.6 1.86,-3.09 1.89,-1.55 4.08,-1.81 2.21,3.58 -0.67,1.23 -2.68,0.3 1.31,2.13 0.04,2.21 1.31,0.77 -0.26,0.57 -2.34,0.38 0.68,1.45 1.68,1.45 3.74,1.42 9.71,-1.78 0,0 0.97,2.21 2.35,0.66 0,0 0.29,2.27 2.85,3.92 0.3,1.59 0.67,0.65 0,0 -3.12,-0.03 0.48,-0.81 -1.64,-0.55 -1.76,1.42 -0.76,2.18 -3.08,-1.2 -0.8,-1.09 -5.32,-0.22 -0.61,1.34 0.97,0.46 1.14,3.36 -0.59,1.47 -1.25,0.08 -0.38,0.79 -1.31,0.63 0.45,1.72 -0.85,0.68 -1.83,-0.3 -0.21,0.76 -0.93,-0.03 -2.33,-1.71 -2.99,0.27 -1.37,-1.58 -2.47,-0.38 -1.76,1.14 -0.21,3.14 -2.91,0.92 -2.41,0.14 -1.6,-1.45 -0.59,-1.63 -1.29,-1.12 0.04,-2.53 -1.66,0 -1.04,-2.98 -1.41,-0.68 -0.72,1.04 -1.03,0.05 0.12,2.13 -1.31,1.42 -3.54,-0.47 -1.06,0.74 -1.22,-0.52 -0.76,0.41 -0.78,-1.23 -1.14,1.01 -0.78,-1.03 -0.93,0.21 -0.13,-0.84 -0.82,-0.63 -1.63,1.8 -1.81,0.14 -0.15,1.74 -2.49,1.67 -2.3,-1.01 -1.42,2.1 0.61,1.01 -1.18,0.16 -1.75,2.37 -0.08,2.34 -0.53,0.3 -0.27,-0.68 -1.25,1.17 0.67,1.37 -0.94,0.27 -1.34,3.16 1.33,1.63 0.09,-0.76 0.78,-0.16 0.87,1.09 0.44,-0.66 0.74,0.68 1.01,0.03 -1.01,1.09 1.24,5.07 0.99,2.2 1.86,2.01 -0.38,0.63 -1.07,0.03 -0.21,3.15 1.05,2.18 2.17,1.39 1.59,3.81 -1.48,0.49 -0.65,1.68 -1.42,1.01 0.23,6.01 1.78,-1.04 0.86,1.17 0.05,1.42 1.18,0.21 1.52,1.2 0.16,0.73 -0.76,0.9 0.13,1.74 2.96,0.84 1.24,1.3 -0.36,0.74 0.36,0.84 -1.01,1.55 0,2.58 2.11,4.72 3.29,0.76 0.91,-2.14 0.76,0.08 0.72,1.95 0.86,-0.67 2.7,-0.25 2.41,1.66 -0.32,1.73 0.6,1.5 -1,1.11 0.21,5.32 -1.71,1.11 -0.63,1.36 -1.47,-1.04 -0.36,-0.94 -1.52,0.29 -1.5,-1.03 -4.35,-4.37 -6.97,-5.59 -1.07,-1.65 -0.91,0.57 -0.55,-0.52 -1.62,-2.36 -0.96,-3.48 -6.43,-4.67 -0.4,-1.65 -2.6,-2.61 -2.64,-0.44 -2.09,2.77 -2.21,0.71 -1.25,1.58 -2.22,-0.66 -1.03,0.44 -2.55,-0.79 -2.85,0.46 -1.12,-0.46 -0.47,0.06 -0.25,1.46 -5.26,-0.49 -0.63,1.23 0,0 -0.61,-1.44 -2.05,-1.39 -0.59,-3.26 -3.27,-0.49 -1.42,-3.42 -3.52,-3.57 0.44,-0.89 -2.05,-2.59 -0.18,-1.41 1.07,-0.65 0.23,-1.93 -1.3,-2.45 -3.07,2.61 -1.56,0.57 -2.34,-0.68 -1.41,2.12 -0.41,1.93 -1.66,1.01 -3.53,-4.95 -1.46,-0.33 -1.51,0.79 -0.96,2.34 -0.78,0 -0.82,-0.9 -0.12,-1.47 -2.52,-2.23 -1.71,1.69 -0.74,-1.11 -1.22,0.13 -0.44,-2.26 -1.38,-2.2 -5.63,-1.99 -1.65,0.36 -1.73,1.6 0.17,1.31 -4.43,9.38 -1.31,-1.47 -2.43,0.08 0.28,-1.08 -1.74,1.77 -0.37,-0.69 -1.95,-0.73 0.64,-0.9 -0.38,-0.24 -3.51,0.22 0.11,-0.66 -1.73,-1.74 -1.25,0.14 -3.97,-2.4 -5.38,1.15 -1.27,-1.34 -1.22,1.2 -1.92,-0.08 -0.72,0.79 0,0 -0.97,-2.34 -0.74,-5.04 -0.88,-1.41 -2.58,-1.99 0,-3.73 -0.68,-2.07 2.52,-1.6 0.33,-3.22 1.33,-0.84 0,-1.94 -0.61,-1.14 0.47,-1.58 -1.84,0.68 -0.38,-1.91 1.01,-0.46 -0.06,-1.53 2.64,0.38 0.8,-0.46 1.2,-3.24 1.16,-0.03 -0.46,-1.53 0.8,-1.2 -1.05,-0.6 0,0 0.97,-0.9 1.07,0 -0.14,-1.69 0.38,-0.54 1.31,0.02 0.12,-1.2 1.75,0.49 1.29,-0.38 0.15,-1.88 2.11,-1.28 -0.02,-1.2 2.47,-1.5 0.46,-2.6 1.46,-1.14 0.3,-0.88 -0.4,-4.83 1.26,-2.7 1.42,-0.77 0.82,-1.53 3.95,0.03 1.07,-2.21 1.14,-0.74 7.69,1.2 2,-0.54 1.46,1.34 2.45,-0.2 0.99,-2.15 -0.45,-1.02 0.26,-1.12 -1.78,-1.74 0.51,-3.39 1.6,-1.12 1.63,-0.3 1.5,-2.71 0.91,0.71 0.69,-0.41 0.02,-1.29 2.16,0.2 0.08,1.36 0.8,0.33 0.76,-1.12 -0.25,-2.11 2.74,0 4.71,-2.68 -1.98,-1.91 -0.99,-1.97 -0.17,-2 1.54,0.33 1.96,-0.57 1.35,0.46 0,0 0.02,0.49 5,-0.71 0,0 2.03,-1.28 -1.73,-1.18 0.46,-0.57 1.63,-0.22 1.44,0.9 3.52,0.03 0.89,0.54 1.18,-0.98 0.3,-1.59 1.32,-1.23 0.89,0.06 0.55,-0.63 1.1,0.43 2.61,-2.43 0.43,-1.24 1.01,-0.84 -0.15,-1.76 4.65,-3.69 -1.5,-2.36 0.53,-1.23 -2.73,-0.88 -0.08,-0.79 1.1,-1.59 3.29,-0.14 -1.82,-1.97 0.53,-1.43 -2.85,-1.15 0.87,-1.81 -2.83,-4.88 1.35,-1.89 1.94,-1.4 0.21,-0.77 -0.46,-0.93 -1.92,-0.8 -0.62,-0.93 -0.08,-0.66 1.61,-1.75 0.77,-2.06 -0.37,-1.32 -1.9,-1.37 0,-0.58 1.47,-0.82 2.39,-0.25 z" 
                fill="rgb(151, 144, 238)" 
                stroke="white" 
                stroke-width=".7px"
                title="Osrednjeslovenska" 
                id="SI-LJ" 
            />
        </svg>