<svg xmlns="http://www.w3.org/2000/svg" viewBox="351.93714000000006 46.491749 162.23999999999984 127.99000099999998" width="162.23999999999984" height="127.99000099999998">
            <path 
                d="m 459.12714,46.491749 5.15,7.57 0.59,-1.03 1.96,-0.71 1.88,3.03 -1.31,1.3 0.17,0.44 1.14,1.08 1.73,0.06 1.1,2.09 1.71,0.25 0.38,0.58 1.01,-0.16 0.57,0.6 0.99,-0.49 0.57,1.73 1.38,-1.07 1.96,0.83 1.27,-0.09 0.31,1.58 2.85,0.38 1.94,1.96 0.39,1.16 2.61,1.38 -0.12,1.07 -1.46,1.36 -0.91,0.11 -0.19,0.93 -1.03,0.67 -1.42,-0.14 -0.63,0.71 1.1,1.58 0.04,2.26 1.25,2.04 3.63,0.38 2.49,1.02 1.54,-0.38 2.97,0.55 -0.14,5.45 -1.33,2.1 0.55,2.59 2.95,3.49 0.67,2.04 1.34,0.94 0.57,1.35 0.16,1.320001 -1.11,1.15 1.26,1.08 0.32,2.03 -1.1,1.43 5.21,4.87 0.53,1.41 -1.14,6.18 -2.62,2.97 0.15,3.16 0.91,0.61 1.96,-0.39 0.87,-2 0.99,-0.14 0.27,4.34 -0.88,0.8 2.38,3.21 0.89,0.41 -0.53,0.85 1.01,2.7 0,0 -0.75,-0.03 0.02,1.18 3.37,5.93 0.66,3.81 -0.57,2.23 -6.67,0.66 -3.51,5.86 -3.44,1.1 -1.39,-0.98 -0.3,0.85 -0.84,0.24 -1.41,-0.63 -2.39,3.73 -3.21,1.12 -1.18,1.02 -1.69,-0.06 -3.46,1.02 -0.91,-1.1 -1.05,0.55 -1.46,-0.49 -1.03,1.31 -4.48,0.93 -1.18,1.4 -0.28,1.56 -2.32,1.89 -2.51,-0.49 -1.79,0.88 -0.63,1.59 -6.15,0.79 1.12,2.44 0,0 -4.56,1.1 -2.3,-0.14 -1.96,-3.84 -0.99,0.52 -2.03,-1.2 -1.27,0.22 0,0 -1.29,-0.36 -2.02,0.6 0,0 -2.41,-0.35 -1.45,0.57 -0.53,-0.74 0.55,-1.61 -2.28,0.27 -1.46,-0.46 -0.12,-0.47 -2.6,-0.06 -3.12,-0.87 -0.26,-1.45 -3.46,-1.32 -3.72,0.82 -1.64,-1.2 -3.3,0.9 -0.92,-0.79 -2.16,-0.25 -0.65,-2.17 0.29,-1.56 -1.9,-0.96 -1.94,-0.08 0,-0.58 1.44,-0.93 -0.15,-1.07 -1.25,-0.93 1.04,-3.13 -1.31,-1.56 0.04,-2.91 -0.91,-3.81 -0.96,-1.65 0.14,-2.25 -1.26,-1.1 -4.84,1.4 -0.86,-1.37 -0.17,-2.03 -1.04,-0.53 -1.5,1.38 -1.62,-1.16 -1.54,0.83 -3.15,0.08 -1.41,-0.77 0.1,-1.34 -3.9,-0.86 -0.93,-0.63 0.11,-1.32 -2.83,-0.63 -1.06,-1.12 2.56,-0.5 0.23,-0.44 -0.82,-1.15 0.95,-0.88 -1.16,-1.32 -1.82,-0.6 -0.65,-0.96 0.27,-0.75 1.44,0 0.54,-2.64 -0.25,-1.48 0.95,-1.7 -1.39,-0.55 -2.35,-2.64 -1.98,1.37 -2.36,-1.18 -0.28,-1.35 -1.75,-1.32 -2.03,0.85 -1.67,-0.3 -0.16,-2.72 -1.71,-2.01 -0.3,-2.72 -2.09,0.41 -1.45,-1.21 0,0 0.12,-1.46 -0.88,-1.54 -2.01,0.47 -1.05,-0.91 -2.88,1.6 -0.73,-0.58 -2.85,-0.42 -2.87,2.89 -0.79,0.42 -0.97,-0.33 0.97,-4.3 -0.18,-1.480001 0.75,0.02 0.07,-1.07 0.97,0.06 0.74,-1.71 0.04,-2.26 1.18,-0.36 0.53,-1.15 1.62,-0.36 1.88,-2.07 1.95,-8.59 0.12,-2.84 0.76,-0.66 0.87,0.13 0.8,-1.46 2.6,-1.98 -0.01,-3.53 0.72,-0.77 5.39,-0.22 -0.3,-4 0.86,-3.81 0,0 2.29,-1 0.76,1.05 2.63,0.25 9.19,-1.19 0.55,0.89 -0.2,1.13 1.76,0.25 0.59,1.13 1.3,0.6 1.4,-0.66 1.54,0.89 -0.1,2.59 1.43,1.41 0.27,2.62 2.26,0.74 1.44,-1.76 1.29,-0.5 1.62,0.52 0.7,1.24 0.25,-0.52 1.37,-0.08 0.17,-1.6 1.2,0.27 3.49,-3.39 0.59,-0.27 0.59,1.1 1.29,-2.32 0.08,-0.47 -1.18,-0.99 0.42,-0.8 1.31,-0.28 -1.33,-5.88 0.74,-0.69 1.48,0.31 2.06,-2.38 1.71,-0.38 0,-0.55 2.22,-0.23 1.35,-1.68 2.07,0.61 -0.67,0.63 -1.44,-0.58 -0.7,2.21 1.19,1.3 1.22,0.33 0.93,-0.36 -0.97,-1.79 0.84,-0.67 3.06,1 1.27,-0.72 0.19,-1.35 0.84,-1.11 2.83,-0.19 0.25,-3.7 0.57,-0.28 3.8,-0.08 4.16,2.4 3.97,0.5 3.36,-1.08 5.25,0.17 z" 
                fill="rgb(151, 144, 238)" 
                stroke="white" 
                stroke-width=".7px"
                title="Podravska" 
                id="SI-PD" 
            />
        </svg>