<svg xmlns="http://www.w3.org/2000/svg" viewBox="459.12713999999954 0.2617489999999494 153.2000000000001 139.310001" width="153.2000000000001" height="139.310001">
            <path 
                d="m 549.31714,1.061749 6.02,0.25 1.62,3.3 2.9,1.71 2.09,2.22 1.85,0.33 1.92,2.6 -0.12,1.58 -0.91,0.78 -0.51,1.63 0.05,3.6 -0.53,1.49 -3.19,0.67 -1.69,1.58 0.02,4.56 2.92,-0.06 0.31,0.95 -2,5.5 5.78,5.94 -0.15,2.63 0.53,0.14 1.01,2.37 2.43,-2.13 1.71,1.94 -0.1,1.46 -1.61,1.69 0.83,0.83 10.46,1.6 -1.92,10.02 -2.64,-0.03 -1.49,-1.32 -1.06,-0.03 -0.19,2.35 -1.1,0.91 0.19,2.07 1.31,1.1 -0.23,1.63 1.18,0.58 0.95,-0.39 0.97,0.72 1.69,2.15 1.08,2.84 4.32,0.88 1.93,3.34 1.33,0.83 1.3,2.67 0.78,-0.36 1.36,1.49 0.56,4.05 1.59,0.5 0.46,0.68 2.77,-0.27 1.85,2.95 0.13,2.09 -0.69,1.1 0.54,1.6 1.54,0.16 1.02,0.97 -1.33,3.47 0.32,0.96 1.13,0.630001 -0.46,1.38 -0.89,-0.22 -0.53,1.32 4.8,3.11 5.68,2.5 3.12,3.91 -1.58,-0.03 -0.95,0.91 -1.92,-1.84 -0.79,1.21 -3.04,-1.68 -0.52,-0.94 -1.33,-0.11 -0.74,-1.43 -1.58,1.21 -1.35,-0.35 -0.79,-0.8 1.02,-1.38 -0.09,-0.77 -3,-0.85 -2.61,-1.51 0.69,-1.19 -0.65,-1.02 -3.54,-1.21 -1.57,0.28 -0.27,-1.430001 -0.97,-1.02 -1.25,0.14 -0.99,0.82 -1.62,-0.05 -0.87,-1.08 -0.11,-1.87 -0.71,-0.66 -1.84,0.44 -1.41,-1.05 -0.2,1.11 -0.63,0.19 -2.17,-1.85 0.53,-1.37 -0.53,-0.8 -0.93,-0.03 -0.72,2.31 -2.62,1.24 -0.56,-0.22 -1.34,-2.92 -0.86,0.36 -0.57,1.08 -2.36,-1.08 -1.02,3.47 -0.82,0.17 -0.4,-0.97 -1,-0.19 -2.7,1.13 -0.92,1.76 -2.28,1.410001 -0.77,-0.420001 -4.58,0.390001 -1.83,5.09 -1.58,1.32 0,1.73 2.95,6.6 0.95,8.61 1.79,2.88 3.64,2.97 1.52,2.72 -0.2,2.83 -1.87,3.18 -1.59,1.35 -2.93,0.22 -0.74,-2.33 -1.81,-2.06 -1.12,1.29 -1.86,0.93 -2.26,-0.3 -0.78,-0.69 -3,1.73 -1.52,-0.68 -1.86,0.63 -2.72,-4.34 -5.99,-3.93 -1.63,0.25 -2.81,2.25 -2.28,3.87 -1.16,0.08 -1.64,-0.85 -2.96,1.32 -2.47,-0.36 -1.86,-1.31 0,0 -1.01,-2.7 0.53,-0.85 -0.89,-0.41 -2.38,-3.21 0.88,-0.8 -0.27,-4.34 -0.99,0.14 -0.87,2 -1.96,0.39 -0.91,-0.61 -0.15,-3.16 2.62,-2.97 1.14,-6.18 -0.53,-1.41 -5.21,-4.87 1.1,-1.43 -0.32,-2.03 -1.26,-1.08 1.11,-1.15 -0.16,-1.320001 -0.57,-1.35 -1.34,-0.94 -0.67,-2.04 -2.95,-3.49 -0.55,-2.59 1.33,-2.1 0.14,-5.45 -2.97,-0.55 -1.54,0.38 -2.49,-1.02 -3.63,-0.38 -1.25,-2.04 -0.04,-2.26 -1.1,-1.58 0.63,-0.71 1.42,0.14 1.03,-0.67 0.19,-0.93 0.91,-0.11 1.46,-1.36 0.12,-1.07 -2.61,-1.38 -0.39,-1.16 -1.94,-1.96 -2.85,-0.38 -0.31,-1.58 -1.27,0.09 -1.96,-0.83 -1.38,1.07 -0.57,-1.73 -0.99,0.49 -0.57,-0.6 -1.01,0.16 -0.38,-0.58 -1.71,-0.25 -1.1,-2.09 -1.73,-0.06 -1.14,-1.08 -0.17,-0.44 1.31,-1.3 -1.88,-3.03 -1.96,0.71 -0.59,1.03 -5.15,-7.57 0,0 2.24,-1.46 6.31,-1.99 7.38,-0.06 8.72,3.95 5.01,4.42 9.32,2.57 1.91,1.68 1.39,3.04 4.62,2.73 1.03,-1.32 0.22,-6.35 -2.31,-4.59 -0.25,-1.57 0.68,-1.69 -2.16,-0.38 -0.95,-1.47 -2.21,0.03 0.36,-1.33 -2.54,-2.29 -0.95,-2.4 0.41,-1.36 -0.34,-1.91 0.65,-1.99 -0.36,-4.31 1.37,-3.82 -0.63,-4.18 0.93,-0.44 0.4,-1.16 -1.41,-1.66 -1.12,-3.16 2.28,-2.21 0.95,1.19 0.7,0.11 0.84,-1.05 3.23,-1.22 0.5,-0.09 0.45,1.67 1.83,-2 1.54,0.67 1.59,-0.14 0.78,-1.11 -0.13,-1.19 2.03,-1.83 1.31,0.17 2.04,-3.1 0.87,-0.2 0.91,1.05 1.73,-2.13 0.93,-0.33 0.27,1.19 1.31,0.03 1.16,1.77 2.77,0.89 2.47,0 0.97,-1.36 2.59,0.33 2.39,-2.27 6.8,-1.05 2.61,-1.55 z" 
                fill="rgb(151, 144, 238)" 
                stroke="white" 
                stroke-width=".7px"
                title="Pomurska" 
                id="SI-PM" 
            />
        </svg>