<svg xmlns="http://www.w3.org/2000/svg" viewBox="228.85714000000007 104.72175 233.04999999999973 135.67000000000024" width="233.04999999999973" height="135.67000000000024">
            <path 
                d="m 366.84714,104.72175 1.45,1.21 2.09,-0.41 0.3,2.72 1.71,2.01 0.16,2.72 1.67,0.3 2.03,-0.85 1.75,1.32 0.28,1.35 2.36,1.18 1.98,-1.37 2.35,2.64 1.39,0.55 -0.95,1.7 0.25,1.48 -0.54,2.64 -1.44,0 -0.27,0.75 0.65,0.96 1.82,0.6 1.16,1.32 -0.95,0.88 0.82,1.15 -0.23,0.44 -2.56,0.5 1.06,1.12 2.83,0.63 -0.11,1.32 0.93,0.63 3.9,0.86 -0.1,1.34 1.41,0.77 3.15,-0.08 1.54,-0.83 1.62,1.16 1.5,-1.38 1.04,0.53 0.17,2.03 0.86,1.37 4.84,-1.4 1.26,1.1 -0.14,2.25 0.96,1.65 0.91,3.81 -0.04,2.91 1.31,1.56 -1.04,3.13 1.25,0.93 0.15,1.07 -1.44,0.93 0,0.58 1.94,0.08 1.9,0.96 -0.29,1.56 0.65,2.17 2.16,0.25 0.92,0.79 3.3,-0.9 1.64,1.2 3.72,-0.82 3.46,1.32 0.26,1.45 3.12,0.87 2.6,0.06 0.12,0.47 1.46,0.46 2.28,-0.27 -0.55,1.61 0.53,0.74 1.45,-0.57 2.41,0.35 0,0 1.75,-0.6 1.56,0.36 0,0 1.27,-0.22 2.03,1.2 0.99,-0.52 1.96,3.84 2.3,0.14 4.56,-1.1 0,0 0.46,2.3 -1.11,0.74 -0.21,2.05 -1.31,3.12 -1.44,1.13 -3.84,1.56 -1.73,-0.91 0.89,-1.88 -0.83,-1.05 -2.32,-0.1 -0.63,1.2 -1.12,0.33 -0.34,-1.78 -5.66,-0.14 -3.27,-1.23 -3.06,2.03 -0.7,-0.17 -2.15,1.04 -1.45,2.58 1.3,1.04 -0.42,0.79 0.44,2.27 -0.54,1.48 -1.42,0.33 -0.21,1.47 -0.88,1.21 -4.52,2.43 -0.7,1.83 1.39,1.07 0.45,1.31 -3.23,1.59 1.29,1.91 0.8,0.06 -0.4,0.65 1.05,0.17 0.17,1.36 -0.87,1.4 0.76,0.24 -0.37,0.63 -0.53,-0.08 0.38,0.96 -0.89,1.25 1.06,2.38 0.74,-0.05 -0.13,1.88 1.52,0.03 0.46,0.71 -0.82,1.53 0.36,0.82 2.02,1.33 1.72,-0.19 0.59,-0.9 0.5,0.11 0.55,0.68 -0.19,0.63 0.91,-0.13 0.84,0.62 0.23,2.82 2.03,-1.07 0.8,1.12 1.12,-0.44 2.72,2.52 2.94,1.12 0.93,-0.22 1.12,1.74 0,0 -2.62,-0.51 -2.01,1.33 -2.57,-0.76 -2.45,0.27 -1.82,3.52 -1.18,0.11 -2.38,1.36 -2.47,4.15 -1.94,1.72 -4.69,1.88 -6.59,0.71 1.31,-2.62 3.85,-2.45 0.9,-1.45 0.34,-2.56 -3.88,-0.6 -1.71,0.92 -0.87,-0.24 -1.43,0.71 -0.68,-0.38 0.25,-0.96 -0.9,-2.07 -0.4,-3.69 -1.9,-0.46 -1.61,-3.22 -2.17,-0.96 -2.22,1.64 0,-0.68 -1.26,-1.23 -3.21,-1.69 -4.27,0.87 -3.1,-0.74 -1.67,0.88 0,0 -1.35,-0.36 -2.34,0.36 0,0 -3.59,-0.69 -1.56,-1.44 -3.89,2.21 -4.83,-0.25 -2.03,0.41 -3.23,-1.01 -1.92,0.77 -2.42,-0.39 -0.19,3.61 -1.5,-1.15 0.19,-4.7 -1.52,-0.73 0.02,-2.16 -1.1,-1.42 -0.7,-0.06 -0.21,1.32 -0.88,0.84 -2.11,0.44 -2.26,-0.33 -2.3,-1.88 -2.33,0.84 -1.49,-0.71 -1.99,1.21 -0.82,-0.09 -0.36,1.37 2.81,1.75 -0.04,1.03 -1.36,2.57 0.7,1.31 -1.07,1.15 2.72,1.04 -0.3,4.14 -2.55,-1.88 -2.62,-1.04 -7.24,-1.74 -1.48,-0.03 -0.71,0.66 -4.56,1.28 -2.51,-0.52 0,0 -2.35,-0.66 -0.97,-2.21 0,0 -0.53,-0.68 0.13,-1.26 1.82,-1.39 1.22,1.34 0.32,-0.27 -0.03,-3.36 0.83,0.24 2.05,-0.76 -0.24,-1.23 0.7,-0.79 2.43,1.31 0.63,-0.25 2.53,0.85 1.76,-0.25 2.17,-1.14 -4.41,-2.65 0.95,-3.14 0.8,-0.44 -0.32,-1.18 0.61,-0.13 1.04,1.12 4.45,1.69 0.34,-1.34 0.78,-0.65 2.43,-0.61 -1.46,-1.28 -0.65,-1.99 -0.8,-0.33 -0.24,-1.45 -3.48,-2.46 -1.05,-4.46 -0.96,-0.16 -1.54,0.82 -1.58,-0.28 0.32,-2.32 -1.12,-0.11 -0.28,-1.81 -2.59,-2.16 -0.53,-1.31 -1.39,-0.63 -4.84,3.2 -4.68,0.27 -1.8,-0.71 -1.64,1.34 -1.48,0.09 -1.35,1.36 -0.93,-0.27 0.27,-1.5 -0.38,0.13 -0.2,-0.6 -3.26,0.06 -2.34,-0.72 -1.63,0.99 -3.9,1.01 -3.65,-0.16 -1.88,-2.58 -2.15,-1.23 0,-2.32 0,0 0.74,-1.67 1.14,0.35 0.97,-1.23 -2.35,-0.38 -1.18,-3.31 -1.31,0.52 -0.9,-1.13 -1.67,-0.24 -0.42,-1.07 -3,-1.15 -2.41,-2.11 -9.67,-0.74 -4.45,1.43 -2.55,-0.8 -1.25,0.77 -5.19,-1.73 -4.56,0 -1.39,-2.27 1.52,-2.71 -0.02,-1.92 -1.61,-2.33 1.65,-3.15 -0.13,-1.68 -3.82,1.02 -1.63,-0.6 0.51,-3.27 -0.42,-3.48 -0.76,-0.96 -2.34,-0.11 -3.38,-3.81 0.42,-1.32 -0.19,-7.33 -4.24,1.57 -4.01,-0.28 -1.02,1.13 -4.6,-3.1 0,0 0.02,-0.28 0,0 0.96,-1.48 -0.58,-0.61 1.02,-1.01 0.59,-1.87 0.42,-5.19 -1.14,-1.26 0.55,-3.22 1.46,-0.66 0.61,-1.26 2.07,-0.69 4.41,-0.06 3.76,-1.51 2.07,-0.02 0.78,-1.24 1.81,-0.41 0.47,-1.43 0,0 4.01,0.96 6.07,-0.61 0.49,1.05 1.27,0.08 1.26,0.85 2.33,5.53 0.69,0.11 1.25,-0.91 0.55,-2.09 1.28,-0.36 1.04,0.97 1.47,-0.39 1.4,1.24 2.32,0.49 5.26,-0.68 2.44,1.67 3.26,-0.88 4.77,0.33 3.31,-3.35 5.61,0.17 0.57,-1.85 2.83,-0.85 -1.33,-3.11 1.02,0.03 1.5,1.13 1.73,0.19 5.89,4.04 4.07,0.33 2.34,1.32 5.36,1.49 4.37,3.16 -0.32,-2.17 0.74,-0.86 2.94,1.63 2.42,0.57 0.09,1.6 0.84,0.41 0.57,1.87 3.42,1.81 0.93,-0.33 0.61,1.45 1.48,-0.08 0.17,-1.43 1.65,-0.93 0.93,0.25 1.37,-0.52 0.31,2.06 -0.4,0.93 -1.58,0.93 -0.04,1.38 0.29,0.52 2.79,0.55 0.72,0.71 2.3,-0.58 5.8,-3.18 -0.4,-1.68 0.72,-0.22 2.01,-4.34 0.8,-0.57 0.1,-4.26 1.82,-5.12 2.47,-0.9 1.88,-1.57 4.77,-1.07 0.97,-1.85 -2.85,-3.1 -0.59,-3.28 z" 
                fill="rgb(151, 144, 238)" 
                stroke="white" 
                stroke-width=".7px"
                title="Savinjska" 
                id="SI-SA" 
            />
        </svg>