<svg xmlns="http://www.w3.org/2000/svg" viewBox="326.42714 212.41175000000004 122.35999999999996 85.0799999999997" width="122.35999999999996" height="85.0799999999997">
            <path 
                d="m 326.42714,225.14175 2.51,0.52 4.56,-1.28 0.71,-0.66 1.48,0.03 7.24,1.74 2.62,1.04 2.55,1.88 0.3,-4.14 -2.72,-1.04 1.07,-1.15 -0.7,-1.31 1.36,-2.57 0.04,-1.03 -2.81,-1.75 0.36,-1.37 0.82,0.09 1.99,-1.21 1.49,0.71 2.33,-0.84 2.3,1.88 2.26,0.33 2.11,-0.44 0.88,-0.84 0.21,-1.32 0.7,0.06 1.1,1.42 -0.02,2.16 1.52,0.73 -0.19,4.7 1.5,1.15 0.19,-3.61 2.42,0.39 1.92,-0.77 3.23,1.01 2.03,-0.41 4.83,0.25 3.89,-2.21 1.56,1.44 3.59,0.69 0,0 1.35,-0.36 2.34,0.36 0,0 1.67,-0.88 3.1,0.74 4.27,-0.87 3.21,1.69 1.26,1.23 0,0.68 2.22,-1.64 2.17,0.96 1.61,3.22 1.9,0.46 0.4,3.69 0.9,2.07 -0.25,0.96 0.68,0.38 1.43,-0.71 0.87,0.24 1.71,-0.92 3.88,0.6 -0.34,2.56 -0.9,1.45 -3.85,2.45 -1.31,2.62 6.59,-0.71 4.69,-1.88 1.94,-1.72 2.47,-4.15 2.38,-1.36 1.18,-0.11 1.82,-3.52 2.45,-0.27 2.57,0.76 2.01,-1.33 2.62,0.51 0,0 2.09,2.73 -1.56,0.41 -0.28,1.01 -1.14,0.74 0.44,0.73 -0.84,2.84 0.67,0.55 -0.46,0.38 -0.49,-0.33 -1.12,1.28 0.6,0.5 0.59,-0.25 -0.15,2.65 -0.78,0 -0.44,1.09 -0.77,-0.11 -0.29,1.2 1.24,1.6 -1.15,0.63 0.86,0.79 0.91,5.56 -0.26,4.77 0.41,2.1 -0.77,2.97 0.2,1.71 -1.12,0.63 -4.06,4.71 1.5,5.33 -0.59,1.47 1.23,2.5 -1.25,1.77 1.56,0.57 2.43,2.58 0.28,1.2 -3.17,1.17 -4.79,0.3 -4.41,5.65 -2.6,-3.45 -2.3,-0.95 -1.01,-1.22 -5.77,-1.74 -1.58,-1.58 -2.05,2.34 -0.31,1.41 -1.21,-0.65 -0.57,-1.66 -2.24,-0.38 -0.94,5.14 -1.65,1.63 -4.46,0.41 -0.38,-1.69 -1.73,-0.95 -2.72,1.36 -0.38,1.69 -1.69,0.32 1.4,5.84 -2.01,0.9 -3.06,-0.49 -1.94,0.46 -3.19,-0.35 -4.12,1.06 0,0 -3.01,-10.03 -1.69,-2.25 -0.49,-2.45 -1.24,-0.98 0.35,-1.06 4.31,-0.87 1.12,-1.99 -2.39,0.03 -0.19,-2.58 -0.57,-0.36 0.62,-1.77 -2.15,-1.33 -4.48,-1.44 -1.12,-0.98 1.56,-4.08 -0.78,-11 1.4,-1.56 0.06,-0.73 -0.8,-1.37 -2.56,-0.79 -0.08,-3.46 -2.35,0.19 -2.99,-1.09 0.12,3 -2.21,-1.93 -2.58,-0.82 -0.63,0.27 0,1.09 -0.8,1.15 1.56,1.77 -0.11,1.69 -1.79,0.13 -1.86,-3.35 -1.12,-0.71 -1.39,0.08 0.27,2.1 -0.54,0.74 -1.61,0.08 -0.21,1.55 -1.6,-0.76 -0.78,0.55 0.12,1.41 -1.24,-0.05 -4.22,-1.75 -4.48,-4.3 -2.03,-1.17 -0.25,-2.68 -1.81,-0.92 0.5,-2.78 2.3,-1.09 0.57,-1.37 -0.25,-1.77 -1.6,-0.82 -3.24,-0.11 -0.59,0.22 -0.21,1.34 -0.86,0.68 -0.68,-2.13 -4.05,-1.31 0,0 -0.67,-0.65 -0.3,-1.59 -2.85,-3.92 z" 
                fill="rgb(151, 144, 238)" 
                stroke="white" 
                stroke-width=".7px"
                title="Spodnjeposavska" 
                id="SI-PS" 
            />
        </svg>