<svg xmlns="http://www.w3.org/2000/svg" viewBox="274.45713999999975 185.73175 71.11000000000007 38.31999999999999" width="71.11000000000007" height="38.31999999999999">
            <path 
                d="m 292.37714,185.73175 0,2.32 2.15,1.23 1.88,2.58 3.65,0.16 3.9,-1.01 1.63,-0.99 2.34,0.72 3.26,-0.06 0.2,0.6 0.38,-0.13 -0.27,1.5 0.93,0.27 1.35,-1.36 1.48,-0.09 1.64,-1.34 1.8,0.71 4.68,-0.27 4.84,-3.2 1.39,0.63 0.53,1.31 2.59,2.16 0.28,1.81 1.12,0.11 -0.32,2.32 1.58,0.28 1.54,-0.82 0.96,0.16 1.05,4.46 3.48,2.46 0.24,1.45 0.8,0.33 0.65,1.99 1.46,1.28 -2.43,0.61 -0.78,0.65 -0.34,1.34 -4.45,-1.69 -1.04,-1.12 -0.61,0.13 0.32,1.18 -0.8,0.44 -0.95,3.14 4.41,2.65 -2.17,1.14 -1.76,0.25 -2.53,-0.85 -0.63,0.25 -2.43,-1.31 -0.7,0.79 0.24,1.23 -2.05,0.76 -0.83,-0.24 0.03,3.36 -0.32,0.27 -1.22,-1.34 -1.82,1.39 -0.13,1.26 0.53,0.68 0,0 -9.71,1.78 -3.74,-1.42 -1.68,-1.45 -0.68,-1.45 2.34,-0.38 0.26,-0.57 -1.31,-0.77 -0.04,-2.21 -1.31,-2.13 2.68,-0.3 0.67,-1.23 -2.21,-3.58 -4.08,1.81 -1.89,1.55 -1.86,3.09 -2.41,0.6 -3.91,-0.16 -2.06,-0.25 -2.64,-2.79 -0.07,-1.53 -0.76,-1.03 0.64,-2.82 -0.93,-1.26 -1.31,-0.57 -4.85,0.71 -0.59,-0.33 -1.4,0.74 -1.31,0 -0.16,-2.13 1.24,-2.71 -1.41,-0.71 -0.74,-1.91 -0.98,-0.49 0.13,-1.4 -1.88,-0.38 -0.69,-1.1 6.86,-0.27 1.6,-0.35 2.2,-1.56 3.48,0.87 0.12,-1.75 1.25,-0.3 0.99,-1.09 -0.25,-5.09 z" 
                fill="rgb(151, 144, 238)" 
                stroke="white" 
                stroke-width=".7px"
                title="Zasavska" 
                id="SI-ZS" 
            />
        </svg>