<svg xmlns="http://www.w3.org/2000/svg" viewBox="477.0355700000003 465.6914200000004 135.23999999999984 84.18999999999954" width="135.23999999999984" height="84.18999999999954">
            <path 
                d="m 563.51557,497.08142 2.9,4.39 6.82,4.26 8.35,0.68 1.88,2.9 0.51,5.28 4.6,7.51 2.39,0.34 2.22,4.09 2.46,0.43 2.65,-3.33 3.07,1.02 4.26,4.09 5.63,-1.02 1.02,2.56 -1.53,2.38 -15.35,9.38 -2.04,-1.02 -15.86,0.17 -5.8,-2.56 -5.62,3.75 -2.22,6.48 -3.41,1.02 -5.96,-4.26 -2.39,-6.31 -3.66,-4.14 -3.16,-12.39 -3.41,-3.75 -4.09,-2.05 -0.92,1.2 2.11,4.6 -1.87,4.6 -4.39,0.57 -3.63,-2.79 -4.02,0.79 -0.24,5.69 1.71,8.87 -5.63,4.09 -7.33,0 -6.49,-4.08 -1.35,-3.08 0.65,-3.02 -0.99,-4.48 -6.14,-2.39 -4.02,0.07 -1.78,-1.6 -2.04,-10.06 -3.41,-2.9 -2.39,0.17 0,0 -8.06,-9.2 -0.51,-4.62 8.56,-5.14 -4.8,-5.13 9.59,-7.53 5.82,2.22 8.04,-7.01 8.9,-0.17 3.26,-4.11 5.3,-1.2 1.71,-5.31 0,0 1.89,-0.34 0,0 7.87,3.94 8.21,-0.86 1.37,2.91 -1.71,5.31 -5.65,4.96 1.54,4.45 3.94,1.2 11.3,0.34 z" 
                fill="rgb(151, 144, 238)" 
                stroke="white" 
                stroke-width=".7px"
                title=" Ştefan Vodă" 
                id="MD-SV" 
            />
        </svg>