<svg xmlns="http://www.w3.org/2000/svg" viewBox="401.04557000000005 353.06142 91.7199999999998 105.10000000000014" width="91.7199999999998" height="105.10000000000014">
            <path 
                d="m 422.98557,446.86142 0.31,-0.97 0,0 0.85,-13.13 -1.36,-8.86 -3.58,-5.12 -4.44,1.02 -2.64,2.31 0,0 0,0 0,0 2.05,-9.64 -1.54,-3.06 -4.6,-5.12 -5.28,-0.68 -1.71,-2.56 0.85,-7.5 3.58,-4.6 0,0 -0.85,-3.4 4.94,-4.02 11.26,-1.53 1.53,1.36 0,0 1.19,2.05 0,0 1.2,5.62 0,0 3.07,3.07 2.38,-0.85 2.73,-3.24 0,0 6.48,-8.53 9.03,-0.85 1.54,-1.19 0.68,-5.8 -1.02,-6.82 1.53,-2.9 4.43,-2.55 1.88,-6.31 0,0 2.05,0 0,0 2.89,0.94 9.21,9.71 2.39,6.14 -0.34,4.09 -3.07,6.99 2.04,3.92 0,0 -1.19,2.05 0,0 -7.67,-2.39 -2.56,0.34 -0.68,6.14 0,0 1.02,2.56 0,0 4.78,3.92 0,0 6.64,2.73 0,0 3.76,-1.88 0,0 3.58,-2.21 0,0 3.58,-1.88 5.96,2.39 2.22,2.56 0,0 -0.51,3.58 0,0 -2.22,3.41 1.02,3.75 0,0 2.39,5.62 0,0 -1.7,3.41 -1.03,-2.9 0,0 -0.34,-1.7 -1.53,0 -0.51,-1.19 1.19,-0.52 -1.36,-1.19 0,0 -9.21,-0.85 -0.85,1.7 0,0 -1.03,2.39 0,0 0,3.92 -1.53,2.73 2.39,4.6 0,0 1.36,1.71 0,0 2.22,5.79 0,0 -17.56,-0.51 0,0 -7.5,6.48 -6.65,1.7 -4.95,4.95 0,0 -0.17,3.41 2.05,4.26 -0.68,4.43 0,0 -5.63,-0.17 -2.39,-2.21 0,0 -1.53,-2.73 0,0 -4.43,-5.29 -4.78,-1.87 z" 
                fill="rgb(151, 144, 238)" 
                stroke="white" 
                stroke-width=".7px"
                title="Anenii Noi" 
                id="MD-AN" 
            />
        </svg>