<svg xmlns="http://www.w3.org/2000/svg" viewBox="354.92557000000005 504.19142000000005 56.68999999999994 64.5399999999998" width="56.68999999999994" height="64.5399999999998">
            <path 
                d="m 371.46557,527.55142 -1.88,-2.9 0.69,-2.55 5.45,-1.88 5.29,-3.58 11.59,-11.76 2.9,-0.69 6.99,2.39 4.61,6.11 0.59,2.93 3.92,1.19 0,0 -1.97,3.68 -5.53,0.53 -7.25,4.31 2.39,12.79 3.58,4.04 2.9,9.6 -1.7,7.79 -4.61,2.95 -1.19,2.22 -0.51,1.87 1.91,2.14 0,0 -11.12,-2.82 -6.14,-5.29 -5.28,2.05 -1.37,3.24 -7.84,-1.19 -6.82,2.38 -3.07,-0.51 0.17,-3.41 -3.24,-7.5 3.24,-0.85 5.97,0.85 16.2,-4.43 1.7,-0.68 2.39,-6.14 -1.03,-3.58 -8.01,-5.29 -2.21,-5.45 -1.85,-0.67 0,0 z" 
                fill="rgb(151, 144, 238)" 
                stroke="white" 
                stroke-width=".7px"
                title="Basarabeasca" 
                id="MD-BS" 
            />
        </svg>