<svg xmlns="http://www.w3.org/2000/svg" viewBox="0.27557077000003316 21.741415000000046 107.87999922999998 74.65999999999998" width="107.87999922999998" height="74.65999999999998">
            <path 
                d="m 89.565571,30.341415 1.39,-0.6 8.76,4.35 0,0 -3.15,8.62 10.059999,6.99 0,0 1.09,3.28 0,0 -2.4,7.87 2.84,3.06 -0.66,1.97 -3.5,3.28 -4.149999,-0.66 -1.97,3.94 -4.8,-0.44 -5.69,-4.15 -0.43,-2.63 2.18,-4.37 -1.09,-1.09 -2.84,-0.87 -3.5,1.74 -0.87,2.41 -3.94,2.62 -0.87,16.83 -9.66,11.37 0,0 -3.79,2.54 -3.08,-1.46 -3.64,-3.97 3.5,-1.64 1.96,0.73 1.02,-1.82 -6.93,-2.16 0.34,-2.73 -1.59,-3.98 -2.96,-2.04 -1.26,0.47 0.24,3.5 -0.91,1.37 -2.44,0.03 -1.88,-2.99 0,-4.09 -6.36,-5 -3.41,-0.8 -0.12,-2.04 -3.41,-2.73 -5.23,-2.96 -2.27,0 -2.9,3.32 -1.8,0.23 -0.87,-4.57 -2.16,0.34 -1.39,3.48 -1.56,0.05 -1.14,-4.1 -2.03,1.56 0.1,2.88 -1.2500002,1.02 -2.39,-3.75 -4.63,-1.01 -1.85000003,-5.7 4.32000003,-6.36 4.55,-0.68 0,-7.73 2.7200002,-1.48 1.37,0.45 6.93,11.03 7.28,-0.11 1.25,-1.82 -1.14,-1.25 0.46,-5.91 -1.6,-6.37 -2.84,-5.11 9.89,-0.91 2.39,-6.82 2.04,0.45 5.24,5.48 11.02,7.82 2.39,0.11 5.91,-4.77 4.66,3.64 1.93,-0.91 -2.05,-11.14 2.62,-1.71 7.04,2.73 4.79,4.02 z" 
                fill="rgb(151, 144, 238)" 
                stroke="white" 
                stroke-width=".7px"
                title="Briceni" 
                id="MD-BR" 
            />
        </svg>