<svg xmlns="http://www.w3.org/2000/svg" viewBox="247.28557000000012 604.9014200000005 80.30999999999995 163.64999999999986" width="80.30999999999995" height="163.64999999999986">
            <path 
                d="m 327.59557,734.20142 0,2.56 0,0 -10.94,2.71 -3.24,2.22 -1.53,-0.85 0,0 -1.36,-5.45 0,0 -0.51,-12.1 1.02,-2.05 7.85,-1.7 0,0 4.17,2.59 4.54,12.07 z m -9.24,-119.45 -0.34,3.75 0,0 0.07,0 0,0 -0.58,1.02 -7.33,1.19 -1.88,1.71 -0.51,8.69 -2.39,5.46 1.02,1.88 0.85,16.2 4.94,4.77 1.19,2.73 0,0 -2.05,2.73 0,0 -1.19,1.02 0,0 -1.53,-0.17 0,0 -9.04,-0.17 -1.36,1.19 2.05,10.91 1.88,2.39 8.87,1.71 5.29,7.16 2.73,-3.24 2.73,2.05 0,5.28 1.36,2.9 3.58,2.9 -0.51,3.58 -1.7,0.51 -0.68,2.45 0,0 -3.75,0.36 0,0 -5.45,1.54 -5.63,-0.34 0,0 -5.28,-2.22 -6.65,-0.51 -6.65,-5.11 -2.39,0.17 -1.36,1.36 0.17,15.34 2.39,5.12 0,0 0,9.72 0,0 -4.6,5.46 0,3.58 2.56,3.07 0,0 1.53,2.22 0,0 -0.17,2.73 -2.05,0.68 0,0 -2.05,1.53 0,0 0,1.98 -3.83,0.32 -6.48,9.38 -0.68,6.82 -3.82,-1.1 -1.85,-1.79 -1.71,-4.84 0.14,-9.25 -3.56,-2.42 0.14,-5.4 -6.12,-0.85 -3.98,-5.4 -3.7,-1.42 2.56,-5.12 2.13,-0.14 1.99,-3.13 5.97,-0.43 2.42,-2.56 -1.28,-6.12 2.42,-4.98 -1.42,-9.53 -2.99,-6.12 0.71,-6.26 -3.41,-1.85 -4.12,-11.02 0.85,-18.64 -2.7,-9.96 0.85,-3.98 -1.71,-7.11 -3.98,-6.12 1.57,-3.27 0.43,-8.53 -1.14,-2.99 3.27,-4.27 -0.18,-1.97 0,0 9.51,-2.48 0,0 7.84,0.51 5.29,2.39 1.88,-1.36 5.8,-0.51 0,0 2.56,2.9 0,0 4.09,4.09 1.88,0.34 9.72,-2.05 0,0 5.63,1.36 0,0 1.71,-8.35 4.77,-1.02 2.22,-1.7 0,0 1.85,-1.2 0,0 2.24,1.2 0.13,8.65 z" 
                fill="rgb(151, 144, 238)" 
                stroke="white" 
                stroke-width=".7px"
                title="Cahul" 
                id="MD-CA" 
            />
        </svg>