<svg xmlns="http://www.w3.org/2000/svg" viewBox="251.22557 530.9614199999997 75.82999999999998 86.86000000000001" width="75.82999999999998" height="86.86000000000001">
            <path 
                d="m 251.22557,611.95142 3.39,-8.13 0.42,-10.13 1.18,-1.39 -0.22,-3.95 -3.84,-4.69 -0.75,-4.7 3.42,-2.88 -1.07,-3.09 0.64,-1.71 3.95,-3.73 4.8,-1.81 1.07,-4.17 2.77,-2.24 -3.84,-8.32 4.48,-5.87 0.85,-3.52 2.25,-2.66 0.11,-2.93 0,0 16.07,-0.47 5.29,5.12 8.52,1.87 2.73,-1.7 0.68,-1.88 0,-2.21 -2.05,-1.54 1.03,-1.19 3.75,-2.73 3.92,-0.34 1.87,4.6 -3.41,3.58 0.69,2.05 6.99,6.48 2.21,0.34 0,0 0.49,0 0,0 -3.13,6.39 0,4.43 10.57,6.31 0,10.06 -1.19,9.72 -1.54,2.21 -7.84,-1.53 -4.43,4.09 4.09,11.42 -0.51,3.58 0,0 0.31,0.17 0,0 -1.85,1.2 0,0 -2.21,1.7 -4.78,1.03 -1.7,8.35 0,0 -5.63,-1.36 0,0 -9.72,2.04 -1.87,-0.34 -4.09,-4.09 0,0 -2.56,-2.9 0,0 -5.8,0.51 -1.87,1.37 -5.29,-2.39 -7.84,-0.51 0,0 z" 
                fill="rgb(151, 144, 238)" 
                stroke="white" 
                stroke-width=".7px"
                title="Cantemir" 
                id="MD-CT" 
            />
        </svg>