<svg xmlns="http://www.w3.org/2000/svg" viewBox="344.2755700000001 349.22142 82.16999999999996 77.4899999999999" width="82.16999999999996" height="77.4899999999999">
            <path 
                d="m 417.92557,359.62142 0,0 -0.95,-0.77 0,0 -1.44,0.43 0,0 -1.7,1.02 0,0 -4.1,2.56 -2.72,-0.85 -6.65,1.53 0,0 -6.65,-0.34 -2.73,-1.7 0,0 -1.53,-3.58 -0.34,-6.82 -1.37,-1.71 -4.77,-0.17 -3.58,1.71 -1.88,3.24 1.2,1.02 -0.51,1.88 -2.05,0.51 -1.88,-3.58 -2.55,-0.17 -5.46,-3.07 -2.29,0 -0.61,4.43 0,0 -2.04,4.26 -9.55,1.71 -5.46,3.58 -1.7,2.21 -0.34,3.75 2.21,4.95 0,0 -0.11,0.19 0,0 14.95,12.68 1.02,5.11 2.56,1.71 8.01,1.53 5.11,3.75 1.88,11.94 4.26,5.8 8.36,0.51 9.2,6.47 5.63,1.37 4.09,-1.02 0.68,-3.58 0,0 2.05,-9.64 -1.54,-3.06 -4.6,-5.12 -5.28,-0.68 -1.71,-2.56 0.85,-7.5 3.58,-4.6 0,0 -0.85,-3.41 -4.26,-0.34 1.02,-9.55 6.31,-0.34 3.41,-2.56 11.93,1.02 3.24,-4.77 0.17,-2.56 -2.04,-2.04 z" 
                fill="rgb(151, 144, 238)" 
                stroke="white" 
                stroke-width=".7px"
                title="Chişinău" 
                id="MD-CU" 
            />
        </svg>