<svg xmlns="http://www.w3.org/2000/svg" viewBox="322.4455699999999 446.23142 95.73000000000002 84.56000000000012" width="95.73000000000002" height="84.56000000000012">
            <path 
                d="m 352.79557,448.04142 6.05,0.06 5.29,2.05 2.9,2.05 1.53,5.45 2.73,2.73 4.09,-0.17 2.05,-1.19 0,-5.63 1.53,-3.75 2.56,-2.73 2.39,-0.68 6.13,3.07 2.22,2.38 2.05,5.29 -1.37,6.82 0,0 0.59,-0.02 0,0 0.26,3.26 5.12,8.86 0,2.9 0,0 1.7,5.12 4.78,0 0,0 6.31,-5.46 3.06,0 0,0 2.39,0.85 0.85,2.39 0.17,6.99 -1.53,5.11 -0.85,12.79 1.36,2.72 -2.54,0.3 -0.08,2.71 -2.92,4.5 0,0 -3.92,-1.19 -0.59,-2.93 -4.61,-6.11 -6.99,-2.39 -2.9,0.69 -11.59,11.76 -5.29,3.58 -5.45,1.88 -0.69,2.55 1.88,2.9 0,0 -0.17,2.22 0,0 -3.24,1.02 -4.26,-1.02 -6.14,-3.75 -15.68,-3.92 -6.31,-4.78 -5.97,2.56 -7.25,-3.92 0,0 1.28,-0.85 0,0 5.97,-7.51 -0.51,-7.5 3.24,-4.43 0.85,-3.41 -2.22,-23.02 0,0 1.03,0 0,0 2.9,0 2.89,-3.75 0.52,-5.79 -1.03,-1.88 2.9,-7.16 3.41,-0.34 1.37,3.41 2.38,-0.17 0.68,-2.05 2.9,-2.04 0,0 z" 
                fill="rgb(151, 144, 238)" 
                stroke="white" 
                stroke-width=".7px"
                title="Cimişlia" 
                id="MD-CM" 
            />
        </svg>