<svg xmlns="http://www.w3.org/2000/svg" viewBox="364.0055700000001 308.46142000000003 96.39000000000016 83.63" width="96.39000000000016" height="83.63">
            <path 
                d="m 451.16557,361.92142 -1.53,2.9 1.02,6.82 -0.68,5.8 -1.53,1.19 -9.03,0.85 -6.48,8.52 0,0 -2.73,3.24 -2.39,0.85 -3.07,-3.07 0,0 -1.19,-5.63 0,0 -1.19,-2.05 0,0 -1.53,-1.36 -7.67,0.68 -3.58,0.85 -4.94,4.02 -2.56,0.16 -1.7,-0.51 -0.34,-2.9 1.36,-6.65 6.31,-0.34 3.41,-2.56 11.93,1.02 3.24,-4.77 0.17,-2.56 -1.27,-1.27 0,0 2.24,-4.14 10.52,-8.27 4.36,-6.61 7.68,-3.48 0,0 5.11,1.36 5.29,7.33 0,0 -0.85,1.71 0,0 -2.07,0 0,0 -1.87,6.31 -4.44,2.56 z m -44.32,-53.46 0,1.9 4.09,3.92 0.17,1.54 2.73,2.22 3.41,0 0.34,2.56 -1.87,2.56 11.59,2.05 5.51,-0.98 5.57,-3.41 0,0 0,0.05 0,0 3.07,3.41 6.31,2.39 0,0 -5.62,1.92 -3.8,3.15 -3.2,8.48 -4.43,5.46 -6.82,1.53 -6.14,9.04 -0.51,2.56 0,0 -1.7,0.51 0,0 -1.7,1.02 0,0 -4.09,2.56 -2.73,-0.85 -6.65,1.54 0,0 -6.65,-0.34 -2.73,-1.7 0,0 -1.53,-3.58 -0.34,-6.82 -1.36,-1.7 -4.77,-0.17 -3.58,1.71 -1.87,3.24 1.19,1.02 -0.51,1.88 -2.05,0.51 -1.87,-3.58 -10.3,-3.24 3.65,-4.09 1.71,0 0.68,-4.26 0,0 -1.98,-3.8 0,0 1.13,-0.81 0,-15.51 1.53,-3.07 0,0 1.36,-1.36 0,0 6.65,1.88 0,0 6.14,-2.22 0,0 5.12,-3.58 4.43,-1.36 0,0 4.6,-2.05 0,0 7.82,-2.13 z" 
                fill="rgb(151, 144, 238)" 
                stroke="white" 
                stroke-width=".7px"
                title="Criuleni" 
                id="MD-CR" 
            />
        </svg>