<svg xmlns="http://www.w3.org/2000/svg" viewBox="241.1355699999999 276.84142 90.8600000000001 70.25" width="90.8600000000001" height="70.25">
            <path 
                d="m 321.17557,277.34142 0.42,15.54 8.53,3.07 1.87,2.04 -1.36,1.54 0,0 -2.56,1.36 0,0 -1.87,5.63 -6.65,1.36 -3.92,5.46 -8.53,3.58 -0.68,1.87 5.63,1.88 2.21,7.5 -1.7,6.82 -5.29,0.51 -3.24,4.77 -12.1,5.8 -9.55,1.02 -2.39,-1.52 0,0 0.52,-0.69 0,0 -11.26,-5.12 -5.96,-0.17 -4.6,-5.11 -4.27,0 -5.11,-2.56 -1.71,-1.02 -0.17,-4.44 -6.3,-4.03 0,0 7.33,-7.73 6.3,-11.93 12.79,-10.57 1.02,-13.13 0.83,-2.23 3.35,0.69 0,0 14.66,1.71 5.46,3.24 4.6,0.51 7.5,-2.73 13.47,-2.04 0,0 z" 
                fill="rgb(151, 144, 238)" 
                stroke="white" 
                stroke-width=".7px"
                title="Călăraşi" 
                id="MD-CL" 
            />
        </svg>