<svg xmlns="http://www.w3.org/2000/svg" viewBox="393.53557000000023 427.01142000000004 137.2399999999999 117.24999999999977" width="137.2399999999999" height="117.24999999999977">
            <path 
                d="m 480.49557,432.35142 11.6,1.85 1.57,-2.56 0,0 0.66,0.16 0,0 1.88,0 0.17,2.57 3.77,3.25 2.56,0.51 0.34,-1.71 4.63,1.89 2.22,-0.69 1.2,-9.76 1.37,-0.85 2.57,0 1.71,1.88 -0.86,2.4 1.2,0.85 7.36,-0.34 0.51,8.39 5.82,12.66 -4.28,8.56 -2.22,1.37 -0.29,3.15 0,0 -0.57,0.1 0,0 -1.71,5.31 -5.3,1.2 -3.26,4.11 -8.9,0.17 -8.04,7.01 -5.82,-2.22 -9.59,7.53 4.8,5.13 -8.56,5.14 0.51,4.62 8.06,9.2 0,0 -2.05,0.17 -5.04,6.49 -1.71,9.42 -3.13,0.8 -3.07,-4.95 -0.51,-4.77 -2.05,-3.75 -2,-1.46 -2.6,0.26 -3.24,3.42 -0.68,2.55 -0.35,2.9 2.56,7.33 -0.7,2.18 -7.42,0.83 -2.62,2.96 -2.9,6.65 -4.77,0 -2.39,-2.73 0.86,-5.63 4.6,-6.64 -1.02,-4.27 2.72,-14.66 -1.02,-2.38 1.68,-0.51 -1.17,-6.83 -2.9,-3.75 -5.62,0.69 -2.77,2.34 -1.94,7.35 -15.23,0.68 -1.97,1.38 -1.36,-2.72 0.85,-12.79 1.53,-5.11 -0.17,-6.99 -0.85,-2.39 -2.39,-0.85 0,0 -3.06,0 -6.31,5.46 0,0 -4.78,0 -1.7,-5.12 0,0 0,-2.9 -5.12,-8.86 -0.26,-3.26 0,0 9.64,0.7 2.9,-2.9 0,0 5.8,-3.41 0,0 5.79,-3.75 0,0 4.78,-5.79 0,0 0.54,-1.76 3.63,-0.97 4.78,1.87 4.43,5.29 0,0 1.53,2.73 0,0 2.39,2.21 5.63,0.17 0,0 0.68,-4.43 -2.05,-4.26 0.17,-3.41 0,0 4.95,-4.95 6.65,-1.7 7.5,-6.48 0,0 17.56,0.51 0,0 z" 
                fill="rgb(151, 144, 238)" 
                stroke="white" 
                stroke-width=".7px"
                title="Căuşeni" 
                id="MD-CS" 
            />
        </svg>