<svg xmlns="http://www.w3.org/2000/svg" viewBox="141.98557 30.27141500000002 79.94 88.070005" width="79.94" height="88.070005">
            <path 
                d="m 141.98557,77.521415 1.14,-0.71 2.19,-8.74 -1.75,-6.12 0.65,-2.85 0.66,-2.4 6.12,-6.12 -1.53,-5.47 1.31,-1.74 5.25,-1.75 4.37,2.4 8.52,-1.75 2.84,-0.87 7.87,-5.9 5.68,0.87 4.16,5.03 4.81,0.65 9.18,-10.92 12.45,-0.86 0,0 2.67,9.09 0,0 -8.68,6.85 -1.09,3.93 8.09,3.5 5.03,4.81 -5.69,6.34 -3.06,0 -3.5,1.74 0,0 -4.37,1.97 0,0 -14.86,8.31 -1.53,6.12 -5.25,6.99 -0.43,3.5 -12.9,9.180005 0.22,1.97 10.27,9.61 -0.65,2.63 -1.97,1.53 -3.72,0 0,0 -1.74,0 0,0 -1.75,-1.53 0,-1.97 -7.43,0.87 -8.75,-6.12 -3.19,-0.43 0,0 0.02,-0.44 0,0 -2.84,-2.62 0.88,-3.94 -0.88,-1.96 0.22,-13.990005 -2.19,-3.28 -4.37,-2.19 0,0 z" 
                fill="rgb(151, 144, 238)" 
                stroke="white" 
                stroke-width=".7px"
                title="Donduşeni" 
                id="MD-DO" 
            />
        </svg>