<svg xmlns="http://www.w3.org/2000/svg" viewBox="166.18556999999996 67.241415 81.96000000000006 106.07000500000002" width="81.96000000000006" height="106.07000500000002">
            <path 
                d="m 237.32557,131.23142 4.49,11.92 -0.44,4.59 -2.41,2.4 -1.09,3.28 0,0 0,2.18 0,0 -7.21,13.56 -3.94,-2.19 -0.22,-2.4 -4.8,2.84 -2.19,3.28 0,0 -2.4,2.62 0,0 -2.63,-3.28 -4.37,-0.44 -6.12,1.75 -2.84,-0.65 -16.39,-19.24 -4.59,-1.97 -7,-0.65 -3.93,-3.5 0,-7.65 -3.06,-7.65 4.59,-1.75 1.75,-2.62 -0.22,-3.94 1.53,-3.38 0,0 0.65,0 0,0 3.72,0 1.97,-1.53 0.65,-2.63 -10.27,-9.61 -0.22,-1.97 12.9,-9.180005 0.43,-3.5 5.25,-6.99 1.53,-6.12 14.86,-8.31 0,0 2.81,-1.26 0,0 2.44,1.26 3.93,9.18 12.02,1.1 14.87,14.64 6.77,10.710005 -0.65,6.99 -2.41,1.32 -1.09,4.37 -5.03,0 -1.09,3.49 -4.59,3.5 3.28,7.43 0,0 z" 
                fill="rgb(151, 144, 238)" 
                stroke="white" 
                stroke-width=".7px"
                title="Drochia" 
                id="MD-DR" 
            />
        </svg>