<svg xmlns="http://www.w3.org/2000/svg" viewBox="406.85557000000006 281.04142000000013 62.89999999999992 84.11999999999989" width="62.89999999999992" height="84.11999999999989">
            <path 
                d="m 449.97557,342.66142 -7.68,3.48 -4.36,6.61 -10.52,8.27 -2.24,4.14 0,0 -7.25,-5.54 0,0 -0.94,-0.77 0,0 0.26,-0.08 0,0 0.51,-2.56 6.14,-9.04 6.82,-1.53 4.43,-5.46 3.2,-8.48 3.8,-3.15 5.62,-1.92 0,0 7.16,-0.85 1.02,-2.05 4.77,-1.87 5.8,-4.77 2.05,-0.68 1.19,1.19 -3.07,5.97 -5.28,2.22 -3.41,5.29 0,2.22 -3.92,1.71 -4.26,3.92 -1.02,2.73 1.18,1 z m -11.42,-45.52 5.11,0.17 2.56,-2.22 13.3,-2.9 2.9,-1.19 3.41,-3.9 1.32,3.26 0,0 -0.13,1.16 -17.73,8.01 -1.02,2.73 -6.14,1.88 -3.75,6.14 0.17,6.65 0,0 -0.17,3.87 0,0 -5.57,3.41 -5.51,0.98 -11.59,-2.04 1.88,-2.56 -0.34,-2.56 -3.41,0 -2.73,-2.22 -0.17,-1.53 -4.09,-3.92 0,-1.9 0,0 5.46,-2.71 1.02,-3.92 -5.28,-8.86 0.51,-3.41 6.82,0 0.17,-3.58 3.58,-3.58 0,0 1.53,-0.34 0,0 3.18,-1.02 4.83,3.5 5.46,5.46 2.39,6.31 2.03,0.83 z" 
                fill="rgb(151, 144, 238)" 
                stroke="white" 
                stroke-width=".7px"
                title="Dubăsari" 
                id="MD-DU" 
            />
        </svg>