<svg xmlns="http://www.w3.org/2000/svg" viewBox="66.36557100000002 36.151415 85.279999 109.73000499999999" width="85.279999" height="109.73000499999999">
            <path 
                d="m 106.75557,50.111415 3.8,-8.93 7,-2.4 2.4,-2.63 3.93,0.22 0.66,7.65 -1.53,2.19 -0.87,6.12 2.4,9.4 10.71,11.58 6.56,3.06 0,0 0.65,4.37 0,0 4.37,2.19 2.19,3.28 -0.22,13.990005 0.88,1.96 -0.88,3.94 2.84,2.62 0,0 -0.22,3.72 0,0 -5.9,6.99 -8.96,5.68 -2.62,0 -3.28,-1.96 -3.72,0.43 -2.4,5.25 -3.06,0.87 -5.9,-4.59 -5.47,0.22 -4.59,3.06 -3.06,11.8 -3.489999,4.16 -5.69,1.53 0,0 -0.37,-2.17 -4.34,-3.83 2.86,-4.7 -0.57,-1.7 -5.96,-2.4 -0.29,-1.58 2.16,-2.05 -3.71,-1.52 -1.18,1.86 -3.16,-0.74 -0.13,-1.64 3.07,-3.3 -0.57,-1.48 -5.44,-0.96 -0.74,-4.14 -6.16,-4.65 -0.85,-5.48 1.93,-4.43 -0.45,-3.410005 -3.02,-3.7 0,0 9.66,-11.37 0.87,-16.83 3.94,-2.62 0.87,-2.41 3.5,-1.74 2.84,0.87 1.09,1.09 -2.18,4.37 0.43,2.63 5.69,4.15 4.8,0.44 1.97,-3.94 4.149999,0.66 3.5,-3.28 0.66,-1.97 -2.84,-3.06 2.4,-7.87 0,0 z" 
                fill="rgb(151, 144, 238)" 
                stroke="white" 
                stroke-width=".7px"
                title="Edineţ" 
                id="MD-ED" 
            />
        </svg>