<svg xmlns="http://www.w3.org/2000/svg" viewBox="237.32556999999997 95.29141500000003 124.33999999999997 114.93000500000005" width="124.33999999999997" height="114.93000500000005">
            <path 
                d="m 240.06557,131.23142 19.89,0.22 12.46,3.72 7.21,-5.47 3.93,-0.43 7.65,3.49 16.83,0.88 5.9,-7.22 12.46,-8.52 1.31,-3.5 -2.62,-3.49 -5,-2.87 0,0 1.87,-1.33 1.49,-10.540005 3.78,-0.88 5.11,1.7 2.9,5.460005 9.72,1.02 2.05,1.7 0.34,2.73 -5.46,3.58 -3.58,-2.38 -1.02,4.94 -2.9,3.41 -6.65,4.43 0.68,2.22 4.61,4.43 2.38,0 1.71,-0.85 4.26,-7.67 5.11,0.68 5.46,2.56 7.67,9.2 1.71,0.34 0.34,2.56 0,0 -0.68,1.7 -2.22,0.86 -0.51,5.62 -6.48,5.12 0,7.84 -8.69,2.73 -1.37,1.53 0.17,4.78 -4.26,1.53 -2.22,-1.36 1.54,-2.73 -0.34,-3.41 -3.07,-3.41 -3.92,-1.54 -6.65,1.37 -9.89,5.97 -2.22,8.69 -3.75,2.22 0,6.13 2.05,0.69 5.28,-2.05 4.1,2.05 6.3,17.22 -0.51,2.55 0,0 -2.39,2.22 0,0 -4.77,2.56 -1.87,5.11 -3.41,-0.17 -5.29,-2.9 -1.53,0.17 -3.13,3.78 0,0 -1.73,-1.73 0,0 -18.58,-12.79 -13.3,-10.91 -30.45,-29.36 0,0 0,-2.01 0,0 1.09,-3.28 2.41,-2.4 0.44,-4.59 -4.49,-11.92 0,0 z" 
                fill="rgb(151, 144, 238)" 
                stroke="white" 
                stroke-width=".7px"
                title="Floreşti" 
                id="MD-FL" 
            />
        </svg>