<svg xmlns="http://www.w3.org/2000/svg" viewBox="135.99557000000001 185.49142000000006 96.52999999999997 108.64999999999992" width="96.52999999999997" height="108.64999999999992">
            <path 
                d="m 165.06557,294.14142 -5.12,-2.11 0.33,-3.12 3.12,-5.27 -0.49,-1.64 -3.62,-1.81 2.63,-9.71 -3.78,-2.14 -2.14,-3.61 -2.96,1.64 -9.54,-5.59 -1.15,-2.14 0,-5.59 -2.97,-2.14 -3.38,-11.11 0,0 10.26,-9.3 8.15,-4.98 3.07,-0.39 5.47,3.07 3.07,-0.48 8.82,-18.99 3.83,-5.18 1.63,-0.09 5.37,4.31 4.03,-1.91 4.51,-7.77 1.44,-10.93 0,0 1.2,-1.67 0,0 0.72,3.39 9.78,2.02 3.74,2.68 0,1.44 -3.07,2.88 0.67,1.82 1.92,0.96 8.44,-0.87 0,0 0.9,-0.4 0,0 3.03,2.09 0,2.56 -4.26,5.45 1.02,2.9 6.82,9.55 5.8,3.75 0.17,2.55 -2.73,2.73 -5.12,1.54 -1.19,9.71 -8.52,6.14 0,3.07 1.19,0.68 12.79,0 0.68,3.07 -2.9,8.18 -2.73,1.88 -2.56,-0.34 0,0 -4.6,-1.88 -2.9,0.51 -1.36,1.54 0,7.33 -2.9,3.75 -10.74,-0.68 -7.33,1.02 -4.77,3.92 -8.7,2.56 -6.48,10.06 z" 
                fill="rgb(151, 144, 238)" 
                stroke="white" 
                stroke-width=".7px"
                title="Făleşti" 
                id="MD-FA" 
            />
        </svg>