<svg xmlns="http://www.w3.org/2000/svg" viewBox="107.96556999999999 166.73141999999993 90.17000000000004 73.07000000000008" width="90.17000000000004" height="73.07000000000008">
            <path 
                d="m 135.99557,239.80142 -5.66,-2.71 -4.44,-9.37 -11.35,-10.03 0.16,-3.62 -3.28,-3.46 0.16,-1.97 -3.62,-3.13 1.15,-1.8 3.79,-0.83 0.98,-1.81 -1.35,-7.34 1.31,-1.49 0,0 8.72,-12.18 1.63,-6.62 1.83,-0.67 4.5,2.97 2.3,-0.28 9.88,-7.96 2.5,-0.77 25.22,8.06 5.08,-0.2 5.27,-3.93 7.1,-1.72 10.07,13.42 0,0 0.19,1.63 0,0 -1.25,1.44 0,0 -1.24,1.73 0,0 -1.44,10.93 -4.51,7.77 -4.03,1.91 -5.37,-4.31 -1.63,0.09 -3.83,5.18 -8.82,18.99 -3.07,0.48 -5.47,-3.07 -3.07,0.39 -8.15,4.98 z" 
                fill="rgb(151, 144, 238)" 
                stroke="white" 
                stroke-width=".7px"
                title="Glodeni" 
                id="MD-GL" 
            />
        </svg>