<svg xmlns="http://www.w3.org/2000/svg" viewBox="249.77557000000013 367.29142 109.9299999999999 117.98000000000008" width="109.9299999999999" height="117.98000000000008">
            <path 
                d="m 286.47557,367.29142 4.44,0.18 7.33,5.45 5.11,-3.07 4.09,1.88 5.12,-3.24 2.56,1.87 0,0 4.06,0.85 0,0 10.85,29.67 3.41,0.34 11.43,13.81 2.38,0.51 2.56,-2.21 2.56,0.17 6.65,11.08 0.68,4.43 -4.44,5.46 0,4.26 2.73,0.51 -0.17,3.92 -4.26,4.26 0,0 -2.56,2.05 0,0 -2.9,2.04 -0.68,2.05 -2.38,0.17 -1.37,-3.41 -3.41,0.34 -2.9,7.16 1.03,1.88 -0.52,5.79 -2.89,3.75 -2.9,0 0,0 -6.48,0 0,0 -10.23,0.69 -8.69,-8.7 -1.71,-0.34 -4.26,3.58 -5.8,1.71 -0.17,2.38 2.9,3.75 -0.34,9.72 -2.05,3.07 -7.67,0.17 -2.9,-1.7 -4.09,-6.99 -3.79,0.17 -3.83,1.88 0,0 -5.93,-17.68 -3.78,-7.24 -1.64,-12.5 -5.76,-6.91 0.16,-2.79 -2.96,-3.29 -0.33,-6.09 -1.64,-2.96 0.49,-7.23 -1.81,-1.98 0,0 3.13,-2.47 0,0 0.1,-3.03 1.08,-0.6 0,0 7.16,4.95 2.56,-2.39 7.33,1.36 3.92,-0.68 -1.02,-19.09 4.94,-3.24 6.82,-1.02 0.68,-8.53 -1.53,-4.43 1.36,-3.24 0,0 z" 
                fill="rgb(151, 144, 238)" 
                stroke="white" 
                stroke-width=".7px"
                title="Hînceşti" 
                id="MD-HI" 
            />
        </svg>