<svg xmlns="http://www.w3.org/2000/svg" viewBox="319.18556999999987 369.00142000000005 104.9600000000001 95.47000000000003" width="104.9600000000001" height="95.47000000000003">
            <path 
                d="m 412.12557,422.11142 2.64,-2.31 4.44,-1.02 3.58,5.12 1.36,8.86 -0.85,13.13 0,0 -0.85,2.73 0,0 -4.78,5.79 0,0 -5.79,3.75 0,0 -5.8,3.41 0,0 -2.9,2.9 -10.23,-0.68 0,0 1.37,-6.82 -2.05,-5.29 -2.22,-2.38 -6.13,-3.07 -2.39,0.68 -2.56,2.73 -1.53,3.75 0,5.63 -2.05,1.19 -4.09,0.17 -2.73,-2.73 -1.53,-5.45 -2.9,-2.05 -5.29,-2.05 -6.05,-0.06 0,0 0.77,-0.62 0,0 4.26,-4.26 0.17,-3.92 -2.73,-0.51 0,-4.26 4.44,-5.46 -0.68,-4.43 -6.65,-11.08 -2.56,-0.17 -2.56,2.21 -2.38,-0.51 -11.43,-13.81 -3.41,-0.34 -10.85,-29.67 0,0 0.03,0.01 0,0 1.7,-2.22 1.71,0.17 1.7,5.29 2.05,1.19 5.79,8.01 4.61,2.56 2.9,0 0.68,-1.02 -1.54,-1.88 1.54,-5.46 5.11,-0.51 0,0 0.91,-1.51 0,0 14.95,12.68 1.02,5.11 2.56,1.71 8.01,1.53 5.11,3.75 1.88,11.94 4.26,5.8 8.36,0.51 9.2,6.47 5.63,1.37 4.09,-1.02 z" 
                fill="rgb(151, 144, 238)" 
                stroke="white" 
                stroke-width=".7px"
                title="Ialoveni" 
                id="MD-IA" 
            />
        </svg>