<svg xmlns="http://www.w3.org/2000/svg" viewBox="267.04557000000005 460.8914200000001 66.23000000000002 87.11999999999995" width="66.23000000000002" height="87.11999999999995">
            <path 
                d="m 270.83557,536.03142 -0.33,-2.46 4.11,-5.1 -0.16,-2.8 -1.65,-1.15 0.82,-5.92 -6.58,-9.21 0,-1.98 3.62,-7.23 -0.65,-8.39 3.78,-7.4 -0.82,-5.76 0,0 3.83,-1.88 3.79,-0.17 4.09,6.99 2.9,1.7 7.67,-0.17 2.05,-3.07 0.34,-9.72 -2.9,-3.75 0.17,-2.38 5.8,-1.71 4.26,-3.58 1.71,0.34 8.69,8.7 10.23,-0.69 0,0 5.45,0 0,0 2.22,23.02 -0.85,3.41 -3.24,4.43 0.51,7.5 -5.97,7.51 0,0 -2.04,1.36 0,0 -1.71,2.04 1.03,5.97 8.69,10.06 1.54,6.99 -1.03,3.58 -4.77,2.56 -3.41,0.34 0,0 -2.9,0 0,0 -2.21,-0.34 -6.99,-6.48 -0.69,-2.05 3.41,-3.58 -1.87,-4.6 -3.92,0.34 -3.75,2.73 -1.03,1.19 2.05,1.54 0,2.21 -0.68,1.88 -2.73,1.7 -8.52,-1.87 -5.29,-5.12 z" 
                fill="rgb(151, 144, 238)" 
                stroke="white" 
                stroke-width=".7px"
                title="Leova" 
                id="MD-LE" 
            />
        </svg>