<svg xmlns="http://www.w3.org/2000/svg" viewBox="223.91556999999997 322.43142 63.760000000000076 87.52999999999997" width="63.760000000000076" height="87.52999999999997">
            <path 
                d="m 241.13557,322.43142 6.3,4.03 0.17,4.44 1.71,1.02 5.11,2.56 4.27,0 4.6,5.11 5.96,0.17 11.26,5.12 0,0 -1.03,1.36 0,0 -1.36,5.8 -4.26,-0.17 0.34,2.38 5.11,4.78 6.14,2.38 2.22,4.09 0,0 -1.37,2.05 0,0 -1.36,3.24 1.53,4.43 -0.68,8.53 -6.82,1.02 -4.94,3.24 1.02,19.09 -3.92,0.68 -7.33,-1.36 -2.56,2.39 -7.16,-4.95 0,0 -1.18,0.66 0,2.97 0,0 -3.13,2.47 0,0 0.83,-2.14 -1.65,-4.77 -0.33,-7.07 -1.97,-3.78 0.49,-2.8 -4.97,-5.2 0.32,-8.13 -3.75,-6.3 -12.28,-9.38 -1.87,-5.63 -0.68,-7.33 3.58,-3.75 2.21,-4.6 -2.55,-7.84 1.19,-2.39 z" 
                fill="rgb(151, 144, 238)" 
                stroke="white" 
                stroke-width=".7px"
                title="Nisporeni" 
                id="MD-NI" 
            />
        </svg>