<svg xmlns="http://www.w3.org/2000/svg" viewBox="96.56557099999996 0.26141519999999635 119.33999900000002 77.25999979999999" width="119.33999900000002" height="77.25999979999999">
            <path 
                d="m 160.09557,8.6714152 0.45,2.1599998 5.46,0.57 7.5,5.34 2.95,0.34 8.7,-5.69 7.56,0.01 4.47,1.48 14.37,10.3 3.1,3.11 1.25,3.98 0,0 -12.45,0.86 -9.18,10.92 -4.81,-0.65 -4.16,-5.03 -5.68,-0.87 -7.87,5.9 -2.84,0.87 -8.52,1.75 -4.37,-2.4 -5.25,1.75 -1.31,1.74 1.53,5.47 -6.12,6.12 -0.66,2.4 -0.65,2.85 1.75,6.12 -2.19,8.74 -1.14,0.71 0,0 -0.17,-1.15 0,0 -6.56,-3.06 -10.71,-11.58 -2.4,-9.4 0.87,-6.12 1.53,-2.19 -0.66,-7.65 -3.93,-0.22 -2.4,2.63 -7,2.4 -3.8,8.93 0,0 -0.13,-0.41 0,0 -10.059999,-6.99 3.15,-8.62 0,0 3.539999,0.27 2.28,-2.27 6.02,-13.64 3.75,-4.55 4.09,-2.61 2.73,-0.8 6.48,2.05 2.84,5.34 1.48,-0.11 2.27,-2.96 2.16,-0.34 6.03,-5.3399998 5,0.22 3.52,-2.16 3.64,-6.59 2.39,-0.34 4.54,3.18 z" 
                fill="rgb(151, 144, 238)" 
                stroke="white" 
                stroke-width=".7px"
                title="Ocniţa" 
                id="MD-OC" 
            />
        </svg>