<svg xmlns="http://www.w3.org/2000/svg" viewBox="321.17557 229.97141999999994 108.33999999999992 108.68000000000004" width="108.33999999999992" height="108.68000000000004">
            <path 
                d="m 423.83557,281.03142 -3.18,1.02 0,0 -1.54,0.34 0,0 -3.58,3.58 -0.17,3.58 -6.82,0 -0.68,1.71 5.45,10.57 -1.02,3.92 -4.26,2.56 -9.04,2.21 0,0 -4.6,2.05 0,0 -4.43,1.36 -5.12,3.58 0,0 -6.13,2.22 0,0 -6.65,-1.88 0,0 -1.37,1.37 0,0 -1.53,3.07 0,15.51 -1.19,0.85 0,0 -9.21,-2.89 -0.68,-5.63 -2.22,-3.58 -3.07,0 -5.62,-7.84 -0.17,-2.22 -4.95,-3.75 -1.87,-6.82 1.19,-1.02 -1.19,-1.54 -7.68,0.51 -3.92,-3.25 0,0 2.05,-1.09 0,0 1.36,-1.54 -1.87,-2.04 -8.53,-3.07 -0.42,-15.54 0,0 1.53,-0.49 0,0 5.8,-3.92 0,-2.56 -1.71,-2.04 0.34,-2.9 3.93,-5.8 13.12,-8.86 9.89,-2.05 1.19,-1.19 0,0 -0.85,-6.48 0,0 -1.36,-3.92 3.24,-6.65 0,0 0.59,-0.51 0,0 2.05,0.17 8.69,12.1 5.63,3.07 7.84,-1.02 10.74,-8.18 6.48,3.41 0,0 4.26,5.28 -0.51,6.99 0,0 7.85,1.02 0,0 2.01,0.16 3.78,6.66 6.14,-0.85 4.09,5.97 2.22,0.68 1.36,2.04 -1.87,5.63 -4.44,5.12 z" 
                fill="rgb(151, 144, 238)" 
                stroke="white" 
                stroke-width=".7px"
                title="Orhei" 
                id="MD-OR" 
            />
        </svg>