<svg xmlns="http://www.w3.org/2000/svg" viewBox="337.11557 160.41142000000002 75.01000000000005 92.57000000000002" width="75.01000000000005" height="92.57000000000002">
            <path 
                d="m 341.50557,207.69142 1.58,-1.42 0,0 4.94,-7.5 2.04,-1.19 4.27,0 7.16,2.72 6.3,-0.85 0.69,-2.21 -2.56,-8.53 1.7,-2.73 2.9,-1.19 9.04,0 10.4,-9.72 0.51,-3.75 3.41,-3.75 2.73,-5.62 0,0 3.41,-1.54 2.73,0.68 2.38,1.71 2.73,4.77 0.51,5.63 -2.73,7.16 -0.34,7.67 1.37,9.55 -0.86,14.66 1.2,4.94 -1.03,2.56 0,13.98 6.14,5.46 0,13.8 -2.21,-0.17 0,0 -7.85,-1.02 0,0 0.51,-6.99 -4.26,-5.28 0,0 -6.48,-3.41 -10.74,8.18 -7.84,1.02 -5.63,-3.07 -8.69,-12.1 -2.05,-0.17 0,0 -0.85,-1.88 0,0 -14.83,-12.44 -3.41,-1.54 -0.68,-1.53 2.39,-1.36 z" 
                fill="rgb(151, 144, 238)" 
                stroke="white" 
                stroke-width=".7px"
                title="Rezina" 
                id="MD-RE" 
            />
        </svg>