<svg xmlns="http://www.w3.org/2000/svg" viewBox="88.555571 109.16142 130.3899990000001 85.34999999999998" width="130.3899990000001" height="85.34999999999998">
            <path 
                d="m 112.73557,194.51142 -8.39,-8.98 -3.45,-7.57 4.11,-1.48 -0.99,-3.94 -2.79,0 -2.309999,-1.81 1.809999,-2.96 -2.459999,-4.77 1.31,-6.25 -1.97,-1.98 -4.94,-0.49 -4.11,-2.14 1.81,-3.78 2.92,-2.48 0,0 5.69,-1.53 3.489999,-4.16 3.06,-11.8 4.59,-3.06 5.47,-0.22 5.9,4.59 3.06,-0.87 2.4,-5.25 3.72,-0.43 3.28,1.96 2.62,0 8.96,-5.68 5.9,-6.99 0,0 0.2,-3.28 0,0 3.19,0.43 8.75,6.12 7.43,-0.87 0,1.97 1.75,1.53 0,0 1.09,0 0,0 -1.53,3.38 0.22,3.94 -1.75,2.62 -4.59,1.75 3.06,7.65 0,7.65 3.93,3.5 7,0.65 4.59,1.97 16.39,19.24 2.84,0.65 6.12,-1.75 4.37,0.44 2.63,3.28 0,0 0.18,-0.2 0,0 1.65,2.15 0,0 -0.77,1.25 0,0 -5.75,0.29 -3.55,4.03 -0.67,1.24 3.07,2.5 -0.29,1.92 -12.91,-3.01 0,0 -0.13,-1.12 0,0 -10.07,-13.42 -7.1,1.72 -5.27,3.93 -5.08,0.2 -25.22,-8.06 -2.5,0.77 -9.88,7.96 -2.3,0.28 -4.5,-2.97 -1.83,0.67 -1.63,6.62 -8.72,12.18 0,0 z" 
                fill="rgb(151, 144, 238)" 
                stroke="white" 
                stroke-width=".7px"
                title="Rîşcani" 
                id="MD-RI" 
            />
        </svg>