<svg xmlns="http://www.w3.org/2000/svg" viewBox="208.11557000000013 39.36141500000001 119.58999999999989 95.81000499999998" width="119.58999999999989" height="95.81000499999998">
            <path 
                d="m 221.12557,42.891415 3.53,1.7 18.17,0.26 5.4,2.46 2.64,6.03 -1.02,5.76 -4.96,6.29 -0.11,2.96 2.61,1.7 6.27,-1.22 3.96,-5.6 4.21,-3.18 3.63,0.34 1.48,1.48 1.71,8.86 4.43,2.96 4.35,-0.68 10.71,-8.81 4.47,2.22 3.37,-2.34 1.37,0.46 2.73,3.86 0,10.12 -2.96,5.8 -6.02,2.61 1.02,6.48 7.73,-0.91 3.3,-6.14 3.97,-1.82 3.64,0.46 1.02,1.14 0,5 -2.04,3.97 0.87,8.790005 5.95,4.4 3.53,-0.26 0,0 5,2.87 2.62,3.49 -1.31,3.5 -12.46,8.52 -5.9,7.22 -16.83,-0.88 -7.65,-3.49 -3.93,0.43 -7.21,5.47 -12.46,-3.72 -19.89,-0.22 0,0 -3.5,0 0,0 -3.28,-7.43 4.59,-3.5 1.09,-3.49 5.03,0 1.09,-4.37 2.41,-1.32 0.65,-6.99 -6.77,-10.710005 -14.87,-14.64 -12.02,-1.1 -3.93,-9.18 -2.44,-1.26 0,0 1.56,-0.71 0,0 3.5,-1.74 3.06,0 5.69,-6.34 -5.03,-4.81 -8.09,-3.5 1.09,-3.93 8.68,-6.85 0,0 z" 
                fill="rgb(151, 144, 238)" 
                stroke="white" 
                stroke-width=".7px"
                title="Soroca" 
                id="MD-SO" 
            />
        </svg>