<svg xmlns="http://www.w3.org/2000/svg" viewBox="273.8655700000001 300.62141999999994 96.14999999999992 85.59999999999991" width="96.14999999999992" height="85.59999999999991">
            <path 
                d="m 368.03557,338.61142 1.98,3.79 0,0 -0.68,4.27 -1.71,0 -3.58,3.58 -0.68,4.94 0,0 -2.04,4.26 -9.55,1.71 -5.46,3.58 -1.7,2.21 -0.34,3.75 2.21,4.95 0,0 -1.02,1.7 0,0 -5.11,0.51 -1.54,5.46 1.54,1.88 -0.68,1.02 -2.9,0 -4.61,-2.56 -5.79,-8.01 -2.05,-1.19 -1.7,-5.29 -1.71,-0.17 -1.7,2.22 0,0 -4.09,-0.86 0,0 -2.56,-1.87 -5.12,3.24 -4.09,-1.88 -5.11,3.07 -7.33,-5.45 -4.44,-0.18 0,0 1.2,-1.79 0,0 -2.22,-4.09 -6.14,-2.38 -5.11,-4.78 -0.34,-2.38 4.26,0.17 1.36,-5.8 0,0 0.51,-0.67 0,0 2.39,1.52 9.55,-1.02 12.1,-5.8 3.24,-4.77 5.29,-0.51 1.7,-6.82 -2.21,-7.5 -5.63,-1.88 0.68,-1.87 8.53,-3.58 3.92,-5.46 6.65,-1.36 1.87,-5.63 0,0 0.51,-0.27 0,0 3.92,3.25 7.68,-0.51 1.19,1.54 -1.19,1.02 1.87,6.82 4.95,3.75 0.17,2.22 5.62,7.84 3.07,0 2.22,3.58 0.68,5.63 9.21,2.89 0,0 z" 
                fill="rgb(151, 144, 238)" 
                stroke="white" 
                stroke-width=".7px"
                title="Străşeni" 
                id="MD-ST" 
            />
        </svg>