<svg xmlns="http://www.w3.org/2000/svg" viewBox="214.96557 155.43141999999997 88.99000000000001 118.0099999999999" width="88.99000000000001" height="118.0099999999999">
            <path 
                d="m 220.87557,264.67142 0.56,0.25 0,0 2.56,0.34 2.73,-1.88 2.9,-8.18 -0.68,-3.07 -12.79,0 -1.19,-0.68 0,-3.07 8.52,-6.14 1.19,-9.71 5.12,-1.54 2.73,-2.73 -0.17,-2.55 -5.8,-3.75 -6.82,-9.55 -1.02,-2.9 4.26,-5.45 0,-2.56 -3.03,-2.09 0,0 0.82,-0.36 0,0 8.54,-0.96 3.07,-2.11 2.78,2.2 4.7,0.2 0.76,-3.84 -3.64,-3.26 3.84,-3.55 -0.2,-4.6 -1.63,-1.25 -1.63,-4.7 -1.44,-0.28 -4.69,5.94 -2.98,1.06 -5.56,-4.13 -2.2,-0.29 -1.77,-3.83 0,0 0.23,-0.39 0,0 -1.65,-2.15 0,0 2.22,-2.42 0,0 2.19,-3.28 4.8,-2.84 0.22,2.4 3.94,2.19 7.21,-13.56 0,0 0,-0.17 0,0 30.45,29.36 13.3,10.91 18.58,12.79 0,0 2.56,2.56 0,0 1.19,5.28 0,11.93 -5.12,4.61 2.22,8.01 -0.51,3.92 -4.6,1.88 -8.19,-3.75 -15.85,0.17 -2.56,-3.07 -1.53,-0.17 -4.95,2.38 -3.75,5.63 1.54,13.3 2.38,5.45 -0.17,2.9 -1.67,2.38 0,0 -14.35,-2.55 -4.27,4.09 -9.37,-6.48 -10.57,2.39 z" 
                fill="rgb(151, 144, 238)" 
                stroke="white" 
                stroke-width=".7px"
                title="Sîngerei" 
                id="MD-SI" 
            />
        </svg>