<svg xmlns="http://www.w3.org/2000/svg" viewBox="298.25557000000003 576.5114199999998 119.16000000000014 128.8500000000006" width="119.16000000000014" height="128.8500000000006">
            <path 
                d="m 329.27557,640.33142 -1.02,2.39 0,0 -4.6,-0.17 0,0 -1.53,0 0,0 -2.56,0.85 0.68,4.94 4.95,1.88 4.43,4.09 3.75,-0.17 10.57,-7.5 10.4,-0.51 1.53,-0.68 0,-2.05 -4.6,-13.47 0,0 1.02,-3.41 0,0 4.94,-2.05 4.43,1.88 0,0 2.05,2.73 0,0 4.43,6.31 2.72,6.92 -6.38,2.29 -3.58,2.9 1.02,9.72 1.19,1.02 -0.45,7.33 0,0 -14.63,1.7 0,0 -15.17,4.43 -5.46,-0.51 -2.39,1.36 0,0 -0.51,3.92 0,0 0.85,2.73 8.52,6.82 3.92,-0.68 0,0 1.71,-0.68 0,0 9.38,-4.09 0,0 2,1.39 0,0 0.3,4.32 -1.71,3.41 -4.09,2.56 -11.93,1.19 -1.02,1.88 0.68,8.01 -0.17,-1.53 -0.68,3.24 -8.44,0.32 0,0 0.68,-2.45 1.71,-0.51 0.51,-3.58 -3.58,-2.9 -1.36,-2.9 0,-5.28 -2.73,-2.05 -2.73,3.24 -5.28,-7.16 -8.87,-1.7 -1.87,-2.39 -2.05,-10.91 1.36,-1.19 9.04,0.17 0,0 1.88,6.48 1.88,0.51 3.07,-1.36 0,0 2.22,-1.7 0,0 1.02,-4.09 -3.92,-2.56 -2,0 0.64,-0.85 0,0 -1.19,-2.73 -4.94,-4.77 -0.85,-16.19 -1.02,-1.88 2.39,-5.45 0.51,-8.69 1.88,-1.7 7.33,-1.19 0.59,-1.02 0,0 1.29,0 0,0 2.22,-2.04 1.71,0.51 2.05,5.29 -0.34,2.73 0,0 -2.05,4.43 0,0 -4.43,2.22 0,1.88 8.87,2.73 0,0 1.88,1.53 0,2.49 z m 76.12,-15.35 -1.36,5.88 -5.28,4.09 -11.86,3.9 -0.84,-6.21 0,0 -1.19,-6.14 0,0 -3.75,0.51 0,0 -1.02,-1.19 0,0 1.02,-7.5 8.35,-6.14 0,0 4.26,-1.53 -2.39,-10.57 0,0 -0.34,-4.94 3.92,-6.65 10.91,-10.74 0,0 1.29,-1.24 0,0 8,4.56 2.05,2.39 0.25,2.28 -0.59,4.2 -6.99,6.22 -2.23,5.89 -8.35,5.79 -1.19,4.01 5.97,9.04 1.36,4.09 z" 
                fill="rgb(151, 144, 238)" 
                stroke="white" 
                stroke-width=".7px"
                title="Taraclia" 
                id="MD-TA" 
            />
        </svg>