<svg xmlns="http://www.w3.org/2000/svg" viewBox="259.11557000000005 199.9414200000001 97.70999999999998 83.04999999999995" width="97.70999999999998" height="83.04999999999995">
            <path 
                d="m 356.82557,229.82142 -0.53,0.66 0,0 -3.24,6.65 1.36,3.92 0,0 0.85,6.48 0,0 -1.19,1.19 -9.89,2.05 -13.12,8.86 -3.93,5.8 -0.34,2.9 1.71,2.04 0,2.56 -5.8,3.92 0,0 -4.26,1.37 0,0 -13.47,2.04 -7.5,2.73 -4.6,-0.51 -5.46,-3.24 -14.66,-1.71 0,0 -7.33,-2.04 -4.23,-3.59 0,0 1.67,-2.38 0.17,-2.9 -2.38,-5.45 -1.54,-13.3 3.75,-5.63 4.95,-2.38 1.53,0.17 2.56,3.07 15.85,-0.17 8.19,3.75 4.6,-1.88 0.51,-3.92 -2.22,-8.01 5.12,-4.61 0,-11.93 -1.19,-5.28 0,0 -0.83,-0.83 0,0 3.13,-3.78 1.53,-0.17 5.29,2.9 3.41,0.17 1.87,-5.11 4.77,-2.56 0,0 1.86,-1.73 0,0 9.57,0.88 8.01,6.99 0,0 0.13,-0.12 0,0 -2,3.53 -2.39,1.36 0.68,1.53 3.41,1.54 14.83,12.44 0,0 z" 
                fill="rgb(151, 144, 238)" 
                stroke="white" 
                stroke-width=".7px"
                title="Teleneşti" 
                id="MD-TE" 
            />
        </svg>