<svg xmlns="http://www.w3.org/2000/svg" viewBox="165.01556999999997 263.0914200000001 104.39000000000004 121.9199999999999" width="104.39000000000004" height="121.9199999999999">
            <path 
                d="m 242.08557,385.01142 -2.87,-1.53 -0.98,-3.29 -4.77,-0.16 -5.76,-4.44 -4.44,-0.83 -1.32,-4.77 -2.79,-0.33 -5.43,-7.4 -7.4,-4.77 0.16,-4.44 -6.74,-2.79 -0.99,-9.87 -5.1,-11.19 -2.13,-1.31 -0.99,-8.06 -2.8,-2.8 -2.14,-5.26 -5.09,1.64 -3.13,-3.62 -4.77,-1.31 -2.8,-3.29 -0.49,-3.46 -3.95,-2.96 -0.35,-4.59 6.64,-1.08 6.48,-10.06 8.7,-2.56 4.77,-3.92 7.33,-1.02 10.74,0.68 1.54,-1.02 1.36,-2.73 0,-7.33 1.36,-1.54 2.9,-0.51 4.04,1.63 1.76,4.68 10.57,-2.39 9.37,6.48 4.27,-4.09 3.07,0 5.45,2.05 5.83,0.5 4.23,3.59 3.98,1.34 -1.85,15.36 -12.79,10.57 -6.3,11.94 -5.12,6.14 -15,8.01 -1.19,2.39 2.55,7.84 -2.21,4.6 -3.58,3.75 0.68,7.33 1.87,5.63 12.28,9.37 2.38,3.93 1.37,2.38 z" 
                fill="rgb(151, 144, 238)" 
                stroke="white" 
                stroke-width=".7px"
                title="Ungheni" 
                id="MD-UN" 
            />
        </svg>