<svg xmlns="http://www.w3.org/2000/svg" viewBox="323.01556999999997 82.55141499999989 255.56 414.5600050000001" width="255.56" height="414.5600050000001">
            <path 
                d="m 474.15557,286.93142 1.3,1.05 1.09,5.19 -2.39,2.63 0.8,3.37 1.59,1.29 -0.1,5.65 6.7,1.85 8.63,-1.73 -0.21,-13.84 10.91,-3.3 2.5,0.46 1.82,4.43 3.07,22.85 -0.8,1.59 -6.36,1.93 4.85,24.25 -0.95,4.29 -13.47,1.02 1.81,2.72 -0.68,0.6 2.54,1.11 2.16,2.96 3.07,6.71 0.72,-3.21 2.91,-1.79 8.47,0.8 1.93,10.39 -4.49,4.09 0.12,16.57 -6.63,2.19 0.82,1.92 2.05,2.51 9.55,-2.73 2.63,8.57 8.06,-1.07 2.27,-1.36 2.42,1.6 0.61,2.86 0.95,-0.23 3.3,11.23 4.09,1.93 3.64,-1.59 8.53,-0.68 1.25,-3.52 4.74,1.11 2.19,6.6 -1.81,0.13 -0.23,2.05 4.32,7.19 3.19,-1.51 2.96,-3.86 1.82,0 3.41,3.34 0.63,1.83 -3.17,0.17 -3.21,4.31 5.02,8.15 1.51,5.35 -0.59,23.45 -3.85,3.5 1.8,8 3.76,3.68 0.85,6.31 -2.05,2.9 -9.72,0.34 -3.24,1.58 0,0 -11.35,-9.14 -11.3,-0.34 -3.94,-1.2 -1.54,-4.45 5.65,-4.96 1.71,-5.31 -1.37,-2.91 -8.22,0.86 -7.87,-3.94 0,0 -1.32,0.24 0,0 0.29,-3.15 2.23,-1.37 4.28,-8.56 -5.82,-12.66 -0.51,-8.39 -7.36,0.34 -1.2,-0.85 0.86,-2.4 -1.71,-1.88 -2.57,0 -1.37,0.86 -1.2,9.76 -2.23,0.69 -4.62,-1.88 -0.34,1.71 -2.57,-0.51 -3.77,-3.25 -0.17,-2.57 -1.88,0 0,0 -1.37,-0.34 0,0 -1.71,-3.59 -0.18,-8.91 0,0 1.71,-3.41 0,0 -2.39,-5.63 0,0 -1.02,-3.75 2.22,-3.41 0,0 0.51,-3.58 0,0 -2.22,-2.56 -5.97,-2.39 -3.58,1.88 0,0 -3.58,2.22 0,0 -3.75,1.88 0,0 -6.65,-2.73 0,0 -4.77,-3.92 0,0 -1.02,-2.56 0,0 0.68,-6.14 2.56,-0.34 7.67,2.39 0,0 1.19,-2.05 0,0 -2.05,-3.92 3.07,-6.99 0.34,-4.09 -2.39,-6.14 -11.81,-11.24 0.56,-1.12 0,0 -5.28,-7.33 -5.11,-1.36 0,0 -1.19,-1.02 1.02,-2.73 4.26,-3.92 3.92,-1.7 0,-2.22 3.41,-5.28 5.29,-2.22 3.07,-5.97 -1.19,-1.19 -2.04,0.68 -5.8,4.77 -4.77,1.88 -1.02,2.05 -7.16,0.85 0,0 -6.31,-2.39 -3.07,-3.41 0,0 0.17,-3.92 0,0 -0.17,-6.65 3.75,-6.14 6.14,-1.87 1.02,-2.73 17.73,-8.01 0.13,-1.16 0,0 -0.37,-1.85 7.32,-1.64 z m -139.7,-203.980005 1.3,1.48 3.13,-0.68 4.55,4.09 3.87,0.34 4.14,2.78 2.91,-0.5 0.91,4.43 4.18,-0.97 0.71,1.2 2.61,0.23 0.8,-1.36 3.79,-0.57 3.74,3.04 4.86,-2.47 5.8,2.73 2.84,4.660005 -0.91,5.68 -1.82,2.16 1.14,5.34 -1.02,4.43 5,4.66 0.8,4.89 7.39,8.87 1.15,0.74 4.42,-4.49 2.61,0.34 2.05,1.02 2.95,4.4 2.39,0.6 2.05,3.18 2.98,-1.01 5.22,0.77 1.74,-0.75 -1.23,-5.55 3.45,2.4 -1.07,-5.55 6.69,-0.08 -0.68,-2.97 6.54,1.31 0.91,0.46 -0.11,4.77 2.05,3.18 1.71,16.6 1.29,2.09 2.58,-1.98 0.11,1.36 4.81,-0.82 4.17,1.28 -2.16,4.77 -3.69,1.67 -2.55,3.48 -2.88,6.07 3.52,6.48 1.77,-0.15 1.51,-1.98 3.8,1.71 -2.35,11.61 -5.77,3.6 -1.66,5.34 4.33,8.78 -1.84,0.49 0.1,5.75 -1.4,0.44 -1.06,4.31 4.51,-0.2 -2.36,3.49 -1.51,0.1 1.16,4.02 -4.55,9.98 -11.67,3.85 6.03,12.23 4.52,-2.22 0.88,1.25 -0.88,1.07 0.07,3.81 1.4,1.87 -1.37,1.84 0.56,1.25 -3.98,4.26 4.79,-2.14 0.62,1.28 -2.74,3.17 0.64,4.09 2.79,0.64 7.26,-7.41 1.02,11.49 4.26,-4.85 7.78,-3.42 2.87,16.6 -3.41,3.9 -16.2,4.09 -2.56,2.22 -5.11,-0.17 -2.05,-0.85 -4.43,-8.86 -8.24,-6.39 -0.62,-2.81 4.43,-5.11 1.88,-5.63 -1.36,-2.04 -2.22,-0.68 -4.09,-5.97 -6.14,0.85 -2.56,-3.58 -1.7,-5.63 0.68,-11.25 -6.14,-5.46 0,-13.98 1.02,-2.56 -1.19,-4.94 0.85,-14.66 -1.36,-9.55 0.34,-7.67 2.73,-7.16 -0.51,-5.63 -2.73,-4.77 -2.39,-1.7 -5.4,-0.04 -6.36,-4.06 -12.79,-2.22 -1.19,-1.7 0.17,-3.07 1.53,-2.22 -7.16,-12.1 -4.94,-1.19 -4.94,0.85 -0.34,-2.56 -1.7,-0.34 -9.03,-10.23 -9.21,-2.22 -4.26,7.67 -1.7,0.85 -2.39,0 -3.58,-2.56 -1.7,-4.09 6.65,-4.43 2.9,-3.41 1.02,-4.94 3.58,2.39 5.46,-3.58 -0.34,-2.73 -2.05,-1.7 -9.72,-1.02 -2.9,-5.460005 -1.7,-1.02 -7.07,0.2 -0.47,-2 2.27,-1.21 0.11,-2.5 -1.48,-1.93 7.84,-6.02 2.7,0.4 z" 
                fill="rgb(151, 144, 238)" 
                stroke="white" 
                stroke-width=".7px"
                title="Unitatea Teritorială din Stînga Nistrului" 
                id="MD-SN" 
            />
        </svg>