<svg xmlns="http://www.w3.org/2000/svg" viewBox="284.44557000000003 515.96142 122.68 241.1700000000002" width="122.68" height="241.1700000000002">
            <path 
                d="m 297.04557,704.17142 6.65,0.51 5.29,2.22 0,0 5.63,0.34 5.46,-1.53 0,0 2.27,0.1 -1.85,9.45 -2.4,1.05 0.79,3.22 0,0 -7.85,1.71 -1.02,2.05 0.51,12.1 0,0 1.36,5.46 0,0 1.54,0.85 3.24,-2.22 10.95,-2.71 0,0 -0.43,1.57 -6.26,3.13 0.26,4.32 1.88,0.43 0.85,2.22 0.17,4.26 -9.21,4.43 -4.77,-1.19 -4.43,0.85 -13.47,-4.94 -7.76,0.19 0,-1.98 0,0 2.05,-1.53 0,0 2.05,-0.68 0.17,-2.73 0,0 -1.53,-2.22 0,0 -2.56,-3.07 0,-3.58 4.6,-5.45 0,0 0,-9.72 0,0 -2.39,-5.11 -0.17,-15.34 3.75,-1.53 6.63,5.07 z m 65.61,-38.61 1.99,4.01 -0.17,4.26 -3.41,2.73 -8.86,3.41 -1.32,1.98 0,0 -2,-1.39 0,0 -9.38,4.09 0,0 -1.7,0.68 0,0 -3.92,0.68 -8.52,-6.82 -0.85,-2.73 0,0 0.51,-3.92 0,0 2.39,-1.36 5.46,0.51 15.17,-4.43 0,0 14.61,-1.7 z m -43.95,0 -1.02,4.09 0,0 -2.22,1.71 0,0 -3.07,1.36 -1.87,-0.51 -2.05,-4.6 0.25,-1.87 1.46,0.16 0,0 1.19,-1.02 0,0 1.41,-1.87 2,0 3.92,2.55 z m 3.74,-149.6 7.26,3.92 5.97,-2.56 6.31,4.77 15.69,3.92 6.14,3.75 4.26,1.02 3.24,-1.02 0,0 0.03,-0.32 0,0 1.85,0.67 2.22,5.46 8.01,5.29 1.02,3.58 -2.39,6.14 -1.7,0.68 -16.2,4.43 -5.97,-0.85 -3.24,0.85 3.24,7.5 -0.17,3.41 3.07,0.51 6.82,-2.39 7.84,1.19 1.36,-3.24 5.29,-2.05 6.14,5.29 11.12,2.82 0,0 0.56,3.08 6.91,4.71 0,0 -1.29,1.24 0,0 -10.91,10.74 -3.92,6.65 0.34,4.94 0,0 2.39,10.57 -4.26,1.53 0,0 -8.35,6.14 -1.02,7.5 0,0 1.02,1.19 0,0 3.75,-0.51 0,0 1.19,6.14 0,0 0.84,6.21 -16.02,3.44 -2.72,-6.91 -4.43,-6.31 0,0 -2.05,-2.73 0,0 -4.43,-1.87 -4.94,2.05 0,0 -1.02,3.41 0,0 4.6,13.47 0,2.05 -1.53,0.68 -10.4,0.51 -10.57,7.5 -3.75,0.17 -4.43,-4.09 -4.94,-1.88 -0.68,-4.94 2.56,-0.85 0,0 1.53,0 0,0 4.6,0.17 0,0 1.02,-2.39 0,0 0,-2.56 -1.87,-1.53 0,0 -8.86,-2.73 0,-1.87 4.43,-2.22 0,0 2.05,-4.43 0,0 0.34,-2.73 -2.05,-5.28 -1.7,-0.51 -2.22,2.05 0,0 -1.36,0 0,0 0.34,-3.75 0,0 -0.17,-8.69 -2.56,-1.36 0,0 0.51,-3.58 -4.09,-11.42 4.43,-4.09 7.84,1.53 1.54,-2.22 1.19,-9.72 0,-10.06 -10.57,-6.31 0,-4.43 3.13,-6.39 0,0 2.41,0 0,0 3.41,-0.34 4.77,-2.56 1.02,-3.58 -1.53,-6.99 -8.69,-10.06 -1.02,-5.97 1.7,-2.04 0,0 0.72,-0.54 z" 
                fill="rgb(151, 144, 238)" 
                stroke="white" 
                stroke-width=".7px"
                title="Unitatea Teritorială Autonomă Găgăuzia (UTAG)" 
                id="MD-GA" 
            />
        </svg>