<svg xmlns="http://www.w3.org/2000/svg" viewBox="307.10556999999994 134.50141999999997 90.35999999999996 73.30999999999997" width="90.35999999999996" height="73.30999999999997">
            <path 
                d="m 323.79557,199.94142 0.53,-0.49 0,0 0.51,-2.55 -6.3,-17.22 -4.1,-2.05 -5.28,2.05 -2.05,-0.69 0,-6.13 3.75,-2.22 2.22,-8.69 9.89,-5.97 6.65,-1.37 3.92,1.54 3.07,3.41 0.34,3.41 -1.54,2.73 2.22,1.36 4.26,-1.53 -0.17,-4.78 1.37,-1.53 8.69,-2.73 0,-7.84 6.48,-5.12 0.51,-5.62 2.22,-0.86 0.68,-1.7 0,0 4.94,-0.85 4.95,1.19 7.16,12.11 -1.54,2.21 -0.17,3.07 1.2,1.71 12.78,2.21 6.48,3.92 -0.85,1.03 0,0 -2.73,5.62 -3.41,3.75 -0.51,3.75 -10.4,9.72 -9.04,0 -2.9,1.19 -1.7,2.73 2.56,8.53 -0.69,2.21 -6.3,0.85 -7.16,-2.72 -4.27,0 -2.04,1.19 -4.94,7.5 0,0 -1.71,1.54 0,0 -8.01,-6.99 z" 
                fill="rgb(151, 144, 238)" 
                stroke="white" 
                stroke-width=".7px"
                title="Şoldăneşti" 
                id="MD-SD" 
            />
        </svg>