<svg xmlns="http://www.w3.org/2000/svg" viewBox="203.61668999999998 485.9310399999999 62.77000000000001 53.550000000000125" width="62.77000000000001" height="53.550000000000125">
            <path 
                d="m 211.20669,534.87104 1.83,0.09 -0.05,0.87 -2.61,0.74 0.83,-1.7 z m 5.67,-6.45 1.63,3.74 1.38,1.42 0.14,2.58 -1.83,3.32 0.27,-5.25 -3.15,-4.24 1.56,-1.57 z m -7.05,-1.47 2.15,1.15 -5.53,4.61 -1.05,5.3 -1.78,-2.99 0.64,-1.89 5.57,-6.18 z m 40.47,-41.02 0.41,2.82 3.47,0.98 7.91,-0.84 4.3,1.7 -6.24,6.56 -0.42,2.1 1.94,0.7 4.17,6.35 -7.88,10.57 2.06,4.23 -3.59,9.91 0,0 -4.88,-1.8 -7.22,-10.73 -2.01,-1.01 -8.87,4.84 -8,6.96 -1.28,0.18 -1.01,-1.61 1.33,-1.75 0.87,0.78 2.67,-1.44 0.66,-2.01 3.75,-3.96 -0.09,-3.59 1.42,-1.1 0.46,-2.99 4.98,-5.07 -0.59,-3.46 2.29,-12.54 2.06,0.05 2.06,-2.95 5.27,-1.88 z" 
                fill="rgb(151, 144, 238)" 
                stroke="white" 
                stroke-width=".7px"
                title="Conakry" 
                id="GN-C" 
            />
        </svg>