<svg xmlns="http://www.w3.org/2000/svg" viewBox="584.1666899999996 75.68104000000058 318.65999999999974 568.88" width="318.65999999999974" height="568.88">
            <path 
                d="m 782.00669,76.74104 2.98,0.07 2.6,4.67 1.31,-0.65 -0.53,-1.62 0.97,-1.38 2.61,0.93 3.09,-1.37 0.83,2.66 7.93,-0.23 1.88,2.28 5.72,2.42 9.91,-1.01 0,0 -3.94,4.6 -12.87,6.12 -2.89,2.67 -1.84,3.99 4.74,8 1.84,9.86 3.16,6.13 -0.79,1.87 -4.2,1.86 1.06,7.19 -1.84,2.66 -2.89,1.33 0.79,4 -4.99,4.79 -0.79,2.13 0.01,2.93 3.94,0.8 0,2.13 -2.1,2.13 0.79,3.72 -1.84,2.13 -2.89,0.8 -0.78,6.12 0.79,1.86 -1.83,9.05 3.94,1.86 3.94,6.13 7.62,0.8 4.21,2.13 2.63,3.99 4.2,-0.79 3.69,1.86 5.25,0.01 0.79,1.86 2.89,0 0,1.06 2.89,1.87 0.8,8.77 -2.63,-1.86 -3.94,4.25 0,3.72 -3.94,2.93 -2.1,-0.01 2.89,-2.92 0,-3.72 -0.79,1.86 -2.1,1.06 -2.63,0 -3.15,-2.13 -2.89,3.99 1.84,2.92 -4.73,0 -1.84,-2.13 1.83,-4.78 -4.99,2.12 -1.84,-6.12 -1.05,1.86 -2.89,0 0,-1.86 -3.94,-1.86 -2.11,0.79 2.11,2.93 -3.94,1.32 -3.95,-3.19 -2.1,5.05 1.06,1.06 -3.68,1.86 -2.1,-1.86 2.88,-4.25 -0.79,-4.79 -2.1,6.12 -2.1,-2.4 -1.05,1.06 -0.79,4.26 1.84,1.86 -5.77,7.97 -15.77,3.71 1.06,4.25 4.99,2.93 -11.82,9.82 -3.94,1.86 -8.67,-0.01 -6.04,-1.06 -2.89,-1.87 1.05,3.99 -1.05,-1.06 -3.68,-0.01 0.79,1.07 -0.79,3.98 -6.04,-0.8 -2.89,2.65 -1.31,2.13 2.37,5.84 -1.05,6.11 -3.15,1.06 -1.84,3.72 -3.94,1.85 -3.94,4.25 0.01,5.84 -3.94,3.98 1.05,0 0,1.06 -4.21,0.79 -1.83,2.13 -3.68,0.79 -1.05,2.39 -3.15,-0.01 -1.84,2.66 1.05,0 0.79,2.12 7.1,1.86 2.63,3.19 2.36,0.8 -0.91,0.92 6.43,2.53 3.15,-0.53 1.06,1.07 2.89,0 3.68,3.19 2.36,0 6.58,7.7 11.82,-1.06 2.1,1.07 5.78,-2.92 6.84,-1.05 3.95,12.73 3.94,7.17 3.17,12.73 0,1.06 -4.21,2.12 0,2.65 8.94,2.92 2.62,-5.57 2.37,2.66 1.84,-1.86 3.68,1.86 -0.79,2.92 2.89,0 1.05,-2.92 3.94,-0.79 1.84,-2.91 1.05,1.06 0.01,3.71 2.1,1.06 6.57,0.01 3.15,-2.12 1.05,1.06 -3.15,1.85 -1.05,5.04 1.84,-0.8 2.37,0.8 3.68,6.1 1.05,0 -1.84,-2.12 2.63,-1.85 -0.01,-2.92 2.37,0.8 1.84,-1.86 1.83,-6.89 1.05,0 0.8,3.72 -0.79,2.38 4.99,0.8 -2.1,1.85 0,3.98 -1.05,0.79 -1.84,-1.85 -1.84,0 -1.05,1.85 0.01,2.39 1.84,2.91 2.89,0.8 -1.84,2.91 -2.89,-1.06 1.05,2.39 -2.1,2.91 1.05,3.71 -1.83,0 0,2.12 -4.99,2.91 -3.95,-2.92 -3.15,0 0,2.12 1.84,0.79 0,2.92 -1.84,1.85 0,1.06 1.84,-1.06 0,1.06 -1.83,5.03 6.05,9.01 -2.89,3.71 -3.15,1.32 1.84,2.91 -4.73,0 -0.79,0.79 0.79,1.86 -1.84,2.11 -1.84,0 -2.1,3.97 -2.1,1.06 -2.62,-1.06 -1.05,1.85 1.05,5.29 -1.05,2.65 -6.04,7.14 2.9,5.56 0,3.18 3.16,9 -4.2,4.75 -2.63,0 -1.05,1.85 1.06,12.17 -2.89,0.79 -1.31,2.91 -1.84,0 -1.84,3.96 0.79,5.82 1.05,0 0.01,10.05 -3.94,6.87 2.11,6.08 2.63,-1.32 3.15,1.32 1.05,1.85 4.74,1.06 3.15,-1.05 7.88,1.06 1.84,-2.9 4.73,-2.38 3.15,-3.7 0,-1.85 6.56,-7.13 1.05,-5.02 2.1,-2.91 2.89,0.01 7.1,6.08 0.79,5.82 4.73,3.17 4.21,-2.37 5.51,-5.55 5.25,-1.85 7.89,1.86 9.73,6.88 -2.89,3.96 2.89,1.86 2.9,5.02 3.94,3.7 29.44,10.86 8.68,17.71 -0.78,2.11 -5.26,3.16 -2.62,3.7 0,7.92 -1.84,1.85 -3.41,-0.8 -6.57,1.85 -3.15,2.11 -0.79,3.96 3.95,5.81 0,4.75 5.78,1.06 4.21,2.11 0,2.11 -9.98,4.75 0,1.85 3.95,5.01 6.83,1.85 2.89,1.85 1.84,3.17 -1.05,7.13 -3.67,1.84 5.78,7.92 0.8,2.9 0,0 -6.58,-2.91 -6.04,0 -2.63,1.84 -5.25,0 -3.68,-1.85 -6.04,3.69 -1.84,3.95 -8.93,1.31 -2.63,-2.37 -3.16,1.05 -2.1,3.16 -3.67,1.85 -1.06,-1.06 -2.1,2.11 -1.05,-2.11 -1.84,2.11 -2.89,-2.11 -0.79,-9.76 -1.06,-1.85 1.05,-8.97 -1.05,-0.79 -3.16,0.79 0.01,4.75 -1.84,4.22 -4.99,1.05 -1.84,1.84 -5.78,-1.85 -0.01,-7.12 -3.15,-0.79 -6.57,7.9 -3.15,0 0,-5.27 -3.94,-0.8 -1.85,-4.75 -4.99,0 -1.05,-1.32 -2.63,-0.01 -1.05,-2.9 -1.32,0 1.32,-1.85 -0.01,-7.91 -3.16,-5.02 -1.84,-1.05 -2.89,-0.01 -1.05,1.06 -1.04,6.86 -3.94,3.16 -12.61,2.9 -0.79,1.05 -4.21,0 1.05,-2.91 -1.05,-2.37 6.04,-5.54 0,-3.16 -3.16,-3.97 0,-3.69 -1.84,4.75 -2.1,1.84 -12.61,0 -3.94,3.16 -1.84,-2.11 -1.75,1.09 0,0 -10.45,-4.11 -7.88,1.01 -4.15,-1.46 1.2,-7.76 1.91,-2.13 0.04,-3.23 -1.51,-3.32 0.84,-2.32 3.81,0.58 5.18,-2.65 0.04,-2.74 -1.93,-3.93 1.96,-8.34 -4.3,-3.97 -3.65,-1.68 0.08,-2.29 -3.27,-5.26 -2.85,-0.77 -3.58,0.52 -4.8,-1.49 -1.72,1.63 -0.84,-0.95 2.11,-4.61 -6.82,-4.7 -0.91,-1.98 1.34,-2.7 -1.25,-4.05 2.93,-1.97 0.5,-1.76 -4.88,-1.11 -2.74,-2.14 2.37,-3.43 -8.49,-7.26 -1.71,-7.97 -6.83,-2.33 -2.39,-8.28 -10.1,-13.9 -9.65,-8.33 -9.39,-5.2 -3.39,-16.04 -5.23,-4.09 -44.04,0.13 0,0 1.02,-9.22 4.99,-5.02 0.79,-4.77 3.93,-5.02 1.84,-6.09 1.31,-9.8 1.83,-2.91 -0.01,-12.72 -1.85,-16.96 -1.31,-3.18 -7.62,-0.8 -11.04,-5.84 -2.9,0 0,-3.98 2.1,-6.89 -1.05,-2.12 1.05,0 0.78,-5.83 3.15,-0.79 1.84,-4.25 0,-4.77 3.94,-6.1 0.78,-3.71 -1.84,-1.33 3.15,-4.77 -1.32,-6.1 2.36,-4.78 -3.15,-3.98 -6.57,-4.78 -4.21,0.79 -1.05,-5.05 2.88,-6.63 8.93,-7.96 11.04,3.73 6.57,0 12.09,-2.64 7.35,-5.31 13.13,-5.56 2.63,-4.25 -11.56,-3.73 -4.21,-2.92 -3.68,-5.05 -3.68,0.79 -5.26,-5.85 -5,-14.88 0,0 -0.01,-6.91 12.08,-15.94 6.83,-2.92 5.78,0 0.79,-1.86 4.2,-1.86 5.78,-6.11 -1.06,-3.72 1.84,0 -0.79,-2.4 -2.1,-1.86 -5.78,-1.87 -3.95,0.8 -2.89,-4.79 0,-2.13 1.05,-1.86 6.83,-2.92 3.94,-4.26 -1.05,-1.86 -2.9,-0.8 0,-1.07 3.94,-6.12 6.83,-0.79 1.84,-2.13 2.89,-6.92 -0.8,-17.84 0.78,-1.86 4.21,-2.93 -6.05,-1.87 -2.89,-4.26 -5,0 -3.68,-1.87 -1.05,-1.87 1.05,-2.39 -0.01,-8.53 -1.98,-4.14 0,0 4.5,-4.37 -1,-3.24 0.78,-2.38 4.96,-0.3 0.81,-3.96 5.2,-2.8 4.61,-14.36 4.84,2.59 4.89,-0.53 3.05,-2.07 3.84,0.63 2.51,-0.85 3.42,1.63 0.81,1.97 2.04,-0.23 2.25,6.89 5.22,4.94 9.04,3.72 0.86,7.28 -1.66,4.72 2.86,4.46 3.51,2.87 1.8,5.18 -0.97,3.15 3.3,4.58 2.35,0.16 4.41,3.78 2.96,-0.15 5.29,-3.22 -0.03,-2.73 4.53,-7.9 2.19,0.43 6.01,-3.94 -2.64,-2.71 0.12,-1.34 7.5,-1.63 1.61,-1.59 0.23,-5.83 2.7,-1.3 -1.87,-4.85 2.2,-1.49 8.91,0.27 5.76,-3.51 0.54,-5.27 2.4,-0.63 4.13,1.46 1.73,-1.34 0.4,-2.77 3.81,0.83 0.47,-2.54 -1.49,-3.01 0.31,-0.85 z" 
                fill="rgb(151, 144, 238)" 
                stroke="white" 
                stroke-width=".7px"
                title="Faranah" 
                id="GN-F" 
            />
        </svg>