<svg xmlns="http://www.w3.org/2000/svg" viewBox="686.1266899999993 29.271039999999388 487.73001000000056 622.2500000000006" width="487.73001000000056" height="622.2500000000006">
            <path 
                d="m 960.27669,30.00104 7.14,1.97 7.7,0.41 11.29,7.53 6.62,1.79 3.4,2.61 2.69,4.82 6.55001,5.97 1.85,4.63 -4.83,6.7 -0.97,9.93 2.46,1.61 2.2,3.92 3.88,0.46 0.75,-2.23 1.97,0.06 -0.02,1.92 1.73,0.29 1.86,2.79 1.01,2.82 -1.08,8.53 -1.94,0.98 -0.71,5.88 1.05,3.13 2.77,0.18 4.05,2.81 2.57,-3.13 3.88,0.5 4.44,5.66 -1.78,5.44 3.5,8.15 -9.78,49.38 5.3,0.36 4.02,1.95 2.05,-1.21 4.14,2.5 4.35,-3.92 6.93,-0.89 1.52,1.82 -1.07,8.1 2.59,1.87 3.13,10.97 6.83,7.76 2.74,-0.65 3.23,2.23 1.76,-2.62 4.99,-3.14 1.6,1.37 1.3,4.42 -1.5,0.63 0.02,1.35 2.94,2.06 1.12,3.27 7.53,2.96 9.79,-0.12 3.45,2.47 -5.74,1.24 -1.81,4.08 0.59,1.35 2.72,0.95 6.02,0.15 -1.96,6.96 -7.46,1.45 -9.36,-3.06 -3.31,4.34 2.11,6.81 -13.15,2.89 -1.14,3.13 1.48,5.16 -1.11,2.52 -1.67,2.32 -4.98,-0.33 -1.82,1.33 0.29,5.14 -4.03,4.21 -0.85,5.01 -5.11,4.32 0.68,8.75 2.67,1.02 6.35,-2.69 5.26,2.51 8.98,-4.35 3.44,0.72 1.98,-9.9 3.39,-5.6 1.58,-0.6 7.79,-0.57 3.28,1.64 4.69,-2.18 4.83,1.21 3.99,3.31 6,8.84 -0.69,3.94 2.02,7.65 0.56,12.07 -1.06,2.75 -3.97,2.45 -3.75,9.99 5.5,1.82 -1.87,5.76 1.72,4.54 -0.83,8.79 1.84,3.43 0.19,3.75 2.61,2.56 -0.56,9.48 2.38,3.32 0.07,3.98 2.81,1.9 3.19,9.22 8.58,1.82 5.36,-3.69 3.33,-0.15 1.02,4.87 3.72,5.78 15.87,3.29 4.39,4.11 1.26,3.11 2.26,8.93 -0.86,5.19 -4.23,5.03 -6.31,13.72 -4.71,3.95 -10.14,4.39 -4.66,6.5 -0.38,2.58 -2.39,2.07 2.19,1.86 2.8,-1.26 0.61,3.06 -5.69,3.4 -2.16,1.73 0.77,2.42 1.29,0.51 2.95,-0.08 1.73,1.44 -0.68,3.08 -1.98,-0.52 -0.45,2.63 4.95,0.4 0.94,1.92 -0.88,2.82 1.9,1.01 -1.3,5.79 -1.84,1.12 1.16,4.36 -1.66,1.93 -0.98,1.93 1.04,5.47 -2.17,2.99 1.14,3.22 0.27,2.71 -0.95,3 -2.99,1.87 1.34,2.07 -0.63,4.78 0,0 -33.39,1.03 -5.52,1.84 -7.88,6.08 -4.2,-1.86 -3.68,0 -1.05,0.79 1.05,3.97 -2.1,3.96 -3.15,-0.8 -2.63,3.7 -1.05,-1.85 -1.84,0.79 -1.04,6.08 -5,1.05 -1.05,-3.17 -1.84,-1.06 -0.79,-4.76 -1.32,-1.85 -1.05,1.06 0,2.64 -1.83,2.91 1.85,14 0.01,11.62 -2.89,2.9 -0.79,7.13 -2.88,5.02 0,4.75 -4.99,3.96 -2.89,3.95 -1.05,6.87 -2.09,4.74 0,5.02 1.32,3.96 3.68,5.02 0,3.69 -2.89,3.16 -12.87,4.74 -3.68,4.22 -2.88,6.59 -1.32,0 -15.49,12.12 -2.1,0.79 -9.73001,-3.96 -8.93,-1.07 -16.29,6.06 -6.05,-0.01 -8.93,-3.17 -11.57,-10.82 -12.88,-7.92 -4.73,-0.01 -17.87,5 -12.87,-0.8 0,0 -0.8,-2.9 -5.78,-7.92 3.67,-1.84 1.05,-7.13 -1.84,-3.17 -2.89,-1.85 -6.83,-1.85 -3.95,-5.01 0,-1.85 9.98,-4.75 0,-2.11 -4.21,-2.11 -5.78,-1.06 0,-4.75 -3.95,-5.81 0.79,-3.96 3.15,-2.11 6.57,-1.85 3.41,0.8 1.84,-1.85 0,-7.92 2.62,-3.7 5.26,-3.16 0.78,-2.11 -8.68,-17.71 -29.44,-10.86 -3.94,-3.7 -2.9,-5.02 -2.89,-1.86 2.89,-3.96 -9.73,-6.88 -7.89,-1.86 -5.25,1.85 -5.51,5.55 -4.21,2.37 -4.73,-3.17 -0.79,-5.82 -7.1,-6.08 -2.89,-0.01 -2.1,2.91 -1.05,5.02 -6.56,7.13 0,1.85 -3.15,3.7 -4.73,2.38 -1.84,2.9 -7.88,-1.06 -3.15,1.05 -4.74,-1.06 -1.05,-1.85 -3.15,-1.32 -2.63,1.32 -2.11,-6.08 3.94,-6.87 -0.01,-10.05 -1.05,0 -0.79,-5.82 1.84,-3.96 1.84,0 1.31,-2.91 2.89,-0.79 -1.06,-12.17 1.05,-1.85 2.63,0 4.2,-4.75 -3.16,-9 0,-3.18 -2.9,-5.56 6.04,-7.14 1.05,-2.65 -1.05,-5.29 1.05,-1.85 2.62,1.06 2.1,-1.06 2.1,-3.97 1.84,0 1.84,-2.11 -0.79,-1.86 0.79,-0.79 4.73,0 -1.84,-2.91 3.15,-1.32 2.89,-3.71 -6.05,-9.01 1.83,-5.03 0,-1.06 -1.84,1.06 0,-1.06 1.84,-1.85 0,-2.92 -1.84,-0.79 0,-2.12 3.15,0 3.95,2.92 4.99,-2.91 0,-2.12 1.83,0 -1.05,-3.71 2.1,-2.91 -1.05,-2.39 2.89,1.06 1.84,-2.91 -2.89,-0.8 -1.84,-2.91 -0.01,-2.39 1.05,-1.85 1.84,0 1.84,1.85 1.05,-0.79 0,-3.98 2.1,-1.85 -4.99,-0.8 0.79,-2.38 -0.8,-3.72 -1.05,0 -1.83,6.89 -1.84,1.86 -2.37,-0.8 0.01,2.92 -2.63,1.85 1.84,2.12 -1.05,0 -3.68,-6.1 -2.37,-0.8 -1.84,0.8 1.05,-5.04 3.15,-1.85 -1.05,-1.06 -3.15,2.12 -6.57,-0.01 -2.1,-1.06 -0.01,-3.71 -1.05,-1.06 -1.84,2.91 -3.94,0.79 -1.05,2.92 -2.89,0 0.79,-2.92 -3.68,-1.86 -1.84,1.86 -2.37,-2.66 -2.62,5.57 -8.94,-2.92 0,-2.65 4.21,-2.12 0,-1.06 -3.17,-12.73 -3.94,-7.17 -3.95,-12.73 -6.84,1.05 -5.78,2.92 -2.1,-1.07 -11.82,1.06 -6.58,-7.7 -2.36,0 -3.68,-3.19 -2.89,0 -1.06,-1.07 -3.15,0.53 -6.43,-2.53 0.91,-0.92 -2.36,-0.8 -2.63,-3.19 -7.1,-1.86 -0.79,-2.12 -1.05,0 1.84,-2.66 3.15,0.01 1.05,-2.39 3.68,-0.79 1.83,-2.13 4.21,-0.79 0,-1.06 -1.05,0 3.94,-3.98 -0.01,-5.84 3.94,-4.25 3.94,-1.85 1.84,-3.72 3.15,-1.06 1.05,-6.11 -2.37,-5.84 1.31,-2.13 2.89,-2.65 6.04,0.8 0.79,-3.98 -0.79,-1.07 3.68,0.01 1.05,1.06 -1.05,-3.99 2.89,1.87 6.04,1.06 8.67,0.01 3.94,-1.86 11.82,-9.82 -4.99,-2.93 -1.06,-4.25 15.77,-3.71 5.77,-7.97 -1.84,-1.86 0.79,-4.26 1.05,-1.06 2.1,2.4 2.1,-6.12 0.79,4.79 -2.88,4.25 2.1,1.86 3.68,-1.86 -1.06,-1.06 2.1,-5.05 3.95,3.19 3.94,-1.32 -2.11,-2.93 2.11,-0.79 3.94,1.86 0,1.86 2.89,0 1.05,-1.86 1.84,6.12 4.99,-2.12 -1.83,4.78 1.84,2.13 4.73,0 -1.84,-2.92 2.89,-3.99 3.15,2.13 2.63,0 2.1,-1.06 0.79,-1.86 0,3.72 -2.89,2.92 2.1,0.01 3.94,-2.93 0,-3.72 3.94,-4.25 2.63,1.86 -0.8,-8.77 -2.89,-1.87 0,-1.06 -2.89,0 -0.79,-1.86 -5.25,-0.01 -3.69,-1.86 -4.2,0.79 -2.63,-3.99 -4.21,-2.13 -7.62,-0.8 -3.94,-6.13 -3.94,-1.86 1.83,-9.05 -0.79,-1.86 0.78,-6.12 2.89,-0.8 1.84,-2.13 -0.79,-3.72 2.1,-2.13 0,-2.13 -3.94,-0.8 -0.01,-2.93 0.79,-2.13 4.99,-4.79 -0.79,-4 2.89,-1.33 1.84,-2.66 -1.06,-7.19 4.2,-1.86 0.79,-1.87 -3.16,-6.13 -1.84,-9.86 -4.74,-8 1.84,-3.99 2.89,-2.67 12.87,-6.12 3.94,-4.6 0,0 3.57,6.62 2.35,-0.22 2.23,-0.22 2.45,2.17 3.74,0.1 5.09,4.99 2.93,-1.29 1.84,1.44 4.5,-0.17 1.02,2.82 4.17,4.1 12.02,0.07 6.63,4.15 11.5,1.35 0.63,-5.64 2.67,-1.52 0.67,-2.04 -0.34,-7.51 7.79,-8.22 10.03,-3.05 4.62,-0.27 5.96,-4.04 4.27,-4.85 10.64,-2.43 1.49,1.67 2.36,-0.75 8.37,1.99 -0.24,-3.35 1.97,-0.02 1.66,-1.64 -0.44,-7.32 2.28,-1.1 0.27,-4.2 1.55,-1.72 -6.02,-3.09 -1.09,-3.71 -2.88,-0.99 -1.91,-2.09 -2.39,-4.99 -3.16,0.47 -0.17,-2.85 5.75,-2 1.27,-3.72 3.69,0.45 0.63,2.7 1.71,-0.99 0.95,-2.99 5.83,3.13 1.6,-2.3 3.48,-1.17 z" 
                fill="rgb(151, 144, 238)" 
                stroke="white" 
                stroke-width=".7px"
                title="Kankan" 
                id="GN-K" 
            />
        </svg>