<svg xmlns="http://www.w3.org/2000/svg" viewBox="342.37668999999914 39.29103999999997 321.30000000000064 243.10000000000008" width="321.30000000000064" height="243.10000000000008">
            <path 
                d="m 601.93669,42.30104 6.88,1.89 0.96,4.05 -6.44,1.93 -0.57,-2.93 -3.84,2.81 -0.37,3.51 -1.34,1.19 1.69,2.66 0.81,8.01 -2.47,2.62 -0.54,3.04 -3.85,2.42 -3.5,4.85 0.54,5.2 4.19,6.66 4.85,2.81 10.47,3.01 2.57,4.15 -0.23,3.2 8.13,6.47 9.04,4.81 3.15,-0.58 4.24,-3.65 4.67,0.06 3.09,-2.66 0,0 1.98,4.14 0.01,8.53 -1.05,2.39 1.05,1.87 3.68,1.87 5,0 2.89,4.26 6.05,1.87 -4.21,2.93 -0.78,1.86 0.8,17.84 -2.89,6.92 -1.84,2.13 -6.83,0.79 -3.94,6.12 0,1.07 2.9,0.8 1.05,1.86 -3.94,4.26 -6.83,2.92 -1.05,1.86 0,2.13 2.89,4.79 3.95,-0.8 5.78,1.87 2.1,1.86 0.79,2.4 -1.84,0 1.06,3.72 -5.78,6.11 -4.2,1.86 -0.79,1.86 -5.78,0 -6.83,2.92 -12.08,15.94 0.01,6.91 0,0 -1.84,0 1.05,2.13 -7.62,-2.14 0.79,6.12 -9.72,1.85 -9.98,5.84 -11.82,14.86 -5.51,2.92 -7.1,-0.8 -5.78,6.9 -2.89,1.06 0.01,2.65 -6.05,5.31 -14.45,-2.93 -6.05,-3.19 -5,-9.83 0,-2.92 3.15,-7.97 0.79,0.8 -0.79,-5.85 -6.05,-4.79 -7.88,-2.13 -1.85,-1.86 -1.05,-3.99 -2.89,-1.06 -3.16,-5.05 -5.52,-1.07 -4.2,0 -7.88,2.38 -1.84,1.86 -4.72,13.55 -7.88,4.24 0,1.07 -4.2,2.65 -1.84,-0.8 -4.74,-7.97 -3.15,0 -11.56,3.97 -5,-2.13 -4.72,9.03 -2.1,-1.06 -0.79,-1.86 -6.05,-1.07 -1.05,-1.86 -2.63,-10.9 0.78,-8.76 -2.11,-2.4 -2.89,1.06 -1.05,-2.92 -3.68,-1.07 -2.1,-3.72 -9.99,2.91 -1.84,-1.06 -0.78,1.86 -2.9,0 2.9,2.13 -2.1,3.98 -3.94,2.92 -3.94,0 -0.79,2.92 -4.2,2.12 0,2.93 -3.68,2.92 -1.04,7.97 -3.94,6.1 0,0 -7.62,-3.19 -2.37,-2.13 -5.52,0 -7.09,7.17 -4.99,-1.07 -1.05,-0.8 -0.01,-7.17 -2.63,-5.05 -2.89,-1.07 0,0 2.89,-3.71 -1.85,-9.04 4.47,-3.98 -3.69,-6.65 2.89,-4.25 2.89,-2.92 7.88,-3.72 -1.05,-1.33 6.04,-5.85 13.66,-5.84 0.78,-2.12 3.16,-0.8 1.04,-6.12 8.67,-5.84 1.05,1.06 1.05,-1.06 -2.89,-5.06 0.79,-1.86 -0.79,-3.19 -2.1,2.12 -1.06,-2.13 -3.94,-1.06 0,-1.87 -2.89,-0.8 0,-2.92 -2.11,-1.07 0,-3.19 -2.89,1.06 -2.89,-1.87 0,-2.13 4.99,-2.66 0.78,-5.32 -2.89,-3.73 -0.79,-9.05 5.78,-1.86 1.04,-3.2 -1.05,-5.59 -6.84,-7.2 6.04,-6.92 -7.88,-4 -1.06,-8.8 1.84,-1.06 2.09,-6.13 -2.1,-3.74 1.05,-2.13 -2.89,-2.14 12.6,-17.85 30.47,-16.79 0.79,-2.13 1.13,0 0,0 2.58,-0.54 6.18,-4.34 5.28,-0.29 11.54,5.08 7.24,9.6 2.7,0.68 17.92,-7.99 12.44,-2.18 10.27,-8.92 3.48,0.64 4.29,-0.95 4.06,3.96 4.32,0.45 15.71,-5.7 8.87,5.61 14.46,1.6 8.09,-0.94 8,-5.02 10.45,-0.59 11.36,-2.66 11.8,0.22 z" 
                fill="rgb(151, 144, 238)" 
                stroke="white" 
                stroke-width=".7px"
                title="Labé" 
                id="GN-L" 
            />
        </svg>