<svg xmlns="http://www.w3.org/2000/svg" viewBox="717.5766899999998 515.6910399999995 506.6800100000006 395.2199999999998" width="506.6800100000006" height="395.2199999999998">
            <path 
                d="m 1141.9367,524.64104 1.36,0.86 -0.2,3.51 3.7,6.29 8.44,10.63 15.18,0.95 8.62,-3.89 3.96,0.43 1.41,-3.11 5.46,-0.35 -2.72,10.35 -3.61,5.47 0.16,8.57 -6.3,12.15 0.96,5.04 6.26,4.84 4.75,-3.34 3.27,0.5 -0.77,4.02 4.24,1.66 0.02,1.88 3.94,3.82 8.48,4.65 -4.68,1.96 -7.92,-2.65 -4.59,1.88 -3.98,5.05 -6.78,3.65 -1.97,2.37 0.19,6.13 -6.21,16.16 -1.07,9.76 3.44,5.14 4.04,2.29 9,-2.01 6.14,1.94 5.52,-1.23 3.71,1.88 7.23,16.93 5.99,19 4.36,6.44 0.14,3.38 -3.49,6.11 2.53,6.52 4.11,5.22 -17.13,0.68 -7.13,-14.94 -6.39,-4.38 -1.72,3.58 0.79,5.9 -3.21,2.12 -5.63,0.5 0.31,-2.96 -3.99,-0.13 -2.02,-1.93 0.3,-2.53 1.03,-3.41 -4.1,-2.94 -2,1.23 -3.4,-0.84 -2.35,2.47 -9.85,-1.91 -3.32,-1.86 -2.75,1.44 -2.23,-1.32 -4.21,2.84 -2.16,0.12 -3.9,-1.38 -1.94,0.66 -1.43,-1.34 -3.3,-0.19 -1.26,3.28 -2.87,2.25 -1.98,0.39 -1.68,3.84 3.28,14.48 -2.02,4.49 1.27,7.84 -2.66,3.31 -0.27,4.01 2.92,1.66 1.85,-1.32 6.5,5.65 8.76,0.6 6.14,4.8 3.32,0.93 4.82,-7.27 3.57,3.16 3.21,-2.01 0.85,2.47 -2.58,3.27 -0.91,10.16 0.63,1.38 4.86,2.41 2.93,5.31 2.76,0.79 0.16,4.86 -0.43,0.94 -4.03,-1.6 -1.91,0.99 -1.24,-1.19 0.45,-2.76 -1.84,-0.71 -1.57,1.2 -5.09,-0.14 -2.79,1.66 -0.97,1.93 1.68,1.82 -2.04,6.88 -8.47,16.45 0.42,2.31 7.06,6.01 0.07,2.99 -2.42,3.57 -1.32,7.68 -4.88,1.86 -2.66,2.89 -0.63,6.23 -4.65,5.87 -0.12,6.32 -3.44,6.04 -3.52,1.87 -6.97,-5.59 -5.29,-1.56 -2.2,-4.02 -3.25,0.32 -3.95,3.4 -3.76,1.01 -1.7,-1.03 -0.83,-4.62 -1.37,-0.86 -4.02,0.67 -9.01,8.83 -15.32,-11.76 1.73,-3.92 -0.82,-7.09 -16.4,-0.59 -4.65,6.73 -3.16,2.54 0.44,3.67 -3.05,10.82 0.52,1.14 1.29,-0.22 0.43,6.32 -7.93,8.9 -2.99,1.04 -0.75,5.91 -2.77,0.17 -2.39,1.62 -5.69,8.91 2.09,5.83 -0.84,2.54 0.78,2.16 -2.4,3.32 -2.54,0.86 -6.48,-0.49 -2.1,-4.44 -3.52,0.4 0.6,2.01 -1.26,1.78 -2,-1.19 -1.76,2.99 -8.72001,1.32 -8.1,7.04 -3.02,-0.28 -3.31,1.5 1.7,-5.32 -3.2,-5.09 -0.41,-2.81 -6.21,0.05 -6,-4.91 -1.8,-2.88 -0.82,-5.04 0.67,-4.84 -4.15,-1.45 -7.78,1.62 -2.31,-1.41 -1.1,-5.69 -2.35,-1.06 -3.38,0.82 -3.29,-0.85 -5.03,5.96 -2.69,0.75 -2.29,-5.76 -7.52,5.23 -3.5,4.91 -0.15,-2.27 3.68,-9.57 6.2,-6.26 6.97,-18.26 3.17,-4.91 0.42,-2.23 -2.9,-3.3 0.25,-5.99 4.4,-11 -0.85,-4.21 -1.36,-0.15 -0.33,-3.47 -5.11,-2.16 -5.44,-8.77 -1.48,-14.14 3.74,-5.21 -1.91,-3.39 -0.05,-2.82 -1.58,-1.52 0.59,-3.56 -4.26,2.62 -1.06,-0.69 2.51,-5.82 -2.39,-5.63 -0.7,-9.98 -9.28,-2.22 1.65,-8.49 -1.12,-1.98 4.69,-4.07 -2.49,-3.01 0.37,-4.21 -3.15,-2.5 5.59,-3.71 1.37,-2.42 -0.36,-2.24 -8.77,-1.09 -4.57,-3.29 -3.05,-4.88 -4.35,4.3 -8.02,0.75 -0.17,-3.04 5.08,-5.06 -0.52,-1.22 -5.33,-4.97 -5.16,-0.48 -2.1,1.77 -0.75,5.2 -1.37,0.82 -0.94,-3.23 -3.61,-4.96 1.61,-4.28 -3.96,-4.88 -2.24,-0.4 -3.04,3.06 -1.4,-0.2 -0.73,1.37 1.69,2.29 -1.68,1.62 -4.67,0.2 -2.33,2.3 -2,-2.18 -9.95,0.44 -8.92,5.41 -3.51,3.97 -3.53,-0.1 -6.4,3.46 -2.01,-1.38 2.08,-11 -5.26,-3.67 -2.28,0.44 -4.1,-1.65 -3.38,1.01 -2.89,0.74 -4.88,2.52 -3.18,3.15 -2.79,-0.21 -1.97,-0.93 -4.59,-0.7 -2.88,1.12 -7.33,-2.99 -5.36,2.44 -3.62,-0.79 -3.7,7.07 -3.77,3.36 -3.52,5.72 -9.79,9.79 -6.81,4.68 -4.29,-0.05 -1.13,-2.97 -1.75,-1.04 -12.66,-1.43 -3.89,6.21 -0.5,4.97 -3,0.37 1.1,-1.89 -0.67,-3.68 3.33,-9.07 7.07,-4.68 -0.66,-6 1.24,-8.62 1.67,-1.13 1.45,-1.25 1.36,-8.42 3.31,-1.32 3.16,-3.64 0.58,-3.99 2.17,0.01 3.65,-2.64 3.5,0.24 6.78,-4.57 0.01,-2.4 2.03,-3.68 -2.21,-0.92 -1.84,-3.62 -2.13,-2.21 -1.77,-2.4 -0.91,-1.26 -2.07,-5.78 -5.15,-4.73 -3.27,-0.55 0.58,-2.85 -2.09,-11.26 0.67,-7.11 -1.05,-6.81 2.44,-10.38 -2.19,-3.37 0,0 1.75,-1.09 1.84,2.11 3.94,-3.16 12.61,0 2.1,-1.84 1.84,-4.75 0,3.69 3.16,3.97 0,3.16 -6.04,5.54 1.05,2.37 -1.05,2.91 4.21,0 0.79,-1.05 12.61,-2.9 3.94,-3.16 1.04,-6.86 1.05,-1.06 2.89,0.01 1.84,1.05 3.16,5.02 0.01,7.91 -1.32,1.85 1.32,0 1.05,2.9 2.63,0.01 1.05,1.32 4.99,0 1.85,4.75 3.94,0.8 0,5.27 3.15,0 6.57,-7.9 3.15,0.79 0.01,7.12 5.78,1.85 1.84,-1.84 4.99,-1.05 1.84,-4.22 -0.01,-4.75 3.16,-0.79 1.05,0.79 -1.05,8.97 1.06,1.85 0.79,9.76 2.89,2.11 1.84,-2.11 1.05,2.11 2.1,-2.11 1.06,1.06 3.67,-1.85 2.1,-3.16 3.16,-1.05 2.63,2.37 8.93,-1.31 1.84,-3.95 6.04,-3.69 3.68,1.85 5.25,0 2.63,-1.84 6.04,0 6.58,2.91 0,0 12.87,0.8 17.87,-5 4.73,0.01 12.88,7.92 11.57,10.82 8.93,3.17 6.05,0.01 16.29,-6.06 8.93,1.07 9.73001,3.96 2.1,-0.79 15.49,-12.12 1.32,0 2.88,-6.59 3.68,-4.22 12.87,-4.74 2.89,-3.16 0,-3.69 -3.68,-5.02 -1.32,-3.96 0,-5.02 2.09,-4.74 1.05,-6.87 2.89,-3.95 4.99,-3.96 0,-4.75 2.88,-5.02 0.79,-7.13 2.89,-2.9 -0.01,-11.62 -1.85,-14 1.83,-2.91 0,-2.64 1.05,-1.06 1.32,1.85 0.79,4.76 1.84,1.06 1.05,3.17 5,-1.05 1.04,-6.08 1.84,-0.79 1.05,1.85 2.63,-3.7 3.15,0.8 2.1,-3.96 -1.05,-3.97 1.05,-0.79 3.68,0 4.2,1.86 7.88,-6.08 5.52,-1.84 33.39,-1.03 0,0 -0.4,7.87 z" 
                fill="rgb(151, 144, 238)" 
                stroke="white" 
                stroke-width=".7px"
                title="Nzérékoré" 
                id="GN-N3" 
            />
        </svg>