<svg xmlns="http://www.w3.org/2000/svg" viewBox="388.11786 290.19244 24.40999999999991 21.29000000000002" width="24.40999999999991" height="21.29000000000002">
            <path 
                d="m 390.52786,309.79244 -2.34,-2.26 -0.07,-1.21 1.24,-2.87 3.33,-4.59 0.93,-3.24 1.07,-0.73 1.79,-0.38 3.47,-1.97 1.21,-0.92 0.39,-1.26 0.73,-0.17 0.77,1.39 1.33,1.34 4.44,2.63 0.59,2.44 1.14,2.04 0,0 0.26,0.59 -0.24,1.6 1.96,2.14 -4.28,1.97 -2.55,3.55 -0.72,0.5 -3.02,1.04 -1.26,0.06 -2.17,-1.02 -1.74,-1.41 -4.21,-0.38 z" 
                fill="rgb(151, 144, 238)" 
                stroke="white" 
                stroke-width=".7px"
                title="Aguascalientes" 
                id="MX-AGU" 
            />
        </svg>