<svg xmlns="http://www.w3.org/2000/svg" viewBox="79.02786199999998 137.85244 145.29999800000007 260.67" width="145.29999800000007" height="260.67">
            <path 
                d="m 91.057862,397.56244 1.49,0.37 -0.48,0.42 -1.32,0.17 -0.12,-0.73 0.43,-0.23 z m 93.899998,-12.95 1.03,0.69 0.7,1.07 -0.01,1.76 -0.83,0.41 -0.44,-0.69 -1.15,-0.2 -0.81,-1.31 1.51,-1.73 z m 4.73,-12.33 0.23,0.65 -0.46,0.66 -0.29,-0.57 0.52,-0.74 z m 21.73,-135.15 2.79,4.59 0.44,1.91 -1.56,-0.29 -0.71,-1.05 -1.1,-3.81 0.14,-1.35 z m -51.48,-4.14 3.12,0.16 1.11,1.44 0.94,0.11 0.81,0.62 1.33,2.43 -0.35,0.83 -6.92,-5.03 -0.31,-0.34 0.27,-0.22 z m 40.73,-0.24 1.77,1.59 -0.93,2.03 -0.54,0.03 0.04,-0.83 -0.73,-0.26 0.12,-0.5 -0.46,-0.58 0.18,-0.67 -0.27,-0.46 0.82,-0.35 z m -0.86,-1.58 0.87,1.34 -0.59,0.33 -0.62,-0.36 -0.1,-0.78 0.44,-0.53 z m -7.78,-14.08 0.92,1.45 1.98,0.54 0.42,0.6 0.06,1.54 0.97,2.16 -0.47,0.09 -2.64,-2.04 -0.68,-2.02 -0.89,-0.9 0.33,-1.42 z m -35.67,-4.58 0.21,1.38 -1.1,3.4 0.11,3.08 -0.76,0.68 0.66,1.33 -0.33,1.14 -0.63,0.07 -0.31,0.53 0.16,0.72 1.14,1.27 -0.16,0.29 0.93,0.82 0.44,1.34 -0.67,1.1 0.92,0.78 1.25,1.81 -0.07,0.38 -1.06,-0.54 -0.05,-0.66 -1.78,-1.9 0.19,-0.53 0.57,0.08 0.22,-0.54 -0.12,-1.07 -0.8,-0.98 -1.33,-0.69 -1.22,0.37 -0.7,-0.45 -0.04,-0.58 0.41,-0.08 1.95,-5.17 1.97,-7.38 z m 36.07,-1.13 -0.45,1.2 -0.52,0.24 -0.15,-0.74 1.12,-0.7 z m -35.23,-4.93 -0.16,4.42 -0.37,1.37 -0.5,-0.35 1.03,-5.44 z m 0.06,-5.2 0.16,2.08 -0.17,2.51 -0.28,0.01 0.29,-4.6 z m 33.06,-0.92 0.31,3.3 -0.71,-0.44 -0.4,-1.4 0.8,-1.46 z m -6.54,-0.04 0.54,1.25 -0.33,0.51 -0.41,-0.2 -0.41,-1.41 0.61,-0.15 z m -0.66,-9.78 -0.5,1.02 0.4,1.67 -1.2,-0.74 -1.71,2.67 0,0.92 -0.56,0.55 0,0.68 -0.6,0.05 -0.13,-0.76 0.4,-0.45 0.18,-1.68 1.05,-1.74 -0.19,-1.46 0.98,-0.25 0.18,-0.43 0.64,0.4 1.06,-0.45 z m -5.19,-1.89 0.18,0.79 -0.45,0.05 -0.17,-0.54 0.44,-0.3 z m -49.09,-16.53 1.34,0.32 0.75,1.57 -0.96,-0.63 -1.97,-0.48 -0.12,-0.28 0.96,-0.5 z m 28.56,-14.77 1.06,1 -0.34,1.22 -0.62,-0.16 -0.5,-1.41 0.4,-0.65 z m 5.07,-5.51 0.42,0.05 0.28,0.62 -0.93,0.04 -0.18,-0.46 0.41,-0.25 z m -83.339998,-12.4 1.37,0.75 -0.1,0.53 -1.37,-1.02 0.1,-0.26 z m 26.709998,-1.56 0.65,0 0,0 0.41,0.41 0.29,-0.41 31.7,0.1 0,0 0.87,0.26 0.64,1.71 0,0 -0.07,0.5 1.29,1.03 0.4,1.96 1.08,1.29 0.42,-0.04 1.23,1.7 2.78,0.86 0.54,0.62 0.94,0.15 1.61,1.11 0.71,0.96 0.7,3.73 1.64,1.81 0.97,2.21 -0.41,0.76 2.6,2.1 2.54,0.65 0.47,0.57 0.93,-0.01 0.15,0.73 -0.57,0.03 -0.89,1.04 -0.23,1.58 1.68,2.42 0.9,0.46 0.04,0.46 0.92,0.66 0.33,1.37 -0.7,0.55 -0.47,1.29 1.17,0.73 0.29,1.17 1.08,0.66 0.69,1.69 1,0.75 1.55,-1.38 -3.45,-3.58 -0.23,-2.91 -0.68,-1.64 0.74,-0.47 1.85,1.4 0.67,1.09 1.35,0.93 0.47,0.75 2.16,1.37 -0.19,3.51 0.35,0.56 2.72,0.85 -0.6,1.63 0.04,1.24 1.15,1.88 0.71,0.31 0.22,0.5 0.07,1.14 -0.35,0.66 1.98,5.16 -0.58,0.94 0.1,1.35 -0.52,0.72 0.11,0.99 0.45,0.58 0.08,1.92 0.63,0.67 0.04,1.05 1.8,1.47 0.22,-0.17 0.8,3.11 1.84,2.4 2.56,0.31 -0.22,1.61 1.17,3.14 0.85,0.85 0.3,1.05 -0.3,0.17 0.38,1.53 0.62,0.81 -0.04,1 0.68,0.54 0.44,1.26 0.86,0.48 0.51,0.9 0.47,-0.13 0.76,0.62 0.25,1.3 1.61,2.21 0.67,2.08 -0.17,1.19 -0.74,1.77 -0.87,0.93 -0.22,3.09 0.22,1.04 1.05,1.39 0.13,2.88 1.06,1.24 0.69,1.57 1.54,1.35 4.34,0.95 1.21,-0.12 0.06,0.28 -1.28,0.5 -0.79,-0.65 -0.42,0.25 0.21,1.46 1.68,-0.13 -0.01,-0.78 1.21,-1.03 0.06,-0.98 -0.91,-2.2 0.28,-1.07 0.71,-0.45 1.56,0.21 0,0.78 1.06,0.62 0.42,1.12 2.15,0.99 2.06,1.58 0.71,3.23 1.2,0.3 2.6,-0.88 0.04,0.58 0.53,0.49 -0.7,0.86 0.07,2.03 3.24,3.16 -0.28,1.97 0.31,1.69 0.39,0.47 5.38,2.63 -0.31,0.81 1.43,2.07 -0.22,0.69 0.42,0.43 -0.51,4.39 -0.59,1.26 -1.87,2.31 -1.04,0.72 -2.2,0.54 -1.21,0.82 -0.02,0.75 -2.07,1.14 -0.53,1.04 -0.94,0.74 -0.93,0.04 -0.64,0.67 -1.15,0 -2.42,-2.01 -1.17,-2.77 -1.46,-7.1 -2.5,-4.57 -1.83,-2.44 -6.19,-3.28 -11.64,-11.53 -10.8,-6.54 0.12,-0.26 -1.16,-1.24 -1.55,-0.21 0.06,-0.48 -0.64,-0.07 -1.02,-2.97 0.28,-0.11 -0.47,-0.58 -0.99,-0.3 -0.1,1.14 -2.41,-0.2 -0.06,0.75 -0.6,-0.01 0.15,-1.48 -0.73,-2.01 -2.19,-2.41 0.27,-0.25 -0.56,-0.5 -0.68,0.27 0.13,0.44 -1.46,-0.24 -2.01,-0.97 -0.31,-0.69 0.54,-0.03 0.11,-0.76 -0.62,-0.4 -0.17,-0.78 0.65,-0.97 -0.27,-0.16 0.39,-0.72 -0.44,-0.13 0.24,-0.45 -0.42,-0.48 -0.57,0.92 0.29,0.76 -0.39,0.49 0.05,2.53 -0.73,0 -0.48,-1.15 0.77,-1.55 -0.65,-1.39 0.81,-0.45 0.74,-1.67 0.02,-0.96 -0.86,0.12 0.16,-1.89 0.87,-2.01 0.27,-1.77 0.71,-0.12 0.06,-2.45 -0.5,-0.11 0.06,-1.17 0.58,-0.44 -0.39,-0.33 -0.21,-1.07 0.3,-1 0.3,-0.05 0.13,-2.41 -0.13,-1.28 -0.8,-1.07 -0.34,-2.88 -2.03,-5.36 -0.94,-1.24 -1.93,-1.06 -0.87,-2.85 -1.64,-1.94 -1.58,-0.4 -0.19,0.66 -0.45,0.13 -3.19,-2.33 -0.69,-0.26 -0.67,0.28 -0.79,-1.19 -1.98,-1.4 0.01,-0.44 -0.63,-0.03 -3.59,-2.96 0.97,0.09 1.27,0.94 0.13,-0.24 -1.06,-0.77 -1.08,-0.32 -0.69,0.22 -2.27,-1.98 0.19,-0.19 -0.4,-0.5 0.38,-0.61 -1.73,-2.07 -0.94,-1.98 -0.36,1.05 -1.51,-0.7 0.31,-0.32 0.51,0.16 1.55,-1.56 0.42,-1.29 -0.82,-2.81 -0.6,0.65 -0.38,3.22 -0.56,0.49 -0.7,-0.23 -0.38,0.75 0.06,1.83 -0.45,0.05 -2.14,-1.33 -1.51,-0.26 0.21,-0.53 0.54,0.39 0.07,-0.38 -0.53,-0.2 -1.44,0.22 -0.8,0.89 -0.39,1.19 -0.63,0.28 -0.01,0.58 -0.71,0.4 -0.82,-0.26 -0.8,-0.52 -0.7,-1.41 -1.6,-0.4 -1.61,-3.69 -1.81,-1.34 -2.21,-0.57 -0.45,0.16 -0.18,0.55 -0.44,0.03 -1.28,-1.34 -1.1,-1.99 -1.08,-0.8 -1.22,-0.58 -2.02,-0.3 -0.75,0.66 -2.429998,-1.55 -0.51,0.41 -0.48,-0.26 0.06,-0.8 -0.62,-0.39 -0.53,0.11 -0.24,-0.37 -0.02,-3.52 -0.48,-1.57 -2.35,-1.91 -3.33,-1.21 -1.15,-2.25 -1.67,-1.25 -0.07,-1.02 -0.68,-0.46 -0.62,0.95 -0.77,-0.35 -0.31,-0.91 -1.03,-0.53 -0.56,0.27 -1.08,-2.81 -0.79,-0.78 0.8,-0.41 1.06,0.91 2.33,-0.22 1.52,0.23 0.36,0.5 1.37,-0.18 1.62,0.3 0.46,0.49 1.58,0.33 2.77,-0.23 0.59,0.35 2.44,-1.32 0.6,0.35 0.759998,-0.15 0.15,-0.6 -0.63,-0.04 1.1,-1.2 0.86,0.29 -0.52,2.48 0.76,1.26 1.5,1.2 1.27,0.37 1.35,1.2 -0.05,0.42 0.8,0.26 1.02,-1.07 0.06,-0.88 2.1,0.72 1.56,2.96 0.89,0.14 0.59,-1.17 -1.57,-1.62 0.12,-1.05 0.67,0.65 0.15,-0.41 -0.57,-0.45 0.27,-0.61 -0.46,-1.74 0.23,-0.9 -1.75,-1.44 -1.03,1.89 0.19,1.14 -3.18,1.21 -1.64,-1.24 0.24,-0.54 0.6,0.5 -0.74,-1.98 1.17,-1.74 -0.54,-0.48 0.21,-1.43 z" 
                fill="rgb(151, 144, 238)" 
                stroke="white" 
                stroke-width=".7px"
                title="Baja California Sur" 
                id="MX-BCS" 
            />
        </svg>