<svg xmlns="http://www.w3.org/2000/svg" viewBox="648.5278600000003 333.47244 86.43999999999983 78.73999999999995" width="86.43999999999983" height="78.73999999999995">
            <path 
                d="m 671.96786,386.93244 0.5,0.79 -0.68,0.61 -0.54,0.22 -1.06,-0.57 -0.38,0.33 0.39,0.33 -1.66,1.34 -0.54,-0.67 -0.29,0.58 -2.12,0.86 -1.09,0.1 -0.54,-0.57 0.27,-0.32 2.42,-0.39 5.32,-2.64 z m 28.7,-53.46 -0.16,7.3 4.12,0.51 0.97,2.01 0.45,0.18 1.11,-0.35 0.94,0.99 0.48,-0.09 0.4,-1.01 0.79,-0.73 0.42,0.28 1.03,1.76 -0.11,0.91 0.57,1.04 1.83,1.17 1.98,4.46 3.86,2.1 1.17,2.49 3.17,3.58 0.79,3.44 0.44,0.46 0,0 1.34,1.81 5.3,4.25 3.41,4.67 -0.18,5.85 -1.17,0.66 -0.41,0.67 0.22,2.52 -0.8,5.13 0.17,1.27 0.99,1.24 0.15,0.71 -0.51,1.37 0.82,0.46 -0.57,1.67 0.47,1.38 0.28,4.7 -0.57,1.26 -2.44,2.83 0.25,2.46 0,0 -0.02,3.33 -45.94,-0.01 0,0 0.02,-1.64 -3.98,-1.58 -0.68,0.42 -0.77,-0.9 -1.56,-0.66 -1.64,-1.55 -3.65,-0.8 -2.79,0.13 -0.3,1.3 0.34,1.82 -0.3,0.72 -1.68,0.11 -1.29,0.64 -2.21,-1.12 -1.5,0.15 -1.31,-0.66 -0.87,-1.43 -3.47,-2.33 -1.22,-1.83 -1.08,-2.59 -0.45,-0.32 0.18,-1.97 -1.11,-1.42 -0.36,-0.16 -0.08,0.42 -0.53,0.13 -0.69,-1.06 -0.99,-0.05 -1.44,-1 -0.63,-0.91 -1.14,-3.72 0,0 3.13,-0.56 9.83,-0.61 0.88,1.41 1.49,0.8 -0.6,1.18 -0.27,-0.39 -0.31,0.34 -0.96,-1.28 -0.73,0.85 -0.68,-0.42 -0.24,0.18 0.17,0.72 -0.45,0.57 0.59,0.74 1.15,-0.25 -0.45,-1.12 0.79,0.04 0.28,0.46 0.57,-0.14 1.1,0.72 0.16,0.56 6.79,1.67 1.43,-0.13 0.16,-0.7 0.73,-0.7 4.45,-1.53 0.82,-2.92 0.63,-0.32 0.35,-1.32 -0.23,-0.7 -1.1,-1 -0.92,0.72 -1.15,-0.61 -0.29,-0.98 0.61,-0.47 -0.07,-0.79 0.97,-1.04 -0.77,0.19 -0.7,1.33 -0.76,0.72 -0.52,-0.05 -0.82,0.76 -0.12,0.56 -0.63,0.03 0,-0.24 2.5,-2.57 6.81,-3.66 4.79,-3.45 4.86,-4.53 0.47,-0.93 -0.08,-1.02 0.52,-2 -0.21,-2.17 0.67,-1.8 -0.51,-0.56 -0.04,-0.64 0.93,-1.14 0.19,-1.03 3.85,-2.86 1.41,-2.48 -0.98,-2.71 0.3,-1.37 -0.41,-1.28 0.38,-0.29 -0.39,-4.48 0.3,-0.78 -0.45,-3.4 1.34,-3.56 0.44,-3.02 1.14,-1.42 z" 
                fill="rgb(151, 144, 238)" 
                stroke="white" 
                stroke-width=".7px"
                title="Campeche" 
                id="MX-CAM" 
            />
        </svg>