<svg xmlns="http://www.w3.org/2000/svg" viewBox="606.22786 408.06244 94.22000000000048 89.15000000000043" width="94.22000000000048" height="89.15000000000043">
            <path 
                d="m 607.45786,458.00244 0.18,-0.64 0,0 -0.06,-0.41 0.4,0.01 0.76,1.15 -1.28,-0.11 z m -0.37,-4.01 -0.01,-0.78 0,0 -0.12,-2.12 0.52,-1.45 -1.25,-2.93 0.08,-0.85 2.19,-6.28 2.94,-2.62 0.8,-3.49 0.76,-1.02 -0.02,-2 0.34,-0.94 0,0 0.94,-1.13 1.95,-0.86 3.72,-2.89 0,0 2.53,-3.17 0.06,-1.61 1.39,-1.87 1.2,-0.79 0.59,-1.16 0.75,-7.08 1.66,-0.28 0.54,-0.61 2.14,0.85 1.39,1.69 0.77,0.35 2.79,-0.09 -0.35,1.69 -1.42,2.12 -0.14,0.58 0.38,0.93 2.07,2.18 -0.3,1.87 0.36,0.33 1.25,-0.06 0.44,-0.35 0.54,0.2 1.21,1.94 0.04,0.66 0.66,0.87 0.81,0.31 1.91,-0.84 2.42,-2.25 5.83,-4.27 0.57,-0.83 3.29,-1.19 0.39,-0.78 -0.41,-1.75 0.12,-0.37 0.43,0.08 -0.04,-0.44 1.77,0.48 1.95,-0.03 0.71,-1.84 1.45,0.37 -0.12,0.59 0.56,0.3 0.59,-0.44 1.19,0.18 1.21,-0.28 1.06,1.36 0.05,2.01 2.56,1.26 1.27,3.3 -0.75,2.66 4.34,1.2 0.19,0.83 1.31,0.37 1.1,1.79 -0.76,0.28 -0.53,1.03 0,0 -0.65,0.06 0.57,0.98 0.76,-0.04 0.98,1.12 0.83,-0.35 0.93,0.31 -0.02,0.83 0.53,0.74 0.63,0.26 0.33,0.96 1.12,1.16 1.05,0.23 0.3,1.03 1.38,1.37 0.11,0.64 1.34,0.4 0.53,0.62 0.27,-0.29 1.1,0.44 0.24,0.85 1.03,0 0.88,0.72 1.13,-0.08 0.04,0.55 2.14,1.25 1.38,2.18 0.35,3.22 0.82,-0.1 0.11,0.55 -0.67,0.23 0.23,0.4 0.76,-0.34 0.36,0.51 0.88,-0.31 0.57,0.63 0.57,-0.28 0.53,0.66 -0.15,0.49 1.71,0 0.38,0.59 0.12,0.58 -0.36,0.35 0.34,0.53 -0.33,0.88 -0.54,0.04 -0.18,0.64 0.36,0.35 -0.77,1.62 0.8,1.06 -0.67,0.44 0.56,0.29 -0.02,0.41 -0.64,-0.05 0.27,1.36 -32.14,-0.27 -12.25,21.07 3.87,5 -1,1.6 -0.85,-0.09 -0.35,0.72 0.13,2.49 -1.05,1.38 0.92,4.29 -0.73,1.17 -0.38,1.54 -0.86,0.71 -4.46,-4.06 -10.99,-11.58 -0.1,-0.85 -0.8,-0.19 -11.16,-10.52 -5.44,-4.29 -6.08,-4.22 -3.82,-1.84 0.28,-0.4 0.75,-0.06 0.29,0.61 0.63,-0.27 0.14,-0.48 -1.12,-1.84 -4.66,-1.01 -0.73,-0.91 -0.22,-1.31 z" 
                fill="rgb(151, 144, 238)" 
                stroke="white" 
                stroke-width=".7px"
                title="Chiapas" 
                id="MX-CHP" 
            />
        </svg>