<svg xmlns="http://www.w3.org/2000/svg" viewBox="233.94786000000005 27.78243800000021 141.29999999999995 176.030002" width="141.29999999999995" height="176.030002">
            <path 
                d="m 375.24786,107.48244 -2.26,4.16 0.02,0.35 1.71,0.61 0.01,1.04 -0.66,0.98 -0.84,-0.32 -0.7,0.34 -1.73,4.01 -1.41,1.11 -1.64,0.61 -2.27,3.78 -0.56,1.1 0.87,1.42 -0.94,1.38 -2.66,6.81 -0.6,0.38 -1.77,-0.71 -0.01,1.55 1.12,0.18 0.49,1.46 -0.34,0.48 -1.9,0.38 0.76,1.44 -0.06,0.83 -0.57,0.82 0.72,0.78 0.14,0.72 -1.09,1.16 0.81,4.52 1.13,0.5 0.24,0.83 0.09,1.06 -0.48,1.14 0.68,3.68 0.22,4.82 0.54,0.68 1.83,0.79 -0.41,1.54 -1.15,0.04 -1.07,1 -1.92,0.91 0.44,0.8 -0.1,1.31 2.15,1.9 1.08,1.83 0,0 -1.1,0.24 -1.15,-0.86 -0.51,0.68 -0.28,-0.17 0.44,-0.72 -0.79,-0.12 -3.21,1.05 -1.51,-0.57 -0.88,0.81 -1.43,-0.28 -0.68,-1 -1.43,-0.24 -1.38,-0.89 -0.73,0.32 -0.31,0.74 0.48,0.66 1.54,0.12 -0.07,1 -2.5,0.39 -1.15,1.52 -1.51,0.54 -1.89,3.08 0.24,1.34 -0.25,0.77 -0.44,0.24 -1.71,-0.2 -1.74,0.91 -0.98,-0.21 -1.72,-1.19 -1.95,-1.89 -2.54,0.24 -1.22,-0.33 -0.74,-0.68 -0.54,-0.04 -0.01,1.08 -1.6,0.7 -0.52,0.58 -0.57,0.09 -0.41,-0.54 -1.68,0.96 -0.23,-0.6 -1.56,-0.47 -1.27,0.25 -1.1,-1.89 -1.64,0.29 -0.76,-1.09 -0.98,0 -1.58,-1.36 -1.94,-0.23 -0.28,-0.58 -1.26,-0.71 -0.96,-1.94 -1.06,-0.23 -1.91,-1.23 -1.27,-0.06 -0.67,-0.89 -0.77,0.54 -0.21,1.29 -1.76,0.57 0.05,1.84 -0.63,0.47 -0.9,3.39 0.03,1.6 -0.9,1.53 0.15,0.46 1.12,0.5 -0.03,1.07 -0.33,0.58 -1.98,0.87 -0.86,0.87 0,1.36 -1,-0.16 -0.41,0.36 0.36,2.14 -0.92,0.26 -1.72,3.99 0.97,1.56 0.61,1.9 -2.12,3.42 -3.53,2.72 -1.23,1.61 -0.64,-0.28 -0.67,-1.21 -2.01,-0.33 -0.52,-0.86 -1.6,0.22 -1.08,-0.66 -0.31,-1.32 -2.31,0.78 -0.32,0.65 0,0 -2.14,-2.79 -0.59,-3.23 -2.89,-4.89 -2.36,-0.69 -3.19,-0.31 -3.81,-1.13 -1.22,-4.68 -3.11,-5.02 -0.07,-1.88 -1.42,-0.92 -0.32,-1.09 0.49,-2 -0.49,-0.82 0.4,-2.27 -1.06,-2.33 -1.22,0.25 -0.61,-0.24 -0.12,-2.9 -0.68,-0.38 -4.89,0.22 0,0 -1.76,-0.39 -2.02,0.62 -3.54,-1.84 0.02,-0.46 0.73,-0.42 -0.48,-3.44 1.25,-3.14 -0.04,-1.72 -1.63,-4.07 -0.97,-1.43 -0.63,-2.09 -2.81,-1.7 -0.52,-0.65 0.7,-2.45 -0.38,-1.66 -2.09,-2.98 -1.82,-0.74 -0.39,-0.69 0.59,-2.76 -1.56,-1.07 -0.19,-0.61 1.04,-1.39 2.53,-0.49 1.45,-0.85 0.77,0.14 1.77,1.31 0.5,-0.03 1.41,-1.05 1.14,-0.12 0.97,-1.22 0.93,-0.09 0.6,-1.19 -2.25,-0.86 -1.55,-1.81 0.42,-2.9 -0.83,-1.95 0.19,-1.04 1.48,-2.62 -0.8,-2.65 0.84,-1.28 -0.46,-2.55 1.49,-1.26 0.1,-2.69 1.38,-0.67 0.29,-0.51 -0.26,-5.670002 0.16,-0.9 0.8,-0.95 0.01,-2.6 -0.66,-6.22 -0.75,-0.96 -0.57,-0.02 -0.34,-1 0.59,-4.93 1.27,-2.57 0,-1.11 -1.45,-1.33 -0.16,-0.99 0.85,-0.52 0.28,-1.82 -1.94,-6.15 0.06,-1.19 -1.1,-1.46 -0.11,-0.81 0.67,-1.61 -1.04,-0.93 -0.09,-2.42 -2.73,-2.65 0.04,-0.61 1.57,-0.08 -0.02,-1.81 0.49,-1.27 -0.24,-1.6 -1.64,-2.84 -0.52,-1.92 0.94,-1.28 -1.05,-1.04 0,0 14.1,-0.04 0,-13.16 42.05,0 1,1.07 1.59,-0.13 1.01,0.56 0.87,1.03 1.75,4.03 0.76,0.41 1.13,2.37 3.2,1.96 1.81,0.18 1.25,0.8 0.59,1.48 0.57,-0.01 0.37,0.66 0.52,0 2.18,2.66 0.25,0.84 1.28,0.45 0.41,0.57 1.5,0.59 1.16,1 1.21,2.71 1.2,0.58 0.36,0.76 1.87,1.18 0.55,0.9 -0.17,0.47 0.98,0.16 1.46,1.01 0.28,-0.37 0.91,0.87 0.89,-0.25 0.21,0.62 0.4,-0.23 0.56,0.66 0.42,0.01 -0.11,0.44 1.2,0.19 0.8,1.35 0.85,0.53 0.91,-0.14 0.57,0.73 0.25,1.3 1.15,0.43 0.85,1.02 0.76,2.12 0.02,1.46 0.46,0.75 -0.19,0.85 1.11,0.73 -0.22,0.33 1.52,1.59 -0.08,0.53 1.36,1.1 0.46,1.59 -0.16,1.5 0.28,1 -0.49,2.07 0.36,0.21 -0.04,1.08 0.43,0.73 -0.31,0.41 0.27,1.07 1.08,0.93 1.14,1.91 1.31,3.91 3.45,2.74 0.4,0.83 1.13,0.62 0.53,-0.33 1.97,1 0.12,0.44 0.57,0.18 -0.12,0.63 1.22,1.72 1.44,0.56 1.39,1.31 1.97,0.9 3.01,0.420002 1.38,0.64 0.4,-0.16 0.22,1.28 0.4,-0.29 1,1.39 1.47,0.31 0.26,0.39 2.34,-0.02 2.11,2.09 -0.11,0.48 0.6,-0.07 0.49,0.75 z" 
                fill="rgb(151, 144, 238)" 
                stroke="white" 
                stroke-width=".7px"
                title="Chihuahua" 
                id="MX-CHH" 
            />
        </svg>