<svg xmlns="http://www.w3.org/2000/svg" viewBox="359.07785999999993 83.07243799999983 104.8300000000001 150.12000200000014" width="104.8300000000001" height="150.12000200000014">
            <path 
                d="m 463.90786,143.13244 -0.26,0.61 -1.09,0.79 -0.95,0.06 -1.92,1.3 -5.52,-0.92 -3.67,0.26 -1.13,0.63 -0.55,2.34 -1.69,2.6 -0.29,0.79 0.16,2.29 -0.63,0.49 -2.23,-0.12 -2.1,0.92 -1.19,-0.38 -1.19,1.04 -1.83,2.98 0.25,3.34 2.82,2.07 0.59,-0.05 0.7,-3.12 0.63,0.07 2.05,1.48 0.42,5.13 -0.84,2.24 -1.05,0.77 -1.14,2.19 -3.2,-0.04 -2.61,1.7 -3.51,0.28 -0.87,0.9 -1.04,2.73 -2.42,2.42 0.02,1.3 4.54,4.78 2.7,2.02 1.05,3.11 1.42,1.15 0.86,0.08 0.38,0.64 -0.99,2.9 0.24,2.47 0.84,1.78 1.11,0.14 0.84,0.66 2.13,0.08 0.35,0.36 0.56,3.41 0.82,0.85 3.28,1.88 -0.51,1.05 3.6,0.63 0.5,0.8 0.88,0.32 0.39,0.95 -0.75,0.89 -0.15,1.15 -0.34,0.2 -1.94,-0.03 -3.41,-0.88 -1.31,-1.53 -1.74,-0.17 -0.94,0.31 0.29,0.81 -1.79,0.57 -1.7,3.22 0.89,2.93 0.09,2.16 -0.2,0.39 -2.41,0.06 -0.16,0.37 0.29,0.83 -0.32,1.2 1.38,1.55 0.11,1.39 0.65,1.23 -1,3.26 0,0 -2.12,-0.47 -0.75,0.32 -0.18,0.78 -1.44,0.37 -2.09,-0.81 -1.37,-1.3 -1.92,-3.76 -1.25,-0.82 -2.96,-0.37 -2.27,0.51 -0.92,0.88 -2.83,-0.02 -0.62,-3.56 -1.16,-0.32 -1.47,0.41 -2.16,-3.07 -1.96,-1.66 -2.5,-0.97 -2.54,-1.71 -9.4,-0.61 -5.4,1.07 -0.63,0.53 -0.02,1.63 0,0 -3.05,2.03 -0.58,1.01 -0.51,2.14 0.5,1.72 -0.28,0.52 -0.69,0.21 -2.1,-1.35 -2.78,-0.16 -3.42,-1.59 -1.3,-1.2 -0.62,-0.86 -0.54,-3.12 -2.43,-1.93 -0.6,-1.74 -1.77,-2.12 -0.63,-3.15 1.36,-1.36 2.26,-0.45 -0.8,-1.23 -1.34,-0.26 -0.67,-0.82 0.09,-0.86 1.4,-2.15 1.06,-0.81 1.2,-3.11 -1.2,-4.47 -0.18,-1.99 0.41,-2.28 -1.68,-3.95 -0.17,-1.39 0.44,-2.93 -1.38,-3.97 -2.3,-2.13 -0.82,-1.21 -1.22,-1.18 -2.98,-0.79 -0.72,-0.63 0,0 -1.08,-1.83 -2.15,-1.9 0.1,-1.31 -0.44,-0.8 1.92,-0.91 1.07,-1 1.15,-0.04 0.41,-1.54 -1.83,-0.79 -0.54,-0.68 -0.22,-4.82 -0.68,-3.68 0.48,-1.14 -0.09,-1.06 -0.24,-0.83 -1.13,-0.5 -0.81,-4.52 1.09,-1.16 -0.14,-0.72 -0.72,-0.78 0.57,-0.82 0.06,-0.83 -0.76,-1.44 1.9,-0.38 0.34,-0.48 -0.49,-1.46 -1.12,-0.18 0.01,-1.55 1.77,0.71 0.6,-0.38 2.66,-6.81 0.94,-1.38 -0.87,-1.42 0.56,-1.1 2.27,-3.78 1.64,-0.61 1.41,-1.11 1.73,-4.01 0.7,-0.34 0.84,0.32 0.66,-0.98 -0.01,-1.04 -1.71,-0.61 -0.02,-0.35 2.26,-4.16 0,0 0.69,0.07 0.27,-0.63 0.42,0.08 -0.26,0.57 1.36,0.71 0.1,0.51 0.44,-0.45 0.34,0.4 1.61,-0.11 0.85,0.38 0.89,-0.36 0.51,-2.25 0.27,0.2 0.29,-1.06 0.82,-0.11 1.09,-1.72 0.02,-0.59 0.62,-0.25 0.37,0.29 0.99,-0.47 0.17,-0.71 0.63,0.22 0.46,-0.35 -0.2,-0.65 -0.8,-0.45 0.43,-0.810002 0.17,-1.76 1.03,-0.22 -0.08,-0.33 0.71,-0.91 -0.38,-0.25 0.05,-0.9 0.7,-1.25 -0.13,-1.05 0.74,-0.6 0.32,-1.55 0.54,0.13 0.07,-1.24 1.18,-1.1 -0.12,-0.42 0.69,-1.56 1.11,0.23 1.38,-0.59 0.63,0.32 0.86,-0.59 -0.08,-0.5 2.68,0.52 0.7,-0.64 0.41,-1.62 1.08,-0.99 1.4,0.32 0.01,0.39 2.13,0.35 1.61,1.42 1.4,0.17 0.5,-0.14 0.02,-0.33 1.03,-0.13 1.58,0.23 0.27,0.4 0.45,-0.39 2.05,-0.32 0.47,0.29 -0.06,0.54 0.78,-0.25 1.68,0.75 0.43,-0.19 0.37,0.32 0.41,-0.29 0.28,0.4 1.91,-0.56 0.08,-0.56 0.61,-0.5 0.19,1.49 1.98,-0.84 0.2,1.05 1.06,-0.53 0.23,0.21 -0.41,0.31 0.38,1.02 0.55,0.4 0.33,1.42 1.2,-0.21 0.38,0.59 -0.28,1.53 0.61,0.44 0.23,-1.33 0.31,-0.35 0.46,0.14 0.15,1.62 -0.49,1.07 0.3,0.34 1.91,0.18 0.56,1.05 2.21,0.49 1.3,2.52 1.64,0.75 1.43,1.03 0.3,0.800002 1.97,1.01 0.76,1.68 -0.24,0.42 2.38,1.79 0.4,0.88 0.35,3.74 0.46,1.22 0.74,0.07 0.66,2.01 0.68,0.11 0.34,0.61 0.1,1.32 0.61,0.6 0.19,2.13 1.31,0.64 0.02,0.81 1.25,0.77 -0.37,1.12 0.64,0.85 1.24,0.37 -0.12,0.41 -0.65,0.17 0.69,0.94 -0.23,1.37 1.5,2.4 -0.04,1.08 0.97,1.12 0.76,0.09 0.3,1.1 3.14,1.37 0.88,1.8 0.81,0.46 0.19,1.02 0.82,1.19 0.91,0.12 -0.02,1.09 1,1.01 -0.18,1.02 0.71,1.06 0,1.06 0.67,0.11 z" 
                fill="rgb(151, 144, 238)" 
                stroke="white" 
                stroke-width=".7px"
                title="Coahuila" 
                id="MX-COA" 
            />
        </svg>