<svg xmlns="http://www.w3.org/2000/svg" viewBox="342.30785999999995 366.34244 30.38000000000011 22.75" width="30.38000000000011" height="22.75">
            <path 
                d="m 372.56786,382.21244 -2.47,2.24 -1.02,-0.31 -0.38,0.28 0.03,1.79 -1.86,1.18 -0.68,1.7 0,0 -5.51,-4.36 -5.18,-2.77 -4.02,-1.36 0.14,-0.84 0.46,-0.05 0.15,-0.62 -0.45,-0.52 -1.1,-0.6 -1.84,0.94 -0.25,-0.63 -1.75,-0.74 -4.53,-1.21 0.33,-0.44 0.62,0.41 0.18,-0.26 -0.59,-0.22 0,0 1.92,0.05 1.48,-1.79 1.14,0.48 0.56,-0.11 0.48,-0.84 0.87,-0.58 0.55,0.4 3.77,-0.88 1.27,0.38 1.13,-0.29 3.1,-2.32 3.25,0.32 1.41,-0.21 3.22,-1.68 2.51,-2.41 0.61,0.13 0.48,2.89 -0.16,1.02 0.97,0.83 0.21,0.78 1.07,0.48 -0.5,1.8 0.07,3.12 -0.56,1.32 0.82,1.54 z" 
                fill="rgb(151, 144, 238)" 
                stroke="white" 
                stroke-width=".7px"
                title="Colima" 
                id="MX-COL" 
            />
        </svg>