<svg xmlns="http://www.w3.org/2000/svg" viewBox="278.0278600000002 169.07244 118.41999999999985 124.21999999999989" width="118.41999999999985" height="124.21999999999989">
            <path 
                d="m 280.78786,200.80244 0.32,-0.65 2.31,-0.78 0.31,1.32 1.08,0.66 1.6,-0.22 0.52,0.86 2.01,0.33 0.67,1.21 0.64,0.28 1.23,-1.61 3.53,-2.72 2.12,-3.42 -0.61,-1.9 -0.97,-1.56 1.72,-3.99 0.92,-0.26 -0.36,-2.14 0.41,-0.36 1,0.16 0,-1.36 0.86,-0.87 1.98,-0.87 0.33,-0.58 0.03,-1.07 -1.12,-0.5 -0.15,-0.46 0.9,-1.53 -0.03,-1.6 0.9,-3.39 0.63,-0.47 -0.05,-1.84 1.76,-0.57 0.21,-1.29 0.77,-0.54 0.67,0.89 1.27,0.06 1.91,1.23 1.06,0.23 0.96,1.94 1.26,0.71 0.28,0.58 1.94,0.23 1.58,1.36 0.98,0 0.76,1.09 1.64,-0.29 1.1,1.89 1.27,-0.25 1.56,0.47 0.23,0.6 1.68,-0.96 0.41,0.54 0.57,-0.09 0.52,-0.58 1.6,-0.7 0.01,-1.08 0.54,0.04 0.74,0.68 1.22,0.33 2.54,-0.24 1.95,1.89 1.72,1.19 0.98,0.21 1.74,-0.91 1.71,0.2 0.44,-0.24 0.25,-0.77 -0.24,-1.34 1.89,-3.08 1.51,-0.54 1.15,-1.52 2.5,-0.39 0.07,-1 -1.54,-0.12 -0.48,-0.66 0.31,-0.74 0.73,-0.32 1.38,0.89 1.43,0.24 0.68,1 1.43,0.28 0.88,-0.81 1.51,0.57 3.21,-1.05 0.79,0.12 -0.44,0.72 0.28,0.17 0.51,-0.68 1.15,0.86 1.1,-0.24 0,0 0.72,0.63 2.98,0.79 1.22,1.18 0.82,1.21 2.3,2.13 1.38,3.97 -0.44,2.93 0.17,1.39 1.68,3.95 -0.41,2.28 0.18,1.99 1.2,4.47 -1.2,3.11 -1.06,0.81 -1.4,2.15 -0.09,0.86 0.67,0.82 1.34,0.26 0.8,1.23 -2.26,0.45 -1.36,1.36 0.63,3.15 1.77,2.12 0.6,1.74 2.43,1.93 0.54,3.12 0.62,0.86 1.3,1.2 3.42,1.59 2.78,0.16 2.1,1.35 0.69,-0.21 0.28,-0.52 -0.5,-1.72 0.51,-2.14 0.58,-1.01 3.05,-2.03 0,0 0.35,0.52 0.04,1.65 0.75,0.34 0.36,1.1 1.53,0.71 0.8,0.94 -0.81,4.9 1.21,0.45 1.02,4 -0.97,0.52 -0.02,0.41 0.5,0.37 -0.12,0.68 -6.07,0.58 -1.68,-0.23 -0.76,0.91 -2.66,-0.87 -1,-0.7 -1.12,-0.1 -2.25,0.8 -2.23,-0.7 -3.9,-0.27 -1.71,1.37 -0.47,1.34 -2.4,1.82 -2.07,2.83 -2.26,2.14 -2.4,0.72 -0.23,1.32 0.78,0.51 0.37,1.65 -0.31,1.68 0.37,1.89 -0.45,1.2 0.89,4.27 -2.8,2.42 -2.32,2.89 -0.09,1.88 -1.29,5.77 -0.61,0.37 -1.37,2.73 -0.08,1.28 0.85,3.09 -0.16,5.55 -0.25,0.63 -3.21,1.42 -1.01,1.51 -1.16,3.05 0,0 -2.94,1.3 -0.4,1.38 -0.48,0.03 -1.82,-1.11 -0.95,-2.07 -2.49,-2.39 -1.71,-0.43 -1.39,-1.76 -1.35,2.56 -0.81,0.85 -0.69,-0.03 -2.2,-4.58 1.69,-1.76 1.7,-0.87 0.6,-0.89 -0.12,-1.24 -1.15,0.03 -0.52,-0.37 -0.58,-2.46 -2.09,-0.16 -1.33,-0.6 -1.53,-1.75 -0.54,-0.03 -0.91,1.31 -1.68,0.35 -2.2,-2.64 0,0 -2.12,-2.18 -0.6,-0.06 -0.85,0.6 -2.04,-0.15 -0.61,-1.28 -0.13,-2.26 -1.22,-1.34 -0.74,-1.74 0.27,-0.93 -1.05,-2.92 -0.44,-2.81 -1.72,-1.65 -0.9,-1.98 -1.08,-1.21 -0.63,-2.95 -0.71,-1.06 -0.79,-2.59 0.26,-0.9 -1.03,-0.93 -0.09,-2.2 -1.74,-2.27 -0.14,-1.07 -1.08,-0.26 -0.89,-1.38 -1.45,-0.96 -4.04,-1.17 -0.67,1.04 -2.79,2.12 -1.33,0.19 -0.69,0.55 -0.7,-0.49 -0.84,0.18 -0.59,-1.96 -0.98,-1.41 -0.81,-4.12 -0.2,-0.25 -0.57,0.42 -0.57,-0.2 -1.21,-4.47 -1.32,-0.31 -0.89,-2.61 -2.3,-0.22 -0.53,0.44 -1.2,-0.96 0.33,-1.44 -1.2,-2.38 -0.75,-0.65 -0.48,-1.82 -1.01,-0.61 0.51,-1.96 0.09,-5.12 1.33,-3.21 -0.08,-0.68 -0.47,0.08 -0.6,-0.72 1.73,-2.22 1.19,-0.77 -0.15,-0.73 -0.73,0.16 z" 
                fill="rgb(151, 144, 238)" 
                stroke="white" 
                stroke-width=".7px"
                title="Durango" 
                id="MX-DUR" 
            />
        </svg>