<svg xmlns="http://www.w3.org/2000/svg" viewBox="406.6678599999999 305.2624399999999 60.500000000000114 51.79000000000008" width="60.500000000000114" height="51.79000000000008">
            <path 
                d="m 465.44786,314.42244 0.5,0.49 -0.11,2.06 -1.15,1.91 2.48,0.61 -0.04,1.17 -0.71,1.44 -1.45,0.67 -0.56,1.03 -1.1,0.17 -1.73,-1.75 -1.52,0.56 -2.25,3.34 0.1,1.45 -0.67,1.6 -0.82,-0.48 -0.22,1.1 -0.66,0.4 -2.72,-0.38 -1.5,0.71 -4.58,0.28 -0.72,1.41 -0.65,3.8 0.14,0.76 0.96,0.71 0.65,1.74 -0.01,2.71 1.09,1.86 2.02,1.41 0.72,1.67 0,0 -0.43,1.09 0.6,1.18 0.1,1.32 -0.51,1.75 0.67,0.05 -0.08,0.99 -1.18,1.15 -2.06,0.28 -0.73,0.79 -0.48,1.4 -0.62,0.18 0.33,-1.5 -0.5,-0.24 -1.94,0.48 -1.38,1.02 -3.44,-0.17 -2.58,-0.91 -1.3,-0.14 -0.61,0.29 -0.26,-0.1 0.21,-0.47 -0.46,-2.34 -2.21,0.6 -1.39,-0.44 -0.66,0.58 0.33,0.82 -1.22,0.52 -1.8,-0.74 -2.54,-0.24 -0.47,-0.5 -0.02,-3.24 -0.45,-1.73 1.04,0.52 0.63,-0.27 -1.34,-1.8 -1.09,-0.75 -1.43,0.24 -0.63,-0.39 -2.1,0.69 -2.01,2.8 -0.91,-0.3 -2.21,0.14 -0.48,-0.43 -1.18,0.7 -0.81,-0.09 -0.44,-0.45 -0.68,-2.85 0.36,-0.4 -0.57,-0.49 -0.55,0.07 -0.33,-0.54 -0.86,-0.05 0,0 0.38,-2.77 1.79,-3.43 -1.57,-2.87 -1.65,-0.43 -0.55,-1.31 2.01,-1.96 0.12,-0.83 1.81,-1.5 1.91,-3.95 2.49,-1.91 1.12,-2.71 -0.11,-0.65 0.52,-0.74 1.47,-0.09 0.43,-0.37 0.67,-1.37 -0.81,-0.47 0.58,-2.19 -0.7,-0.12 1.52,-5.53 -0.12,-0.7 1.2,-1.36 -0.74,-0.83 1.22,-1.29 0,0 0.97,0.63 0.81,-0.94 0,0 1.16,0.67 2.91,0.31 1.26,0.73 4.63,1.06 1.23,0.75 1.07,-0.04 4.97,3.72 2.74,1.43 2.75,-0.03 1.52,-0.61 -0.15,-1.12 0.62,-1.83 1.08,-0.73 3.89,1.28 3.15,2 0.27,0.69 0.48,-0.09 1.7,2.13 1.81,-0.17 0.39,-0.54 0.68,0.84 1.61,0.04 z" 
                fill="rgb(151, 144, 238)" 
                stroke="white" 
                stroke-width=".7px"
                title="Guanajuato" 
                id="MX-GUA" 
            />
        </svg>