<svg xmlns="http://www.w3.org/2000/svg" viewBox="405.41786000000013 379.54244 104.10000000000008 71.61000000000001" width="104.10000000000008" height="71.61000000000001">
            <path 
                d="m 449.47786,379.54244 0.3,2.94 -1.05,1.92 -0.74,4.23 0.37,1.6 1.75,0.76 0.1,1.19 -0.25,0.72 -1.66,1.81 0.65,0.66 1.33,-0.27 1.51,0.33 0.22,1.08 1.57,1.96 0.04,-0.43 0.62,0.03 0.34,-0.39 0.19,0.37 1.98,-2.18 2.47,-0.58 -0.69,-1.38 0.35,-0.6 1.02,-0.49 0.79,0.43 3.51,-0.23 0.29,-0.58 0.88,-0.42 0.85,0.29 0.44,-1.56 1.76,-0.32 -0.36,-1.72 0.81,-0.05 0.91,1.08 1.98,0.67 0.82,-0.49 0.81,0.13 0,0 0.51,0.84 -0.65,1.12 0.44,0.35 1.08,-0.23 1.12,0.46 2.02,2.67 5.51,0.7 2.3,2.33 0,0 -0.05,1.23 1.35,1.18 1.34,0.62 1.22,2.25 2.99,-0.2 0.22,0.8 -0.83,0.97 4.21,1.78 0.12,1.07 1.4,-0.3 0.47,0.27 0.86,-0.86 1.55,-0.14 1.61,1.98 1.61,0.8 0,0 -1.74,3.95 -0.17,1.41 2.73,6.06 0.6,4.58 -0.92,0.83 -0.18,2.06 0.56,0.52 2.3,0.78 0.45,1.17 -0.11,1.91 0.27,0.59 1.16,0.25 0.42,0.54 0.36,1.56 -0.92,2.88 -0.91,0.92 -1.22,0.23 -0.93,0.67 -0.18,1.35 -4.11,3.59 -0.46,2.02 -4.64,3.54 0,0 -3.56,-3.61 -1.93,-2.51 -1.69,0.16 -0.33,0.56 -1.28,-0.19 -10.62,-3.2 -3.11,-0.65 -4,-0.04 -1.63,-0.53 -2.08,-1.09 -1.81,-1.48 -0.99,-0.26 0.62,-0.64 -0.23,-0.44 -0.98,0.04 0.19,0.43 -0.57,0.25 -1.11,-1.73 -0.88,-0.44 -26.59,-9.48 0.13,-0.58 -0.51,-0.64 -2.49,-1.75 -0.76,-0.98 -6.24,-2.63 0.23,-0.84 -0.91,-1.08 -0.81,-0.57 -2.18,-0.28 -0.1,-0.54 -1.05,-0.38 -0.76,-1.89 -1.86,-1.33 -1.37,-2.35 -3.81,-2.12 -2.2,-0.68 -1.37,0.18 -0.74,0.82 -0.53,-0.32 0,0 -0.82,-1.26 0.11,-3.93 0.76,-0.63 2.64,-0.82 0.86,0.25 1.46,-0.64 0.76,-0.77 1.62,0.37 0.82,-0.28 0.18,-0.32 -1.84,0.03 0.33,-0.9 -0.11,-1.23 -0.65,-1.41 0.58,-1.1 -0.63,-1.23 0.13,-0.34 0.64,-0.03 -0.47,-0.79 0.68,-0.39 0.62,0.14 -0.21,-0.46 0.56,-0.11 0.53,0.82 0.48,-0.77 -0.33,-0.41 1.06,-0.33 0.06,1.05 0.6,-0.38 0.29,0.38 0.15,-0.67 0.67,-0.24 1.13,0.03 1.21,1.9 2,0.91 3.46,-0.51 0.21,-0.46 2.03,-0.46 1.72,0.04 0.47,0.49 2.03,0.47 1.57,-0.19 1.13,0.28 1.18,1.66 0.08,0.82 0.64,0.13 1.42,-1.1 0.62,0.57 1.44,0.23 0.4,0.79 1.49,0.85 0.34,-0.42 0.4,0.3 0.27,1.06 0.81,-0.03 0.77,-1.01 -2.83,-3.79 -0.3,-3.14 -1.22,-4.24 0.47,-1.03 1.1,-0.85 0.42,0.04 0.57,1.57 2.44,-2.92 0.93,-0.53 1.09,-2.45 2.22,-1.41 z m 4.64,18.75 0.07,0.32 0.38,-0.34 -0.45,0.02 z" 
                fill="rgb(151, 144, 238)" 
                stroke="white" 
                stroke-width=".7px"
                title="Guerrero" 
                id="MX-GRO" 
            />
        </svg>