<svg xmlns="http://www.w3.org/2000/svg" viewBox="463.42786 317.17244000000005 48.24000000000001 49.449999999999875" width="48.24000000000001" height="49.449999999999875">
            <path 
                d="m 496.62786,317.19244 0.84,0.17 0.3,0.75 -0.3,2.66 1.83,1.71 1.26,0.66 1.31,0.07 0.86,-0.9 2.03,0.62 2.53,3.42 -1.86,2.46 -0.63,2.21 0.56,1.06 -0.26,0.63 -1.45,0.23 -1.34,-1.39 -0.46,0 -2.39,2.16 -0.32,0.86 -0.65,0.54 -0.33,3.66 -0.58,1.3 -0.25,2.08 1.17,2.59 0.88,1.08 0.5,-0.22 1.33,-1.55 2.48,-1.16 1.88,-2.23 1.6,-0.73 2.14,-2.33 0.83,-0.35 1.46,0.95 0,0 0.07,3 -2.86,2.52 -0.91,1.38 -3.62,1.85 0.7,1.41 2.12,-0.48 0.46,2.19 -0.81,4.8 -1.54,3.08 0.7,4.73 0,0 -2.38,-0.5 -0.82,1.47 -1.45,1.21 -2.09,0.28 -1,-0.23 -5.01,1.71 0,0 -0.2,-1.41 1.84,-4.15 -0.17,-1.74 -5.81,0.61 -1.72,2.58 -0.24,0.21 -0.65,-0.32 0.02,-0.9 -0.87,-1.77 0.2,-0.52 0.91,-0.53 0.85,-0.08 1.11,-4.28 -0.47,-1.34 -0.6,-0.07 -2.73,1.39 -3.88,1.07 -0.53,3.75 -0.69,0.76 -2.13,-1.01 -0.17,2.24 -1.21,0.99 0.1,-2.49 -0.4,-1.34 -0.69,-0.65 -0.34,-1.25 -1.22,-1.26 0.7,-0.99 -1.51,-3.13 -0.64,-0.25 -0.13,-0.58 -4.65,-0.69 -2.63,-1.49 -1.18,-1.39 0,0 1.01,-6.54 1.58,-0.49 0.91,-0.68 2.93,-0.72 2.32,-1.61 -0.63,-2.02 1.15,-2.56 1.16,-0.42 0.81,-1.2 0.47,-2.21 0.83,-1.56 -0.27,-1.11 1.65,-1.43 1.21,0.71 4.11,-1.29 1.28,-3.13 0,0 2.26,-0.75 1.14,2.4 1.34,1.1 1.08,-0.04 1.35,-2.38 0.92,1.31 1.33,-2.96 1.58,-1.84 z" 
                fill="rgb(151, 144, 238)" 
                stroke="white" 
                stroke-width=".7px"
                title="Hidalgo" 
                id="MX-HID" 
            />
        </svg>