<svg xmlns="http://www.w3.org/2000/svg" viewBox="317.4378599999999 283.48243999999966 103.8200000000001 98.78000000000014" width="103.8200000000001" height="98.78000000000014">
            <path 
                d="m 390.52786,309.79244 2.05,-1.12 4.21,0.38 1.74,1.41 2.17,1.02 1.26,-0.06 3.02,-1.04 0.72,-0.5 2.55,-3.55 4.28,-1.97 -1.96,-2.14 0.24,-1.6 -0.26,-0.59 0,0 3.54,0.91 2.13,1.14 2.67,2.35 2.09,0.75 0.28,0.39 0,0 -1.22,1.29 0.74,0.83 -1.2,1.36 0.12,0.7 -1.52,5.53 0.7,0.12 -0.58,2.19 0.81,0.47 -0.67,1.37 -0.43,0.37 -1.47,0.09 -0.52,0.74 0.11,0.65 -1.12,2.71 -2.49,1.91 -1.91,3.95 -1.81,1.5 -0.12,0.83 -2.01,1.96 0.55,1.31 1.65,0.43 1.57,2.87 -1.79,3.43 -0.38,2.77 0,0 -2.8,0.01 -2.14,1.04 -1.71,-0.17 -1.33,0.46 -1.68,-0.13 -1.07,0.34 -2.06,1.64 -1.06,-0.08 -1.01,1.05 -0.94,0.33 -0.28,1.43 -2.97,0.73 -0.23,0.81 -0.44,0.04 -1.05,-1.3 -2.47,-0.45 -0.3,1.15 -0.93,-0.2 -0.36,0.27 -0.02,2.35 -0.89,1.51 0.5,0.84 0.5,0.05 0.45,-0.56 2.27,0.28 3.21,0.94 0.66,0.64 0.61,2.21 -0.33,0.81 -0.93,0.74 1.91,4.2 -0.63,2.59 3.36,-0.07 0.61,0.68 0.06,1.56 -2.36,2.5 -0.85,2.31 -2.31,-0.58 -1.37,0.72 -4.02,3.58 -2.2,1.21 -1.59,1.74 -0.29,0.09 -1.26,-1.76 -0.53,-0.1 -2.22,1.7 -1.55,-0.3 -1.66,0.41 0,0 -0.05,-1.96 -0.82,-1.54 0.56,-1.32 -0.07,-3.12 0.5,-1.8 -1.07,-0.48 -0.21,-0.78 -0.97,-0.83 0.16,-1.02 -0.48,-2.89 -0.61,-0.13 -2.51,2.41 -3.22,1.68 -1.41,0.21 -3.25,-0.32 -3.1,2.32 -1.13,0.29 -1.27,-0.38 -3.77,0.88 -0.55,-0.4 -0.87,0.58 -0.48,0.84 -0.56,0.11 -1.14,-0.48 -1.48,1.79 -1.92,-0.05 0,0 -0.56,-0.53 -0.63,0.09 -0.08,-0.51 -0.66,0.26 -0.49,-0.3 -0.85,0.13 0.01,-0.64 0.51,-0.55 -0.13,-0.46 -0.89,-0.29 -0.23,0.43 -0.93,0.19 -2,-1.07 -1.89,-1.72 0.36,-0.72 -0.37,-0.73 -0.84,-0.47 0.09,-0.85 -0.45,-0.22 -0.22,-1.49 -0.76,-0.74 -0.84,-0.03 0.04,-0.36 -2.83,-2.11 -0.26,-0.73 -1.43,-1.51 -0.4,-1.11 -3.92,-5.33 -1.12,-2.32 0.21,-2.21 -0.34,-1.22 -0.68,-0.24 -0.13,-0.6 -2.24,-2.34 -0.46,-1.65 1.05,-0.51 0.95,-1.13 7.41,-1.16 1.5,-1.1 0.66,-1.61 -0.31,-0.97 -1.28,-1.06 0,0 4.45,-5.62 1.17,-0.45 2.33,0.47 3.19,-2.44 1.25,-0.21 1.5,0.73 1.21,1.43 3.08,0.78 2.66,3.01 1.08,0.56 2.3,2.12 0.67,0.78 0.5,1.55 0.51,0.32 0.03,-1.46 -1.18,-1.46 0.29,-0.35 -0.73,-0.75 -0.37,-1.53 0.45,-0.64 0.82,-0.18 1.5,-8.51 4.04,-0.23 0.95,-0.4 0.97,-0.97 1.71,-0.28 2.25,-1.28 0.4,-0.82 0.4,-4.22 -0.24,-1.48 -1.39,-1.24 -1.74,-4.29 -4.5,-0.6 -0.85,-1.61 -0.11,-2.72 -0.53,-0.48 -1.11,-0.09 -1.2,-1.16 -1.65,0.52 -0.46,-3.02 1.24,-4.89 -0.18,-0.48 0,0 1.08,-1.21 1.35,0.34 0.36,-3.03 3.1,-1.17 0.53,0.37 -1.05,3.24 0.27,0.49 1.8,-1.14 1.03,-1.18 -0.16,-1.43 -1.74,-3.84 0.11,-0.79 2.16,-1.53 2.66,-0.38 1.81,1.01 -0.17,0.91 -1.1,0.82 -1.45,1.87 -1.69,4.22 -0.04,3.32 1.21,1.78 1.16,0.17 0.38,-1.16 0,-7.04 0.63,-0.57 3.43,-0.67 1.42,0.51 1.4,1.32 0.6,1.93 -0.04,1.16 -3.78,6.17 -0.09,0.45 0.58,0.66 1.93,0.02 0.69,-0.8 1.27,0.2 0.71,0.52 0.9,-0.44 0.93,-1.73 2.39,-1.89 -1.24,-1.03 0.31,-1.87 1.88,-0.73 2.17,0.17 0.41,0.86 -0.76,1.51 0.5,0.44 2.15,0.14 0.51,0.38 -0.7,3.47 -1.19,2.91 -0.74,0.69 -1.26,0.2 -3.28,1.68 -1.77,1.73 -2.92,2.07 0.18,1.79 -0.33,2.47 -1.62,1.88 -1.79,0.46 0.85,2.48 0.93,0.54 1.02,-0.49 0.67,0.14 0.34,0.58 -0.1,1.02 -1.17,1.12 -4.04,1.81 0.17,0.5 2.5,0.62 0.75,0.81 0.75,1.7 0.94,0.49 2.26,-0.19 2.9,1.61 0.99,-0.48 0.88,0.07 0.22,-0.56 1.34,-0.26 1.71,0.43 0.11,-0.37 1.47,-0.52 0.33,-2.02 0.63,-0.54 1.37,-0.49 1.52,0.5 3.58,-2.91 2.29,-1.4 0.96,-1.31 0.48,-2.69 -2.78,-1.78 -0.65,-1.85 z" 
                fill="rgb(151, 144, 238)" 
                stroke="white" 
                stroke-width=".7px"
                title="Jalisco" 
                id="MX-JAL" 
            />
        </svg>