<svg xmlns="http://www.w3.org/2000/svg" viewBox="366.1878600000001 344.95244 91.44999999999993 64.64999999999998" width="91.44999999999993" height="64.64999999999998">
            <path 
                d="m 408.26786,344.95244 0.86,0.05 0.33,0.54 0.55,-0.07 0.57,0.49 -0.36,0.4 0.68,2.85 0.44,0.45 0.81,0.09 1.18,-0.7 0.48,0.43 2.21,-0.14 0.91,0.3 2.01,-2.8 2.1,-0.69 0.63,0.39 1.43,-0.24 1.09,0.75 1.34,1.8 -0.63,0.27 -1.04,-0.52 0.45,1.73 0.02,3.24 0.47,0.5 2.54,0.24 1.8,0.74 1.22,-0.52 -0.33,-0.82 0.66,-0.58 1.39,0.44 2.21,-0.6 0.46,2.34 -0.21,0.47 0.26,0.1 0.61,-0.29 1.3,0.14 2.58,0.91 3.44,0.17 1.38,-1.02 1.94,-0.48 0.5,0.24 -0.33,1.5 0.62,-0.18 0.48,-1.4 0.73,-0.79 2.06,-0.28 1.18,-1.15 0.08,-0.99 -0.67,-0.05 0.51,-1.75 -0.1,-1.32 -0.6,-1.18 0.43,-1.09 0,0 1.55,0.99 1.22,1.92 -0.18,0.75 3.29,3.04 0,0 -0.08,2.43 0.87,0.81 0.03,0.62 -1.33,1.7 -0.28,2.05 -0.29,0.52 -1.43,0.49 -1.52,-0.1 0.96,1.96 0.57,0.47 0.43,5.18 -0.3,0.62 -0.66,0.11 -0.44,0.6 -0.76,1.79 0.28,0.98 -1.1,2.39 -1.5,1.83 -0.23,1.13 -0.56,0.39 0,0 -2.25,1.38 -1.09,2.46 -0.93,0.53 -2.44,2.92 -0.57,-1.57 -0.42,-0.04 -1.1,0.85 -0.47,1.03 1.22,4.23 0.3,3.15 2.83,3.79 -0.77,1.01 -0.81,0.02 -0.27,-1.06 -0.4,-0.3 -0.34,0.41 -1.48,-0.84 -0.4,-0.79 -1.44,-0.23 -0.62,-0.57 -1.41,1.1 -0.65,-0.12 -0.08,-0.83 -1.18,-1.66 -1.13,-0.27 -1.57,0.19 -2.03,-0.47 -0.47,-0.5 -1.72,-0.04 -2.03,0.46 -0.21,0.46 -3.46,0.5 -1.99,-0.91 -1.21,-1.9 -1.13,-0.03 -0.66,0.25 -0.15,0.67 -0.29,-0.38 -0.6,0.38 -0.06,-1.06 -1.06,0.34 0.32,0.4 -0.48,0.77 -0.53,-0.82 -0.56,0.11 0.21,0.46 -0.62,-0.14 -0.68,0.39 0.47,0.79 -0.64,0.03 -0.13,0.34 0.63,1.23 -0.58,1.1 0.65,1.4 0.11,1.23 -0.33,0.9 1.84,-0.02 -0.18,0.31 -0.82,0.28 -1.62,-0.37 -0.76,0.78 -1.47,0.64 -0.86,-0.25 -2.63,0.82 -0.76,0.63 -0.11,3.93 0.82,1.27 0,0 0.19,0.76 -1.28,0.53 -2.96,-1.46 -4.05,-1.21 -7.91,-1.73 -5.13,-2.39 -3.78,-0.7 -4.95,-1.86 -0.52,0.23 -3.81,-2.32 -1.77,-4.11 -2.87,-2.23 0.36,-0.84 -1.56,-1.89 0,0 0.68,-1.7 1.86,-1.18 -0.03,-1.79 0.38,-0.28 1.02,0.31 2.47,-2.24 0,0 1.66,-0.41 1.55,0.3 2.22,-1.7 0.53,0.1 1.26,1.76 0.29,-0.09 1.59,-1.74 2.2,-1.21 4.02,-3.58 1.37,-0.72 2.31,0.58 0.85,-2.31 2.36,-2.5 -0.06,-1.56 -0.61,-0.68 -3.36,0.07 0.63,-2.59 -1.91,-4.2 0.93,-0.74 0.33,-0.81 -0.61,-2.21 -0.66,-0.64 -3.21,-0.94 -2.27,-0.28 -0.45,0.56 -0.5,-0.05 -0.5,-0.84 0.89,-1.51 0.02,-2.35 0.36,-0.27 0.93,0.2 0.3,-1.15 2.47,0.45 1.05,1.3 0.44,-0.04 0.23,-0.81 2.97,-0.73 0.28,-1.43 0.94,-0.33 1.01,-1.05 1.06,0.08 2.06,-1.64 1.07,-0.34 1.68,0.13 1.33,-0.46 1.71,0.17 2.14,-1.04 z" 
                fill="rgb(151, 144, 238)" 
                stroke="white" 
                stroke-width=".7px"
                title="Michoacán" 
                id="MX-MIC" 
            />
        </svg>