<svg xmlns="http://www.w3.org/2000/svg" viewBox="473.23786 379.17244000000005 23.120000000000005 19.09999999999991" width="23.120000000000005" height="19.09999999999991">
            <path 
                d="m 479.58786,379.45244 1.33,-0.24 1.33,1.17 1.3,-1.09 0.63,-0.12 0.91,0.8 2.35,-0.75 0.95,0.02 0,0 0.98,0.83 0.93,1.59 2.55,0.94 2.62,-2.06 0.89,-0.18 0,0 -2.76,7.08 1.27,7.84 -0.55,0.72 -2.76,-2.64 -0.51,0.12 -0.8,1.26 -1.16,0.64 -0.61,0.99 -2.77,1.9 0,0 -2.3,-2.34 -5.51,-0.69 -2.02,-2.68 -1.13,-0.45 -1.07,0.23 -0.44,-0.36 0.65,-1.12 -0.5,-0.83 0,0 0.24,-1.01 1.56,-1.84 0.44,-1.43 z" 
                fill="rgb(151, 144, 238)" 
                stroke="white" 
                stroke-width=".7px"
                title="Morelos" 
                id="MX-MOR" 
            />
        </svg>