<svg xmlns="http://www.w3.org/2000/svg" viewBox="447.9678599999998 346.5924399999998 48.36000000000013 52.02000000000021" width="48.36000000000013" height="52.02000000000021">
            <path 
                d="m 454.56786,398.27244 -0.38,0.34 -0.07,-0.32 0.45,-0.02 z m 8.86,-51.68 1.17,1.4 2.64,1.49 4.64,0.69 0.13,0.58 0.64,0.26 1.51,3.12 -0.7,1 1.22,1.25 0.34,1.25 0.69,0.65 0.4,1.34 -0.1,2.49 1.21,-1 0.17,-2.24 2.13,1.01 0.69,-0.77 0.53,-3.75 3.88,-1.08 2.73,-1.38 0.59,0.06 0.47,1.34 -1.11,4.28 -0.85,0.08 -0.91,0.52 -0.21,0.52 0.87,1.78 -0.01,0.89 0.64,0.32 0.24,-0.2 1.72,-2.58 5.82,-0.61 0.17,1.74 -1.84,4.15 0.19,1.42 0,0 0.97,1.82 0.76,-0.24 0.52,0.6 0,0 0.39,1.82 -0.56,0.61 -0.04,1.09 1.04,3.63 0.12,4.4 0,0 -0.89,0.18 -2.61,2.06 -2.55,-0.94 -0.93,-1.59 -0.98,-0.83 0,0 -0.19,-0.83 0.47,-1.67 -0.35,-1.58 -0.23,-0.5 -0.47,0.38 -0.31,-1.48 -2.14,-1.8 -0.48,-1.54 -1.57,-1.92 0.05,-1.06 -0.33,-0.36 -2.24,2.46 -0.56,1.98 -3.17,2.75 0.1,0.98 2.62,4.38 0,0 -3.95,6.3 -0.45,1.43 -1.56,1.84 -0.24,1 0,0 -0.81,-0.13 -0.82,0.49 -1.98,-0.67 -0.91,-1.08 -0.81,0.05 0.36,1.72 -1.76,0.32 -0.44,1.56 -0.85,-0.29 -0.88,0.42 -0.29,0.58 -3.51,0.23 -0.79,-0.43 -1.02,0.49 -0.35,0.6 0.69,1.38 -2.47,0.58 -1.98,2.18 -0.19,-0.37 -0.34,0.39 -0.62,-0.03 -0.04,0.43 -1.57,-1.96 -0.22,-1.08 -1.51,-0.33 -1.33,0.27 -0.65,-0.66 1.66,-1.81 0.25,-0.72 -0.1,-1.19 -1.75,-0.76 -0.37,-1.6 0.74,-4.23 1.05,-1.92 -0.3,-2.94 0,0 0.56,-0.38 0.23,-1.13 1.5,-1.83 1.1,-2.39 -0.28,-0.98 0.76,-1.78 0.43,-0.6 0.67,-0.12 0.3,-0.62 -0.44,-5.18 -0.57,-0.47 -0.96,-1.95 1.51,0.1 1.44,-0.5 0.29,-0.51 0.28,-2.06 1.33,-1.7 -0.04,-0.61 -0.87,-0.82 0.08,-2.43 0,0 2.55,-0.31 1.92,-2.01 -0.29,-1.73 -0.54,-0.96 0.24,-0.31 0.88,0.6 0.65,-0.13 -0.21,-0.72 0.3,-0.63 1.15,-0.72 z" 
                fill="rgb(151, 144, 238)" 
                stroke="white" 
                stroke-width=".7px"
                title="México" 
                id="MX-MEX" 
            />
        </svg>