<svg xmlns="http://www.w3.org/2000/svg" viewBox="292.57786 273.25243999999986 72.26999999999998 66.11999999999995" width="72.26999999999998" height="66.11999999999995">
            <path 
                d="m 304.00786,319.19244 0.16,0.81 -0.79,0.37 -0.46,-0.71 0.42,-0.46 0.67,-0.01 z m -5.18,-4.35 1.56,0.44 0.4,0.56 -0.51,0.38 -0.15,0.76 -2.29,-0.87 -0.4,-0.53 1.39,-0.74 z m -5.42,-5.3 2.62,0.7 0.4,0.44 -0.06,0.59 0.77,0.78 -0.21,0.87 -0.6,0.37 -2.37,-1.27 -0.54,-1.38 -0.01,-1.1 z m -0.44,-2.1 0.36,1 -0.51,0.23 -0.24,-0.83 0.39,-0.4 z m 24.72,-21.4 0.58,1.44 -0.17,1.35 0.55,0.48 -0.21,0.67 0.94,6.35 -0.6,0.03 -0.18,-0.4 -0.75,-4.16 -1.96,-4.49 0.28,-0.25 1.1,1.77 0.76,-0.25 -0.74,-2.17 0.4,-0.37 z m 7.2,-12.79 2.2,2.64 1.68,-0.35 0.91,-1.31 0.54,0.03 1.52,1.75 1.33,0.6 2.09,0.16 0.58,2.47 0.52,0.37 1.15,-0.03 0.12,1.24 -0.59,0.89 -1.7,0.87 -1.69,1.76 2.2,4.58 0.69,0.03 0.81,-0.85 1.35,-2.56 1.39,1.76 1.7,0.43 2.49,2.39 0.96,2.07 1.81,1.12 0.48,-0.04 0.4,-1.38 2.94,-1.3 0,0 0.21,2.77 0.42,0.96 0.73,0.43 0,0 0.18,0.48 -1.25,4.89 0.46,3.02 1.66,-0.52 1.2,1.15 1.11,0.09 0.53,0.48 0.11,2.72 0.85,1.62 4.5,0.6 1.74,4.29 1.39,1.24 0.24,1.47 -0.4,4.22 -0.4,0.83 -2.25,1.28 -1.72,0.28 -0.97,0.97 -0.96,0.4 -4.04,0.23 -1.5,8.51 -0.82,0.18 -0.45,0.64 0.38,1.53 0.73,0.75 -0.29,0.35 1.18,1.46 -0.04,1.46 -0.51,-0.32 -0.5,-1.55 -0.68,-0.78 -2.3,-2.12 -1.08,-0.55 -2.66,-3.01 -3.08,-0.79 -1.21,-1.43 -1.5,-0.73 -1.25,0.22 -3.19,2.43 -2.33,-0.46 -1.17,0.45 -4.45,5.62 0,0 -1.22,-1.75 -0.47,-0.08 -0.88,0.73 -3,-0.99 0.77,-0.63 0.92,-2.15 0.36,0.09 0.87,-1.57 1.21,-0.8 0.88,-1.17 0.15,-0.84 1.02,0.35 1.14,-1.62 -0.28,-0.98 0.5,-3.15 -0.65,-2.83 1.39,-2.69 -0.21,-1.25 -0.74,-0.84 -0.93,0.31 -4.66,-3.17 -1.43,-3.57 -2.97,-5.06 -0.73,-2.66 0.18,-3.21 0.8,-0.38 0.46,1.19 0.6,0.1 0.31,0.8 1.98,0.97 0.3,-1.52 -1.02,-0.71 -0.25,0.25 -0.35,-0.75 -1.02,0.34 -0.19,-0.57 0.38,-0.35 -0.07,-0.61 -0.45,-0.06 -0.33,0.42 -0.33,-0.3 0.13,-0.7 -0.52,-0.97 -0.21,-3.39 -0.3,-0.57 0.19,-0.85 -0.58,-0.39 0.25,-0.68 -0.63,-2.11 0.33,-0.17 0,0 2.1,1.24 3.46,0.57 0.36,-0.89 -0.23,-2.04 -0.4,-0.36 -0.21,-1.33 -1.31,-1.3 -0.45,-1.3 0.33,-1.02 1.69,-2.1 0.56,-3.41 0.9,-0.62 z" 
                fill="rgb(151, 144, 238)" 
                stroke="white" 
                stroke-width=".7px"
                title="Nayarit" 
                id="MX-NAY" 
            />
        </svg>