<svg xmlns="http://www.w3.org/2000/svg" viewBox="428.6078599999998 142.96243999999996 71.08000000000004 126.8599999999999" width="71.08000000000004" height="126.8599999999999">
            <path 
                d="m 466.82786,145.86244 -0.65,0.34 -1.28,1.73 -2.78,0.8 -0.62,0.69 0.27,0.79 -0.35,1.07 0.6,0.45 4,0.19 0.05,0.88 -1.17,1.42 1.27,0.87 -0.22,2.46 0.24,1.38 1.15,1.13 0.42,3.19 -1.64,1.39 -0.81,2.39 0.13,1.12 1.47,-0.05 1.25,0.66 0.52,0.78 -0.47,1.29 -0.23,3.22 0.8,0.82 0.88,-0.37 0.67,0.4 0.84,1.9 1.88,0.22 1.24,4.14 1.82,2.49 1.41,-0.13 -0.06,1 1.17,1.62 0.69,0.09 0.75,-0.73 0.63,0.05 0.18,0.6 -0.36,0.73 0.76,1.34 -0.89,0.33 0.82,0.46 0.37,0.65 3.28,0.46 0.65,0.59 1.19,2.34 0.95,0.54 2.66,-1.53 1.07,0.15 3.38,-0.69 0.69,0.45 0.14,1.47 0.79,1.01 -0.3,3.35 0.59,1.52 -0.47,0.77 -0.2,2.07 0.69,1.57 -0.41,0.8 0.99,0.83 1.99,0.63 0.4,0.26 0.03,0.52 -1.54,1.58 -0.59,1.37 -1.25,0.62 -1.36,1.44 -0.78,0.08 -0.99,1.13 -4.38,0.85 -0.99,1.14 -0.75,2.03 -2.8,-0.22 -0.61,-1.17 -0.51,-0.04 -1.46,1.97 -1.26,0.41 -0.25,0.4 0.6,2.24 0.67,0.36 -0.38,1.67 -0.9,0.09 -0.92,0.69 -0.47,1.6 -1.12,0.45 -0.38,-1.52 -0.38,0.13 -0.36,1.04 -1.15,0.47 -1.12,1.6 -1.76,-0.1 -1.3,2.13 -2.87,1.27 -1.99,1.35 -0.69,2.1 0.22,0.28 1.83,-0.09 1.26,2.62 -0.86,6.77 1.77,2.09 1.4,3.64 1.37,0.77 0.76,2.34 -2.25,-0.44 -0.36,0.1 -0.34,1.51 -1.76,0.97 -0.71,0.15 -2.55,-0.68 -2.31,1.23 -0.66,2.81 -1.48,1.77 -0.33,0.96 0.39,2.84 -0.21,1.77 -3.09,-0.38 -0.8,0.68 0.55,1.35 -0.43,0.77 0,0 -3.9,-0.74 -2.34,2.8 -1.5,-0.72 -1.24,-1.47 -0.56,-1.65 -0.25,-4.09 -0.51,-1.27 1.15,-5.6 -0.11,-0.89 -0.97,-1.46 0.21,-4.37 -0.88,-2.25 -2.48,-3.13 0.13,-1.43 -1.79,-1.71 -0.29,-0.81 1.2,-1.57 0.05,-0.33 -0.69,-0.26 0.48,-1.57 -1.39,-0.5 -1.05,0.19 -1.72,-2.32 0,0 0.55,-0.42 0,0 1,-3.26 -0.65,-1.23 -0.11,-1.39 -1.38,-1.55 0.32,-1.2 -0.29,-0.83 0.16,-0.37 2.41,-0.06 0.2,-0.39 -0.09,-2.16 -0.89,-2.93 1.7,-3.22 1.79,-0.57 -0.29,-0.81 0.94,-0.31 1.74,0.17 1.31,1.53 3.41,0.88 1.94,0.03 0.34,-0.2 0.15,-1.15 0.75,-0.89 -0.39,-0.95 -0.88,-0.32 -0.5,-0.8 -3.6,-0.63 0.51,-1.05 -3.28,-1.88 -0.82,-0.85 -0.56,-3.41 -0.35,-0.36 -2.13,-0.08 -0.84,-0.66 -1.11,-0.14 -0.84,-1.78 -0.24,-2.47 0.99,-2.9 -0.38,-0.64 -0.86,-0.08 -1.42,-1.15 -1.05,-3.11 -2.7,-2.02 -4.54,-4.78 -0.02,-1.3 2.42,-2.42 1.04,-2.73 0.87,-0.9 3.51,-0.28 2.61,-1.7 3.2,0.04 1.14,-2.19 1.05,-0.77 0.84,-2.24 -0.42,-5.13 -2.05,-1.48 -0.63,-0.07 -0.7,3.12 -0.59,0.05 -2.82,-2.07 -0.25,-3.34 1.83,-2.98 1.19,-1.04 1.19,0.38 2.1,-0.92 2.23,0.12 0.63,-0.49 -0.16,-2.29 0.29,-0.79 1.69,-2.6 0.55,-2.34 1.13,-0.63 3.67,-0.26 5.52,0.92 1.92,-1.3 0.95,-0.06 1.09,-0.79 0.26,-0.61 0,0 0.75,-0.17 0.24,0.93 0.77,0.25 z" 
                fill="rgb(151, 144, 238)" 
                stroke="white" 
                stroke-width=".7px"
                title="Nuevo León" 
                id="MX-NEL" 
            />
        </svg>