<svg xmlns="http://www.w3.org/2000/svg" viewBox="496.1278599999997 390.76243999999997 117.19000000000005 77.4700000000002" width="117.19000000000005" height="77.4700000000002">
            <path 
                d="m 543.86786,396.11244 1.17,-2.18 0.3,-0.96 -0.49,-0.74 0.05,-0.86 0.65,-0.61 1.15,1.16 1,0.35 -0.58,1.27 0.61,2.74 0.64,0.9 1.96,1.55 1.3,-0.38 1.39,0.81 1.02,1.89 1.38,0.09 -0.54,0.9 0.7,0.35 2.47,-0.78 1.43,0.52 1.15,-0.19 2.03,0.48 0.52,0.44 1,3.79 -0.22,1.25 -0.81,1.12 -0.99,2.57 -0.72,0.68 0.34,0.72 -0.17,1.18 2.17,4.42 1.96,0.58 1.26,-0.65 2.87,-0.17 3.01,-2.1 3.66,-0.92 1.21,-1.09 0.42,0.07 1.37,0.84 -0.18,0.68 -1.49,0.66 -0.23,1.13 3.36,4.41 3.45,2.79 -0.01,0.99 0.64,0.57 -0.33,1.37 28.57,1.75 0,0 -0.34,0.94 0.03,2 -0.76,1.02 -0.8,3.49 -2.94,2.62 -2.19,6.29 -0.08,0.85 1.24,2.93 -0.52,1.46 0.12,2.11 0,0 0.04,0.44 -1.98,0.89 -0.49,-0.09 -0.52,-0.43 -0.72,0.07 -0.79,-0.87 -0.87,0.02 -0.89,-1.51 -1.12,0.39 0.02,0.99 -0.66,0.05 -0.02,0.63 1.12,0.96 4.37,0.32 3.07,2.29 0,0 -0.18,0.64 0,0 -4.71,-2.07 -2.96,-0.91 -7.69,-1.12 -0.24,-0.45 2.64,-0.9 0.73,-0.65 0.4,-1.13 -2.38,-0.84 -1.29,0.9 -0.39,0.77 -0.96,0.05 -0.27,0.61 -0.51,-0.15 -0.1,-0.39 1.1,-0.94 -1.1,-0.93 0.24,-0.61 -1.39,-1.05 -1.67,0.44 -1.3,2.23 -1.25,-0.03 -0.92,0.82 0.21,0.86 -0.61,0.06 -0.44,0.8 6.42,-0.01 1.84,0.24 0.12,0.29 -3.64,0.06 -3.99,0.67 -1.85,-0.16 -0.16,0.61 -2.02,0.17 -0.48,0.46 -0.63,0 -0.16,1 -2.02,0.89 -0.34,0.52 0.21,0.78 -1.37,0.46 -0.18,0.54 -1.55,-0.18 -0.11,0.58 -1.97,0 -0.11,0.47 -2.03,0.89 -2.44,0.34 -1.28,0.85 -3.85,1.01 -2.73,1.26 0.01,0.26 -1.46,0.4 0.18,0.33 -2.95,1.43 -4.45,-0.27 -1.87,0.97 -1.57,-0.03 -3.54,-1.49 -4.01,-0.6 -1.55,-0.95 -2.43,-0.76 -0.77,-0.54 -0.27,-0.77 -3.76,-1.7 -3.26,-0.61 -2.02,0.13 -2.64,-0.73 -0.74,0.18 -2.57,-0.4 -0.44,0.39 -2.43,-0.37 -5.68,-3.74 -5.44,-2.9 -4.67,-0.84 -3.82,-1.38 0,0 4.64,-3.55 0.46,-2.01 4.11,-3.59 0.19,-1.35 0.93,-0.67 1.22,-0.23 0.9,-0.91 0.92,-2.88 -0.36,-1.55 -0.42,-0.54 -1.16,-0.26 -0.27,-0.59 0.11,-1.91 -0.45,-1.17 -2.29,-0.78 -0.56,-0.51 0.18,-2.07 0.92,-0.83 -0.61,-4.58 -2.73,-6.06 0.17,-1.42 1.74,-3.95 0,0 1.2,-1.4 2.07,-1.35 1.57,-0.36 3.46,-0.01 1.45,-0.59 2.19,1.61 1.18,0.36 0.72,-0.21 1.77,-1.64 -0.07,-0.43 -2.35,-1.64 -0.44,-0.76 2.03,-4.33 1.56,-0.68 1.59,-0.2 0.48,0.34 0.23,0.97 -0.1,0.46 -1.33,0.9 0.1,0.4 1.31,0.96 0.74,1.08 1.44,2.82 0.36,1.64 0.82,0.7 0.87,-0.85 0.91,-1.9 2.6,-2.58 1.36,-0.29 3.72,0.89 1.78,-1.48 0.11,-0.89 0.29,0.56 1.36,-0.9 2.39,-0.51 1.92,-3.45 z" 
                fill="rgb(151, 144, 238)" 
                stroke="white" 
                stroke-width=".7px"
                title="Oaxaca" 
                id="MX-OAX" 
            />
        </svg>