<svg xmlns="http://www.w3.org/2000/svg" viewBox="485.65785999999986 332.10244000000006 58.20999999999998 77.60999999999996" width="58.20999999999998" height="77.60999999999996">
            <path 
                d="m 511.59786,338.20244 0.7,-2.56 0.96,-0.75 0.09,-0.83 0.88,-0.94 0.27,-1.02 1.18,0.39 2.03,-0.32 -0.01,1.79 -1.23,0.75 0.16,0.3 0.87,-0.19 0.81,0.6 -0.37,0.84 0.16,0.84 0.81,0.84 2.23,1.22 0.48,1.12 -1.5,2.47 -1.61,-0.92 -1.17,0.76 0.06,4.01 0.46,2.37 0.68,0.55 2.04,-0.22 0.86,1.78 0.59,0.2 1.61,-1.4 1.22,-1.95 0.82,-0.66 7.06,2.48 0.08,0.51 -2.16,2.99 -1.65,4.28 -0.2,0.81 0.32,0.98 -0.34,0.97 -0.67,0.87 -0.97,2.63 -0.57,0.24 -0.25,0.7 1.38,2.99 -0.55,1.38 0.34,0.42 1.43,0.99 3.63,0.82 2.93,1.27 0.47,0.59 0.11,1.28 -0.16,0.7 -0.53,0.12 -4.82,-0.22 -0.19,0.9 0.52,6.12 -0.07,0.55 -1.86,2.41 0,2.99 0.36,1.11 0.85,0.73 3.81,1.11 -0.17,0.75 1.86,3.13 1.43,0.1 0.95,-1.05 1.39,-0.8 2.58,0.83 1.85,2.16 0,0 -0.81,0.84 -1.92,3.45 -2.39,0.51 -1.36,0.9 -0.29,-0.56 -0.11,0.89 -1.78,1.48 -3.72,-0.89 -1.36,0.29 -2.6,2.58 -0.91,1.9 -0.87,0.85 -0.82,-0.7 -0.36,-1.64 -1.44,-2.82 -0.74,-1.08 -1.31,-0.96 -0.1,-0.4 1.33,-0.9 0.1,-0.46 -0.23,-0.97 -0.48,-0.34 -1.59,0.2 -1.56,0.68 -2.03,4.33 0.44,0.76 2.35,1.64 0.07,0.43 -1.77,1.64 -0.72,0.21 -1.18,-0.36 -2.19,-1.61 -1.45,0.59 -3.46,0.01 -1.57,0.36 -2.07,1.35 -1.2,1.4 0,0 -1.61,-0.8 -1.6,-1.98 -1.55,0.14 -0.86,0.86 -0.47,-0.27 -1.4,0.31 -0.13,-1.08 -4.2,-1.78 0.83,-0.97 -0.22,-0.8 -2.98,0.2 -1.22,-2.25 -1.35,-0.62 -1.35,-1.18 0.05,-1.22 0,0 2.77,-1.9 0.61,-0.99 1.16,-0.64 0.8,-1.26 0.51,-0.12 2.76,2.64 0.55,-0.72 -1.27,-7.84 2.76,-7.08 0,0 -0.12,-4.4 -1.04,-3.63 0.04,-1.09 0.55,-0.61 -0.38,-1.83 0,0 0.7,-0.29 1.16,0.37 3.03,2.31 1.32,1.38 0.54,1.38 1.18,1.31 4.06,2.24 0.86,-0.14 3.07,-2.68 0.57,-0.04 1.46,0.99 0.77,-0.05 1.24,-0.84 1.4,-2.33 0.84,0.32 2.68,-0.51 0.82,-0.55 0.28,-1.15 -0.94,-0.2 -0.67,-0.6 -0.31,-1.17 -1.21,-1.24 -0.59,-0.38 -1.53,0.5 -0.84,-0.17 0.13,-1.73 -4.1,-3.41 -0.71,-1.06 -0.49,-0.07 -1.55,1.83 -0.61,0.24 -2.06,-0.38 0,0 -0.7,-4.73 1.54,-3.08 0.81,-4.8 -0.46,-2.19 -2.12,0.48 -0.7,-1.41 3.62,-1.85 0.91,-1.38 2.86,-2.52 z" 
                fill="rgb(151, 144, 238)" 
                stroke="white" 
                stroke-width=".7px"
                title="Puebla" 
                id="MX-PUE" 
            />
        </svg>