<svg xmlns="http://www.w3.org/2000/svg" viewBox="724.90786 312.38244 67.28000000000009 98.41000000000003" width="67.28000000000009" height="98.41000000000003">
            <path 
                d="m 792.18786,339.01244 -1.08,2.58 -1.14,1.48 -0.35,0.05 -2.56,3.35 -1.57,0.97 -0.67,-1.71 0.12,-1.91 2.29,-3.75 0.7,-0.36 0.72,0.76 0.34,-0.33 0.46,0.28 1.55,-0.4 1.19,-1.01 z m -60.53,69.87 -0.25,-2.46 2.44,-2.83 0.57,-1.26 -0.28,-4.7 -0.47,-1.38 0.57,-1.67 -0.82,-0.46 0.51,-1.37 -0.15,-0.71 -0.99,-1.24 -0.17,-1.27 0.8,-5.13 -0.22,-2.52 0.41,-0.67 1.17,-0.66 0.18,-5.85 -3.41,-4.67 -5.3,-4.25 -1.34,-1.81 0,0 0.93,-2 0.33,-1.46 -0.17,-0.87 0.56,-0.49 3.54,-0.17 1.39,-1.39 2.43,-1.05 2.43,-0.04 1.18,-0.41 1.92,-1.78 1.08,0.92 0.3,-0.32 -0.27,-0.69 1.87,-1.6 1.78,-1.04 5.51,-1.98 0.46,-0.47 0.79,-2.37 0.51,-0.42 1,0.01 0.93,1.68 0.36,-0.05 -0.25,-2.19 1.5,-2.76 1.17,-0.56 1.14,1 1.54,-0.44 1.51,0.1 3.11,-1.83 3.13,-2.7 1.72,-0.82 0.86,-1.17 0.27,-1.58 0.86,-1.08 0.48,-2.46 1.15,-2.05 0.1,-0.97 -1.33,-3.21 0.47,-3.16 0.88,-0.86 0.13,-0.76 -0.33,-5.31 0,0 1.33,0.09 -0.04,0.41 0.57,0.28 0.67,-0.32 2.09,0.59 0.33,0.39 0.65,-0.25 1.63,0.19 0.44,0.4 0.29,-0.53 2.71,-0.87 0.23,-1.96 -0.63,-0.27 0.64,-0.78 0.46,-0.16 0.44,0.5 1.44,0.39 0.56,0.83 0.34,-0.16 0.54,0.45 0.05,0.79 1.58,2.18 0.97,4.05 0.43,-0.1 0.22,-1.61 0.74,-0.67 -0.07,-0.9 -0.65,-1.07 0.65,0.22 0.11,1.72 -0.64,1.63 0.4,1.16 -0.16,1.37 0.19,0.8 1.2,0.85 -0.69,2.49 -0.75,0.05 -0.31,0.71 -1.27,4.05 -1.18,1.14 -1.11,1.59 0.04,0.49 -1.15,0.68 -0.33,0.81 -1.92,2.16 -3.88,3.04 -1.73,2.42 -1.02,2.47 -1.46,1.73 -1.41,3.98 -0.01,1.89 0.64,1.93 0.42,0.14 0.16,1.15 -0.58,1.37 -0.85,0.83 0.41,-0.93 0.44,0.01 0.56,-1.33 -0.06,-0.59 -0.62,-0.38 0.07,1.29 -1.05,1.79 -0.77,0.28 -0.34,-0.38 -0.92,0.55 -1.62,2.72 -2.43,0.42 -0.19,1.9 1,0.69 0.15,0.59 0.7,-0.34 -0.1,0.78 0.36,0.14 -0.25,0.71 0.58,-0.08 0.89,-1.26 1.58,-0.34 0.6,0.65 0.82,-0.78 -0.27,-0.41 1.72,-0.22 0.54,0.8 -0.74,2.5 -1.98,1.91 -0.47,-0.03 0.08,-0.79 -2.46,1.48 -0.62,1.69 0,1.25 -0.67,0.79 0.36,0.08 -0.06,0.74 1.4,-0.05 2.03,-2.79 0.8,-0.38 0.45,0.17 -0.34,1.4 0.35,-1.12 0.97,-0.08 -2.21,2.63 -0.28,3.21 -2.04,4.14 -1.12,4.75 -0.9,0.96 -0.82,4.76 -0.45,0.9 -0.04,2.04 -1.44,2.34 -0.56,3.33 -0.73,-0.54 -0.64,0.06 0.02,-0.68 0.56,-0.38 -0.12,-0.96 -0.41,0.1 0.4,-1.48 -0.52,-0.3 -0.15,-0.62 -0.81,-0.24 0.19,-1.03 -2.62,-0.79 -1.04,-1.23 0.74,-0.46 0.34,-2.04 0.93,-1.7 -0.47,-0.53 0.38,-1.24 -0.41,-1.43 -0.73,-0.62 0.24,-0.91 -0.79,-0.29 -2.26,3.58 -1.09,0.38 0.01,0.25 0.98,-0.43 -3.24,5.92 -2.26,0.13 -0.21,-0.27 -1.06,0.42 -1.2,-0.28 -0.92,0.82 -0.88,3.01 -1.06,1.13 -0.45,2.03 -1.09,1.38 -1.15,2.88 -1.42,0.78 -0.58,1.42 -1.62,1.31 0.11,1.6 -0.93,-1.04 -0.91,-0.39 -0.63,-0.95 -1.05,0.04 -0.96,-1.16 -1.8,0.39 -1.27,1.2 z m 50.74,-96.48 -0.21,0.54 -2,1.2 -1.46,-0.03 -0.56,0.38 -0.91,-0.52 -0.48,-0.76 1.72,0.56 1.4,-0.1 2.5,-1.27 z" 
                fill="rgb(151, 144, 238)" 
                stroke="white" 
                stroke-width=".7px"
                title="Quintana Roo" 
                id="MX-ROO" 
            />
        </svg>