<svg xmlns="http://www.w3.org/2000/svg" viewBox="402.6878599999999 232.61244 99.0200000000001 90.47000000000008" width="99.0200000000001" height="90.47000000000008">
            <path 
                d="m 438.60786,232.61244 1.72,2.32 1.05,-0.19 1.39,0.5 -0.48,1.57 0.69,0.26 -0.05,0.33 -1.2,1.57 0.29,0.81 1.79,1.71 -0.13,1.43 2.48,3.13 0.88,2.25 -0.21,4.37 0.97,1.46 0.11,0.89 -1.15,5.6 0.51,1.27 0.25,4.09 0.56,1.65 1.24,1.47 1.5,0.72 2.34,-2.8 3.9,0.74 0,0 0.9,1.06 0.14,2.06 1.03,0.78 0.48,1.15 -0.33,3.63 0.22,2.98 0.2,0.69 1.09,0.92 4.2,1.37 3.27,0.26 2.2,0.73 0.65,-0.43 -0.05,-1.03 0.97,-0.56 0.62,0.33 0.81,1.29 1.69,0.56 1.38,1.08 0.83,1.17 0.92,2.53 2.16,2.85 1.78,-0.23 2,0.39 2.32,-0.07 0.71,-0.8 1.89,1.19 2.14,-0.45 0.96,0.17 0,0 0.29,0.93 0.53,0.26 2.36,-0.04 4.43,1.37 0.66,0.73 1.2,3.56 -2.53,0.05 -1.07,0.72 0.32,2.55 -0.26,0.67 -0.41,0.28 -2.17,-0.26 -0.27,0.41 0.38,0.38 1.13,0 -0.58,0.53 0.35,0.26 -0.13,1.23 0.59,0.72 0.45,-0.11 0.03,0.48 1.19,1.11 -1.7,0.79 -0.29,0.82 -1.06,-0.06 0.05,0.7 -1.26,0 -0.2,0.86 0.89,3.31 1.33,0.22 0.14,3.34 0,0 -1.68,-0.02 -1.58,1.84 -1.33,2.96 -0.92,-1.31 -1.35,2.38 -1.08,0.04 -1.34,-1.1 -1.14,-2.4 -2.26,0.75 0,0 -0.88,-0.26 -0.82,-1.46 -3.22,-3.35 -0.99,-2.2 -0.48,0.28 -0.8,-0.24 -0.56,0.37 -1.06,2.77 -0.58,-0.36 -1.94,0.5 -2.49,-0.25 -0.63,-0.66 -0.59,-1.89 -1.51,-1 -1.1,-0.04 -0.18,0.48 0.28,0.45 -1.54,0.38 0.59,0.57 0,0 -2.64,1.33 -1.61,-0.04 -0.68,-0.84 -0.39,0.54 -1.81,0.17 -1.7,-2.13 -0.48,0.09 -0.27,-0.69 -3.15,-2 -3.89,-1.28 -1.08,0.73 -0.62,1.83 0.15,1.12 -1.52,0.61 -2.75,0.03 -2.74,-1.43 -4.97,-3.72 -1.07,0.04 -1.23,-0.75 -4.63,-1.06 -1.26,-0.73 -2.91,-0.31 -1.16,-0.67 0,0 1.93,-3.97 0.35,-0.96 -0.26,-0.18 0.13,-0.55 0.39,0.03 0.36,-1.64 -1.38,-3.86 3.3,-7.3 0.19,-1.65 -1.97,-2.58 -0.71,0.05 -1.46,0.7 -4.45,4.61 -2.43,0.73 -2.08,-0.05 -1.48,-2.02 -0.92,-2 -1.07,-0.58 -2.31,-0.34 -1.11,-1.32 -4.18,-2.53 -0.94,-1 -0.25,-1.51 0.2,-1.26 1.26,-3.99 -1.03,-3.02 0.51,-1.69 -0.62,-0.81 0.87,-1.67 0.66,-0.2 2.32,0.93 2.94,-0.58 0.52,-1.44 0.85,-1.03 2.28,-0.84 3.56,-2.13 3.48,-5.14 4.74,-1.59 1.1,-1.54 1.18,-2.96 -1.01,-1.18 0.83,-3.45 0.64,-0.62 1.87,-0.48 1.36,-0.88 0.92,-1.78 0.21,-1.49 0.67,-0.52 1.58,0.07 0.98,-0.5 0.69,-1.72 1.19,-1 0.36,-1.78 z" 
                fill="rgb(151, 144, 238)" 
                stroke="white" 
                stroke-width=".7px"
                title="San Luis Potosí" 
                id="MX-SLP" 
            />
        </svg>