<svg xmlns="http://www.w3.org/2000/svg" viewBox="223.4978600000001 163.4924399999999 101.42000000000016 125.15" width="101.42000000000016" height="125.15">
            <path 
                d="m 317.37786,283.99244 0.42,0.06 0.54,0.94 -0.45,0.73 -0.51,-1.73 z m -61.12,-65.4 1.17,1.35 0.5,-0.19 0.27,0.31 0.01,0.9 0.59,1.13 -0.27,2.7 -0.48,-0.01 -0.69,-2.11 -1.08,-1.17 -0.02,-2.91 z m -4.82,-2.05 1.41,0.93 3.59,4.56 0.73,1.14 0.05,1.38 -0.39,0.16 -2.7,-5.14 -2.82,-2.59 0.13,-0.44 z m -0.55,-2.3 1.78,1.24 0.21,0.57 -1.66,-0.8 -0.33,-1.01 z m -21.58,-30.8 1.03,0.12 0,0 0.46,0.38 -0.13,1.01 -0.38,0.28 1.78,1.47 -0.35,-1.14 0.77,-0.64 -0.17,-0.47 -0.31,0.28 -0.46,-0.25 -0.92,-1.8 -0.02,-0.74 0,0 -0.15,-1.56 0.29,-0.19 0.24,1.87 0.39,0.17 0.5,-0.94 0.79,0.91 0.13,0.78 0.48,-0.08 -0.05,0.81 0.34,0.35 2.93,-1.7 1.28,-1.17 2,-0.58 0.11,-2.49 0.47,-0.87 4.09,-0.98 2.06,-3.86 1.86,-0.55 -0.29,-2.49 3.12,-3.88 0.31,-1.78 0,0 4.88,-0.22 0.68,0.38 0.12,2.9 0.62,0.24 1.22,-0.26 1.05,2.33 -0.4,2.26 0.5,0.82 -0.5,2.01 0.33,1.09 1.41,0.91 0.07,1.88 3.11,5.02 1.22,4.68 3.81,1.13 3.19,0.31 2.36,0.7 2.89,4.88 0.59,3.23 2.14,2.79 0,0 0.06,0.67 0.73,-0.16 0.16,0.73 -1.2,0.77 -1.73,2.21 0.6,0.72 0.47,-0.08 0.07,0.68 -1.33,3.21 -0.08,5.12 -0.51,1.97 1,0.61 0.48,1.82 0.75,0.65 1.2,2.37 -0.33,1.45 1.2,0.95 0.53,-0.44 2.3,0.23 0.9,2.61 1.32,0.3 1.21,4.47 0.57,0.2 0.57,-0.42 0.21,0.25 0.81,4.12 0.98,1.41 0.59,1.95 0.83,-0.17 0.7,0.49 0.69,-0.55 1.33,-0.19 2.79,-2.13 0.67,-1.04 4.04,1.18 1.45,0.96 0.9,1.37 1.08,0.26 0.15,1.07 1.74,2.27 0.08,2.2 1.03,0.94 -0.25,0.9 0.79,2.59 0.71,1.07 0.63,2.94 1.08,1.21 0.91,1.98 1.72,1.65 0.44,2.81 1.05,2.92 -0.27,0.93 0.74,1.74 1.22,1.33 0.13,2.26 0.6,1.28 2.04,0.14 0.85,-0.6 0.6,0.07 2.12,2.18 0,0 -0.83,0.61 -0.56,3.41 -1.69,2.1 -0.33,1.02 0.45,1.3 1.31,1.3 0.21,1.33 0.4,0.36 0.23,2.04 -0.36,0.89 -3.46,-0.57 -2.1,-1.24 0,0 0.23,-1.02 -1.5,-1.63 0.25,-0.59 0.74,-0.35 -0.69,-0.57 -0.54,0.7 0.52,1.9 0.54,0.51 -0.56,1.68 0.52,1.68 -0.37,0.56 -3.72,-5.81 -2.97,-2.87 -1.78,-1.1 -4.22,-5.17 -4.67,-4.58 0.44,-0.33 1.15,1.27 0.08,-0.33 -1.45,-1.15 -0.54,0.21 -0.19,0.56 -0.36,-0.33 0.1,-0.69 -0.7,-0.5 -0.92,-1.65 0.31,-0.41 -1.25,-1.96 -2.55,-2.5 0.08,-0.35 -1.39,-1.18 -0.64,-1.1 -2.56,-1.94 0.41,-0.5 -2.2,-3.4 -0.23,-1.22 -7.52,-6.96 0.92,0.2 0.31,-0.36 -0.45,-0.3 0.11,-0.8 -0.56,-0.11 -0.18,0.49 -0.54,0.21 -3.82,-3.04 -1.4,-0.34 -5.04,-3.96 -4.64,-2.85 0.23,-0.56 0.62,0.69 3.14,1.7 0.45,0.74 1,0.13 0.51,0.81 0.62,-0.07 0.75,1.11 0.5,-0.13 -0.54,-0.59 0.07,-0.7 0.71,-0.22 0.04,-0.4 -0.29,-1.18 -1.48,-2.02 -1.28,0.03 0.11,1.39 -1.12,0.24 -1.09,-1.43 -0.6,0.53 -1.04,-0.19 -0.18,-0.93 -1.63,-1.49 -2.1,-0.87 -0.25,-0.46 -0.58,0.4 -1.08,-0.5 -0.79,-1.06 0.07,-1.15 -1.39,-1.6 0.62,-0.28 1.21,1.17 0.69,-1.18 -0.6,-0.45 -0.17,-0.77 -0.29,0.03 0.08,-0.85 0.47,-0.52 -0.71,-0.29 -0.04,-0.5 0.52,-0.64 0.08,-0.78 -1.03,-0.68 -0.28,-1.88 -0.51,-0.7 -1.55,-1.02 -0.02,0.52 -0.88,-0.16 -1.89,-1.7 -0.31,-0.82 -1.64,0 0.11,-1.13 -1.25,-0.58 -0.56,0.84 0.28,0.65 -0.35,0.58 -1.92,-2.15 -5.4,-2.7 0.52,-0.63 -0.38,-0.49 -1.32,0.35 -1.52,-2.32 0.68,-1.33 -0.44,-0.63 -1.19,0.43 -0.4,-0.96 -1.27,-0.09 -0.41,0.23 0.24,0.6 -0.24,0.71 0.48,0.27 -0.68,1.09 -0.5,0.23 -0.06,-0.59 -0.38,-0.15 0.21,-0.44 -0.81,-0.31 -1.19,0.2 0.28,0.81 -0.81,0.23 -1.83,-2.13 1.17,-0.17 0.42,-0.44 0.05,-0.8 0.93,0.87 0.89,-0.43 0.23,-0.99 0.68,0.15 0.46,-0.49 -0.34,-1.31 -1.1,-0.04 -1.02,0.64 -0.87,1.83 -1.57,-0.48 -0.16,0.52 -0.63,-0.11 -0.37,-1.12 -1.72,-1.57 -0.47,0.45 1.6,1.16 0.08,0.75 -1.6,-1.01 -2.87,-0.52 -0.18,-0.33 2.04,0.27 0.07,-1.96 -0.5,-0.04 -1.61,-1.32 -1.08,0.28 -0.37,-0.69 0.17,-2.66 0.24,-0.09 -0.35,-1.08 -0.45,-0.16 -0.04,-0.67 0.7,-2.13 0.35,0.04 0.02,-0.83 2.14,-3.42 0.7,-2.41 1.04,-1.11 0.25,0.11 -0.21,0.99 -0.86,0.28 -0.59,2.71 0.42,0.55 0.31,-0.17 0.38,-0.98 -0.34,-0.58 0.17,-0.27 0.34,0.51 0.81,-1.72 0.18,-1.67 z" 
                fill="rgb(151, 144, 238)" 
                stroke="white" 
                stroke-width=".7px"
                title="Sinaloa" 
                id="MX-SIN" 
            />
        </svg>