<svg xmlns="http://www.w3.org/2000/svg" viewBox="606.8478600000002 390.3324399999999 78.85999999999979 36.54000000000019" width="78.85999999999979" height="36.54000000000019">
            <path 
                d="m 620.40786,397.20244 -4.06,1.46 -0.39,0.56 -1.89,0.16 6.34,-2.18 z m 28.1,-6.87 1.14,3.72 0.63,0.91 1.44,1 0.99,0.05 0.69,1.06 0.53,-0.13 0.08,-0.42 0.36,0.16 1.11,1.42 -0.18,1.97 0.45,0.32 1.08,2.59 1.22,1.83 3.47,2.33 0.87,1.43 1.31,0.66 1.5,-0.15 2.21,1.12 1.29,-0.64 1.68,-0.11 0.3,-0.72 -0.34,-1.82 0.3,-1.3 2.79,-0.13 3.65,0.8 1.64,1.55 1.56,0.66 0.77,0.9 0.68,-0.42 3.98,1.58 -0.02,1.64 0,0 -0.21,14.5 -10.56,0.18 0,0 0.53,-1.03 0.76,-0.28 -1.1,-1.79 -1.31,-0.37 -0.19,-0.83 -4.34,-1.2 0.75,-2.66 -1.27,-3.3 -2.56,-1.26 -0.05,-2.01 -1.06,-1.36 -1.21,0.28 -1.19,-0.18 -0.59,0.44 -0.56,-0.3 0.12,-0.59 -1.45,-0.37 -0.71,1.84 -1.95,0.03 -1.77,-0.48 0.04,0.44 -0.43,-0.08 -0.12,0.37 0.41,1.75 -0.39,0.78 -3.29,1.19 -0.57,0.83 -5.83,4.27 -2.42,2.25 -1.91,0.84 -0.81,-0.31 -0.66,-0.87 -0.04,-0.66 -1.21,-1.94 -0.54,-0.2 -0.44,0.35 -1.25,0.06 -0.36,-0.33 0.3,-1.87 -2.07,-2.18 -0.38,-0.93 0.14,-0.58 1.42,-2.12 0.35,-1.69 -2.79,0.09 -0.77,-0.35 -1.39,-1.69 -2.14,-0.85 -0.54,0.61 -1.66,0.28 -0.75,7.08 -0.59,1.16 -1.2,0.79 -1.39,1.87 -0.06,1.61 -2.53,3.17 0,0 -1.93,-0.76 -0.38,-2.2 0.38,-1 -0.17,-1.25 -1.11,-3.08 -0.44,-0.48 -2.51,-0.97 -0.42,-0.58 -1.16,-0.04 -1.44,-2.03 -1.39,-0.39 -1.06,-0.96 0.02,-3.02 -0.56,-1.47 -0.12,-2.83 -0.51,-0.4 0.86,-0.87 0.92,0.51 0.24,-0.29 -2.27,-0.39 1.89,-0.89 0,0 4.46,-1.51 0.14,1.24 2.66,-0.47 0.58,-0.41 -0.29,-0.97 0.71,-0.41 1.04,-0.14 0.23,0.44 0.75,0.06 1.31,-0.24 0.6,-0.63 -0.12,-1.19 3.28,-0.8 0.25,0.68 0.85,-0.87 5.38,-0.23 0.88,0.41 -0.67,0.56 0.07,0.89 0.8,0.04 0.8,-0.44 0.07,0.28 0.67,0 0.38,-0.56 -1.83,-0.75 1.08,-0.46 2.89,0.28 2.22,-0.3 3.01,-1.63 2.29,-2.75 5.28,-0.99 z" 
                fill="rgb(151, 144, 238)" 
                stroke="white" 
                stroke-width=".7px"
                title="Tabasco" 
                id="MX-TAB" 
            />
        </svg>