<svg xmlns="http://www.w3.org/2000/svg" viewBox="456.94786000000005 145.89244000000014 74.46000000000055 150.21999999999986" width="74.46000000000055" height="150.21999999999986">
            <path 
                d="m 517.14786,239.79244 -0.24,4.46 -0.28,0.09 0.52,-4.55 z m 6.77,-26.4 0.46,0.16 -2.84,6.97 -0.33,-1.37 0.25,-0.9 0.58,-0.5 0.14,-1.01 1.74,-3.35 z m -8.7,81.32 -2,1.4 -1.52,-1.64 -0.42,-1.14 -1.2,-1.05 -1.35,-0.17 -1.57,-1.2 -1.15,-0.39 -0.72,-1.3 -2.54,0.29 -0.4,0.7 0.21,0.69 -1.98,0.44 -0.15,-0.6 -0.41,0.18 -0.73,-0.58 -1.11,-0.22 -4.16,0.25 -1.78,1.01 0,0 -0.96,-0.17 -2.14,0.44 -1.89,-1.18 -0.71,0.79 -2.32,0.08 -2,-0.39 -1.79,0.22 -2.15,-2.85 -0.92,-2.52 -0.83,-1.17 -1.38,-1.08 -1.69,-0.56 -0.81,-1.29 -0.62,-0.33 -0.97,0.56 0.05,1.03 -0.65,0.43 -2.2,-0.73 -3.26,-0.26 -4.21,-1.37 -1.09,-0.93 -0.19,-0.69 -0.23,-2.98 0.34,-3.63 -0.48,-1.15 -1.03,-0.78 -0.15,-2.05 -0.89,-1.06 0,0 0.42,-0.77 -0.54,-1.35 0.8,-0.68 3.1,0.38 0.21,-1.77 -0.39,-2.84 0.33,-0.96 1.47,-1.77 0.67,-2.81 2.31,-1.23 2.55,0.68 0.71,-0.14 1.75,-0.97 0.34,-1.51 0.36,-0.1 2.25,0.45 -0.76,-2.34 -1.37,-0.78 -1.4,-3.63 -1.76,-2.09 0.86,-6.77 -1.26,-2.63 -1.84,0.09 -0.22,-0.28 0.69,-2.1 2,-1.35 2.87,-1.27 1.31,-2.13 1.75,0.11 1.12,-1.6 1.15,-0.48 0.36,-1.03 0.38,-0.13 0.39,1.52 1.11,-0.45 0.47,-1.6 0.92,-0.69 0.91,-0.09 0.38,-1.67 -0.67,-0.36 -0.6,-2.24 0.25,-0.4 1.26,-0.41 1.46,-1.97 0.51,0.04 0.6,1.17 2.8,0.23 0.75,-2.03 0.99,-1.14 4.38,-0.85 0.99,-1.13 0.77,-0.08 1.37,-1.44 1.25,-0.63 0.59,-1.37 1.54,-1.57 -0.02,-0.52 -0.4,-0.27 -2,-0.63 -0.99,-0.83 0.41,-0.8 -0.69,-1.57 0.21,-2.07 0.47,-0.77 -0.59,-1.52 0.3,-3.34 -0.8,-1.02 -0.13,-1.47 -0.69,-0.44 -3.39,0.68 -1.06,-0.15 -2.66,1.52 -0.96,-0.54 -1.19,-2.34 -0.65,-0.59 -3.28,-0.46 -0.38,-0.66 -0.82,-0.46 0.9,-0.33 -0.76,-1.34 0.36,-0.72 -0.18,-0.6 -0.63,-0.05 -0.75,0.74 -0.69,-0.09 -1.17,-1.62 0.06,-0.99 -1.42,0.12 -1.81,-2.48 -1.25,-4.14 -1.88,-0.23 -0.85,-1.9 -0.67,-0.4 -0.88,0.38 -0.8,-0.82 0.23,-3.22 0.47,-1.29 -0.52,-0.78 -1.26,-0.66 -1.46,0.05 -0.13,-1.12 0.81,-2.39 1.64,-1.39 -0.42,-3.19 -1.15,-1.14 -0.24,-1.38 0.22,-2.46 -1.27,-0.87 1.17,-1.42 -0.05,-0.88 -4,-0.19 -0.6,-0.45 0.35,-1.07 -0.27,-0.79 0.62,-0.69 2.78,-0.8 1.28,-1.72 0.65,-0.34 0,0 0.18,0.29 1.26,0 0.11,0.71 0.7,0.18 0.18,-0.39 0.75,0 0.7,1.05 0.34,-0.27 0.36,0.2 0.71,1.22 -0.38,1.72 0.75,0 0.44,0.53 -0.34,2.9 -0.99,1.99 1.04,0.14 -0.13,0.93 0.27,0.28 0.74,-0.19 0.36,0.55 0.39,1.93 -0.35,2.01 0.31,0.46 -0.52,0.66 0.16,1.22 0.76,0.16 0.83,1.21 -0.29,0.39 0.46,0.73 1.06,0.31 0.42,1.5 0.77,0.27 1.02,2.08 -0.06,0.78 0.88,1.05 0.47,2.36 0.42,0.22 0.1,2.37 1.22,0.55 0.71,1.17 -0.47,1.26 0.97,1.02 0.81,-0.42 0.8,0.55 0.87,-0.21 0.48,0.13 0.05,0.6 0.75,-0.11 0.74,0.58 0.36,-0.28 1.93,-0.01 0.33,0.89 1.29,0.26 1.52,2.03 2.38,-0.11 0,0.58 0.31,-0.11 0.18,0.44 0.5,-0.48 0.94,0.46 -0.05,0.42 1.6,-0.35 0.01,0.66 1.35,1.21 1.32,-0.12 0.04,0.76 0.75,0.8 1.49,0.86 0.79,0.07 0.36,0.44 0.54,-0.52 0.7,0.6 1.73,-0.51 0.37,0.72 0.67,0.03 0.1,-0.51 1.26,-0.17 0.35,0.36 2.62,-0.27 0.7,0.42 0.74,-0.35 0.39,0.23 -0.15,0.48 0.83,0.24 2.89,-0.01 1.11,1.91 0.45,-0.13 0.5,0.98 0.39,-0.27 0.73,1.35 1.9,0.57 -0.19,0.31 0.64,0.43 1.51,-0.27 -0.11,-1.67 0.7,-0.59 0.48,0.32 0.18,-0.35 0.93,-0.04 0.07,-0.51 1.62,-0.27 1.37,-0.05 0.35,0.28 -0.33,4.95 -0.98,3.8 -5.65,11.07 -0.79,-0.25 1.81,-3.11 -0.71,-0.57 0.46,-0.61 -0.41,-0.59 -1.12,0.05 0.16,-0.55 -1.54,-0.16 -0.62,-0.79 -1,1.08 0.73,-0.13 0.69,1.12 0.22,-0.19 0.33,1.1 -0.31,0.25 -0.24,-0.53 -0.63,0.2 -0.38,0.77 0.35,0.19 0.31,1.24 -0.77,0.28 -0.3,-1.37 -0.83,0.61 -0.36,-0.59 -0.01,-1.12 -1.79,-0.24 0.06,0.44 -0.87,0.81 0.51,0.81 -0.31,0.94 -0.52,0.08 -0.89,-0.6 -0.21,0.56 0.56,0.09 0.65,0.89 0.31,-0.21 0.58,0.32 -0.19,0.78 0.89,0.66 -0.77,1.06 0.06,1.31 -1.34,2.92 0.4,0.45 0.74,-0.03 0.4,0.74 0.86,0.2 -1.51,1.13 -0.23,0.99 -0.42,0.07 -0.05,0.69 0.6,0.36 0.13,0.78 -0.54,2.97 0.41,0.11 0.33,0.83 -0.87,4.23 -0.51,0.04 -0.28,-0.54 0.13,-1.43 -0.97,0.28 -0.87,-0.65 0.23,0.93 -0.69,0.44 0.41,0.56 -0.3,1.03 0.92,2.21 0.38,0.18 -0.22,0.7 0.6,-0.15 0.12,-1.64 0.76,-0.7 0.24,3.22 -0.68,6.41 -0.35,0.47 -0.23,-0.08 0.26,-0.56 -0.59,-0.08 -0.05,0.5 0.89,0.43 0.04,7.06 0.88,0.46 0.04,0.41 -0.44,0.32 -0.35,2.07 0.18,0.66 0.35,0.09 0.1,-1.98 -0.25,0.04 -0.08,-0.71 0.53,-0.31 -0.94,9.63 0.3,11.01 -0.21,3.59 -0.47,0.65 -0.38,1.92 -1.25,1.51 -0.98,2.08 -0.17,1.21 0.98,0.73 0.05,2.82 -0.39,-0.03 -0.01,0.99 0.56,1.95 0.45,-0.13 1.17,2.73 -0.16,0.36 z" 
                fill="rgb(151, 144, 238)" 
                stroke="white" 
                stroke-width=".7px"
                title="Tamaulipas" 
                id="MX-TAM" 
            />
        </svg>