<svg xmlns="http://www.w3.org/2000/svg" viewBox="493.15786000000014 360.99244 28.229999999999905 16.510000000000048" width="28.229999999999905" height="16.510000000000048">
            <path 
                d="m 505.90786,362.68244 2.06,0.38 0.61,-0.24 1.55,-1.83 0.49,0.07 0.71,1.06 4.1,3.41 -0.13,1.73 0.84,0.17 1.53,-0.5 0.59,0.38 1.21,1.24 0.31,1.17 0.67,0.6 0.94,0.2 -0.28,1.15 -0.82,0.55 -2.68,0.51 -0.84,-0.32 -1.4,2.33 -1.24,0.84 -0.77,0.05 -1.46,-0.99 -0.57,0.04 -3.07,2.68 -0.86,0.14 -4.06,-2.24 -1.18,-1.31 -0.54,-1.38 -1.32,-1.38 -3.03,-2.31 -1.16,-0.37 -0.7,0.29 0,0 -0.53,-0.6 -0.76,0.25 -0.96,-1.83 0,0 5.01,-1.71 1,0.23 2.09,-0.28 1.45,-1.21 0.82,-1.47 z" 
                fill="rgb(151, 144, 238)" 
                stroke="white" 
                stroke-width=".7px"
                title="Tlaxcala" 
                id="MX-TLA" 
            />
        </svg>