<svg xmlns="http://www.w3.org/2000/svg" viewBox="492.2378599999998 289.22244000000006 127.69 140.25000000000006" width="127.69" height="140.25000000000006">
            <path 
                d="m 524.98786,315.32244 -0.73,2.05 -0.82,0.98 -0.12,-1.51 1.67,-1.52 z m -7.43,-10.52 1.69,3.57 -0.48,-0.14 -0.97,-1.58 -0.24,-1.85 z m 2.09,1.04 1.9,2.41 5.33,4.9 -0.65,3.08 -1.71,4.14 -0.52,0.45 -0.18,-2.06 1.77,-3.43 -0.13,-1.33 -1.75,-1.65 -1.29,-2 -2.83,-3.13 -1.48,-3.68 -0.47,0.12 0.08,-0.8 1.93,2.98 z m -27.41,-14.46 1.78,-1.01 4.16,-0.25 1.11,0.22 0.73,0.58 0.41,-0.18 0.15,0.6 1.98,-0.44 -0.21,-0.69 0.4,-0.7 2.54,-0.29 0.72,1.3 1.15,0.39 1.57,1.2 1.35,0.17 1.2,1.05 0.42,1.14 1.52,1.64 2,-1.4 0,0 0.63,5.37 1.66,4.54 -0.12,1.02 -0.4,0.22 0.62,1.35 0.43,3.26 0.83,0.93 0.08,1.11 1.85,3.26 1.51,-0.34 0.52,0.75 -0.38,1.3 0.5,1.74 0.99,0.8 0.07,1.12 0.51,0.17 0.74,2.9 4.69,9.94 0.64,2.94 0.79,1.36 4.18,4.12 0.71,1.22 5.91,6.38 3.46,4.36 0.64,1.38 2.61,2.89 1.15,3.28 0.11,2 0.64,1.06 -0.1,1.11 1.52,2.13 -0.18,1.8 0.67,2.64 1.72,1.32 1.22,0.46 0.17,0.7 0.99,0.45 0.96,1.36 -0.31,0.65 0.21,0.9 0.76,0.66 2.41,0.34 0.3,2.52 0.67,1.77 0.86,0.93 3.52,1.69 0.01,0.72 -2.04,-1.35 -0.97,-0.08 -0.06,0.3 0.47,0.15 0,0.65 0.75,0.32 0.31,0.61 -0.12,0.24 -0.67,-0.33 -0.34,0.29 0.17,0.5 1.17,-0.13 -0.07,-0.66 0.91,-0.27 0.63,0.3 0.22,-1.19 1.8,1.17 2.71,0.74 9.53,0.24 3,2.35 0.58,1.17 2.21,0.61 3.33,0.3 0.51,0.43 0.57,1.84 0.76,0.77 0.13,0.67 2.8,2.79 0.56,2.39 2.67,1.28 3.79,-0.39 7.27,-1.8 0,0 -1.89,0.89 2.27,0.39 -0.24,0.29 -0.92,-0.51 -0.86,0.87 0.51,0.4 0.12,2.83 0.56,1.47 -0.02,3.02 1.06,0.96 1.39,0.39 1.44,2.03 1.16,0.04 0.42,0.58 2.51,0.97 0.44,0.48 1.11,3.08 0.17,1.25 -0.38,1 0.38,2.2 1.93,0.76 0,0 -3.72,2.89 -1.95,0.86 -0.94,1.13 0,0 -28.57,-1.75 0.33,-1.37 -0.64,-0.57 0.01,-0.99 -3.45,-2.78 -3.36,-4.41 0.23,-1.13 1.49,-0.66 0.18,-0.68 -1.37,-0.84 -0.42,-0.06 -1.21,1.08 -3.66,0.92 -3.01,2.11 -2.87,0.16 -1.26,0.66 -1.96,-0.58 -2.18,-4.43 0.17,-1.17 -0.34,-0.72 0.73,-0.68 0.99,-2.58 0.81,-1.11 0.22,-1.25 -1,-3.79 -0.52,-0.44 -2.03,-0.48 -1.15,0.19 -1.43,-0.52 -2.47,0.79 -0.7,-0.35 0.53,-0.9 -1.38,-0.09 -1.02,-1.89 -1.39,-0.81 -1.31,0.38 -1.96,-1.56 -0.64,-0.9 -0.6,-2.74 0.58,-1.27 -1,-0.35 -1.15,-1.15 -0.65,0.61 -0.05,0.86 0.5,0.74 -0.3,0.96 -1.17,2.18 0,0 -1.85,-2.17 -2.58,-0.82 -1.39,0.8 -0.96,1.05 -1.43,-0.1 -1.86,-3.13 0.17,-0.75 -3.81,-1.12 -0.85,-0.72 -0.36,-1.12 0,-2.98 1.86,-2.41 0.07,-0.55 -0.52,-6.12 0.18,-0.9 4.82,0.22 0.53,-0.12 0.16,-0.7 -0.11,-1.29 -0.47,-0.59 -2.93,-1.27 -3.63,-0.82 -1.44,-0.99 -0.34,-0.42 0.56,-1.38 -1.38,-2.98 0.24,-0.7 0.57,-0.24 0.98,-2.63 0.67,-0.87 0.34,-0.97 -0.31,-0.98 0.19,-0.81 1.66,-4.28 2.15,-2.98 -0.07,-0.51 -7.06,-2.49 -0.82,0.67 -1.22,1.95 -1.61,1.4 -0.59,-0.19 -0.86,-1.78 -2.04,0.22 -0.68,-0.55 -0.46,-2.37 -0.06,-4.01 1.17,-0.76 1.61,0.92 1.5,-2.48 -0.48,-1.12 -2.22,-1.22 -0.81,-0.83 -0.16,-0.85 0.36,-0.83 -0.81,-0.6 -0.87,0.19 -0.16,-0.3 1.23,-0.76 0.01,-1.79 -2.03,0.32 -1.19,-0.39 -0.27,1.02 -0.88,0.94 -0.08,0.84 -0.97,0.75 -0.7,2.56 0,0 -1.45,-0.95 -0.83,0.36 -2.14,2.33 -1.6,0.73 -1.89,2.23 -2.48,1.15 -1.33,1.55 -0.5,0.22 -0.88,-1.08 -1.17,-2.59 0.25,-2.08 0.58,-1.3 0.33,-3.66 0.65,-0.54 0.31,-0.86 2.39,-2.16 0.46,0 1.34,1.39 1.45,-0.23 0.25,-0.63 -0.56,-1.05 0.63,-2.21 1.86,-2.46 -2.53,-3.42 -2.03,-0.62 -0.86,0.89 -1.32,-0.06 -1.26,-0.66 -1.83,-1.71 0.3,-2.66 -0.3,-0.75 -0.85,-0.17 0,0 -0.13,-3.35 -1.33,-0.22 -0.89,-3.31 0.21,-0.85 1.26,0 -0.05,-0.7 1.05,0.05 0.29,-0.82 1.71,-0.79 -1.19,-1.11 -0.04,-0.48 -0.45,0.12 -0.59,-0.73 0.13,-1.23 -0.35,-0.26 0.58,-0.53 -1.14,0 -0.38,-0.38 0.27,-0.42 2.18,0.26 0.41,-0.27 0.25,-0.67 -0.31,-2.55 1.06,-0.71 2.53,-0.05 -1.2,-3.56 -0.65,-0.73 -4.44,-1.38 -2.36,0.04 -0.53,-0.26 -0.23,-0.95 z" 
                fill="rgb(151, 144, 238)" 
                stroke="white" 
                stroke-width=".7px"
                title="Veracruz" 
                id="MX-VER" 
            />
        </svg>