<svg xmlns="http://www.w3.org/2000/svg" viewBox="699.9178600000004 311.48243999999994 72.29999999999973 52.480000000000075" width="72.29999999999973" height="52.480000000000075">
            <path 
                d="m 771.88786,315.18244 0.33,5.3 -0.14,0.76 -0.88,0.87 -0.47,3.16 1.33,3.2 -0.1,0.97 -1.14,2.05 -0.49,2.45 -0.86,1.08 -0.26,1.58 -0.86,1.17 -1.72,0.82 -3.13,2.7 -3.11,1.84 -1.51,-0.11 -1.53,0.44 -1.14,-1 -1.17,0.56 -1.5,2.76 0.25,2.19 -0.36,0.05 -0.93,-1.68 -1.01,-0.01 -0.5,0.42 -0.79,2.37 -0.46,0.48 -5.51,1.98 -1.78,1.04 -1.88,1.6 0.27,0.69 -0.3,0.32 -1.08,-0.92 -1.92,1.78 -1.19,0.41 -2.43,0.03 -2.43,1.05 -1.39,1.39 -3.54,0.17 -0.56,0.49 0.17,0.87 -0.32,1.45 -0.93,2.01 0,0 -0.44,-0.46 -0.79,-3.44 -3.16,-3.58 -1.18,-2.49 -3.85,-2.1 -1.99,-4.46 -1.82,-1.16 -0.57,-1.04 0.11,-0.91 -1.03,-1.76 -0.42,-0.28 -0.79,0.73 -0.4,1.01 -0.48,0.09 -0.94,-0.98 -1.12,0.34 -0.44,-0.18 -0.97,-2.01 -4.13,-0.52 0.16,-7.29 0,0 0.07,-1.38 0.61,-0.59 0.72,-1.71 -0.15,-0.52 -0.33,0.21 -1.11,3.43 -0.56,0.54 0.3,-1.55 1.02,-2.96 1.05,-1.38 5.6,-3.54 2.5,-0.57 2.08,-1.28 0.92,-0.01 0.26,-0.45 0.98,-0.31 2.9,-0.67 0.06,0.4 0.57,-0.01 -0.12,-0.29 0.65,-0.36 4,-0.73 16.6,-2.2 5.03,-1.91 0.56,-1.4 5.5,-1.17 3.23,0.26 1.33,-0.37 2.26,-1.47 2.09,0.47 -0.17,0.45 1.73,0.63 3.59,0.25 0.5,0.81 1.01,0.57 2.17,0.09 1.9,0.54 0.42,-0.41 -3.78,-0.93 z" 
                fill="rgb(151, 144, 238)" 
                stroke="white" 
                stroke-width=".7px"
                title="Yucatán" 
                id="MX-YUC" 
            />
        </svg>