<svg xmlns="http://www.w3.org/2000/svg" viewBox="350.7778599999999 216.01244 88.38000000000005 112.16999999999987" width="88.38000000000005" height="112.16999999999987">
            <path 
                d="m 391.19786,219.24244 0.02,-1.63 0.63,-0.53 5.4,-1.07 9.4,0.61 2.54,1.71 2.5,0.97 1.96,1.66 2.16,3.07 1.47,-0.41 1.16,0.32 0.62,3.56 2.83,0.02 0.92,-0.88 2.27,-0.51 2.96,0.37 1.25,0.82 1.92,3.76 1.37,1.3 2.09,0.81 1.44,-0.37 0.18,-0.78 0.75,-0.32 2.12,0.47 0,0 -0.55,0.42 0,0 -0.81,0.44 -0.36,1.78 -1.19,1 -0.69,1.72 -0.98,0.5 -1.58,-0.07 -0.67,0.52 -0.21,1.49 -0.92,1.78 -1.36,0.88 -1.87,0.48 -0.64,0.62 -0.83,3.45 1.01,1.18 -1.18,2.96 -1.1,1.54 -4.74,1.59 -3.48,5.14 -3.56,2.13 -2.28,0.84 -0.85,1.03 -0.52,1.44 -2.94,0.58 -2.32,-0.93 -0.66,0.2 -0.87,1.67 0.62,0.81 -0.51,1.69 1.03,3.02 -1.26,3.99 -0.2,1.26 0.25,1.51 0.94,1 4.18,2.53 1.11,1.32 2.31,0.34 1.07,0.58 0.92,2 1.48,2.02 2.08,0.05 2.43,-0.73 4.45,-4.61 1.46,-0.7 0.71,-0.05 1.97,2.58 -0.19,1.65 -3.3,7.3 1.38,3.86 -0.36,1.64 -0.39,-0.03 -0.13,0.55 0.26,0.18 -0.35,0.96 -1.93,3.97 0,0 -0.81,0.94 -0.97,-0.63 0,0 -0.28,-0.39 -2.09,-0.75 -2.67,-2.35 -2.13,-1.14 -3.54,-0.91 0,0 -1.14,-2.04 -0.59,-2.44 -4.44,-2.63 -1.33,-1.34 -0.77,-1.39 -0.73,0.17 -0.39,1.26 -1.21,0.92 -3.47,1.97 -1.79,0.38 -1.07,0.73 -0.93,3.24 -3.33,4.59 -1.24,2.87 0.07,1.21 2.34,2.26 0,0 -0.09,2.21 0.65,1.85 2.78,1.78 -0.48,2.69 -0.96,1.31 -2.29,1.4 -3.58,2.91 -1.52,-0.5 -1.37,0.49 -0.63,0.54 -0.33,2.02 -1.47,0.52 -0.11,0.37 -1.71,-0.43 -1.34,0.26 -0.22,0.56 -0.88,-0.07 -0.99,0.48 -2.9,-1.61 -2.26,0.19 -0.94,-0.49 -0.75,-1.7 -0.75,-0.81 -2.5,-0.62 -0.17,-0.5 4.04,-1.81 1.17,-1.12 0.1,-1.02 -0.34,-0.58 -0.67,-0.14 -1.02,0.49 -0.93,-0.54 -0.85,-2.48 1.79,-0.46 1.62,-1.88 0.33,-2.47 -0.18,-1.79 2.92,-2.07 1.77,-1.73 3.28,-1.68 1.26,-0.2 0.74,-0.69 1.19,-2.91 0.7,-3.47 -0.51,-0.38 -2.15,-0.14 -0.5,-0.44 0.76,-1.51 -0.41,-0.86 -2.17,-0.17 -1.88,0.73 -0.31,1.87 1.24,1.03 -2.39,1.89 -0.93,1.73 -0.9,0.44 -0.71,-0.52 -1.27,-0.2 -0.69,0.8 -1.93,-0.02 -0.58,-0.66 0.09,-0.45 3.78,-6.17 0.04,-1.16 -0.6,-1.93 -1.4,-1.32 -1.42,-0.51 -3.43,0.67 -0.63,0.57 0,7.04 -0.38,1.16 -1.16,-0.17 -1.21,-1.78 0.04,-3.32 1.69,-4.22 1.45,-1.87 1.1,-0.82 0.17,-0.91 -1.81,-1.01 -2.66,0.38 -2.16,1.53 -0.11,0.79 1.74,3.84 0.16,1.43 -1.03,1.18 -1.8,1.14 -0.27,-0.49 1.05,-3.24 -0.53,-0.37 -3.1,1.17 -0.36,3.03 -1.35,-0.34 -1.08,1.21 0,0 -0.72,-0.43 -0.43,-0.96 -0.2,-2.77 0,0 1.16,-3.05 1.01,-1.51 3.21,-1.42 0.25,-0.63 0.16,-5.55 -0.85,-3.09 0.08,-1.28 1.37,-2.73 0.61,-0.37 1.29,-5.77 0.09,-1.88 2.32,-2.89 2.8,-2.42 -0.89,-4.27 0.45,-1.2 -0.37,-1.89 0.31,-1.68 -0.37,-1.65 -0.78,-0.51 0.23,-1.32 2.4,-0.72 2.26,-2.14 2.07,-2.83 2.4,-1.82 0.47,-1.34 1.71,-1.37 3.9,0.27 2.23,0.7 2.25,-0.8 1.12,0.1 1,0.7 2.66,0.87 0.76,-0.91 1.68,0.23 6.07,-0.58 0.12,-0.68 -0.5,-0.37 0.02,-0.41 0.97,-0.52 -1.02,-4 -1.21,-0.45 0.81,-4.9 -0.8,-0.94 -1.53,-0.71 -0.36,-1.1 -0.75,-0.34 -0.04,-1.65 z" 
                fill="rgb(151, 144, 238)" 
                stroke="white" 
                stroke-width=".7px"
                title="Zacatecas" 
                id="MX-ZAC" 
            />
        </svg>