<svg xmlns="http://www.w3.org/2000/svg" viewBox="369.41983999999997 0.25527999999998474 312.57999999999976 461.14000000000004" width="312.57999999999976" height="461.14000000000004">
            <path 
                d="m 538.64984,1.84528 0,0 3.68,1.15 -2.67,2.78 -2.58,3.68 -1.06,3.78 1.11,3.61 4.89,3.37 1.11,4.58 -0.71,1.98 -1.26,1.91 -0.91,2.01 0.56,2.01 2.95,1.98 2.67,-0.42 2.19,-1.18 1.38,-0.38 4.13,2.99 1.43,2.08 1.31,8.68 2.05,4.89 6.11,10.13 1.98,6.84 3.12,4.06 0.68,2.74 -0.33,1.05 -0.77,1.45 -0.79,1.98 -0.35,2.5 1.8,5.38 4.34,3.26 9.89,4.1 3.54,2.5 5.03,4.79 3.09,1.87 22.17,8.23 6.59,0.94 6.53,3.95 1.91,8.78 -0.63,8.75 -1.04,3.96 -1.79,1.94 2,4.38 5.55,7.42 4.16,4.45 1.5,2.57 3.26,12.08 3.23,7.56 5.25,4.13 7.98,-3.05 2.45,7.12 -0.28,8.64 -4.34,26.49 -0.1,3.61 0.76,1.73 2.99,4.58 0.83,3.09 -3.85,9.24 1.18,3.54 2.67,13.47 -1.84,5.69 -3.42,5.04 -1.89,5.17 2.57,6.01 -5.45,4.27 -2.04,2.18 -1.67,2.71 10.06,1.6 1.01,8.89 -4.43,19.55 6.29,-1.36 6.05,3.02 5.12,5.14 3.59,4.86 2.81,9.76 -11.55,37.4 -2.92,14.79 1.42,22.99 -1.42,6.84 -3.47,6.28 -4.37,3.17 -5.64,2.5 -5.19,2.98 -4.68,1.15 -2.43,1.39 -3.05,0.83 -2.75,-0.66 -17.52,-8.65 -3.61,-1.14 -4.34,0.59 -3.85,3.02 -4.79,9.03 -3.76,3.16 -7.03,0.38 -7.28,-2.08 -7.15,-0.91 -6.49,3.83 -11.03,-0.42 -11.18,-5.25 -18.23,-14.96 -1.93,-2.64 -1.73,-4.73 -1.6,-1.84 -1.14,0.42 -10.62,-2.54 -1.63,-0.83 -5.4,1.6 -3.28,3.05 -1.39,1.83 -1.54,2.03 -4.32,3.99 -4.82,2.47 -6.32,2.05 -6.42,1.32 -5.41,0.24 -4.17,-0.94 -10.47,-5.1 -3.91,-0.38 -1.2,2.25 -0.17,3.16 -0.69,2.37 -15.17,19.03 -5.72,3.96 -7.5,0.24 -7.7,-2.99 -7.01,-4.65 -5.52,-4.83 -10.41,-12.33 -4.09,-3.16 -3.84,-1.35 -3.22,-0.11 -2.83,0.28 -2.6,-0.38 -5.92,-5.09 -0.58,-0.5 0.79,-0.92 0.45,-0.96 0.39,-0.83 0.79,-6.44 1.2,-6.3 0.12,-0.63 0.18,-0.52 4,-11.66 1.86,-16.5 -0.56,-11.15 3.61,-6.98 5,-5.46 2.22,-4.08 0.04,-3.88 0.01,-6.09 0.4,-3.25 1.53,-1.3 3.23,-1.42 2.08,-1.15 1.75,-1.84 2.41,-0.66 1.22,1.44 1.56,2.07 2.88,0.31 2.06,-0.26 0.94,-0.29 1.13,-0.28 1.99,-0.38 2.21,-0.49 1.94,-0.61 3.02,-0.64 2.7,-0.24 0.98,-0.04 1.14,-0.21 0.82,-1.25 2.01,-1.71 2.34,-1.72 1.93,-1.01 3.59,-1.56 4.08,-1.44 4.11,1.16 3.54,4.65 2.27,3.49 2.55,3.2 2.19,3.03 2.27,-3.22 2.65,-6.08 2.22,-12.12 1.01,-12.12 0.21,-3.88 1.82,-2.09 4.84,-2.05 4.58,-2.18 1.58,-2.83 0.12,-6.6 -0.69,-5.5 -1.98,-2 -2.08,-2.55 0.22,-4.64 -1.28,-4.84 -2.29,-3.26 -0.43,-1.79 1.33,-0.97 2.38,-2.52 2.88,-1.98 1.91,-1.14 -0.11,-5.12 -2.6,-10.32 -3.47,-11.52 -1.2,-7.05 1.29,-3.73 1.12,-3.85 -1.97,-4.52 -4.79,-5.19 -6.53,-8.1 -6.09,-7.92 -4.37,-4.61 -3.31,-5.97 -2.59,-6.84 -1.4,-7.52 1.77,-5.64 2.67,-2.39 0.14,-1.55 -1.84,-0.99 -3.28,0 -4.01,1.41 -3.03,0.92 -0.25,-3.09 -0.85,-5.17 -1.42,-3.16 -2.9,-6.32 -2.93,-5.47 -3.75,-5.65 -4.23,-7.08 -2.19,-1.76 -1.85,-2.53 -1.06,-3.42 -1.89,-1.49 -0.97,-0.26 -1.41,-0.73 -0.01,-0.01 9.91,-5.31 13.71,-5.34 3.64,-3.4 1.74,-5.11 2.05,-13.01 2.39,-4.58 2.64,-1.57 2.67,-0.45 2.67,-0.2 2.48,-0.73 5.19,-3.09 14.94,-14.2 4.39,-5.62 3.61,-6.07 0.64,-2.23 0.74,-4.82 0.98,-2.01 1.14,-0.95 1.22,-1 5.62,-2.53 2.04,-1.7 1.74,-5.1 2.17,-13.88 2.83,-4.79 5.13,-1.84 5.55,0.83 5.73,1.67 5.65,0.72 5.28,-1.31 4.41,-1.98 4.56,-0.63 5.11,1.59 z" 
                fill="rgb(151, 144, 238)" 
                stroke="white" 
                stroke-width=".7px"
                title="Eastern" 
                id="RW-02" 
            />
        </svg>