<svg xmlns="http://www.w3.org/2000/svg" viewBox="376.5598400000001 242.29527999999988 98.8599999999999 99.19000000000011" width="98.8599999999999" height="99.19000000000011">
            <path 
                d="m 458.91984,261.54528 0,0 5.5,1.83 2.47,0.36 0.43,1.79 2.29,3.26 1.28,4.84 -0.22,4.64 2.08,2.55 1.98,2 0.69,5.5 -0.12,6.6 -1.58,2.83 -4.58,2.18 -4.84,2.05 -1.82,2.09 -0.21,3.88 -1.01,12.12 -2.22,12.12 -2.65,6.08 -2.27,3.22 -2.19,-3.03 -2.55,-3.2 -2.27,-3.49 -3.54,-4.65 -4.11,-1.16 -4.08,1.44 -3.59,1.56 -1.93,1.01 -2.34,1.72 -2.01,1.71 -0.82,1.25 -1.14,0.21 -0.98,0.04 -2.7,0.24 -3.02,0.64 -1.94,0.61 -2.21,0.49 -1.99,0.38 -1.13,0.28 -0.94,0.29 -2.06,0.26 -2.88,-0.31 -1.56,-2.07 -1.22,-1.44 -2.41,0.66 -1.75,1.84 -2.08,1.15 -3.23,1.42 -1.53,1.3 -0.8,-0.6 -2.11,-0.66 -1.91,-0.63 -1.46,-0.21 -2.88,-1.78 -2.05,-4.08 0.65,-3.25 2.46,-2.5 2.72,-1.09 1.18,-1.29 1.53,-2.57 -2.19,-5.17 -3.17,-5 1.14,-1.74 0.65,-2.12 0.24,-2.13 0.05,-1.29 0.11,-0.62 0.57,-1.48 -0.97,-2.43 -1.01,-2.53 -1.01,-2.08 -0.97,-1.32 -0.69,-1.11 -0.9,-2.56 -1.01,-2.86 -0.68,-1.13 0.18,-0.43 0.88,-0.35 1.25,-0.97 -1.32,-4.03 -1.84,-5.1 1.49,-3.41 2.76,-4.58 2.55,-4.06 3.23,-1.11 4.48,2.91 4.13,2.78 4.4,-2.6 3.65,-4.2 1.87,-2.47 6.8,-3.05 8.23,-1.46 3.19,0.49 1.84,-2.37 2.32,-5.71 1.7,-4.39 2.62,1.18 5.55,3.27 11.07,7.36 10.48,7.44 z" 
                fill="rgb(151, 144, 238)" 
                stroke="white" 
                stroke-width=".7px"
                title="Kigali City" 
                id="RW-01" 
            />
        </svg>