<svg xmlns="http://www.w3.org/2000/svg" viewBox="137.79984000000005 225.59527999999975 252.12000000000015 368.6600000000002" width="252.12000000000015" height="368.6600000000002">
            <path 
                d="m 290.38984,232.26528 0,0 4.2,-0.78 2.58,0.42 1.2,3.1 3.45,5.38 4.48,6.67 3.95,6.11 4.69,4.44 1.68,4.83 6.37,4.06 9.17,3.12 6.48,-0.06 6.66,-1.22 5.86,0.14 4.06,1.21 2.31,1.67 2.67,1.39 2.48,1.68 2.12,2 2.74,2.74 3.23,3.47 3.26,2.23 2.67,0.52 0.89,0.59 -0.18,0.43 0.68,1.13 1.01,2.86 0.9,2.56 0.69,1.11 0.97,1.32 1.01,2.08 1.01,2.53 0.97,2.43 -0.57,1.48 -0.11,0.62 -0.05,1.29 -0.24,2.13 -0.65,2.12 -1.14,1.74 3.17,5 2.19,5.17 -1.53,2.57 -1.18,1.29 -2.72,1.09 -2.46,2.5 -0.65,3.25 2.05,4.08 2.88,1.78 1.46,0.21 1.91,0.63 2.11,0.66 0.8,0.6 -0.4,3.25 -0.01,6.09 -0.04,3.88 -2.22,4.08 -5,5.46 -3.61,6.98 0.56,11.15 -1.86,16.5 -4,11.66 -0.18,0.52 -0.12,0.63 -1.2,6.3 -0.79,6.44 -0.39,0.83 -0.45,0.96 -0.79,0.92 -2.3,-1.98 -2.69,-1.53 -3.43,0.1 -0.98,1.88 0.04,3.13 -2.19,17.19 2.42,25.84 -7.27,25.39 -1.41,34.46 -0.16,3.74 -1.8,7.4 -3.19,7.33 -4.1,6.95 -4.47,6.08 -6.87,6.98 -6.32,3.72 -6.78,1.28 -8.35,-0.24 -7.49,-2.26 -3.85,0.04 -2.5,3.12 -1.11,7.06 -1.46,3.12 -3.26,1.98 -7.51,0.94 -6.34,-0.97 -13.96,-4.62 -3.6,-1.18 -2.39,-0.14 -9.99,3.61 -2.5,1.53 -2.67,1.04 -3.47,-0.14 -7.36,0.98 -6.28,3.99 -6.38,2.15 -7.81,-4.41 -12.15,-2.26 -6.49,-1.21 -6.02,0.69 -14.48,6.29 -8.26,0.77 -2.97,-6.4 -0.4,-4.2 -3.12,-6.98 -0.76,-3.89 1.14,-3.51 4.65,-5.7 0.73,-3.82 -2.05,-4.17 -7.28,-6.84 -0.08,-0.31 6.34,-3.35 1.69,-0.51 3.07,-1.61 4.73,-8.46 1.11,-12.12 -3.92,-5.77 -1.68,-2.52 -0.45,-2.36 0.4,-3.11 0.64,-3.28 -1.39,-2.1 -1.66,-3.3 -2.54,-3.35 -2.01,-4.19 -0.73,-5.1 -2.77,-3.74 -4.52,-2.06 -6.24,-1.97 -4.06,-2.2 -0.31,-2.26 1.52,-4.41 2.92,-4.27 7.08,-3.79 6.88,-3.78 1.37,-3.06 -1,-3.79 -0.99,-3.16 2.83,-4.53 3.36,-5.33 0.28,-3.09 -2.29,-4.69 -2.22,-5.52 0.9,-4.55 3.4,-4.06 5.09,-2.61 4.98,-0.76 3.78,1.14 4.27,-1.92 6.24,-4.71 6.79,-1.11 5.81,-0.14 3.97,-0.17 2.05,0.29 4.89,-5.08 8.35,-6.53 4.47,-2.5 3.66,-3.23 4.29,-2.68 1.94,-2.05 1.39,-1.97 1.8,0.64 2.12,0.81 2.46,-0.97 2.75,-0.8 2.3,-1.3 3.59,-2.17 2.75,-1.46 -0.13,-4.6 -1.25,-4.63 -0.98,-2.09 0.36,-3.42 3.07,-5.64 1.91,-4.65 0.02,-2.5 1.23,-2.12 0.83,-1.63 1.65,-2.37 2.32,-3.57 0.54,-3.13 0.28,-2.91 0.38,-2.82 -0.99,-2.25 -1.18,-3.77 0.33,-7.1 -1.19,-7.4 -1.51,-3.38 3.41,0 5.05,0.22 3.89,-1.23 3.07,-2.76 0.78,-3.52 -1.49,-2.74 -1.29,-3.75 -0.08,-3.74 1.3,-2.6 1.73,-4.31 -0.93,-8.92 -1.6,-8.26 0.11,-4.06 1.11,-3.89 0.92,-9.36 -1.13,-11.28 -1.29,-6.09 -0.97,-3.41 -0.87,-1.21 2,-0.61 3.83,-0.54 3.75,0.7 5.52,3.66 6.3,2.31 z" 
                fill="rgb(151, 144, 238)" 
                stroke="white" 
                stroke-width=".7px"
                title="Southern" 
                id="RW-05" 
            />
        </svg>