<svg xmlns="http://www.w3.org/2000/svg" viewBox="0.25984000000002183 147.5452800000003 273.38000000000005 411.0400000000001" width="273.38000000000005" height="411.0400000000001">
            <path 
                d="m 205.07984,157.80528 0,0 8.1,9.51 7.24,2.5 6.35,2.01 2.74,-0.07 2.22,-0.88 1.33,0.81 1.79,0.56 5.45,2.55 6.23,3.09 6.78,-0.38 6.59,0.47 1.39,10.17 0.47,13.76 -0.14,9.74 -0.42,7.32 4.19,5.04 3.6,2.74 0.87,1.21 0.97,3.41 1.29,6.09 1.13,11.28 -0.92,9.36 -1.11,3.89 -0.11,4.06 1.6,8.26 0.93,8.92 -1.73,4.31 -1.3,2.6 0.08,3.74 1.29,3.75 1.49,2.74 -0.78,3.52 -3.07,2.76 -3.89,1.23 -5.05,-0.22 -3.41,0 1.51,3.38 1.19,7.4 -0.33,7.1 1.18,3.77 0.99,2.25 -0.38,2.82 -0.28,2.91 -0.54,3.13 -2.32,3.57 -1.65,2.37 -0.83,1.63 -1.23,2.12 -0.02,2.5 -1.91,4.65 -3.07,5.64 -0.36,3.42 0.98,2.09 1.25,4.63 0.13,4.6 -2.75,1.46 -3.59,2.17 -2.3,1.3 -2.75,0.8 -2.46,0.97 -2.12,-0.81 -1.8,-0.64 -1.39,1.97 -1.94,2.05 -4.29,2.68 -3.66,3.23 -4.47,2.5 -8.35,6.53 -4.89,5.08 -2.05,-0.29 -3.97,0.17 -5.81,0.14 -6.79,1.11 -6.24,4.71 -4.27,1.92 -3.78,-1.14 -4.98,0.76 -5.09,2.61 -3.4,4.06 -0.9,4.55 2.22,5.52 2.29,4.69 -0.28,3.09 -3.36,5.33 -2.83,4.53 0.99,3.16 1,3.79 -1.37,3.06 -6.88,3.78 -7.08,3.79 -2.92,4.27 -1.52,4.41 0.31,2.26 4.06,2.2 6.24,1.97 4.52,2.06 2.77,3.74 0.73,5.1 2.01,4.19 2.54,3.35 1.66,3.3 1.39,2.1 -0.64,3.28 -0.4,3.11 0.45,2.36 1.68,2.52 3.92,5.77 -1.11,12.12 -4.73,8.46 -3.07,1.61 -1.69,0.51 -6.34,3.35 -1.16,-4.56 0.44,-3.96 -0.25,-1.56 -4.09,-3.06 -6.14,-3.5 -7.1,-1.71 -14.17,-1.77 -7.5,-2.29 -20.38,-8.89 -5.47,-0.8 -19.53,1.28 -7.62,7.47 -5.78,33.63 -5.12,-5.74 -6.88,-3.4 -10.03,-1.08 -4.48,-1.77 -12.52,-8.2 -2.61,-2.67 2.26,-25.67 -2.26,-7.82 -3.45,-3.5 -3.76,-1.81 -2.99,-2.05 -1.25,-4.31 1.22,-4.41 5.83,-5.21 -1.18,-4.1 -3.4,-6.07 -1.25,-6.67 -0.68,-7.19 2.52,-8.82 4.71,-4.07 9.03,-3.12 7.01,-2.05 5.81,-3.44 4.77,-4.86 3.89,-6.08 2.53,-5 1.14,-3.61 0.4,-2.92 3.46,-3.23 2.84,-1 9.66,0.31 14.94,-3.96 11.56,-9.13 8.39,-13.09 5.28,-15.91 1.94,-14.03 -0.69,-12.08 -8.92,-52.74 -0.73,-12.29 1.67,-12.01 6.31,-14.79 12.54,-20.06 8.59,-13.76 7.08,-13.43 4.06,-5.94 16.21,-13.43 3.4,-4.41 9.19,-18.95 3.89,-5 5.27,-2.22 25.66,-1.04 0.84,-0.21 0.74,-0.49 0.7,-0.73 1.13,-1.78 0,0 1.46,2.08 6,8.18 z" 
                fill="rgb(151, 144, 238)" 
                stroke="white" 
                stroke-width=".7px"
                title="Western" 
                id="RW-04" 
            />
        </svg>