<svg xmlns="http://www.w3.org/2000/svg" viewBox="315.6759899999998 443.00382 228.3400000000001 152.27999999999986" width="228.3400000000001" height="152.27999999999986">
            <path 
                d="m 374.49599,466.26382 1.19,-0.22 1.48,1.85 2.46,-0.34 1.31,-2.94 1.12,1.1 8.2,0.28 -0.02,1.7 -1.55,-0.03 -0.06,1.06 6.05,-2.2 -0.68,-4.43 0.69,-1.29 8.79,0.83 0.49,-1.47 1.63,0.39 2.79,-1.65 0.52,-2.94 -2.43,-1.26 2.51,-6.16 5.41,-2.44 4.73,0.9 2.63,4.53 2.66,-2.32 9.14,0.04 1.06,-4.09 4.57,0.05 2.44,-2.21 0.43,0.94 1.51,-0.41 -1.23,0.87 -0.1,3.54 1.46,1.52 1.1,3.61 5.23,1.21 3.22,-1.05 2.71,1.01 3.7,-1.4 1.75,0.59 0.11,-1.86 1.21,-0.41 0,0 -0.68,1.58 1.1,1.73 -0.87,0.13 0.15,3.45 1.27,0.14 0.6,3.92 -3.59,1.7 1.14,2.2 2.79,-0.62 1.73,2.41 -0.75,1.26 0.73,1.24 -2.55,2.73 -0.04,1.83 0.94,0.69 1.25,-1.4 2.15,2.89 5.9,0.23 1.32,-1.08 4.57,-0.34 -0.04,2.15 2.34,1.45 -0.04,-1.26 1.27,-0.19 0.65,1.26 0.82,-0.34 0.29,-5.11 0.98,0.73 1.55,-1.28 1.07,0.34 1.21,-2.56 3.01,1.05 0.95,-1.35 1.93,-0.21 3.8,3.76 2.81,0.78 -0.07,3.25 -1.18,1.42 1.54,4.65 0.75,-1.6 1.44,-0.05 0.27,-2.17 1,1.33 7.99,-1.1 0.04,1.07 5.64,0.09 -0.37,-1.99 1.01,-0.23 -0.08,-1.07 2.03,0.45 5.39,-1.44 0.57,1.9 1.58,-3.55 4.25,-1.67 2.99,0.48 1.8,-1.51 4.12,-0.78 0.82,3.3 -2.05,0.75 1.03,5.16 -3.02,0.73 0.35,2.77 -9.46,1.83 0.33,2.59 -2.36,0.69 0.77,3.79 -0.61,0.69 2,0.89 -1.13,2.68 1.79,6.17 -6.63,0.45 -1.46,2.08 1.97,2.22 -3.13,0.32 -1.92,4.22 -3.6,-0.18 -0.35,1.69 -1.79,-0.62 0.31,3.58 -2.77,-0.27 -1.25,1.53 -1.37,-0.62 -1.81,1.19 0.8,2.91 -1.1,1.92 8.39,3.69 0.1,2.71 1.04,0.03 -1.22,1.32 1.84,2.23 1.02,3.62 0,0 -2.03,0.73 1.75,3.02 -4.99,3.89 -2.53,-0.59 -0.33,1.25 1.05,2.69 2.88,2.02 2.48,4.59 0.31,5.88 2.74,2.59 2.88,-1.04 1.1,1.49 -0.87,1.07 -3.83,-0.23 0.46,4.79 -1.84,-0.36 -0.13,2.25 -1.49,0.9 -2.78,-0.81 -3.32,1.2 -4.6,4.31 0.36,1.74 -6.63,0.73 2.22,-10.25 -0.93,-2.23 -2.7,-0.29 -2.73,2.9 -4.77,-0.77 -2.75,4.04 -4.11,1.5 -6.8,5.89 -2.08,3.53 -3.97,3.26 -2.42,4.76 -2.95,1.47 -0.08,-1.41 -1.16,-0.04 0.1,1.99 -1.15,-0.74 0.46,-1.07 -4.97,1.61 -3.44,-0.32 -1.43,-2.53 -0.68,1.78 -1.39,0.68 -2.27,-0.59 -7.25,-8.05 0.06,-1.7 -0.97,-0.95 -2.72,1.78 -2.87,-1.13 0.47,-1.83 -1.7,-2.74 -1.15,0.95 -4.91,0.61 -1.9,2.06 -3.76,-0.7 -1.76,4.05 -14.74,2.9 -2.65,-0.32 0.18,-2.76 -1.04,-2.72 -6.43,-3.76 -0.87,0.84 -0.07,2.83 -2.48,2.2 -1.93,-0.09 -2.95,-2.54 -2.66,0.59 -4.68,4.19 0.21,1.54 2.25,2.02 -0.04,1.99 -2.36,1.99 -2.93,0.14 0.64,-2.65 -1.8,-1.29 -0.24,-1.54 -4.56,-1.5 -1.41,-1.47 -1.83,-0.61 -0.77,1.18 -3.84,-0.11 -1.02,0.79 -2.57,-0.84 -5.27,1.95 -1.39,-2.31 -1.59,-0.23 -0.74,-1.2 -1.56,-0.5 -1.16,1 -1.9,-1.11 -1.36,0.38 -1.06,-2.65 -1.71,0 -2.49,-2.81 -1.95,-6.84 1.97,-2.04 0.8,0.27 1.83,-4.74 1.13,-0.71 0.46,-7.81 -1.43,-5.59 -2.08,-5.09 -1.21,-0.93 0.32,-3.44 -1.17,-4.73 -1.57,-1.03 0.12,-1.36 -1.88,-1.03 -0.29,-1.73 -4.56,-0.5 -5.88,-11.65 -2.58,-0.45 -2.06,-3.67 -3.1,-1.46 0,0 1.59,-5.19 -2.87,-5.09 4.42,-2.33 -0.85,-3.91 1.52,-4.41 2.46,-0.76 -0.23,-2.15 4.84,-2.19 4.61,0.62 0.41,-0.8 2.45,-0.19 -0.88,-1.78 -1.63,-0.32 0.36,-4.19 -1.11,-0.9 2.99,0.44 4.21,-3.78 3.32,0.39 -0.03,-12.13 7.8,-2.18 5.65,-3.53 1.45,-4.29 2.58,-1.45 3.36,3.08 0.26,2.75 1.61,2.78 4,-2.07 1.75,2.34 z" 
                fill="rgb(151, 144, 238)" 
                stroke="white" 
                stroke-width=".7px"
                title="Alytus" 
                id="LT-AL" 
            />
        </svg>