<svg xmlns="http://www.w3.org/2000/svg" viewBox="229.91598999999994 208.8538199999999 286.08000000000004 259.8700000000006" width="286.08000000000004" height="259.8700000000006">
            <path 
                d="m 230.97599,231.88382 3.06,-2.61 1.64,1.2 5.76,-7.06 2.08,2.43 3.59,0.11 2.24,-1.27 2.22,0.99 1.63,-0.63 -0.43,2.04 1.15,1.49 -1.22,1.76 0.9,0.52 -3.41,1.34 2.53,3.53 0.77,0.23 0.78,-2.28 2.08,0 0.56,0.8 -0.66,1.04 1.92,-0.97 0.65,0.85 5.38,-5.15 5.13,-0.52 2.28,-1.25 1.57,-0.04 -0.02,1.22 1.24,-0.8 -0.26,-1.08 0.91,-0.43 0.38,0.71 3.73,-3.86 1.98,2.19 0.36,-2.8 0.84,1.41 2.57,0.89 0.75,-1.17 -2.22,-6.39 0.18,-0.8 2.94,-0.28 -0.29,-3.35 1,-0.28 -0.77,-2.43 3.63,-0.75 0.54,3.35 2.27,0.35 9.63,-3.02 0.71,-2.1 0.98,-0.16 -0.58,2.64 1.07,1.04 1.14,6.01 1.97,0.21 0.24,1.46 2.58,-2.07 -0.29,-1.54 1.04,-0.42 0.54,2 5.98,-3.53 1.19,0.23 0.39,1.02 2.36,0.35 2.66,2.17 2.84,3.81 0.01,2.5 2.12,-0.14 5.2,2.4 -0.95,1.6 2.35,0.71 1.33,-0.76 0.33,-1.64 0.68,0.18 -1.12,-4.54 3.9,-0.26 0.14,-0.92 3.99,-0.82 0.75,1.46 3.69,2.14 -1.14,3.3 0.91,4.63 6.74,-0.44 2.41,1.08 3.21,-0.19 0.7,-2.21 -1.1,-0.8 3.73,-2.28 1.67,-3.3 5.61,-1.63 -0.16,-1.64 11.21,-4.65 -0.17,-0.84 3.97,-1.56 1.37,0.61 4.53,-3.49 0,0 3.2,4.34 -2.28,0.9 0.86,2.68 3.51,4.08 3.16,2.09 0.13,-1.48 3.17,-0.4 7.79,8.05 2.83,-0.52 -1.94,6.54 1.02,1.01 6.01,1.34 1.55,-2.47 2.5,0.19 1.74,3.15 1.84,-0.84 1.89,-2.52 5.13,0.26 0.73,-5.41 5.37,2.23 0.24,3.39 6.44,2.37 1.81,-3.73 0.84,1.97 3.64,2.4 1.48,-0.73 0.89,1.08 0.97,-0.8 3.31,2.07 -0.29,4.09 4.02,3.43 2.52,0.16 0,0 -0.26,5.42 -2.89,1.18 -0.31,3.23 -1.96,1.2 0.28,4.1 -1.11,0.4 -1.12,9.19 4.34,0.4 0.08,2.62 1,-0.1 -2.08,10.91 2.06,0.21 -0.04,1.26 1.77,0.19 0.36,-1.1 8.07,2.59 -3.16,4.16 1.44,2.29 -0.25,2.69 1.28,1.8 0.05,2.24 0.5,1 5.17,1.07 -0.7,1.73 -1.92,1.1 2.54,2.91 -0.83,0.66 1.14,0.32 -0.31,1.26 2.32,2.77 1.3,-1.07 1.56,0.47 0.02,3.73 1.24,1.16 -0.62,1.91 1.09,0.24 -0.47,1.51 1.52,-0.65 0.1,0.74 1.43,0.07 2.03,2.31 0.1,2.95 1.82,0.47 -1.12,1.44 -1.38,-0.02 -0.61,1.16 1.19,0.7 -0.38,0.98 -5.49,0.93 0.67,3.63 -3.57,1.3 -0.16,2.23 -1.58,1.58 3.67,3.95 5.3,-0.07 2.49,4.11 5.31,2.32 1.54,4.39 5.35,-1 0,0 2.57,0 0,0 2.24,3.13 4.18,1.72 1.82,1.86 -0.15,3.29 -1.28,0.97 -1.39,0.6 -1.27,-1.62 -0.67,1 -2.67,0.11 0.4,0.86 -1.01,0.33 1.74,12.66 -1.17,0.35 0.21,-1.11 -1.22,0.21 -1.04,1.76 -1.51,-1.37 -0.21,1.58 -5.56,0.71 -5.64,3.7 -0.32,4.95 -1.35,2.01 0.76,1.9 0.75,-0.09 0.35,2.33 -1.86,0.34 0.25,3.52 -1.15,0.67 0.53,1.63 -1.29,1.18 1.27,1.8 -0.47,1.57 -1.8,0.81 -2.53,-0.35 -1.44,-2.65 -2.79,-0.28 -0.2,-0.9 -1.19,0.14 0.64,3.35 -1.08,2.79 -5.37,-2.56 -3.92,0.81 -0.01,1.24 -0.59,-0.25 -2.19,3.3 0.19,4.26 2.03,5.92 -2.93,1.87 2.57,-0.02 1.53,5.2 -1.13,0.62 -0.91,-1.06 -1.42,2.79 -1.31,-0.35 -1.32,1.61 -1.71,-1.31 0.41,7.66 -1.83,7.15 0,0 -1.21,0.41 -0.11,1.86 -1.75,-0.59 -3.7,1.4 -2.71,-1.01 -3.22,1.05 -5.23,-1.21 -1.1,-3.61 -1.46,-1.52 0.1,-3.54 1.23,-0.87 -1.51,0.41 -0.43,-0.94 -2.44,2.21 -4.57,-0.05 -1.06,4.09 -9.14,-0.04 -2.66,2.32 -2.63,-4.53 -4.73,-0.9 -5.41,2.44 -2.51,6.16 2.43,1.26 -0.52,2.94 -2.79,1.65 -1.63,-0.39 -0.49,1.47 -8.79,-0.83 -0.69,1.29 0.68,4.43 -6.05,2.2 0.06,-1.06 1.55,0.03 0.02,-1.7 -8.2,-0.28 -1.12,-1.1 -1.31,2.94 -2.46,0.34 -1.48,-1.85 -1.19,0.22 0,0 4.09,-5.43 0.57,-3.01 -4.32,-4.53 -1.43,-6.22 -5.83,1.97 -5.01,-9.79 4.49,-2.25 -3.4,-5.67 -3.86,0.35 0.52,-1.8 -2.23,0.25 -0.37,-1.47 5.94,-2.23 -2.25,-1.36 -0.07,-1.75 2.66,-1.85 -0.62,-3.8 -4.27,-6.67 3.79,-3.16 -3.63,-6.4 1.37,-3.46 -2.24,-1.18 -6.59,1.8 0.26,-0.94 3.9,-1.74 4.55,-6.45 -5.63,-5.81 1.49,-1.82 -1.64,-1.83 2.91,-4.36 -11.69,-8.8 -3.81,1.67 -0.4,1.71 -1.26,0.05 0.16,-1.39 -2.48,-0.35 -0.58,-0.9 0.51,-1.97 -0.67,-0.1 -0.4,-5.98 -10.87,-5.48 1.08,-1.49 1.52,0.28 4.47,-4.87 8.93,-1.63 2.01,-1.14 0.21,-1.07 6.24,-2.21 1.43,-1.21 -0.05,-5.58 -4.22,-2.39 -9.4,-1.03 -7.31,-5.45 -2.24,-0.44 0,0 3.82,-2.61 1.31,-3.98 3.92,-5.46 0.05,-8.58 3.73,-10.14 -6.72,-2 -0.31,-1.45 -4.44,1.98 -1.17,-1.56 -2.25,0.93 -2.62,-1.52 0.24,-4.63 -1.23,-1.12 -6.52,0.96 -0.67,-0.75 -1.13,1.9 -2.81,0.16 -1.85,-1.33 -6.87,0.63 -0.19,-0.94 -1.47,1.05 -2.4,-0.07 -0.45,-1.87 1.37,-0.77 -0.04,-2.2 -1.06,-3.48 -1.04,1.33 -2.67,-0.87 -1.59,1.99 -3.04,0.63 -6.04,-1.4 -1.56,3.09 -8.32,-0.49 -0.54,-1.27 3.09,-4.18 -2.61,-2.18 -3.9,-1.2 1.32,-6.23 -5.21,1.53 -1.16,-2.32 -1.15,0.54 0.79,2.13 -4.81,0.65 -0.15,2.53 -2.27,-0.21 -0.83,2.25 -1.05,0.47 0,-4.52 -2.68,-1.69 -0.06,-2.67 -4.57,1.1 -2.69,-1.24 0.19,-3.7 2.47,-1.76 -0.2,-4.39 -1.67,-3.28 -1.83,-0.64 -3.65,1.18 -0.92,-2.54 -2.43,0.12 -0.66,-2.58 1.7,-1.79 -0.22,-3.99 -1.77,-0.14 -0.78,1.43 -3.16,0.63 -2,-7.59 -1.48,-1.12 2.86,-1.86 0.24,-1.55 z" 
                fill="rgb(151, 144, 238)" 
                stroke="white" 
                stroke-width=".7px"
                title="Kaunas" 
                id="LT-KU" 
            />
        </svg>