<svg xmlns="http://www.w3.org/2000/svg" viewBox="0.3659851300000031 16.42382400000009 180.6100048700001 320.6399959999999" width="180.6100048700001" height="320.6399959999999">
            <path 
                d="m 43.515985,281.25382 -0.71,0.3 -0.36,-1.1 1.07,0.8 z m 0.53,-1.12 -1.51,0.02 -0.32,-1.87 2.38,1.03 -0.55,0.82 z m -0.33,-1.62 -1.27,-0.89 0.8,-0.4 0.47,1.29 z m 1.11,-0.37 0.57,0.3 -0.95,0.51 -0.96,-1.8 1.34,0.99 z m 0.53,-0.19 -1.04,-1.05 0.67,-1.03 0.37,2.08 z m -25.23,-103.41 4.45,9.61 -0.8,4.92 1.03,11.46 -0.84,12.48 -2.04,12.06 0.6,3.41 -1.35,2.09 -2.46,9.19 2.35,2.54 0.43,2.28 -3.18,2.4 0.85,1.53 -2.5,2.84 0.29,2.28 -2.7,3.52 0.69,3.8 -1.26,3.17 0.87,2.09 -5.5699999,3.54 -0.98,1.71 0.43,1.19 -2.45,1.1 1.02,1.99 -2.32,1.19 -0.45,1.31 -3.24999997,-0.47 -0.62,-0.17 4.68999997,-8.92 7.6599999,-19.94 3.25,-10.67 2.75,-13.88 1.42,-10.04 0.84,-19.18 -2.02,-21.66 1.17,1.23 z M 134.97599,16.943824 l 1.52,0.43 0,0 -0.61,2.31 0.61,2.74 -1.38,0.99 -3.81,-0.19 -0.57,8.03 6.12,0.6 -1.04,11.44 1.02,0.22 0.77,3.77 1.27,0.67 0.8,4.08 -1.19,1.42 3.42,3.5 -0.17,3.55 -6.39,-1.15 -0.84,5.61 -1.75,0.1 -1.18,10.61 -1.94,2.15 0.51,1.08 -0.96,1.48 -2.14,-0.81 0,-1.17 -7.22,-1.1 0.11,-1.44 -2.13,-0.29 -0.87,1.82 1.6,1.75 0.82,5.05 -8.83,-3.4 -0.27,0.72 -3.21,-0.36 -2.82,7.39 -3.07,-0.67 -2.790005,8.17 -0.92,0.14 0.45,1.1 -1.08,0.19 -3.51,8.379996 -2.06,-0.48 -1.24,1 -2.73,-2.17 -4.08,0.1 -1.59,3.82 4.72,2.05 -3.37,7.55 1.03,2.17 0.15,5.64 -2.38,0.07 0.67,2.38 1.11,-0.38 2.15,1.14 3.19,3.38 -1.48,1.45 -2.15,-0.43 -1.76,2.28 0.81,1.5 -0.49,1.71 -1.86,-0.31 -2.3,1.21 -0.08,2.33 -2.27,-0.26 -0.59,0.76 0.81,3.82 -1.67,-1.04 -2.41,6.27 6.29,3.96 1.51,-1.8 1.15,0.05 -0.29,-3.16 1.59,-0.09 1.04,3.56 2.54,1.11 0.27,1.52 1.56,0.83 -0.63,2.49 0.8,0.88 1.26,-0.36 -0.21,1 -1.06,-0.12 -0.25,4.2 2.75,0.73 2.19,-2.84 6.510005,3.29 1.11,-1.56 0.76,1.71 1.64,-0.64 1.04,-2.51 2.49,1.54 0.12,6.35 -1.31,0.99 -0.71,3.13 1.8,1.92 2.17,0 1.26,1.94 2.86,-0.62 0.35,0.69 -2.45,2.25 -0.21,2.93 -1.59,1.92 0.59,3.95 -1.67,-0.4 0.08,1.87 1.75,2.2 1.54,0.24 0.35,5.69 5.13,-1.68 6.43,5.33 0,0 -1.72,2.43 1.12,1.32 -2.95,1.91 -0.92,-0.42 -0.95,1.7 -1.04,-0.17 -2.94,4.13 0.6,0.57 2.37,-1.2 0.64,0.78 -2.26,2.31 0.19,5.09 1.86,5.04 1.75,-0.78 2.08,7.76 0.64,9.85 1.32,0.09 5.33,-3.01 6.05,3.59 4.45,-0.82 1.19,3.1 1.03,-0.16 0.85,3.24 -0.48,3.03 -3.47,5.3 -0.59,2.49 -4.08,3.7 -0.15,1.66 -1.82,1.01 -6.19,8.78 -1.06,3.21 6.84,2.41 4.1,0.12 2.69,2.81 6,2.9 -1.22,3.16 2.7,6.01 1.91,7.85 6.11,-1.03 5.72,0.7 1.38,-1.26 3.77,4.27 4.02,-0.79 5.53,1.87 3.69,-0.23 2.9,2.61 -1.23,0.84 -2.02,-1.19 -1.99,0.42 0.79,1.31 -1.34,2.24 0.56,1.68 -0.77,2.19 2.23,9.69 0,0 -7.08,0.58 -4.3,1.56 -4.54,-0.26 -2.75,1.98 -2.31,4.86 -5.53,0.33 -2.9,-1.3 -2.38,-2.42 -0.77,-3.89 1.2,-4.28 -0.94,-1.79 -5.56,-0.4 -3.69,2.66 -5.99,-1.28 -5.36,-3.05 -4.08,-0.96 -4.33,-5.06 -4.65,0.02 -7.7,-3.29 -1.26,-3.69 -8.480005,-7.4 -7.26,-1.66 -3.83,-2.45 -3.21,0.3 -3.73,2.69 -2.07,-0.58 -1.66,-3.25 -4.88,-4.63 -2.53,-6.8 -6.6,-10.27 -1.36,1.66 -4.66,2.36 -5.24,5.64 -3.41,1.52 -0.19,-0.87 1.08,-0.12 -0.96,-2.5 2.53,-3.56 -0.35,-3.54 0.75,0.3 0.53,-2.88 -0.75,0.23 -1.79,-5.13 -3.73,-2.23 -1.24,-2.16 1.02,-0.33 0.63,-1.95 -0.32,-2.23 2.04,-0.07 -2.54,-1.24 -2,3.4 -2.26,-0.28 -0.52,1.29 -3.77,1.67 5.51,-10.46 2.81,-7.7 0.16,-9.24 0.79,-1.32 -0.81,-0.31 -0.04,-5.2 -1.84,-6.78 -1.48,-2.26 0.63,-1.13 2.2,-0.71 -1.95,0.24 -1.9,1.63 -1.92,-10.65 0.99,-0.47 -1.84,-0.71 -2.66,-4.93 -1.84,-8.17 -1.79,-2.1 0.57,-1.56 -0.87,-0.47 -0.12,-3.24 0.87,2.58 1.15,1.58 0.4,-0.57 -0.94,-2.43 -0.9,-0.21 -1.66,-7.28 -2.62,-5.8 -4.98,-3.95 -4.22,-45.05 2.1,-7.21 1.26,-12.01 -0.24,-9.349996 -1.36,-7.04 9.75,-2.34 2.89,-1.6 2.91,2.58 2.82,-0.43 2.89,-6.41 -0.28,-1.17 1.87,-1.63 0.37,-3.64 -1.11,-1.75 -0.48,-4.26 0.71,-1.53 5.83,-2.3 1.26,-3.14 6.01,-7.91 6.94,-2.41 4.78,-3.07 2.04,0.22 2.85,-1.9 1.67,-5.09 3.73,-5.43 1.63,-0.26 1.56,0.96 2.3,-0.79 2.82,-2.33 1.04,-3.17 2.1,0.38 0.15,-1.25 2.04,-0.87 5.29,-0.05 5.17,2.91 6.530005,-0.5 2.73,-4.09 5.36,-3.51 3.11,-4.02 2.08,-0.39 1.72,-1.93 2.93,0.65 1.75,2.05 6.6,-1.93 0.23,-0.92 3.29,-0.77 1.38,-1.52 0.73,0.52 z" 
                fill="rgb(151, 144, 238)" 
                stroke="white" 
                stroke-width=".7px"
                title="Klaipėda" 
                id="LT-KL" 
            />
        </svg>