<svg xmlns="http://www.w3.org/2000/svg" viewBox="219.15599 318.52381999999994 159.99999999999986 196.7100000000001" width="159.99999999999986" height="196.7100000000001">
            <path 
                d="m 219.15599,326.77382 6.53,4.26 3.19,0.58 10.88,-2.47 4.71,-3.84 4.43,-0.09 4.98,-2.66 11.06,1.19 10.57,-4.22 5.66,-1 10.18,3.22 6.61,0.48 19.26,5.06 3.71,-0.02 4.59,-1.68 3.31,0.3 0,0 2.24,0.44 7.31,5.45 9.4,1.03 4.22,2.39 0.05,5.58 -1.43,1.21 -6.24,2.21 -0.21,1.07 -2.01,1.14 -8.93,1.63 -4.47,4.87 -1.52,-0.28 -1.08,1.49 10.87,5.48 0.4,5.98 0.67,0.1 -0.51,1.97 0.58,0.9 2.48,0.35 -0.16,1.39 1.26,-0.05 0.4,-1.71 3.81,-1.67 11.69,8.8 -2.91,4.36 1.64,1.83 -1.49,1.82 5.63,5.81 -4.55,6.45 -3.9,1.74 -0.26,0.94 6.59,-1.8 2.24,1.18 -1.37,3.46 3.63,6.4 -3.79,3.16 4.27,6.67 0.62,3.8 -2.66,1.85 0.07,1.75 2.25,1.36 -5.94,2.23 0.37,1.47 2.23,-0.25 -0.52,1.8 3.86,-0.35 3.4,5.67 -4.49,2.25 5.01,9.79 5.83,-1.97 1.43,6.22 4.32,4.53 -0.57,3.01 -4.09,5.43 0,0 -3.5,-2.27 -1.75,-2.34 -4,2.07 -1.61,-2.78 -0.26,-2.75 -3.36,-3.08 -2.58,1.45 -1.45,4.29 -5.65,3.53 -7.8,2.18 0.03,12.13 -3.32,-0.39 -4.21,3.78 -2.99,-0.44 1.11,0.9 -0.36,4.19 1.63,0.32 0.88,1.78 -2.45,0.19 -0.41,0.8 -4.61,-0.62 -4.84,2.19 0.23,2.15 -2.46,0.76 -1.52,4.41 0.85,3.91 -4.42,2.33 2.87,5.09 -1.59,5.19 0,0 -5.6,-1.74 -4.43,0.82 -1.89,-0.96 -4.22,-6.39 -6.48,-1.94 0.71,-2.92 -2.03,-1.28 -6.58,3.81 -5.96,-3.29 -1.15,-0.8 0.51,-2.31 2.34,-3.4 -1.86,-1.72 -7.33,-2.9 2.11,-4.86 -3.34,-0.43 -0.23,-1.21 -12.68,-2.25 -0.21,-2.2 -4.17,-0.18 -2.69,0.98 -3.28,8.06 -2.13,1.24 -9.31,-14.24 -2.8,-6.4 -0.36,-11.82 -2.23,-3.63 -0.33,-2.48 3.66,-6.85 -1.22,-2.76 -1.97,-1.36 0.02,-1.4 4.71,-4.6 0.96,-3.73 2.3,-0.85 0.9,-2.31 -1.08,-1.7 1.79,-1.36 -3.06,-3.64 -0.32,-0.95 1.27,-0.41 0.01,-0.9 -2.12,-2.75 0.7,-2.33 2.59,-2.35 -1.33,-4.2 0.61,-1.46 1.01,0.24 2.13,-1.76 0.92,-3.03 0.99,0.47 1.15,-1.11 2.03,-0.16 1.11,-2.61 1.77,0.3 0.94,-1.14 1.37,0.6 0.69,-1.82 1.31,-0.58 -1.3,-1.76 0.4,-0.71 3.49,-0.58 -0.9,-1.09 0.3,-2.27 1.63,-1.96 -2.01,-1.55 1.18,-0.97 -0.51,-2.25 -2.23,-0.9 1.46,-3.17 -3.92,-2.6 0.33,-2.85 1.49,-2.34 -0.95,-2.46 -1.47,-0.44 -2.19,-3.15 -3.44,2.13 -0.74,-3.66 -1.3,-1.58 -1.47,0.46 -0.83,1.56 -0.95,-0.37 -0.6,-1.6 2.06,-2.42 -3.1,-0.83 -2.15,-5.48 -2.5,-2.44 -2.35,0.33 -1.47,-3.58 -2.68,1.51 1.02,2.9 -0.6,1.09 -2.51,-1.85 0.08,-2.72 -1.06,-0.42 -1.42,-4.49 -3.58,-4.09 z" 
                fill="rgb(151, 144, 238)" 
                stroke="white" 
                stroke-width=".7px"
                title="Marijampolė" 
                id="LT-MR" 
            />
        </svg>