<svg xmlns="http://www.w3.org/2000/svg" viewBox="393.2959899999998 0.2838238999999576 287.46999999999986 249.8399961" width="287.46999999999986" height="249.8399961">
            <path 
                d="m 526.90599,0.8638239 1.75,-0.12 1.69,1.62 -1.62,4.07 0.63,2.36 4.26,9.1300001 1.03,-0.16 2.67,2.91 -0.47,8.71 1.18,3.82 5.04,4.81 0.92,3.72 1.68,1.06 1.12,-0.41 0.21,1.47 1.59,0.43 0.2,3.12 0.77,0.55 -0.76,1.46 1.47,1.11 -0.74,2.93 1.51,2.03 0.37,5.78 1.73,-0.48 0.78,2.01 3.99,0.89 3.68,2.37 6.4,0 4.42,-4.14 5.07,5.25 1.21,2.82 4.81,3.3 2.82,-2.2 9.02,-0.96 -0.04,2.28 2.16,0.67 1.92,-2.18 2.64,0.22 0.14,1.31 2.93,1.08 3.61,-0.12 1.13,-3.83 2.92,-1.39 2.75,1.17 1.55,4.96 4.09,1.36 7.18,-0.07 3.22,-3.54 1.43,1.2 -0.71,3.39 2.71,2.54 -0.87,3.68 0.95,0.89 -1.81,1.79 0.33,1.65 6.29,2.46 3.42,3.03 7.78,1.94 1.69,5.25 2.97,2.029996 0.39,2.31 -0.83,1.63 0.94,1.74 4.94,-0.27 0.95,1.2 5.13,1.9 0.31,1.41 1.35,-0.48 2.75,1.1 3.06,3.76 1.89,-0.52 4.17,2.55 0,0 -6.73,1.21 -4.18,4.5 -0.28,2.93 2.69,3.74 -1.87,3.16 0.21,2.8 -9.41,1.88 1.05,7.15 -0.5,1.83 -1.16,0.88 -4.18,0.16 -2.94,-1.47 0.1,5.22 -1.91,-0.52 1.49,4.15 -1.25,2.02 -0.61,4.41 -4.4,-0.71 -2.86,-1.9 -4.31,1.47 -0.75,-0.52 -0.03,3.32 -1.28,1.09 1.03,0.07 0.02,3.86 -2.17,0.5 -3.26,3.79 -0.99,0.16 -0.76,-4.87 -1.18,-0.38 -2.87,2.65 -3.04,-1.07 -1.44,0.76 -1.99,-2.39 -2.19,5.21 -5.25,-1.82 -1.11,2.81 -1.81,0.07 -3.55,-1.77 0.84,-2.37 -3.58,-1.25 -1.36,2.7 -10.45,-7.99 -3.13,0.76 -1.72,3.58 -2.62,2.49 -1.16,-0.74 -3.71,1.26 0.34,4.19 1.82,0.73 -1.13,2.93 -2.08,-1.15 -2.29,-3.18 -3.15,0.38 -0.01,0.67 -19.23,7.4 -1.89,-4.85 1.98,-2.91 -4.77,0.5 -1.99,-2.09 -6.88,-1.23 -0.43,-1.16 -2.2,-0.8 -6.32,4.38 -3.36,-1.35 -4.66,0.76 -0.44,3.64 -2.74,-0.47 -0.24,-1.9 -2.13,-2.05 -5.53,3.05 -2.75,-1.28 -2.39,1.11 -2.94,-2.81 -1.39,0.8 0.37,4.24 -1.27,4.11 1.51,0.07 0.26,1 2.19,-0.12 1.63,2.29 -1.26,0.31 -0.76,2.32 -1.74,1.01 -3.6,-1.89 0.94,-1.68 -6.96,1.59 0.06,4.39 1.29,0.74 2.39,-0.57 1.58,-1.68 2.63,1.92 1.5,3.23 0.25,4.61 -1.23,-0.26 -5.35,2.47 -1.47,4.16 1.57,4.08 -2.1,1.55 1.09,2.17 -2.57,4.5 0.22,2.5 0,0 -1.54,0.59 0,1.15 -2.22,0.52 1.71,3.06 0.05,3.13 1.71,2.57 -1.32,3.36 -6.13,2.7 -4.22,-0.68 -1.51,-1.46 -0.91,0.54 -1.04,-0.84 -0.98,0.56 0.57,4.21 -2.61,1.27 1.04,3.17 -4.39,2.49 0.45,2.37 -5.86,-0.47 0,0 -2.52,-0.16 -4.02,-3.43 0.29,-4.09 -3.31,-2.07 -0.97,0.8 -0.89,-1.08 -1.48,0.73 -3.64,-2.4 -0.84,-1.97 -1.81,3.73 -6.44,-2.37 -0.24,-3.39 -5.37,-2.23 -0.73,5.41 -5.13,-0.26 -1.89,2.52 -1.84,0.84 -1.74,-3.15 -2.5,-0.19 -1.55,2.47 -6.01,-1.34 -1.02,-1.01 1.94,-6.54 -2.83,0.52 -7.79,-8.05 -3.17,0.4 -0.13,1.48 -3.16,-2.09 -3.51,-4.08 -0.86,-2.68 2.28,-0.9 -3.2,-4.34 0,0 1.79,-5.3 0.95,-0.31 1.07,-5.12 0.72,-0.02 -0.36,-5.41 6.86,2.38 1.4,-2.57 5.61,0.61 0.55,-1.18 1.54,-0.14 -1.18,-3.61 -1.06,-0.24 0.11,-3.81 -0.97,-1.82 0.57,-2.53 1.59,1.07 0.94,-0.48 0.42,-1.75 2.96,-0.64 0.57,-1.49 -4.8,-3.62 0.42,-2.86 1.16,0.33 -0.57,-1.52 0.85,-3.36 -1.23,0.29 -0.73,-2.35 -2.23,-0.5 1.8,-2.68 -2.04,-4.41 -4.24,0.86 -0.74,-3.63 -1.28,-1.12 -0.97,-7.45 -1.14,-1.26 8,1.07 -1.83,-4.13 3.79,0.93 0.5,-2.93 3.17,-0.92 0.11,-1.26 3.59,-0.6 -1.11,-4.68 2.55,-4.85 -0.24,-6.52 -3.78,0.35 -1.71,-2.9 -2.78,1.07 -0.36,-1.69 -1.71,0.36 -0.68,-1.89 1.98,-5.31 -0.75,-3.55 2.73,-3.25 -0.74,-1.74 0.52,-3.529996 1.81,0.76 1,1.939996 1.01,-1.41 1.06,-7.399996 -0.51,-2.06 4.18,-1.14 -0.16,-2.2 1.77,-2.27 -0.07,-3.56 1.19,-0.39 0.77,-3.06 1.62,0.86 4.5,-1.22 0.62,-1.38 -1.03,-0.6 0.85,-2.18 -0.58,-0.81 0.75,-6.11 -3.37,0.67 0.49,-3.93 1.41,-1.72 -4.52,-2.06 -0.87,-2.93 0.71,-0.43 -0.24,-2.01 -0.91,-0.12 -0.88,-1.97 0.76,-2.62 3.46,-0.98 0.23,-1.92 0,0 2.98,0.31 3.74,-3.81 11.3,-4.38 -0.34,-3.1 6.82,0.56 2.57,5.76 4.74,-1.25 4,3.99 4.23,0.82 1.49,-2.38 7.68,-3.56 7.62,-1.2 0.64,-4.23 -0.9,-3.79 1.43,-2.39 2.81,-1.15 2.61,-2.86 0.38,-6.57 8.17,0.21 2.39,-2.98 -0.42,-3.16 7.46,-0.55 2.06,0.98 3.37,-3.1800001 0.24,-2.12 2.44,0.89 0.48,1.76 4.43,-0.99 0.82,-1.03 -0.93,-4 2.43,-3.19 z" 
                fill="rgb(151, 144, 238)" 
                stroke="white" 
                stroke-width=".7px"
                title="Panevėžys" 
                id="LT-PN" 
            />
        </svg>