<svg xmlns="http://www.w3.org/2000/svg" viewBox="114.57599 180.98381999999998 227.08000000000004 151.5599999999999" width="227.08000000000004" height="151.5599999999999">
            <path 
                d="m 123.97599,203.87382 13.34,-3.23 1.51,-1.21 1.04,1.99 3.85,0 -0.17,-1.49 3.14,-1.8 -0.18,-2.76 2.4,-1.44 0.1,-2.65 2.07,-0.99 0.3,-1.18 4.34,1.96 0.01,-1.84 4.21,-3.07 5.11,-0.88 8.52,-4.3 7.3,5.48 1.07,-2.2 1.13,0.76 1.94,-0.64 5.68,3.97 5.29,-3.09 4.18,1.82 3.44,-2.32 0,0 1.64,3.59 -0.8,5.51 1.47,1.18 1.22,-0.21 2.39,2.31 -1.46,2.51 0.13,1.62 0,0 -0.18,0.83 0,0 -0.2,2.67 3.97,1.01 2.83,6.35 3.95,-0.33 -0.65,3.6 3.37,5.21 2.56,1.39 2.51,3.25 -0.34,0.96 1.05,1.49 -3.25,1.88 -0.13,1.06 7.3,1.24 0,0 2.04,1.35 -0.24,1.55 -2.86,1.86 1.48,1.12 2,7.59 3.16,-0.63 0.78,-1.43 1.77,0.14 0.22,3.99 -1.7,1.79 0.66,2.58 2.43,-0.12 0.92,2.54 3.65,-1.18 1.83,0.64 1.67,3.28 0.2,4.39 -2.47,1.76 -0.19,3.7 2.69,1.24 4.57,-1.1 0.06,2.67 2.68,1.69 0,4.52 1.05,-0.47 0.83,-2.25 2.27,0.21 0.15,-2.53 4.81,-0.65 -0.79,-2.13 1.15,-0.54 1.16,2.32 5.21,-1.53 -1.32,6.23 3.9,1.2 2.61,2.18 -3.09,4.18 0.54,1.27 8.32,0.49 1.56,-3.09 6.04,1.4 3.04,-0.63 1.59,-1.99 2.67,0.87 1.04,-1.33 1.06,3.48 0.04,2.2 -1.37,0.77 0.45,1.87 2.4,0.07 1.47,-1.05 0.19,0.94 6.87,-0.63 1.85,1.33 2.81,-0.16 1.13,-1.9 0.67,0.75 6.52,-0.96 1.23,1.12 -0.24,4.63 2.62,1.52 2.25,-0.93 1.17,1.56 4.44,-1.98 0.31,1.45 6.72,2 -3.73,10.14 -0.05,8.58 -3.92,5.46 -1.31,3.98 -3.82,2.61 0,0 -3.31,-0.3 -4.59,1.68 -3.71,0.02 -19.26,-5.06 -6.61,-0.48 -10.18,-3.22 -5.66,1 -10.57,4.22 -11.06,-1.19 -4.98,2.66 -4.43,0.09 -4.71,3.84 -10.88,2.47 -3.19,-0.58 -6.53,-4.26 0,0 -5.3,0.72 -7.64,4.17 -3.44,0.88 -4.98,-1.96 -5.36,-0.23 -5.61,-1.86 -9.61,-0.54 0,0 -2.23,-9.69 0.77,-2.19 -0.56,-1.68 1.34,-2.23 -0.79,-1.31 1.99,-0.42 2.02,1.19 1.23,-0.84 -2.9,-2.61 -3.69,0.23 -5.53,-1.87 -4.02,0.8 -3.77,-4.27 -1.38,1.26 -5.72,-0.7 -6.1,1.02 -1.91,-7.84 -2.7,-6.01 1.21,-3.15 -6,-2.91 -2.68,-2.8 -4.11,-0.12 -6.84,-2.41 1.06,-3.21 6.19,-8.78 1.81,-1.01 0.15,-1.66 4.08,-3.71 0.58,-2.48 3.48,-5.31 0.48,-3.02 -0.86,-3.24 -1.03,0.16 -1.18,-3.1 -4.45,0.82 -6.06,-3.59 -5.33,3 -1.32,-0.09 -0.64,-9.85 -2.09,-7.76 -1.75,0.77 -1.86,-5.04 -0.18,-5.08 2.26,-2.31 -0.65,-0.78 -2.36,1.2 -0.6,-0.56 2.94,-4.13 1.04,0.17 0.95,-1.7 0.92,0.42 2.95,-1.91 -1.12,-1.32 z" 
                fill="rgb(151, 144, 238)" 
                stroke="white" 
                stroke-width=".7px"
                title="Tauragė" 
                id="LT-TA" 
            />
        </svg>