<svg xmlns="http://www.w3.org/2000/svg" viewBox="494.3559899999992 118.22381999999982 292.17000000000075 218.0900000000001" width="292.17000000000075" height="218.0900000000001">
            <path 
                d="m 695.17599,137.16382 2.88,2.56 2.19,-0.21 5.29,6.63 0.88,4.22 -0.52,1.97 5.08,10.77 5.72,5.45 4.97,0.5 2.08,2.58 2.41,6.2 5.18,-1.21 5.6,1.09 3.18,2.39 0.63,1.94 2.89,0.12 0.85,1.56 1.71,0.66 5.23,-0.47 0.65,0.99 3.03,0.22 4.07,-1.4 0.02,5.82 1.89,0.26 0.91,6.37 -2.33,3.95 1.19,1.82 0.12,6.77 -3.05,2.52 -1.25,-0.52 -3.98,6.55 -5.12,2.36 -2.29,4.38 2.1,5.79 1.78,0.38 1.4,2.49 -3.11,4.56 1.91,2.71 -2.21,-0.26 2.35,6.91 -1.41,1.19 0.75,4.3 -3.06,0.07 -3.89,4.32 -1.95,-0.56 -1.53,0.63 -0.73,3.19 -3.64,1.83 1.37,1.5 3.11,-0.14 5.35,2.81 3.71,0.14 2.49,2.44 2.78,-1.59 0.28,1.47 1.09,-0.65 1.71,0.82 1.47,-1.6 -0.49,-1.36 1.92,-0.7 -0.35,2.23 0.89,0.82 1.79,-3.03 1.87,1.13 0.84,-2.25 1.99,1.8 3.57,0.66 1.56,1.59 5.91,-0.18 6.65,1.71 0.04,1.54 2.02,0.42 0.91,2.23 -0.62,4.45 -4.19,1.1 -2.94,3.35 -4.66,1.75 0,0 -0.41,-0.75 2.62,-1.68 -12.24,0.46 0.08,3.05 -1.87,0.32 0.88,-0.79 -0.68,-1.87 -3.67,-0.21 0.35,1.47 -2.2,0.21 1.72,0.98 0.02,0.94 -1.4,-0.17 0.25,1.83 -2.68,1.85 0.16,0.91 -4.31,0 0.15,0.77 -2.16,1.03 -2.78,-1.38 -2.07,2.52 -3.22,-0.61 -1.18,0.75 -3.59,-1.68 -1.37,2.52 -1.19,-1.35 -5.57,-0.54 -2.9,-2.06 -1.45,0.99 -7.78,-1.92 -2.22,0.91 -1.82,-1.17 -0.84,1.01 0.63,0.7 -1.87,0.58 -3.96,-5.91 -1.31,2.08 -2.75,-0.31 -0.29,-0.81 -1.25,4.13 -1.37,0.17 -3.45,-0.73 -0.15,-1.14 3.17,-4.8 1.14,-0.25 -4.41,-2.27 0.06,-2.39 -1.44,-0.82 1.31,-1.1 -0.24,-1.12 -4.36,-1.97 -1.93,1.9 -0.75,-1.01 -4.51,-1.36 -0.26,-3.02 -0.32,3.77 0.77,0.21 -1.5,-0.42 -0.37,-2.9 -0.63,2.78 -2.83,1.99 3.02,-0.3 -1.76,2.46 -0.89,-0.78 -3.54,0.64 -0.72,1.61 -3.62,-1.96 -2.11,1.35 -1.4,-1.4 -0.42,-2.32 -1.25,0.07 0.2,2.41 -1.94,-0.98 -0.82,1.92 -2.12,-1.59 0.36,-2.34 -3.62,-2.51 -4.75,1.05 1.91,1.95 -3.67,3.21 -1.62,-2.46 0.53,-1.24 -5.1,-6.23 -4.71,4.26 0.09,-1.85 -1.59,2.32 1.3,0.44 -2.41,1.81 -1.27,4.7 0.43,1.29 -3.78,-2.32 0.3,2.57 1.19,0.33 0.49,1.52 -0.79,0.52 0.55,0.96 1.32,-0.14 0.36,1.73 -1.18,0.25 -1,-1.05 -2.85,0.56 -1.49,5.87 1.83,0.07 -1.55,2.2 -1.11,-0.19 -0.43,2.55 1.02,2.89 2.75,0.68 1.04,1.78 3.24,0.6 0.08,5.63 1.44,0.28 2.82,3.64 1.96,-0.59 0.36,1.4 4.37,1.52 1.03,1.77 -2.6,0.16 -0.66,2.24 -0.88,0.12 -0.67,-1.75 -2.2,2.54 2.31,1.12 -0.5,2.3 -1.51,0 0.5,-1.23 -3.14,1.58 0.89,2.54 1.15,-2.09 1.31,0.37 -0.83,2.75 -1.39,1.16 1.15,0.98 -1.69,1.32 1.49,2.54 1.82,-0.7 0.25,1.1 -6.53,0.9 -1.23,-2.77 -1.39,1.05 -3.57,0.16 -0.77,-2.25 0.69,-1 -5.11,-2.52 -3.25,1.75 -2.47,-0.23 -1.07,-1.4 -0.36,3.7 -1.98,-0.42 -0.54,-1.49 -2.84,0.82 -1.19,4.02 -4.14,-0.72 -8.07,1.93 -5.27,-0.72 -1.79,1.56 -5.85,-0.77 -2.96,-2.88 -6.42,-0.21 -6.44,1.04 -0.62,-1.28 2.85,-2.67 -2.11,-3.98 0.12,-2.89 -1.18,0.16 -1.75,-1.44 -3.66,0.28 -0.73,-1.05 -1.29,1.37 -1.27,-1.61 0.87,-2 -0.8,-1.23 1.68,-2.17 -0.26,-2.19 1.89,-1.52 -0.97,-3.43 2.67,-0.26 5.73,-2.63 0.88,-1.57 -1.29,-2.19 1.17,-2.13 4.41,-0.18 -1.65,-1.59 -0.87,0.75 -0.55,-0.99 -2.27,0.54 -0.36,-3.22 -1.75,-1.48 -4.83,1.76 -2.66,-2.92 3.4,-4.66 1.17,-6.29 -4.5,0.96 -1.58,2.55 -0.48,-1.1 -5.26,-2.32 0.52,-3.2 -1.2,-2.46 -2.15,-0.49 0.41,-2.48 -1.18,-1.67 -2.45,0.99 -0.38,-1.5 -2.27,0.7 -1.7,-0.54 -3.35,1.15 -2.11,-1.1 -0.5,-7.31 -1.35,-3.59 -8.72,3.82 -1.66,-0.54 1.06,-3.26 -7.43,0.87 -6.98,-4.6 -0.57,0.42 0.49,-7.37 -1.55,-1.03 1.73,-3.83 2.76,1.9 1.51,-5.59 -5.73,-2.54 -2.19,-7.69 -0.92,0.21 0.24,0.85 -2.42,0.16 -2.9,-6.26 -3.23,-0.54 -1.84,1.93 -1.16,-0.61 -1.75,1.23 -1.32,-0.97 0.11,-4.52 0,0 -0.22,-2.5 2.57,-4.5 -1.09,-2.17 2.1,-1.55 -1.57,-4.08 1.47,-4.16 5.35,-2.47 1.23,0.26 -0.25,-4.61 -1.5,-3.23 -2.63,-1.92 -1.58,1.68 -2.39,0.57 -1.29,-0.74 -0.06,-4.39 6.96,-1.59 -0.94,1.68 3.6,1.89 1.74,-1.01 0.76,-2.32 1.26,-0.31 -1.63,-2.29 -2.19,0.12 -0.26,-1 -1.51,-0.07 1.27,-4.11 -0.37,-4.24 1.39,-0.8 2.94,2.81 2.39,-1.11 2.75,1.28 5.53,-3.05 2.13,2.05 0.24,1.9 2.74,0.47 0.44,-3.64 4.66,-0.76 3.36,1.35 6.32,-4.38 2.2,0.8 0.43,1.16 6.88,1.23 1.99,2.09 4.77,-0.5 -1.98,2.91 1.89,4.85 19.23,-7.4 0.01,-0.67 3.15,-0.38 2.29,3.18 2.08,1.15 1.13,-2.93 -1.82,-0.73 -0.34,-4.19 3.71,-1.26 1.16,0.74 2.62,-2.49 1.72,-3.58 3.13,-0.76 10.45,7.99 1.36,-2.7 3.58,1.25 -0.84,2.37 3.55,1.77 1.81,-0.07 1.11,-2.81 5.25,1.82 2.19,-5.21 1.99,2.39 1.44,-0.76 3.04,1.07 2.87,-2.65 1.18,0.38 0.76,4.87 0.99,-0.16 3.26,-3.79 2.17,-0.5 -0.02,-3.86 -1.03,-0.07 1.28,-1.09 0.03,-3.32 0.75,0.52 4.31,-1.47 2.86,1.9 4.4,0.71 0.61,-4.41 1.25,-2.02 -1.49,-4.15 1.91,0.52 -0.1,-5.22 2.94,1.47 4.18,-0.16 1.16,-0.88 0.5,-1.83 -1.05,-7.15 9.41,-1.88 -0.21,-2.8 1.87,-3.16 -2.69,-3.74 0.28,-2.93 4.18,-4.5 6.73,-1.21 0,0 0.98,3.78 5.63,9.69 3.75,4.66 z" 
                fill="rgb(151, 144, 238)" 
                stroke="white" 
                stroke-width=".7px"
                title="Utena" 
                id="LT-UT" 
            />
        </svg>