<svg xmlns="http://www.w3.org/2000/svg" viewBox="459.9959900000013 221.41382 316.3599999999993 321.76000000000045" width="316.3599999999993" height="321.76000000000045">
            <path 
                d="m 605.94599,509.50382 -1.9,-0.48 0.27,-1.23 3.66,-0.53 -2.03,2.24 z m -111.37,-288.09 -0.11,4.52 1.32,0.96 1.75,-1.22 1.16,0.61 1.83,-1.93 3.23,0.54 2.9,6.26 2.42,-0.16 -0.24,-0.85 0.92,-0.21 2.19,7.69 5.73,2.54 -1.51,5.59 -2.77,-1.9 -1.72,3.83 1.55,1.03 -0.49,7.37 0.58,-0.42 6.97,4.6 7.43,-0.87 -1.06,3.26 1.66,0.54 8.72,-3.82 1.35,3.59 0.5,7.31 2.11,1.1 3.35,-1.15 1.7,0.54 2.27,-0.7 0.37,1.5 2.46,-0.98 1.18,1.66 -0.41,2.48 2.15,0.49 1.2,2.46 -0.52,3.21 5.27,2.32 0.48,1.1 1.58,-2.55 4.5,-0.96 -1.18,6.29 -3.39,4.65 2.66,2.92 4.82,-1.75 1.75,1.47 0.36,3.22 2.27,-0.54 0.55,0.98 0.87,-0.75 1.66,1.59 -4.41,0.19 -1.18,2.13 1.3,2.19 -0.88,1.56 -5.73,2.64 -2.67,0.26 0.98,3.43 -1.9,1.52 0.27,2.19 -1.68,2.17 0.8,1.23 -0.87,2 1.27,1.61 1.28,-1.38 0.73,1.05 3.66,-0.28 1.75,1.44 1.18,-0.16 -0.12,2.89 2.11,3.98 -2.85,2.68 0.62,1.28 6.44,-1.05 6.43,0.21 2.95,2.88 5.85,0.77 1.79,-1.56 5.26,0.72 8.07,-1.93 4.14,0.72 1.19,-4.03 2.85,-0.81 0.53,1.49 1.98,0.42 0.36,-3.7 1.07,1.4 2.47,0.23 3.25,-1.75 5.12,2.51 -0.69,1 0.77,2.26 3.57,-0.16 1.39,-1.05 1.23,2.77 6.53,-0.91 -0.25,-1.09 -1.82,0.7 -1.5,-2.54 1.7,-1.33 -1.15,-0.98 1.39,-1.16 0.83,-2.75 -1.31,-0.37 -1.15,2.1 -0.9,-2.54 3.14,-1.58 -0.49,1.24 1.51,0 0.5,-2.31 -2.31,-1.12 2.21,-2.54 0.67,1.75 0.88,-0.12 0.66,-2.24 2.61,-0.16 -1.03,-1.77 -4.37,-1.52 -0.36,-1.4 -1.96,0.58 -2.82,-3.64 -1.44,-0.28 -0.08,-5.62 -3.23,-0.61 -1.04,-1.78 -2.75,-0.68 -1.02,-2.9 0.43,-2.55 1.11,0.19 1.55,-2.2 -1.83,-0.07 1.5,-5.87 2.85,-0.56 1,1.05 1.18,-0.26 -0.36,-1.73 -1.32,0.14 -0.55,-0.96 0.79,-0.51 -0.48,-1.52 -1.19,-0.33 -0.31,-2.57 3.78,2.32 -0.43,-1.29 1.27,-4.7 2.41,-1.8 -1.3,-0.44 1.59,-2.32 -0.09,1.85 4.72,-4.26 5.09,6.23 -0.52,1.24 1.62,2.46 3.67,-3.21 -1.91,-1.94 4.74,-1.05 3.62,2.51 -0.36,2.34 2.13,1.59 0.81,-1.92 1.94,0.98 -0.2,-2.41 1.26,-0.07 0.41,2.32 1.4,1.4 2.11,-1.36 3.62,1.97 0.72,-1.61 3.54,-0.63 0.88,0.77 1.76,-2.46 -3.02,0.3 2.83,-1.99 0.63,-2.79 0.37,2.9 1.5,0.42 -0.77,-0.21 0.32,-3.77 0.27,3.02 4.5,1.36 0.75,1.01 1.94,-1.9 4.36,1.97 0.24,1.12 -1.31,1.1 1.44,0.82 -0.07,2.39 4.41,2.27 -1.14,0.26 -3.17,4.79 0.15,1.15 3.45,0.72 1.38,-0.16 1.24,-4.14 0.29,0.82 2.75,0.3 1.31,-2.08 3.96,5.92 1.87,-0.58 -0.63,-0.7 0.84,-1.01 1.82,1.17 2.22,-0.91 7.78,1.92 1.46,-0.98 2.9,2.06 5.57,0.54 1.19,1.36 1.36,-2.52 3.59,1.68 1.18,-0.75 3.22,0.61 2.07,-2.52 2.78,1.38 2.17,-1.03 -0.15,-0.77 4.3,0 -0.16,-0.91 2.69,-1.85 -0.25,-1.82 1.4,0.16 -0.03,-0.94 -1.71,-0.98 2.19,-0.21 -0.35,-1.47 3.67,0.21 0.68,1.87 -0.88,0.79 1.87,-0.33 -0.08,-3.04 12.24,-0.47 -2.62,1.68 0.4,0.75 0,0 -2.07,3.02 0.32,5.45 -3.34,3.58 -1.4,-1.19 -2.35,1.64 1.47,4.88 2.18,1.17 -1.2,1.66 -2.14,-0.82 -0.75,2.78 -2.65,-0.98 -4.32,3.24 -4.98,-1.49 -5.67,2.38 -3.5,-3.85 -4.78,2.78 -0.28,2.57 -2.11,1.8 -4.48,-2.29 -1.55,0.68 -0.36,-1.03 -2.06,1.7 -0.84,-2.12 -4.72,-1.73 -1.74,1.19 -2.62,-0.05 0.36,2.17 -3.39,0.47 1.24,1.05 -1.28,1.03 -5.06,0.91 -4.48,2.98 -0.28,1.05 5.53,6.34 -1.22,0.54 0.35,1.28 -2.04,-0.4 -0.72,0.88 -0.66,6.12 -1.78,4.65 -1.92,1.6 -0.43,3.65 -3.03,2.07 -3.13,-0.7 -3.21,2.02 -2.07,-0.81 -1.52,3.81 -4.12,0.53 -0.6,1.42 0.97,1.95 -3.59,1.28 1.24,1.49 -8.74,-1.53 -2.1,-2.18 -0.63,1.02 -4.17,1.18 -2.33,2.72 -0.94,-0.32 -2.11,1.46 -2.66,-1.07 -1.12,1.65 -2.53,0.14 -1.07,7.4 -4.7,3.99 0.23,1.32 -1.91,2.34 -3.13,1.95 0.58,3.36 -1.35,3.87 -2.99,-0.02 -1.01,1.8 -1.18,3.72 1.74,7.91 -0.21,9.93 -1.48,4.75 0.76,4.08 -0.98,-0.14 -0.23,0.92 1.7,9.45 -0.78,1.66 1.94,3.06 1,9.87 -1.36,2.92 -9.27,6.6 -3.23,6.39 -2.63,8.61 -2.18,0.39 -2.22,2.04 0.24,0.71 2.75,-0.07 -1.1,1.86 1.4,5.98 -3.31,5.7 -1.46,-0.12 -0.28,-1.05 -0.95,2.27 0.79,3.85 -3.71,2.54 -1.06,4.9 -2.55,0.3 -0.21,2.08 1.99,0.34 0.35,3.91 4.85,-1.78 0.19,1.46 1.24,0.55 2.65,0.8 1.76,-1.69 1.39,1.44 2.69,-2.42 2.86,-0.05 3.41,5.44 -0.9,1.19 0.64,1.76 -0.76,1.55 1.36,1.42 1.26,-0.91 3.83,1.21 2.04,6.5 2.62,1.71 1.23,-0.87 -6.47,4.49 0.98,-0.25 2.78,3.97 0.83,2.17 -1.24,2.1 1,3.62 1.2,0.87 1.03,-0.43 0.05,1.75 -1.35,0.52 -0.45,-1.32 -2.15,0.02 -1.36,-2.19 -0.09,2.46 -1.55,0.02 -0.79,1.14 -0.19,-1.3 -4.12,-1.66 -0.23,2.64 -1.64,0.68 -0.68,-0.66 -0.2,3.73 -2.79,0 -1.94,2.62 -1.1,0.07 -2.3,-2.28 0.41,-1.18 -3.19,0.57 -0.6,-1.12 -4.32,-1.21 -1.72,0.87 -2.57,-1.91 -0.42,-1.87 -2.78,-2.48 0.59,-2.37 6.25,-2.6 0.05,-3.92 -2.25,-1.32 -0.24,-2.3 0.49,-0.43 0.94,1.23 1.32,-1.14 1.67,1.28 1.74,-0.39 -2.74,-4.45 0.44,-2.01 -2.17,-2.42 0.91,-1.62 -5.92,-2.35 -0.35,-5.23 -2.19,-0.94 -0.42,1.96 -2.12,0.07 0.21,1.51 -1.95,1.1 -1.99,-0.02 0.29,-1.55 -3.41,0.48 -0.92,-0.64 -1.76,3.61 -2.18,1.71 -1.36,-0.46 -2.65,1.12 -1.28,1.8 -2.39,-0.66 -1.8,1.21 -1.87,-1.37 -0.63,1.37 -4.69,-2.65 -2.21,4.86 -2.46,-2.6 -1.54,0.94 -2.66,5.04 0.17,3.83 -11.42,11.67 -5.83,7.88 -3.18,-1.11 -4.49,0.77 -3.03,-1.55 -2.42,-3.67 0.52,-1.34 -2.85,-1.59 -11.81,5.67 -5.06,-0.32 0,0 -1.03,-3.62 -1.83,-2.23 1.22,-1.32 -1.04,-0.02 -0.09,-2.71 -8.39,-3.69 1.1,-1.92 -0.8,-2.92 1.82,-1.19 1.36,0.62 1.26,-1.53 2.77,0.27 -0.31,-3.58 1.79,0.62 0.35,-1.69 3.59,0.18 1.92,-4.22 3.13,-0.32 -1.96,-2.21 1.46,-2.08 6.63,-0.46 -1.79,-6.17 1.14,-2.68 -2,-0.89 0.61,-0.69 -0.77,-3.8 2.36,-0.69 -0.33,-2.59 9.46,-1.83 -0.35,-2.77 3.02,-0.73 -1.03,-5.15 2.04,-0.76 -0.81,-3.3 -4.12,0.78 -1.8,1.51 -2.99,-0.48 -4.25,1.67 -1.58,3.55 -0.57,-1.9 -5.38,1.44 -2.03,-0.46 0.08,1.08 -1.02,0.23 0.37,1.99 -5.64,-0.09 -0.04,-1.08 -7.99,1.1 -1,-1.33 -0.27,2.18 -1.44,0.05 -0.75,1.6 -1.54,-4.65 1.18,-1.42 0.07,-3.25 -2.81,-0.78 -3.79,-3.76 -1.94,0.21 -0.95,1.35 -3.01,-1.05 -1.22,2.57 -1.07,-0.34 -1.55,1.28 -0.98,-0.73 -0.29,5.11 -0.82,0.34 -0.65,-1.26 -1.27,0.18 0.04,1.26 -2.34,-1.44 0.04,-2.15 -4.57,0.34 -1.32,1.08 -5.89,-0.23 -2.15,-2.89 -1.26,1.4 -0.94,-0.69 0.04,-1.83 2.55,-2.73 -0.74,-1.24 0.75,-1.26 -1.72,-2.41 -2.79,0.62 -1.14,-2.2 3.58,-1.7 -0.6,-3.92 -1.27,-0.14 -0.15,-3.44 0.87,-0.14 -1.1,-1.72 0.68,-1.59 0,0 1.83,-7.15 -0.41,-7.66 1.71,1.31 1.32,-1.61 1.31,0.35 1.42,-2.79 0.91,1.06 1.14,-0.62 -1.54,-5.2 -2.57,0.02 2.93,-1.87 -2.03,-5.92 -0.19,-4.26 2.19,-3.3 0.59,0.25 0.01,-1.25 3.92,-0.81 5.37,2.56 1.08,-2.79 -0.64,-3.35 1.19,-0.14 0.2,0.9 2.79,0.28 1.44,2.65 2.53,0.35 1.8,-0.81 0.47,-1.57 -1.27,-1.8 1.28,-1.18 -0.52,-1.64 1.15,-0.67 -0.25,-3.51 1.86,-0.35 -0.35,-2.33 -0.75,0.09 -0.76,-1.9 1.35,-2.01 0.32,-4.95 5.64,-3.7 5.56,-0.72 0.21,-1.57 1.51,1.37 1.04,-1.76 1.22,-0.21 -0.21,1.11 1.18,-0.35 -1.74,-12.67 1,-0.32 -0.4,-0.86 2.67,-0.12 0.67,-1 1.27,1.62 1.39,-0.6 1.28,-0.97 0.15,-3.29 -1.82,-1.86 -4.18,-1.72 -2.23,-3.13 0,0 -2.58,0 0,0 -5.35,1 -1.54,-4.39 -5.32,-2.32 -2.49,-4.11 -5.3,0.07 -3.66,-3.95 1.58,-1.58 0.16,-2.23 3.57,-1.3 -0.67,-3.63 5.49,-0.93 0.37,-0.98 -1.19,-0.7 0.61,-1.16 1.38,0.02 1.12,-1.44 -1.82,-0.47 -0.11,-2.96 -2.03,-2.3 -1.43,-0.07 -0.09,-0.75 -1.52,0.65 0.47,-1.51 -1.08,-0.23 0.61,-1.91 -1.24,-1.17 -0.01,-3.73 -1.56,-0.47 -1.3,1.07 -2.33,-2.77 0.31,-1.26 -1.14,-0.33 0.83,-0.65 -2.54,-2.92 1.92,-1.1 0.7,-1.73 -5.17,-1.07 -0.49,-1 -0.05,-2.24 -1.28,-1.8 0.25,-2.69 -1.44,-2.29 3.17,-4.16 -8.07,-2.6 -0.36,1.1 -1.78,-0.19 0.04,-1.26 -2.06,-0.21 2.08,-10.9 -1,0.09 -0.08,-2.62 -4.34,-0.4 1.12,-9.18 1.11,-0.4 -0.28,-4.1 1.96,-1.2 0.31,-3.24 2.89,-1.17 0.27,-5.42 0,0 5.85,0.47 -0.44,-2.37 4.38,-2.49 -1.04,-3.17 2.62,-1.27 -0.58,-4.21 0.98,-0.56 1.04,0.85 0.91,-0.54 1.51,1.46 4.22,0.68 6.13,-2.7 1.32,-3.36 -1.71,-2.56 -0.05,-3.13 -1.71,-3.06 2.22,-0.52 0,-1.15 1.55,-0.6 z" 
                fill="rgb(151, 144, 238)" 
                stroke="white" 
                stroke-width=".7px"
                title="Vilnius" 
                id="LT-VL" 
            />
        </svg>