<svg xmlns="http://www.w3.org/2000/svg" viewBox="193.45598999999984 8.1938239 238.22000000000006 227.75999609999997" width="238.22000000000006" height="227.75999609999997">
            <path 
                d="m 266.94599,8.1938239 2.38,0.19 1.47,2.0300001 3.03,0.09 2.14,7.83 -1.81,0.89 2.92,9.44 2.52,2.26 3.7,-0.77 2.81,4.42 2.62,-0.77 0.6,-1.75 8.71,-5.41 -1.33,-3.9 0.94,-1.18 -1.08,-1.95 14.65,-0.87 4.17,-2.86 9.94,1.08 4.18,2.1 2.82,4.4 6.12,1.04 3.53,2.71 4.59,0.89 11.74,-6.95 17.61,-2.98 1.79,1.37 0.08,1.61 -2.39,6.38 0.46,2.81 2.06,0.63 2.25,-4.6 2.6,-0.55 1.51,0.72 11.36,-0.19 2.06,2.28 11.57,-0.04 0.98,4.71 3.46,3 0.01,4.23 6.56,0.65 0.07,1.66 2.52,2.11 -0.25,2.88 5.32,-0.96 0,0 -0.23,1.92 -3.46,0.98 -0.76,2.62 0.88,1.97 0.91,0.12 0.24,2.01 -0.71,0.43 0.87,2.93 4.52,2.06 -1.41,1.72 -0.49,3.93 3.37,-0.67 -0.75,6.11 0.58,0.81 -0.85,2.18 1.03,0.6 -0.62,1.38 -4.5,1.22 -1.62,-0.86 -0.77,3.06 -1.19,0.39 0.07,3.56 -1.77,2.27 0.16,2.2 -4.18,1.14 0.51,2.06 -1.06,7.399996 -1.01,1.41 -1,-1.939996 -1.81,-0.76 -0.52,3.529996 0.74,1.74 -2.73,3.25 0.75,3.55 -1.98,5.31 0.68,1.89 1.71,-0.36 0.36,1.69 2.78,-1.07 1.71,2.9 3.78,-0.35 0.24,6.52 -2.55,4.85 1.11,4.68 -3.59,0.6 -0.11,1.26 -3.17,0.92 -0.5,2.93 -3.79,-0.93 1.83,4.13 -8,-1.07 1.14,1.26 0.97,7.45 1.28,1.12 0.74,3.63 4.24,-0.86 2.04,4.41 -1.8,2.68 2.23,0.5 0.73,2.35 1.23,-0.29 -0.85,3.36 0.57,1.52 -1.16,-0.33 -0.42,2.86 4.8,3.62 -0.57,1.49 -2.96,0.64 -0.42,1.75 -0.94,0.48 -1.59,-1.07 -0.57,2.53 0.97,1.82 -0.11,3.81 1.06,0.24 1.18,3.61 -1.54,0.14 -0.55,1.18 -5.61,-0.61 -1.4,2.57 -6.86,-2.38 0.36,5.41 -0.72,0.02 -1.07,5.12 -0.95,0.31 -1.79,5.3 0,0 -4.53,3.49 -1.37,-0.61 -3.97,1.56 0.17,0.84 -11.21,4.65 0.16,1.64 -5.61,1.63 -1.67,3.3 -3.73,2.28 1.1,0.8 -0.7,2.21 -3.21,0.19 -2.41,-1.08 -6.74,0.44 -0.91,-4.63 1.14,-3.3 -3.69,-2.14 -0.75,-1.46 -3.99,0.82 -0.14,0.92 -3.9,0.26 1.12,4.54 -0.68,-0.18 -0.33,1.64 -1.33,0.76 -2.35,-0.71 0.95,-1.6 -5.2,-2.4 -2.12,0.14 -0.01,-2.5 -2.84,-3.81 -2.66,-2.17 -2.36,-0.35 -0.39,-1.02 -1.19,-0.23 -5.98,3.53 -0.54,-2 -1.04,0.42 0.29,1.54 -2.58,2.07 -0.24,-1.46 -1.97,-0.21 -1.14,-6.01 -1.07,-1.04 0.58,-2.64 -0.98,0.16 -0.71,2.1 -9.63,3.02 -2.27,-0.35 -0.54,-3.35 -3.63,0.75 0.77,2.43 -1,0.28 0.29,3.35 -2.94,0.28 -0.18,0.8 2.22,6.39 -0.75,1.17 -2.57,-0.89 -0.84,-1.41 -0.36,2.8 -1.98,-2.19 -3.73,3.86 -0.38,-0.71 -0.91,0.43 0.26,1.08 -1.24,0.8 0.02,-1.22 -1.57,0.04 -2.28,1.25 -5.13,0.52 -5.38,5.15 -0.65,-0.85 -1.92,0.97 0.66,-1.04 -0.56,-0.8 -2.08,0 -0.78,2.28 -0.77,-0.23 -2.53,-3.53 3.41,-1.34 -0.9,-0.52 1.22,-1.76 -1.15,-1.49 0.43,-2.04 -1.63,0.63 -2.22,-0.99 -2.24,1.27 -3.59,-0.11 -2.08,-2.43 -5.76,7.06 -1.64,-1.2 -3.06,2.61 0,0 -7.3,-1.24 0.13,-1.06 3.25,-1.88 -1.05,-1.49 0.34,-0.96 -2.51,-3.25 -2.56,-1.39 -3.37,-5.21 0.65,-3.6 -3.95,0.33 -2.83,-6.35 -3.97,-1.01 0.2,-2.67 0,0 0.18,-0.83 0,0 -0.13,-1.62 1.46,-2.51 -2.39,-2.31 -1.22,0.21 -1.47,-1.18 0.8,-5.51 -1.64,-3.59 0,0 1.56,-2.91 4.17,-0.35 1.78,-1.49 0.37,-3.13 -0.51,-6.53 -1.53,-0.69 0.76,-1.99 -5.69,-11.16 12.86,-3.13 0.34,-9.4 -1.87,-2.38 1.15,-1.45 7.76,0.67 1.87,-1.48 -0.04,-1.3 1.99,-0.76 3.06,2.06 0.47,-1.59 -1.31,-2.42 3.66,-0.05 0.3,-5.26 -1.06,0.24 -0.83,-3.21 3.05,-0.81 -0.6,-2.33 -3.02,-0.1 0.2,-1.9 -1.05,-0.12 -1.93,-7.5 -2.9,-1 1.4,6.05 -1.3,0.5 -1.24,-1.36 -2.47,0.71 -2.21,-0.73 0.41,-3.24 -1.18,-0.46 -1.51,-3.05 1.86,-2.21 1.64,-0.22 0.8,-4.72 1.34,-1.86 -0.67,-0.98 1.64,-1.31 -1.4,-1.619996 -0.39,-2.87 2.5,2.22 0.31,-1.57 3.41,-2.41 3.73,1.17 6.54,-2.75 1.18,0.43 -0.98,-3.75 -4.19,-3.04 0.01,-4.87 1.15,-1.08 -0.48,-1.48 -0.5,0.48 -1.47,-1.42 -6.89,2.99 -2.45,-0.35 -0.22,3.44 -1.61,-0.43 -0.81,2.01 -3.85,-0.7 -3.61,-3.15 -2.62,-0.84 -3.44,-0.07 0.16,1.41 -2.16,0.96 -3.51,-0.53 -0.2,-1.05 -5.85,-0.27 1.47,-2.27 1.03,-0.09 0.2,-2.52 -0.94,-0.14 -1.28,1.72 -1.39,-0.43 2.1,-5.4 -1.75,-1.85 -0.69,1.13 -2.77,-1.3 0.1,-1.55 1.55,-9.18 1.02,-0.02 -0.34,-1.44 0.93,-0.41 1.13,-9.26 5.2,-0.02 2.53,-1.61 1.53,-7.85 -2.66,0.36 -0.22,-2.28 -1.76,-1.57 3.03,-0.5 5.89,1.15 0.68,-2.71 8.38,1.61 3.16,-7.34 -1.83,-0.6 0.14,-1.15 -1.9,-1.88 -1,-2.72 6.92,0.24 0.23,-0.94 0,0 2,0.32 2.87,2.72 2.28,-0.49 4.04,-4.3 17.25,1.13 1.93,-1.81 3.75,-0.17 3.54,-1.9 -0.36,-0.82 1.46,-0.7 -0.07,-1.11 -1.36,-0.19 -0.47,-1.08 2.11,-1.06 0.04,-1.8600001 z" 
                fill="rgb(151, 144, 238)" 
                stroke="white" 
                stroke-width=".7px"
                title="Šiauliai" 
                id="LT-SA" 
            />
        </svg>