<svg xmlns="http://www.w3.org/2000/svg" viewBox="527.5051400000002 135.64857999999998 84.7199999999998 50.72999999999999" width="84.7199999999998" height="50.72999999999999">
            <path 
                d="m 533.64514,182.65858 0.48,0.79 0.43,-0.1 0.16,0.89 1.03,0.86 0.37,0.17 1.06,-0.66 0.44,0.8 -0.32,0.6 -1.33,-0.05 -1.01,-0.86 -1.07,-0.25 -1.72,1.53 -0.13,-2.72 0.44,-0.55 0.25,0.24 0.58,-0.31 0.18,-1.22 0.16,0.84 z m -0.46,-1.72 0.28,0.77 -0.42,-0.35 0.14,-0.42 z m 3.08,-11.16 0.6,0.83 1.27,0.1 -0.17,0.27 0.32,0.13 -0.5,0.14 -0.09,0.44 0.9,1.23 -0.99,0.43 -0.11,0.9 -1.27,0.21 -0.09,0.96 -0.3,0.1 0.24,0.27 -0.5,-0.06 -0.91,1.18 -0.54,-0.16 -0.01,0.49 -0.46,-0.45 -0.04,0.46 -0.48,-0.02 -0.45,0.94 0.08,1.56 -0.59,-0.37 -0.37,0.41 -0.73,-1.38 -0.66,0.5 -0.05,-0.36 -0.54,0.16 0,-0.47 -0.72,-0.13 -0.65,0.81 -0.65,-0.54 -0.3,-1.09 0.62,-1.29 -0.57,-0.67 0.38,-0.56 0.43,0.29 1.67,-0.22 -0.6,-0.7 0.38,-0.58 -0.13,-0.78 1.31,-0.76 0.47,-0.72 0.46,0.4 0.35,-0.6 0.78,0.06 0.2,-0.5 0.43,0.39 1.27,-1.02 0.29,0.41 0.27,-0.53 0.75,-0.11 z m 38.59,-1.63 0.61,0.21 -0.53,0.38 0.03,0.72 -1,-0.02 -0.12,-1.2 0.4,0.64 -0.06,-0.41 0.56,0.21 0.11,-0.53 z m -16.95,-14.83 -0.75,0.53 0.94,-0.93 -0.19,0.4 z m 23.98,-13.11 -0.27,0.55 -1.29,0.73 -0.64,-0.13 -0.56,0.99 -0.51,-0.43 -0.33,0.37 0.09,0.83 0.58,0.66 2.68,-1.11 -0.4,0.31 0.21,0.72 -0.5,0.72 -1.5,0.21 -0.02,1.07 0.52,0.93 0.76,0.7 2.3,0.98 2.05,-1.08 0.52,-1.04 2.34,1.57 0.72,-0.06 -0.17,0.87 0.71,0.26 -0.63,0.35 -0.02,1.72 -0.39,-0.02 -0.13,0.77 -0.79,-0.08 -0.38,0.53 -0.22,1.12 0.49,0.37 -0.69,0.14 -0.29,0.85 -0.98,0.45 0.22,0.14 -1.44,1.7 -0.35,2.52 -0.34,-0.35 0.17,0.33 -0.84,1.63 -0.31,0 0.2,0.2 -1.24,0.41 -0.45,0.87 -0.67,-0.12 -2.03,2.14 -0.61,0.12 -1,-1.55 -0.75,-0.21 0.09,-0.78 -0.84,-0.85 -0.78,-0.06 -0.44,0.44 -0.81,-0.48 -1.3,-0.07 -0.18,0.39 -0.6,-0.38 -0.53,0.15 -1.26,-1.55 0.14,-1.23 -0.68,-1.21 0.72,-1.22 -2.14,-1.79 -0.97,0.05 0.25,-0.22 -0.29,-0.04 -0.25,0.65 0.45,-0.15 -0.21,0.3 -0.71,-0.23 -0.43,0.73 -1.39,0.25 0.21,0.44 -0.37,0.22 -0.29,1.67 -0.88,-0.52 -0.39,0.23 0.08,-0.88 -0.62,-0.5 0.64,-0.42 -0.75,-0.67 -0.89,0.49 0.09,-0.5 -0.46,0 -0.49,0.59 0.01,-0.47 -0.69,0.06 0.73,-0.51 -0.48,0.08 -0.7,-0.72 0.27,-1.42 2.88,-1.68 1.82,-1.75 0.74,0.04 0.84,-0.58 0.91,-1.4 1.18,-0.58 0.16,-0.69 0.34,-0.23 0.32,0.3 0.17,-0.7 2.06,-1.02 0.08,-0.55 1.83,-0.19 0.24,-0.48 2.22,-1.02 0.4,-0.59 0.89,0.41 1.63,-1.02 -0.11,0.27 0.62,-0.1 -0.03,0.46 0.89,-0.55 0.72,0.13 1.24,-0.98 0.41,-0.04 -0.18,0.34 1.05,-0.32 z m 26.01,3.89 -3.59,-2.36 -2.06,-0.79 -1.63,0.56 -2.06,0.02 0.27,-2.8 -0.96,0.11 -0.19,-0.77 0.85,-1.1 1.21,-0.23 0.85,-0.06 0.63,0.49 0.33,-0.6 1.22,0.42 1.44,-0.51 0.58,0.48 0.96,-0.59 -0.2,-0.72 0.47,0.11 -0.17,0.93 0.3,0.53 0.81,-0.66 -0.17,1.31 0.37,-0.3 -0.1,-1.13 0.97,0.22 -0.32,0.92 0.57,0.44 0.36,-0.36 0.28,1.38 0.05,-0.7 0.34,0.57 1.36,0 -0.39,0.14 0.31,0.38 -0.32,0.63 0.4,0.17 -0.12,0.46 0.41,-0.17 0.14,1.37 0.61,0.49 0.06,0.64 0.46,0.14 -0.46,0.22 -0.39,-0.73 -1.05,-0.18 1.06,0.52 0.3,0.57 -0.1,1.17 -0.85,0.82 -1.75,-0.56 -1.09,-0.89 z" 
                fill="rgb(151, 144, 238)" 
                stroke="white" 
                stroke-width=".7px"
                title="Balearic Islands" 
                id="ES-IB" 
            />
        </svg>