<svg xmlns="http://www.w3.org/2000/svg" viewBox="400.6651399999999 13.148576 46.660000000000025 36.44" width="46.660000000000025" height="36.44">
            <path 
                d="m 418.70514,13.518576 0.9,-0.37 0.32,1 1.29,0.87 1.23,-0.37 0.78,0.91 0.45,-0.11 0.47,0.47 0.59,-0.32 0.35,0.63 1.08,-0.12 1.31,1.52 2.88,1.38 1.96,0.13 1.49,-0.6 0.6,0.26 0.09,-0.29 0.35,0.71 0.9,0.28 3.44,-1.29 1.07,0.2 -0.05,-0.37 0.86,-0.47 1.24,0.06 1.84,-1.6 1.58,-0.6 0.23,1.23 -0.69,0.42 1.33,0.28 0.57,0.5 0.16,1.16 0,0 -0.9,0.5 0,0 -0.41,-0.04 0,0 -0.06,0.06 0,0 -0.3,0.34 0,0 -0.05,1.15 -1.28,0.78 0,0 -0.23,0.05 0,0 -0.32,0.42 -0.4,-0.72 -0.16,0.86 -0.87,-0.61 -0.17,2.66 0.48,0.65 -1.22,1.4 -1.77,0.91 -0.14,0.61 0,0 -0.07,0.34 0,0 -0.55,0.6 0.37,1.23 -0.29,0.65 -1.42,0.25 -0.35,0.94 -0.63,0.3 -1.45,0.18 -0.8,-0.53 -0.75,0.95 -0.04,1.07 -0.33,-0.01 0,0 0.22,0.32 0,0 0.26,1.68 -1.29,2 0.49,1.42 -1.49,0.35 -0.19,0.58 0.34,1.9 0.47,-0.21 0.13,0.36 -0.09,0.59 -2.42,0.65 0.26,-0.33 -0.31,-0.49 -0.86,-0.22 -0.98,0.58 -0.84,1.25 -0.46,-0.13 0.24,1.09 0.75,-0.03 0.29,0.72 0.8,-1.4 0.71,0.28 0.11,2.98 -0.83,0.26 0.02,0.76 0,0 -0.74,-0.26 -0.77,0.38 -1.02,-0.15 0.13,-1.08 -0.76,0.88 0.18,0.44 -1.05,-0.38 -0.68,0.79 -0.28,-1.13 -1.13,0.73 -0.27,-0.74 -0.6,-0.24 0.03,-0.6 -0.77,0.33 0,0 0.36,-0.87 0,0 0.27,-2.01 -1.57,-0.99 -0.66,-0.01 -0.41,1.55 -0.63,0.56 -0.33,-0.14 -0.11,0.48 -0.52,-0.53 0,0 -0.08,-0.4 0,0 0.56,-0.35 0.04,-0.77 -0.63,0.12 -0.02,-0.76 -0.41,-0.33 0,0 -0.84,-0.38 -0.29,-0.7 0,0 0.07,-0.07 0,0 -0.14,-0.87 -0.76,-0.52 -1.36,0.14 -0.99,-1.23 0,0 0,-0.13 0,0 -0.69,0.05 -0.18,-0.96 -2.67,0.29 0.63,-1.17 -0.92,-0.57 1.36,-2.5 -0.28,-0.77 -1.05,1.3 -0.93,-0.46 -0.82,1.12 0.42,0.41 -0.26,0.05 -1.92,-2.05 1.65,-2.51 2.15,0.57 -0.06,0.6 1.54,0.69 1.97,-0.33 1.07,-1.11 -1.68,-1.18 0.13,-0.4 -0.67,-0.8 -2.27,-0.15 -0.85,-0.55 0.95,-0.29 0.02,-1.4 -0.45,-0.26 0.62,-0.86 -0.2,-0.46 -0.29,0.2 -0.78,-0.53 1.06,-1.82 -0.65,-0.42 -1.48,0.22 -0.85,-0.98 -4.46,2.39 0,0 -0.46,-2.8 0,0 -0.18,-0.28 0,0 -0.22,-0.71 1.39,-0.38 0.42,-0.89 1.19,-0.29 0.2,-0.84 0.25,0.3 0.75,-0.29 0.43,0.39 1.46,-0.7 0.42,0.93 0.5,-0.55 0.91,-0.12 0.11,-1.94 0,0 0.7,-0.06 0.32,0.43 0.19,-0.74 0.32,0 1.38,0.91 0.39,-0.28 -0.3,0.27 0.64,0.5 0.17,-0.85 -0.62,-0.95 0.88,-0.33 0.93,-1.12 0.64,0.01 -0.01,-0.87 3.74,0.21 0.64,-0.53 z m -13.61,9.23 -0.6,-2.02 1.09,-0.51 0.47,0.26 -0.54,1.05 0.03,1.05 0,0 -0.45,0.17 z m 12.18,15.03 0.07,0.02 0,0 0.1,0.17 0,0 0.16,0.14 0,0 2.5,-0.29 2.39,1.05 1.1,-0.19 0.38,0.73 0.83,-0.45 -0.42,1.43 -0.4,0.47 -0.3,-0.14 -0.24,0.69 0.87,1.04 1.48,-0.57 0.15,1.39 -0.84,0.27 -0.17,-0.39 -2.21,0.07 -0.63,-0.91 -1.23,-0.06 -0.38,0.44 -1.34,-0.15 -0.48,-1.18 -1.07,-0.38 -1.22,-1.14 0.82,-1.54 0,0 0.08,-0.52 z" 
                fill="rgb(151, 144, 238)" 
                stroke="white" 
                stroke-width=".7px"
                title="Basque Country" 
                id="ES-PV" 
            />
        </svg>