<svg xmlns="http://www.w3.org/2000/svg" viewBox="0.2651420700000006 488.55857999999995 128.96999793 54.72999999999996" width="128.96999793" height="54.72999999999996">
            <path 
                d="m 6.6551421,536.85858 0.61,0.25 0.53,1.12 -0.85,1.06 -0.34,1.18 -0.81,0.38 -0.57,2.44 -0.86,-0.31 -1.11,-1.31 -2.58000003,-0.33 -0.41,-0.35 0.16,-1.25 0.54,-0.45 1.46000003,0.52 1.2,-0.28 1.3,-1.17 -0.12,-0.67 1.85,-0.83 z m 68.1899999,-10.15 0.5,0.46 -0.17,1.01 0,-0.83 -0.28,0.94 0,-0.53 -0.32,0.23 0.5,1.22 -0.24,1.23 1.26,1.53 0.16,0.56 -0.45,0.74 0.69,1 -0.71,0.26 -0.25,1.09 0.24,0.99 -0.8,0.37 -0.36,1.24 -3.34,1.19 -0.56,0.92 -0.78,0.08 -1.62,-0.69 -0.4,0.23 -3.06,-2.6 -1.26,-2.32 0.27,-3.19 0.99,-0.23 1.79,-1.49 0.64,-2.48 -0.33,-0.48 0.71,-0.13 0.43,0.36 0.8,-0.42 0.99,0.85 2.03,-0.33 1.64,0.88 0.79,-0.35 -0.12,-0.87 0.62,-0.44 z m -50.46,-1.06 0.38,-0.08 0.45,0.53 1.31,0.02 0.33,0.62 1.75,0.84 0.42,0.74 0.06,1.11 -1.86,1.76 -0.82,0.34 -1.94,-0.06 -1.34,-1.03 -0.04,-0.54 -0.75,-0.68 0.1,-1.66 0.65,-1.39 1.3,-0.52 z m 13.91,-4.94 0.97,-0.02 1.43,-0.79 1.92,0.24 1.43,-0.78 1.09,-0.02 2.2,-2.07 0.52,-1.21 0.76,-0.61 1.27,-0.28 0.36,-0.69 2.72,0.4 1.77,-0.7 0.7,0.22 0.34,0.67 -0.15,0.85 -2.99,1.39 -0.46,0.97 -2.95,2.32 0,2.24 -1.75,3.15 -0.04,1.71 -3.27,3.78 -1.33,-0.13 -1.31,0.78 -1.56,-0.02 -0.27,-1.3 -0.72,-0.29 0.02,-0.91 -1.15,-1.06 -1.58,-2.66 -0.11,-1.77 -1.52,-2.08 -0.76,-0.29 0.2,-0.6 2.3,-0.98 0.66,0.5 1.26,0.04 z m 78.069998,-11.75 1.55,1.36 0.38,3.71 -0.57,2.73 -0.66,0.72 0.41,2.69 -1.16,2.14 -0.04,1.12 -0.55,1.08 -0.74,0.7 -1.15,0.03 -0.69,0.64 -5.63,1.31 -3.08,3.71 -3.91,-1.02 -0.899998,0.36 0.449998,-1.38 0.27,0.31 1.1,-0.02 2,-0.53 3.93,-2.88 0.57,-3.52 1.12,-1.29 0.42,-2.17 1.44,-1.43 1.6,-3.26 -0.12,-0.75 0.82,-1.85 -0.22,-1.22 3.36,-1.29 z m 2.27,-0.29 -0.1,0.77 -0.43,0.06 -0.19,-0.47 0.72,-0.36 z m -111.5799979,-2.79 1.43,0.75 1.33,-0.4 0.8599999,0.16 0.74,2.1 0.72,0.92 -1.26,2.04 0.56,1.61 -0.26,1.65 -2.2199999,3.63 -0.74,-0.63 -0.33,-2.07 -1.24,-1.73 -1.49,-4.01 -0.72,-0.97 0.05,-0.83 1.04,-1.33 1.53,-0.89 z m 120.9399979,-11.46 1.14,0.57 0.1,0.75 -0.23,0.93 -0.98,0.82 0.45,1.25 -0.5,0.99 0.03,1.16 -0.57,0.79 -1.39,0.73 -0.29,0.53 -1.34,0.11 -1.25,0.92 -2.52,0.38 -1.4,2.11 -0.38,-0.62 -1.95,0.11 -0.24,-0.97 1.42,-1.31 -0.11,-1.88 0.5,-1.37 1.65,-1.38 1.27,-0.04 1.54,-1.34 0.49,0.23 0.86,-0.62 1.47,0.53 0.62,-0.72 0.77,-2.4 0.7,-0.61 0.14,0.35 z m -1.14,-1.97 0.95,0.83 -0.87,1.21 -1.07,0.17 0.99,-2.21 z m 0.08,-3.89 0.47,0.41 -0.52,0.56 -0.61,0.01 0.17,-0.84 0.49,-0.14 z" 
                fill="rgb(151, 144, 238)" 
                stroke="white" 
                stroke-width=".7px"
                title="Canary Islands" 
                id="ES-CN" 
            />
        </svg>