<svg xmlns="http://www.w3.org/2000/svg" viewBox="362.5051399999999 11.038575999999999 46.19000000000011 28.06000000000001" width="46.19000000000011" height="28.06000000000001">
            <path 
                d="m 405.09514,22.748576 -0.6,-2.02 1.09,-0.51 0.47,0.26 -0.54,1.05 0.03,1.05 0,0 -0.45,0.17 z m -8.22,-11.71 0.02,0.42 0.98,-0.27 0.31,0.62 0.6,-0.11 0.39,0.79 1.92,0.35 0.19,0.78 -0.8,0.17 0.75,1.02 0.48,-0.31 1.22,0.3 1.16,-0.28 -0.05,0.72 0.59,-0.35 2.04,0.48 0.93,1.23 1.09,0.4 0,0 -0.11,1.94 -0.91,0.12 -0.5,0.55 -0.42,-0.93 -1.46,0.7 -0.43,-0.39 -0.75,0.29 -0.25,-0.3 -0.2,0.84 -1.19,0.29 -0.42,0.89 -1.39,0.38 0.22,0.71 0,0 0.18,0.28 0,0 0.46,2.8 0,0 -2.01,0.01 -2.22,-0.71 -0.82,0.09 -0.23,-0.68 -1.04,-0.44 -0.91,1.39 0,0 -0.02,0.17 0,0 -0.57,0.84 -1.32,0.57 -0.33,0.75 -1.79,0 -0.71,-0.35 0.16,1.82 -1.15,-0.01 -0.72,0.98 -0.96,0.51 -0.99,2.53 0.45,0.83 1.17,-0.13 -0.07,0.57 1.78,-2.06 1,0.99 -0.97,1.09 -1.21,-0.48 0.46,0.84 -0.83,-0.01 0.7,0.3 -0.41,0.55 0,0 -0.04,0.21 0,0 1.1,0.33 0.23,-1.35 0.75,0.36 0.58,1.64 -0.16,1.28 -1.12,0.46 -0.82,-0.66 -0.48,1.35 -0.55,-0.21 -1.28,0.56 -0.12,-0.38 -0.46,0 -0.16,-2.3 -0.42,0.44 0.14,0.45 -0.46,0.23 0.13,0.42 -0.56,0.28 0.08,0.59 -0.96,0.16 -0.48,-1.09 -1.36,0.07 -0.91,-0.76 -0.04,-0.42 0.67,-0.61 0.61,0.19 0.28,-0.9 -0.61,-0.51 -1.36,0.98 -0.67,-0.45 0.07,-1.98 -0.4,-0.22 -0.06,-1.49 -2.95,-0.65 -1.46,-2.27 -1.7,-1.01 -0.41,0.82 -1.16,-0.26 -1.03,1.01 -1.28,-0.61 -0.88,0.7 -1.21,-0.34 -1.44,0.2 -0.14,-1.28 -0.63,-0.02 -0.01,-0.71 -1.79,-1 -0.51,-0.88 0.44,-1.18 -0.46,-0.61 0.34,-0.31 0,0 0.61,-0.08 0,0 0.14,0.07 0,0 0.89,-0.38 1.1,0.19 0.48,-1.74 -0.27,-0.84 2.62,-0.39 0.71,-1.2 1.44,0.5 0.12,0.66 0.71,-0.36 0.14,-1.27 -0.59,-1.63 0.75,-0.9 -0.03,-0.49 0,0 1.12,0.17 1.42,-0.35 0.98,0.28 1.24,-0.55 0.44,0.6 1.16,0.04 2.86,-0.49 1.71,-0.66 0.82,-0.73 0.74,0.18 0.21,-0.44 0.34,0.43 0.38,-0.59 1.48,0.4 -0.36,-0.13 0.93,-1.1 2.91,-0.31 0.72,-0.6 0.74,0.12 -0.06,0.52 0.63,0.39 -1.06,0.24 -0.9,0.71 -0.01,0.4 0.65,0.23 -0.11,0.85 0.25,-0.54 0.12,0.27 0.63,-0.4 -0.35,-0.41 0.37,-0.04 0.14,-0.59 0.73,-0.07 -0.67,-0.35 1.01,0.04 0.34,-0.55 0.92,-0.06 1.16,-0.87 0.85,0.06 0.73,-0.6 z m -14.25,25.6 0.04,-0.05 0,0 0.02,0 0,0 0.36,0.18 0,0 0.11,0.78 -0.34,0.24 -0.27,-0.82 0,0 0.08,-0.33 z m -1.55,0.12 0.15,0.16 0,0 -0.03,0.17 0,0 -0.3,0.12 0,0 -0.19,-0.26 0,0 -0.04,-0.1 0,0 0.02,-0.09 0,0 0.1,-0.04 0,0 0.29,0.04 z" 
                fill="rgb(151, 144, 238)" 
                stroke="white" 
                stroke-width=".7px"
                title="Cantabria" 
                id="ES-CB" 
            />
        </svg>