<svg xmlns="http://www.w3.org/2000/svg" viewBox="301.85514000000035 21.308575999999995 144.26999999999987 114.57000400000004" width="144.26999999999987" height="114.57000400000004">
            <path 
                d="m 414.47514,44.638576 0.33,0.41 -0.51,-0.2 0,0 0.18,-0.21 z m -1.41,0.14 -0.19,0.1 0,0 0.03,-0.17 0,0 0.07,-0.11 0,0 -0.02,-0.13 0,0 -0.01,-0.04 0,0 0.27,-0.03 0,0 -0.02,0.2 0,0 -0.13,0.18 z m 4.46,-6.62 0.08,-0.05 0,0 2.5,-0.29 2.39,1.05 1.1,-0.19 0.38,0.73 0.83,-0.45 -0.42,1.43 -0.4,0.47 -0.3,-0.14 -0.24,0.69 0.87,1.04 1.48,-0.57 0.15,1.39 -0.84,0.27 -0.17,-0.39 -2.21,0.07 -0.63,-0.91 -1.23,-0.06 -0.38,0.44 -1.34,-0.15 -0.48,-1.18 -1.07,-0.38 -1.22,-1.14 0.82,-1.54 0,0 0.16,-0.47 0,0 0.1,0.17 0,0 0.07,0.16 z m -36.66,-1.41 0.21,0.02 0,0 0.09,0.04 0,0 0,0 0,0 0.06,0.11 0,0 -0.03,0.17 0,0 -0.3,0.12 0,0 -0.19,-0.26 0,0 -0.04,-0.1 0,0 0.02,-0.09 0,0 0.1,-0.04 0,0 0.08,0.03 z m 2.02,-0.06 0.17,0.08 0,0 0.11,0.78 -0.34,0.24 -0.27,-0.82 0,0 0.12,-0.38 0,0 0.02,0 0,0 0.19,0.1 z m -74.12,-3.38 1.39,0.58 -0.05,0.6 0.36,0.04 1.02,-1.3 0.95,-0.2 2.08,-0.1 1.86,0.44 0.88,-0.55 0.59,0.3 0.35,-0.51 1.15,-0.24 0.01,-0.86 -1.04,-0.13 -0.13,-0.93 0,0 0.18,-0.01 0,0 0.7,0.37 0.24,-0.42 0.38,0.16 0.33,-1.1 0.5,-0.11 -0.11,-0.65 0.64,-0.12 0.39,-0.66 0.74,0.5 0.11,0.52 0.85,0.18 0.3,-0.34 0.55,0.71 1.01,0.26 0.35,-1.37 1.03,-0.02 1.08,1.02 1.08,-0.44 0.47,-1.63 1.64,0.75 1.26,-0.37 0.47,1.69 1.18,1.01 0.72,-0.04 -0.08,0.5 0.76,-0.02 0.54,0.65 0.99,-0.03 1.16,-0.25 -0.08,-0.6 1.07,-2.06 1.02,-0.57 1.51,0.86 3.85,0.49 0.38,-1.25 2.41,0.2 0.19,-1.37 0.42,-0.31 0.68,0.02 0.52,0.58 3.14,-0.36 0,0 0.08,-0.18 0,0 1.61,-0.79 0.21,0.42 1.04,0.04 0.72,-2.92 1.46,-0.13 0.67,0.41 0.87,-1.39 1.44,-0.97 1.15,0.39 0.83,1.64 0,0 -0.34,0.31 0.46,0.61 -0.44,1.18 0.51,0.88 1.79,1 0.01,0.71 0.63,0.02 0.14,1.28 1.44,-0.2 1.21,0.34 0.88,-0.7 1.28,0.61 1.03,-1.01 1.16,0.26 0.41,-0.82 1.7,1.01 1.46,2.27 2.95,0.65 0.06,1.49 0.4,0.22 -0.07,1.98 0.67,0.45 1.36,-0.98 0.61,0.51 -0.28,0.9 -0.61,-0.19 -0.67,0.61 0.04,0.42 0.91,0.76 1.36,-0.07 0.48,1.09 0.96,-0.16 -0.08,-0.59 0.56,-0.28 -0.13,-0.42 0.46,-0.23 -0.14,-0.45 0.42,-0.44 0.16,2.3 0.46,0 0.12,0.38 1.28,-0.56 0.55,0.21 0.48,-1.35 0.82,0.66 1.12,-0.46 0.17,-1.29 -0.58,-1.64 -0.75,-0.36 -0.23,1.35 -1.1,-0.33 0,0 0.04,-0.21 0,0 0.41,-0.55 -0.7,-0.3 0.83,0.01 -0.46,-0.84 1.21,0.48 0.97,-1.09 -1,-0.99 -1.78,2.06 0.07,-0.57 -1.17,0.13 -0.45,-0.83 0.99,-2.53 0.96,-0.51 0.66,-0.98 1.15,0.01 -0.16,-1.82 0.71,0.35 1.79,0 0.33,-0.75 1.32,-0.57 0.57,-0.84 0,0 0.02,-0.17 0,0 0.91,-1.39 1.04,0.44 0.23,0.68 0.82,-0.09 2.22,0.71 2.01,-0.01 0,0 4.46,-2.39 0.85,0.98 1.48,-0.22 0.65,0.42 -1.06,1.82 0.78,0.53 0.29,-0.2 0.2,0.46 -0.62,0.86 0.45,0.26 -0.02,1.4 -0.95,0.29 0.85,0.55 2.27,0.15 0.67,0.8 -0.13,0.4 1.68,1.18 -1.07,1.11 -1.97,0.33 -1.54,-0.69 0.06,-0.6 -2.15,-0.57 -1.65,2.51 1.92,2.05 0.26,-0.05 -0.42,-0.41 0.82,-1.12 0.93,0.46 1.05,-1.3 0.28,0.77 -1.36,2.5 0.92,0.57 -0.63,1.17 2.67,-0.29 0.18,0.96 0.69,-0.05 0,0 0,0.13 0,0 0.99,1.23 1.36,-0.14 0.76,0.52 0.14,0.87 0,0 -0.07,0.07 0,0 0.29,0.7 0.84,0.38 0,0 -0.68,0.64 -0.37,-0.25 -0.38,0.3 -0.93,-0.72 -1,0.13 -0.61,-0.35 -0.37,0.46 -1.78,-0.32 0.63,1.91 0,0 -0.41,0.1 0,0 -0.78,1.19 -0.8,0.43 0.26,0.33 0.95,-0.19 0.44,0.35 -0.11,0.95 -0.52,0.56 1.33,1.54 -0.45,0.79 0.18,1.99 -0.69,-0.95 0.11,-0.72 -0.61,-0.02 -0.11,1.12 0.56,0.01 0.58,0.91 -1.26,0.33 0.22,0.85 0,0 0.16,0.12 0,0 -0.31,0.45 0.47,2.47 -0.39,1.19 -0.68,0.58 2.6,4.05 2.62,-0.08 0.59,1.78 0,0 0,0.29 0,0 0.87,0.84 0.83,-0.78 1.2,-0.24 0.42,-2.37 0,0 0.07,-0.25 0,0 0.48,-0.56 0.6,0.23 0.44,-0.26 0.77,0.78 -0.07,0.73 -1.28,1.87 0.3,0.85 1.13,-0.22 0.82,0.66 1.33,-0.35 1.18,0.39 0.89,-2.06 0.89,-0.64 0.05,-1.63 0.76,0.26 0.76,-0.31 0.46,-0.76 3.27,-0.3 1.05,0.5 0.38,1.55 0.9,-0.51 2.92,0.16 -0.03,0.69 -0.87,0.5 1.44,2.23 -0.36,0.31 0.23,1.24 2.67,0.65 0,0 0.16,0.16 0,0 0.74,0.72 0.5,-0.03 2.91,-1.74 0,0 0.04,2.29 1.01,1.86 -0.05,0.97 -0.91,1.36 1.36,1.29 -0.12,0.62 0.91,0.44 -1,1.37 0.09,0.85 -1.37,0.08 -0.43,0.85 -0.37,0.02 0,0 -0.23,0.14 0,0 -0.74,1.27 -1.87,-0.03 -0.05,0.72 0.75,1.25 -0.38,2.15 0.75,0.9 -0.05,1.35 0.46,0.13 -0.03,0.5 -2.45,0.82 -0.4,-0.43 0.22,-1.14 -1.77,-0.65 -0.64,2.69 -1.05,0.62 0.18,0.73 -0.55,1.57 0.79,3.79 1.77,0.44 0.74,0.9 0,0 -0.3,1.2 0.44,1.280004 -0.25,0.33 -2.08,-1.800004 -1.16,1.22 -1.42,-0.49 -0.83,1.020004 -0.81,-0.12 -0.84,0.5 -0.91,-1.040004 -1.68,1.010004 -0.36,-0.53 -1.02,-0.18 -0.38,-1.340004 -0.73,-0.16 -0.22,-1.02 -0.55,-0.46 -1.02,0.81 -0.57,-0.38 0.42,-1.03 -1.15,-0.23 0.77,-0.49 0.1,-0.91 -1.08,0.31 -0.45,-0.85 -1.7,-0.41 -0.24,-0.79 -1.19,0.03 -0.44,0.68 -1.12,-0.11 -1.28,-0.61 -0.11,-1.56 -1.03,-0.38 -0.91,0.47 -0.29,0.77 -1.85,0.13 -1.17,0.54 -3.41,-1.07 -1.27,0.39 -0.58,1.31 -0.49,-0.63 -0.49,0.65 -0.89,-0.12 -0.33,0.33 -1.58,-0.17 -0.53,-0.54 0.42,1.01 -0.12,1.15 -1.09,-0.06 -0.59,1.12 -1.1,0.48 0,0 -0.25,0.23 0,0 -0.06,0.05 0,0 -0.31,-0.1 0,0 -0.31,0 0,0 0,0 0,0 -1.36,0.18 -1.15,0.82 -1.23,1.890004 -1.71,1.05 -1.1,1.88 -3.06,1.23 -0.79,1.38 -0.44,0.09 -1.12,5 -1.34,0.21 -1.15,-0.42 -0.73,1.59 -1.74,2.14 0,0 -0.63,-0.31 0,0 -0.41,0.11 0,0 -1.44,0.23 -0.6,0.46 0,0 0,0 0,0 -0.42,-0.15 -0.78,0.51 -0.05,0.6 0,0 -0.38,0.38 1.18,0.32 0,0 0.33,0.88 -0.3,1.37 -0.87,0.5 -0.16,0.54 0.32,2.47 -0.68,1.03 0.51,0.93 -2.72,0.15 -0.56,0.73 0.1,1.31 -0.6,0.33 0.17,0.76 -1.26,0.22 -0.68,-1.03 -0.54,0.09 0.48,1.74 -1.08,1.23 0.24,1.23 -0.52,0.27 0,0 -1.73,0.67 -1.05,-0.36 -0.18,-1.49 -0.43,-0.39 0.16,-0.76 -1.11,0.31 0,0 -0.56,0.39 0,0 -1.21,-0.5 -0.37,0.77 0.27,0.71 -1.79,1.25 0,0 -0.08,0.18 0,0 -1.28,0.88 -0.15,1.23 -1.88,0.84 0,0 -0.26,0.07 0,0 -0.31,-1.74 -1.34,0.29 -0.57,0.93 -0.29,-0.11 -1.12,1.25 -0.8,0.21 -0.85,0.12 -0.27,-0.84 -1.37,-0.12 0,0 -0.18,-0.04 0,0 -1.04,0.11 0,0 -0.6,-0.18 0,0 -0.19,-0.08 0,0 -0.88,-1.7 -0.05,-1.91 0.73,-1.64 -2.31,0.36 -1.17,1.53 -0.7,0.34 -1.44,0 0,0 -0.22,-0.07 0,0 -0.33,-0.21 0,0 -0.41,-0.21 0,0 -0.79,-0.17 -0.2,-1 -0.78,-0.15 -0.21,-0.71 -0.9,-0.77 -1.27,-0.07 -0.73,0.48 -0.74,-0.21 -0.29,-0.38 0.49,-0.9 -0.69,-1.33 -2.29,1.41 -0.69,1.46 -1.56,-0.5 0,0 -0.28,-0.19 0,0 -0.74,-0.53 0,0 -0.13,-0.18 0,0 0.06,-0.74 -2.38,-0.59 0.6,-0.29 -0.1,-0.48 0.35,-0.28 -0.31,-0.15 0.49,-0.18 -0.53,-0.37 0,0 -0.13,-0.05 0,0 -1.02,-0.48 0.33,-0.71 -0.78,0.21 -0.36,-0.79 -1.98,-1.04 -3.2,1.86 0,0 -0.38,0.39 0,0 -0.18,0.71 -1.33,0.14 -0.62,0.98 -0.66,-0.04 -2.22,1.12 -0.46,0.77 0.16,1.04 -0.82,0.73 -2.09,0.21 -0.74,0.76 -0.71,-0.96 -1.05,1.05 -0.77,-0.34 0,0 -0.48,0 0,0 -0.1,0.26 -0.76,-0.18 -0.87,-0.74 0,0 0.11,-1.1 1.89,-1.16 0.29,-1.21 -1.49,-1.6 -0.31,-1.41 1.39,-2.24 -0.14,-1.37 -1.13,-0.66 1.31,-3.26 -0.96,-3.31 0.39,-1.89 -0.27,-1.33 0.69,-0.13 0,-0.52 -0.22,-0.8 -1.05,-0.68 -0.3,-1.74 -1.7,-1.87 -0.29,-0.93 0.45,-0.33 1.49,0.41 1.4,-0.35 1.42,-2.320004 -0.37,-1.13 1.91,-1.78 0.21,-0.98 1.15,-1.36 1.33,0.11 0.26,-0.39 0.46,0.58 1.41,-1.32 0.28,0.39 0.51,-0.13 0.38,-0.3 -0.25,-0.52 1.12,-0.33 0.86,-1.72 1.03,-0.41 -0.43,-0.36 0.08,-0.56 0.59,-0.31 0.45,0.53 0.94,-0.3 -0.43,-0.86 1,-0.83 -0.25,-0.6 3.11,-4.49 -0.37,-0.83 -0.79,-0.33 -1.7,-1.92 -4,-0.93 -0.38,0.59 -1.14,0.4 -1.35,-1.06 0.04,-1.39 -0.53,-0.75 1.43,-4.52 -1.5,-0.54 0.68,-1.74 -1.13,-1.24 -0.87,0.94 -2.14,0.27 -1.41,-0.33 -0.64,-1.55 -0.75,-0.21 -0.82,1.71 -3.1,-0.03 -0.39,-0.84 -0.65,-0.2 0,0 -0.15,-0.78 0.73,-1.17 -0.37,-1.01 -0.92,0.09 -0.65,-0.87 0.8,-0.39 0.43,-1.37 0.97,-0.27 0.23,-1.58 1.18,-0.63 0.41,-0.9 1.14,-0.44 1.26,0.71 0.06,-0.56 0,0 -0.14,-0.3 0,0 1.62,-2.37 0.15,-2.28 -0.9,-0.28 -0.39,-0.55 -1.07,-0.17 -0.58,-0.65 0,0 0.02,-0.08 0,0 0.66,-0.76 -0.19,-0.92 0.41,-0.52 -0.42,-0.96 -0.85,0.24 -2.04,-1.24 -0.83,0.12 -0.4,0.88 -1.71,-0.47 0,0 -0.5,-0.04 0,0 -0.55,-0.03 0.45,-0.79 -0.17,-0.88 0.84,-1.13 -0.38,-0.46 0.04,-1.21 1.15,-0.56 -1.04,-1.91 0.91,-1.05 1.04,-0.07 0.35,-1.07 0.67,0.49 1.86,-1.72 -0.05,-0.53 0.74,-0.79 -0.79,-1.86 1,-0.29 -0.18,-0.91 0.47,-0.33 z" 
                fill="rgb(151, 144, 238)" 
                stroke="white" 
                stroke-width=".7px"
                title="Castile and Leon" 
                id="ES-CL" 
            />
        </svg>