<svg xmlns="http://www.w3.org/2000/svg" viewBox="347.30514000000034 91.30857599999997 122.27000000000004 116.3000040000001" width="122.27000000000004" height="116.3000040000001">
            <path 
                d="m 378.13514,114.77858 0.6,-0.46 1.44,-0.23 0,0 0.41,-0.11 0,0 0.63,0.31 0,0 -0.38,0.78 0.36,1.55 -1.86,0.7 0,0 -0.45,0.04 0,0 -0.45,-0.13 -0.22,-0.79 -0.52,0.01 0,0 -1.18,-0.32 0.38,-0.38 0,0 1.69,-0.1 -0.45,-0.87 z m 20.01,-17.530004 0.31,0 0,0 0.31,0.1 0,0 0.06,-0.05 0,0 0.25,-0.23 0,0 1.1,-0.48 0.59,-1.12 1.09,0.06 0.12,-1.15 -0.42,-1.01 0.53,0.54 1.58,0.17 0.33,-0.33 0.89,0.12 0.49,-0.65 0.49,0.63 0.58,-1.31 1.27,-0.39 3.41,1.07 1.17,-0.54 1.85,-0.13 0.29,-0.77 0.91,-0.47 1.03,0.38 0.11,1.56 1.28,0.61 1.12,0.11 0.44,-0.68 1.19,-0.03 0.24,0.79 1.7,0.41 0.45,0.85 1.08,-0.31 -0.1,0.91 -0.77,0.49 1.15,0.23 -0.42,1.03 0.57,0.38 1.02,-0.81 0.55,0.46 0.22,1.02 0.73,0.16 0.38,1.340004 1.02,0.18 0.36,0.53 1.68,-1.010004 0.91,1.040004 0.84,-0.5 0.81,0.12 0.83,-1.020004 1.42,0.490004 1.16,-1.220004 2.08,1.800004 0.25,-0.33 -0.44,-1.280004 0.3,-1.2 0,0 2.54,-0.84 1.33,1.39 0,0 0.34,-0.1 0,0 1.28,1.22 1.4,0.47 3.86,4.010004 0,0 0.31,0.48 0,0 0.87,0.76 0,0 0.25,0.59 0,0 -0.34,1.71 1.3,1.71 0.45,0.09 0.48,1.24 -0.07,1.26 -0.54,0.75 0.66,1.85 -0.75,2.57 0.48,0.64 -1.42,1.21 -2.04,-1.05 -0.53,0.56 -0.25,1.44 0.25,1.67 -1.41,0.79 -1.09,1.92 -0.23,-0.22 -0.23,0.32 -0.03,0.37 0.73,0.29 1.33,1.68 0,0 0.17,0.1 0,0 0.66,0.76 -0.61,0.05 -0.25,0.57 0.24,0.86 0.82,-1.16 4.03,4.27 0.87,-0.45 0.95,0.64 0.96,-0.41 -0.3,1.9 0,0 -0.01,0.69 1.19,0.86 -0.28,0.27 1.22,2.72 2.66,0.34 0,0 0.05,0.1 0,0 0.72,0.23 2.25,-0.57 0,0 0.63,1.45 0,0 -1.72,0.75 -0.18,0.58 0.39,0.7 0,0 -0.09,0.43 0,0 -0.46,3.35 -1.6,2.42 0.35,1.4 -0.44,0.68 -0.96,0.29 0,0 -0.73,-0.35 0,0 -0.78,-0.29 -0.93,0.79 -1.59,3.14 -1.57,0.95 0.48,0.09 0.1,1.64 -0.35,0.16 0.24,0.63 -0.27,0.7 -0.41,0.15 0.23,0.81 0.63,0.09 0,0 -0.2,0.24 0,0 0.6,0 -0.18,0.65 0.61,0 -0.26,0.32 0.38,-0.21 0,0 0.07,-0.06 0,0 0.19,0.61 -0.39,0.01 0.5,0.18 -0.05,0.48 0,0 -0.12,0.06 0,0 0.67,-0.49 0,0 0.06,0.16 0,0 0.06,0.33 0.05,-0.65 0.69,0.16 -0.29,0.31 0.67,0.05 0,0.44 0.47,-0.04 0.84,0.77 0.23,-0.29 0,0 0.18,0.05 0,0 0.94,0.35 0,0 0.16,0 0,0 0.57,0.07 0,0 0.16,0.08 0,0 0.91,0.35 0.32,-0.33 1.24,0.68 -0.52,3.35 -2,3.62 -0.21,2.11 1.01,0.75 2.23,3.34 3.01,-0.19 0.88,-0.54 1.12,0.2 0.3,1.19 0.66,0.59 -0.32,1.3 0.35,1.11 -0.14,1.36 -0.9,0.42 1.25,2.65 -1.29,1.37 -1.74,0.03 0,0 -2.44,-1.91 -0.1,-0.95 -1.82,-0.56 -1.37,0.43 0,0 -0.33,0.16 0,0 -2.54,2.08 -0.65,-0.92 -0.51,0.18 -1.71,1.69 -0.11,2.33 -0.95,0.67 -0.27,0.94 0.47,1.81 0.05,3.72 -3.02,2.26 -2.16,-0.02 -0.62,-1 0,0 -0.01,-0.14 0,0 0.26,-0.53 -0.51,-0.5 -0.45,0.38 -0.72,-0.6 -0.69,0.06 -0.03,0.46 -0.67,-0.14 0.3,0.46 -3.4,2.02 -1.99,0.56 -1.77,-0.85 -0.5,0.37 0,0 -0.36,0.66 0,0 -0.95,1.34 -2.68,1.17 -1.48,3.29 -1.71,1.42 -0.27,1.41 0,0 -2.22,-0.2 -2.49,-1.32 0,0 -0.35,0 0,0 -0.75,-0.44 2.91,-3.53 -0.2,-1.08 0.5,-1.68 -0.16,-0.72 -1.19,-0.55 0.06,-3.28 -2.44,-0.62 0.11,-2.64 -0.86,-0.78 0,0 -0.25,0 0,0 -1.79,0.62 -2.58,-1.27 -0.29,0.77 -0.2,-0.17 -0.11,0.43 -1.06,0.51 0,0.34 -0.21,-0.26 -0.63,0.34 -0.54,0.8 -0.63,-0.57 -1.66,-0.01 -0.75,0.63 -0.23,1.48 -1.74,-2.39 -1.93,1.33 -3.8,-0.64 -1.21,-0.74 0,0 -0.15,-0.07 0,0 -1.31,0.42 0,0 -0.11,0.31 0,0 0.04,0.68 -1.31,1.18 -1.2,0.3 -1.64,-0.38 -0.21,-1.12 -0.85,-0.31 -0.38,0.07 -0.16,1.5 -0.73,0.38 -3.12,-1.06 -0.27,0.35 -1.14,-0.39 0,0 -0.5,0.16 0,0 -0.67,0.2 -0.19,0.79 -0.67,0.63 -1.61,0.2 -5.87,-0.38 -3.64,-0.72 -0.37,0.69 0.25,1.13 -0.49,0.13 -4.49,-2 -2.39,-2.81 -0.48,0.18 -0.25,-0.43 -0.52,-0.11 -0.22,0.28 -0.78,-1.27 -1.18,-0.89 -1.02,-0.17 -0.12,-0.67 -4.1,-1.41 -0.51,-2.45 -1.88,0.08 -1.57,-0.43 -0.21,-0.78 -0.99,-0.43 0,0 1.57,-0.43 1.49,-4.27 0.53,-0.78 1.8,0.14 0.44,-1.87 -1.98,-0.9 -0.46,0.12 -1.11,-3.43 2.29,0.89 1.13,-0.43 0,0 0.09,-0.05 0,0 0.17,-0.55 -0.47,-0.33 0,0 -0.28,-0.11 0,0 -0.52,-0.98 0.93,-2.12 0,0 0.19,0 0,0 0.67,-1.21 1.89,0.2 2.46,0.97 -1.6,-1.56 -0.16,-1.2 -0.5,-0.29 -0.77,-2.4 1.45,-0.29 0.06,-1.27 0.96,-2.08 -0.55,-0.92 -1.33,0.98 0,0 -0.21,0.09 0,0 -0.81,0.79 -1.55,0.3 0,0 -0.07,0.07 0,0 -0.97,0.66 -2.19,-0.84 -2.92,-3.28 -0.8,-0.18 -1.96,-2.41 0,0 -0.46,-0.41 0,0 -0.81,-0.96 1.25,-1.56 0,0 -0.01,-0.33 0,0 0.58,-2.21 -0.94,-1.39 0.39,-0.23 -0.21,-1.44 -1.08,0.12 -1.27,1.59 -1.47,-0.25 -0.11,-2.41 0.73,-1.22 -1.12,-1.05 -2.21,0.5 1.13,-3.73 -0.1,-4.09 0.91,-0.56 0,0 0.19,0.08 0,0 0.6,0.18 0,0 1.04,-0.11 0,0 0.18,0.04 0,0 1.37,0.12 0.27,0.84 0.85,-0.12 0.8,-0.21 1.12,-1.25 0.29,0.11 0.57,-0.93 1.34,-0.29 0.31,1.74 0,0 0.26,-0.07 0,0 1.88,-0.84 0.15,-1.23 1.28,-0.88 0,0 0.08,-0.18 0,0 1.79,-1.25 -0.27,-0.71 0.37,-0.77 1.21,0.5 0,0 0.56,-0.39 0,0 1.11,-0.31 -0.16,0.76 0.43,0.39 0.18,1.49 1.05,0.36 1.73,-0.67 0,0 1.33,0.6 0.43,-0.6 2.12,-0.74 0.07,-0.76 1.4,-1.05 0.14,-1.05 0.6,0.37 0.18,2.5 0.45,-0.03 0.31,0.46 0.37,-0.29 0.26,0.5 0.68,-0.51 0.62,-1.4 1.57,-0.8 1.31,1.1 -0.04,0.65 1.16,0.13 0.82,-0.83 1.32,0.59 -0.05,0.48 0.93,0.93 1.04,-0.13 0.11,0.84 0.51,-0.51 0.44,0.45 1.06,0 1.08,1.05 0.77,-0.57 0.98,1.36 0.76,0.22 0.61,-0.51 0.88,0.53 0.58,-0.37 0.13,0.46 1.49,0.77 -0.39,1.9 -1.75,1.44 -0.44,-0.15 -0.36,1.12 -0.61,0.29 0.14,0.3 0,0 0.22,0.07 0,0 -0.11,0.24 -0.63,-0.28 0.15,0.5 -0.33,0.26 0.05,-0.66 -0.69,0.67 -0.64,-0.29 -0.66,0.88 -0.2,-0.41 -0.52,0.1 -0.54,0.42 0.2,0.28 0,0 -0.02,0.14 0,0 0.21,0.47 1.66,0.63 1.14,-1.15 0,0 0.18,-0.11 0,0 0.35,-0.7 0.95,-0.51 0.34,0.22 1.92,-0.69 -0.31,-0.74 0,0 0.41,-0.1 0,0 0.77,-0.8 1.86,-0.27 0.39,-0.98 0.99,0.27 0.58,-0.3 0.05,0.42 0.6,-0.33 0.78,0.39 0.59,-0.7 -0.05,-0.71 1.2,-0.22 0.82,1 0.75,0.19 0.25,-0.33 1.7,-0.1 0.38,-0.79 0,0 0.07,0 0,0 0.51,-0.32 0.17,0.93 1.08,0.11 0.96,-0.36 0.88,-1.2 -1.15,-1.26 0.18,-0.76 0.55,0.21 -0.47,-1.12 0.2,-1.35 -0.56,-1.74 -0.36,-0.39 -1.04,0.77 -0.6,1.05 -0.62,-0.47 0.4,-2.27 1.08,-1.37 -0.31,-0.63 0.6,-1.31 -0.67,-1.22 -1.17,-0.1 -0.07,-2.57 -0.86,-0.9 -0.9,0.09 0,0 -0.16,0.07 0,0 -0.68,-0.04 0.34,-1.22 -1.27,-0.91 0.25,-0.58 -0.44,-0.47 0.37,-0.2 0,0 0.04,-0.4 0,0 0.16,-0.36 -0.64,0.55 -0.66,-0.33 -0.19,-1.14 -0.57,-0.49 -0.32,0.78 -0.48,-0.41 -0.5,0.22 0,0 -0.03,-0.11 0,0 -0.64,-0.41 0.88,-1.42 -0.44,-0.29 0.1,-0.93 0,0 0,-0.11 0,0 -0.48,-0.65 -1.27,-0.15 1.16,-1.95 -0.16,-0.8 0.87,-0.56 -0.52,-0.92 0.47,-0.01 0.74,-2.89 0.54,-0.49 -1.18,-1.47 0.36,-1.41 -1.73,-0.420004 -0.57,-1.49 -0.81,-0.48 0.08,-0.55 z" 
                fill="rgb(151, 144, 238)" 
                stroke="white" 
                stroke-width=".7px"
                title="Castile-La Mancha" 
                id="ES-CM" 
            />
        </svg>