<svg xmlns="http://www.w3.org/2000/svg" viewBox="289.27514000000025 121.52857999999999 78.68999999999977 89.0700000000002" width="78.68999999999977" height="89.0700000000002">
            <path 
                d="m 307.61514,129.30858 0.87,0.75 0.76,0.17 0.1,-0.25 0,0 0.49,-0.01 0,0 0.77,0.34 1.05,-1.05 0.71,0.96 0.73,-0.77 2.1,-0.21 0.82,-0.73 -0.16,-1.04 0.47,-0.77 2.21,-1.12 0.67,0.04 0.62,-0.98 1.33,-0.14 0.18,-0.71 0,0 0.38,-0.39 0,0 3.19,-1.87 1.98,1.04 0.36,0.8 0.78,-0.21 -0.33,0.71 1.02,0.48 0,0 0.12,0.05 0,0 0.54,0.37 -0.5,0.18 0.32,0.16 -0.36,0.28 0.11,0.48 -0.6,0.28 2.38,0.6 -0.06,0.74 0,0 0.12,0.18 0,0 0.74,0.53 0,0 0.28,0.19 0,0 1.56,0.5 0.69,-1.45 2.3,-1.41 0.69,1.33 -0.49,0.9 0.29,0.38 0.73,0.21 0.73,-0.48 1.27,0.07 0.9,0.77 0.21,0.71 0.78,0.15 0.2,1 0.79,0.17 0,0 0.41,0.21 0,0 0.33,0.21 0,0 0.21,0.07 0,0 1.45,-0.01 0.7,-0.34 1.17,-1.53 2.31,-0.36 -0.73,1.64 0.05,1.91 0.88,1.7 0,0 -0.91,0.56 0.11,4.09 -1.13,3.72 2.21,-0.5 1.13,1.04 -0.73,1.23 0.11,2.41 1.47,0.25 1.27,-1.59 1.07,-0.12 0.21,1.43 -0.39,0.23 0.94,1.39 -0.58,2.21 0,0 0.01,0.34 0,0 -1.25,1.56 0.81,0.96 0,0 0.46,0.41 0,0 1.96,2.41 0.79,0.18 2.92,3.28 2.2,0.84 0.97,-0.65 0,0 0.06,-0.07 0,0 1.56,-0.3 0.8,-0.79 0,0 0.22,-0.09 0,0 1.32,-0.98 0.56,0.92 -0.96,2.08 -0.06,1.27 -1.45,0.3 0.77,2.39 0.5,0.29 0.16,1.21 1.6,1.56 -2.46,-0.97 -1.89,-0.2 -0.68,1.2 0,0 -0.18,0 0,0 -0.93,2.12 0.52,0.99 0,0 0.28,0.11 0,0 0.47,0.33 -0.17,0.55 0,0 -0.09,0.05 0,0 -1.13,0.43 -2.29,-0.89 1.1,3.42 0.46,-0.12 1.98,0.9 -0.44,1.87 -1.8,-0.13 -0.52,0.77 -1.49,4.27 -1.57,0.43 0,0 -1.4,0.77 -2.35,-0.36 0.47,1.34 0,0 -0.04,0.08 0,0 -0.47,0.06 0.01,0.53 -0.33,-0.27 -0.11,0.35 -0.22,-0.38 -0.15,0.63 -0.24,-0.26 -0.88,1.11 -0.97,0.49 -0.52,0.64 0.09,0.51 -1.7,-0.18 -0.61,1.03 0.22,0.5 -0.47,-0.26 -0.39,0.67 0,0 0.11,0.26 0,0 -1.85,1.25 -0.13,0.72 -0.96,0 -0.72,0.46 -1.01,1.65 -0.03,0.56 0.74,0.71 -0.44,1.28 1.3,2.27 -0.04,2 0,0 -0.1,0.06 0,0 -0.35,0.65 0.15,0.77 -1.03,0.44 -0.19,0.64 -1.41,-0.23 -1.94,1.94 -0.77,-0.23 -0.19,-1.39 1.24,-0.79 -0.27,-0.54 0.31,-0.16 0.26,0.36 -0.04,-0.73 -1.13,-0.53 -0.79,0.56 -0.69,-0.17 -0.49,0.38 -1.41,0.1 -0.71,0.56 -0.08,0.79 -1.24,0.93 -0.08,0.58 0.57,0.72 -0.71,0.73 -0.49,1.78 -2.66,-0.09 -1.78,0.46 -1.78,1.51 -0.56,-0.74 -1.03,0.1 -0.36,-0.41 -1.4,-0.25 -0.62,-0.63 0,0 -0.14,-0.05 0,0 -0.73,-0.63 -0.28,-1.15 -1.24,-0.32 -1.02,0.1 0.24,0.31 -0.73,0.59 0.16,0.6 -0.32,0.21 -1.94,-0.75 0,0 -0.32,0 0,0 -0.66,0.2 -0.12,-1.34 0,0 -0.43,-0.52 0,0 -0.69,-0.73 -0.56,0.27 -1.94,-0.34 -0.73,0.3 -0.62,-0.27 -0.03,-0.43 -1.05,0.01 0.43,-2.28 -1.37,0.04 -2.32,-1.04 0,0 -0.15,-0.48 -0.56,0.06 -0.43,0.47 -0.24,-0.25 -0.87,0.24 -0.46,0.7 -1.03,-0.1 -0.45,0.51 -1.46,-2 -0.43,-1.64 -0.46,-0.13 -2.75,-3.87 -0.2,-0.96 -0.99,-0.68 -0.5,0.13 1.02,-1.31 -0.71,-0.11 0.52,-2.23 1.62,-2.78 -0.76,-0.51 0.33,-2.96 1.36,-0.77 2.19,-2.35 0.91,-0.12 0.86,-1.27 0.77,-0.36 0.17,-0.54 -0.49,-0.99 2.61,-4.08 -0.25,-1.02 -0.73,-1.38 -1.21,-0.8 -2.03,0.61 -0.83,-0.31 -0.25,-0.47 0.35,-1.7 -2.22,-0.8 -0.7,-0.69 -0.22,-1.36 0.44,-0.95 -2.03,-1.99 -0.44,-1.58 0.64,-1.21 0.13,-1.62 -1.43,-0.97 -0.45,0.22 -0.44,-0.32 -0.26,-1.39 -1.06,-0.16 -1.01,-1.5 -0.86,-0.41 -0.75,-2.35 -0.4,-0.28 2.29,0.08 3.29,0.75 2.29,-0.92 2.81,0.48 0.62,-0.36 1.59,0.19 1.4,-0.46 1.09,-3.58 -0.25,-1.4 0.88,-0.41 1.19,-1.39 0.08,-2.14 0.45,-0.39 0.13,-1.58 0.57,-1.13 -2.07,-3.43 -1.64,-0.33 -0.83,-2.42 0.51,-1.42 1.24,-0.39 0.35,-0.71 1.15,0.12 z" 
                fill="rgb(151, 144, 238)" 
                stroke="white" 
                stroke-width=".7px"
                title="Extremadura" 
                id="ES-EX" 
            />
        </svg>