<svg xmlns="http://www.w3.org/2000/svg" viewBox="369.86514000000005 97.24857599999999 41.46999999999986 45.690004000000016" width="41.46999999999986" height="45.690004000000016">
            <path 
                d="m 378.13514,114.77858 0.45,0.86 -1.69,0.1 0,0 0.05,-0.6 0.78,-0.51 0.41,0.15 z m 20.01,-17.530004 -0.04,0.58 0.81,0.48 0.57,1.49 1.73,0.420004 -0.36,1.41 1.18,1.47 -0.54,0.49 -0.74,2.89 -0.47,0.01 0.52,0.92 -0.87,0.56 0.16,0.8 -1.16,1.95 1.27,0.15 0.48,0.65 0,0 0,0.11 0,0 -0.1,0.93 0.44,0.29 -0.88,1.42 0.64,0.41 0,0 0.03,0.11 0,0 0.5,-0.22 0.48,0.41 0.32,-0.78 0.57,0.49 0.19,1.14 0.66,0.33 0.64,-0.55 -0.16,0.36 0,0 -0.04,0.4 0,0 -0.37,0.2 0.44,0.47 -0.25,0.58 1.27,0.91 -0.34,1.22 0.68,0.04 0,0 0.16,-0.07 0,0 0.9,-0.09 0.86,0.9 0.07,2.57 1.17,0.1 0.67,1.22 -0.6,1.31 0.31,0.63 -1.08,1.37 -0.4,2.27 0.62,0.47 0.6,-1.05 1.04,-0.77 0.36,0.39 0.56,1.74 -0.2,1.35 0.47,1.12 -0.55,-0.21 -0.18,0.76 1.15,1.26 -0.88,1.2 -0.96,0.36 -1.08,-0.11 -0.17,-0.93 -0.51,0.32 0,0 -0.07,0 0,0 -0.38,0.79 -1.7,0.1 -0.25,0.33 -0.75,-0.19 -0.82,-1 -1.2,0.22 0.05,0.71 -0.59,0.7 -0.78,-0.39 -0.6,0.33 -0.05,-0.42 -0.58,0.3 -0.99,-0.27 -0.39,0.98 -1.86,0.27 -0.77,0.8 0,0 -0.41,0.1 0,0 0.31,0.74 -1.92,0.69 -0.34,-0.22 -0.95,0.51 -0.35,0.7 0,0 -0.18,0.11 0,0 -1.14,1.15 -1.66,-0.63 -0.21,-0.47 0,0 0.02,-0.14 0,0 -0.2,-0.28 0.54,-0.42 0.52,-0.1 0.2,0.41 0.66,-0.88 0.64,0.29 0.69,-0.67 -0.05,0.66 0.33,-0.26 -0.15,-0.5 0.63,0.28 0.11,-0.24 0,0 -0.22,-0.07 0,0 -0.14,-0.3 0.61,-0.29 0.36,-1.12 0.44,0.15 1.75,-1.44 0.39,-1.9 -1.49,-0.77 -0.13,-0.46 -0.58,0.37 -0.88,-0.53 -0.61,0.51 -0.76,-0.22 -0.98,-1.36 -0.77,0.57 -1.08,-1.05 -1.06,0 -0.44,-0.45 -0.51,0.51 -0.11,-0.84 -1.04,0.13 -0.93,-0.93 0.05,-0.48 -1.32,-0.59 -0.82,0.83 -1.16,-0.13 0.04,-0.65 -1.31,-1.1 -1.57,0.8 -0.62,1.4 -0.68,0.51 -0.26,-0.5 -0.37,0.29 -0.31,-0.46 -0.45,0.03 -0.18,-2.5 -0.6,-0.37 -0.14,1.05 -1.4,1.05 -0.07,0.76 -2.12,0.74 -0.43,0.6 -1.33,-0.6 0,0 0.52,-0.27 -0.24,-1.23 1.08,-1.23 -0.48,-1.74 0.54,-0.09 0.68,1.03 1.29,-0.15 -0.17,-0.76 0.6,-0.33 -0.1,-1.31 0.56,-0.73 2.72,-0.15 -0.51,-0.93 0.68,-1.03 -0.32,-2.47 0.16,-0.54 0.87,-0.5 0.3,-1.37 -0.33,-0.88 0,0 0.52,-0.01 0.22,0.79 0.45,0.13 0,0 0.45,-0.04 0,0 1.86,-0.7 -0.36,-1.55 0.38,-0.78 0,0 1.74,-2.14 0.73,-1.59 1.15,0.42 1.34,-0.21 1.12,-5 0.44,-0.09 0.79,-1.38 3.06,-1.23 1.1,-1.88 1.71,-1.05 1.23,-1.890004 1.15,-0.82 1.35,-0.23 z" 
                fill="rgb(151, 144, 238)" 
                stroke="white" 
                stroke-width=".7px"
                title="Madrid" 
                id="ES-MD" 
            />
        </svg>