<svg xmlns="http://www.w3.org/2000/svg" viewBox="430.7751399999998 182.48857999999996 44.980000000000075 47.539999999999964" width="44.980000000000075" height="47.539999999999964">
            <path 
                d="m 474.44514,217.28858 -0.2,1.18 0.57,2.05 -0.7,-1.93 0.33,-1.3 z m -0.23,-1.07 -0.06,0.6 0.52,0.46 -0.54,-0.41 -0.21,-0.6 0.29,-0.05 z m -43.44,-8.56 0.27,-1.41 1.71,-1.42 1.48,-3.29 2.68,-1.17 0.95,-1.34 0,0 0.36,-0.66 0,0 0.5,-0.37 1.77,0.85 1.99,-0.56 3.4,-2.02 -0.3,-0.46 0.67,0.14 0.03,-0.46 0.69,-0.06 0.72,0.6 0.45,-0.38 0.51,0.5 -0.26,0.53 0,0 0.01,0.14 0,0 0.62,1 2.16,0.02 3.02,-2.26 -0.05,-3.72 -0.47,-1.81 0.27,-0.94 0.95,-0.67 0.11,-2.33 1.71,-1.69 0.51,-0.18 0.65,0.92 2.54,-2.08 0,0 0.33,-0.16 0,0 1.37,-0.43 1.82,0.56 0.1,0.95 2.44,1.91 0,0 0.69,2.85 -0.65,1.75 0.32,0.92 -2.15,2.03 0.4,0.21 -0.19,2.93 2.9,0.33 0.6,1.52 -0.6,2.85 -1.34,2.2 0.17,1.55 3.19,6.07 1.97,2.09 1.3,0.66 0.57,-0.08 0,0 0.38,1.95 -0.98,-0.97 -0.53,1.41 -1.11,0.96 -0.44,0.98 1.66,2.2 1.7,0.91 0.59,-0.79 0.42,0.7 0.4,-0.04 -0.9,1.09 -1.66,0.4 -1.02,0.69 -0.68,-0.34 -0.87,0.23 -1.15,0.84 -1.17,-0.23 -0.12,-0.27 0.57,-0.08 -0.8,-0.19 -0.26,-0.42 0.26,-0.32 -0.52,-0.11 0.14,0.68 -0.55,-0.14 -0.41,0.44 -1.37,-0.38 -0.99,0.54 -0.46,0.57 0.44,0.61 -1.51,-0.24 -0.15,-0.63 -0.88,-0.65 -1.14,-0.09 -0.31,0.65 -1.91,-0.17 -2.02,1.9 -1.6,0.7 -0.74,2.19 -0.89,-0.29 -1.16,0.92 -0.92,0.15 -0.87,0.88 0,0 -2.96,-2.32 -2.05,-0.37 0.04,0.62 -0.98,-0.72 -4.08,-6.6 0,0 -0.18,-0.19 0,0 -0.3,-1.64 0.47,-0.92 -0.37,-1.65 0.37,-2.29 0.57,-0.79 -0.2,-0.26 0,0 -0.17,0.01 0,0 -0.49,-0.21 -0.44,0.39 -1.11,-0.51 -0.6,0.35 -1.07,-0.94 -1.31,0.41 -2.19,-1.7 -1.25,-2.23 -1.06,-0.81 z" 
                fill="rgb(151, 144, 238)" 
                stroke="white" 
                stroke-width=".7px"
                title="Murcia" 
                id="ES-MC" 
            />
        </svg>