<svg xmlns="http://www.w3.org/2000/svg" viewBox="452.8151399999994 110.83858000000001 55.60000000000042 103.05999999999997" width="55.60000000000042" height="103.05999999999997">
            <path 
                d="m 454.97514,133.73858 1.28,0.18 0,0 0.31,0.18 0,0 0.48,-0.2 0.62,0.3 0,0 0.49,-0.43 0,0 0.45,-0.2 -0.01,-1.78 0.54,-0.46 0.03,0.32 0,0 0.17,0.43 0,0 0.43,1.05 0.81,0.5 0.01,1.02 2.64,0.13 1.92,1.54 0.17,0.69 -0.33,0.47 -2.22,0.91 0,0 -2.25,0.57 -0.72,-0.23 0,0 -0.05,-0.1 0,0 -2.66,-0.34 -1.22,-2.72 0.28,-0.27 -1.19,-0.86 0.02,-0.7 z m 8.42,6.1 0.48,0.33 0.21,-0.37 0.65,0.15 0.55,-0.39 2.27,-0.07 1.51,0.85 0.32,-0.28 0.44,0.89 -0.24,0.76 0.34,0.98 -0.3,0.63 1.15,0.87 2.03,-1.2 -1.13,-1.51 0.06,-1.88 1.46,-0.59 0.73,-1.85 1.96,0.07 1.37,-1.06 0.44,0.13 -0.36,-1.16 0.5,-0.82 0.83,-0.39 0.96,-4.06 1.38,0.84 1.81,-0.55 1.18,-0.71 -0.47,-1.08 0.3,-0.41 0.63,0.03 0.74,-1.24 1.58,-0.91 -0.15,-0.79 -1.63,-1.96 0.35,-0.54 1.68,-0.67 -0.12,-0.81 -0.65,-0.56 0.19,-3.41 -0.83,0.25 -1.24,-0.38 -0.26,-1.87 1.33,-0.5 0.61,0.69 1.93,-1.09 0.16,-1.77 0.93,-1.54 1.41,-0.05 0.03,0.62 0.97,0.86 1.23,0.58 1.09,-0.09 0,0 0.54,-0.03 0,0 0.54,0.18 0,0 0.01,0.11 0,0 0.32,1 0,0 0.32,0.12 0,0 1.84,-1.27 1.06,0.28 0.62,-0.52 0,0 0.75,0.35 0.77,-0.3 0.31,1.13 0,0 0.15,0 0,0 0.63,-0.08 0,0 0.27,0.27 0,0 0.08,0.09 0,0 0.2,0.08 0,0 -0.55,1.63 0.41,0.56 1.59,0.74 1.7,0.21 1.12,0.87 -0.13,1.09 2.06,0.88 0,0 -1.01,2.29 -0.05,-0.27 -1.54,2.36 -0.25,1.52 -2.25,2.9 -1.06,0.81 -0.57,1.58 -1.97,1.26 -1.32,3.3 -2.65,1.74 -1.49,4.14 -1.61,1.95 -0.49,0.04 -2.66,4.4 -0.82,2.81 -1.4,1.57 -1.56,3.42 0.05,2.14 -0.38,-0.29 0.34,0.58 -0.45,0.21 0.84,3.67 2.43,5.08 -0.62,0.43 0.06,1.09 2.1,5.19 3.77,4.14 3.96,0.88 -0.43,0.14 0.19,0.3 0.14,-0.29 0,0.39 2.08,1.05 -0.4,0.39 0.22,0.68 0.52,0.48 0.38,-0.15 0.27,0.97 -1.4,0.55 -0.89,1.38 -0.56,-0.21 -0.85,0.48 -0.67,0.94 0.25,0.5 -0.93,-0.36 -0.53,0.56 -0.88,-0.17 -0.72,0.43 -0.94,1.38 0.35,0.56 -1.27,1.33 -1.47,-0.39 -0.59,0.68 -3.1,0.98 -2.41,1.58 -0.78,1.34 0.01,1.79 -1.16,-0.34 -1.19,1.24 0.26,-0.58 -0.61,0.29 -0.42,1.8 0.29,2.69 -0.4,0.48 -1.91,0.04 -0.59,0.6 -0.75,2.46 -0.12,3.4 -0.55,0.89 -0.89,0.3 -0.59,1.91 -0.84,0.47 -0.31,1.72 0,0 -0.57,0.08 -1.3,-0.66 -1.97,-2.09 -3.19,-6.07 -0.17,-1.55 1.34,-2.2 0.6,-2.85 -0.6,-1.52 -2.9,-0.33 0.19,-2.93 -0.4,-0.21 2.15,-2.03 -0.32,-0.92 0.65,-1.75 -0.69,-2.85 0,0 1.74,-0.03 1.29,-1.37 -1.25,-2.65 0.9,-0.42 0.14,-1.36 -0.35,-1.11 0.32,-1.3 -0.66,-0.59 -0.3,-1.19 -1.12,-0.2 -0.88,0.54 -3.01,0.19 -2.23,-3.34 -1.01,-0.75 0.21,-2.11 2,-3.62 0.52,-3.35 -1.24,-0.68 -0.32,0.33 -0.91,-0.35 0,0 -0.16,-0.08 0,0 -0.57,-0.07 0,0 -0.16,0 0,0 -0.94,-0.35 0,0 -0.18,-0.05 0,0 -0.23,0.29 -0.84,-0.77 -0.47,0.04 0,-0.44 -0.67,-0.05 0.29,-0.31 -0.69,-0.16 -0.05,0.65 -0.06,-0.33 0,0 -0.06,-0.16 0,0 -0.67,0.49 0,0 0.12,-0.06 0,0 0.05,-0.48 -0.5,-0.18 0.39,-0.01 -0.19,-0.61 0,0 -0.07,0.06 0,0 -0.38,0.21 0.26,-0.32 -0.61,0 0.18,-0.65 -0.6,0 0,0 0.2,-0.24 0,0 -0.63,-0.09 -0.23,-0.81 0.41,-0.15 0.27,-0.7 -0.24,-0.63 0.35,-0.16 -0.1,-1.64 -0.48,-0.09 1.57,-0.95 1.59,-3.14 0.93,-0.79 0.78,0.29 0,0 0.73,0.35 0,0 0.96,-0.29 0.44,-0.68 -0.35,-1.4 1.6,-2.42 0.46,-3.35 0,0 0.09,-0.43 0,0 -0.39,-0.7 0.18,-0.58 1.78,-0.8 z" 
                fill="rgb(151, 144, 238)" 
                stroke="white" 
                stroke-width=".7px"
                title="Valencia" 
                id="ES-VC" 
            />
        </svg>