<svg xmlns="http://www.w3.org/2000/svg" viewBox="577.12995 217.77079999999987 197.18000000000006 188.17000000000004" width="197.18000000000006" height="188.17000000000004">
            <path 
                d="m 720.38995,234.6508 0,0 5,-0.36 9.6,0.83 9.21,-1.2 0.13,-0.02 8.96,9.19 17.59,8.59 3.43,1.67 -1.24,17.14 -1.39,4.94 -3.42,5.09 -9.21,6.63 -4.11,3.7 -8.12,11.43 -11.78,13.09 -3.56,2.21 -13.94,3.77 -4.69,3.18 0.8,4.97 4.87,-0.76 6.75,-2.32 6.36,0.22 2.49,2.02 3.84,8.13 2.49,2.93 6.21,5.71 2.02,2.6 1.51,5.3 0.28,11.64 2.19,11.27 -0.41,5.39 -1.34,5.3 -1.85,4.84 -3.25,5.35 -3.81,3.13 -7.28,4.53 -1.87,1.16 -0.09,-0.12 -1.83,-2.24 -10.27,-6.13 -11.37,-2.98 -9.12,-3.32 -9.26,-3.23 -21.85,4 -21.51,7.03 -20.71,-7.16 -16.35,-16.2 -8.1,-5.6 -9.26,-2.35 -8.91,-5.63 -7.09,-9.52 12.7,-0.77 12.89,1.51 6.38,-3.65 1.03,-8.87 3.73,-9.33 -0.78,-7.61 -1.65,-14.37 3.74,-14.59 -1.84,-8.51 -0.59,-6.98 2.54,-6.12 -7.3,-7.31 1.55,-20.82 12.44,-17.56 8.02,2.83 5.95,5.96 2.49,3.76 5.27,-0.51 18.77,-11.74 19.57,-10.04 9.67,5.76 10.06,4.61 5.05,4.28 7.38,1.04 6.19,1.19 z" 
                fill="rgb(151, 144, 238)" 
                stroke="white" 
                stroke-width=".7px"
                title="Centre" 
                id="HT-CE" 
            />
        </svg>