<svg xmlns="http://www.w3.org/2000/svg" viewBox="0.3099500000000752 408.91080000000005 210.35999999999996 88.83999999999992" width="210.35999999999996" height="88.83999999999992">
            <path 
                d="m 210.66995,428.6908 0,0 -6.26,3.75 -8.66,-0.05 -6.76,-3.87 -0.57,-7.67 6.47,-3.07 8.88,0.71 6.8,3.84 0.1,6.36 z m -120.96,-16.59 0,0 35.54,15.89 15.64,0.7 0.56,0.43 1.77,1.99 0.37,0.6 0.62,2.22 1.52,-0.16 1.88,-0.98 1.71,-0.19 7.89,4.14 3.5,1.26 12.21,0.46 2.9,0.56 3.18,1.39 5.84,5.04 1.73,1.01 2.79,0.21 1.35,-0.8 0.91,-1.02 1.44,-0.52 2.71,0.44 3.36,1.66 2.43,0.03 1.66,-0.77 0.72,-0.53 -0.01,0.02 -2.26,4.71 -4.71,5.39 1.33,3.99 4.47,2.1 -6.06,6.84 -4.89,11.05 -8.68,2.46 -8.68,2.36 -6.28,0.02 -6.27,0.14 -3.76,5.65 0.46,6.79 -12.9,-1.05 -12.95,-3.7 -11.3,-3.81 -11.46,-2.83 -27.52,2.21 -27.26,5.59 -14.84,3.16 -15.05,1.5 -7.54,-1.42 -6.51,0.69 -1.03,0.48 -0.01,0 -0.48,-1.1 -0.61,-5.59 -1.78,-3.96 -7.05,-8.93 9.44,-13.85 -0.82,-1.14 -1.19,-2.77 4.97,-3.55 3.2,-13.26 4.04,-2.94 0.74,-1.49 -0.46,-3.36 -1.07,-3.59 -1.07,-2.22 -0.69,-3.05 2.1,-2.65 9.2,-5.39 12.07,-4.9 5.14,-0.91 6.26,1.54 2.78,-0.09 1.15,-2.34 1.34,-1.98 3.02,-0.87 3.19,-0.2 15.25,0.86 10.81,2.33 z" 
                fill="rgb(151, 144, 238)" 
                stroke="white" 
                stroke-width=".7px"
                title="Grand'Anse" 
                id="HT-GA" 
            />
        </svg>