<svg xmlns="http://www.w3.org/2000/svg" viewBox="371.6499500000004 80.86080000000001 250.31999999999977 272.37" width="250.31999999999977" height="272.37">
            <path 
                d="m 492.82995,82.0208 0,0 3.22,6.98 5.58,4.4 0.79,6.44 5.86,-0.8 5.66,4.2 -2.56,9.75 3.39,4.95 6.57,2.83 3.74,11.48 4.48,11.74 7.52,7.45 8.22,6.64 9.7,4.05 8.16,-2.62 0.02,-7.46 5.41,0.17 5.01,-4.81 4.66,-0.41 3.95,2.02 5.23,2.68 1.31,18.3 10.48,9.76 10.91,5.37 4.57,10.28 -1.4,7.98 1.29,8.19 4.53,8.18 2.84,7.75 -12.44,17.56 -1.55,20.82 7.3,7.31 -2.54,6.12 0.59,6.98 1.84,8.51 -3.74,14.59 1.65,14.37 0.78,7.61 -3.73,9.33 -1.03,8.87 -6.38,3.65 -12.89,-1.51 -12.7,0.77 -6.37,-6.59 -7.31,-5.37 -7.17,-2.9 -6.78,-2.94 -2.72,-4.42 -2.93,-4.16 -6.73,0.32 -6.38,-0.75 -20.51,-2.92 -17.31,-0.65 -4.55,3.35 -3.8,4.85 -0.01,0.01 -0.73,-0.37 -28.46,-30.84 -1.31,-7.37 11.49,-4.67 10.42,-0.7 5.76,-1.93 2.52,-4.22 -1.61,-5.4 -3.96,-2.81 -4.93,-1.89 -4.51,-2.67 -2.87,-3.65 -6.52,-11.57 -1.72,-4.58 1.85,-1.33 0.21,-0.52 -0.29,-0.56 0.24,-1.52 2.65,-2.51 2.98,-6.62 1.79,-2.66 2.98,-1.48 4.31,-0.85 4.37,-0.19 3.19,0.55 -3.91,-7.76 -2.8,-1.58 -5.44,-0.49 -3.23,-2.47 -1.06,-5.63 0.42,-5.97 1.17,-3.61 1.72,1.8 2.26,1.55 2.61,0.84 2.69,-0.43 2.99,-2.18 0.16,-2.1 -0.97,-2.38 -0.45,-6.62 -0.68,-1.26 0.61,0.24 3.91,0.7 1.35,0.87 1.91,1.63 2.6,1.37 3.41,0.07 -5.24,-10.48 -2.74,-1.54 -14.04,-0.89 -3.55,-2.61 -2.39,-3.84 -3.58,-4.41 -5.11,-3.69 -17.3,-7.94 -14.41,-8.96 -5.15,-1.24 -4.45,-2.09 -9.58,-8.2 -1.82,-0.43 -2.71,1.22 -16.82,-6.24 -2.79,-0.32 -5.35,-1.33 -2.73,-0.29 0,0 -0.27,-0.77 2.17,-15.75 12.78,-13.52 10.47,-1.03 10.94,2.71 11.21,0.93 11.1,2.07 20.49,-3.62 16.88,-14.5 5.7,-1.49 4.52,-2.62 6.66,-4.82 8.26,1.16 z" 
                fill="rgb(151, 144, 238)" 
                stroke="white" 
                stroke-width=".7px"
                title="L'Artibonite" 
                id="HT-AR" 
            />
        </svg>