<svg xmlns="http://www.w3.org/2000/svg" viewBox="191.80995 432.60080000000005 213.54 104.9699999999998" width="213.54" height="104.9699999999998">
            <path 
                d="m 389.53995,469.6008 0,0 1.55,3.2 0.13,3.46 -4.22,7.14 0.61,7.69 6.79,0.28 4.69,4.75 2,6.95 4.26,5.37 -1.08,8.48 -3.48,8.09 0.02,6.28 0.54,6.28 -6.92,-9.48 -2.19,-12.43 -8.68,-8.08 -10.3,-8.4 -6.57,-1.83 -6.18,1.86 -6.87,-0.78 -7.12,-0.86 -14.38,0.28 -14.13,-1.97 -8.5,3.48 -9.74,2.54 -8.58,-0.29 -8.56,0.82 -17.31,2.78 -13.77,-3.5 2.71,-6.17 2.43,-4.94 -6.06,-3.07 -3.92,-4.85 -4.76,-4.09 -7.4,-0.65 -8.72,1.22 -6.16,5.17 -4.6,-1.51 -5.45,-2.75 -9,0.42 -8.81,-1.23 4.89,-11.05 6.06,-6.84 -4.47,-2.1 -1.33,-3.99 4.71,-5.39 2.26,-4.71 0.01,-0.02 2.75,-2.04 1.13,-0.57 0.33,-0.69 3.45,-4.28 1.82,-0.92 2.15,-0.09 2.24,0.18 2.14,-0.08 12.31,-3.58 3.54,-0.49 9.68,2.43 0.15,4.92 -5.5,3.72 -7.21,-1.12 0,1.78 -5.85,-1.98 -5.23,-0.71 -5.25,0.59 -5.92,2.1 1.79,1.22 4.51,2.42 4.47,1.09 0.3,1.68 -0.11,2.19 1.19,2.24 4.79,2.14 8.63,-1.26 4.26,2.15 9.53,-5.76 11.67,-1.47 42.95,3.31 5.49,1.24 10.82,5.52 6.03,1.24 21.76,-0.8 10.63,0.94 9.58,3.59 5.04,2.93 4.11,1.57 4.58,0.32 6.85,-1.23 z" 
                fill="rgb(151, 144, 238)" 
                stroke="white" 
                stroke-width=".7px"
                title="Nippes" 
                id="HT-NI" 
            />
        </svg>