<svg xmlns="http://www.w3.org/2000/svg" viewBox="645.41995 103.50080000000004 111.49000000000001 131.62" width="111.49000000000001" height="131.62">
            <path 
                d="m 742.17995,109.9108 0,0 2.39,7.93 0.97,5.11 -0.27,4.58 -0.45,7.56 1.25,6.55 7.6,18.05 3.24,22.52 -0.19,12.86 -3.1,6.61 -1.5,1.65 -3.44,8.77 -2.58,2.04 -7.32,4.2 -1.79,1.81 1.35,5.74 4.84,6.84 1.15,1.17 -0.13,0.02 -9.21,1.2 -9.6,-0.83 -5,0.36 -6.19,-1.19 -7.38,-1.04 -5.05,-4.28 -10.06,-4.61 -9.67,-5.76 -4.52,-14.84 -13.7,-13.95 -5.07,-1.49 -4.99,-1.36 2.69,-4.25 0.85,-7.63 -4.64,-7.51 -2.77,-8.51 -3.66,-6.81 -0.81,-6.78 1.07,-3.66 -0.2,-3.96 3.29,-2.18 4.36,-0.92 5.8,-8.56 1.21,-11.11 1.03,-2.18 1.31,-2.71 0,-0.01 1.81,0.89 3.69,2.7 2.48,0.62 2.1,-0.99 1.38,-2.14 1.73,-2.09 3.12,-0.87 5.16,-3.97 7.7,0.06 13.28,3.91 7.3,1.01 1.94,1.45 -1.65,3.63 -2.35,1.54 -3.23,0.54 -7.58,-0.11 2.85,5.28 4.71,0.55 5.11,-1.43 4.02,-0.65 4.91,4.14 3.02,1.9 1.34,-0.92 1.46,-3.95 -0.59,-2.07 -5.99,-1.57 -1.92,-1.77 -0.97,-2.54 0.44,-2.88 2.08,-1.8 3.1,0.21 7.03,1.59 11.41,0.29 z" 
                fill="rgb(151, 144, 238)" 
                stroke="white" 
                stroke-width=".7px"
                title="Nord-Est" 
                id="HT-NE" 
            />
        </svg>