<svg xmlns="http://www.w3.org/2000/svg" viewBox="492.7599499999998 62.11079999999998 189.2800000000002 177.95" width="189.2800000000002" height="177.95">
            <path 
                d="m 663.28995,109.3508 0,0 0,0.01 -1.31,2.71 -1.03,2.18 -1.21,11.11 -5.8,8.56 -4.36,0.92 -3.29,2.18 0.2,3.96 -1.07,3.66 0.81,6.78 3.66,6.81 2.77,8.51 4.64,7.51 -0.85,7.63 -2.69,4.25 4.99,1.36 5.07,1.49 13.7,13.95 4.52,14.84 -19.57,10.04 -18.77,11.74 -5.27,0.51 -2.49,-3.76 -5.95,-5.96 -8.02,-2.83 -2.84,-7.75 -4.53,-8.18 -1.29,-8.19 1.4,-7.98 -4.57,-10.28 -10.91,-5.37 -10.48,-9.76 -1.31,-18.3 -5.23,-2.68 -3.95,-2.02 -4.66,0.41 -5.01,4.81 -5.41,-0.17 -0.02,7.46 -8.16,2.62 -9.7,-4.05 -8.22,-6.64 -7.52,-7.45 -4.48,-11.74 -3.74,-11.48 -6.57,-2.83 -3.39,-4.95 2.56,-9.75 -5.66,-4.2 -5.86,0.8 -0.79,-6.44 -5.58,-4.4 -3.22,-6.98 -0.07,-1.74 0.9,-3.46 3.79,-1.03 4.35,1.13 2.68,1.72 2.87,0.35 3.56,-3.13 3.03,-2.86 2.25,-1.76 1.74,-3.49 2.7,-4.06 2.19,-1.58 0,0 5.65,7.06 7.28,4.95 7.55,2.73 4.16,-2.71 4.95,2.66 8.22,3.19 7.7,1.97 3.39,-1.01 1.73,4.56 13.12,12.28 0,1.81 -1.3,-0.58 -4.26,-1.23 3.43,8.41 1.2,1.27 4.8,1.08 1.02,-0.38 -1.02,-2.5 3.55,-4.12 -0.89,-0.05 -1.77,0.14 -0.89,-0.09 0.07,-0.35 0.56,-1.22 0.67,-0.94 0.39,0.56 0,-1.81 -0.63,-0.89 -1.06,-3.03 1.69,0 4.04,2.21 5.55,0.52 4.95,-1.62 2.16,-4.25 2.73,-2.85 5.36,-0.14 3.65,3.1 -2.31,6.95 4.61,2.77 4.44,0.47 10.74,-1.9 0.93,0.07 1.52,0.4 1.88,1.27 3.91,3.97 2.63,0.83 9.37,0 2.2,0.62 1.21,1.35 0.86,1.35 0.73,0.36 z" 
                fill="rgb(151, 144, 238)" 
                stroke="white" 
                stroke-width=".7px"
                title="Nord" 
                id="HT-ND" 
            />
        </svg>