<svg xmlns="http://www.w3.org/2000/svg" viewBox="277.5999499999998 0.2508000000000018 245.22000000000014 137.10999999999999" width="245.22000000000014" height="137.10999999999999">
            <path 
                d="m 465.54995,42.4108 0,0 27.72,6.52 6.83,4.25 5.64,2.7 16.11,5.03 0.97,1.2 -2.19,1.58 -2.7,4.06 -1.74,3.49 -2.25,1.76 -3.03,2.86 -3.56,3.13 -2.87,-0.35 -2.68,-1.72 -4.35,-1.13 -3.79,1.03 -0.9,3.46 0.07,1.74 -8.26,-1.16 -6.66,4.82 -4.52,2.62 -5.7,1.49 -16.88,14.5 -20.49,3.62 -11.1,-2.07 -11.21,-0.93 -10.94,-2.71 -10.47,1.03 -12.78,13.52 -2.17,15.75 0.27,0.77 -0.36,-0.03 -1.37,0.66 -1.26,1.4 -1.79,1.42 -2.9,0.64 -4.03,-1 -6,-2.51 -5.86,-3.26 -3.66,-3.24 -5.49,5.36 -11.66,1.54 -25.88,-1.32 -5.13,-1.35 -3.01,-0.29 -1.92,-1.25 -4.8,-5.41 -2.64,-1.22 -3.76,-2.56 -1.51,-5.75 -0.51,-6.05 -0.78,-3.38 9.69,-15.63 1.44,-3.26 2.66,-0.07 14.19,-6.65 0,-2.15 -15,0 4.39,-3.32 5.17,-0.55 5.54,0.45 5.47,-0.35 33.08,-15.27 9.68,-7.08 5.44,-7.58 3.25,3.96 3.1,1.06 7.72,-0.89 3.96,0.59 7.16,2.6 3.79,0.58 3.24,-0.07 1.8,-0.27 5.43,-1.46 4.01,-0.53 4.16,0.36 3.76,1.41 2.89,2.71 1.94,-4.48 5.12,-2.78 6.23,-0.61 5.25,1.95 7.25,-3 8.65,-2.27 9.05,-1.15 8.44,0.49 z m 3.69,-35.68 0,0 25.71,10.14 10.93,6.95 -3.09,6.77 -4.41,-1.9 -23,-3.18 -10.68,-4.21 -13.19,-2.99 -4.5,-2.07 -3.11,0.6 -3.23,1.21 -2.94,0.52 -5.68,-1.16 -6.65,-2.23 -6.04,-3.07 -3.86,-3.6 1.19,0.01 0.75,-0.37 1.58,-1.42 12.57,-4.23 13.72,-1.88 7.85,-0.37 5.23,0.74 4.69,2.08 6.16,3.66 z" 
                fill="rgb(151, 144, 238)" 
                stroke="white" 
                stroke-width=".7px"
                title="Nord-Ouest" 
                id="HT-NO" 
            />
        </svg>