<svg xmlns="http://www.w3.org/2000/svg" viewBox="323.35995 322.1108000000003 431.88 203.4299999999999" width="431.88" height="203.4299999999999">
            <path 
                d="m 453.48995,400.2108 0,0 -2.9,1.21 -1.92,-1.76 -2.43,-5.15 -2.32,-2.05 -2.08,-0.56 -6.12,-0.4 -24.2,-5.41 -8.27,-0.64 -8.68,-2.14 -23.94,-15.5 -24.18,-6.6 -6.49,-4.27 -5.47,-7.74 -5.08,-3.62 -1.42,-1.26 -1.99,-2.5 -1.8,-2.96 -0.84,-3.16 0.93,-3.16 3.36,-3.78 4.75,-3.21 5.53,-2.17 5.84,-0.82 6.43,0.74 37.71,15.9 18.61,6.11 20.69,10.5 19.32,8.14 7.88,9.74 2.06,6.21 0.97,7.4 -0.77,7.25 -3.18,5.66 z m 77.25,-74.53 0,0 6.38,0.75 6.73,-0.32 2.93,4.16 2.72,4.42 6.78,2.94 7.17,2.9 7.31,5.37 6.37,6.59 7.09,9.52 8.91,5.63 9.26,2.35 8.1,5.6 16.35,16.2 20.71,7.16 21.51,-7.03 21.85,-4 9.26,3.23 9.12,3.32 11.37,2.98 10.27,6.13 1.83,2.24 0.09,0.12 -0.7,0.43 -3.7,4.16 -5.59,9.56 -3.54,3.82 -10.51,3.6 -20.42,-3.78 -10.09,2.14 -4.67,3.53 2.41,4.69 24.56,25.26 1.76,2.71 0.67,4.3 -1.44,1.57 -2.04,1.17 -1.02,3.14 1.62,5.3 4.07,2.24 10.6,2.67 2.29,2.04 4.12,6.11 2.21,2.55 10.24,6.86 14.6,5.51 3.87,2.57 2.5,2.24 0.59,0.83 -3.2,5.51 -0.25,0.04 -23.76,4.13 -14.05,-8.77 -18.3,-1.42 -22.84,0.3 -23.47,-5.34 -23.6,-4.86 -23.14,1.45 -22.48,-1.36 -3.75,-4.22 -3.3,-4.54 -7.86,0.61 -5.18,-2.63 -7.12,-3.54 -9.78,-0.62 -9.01,4.23 -6.71,8.07 -2.74,2.1 -3.28,0.11 -6.67,2.87 -6.28,0.78 -3.61,0.44 -3.08,2.63 -5.19,0.69 -5.28,0.22 -3.17,2.72 -2.97,2.82 -4.72,-0.68 -4.26,-2.34 -0.73,4.11 -1.49,3.57 -3.31,2.61 -2.12,4.02 -8.98,-2.27 -9.22,-3.14 -4.59,2.77 -3.07,3.31 -5.85,-2.97 -3.07,-4.5 -4.01,-0.23 -4.24,-0.3 -7.23,1.6 -5.76,0.78 -3.26,-6.28 -3.91,-5.2 -4.26,-5.37 -2,-6.95 -4.69,-4.75 -6.79,-0.28 -0.61,-7.69 4.22,-7.14 -0.13,-3.46 -1.55,-3.2 0,0 19.1,-3.42 23.52,5.7 -1.4,4.68 5.18,-1.01 7.27,-2.58 4.8,-0.02 3.96,1.7 19.3,3.27 10.46,-2.39 7.37,-6.27 5.43,-8.82 4.55,-10.06 6.6,-8.18 8.62,-1.93 45.29,4.06 1.65,-0.61 0.69,-1.35 0.45,-1.35 0.92,-0.61 1.71,0.35 0.79,0.73 0.53,0.72 0.86,0.34 5.65,6.36 2.6,1.47 4.77,-1.29 2.21,-4.81 0.62,-6.66 -0.45,-17.45 0.45,-3.23 1.9,-3.88 2.1,-2.31 0.98,-2.15 -1.45,-3.41 -2.45,-1.76 -12.4,-6.07 -3.33,-0.58 -6.61,-0.21 -3.19,-0.98 -5.51,-4.75 -4.89,-5.95 -5.25,-4.14 -6.6,0.77 -9.28,-5.68 -2.32,-2.58 -2.29,-5.45 -13.92,-21.73 -3.85,-3.94 -5.43,-4.46 -5.72,-3.64 -4.64,-1.5 -4.33,-2.22 0.01,-0.01 3.8,-4.85 4.55,-3.35 17.31,0.65 20.51,2.92 z" 
                fill="rgb(151, 144, 238)" 
                stroke="white" 
                stroke-width=".7px"
                title="Ouest" 
                id="HT-OU" 
            />
        </svg>