<svg xmlns="http://www.w3.org/2000/svg" viewBox="10.229950000000132 477.94079999999985 392.6199999999999 115.33000000000004" width="392.6199999999999" height="115.33000000000004">
            <path 
                d="m 216.18995,570.1608 0,0 1.74,1.82 3.11,-2.17 1.5,0.78 1.08,1.94 1.88,1.24 8.44,0 4.57,0.28 5.37,1.12 3.88,2.34 0,4.05 -3.38,2.16 -5.53,0.52 -10.57,-0.54 -4.75,-1.05 -4.15,-2.53 -6.83,-6.35 0.87,-2.85 1.23,-1.17 1.54,0.41 z m 30.52,-87.48 0,0 3.92,4.85 6.06,3.07 -2.43,4.94 -2.71,6.17 13.77,3.5 17.31,-2.78 8.56,-0.82 8.58,0.29 9.74,-2.54 8.5,-3.48 14.13,1.97 14.38,-0.28 7.12,0.86 6.87,0.78 6.18,-1.86 6.57,1.83 10.3,8.4 8.68,8.08 2.19,12.43 6.92,9.48 0.65,5 0.85,4.98 -0.3,1.4 -22.48,-2.51 -7.18,0.35 -2.26,-0.35 -7.9,-5.04 -2.38,-0.82 -36.06,-5.84 -16.2,1.68 -2.51,-0.7 1.42,-3.72 3.61,-1.42 9.81,0.08 0,-1.78 -18.15,-1.96 -21.99,0.18 -6.39,1.78 -8.74,5.19 -3.32,0.67 -2.17,-1.14 -2.34,-5.25 -1.99,-1.6 -3.62,2.2 -1.97,5.58 -2.01,4.19 -3.68,-2.02 -1.69,0 -3.2,2.04 -2.7,-1.46 -1.19,-3.7 1.35,-4.7 -3.85,1.15 -3.37,7.48 -3.9,3.07 0.19,-3.85 0.89,-3.43 2.63,-6.55 -2.13,1.73 -3.06,4.05 -2.21,2.21 -0.22,-0.7 -1.6,-0.62 -2.91,-0.63 -0.98,0.49 0.11,1.14 0.33,1.28 -0.3,1 -11.87,9.49 -19.43,9.02 -4.93,4.9 -4.73,7.81 11.43,12.22 1.71,4.45 1.38,5.62 -0.65,2.19 -3.59,0.87 -17.99,-0.07 -2.63,-0.44 -2.64,-1.26 -1.98,-1.99 -1.04,-4.21 -17.37,-25.02 -0.86,-0.65 -2.05,-0.9 -0.97,-0.57 -0.96,-1.09 -0.22,-0.87 -0.13,-0.9 -0.73,-1.23 -5.06,-4.74 -26.3,-19.41 -4.72,-2.3 -8.29,-1.4 -3.48,-1.44 -2.96,-2.16 -1.26,-2.7 -0.57,-3.05 -1.54,-0.93 -2.31,-0.15 -2.83,-0.76 -7,-2.74 -2.28,-1.33 -1.83,2.11 -5.13,-1.84 -5.44,2.31 -5.73,3.56 -5.97,1.84 -5.01,-1.05 -6.2,-2.51 -5.27,-2.95 -2.22,-2.37 -2.32,-3.2 -10.21,-5.18 -1.83,-4.18 0.01,0 1.03,-0.48 6.51,-0.69 7.54,1.42 15.05,-1.5 14.84,-3.16 27.26,-5.59 27.52,-2.21 11.46,2.83 11.3,3.81 12.95,3.7 12.9,1.05 -0.46,-6.79 3.76,-5.65 6.27,-0.14 6.28,-0.02 8.68,-2.36 8.68,-2.46 8.81,1.23 9,-0.42 5.45,2.75 4.6,1.51 6.16,-5.17 8.72,-1.22 7.4,0.65 4.76,4.09 z" 
                fill="rgb(151, 144, 238)" 
                stroke="white" 
                stroke-width=".7px"
                title="Sud" 
                id="HT-SD" 
            />
        </svg>