<svg xmlns="http://www.w3.org/2000/svg" viewBox="433.8917399999998 686.84453 121.7399999999999 137.91000000000236" width="121.7399999999999" height="137.91000000000236">
            <path 
                d="m 440.13174,693.26453 1.35,0.07 2.8,1.38 1.05,1.65 0.13,1.65 0.3,0.79 2.88,2.36 -0.3,1.67 0.14,0.93 1.67,0.62 0.57,1.38 0.75,0.02 1.51,0.9 0.03,0.64 -0.4,0.86 0.17,0.62 2.96,1.21 0.54,0.64 -0.04,0.33 -1.4,0.98 -0.24,0.59 0.24,0.19 1.15,0.31 0.87,-0.24 2.01,1.31 3.72,-1.47 1.38,-1.43 1.96,-0.14 0.55,0.31 0.1,1.26 1.11,0.57 1.37,0.12 0.53,-0.29 0.56,-1 1.27,-0.26 0.48,0.31 -0.24,1.19 1.05,0.07 0.97,0.67 3.41,-0.18 0.51,-1.15 1.59,-1.66 -0.5,-1.02 1.21,-0.67 0.37,-0.9 -0.21,-1.93 1.57,-2.07 1.08,-0.88 1.91,-0.07 0.83,0.48 0.43,-0.33 1.4,-1.91 0.4,-2.46 2.58,-2.1 1.46,1.38 -0.01,0.38 -0.97,0.55 0.26,0.24 6.13,0.51 1.01,-1.91 0.95,-1.07 0.38,-2.34 6.35,0.74 0.33,0.45 0,1.03 -0.61,1.98 0.4,0.76 0.53,0.29 1.76,0.14 3.13,-0.93 2.09,-0.91 0.1,-0.38 -0.33,-0.81 0.64,-1.5 3.06,-0.53 0.61,-0.57 -0.06,-0.69 -0.63,-0.57 -3.89,-0.26 -0.03,-0.33 3.09,-2.39 3.29,0.89 1.28,-0.19 1.88,-2.15 -0.07,-1.6 0.28,-0.55 2.52,1.58 1.48,2.03 1.94,0.12 0.03,0.62 -1.41,1.89 0.7,2.94 -0.33,2.05 1.31,1.12 0.33,0.72 0.84,0.45 0.27,0.83 1.2,1.21 0.61,-0.05 1.48,-1.29 -0.91,-1.05 -0.1,-0.62 1.76,-4.15 0.71,-0.48 1.04,0.24 1.22,-0.31 0.87,-0.51 0,0 0.06,0.35 0.26,0.17 0.17,0.19 0.37,0.19 0.03,0.17 0.37,0.07 -0.09,-0.24 0.43,-0.07 0.46,-0.02 0.17,0.07 0.11,0.12 0.03,0.14 0.34,0.12 0.09,0.22 0.11,0.07 0.14,0.33 0.11,0.12 0.06,0.31 0.17,0.12 0,0.1 0.11,-0.02 0.23,0.09 0.06,0.12 0.14,0.05 0.03,0.07 0.06,-0.05 0.09,0.02 0.03,0.07 0.26,-0.05 0,0.07 0.09,-0.02 0.06,0.05 0,0.12 0.14,0 0.06,0.07 0.09,0 0,-0.07 0.2,-0.07 0.03,-0.14 0.06,-0.02 0.17,0.12 0.09,0.21 0.2,0.17 0,0.07 0.14,0.05 0.03,0.12 0.08,0.02 0.03,0.1 0.23,0.21 0.29,0.1 0.68,-0.02 0.08,0.19 0.08,0.05 0,0.12 0.17,0.19 0,0.12 0.14,0.19 0,0.1 0.2,0.19 0.06,0.31 0.14,0.14 0,0.21 0.11,0.19 -0.03,0.14 0.14,0.21 -0.06,0.17 0.09,0.1 -0.06,0.1 0.03,0.17 0.09,0.05 -0.06,0.09 0.17,0.12 0.06,0.24 0.17,0.1 0.03,0.14 0.08,0.02 -0.03,0.07 0.34,0.36 0.11,0.29 0.2,0.09 0.11,-0.02 0,0.5 0.09,0.1 0.11,0.07 0.43,-0.02 0.06,0.07 0,0.12 -0.17,0.05 -0.03,0.07 0.17,0.29 0.08,0 0.06,0.09 0,0.29 0.06,0.02 -0.06,0.07 0.09,0.14 -0.06,0.43 0.06,0.05 0.03,0.24 0.14,0.12 0,0.19 0.11,0.09 0.06,0.21 0.14,0.21 0.08,0.05 0.08,0.33 0.06,0.02 -0.03,0.09 0.2,0.24 0.08,0.26 0.11,0.1 0.08,0.19 0.09,0 0.2,0.19 0.26,0.71 0.17,0.05 0,0.21 0.17,0.33 0.11,0.43 0.2,0.24 0,0.12 0.08,0.05 0.06,0.19 0.06,0.02 0.06,0.24 0.2,0.29 -0.03,0.14 0.08,0.05 0.03,0.26 0.34,0.57 -0.03,0.24 0.11,0.21 0,0.14 0.14,0.17 0.06,0.33 0.11,0.12 0.06,0.26 0.23,0.36 0.03,0.14 0.11,0.09 0.06,0.26 0.14,0.09 0.14,0.4 0.14,0.09 0,0.12 0.2,0.28 0.06,0.26 0.2,0.21 -0.06,0.07 0.09,0.17 0,0.17 0.14,0.14 -0.03,0.09 0.08,0.05 0.06,0.36 0.09,0.07 0,0.21 0.14,0.19 0.14,0.52 0.09,0.07 0.08,0.36 -0.03,0.12 0.26,0.43 0,0.17 0.06,0.02 0,0.12 0.06,0.05 0.03,0.33 0.09,0.12 -0.09,0.09 0.03,0.95 0.09,0.05 -0.03,0.19 0.11,0.12 0,0.12 0.09,0.12 0,0.24 0.06,0.02 0.03,0.14 0.11,0.07 0.08,0.78 0.06,0.14 0.09,0.05 0.06,0.36 0.06,0.02 -0.06,0.26 0.09,0.17 -0.03,0.21 0.06,0.02 0,0.12 -0.11,0.09 0,0.14 0.06,0.07 -0.09,0.1 -0.03,0.88 -0.06,0.05 0,0.26 -0.06,0.14 0.03,0.26 -0.03,0.14 -0.06,0.02 -0.03,2.32 -0.11,0.54 -0.06,0.02 0.03,0.54 -0.06,0.07 0,0.43 -0.2,0.24 -0.03,0.26 -0.09,0.14 0.03,0.12 -0.11,0.76 -0.09,0.19 -0.06,-0.02 -0.26,0.14 -0.57,-0.02 -0.11,0.24 -0.2,0.07 -0.26,0 -0.11,0.07 0,0.09 -0.09,0.07 -0.2,0.02 -0.03,-0.07 -0.14,0 -0.08,0.07 -0.03,0.28 -0.31,0 -0.06,0.05 0,0.33 -0.31,0.02 -0.11,0.17 -0.17,0.07 -0.17,0.21 0,0.24 -0.11,0.07 -0.17,0.28 -0.26,0.09 -0.17,0.19 -0.14,0.02 -0.46,0.31 0,0.09 0.08,0.05 0.03,0.12 -0.2,0.02 0.03,0.14 -0.26,0.09 -0.34,0.02 -0.34,0.47 -0.11,0.07 -0.17,0.33 -0.2,0 -0.17,0.17 0,0.14 -0.17,0 -0.2,0.26 -0.23,0.07 -0.06,0.09 -0.11,0 -0.09,0.19 -0.06,0 -0.17,0.21 -0.34,0 -0.06,0.05 0,0.07 0.08,0.05 -0.08,0.14 0,0.17 -0.2,-0.05 -0.06,0.12 -0.09,0 -0.06,0.09 -0.26,0.05 0,0.19 -0.29,0.26 0,0.24 -0.11,0.07 -0.4,0.05 -0.2,0.14 0,0.26 0.26,0.17 0,0.05 -0.51,0.05 -0.26,0.26 -0.14,0 0.03,0.09 0.08,0.02 0,0.09 -0.06,0.07 -0.14,-0.02 -0.06,0.05 -0.03,0.17 0.08,0.09 0,0.09 -0.2,0 -0.28,0.14 -0.03,0.17 0.11,0.19 -0.14,0.09 -0.2,0 0.03,0.38 -0.2,0.02 0,0.07 -0.26,0 0.08,0.14 0,0.09 -0.08,0.05 0.23,0.09 0,0.09 -0.26,-0.05 -0.03,0.31 0.06,0.16 -0.23,0.03 0.06,0.26 -0.03,0.14 -0.31,0.14 -0.14,-0.02 -0.09,0.07 -0.08,0.14 -0.06,0 0.03,0.24 -0.26,0.31 0,0.07 0.09,0.07 -0.17,-0.07 -0.06,0.19 -0.14,-0.02 0.06,0.12 -0.09,0.05 0.03,0.24 -0.03,0.05 -0.14,0 -0.03,0.07 0.11,0.09 -0.03,0.05 -0.14,-0.02 -0.17,0.14 0.03,0.14 0.11,0.07 -0.03,0.26 -0.11,0.26 -0.8,0.68 -0.31,0.42 -0.51,0.45 -0.43,0.47 -0.03,0.09 -0.14,0.12 0,0.09 0.11,0.05 0.08,-0.07 0.03,-0.09 0.63,-0.54 0.31,-0.45 0.48,-0.52 0.09,0 0.17,0.21 0.03,0.33 -0.06,0.17 -0.14,0.14 0.03,0.4 -0.29,0.17 0.06,0.09 0.23,0 0.11,-0.12 0.31,-0.05 0.06,0.09 -0.17,0.17 0.06,0.21 0.11,0 0.09,0.07 0.26,-0.05 0.17,0.05 0,0.17 0.09,0 0.14,0.28 0.23,0 0.14,-0.28 0.14,0 0.03,0.28 0.48,-0.05 0.23,-0.31 0.14,-0.02 0.08,0.07 0,0.28 0.6,0.68 0.26,0 0.06,-0.24 0.09,0.02 0.11,0.24 -0.06,0.33 0.03,0.24 0.29,0 -0.06,0.14 0.11,0 0.11,0.09 0.17,0 0.06,0.19 0.4,-0.05 0.03,0.09 0.06,0 0.11,-0.07 -0.03,-0.09 0.06,-0.05 -0.06,-0.05 0.23,0.05 0.06,0.09 -0.06,0.09 0.11,0.09 0.14,0 0,0.09 -0.08,0 0.03,0.09 0.14,0 -0.09,0.17 0.14,0.02 0,0.05 -0.11,0.07 0,0.12 0.11,0.09 0.23,0 0.03,0.07 -0.03,0.12 -0.23,0.26 0.43,0.33 0.29,0.14 0.03,0.24 -0.06,0.21 0.06,0 0.03,0.12 0.26,0.05 0.23,0.14 0.03,0.47 0.17,0.28 0.14,0.09 0.03,0.19 0.14,0.28 0.03,0.38 0.06,0 0.03,-0.09 0.11,0.02 0.2,0.38 0.08,0 0.06,-0.07 0.14,0.02 0.2,0.31 0.11,-0.05 0,-0.26 0.14,0.09 0.11,0 0.17,-0.12 0.03,0.12 0.11,0.02 0.06,0.14 0.23,-0.09 0.2,0.24 0.34,0.05 0.23,0 0.23,-0.09 0.4,-0.05 0.23,-0.17 0.19,-0.02 0,0 -1.33,3.93 0.84,1.13 -0.13,0.52 -3.93,2.93 -1.4,-0.23 -1.18,-0.07 -2.66,1.45 -1.91,0.21 -0.38,0.42 0.23,2.53 -0.47,1.17 -0.81,0.73 -1.65,0.04 -2.63,-0.91 -1.61,0.7 -0.95,-0.16 -1.85,1.12 -1.17,-0.49 -1.17,0.21 -0.84,-1.21 -3.2,0.74 -2.72,-1.36 -4.43,2.3 -1.72,0.02 -1.59,-0.56 -1.23,0.57 0.82,0.97 0.44,1.33 -0.4,3.46 0.67,0.51 2.41,-0.34 -0.07,1.33 0.86,1.08 -0.45,2.15 3.03,1.83 0.64,2.89 -0.21,0.68 -2.21,2.96 -1.72,1.37 -0.48,1.12 -3,1.42 -0.06,1.42 1.24,2.09 0.14,1.24 -2.27,0.48 -1.14,1.65 0,1.9 -0.34,0.9 -0.47,0.33 -0.9,-0.19 -0.97,-1.3 -0.67,-0.21 -2.6,0.58 -0.13,0.6 0.38,1.14 0.1,1.85 -1.02,1.97 0,0 -3.82,2.57 -1.69,-0.07 -0.73,1.3 -1.57,-0.44 -0.36,0.53 0.03,0.67 -0.66,0.86 -2.69,0.95 0.03,0.83 0.58,0.3 0.75,1.39 1.22,1.13 0.01,0.65 -0.38,0.23 -1.07,0.25 -0.03,1.5 -1.73,1.7 -0.58,0.12 -2.01,-4.43 -0.48,-0.16 -2.09,0.9 -1.67,-0.14 -0.68,0.92 -3.07,0.81 -1.14,0.74 -1.17,1.43 1.72,0.71 -0.55,0.26 -1,1.36 -1.22,0.14 -1.1,0.81 -2.59,-0.16 -1.13,0.32 -0.46,-0.28 -1.18,-4.2 -0.44,-0.72 0.14,-2.7 -0.66,-0.51 1.69,-0.88 1.54,-0.21 0.33,-0.46 -4.3,-5.45 0,0 0.19,-0.77 0.74,-0.86 2.79,-1.18 0.17,-0.88 -1.03,-1.25 -0.03,-0.58 2.96,-1.85 -0.04,-1.88 -0.78,-0.83 1.11,-1.58 -0.28,-0.42 -1.72,-0.39 -0.4,-0.72 0.83,-0.65 2.68,-0.91 0.81,-0.81 -0.1,-0.91 -0.99,-1.88 -1.29,-2.89 -1.51,-0.86 -2.68,-4.47 -5.25,-2.78 -0.43,-1.12 -0.67,-0.79 -3.99,-1.78 -1.17,-1.52 -1.44,-0.54 0.19,-1.68 -0.85,-1.75 1.14,-0.7 0.14,-0.98 -2.36,-2.97 -0.16,-0.68 -0.85,-0.05 -0.41,-0.7 -0.73,0.87 -0.92,-0.12 -0.3,-1.83 -1.82,-0.68 -0.97,-0.97 1.43,-2.71 2.22,-1.17 0.73,-2.18 1.24,-1.08 -0.9,-1.67 -1.14,-0.89 -4.63,-0.35 -0.75,-0.45 -1,-1.32 -1.68,-0.05 -0.63,-0.59 -1.22,-0.17 -0.16,-1.27 -0.71,-1.2 0.03,-1.67 0.84,-0.05 0.36,-0.42 0.3,-1.37 -0.06,-1.3 2.79,-1.79 0.63,-1.49 -0.1,-1.89 -0.84,-0.83 -0.27,-0.83 -0.36,-2.48 0.23,-1.65 -1.42,-2.41 0.03,-1.96 -0.24,-0.59 -1.05,-1.23 -1.67,-1.14 -3.87,-1.59 -1.04,-1.61 -1.25,0.56 0,0 0.31,-1.96 -1.01,-0.97 -0.26,-1.92 -0.13,-6.13 -0.16,-0.97 -0.9,-1.38 0.1,-0.61 0.63,-0.32 1.18,-2.07 -0.47,-0.69 -1.08,-0.52 -0.07,-0.64 0.2,-0.64 1.37,-1.41 0.24,-2.15 0.73,-2.22 1.59,-0.1 0.7,-0.43 0.46,-1.7 0.66,-1.07 z" 
                fill="rgb(151, 144, 238)" 
                stroke="white" 
                stroke-width=".7px"
                title="East Midlands" 
                id="GB-UKF" 
            />
        </svg>