<svg xmlns="http://www.w3.org/2000/svg" viewBox="511.8717400000002 848.51453 42.7000000000001 33.38000000000022" width="42.7000000000001" height="33.38000000000022">
            <path 
                d="m 512.06174,856.59453 0.38,-0.55 0.24,-1.51 0.58,-0.12 0.57,0.55 1.38,-0.36 2.98,0.06 2.72,-1.64 3.41,-0.8 0.46,-1.93 0.35,-0.38 0.49,0.29 0.58,1.19 0.87,-0.66 1.39,-0.34 0.77,-0.78 0.53,-1.1 7.01,0.98 0.22,0.92 -0.3,1.33 0.66,0.34 1.09,0.73 0.49,1.31 2.72,1.64 0.59,-0.14 0.86,-1.05 3.71,-0.32 2.4,-0.8 0.85,0.14 0.15,0.87 1,1.92 0.71,0.8 1.23,0.41 0.4,1.37 1.02,1.83 -2.87,1.07 -0.37,0.84 -1.29,-0.27 -0.28,1.73 -1.2,1.08 -0.11,0.66 0.36,0.36 0,0 -0.63,1.35 -1.55,1.57 -1.04,1.68 0.43,2.35 -0.72,2.77 -1.23,1.12 -0.57,1.38 -1.2,1.07 -0.14,1.86 -1.28,0.48 -0.74,-0.62 -0.32,-0.4 -1.32,0.43 -0.31,-2.36 -0.84,-0.89 -1.37,-0.11 -1.02,1.25 -0.97,-0.07 -0.98,0.43 -0.89,1.5 -1.33,0.29 -1.19,-1.13 -1.39,-2.96 -0.53,-0.04 -1.58,0.93 0.07,-2.02 -1.28,-1.68 -1.29,0.97 -1.28,2.68 -0.97,0.39 -0.14,-1.88 0.86,-1.91 -0.69,-1.8 -0.72,-0.1 -0.91,-0.04 -1.62,-1.05 -1.29,-1.47 -1.61,-0.44 -0.44,-0.63 -0.06,-1.3 -1.65,-0.41 -1.21,-1.56 0.65,-1.36 0.67,-4.56 z" 
                fill="rgb(151, 144, 238)" 
                stroke="white" 
                stroke-width=".7px"
                title="Greater London" 
                id="GB-UKI" 
            />
        </svg>