<svg xmlns="http://www.w3.org/2000/svg" viewBox="289.8917400000001 616.2845300000002 26.660000000000025 32.66999999999973" width="26.660000000000025" height="32.66999999999973">
            <path 
                d="m 291.29174,647.55453 0.1,0.1 -0.01,0.36 -0.32,0.4 -0.11,0.29 -0.17,0.13 -0.03,0.12 -0.14,-0.17 -0.08,0.02 -0.02,0.1 -0.12,-0.15 -0.15,0.19 -0.1,-0.02 -0.04,-0.29 -0.21,-0.5 0.19,-0.29 0.51,-0.25 0.15,0.04 0.21,-0.13 0.16,-0.03 0.18,0.08 z m 21.46,-23.63 0.15,0.49 0.11,0.05 -0.21,0.04 -0.25,-0.56 -0.02,0.07 0.22,0.47 -0.01,0.14 0.11,0.02 0.17,-0.11 0.11,0 -0.08,0.08 0.02,0.13 0.17,0.19 0.36,-0.16 0.04,0.04 -0.37,0.17 0.2,0.36 0.66,0.37 0.15,0 0.08,-0.17 0.32,0.39 0.59,0.06 0.87,0.32 0.19,0.14 0.16,0.25 0.06,0.25 -0.11,0.13 -0.24,0.07 -0.04,0.23 -0.18,0.06 -0.21,-0.12 -0.08,0.01 0.02,0.55 0.12,0.28 -0.37,0.51 -0.18,0.1 -0.11,0.18 -0.2,0.17 -0.15,0.67 -0.1,-0.04 -0.13,-0.18 -0.36,-1.07 -0.05,-0.03 0.18,0.8 0.32,0.58 0.03,0.15 -0.45,0.6 -0.37,0.35 0.01,0.11 -0.28,0.28 -0.1,0.34 0.11,0.11 0.01,0.1 -0.26,0.73 -0.61,0.51 -0.19,0.03 -0.13,-0.09 0.02,0.15 -0.26,0.28 -0.3,0.53 -0.03,0.9 0.05,0.09 0.47,0.25 0.19,0.3 0,0.22 -0.16,0.3 -0.37,0.33 -0.37,0.73 -0.63,0.26 -0.15,0.13 -0.14,0.37 -0.14,0.12 -0.46,0.21 -0.13,0 -0.32,-0.15 -0.28,0.29 -0.68,-0.03 -0.2,0.1 -0.32,0.43 -0.24,0.45 0.03,0.25 0.27,0.28 -0.02,0.23 0.11,0.06 0.11,-0.11 -0.03,0.14 0.09,0.19 -0.55,0.45 -0.57,0.31 -0.69,0.68 -0.46,-0.06 -0.05,-0.05 -0.13,0.08 -0.21,-0.06 -0.17,0.14 -0.1,-0.05 -0.21,0.23 -0.13,0.05 -0.06,0.12 0.01,0.47 -0.61,0.43 -0.12,0.61 -0.25,0.28 -0.98,0.04 -0.46,-0.15 -0.01,0.18 -0.49,0.22 -0.23,0.23 -0.22,0.02 0,0.15 -0.13,0.17 -0.15,0.07 -0.17,-0.1 0.09,0.17 -0.14,0.14 -0.07,0.21 -0.3,0.32 -0.08,0.24 -0.17,-0.04 -0.12,0.07 -0.1,0.3 0.06,0.26 0.25,0.17 0.12,-0.01 0.27,-0.29 0.21,-0.06 0.02,0.07 -0.06,0.1 -0.19,0.01 -0.02,0.26 -0.38,0.63 0.02,0.11 -0.42,0.67 -0.07,-0.02 -0.05,-0.1 -0.21,0.03 0.18,-0.19 0.19,-0.5 -0.01,-0.23 0.09,-0.24 -0.17,-0.45 -0.25,-0.18 -0.39,-0.12 -0.51,0.1 -0.08,0.08 -0.06,0.19 -0.25,0.08 -0.37,0.31 0.08,0.11 -0.02,0.13 -0.09,0.04 0.01,0.1 -0.08,0.05 -0.03,0.11 -0.43,-0.11 -0.34,-0.3 -0.12,-0.24 -0.01,-0.23 0.07,-0.15 -0.16,-0.02 -0.11,-0.17 0.03,-0.13 -0.21,-0.18 -0.07,0.1 -0.04,-0.38 -0.34,-0.14 -0.48,-0.04 -0.24,0.08 -0.46,-0.04 -0.27,0.05 -0.16,0.22 0.06,0.29 -0.1,0.03 -0.19,-0.1 -0.12,0.08 -0.01,0.5 0.12,-0.18 -0.02,0.23 0.12,0.06 -0.07,0.24 -0.36,0.04 -0.1,-0.2 -0.24,-0.02 -0.28,0.41 0,0.27 -0.16,0.13 -0.27,-0.04 -0.39,0.05 -0.13,0.2 0.03,0.15 -0.44,0.05 -0.21,-0.49 -0.04,-0.04 -0.16,0.11 -0.08,-0.17 -0.18,-0.03 -0.04,-0.32 0.09,-0.12 0.18,-0.08 0.08,-0.4 0.42,-0.21 0.39,-0.77 0.18,-0.05 0.39,0.08 0,-0.3 -0.13,-0.14 -0.02,-0.13 -0.66,0.01 -0.17,-0.22 0.03,-0.29 0.1,-0.07 0.06,-0.21 0.13,-0.05 0.07,-0.24 0.26,-0.38 0.35,-0.06 0.17,-0.1 0.1,0.05 0.09,0.2 0.1,-0.03 0.19,-1.01 0.16,-0.17 0.39,-0.65 -0.01,-0.35 0.17,-0.3 0.11,-0.38 -0.04,-0.35 -0.12,-0.17 0.12,-0.72 -0.52,-0.93 0.03,-0.49 0.11,-0.1 -0.02,-0.17 0.06,-0.12 0.24,-0.1 0.17,-0.17 0.5,-0.76 0.03,-0.31 0.1,-0.2 -0.03,-0.44 0.17,-0.29 0.02,-0.2 -0.24,-0.61 0,-0.12 0.36,-0.38 0.04,-0.19 0.21,-0.32 0.36,-0.31 0,-0.14 0.16,-0.08 -0.08,0.15 0,0.07 0.07,0.04 0.34,-0.04 0.38,-0.2 0.13,-0.25 0.12,-0.08 0.49,-0.16 0.39,-0.26 0.18,-0.28 0.04,-0.17 0.6,-0.71 0.32,-0.18 0.13,-0.21 0.48,-0.47 0.81,-0.96 0.68,-1.29 0.55,-1.45 0.34,-1.09 0.59,-1.16 0.28,-0.32 0.19,-0.35 0.49,-1.78 0.22,-0.44 0.5,-0.73 1,-0.87 2.84,-1.88 0.19,-0.09 1.53,-0.3 1.34,-0.52 1.34,-0.62 0.58,-0.11 0.12,0.27 -0.08,2.03 -0.31,1.31 -0.62,1.91 -0.13,0.95 0.06,1.17 z" 
                fill="rgb(151, 144, 238)" 
                stroke="white" 
                stroke-width=".7px"
                title="Isle of Man" 
                id="IM" 
            />
        </svg>