<svg xmlns="http://www.w3.org/2000/svg" viewBox="350.8917400000013 547.7245299999989 89.26999999999839 195.60000000000105" width="89.26999999999839" height="195.60000000000105">
            <path 
                d="m 370.54174,639.55453 0.17,0.07 0,0.17 -0.17,-0.02 -0.17,0.15 -0.26,0.07 -0.11,0.41 0.08,0.27 0.17,0.17 0,0.22 0.26,0.1 0.03,0.19 0.11,0.1 0.2,0.75 -0.03,0.61 0.09,0.24 0.14,0.14 -0.03,0.39 0.09,0.46 0.08,0.17 0,0.07 -0.11,0.1 0,0.24 -0.06,0.12 0.26,0.1 0.11,0.15 0.14,0.07 0.03,0.19 0.17,-0.1 0.17,0.07 0,0.19 -0.08,0.02 -0.03,0.12 0.23,0.02 0.17,0.29 -0.09,0.17 0.03,0.19 0.06,0.02 -0.06,0.22 0.03,0.17 0.28,0.46 0.2,-0.02 0.2,0.12 0.03,0.22 0.09,0.07 0.03,0.17 0,0.51 0.17,0.24 0.2,0.07 0.11,0.15 0.08,0 0.2,-0.05 0.77,-0.48 0.09,0.12 0.03,0.19 0.08,0.02 -0.03,-0.36 0.09,-0.02 0.14,0.07 0.03,0.15 -0.2,0.53 -0.34,0 -0.03,0.05 -0.08,-0.02 -0.14,0.07 -0.4,0.05 -0.08,0.07 -0.48,-0.05 -0.26,-0.15 -0.06,-0.15 -0.2,-0.22 0,-0.1 -0.17,-0.17 -0.14,-0.46 -0.11,-0.17 -0.14,-0.07 -0.4,-0.7 -0.14,-0.12 -0.23,-0.41 -0.2,-0.17 -0.8,-1.43 -0.06,-0.31 -0.14,-0.17 -0.06,-0.29 -0.26,-0.44 -0.06,-0.39 -0.14,-0.29 -0.03,-0.34 0.08,-0.02 0,-0.27 -0.08,-0.1 -0.03,-0.41 -0.11,-0.27 -0.03,-1.02 0.14,-0.17 0,-0.1 0.23,-0.22 0.37,-0.12 0.23,-0.19 0.14,0 z m 29.19,-91.83 0.42,0.49 1.2,3.8 0.68,0.99 2.21,0.77 0.53,1.84 1.67,1.22 0.4,0.84 2.15,-0.62 1.03,0.67 -0.54,0.67 0.23,0.59 -0.17,0.65 0.65,1.69 -4,2.43 -0.36,0.54 -0.04,1.76 -1.24,1.73 1.38,0.79 0.4,1.81 0.8,1.29 -0.91,0.64 -0.56,2.03 -1.2,0.91 0.31,0.86 1.08,1.31 0.16,1.01 -0.36,0.94 0.34,1.13 1.54,1.38 1.72,0.25 3.54,-2.47 0.95,-1.11 0.63,-0.15 1.95,3.23 2.92,2.44 -1.14,4.94 -1.37,3.25 0.47,0.76 2.76,1.45 0.53,0.71 0.07,0.66 -0.36,0.88 -1,1.1 0.47,2.18 0.57,1.32 3.89,3.16 0.91,1.84 1.47,0.29 0.26,3.74 0.4,1.1 -0.25,1.53 0,0 -0.67,-0.35 -1.32,1.15 -2.59,-0.12 -1.64,1.1 -0.97,1.56 0.63,2.02 0,1.05 -3.27,2.85 0.31,0.71 1.45,1.07 0.34,0.83 0.03,2.46 -0.3,0.97 0.57,1.41 -0.18,1.46 -0.3,0.46 -1.01,0.22 -1.18,-0.85 -1.55,0.78 -0.91,1.17 -2.41,-0.17 -0.3,1.14 -2.99,3.98 -0.37,1 -1.47,0.8 -0.2,1.99 0.33,1.28 1.32,1.43 2.63,1.53 0.43,0.7 0.06,2.13 0.5,0.63 1.11,0.17 2.38,-0.65 1.32,0.27 0.3,0.48 0.16,1.31 0.46,0.34 -0.54,1.38 0.64,0.97 1.79,0.17 0.65,1.57 0.67,0.1 2.39,-1.11 -0.04,0.87 0.31,0.41 1.62,0.19 0.61,0.97 0.23,1.62 3.54,1.86 0.38,2.27 1.61,2.24 1.72,1.31 -0.24,1.24 -0.51,0.77 -2.48,1.2 -1.28,1.66 -0.04,3.12 -1.96,2.57 0.54,1.75 -0.11,0.75 0.47,0.21 0.54,1.03 0.7,-0.07 1,0.96 0.9,-0.24 0.83,-0.77 0.95,-0.05 0.14,0.89 0.63,0.91 -0.19,1.41 0.57,0.65 0.36,1.8 1.48,0.33 0.57,1.79 2.01,2.22 2.08,3.01 0,0 -0.66,1.08 -0.46,1.7 -0.7,0.43 -1.59,0.1 -0.73,2.22 -0.24,2.15 -1.37,1.41 -0.2,0.64 0.07,0.64 1.08,0.52 0.47,0.69 -1.18,2.07 -0.63,0.32 -0.1,0.61 0.9,1.38 0.16,0.97 0.13,6.13 0.26,1.92 1.01,0.97 -0.31,1.96 0,0 -1.47,1.82 -1.28,0.12 -1.94,1.61 -1.71,0 -1.2,-0.78 -0.67,0.1 -0.1,0.33 0.47,1.04 -0.2,0.64 -1.18,0.24 -4.54,5.42 -1.32,0.54 -1.71,-0.14 -1.54,1.96 -1.55,0.33 -0.41,1.28 0.38,3.14 -0.63,0.91 -2.3,0.93 -0.37,1.16 -0.95,0.68 -1.51,0.24 -1.74,-0.64 -0.74,1.23 -1.58,-0.78 -1.01,0.24 -0.6,-1.98 -1.71,-0.75 -5.38,1.63 0,0 -2.39,-1.56 -1.96,0.07 -0.75,-1.53 -1.69,-1.67 0.18,-0.9 -0.38,-1.79 -1.59,-4.01 0.08,-0.29 -2.28,-1.75 -1.07,-1.92 0.08,-0.38 2.48,-1.68 -0.17,-1.28 -2.19,-2.49 -2.36,-2.04 -1.84,-1 -2.25,0.05 -0.38,-0.81 -0.2,0.28 0,0 -0.06,-0.13 0.09,-0.05 0,-0.07 -0.17,0.12 0,-0.09 -0.14,-0.14 -0.03,-0.14 -0.09,0 -0.06,-0.09 -0.09,-0.62 0.46,-0.02 0.06,0.17 0.06,0 -0.06,-0.19 0.29,-0.02 0.03,-0.07 -0.26,0.02 -0.14,-0.12 -0.17,-0.02 -0.06,0.05 -0.09,-0.07 0.17,-0.09 0.08,-0.14 0.14,0.02 0.17,0.19 0.09,0 0.03,-0.1 -0.09,0.02 0,-0.09 0.09,-0.19 0.2,0.07 0.34,-0.05 0.03,-0.05 0.11,0.02 0,-0.07 -0.14,-0.02 -0.11,0.07 -0.57,-0.1 -0.2,0.1 0.06,-0.12 -0.06,-0.14 0.17,-0.07 0.08,0.02 0.03,-0.14 -0.31,0.05 -0.09,0.17 -0.17,0.02 -0.08,-0.09 -0.17,-0.05 -0.03,-0.12 0.14,0.02 0,-0.05 0.11,0 0.06,-0.14 -0.2,0.07 -0.11,-0.02 0.03,-0.14 -0.11,0.09 -0.17,-0.09 -0.03,-0.24 -0.08,-0.12 0,-0.19 0.46,0 0.06,-0.02 0,-0.09 -0.34,0.02 0.06,-0.17 -0.26,0.12 -0.23,-0.33 -0.06,-0.19 0,-0.12 0.09,-0.07 -0.29,-0.07 0,-0.26 -0.08,-0.07 -0.06,-0.21 0.03,-0.4 -0.09,-0.17 -0.14,-0.09 -0.03,-0.57 -0.17,-0.12 0.17,-0.02 0.09,0.12 0.08,0 0,-0.07 -0.28,-0.29 -0.09,-0.02 -0.71,-0.95 -0.17,-0.07 -0.26,-0.29 -0.17,-0.05 -0.43,-0.48 -0.14,-0.07 -0.14,-0.24 -0.11,-0.4 -0.14,-0.19 -0.29,-0.19 -0.06,-0.24 -0.2,-0.24 -0.03,-0.17 -0.06,-0.02 0,-0.17 -0.11,-0.07 -0.14,-0.6 -0.08,-0.09 0,-0.1 -0.14,-0.07 -0.03,-0.14 0.2,-0.05 0.4,-0.33 0.11,-0.24 0.06,0 0.31,-0.36 0,-0.1 0.31,-0.14 0.2,-0.19 0.09,0 0.26,-0.19 0.11,0 0.17,-0.17 0.34,-0.07 0.08,-0.1 0.29,-0.09 0.2,-0.14 0.23,-0.05 0.17,-0.17 0.37,-0.05 0.43,-0.26 0.2,-0.05 0.23,-0.19 0.2,0 0.23,-0.1 0.17,-0.21 0.14,-0.02 0.2,-0.26 0.26,-0.05 -0.06,-0.1 0.23,-0.09 0.28,-0.33 0.74,-0.14 0.11,-0.14 0.54,-0.17 0.17,-0.12 0.31,0 0.11,0.07 0.08,0.21 0.06,0.02 0,0.33 0.14,0.24 -0.03,0.17 0.14,0.12 0.06,0.45 0.11,0.17 -0.03,0.1 0.26,0.33 0,0.09 0.09,0.02 0.14,0.31 0.11,0.02 0,0.48 -0.4,0.17 -0.11,-0.07 -0.08,0.05 -0.34,-0.17 -0.57,0.09 -0.14,-0.09 -0.03,-0.12 -0.09,0 -0.06,-0.12 -0.06,0 0.08,0.24 0.29,0.17 0.26,0 0.11,-0.07 0.28,0.02 0.26,0.14 0.11,0.19 0.06,0 0,0.1 0.11,0.07 0.14,0 0,-0.07 0.14,-0.05 0.23,0 0,0.17 0.14,0.14 -0.06,0.45 0.17,0.67 0.14,0.12 0.09,0.33 0.2,-0.02 0.03,0.21 -0.09,0.05 0,0.33 0.06,0.14 0.17,0.07 0.09,0.26 0.2,0.14 -0.03,0.12 0.11,0.02 0.06,-0.17 0.08,0.16 0.14,0.08 -0.03,0.09 0.06,0.1 0.29,0.19 -0.03,0.09 0.14,0.14 0,0.12 0.26,0.38 -0.03,0.14 0.11,0.1 0,0.12 0.14,0.1 0,0.14 0.14,0.19 0.06,0.14 -0.03,0.17 0.11,0.17 0,0.12 0.14,0.14 0.14,0.33 0.37,0.29 0.14,0.4 0.08,0.02 0.03,0.19 0.23,0.17 0.06,0.19 0.17,0.09 0,0.07 0.17,0.09 0.06,0.1 0.2,0.12 0.26,-0.05 0.09,0.07 0.11,-0.05 0.14,0.05 0.09,0.14 0.11,0.05 0.03,0.12 0.2,0.02 0.48,0.43 0.17,0.29 0.11,0.02 0.29,0.24 0.11,-0.02 0.17,0.12 0.26,-0.02 0.23,-0.09 0.11,0.02 0.11,-0.09 0,-0.07 0.17,-0.05 0.23,0.07 0.09,-0.02 0,-0.07 0.03,0.05 0.28,-0.02 0.14,0.05 0.09,-0.14 0.2,-0.02 0.57,-0.36 0.2,-0.05 0.14,-0.19 0.46,-0.33 0.06,0.05 0.09,-0.07 0.11,0.05 0.17,-0.02 0.11,0.07 0.06,-0.07 0.31,0 0.06,-0.07 0.2,0.12 0.06,-0.07 0.46,0 0.11,0.05 0,0.17 0.06,0 0.17,-0.09 0.06,-0.1 0.14,-0.05 0.37,-0.36 0.37,-0.17 0.11,-0.14 0.08,0.09 0.2,0 0.17,0.36 0.14,0.09 0.4,0 -0.03,-0.07 -0.26,0 -0.17,-0.09 -0.23,-0.5 -0.34,-0.26 -0.26,-0.29 -0.08,-0.29 -0.09,-0.05 0,-0.12 -0.11,-0.12 -0.8,-0.02 -0.11,0.26 -0.11,0.02 -0.11,0.17 -0.48,0.05 -0.37,-0.38 -0.34,-0.17 -0.11,-0.14 -0.4,-0.19 -0.14,0.05 0,0.09 -0.4,0.02 -0.31,0.26 -0.09,0 -0.03,0.07 -1.02,-0.12 -0.77,-0.38 -0.29,0.05 0,-0.07 0.11,-0.09 -0.23,-0.05 -0.17,-0.19 -0.23,-0.07 -0.28,-0.29 -0.34,-0.14 -0.08,-0.17 -0.23,-0.14 -0.03,-0.12 -0.26,-0.19 -0.11,-0.26 -0.2,-0.12 -0.03,-0.1 -0.2,-0.12 -0.03,-0.09 -0.2,-0.17 -0.26,-0.09 -0.14,-0.17 -0.26,-0.12 -0.14,-0.17 -0.34,-0.12 -0.09,-0.14 -0.28,-0.1 -0.09,-0.14 -0.11,0 -0.4,-0.24 -0.17,-0.24 -0.43,-0.36 -0.08,0 -0.06,-0.26 -0.26,-0.29 -0.26,-0.81 -0.09,-0.07 -0.14,-0.45 -0.09,-0.02 -0.03,-0.36 -0.14,-0.19 0,-0.36 -0.08,-0.14 -0.14,-0.67 0,-0.64 -0.11,-0.64 -0.03,-0.1 -0.11,-0.02 -0.14,-0.41 0.06,-0.07 0.26,0 0,-0.05 -0.2,0 0.2,-0.12 0,-0.07 -0.17,0.1 -0.09,-0.02 0,-0.07 -0.11,0 0.06,0.12 -0.03,0.1 -0.12,-0.37 -0.14,-0.12 0,-0.09 0.2,-0.05 0.14,-0.12 0.03,-0.12 -0.2,0.1 0.14,-0.12 0,-0.09 -0.23,0.07 0.06,-0.1 -0.14,0 -0.14,0.07 0.06,0.21 -0.11,-0.14 -0.23,0.05 -0.06,-0.1 -0.14,-0.07 -0.31,-0.45 -0.06,-0.17 -0.06,0 -0.11,-0.17 0.2,-0.17 0.03,-0.21 -0.11,-0.36 -0.37,-0.57 -0.2,-0.48 -0.14,-0.12 -0.14,-0.67 -0.11,-0.17 -0.06,-0.29 -0.06,0 -0.11,-0.81 -0.06,-0.05 0,-0.38 0.08,-0.14 -0.08,-0.6 -0.08,-0.09 -0.46,-0.12 -0.34,-0.55 -0.2,-0.09 -0.11,-0.14 -0.23,-0.14 -0.08,-0.19 -0.17,-0.1 -0.17,-0.22 -0.14,-0.64 0.17,-1.34 0.06,-0.02 0,-0.14 0.14,-0.36 0.31,-0.5 0,-0.14 0.11,-0.1 0.08,-0.26 0.31,-0.43 0.03,-0.17 0.14,-0.12 0.26,-0.38 0.11,-0.31 0.08,-0.05 0.2,-0.31 0.06,-0.24 0.06,0 0.08,-0.12 0.09,-0.31 0.17,-0.22 0.03,-0.24 0.06,-0.02 0.11,-0.36 0.11,-0.1 0.17,-0.33 0.14,-0.41 0.08,-0.12 0.09,-0.02 0,-0.07 0.08,-0.05 0,-0.07 0.17,-0.22 0.2,-0.1 0.29,-0.6 0.08,-0.05 0.23,-0.36 0.14,-0.1 -0.17,-0.17 -0.17,-0.07 0,-0.07 0.17,0 0.2,0.22 0.09,-0.02 0.08,-0.14 0.17,-0.07 0.17,-0.17 0.31,-0.41 0.2,-0.05 0.14,-0.14 0.03,-0.17 0.08,-0.02 0.06,-0.65 -0.06,-0.12 -0.14,-0.1 0.4,-0.19 0.03,-0.24 0.14,-0.17 0.08,-0.26 0.11,-0.07 0.06,-0.17 0.14,-0.1 0.11,-0.24 0.31,-0.22 0.34,-0.05 0.14,-0.24 0.23,-0.05 0,-0.22 0.08,-0.22 0.11,-0.22 0.17,-0.1 0,-0.05 -0.34,-0.07 -0.06,-0.38 0.37,-0.19 0.11,-0.17 0.09,0.02 0.06,-0.19 0.14,-0.12 0,-0.22 -0.26,-0.58 0.03,-0.05 -0.2,-0.02 -0.06,-0.07 -0.08,0.07 -0.11,-0.02 0,-0.14 -0.14,0 -0.11,0.07 -1.11,-0.05 -0.71,-0.19 -0.2,-0.12 -0.11,0 -0.03,0.1 -0.08,0.02 -0.06,-0.07 -0.31,-0.02 -0.51,-0.22 -0.17,-0.17 -0.23,-0.1 0,-0.05 -0.34,-0.19 -0.26,-0.31 -0.14,-0.31 -0.31,-0.41 -0.2,-0.6 -0.2,-0.34 -0.23,-0.87 0,-1.42 0.08,-0.41 -0.06,-1.35 0.06,-0.43 -0.03,-0.91 0.09,-1.2 0.08,-0.19 0.23,-1.66 0.09,-0.17 -0.03,-0.58 0.06,-0.14 -0.03,-1.45 -0.09,-0.38 0.03,-0.34 -0.03,-0.29 -0.06,-0.07 0.03,-0.22 -0.06,-0.15 0.03,-0.36 -0.06,-0.05 0,-0.43 0.26,-0.34 0.46,-0.24 0.43,-0.12 0.17,0 0.03,0.07 0.23,0 0,-0.05 0.57,-0.29 0.11,0 0.08,0.07 0.14,0.46 -0.09,0.22 -0.28,0.17 0.14,0.07 0.03,0.1 -0.03,0.63 0.08,1.16 0.17,0.34 0.17,0.05 0,0.27 0.23,0.22 0.06,0.17 1,0.48 0.06,0.19 0.17,0.14 0.03,0.31 -0.17,0.1 -0.31,0.02 0,0.29 0.11,0.31 -0.03,0.17 0.26,0.14 0.2,0 0.06,-0.07 0.28,-0.05 0.2,0.17 0.17,0.46 0.23,0.26 0.2,0.1 0.26,0 0.14,-0.07 -0.03,-0.07 -0.34,0.05 -0.23,-0.14 -0.11,-0.17 -0.09,-0.36 -0.11,-0.19 -0.09,0 -0.11,-0.12 -0.2,0 -0.03,-0.07 -0.17,0.05 -0.26,-0.1 0.17,-0.43 0.09,0 0.14,-0.17 0.03,-0.24 -0.14,-0.41 -0.17,-0.12 0,-0.1 -0.29,-0.22 0,-0.07 -0.11,-0.02 -0.03,-0.1 -0.14,-0.07 -0.17,-0.22 -0.17,-0.39 -0.2,-0.17 -0.14,-0.8 0.06,-0.24 -0.11,-0.07 0.08,-0.46 -0.08,-0.02 -0.09,-0.24 0.06,-0.77 -0.09,-0.12 0.09,-0.14 0.51,-0.07 0.06,-0.07 0.46,-0.19 0.09,-0.1 0.2,-0.02 0.37,-0.26 0.26,-0.07 0.34,-0.19 0.4,-0.07 0.2,-0.12 0.43,-0.07 0.17,-0.22 0.17,0 0.06,-0.07 0.23,0.05 0.26,-0.05 0.37,0.36 0.17,0.07 0.4,0 0.08,-0.05 0,-0.19 0.37,0 0.23,-0.14 0.03,-0.1 0.14,-0.02 0.14,-0.12 0.09,-0.22 -0.06,-0.1 0.06,-0.27 0.26,-0.14 0.2,0.07 0.09,-0.14 0.14,-0.02 0.14,-0.31 0.11,-0.07 0.08,-0.24 0.11,-0.02 -0.03,-0.07 -0.4,-0.05 -0.66,-0.39 -0.14,-0.56 0.06,-0.14 -0.06,-0.02 -0.28,-1.06 -0.31,-0.29 -0.06,-0.19 -0.17,-0.24 -0.06,-0.41 -0.26,-0.29 -0.08,-0.27 -0.03,-0.43 -0.09,-0.1 -0.06,-0.29 -0.06,-0.1 -0.23,0.02 -0.11,-0.07 -0.06,-0.12 -0.14,-0.1 -0.09,-0.22 -0.28,-0.27 0.11,-0.02 0.09,-0.15 0.23,-0.05 0.03,-0.07 -0.11,-0.05 -0.26,0.02 -0.06,0.15 -0.06,-0.02 0,-0.1 0.31,-0.22 0.14,-0.02 0.08,-0.15 0.14,0.02 0.06,-0.07 0.17,0 0.03,-0.24 -0.09,-0.07 0,-0.12 0.11,-0.12 -0.11,-0.07 0.03,-0.15 0.26,0.02 0.17,-0.1 0.11,-0.46 0.14,-0.24 0,-0.27 0.23,-0.19 0.06,-0.29 0.17,0.02 0.34,-0.24 0.06,-0.36 -0.2,-0.27 0.09,-0.02 0.11,0.15 0.17,-0.05 0.31,0.1 0.34,-0.36 0.17,0.02 0.14,-0.05 0.14,0.07 0.17,0 0.43,-0.22 0.26,-0.31 0.03,-0.19 0.28,-0.05 0,-0.07 0.31,-0.07 0.23,-0.15 0.09,-0.63 0.17,-0.36 -0.03,-0.31 0.06,-0.05 0,-0.17 0.06,-0.07 0.17,-0.02 0.11,-0.19 0.11,-0.05 0.31,-0.58 0.14,-0.41 -0.03,-0.24 0.11,-0.17 0,-0.22 0.06,-0.02 0.03,-0.12 -0.09,0 -0.14,0.27 -0.2,0.02 -0.26,-0.17 -0.03,-0.19 -0.08,-0.1 -0.4,-0.07 0,-0.19 -0.14,-0.15 -0.03,-0.19 -0.08,-0.02 0,-0.34 -0.14,-0.34 0,-0.07 0.23,-0.17 0,-0.24 -0.06,-0.1 -0.46,0.1 -0.37,-0.61 0,-0.92 -0.06,-0.24 -0.14,-0.17 -0.2,-0.1 -0.09,-0.15 -0.2,-0.02 -0.06,-0.12 -0.54,-0.19 -0.11,0.02 -0.17,-0.12 0.03,-0.29 0.17,-0.17 -0.2,-0.27 0.26,-0.22 0.4,0 0.11,-0.24 0.37,-0.1 0.06,-0.19 0.37,-0.15 0.06,-0.15 0.6,0 0.03,-0.15 0.06,-0.02 0,-0.17 0.17,-0.07 0,-0.17 0.31,-0.22 0,-0.15 0.2,-0.29 0.03,-0.15 0.08,-0.05 0.17,0.02 0.28,-0.36 0.2,-0.05 0.08,-0.22 0.14,-0.05 0,-0.17 -0.11,-0.12 -0.09,-0.29 -0.17,-0.05 -0.03,-0.22 -0.08,-0.07 0.03,-0.22 -0.08,-0.17 0.03,-0.07 -0.11,-0.24 -0.34,-0.07 -0.37,0 0.03,0.2 0.11,0.15 0.11,0.05 0.08,0 0.03,-0.1 0.08,-0.05 0.26,0.05 -0.06,0.27 -0.17,0.27 -0.03,0.2 0.03,0.85 -0.4,0.07 -0.14,0.19 -0.94,0.36 -0.11,0.17 -0.14,0.51 -0.14,0.19 0,0.17 -0.08,0.07 -0.14,0.02 -0.51,-0.12 -0.26,0.19 -0.51,0.05 -0.43,0.17 -0.34,0.22 0.06,0.27 -0.08,0.15 -0.11,0 0,-0.22 -0.11,-0.02 -0.54,0.17 -0.03,0.1 -0.2,0.12 0,0.07 -0.17,0.12 -0.03,0.22 -0.08,0 0.03,0.22 -0.11,0.02 -0.08,0.1 0,0.41 -0.06,0.12 0.03,0.27 -0.2,0.39 0.08,0.34 -0.11,0.07 -0.11,-0.05 -0.11,0 -0.03,0.05 0.09,0.1 0.23,0.02 -0.06,0.1 0,0.36 -0.31,0.17 -0.23,0.27 -0.06,0.24 -0.17,-0.19 -0.06,-0.39 -0.17,-0.07 -0.34,0.15 -0.14,-0.02 -0.17,0.24 -0.23,0.1 -0.2,0.17 -0.17,0 -0.46,0.19 -0.46,0.02 -0.43,-0.29 -0.17,-0.05 0,-0.1 -0.11,-0.05 -0.03,-0.19 -0.26,-0.05 -0.06,-0.17 -0.08,-0.05 0.14,-0.17 0,-0.07 0.17,-0.07 0.03,-0.15 -0.09,-0.22 0.23,-0.34 -0.11,-0.36 -0.11,-0.02 -0.03,-0.12 -0.14,0 -0.08,-0.07 -0.37,-0.49 -0.26,-0.17 -0.14,-0.19 -0.23,-0.12 -0.23,-0.22 -0.03,-0.1 -0.34,-0.24 0.2,-0.12 0.06,0 0.03,0.07 0.2,-0.07 0.06,-0.27 0.09,-0.07 0.2,0.02 0.14,-0.07 0.09,-0.1 0,-0.17 -0.11,-0.34 -0.31,-0.22 -0.03,-0.46 -0.2,-0.17 -0.06,-0.46 -0.23,-0.36 -0.09,-0.07 -0.17,0 -0.17,0.19 -0.11,0 -0.26,-0.24 -0.03,-0.44 0.2,-0.05 -0.06,-0.19 0.37,-0.03 0.06,-0.05 0.2,-0.24 -0.03,-0.24 0.2,0 0,-0.12 -0.08,-0.02 -0.23,0.1 0.03,0.32 -0.06,0.05 -0.48,-0.07 -0.06,0.07 -0.06,0.39 -0.2,0.32 0,0.29 0.06,0.12 -0.09,0.17 0,0.29 -0.06,0.12 0.14,0.22 0.28,-0.07 0.37,0.15 0.17,0.17 0.03,0.27 -0.2,0.39 -0.06,0.41 -0.2,0.1 -0.11,0.19 -0.23,-0.02 -0.14,0.15 -0.06,0.29 -0.06,0.05 0,0.17 0.14,0.12 0,0.24 -0.23,0.15 -0.11,0.17 -0.03,0.17 -0.17,0.19 0.03,0.17 0.11,0.1 0,0.22 0.09,0.17 0,0.19 -0.09,0.1 0.03,0.41 -0.06,0.07 0,0.22 -0.26,0.05 -0.11,0.1 -0.03,0.1 -0.14,0.07 -0.03,0.17 -0.17,0.1 -0.14,0.22 -0.06,0.22 -0.17,0.19 -0.08,0.22 0.03,0.19 -0.2,0.46 0,0.17 -0.2,0.14 -0.2,0.32 -0.26,0.17 -0.03,0.19 -0.14,0.1 0,0.39 -0.08,0.17 -0.51,0.27 -0.23,0.19 -0.14,0.41 -0.08,0 -0.34,0.31 0.06,0.1 -0.06,0.12 -0.37,0.27 0,0.05 -0.14,0.05 -0.08,0.15 -0.46,0.34 -0.31,0.34 -0.06,0.19 -0.34,0.29 -0.11,0.27 0,0.19 0.03,0.1 0.11,0.07 0,0.12 0.26,0.12 0.08,0.17 0.26,0.19 0.17,0 0.17,0.27 -0.03,0.15 -0.08,0.02 0,0.05 -0.26,-0.05 -0.03,0.07 -0.09,0 -0.08,-0.56 -0.46,-0.36 -0.08,-0.15 0.03,-0.1 -0.14,-0.19 -0.11,0.02 0.06,0.14 -0.11,0.07 0.09,0.34 -0.14,0.02 -0.03,-0.1 -0.11,-0.05 0.06,-0.17 0.08,-0.05 0,-0.17 0.14,-0.24 -0.03,-0.19 -0.63,-0.51 -0.14,-0.24 0,-0.12 0.11,-0.05 0,-0.22 -0.08,-0.07 0,-0.17 -0.26,-0.32 -0.37,-0.05 0.06,-0.17 -0.2,-0.31 -0.11,0 -0.26,0.19 -0.2,0.07 0,0.07 0.14,0.15 0.03,0.31 -0.2,0.05 -0.23,0.19 -0.08,0.39 -0.4,-0.12 -0.28,-0.53 -0.17,-0.07 -0.11,-0.15 -0.14,-0.31 -0.03,-0.41 -0.06,-0.05 0.03,-0.19 -0.14,-0.19 -0.03,-0.15 0.06,-0.39 -0.06,-0.61 0.06,-0.46 0.2,-0.7 0,-0.24 0.06,-0.07 -0.03,-0.39 0.17,-0.27 0,-0.17 -0.23,-0.24 -0.23,0.05 0,0.15 -0.17,-0.02 -0.08,-0.29 -0.2,-0.15 -0.17,-0.32 0.03,-0.24 0.17,-0.22 0.48,-0.19 0.51,0.05 0.09,0.07 0.31,0 0.28,-0.22 0,-0.17 0.2,-0.1 0.14,-0.34 -0.03,-0.34 -0.09,-0.12 -0.08,0 -0.29,-0.19 0.11,-0.05 0.2,0.12 0.2,-0.05 0.06,-0.44 -0.06,-0.07 0.03,-0.15 0.2,-0.15 0.2,-0.27 0,-0.17 -0.11,-0.12 -0.03,-0.24 -0.14,-0.1 -0.06,-0.17 0.14,0.1 0.11,0 0.11,-0.12 0.11,-0.22 0.06,-0.73 0.09,-0.07 0.08,-0.24 0.11,-0.07 0.03,-0.15 0.14,-0.15 0.11,-0.29 0.23,-0.22 0.06,-0.22 -0.14,0 -0.08,0.22 -0.2,0.22 -0.06,0.22 -0.14,0.07 -0.09,-0.02 0.03,-0.15 -0.17,-0.87 -0.08,-0.15 -0.31,-0.27 -0.06,-0.17 -0.11,-0.05 -0.03,-0.19 0.11,-0.12 -0.09,-0.34 -0.54,-0.44 -0.2,-0.02 0,-0.15 0.11,-0.1 0.11,-0.27 -0.09,-0.27 -0.06,-0.05 -0.14,0.02 -0.08,0.29 -0.09,0.02 0.06,0.15 -0.11,0.07 -0.03,0.19 0.11,0.05 0,0.12 0.11,0.22 0.31,0.15 -0.09,0.51 -0.08,0.05 0,0.07 0.06,0.02 0.03,0.44 -0.14,0.24 -0.08,0.05 -0.03,0.22 -0.14,0.1 0,0.22 -0.17,0.22 -0.03,0.15 -0.06,0.07 -0.14,0 -0.06,0.12 -0.2,0.05 -0.14,0.46 -0.14,0 -0.08,0.07 -0.06,0.2 0.03,0.1 0.11,0.02 0.06,0.15 0.11,0 0,0.07 -0.11,0.07 0,0.19 0.29,0.12 0.06,0.24 0.14,0.15 0,0.12 -0.17,0.1 -0.14,0.53 -0.31,0.24 -0.06,0.12 -0.14,-0.05 -0.09,0.1 -0.31,0.1 -0.23,0 -0.28,-0.1 -0.26,-0.27 -0.06,-0.19 -0.11,-0.05 -0.14,0.07 -0.37,0.46 -0.46,0.29 -0.54,0.02 -0.34,-0.1 -0.2,-0.12 -0.08,-0.1 0,-0.1 -0.4,-0.46 -0.06,-0.17 -0.11,-0.12 -0.14,-0.44 -0.34,-0.49 -0.77,-1.41 -0.14,-0.12 -0.26,-0.58 -0.34,-0.37 -0.34,-0.53 -0.11,-0.07 -0.08,-0.19 -0.23,-0.27 -0.2,-0.12 -0.31,-0.58 -0.14,-0.15 -0.11,-0.22 0.03,-0.37 -0.14,-0.05 -0.08,-0.2 -0.08,-0.05 -0.34,-0.56 -0.2,-0.51 -0.03,-0.29 0.06,-0.17 -0.09,-0.05 -0.06,-0.15 -0.03,-0.32 0.08,-0.15 0.26,-0.2 0.03,-0.56 -0.06,-0.63 -0.06,-0.02 0,-0.39 -0.17,-0.27 -0.06,-0.39 -0.11,-0.2 -0.03,-0.19 0,-0.37 0.09,-0.2 0.03,-0.49 0.23,-0.24 0.17,-0.1 0.23,-0.49 0.09,0.02 0.03,0.12 -0.09,0.19 0.03,0.37 -0.11,0.29 0.17,0.17 0.28,0.12 0.2,0 0.37,-0.41 0.09,0 0.23,-0.17 -0.03,-0.2 -0.11,-0.02 -0.06,0.1 0.03,0.07 -0.26,0.17 -0.09,0 -0.08,0.1 -0.26,0.05 -0.23,-0.05 0,-0.27 0.09,-0.1 0,-0.44 -0.09,-0.24 -0.23,-0.17 0.03,-0.32 0.14,-0.32 0.29,-0.05 0,-0.15 0.08,-0.15 -0.11,0 -0.08,0.17 -0.31,-0.02 -0.03,-0.07 -0.11,0 0,0.15 0.06,0.05 -0.03,0.22 0.06,0.02 -0.08,0.15 -0.11,0 -0.14,-0.17 -0.28,-0.02 -0.11,0.07 -0.08,0.22 -0.14,0 -0.37,-0.27 0,-0.17 0.11,-0.22 0,-0.12 -0.14,-0.17 -0.14,-0.02 -0.03,0.05 0.11,0.15 0,0.12 -0.09,0.05 0,0.32 0.31,0.29 0.4,0.15 0.34,0.24 -0.03,0.34 -0.37,0.27 -0.26,0.05 -0.11,-0.15 -0.17,-0.1 -0.2,-0.39 -0.4,-0.39 -0.2,-0.41 -0.31,-0.39 -0.17,-0.41 -0.23,-0.34 -0.23,-0.85 -0.08,-0.07 -0.11,-0.29 -0.23,-0.22 -0.37,-0.73 -0.17,-0.2 -0.06,0 -0.43,-0.56 -0.09,-0.02 -0.26,-0.39 0,-0.1 -0.34,-0.39 -0.06,-0.15 -0.06,0 0.09,-0.07 -0.09,0.02 -0.11,-0.1 -0.14,-0.32 -0.46,-0.51 -0.06,-0.15 -0.23,-0.2 -0.14,-0.29 -0.28,-0.29 -0.11,-0.24 -0.37,-0.29 -0.28,-0.34 -0.17,-0.07 -0.09,-0.34 -0.2,-0.22 -0.06,-0.24 -0.14,-0.07 -0.23,-0.29 -0.26,-0.71 -0.31,-0.32 -0.14,-0.37 -0.14,-0.15 -0.08,-0.2 -0.14,-0.07 -0.11,-0.2 -0.4,-0.34 -0.08,0 -0.08,0.12 -0.29,0 -0.2,-0.1 -0.09,-0.42 -0.23,-0.37 -0.11,-0.34 -0.2,-0.05 -0.17,-0.17 -0.23,-0.81 0.06,-0.2 0.08,-0.07 0.51,-0.17 0.28,-0.27 0.31,-0.15 0.09,0.05 0.14,-0.17 0.14,-0.34 0.11,-0.07 0.06,-0.29 0.06,-0.05 0.06,-0.66 0.26,-0.64 0,-0.15 0.08,0.02 0.09,0.12 0.2,-0.02 -0.03,-0.1 0.06,-0.05 0.06,-0.27 -0.06,-0.44 0.34,-0.39 0.03,-0.56 0.2,-0.12 0,-0.15 -0.11,-0.07 -0.03,-0.29 -0.06,-0.02 0.06,-0.76 -0.03,-0.39 0.17,-0.12 0.11,-0.22 0.14,-0.49 0.08,-0.05 0.03,-0.22 0.06,-0.02 -0.03,-0.27 0.09,-0.12 -0.06,-0.2 0.06,-0.29 0,-0.93 -0.14,-0.29 -0.14,-0.56 0,-0.88 -0.17,-0.71 0.14,0.07 0.09,0.17 0.26,0.1 0.11,-0.02 -0.03,-0.32 0.23,-0.27 0,-0.12 0.11,-0.12 -0.06,-0.32 0.34,-0.32 0.14,-0.2 0,-0.1 0.17,-0.1 0,-0.15 0.14,-0.12 0.09,-0.22 0.23,-0.1 0.11,-0.2 0.17,-0.02 0.2,-0.15 0,-0.15 0.11,-0.1 0.03,-0.12 0.26,-0.2 0.11,-0.37 0.2,-0.22 0,-0.17 0.09,-0.12 0,-0.29 0.14,-0.22 -0.03,-0.17 0.11,-0.07 0,-0.17 0.08,-0.12 0,-0.74 0.09,0.02 0.03,0.1 0.26,0 -0.03,-0.07 0.23,-0.22 0.2,-0.59 0.57,-0.34 0.43,-0.44 0,-0.07 0.46,-0.22 0.09,-0.12 0.17,-0.05 0.17,-0.3 0.23,-0.17 0.03,-0.1 0.06,0 0,-0.2 0.34,-0.27 0.03,-0.1 0.23,-0.22 0.23,-0.42 0.03,-0.25 0.08,-0.15 0.06,-0.96 0.06,-0.07 -0.03,-0.52 0.08,-0.15 -0.06,0 0,-0.17 -0.09,-0.02 0,-0.15 -0.06,-0.02 -0.08,-0.39 -0.09,-0.15 -0.06,-0.84 0.23,-0.32 0.23,-0.74 0.14,-0.2 0.06,-0.3 0.11,-0.17 0,-0.15 0.17,-0.32 -0.03,-0.05 0.11,-0.15 0.14,-0.47 0.28,-0.59 0.2,-1.06 0.09,-0.12 0,-0.37 0.11,-0.32 0.06,-0.02 0,-0.2 0.14,-0.32 0.23,-0.1 0.51,-0.57 0.06,-0.22 0.17,-0.2 0.14,-0.35 0.37,-0.42 0,-0.07 0.88,-0.54 0.11,-0.12 0.11,-0.02 0.03,-0.07 0.17,-0.05 0.4,0 0.14,0.1 -0.51,0.27 0.03,0.07 0.2,-0.02 0.11,0.27 0.71,0.27 0.26,-0.02 0.26,0.07 0.03,0.1 0.05,0 0.43,0.27 0.23,0.07 0.03,0.08 0.11,0.05 -0.03,0.1 0.14,0.22 0.31,0 0.11,0.07 0.09,0.12 -0.09,0.2 0.06,0.02 0,0.1 0.11,0.03 0.06,-0.15 -0.03,-0.25 0.06,-0.07 -0.14,-0.1 -0.09,-0.34 -0.08,-0.08 0.06,-0.42 -0.34,-0.1 0,-0.17 0.09,-0.07 0.28,-0.05 0.68,0.2 0.08,-0.1 0.29,-0.12 0.08,-0.15 0.11,-0.02 0.08,-0.22 0.34,-0.4 0.03,-0.64 0.06,-0.12 0.08,0 0,0.12 0.11,0.05 0.6,0 0.14,0.3 0.28,0.22 0.14,-0.03 0,-0.27 -0.43,-0.12 -0.17,-0.3 -0.57,-0.05 -0.11,-0.1 0,-0.1 -0.08,0 -0.03,0.07 -0.57,0.2 -0.17,0.35 -0.34,0.37 -0.71,0 -0.06,-0.05 0.06,-0.07 -0.03,-0.1 -0.2,-0.05 -0.2,0.05 -0.09,-0.15 -0.23,0 0.03,-0.25 -0.2,-0.17 -0.06,-0.2 0.17,-0.74 0.26,-0.52 0.31,-0.32 0.06,-0.15 0.48,-0.35 0.48,-0.25 0.29,-0.05 0.28,-0.22 0.11,0 0.06,-0.1 0.14,0.02 0.48,-0.15 0.14,-0.2 0.29,-0.2 0.11,-0.15 0.48,-0.05 0.28,-0.2 0.66,0 0.54,0.27 0.26,0.02 0.17,0.2 0.11,0.35 0.28,0.32 0.17,0.07 0.31,0.03 0.11,0.12 0.4,0.05 0.14,0.15 0.03,0.27 0.06,0 0.03,0.07 0.43,0.17 0.11,0.1 0.14,0 0.17,0.15 0.65,-0.07 0.46,0.15 0.23,-0.02 0.34,-0.15 0.23,-0.27 0.28,-0.12 0.46,-0.1 0.71,-0.35 0.23,-0.25 0.11,-0.4 0.43,0.03 0.03,-0.05 0.11,0 0.03,-0.07 0.11,0 0.11,0.1 0.28,0.03 0.03,0.05 0.66,0.05 0.26,-0.15 0.34,-0.1 -0.11,-0.05 -0.43,0.17 -0.43,-0.02 -0.23,0.05 -0.46,-0.47 -0.43,-0.05 -0.2,0.1 -0.14,-0.02 -0.31,-0.35 -0.17,0.1 -0.09,0.17 -0.11,0.02 -0.17,0.17 -0.2,0.05 -0.2,-0.1 0,-0.17 -0.08,-0.08 0,-0.37 0.17,-0.25 0.46,-0.27 0.11,-0.22 0.26,-0.22 0.26,-0.4 0.23,-0.77 0.28,-0.32 0.23,-0.02 0.11,0.07 0.09,0.59 0.14,0.15 0.17,0.07 -0.06,0.25 0.06,0.27 0.34,0.05 0.66,-0.27 -0.17,0 -0.54,0.22 -0.14,0 -0.11,-0.1 0.09,-0.5 -0.11,-0.17 -0.2,-0.05 0,-0.37 -0.06,-0.05 0,-0.12 -0.17,-0.12 0,0 0.21,-1.47 0.75,-1.34 -0.13,-3.2 0.94,0.02 1.91,1.09 1.4,-0.05 1.14,-2.75 2.26,-0.89 0.74,-1.89 1.75,-1.57 0.8,-1.76 2.51,-0.57 1.28,-0.72 2.39,-2.06 0.75,-1.3 z" 
                fill="rgb(151, 144, 238)" 
                stroke="white" 
                stroke-width=".7px"
                title="North West" 
                id="GB-UKD" 
            />
        </svg>