<svg xmlns="http://www.w3.org/2000/svg" viewBox="399.72173999999956 492.38453000000004 97.72999999999979 121.87000000000023" width="97.72999999999979" height="121.87000000000023">
            <path 
                d="m 445.09174,502.91453 0.03,0.08 0.26,0 0.11,-0.18 0.11,-0.02 -0.06,0.3 0.29,0.13 0.11,0 0.17,-0.13 0.26,0 0.03,0.1 -0.2,0.33 -0.03,0.3 -0.06,0.08 0.03,0.65 0.14,0.2 -0.03,0.08 -0.4,-0.13 -0.29,0 -0.11,-0.1 -0.14,0.03 0.03,0.13 -0.37,0.03 -0.23,-0.25 0,-0.65 -0.17,-0.23 -0.2,-0.03 -0.29,-0.18 -0.6,0 -0.28,0.18 -0.11,0.28 -0.34,0.03 -0.34,-0.25 -0.14,-0.4 0.06,-0.3 0.11,-0.08 0.37,0 0.31,0.1 0.26,0.18 0.34,0.08 0.77,-0.05 0.14,-0.15 0,-0.08 0.23,-0.08 0.14,-0.15 0.2,0 -0.11,0.15 z m -11.78,-10.53 0.11,0.11 0.11,0 0.2,0.13 0.11,0.28 0.28,0.33 0.03,0.25 0.11,0.1 0.31,0.1 0,0.18 0.23,0.15 0,0.43 0.31,0.18 0,0.18 -0.09,0.05 0,0.13 0.2,0.15 -0.03,0.25 0.17,0.2 0,0.13 -0.08,0.1 -0.29,0 -0.2,0.13 -0.23,0.05 0,0.2 0.14,0.13 0.17,0 0.03,0.05 0.14,0 0.09,-0.08 0.08,0.03 0.17,0.53 0.43,0.5 0.23,0.18 0.08,0.18 0.09,0.03 0.11,0.35 0.4,0.28 0.09,0.4 0.17,0.23 0.46,0.35 0.14,0.25 0.6,0.63 0.68,0.45 0.14,0.18 0.08,0.28 0.26,0.25 0.4,0.13 0.4,0.35 0.26,0.1 0.08,0.13 0.11,0.05 0.37,0.63 0.11,0.1 0.26,0.5 0.11,0.78 0.4,0.68 0.03,0.38 0.11,0.38 0.14,0.25 0.23,0.23 0.31,0.13 0.31,0.58 -0.06,0.1 0.03,0.18 0.17,0.02 0.34,0.3 0.63,0.23 0.28,0.2 0.29,0 0.37,-0.35 0.4,-1.08 0.06,-0.1 0.09,-0.03 -0.03,-0.25 -0.17,-0.18 0.08,-0.15 0.11,0 0.11,0.13 0.31,1.36 0.91,1.33 -0.03,0.33 -0.29,0.5 -0.17,0.13 -0.51,-0.02 0.03,0.1 0.17,0.03 0.14,0.1 0.09,0.25 0.34,0.55 -0.03,0.13 0.29,-0.08 0.23,-0.3 0,-0.25 0.06,-0.08 0.11,-0.05 0.11,-0.15 0.2,-0.05 0.37,-0.38 0.28,-0.02 0.2,0.13 0.29,-0.02 0.11,0.08 0.17,0 0.06,0.05 0.03,0.33 1.02,0.38 0.23,0.17 0.14,0.03 0.23,0.4 0.43,0.4 0.03,0.15 0.26,0.15 0.43,0.75 0.17,0.1 0.6,0.15 0.08,0.1 0.17,0.03 0.03,0.1 0.11,0 0.23,0.18 0,0.13 -0.06,0.05 -0.06,0.05 -0.2,0 -0.06,0.1 0.06,0.4 0.17,0.38 0.31,0.3 0.14,0.38 0.23,0.2 0.06,0.25 0.17,0.07 0,0.1 0.29,0 -0.23,0.2 -0.14,0 -0.09,-0.15 -0.14,0 -0.11,0.08 -0.2,0.78 -0.14,0.18 0,0.18 0.17,0.03 0.06,0.2 0.09,0.08 0.03,0.23 0.17,0.17 0.06,0.15 0.31,0.2 0.17,0 -0.09,0.15 0.03,0.2 0.46,0.08 0.03,0.08 -0.4,0.58 0,0.2 0.11,0.17 0.09,0.03 0,0.28 -0.11,0.28 0,0.38 0.06,0.15 0.34,0.33 0.37,0 0.23,0.25 0.2,0 0.06,0.1 0,0.53 -0.09,0.05 0.11,0.48 -0.06,0.33 0.03,0.6 0.14,0.2 0.06,0.22 0,0.25 -0.11,0.05 -0.03,0.2 -0.06,0.05 0,0.23 0.2,0.23 0.08,0.35 -0.03,0.2 -0.17,0.23 -0.03,0.17 -0.08,0.1 0,0.18 0.26,0.45 0.17,0.05 0.28,0.22 0.03,0.4 -0.09,0.18 -0.03,0.35 -0.06,0.17 -0.06,0.03 0.03,0.38 0.14,0.35 0,0.33 -0.14,0.13 -0.23,-0.03 -0.23,0.15 -0.2,0.4 -0.14,0.55 -0.23,0.08 -0.26,0.23 -0.17,0.22 0.03,0.17 -0.09,0.08 -0.11,0 -0.11,-0.13 -0.28,-0.15 0.2,-0.1 -0.03,-0.08 -0.26,0.03 -0.03,0.13 0.14,0.15 0.14,0.05 0,0.17 0.17,0.38 0.08,-0.05 -0.03,-0.35 0.23,-0.02 0.06,0.6 0.06,0.08 0,0.2 0.06,0.05 0.03,0.45 0.17,0.55 0.03,0.3 0.14,0.2 0,0.15 0.34,0.72 0.51,0.8 0,0.05 -0.06,0 -0.4,-0.18 -0.17,0.1 0,0.05 0.23,0.15 0.31,0.08 0.26,0 0.14,-0.08 0.03,0.1 0.14,0 0.03,-0.08 0.09,0 0.06,0.2 0.31,0.5 0.37,0.25 0.26,0.38 0.03,0.97 -0.06,0.13 -0.17,0.07 -0.23,0.25 0,0.1 -0.29,0.65 -0.06,0.03 -0.26,0.67 -0.06,1.35 0.6,2.04 0.2,0.32 0.14,0.37 0.31,0.47 0.4,0.25 0.31,0.3 0.23,0.62 -0.03,0.65 0.11,0.32 0.54,0.97 0.29,0.35 0.03,0.12 0.4,0.2 0,0.15 -0.08,0.15 0,0.32 0.17,0.3 0.08,0.05 -0.06,0.15 -0.17,0.05 -0.06,-0.07 -0.14,0 -0.26,0.2 -0.08,0.17 0,0.37 0.08,0.17 -0.37,0.42 -0.26,0.67 -0.4,-0.05 -0.2,0.1 -0.23,0.03 -0.51,-0.22 -0.51,-0.03 -0.08,-0.05 -0.09,0 0,0.05 0.26,0.2 0.37,-0.05 0.06,0.05 0.31,0.03 0.17,0.1 0.6,-0.05 0.26,0.22 0.11,0.7 0.17,0.5 0.71,1.09 0.43,0.4 0.11,0.32 0.17,0.25 -0.03,0.15 -0.11,-0.25 -0.08,0 0,0.1 0.14,0.17 0.03,0.15 -0.14,0.1 -0.17,0.52 0.09,0.7 0.17,0.4 0.06,0.03 0.26,0.55 0.43,0.6 0.14,0.12 0.29,-0.02 0.11,0.07 -0.03,0.37 0.29,0.07 0.06,0.1 0,0.27 0.09,0.12 0.2,0.1 0.03,0.27 0.2,0 0.06,0.05 0,0.27 -0.17,0.12 0.17,0.87 0.51,0.92 0.37,0.3 0.23,0.1 -0.03,0.1 0.14,0.12 -0.14,0.45 0.08,0.3 0.11,0.17 0.03,0.35 0.14,0.1 0.17,0 0.03,0.4 0.23,0 0,0.07 0.11,0.1 0.17,0 0.31,0.15 0,0.05 -0.06,0 -0.28,-0.07 -0.09,-0.07 -0.17,0 -0.08,0.17 -0.09,0.05 -0.54,0 -0.11,0.37 0.06,0.15 0.23,0 0.06,0.27 0.14,0.15 0.11,0.02 0.06,-0.12 0.14,-0.05 0.23,-0.32 0.2,-0.05 -0.43,0.45 0.09,0.37 0.11,0.03 0.03,0.12 0.11,0.05 0.03,0.12 0.14,0.07 0,0.07 0.28,0.05 0.09,0.15 0.26,0.02 0.03,0.2 0.06,0.05 0.2,0 0,0.05 0.11,0.03 0.09,0.1 0.2,0.03 0.06,0.2 -0.06,0.05 -0.03,0.35 0.2,0.22 0.14,0 0.43,0.4 0.34,0.1 0,0.35 0.11,0.07 0.06,0.15 0.06,0 -0.06,0.05 0.03,0.32 0.14,0.45 -0.08,0.05 -0.09,0.22 -0.03,0.45 -0.11,0.05 0,0.1 -0.09,0.1 -0.2,0.12 -0.2,0.74 0.06,0.32 0.11,0.05 0.06,0.17 -0.17,0.1 0.09,0.27 -0.03,0.22 0.48,0 0.29,0.17 -0.09,0.02 -0.31,-0.15 -0.31,0.03 0.17,0.37 -0.03,0.1 0.06,-0.02 0.06,0.12 0,0.15 0.23,-0.07 0.14,-0.35 0.09,-0.02 -0.14,0.37 -0.2,0.17 0.06,0.17 0.14,0.07 0,0.17 0.14,0.15 0,0.12 -0.09,0.15 -0.17,0.1 -0.06,0.15 -0.14,0.1 -0.06,0.22 0.06,0.05 0.03,0.32 -0.06,0.02 0.03,0.07 -0.06,0.1 0.14,0.32 -0.03,0.07 0.11,0.1 -0.06,0.05 0,0.15 0.11,0.05 0.08,0.17 -0.08,0.25 0.06,0.12 -0.06,0.07 0.03,0.25 0.11,0.15 0.11,0.42 0.08,0.05 0.09,0.17 -0.03,0.39 0.03,0.12 0.06,0.02 0.03,0.3 0.09,0.2 0.14,0.1 0,0.12 -0.03,-0.05 0.23,0.12 -0.06,0.1 0.2,0.22 0,0.1 0.06,0.05 0.2,-0.02 0.09,0.12 0,0.15 0.08,0.05 -0.03,0.05 0.14,0.12 0,0.12 0.06,0.02 -0.06,0.32 0.08,0.15 0.03,0.34 0.08,0.1 0.11,0.02 0.03,0.07 -0.11,0.39 0.11,0.3 0.08,0.07 0,0.1 0.2,0.15 0,0.15 0.09,0.12 -0.03,0.32 0.06,0.07 0,0.34 -0.06,0.1 0.14,0.07 0,0.22 -0.06,0.02 -0.03,0.25 0,0.39 0.06,0.17 0.09,0.05 0,0.22 -0.09,0.22 0.14,0.15 0,0.25 0.08,0.07 0.06,0.25 0.08,0.07 0.03,0.2 0.11,0.12 -0.03,0.07 0.17,0.27 0,0.15 0.26,0.15 0.03,0.15 0.11,0.1 0,0.12 0.11,0.05 0.03,0.12 0.37,0.29 -0.03,0.07 0.09,0.05 0.11,0.25 0.34,0.2 0.06,0.2 0.08,0.05 0,0.15 0.14,0.12 0.03,0.2 0.37,0.37 -0.03,0.12 0.11,0.02 0.06,0.2 0.2,0.17 0.06,0.17 0.37,0.39 0.03,0.1 0.71,0.62 0.17,0.02 0.2,0.12 0.06,0.1 0.26,0.1 0.31,0.25 0.31,0.1 0.08,0.1 0.11,0 0.46,0.32 0.37,0.1 0.23,0.27 -0.03,0.2 -0.11,0.15 -0.34,0.02 -0.03,-0.07 0.06,-0.05 -0.23,-0.07 -0.06,-0.29 -0.11,-0.07 -0.08,0.03 -0.03,0.1 0.09,0.02 0.06,0.17 0.11,0.12 -0.06,0.03 0,0.12 -0.34,0.1 0.03,0.2 0.14,0.07 0.06,0.1 -0.14,0.17 -0.14,0.07 0,0.42 0.06,0.07 0,0.15 0.08,0.05 0,0.15 0.23,0.25 0.08,0.34 0.14,0.2 -0.03,0.2 0.14,0.25 0,0.17 0.17,0.05 0,0.29 0.11,0.05 0.08,0.15 0.09,0 0.2,0.32 0.14,0.07 0.14,-0.05 0.11,0.2 0.26,-0.05 -0.08,0.17 -0.31,-0.03 -0.08,0.05 0,0.74 0.37,0.07 0.03,0.12 -0.2,0.29 -0.11,-0.02 0,-0.1 0.09,0 0.06,-0.12 -0.17,-0.2 -0.08,0 -0.14,0.2 0.11,0.1 0,0.07 -0.68,-0.02 -0.26,0.05 -0.06,0.12 -0.14,0.1 0,0.1 -0.06,-0.02 -0.11,0.07 -0.06,0.22 -0.14,0.1 -0.03,0.2 -0.06,0.05 1.51,0.05 0.23,-0.37 0,-0.07 -0.08,-0.03 0,-0.27 0.23,0.07 0,0.37 -0.11,0.07 0,0.07 -0.17,0.1 0.11,0.12 0.28,-0.32 0.03,-0.12 0.37,0.02 0.06,-0.05 0.06,-0.25 0.43,0.07 0.17,-0.02 0.09,-0.07 0.08,0.1 0.09,-0.1 0.03,-0.2 -0.31,-0.22 -0.06,-0.39 0.06,-0.05 0,-0.59 0.06,-0.02 0.06,-0.17 0.11,-0.05 -0.11,0.44 0,0.34 0.63,0.44 0.2,0.37 0.88,0.52 0.68,0.22 0.11,0.1 0.6,0.02 0.26,-0.07 0.37,0.2 0.28,0.02 0.09,0.1 0.31,0.07 0.06,0.22 0.23,0.22 0.06,0.25 0.09,-0.02 0.08,0.1 0.09,-0.02 0.03,0.12 0.31,0.15 0.31,0.29 0.74,0.42 0.48,0.2 0.08,0.1 0.2,0 0.09,0.07 0.4,0.1 0.97,0.44 0.37,-0.02 0.2,0.1 0.14,0 0.08,-0.1 0.23,0.02 0.34,-0.22 0.23,0 0.31,0.17 0.37,0.02 0.09,0.1 0.23,0.1 0.14,0.17 0.03,0.15 0.83,0.64 0.06,0.17 0.23,0 0.03,0.05 0.23,-0.05 0.31,0.03 0.28,0.15 0.34,0 0.51,-0.17 0.6,0.05 0.88,0.39 0.2,0.15 0.2,0.27 0.23,0.02 0.4,0.2 0.11,0 0.06,0.07 0.31,0 0.11,-0.07 0.26,0.02 0.2,-0.07 0.08,0.12 0.37,-0.02 0.09,0.12 0.13,0.05 0,0 -0.49,0.89 -1.35,0.59 -0.75,0.93 -0.43,1.25 -0.03,2.52 -2.18,-0.76 -2.65,0.81 -1.17,-0.95 -1.07,-0.22 -2.72,0.66 -2.32,-1.1 -2.04,0.61 -4.48,-0.69 -1.71,0.54 -0.68,1.08 -4.01,2.22 -0.34,-0.46 -1.47,0 -0.4,-1.88 -0.63,-0.41 -0.31,0.41 -1.04,-0.32 -0.43,1.29 -0.78,-0.3 -0.21,-0.83 -0.55,-0.64 -0.64,-0.07 -0.38,0.39 0.01,1 1.05,2.79 -0.16,0.59 -0.57,0.24 -0.61,-0.56 -0.63,-2.03 -0.54,-0.68 -1.57,-0.17 0.27,1.25 -0.63,0.12 -2.32,-2.15 -0.67,-1.66 -0.48,-0.34 -1.52,0.37 -0.27,-0.12 -0.36,-1.2 -1.03,-0.66 -2.63,-0.08 -0.57,0.59 -1.24,-0.49 -0.93,0.17 -0.01,1.3 -0.63,1.13 -0.4,1.71 -1.91,-1.86 -0.58,-0.15 -0.71,0.98 -0.06,1.13 -4.08,2.27 -1.31,0.02 -2.61,-1.59 -1.98,-0.63 -2.76,1.01 -2.01,1.61 -0.83,-0.53 0,0 0.25,-1.53 -0.4,-1.1 -0.26,-3.74 -1.47,-0.29 -0.91,-1.84 -3.89,-3.16 -0.57,-1.32 -0.47,-2.18 1,-1.1 0.36,-0.88 -0.07,-0.66 -0.53,-0.71 -2.76,-1.45 -0.47,-0.76 1.37,-3.25 1.14,-4.94 -2.92,-2.44 -1.95,-3.23 -0.63,0.15 -0.95,1.11 -3.54,2.47 -1.72,-0.25 -1.54,-1.38 -0.34,-1.13 0.36,-0.94 -0.16,-1.01 -1.08,-1.31 -0.31,-0.86 1.2,-0.91 0.56,-2.03 0.91,-0.64 -0.8,-1.29 -0.4,-1.81 -1.38,-0.79 1.24,-1.73 0.04,-1.76 0.36,-0.54 4,-2.43 -0.65,-1.69 0.17,-0.65 -0.23,-0.59 0.54,-0.67 -1.03,-0.67 -2.15,0.62 -0.4,-0.84 -1.67,-1.22 -0.53,-1.84 -2.21,-0.77 -0.68,-0.99 -1.2,-3.8 -0.42,-0.49 0,0 1.33,-2.24 1.72,-0.62 0.4,-1.87 -0.63,-0.97 0.11,-0.95 2.99,-2.39 0.91,-2.09 1.51,-0.9 1.34,-1.75 1.72,-1.45 1.81,-0.52 1.31,0.5 0.88,1.55 1.81,-1.85 0.41,-1.85 0.56,-1.17 1.88,-0.42 1.07,-1.5 2.93,-0.5 1.72,-3.03 -0.21,-0.95 -1.4,-1.88 -0.16,-1.73 -2.09,-3.61 -1.05,-3.64 -1.18,-1.36 0.1,-0.83 -1.35,-0.75 -0.26,-1.66 4.73,-1.03 0.95,-1.18 1.32,-2.59 0.87,-0.81 0.24,-1.51 1.75,-1.59 1.11,-0.48 1.44,-1.5 0.42,-3.27 2.58,-0.98 z" 
                fill="rgb(151, 144, 238)" 
                stroke="white" 
                stroke-width=".7px"
                title="North East" 
                id="GB-UKC" 
            />
        </svg>