<svg xmlns="http://www.w3.org/2000/svg" viewBox="437.27174000000275 806.7845299999983 174.33999999999685 132.5400000000019" width="174.33999999999685" height="132.5400000000019">
            <path 
                d="m 470.55174,923.72453 0.31,0.16 0.06,0.18 0.11,0.09 0,0.13 0.09,0.11 -0.06,0.38 0.03,0.45 0.08,0.07 0.06,0.34 0.11,0.07 -0.03,0.31 0.11,0.07 0.09,0.16 0,0.2 0.14,0.27 0,0.13 -0.09,0.11 0.03,0.16 -0.06,0.31 -0.14,0.22 0,0.2 -0.06,0.02 -0.08,0.25 0.03,0.16 0.06,-0.02 0,-0.13 0.11,-0.18 0.03,-0.29 0.2,-0.34 0,-0.16 0.14,-0.09 0.03,-0.4 -0.14,-0.13 -0.09,0 0,-0.34 -0.2,-0.18 0,-0.34 -0.14,-0.13 -0.03,-0.31 -0.06,-0.02 -0.06,-0.22 0.06,-0.34 -0.03,-0.31 0.11,-0.09 0,-0.11 0.2,-0.16 0.4,-0.18 0.11,0 0.54,0.25 0,0.09 0.29,0.22 0.11,0.18 0.03,0.22 0.48,0.22 0.09,0.22 0.2,0.18 0.14,0.27 0.4,0.02 0.26,0.18 0.08,0 0.09,0.11 0.43,0.07 0.06,0.16 -0.14,0.18 0.6,-0.02 0.14,0.07 0.26,0 0.14,0.11 0.54,-0.04 0.23,-0.09 0.48,0.11 0.26,-0.02 0.14,-0.02 0,-0.18 -0.14,-0.11 0.08,-0.04 0,-0.16 0.17,-0.02 -0.03,0.45 0.06,0.07 0.26,0 0.08,0.18 0.17,0 0.09,0.11 0.14,0.02 0.14,0.16 0.2,0.09 0.37,-0.04 0.03,0.07 0.29,0.11 0.06,0.09 0.43,0.16 0.26,0 0.14,0.11 -0.03,0.18 0.09,0.09 0.06,0.31 0.14,0.07 0.03,0.36 0.23,0.18 0,0.27 -0.08,0.09 0,0.29 0.06,0 0.06,0.11 0,0.2 -0.2,-0.02 -0.08,-0.09 0.03,-0.09 -0.14,0.07 -0.11,-0.07 0.03,0.25 0.28,0.11 0.06,0.09 0.14,0 0,-0.07 0.11,-0.07 0,-0.09 0.06,0 -0.06,-0.2 0.09,-0.02 0.63,0.22 0.34,0.27 0.11,0.18 0.06,0 0.06,0.13 -0.03,0.29 -0.74,0.43 -0.09,0.09 -0.03,0.18 -0.2,0.04 -0.31,0.25 0,0.18 0.11,0.07 0,0.09 -0.14,0.09 -0.06,0.11 -0.46,-0.11 -0.29,0 -0.34,0.04 -0.31,0.09 -0.06,0.07 -0.11,-0.02 -0.23,0.09 -0.31,0.16 -0.68,0.49 -0.06,0.13 0.08,0.02 0,0.11 -0.23,-0.04 -0.34,0.36 -0.23,0.45 0.03,0.11 -0.06,-0.02 -0.06,0.38 0.03,0.18 -0.14,0.25 0,0.18 -0.06,0.04 -0.11,0.42 0.11,0.4 0.06,0.04 0,0.16 -0.23,0.29 0.11,0.33 -0.23,0.4 -0.03,0.16 -0.31,0.27 -0.08,-0.02 -0.37,0.11 -0.17,0.16 -0.11,0 -0.11,0.09 -0.23,0.02 -0.17,-0.07 -0.11,0.13 -0.48,0.18 0,0.07 -0.11,0 -0.31,0.16 -0.31,0.04 -0.03,0.09 -0.11,0.02 -0.17,0.18 -0.26,0.02 -0.14,0.13 -0.14,-0.04 -0.09,0.09 -0.26,0.07 -0.68,-0.04 -0.11,0.09 -0.17,-0.02 -0.03,0.09 -0.17,0.04 -0.23,-0.04 -0.23,0.16 -0.46,0.07 -0.51,-0.27 0,-0.18 -0.14,-0.22 0,-0.09 -0.23,-0.18 0,-0.09 -0.11,-0.09 0,-0.07 -0.43,-0.33 -0.57,-0.6 -0.31,-0.25 -0.2,-0.07 -0.31,-0.27 -0.46,-0.11 -0.31,-0.49 -0.29,-0.18 -0.06,-0.11 -0.31,-0.22 -0.11,-0.18 -0.31,-0.25 -0.4,-0.11 -0.23,-0.22 -0.17,-0.04 -0.17,-0.16 -0.23,-0.02 -0.06,-0.07 -0.11,0 -0.31,-0.16 -0.2,-0.02 -0.46,-0.27 -0.43,-0.07 -0.57,-0.45 -0.17,-0.29 -0.2,-0.11 -0.17,-0.02 -0.08,-0.22 -0.17,-0.2 -0.08,-0.02 -0.06,-0.16 -0.17,-0.09 -0.03,-0.11 -0.2,-0.11 -0.06,-0.13 -0.11,-0.07 -0.54,-0.13 -0.63,0 -0.11,-0.13 -0.08,0 -0.09,0.16 -0.8,0.07 0,0.04 -0.28,0.04 -0.14,0.09 -0.26,-0.04 -0.43,0.13 -0.03,0.07 -0.46,0 -0.03,0.11 -0.34,0.09 -0.17,0.13 -0.46,-0.04 -0.08,-0.13 -0.2,-0.13 -0.43,0.04 0.03,-0.09 0.17,0 0.08,-0.07 0.31,0 0.63,-0.16 0.03,-0.07 -0.08,-0.34 0.03,-0.25 0.37,-0.2 0.77,-0.2 0.14,-0.27 0.11,-0.52 0.23,-0.11 0.23,-0.36 0.03,-0.16 -0.06,-0.04 -0.06,-0.29 0.23,-0.16 0.06,-0.11 0.23,-0.11 0.11,-0.2 0.43,0.02 0.26,0.11 0.14,0 0.2,-0.11 0.91,0.02 0.23,-0.13 0.6,-0.11 0.71,-0.58 0.31,-0.18 0.2,-0.04 0.2,-0.22 0.26,-0.04 0.37,-0.25 0.2,-0.04 0.31,0.11 0.34,0.02 0,0.18 -0.06,0.02 0.06,0.13 -0.08,0.09 0.08,0.02 0.03,0.09 -0.14,0.18 0.03,0.07 0.2,0 0.06,-0.27 0.14,0 0.11,-0.18 0.23,0.27 0.29,0.09 0.03,-0.04 -0.14,-0.07 0,-0.09 0.11,-0.13 0.03,-0.13 -0.4,-0.13 0.06,-0.09 0.14,-0.04 -0.26,0.02 -0.11,-0.04 -0.08,0.04 0,0.13 -0.06,0.04 -0.08,-0.02 0,-0.18 0.2,-0.07 0.11,-0.11 0.63,-0.22 0.11,-0.11 0.29,-0.02 0.17,-0.13 0.57,-0.18 0.29,-0.16 0.26,0.02 0.2,-0.07 0.11,-0.18 0.23,-0.18 0.11,-0.63 0.29,-0.22 0.08,-0.13 0.46,-0.18 0.23,-0.25 0,-0.2 0.08,-0.11 0.43,-0.22 0.5,0 z m 20.61,-4.38 0.11,0.09 0.06,0.18 0,0.27 -0.11,0.11 -0.11,0.02 -0.03,-0.63 0.08,-0.04 z m -3.56,-1.3 0.17,0.16 -0.03,0.07 0.26,0.13 0.08,0.18 0.17,-0.02 0.31,0.25 -0.03,0.16 0.06,0.04 0.06,0.36 0.06,0.04 -0.06,0.22 0.11,0.34 -0.08,0.04 0.11,0.18 0.09,0.63 -0.2,0.11 -0.29,-0.18 -0.23,-0.25 0.03,-0.18 -0.11,-0.09 -0.28,0.02 0,0.04 0.28,0 0.06,0.13 -0.26,0.2 -0.14,-0.02 0,0.25 0.2,-0.04 0.03,-0.18 0.2,0 0.37,0.27 0.14,0.16 0.03,0.13 0.2,0.13 -0.14,0.16 -0.08,-0.07 -0.34,-0.02 0.08,0.07 0.17,0 0.06,0.04 0,0.11 -0.06,0.04 -0.14,-0.04 0,0.11 -0.06,0 0.03,0.09 -0.26,0.02 -0.03,0.07 0.65,0 0.09,0.13 0,0.13 -0.03,0.04 -0.23,0 0,0.07 0.09,0 0,0.04 -0.17,0.07 -0.26,-0.02 -0.03,0.09 0.06,0 0,0.09 0.08,0 0,-0.11 0.31,-0.02 0.08,-0.13 0.11,0 0.11,-0.18 0.17,0.13 0.06,0.16 0.11,0.02 0.06,0.09 0,0.25 -0.11,0.18 -0.11,-0.02 -0.17,0.11 -0.14,0 -1.59,-0.52 -1.25,-0.13 -0.2,-0.09 -0.71,0.02 -0.23,-0.11 -0.03,-0.07 0,-0.38 -0.08,-0.11 0,-0.27 0.31,0.04 -0.06,0.11 0.06,0.11 0.06,-0.02 0,-0.11 0.37,0.07 0.4,-0.02 0.14,-0.11 0.09,0 0.03,-0.11 0.14,-0.07 0.14,-0.29 0.14,-0.11 0.03,-0.67 0.14,-0.11 0,-0.36 0.14,-0.22 0,-0.09 -0.37,-0.29 0,-0.11 0.09,-0.18 0.34,-0.2 0,-0.09 0.2,0.07 0.06,-0.04 -0.06,-0.13 0.17,0 0.34,-0.13 -0.17,-0.18 0.09,-0.08 z m 87.97,-49.76 0.03,0.09 0.23,0.18 0.26,0.11 0.23,0.02 0.11,0.14 0.2,0.07 0.26,0.02 0.11,0.07 0.31,-0.07 0.54,0.09 0.6,0.41 0.23,0.23 0.23,0.09 0.43,0.34 0.26,0.09 0.34,-0.02 0.4,0.11 0.17,-0.02 0.68,0.16 0.23,0 0.43,0.16 0.63,-0.07 0.26,0.05 0.43,0.23 0.43,0.11 0,0.09 0.11,0.04 0.08,0.27 0.23,0.3 0.03,0.18 0.14,0.11 0.09,0 0.08,0.18 0.11,0.05 0.11,0.16 0.11,0.02 0.4,0.36 0.09,0.16 0.23,0.16 0.23,0.48 0.03,0.2 0.14,0.16 0.08,0.36 0.17,0.18 -0.06,0.34 -0.17,0.11 0,0.21 -0.08,0.02 -0.34,-0.16 -0.29,0.23 0,0.07 -0.08,0.02 -0.09,0.21 -0.43,0.34 -0.46,0.18 -0.17,0 0,0.04 -0.68,0.07 -0.28,-0.07 -0.17,-0.14 -0.2,-0.05 -0.14,-0.14 -0.31,-0.07 -0.34,-0.21 -0.57,-0.09 -0.14,-0.11 -0.23,0.09 -0.54,0 -0.08,-0.09 -0.68,-0.25 -0.08,-0.11 -0.23,0.05 -0.09,-0.11 -0.2,0.02 -0.14,-0.07 -0.14,0.11 -0.23,-0.05 0,0.05 -0.14,0.05 -0.14,-0.14 -0.2,-0.04 -0.09,-0.21 -0.11,0.02 0,0.11 -0.09,0.11 -0.2,0.11 -0.11,0 -0.09,0.09 -0.31,-0.02 -0.08,-0.16 -0.23,0 -0.06,-0.07 -0.03,-0.3 0.09,-0.27 0.14,-0.11 -0.06,-0.41 -0.11,-0.07 -0.06,-0.14 -0.08,0 -0.03,-0.09 -0.17,0.02 -0.2,-0.09 -0.14,-0.18 -0.03,-0.2 -0.26,-0.14 -0.03,-0.09 -0.08,-0.02 -0.17,-0.2 -0.34,-0.05 -0.17,-0.11 -0.17,-0.41 0,-0.25 -0.23,-0.36 -0.08,-0.02 0,-0.07 0.08,0 0.06,0.11 0.11,-0.04 0.06,0.09 0.17,0.02 0.03,0.05 -0.06,0.02 -0.17,0 0.23,0.18 0.46,-0.11 0.11,-0.16 0,-0.16 -0.14,-0.07 0.03,-0.18 -0.06,0 0,-0.16 -0.14,-0.11 0.03,-0.18 -0.09,-0.05 0,-0.23 0.11,-0.34 0,-0.18 0.09,-0.09 0,-0.39 0.2,-0.36 -0.06,-0.34 0.16,-0.1 z m -71.76,-61.5 1.7,1.47 -0.53,2.37 2.23,2.37 0.74,1.78 -2.29,1.87 -0.19,0.21 0.36,0.74 -1.28,0.58 -0.94,1.41 1.04,0.16 0.41,0.72 -0.23,1.98 -1.01,1.36 0.64,2.17 -1.47,2.14 -0.91,2.76 1.38,0.53 1.82,1.66 1.15,-0.3 2.15,2.09 0.53,1.31 0.85,0.99 0.03,0.62 -0.94,-0.18 -1.41,1.68 -1.76,-0.69 -2.05,-0.14 -1.15,-1.47 0.24,-0.62 -0.14,-0.53 -1.38,-0.55 -0.6,0.12 -0.87,1.7 1.04,1.54 0.67,0.09 0.94,1.01 0.26,0.8 -0.01,1.38 0.6,0.89 1.57,0.8 2.18,-0.02 1.24,1.4 1.2,-0.57 0.75,0.34 0.16,0.55 -1.27,0.99 -0.13,0.64 0.58,1.24 0.11,1.53 1.57,-0.34 0.5,0.3 -0.06,0.64 -1.32,2.2 -0.09,1.33 0.36,1.42 1.29,1.38 0,0 1.13,3.37 -0.67,4.56 -0.65,1.36 1.21,1.56 1.65,0.41 0.06,1.3 0.44,0.64 1.61,0.43 1.3,1.47 1.62,1.05 0.9,0.04 0.72,0.1 0.7,1.8 -0.87,1.91 0.14,1.89 0.97,-0.39 1.28,-2.68 1.3,-0.98 1.28,1.68 -0.07,2.02 1.58,-0.93 0.53,0.05 1.39,2.95 1.18,1.14 1.34,-0.29 0.88,-1.5 0.98,-0.43 0.97,0.07 1.02,-1.25 1.37,0.11 0.84,0.89 0.31,2.36 1.32,-0.43 0.31,0.41 0.74,0.61 1.28,-0.48 0.14,-1.86 1.2,-1.07 0.57,-1.39 1.24,-1.11 0.71,-2.77 -0.43,-2.34 1.04,-1.68 1.55,-1.57 0.63,-1.34 0,0 2.15,1.37 2.39,-0.73 1.5,1.57 1.27,0.25 1.06,-0.42 1.4,-0.13 0,0 0.17,0.47 0.06,0 0.08,-0.09 0.31,-0.05 0.14,-0.09 0.57,-0.05 0.08,-0.18 0.14,-0.02 0.11,-0.14 0.23,0.02 0.34,-0.21 0,-0.21 -0.06,-0.05 0.06,-0.16 -0.14,-0.16 0,-0.11 -0.06,-0.02 0.03,-0.11 -0.06,-0.07 0.2,-0.09 0.17,0.09 0.34,0 -0.03,-0.09 -0.23,0.02 -0.23,-0.07 0.08,-0.37 0.17,-0.09 -0.11,-0.18 0.2,-0.34 0.11,-0.07 -0.03,-0.09 0.06,-0.02 0.03,-0.16 0.68,-0.39 0.37,-0.02 0.6,0.16 0.09,-0.05 0.43,0.07 0.28,-0.02 0.34,0.11 0.26,-0.02 0.23,-0.09 0.31,0 0.51,-0.14 0.03,0.07 0.31,0.16 -0.06,0.23 0.2,-0.05 0.03,-0.16 0.06,-0.02 0.6,0 0.28,0.04 0.17,0.3 0.23,0 0.11,-0.32 0.17,0.11 0.17,0 0.17,0.09 0.63,0.14 0.03,0.07 0.14,0.05 0,0.14 0.11,0.16 0.4,-0.04 0.14,-0.11 0.23,-0.07 0.85,-0.07 0.11,0.16 0.65,-0.07 0.09,0.18 0.37,0.02 0,0.11 0.11,0.18 0.23,-0.11 0.06,-0.11 0.23,0 0.08,-0.07 0.48,0.14 0.08,0.09 0.31,-0.02 0.37,0.34 0.29,0.39 0.26,0.21 0.23,0.55 -0.03,0.46 0.11,0.14 0,0.11 -0.09,0.11 0.03,0.11 -0.26,0.43 -0.11,0.04 -0.06,0.11 -0.2,0.09 -0.17,-0.02 -0.14,0.14 -0.2,0.04 -0.28,-0.04 -0.17,0.02 -0.03,0.07 -0.26,-0.05 -0.63,0.05 -0.03,-0.11 -0.11,-0.02 0,-0.04 0.2,-0.16 -0.03,-0.2 -0.23,-0.07 -0.03,-0.18 -0.09,-0.11 -0.28,-0.02 0.06,-0.18 -0.08,-0.14 -0.09,-0.02 0.06,-0.07 -0.11,0.02 -0.17,-0.07 -0.08,0.05 -0.06,0.18 -0.11,0.04 -0.06,0.16 0.17,-0.05 0.2,0.16 0,0.14 0.2,0.34 -0.26,-0.07 -0.17,0.05 -0.17,0.18 -0.2,-0.04 -0.08,-0.09 0.06,-0.07 0,-0.3 -0.17,-0.09 -0.06,0 0,0.09 0.08,0 0.06,0.16 -0.06,0.16 -0.28,-0.02 -0.06,-0.07 0.06,-0.18 -0.09,0 -0.11,0.18 -0.46,0.09 0.06,0.07 -0.03,0.11 -0.26,0 0,0.23 0.14,-0.02 0,0.18 -0.2,-0.02 -0.23,0.11 0,0.11 -0.17,0.25 0,0.11 0.11,-0.04 0.28,-0.43 0.37,0.18 -0.06,0.23 -0.2,0.2 -0.4,0.16 0,0.09 -0.11,0.11 -0.26,0.07 0,0.46 -0.28,-0.02 0,-0.04 0.2,-0.02 -0.03,-0.32 -0.2,0.02 -0.06,-0.07 -0.08,0 -0.2,0.14 -0.2,-0.04 -0.06,-0.07 -0.31,0 -0.08,0.07 -0.17,-0.05 -0.2,0.22 -0.17,-0.02 -0.06,0.18 -0.03,-0.11 -0.06,0 -0.06,0.14 -0.11,0 0.03,0.11 -0.2,-0.09 -0.11,0.07 -0.17,-0.23 -0.46,0.04 -0.34,-0.14 -0.2,0 -0.17,0.16 -0.11,0.02 0,0.09 0.2,0.09 0.14,-0.11 0.2,0.02 0.31,0.11 0.2,0.18 -0.03,0.16 0.11,0.05 0,0.23 0.09,0.04 0,0.09 0.08,0.07 0.34,0.02 0,0.18 0.11,0 0.06,0.11 0.11,0 0.14,0.16 0.23,-0.02 0.11,0.18 0.4,0.07 0.11,-0.07 0.28,0.02 0.17,0.16 0.11,-0.09 0.11,0.07 0.06,-0.14 0.06,0 0.03,0.14 -0.14,0.05 -0.03,0.07 0.17,0.04 -0.03,0.11 0.06,0.02 0.09,-0.05 0.17,0.02 -0.03,0.14 -0.14,0.07 0,0.14 0.34,0.14 0.06,0.09 0.28,-0.05 0,-0.07 -0.11,-0.05 0.03,-0.07 0.17,0.02 0.09,-0.07 -0.06,-0.09 0.03,-0.3 -0.17,-0.07 0,-0.07 0.09,-0.05 0.23,0 0.17,0.07 0.37,-0.05 0.06,0.05 -0.06,0.23 -0.06,0.07 -0.23,0.07 -0.06,0.14 -0.17,0.11 -0.08,0.25 0.11,0.14 0.11,0 0.06,-0.36 0.09,-0.05 0,-0.07 0.34,-0.14 0,-0.14 0.08,-0.14 0.11,-0.02 -0.06,-0.14 0.09,-0.14 -0.06,-0.27 0.03,-0.14 0.43,-0.14 0.06,0.11 0.11,0 0.11,0.16 0.26,0.11 -0.03,0.14 0.06,0 -0.03,0.11 0.06,0.18 0.17,0.14 0,0.11 0.14,-0.02 0.03,0.05 0,0.21 -0.09,0.16 0.34,0.16 -0.08,0.11 0.17,0 0.11,-0.11 0,-0.11 0.31,-0.14 0,-0.41 0.11,-0.36 0.11,-0.16 0.4,-0.04 0.14,-0.11 0.17,0.02 0.14,0.11 -0.06,0.18 -0.14,0.02 -0.09,0.27 -0.08,0.02 0,0.07 -0.09,0 0,0.07 0.09,0.02 0,0.14 0.06,0 0.03,-0.11 0.09,0 0,-0.07 0.23,0.14 0.26,-0.09 0.11,0.05 0.03,-0.09 0.09,0 0.11,-0.11 -0.06,-0.14 0.23,-0.07 0,-0.07 -0.2,-0.09 -0.28,0.07 0,-0.09 0.11,-0.04 0,-0.11 -0.06,0.07 -0.09,0 -0.06,-0.16 -0.28,-0.11 -0.09,-0.27 -0.08,-0.07 -0.17,-0.46 0,-0.16 0.14,-0.27 -0.11,-0.77 0.11,-0.16 0.26,0.11 0.34,0.02 0.06,-0.04 0.31,0 0.2,-0.11 0.11,0 0.11,-0.11 0.11,0 0.06,0.07 -0.03,0.18 0.17,0.14 0.03,0.27 -0.17,0.02 -0.23,-0.18 -0.26,0.05 -0.14,0.34 0.37,0.57 0.06,0.39 0.08,0.16 0.43,0.27 0.26,-0.05 0.28,0.23 0.09,0.23 0.11,0.02 0.14,0.25 0.26,0.14 0.2,-0.02 0.14,0.14 0,0.27 -0.06,0.05 -0.03,0.29 -0.09,0.14 0.03,0.18 -0.06,0.11 0.14,0 -0.03,0.23 0.08,0.07 0,0.32 0.06,0.09 -0.23,0.05 -0.06,0.07 0.26,-0.02 0.17,-0.11 0.29,0.09 0.34,0 0,0.04 0.2,0.05 1.22,0.04 0.37,0.18 -0.08,0.3 0.08,0 0.03,-0.11 0.14,-0.05 0.06,0 0,0.16 0.14,-0.05 0.23,0.05 0.06,-0.05 0.14,0.07 0.28,-0.02 0.03,0.05 0.51,-0.09 0.29,0.05 0.23,-0.11 0.31,-0.05 0.71,0.18 0.43,0.29 0.23,0.34 0.4,0.16 0,0.07 -0.17,0.07 0.03,0.36 -0.06,0.09 0.08,0.11 0.06,0 0,-0.48 0.23,-0.02 0.08,-0.09 0.34,-0.02 0.09,-0.07 0.23,0.02 0.06,-0.02 0,-0.11 0.57,0.05 0.31,-0.16 0.23,-0.02 0.71,0.11 0.11,0.07 0.4,0 0.26,-0.14 0.51,0.04 0.14,-0.07 0.26,0 0.26,0.04 0.09,-0.07 0.28,0 0.2,-0.07 0.57,-0.32 0.17,-0.36 0.31,-0.25 0.17,-0.25 -0.03,-0.11 0.34,-0.09 0.06,-0.09 1.31,0.05 0.34,-0.07 0.14,-0.16 -0.03,-0.09 0.71,0.09 0.68,0 0.14,-0.07 -0.03,-0.09 0.11,-0.02 0,-0.11 0.08,-0.07 1.03,0.05 0.31,-0.11 0.71,0.02 0.03,0.04 0.88,-0.04 0.46,-0.07 0.06,-0.07 0.14,0 0.37,-0.18 0.63,-0.07 0.2,-0.09 0.68,-0.14 1.2,0.09 0.77,0.14 0.03,0.04 1.62,-0.02 0.26,-0.09 0.14,-0.11 0.06,-0.14 0.14,-0.07 0.6,-0.05 0.14,0.14 0.43,-0.02 0.06,0.09 0.23,0 0.03,-0.09 0.17,0 0.09,-0.07 0.31,0.04 0.23,-0.04 0.08,-0.07 0.03,-0.23 0.51,0.11 0.11,-0.09 0.2,-0.02 -0.06,-0.09 0.11,-0.02 0.28,0.07 0.06,0.09 0.28,0 0.2,-0.11 0.31,-0.04 0.26,0.04 0.06,-0.2 0.08,-0.02 0,-0.14 0.26,-0.11 0.77,0 0.03,0.05 0.34,-0.05 0.11,0.07 0.37,0.04 0.31,-0.09 -0.03,-0.04 0.14,-0.07 0.14,0.23 0.29,0.09 0.06,0.09 0.11,0 0.26,0.18 0,0.23 0.08,0.07 0.11,0 -0.03,0.3 0.2,0.16 0,0.34 -0.06,0.39 -0.17,0.14 0.06,0.66 -0.08,0 -0.09,0.14 0.09,0.09 -0.06,0.09 0.03,0.14 -0.06,0.02 0,0.09 0.06,0 -0.06,0.14 0.03,0.07 -0.06,0 -0.06,0.11 -0.11,0.02 0.06,0.2 -0.08,0.05 -0.31,0.61 -0.28,0.25 -0.09,0.23 -0.26,0.16 0.06,0.18 -0.08,0.02 0.23,0.2 -0.11,0 -0.23,-0.18 0,0.11 -0.11,0.02 0,0.09 -0.23,0.04 -0.08,-0.27 -0.26,0.09 -0.66,-0.02 -0.06,-0.09 -0.17,0 -0.2,-0.14 -0.31,0 -0.17,0.07 -0.17,0.2 -0.14,0.07 -0.26,0.36 0.03,0.3 0.14,0.09 0.14,-0.07 0.14,0.18 0.03,0.54 0.11,0.73 0.11,0.34 0.03,0.45 0.2,0.66 0.06,0.05 0.03,0.23 0.14,0.25 0.03,0.21 0.26,0.66 0.06,0.38 0.26,0.52 0.03,0.29 0.34,1.16 0.06,1.02 -0.03,2.65 0.06,0.05 -0.08,0.77 0.08,0.57 -0.08,0.29 -0.06,0.02 0,0.18 -0.17,0.36 -0.06,0.29 -0.29,0.38 -0.4,0.32 0,0.09 -0.06,0 0,0.25 -0.09,0.16 -0.37,0.38 -0.54,0.32 -0.54,0.18 -0.09,-0.04 -0.46,0.2 0,0.61 -0.06,0 -0.03,-0.16 -0.31,0.18 -0.26,-0.02 -0.03,0.04 -0.08,0 -0.09,-0.14 -0.11,-0.02 -0.31,0.09 -0.17,0.14 -0.06,0.27 0.31,0.23 -0.14,0.09 -0.06,0.11 0.14,0.11 0.29,0.02 -0.06,0.11 -0.37,-0.04 -0.14,-0.2 -0.6,0.02 -0.23,0.09 -0.06,0.14 -0.14,0.11 -0.26,0.07 -0.09,0.09 -0.28,0.02 -0.06,0.16 -0.31,0.11 -0.03,0.07 -0.09,0 -0.14,0.11 -0.11,-0.04 -0.08,0.04 -0.4,-0.02 -0.31,0.11 -0.71,0 -0.63,0.09 -0.28,0.18 -0.2,0.02 -0.29,0.2 0,0.07 -0.23,0.07 -0.08,0.18 -0.11,0.09 0.03,0.16 -0.06,0.04 0,0.23 -0.06,0.07 -0.46,0.11 -0.11,0.14 -0.14,0.02 0.03,0.07 0.17,0.02 0.08,0.2 -0.4,-0.02 -0.11,0.05 -0.14,-0.07 -0.09,0.11 -0.6,0.2 -0.8,-0.02 -1.74,0.23 -0.51,0.13 -0.46,0.05 -0.6,0.18 -0.17,0.11 -0.4,0.09 -0.26,0.16 -0.2,0.04 -0.14,0.14 -0.28,0.09 -0.6,0.36 -0.37,0.32 -0.06,0.16 -0.26,0.14 -0.23,0.27 -0.4,0.32 -0.03,0.11 -0.71,0.5 -0.03,0.09 -0.17,0.14 -0.03,0.14 -0.14,0.09 -0.51,0.68 -0.14,0.23 -0.03,0.16 -0.29,0.41 0,0.14 -0.08,0.07 0,0.27 -0.2,0.59 -0.17,1.01 -0.34,1.13 0,0.61 0.34,1.33 -0.03,0.14 0.11,0.5 0.26,0.54 0.28,0.95 -0.06,0.36 -0.14,0.16 -0.26,0.07 -0.03,0.07 -0.43,0.02 -1.02,-0.07 -0.14,-0.07 -0.23,0 -1,-0.2 -0.11,-0.07 -0.68,-0.07 -0.08,-0.07 -0.26,0 -0.11,-0.07 -0.11,0.02 -0.34,-0.18 -0.68,-0.07 -0.09,-0.07 -0.17,0 -0.09,-0.07 -0.8,-0.23 -0.31,0 -0.51,-0.16 -0.43,-0.02 -0.14,-0.11 -0.26,-0.02 -0.23,-0.11 -0.31,-0.02 -0.63,-0.2 -0.77,-0.02 -0.17,0.04 -0.23,0.11 0.03,0.09 0.14,0.07 0.06,0.23 -0.29,-0.04 -0.94,0.34 -0.34,0.31 -0.85,0.5 -0.23,0.27 -0.4,0.27 -0.26,0.27 0,0.09 -0.26,0.13 -0.03,0.16 -0.26,0.13 0,0.07 -0.37,0.25 -0.26,0.32 -0.17,0.09 -0.14,0.2 -0.11,0.36 -0.31,0.2 -0.17,0.38 -0.17,0.09 0.03,0.04 -0.06,0.05 -0.17,0 0,0.07 -0.26,0.11 -0.26,0.02 -0.14,0.16 -0.26,-0.07 -0.17,0.09 -0.17,-0.02 -0.06,0.09 -0.31,0.09 -0.11,0.2 -0.17,0.1 -1,0.16 -0.2,0.2 -0.23,0 -0.06,0.2 -0.23,-0.04 -0.2,0.11 -0.57,-0.04 -0.91,0.29 -1.03,0 -0.77,0.11 -0.46,0.13 0,0.04 -0.14,0 -0.06,0.16 -0.17,0.11 -0.31,0.02 -0.2,0.16 -0.17,0 -0.17,0.11 -0.34,0.04 -0.11,0.09 -0.37,0.11 -1.17,0.2 -0.48,0 -0.2,0.11 -0.43,0 -0.8,0.16 -0.57,0.2 -0.37,0.22 -0.4,0.11 -1.45,0.7 -0.71,0.54 -0.06,0.2 -0.2,0.16 -0.17,0.4 -0.46,0.72 0.08,0.11 -0.08,0 -0.08,-0.13 -0.09,0.02 0.03,0.13 0.26,0.09 -0.17,0.09 -0.03,0.16 -0.14,0.02 -0.14,0.13 -0.37,0.09 -0.48,0.31 -0.71,0.81 -0.2,0.29 -0.09,0.27 -0.51,0.38 -0.03,0.09 -0.28,0.25 -0.26,0.4 -0.26,0.7 -0.11,0.09 -0.68,0.09 -0.23,0.18 -0.83,-0.2 -0.4,0 -0.2,-0.11 -0.29,-0.02 -0.26,-0.13 -0.23,-0.31 -0.54,-0.34 -0.74,-0.22 -0.03,-0.07 -0.34,-0.18 -0.43,-0.13 -0.23,-0.2 -0.14,-0.04 -0.31,0.02 -0.17,0.16 -0.11,0 0,0.07 -0.17,0 -0.6,-0.2 -0.23,-0.02 -1.54,-1.26 -0.91,-0.61 -0.31,-0.09 -0.31,0 -0.14,0.09 -0.26,-0.02 0.11,0.25 0.23,0.2 -0.06,0.02 -0.17,-0.09 -0.08,-0.18 -0.2,-0.13 -0.71,0 -0.71,-0.36 -0.28,0 -0.66,-0.25 -0.2,0 -0.11,-0.13 -0.6,-0.18 -1.17,-0.58 -0.31,-0.02 -0.28,-0.16 -0.46,-0.02 -1.68,-0.79 -0.11,0.02 -0.09,0.22 -0.65,-0.02 -0.08,-0.11 0.06,-0.22 -0.31,-0.16 -1.08,-0.31 -0.06,0.16 0.03,0.16 -0.08,0.04 -0.03,-0.13 0.06,-0.25 -0.29,0 -0.77,-0.29 -3.62,-0.47 -0.91,0.07 -0.06,-0.04 0.03,-0.11 0.34,-0.05 -0.26,-0.04 -0.11,0.02 -0.03,0.09 -0.17,-0.04 0.03,0.09 0.11,0.07 0,0.14 -0.06,0.02 -0.6,-0.07 -1.11,0.02 -0.14,0.11 -0.97,0.18 -0.85,0.29 -0.26,0 -0.57,0.29 -0.31,0.07 -0.08,0.09 -0.77,0.16 -0.26,0.2 -1.17,0.18 -0.2,0.09 -1.51,0.07 -0.06,0.09 -0.31,0 -0.08,0.07 -0.8,0.09 -0.68,0.02 -0.46,-0.07 -0.57,0.02 0,-0.04 -2.02,0.07 -0.09,0.04 -1.05,-0.04 -0.06,0.04 0.03,0.18 -0.06,0.02 -0.03,-0.09 -0.66,0 -0.31,0.09 -0.2,-0.02 -0.46,0.13 -0.23,0.2 -0.11,-0.02 0,0.07 -0.43,0.02 0,0.11 -0.06,0.04 -0.37,0.02 -0.08,0.11 -0.83,0 -0.14,0.08 -0.46,0.07 0.03,0.04 -0.06,0.02 -1.03,0.07 -0.37,0.11 -0.17,0.18 -0.17,0 0.03,0.07 -0.43,0.02 -0.74,0.25 -0.48,0 -1.91,0.67 0,0.07 -0.43,0.25 0,0.13 -0.14,0.04 -0.06,0.13 -0.14,0.04 -0.03,0.13 -0.14,0.07 0.11,0.16 -0.23,-0.02 -0.06,0.2 -0.34,0.27 -0.2,0.49 0,0.31 -0.2,0.2 0,0.11 -0.4,0.61 -0.37,0.34 -0.2,0.36 -0.17,0.02 -0.4,-0.13 -0.34,-0.34 -0.11,-0.27 -0.48,-0.4 -0.03,-0.13 -0.48,-0.34 -0.14,-0.22 -0.94,-0.79 -1.08,-0.7 -2.08,-0.92 -0.48,-0.43 0.06,-0.36 -0.06,-0.04 -0.03,-0.22 0.09,-0.16 0.17,0.02 0.2,0.16 0.03,0.29 -0.06,0.07 -0.11,-0.02 0,0.09 0.09,0.02 0.17,-0.16 -0.06,-0.2 0.26,-0.18 -0.03,-0.11 0.43,-0.16 0.11,-0.22 -0.03,-0.13 0.06,-0.25 0.09,-0.11 -0.03,-0.22 0.03,-0.04 0.11,0.02 0,0.07 0.11,-0.04 0,-0.09 -0.14,0.02 -0.06,-0.11 0.23,-0.18 0.46,0 0.37,-0.07 0.37,0.22 0.06,0.09 0.85,0.38 0.26,-0.11 0.11,-0.13 -0.03,-0.04 0.11,-0.09 0.46,0 0,-0.07 0.06,0 0,-0.36 0.28,-0.09 0.29,-0.31 -0.09,-0.45 0.23,-0.22 -0.03,-0.56 -0.14,0 0.03,0.09 -0.09,0.04 0,0.29 -0.23,0.29 0.03,0.43 -0.11,0.13 -0.31,0.11 -0.09,0.18 -0.31,0.13 -0.26,0.2 -0.11,0.18 -0.43,-0.04 -0.43,-0.13 -0.03,-0.11 -0.51,-0.27 -0.08,-0.11 0.03,-0.34 0.14,-0.25 0.14,-0.09 0.03,-0.11 0.23,-0.27 0.14,0.02 0.17,-0.18 0.08,0 -0.03,-0.07 -0.14,0 -0.14,0.11 -0.11,-0.04 -0.03,-0.27 0.06,-0.36 0.08,-0.09 -0.06,-0.07 -0.17,0 -0.26,-0.11 -0.06,0.22 0.09,0.16 0,0.2 0.14,0.13 0.03,0.32 -0.23,0.4 -0.26,0.31 0.03,0.31 -0.11,0.16 -0.29,0.04 -0.06,-0.13 -0.09,0 0,0.11 -0.31,0.04 -0.23,0.11 0,0.25 -0.11,0.09 -0.14,0 -0.14,-0.11 0.09,-0.25 -0.03,-0.2 0.51,-0.16 0.06,-0.07 0,-0.2 -0.14,-0.09 0.06,-0.4 -0.28,-0.4 0.06,-0.07 -0.03,-0.25 0.2,-0.07 -0.03,-0.34 -0.09,-0.07 -0.14,0 -0.03,0.07 -0.29,-0.07 -0.28,0.04 -0.03,-0.16 -0.17,0.02 -0.11,0.18 0.14,0.2 0,0.45 0.14,0.34 0.11,0.07 0.08,0.18 -0.08,0.52 0,0.07 0.08,0.04 -0.03,0.67 -0.06,0.07 0.03,0.11 -0.08,0.11 0.14,0.07 0.03,0.2 -0.06,0.07 -0.14,0.02 -0.17,-0.16 0.06,-0.09 0,-0.2 -0.14,0.02 -0.14,-0.16 -0.26,-0.11 0,-0.09 -0.06,0 -0.11,-0.18 0.03,-0.04 -0.31,-0.25 -0.29,-0.07 0,-0.04 -0.2,0.02 -0.08,-0.04 0,-0.16 0.08,0 0.08,-0.13 -0.14,0.07 -0.14,-0.04 0,-0.11 0.17,-0.18 -0.09,-0.27 0.11,-0.36 0.11,-0.09 0,-0.25 0.11,-0.04 0.23,-0.47 -0.08,-0.16 0,-0.14 -0.29,-0.02 0,0.18 -0.48,-0.04 -0.17,-0.07 -0.06,0.09 0.06,0.16 -0.17,0.07 0,0.16 0.06,0.02 -0.03,0.16 -0.17,-0.11 -0.17,-0.02 -0.03,-0.16 0.06,-0.04 -0.06,-0.04 -0.17,0 -0.08,-0.09 -0.34,-0.09 -0.06,0.02 -0.03,0.13 -0.09,0 0.03,0.11 -0.14,0 0,0.31 -0.14,0 0,-0.16 -0.09,-0.07 -0.34,0.02 -0.46,-0.29 0,-0.14 -0.31,0 -0.17,-0.11 -0.54,0.07 0.03,0.38 0.26,0.13 0.26,0.02 0.06,0.13 0.11,0 0.09,0.13 0,0.11 0.11,0.07 0,0.14 -0.11,-0.02 -0.03,-0.11 -0.14,-0.02 -0.03,-0.13 -0.11,-0.13 -0.2,-0.04 -0.11,-0.11 -0.17,0.11 -0.11,-0.02 -0.11,0.13 0,0.16 -0.08,0.09 0,0.11 0.08,0.07 -0.06,0.16 -0.14,-0.04 -0.26,0.04 0.06,-0.13 -0.23,-0.18 0,-0.22 -0.06,-0.11 -0.23,0.02 -0.06,0.07 -0.28,0 -0.06,0.07 0.26,0.11 0.08,0.43 0.11,0.13 -0.06,0.07 0,0.22 -0.06,0.04 0,0.27 0.03,0.29 0.14,0.11 0,0.07 -0.06,0.02 -0.11,0.29 0.09,0.52 0.14,0.31 0,0.18 -0.14,0.11 -0.14,0.25 0.11,0.02 0.34,-0.25 0.11,0.02 0.11,-0.09 0,-0.11 -0.06,-0.04 0.03,-0.11 0.09,0.02 0,0.49 0.08,0.18 -0.26,0.18 -0.66,0.13 -0.23,0.11 -0.11,-0.02 -0.29,0.16 -0.57,0.11 -0.29,0.13 -0.8,0.09 -0.48,-0.54 -0.17,-0.09 -0.06,-0.2 -0.31,-0.22 0,-0.2 0.08,-0.13 -0.11,-0.11 0,-0.16 -0.09,0 0,-0.22 -0.06,-0.07 0,-0.45 0.23,-0.04 0.17,0.07 -0.08,-0.07 0,-0.18 0.06,-0.07 0.26,0 0.17,0.11 0.2,-0.07 0,0.09 0.09,0 -0.03,-0.16 -0.23,0.04 -0.08,-0.09 0.08,-0.11 -0.14,0.07 -0.11,-0.04 0.17,-0.65 0.14,-0.02 0.14,0.22 -0.03,0.11 0.06,0.04 0.11,-0.02 0,-0.11 -0.14,-0.18 0,-0.13 -0.34,-0.18 -0.03,-0.25 0.23,0 0.08,-0.07 0,-0.11 0.14,0 0,0.07 0.06,0 0.06,-0.14 -0.37,-0.11 -0.06,-0.16 -0.48,-0.36 0.11,-0.29 0,-0.2 0.09,-0.09 -0.03,-0.13 -0.54,0.02 0.03,0.11 0.14,0.07 0,0.07 -0.03,0.04 -0.26,-0.02 0,0.2 0.11,-0.04 0.06,0.18 0.11,0.09 -0.11,0.18 -0.2,0.02 -0.34,0 -0.08,-0.09 -0.46,-0.18 -0.4,0.02 -0.2,-0.09 -0.2,0.02 0.11,-0.18 -0.26,0.07 -0.08,-0.16 0,-0.13 -0.34,0 -0.09,0.04 0,0.2 -0.28,0.09 -0.34,-0.02 0,0.11 0.2,0.09 0.03,0.07 0.06,0 0,-0.07 0.31,0.07 0.14,-0.07 0.03,-0.09 0.11,0 0.2,0.2 0.26,0.04 0.03,0.27 0.09,0.04 0,0.09 -0.17,0.27 0.08,0.11 0.17,0.04 0.03,0.16 0.09,0.04 0.03,0.18 0.26,0.52 0.11,0.04 0.23,0.29 0.11,0.02 0.03,0.13 0.11,0.09 0.14,-0.07 0.09,0.04 0,0.07 -0.11,0.02 0,0.09 0.14,0.27 -0.17,-0.02 -0.03,0.09 0.37,0.09 -0.23,0.04 -0.06,0.11 0.11,0.02 0.2,-0.07 0.06,0.16 -0.06,0.25 0.26,0.31 -0.26,0.31 -0.43,0.27 -0.03,0.11 -0.14,0.09 -0.29,0.43 -0.37,0.16 -0.23,-0.11 -0.43,-0.56 -0.26,-0.18 -0.37,-0.16 -0.26,0.02 -0.17,-0.09 -0.28,-0.02 -0.57,-0.27 -0.43,-0.43 -0.03,-0.16 -0.17,-0.16 -0.03,-0.13 -0.17,-0.16 0,-0.09 -0.17,-0.25 -0.08,-0.02 -0.14,-0.2 -0.2,-0.13 -0.11,0 -0.17,-0.18 -0.23,-0.04 -0.48,-0.31 -0.17,0 -0.06,0.07 -0.28,-0.02 -0.68,-0.67 -0.31,-0.16 -0.17,-0.02 -0.09,-0.09 -0.68,-0.27 -0.4,-0.22 -0.14,0 -0.09,-0.11 -0.26,-0.09 -0.23,-0.22 -0.03,-0.13 0,-0.29 0.11,0.02 0.11,-0.11 -0.06,-0.09 0.06,-0.11 -0.11,-0.18 -0.17,0.04 0,0.16 -0.11,0.07 -0.26,-0.2 -0.4,-0.11 -0.08,0.18 0.06,0.18 -0.14,-0.04 -0.03,-0.18 0.11,-0.04 0,-0.11 0.06,-0.02 -0.03,-0.07 -0.31,-0.23 -0.37,-0.52 -0.17,-0.09 -0.03,-0.11 -0.26,-0.11 -0.2,-0.2 -0.03,-0.11 -0.11,-0.07 0,-0.09 -0.29,-0.38 -0.11,-0.04 -0.29,-0.32 -0.11,-0.25 -0.23,-0.16 -0.26,-0.07 -0.29,-0.25 -0.03,-0.18 0.11,-0.63 -0.11,-0.02 -0.03,-0.2 0.14,-0.16 0.03,-0.16 0.23,-0.04 0.31,-0.27 0,-0.11 -0.23,-0.32 -0.06,0 0.06,0.09 -0.03,0.14 -0.26,-0.14 -0.03,-0.07 -0.14,0.07 -0.08,-0.02 -0.03,-0.25 0.2,-0.07 0.06,-0.05 -0.03,-0.07 -0.14,0.02 -0.2,0.16 -0.06,0.16 0.14,0.18 0.17,0.02 0.09,-0.04 0.29,0.18 0.06,0.18 -0.23,0.18 -0.17,-0.02 -0.14,0.13 0.03,0.11 -0.11,0.04 0,0.16 0.09,0.04 -0.03,0.16 0.06,0.02 0,0.18 -0.23,0.7 -0.09,0.04 0,0.29 0.06,0.07 -0.09,0.13 -0.2,-0.04 -0.14,-0.56 -0.11,-0.09 0,-0.16 -0.09,-0.09 -0.08,0 0,0.07 -0.14,-0.07 -0.06,-0.07 0.06,-0.16 -0.26,-0.14 0,-0.07 -0.46,-0.18 -0.14,-0.13 -0.4,-0.16 -0.03,-0.07 -0.08,0 -0.23,-0.16 -0.2,0.02 -0.11,0.29 -0.08,0.02 -0.23,0 -0.17,-0.13 -0.14,0 -0.06,-0.11 -0.2,-0.11 -0.03,-0.09 -0.23,-0.09 -0.03,-0.27 -0.06,-0.02 0,-0.11 -0.08,-0.04 -0.14,-0.32 -0.26,0.07 0.08,0.05 0,0.11 -0.08,0.04 0,0.07 0.11,0.29 -0.03,0.07 0.17,0.13 0.06,0.14 0.26,0.13 0.14,0.23 0.2,0.04 0.2,0.13 0.77,-0.07 0.03,0.25 0.06,0.07 0.11,0 0.06,-0.14 0.2,0.09 0.26,0 0.08,0.05 0.03,0.18 0.06,0.04 0.11,-0.02 0.17,0.09 -0.06,0.27 0.34,0.47 0,0.09 0.11,0.04 0.17,0.2 0.06,0.16 0.4,0.23 0.08,0.11 0,0.11 -0.11,0.09 0.03,0.11 0.14,0.13 0.17,0.02 0.09,0.09 0.17,-0.07 -0.03,-0.09 0.11,-0.09 0.14,0.07 -0.09,0.09 0.03,0.09 -0.14,0.04 -0.03,0.16 0.08,0.07 -0.03,0.07 0.17,0.11 0,0.09 0.14,0.09 0.11,0.18 0.26,0.09 0,0.14 0.2,0.18 0.23,0.07 0.14,0.16 0.2,0.04 0.23,0.16 0,0.18 0.51,0.04 0.2,0.16 0.06,0.13 0.17,-0.04 -0.06,-0.18 0.11,0 0,0.09 0.17,0.11 -0.03,0.04 0.26,0.22 0.23,0.36 -0.2,-0.09 -0.2,-0.27 -0.26,0.11 -0.03,0.18 0.11,0.11 0.03,0.16 0.11,0.16 0.11,0.04 0,0.07 0.11,0.09 0.2,0.09 0,0.61 0.2,0.11 0.06,-0.07 -0.03,-0.16 0.08,0 0.11,0.07 0.03,0.13 0.08,0.04 0,0.11 0.11,0.02 0.06,-0.07 0,-0.16 -0.11,-0.07 0,-0.09 0.11,-0.09 0.11,0.04 0.03,0.11 -0.08,0.36 -0.17,0.13 0,0.09 -0.29,0.13 -0.28,0.22 -0.09,0.16 -0.11,0.04 -0.03,0.11 -0.14,0.13 -0.03,0.13 -0.11,0.09 -0.06,0.25 -0.17,0.2 -0.26,0.61 -0.26,0.09 -0.2,0 -0.08,0.09 -0.26,-0.07 -0.34,0.02 -0.2,-0.07 -0.48,0 -0.09,0.04 -0.06,0.13 -0.29,0.04 -0.23,0.18 -0.46,0.07 -0.34,-0.29 -0.11,0 0,-0.07 -0.14,-0.11 0,-0.2 0.14,-0.16 0,-0.18 -0.11,-0.11 -0.03,-0.18 0.06,-0.2 -0.06,-0.09 0.03,-0.11 -0.11,-0.09 -0.11,0 -0.11,0.09 -0.2,0 0.06,-0.25 0.09,-0.04 0,-0.13 -0.14,-0.11 -0.29,0.07 -0.14,-0.34 -0.2,0 -0.14,0.07 -0.14,-0.16 0.03,-0.25 -0.08,-0.07 -0.29,-0.04 0,-0.22 -0.11,-0.09 -0.26,0.02 -0.08,-0.09 -0.09,0 -0.03,0.07 0.09,0.09 0.4,0 0,0.29 0.37,0.07 -0.03,0.22 0.2,0.22 0.14,0.02 0.09,-0.09 0.11,0 0.03,0.22 0.08,0.09 0.23,0 0.03,-0.04 0.14,0.04 0,0.13 -0.08,0.04 -0.06,0.16 0.03,0.16 0.26,0 0.11,-0.07 0.11,0.04 0.03,0.56 0.09,0.07 0.03,0.2 -0.14,0.13 -0.03,0.29 0.83,0.54 0.2,-0.04 0.09,0.07 0,-0.11 0.23,-0.07 0.08,-0.09 0.17,0 0.03,0.07 -0.28,0.18 -0.17,0 -0.26,0.29 -0.31,0.11 -0.14,0.16 -0.28,0.07 -0.29,0.22 -1.22,0.2 -0.43,0.2 -0.6,0.02 -0.14,0.09 -0.11,0 -0.09,0.09 -0.31,0.07 -0.31,0.31 -0.14,-0.02 -0.03,-0.11 -0.14,0.02 0,0.13 -0.14,0.25 -0.23,0.11 -0.17,0 -0.03,-0.07 0.31,-0.13 -0.03,-0.04 0.08,-0.09 -0.03,-0.09 -0.08,0.05 0,0.09 -0.06,-0.11 -0.09,0.02 0.06,0.16 -0.11,0.07 -0.14,-0.02 0,-0.11 0.08,-0.04 -0.03,-0.04 -0.14,0.04 0.03,0.11 -0.31,-0.07 0,0.09 0.29,0.02 -0.03,0.38 -0.23,0.04 -0.08,-0.04 0,-0.06 -0.06,0 -0.06,0.09 0,0.18 -0.4,-0.02 -0.11,-0.09 0,-0.13 0.31,-0.18 0.26,-0.02 0.03,-0.04 -0.23,-0.02 -0.28,0.16 -0.09,-0.02 -0.11,-0.2 -0.14,0.02 -0.2,-0.13 -0.06,-0.09 0,-0.2 -0.06,-0.02 -0.03,0.22 0.11,0.11 0.03,0.13 0.31,0.13 -0.03,0.25 -0.11,0.09 -0.14,0 0.06,-0.22 -0.08,-0.02 0.03,0.09 -0.06,0.02 0,0.09 -0.14,0.07 -0.03,0.13 -0.37,0 -0.06,0.11 0.08,0.13 -0.03,0.09 0.08,0 0.03,-0.07 0.14,0.02 0.03,0.36 -0.37,0.31 -0.03,0.18 -0.17,0.07 -0.08,0.2 -0.09,0 -0.03,0.16 -0.08,0.07 0.06,0.09 -0.03,0.13 -0.31,0.16 0.03,0.07 -0.11,0.07 -0.03,0.11 0,0.31 -0.09,-0.02 -0.03,-0.11 -0.14,-0.11 0,-0.09 -0.08,-0.04 0.03,-0.2 0.11,0.04 0.03,-0.09 -0.17,-0.04 -0.09,-0.13 -0.06,0.09 0.06,0.02 0.03,0.18 -0.09,0.11 0.14,0.09 0.11,0.18 0,0.13 -0.4,0.07 -0.14,-0.13 0,-0.07 -0.09,-0.02 -0.03,-0.13 -0.14,0 0.4,0.43 0.4,-0.07 -0.03,0.27 0.11,-0.02 0.06,0.04 -0.03,0.04 0.09,0 -0.03,-0.11 0.06,0 0.11,0.18 0.06,-0.07 -0.09,-0.07 -0.03,-0.31 0.09,-0.04 0.14,0.31 0.14,0.09 -0.11,0.18 -0.31,0.02 -0.2,-0.16 -0.23,-0.04 -1.08,-0.92 -0.63,-0.18 -0.54,-0.25 -0.88,-0.25 -0.43,-0.22 -0.48,-0.11 -0.14,-0.09 -0.17,0.02 -0.34,-0.11 -0.46,-0.02 -0.35,-0.09 0,0 -0.26,-1.54 -2.95,0 0.16,-1.71 -0.2,-0.2 -2.64,0.75 -0.68,-1.11 -0.5,-1.59 0.14,-1.37 0.54,-1.01 -0.49,-2.92 -1.39,0.15 -0.33,-2.07 1.42,-1.15 0.33,-1.94 -1.64,-0.34 -1.31,0.88 -0.88,-0.16 -1.41,-1.55 -2.19,-3.61 1.21,-0.91 2.95,-0.51 0.21,0.13 -0.2,0.65 0.56,0.11 0.54,-1.02 0.5,-0.16 1.37,1.33 2.26,0.5 1.34,0.7 2.18,0.25 1.39,1.65 0.81,0.36 2.28,-0.77 0.56,-1.4 -1.11,-1.44 0.3,-0.86 0.97,-0.99 -0.31,-0.72 -0.98,-0.63 0.09,-1.63 -0.57,-2.6 0.48,-1.81 -0.36,-0.72 -1.22,-0.75 0.26,-1.92 -0.37,-1.74 -1.55,-2.76 -0.57,-2.56 0.81,-0.27 2.69,0.48 0.68,-0.36 0.75,-1.13 1.04,-0.43 2.12,1.04 0.54,-0.61 -0.58,-1.88 0.98,-2.2 -0.34,-2.23 2.04,-0.23 0.06,-0.93 -0.57,-0.86 -0.06,-0.96 -1.81,-0.93 -1.54,-2.84 0.51,-0.66 1.61,-0.46 0.04,-0.68 -0.37,-1.41 -1.14,-0.82 -1.32,-2.26 -0.41,-2.34 -0.94,-0.23 -2.25,-3.97 -1.11,0.04 -0.36,-0.39 -0.13,-2.22 0.92,-0.94 0.27,-1.71 -1.51,-1.53 -0.14,-1.53 0.17,-0.78 1.75,0.4 0.26,-0.49 -0.16,-0.55 -1.48,-1.51 -0.2,-2.2 -0.64,-2.57 -0.85,-1.03 1.54,-1.84 0.17,-4.8 0.92,-2.3 1.04,-0.9 -0.44,-1.34 1.71,-1.79 0.01,-0.65 -0.33,-0.46 -1.95,-1.17 0.23,-2.06 0,0 2.49,2.41 0.54,-0.07 0.37,-0.94 1.86,-0.16 0.21,-1.29 1.41,-0.3 0.43,-0.83 0.71,-3.51 0.03,-1.69 1.04,-1.32 0.24,-0.99 1.52,-0.18 0.21,-0.18 -0.06,-1.2 0.58,-0.12 0.95,0.09 1.44,1.32 1.11,-0.28 0.34,-0.76 -1.15,-1.16 1.65,-1.34 0.4,-1.48 0.64,-0.78 0,0 4.3,5.45 -0.33,0.46 -1.54,0.21 -1.69,0.88 0.66,0.51 -0.14,2.7 0.44,0.72 1.18,4.2 0.46,0.28 1.13,-0.32 2.59,0.16 1.1,-0.81 1.22,-0.14 1,-1.36 0.55,-0.26 -1.72,-0.71 1.17,-1.43 1.14,-0.74 3.07,-0.81 0.68,-0.92 1.67,0.14 2.09,-0.9 0.48,0.16 2.01,4.43 0.58,-0.12 1.73,-1.7 0.03,-1.5 1.07,-0.25 0.38,-0.23 -0.01,-0.65 -1.22,-1.13 -0.75,-1.39 -0.58,-0.3 -0.03,-0.83 2.69,-0.95 0.66,-0.86 -0.03,-0.67 0.36,-0.53 1.57,0.44 0.73,-1.3 1.69,0.07 3.94,-2.62 z" 
                fill="rgb(151, 144, 238)" 
                stroke="white" 
                stroke-width=".7px"
                title="South East" 
                id="GB-UKJ" 
            />
        </svg>