<svg xmlns="http://www.w3.org/2000/svg" viewBox="210.45174000000003 813.9745299999994 250.7699999999997 180.53000000000054" width="250.7699999999997" height="180.53000000000054">
            <path 
                d="m 211.93174,993.27453 0.19,0.09 0.1,0.2 0.07,-0.18 0.11,0.04 0.09,0.18 0.16,0.04 0.01,-0.07 -0.13,-0.2 0.13,0.02 0.1,-0.07 0.33,0.26 -0.03,0.11 0.1,0.09 -0.06,0.04 0.01,0.13 -0.1,0.11 -0.1,0 -0.19,-0.37 -0.07,-0.02 -0.1,0.07 0.01,0.15 0.11,0.2 0,0.2 -0.11,0.02 0,0.15 -0.06,0.04 -0.2,0 -0.07,-0.31 -0.09,-0.02 0,-0.2 -0.06,0 -0.07,0.18 -0.11,-0.02 -0.01,0.07 -0.11,-0.04 -0.03,-0.37 0.13,-0.02 0.07,-0.13 -0.09,-0.07 -0.07,0.13 -0.06,0 -0.01,-0.07 -0.09,-0.02 -0.01,-0.15 -0.1,-0.07 0,-0.07 0.14,0.02 0.16,0.18 0.09,-0.11 -0.06,-0.13 0.08,-0.01 z m -1.23,-0.07 0.14,0.24 0.21,0.04 0.03,0.13 0.1,0 0,0.18 -0.07,0.13 -0.17,0.02 -0.01,-0.15 -0.06,-0.02 0.04,-0.15 -0.1,0.07 -0.23,0.02 -0.13,-0.11 0,-0.18 0.17,0.02 -0.06,-0.09 0.14,-0.15 z m 4.02,-2.96 0.13,0.11 0.14,-0.04 -0.01,0.09 0.13,0.13 0.07,0.02 0.03,-0.04 0.03,0.22 0.26,0.02 -0.03,0.11 0.06,0.02 0.06,-0.09 0.16,0.07 0.01,0.11 -0.06,0.04 -0.19,-0.04 -0.01,0.07 0.14,0.07 0.03,0.09 0.07,0 -0.06,0.09 0.14,0.04 -0.01,0.18 -0.19,0.53 -0.37,-0.18 0,0.09 0.27,0.11 0.03,0.09 -0.14,-0.07 0,0.18 -0.17,0.11 -0.03,0.11 -0.4,-0.09 -0.01,-0.04 -0.11,0.11 -0.04,-0.07 -0.14,0 -0.03,-0.09 -0.09,0 -0.01,0.11 0.09,-0.02 0.09,0.09 0,0.09 -0.09,0 0.09,0.22 -0.07,0.02 -0.03,0.13 -0.11,0.04 -0.14,-0.13 -0.04,-0.18 -0.17,-0.24 -0.16,0 -0.03,-0.13 0.13,-0.02 -0.14,-0.15 -0.16,0.11 -0.01,0.26 -0.16,0.07 -0.13,0 -0.06,-0.15 -0.16,-0.13 0,-0.11 0.16,-0.24 0.14,-0.09 0.2,0.04 0.1,0.09 0.17,-0.02 -0.03,-0.04 0.1,-0.07 0.11,0.02 0.03,-0.07 -0.09,-0.09 0.01,-0.11 -0.19,-0.02 0.06,-0.11 0.2,0.04 0.03,-0.07 -0.16,-0.13 -0.14,0.04 0.09,-0.13 -0.1,-0.13 0.09,-0.22 0.13,-0.07 0,-0.29 0.14,-0.13 0.13,0.07 0.14,-0.02 0.08,-0.18 0.2,0 z m -2.96,-0.13 0.09,0.09 0.09,0 0.03,0.09 -0.07,0.24 0.11,0.09 0.08,0.2 0,0.13 -0.08,0.13 -0.1,-0.02 -0.03,-0.09 -0.16,0 -0.06,-0.11 -0.13,0.02 -0.03,-0.04 0.13,-0.26 0.11,0 -0.17,-0.4 0.11,0 0.08,-0.07 z m 4.52,-0.75 0.06,0.07 0.04,-0.02 0.01,0.09 -0.13,0.04 0,0.11 0.16,-0.02 0.09,0.13 -0.09,0.15 -0.11,-0.04 -0.19,-0.26 0.16,-0.25 z m 0.22,-0.61 0.08,0.07 0,0.09 0.13,0.04 0.04,0.13 0.17,0.11 -0.03,0.18 -0.1,0 -0.19,-0.26 -0.16,-0.09 -0.01,-0.15 -0.11,-0.02 0.01,-0.07 0.17,-0.03 z m -5.01,-0.91 0.09,0.13 -0.01,0.18 0.14,0.02 0,0.07 0.13,0.04 0.1,0.29 0.09,0.02 0.04,0.09 0,0.15 -0.09,0.11 0.03,0.15 -0.04,-0.02 -0.1,0.11 0,0.07 0.13,0.11 -0.04,0.24 -0.04,0.04 -0.27,-0.02 -0.13,0.2 -0.19,0.04 0.01,-0.11 0.14,-0.04 0.07,-0.11 -0.3,-0.02 -0.03,-0.15 0.27,-0.04 0.1,-0.13 -0.06,-0.02 -0.06,0.07 -0.16,-0.11 -0.2,0 0,-0.09 0.17,-0.29 0.01,-0.24 0.1,0.02 0.04,-0.11 0.1,-0.02 0.01,-0.15 -0.09,0 -0.06,-0.13 -0.16,-0.04 0.16,-0.26 0.1,-0.05 z m 0.64,-0.09 0.23,0.02 0.03,0.11 0.07,0 0.04,0.11 -0.07,0.04 0.01,0.13 0.16,0 0.09,-0.09 0.1,0.02 0.13,0.22 -0.09,0.07 0.07,0.02 0.04,0.11 0.09,0 0.06,-0.09 0.19,0.07 0,0.18 0.13,0.09 0.03,0.13 0.13,0 -0.19,0.46 0,0.13 0.19,0.07 0.09,0.16 -0.03,0.09 -0.2,-0.09 -0.19,0 -0.06,0.09 -0.16,0 -0.14,0.33 -0.11,-0.04 -0.07,0.09 -0.13,-0.02 0,-0.11 0.11,0 0.06,-0.07 0.01,-0.31 -0.04,-0.09 -0.16,0 -0.06,-0.09 -0.03,-0.37 -0.16,-0.09 0.03,-0.09 0.17,0.09 0.04,-0.15 -0.2,-0.18 -0.07,0 -0.11,-0.13 -0.03,-0.13 -0.19,-0.13 -0.1,-0.31 0.21,-0.29 0.09,0 -0.01,0.04 z m 1.85,-0.33 0.06,0.07 -0.03,0.18 0.06,-0.02 -0.03,0.18 0.06,0 0.06,0.11 0.01,0.16 -0.04,0.07 -0.13,-0.02 -0.04,-0.07 0.04,-0.18 -0.07,-0.02 -0.11,0.09 -0.11,-0.2 0.01,0.24 -0.16,0.11 0,-0.4 0.21,-0.15 0.1,0.09 0.06,-0.2 0.05,-0.04 z m -0.74,-0.2 0.09,0.11 0.14,0.02 0,0.09 -0.14,0.18 -0.06,-0.02 -0.07,0.09 -0.08,0 -0.16,-0.29 0.09,0 0.03,-0.13 0.07,-0.04 0.09,0 z m 1.17,-0.37 0.03,0.07 0.14,0.04 -0.03,0.18 0.07,0.09 0.13,0.09 0.14,0 0.04,0.29 0.11,0.27 0.14,0.13 0.14,0.02 0.09,-0.09 0.1,0 0.07,0.11 0.11,0.04 0.2,-0.18 0.09,0.18 0.09,0 0.1,-0.26 0.16,0 0.19,0.24 -0.01,0.15 -0.16,0.07 -0.01,0.07 -0.16,0.02 -0.04,0.13 -0.11,0.07 -0.11,-0.09 -0.27,0 -0.14,0.27 -0.17,0.02 -0.27,-0.49 -0.21,-0.02 -0.1,-0.13 -0.48,0 -0.03,-0.24 0.04,-0.09 0.07,0 0.03,-0.2 0.23,0.04 -0.07,-0.09 0.04,-0.13 -0.09,0.04 -0.14,-0.04 0.14,-0.18 -0.11,-0.15 0.02,-0.25 z m 0.41,-0.11 0.07,0.09 0.17,0.02 0,0.11 0.09,0.04 0,0.11 -0.13,0.2 -0.1,-0.07 0.01,-0.2 -0.1,-0.02 -0.04,0.07 -0.07,-0.11 -0.01,-0.2 0.11,-0.04 z m 198.82,-48.3 0.03,0.27 -0.08,0.85 -0.2,0.16 -0.09,0 0.2,-0.16 0.09,-1.1 0.05,-0.02 z m -0.86,-0.74 0.31,0.25 0.06,0.13 0.34,0.31 -0.06,0.02 -0.48,-0.42 -0.03,-0.09 -0.2,-0.16 0.06,-0.04 z m -11.1,-100.18 0.29,-2.07 0.3,-0.53 0.34,0 0.48,1.31 1.13,-0.73 0.65,0.16 0.35,-0.81 1.44,-0.6 1.58,0.23 0.71,-1.75 1.82,-0.23 1.84,-1.15 0.18,-0.58 -0.16,-0.99 -1.07,-1.2 -0.29,-1.47 -1.08,-0.85 0.13,-1.41 0.58,-0.97 -0.24,-0.88 0.58,-1.87 1,0.53 0.61,1.57 0.84,0.42 1.01,-0.44 1.25,-1.45 1.39,-0.23 1.15,1.87 0.58,1.57 2.88,0.9 0.9,-0.11 1.34,-2.21 1.71,0.25 0.76,-0.6 -0.84,-1.03 0.3,-2.2 0.3,-0.55 2.55,-0.14 -1.45,2.98 0.68,0.92 1.24,-1.04 1.75,0 2.09,0.65 3.07,-2.17 1.47,-0.35 1.21,0.28 0.74,-0.37 1.3,0.28 1.81,1.68 0.6,-0.02 0.34,-0.95 -0.13,-1.25 -1.07,-1.57 -0.8,-0.42 0.04,-0.37 1.04,-0.86 1.5,0.35 1.82,-2.5 1.05,-0.58 1.07,1.36 1.08,0.37 0.47,1.64 1.65,2.84 0.88,0.35 1.85,-0.3 0.46,0.32 -1.13,2.12 -0.91,0.99 -0.03,0.43 0,0 -0.23,2.06 1.95,1.17 0.33,0.46 -0.01,0.65 -1.71,1.79 0.44,1.34 -1.04,0.9 -0.92,2.3 -0.17,4.8 -1.54,1.84 0.85,1.03 0.64,2.57 0.2,2.2 1.48,1.51 0.16,0.55 -0.26,0.49 -1.75,-0.4 -0.17,0.78 0.14,1.53 1.51,1.53 -0.27,1.71 -0.92,0.94 0.13,2.22 0.36,0.39 1.11,-0.04 2.25,3.97 0.94,0.23 0.41,2.34 1.32,2.26 1.14,0.82 0.37,1.41 -0.04,0.68 -1.61,0.46 -0.51,0.66 1.54,2.84 1.81,0.93 0.06,0.96 0.57,0.86 -0.06,0.93 -2.04,0.23 0.34,2.23 -0.98,2.2 0.58,1.88 -0.54,0.61 -2.12,-1.04 -1.04,0.43 -0.75,1.13 -0.68,0.36 -2.69,-0.48 -0.81,0.27 0.57,2.56 1.55,2.76 0.37,1.74 -0.26,1.92 1.22,0.75 0.36,0.72 -0.48,1.81 0.57,2.6 -0.09,1.63 0.98,0.63 0.31,0.72 -0.97,0.99 -0.3,0.86 1.11,1.44 -0.56,1.4 -2.28,0.77 -0.81,-0.36 -1.39,-1.65 -2.18,-0.25 -1.34,-0.7 -2.26,-0.5 -1.37,-1.33 -0.5,0.16 -0.54,1.02 -0.56,-0.11 0.2,-0.65 -0.21,-0.13 -2.95,0.51 -1.21,0.91 2.19,3.61 1.41,1.55 0.88,0.16 1.31,-0.88 1.64,0.34 -0.33,1.94 -1.42,1.15 0.33,2.07 1.39,-0.15 0.49,2.92 -0.54,1.01 -0.14,1.37 0.5,1.59 0.68,1.11 2.64,-0.75 0.2,0.2 -0.16,1.71 2.95,0 0.26,1.54 0,0 -0.99,-0.18 -0.09,0.09 -0.83,0 -0.68,0.13 -0.51,0.31 0,0.07 -0.06,0 0,0.13 -0.2,0.27 -0.14,0.04 0,0.22 -0.06,0 -0.03,0.25 -0.17,0.27 0,0.13 -0.17,0.13 -0.11,0 -0.17,-0.11 -0.6,-0.2 -0.17,0 0,-0.04 -0.14,0.02 -0.94,-0.22 -0.26,0.02 -0.23,-0.11 -0.46,0.02 -0.2,-0.07 -0.66,0.02 -0.23,-0.04 -0.63,0.11 -0.31,-0.02 -0.08,0.07 -0.23,0 -0.46,0.13 -0.2,-0.02 -0.37,0.16 -0.6,0.13 -0.46,0.22 -0.03,0.09 -0.48,0.16 -0.28,0.25 -0.29,0.11 0,0.07 -0.43,0.31 -0.03,0.11 -0.2,0.16 -0.14,0.25 -0.31,0.25 -0.06,0.2 -0.11,0.04 -0.03,0.11 -0.2,0.11 -0.03,0.09 -0.2,-0.02 -0.14,-0.13 0,-0.18 0.23,-0.11 0,-0.09 0.08,0.07 0.17,-0.02 0.06,-0.07 0.11,0.02 0.14,-0.13 0,-0.07 0.2,-0.11 0.06,-0.25 -0.06,-0.02 0,-0.16 -0.17,-0.13 -0.03,-0.11 -0.06,-0.02 -0.08,0.07 -0.09,-0.11 -0.08,0.02 -0.23,-0.36 -0.09,0.02 0,0.09 -0.11,0.11 -0.17,0.02 0.14,-0.18 -0.03,-0.13 0.14,0.02 0.06,-0.16 -0.17,-0.22 -0.11,0.09 0,0.09 0.08,0.04 -0.06,0.07 -0.17,-0.09 -0.08,-0.13 -0.09,0.04 0,0.09 -0.08,0 0,-0.09 -0.09,-0.09 0.11,0 0.06,-0.13 0.14,-0.04 0,-0.13 -0.23,-0.02 -0.31,0.07 -0.08,0.2 0.03,0.04 -0.17,0.13 -0.06,0 0,-0.16 -0.31,0.02 -0.06,0.07 -0.31,-0.09 0,0.16 0.08,0.11 -0.14,0 -0.03,0.13 -0.23,0.02 -0.28,-0.04 -0.09,-0.07 0,-0.16 -0.77,-0.02 -0.11,-0.07 -0.17,0 -0.2,-0.11 -0.09,-0.16 -0.43,-0.11 -0.14,-0.13 -0.11,0 -0.09,-0.16 -0.14,0.04 -0.03,0.05 0.09,0.04 -0.14,0.04 0,0.13 0.06,0.04 -0.14,-0.02 -0.06,-0.09 -0.14,0 0.03,-0.04 -0.11,-0.04 -0.26,0 -0.23,0.09 -0.23,0.27 -0.03,0.13 -0.11,0.07 0,0.13 0.11,0.09 0.26,0.02 0.03,0.07 -0.23,0.18 -0.4,-0.04 0.09,0.09 -0.06,0.27 0.06,0.22 -0.17,0.04 -0.09,0.16 0.03,0.04 -0.08,0 -0.03,-0.07 -0.14,0.04 0.03,0.07 0.09,-0.02 0.06,0.07 0,0.4 -0.11,0.09 0.23,0.02 0.09,-0.07 0.2,0.09 0.31,-0.09 0.26,-0.22 0,-0.27 0.11,-0.13 0.06,-0.27 0.68,-0.31 0,-0.18 0.11,-0.13 0.23,-0.07 0.48,0.02 0.17,0.29 0.26,0.13 0,0.13 -0.08,0.02 -0.17,0 -0.11,-0.22 -0.23,0 -0.08,0.11 0,0.04 0.11,0 0,0.13 0.14,0.09 0.09,0.2 0,0.22 -0.06,0.02 0.09,0.09 -0.03,0.34 -0.29,0.18 -0.14,0.22 -0.14,0.04 -0.03,0.16 -0.4,0 -0.11,0.16 0.2,-0.07 0.43,-0.02 0.14,-0.25 0.26,-0.13 0.03,0.16 -0.06,0.04 0.06,0.04 0,0.13 -0.14,0.22 0,0.18 0.08,0.04 0.11,-0.11 0.03,-0.16 0.06,0 0.06,-0.34 0.34,-0.13 0.2,0 0.23,0.18 0,0.18 0.09,0.04 0,0.04 -0.17,0.07 0,0.07 0.37,-0.02 0,0.07 0.28,0.11 0,0.04 -0.28,0.09 0.03,0.18 0.23,0.04 -0.03,0.16 0.06,0.02 0.14,-0.02 -0.03,-0.18 0.14,-0.18 0.26,-0.16 0.14,-0.2 0.17,-0.04 0.03,0.11 -0.06,0 -0.17,0.22 -0.03,0.25 0.11,0.04 0,0.09 0.46,0.18 -0.17,0.16 -0.17,0.02 0,0.09 0.08,0.07 0,-0.11 0.14,0 0.06,-0.09 0.11,0 0.08,0.13 0.06,-0.02 -0.03,-0.16 0.06,-0.04 0,-0.2 -0.09,-0.13 0.37,-0.11 0.11,-0.27 0.08,0.02 0,0.07 0.14,-0.02 0.11,-0.13 0.11,-0.29 0.09,-0.04 0.14,0.22 0,0.11 0.23,0.09 0.06,0.11 -0.51,1.1 -0.06,0.65 0.09,0.07 0.11,0.31 0.14,0.04 0.23,0.34 0.8,-0.09 0.14,0.07 -0.06,0.25 -0.23,0.22 -0.17,0.4 -0.6,0.16 -0.23,0.18 -0.23,0.29 0,0.11 -0.2,0.29 -0.03,0.42 0.08,0.29 0.17,0.11 0.09,-0.13 0.08,0 -0.06,0.07 0.03,0.04 0.34,0 -0.06,0.11 -0.31,0.18 -0.03,0.22 -0.09,0.09 0.03,0.34 0.09,0.09 -0.06,0.11 -0.14,0.02 -0.26,0.22 -0.48,-0.04 -1.17,0.09 -0.71,-0.09 -0.14,0.07 -0.26,0 -0.4,0.13 -0.29,0.02 -0.23,0.31 -0.34,0.25 -0.06,0.13 -0.29,0.13 -0.4,0.07 -0.11,0.09 -0.17,-0.02 -0.11,-0.09 0,-0.09 -0.14,-0.16 0,-0.29 -0.08,-0.09 -0.06,-0.36 0.11,-0.18 -0.03,-0.09 -0.11,0 -0.06,0.09 -0.37,0.02 -0.11,-0.13 -0.03,-0.13 -0.31,0.07 -0.71,-0.27 -0.23,0 -0.2,0.11 -0.31,-0.18 -0.2,-0.02 -0.31,-0.29 -0.43,-0.2 -0.09,-0.16 0.09,-0.31 -0.23,-0.13 -0.2,0.07 -0.06,0.11 -0.28,0 0,0.11 -0.11,0.04 -0.03,-0.16 -0.2,-0.07 -0.03,-0.11 -0.29,-0.22 -0.57,0.13 -0.57,-0.07 -0.14,-0.07 -0.23,0.04 0,-0.09 0.14,-0.09 -0.03,-0.11 -0.17,-0.16 -0.37,-0.16 -0.26,0 -0.09,0.07 -0.29,-0.07 -0.14,0.13 -0.14,0.04 -0.46,0.04 -0.06,0.04 0.03,0.18 -0.28,0.02 -0.06,0.07 -0.74,-0.02 -0.09,-0.04 0.06,-0.18 -0.14,-0.07 -0.11,0.07 0,0.13 -0.08,0 -0.57,-0.11 -0.09,-0.16 -0.14,-0.07 -0.37,-0.04 -0.11,0.07 -0.11,-0.09 -0.65,0 -0.48,-0.18 -0.26,-0.02 -0.03,-0.07 -0.94,0.04 -0.09,-0.09 -0.26,-0.09 -0.34,-0.4 -0.34,-0.02 -0.48,0.13 -0.17,-0.07 -0.43,0.04 -0.57,-0.22 -0.17,-0.13 -0.34,0 -0.06,-0.07 -0.14,0.02 -0.2,-0.07 -0.48,0.11 -0.2,0.11 -0.03,0.11 -0.09,0 -0.11,-0.13 -0.31,-0.07 -0.09,-0.09 -0.2,0.02 -0.43,0.27 -0.54,0.56 -0.06,0.18 -0.11,0.07 -0.14,0.22 -0.2,0.49 0,0.22 0.09,0.13 0.2,-0.11 0.17,0.02 0.03,0.07 0,0.22 -0.37,0.18 0,0.11 0.08,0.04 0.03,0.11 0.77,0.31 0.06,0.07 -0.06,0.02 -0.88,-0.36 -0.46,0.27 -0.09,0.2 -0.26,0.2 -0.06,0.31 -0.17,0.27 0.08,0.34 0.17,0.4 0.06,0.02 0.06,0.22 0.11,0.09 0.34,0.07 0.23,0.27 0.11,-0.11 0.46,-0.07 0.03,-0.07 0.11,0 0.11,-0.11 0.14,0.02 -0.08,0.22 0.29,0.05 0.14,-0.09 0.09,0.02 0,0.04 -0.26,0.09 -0.03,0.11 0.11,0.07 0.11,0.27 0.11,0.09 0,0.13 0.08,0.07 0,0.22 0.2,0.2 0.06,0.25 -0.11,0.18 -0.03,0.45 -0.31,0.22 -0.06,0.11 -0.14,0.02 0,0.07 -0.06,0 -0.06,0.2 -0.09,0.02 -0.06,0.13 -0.23,0.2 0,0.29 -0.29,0.31 -0.06,0.2 -0.54,0.4 -0.08,0.16 -0.17,-0.04 -0.11,-0.22 0.11,-0.51 0.14,-0.18 -0.03,-0.49 0.09,-0.16 0,-0.33 0.06,-0.09 0,-0.09 -0.17,-0.25 0.11,-0.25 0.14,-0.13 0.03,-0.22 -0.06,-0.04 0,-0.16 0.23,-0.36 0,-0.16 -0.14,-0.25 -0.46,-0.47 -0.11,-0.2 -0.29,-0.27 0,-0.07 -0.28,-0.2 -0.06,-0.13 -0.31,-0.25 -0.14,-0.22 -0.2,-0.11 -0.29,-0.36 -0.65,-0.56 -0.03,-0.09 -0.71,-0.56 -0.03,-0.09 -0.31,-0.22 -0.06,-0.11 -2.25,-1.81 0,-0.07 -1.68,-1.32 -0.91,-0.63 -1.14,-0.69 -0.09,-0.11 -0.08,0 -0.83,-0.52 -0.14,-0.16 -2.05,-1.17 -0.17,-0.04 -0.6,-0.4 -0.6,-0.31 -0.14,-0.02 -0.11,-0.09 0,-0.07 -0.65,-0.27 -0.37,-0.22 -0.26,-0.02 -0.06,-0.16 -0.08,-0.04 -0.26,-0.02 0,-0.07 -0.2,-0.11 -0.14,0 -0.03,-0.07 -0.23,-0.11 -0.48,-0.16 -0.43,0.04 -0.17,-0.11 -0.17,0 -0.23,0.09 -0.28,-0.22 -0.31,-0.07 -0.11,-0.11 -0.43,-0.09 -0.23,0 -0.09,0.09 -0.08,0 -0.48,-0.16 -0.11,-0.11 -0.4,-0.16 -0.43,-0.04 -1.31,-0.36 -0.31,0.04 -0.03,-0.07 -0.43,-0.04 -0.14,0.11 -0.34,0.02 -0.11,0.04 0,0.07 -0.23,0.07 -0.14,0.22 -0.03,0.18 -0.29,0.09 -0.11,0.11 0,0.13 0.11,0.13 -0.39,-0.02 -0.3,0.11 -0.14,0.22 -0.34,0.22 -0.46,-0.02 -0.17,0.31 -0.26,0.02 -0.4,0.36 -0.43,-0.11 -0.23,0 -0.17,0.29 -0.51,0.2 -0.48,0.09 -0.37,0 -1.74,-0.34 -0.88,-0.02 -0.31,0.11 -0.06,0.25 -0.11,0.04 -0.03,0.16 -0.17,-0.02 -0.06,0.04 -0.06,0.43 -0.14,0.43 -0.54,0 -0.66,-0.13 -0.48,-0.02 -0.54,0.07 -0.06,0.07 -0.23,0 -0.11,0.07 -0.26,0 0,-0.04 -0.26,-0.07 -0.26,0.02 -0.14,0.09 -1.11,-0.02 -0.37,0.04 -0.11,0.13 -0.17,0.07 -0.4,-0.02 -1.37,0.27 -0.43,0.16 -0.2,0.13 -0.54,0.11 -0.03,0.09 -0.4,0.13 -0.11,0.16 0.03,0.09 -0.09,0.25 -0.37,0.25 0,0.13 -0.14,0.13 -0.11,0.02 0.03,0.2 -0.26,0.13 0.03,0.49 -0.23,0.34 0,0.22 -0.14,0.09 -0.06,0.18 -0.37,0.42 -0.03,0.11 -0.09,0 -0.17,0.16 -0.63,-0.04 -0.29,0.09 -0.2,0.13 -0.71,0.27 -0.11,0.11 -0.23,0.07 -0.2,0.18 -0.09,0 -0.31,0.31 0,0.11 0.08,0.11 -0.03,0.47 -0.14,-0.07 -0.14,0.04 -0.06,-0.25 -0.37,0.04 -0.2,0.13 -0.57,0.04 -0.11,-0.2 -1.02,-0.16 -0.2,-0.31 -0.6,-0.07 -0.09,-0.09 -0.03,-0.11 0.08,-0.09 0.4,-0.09 0,-0.81 -0.06,-0.13 -0.17,-0.11 0,-0.16 -0.08,-0.04 0,-0.22 -0.51,-0.51 0,-0.2 -0.08,-0.04 0.06,-0.13 -0.08,-0.09 -0.03,-0.31 -0.2,-0.29 -0.03,-0.22 -0.14,-0.16 -0.08,-0.38 -0.14,-0.13 -0.06,-0.18 -0.11,-0.07 0,-0.22 -0.11,-0.11 -0.14,0.2 -0.23,-0.04 0.03,-0.07 -0.17,-0.09 -0.06,-0.07 0.03,-0.11 -0.17,-0.16 0,0.4 0.06,0.11 -0.03,0.29 -0.06,0.04 0.06,0.78 0.11,0.16 0.14,0.02 0.2,0.13 0.2,0.54 0.11,0.16 0,0.29 -0.06,0.07 0.03,0.34 0.14,0.16 0,0.54 0.06,0.04 0,0.16 0.06,0.11 0.09,0.02 -0.06,0.07 0,0.54 0.03,0.31 0.08,0.11 0,0.78 0.17,0.07 0.03,-0.11 0.17,-0.07 0.06,-0.11 0.31,-0.22 -0.06,-0.07 0.06,-0.11 0.2,-0.07 0.06,0.04 0,0.25 -0.11,0.2 0,0.11 -0.2,0.2 -0.17,0.07 -0.03,0.13 -0.2,0.13 -0.09,0.2 -0.17,0.16 0.06,0.22 -0.11,0.02 -0.34,0.25 -0.11,0.16 -0.17,0.09 -0.17,0.27 -0.17,0.09 0.03,0.11 -0.11,0.04 -0.08,0.16 -0.09,1.21 -0.08,0.07 -0.23,0 -0.23,0.22 -0.14,0.36 -0.2,0.11 -0.17,0.36 -0.23,0.25 0.08,0.11 -0.11,0 -0.03,0.11 -0.08,0 -0.14,0.16 -0.06,0 0.06,-0.07 0,-0.27 -0.08,-0.07 -0.48,-0.07 -0.4,0.09 -0.34,-0.16 -0.4,0 -0.23,0.13 0,0.07 -0.48,-0.04 -0.11,0.09 -0.06,-0.07 -0.23,0.04 -0.17,-0.09 -0.2,0.02 -0.26,0.22 -0.51,0 -0.17,0.11 0,0.07 -0.17,0.04 0,0.13 0.2,0.02 0.09,-0.07 0.37,0 0.65,-0.11 0.26,-0.13 0.14,0 0.06,0.09 0.23,0.02 0.14,0.09 0.06,-0.16 0.34,0.04 0.03,-0.04 0.43,0 0.14,-0.09 0.06,0.07 0.74,-0.07 0.2,0.09 0.06,0.13 0.28,0.07 0.03,0.13 -0.08,0.04 -0.17,0.27 0,0.22 -0.09,0.07 -0.08,0.25 0.03,0.07 -0.08,0.13 0.03,0.04 -0.09,0.07 -0.08,0.42 -0.06,0.02 0.06,0.13 -0.06,0 -0.03,0.22 -0.11,0.09 0.06,0.33 -0.11,0.07 0,0.31 0.06,0.04 0,0.11 -0.09,0.2 0.06,0.25 -0.09,0.38 0.03,0.22 0.06,0.04 -0.14,0.16 0,0.2 0.17,0.2 0.34,0.04 0.06,0.11 0.14,0 0.08,0.13 0.11,0.02 -0.09,0.11 -0.14,0.04 0.03,0.18 0.11,0.07 0.37,0.04 0.11,0.45 0.14,0.11 0.17,0 0.03,-0.07 0.08,0 0,0.2 -0.08,0.16 -0.26,-0.02 -0.11,0.18 -0.77,-0.11 -0.2,0.16 -0.09,0.22 -0.08,-0.02 -0.11,0.09 -0.14,0 -0.26,-0.11 -0.06,-0.16 -0.29,0 -0.11,-0.09 0.03,-0.22 -0.17,-0.13 -0.14,0.02 -0.17,0.13 -0.03,0.25 -0.23,0.11 0,0.13 0.06,0.04 -0.03,0.16 -0.26,0.02 -0.17,0.11 0.03,0.07 -0.09,0.2 -0.2,0.25 0,0.33 -0.08,0.02 -0.06,0.25 0.09,0.07 -0.03,0.18 0.14,0.02 0.2,0.16 0,0.25 -0.31,0.02 -0.06,0.16 0.06,0.11 -0.03,0.31 0.08,0.09 0.09,0 0.06,0.13 0,0.07 -0.08,0.02 0,0.11 0.14,0.07 -0.03,0.13 0.06,0.13 -0.08,0.02 -0.06,0.29 0.08,0.13 0.26,-0.09 0.11,0.09 0.09,0.25 0.14,0 0.29,-0.16 0.43,-0.04 0.29,0.16 0.17,0 0.31,0.33 0.11,-0.02 0.08,-0.11 0.11,0 0.14,0.09 0.34,-0.16 0.6,0.04 0.17,0.04 0.06,0.09 -0.06,0.11 -0.29,0.07 0.03,0.27 -0.14,0.02 -0.06,0.07 0.06,0.13 -0.31,0 -0.14,0.16 -0.17,0.07 0,0.24 0.29,0.07 0.11,0.13 -0.03,0.16 -0.57,0.11 -0.03,0.2 -0.23,0.11 -0.17,0.22 -0.03,0.22 0.17,0.04 0,0.09 -0.17,0.07 0.03,0.27 -0.2,0.07 0,0.31 -0.06,0.09 0,0.09 0.2,0.07 0.11,0.18 -0.03,0.31 -0.11,0.07 0.03,0.16 -0.08,0.11 -0.08,0 0,0.09 -0.26,0.04 -0.08,0.11 -0.23,-0.07 0,0.11 -0.08,0.07 0,0.25 -0.11,0.04 0.06,0.09 -0.54,0.16 -0.14,-0.29 -0.23,0.07 -0.14,-0.09 -0.03,-0.2 -0.26,-0.02 -0.17,-0.09 0,-0.11 -0.14,-0.18 -0.29,-0.02 -0.11,-0.07 -0.03,-0.25 0.08,-0.07 -0.08,-0.04 0.06,-0.07 0,-0.18 0.11,-0.04 0,-0.16 -0.09,-0.04 -0.06,-0.2 -0.14,-0.13 0,-0.2 -0.11,-0.02 0,-0.13 0.09,-0.13 -0.06,-0.58 -0.11,-0.18 -0.09,0 -0.06,-0.09 -0.11,0 -0.03,-0.09 -0.14,-0.09 -0.14,0 -0.06,-0.11 0.17,-0.11 -0.03,-0.04 0.09,-0.07 0.28,-0.13 0.09,-0.18 0.14,-0.02 0.03,-0.2 -0.37,-0.11 -0.09,0.02 -0.08,-0.13 -0.77,0.04 -0.2,0.18 -0.2,-0.02 -0.14,-0.09 0,-0.13 -0.14,-0.18 -0.23,-0.09 -0.2,0.04 -0.46,-0.2 0,-0.16 0.14,-0.04 0,-0.13 -0.17,-0.2 -0.17,-0.02 -0.28,0.16 -0.23,-0.04 0,-0.09 0.23,-0.13 0,-0.2 -0.09,-0.07 -0.28,-0.04 -0.37,0.11 0.03,0.04 0.6,-0.04 0.03,0.18 -0.2,0.11 -0.03,0.16 0.4,0.11 0.2,-0.13 0.14,0 0.06,0.04 0,0.11 -0.08,0.04 -0.09,0.25 -0.17,0 -0.14,0.11 -0.06,0.16 -0.6,0.09 -0.2,0.07 0,0.07 0.83,-0.16 0.06,-0.11 0.14,-0.07 0.4,0.02 0.17,0.22 0.17,0.11 0.03,0.13 0.17,0 0.57,0.25 0.23,-0.02 -0.14,0.13 0,0.16 0.11,-0.02 0.03,-0.16 0.37,-0.33 0.06,0.09 0.17,0.04 0,0.31 -0.14,0.24 0.11,0.02 0,0.18 0.06,0.04 0.2,0.04 0.09,0.22 0.26,0.09 0.11,0.11 0.06,0.27 -0.06,0.04 -0.06,0.4 -0.08,0.07 -0.03,0.16 -0.09,0.07 -0.11,-0.02 -0.4,0.31 0.11,0.02 0.14,-0.18 0.29,0 0.11,-0.07 0.2,0.02 0.09,0.09 0.14,0.33 0,0.25 -0.06,0.04 0,0.16 -0.06,0.02 0,0.22 0.23,0.24 0.4,0.14 -0.03,0.24 0.03,0.25 0.06,0.04 0,0.16 -0.08,0 -0.14,0.11 -0.03,0.16 -0.11,0.04 0,0.11 0.08,0.02 0,0.07 -0.11,0.13 -0.11,0 -0.11,0.11 -0.11,-0.09 -0.31,0.07 -0.09,-0.09 -0.48,0.31 0,0.18 -0.4,0.07 -0.26,-0.07 -0.2,0.13 -0.03,0.18 -0.14,0.09 -0.03,0.16 -0.23,0.2 -0.06,0.13 -0.51,0.33 -0.48,0.87 -0.34,0.93 -0.11,0.71 -0.06,0.02 -0.06,0.84 -0.08,0.04 0,0.13 -0.06,0.02 0,0.31 -0.06,0.04 -0.06,0.4 0,0.49 -0.08,0.2 0.03,0.67 0.08,0.18 0.31,0.44 0.54,0.22 -0.06,0.18 -0.2,-0.09 -0.17,0 -0.28,0.22 -0.03,0.09 -0.2,0 -0.11,-0.22 -0.28,0.07 -0.6,-0.13 -0.26,0 -0.06,0.13 -0.2,0.07 -0.06,0.22 -0.23,0.07 -0.14,0.2 -0.37,0.13 0.03,0.22 -0.26,0.29 -0.26,-0.07 -0.14,0.02 -0.11,0.07 -0.11,0.2 -0.17,0.04 -0.03,-0.18 -0.09,-0.04 -0.08,-0.18 0,-0.11 -0.06,-0.02 -0.06,0.09 -0.17,-0.04 -0.06,-0.07 0,-0.16 -0.11,-0.04 -0.03,-0.22 -0.08,-0.07 -0.34,-0.07 -0.17,-0.11 0.06,-0.04 -0.03,-0.04 -0.54,-0.07 -0.14,-0.11 -0.31,-0.02 -0.14,-0.11 -0.08,0 -0.11,-0.22 0,-0.11 0.14,-0.16 -0.06,-0.11 0.2,-0.04 0.03,-0.2 0.11,-0.07 0.03,-0.15 0.08,-0.02 0,-0.11 0.26,0 0.11,-0.11 0.57,-0.02 0.06,-0.09 0.14,-0.04 0.14,0.02 0.17,0.13 0.11,-0.02 -0.37,-0.22 0.2,-0.04 0,-0.09 -0.14,0 -0.34,0.18 -0.51,0.09 -0.08,-0.07 0,-0.51 0.14,0.07 0.03,-0.11 -0.23,-0.29 0.17,-0.18 0.23,-0.02 0.11,0.04 -0.08,-0.2 0.11,-0.22 0.23,0.02 0.06,0.07 0.26,-0.02 -0.08,-0.13 -0.34,-0.02 -0.06,-0.09 0.2,-0.11 0.46,-0.02 0.14,-0.11 0.03,-0.2 -0.2,0.2 -0.26,0.02 -0.37,0.13 -0.26,0.27 0,0.24 -0.26,0.07 -0.11,-0.11 0.23,-0.18 -0.06,-0.22 -0.08,-0.02 -0.03,0.07 -0.08,0 -0.2,-0.07 0.06,-0.44 0.09,-0.09 0,-0.27 -0.09,-0.04 0.03,-0.13 -0.11,-0.02 -0.03,0.16 -0.14,0 -0.26,-0.22 -0.03,-0.16 -0.06,-0.02 -0.03,0.18 0.08,0.18 -0.06,0.16 0.17,0.02 0,0.16 0.11,0.09 0.06,0.16 0,0.24 -0.11,0.13 -0.17,0 -0.11,-0.13 -0.09,0 0,0.24 0.11,0.04 0.06,0.11 -0.63,0.04 -0.03,0.07 0.65,0 0.46,0.09 0.03,0.24 0.26,0.22 0,0.11 -0.08,0.09 0,0.33 0.08,0.04 0,0.13 -0.2,0 -0.2,-0.27 -0.11,-0.04 -0.03,0.04 0.23,0.22 -0.09,0.09 0.09,0.11 -0.06,0.16 -0.4,0.33 -0.11,0.22 -0.2,-0.04 -0.03,-0.07 -0.06,0.02 0.06,0.2 -0.2,0.11 0.11,0.02 0.14,0.13 0,0.09 -0.09,0.04 0,0.13 0.09,0.13 -0.06,0.11 0.03,0.13 -0.31,0.11 0,0.18 0.11,0.04 0,0.16 -0.14,-0.04 -0.03,0.09 -0.08,0 -0.08,-0.02 -0.06,-0.11 -0.28,0 -0.09,-0.09 -0.06,-0.22 -0.71,0.02 -0.23,-0.07 0,-0.09 -0.26,-0.04 -0.08,-0.18 -0.08,-0.02 -0.09,-0.27 -0.23,-0.11 -0.11,-0.13 0,-0.09 -0.48,-0.27 -0.26,0 -0.26,-0.31 -0.08,0.04 -0.26,-0.04 -0.28,-0.33 -0.14,-0.04 0.03,-0.11 -0.14,-0.07 0,-0.18 0.09,0.07 0.08,-0.04 0.43,0.02 0.03,-0.13 -0.09,-0.04 0,-0.09 0.06,-0.02 -0.06,-0.69 0.17,-0.18 0,-0.29 -0.08,-0.11 -0.09,0 0,-0.16 -0.06,-0.07 -0.23,0.13 -0.14,-0.04 0.03,-0.29 -0.31,-0.04 0,-0.11 -0.28,-0.22 0.03,-0.07 -0.08,-0.02 0,-0.2 -0.11,-0.09 0.03,-0.07 0.23,0.02 0,-0.18 -0.08,-0.04 0.03,-0.13 0.11,-0.02 0.03,0.16 0.14,0.07 0.31,0 0.09,-0.25 0.03,-0.36 0.37,-0.31 0.26,-0.02 -0.03,-0.04 -0.23,0 -0.06,-0.22 -0.06,-0.02 0,-0.22 0.2,-0.18 0.17,-0.04 0.11,-0.27 0.17,-0.2 -0.06,-0.02 -0.08,0.07 -0.2,0.38 -0.2,0.02 -0.14,0.09 -0.03,0.4 0.08,0.16 0,0.13 -0.34,0.29 -0.11,0.51 -0.09,0.07 -0.2,-0.04 -0.08,-0.2 -0.14,-0.11 -0.28,0.04 -0.17,0.2 -0.14,-0.07 -0.14,0.07 -0.11,-0.02 -0.17,-0.22 0.03,-0.11 0.08,-0.04 0,-0.09 -0.11,-0.09 -0.06,0.07 -0.11,0 0,-0.11 -0.06,-0.04 -0.26,-0.04 0.06,-0.04 -0.03,-0.09 -0.14,0.02 -0.06,-0.04 0.06,-0.1 -0.29,-0.01 -0.06,-0.16 -0.71,-0.02 0,0.13 -0.11,0.07 0,-0.13 -0.23,-0.09 -0.06,-0.09 -0.14,0.09 -0.17,-0.02 -0.03,-0.22 0.08,-0.11 -0.06,-0.04 -0.14,0.02 -0.03,-0.07 0.03,-0.4 0.26,-0.2 -0.06,-0.13 0.14,-0.07 0.09,-0.29 0.11,-0.16 0.09,-0.42 0.06,-0.02 -0.08,-0.04 -0.03,-0.13 0.03,-0.27 0.08,-0.04 -0.03,-0.07 -0.14,0.11 -0.06,0.13 0.08,0.42 -0.2,0.56 -0.14,0.07 0,0.07 -0.2,0.18 0,0.13 -0.26,0.02 -0.06,0.16 -0.06,-0.02 -0.03,0.09 -0.17,0.07 -0.11,0.16 -0.17,-0.02 -0.06,-0.16 -0.11,0.09 -0.11,-0.16 -0.17,0.04 -0.17,-0.09 -0.31,0 -0.2,0.07 -0.06,-0.09 -0.26,0 -0.06,0.16 -0.06,-0.04 -0.08,0.04 0.03,0.13 -0.17,0.02 -0.06,0.09 -0.48,0 -0.08,-0.07 -0.06,0.11 -0.14,0 0,0.11 -0.09,0.07 0.03,0.11 -0.06,-0.02 0.03,0.16 -0.17,0.13 -0.11,0.02 -0.11,-0.16 -0.23,0.09 0.03,0.04 -0.11,0.04 -0.03,0.09 -0.14,0.02 -0.06,-0.02 0.03,-0.04 -0.2,0.04 -0.06,-0.11 -0.2,0.09 0.03,-0.04 -0.11,0 -0.06,-0.07 -0.26,0 -0.06,-0.24 -0.17,0.07 -0.11,-0.09 -0.08,-0.2 -0.31,-0.16 -0.11,0.04 -0.11,-0.13 -0.06,0.04 -0.2,-0.02 0,-0.11 0.17,-0.38 0.06,-0.04 0.34,0 0.03,-0.13 0.08,-0.04 0.17,0.04 0.17,0.13 0.11,0 0.09,-0.04 0.06,-0.2 0.2,0 0.09,0.09 0.23,-0.04 -0.03,-0.04 -0.17,0.02 -0.11,-0.09 -0.31,-0.02 0,-0.38 0.23,-0.2 0.11,-0.22 0,-0.25 0.11,-0.07 0.09,-0.25 0.26,-0.2 0.4,-0.18 0.03,-0.13 0.46,-0.25 0,-0.07 -0.14,0.07 -0.11,-0.02 -0.28,0.16 -0.14,0 -0.03,-0.13 0.11,-0.09 -0.11,0 -0.23,0.27 -0.06,0.22 -0.11,0.02 -0.14,0.38 -0.2,-0.22 0.03,-0.07 -0.14,-0.07 0,-0.25 0.06,-0.07 -0.11,0 -0.03,0.31 0.06,0.11 0.23,0.18 0,0.29 -0.17,0.16 0,0.33 -0.23,0.25 0,0.33 0.06,0.04 -0.06,0.18 -0.14,0 -0.11,-0.13 -0.54,0.11 -0.03,-0.2 -0.26,-0.11 -0.23,0 -0.2,-0.18 -0.28,0.11 -0.17,-0.07 -0.14,0.04 -0.29,-0.04 -0.17,0.2 -0.34,-0.07 -0.11,-0.16 0.03,-0.13 -0.31,-0.04 -0.06,-0.13 0.03,-0.16 -0.11,-0.13 0,-0.22 0.14,-0.13 -0.03,-0.24 -0.08,-0.07 0.03,-0.22 -0.28,0.04 -0.09,-0.09 -0.03,-0.49 0.14,-0.2 0.08,-0.02 0.11,-0.4 -0.06,0 -0.03,-0.18 -0.06,0 -0.06,-0.18 -0.2,-0.22 -0.11,-0.04 -0.03,-0.11 0.06,-0.04 -0.06,-0.02 0.28,0 0.11,0.18 0.31,0 0.03,-0.13 0.22,0.02 0.18,-0.13 0.03,-0.36 0.06,0 -0.03,-0.09 0.09,-0.02 0,-0.11 0.23,-0.25 0.17,-0.64 0.54,-0.29 0.06,-0.09 0.11,0.02 0.06,-0.22 -0.2,0 -0.09,0.09 -0.4,0.13 -0.2,0.13 -0.2,0.27 -0.03,0.2 -0.08,0.04 0.03,0.09 -0.11,0.13 0,0.45 -0.11,0.09 -0.06,0.29 -0.11,0.04 -0.03,0.09 -0.37,-0.04 0,-0.09 -0.11,-0.09 -0.23,0.02 -0.03,-0.17 -0.11,-0.03 -0.09,0.07 0.03,0.2 -0.09,0.04 -0.23,-0.07 -0.37,0 -0.03,0.09 -0.14,0.04 -0.17,-0.09 -0.14,0.13 -0.26,-0.02 -0.08,0.04 0,0.16 -0.17,0 -0.06,-0.25 0.2,-0.09 0.03,-0.07 -0.06,-0.16 -0.11,-0.09 0,0.29 -0.09,0 -0.08,-0.13 -0.06,0.02 -0.08,-0.07 -0.17,0.07 -0.31,0 -0.03,-0.13 -0.2,-0.04 0.03,-0.16 0.06,0.02 0,-0.09 0.11,-0.02 -0.11,-0.09 0.06,-0.49 -0.11,-0.11 0.06,-0.09 -0.11,-0.11 0,-0.13 -0.11,-0.09 0.03,-0.09 -0.09,-0.11 0,-0.18 -0.14,-0.09 0.06,-0.13 -0.14,-0.02 -0.03,-0.04 0.08,-0.07 -0.08,0 -0.17,-0.18 -0.23,-0.09 0,-0.09 -0.09,-0.02 0,-0.18 0.11,-0.11 -0.03,-0.22 0.08,-0.09 0,-0.18 0.26,-0.45 -0.06,-0.07 0.03,-0.11 0.09,-0.02 -0.03,-0.11 0.06,-0.04 -0.03,-0.09 0.11,-0.29 0,-0.2 0.2,-0.02 0.26,0.13 0.26,0.02 -0.03,-0.13 -0.51,-0.22 -0.03,-0.16 0.11,0.02 0.23,-0.07 0.14,-0.2 0.37,-0.27 0,-0.13 0.08,-0.04 0.11,-0.29 0.14,-0.02 0.08,-0.16 -0.06,-0.18 0.11,-0.02 0,-0.09 0.11,-0.16 -0.03,-0.13 0.14,-0.04 0.2,-0.25 0.06,-0.4 -0.06,-0.09 -0.06,0.02 0.03,0.13 -0.11,0.22 -0.14,0.09 -0.14,-0.07 -0.06,0.18 -0.06,-0.02 -0.11,0.18 -0.08,0 0.03,0.11 -0.09,0.02 0.03,0.13 -0.06,0 -0.03,0.22 -0.14,0.16 -0.03,0.22 -0.26,0.22 -0.11,0.2 -0.2,0.11 -0.2,-0.09 -0.08,-0.13 0,-0.25 0.06,0 0,-0.07 -0.23,-0.13 -0.2,-0.22 0.06,-0.04 0,-0.27 -0.09,-0.07 0.03,-0.29 -0.09,-0.02 0,-0.16 -0.23,-0.25 -0.09,0 0.03,-0.09 -0.06,-0.02 -0.06,-0.2 -0.09,-0.02 -0.06,-0.18 -0.28,-0.29 -0.11,0 -0.23,0.13 0,0.11 -0.2,0.2 0.08,0.11 -0.06,0.04 0.03,0.29 -0.11,0.09 -0.11,0 -0.23,-0.11 -0.11,-0.22 0.09,-0.45 0.31,-0.29 0.37,-0.16 0.17,-0.13 0.06,-0.09 -0.08,-0.02 -0.17,0.18 -0.4,0.18 -0.31,0.27 -0.08,0.18 -0.03,0.33 0.23,0.36 0.34,0.04 0.17,-0.16 0.03,-0.29 0.17,-0.25 0.26,0 0.08,0.16 -0.03,0.13 0.09,0.04 -0.03,0.07 0.06,0 0.08,0.16 0,0.36 0.06,0.02 0.03,0.25 0.06,0.04 -0.06,0.25 0.08,0.02 0.14,0.2 0.11,0.02 0,0.11 -0.14,0 0,0.04 0.37,0.31 -0.03,0.16 -0.17,0.22 0,0.18 -0.09,0.09 -0.65,-0.02 -0.11,0.09 0.03,0.13 -0.17,0.04 -0.17,-0.27 -0.08,0 0,0.07 0.23,0.27 0.14,0 0.23,-0.13 0.29,0.04 0,0.11 -0.09,0.09 0.06,0.07 -0.03,0.71 0.23,0.27 0.03,0.29 -0.06,0.13 -0.2,0.07 0.06,0.04 0,0.16 -0.11,0.27 -0.14,0 -0.11,0.11 -0.43,0.09 0.03,0.18 -0.09,0.07 -0.2,-0.02 0.03,-0.09 -0.11,-0.04 -0.06,0.18 -0.28,0.02 -0.17,0.13 0.06,0.11 -0.23,0.04 -0.03,0.11 0.06,0.07 -0.14,0.18 -0.34,0.07 0,0.07 -0.37,-0.22 -0.34,-0.09 -0.11,0.18 0.03,0.11 -0.06,0.16 0.06,0.02 0,0.11 -0.14,0.27 -0.23,-0.04 -0.08,-0.18 -0.26,-0.22 -0.06,-0.16 0.03,-0.07 -0.11,-0.09 0.03,-0.04 -0.11,0.02 -0.09,-0.2 0,-0.42 0.06,-0.04 -0.11,0 -0.11,0.4 -0.26,-0.02 -0.17,-0.11 0,-0.22 0.11,-0.2 -0.06,-0.2 -0.03,-0.04 -0.23,0.04 0.2,0.11 -0.03,0.16 -0.08,0.09 0.06,0.09 0,0.38 0.26,0 0.11,0.18 0.2,0.13 0,0.07 0.2,0 0.17,0.31 0.17,0.09 0.23,0.36 0.17,0 0.11,-0.09 0.29,0.02 0.08,-0.09 0.2,-0.04 0.08,0.07 0.29,-0.04 0.14,0.04 0.06,-0.13 0.2,0 0.06,-0.13 0.26,-0.13 0.03,-0.18 0.14,-0.07 -0.03,-0.25 0.2,-0.27 0.34,0.07 0.2,-0.16 0.06,0.02 0.06,-0.07 0.14,-0.02 0,-0.04 0.08,0.04 0.11,-0.07 0.14,0.02 0.2,0.31 0.2,0.02 0,0.16 -0.11,0.02 -0.11,-0.07 -0.09,0.02 -0.03,0.11 0.2,0.02 0.09,0.11 0.17,0.02 0.11,0.11 0,0.09 -0.31,0.13 0.34,0.07 0.03,0.11 0.09,-0.04 -0.03,0.07 0.08,0.02 0.06,0.13 0,0.11 -0.09,0.04 0.03,0.04 -0.06,0.09 -0.17,0.11 -0.31,-0.02 -0.11,-0.09 -0.03,0.11 -0.46,0.11 0,0.07 -0.08,0 0.03,0.07 -0.09,0.07 -0.06,0 0,-0.09 -0.2,-0.02 -0.29,0.22 -0.26,0 0,0.07 0.37,0.02 0.03,0.04 0.26,-0.04 0.06,0.07 0.14,0 0.03,0.13 -0.09,0.09 0.17,0.07 0.06,0.33 0.11,-0.13 -0.03,-0.22 0.23,-0.02 0.06,-0.13 0.54,0.16 0.03,0.11 -0.09,0.11 0.09,0.16 -0.03,0.18 -0.28,0.07 -0.03,0.25 -0.06,0.02 -0.11,0 0,-0.11 -0.11,-0.02 0.09,0.13 -0.03,0.09 0.11,-0.04 0.03,0.07 0.29,-0.2 0.31,-0.09 0.03,-0.09 -0.09,0.02 -0.03,-0.11 0.2,-0.21 0.09,0.01 0.11,-0.11 0.14,-0.02 0.06,-0.2 0.09,-0.09 0.2,0 0.08,-0.07 0.06,0.18 0.17,0.07 -0.06,0.27 0.23,0.18 0.09,0.18 -0.03,0.42 -0.23,0.13 -0.03,0.09 -0.14,-0.02 -0.06,0.04 -0.03,-0.04 -0.26,0.13 -0.23,0.02 -0.03,0.07 -0.14,-0.02 -0.57,0.56 0,0.2 -0.06,0.09 0.09,-0.02 0.06,0.13 0.37,0.27 0.11,0.16 0,0.47 -0.31,0 -0.03,-0.04 -0.57,0.04 -0.11,-0.04 -0.17,0.11 -0.06,-0.02 -0.11,0.16 -0.11,0 -0.17,0.31 -0.17,0.02 -0.14,-0.24 0.14,-0.11 0,-0.07 -0.17,-0.29 0.31,-0.18 0.09,-0.22 -0.37,-0.58 -0.63,-0.49 -0.23,-0.27 -0.57,-0.36 -0.26,-0.07 -0.03,-0.09 -0.11,0 -0.46,-0.38 -0.14,0 -0.03,-0.09 -0.17,-0.04 -0.08,-0.09 -0.09,0.02 -0.06,-0.09 -0.4,-0.09 -0.09,-0.11 -0.23,0.02 -0.03,-0.09 -0.48,-0.04 -0.06,-0.09 -0.11,0 0.09,0.04 -0.29,-0.02 -0.03,0.04 -0.06,-0.11 -0.14,0 0,0.09 -0.17,0 0.03,-0.07 -0.2,0.02 -0.2,-0.07 -0.23,0.04 0,0.09 -0.03,-0.04 -0.09,0.02 -0.06,0.13 -0.65,-0.18 -0.4,0 -0.23,0.09 -0.28,0 -0.6,-0.16 -0.43,-0.2 -0.31,0.11 -0.85,-0.04 -0.23,0.04 -0.09,0.09 -0.71,0.02 -0.14,0.09 -0.2,-0.02 -0.03,0.09 -0.17,0.04 -0.09,0.16 -0.08,0 0.03,0.04 -0.08,0.02 0,0.07 -0.14,0.09 -0.06,0.11 -0.23,0.11 0.11,0.07 0.06,0.16 -0.11,0.2 0,0.11 0.09,0.02 -0.03,0.07 -0.26,0.02 -0.08,0.16 -0.8,0.29 0.14,0.27 -0.06,0 -0.06,0.16 -0.09,0.04 -0.37,-0.07 -0.26,-0.13 -0.2,0.04 -0.14,-0.16 -0.28,0 0,0.31 -0.06,-0.02 -0.08,0.18 -0.43,-0.02 -0.03,0.07 -0.31,0 0.03,0.07 -0.17,0.11 -0.11,-0.02 -0.11,0.09 -0.14,-0.02 -0.11,0.13 -0.26,0.09 -0.11,-0.02 -0.11,0.09 -0.06,0 0.03,-0.07 -0.17,0.04 -0.14,-0.07 -0.26,0.07 -0.09,-0.04 -0.03,-0.11 -0.17,0.02 -0.17,-0.09 -0.03,-0.09 -0.4,-0.07 -0.57,-0.29 -0.17,0.07 -0.23,-0.07 -0.29,0.2 -0.06,0.11 -0.17,0.07 0,0.11 -0.06,0 0.03,0.16 -0.08,0.04 -0.23,-0.09 -0.03,-0.13 0.06,-0.02 0,-0.09 -0.09,-0.07 -0.48,0.07 -0.11,0.25 -0.09,0.04 -0.63,0 0.03,-0.04 -0.17,0.04 -0.34,-0.16 -0.08,-0.18 0.08,-0.16 0.23,0.04 0.03,-0.09 0.14,-0.09 0,-0.07 0.2,-0.09 0.17,0 0.06,-0.11 0.26,0.04 0.06,-0.07 -0.34,-0.02 0,0.04 -0.2,0.09 -0.17,-0.04 0.03,-0.29 -0.09,-0.27 0.06,-0.04 0.03,-0.33 0.06,-0.07 -0.34,0.02 -0.06,-0.04 0.09,-0.31 -0.09,-0.16 -0.03,-0.29 0.06,-0.16 0.48,0.09 0.17,-0.13 -0.34,0.07 -0.34,-0.13 0.03,-0.25 0.11,-0.09 -0.03,-0.33 -0.09,-0.13 0.06,-0.16 -0.03,-0.11 0.09,-0.11 -0.03,-0.29 -0.09,0 0,0.36 -0.06,0.09 -0.09,-0.02 -0.17,-0.27 -0.23,-0.18 -0.06,-0.13 -0.2,-0.09 -0.08,-0.13 -0.11,-0.04 -0.14,-0.29 -0.14,-0.11 -0.03,0.04 0.26,0.36 0.03,0.29 0.34,0.2 0.23,0.25 0,0.07 0.31,0.2 0,0.31 -0.08,0.36 0.08,0.16 -0.03,0.56 0.11,0.22 -0.06,0.33 0.08,0.09 0.2,0.02 0.09,0.13 -0.14,0.18 0.11,0.29 -0.08,0.09 -0.03,0.16 -0.4,0.31 -0.23,0.36 -0.26,0.04 0,0.04 -0.06,-0.07 -0.06,0.24 -0.34,0.04 -0.2,0.09 -0.2,-0.09 0,0.16 -0.09,0.02 0,0.42 -0.11,0.11 -0.2,-0.02 -0.11,-0.29 -0.2,-0.02 0,-0.09 -0.14,-0.04 0,-0.16 0.08,-0.09 -0.03,-0.67 0.06,-0.56 -0.2,-0.11 -0.06,-0.13 -0.11,0 0,-0.18 -0.09,-0.09 0.03,-0.16 -0.23,0 -0.06,-0.07 -0.2,0.04 -0.06,0.04 0.06,0.22 -0.17,-0.02 0.03,0.09 -0.14,0.16 -0.26,0.02 -0.31,0.18 -0.68,0.04 -0.03,0.07 -0.26,0.04 -0.08,0.11 -0.2,0.02 -0.2,0.22 -0.4,0 -0.26,0.27 -0.14,0 -0.08,0.18 0.03,0.16 -0.17,0.02 -0.08,0.09 0,0.16 0.06,0.02 -0.03,0.13 0.06,0.04 0,0.18 0.06,0.02 -0.06,0.24 0.08,0.07 0,0.16 0.11,0.13 0.26,0.07 0.09,0.09 0.03,0.16 -0.06,0.02 -0.03,0.2 0.06,-0.04 0.08,0.36 -0.17,-0.04 0,-0.09 -0.08,0 -0.11,0.11 -0.14,-0.16 -0.09,0 -0.11,0.16 0,0.09 -0.26,0.11 -0.06,0.13 -0.06,0 0.06,0.07 -0.09,0.11 -0.37,0.18 -0.14,0.27 0.06,0.13 -0.03,0.09 0.08,0 -0.03,0.16 0.26,0.2 -0.11,0.07 0.03,0.07 -0.14,0.07 0.06,0.07 -0.14,0.04 0,0.2 0.06,0.04 -0.06,0.02 0.03,0.11 -0.08,0.02 0,0.09 0.11,0.04 0,0.09 0.06,0.02 -0.11,0.13 0,0.22 -0.09,0.04 0.14,0.02 0.17,0.18 0.43,0.09 0.06,0.09 0.23,0 0.03,0.04 -0.31,0.07 0.14,0.11 -0.03,0.18 -0.23,0.16 -0.23,0 -0.4,0.38 0.03,0.11 -0.09,0.11 -0.03,0.18 0.17,0.04 0,0.09 0.11,0.04 0.03,0.09 -0.03,0.07 -0.08,0 -0.03,0.13 -0.14,-0.02 -0.28,0.09 -0.31,0.27 -0.03,0.31 0.06,0.04 0.03,0.29 -0.06,0.24 -0.37,0.11 0.03,-0.09 -0.06,-0.11 -0.09,0 -0.08,-0.2 -0.09,0.02 0,-0.09 -0.08,-0.04 -0.06,-0.44 -0.2,-0.02 -0.08,-0.09 -0.46,0.11 -0.11,-0.02 -0.08,-0.18 -0.34,0.04 -0.11,-0.13 0.03,-0.11 -0.06,-0.13 -0.08,-0.02 -0.06,0.18 -0.4,0 -0.03,-0.04 -0.11,0.02 0,0.04 -0.54,-0.02 -0.03,0.09 -0.17,0.09 -0.11,0.18 -0.11,-0.02 0.03,0.09 -0.11,0.18 -0.03,0.22 -0.14,0.02 -0.03,0.07 -0.2,-0.02 -0.09,0.11 0,0.11 -0.14,0.09 -0.03,0.11 -0.08,0 -0.14,0.11 0,0.13 -0.14,0.18 -0.11,0.02 -0.06,-0.07 -0.14,0.04 -0.14,0.24 0.14,0.16 -0.14,0.27 -0.2,-0.09 -0.11,0.04 0,0.42 -0.17,0.04 -0.06,0.18 -0.23,0.09 -0.06,0.09 -0.14,-0.04 0.03,-0.2 -0.06,-0.09 0,-0.2 -0.11,0 0,-0.09 -0.11,-0.04 -0.26,-0.29 -0.77,0.09 -0.03,0.07 -0.51,0.29 -0.03,0.16 -0.17,0.13 0.03,0.18 -0.17,0.07 -0.17,0.24 0.03,0.27 0.06,0 -0.03,0.22 -0.11,-0.02 -0.09,0.09 -0.08,-0.04 -0.03,0.07 -0.06,0.35 0.2,0.09 -0.14,0.4 0.06,0.78 -0.14,0.09 0,0.09 -0.08,0.02 -0.06,0.11 -0.17,0.04 -0.14,0.16 0.06,0.22 -0.03,0.11 0.09,0.02 0.03,0.13 -0.14,0.18 -0.34,-0.02 -0.23,0.07 -0.14,0.29 -0.2,0.11 -0.03,0.11 -0.14,0.07 -0.11,0.18 -0.09,0 0.03,0.04 -0.11,-0.02 -0.09,-0.11 -0.2,0.02 0.06,-0.42 -0.11,-0.09 -0.03,-0.24 0.4,-0.31 0,-0.07 0.11,0.04 -0.03,0.16 0.17,0.04 0.03,-0.13 0.26,-0.31 0.03,-0.4 0.11,-0.02 0,0.04 0.17,0.02 -0.2,-0.13 0.09,-0.29 -0.31,-0.04 -0.06,-0.11 0.03,-0.11 0.23,0.02 0.09,-0.07 0,-0.13 0.11,-0.04 0.09,-0.29 -0.09,0 -0.11,0.13 0,-0.16 -0.09,-0.02 0.03,0.2 0.06,0 -0.09,0.24 -0.06,0.07 -0.29,0 0,0.07 0.06,0 -0.03,0.13 0.17,0.13 0,0.13 -0.23,0.22 0.06,0.42 -0.09,0.04 -0.17,-0.02 -0.03,-0.11 -0.2,-0.07 0,0.07 -0.11,0.07 -0.2,0 -0.14,0.2 -0.14,0 -0.17,-0.24 0,-0.16 0.06,-0.2 0.17,-0.2 0,-0.31 0.11,-0.18 0,-0.11 -0.11,-0.11 0.23,-0.35 -0.08,-0.31 0.2,-0.09 0,-0.09 -0.2,0.02 0,0.07 -0.23,0.07 -0.11,-0.27 -0.11,-0.93 -0.17,-0.4 -0.08,-0.07 -0.31,-0.02 -0.03,-0.04 -0.11,0.07 -0.23,0 -0.23,0.22 0,0.15 -0.08,0.04 -0.06,0.22 -0.08,0.09 -0.14,0 0,-0.09 0.08,-0.07 0,-0.29 -0.2,-0.11 -0.03,-0.11 -0.11,0 -0.03,-0.29 0.06,-0.11 -0.09,-0.11 -0.06,0.02 0,0.16 -0.17,0.02 -0.2,-0.18 -0.26,0.02 -0.14,-0.16 -0.11,0.04 0,0.07 -0.08,-0.07 -0.31,-0.02 0.06,0.16 0.26,-0.07 0.06,0.13 0.23,-0.07 0.06,0.07 0.17,0.02 0.08,0.09 -0.03,0.18 0.14,0.24 0.23,0.07 0.17,0.16 0.08,0.18 0,0.18 0.4,0.24 0.09,0.49 -0.06,0.33 -0.34,0.09 -0.2,-0.04 -0.23,-0.24 -0.11,-0.02 0,0.09 0.11,0.07 0,0.07 0.2,0.09 0.2,0.04 0.37,-0.04 0.06,0.07 0.14,-0.02 0.23,0.11 0.08,0.07 0,0.29 -0.03,0.2 -0.37,0.46 -0.08,0.2 -0.17,0.02 -0.17,-0.11 -0.46,0.02 -0.06,-0.18 -0.23,-0.22 -0.09,0 -0.06,0.11 -0.06,0 -0.09,-0.04 0,-0.09 -0.23,0.07 -0.14,-0.16 -0.17,-0.02 -0.09,0.16 0.2,0.04 0.14,0.16 0.06,0 -0.06,-0.09 0.28,-0.02 0.06,0.09 0.2,0.09 0.11,0.13 0.06,0.24 0.23,0.29 0.23,0.18 0.17,0.02 0.03,-0.24 0.09,-0.09 0.11,0 0,0.16 0.11,0.09 0.14,-0.04 0.08,-0.13 -0.03,0.18 0.11,0.07 0.2,0.49 0.14,0.16 -0.03,0.11 -0.34,-0.09 -0.11,-0.09 0,-0.07 -0.2,-0.11 -0.14,0.02 -0.23,0.18 -0.29,0.04 -0.08,0.07 0.03,0.11 -0.06,0.13 -0.09,-0.04 -0.14,0.09 -0.17,-0.04 -0.03,-0.24 -0.08,-0.04 0.06,0.31 0.09,0.07 0,0.16 0.06,0.11 0.11,0.04 0.03,0.13 -0.37,0.2 -0.09,0.22 -0.26,0.15 -0.29,0.04 -0.08,0.07 0.03,0.07 0.23,0.02 0.03,0.33 -0.11,0.07 0,0.42 0.11,0.11 0.26,0.07 0.11,0.09 0,0.11 -0.23,0.11 0,0.09 -0.11,0.09 0.06,0.11 -0.2,0.16 -0.2,0 -0.17,0.13 -0.03,0.11 -0.29,-0.02 0,-0.13 -0.08,0 0.03,-0.09 -0.11,0.02 0,-0.04 -0.2,-0.07 -0.11,0.07 -0.17,-0.04 -0.03,0.07 -0.2,0.09 -0.03,0.13 -0.11,0.09 -0.11,0 -0.08,-0.09 -0.31,0.02 -0.06,-0.07 -0.29,0 0.09,-0.13 0,-0.11 -0.09,-0.02 0,-0.2 0.29,-0.22 0,-0.04 -0.11,0 0,0.07 -0.23,0.2 0,0.22 0.06,0.11 -0.23,0.35 -0.14,0.02 -0.14,-0.11 -0.08,0 -0.08,0.07 0,0.09 -0.48,0.02 -0.11,-0.13 0,-0.13 0.09,-0.07 0,-0.11 -0.06,0 0,0.07 -0.09,0.04 0,0.29 0.17,0.13 0.26,0.02 -0.03,0.13 -0.17,-0.02 -0.11,0.07 -0.11,-0.04 -0.4,0.27 -0.29,-0.04 -0.11,0.09 -0.37,0.02 -0.11,-0.09 -0.11,0 0,0.09 0.28,0.13 -0.17,0.22 0.06,0.04 0.26,-0.31 0.26,-0.13 0.11,-0.02 0.2,0.11 0.2,-0.2 0.2,-0.02 0.09,-0.07 0.46,0 0,-0.11 0.26,0.07 0,-0.13 0.51,-0.2 0.14,0 0.03,0.09 0.2,-0.02 0.06,0.09 -0.08,0.04 0,0.07 0.46,-0.22 0.46,0 0.34,0.18 0.26,-0.07 0.23,0.15 0.11,0.18 0.26,0 0.03,0.2 -0.17,0.04 -0.31,-0.09 -0.03,0.13 -0.31,0.11 -0.06,0.11 0.17,-0.11 0.11,0 0.14,-0.13 0.17,0.13 0.57,-0.07 0.08,0.18 0.11,0.02 0,0.04 0.17,-0.04 0.08,-0.16 0.17,0 0,0.07 -0.11,0.09 0.11,0.26 -0.11,0.11 0.03,0.18 -0.14,0.07 0.06,0.09 0,0.4 -0.06,0.04 0,0.11 0.54,0.02 0.14,0.13 -0.03,0.2 0.09,0.11 0.11,0.02 0.09,0.2 -0.03,0.18 -0.11,0.04 -0.03,0.09 0.23,0.07 0.23,0.22 -0.17,0 -0.03,0.11 -0.26,0.07 0,0.09 -0.11,0.09 0,0.55 -0.14,0.07 0,0.18 0.14,0.11 -0.08,0.04 -0.06,0.16 -0.37,0.02 -0.11,0.11 -0.23,0.04 -0.2,-0.02 -0.17,0.11 -0.06,0.09 0.03,0.04 -0.23,0.11 -0.08,0.26 0.17,0.04 0.03,0.13 -0.14,0.07 0,0.07 0.11,0.27 0.11,0.02 0.03,0.11 -0.09,0.02 -0.14,-0.07 0,0.13 -0.08,-0.02 -0.03,0.29 0.06,0.02 -0.06,0 0.03,0.09 -0.06,0 0,0.09 -0.06,0.02 0,0.22 -0.06,0.09 -0.31,-0.04 -0.17,0.15 -0.17,0 -0.14,-0.26 -0.2,0 -0.03,-0.15 -0.09,-0.07 -0.14,0.13 -0.08,0 -0.08,-0.09 -0.2,0.04 0,0.17 -0.11,0.01 -0.14,-0.17 -0.48,0.02 -0.14,0.07 -0.23,0 -0.14,-0.07 -0.11,0.07 0.11,0.09 -0.03,0.09 -0.06,0 -0.03,-0.09 -0.11,0 -0.03,-0.07 -0.06,0.02 0,0.11 -0.2,0.11 0,0.09 -0.08,0.07 0.02,0.16 -0.07,0.11 -0.09,0.02 0.07,0.53 -0.24,0.29 -0.21,0.11 -0.07,0.35 -0.14,0.13 -0.11,0.02 -0.04,0.4 -0.11,0.09 0.09,0.29 0.1,0.04 -0.01,0.11 0.08,0.05 -0.13,0.2 0.01,0.18 -0.16,0.02 -0.13,0.11 -0.21,-0.15 -0.11,0 -0.1,0.11 0.08,0.18 -0.03,0.07 -0.37,0 -0.01,0.11 -0.09,0 -0.1,-0.15 -0.11,0 -0.07,0.07 -0.11,-0.02 -0.06,0.07 0.07,0 0.01,0.09 -0.11,0.09 -0.09,-0.02 0,-0.11 0.06,-0.04 -0.06,-0.46 0.06,-0.09 -0.09,-0.04 0.07,-0.13 -0.09,-0.04 -0.04,-0.26 -0.09,-0.04 -0.28,0.02 -0.06,-0.15 -0.08,0 -0.03,-0.09 -0.04,0.18 -0.16,0 -0.06,-0.09 0.03,-0.04 -0.06,-0.02 0.03,-0.09 -0.26,-0.02 -0.03,0.09 -0.13,0 -0.27,-0.13 -0.09,-0.15 0.06,-0.07 -0.04,-0.15 0.1,-0.13 -0.01,-0.11 0.11,-0.02 0,-0.04 -0.41,-0.15 -0.17,-0.22 0.01,-0.07 0.2,-0.13 -0.16,-0.4 -0.21,0.07 -0.36,-0.29 0.02,-0.24 -0.11,-0.04 0,-0.29 0.2,-0.04 0.14,-0.24 -0.03,-0.18 0.23,-0.11 0,-0.07 -0.09,0 -0.08,-0.18 0.08,0 0.06,-0.11 -0.06,-0.07 0.09,0 0.11,-0.18 0,-0.16 -0.08,0 -0.17,-0.13 -0.08,-0.2 -0.06,0.02 -0.06,-0.09 -0.06,-0.31 0.2,-0.04 0.03,-0.07 -0.29,-0.07 0.03,-0.29 -0.2,0.02 0,-0.22 -0.48,-0.09 -0.03,-0.11 -0.06,0 0,-0.09 0.31,-0.42 -0.11,-0.07 0,-0.15 -0.09,-0.11 0.03,-0.22 -0.06,0 -0.14,-0.29 -0.48,-0.53 0.03,-0.31 0.37,0 0.11,-0.09 0,-0.04 -0.26,0.04 -0.14,-0.11 0,-0.09 0.11,-0.16 0,-0.49 0.11,-0.04 0.09,-0.18 -0.09,-0.02 -0.37,0.15 0.14,0.11 0,0.49 -0.08,0.11 -0.03,0.2 -0.31,0.07 -0.4,-0.44 -0.09,0 -0.08,-0.15 -0.2,-0.11 -0.03,-0.09 -0.11,-0.07 -0.23,0 -0.17,-0.2 -0.2,-0.07 0.03,-0.11 -0.31,-0.31 -0.77,-0.09 -0.2,0.13 -0.23,0.02 -0.08,0.09 -0.23,0 -0.2,-0.38 -0.28,0.02 -0.06,-0.04 0.06,-0.07 -0.09,-0.04 0.06,-0.04 -0.09,-0.02 -0.03,-0.16 -0.09,0 -0.14,-0.18 -0.48,-0.27 -0.2,-0.02 -0.06,0.13 -0.2,0.13 -0.14,-0.02 0,-0.07 -0.29,-0.2 -0.23,-0.02 -0.2,0.16 0.03,0.22 -0.2,-0.07 -0.03,0.09 -0.17,-0.02 -0.03,0.09 -0.17,0 -0.14,0.11 -0.08,-0.07 0.08,-0.04 0,-0.2 0.06,-0.02 -0.03,-0.18 -0.06,0 0.03,-0.11 -0.28,-0.07 -0.03,-0.22 -0.29,-0.18 -0.03,-0.09 -0.2,-0.02 -0.14,0.09 -0.06,-0.09 -0.09,0 -0.06,-0.15 -0.14,0 0,-0.29 -0.28,-0.15 -0.09,-0.24 -0.08,0 -0.03,-0.07 -0.29,0 -0.06,0.07 -0.2,-0.02 -0.06,0.04 -0.03,-0.13 -0.26,-0.22 -0.54,-0.16 -0.4,0 -1.42,0.24 -0.06,0.11 -0.08,0.02 0.03,0.64 -0.09,0 0,0.07 -0.23,0 -0.11,0.16 -0.14,0.02 0,0.07 -0.29,0.2 0,0.11 -0.06,0.04 0.03,0.16 0.26,0.27 -0.03,0.07 -0.06,-0.02 0,0.18 0.14,0.07 0.11,0.16 0.03,0.33 0.31,0.27 -0.14,0.22 -0.03,0.2 -0.14,0.13 0,0.31 -0.06,0 -0.14,0.53 -0.08,0.18 -0.23,0.18 -0.03,0.24 -0.11,0.24 -0.11,0.09 -0.06,-0.02 0,0.07 -0.14,0 -0.34,-0.22 0,0.35 -0.68,0.53 -0.06,-0.07 -0.03,0.04 -0.29,-0.07 -0.06,0.07 -0.14,0 -0.03,0.07 -0.14,0.02 -0.14,-0.15 -0.14,0.02 -0.06,0.07 -0.03,-0.07 -0.08,0 -0.2,0.13 -0.08,0.18 -0.2,0 -0.11,-0.07 -0.23,0.04 -0.08,-0.11 -0.14,0.07 -0.11,-0.04 -0.14,0.07 0,0.2 -0.06,-0.02 0,0.07 -0.06,0 0.03,0.09 -0.06,0.09 -0.11,0.09 -0.14,-0.07 -0.03,0.18 -0.14,0.11 -0.06,0 0,-0.11 -0.14,-0.18 -0.23,0 -0.03,0.09 -0.08,-0.07 -0.2,0 0,0.13 0.09,0.02 0,0.07 -0.14,0.11 -0.03,0.13 -0.17,-0.04 -0.14,-0.13 -0.08,0.16 -0.11,0.02 -0.11,-0.07 -0.31,0.24 -0.31,0.02 -0.17,-0.02 -0.09,-0.16 -0.17,0 0,-0.09 -0.06,0 0.11,-0.04 0,-0.07 -0.4,-0.46 0,-0.07 0.11,0 0.03,-0.2 -0.2,-0.09 -0.11,0.02 0.03,-0.38 -0.23,-0.07 -0.03,-0.07 -0.06,0.07 -0.17,0 -0.03,0.07 -0.11,-0.09 0,-0.18 -0.2,0 0,-0.29 -0.11,0 -0.03,-0.13 -0.08,0 -0.09,-0.38 0.03,-0.11 -0.06,-0.04 0.17,-0.02 0.2,-0.16 0.06,-0.15 -0.06,-0.27 0.06,-0.09 0.17,-0.07 0.31,0.02 0.23,-0.15 0.11,-0.2 0,-0.27 0.08,-0.09 0,-0.04 0.11,-0.02 0,-0.16 -0.08,-0.09 0.06,-0.09 -0.11,-0.11 -0.14,-0.02 0,-0.15 -0.11,-0.07 -0.03,-0.22 -0.06,0 0.06,-0.07 0.03,-0.24 -0.14,-0.33 0.09,-0.22 -0.17,-0.16 0,-0.11 0.06,-0.04 -0.06,-0.24 0.03,-0.13 -0.09,0 0,-0.07 -0.08,-0.02 0,-0.07 -0.11,-0.07 0.03,-0.04 -0.06,0 0.03,-0.27 -0.17,0 -0.06,-0.13 0.09,-0.02 0.03,-0.09 0.26,0.04 0,-0.31 -0.08,-0.11 0.03,-0.13 0.14,0 0.08,-0.13 0.2,0.02 0.11,-0.09 0,-0.27 0.06,-0.09 -0.08,-0.07 0,-0.24 0.14,-0.2 -0.03,-0.16 0.14,-0.13 0.11,0 0,-0.09 0.11,-0.02 0.11,-0.18 0.08,0 0.09,-0.27 0.2,-0.13 0.08,-0.2 0.06,0 -0.06,-0.2 0.06,0.02 0.11,-0.09 0.68,0.22 0.03,-0.13 0.11,-0.11 0.14,-0.07 0.31,-0.02 0,-0.04 0.17,0.07 0.11,-0.02 0,0.04 0.34,-0.04 0,0.07 0.11,0.02 0.17,-0.13 0,-0.07 0.14,-0.04 -0.06,-0.07 0.06,-0.16 0.14,-0.13 0.09,0.02 -0.06,-0.2 0.14,-0.07 0.03,-0.16 0.11,0.02 -0.03,-0.04 0.06,0 0.09,-0.16 0.2,0 0.14,0.07 -0.14,-0.33 0.08,-0.09 0.17,0.02 0.08,-0.09 0.09,-0.24 0.08,-0.02 -0.03,-0.2 0.06,-0.04 0.14,0.09 -0.03,0.09 0.11,0.2 0.23,-0.04 -0.03,-0.09 0.08,-0.11 0.2,0.02 0,-0.29 0.14,-0.04 0.09,0.07 0.11,-0.07 0,-0.24 0.14,-0.16 0.11,-0.07 0.14,0.24 0.29,-0.11 0.03,-0.11 0.11,-0.02 0,-0.09 0.11,-0.04 0.06,-0.11 0.2,0.04 0.06,-0.24 -0.09,0 0,-0.09 0.06,-0.09 0.23,-0.02 0.08,-0.18 0.34,-0.02 0.03,-0.16 0.11,-0.07 0.03,-0.09 0.29,0.16 0.4,0 0.23,-0.09 0.06,-0.16 0.11,-0.02 0.14,0.13 0.17,0 0.03,-0.11 0.08,-0.04 0,-0.09 0.11,0.02 0,0.07 0.14,0 0.08,-0.07 0.08,0.02 0.09,-0.13 0.23,0.04 0.14,0.22 0.2,-0.04 0.11,0.16 0.26,-0.04 0.08,-0.09 0,-0.18 0.29,0.04 0.03,0.09 -0.11,-0.02 0,0.2 -0.17,0.04 0,0.16 0.03,0.09 0.11,0.04 -0.03,0.11 0.08,0.11 0.2,0.02 0.06,0.11 0.11,0.04 0,0.04 -0.06,-0.02 0.06,0.49 0.31,0.16 0.26,0 0.06,-0.07 0.08,0.2 0.11,0.07 0.74,0.09 0.03,0.07 -0.06,0.07 0.17,0.16 0.03,0.11 0.2,0.07 0,0.18 -0.23,0.04 -0.09,0.13 -0.06,0.44 0.06,0.11 0.11,-0.02 0.14,-0.2 0,-0.22 0.06,-0.09 0.23,-0.13 0,-0.09 -0.08,-0.02 -0.03,-0.27 -0.26,-0.09 -0.06,-0.11 0.11,-0.11 0.09,-0.35 0.91,-0.67 0,-0.09 0.6,-0.67 0.14,-0.47 0.06,0 0.03,-0.16 0.14,-0.11 0.03,-0.16 0.06,-0.02 0.03,-0.2 -0.09,-0.04 0.06,-0.13 -0.08,-0.33 -0.09,-0.02 -0.03,-0.29 0.09,-0.07 0.14,0.02 0,0.04 0.2,-0.07 0.11,0.07 0.2,-0.27 0.2,-0.04 0,0.09 0.11,0.02 -0.03,0.18 0.2,0.16 -0.06,0.09 0.2,0.07 0.11,-0.11 0.2,0 0.06,-0.11 0.14,0 0.11,-0.09 0.26,0 0.11,0.11 0.2,0.02 0.08,0.07 0.17,-0.13 0.26,-0.02 0.26,-0.22 0.11,0 0.03,-0.09 0.14,-0.04 0.14,-0.24 0.09,0 -0.06,-0.07 0.03,-0.09 0.31,-0.02 0,-0.18 0.14,-0.16 0,-0.07 -0.11,-0.02 0,-0.07 0.17,-0.02 0.06,-0.18 0.14,-0.07 -0.03,-0.04 0.11,-0.02 0,-0.07 0.11,-0.02 0.06,-0.16 0.17,0 0.03,0.07 0.11,-0.04 0.11,0.09 0,-0.07 0.09,-0.02 0,-0.16 0.34,-0.02 0,-0.11 -0.08,-0.02 -0.06,-0.16 0.23,-0.02 0.23,-0.36 0.23,-0.18 0.51,0 0.03,-0.04 -0.06,-0.07 0.23,0 -0.03,-0.2 0.06,-0.09 0.29,-0.13 0.23,0.02 0,-0.11 0.2,-0.09 0.06,-0.2 0.11,-0.02 -0.03,-0.07 0.08,-0.02 -0.06,-0.13 0.08,-0.09 0,-0.18 0.14,-0.18 0.06,-0.33 0.06,-0.09 0.11,0.02 0,-0.07 -0.06,0 0,-0.16 0.08,-0.18 0,-0.51 -0.06,-0.02 0.03,-0.58 0.29,-0.02 0.08,-0.09 0.17,-0.04 0.09,-0.11 0.68,0.11 0.29,-0.11 0.08,0.04 0.03,0.11 0.06,0 0.08,-0.16 0.09,-0.02 -0.06,-0.07 0.11,-0.22 0.17,-0.02 0,-0.11 0.11,-0.07 0.06,-0.11 -0.03,-0.16 0.17,-0.09 0.11,0.04 0.06,-0.11 0.08,0 0.03,-0.27 -0.06,-0.07 0,-0.18 0.31,-0.02 0.06,-0.07 0.14,0.04 0.23,-0.29 0.2,0 0.06,-0.16 0.09,0 -0.06,-0.07 0.11,0 0.14,-0.11 0.11,0.04 0.06,-0.22 -0.09,-0.09 0.09,-0.36 0.11,-0.11 0,-0.25 0.09,-0.09 0.06,-0.58 0.06,-0.07 0,-0.38 -0.11,-0.09 0,-0.07 -0.14,0 -0.2,-0.16 0,-0.09 0.23,-0.07 0.03,-0.07 -0.08,-0.2 -0.11,-0.07 0.03,-0.09 -0.2,-0.18 0.06,-0.18 0.06,0 0,0.09 0.2,0.02 0.31,-0.16 0.06,-0.18 0.08,-0.07 -0.31,-0.56 0.11,-0.33 0.2,0 0.06,0.09 0.11,0.02 0.14,-0.22 0,-0.11 0.08,-0.04 0.11,0 0,0.07 0.2,0.22 0.37,0.02 0.14,-0.07 0.23,-0.2 -0.34,-0.13 -0.08,0.02 -0.09,-0.07 -0.03,-0.18 0.23,-0.02 0.26,0.07 0.26,-0.16 0.31,0.09 0.17,-0.04 0.03,-0.2 0.14,-0.2 -0.03,-0.22 0.06,-0.16 -0.17,-0.13 0.08,-0.09 0.11,0.04 0.03,0.18 0.17,0.13 0,0.07 0.23,-0.04 0.09,0.04 0.06,0.09 0,0.27 0.23,-0.07 0.03,-0.07 0.4,-0.09 0,-0.07 0.14,-0.11 0.09,0.04 -0.03,-0.09 0.26,-0.18 -0.11,-0.22 0.06,-0.09 0.26,0.07 0.11,-0.07 -0.06,-0.07 0.17,-0.02 0,-0.09 0.06,-0.02 -0.06,-0.09 0.09,0 -0.03,-0.13 0.11,-0.13 0.06,0.07 0.09,-0.04 0.06,-0.11 -0.03,-0.11 0.06,0 -0.03,-0.11 0.06,0 0,-0.09 0.17,-0.11 0.14,-0.22 -0.03,-0.27 0.09,-0.11 0.03,-0.33 -0.14,-0.18 0.06,-0.16 -0.08,-0.04 0,-0.11 0.26,-0.02 0,-0.07 -0.2,-0.13 -0.03,-0.16 0.08,-0.16 0.11,0.02 0.06,-0.09 0.26,-0.02 0.06,-0.07 -0.11,-0.22 -0.31,-0.25 0.06,-0.13 -0.03,-0.07 0.11,-0.02 -0.06,-0.09 0.06,-0.07 -0.08,0 0,-0.11 0.08,0 -0.06,-0.13 0.14,-0.02 -0.06,-0.07 0.06,-0.02 -0.03,-0.07 0.06,0 0.06,-0.29 -0.03,-0.2 -0.14,-0.18 0.06,-0.13 -0.23,-0.18 -0.06,0.04 -0.03,-0.07 -0.14,-0.02 -0.06,-0.11 0.17,-0.11 0,-0.31 0.11,0 0,-0.07 0.17,0 0.11,-0.09 -0.06,-0.02 0.03,-0.2 0.2,-0.13 0.26,-0.02 -0.11,-0.18 -0.09,-0.02 0.11,-0.13 -0.09,-0.09 0.06,-0.38 -0.09,-0.18 0.09,-0.33 0.2,-0.07 0,-0.11 -0.09,-0.02 -0.06,-0.25 0.14,-0.13 -0.09,-0.11 0.11,-0.42 -0.11,-0.04 0.03,-0.04 -0.37,-0.11 -0.11,-0.2 -0.06,0.07 -0.17,-0.04 0,-0.13 0.2,-0.07 -0.03,-0.2 0.6,-0.2 0.08,0.13 0.23,0 -0.08,0.13 0,0.16 0.14,0.13 0.34,0 0,-0.04 0.37,-0.09 0.11,0.07 0,0.09 -0.06,0 0,0.25 0.08,0.11 0.31,0 -0.03,-0.04 0.08,-0.18 0.17,-0.04 0.34,0.09 0.03,-0.09 0.14,-0.04 -0.03,-0.07 0.11,-0.07 -0.03,-0.07 -0.08,0 -0.03,-0.13 0.2,-0.09 0.08,-0.09 -0.03,-0.11 0.11,-0.02 -0.03,-0.09 0.06,-0.04 0,-0.18 0.08,-0.13 0.09,-0.07 0.26,0 0.17,-0.07 0.11,-0.22 0.11,0 -0.03,-0.07 0.08,-0.07 0.03,-0.27 0.14,-0.13 0.48,0 -0.11,0.36 -0.03,0.36 -0.08,0.11 0,0.22 0.51,0.16 0.06,0.04 0,0.2 0.14,0.11 0.06,0.27 -0.11,0.18 0,0.11 -0.11,0.11 0.11,-0.02 -0.03,0.09 0.14,0.18 0.03,0.18 -0.09,0.25 0.14,0.09 0.06,0.13 -0.03,0.16 -0.23,0.09 -0.11,0.18 0.17,-0.07 0.29,0.02 0.03,-0.22 0.09,-0.16 0.26,-0.11 0.6,0.07 0.09,0.2 0.46,0.16 0.26,-0.04 0.23,-0.22 0.57,-0.09 0.2,0.09 0.26,-0.04 0.29,0.07 0.11,-0.04 0.31,0.04 0.37,0.18 -0.11,-0.13 0,-0.07 0.11,-0.07 -0.03,-0.13 -0.26,0.04 0,-0.18 -0.28,-0.07 0,-0.09 -0.14,0.02 0,0.09 -0.08,0.07 -0.57,-0.07 -0.43,0.04 -0.11,-0.02 -0.09,-0.11 -0.36,0 0.06,0.07 -0.06,0.18 -0.34,0.2 -0.4,-0.2 -0.09,-0.2 -0.11,0 -0.11,-0.11 -0.23,-0.07 -0.03,-0.33 0.11,-0.07 -0.26,-0.04 0,-0.04 -0.09,0.02 -0.06,-0.09 -0.17,0 -0.14,-0.16 0.03,-0.13 -0.11,-0.16 -0.03,-0.33 0.06,-0.04 -0.03,-0.22 0.14,-0.16 0.03,-0.16 -0.26,-0.13 -0.03,-0.11 0.11,-0.27 0.08,-0.07 0,-0.18 0.09,0 0.11,-0.25 0.2,-0.09 0.23,0.04 0,-0.09 -0.23,-0.27 0.03,-0.11 -0.17,0 -0.17,-0.27 -0.17,-0.02 -0.08,-0.11 -0.2,-0.04 -0.06,-0.09 0.03,-0.11 0.09,-0.09 0.17,0.02 0.26,-0.18 0.17,-0.04 0,-0.07 -0.11,-0.09 0.03,-0.07 0.29,-0.02 0.03,0.11 -0.06,0.13 0.17,0.11 -0.03,0.11 0.31,0.09 0.09,0.22 0.17,-0.04 0.31,0.04 0.14,-0.07 0.23,0.09 0.14,0.16 0.2,0 -0.03,-0.09 0.17,0.02 -0.03,-0.2 0.06,-0.04 0.31,-0.07 0.03,-0.22 0.11,-0.02 0.03,-0.09 0,-0.22 0.11,-0.09 0.34,0.18 0.23,-0.02 0.11,-0.22 0.08,-0.07 0.17,0 0.06,-0.13 0.08,0 0.09,0.07 0,0.13 0.17,0.02 0,0.09 0.09,0 0.03,0.07 0.17,-0.16 0.11,0 0.09,0.13 0.06,0 0,-0.09 0.11,-0.02 0.11,0 0.17,0.11 -0.03,-0.07 0.06,-0.02 0.2,-0.02 0,0.04 0.08,0 0.14,-0.11 0.6,-0.02 0.48,-0.16 0.11,-0.22 0.17,-0.09 -0.03,-0.09 0.06,-0.09 0.17,-0.11 0,-0.2 0.14,-0.11 0,-0.18 0.2,-0.13 0.11,-0.31 0.26,-0.36 0,-0.13 0.08,-0.13 -0.14,-0.22 0.11,-0.09 0.03,-0.45 0.09,-0.04 -0.03,-0.13 0.08,-0.22 -0.06,-0.25 0.23,-0.02 0.14,-0.09 0.06,-0.63 -0.17,-0.16 -0.17,-0.02 0.03,-0.04 -0.06,-0.07 0.11,-0.18 -0.06,-0.16 0.26,-0.38 0,-0.11 -0.17,-0.07 -0.03,-0.18 0.06,-0.09 0.14,-0.07 0.14,0.2 0,-0.22 0.06,-0.04 0.2,0.09 0.2,-0.09 0.14,0.07 0.11,-0.11 -0.11,-0.16 0.08,-0.13 0.14,0 0,-0.04 0.14,0.07 -0.06,0.13 0.11,0.04 0.03,0.11 0.2,0.02 0.26,-0.34 0,-0.2 0.08,-0.13 -0.06,-0.18 0.2,-0.13 0,-0.11 0.46,0.16 0.09,-0.16 0.4,-0.02 0.08,-0.09 -0.08,-0.27 0.2,-0.02 -0.03,-0.04 0.11,0.02 -0.03,-0.09 0.11,-0.18 0.46,-0.07 0.06,-0.07 0.26,0 0,0.04 0.11,-0.04 -0.2,-0.16 0.03,-0.22 0.08,-0.16 0.09,-0.02 0,-0.13 0.26,-0.18 0.43,0 0.09,-0.13 0,-0.25 0.28,-0.07 0.06,-0.2 0.2,-0.02 0.06,-0.07 0,-0.29 0.08,-0.18 -0.11,-0.13 0.26,-0.18 0.06,-0.45 -0.11,-0.27 0,-0.16 0.06,-0.07 -0.17,-0.07 0,-0.13 0.4,0.02 0.06,0.07 0.23,0.02 0.11,-0.09 0,-0.13 0.17,0 0,-0.11 -0.2,-0.05 0.03,-0.07 -0.06,-0.13 0.23,-0.07 -0.03,-0.16 0.2,-0.16 0.14,-0.02 0.26,0.07 0.11,-0.11 0.09,0 0.08,-0.13 -0.03,-0.11 0.08,-0.04 -0.08,-0.13 0.14,-0.02 0,-0.18 0.17,-0.2 0.48,-0.25 0.29,-0.02 0.23,-0.11 0.11,0.02 0.17,-0.22 0.17,-0.11 0.03,-0.09 0.43,-0.09 0.08,-0.13 0,-0.18 0.09,-0.07 0.26,-0.04 0.03,-0.18 0.26,-0.16 0.03,-0.09 -0.06,-0.11 0.11,-0.07 -0.06,-0.11 0.2,-0.09 0,-0.13 -0.09,-0.09 0.09,-0.09 0,-0.22 -0.09,0 0.09,-0.31 -0.17,-0.13 0,-0.09 0.11,-0.04 -0.08,-0.36 0.17,-0.22 -0.06,-0.09 0,-0.25 0.06,-0.02 -0.06,-0.16 0,-0.11 0.06,-0.02 0,-0.18 -0.06,-0.02 0,-0.22 0.06,-0.02 -0.09,-0.11 0.06,-0.25 -0.03,-0.18 0.06,-0.18 0.23,0.13 0.03,-0.09 -0.14,-0.11 0,-0.27 -0.11,-0.04 0.03,-0.4 -0.08,-0.07 0.06,-0.13 -0.03,-0.16 0.06,0 -0.03,-0.11 0.06,-0.04 -0.03,-0.16 -0.08,-0.07 0.06,-0.09 0.03,-0.52 -0.06,-0.2 0,-0.5 -0.14,-0.43 0.06,-0.27 -0.11,0.02 -0.06,-0.13 0.11,-0.25 -0.06,-0.13 -0.06,0 0,-0.07 -0.11,-0.09 0.03,-0.07 -0.2,-0.11 0,-0.11 0.11,-0.02 0.03,-0.07 0.11,0 0.09,-0.31 -0.2,-0.2 0,-0.09 0.08,-0.04 -0.11,-0.2 0.06,-0.23 -0.26,-0.2 0,-0.07 0.17,-0.07 0.03,-0.25 0.09,-0.02 -0.11,-0.2 0.06,-0.02 0,-0.11 0.11,-0.04 -0.03,-0.18 0.06,-0.11 0.23,-0.11 0.03,-0.11 -0.06,-0.09 0.06,0 0.03,-0.09 0.23,-0.18 -0.11,-0.18 0.14,0 0.29,-0.2 -0.03,-0.22 0.06,-0.07 -0.11,0 0.09,-0.11 -0.06,-0.04 0,-0.13 -0.06,-0.02 0.06,-0.07 -0.08,-0.07 -0.03,-0.25 0.14,-0.04 0.11,-0.2 0.09,-0.05 0.06,-0.41 -0.09,-0.04 0,-0.16 -0.08,-0.07 0.31,-0.43 0.11,-0.38 0.2,-0.25 0,-0.16 -0.08,-0.11 0.06,-0.18 -0.08,-0.07 0,-0.04 0.08,0 0,-0.07 -0.11,-0.11 0.11,-0.18 -0.11,-0.13 0.26,-0.27 -0.09,-0.13 0.14,-0.16 -0.03,-0.11 -0.14,-0.07 0,-0.18 -0.11,-0.11 0.06,-0.04 0,-0.09 -0.06,-0.02 0.03,-0.16 0.2,-0.02 -0.14,-0.43 0,-0.14 0.14,-0.23 0,-0.14 -0.17,-0.02 -0.06,-0.09 0.17,-0.18 0.26,-0.04 -0.06,-0.07 0.06,-0.2 -0.08,-0.09 0,-0.09 0.06,-0.18 0.11,-0.09 -0.06,-0.11 0.03,-0.09 0.14,0 0.03,0.11 0.29,0 0,-0.09 0.2,-0.02 0.08,0.09 0.34,0.14 0.06,0.09 0.14,0 0.09,-0.2 1.48,-0.02 0.43,0.11 0.63,0.45 0.43,-0.04 0.09,0.09 0.28,0.09 0.43,-0.09 0.26,0.23 0.26,0.02 0.06,0.16 0.6,0.38 0.03,0.13 0.23,0.2 0.11,0.27 0.28,0.2 0.34,0.09 0.43,0.25 1.08,0 0.14,0.07 0.43,0.04 0.37,-0.11 0.11,-0.09 0.6,-0.07 0.26,-0.09 0.09,-0.09 0.31,-0.04 0.48,-0.38 0,-0.09 0.6,-0.74 0.17,-0.45 0.29,-0.09 0.06,-0.18 0.17,-0.18 -0.03,-0.23 0.31,-0.34 0.51,-0.86 0.29,-0.14 0.6,-0.09 0.29,-0.16 0.11,-0.43 0.14,-0.2 -0.03,-0.13 0.2,-0.43 0.08,-0.34 0.23,-0.23 0.34,0.02 0.37,0.27 -0.08,0.11 -0.11,-0.02 0.11,0.34 0.06,0 -0.06,0.02 0.06,0.07 0,0.16 0.17,-0.18 0.14,-0.05 0.17,-0.2 0.2,0.02 0,0.07 0.28,0.23 -0.06,0.27 0.06,0.52 -0.08,0.14 -0.11,0.04 0,0.14 -0.11,0.2 -0.14,0.09 0,0.07 -0.2,0.2 0.06,0.59 -0.08,0.27 0,0.27 0.03,0.16 0.06,0 0,-0.09 0.14,-0.2 -0.03,-0.83 0.11,-0.2 0.14,-0.11 0.26,-0.07 0.11,-0.2 0,-0.34 0.2,-0.04 0.14,-0.38 -0.03,-0.11 -0.14,-0.04 0,-0.07 0.11,-0.09 -0.03,-0.29 0.14,-0.27 0.09,-0.34 -0.17,-0.11 0.34,-0.27 0.03,-0.18 0.08,-0.11 0.2,-0.07 0.2,-0.16 0.2,0 0.23,-0.18 0,-0.16 0.09,-0.09 0.8,0.07 0.11,0.09 0.14,0.02 0.4,0 0.26,-0.11 0.11,-0.11 0,-0.7 0.23,-0.07 0.34,0.23 0.11,0.16 0.2,0.04 0.09,0.11 0.51,0.16 0.23,0.23 0.23,0.07 0.08,0.09 0.31,0 0.2,-0.16 0.23,-0.07 -0.14,-0.11 -0.34,0.07 -0.06,0.07 -0.09,-0.02 0,-0.07 -0.23,-0.13 0,-0.07 -0.31,-0.09 -0.2,-0.18 -0.26,-0.05 -0.06,-0.09 -0.09,0 0,-0.07 -0.08,-0.02 -0.29,-0.34 -0.65,-0.11 -0.46,0.14 -0.03,0.47 -0.31,0.18 -0.14,0 -0.26,0.11 -0.14,-0.02 -0.08,0.07 -0.2,-0.09 -0.06,-0.09 -0.26,-0.02 -0.34,0.2 -0.14,0.25 -0.09,-0.02 0,0.04 -0.28,0.04 -0.6,0.25 -0.08,0.25 -0.2,0.23 0.03,0.2 0.11,0.02 -0.03,0.16 -0.14,-0.04 -0.11,-0.16 -0.31,-0.2 -0.29,0 -0.11,-0.09 -0.03,-0.11 -0.17,-0.09 0,-0.07 -0.08,-0.04 0.03,-0.04 -0.14,-0.07 -0.08,-0.2 0,-0.47 -0.09,-0.05 -0.17,-0.27 0.03,-2.51 -0.11,-0.09 -0.57,-0.07 -0.51,-0.27 0.09,-0.11 -0.09,-0.14 0.11,-0.07 0,-0.09 0.23,-0.04 0.03,-0.38 -0.08,-0.07 -0.29,-0.02 -0.26,-0.32 -0.46,-0.2 -0.23,-0.2 0.03,-0.16 0.17,-0.09 0.09,-0.18 0.65,0.15 0.6,0 0.23,-0.07 0.08,0.11 0.2,0.02 0.14,-0.09 0.08,-0.25 0.14,-0.09 0,-0.14 0.06,-0.02 0.03,-0.2 0.06,-0.04 0.2,-1.4 -0.19,-0.09 -0.04,-0.27 0.06,-0.16 -0.11,-0.09 0,-0.14 -0.31,-0.25 -0.31,-0.18 -0.14,-0.02 -0.06,-0.04 0.03,-0.07 0.43,-0.11 0.43,0 0.14,-0.07 0.17,-0.18 0,-0.18 0.09,-0.07 0.03,-0.2 0.09,0 0.08,-0.18 0.28,0.09 0.63,-0.02 0.23,0.11 0.26,0 0.17,-0.2 0.23,-0.07 0.03,-0.09 0.4,0.05 0.17,-0.16 0.4,0.04 0.17,-0.23 0.74,-0.25 0.08,-0.11 0.11,0 0.2,-0.11 0.23,0.02 0,0.07 0.28,-0.05 0.03,0.14 0.17,0.04 0.34,-0.32 0.19,0.04 0.35,-0.09 0.14,-0.25 0.08,-0.05 0.14,0.07 0.06,-0.07 0.08,0.02 0,-0.04 0.14,0.04 0.26,-0.04 0.31,0.2 0.11,0 0.2,0.23 0.06,-0.05 0.2,0.05 0.06,0.18 0.2,0.18 0.46,0.05 0.06,-0.25 0.4,0.02 0.08,-0.07 -0.08,-0.25 0.2,-0.16 0.94,-0.04 0.2,-0.07 0.23,-0.18 0.23,0.04 0.08,0.09 0.71,-0.02 0,-0.05 0.26,-0.02 0.09,-0.07 0.91,0.05 0.23,-0.11 0.2,-0.02 0.17,-0.11 0.06,-0.18 0.14,-0.05 0.14,-0.27 0.54,-0.09 0.17,-0.18 0.34,0.16 0.83,0.05 0.11,0.11 0.03,0.16 0.17,0.02 0.17,0.14 0.48,-0.14 0.03,-0.14 0.11,-0.14 0.14,0 0.03,0.09 0.26,0.07 0,-0.2 0.08,-0.14 0.54,0.02 0.23,-0.23 0.34,-0.09 0.51,0 0.26,0.14 0.2,0.2 0.34,-0.09 0.83,0 0.2,-0.14 0.17,-0.25 0.11,-0.04 0,-0.07 0.14,-0.14 0.03,-0.23 0.09,-0.11 0.14,-0.02 0.14,-0.16 0.11,0 0.2,0.16 0.11,0.23 0.48,0.29 0.91,0.07 0.37,0.11 0.91,0 0.48,0.27 0.91,0.02 0.34,0.23 0.48,0.14 1.08,0.14 0.31,0.11 0.77,0.11 0.51,-0.05 0.14,0.07 0.09,0.18 0.2,0.09 -0.03,0.09 0.28,0.11 0.14,-0.07 0.09,-0.16 0.26,-0.07 0.09,-0.09 0.34,0 0.6,-0.18 0.31,-0.34 0.11,-0.04 0.14,-0.27 0.8,0.02 0.06,-0.07 0.2,-0.05 0.68,0.02 0.28,0.11 0.17,0 0.48,0.29 0.71,0.18 0.34,0.18 0.23,0 0.06,-0.09 0.23,0.02 0.26,0.29 0.28,0.07 0.26,0.2 0.29,0.34 0.11,0.05 0,0.18 0.11,0.18 0.14,0.09 0.43,-0.04 0.06,-0.09 0.17,-0.05 0.4,0.02 0.37,0.34 0.03,0.27 0.37,0.5 0.65,0.57 0.03,0.09 0.11,0.02 0.11,0.18 0.2,0.11 0.68,0.07 0.74,-0.09 0.23,-0.11 0.54,0 0.46,0.16 0.31,0.02 0.26,0.11 0.37,-0.16 0.57,0 0.37,0.04 0.06,0.2 0.31,0.11 0.48,-0.07 0.31,-0.2 0.71,0.07 0.03,0.07 0.48,0.02 0.2,-0.07 0.57,-0.5 0.48,-0.02 0.34,-0.09 0.14,-0.11 0.48,-0.11 0.51,-0.23 0.14,0 0.6,-0.48 0.34,-0.18 0.46,-0.02 0.48,0.2 0.11,0 0.11,-0.11 0.2,-0.07 0.31,0 0.2,-0.07 0.26,-0.25 0,-0.16 0.2,-0.07 0.68,-0.02 0.4,-0.14 0.29,0 0.26,0.16 0.43,0.11 0.2,0 0.14,-0.09 0.48,0.02 0.68,0.32 0.37,0.27 0.26,0 0.46,-0.14 0.4,0 -0.06,-0.09 0.14,-0.14 0.6,-0.38 0.6,-0.57 0.66,-0.11 0.03,0.11 -0.37,0.48 -0.03,0.38 -0.09,0.25 0.03,0.16 -0.14,0.43 -0.11,0.16 0.03,0.05 -0.28,0.07 -0.26,-0.14 -0.14,0 -0.11,0.23 -0.46,0.41 -0.2,0.52 0,0.23 0.11,0.27 0.23,0.18 0.31,0.5 0.11,0.02 0.03,-0.14 -0.2,-0.2 -0.17,-0.29 -0.11,-0.04 0,-0.07 -0.11,-0.09 -0.03,-0.27 0.06,-0.05 0.06,-0.34 0.11,-0.18 0.14,-0.09 0.85,-0.16 0.08,-0.16 0.11,-0.04 0.14,-0.14 0,-0.07 0.14,-0.09 0.11,-0.27 0.09,-0.54 0.14,-0.2 0,-0.18 0.14,-0.16 0.06,-0.2 0.06,0 0,-0.11 -0.06,-0.02 0.31,-0.34 0.2,-0.43 0,-0.34 0.06,-0.16 0.09,-0.02 0.03,-0.34 -0.03,-0.57 -0.11,-0.07 -0.06,-0.23 -0.29,-0.32 -0.14,-0.23 -0.06,-0.27 -0.23,-0.27 -0.14,-0.75 0.03,-0.25 0.06,-0.02 -0.03,-0.23 0.08,-0.27 0.03,-0.43 0.06,-0.05 0,-0.16 0.08,-0.16 0.06,-0.39 0.09,-0.98 0,-1.32 -0.09,-0.11 -0.57,0.02 -0.14,-0.04 -0.08,-0.09 -0.31,-0.14 -0.06,-0.23 0.4,0.05 0.23,0.11 0.4,0 0.17,0.11 0.46,0.02 0.11,0.11 0,0.14 0.14,-0.05 0.23,0.14 0.14,-0.02 0.03,-0.18 0.11,-0.16 0,-0.23 0.08,-0.32 0.06,-0.02 0,-0.18 0.08,-0.05 0.03,-0.14 -0.03,-0.36 0.09,-0.16 0,-0.41 -0.06,-0.02 0,-0.11 -0.14,-0.11 -0.31,-0.09 -0.17,-0.16 0,-0.25 0.17,-0.16 0.17,-0.02 0.2,-0.11 0.74,-0.16 0.2,-0.09 0.11,-0.23 0.06,-0.54 0.06,-0.07 0,-0.64 -0.17,0 -0.11,-0.09 0.03,-0.14 -0.14,-0.11 -0.54,-0.11 -0.03,-0.07 0.31,-0.07 0.46,-0.3 0.54,-0.02 0.26,-0.23 0.09,0 0.34,-0.2 0.23,-0.02 0.08,0.09 -0.03,0.09 0.31,0.07 0.31,-0.02 0.11,-0.11 0.17,-0.04 0.23,0.07 0.06,-0.16 0.29,-0.09 0.17,-0.21 0.2,-0.11 0.17,-0.3 0.11,-0.05 0.06,-0.25 0.23,-0.21 0.11,-0.48 0.08,-0.05 -0.03,-0.14 0.08,-0.32 -0.17,0 0.09,-0.23 0.37,-0.02 0.03,-0.09 -0.11,-0.07 0,-0.11 0.23,-0.11 0.2,-0.16 0.03,-0.09 0.14,-0.04 0.03,-0.16 0.17,-0.09 0.11,-0.39 0.17,-0.18 0.06,-0.16 0.2,-0.16 0.08,-0.32 0.14,-0.05 0.08,-0.14 0.34,-0.21 0.09,-0.16 0.08,-0.02 0.31,-0.32 0.11,0 0.37,-0.27 0.2,-0.43 0.37,-0.34 0.03,-0.16 0.29,-0.21 0.17,-0.25 0.14,0 0.08,-0.09 0.26,0.02 0.06,-0.07 0.51,-0.11 0.17,-0.23 0.17,-0.11 -0.06,-0.14 0.11,-0.05 0.28,0.05 0.31,-0.11 0.23,0 0.03,0.18 0.06,0.04 0.8,-0.07 0.08,-0.09 0.26,0.02 0.03,-0.16 0.17,-0.02 0.14,-0.18 0.14,0.09 0.11,-0.02 0,-0.11 -0.09,-0.02 0,-0.14 0.37,0.07 0,0.09 0.17,0.21 0.17,0 -0.11,-0.41 -0.2,-0.18 0,-0.3 0.23,-0.21 0.14,-0.34 0.37,-0.3 0.17,-0.34 0.26,-0.14 0.06,-0.18 0.26,-0.32 0.03,-0.18 0.09,-0.02 0.06,-0.16 0.17,-0.18 0.17,-0.46 0.11,-0.09 0.2,-0.48 0.06,-0.02 0,-0.18 0.06,-0.07 -0.03,-0.84 0.09,-0.18 -0.03,-0.25 0.11,-0.32 0.2,-0.21 0.09,0 0,-0.05 0.2,-0.09 0.17,-0.25 0.2,-0.16 0.03,-0.16 0.14,-0.05 0.03,-0.09 0.11,-0.07 0,-0.11 0.11,-0.09 0.03,-0.16 0.08,-0.07 0.06,-0.34 0.08,-0.05 0.09,-0.27 0.14,-0.09 0.06,-0.16 -0.03,-0.18 0.06,-0.09 -0.83,-0.53 -0.09,-0.02 0,0.16 -0.06,0.02 -0.03,0.16 -0.31,0.07 -0.06,-0.11 -0.11,-0.02 0.03,-0.11 -0.06,-0.14 -0.11,-0.04 0.09,-0.14 0,-0.11 -0.09,-0.09 -0.11,0.07 -0.04,0.21 0,0 -0.57,-1.98 0.27,-1.24 -0.68,-0.11 -0.26,-0.48 1.51,-1.08 -0.91,-1.33 0.16,-1.26 -0.65,-1.19 0.07,-0.66 0.9,-1.08 -0.04,-0.62 -0.78,-1.49 0.48,-1.42 -0.12,-0.57 1.44,-1.87 0.02,-0.8 z" 
                fill="rgb(151, 144, 238)" 
                stroke="white" 
                stroke-width=".7px"
                title="South West" 
                id="GB-UKK" 
            />
        </svg>