<svg xmlns="http://www.w3.org/2000/svg" viewBox="256.33173999999997 702.1045300000001 145.34999999999985 171.70999999999947" width="145.34999999999985" height="171.70999999999947">
            <path 
                d="m 296.86174,849.99453 0.11,0.05 -0.03,0.09 -0.17,-0.07 0.09,-0.07 z m -29.72,-2.66 0.14,0.14 0.34,-0.05 -0.09,0.07 0,0.14 -0.17,0.04 -0.08,0.12 0.03,0.16 -0.17,0.05 -0.03,0.09 -0.14,0.09 -0.63,0.02 0,-0.14 -0.09,-0.07 0.03,-0.09 0.29,-0.09 0,-0.07 0.11,-0.05 0.06,-0.21 0.14,-0.02 0.11,-0.14 0.15,0 z m -10.45,-2.36 0.03,0.09 -0.17,0.16 -0.11,0 -0.11,-0.12 0.06,-0.14 0.3,0 z m 9.14,-1.08 0.14,0.02 0.03,0.07 0.34,0.16 0.4,0.07 0,0.3 0.11,0.02 0.03,-0.12 0.11,0 0.11,0.14 0.08,0 0.17,0.14 0,0.09 -0.2,0.02 -0.06,0.07 -0.2,0 -0.06,0.14 -0.08,0 -0.11,-0.14 0.06,-0.14 -0.09,-0.02 -0.23,0.16 0,0.28 -0.14,0.14 -0.03,0.11 -0.08,0 -0.03,-0.09 -0.11,-0.07 -0.23,-0.02 0,-0.07 0.08,-0.05 -0.03,-0.05 -0.29,-0.05 -0.08,-0.07 -0.26,0 -0.11,-0.21 0,-0.41 0.23,-0.09 0.37,-0.34 0.16,0 z m -2.02,-11.07 0.11,0.12 0.11,0 0.09,-0.09 0.11,0.05 0,0.18 -0.14,0.21 0,0.23 -0.06,0.02 0.03,0.21 -0.06,0.05 0.11,0.28 0,0.44 -0.06,0.14 0.06,0.02 0.03,0.41 -0.17,0.14 -0.06,0.14 -0.14,0.07 -0.06,0.12 -0.09,0 0,-0.14 0.17,-0.11 0.17,-0.18 0,-0.07 -0.08,-0.05 -0.03,-0.11 -0.28,0.07 0,-0.28 -0.06,-0.05 -0.09,0.05 -0.23,-0.05 0,-0.12 -0.09,-0.07 0,-0.23 -0.08,-0.05 0.03,-0.14 -0.06,-0.12 0.06,-0.07 0.46,-0.14 0,-0.11 -0.17,-0.12 -0.09,-0.39 0.4,-0.14 0.16,-0.12 z m 28.12,-74.39 0.4,0.09 0.11,0.09 0.03,0.23 -0.08,0.07 0.03,0.38 -0.14,0.14 -0.06,0.16 -0.09,0.05 -0.03,0.12 -0.2,-0.07 -0.11,0.05 -0.09,-0.05 -0.14,0.02 0,0.07 0.14,0.05 0,0.12 -0.11,0.19 -0.2,0.14 -0.03,0.12 -0.14,0.02 -0.03,-0.16 0.09,-0.12 -0.03,-0.26 0.14,-0.12 0,-0.23 0.2,-0.07 -0.06,-0.28 0.06,-0.38 -0.06,-0.05 0,-0.21 0.14,-0.12 0.26,0 z m 8.71,-47.86 0.03,0.07 -0.2,0.14 -0.26,0.31 -0.83,0.05 -0.08,0.1 -0.09,0.36 0.17,0.02 0.23,0.17 0.34,-0.02 0.2,0.14 0.09,0 0,-0.31 0.2,0.05 0.11,-0.52 0.17,-0.1 0.03,0.07 -0.14,0.19 -0.11,0.38 0.2,-0.14 0.03,0.09 -0.26,0.19 0,0.19 0.17,0.05 0,0.05 -0.46,-0.02 0,0.12 -0.11,0.05 -0.03,0.12 0.14,-0.05 0.11,-0.14 0.23,-0.02 0.11,0.19 0.17,0 0.17,0.17 -0.11,0.21 0.14,0.14 0,0.12 0.11,0.05 0.29,-0.02 0.11,-0.17 0,-0.09 0.28,0 0.11,0.07 0.17,0.31 0.28,-0.02 0,0.09 -0.14,0.07 0.03,0.12 -0.08,0.31 0,0.12 0.11,0.14 -0.09,0.05 0,0.07 -0.23,0 -0.09,0.28 -0.17,-0.02 0,-0.12 -0.06,0 -0.06,0.02 0.03,0.05 -0.11,0 0,0.07 0.23,0.05 0.06,0.26 -0.03,0.19 0.17,-0.07 0.08,0.1 0,0.19 -0.14,0.02 0,0.24 0.23,0.07 0,-0.1 0.08,0 -0.03,0.1 0.31,-0.05 0.14,0.09 0,0.33 0.17,0.12 -0.06,0.1 0.06,0.09 -0.2,0.12 0.14,0.02 0.17,-0.12 0.11,0.05 0.23,-0.05 0.34,0.19 -0.06,0.14 -0.2,0 -0.03,-0.1 -0.06,0 -0.03,0.12 -0.17,0.05 0.17,0 0,0.1 0.28,0.14 0.03,0.19 0.26,0.31 -0.03,0.19 -0.09,0 -0.11,-0.1 -0.08,0.02 0.17,0.14 -0.03,0.14 0.14,0.02 0.03,-0.07 0.08,0 0.11,0.12 -0.14,0.24 -0.11,-0.17 -0.23,0 -0.14,0.07 0.09,0.14 -0.11,0.07 -0.6,0.09 0.03,0.19 -0.08,0.02 -0.26,0.02 -0.2,-0.19 0.09,-0.12 -0.09,-0.14 -0.14,0 -0.03,0.09 0,0.12 0.14,0.26 -0.2,0 -0.28,-0.09 -0.37,-0.31 -0.29,0 -0.26,-0.38 0.26,-0.21 -0.14,-0.17 0.11,-0.29 -0.09,-0.14 -0.28,-0.21 0,-0.17 -0.29,-0.05 0.14,-0.36 -0.23,0 -0.03,-0.05 0.08,-0.38 -0.06,-0.21 0.11,0 0.09,-0.19 0.26,0 -0.06,-0.21 -0.2,-0.07 -0.2,0.17 -0.2,-0.21 -0.51,-0.02 0.06,-0.26 -0.63,0 -0.06,-0.14 -0.4,0 0.03,0.07 -0.06,0.17 -0.26,0.02 -0.14,0.19 -0.14,-0.17 -0.14,0 -0.06,-0.14 -0.29,0.1 -0.03,0.14 -0.06,0 -0.29,-0.31 0.06,-0.17 -0.17,-0.17 0.17,-0.14 0.06,-0.14 0.31,-0.24 -0.14,-0.14 0.08,-0.17 -0.06,-0.07 -0.37,0.02 -0.2,-0.14 0,-0.14 -0.17,-0.14 -0.03,-0.14 -0.26,-0.05 0,-0.12 0.17,-0.05 0.23,-0.26 0.17,0.05 0,-0.05 0.2,-0.02 0,-0.12 0.2,-0.26 0.03,-0.24 -0.03,-0.24 -0.14,-0.07 0,-0.07 0.11,-0.02 0.06,-0.1 0.14,0.05 0.14,0.29 0.11,0 0,-0.07 0.23,-0.02 0.17,0.17 0.17,0.02 0.34,-0.19 0.03,-0.14 0.2,0 0.17,0.07 0.23,-0.26 0.8,-0.02 0.59,-0.46 z m 66.56,-2.16 0.54,0.21 -0.17,0 0.03,0.31 -0.06,0.05 0.08,0.14 -0.08,0.14 0.14,0.05 0,0.07 0.07,0 0.03,0.26 0.14,0.05 -0.03,0.12 0.11,0.05 0.06,0.4 0.65,0.52 0.03,0.09 0.09,0.02 0.28,0.31 0.29,0.17 0.28,0.07 0.09,-0.1 0.17,-0.02 0.11,-0.21 0.2,-0.1 0.03,0.07 -0.14,0.05 0,0.07 -0.17,0.14 -0.03,0.14 0.2,0.05 0.08,0.14 0.11,0 0,0.24 0.06,0.1 0.09,0.05 0.17,-0.02 0.14,0.14 0.2,0.05 0.11,0.09 0,0.07 0.4,0.17 0.03,0.09 0.06,0 0,0.12 0.09,0.07 0.57,0.26 0.08,0.1 0.11,0 0,0.05 0.17,0.05 0.57,0.36 0.23,0.26 0.09,0.02 0.34,0.45 0.23,0.12 -0.03,0.17 0.11,0.14 0.11,0.05 0.4,0.38 0.11,0.02 0.11,0.14 0.31,0.19 0.06,0.19 0.26,0.21 0,0.07 0.31,0.09 0.17,0.31 0.29,0.21 0.6,0.14 0,0.17 0.11,0.17 -0.03,0.07 0.37,0.38 0.48,0.24 0.08,-0.02 0.14,0.19 0.17,0.14 0.2,0.07 0.23,0.21 0.17,0 0.4,0.14 0.54,0.47 0.31,0.19 0.14,0.19 0.03,0.17 0.28,0.31 0.71,0.07 0.37,0.21 0.03,-0.09 -0.28,-0.17 -0.77,-0.17 -0.06,-0.17 -0.14,-0.09 -0.06,-0.17 -0.14,-0.17 -0.48,-0.36 -0.51,-0.55 0.03,-0.14 0.23,-0.09 0.17,0.02 0.03,0.09 0.09,-0.02 0.03,0.07 -0.06,0.05 0.08,0.07 0.06,-0.05 0,-0.12 0.31,-0.02 0.03,-0.12 -0.54,-0.05 -0.11,-0.09 -0.14,0 -0.03,-0.07 -0.26,-0.14 -0.34,0.02 -0.31,-0.26 0.03,-0.38 0.43,0.05 0.23,-0.12 0,-0.05 -0.26,0.01 0,0 0.2,-0.28 0.38,0.81 2.25,-0.05 1.84,1 2.36,2.04 2.19,2.49 0.17,1.28 -2.48,1.68 -0.08,0.38 1.07,1.92 2.28,1.75 -0.08,0.29 1.59,4.01 0.38,1.79 -0.18,0.9 1.69,1.67 0.75,1.53 1.96,-0.07 2.39,1.56 0,0 0.55,1.74 -0.14,2.45 -1.55,0.21 -1.71,1.37 -3.6,-3.49 -1.31,-0.19 -2.52,0.78 -1.76,-1.69 -1.6,-0.07 -3.33,2.47 -0.32,-0.13 -1.24,1.09 -0.37,1.6 -1.79,0.92 0.64,2.3 -1.65,1.88 -0.23,1.01 0.77,2.16 0.47,0.63 0.91,0.38 1.97,0.25 0.38,0.95 0.47,0.38 2.96,0.68 0.46,1.05 1.79,1.06 0.06,0.51 -0.65,0.89 -2.16,0.43 -1.11,2.48 0.34,1.76 -0.16,0.68 -1.78,1.26 -0.43,2.39 -0.43,0.75 -2.23,1.59 -0.04,1.36 0.88,1.73 -0.58,1.4 0.47,0.26 1.21,-0.26 0.94,-1.45 2.93,-1.99 1.54,1.57 0.33,0.77 -0.87,1.91 -1.45,0.47 -0.5,1.4 -4.06,0.21 -2.09,1.35 -2.39,0.93 -0.93,1.35 0,1.65 0.26,0.93 0.67,0.84 1.52,0.56 1.34,1.65 1.87,1.28 1.85,1.98 2.35,0.39 2.38,-0.51 0.93,0.43 0.2,0.76 -0.18,0.63 -1.81,1.21 -0.46,1.93 0.55,0.95 1.61,0.44 0.33,0.42 -0.07,0.35 -3.03,0.49 -0.81,1.11 -1.34,0.93 -0.34,1.34 -2.66,4.08 0.06,0.6 0.41,0.39 1.45,-0.3 0.17,0.23 -0.14,0.58 -2.78,1.76 0.13,0.6 1.4,0.6 -0.22,0.23 -0.59,0.96 -0.59,2.3 0.76,0.1 1.55,1.89 0.16,0.9 -0.38,1.13 1.81,3.23 1.15,1.66 1.77,1.66 0.28,1.47 1.1,0.51 0.33,0.81 0.88,0.25 2.48,-1.63 1.49,-0.21 2.33,2.26 2.16,1.31 0.58,0.97 0.03,0.64 1.51,2.23 2.02,0 0.79,1.12 0.89,0.19 0.33,0.72 0.56,-0.61 0,0 -0.06,0.83 -1.44,1.87 0.12,0.57 -0.48,1.42 0.78,1.49 0.04,0.62 -0.9,1.08 -0.07,0.66 0.65,1.19 -0.16,1.26 0.91,1.33 -1.51,1.08 0.26,0.48 0.68,0.11 -0.27,1.24 0.57,1.98 0,0 -0.1,0.43 -0.29,0.07 -0.08,0.14 -0.2,0 -0.23,0.09 -0.34,0.25 -0.03,0.11 -0.29,0.18 -0.23,0.41 -0.06,0 0,0.39 -0.17,0.04 -0.09,0.11 -0.11,0 -0.03,0.23 -0.09,0.02 0,0.07 -0.17,0.14 -1.14,0.02 -0.91,0.21 -0.08,0.09 -0.46,0.14 -0.26,0.21 -0.31,0.07 -0.14,0.16 -0.74,0.34 -1.48,1.05 -0.31,0.07 -0.31,0.25 -0.2,0.02 -0.48,0.37 -0.48,0.07 -0.26,0.11 -0.48,0.02 -0.4,0.25 -0.34,0.07 -0.28,0.23 -0.31,-0.05 -0.28,0.09 -0.06,0.04 0,0.18 -0.26,0 0,-0.05 -0.29,-0.16 -0.46,-0.05 -0.03,-0.07 -0.94,0.07 -0.85,-0.02 -0.37,-0.21 -0.37,0.02 -0.14,-0.25 -0.08,0 -0.11,-0.14 0,-0.09 -0.08,-0.09 -0.46,0.02 -0.03,0.09 -0.11,0.02 -0.03,0.18 -0.14,0.18 0.03,0.18 -0.17,0.18 0,0.07 -0.48,0.41 -0.6,0.3 -0.08,0.14 -0.51,0.34 -0.37,-0.02 -0.17,0.39 -0.65,0.27 -0.29,0.27 -0.11,0.02 -0.26,0.23 -0.28,0.11 0,0.05 -0.11,0 -0.03,0.11 -0.11,0 -0.31,0.25 -0.2,0 -0.09,0.11 -0.26,0.09 -0.06,0.09 -0.17,0.02 -0.48,0.23 -0.6,0.11 -0.17,0.57 -0.09,0.05 0,0.25 -0.26,0.21 -0.03,0.21 -0.17,0.18 -0.06,0.04 -0.14,-0.02 0.03,0.14 0.09,0.02 0.08,0.14 0,0.09 -0.48,0.62 -0.4,0.34 -0.23,0.36 -0.14,0.02 -0.06,-0.14 -0.11,0.02 -0.06,-0.07 -0.06,-0.27 0.08,-0.02 0,-0.14 0.09,-0.07 0,-0.11 -0.09,-0.02 -0.03,-0.16 -0.08,0.02 -0.06,0.11 -0.03,0.23 -0.26,0.02 -0.11,0 -0.2,-0.11 0.09,-0.25 -0.11,-0.02 -0.06,0.05 -0.03,0.41 0.08,0.16 -0.06,0.18 0.03,0.3 0.06,0.07 0.14,0 0,0.18 0.06,0.04 0.29,-0.02 0,0.07 0.11,0.04 0.09,0.27 -0.23,1 -0.09,0.09 -0.03,1.3 0.08,0.32 0,0.23 -0.06,0.05 -0.17,0 -0.26,0.2 -0.37,0.07 -0.09,0.07 0,0.09 -0.11,0.04 -0.8,-0.02 -0.2,-0.09 -0.09,0.02 -0.37,-0.18 -0.34,-0.02 -0.14,0.05 -0.06,0.09 -0.23,0.11 -0.03,0.11 -0.26,0.14 -0.6,0.09 -0.26,0.21 -0.23,-0.07 0,0.16 -0.26,0.02 0.03,0.41 -0.17,0 -0.2,-0.25 -0.34,0.02 -0.06,0.11 0.06,0.16 -0.03,0.09 -0.31,-0.32 0.03,-0.07 0.14,-0.04 0.06,-0.11 -0.03,-0.09 -0.29,0.05 -0.03,0.25 -0.08,0.02 0,0.27 -0.11,0 -0.23,-0.27 -0.34,-0.21 -0.43,-0.07 -0.48,0.45 -0.26,0.02 -0.4,0.32 -0.17,0.02 -0.23,0.14 -0.23,0 -0.06,-0.07 -0.54,-0.16 -1.76,0.09 -0.29,0.07 -0.14,-0.02 -0.14,0.09 -0.11,0 -0.03,-0.18 -0.09,-0.02 -0.11,-0.2 -0.2,-0.11 -0.48,-0.09 -0.26,0.14 -0.37,-0.14 -0.66,0.07 -0.6,-0.14 -0.63,-0.32 -0.23,0.02 -0.11,0.09 -0.63,-0.29 -0.54,-0.05 -0.14,0.07 -0.23,-0.21 -0.68,-0.18 -0.37,0.02 -0.2,0.07 -0.08,0.09 -0.23,0.05 -0.4,-0.09 -0.23,-0.16 -0.48,-0.09 -0.14,-0.25 -0.06,-0.34 -0.06,-0.02 -0.14,-0.32 -0.54,-0.55 -0.17,-0.59 -0.14,-0.21 -0.17,-0.07 0,-0.23 -0.17,-0.27 -0.2,-0.16 -0.11,-0.25 -0.48,-0.05 0,-0.11 0.08,-0.02 -0.08,-0.23 -0.71,-0.57 -0.66,-0.3 -0.2,-0.21 -0.03,-0.11 -0.17,-0.11 0,-0.11 -0.06,-0.04 0,-0.71 -0.37,-0.43 -0.74,-0.16 -0.46,0.07 -0.11,0.07 -0.2,0.39 -0.11,0.02 -0.08,-0.25 -0.09,-0.07 -0.11,0 -0.03,0.21 -0.14,0 -0.06,-0.05 0,-0.25 -0.09,-0.05 -0.34,0.02 -0.06,0.07 0.03,0.32 -0.14,0.02 -0.11,-0.14 -0.31,-0.05 -0.17,-0.23 -0.23,0 -0.11,-0.11 -0.03,-0.23 -0.08,-0.05 -0.03,-0.18 -0.11,-0.14 0.06,-0.18 -0.17,-0.11 -0.11,-0.27 -0.26,-0.16 0.03,-0.21 -0.46,-0.21 -0.08,-0.07 -0.06,-0.18 -0.2,0 0.17,-0.32 -0.34,-0.55 -0.06,-0.25 0.06,-0.21 -0.37,-0.87 -0.09,-0.32 0,-0.43 -0.08,-0.05 0,-0.14 -0.09,-0.05 -0.23,-0.34 -0.2,-0.41 0,-0.11 -0.17,-0.23 -0.08,-0.32 -0.06,-0.02 -0.14,-0.37 -0.09,-0.05 -0.06,-0.18 -0.14,-0.16 0,-0.09 -0.23,-0.05 -0.26,0.21 -0.26,-0.02 -0.17,-0.09 -0.2,-0.02 -0.43,-0.37 0.03,-0.07 0.08,0 0.34,0.32 0.43,0.16 0.2,-0.02 -0.03,-0.21 -0.31,-0.09 0,-0.11 0.23,0 0.03,-0.07 -0.29,-0.41 -0.4,-0.05 -0.17,0.16 -0.11,-0.02 0,-0.07 0.23,-0.16 0.34,-0.05 -0.03,-0.09 0.11,-0.04 -0.08,-0.18 -0.2,-0.09 0,-0.07 -0.37,-0.5 -0.4,-0.34 -0.31,-0.18 -0.11,-0.21 -0.29,-0.18 -0.34,-0.5 -0.03,-0.21 0.08,-0.21 0.06,0 0,-0.23 0.08,-0.11 0.43,-0.18 0.14,-0.34 -0.03,-0.11 -0.08,0.02 -0.14,0.39 -0.2,0.11 -0.2,0.02 -0.03,0.11 -0.2,0.05 -0.03,0.09 -0.08,0.02 -0.77,0.09 -0.51,-0.02 -0.06,0.07 -0.31,0 -0.54,-0.14 -0.4,0.46 -0.54,0.16 -0.26,0.16 -0.43,-0.02 -0.03,-0.14 -0.08,-0.02 0.03,-0.14 -0.17,-0.07 -1.25,0.07 -0.29,0.11 -0.28,-0.02 -0.83,0.5 -0.37,0.37 -0.46,0.73 0.03,0.09 -0.06,0.05 -0.03,0.21 0,0.87 0.26,0.37 0.6,0.18 0.34,0.16 0.03,0.07 0.28,0.09 0,0.11 -0.17,-0.09 -0.29,-0.02 -0.06,0.21 -0.09,0.05 -0.11,-0.09 -0.14,0 -0.2,0.16 -0.11,0.02 -0.28,-0.11 -0.31,-0.02 0,-0.07 -0.11,-0.02 -0.06,-0.09 -0.26,-0.07 -0.09,0.07 0,0.23 -0.23,-0.02 -0.31,0.07 -0.08,-0.09 0.03,-0.09 -0.29,-0.16 0.03,-0.09 -0.06,-0.07 -0.14,-0.04 -0.11,0.18 -0.28,0.05 -0.14,0.18 -0.17,-0.07 -0.23,0.16 -0.09,-0.07 -0.17,0.07 0,0.34 -0.06,0.09 -0.11,0.09 -0.26,0.03 -0.4,-0.37 -0.11,0.05 -0.08,-0.05 -0.14,0.05 -0.29,-0.02 -0.14,-0.23 -0.2,0 -0.11,-0.07 -0.4,0 -0.2,-0.32 -0.2,-0.02 -0.03,-0.09 0.08,-0.05 -0.06,-0.07 0,-0.16 -0.14,-0.05 -0.06,0.25 -0.37,0.25 -0.11,-0.02 0,-0.09 -0.26,0.02 -0.06,-0.04 -0.2,0.07 -0.17,-0.05 -0.4,0.07 -0.03,0.11 -0.28,0.18 -0.14,0.14 0.03,0.04 -0.06,0.09 -0.11,0.05 0,0.11 -0.08,0.04 -0.03,0.18 -0.06,0.02 0,0.16 0.11,0.02 0.14,0.18 0.37,0.25 0.08,0.11 0,0.21 0.06,0.02 -0.03,0.11 -0.11,0.05 -0.09,0.14 -0.31,0.04 -0.23,-0.18 -0.28,0 -0.14,-0.14 -0.6,-0.09 -0.09,-0.14 -0.14,0.02 -0.06,0.07 -0.23,0.02 0.03,-0.05 -0.06,-0.04 -0.23,0.02 -0.14,-0.07 -0.43,0.21 0.03,0.46 0.06,0.14 0.11,0.05 -0.11,0.07 -0.03,0.11 -0.14,-0.02 -0.11,-0.09 -0.26,-0.02 -0.06,-0.11 -0.08,0 -0.2,-0.14 -0.26,-0.05 -0.08,0.07 -0.14,-0.09 -0.31,-0.07 -0.4,-0.34 -0.14,-0.02 -0.26,-0.21 -0.08,0.02 -0.06,-0.09 -0.11,0 -0.11,-0.11 0,-0.14 -0.11,0.04 -0.23,-0.2 -0.28,-0.07 -0.03,-0.09 -0.14,-0.04 -0.06,-0.09 -0.14,0 -0.06,-0.21 -0.14,-0.04 -0.09,0.04 -0.06,-0.07 -0.14,0.02 -0.17,-0.09 -0.11,0.11 0.03,0.16 -0.11,0.02 -0.17,-0.18 -0.37,-0.02 -0.08,-0.09 0,-0.11 0.54,-0.43 0.31,-0.02 0,-0.07 0.11,-0.07 0.06,-0.18 -0.03,-0.85 -0.26,-0.91 -0.06,-0.02 -0.11,-0.32 -0.14,-0.21 0.03,-0.07 -0.14,-0.11 -0.14,-0.41 -0.09,-0.05 -0.2,0.11 -0.14,0 -0.11,-0.04 -0.03,-0.12 0.08,-0.04 0.26,0.04 0.31,-0.3 0.17,0.02 0.11,-0.18 0.31,0 0.06,0.09 0.14,-0.02 0.11,0.07 0.34,-0.05 0.08,-0.07 0.11,-0.25 -0.06,-0.16 0.14,-0.07 0.06,-0.18 0.2,-0.27 0.03,0.04 0.23,0 0.34,-0.25 0.03,-0.09 0.17,-0.14 -0.03,-0.09 0.17,-0.3 0.11,-0.41 -0.03,-0.23 0.11,-0.12 0,-0.14 0.2,0.05 0.2,0.32 0.17,-0.07 0.11,0.12 -0.14,0.11 0.08,0.21 -0.08,0.07 0,0.16 0.11,0.09 0,0.14 -0.14,0.09 0.14,0 0.14,-0.11 0.23,0.39 0.06,0 0,-0.09 -0.14,-0.23 0,-0.11 0.06,-0.02 0.08,0.11 0.11,0 0.03,-0.11 0.09,-0.02 0.17,0.21 0.54,0.18 0.06,0.14 0.26,0.11 0.29,-0.05 0.23,0.05 0.26,-0.09 0.2,0.09 0.14,-0.25 0.43,-0.16 0.03,-0.07 0.11,0.05 0.03,0.21 0.11,0.07 -0.06,-0.09 0.03,-0.23 0.17,-0.09 0.2,-0.02 0.08,-0.09 0.14,0 0.11,-0.11 0.14,0.09 0,-0.25 0.31,0.05 0.08,-0.11 0,-0.18 0.17,-0.14 1,-0.11 0.17,-0.34 0.31,-0.14 0.06,-0.16 0.14,-0.09 0.4,-0.05 0.17,-0.18 0.2,-0.05 0.46,-0.25 0.08,0.05 0.03,0.18 0.14,-0.02 0,-0.12 -0.11,-0.07 -0.03,-0.11 -0.14,-0.07 0.34,-0.37 0.23,-0.12 0.03,-0.11 0.11,-0.05 0,-0.16 -0.06,-0.14 -0.11,-0.07 0.03,-0.04 -0.29,-0.28 -0.06,-0.3 0.03,-0.23 0.14,-0.09 0.26,0.05 0.11,-0.3 0.14,-0.16 0.06,-0.23 0.26,-0.12 -0.06,-0.14 0.06,-0.23 0.31,-0.05 0.08,-0.23 -0.14,-0.07 -0.06,0.14 -0.31,0.09 -0.17,0.21 -0.11,0.05 0.06,0.11 0.11,0.02 -0.23,0.23 -0.06,0.27 -0.17,0.07 -0.2,0 -0.14,-0.07 -0.14,0.02 -0.06,0.07 0,0.32 0.11,0.32 -0.06,0.5 0.08,0.14 0,0.16 -0.11,0.21 0.17,0.05 0.03,0.14 -0.11,0.05 -0.2,0.25 -0.54,-0.04 -0.2,0.14 -0.54,0.07 0.03,0.16 -0.57,-0.04 -0.09,0.07 -0.23,0.02 -0.29,-0.02 -0.08,-0.07 -0.06,0.09 -0.23,0.02 -0.03,0.05 -0.2,-0.05 -0.14,0.23 -0.26,0 -0.68,-0.62 0.06,-0.09 -0.2,-0.28 -0.11,-0.05 -0.03,0.12 -0.11,-0.02 -0.08,-0.46 -0.14,-0.09 -0.17,-0.48 -0.11,-0.12 -0.2,-0.14 -1.14,-0.27 -0.48,-0.02 -0.17,0.11 -0.2,0.02 -0.09,0.07 0.06,0.28 -0.31,0.02 -0.08,0.07 -0.85,0.02 -0.03,0.07 -0.29,-0.07 -0.37,0.09 -0.11,-0.07 -0.48,-0.07 0,0.07 0.23,0.02 0.2,0.09 0.06,0.27 -0.26,0.16 -0.14,0.02 -0.29,0.23 -0.77,0 -0.4,-0.18 -0.11,0 -0.2,-0.16 -0.23,-0.09 -0.71,-0.57 -0.57,-0.55 -0.03,-0.09 -0.2,-0.11 -0.34,-0.48 -0.6,-0.66 0,-0.09 -0.11,-0.05 0,-0.11 -0.11,-0.09 0,-0.11 -0.23,-0.21 -0.14,-0.46 -0.09,-0.05 0,-0.11 -0.11,-0.18 0,-0.16 -0.09,-0.09 -0.03,-0.34 -0.08,-0.07 0.06,-0.32 0.34,0.28 0.28,0.11 0.23,-0.05 0.17,-0.14 0.23,-0.02 0.06,-0.07 0.28,0.05 0.11,-0.05 0.08,0.05 0.06,0.16 0.08,-0.02 0.03,-0.16 0.11,0 0.14,0.18 0.03,0.16 0.14,0.09 0.14,0 0.14,0.14 0.31,0.07 0.14,-0.11 -0.54,-0.23 -0.14,-0.16 0.06,-0.25 0.26,-0.02 0,-0.09 -0.48,-0.18 -0.31,0 -0.06,0.07 -0.08,0 -0.2,-0.12 -0.46,0 -0.11,-0.07 -0.34,0.02 -0.17,-0.14 -0.03,-0.16 -0.37,-0.09 0.08,-0.14 -0.11,-0.04 0,-0.14 -0.14,-0.07 0.17,-0.28 -0.11,-0.37 0.06,-0.05 0,-0.18 0.09,-0.07 0.08,-0.23 0,-0.34 0.09,-0.11 0,-0.21 0.34,-0.37 0.06,-0.16 0.03,-0.39 -0.23,-0.18 -0.06,-0.34 0.14,-0.07 0.23,0.07 0.06,-0.18 0.51,-0.34 0.09,-0.21 0.26,-0.16 0.48,0.05 0.51,-0.34 0.08,-0.46 -0.03,-0.28 0.11,-0.18 0,-0.16 0.08,-0.09 -0.06,-0.09 -0.09,0.09 0,0.14 -0.14,0.16 -0.08,0.85 -0.08,0.02 -0.09,0.14 -0.26,0.07 -0.31,-0.07 -0.17,0.02 -0.74,0.46 -0.34,0.09 -0.28,0.23 -0.03,0.21 -0.11,0.09 -0.03,0.37 -0.08,0.09 0,0.3 -0.2,0.14 -0.03,0.09 -0.11,0 -0.17,0.41 -0.14,0.09 0.03,0.25 -0.26,0.16 -0.23,0 -0.17,0.39 -0.17,0.14 -0.26,0 -0.11,-0.09 -0.26,-0.07 -0.31,-0.3 -0.11,0.02 -0.23,-0.12 -0.34,0.05 -0.2,-0.25 -0.48,-0.23 -0.06,-0.18 0.09,-0.16 0.06,-0.07 0.28,-0.09 0.09,-0.18 0.08,-0.02 0,-0.21 -0.06,-0.07 -0.17,0 0,-0.18 -0.08,-0.14 -0.09,0.02 -0.11,-0.09 -0.2,-0.02 -0.17,-0.21 -0.03,-0.14 -0.34,-0.02 -0.14,0.07 0.03,0.07 0.37,-0.05 0.06,0.21 0.31,0.25 0.14,0.23 -0.03,0.18 -0.14,0.11 -0.09,0.28 -0.31,0.25 -0.03,0.32 0.17,0.14 0,0.09 0.34,0.16 0.4,0.32 0.17,0.39 0.26,0.14 0.17,0.02 0.23,0.28 0,0.21 -0.09,0.02 0.06,0.09 -0.11,0.09 -0.03,0.11 -0.26,0.18 -0.26,0.09 -0.03,0.07 -0.48,0.18 -0.09,-0.02 -0.11,0.11 -1,-0.05 -0.34,0.07 -0.97,-0.16 -0.31,0 -0.91,-0.25 -0.65,-0.07 -0.51,-0.14 -0.48,0 -0.14,-0.07 -0.03,0.05 -0.11,-0.02 -0.14,0.11 -0.03,0.09 -0.23,0.21 -0.14,0 -0.06,-0.09 -0.11,0 -0.11,0.21 -0.17,0.16 -0.4,-0.11 -0.23,-0.14 -0.54,-0.02 -0.14,-0.07 -0.48,0 -0.63,0.28 -0.09,0.09 -0.2,-0.04 -0.06,-0.07 -0.37,0.02 -0.14,0.09 -0.26,-0.04 -0.74,0.21 -0.28,0.18 -0.2,0.05 -0.8,0.64 0,0.14 -0.08,0.02 -0.03,0.16 -0.26,0.07 -0.03,0.21 -0.11,0.16 0.03,0.25 0.08,0.11 -0.03,0.14 0.2,0.12 0,0.11 0.06,0.02 0.03,0.14 0.06,0 0.03,0.21 0.48,0.02 0.09,0.11 -0.26,-0.05 -0.11,0.07 -0.03,0.23 -0.14,0.09 -0.08,0.25 -0.06,0 -0.08,0.14 -0.09,0 -0.14,0.25 0,0.21 -0.06,0.02 -0.03,0.18 -0.14,0.16 0,0.32 0.37,0.09 0,0.07 -0.11,0.05 -0.2,0.23 -0.23,0.07 -0.14,0.14 -0.43,0.73 -0.06,0.16 0.31,0.18 -0.03,0.11 -0.37,-0.02 -0.17,0.07 -0.57,-0.09 -0.23,0.05 0,-0.07 -0.11,-0.07 -0.23,0 -0.09,0.09 -0.11,0 -0.11,-0.09 -0.14,0.05 -0.26,-0.02 -0.14,0.09 -0.03,0.37 0.26,0.14 0,0.16 -0.08,0.05 -0.26,-0.02 -0.03,0.05 -0.28,-0.07 -0.11,0.14 -0.28,0 -0.03,0.09 0.08,0.05 0,0.11 -0.17,0.09 -0.06,0.07 0,0.16 -0.11,0.07 -0.2,-0.02 -0.11,-0.11 0,-0.09 -0.11,-0.07 -0.11,0.07 -0.2,0 -0.06,-0.07 -0.43,-0.02 -0.11,-0.09 0,-0.11 0.17,-0.07 -0.03,-0.11 -0.26,0 -0.26,-0.11 0,0.11 -0.08,0.05 -0.14,0.04 -0.34,-0.02 -0.06,-0.09 0.08,-0.23 -0.03,-0.04 -0.43,-0.02 -0.03,0.18 -0.2,0.05 -0.31,0 -0.17,-0.18 -0.74,-0.02 -0.17,0.16 -0.06,0.23 0.34,0.18 0.03,0.07 -0.06,0.07 -0.14,0.05 -0.23,-0.05 -0.06,0.07 -0.31,0.02 -0.17,0.16 -0.09,0.27 -0.2,0 -0.14,0.14 -0.14,-0.02 -0.26,0.18 0,0.09 -0.08,0.02 -0.11,0.18 0.09,0.12 0,0.16 -0.14,0.11 -0.23,0.07 0.06,0.16 0.08,-0.02 0.14,0.07 -0.06,0.16 0.11,0.12 0.11,0.02 0.03,0.23 -0.11,0.02 -0.31,-0.18 -0.11,0 -0.17,0.07 0,0.07 -0.14,0.02 -0.06,-0.05 0,0.21 -0.11,0.07 -0.14,-0.07 -0.06,-0.14 -0.14,0 -0.03,0.18 0.14,0.11 -0.09,0.05 0.03,0.25 -0.2,0.16 0,0.14 0.11,0.07 0,0.14 -0.17,0.07 -0.23,-0.23 -0.31,0.05 -0.08,0.09 -0.23,-0.09 -0.11,0.09 -0.14,0 -0.11,-0.18 -0.06,0 0,-0.07 -0.08,-0.02 0,-0.07 -0.2,0 -0.03,-0.23 -0.94,-0.21 0,-0.27 -0.48,0.05 -0.03,-0.14 -0.2,-0.09 -0.09,0.14 -0.17,-0.07 -0.23,0.09 -0.2,0 -0.17,0.12 -0.29,-0.02 -0.28,-0.21 -0.14,-0.25 -0.23,0.02 -0.31,-0.11 -0.14,-0.21 -0.31,0.07 -0.06,-0.16 -0.08,-0.05 -0.23,0.05 -0.09,-0.07 -0.48,0 -0.09,-0.05 -0.2,-0.27 0,-0.46 0.2,-0.27 0.37,-0.14 0,-0.11 -0.08,-0.12 0.14,-0.04 0,-0.41 -0.29,-0.3 -0.08,-0.41 -0.17,-0.18 -0.03,-0.11 0.08,-0.02 0.03,-0.14 -0.17,-0.25 -0.03,-0.14 -0.2,-0.21 -0.85,-0.07 -0.26,-0.16 -0.2,0.02 -0.08,-0.16 -0.29,0.11 -0.23,-0.09 -0.03,-0.09 -0.11,0.04 -0.08,-0.2 -0.29,-0.18 -0.2,0.09 0,0.09 -0.23,0.02 -0.03,-0.09 0.17,-0.02 0,-0.09 0.11,-0.07 0,-0.09 -0.08,-0.05 0,-0.14 -0.09,-0.16 -0.2,-0.14 0,-0.09 0.2,-0.16 0.4,-0.07 0.09,-0.11 0.23,0.07 0,-0.14 -0.23,-0.02 0.06,-0.14 -0.14,-0.07 0,-0.14 0.2,-0.09 0.31,0.02 0.46,0.14 0.51,0 0.31,0.07 0.2,0.16 0,0.09 -0.31,0.27 0.09,0.09 0.03,0.18 0.2,0.14 0.23,0.02 0.03,0.07 0.23,0 0.11,-0.11 0.31,-0.07 0.03,0.05 -0.11,0.05 0.03,0.11 0.48,0 0.23,-0.21 0.03,-0.25 -0.06,-0.11 -0.28,-0.18 -0.14,0 -0.23,-0.11 0.28,-0.23 -0.03,-0.18 0.06,-0.02 0,-0.14 -0.06,-0.21 0.46,-0.02 0.08,-0.09 0.31,0.02 0.03,-0.05 0.14,0 -0.03,0.12 -0.85,0.07 -0.03,0.16 1.11,-0.02 -0.09,-0.32 0.14,0 0.03,0.07 0.14,-0.05 0.17,0.07 -0.03,0.07 -0.31,-0.02 0,0.07 0.03,0.14 0.4,0.25 0.34,0.02 0.34,0.14 0.54,-0.05 0.28,0.12 0.17,-0.07 0.26,0 0.08,0.07 0.03,0.18 -0.2,0.05 -0.06,0.09 0.11,0.32 0.08,0 0.11,0.21 0.08,0.02 -0.03,0.23 0.11,0.09 0.4,-0.11 0.11,-0.11 0.23,0.09 0.11,0 0.06,-0.07 0.23,0.05 0.06,-0.11 0.28,0.02 0.11,0.07 0.11,-0.07 0.14,0.05 0.03,-0.18 0.28,-0.11 -0.11,-0.05 -0.2,0.11 -0.2,-0.04 -0.4,0.02 -0.48,-0.25 -0.31,0 -0.17,-0.16 -0.28,-0.05 -0.11,-0.11 0,-0.11 0.4,-0.07 0.09,-0.16 0.34,-0.21 0.03,-0.37 0.09,-0.14 0.11,0.02 0.03,0.14 0.17,-0.11 0.11,0.05 -0.06,0.07 0.08,0.09 0.34,0.02 -0.11,-0.23 0.03,-0.07 0.26,0.02 0.23,-0.14 0.09,-0.27 0.31,0.07 0.14,0.18 0.26,0.07 -0.06,0.25 0.09,0.09 0.03,0.16 0.68,0.02 0,-0.09 -0.57,-0.07 -0.11,-0.11 0,-0.11 0.43,-0.32 0.17,-0.23 0,-0.16 0.06,-0.05 0.43,0 0.17,0.07 0.14,-0.05 0.17,-0.18 0.06,-0.43 0.11,-0.14 0.88,0.02 0.2,0.16 0.06,0.16 0.17,0.11 0.03,0.07 -0.06,0.07 0.11,0.07 0,0.09 0.08,0.02 0.08,0.21 0.17,0.09 0.14,0.21 0.11,0.02 -0.26,-0.37 0.03,-0.14 -0.17,-0.07 -0.06,-0.18 -0.08,-0.02 0.03,-0.21 -0.37,-0.53 0.23,-0.14 0.48,-0.07 0.14,-0.09 0.2,0.02 0.08,-0.05 0.14,0.14 0.23,-0.11 -0.08,0 -0.14,-0.12 -0.43,-0.05 -0.14,0.02 -0.4,0.23 -0.14,-0.04 -0.48,0.02 -0.14,0.23 -0.31,0.14 -0.29,-0.07 -0.06,-0.05 0.06,-0.09 0,-0.21 -0.08,-0.25 0.06,-0.48 0.14,-0.09 0.29,0.07 0.11,0 0.03,-0.07 -0.2,-0.05 -0.14,-0.14 -0.2,0 -0.26,-0.23 -0.43,-0.14 0,-0.14 0.03,-0.16 0.08,-0.07 0.03,-0.32 0.08,-0.07 -0.03,-0.21 -0.09,-0.04 0.03,-0.34 0.17,-0.16 0,-0.18 0.17,-0.07 -0.14,-0.16 0.14,-0.41 0.14,-0.14 0.51,-0.16 0.2,-0.16 0.2,-0.23 0,-0.23 0.09,-0.09 0.03,-0.25 0.14,-0.12 0.46,-0.25 0.6,-0.07 0.23,-0.11 0.2,0.02 -0.03,-0.07 -0.94,0.05 -0.14,0.11 -0.14,0 -0.2,0.16 -0.03,0.12 -0.11,0.02 -0.14,0.14 -0.06,0.3 -0.26,0.3 -0.17,0.14 -0.37,0.02 -0.03,0.16 -0.2,0 -0.4,0.37 -0.17,-0.12 -0.08,-0.16 -0.26,-0.16 0,-0.11 -0.11,-0.12 0.03,-0.14 -0.06,0 -0.06,0.09 0.09,0.14 -0.06,0.18 -0.46,-0.14 -0.29,0 -0.23,0.07 -0.28,0.25 -0.09,0.18 -0.26,0.12 -0.09,-0.16 -0.11,-0.07 0.03,-0.5 0.03,-0.12 0.11,-0.07 0,-0.09 0.28,-0.18 0.03,-0.16 -0.08,0 -0.11,0.16 -0.31,0.21 -0.03,0.21 -0.06,0.05 0,0.32 0.06,0.07 -0.06,0.14 0.17,0.09 0.11,0.23 0.14,0 0.2,-0.18 0.14,-0.02 0.51,-0.3 0.11,0.02 0.23,-0.07 0.08,0.14 0.11,0.02 0.03,0.07 0.23,0.09 0.23,0.18 0.11,0.23 -0.03,0.09 -0.2,0.09 0,0.07 0.06,0.05 0,0.25 0.11,0.16 -0.03,0.28 0.08,0.07 0.03,0.25 -0.14,0.11 -0.11,-0.02 -0.06,0.14 0.08,0.07 0,0.18 0.17,0.39 0.43,0.18 0.23,0.18 0.03,0.11 -0.11,0.3 0.08,0.23 -0.31,0.57 0.03,0.39 -0.11,0.18 -0.11,0.02 -0.09,-0.09 -0.46,0 -0.31,0.25 -0.03,0.09 -0.31,0.21 -0.11,0 -0.31,-0.32 -0.2,-0.07 -0.26,0.02 -0.2,0.09 -0.06,0.09 0,0.18 -0.17,0.07 -0.4,-0.11 -0.06,-0.07 -0.26,-0.02 -0.14,0.11 -0.29,0 -0.17,0.18 -0.54,0.23 0,0.04 -0.11,0.05 -0.26,-0.02 -0.03,0.05 -0.08,-0.09 -0.09,0.02 -0.03,-0.04 -0.2,0 -0.08,-0.09 -0.2,0 -0.03,-0.07 -0.57,-0.21 -0.26,-0.16 -0.03,-0.09 -0.08,0 0.14,-0.23 0.03,-0.27 -0.06,-0.02 -0.06,0.3 -0.11,0.16 -0.14,-0.07 -0.2,0 -0.17,-0.14 -0.14,0.02 -0.17,-0.11 -0.17,0 0.06,0.09 0.14,0 0.14,0.11 -0.26,0.18 -0.4,-0.07 -0.08,0.14 -0.06,0 -0.26,-0.07 -0.08,-0.21 -0.11,-0.05 -0.08,0.07 0,0.16 0.11,0.55 0.17,-0.09 0.11,0.02 -0.29,0.23 -0.14,-0.02 0.09,-0.14 -0.11,-0.25 -0.03,-0.28 -0.68,0.07 -0.11,0.6 0.14,0.05 0.48,-0.05 -0.03,0.07 -0.46,0.05 -0.34,-0.07 0.03,-0.07 0.08,0.02 0.11,-0.6 -0.26,0.05 -0.17,-0.07 -0.09,-0.16 0.09,-0.27 -0.43,-0.39 -0.06,-0.37 -0.2,-0.11 -0.14,0.02 -0.08,-0.14 -0.08,0.02 0.03,0.14 0.11,0.09 -0.14,0.11 0.06,0.28 -0.09,0.07 -0.14,-0.07 -0.09,0.05 -0.17,0.18 0.06,0.09 -0.06,0.16 -0.2,-0.03 -0.03,-0.27 -0.29,-0.25 -0.06,0.07 -0.31,0 0,0.07 -0.11,0.05 0.03,0.16 -0.06,0.05 -0.17,0 -0.23,-0.09 -0.17,0 -0.14,0.09 -0.29,0 -0.2,-0.09 -0.03,-0.18 -0.11,-0.14 -0.43,-0.05 -0.17,0.11 -0.03,0.11 0.14,0.09 0,0.09 0.08,0.09 0.09,0.02 -0.06,0.16 0.03,0.16 0.14,0.05 0.2,0.18 0.54,0.05 0.09,0.14 -0.37,0.12 -0.03,0.23 0.17,0.12 0.03,0.11 -0.2,0.18 -0.2,0.07 0.14,0.11 0.06,0.28 -0.48,0.09 -0.2,-0.02 -0.08,0.11 0.08,0.18 0,0.16 -0.28,0.11 -0.09,-0.09 -0.03,-0.18 -0.31,-0.21 0.06,-0.23 -0.29,-0.11 0.06,-0.32 -0.11,-0.07 0.03,-0.27 -0.11,-0.07 -0.03,-0.09 0.2,-0.23 0,-0.21 -0.08,-0.05 0.08,-0.25 -0.83,-0.21 0,-0.23 0.08,-0.07 -0.03,-0.21 -0.43,-0.39 -0.2,-0.09 -0.48,-0.02 -0.08,0.09 -0.03,0.32 -0.11,0.02 -0.06,0.09 -0.23,-0.02 0,-0.11 0.26,-0.11 0.03,-0.21 -0.34,-0.21 -0.2,-0.02 0,-0.07 -0.31,-0.21 -0.03,-0.07 0.06,-0.09 -0.06,-0.05 -0.17,-0.02 -0.06,-0.09 -0.17,0 0.09,-0.3 -0.11,-0.07 0,-0.11 0.11,-0.02 0.03,0.07 0.26,-0.02 0.26,0.07 0.83,-0.02 0.17,0.05 0.23,0.18 0.11,0 0.08,0.07 0.17,-0.02 0.09,-0.21 0.17,-0.18 0,-0.3 0.09,-0.14 0,-0.44 0.13,0 0,-0.11 -0.11,-0.07 0.08,-0.3 0.2,0.07 0.09,-0.05 0.03,-0.12 0.17,-0.02 0.11,0.11 0.29,0.05 0.14,-0.34 0.23,-0.12 0,-0.16 0.14,-0.11 0,-0.09 0.26,-0.21 0.2,-0.07 0.11,-0.18 0.23,-0.16 0.14,0.07 0.28,0 0.06,-0.07 0.14,-0.02 0.43,0.14 0.09,-0.16 0.14,-0.02 0.2,0.11 0.08,0.18 0.54,0.07 0.14,-0.12 0.06,-0.14 0.34,-0.25 0,-0.09 0.08,-0.05 -0.03,-0.16 0.17,-0.07 0.06,-0.16 0,-0.21 -0.11,-0.09 0.03,-0.23 -0.06,-0.18 0.06,-0.02 0,-0.14 -0.06,-0.18 -0.09,-0.05 0.09,-0.73 0.08,-0.07 -0.06,-0.34 0.06,-0.34 -0.17,-0.25 0,-0.18 -0.17,-0.16 0,-0.16 0.14,-0.18 -0.08,-0.02 -0.03,0.09 -0.08,0.02 -0.14,-0.14 -0.06,-0.41 0.11,-0.11 0,-0.39 -0.08,-0.09 0,-0.18 -0.08,-0.11 -0.17,-0.67 -0.2,-0.3 -0.11,-0.32 -0.34,-0.28 -0.11,-0.23 -0.14,-0.12 -0.11,0 -0.14,0.14 -0.65,0.02 -0.08,-0.05 -0.03,0.23 -0.06,0.05 -0.06,-0.02 0.03,-0.21 -0.31,-0.18 -0.43,0.09 -0.14,-0.02 -0.14,0.16 -0.11,0.02 -0.03,-0.09 0.17,-0.16 -0.11,-0.28 -0.43,-0.05 -0.26,0.07 -0.03,-0.07 0.06,-0.07 -0.11,-0.02 -0.06,0.14 -0.14,0 -0.03,0.05 -0.12,0 0,-0.14 -0.48,0.11 -0.03,-0.07 0.06,-0.02 0,-0.09 -0.34,-0.3 -0.74,0.02 -0.31,0.18 -0.37,-0.16 -0.2,0.25 0.03,0.12 -0.11,-0.02 -0.03,0.09 -0.06,-0.02 0.03,-0.14 -0.06,-0.02 -0.03,-0.25 -0.17,0.09 -0.08,0.21 -0.11,0 -0.06,-0.14 -0.2,-0.09 -0.37,0.25 -0.17,0 -0.23,0.23 -0.46,0.12 -0.08,0.16 -0.2,0.07 0,0.14 0.08,0.07 -0.08,0.09 -0.09,-0.02 0,-0.55 -0.17,0.09 -0.2,-0.02 -0.17,0.25 -0.28,0.09 -0.11,0 -0.23,-0.23 0,-0.25 0.28,-0.18 0,-0.12 0.06,-0.05 0.14,0 0.06,-0.07 0.03,-0.3 0.08,-0.07 -0.06,-0.25 -0.14,-0.05 -0.06,-0.14 -0.14,-0.09 -0.06,-0.3 0.29,-0.23 0.11,0 0.06,0.09 0.14,0.02 0.14,-0.3 0.2,-0.14 0.11,-0.21 -0.03,-0.25 -0.2,-0.02 0.06,-0.16 -0.29,-0.09 -0.03,-0.21 -0.46,0.09 0.03,-0.16 0.08,-0.02 0.23,-0.32 0.43,-0.16 0.03,-0.07 0.26,-0.09 0.11,-0.16 0.11,-0.05 0.2,0.05 -0.03,0.18 0.06,0 0.23,-0.14 0.28,0.09 0.23,-0.18 0.65,-0.14 0.11,-0.07 0.06,-0.21 0.14,-0.07 0.06,-0.14 0.31,-0.05 0.23,-0.18 0.06,-0.25 0.14,-0.05 0.06,-0.16 0.14,0 0.06,-0.07 0.37,0 0.37,-0.14 0.29,-0.02 0.17,-0.14 0,-0.14 -0.29,-0.14 0,-0.07 0.71,-0.28 0,-0.12 -0.08,-0.07 -0.34,0 -0.09,-0.09 0.54,-0.02 0.03,-0.07 -0.11,-0.09 0.28,-0.07 -0.03,-0.07 -0.11,0 0.03,-0.09 0.28,-0.05 0.03,0.05 0.37,0.02 0.11,-0.07 0.37,-0.02 0.06,0.09 0.17,-0.05 0.31,0.18 0.31,0 0.11,-0.07 -0.06,-0.28 0.11,-0.07 0.23,0 0,-0.14 0.28,-0.07 -0.06,-0.09 0.11,-0.16 -0.26,-0.09 -0.03,-0.09 0.23,-0.07 0,-0.05 0.2,-0.02 0.03,-0.16 0.09,0 0.08,0.14 0.23,0.11 0.11,-0.09 0.11,0.09 0.14,-0.07 0.09,0.07 0.77,-0.04 0.2,-0.16 0,-0.23 -0.08,-0.02 0.03,-0.14 0.37,-0.16 0.06,0.14 0.31,0 0.06,0.07 0.09,0 0.2,-0.16 0,-0.23 0.06,-0.07 -0.11,-0.05 0.03,-0.14 -0.08,-0.07 0,-0.14 -0.08,-0.05 0,-0.09 0.06,-0.05 0,-0.22 0.17,-0.09 0.11,-0.21 -0.17,-0.07 -0.31,0.02 0.08,-0.28 -0.17,-0.18 -0.14,-0.05 0,-0.07 0.57,-0.37 0.51,-0.46 0,-0.07 -0.11,-0.07 -0.34,0.05 0,-0.07 0.08,-0.05 -0.03,-0.16 0.09,-0.02 -0.06,-0.07 0.06,-0.14 -0.23,-0.02 -0.17,-0.19 -0.11,0 -0.09,-0.07 0.17,-0.21 -0.03,-0.14 0.2,-0.16 0.09,-0.18 0.54,-0.28 0.06,-0.09 -0.03,-0.09 -0.23,0.07 -0.17,-0.02 0.28,-0.25 0.2,0.02 0.26,-0.07 0.06,-0.07 0.17,0 0.11,0.18 0.06,-0.05 0.11,0.05 -0.06,0.16 0.2,-0.02 0.06,0.05 0.2,-0.07 0.17,0.12 0.34,-0.09 0.14,0.14 0.23,-0.02 0.23,0.14 0.17,-0.02 0.11,0.37 0.08,-0.02 0,-0.14 0.14,-0.14 0.29,0.12 0.14,-0.09 0.17,0 0,-0.12 0.09,-0.02 0,0.07 0.11,0.07 0.09,0 0,-0.09 0.2,0.02 0.11,0.18 0.03,-0.25 0.23,0.09 0.11,0.21 -0.06,0.05 -0.03,0.48 0.31,0 0.03,0.07 0.48,0.12 0.09,0.07 -0.11,0.02 -0.51,-0.14 -0.2,0.48 -0.09,-0.02 -0.26,0.28 0.03,0.28 0.14,0 -0.03,0.09 0.14,0.12 0.11,0 0.2,-0.16 0.11,0.09 0.11,-0.07 0.06,0.07 -0.03,0.16 0.11,0.07 0.08,0.16 0.11,-0.05 -0.11,-0.09 0.06,-0.14 -0.03,-0.23 0.31,-0.02 0.14,0.14 0.17,0 -0.03,-0.14 0.11,-0.07 0.54,-0.07 0.06,-0.14 0.17,-0.09 0.06,-0.16 0.26,0.12 0.03,-0.23 0.29,0.02 0.11,-0.25 0.11,0.07 0.11,-0.07 0.11,0.21 0.06,0 -0.06,-0.37 -0.06,-0.05 0.2,-0.07 0.2,-0.16 0.06,-0.16 0.17,-0.07 -0.03,-0.09 -0.17,-0.02 0,-0.16 -0.2,-0.12 -0.03,-0.14 0.08,-0.09 0.03,-0.16 0.11,0 -0.03,-0.07 0.11,-0.05 0.06,-0.25 0.11,-0.05 0.09,0.05 0.26,-0.02 0.11,0.07 0.06,0.14 0.29,0.09 0.08,0.16 -0.06,0.46 0.08,-0.07 0.14,0.02 0.14,0.28 0.34,0 0.43,-0.09 0.2,0.12 0.14,0 0.06,-0.18 0.37,-0.07 0.08,0.09 0.11,-0.05 0.14,0.05 0.2,-0.07 -0.03,0.12 0.2,0.07 0.06,-0.05 0.14,0.05 0.26,-0.02 0.34,0.14 0,-0.12 -0.28,-0.09 -0.17,-0.16 -0.06,-0.32 -0.08,-0.21 -0.09,-0.05 0,-0.23 -0.4,-0.23 0.06,-0.05 -0.06,-0.25 0.09,-0.09 0,-0.09 0.14,-0.12 0,-0.07 0.11,-0.05 0,-0.14 0.14,-0.07 0.06,-0.21 0.17,-0.14 0.17,-0.02 0.14,-0.14 0.31,-0.09 0.06,-0.09 0.26,0 0.23,-0.09 0.09,0 0,0.05 0.31,-0.05 0.06,0.07 0.08,0 0.66,-0.32 0.17,-0.46 0.31,-0.07 0,-0.16 0.11,-0.09 -0.03,-0.09 0.23,-0.02 0.08,-0.23 0.14,-0.12 0,-0.12 0.14,-0.05 0,-0.05 0.11,0 0.23,-0.6 0.23,-0.25 0.08,-0.18 -0.03,-0.21 0.4,-0.23 0.03,-0.18 0.06,-0.02 0,-0.23 -0.14,-0.16 -0.17,-0.02 -0.03,-0.09 0.14,-0.14 0.14,-0.02 0.4,-0.23 0.14,-0.42 -0.03,-0.16 0.17,-0.19 0.48,0.32 0.06,0.18 0.34,0.07 0.08,0.07 0,0.14 0.06,0.07 0.17,0 0.06,0.07 0.17,-0.05 0.06,0.07 -0.06,0.05 0.03,0.07 0.31,0 0.26,0.18 0.06,0.23 0.26,0.19 0.08,0.09 0,0.12 0.11,0.09 0.03,0.18 -0.06,0.05 -0.03,0.21 0.06,0.07 0,0.18 0.06,0 0.11,-0.14 0,-0.46 0.17,-0.18 0,-0.32 -0.09,-0.25 -0.26,-0.16 -0.14,-0.02 -0.14,0.12 -0.08,0 0.14,-0.3 0.03,-0.25 -0.11,-0.23 0,-0.23 -0.26,-0.25 0,-0.09 0.11,-0.09 0,-0.19 0.09,-0.18 -0.03,-0.16 0.06,-0.02 0.03,-0.18 0.14,-0.02 0.06,0.07 0.4,0.05 0.2,-0.12 0,-0.09 0.09,-0.07 0.28,0 0.31,-0.21 0.77,0.07 0.08,-0.12 -0.14,-0.14 0,-0.12 0.06,-0.02 1.25,0 0.54,-0.12 0.14,-0.14 0.2,0.14 0,-0.03 0.88,0.09 0.17,-0.19 0.11,0 0.11,-0.23 0.43,-0.16 0.4,0.05 0.23,0.12 0.03,0.14 -0.06,0.09 0.06,0.09 0.29,0 0.11,0.12 0.09,0.23 0.06,0 0.06,-0.14 0.51,0.14 0.85,-0.09 0.17,-0.16 0.51,-0.21 0.31,-0.3 0.11,-0.02 0.06,-0.32 0.17,-0.19 0.14,-0.35 0.2,-0.18 0.14,-0.02 0.17,-0.19 0.2,-0.05 0.11,-0.09 0.2,-0.44 0,-0.16 -0.09,-0.05 0,-0.09 0.11,-0.05 0.06,-0.25 0.14,0 -0.03,0.32 0.06,0.07 0.17,0.07 0.23,0 0.2,-0.12 0.11,0 0.11,-0.16 0.11,0 0.17,-0.25 0.48,-0.19 0.46,-0.49 0.23,-0.35 0.03,-0.14 0.63,-0.46 0.06,-0.14 0.37,-0.32 0.4,-0.56 0.31,-0.19 0.03,-0.23 0.31,-0.39 0.4,-0.14 0.26,-0.19 0.2,0.09 0.03,0.14 0.11,0.07 0.09,0.39 0.11,0.09 0.2,0.02 0.34,-0.07 0.43,-0.39 0.09,0.02 0.03,0.19 0.06,0.02 0.31,-0.05 0.85,-0.56 0.11,-0.21 0.29,-0.16 0.03,-0.09 0.14,-0.07 0,-0.07 0.17,-0.05 0.29,-0.23 0.03,-0.14 0.26,-0.07 0.37,-0.39 0.43,-0.25 0,-0.12 0.17,-0.18 0.03,-0.14 0.2,-0.16 0.37,-0.19 0.43,0 0.26,-0.07 0.09,-0.09 0.17,0.02 0.14,-0.09 0.03,-0.14 0.31,-0.25 0.2,-0.07 0.74,-0.53 0.31,-0.49 -0.03,-0.28 0.09,-0.02 0,-0.07 0.2,-0.19 0.11,-0.02 0,-0.07 0.09,0 0.03,-0.12 0.06,0 0,-0.07 0.11,-0.09 0.03,-0.21 -0.06,-0.14 0.2,-0.21 -0.11,-0.14 0.03,-0.09 0.09,-0.05 0.03,-0.12 0.14,-0.07 0.43,0.02 0.08,-0.14 0.09,-0.02 0.31,-0.74 -0.03,-0.09 0.06,-0.19 0.28,-0.05 0,-0.07 0.17,-0.09 0.14,-0.46 0.26,-0.16 0.31,-0.49 0.08,-0.16 0,-0.25 0.09,-0.02 0,-0.12 0.06,-0.05 0,-0.19 0.11,-0.21 0.26,-0.26 0,-0.12 0.14,-0.19 0.11,-0.56 0.11,-0.16 0.08,-0.3 0.09,-0.72 0.06,-0.02 0.26,-0.51 0.03,-0.4 0.11,-0.19 0,-0.14 0.29,-0.4 0.03,-0.14 0.11,-0.09 0,-0.19 0.14,-0.23 0.03,-0.21 0.11,-0.09 0.03,-0.16 0.09,-0.07 0.26,-0.05 0.06,-0.07 -0.17,-0.28 0,-0.21 -0.11,-0.21 0.17,-0.19 0,-0.14 -0.09,-0.05 0.06,-0.16 0.06,0 -0.06,-0.07 0,-0.19 0.17,-0.02 0.09,-0.14 -0.06,-0.07 -0.06,-0.47 0.11,-0.14 0.06,-0.33 0.17,-0.16 0,-0.12 -0.08,-0.02 -0.03,-0.09 0.03,-0.12 -0.09,-0.12 0.06,-0.09 0.06,-0.54 0.14,-0.33 -0.03,-0.19 0.14,-0.12 0.06,-0.4 0.26,-0.7 0,-0.19 0.34,-0.54 0,-0.21 0.57,-0.33 0,-0.65 -0.06,-0.21 0.03,-0.61 -0.11,-0.89 -0.08,-0.26 0,-0.33 -0.14,-0.65 0.06,-0.47 0.09,-0.14 0.28,-0.05 0.03,0.33 0.26,0.09 0.06,0.09 0.11,-0.07 0.06,0.09 0.08,0 0.06,-0.09 0.11,0 0.14,-0.14 0.23,0.05 0.11,0.09 0.2,-0.02 0,0.09 0.14,0 0.46,-0.28 0.09,-0.14 0.26,-0.16 0.11,-0.05 0.23,0.05 0.03,-0.14 0.17,-0.14 0.14,0 0.08,-0.12 0.17,-0.02 0.03,-0.07 -0.17,-0.09 0,-0.21 0.09,-0.12 0.34,-0.05 0,-0.07 -0.17,0 0,0 0.14,-0.16 0.11,-0.02 -0.03,-0.16 0.17,-0.02 -0.03,0.16 0.06,0.09 0.17,0.07 0.03,-0.09 0.06,0 0.03,0.14 0.09,0.02 0.11,-0.14 0.09,-0.26 0.08,0 0.17,-0.3 0.23,-0.21 0.31,-0.07 0.2,-0.12 0.17,0 0.08,0.07 0.11,0.28 0.17,0.14 0.29,-0.09 0.14,-0.19 0,-0.26 -0.08,0 -0.03,0.3 -0.11,0.09 -0.14,0 -0.17,-0.19 -0.08,-0.28 -0.09,-0.05 -0.2,-0.02 -0.28,0.12 -0.17,0 -0.43,-0.12 -0.09,0.05 -0.08,0.16 -0.29,0.21 -0.11,0 -0.09,-0.07 -0.48,0.09 -0.51,0.26 -0.11,-0.05 -0.17,0.12 0,0.07 -0.37,0.05 -0.17,0.16 -0.85,0.12 -0.28,0.14 -0.23,0 -0.31,0.09 -0.11,0.09 -0.48,0.02 -0.03,0.05 -0.8,-0.12 0,-0.07 -0.26,-0.26 -0.06,-0.4 -0.08,-0.05 -0.2,-0.63 -0.14,-0.16 0,-0.21 -0.17,-0.19 -0.08,-0.3 -0.11,-0.05 -0.06,-0.16 -0.06,-0.02 -0.03,-0.19 -0.2,-0.28 -0.06,-0.26 -0.11,-0.09 0,-0.16 -0.08,-0.07 -0.06,-0.23 -0.14,-0.16 -0.03,-0.23 -0.14,-0.09 -0.09,-0.23 -0.14,-0.21 -0.11,-0.07 0,-0.12 -0.54,-0.51 -0.03,-0.19 -0.08,-0.12 0.08,-0.56 0.08,-0.14 0.03,-0.23 0.08,-0.09 -0.03,-0.09 0.08,-0.12 0.03,-0.3 0.14,-0.16 -0.03,-0.14 0.14,-0.23 -0.03,-0.35 0.08,-0.09 0.06,-0.28 0.26,-0.35 0.11,-0.4 0.31,-0.49 0.03,-0.09 -0.06,-0.14 0.23,-0.16 0.03,-0.16 0.09,-0.07 -0.03,-0.19 0.63,-0.26 0.17,-0.14 0.08,-0.21 0.23,-0.19 0.14,-0.21 0.23,-0.07 0.23,-0.28 0.31,-0.21 0.03,-0.75 -0.09,-0.28 0.03,-0.28 -0.11,-0.3 0.03,-0.16 0.26,-0.19 0.03,-0.14 0.11,-0.07 0.06,-0.14 0.11,-0.02 0,0.12 -0.11,0.05 0,0.14 -0.11,0.09 0.06,0.33 0.23,0.02 0.4,-0.14 0.09,-0.09 0.2,-0.07 0,-0.14 0.11,-0.05 0.03,-0.16 0.06,-0.05 0.23,0.05 0.14,-0.12 0.11,-0.21 0.11,-0.02 0.11,-0.16 0.08,-0.02 0,0.14 0.11,0.05 0.17,-0.07 0.06,-0.16 0.48,-0.16 0,-0.09 0.11,-0.12 0,-0.16 0.09,-0.14 0.14,-0.07 0.11,-0.47 0.08,-0.12 0.71,-0.09 0.23,-0.26 0.14,-0.05 0.31,-0.49 0.26,-0.05 0.06,-0.09 0.17,-0.05 0.03,-0.09 0.17,0.02 0.08,0.09 0.2,0.02 0.29,0.16 0.11,-0.16 0,-0.12 0.37,-0.21 0,-0.05 -0.08,0 -0.29,0.12 -0.08,0.09 -0.03,0.19 -0.48,-0.28 -0.26,-0.05 -0.37,0.24 -0.17,0 -0.17,0.12 -0.31,0.07 -0.11,0.12 -0.06,0.19 -0.34,0.16 -0.28,0.28 -0.14,0 -0.03,-0.07 -0.14,0.02 0,0.05 -0.26,-0.02 -0.09,0.07 0,0.14 -0.23,0 -0.17,0.07 -0.06,0.16 -0.48,0.05 -0.08,0.09 -0.31,0.02 -0.23,0.21 -0.11,0.45 -0.29,0.33 -0.23,-0.05 -0.17,0.12 -0.26,0 -0.03,0.09 -0.08,0.02 -0.11,-0.19 -0.14,-0.02 -0.06,-0.09 -0.2,-0.07 -0.06,-0.19 -0.23,-0.26 -0.06,-0.3 -0.08,-0.19 -0.09,-0.02 0,-0.16 -0.2,-0.19 -0.03,-0.17 -0.14,-0.23 -0.08,-0.38 -0.23,-0.42 -0.17,-0.24 -0.14,-0.09 -0.26,-0.42 -0.11,-0.07 -0.08,-0.28 -0.23,-0.16 0,-0.07 -0.48,-0.54 -0.14,-0.3 -0.31,-0.42 0,-0.09 -0.11,-0.07 -0.2,-0.35 -0.29,-0.26 -0.14,-0.31 -0.2,-0.21 -0.11,-0.26 -0.06,0 -0.17,-0.45 -0.09,-0.09 -0.03,-0.28 -0.17,-0.16 0,-0.21 0.11,0 0.03,-0.14 0.14,-0.12 0,-0.07 0.28,-0.17 0.06,-0.14 0.29,-0.14 0.08,-0.14 0.23,-0.09 0.11,-0.17 0.06,0 -0.03,0.21 -0.11,0.02 0,0.07 -0.2,0.14 0.06,0.05 0.08,-0.09 0.11,0.02 -0.08,0.24 0.23,-0.09 0.11,-0.19 0.2,-0.05 0,-0.35 0.09,-0.05 0.2,0.02 -0.06,-0.12 -0.23,0.07 0,0.05 -0.2,-0.02 -0.08,0.05 -0.14,-0.07 0.03,-0.16 -0.06,-0.05 0,-0.12 0.06,-0.31 0.11,-0.12 0.11,-0.31 0.2,-0.21 0.03,-0.38 -0.14,-0.52 -0.14,-0.21 -0.2,-0.54 -0.17,-0.21 -0.17,-0.38 -0.14,-0.12 0,-0.12 -0.29,-0.47 -0.11,-0.54 -0.08,-0.12 0.03,-0.35 0.09,-0.16 0.26,-0.17 0.11,0.05 0.26,-0.12 0.2,0.05 0.31,-0.17 0.17,0.05 0.23,-0.02 0.23,-0.24 1.2,-0.09 0.2,0.02 0.06,0.09 0.14,0.02 0.03,-0.17 0.08,-0.09 0.48,-0.38 0.06,-0.24 -0.17,-0.05 0.14,-0.24 0.2,-0.12 0.2,-0.02 0.03,-0.31 0.14,-0.24 0,-0.12 0.08,0 0.09,-0.14 0.2,-0.02 0.23,-0.12 0.03,-0.19 0.11,-0.09 0,-0.26 0.17,-0.17 0.57,-0.09 0.03,-0.07 0.14,0 0.08,-0.07 0.06,-0.07 -0.03,-0.05 -0.14,0.02 -0.26,0.17 -0.17,-0.05 -0.26,0.02 -0.26,0.31 0,0.17 -0.11,0.26 -0.23,0.17 -0.17,-0.05 -0.2,0.26 -0.09,-0.09 -0.23,-0.02 -0.74,0.26 -0.34,0.28 -0.17,0.05 -0.06,0.17 -0.08,0.02 0.03,0.07 -0.2,0.19 -0.31,0.09 0,0.14 -0.14,0.14 -0.23,-0.02 -0.08,-0.14 -0.23,-0.07 0,-0.09 0.2,-0.19 0.06,-0.26 -0.03,-0.16 0.34,-0.26 0,-0.09 -0.23,-0.05 0.06,-0.21 -0.11,-0.02 -0.23,0.24 -0.23,0.07 -0.03,-0.26 -0.08,-0.05 0,-0.09 -0.34,-0.02 -0.08,0.02 -0.06,0.12 0,0.19 0.09,0.02 0.03,-0.07 0.08,0.05 -0.14,0.24 -0.17,0.05 -0.06,0.35 -0.17,0.14 0,0.24 -0.17,0.02 -0.09,0.14 -0.17,0.01 -0.03,0.12 -0.46,0.02 -0.11,-0.07 -0.09,0.16 0.09,0.07 0.17,0.02 -0.03,0.09 -1.11,-0.07 -0.34,-0.17 -0.03,-0.07 -0.17,-0.05 -0.2,-0.17 -0.26,-0.09 -0.03,-0.09 -0.11,0 -0.11,0.12 -0.23,0 -0.17,-0.17 -0.54,-0.21 -0.06,-0.09 -0.4,0.02 -0.03,-0.05 -0.14,0 -0.06,0.02 0.03,0.05 -0.17,0.28 -0.37,-0.02 -0.48,0.12 -0.37,0.02 -0.06,0.02 -0.03,0.19 -0.29,0.02 -0.03,0.07 -0.2,0 -0.08,-0.14 -0.2,-0.02 -0.03,0.05 -0.43,0 -0.14,0.05 0,0.07 -0.2,-0.05 -0.17,0.05 -0.57,-0.02 -0.11,0.07 -0.26,-0.02 -0.2,0.12 -0.14,0 -0.08,0.12 -0.17,0.02 -0.11,0.17 0.06,0.38 -0.23,0.28 0,0.07 0.14,0.07 -0.06,0.09 0.03,0.17 -0.06,0.05 -0.29,-0.02 -0.11,-0.07 -0.97,-0.21 -0.57,0 -0.23,-0.12 -0.08,0.07 -0.63,-0.05 -0.57,0.14 -0.23,0.14 -0.2,0.26 0,-0.02 -0.08,0 0.11,0.33 -0.06,0.09 -0.28,-0.12 -0.03,-0.26 0.14,0 0.06,-0.14 -0.03,-0.05 -0.17,0 -0.48,0.33 0,0.07 0.17,0.05 0.03,0.14 0.11,0.07 0.34,-0.05 0.2,0.07 0.11,0 0.11,-0.09 0.03,-0.19 0.08,0 -0.08,0.35 -0.09,0.05 -0.68,0 -0.48,0.16 -0.37,0.05 -0.54,0.21 -0.17,0 -0.23,0.21 -0.48,0.19 -0.08,0.09 -0.11,0 -0.28,0.24 0.06,0.38 -0.37,0.16 -0.28,0.33 -0.09,0.28 0.46,0.28 0,0.31 -0.23,0.19 -0.31,0 -0.11,0.14 -0.6,0.38 -0.17,0.35 -0.2,0.24 0.03,0.16 -0.11,0.12 0,0.12 0.26,0.07 0.06,0.07 0,0.14 -0.23,0.19 -0.06,0.26 0.03,0.4 0.14,0.09 0.11,0.21 0.29,0.05 0.08,-0.09 0.11,0 0.08,0.19 0.09,0.05 -0.03,0.16 0.11,0.24 -0.17,0.28 -0.03,0.47 -0.14,0.05 0,0.12 -0.08,0.14 -0.11,0 -0.06,-0.12 -0.14,-0.09 -0.06,-0.14 -0.2,0 -0.66,0.19 -0.11,0.14 -0.03,0.28 -0.11,0.28 -0.06,0.02 0,0.07 0.11,0.05 0.03,0.09 -0.23,0.05 -0.11,0.19 -0.2,0.14 -0.14,-0.02 -0.11,-0.24 -0.23,-0.14 -0.03,-0.14 -0.23,-0.05 -0.06,-0.14 0.09,-0.09 0.03,-0.21 -0.06,-0.14 0.03,-0.12 -0.06,-0.07 0.03,-0.12 0.11,0.02 0,-0.12 0.06,0 0.06,-0.09 -0.03,-0.07 0.08,-0.05 0,-0.19 -0.11,-0.19 -0.11,-0.09 -0.09,0.02 -0.11,-0.17 -0.17,-0.09 -0.11,-0.19 -0.6,-0.4 -0.06,-0.09 -0.14,0 -0.4,-0.35 -0.11,0 -0.51,-0.28 -0.8,-0.21 -0.26,0 -0.26,0.17 -0.09,0.09 -0.06,0.21 -0.14,0.14 0,0.12 -0.11,0.12 0.03,0.05 -0.11,0.12 -0.09,0.26 -0.4,0.3 -0.06,0.14 -0.26,0.05 -0.2,0.3 -0.17,0.09 -0.29,0.05 -0.08,-0.42 -0.31,-0.05 -0.11,-0.12 -0.11,0 -0.43,0.24 0.03,0.14 -0.37,0.02 -0.03,0.09 -0.2,0.12 -0.06,0.14 -0.17,0.07 -0.03,0.16 -0.11,0.02 -0.2,-0.09 -0.03,-0.16 0.09,-0.09 -0.06,-0.12 -0.17,-0.12 -0.46,-0.19 -0.34,-0.07 -0.31,0.02 -0.2,0.14 0,0.33 -0.14,0.14 0.03,0.31 -0.2,0.45 -0.14,0.12 0,0.35 -0.06,0.05 -0.09,0.02 0,-0.05 -0.23,-0.14 -0.03,-0.12 -0.11,0.09 -0.2,0.02 -0.14,-0.14 0.03,-0.09 -0.2,-0.09 -0.14,-0.17 -0.2,0.09 -0.06,-0.14 -0.23,-0.14 -0.06,-0.19 -0.2,-0.02 0.03,-0.14 -0.08,-0.21 0.06,-0.09 0.23,0 0.06,-0.26 0.08,-0.09 0.14,0.05 0.11,-0.19 0.17,-0.05 0.03,-0.19 -0.14,-0.12 0.08,0 0.09,-0.12 0,-0.49 0.23,-0.16 0.31,-0.35 -0.03,-0.05 0.14,-0.21 0,-0.12 -0.11,-0.05 0,-0.07 0.26,-0.05 0,-0.07 -0.11,-0.09 0.46,-0.28 0.03,-0.14 0.11,0 0.06,0.07 0.11,-0.05 0.03,-0.24 -0.08,-0.12 0.03,-0.26 -0.11,-0.07 -0.09,-0.24 0.11,-0.35 0,-0.17 -0.06,-0.02 -0.03,-0.12 0.09,-0.02 0.14,-0.19 0.09,0 0.03,0.07 0.31,0 0.03,-0.05 -0.09,-0.02 0.17,-0.05 0.14,-0.12 -0.03,-0.05 0.17,-0.12 0.08,0 0.06,0.09 0.34,0 0.23,-0.38 -0.03,-0.49 0.06,-0.07 0,-0.24 0.08,-0.12 0.2,-0.17 0.29,0.12 0.34,-0.07 0.31,-0.31 0,-0.14 0.14,-0.19 0,-0.26 -0.14,-0.14 0.06,-0.14 0.23,-0.19 0.06,-0.19 0.11,-0.02 0.08,-0.35 0.17,-0.05 0.06,-0.24 0.08,-0.14 0.08,-0.02 -0.06,-0.07 0.03,-0.14 0.14,0 0.17,0.12 0.17,0.02 0.11,-0.02 0.06,-0.12 0.14,0.09 0.11,-0.05 0.09,-0.24 0.17,-0.09 0.26,-0.45 0,-0.21 0.14,-0.19 0,-0.19 0.14,-0.05 0.09,-0.14 0.23,0 0.03,-0.09 0.17,-0.12 0.11,0.07 0.17,0 0,-0.05 0.2,0.05 0,-0.09 0.17,-0.02 0.03,-0.14 0.48,-0.4 0,-0.09 0.09,-0.05 0.08,-0.21 0.11,-0.05 0,-0.05 0.43,-0.05 -0.03,-0.42 0.08,-0.07 0.03,-0.26 0.17,-0.02 0.06,0.05 0,0.09 -0.11,-0.02 0.09,0.14 -0.03,0.09 -0.09,0.05 0,0.12 0.09,0.05 -0.03,0.14 0.09,0.12 0.28,0.09 0.54,0.02 0.03,-0.07 0.37,-0.02 0.11,-0.24 0.14,0.02 -0.06,0.02 0.06,0.31 0.34,-0.05 0.46,-0.21 0.23,-0.17 0.17,-0.26 0.17,-0.09 0,-0.07 0.06,0 0.11,-0.26 -0.03,-0.09 0.11,0.05 0.23,-0.05 0.14,-0.19 0.23,-0.17 0.28,-0.47 -0.03,-0.14 0.14,-0.12 0.06,-0.17 0.17,0 0.03,-0.09 0.29,0.07 0.14,-0.12 0.06,-0.16 0.08,-0.05 0,-0.17 0.14,-0.14 0.06,-0.24 0.09,-0.07 0.11,-0.47 0.09,-0.09 0.11,0.05 0.14,-0.26 0.51,-0.38 0.03,-0.17 0.08,-0.09 0.06,-0.24 0.08,-0.05 0.03,-0.14 0.77,-0.05 0.09,0.02 0,0.07 0.08,0 0.11,-0.07 0.14,0.19 0.2,-0.02 0.17,-0.17 0,-0.09 0.14,-0.12 0.11,-0.26 0.46,-0.45 0.17,-0.35 0.29,-0.12 0.11,-0.21 0.51,-0.33 0.11,-0.4 0.28,-0.09 0.14,-0.21 0,-0.12 0.29,0 0.28,-0.47 0.09,-0.43 -0.03,-0.26 0.11,-0.02 0.03,-0.09 0.2,-0.02 0.14,-0.45 0.14,-2.06 0.08,-0.17 -0.03,-0.47 -0.51,-1.7 -0.08,-0.9 0.54,-0.73 0.4,-0.07 0.06,0.05 0,0.26 0.51,-0.12 -0.06,0.09 -0.34,0.17 -0.4,0.38 0.51,0.62 -0.03,0.54 0.14,0.24 0.09,0.02 0.08,-0.14 0.14,-0.05 0.2,-0.43 0.17,-0.07 0,-0.14 -0.2,0.02 0.06,-0.21 0,-0.5 -0.11,-0.14 0.09,-0.12 -0.06,-0.59 0.14,-0.24 0.03,-0.17 0.23,-0.17 0.2,0 0.17,-0.24 0.65,-0.38 0.34,-0.02 0,-0.36 0.11,-0.17 0.23,-0.05 0.48,-0.76 0.26,-0.59 0.63,-0.52 0.11,-0.21 1.11,-0.62 0.03,-0.17 0.43,-0.24 0.06,-0.31 0.11,-0.07 -0.06,-0.09 0.08,-0.5 0,-0.12 -0.06,-0.02 0,-0.54 0.06,-0.02 0.14,-0.36 0.26,-0.12 0,-0.14 0.4,-0.33 0.48,-0.14 0.4,-0.31 0.66,-0.02 0.08,-0.12 0.17,-0.07 0.51,-0.62 0.26,-0.14 0.37,-0.09 0.6,-0.52 -0.14,-0.26 0.11,0 0.2,0.38 0.2,0.05 -0.06,0.17 0.14,0.14 0.08,0 0.06,-0.1 -0.08,-0.28 0.23,0.07 0.14,0.24 0.14,-0.05 0.26,-0.21 0.55,0 0,0.05 0.17,0.07 -0.06,0.26 0.26,0.14 0,0.09 0.09,0 0.03,-0.17 0.34,-0.07 0.4,-0.21 0.77,0.02 0.34,-0.07 0.08,-0.09 0.51,-0.14 0.14,-0.09 0.11,-0.12 0.06,-0.21 0.85,-0.24 0.11,-0.21 0.23,-0.05 0.14,-0.09 -0.09,-0.12 0.09,-0.24 0.17,0 0.23,-0.21 0.2,0 0,-0.07 0.11,0 0.2,-0.14 0,-0.07 -0.06,0 0.03,-0.07 0.17,-0.02 0.11,0.05 0.17,-0.12 0.23,-0.05 0.09,-0.12 0.28,-0.07 0.14,-0.14 0.34,-0.12 0.83,-0.1 0.09,-0.07 0.26,-0.05 0.37,-0.19 -0.03,-0.05 0.23,-0.07 0.29,-0.24 0.08,0 0.63,-0.55 0.51,-0.29 0.46,-0.38 0.11,0 0.2,0.14 0.23,0.07 0.17,0 0.2,-0.17 0.17,-0.02 0.14,-0.09 0.03,-0.12 0.06,-0.02 0,-0.14 0.14,-0.07 0.11,-0.21 0.46,0.14 0.23,-0.07 -0.06,-0.43 -0.26,-0.62 -0.03,-0.93 -0.11,-0.05 -0.23,-0.29 -0.34,-0.1 -0.03,-0.12 -0.31,-0.26 -0.74,-0.31 -0.08,-0.52 0.34,-0.24 0.08,0 0.09,-0.12 0.14,-0.02 0.31,0.17 0.34,-0.02 0.2,0.17 0.4,0.14 0.29,0 0.06,0.05 0.23,-0.05 0.06,0.05 -0.06,0.38 0.09,0.02 0.06,0.24 0.06,0.02 -0.08,0.31 0.23,0.17 0.08,-0.02 0.23,0.12 0.57,0.05 0.91,-0.24 0.08,-0.09 0.29,-0.09 0.11,-0.1 0.29,0 0.03,0.07 0.08,0 -0.03,0.14 0.06,0.12 0.23,0.14 0.03,0.17 0.2,0.21 0.28,0.05 0.23,0.14 0.71,0.14 0.09,0.21 -0.09,0.45 0.09,0.31 0.17,0.07 0.08,0.19 0.17,0.14 0.68,0.33 0.94,0.14 0.6,-0.05 0.37,-0.09 0.23,0.12 0.54,0.02 0.08,0.05 1.14,-0.07 0.2,-0.12 0.17,0 0.29,0.14 -0.06,0.02 0.03,0.09 0.08,-0.05 0,0.07 0.29,0.05 0,0.05 0.57,0 0.63,-0.24 0.23,-0.02 0.03,-0.07 0.26,-0.05 0.51,-0.24 0.17,0 0.06,-0.09 0.65,-0.24 0.2,-0.17 0.08,0 0.08,-0.12 0.09,0 0.08,-0.1 0.23,-0.07 0.37,-0.24 0.28,-0.05 0.29,-0.24 0.2,-0.05 0.23,-0.21 0.43,-0.12 0.09,0.07 0,0.12 -0.09,0.07 0.06,0.05 -0.03,0.17 0.17,0.29 0.2,0.07 0.03,0.24 0.29,0.24 0.08,0.17 0.09,-0.02 0.14,0.12 0.17,0.05 0.2,0.26 0.37,0.17 -0.06,-0.12 -0.34,-0.24 0,-0.09 -0.46,-0.26 -0.37,-0.5 -0.2,-0.12 -0.2,-0.24 0.03,-0.05 0.03,0.07 0.14,0.07 0.2,-0.12 -0.2,-0.19 -0.17,0.05 -0.03,-0.12 0.43,-0.33 0.03,-0.12 0.23,-0.19 0.17,-0.24 0.6,-0.21 0.34,-0.21 0.17,0.05 0.2,-0.05 0.06,0.05 0.03,-0.07 -0.03,0.17 0.06,0.02 0.14,0 0.06,-0.07 0.34,-0.1 0.2,0.02 0.03,-0.1 0.29,-0.26 0.83,-0.38 0.08,-0.1 0.26,-0.05 0.97,-0.45 0.37,-0.07 0.28,-0.17 0.34,-0.02 0.09,-0.12 0.17,-0.07 1.11,0.02 0.43,-0.24 0.43,-0.07 0.26,-0.12 0.31,0 0.09,-0.07 0.2,0.05 z m -56.68,-6.31 0.2,0.21 0.4,0.17 0.14,0 0.08,-0.14 0.28,0.05 0.03,0.14 -0.09,0.17 0.11,0.05 0.06,0.1 0.08,0 0.03,-0.1 0.08,-0.02 0.06,-0.24 0.09,-0.02 0.08,0.09 0.17,0 0.03,0.05 0.43,-0.07 0.08,-0.07 0.26,0.12 0.37,0 0.06,0.05 -0.03,0.19 0.11,0.1 0,0.24 0.14,0.05 0.06,0.1 0.17,0.09 0.14,0 0.46,-0.24 0.17,0 0.11,-0.17 0.2,0 0.28,0.26 0.14,-0.02 0.06,-0.09 0.11,-0.02 0.29,0.17 0.14,-0.02 0.29,0.07 0.28,0.19 0.09,0 0.06,-0.07 0.2,0 0.37,0.19 0,-0.43 0.26,0.02 -0.03,0.17 0.09,0.05 0.06,0.21 0.11,0.12 -0.14,0.36 0.26,0.02 0.06,0.09 0.14,0.02 0,0.14 0.14,0.07 0,0.07 -0.11,0.12 0.03,0.17 0.28,0.21 -0.03,0.36 0.09,0.07 -0.06,0.38 -0.37,0.5 0,0.21 -0.17,0.12 0.17,0.14 0.26,0 0.03,0.1 -0.06,0.09 0.06,0.1 0.17,0.02 0,0.09 0.08,0 0,0.19 0.14,0.05 -0.08,0.36 -0.06,0.02 0.09,0.24 0.48,0.05 0.06,-0.09 0.2,-0.02 0.03,0.07 0.43,0.05 0.06,0.12 0.14,0.1 0.14,0 0.17,-0.1 0.08,0.07 0.03,0.14 -0.28,0.29 -0.03,0.19 0.03,0.17 0.23,0.1 -0.06,0.07 0.14,0.05 0.06,0.17 -0.29,0.24 0,0.07 0.2,0.24 0.09,-0.02 0.06,-0.1 0.09,0 0.06,0.07 0.03,0.5 0.11,0.24 0,0.19 0.06,0.05 0.03,0.64 0.6,0.36 0.17,0 0.06,0.09 -0.23,0.74 -0.26,0.21 -0.08,0.26 0.08,0.19 0.31,0.19 0.34,0.02 0.11,-0.17 0.71,-0.02 0.26,-0.17 0.31,0 0.46,-0.17 0.09,-0.14 0.68,-0.09 0.26,-0.1 0.11,-0.48 0.2,-0.17 0.08,-0.19 0.48,-0.29 0.26,-0.02 0.08,-0.09 0.68,0.05 0.14,0.09 0.23,-0.05 0.37,0.21 0.31,0.02 0.14,0.14 0.43,0.02 0.08,0.07 0.34,-0.02 0.06,-0.1 0.46,-0.09 0.17,0.14 0.26,0.09 0.2,0.05 0.17,-0.05 0,0.05 -0.11,0.02 0.11,0 0.06,0.09 -0.23,0.29 -0.06,0.21 -0.34,0.02 -0.2,0.09 0,0.14 -0.11,0 0,0.52 -0.11,0.02 -0.03,0.07 -0.23,0 -0.11,0.09 -0.14,0.21 -0.09,0.38 -0.2,0.48 -0.54,0.5 -0.03,0.29 0.06,0.59 -0.09,0.19 -0.6,0.19 -0.14,0.33 0.03,0.17 -0.23,0 -0.43,0.36 -0.09,0 -0.08,0.12 -0.31,0.12 -0.57,0.52 -0.23,0.12 -0.28,0.31 -0.29,0.09 -0.43,0.29 -0.14,0.88 -0.2,0.07 -0.23,-0.07 0,-0.24 -0.4,0.07 -0.34,0.36 -0.03,0.07 0.08,0.02 -0.03,0.05 -0.17,0.02 -0.14,0.09 -0.34,0 -0.34,0.19 -0.34,0.33 -0.23,0.52 -0.03,0.47 0.06,0.43 -0.09,0.29 -0.17,0.19 0,0.21 -0.2,-0.02 -0.08,0.17 -0.14,0.02 -0.26,0.19 -0.29,0 -0.37,0.19 -0.11,0.24 -0.48,0.24 -0.23,0.31 -0.26,0.21 -0.03,0.09 -0.23,0 -0.14,0.07 -0.28,0.4 -0.17,0.45 -0.26,0.14 -0.57,0.47 -0.97,0.33 -0.37,0 -0.03,-0.14 0.14,-0.09 -0.03,-0.07 -0.37,0.09 -0.2,-0.05 -0.23,-0.14 -0.14,0.02 0.17,0.07 0.06,0.19 -0.11,0.43 -0.74,0.5 -0.34,0 0,0.09 0.14,0 0.14,0.12 0.2,0.05 0.34,0 0.6,0.24 0.23,-0.02 0.06,0.21 -0.06,0.07 -0.11,0 -0.2,-0.24 -0.31,-0.09 -0.94,-0.09 -0.63,-0.47 -0.29,-0.31 -0.46,-0.24 -0.68,-0.19 -0.17,0 -0.2,0.09 -0.06,0.26 0.08,0.09 -0.11,0.12 -0.14,0.05 0,0.17 -0.11,0.26 -0.14,0.07 -0.11,-0.19 0.11,-0.38 0.11,-0.07 0,-0.12 0.09,-0.02 0.2,-0.31 -0.37,-0.76 -0.09,-0.47 -0.06,-0.02 0.03,-0.12 0.29,-0.38 0.23,0.09 0.11,-0.19 0.31,-0.09 0.14,-0.12 0.03,0.12 0.4,0 0.11,-0.28 0.03,-0.33 0.23,-0.54 -0.08,-0.38 -0.2,-0.47 -0.11,0 0.03,0.12 -0.43,0.17 -0.26,0.33 -0.11,0.36 -0.17,0.12 -0.23,0 -0.09,0.38 0.03,0.14 -0.11,0.17 -0.29,0.28 -0.09,0 -0.2,0.24 -0.11,0.4 -0.28,0.07 -0.17,0.12 -0.06,0.12 -0.14,0 -0.09,0.07 0,0.12 -0.11,-0.17 0.08,-0.09 0,-0.17 -0.14,-0.05 -0.14,-0.35 -0.2,-0.02 -0.14,0.14 0,-0.17 0.11,-0.21 0,-0.31 -0.14,0.02 -0.17,-0.4 0.06,-0.47 -0.4,-0.26 -0.06,0.17 -0.06,-0.05 -0.28,0.05 -0.06,0.19 -0.34,-0.05 -0.14,0.24 -0.17,0.07 0,-0.17 -0.11,0 0,-0.28 -0.06,0 0,-0.12 0.14,-0.12 -0.03,-0.14 -0.08,-0.02 -0.06,0.19 -0.14,0 -0.06,-0.12 -0.68,-0.14 -0.03,-0.09 0.11,-0.05 0.06,-0.12 0,-0.14 -0.11,-0.14 0.03,-0.24 0.09,-0.07 0,-0.24 0.2,-0.21 0.03,-0.31 0.23,-0.02 0.03,-0.09 -0.46,0.12 -0.03,-0.33 0.23,-0.14 -0.2,-0.33 -0.29,-0.21 -0.14,-0.28 -0.4,-0.12 -0.17,-0.26 0.06,-0.24 -0.03,-0.19 0.14,-0.12 -0.03,-0.19 -0.28,-0.12 -0.2,0 -0.2,-0.12 -0.2,-0.38 -0.43,-0.21 0.03,-0.05 -0.14,-0.09 -0.03,-0.12 -0.26,-0.19 0.09,-0.09 0.03,-0.24 0.11,-0.12 -0.14,-0.07 -0.11,-0.19 -0.11,-0.02 -0.05,-0.28 0.06,-0.02 -0.03,-0.12 0.28,-0.29 -0.06,-0.14 -0.09,0.02 -0.11,0.17 0,0.09 -0.09,0.02 -0.2,-0.19 0.03,-0.14 -0.08,0 -0.11,-0.12 0.03,-0.09 -0.06,-0.09 0.14,-0.02 -0.11,-0.07 0.03,-0.1 -0.08,-0.02 -0.09,0.07 -0.11,0 0,0.12 -0.06,0.02 -0.11,-0.09 0,-0.05 0.11,-0.02 -0.09,-0.07 0.03,-0.1 -0.06,-0.05 -0.17,0.14 -0.06,-0.1 -0.23,-0.12 0.08,-0.31 -0.11,-0.02 -0.03,0.14 -0.14,0.02 0.03,-0.19 -0.06,-0.02 0,-0.07 0.26,-0.02 -0.03,-0.14 0.34,-0.17 0,-0.24 0.14,-0.05 0.43,-0.47 0.26,-0.19 0.06,-0.29 0.06,-0.02 0.09,0.17 0.11,0 0.17,-0.07 0.03,-0.07 0.23,-0.07 0.03,-0.31 0.2,-0.24 0.17,0 0,-0.05 -0.31,0 -0.17,0.29 -0.34,0.07 -0.08,0 0,-0.12 -0.06,0 -0.17,0.38 -0.14,0.07 -0.11,-0.17 0.2,-0.43 -0.06,-0.21 0.09,-0.21 -0.06,-0.38 -0.11,-0.17 -0.29,-0.02 0,-0.29 -0.08,-0.24 -0.26,-0.02 -0.08,0.05 0,-0.07 -0.2,-0.07 0.08,-0.33 -0.17,0 -0.06,-0.07 0.03,-0.14 0.11,-0.02 0.06,-0.17 0.11,0.07 0.23,0 0.23,-0.24 0,-0.26 -0.08,-0.1 0,-0.09 0.11,-0.17 0.11,0 0.03,-0.14 -0.2,-0.02 0,-0.09 0.03,-0.1 0.17,-0.14 0.06,-0.24 -0.31,-0.12 0.11,-0.05 0.26,-0.36 0.2,-0.07 0.03,-0.33 0.08,-0.1 0.03,-0.74 0.14,-0.02 -0.17,-0.36 -0.2,0 -0.08,-0.09 0,-0.26 -0.11,-0.05 -0.08,-0.14 0,-0.21 0.08,-0.07 0.03,-0.19 -0.08,-0.12 -0.26,-0.1 0.03,-0.14 -0.11,-0.05 0,-0.09 0.11,-0.02 0,-0.21 -0.23,-0.14 0,-0.29 0.06,-0.12 0.57,-0.33 0.17,0.02 0.06,0.17 0.14,0.09 0.31,-0.02 0.03,-0.12 0.2,-0.1 0.11,0.05 0.4,0 0.11,-0.07 0.23,0.05 0.03,-0.07 -0.08,-0.14 0.11,-0.21 0.23,-0.12 0.03,0.14 0.2,0.02 0.17,-0.36 0.23,-0.14 0.14,0.05 -0.09,0.09 0,0.1 -0.11,0.07 0,0.19 0.31,0.21 0.11,-0.02 0.03,-0.14 0.2,-0.24 0.17,-0.02 0.17,0.21 0.09,0 0.03,-0.07 0.2,0 -0.11,-0.17 0.11,-0.19 -0.09,-0.24 0.11,0 0.08,-0.1 0.23,0.07 0.11,-0.24 0.09,-0.05 0.28,0.09 0,0.1 -0.17,0.24 0.34,0.1 0.03,0.07 -0.06,0.1 0.2,0 -0.03,-0.17 0.06,0 0.11,0.05 0.4,0 0.03,0.21 0.31,-0.05 0.03,-0.09 -0.11,0 -0.17,-0.26 0.34,-0.21 0,-0.12 -0.28,0.07 -0.11,0 -0.03,-0.07 0.08,0 0.14,-0.14 0.34,-0.02 0,-0.14 0.11,-0.07 0.14,0 0.06,-0.09 0.37,0.05 0,-0.17 0.15,-0.11 z" 
                fill="rgb(151, 144, 238)" 
                stroke="white" 
                stroke-width=".7px"
                title="Wales" 
                id="GB-UKL" 
            />
        </svg>