<svg xmlns="http://www.w3.org/2000/svg" viewBox="406.31173999999936 603.9945300000019 138.56999999999988 110.08999999999958" width="138.56999999999988" height="110.08999999999958">
            <path 
                d="m 509.75174,680.08453 0.63,0.17 0.06,0.17 -0.23,0.1 -0.8,-0.05 -0.23,-0.1 -0.09,-0.12 0,-0.12 0.09,-0.05 0.57,0 z m -6.21,-3 0.06,0.53 -0.17,0.14 0,0.14 -0.14,-0.02 -0.17,0.07 -0.03,0.1 -0.28,0.14 -0.03,0.07 -0.14,0.02 -0.11,-0.07 -0.03,-0.07 0.06,-0.14 -0.06,-0.1 0.34,-0.6 0.37,-0.12 0.06,-0.07 0.27,-0.02 z m -5.98,-73.02 0.17,0.03 -0.08,0.1 0,0.17 0.11,0.17 0.09,0 0.08,0.12 0.17,0.1 -0.09,0.15 0.09,0.2 0.17,0.15 0.26,0 0.31,0.12 0.08,0.15 0.03,0.22 0.11,0.15 0.03,0.32 -0.08,0.07 0,0.1 0.2,0.29 0.43,0.07 0.31,-0.17 0.14,-0.15 0.31,0.02 0.23,-0.17 0,-0.12 0.11,-0.02 0.11,0.05 0.03,0.07 0.17,0.02 0.17,0.22 0.06,0.24 0.23,0.12 0.14,0.27 0.14,0.12 0.65,0.15 0.03,0.12 0.11,0.1 0.11,0.39 0.29,0.02 -0.17,0.59 0.26,0.34 0.14,0.02 0.03,0.1 0.37,0.2 0.57,0.17 0.43,0.05 0.26,0.1 0.37,0.25 0.6,0.05 0.06,0.12 0.46,-0.1 0.11,0.1 0.63,0.17 0.23,0.34 0.63,0.15 0.4,0.39 0.31,0.66 0.03,0.22 0.29,0.39 0.17,0.15 0.11,0 0.17,0.17 0.11,0 0.2,0.34 0.26,0.2 0.03,0.2 0.08,0.07 0.11,0 0.17,0.17 0.26,0.12 0,0.44 -0.06,0.22 -0.4,0.29 -0.08,0.44 0,0.44 0.2,0.44 0.09,0.05 0.03,0.24 0.14,0.2 0.26,0.12 0.23,0.27 0.31,0.12 0.11,0.17 0.29,0.1 0.26,0 0.14,-0.1 0.28,0.39 0.26,0.2 0.08,0.15 0.17,0.02 0.17,0.15 0.31,0.61 0.17,0.05 0.17,0.39 0,0.12 0.2,0.29 0.06,0.27 0.34,0.46 0.14,0.37 0.03,0.88 0.31,0.07 0.17,0.29 0.03,0.17 0.14,0.17 0,0.2 0.14,0.22 -0.09,0.44 0.43,0.07 0.14,0.2 -0.03,0.19 0.06,0.2 0.17,0.05 0.06,0.07 0,0.15 -0.06,0.02 -0.06,0.24 -0.17,0.05 -0.03,0.29 0.11,0.19 0.14,0 -0.14,0.24 0,0.29 0.17,0.63 0.11,0.12 0.23,0 0.14,0.17 -0.06,0.17 -0.09,0.02 -0.06,0.2 0,0.19 0.06,0 0.11,0.51 0.09,0.02 0.08,0.17 0.14,0.12 0.28,0.02 0.23,-0.19 0.14,0 0.2,0.22 0,0.24 -0.11,0.24 -0.14,0.12 -0.25,-0.09 0,0.07 -0.06,0 -0.08,0.15 -0.03,0.1 0.08,0.27 0,0.27 0.23,0.24 0.09,0.02 0.26,0.44 0.23,0.12 0.26,0.02 0.03,0.34 0.14,0.12 0.06,0.17 0.11,0.07 0.14,0 0.06,0.19 -0.17,0.19 -0.06,0 0,0.1 0.2,0.32 0.2,0.17 0.23,0.07 0.17,0.19 0.23,0 0.08,-0.15 0.51,-0.07 0.09,0.36 0.23,0.17 0.17,0.05 0,0.05 0.26,0.05 0.06,0.07 0.37,0.15 0.2,0.34 1.28,0.51 0.06,0.07 0.4,0.17 0.2,0.17 0.31,0.02 0.54,0.24 0,0.05 -0.14,0.02 -0.94,-0.19 -0.23,0.32 0,0.22 -0.08,0.22 0.03,0.15 -0.11,0.17 0.06,0.07 -0.03,0.27 0.06,0.1 0,0.24 0.06,0.02 0,0.32 0.14,0.17 0.03,0.17 0.08,0.05 0.09,0.32 0.11,0.15 0.14,0 -0.06,0.15 0.31,0.22 0.06,0.22 0.08,0.02 0.17,0.22 0.11,0.02 0,0.07 0.31,0.22 0.06,0.1 0.14,0 0,0.15 0.11,0.1 0.26,0.05 0,0.1 0.11,0.02 0.06,0.12 0.31,0.12 0.09,0.1 0.2,0.02 0.11,0.12 1.25,0.22 0.09,0.02 0,0.05 0.08,-0.05 0.2,0.1 0.28,0.02 0,0.05 0.66,0.15 0.17,0.07 0.06,0.1 0.29,0.1 0.03,0.15 0.17,0.12 0.6,0.24 0.8,0.61 0.94,0.39 0.23,-0.07 0.11,0.02 0.11,0.17 0.06,-0.12 0.26,0.07 0.17,0.24 0.17,0 0.14,0.24 0.23,0.12 0.03,0.1 0.14,0.02 0,0.39 0.11,0 0.23,0.12 -0.03,0.32 -0.51,0.46 -0.26,0.07 -0.17,0.15 -0.31,0.07 -0.23,0.15 -0.57,0.05 -0.03,-0.1 -0.2,0.05 -0.97,0 -0.2,-0.05 -0.08,0.12 -0.71,0.19 -0.54,0.22 -0.03,0.1 -0.11,0.05 -0.03,0.1 -0.23,0.22 -0.06,0.19 -0.17,0.12 -0.14,0.27 0,0.15 -0.11,0.1 -0.06,0.27 -0.08,0.05 -0.26,-0.02 -0.03,0.07 -0.2,0.12 -0.08,0.29 -0.23,0.27 0,0.1 -0.17,0.22 -0.11,0.29 -0.29,1.67 0.03,0.41 -0.06,0.1 0.03,0.7 -0.06,0.77 0.03,0.22 0.11,0.12 -0.06,0.22 0.03,0.31 0.11,0.12 -0.03,0.27 0.09,0.05 -0.03,0.07 -0.06,0 0,0.12 0.09,0.15 0.06,0.31 0.11,0.12 0.08,0.53 0.08,0.22 0.09,0.07 0.08,0.46 0.17,0.34 0,0.14 0.17,0.46 0,0.19 0.17,0.39 0.03,0.31 0.26,0.6 0.06,0.36 0.2,0.48 0,0.19 0.29,0.58 0.11,0.48 0.11,0.12 0.08,0.31 0.17,0.24 0.03,0.17 0.23,0.43 0.11,0.53 -0.03,0.19 0.08,0 0.06,0.1 0,0.41 0.68,1.45 0.09,0.05 0.2,0.46 0.06,0.02 0.09,0.29 0.08,0.05 0.03,0.14 0.09,0.07 0.2,0.41 0.08,0.05 0.17,0.36 0.29,0.36 0.17,0.36 0.34,0.39 0,0.07 0.37,0.46 0.03,0.12 0.11,0.07 0.2,0.39 0.26,0.26 0.11,0.27 0.29,0.26 0.03,0.12 0.14,0.1 0.08,0.34 0.37,0.46 0.46,0.79 0.4,0.48 0.37,0.65 0.17,0.17 0.09,0.19 0.08,0.02 0.2,0.43 0.31,0.38 0.11,0.24 0.71,0.79 0.26,0.36 0,0.1 0.17,0.19 0,0.12 0.14,0.02 0.06,0.19 0.23,0.26 0.06,0.17 0.14,0.1 0.14,0.29 0.26,0.19 0.06,0.19 0.08,0.02 0,0.07 0.08,0.05 0.09,0.17 0.06,0 0.06,0.14 0.26,0.24 0.2,0.36 0.14,0.1 0.03,0.12 0.23,0.26 0.18,0.63 0.2,0.12 0.17,0.31 0.23,0.19 0.4,0.6 0.08,0.22 0.11,0.05 0.31,0.53 0.11,0.07 0.08,0.19 0.17,0.12 0.14,0.31 0.14,0.07 0.23,0.22 0.03,0.12 0.14,0.1 0.08,0.12 0,0.12 0.29,0.46 0.08,0.05 0.09,0.24 0.08,0.12 0.06,0 0.28,0.5 0.14,0.12 0.11,0.36 0.17,0.1 -0.03,0.19 0.11,0.31 0.06,0.02 0,0.14 0.2,0.24 0.48,1.72 0.17,0.43 0,0.33 0.06,0.07 -0.03,0.24 0.08,0.1 -0.03,0.14 0.11,0.19 0.03,0.57 -0.06,0.21 -0.29,0.5 -0.29,0.24 -0.08,0.19 -0.17,0.12 -0.28,0.41 -0.43,0.41 -0.26,0.38 -0.11,0.1 -0.14,0 -0.06,-0.14 0.14,-0.17 -0.03,-0.07 0.17,0.02 0,-0.07 0.2,-0.07 -0.03,-0.14 0.17,0.02 0.06,-0.05 0,-0.12 0.08,-0.02 0.11,-0.24 0.14,-0.09 0.08,-0.22 0.14,-0.1 0.03,-0.1 0.14,0 0.28,-0.31 0.31,-0.55 0.03,-0.43 -0.08,-0.31 -0.17,-0.19 -0.03,-0.14 -0.23,-0.22 -0.17,-0.07 -0.03,-0.12 -0.2,-0.17 -0.03,-0.14 -0.11,-0.12 -0.23,-0.02 -0.11,-0.19 -0.09,-0.02 -0.54,-0.5 -0.74,-0.41 -0.08,-0.12 -0.34,-0.12 -0.11,-0.12 -0.43,-0.17 -0.14,0 -0.23,-0.14 -0.43,-0.05 -0.83,-0.24 -0.51,-0.05 -0.85,0.33 -0.6,0.05 -0.11,0.07 -0.54,0.12 -0.31,0.17 -0.6,0.19 -0.17,0.12 -0.94,0.31 -0.26,0.21 -0.34,0 -1.22,-0.19 -0.77,-0.21 -0.23,-0.14 -0.2,-0.05 -1.37,-1.29 0,-0.07 -0.11,-0.05 -0.03,-0.12 -0.09,-0.02 -0.88,-1.05 -0.57,-0.43 -0.08,-0.14 0.03,-0.22 -0.08,-0.12 -0.09,-0.02 -0.03,-0.22 -0.11,-0.05 -0.06,-0.17 -0.17,-0.05 -0.31,-0.36 -0.85,-0.7 -0.03,-0.22 -0.46,-0.48 -0.26,-0.14 -0.06,-0.1 -0.2,-0.05 -0.2,-0.14 -0.11,0 0,-0.12 -0.17,-0.29 -0.14,-0.46 -0.14,-0.19 0,-0.5 -0.34,-0.38 -0.09,-0.17 0,-0.26 -0.11,-0.05 -0.09,0.26 -0.08,0 -0.03,-0.1 -0.11,-0.07 -0.23,-0.1 -0.17,0.02 -0.03,-0.07 -0.37,-0.12 -0.23,-0.19 -0.43,-0.12 -0.94,-0.07 -0.2,0.1 -0.2,-0.05 -0.77,0.17 -0.37,0.17 -0.14,0 -0.11,0.1 -0.2,0.05 -0.03,0.1 -0.09,-0.02 -0.4,0.19 -0.06,0.1 -0.17,0 0,0.05 -0.23,0.05 -0.06,0.07 -0.68,0.29 -0.23,0.02 -0.11,0.1 -0.43,0.1 -0.17,0.1 -0.77,0.1 -0.48,0.19 -0.23,0.02 -0.06,0.07 -0.28,0.05 -0.4,0.22 -0.57,0.12 -0.09,0.07 -0.26,-0.02 -0.43,-0.24 -1,-0.05 -0.03,0.05 -0.46,0.02 -0.03,0.05 -0.43,0.07 -0.11,0.07 -0.37,0.05 -1,0.31 -0.6,0.05 -0.17,0.07 -0.51,0 -0.31,-0.14 -0.06,-0.12 -0.51,-0.29 -0.17,-0.26 -0.26,-0.17 -0.34,-0.38 -0.11,-0.02 -0.14,-0.17 -0.37,-0.17 -0.46,-0.07 -0.03,-0.07 -0.4,-0.02 -0.66,0.05 -0.46,0.14 -0.26,0 -0.23,0.12 -0.48,0.12 -0.14,0.12 -0.66,0.14 -0.08,0.1 -0.2,0.07 -0.03,0.12 -0.17,0.14 -0.09,0.34 -0.11,0.12 -0.03,0.26 -0.14,0.14 -0.03,0.12 -0.37,0.22 -0.34,0.79 0,0.58 0.2,0.53 0.34,0.36 0.26,-0.07 -0.26,-0.79 -0.2,-0.19 -0.06,-0.22 0.03,-0.14 -0.06,-0.12 0.29,-0.26 0.57,-0.14 0.46,-0.24 0.4,-0.05 0.37,-0.26 0.54,-0.14 0.26,-0.24 1,-0.31 0.4,0 0.2,0.1 0.68,0.98 0.31,0.22 0.09,0 0.14,0.19 0.14,0 0.17,0.14 0.4,0.53 0.34,0.26 0.23,0.29 0.43,0.29 0.57,0.12 1.39,-0.07 0.43,-0.12 0.37,-0.31 0.11,-0.22 0.2,-0.19 0.23,-0.14 0.11,-0.19 0.14,-0.05 0.17,-0.24 0.28,-0.12 0.06,-0.1 0.34,0.07 0.85,0 0.03,0.05 1.91,-0.07 0.34,-0.1 0.11,0.02 0.68,-0.26 0.37,-0.02 0.09,-0.07 0.14,0.02 0.54,-0.17 0,-0.3 -0.14,-0.07 0.08,-0.1 0.14,0 0,0.29 0.14,0.02 0.2,-0.14 0.34,0.02 0.77,-0.31 0.77,-0.14 0.51,0 0.43,-0.17 0.37,0.02 0.4,0.12 0.14,0.07 0.03,0.12 0.26,0.19 0.2,0.36 0.14,0.12 0.31,0.74 0.11,0.14 0.11,0.36 0.17,0.24 0.08,0.26 0.11,0.12 0.11,0.34 0.11,0.07 0.26,0.43 0.26,0.24 0,0.1 0.37,0.24 0.06,0.22 0.2,0.26 0.17,0.46 0.31,0.34 -0.03,0.05 0.11,0.19 0.14,0.05 0.14,-0.14 0,-0.1 0.14,0 0.06,0.14 -0.14,-0.02 -0.2,0.21 0.11,0.12 0.14,-0.02 0.11,-0.1 0,-0.07 0.14,0 0,0.07 -0.34,0.24 0.14,0.05 0.03,0.12 0.08,0 0.23,-0.17 0.14,0.21 0.29,0.24 0,0.1 -0.11,0.02 -0.2,-0.22 -0.09,-0.02 -0.06,0.17 0.2,0.17 0.4,0.17 -0.14,-0.12 0,-0.07 0.08,0 0.17,0.14 0.03,0.19 0.11,0 0,0.12 0.08,-0.02 0.03,-0.1 0.23,0.1 -0.03,0.07 -0.17,-0.07 -0.06,0.12 0.23,0.12 0.26,0.24 0.26,-0.24 0.08,0 -0.06,-0.14 0.14,0 -0.03,-0.09 -0.31,-0.14 0.03,-0.05 0.2,0 0.11,0.1 0.11,0 0.11,0.14 0.23,0.07 0,0.05 -0.11,0 -0.26,-0.1 -0.03,0.14 -0.4,0.33 0.34,0.14 0.03,0.1 0.23,0.12 0,0.07 0.26,0.12 0.08,0.12 0.2,0.12 0.31,0.48 0.23,0.09 0.29,0.26 0.06,0.14 0.51,0.53 0.08,0.19 0.31,0.19 0.28,0.31 0.6,0.43 0.03,0.1 0.14,0.12 0.23,-0.05 0.43,0.17 0.06,0.26 0.11,0.05 0.08,-0.22 0.11,-0.12 0.08,-0.31 0.17,0.05 0.03,0.21 0.23,0.19 0.2,0.1 0.17,0 -0.23,-0.29 -0.17,-0.07 -0.06,-0.1 0.34,0.05 0.14,0.24 0.08,0.02 -0.06,0.05 0.03,0.12 0.11,0 0.11,0.1 -0.03,0.07 0.11,0.1 -0.03,0.14 0.31,0.12 0.11,0.14 0.51,0.29 0.2,0.36 0.17,0.05 -0.09,0.17 0.29,0.33 0.08,0.22 0.14,0.07 0,0.07 0.14,0.1 0,0.09 0.06,0 0.11,0.17 0.23,0.02 0.2,0.19 0.03,0.26 0.11,0.02 0.14,0.31 0.31,0.31 0.26,0.48 0.11,0.05 0,0.24 -0.17,0.12 0,0.05 0.11,0 0.06,0.08 0,0 -0.87,0.51 -1.22,0.31 -1.04,-0.24 -0.71,0.48 -1.76,4.15 0.1,0.62 0.91,1.05 -1.48,1.29 -0.61,0.05 -1.2,-1.21 -0.27,-0.83 -0.84,-0.45 -0.33,-0.72 -1.31,-1.12 0.33,-2.05 -0.7,-2.94 1.41,-1.89 -0.03,-0.62 -1.94,-0.12 -1.48,-2.03 -2.52,-1.58 -0.28,0.55 0.07,1.6 -1.88,2.15 -1.28,0.19 -3.29,-0.89 -3.09,2.39 0.03,0.33 3.89,0.26 0.63,0.57 0.06,0.69 -0.61,0.57 -3.06,0.53 -0.64,1.5 0.33,0.81 -0.1,0.38 -2.09,0.91 -3.13,0.93 -1.76,-0.14 -0.53,-0.29 -0.4,-0.76 0.61,-1.98 0,-1.03 -0.33,-0.45 -6.35,-0.74 -0.38,2.34 -0.95,1.07 -1.01,1.91 -6.13,-0.51 -0.26,-0.24 0.97,-0.55 0.01,-0.38 -1.46,-1.38 -2.58,2.1 -0.4,2.46 -1.4,1.91 -0.43,0.33 -0.83,-0.48 -1.91,0.07 -1.08,0.88 -1.57,2.07 0.21,1.93 -0.37,0.9 -1.21,0.67 0.5,1.02 -1.59,1.66 -0.51,1.15 -3.41,0.18 -0.97,-0.67 -1.05,-0.07 0.24,-1.19 -0.48,-0.31 -1.27,0.26 -0.56,1 -0.53,0.29 -1.37,-0.12 -1.11,-0.57 -0.1,-1.26 -0.55,-0.31 -1.96,0.14 -1.38,1.43 -3.72,1.47 -2.01,-1.31 -0.87,0.24 -1.15,-0.31 -0.24,-0.19 0.24,-0.59 1.4,-0.98 0.04,-0.33 -0.54,-0.64 -2.96,-1.21 -0.17,-0.62 0.4,-0.86 -0.03,-0.64 -1.51,-0.9 -0.75,-0.02 -0.57,-1.38 -1.67,-0.62 -0.14,-0.93 0.3,-1.67 -2.88,-2.36 -0.3,-0.79 -0.13,-1.65 -1.05,-1.65 -2.8,-1.38 -1.35,-0.07 0,0 -2.08,-3.01 -2.01,-2.22 -0.57,-1.79 -1.48,-0.33 -0.36,-1.8 -0.57,-0.65 0.19,-1.41 -0.63,-0.91 -0.14,-0.89 -0.95,0.05 -0.83,0.77 -0.9,0.24 -1,-0.96 -0.7,0.07 -0.54,-1.03 -0.47,-0.21 0.11,-0.75 -0.54,-1.75 1.96,-2.57 0.04,-3.12 1.28,-1.66 2.48,-1.2 0.51,-0.77 0.24,-1.24 -1.72,-1.31 -1.61,-2.24 -0.38,-2.27 -3.54,-1.86 -0.23,-1.62 -0.61,-0.97 -1.62,-0.19 -0.31,-0.41 0.04,-0.87 -2.39,1.11 -0.67,-0.1 -0.65,-1.57 -1.79,-0.17 -0.64,-0.97 0.54,-1.38 -0.46,-0.34 -0.16,-1.31 -0.3,-0.48 -1.32,-0.27 -2.38,0.65 -1.11,-0.17 -0.5,-0.63 -0.06,-2.13 -0.43,-0.7 -2.63,-1.53 -1.32,-1.43 -0.33,-1.28 0.2,-1.99 1.47,-0.8 0.37,-1 2.99,-3.98 0.3,-1.14 2.41,0.17 0.91,-1.17 1.55,-0.78 1.18,0.85 1.01,-0.22 0.3,-0.46 0.18,-1.46 -0.57,-1.41 0.3,-0.97 -0.03,-2.46 -0.34,-0.83 -1.45,-1.07 -0.31,-0.71 3.27,-2.85 0,-1.05 -0.63,-2.02 0.97,-1.56 1.64,-1.1 2.59,0.12 1.32,-1.15 0.67,0.35 0,0 0.83,0.53 2.01,-1.61 2.78,-1.03 1.98,0.63 2.61,1.59 1.31,-0.02 4.08,-2.27 0.06,-1.13 0.71,-0.98 0.58,0.15 1.91,1.86 0.4,-1.71 0.63,-1.13 0.01,-1.3 0.93,-0.17 1.24,0.49 0.57,-0.59 2.63,0.08 1.03,0.66 0.36,1.2 0.27,0.12 1.52,-0.37 0.48,0.34 0.67,1.66 2.32,2.15 0.63,-0.12 -0.27,-1.25 1.57,0.17 0.54,0.68 0.63,2.03 0.61,0.56 0.57,-0.24 0.16,-0.59 -1.05,-2.79 -0.01,-1 0.38,-0.39 0.64,0.07 0.55,0.64 0.21,0.83 0.78,0.3 0.43,-1.29 1.04,0.32 0.31,-0.41 0.63,0.41 0.4,1.88 1.47,0 0.34,0.46 4.01,-2.22 0.68,-1.08 1.71,-0.54 4.48,0.69 2.04,-0.61 2.32,1.1 2.72,-0.66 1.07,0.22 1.17,0.95 2.65,-0.81 2.18,0.76 0.03,-2.52 0.43,-1.25 0.75,-0.93 1.35,-0.59 0.49,-0.89 0,0 0.39,0 z" 
                fill="rgb(151, 144, 238)" 
                stroke="white" 
                stroke-width=".7px"
                title="Yorkshire and the Humber" 
                id="GB-UKE" 
            />
        </svg>