<svg xmlns="http://www.w3.org/2000/svg" viewBox="136.6115199999998 289.2741199999998 112.3900000000001 88.14999999999992" width="112.3900000000001" height="88.14999999999992">
            <path 
                d="m 175.27152,304.82412 2.1,0.76 0.58,-1.05 1.69,-0.16 1.94,2.54 0.68,-0.94 -1.46,-0.66 -0.09,-2.97 1.75,-0.86 1.56,1 4.53,-2.97 -0.02,-2.06 -1.38,-1.6 -0.02,-3.81 3.76,-1.6 3.68,0.84 4.25,-2.01 2.83,2.49 -0.24,2.79 0.71,2.07 3.28,1.69 0.13,1.46 -1.34,1.41 0.17,4.15 2.2,0.87 1.32,-0.47 0.56,1.5 -1.75,4.83 -1.88,1.34 -1.73,0.16 0.79,1.52 1.25,0.05 5.6,-3.46 -0.07,-1.13 1.88,-0.3 -0.39,-0.73 1.67,-1.13 -0.13,-3.97 0.71,0.98 1.89,0.35 1.46,2.56 0.8,0.23 0.17,-1.22 0.53,0.81 -0.62,1.01 0.76,1.64 -0.99,2.86 1.99,1.39 1.85,-0.23 -0.69,1.31 2.17,3.72 1.94,-1.01 0.77,1.99 2.4,1.51 3.64,4.7 0.7,-0.64 5.07,3.04 1.53,-0.82 1.18,0.77 3.22,-0.17 0,0 2.7,1.12 -1.25,1.39 0.88,4.43 2.51,1.26 -2.18,0.87 -0.08,1.31 2.06,1.61 -3.53,7.59 2.32,2.1 -1.5,-0.06 -2.83,1.57 -0.69,1.66 1.4,1.25 0,0 -0.39,3.84 -1.3,0.18 -2.95,-1.47 -1.12,-1.4 -2.44,-0.59 -1.52,-1.62 -3.07,0.8 -0.92,-0.68 0.14,2.56 -1.9,1.1 1.11,1.64 -1.36,1.03 -0.69,-1.12 -0.68,2.83 -0.77,0.09 0.7,1.79 -1.94,0.71 -0.72,1.74 -1.77,0.72 0.01,1.83 -1.42,-0.35 -0.49,1.24 -1.71,0.01 -1.2,0.66 0.07,0.67 -2.75,-1.43 -0.84,3.65 -2.26,-0.42 -0.94,0.97 0.13,3.15 -3.66,-0.42 -0.86,-0.59 -0.24,-1.77 -2.74,-1.86 0.19,0.86 -0.81,-0.13 -1.78,2.68 -0.35,-0.85 -3.33,-0.95 -1.78,0.7 -3,-0.86 -1.28,-2.19 -3.9,-1.11 -1.62,1.39 -1.67,-1.48 -2.53,-0.18 -1.69,2.63 -1.94,0.49 -5.13,-1.66 -2.47,-2.12 -6.26,1.34 -2.07,-0.82 -2.62,1.5 -1.4,1.87 -1.06,-2.09 -1.32,-0.7 -1,-2.91 -1.05,0.75 -3.07,-1.65 -1.88,0.62 -1.72,-2.32 -2.53,-0.17 -1.51,-0.93 -2.24,0.44 -1.57,-1.65 0,0 1.59,-0.52 -0.23,-1.15 1.7,-1.63 0.81,1.85 0.72,-1.07 2.17,0.39 0.64,-1.73 -0.76,-1.98 0.63,-0.75 -1.17,-0.89 0.28,-1.23 -2.25,-1.36 0.04,-1.84 -2.84,-0.1 -0.72,-1.6 -0.69,0.3 0.82,1.91 -1.44,-0.15 -1.78,-6.37 2.72,-0.78 0.08,-1.93 -1.98,-2.72 -0.39,-2.2 2.49,-1.02 0.13,-1.09 1.42,-0.23 0.53,-3.67 -1.36,-1.49 1.86,-0.99 0.16,-6.19 1.55,-2.83 0.02,-1.77 1.89,-1.88 -0.91,-1.88 1.75,-1.33 1.25,3.55 1.81,0.6 1.59,-1.79 -0.2,-1.16 0.87,-0.39 0.6,1.07 1.32,-0.34 0.11,1.18 2.51,0.35 1.21,-1.36 1.26,0.31 0.51,-1.03 2.05,0.34 0.54,-0.71 1.08,0.65 1.11,-0.96 -0.35,-3.6 2.18,-6.25 4.68,-0.23 0.45,1.34 1.37,-0.55 2.13,1 0.62,-0.56 z m 17.17,21.41 -3.77,-1 -3.12,2.18 0.66,2.23 -3.79,0.12 0.28,2.15 1.41,2.2 -0.52,2.63 3.66,2.11 2.98,3.69 5.16,-2.02 0.79,-4.37 1.45,-0.78 0.3,-2.8 1.35,-1 2.71,0.93 1.89,-1.58 -1.41,-3.94 -3.12,-4.11 -5.84,2.65 -1.07,0.71 z" 
                fill="rgb(151, 144, 238)" 
                stroke="white" 
                stroke-width=".7px"
                title="Baranya" 
                id="HU-BA" 
            />
        </svg>