<svg xmlns="http://www.w3.org/2000/svg" viewBox="254.11152000000016 131.76412 36.9199999999999 34.76000000000005" width="36.9199999999999" height="34.76000000000005">
            <path 
                d="m 270.65152,131.76412 -0.28,0.54 1.08,0.78 2.12,0.44 1.2,1.68 -0.02,0.89 -0.76,0.09 2.6,1.74 -1.17,0.68 2.13,2.24 2.21,0.28 1,1.05 2.22,-0.61 1.69,3.8 4.96,-0.91 -0.39,2.99 1.79,3.9 -3,0.91 -1.84,2.79 -1.39,-0.28 -1.41,2.58 -0.6,-0.23 -3.36,3.29 -2.4,4.58 -2.72,0.57 -0.89,0.97 -3.83,-3.88 0.63,-1.03 -1.94,-2.39 -4.64,2.92 -1.01,-1.17 -5.68,2.11 -0.58,-2.22 0.98,-1.06 -0.43,-2.62 1.72,-1.59 0.16,-2.16 -0.7,-0.45 1.08,-1.34 -1.73,-2.84 -1.45,0.01 -1.01,-1.21 0.88,-1 -1.08,-1.03 0.8,-1.59 -1.44,-0.47 0.78,-0.12 0.05,-2.69 -0.87,0.02 1.29,-1.04 -1,-2.78 1.91,-1 2.41,0.83 1.11,-1.59 4.03,-0.25 -0.79,-2.35 1.54,-0.78 3.18,0.41 -0.32,2.65 1.98,-3.04 z" 
                fill="rgb(151, 144, 238)" 
                stroke="white" 
                stroke-width=".7px"
                title="Budapest" 
                id="HU-BU" 
            />
        </svg>