<svg xmlns="http://www.w3.org/2000/svg" viewBox="387.75152000000014 182.16412 115.5399999999999 129.74999999999997" width="115.5399999999999" height="129.74999999999997">
            <path 
                d="m 439.02152,182.32412 1.25,1.01 0.73,-1.17 1.94,0.85 2.87,4.46 1.16,-0.41 0.03,-1.68 5.66,4.47 6.5,0.86 2.71,2.34 6.55,-0.34 -0.79,2.49 0.67,1.76 -1.37,1.04 0.62,3.21 -5.23,3.9 0.88,3.08 -1.19,0.59 -0.01,1.27 1.54,1.64 9.73,3.96 5.06,0.05 1.31,1.31 1.16,-0.33 0.15,1.61 -0.99,0.26 -0.69,2.1 1.99,-1.84 2.45,0.8 0.88,1.12 1.58,-1.75 6.15,-0.94 -0.76,-2.48 0.86,-2.9 3.17,0.55 1.89,-1.63 0.46,-1.58 0.94,-0.55 0.25,1.31 1.49,-1.07 0,0 1.76,0.77 0.91,2.26 -1.05,0.58 -0.86,3.26 1.23,0.41 0.01,0.69 -0.7,1.34 -1.31,-0.36 -1.89,2.99 -3.41,0.79 -0.08,2.36 1.42,3.09 -0.96,0.24 -0.24,2.63 -7.21,3.59 -0.12,4.75 -0.97,2.37 -2.24,2.26 0.07,0.92 3.73,2.64 0.17,2.48 -1.42,1.13 -1.78,3.38 -1.88,-1.25 -2.08,0.87 -1.53,-0.67 0.33,2.18 1.81,1.91 -1.5,1.64 -1.7,0.54 -0.89,3.04 -3.9,-1.92 -1.48,1.01 -2.13,0.09 -1.18,1.47 -1.02,3.52 1.56,1.14 -2.59,4.74 -1.43,0.52 -1.33,5.32 1.2,3.17 1.99,0.16 1.81,3.07 -0.35,1.38 -2.08,3.43 0.5,1.11 -6.48,-0.89 -0.67,1.38 -0.86,0.1 -0.69,7.26 -2.2,2.28 0.58,3.14 -0.96,0.9 -1.99,-0.1 -0.24,-0.85 -2.82,0.61 -1.06,4.93 -2.8,1.15 -0.73,1.27 -2.45,-0.74 -1.16,-2.18 -2.78,0.92 -3.69,-0.61 -0.61,-1.79 -1.77,0.27 -0.73,1.77 -2.42,-1.21 -1.52,-2.04 -7.35,1.87 -1.35,-0.27 0,0 -2.44,-1.87 0.98,-3.8 -0.13,-4.17 -1.75,-4.43 -4.2,0.65 -0.91,3.7 -5.14,-0.52 -0.14,0.57 -4.2,-2.08 -2.66,-3.44 0,0 2.08,-1.88 1.01,0.05 -0.07,-4.29 0,0 0,-1.74 2.22,-0.7 -0.5,-2.66 1.33,-6.36 -0.27,-1.2 -2.45,-0.93 -1.17,-1.58 0.73,-1.33 -0.23,-9.63 -0.61,-0.43 0.63,-4.68 1.23,-0.03 -0.96,-5.95 1.47,-4.37 -2.99,-2.34 -5.13,0.05 -4.94,-4.81 -2.73,1.08 0,0 -1.37,-7.23 4.53,-5.05 5.03,0.21 2.6,-1.13 0.75,-1.78 2.57,0.62 1.66,-0.72 3.97,2.32 2.86,-1.87 1.66,0.46 1.05,-0.74 1.96,-3.03 0.17,-2.1 -2.08,-0.32 0.72,-0.74 1.25,0.47 -0.27,-1.96 -1.25,-0.45 0.66,-2.78 -0.97,-0.95 0.33,-3.47 1.48,0.13 0.3,-1.41 2.5,-1.35 0.23,2.18 4.44,-0.03 -0.13,-1.03 0.89,-0.22 -0.55,-0.36 2.42,-1.04 0.74,-1.5 1.52,0.58 -1.14,-1.43 0.42,-2.07 -1.12,-2.38 0.24,-1.31 2.01,-0.46 -1.77,-3.58 4.32,-3.35 1.44,0.03 1.9,-1.85 1.22,0.03 2.71,-5.8 z m 5.69,65.26 -5.51,2.4 -2.21,-1.51 -3.7,3.32 2.11,2.57 1.43,-0.03 2.74,4.19 -2.15,5.29 15.11,-4.14 1.21,-0.52 2.01,-2.86 2.16,0.85 2.29,-1.39 -0.69,-1.34 0.41,-1.28 -2.42,-2.89 -2.18,-0.1 -1.47,-1.64 -2.77,0.17 -1.61,1.8 -1.35,0 -1.45,-3.16 -0.99,0.92 -0.97,-0.65 z" 
                fill="rgb(151, 144, 238)" 
                stroke="white" 
                stroke-width=".7px"
                title="Békés" 
                id="HU-BE" 
            />
        </svg>