<svg xmlns="http://www.w3.org/2000/svg" viewBox="318.14151999999996 237.61411999999999 102.90000000000003 90.78000000000011" width="102.90000000000003" height="90.78000000000011">
            <path 
                d="m 359.33152,321.02412 2.06,-3.99 1.95,0.59 3.55,-1.49 1.59,2.05 3.76,9.17 0,0 -2.44,-1.37 -0.09,-0.93 -2.34,-2.19 -3.73,1.84 -2.83,-2.12 -0.46,-1.96 -1.02,0.4 z m 41.1,-28.58 2.66,3.44 4.21,2.09 0.14,-0.57 5.14,0.52 0.91,-3.7 4.21,-0.65 1.75,4.43 0.13,4.17 -0.98,3.8 2.44,1.87 0,0 -2.27,3.54 0.83,5.53 -2.75,-0.32 -1.4,5.5 -3.31,2.84 -1.9,-0.95 -1.51,3.17 -8.52,-6.87 -4.11,-1.68 -0.41,2.87 -2.81,3.17 -2.5,0.22 -3.28,-1.86 -0.52,0.91 -1.2,-1.08 -1.23,1.18 -1.17,-2.51 -3.75,2.64 -0.37,-0.91 -1.82,1.36 -3,3.8 -0.53,-0.66 0,0 1.41,-0.71 0.36,-2.12 -0.66,-0.82 1.6,-5.87 -3.87,0.81 -1.47,-0.68 -0.82,-0.84 -0.18,-4.35 2.08,0 0.75,0.73 5.28,-0.26 0.6,-4.43 -0.72,-4.06 0,0 5.72,-0.18 2.47,-0.86 3.28,-2.32 2.52,-3.39 8.59,-4.95 -0.02,-0.99 z m -11.39,-53.75 2.73,-1.08 4.95,4.81 5.13,-0.05 2.99,2.34 -1.47,4.37 0.96,5.95 -1.23,0.03 -0.63,4.68 0.61,0.43 0.23,9.64 -0.73,1.33 1.17,1.58 2.45,0.93 0.27,1.2 -1.33,6.36 0.51,2.66 -2.22,0.71 0,1.74 0,0 -6.36,-0.13 -4.8,-6.7 -1.56,0.21 -1.46,-2.42 -3.96,2.18 -1.29,-2.27 -6.06,0.24 0.57,2.88 -3.99,0.95 1.52,2.7 -4.01,3.97 -2.03,-0.81 0.69,-2.99 -0.72,-1.14 -1.67,0.82 -1.7,5.25 0.14,2.4 0,0 0,0 0,0 -1.03,-0.18 -1.15,1.02 0.11,3.86 2.4,1.79 -0.97,2.61 -0.48,-0.64 -2.83,0.04 -1.43,-1.16 -3.26,-0.33 -0.97,2.55 0.48,3.23 -3.27,-1.74 -1.26,0.08 -4.53,4.21 3.24,2.64 4.35,0.85 1.63,1.13 -2.15,3.56 0.38,2.12 1.15,0.31 0,2.04 -1.28,1.42 -2.65,0.49 0,0 -8.33,-0.65 -1.79,1.53 -5.31,1.82 -3.22,2.79 -5.18,-2.35 -2.54,-3.1 -1.29,0.03 -1.93,-2.29 0,0 -1.61,-4.41 -3.88,-5.55 4.94,-5.3 -2.51,-3.24 -0.69,-2.2 5.96,-1.9 1.99,1.55 6.8,-5.25 3.44,2.32 2.11,-1.79 1.83,-4.53 -1.58,-3.14 1.52,-2.22 -0.53,-2.52 -4.11,-4 -3.62,0.68 -2.64,-3.28 10.01,-6.3 4.71,3.9 4.7,-5.49 -0.49,-1.53 0.5,-2.79 -1.22,-1.66 2.77,-7.69 -3.91,-4.22 5.13,-7.01 3.32,-3.01 0,0 0.39,1.85 1.55,0.66 0.67,2.99 1.53,-0.55 -0.51,-1.86 0.86,-0.54 5.67,4.18 2.38,-3.76 1.72,0.37 -0.29,-1.59 1.51,-0.97 2.12,0.56 3.2,3.49 3.27,0.85 1.29,-0.83 0.62,-2.28 4.68,-0.12 1.81,-2.32 z" 
                fill="rgb(151, 144, 238)" 
                stroke="white" 
                stroke-width=".7px"
                title="Csongrád" 
                id="HU-CS" 
            />
        </svg>