<svg xmlns="http://www.w3.org/2000/svg" viewBox="480.49152 128.47412 39.12999999999994 28.21999999999997" width="39.12999999999994" height="28.21999999999997">
            <path 
                d="m 480.67152,142.89412 -0.18,-2.73 2.88,-7 8.74,-1.49 6.42,-3.2 0.63,0.39 -1.84,3.87 0.75,0.19 2.33,-3.27 2.49,1.26 0,0 3.21,-0.56 0,0 0.91,1.02 -2.04,6.57 4.36,0.54 2.43,-2.67 3.31,-1.33 4.55,3.8 -0.86,1.06 -0.25,5.97 -3.35,6.1 -2.16,-0.28 -3.47,3.26 -3.57,0.46 -3.44,1.84 -1.02,-0.98 -0.18,-2.41 -1.56,-0.69 -3.61,0.3 -1.9,2.02 -2.96,1.35 -0.95,-6.59 -1.34,-1.9 -0.25,-3.61 -3.14,-0.51 0,0 z" 
                fill="rgb(151, 144, 238)" 
                stroke="white" 
                stroke-width=".7px"
                title="Debrecen" 
                id="HU-DE" 
            />
        </svg>