<svg xmlns="http://www.w3.org/2000/svg" viewBox="425.2715199999999 84.394124 117.81999999999982 136.37999599999998" width="117.81999999999982" height="136.37999599999998">
            <path 
                d="m 452.15152,84.774124 2.19,0.98 0.83,-1.36 3.55,0.9 3.28,2.19 0.49,1.18 2.13,0.91 1.06,2.97 4.42,-2.13 2.89,-0.33 1.99,0.74 4.59,-0.71 0.38,-0.79 6.02,0.44 0.13,-1.29 1.13,-0.01 0.65,-1.05 2.27,0.89 0,0 1.98,0.83 -0.81,1.72 0,0 -0.04,3.57 0.88,0.27 -2,9.339996 -0.02,3.59 3.92,2.44 1.32,0.07 3.4,5.98 3.92,0.54 0.1,-0.8 2.08,-0.15 1.21,3.28 4.76,0.31 -0.43,2.17 2.59,0.54 0.62,1.46 2.64,0.87 2.16,-1.09 0.4,-1.27 2.23,-1.88 0.3,-3.5 3.28,-0.94 3.74,3.41 1.78,0.46 -0.46,3.66 2.61,1.56 -0.69,2.62 1.6,3.06 1.94,-1.6 2.05,-4.86 0.91,-0.19 2.58,1.62 1.29,7.18 1.1,1.05 0,0 -0.05,1.15 -2.92,3.77 -1.62,-0.15 -2.05,1.64 1.35,1.63 -0.83,1.08 -1.43,-1.37 -2.23,3.05 -1.23,5.34 1.12,2.82 1.11,0.52 -0.6,1.16 0.79,4.02 -2.22,4.7 -1.65,-0.52 -4.66,0.97 -5.48,11.35 0.79,1.9 -3.28,4.81 -0.32,1.8 0.95,0.76 0,3.97 -3.71,2.16 -2.35,6.4 0.04,2.13 -2.27,-0.16 -3.63,1.35 -1.02,3.17 -2.97,3.76 -2.92,0.59 0.86,2.3 0,0 -1.49,1.07 -0.25,-1.31 -0.94,0.55 -0.46,1.58 -1.89,1.64 -3.17,-0.55 -0.86,2.9 0.76,2.48 -6.15,0.94 -1.58,1.75 -0.87,-1.12 -2.45,-0.8 -1.99,1.85 0.69,-2.1 0.99,-0.26 -0.15,-1.61 -1.15,0.33 -1.31,-1.3 -5.06,-0.05 -9.73,-3.96 -1.54,-1.64 0.01,-1.27 1.19,-0.59 -0.88,-3.08 5.23,-3.9 -0.62,-3.21 1.37,-1.04 -0.67,-1.76 0.79,-2.49 -6.55,0.34 -2.71,-2.34 -6.5,-0.86 -5.66,-4.47 -0.03,1.68 -1.16,0.41 -2.87,-4.46 -1.94,-0.85 -0.73,1.17 -1.25,-1.01 0,0 3.98,-2.85 1.05,-12.03 -3.45,-17.12 1.06,-2.46 -1.52,-2.3 0.1,-7.87 -1.53,-2.47 -2.61,-1.45 -4.78,1.92 -4.4,-2 -1.71,-5.63 0.49,-3.99 0,0 0.93,-0.13 0.11,1.42 1.21,0.08 0.44,1.51 1.11,0.52 0.58,-0.83 -1.75,-1.07 -0.54,-2.12 2.02,0 0,0 1.48,0.27 0,0 1.08,-0.69 -1.36,-0.37 -0.14,-2.57 1.49,1.74 1.96,-1.34 1.03,0.21 -0.19,-1.26 1.48,-1.59 4.49,-0.94 -0.6,-1.85 0.56,-2.43 1.81,-0.7 1.55,1.53 0.64,-0.66 0.56,-3.26 1.44,-1.91 0.23,-2.36 1,-1.47 -2.1,-4.449996 2.5,-1.54 -0.01,-3.55 3.76,-2.95 -0.09,-0.74 -1.59,0.44 -1.33,-0.68 1.73,-1.46 0.9,-4.16 z m 33.46,58.899996 0,0 3.15,0.51 0.24,3.61 1.35,1.9 0.95,6.59 2.96,-1.34 1.9,-2.02 3.62,-0.31 1.56,0.69 0.18,2.41 1.02,0.98 3.44,-1.83 3.56,-0.47 3.48,-3.26 2.16,0.28 3.36,-6.1 0.24,-5.97 0.87,-1.07 -4.56,-3.8 -3.3,1.33 -2.44,2.67 -4.36,-0.53 2.04,-6.58 -0.91,-1.01 0,0 -3.21,0.56 0,0 -2.48,-1.27 -2.34,3.27 -0.75,-0.19 1.84,-3.87 -0.63,-0.39 -6.42,3.2 -8.74,1.48 -2.88,7 0.18,2.73 4.92,0.8 z" 
                fill="rgb(151, 144, 238)" 
                stroke="white" 
                stroke-width=".7px"
                title="Hajdú-Bihar" 
                id="HU-HB" 
            />
        </svg>