<svg xmlns="http://www.w3.org/2000/svg" viewBox="366.60152 277.19412 36.910000000000025 27.930000000000007" width="36.910000000000025" height="27.930000000000007">
            <path 
                d="m 366.74152,291.46412 -0.14,-2.4 1.7,-5.24 1.66,-0.83 0.73,1.14 -0.69,2.99 2.03,0.81 4.02,-3.97 -1.53,-2.7 3.99,-0.96 -0.57,-2.87 6.06,-0.24 1.3,2.28 3.96,-2.19 1.46,2.42 1.56,-0.21 4.8,6.7 6.36,0.13 0,0 0.07,4.29 -1.01,-0.05 -2.07,1.88 0,0 0.01,0.98 -8.59,4.95 -2.52,3.39 -3.29,2.32 -2.47,0.86 -5.72,0.18 0,0 0.49,-2.15 -5.13,-1.33 z" 
                fill="rgb(151, 144, 238)" 
                stroke="white" 
                stroke-width=".7px"
                title="Hódmezővásárhely" 
                id="HU-HV" 
            />
        </svg>