<svg xmlns="http://www.w3.org/2000/svg" viewBox="304.79151999999993 212.22412 33.30000000000007 24.45999999999998" width="33.30000000000007" height="24.45999999999998">
            <path 
                d="m 335.73152,220.20412 2.36,6.76 -0.23,1.17 -2.79,2.3 -1.35,2.52 -3.39,-2.96 -1.43,1.22 0.41,0.99 -2.96,1.31 -0.9,-0.8 -1.17,0.66 0.12,1.31 -1.83,1.76 -1.98,-0.51 -1.91,0.75 0.38,-1.73 -3.18,-3.79 -1.28,-0.07 -2.17,-2.54 -2.04,-0.02 -0.54,-3.86 -5.06,-6.18 2.54,-2.45 1,1.05 3.62,-4.87 7.57,2.3 3.22,-1.34 0,0 8.41,6.25 1.96,-0.78 z" 
                fill="rgb(151, 144, 238)" 
                stroke="white" 
                stroke-width=".7px"
                title="Kecskemét" 
                id="HU-KM" 
            />
        </svg>