<svg xmlns="http://www.w3.org/2000/svg" viewBox="158.93151999999986 103.45412 96.51000000000013 65.14000000000009" width="96.51000000000013" height="65.14000000000009">
            <path 
                d="m 243.36152,103.45412 3.31,0.63 0,0 5.17,2.25 0.8,3.78 0.92,1.04 -0.11,3.42 1.99,1.86 -1.79,1.98 -2.02,-1.48 -4.31,1.1 -0.34,2.74 1.33,2.96 0.02,2.46 -4.12,-0.56 -3.58,-2.02 0.09,1.39 -2.74,-0.01 3.01,2.92 -3.59,2.14 -0.34,1.13 -1.52,0.75 -0.01,1.87 -2.84,2.28 0,0 -2.43,1.02 -3.46,-0.1 -0.78,0.89 -3.67,-1.32 -1.11,0.93 -1.27,-0.29 -1.16,2.33 -0.85,-0.44 0,0 -0.25,-2.24 -3.87,-3.42 -1.3,0.37 -3.22,-1.91 -3.81,0.03 -0.97,0.83 -2.41,4.33 1.6,3.17 1.35,-0.49 0.43,2.34 4.49,2.8 1.19,2.56 0,0 -2.24,1.04 -0.47,1.66 -2.58,2.96 -1.66,-1.31 -1.67,1.94 -0.43,1.12 2.31,2.53 -2.97,0.9 -1.18,-0.54 -1.61,1.94 -1.71,-0.88 -1.67,-2.57 -2.43,-1.21 -0.49,-3.04 -4.92,-2.4 0.59,3.22 -1.08,1.21 -1,-0.65 -1.66,1.07 -1.27,-1.65 -2.11,0.99 0.37,2.19 -1.4,1.16 0.25,2.72 -2.5,3.65 0.67,1.86 -2.97,0.94 -1.83,1.46 0.28,0.73 0,0 -1.7,-0.66 -5.04,0.74 -0.22,-2.08 -2.54,-1.7 1.6,-0.59 0.04,-1.5 -1.36,-1.14 -1.86,-0.2 -0.64,0.76 -2.6,-1.37 2.1,-4.33 -2.66,-4.19 0,0 1.39,-0.83 -1.17,-1.93 1.4,0.03 -0.13,-1.76 1.48,-1.21 0.56,0.35 0.03,-1.04 -2.41,-3.38 -0.1,-2.47 2.33,1 2.54,-0.92 -0.9,-1.09 -0.08,0.8 -1.92,-1.28 1.4,-2.78 -0.76,-0.44 0.99,-0.94 0.75,-3.46 -2.14,-0.56 -1.71,-2.15 1.26,-4.59 -0.83,-0.87 0.09,-1.27 0.93,-1.84 -0.84,-5.14 0,0 4.75,-0.68 2.32,-1.75 2.81,1.51 2.42,-1.37 4,0.02 8.85,2.06 4.85,-0.11 5.85,1.43 11.27,-2.89 3.23,-1.56 3.98,1.66 4.06,-1.66 9.44,0.76 3.29,-1.14 3.52,-2.38 1.55,-3.68 z" 
                fill="rgb(151, 144, 238)" 
                stroke="white" 
                stroke-width=".7px"
                title="Komárom-Esztergom" 
                id="HU-KE" 
            />
        </svg>