<svg xmlns="http://www.w3.org/2000/svg" viewBox="490.14152 71.95412399999996 29.71000000000015 29.519995999999992" width="29.71000000000015" height="29.519995999999992">
            <path 
                d="m 490.14152,88.294124 4.56,-9.4 2.98,1.14 0.57,-0.73 3.32,0.19 0.09,-2.01 1.36,-0.23 0.03,-1.48 -1.8,-1.95 0.38,-1.5 3.35,-0.37 1.12,1.48 1.53,0.41 1.95,-0.76 1.79,0.27 1.31,3.45 -1.07,2.75 1.63,0.17 0.19,1.35 4.34,-0.18 0.95,7.27 1.13,1.54 -0.86,0.39 0.21,1.48 -2.21,0.19 -0.59,1.96 -3.1,-1.6 -0.13,5.79 2.16,0.42 -1.11,2.589996 -1.76,0.55 -1.76,-1.769996 -0.35,-1.54 -7.33,0.6 -2.07,-2.82 -1.42,-0.78 -2.04,0.13 -0.76,-2.02 -5.42,-2.43 0,0 0.81,-1.71 z" 
                fill="rgb(151, 144, 238)" 
                stroke="white" 
                stroke-width=".7px"
                title="Nyíregyháza" 
                id="HU-NY" 
            />
        </svg>