<svg xmlns="http://www.w3.org/2000/svg" viewBox="28.281521999999995 111.68412000000005 29.190000000000005 18.32999999999997" width="29.190000000000005" height="18.32999999999997">
            <path 
                d="m 46.001522,112.30412 1.3,-0.32 0.42,1.31 1.68,1.04 5.65,1.13 2.42,6.48 0,0 -3.29,5.7 -2.03,-1.05 -6.49,1.19 -4.19,2.23 0,0 -4.9,-2.94 -0.76,0.87 -1.74,-0.1 -0.52,-1.33 -3.85,-0.8 -1.42,-1.24 1.8,-1.07 0.38,-3.12 1.19,1.81 1.26,0.31 0.22,-1.21 1.85,-1.64 2.08,-1.22 1.85,0.02 0.97,-1.45 -1.31,-1.83 0.93,-0.76 0.05,-1.3 5.34,-1.33 z" 
                fill="rgb(151, 144, 238)" 
                stroke="white" 
                stroke-width=".7px"
                title="Sopron" 
                id="HU-SN" 
            />
        </svg>