<svg xmlns="http://www.w3.org/2000/svg" viewBox="348.53152 291.2841199999998 30.04000000000002 36.4500000000001" width="30.04000000000002" height="36.4500000000001">
            <path 
                d="m 366.74152,291.46412 6.47,10.18 5.13,1.33 -0.49,2.15 0,0 0.72,4.06 -0.6,4.43 -5.28,0.26 -0.75,-0.72 -2.08,0 0.18,4.35 0.82,0.84 1.47,0.68 3.87,-0.81 -1.6,5.88 0.66,0.81 -0.36,2.12 -1.41,0.71 0,0 -0.13,-1.1 -1.13,0.71 0,0 -3.76,-9.16 -1.59,-2.06 -3.55,1.5 -1.95,-0.59 -2.05,3.99 0,0 -2.49,3.58 -2.45,-0.16 -1.19,-3.1 0,0 2.65,-0.49 1.28,-1.41 0,-2.04 -1.14,-0.32 -0.38,-2.11 2.15,-3.57 -1.64,-1.13 -4.35,-0.84 -3.24,-2.65 4.53,-4.2 1.27,-0.08 3.27,1.75 -0.48,-3.23 0.97,-2.56 3.26,0.33 1.43,1.16 2.84,-0.04 0.47,0.64 0.98,-2.61 -2.4,-1.78 -0.11,-3.86 1.15,-1.02 z" 
                fill="rgb(151, 144, 238)" 
                stroke="white" 
                stroke-width=".7px"
                title="Szeged" 
                id="HU-SD" 
            />
        </svg>