<svg xmlns="http://www.w3.org/2000/svg" viewBox="263.88 386.47900000000004 26.240000000000123 20.410999999999945" width="26.240000000000123" height="20.410999999999945">
            <path 
                d="m 282.643,404.8 -0.725,-0.928 -2.158,0.051 -2.213,-0.408 -1.017,3.375 -3.447,-2.095 0,0 0.209,-0.975 1.229,-2.35 -0.4,-0.491 -1.087,-0.579 -0.2,-0.368 0.09,-1.301 -0.28,-0.328 -3.08,1.237 -0.484,-0.005 -1.166,-0.66 -2.952,0.299 -1.005,-0.578 -0.077,-0.488 0.329,-0.811 1.906,-0.918 0.447,-0.363 0.166,-0.568 -0.6,-0.859 0.004,-0.569 0.821,-1.741 0.128,-0.935 -0.911,-2.324 -0.273,-1.466 0.048,-0.893 0.406,-0.282 0.968,0.008 2.531,1.648 3.259,1.49 0.524,0.004 0.528,-0.32 1.057,-1.211 0.406,-0.16 1.453,-0.03 2.75,-0.873 0.32,0.45 -0.533,1.175 0.074,1.098 -0.205,0.527 0.44,0.653 1.452,0.133 1.124,1.066 1.37,0.458 0.85,-0.28 0.934,-1.009 0.606,0.004 0.238,0.612 -0.008,1.464 0.28,0.327 1.533,0.295 0.2,0.286 -1.274,3.773 0.44,0.614 2.294,1.521 0.158,0.774 -0.492,1.095 -0.976,1.051 -2.146,0.758 z" 
                fill="rgb(151, 144, 238)" 
                stroke="white" 
                stroke-width=".7px"
                title="Bulawayo" 
                id="ZW-BU" 
            />
        </svg>