<svg xmlns="http://www.w3.org/2000/svg" viewBox="500.48899999999935 141.92899999999923 154.1460000000004 360.10700000000037" width="154.1460000000004" height="360.10700000000037">
            <path 
                d="m 647.911,168.686 0.455,0.964 0.72,0.346 1.603,0.171 2.096,1.977 0.756,1.046 -0.092,2.024 -0.265,0.821 -1.07,0.995 -0.695,2.081 -0.497,2.704 0.194,1.024 0.498,0.565 -0.643,0.277 -0.772,-0.345 -0.113,0.474 -0.023,1.166 0.436,0.636 1.638,1.085 0.017,0.422 -1.087,0.574 0.155,1.024 -0.452,1.783 -1.65,0.311 -1.766,-0.273 -0.772,1.359 0.1,3.272 -0.696,1.983 0.065,2.571 0.191,0.327 1.375,0.248 0.399,0.323 -0.04,0.517 -0.453,0.884 -0.192,1.767 -0.548,0.819 -0.923,-0.247 -0.324,0.259 -0.407,0.982 -0.049,1.285 0.57,1.952 0.009,1.849 0.794,1.754 0.069,1.689 1.228,3.205 -0.332,1.727 0.153,1.248 0.536,1.109 0.765,0.145 0.849,1.073 -0.123,2.03 0.51,2.177 0.518,1.029 0.034,1.026 -0.944,2.831 0.38,2.811 0.906,1.184 1.549,0.573 0.72,0.789 -0.105,0.846 1.303,1.256 0.058,0.363 -0.695,1.547 -1.069,0.355 -0.851,0.66 -0.627,3.521 0.538,1.132 0.014,1.168 -0.146,0.705 -0.569,0.721 -2.954,1.391 -0.402,-0.023 -0.862,-0.993 -0.302,-0.002 -1.32,1.1 -1.131,0.314 -0.932,0.679 -1.33,-0.211 -0.409,0.582 -0.625,0.056 -0.604,1.367 0.849,1.789 0.083,1.33 -0.815,1.864 1.083,1.053 0.871,2.669 3.758,6.038 0.077,0.686 -1.825,4.064 -0.456,1.935 -1.568,1.806 -1.394,0.832 -1.24,0.078 -3.485,-1.722 -1.862,0.33 -1.378,0.723 -0.653,0.614 -1.026,0.288 -1.533,1.267 -2.085,0.346 -1.85,1.359 -0.655,0.944 0.053,1.091 1.159,1.767 0.455,1.256 0.564,3.015 -0.083,0.343 -2.291,0.588 -0.165,0.402 0.769,5.388 0.494,1.456 0.602,0.571 1.435,0.376 1.437,-0.009 3.712,-1.062 2.687,-0.048 0.993,0.743 0.501,3.522 0.56,1.056 1.105,0.47 0.522,1.383 0.012,1.315 -0.474,1.15 -1.929,9.5 0.317,3.97 -0.232,1.316 -3.412,3.661 -2.736,2.308 -0.067,0.81 0.842,1.426 -0.025,0.688 -0.598,1.253 0.168,1.987 -0.317,1.64 0.016,0.69 0.48,0.814 0.929,0.758 0.825,0.168 3.479,-0.074 -0.392,3.749 0.096,0.792 0.824,1.182 -0.306,6.025 0.438,1.261 -1.552,4.029 0.076,0.691 0.282,0.326 0.974,0.333 1.892,-0.149 0.303,0.206 1.119,-0.054 2.239,-0.512 2.793,-1.299 1.083,-0.846 0.507,0.023 0.803,1.549 0.197,1.118 -0.125,0.588 -1.841,1.775 -0.146,0.425 0.261,0.571 2.834,2.151 2.293,0.787 1.581,0.945 1.173,1.206 0.295,1.647 -0.743,1.926 0.054,1.097 -1.046,4.812 -0.914,6.767 -1.149,4.835 -0.9,0.685 -1.591,0.376 -0.982,0.583 -3.61,0.587 -0.49,0.321 -0.698,1.364 0.535,0.933 0.107,3.691 -0.84,0.443 -1.305,-0.399 -0.563,-1.145 -0.57,-0.004 -1.045,0.786 -1.046,3.943 0.016,0.408 1.253,1.74 0.036,0.815 -0.124,0.284 -1.922,0.678 -0.35,0.446 -0.314,1.241 0.098,0.367 0.731,0.678 1.159,0.416 0.324,0.369 -0.49,3.033 0.278,1.144 -4.767,4.632 -0.56,1.219 0.028,1.631 -5.584,6.851 -4.229,7.823 -1.239,1.643 -0.864,0.585 -3.616,-0.195 -4.027,0.127 -0.822,0.421 -3.808,3.028 -1.651,1.68 -0.625,3.487 0.088,1.493 0.756,2.337 0.262,9.488 1.737,7.258 -0.142,2.269 -2.993,6.973 -1.062,1.71 -1.559,2.258 -4,4.465 -1.178,1.013 -1.777,3.404 0.283,0.495 2.505,1.871 0.487,0.598 0.036,0.534 -0.939,1.507 0.359,1.234 1.911,1.823 0.761,2.12 2.211,2.832 1.537,2.579 0.335,1.501 -0.962,-0.379 -1.324,-1.162 -1.046,-0.153 -1.506,0.378 0,0 -0.899,-1.443 -4.623,-4.138 -1.675,-0.546 -1.967,-1.032 -0.943,-2.848 -1.081,-1.496 -0.204,-2.532 -1.712,-5.206 -1.689,-1.527 -3.384,-1.012 -0.944,-0.68 -0.303,-1.14 0.408,-2.375 -0.417,-0.688 -1.182,-0.432 -1.28,-1.329 -0.116,-2.285 -1.149,-3.454 0.057,-1.43 0.311,-0.903 2.013,-3.457 3.682,-7.969 0.281,-2.655 0.705,-1.479 0.043,-2.406 0.269,-0.942 0.873,-1.072 1.244,-0.671 0.354,-0.616 0.189,-3.304 0.446,-2.491 0.65,-2.332 0.944,-1.684 -0.157,-7.164 0.598,-5.543 0.342,-1.347 0.295,-4.235 0.739,-4.321 0.812,-2.166 0.682,-7.812 1.317,-5.869 0.142,-8.771 -0.234,-1.944 -0.418,-0.926 -0.53,-0.439 -2.346,-0.494 -1.377,-0.548 -4.107,-2.374 -0.894,-0.555 -2.702,-2.882 -5.799,0.12 -1.946,-0.826 -3.18,-2.797 -3.504,0.005 -1.46,-0.751 -2.251,-2.608 -1.002,-2.622 -3.419,-2.836 -2.276,-4.713 -1.906,-1.112 -3.223,-3.486 -0.614,-0.844 -1.17,-3.47 -3.284,-2.189 -2.101,-0.868 -0.732,-0.639 -0.993,-2.378 -2.114,-1.96 -1.452,-0.47 -0.287,-0.443 -0.552,-2.544 -0.743,-1.691 -0.648,-0.439 -1.85,-0.142 -3.023,-0.9 -1.643,0.502 -0.564,-0.197 -1.878,-2.732 -2.104,-1.396 -0.98,-1.486 -1.011,-0.598 -3.787,-1.098 -3.614,0.034 -0.846,-0.276 -0.727,-0.519 -1.589,-2.17 -0.607,-0.48 -3.026,-1.591 -1.339,-1.444 -2.3,-1.234 -3.313,-2.4 -3.267,-1.713 0,0 2.925,-0.547 2.809,-0.022 0.64,-0.168 0.438,-0.407 0.324,-4.043 0.673,-1.016 0.797,-0.531 0.511,-1.055 0.081,-4.402 0.395,-0.569 0.801,-0.127 3.17,0.256 1.939,1.517 1.083,0.031 1.601,-0.377 1.566,0.268 0.569,0.722 0.458,1.571 0.526,0.561 0.807,0.356 1.927,0.305 1.615,0.954 0.923,0.153 0.48,-0.246 1.425,-1.751 3.181,-6.086 0.232,-0.931 -0.416,-1.409 -0.141,-1.854 0.555,-0.57 0.963,0.111 2.829,2.151 1.729,0.508 3.4,-0.641 0.672,-0.773 1.516,-0.622 1.567,0.347 3.428,1.901 3.205,3.234 3.633,2.018 3.584,1.291 0.882,-0.011 1.113,-0.779 0.759,-0.212 3.175,0.689 -1.037,-2.732 -0.178,-1.289 0.689,-2.59 -0.076,-2.703 0.368,-2.465 -0.133,-1.047 -0.21,-0.724 -1.139,-1.438 -1.247,-3.534 -0.285,-0.399 -1.651,-0.707 -0.612,-0.96 -0.712,-2.491 0.344,-4.558 -0.215,-1.206 -0.984,-1.963 -1.018,-1.359 -1.849,-0.744 -1.919,-0.019 -1.128,-0.593 0.298,-1.856 -0.784,-2.004 -2.223,-1.99 -0.776,-1.401 -2.593,-3.073 0.169,-2.699 0.742,-1.497 -0.006,-0.482 -0.85,-0.918 -0.899,-1.841 -2.023,-2.152 0.395,-0.487 1.352,-0.496 0.791,-0.772 0.885,-2.986 0.67,-0.81 3.341,-1.121 2.191,-0.465 1.03,-0.694 -0.58,-1.803 -0.134,-1.245 0.188,-0.967 1.258,-1.62 0.192,-0.686 0.151,-4.14 -0.392,-2.808 -0.25,-7.749 0.181,-1.647 0.697,-1.733 0.826,-0.892 1.751,-0.34 0.8,0.273 0.605,0.555 0.879,0.231 1.832,-0.18 2.475,0.374 2.271,-0.106 -0.009,-0.721 -1.923,-4.032 -0.09,-0.882 1.095,-1.697 2.968,-1.638 1.453,-1.661 1.814,-1.384 2.903,-3.522 3.893,-3.774 -0.684,-3.679 0.745,-0.81 0.217,-1.645 0.862,-1.052 3.828,-2.369 0.834,-0.13 1.297,-1.218 1.027,-0.452 2.04,-2.108 0.931,-1.773 1.023,-0.733 1.018,-1.174 2.136,-0.827 1.173,-1.336 3.15,-2.202 5.35,-1.029 2.477,-1.834 1.987,-2.707 1.228,-0.256 2.585,0.245 1.694,-0.903 1.151,-0.136 0.189,-0.602 2.342,-2.752 2.577,-0.236 0.382,-1.004 0.064,-0.961 -0.345,-1.795 0.026,-0.999 0.307,-0.644 2.363,-1.272 2.847,-0.601 0.828,-0.371 0.704,-0.689 0.502,-0.927 0.246,-2.041 0.378,-1.124 0.623,-0.768 0.882,-1.97 0.137,-1.359 1.047,-1.533 1.843,-1.345 1.896,-0.427 1.846,-1.065 1.467,-2.498 1.563,-1.42 2.606,-0.638 3.361,-0.45 4.234,-1.543 0,0 0.31,5.547 0.277,0.482 0.621,0.164 3.108,2.701 -2.119,2.648 -1.054,2.034 -0.461,1.283 -0.424,2.556 0.113,0.737 -1.221,0.236 -0.851,1.396 -0.927,0.835 -0.268,1.14 0.089,1.843 0.214,1.004 0.914,1.328 z" 
                fill="rgb(151, 144, 238)" 
                stroke="white" 
                stroke-width=".7px"
                title="Manicaland" 
                id="ZW-MA" 
            />
        </svg>