<svg xmlns="http://www.w3.org/2000/svg" viewBox="232.59699999999995 -1.174060848541103e-13 248.37600000000012 285.5540000000003" width="248.37600000000012" height="285.5540000000003">
            <path 
                d="m 390.534,1.156 2.758,0.083 2.711,1.671 2.756,-0.556 2.574,-0.159 2.411,-0.609 3.076,-0.042 2.431,-0.59 3.471,0.044 1.492,0.879 1.578,1.635 0.459,0.941 0.633,0.11 3.645,-3.087 0.376,0.086 0.736,1.024 0.553,0.294 0,0 0.197,2.491 -0.233,1.547 0.238,1.07 0.395,0.515 2.051,1.347 0.791,1.307 0.082,1.548 -0.627,0.992 -2.833,2.264 -1.217,1.747 -3.779,2.187 -1.062,1.707 -1.614,0.913 -1.141,1.232 -3.308,2.741 -6.146,4.091 -1.577,0.674 -0.275,0.398 0.002,2.184 0.791,1.668 1.815,1.311 0.475,0.636 0.396,1.827 -0.154,2.663 1.029,2.582 1.504,2.743 0.317,0.238 1.658,0.158 0.237,0.597 -0.077,0.914 -0.473,0.716 -1.616,1.83 -2.012,1.75 -0.036,2.584 0.32,2.188 -0.157,1.631 -2.84,3.621 -0.668,3.621 0.516,0.637 0.79,0.358 0.87,0.039 0.909,-0.279 0.829,-1.114 0.75,-0.518 2.646,-0.478 1.343,-0.996 3.16,-0.439 0.591,-0.518 0.512,-1.114 1.018,-4.536 0.946,-1.075 1.263,-0.478 1.106,0.317 1.245,-0.071 1.443,0.625 1.148,1.152 0.4,2.425 0.437,0.716 2.215,1.35 1.186,0.077 2.133,-0.481 1.935,-0.043 0.83,0.198 1.307,0.832 0.84,3.182 -0.155,1.274 -1.493,3.027 -0.234,0.916 -0.301,5.256 -2.516,5.38 -0.508,1.555 0.043,1.194 1.269,1.193 0.758,2.111 1.111,1.034 2.733,0.671 1.387,1.072 2.656,0.991 2.099,0.473 -0.072,1.914 0.559,1.234 0.202,1.354 -0.905,1.478 -0.116,1.036 2.458,0.751 0.758,1.314 -0.233,1.197 -0.434,0.44 -0.712,0.082 -1.071,-0.356 -0.514,0.16 -0.433,0.56 -0.116,1.156 0.532,4.427 0.921,2.91 -0.427,1.916 0.042,0.838 1.556,2.71 0.162,0.957 -0.187,2.915 0.407,2.593 0.558,0.638 3.528,0.03 0.878,1.034 0.635,0.118 2.331,-1.804 1.385,-0.643 1.278,1.992 1.545,-0.405 0.874,0.436 2.62,0.59 -0.343,2.876 -0.549,1.44 -0.147,2.197 -0.431,1.24 -0.549,1.24 -3.269,5.287 -1.33,4.321 -1.573,3.323 -1.609,4.286 -0.115,1.001 1.092,4.235 -0.076,0.641 -0.828,1.643 -0.061,4.003 -0.428,2.002 -0.065,3.203 3.816,-0.094 3.699,0.227 2.145,-0.409 4.096,0.183 1.072,-0.204 -0.345,2.444 -0.863,2.086 -0.192,1.162 0.161,0.44 5.86,2.256 3.073,1.869 0.957,0.355 1.998,1.392 0.711,-0.765 0.235,-0.682 1.03,-0.766 1.55,-0.168 0.677,0.196 0.6,0.438 0.441,0.718 0.052,1.763 0.608,1.56 0,0 -0.553,0.724 -0.107,1.964 -2.217,1.774 -0.944,1.769 -0.595,0.284 -1.911,0.13 -0.157,0.281 0.086,0.882 -0.508,1.766 1.161,0.796 0.403,0.92 -0.511,0.965 -1.068,1.168 0.003,0.482 1.441,1.076 1.357,0.514 1.247,1.998 -0.077,0.442 -0.593,0.525 -3.102,1.019 0,0 -1.6,-1.115 -2.116,-0.712 -2.629,0.012 -0.875,0.366 -0.709,1.407 0.255,2.607 -0.275,0.723 -2.576,2.54 0.045,0.844 1.421,4.449 -0.077,0.683 -0.356,0.524 -1.509,1.091 -0.749,1.65 -0.781,2.733 0.646,1.605 -0.193,1.165 -1.229,1.332 -3.339,2.345 -0.237,0.604 -0.108,2.09 0.895,3.252 3.016,3.847 2.21,2.201 1.41,2.286 -0.154,0.965 -1.63,1.336 -0.196,0.524 -0.015,4.465 -0.663,2.821 0.146,4.628 -0.43,1.493 -1.666,2.463 -2.109,1.983 -0.273,1.25 -0.674,1.13 -1.115,0.933 -2.893,5.25 -0.848,-1.487 -0.201,-0.08 -0.754,0.929 -0.361,0.122 -0.441,-0.159 -0.925,-0.964 -0.52,-0.118 0.352,6.448 -0.433,1.574 -2.315,1.581 -1.275,1.295 -0.427,2.865 -2.084,-0.315 -0.559,0.405 -1.791,2.67 0,0 -3.327,-0.473 -1.445,-0.763 -1.447,-1.125 -4.936,-2.044 -1.447,-1.649 -1.244,-0.562 -1.688,-1.689 -1.281,0.164 -1.159,0.445 -1.042,-0.037 -1.085,-1.208 -0.883,-0.603 -2.123,-0.399 -0.321,-0.241 -1.01,-3.063 -1.684,-0.723 -2.242,-0.278 -1.644,-0.845 -4.763,0.207 -0.68,-0.16 -0.723,-0.967 -0.601,10e-4 -0.761,-0.524 -2.08,0.768 -0.641,-0.202 -1.042,-0.967 -4.004,-0.4 -2.161,0.241 -1.36,0.767 -2.481,-0.283 -1.203,-0.806 -1.081,-0.242 -0.961,-1.049 -1.56,0.323 -1.242,-0.485 -1.482,-2.136 -1.36,-0.767 -0.281,-0.766 -0.519,0.08 -1.041,0.805 -1,0.121 -1.321,-2.379 -0.52,-0.444 -3.401,0.157 -1.521,-0.163 -1.199,0.361 -0.681,-0.081 -1.28,-0.606 -1.998,-2.662 -0.52,-0.244 -1.681,0.401 -1.12,-0.003 -1.199,-0.767 -0.678,-2.419 0,-0.684 0.963,-2.696 -0.396,-4.268 0.161,-0.644 1.32,-1.446 0.081,-1.69 0.723,-3.62 -0.759,-0.967 -0.719,-0.324 -1.277,-1.249 -2.716,-0.851 -2.992,-2.419 -2.594,-1.094 -2.154,-1.614 -1.238,-0.486 -2.155,-0.288 -1.036,-1.089 -1.551,-3.14 -2.115,-0.65 -1.035,-0.969 -2.034,-0.891 -0.437,-0.444 -0.715,-1.89 -1.668,-2.739 -0.673,-2.052 -1.353,-1.491 -1.147,-3.7 -0.115,-1.245 -0.635,-1.248 0.003,-0.843 0.801,-1.482 -0.075,-1.565 0.401,-0.601 -0.038,-1.044 1.724,-3.445 2.12,-2.882 0.205,-2.486 1.038,-0.759 0.92,-1.561 0.084,-1.885 0.28,-0.6 2.436,-2.839 -0.078,-0.682 -1.59,-1.248 0.1,-1.548 2.617,-2.612 -0.035,-2.285 0.52,-1.24 -0.354,-1.804 0.361,-1.441 -0.395,-1.044 -1.429,-1.406 0.002,-0.922 0.159,-0.399 1.674,-1.277 2.235,-3.597 1.832,-1.436 1.038,-2.479 -0.516,-0.561 -1.629,-0.246 -1.708,-0.846 -1.386,-1.966 -0.834,-0.443 -1.109,-1.724 -1.23,-0.965 -2.381,-1.208 -0.316,-0.442 -0.308,-3.842 -0.436,-0.681 -1.349,-0.526 -0.235,-1.36 -0.595,-0.283 -2.94,0.228 -1.747,-0.206 -1.349,-0.326 -0.951,-0.765 -1.032,-0.084 -2.538,-1.131 -2.501,-0.331 -0.435,-0.282 -0.631,-1.402 -1.308,-0.446 -0.753,-0.524 -2.102,-0.53 -0.951,-0.725 -1.942,-0.889 -1.461,-1.646 -1.02,-2.884 -1.34,-2.365 -0.552,-0.682 -1.152,0.113 -0.596,0.197 -1.434,1.191 -0.914,0.194 -5.397,-0.031 -1.867,0.228 -1.831,1.028 -1.668,0.429 -3.512,3.375 -2.66,0.102 -0.64,0.755 -2.647,4.62 -0.331,2.357 -0.443,0.918 -1.672,0.507 -2.763,3.78 -1.596,1.069 -1.493,3.67 -0.637,0.076 -1.146,-1.01 -3.287,-1.786 -0.867,-0.926 -0.634,-0.286 -4.935,1.201 -2.467,0.379 -1.827,-0.055 -1.081,1.032 -1.714,0.666 -0.635,0.033 -1.942,-0.737 -2.745,0.416 0,0 -0.945,-1.169 -0.661,-1.887 -0.591,-0.444 -0.51,-0.885 -2.219,-0.661 -0.937,-2.008 -1.384,-0.813 -0.234,-0.442 -0.058,-2.641 -0.863,-1.247 0.129,-1.158 -0.859,-1.888 0.414,-1.795 -0.429,-0.963 -1.023,-1.168 -0.088,-3.559 -0.751,-0.406 -2.501,0.136 -0.648,-1.496 -0.557,-0.642 0.162,-0.479 -0.317,-0.722 -0.479,-0.122 -2.445,1.112 -0.8,0.077 -0.279,-0.24 0.082,-0.52 0.64,0.002 0.886,-1.397 0.361,-0.199 -0.238,-0.521 0.241,-0.399 -0.357,-0.521 -0.038,-0.561 0.841,-0.116 -0.596,-0.843 -0.459,-2.199 -1.454,-1.571 -0.579,-1.763 0.251,-1.395 0.729,-1.829 -0.382,-1.56 0.063,-2.714 -0.308,-0.841 -0.845,-0.774 0,0 10.095,-4.734 11.206,-9.264 31.189,-12.732 7.824,-1.46 1.012,-1.376 1.175,-0.531 1.566,-1.562 1.805,-0.911 1.469,-2.116 -0.041,-3.225 0.295,-0.785 1.363,-1.654 0.363,-1.126 -0.019,-1.253 0.494,-0.752 -0.725,-1.549 0.257,-1.978 -0.372,-0.446 -1.063,-0.266 -0.379,-0.665 0.597,-2.564 2.282,-2.775 0.217,-0.683 -0.121,-0.673 -1.49,-0.609 -0.377,-1.261 0.049,-0.956 0.46,-1.227 0.047,-2.943 1.8,-3.493 -0.329,-1.003 -0.793,-0.572 -0.205,-0.848 0.186,-1.038 0.762,-1.057 -1.21,-1.214 0.18,-0.601 1.16,-1.009 2.115,-3.327 0.34,-1.077 1.891,-3.524 0.93,-0.474 1.021,-0.176 3.122,0.089 1.135,-0.22 2.46,0.339 0.887,-0.431 0.7,-0.866 0.745,-1.719 1.807,-2.333 10.944,-7.709 1.498,-1.732 1.141,-0.615 1.409,0.054 1.857,-0.508 3.278,-1.983 2.055,-0.532 1.605,-1.239 1.103,-0.436 3.138,0.182 1.756,-1.639 1.124,-0.358 5.549,-0.319 1.12,-0.576 2.606,-2.825 1.44,-0.404 1.251,0.056 2.768,1.654 1.588,0.05 7.248,-1.685 5.013,-2.318 1.757,-0.411 2.041,-0.139 4.705,0.284 z" 
                fill="rgb(151, 144, 238)" 
                stroke="white" 
                stroke-width=".7px"
                title="Mashonaland West" 
                id="ZW-MW" 
            />
        </svg>