<svg xmlns="http://www.w3.org/2000/svg" viewBox="440.61400000000094 94.42999999999998 208.77999999999895 224.9510000000001" width="208.77999999999895" height="224.9510000000001">
            <path 
                d="m 638.927,95.263 1.469,0.948 0.598,0.063 2.505,-1.635 0.358,0.221 3.664,0.065 0.604,0.223 -0.993,5.675 -4.561,10.58 -1.443,0.788 -4.203,1.087 -0.762,0.433 0.233,0.98 0.929,1.404 7.412,10.489 4.055,9.627 0.602,5.718 0,0 -4.234,1.543 -3.361,0.45 -2.606,0.638 -1.563,1.42 -1.467,2.498 -1.846,1.065 -1.896,0.427 -1.843,1.345 -1.047,1.533 -0.137,1.359 -0.882,1.97 -0.623,0.768 -0.378,1.124 -0.246,2.041 -0.502,0.927 -0.704,0.689 -0.828,0.371 -2.847,0.601 -2.363,1.272 -0.307,0.644 -0.026,0.999 0.345,1.795 -0.064,0.961 -0.382,1.004 -2.577,0.236 -2.342,2.752 -0.189,0.602 -1.151,0.136 -1.694,0.903 -2.585,-0.245 -1.228,0.256 -1.987,2.707 -2.477,1.834 -5.35,1.029 -3.15,2.202 -1.173,1.336 -2.136,0.827 -1.018,1.174 -1.023,0.733 -0.931,1.773 -2.04,2.108 -1.027,0.452 -1.297,1.218 -0.834,0.13 -3.828,2.369 -0.862,1.052 -0.217,1.645 -0.745,0.81 0.684,3.679 -3.893,3.774 -2.903,3.522 -1.814,1.384 -1.453,1.661 -2.968,1.638 -1.095,1.697 0.09,0.882 1.923,4.032 0.009,0.721 -2.271,0.106 -2.475,-0.374 -1.832,0.18 -0.879,-0.231 -0.605,-0.555 -0.8,-0.273 -1.751,0.34 -0.826,0.892 -0.697,1.733 -0.181,1.647 0.25,7.749 0.392,2.808 -0.151,4.14 -0.192,0.686 -1.258,1.62 -0.188,0.967 0.134,1.245 0.58,1.803 -1.03,0.694 -2.191,0.465 -3.341,1.121 -0.67,0.81 -0.885,2.986 -0.791,0.772 -1.352,0.496 -0.395,0.487 2.023,2.152 0.899,1.841 0.85,0.918 0.006,0.482 -0.742,1.497 -0.169,2.699 2.593,3.073 0.776,1.401 2.223,1.99 0.784,2.004 -0.298,1.856 1.128,0.593 1.919,0.019 1.849,0.744 1.018,1.359 0.984,1.963 0.215,1.206 -0.344,4.558 0.712,2.491 0.612,0.96 1.651,0.707 0.285,0.399 1.247,3.534 1.139,1.438 0.21,0.724 0.133,1.047 -0.368,2.465 0.076,2.703 -0.689,2.59 0.178,1.289 1.037,2.732 -3.175,-0.689 -0.759,0.212 -1.113,0.779 -0.882,0.011 -3.584,-1.291 -3.633,-2.018 -3.205,-3.234 -3.428,-1.901 -1.567,-0.347 -1.516,0.622 -0.672,0.773 -3.4,0.641 -1.729,-0.508 -2.829,-2.151 -0.963,-0.111 -0.555,0.57 0.141,1.854 0.416,1.409 -0.232,0.931 -3.181,6.086 -1.425,1.751 -0.48,0.246 -0.923,-0.153 -1.615,-0.954 -1.927,-0.305 -0.807,-0.356 -0.526,-0.561 -0.458,-1.571 -0.569,-0.722 -1.566,-0.268 -1.601,0.377 -1.083,-0.031 -1.939,-1.517 -3.17,-0.256 -0.801,0.127 -0.395,0.569 -0.081,4.402 -0.511,1.055 -0.797,0.531 -0.673,1.016 -0.324,4.043 -0.438,0.407 -0.64,0.168 -2.809,0.022 -2.925,0.547 0,0 -2.769,0.022 -4.009,0.555 -2.971,0.061 -8.099,1.227 -0.566,-0.562 -0.126,-0.646 0.228,-7.195 -2.408,-0.147 -4.543,-1.346 -0.512,1.538 0.058,2.586 -0.479,0.245 -0.804,-0.157 -0.078,0.445 1.152,3.995 -0.159,0.244 -2.123,0.82 -0.878,0.651 -0.356,0.69 0,0 -1.012,-1.166 -3.466,-2.003 -2.742,-1.966 -0.848,-0.926 -1.42,-2.417 -0.765,-0.319 -1.203,0.006 -0.686,-0.523 -0.128,-1.333 0.269,-2.223 1.243,-0.005 -0.211,-1.575 -0.65,-1.452 -2.586,-3.379 -1.702,-3.304 0.236,-0.808 2.148,-2.876 -1.448,-1.002 -0.06,-3.591 -0.482,-0.16 -2.122,0.292 -1.801,0.533 -1.482,0.127 -0.959,0.447 -0.522,-0.038 -2.251,-1.404 -5.783,-2.762 0,0 1.791,-2.67 0.559,-0.405 2.084,0.315 0.427,-2.865 1.275,-1.295 2.315,-1.581 0.433,-1.574 -0.352,-6.448 0.52,0.118 0.925,0.964 0.441,0.159 0.361,-0.122 0.754,-0.929 0.201,0.08 0.848,1.487 2.893,-5.25 1.115,-0.933 0.674,-1.13 0.273,-1.25 2.109,-1.983 1.666,-2.463 0.43,-1.493 -0.146,-4.628 0.663,-2.821 0.015,-4.465 0.196,-0.524 1.63,-1.336 0.154,-0.965 -1.41,-2.286 -2.21,-2.201 -3.016,-3.847 -0.895,-3.252 0.108,-2.09 0.237,-0.604 3.339,-2.345 1.229,-1.332 0.193,-1.165 -0.646,-1.605 0.781,-2.733 0.749,-1.65 1.509,-1.091 0.356,-0.524 0.077,-0.683 -1.421,-4.449 -0.045,-0.844 2.576,-2.54 0.275,-0.723 -0.255,-2.607 0.709,-1.407 0.875,-0.366 2.629,-0.012 2.116,0.712 1.6,1.115 0,0 1.321,1.076 6.72,3.775 2.605,2.072 2.571,2.714 1.153,-0.249 1.031,-0.808 1.793,-0.092 2.381,-1.86 -1.493,-0.936 -0.382,-1.276 0.076,-0.386 2.533,-0.016 0.578,-2.572 -0.423,-3.286 2.059,-1.617 1.198,0.353 0.754,-0.246 0.391,-0.805 0.181,-2.367 1.467,-0.811 0.272,-0.844 -1.258,-2.958 -0.248,-1.321 0.145,-1.764 -0.843,-0.996 -0.164,-0.641 0.692,-3.049 -0.456,-2.281 -1.235,-0.352 -1.946,0.373 -0.916,-0.074 -0.679,-0.357 -0.794,0.125 -0.758,-0.235 -0.495,-2.4 -2.268,-0.227 0,0 0.668,-1.085 0.531,-3.488 0.627,-1.405 0.298,-2.804 -0.201,-0.159 -1.03,0.487 -0.556,0.003 -0.559,-0.396 -0.444,-1.039 -0.008,-1.161 1.987,0.069 0.95,-0.487 -0.206,-1.039 0.147,-1.681 1.175,-2.568 1.334,-1.34 1.239,0.124 3.981,1.254 6.122,0.28 2.747,0.82 -0.537,2.365 -1.444,3.092 -0.577,2.405 -0.784,1.366 -0.032,1.122 0.66,2.917 1.789,-0.212 1.854,-1.614 0.674,-0.286 0.834,-0.166 2.31,0.583 1.308,-0.57 5.053,-4.041 0.595,-0.125 0.951,1.934 0.528,-0.905 0.502,-1.684 1.538,-1.334 1.06,-3.119 1.867,-2.505 1.74,-0.895 3.132,-0.626 1.718,-1.076 0.791,-2.265 0.745,-1.045 0.83,-0.367 0.186,-1.162 1.373,-1.69 2.446,-1.701 4.797,-4.358 0.581,-1.365 -0.155,-3.474 -0.251,-1.236 -1.447,-1.944 0.232,-0.561 0.471,-0.523 1.545,-0.134 2.287,-1.299 4.5,-1.879 0.713,-0.006 0.59,-0.485 -0.087,-0.718 -0.721,-0.632 -0.287,-0.955 0.344,-1.201 1.63,-3.288 3.886,-3.349 0.229,-0.8 -0.806,-1.388 0.112,-0.52 1.017,-1.166 1.375,-0.931 0.862,-0.966 1.62,-3.844 2.139,0.058 1.183,-0.49 0.86,-0.925 0.228,-0.841 -0.802,-4.415 0.388,-0.762 1.971,-0.697 1.592,-2.527 1.542,-0.135 1.31,0.384 0.87,-0.088 1.411,-1.091 1.462,-0.175 3.735,-1.873 1.656,-0.536 1.426,0.223 1.712,0.898 0.593,-0.047 2.312,-1.778 1.965,-0.978 3.833,-0.165 4.795,-2.285 5.121,-1.377 3.083,0.042 2.891,0.362 3.985,2.258 1.865,0.573 4.526,-1.413 1.348,0.26 2.149,1.006 1.18,-0.413 4.216,-2.679 0,0 1.26,0.527 0.939,-0.212 1.916,0.075 0.42,-0.216 1.394,0.329 0.604,-0.753 0.839,-0.133 0.892,0.784 z" 
                fill="rgb(151, 144, 238)" 
                stroke="white" 
                stroke-width=".7px"
                title="Mashonaland East" 
                id="ZW-ME" 
            />
        </svg>