<svg xmlns="http://www.w3.org/2000/svg" viewBox="402.1359999999996 0.7539999999997571 227.24900000000002 184.52600000000015" width="227.24900000000002" height="184.52600000000015">
            <path 
                d="m 434.373,3.363 -0.268,23.289 0.202,7.172 41.683,0 2.293,1.412 0.613,1.936 0.76,0.926 1.325,0.832 1.36,-0.181 1.838,-1.068 0.722,-1.442 0.138,-0.784 1.933,-0.501 0.577,-0.433 0.315,-0.697 0.477,0.61 0.199,0.795 2.582,-1.405 -0.118,-0.386 3.237,-1.144 0.914,0.539 2.248,0.163 0.976,1.192 2.133,0.291 2.45,-0.655 0.197,0.122 -0.01,0.612 1.747,0.112 1.317,0.876 1.997,0.629 2.216,1.844 0.43,0.403 0.238,1.334 0.58,1.002 1.276,0.954 3.398,3.987 1.338,-0.415 0.506,0.243 0.337,0.545 -0.231,0.81 0.231,0.481 1.317,-0.257 0.813,0.073 0.829,0.41 1.295,-0.179 1.494,1.195 3.841,1.172 3.592,0.611 2.527,-0.101 1.423,0.616 4.729,0.387 0.928,0.43 2.541,1.885 2.08,0.745 1.074,-0.025 1.251,1.706 1.012,0.133 0.445,1.06 1.086,0.631 0.173,0.4 -0.273,1.11 0.877,-0.048 0.372,0.442 0.069,0.777 0.434,0.363 0.344,-0.432 0.714,0.168 0.29,0.72 3.503,1.618 0.704,0.964 0.277,1.733 0.472,0.484 -0.326,2.124 0.521,1.32 10.386,2.559 20.745,-0.676 10.607,3.036 13.698,5.824 11.178,5.493 0.278,0.262 -0.186,3.345 -0.306,0.854 -0.258,2.469 0.474,0.502 3.812,1.547 0,0 -4.216,2.679 -1.18,0.413 -2.149,-1.006 -1.348,-0.26 -4.526,1.413 -1.865,-0.573 -3.985,-2.258 -2.891,-0.362 -3.083,-0.042 -5.121,1.377 -4.795,2.285 -3.833,0.165 -1.965,0.978 -2.312,1.778 -0.593,0.047 -1.712,-0.898 -1.426,-0.223 -1.656,0.536 -3.735,1.873 -1.462,0.175 -1.411,1.091 -0.87,0.088 -1.31,-0.384 -1.542,0.135 -1.592,2.527 -1.971,0.697 -0.388,0.762 0.802,4.415 -0.228,0.841 -0.86,0.925 -1.183,0.49 -2.139,-0.058 -1.62,3.844 -0.862,0.966 -1.375,0.931 -1.017,1.166 -0.112,0.52 0.806,1.388 -0.229,0.8 -3.886,3.349 -1.63,3.288 -0.344,1.201 0.287,0.955 0.721,0.632 0.087,0.718 -0.59,0.485 -0.713,0.006 -4.5,1.879 -2.287,1.299 -1.545,0.134 -0.471,0.523 -0.232,0.561 1.447,1.944 0.251,1.236 0.155,3.474 -0.581,1.365 -4.797,4.358 -2.446,1.701 -1.373,1.69 -0.186,1.162 -0.83,0.367 -0.745,1.045 -0.791,2.265 -1.718,1.076 -3.132,0.626 -1.74,0.895 -1.867,2.505 -1.06,3.119 -1.538,1.334 -0.502,1.684 -0.528,0.905 -0.951,-1.934 -0.595,0.125 -5.053,4.041 -1.308,0.57 -2.31,-0.583 -0.834,0.166 -0.674,0.286 -1.854,1.614 -1.789,0.212 -0.66,-2.917 0.032,-1.122 0.784,-1.366 0.577,-2.405 1.444,-3.092 0.537,-2.365 -2.747,-0.82 -6.122,-0.28 -3.981,-1.254 -1.239,-0.124 -1.334,1.34 -1.175,2.568 -0.147,1.681 0.206,1.039 -0.95,0.487 -1.987,-0.069 0.008,1.161 0.444,1.039 0.559,0.396 0.556,-0.003 1.03,-0.487 0.201,0.159 -0.298,2.804 -0.627,1.405 -0.531,3.488 -0.668,1.085 0,0 -0.351,1.083 0.223,3.324 -1.343,1.53 -1.709,0.211 -0.398,-0.078 -0.322,-0.438 -0.398,10e-4 -0.908,0.967 -1.912,-0.109 -1.8,-1.632 0,0 -0.608,-1.56 -0.052,-1.763 -0.441,-0.718 -0.6,-0.438 -0.677,-0.196 -1.55,0.168 -1.03,0.766 -0.235,0.682 -0.711,0.765 -1.998,-1.392 -0.957,-0.355 -3.073,-1.869 -5.86,-2.256 -0.161,-0.44 0.192,-1.162 0.863,-2.086 0.345,-2.444 -1.072,0.204 -4.096,-0.183 -2.145,0.409 -3.699,-0.227 -3.816,0.094 0.065,-3.203 0.428,-2.002 0.061,-4.003 0.828,-1.643 0.076,-0.641 -1.092,-4.235 0.115,-1.001 1.609,-4.286 1.573,-3.323 1.33,-4.321 3.269,-5.287 0.549,-1.24 0.431,-1.24 0.147,-2.197 0.549,-1.44 0.343,-2.876 -2.62,-0.59 -0.874,-0.436 -1.545,0.405 -1.278,-1.992 -1.385,0.643 -2.331,1.804 -0.635,-0.118 -0.878,-1.034 -3.528,-0.03 -0.558,-0.638 -0.407,-2.593 0.187,-2.915 -0.162,-0.957 -1.556,-2.71 -0.042,-0.838 0.427,-1.916 -0.921,-2.91 -0.532,-4.427 0.116,-1.156 0.433,-0.56 0.514,-0.16 1.071,0.356 0.712,-0.082 0.434,-0.44 0.233,-1.197 -0.758,-1.314 -2.458,-0.751 0.116,-1.036 0.905,-1.478 -0.202,-1.354 -0.559,-1.234 0.072,-1.914 -2.099,-0.473 -2.656,-0.991 -1.387,-1.072 -2.733,-0.671 -1.111,-1.034 -0.758,-2.111 -1.269,-1.193 -0.043,-1.194 0.508,-1.555 2.516,-5.38 0.301,-5.256 0.234,-0.916 1.493,-3.027 0.155,-1.274 -0.84,-3.182 -1.307,-0.832 -0.83,-0.198 -1.935,0.043 -2.133,0.481 -1.186,-0.077 -2.215,-1.35 -0.437,-0.716 -0.4,-2.425 -1.148,-1.152 -1.443,-0.625 -1.245,0.071 -1.106,-0.317 -1.263,0.478 -0.946,1.075 -1.018,4.536 -0.512,1.114 -0.591,0.518 -3.16,0.439 -1.343,0.996 -2.646,0.478 -0.75,0.518 -0.829,1.114 -0.909,0.279 -0.87,-0.039 -0.79,-0.358 -0.516,-0.637 0.668,-3.621 2.84,-3.621 0.157,-1.631 -0.32,-2.188 0.036,-2.584 2.012,-1.75 1.616,-1.83 0.473,-0.716 0.077,-0.914 -0.237,-0.597 -1.658,-0.158 -0.317,-0.238 -1.504,-2.743 -1.029,-2.582 0.154,-2.663 -0.396,-1.827 -0.475,-0.636 -1.815,-1.311 -0.791,-1.668 -0.002,-2.184 0.275,-0.398 1.577,-0.674 6.146,-4.091 3.308,-2.741 1.141,-1.232 1.614,-0.913 1.062,-1.707 3.779,-2.187 1.217,-1.747 2.833,-2.264 0.627,-0.992 -0.082,-1.548 -0.791,-1.307 -2.051,-1.347 -0.395,-0.515 -0.238,-1.07 0.233,-1.547 -0.197,-2.491 0,0 0.567,0.301 2.6,-0.053 3.464,0.418 2.559,-1.106 2.392,-1.686 0.577,0.925 z" 
                fill="rgb(151, 144, 238)" 
                stroke="white" 
                stroke-width=".7px"
                title="Mashonaland Central" 
                id="ZW-MC" 
            />
        </svg>