<svg xmlns="http://www.w3.org/2000/svg" viewBox="376.8609999999998 308.3239999999999 224.6889999999999 291.6760000000002" width="224.6889999999999" height="291.6760000000002">
            <path 
                d="m 471.047,319.381 0.356,-0.69 0.878,-0.651 2.123,-0.82 0.159,-0.244 -1.152,-3.995 0.078,-0.445 0.804,0.157 0.479,-0.245 -0.058,-2.586 0.512,-1.538 4.543,1.346 2.408,0.147 -0.228,7.195 0.126,0.646 0.566,0.562 8.099,-1.227 2.971,-0.061 4.009,-0.555 2.769,-0.022 0,0 3.267,1.713 3.313,2.4 2.3,1.234 1.339,1.444 3.026,1.591 0.607,0.48 1.589,2.17 0.727,0.519 0.846,0.276 3.614,-0.034 3.787,1.098 1.011,0.598 0.98,1.486 2.104,1.396 1.878,2.732 0.564,0.197 1.643,-0.502 3.023,0.9 1.85,0.142 0.648,0.439 0.743,1.691 0.552,2.544 0.287,0.443 1.452,0.47 2.114,1.96 0.993,2.378 0.732,0.639 2.101,0.868 3.284,2.189 1.17,3.47 0.614,0.844 3.223,3.486 1.906,1.112 2.276,4.713 3.419,2.836 1.002,2.622 2.251,2.608 1.46,0.751 3.504,-0.005 3.18,2.797 1.946,0.826 5.799,-0.12 2.702,2.882 0.894,0.555 4.107,2.374 1.377,0.548 2.346,0.494 0.53,0.439 0.418,0.926 0.234,1.944 -0.142,8.771 -1.317,5.869 -0.682,7.812 -0.812,2.166 -0.739,4.321 -0.295,4.235 -0.342,1.347 -0.598,5.543 0.157,7.164 -0.944,1.684 -0.65,2.332 -0.446,2.491 -0.189,3.304 -0.354,0.616 -1.244,0.671 -0.873,1.072 -0.269,0.942 -0.043,2.406 -0.705,1.479 -0.281,2.655 -3.682,7.969 -2.013,3.457 -0.311,0.903 -0.057,1.43 1.149,3.454 0.116,2.285 1.28,1.329 1.182,0.432 0.417,0.688 -0.408,2.375 0.303,1.14 0.944,0.68 3.384,1.012 1.689,1.527 1.712,5.206 0.204,2.532 1.081,1.496 0.943,2.848 1.967,1.032 1.675,0.546 4.623,4.138 0.899,1.443 0,0 -0.926,0.418 -0.952,0.852 -20.106,21.981 -24.664,27.577 -5.754,5.947 -15.489,17.362 -6.921,7.22 -2.065,2.734 -1.884,1.622 -8.37,9.201 -6.214,4.366 -1.69,-1.434 -1.556,-3.313 -1.596,-0.421 -2.388,0.624 -0.655,-0.101 -1.018,-0.706 -1.132,-1.972 -1.115,-0.671 -1.53,-0.248 -5.501,1.839 -1.907,-0.654 0,0 1.52,0.242 2.295,-0.753 -1.07,-1.367 -0.55,-1.85 -1.197,-0.898 -2.098,-1.053 -2.434,-1.877 -0.624,-0.984 1.177,-1.082 0.157,-0.702 -0.249,-0.41 -1.888,-0.479 -0.304,-1.976 -0.375,-0.614 -1.514,-0.072 -0.412,-0.244 -0.002,-0.246 1.014,-1.08 -0.251,-0.492 -2.131,-0.478 -0.536,-0.367 -0.546,-1.603 -0.306,-2.181 -1.11,-0.608 0.353,-1.774 -0.296,-1.028 -1.144,-0.032 -2.038,0.88 -0.575,-0.202 -0.968,-3.41 -1.317,-0.896 -0.258,-1.564 -1.812,-1.757 -2.465,-1.507 0.231,-1.934 -1.966,-0.523 -1.602,-1.017 -0.212,-1.068 1.054,-1.16 -0.047,-0.698 -2.753,-2.205 -0.789,-1.722 -1.103,-0.28 -0.213,-1.109 -0.786,-1.435 -2.787,-1.504 -0.496,-0.778 -0.011,-1.768 -0.293,-1.027 -0.863,-0.816 -1.104,-0.282 -0.206,-0.287 0.157,-0.904 1.175,-1.362 -0.084,-0.37 -0.492,-0.368 -0.653,0.045 -1.665,1.118 -1.102,0.13 -2.747,-2.246 -0.818,-0.241 -0.488,0.249 -0.606,0.865 -0.409,0.002 -1.356,-1.678 -2.046,-1.017 0.595,-3.042 -0.166,-0.492 -0.45,-0.326 -3.308,-0.643 -0.776,-0.325 -0.739,-0.819 -1.964,-1.141 -2.861,-1.344 -1.51,-0.199 -1.224,-0.652 -1.1,0.291 -1.184,-0.078 -6.485,-0.8 -0.94,-0.614 0.641,-2.751 -0.493,-0.902 -2.527,-0.156 -2.084,-1.514 -1.065,-1.31 -1.552,-1.268 -2.485,0.088 -0.733,0.248 -0.857,-0.204 -0.697,-1.599 -2.041,-1.349 -2.042,-1.925 -2.168,-3.647 -2.164,-2.62 -3.83,-1.636 -0.612,-0.777 -0.828,-3.266 -1.256,-0.913 -0.163,-0.368 -0.127,-2.336 -0.368,-1.023 -1.465,-0.656 -0.897,-1.064 -0.087,-3.152 -0.326,-0.492 -2.847,-0.859 -0.286,-0.532 -0.289,-2.865 -0.489,-0.983 -0.569,-0.655 -2.156,-1.391 -1.383,-1.555 -0.854,-0.369 -0.936,-1.023 -1.79,-3.929 -0.285,-1.185 0,0 1.666,0.941 2.518,0.082 1.26,-0.286 0.933,-0.572 2.555,-2.863 6.325,-5.399 1.906,-1.227 2.069,-0.534 1.542,0.039 0.813,0.531 0.896,1.061 0.609,0.122 0.814,0.654 0.448,0.694 3.048,1.385 1.956,2.777 1.058,0.775 1.504,0.488 2.114,0.241 1.262,1.347 0.976,0.324 0.975,-0.001 1.099,0.488 1.744,-0.291 2.115,0.527 2.677,-0.95 0.771,-0.042 3.373,0.358 2.034,0.933 1.26,0.036 2.065,-1.274 1.739,-1.478 3.832,-5.043 -0.033,-6.498 0.674,-3.148 -0.012,-2.328 1.954,-6.336 0.391,-2.858 0.4,-0.818 1.861,-0.824 0.156,-1.021 -0.57,-0.61 -2.193,-0.724 -0.895,-0.895 -1.066,-2.361 -0.66,-2.404 -0.259,-3.302 0.312,-2.488 -0.449,-0.854 -2.157,-2.438 -1.35,-3.01 -2.358,-2.599 -1.832,-2.52 -1.293,0.248 -0.567,-0.161 -0.692,-1.219 -0.7,-2.727 -0.447,-0.569 -4.94,-1.859 -0.567,-0.366 -0.448,-0.812 0.076,-1.425 1.683,-4.074 1.044,-1.793 0.438,-1.547 -1.582,-1.787 -2.022,-0.849 -2.633,-2.068 -1.333,0.043 -2.699,2.284 0.117,-1.424 0.601,-1.425 0.029,-3.7 1.324,-2.808 0.195,-2.236 -0.409,-1.381 -0.809,-0.933 -1.78,-1.378 -0.082,-0.57 0.765,-0.326 2.665,0.319 2.017,-0.166 2.821,-0.941 2.819,-1.428 4.518,-0.297 1.574,0.321 6.573,-0.388 0.403,-0.204 0.562,-0.611 -1.257,-1.418 0.193,-1.95 0.24,-0.407 2.172,-1.184 0.44,-0.734 0.156,-0.932 0,-0.408 -0.69,-0.808 -0.49,-1.257 0.631,-3.047 1.489,-0.451 3.425,-0.176 0.969,0.443 3.554,0.509 4.194,1.161 3.95,0.186 1.69,-0.414 0.072,-1.34 -0.817,-1.984 -0.007,-1.096 1.687,-7.552 0.069,-1.784 0.66,-4.058 -0.137,-2.795 -0.819,-2.183 -0.126,-0.972 0.074,-1.013 1.229,-3.125 0.663,-3.486 0.069,-1.742 -0.34,-3.277 0.118,-0.285 1.004,-0.288 2.249,-0.335 0.718,-0.692 0.156,-0.81 -0.811,-1.209 -0.685,-0.321 -3.821,-0.386 -0.725,-0.36 2.877,-2.766 4.481,-2.814 1.399,-1.1 2.433,-2.6 z" 
                fill="rgb(151, 144, 238)" 
                stroke="white" 
                stroke-width=".7px"
                title="Masvingo" 
                id="ZW-MV" 
            />
        </svg>