<svg xmlns="http://www.w3.org/2000/svg" viewBox="122.16800000000006 337.89 369.76399999999984 256.34600000000034" width="369.76399999999984" height="256.34600000000034">
            <path 
                d="m 334.001,337.926 0.925,-0.036 0.682,0.367 1.245,1.382 1.12,2.312 1.399,4.057 1.805,2.924 3.175,2.644 0.522,0.691 1.402,3.735 3.54,2.604 0.804,0.976 0.321,1.015 -0.002,1.136 -1.091,2.675 -0.126,2.678 0.24,0.852 -0.487,3.206 0.319,1.503 0.644,0.692 1.129,0.206 2.342,-2.755 0.968,-0.242 1.29,0.166 5.883,3.219 2.338,3.537 0.725,0.65 0.646,0.123 1.088,-0.283 2.904,-1.783 2.218,-0.566 1.292,5.89 1.331,0.123 4.437,-1.702 2.178,-0.487 0.928,0.488 -0.24,3.209 0.486,1.22 4.801,0.122 0.808,0.446 0.243,0.568 0.244,1.179 -0.159,2.438 -3.989,6.79 -2.863,6.343 0.083,2.443 -0.524,1.179 -0.765,3.621 -1.453,3.216 -1.211,3.786 -0.726,3.055 -0.444,4.358 -1.011,1.916 -0.565,2.118 -0.89,1.59 -0.567,0.447 -1.821,0.773 -1.337,1.222 -0.567,0.122 -2.956,1.913 0.973,1.55 -0.406,0.612 -2.43,0.649 -0.324,0.53 -0.082,2.202 0.972,2.123 1.053,0.858 0.891,0.206 1.58,-0.203 2.674,-1.057 0.892,-0.163 0.284,0.245 -0.526,2.57 -2.391,7.836 -1.216,9.024 -0.609,2.248 -1.461,1.469 -4.183,3.019 -2.477,1.468 -0.975,1.224 -3.291,2.202 -1.179,1.389 0.04,0.49 0.527,0.492 4.428,1.031 5.808,0.214 4.103,-1.182 5.524,-0.241 1.95,0.165 0,0 0.285,1.185 1.79,3.929 0.936,1.023 0.854,0.369 1.383,1.555 2.156,1.391 0.569,0.655 0.489,0.983 0.289,2.865 0.286,0.532 2.847,0.859 0.326,0.492 0.087,3.152 0.897,1.064 1.465,0.656 0.368,1.023 0.127,2.336 0.163,0.368 1.256,0.913 0.828,3.266 0.612,0.777 3.83,1.636 2.164,2.62 2.168,3.647 2.042,1.925 2.041,1.349 0.697,1.599 0.857,0.204 0.733,-0.248 2.485,-0.088 1.552,1.268 1.065,1.31 2.084,1.514 2.527,0.156 0.493,0.902 -0.641,2.751 0.94,0.614 6.485,0.8 1.184,0.078 1.1,-0.291 1.224,0.652 1.51,0.199 2.861,1.344 1.964,1.141 0.739,0.819 0.776,0.325 3.308,0.643 0.45,0.326 0.166,0.492 -0.595,3.042 2.046,1.017 1.356,1.678 0.409,-0.002 0.606,-0.865 0.488,-0.249 0.818,0.241 2.747,2.246 1.102,-0.13 1.665,-1.118 0.653,-0.045 0.492,0.368 0.084,0.37 -1.175,1.362 -0.157,0.904 0.206,0.287 1.104,0.282 0.863,0.816 0.293,1.027 0.011,1.768 0.496,0.778 2.787,1.504 0.786,1.435 0.213,1.109 1.103,0.28 0.789,1.722 2.753,2.205 0.047,0.698 -1.054,1.16 0.212,1.068 1.602,1.017 1.966,0.523 -0.231,1.934 2.465,1.507 1.812,1.757 0.258,1.564 1.317,0.896 0.968,3.41 0.575,0.202 2.038,-0.88 1.144,0.032 0.296,1.028 -0.353,1.774 1.11,0.608 0.306,2.181 0.546,1.603 0.536,0.367 2.131,0.478 0.251,0.492 -1.014,1.08 0.002,0.246 0.412,0.244 1.514,0.072 0.375,0.614 0.304,1.976 1.888,0.479 0.249,0.41 -0.157,0.702 -1.177,1.082 0.624,0.984 2.434,1.877 2.098,1.053 1.197,0.898 0.55,1.85 1.07,1.367 -2.295,0.753 -1.52,-0.242 0,0 -5.664,-2.292 -0.363,0.099 -0.441,0.817 -0.99,0.038 -0.47,-0.358 -0.332,-0.73 -1.858,0.021 -1.374,-1.252 -2.505,-0.439 -1.49,0.755 -1.047,-0.549 -2.888,-0.602 -3.3,0.81 -5.365,0.757 -1.944,0.696 -3.799,-0.554 -0.892,0.461 -1.133,1.457 -0.618,0.361 -0.672,-0.056 -1.378,-1.137 -1.042,-0.297 -1.157,-0.073 -1.162,0.243 -1.192,0.902 -3.036,-0.79 -0.896,-0.024 -1.378,-0.561 -1.143,0.249 -2.935,1.479 -3.475,0.819 -1.417,0.56 -1.772,-0.243 -2.092,0.219 -1.653,-0.263 -1.205,0.604 -0.981,0.166 -1.384,-0.843 -1.347,-2.356 -1.426,-1.107 -0.357,-0.775 -0.434,-0.353 -3.174,0.017 -3.003,0.339 -2.038,1.008 -0.573,0.002 -2.083,-2.191 -2.137,-1.112 -1.482,-1.548 -0.637,-0.196 -1.588,0.094 -0.49,-0.212 -0.477,-0.727 -0.196,-1.494 -1.49,-0.012 -1.499,-0.474 -1.005,0.058 -0.782,-1.008 -2.916,-2.071 -3.448,0.416 -2.06,-1.74 -2.416,-0.021 -2.163,-0.851 -0.603,-0.716 -2.046,-1.448 -4.775,0.181 -1.367,-0.569 -2.31,0.154 -0.823,-1.009 -0.51,-0.223 -2.387,0.945 -0.977,1.48 -0.527,0.323 -0.699,-0.115 -1.137,-0.99 -0.677,-0.224 -1.48,0.802 -1.95,0.255 -0.425,0.512 0.052,1.076 -0.573,0.689 -1.434,-0.101 -2.862,-0.968 -1.048,0.002 -3.721,0.721 -2.856,1.616 -1.444,0.511 -0.631,-0.106 -0.703,-1.404 -1.538,-1.901 -3.931,-3.434 -1.883,-4.221 -1.348,-1.256 -2.089,0.867 -3.121,0.837 -2.447,-0.34 -0.871,0.12 -3.347,-1.337 -1.925,-1.234 -2.408,-2.34 -1.522,-2.272 -0.552,-1.522 -0.677,-4.307 0.433,-3.469 1.032,-2.811 2.237,-3.146 0.886,-0.652 -1.233,-1.521 -0.914,-0.46 -2.84,-0.846 -1.443,-1.146 -1.286,-0.326 -1.756,0.412 -1.752,-0.041 -2.98,-0.966 -3.069,-0.612 -2.657,-1.782 -3.7,-0.285 -2.051,-1.79 -6.358,-2.627 -1.451,-0.347 -0.463,-0.316 -1.293,-1.976 -0.46,-0.234 -1.503,-0.017 -1.113,-0.512 -1.376,-0.155 -1.144,-1.098 -0.686,-0.247 -1.128,0.095 -0.668,1.089 -0.428,0.156 -0.684,-0.207 -1.545,1.361 -2.488,0.827 -0.622,-0.124 -2.082,-1.373 -0.682,-0.1 -0.578,-0.66 -3.829,-0.72 -3.204,-2.504 -0.97,0.602 -2.249,-0.964 -4.292,-0.479 -1.027,0.049 -0.506,0.28 -2.753,0.117 -1.073,0.606 -1.047,0.11 -1.975,-0.79 -2.541,-0.405 -3.008,-0.989 -2.691,0.132 -0.898,-0.531 -1.441,-0.175 -1.661,0.154 -0.519,-0.191 -0.676,-0.556 -1.916,-3.561 0.069,-0.454 0.464,-0.301 -0.323,-0.484 -1.075,0.463 -0.558,-0.066 -0.816,-0.935 0.296,-0.733 1.239,-1.367 -0.697,-0.722 -0.966,-0.016 -0.376,-0.236 -0.107,-0.944 0.995,-0.456 0.312,-0.666 -0.587,-1.218 -1.159,-1.14 0.527,-0.966 -0.194,-0.48 -0.782,-0.822 -1.166,-2.228 -1.517,-1.502 0.13,-2.179 -0.432,-1.632 -0.762,-0.791 -0.263,-0.764 -2.951,-2.857 -1.033,-2.405 -3.232,-3.887 -0.148,-1.616 -1.817,-0.4 -1.708,-1.691 -1.839,-0.57 -0.411,-0.852 -1.086,-0.813 -0.668,-1.337 -1.461,-1.051 -0.9,-2.459 -0.726,-1.212 0.127,-0.658 1.064,-0.907 0.189,-0.701 -1.005,-2.556 1.323,-1.22 -0.432,-0.933 0.939,-1.783 -0.428,-0.788 -1.233,-0.994 -0.259,-0.527 0.141,-0.986 0.965,-1.579 -1.051,-2.943 0.659,-1.328 1.291,-1.407 0.722,-4.154 0.799,-0.677 -0.352,-1.23 0.584,-2.053 -0.679,-2.723 0.459,-1.259 -0.563,-1.275 -0.63,-0.72 -0.936,-2.308 0.105,-3.271 -0.197,-2.203 0.315,-0.518 0.585,-0.301 0.549,-0.973 -0.257,-0.463 0.878,-2.939 -0.088,-0.958 -0.567,-1.325 -1.603,-1.718 -1.596,-0.854 -2.299,1.064 -0.901,-0.077 -1.82,-1.583 -0.882,-0.119 -0.993,0.252 -1.509,0.857 -0.979,0.048 -8.038,-1.949 -2.17,0.548 -0.823,0.532 -0.856,0.063 -3.578,-0.131 -1.211,-0.275 -0.712,-0.635 -0.493,-0.09 -2.556,1.415 -2.69,1.007 -0.885,-0.263 -0.105,-0.896 0.298,-2.722 0.771,-3.368 0.115,-10.59 -0.508,-1.537 -0.881,-5.035 -1.62,-1.35 -0.153,-1.423 -1.068,-2.3 -0.397,-2.314 -0.824,-0.411 -0.269,-1.134 -0.563,-0.579 -0.644,-1.595 -1.126,-1.198 -0.881,-0.308 -1.177,0.249 -3.958,0.173 -1.7,-0.407 -0.674,-0.9 -1.255,-2.963 -2.526,-1.558 -2.306,-0.118 -0.969,0.386 -1.964,-0.469 -2.158,-0.019 -1.297,-0.707 -1.428,-0.196 -2.141,-1.159 -1.706,0.174 -1.295,-0.667 -1.282,0.026 -0.641,-0.497 -0.667,0.215 -0.537,-0.355 -2.344,-0.181 -0.518,-0.478 0.391,-0.903 -0.674,-1.208 -0.496,-0.397 -1.346,-0.087 -1.64,-0.712 -3.373,0.386 -1.083,-2.051 -0.668,-2.185 0,0 3.1,-1.046 2.013,-2.236 1.098,-0.548 2.512,-0.765 1.169,-0.1 1.263,-0.79 1.941,-0.452 3.245,-1.321 2.3,-0.203 0.568,-0.275 1.892,0.114 2.424,-0.445 2.606,0.856 1.862,-0.578 2.058,-0.29 2.495,0.204 1.214,-0.345 1.37,-0.06 1.42,-0.666 1.413,-0.18 5.824,1.268 4.023,0.468 0.645,-0.07 2.802,-1.581 1.413,-0.222 3.9,0.544 2.098,-0.172 2.558,1.619 2.629,2.229 1.041,0.543 2.452,0.521 2.297,-0.009 0.272,0.775 1.161,0.747 -0.086,0.445 0.396,0.533 1.078,0.827 0.907,1.636 0.756,4.03 0.474,0.82 3.231,2.926 0.553,1.064 1.403,0.629 2.066,2.789 3.486,2.117 3.029,3.331 2.029,2.668 2.772,1.255 1.035,1.478 0.923,0.499 3.785,1.061 1.092,-0.027 0.541,-1.621 1.727,-2.949 1.807,-6.646 0.96,0.742 2.226,3.441 1.161,0.989 1.621,-0.593 1.584,-0.958 2.623,0.109 1.618,-0.307 1.655,0.057 2.147,-0.749 1.448,0.543 1.443,1.072 2.051,1.077 0.601,0.454 0.758,1.146 0.504,2.283 1.075,1.921 1.766,1.279 0.837,1.31 4.285,4.72 0.766,0.211 0.608,-0.158 1.389,3.107 0.232,1.427 1.158,1.924 1.722,-3.119 0.938,-1.091 0.365,-0.16 2.828,0.391 0.973,-0.561 1.598,-2.917 1.225,-1.618 2.668,-0.263 0,0 3.447,2.095 1.017,-3.375 2.213,0.408 2.158,-0.051 0.725,0.928 0,0 4.648,5.709 4.514,-3.106 -0.74,-1.057 2.31,-2.871 0.81,-0.457 2.446,-6.366 6.658,-5.957 -3.685,-2.718 6.655,-0.488 7.828,-8.481 -2.964,-10.857 7.521,2.765 2.288,-2.096 1.995,-1.348 -0.69,-0.769 -0.08,-0.406 0.811,-1.418 0.654,-2.634 0.056,-4.704 -0.159,-0.529 -1.448,-0.655 -1.123,-1.221 -1.005,-0.696 -0.401,-0.487 0.003,-0.568 1.817,-1.451 1.936,-1.085 0.808,-0.849 1.175,-2.224 0.409,-2.227 -0.038,-0.689 -0.921,-1.341 -2.246,-2.036 -0.116,-1.418 0.485,-0.524 1.771,-0.478 4.101,0.867 1.725,1.384 1.167,0.167 0.643,-0.16 0.687,-0.685 z" 
                fill="rgb(151, 144, 238)" 
                stroke="white" 
                stroke-width=".7px"
                title="Matabeleland South" 
                id="ZW-MS" 
            />
        </svg>