<svg xmlns="http://www.w3.org/2000/svg" viewBox="0 110.062 334.0010000000001 304.07099999999986" width="334.0010000000001" height="304.07099999999986">
            <path 
                d="m 232.597,110.062 0.845,0.774 0.308,0.841 -0.063,2.714 0.382,1.56 -0.729,1.829 -0.251,1.395 0.579,1.763 1.454,1.571 0.459,2.199 0.596,0.843 -0.841,0.116 0.038,0.561 0.357,0.521 -0.241,0.399 0.238,0.521 -0.361,0.199 -0.886,1.397 -0.64,-0.002 -0.082,0.52 0.279,0.24 0.8,-0.077 2.445,-1.112 0.479,0.122 0.317,0.722 -0.162,0.479 0.557,0.642 0.648,1.496 2.501,-0.136 0.751,0.406 0.088,3.559 1.023,1.168 0.429,0.963 -0.414,1.795 0.859,1.888 -0.129,1.158 0.863,1.247 0.058,2.641 0.234,0.442 1.384,0.813 0.937,2.008 2.219,0.661 0.51,0.885 0.591,0.444 0.661,1.887 0.945,1.169 0,0 -0.641,0.634 -0.256,2.119 -0.933,2.393 -0.659,2.876 -1.493,2.83 -0.088,1.04 0.339,2.205 -0.096,2.003 -1.215,2.752 -0.319,4.886 -1.093,2.113 -2.175,3.066 -0.92,0.512 -2.667,0.014 -0.882,0.633 -2.419,3.424 -0.25,1.241 1.399,3.904 -0.251,1.361 -1.579,2.753 0.129,3.372 -0.243,0.439 -1.122,0.71 -0.41,1.24 -2.771,2.22 -1.057,2.116 -0.002,0.281 1.066,1.055 1.125,3.505 2.516,-0.375 0.476,0.246 0.274,0.604 0.324,3.82 -0.457,2.085 -0.932,1.476 0.229,1.168 1.347,1.019 2.553,0.146 0.516,0.246 0.194,0.765 -0.126,0.643 -0.882,0.513 -1.118,0.069 -2.11,-0.584 -1.039,-0.011 -1.362,0.549 -2.177,2.308 -0.249,1.043 -0.032,7.519 0.594,13.244 -0.335,5.835 2.793,0.715 2.359,0.024 2.328,-0.822 1.681,-0.185 1.992,0.785 1.16,0.052 1.277,0.415 2.24,-0.059 0.794,0.734 0.799,0.006 0.763,-0.315 1.153,0.737 0.64,0.126 3.802,-0.287 3.436,0.554 2.52,-0.018 3.606,-0.775 7.156,0.542 3.566,-0.898 2.561,-0.182 4.877,0.519 6.005,-0.843 0.721,0.004 3.712,1.193 4.599,0.553 3.599,-0.059 5.319,0.514 5.481,-0.211 2.2,0.333 4.48,-0.098 3.682,-0.385 1.6,0.007 0.279,0.202 0.478,0.848 0.907,3.671 -0.202,0.765 -0.963,0.761 -7.494,2.866 -1.442,0.114 -6.214,2.386 -5.051,1.262 -0.643,0.4 -0.325,1.045 0.992,2.022 0.54,4.561 0.989,2.588 0.271,1.857 2.291,7.924 0.546,3.355 0.632,2.103 0.52,0.487 0.561,0.125 2.045,0.011 -0.127,1.614 0.681,0.125 0.515,1.821 0.879,0.651 0.239,0.687 -0.422,5.13 -0.015,3.679 0.476,1.66 1.762,1.018 3.841,4.064 1.399,1.907 1.922,1.91 0.96,1.299 0.478,1.176 -1.21,1.452 -1.657,2.622 1.041,1.017 3.212,1.39 1.762,2.274 1.805,1.345 0.84,1.865 1.285,0.491 1.364,1.382 0,0 -1.053,2.71 -0.687,0.685 -0.643,0.16 -1.167,-0.167 -1.725,-1.384 -4.101,-0.867 -1.771,0.478 -0.485,0.524 0.116,1.418 2.246,2.036 0.921,1.341 0.038,0.689 -0.409,2.227 -1.175,2.224 -0.808,0.849 -1.936,1.085 -1.817,1.451 -0.003,0.568 0.401,0.487 1.005,0.696 1.123,1.221 1.448,0.655 0.159,0.529 -0.056,4.704 -0.654,2.634 -0.811,1.418 0.08,0.406 0.69,0.769 -1.995,1.348 -2.288,2.096 -7.521,-2.765 2.964,10.857 -7.828,8.481 -6.655,0.488 3.685,2.718 -6.658,5.957 -2.446,6.366 -0.81,0.457 -2.31,2.871 0.74,1.057 -4.514,3.106 -4.648,-5.709 0,0 3.863,-0.92 2.146,-0.758 0.976,-1.051 0.492,-1.095 -0.158,-0.774 -2.294,-1.521 -0.44,-0.614 1.274,-3.773 -0.2,-0.286 -1.533,-0.295 -0.28,-0.327 0.008,-1.464 -0.238,-0.612 -0.606,-0.004 -0.934,1.009 -0.85,0.28 -1.37,-0.458 -1.124,-1.066 -1.452,-0.133 -0.44,-0.653 0.205,-0.527 -0.074,-1.098 0.533,-1.175 -0.32,-0.45 -2.75,0.873 -1.453,0.03 -0.406,0.16 -1.057,1.211 -0.528,0.32 -0.524,-0.004 -3.259,-1.49 -2.531,-1.648 -0.968,-0.008 -0.406,0.282 -0.048,0.893 0.273,1.466 0.911,2.324 -0.128,0.935 -0.821,1.741 -0.004,0.569 0.6,0.859 -0.166,0.568 -0.447,0.363 -1.906,0.918 -0.329,0.811 0.077,0.488 1.005,0.578 2.952,-0.299 1.166,0.66 0.484,0.005 3.08,-1.237 0.28,0.328 -0.09,1.301 0.2,0.368 1.087,0.579 0.4,0.491 -1.229,2.35 -0.209,0.975 0,0 -2.668,0.263 -1.225,1.618 -1.598,2.917 -0.973,0.561 -2.828,-0.391 -0.365,0.16 -0.938,1.091 -1.722,3.119 -1.158,-1.924 -0.232,-1.427 -1.389,-3.107 -0.608,0.158 -0.766,-0.211 -4.285,-4.72 -0.837,-1.31 -1.766,-1.279 -1.075,-1.921 -0.504,-2.283 -0.758,-1.146 -0.601,-0.454 -2.051,-1.077 -1.443,-1.072 -1.448,-0.543 -2.147,0.749 -1.655,-0.057 -1.618,0.307 -2.623,-0.109 -1.584,0.958 -1.621,0.593 -1.161,-0.989 -2.226,-3.441 -0.96,-0.742 -1.807,6.646 -1.727,2.949 -0.541,1.621 -1.092,0.027 -3.785,-1.061 -0.923,-0.499 -1.035,-1.478 -2.772,-1.255 -2.029,-2.668 -3.029,-3.331 -3.486,-2.117 -2.066,-2.789 -1.403,-0.629 -0.553,-1.064 -3.231,-2.926 -0.474,-0.82 -0.756,-4.03 -0.907,-1.636 -1.078,-0.827 -0.396,-0.533 0.086,-0.445 -1.161,-0.747 -0.272,-0.775 -2.297,0.009 -2.452,-0.521 -1.041,-0.543 -2.629,-2.229 -2.558,-1.619 -2.098,0.172 -3.9,-0.544 -1.413,0.222 -2.802,1.581 -0.645,0.07 -4.023,-0.468 -5.824,-1.268 -1.413,0.18 -1.42,0.666 -1.37,0.06 -1.214,0.345 -2.495,-0.204 -2.058,0.29 -1.862,0.578 -2.606,-0.856 -2.424,0.445 -1.892,-0.114 -0.568,0.275 -2.3,0.203 -3.245,1.321 -1.941,0.452 -1.263,0.79 -1.169,0.1 -2.512,0.765 -1.098,0.548 -2.013,2.236 -3.1,1.046 0,0 -1.1,-0.502 -3.292,-0.722 -1.859,0.549 -0.449,-0.073 -2.717,-4.502 -0.726,-2.485 -0.544,-0.7 -1.548,-1.064 -1.16,-0.055 -0.69,-0.84 -1.843,-0.59 -1.179,-0.95 -4.402,-0.518 -0.72,-0.412 -1.182,-1.093 -0.526,-0.841 -0.377,-1.517 -1.796,-3.253 -3.141,0.349 -2.269,-1.619 0.348,-0.88 1.879,-2.455 -0.05,-0.487 -3.539,-3.216 -0.713,-0.087 -4.247,0.855 -1.29,-0.543 -1.96,-1.545 -1.773,-0.331 -1.53,-1.411 -1.727,-4.227 -0.683,-4.876 -0.273,-0.5 -1.567,-1.109 -0.11,-2.712 -0.881,-2.619 -1.133,-1.965 -1.058,-3.344 -0.734,-1.387 0.173,-1.539 -0.988,-0.62 -0.586,-1.154 -1.139,-1.255 0.439,-1.466 -1.406,-2.586 -2.161,-2.896 -2.059,-1.845 -1.141,-2.589 -0.368,-1.309 0.132,-1.642 0.606,-1.164 2.071,-1.837 0.168,-0.772 -0.536,-2.807 -1.665,-3.483 -0.367,-1.307 -1.855,-3.018 -1.869,-0.472 -2.068,-1.439 -2.301,-2.102 -3.911,-1.849 0.089,-2.381 -1.673,-2.522 -0.895,-2.711 0.26,-1.297 -0.466,-1.223 -0.08,-1.129 0.356,-1.601 0.534,-0.635 -0.518,-0.778 -0.532,-1.605 0.107,-1.979 -0.191,-0.522 -2.395,-1.956 -0.517,-0.698 -1.622,-0.457 -1.616,-0.115 -1.253,-1.25 -1.773,-2.31 -2.565,-5.059 -0.591,-0.394 -2.269,-0.629 -4.082,-5.618 -3.198,-3.355 -2.701,-7.853 -1.965,-3.332 -0.434,-2.026 -1.132,-1.592 -2.291,-5.077 -2.039,-3.107 -0.59,-0.434 -1.411,-0.181 -0.448,-0.335 L 10.43,216.156 9.982,215.761 7.13,214.675 6.712,213.576 4.606,210.44 3.781,208.841 2.59,204.055 0.712,201.91 0.013,200.654 0.333,199.083 0,198.224 0.045,197.1 l 1.534,-3.916 0.604,-2.858 0.944,0.108 1.669,1.643 0.79,0.471 0.643,-0.008 2.536,1.497 1.46,-0.306 0.64,0.148 1.141,1.24 0.643,0.093 1.943,-0.542 1.464,-0.135 0.467,0.497 0.664,0.033 0.737,-0.53 0.582,-0.026 1.79,0.302 2.972,1.754 1.182,-0.253 0.517,-0.407 0.709,-1.233 0.677,-0.509 1.044,-0.012 0.748,0.413 1.002,-0.112 0.831,0.593 1.136,-0.675 1.628,0.081 1.3,-0.416 1.156,-0.717 1.179,-1.342 1.141,-0.279 1.325,0.039 0.289,0.477 0.187,1.623 1.041,-0.157 2.551,1.204 1.549,0.175 2.425,2.109 0.259,0.743 0.76,0.293 1.554,-0.041 1.21,0.446 0.565,1.76 0.944,1.414 -0.835,0.714 -0.215,0.484 0.167,0.48 1.11,0.288 -0.208,1.006 0.577,1.078 0.784,-0.011 0.511,0.697 0.602,-0.088 1.696,0.54 0.494,0.898 1.965,-0.328 1.172,0.446 0.641,-0.19 1.093,0.588 1.299,-0.58 0.168,-0.907 0.259,-0.225 1.617,-0.725 1.834,0.396 0.78,-0.697 1.156,0.542 1.182,-0.162 1.497,0.495 0.471,-1.717 0.705,-0.957 -0.901,-0.928 0.268,-0.728 0.515,-0.391 2.021,-0.459 1.43,-0.87 1.898,-0.166 1.858,-0.798 1.491,-1.026 1.501,-0.384 -0.163,1.207 0.87,0.388 0.8,1.033 0.709,0.37 0.578,-0.249 2.531,-0.04 0.405,0.215 1.006,1.35 0.423,0.054 0.879,-0.336 0.949,0.266 1.318,-0.442 2.567,0.903 2.226,-0.277 0.728,0.289 0.819,0.911 1.229,0.221 1.487,1.14 1.757,0.149 0.598,0.691 1.308,0.114 1.121,0.72 3.985,0.238 0.592,0.429 0.273,0.538 0.394,1.519 0.513,0.451 1.133,0.384 0.461,2.138 1.53,0.749 2.557,-0.015 2.246,1.268 1.058,0.337 3.584,-3.827 1.091,-0.647 2.359,-0.615 1.82,0.482 1.783,-1.206 0.603,-0.014 0.212,-0.407 0.029,-1.327 0.431,-0.512 2.526,0.565 1.23,-0.671 1.272,0.232 3.984,-1.58 1.698,-0.441 1.473,0.267 2.783,-1.312 2.214,0.972 4.101,-5.705 5.255,-4.445 -0.131,-2.005 -0.351,-1.216 0.279,-0.89 5.949,-6.951 7.772,-10.706 19.479,-15.28 5.417,-6.235 0.748,-1.201 0.796,-5.245 0.067,-1.903 0.294,-0.968 16.616,-24.673 z" 
                fill="rgb(151, 144, 238)" 
                stroke="white" 
                stroke-width=".7px"
                title="Matabeleland North" 
                id="ZW-MN" 
            />
        </svg>