<svg xmlns="http://www.w3.org/2000/svg" viewBox="230.95799999999986 131.78800000000004 240.08900000000017 344.81700000000023" width="240.08900000000017" height="344.81700000000023">
            <path 
                d="m 252.632,155.293 2.745,-0.416 1.942,0.737 0.635,-0.033 1.714,-0.666 1.081,-1.032 1.827,0.055 2.467,-0.379 4.935,-1.201 0.634,0.286 0.867,0.926 3.287,1.786 1.146,1.01 0.637,-0.076 1.493,-3.67 1.596,-1.069 2.763,-3.78 1.672,-0.507 0.443,-0.918 0.331,-2.357 2.647,-4.62 0.64,-0.755 2.66,-0.102 3.512,-3.375 1.668,-0.429 1.831,-1.028 1.867,-0.228 5.397,0.031 0.914,-0.194 1.434,-1.191 0.596,-0.197 1.152,-0.113 0.552,0.682 1.34,2.365 1.02,2.884 1.461,1.646 1.942,0.889 0.951,0.725 2.102,0.53 0.753,0.524 1.308,0.446 0.631,1.402 0.435,0.282 2.501,0.331 2.538,1.131 1.032,0.084 0.951,0.765 1.349,0.326 1.747,0.206 2.94,-0.228 0.595,0.283 0.235,1.36 1.349,0.526 0.436,0.681 0.308,3.842 0.316,0.442 2.381,1.208 1.23,0.965 1.109,1.724 0.834,0.443 1.386,1.966 1.708,0.846 1.629,0.246 0.516,0.561 -1.038,2.479 -1.832,1.436 -2.235,3.597 -1.674,1.277 -0.159,0.399 -0.002,0.922 1.429,1.406 0.395,1.044 -0.361,1.441 0.354,1.804 -0.52,1.24 0.035,2.285 -2.617,2.612 -0.1,1.548 1.59,1.248 0.078,0.682 -2.436,2.839 -0.28,0.6 -0.084,1.885 -0.92,1.561 -1.038,0.759 -0.205,2.486 -2.12,2.882 -1.724,3.445 0.038,1.044 -0.401,0.601 0.075,1.565 -0.801,1.482 -0.003,0.843 0.635,1.248 0.115,1.245 1.147,3.7 1.353,1.491 0.673,2.052 1.668,2.739 0.715,1.89 0.437,0.444 2.034,0.891 1.035,0.969 2.115,0.65 1.551,3.14 1.036,1.089 2.155,0.288 1.238,0.486 2.154,1.614 2.594,1.094 2.992,2.419 2.716,0.851 1.277,1.249 0.719,0.324 0.759,0.967 -0.723,3.62 -0.081,1.69 -1.32,1.446 -0.161,0.644 0.396,4.268 -0.963,2.696 0,0.684 0.678,2.419 1.199,0.767 1.12,0.003 1.681,-0.401 0.52,0.244 1.998,2.662 1.28,0.606 0.681,0.081 1.199,-0.361 1.521,0.163 3.401,-0.157 0.52,0.444 1.321,2.379 1,-0.121 1.041,-0.805 0.519,-0.08 0.281,0.766 1.36,0.767 1.482,2.136 1.242,0.485 1.56,-0.323 0.961,1.049 1.081,0.242 1.203,0.806 2.481,0.283 1.36,-0.767 2.161,-0.241 4.004,0.4 1.042,0.967 0.641,0.202 2.08,-0.768 0.761,0.524 0.601,-10e-4 0.723,0.967 0.68,0.16 4.763,-0.207 1.644,0.845 2.242,0.278 1.684,0.723 1.01,3.063 0.321,0.241 2.123,0.399 0.883,0.603 1.085,1.208 1.042,0.037 1.159,-0.445 1.281,-0.164 1.688,1.689 1.244,0.562 1.447,1.649 4.936,2.044 1.447,1.125 1.445,0.763 3.327,0.473 0,0 5.783,2.762 2.251,1.404 0.522,0.038 0.959,-0.447 1.482,-0.127 1.801,-0.533 2.122,-0.292 0.482,0.16 0.06,3.591 1.448,1.002 -2.148,2.876 -0.236,0.808 1.702,3.304 2.586,3.379 0.65,1.452 0.211,1.575 -1.243,0.005 -0.269,2.223 0.128,1.333 0.686,0.523 1.203,-0.006 0.765,0.319 1.42,2.417 0.848,0.926 2.742,1.966 3.466,2.003 1.012,1.166 0,0 -2.759,1.876 -2.433,2.6 -1.399,1.1 -4.481,2.814 -2.877,2.766 0.725,0.36 3.821,0.386 0.685,0.321 0.811,1.209 -0.156,0.81 -0.718,0.692 -2.249,0.335 -1.004,0.288 -0.118,0.285 0.34,3.277 -0.069,1.742 -0.663,3.486 -1.229,3.125 -0.074,1.013 0.126,0.972 0.819,2.183 0.137,2.795 -0.66,4.058 -0.069,1.784 -1.687,7.552 0.007,1.096 0.817,1.984 -0.072,1.34 -1.69,0.414 -3.95,-0.186 -4.194,-1.161 -3.554,-0.509 -0.969,-0.443 -3.425,0.176 -1.489,0.451 -0.631,3.047 0.49,1.257 0.69,0.808 0,0.408 -0.156,0.932 -0.44,0.734 -2.172,1.184 -0.24,0.407 -0.193,1.95 1.257,1.418 -0.562,0.611 -0.403,0.204 -6.573,0.388 -1.574,-0.321 -4.518,0.297 -2.819,1.428 -2.821,0.941 -2.017,0.166 -2.665,-0.319 -0.765,0.326 0.082,0.57 1.78,1.378 0.809,0.933 0.409,1.381 -0.195,2.236 -1.324,2.808 -0.029,3.7 -0.601,1.425 -0.117,1.424 2.699,-2.284 1.333,-0.043 2.633,2.068 2.022,0.849 1.582,1.787 -0.438,1.547 -1.044,1.793 -1.683,4.074 -0.076,1.425 0.448,0.812 0.567,0.366 4.94,1.859 0.447,0.569 0.7,2.727 0.692,1.219 0.567,0.161 1.293,-0.248 1.832,2.52 2.358,2.599 1.35,3.01 2.157,2.438 0.449,0.854 -0.312,2.488 0.259,3.302 0.66,2.404 1.066,2.361 0.895,0.895 2.193,0.724 0.57,0.61 -0.156,1.021 -1.861,0.824 -0.4,0.818 -0.391,2.858 -1.954,6.336 0.012,2.328 -0.674,3.148 0.033,6.498 -3.832,5.043 -1.739,1.478 -2.065,1.274 -1.26,-0.036 -2.034,-0.933 -3.373,-0.358 -0.771,0.042 -2.677,0.95 -2.115,-0.527 -1.744,0.291 -1.099,-0.488 -0.975,0.001 -0.976,-0.324 -1.262,-1.347 -2.114,-0.241 -1.504,-0.488 -1.058,-0.775 -1.956,-2.777 -3.048,-1.385 -0.448,-0.694 -0.814,-0.654 -0.609,-0.122 -0.896,-1.061 -0.813,-0.531 -1.542,-0.039 -2.069,0.534 -1.906,1.227 -6.325,5.399 -2.555,2.863 -0.933,0.572 -1.26,0.286 -2.518,-0.082 -1.666,-0.941 0,0 -1.95,-0.165 -5.524,0.241 -4.103,1.182 -5.808,-0.214 -4.428,-1.031 -0.527,-0.492 -0.04,-0.49 1.179,-1.389 3.291,-2.202 0.975,-1.224 2.477,-1.468 4.183,-3.019 1.461,-1.469 0.609,-2.248 1.216,-9.024 2.391,-7.836 0.526,-2.57 -0.284,-0.245 -0.892,0.163 -2.674,1.057 -1.58,0.203 -0.891,-0.206 -1.053,-0.858 -0.972,-2.123 0.082,-2.202 0.324,-0.53 2.43,-0.649 0.406,-0.612 -0.973,-1.55 2.956,-1.913 0.567,-0.122 1.337,-1.222 1.821,-0.773 0.567,-0.447 0.89,-1.59 0.565,-2.118 1.011,-1.916 0.444,-4.358 0.726,-3.055 1.211,-3.786 1.453,-3.216 0.765,-3.621 0.524,-1.179 -0.083,-2.443 2.863,-6.343 3.989,-6.79 0.159,-2.438 -0.244,-1.179 -0.243,-0.568 -0.808,-0.446 -4.801,-0.122 -0.486,-1.22 0.24,-3.209 -0.928,-0.488 -2.178,0.487 -4.437,1.702 -1.331,-0.123 -1.292,-5.89 -2.218,0.566 -2.904,1.783 -1.088,0.283 -0.646,-0.123 -0.725,-0.65 -2.338,-3.537 -5.883,-3.219 -1.29,-0.166 -0.968,0.242 -2.342,2.755 -1.129,-0.206 -0.644,-0.692 -0.319,-1.503 0.487,-3.206 -0.24,-0.852 0.126,-2.678 1.091,-2.675 0.002,-1.136 -0.321,-1.015 -0.804,-0.976 -3.54,-2.604 -1.402,-3.735 -0.522,-0.691 -3.175,-2.644 -1.805,-2.924 -1.399,-4.057 -1.12,-2.312 -1.245,-1.382 -0.682,-0.367 -0.925,0.036 0,0 -1.364,-1.382 -1.285,-0.491 -0.84,-1.865 -1.805,-1.345 -1.762,-2.274 -3.212,-1.39 -1.041,-1.017 1.657,-2.622 1.21,-1.452 -0.478,-1.176 -0.96,-1.299 -1.922,-1.91 -1.399,-1.907 -3.841,-4.064 -1.762,-1.018 -0.476,-1.66 0.015,-3.679 0.422,-5.13 -0.239,-0.687 -0.879,-0.651 -0.515,-1.821 -0.681,-0.125 0.127,-1.614 -2.045,-0.011 -0.561,-0.125 -0.52,-0.487 -0.632,-2.103 -0.546,-3.355 -2.291,-7.924 -0.271,-1.857 -0.989,-2.588 -0.54,-4.561 -0.992,-2.022 0.325,-1.045 0.643,-0.4 5.051,-1.262 6.214,-2.386 1.442,-0.114 7.494,-2.866 0.963,-0.761 0.202,-0.765 -0.907,-3.671 -0.478,-0.848 -0.279,-0.202 -1.6,-0.007 -3.682,0.385 -4.48,0.098 -2.2,-0.333 -5.481,0.211 -5.319,-0.514 -3.599,0.059 -4.599,-0.553 -3.712,-1.193 -0.721,-0.004 -6.005,0.843 -4.877,-0.519 -2.561,0.182 -3.566,0.898 -7.156,-0.542 -3.606,0.775 -2.52,0.018 -3.436,-0.554 -3.802,0.287 -0.64,-0.126 -1.153,-0.737 -0.763,0.315 -0.799,-0.006 -0.794,-0.734 -2.24,0.059 -1.277,-0.415 -1.16,-0.052 -1.992,-0.785 -1.681,0.185 -2.328,0.822 -2.359,-0.024 -2.793,-0.715 0.335,-5.835 -0.594,-13.244 0.032,-7.519 0.249,-1.043 2.177,-2.308 1.362,-0.549 1.039,0.011 2.11,0.584 1.118,-0.069 0.882,-0.513 0.126,-0.643 -0.194,-0.765 -0.516,-0.246 -2.553,-0.146 -1.347,-1.019 -0.229,-1.168 0.932,-1.476 0.457,-2.085 -0.324,-3.82 -0.274,-0.604 -0.476,-0.246 -2.516,0.375 -1.125,-3.505 -1.066,-1.055 0.002,-0.281 1.057,-2.116 2.771,-2.22 0.41,-1.24 1.122,-0.71 0.243,-0.439 -0.129,-3.372 1.579,-2.753 0.251,-1.361 -1.399,-3.904 0.25,-1.241 2.419,-3.424 0.882,-0.633 2.667,-0.014 0.92,-0.512 2.175,-3.066 1.093,-2.113 0.319,-4.886 1.215,-2.752 0.096,-2.003 -0.339,-2.205 0.088,-1.04 1.493,-2.83 0.659,-2.876 0.933,-2.393 0.256,-2.119 z" 
                fill="rgb(151, 144, 238)" 
                stroke="white" 
                stroke-width=".7px"
                title="Midlands" 
                id="ZW-MI" 
            />
        </svg>