<svg xmlns="http://www.w3.org/2000/svg" viewBox="0.26138921000010856 56.06044 137.15000078999986 112.86999999999995" width="137.15000078999986" height="112.86999999999995">
            <path 
                d="m 86.581389,56.06044 5.94,12.02 0.4,2.08 1.97,1.35 0.22,0.55 0.98,0.55 0.26,0.56 0.68,0.09 1.22,0.87 0.83,-0.45 1.210001,0.53 0.33,-0.36 0.75,-0.1 0.8,0.51 0.37,-0.47 0.47,-0.09 1.44,0.72 1.16,0.13 1.31,-0.55 0.81,0.32 1,-0.33 -0.63,2.32 -0.66,0.98 0.14,1.04 -0.22,1.1 -1.69,1.77 1.2,1.75 -0.26,1.87 -0.86,1.73 -1.17,0.98 -0.6,0.13 -0.23,0.61 4.09,7.4 0.45,-0.82 1.45,-0.66 3.55,-0.15 2.08,-0.47 1.62,-1.42 2.85,-3.21 3.4,-4.43 0.51,1.43 1.37,1.88 2.19,3.95 3.1,4.26 0.57,0.45 2.54,0.44 1.89,1.13 1.08,0.1 0.44,0.29 0.32,0.75 -0.25,0.56 0.41,0.86 -0.28,0.5 -0.44,-0.08 -0.38,0.51 0.1,0.7 -0.15,0.42 0.19,0.45 0,0 -0.2,0.25 -0.56,-0.39 -0.57,0.54 0.5,0.2 0.32,1 -0.5,0.02 0.1,0.42 -0.23,0.24 -0.22,0.19 -0.32,0.24 0,0.61 0.51,0.08 -0.39,0.96 0.35,0.15 -0.14,0.49 -0.21,0.43 0.3,0.37 0.28,0.93 0.19,0.74 0.19,0.36 0.61,0.2 0.52,-0.37 0.26,0.23 -0.27,0.73 -0.66,0.38 -0.63,0 0.02,0.71 -0.41,0.59 0.26,0.25 -0.04,0.44 -0.72,0.39 0.44,0.62 -0.11,0.84 -0.62,-0.23 -0.41,0.07 -0.54,0.05 -0.29,0.3 0.55,0.83 0.55,-0.18 0.67,0.52 0.14,0.54 -0.21,0.57 0.25,0.41 0.8,0.19 -0.37,0.56 -0.39,-0.24 -0.53,1.07 -0.25,0.52 -0.06,0.34 0.42,0.15 0.62,-0.34 0.36,0.1 -0.38,0.47 -0.25,-0.1 -0.46,0.32 0.04,0.37 0.84,0.38 -0.37,0.27 -0.62,-0.06 -0.06,0.3 0.41,0.56 -0.31,0.85 0.19,0.36 0.78,0.77 0.39,0.68 0.97,0.52 -1.02,1.34 -0.9,0.24 -1.39,0.8 -0.7,0.98 -0.85,1.14 -0.51,1.37 0.33,0.41 0.58,-0.03 0.09,0.74 0.55,0.31 -0.4,0.24 -1.01,-0.21 -0.27,0.32 0.17,0.81 -0.91,0.35 1.13,0.92 -0.01,0.28 -0.47,0.24 0.1,0.27 0.64,-0.07 0.06,-0.6 0.88,0.14 0.07,0.48 -0.35,0.45 0.9,0.35 0.22,0.67 -0.27,0.35 -0.87,0.11 -0.22,0.59 0.46,0.86 0.35,0.69 0.36,0.65 -1.3,0.27 0.14,0.26 0.29,0.46 0.47,0.13 0.62,0.18 -0.69,1.25 0.22,0.27 0.39,0.24 0.43,0.48 -0.48,0.44 0.03,0.79 -0.26,0.62 -0.05,0.57 -0.04,0.25 -0.15,0.51 -0.26,0.09 -0.36,0.36 0.69,1.01 -0.28,0.61 -0.1,0.16 -0.55,0.77 -0.23,0.29 -0.07,0.58 0.06,0.51 -0.03,0.4 -0.24,0.44 0.29,0.69 1.13,0.27 0.44,0.39 0.01,0.33 -1.38,1.31 -0.27,2.1 -0.92,1.57 0.07,1.42 0.36,0.4 0.47,0.04 0.25,1.1 0.58,0.31 0.53,1.13 -0.05,1.2 0.47,0.66 -0.17,0.53 0.19,0.31 0,0 -0.29,0.44 -1.64,0.2 -0.63,0.53 -2.39,-1.84 -2.89,-1.13 -1.6,0.18 -4.49,-0.21 -2.84,-0.64 -2.92,0.32 -4.34,-0.37 -1.23,-0.57 -1.62,-0.27 -1.3,-0.69 -0.22,-0.77 -0.72,-0.56 -1.69,-0.24 -0.35,0.55 -1,0.59 -0.89,-1.15 -2.910001,-0.03 -1.04,0.36 -0.43,-0.22 -0.09,0.57 -1.13,0.49 -0.45,-0.54 -0.26,0.69 -0.6,0.38 -1.57,0.03 -2.56,0.8 -1.98,0.12 -0.76,-0.89 -0.78,0.21 0.01,0.17 -1.69,0.44 -0.59,1.08 -0.96,0.17 0.06,0.43 -0.27,0.31 -1.21,-0.67 -0.44,0.21 -0.58,2.31 -7.61,-0.48 -0.23,-0.18 0.18,-0.37 -7.64,-2.32 -1.34,0.65 -12.86,-3.74 -3.73,1.64 -3.34,2.39 -0.11,-12.49 -40.6699998,0.43 -0.19,-0.19 0,0 0.42,-1.55 0.14,-2.06 -0.38,-0.92 -1.33,-1.51 -0.97,-0.91 -0.58999999,-0.6 -0.18,-0.6 0.73,-2.35 2.30999999,-1.19 1.02,-1.1 1.09,-0.03 1.42,0.67 0.72,0.66 2.14,0.02 0.6199998,-0.5 0.72,-0.04 1.36,1.15 0.84,0.3 1.25,-0.15 1.81,-0.55 1.51,-0.33 1.75,-0.52 0.82,0.33 1.95,0.06 1.74,0.59 1.32,-0.29 1.53,-1.31 1.62,-0.22 0.91,-0.9 -0.12,-0.7 0.63,-1.54 2.67,-0.62 1.85,0.39 1.65,-0.42 -0.24,-0.39 -1.75,-0.42 -1.42,-0.78 -2.45,-0.91 -1.14,-1.83 -1.22,-0.73 -1.15,-1.23 1.71,-3.09 0.86,-1 1.29,-1.08 1.42,-0.91 0.87,0 10.01,-5.41 1.18,-0.3 3.49,-2.87 1.85,0.08 0.04,-1.39 -1.11,-1 3.94,-6.25 1.58,-1.74 1.87,-9.68 1.91,-1.2 0.58,-0.09 0.98,-1.3 0.58,-1.53 4.11,-2.61 2.19,-2.3 1.64,0.06 0.3,-0.69 0.39,-0.17 1.04,0.4 0.92,-1.03 1.23,-0.22 -0.38,-1.15 -0.83,-1.18 -0.23,-1.02 -0.23,-1.02 0.13,-1.22 0.45,-0.74 -0.21,-2.03 0.74,-1.03 1.97,-1.72 0.23,-0.57 0.05,-2.84 1.41,-1.27 0.5,-0.79 0.07,-0.49 -0.56,-1.78 -0.89,-1.38 1.36,-1.15 -0.21,-1.08 0.74,-0.49 0.93,0.35 0.41,-0.11 0.16,-0.3 -0.56,-0.98 1.28,-0.67 1.12,0.14 1.75,-0.5 0.49,0.21 0.97,-0.15 0.4,-0.65 1.25,-0.92 0.09,-0.63 0.5,-0.14 0.5,0.42 0.5,-0.25 1.08,-1.23 z" 
                fill="rgb(151, 144, 238)" 
                stroke="white" 
                stroke-width=".7px"
                title="Bântéay Méanchey" 
                id="KH-1" 
            />
        </svg>