<svg xmlns="http://www.w3.org/2000/svg" viewBox="1.6413891999998595 153.65044 191.78000080000004 139.51000000000016" width="191.78000080000004" height="139.51000000000016">
            <path 
                d="m 3.1513892,153.89044 0.19,0.19 40.6699998,-0.43 0.11,12.49 3.34,-2.39 3.73,-1.64 12.86,3.74 1.34,-0.65 7.64,2.32 -0.18,0.37 0.23,0.18 7.61,0.48 0.58,-2.31 0.44,-0.21 1.21,0.67 0.27,-0.31 -0.06,-0.43 0.96,-0.17 0.59,-1.08 1.69,-0.44 -0.01,-0.17 0.78,-0.21 0.76,0.89 1.98,-0.12 2.56,-0.8 1.57,-0.03 0.6,-0.38 0.26,-0.69 0.45,0.54 1.13,-0.49 0.09,-0.57 0.43,0.22 1.04,-0.36 2.910001,0.03 0.89,1.15 1,-0.59 0.35,-0.55 1.69,0.24 0.72,0.56 0.22,0.77 1.3,0.69 1.62,0.27 1.23,0.57 4.34,0.37 2.92,-0.32 2.84,0.64 4.49,0.21 1.6,-0.18 2.89,1.13 2.39,1.84 0.63,-0.53 1.64,-0.2 0.29,-0.44 0,0 0.29,-0.23 0.57,0.14 0.56,0.68 1,0.07 0.88,0.2 0.45,0.63 0.36,0.21 0.98,0.27 0.3,0.44 1.1,0.22 0,0 1.11,-0.94 0.38,0.11 0,0 1.64,1.12 1.47,-1.07 2.33,0.33 0.37,0.34 0.12,0.88 1.62,0.3 1.6,0.91 0.26,0.85 0.02,1.12 0.39,0.42 0.75,0.2 0.37,-0.4 1.36,0.05 0.75,1.1 0.14,0.73 0.92,0.66 1.31,-0.23 1.05,-0.09 0.9,-0.05 0.57,-0.32 1.57,0.79 0.51,-0.27 0.57,0.1 0.59,0.73 1.19,0.5 0.23,0.6 0.34,0.48 0.29,0.11 1.34,-0.87 -0.23,-0.54 0.58,-0.14 2.26,1.55 0.92,1.1 1.04,5.56 4.9,6.13 10.02,7.12 6.51,5.79 0.9,1.21 0,0 -4.11,2.8 -9.77,3.66 -4.52,-0.26 -0.86,0.39 -0.3,1.13 -0.91,0.65 -0.07,1.21 -1.59,1.43 -0.11,1.32 0.21,0.8 0.43,0.77 0.99,0.36 0.24,1.9 -0.32,0.52 -0.76,-0.18 -1.47,0.4 -0.28,0.64 -1.1,0.83 -0.1,0.68 0.22,0.32 -0.8,1.36 0.02,1.27 0.25,0.83 -0.19,1.21 -0.55,0.37 -0.64,0.24 -0.41,0.13 -0.45,0.03 -1.29,-0.04 -1.47,0.48 -0.53,0.48 -1.17,0.36 -1.25,1.02 0.11,0.68 -0.48,0.97 0.17,1.16 1.59,0.3 -0.09,0.4 0.12,0.66 -0.63,0.89 -0.3,0.35 -0.28,0.34 -0.05,0.65 -0.04,0.92 -0.34,0.48 -0.55,-0.11 -0.52,0.8 0.21,0.59 -0.67,0.87 0.08,0.51 0.4,0.62 0.03,0.45 -0.43,0.67 0.23,1.33 0.22,0.46 0.21,0.44 -0.32,0.69 0.08,0.53 0.53,0.61 0.47,0.13 0.48,0.72 0.17,1 -2.17,3.01 2.41,1.78 0.31,-0.01 0.21,-0.18 0.39,0.09 0.01,2.25 0.52,0.51 -0.24,0.44 -0.3,0.3 -0.69,0.17 -0.06,0.5 -0.46,0.23 0.13,0.68 -0.31,0.65 0,0.43 0.85,0.96 -1.14,1.27 0.07,0.61 0.59,0.55 0.4,0.79 0.31,0.5 -1.02,0.63 -0.19,0.43 0.2,0.32 -0.34,0.37 -1.01,0.93 -0.27,0.86 -0.6,1.26 -0.21,0.71 -0.54,1.02 -0.98,0.38 -4.94,0.23 -3.03,0.97 -1.92,1.23 -1.35,-0.05 -3.16,-1.34 -0.54,-0.57 -1.93,-1.08 -0.94,-0.97 -1.81,-0.6 -0.4,0.12 -4.64,-2.24 -1.4,-0.31 -0.37,0.22 -0.68,-0.08 -1.21,1 -1.43,-0.06 -0.17,-1.15 -4.41,-0.93 0.04,0.66 0.46,0.08 -0.01,0.31 -0.75,-0.04 -0.5,0.23 -0.34,-0.27 -0.33,-0.16 -0.55,0.21 -0.2,-0.21 -0.54,0.5 0.07,1.32 -2.24,-0.34 -0.48,0.84 -0.97,0.04 -0.77,1.23 -1.49,0.53 -0.91,1.18 -1.35,-0.72 -1.15,-0.22 -0.69,0.29 -1.92,1.66 -2.93,0.78 -1.73,1.58 -1.03,1.37 -0.57,0.02 -1.58,-0.99 -0.700001,-0.03 -0.17,0.64 -1.03,0.19 -2.66,1.65 -0.35,0.78 -1.01,0.13 -0.76,-0.3 -0.84,0.03 -0.68,0.57 -0.56,0.05 -0.19,0.3 0.12,2.13 -0.48,0.42 -4.25,-0.84 -0.66,-0.46 -0.83,0.01 -0.19,-1.07 -1.29,-1.78 -0.09,-0.78 -1.44,-1.18 -1.81,1.61 -1.05,1.84 -0.06,0.9 -0.71,0.3 -2.06,0.92 0.08,0.69 -1.17,0.68 -2.39,-0.56 -0.3,0.44 -1,0.42 -0.25,-0.43 -0.57,-0.33 -0.27,0.12 -0.06,0.5 -0.37,0.06 -0.56,0.92 -0.62,0.33 -0.92,0.78 -0.77,0.76 -0.36,0.58 0,0.55 -2.66,-0.84 0.07,-0.38 -1.93,-0.67 -0.65,0.96 -0.56,0.33 -0.14,0.66 -0.61,0.37 -0.45,1.05 0.34,0.6 -0.2,0.38 -1.06,0.87 -0.22,-0.43 -1.18,-0.73 -0.59,-1.21 -1.28,-1.55 0,0 0.25,-1.99 -0.69,-2.19 -0.59,0.11 -0.39,-0.27 -0.9,-2.53 -1.33,0.07 -0.43,-0.72 -0.48,0.57 -1.37,-1.28 0.05,-1.15 0.35,-0.89 -0.73,-0.72 -0.43,-0.08 -0.84,0.62 -0.43,-0.38 -0.07,-0.55 0.73,-0.64 -0.29,-0.72 0.72,-1.16 -0.59,0.06 -0.78,0.64 -1.62,-1.02 -1.13,-0.81 -0.08,-0.36 -0.26,-1.06 -1.86,-0.89 0,-0.56 0.9,-0.64 -1.04,-1.25 -1.15,-0.65 0,-1.29 -0.6,-0.99 -1.28,0.08 -0.94,-0.51 -0.05,-1.21 0.48,-0.6 -0.24,-1.35 -1.73,0.24 -0.55,-0.71 -1.13,-0.02 -2.25,-1.83 -2.02,-1.88 -0.34,-1.05 -1.04,-0.02 -0.53,-0.55 -1.77,0.68 -1.08,-0.45 -0.85,0.32 -0.81,-0.19 -1.49,-1.13 0,0 18.31,-3.26 10.7,-7.5 -0.21,-34.89 -6.83,-9.45 -0.81,-0.4 -0.28,0.49 -0.32,-0.84 -0.54,-0.42 -1.38,-0.04 0.12,-0.29 -0.35,-0.22 -0.31,-0.04 -0.19,0.33 -0.71,-0.22 -0.43,0.15 -0.39,-0.35 -0.83,0.68 -0.07,-0.46 -1.17,0.05 0.06,1.1 -1.1,0.13 -0.83,0.49 -0.5,-0.24 -0.06,0.48 -0.51,0.24 -0.29,-0.02 -0.25,-0.51 -0.41,0.17 0.05,0.65 -0.78,0.1 0.58,0.41 -0.14,0.5 -1.75,0.11 -0.01,0.53 0.69,-0.31 0.19,0.3 -0.84,0.95 -0.94,0 -0.16,1.06 -0.41,0.25 0.07,0.71 0.42,-0.36 0.22,1.16 0.59,0.39 -0.29,1.13 0.4,0.39 -0.6,0.61 0.77,0.29 -0.65,0.52 0.62,-0.05 -0.26,0.59 -0.3,0.07 0.4,0.65 -0.6,0.03 -0.03,0.81 -0.45,0.21 0.04,0.59 -0.35,0.45 -0.46,-0.13 -0.34,0.56 -0.44,-0.35 -1.42,0.02 -0.26,-0.42 -0.05,0.52 -1.05,-0.06 -0.58,0.29 -0.17,-0.97 -0.31,0.22 -0.33,-0.17 0,0 -0.79,-0.59 -2.46,0.03 -1.22,-0.9 -4.25,-8.57 -2.01,-0.8 -0.62,0.18 -0.53,-0.48 -0.32,-1.78 -0.96,-0.59 -0.28,-1.09 -0.75,-0.77 0.15,-1.8 -0.8299998,-0.84 -0.64,-0.16 -0.85,-1.43 -0.07,-1.79 -0.65,-0.82 -0.2,-1.01 0.33,-0.75 -0.12,-0.98 -0.44,-0.41 -0.36,-1.83 -0.92,-0.78 -1.08,-1.73 -0.5,-2.35 0.09,-0.89 -0.4,-0.58 -1.36,-0.52 -0.44,-0.77 0.08,-1.8 1.2,-2.75 -0.29,-1.42 -0.84,-1.45 -0.66,-1.39 0.73,-3.17 0.49,-0.64 0.21,-2.58 0.34,-2.57 0.37,-0.88 -0.56,-1.36 -0.29,-1.92 z" 
                fill="rgb(151, 144, 238)" 
                stroke="white" 
                stroke-width=".7px"
                title="Bătdâmbâng" 
                id="KH-2" 
            />
        </svg>