<svg xmlns="http://www.w3.org/2000/svg" viewBox="307.21094 276.63086 118.08008000000001 96.23047000000003" width="118.08008000000001" height="96.23047000000003">
            <path 
                d="M 418.00195 276.63086 L 416.58203 277.49023 L 414.87109 277.42969 L 412.57227 278.04102 L 407.99219 277.42969 L 397.07227 277.78125 L 397.03125 278.19141 L 396.54102 278.33008 L 396.81055 278.61133 L 396.04102 279.21094 L 396.21094 279.39062 L 395.95117 279.76953 L 395.67188 279.42969 L 395.28125 280.33984 L 394.93164 280.20117 L 395.27148 280.54102 L 394.66211 281.09961 L 394.86133 281.38086 L 394.32227 281.41016 L 394.5918 281.70117 L 394.05078 282.01953 L 394.19141 282.45117 L 393.74219 282.13086 L 393.62109 282.56055 L 392.82227 282.48047 L 392.67188 282.80078 L 391.67188 282.58008 L 391.71094 282.98047 L 391.38086 282.87109 L 391.03125 283.19141 L 389.70117 282.87109 L 389.64062 282.33008 L 390.14062 282.25977 L 389.44141 281.79102 L 389.37109 281.41016 L 388.60156 281.36133 L 388.3418 281.54102 L 388.31055 282.11133 L 387.9707 281.95117 L 388.13086 281.13086 L 388.42188 280.90039 L 387.86133 280.75 L 387.52148 280.2207 L 387.07227 280.42969 L 387.08203 280.90039 L 386.92188 280.41016 L 386.44141 280.16016 L 386.64062 279.90039 L 386.42188 279.95117 L 386.08203 279.50977 L 385.73047 279.76953 L 385.57227 279.36133 L 385.42188 279.5 L 385.63086 279.82031 L 385.30078 279.83984 L 385.12109 279.16016 L 385.55078 279.09961 L 385.10156 278.84961 L 385.04102 278.50977 L 384.74219 278.56055 L 384.54102 277.95117 L 384.06055 277.81055 L 384.28125 278.19141 L 383.94141 278.15039 L 383.77148 277.80078 L 383.99219 277.53125 L 383.73047 277.54102 L 383.46094 278.11133 L 383.2207 277.73047 L 382.86133 277.81055 L 383.21094 278.21094 L 382.83203 278.36133 L 382.31055 278.12109 L 382.16211 278.41992 L 381.53125 278.25 L 381.17188 278.44141 L 380.99219 278.19141 L 380.94141 278.84961 L 380.52148 279.2207 L 380.18164 278.94141 L 380.03125 279.20117 L 379.77148 278.99023 L 379.69141 278.41992 L 378.79102 278.42969 L 378.51172 279.07031 L 378.98047 279.28125 L 379.20117 279.79102 L 378.7207 280.06055 L 379.23047 280.80078 L 378.5918 281.49023 L 378.2207 281.46094 L 378.19141 282.04102 L 377.66211 282.7207 L 377.96094 283.79102 L 377.65234 283.9707 L 377.55078 285.20117 L 376.94141 285.71094 L 376.79102 286.08984 L 377.03125 286.46094 L 376.76172 286.59961 L 376.81055 286.89062 L 375.75195 287.81055 L 376.33203 288.41016 L 375.88086 288.81055 L 375.61133 290.25977 L 375.33203 290.26953 L 375.20117 290.82031 L 375.41211 291.01953 L 374.95117 291.16016 L 374.58203 293.56055 L 373.50195 294.34961 L 372.23047 294.81055 L 370.3418 294.70117 L 370.32227 293.25977 L 369.95117 292.84961 L 368.8418 292.41016 L 368.63086 291.57031 L 364.90234 291.23047 L 363.79102 291.45117 L 362.62109 289.79102 L 361.64062 289.39062 L 361.0918 289.66016 L 360.14062 289.51953 L 358.79102 290.11133 L 357.62109 289.88086 L 356.66211 289.14062 L 355.81055 289.28125 L 355.4707 290.07031 L 353.8418 290.40039 L 352.80078 290.34961 L 352.51172 289.86133 L 351.73047 289.61133 L 350.96094 289.91016 L 350.52148 289.36133 L 350.05078 289.7207 L 350.30078 290.49023 L 350.07227 290.92969 L 349.2207 291.80078 L 348.60156 291.70117 L 347.60156 292.00977 L 346.60156 293.12109 L 345.96094 293.09961 L 345.55078 293.71094 L 345.79102 294.30078 L 347.61133 295.95117 L 348.05078 297.45117 L 349.41211 298.12109 L 350.50195 298.15039 L 350.12109 298.62109 L 349.80078 299.92969 L 350.4707 300.90039 L 350.0918 301.94141 L 350.70117 303.76953 L 353.63086 306.42969 L 352.9707 308.2207 L 352.93164 309.32031 L 354.46094 314.49023 L 353.82227 314.99023 L 353.27148 315.90039 L 352.40234 314.99023 L 350.85156 315.15039 L 349.85156 314.15039 L 349.81055 313.17969 L 348.51172 312.96094 L 348.19141 312.21094 L 347.62109 311.99023 L 346.9707 312.14062 L 346.05078 311.95117 L 345.17188 312.81055 L 344.9707 313.53125 L 343.76172 313.69141 L 343.54102 314.03125 L 342.27148 313.95117 L 341.83203 313.66016 L 342.02148 311.94141 L 341.8418 311.71094 L 338.27148 311.64062 L 337.01172 311.20117 L 332.89062 311.76953 L 332.16211 312.2207 L 331.27148 311.57031 L 331.01172 312.05078 L 330.79102 312.01953 L 330.28125 311.44141 L 329.85156 310.99023 L 329.68164 310.61133 L 329.51172 310.20117 L 329.06055 309.74023 L 328.69141 309.44141 L 328.21094 309.41016 L 327.9707 309 L 327.83203 308.54102 L 327.37109 308.31055 L 327.07227 307.65039 L 326.92188 307.14062 L 325.83203 306.54102 L 325.92188 306.25 L 324.82227 306.26953 L 324.66211 306.57031 L 324.96094 307.32031 L 323.96094 307.13086 L 323.39062 306.95117 L 322.26172 306.81055 L 321.12109 307.20117 L 320.4707 306.75 L 319.36133 306.64062 L 319.15234 307.25977 L 318.67188 307.12109 L 317.7207 307.38086 L 317.30078 307.92969 L 317.28125 308.82031 L 315.04102 309.76953 L 313.71094 309.55078 L 313.89062 310.44141 L 314.23047 310.57031 L 314.38086 311.09961 L 315.7207 311.55078 L 315.75195 312.08008 L 315.35156 312.17969 L 315.26172 312.79102 L 314.93164 312.83984 L 315.15234 313.57031 L 315.5918 313.71094 L 316.83203 313.45117 L 317.16211 314.36133 L 317.33203 319.80078 L 316.33203 320.91016 L 315.40234 322.67969 L 315.40234 324.33984 L 313.32227 330.42969 L 313.70117 330.66016 L 313.82227 330.26953 L 314.44141 330.31055 L 315.77148 332.09961 L 315.82227 333.32031 L 316.23047 334.37109 L 315.60156 335.65039 L 316.49219 337.37109 L 316.2207 337.98047 L 315.5918 338.26953 L 315.79102 338.92969 L 315.64062 340.12109 L 315.64062 340.59961 L 315.26172 341.16016 L 314.68164 341.01953 L 314.32227 340.78125 L 313.28125 341.19141 L 313.16211 341.49023 L 312.2207 341.7207 L 311.16211 343.04102 L 310.40234 345.69141 L 309.89062 346.16016 L 308.76172 346.44141 L 308.31055 347.84961 L 308.12109 350.82031 L 307.21094 352.41992 L 307.39062 353.84961 L 309.30078 356.00977 L 308.64062 359.25 L 308.92188 360.07031 L 308.5918 361.39062 L 308.87109 361.71094 L 311.15234 361.41992 L 311.23047 360.57031 L 311.56055 360.49023 L 312.37109 361.20117 L 312.87109 361.11133 L 313.27148 361.54102 L 313.21094 361.86133 L 313.76172 362.13086 L 314.58203 362.33984 L 315.21094 361.50977 L 315.61133 361.91016 L 316.01172 361.83984 L 317.18164 362.75 L 317.60156 363.62109 L 318.35156 363.75977 L 319.43164 363.46094 L 319.7207 362.41016 L 320.65234 361.64062 L 321.00195 360.84961 L 322.02148 360.41016 L 322.37109 359.54102 L 322.25195 359.28125 L 322.57227 359.17969 L 322.77148 358.66016 L 322.55078 357.83984 L 323.73047 356.67969 L 323.64062 355.98047 L 323.88086 355.24023 L 324.2207 355.33984 L 324.33203 356.81055 L 324.99219 357.46094 L 326.41211 356.53125 L 327.79102 354.49023 L 328.45117 354.63086 L 328.78125 355.32031 L 329.21094 355.48047 L 329.25195 356.31055 L 330.02148 357.39062 L 330.03125 357.79102 L 334.26172 358.42969 L 335.43164 360.57031 L 337.48047 362.56055 L 337.65234 363.62109 L 336.89062 364.34961 L 336.02148 364.54102 L 335.67188 365.54102 L 335.21094 367.76953 L 335.48047 368.58008 L 335.55078 370.65039 L 340.30078 370.86133 L 341.29102 372.54102 L 341.98047 372.86133 L 342.65234 372.83008 L 343.35156 372.2207 L 344.38086 371.91992 L 347.20117 372.83984 L 349.2207 372.7207 L 349.76172 371.42969 L 349.53125 370.59961 L 348.89062 369.83008 L 348.90234 369.41992 L 350.25195 369.25977 L 350.94141 368.57031 L 351.92188 368.64062 L 353.58203 366.81055 L 355.18164 366.38086 L 356.28125 365.7207 L 356.99219 364.75 L 357.62109 364.88086 L 358.81055 364.33008 L 359.58203 363.76953 L 360.62109 363.16016 L 362.42188 359.65039 L 362.7207 359.46094 L 363.54102 359.56055 L 364.03125 358.66016 L 364.88086 358.94141 L 365.06055 358.14062 L 364.5918 357.90039 L 364.53125 357.42969 L 365.20117 357.66992 L 365.87109 357.19141 L 367.5918 357.06055 L 368.37109 356.55078 L 369.42188 356.40039 L 369.94141 355.78125 L 370.27148 356.5 L 371.10156 356.98047 L 371.0918 357.45117 L 371.87109 357.91016 L 373.02148 358.14062 L 374.25195 357.51953 L 374.67188 358.08984 L 375.49219 358.45117 L 375.74219 358.9707 L 377.44141 359.39062 L 377.73047 359.80078 L 378.87109 358.76953 L 379.49219 358.94141 L 380.00195 359.58984 L 380.10156 360.26953 L 380.55469 360.56055 L 380.55469 355.59766 L 382.12891 352.67383 L 385.50195 347.05078 L 386.62695 340.97656 L 388.65234 334.23047 L 392.02539 327.93164 L 394.94922 325.00781 L 395.17383 319.16016 L 394.72461 311.51367 L 395.17383 303.64258 L 399.44727 299.14258 L 407.76953 300.26758 L 420.36328 304.54102 L 421.21289 304.48242 L 421.54102 302.98047 L 421.02148 301.99023 L 421.58203 301.41992 L 421.79102 301.55078 L 422.57227 301.19141 L 423.36133 300.17969 L 423.60156 300.58984 L 423.93164 300.57031 L 424.64062 299.9707 L 425.29102 297.4707 L 425.28125 296.55078 L 424.96094 292.7207 L 424.3418 289.16016 L 422.06055 281.88086 L 420.60156 279.33008 L 420.12109 277.71094 L 420.19141 276.82031 L 418.00195 276.63086 z " 
                fill="rgb(151, 144, 238)" 
                stroke="white" 
                stroke-width=".7px"
                title="Kampong Cham" 
                id="KH-3" 
            />
        </svg>