<svg xmlns="http://www.w3.org/2000/svg" viewBox="54.94138899999993 325.1004400000001 169.14000100000007 275.1699999999999" width="169.14000100000007" height="275.1699999999999">
            <path 
                d="m 93.001389,407.45044 z m -2.19,-4.29 -0.52,-0.38 -0.55,-0.14 -0.96,-0.26 -0.59,-0.61 -0.03,-0.56 -0.86,0.24 0.9,3.07 1.39,0.22 1.86,-0.1 0.07,-0.45 0.48,-0.38 -0.07,-0.45 -1.12,-0.2 z m -0.97,8.42 0.45,0.63 0.03,-0.52 1.29,-2.06 -2.11,-0.48 -0.65,0.49 0.38,0.73 0.38,-0.17 0.79,0.49 -0.04,0.69 -0.52,0.2 z m 1.3,-5.74 -0.1,-0.59 -0.31,-0.17 -2.61,-0.07 -0.55,-0.49 -0.1,-0.17 -0.44,-1.22 -0.03,-0.42 -0.1,-0.21 -0.66,0.18 -0.62,-0.38 0.82,-0.04 0.27,-0.35 -1.03,-1.32 -1.37,1.43 -0.14,-0.49 0.82,-0.66 0.27,-0.31 -0.48,-0.87 0.14,-1.22 -0.24,-0.14 -0.76,0.28 -0.1,0.52 -0.28,-0.56 -1.72,0.52 -1.18,0.94 -0.43,1.19 0.33,0.93 2.28,2.87 1.23,2.33 -0.14,0.45 0.3,1.74 -0.47,0.97 0.24,1.14 0.59,0.39 0.45,-0.66 0.24,0.17 1.37,-1.11 1.03,-1.43 0.42,-0.39 0.02,0.04 0.21,0.14 0.89,-0.38 1.44,0.07 0.51,-0.42 0.1,0.14 0.14,0.42 1.37,0.03 0.21,-0.31 0.48,-0.52 -0.43,-0.37 1.08,0.13 1.13,-0.31 0.38,-0.35 -0.31,-0.21 0.82,-0.63 -0.55,-0.07 -1.4,-0.89 -0.46,0.27 -0.34,0.42 -0.79,-0.24 0.14,0.9 -0.19,0.31 -0.19,-0.48 -0.51,0.21 -0.69,-0.68 z m -4.05,18.79 0.34,-1.84 -0.86,-0.55 -0.72,-1.11 0.04,-1.01 0.72,-2.57 -1.34,-2.65 -0.07,-1.08 -0.65,-1.18 -0.48,-0.38 -1.27,0.07 -0.79,0.53 -0.21,0.45 -1.38,0.34 -0.04,-0.58 0.32,-0.59 -0.55,-0.03 0.1,-0.49 -0.34,0 -0.66,0.93 -0.65,2.37 1.31,3.02 -0.73,1.95 0.45,0.59 0.31,-0.04 1.17,4.11 -1.24,1.6 0.07,0.45 0.38,0.13 -0.03,2.33 0.31,0.49 -0.71,0.17 0,0.28 1.1,0.7 0.31,1.14 -0.38,0.31 0,0.39 0.62,-0.21 0.49,0.13 0.27,0.49 -0.1,0.56 0.92,-0.52 0.48,0.73 0.82,0.31 1.06,-0.76 0.27,-1.32 0.83,-1.53 -0.34,-0.46 0.07,-0.35 0.69,-0.52 0.62,-1.46 -0.1,-0.97 0.27,-0.56 -0.7,-1.81 z m -18.02,174.6 -0.57,-1.16 -0.23,0 -0.46,-0.32 -0.36,0.25 0.28,0.72 1.82,1.43 0.72,0.12 0.65,-0.25 -1,-0.74 -0.85,-0.05 z m 155.010001,-153.54 -1.61,-2.29 -1.97,-2.01 -1.77,-2.56 0.21,-1.81 -0.85,-1.41 0.32,-1.18 -0.28,-0.82 -0.63,-0.5 0.1,-1.03 -0.55,-1.42 0.65,-1.15 -0.19,-0.46 1.38,-1.29 0.2,-2.21 -0.41,-0.81 0.16,-0.85 -1.24,-2 -1.02,-2.82 -1.97,-0.57 -2.44,-2.01 0.36,-1.9 -1.14,-1.8 0.1,-1.45 -0.44,-0.94 0.7,-0.76 0.14,-0.89 1.63,-0.75 0.42,-0.59 -0.58,-2.89 -0.81,-1.71 -0.94,-0.3 -0.86,0.39 -1.01,-0.7 -0.65,-0.13 -0.88,-1.78 -1.94,-1.78 -0.67,-0.08 -1.89,0.91 -0.37,-0.52 -1.09,0.31 -1.44,1.05 -0.62,-0.4 -0.57,0.34 -1.27,0.1 -0.67,-0.67 -0.71,-1.79 -0.53,0.11 -0.74,-0.26 -0.06,-1.28 -0.58,-0.73 -0.91,-0.37 -1.97,-0.25 -0.72,-1.13 -0.69,0.06 -1.64,-0.97 -0.34,0.15 0.34,-0.78 -1.51,-1.27 -0.77,-0.12 -0.31,-0.5 -0.47,-0.09 -0.66,-1.47 -0.81,-0.3 -1.03,-1.19 -2.93,-0.57 0.27,-3.77 0.75,-1.54 -0.11,-1.54 -0.5,-1.24 -0.94,-1.06 -1.03,-0.69 -0.55,-0.8 -0.47,-1.61 0.22,-2.17 0.66,-0.72 0.27,-0.79 -1.2,-2.25 0.04,-0.67 2.21,-1.51 0.16,-0.66 0.02,-1.49 -0.87,-0.38 -0.26,-0.48 -0.38,-2.81 0.11,-0.78 0.4,-0.6 -0.08,-0.72 0.44,-0.19 2.31,1.33 1.95,0.21 0.74,0.34 1.41,-0.09 1.1,-0.64 1.12,-0.21 -1.15,-1.28 -0.75,-0.15 -0.46,-0.74 -0.35,-1.52 -0.61,-0.93 -1.96,-1.89 -0.1,-0.72 -0.64,-1.01 -0.49,0.22 -0.45,-0.44 -0.43,-0.67 -0.09,-0.92 -1,-1 -1.62,-0.01 -0.63,-0.32 -0.82,1.03 -0.87,-0.04 -1.1,-0.71 -0.86,-1.03 -2.39,1.55 -1.39,-0.48 -0.27,-0.65 -1.71,-0.59 0.71,-0.64 -0.41,-2.1 -0.46,-0.22 -2.31,-0.08 -0.96,-0.8 -1.39,-0.34 -0.27,-0.48 -0.42,-0.11 -0.02,-0.51 -0.7,-0.36 -0.92,0.08 -0.35,-0.73 -0.73,-0.37 1.04,-0.93 0.12,-0.56 -0.44,-0.88 -2.74,-0.78 -0.83,-0.55 -0.52,-1.18 -0.72,-0.76 -0.47,-0.15 -0.87,-1.54 -1.46,-0.43 -0.45,-1.29 -0.56,0.18 -0.52,-0.71 -1.25,-0.52 -0.25,-0.41 -1.34,-0.79 0.13,-0.43 0.43,-0.25 -0.43,-0.58 -0.95,-0.47 -0.83,0.18 -0.37,-0.47 -1.48,-0.58 -2.07,0.89 -0.81,-1.21 -0.4,0.09 -0.75,-1.06 -0.67,-0.02 -1.43,1.92 -0.5,0.13 -0.72,0.7 -1.44,0.37 -0.44,0.57 -1.57,-0.78 -0.1,-0.35 -0.64,-0.1 -0.21,-0.71 -1.22,-0.16 -0.37,-0.66 -1.02,0.09 -1.2,1.39 0.21,0.57 -0.36,0.41 0.49,0.97 -0.31,0.64 0.55,0.54 -0.45,0.26 -0.81,-0.17 -1.19,1.19 -0.33,0.05 -0.5,2.18 0.27,1.77 -1.9,0.34 -1.11,0.91 -0.94,0.08 -0.69,1.1 -0.47,0.26 -0.04,0.76 -1.13,2.08 -1.92,0.05 -0.16,0.48 -0.53,0.23 -2.33,-1.19 -0.43,0.09 -0.6,0.54 -0.82,0.26 0.06,0.5 -0.47,0.6 -0.9,-0.14 -0.18,-0.27 -1.78,0.17 -0.22,0.79 0.13,0.73 -0.73,0.79 -0.53,-0.43 -2.53,-0.41 -0.53,0.19 -1.15,1.18 -1.33,0.49 -0.37,-0.14 -1.39,0.76 -0.83,-0.53 -1.760001,0.48 -3,-0.34 -11.87,-5.24 -2.74,-1.05 -2.93,-0.66 -21.59,-1.41 -2.25,-1.05 -0.41,1.02 0.49,2.88 0.54,1.53 0.55,-0.05 0.14,0.23 0.69,1.78 -0.13,0.45 0.55,1.06 1.09,0.53 0.83,1.47 -0.34,1.27 0.64,1.29 0.47,0.6 -0.31,1.95 0.71,2.39 1.02,2.2 1.42,1.41 0.42,1.48 0.81,1.09 0.86,0 0.2,0.95 -0.16,0.4 0.48,0.87 2.27,1.01 -0.42,1.01 1.42,0.53 1.38,2.16 0.85,2.88 0,8.19 0.19,2.51 -0.28,1.42 1.23,2.56 0.57,-0.14 1.35,2.16 0.31,1.36 -0.65,0.04 -0.27,0.42 -0.1,0.56 0.31,0.94 0.21,0.14 0.41,-0.38 0.28,0.07 0.96,2.16 0.76,0.7 0.21,-0.14 0.99,-3.58 -0.24,-0.94 0.27,-2.12 -0.58,-0.66 -0.27,-0.61 -0.39,-0.65 0.57,-0.32 0.11,-1.49 -0.51,-0.38 0.03,-0.47 0.04,-1.61 -0.44,-0.32 0.79,-1.39 0,-1.71 -0.24,-0.7 0.93,-1.15 0.21,-1.67 -0.46,-0.76 -1.15,-0.77 0.31,-0.88 2.1,2.65 -0.58,1.88 1.82,0.13 0.26,0.3 -0.47,0.9 -0.72,0.51 -0.38,1.29 -1.2,1.01 -0.21,1.91 0.58,1.39 -0.21,0.52 0.51,0.46 0.34,0.83 0.39,0.27 0.38,-0.93 -0.22,-1.1 0.77,0.5 0.28,-1.17 0.43,0.35 0.58,0.52 0.58,-0.52 0.69,0.56 1.03,1.39 0,0.87 -0.69,-0.05 0.21,-0.61 -0.15,-0.46 -0.57,0.35 -1.61,-0.77 -0.86,0.24 -0.58,5.64 -0.94,2.52 0.51,0.66 1.32,0.89 -0.82,0.35 -0.03,-0.42 -1.06,-1.08 -0.58,-0.04 -1.61,2.12 0.62,1.57 1.75,2.05 0.62,0.07 -1.36,-1.54 0.68,0.04 0.65,0.66 1.68,0.49 0.31,-0.56 -0.07,-0.59 0.58,-0.52 -0.02,-0.47 0.17,-1.2 0.4,0.65 0,0.59 0.86,0.14 1.34,-0.59 0.52,-0.01 1.81,0.08 0.24,-0.59 -0.41,-3.2 -0.17,-0.94 0.48,-0.97 0.1,1.91 0.27,0.38 0.27,-0.83 0.45,0.63 -0.79,0.97 0.45,1.53 0.62,0.03 0.3,-0.98 0.32,0.01 -0.79,1.71 -0.31,-0.49 -0.38,0.17 0.24,2.58 -0.31,0.73 0.45,0.8 0.31,0.24 0.17,0.21 1.75,-0.56 -1.3,0.83 0.21,1.29 2.26,0.42 -0.14,0.31 0.31,0.35 0.86,0.07 0.86,0.87 0,0.66 -0.55,0.1 0,0.21 1.1,0.21 0.62,-0.24 1.75,1.08 1,-0.31 1.41,-1.01 0.27,-0.83 -0.57,-1.12 1.43,0.67 0.620001,0.7 -0.860001,1.39 -0.27,1.29 0.89,0.52 0.200001,0.66 0.52,0.97 -0.990001,-0.66 -1,-1.22 -1.85,-0.35 -2.71,2.19 -1.85,1.04 0.69,0.28 -0.1,0.31 -0.45,-0.31 -0.7,0.25 -0.53,0.92 0.03,0.83 0.51,0.62 0.25,-0.93 1.7,2.81 -0.45,-0.14 -0.23,0.69 0.51,3.73 0.64,1.8 0.86,0.39 0.42,0.71 0.31,0.06 1.47,-0.86 1.52,-0.18 0.37,0.2 0.28,0.35 -0.38,0.8 1.920001,3.1 -0.31,1.8 0.58,0.49 -0.17,0.35 -0.55,-0.14 -0.31,-0.79 0.07,-2.07 -1.330001,0.78 -1.65,-0.8 -0.17,1.18 -0.69,0.56 -0.69,0.07 -0.31,0.66 -0.51,0.1 -1.07,-0.31 0.38,0.97 -0.48,1.36 0.79,1.08 -0.38,0.45 -0.41,-0.07 0.07,0.52 -0.44,0.18 0.2,-1.01 0.52,0.1 0.12,-0.22 -0.71,-0.75 -0.13,-0.87 -2.26,0.1 0.82,1.98 -0.07,0.7 -0.62,0.52 -0.51,-0.07 -0.24,0.66 0.52,0.76 0.24,1.29 -1.72,0.52 -0.17,0.59 -0.55,0.04 -0.24,0.63 -0.38,0.17 0.86,0.97 1.72,-0.94 0.48,0.1 0.41,-0.24 0.41,0.21 1.12,1.5 0.64,1.35 1.94,5.94 0.65,0.52 -0.27,0.14 0.55,2.68 0.24,3.23 -0.79,0.49 -0.07,1.08 -0.48,0.9 -0.91,0.3 -0.67,-0.86 -0.62,0.63 1,0.49 0.07,2.81 0.47,0.87 0.84,3.23 0.14,2.22 -0.03,4.58 -0.17,0.42 -0.9,0.59 -0.51,1.2 0.3,0.47 -0.37,0.99 0.35,2.32 1.83,0.85 1.22,0.97 0.99,1.46 0.15,0.67 -0.13,0.96 -0.39,0.46 -0.77,-0.1 -0.48,-0.38 0.07,0.28 0.57,0.79 2.46,1.02 0.490001,-0.46 0.03,-0.88 1.03,-0.15 0.88,0.45 1.27,1.39 1.14,0.24 -0.33,-0.77 0.41,-0.84 2.99,-1.16 0.77,-0.23 -0.32,-0.34 0.88,-1.35 0.64,0.09 0.66,-0.33 0.15,-1.06 1.29,-0.5 0.57,-1.13 1.87,-0.69 2.34,0.13 0.04,-0.45 0.27,0.1 0.88,0.44 -0.27,0.34 0.14,0.36 0.96,0.21 0.88,-0.15 0.85,0.39 0.46,0.48 1.14,0.7 0.52,-0.2 1.52,0.95 1.4,1.81 -0.1,0.39 0.33,0.71 -0.23,0.73 0.52,0.36 0.51,-1.03 1.23,-0.87 0.86,-0.18 1.34,0.79 0.69,-0.58 1.44,-0.59 0.4,-0.63 0.27,-0.38 2.02,0.11 0.14,-0.56 -0.69,-1.67 0.17,-2.12 -1.07,-2.05 -0.21,-2.22 0.52,-1.7 0.89,-1.25 0.48,-2.64 1.61,-2.99 0.1,-0.73 0.72,-1.04 0.38,-3.54 2.09,-1.93 0.41,-1.72 -0.27,-0.52 -0.38,-0.04 -1.06,0.59 -1.34,0.31 -0.52,-0.14 0.62,-0.59 1.27,-1.63 1,-0.63 0.79,-1.11 0.27,-1.35 0.65,-0.77 0.17,0.35 0.79,-0.31 1.97,-1.86 1.53,-0.78 2.06,-0.07 1.89,0.35 0.89,-0.17 0.17,1.35 2.02,2.64 1,2.43 1.27,1.7 0.38,1.18 2.61,1.04 0.69,-0.42 0.98,-0.07 3.24,1.36 0.65,-0.28 0.07,1.39 1.17,0.73 1.3,-0.49 0.62,-0.56 0.77,-2.2 1.14,-0.87 0.76,-1.03 0.82,-0.38 0.55,-0.8 0.55,-0.21 0.51,-0.73 3.02,-1.15 1.22,-0.04 0.49,-0.55 1.23,-0.59 0.24,0.17 -1.61,1.49 -2.16,0.03 -2.92,1.74 -3.46,3.93 -0.45,1.08 1.3,0.1 0.34,0.31 -0.58,0.21 -0.14,0.38 -0.45,-0.35 -0.21,0.59 -1.06,0.42 -0.51,-0.21 -2.23,0.1 -1.68,0.97 0.03,0.42 1.72,2.33 0.24,1.01 -0.41,0.83 0.62,1.22 -0.31,0.63 -0.65,0.49 3.17,4.54 0.2,1.37 0.71,0.8 1.53,3.68 1.07,5.02 0.11,2.81 -0.55,1.75 -0.94,1.65 -1.9,0.51 -0.11,0.56 -0.7,0.73 -0.6,0.02 -0.14,1 -0.33,0.4 0.18,2.43 -0.71,1.28 -0.86,-0.12 -0.2,0.57 0.51,0.6 0.28,1.3 3.08,0.78 4.28,-4.33 4.58,-5.5 0.75,-1.43 1.1,-5.93 1.52,-4.29 2.11,1.21 1.64,0.56 11.81,-5.92 0.37,-0.49 0.12,-0.37 1.94,-0.93 0.7,-0.92 4.23,-2.83 2.88,-3.31 2.65,-0.01 0.59,1.36 2.95,-0.51 1.53,-1.12 1.86,-0.79 0.21,-1.69 -1.85,-1.91 -0.11,-0.4 1.74,-0.82 0.47,-0.75 -0.95,-4.33 0.15,-4.97 -2.26,-2.88 3.32,-0.13 8.38,2.45 z m -150.070001,153.4 -0.29,-0.42 -0.53,0.19 -0.54,-0.2 -0.64,-1.1 -0.51,0.15 0.53,1.02 1.59,1.41 0.57,-0.02 0.51,-0.41 -0.08,-0.48 -0.61,-0.14 z m 2.77,-56.43 -0.35,0.61 0.53,0.2 0.17,-0.47 0.62,0.09 0.68,-0.29 -0.96,-0.33 -0.69,0.19 z m 11.35,-72.41 0.48,0.24 0.41,-0.11 0.31,-0.82 -0.86,0.11 -0.34,0.58 z m 28.670001,35.63 0.35,-1.2 1.05,-0.42 0.91,0.55 0.24,-0.54 1.54,-1.11 0.43,-0.85 -0.27,-0.83 0.33,-0.42 -0.91,-0.42 -0.36,0.86 -0.71,0.59 -0.97,-0.6 0.55,-0.8 -0.92,-1.48 -0.72,-0.26 -0.67,0.53 -0.83,-0.23 -0.52,0.65 -0.58,-0.27 -0.03,-0.6 -0.59,-0.09 -0.48,-1.03 0.57,-0.54 0.03,-0.4 -0.2,-1.52 -0.73,-1.47 0.75,-0.73 -1.16,-0.61 -1.27,-0.19 -0.68,-0.31 -0.26,1.1 -1.4,0.87 -1.08,-0.15 -1.31,-0.67 -0.54,0.04 -0.61,0.79 0.16,1.47 -1.09,2 0.64,0.66 0.78,-0.86 1.02,0.42 -0.06,1.03 0.46,0.76 -0.4,0.73 1.15,1.33 1.85,0.42 0.92,-1 1.5,0.7 0.92,1.41 0.48,1.3 0.28,1.04 -0.18,0.76 0.22,1.54 0.43,0.47 0.48,0.03 0.84,-0.99 -0.02,-0.88 0.67,-0.58 z m -10.71,-16.27 1.77,-0.47 -0.29,-0.13 -0.75,-0.21 -0.73,0.32 0,0.49 z m -2.9,68.25 0.24,0.28 0.84,-0.66 -0.77,-0.43 -0.31,0.81 z m 15.72,-46.9 0.12,0.34 0.32,0.1 0.48,-0.36 0.26,-0.43 -0.28,-0.43 -0.6,0.13 -0.3,0.65 z m 5.25,6.25 -0.48,-0.32 0.05,-0.65 -0.34,-0.31 -1.11,2.23 -1.42,-0.55 -0.81,-0.88 0.03,-0.57 0.6,-0.2 0.13,-0.33 -0.98,-0.67 -0.21,-0.37 0.13,-0.4 0.49,0.11 2.05,-0.46 -0.07,-0.63 -0.5,-0.15 -0.38,-0.59 0.26,-0.45 -0.7,-0.52 -0.87,0.88 -0.7,0.14 -0.79,-0.82 -0.93,0.64 -0.93,1.16 0.72,2.89 1.46,1.24 -0.06,1.26 0.74,-0.28 0.42,0.34 0.05,0.54 0.43,0.16 0.37,0.63 -0.07,1.25 0.75,0.38 1,-0.2 0.21,-1 -0.19,-1.13 1.77,-1.76 -0.12,-0.61 z m -31.260001,-39.5 -1.36,-1.27 -0.33,0.05 0.01,0.58 -0.44,0.48 -0.18,1.03 0.96,0.18 1.96,-0.17 -0.07,-0.76 -0.55,-0.12 z m -1.96,-3.71 0.58,-0.49 0.17,-0.73 0.51,-0.45 0.03,-0.8 -1,0.94 0.03,0.73 -0.48,0.56 0.16,0.24 z m 14.720001,11.89 -0.65,-0.76 -1.27,0.77 -0.94,-0.11 0.76,1.47 0.59,0.41 1.49,-0.17 0.93,-0.42 0.02,-0.57 -0.77,-0.2 -0.16,-0.42 z m -14.690001,-18.87 -0.52,0.87 0.28,0.38 0.31,-0.63 0.89,-0.17 0.31,-0.45 -1.27,0 z m 9.890001,87.41 -0.34,-0.83 -1.080001,-1.15 0.33,-1.43 0.860001,-0.13 0.43,-0.34 -0.27,-0.38 -0.840001,0.23 -0.46,-0.32 0.04,-0.39 -0.48,-0.65 -0.31,1.48 -1.24,1.02 0.67,1.25 1.36,0.22 0.480001,0.48 0.45,2.7 0.45,-0.59 0.79,-0.1 -0.27,-0.55 0.34,-0.42 -0.91,-0.1 z" 
                fill="rgb(151, 144, 238)" 
                stroke="white" 
                stroke-width=".7px"
                title="Kaôh Kŏng" 
                id="KH-9" 
            />
        </svg>