<svg xmlns="http://www.w3.org/2000/svg" viewBox="402.16139 162.57044 149.78999999999962 183.28999999999982" width="149.78999999999962" height="183.28999999999982">
            <path 
                d="m 402.28139,184.91044 2.25,0.09 1.56,1.21 3.7,1.03 1.06,0.68 4.51,0 4.85,2.65 0.98,0.23 1.14,0.84 0.34,1.03 3.61,2.61 0.81,0.32 0.56,1.13 0.93,0.59 1.09,0.57 0.82,-0.09 0.91,0.34 0,0 0.28,-0.11 0.3,0.25 0,0 0.57,0.23 0.21,-0.15 2.13,1.24 1.58,-0.05 0.22,-0.45 0.85,0.39 0.55,-0.65 0.75,-0.04 0.25,-0.46 1.11,-0.58 0.08,-0.41 0.88,-0.36 0.24,-0.47 0.67,0.3 1.06,-0.54 0.99,0.06 -0.08,-0.24 0.61,-0.59 1.64,-0.56 -0.25,-1.03 0.5,-1.21 1.14,-1.18 0.48,-0.97 -0.14,-0.72 0.46,0.17 -0.07,-0.35 0.31,-0.4 -0.13,-2.06 0.33,-2.23 0.39,-0.14 1.64,0.48 2.68,1.56 1.64,-1.26 0.65,-0.16 0.28,-0.95 -0.13,-1.04 0.31,-0.2 -0.55,-1.12 0.5,-0.44 -0.18,-0.54 0.98,-1.02 -0.14,-0.41 0.81,-0.75 0,-0.35 0.64,-0.11 0.46,-0.44 -0.11,-0.7 0.32,-0.69 1.14,-0.23 0.15,-1.52 1.4,-0.66 0.21,-1.27 0.78,-1.02 0.72,-0.29 0.29,-1.03 -0.28,0.17 -0.42,-0.99 0.57,-0.6 1.39,-0.67 0.42,0.07 0.27,-0.53 0.45,-0.01 0.35,-0.33 1.09,-0.22 1.47,0.32 0.35,-0.56 1.87,0.65 0.75,-0.15 0.33,-0.35 0.56,0.12 0.44,-0.24 1.77,0.41 0.84,-0.22 2.04,0.97 0.45,-0.34 1.69,0.3 2.24,-1.04 0.38,-2.45 0.56,-0.71 0.94,0.25 1.51,-1.77 2.01,0.54 0.82,-0.2 0.93,0.58 0.47,-0.82 0.68,-0.28 2.13,0.87 3.36,-0.01 0,0 0.11,2 0.34,0.8 -0.38,2.08 0.45,0.71 0.36,1.86 -0.84,2.4 0,1.88 -0.55,1.49 0.15,1.08 0.65,1.64 1.74,2.92 0.54,2.1 3.7,1.83 0.98,0.89 1.94,2.32 0.83,2.77 -0.24,0.4 -1.12,-0.21 -0.72,0.2 -1.8,-0.9 -1.29,0.53 -4.35,-0.19 -0.56,0.24 -0.67,1.52 -0.01,1 -0.39,0.54 -0.29,1.56 0.29,0.7 0.02,0.99 -0.28,0.73 0.34,0.89 -0.09,0.41 0.42,0.79 1.26,0.67 0.7,0.94 -0.07,0.51 1.62,1.77 0.91,1.59 3.03,1.42 0.13,1.18 1.26,1.3 0.03,0.44 0.27,-0.06 0.13,0.29 0.76,-0.16 1.98,1.32 1.06,-0.55 1.05,0.36 0.62,-0.15 3.99,2.6 3.86,1.85 2.79,1.67 3.19,2.12 2.95,2.38 1.31,1.86 0.4,1.67 0,1.95 -0.51,3.56 -0.82,1.67 -1.21,1.45 -6.29,5.61 -0.57,0.2 -0.71,-0.33 -1,0.32 -0.26,0.33 -0.58,-0.12 -0.06,0.42 -0.43,-0.21 -0.24,0.51 -0.98,-0.21 0.04,0.29 -0.52,0.1 -1.46,1.21 -0.73,1.23 -0.75,0.63 -3.97,2.48 -1.93,1.92 -3.02,5.25 -0.48,4.23 -4.39,10.78 -0.55,3.6 1.53,1.78 3,1.34 12.52,8.1 0.57,0.06 0.49,-0.13 0,-0.21 0.79,0.47 0.33,-0.16 0.49,0.21 0.48,0.38 0.37,1.03 1.14,0.77 1.26,0.22 0.68,0.72 1.82,0.53 1.99,4.61 1.34,4.03 0.86,1.71 0.96,1.25 1.48,0.48 0.91,0.63 1.69,0.08 1.33,0.8 1.56,0.19 2.04,0.87 3.19,0.49 2.12,1.57 2.04,0.65 0.75,0.52 0.59,1.21 0.93,0.64 0.43,0.01 0.77,2.07 1.97,2.18 0.59,1.29 0.62,0.47 1,1.46 -0.84,1.98 0.48,1.37 -0.19,0.75 -0.6,0.81 0.55,0.98 0.19,1.13 -1.02,2.5 0.91,2.33 0.16,1.5 0,0 -0.77,0.13 -0.3,0.86 -1.03,0.47 0.04,0.82 -1.66,2.06 -0.11,0.94 -0.7,0.18 -0.39,1.44 -0.8,0.92 -0.69,0.19 0.1,1.37 -0.69,0.96 -0.37,0.71 -0.63,1.03 -0.91,0.82 -0.55,1.17 -1.44,0.47 -1.39,-0.05 -0.54,0.53 -1.36,-0.12 -0.88,-1.09 -0.76,-0.41 -0.62,-0.83 -1.32,-0.7 -0.28,0.15 -0.03,0.61 -0.42,0.21 0.57,1.22 0.62,0.36 0.1,0.39 -0.54,0.27 -1.23,-0.27 -0.42,-0.52 0.24,-0.37 -0.16,-0.3 -0.49,0.12 -0.06,0.67 -0.31,0.03 -0.09,0.97 -0.52,-0.21 0.05,-1.17 -0.46,-0.27 -12.12,0.74 0.25,-0.64 0.59,-0.24 -0.35,-0.31 -0.53,0.14 -1.43,-0.46 -0.89,0.06 -0.29,0.41 -0.9,0.16 -0.78,0.7 -0.55,0.04 -0.79,-0.35 -1.81,-0.19 -0.48,-1.1 -1.2,-0.8 -1.68,0.32 -1.16,1.13 -0.01,0.57 -1.27,0.17 -1.23,-0.3 0,0 -1.47,-0.47 -0.32,0.77 -0.71,0.17 -0.18,0.44 -0.64,0.24 0.07,0.66 -0.94,0.73 -1.32,0.31 -0.43,-0.53 -0.71,0.46 -0.49,0.31 -1.81,-1.15 -0.88,-0.22 -0.82,0.03 -0.52,-0.33 -0.53,-0.14 -0.62,-0.13 -0.4,0.01 -0.23,0.28 -0.98,0.09 -0.32,0.52 -0.96,0.15 -0.3,-0.5 -0.57,0.19 0.1,0.38 -0.3,0.2 -0.66,0.01 -0.53,-0.14 -0.88,-0.02 -0.53,-0.03 -0.43,0.41 -0.38,-0.09 -0.46,-0.38 -0.45,-0.06 -0.34,-0.09 -0.15,-0.77 -0.61,-0.09 -0.6,0.54 -1.03,0.46 -0.44,-0.3 -0.24,-0.49 -1.3,-0.56 -0.9,-0.18 -1.44,1.02 -0.23,0.65 -0.8,0.66 -0.73,-1.3 0.35,-0.54 -1.29,-0.16 0.27,-0.46 0.47,0.07 0.25,-0.27 0.05,-0.86 -0.41,-0.34 0.04,-2 0.58,-0.22 0.01,-0.67 0.68,-0.38 -0.12,-1.08 0.09,-0.62 -1.08,-1.23 0.05,-0.57 -1.04,-0.5 -0.88,-0.17 -0.34,-0.99 -0.75,-0.06 -0.08,-0.76 -1.03,0.77 -0.43,0.15 -0.5,-1.07 -0.16,-0.11 -0.41,-0.1 -0.91,0.16 -0.37,-0.77 0.16,-0.64 -0.84,-1.05 -0.59,0.11 -0.73,-0.1 -0.79,-0.03 -0.44,0.4 -0.56,0.21 -0.48,0.27 -1.11,-0.34 0.34,-1.38 -0.73,0.1 -0.17,0.33 -1.31,-0.36 0.2,-0.31 -0.24,-0.22 -0.67,0.35 -0.37,0.34 -0.72,-0.12 0.82,-1.04 -0.67,-0.25 -0.2,-0.28 -0.32,-0.25 0.36,-0.52 0.37,0.17 0.3,-0.33 0.48,-0.69 0.75,-0.44 0.18,-0.85 -0.35,-0.02 -0.41,-0.51 0.16,-0.28 0.49,0.01 0.04,-0.89 -1.18,-0.65 -0.35,-1.23 -0.31,-0.46 0,-0.95 -0.5,0.29 -0.17,0.56 -1.23,0.51 -0.61,-0.09 -0.46,-0.3 -0.24,-1.52 -0.6,-0.83 -0.9,-0.97 0.51,-0.35 -0.05,-0.28 -0.45,-0.32 -1.29,-0.23 -0.35,0.14 -0.36,-0.25 -0.78,-0.53 0.52,-0.45 0.16,0.54 0.53,-0.08 -0.07,-1.36 -0.86,-0.29 -0.24,0.63 -0.53,-0.85 -0.59,0.49 -0.53,-0.02 0.2,0.55 -0.28,0.22 -0.67,-0.08 -0.82,0.06 -0.57,-0.64 -0.45,0.16 -0.4,0.32 -0.39,-0.39 0.09,-0.83 -0.46,-0.68 -0.64,-0.31 -0.39,0.2 -0.65,-0.62 -1.49,0.56 0.03,-0.33 -0.44,-0.55 -0.26,0.09 -0.23,0.4 -0.59,0.21 -1.13,0.55 -1.27,-0.53 -0.55,-0.12 -0.57,0.08 -0.45,-0.02 -0.72,-0.94 -0.24,0.33 -0.41,0.03 -0.04,1.02 -0.69,0.39 -0.1,0.75 -0.51,-0.28 -0.52,0.07 -1.01,-1.86 0.14,-1.46 -0.39,-0.61 -0.56,-0.72 -0.04,-2.05 -1.85,-0.31 -4.57,0.14 -4.19,-1.17 -0.31,-0.52 0.52,-2.38 -0.52,-0.99 0.56,-0.57 0.21,0.13 0.78,-0.36 0.79,-1.01 0.24,0.41 0.33,-0.02 0.71,-0.6 0.65,-2.5 -0.01,-0.92 -0.32,-3.83 -0.62,-3.56 -2.28,-7.28 -1.46,-2.55 -0.48,-1.62 0.07,-0.89 0,0 -0.16,-2.1 -0.3,-0.84 -0.11,-2.81 -0.87,-2.37 -0.08,-1.85 -0.61,-2.14 0.07,-2.59 0.48,-1.29 0.12,-1.45 -0.55,-3.12 -0.78,-1.76 0.09,-1.92 -1.71,-2.01 -0.44,-1.23 -0.49,-0.43 0.08,-1.59 0.69,-1.66 -0.87,-0.97 -0.55,-2.29 -0.76,-0.22 -0.42,-0.56 0.54,-1.95 -0.17,-1.37 0.68,-0.54 -0.54,-1.04 -0.58,-0.28 -0.53,-1.38 1.46,-1.54 0.88,-2.68 -1.49,-3.82 -2.07,-0.96 -0.77,-2.03 0.12,-0.74 1.72,-1.01 0.95,-2.58 -1.87,-1.93 -1.65,-0.47 -0.83,-1.17 0.02,-0.56 0.9,-1.66 -0.06,-0.84 -2.28,-6.57 0.13,-0.42 0.45,-0.28 0.16,-1.1 0.49,-0.85 -0.01,-0.74 0.87,-2.26 -0.05,-1.03 -0.96,-0.87 -0.56,-1.4 -2.62,-1.42 -0.31,-0.99 -0.83,-0.41 -0.61,-3.58 -1.44,-3.64 z" 
                fill="rgb(151, 144, 238)" 
                stroke="white" 
                stroke-width=".7px"
                title="Krâchéh" 
                id="KH-10" 
            />
        </svg>