<svg xmlns="http://www.w3.org/2000/svg" viewBox="238.64139 515.86044 19.799999999999955 18.190000000000055" width="19.799999999999955" height="18.190000000000055">
            <path 
                d="m 238.70139,521.02044 0.27,-0.46 -0.33,-0.55 0.74,-0.65 0.03,-1.36 0.55,-2.14 2.17,1.82 3.26,0.41 2.09,-0.22 1.13,-0.43 2.88,0.08 -0.06,0.27 0.57,0.77 0.21,-0.84 0.5,0.11 0.77,0.88 -0.08,3.18 1.23,0.91 0.59,1.39 1.23,0.69 0.53,0.02 -0.11,1.27 0.47,0.18 0.27,0.71 -0.51,0.37 0.85,0.59 -0.08,0.36 -1.22,0.4 -0.68,-0.46 0.37,-0.43 -0.79,0.1 -0.43,0.82 0.48,0.39 0.39,0 0.32,0.1 -0.33,1.18 -0.33,-0.24 -0.28,0.1 -0.01,0.6 0.62,0.38 0.55,-0.51 0.32,-0.25 0.41,-0.16 0.44,0.55 -0.06,0.59 0.39,0.72 0.41,0.14 -0.85,1.65 -0.43,-0.14 0,0 -1.82,-0.2 -1.41,-0.59 -0.28,-0.53 -0.47,-0.17 -0.79,-1.45 -1.41,-1.77 -2.01,-1.59 -0.63,0.1 -3.5,2.08 -1.17,0.38 -0.6,0.07 -1.04,-0.52 -0.38,0.21 -0.24,-0.56 0.13,-1.21 -0.3,-2.7 -0.97,-2.29 z" 
                fill="rgb(151, 144, 238)" 
                stroke="white" 
                stroke-width=".7px"
                title="Krŏng Kêb" 
                id="KH-23" 
            />
        </svg>