<svg xmlns="http://www.w3.org/2000/svg" viewBox="195.49138999999943 443.2704400000003 100.15000000000046 95.58999999999963" width="100.15000000000046" height="95.58999999999963">
            <path 
                d="m 224.08139,445.69044 1.85,0.86 1.2,2.55 1.77,2.15 1.15,0.88 2.42,0.9 3.91,0.15 5.78,-1.5 1.66,0.26 0.69,-0.23 0.47,-1.26 0.32,-0.23 0.16,0.28 0.6,-0.36 0.54,-0.83 -0.11,-0.66 0.21,-0.3 1.46,-1.1 0.28,0.03 0.21,0.08 0.64,0.29 0.55,-0.16 0.95,0.26 0.66,0.5 0.32,-0.42 2.08,-0.17 0.23,-0.56 0.6,-0.34 0.35,-0.54 1.27,1.49 0.28,-0.14 0,0 -0.01,7.51 1.19,-0.61 1.46,0.1 0.86,0.82 2.01,0.64 0,1.5 0.73,-0.72 0.92,0.83 2.38,-1.74 -0.1,1.4 1.57,0.16 2.87,4.23 1.89,4.65 0.41,2.92 -0.25,1.62 0.19,2.62 -2.31,4.46 1.67,0.91 3.38,-0.14 2.71,0.25 4.08,-2.04 0.81,0.14 0.77,-0.46 3.28,-0.2 1.98,0.97 0.09,0.57 0.42,0.06 1.22,1.76 1.17,2.25 1.16,2.82 -0.04,0.6 -0.31,0.32 0.14,2.41 0.27,0.44 -0.15,0.26 1.93,2.12 0.19,0.79 0.48,0.35 -0.41,0.5 -2.41,1.42 -0.22,1.16 -0.38,0.25 0.02,0.91 0.35,0.85 -0.37,0.09 -0.22,0.83 -1.25,1.46 -0.69,1.8 -0.77,0.41 -0.54,0.9 0.46,1.57 0.03,3.25 -0.22,0.72 0.46,1.94 -0.41,1.82 3.92,0.23 0.56,0.24 0.2,1.52 -0.58,1.24 -0.04,1.24 0.78,0.8 -0.14,3.78 0.17,0.8 0.71,0.81 -0.74,0.6 0,0 -2.34,-0.75 -5.86,-0.33 -0.02,1.32 -3.63,0.23 -1.8,-0.72 -1.61,0.43 -0.28,0.36 -0.05,1.85 -0.49,0.96 -2.88,1.46 -0.23,2.44 -0.76,2.02 -1,1.02 -1.92,0.22 -0.87,2.47 -2.8,2.6 -2.34,-3.06 -1.93,0.21 -2.92,0.8 -1.49,-1.44 0.07,-0.66 -0.55,-0.31 -0.8,-0.02 -0.27,-0.5 0,0 0.43,0.13 0.86,-1.65 -0.42,-0.14 -0.39,-0.72 0.06,-0.59 -0.44,-0.54 -0.41,0.16 -0.32,0.25 -0.55,0.51 -0.62,-0.38 0.01,-0.6 0.27,-0.1 0.33,0.24 0.33,-1.17 -0.31,-0.1 -0.4,0 -0.48,-0.39 0.43,-0.82 0.79,-0.1 -0.37,0.43 0.68,0.46 1.22,-0.4 0.09,-0.36 -0.85,-0.59 0.51,-0.37 -0.27,-0.72 -0.47,-0.18 0.11,-1.26 -0.53,-0.02 -1.23,-0.69 -0.59,-1.39 -1.23,-0.91 0.08,-3.18 -0.77,-0.88 -0.51,-0.11 -0.21,0.84 -0.57,-0.77 0.06,-0.27 -2.88,-0.08 -1.14,0.43 -2.08,0.22 -3.27,-0.41 -2.17,-1.83 -0.55,2.14 -0.03,1.36 -0.74,0.65 0.34,0.55 -0.28,0.46 0,0 -1.44,-1.07 -0.38,-0.9 -0.86,-0.73 -0.65,0.42 -1.3,0.14 -1.77,-0.49 -0.13,0.19 0.59,0.72 -0.17,0.69 -1.73,-0.29 -2.05,1.46 -0.38,0.45 0,0.48 -0.34,0.21 -0.21,-0.49 -0.99,-0.27 -0.31,-0.73 0.14,-0.83 -0.12,-0.79 -0.24,-0.6 -1.8,1.21 -0.86,-0.55 -1.27,0.1 -0.82,0.63 -0.86,0 -2.3,1.42 -2.99,-0.14 -3.5,-0.21 -0.89,-0.63 -0.86,-0.07 -1.06,-0.76 -1.34,-0.14 -1.51,-0.83 -1.29,-0.4 -2.46,-1.27 -1.64,-0.68 -2.59,-0.06 -1.16,-0.97 -1.11,-1.53 0,0 0.45,-0.34 -0.01,-0.3 1.1,-0.28 -0.31,-0.03 0.08,-0.33 -0.21,-0.05 0.25,-0.35 0.48,0 0.1,0.52 0.1,-0.36 0.32,-0.06 0.25,0.64 0.64,-0.9 0.8,-0.08 0.39,-2.06 1.16,-2.38 0.28,-1.41 -0.55,-1.48 -0.1,-1.9 -0.63,-1.27 -1.43,-0.57 -2.61,-4.37 -0.33,-2.66 1.54,-1.37 0.19,-1.03 -0.29,-0.7 -0.02,-1.14 1.51,-2.39 -1.04,-1.93 -1.32,-1.01 -0.45,-0.82 0.08,-0.88 1.06,-0.54 -0.32,-0.56 -0.99,-0.55 -0.46,-0.57 0.6,-1.17 0.25,-1.38 0.27,-0.32 0.63,-0.01 0.13,-0.3 -0.21,-2.12 0.42,-0.68 -0.05,-1.83 -0.44,-0.54 -1.45,-0.35 0.15,-0.28 -0.53,-0.61 0,0 0.12,-0.37 1.94,-0.93 0.7,-0.92 4.23,-2.83 2.88,-3.31 2.65,-0.01 0.59,1.36 2.95,-0.51 1.53,-1.12 1.86,-0.79 0.21,-1.69 -1.85,-1.91 -0.11,-0.4 1.74,-0.82 0.47,-0.75 -0.95,-4.33 0.15,-4.97 -2.26,-2.88 3.32,-0.13 8.42,2.42 z" 
                fill="rgb(151, 144, 238)" 
                stroke="white" 
                stroke-width=".7px"
                title="Kâmpôt" 
                id="KH-7" 
            />
        </svg>