<svg xmlns="http://www.w3.org/2000/svg" viewBox="228.75139000000036 157.25043999999966 191.43999999999966 158.66000000000034" width="191.43999999999966" height="158.66000000000034">
            <path 
                d="m 396.00139,157.25044 0,0.51 0.99,0.93 -0.12,2.07 0.79,1.64 -0.02,2.49 -0.7,2.61 0.55,2.58 -0.42,1.18 0.41,1.36 -0.14,1.5 0.27,1.15 -0.23,0.73 0.25,0.55 -0.31,2.36 2.45,1.02 2.27,2.42 0.23,2.56 0,0 -0.13,2.6 1.44,3.64 0.61,3.59 0.83,0.4 0.31,1 2.62,1.41 0.56,1.4 0.96,0.87 0.06,1.03 -0.87,2.26 0.01,0.74 -0.49,0.86 -0.16,1.1 -0.45,0.27 -0.13,0.42 2.28,6.57 0.06,0.84 -0.9,1.66 -0.02,0.56 0.83,1.17 1.64,0.46 1.87,1.94 -0.95,2.57 -1.72,1.02 -0.12,0.74 0.77,2.02 2.07,0.96 1.49,3.82 -0.88,2.68 -1.46,1.54 0.53,1.38 0.58,0.28 0.55,1.04 -0.68,0.54 0.17,1.37 -0.54,1.96 0.42,0.56 0.77,0.22 0.55,2.29 0.86,0.97 -0.69,1.67 -0.08,1.58 0.49,0.43 0.44,1.23 1.71,2.01 -0.09,1.92 0.78,1.76 0.55,3.12 -0.12,1.45 -0.48,1.29 -0.07,2.59 0.61,2.14 0.08,1.84 0.87,2.37 0.11,2.81 0.31,0.84 0.16,2.1 0,0 -2.19,-0.19 -1.42,0.86 -1.71,-0.06 -2.3,0.61 -4.59,-0.6 -10.92,0.34 -0.03,0.41 -0.49,0.14 0.27,0.28 -0.77,0.6 0.17,0.18 -0.26,0.38 -0.28,-0.34 -0.4,0.92 -0.35,-0.15 0.35,0.34 -0.62,0.56 0.21,0.29 -0.54,0.03 0.27,0.29 -0.54,0.32 0.14,0.42 -0.45,-0.32 -0.12,0.44 -0.81,-0.09 -0.15,0.33 -1,-0.23 0.04,0.4 -0.33,-0.11 -0.34,0.31 -1.33,-0.31 -0.06,-0.54 0.5,-0.06 -0.7,-0.48 -0.07,-0.38 -0.76,-0.06 0,0 -0.29,0.25 0.03,0.47 -0.37,-0.13 0,0 0.16,-0.82 0.29,-0.23 -0.56,-0.15 -0.34,-0.53 -0.45,0.2 0.01,0.48 -0.16,-0.5 -0.48,-0.25 0.2,-0.26 -0.22,0.05 -0.34,-0.44 -0.36,0.25 -0.16,-0.4 -0.15,0.14 0.21,0.32 -0.33,0.01 -0.18,-0.68 0.42,-0.06 -0.45,-0.25 -0.05,-0.34 -0.3,0.06 -0.2,-0.61 -0.48,-0.14 0.22,0.38 -0.34,-0.04 -0.17,-0.35 0.22,-0.27 -0.26,0.01 -0.26,0.57 -0.24,-0.38 -0.36,0.09 0.35,0.4 -0.38,0.14 -0.51,-0.23 -0.15,0.29 -0.64,-0.17 -0.36,0.2 -0.18,-0.26 -0.05,0.66 -0.43,0.37 -0.34,-0.28 -0.15,0.26 -0.26,-0.21 -0.08,-0.57 -0.89,0.01 -0.29,0.64 0.48,0.21 0.22,0.51 -0.48,0.27 0.5,0.74 -0.64,0.69 -0.37,-0.03 -0.03,0.58 -0.53,0.68 0.29,1.07 -0.31,0.18 -0.1,1.23 -0.6,0.51 -0.15,0.38 0.24,0.38 -0.27,0.13 0.05,0.29 -1.06,0.92 0.58,0.6 -0.46,0.4 -0.27,1.44 -0.27,0.02 -0.13,0.55 0.2,0.2 -0.46,0.14 -0.37,2.4 -1.08,0.79 -1.27,0.46 -1.89,-0.11 -0.02,-1.44 -0.37,-0.41 -1.11,-0.43 -0.21,-0.84 -3.72,-0.34 -1.12,0.22 -1.16,-1.66 -0.98,-0.4 -0.55,0.27 -0.95,-0.14 -1.35,0.59 -1.17,-0.23 -0.96,-0.75 -0.85,0.15 -0.34,0.79 -1.63,0.33 -1.05,-0.05 -0.28,-0.48 -0.78,-0.25 -0.77,0.3 -0.43,-0.54 -0.47,0.35 0.25,0.78 -0.23,0.44 -0.85,0.87 -0.62,-0.1 -1,0.31 -1,1.11 -0.64,-0.02 -0.41,0.61 0.25,0.59 1.82,1.65 0.44,1.5 1.35,0.67 1.09,0.04 -0.38,0.47 -0.32,1.3 0.67,0.98 -0.38,1.03 0.62,1.83 2.92,2.66 -0.66,1.79 -0.03,1.1 1.52,5.17 -0.64,0.5 -0.55,0.92 -0.87,-0.91 -1.54,0.17 -1,-1 -0.04,-0.97 -1.29,-0.22 -0.32,-0.75 -0.57,-0.22 -0.66,0.15 -0.91,-0.2 -0.88,0.86 -0.2,0.73 -1.21,0.16 -0.21,0.34 -1.27,-0.08 -0.44,-0.29 0.19,-1.72 -0.18,-0.23 -3.57,-0.07 -1.26,-0.44 -4.11,0.56 -0.73,0.46 -0.89,-0.66 -0.26,0.48 -0.22,-0.02 -0.51,-0.58 -0.44,-0.45 -0.17,-0.38 -0.16,-0.41 -0.45,-0.46 -0.37,-0.3 -0.49,-0.03 -0.24,-0.41 -0.14,-0.47 -0.46,-0.23 -0.31,-0.66 -0.15,-0.51 -1.09,-0.59 0.09,-0.29 -1.1,0.02 -0.15,0.29 0.29,0.76 -1,-0.19 -0.57,-0.18 -1.13,-0.14 -1.14,0.39 -0.65,-0.45 -1.1,-0.11 -0.22,0.62 -0.48,-0.14 -0.94,0.26 -0.42,0.54 -0.02,0.9 -2.24,0.95 -1.33,-0.22 0,0 0.04,-0.55 -1.36,-2.28 -0.65,-2.61 -0.62,-0.27 0.03,-0.7 0.39,-0.42 -0.2,-1.27 1.08,-1.38 0.08,-1.29 0.79,-0.02 0.23,-0.54 1.26,-1.13 1.51,-0.51 0.18,-0.81 -0.46,-0.61 0.58,-0.91 0.38,-0.54 0.19,-0.5 -0.41,-0.26 -0.48,-0.9 0.04,-0.36 0.38,-0.96 -0.14,-0.69 -0.57,-0.66 -0.28,0.45 -0.44,0.12 -0.15,0.42 0.24,0.4 -0.14,0.84 -0.88,0.22 -0.53,1.11 -0.42,0.04 -0.23,-0.28 -0.27,0.48 -0.52,-0.06 0.21,-0.67 -0.41,-0.48 0.22,-0.63 -0.2,-0.57 0.76,-0.85 0.08,-1.85 -0.58,-0.74 0.21,-0.44 -0.38,-0.27 0.13,-0.94 -1.07,0.48 -0.5,-0.1 -0.92,-0.82 0.25,-0.39 -0.09,-0.69 -0.8,-0.08 0.82,-0.92 -0.37,-0.21 -0.54,0.17 0.11,-0.42 -0.45,-0.37 0.03,-0.4 -0.46,-0.38 -0.11,-0.54 1.49,-0.42 0.03,-0.53 -0.46,-0.54 -0.96,0.19 -0.62,-0.5 -0.77,-0.06 -0.27,-0.42 -0.1,-0.76 0.88,-0.34 0,-0.49 0.39,-0.35 -0.35,-1.04 0.78,-1.52 -1.17,-1.33 -9.27,-2.4 -6.11,-3.72 -2.16,-0.98 -2.67,-0.8 -3.47,-1.67 -2.5,0.66 -1.59,-0.03 -1.76,1.06 -1.37,0.13 -3.34,1.43 -2.82,1.75 -0.27,0.77 -0.38,0.63 0.17,1.5 -0.24,0.59 -0.6,0.48 -0.75,1.97 -0.89,0.02 -0.35,0.46 -2.23,0 -3.03,-1.22 -0.33,-0.62 -0.99,-0.55 -0.97,-0.41 -0.78,-0.97 -1.41,-0.4 2.19,2.18 -2.87,-1.08 -0.78,-1.95 0.51,-0.74 0.8,-0.21 0.36,0.18 -0.46,-5.32 -6.52,-3.16 0,0 -19.71,-8.74 -1.87,-4.43 0,0 3.11,-3.75 0.07,-2.14 0.81,-1.5 0.64,-0.77 1.01,0.19 -0.25,-0.94 0.72,-0.43 -0.12,-0.69 1.49,-1.52 0.28,-1.01 2.77,-2.76 -0.23,-0.8 0.23,-0.4 1.02,0.22 0.55,-0.54 -0.21,-0.45 0.21,-0.41 0.94,-0.26 1.28,-0.15 0.54,0.17 0.59,-1.03 0.76,0.27 1.46,-0.61 1.11,-0.9 1.25,-0.28 0.64,0.22 1.1,-0.61 1.23,-2.19 -0.22,-0.87 0.45,-0.95 0.23,-0.39 0.57,-0.22 0.45,-0.95 1.21,-1.21 0.67,0.05 0.63,-0.42 2.59,-3.55 2.12,0.09 0.66,-0.91 -0.08,-0.59 0.62,-0.71 0.8,-0.15 0.21,-0.65 0.37,-0.24 -0.11,-0.54 -0.89,-0.67 -0.09,-1.99 0.32,-0.95 0.6,-0.36 0.76,-0.13 0.03,-1.94 0.58,-3.05 -0.03,-5.07 0.52,-1.63 -0.4,-1.74 0.85,-2.57 0.69,-0.87 1.5,-0.27 1.35,-1.11 5.2,-1.78 1.05,-2.46 0.89,-3.12 0,0 5.49,-1 4.55,-1.49 2.77,-1.12 2.19,-1.35 0.8,-0.15 2.01,-1.76 0.59,-0.17 1.39,0.34 0.81,-0.76 1.33,-0.4 0.57,0.11 0.21,0.31 1.6,-0.49 0.63,0.45 0.25,0.65 0.91,0.44 7.28,-0.91 2.1,0.37 4.12,-0.46 0.77,0.18 1.18,2.2 0.16,0.98 -1.32,4.32 -1.28,1.38 0.16,1.27 -0.99,1.07 0.17,1.57 -0.42,1.62 0.41,0.87 0.18,2.41 1.37,1.46 -0.1,2.06 1.96,2.14 0.04,0.74 0.53,1.15 1.28,1.33 1.81,2.67 2.33,2.25 2.68,0.37 3.79,-2.27 6.73,-5.18 6.93,-3.78 4.02,-2.95 1.35,-1.22 0.98,-1.31 1.28,-2.93 1.68,-2.21 5.69,-3.59 4.06,-1.43 1.1,-0.7 8.15,-8.84 1.03,-1.82 0.74,-0.64 4.98,-2.63 6.02,-2.15 3.93,-2.49 5.47,-1.52 1.7,-2.08 z" 
                fill="rgb(151, 144, 238)" 
                stroke="white" 
                stroke-width=".7px"
                title="Kâmpóng Thum" 
                id="KH-6" 
            />
        </svg>