<svg xmlns="http://www.w3.org/2000/svg" viewBox="227.14139000000017 260.47044 90.17999999999984 112.39000000000033" width="90.17999999999984" height="112.39000000000033">
            <path 
                d="m 264.99139,272.94044 0,0 0,0 0,0 z m -14.7,-12.47 6.52,3.16 0.46,5.32 -0.36,-0.18 -0.8,0.21 -0.51,0.74 0.78,1.95 2.87,1.08 -2.19,-2.18 1.41,0.4 0.78,0.97 0.97,0.41 0.99,0.55 0.33,0.62 3.03,1.22 2.23,0 0.35,-0.46 0.89,-0.02 0.75,-1.97 0.6,-0.48 0.24,-0.59 -0.17,-1.5 0.38,-0.63 0.27,-0.77 2.82,-1.75 3.34,-1.43 1.37,-0.13 1.76,-1.06 1.59,0.03 2.5,-0.66 3.47,1.67 2.67,0.8 2.16,0.98 6.11,3.72 9.27,2.4 1.17,1.33 -0.78,1.52 0.35,1.04 -0.39,0.35 0,0.49 -0.88,0.34 0.1,0.76 0.27,0.42 0.77,0.06 0.62,0.5 0.96,-0.19 0.46,0.54 -0.03,0.53 -1.49,0.42 0.11,0.54 0.46,0.38 -0.03,0.4 0.45,0.37 -0.11,0.42 0.54,-0.17 0.37,0.21 -0.82,0.92 0.8,0.08 0.09,0.69 -0.25,0.39 0.92,0.82 0.5,0.1 1.07,-0.48 -0.13,0.94 0.38,0.27 -0.21,0.44 0.58,0.74 -0.08,1.85 -0.76,0.85 0.2,0.57 -0.22,0.63 0.41,0.48 -0.21,0.67 0.52,0.06 0.27,-0.48 0.23,0.28 0.42,-0.04 0.53,-1.11 0.88,-0.22 0.14,-0.84 -0.24,-0.4 0.15,-0.42 0.44,-0.12 0.28,-0.45 0.57,0.66 0.14,0.69 -0.38,0.96 -0.04,0.36 0.48,0.9 0.41,0.26 -0.19,0.5 -0.38,0.54 -0.58,0.91 0.46,0.61 -0.18,0.81 -1.51,0.51 -1.26,1.13 -0.23,0.54 -0.79,0.02 -0.08,1.29 -1.08,1.38 0.2,1.27 -0.39,0.42 -0.03,0.7 0.62,0.27 0.65,2.61 1.36,2.28 -0.04,0.55 0,0 0.18,0.88 0.33,0.13 0.15,0.53 1.35,0.45 0.03,0.53 -0.41,0.1 -0.08,0.61 -0.34,0.05 0.22,0.73 0.44,0.14 1.23,-0.26 0.34,0.91 0.17,5.44 -1,1.11 -0.93,1.77 -0.01,1.67 -2.08,6.09 0.38,0.23 0.13,-0.39 0.62,0.03 1.33,1.79 0.05,1.22 0.4,1.05 -0.62,1.28 0.89,1.72 -0.27,0.62 -0.63,0.29 0.19,0.65 -0.15,1.2 0,0.48 -0.38,0.56 -0.58,-0.14 -0.36,-0.24 -1.04,0.41 -0.13,0.31 -0.94,0.22 -1.05,1.32 -0.76,2.65 -0.52,0.47 -1.13,0.27 -0.45,1.41 -0.19,2.97 -0.91,1.6 0.18,1.42 0,0 -1.35,-1.01 -2.97,0.73 -0.8,1.07 -0.95,-0.93 -1,0.8 0.98,1.8 -0.37,0.73 0.42,0.45 -0.32,0.62 0.69,0.34 0.81,1.34 -1.14,0.56 -0.53,-0.2 -0.41,0.62 -0.98,0.43 -1.46,-0.37 -0.83,0.21 -0.2,0.33 0,0 -0.42,-0.16 -0.57,0.56 -0.47,0.82 -0.66,0.36 -0.78,-0.12 -0.36,0.56 -0.75,0.16 -1.97,-0.43 -1.5,0.46 -0.97,0.17 -1.52,-0.18 -0.53,-0.36 -0.44,0.26 -0.76,0.49 -1.07,0.01 -1.44,-0.05 -0.18,0.33 -0.59,0.66 -0.96,0.5 -0.9,0.47 -0.69,0.28 -0.92,0.79 -1.26,1.17 -0.25,0.73 -0.43,0.3 -0.75,0.32 -0.35,0.85 -1.13,0.67 -0.26,0.45 -1.06,0.74 -0.29,-0.08 -0.43,-0.26 -0.89,0.36 -0.63,0.24 -1.12,0.45 -1.15,-0.44 -0.59,0.16 -0.84,-0.18 -0.29,0.32 -0.57,0.03 -0.57,-0.65 -1.16,-0.46 -0.75,-1.26 -0.39,-0.16 -0.71,0.21 -2.63,-0.54 -2.4,-0.3 -0.5,-0.44 -1.42,-0.26 -0.99,-0.03 -0.78,-0.51 -1.45,0.31 -1.06,-0.77 -1.77,-2.52 -1.88,-1.52 -0.35,-0.37 -0.51,-0.83 -0.12,-0.78 -0.85,-0.63 0.07,-0.75 -0.44,-0.85 0.6,-1.71 -0.9,-1.08 -0.07,-0.61 -0.53,-0.28 -0.15,-1.16 -0.64,-0.18 -0.65,-0.55 -1.03,-1.11 -1.76,-0.72 -1.51,-1.64 -0.18,-0.67 0.43,-1.14 -0.59,-0.99 -0.44,-0.24 -0.57,-1.56 0.05,-0.89 0.7,-1.36 0.21,-1.36 -0.56,-1.32 -0.05,-0.93 -0.88,-1.27 -1.6,-0.17 -2.28,-0.96 -1.23,-2.82 -0.25,-1.4 -0.41,-0.52 0,-0.92 -0.62,-2.11 0,0 0.07,-0.68 -0.5,-1.19 -0.4,-0.91 -0.18,-0.64 -0.54,-0.54 -0.27,-6.94 -0.17,-0.54 -1.43,-0.94 -0.08,-1.56 0.61,-0.73 -0.51,-0.78 1.02,-5.18 0.99,-1.47 0.04,-0.68 1.43,-0.97 0.21,-0.67 0.55,-0.45 0.53,-0.97 0.93,-0.81 0,0 1.92,-0.46 0,0 0.26,0.11 1.26,-0.49 1.08,0.12 1.15,-0.53 0.35,-0.97 2.06,-1.94 1.66,0.06 0.7,-0.5 0.97,-0.23 0.46,0.26 0.02,-0.75 1.03,-0.29 0.49,-0.41 1.51,-2.21 1.73,-5.5 2.13,-1.21 0.77,-1.08 1.18,-0.06 0.86,-0.42 -0.66,-0.78 0.21,-1.16 -1.11,-2.52 0.09,-1.92 0.72,-1.58 0.26,-1.66 -0.07,-0.93 0.05,-0.96 -0.12,-1.11 -0.4,-1.04 -3.21,-12.69 z" 
                fill="rgb(151, 144, 238)" 
                stroke="white" 
                stroke-width=".7px"
                title="Kâmpóng Chhnăng" 
                id="KH-4" 
            />
        </svg>