<svg xmlns="http://www.w3.org/2000/svg" viewBox="286.88138999999956 352.84044 79.21000000000015 124.74999999999977" width="79.21000000000015" height="124.74999999999977">
            <path 
                d="m 296.98139,361.37044 0.2,-0.33 0.83,-0.21 1.46,0.37 0.98,-0.43 0.41,-0.62 0.53,0.2 1.14,-0.56 -0.81,-1.34 -0.69,-0.34 0.32,-0.62 -0.42,-0.45 0.37,-0.73 -0.98,-1.8 1,-0.8 0.95,0.93 0.8,-1.07 2.97,-0.73 1.35,1.01 0,0 1.92,2.16 -0.66,3.24 0.28,0.82 -0.33,1.32 0.28,0.32 2.27,-0.29 0.08,-0.85 0.33,-0.07 0.81,0.71 0.5,-0.09 0.4,0.43 -0.06,0.32 0.55,0.27 0.81,0.21 0.64,-0.83 0.4,0.4 0.4,-0.07 1.17,0.91 0.41,0.87 0.76,0.14 1.08,-0.29 0.29,-1.06 0.93,-0.77 0.36,-0.79 1.02,-0.44 0.35,-0.86 -0.13,-0.27 0.32,-0.09 0.21,-0.52 -0.23,-0.83 1.18,-1.16 -0.09,-0.7 0.25,-0.73 0.34,0.1 0.11,1.47 0.66,0.65 1.42,-0.94 1.38,-2.03 0.65,0.14 0.34,0.69 0.43,0.15 0.04,0.83 0.77,1.08 0.01,0.4 4.23,0.64 1.17,2.14 2.05,1.99 0.17,1.06 -0.76,0.72 -0.87,0.2 -0.35,1 -0.46,2.23 0.27,0.81 0.07,2.07 4.75,0.22 0.99,1.67 0.68,0.32 0.67,-0.02 0.7,-0.61 1.03,-0.3 2.82,0.92 2.03,-0.12 0,0 -0.05,0.55 -0.66,0.53 0.41,1.22 -0.15,1.14 -1.04,0.21 -0.1,0.84 -1.11,-0.19 -0.55,0.21 -0.71,1.19 0.09,1.59 -0.95,0.93 0.26,0.82 0.91,0.55 0.18,0.95 -2.6,1.21 0.07,1.05 -0.71,0.5 -0.38,0.65 0.15,0.47 0.98,0.89 -0.24,0.44 0.24,0.73 -0.08,0.89 0.69,1.52 -0.22,0.72 -0.28,0.64 0.02,0.42 1.05,2 0.3,0.26 0.69,-0.1 0.57,0.5 -0.64,0.26 -0.11,1.46 1.11,0.79 0.91,0.3 1.01,-0.56 0.74,-0.08 1.03,0.49 1.04,1.03 1.08,0.27 1.77,-0.63 0.78,1.73 0.84,0.68 -0.17,0.69 0.39,1.19 0.52,-0.3 1.22,0.59 -0.12,1.57 0.96,0.68 0.76,0.49 0.51,0.28 0.07,0.71 1.23,0.58 0.93,-0.83 0.92,1.05 1.02,-1.13 1,1.16 -0.5,0.88 0.49,0.65 0.54,0.2 0.1,0.8 0.65,0.65 -1.71,1.94 -3.39,2.25 0.52,4.11 1.32,3.03 0.39,1.51 0.86,6.75 0.01,1.96 -2.33,6.12 -2.02,1.76 -0.07,3.4 -1.38,3.92 -1.38,1.87 -2.25,1.93 -1.29,1.51 0.31,7.53 -0.7,3.21 -0.25,2.55 -0.59,1.68 -0.09,1.49 0.72,5.52 0,0 -1.01,0 -3.26,-1.43 -6.09,0.47 -0.43,-0.39 0.2,-0.58 1.72,-2.5 -0.14,-1.65 -0.68,-0.21 -1.78,0.66 -1.69,0.02 -0.36,0.29 -0.24,2.2 -1.39,-0.22 -1.63,0.9 -0.54,0.63 0.35,1.19 -1.27,0.5 0.21,1.48 -0.86,0.47 0,0 -0.54,-1.27 1.28,-2.45 -0.49,-1.19 -0.15,-1.41 -0.78,-1.69 -0.05,-3.62 -4.28,-0.9 -0.67,-1.14 0.9,-2.71 -0.67,-0.97 0.77,-1.71 -0.37,-0.7 0.2,-0.28 0.49,0.05 0.67,-2.53 0.49,-0.72 0,-1.36 0.88,-0.65 -0.07,-1.37 0.34,-0.78 -0.47,-0.82 0.47,-0.43 -0.36,-1.06 0.51,-1.74 -0.23,-0.94 0.77,-0.28 0.1,-0.3 -0.47,-0.31 -1.28,0.48 0.29,-0.72 0.38,0.04 0.28,-0.38 -0.27,-0.61 -3.83,-0.1 -0.87,-1.16 0.7,-2.58 -0.58,-2.15 -4.9,-2.58 -0.88,-1.12 -0.83,-2.43 1.17,-2.22 0.38,-1.33 -0.12,-3.76 -1.35,0.37 -1,-0.5 0.03,-0.46 -1.26,-1.21 -0.85,0.04 -1.17,-0.85 -0.72,0.21 -0.45,-0.22 -0.14,0.25 -0.82,0.11 -0.12,-0.61 -1.39,0.16 -1.31,1.08 -0.68,-0.19 -1.55,0.16 -0.75,-0.43 -1.68,-0.34 -0.86,-0.55 -0.96,-0.06 -3.6,0.91 -1.86,1.14 -2.9,-1.76 0,0 6.14,-6.64 1.26,-2.03 -0.03,-0.46 -0.36,0.16 -0.41,-0.28 0.02,0.96 -0.24,0.23 -0.51,-0.09 -0.13,-0.12 0.48,-0.63 -0.41,-0.08 -0.17,0.32 -0.72,-0.18 0.48,-0.79 -0.42,-0.4 0.05,0.46 -0.79,0.75 -0.5,-0.19 0.08,-0.55 -0.51,0.08 -0.23,-0.02 -0.47,-0.11 -0.51,0.4 -1.05,-0.23 -0.66,-0.18 -0.8,-1.1 -0.75,0.37 -0.09,-0.53 -0.3,-0.18 -0.54,0.66 -1.67,0.65 -0.64,-0.18 -0.15,-0.66 -0.75,-0.13 -0.26,0.84 -0.48,0.28 -0.26,0.65 -0.48,0.11 -0.5,-0.58 -0.69,-0.14 -0.82,-0.9 -0.73,-0.24 0.8,-4.81 -0.04,-2.55 0.38,-0.63 1.76,-7.51 -0.21,-4.36 1.16,-5.77 1.45,-4.59 2.5,-4.35 1.11,-2.52 2.92,-8.48 -0.06,-2.6 -1.67,-0.7 z m 10.93,21.79 0,0 0.15,-0.71 -0.38,0.03 -0.22,-0.41 -0.49,0.19 -0.02,0.42 -0.19,0.29 -0.58,0.42 -0.28,-0.2 0,0 -0.64,0.36 0,0 -0.22,0.32 0.4,0.94 -0.66,0.54 -0.6,-0.27 -0.26,0.36 0.54,1.19 -0.38,0.05 -0.71,0.86 -0.2,4.86 -0.01,0.92 0.09,0.39 -0.44,0.64 -0.13,1.56 0.31,0.34 1.15,-0.11 0.13,0.95 0.64,1.23 1.58,-0.25 0.87,1.87 -0.15,1.05 -2.35,0.15 -0.98,0.69 -1.34,5.89 0.02,0.87 0.68,0.53 0.66,0.19 0.53,0.31 0.85,1.16 1.29,0.15 0.53,-0.7 -0.47,-0.32 0.6,-0.61 0.81,0.56 1.26,-0.15 0.83,-0.64 0.61,-0.78 0.72,-0.32 0.64,0.07 0.2,-0.45 0.57,-0.31 0.02,-0.9 -0.09,-0.62 1.44,-0.75 0.65,0.08 0.85,0.69 0.14,0.62 0.72,0.11 0.01,0.51 0.52,0.57 0.52,0.16 0.39,0.6 1,0.59 0.58,-0.26 0.14,-0.27 0.14,-0.13 -0.56,-1.87 0.39,-2.24 3.14,-1.17 1.66,0.29 1.33,-0.74 0.48,-0.57 -1.9,-4.77 0,-1.71 -1.67,-1.2 -0.41,-3.62 -2.93,-7.88 0.61,-2.19 0,0 -8.14,0.05 0,0 1.24,1.59 -3.17,2.35 -0.26,-1.05 -0.43,-0.06 0,0 -0.76,0.32 -0.61,-0.65 z" 
                fill="rgb(151, 144, 238)" 
                stroke="white" 
                stroke-width=".7px"
                title="Kândal" 
                id="KH-8" 
            />
        </svg>