<svg xmlns="http://www.w3.org/2000/svg" viewBox="494.8113900000006 161.28043999999997 156.57 170.44999999999985" width="156.57" height="170.44999999999985">
            <path 
                d="m 496.23139,163.43044 3.38,-0.52 3.36,-1.3 1.69,-0.33 5.04,2.93 3.86,1.75 2.87,3.31 0.47,0.03 0.76,0.56 1.14,0.21 3.02,-0.41 2.08,2.16 1.09,0.29 2.21,1.56 0.39,0 0.51,-0.47 0,0 17.01,12.01 3.78,3.59 6.71,1.65 0.6,0.43 3,0.84 1.59,0.18 2.11,-0.21 1.03,0.14 0.95,-0.52 1.17,0.03 1.23,0.55 1.09,0.07 1.75,-0.57 0.37,0.2 1.45,-0.91 0.63,0.31 0.54,-0.15 0.9,0.63 0.69,-0.23 1.96,-0.63 0.33,-0.38 0.83,0.09 0.39,0.44 0.45,-0.07 0.8,-0.43 0.78,0.22 0.12,0.54 0.37,-0.01 0.35,0.48 0.07,0.74 0.38,0.01 0.92,-0.1 0.45,-0.72 0.96,-0.48 0.53,-1.21 0.65,-0.44 0.72,-0.53 0.43,0.04 0.52,-0.58 0.14,-0.41 0.06,-0.87 -0.36,-0.45 0.45,-0.94 -0.2,-0.73 0.72,-0.5 0.15,-0.5 0.41,-0.48 -0.29,-0.8 -0.6,-0.62 0.08,-0.78 0.37,-1.67 -0.59,-0.2 -0.49,-0.64 0.07,-1.08 -0.47,-0.09 -0.06,-0.64 -0.31,-0.62 -0.68,-1.23 0.13,-0.38 0.92,-0.12 -0.36,-0.61 0.21,-0.33 0.23,-0.09 1.72,1.44 1.66,0.12 2.09,-0.89 1.19,-1.77 1.44,-0.2 1.5,0.83 0.26,1.56 0.83,0.6 0.99,0.14 2.08,-0.24 2.49,-1.35 1.11,-1.58 1.93,-0.74 0.26,-1.1 -0.26,-1.61 0.34,-0.63 0.71,-0.45 3.15,1.03 2.79,6.27 1.27,0.26 1.04,-0.26 1.09,-0.79 2.22,0.04 1.08,1.4 1.37,1.08 0.33,1.04 1.13,1.39 1.61,-0.72 1.28,0.16 0.28,-0.88 1.27,0.27 0.13,-0.31 -0.33,-1.2 0.58,-0.11 1.23,-0.99 2.82,-0.77 0.5,-0.97 0.45,-0.12 0.79,0.32 0.29,-1.43 0.98,-0.68 0.63,0.46 2.17,3.09 0.65,0.39 0.38,0.82 0.34,0.2 1.04,-0.85 0.43,0.08 0.34,0.73 0.34,0.15 1.97,-0.62 2.35,0.88 0.46,0.67 1.28,0.5 0.95,-1.15 1.03,-0.31 0.24,-1.17 1.18,-0.19 0.74,0.54 0.93,-0.42 0,0 -14.41,34.1 0.16,1.64 0,2.41 0.96,0.59 -0.28,1.29 0.42,0.97 0.57,0.51 -0.33,0.37 -0.91,-0.14 -0.89,0.51 -0.36,3.19 1.09,0.83 0.34,0.9 -0.46,0.67 0.42,0.58 0.79,0.59 -0.35,0.55 -0.28,0.93 -0.53,0.49 -0.09,0.56 0.63,0.35 0.23,1.86 0.66,0.78 0.97,0.4 0.18,0.64 -0.21,0.74 1.2,0.43 0.68,1.71 1.54,0.6 0.78,1.75 0.66,-0.18 0.4,0.75 -0.26,1.37 0.64,0.23 0.68,2.16 -0.45,0.2 -0.11,0.54 0.39,0.97 -0.43,1.58 0.12,1.8 0.41,1.11 0.56,1.2 -1.02,1.47 0.07,1.16 0.37,0.45 0.57,0.14 0.88,1.4 0.96,1.64 -0.69,0.3 -0.01,0.72 -0.6,0.51 -0.12,1.48 -0.08,0.94 0.32,0.9 0.06,1.79 0.74,0.39 0.76,1.18 -0.4,0.54 0.5,0.77 0.03,0.69 -0.48,0.85 -0.24,1.99 1.2,2.08 -0.14,0.39 -1.38,1.15 -0.31,0.82 0.19,0.63 -0.65,0.62 -0.85,0.35 -0.32,0.63 -0.02,0.71 0.83,0.54 -0.21,0.65 0.24,0.42 1.28,1.06 -0.49,2.1 -0.74,0.31 -0.55,0.72 0.55,0.84 -0.38,0.52 0.26,0.77 -0.29,0.63 -0.4,0.12 -0.87,1.82 -0.52,1.74 -0.83,0.35 0.13,2.7 1.13,1.87 -0.45,0.66 -0.72,0.34 0.3,1.33 -0.35,1.22 -0.24,0.25 -0.81,-0.14 -0.33,0.77 -0.75,0.57 -1.28,0.41 -0.26,0.71 -0.49,0.37 -5.4,2.2 -0.12,1.26 -1.14,0.89 -1.62,0.24 -0.06,1.76 -0.65,0.71 0.44,1.01 -0.69,0.98 -0.36,1.43 -1.46,-0.11 -0.64,0.72 -0.45,-0.99 -1.85,-1.07 0.01,-0.6 -1.43,-1.23 -0.09,-1.01 0.31,-0.75 -0.63,-0.4 -0.23,-0.63 -0.5,-0.37 0.07,-0.62 -0.4,-0.57 -1.09,-0.91 -0.44,-0.82 -0.92,-0.25 -0.72,-0.67 -0.38,-0.9 -0.22,-0.12 -0.85,1.06 -1.36,0.05 -1.16,0.58 -0.58,-0.11 -0.04,-0.96 -0.38,-0.41 -0.8,0.6 -1.34,0.04 -1.31,0.77 -1.57,-0.38 -0.52,1.03 -1.75,0.69 -0.02,0.35 -0.92,0.64 -1.48,0.95 -1.14,0.07 -1.55,-0.56 -0.82,0.19 -1.41,0.41 0.04,0.5 -2,1.32 -0.9,0.3 -1.03,-0.11 -0.92,0.4 0.01,0.79 -0.82,0.76 -0.14,0.61 0.03,0.9 -0.51,0.15 -0.04,0.99 -0.06,1.64 -0.71,0.11 -0.4,0.51 -0.37,-0.3 -0.7,0.92 -0.4,-0.04 -1.24,0.85 -0.68,0.58 0.04,0.78 -0.6,0.46 0,0.87 -0.56,1.33 -0.87,-0.04 0.08,-0.55 -0.78,0.14 -0.69,-0.46 0.04,0.41 -0.52,0.84 1.14,1.04 -0.07,0.83 -0.6,-0.1 -0.61,0.5 -1.01,0.25 -0.69,0.73 -0.08,1.12 -0.59,0.1 -0.29,0.57 0.25,0.43 -0.61,0.4 -0.89,0 -1.06,0.79 -0.21,0.55 -0.62,0.08 -0.77,0.41 -0.28,-0.46 -1.16,0.68 0.02,0.26 1.03,0.05 -0.05,0.44 -0.74,0.3 0.22,0.58 -0.79,0.49 -0.31,0.5 -0.85,-0.11 0.08,0.89 -0.55,0.39 -4.81,1.38 -0.73,0.88 -0.73,-0.15 -1.41,0.67 -1.38,0.12 -1.02,-0.73 -1.21,0.25 -1.46,-0.85 -0.94,-0.14 -1.14,0.05 -1.53,0.48 -0.33,0.4 -1.1,-0.98 -1.35,0.31 -0.93,-1.25 -0.51,-0.18 -0.86,0.02 -0.32,0.47 -0.93,0.02 -0.88,-0.64 0,0 -0.16,-1.5 -0.91,-2.33 1.02,-2.5 -0.19,-1.13 -0.55,-0.98 0.6,-0.81 0.19,-0.75 -0.48,-1.37 0.84,-1.98 -1,-1.46 -0.62,-0.47 -0.59,-1.29 -1.97,-2.18 -0.77,-2.07 -0.43,-0.01 -0.93,-0.64 -0.59,-1.21 -0.75,-0.52 -2.04,-0.65 -2.12,-1.57 -3.19,-0.49 -2.04,-0.87 -1.56,-0.19 -1.33,-0.8 -1.69,-0.08 -0.91,-0.63 -1.48,-0.48 -0.96,-1.25 -0.86,-1.71 -1.34,-4.03 -1.99,-4.61 -1.82,-0.53 -0.68,-0.72 -1.26,-0.22 -1.14,-0.77 -0.37,-1.03 -0.48,-0.38 -0.49,-0.21 -0.33,0.16 -0.79,-0.47 0,0.21 -0.49,0.13 -0.57,-0.06 -12.52,-8.1 -3,-1.34 -1.53,-1.78 0.55,-3.6 4.39,-10.78 0.48,-4.23 3.02,-5.25 1.93,-1.92 3.97,-2.48 0.75,-0.63 0.73,-1.23 1.46,-1.21 0.52,-0.1 -0.04,-0.29 0.98,0.21 0.24,-0.51 0.43,0.21 0.06,-0.42 0.58,0.12 0.26,-0.33 1,-0.32 0.71,0.33 0.57,-0.2 6.29,-5.61 1.21,-1.45 0.82,-1.67 0.51,-3.56 0,-1.95 -0.4,-1.67 -1.31,-1.86 -2.95,-2.38 -3.19,-2.12 -2.79,-1.67 -3.86,-1.85 -3.99,-2.6 -0.62,0.15 -1.05,-0.36 -1.06,0.55 -1.98,-1.32 -0.76,0.16 -0.13,-0.29 -0.27,0.06 -0.03,-0.44 -1.26,-1.3 -0.13,-1.18 -3.03,-1.42 -0.91,-1.59 -1.62,-1.77 0.07,-0.51 -0.7,-0.94 -1.26,-0.67 -0.42,-0.79 0.09,-0.41 -0.34,-0.89 0.28,-0.73 -0.02,-0.99 -0.29,-0.7 0.29,-1.56 0.39,-0.54 0.01,-1 0.67,-1.52 0.56,-0.24 4.35,0.19 1.29,-0.53 1.8,0.9 0.72,-0.2 1.12,0.21 0.24,-0.4 -0.83,-2.77 -1.94,-2.32 -0.98,-0.89 -3.7,-1.83 -0.54,-2.1 -1.74,-2.92 -0.65,-1.64 -0.15,-1.08 0.55,-1.49 0,-1.88 0.84,-2.4 -0.36,-1.86 -0.45,-0.71 0.38,-2.08 -0.34,-0.8 z" 
                fill="rgb(151, 144, 238)" 
                stroke="white" 
                stroke-width=".7px"
                title="Môndól Kiri" 
                id="KH-11" 
            />
        </svg>