<svg xmlns="http://www.w3.org/2000/svg" viewBox="45.82138899999995 206.36044 208.72000100000002 152.92000000000016" width="208.72000100000002" height="152.92000000000016">
            <path 
                d="m 193.42139,206.36044 4.55,6.7 7.53,9.33 2.85,2.39 7.29,8.44 7.17,3.4 2.84,3.4 3.07,7.28 0,0 1.87,4.43 19.7,8.74 0,0 3.22,12.7 0.4,1.04 0.12,1.11 -0.05,0.95 0.07,0.93 -0.26,1.66 -0.72,1.58 -0.08,1.92 1.11,2.52 -0.21,1.16 0.65,0.78 -0.85,0.42 -1.19,0.05 -0.77,1.08 -2.13,1.21 -1.73,5.49 -1.51,2.21 -0.49,0.41 -1.03,0.29 -0.02,0.75 -0.45,-0.26 -0.98,0.23 -0.69,0.5 -1.66,-0.06 -2.06,1.94 -0.35,0.98 -1.15,0.53 -1.08,-0.12 -1.25,0.49 -0.27,-0.11 0,0 -1.91,0.47 0,0 -0.93,0.81 -0.53,0.97 -0.55,0.45 -0.22,0.67 -1.42,0.97 -0.05,0.67 -0.99,1.47 -1.02,5.19 0.51,0.77 -0.61,0.74 0.09,1.56 1.43,0.94 0.17,0.54 0.27,6.94 0.54,0.54 0.17,0.64 0.4,0.92 0.5,1.19 -0.07,0.68 0,0 -1.14,0.79 -1.1,2.2 0.18,1.61 -0.22,0.29 -0.99,-0.25 -0.55,-0.75 -0.85,-0.49 -1.5,-0.12 -0.33,0.06 -0.42,0.86 -1,0.09 -1.17,-0.62 -1.32,0.05 -0.52,0.19 -0.86,0.95 -1.32,-0.11 0.49,2.13 -0.7,3.27 -0.45,0.66 0,1.07 -0.87,-0.38 -0.44,0.09 -0.46,0.45 0.29,0.58 -0.35,0.91 -0.23,0.15 -1.22,-0.31 -0.47,0.23 -0.92,1.47 0.61,0.84 0.99,2.86 -0.33,0.65 -0.87,0.24 -1.37,-0.21 -0.3,0.52 -0.87,0.42 -1.76,1.7 -2.27,-0.34 -0.92,0.18 -0.36,-0.18 -0.17,-0.72 -0.99,-1.32 -0.23,-1.35 -0.55,-0.6 -1.29,-0.05 -0.31,-0.34 -1.15,-0.09 -0.53,-0.56 -1.01,0.09 -0.47,0.35 -0.08,0.56 -2.18,0.55 -0.13,2.59 0.52,0.81 0.32,0 -0.25,0.18 -0.01,0.62 -0.53,0.14 -0.3,0.74 -2.75,0.71 -0.54,1.01 -0.67,0.34 -1.16,1.6 0.38,0.65 -0.07,1.01 -0.9,-0.2 -0.55,0.66 -0.75,0.17 0,0 -1.15,-1.28 -0.75,-0.15 -0.46,-0.74 -0.35,-1.52 -0.61,-0.93 -1.96,-1.89 -0.09,-0.72 -0.64,-1.01 -0.49,0.22 -0.45,-0.44 -0.43,-0.67 -0.09,-0.92 -1,-0.99 -1.62,-0.01 -0.62,-0.32 -0.82,1.03 -0.87,-0.04 -1.1,-0.72 -0.86,-1.03 -2.4,1.55 -1.39,-0.48 -0.27,-0.65 -1.71,-0.59 0.71,-0.64 -0.41,-2.1 -0.46,-0.22 -2.32,-0.08 -0.95,-0.81 -1.4,-0.33 -0.27,-0.49 -0.42,-0.1 -0.01,-0.52 -0.7,-0.36 -0.92,0.09 -0.35,-0.73 -0.73,-0.38 1.04,-0.93 0.11,-0.56 -0.44,-0.88 -2.74,-0.78 -0.83,-0.55 -0.52,-1.18 -0.72,-0.76 -0.47,-0.15 -0.87,-1.54 -1.46,-0.43 -0.45,-1.3 -0.55,0.18 -0.52,-0.7 -1.25,-0.53 -0.26,-0.41 -1.33,-0.79 0.12,-0.43 0.43,-0.25 -0.43,-0.58 -0.95,-0.48 -0.83,0.18 -0.37,-0.47 -1.48,-0.57 -2.07,0.88 -0.81,-1.2 -0.41,0.09 -0.75,-1.06 -0.66,-0.02 -1.44,1.92 -0.5,0.13 -0.71,0.7 -1.44,0.37 -0.44,0.57 -1.57,-0.78 -0.1,-0.35 -0.64,-0.1 -0.21,-0.71 -1.21,-0.17 -0.37,-0.66 -1.02,0.1 -1.2,1.39 0.2,0.56 -0.36,0.42 0.49,0.96 -0.31,0.65 0.55,0.54 -0.45,0.26 -0.81,-0.17 -1.19,1.19 -0.33,0.06 -0.5,2.18 0.27,1.77 -1.9,0.35 -1.12,0.91 -0.94,0.07 -0.68,1.11 -0.47,0.25 -0.04,0.76 -1.14,2.08 -1.91,0.05 -0.16,0.48 -0.53,0.23 -2.33,-1.19 -0.43,0.09 -0.6,0.54 -0.82,0.26 0.06,0.5 -0.46,0.61 -0.9,-0.14 -0.18,-0.28 -1.78,0.18 -0.22,0.78 0.13,0.73 -0.74,0.79 -0.53,-0.43 -2.53,-0.41 -0.53,0.2 -1.16,1.18 -1.33,0.49 -0.36,-0.14 -1.39,0.76 -0.84,-0.53 -1.760001,0.48 -3,-0.34 -11.87,-5.24 -2.74,-1.05 -2.93,-0.66 -21.6,-1.41 -2.25,-1.05 0,0 -0.86,-1.9 0.08,-1.99 -0.58,-1.69 -0.46,-1.18 -0.84,-0.64 -1.43,-2 -1.47,-1.63 -0.46,-2.14 -0.37,-0.56 -0.77,-0.27 -0.62,-0.8 -0.93,-1.66 -0.15,-1.71 -0.64,-0.91 0.37,-1.62 0.67,-1.21 -0.44,-1.35 0.51,-1.88 0.7,-0.58 0,-2.86 -0.6,-1.6 1.11,-2.96 0.43,-2.33 0.04,-2.74 -0.37,-1.17 0.05,-1.72 0.26,-2.08 1.73,-1.93 0.21,-0.74 0.6,-0.42 1.68,-0.6 1.39,0.04 0.94,-0.82 0.74,-0.04 0,0 1.28,1.55 0.59,1.21 1.18,0.73 0.22,0.43 1.06,-0.87 0.2,-0.38 -0.34,-0.6 0.45,-1.05 0.61,-0.37 0.14,-0.66 0.56,-0.33 0.65,-0.96 1.93,0.67 -0.07,0.38 2.66,0.84 0,-0.55 0.36,-0.58 0.77,-0.76 0.92,-0.78 0.62,-0.33 0.56,-0.92 0.37,-0.06 0.06,-0.5 0.27,-0.12 0.57,0.33 0.25,0.43 1,-0.42 0.3,-0.44 2.39,0.56 1.17,-0.68 -0.08,-0.69 2.06,-0.92 0.71,-0.3 0.06,-0.9 1.05,-1.84 1.81,-1.61 1.44,1.18 0.09,0.78 1.29,1.78 0.19,1.07 0.83,-0.01 0.66,0.46 4.25,0.84 0.48,-0.42 -0.12,-2.13 0.19,-0.3 0.56,-0.05 0.68,-0.57 0.84,-0.03 0.76,0.3 1.01,-0.13 0.35,-0.78 2.66,-1.65 1.03,-0.19 0.17,-0.64 0.700001,0.03 1.58,0.99 0.57,-0.02 1.03,-1.37 1.73,-1.58 2.93,-0.78 1.92,-1.66 0.69,-0.29 1.15,0.22 1.35,0.72 0.91,-1.18 1.49,-0.53 0.77,-1.23 0.97,-0.04 0.48,-0.84 2.24,0.34 -0.07,-1.32 0.54,-0.5 0.2,0.21 0.55,-0.21 0.33,0.16 0.34,0.27 0.5,-0.23 0.75,0.04 0.01,-0.31 -0.46,-0.08 -0.04,-0.66 4.41,0.93 0.17,1.15 1.43,0.06 1.21,-1 0.68,0.08 0.37,-0.22 1.4,0.31 4.64,2.24 0.4,-0.12 1.81,0.6 0.94,0.97 1.93,1.08 0.54,0.57 3.16,1.34 1.35,0.05 1.92,-1.23 3.03,-0.97 4.94,-0.23 0.98,-0.38 0.54,-1.02 0.21,-0.71 0.6,-1.26 0.27,-0.86 1.01,-0.93 0.34,-0.37 -0.2,-0.32 0.19,-0.43 1.02,-0.63 -0.31,-0.5 -0.4,-0.79 -0.59,-0.55 -0.07,-0.61 1.14,-1.27 -0.85,-0.96 0,-0.43 0.31,-0.65 -0.13,-0.68 0.46,-0.23 0.06,-0.5 0.69,-0.17 0.3,-0.3 0.24,-0.44 -0.52,-0.51 -0.01,-2.25 -0.39,-0.09 -0.21,0.18 -0.31,0.01 -2.41,-1.78 2.17,-3.01 -0.17,-1 -0.48,-0.72 -0.47,-0.13 -0.53,-0.61 -0.08,-0.53 0.32,-0.69 -0.21,-0.44 -0.22,-0.46 -0.23,-1.33 0.43,-0.67 -0.03,-0.45 -0.4,-0.62 -0.08,-0.51 0.67,-0.87 -0.21,-0.59 0.52,-0.8 0.55,0.11 0.34,-0.48 0.04,-0.92 0.05,-0.65 0.28,-0.34 0.3,-0.35 0.63,-0.89 -0.12,-0.66 0.09,-0.4 -1.59,-0.3 -0.17,-1.16 0.48,-0.97 -0.11,-0.68 1.25,-1.02 1.17,-0.36 0.53,-0.48 1.47,-0.48 1.29,0.04 0.45,-0.03 0.41,-0.13 0.64,-0.24 0.55,-0.37 0.19,-1.21 -0.25,-0.83 -0.02,-1.27 0.8,-1.36 -0.22,-0.32 0.1,-0.68 1.1,-0.83 0.28,-0.64 1.47,-0.4 0.76,0.18 0.32,-0.52 -0.24,-1.9 -0.99,-0.36 -0.43,-0.77 -0.21,-0.8 0.11,-1.32 1.59,-1.43 0.07,-1.21 0.91,-0.65 0.3,-1.13 0.86,-0.39 4.52,0.26 9.77,-3.66 z" 
                fill="rgb(151, 144, 238)" 
                stroke="white" 
                stroke-width=".7px"
                title="Poŭthĭsăt" 
                id="KH-15" 
            />
        </svg>