<svg xmlns="http://www.w3.org/2000/svg" viewBox="342.1413899999998 355.7804399999999 87.29000000000025 126.4800000000003" width="87.29000000000025" height="126.4800000000003">
            <path 
                d="m 349.22139,372.72044 0.54,-1.29 -0.23,-0.83 -0.64,-0.77 0.01,-0.41 1.35,-0.16 0.69,-0.69 0.98,0.07 1.66,-1.83 1.6,-0.43 1.1,-0.66 0.71,-0.97 0.63,0.13 1.19,-0.55 0.77,-0.56 1.04,-0.61 1.8,-3.51 0.3,-0.19 0.82,0.1 0.49,-0.9 0.85,0.28 0.18,-0.8 -0.47,-0.24 -0.06,-0.47 0.67,0.24 0.67,-0.48 1.72,-0.13 0.78,-0.51 1.05,-0.15 0.52,-0.62 0.33,0.72 0.83,0.48 -0.01,0.47 0.78,0.46 1.15,0.23 1.23,-0.62 0.42,0.57 0.82,0.36 0.25,0.52 1.7,0.42 0.29,0.41 1.14,-1.03 0.62,0.17 0.51,0.65 0.1,0.68 0.67,0.43 0.26,0.35 0.21,0.6 -1.09,0.79 0.33,0.42 0.26,1.46 -0.29,1.26 0.39,1.61 0.73,1.15 2.58,1.91 0.65,-0.01 1.82,-1.3 4.28,0.28 2.14,0.97 1.68,0 0.83,0.46 5.14,0.35 4.98,0.82 3.81,-0.12 2.24,0.6 4.19,-0.51 2.52,2.29 1.59,3.94 1.51,1.34 0.48,0.06 0.02,0.3 0.74,0.16 0.21,1.12 0.8,0.26 0.22,0.44 -0.19,0.7 0.35,0.13 0.04,0.31 -0.44,0.18 0.36,0.29 -0.09,0.59 0.36,0.03 -0.08,0.47 0.45,0.21 0.03,0.35 0.51,0.13 -0.24,0.41 0.63,0.2 -0.19,0.19 0.81,0.57 0.21,0.49 0.47,0.02 -0.15,0.48 0.56,0.39 0.2,0.93 1.3,0.25 0.52,0.71 0,0 0.01,0.14 0,0 -1.66,0.16 -1.63,1.16 -1.96,-0.07 -1.61,0.26 -1.06,-0.22 -0.41,0.65 0.12,0.64 -2.16,0.28 -4.07,1.37 -0.53,0.65 0.15,1.64 -1.61,1.56 0.36,0.49 -0.06,0.86 0.67,1.76 -0.53,0.68 -0.12,0.61 -1.13,0.63 -0.61,0.86 -0.17,0.86 0.57,1.85 0.03,1.31 -1.19,2.02 -0.94,4.81 0.32,7.1 -0.25,2.82 0.22,1.17 0.7,0.85 0.28,1.74 0.91,1.88 -0.07,1.43 -2.09,-0.05 -1.07,-1.07 -1.23,0.8 0.37,0.38 -0.12,0.6 -0.66,0.88 -0.72,0.26 0.04,1.52 -0.99,1.66 -0.94,2.88 -0.37,0.36 0.84,2.57 0.03,2.98 0.38,1.55 0.42,0.76 2,1.8 -1.34,1.59 -1.43,1.05 0.01,0.49 -0.88,0.69 0.07,0.35 -0.5,0.91 0.29,0.31 -0.48,0.82 0.27,0.56 -0.26,0.62 0.28,1.23 -0.96,1.58 -0.03,1.17 -0.74,0.34 0,0.46 -0.43,0.25 0.04,0.57 -0.85,1.12 0.7,0.91 0.95,0.47 1.88,0.21 0.35,0.45 -0.04,0.96 -0.35,0.23 0.06,0.29 0.59,0.83 0,0 -4.55,1.33 -3.02,0.51 -1.9,0.88 -3.5,0.32 -1.07,-0.7 -0.41,0.79 -1.56,-0.56 -0.07,-0.69 -1.12,-0.79 -1.12,0.03 -1.07,1.02 -0.51,0.1 -1.1,-0.63 -1.3,-1.69 -0.68,0.09 -0.4,1.13 -1.51,2.55 -0.01,0.52 -0.51,0.45 0.08,0.64 -2.51,1.43 -0.49,0.56 -0.07,0.54 -0.39,0.95 -0.69,-0.14 -0.27,0.29 -0.45,1.73 -1.11,0.18 0,0.83 -0.78,0.19 -0.91,1.43 -0.63,-0.06 -0.32,0.26 0.09,0.75 -6.57,-3.41 -1.36,-0.19 -1.21,-1.04 -3.23,0.5 -3.04,-1.13 -1.79,-1.13 -1.24,-0.11 0,0 -0.72,-5.52 0.09,-1.5 0.59,-1.68 0.25,-2.54 0.71,-3.21 -0.32,-7.53 1.29,-1.51 2.25,-1.93 1.38,-1.87 1.38,-3.92 0.07,-3.4 2.02,-1.75 2.33,-6.12 0,-1.97 -0.87,-6.74 -0.39,-1.52 -1.32,-3.03 -0.51,-4.12 3.38,-2.24 1.71,-1.94 -0.65,-0.65 -0.09,-0.8 -0.55,-0.2 -0.49,-0.65 0.5,-0.88 -1,-1.16 -1.02,1.13 -0.91,-1.05 -0.93,0.84 -1.23,-0.58 -0.07,-0.71 -0.51,-0.28 -0.77,-0.48 -0.95,-0.69 0.12,-1.57 -1.22,-0.59 -0.52,0.29 -0.39,-1.19 0.17,-0.69 -0.84,-0.68 -0.78,-1.73 -1.78,0.63 -1.08,-0.27 -1.04,-1.03 -1.03,-0.49 -0.73,0.07 -1.01,0.56 -0.91,-0.29 -1.11,-0.79 0.1,-1.46 0.64,-0.25 -0.57,-0.51 -0.69,0.1 -0.3,-0.26 -1.05,-2 -0.02,-0.42 0.28,-0.63 0.21,-0.73 -0.69,-1.52 0.08,-0.88 -0.24,-0.74 0.24,-0.44 -0.98,-0.89 -0.15,-0.47 0.37,-0.65 0.71,-0.5 -0.06,-1.05 2.6,-1.21 -0.18,-0.95 -0.92,-0.55 -0.26,-0.82 0.95,-0.93 -0.09,-1.59 0.71,-1.19 0.55,-0.21 1.11,0.19 0.1,-0.85 1.04,-0.21 0.15,-1.14 -0.41,-1.22 0.67,-0.53 z" 
                fill="rgb(151, 144, 238)" 
                stroke="white" 
                stroke-width=".7px"
                title="Prey Vêng 1 " 
                id="KH-14" 
            />
        </svg>