<svg xmlns="http://www.w3.org/2000/svg" viewBox="250.35138999999975 32.390439999999984 190.29000000000025 174.57000000000008" width="190.29000000000025" height="174.57000000000008">
            <path 
                d="m 307.17139,33.96044 0.08,0.77 1.22,-0.03 1.22,0.57 0.29,1.36 1.45,-0.48 1.17,-0.29 1.15,-1.12 0.93,0.78 2.41,0.74 0.77,0.8 1.56,0.05 2.5,0.9 0.41,0.71 0.65,0.49 1.08,0.21 0.35,-1.27 0.85,0.31 0.93,-0.45 0.75,0.74 0.83,0.22 1.19,1.34 0.82,0.82 0.08,0.55 -0.37,1.53 -0.71,1.04 0.07,1.77 -0.26,0.93 -0.72,0.15 -0.12,0.34 0.72,0.86 1.4,0.83 0.33,1.57 1.46,2.08 0.7,1.39 -0.13,1.61 0.31,1.52 2.01,1.45 0.79,0.79 0.43,0.93 3.99,0.68 1.35,-0.79 1.72,0.29 0.95,-1.01 1.44,-0.43 2,-1.67 1.38,-2.1 -0.36,-0.63 -0.93,0.01 1.2,-1.19 -0.4,-1.02 0.17,-1 1.09,-0.54 0.07,-1.5 1.03,-0.44 0.94,-1.29 -0.09,-0.83 -1.07,-0.7 0.11,-1.07 1.03,-1.35 0.6,0.45 0.57,0.04 0.84,-0.61 0.9,-0.21 1.08,0.68 -0.12,1.36 -0.15,2.63 1.31,1.41 0.9,2.13 2.05,1.42 0.75,1.71 -0.05,2.44 0.33,1.23 0.98,0.6 0.07,0.95 -0.06,1.09 1.2,1.01 0.51,1.06 0.48,1.16 0.06,1.03 0.95,0.75 0.66,0.1 0.64,-0.42 0.55,0.35 0.5,0.6 2.79,0.82 0.29,0.9 -0.35,0.83 1.92,2.01 1.35,0.98 0.8,1.33 0.6,0.83 1.09,0.3 1.06,-0.33 0.63,-0.11 0.73,0.74 0.82,-0.11 0.42,-0.58 0.73,-0.71 1.01,-0.11 0.54,0.73 1.18,0.05 0.75,-0.58 1.38,0.73 1.11,0.32 0.31,-0.88 0.56,-0.45 0.46,0.14 1.08,-1.23 0.58,0.46 1.05,-0.31 0.35,-0.7 1,-0.91 0.63,0.06 1.13,-0.45 1.38,-0.9 1.11,-0.69 1.67,-0.96 1.34,-0.63 1.38,0.71 0.71,1.34 1.6,0.9 -0.22,-0.82 0.01,-0.63 0.94,0.45 1.04,-0.36 0.41,0.51 0.48,-0.02 -0.01,1.21 1.04,1.13 0.4,-1.11 1.59,0.96 0.37,1.12 -0.42,1.23 1.52,1.37 0.49,-0.09 0.28,-1.54 0.5,-0.89 1.44,0.47 1.87,0.62 0.53,1 1.54,0.91 0.6,0.87 0.63,-0.19 0.27,-1.08 0.88,-1.32 0.73,-0.24 0.41,0.15 1.78,1.55 3.87,0.89 1.56,0.66 0.32,0.58 -0.74,2.4 0.15,1.96 1.1,2.63 1.43,0.8 0.77,0.98 1.68,1.02 1.16,1.74 1.58,1.22 3.03,1.61 1.53,1.32 1.56,1.53 0.41,0.72 0,0 -1.95,1.4 -1.74,0.54 -4.85,-0.18 -7.13,0.2 -1.8,-0.19 -5.72,0.8 -1.2,0.94 -0.13,0.82 0.08,0.51 0.45,0.19 -0.2,1.01 0.5,-0.05 -0.13,0.54 0.47,0.27 0.32,-0.18 0.28,0.35 -0.14,0.4 0.2,0.17 -0.29,0.21 0.13,0.55 -0.23,0.47 -1.51,0.28 -0.24,0.42 -0.99,-0.72 -0.06,0.34 -0.3,-0.14 -0.43,0.42 -0.5,-0.05 -0.6,-0.91 -1.11,-0.59 -1.73,0.84 -0.59,-0.33 -0.17,0.37 -1.41,0 -0.6,0.47 -0.24,0.87 -0.98,0.04 -0.13,-0.5 -0.83,-0.4 0.16,-0.18 -0.39,-0.5 -0.7,-0.27 -0.04,-0.48 -0.53,-0.56 -1.01,-0.48 -0.37,0.13 -0.91,-0.62 -1.69,1.34 -0.24,0.51 -0.9,0.15 -0.56,1.06 -0.83,-0.21 -2.29,1.58 -0.17,1.2 -0.81,0.83 0.25,0.06 -0.36,1.26 0.37,0.82 -0.18,0.19 0.59,0.41 -0.1,0.26 0.23,0.08 0.23,0.84 -0.58,0.89 0.54,0.51 0.13,0.68 -0.89,1.31 0.26,1.74 0.89,0.61 0.25,1.49 1.89,1.19 0.34,1.53 1.6,2.34 0.71,2.34 -0.03,1.38 0.66,1.32 0.19,2 -0.82,1.91 0.32,1.96 -0.16,3.36 -0.7,5.16 -0.45,1.43 0.45,6.7 -2.76,3.42 -0.16,0.94 -0.57,0.73 0,0 -1.68,2.06 -5.47,1.52 -3.93,2.49 -6.03,2.15 -4.98,2.63 -0.74,0.63 -1.03,1.83 -8.15,8.83 -1.1,0.7 -4.06,1.43 -5.69,3.59 -1.68,2.22 -1.28,2.92 -0.98,1.31 -1.36,1.22 -4.01,2.95 -6.93,3.78 -6.73,5.18 -3.8,2.27 -2.68,-0.37 -2.33,-2.25 -1.81,-2.67 -1.28,-1.33 -0.53,-1.16 -0.04,-0.73 -1.96,-2.14 0.1,-2.06 -1.37,-1.46 -0.18,-2.41 -0.4,-0.87 0.41,-1.62 -0.16,-1.57 0.99,-1.08 -0.16,-1.27 1.28,-1.38 1.32,-4.32 -0.16,-0.98 -1.18,-2.2 -0.77,-0.18 -4.12,0.46 -2.1,-0.37 -7.29,0.92 -0.9,-0.44 -0.25,-0.65 -0.63,-0.45 -1.6,0.48 -0.21,-0.3 -0.57,-0.11 -1.33,0.4 -0.82,0.76 -1.38,-0.34 -0.6,0.17 -2.01,1.76 -0.8,0.14 -2.19,1.36 -2.78,1.12 -4.55,1.49 -5.48,1 0,0 0.85,-2.92 -0.87,-2.86 0.29,-1.36 0.65,-1.39 -0.58,-1.52 -0.1,-3.54 0.81,-3.01 1.56,-1.64 0.77,-1.78 0.78,-0.96 4.37,-3.17 0.47,-1.22 1.44,-1.87 0.22,-1.52 -0.14,-1.96 0.69,-0.92 1.14,-0.64 0.23,-0.68 1.34,-0.92 0.71,-1.16 -1.11,-0.7 -0.14,0.42 -1.79,0.84 -1,1.03 -4.2,1.43 -0.48,-0.85 -0.98,-0.45 -0.9,-1.05 -3.81,0.26 -1.2,-0.55 -0.56,0.06 -1.09,-0.79 -1.31,-1.64 -1.84,-0.17 -0.44,0.18 -1.71,-0.52 -0.38,0.13 -0.81,-0.36 -1.9,-0.22 -8.06,-0.39 -0.29,-0.52 -0.07,-0.55 0.51,-0.58 -0.63,-0.91 -0.5,-2.75 0.93,-1.21 1.01,-0.21 0.78,-0.57 0.29,-1.58 -0.16,-0.5 1.13,-2.33 0.74,-0.71 0.02,-1.85 -1.07,-0.73 -0.45,-0.69 -0.03,-0.97 0.53,-1.47 -0.51,-1.58 0.03,-1.15 -0.81,-1.64 -1.21,-0.95 -0.48,-1.25 0.84,-1.25 -0.09,-0.78 -1.71,-0.9 -0.76,-0.76 -0.29,-1.77 -0.99,-1.86 -2.54,0.29 -0.43,-0.26 -0.21,-0.71 1.13,-1.29 0.15,-1.7 1.28,0.07 0.37,-0.73 0.11,-1.07 0.84,-0.23 0.1,-0.72 0.78,-0.54 -0.82,-0.64 0.96,-2.62 0.37,-0.42 1.51,0.34 0.6,-0.16 -0.12,-0.58 -1.21,-1.21 0.28,-0.68 1.55,-1.1 0.57,-2.03 -0.16,-0.36 -0.42,-0.06 0.22,-1.08 -0.52,-0.99 0.76,-0.55 0.27,-1.73 -1.24,-2.76 0.25,-1.42 0.73,-1.05 -0.29,-0.98 0.77,-0.37 0.05,-2.68 0.39,-0.27 0.6,-2.51 0.51,-0.72 0.93,-0.24 0.89,-1.43 0.09,-0.82 0.49,-0.19 0.94,-1.28 0.65,-0.13 0.69,-1.26 0.85,-0.31 0.6,-0.98 1.04,-0.62 0.1,-0.74 0.67,-0.02 0.31,-0.86 -0.31,-0.52 -0.96,-0.79 -1.3,-0.22 0.16,-0.34 -0.17,-0.18 -0.74,-0.43 -0.51,-0.07 -0.68,-0.53 -0.08,-0.62 -1.15,-0.5 -0.24,-0.91 -1.01,-0.85 0.12,-0.36 -0.11,-0.42 -0.75,-0.55 -0.45,-0.34 0,0 0.14,-0.76 1.25,0.07 0.53,-0.37 -0.18,-0.93 0.33,-0.36 0.27,-1.09 0.42,-0.39 -0.48,-0.72 0.21,-0.38 -0.25,-1.53 -0.75,-0.55 0.42,-0.49 -0.32,-0.88 0.36,-0.96 -0.32,-0.57 0.36,-2.46 0.88,-2.26 0.22,-3.11 0.56,-0.22 -0.1,-0.14 0,0 0.83,-0.64 0.09,-0.59 -0.31,-0.51 0.3,-0.53 0.7,-0.67 0.98,-0.15 0.76,-0.5 2.05,0.75 1.77,1.22 0.66,0.79 1.16,-0.3 2.51,0.38 0.53,-0.82 1.15,0.26 -0.22,-1.29 0.47,-1.06 1.01,-0.6 0.62,-0.92 1.23,-1.04 1.21,-0.09 1.64,-1.08 2.22,-2.29 0.87,0.23 0.27,1.86 0.72,0.77 1.62,0.32 1.44,0.22 0.73,-1.41 0.05,-0.7 0.58,-1.05 0.69,-0.89 0.88,-0.6 0.63,0.06 1.39,1.47 0.21,0.7 -0.55,1 0.3,0.58 1.11,-1.21 0.85,-0.14 1.66,0.99 0.46,-1.15 1.17,-1.04 1.3,-0.22 1.67,-1.23 2.02,-0.27 1.13,0.94 z" 
                fill="rgb(151, 144, 238)" 
                stroke="white" 
                stroke-width=".7px"
                title="Preăh Vihéar" 
                id="KH-13" 
            />
        </svg>