<svg xmlns="http://www.w3.org/2000/svg" viewBox="518.5013900000001 0.3004404000000789 135.78000000000054 191.93999960000002" width="135.78000000000054" height="191.93999960000002">
            <path 
                d="m 643.57139,0.6504404 1.36,-0.19 0.39,0.38 -0.87,1.1 0.64,1.2 -0.01,1.01 -0.78,0.09 0.46,1.14 0.7,1.99 0.22,1.46 -1.01,0.69 -0.91,0.17 0,1.1699996 -1.29,1.09 -1.06,0.01 -0.34,1.27 -0.04,0.97 0.19,1.75 0.36,0.84 0.67,0.58 0.03,1.21 -0.51,1.15 -0.7,1.05 -0.82,2.19 -0.25,1.18 -0.91,2.14 -0.24,1.88 0.16,1.56 -0.97,2.75 -0.58,0.22 -0.44,0.72 -0.09,2.74 -0.93,0.47 -1.7,-0.16 -1.02,-0.23 -0.16,-0.82 -1.02,-0.7 -0.43,2 -0.71,0.81 -0.05,1.8 -1.43,0.68 -1.65,1.79 -0.55,0.77 -1.03,1.77 -0.39,1.23 -1.04,0.84 -0.01,1.16 0.78,1.1 0.9,0.7 0.28,0.56 -0.12,1.51 0.45,1.02 0.04,1.74 -1.17,1.97 0.96,1.73 -1.31,1.36 -1.13,1.83 -0.9,2.77 -0.58,0.99 -0.96,-0.19 -1.25,1.31 0.42,0.95 -1.03,1.69 -1.65,2.14 -0.37,0.8 -0.43,1.47 -0.2,1.22 0.15,0.46 0.89,0.69 2.46,1.43 2.44,0.52 0.3,0.37 -0.35,1.48 -1.53,-0.02 -0.38,0.26 -0.18,1.7 0.24,2.09 -1.06,0.84 0.21,1.54 1.01,0.51 1.87,2.25 0.36,0.83 1.43,-0.63 1.02,0.45 0.92,-0.52 1.35,-0.11 1.07,0.1 1.41,-0.49 0.21,1.1 1.22,1.03 -0.29,6.31 0.98,1.07 1.13,-0.04 0.51,0.61 -0.28,1.1 -0.06,2.32 -1.61,1.59 -0.4,0.81 0.97,0.86 1.2,0.43 0.21,0.49 -0.09,0.83 -0.78,1.43 -1.33,1.44 0.03,0.54 0.74,1 -0.29,1.19 -0.99,1.54 2.23,1.89 1.1,0.45 1.26,0.15 5.47,3.89 2.22,6.57 2.28,3.46 0.27,5.22 5.56,12.17 1.64,20.8 -2.9,7.16 0,0 -0.93,0.42 -0.74,-0.54 -1.18,0.19 -0.24,1.17 -1.03,0.31 -0.95,1.15 -1.28,-0.5 -0.46,-0.67 -2.35,-0.88 -1.97,0.62 -0.34,-0.15 -0.34,-0.73 -0.43,-0.08 -1.04,0.85 -0.34,-0.2 -0.38,-0.82 -0.65,-0.39 -2.17,-3.09 -0.63,-0.46 -0.98,0.68 -0.29,1.43 -0.79,-0.32 -0.45,0.12 -0.5,0.97 -2.82,0.77 -1.23,0.99 -0.58,0.11 0.33,1.2 -0.13,0.31 -1.27,-0.27 -0.28,0.88 -1.28,-0.16 -1.61,0.72 -1.13,-1.39 -0.33,-1.04 -1.37,-1.08 -1.08,-1.4 -2.22,-0.04 -1.09,0.79 -1.04,0.26 -1.27,-0.26 -2.79,-6.27 -3.15,-1.03 -0.71,0.45 -0.34,0.63 0.26,1.61 -0.26,1.1 -1.93,0.74 -1.11,1.58 -2.49,1.35 -2.08,0.24 -0.99,-0.14 -0.83,-0.6 -0.26,-1.56 -1.5,-0.83 -1.44,0.2 -1.19,1.77 -2.09,0.89 -1.66,-0.12 -1.72,-1.44 -0.23,0.09 -0.21,0.33 0.36,0.61 -0.92,0.12 -0.13,0.38 0.68,1.23 0.31,0.62 0.06,0.64 0.47,0.09 -0.07,1.08 0.49,0.64 0.59,0.2 -0.37,1.67 -0.08,0.78 0.6,0.62 0.29,0.8 -0.41,0.48 -0.15,0.5 -0.72,0.5 0.2,0.73 -0.45,0.94 0.36,0.45 -0.06,0.87 -0.14,0.41 -0.52,0.58 -0.43,-0.04 -0.72,0.53 -0.65,0.44 -0.53,1.21 -0.96,0.48 -0.45,0.72 -0.92,0.1 -0.38,-0.01 -0.07,-0.74 -0.35,-0.48 -0.37,0.01 -0.12,-0.54 -0.78,-0.22 -0.8,0.43 -0.45,0.07 -0.39,-0.44 -0.83,-0.09 -0.33,0.38 -1.96,0.63 -0.69,0.23 -0.9,-0.63 -0.54,0.15 -0.63,-0.31 -1.45,0.91 -0.37,-0.2 -1.75,0.57 -1.09,-0.07 -1.23,-0.55 -1.17,-0.03 -0.95,0.52 -1.03,-0.14 -2.11,0.21 -1.59,-0.18 -3,-0.84 -0.6,-0.43 -6.71,-1.65 -3.78,-3.59 -17.01,-12.01 0,0 0.35,-0.4 -0.25,-0.51 0.18,-0.28 -0.31,-0.47 0.27,-0.22 -0.2,-0.39 1.55,-0.28 0.52,-0.33 0.33,-1.43 -0.12,-0.76 -0.18,0.17 -0.16,-0.22 0.49,-0.96 -0.45,-0.12 -0.42,-0.54 0.17,-1.38 -0.32,-0.33 -0.36,0.24 -0.34,-0.43 -0.3,0.06 -0.12,-0.75 -0.6,0.06 0.12,-0.26 -0.38,-1 0.44,-0.09 0.55,-0.74 -0.06,-0.29 0.47,-0.2 -0.34,-0.36 0.07,-1.01 -0.95,-0.77 0.05,-0.25 -0.78,-0.28 0.3,-0.26 -0.35,-0.1 -0.2,-0.78 0.19,-0.43 -1.7,-2.71 -1.3,-2.82 -0.04,-1.64 -0.43,-1.35 -1.36,-1.56 -0.89,-1.82 -1.36,-0.9 -1.38,-0.14 0.09,-14.79 2.8,-0.33 2.38,-1.23 1.69,-0.03 0.36,-0.58 1.62,-0.58 0.61,-0.74 1.25,-0.65 0.49,-1 1.24,-1.19 0.41,-1.55 -0.18,-0.41 0.4,-0.79 0.98,-0.6 0.31,-0.87 1.25,-1.38 0.63,-1.32 0.06,-2.06 -0.62,-1.17 -0.25,-1.2 1.07,-2.4 -0.58,-1.05 -1.01,-0.05 -0.34,-2.03 -0.86,-0.33 -0.17,-0.48 -0.74,-0.2 -0.2,-0.45 -0.15,-0.84 0.7,-2.13 -1.31,-1.47 -0.25,-0.88 -0.02,-0.89 0.35,-1.01 -0.27,-1.09 0.22,-0.37 -1.02,-1.01 -0.29,-2.84 -0.42,-0.53 -0.05,-1.22 0.36,-0.03 0.27,-0.59 -0.21,-0.24 0.22,-0.34 -0.35,-0.58 1.97,-0.15 0.53,0.37 2.52,0.6 0.94,-0.58 0.65,-0.79 0.61,0.27 0.56,-0.21 0.02,0.24 0.99,-0.51 1,0.2 0.35,0.33 0.63,-0.23 0.59,-0.7 0.03,-0.48 0.57,-0.04 0.88,-0.84 0.86,-0.16 0.82,-0.86 0.72,0.35 0.06,-0.27 0.38,-0.14 0.43,0.2 1.28,-0.76 4.07,-5.95 0.08,-1.3 -0.98,-3 -2.77,-7 -0.53,-0.45 -0.39,-0.88 0.19,-4.79 0.47,-1.03 0.4,-2.05 -0.62,-1.02 -0.52,-3.79 -0.41,-6.26 0.02,-4.96 1.07,-3.2 0,0 0.28,0.02 3.07,3.78 0.43,1.31 0.94,1.18 0.5,1.39 2.08,1.77 2.22,0.5 0.65,1.34 -0.05,0.4 0.93,0.63 1.02,0.2 0.91,-2.1 0.58,-0.82 0.99,-0.65 0.64,-0.18 0.93,0.52 0.97,0.17 0.39,-2.24 0.78,-0.3 1.6,0.27 5.12,2.37 1.07,0.11 1.19,-1.32 0.21,-1.2 -0.45,-0.96 0.08,-0.84 0.72,-0.82 1.06,-0.52 1.09,-0.11 1.59,-3 1.09,-1.44 2.79,-2.49 0.41,-0.73 0.04,-1.87 -0.68,-1.42 2.87,0.7 1.56,2.2 -0.19,0.69 1,2.35 0.91,0.52 2.77,0.14 0.81,-0.36 2.2,-2.52 1.34,0.14 0.55,-0.44 1.43,0.05 1.02,-0.38 0.58,-0.59 0.46,-1.02 1.48,-0.94 1.49,-4.61 0.58,-1.05 0.52,-0.36 1.81,0.69 2.3,0.14 0.99,-0.44 0.52,-0.68 -0.16,-3.09 0.6,-2.48 0.61,-1.22 1.43,0.54 0.64,-1.02 0.76,-3.53 0.62,-0.94 0.95,-0.64 3.7,-0.17 0.78,0.23 1.71,1.54 1.23,1.63 -0.17,0.51 1.17,1.82 1.23,0.9 1.89,-0.39 4.18,1.93 1.42,0 0.76,-0.44 0.68,-0.92 -0.94,-1.02 1.38,-1.91 0.4,-2.17 -0.27,-1.51 0.93,-0.75 0.18,-0.63 -0.39,-1.19 0.05,-0.73 1.17,-1.0499996 0.78,-0.3 1.89,-0.03 1.62,-2.88 1.28,-0.69 0.17,-1.04 0.47,-0.61 -0.15,-1.59 0.26,-0.5 1.31,-1.35 z" 
                fill="rgb(151, 144, 238)" 
                stroke="white" 
                stroke-width=".7px"
                title="Rôtânôkiri" 
                id="KH-16" 
            />
        </svg>