<svg xmlns="http://www.w3.org/2000/svg" viewBox="130.74138999999994 61.30044000000007 159.73999999999987 186.00000000000006" width="159.73999999999987" height="186.00000000000006">
            <path 
                d="m 136.45139,103.11044 0.51,0.25 0.39,-0.34 0.11,-0.59 0.47,0.02 0.19,0.37 0.3,-0.32 0.37,-0.53 0.14,-0.23 1.22,-0.29 0.38,-0.25 0.76,0.29 0.48,-0.61 0.76,-0.35 0.61,-0.14 0.66,0.15 0.32,0.12 0.69,0.09 0.82,-0.18 0.84,-0.17 0.44,0.68 0.26,-0.11 -0.01,-0.3 0.99,0.2 0.37,-0.17 0.44,0.12 0.3,-0.28 0.27,-0.26 0.81,0.04 0.63,-0.51 0.73,-0.08 0.77,-0.3 0.34,0.1 0.34,-0.18 -0.29,-1.05 0.86,-0.16 0.36,-0.61 0.5,-0.63 0.79,-0.19 0.54,-0.34 1.41,-1.2 0.09,-0.55 1.17,-0.07 0.47,-0.46 0.33,-0.44 0.28,-0.46 0.76,-0.36 0.17,-0.26 -0.07,-0.56 0.21,-0.27 0.74,0.06 0.38,0.34 0.62,0.49 0.32,-0.18 -0.46,-0.43 0.84,-0.6 0.06,0.42 0.39,0.17 0.81,-0.31 0.19,0.29 0.33,0.18 0.12,0.39 0.65,0.33 1.07,-0.11 -0.78,-0.56 0.85,-0.6 -0.16,-0.47 0.55,-1 0.52,-0.62 0.96,-0.49 0.17,-1.06 0.65,0.19 0.46,-0.54 -0.36,-1.94 0.19,-0.33 0.93,0.03 0.17,0.31 0.64,0.17 0.55,0.15 1.24,-1.02 0.08,-1.13 0.89,-0.73 1.73,-0.14 0.48,-0.19 0.05,-0.27 -0.4,-0.92 1.19,-0.46 0.06,-0.65 1.49,-0.23 -0.07,-0.43 -1.36,-0.95 0.09,-0.67 1.07,-1.38 0.03,-0.57 1.03,-0.79 0.35,-0.54 1.51,-0.61 0.32,-0.69 -0.09,-1.22 0.82,0.3 0.67,-0.33 0.41,-0.27 0.75,-0.5 1.49,-0.14 0.87,-0.63 1.07,-0.33 0.9,-0.13 1.02,-0.03 0.91,-0.39 1.07,-0.35 0.87,0.32 1.98,-0.23 0.16,-0.2 0.38,-0.56 0.02,-0.33 0.9,-0.04 1.93,0.48 2.17,0.01 2.4,-1.09 7.08,-0.22 0.41,-0.08 0.23,-0.61 1.88,-0.25 -0.64,1.46 -0.25,2.61 1.85,3.39 0.51,0.41 0.98,0.21 0.61,0.91 1.88,1.37 0.48,0.78 0.87,0.62 0.85,1.6 0.53,0.06 1.18,1.2 0.95,-0.16 2.28,0.5 1.3,-0.54 1.85,-1.75 0.22,-0.87 0.63,-0.86 0.54,0.29 0.95,-0.49 1.54,0.16 1.25,-0.74 0.68,-0.04 0.28,-0.84 1.83,-0.74 1.09,-1.14 2.52,-0.31 1.81,-0.74 2.03,-2.02 3.29,-0.6 1.16,-0.64 1.04,-0.13 1.34,-1.05 1.12,-0.26 0.42,-0.5 1.61,-0.49 0.98,-0.67 -0.03,-0.33 0.14,-0.81 0.15,-0.46 0.64,-1.05 0.76,-0.46 0.3,-1.12 1.19,-0.73 0.1,-0.56 0.83,0.09 1.17,-0.02 1.01,0.1 0.37,0.44 0.39,-0.03 0,0 0.45,0.34 0.75,0.55 0.11,0.42 -0.12,0.36 1.01,0.85 0.24,0.91 1.15,0.5 0.08,0.62 0.68,0.53 0.51,0.07 0.74,0.43 0.17,0.18 -0.16,0.34 1.3,0.22 0.96,0.79 0.31,0.52 -0.31,0.86 -0.67,0.02 -0.1,0.74 -1.04,0.62 -0.6,0.98 -0.85,0.31 -0.69,1.26 -0.65,0.13 -0.94,1.28 -0.49,0.19 -0.09,0.82 -0.89,1.43 -0.93,0.24 -0.51,0.72 -0.6,2.51 -0.39,0.27 -0.05,2.68 -0.77,0.37 0.29,0.98 -0.73,1.05 -0.25,1.42 1.24,2.76 -0.27,1.73 -0.76,0.55 0.52,0.99 -0.22,1.08 0.42,0.06 0.16,0.36 -0.57,2.03 -1.55,1.1 -0.28,0.68 1.21,1.21 0.12,0.58 -0.6,0.16 -1.51,-0.34 -0.37,0.42 -0.96,2.62 0.82,0.64 -0.78,0.54 -0.1,0.72 -0.84,0.23 -0.11,1.07 -0.37,0.73 -1.28,-0.07 -0.15,1.7 -1.13,1.29 0.21,0.71 0.43,0.26 2.54,-0.29 0.99,1.86 0.29,1.77 0.76,0.76 1.71,0.9 0.09,0.78 -0.84,1.25 0.48,1.25 1.21,0.95 0.81,1.64 -0.03,1.15 0.51,1.58 -0.53,1.47 0.03,0.97 0.45,0.69 1.07,0.73 -0.02,1.85 -0.74,0.71 -1.13,2.33 0.16,0.5 -0.29,1.58 -0.78,0.57 -1.01,0.21 -0.93,1.21 0.5,2.75 0.63,0.91 -0.51,0.58 0.07,0.55 0.29,0.52 8.06,0.39 1.9,0.22 0.81,0.36 0.38,-0.13 1.71,0.52 0.44,-0.18 1.84,0.17 1.31,1.64 1.09,0.79 0.56,-0.06 1.2,0.55 3.81,-0.26 0.9,1.05 0.98,0.45 0.48,0.85 4.2,-1.43 1,-1.03 1.79,-0.84 0.14,-0.42 1.11,0.7 -0.71,1.16 -1.34,0.92 -0.23,0.68 -1.14,0.64 -0.69,0.92 0.14,1.96 -0.22,1.52 -1.44,1.87 -0.47,1.22 -4.37,3.17 -0.78,0.96 -0.77,1.78 -1.56,1.64 -0.81,3.01 0.1,3.54 0.58,1.52 -0.65,1.39 -0.29,1.36 0.87,2.86 -0.85,2.92 0,0 -0.9,3.12 -1.05,2.46 -5.19,1.78 -1.36,1.12 -1.49,0.27 -0.7,0.87 -0.84,2.56 0.39,1.75 -0.52,1.63 0.03,5.07 -0.58,3.05 -0.02,1.94 -0.76,0.13 -0.6,0.36 -0.32,0.94 0.09,2 0.89,0.67 0.1,0.53 -0.36,0.25 -0.21,0.64 -0.81,0.16 -0.62,0.7 0.08,0.59 -0.66,0.92 -2.13,-0.09 -2.59,3.55 -0.63,0.42 -0.67,-0.05 -1.21,1.2 -0.45,0.95 -0.57,0.22 -0.23,0.39 -0.45,0.96 0.22,0.86 -1.23,2.19 -1.11,0.61 -0.63,-0.22 -1.25,0.28 -1.12,0.9 -1.46,0.6 -0.76,-0.26 -0.59,1.02 -0.54,-0.17 -1.28,0.16 -0.94,0.26 -0.21,0.41 0.21,0.45 -0.55,0.55 -1.02,-0.22 -0.23,0.4 0.24,0.79 -2.78,2.76 -0.28,1.01 -1.49,1.52 0.12,0.69 -0.72,0.43 0.25,0.94 -1.01,-0.2 -0.64,0.77 -0.81,1.5 -0.07,2.15 -3.11,3.75 0,0 -3.07,-7.28 -2.84,-3.4 -7.17,-3.4 -7.29,-8.44 -2.85,-2.39 -7.53,-9.33 -4.55,-6.7 0,0 -0.9,-1.21 -6.51,-5.79 -10.02,-7.12 -4.9,-6.13 -1.04,-5.56 -0.92,-1.1 -2.26,-1.55 -0.58,0.14 0.23,0.54 -1.34,0.87 -0.29,-0.11 -0.34,-0.48 -0.23,-0.6 -1.19,-0.5 -0.59,-0.73 -0.57,-0.1 -0.51,0.27 -1.57,-0.79 -0.57,0.32 -0.9,0.05 -1.05,0.09 -1.31,0.23 -0.92,-0.66 -0.14,-0.73 -0.75,-1.1 -1.36,-0.05 -0.37,0.4 -0.75,-0.2 -0.39,-0.42 -0.02,-1.12 -0.26,-0.85 -1.6,-0.91 -1.62,-0.3 -0.12,-0.88 -0.37,-0.34 -2.33,-0.33 -1.47,1.07 -1.64,-1.12 0,0 -0.38,-0.11 -1.11,0.94 0,0 -1.1,-0.22 -0.3,-0.44 -0.98,-0.27 -0.36,-0.21 -0.45,-0.63 -0.88,-0.2 -1,-0.07 -0.56,-0.68 -0.57,-0.14 -0.29,0.23 0,0 -0.19,-0.31 0.17,-0.53 -0.47,-0.66 0.05,-1.2 -0.53,-1.13 -0.58,-0.31 -0.25,-1.1 -0.47,-0.04 -0.36,-0.4 -0.07,-1.42 0.92,-1.57 0.27,-2.1 1.38,-1.31 -0.01,-0.33 -0.44,-0.39 -1.13,-0.27 -0.29,-0.69 0.24,-0.44 0.03,-0.4 -0.06,-0.51 0.07,-0.58 0.23,-0.29 0.55,-0.77 0.1,-0.16 0.28,-0.61 -0.69,-1.01 0.36,-0.36 0.26,-0.09 0.15,-0.51 0.04,-0.25 0.05,-0.57 0.26,-0.62 -0.03,-0.79 0.48,-0.44 -0.43,-0.48 -0.39,-0.24 -0.22,-0.27 0.69,-1.25 -0.62,-0.18 -0.47,-0.13 -0.29,-0.46 -0.14,-0.26 1.3,-0.27 -0.36,-0.65 -0.35,-0.69 -0.46,-0.86 0.22,-0.59 0.87,-0.11 0.27,-0.35 -0.22,-0.67 -0.9,-0.35 0.35,-0.45 -0.07,-0.48 -0.88,-0.14 -0.06,0.6 -0.64,0.07 -0.1,-0.27 0.47,-0.24 0.01,-0.28 -1.13,-0.92 0.91,-0.35 -0.17,-0.81 0.27,-0.32 1.01,0.21 0.4,-0.24 -0.55,-0.31 -0.09,-0.74 -0.58,0.03 -0.33,-0.41 0.51,-1.37 0.85,-1.14 0.7,-0.98 1.39,-0.8 0.9,-0.24 1.02,-1.34 -0.97,-0.52 -0.39,-0.68 -0.78,-0.77 -0.19,-0.36 0.31,-0.85 -0.41,-0.56 0.06,-0.3 0.62,0.06 0.37,-0.27 -0.84,-0.38 -0.04,-0.37 0.46,-0.32 0.25,0.1 0.38,-0.47 -0.36,-0.1 -0.62,0.34 -0.42,-0.15 0.06,-0.34 0.25,-0.52 0.53,-1.07 0.39,0.24 0.37,-0.56 -0.8,-0.19 -0.25,-0.41 0.21,-0.57 -0.14,-0.54 -0.67,-0.52 -0.55,0.18 -0.55,-0.83 0.29,-0.3 0.54,-0.05 0.41,-0.07 0.62,0.23 0.11,-0.84 -0.44,-0.62 0.72,-0.39 0.04,-0.44 -0.26,-0.25 0.41,-0.59 -0.02,-0.71 0.63,0 0.66,-0.38 0.27,-0.73 -0.26,-0.23 -0.52,0.37 -0.61,-0.2 -0.19,-0.36 -0.19,-0.74 -0.28,-0.93 -0.3,-0.37 0.21,-0.43 0.14,-0.49 -0.35,-0.15 0.39,-0.96 -0.51,-0.08 0,-0.61 0.32,-0.24 0.22,-0.19 0.23,-0.24 -0.1,-0.42 0.5,-0.02 -0.32,-1 -0.5,-0.2 0.57,-0.54 0.56,0.39 z" 
                fill="rgb(151, 144, 238)" 
                stroke="white" 
                stroke-width=".7px"
                title="Siĕmréab" 
                id="KH-17" 
            />
        </svg>