<svg xmlns="http://www.w3.org/2000/svg" viewBox="393.75138999999945 12.66044 156.76000000000033 186.94000000000003" width="156.76000000000033" height="186.94000000000003">
            <path 
                d="m 520.30139,12.66044 0.62,2.36 1.1,1.24 0.61,2.29 -0.31,1.08 1.26,1.68 -0.49,1.52 -0.6,0.43 0.37,1.22 0.88,-0.1 1.25,-0.82 0.75,-0.23 1.63,0.05 0.19,1.69 0.56,0.01 0.57,-0.35 0.18,0.17 0.22,1.27 -0.22,1.62 0.26,0.79 0.62,0.7 0.97,0.4 0.33,1.94 1,-0.67 1.65,0.23 0.66,-0.33 0.57,0.1 -0.29,0.66 0.63,0.56 2.43,0.7 2.81,1.26 1.01,0.16 0.5,-0.14 0.64,-1.57 1.76,0.72 0.53,0.48 0.63,1.21 0.97,2.08 -0.11,1.74 0,0 -1.07,3.2 -0.02,4.96 0.41,6.26 0.52,3.79 0.62,1.02 -0.4,2.05 -0.47,1.03 -0.19,4.79 0.39,0.88 0.53,0.45 2.77,7 0.98,3 -0.08,1.3 -4.07,5.95 -1.28,0.76 -0.43,-0.2 -0.38,0.14 -0.06,0.27 -0.72,-0.35 -0.82,0.86 -0.86,0.16 -0.88,0.84 -0.57,0.04 -0.03,0.48 -0.59,0.7 -0.63,0.23 -0.35,-0.33 -1,-0.2 -0.99,0.51 -0.02,-0.24 -0.56,0.21 -0.61,-0.27 -0.65,0.79 -0.94,0.58 -2.52,-0.6 -0.53,-0.37 -1.97,0.15 0.35,0.58 -0.22,0.34 0.21,0.24 -0.27,0.59 -0.36,0.03 0.05,1.22 0.42,0.53 0.29,2.84 1.02,1.01 -0.22,0.37 0.27,1.09 -0.35,1.01 0.02,0.89 0.25,0.88 1.31,1.47 -0.7,2.13 0.15,0.84 0.2,0.45 0.74,0.2 0.17,0.48 0.86,0.33 0.34,2.03 1.01,0.05 0.58,1.05 -1.07,2.4 0.25,1.2 0.62,1.17 -0.06,2.06 -0.63,1.32 -1.25,1.38 -0.31,0.87 -0.98,0.6 -0.4,0.79 0.18,0.41 -0.41,1.55 -1.24,1.19 -0.49,1 -1.25,0.65 -0.61,0.74 -1.62,0.58 -0.36,0.58 -1.69,0.03 -2.38,1.23 -2.8,0.33 -0.09,14.79 1.38,0.14 1.36,0.9 0.89,1.82 1.36,1.56 0.43,1.35 0.04,1.64 1.3,2.82 1.7,2.71 -0.19,0.43 0.2,0.78 0.35,0.1 -0.3,0.26 0.78,0.28 -0.05,0.25 0.95,0.77 -0.07,1.01 0.34,0.36 -0.47,0.2 0.06,0.29 -0.55,0.74 -0.44,0.09 0.38,1 -0.12,0.26 0.6,-0.06 0.12,0.75 0.3,-0.06 0.34,0.43 0.36,-0.24 0.32,0.33 -0.17,1.38 0.42,0.54 0.45,0.12 -0.49,0.96 0.16,0.22 0.18,-0.17 0.12,0.76 -0.33,1.43 -0.52,0.33 -1.55,0.28 0.2,0.39 -0.27,0.22 0.31,0.47 -0.18,0.28 0.25,0.51 -0.35,0.4 0,0 -0.51,0.47 -0.39,0 -2.21,-1.56 -1.09,-0.29 -2.08,-2.16 -3.02,0.41 -1.14,-0.21 -0.76,-0.56 -0.47,-0.03 -2.87,-3.31 -3.86,-1.75 -5.04,-2.93 -1.69,0.33 -3.36,1.3 -3.38,0.52 0,0 -3.36,0.01 -2.13,-0.87 -0.68,0.28 -0.47,0.82 -0.93,-0.58 -0.82,0.2 -2.01,-0.54 -1.51,1.77 -0.94,-0.25 -0.56,0.71 -0.38,2.45 -2.24,1.04 -1.69,-0.3 -0.45,0.34 -2.04,-0.97 -0.84,0.22 -1.77,-0.41 -0.44,0.24 -0.56,-0.12 -0.33,0.35 -0.75,0.15 -1.87,-0.65 -0.35,0.56 -1.47,-0.32 -1.09,0.22 -0.35,0.33 -0.45,0.01 -0.27,0.53 -0.42,-0.07 -1.39,0.67 -0.57,0.6 0.42,0.99 0.28,-0.17 -0.29,1.03 -0.72,0.29 -0.78,1.02 -0.21,1.27 -1.4,0.66 -0.15,1.52 -1.14,0.23 -0.32,0.69 0.11,0.7 -0.46,0.44 -0.64,0.11 0,0.35 -0.81,0.75 0.14,0.41 -0.98,1.02 0.18,0.54 -0.5,0.44 0.55,1.12 -0.31,0.2 0.13,1.04 -0.28,0.95 -0.65,0.16 -1.64,1.26 -2.68,-1.56 -1.64,-0.48 -0.39,0.14 -0.33,2.23 0.13,2.06 -0.31,0.4 0.07,0.35 -0.46,-0.17 0.14,0.72 -0.48,0.97 -1.14,1.18 -0.5,1.21 0.25,1.03 -1.64,0.56 -0.61,0.59 0.08,0.24 -0.99,-0.06 -1.06,0.54 -0.67,-0.3 -0.24,0.47 -0.88,0.36 -0.08,0.41 -1.11,0.58 -0.25,0.46 -0.75,0.04 -0.55,0.65 -0.85,-0.39 -0.22,0.45 -1.58,0.05 -2.13,-1.24 -0.21,0.15 -0.57,-0.23 0,0 -0.25,-0.23 -0.33,0.09 0,0 -0.91,-0.34 -0.82,0.09 -1.09,-0.57 -0.93,-0.59 -0.56,-1.13 -0.81,-0.32 -3.61,-2.61 -0.34,-1.03 -1.14,-0.84 -0.98,-0.23 -4.85,-2.65 -4.51,0 -1.06,-0.68 -3.7,-1.03 -1.56,-1.21 -2.25,-0.09 0,0 -0.23,-2.57 -2.27,-2.42 -2.45,-1.01 0.31,-2.37 -0.25,-0.55 0.23,-0.73 -0.28,-1.14 0.15,-1.51 -0.42,-1.35 0.43,-1.19 -0.55,-2.58 0.7,-2.61 0.02,-2.49 -0.79,-1.64 0.12,-2.07 -0.99,-0.93 -0.01,-0.5 0,0 0.57,-0.73 0.16,-0.94 2.76,-3.42 -0.45,-6.7 0.45,-1.43 0.7,-5.16 0.16,-3.36 -0.32,-1.96 0.82,-1.91 -0.19,-2 -0.66,-1.32 0.03,-1.38 -0.71,-2.34 -1.6,-2.34 -0.34,-1.53 -1.89,-1.19 -0.25,-1.49 -0.89,-0.61 -0.26,-1.74 0.89,-1.31 -0.13,-0.68 -0.54,-0.51 0.58,-0.89 -0.23,-0.84 -0.23,-0.08 0.1,-0.26 -0.59,-0.41 0.18,-0.19 -0.37,-0.82 0.36,-1.26 -0.25,-0.06 0.81,-0.83 0.17,-1.2 2.29,-1.58 0.83,0.21 0.56,-1.06 0.9,-0.15 0.24,-0.51 1.69,-1.34 0.91,0.62 0.37,-0.13 1.01,0.48 0.53,0.56 0.04,0.48 0.7,0.27 0.39,0.5 -0.16,0.18 0.83,0.4 0.13,0.5 0.98,-0.04 0.24,-0.87 0.6,-0.47 1.41,0 0.17,-0.37 0.59,0.33 1.73,-0.84 1.11,0.59 0.6,0.91 0.5,0.05 0.43,-0.42 0.3,0.14 0.06,-0.34 0.99,0.72 0.24,-0.42 1.51,-0.28 0.23,-0.47 -0.13,-0.55 0.29,-0.21 -0.2,-0.17 0.14,-0.4 -0.28,-0.35 -0.32,0.18 -0.47,-0.27 0.13,-0.54 -0.5,0.05 0.2,-1.01 -0.45,-0.19 -0.08,-0.51 0.13,-0.82 1.2,-0.94 5.72,-0.8 1.8,0.19 7.13,-0.2 4.85,0.18 1.74,-0.54 1.95,-1.4 0,0 1.49,1.09 3.83,0.25 1.16,-0.24 1.73,0.09 2.59,0.74 0.46,-0.55 1.25,-0.51 0.98,0.09 3.72,1.25 2.76,0.15 5.47,1.09 0.5,-4.51 -0.66,-5.2 0.6,-0.79 1.2,-0.05 1.67,-1.23 0.25,-1.08 0.55,-0.41 0.95,0.04 2.91,-0.85 0.71,-0.76 0.22,-0.78 0.54,-2.2 0.76,-1.46 -4.42,-2.71 -1.16,-1.06 -1.46,-1.91 -2.25,-4.81 0.06,-3.55 -0.38,-1.61 -0.66,-0.31 -1.81,-0.1 -1.08,-0.86 -2.78,-0.76 -0.58,-0.41 -0.42,-0.95 -1.98,-2.62 -0.6,-2.2 0.73,-2.8 -0.25,-1.77 -1.04,-2.86 -0.79,-0.66 -0.66,0.16 -1.33,-0.36 -0.4,-0.65 -0.16,-2.1 -0.12,-1.5 0.54,-2.76 0.96,0.71 2.32,2.64 1.87,0.19 0.89,-0.57 1.03,-0.08 0.93,-0.35 0.91,0.76 0.69,1.05 0.46,-0.36 0.34,-1.35 -0.46,-1.77 0.99,-0.8 0.69,-0.23 1.24,0.61 1.83,1.24 2.54,-1.57 0.78,-0.12 0.79,0.76 0.82,1.52 1.27,0.39 1.54,-0.01 1,0.17 1.36,-1.12 2.15,-0.54 2.22,-4.6 0.3,-0.99 -0.1,-1.45 0.53,-1.15 0.08,-1.12 0.18,-0.32 0.83,-0.67 -0.36,-0.87 -0.66,-0.51 -0.34,-1.01 0.89,-1.06 0.28,-1.66 0.36,-0.47 0.67,0.09 0.91,1.79 1.09,-0.56 1.47,0.6 0.79,0.52 0.25,0.69 -0.11,0.68 0.49,0.79 0.54,-0.14 0.82,0.23 0.26,0.85 0.7,0.45 0.95,-0.19 0.79,0.3 1.46,-0.86 3.39,-1.04 2.86,0.57 2.07,-0.17 1.37,-1.42 0.05,-1.4 1.74,-1.11 0.55,-0.8 -0.1,-0.66 -1.08,-1.35 -0.13,-1.36 0.62,-0.96 0.92,-0.23 3.58,1.61 0.52,-0.06 0.44,-0.54 -0.4,-0.84 -2.04,-2.23 -0.25,-0.8 0.48,-0.84 4.25,-2.53 0.75,-1.19 1.25,-0.79 1.26,-0.43 z" 
                fill="rgb(151, 144, 238)" 
                stroke="white" 
                stroke-width=".7px"
                title="Stœ̆ng Trêng" 
                id="KH-19" 
            />
        </svg>