<svg xmlns="http://www.w3.org/2000/svg" viewBox="400.94139 389.8704400000001 77.31999999999982 101.22999999999996" width="77.31999999999982" height="101.22999999999996">
            <path 
                d="m 429.55139,391.16044 0.83,0.81 -0.36,0.81 0.64,0.64 0.84,0.64 2.92,0.53 0.28,-0.51 1.1,-0.2 0.46,0.87 1.04,0.55 1.28,2.18 0.2,0.81 -0.13,1.47 -0.67,1.31 -0.08,0.88 0.66,1.12 0.07,1.15 -0.5,0.02 -0.38,0.81 -0.11,0.96 -0.2,0.96 1.6,1.33 0.65,-0.2 1.27,0.74 -0.3,2.15 -1.29,0.59 -0.61,1.61 -0.43,0.43 -1.39,0.57 0.98,1.7 -1.03,1.41 0.02,0.79 1.49,0.66 0.03,1.12 -0.65,1.21 -0.46,2.73 -0.85,1.18 0.47,1.31 -0.22,1.15 -0.63,0.87 0.03,1.42 0.61,0.21 1.09,-1.13 1.24,0 1.32,0.79 1.11,0.03 -0.11,1.04 0.57,1.02 -0.49,1.16 0.38,1.77 1.93,2.87 1.88,1.53 2.68,1.15 0.41,0.12 1.14,-0.34 1.58,0.74 2.74,0.19 0.39,0.72 0.46,4.25 0.65,1.29 3.88,2.26 1.58,1.41 0.62,1.25 0.53,0.48 1.07,-0.48 0.5,0.21 1.29,1.57 -0.12,1.24 0.55,0.68 0.66,0 1.92,-2.21 1.75,-0.73 0.81,-0.73 1.09,-0.08 2.45,3.24 1.73,3.03 0.33,3.97 0.91,3.48 1.01,1.69 -1.5,0.51 -2.52,-0.62 -0.57,0.55 -0.51,-0.48 -0.82,-0.11 -0.5,-0.45 -1.23,0.66 0.14,3.5 0.71,1.06 -1.63,3.19 3.08,3.56 0.1,1.06 2.97,4.8 0.42,6.44 -3.24,-2.89 -8.33,0.54 -3.06,-0.56 -7.56,-5.45 -4.23,-4.27 -3.93,-3.44 -0.32,0.01 0.22,0.91 0.99,1.73 -0.15,0.88 0.64,0.67 -1.05,1.08 -1.03,0.49 -0.56,0.63 -0.39,-0.03 -0.2,0.4 0.08,1.73 0.7,0.4 -0.06,0.86 -4.64,-0.63 -6.03,-2.33 -0.2,-0.4 2.02,-4.15 -3.03,-4.43 -4.02,-4.83 -1.96,-3.57 -1.6,-3.78 -1.19,0.15 -1.99,0.71 -2.76,-0.02 -1.62,0.64 -1.72,1.25 -0.94,1.05 -3.5,1.82 -6.66,1.75 0,0 -0.59,-0.83 -0.06,-0.29 0.35,-0.23 0.04,-0.96 -0.35,-0.45 -1.88,-0.21 -0.95,-0.47 -0.7,-0.91 0.85,-1.12 -0.04,-0.57 0.43,-0.25 0,-0.46 0.74,-0.34 0.03,-1.17 0.96,-1.58 -0.28,-1.23 0.26,-0.62 -0.27,-0.56 0.48,-0.82 -0.29,-0.31 0.5,-0.91 -0.07,-0.35 0.88,-0.69 -0.01,-0.49 1.43,-1.05 1.34,-1.59 -2,-1.8 -0.42,-0.76 -0.38,-1.55 -0.03,-2.98 -0.84,-2.57 0.37,-0.36 0.94,-2.88 0.99,-1.66 -0.04,-1.52 0.72,-0.26 0.66,-0.88 0.12,-0.6 -0.37,-0.38 1.23,-0.8 1.07,1.07 2.09,0.05 0.07,-1.43 -0.91,-1.88 -0.28,-1.74 -0.7,-0.85 -0.22,-1.17 0.25,-2.82 -0.32,-7.1 0.94,-4.81 1.19,-2.02 -0.03,-1.31 -0.57,-1.85 0.17,-0.86 0.61,-0.86 1.13,-0.63 0.12,-0.61 0.53,-0.68 -0.67,-1.76 0.06,-0.86 -0.36,-0.49 1.61,-1.56 -0.15,-1.64 0.53,-0.65 4.07,-1.37 2.16,-0.28 -0.12,-0.64 0.41,-0.65 1.06,0.22 1.61,-0.26 1.96,0.07 1.63,-1.16 1.66,-0.16 0,0 z" 
                fill="rgb(151, 144, 238)" 
                stroke="white" 
                stroke-width=".7px"
                title="Svay Riĕng" 
                id="KH-20" 
            />
        </svg>