<svg xmlns="http://www.w3.org/2000/svg" viewBox="256.58139000000034 420.62044000000003 84.91999999999979 104.35999999999979" width="84.91999999999979" height="104.35999999999979">
            <path 
                d="m 296.43139,420.90044 2.89,1.76 1.86,-1.14 3.61,-0.9 0.96,0.06 0.86,0.55 1.67,0.34 0.75,0.43 1.56,-0.16 0.67,0.19 1.31,-1.07 1.39,-0.16 0.12,0.61 0.83,-0.11 0.13,-0.24 0.45,0.22 0.73,-0.21 1.17,0.84 0.85,-0.04 1.26,1.21 -0.03,0.46 1,0.51 1.35,-0.38 0.11,3.77 -0.37,1.33 -1.17,2.22 0.83,2.43 0.87,1.12 4.91,2.58 0.58,2.15 -0.7,2.58 0.86,1.16 3.83,0.1 0.27,0.6 -0.28,0.38 -0.38,-0.04 -0.28,0.72 1.28,-0.48 0.47,0.31 -0.1,0.3 -0.77,0.28 0.23,0.94 -0.51,1.74 0.37,1.06 -0.47,0.43 0.47,0.82 -0.35,0.78 0.07,1.37 -0.87,0.65 0,1.36 -0.49,0.72 -0.67,2.53 -0.49,-0.04 -0.21,0.27 0.37,0.71 -0.77,1.7 0.67,0.97 -0.91,2.7 0.67,1.15 4.28,0.89 0.05,3.63 0.77,1.68 0.15,1.41 0.49,1.19 -1.27,2.45 0.54,1.27 0,0 -1.02,0.81 0.96,3.43 2.65,5.57 -0.25,2.05 0.75,0.92 0.33,1.82 1.35,0.47 2.05,2.58 0.78,4.37 -12.94,7.47 -4.53,2.92 -2.82,3.37 -4.55,7.9 -3.6,3.21 -14.08,0.53 -5.08,-1.68 0,0 0.74,-0.6 -0.71,-0.81 -0.17,-0.8 0.15,-3.78 -0.79,-0.8 0.04,-1.24 0.58,-1.24 -0.21,-1.52 -0.55,-0.24 -3.92,-0.23 0.41,-1.82 -0.46,-1.94 0.22,-0.73 -0.03,-3.24 -0.46,-1.58 0.54,-0.9 0.77,-0.42 0.69,-1.8 1.25,-1.46 0.23,-0.83 0.37,-0.09 -0.35,-0.85 0.01,-0.9 0.38,-0.25 0.22,-1.16 2.41,-1.42 0.41,-0.49 -0.48,-0.35 -0.19,-0.79 -1.94,-2.12 0.15,-0.26 -0.27,-0.44 -0.14,-2.41 0.3,-0.32 0.04,-0.6 -1.16,-2.82 -1.17,-2.24 -1.22,-1.76 -0.42,-0.07 -0.09,-0.57 -1.98,-0.96 -3.28,0.19 -0.77,0.46 -0.81,-0.14 -4.08,2.03 -2.71,-0.25 -3.38,0.14 -1.67,-0.91 2.31,-4.46 -0.18,-2.62 0.25,-1.62 -0.42,-2.91 -1.89,-4.65 -2.87,-4.23 -1.57,-0.17 0.11,-1.4 -2.38,1.74 -0.92,-0.83 -0.72,0.72 -0.01,-1.5 -2.01,-0.65 -0.86,-0.81 -1.46,-0.1 -1.2,0.61 0.01,-7.52 0,0 0.91,0.78 0.55,-0.19 0.81,0.63 0.63,-0.05 0.34,-0.48 0.95,0 0.76,0.41 1.18,0.67 0.94,-0.33 0.25,0.21 1.97,0.17 1.72,-0.33 1.09,-0.73 0.85,0.07 0.3,0.9 1.42,1.42 1.16,0.72 2.32,0.83 2.35,0.36 2.43,1.16 3.67,0.52 0.34,0.45 0.75,0.25 0.61,-0.19 0.37,-0.76 0.52,0.33 0.99,0 0.51,-0.29 1.25,-0.11 0.6,-0.34 0.1,-0.33 1.28,0.21 0.28,-4.72 -0.34,-4.03 2.81,-15.48 -0.07,-1.88 0.73,-3.22 z" 
                fill="rgb(151, 144, 238)" 
                stroke="white" 
                stroke-width=".7px"
                title="Takêv" 
                id="KH-21" 
            />
        </svg>