<svg xmlns="http://www.w3.org/2000/svg" viewBox="380.45117 299.14258 130.10938 90.58789000000002" width="130.10938" height="90.58789000000002">
            <path 
                d="M 421.21289 304.48242 L 420.36328 304.54102 L 407.76953 300.26758 L 399.44727 299.14258 L 395.17383 303.64258 L 394.72461 311.51367 L 395.17383 319.16016 L 394.94922 325.00781 L 392.02539 327.93164 L 388.65234 334.23047 L 386.62695 340.97656 L 385.50195 347.05078 L 382.12891 352.67383 L 380.55469 355.59766 L 380.55469 360.56055 L 380.77148 360.70117 L 381.03125 361.05078 L 381.24219 361.65039 L 380.55469 362.14844 L 380.55469 362.79492 L 380.48438 362.88281 L 380.74219 364.32031 L 380.45117 365.58008 L 380.8418 367.19141 L 381.57227 368.33984 L 384.15234 370.25 L 384.80078 370.24023 L 386.62109 368.94141 L 390.90234 369.2207 L 393.04102 370.19141 L 394.7207 370.19141 L 395.55078 370.65039 L 400.69141 371 L 405.67188 371.82031 L 409.48047 371.70117 L 411.7207 372.30078 L 415.91211 371.79102 L 418.43164 374.08008 L 420.02148 378.01953 L 421.53125 379.36133 L 422.01172 379.41992 L 422.03125 379.7207 L 422.77148 379.88086 L 422.98047 381 L 423.78125 381.25977 L 424.00195 381.70117 L 423.81055 382.40039 L 424.16211 382.53125 L 424.20117 382.83984 L 423.76172 383.01953 L 424.12109 383.31055 L 424.03125 383.90039 L 424.39062 383.92969 L 424.31055 384.40039 L 424.76172 384.61133 L 424.79102 384.96094 L 425.30078 385.08984 L 425.06055 385.5 L 425.69141 385.70117 L 425.50195 385.89062 L 426.31055 386.46094 L 426.52148 386.95117 L 426.99219 386.9707 L 426.8418 387.45117 L 427.40234 387.83984 L 427.60156 388.76953 L 428.90234 389.01953 L 429.42188 389.73047 L 429.73047 388.82031 L 429.40234 387.32031 L 431.70117 387.11133 L 432.24219 386.38086 L 432.74219 384.81055 L 432.76172 383.64062 L 433.54102 383.34961 L 434.28125 382.21094 L 435.08203 381.57031 L 438.29102 380.03125 L 439.40234 380.11133 L 440.79102 381.48047 L 443.60156 383.45117 L 447.12109 384.7207 L 447.96094 383.26953 L 448.65234 382.9707 L 450.54102 380.94141 L 450.52148 379.78125 L 450.05078 379.25 L 450.71094 378.15039 L 452.35156 376.70117 L 452.70117 376.94141 L 453.15234 376.63086 L 454.0918 374.37109 L 454.75195 373.76953 L 454.69141 372.45117 L 454.08203 370.91016 L 455.04102 368.31055 L 455.77148 367.69141 L 456.86133 367.66016 L 457.94141 367.16992 L 458.8418 367.67969 L 460.42188 366.75 L 461.19141 366.83008 L 461.95117 367.95117 L 463.96094 368.80078 L 464.39062 369.32031 L 464.4707 369.9707 L 465.25195 370.01953 L 465.60156 370.89062 L 466.41211 371.56055 L 469.4707 371.4707 L 471.98047 372.5 L 473.66211 370.98047 L 474.11133 370.87109 L 474.78125 371.28125 L 475.61133 370.51953 L 476.18164 370.40039 L 476.8418 371.08984 L 477.08203 372.04102 L 478.60156 373.2207 L 479.54102 373.56055 L 480.77148 373.14062 L 482.75195 373.78125 L 483.73047 373.57031 L 485.79102 374.55078 L 486.19141 375.30078 L 486.61133 375.51953 L 486.25195 376.40039 L 489.79102 379.46094 L 489.87109 380.2207 L 491.98047 380.06055 L 493.62109 378.73047 L 494.01172 378.82031 L 494.26172 379.42969 L 494.79102 379.44141 L 497.94141 377.67969 L 500.3418 377.51953 L 501.21094 378.00977 L 502.24219 378.19141 L 504.21094 379.91016 L 505.55078 379.92969 L 505.71094 380.5 L 506.51172 380.86133 L 508.54102 380.79102 L 508.87109 378.28125 L 508.32227 377.48047 L 506.95117 376.37109 L 505.68164 373.7207 L 505.06055 372.29102 L 504.99219 371.38086 L 504.35156 369.66992 L 504.49219 368.31055 L 505.54102 365.98047 L 506.53125 363.53125 L 507.37109 362.25 L 508.18164 361.54102 L 507.89062 360.65039 L 506.98047 359.54102 L 507.29102 359.03125 L 507.06055 357.96094 L 507.24219 357.34961 L 507.91211 357.01953 L 508.04102 356.23047 L 509.37109 356.45117 L 510.56055 356.09961 L 503.76172 342.76953 L 502.29102 342.30078 L 501.9707 343.07031 L 501.26172 343.24023 L 501.08203 343.67969 L 500.44141 343.91992 L 500.51172 344.58008 L 499.57227 345.31055 L 498.25195 345.62109 L 497.82227 345.08984 L 497.11133 345.55078 L 496.62109 345.86133 L 494.81055 344.71094 L 493.93164 344.49023 L 493.11133 344.51953 L 492.5918 344.19141 L 492.06055 344.05078 L 491.44141 343.91992 L 491.04102 343.92969 L 490.81055 344.21094 L 489.83203 344.30078 L 489.51172 344.82031 L 488.55078 344.9707 L 488.25195 344.4707 L 487.68164 344.66016 L 487.78125 345.04102 L 487.48047 345.24023 L 486.82227 345.25 L 486.29102 345.11133 L 485.41211 345.08984 L 484.88086 345.06055 L 484.45117 345.4707 L 484.07227 345.38086 L 483.61133 345 L 483.16211 344.94141 L 482.82227 344.84961 L 482.67188 344.08008 L 482.06055 343.99023 L 481.46094 344.53125 L 480.43164 344.99023 L 479.99219 344.69141 L 479.75195 344.20117 L 478.45117 343.64062 L 477.55078 343.46094 L 476.11133 344.48047 L 475.88086 345.13086 L 475.08203 345.79102 L 474.35156 344.49023 L 474.70117 343.95117 L 473.41211 343.79102 L 473.68164 343.33008 L 474.15234 343.40039 L 474.40234 343.13086 L 474.45117 342.26953 L 474.04102 341.92969 L 474.08203 339.92969 L 474.66211 339.71094 L 474.67188 339.04102 L 475.35156 338.66016 L 475.23047 337.58008 L 475.32227 336.96094 L 474.24219 335.73047 L 474.29102 335.16016 L 473.25195 334.66016 L 472.37109 334.49023 L 472.03125 333.5 L 471.28125 333.44141 L 471.20117 332.67969 L 470.17188 333.45117 L 469.74219 333.59961 L 469.24219 332.53125 L 469.08203 332.41992 L 468.67188 332.32031 L 467.76172 332.48047 L 467.39062 331.71094 L 467.55078 331.07031 L 466.71094 330.01953 L 466.12109 330.13086 L 465.39062 330.03125 L 464.60156 330 L 464.16211 330.40039 L 463.60156 330.61133 L 463.12109 330.88086 L 462.01172 330.54102 L 462.35156 329.16016 L 461.62109 329.25977 L 461.45117 329.58984 L 460.14062 329.23047 L 460.3418 328.91992 L 460.10156 328.70117 L 459.43164 329.05078 L 459.06055 329.39062 L 458.3418 329.26953 L 459.16211 328.23047 L 458.49219 327.98047 L 458.29102 327.70117 L 457.9707 327.45117 L 458.33203 326.92969 L 458.70117 327.09961 L 459.00195 326.76953 L 459.48047 326.08008 L 460.23047 325.64062 L 460.41211 324.79102 L 460.06055 324.76953 L 459.65234 324.25977 L 459.81055 323.98047 L 460.30078 323.99023 L 460.3418 323.09961 L 459.16211 322.45117 L 458.81055 321.2207 L 458.50195 320.75977 L 458.50195 319.81055 L 458.00195 320.09961 L 457.83203 320.66016 L 456.60156 321.16992 L 455.99219 321.08008 L 455.53125 320.78125 L 455.29102 319.25977 L 454.69141 318.42969 L 453.79102 317.46094 L 454.30078 317.11133 L 454.25195 316.83008 L 453.80078 316.50977 L 452.51172 316.28125 L 452.16211 316.41992 L 451.80078 316.16992 L 451.02148 315.64062 L 451.54102 315.19141 L 451.70117 315.73047 L 452.23047 315.65039 L 452.16211 314.29102 L 451.30078 314 L 451.06055 314.63086 L 450.53125 313.78125 L 449.94141 314.26953 L 449.41211 314.25 L 449.61133 314.80078 L 449.33203 315.01953 L 448.66211 314.94141 L 447.8418 315 L 447.27148 314.36133 L 446.82227 314.51953 L 446.42188 314.83984 L 446.03125 314.45117 L 446.12109 313.62109 L 445.66211 312.94141 L 445.02148 312.63086 L 444.63086 312.83008 L 443.98047 312.21094 L 442.49219 312.76953 L 442.52148 312.44141 L 442.08203 311.89062 L 441.82227 311.98047 L 441.5918 312.38086 L 441.00195 312.58984 L 439.87109 313.14062 L 438.60156 312.61133 L 438.36133 312.55078 L 438.05078 312.49023 L 437.48047 312.57031 L 437.03125 312.55078 L 436.31055 311.61133 L 436.07227 311.94141 L 435.66211 311.9707 L 435.62109 312.99023 L 434.93164 313.38086 L 434.83203 314.13086 L 434.32227 313.84961 L 433.80078 313.91992 L 432.79102 312.06055 L 432.93164 310.59961 L 432.54102 309.99023 L 431.98047 309.26953 L 431.94141 307.2207 L 430.0918 306.91016 L 425.52148 307.05078 L 421.33203 305.88086 L 421.02148 305.36133 L 421.21289 304.48242 z " 
                fill="rgb(151, 144, 238)" 
                stroke="white" 
                stroke-width=".7px"
                title="Tboung Khmum" 
                id="KH-25" 
            />
        </svg>