<svg xmlns="http://www.w3.org/2000/svg" viewBox="86.58138900000023 32.030439999999885 177.8600009999999 71.33000000000004" width="177.8600009999999" height="71.33000000000004">
            <path 
                d="m 167.94139,32.13044 2.21,0.89 -0.11,2.26 -0.65,0.99 -0.25,1.91 0.43,1.22 0.62,0.51 1.94,-0.35 1.54,0.12 1.15,0.2 0.63,0.72 0.81,-0.77 1.33,1.36 0.8,0.79 1.15,-0.72 2.16,-0.36 0.25,0.49 -0.18,1.1 0.69,0.22 2.13,0.26 0.36,-0.79 0.78,-1.38 0.46,-0.22 0.96,0.1 1.85,0.57 -0.13,1.17 0.99,0.35 0.9,1 1.1,0.88 1.21,-0.43 0.78,0.72 1.71,0.23 1.94,0.51 1.45,0.21 0.63,-0.26 -0.19,-1.11 0.47,-1.15 2.76,0.06 1.06,-0.67 0.46,0.18 0.49,0.91 0.93,0.14 0.59,-0.98 0.98,-0.47 0.28,0.27 -0.02,0.68 0.55,0.74 1.58,0.36 2.92,-0.12 2.25,-0.29 2.01,-0.47 0.74,-0.42 0.86,-2.07 0.99,-0.5 0.18,-0.94 1.78,0.57 1.04,-0.33 0.92,0.4 0.16,0.95 -0.38,0.83 0.38,0.46 0.68,0.16 3.65,-0.79 -0.27,-0.84 -0.23,-1.11 1.79,-1.1 1.79,0.21 1.12,1.66 1.22,0.32 3.62,-1.35 0.52,-1.74 0.72,-0.44 1.21,-0.69 1.01,-1.08 0.45,0.11 1.63,1.01 2.67,2.2 0.97,1 1.14,0.54 2.3,0.09 1.8,-0.5 1.65,-0.46 0.89,0.71 1.08,-0.45 0.55,0.04 0.91,1.06 1.2,-0.73 1.45,0.53 0.52,1 1.32,0.24 0.98,0.28 0.66,-0.46 0.66,0.02 0.38,0.53 -0.29,1.27 1.22,-0.12 0,0 0.1,0.14 -0.56,0.22 -0.22,3.11 -0.88,2.26 -0.36,2.46 0.32,0.57 -0.36,0.96 0.32,0.88 -0.42,0.49 0.75,0.55 0.25,1.53 -0.21,0.38 0.48,0.72 -0.42,0.39 -0.27,1.09 -0.33,0.36 0.18,0.93 -0.53,0.37 -1.25,-0.07 -0.14,0.76 0,0 -0.39,0.03 -0.37,-0.44 -1.01,-0.1 -1.17,0.02 -0.83,-0.09 -0.1,0.56 -1.19,0.73 -0.3,1.12 -0.76,0.46 -0.64,1.05 -0.15,0.46 -0.14,0.81 0.03,0.33 -0.98,0.67 -1.61,0.49 -0.42,0.5 -1.12,0.26 -1.34,1.05 -1.04,0.13 -1.16,0.64 -3.29,0.6 -2.03,2.02 -1.81,0.74 -2.52,0.31 -1.09,1.14 -1.83,0.74 -0.28,0.84 -0.68,0.04 -1.25,0.74 -1.54,-0.16 -0.95,0.49 -0.54,-0.29 -0.63,0.86 -0.22,0.87 -1.85,1.75 -1.3,0.54 -2.28,-0.5 -0.95,0.16 -1.18,-1.2 -0.53,-0.06 -0.85,-1.6 -0.87,-0.62 -0.48,-0.78 -1.88,-1.37 -0.61,-0.91 -0.98,-0.21 -0.51,-0.41 -1.85,-3.39 0.25,-2.61 0.64,-1.46 -1.88,0.25 -0.23,0.61 -0.41,0.08 -7.08,0.22 -2.4,1.09 -2.17,-0.01 -1.93,-0.48 -0.9,0.04 -0.02,0.33 -0.38,0.56 -0.16,0.2 -1.98,0.23 -0.87,-0.32 -1.07,0.35 -0.91,0.39 -1.02,0.03 -0.9,0.13 -1.07,0.33 -0.87,0.63 -1.49,0.14 -0.75,0.5 -0.41,0.27 -0.67,0.33 -0.82,-0.3 0.09,1.22 -0.32,0.69 -1.51,0.61 -0.35,0.54 -1.03,0.79 -0.03,0.57 -1.07,1.38 -0.09,0.67 1.36,0.95 0.07,0.43 -1.49,0.23 -0.06,0.65 -1.19,0.46 0.4,0.92 -0.05,0.27 -0.48,0.19 -1.73,0.14 -0.89,0.73 -0.08,1.13 -1.24,1.02 -0.55,-0.15 -0.64,-0.17 -0.17,-0.31 -0.93,-0.03 -0.19,0.33 0.36,1.94 -0.46,0.54 -0.65,-0.19 -0.17,1.06 -0.96,0.49 -0.52,0.62 -0.55,1 0.16,0.47 -0.85,0.6 0.78,0.56 -1.07,0.11 -0.65,-0.33 -0.12,-0.39 -0.33,-0.18 -0.19,-0.29 -0.81,0.31 -0.39,-0.17 -0.06,-0.42 -0.84,0.6 0.46,0.43 -0.32,0.18 -0.62,-0.49 -0.38,-0.34 -0.74,-0.06 -0.21,0.27 0.07,0.56 -0.17,0.26 -0.76,0.36 -0.28,0.46 -0.33,0.44 -0.47,0.46 -1.17,0.07 -0.09,0.55 -1.41,1.2 -0.54,0.34 -0.79,0.19 -0.5,0.63 -0.36,0.61 -0.86,0.16 0.29,1.05 -0.34,0.18 -0.34,-0.1 -0.77,0.3 -0.73,0.08 -0.63,0.51 -0.81,-0.04 -0.27,0.26 -0.3,0.28 -0.44,-0.12 -0.37,0.17 -0.99,-0.2 0.01,0.3 -0.26,0.11 -0.44,-0.68 -0.84,0.17 -0.82,0.18 -0.69,-0.09 -0.32,-0.12 -0.66,-0.15 -0.61,0.14 -0.76,0.35 -0.48,0.61 -0.76,-0.29 -0.38,0.25 -1.22,0.29 -0.14,0.23 -0.37,0.53 -0.3,0.32 -0.19,-0.37 -0.47,-0.02 -0.11,0.59 -0.39,0.34 -0.51,-0.25 0,0 -0.19,-0.45 0.15,-0.42 -0.1,-0.7 0.38,-0.51 0.44,0.08 0.28,-0.5 -0.41,-0.86 0.25,-0.56 -0.32,-0.75 -0.44,-0.29 -1.08,-0.1 -1.89,-1.13 -2.54,-0.44 -0.57,-0.45 -3.1,-4.26 -2.19,-3.95 -1.37,-1.88 -0.51,-1.43 -3.4,4.43 -2.85,3.21 -1.62,1.42 -2.08,0.47 -3.55,0.15 -1.45,0.66 -0.45,0.82 -4.09,-7.4 0.23,-0.61 0.6,-0.13 1.17,-0.98 0.86,-1.73 0.26,-1.87 -1.2,-1.75 1.69,-1.77 0.22,-1.1 -0.14,-1.04 0.66,-0.98 0.63,-2.32 -1,0.33 -0.81,-0.32 -1.31,0.55 -1.16,-0.13 -1.44,-0.72 -0.47,0.09 -0.37,0.47 -0.8,-0.51 -0.75,0.1 -0.33,0.36 -1.210001,-0.53 -0.83,0.45 -1.22,-0.87 -0.68,-0.09 -0.26,-0.56 -0.98,-0.55 -0.22,-0.55 -1.97,-1.35 -0.4,-2.08 -5.94,-12.02 0,0 0.73,-0.18 2.26,-2.81 -0.1,-1.06 0.21,-0.39 2.13,-0.11 0.99,-1.32 5.09,-0.72 0.85,-0.68 -0.29,-0.67 0.09,-0.95 1.540001,-0.79 0.59,0.17 0.91,1.37 0.94,-2.07 0.8,-0.49 0.9,-0.18 1.51,0.23 1.96,0.93 1.54,-0.16 0.47,0.56 2.13,-1.56 3.44,-1.94 2.19,0.33 4.2,-1.06 1.57,0.71 1.3,-0.06 2.04,-0.08 2.53,0 3.94,-0.67 0.39,-0.51 -0.21,-1.18 0.8,-1.17 2.33,-1.36 0.37,0.29 0.86,1.18 0.66,1.37 2.05,0.46 0.41,-0.37 0.27,-1.03 1,-0.46 0.28,-0.96 1.36,0.05 0.78,-1.8 2.21,-0.58 0.37,0.48 0.44,0.04 0.47,-1.19 0.97,-0.66 1.68,-0.39 0.85,-0.57 1.58,-0.22 1.1,-0.2 1.27,0.29 1.15,0.98 1.71,1 0.43,0.93 0.94,0.42 2.27,-1.52 0.97,-0.26 0.61,0.32 0.3,-1.08 -1.85,-0.43 0.42,-1.06 1.16,-0.87 0.55,-0.16 1.09,0.33 1.48,0.03 0.77,-0.52 z" 
                fill="rgb(151, 144, 238)" 
                stroke="white" 
                stroke-width=".7px"
                title="Ŏtdâr Méanchey" 
                id="KH-22" 
            />
        </svg>