<svg xmlns="http://www.w3.org/2000/svg" viewBox="487.90191000000004 168.51242 86.28999999999985 119.63000000000002" width="86.28999999999985" height="119.63000000000002">
            <path 
                d="m 532.80191,168.51242 0.63,1.35 0.61,-0.13 0.94,1.12 -1.42,0.91 0.33,0.43 -0.31,0.31 0.52,0.48 2.49,1.09 1.85,0.09 0.25,-1.24 1.17,0.21 -0.65,4.21 -0.29,0.32 1.6,3.26 -1.56,0.52 0.01,1.04 -0.82,-0.45 -0.79,1.48 1.11,0.04 0.14,0.46 1.44,-0.03 0.9,0.46 0.7,0.03 0.37,-0.42 2.12,0.31 0.63,-0.24 -0.04,4.74 1.14,-0.12 0.55,0.94 1.34,-0.12 0.05,0.68 -0.87,0.08 -0.36,0.5 0.17,1.38 -0.69,1.16 0.79,0.82 1.1,0.12 0.25,0.72 -0.71,0.27 0.36,0.52 -0.01,0.96 -0.93,0.22 -0.07,0.45 -0.84,0.28 0.47,6.27 1.43,1.7 -0.59,0.91 0.15,0.83 -0.36,0.01 0.87,0.61 -0.21,0.51 1.06,0.85 0.97,-0.21 0.28,0.62 1.73,-0.81 0.52,3.55 0.64,-0.19 0.9,0.83 -1.99,1.25 0.14,1.09 -0.44,0.51 -0.06,1.1 1.42,0.75 3.04,-0.36 1.23,1.19 -0.02,1.37 0.77,1.21 -0.07,0.65 -0.43,0.42 0.33,0.63 1.01,0.54 1.93,0.04 -0.09,0.63 4.34,1.47 -0.38,1.46 0.71,0.4 0.03,0.8 -0.54,0.9 0.78,1.6 6.83,0.47 0.02,2.41 0.58,0.46 0.55,-0.14 0.64,0.56 -0.92,2.35 0.3,1.14 0,0 -3.94,0.08 -2.68,-0.35 -0.16,0.46 -1.31,0.18 -0.36,1.27 0.12,1.13 -1.3,0.05 -0.28,1.31 0.48,0.88 -0.2,1.65 -0.67,0.59 0.1,2.1 -1.24,0.22 -0.05,-0.93 -2.33,0.01 0.07,1.49 -1.29,0.01 0.01,0.73 -0.41,0.52 -5.31,0.04 -0.13,1.26 -3.55,0.1 -0.01,1.96 -1.42,0.02 -0.16,1.58 -0.73,0.06 0.03,1.78 0.3,0.3 -0.19,1.21 0.52,0.25 -0.05,4.09 -0.53,0.02 0.04,0.8 -1.21,0.28 -1.04,2.14 0.07,0.94 3.88,0.12 -0.33,1.25 0.14,0.82 -0.3,0.36 -1.14,0.04 -0.07,0.75 -1.85,0.44 0.42,0.87 -0.26,3.64 -0.75,1.56 -1.72,2.08 -1,0.17 -1.22,-2.02 -1.25,-0.4 -1.09,1.12 -1.26,-0.4 -0.86,0.14 -2.52,-0.8 -3.47,1.24 -2.92,0.31 -2.61,-0.74 -3,0.67 -0.7,0.59 0.21,0.86 -1.11,0.45 -5.19,7.51 -1.32,1.18 -0.27,0 1.12,-1.13 -0.19,-1.03 -1.09,-1.13 -1.71,-0.81 -1.64,0.95 -0.81,0.87 -1.33,0.32 -2.02,1.17 0,0 -1.42,-2.25 2.41,-1.95 0.21,0.23 1.4,-0.82 -1.7,-1.32 1.16,-1.64 -0.82,-0.93 -0.67,0.54 -3.24,-1.53 0.9,-0.55 -0.38,-1.91 -0.63,0.16 -1.18,-1.74 -0.27,0.11 -0.14,-0.4 -0.42,0.27 -0.11,-0.59 -0.37,0.42 -0.31,-0.51 -0.37,0.13 -1.17,-1.37 1.17,-0.07 -0.14,-0.27 2.65,0.24 -1.24,-5.81 0.6,-0.1 0.16,0.45 2.68,-0.17 0.35,0.67 1.45,-0.65 -0.07,-0.38 1.41,-0.9 -0.45,-1.75 0.98,-0.25 0.86,1.93 1.34,-0.68 -0.28,-0.88 1.3,-3.17 0.28,-0.02 0.09,-1.58 -1.78,-0.08 0.11,-0.49 -0.49,-0.22 -0.8,1.48 -2.41,-2.14 -0.25,0.24 -1.82,-3.05 -0.69,0.74 -0.73,-1.17 -0.49,0.35 -0.69,-0.99 -1.76,1.41 -2.2,-3.8 -2.18,1.05 -0.62,-0.29 -0.09,-0.7 0.71,-0.15 -0.03,-0.49 -1.31,0.21 -0.22,-1.39 1.15,-0.18 0.08,-0.34 0.66,0.18 0.58,-0.99 -2.63,0.28 -0.4,-2.44 -0.49,-0.03 -0.52,-3.28 -2.8,0.39 -0.03,-1.56 0.41,-0.09 0.27,-1.16 -0.13,-0.48 -0.65,0.15 0,0 -0.24,-1.56 -0.93,0.06 -0.24,-1.37 1.63,-0.32 0,-0.46 1.66,0.01 -0.4,-2.07 -1.46,0.17 -0.27,-1.91 0.49,-0.14 -0.78,-0.63 0.7,-0.43 -0.58,-1.01 0.43,-0.6 -0.19,-1.41 0.81,-0.25 -0.05,-0.28 0.67,0.44 0.93,-0.5 0,0 -0.35,0 0,0 0.49,-0.36 0.3,0.59 0.47,-0.11 1.2,0.55 0.21,-0.32 0.79,0.75 0.21,0.92 0.46,-0.3 0.44,0.56 0.99,-0.29 0.25,0.6 1.43,0.38 0.17,-0.99 0.6,0.01 0.66,-1.35 -0.77,-5.25 0.45,0.32 0.24,-0.72 0.41,0.2 0.19,-0.33 0.88,0.02 -0.88,-5.89 -1.27,0.17 -0.11,-0.54 -1.74,0.2 -0.31,-1.76 0.15,-0.86 0.46,-0.38 -0.2,-1.72 0.4,-0.18 -0.33,-0.23 0.48,-0.29 0.49,0.14 -0.15,-1.33 -0.39,-0.03 -0.16,-2.06 0.8,-0.22 -0.14,-1.43 1.87,-0.33 -0.17,-1.15 -1.01,-0.31 -0.4,-0.92 -1.6,-0.02 -0.16,-1.41 -0.94,-0.22 -1.11,0.21 -0.22,-1.51 0,0 -0.57,-1.33 -0.26,-2.03 0.42,-0.08 0.29,-0.57 -0.74,-1.92 -0.14,-1.31 -0.61,0.01 -0.11,-0.32 1.01,-1.54 1,0.22 0.04,0.61 0.76,0.4 1.45,0.08 0.21,0.34 0.58,-0.07 0.56,-1.41 3.79,0.38 2.16,2.26 0.4,-0.82 -0.66,-0.07 -0.04,-0.4 -0.91,-0.75 0.42,-0.65 0.35,0.03 0.17,-0.78 1.48,0.21 0.19,-1.01 0.44,0.08 0.41,-0.97 1.64,0.43 -0.15,0.49 1.67,0.96 0.04,-3.31 0.7,-0.48 0.47,-0.97 1.32,0.03 0.08,-0.82 1.99,0.07 0.16,-0.91 -0.75,-0.18 0.35,-0.77 -0.84,-0.74 0.39,-0.46 0.3,0.19 0.23,-0.35 -0.38,-0.21 0.93,-0.42 0.14,-0.46 0.54,0.62 0.44,-0.06 0.1,-1.64 0.51,0.05 -0.16,-1.27 0.68,-0.12 0.39,-0.52 1.09,0.13 0.05,0.3 0.49,-0.34 0.49,0.18 -0.1,-0.26 1,-0.45 -0.18,-1.09 -0.47,-0.46 0.28,-0.27 1.67,-0.29 3.06,-1.64 -0.89,-1.02 -3.63,-1.36 0,0 1.51,-1.48 0,0 0.45,-0.51 1.9,-0.27 6.1,1.58 1,-0.22 0.02,0.26 0.65,0.06 0.23,-1.2 0.63,-0.71 z" 
                fill="rgb(151, 144, 238)" 
                stroke="white" 
                stroke-width=".7px"
                title="Donets'k" 
                id="UA-14" 
            />
        </svg>