<svg xmlns="http://www.w3.org/2000/svg" viewBox="47.841905 151.74242000000004 71.36000499999994 93.73999999999987" width="71.36000499999994" height="93.73999999999987">
            <path 
                d="m 48.041905,194.62242 -0.2,-0.72 1.21,-2.14 -0.82,-2.07 0.64,-1.17 0.05,-1 1.14,-0.53 -0.14,-0.38 -1.09,-0.39 -0.35,-0.94 0.87,-2.19 -0.7,-1.08 1.81,-1.98 0.17,-0.69 0.35,-0.28 0.5,0.32 0.66,-0.5 0.71,-3.15 0.68,-0.37 0.41,0.27 1.2,-1.36 0.52,0.38 0.28,-0.15 0.58,0.67 1.35,-0.4 2.13,0.68 0.28,-0.54 2.02,-1.43 1.3,0.52 0.33,0.65 1.39,-1.6 2.69,0.4 0.36,0.57 0.51,0.08 0.25,-0.85 0.83,0.28 0.34,-0.53 0.81,0.22 1.63,-1.28 2.64,-0.86 0.81,-0.13 1.13,0.98 0.61,-0.26 -0.02,-0.96 0.45,-0.83 -0.23,-0.36 0.39,-0.77 -2.2,0.15 -1.26,-0.29 -0.33,-0.56 0.45,-0.42 0.4,-1.43 -0.91,-0.41 -1.15,0.21 -0.09,-0.95 0.04,-0.74 1.35,0.34 0.62,-0.59 0.59,0.5 0.77,-1.26 -0.24,-0.96 1.43,-1.28 -1.58,-0.74 -0.61,-1.91 0.4,-0.6 0.96,-0.17 0.21,-1.4 -0.46,-1.13 0.36,-0.54 1.13,-0.09 -0.34,-1.57 1.03,-0.65 0.03,-0.31 0.41,0.14 -0.14,-0.35 0.89,0.19 0.7,0.67 -0.49,0.32 0.36,0.6 0.8,0.08 1.03,-0.63 0.8,1.02 1.42,0.82 0.59,-0.39 1.49,0.66 0.77,-0.12 0,0 1.38,3.1 0.52,2.61 0.54,0.27 0.69,-0.34 0.42,0.3 0.34,1.18 0.77,0.53 -1.09,1.62 0.09,1.6 0.42,0.44 0.11,0.87 2.87,1.43 -2.44,2.87 0.02,0.86 1.49,1.72 1.96,0.2 0.75,0.4 -0.31,1.8 0.53,0.14 0.05,0.49 -2.52,-0.6 -0.4,1.45 2.12,2.17 -0.03,0.96 1.74,-0.91 2.440005,1.53 0.83,-0.81 -0.19,1.64 1.25,1.01 -0.96,1 0.73,2.89 0.61,0.21 0.38,-0.27 -0.1,-1.32 1,-0.91 -0.21,-0.68 0.67,0.24 0.84,-0.49 -0.18,2.53 -0.69,1.77 0.6,0 0.66,-1.04 1.16,0.28 0.49,0.92 0.79,-0.11 0.27,0.3 -0.38,0.7 -1.78,0.02 -0.68,0.46 -0.15,0.81 0.56,0.9 0.92,0.09 0.44,-1.15 0.7,-0.74 0.46,0.07 0.5,0.67 0.38,-0.1 -0.31,-2.63 0.79,-0.03 2.07,0.81 0.3,-0.38 -0.37,-0.91 0.25,-0.21 0.61,0.26 0.55,0.61 -0.67,0.8 0.18,0.43 1.71,1.3 1.33,0.17 1.84,1.88 1.39,0.87 -0.14,0.48 -0.9,0.69 0.12,0.45 1.32,0.52 -0.04,0.5 -1.03,0.89 0.29,0.38 0,0 -1.53,2.19 0.25,0.34 -0.05,1.75 0.49,0.95 -0.05,6.24 0.73,2.5 -0.35,0.85 -2.28,0 -0.81,-0.75 -1.82,-0.3 -1.08,0.42 -1.29,-0.02 -2.18,0.92 -2.47,2.53 -2.66,3.83 -1.32,0.25 -1.25,1.1 0.38,0.26 -0.09,0.54 0.8,0.66 -0.08,0.67 -0.33,0.17 -0.9,-0.36 -0.53,0.24 0.25,0.93 -0.860005,0.21 -0.03,1.32 -0.92,0.23 -0.13,0.86 -1.13,-0.45 -0.55,0.23 -0.18,0.36 0.47,1.1 -2.75,3.01 0.24,0.91 -0.42,0.7 0.49,1.6 -0.17,0.4 0.32,0.16 -0.28,0.34 1.28,1.41 0.11,0.76 -0.49,0.2 0.11,0.5 1.23,1.13 -0.09,0.37 0.51,0.19 -0.47,1.38 -1.22,1.72 -0.85,3.35 0,0 -1.3,0.16 -0.24,-1.46 -1.39,-1.37 0.02,-0.64 -0.5,-0.63 0.22,-0.71 -1.5,-0.25 -0.18,-0.59 -0.4,-0.13 -0.48,0.46 -0.56,-0.67 -1.02,0.12 -0.11,-0.63 -1.04,-0.56 -0.19,-0.6 0.25,-0.97 -0.74,-1.19 -0.5,-0.24 -0.31,-1.28 -0.63,-0.08 -0.32,0.28 -0.56,-0.99 -0.6,-0.14 0,0 0.4,-2.64 1.69,-1.46 -0.93,-1.95 -1.33,-0.84 -0.22,-0.74 -0.76,-0.29 -0.94,-1.73 0.59,-0.86 -0.3,-0.54 0.46,-0.42 -0.11,-0.32 0.83,-0.89 -0.66,-0.77 -1.39,-0.58 0.24,-1.36 -0.26,-0.51 -1.45,-1.11 -0.92,-1.39 -1.68,-0.88 -0.49,-0.6 0.17,-0.83 -0.58,-0.51 -1.78,-0.37 0.06,0.7 -1.08,1.57 -0.42,-0.44 -2.17,-0.45 0.02,-0.36 -1.02,-0.69 0.09,-0.67 -0.42,-0.42 0.14,-1.24 -0.52,-0.57 -0.09,-0.96 0.54,-0.79 -0.51,-0.58 -0.05,-1.23 0.32,-0.54 -0.44,-0.46 -1.04,0.43 -0.46,0.69 -0.37,-0.24 -1.04,0.77 -1.29,-0.24 -0.71,1.62 0.1,0.47 -0.36,0.29 -1.64,-0.42 -0.46,-0.86 0.58,-3.04 -0.65,-0.88 -1.89,0.38 -1.82,-1.86 -0.2,-2.32 -2.8,-0.15 -2.28,-2.24 -0.05,-0.83 -0.43,-0.38 -0.82,-0.02 -0.29,-0.66 z" 
                fill="rgb(151, 144, 238)" 
                stroke="white" 
                stroke-width=".7px"
                title="Ivano-Frankivs'k" 
                id="UA-26" 
            />
        </svg>