<svg xmlns="http://www.w3.org/2000/svg" viewBox="135.48191000000017 97.32242299999997 59.749999999999915 111.38999700000015" width="59.749999999999915" height="111.38999700000015">
            <path 
                d="m 138.45191,119.16242 0.38,0.36 1.9,-0.38 0.56,-0.86 0.05,-0.94 0.65,-0.78 1.24,-1.11 0.66,-0.06 0.53,-0.67 3.67,0.09 -0.38,-0.2 -0.04,-0.72 0.73,-0.05 -0.22,-0.45 0.52,-0.41 0.13,-0.69 0.62,0.14 -0.02,-0.49 0.48,-0.01 -0.18,-0.67 1.14,-0.5 0.5,-1.48 1.57,0.17 0.42,-1.45 0.72,0.14 0.4,-1.61 0.61,0.16 0.19,-1.59 0.67,0.1 -0.32,-0.71 0.27,-1.04 0.34,-0.1 -0.14,0.95 1.53,-0.34 0.12,-0.42 -0.92,0.29 0.13,-1.01 0.31,-0.01 0.27,-0.68 1.15,-0.03 0.25,-0.93 0.32,-0.1 0.69,0.73 1.54,-1.939997 1.06,0.729997 1.66,0.44 0.24,-0.57 0.7,-0.29 0.31,-1.059997 1.76,0.39 0.09,-1.26 1.47,-0.92 0.5,0.34 0.01,1.42 2.15,-0.1 0,0 0.49,1.589997 1.7,0.99 0.27,1.19 1.08,-0.08 -0.25,1.81 -1.13,1.93 -0.28,1.46 2.32,1.4 -0.08,1.97 1.69,0.03 0.59,0.46 1.19,1.22 -0.57,0.21 0.14,0.32 -0.54,-0.06 1.09,0.98 0.02,-0.27 0.68,0.06 0.01,0.75 1.25,0.23 0.33,0.88 0.97,0.7 0.33,-0.02 0.48,-1.01 1.84,-0.61 -0.12,2.29 0.48,-0.1 0.54,2.36 0.63,-0.09 -0.2,-0.78 0.92,-0.29 0.04,1.17 0.54,0.66 -1.64,0.73 -0.22,1.14 0.55,0.43 -0.58,0.07 0.14,0.54 -0.46,0.88 1.76,0.5 0.43,2.13 -0.44,0.57 -0.89,-0.59 -1.04,1.7 -1.16,-0.76 -0.45,-0.03 -0.14,0.41 -0.37,0.05 0.03,1.02 0.84,2.27 -0.54,0.19 -0.06,0.61 -0.33,0.06 0.02,1.51 0.45,0.1 0.36,-0.4 0.88,1.05 0.98,-0.13 -0.47,0.85 0.47,1.31 -0.13,0.62 1.23,2.21 0.34,-0.61 2.02,0.35 -0.86,1.68 1,0.2 1.93,2.01 0.67,-0.11 0.21,-0.81 0.63,-0.13 0,0 0.07,0.92 -1.03,1.06 0.16,0.41 -1.59,0.22 0.11,1.67 1.49,1.1 0.03,1.01 -0.07,0.58 -0.4,-0.25 -0.28,0.91 -0.58,0.27 -0.49,0.96 1.23,1.16 -0.1,1.3 -0.6,0.55 -0.64,-0.8 -0.57,0.32 -0.01,1.74 1.57,0.44 -0.21,0.52 -0.46,-0.03 -0.27,0.75 0,0 -0.41,0.59 0.21,0.62 0,0 0.55,-0.24 0.9,0.42 0.42,-0.17 0.73,0.82 0.78,-0.3 -0.57,1.85 -0.73,0.3 0.06,0.42 0.53,0.09 0.01,0.43 -0.54,0.1 0.05,0.58 0.95,0.36 0.57,1.15 -0.23,0.87 0.38,0.69 -0.04,0.94 -0.45,0.69 0.84,0.97 -0.6,0.51 0.36,1.18 0.62,-0.07 0.22,0.28 0.21,1.18 -0.5,0.51 -0.97,0.28 -0.72,-0.51 -0.46,0.07 -0.15,-0.44 -0.76,0.61 -0.49,-0.97 0.05,1.26 -0.83,0.58 0.1,0.37 -0.63,0.64 -0.82,-0.36 -0.59,0.4 -1.94,-1.44 -0.28,0.34 -1.26,0.22 0.13,1.13 -0.7,0.69 -1.5,-0.99 0.09,0.95 -0.98,-0.43 -0.48,0.41 0.28,0.87 -0.73,0.88 0.66,0.91 -2.07,0.09 -1.95,3.12 0.63,0.4 -0.2,0.56 0.78,0.99 -0.03,0.84 -0.74,0.72 -0.08,1.77 0.83,1.28 0.03,2.15 0,0 0,0.58 0,0 -0.21,0.8 0.55,0.85 -0.72,1.07 0.08,0.36 -0.67,0.08 0.03,0.51 0.7,0.81 -0.4,0.68 0.55,1.55 -0.86,1.15 -0.57,2.27 0,0 -0.68,0.06 -0.3,1.14 -0.79,0.37 -1.33,-1.2 -1.19,0.02 -0.27,0.77 0.91,1.25 -0.64,0.91 -2.76,-0.89 -0.81,0.34 -0.76,0.9 -1.1,0.05 -2.89,-0.69 -0.32,-0.9 -0.77,0.64 -1.34,0.07 -0.87,1.35 -0.77,0.35 -1.33,-0.89 -0.67,-1.22 0.2,-1.14 -0.73,-0.28 -0.86,0.74 0.6,1.49 -0.57,1.03 -0.68,-0.1 -0.35,-1.58 -0.68,-0.45 -0.3,0.44 0.63,0.62 0.15,0.74 -0.11,0.71 -0.41,0.35 -0.83,-0.03 -1.52,-1.47 -0.79,-0.01 -0.5,0.38 -0.14,0.53 0.32,0.42 1.65,-0.25 0.18,0.79 0.99,0.9 0.2,0.68 -0.56,0.41 -1.36,0.03 -0.8,-1.06 -0.78,-0.05 -0.11,0.65 0.62,1.64 -0.9,0.52 -1.61,-0.33 -2.26,-4.38 -1.45,0.35 0,0 -0.26,-0.47 -0.89,0.29 -0.89,-1.14 -0.37,1.06 -0.4,0.01 0.17,-0.79 -0.96,-0.53 0.74,-0.93 -0.53,0.08 -0.63,-1.3 -1.06,-0.6 1.01,-0.36 -0.15,-0.33 -0.98,-0.12 0.65,-0.84 -1.27,0.38 0.16,-1.16 -0.98,0.07 -0.04,-0.79 -0.62,0.1 -0.16,-0.31 0.6,-0.54 -0.32,-0.58 0.44,-1.41 -0.7,-0.81 0.65,0.18 0.09,-0.24 -0.51,-0.39 0.21,-0.77 -0.7,-0.18 -0.26,-0.89 0.25,-0.23 0.68,0.6 -0.32,-1.18 0.75,0.25 0.35,-0.44 -0.8,-0.14 -0.58,-1.6 -0.51,-0.27 0.38,-1.21 -0.29,-0.88 0.59,-0.67 -0.38,-0.13 -0.53,0.41 -0.39,-0.73 0.41,0 -0.1,-0.85 0.47,-0.97 -1.02,-0.96 1.19,-0.57 -0.96,-0.24 -0.2,-0.41 0.46,-0.35 0.59,0.2 0.2,-0.36 -0.57,-0.84 0.32,-0.58 -0.77,-1.02 1.01,-0.91 -0.79,-0.2 0.39,-1.19 -0.24,-1.52 0.26,-0.27 -0.48,-1.36 0.72,-0.11 -0.72,-0.53 0.16,-0.51 -0.34,-0.77 0.35,-0.77 -0.16,-0.43 0.41,-0.09 0.04,-1.15 1.38,0.02 -0.03,-0.53 0.49,-0.47 -0.51,-0.74 0.45,0.09 -0.2,-0.53 0.36,-0.16 -0.42,-0.46 0.03,-0.73 -0.76,-0.73 0.01,-1.11 0.55,0.08 -0.35,-0.66 0.36,-0.52 -0.76,-0.46 0.43,-1.17 -1.32,-1.55 -0.09,-2.63 -1.66,-1.59 1.13,-2.02 0.7,-0.43 0.23,0.53 0.51,-0.18 -0.38,-1.48 0.23,-0.42 -0.48,-1.11 0.89,-0.78 0.22,-0.66 0.84,0.06 0.03,-0.8 0.52,-0.23 -0.11,-0.63 -1.03,-1.17 -1.67,-1.08 0.76,-1.23 1.05,-0.61 -0.19,-1.52 -0.49,-0.31 -0.31,-1.51 -1.28,-1.92 0.8,-1.11 -1.37,-0.71 -0.06,-0.34 -0.88,-0.44 0,-0.41 1.05,-0.85 -0.65,-1.88 0.11,-1.02 0.67,-0.52 0.04,-0.47 1.07,0.09 0.35,-1.25 -1.14,-0.43 0.71,-0.59 0.64,-0.03 0.02,-0.5 0.31,0 -0.16,-0.74 -0.68,-0.47 -0.03,-1.55 2.46,-0.17 0,-0.58 -1.32,-1.01 0.29,-0.6 -0.69,0.03 -0.46,-0.57 0.31,-0.29 -0.22,-0.84 z" 
                fill="rgb(151, 144, 238)" 
                stroke="white" 
                stroke-width=".7px"
                title="Khmel'nyts'kyy" 
                id="UA-68" 
            />
        </svg>