<svg xmlns="http://www.w3.org/2000/svg" viewBox="241.57191000000006 47.062423 97.90999999999997 124.51999700000002" width="97.90999999999997" height="124.51999700000002">
            <path 
                d="m 283.53191,60.472423 -1.81,0.41 0.3,-1.8 -2,-0.15 -2.37,-2.39 -0.26,-0.44 1.05,-0.91 -0.56,-2.17 0.35,-0.22 -0.58,-0.14 -1.5,-1.99 -1.44,-1.19 -1.51,-0.52 -0.95,-0.91 -0.42,1.2 -1.19,-0.99 -0.22,0.11 0.23,0.79 -0.28,0.16 -3.48,-0.89 -0.16,0.79 -0.71,0.45 -0.46,-0.15 -0.37,0.72 -1.29,-1 -1.09,0.28 -0.4,0.38 0.22,0.3 -0.42,1.43 -1.2,-0.63 -0.92,0.4 -0.37,-0.54 -0.39,0.13 0,0.84 -1.64,-0.86 -0.6,-1.7 0.62,-0.28 -0.06,-1.13 -0.25,-0.8 -0.7,0.01 -0.24,0.46 -1.21,0.54 -0.15,0.46 -0.4,-0.16 -0.48,0.35 -0.33,-0.3 -0.37,0.62 -0.47,0.1 -0.02,0.89 -0.82,0.66 -1.47,-0.95 -0.75,1.8 0.09,1.26 -0.63,1.35 -3.05,-0.73 -0.97,0.5 -0.77,0.95 0,0 0.01,0.5 1.18,-0.18 0.15,2.99 -1.46,2.71 -0.87,0.13 0.02,-0.33 -2.12,0.68 0.92,4.56 0.8,2.84 0.29,0.08 0.17,-1.63 0.56,-0.14 2.17,1.49 1.56,2.27 1.67,1.52 -1.54,2.39 0.08,1.67 0.34,0.36 -1.17,-0.46 -0.95,0.06 -0.05,1.94 0.82,0.28 0.83,0.84 0.72,1.79 1.06,0.86 0.28,0.62 -0.74,1.66 0.95,0.64 0.45,-0.21 0.25,0.81 -1.39,-0.27 -0.44,0.24 0.1,0.75 0.73,0.45 -0.42,0.31 0.14,0.56 -1.31,0.17 1.21,0.28 0.83,-0.51 1.37,0.22 0.03,1.1 0.84,1.14 -0.71,1.65 -1.52,1.11 -0.03,0.72 -0.8,0.47 -0.58,-0.28 -0.29,0.19 -0.19,0.24 0.3,0.45 -0.59,0.61 0.11,0.3 -0.54,-0.1 0.12,0.3 -0.44,0.19 1.61,1.43 0.38,1 -0.12,1.27 -0.45,0.719997 -0.92,-0.08 0.25,0.58 -0.24,0.64 1.52,0.76 0.14,1.51 -0.9,0.67 -0.93,-0.59 -0.23,0.94 1.58,0.19 0.13,0.54 -1.01,1.27 -0.91,-0.07 0.53,0.83 0.68,-0.16 0.35,-0.53 2.51,-0.43 0.91,1.33 0.04,1.15 0.67,0.17 0.26,0.46 0.65,-0.32 -0.74,1.55 0.34,0.59 1.55,0.44 0.74,-0.18 -0.57,1.46 0.4,0.9 -0.78,0.3 1.23,2.33 -0.48,0.21 -0.39,1.18 -1.03,1.15 1.61,1.53 -1.12,1.37 -0.06,0.45 0.63,0.05 -0.93,0.66 1.59,1.86 -0.08,1.49 -0.58,0.46 0.71,1.42 -0.25,0.41 0.95,1.09 -0.16,0.32 0.74,1.33 -0.3,0.67 -1.83,1.01 0.79,0.44 -1.47,1.37 0.45,0.22 -0.46,0.5 -0.37,-0.22 -0.69,0.92 -0.58,-0.2 -0.2,0.59 -1.68,0.43 -0.26,0.84 -1.11,-0.81 -0.53,0.44 0.17,0.49 -0.49,0.74 -0.41,-0.6 -0.69,0.6 -0.44,-0.12 0.84,2.25 -0.8,1.79 0.3,0.81 1.59,0.02 -0.13,2.22 0.83,0.35 -0.35,0.71 0,0 0.96,0.67 -0.82,0.79 -0.26,1.4 1.01,1.92 0.38,1.91 0.95,0.88 0.53,-0.12 -0.07,0.53 -1.23,0.57 0.12,0.61 1.46,1.17 -1.18,2.02 -1.81,0.88 -0.16,1.08 0.62,0.51 0.16,1.49 0.54,0.74 1.12,-0.05 1.6,0.92 -0.27,0.8 0.14,0.76 0.38,0.04 -0.49,0.58 0.98,0.87 0.78,-0.14 0.81,0.59 0.33,-0.96 0.47,-0.24 0.29,1.42 0.47,0.27 0,0 0.72,0.16 -0.36,0.77 -0.62,0.22 1.29,1.43 1.66,-0.33 0.27,0.41 1.14,-0.51 0.96,0.09 -0.3,-0.75 0.76,-0.26 1.15,-2.25 0.82,-0.33 -0.04,-1.43 -0.43,-1 0.2,-0.57 0.4,0.22 1.27,-0.35 0.54,-0.76 0.52,-0.13 1.54,0.44 0.41,1.91 0.69,0.83 0.52,-0.79 -0.46,-0.97 0.71,-0.32 0.56,-1.2 0.1,0.49 1.75,-0.18 -0.4,2.72 5.87,1.01 0.08,0.94 0.31,0.05 0.84,-3.33 0.7,-0.2 -0.12,-1.24 0.8,-0.24 0.03,-0.96 1.12,-0.69 1.54,1.92 0.66,0 1.11,-1.34 0.44,0.17 0.79,-0.97 1.04,0.69 1.21,0.01 1.92,1.25 0.67,-0.67 1.12,0.01 0.63,-0.49 2.2,0.1 0.59,-0.5 0.82,0.13 0.44,-1.14 0.35,-0.01 0.14,-1.36 -0.5,-0.46 2.54,-0.38 0.37,-0.5 -0.06,-0.8 0.83,-1.13 0.53,0.75 -0.16,-0.87 0.74,-0.26 1.05,-1.02 0.25,-2.4 0.4,-0.62 0.36,-0.17 0.54,0.56 0.18,-0.49 0.31,0.04 -0.43,-0.91 0.33,-0.34 -0.65,-0.1 0.18,-1.15 2.33,-3.55 -0.1,-0.83 0.45,0.22 0.17,-0.42 -0.71,-0.4 0.36,-1.48 0.36,-0.23 -0.47,-1 0.26,-1.26 -0.85,-0.69 1.01,-2.17 -0.33,-1.09 1.16,-0.74 0.55,0.49 1.07,-1.39 2.87,-0.91 0.08,-0.39 -0.92,-1.39 -0.49,-0.15 -0.02,-0.4 0.42,-0.29 -1.26,-0.69 -0.75,0.34 0.81,-0.93 -0.58,-0.07 0.29,-0.72 2.77,-0.23 1.26,0.22 0.57,0.52 0.14,0.41 -0.71,2.03 0.03,1.74 0.58,1.23 0.88,0.2 0.29,0.73 0.67,-0.12 0.2,0.93 0.41,-0.11 0.17,-1.37 1.31,-0.2 0.36,-1.02 0.53,-0.16 0.17,-0.49 0.76,0.05 0.16,2.69 3.35,0.3 1.29,-2.2 0.64,-0.05 -0.07,-1.36 0.91,-0.82 0.65,-1.65 2.45,0.17 0.44,1.13 0.57,-1.23 -0.62,-2.84 2.22,-1.3 0.53,0.08 0.15,-0.49 -1.95,-0.47 -0.73,0.18 0.13,-2.37 2.1,-1.17 -0.48,-0.79 -0.38,0.13 -0.37,-1.07 0.97,0.28 1.13,-2.24 -0.15,-0.37 0.68,-0.21 1.43,0.91 1,-1.79 0.69,0.08 0.33,-0.44 0,0 -0.91,-1.01 0.52,-1.77 -0.2,-0.24 1.42,-0.95 -0.37,-0.59 0.73,-1.05 -0.24,-0.61 0,0 -0.08,-0.36 0.58,-0.76 -0.12,-0.42 -1.26,-0.23 -1.13,0.33 -0.27,-0.97 0.75,-1.17 -1.68,0.78 -0.86,-3.06 -1.93,-0.66 0.36,-0.59 -0.48,-0.26 0.66,0.08 0.08,-0.61 0.51,-0.06 0.25,0.55 1.22,-0.39 0.62,-0.9 -0.34,-0.63 0.34,-0.96 -3.73,-0.16 -1.04,-2.679997 -1.32,-0.64 -0.83,-1.26 -1.61,0.44 -0.02,0.79 -0.87,0.16 0.16,1.27 -0.38,0.22 0.09,0.9 -3.17,-0.17 -0.66,0.68 -0.69,-0.21 -0.01,1.049997 -0.52,0.61 -2.04,-0.27 -0.52,0.46 -1.11,-0.57 -0.18,0.4 -0.86,-0.02 -1.78,1.14 -0.75,-0.07 -0.14,-0.8 -1.47,-0.9 -1.39,1.78 -0.36,-1.37 -2.08,-0.79 0.02,-0.879997 -0.28,0.03 -0.13,-0.6 -1.94,-0.36 -0.01,-0.71 -0.67,-0.01 0.02,-1.06 1.68,0.12 0.3,-0.34 -0.27,-0.37 0.23,-0.37 -0.87,-0.87 0.75,-1.43 -0.14,-1.29 -0.38,-0.13 -0.02,-0.45 -0.53,0.18 -0.04,-1.18 -0.79,-0.06 0.03,-0.49 -1.48,-0.91 0.07,-1.27 -1.64,-0.27 -0.35,0.84 -3.69,0.04 -0.24,0.34 -1.68,-0.47 -0.37,-0.4 -0.45,0.29 -0.12,1.12 -0.75,0.14 -0.56,-0.03 -0.14,-0.58 0.44,0.07 0.03,-0.56 0.98,-0.78 -1.36,1.02 -1.98,-0.94 -1.25,0.32 -0.08,-0.66 0.43,-0.83 -0.53,-0.85 0.46,-0.17 0.52,0.41 0.13,-0.72 0.47,-0.41 -0.41,-2.33 -1,-0.57 -0.18,-0.48 -1.56,-0.42 -0.79,-2.36 -0.63,-0.87 -0.02,-1.92 -1.31,-0.55 -0.14,-0.87 -3.36,0.21 -0.22,-1.6 0.47,-1.16 -0.8,-1.12 0.94,-0.45 0.15,-0.4 -0.81,-1.19 -0.12,-1.89 0.37,-0.51 0.88,0.12 0.42,-0.27 -0.8,-0.4 0.49,-0.93 -0.89,-1.2 0.29,-0.33 1.18,0.12 0.31,-0.25 -0.05,-0.81 -0.53,-0.72 -1.09,-1.01 z m 10.66,40.189997 -0.64,0.4 -0.71,-0.2 -0.84,0.4 -0.52,1.31 0.58,2.52 1.48,1.11 0.19,1.81 -1.35,1.81 -1.93,0.91 -1.55,-1.01 -0.84,0.1 -0.32,0.4 -0.13,1.51 0.39,0.3 0.13,1.21 -0.52,0.9 0,1.01 0.39,1.61 -0.9,1 -1.03,-0.4 -0.97,-1.51 -0.77,-2.21 -0.32,-2.52 -1.03,0.1 -0.9,-0.81 -0.58,-0.1 -0.84,-2.52 -1.03,0 -0.52,-0.4 -0.45,-2.02 -1.29,-0.2 -1.29,0.4 -0.64,0.4 -0.26,0.71 -0.71,0.1 -0.26,-0.91 1.1,-2.73 0,-1.01 1.55,-1.82 0.9,0.2 0.32,-0.609997 -0.26,-0.61 -1.35,-0.91 -0.06,-0.51 0.32,-0.2 2.71,-0.2 2.38,0.4 3.03,3.239997 1.55,-0.91 2.9,0 0.64,-0.509997 0.64,-1.31 1.16,-0.4 1.87,0.61 0.58,0.61 0,1.459997 z" 
                fill="rgb(151, 144, 238)" 
                stroke="white" 
                stroke-width=".7px"
                title="Kiev" 
                id="UA-32" 
            />
        </svg>