<svg xmlns="http://www.w3.org/2000/svg" viewBox="274.2119100000002 97.53242299999997 19.979999999999848 20.25999700000004" width="19.979999999999848" height="20.25999700000004">
            <path 
                d="m 291.67191,101.88242 -0.19,1.41 0.39,0.51 0,0.91 1.67,1.51 0.19,1.81 -1.35,1.82 -1.93,0.9 -1.55,-1 -0.84,0.1 -0.32,0.4 -0.13,1.51 0.39,0.3 0.13,1.21 -0.52,0.9 0,1.01 0.39,1.61 -0.9,1 -1.03,-0.4 -0.97,-1.51 -0.77,-2.21 -0.33,-2.51 -1.03,0.1 -0.9,-0.81 -0.58,-0.1 -0.84,-2.52 -1.03,0 -0.51,-0.4 -0.45,-2.02 -1.29,-0.2 -1.29,0.4 -0.64,0.41 -0.26,0.7 -0.71,0.1 -0.26,-0.9 1.1,-2.73 0,-1.01 0.51,-0.81 1.03,-1.01 0.9,0.2 0.33,-0.599997 -0.26,-0.61 -1.35,-0.91 -0.07,-0.51 0.32,-0.2 2.71,-0.2 2.38,0.4 3.03,3.239997 1.55,-0.91 2.9,0 0.64,-0.509997 0.65,-1.31 1.16,-0.41 1.87,0.61 0.58,0.61 0,1.409997 -0.65,0.41 -0.71,-0.2 -0.84,0.4 z" 
                fill="rgb(151, 144, 238)" 
                stroke="white" 
                stroke-width=".7px"
                title="Kiev City 1" 
                id="UA-30" 
            />
        </svg>