<svg xmlns="http://www.w3.org/2000/svg" viewBox="531.7319100000003 124.09242000000008 80.47999999999956 116.27999999999993" width="80.47999999999956" height="116.27999999999993">
            <path 
                d="m 548.39191,124.87242 0.79,2.53 -0.1,0.96 2.17,1.22 0.55,-0.89 1.23,0.24 -0.07,0.62 0.43,0.04 0.33,0.93 1.3,0.41 1.93,-1.03 1.11,0.23 1.02,0.91 1.11,-0.93 -0.04,-1.37 0.31,0 0.82,1.01 -0.86,0.97 0.21,1.47 1.02,0.41 0.78,1.47 0.81,0.12 0.63,0.87 1.12,-0.01 0.98,0.77 1.69,-0.26 0.63,0.58 -0.42,0.53 0.27,0.92 -0.23,0.2 0.82,1.58 0.61,0.03 2.5,-1.46 1.44,0.32 1.41,-1.04 0.86,-1.41 1.58,-1.32 1.52,2.55 0.14,1.76 0.69,1.41 1.2,1.18 3.12,0.9 2.3,-1.09 1.43,0.23 1.78,0.96 2.27,0.23 -0.35,1.3 2.02,4.9 3.07,0.94 1.94,2.04 2.9,-0.15 1.13,-0.41 1.09,-1.47 3.14,-0.38 0.6,0.32 2.38,-0.88 0.04,1.03 1.01,1.38 -4.24,2.51 -0.33,2.93 1.59,2.84 2.08,1.47 1.67,1.8 -0.49,2.77 1.38,1.42 -0.12,1.1 -0.52,0.28 -2.09,-0.01 -2.04,2.71 -1.54,0.41 -3.03,4.89 -0.09,1.45 -1.99,-0.35 -2.41,0.11 -1.3,1.05 -2.6,-0.59 -0.68,0.56 0.38,0.3 -0.64,1.82 0.41,0.47 0.67,-0.52 0.79,0.61 1.04,0.08 0.2,1.02 1.08,1.42 -0.5,0.75 0.64,0.69 0.27,-0.21 0.59,0.45 0.33,1.11 0.6,-0.77 0.28,0.48 2.25,-0.27 1.14,1.16 1.3,0.26 0.4,-1.71 1.02,-0.81 0.79,0.45 0.66,1.96 -3.39,3.98 -5.99,-2.47 -0.26,0.27 0.17,0.56 -0.38,0.03 -0.23,0.65 0.11,1 -0.56,0.71 0.05,0.64 -1.02,0.04 0.01,1.11 -0.43,0.18 -0.05,0.69 -0.65,0.29 0.25,0.36 -0.28,0.39 0.49,0.14 0.12,0.96 -0.67,0.75 0.31,0.16 -0.03,0.56 -0.61,0.3 0.09,0.53 -1.14,1.49 0.93,1.18 1.93,-0.22 0.24,0.4 1.35,-0.52 0.53,0.42 0.56,-0.05 -0.09,0.34 0.92,0.48 0.58,3.04 -0.68,0.41 0.03,1.48 1.69,1.25 -0.23,0.59 0.66,0.73 -0.13,0.86 0.39,0.31 -0.39,0.37 0.56,0.8 0.61,-0.58 -0.21,0.85 0.38,0.97 -1.9,0.88 -1.34,0.02 -0.27,1.21 1.38,0.04 0.28,0.57 0.34,-0.14 0.46,0.6 -0.2,0.57 0.31,0.33 1.18,-1.63 0.55,0.18 -0.22,-0.16 0.37,-0.56 0.45,-0.15 1.16,3.2 -0.42,0.57 0.01,0.92 -2.26,-0.2 -0.19,2.4 -0.92,0.12 -0.31,1.86 -0.96,1.26 -0.16,1.86 -1.05,0.61 1.59,0.95 0.03,0.44 -3.66,0.06 0.63,1.42 0.71,0.51 -0.25,0.7 0.36,0.3 0,1.44 -0.43,0.12 -0.45,1.44 0.01,2.44 -1.05,0.23 0.01,1.08 -0.89,1.05 -3.85,-0.6 -1.96,0.1 -0.67,0.57 -0.45,-0.35 -0.5,0.26 -1.39,-1.73 -1.16,0.34 -0.36,0.87 -0.6,0.33 -0.95,-2.05 -4.9,0.2 -0.25,0.67 -2.85,0.19 -0.11,0.42 -2.06,-0.49 0,-0.94 -0.37,-0.01 0,0 -0.3,-1.13 0.92,-2.35 -0.64,-0.57 -0.55,0.14 -0.58,-0.46 -0.01,-2.41 -6.83,-0.47 -0.78,-1.6 0.54,-0.9 -0.04,-0.81 -0.7,-0.4 0.38,-1.46 -4.34,-1.46 0.09,-0.63 -1.93,-0.04 -1.01,-0.54 -0.33,-0.63 0.44,-0.41 0.07,-0.65 -0.78,-1.21 0.02,-1.37 -1.23,-1.18 -3.04,0.36 -1.42,-0.75 0.07,-1.1 0.44,-0.51 -0.14,-1.09 1.99,-1.25 -0.9,-0.83 -0.64,0.19 -0.52,-3.55 -1.72,0.81 -0.29,-0.62 -0.96,0.21 -1.06,-0.85 0.21,-0.52 -0.87,-0.6 0.36,-0.01 -0.15,-0.83 0.6,-0.92 -1.43,-1.69 -0.47,-6.27 0.84,-0.28 0.07,-0.45 0.94,-0.22 0,-0.96 -0.35,-0.51 0.71,-0.27 -0.25,-0.72 -1.1,-0.12 -0.79,-0.83 0.69,-1.15 -0.17,-1.38 0.36,-0.5 0.87,-0.08 -0.05,-0.67 -1.35,0.11 -0.55,-0.94 -1.14,0.12 0.04,-4.74 -0.63,0.24 -2.12,-0.31 -0.37,0.42 -0.7,-0.04 -0.9,-0.45 -1.44,0.03 -0.14,-0.46 -1.11,-0.04 0.79,-1.48 0.82,0.45 -0.01,-1.04 1.56,-0.52 -1.6,-3.26 0.29,-0.32 0.65,-4.22 -1.17,-0.21 -0.25,1.24 -1.84,-0.09 -2.49,-1.09 -0.52,-0.48 0.31,-0.32 -0.33,-0.42 1.43,-0.91 -0.94,-1.12 -0.61,0.13 -0.63,-1.35 0,0 -0.17,-0.47 1.55,-0.72 -0.41,-0.54 1.97,-0.75 -0.34,-0.94 -2.16,-0.47 -0.19,-0.92 0.65,-3.92 -0.66,-0.74 0.02,-1.45 -1.1,0.01 0.2,-2.11 -0.43,-0.4 0.38,-1.4 1.22,0.09 1.27,-0.96 0.14,-0.46 -1.42,-0.21 0.5,-1.13 1.68,0.14 -0.37,-1.23 0.18,-0.88 0.99,-0.07 0.1,-0.58 0.7,-0.22 -0.46,-1.01 2.07,-0.57 -0.6,-0.27 -0.47,-1.66 -0.41,-0.3 0.55,-0.29 -0.12,-0.41 -0.78,-0.09 -0.53,0.34 -0.77,-1.17 0.8,-1.85 0.74,0.74 1.25,-1.57 0.63,-0.1 0.01,-0.39 -1.49,-1.06 0.37,-1.25 1.77,-0.01 0.61,-0.58 -2,-2.76 0,0 0.8,-1.2 2.27,-0.93 0.11,1.05 1.5,-1.04 -0.24,-0.58 1.04,-0.5 0.02,-0.4 0.75,-0.49 -1.03,-2.24 -0.28,-3.09 3.13,0.41 1.43,-0.82 0.56,0.18 z" 
                fill="rgb(151, 144, 238)" 
                stroke="white" 
                stroke-width=".7px"
                title="Luhans'k" 
                id="UA-09" 
            />
        </svg>