<svg xmlns="http://www.w3.org/2000/svg" viewBox="380.71190999999993 387.65242 18.550000000000068 20.11000000000007" width="18.550000000000068" height="20.11000000000007">
            <path 
                d="m 386.51191,387.77242 0.86,-0.12 0.87,0.54 2.18,0.08 0.53,0.47 0.33,1.49 -0.67,0.34 -0.97,-0.14 -0.43,0.48 0.1,0.75 0.86,0.81 2.42,-0.95 1.69,1.01 0.24,1.1 -0.14,0.39 -1.16,0.69 -0.05,1.75 0.29,0.54 2.85,1.42 0.39,2.3 2.56,4.19 -0.48,0.88 -0.73,0 -0.34,0.33 -0.04,0.82 0,0 -1.35,-0.02 -2,0.76 -1.48,0.08 -1.06,-1.64 -1.34,0.13 -0.55,-0.34 -0.5,-2.08 -0.65,-0.82 -0.44,-0.21 -1.61,0.2 -1.69,-0.72 -0.6,0.29 -1.09,-1.54 -1.86,-1.38 -0.74,-1.07 0.74,-0.38 0.01,0.87 0.25,-0.21 0.03,0.38 0.25,-1.11 0.55,1 -0.34,-1.2 0.38,-0.32 2.63,-0.62 2.67,0.16 -0.98,-0.59 -1.7,-0.29 0.76,-0.53 0.46,-1.45 -0.39,-5.71 z" 
                fill="rgb(151, 144, 238)" 
                stroke="white" 
                stroke-width=".7px"
                title="Sevastpol' City" 
                id="UA-40" 
            />
        </svg>