<svg xmlns="http://www.w3.org/2000/svg" viewBox="366.0619099999998 1.092422999999965 92.60000000000008 121.78999700000003" width="92.60000000000008" height="121.78999700000003">
            <path 
                d="m 396.26191,1.502423 0.59,1.51 -0.46,0.76 1.1,0.73 1.05,0.33 0.19,-0.39 0.33,0.2 0.86,1.27 -0.17,1.87 0.61,0.13 0.11,0.6 1.28,0.27 0.36,1.33 1.43,0.2 0.34,1.02 -0.13,0.88 1.92,1.39 -0.18,1.2 -0.72,0.72 0.32,0.8 -1.23,1.13 0.6,0.05 0.64,1.57 -0.22,0.79 0.2,1.09 1.35,0.44 -0.23,0.95 0.42,0.77 1.52,-0.05 0.59,1.54 0.67,0.65 -0.17,0.49 1.31,0.52 -0.01,1.18 -0.34,0.44 0.53,0.11 0.5,-0.5 0.67,0 1.02,1.03 1.01,0.41 0.35,0.78 0.59,0.15 0.97,0.98 -0.25,2.03 0.96,1.26 0.14,1.19 -0.63,1.16 -1.93,0.56 -1.9,-0.42 -0.62,0.83 -1.86,0.43 -0.78,-0.29 -0.34,0.45 -1.41,0.45 -1.11,-0.15 -1.53,1.18 0.26,0.32 0.49,-0.12 0.22,0.7 0.64,0.05 0.01,0.42 1.2,-0.13 0.54,2.53 1.03,-0.14 0.14,1.32 0.66,-0.52 0.67,1.36 0.08,1.46 1.24,0.09 0.46,0.71 -0.09,0.41 -0.61,0.01 0.1,1.64 -0.75,0.35 -0.74,0.94 0.24,0.91 -0.29,0.48 -0.74,0.14 0.23,0.53 -0.37,0.14 0.27,0.98 0.77,-0.06 0.67,0.74 0.67,-0.1 -0.11,0.64 0.55,-0.08 1.03,0.55 0.15,0.64 -0.86,1.19 -1.03,-0.08 0.22,0.72 -0.21,0.61 -0.26,-0.05 -0.16,0.64 -0.9,0.35 0.37,0.83 -0.67,0.27 -0.1,0.45 2.69,1.46 0.73,-0.08 1.81,-1.79 1.71,0.85 0.38,-0.2 1.36,0.88 0.84,0.11 0.32,-0.48 0.65,0.01 1.33,0.93 0.76,-1.08 2.01,0.38 0.28,2.71 1.62,1.27 0.44,-0.45 1.49,0.35 0.44,-0.54 0.69,0.69 0.75,0.11 0.11,-0.69 0.91,-0.86 0.49,0.35 0.75,-0.24 0.42,-0.54 0.9,0.11 0.18,-0.68 1.23,-0.91 0.98,0.1 0.96,0.67 0.15,0.8 0.73,-0.62 0.34,-0.81 1.73,0.05 0.89,0.39 -0.65,1.63 0.2,1.2 -0.37,0.4 0.47,0.56 0.12,1.04 1,0.53 -0.37,0.78 0.48,0.62 -0.1,0.49 -0.6,-0.11 -0.24,0.42 0.52,-0.04 0.84,1.66 0.82,0.34 1.26,-1.02 0.71,0.41 0.08,-0.43 1.05,-0.39 0.03,-0.28 1.42,0.81 0.94,-0.13 0.36,0.62 0.64,0.25 0.12,1.24 -0.81,0.36 -0.43,0.63 -1.75,-0.42 1.1,2.08 -0.8,1.75 0.19,0.47 1.15,0.15 0.03,0.36 0.73,0.1 0.33,0.48 0.1,0.65 -0.75,0.37 0.56,0.81 -0.5,0.53 0.73,0.44 0.49,0.9 -0.14,2.42 1.26,0.98 0.87,-0.02 0.37,0.31 -0.56,1.69 0.15,0.41 -0.73,0.58 0.1,0.41 0.38,0.08 -0.29,0.79 0.3,0.73 0.86,0.7 -0.26,1.15 -0.84,-0.56 -2.17,0.76 -0.12,0.65 1.04,1.96 -1.08,1.24 1.25,0.96 0.24,1.629997 1.35,2.21 2.88,1.81 0.26,-0.52 0.52,0.73 -0.03,3.36 0.98,0.57 -0.3,0.46 0.77,0.75 1.23,0.02 0,0 -0.18,0.36 0.79,0.2 -0.18,0.84 -0.5,0.15 -0.14,0.58 -0.6,0 -0.48,-0.35 0.14,-0.26 -1.2,-0.29 -0.7,0.53 -1.88,0.13 0.59,0.78 -0.35,0.58 -0.67,-0.44 -0.32,0.3 -1.22,-1.12 -0.62,-0.06 -0.55,-0.9 -0.63,0.71 -0.9,0.02 0.06,1.25 -1.72,-1.25 -1.12,1.56 1.1,0.75 -0.9,0.61 -1.23,-0.06 -0.29,1.56 -0.65,-0.02 -0.15,0.43 -1.27,-0.6 -0.18,0.48 -1.4,-0.7 -1.27,1.36 -1.43,0.62 0.05,0.76 -0.96,1.32 -0.44,-0.1 -0.04,-0.63 -0.7,-0.2 -0.12,0.34 -0.22,-0.31 -1.26,-0.12 0.37,1.35 -1.04,0.36 0,0 -3.15,-0.63 -0.39,0.35 -1.13,-0.08 -0.12,0.29 -1.94,0.48 0.24,-0.61 -0.53,-0.23 -1.11,0.68 -0.01,1.96 -0.71,-0.05 0.13,-0.33 -0.29,-0.18 -0.49,0.58 -0.3,-0.39 -0.7,0.34 -1.41,-0.82 -0.55,0.35 -0.91,-0.68 -0.54,-1.15 0.24,-0.81 -0.5,-0.54 1.26,-1.4 0.41,-1.03 -0.72,-1.01 -0.66,-0.15 -0.08,0.4 -0.37,-0.27 -0.25,-1.98 -2.08,-0.28 -1.27,-1.11 -0.42,-0.43 0.35,-1.04 -1.06,-1.1 0.29,-0.46 -4.32,-3.57 -0.37,-4.46 -0.97,-0.82 -0.6,0.61 -0.98,-0.16 -1.8,0.87 -0.06,0.95 -0.64,0.54 -0.46,-0.44 0.6,-0.82 -1.36,-0.54 -1.27,0.87 0.13,-0.62 -2.55,-1.929997 -1.29,1.659997 -0.82,-0.9 -0.62,0 -2.11,0.9 0.15,0.43 0.89,0.11 0.28,0.38 -0.19,0.4 -1.77,0.7 -1.14,0.96 -0.68,0.05 -0.77,-0.58 -4.87,-1.36 -1.12,0.28 -0.5,0.5 -0.8,-0.89 -0.59,1.04 -0.19,-0.62 -0.5,-0.16 -0.95,0.37 -0.03,0.48 -0.47,-0.36 -0.27,-0.86 -1.19,0.05 -0.1,-1.19 -1.84,-0.04 -0.12,-0.59 -0.54,-0.16 -0.76,-0.939997 -1.22,0.749997 -0.14,1.54 -0.56,0.3 -1,-0.26 -0.61,-0.78 -1.87,0.96 -0.5,-0.61 -1.17,-0.16 0,0 -0.62,-1.09 1.64,-2.029997 0.11,-0.64 0.71,-0.19 -0.62,-0.39 0.6,-1.86 -0.16,-0.48 1.07,-0.56 0.1,-2.01 -0.46,-0.9 2.55,-0.59 0.85,-0.57 -0.23,-0.28 -0.6,0.07 -0.24,-0.55 -0.62,0 -1.19,-2.33 0.49,-0.42 -0.42,-1.45 0.97,-1.16 -0.51,-0.22 0.37,-0.81 -0.31,-1.05 0.41,-0.4 0.83,0.01 -0.36,-1.6 0.14,-1.99 -1.32,0.07 -0.41,0.32 -0.35,-0.19 -0.74,-2.65 -1.33,0.78 -0.01,0.51 -1.2,-0.51 0.55,-1.76 0.85,-0.63 -0.78,-0.66 0.34,-1.04 -1.07,-0.21 -0.05,-0.5 -2.63,-0.48 -0.14,0.26 -0.39,-0.35 1.6,-2.75 -1.01,-0.98 0.76,-1.17 -0.28,-0.26 0.48,-0.54 1.25,-0.05 0.45,-0.31 -0.28,-1.22 1.24,-1.39 -0.32,-0.64 0.49,-1.29 -1.11,-0.25 0.62,-0.14 -0.44,-0.36 0.7,-0.22 0.41,-0.89 -0.48,-1.22 -0.94,0.02 0.07,-1.23 -0.67,-1.45 0.96,-0.7 0.31,0.26 -0.64,0.72 0.8,0.43 -0.02,0.61 0.86,0.19 0.83,-0.13 -0.07,-0.71 -0.5,-0.04 -0.23,-0.47 0.8,0.07 0.2,0.51 0.46,0.03 0.15,-0.9 -0.6,-0.33 0.54,-0.72 -0.64,-0.6 0.24,-1.6 0.45,-0.57 -0.15,-0.85 0.24,-0.65 0.4,0.18 1.45,-0.78 -0.24,-1.7 -0.54,-0.3 -0.44,-1.07 0.12,-0.42 1.57,0.05 0.53,-0.57 -1.06,-0.19 -1.21,-1.39 -0.09,-1.73 -0.81,-0.24 0.51,-1.07 -0.27,-3.17 -1.07,-1.21 -0.42,-1.46 -0.39,-0.12 0.28,-0.42 0.45,0.05 0.72,-1.57 0.78,-0.35 -0.27,-0.77 -0.37,-0.16 -0.18,-1.61 1.83,-1.16 0.03,-1.07 1.49,-0.12 -0.06,-0.44 0.92,-0.06 0.38,-0.54 1.05,0.26 0.21,-0.67 0.63,-0.2 0.48,0.41 0.83,-0.02 0.78,-2.62 -1.35,-1.65 -1.03,-0.44 0.41,-0.89 1.31,0.04 1.13,-1.08 0.48,0.02 0.8,1.28 1.4,-0.62 1.07,-0.03 0.02,-2.71 -0.3,0.28 -1.12,-0.39 -0.65,0.18 0.2,-0.5 -0.3,-0.7 -0.82,-0.29 0.08,-0.56 -2.45,-1.13 -0.46,0.28 0.5,0.24 -0.69,-0.1 0.18,-0.95 0.36,-0.11 -0.74,-1.09 -0.11,-0.74 0.68,-0.69 -0.57,-0.68 1.15,-0.45 0.62,-1.12 -0.28,-0.82 0.44,-0.06 0.35,-0.55 -0.04,-0.73 0.42,-0.48 -0.3,-0.36 0.52,-0.19 -0.39,-0.91 0.8,-0.3 0.47,-1.25 0,0 0.65,0.2 -0.25,-0.65 0.61,-0.76 0.31,0.5 1.61,0.07 0.22,0.78 -0.31,0.46 -0.63,0.1 -0.43,1.06 2.61,0.67 0.23,-0.56 -0.64,-0.64 1.23,0.64 0.81,-1.22 1.78,-0.32 0.71,-0.52 0.12,-0.48 1.07,-0.28 0.54,0.46 2.01,-0.8 z" 
                fill="rgb(151, 144, 238)" 
                stroke="white" 
                stroke-width=".7px"
                title="Sumy" 
                id="UA-59" 
            />
        </svg>