<svg xmlns="http://www.w3.org/2000/svg" viewBox="0.2519053500000066 175.66241999999994 84.22999965000001 61.13000000000005" width="84.22999965000001" height="61.13000000000005">
            <path 
                d="m 17.851905,178.14242 0.95,0.46 0.61,-0.59 1.76,0.41 0.5,-0.53 1.52,1.44 0.61,-0.04 0.48,1.22 1.46,-0.3 0.1,-0.55 -0.62,-0.63 0.22,-0.4 0,0 1.92,1.08 -1.21,0.84 0.55,1.65 -0.68,0.01 -0.81,0.62 -0.03,0.85 0.7,1.68 1.29,1.09 1.14,0.46 0.27,1.59 0.5,0.63 0.43,0.16 0.59,-0.77 0.75,-0.28 0.6,0.21 1.33,-0.82 1.16,0.65 0.05,0.81 0.58,0.12 1.72,3.69 2.12,-0.08 0.71,-0.65 1.36,1.1 1.24,-0.81 0.51,1.36 1.55,0.73 1.61,0.49 1.25,-0.71 1.4,0.29 0,0 1.46,0.38 0.29,0.66 0.82,0.02 0.43,0.38 0.05,0.83 2.28,2.24 2.8,0.15 0.2,2.32 1.82,1.86 1.89,-0.38 0.65,0.88 -0.58,3.04 0.46,0.86 1.64,0.42 0.36,-0.29 -0.1,-0.47 0.71,-1.62 1.29,0.24 1.04,-0.77 0.37,0.24 0.46,-0.69 1.04,-0.43 0.44,0.46 -0.32,0.54 0.05,1.23 0.51,0.58 -0.54,0.79 0.09,0.96 0.52,0.57 -0.14,1.24 0.42,0.42 -0.09,0.67 1.02,0.69 -0.02,0.36 2.17,0.45 0.42,0.44 1.08,-1.57 -0.06,-0.7 1.78,0.37 0.58,0.51 -0.17,0.83 0.49,0.6 1.68,0.88 0.92,1.39 1.45,1.11 0.26,0.51 -0.24,1.36 1.39,0.58 0.66,0.77 -0.83,0.89 0.11,0.32 -0.46,0.42 0.3,0.54 -0.59,0.86 0.94,1.73 0.76,0.29 0.22,0.74 1.33,0.84 0.93,1.95 -1.69,1.46 -0.4,2.64 0,0 -0.4,0.47 -0.94,-0.08 -0.51,0.47 -2.55,-0.96 -1.42,0.83 -0.39,1.36 -1.09,0.59 -0.84,-0.57 -1.49,1 -0.79,-0.05 -0.97,0.52 -1.23,-1.05 -2.72,0.16 -0.58,-1.13 -1.11,-0.76 -1,0.17 -0.8,-0.9 -0.85,0.4 -0.21,-0.36 -0.83,0.18 -0.37,0.76 -2.01,0.27 -0.56,0.49 -0.63,-0.4 -0.82,-1.9 -1.5,-0.83 -1.01,-0.1 -2.78,0.63 -1.75,-1.21 -1.66,0.24 -1.24,-0.82 -0.25,1.2 -0.9,1.42 -1.49,-0.43 -0.58,-0.68 -0.66,0.08 -0.51,-0.69 -0.79,-0.09 -0.88,-0.85 -0.61,0.01 0.12,-0.89 -1.47,-0.4 -0.41,-0.46 0.37,-0.91 -0.75,-0.68 -0.08,-0.68 -0.44,-0.06 -0.26,0.42 -1.83,-0.26 -0.41,-1.02 -0.43,-0.12 -0.58,0.41 -0.36,0.86 -0.85,0.38 0.31,0.49 -0.61,0.58 0.21,0.63 -0.43,0.55 0.32,0.38 -0.59,0.81 0.25,0.19 -0.2,0.5 -1.98,0.1 -0.61,0.7 -1.46,-1.07 -0.37,0.18 -1.11,-0.56 -0.29,0.64 0.63,0.41 0.34,1.59 -1.76,0.56 -0.26,-0.68 -1.65,-0.65 -0.14,-0.39 0.99,-1.1 0.53,-2.12 -0.44,0.13 -0.23,-1.09 -0.8,-0.46 -0.47,-0.88 0.06,-0.93 -0.32,-0.07 -0.33,0.58 -0.16,-0.79 -0.34,0.24 -0.63,-0.22 0.13,0.45 -0.29,0.2 -0.39,-0.54 -0.7,-0.02 -2.24,1.43 -2.71,-0.84 0.26,-0.49 -0.37,-1.18 0.33,-0.12 -0.49,-0.81 -0.29,0.06 -0.37,-0.98 0.24,-0.97 -1.32,-0.63 -0.57,-0.87 0.02,-0.57 -0.61,-0.13 0.14,-0.43 -0.49,-0.28 -1.01,0.61 -0.83,-0.52 -1.0799996,0.11 -0.68,0.73 -1.41,-2.22 -0.1,-1.4 -0.79,-0.9 0.19,-1.37 -1.73,-0.38 -0.89,-1.27 0.81,-1.25 -0.95,-0.06 -0.99,-0.78 -2.09000005,1.18 -0.23,-1.69 0.75000005,-6.67 0.77,-1.85 1.1,-0.96 0.52,-0.01 0.71,-1.28 1.76,-1.5 1.23,-0.39 0.75,-2.52 -0.03,-0.41 -0.6,-0.48 0.09,-0.57 1.39,-1.96 -0.38,-1.78 0.22,-1.32 0.48,-0.81 0.81,-0.47 0.3599996,-1.81 -0.2199996,-0.43 1.6799996,-2.43 0.15,-0.81 0.78,-0.38 0.66,0.15 0.84,-0.51 -0.28,-0.74 0.46,-0.42 0.06,-2.5 0.67,-0.77 0.52,-0.22 1.29,0.85 z" 
                fill="rgb(151, 144, 238)" 
                stroke="white" 
                stroke-width=".7px"
                title="Transcarpathia" 
                id="UA-21" 
            />
        </svg>