<svg xmlns="http://www.w3.org/2000/svg" viewBox="177.43190999999996 134.50242000000003 89.60999999999996 93.77000000000004" width="89.60999999999996" height="93.77000000000004">
            <path 
                d="m 193.05191,141.95242 -0.01,-0.45 0.49,0.21 1.2,-0.27 0.56,-0.62 1.02,-0.07 0.89,-0.48 3.9,0.44 1.23,-0.09 1.4,-0.88 2.29,-0.11 0.28,0.24 0.67,-0.59 0.06,-0.81 0.62,0.62 2.33,0.4 1.49,0.71 0.96,-0.52 0.55,-1.71 1.58,0 0.5,0.77 1.46,-0.57 1.45,2.3 0.98,-0.4 0.07,-1.42 0.71,-0.2 1.88,0.49 0.97,-0.24 0.55,0.65 0.35,-0.08 0.69,-2.4 1.03,0.04 0.11,-0.44 1.93,-0.51 0.46,-1.35 0.5,-0.11 0.78,0.39 -0.07,0.73 1.98,1.38 -0.19,1.11 0.45,-0.05 0.27,0.89 -0.9,1.11 0.79,0.35 -0.01,1.09 1.3,0.94 -0.31,1.18 -1.58,1.85 0.85,0.8 0.32,1.02 0.99,0.52 -0.7,1.12 0.03,0.82 0.9,0.32 2.95,-0.14 0.53,0.5 0.98,-0.41 2.2,0.17 0.96,-0.75 0.35,0.67 0.73,0 0.15,-2 1.67,0.05 0.44,0.67 0.49,-0.76 0.84,0.43 0.9,-1.94 0.64,0.37 0.16,-0.48 2.5,0.57 0,0 0.96,0.68 -0.81,0.79 -0.27,1.4 1.02,1.91 0.38,1.92 0.94,0.87 0.53,-0.12 -0.07,0.53 -1.23,0.57 0.12,0.61 1.46,1.17 -1.19,2.02 -1.81,0.88 -0.16,1.08 0.62,0.51 0.15,1.49 0.54,0.74 1.13,-0.05 1.6,0.92 -0.27,0.8 0.14,0.75 0.37,0.05 -0.49,0.58 0.98,0.87 0.78,-0.14 0.8,0.59 0.34,-0.96 0.47,-0.24 0.29,1.42 0.47,0.26 0,0 -0.32,0.43 -0.71,-0.16 0.73,1.28 -0.43,2.83 0.27,0.57 0.41,0 0.04,0.59 -1.76,0.52 0.2,1.29 -1.22,-0.4 -0.78,2.17 -0.43,-0.69 0,0.51 -0.3,0.12 1.17,2.16 1.43,-0.6 0.03,0.94 0.34,0.21 -1.48,2.27 0.39,0.4 -0.38,0.58 1.18,1.29 0.49,-0.28 1.03,0.53 -0.62,0.67 0.36,0.37 0.33,1.56 0.84,0.54 0.33,3.14 3.35,1.09 -0.16,0.34 0.77,1.19 -0.66,0.12 -0.37,0.82 0.41,0.31 -0.18,0.42 0.59,0.03 1.38,1.4 0.88,0.03 -0.07,0.81 1.03,0.33 0.11,0.75 0.54,0.03 -0.25,1.13 -1.2,0.16 -0.11,0.73 0.36,0.62 1.58,0.48 0.52,2.76 -0.94,-0.03 0.47,0.29 -0.12,0.89 -1.2,0.3 0.02,0.91 0,0 -0.63,1.16 -2.9,1.23 0.2,0.46 -2.73,2.34 0.82,1.08 -0.28,0.86 -0.66,0.15 -0.31,1.24 -0.4,0.42 -0.42,-0.1 -0.02,0.43 0.78,0.88 -0.07,0.81 0.38,0.7 -0.34,0.98 0.29,0.7 0,0 -0.28,0.34 -1.69,-0.02 -1.34,0.77 -0.9,-0.32 0.68,1.47 -0.22,2.15 -0.46,0.14 0.4,0.25 -0.13,0.33 -0.9,-0.17 0.06,-0.61 -1.28,-0.42 -0.18,0.74 -0.47,0.24 0.21,0.49 -0.52,-0.02 -0.13,0.27 -2.32,-0.21 -0.78,-0.31 -0.34,-0.76 -2.52,0.45 -0.37,0.56 0.13,0.41 -0.5,0.24 -0.14,-0.22 -0.5,0.29 -0.11,-0.34 -1.27,0.47 -1.05,-0.13 -0.53,-0.29 -0.25,-0.86 -1.35,0.43 -0.53,-0.78 1.14,-0.12 0.15,-0.36 0.64,-0.1 -0.31,-0.88 -0.49,0.34 -0.8,-0.08 -0.35,0.42 -0.73,-0.38 -1.33,0.08 0.49,-0.46 -0.36,-0.33 -0.43,0.13 -2.15,-2.04 -0.38,0.14 0.12,0.4 -0.5,0.5 0.15,1.17 -0.62,0.82 0.22,0.54 -0.51,0.33 -0.42,-1.64 -0.57,-0.12 -0.35,0.33 -1.31,-0.57 -0.61,3.12 -1.95,0.63 -0.08,0.62 -0.69,-0.59 0,0 0.32,-1 -0.55,-1.22 -0.89,0.04 -0.26,-0.42 -1.18,0.37 -0.56,-0.57 -2.2,0.53 -0.32,-1.01 -1.06,0.09 -0.07,-0.34 -1.22,-0.36 -0.7,-0.8 -0.4,0.28 -0.42,-0.35 -1.33,1.11 -0.78,0.12 0.5,0.66 -0.59,0.5 -0.18,0.9 -0.13,1.73 0.26,0.52 -1.19,-0.38 -1.46,-2.47 0.64,-1.07 -0.41,-1.43 -1.57,-0.11 -1.03,1.92 -0.99,0.2 -0.52,-0.36 0.07,-1.12 1.37,-0.9 0.62,-1.15 0.02,-1.32 -0.53,-0.94 -1.04,0.7 -0.66,-0.4 -3.25,1.84 -0.66,-0.5 -0.01,-1.85 -0.77,-0.48 -0.69,-0.04 -0.3,0.83 -0.85,0.65 -0.64,-0.08 -0.37,-0.81 0.46,-2.31 -0.51,-1 -0.81,-0.44 -3.52,-0.35 -1.91,-1.57 -0.8,-2.23 -1.71,-0.74 -1.22,-1.4 -1.44,-0.54 -2.1,0.85 -1.32,-0.1 -1.71,-0.98 0.46,-1.17 -0.28,-0.36 -2.13,1.12 0,0 -1.16,-0.64 -0.67,-1.27 0.1,-1.67 -1,-3.01 -2.69,-1.56 0,0 0.57,-2.27 0.86,-1.15 -0.55,-1.55 0.4,-0.68 -0.7,-0.81 -0.03,-0.51 0.67,-0.08 -0.08,-0.36 0.72,-1.07 -0.55,-0.85 0.21,-0.8 0,0 0,-0.58 0,0 -0.03,-2.15 -0.83,-1.28 0.08,-1.77 0.74,-0.72 0.03,-0.84 -0.78,-0.99 0.2,-0.56 -0.63,-0.4 1.95,-3.12 2.07,-0.09 -0.66,-0.91 0.73,-0.88 -0.28,-0.87 0.48,-0.41 0.98,0.43 -0.09,-0.95 1.5,0.99 0.7,-0.69 -0.13,-1.13 1.26,-0.22 0.28,-0.34 1.94,1.44 0.59,-0.4 0.82,0.36 0.63,-0.64 -0.1,-0.37 0.83,-0.58 -0.05,-1.26 0.49,0.97 0.76,-0.61 0.15,0.44 0.46,-0.07 0.72,0.51 0.97,-0.28 0.5,-0.51 -0.21,-1.18 -0.22,-0.28 -0.62,0.07 -0.36,-1.18 0.6,-0.51 -0.84,-0.97 0.45,-0.69 0.04,-0.94 -0.38,-0.69 0.23,-0.87 -0.57,-1.15 -0.95,-0.36 -0.05,-0.58 0.54,-0.1 -0.01,-0.43 -0.53,-0.09 -0.06,-0.42 0.73,-0.3 0.57,-1.85 -0.78,0.3 -0.73,-0.82 -0.42,0.17 -0.9,-0.42 -0.55,0.24 0,0 -0.21,-0.64 0.41,-0.57 0,0 0.27,-0.75 0.46,0.03 0.21,-0.52 -1.57,-0.44 0.01,-1.74 0.57,-0.32 0.64,0.8 0.6,-0.55 0.1,-1.3 -1.23,-1.16 0.49,-0.96 0.58,-0.27 0.28,-0.91 0.4,0.25 0.07,-0.58 -0.03,-1.01 -1.49,-1.1 -0.11,-1.67 1.59,-0.22 -0.16,-0.41 1.03,-1.06 z" 
                fill="rgb(151, 144, 238)" 
                stroke="white" 
                stroke-width=".7px"
                title="Vinnytsya" 
                id="UA-05" 
            />
        </svg>