<svg xmlns="http://www.w3.org/2000/svg" viewBox="49.97190500000006 23.11242300000001 84.58000500000004 90.4499970000001" width="84.58000500000004" height="90.4499970000001">
            <path 
                d="m 104.82191,23.602423 1.17,-0.42 2.58,1.76 2.23,0.45 0.29,0.41 2.18,0 0.37,-0.58 0.84,0.47 0.6,-0.98 2.07,0.8 0,0 0.19,0.52 1.17,0.78 1.33,-0.07 1.18,0.43 -0.42,0.68 -1.01,0.62 -0.81,1.39 0.47,1.24 -0.46,0.32 -0.24,0.83 0.99,1.09 -0.35,0.83 0.34,0.16 0.42,-0.37 0.34,0.89 -0.65,1.35 0.09,0.62 -0.52,0.51 -0.35,1.56 -1.23,2.12 -0.58,-0.18 -0.39,1.08 -0.37,-0.09 0.11,-0.37 -1.26,0.11 0,0.84 0.73,-0.44 0.3,1.07 0.65,-0.08 0.72,1.18 -0.24,1.21 -0.59,0.3 -0.38,0.88 0.92,0.42 0.01,0.49 -1.49,0.57 0.12,0.57 1.74,-0.19 -0.16,0.68 0.76,0.02 -0.13,0.64 0.75,-0.04 -0.01,3.04 1.48,1.11 0.23,0.71 0.31,-0.03 -0.06,0.86 0.36,-0.36 0.55,0.18 -0.34,-0.47 0.4,-0.64 1.1,-0.01 -0.13,0.99 0.78,0.42 0.32,-0.22 0.56,0.21 0.88,-0.68 0.41,0.76 -0.7,0.3 0.26,0.22 -0.09,1.52 0.81,0.87 1.18,0.55 0.26,1.16 0.61,0.04 0.87,0.7 -0.22,0.69 0.43,0.56 0.04,0.91 1.85,0.42 2.1,2.32 0.27,1.53 -0.6,0.01 -0.01,0.58 -1.44,0.63 -0.14,-0.44 -0.47,-0.05 -0.01,0.9 -1.16,-0.16 -0.8,0.39 0.45,0.77 -0.26,1.02 1.26,0.37 1.41,-0.18 2.38,1.59 0.58,2.57 -0.72,0.26 -0.12,1.57 -2.8,0.27 -1.14,0.45 1.33,1.07 -0.38,3.71 0.7,0.09 0.85,0.79 0.03,0.51 -0.59,1.17 -3.79,-0.6 -0.74,1.77 -0.02,1.65 -0.51,1.27 0.22,1.81 -0.25,1.05 -1.54,2.31 0.64,0.85 -0.31,0.38 -0.41,-0.15 -0.98,-2.24 -0.65,-0.45 -1.15,0.38 -1.06,-0.12 0.48,-0.58 -1.07,-1.17 -0.02,-1.1 -2.02,0.6 -1.19,-0.05 0.12,1.02 -0.43,-0.25 -2.51,0.91 -1.72,0.79 0.12,0.43 -2.09,-0.41 -0.7,-0.98 0.32,1.11 -0.49,0.79 -0.45,-0.07 -0.35,0.53 0.37,-0.08 0.11,0.6 1.11,1.12 -1.57,0.15 -0.15,-0.33 -0.85,-0.08 -0.58,-0.71 -0.77,-0.01 0.63,1.78 -0.29,1.09 0.72,-0.32 0.27,0.93 -0.47,0.36 -0.47,1.159997 -1.62,0.17 -0.34,-0.36 -1.45,-0.18 -0.2,-0.429997 -2.22,0.04 -0.07,1.049997 1.01,0.79 0.25,0.59 -0.32,1.9 -2.17,-0.34 2.14,1.23 -0.42,1.34 0.69,-0.19 0.38,0.63 0.08,1.2 0.82,0.01 0.49,0.83 -0.42,0.92 -0.63,0.12 -0.38,-1 -0.82,0.52 0.19,1.26 0.59,0.81 -1.33,0.62 0.03,0.43 -0.61,-0.02 -0.29,0.58 0.37,0.67 0,0 -1.860005,-0.76 0.11,-1.34 -0.31,-0.75 -1.11,-0.04 -2.61,-2.43 -0.39,0.57 0.2,1.72 -1.69,-0.01 0.02,-0.7 -0.65,-0.06 -0.3,0.41 -2.34,0.27 -0.49,0.38 -2.15,-0.28 0.28,-1.71 -2.29,-1.38 0,-0.36 -1.96,-0.17 0.09,-2.35 -0.31,-0.22 0.36,-0.26 -0.33,-1.36 0.25,-0.3 -0.35,-0.19 -0.11,0.49 -0.69,0.17 -0.33,-0.3 0.06,-1.39 -0.93,-1.729997 -0.58,-0.2 -1.46,0.809997 -0.64,-0.02 -1.4,-0.979997 -0.22,-0.79 0.34,-0.65 -1,-1.07 -0.47,0.55 -1.29,-0.01 -0.47,1.21 -2.37,-0.43 -1.31,-0.92 -0.35,-0.92 -0.63,-0.18 -1.26,-2.32 -1.75,0.11 0,0 -0.17,-0.7 -0.65,-0.2 0.28,-2.2 -0.94,0.2 -0.89,-0.4 -0.08,-1.27 0.26,-0.22 -0.37,-0.12 0.38,-0.63 -0.37,-0.34 -1.13,0.22 -0.37,-0.38 -0.38,-0.99 0.17,-1.09 0.8,-1.13 0.61,-0.33 1.38,0.07 -0.01,0.28 2.1,-0.26 1.13,-0.89 0.22,-0.66 -0.98,-0.11 -1.01,-0.99 -1.15,-0.14 -2.81,-3.18 -0.47,-2.08 -1.47,-1.12 0.73,-0.2 -0.42,-0.1 -0.24,-0.62 0.51,-0.55 -0.57,-0.2 -0.13,-1.71 -0.83,-0.44 -0.32,0.28 -0.19,-0.93 -0.42,-0.3 0.11,-0.67 -0.44,-0.49 0.17,-0.49 0.48,-0.02 0.1,-1.08 -0.93,-0.74 -0.66,0.1 -0.54,-1.2 -0.76,-0.23 -0.98,-1.26 -0.55,-0.06 0.1,-0.69 -0.54,-0.57 -0.02,-1.34 -0.97,-1.15 -0.02,-0.46 -0.14,0.24 -1,-0.26 -0.19,0.29 -0.4,-0.27 0.22,-0.45 -0.4,-0.52 -0.12,-1.25 0.62,-0.43 -0.2,-0.2 0.51,-1.22 0.67,-0.07 -0.22,-0.57 0.31,-0.5 -0.38,-0.28 0.88,-0.47 -0.02,-0.52 -0.33,-0.17 0.36,-0.22 -0.39,-0.01 -0.45,-0.65 0.25,-0.61 -1.2,-0.2 -0.08,-0.68 0.92,-0.68 -0.16,-0.62 -0.34,-0.4 -0.7,0.23 -0.65,-0.6 -0.07,-0.81 0.15,0.41 1.45,0.28 0.39,-0.36 -1.34,-2.5 0.77,-0.87 0.13,-0.77 -1.06,-0.6 -0.85,-1.69 1.92,-0.94 0.47,-0.67 1.07,0.2 2.42,-0.92 0.35,0.4 0.04,1.1 1.18,-0.36 2.87,0.77 -1.13,1.3 0.1,0.91 1.39,-0.39 2.51,0.96 0.85,-1.11 1.82,-1.06 1.55,-2.47 5.03,-2.77 1.6,-1.76 -0.77,-2.86 1.61,-2.54 -0.16,-0.62 1.65,-1.22 3.05,0.03 3.18,-0.46 2,-0.67 1.44,0.55 1.51,-0.21 0.88,0.71 0.52,0 2.26,-1.61 0.4,0.08 0.25,0.79 2.53,-0.77 0.44,0.78 1.13,0 1.11,-1.08 0.76,-0.11 2.560005,-1.79 1.48,-0.01 1.86,-0.96 z" 
                fill="rgb(151, 144, 238)" 
                stroke="white" 
                stroke-width=".7px"
                title="Volyn" 
                id="UA-07" 
            />
        </svg>