<svg xmlns="http://www.w3.org/2000/svg" viewBox="171.26190999999983 38.73242299999997 86.15000000000009 111.69999700000004" width="86.15000000000009" height="111.69999700000004">
            <path 
                d="m 207.42191,42.052423 0.85,-0.12 2.11,2.66 0.35,1.91 1.27,-0.66 2.62,-2.28 1.61,0.13 0.26,0.42 1.03,0.14 0.01,0.55 3.44,0.1 -0.92,0.44 0.11,0.24 0.64,-0.25 -0.39,0.4 1.39,5.73 0.62,0.27 1.2,-1.29 -0.01,1.66 0.53,1.1 0.6,-0.63 0.11,-1.23 0.27,-0.12 -0.18,-1.23 -0.5,-0.66 2.1,-3.96 1,-0.21 1.84,-1.32 2.03,-0.06 0.24,0.91 0.79,-0.07 1.01,-0.78 2.66,-3.4 2,-0.09 0.31,0.31 -0.43,1.04 0.69,0.3 -0.23,0.58 0.98,0.8 0.19,1.31 1.42,0.34 0.24,1.99 -0.44,1.84 0.7,1.12 0,0.73 1.23,0.39 0.68,2.79 -0.11,1.31 1.31,-0.34 0,0 0.01,0.5 1.19,-0.18 0.15,2.98 -1.46,2.71 -0.87,0.13 0.02,-0.33 -2.11,0.68 0.92,4.56 0.79,2.83 0.29,0.08 0.18,-1.63 0.56,-0.14 2.18,1.49 1.55,2.27 1.67,1.52 -1.55,2.39 0.09,1.67 0.34,0.36 -1.18,-0.46 -0.94,0.06 -0.05,1.94 0.82,0.28 0.83,0.84 0.72,1.79 1.06,0.86 0.29,0.62 -0.75,1.66 0.95,0.64 0.46,-0.21 0.25,0.81 -1.4,-0.27 -0.44,0.24 0.1,0.76 0.73,0.45 -0.42,0.31 0.14,0.56 -1.31,0.17 1.21,0.29 0.83,-0.51 1.37,0.22 0.04,1.1 0.84,1.14 -0.71,1.65 -1.52,1.1 -0.03,0.72 -0.8,0.48 -0.57,-0.28 -0.29,0.19 -0.19,0.24 0.31,0.45 -0.59,0.61 0.11,0.3 -0.55,-0.1 0.12,0.3 -0.44,0.18 1.61,1.43 0.38,1 -0.12,1.27 -0.45,0.719997 -0.92,-0.08 0.25,0.58 -0.24,0.65 1.52,0.76 0.14,1.51 -0.9,0.67 -0.94,-0.59 -0.23,0.94 1.58,0.19 0.13,0.54 -1.01,1.27 -0.91,-0.06 0.53,0.83 0.68,-0.16 0.34,-0.53 2.33,-0.44 0.57,0.47 0,0 0,0 0,0 0.52,0.87 0,0 0,0 0,0 0.04,1.15 0.68,0.17 0.26,0.46 0.64,-0.32 -0.74,1.55 0.34,0.59 1.56,0.44 0.73,-0.18 -0.57,1.47 0.4,0.89 -0.78,0.3 1.23,2.33 -0.48,0.21 -0.39,1.18 -1.02,1.15 1.61,1.53 -1.12,1.37 -0.06,0.45 0.63,0.05 -0.93,0.66 1.59,1.86 -0.08,1.49 -0.58,0.46 0.71,1.42 -0.25,0.41 0.96,1.09 -0.17,0.32 0.74,1.33 -0.3,0.67 -1.84,1.01 0.8,0.44 -1.47,1.37 0.45,0.22 -0.46,0.5 -0.37,-0.22 -0.7,0.92 -0.58,-0.21 -0.19,0.59 -1.68,0.43 -0.25,0.84 -1.11,-0.81 -0.53,0.45 0.17,0.49 -0.49,0.74 -0.42,-0.6 -0.69,0.6 -0.44,-0.11 0.83,2.25 -0.79,1.79 0.3,0.81 1.59,0.02 -0.13,2.22 0.83,0.35 -0.35,0.71 0,0 -2.5,-0.57 -0.16,0.48 -0.64,-0.37 -0.9,1.94 -0.84,-0.43 -0.49,0.76 -0.44,-0.67 -1.67,-0.05 -0.15,2 -0.73,0 -0.35,-0.67 -0.96,0.75 -2.2,-0.17 -0.98,0.41 -0.53,-0.5 -2.95,0.14 -0.9,-0.32 -0.03,-0.82 0.7,-1.12 -0.99,-0.52 -0.32,-1.02 -0.85,-0.8 1.58,-1.85 0.31,-1.18 -1.3,-0.94 0.01,-1.09 -0.79,-0.35 0.9,-1.11 -0.27,-0.89 -0.45,0.05 0.19,-1.11 -1.98,-1.38 0.07,-0.73 -0.78,-0.39 -0.5,0.11 -0.46,1.35 -1.93,0.51 -0.11,0.44 -1.03,-0.04 -0.69,2.4 -0.35,0.08 -0.55,-0.65 -0.97,0.24 -1.88,-0.49 -0.71,0.2 -0.07,1.42 -0.98,0.4 -1.45,-2.3 -1.46,0.57 -0.5,-0.77 -1.58,0 -0.55,1.71 -0.96,0.52 -1.49,-0.71 -2.33,-0.4 -0.62,-0.62 -0.06,0.81 -0.67,0.59 -0.28,-0.24 -2.29,0.11 -1.4,0.88 -1.23,0.09 -3.9,-0.44 -0.89,0.48 -1.02,0.07 -0.56,0.62 -1.2,0.27 -0.49,-0.21 0.01,0.45 0,0 -0.63,0.13 -0.21,0.81 -0.67,0.11 -1.93,-2.01 -1,-0.2 0.86,-1.68 -2.02,-0.35 -0.34,0.61 -1.23,-2.21 0.13,-0.62 -0.47,-1.31 0.47,-0.85 -0.98,0.13 -0.88,-1.05 -0.36,0.4 -0.45,-0.1 -0.02,-1.51 0.33,-0.06 0.06,-0.61 0.54,-0.19 -0.84,-2.27 -0.03,-1.02 0.37,-0.05 0.14,-0.41 0.45,0.03 1.16,0.76 1.04,-1.7 0.89,0.59 0.44,-0.57 -0.43,-2.13 -1.76,-0.5 0.46,-0.88 -0.14,-0.54 0.58,-0.07 -0.55,-0.43 0.22,-1.14 1.64,-0.73 -0.54,-0.66 -0.04,-1.17 -0.92,0.29 0.2,0.78 -0.63,0.09 -0.54,-2.36 -0.48,0.1 0.12,-2.29 -1.84,0.61 -0.48,1.01 -0.33,0.02 -0.97,-0.7 -0.33,-0.88 -1.25,-0.23 -0.01,-0.75 -0.68,-0.06 -0.02,0.27 -1.09,-0.98 0.54,0.06 -0.14,-0.32 0.57,-0.21 -1.19,-1.22 -0.59,-0.46 -1.69,-0.03 0.08,-1.97 -2.32,-1.4 0.28,-1.46 1.13,-1.93 0.25,-1.81 -1.08,0.08 -0.27,-1.19 -1.7,-0.99 -0.49,-1.589997 0,0 1.2,-0.25 -0.5,-1.03 0.45,-0.97 -1.33,-0.99 0.7,-0.79 0.06,-0.9 -0.35,-0.33 0.3,-0.44 1.12,-0.26 1.06,-2.49 -0.39,-1.29 0.23,-0.92 -0.94,-0.4 0.02,-1.19 -0.31,-0.31 0.28,-1.56 -0.31,-0.62 0.61,-0.96 -0.19,-0.66 0.27,-0.64 -0.27,-0.22 0.33,-0.6 -1.3,-1.15 0.12,-0.73 0.58,-0.23 -0.02,-0.49 -1.33,-2.95 0.91,-0.43 -0.09,-1.19 1.81,-0.14 0.17,-0.48 1.59,-0.05 -0.37,-0.82 0.2,-1.11 1.44,-0.98 -0.04,-2.41 0.49,-0.25 -0.15,-0.5 1.42,-2.52 1.94,-1.88 -0.08,-0.54 -0.8,-0.43 0.5,-0.51 -0.76,-2.45 1.82,-0.38 0.89,-1.34 -0.02,-1.41 -0.91,-0.43 0.45,-4.08 0.95,-0.03 -0.15,1.07 1.41,0.93 0.41,0.75 1.05,-0.01 -0.48,-1.49 -0.64,0 -0.05,-2.64 1.5,-0.23 0.89,-1.08 0.67,0.22 -0.21,-1.01 0,0 2.5,2.13 0.77,0.09 1.34,-3.05 1.18,-0.17 0.49,-0.41 -0.79,-1.85 0.47,-1.7 -0.65,-0.49 1.07,-0.75 2.07,0.76 0.35,0.64 -0.11,1.46 0.8,-0.16 0.42,-0.73 0.7,0.01 -1.22,1.93 3.27,-0.41 1.09,-0.73 1.03,0.09 0.95,-1.53 0.87,-0.14 0.53,-0.88 0.14,-1.19 2.87,-1.95 0.34,0.33 z" 
                fill="rgb(151, 144, 238)" 
                stroke="white" 
                stroke-width=".7px"
                title="Zhytomyr" 
                id="UA-18" 
            />
        </svg>