<svg xmlns="http://www.w3.org/2000/svg" viewBox="397.70418000000114 84.68704299999983 214.73999999999984 285.54999700000025" width="214.73999999999984" height="285.54999700000025">
            <path 
                d="m 550.40418,84.947043 0.25,1.78 -1.49,4.86 -0.9,0.96 -0.86,2.51 -3.56,2.68 -0.61,1.58 0.81,0.26 0.01,0.729997 -0.86,-0.26 -0.28,0.51 -2.55,0.41 -0.52,0.6 -0.45,2.23 -1.06,1.2 0.29,1.51 0.94,1.49 -0.67,0.16 -0.8,-0.62 -0.12,2.17 -1.09,0.12 -1.05,0.93 -1.05,0.72 -1.18,1.27 0.48,1.02 4.62,-4.1 1.31,-1.73 1.44,-0.89 -0.93,2.93 -1.31,0.81 -2.58,4.11 1.04,1.35 1.85,0.42 0.86,-0.26 0.23,-0.81 1.12,-0.94 1.45,0.22 0.28,-0.7 0.99,-0.24 2.2,-1.7 0.22,0.69 0.54,-0.36 0.46,0.46 0.59,-0.05 0.16,-0.97 0.44,-0.16 5.02,0.15 2.72,-1.11 2.5,-2 6.64,-1.43 0.09,2.05 -3.02,7.19 0.43,1.66 2.25,2.63 3.54,2.74 3.7,3.87 3.85,2.62 3.9,1.77 3.72,0.94 1.39,-0.48 1.68,-1.84 2.1,0.28 0.56,-0.44 1.75,0.93 -0.14,0.78 1.06,2.31 -2,0.9 -0.36,0.86 0.42,0.55 2.43,0.2 1.09,0.74 0.1,5.51 0.8,0.01 0.33,0.84 1.08,-0.16 0.23,-1.38 1.86,-3.06 2.86,-0.08 0.34,0.35 -0.71,2.9 0.89,0.5 0.67,-1.06 0.52,0.05 1.4,2.89 1.34,0.29 -0.88,3.03 0.36,0.87 -0.18,2.03 -1.81,0.09 -0.51,0.93 0.02,0.72 0.7,0.53 -0.22,1.23 0.98,1.01 -0.43,2.3 -1.78,0.67 0.47,0.45 -0.34,0.71 0.95,0.24 0.31,1.58 -1.03,0.69 -0.54,1.26 -1.47,0.47 -1.47,1.26 -1.47,-0.58 -2.11,0.32 -2.72,-0.44 -1.46,0.82 0.7,0.13 0.52,0.69 6.45,1.97 0.51,0.31 -0.12,0.68 -2.64,2.77 -3.98,-0.19 -1.78,0.42 -2.01,1.87 -5.06,2.07 -0.56,1.71 0.41,0.78 2.11,-2.22 2.94,-0.53 3.45,-1.79 2.42,0.12 1.94,0.94 2.9,-0.15 0.93,-1.62 0.68,-0.08 2.69,1.11 0.85,0.82 0.71,0.33 2.4,1.11 -0.63,1.96 -0.71,0.4 -0.29,1.75 -1.6,1.96 -0.36,1.43 -1.42,0.87 -6.55,1.16 -5.51,-0.54 -7.63,2.4 0.65,0.33 1.98,-0.32 5.08,-1.29 3.16,0.71 1.89,1.02 4.21,-0.59 2.58,0.2 1.03,-0.66 1.44,0.79 -0.07,3.19 -1.13,1.81 -1.37,0.62 -1.44,-0.29 -1.65,0.34 -0.49,0.58 0,0.5 -0.59,0.12 -0.95,0.98 0.98,0.2 0.99,-0.35 0.1,-0.46 1.27,-0.09 3.18,0.5 -0.39,1.29 -2.52,1.67 1.1,0.14 3.1,-0.89 -0.92,3.28 0.52,0.22 1.94,-2.37 1.7,-4.92 1.29,-0.97 1.41,-2.32 0.07,1.4 -0.64,1.88 0,3.91 -1,2.16 0.51,1.24 1.85,0.14 0.35,0.96 -0.38,1.45 -2.44,3.27 -3.08,0.76 -0.38,0.49 -0.4,1.34 1.16,1.43 -0.37,1.97 -1.24,0.76 -2.28,0.43 -6.39,-0.1 -1.65,-2.46 -0.07,-0.93 -2.08,-1.63 -0.49,-0.96 -3.25,-1.82 -2.64,-0.59 -3.71,-3.41 -0.55,0.67 2.79,3.99 -4.73,0.41 -2.1,1.35 -1.98,0.22 -4.55,-1.18 0.23,0.98 -0.42,0.35 0.17,0.51 3.07,0.94 6.62,-0.72 1.74,1.05 2,0.07 0.69,0.87 1.75,-0.59 1.34,0.14 2.62,2.9 0.01,1.3 0.91,0.64 0.37,-0.31 0.61,0.85 1.83,0.96 1.5,2.22 4.39,1.15 1.27,-0.78 -0.4,0.76 0.13,2.93 -1.4,0.5 -2.01,-0.25 -0.43,-0.03 -1.51,-0.21 -0.42,0.44 -4.25,-1.96 -1.27,0.64 -4.48,-0.08 -4.35,-2.12 -0.28,1.16 2.02,1.49 4.56,1.38 4.46,0.46 1.97,2.02 1.87,1.08 0.93,-0.13 0.88,1.49 -1.23,2.25 -1.75,1.16 -1.41,1.98 -0.3,-0.49 -0.57,0.33 -0.69,-0.83 -2.53,-0.85 -2.37,-0.38 -0.58,0.34 0.04,0.69 2.69,1.17 2.41,1.87 1.8,0.22 -0.42,1.26 -1.57,-0.62 -2.44,1.42 -1.71,0.31 -1.45,-0.9 -0.82,0.22 -0.15,0.66 -0.45,-0.57 -0.83,0.49 -0.75,0.72 -0.54,-0.22 -0.68,1.42 -0.01,-2.25 -1.65,0.47 0.5,1.26 -0.42,0.58 0.53,0.7 0.68,-0.26 0.04,0.71 0.75,-0.14 1.4,1.94 -0.04,0.94 1.3,0.74 0.28,0.78 -0.9,1.45 -1.95,0.84 -2.87,2.28 -0.88,-0.53 -0.6,0.57 -2.52,-0.01 -0.98,1.44 -0.43,0.05 -0.23,-0.69 -0.74,0.58 -0.03,-0.57 -0.55,-0.09 -0.7,0.96 -0.55,-0.97 -1.01,0.61 -0.69,-0.95 -0.42,0.32 -0.58,-1.02 -2.8,-0.73 -0.8,-3.59 -0.56,0.48 -0.69,-0.34 -0.23,-2.27 -0.42,-0.34 -0.42,0.9 -0.98,-2.4 -1.89,-0.69 0.06,-1.94 -0.44,-0.38 -1.49,0.22 0.03,-0.84 -1.76,0.57 2.41,1.16 0.52,1.35 -1.23,1.22 0.14,0.96 1.9,1.18 0.77,-0.1 0.65,1.87 0.16,-0.44 0.49,0.08 0.35,3.55 1.05,1.45 1.79,0.58 0.13,1.9 0.56,-0.05 0.94,0.88 1.22,-0.13 -0.09,1 0.47,-0.19 0.21,0.79 1.28,-1.19 -0.4,0.83 0.29,0.56 0.28,-0.19 0.12,0.92 -0.44,0.7 0.41,-0.15 0.73,0.04 -0.7,1 -2.74,-0.1 -0.17,-0.52 -0.75,0.22 -0.14,-1.11 -0.45,-0.23 -1.33,0.32 -0.79,-0.34 -1.02,-0.23 -0.6,-0.61 -3.52,0.75 -1.26,-0.37 -1.9,1.14 -0.07,0.4 1.57,0.39 0.84,0.98 2.3,-0.1 0.48,1.45 0.85,-0.27 -0.21,2.8 0.33,0.41 -1.27,1.39 -0.9,0.39 0.15,-0.44 -0.47,-0.21 -1.3,0.4 -0.25,-0.36 -0.77,1.15 -1.25,-1.19 -1.55,0.46 -1.04,-0.41 -0.32,1.21 -1.01,0.99 0.94,2.42 -0.93,1.79 0.56,0.81 0.94,0.4 1.74,-1.09 1.4,1.21 1.85,-1.58 1.71,-2.78 2.63,-2.54 2.47,-2.13 0.47,0.84 -3.32,2.63 -4.6,7.02 -0.27,1.8 1.04,1.44 -1.23,1.98 -1.1,3.4 -0.06,1.21 0.69,0.76 -0.18,0.83 -1.75,1.55 0.2,1.51 -0.73,1.4 -0.84,-0.36 -5.97,1.06 -4.06,1.5 -1.37,1.23 0.51,-1.13 2.51,-1.23 5.48,-1.56 3.19,-0.26 -4.41,-2.85 -2.25,0.62 -1.04,-0.62 -0.75,0.19 -0.54,0.68 -0.25,3.05 -0.74,-0.15 -2.03,1.91 -0.74,0 -0.36,1.41 -1.84,-1 -0.19,1.79 -0.9,0.05 -1.05,1.92 -0.65,-0.32 -0.24,0.73 -0.49,-0.38 -0.47,-0.47 -0.65,1.2 -0.59,-0.06 0.42,1.39 -1.61,0.87 -1.58,1.75 -0.81,1.88 1.97,0.59 2.52,-0.52 -0.52,0.97 0.62,1.12 -1.76,0.23 -0.56,0.74 -0.22,1.75 -0.57,-0.38 -0.75,0.37 -0.53,1.25 0.03,0.54 0.65,0.27 -0.28,0.56 -2.05,0.24 -0.54,-0.37 -0.64,0.47 -0.29,-0.34 -4.76,-0.32 -3.89,1.02 0.95,-0.9 3.67,-1.08 3.1,0.18 0.81,0.48 2.71,-0.31 1.05,-1.89 -0.89,0.18 -1.37,1.57 -1.12,0.2 -0.73,-0.65 0.38,-0.37 0.32,0.51 0.81,-0.88 -1.5,-2.47 -2.02,-1.65 -1.59,-0.42 -0.44,0 -0.22,1.65 -1.09,1.02 -0.95,-0.33 -0.39,-0.22 -1,-0.87 -1.4,0.41 0.49,-0.55 -0.86,0.03 0.34,-0.62 0.62,-1.12 -1.65,0.88 -0.76,1.43 0.35,-1.82 -1.31,-0.28 -1.31,-4.65 -0.29,0.78 -0.69,-0.33 -0.54,-0.59 0.13,-1.14 -1.01,-1.02 -1.72,0.22 -1.02,0.64 -0.27,1.04 0.8,4.47 -0.47,0.7 0.31,1.56 -0.33,0.63 -0.42,-0.17 -0.82,0.36 -0.33,0.65 1.05,-0.1 -0.16,1.03 -0.9,0.43 0.03,0.34 -0.08,0.63 -0.35,0.51 -2.56,2.76 -0.89,-0.48 -1.1,-1.96 -1.01,-0.5 -0.25,0.97 1.11,1.69 -0.28,1.16 -1.4,-0.19 -0.52,-0.67 -0.78,1.27 -2.28,0.65 -0.52,0.11 -3.35,1.1 -1.44,0.02 -0.31,-1.45 -0.47,1.57 -3.81,3.69 -2.15,0.13 -0.32,0.73 -4.58,1.63 -5.26,3.33 -18.84,18.07 -0.15,-0.59 4.05,-4.37 -3.25,2.89 -2.55,0.14 1.27,1.21 -1.35,1.35 -1.49,3.7 -1.91,2.62 -3.03,1.51 -0.41,2.09 -1.34,1.32 -2.07,1.46 -3.12,0.42 -2.04,1.95 1,0.34 -1.63,0.74 -1.63,-0.05 -1.06,-0.82 -0.83,0 0.69,1.16 -2.63,-0.92 0.59,1.96 -0.67,-0.09 0.19,2.77 -0.67,1.41 -0.21,-4.23 -0.79,-0.21 -0.08,0.75 -0.48,-0.01 0.41,2.1 -0.66,3.91 -11.67,1.32 -8.75,-0.58 -5.28,0.11 -6.09,0.89 0,0 0.54,-29.22 0,0 1.78,0 1.17,1.55 3.11,0.39 6.21,-0.97 1.75,-1.16 0.97,-5.05 -4.46,-3.69 -0.97,-1.75 1.16,-1.75 2.52,0.19 0.78,-1.75 -1.55,-1.55 3.11,-0.19 1.94,1.36 5.44,0.39 1.36,0.58 0,2.13 1.36,0 1.55,-1.94 1.75,0.97 0.97,1.94 -1.94,0.78 -3.3,3.11 0.78,3.69 1.94,0 0.58,-4.27 2.13,-0.78 2.52,0.58 1.36,1.75 -0.58,2.13 0.19,2.33 -1.16,1.55 4.08,6.41 7.57,-0.19 0.58,-1.94 1.16,-0.58 -0.19,-1.75 1.94,-2.91 5.63,-0.58 -0.39,-1.75 -6.4,-3.3 0.78,-2.13 2.52,-1.36 2.91,0.39 1.36,1.17 3.49,0.19 1.16,-0.97 4.27,1.75 2.52,-2.52 0.39,-2.72 -0.78,-2.52 -1.94,-1.75 -2.52,-5.24 -0.19,-3.88 0.58,-4.46 1.94,0 -0.58,4.66 4.27,4.08 1.94,-0.58 1.17,-2.33 0.19,-1.75 -2.52,-2.13 -1.55,-3.49 6.6,-0.58 1.94,0.97 2.33,0.39 4.85,-1.36 3.11,0.39 1.55,0.97 1.75,-0.78 1.94,-0.19 0.78,-2.13 -3.3,-0.39 -1.94,-0.78 -2.33,-3.1 8.54,1.36 -6.79,-4.08 -1.94,-1.75 -1.75,-2.72 5.63,-1.75 0.78,-1.55 9.32,6.6 0.39,1.94 1.75,0.58 2.52,-0.78 -2.91,-1.94 -1.36,-2.52 -3.69,-2.13 -2.13,-1.94 -0.58,-1.94 1.94,-1.55 2.14,-0.97 -0.78,-2.72 1.94,-0.39 2.33,0.78 0,-2.72 1.36,-0.19 2.33,2.52 0.78,2.52 1.94,0.78 1.94,0 -0.19,-3.1 -1.55,-1.55 -1.94,-0.19 -1.16,-1.55 0.39,-2.52 0.97,-2.33 0.97,-1.75 1.36,0 1.55,1.94 1.75,-1.75 2.14,0 1.55,-1.55 0.78,-3.3 1.94,-2.91 2.52,-1.16 -2.33,-3.11 -1.36,-0.39 -2.91,0.19 -0.39,-1.75 0.78,-1.75 0,-2.52 -4.85,0 -1.75,1.75 -1.36,-1.55 -1.36,0.58 -2.13,0 0,-2.52 2.13,-1.16 0.97,-2.52 -2.72,-0.97 -4.46,2.33 -0.78,1.55 -0.19,5.05 -1.75,-0.19 -2.52,-2.33 -2.91,-1.55 -2.52,-2.13 0.19,-7.76 -3.3,-3.49 -5.43,-0.97 -5.44,0 -2.13,-0.97 -2.13,0.97 -5.24,4.66 -2.52,1.55 -6.6,2.52 -4.46,4.27 -0.97,4.46 -1.94,3.11 -6.21,2.33 0,-2.52 2.52,-1.75 0.58,-3.69 -1.75,-0.78 0.58,-4.46 -1.55,-0.58 -1.75,0.58 -0.19,4.66 -1.16,1.55 -2.14,0.58 -0.39,-7.38 1.36,-3.88 2.13,-1.75 -0.18,-4.74 0,0 1.54,-3.41 1.36,-7.57 0.97,-2.72 3.69,-2.52 6.6,-3.11 1.75,-3.3 2.52,-2.33 1.36,-1.94 4.47,-0.78 3.11,-5.05 -1.55,-1.75 -0.39,-4.85 1.36,-1.36 -0.19,-13.39 0.97,-3.69 3.11,-2.91 1.75,-3.1 2.72,-2.91 0.39,-3.1 1.36,-2.52 -3.3,-3.49 -4.66,-3.69 -0.58,-3.11 1.55,-3.49 0.19,-3.49 2.91,-6.41 0,-3.1 0.78,-1.36 2.13,-1.55 4.66,1.17 4.46,-0.39 3.3,1.94 0.97,-1.55 3.49,-0.78 3.3,-5.43 -0.97,-7.96 -0.97,-3.69 0,-2.33 1.75,-6.02 1.16,-0.97 7.18,-1.55 2.72,-1.75 0.78,-1.75 1.55,-1.16 2.52,-0.97 3.49,-2.72 -0.58,-4.659997 3.11,-1.36 1.75,0.19 4.66,-0.78 3.49,-1.16 1.94,0 2.91,0.78 2.13,-1.36 5.05,-0.39 1.16,1.17 3.49,-4.08 0.78,-3.1 2.72,-2.33 1.36,-0.39 1.75,0.97 3.74,-0.71 z m -40.21,213.229997 0.48,0.95 -0.65,-0.13 0.65,1.25 -0.19,2.06 -0.37,1.34 -0.68,0.23 -1.17,-3.65 -0.12,-1.84 2.05,-0.21 z m 1.72,1.85 0.56,0.4 0.65,2.11 -0.32,0.23 0.8,2.59 -0.51,0.33 -2.79,-0.57 1.61,-5.09 z m 6.54,6.84 0.83,1.44 -0.64,0.17 -0.4,0.2 -0.4,0.28 0.14,1.07 -0.94,0.12 0.05,-1.38 -0.36,-0.33 0.8,-0.47 -0.49,-0.28 0.38,-0.79 1.03,-0.03 z m -1.13,5.13 0.62,0.76 -5.08,-0.37 -8.83,1.1 -1.15,0.56 -0.34,0.67 -7.12,1.15 -3.43,1.09 -2.56,1.67 0.26,-0.84 1.31,-0.79 4.31,-1.4 6.73,-1.27 1.86,-1.07 5.36,-1.03 5.94,-0.25 1.15,-0.79 0.97,0.81 z m -72.02,44.14 -5.26,6.65 -0.31,1.21 -1.6,2.23 -0.07,0.88 -4.62,0.82 2.01,-0.93 3.9,-3.66 0.51,-1.79 5.44,-5.41 z" 
                fill="rgb(151, 144, 238)" 
                stroke="white" 
                stroke-width=".7px"
                title="Austurland" 
                id="IS-7" 
            />
        </svg>