<svg xmlns="http://www.w3.org/2000/svg" viewBox="214.38417999999996 226.35703999999987 51.00000000000006 56.289999999999964" width="51.00000000000006" height="56.289999999999964">
            <path 
                d="m 265.38418,231.70704 -0.91,4.92 -2.86,2.05 0,1.14 1.39,0.41 0.74,1.23 -0.33,3.85 -1.15,1.15 -3.11,1.47 -1.23,1.64 1.97,0.57 -0.08,1.97 -2.46,2.78 1.06,2.7 -0.08,1.56 -2.29,1.64 -0.16,2.78 -2.46,1.64 0,1.14 1.72,0.33 0.33,1.31 -2.79,2.7 -9,5 -4.02,4.67 -1.96,0.32 -1.39,-0.41 -0.74,-1.72 -0.08,-2.45 -1.15,-1.31 -3.28,1.06 -0.08,4.26 -1.06,2.05 -1.15,0.49 -1.31,-0.74 -2.95,-5.24 0.09,-2.78 -0.58,-1.31 -3.52,-0.41 -0.33,-1.39 1.48,-0.82 -1.15,-0.9 -1.31,0 -0.65,1.06 -0.88,-0.04 0,0 -0.02,-0.12 0,0 -3.26,-3.18 6.37,-5.2 -0.55,-3.88 3.84,-2.95 5.19,-1.78 4.04,0.38 4.19,-1.01 0.77,-1.62 -1.01,-2.02 4.27,-3.18 1.32,-0.31 1.01,0.46 1.78,2.02 1.09,-3.57 -0.39,-5.35 0.31,-2.25 2.87,-2.41 2.41,-3.02 1.78,-1.4 1.79,-0.23 1,-2.56 3.94,-0.54 0,0 0.88,0.69 2.13,0.24 1.31,1.81 z" 
                fill="rgb(151, 144, 238)" 
                stroke="white" 
                stroke-width=".7px"
                title="Glacier 1" 
                id="GL1" 
            />
        </svg>