<svg xmlns="http://www.w3.org/2000/svg" viewBox="285.62417999999985 367.99704 35.500000000000114 32.67000000000007" width="35.500000000000114" height="32.67000000000007">
            <path 
                d="m 307.63418,369.01704 2.13,1.22 0,0 2.33,0.3 2.24,0.91 3.75,3.25 0.2,1.42 -0.91,1.62 -3.65,1.02 -0.61,1.42 1.52,1.01 1.42,0.1 1.52,1.32 0,1.83 -2.23,0.2 -1.32,3.75 1.62,2.34 1.43,1.11 3.44,0.81 0.61,0.92 -0.3,1.52 -1.22,1.32 -3.85,2.43 -1.02,-1.01 -2.94,-0.2 -0.81,-1.32 -0.81,-0.21 0.1,1.53 -1.02,1.31 -8.11,-0.1 -1.02,0.81 -2.43,-0.3 -0.41,1.32 -0.91,-0.21 -1.01,-3.85 -1.12,-1.01 -0.71,0.3 -0.1,1.93 -2.54,2.23 -1.42,0.61 -0.3,-1.73 0.91,-0.6 0.71,-1.63 0.31,-3.65 -4.57,-1.42 -0.91,-1.52 0.3,-1.73 1.02,-1.11 2.23,-0.41 0.91,-1.62 0.31,-4.57 0.5,-0.91 1.83,0.51 0.4,0.81 1.63,-0.2 -0.92,-2.03 -1.31,0 -3.05,-1.32 0.41,-2.44 1.11,-2.53 1.63,0.51 0.6,1.01 5.59,-3.35 0.3,-0.91 1.42,0.1 1.12,-0.91 3.04,-1.02 1.42,0.21 0,0 z" 
                fill="rgb(151, 144, 238)" 
                stroke="white" 
                stroke-width=".7px"
                title="Glacier 8" 
                id="GL8" 
            />
        </svg>