<svg xmlns="http://www.w3.org/2000/svg" viewBox="298.36418000000003 217.09703999999996 38.71999999999997 43.09000000000006" width="38.71999999999997" height="43.09000000000006">
            <path 
                d="m 300.21418,242.22704 0.48,-0.09 0.29,-2.33 -2.48,-3.78 -0.14,-4.37 4.66,0.15 1.31,-3.93 2.33,-0.29 0.43,-1.02 -1.16,-1.31 0.58,-2.33 2.77,-2.04 1.74,-2.19 2.04,-1.31 5.24,-0.29 3.06,2.62 2.18,0.73 1.89,-0.14 0,-1.61 2.19,-0.29 2.33,2.77 7.13,3.93 -0.6,4.99 0,0 -0.71,1.27 0.58,12.52 -3.05,5.53 -2.48,1.89 -2.33,1.02 -3.2,-2.47 -1.17,2.62 0.15,2.04 2.62,3.2 -1.31,0.87 -0.87,1.6 -2.48,-1.74 -2.76,-0.29 -0.73,-3.93 -3.64,-0.3 -1.02,6.26 -2.62,-0.43 -2.62,-1.46 -5.53,-5.24 0,-1.45 -0.88,-0.59 -2.03,0.15 -1.75,-4.08 1.75,-3.78 z" 
                fill="rgb(151, 144, 238)" 
                stroke="white" 
                stroke-width=".7px"
                title="Glacier 2" 
                id="GL2" 
            />
        </svg>