<svg xmlns="http://www.w3.org/2000/svg" viewBox="133.17418 293.34704000000016 53.6699999999999 52.09999999999985" width="53.6699999999999" height="52.09999999999985">
            <path 
                d="m 159.18418,344.64704 -0.97,-1.17 -1.32,-0.66 -8.72,0.17 -5.1,1.97 -2.96,0.49 -5.76,-6.91 -1.18,-0.75 0,0 0.35,-1.14 1.27,-0.12 0.79,-0.6 2.43,-0.16 0.45,0 1.51,-0.33 0.78,-1.03 0.03,-0.86 0.75,0.6 0.67,-0.61 0.84,0.25 0.07,-0.53 -0.66,-0.02 -0.44,-1.09 -1.2,-0.59 -0.75,-1.05 -1.21,-0.31 -0.56,-0.33 0.64,-0.5 0.1,-1.33 1.06,-0.93 1.24,-0.44 -0.68,1.33 0.31,0.29 0.59,-0.99 1.14,-0.1 0.38,0.68 0,0.99 -0.97,-0.73 -0.31,0.66 -1.42,0.13 0.85,0.85 2.26,-0.64 -0.11,0.89 0.85,-0.01 0.64,-0.39 -0.24,-1.01 -0.26,-0.4 -0.37,-0.93 2.08,-0.5 -2.46,-0.38 -0.69,-0.82 -0.34,-1.51 -2.59,-2.16 -0.92,1.1 -0.39,-0.69 0.33,-0.09 0.99,-1.12 2.37,1.82 1.42,-0.67 1.55,1.19 1.36,-0.29 0.23,-0.74 0.59,-0.19 1.8,1.31 0.16,2.5 0.66,-0.86 2.03,0.43 -1.86,-1.6 0.17,-0.61 0.74,0.27 -0.21,-0.37 -0.71,-0.52 0.56,-0.87 0.2,0.41 0.89,-0.71 -1.3,-0.8 -0.14,-1.09 1.01,0 0.74,0.63 0.52,1.18 -0.51,0.03 -0.09,0.48 0.73,0.04 1.69,-0.97 -0.29,-0.7 2.44,-0.62 0.19,-1.1 -0.59,-0.17 -0.94,0.93 -1.57,-0.24 -0.67,0.65 -0.2,-0.39 1.04,-1.15 -0.53,-1.04 1.24,-0.12 0.2,-0.6 1.23,0.03 0.12,-0.43 0.5,0.05 -0.08,-0.55 -0.76,-0.23 -2.1,0.86 -1.66,-1.04 -2.03,0.54 -0.18,-0.6 0.58,-0.09 0.51,-1.27 -0.44,-1.51 -0.85,-0.6 -1.15,0.12 -0.37,0.73 -1.24,0.62 -0.44,-0.17 -0.78,-0.49 1.01,-0.75 -1.21,-0.49 1.42,-0.24 2.74,-5.76 1.25,-0.58 1.92,-2.87 2.48,-2.27 0.12,-1.22 0.88,1.02 1.76,-0.53 0.69,0.66 2,0.04 1.19,-1.11 -1,-0.41 -1.72,0.18 -0.71,-1.23 3.4,-2.02 1.09,-0.12 0.5,-0.65 1.59,0.1 -0.56,0.55 0.18,1 1.71,0.29 1.99,-0.65 0.61,0.95 2.33,0.51 1.98,-0.46 -0.5,-1.29 1.88,-1.58 1.54,-0.26 0,0 4.61,1.12 2.71,2.02 1.79,0.7 1.16,1.39 0,0 0.19,-0.2 0,0 0.04,0.84 -1.32,1.32 -1.97,1.31 -2.14,0.33 -1.81,1.97 -0.33,1.65 -5.1,5.43 0.33,4.61 0.99,1.31 0.16,2.31 -0.66,2.96 -1.15,1.31 -0.49,2.31 -1.65,1.15 -0.49,2.47 -4.61,6.74 -0.82,2.47 -1.48,0.99 -0.99,4.61 -4.11,0.16 0,0 z" 
                fill="rgb(151, 144, 238)" 
                stroke="white" 
                stroke-width=".7px"
                title="Höfuðborgarsvæði utan Reykjavíkur" 
                id="IS-1" 
            />
        </svg>