<svg xmlns="http://www.w3.org/2000/svg" viewBox="303.35418 0.14704289999999953 251.17000000000024 262.12999710000014" width="251.17000000000024" height="262.12999710000014">
            <path 
                d="m 362.82418,2.1270429 0.98,1.57 -0.19,2.38 -0.62,0.01 -1.14,-1.57 -0.59,-0.08 -0.28,-1.78 0.82,-1.06 -0.42,-1.45 1.44,1.98 z m 187.58,82.8200001 -3.86,0.6 -1.75,-0.97 -1.36,0.39 -2.72,2.33 -0.78,3.11 -3.49,4.08 -1.16,-1.16 -5.05,0.39 -2.13,1.36 -2.91,-0.78 -1.94,0 -3.49,1.17 -4.66,0.78 -1.75,-0.19 -3.1,1.36 0.58,4.659997 -3.49,2.72 -2.52,0.97 -1.55,1.17 -0.78,1.75 -2.72,1.75 -7.18,1.55 -1.16,0.97 -1.75,6.02 0,2.33 0.97,3.69 0.97,7.96 -3.3,5.44 -3.49,0.78 -0.97,1.55 -3.3,-1.94 -4.46,0.39 -4.66,-1.16 -2.13,1.55 -0.78,1.36 0,3.11 -2.91,6.41 -0.19,3.49 -1.55,3.49 0.58,3.11 4.66,3.69 3.3,3.49 -1.36,2.52 -0.39,3.11 -2.72,2.91 -1.75,3.11 -3.1,2.91 -0.97,3.69 0.19,13.39 -1.36,1.36 0.39,4.85 1.55,1.75 -3.1,5.05 -4.46,0.78 -1.36,1.94 -2.52,2.33 -1.75,3.3 -6.6,3.11 -3.69,2.52 -0.97,2.72 -1.36,7.57 -1.54,3.42 0,0 -0.21,0.47 -3.49,-2.91 -1.16,0 -0.78,0.97 -2.91,-0.19 -2.13,-0.19 -5.24,-1.55 -3.88,2.13 -3.3,0.58 -3.3,2.72 -1.36,1.94 -2.33,0.39 -0.78,-1.55 -1.94,-0.19 -1.94,-0.97 -4.27,2.13 -5.24,5.24 -0.58,2.72 -2.14,0.39 -0.58,1.36 -5.82,4.85 -1.36,3.49 -3.49,0.39 0,-1.36 -0.75,-0.23 0,0 0,0 0,0 0,0 0,0 0.73,-0.06 -1.94,-2.52 -3.88,-3.1 -7.38,0.39 -2.52,-0.78 -3.1,-2.33 -0.39,-2.52 -2.33,-4.85 -1.16,-2.13 -1.75,-0.97 -2.52,-0.39 -2.33,0.39 -1.16,0.97 -2.52,0 0,-2.13 0.97,-1.55 -0.78,-1.55 -5.24,-4.66 -1.94,-0.97 0.12,-2.47 0,0 0.71,-0.59 0.29,-1.6 2.04,-1.46 3.93,0.58 1.31,-1.75 0,-5.39 -2.04,-3.93 -1.75,-1.46 0,-5.24 1.75,-5.24 0.29,-2.47 -0.15,-5.24 -1.75,-4.08 -0.15,-6.41 -4.08,-2.47 -4.95,-3.93 -0.73,-8.44 -4.95,-3.2 -1.31,-2.77 -2.47,-2.18 -1.16,-3.35 -0.15,-5.82 -1.31,-0.73 0.29,-1.75 2.18,-3.49 -1.75,-4.95 -5.68,-1.31 -2.18,-1.16 -1.46,-1.75 -0.58,-5.09 3.2,-4.66 2.04,-5.68 0,-12.96 -3.93,-2.62 -5.97,-5.97 0.15,-3.489997 2.18,-2.18 3.93,-2.47 -0.15,-5.82 -2.91,-4.8 0.44,-2.77 2.33,-5.53 0.15,-1.89 -3.35,-2.18 -2.04,-2.04 -0.58,-2.33 -1.75,-1.6 1.17,-2.77 -3.2,-3.04 0,0 0.9,-1.1 1.61,-0.68 2.83,-3.22 2.62,-0.26 1.14,1.06 0.23,0.89 0.1,1.19 -0.53,1.23 -0.25,0.84 -0.55,1.67 0.62,0.08 3.02,-4.32 0.89,-2.8 -0.98,-1.52 0.81,0.45 0.72,-0.41 1.86,0.88 0.55,-0.21 1.56,1.84 0.14,1.59 -0.9,1.66 -0.79,3.49 0.91,-0.04 1.21,-2.75 2.76,-1.49 1.35,0.27 1.95,2.01 1.91,4.46 -0.53,1.3 -2.71,2.88 0.08,0.83 0.78,0.57 4.26,-2.94 0.99,0.47 1.27,1.91 0.77,4.26 -0.05,2.4 0.63,0.64 -1.17,7.56 1.6,0.98 2.69,-0.18 2.38,2.58 1.49,-0.65 1.13,0.73 2.36,0.26 1.21,2.89 -0.31,0.26 0.29,0.88 1.45,1.43 0.07,2.21 0.72,1.14 -0.02,1.98 0.82,1 1.2,-1.3 1.83,2.22 -0.01,8.019997 0.48,0.7 1.17,1.15 0.64,2.15 -0.59,0.85 0.59,2.06 -0.56,1.71 1.76,1.66 1.3,3.3 1.2,0.2 0.39,0.54 0.1,0.63 -0.67,0.31 0.09,1.14 0.88,0.59 0.58,-0.58 0,-1.48 -1.94,-9.06 0.68,-3.63 1.35,-2.86 -0.38,-1.08 0.69,-1.46 -0.81,-1.64 0.39,-1.57 -1.41,-5.389997 -2.26,-3.43 0.01,-1.36 -0.81,-0.31 0.31,1.47 -1.46,-0.45 -0.45,0.41 -1.94,-1.94 -0.13,-2.36 1.3,-2.25 -3.38,-3.48 -2.32,-5.71 0.05,-1.94 -1.1,-3.59 0.22,-2.99 -0.45,-3.01 -0.95,-2.68 0.64,-4.94 1.33,-0.92 0.47,-1.08 0.66,-0.64 6.21,0.75 0.65,2.17 0.8,0.41 0.77,-1.75 1.19,-0.16 1.07,1.04 -0.32,1.26 0.78,0.97 2.15,-1.31 1.44,-0.25 1.57,0.27 1.1,0.9 1.18,-0.05 1.04,1.36 1.14,0.57 -0.42,1.16 1.54,2.5 2.76,0.55 0.65,1.87 3.58,3.4 1.79,3.67 1.44,1.64 -0.04,2.98 1.39,2.45 1.76,0.83 4.47,0.49 5.16,-0.88 1.67,-0.84 0.31,-0.9 1.83,-1.37 -0.34,-1.27 0.47,-1.24 2.18,-2.4 -0.25,-0.83 -1.24,-0.03 0.94,-2.91 -0.95,-0.2 -0.05,-0.44 1.29,-0.49 0.39,-0.76 -1.29,-1.02 0.82,-0.41 1.74,0.26 3.56,-3.36 -0.08,-3.81 -1.06,-0.82 0.01,-0.79 0.59,-0.96 -0.25,-0.26 1.61,-0.78 1.5,-2.03 1.42,-0.52 0.99,0.96 1.7,-0.01 0.77,-1.82 5.33,-0.56 1.77,1.39 0.67,1.34 0.47,4.35 1.51,2.31 -0.42,1.49 0.39,1.66 -0.51,1.16 1.14,0.66 0.48,0.33 0.89,-1.05 -1.16,-0.6 0.37,-1.91 5.66,-0.53 2.72,-0.98 2.79,-2.45 6.22,-2.84 5.16,-3.02 2.56,-2.59 0.05,-0.99 1.73,-1.43 0.8,-1.62 -0.33,-2.19 0.68,-2.49 -1.31,-1.34 0.31,-1.29 -0.57,-0.55 -0.74,0.12 -0.52,-0.96 -0.43,-1.46 0.18,-1.83 -0.97,-2.32 -1.2,-0.9 -0.11,-1.74 0.47,-1.23 -0.76,-1.01 0.64,-1.38 -0.98,-2.86 1.5,-0.51 -2.08,-4.43 -0.42,-2.45 -1.47,-1.57 0.78,-1.24 -0.29,-0.4 0.82,-1.21 0.06,-1.2200001 0.48,-0.31 1.39,0.7000001 0.85,-0.6900001 1,0.7800001 0.02,-1.2800001 1.65,-0.19 0.69,-0.58 0.73,1.14 -0.32,0.81 0.38,0.9000001 1.56,-0.67 0.24,-0.9200001 0.74,-0.26 1.45,0.75 1.2,2.5700001 1.37,0.07 0.21,-0.49 2.82,-0.74 -0.42,-0.69 0.58,-0.6200001 -0.41,-1.19 0.79,-0.26 -0.09,0.6 0.37,0.9900001 1.38,-0.6400001 0.91,-4.25 0.65,1.17 2.15,-0.71 1.54,0.22 0.78,0.96 0.85,-0.26 1.26,1.82 0.12,-1.86 1.8,0.36 0.29,-1.54 0.26,-0.28 1.19,2.66 1.56,-0.08 0.05,0.97 1.15,-0.33 -0.64,1.33 0.29,0.9300001 1.15,-0.5100001 1.06,0.4700001 -0.6,1.46 1.86,-0.15 0.24,0.57 -1.01,0.28 0.03,0.58 -1.83,0.94 0.16,1.43 0.48,-0.01 0.31,0.68 -0.69,0.35 0.14,0.71 -0.66,1.15 1.58,0.78 -1.01,1.21 0.08,0.91 0.78,-0.29 1.02,1.07 -0.05,-1.36 0.62,-0.42 0.64,0.21 -0.27,0.89 0.36,0.31 2.36,-1.19 0.9,0.18 -1.07,2.38 0.28,0.53 0.47,0.21 1.18,-0.84 2.26,1.09 3.05,0.39 1.16,1.85 0.68,5.68 -0.32,2.14 -1.28,2.43 -3.2,3.39 0.22,1.49 1.44,2.11 0.65,0.01 1.7,-1.2 0.21,0.39 -0.54,2.44 -0.56,0.66 -0.01,1.97 0.65,0.69 2.92,-0.58 0.14,0.69 0.74,0.3 1.11,-1.28 1.17,-0.51 0.34,1.81 1.8,0.69 1.33,-0.19 0.22,2.17 0.75,0.28 0.62,1.18 2.47,0.14 1.44,3.68 1.51,0.41 0.23,-0.09 2.56,-0.61 0.72,-0.78 0.6,-2.08 -1.1,-2.94 0.02,-3.49 0.84,-3.22 1.16,-0.3 0.73,0.72 1.58,0.39 2.33,-0.58 2.84,-1.58 0.73,0.29 1.93,-0.83 1.34,-1.44 -0.3,-1.69 1.32,0.25 2.17,-1.53 0.16,-1.17 1.54,-1.9 0.37,-3.66 1.58,-0.29 2.3,-2.69 0.98,-0.12 2.72,-1.75 2.04,-0.17 0.56,1.13 1.21,0.5 1.5,1.65 2.29,0.47 2.78,-0.4 3.59,-2.18 4.21,-0.55 -2.05,2.56 -5.98,2 -3.99,2.58 -1.16,0.14 -2.92,3.2 -1.48,0.99 -1.29,-0.07 -0.84,0.69 -1.3,0.1 -0.84,0.9 -1.25,0.17 -2.15,3.77 1.3,1.17 2.63,4.11 -0.73,4.71 -7.18,5.91 -2,0.86 -2.79,0.3 -2.11,3.05 0.21,0.63 1.31,0.81 0.41,1.26 2.43,-0.23 2.4,-0.9 0.43,0.23 -0.74,2.4 0.47,1.63 -2.11,3.56 0.69,0.57 2.66,-0.76 1.57,0.29 0.38,1.42 1.74,-0.26 0.13,0.61 0.63,0.18 2.81,-0.67 0.79,1.66 -0.15,0.95 0.94,0.61 1.14,0.12 1.38,-0.64 0.93,-1.24 0.51,-2.15 2.03,-0.6 0.67,-1.47 0.76,-0.5 0.75,-0.3 1.69,1.31 1.13,-0.14 1.24,3.49 0.28,2.55 1.71,1.21 0.79,5.46 z m -181.42,164.089997 -1.12,0.43 -2.66,-0.43 -2.15,-2.75 1.89,-1.8 2.06,-0.77 0.34,-0.94 4.13,-2.06 2.06,0.95 0.52,1.29 -0.86,1.81 -2.06,1.38 -2.15,2.89 z" 
                fill="rgb(151, 144, 238)" 
                stroke="white" 
                stroke-width=".7px"
                title="Norðurland eystra" 
                id="IS-6" 
            />
        </svg>