<svg xmlns="http://www.w3.org/2000/svg" viewBox="189.88417999999996 57.85704299999982 155.83000000000004 184.6099970000002" width="155.83000000000004" height="184.6099970000002">
            <path 
                d="m 303.31418,57.857043 3.2,3.04 -1.16,2.77 1.75,1.6 0.58,2.33 2.04,2.04 3.35,2.18 -0.15,1.89 -2.33,5.53 -0.44,2.77 2.91,4.8 0.15,5.82 -3.93,2.48 -2.18,2.18 -0.15,3.489997 5.97,5.97 3.93,2.62 0,12.96 -2.04,5.68 -3.2,4.66 0.58,5.1 1.46,1.75 2.18,1.17 5.68,1.31 1.75,4.95 -2.18,3.49 -0.29,1.75 1.31,0.73 0.15,5.82 1.16,3.35 2.48,2.18 1.31,2.77 4.95,3.2 0.73,8.44 4.95,3.93 4.08,2.48 0.15,6.41 1.75,4.08 0.15,5.24 -0.29,2.48 -1.75,5.24 0,5.24 1.75,1.46 2.04,3.93 0,5.39 -1.31,1.75 -3.93,-0.58 -2.04,1.46 -0.29,1.6 -0.71,0.59 0,0 -0.91,0.76 0,0 0.6,-4.99 -7.13,-3.93 -2.33,-2.77 -2.18,0.29 0,1.6 -1.89,0.15 -2.18,-0.73 -3.06,-2.62 -5.24,0.29 -2.04,1.31 -1.75,2.18 -2.77,2.04 -0.58,2.33 1.17,1.31 -0.44,1.02 -2.33,0.29 -1.31,3.93 -4.66,-0.15 0.15,4.37 2.48,3.79 -0.29,2.33 -0.48,0.09 0,0 0,0 0,0 0,0 0,0 -7.52,0.2 -0.87,-1.6 -2.33,-0.73 -2.04,0.73 -2.47,0 -4.66,-2.18 -6.11,-1.02 -2.62,-1.02 -2.91,0 -1.46,-3.35 -1.83,-1.55 0,0 0,0 0,0 -0.65,-2.62 -1.31,-1.8 -2.13,-0.25 -0.88,-0.69 0,0 0.1,-2.4 -1.55,-0.62 -1.94,-0.15 -2.02,0.54 -1.78,-0.54 -2.1,0.54 -4.58,-0.31 -3.41,-1.47 -7.21,1.94 -7.14,-3.65 -2.56,-0.85 -1.47,0.85 -0.46,2.33 -4.19,0 -2.02,1.47 -1.47,2.33 -1.09,0.85 -6.28,-3.8 -6.96,-0.08 -2.64,-2.25 -2.56,-1.16 -0.7,-0.78 0,0 -0.29,-1.82 0,0 -0.55,-4.99 -5.1,-9.42 -0.44,-2.88 1.88,-6.9 0,0 0.55,0.33 0.28,-1.5 -0.13,-4.02 -1.12,-5.43 -0.7,-2.41 -0.68,-0.33 0.27,-0.3 -0.53,-1.44 0.6,-0.77 -0.12,-0.56 0.98,-0.83 -0.65,-1.55 1.23,-1.56 0.59,-3.06 -1.17,-10.46 0.33,-1.73 -0.83,-3.81 2.13,-1.11 3.84,10.99 1.96,3.84 1.38,0.05 0.26,0.44 0.17,1.7 0.42,0.58 0.23,-0.61 -0.01,-0.56 -2.66,-11.07 -1.1,-2.9 -0.82,-5.53 1.14,-6.37 1.13,-2.23 0.62,-4.3 2.74,-3.82 0.49,0.12 1.92,-1.69 1.08,-1.66 0.89,-0.47 2.13,-3.11 0.91,-0.79 0.56,0.19 1.71,-2.51 0.43,0.74 0.82,-0.31 0.09,-0.85 0.64,-0.43 0.92,0.46 0.13,1.39 1.73,-0.07 -0.86,3.24 0.55,0.99 0.16,1.93 -0.56,3.22 0.24,1.21 6.22,0.42 7.52,-2 3.49,-2.33 1.11,-4.79 0.28,-0.32 -0.12,-3.39 1.15,-2.41 0.01,-1.56 0.78,-1.21 0.01,-2.13 -0.89,-3.36 0.3,-2.27 -1.27,-2.21 -0.78,-2.57 0.24,-1.01 -0.42,-0.46 -0.51,0.3 -0.17,-1.18 0.99,-1.15 -0.63,-1.229997 0.37,-1.92 -2.07,-4.5 -1.1,-5.82 -1.09,-2.51 -0.13,-4.19 -1.09,-2.1 -0.29,-1.69 -1.05,-0.33 -0.1,-0.59 0.8,-0.76 0.93,-4.34 -0.71,-3.71 2.56,-1.11 1.99,0.23 1.85,-2.71 3.09,0.77 1.74,-0.38 3.58,-3.19 1.27,0.12 0.28,0.73 0.9,0.42 1.38,-0.16 0.28,2.07 0.98,0.92 0.74,1.82 1.1,0.86 -0.63,1.23 0.25,1.72 1.36,1.53 -0.21,1.68 1.26,1.69 0.51,1.94 2.23,2.3 0.27,1.81 0.54,1.16 -0.03,0.78 -0.32,0.67 0.95,2.6 2.07,1.24 0.41,0.9 0.7,4.49 1.16,0.18 0.59,-1.11 2.6,2.29 1.66,0.73 0.87,-0.39 0.48,1.46 1.34,1.71 1.07,2.759997 0.72,4.07 0.87,0.65 -0.3,5.27 0.87,1.61 -0.02,0.85 1.84,1.08 2.88,-0.44 0.63,-0.63 -0.04,-2.08 0.53,-0.77 1.99,2.89 2.17,2.04 2.15,-0.86 2,-1.68 -0.34,-2.45 1.46,-1.38 0.28,-1.67 -0.95,-2.65 0.62,-1.16 0.02,-0.08 0.87,-1.03 -1.91,-5.519997 -0.26,-2.67 -1.91,-1.91 -0.28,-1.22 -0.18,-1.66 -2.27,-3.59 -1.29,-0.43 -0.45,-1.88 0.84,-0.88 4.05,-0.53 0.84,-1.59 0.2,-2.29 -1.95,-4.54 0.16,-1.8 3.43,-2.37 1.1,-1.32 1.19,0.46 1.11,-0.53 3.55,0.12 2.46,-0.87 1.22,0.25 0.87,1.63 1.45,-0.12 0.54,-0.9 -0.69,-0.52 0.21,-1.17 2.22,0.14 0.58,-0.78 0.13,-3.43 1.2,-4.68 z" 
                fill="rgb(151, 144, 238)" 
                stroke="white" 
                stroke-width=".7px"
                title="Norðurland vestra" 
                id="IS-5" 
            />
        </svg>