<svg xmlns="http://www.w3.org/2000/svg" viewBox="144.11417999999998 229.38704000000024 257.0100000000001 189.8399999999997" width="257.0100000000001" height="189.8399999999997">
            <path 
                d="m 398.21418,340.98704 -0.54,29.22 0,0 -2.7,0.58 -7.43,2.78 -5.79,2.78 -3.09,2.19 -3.02,3.06 -8.03,16.65 -6.23,7.4 -9.19,5.29 -7.19,1.23 -12.53,3.74 -5.6,2.13 -5.28,1.19 -7.16,-1.14 -5.32,-1.82 -3.05,0.25 -0.85,1.56 -2.89,-0.65 -2.07,0.53 -0.25,0.43 -0.63,-0.78 -4.56,-2 -3.29,-2.07 -7.31,-2.59 -11.22,-5.37 -6,-2.21 -9.1,-1.84 -6.75,-0.22 -4.2,0.67 -0.28,0.37 -5.38,-0.96 -5.26,-3.64 -8.91,-9.09 -11.53,-10.23 -7.42,-5.57 -2.75,-1.43 -4.24,-5.11 -2.36,-2.11 -0.95,-0.43 -0.6,0.34 -0.65,-0.67 -3.81,-0.88 -3.39,-2.02 -4.71,-3.83 -0.35,0.44 -2.13,-0.65 -2.61,-0.05 -2.99,0.62 -1.6,1.6 1.05,1.62 -0.34,0.59 -1.16,0.45 -3.99,-0.38 -2.15,0.98 -4.78,0.65 -2.47,1.34 -1.34,0.16 -1.91,-0.71 -1.28,-1.17 -1.4,-2.9 -2.07,-0.82 -2.2,-0.09 -0.39,1.25 -2.61,1.6 -2.51,0.85 -1.36,-0.05 0,0 0.1,-2.11 4.77,-3.95 0.66,-1.97 4.11,-3.29 1.98,-2.96 1.81,-1.48 0,0 1.65,-1.64 0,0 4.11,-0.16 0.99,-4.61 1.48,-0.99 0.82,-2.47 4.61,-6.75 0.49,-2.47 1.65,-1.15 0.49,-2.3 1.15,-1.32 0.66,-2.96 -0.16,-2.3 -0.99,-1.32 -0.33,-4.61 5.1,-5.43 0.33,-1.65 1.81,-1.97 2.14,-0.33 1.97,-1.32 1.32,-1.32 -0.04,-0.84 0,0 2.06,-2.2 0,0 2.17,-2.17 2.33,-5.04 8.07,-7.68 3.49,-3.88 1.24,-2.4 2.27,-0.2 0,0 0.53,1.06 2.54,1.97 3.28,-1.15 1.23,-0.57 0.46,-4.32 0,0 1.34,-0.66 0,0 -0.14,-1.04 0,0 0.88,0.04 0.66,-1.06 1.31,0 1.15,0.9 -1.47,0.82 0.33,1.39 3.52,0.41 0.57,1.31 -0.08,2.78 2.95,5.24 1.31,0.74 1.15,-0.49 1.06,-2.05 0.08,-4.26 3.28,-1.06 1.15,1.31 0.08,2.46 0.74,1.72 1.39,0.41 1.97,-0.33 4.01,-4.67 9.01,-4.99 2.78,-2.7 -0.33,-1.31 -1.72,-0.33 0,-1.15 2.46,-1.64 0.16,-2.78 2.29,-1.64 0.08,-1.56 -1.06,-2.7 2.46,-2.78 0.08,-1.96 -1.96,-0.57 1.23,-1.64 3.11,-1.47 1.15,-1.15 0.33,-3.85 -0.74,-1.23 -1.39,-0.41 0,-1.15 2.87,-2.05 0.9,-4.92 0,0 1.83,1.55 1.46,3.35 2.91,0 2.62,1.02 6.11,1.02 4.66,2.18 2.48,0 2.04,-0.73 2.33,0.73 0.87,1.6 7.53,-0.2 0,0 0.19,1.08 -1.75,3.79 1.75,4.08 2.04,-0.15 0.87,0.58 0,1.46 5.53,5.24 2.62,1.46 2.62,0.44 1.02,-6.26 3.64,0.29 0.73,3.93 2.77,0.29 2.48,1.75 0.87,-1.6 1.31,-0.87 -2.62,-3.2 -0.15,-2.04 1.16,-2.62 3.2,2.48 2.33,-1.02 2.48,-1.89 3.06,-5.53 -0.58,-12.52 0.71,-1.27 0,0 0.91,-0.76 0,0 -0.12,2.47 1.94,0.97 5.24,4.66 0.78,1.55 -0.97,1.55 0,2.13 2.52,0 1.17,-0.97 2.33,-0.39 2.52,0.39 1.75,0.97 1.17,2.13 2.33,4.85 0.39,2.52 3.11,2.33 2.52,0.78 7.38,-0.39 3.88,3.11 1.94,2.52 -0.73,0.06 0,0 -1.79,0.14 -2.52,3.49 -5.89,5.4 -0.97,3.49 0.39,3.69 2.72,1.36 2.91,0.78 -0.19,1.75 -1.55,0.97 -5.05,1.55 0,2.72 -1.75,2.91 -0.58,3.11 -9.12,9.12 0,2.72 2.52,5.82 3.11,0.78 1.17,0.78 0.19,4.66 4.85,0.58 0.19,2.13 -1.16,0.58 -2.14,0.19 -0.19,4.85 1.75,2.33 1.94,0.39 1.55,2.52 1.94,0.97 7.76,0.19 0.97,-2.33 1.55,-1.94 0.58,-5.63 -0.97,-1.75 -0.39,-4.66 2.52,-0.19 0,2.72 0.97,3.11 3.3,0 0.97,-1.36 1.55,-0.97 0.19,-1.94 1.75,-0.19 1.36,0.97 0.97,1.75 1.36,0.19 0.58,-1.94 -0.97,-3.3 1.94,-0.78 1.75,1.94 4.46,3.11 -0.19,3.3 -0.78,1.94 0.58,3.3 -0.97,6.99 -1.55,4.66 -1.36,0.78 0.39,1.55 0.97,0.39 0,0.67 z m -122.84,45.17 1.83,-0.41 3.85,0.41 1.42,1.01 0.81,1.62 -0.51,1.32 -2.64,2.94 -1.83,0.61 -6.59,0.2 -4.77,-4.16 -0.71,-1.62 2.94,-3.04 3.75,-0.3 0,0 2.45,1.42 z m 34.39,-15.92 2.33,0.3 2.23,0.91 3.75,3.25 0.2,1.42 -0.91,1.62 -3.65,1.01 -0.61,1.42 1.52,1.01 1.42,0.1 1.52,1.32 0,1.83 -2.23,0.2 -1.32,3.75 1.62,2.33 1.42,1.12 3.45,0.81 0.61,0.91 -0.3,1.52 -1.22,1.32 -3.85,2.44 -1.01,-1.01 -2.94,-0.2 -0.81,-1.32 -0.81,-0.2 0.1,1.52 -1.01,1.32 -8.11,-0.1 -1.01,0.81 -2.43,-0.3 -0.41,1.32 -0.91,-0.2 -1.01,-3.85 -1.12,-1.01 -0.71,0.31 -0.1,1.93 -2.54,2.23 -1.42,0.61 -0.3,-1.72 0.91,-0.61 0.71,-1.62 0.3,-3.65 -4.57,-1.42 -0.91,-1.52 0.31,-1.72 1.01,-1.12 2.23,-0.41 0.91,-1.62 0.3,-4.57 0.51,-0.91 1.83,0.51 0.41,0.81 1.62,-0.2 -0.91,-2.03 -1.32,0 -3.04,-1.32 0.41,-2.43 1.12,-2.54 1.62,0.51 0.61,1.01 5.58,-3.35 0.3,-0.91 1.42,0.1 1.12,-0.91 3.04,-1.01 1.42,0.2 0,0 3.63,2 z m -71.2,42.97 -0.49,1.58 -1.9,1.11 0.46,0.79 -1.02,1.52 -0.72,0.09 -0.01,-0.77 0.74,-0.33 -1.05,-1.47 -0.19,-2.29 -0.74,-0.69 0.59,-0.53 2.23,-0.2 1.07,-0.8 0,1.04 1.03,0.95 z" 
                fill="rgb(151, 144, 238)" 
                stroke="white" 
                stroke-width=".7px"
                title="Suðurland" 
                id="IS-8" 
            />
        </svg>