<svg xmlns="http://www.w3.org/2000/svg" viewBox="0.39417592999991014 12.927042999999797 196.01000407000015 206.48999700000024" width="196.01000407000015" height="206.48999700000024">
            <path 
                d="m 191.86418,193.11704 -1.88,6.9 0.44,2.88 5.1,9.42 0.55,4.99 0,0 0.33,2.11 0,0 -4.99,-2.11 -2.33,-0.44 -4.32,-2.22 -0.22,-2.88 -2.22,-2.77 0,-1.66 1,-0.89 -0.22,-1.22 -2.11,-0.22 -1.66,-3.66 0.44,-2.33 2.22,-3.66 -0.44,-4.54 -1.77,-1.99 -0.33,-5.1 -0.89,-1.66 -3.55,-2.66 -0.66,-5.1 -4.32,-5.65 -0.55,-1.33 -1.77,-1.44 -3.21,2.22 -1.77,0.55 -1.77,-2.55 -2.22,-1.44 -0.33,-1.77 0.78,-2.33 2.33,-1 -0.11,-2.22 -1.66,-1.22 1.77,-1.99 1,-2.77 -1.11,-1.44 -1.44,-0.22 -1.91,3.07 0,0 -0.76,-0.18 -3.54,2.36 -0.96,0.07 -5.38,-2.05 -2.78,1.6 -0.1,-0.77 -0.91,-0.27 1.63,-1.37 -0.03,-1.19 -0.61,0.24 -0.79,-0.68 -1.34,-1.96 -0.69,-0.59 -0.06,-1.48 -2.25,-0.72 -0.43,0.64 0.55,1.06 0.04,2.48 -0.74,-0.21 -0.54,0.63 -0.74,-0.04 0.46,-2.11 -1.27,-1.98 -0.33,-2.58 -1.76,-1.02 -0.67,0.76 0.58,1.03 0.23,2.56 -0.98,1.04 0.04,1.43 -1.3,0.79 -0.84,2.79 -0.64,-0.01 -0.08,1.49 -1.56,1.6 -0.7,-0.44 -0.52,0.12 -0.74,0.37 -0.08,-1.37 -1.25,1.04 0.49,-1.53 -0.48,-0.23 -0.84,1.17 -0.88,-0.57 -0.09,-1.28 -0.24,-0.93 -0.49,-0.29 -0.62,-0.96 -2.75,-0.39 -1.21,-0.76 -0.18,-1.23 -0.25,-0.83 0.59,-0.75 0.81,0.09 0.8,-0.96 2.08,-1.16 3.93,-0.45 2.44,-1.04 1.35,-2.1 1.08,-0.63 1.32,-5.05 1.96,-1.58 0.75,-1.23 -0.61,-0.2 -2.56,2.04 -3.44,6.32 -2.27,2.18 -3.61,0.51 -0.8,-0.21 -0.8,-0.75 0.45,-1.07 2.03,-1.07 0.74,-0.95 0.1,-3.12 -0.67,0.25 -0.54,1.89 -2.82,2.4 -0.81,1.86 -0.79,-0.53 -0.38,-2.17 -1.59,-1.11 -0.27,0.39 0.86,1.34 0.34,2.78 -2.32,2.06 -1.41,0.33 -0.8,-0.85 -0.22,-2.54 0.8,-3.37 -0.95,-2.05 -0.45,-2.73 -0.78,-0.96 0.15,-2.05 -2.17,-4.8 -0.09,3.46 0.58,1.48 -0.07,2.08 1.03,2.92 -0.38,3.43 -2.08,2.54 -1.39,-2.01 0.58,-3.29 -1.62,-6.92 -0.44,-0.2 -0.25,1.44 0.9,5.13 -0.95,4.23 0.2,1.11 0.46,0.11 -1.23,1.72 -2.43,-1.54 -0.04,-1.54 -0.49,-1.51 -0.52,-0.12 -0.32,-3.48 -0.44,-0.78 0.29,-1.27 2.13,-3.11 -0.03,-2.32 -1.61,2.59 -1.29,0.71 -1.170004,-1.96 -1.05,-0.66 -0.76,0.39 0.44,0.22 0.1,2.8 1.790004,4.46 -0.290004,2.68 1.580004,7.29 -1.730004,-0.97 -1.26,-0.33 0.46,-0.79 -1.56,-2 -2.47,0.16 -0.86,-1.2 -1.47,0.47 -0.04,-1.14 1.1,-0.7 0.01,-0.95 0.92,-0.99 -0.34,-0.4 1.16,-0.71 2.55,-3.75 -1.71,-1.59 -1.45,0.07 -0.5,-2.16 -0.64,-0.48 0.59,4.92 -0.67,0.29 -1.75,2.8 -1.27,1.04 -0.39,-3.58 -0.93,-1.15 -0.47,-2.45 -1.21,3.65 0.59,0.66 -0.7,0.95 0.14,1.26 -0.49,0.31 -0.16,1.49 -1.54,1.83 -2.56,0.46 -1.51,-1.3 -3.49,-0.29 -0.42,-3.41 0.97,-1.89 -0.8,0.01 -2.08,2.81 0.2,0.94 -0.81,0.57 -0.55,1.31 1.29,4.75 -1.92,3.45 -1.56,0.49 -6.61,-1.29 -0.54,-1.63 -0.51,-0.55 -0.62,-0.37 -0.27,-0.92 -0.93,-0.09 -0.03,0.92 -1.4,0.53 3.22,1.64 -0.18,0.29 -2.36,-0.23 -2.43,1.83 -1.66,0.23 -1.46,0.92 -1.69,-0.05 -1.44,1.17 -2.02,-0.52 -0.3,-0.29 -1.86,-0.88 -0.12,0.63 1.15,0.51 -0.71,0.93 0.01,1.25 -1.55,1.16 -0.35,2.1 -1.34,1.88 -4.03,0.19 -5.39,0.96 -3.79,-0.84 -0.82,-1.16 0.47,-2.25 0.12,-0.63 0.69,-1.56 -0.23,-1.41 -0.09,-0.53 -3.68,-1.03 0,0.84 0.15,0.48 1.06,1.48 -0.28,0.13 -5.01,-3.51 -5.59,-2.62 -2.88,-0.51 -1.15,0.85 -8.5800001,0.49 -3.26,1 -2.05,-0.89 -1.27999997,-1.22 3.21999997,-2.24 0.85,-1.1 -0.18,-1.02 0.64,-1.03 3.05,-0.25 1.55,-1.32 0.42,-1.7 -0.68,-4.05 2.7600001,-3.04 -0.14,-2.37 0.43,-0.48 9.04,4.24 1.41,1.64 0.54,1.8 1.03,0.54 0.76,-0.43 2.14,2.14 1.84,0.88 1.84,-0.25 1.75,0.7 0.35,1.49 3.56,3.58 2.16,0.72 1.02,-1.59 2.81,-0.95 -1.25,-0.8 -1.33,0.78 -3.09,-0.68 -1.2,-2.06 -2.8,-3.1 -0.78,-0.29 -1.24,-2.06 -1.34,-0.25 -3.83,-5.86 -0.39,-1.11 0.91,-0.35 7.34,0.99 0.3,0.85 1.68,1.32 4.31,1.66 0.29,0.97 2.13,1.56 -1.92,-3.73 -1.97,-0.4 -1.01,-1.3 -2.62,-2.66 -1.77,-0.71 -1.11,-1.03 -2.14,-0.52 -1.99,-1.51 -1.29,-1.75 -0.95,-3.5 -0.8,-1.32 -1.53,-6.43 0.17,-1.55 1.08,-2.17 3.71,0.92 1.23,1.09 2.11,0.99 1.05,0.99 2.14,1.82 3.07,0.62 2.42,2.89 1.16,0 2.33,1.83 1.6,0.2 2.37,1.71 1.61,0.23 2.83,1.78 0.24,0.79 -0.65,1.9 0.28,0.27 1.48,-1.28 0.69,2.49 1.14,1.48 0.12,1.24 -1.55,2.28 0.52,0.87 -0.25,1.99 1.48,0.51 2.13,-4.91 0.98,1.76 0.55,0.15 -0.15,-2.63 4.36,3.5 1.5,-1.73 -1.4,-0.66 -1.23,-2.52 2.87,-0.51 1.21,-1.05 2.19,-0.19 0.73,-0.81 1.72,-0.54 -0.86,-0.39 -2.08,0.65 -1.85,-0.17 -2.21,0.91 -3.73,-1.13 -0.37,-0.59 -1.42,-0.34 -0.09,-0.86 -1.59,-1.4 -1.16,-2.41 3.62,-1.25 5.25,-0.16 2.39,-1.33 3.53,-0.17 2.88,0.78 0.21,-1.66 -1.59,-1.2 0.89,-1 2.69,-1.23 0.03,-0.63 -0.85,-0.92 -0.78,-0.22 -1.29,0.45 -3.35,2.55 -2.12,-0.24 -4.71,1.23 -5.35,-0.57 -1.41,0.84 -9.67,-3.32 -6.33,-6.93 -2.52,-7.529997 1.49,-4 1.92,-1.15 3.49,0.99 5.68,2.52 0.44,1.82 1.41,0.47 0.96,0.96 2.06,0.07 1.3,-1.29 1.96,-0.07 1.04,2.07 1.44,1.14 1.75,-0.11 1.43,0.76 2.67,-0.39 1.72,1.12 0.87,-0.18 0.56,0.639997 2.13,0.77 3.58,0.16 -7.37,-2.809997 -0.96,-1.2 -3.95,-0.25 -1.58,-0.85 -0.65,0.41 -0.23,-2.33 -0.6,-0.6 -1.7,-1.06 -1.8,0.65 -2.78,-1.23 -0.95,-0.75 -1.03,-2.23 -1.46,-1.03 -0.5,0.1 -3.01,-2.64 -0.56,-1.36 -2.1,-1.4 -2.49,-3.96 -0.98,-0.56 0.21,-0.97 -1.02,-2.15 0.11,-0.67 1.53,-3.79 1.65,-1.3 2.91,1.64 1.46,-0.35 1.15,0.42 5.71,3.4 3.67,0.91 2.23,1.21 0.87,-0.12 0.19,-1.74 -0.95,-1.25 -3.13,-1.76 -0.82,-0.46 -6.72,-5.67 -1.28,-2 0.52,-0.96 4.16,-0.41 1.41,-1.59 1.45,0.15 0.46,0.63 2.33,0.94 2.17,2.59 4.2,2.53 -1.35,-1.69 -2.9,-2.12 -2.05,-3.11 -3.84,-1.48 -2.79,-0.03 -0.53,-0.49 3.54,-4.36 1.21,-0.31 1.37,0.43 0.78,-0.44 -0.34,-1.63 0.69,-0.62 6.44,0.66 2.92,0.97 2.01,0.99 1.01,1.08 0.22,1.97 0.44,0.48 1.09,0.27 0.85,-0.48 2.66,1.41 0.82,0.93 1.1,1.77 0.11,1.66 0.64,0.57 0.09,1.04 -1.04,3.01 -0.03,0.57 -2.56,1.49 0.61,1.19 -0.05,1.42 0.48,0.14 0.42,-1.43 1.64,-1.08 3.9,-5.1 0.85,-0.01 2.06,1.97 0.54,2.06 -0.04,6.97 -0.42,-0.05 -2.19,2.26 -2.9,5.47 0.56,0.25 1.63,-1.48 0.34,0.61 0.67,-1.5 -0.24,-0.48 3.35,-3.72 1.63,-5.52 1.41,4.55 -0.07,1.12 -0.74,0.53 -0.6,2.21 0.94,2.78 0.79,0.03 -0.78,-2.94 2.5,-4.29 -0.35,-2.4 1.26,0 0.13,4.5 -1.54,4.7 -4.86,6.81 -0.63,1.62 0.38,0.5 2.96,-4.48 2.62,-2.38 2.65,-6.72 0.12,0.75 0.85,0.74 0.05,0.97 -0.35,5.94 -1.7,3.88 -0.33,2.01 0.1,2.02 0.88,-0.53 3.16,-8.23 -0.33,-1.85 0.76,-3.11 -0.83,-2.4 1,-6.61 0.69,-0.75 1.61,2.2 0.440004,0.06 0.3,-1.02 1.79,0.4 1.12,3.7 1.5,1.02 0.75,-0.45 0.63,2.94 1.14,0.45 -0.45,0.59 0.46,1.58 0.9,-0.12 -0.6,2.82 0.45,0.75 -0.68,4.08 0.24,1.14 -3.23,7.9 0.62,0.75 -1.36,3.079997 0.47,0.33 0.74,-0.2 1.4,-2.8 -0.05,-2.909997 1.31,-1.8 0.2,-2.16 0.65,-0.47 0.56,-1.48 -0.04,-2.31 0.94,-0.54 0.79,-1.52 0.04,-2.99 0.46,-2.52 0.48,-0.14 1.2,3.18 -0.02,2.3 0.69,0.27 0.79,-0.62 -0.47,-0.42 0.42,-0.73 1.24,2.07 -0.43,2.31 0.13,3.95 1.38,-1 0.08,-1.34 -0.76,-1.55 0.35,-1.28 0.51,-0.22 0.38,3.58 -0.87,2.58 0.27,1.22 -1.73,2.99 -1.22,3.549997 -1.96,3 -3.64,3.24 2.31,-0.61 0.22,-0.65 1.24,-0.51 1.94,-2.15 0.58,-1.73 2.65,-2.25 0.49,-2.639997 1.53,-3.06 -0.12,-2.14 1.03,-1.11 1.06,0.24 0.64,-0.52 -1.23,-1.9 -0.71,-0.33 -0.02,0.53 -0.72,-6.24 -1.25,-3.58 -3,-3.68 -1.16,-0.33 -0.29,-1.36 0.23,-0.86 0.59,0.25 0.65,-1.47 -0.37,-1.83 4.15,-3.13 0.7,-1.48 -0.7,-0.19 -1.57,0.75 -1.46,1.27 -0.76,0.52 -2.84,-0.41 -3.34,-1.93 -0.44,-1.26 -0.84,-0.72 -3.33,-0.98 -5.030004,-2.91 -1.48,0.01 -1.09,-1.23 -2.85,-0.67 -2.32,-1.59 -2.99,-2.99 -1.65,-2.29 -0.8,-3.17 0.54,-1.65 3.4,-1.25 1.64,0.18 -0.44,-1.06 1.08,-0.96 2.66,-0.89 3.31,-0.23 4.760004,2.82 2.77,0.23 0.21,-0.56 0.72,0.14 2.03,3.01 1.31,1.07 0.9,0.1 -0.41,-1.92 -1.42,-1.07 0.1,-1.77 2.38,1.32 0.25,-1.62 4.39,-0.72 1.44,-1.23 1.35,-0.04 1.3,-0.99 -1.64,0.08 -0.61,-0.54 -4.65,1.36 -3.96,-0.12 -0.68,-0.4 0.92,-2.23 2.01,-0.61 1.63,-2.1 1.62,-0.88 -1.5,-0.4 -0.11,-1.32 0.63,-0.9 -0.89,-0.04 -0.9,-0.83 0.19,2.15 -1.2,2.08 -3.14,2.65 -4.53,-0.34 -2.46,-1.32 1.93,-4.58 0.16,-2.72 3.2,-0.95 0.25,-1.52 -4.44,1.02 -1.98,4.38 -2.310004,1.78 -3.83,0.88 -0.23,-1.31 0.65,-2.95 2.04,-1.28 0.58,-2.53 -1.43,2.24 -3.59,1.91 -0.61,1.57 0.18,1.09 -1.02,1.12 -2.83,1.31 -0.95,1.17 -0.55,-0.54 -2.82,0.39 -0.7,-0.41 -2.49,-2.11 -4.3,-2.19 -1.61,-1.89 -0.43,-1.24 0.92,-1.17 2.12,1.12 1.45,0.19 0.94,1.11 0.62,0.08 1.34,-0.57 0.35,-1.04 1.7,-0.57 0.56,-1.52 -0.34,-2.85 -2.12,-0.19 -4.31,-5.65 2.15,-1.18 2.77,2.52 0.69,-1.55 0.88,-0.73 3.89,0.11 0.88,-1 0.44,-1.47 -1.64,-1.19 0.03,-0.8 1.42,-0.67 4.76,1.57 2.15,2.41 0.52,-0.29 1.52,0.79 1.83,0.15 1.050004,3.12 1.58,0.32 1.35,-0.3 1.81,-3.16 1.19,-0.87 -0.67,-2.68 0.79,-0.49 1.44,0.13 2.96,2.5 0.49,2.26 1.57,-0.11 0.29,0.98 1.9,-0.32 0.52,-0.5 0.08,-2.01 -1.83,-2.82 1.01,-0.08 2.84,1.22 0.14,1.25 0.63,0.39 0.02,4.18 1.11,0.94 0.54,2.01 0.68,0.15 0.48,0.8 1.12,0.14 0.85,1.05 0.93,0 1.15,0.77 -0.34,1.26 2.06,1.04 -0.99,1.41 0.63,1.41 1.02,0.29 2.21,-0.97 -0.56,1.56 -2.1,2.69 0.38,1.02 1.74,1.16 -2.16,3.71 0.72,1.13 0.91,0.28 2.87,-2.75 0.65,0.08 0.34,1.96 -1.14,2.22 0.17,0.62 0.4,-0.15 1.43,-2.21 0.23,-0.56 0.96,-1.64 0.17,-1.43 0.96,-0.73 -0.49,4.09 1.13,1.43 0.66,0.04 0.92,-0.83 1.52,0.21 2.99,-2.3 -0.2,3.4 1.34,1 1.05,0 -0.79,2.04 0.25,0.8 -3.63,2.49 -0.81,1.3 3.99,-2.5 1.43,0.01 0.16,1 1.24,0.52 1.01,1.74 1.92,0.01 2.06,1.02 3.27,0.04 -1.34,1.48 -0.1,1.08 2.49,1.27 0.06,0.45 -1.57,3.92 -0.56,-0.21 -0.81,0.93 1.75,0.57 0.77,1.03 -1.12,2.64 1.04,1.69 -0.3,1.28 0.53,1.16 1.63,1.05 1.75,-2.54 1.78,2.48 -0.52,2.09 -1.98,2.54 0.29,0.4 2.73,-1.77 0.87,-1.66 0.1,-2.62 -1.22,-1.83 0.57,-1.91 1.27,0.27 2.7,-0.81 2.75,6.02 -0.71,0.25 -2.74,-1.31 -0.63,0.68 1.41,1.06 -0.18,1.5 1.6,1.17 0.06,0.9 2.52,-0.07 1.34,-1.02 0.67,0.34 0.15,-0.6 0.45,0.41 0.47,-0.79 1.04,-0.18 4.42,3.57 0.2,1.57 -0.56,0.54 -2.31,-0.26 -3.73,0.87 -2.74,1.48 -2.1,-0.15 -3.48,1.63 -0.89,-0.14 -0.2,0.63 0.66,0.91 -0.32,0.86 0.41,0.5 1.3,-0.83 0.7,0.33 2.37,-1.52 2.15,0.38 2.22,-1.24 2.53,-0.29 1.01,0.49 -0.15,1.01 -1.45,1.12 -2.51,0.73 -0.6,0.61 0.09,0.57 4.03,-0.46 3.27,-1 0.7,0.18 1.31,1.81 0.15,2.4 0.49,0.12 -0.2,2.67 -0.62,1.03 -1.77,1.18 0.21,0.56 0.64,-0.28 0.12,0.57 1.67,1.17 -1,1.79 0.1,2.379997 -0.83,0.6 -1.46,3.72 -2.54,2.27 -3.56,0.49 -0.74,0.84 -1.72,-0.32 1.14,0.95 -0.04,0.61 0.88,0.41 1.94,-0.3 0.82,-1.02 0.33,2.24 3.21,0.94 -0.23,1.48 -1.62,1.4 -0.56,-0.01 -1.5,2.92 -0.85,0.24 -0.56,1.66 -1.62,0.3 -3.27,-0.36 -2.14,-0.51 -0.15,-0.81 -1.14,0.98 -0.71,-1.63 -0.29,-0.79 -1.32,-1.59 -1.16,-0.62 -0.13,-1.45 -1.55,-3.36 -2.21,-1.11 -0.15,-0.89 -0.59,0.41 -2.64,0.39 -0.42,0.81 2.54,0.77 3.14,2.67 0.13,0.96 0.98,3.54 -0.8,0.31 -1.08,1.56 1.42,0.93 0.51,1.91 -0.34,0.86 1.06,0.56 -0.16,1.4 0.5,0.19 0.4,0.74 0.99,-0.4 1.05,0.9 0.97,-0.25 0.9,0.44 2.71,0.03 1.63,-1.09 4.93,2.17 0.17,1.21 -0.11,1.01 0.04,0.99 -1.38,0.86 -2.41,2.99 -1,1.77 0.3,0.99 0.79,0.25 2.64,-2.49 1.28,-2.1 0.63,-0.08 1.21,-1.58 0.93,0.38 2.76,0.62 -0.02,7.31 -1.59,4.71 -3.07,2.88 -0.01,1.08 -5.33,4.49 0.49,0.4 0.65,-0.21 3.89,-2.15 3.81,-2.92 1.66,-0.53 0.91,1.95 -0.03,1.2 1.58,1.11 -0.04,0.92 0.37,0.55 0.36,0.11 0.83,0.15 -0.27,0.79 0.55,0.4 0.4,-0.85 0.52,0.33 -0.51,2.17 -0.52,0.41 1.6,2.29 -0.37,2.82 0.64,4.9 -1.06,4.59 0.77,1.64 0.5,1.15 0.6,1.56 1.89,3.55 -0.44,0.58 2.47,4.4 0.09,6.91 0.52,0.35 z m -58.69,-124.139997 -1.95,0 -6.83,-5.71 -3.62,-4.04 -1.95,-0.42 -1.67,-7.38 3.34,-3.48 2.23,-0.7 4.32,1.39 1.53,2.23 2.23,1.39 0.98,4.32 1.95,1.53 2.23,3.34 1.53,3.62 -2.51,3.07 -1.81,0.84 z m -25.5,85.969997 -1.11,0.84 -1.95,-0.14 -0.56,-0.97 2.93,-2.65 1.11,0.56 0.14,1.25 -0.56,1.11 z" 
                fill="rgb(151, 144, 238)" 
                stroke="white" 
                stroke-width=".7px"
                title="Vestfirðir" 
                id="IS-4" 
            />
        </svg>