<svg xmlns="http://www.w3.org/2000/svg" viewBox="27.584175999999708 149.89703999999998 232.9500040000003 154.23000000000005" width="232.9500040000003" height="154.23000000000005">
            <path 
                d="m 196.41418,219.41704 -0.04,-0.29 0,0 0.7,0.78 2.56,1.16 2.64,2.25 6.96,0.08 6.28,3.8 1.09,-0.85 1.47,-2.33 2.02,-1.47 4.19,0 0.47,-2.33 1.47,-0.85 2.56,0.85 7.14,3.65 7.22,-1.94 3.41,1.47 4.58,0.31 2.1,-0.54 1.79,0.54 2.02,-0.54 1.94,0.16 1.55,0.62 -0.1,2.4 0,0 -3.93,0.54 -1.01,2.56 -1.78,0.23 -1.78,1.4 -2.4,3.03 -2.87,2.4 -0.31,2.25 0.39,5.35 -1.09,3.57 -1.78,-2.02 -1.01,-0.47 -1.32,0.31 -4.27,3.18 1.01,2.02 -0.78,1.63 -4.19,1.01 -4.03,-0.39 -5.2,1.79 -3.83,2.95 0.54,3.88 -6.36,5.2 3.26,3.18 0,0 0.16,1.16 0,0 -1.34,0.66 0,0 0,0 0,0 -2.07,-1.35 -2.79,-0.08 -2.48,2.56 -0.68,1.89 0,0 -2.27,0.2 -1.24,2.4 -3.49,3.88 -8.07,7.68 -2.33,5.04 -2.17,2.17 0,0 -2.25,2.4 0,0 -1.16,-1.4 -1.78,-0.7 -2.71,-2.02 -4.61,-1.13 0,0 -0.69,-0.55 -1.66,-0.05 -1.2,0.59 -0.58,1.34 -1.35,0.24 -0.64,-0.14 0.13,-0.5 2.2,-0.92 -0.08,-0.83 -0.98,-0.92 -3.76,0.18 -1.34,0.56 -3.3,-1.67 -2.5,0.19 -5.08,3.02 -0.45,1.42 -2.08,1.02 -1.36,2.56 -5.59,4.13 -3.97,0.6 -0.9,0.55 -1.13,-0.73 -1.21,0.22 -0.62,-1.33 -1.1,-0.65 -0.99,0.26 -0.65,1.06 0.06,-1.12 1.01,-1.49 1.34,-0.7 1.6,-2.51 0.79,-0.08 0.24,-0.97 0.49,0.15 0.51,-1.05 0.83,-0.34 0.06,1.62 2.23,0.14 1.67,-0.42 1.39,-1.11 0.14,-1.11 -2.65,-2.37 -1.39,-0.14 -0.56,1.39 -1.05,0.11 -1.07,1.34 -0.13,-0.98 -1.47,-1.04 -1.11,-1.79 0.68,-0.42 0.09,-1.29 0.69,-0.54 0.38,-3.55 0.32,-0.74 1,-0.54 0.18,-2.47 1.26,-2.9 1.67,-1.3 1.48,-0.39 1.05,-1.71 0.65,0.39 2.22,-0.28 0.95,-0.39 0.36,-0.4 1.45,0.04 -0.5,-1.59 -2.1,0.15 1.64,-0.68 1.93,-4.02 -1.45,-0.17 -0.66,0.7 -0.21,-0.77 -1.12,0.97 -0.53,-0.09 -0.79,0.98 -0.79,-0.21 0.55,1.38 -0.98,0.5 -0.61,-0.08 0.61,-0.85 -0.61,-0.27 -0.43,1.8 -0.71,0.26 -1.06,2.06 -0.4,-0.67 0.76,-0.62 0.42,-1.58 -0.65,-0.12 -0.07,0.76 -0.95,0.46 -0.71,-0.54 -0.09,0.84 -0.61,-0.22 0.04,1.24 -0.61,1.33 -1.12,-0.44 -0.42,0.71 -0.73,0 -0.41,-0.39 -0.89,0.39 -0.12,-0.54 1.74,-3.77 -0.33,-1.16 -0.86,0.98 -0.14,0.48 -0.96,1.8 0.54,0.52 -0.59,1.49 0.47,0.85 -0.3,1.4 -1.57,0.72 0.41,0.93 -0.43,2.83 -1.03,0.66 -0.58,-0.26 -0.46,-0.14 -1.2,0.13 0.12,-0.44 -0.64,-0.13 -1.24,1.16 -0.93,-0.32 0.03,-0.81 -0.6,-0.14 -0.31,-0.82 0.17,-1.64 -0.93,-0.12 -0.33,-1.34 -0.19,1.65 -0.49,0.13 -0.32,-0.99 0.53,-0.1 -0.22,-1.67 0.49,0.18 -0.04,-1.29 0.72,-0.4 0.37,-0.94 -1.21,0.01 0.27,-1.15 0.38,-0.85 -0.63,-1.09 -0.29,1.19 -0.51,-0.27 -0.85,0.64 0.69,-1.55 0.67,-0.3 -1.23,-0.46 -0.2,-0.84 -0.2,-0.26 -0.63,-0.3 -1.81,3.24 0.17,-1.62 -0.62,0.49 -1.61,-0.05 0.37,-3.75 -0.78,0 0.37,-1.75 -0.72,-0.05 0.92,-2.4 -0.49,-0.45 -0.65,0.61 -1.49,-1.81 0.44,-0.59 -0.48,-0.66 -3.51,-2.24 0.22,-0.98 1.75,-0.92 0.32,-1.73 1.51,-0.85 0.28,-3.23 0.5,-0.25 0.5,0.88 0.74,0.08 0.27,-1.19 0.69,-0.52 -0.28,-1.14 -0.56,0 0.18,-0.62 1.67,-1.17 -0.1,-1.15 -2.25,-1.39 -0.75,-0.08 -0.3,0.86 -0.83,-0.08 -0.16,-0.53 -1.3,0.09 -0.48,1.21 -1.32,-0.48 0.04,-0.53 1.39,-0.64 0.2,-0.55 0.18,-0.82 0.34,-0.62 -0.15,-0.55 -0.75,0.83 -1.75,0.12 0.39,-0.66 0.47,0.39 1.56,-1.31 0.25,-0.65 -0.47,-1.57 -0.57,1.64 -1.86,0.17 0.25,-1 -0.58,-0.58 -1.06,0.73 0.5,0.34 -0.12,0.43 -0.48,0.2 -0.22,-0.66 -0.8,0.85 -1.08,-1.72 -3.92,3.67 0.93,0.61 0.98,-0.52 0.31,0.55 -1.31,0.47 -1.2,-0.53 -1.1,0.13 -1.14,1.01 -2.57,-1.78 1.94,0.68 0.66,-0.01 0.76,-0.7 -0.5,-1.01 -0.84,0.73 -1.09,-0.43 0.84,-1.16 -1.14,-1.31 -0.72,0.48 -0.59,-0.71 -3.360004,1.24 0.21,1.11 -3.7,-0.7 -1.15,-0.77 -3.6,1.24 -4.31,-1.7 -2.02,1.37 -1.24,-0.88 -3.27,-0.05 -8.65,-2.77 -5.78,-0.22 -0.65,0.36 -0.78,2.84 -1.51,1.31 -2.56,-0.52 -1.82,-1.17 -3.72,0.03 -1.58,0.46 -0.59,1.31 -0.86,0.33 -0.37,1.6 0.75,1.3 -0.66,0.22 -0.83,1.49 -0.05,1.6 -2.84,-0.83 -4.05,0.58 -1.45,1.1 -0.98,-0.58 -0.18,-0.73 -2.81,-1.04 -0.02,-0.48 -2.4,-0.29 -0.43,-1.51 -0.84,-0.83 0.21,-0.81 -1.8,-2.22 -0.61,-2.69 -0.82,-0.21 -1.18,-1.25 -1.69,-3.22 -0.49,-3.09 0.14,-1.2 0.93,0.77 2.33,-0.4 0.37,-1.07 1.24,-1.62 0.88,-0.42 1.15,-2.08 1.26,0.51 0.49,-0.71 2.51,-0.69 1.38,0.2 0.58,0.41 -0.27,0.35 0.37,0.55 2.05,1.7 3.68,1.04 -0.25,0.29 0.48,0.48 3.58,0.34 1.3,-1.49 0.59,-1.58 2.8,0.13 0.15,-0.63 1.02,-0.17 1.15,-2.89 1.25,-1.36 2.96,0.68 1.97,-0.81 -0.9,0.93 1.46,0.34 0.47,0.59 0.61,-0.16 -1.76,-2.63 2.11,-0.99 1.19,0.6 0.46,1.48 -1.01,2.13 1.26,0.57 -0.15,-1.88 1.14,-0.48 0.67,1.49 -1,1.8 0.7,0.24 0.62,0.09 1.36,-0.8 0.52,0.88 0.85,-0.08 1.44,-0.73 0.45,-2.35 -0.89,-2.24 -0.45,-4.29 1.75,-1.98 1.31,-0.29 1.64,0.96 3.41,0.18 -1.76,1.68 -0.84,2.45 0.42,0.73 -0.85,0.21 -1.36,2.59 1.98,1.18 0.14,2.14 1.52,0.95 0.55,-0.31 -0.03,-1.45 -1.34,-4.76 0.52,-0.14 -0.41,-0.75 3.73,1.62 0.75,-0.33 1.01,1.58 1.01,-0.27 0.22,-0.33 -1.07,-1.12 -1.32,-0.78 -1.16,0.39 -0.27,-0.44 0.93,-3.22 1.18,-1.57 1.69,-0.63 1.79,0.39 0.38,0.88 1.01,0.42 -0.52,0.6 0.82,0.04 0.49,0.67 0.41,-1.77 1.2,0.21 0.59,-0.9 1.99,-0.14 0.96,-1.1 2.77,-0.85 -0.03,-0.96 -0.44,-0.04 -1.01,0.5 -0.49,-0.63 -2.43,0.3 -0.94,-0.35 -0.14,-0.43 0.74,-0.5 0.54,0.73 1.67,-1.89 1.5,-0.64 0.69,-1.27 1.5,-0.76 1.170004,-1.88 1.23,0.6 -0.49,0.47 0.3,0.21 0.69,0.08 -0.14,0.74 0.73,0.21 0.42,0.39 -1.62,1.59 0.85,0.24 0.95,-1.08 -0.99,2.43 -0.49,0.32 -1.910004,0.96 0.07,1.08 1.900004,-1.28 0.28,0.79 0.65,-0.46 -0.33,-0.45 1.02,-0.55 -0.74,2.28 0.76,0.39 0.07,1.17 0.79,0.21 0.22,0.54 1.01,-0.3 0.39,0.68 0.84,0.25 0.43,1.41 1.87,1.37 0.04,-0.58 -2.69,-3.82 -0.11,-0.8 0.62,-0.28 0.93,-2.82 1.34,-0.18 1.14,-1.74 1.09,-0.52 1.26,0.14 -0.04,0.42 1.14,-0.1 0.13,0.64 2.18,-0.41 0.63,0.34 0.5,-0.83 1.35,-0.09 1.39,-0.94 1.04,0.05 1.74,-0.8 2.22,2.42 1.11,-0.35 1.55,0.72 0.75,-0.45 0.45,0.46 -0.53,0.41 0.18,0.51 1.06,0.1 0,0.49 0.67,0.33 0.85,-0.35 1.33,-0.41 1.38,1.08 0.68,-0.59 -1.12,-0.37 0.11,-0.29 0.89,-0.14 -0.3,-0.6 1.07,0 0.23,0.81 1.78,-0.51 4.39,1.73 1.26,-0.24 0.21,-0.5 2.32,0.81 1.82,-0.69 3.45,0.24 0.87,0.2 -0.32,0.89 0.37,0.18 1.09,-1.57 0.41,-1.05 0.27,-0.93 -0.54,-0.31 0.43,-0.85 -0.78,-1.08 -2.48,-0.62 0.05,-0.62 0.8,-1.16 2.57,-1.8 0.06,-2.41 2.13,-3.17 -0.09,-1.05 1.42,-1.5 0.24,-2.15 -1.03,-1.36 0.3,-1.81 -1.4,-1.24 -3.96,0.17 0.02,1.35 -0.69,1.39 0.38,1.17 -0.3,0.84 -1.07,-0.45 -0.47,1.66 -1.77,0.71 -1.01,1.78 -4.5,3.12 -3.17,1 -0.83,-0.2 -0.68,0.07 -1.55,0.16 -0.18,-0.51 -1.96,-0.97 -6.05,-0.49 -1.01,-0.93 -0.78,0.26 -0.27,-0.67 -3.59,-1.74 -0.38,-0.79 -1.2,-0.07 -0.37,-1.5 0.39,-0.2 -1.3,-0.69 -0.69,0.4 0.13,0.69 -0.81,0.7 -0.89,-0.34 0.02,0.83 -0.64,0.36 -0.45,-0.66 -0.68,0.09 0.09,-0.71 -1.34,0.32 -0.95,0.08 -1.31,-0.03 -0.81,-0.72 -0.36,0.54 -0.1,-0.58 0.93,-0.71 -0.59,-1.12 1.26,-0.3 1.43,-0.28 2.94,-0.18 0.21,-0.42 -1.34,-0.84 -0.81,0.48 -0.04,-0.67 -1.54,-1.25 0.07,-0.7 1.68,-1.97 -0.49,-0.28 0.99,-1.48 0.9,-0.63 0.58,0.4 1.84,-1.39 0.73,-0.81 -0.62,-0.04 -0.12,-1.02 1.63,-1.18 0.75,-0.37 0.39,0.57 0.83,-0.93 0.47,-0.89 -1.37,-0.29 0.04,-0.52 0.48,-0.16 1.13,-0.66 2.61,-0.6 2.05,-1.4 1.24,0.24 4.28,-2.12 0.28,-0.86 0.82,0 0.51,-1.33 4.45,-3 1.87,-2.05 2.13,-0.09 2.02,-3.34 0.81,-0.03 1,-2.21 1.54,1.17 5.96,-1.09 4.76,-4 -0.4,-0.66 0,0 1.91,-3.07 1.44,0.22 1.11,1.44 -1,2.77 -1.77,2 1.66,1.22 0.11,2.22 -2.33,1 -0.78,2.33 0.33,1.77 2.22,1.44 1.77,2.55 1.77,-0.55 3.21,-2.22 1.77,1.44 0.55,1.33 4.32,5.65 0.67,5.1 3.55,2.66 0.89,1.66 0.33,5.1 1.77,2 0.44,4.54 -2.22,3.66 -0.44,2.33 1.66,3.66 2.11,0.22 0.22,1.22 -1,0.89 0,1.66 2.22,2.77 0.22,2.88 4.32,2.22 2.33,0.44 4.84,1.9 z m -152.970004,15.71 0,1.12 1.39,-0.14 0.7,1.53 0,1.67 -1.11,1.25 0,1.25 -1.81,0.84 -1.25,-1.11 -1.11,0 -2.51,-2.09 0,-1.25 1.12,-0.84 0.28,-1.53 1.12,-0.7 3.18,0 z m 189.230004,11.78 -0.97,0.84 -4.88,-0.42 -0.84,-1.39 0.84,-0.84 0,-1.25 2.23,-1.67 0.42,-1.39 1.39,0 1.39,1.53 1.81,0.28 0.42,2.09 -1.25,0.84 -0.56,1.38 z" 
                fill="rgb(151, 144, 238)" 
                stroke="white" 
                stroke-width=".7px"
                title="Vesturland" 
                id="IS-3" 
            />
        </svg>