<svg xmlns="http://www.w3.org/2000/svg" viewBox="530.5208900000002 426.07769999999994 69.34999999999991 52.08000000000004" width="69.34999999999991" height="52.08000000000004">
            <path 
                d="m 587.98089,440.5677 0,0 -1.54,0.28 0.63,-2.51 1.05,-0.76 1.04,0.69 -1.18,2.3 z m 11.89,-0.97 0,0 -0.55,0.14 -3.62,-1.12 -1.6,-0.48 -1.74,-0.28 -0.21,-0.49 1.54,-0.21 1.46,-0.21 1.94,0.49 1.95,0.91 0.83,1.25 z m -32.22,-12.3 0,0 -2.02,3.6 -0.96,0.89 -0.05,-0.93 -0.3,-0.74 -0.56,-0.52 -0.79,-0.28 0.29,1.26 0.71,1.21 0.93,0.59 0.99,-0.59 0.58,1.36 0.79,6.93 0.47,1.43 1.09,2.38 -1.47,0.36 -0.62,1.57 -0.3,2.03 -0.54,1.73 -0.83,1.08 -1.24,1.24 -1.3,1.05 -1.04,0.44 -0.98,0.82 -2.85,5.56 -4.47,3.71 -0.79,0.4 -0.91,0.07 -5.21,2.14 -2.14,0.47 -1.31,1.2 -2.14,3.45 -0.69,0.76 -2.26,1.99 -0.87,0.41 -1.94,0.3 -1.53,0.82 -2.76,2.67 -0.11,-0.84 0.11,-3.27 0.39,-0.91 0.9,-0.25 3.38,0.27 0.72,-0.34 2.58,-2.3 0.07,-0.59 -0.91,-0.68 0,-0.57 1.68,-1.07 0.61,-0.25 -0.5,-0.15 -0.39,-0.17 -0.26,-0.34 -0.07,-0.61 1.72,-0.68 2.52,-1.54 1.98,-0.3 0.46,-0.31 0.93,-1.3 1.14,-0.8 -0.09,-1.17 -0.33,-1.28 0.02,-0.84 1.58,-0.64 2.34,-0.25 2.12,-0.52 0.92,-1.47 0.36,-2.24 0.98,-1.08 1.51,-0.43 1.88,-0.33 3.4,-1.27 2.35,-2.18 0.81,-3 -1.29,-3.74 -2.36,-1.75 -6.09,-0.1 -2.72,-1.37 -1.29,-1.24 0.15,-0.35 1.04,-1.67 0.56,-0.54 0.62,-0.36 0.68,-0.22 -0.55,-0.61 -1.21,-1.93 2.83,0.83 0.68,0.38 0.29,-1.03 0.63,-0.79 0.77,-0.37 0.7,0.29 0.52,-0.39 0.23,-0.13 0.37,-0.05 0,-0.7 -0.7,-0.2 -0.29,-0.19 -0.23,-0.33 -0.53,-0.6 4.42,0.05 2.11,-0.34 2.29,-0.93 0.09,0.36 0.04,0.3 0.13,0.29 0.33,0.27 z" 
                fill="rgb(151, 144, 238)" 
                stroke="white" 
                stroke-width=".7px"
                title="Acklins" 
                id="BS-AK" 
            />
        </svg>