<svg xmlns="http://www.w3.org/2000/svg" viewBox="219.66089000000002 138.8277 7.499999999999943 36.26000000000002" width="7.499999999999943" height="36.26000000000002">
            <path 
                d="m 225.20089,173.6277 0,0 -0.85,1 -1.04,0.46 -1.32,0 -0.76,-0.08 -1.57,-0.03 0.08,-0.18 0.5,-0.43 0.65,-0.3 0.52,-0.05 0.99,0.08 1.34,-0.09 1.02,-0.62 0.65,-0.87 0.24,0.04 -0.45,1.07 z m 1.82,-27.86 0,0 0.14,0.86 -1.05,-0.11 -1.08,-1.27 -1.37,-2.51 -1.75,-1.95 -0.58,-1.19 0.56,-0.77 1.09,0.21 0.83,0.96 3.21,5.77 z" 
                fill="rgb(151, 144, 238)" 
                stroke="white" 
                stroke-width=".7px"
                title="Berry Islands" 
                id="BS-BY" 
            />
        </svg>