<svg xmlns="http://www.w3.org/2000/svg" viewBox="0.20089000000001567 114.50769999999993 139.32999999999998 240.71000000000004" width="139.32999999999998" height="240.71000000000004">
            <path 
                d="m 81.96089,355.0677 0,0 -0.3,0.15 -1.63,-1.17 -0.16,-0.34 2.09,1.36 z m -3.33,-3.56 0,0 -0.14,0.05 -3.41,-3.87 0.49,0.3 2.17,2.31 0.89,1.21 z m -11.68,-15.14 0,0 0.11,0.65 -0.25,-0.39 0.14,-0.26 z m -61.46,-0.74 0,0 -0.17,0.46 -0.29,-0.15 0.3,-0.16 0.11,-0.1 0.01,-0.1 -0.12,-0.17 -0.57,-0.05 0.88,-0.11 -0.15,0.38 z m 56.53,-10.71 0,0 -0.24,0.2 -0.16,-0.14 0.4,-0.06 z m -61.25,-12.47 0,0 -0.57,0.48 0.4,-0.54 0.35,-0.3 -0.18,0.36 z m 8.5,-3.11 0,0 -0.58,0.21 0.32,-0.43 0.26,0.22 z m 1.25,-0.3 0,0 -0.55,0.33 0.12,-0.48 0.43,0.15 z m 5.24,-2.41 0,0 -0.03,0.52 -0.59,-0.15 0.62,-0.37 z m 2.84,0.27 0,0 -0.37,0.14 0.17,-0.67 0.2,0.53 z m 6.3,-2 0,0 0.01,0.07 0.04,-0.02 0.03,0.17 -0.11,0.05 -0.03,-0.05 -0.02,0 -0.08,-0.13 0.16,-0.09 z m 87.98,-113.57 0,0 -0.03,0.18 -0.1,-0.18 0.13,0 z m 0.21,-3.25 0,0 0.03,0.7 -0.25,-0.58 0.22,-0.12 z m -0.26,-0.78 0,0 -0.03,0.19 -0.08,-0.12 0.11,-0.07 z m -1.48,-3.27 0,0 0,0.09 -0.2,-0.09 0.2,0 z m 0.19,-0.79 0,0 -0.08,0 0,-0.06 0.11,-0.05 -0.03,0.11 z m -1.81,-4.92 0,0 0.13,0.49 -0.33,-0.3 0.2,-0.19 z m -0.83,-2.29 0,0 0,0.24 -0.24,-0.12 0.03,-0.29 0.21,0.17 z m -0.75,-1.92 0,0 0,0.15 -0.12,-0.11 0.07,-0.18 0.05,0.14 z m -0.21,-0.52 0,0 0,0.07 0.04,-0.02 0.03,0.17 -0.11,0.06 -0.04,-0.06 -0.01,0.01 -0.08,-0.14 0.17,-0.09 z m -4.32,-9.49 0,0 0,0.47 -0.06,-0.56 0.06,0.09 z m -0.45,-1.34 0,0 0.37,0.93 -0.18,-0.07 -0.38,-0.93 0.19,0.07 z m -1.11,-1.31 0,0 -0.04,0.36 -0.77,-1.08 0.04,-0.36 0.77,1.08 z m -1.67,-2.86 0,0 0.13,0.95 -0.49,-1.17 -0.28,-0.17 0.64,0.39 z m -1.1,-2.14 0,0 0.01,0.07 0.04,-0.02 0.02,0.16 -0.1,0.06 -0.04,-0.05 -0.01,0 -0.09,-0.14 0.17,-0.08 z m 0.58,-8.11 0,0 -0.04,0.08 -0.13,-0.03 0.08,-0.15 0.09,0.1 z m 5.05,-7.06 0,0 0.24,1.99 -0.23,0.79 -0.18,-0.41 -0.56,0.27 -1.06,0.34 -0.15,-0.87 0.6,-1.43 -0.33,-0.47 -1.16,1.11 -0.61,0.8 -0.46,0.73 -0.2,1.25 0.91,0.75 1.3,0.55 0.86,0.76 -0.32,0.5 -2.34,-0.37 -0.99,-0.02 -0.31,-0.42 0.26,-1.38 0.64,-1.83 1.15,-2.01 1.65,-1.4 0.95,-0.27 0.34,1.04 z m 34.61,-18.16 0,0 -0.05,0.09 -0.12,-0.07 0.07,-0.23 0.1,0.21 z m -0.66,-0.44 0,0 0.13,0.24 -0.16,-0.03 0.03,-0.21 z m -3.02,-1.44 0,0 0.01,0.07 0.03,-0.02 0.03,0.17 -0.11,0.06 -0.03,-0.06 -0.01,0.01 -0.09,-0.15 0.17,-0.08 z m -20.94,-0.57 0,0 -0.13,0.12 -0.01,-0.27 0.14,0.15 z m 10.3,-4.6 0,0 -0.08,0.09 -0.06,-0.31 0.14,0.22 z m -6.56,-0.12 0,0 -0.57,0.21 -0.15,-0.35 0.48,-0.07 0.24,0.21 z m 2,-1.29 0,0 -0.22,0.19 -0.05,-0.09 0.12,-0.25 0.15,0.15 z" 
                fill="rgb(151, 144, 238)" 
                stroke="white" 
                stroke-width=".7px"
                title="Bimini" 
                id="BS-BI" 
            />
        </svg>