<svg xmlns="http://www.w3.org/2000/svg" viewBox="199.60089000000002 246.8377000000001 39.28000000000003 46.739999999999895" width="39.28000000000003" height="46.739999999999895">
            <path 
                d="m 228.60089,284.9177 0,0 -0.52,0.47 -1.5,0.44 -0.71,0.01 -0.36,-0.31 -0.44,-0.17 -0.88,0.47 -0.6,0.89 -0.82,2.57 -0.88,1.09 -1.11,0.81 -4.36,2.2 -1.54,0.19 -0.56,-0.69 -0.44,-1.25 -0.17,-1.31 0.24,-0.88 0.79,-0.09 1.07,0.3 0.95,0.03 0.41,-0.89 0.85,-0.31 4.7,-3.24 0.41,-0.17 1.39,-0.82 0.89,-0.3 3.51,0 -0.32,0.96 z m -11.95,0.37 0,0 0.52,1.24 -1.24,-0.31 -2.17,0.32 -1.27,-0.01 -0.93,-0.39 -1,-0.77 -0.34,-0.83 1.04,-0.58 2.23,-0.43 2.22,-1.06 1.77,-0.49 0.91,1.28 -1.27,0.05 -0.53,0.79 0.06,1.19 z m 7.99,-8.19 0,0 -1.6,0.76 -1.4,-0.73 0,-1.3 1.24,-0.54 2.52,-0.3 0.59,0.05 -0.36,0.69 -0.99,1.37 z m 14.24,-2.37 0,0 -0.02,0.83 -0.66,0.52 -0.88,-0.29 -0.91,-0.56 -0.74,-0.31 -1.51,0.1 -0.9,0.36 -1.69,1.81 -1.64,1.13 -1.11,-0.25 -0.39,-0.93 0.49,-0.93 1.88,-0.95 1.6,-1.15 1.61,-0.73 1.72,-0.43 1.38,0.11 0.59,0.33 0.69,0.59 0.49,0.75 z m -28.73,7.31 0,0 -0.83,0.21 -0.82,-0.29 -0.73,-0.57 -0.55,-0.63 -0.97,-2.59 -0.55,-3.21 -0.89,-2.74 -2,-1.15 -2.63,-1.15 -0.58,-2.78 0.56,-6.41 2.96,-4.33 2.4,-4.61 3.59,-1.98 7.49,-1.98 9.29,-0.99 7.9,1.35 -0.51,1.29 -0.5,1.79 0.7,2.3 1.88,4.01 0.41,3.32 -0.79,2.41 -1.98,1.48 -3.23,0.5 -1.32,0.41 -0.89,0.95 -0.75,1.07 -0.87,0.78 -2.6,0.34 -0.68,0.81 1,2.06 -1.03,1.05 -3.12,2.16 -1.55,0.47 -2.98,0.03 -1.03,0.47 -3.37,2.47 -0.43,0.76 0.17,0.82 0.29,0.77 0.06,0.69 -0.52,0.64 z" 
                fill="rgb(151, 144, 238)" 
                stroke="white" 
                stroke-width=".7px"
                title="Central Andros" 
                id="BS-CS" 
            />
        </svg>