<svg xmlns="http://www.w3.org/2000/svg" viewBox="260.04089000000005 50.987699999999954 35.829999999999984 40.59000000000004" width="35.829999999999984" height="40.59000000000004">
            <path 
                d="m 271.71089,84.8177 0,0 0.29,0.28 0.52,-0.17 0.19,0.3 -0.04,0.44 0.05,0.35 0.31,0.48 0.1,0.59 -0.27,2.19 -0.23,0.3 -0.45,-0.33 0.42,-2.01 -0.63,-1.51 -0.34,-0.25 -0.45,-0.01 -1.01,0.71 -0.2,-0.33 0.51,-0.44 1.23,-0.59 z m 0.58,-4.99 0,0 -0.22,0.04 0.14,-0.45 1.16,-1.08 0.88,-0.78 0.67,-0.03 -0.2,0.66 -0.91,0.85 -1.52,0.79 z m 4.7,-6.32 0,0 0.13,0.36 -0.04,0.09 -0.16,-0.07 -0.32,-0.05 -0.07,0.15 0.19,0.16 0.02,0.07 -0.17,0.04 -0.09,1.13 0.21,1.11 -0.48,0.4 -0.33,0.04 -0.34,0.01 -0.75,-0.39 -0.36,-1.06 -0.42,-0.71 -0.5,-0.49 0.13,-0.4 0.37,0.05 0.41,-0.29 0.49,-0.51 0.69,-0.21 0.82,0.15 0.57,0.42 z m -16.76,-14.12 0,0 0.33,0.2 0.29,-0.14 0.17,0.4 -0.03,0.83 0.05,0.27 0.25,0.18 -0.26,0.16 -0.76,-0.3 -0.12,-0.51 0.14,-0.53 -0.25,-0.56 0.19,0 z m 14.91,-5.29 0,0 -1.15,0.36 -2.8,-0.1 1.26,2.59 1.77,2.1 2.23,1.4 5.24,0.97 2.35,1.17 4.12,3.01 3.14,1.74 1,0.88 0.78,1.24 0.64,1.76 0.01,1.55 -1.13,0.67 -0.27,0.67 -0.03,4.26 0.3,1.57 0.78,1.01 1.14,0.62 1.35,0.37 -1.1,2.22 -0.13,0.71 -17.05,6.71 -0.24,-1.23 -1.45,-1.44 2.71,-4.04 -0.1,-0.92 -0.75,-1.15 -0.13,-6.74 1.26,-0.03 0.93,-0.53 0.72,-0.92 0.59,-1.14 0.1,-0.48 -0.1,-1.83 0.24,-0.67 0.54,-0.4 0.61,-0.26 0.42,-0.28 0.87,-1.5 0.38,-1.73 -0.61,-1.41 -3.04,-0.81 -2.01,-0.93 -7.93,-1.18 -1.51,-0.94 -0.96,-1.63 -1.03,-2.35 0.39,-0.59 0.1,-0.78 -0.24,-0.83 -0.97,-1.28 -0.44,-1.02 -0.3,-0.47 -0.45,-0.16 4.06,-0.92 1.78,1.22 2.01,0.65 2.83,0.19 -0.73,1.05 z" 
                fill="rgb(151, 144, 238)" 
                stroke="white" 
                stroke-width=".7px"
                title="Central Abaco" 
                id="BS-CO" 
            />
        </svg>