<svg xmlns="http://www.w3.org/2000/svg" viewBox="521.3308900000001 391.6177 61.62999999999988 52.26999999999998" width="61.62999999999988" height="52.26999999999998">
            <path 
                d="m 523.97089,441.8577 0,0 -2.64,2.03 0.76,-3.98 2.49,-2.65 3.05,-2.36 2.42,-3.11 -0.44,2.61 -2.45,3.83 -3.19,3.63 z m 13.79,-18.37 0,0 0.31,0.09 1.04,-0.14 0.35,0.05 0.18,0.27 0.41,1.06 1.67,0.58 3.08,0.21 1.79,0.47 -0.64,-1.26 1.91,0.46 5.11,2.02 -6.38,5.82 -0.29,-0.76 -0.04,-0.2 -0.89,-0.37 0.07,-1.53 -1.57,0.29 -2.23,0.69 -6.32,-1.66 -0.88,-0.73 -1.41,-1.55 -0.47,1.09 -1.03,0.92 -1.01,0.5 -0.47,-0.21 0.49,-2.01 -0.01,-1.05 -0.75,-0.46 -5.57,-8.3 0.32,-0.3 0.14,-0.31 0.06,-0.31 0.11,-0.34 0.94,-0.06 1.43,-0.5 0.56,-0.09 1.02,0.3 2.43,1.61 0.86,0.23 1.86,0.16 0.84,0.24 2.4,1.97 0.26,0.79 0.1,1.64 0.22,0.68 z m 32.28,-31.87 0,0 6.44,0.63 4.81,-0.51 1.67,0.51 0,0.7 -7.63,1.54 -3.61,-0.08 -1.68,-2.79 z" 
                fill="rgb(151, 144, 238)" 
                stroke="white" 
                stroke-width=".7px"
                title="Crooked Island and Long Cay" 
                id="BS-CK" 
            />
        </svg>