<svg xmlns="http://www.w3.org/2000/svg" viewBox="171.03089 44.527699999999975 54.81 20.380000000000017" width="54.81" height="20.380000000000017">
            <path 
                d="m 224.77089,61.9377 0,0 0,0.42 -0.41,0.69 -0.32,1.01 -0.54,0.83 -0.55,0.02 -0.18,-0.27 -0.21,-0.37 -1.17,-1.44 -0.39,-0.81 -0.17,-0.82 0.45,-0.38 2.59,-0.49 0.39,0.45 -0.8,1 -0.18,0.28 0.64,-0.4 0.27,-0.28 0.46,-0.46 0.94,-0.76 0.25,0.28 -0.77,0.94 -0.3,0.56 z m -6.31,-11.7 0,0 1.53,3.39 0.06,1.84 -0.71,1.54 -1.59,0.68 -0.62,-0.24 -1.45,-1.25 -0.8,-0.47 -1.1,-0.2 -5.6,0.32 -5.1,1.19 -11.77,2.37 -4.77,0 -10.09,2.59 -2.98,-6.41 -2.44,-4.95 3.13,1.24 1.78,-0.47 3.95,0.98 4.37,0.77 2.82,0.1 1.15,-1.74 1.77,-0.89 2.68,1.21 1.63,0.3 3.05,-1.27 4.12,0.58 2.72,-0.84 2.72,-1.24 1.74,-0.24 5.44,-0.1 1.32,-0.56 0.81,-1.07 0.58,-1.24 0.76,-1.06 1.35,-0.57 0.2,1.78 -0.43,1.96 -0.23,1.97 z" 
                fill="rgb(151, 144, 238)" 
                stroke="white" 
                stroke-width=".7px"
                title="East Grand Bahama" 
                id="BS-EG" 
            />
        </svg>