<svg xmlns="http://www.w3.org/2000/svg" viewBox="379.83089000000007 337.2777000000001 43.97999999999996 26.269999999999925" width="43.97999999999996" height="26.269999999999925">
            <path 
                d="m 422.44089,361.4177 0,0 1.37,2.13 -3.08,-1.01 -3.61,-0.72 -3.03,-1.13 -1.39,-2.24 2.87,0.22 3.69,1.05 3.18,1.7 z m -37.46,-23.35 0,0 0.76,1.17 0.94,0.95 1.05,0.56 1.34,0.28 1.82,0.08 -0.29,0.39 -0.15,0.31 -0.23,0.26 -0.5,0.31 5.61,5.99 4.05,2.37 0.92,0.31 1.35,2.91 3.22,2.31 7.19,2.82 -1.23,1.31 -1.96,-0.53 -3.84,-2.12 -4.35,-0.34 -1.62,-0.84 0.71,-1.95 -1.59,-1.12 -1.62,-1.5 -1.48,-0.85 -1.21,0.86 -2.98,-3.18 -3.2,-2.4 -3.62,-1.19 -4.24,0.39 0,-0.64 2.53,-0.77 0.4,-0.21 -0.17,-0.84 -0.57,-0.85 0.09,-0.52 -0.91,-0.61 -0.71,-1.08 -0.17,-1.2 0.68,-1 1.05,0.21 0.74,-0.3 0.56,-0.41 0.52,-0.13 0.67,0.3 0.44,0.49 z" 
                fill="rgb(151, 144, 238)" 
                stroke="white" 
                stroke-width=".7px"
                title="Exuma" 
                id="BS-EX" 
            />
        </svg>