<svg xmlns="http://www.w3.org/2000/svg" viewBox="579.7908899999996 534.4277000000002 67.9200000000003 59.69999999999993" width="67.9200000000003" height="59.69999999999993">
            <path 
                d="m 637.13089,571.7077 0,0 -5.46,6.92 -2.76,8.05 -1.83,1.06 -6.37,2.72 -3.72,-0.58 -1.08,0.34 -0.82,0.41 -1.66,1.19 -0.58,0 0,-0.68 0.57,-0.5 -1.27,-1 -1.84,-0.22 -4.46,2.57 -2.95,-0.17 -5.07,1.21 -3.79,-1.54 -5.48,-0.49 -1.24,0.18 -1.38,0.73 -0.36,0.68 -0.5,0.82 -0.32,0.72 -0.55,-0.12 -1.01,-0.67 -1.09,-1.29 -0.25,-1 -0.21,-1.58 -0.07,-2.07 -1.51,-2.62 -0.28,-0.5 0.28,-0.65 2.55,-0.27 1.44,-0.92 0.54,-1.99 0.16,-1.74 -1.01,-1.24 -0.93,-1.01 0,-0.94 2.94,1.42 1.75,-0.66 1.47,-0.52 1.01,-0.8 2.68,-0.82 0.6,-1.79 1.9,-1.7 0.78,-1.71 1.88,0.44 1.7,-0.98 2.5,-0.02 0.88,-0.03 0.87,-0.43 0.88,-0.66 1.26,-1.81 0.71,-0.78 0.31,0.4 0.55,1.91 1.37,1.65 1.72,2.28 2.21,1.04 5.38,1.75 1.89,-1.19 1.89,-0.93 4.29,-1.08 1.99,-2.55 1.75,-3.59 4.21,-6.73 1.3,-1.78 1.65,-1.03 1.85,0.77 0.65,1.62 -0.1,2.12 -1.7,9.82 -0.71,2.56 z m -0.84,-24.77 0,0 -0.8,0.11 -0.17,-0.97 0.24,-1.14 -0.61,-1.77 -1.12,-1.78 -0.33,-1.88 0.86,-0.68 2,-0.66 1.61,-1 1.5,-1.83 1.29,-0.91 0.8,0.5 1.04,1.35 0.91,0.81 1.7,0.92 1.7,0.76 0.8,0.92 -0.37,1.82 -1.6,1.07 -3.2,0.37 -1.5,1.41 -0.97,0.22 -2.92,1.46 -0.86,0.9 z" 
                fill="rgb(151, 144, 238)" 
                stroke="white" 
                stroke-width=".7px"
                title="Inagua" 
                id="BS-IN" 
            />
        </svg>