<svg xmlns="http://www.w3.org/2000/svg" viewBox="438.4808899999997 337.27770000000004 44.60000000000031 77.02999999999992" width="44.60000000000031" height="77.02999999999992">
            <path 
                d="m 480.76089,403.1177 0,0 1.03,0.94 0.74,2.4 0.43,2.81 0.12,3.65 -0.17,0.99 -0.51,0.4 -1.06,-0.34 -0.49,-0.64 -0.63,-3.16 -0.31,0.22 -0.85,0.4 -0.56,-2.42 -2.45,-4.37 -0.89,-3.81 -0.81,-1.3 -2.89,-3.55 -0.89,-0.85 -1.07,-0.52 -9.8,-1.95 -2.13,-1.35 -1.1,-0.9 -6.11,-3.9 -1.35,-0.55 0.26,-0.91 0.4,-0.83 0.53,-0.76 0.68,-0.75 0.53,0 0.85,1.35 2.42,1.19 0.87,1.29 -2.2,-0.32 -0.72,-0.26 0.59,1.08 0.88,0.92 1.02,0.54 1.02,-0.06 1.05,0.7 1.63,1.39 0.78,0.45 0.96,0.24 1.39,0.12 0.87,-0.28 -0.57,-1 -4.89,-5.46 -0.63,-1.57 0.32,-2.51 0.72,-1.82 0.78,-1.48 0.46,-1.51 -0.07,-2.21 -0.56,-2.51 -0.97,-2.22 -1.27,-1.4 -0.31,0.43 -0.91,0.85 0.14,-2.2 -3.24,-2.76 0.17,-2.05 -1.15,-0.29 -1.05,-0.42 -0.54,-0.7 0.4,-1.14 -1.74,-1.39 -0.65,-1.48 -0.53,-4.2 -1.76,-4.47 -0.83,-0.44 -0.56,0.21 -0.61,0.46 -0.98,0.34 0.59,-4.5 -0.49,-1.35 -1.79,1.45 0.8,-1.24 0.36,-0.41 0.53,-0.32 -1.07,-0.34 -0.7,0.67 -0.69,1 -1.05,0.64 0,-0.7 0.87,-0.94 0.67,-1.09 0.36,-1.36 -0.08,-1.71 0.51,0.13 0.44,0.27 0.38,0.39 0.36,0.48 5.03,8.36 1.16,0.73 1.55,1.78 1.43,2.13 0.83,1.79 1.04,6.32 1.03,1.62 1.5,1.67 5.07,9.89 -0.13,0.96 0.67,0.86 0.23,2.02 0,4.12 0.7,4.49 1.45,2.8 2.43,1.71 7.3,2.76 3.15,2.46 5.55,6.25 -0.36,0.48 -0.48,0.91 -0.38,0.46 z" 
                fill="rgb(151, 144, 238)" 
                stroke="white" 
                stroke-width=".7px"
                title="Long Island" 
                id="BS-LI" 
            />
        </svg>