<svg xmlns="http://www.w3.org/2000/svg" viewBox="216.64089 279.41770000000014 26.630000000000024 30.29999999999984" width="26.630000000000024" height="30.29999999999984">
            <path 
                d="m 233.60089,304.5377 0,0 -3.22,2.54 -3.51,2.64 -1.25,-0.43 -0.05,-1.04 0.37,-1.29 0,-1.14 -0.98,-1.09 -1.18,-0.71 -0.67,-0.62 0.55,-0.79 0,-0.63 -1.68,-1.06 -5.34,-2.15 0.51,-0.71 0.6,-0.63 1.23,0.81 0.48,-0.26 0.07,-0.68 -0.02,-0.45 0.05,-0.88 -0.25,-0.43 -0.01,-0.42 0.74,-0.84 0.87,-0.46 2.32,-0.78 0.96,-0.74 0.34,-0.79 0.56,-2.31 0.32,-0.74 2.93,-0.21 1.11,-0.44 0.87,-0.75 0.3,-0.58 0.18,-0.73 0.51,-1.14 1.29,-1.09 3.54,-1.48 0.97,-1.28 2.39,-1.34 0.8,1.26 0.63,1.51 0.71,1.25 1.05,0.52 0.58,0.52 -0.82,1.11 -5.29,4.42 -2.1,1.17 -2.63,0.49 0,0.63 1.52,0.13 0.64,0.7 -0.38,0.79 -1.52,0.36 -0.33,0.37 0.89,0.85 2.11,1.35 1.36,-0.6 0.46,1.03 -0.22,1.7 -1.41,2.67 -0.28,1.21 -0.45,1 -1.22,0.68 z" 
                fill="rgb(151, 144, 238)" 
                stroke="white" 
                stroke-width=".7px"
                title="Mangrove Cay" 
                id="BS-MC" 
            />
        </svg>