<svg xmlns="http://www.w3.org/2000/svg" viewBox="625.81089 451.4877 35.97000000000014 15.870000000000061" width="35.97000000000014" height="15.870000000000061">
            <path 
                d="m 628.11089,460.3977 0,0 -1.48,-0.4 -0.82,-0.61 0.2,-0.88 1.57,-1.22 -0.49,-0.65 -0.04,-0.43 0.53,-0.93 0.4,-1.2 -0.15,-1 0.02,-0.84 0.9,-0.75 1.47,1.94 0.73,0.47 1.3,0.18 0,-0.2 0.49,-0.41 0.69,-0.44 0.59,-0.22 0.6,0.05 1.28,0.42 0.71,0.11 2.12,0.79 4.41,3.04 2.04,0.07 -0.42,-0.52 -0.75,-1.49 2.85,1.46 1.43,0.35 0.93,-0.48 1.34,1.04 1.32,0.57 1.54,0.23 1.99,0.06 0.58,0.25 0.66,0.63 1.13,1.36 0.82,0.59 1.68,0 0.74,0.33 0.76,1.7 -0.41,1.86 -1.1,1.51 -1.34,0.62 -1.53,-0.5 -3.98,-3.93 -1.74,-1.29 -1.37,-0.77 -1.5,-0.37 -2.17,-0.1 -0.97,0.11 -1.28,0.48 -0.68,0.1 -1.01,-0.2 -0.55,-0.46 -0.44,-0.45 -0.68,-0.21 -1.85,0.39 -3.39,1.79 -2.07,0.41 -0.91,-0.2 -0.57,-0.44 -0.43,-0.43 -0.46,-0.2 -3.24,-0.69 z" 
                fill="rgb(151, 144, 238)" 
                stroke="white" 
                stroke-width=".7px"
                title="Mayaguana" 
                id="BS-MG" 
            />
        </svg>