<svg xmlns="http://www.w3.org/2000/svg" viewBox="173.72088999999994 194.14769999999987 60.5599999999998 70.44000000000011" width="60.5599999999998" height="70.44000000000011">
            <path 
                d="m 233.79089,248.1877 0,0 -7.9,-1.35 -9.29,0.99 -7.49,1.98 -3.59,1.98 -2.4,4.61 -2.96,4.33 -1.55,1.21 -1.06,1.26 -1.3,0.98 -2.27,0.41 -1.71,-0.46 -10.72,-6.12 -5.13,-4.76 -1.63,-1.96 -1.07,-2.14 1.15,-0.28 1.78,-0.82 1.63,-0.99 0.71,-0.83 0.26,-1.31 0.63,0.12 0.8,0.63 0.7,0.21 0.92,-0.58 0.67,-0.7 0.15,-0.88 -0.63,-1.06 1.13,-1.63 1.37,0.05 1.16,1.25 0.49,1.97 -0.1,1.62 -0.32,1.42 -0.55,1.26 -0.78,1.2 -1.5,1.06 -0.26,0.23 0.17,0.92 0.42,0.83 0.62,0.34 2.31,-1.47 1.27,-0.37 0.7,-0.75 -0.22,-2.08 1.67,0.8 0.01,1.7 -0.45,1.98 0.26,1.66 1.42,0.87 0.81,-1.18 0.19,-2.08 -0.4,-1.82 0.82,0.37 0.89,0.53 0.77,0.24 0.45,-0.49 -0.06,-1.36 -0.63,-0.94 -0.86,-0.75 -0.74,-0.82 -0.11,-0.56 0.19,-1.43 -0.08,-0.58 -0.53,-0.71 -1.34,-1.23 -0.52,-0.69 -0.34,-1.32 -0.24,-1.49 -0.53,-0.88 -1.24,0.46 0.91,0.79 0.32,1.46 -0.05,3.61 -0.81,-1 -0.55,-1.54 -0.67,-1.41 -1.19,-0.62 -0.15,-0.71 0.25,-1.61 0.77,-2.83 1.31,-1.38 1.88,-1.56 1.31,-1.88 -0.35,-2.32 0.81,-0.58 2.24,-0.44 0.46,-0.57 0.26,-1.19 1.17,-2.3 0.27,-1.31 0.77,-0.09 -0.3,-0.74 -0.69,-0.99 -0.36,-0.83 0.18,-0.75 0.46,-1.31 0.66,-1.25 0.77,-0.56 0.67,-1.19 -0.19,-2.65 -0.8,-4.25 -0.92,-3 -1.79,-3.93 -1.15,-3.62 0.99,-2.09 1.45,0.08 3.11,0.6 1.3,0.56 1.04,0.99 0.59,1.06 0.71,0.85 1.42,0.34 1.31,-0.56 1.26,-1.04 1.31,-0.64 1.47,0.65 1.1,0.8 1.2,0.65 1.16,0.82 0.92,1.31 -1.27,1.48 -0.22,1.67 0.68,1.55 1.41,1.11 -1.08,3.74 -0.35,2.32 0.52,1.04 1.56,0.24 1.29,0.78 1.12,1.41 5.21,13 3.79,5.7 1.42,1.54 1.46,0.66 1.03,0.63 3.17,3.18 0.8,1.35 0.09,1.69 -0.14,2.31 -0.35,2.17 z" 
                fill="rgb(151, 144, 238)" 
                stroke="white" 
                stroke-width=".7px"
                title="North Andros" 
                id="BS-NS" 
            />
        </svg>