<svg xmlns="http://www.w3.org/2000/svg" viewBox="315.81089 160.2777 40.30000000000001 26.42999999999998" width="40.30000000000001" height="26.42999999999998">
            <path 
                d="m 356.11089,185.3577 0,0 -1.58,1.35 -1.18,-1.73 -2.17,-1.79 -3.25,-1.21 -6.86,-1.52 -3.53,-1.82 -5.17,-4.94 -3.37,-1.02 -1.87,-0.2 -3.54,-0.89 -1.64,-0.2 -1.84,0.48 -3.01,1.69 -1.29,-0.23 2.14,-2.24 1.2,-3.72 1.34,-7.06 -0.59,0 2.95,-0.03 1.33,0.18 0.99,0.5 -0.94,1.47 -0.41,1.46 -0.03,1.62 0.21,1.99 1.34,-1.78 0.96,0.89 0.77,1.83 0.78,1.01 1.66,0.46 10.87,8.44 3.15,1.8 3.97,0.95 3.97,0.17 1.42,0.39 1.36,1.09 1.86,2.61 z" 
                fill="rgb(151, 144, 238)" 
                stroke="white" 
                stroke-width=".7px"
                title="North Eleuthera" 
                id="BS-NE" 
            />
        </svg>