<svg xmlns="http://www.w3.org/2000/svg" viewBox="396.17089 449.60769999999997 11.29000000000002 28.21999999999997" width="11.29000000000002" height="28.21999999999997">
            <path 
                d="m 406.83089,475.2777 0,0 0.33,0.63 0.3,1.19 -0.62,0.7 -1.07,0.03 -0.71,-0.76 -0.5,-1.24 -0.1,-0.73 0.4,-0.11 0.51,0.17 0.52,0.38 -0.09,-0.57 -0.47,-1.56 0.28,-0.18 0.41,0.61 0.81,1.44 z m -2.05,-3.09 0,0 -0.32,0.11 -0.32,-0.24 0.13,-2.39 0.37,0.17 0.23,1.55 -0.09,0.8 z m -1.22,-7.05 0,0 -0.03,0.82 -0.54,-0.35 0.16,-0.68 -0.14,-0.7 0.55,0.91 z m -3.64,-3.8 0,0 -0.24,0.52 -0.66,-0.8 -0.6,-1.4 -0.29,-1.33 0.34,-0.25 0.51,0.97 0.17,0.59 0.33,0.54 0.44,1.16 z m -2.81,-10.04 0,0 -0.57,0.05 -0.37,-0.62 0.03,-0.67 0.21,-0.45 0.39,0.31 0.32,0.75 -0.01,0.63 z" 
                fill="rgb(151, 144, 238)" 
                stroke="white" 
                stroke-width=".7px"
                title="Ragged Island" 
                id="BS-RI" 
            />
        </svg>