<svg xmlns="http://www.w3.org/2000/svg" viewBox="458.10089000000005 322.2077 29.669999999999902 18.349999999999966" width="29.669999999999902" height="18.349999999999966">
            <path 
                d="m 486.91089,337.4477 0,0 -0.55,1.2 -0.86,0.68 -1.81,-0.09 0,0.59 0.53,0.71 -1.55,0.02 -2.05,-0.66 -1.03,-1.35 -1.55,0.71 -2.83,0.03 -1.52,0.54 -0.32,-2.14 0.58,-1.2 1.33,-0.64 1.97,-0.49 4.31,-1.28 3.2,0.04 1.09,0.48 1.92,1.4 -0.86,1.45 z m -27.71,-12.59 0,0 -0.57,0.33 -0.53,-1.49 0.54,-1.35 0.71,-0.14 0.25,0.43 0.03,1.02 -0.43,1.2 z" 
                fill="rgb(151, 144, 238)" 
                stroke="white" 
                stroke-width=".7px"
                title="Rum Cay" 
                id="BS-RC" 
            />
        </svg>