<svg xmlns="http://www.w3.org/2000/svg" viewBox="506.55088999999987 294.3577 11.220000000000141 17.859999999999957" width="11.220000000000141" height="17.859999999999957">
            <path 
                d="m 514.21089,305.8177 0,0 -0.71,1.1 -1.23,3.83 -0.09,0.83 -5.63,0.64 0,-0.64 1.45,-1.85 0.98,-2.9 0.36,-3.26 -0.4,-2.87 0.04,-2.26 0.94,-1.36 1.49,-0.84 1.68,-0.67 0.47,-0.39 0.47,-0.52 0.51,-0.3 0.57,0.24 1.28,2.31 0.21,0.23 0.17,0.98 0.78,1.32 0.22,0.61 -0.05,0.86 -0.47,1.85 -0.12,0.84 -3.51,6.12 -0.25,-1.08 0.15,-0.93 0.69,-1.89 z" 
                fill="rgb(151, 144, 238)" 
                stroke="white" 
                stroke-width=".7px"
                title="San Salvador" 
                id="BS-SS" 
            />
        </svg>