<svg xmlns="http://www.w3.org/2000/svg" viewBox="225.84089 287.1077 57.23000000000002 51.36999999999995" width="57.23000000000002" height="51.36999999999995">
            <path 
                d="m 235.59089,338.2877 0,0 -0.48,0.19 -0.28,-0.26 -0.5,-0.27 0.67,-0.22 -0.3,-0.28 0.06,-0.55 1.13,-0.17 0.5,0.46 -0.3,0.54 -0.5,0.56 z m -8.12,-8.09 0,0 -0.47,0.58 -0.4,-0.04 -0.76,-0.48 0.3,-0.59 1.33,0.53 z m 55.6,-26.15 0,0 -0.47,0.99 -0.51,-0.18 -0.6,-0.66 -0.38,-0.18 0.58,-0.26 0.98,-0.17 0.4,0.46 z m -31.92,0.63 0,0 -0.44,1.8 -0.1,0.97 0.28,0.52 1.2,1.78 0.28,0.89 -0.28,1.11 -0.6,0.75 -0.6,0.46 -0.28,0.28 -0.88,0.41 -1.87,0.04 -1.67,0.7 -0.31,2.37 3,-2.14 1.77,-0.81 1.72,0.33 0.72,1.33 -0.52,3.55 0.44,1.57 -1.46,3.34 -1.15,0.59 -2.12,-0.67 0.28,1.18 1.55,1.28 0.5,1.38 -0.12,1.26 -0.49,1.38 -0.62,1.17 -0.52,0.66 -2.69,0.94 -2.05,-0.88 -1.86,-1.39 -2.17,-0.59 1.47,1.8 -0.03,0.82 -0.8,1.22 -0.64,0 -1.43,-1.99 -2.54,-0.69 -5.44,0.18 2.92,-1.34 -0.43,-1.6 1.83,0.05 4.5,1.55 0.52,-1.69 0.87,-1.2 1.19,-0.88 4.61,-2.2 1.29,-1.02 0,-1.06 -1.53,-0.59 -1.51,0.87 -1.45,1.3 -1.38,0.66 -5,3.26 0.33,0.26 0.25,0.32 -2.05,-0.24 -2.06,-2.96 -1.74,-0.64 5.63,-2.05 2.85,-1.72 0.41,-1.99 -1.23,1.33 -1.68,0.54 -4.54,0.05 -1.22,0.25 -1.05,0.45 -0.99,0.28 -1.1,-0.27 -0.7,-0.76 -0.52,-1.12 -1.25,-6.3 -0.11,-2.37 0.53,-1.03 3.51,-2.64 3.22,-2.54 1.59,0.45 1.36,-1.23 2.66,-5.44 1.79,-2.04 0.84,-1.36 0.34,-1.84 0.1,-2.37 0.31,-2.23 1.01,-1.37 1.7,0.27 1.27,1.88 1.04,2.35 0.96,1.68 1.09,1.34 0.61,1.42 0.28,1.65 0.16,3.1 0.44,1.98 0.1,0.82 -0.1,1.08 z" 
                fill="rgb(151, 144, 238)" 
                stroke="white" 
                stroke-width=".7px"
                title="South Andros" 
                id="BS-SA" 
            />
        </svg>