<svg xmlns="http://www.w3.org/2000/svg" viewBox="354.2008899999999 214.7677000000001 17.08000000000004 32.44999999999993" width="17.08000000000004" height="32.44999999999993">
            <path 
                d="m 369.78089,215.4677 0,0 -0.3,1.82 0.38,1.68 1.09,2.43 0.33,1.56 -0.33,4.5 -0.45,1.91 -2.02,3.25 -0.45,1.31 -0.22,6.61 0.3,3.63 1.09,3.05 -2.85,-1.26 -1.48,-3.01 -0.93,-3.46 -1.18,-2.63 -1.42,-1.03 -3.74,-1.53 -1.59,-1.01 -1.81,-2.1 0.22,-0.87 1.4,-0.1 8.4,1.43 0.57,-0.25 0.4,-0.61 0.35,-0.73 0.44,-0.64 1.41,-1.42 0.41,-0.84 0.23,-1.31 -0.07,-2.17 -0.7,0.49 -0.99,1.51 -0.9,0.87 -0.52,-1.07 0.1,-2.42 0.74,-4.31 0.48,-1.58 0.24,-0.38 0.5,-0.62 1.51,-1.4 1.36,0.7 z" 
                fill="rgb(151, 144, 238)" 
                stroke="white" 
                stroke-width=".7px"
                title="South Eleuthera" 
                id="BS-SE" 
            />
        </svg>