<svg xmlns="http://www.w3.org/2000/svg" viewBox="250.33089 84.8677 45.749999999999886 44.86999999999999" width="45.749999999999886" height="44.86999999999999">
            <path 
                d="m 252.34089,110.1377 0,0 -0.54,1.13 -0.28,-0.04 -0.31,-0.49 -0.48,-0.36 -0.4,-0.47 0.01,-0.25 0.7,-0.44 0.37,-0.67 0.36,0.01 0.57,1.58 z m 43.59,-21.1 0,0 -0.7,0.79 -0.69,0.57 -0.71,0.35 -1.53,0.32 0.18,-0.4 0.41,-1.43 -2.78,0.33 -2.64,1.5 -2.35,2.12 -1.91,2.18 -0.81,2.37 -0.75,7.29 0.13,1.81 -0.9,5.37 0.43,7.68 -0.31,6.87 -3.08,2.98 -2.25,-1.19 -1.99,-2.71 -1.41,-2.98 -0.54,-1.97 -1.38,-1.24 -6.26,-1.38 -1.72,-2.31 1.38,-0.01 1.56,-0.54 1.27,-0.99 0.96,-2.36 1.05,-0.29 1.25,-0.15 1.04,-0.52 3.13,-3.59 2.01,-1.69 2.19,-0.94 -0.55,-0.78 -0.35,-0.79 -0.17,-0.9 -0.04,-1.14 -0.35,-0.66 -0.72,-0.57 -0.65,-0.7 -0.14,-1.04 0.53,-1.07 0.8,-0.82 0.74,-0.91 0.32,-1.4 -0.04,-2.52 17.05,-6.71 0.19,1.04 0.42,0.66 0.43,0.46 0.19,0.49 0.09,0.77 0.12,0.37 -0.15,0.38 z" 
                fill="rgb(151, 144, 238)" 
                stroke="white" 
                stroke-width=".7px"
                title="South Abaco" 
                id="BS-SO" 
            />
        </svg>