<svg xmlns="http://www.w3.org/2000/svg" viewBox="126.18089000000002 41.25770000000001 50.270000000000024 30.540000000000013" width="50.270000000000024" height="30.540000000000013">
            <path 
                d="m 171.34089,45.4777 0,0 -0.21,0.28 -0.03,0.15 0.09,0.31 -0.24,0.14 -0.37,0.11 -0.59,0.01 -0.65,-0.74 -0.12,-0.76 0.34,0.03 0.67,0.69 0.11,-0.08 0.09,-0.42 0.23,-0.43 0.33,-0.22 0.28,0.34 0.07,0.59 z m -2.8,18.55 0,0 -1.54,0.26 -1.6,0.51 -2.6,2.25 -1.68,0.51 -0.69,0.46 -1.26,-1.42 -1.98,0 -1.78,2.45 0.88,1.51 -0.8,0.68 -1.79,0.16 -0.81,0.4 -3.5,-0.33 -3.41,-1.22 -2.08,-2.06 -3.73,-2.3 -9,-9.31 -4.08,-3.39 -0.91,-1.45 0.92,-0.02 0.75,0.2 0.64,0.44 0.56,0.69 11.02,7.01 2.55,3.52 1.69,-0.32 1.36,-0.21 2.76,1.2 2.05,0.03 1.93,-0.91 1.75,-1.24 1.18,-0.54 1.01,-0.63 0.66,-0.44 0.32,-0.78 1.09,-0.88 0.22,-1.19 1.25,-1.06 1.05,-2.16 1.59,-1.06 -0.2,-1.02 -2.06,-1.29 -3.56,-0.65 0.59,-1.25 2.33,-2.68 0.51,-1.18 0.66,-4.06 1.63,1.18 1.51,1.89 1.1,2.07 0.44,1.71 1.62,0.98 3.93,1.55 2.44,4.95 2.98,6.41 -7.91,2.03 z" 
                fill="rgb(151, 144, 238)" 
                stroke="white" 
                stroke-width=".7px"
                title="West Grand Bahama" 
                id="BS-WG" 
            />
        </svg>