<svg xmlns="http://www.w3.org/2000/svg" viewBox="256.8700000000001 219.65668 47.57999999999993 62.39577999999989" width="47.57999999999993" height="62.39577999999989">
            <path 
                d="m 290.31,219.65668 4.31,2.93533 1.67,7.30815 4.1,-0.33174 2.4,1.81951 1.66,10.67573 0,0 -2.26,1.31687 2.05,5.89075 -0.69,2.16129 -8.15,5.2876 -0.26,6.28279 -5.78,12.24393 0,0 0.03,2.59353 -1.27,1.71898 -2.86,0.191 0,0 -4.31,0.0302 -3.06,2.27186 -4.5,-0.20105 -1.99,-2.53322 1.04,-0.37194 0.07,-4.32257 -4.96,-4.17178 -4.09,0.22115 -1.39,-3.78978 2.9,-5.53891 0.49,-3.47816 -4.37,-1.78934 -3.1,1.42745 -1.12,-1.57824 1.48,-3.28715 1.08,-7.19758 2.36,-4.87545 0,0 3.4,-7.278 7.87,-2.71416 2.71,-4.42309 4.04,-1.42746 3.63,-3.6792 5.56,0.71372 z" 
                fill="rgb(151, 144, 238)" 
                stroke="white" 
                stroke-width=".7px"
                title="Abra" 
                id="PH-ABR" 
            />
        </svg>