<svg xmlns="http://www.w3.org/2000/svg" viewBox="600.82 856.18961 40.77999999999986 58.64608999999996" width="40.77999999999986" height="58.64608999999996">
            <path 
                d="m 618.78,857.57685 2.66,-1.2063 5.23,-0.18094 9.07,1.67876 3.9,3.27711 0.53,4.88551 0,0 0.54,6.56426 0,0 0.89,5.24739 -1.51,6.6648 -3.69,6.44363 -1.87,5.59924 0.09,3.19668 -2.3,4.13157 2.54,8.11235 -12.9,-0.191 -4.31,2.98559 -14.17,0.0502 0,0 -0.78,-14.35494 1.74,-1.39729 -2.64,-3.60884 1.24,-2.47291 -2.22,-9.93184 0,0 1.02,0.40209 1.29,4.14162 3.04,2.82474 3.77,0.11058 0.04,1.58829 0.62,-1.53803 6.32,1.05551 6.7,-2.95542 -0.61,-0.89467 1.72,-3.24695 -1.15,-5.11671 0.8,-3.83 -1.85,-3.71941 0.03,-3.70937 -3.18,-6.53411 z" 
                fill="rgb(151, 144, 238)" 
                stroke="white" 
                stroke-width=".7px"
                title="Agusan del Norte" 
                id="PH-AGN" 
            />
        </svg>