<svg xmlns="http://www.w3.org/2000/svg" viewBox="603.4799999999998 872.59525 81.1400000000001 95.31757000000027" width="81.1400000000001" height="95.31757000000027">
            <path 
                d="m 640.71,872.59525 5.76,6.6849 3.16,5.51881 1.45,14.27452 3.57,4.11146 1.64,5.72992 3.11,4.72466 0.26,0.84441 -1.71,1.16608 0.38,4.6744 0.16,1.07562 1.8,0.14073 1.25,7.63989 4.81,-0.46242 -3.51,3.92047 2.79,2.73427 5.89,0.72378 5.78,-0.38199 1.48,-2.13113 -0.86,4.65429 1.69,2.13113 -0.02,1.74913 -1.38,0.0302 -3.67,4.20194 -1.04,3.76967 1.88,0.26137 4.43,4.2321 4.81,-0.50263 -4.35,4.26225 3.31,1.0153 0.39,3.69932 0,0 -13.67,0.0703 0,0 -6.85,2.99564 -1.65,1.75918 -3.46,-2.02054 -1.25,-2.6036 -22.18,0 0,0 -21.31,0.92483 0,0 -0.46,-2.93532 0.91,-3.79984 -1.42,-1.63856 0.28,-3.85009 -1.42,-3.07606 0.79,-3.08611 -1.39,-1.02535 -0.98,-3.62895 -3.85,-2.6639 -1.21,-2.48296 -1.23,-15.48082 0,0 -0.14,-5.70981 0,0 14.17,-0.0502 4.31,-2.98559 12.9,0.191 -2.54,-8.11235 2.3,-4.13157 -0.09,-3.19668 1.87,-5.59924 3.69,-6.44363 1.51,-6.6648 z" 
                fill="rgb(151, 144, 238)" 
                stroke="white" 
                stroke-width=".7px"
                title="Agusan del Sur" 
                id="PH-AGS" 
            />
        </svg>