<svg xmlns="http://www.w3.org/2000/svg" viewBox="356.76999999999987 668.7109 53.139999999999986 50.78514000000018" width="53.139999999999986" height="50.78514000000018">
            <path 
                d="m 365.12,673.29483 8.84,7.36847 6.05,0.86451 2.48,1.37719 1.78,-0.47246 1.21,2.01049 1.41,-0.6132 3.71,4.45324 2.28,-0.14073 1.67,-0.10053 -0.6,1.96024 2.02,-1.07561 2.52,4.31251 5.58,4.59398 -0.96,0.75394 -4.86,-4.91566 -1.98,0.78409 2.34,2.01049 0.12,2.32212 1.59,0.33174 0.44,-1.52798 0.87,2.12108 -1.27,0.10052 0.62,1.71897 2.11,0.0603 1.06,-3.01575 3.06,1.19625 2,0.92483 -2.04,0.67351 2.74,0.45237 0,0 -0.01,1.23644 -4.69,4.03106 -8.43,0.0905 -1.79,3.25701 -1.45,-0.35184 -1.39,4.08131 -2.07,2.28191 -2,1.58829 -5.43,1.45761 0,0 -1.29,-2.23165 0.61,-3.18664 -1.59,-0.91477 -0.25,-3.13638 -2.21,-2.42264 1.44,-4.41304 -1.05,-1.84965 0.71,-2.7946 -0.64,-3.61889 2.71,-5.50876 -1.21,-2.875 -12.7,-5.16697 -3.86,0.50262 -3.23,3.05595 -3.32,1.29677 0,0 2.67,-3.92047 0.31,-6.20238 4.39,-1.2666 0.98,-1.54809 z m -2.58,-4.58393 0.47,2.53323 1.35,0.77404 -0.55,1.12588 -2.57,-3.62895 1.3,-0.8042 z" 
                fill="rgb(151, 144, 238)" 
                stroke="white" 
                stroke-width=".7px"
                title="Aklan" 
                id="PH-AKL" 
            />
        </svg>