<svg xmlns="http://www.w3.org/2000/svg" viewBox="460.7700000000001 555.3994200000001 68.28999999999996 40.05906999999979" width="68.28999999999996" height="40.05906999999979">
            <path 
                d="m 522.69,576.8011 5.4,1.8195 0.97,2.69406 -8.12,-0.86451 -3.41,-1.47772 5.16,-2.17133 z m -11.07,-3.31732 0.59,1.51793 1.34,-2.0306 1.87,2.12108 1.13,-1.52799 3.96,1.55814 -2.4,0.51268 0.37,1.05551 -3.51,1.58829 -2.16,-0.72378 -0.06,-0.90473 -3.01,0.34179 -2.61,-2.25175 0.48,-1.07562 -0.95,-0.64336 4.45,0.48252 0.51,-0.0201 z m -8.88,-5.45849 5.5,1.95018 -3.27,3.48821 1.84,3.10621 -1.92,1.08568 -0.87,0.0905 -0.17,-2.28192 -0.73,-0.0603 -1.52,-1.37719 1.68,-3.14642 -1.6,-1.53803 1.06,-1.31688 z m -6.4,-3.99083 3,0.97508 1.45,1.88987 1.78,-0.0302 -1.21,1.88987 -2.55,-1.50787 -2.47,-3.21679 z m -11.71,-8.05204 1.44,1.76923 3.81,1.02536 5.03,11.63072 4.9,2.4528 1.3,1.6084 2.54,1.98034 -0.4,1.23645 -4.35,-1.00525 -1.95,0.73384 -1.48,4.44319 0.18,1.75918 2.11,2.27186 -0.72,1.84966 -1.78,-0.0101 1.01,1.09571 -0.93,0.69363 3.66,1.30682 2.41,-2.64381 0.21,-2.02055 1.26,0.10053 0.47,-1.95018 1.17,-0.57299 4.43,1.86976 0,0 -2.56,5.75002 -3.41,0.0302 -6.46,4.07125 -2.53,-2.84485 -4.61,-0.15079 -3.01,1.16609 -3.97,-1.53803 -6.79,3.13637 0,0 -2.1,-2.67396 -3.26,-1.57823 -6.17,2.99564 -1.71,-3.60885 -1.15,-0.0502 1.01,-2.12107 -0.55,-4.76488 1.59,-1.44755 -0.43,-1.51793 1.67,-0.74388 -3.74,-4.82519 0,0 8.09,-5.87064 1.19,0.74388 -0.05,-1.07562 2.18,-1.2264 1.86,-0.58305 2.08,0.74389 6.84,-2.77449 0.29,-3.26705 -3.08,-4.75482 0.79,-1.10578 3.41,-0.32168 0,0 0.26,0.58305 z" 
                fill="rgb(151, 144, 238)" 
                stroke="white" 
                stroke-width=".7px"
                title="Albay" 
                id="PH-ALB" 
            />
        </svg>