<svg xmlns="http://www.w3.org/2000/svg" viewBox="320.52000000000004 659.99541 71.11999999999995 126.45011" width="71.11999999999995" height="126.45011">
            <path 
                d="m 356.78,686.25248 3.32,-1.29677 3.23,-3.05595 3.86,-0.50263 12.7,5.16698 1.21,2.875 -2.71,5.50876 0.64,3.61889 -0.71,2.79459 1.05,1.84966 -1.44,4.41303 2.21,2.42265 0.25,3.13637 1.59,0.91478 -0.61,3.18663 1.29,2.23166 0,0 0.12,7.23778 0.62,-0.41215 0.39,3.50832 1.69,2.39248 0,0 5.91,8.23298 -0.52,5.23734 0.77,1.74913 -2.08,0.49257 -1.15,2.60359 -1.31,-0.20104 -4.39,4.52361 -1.85,5.75001 -7.39,4.87546 -2.89,4.8855 -0.89,3.64905 -0.76,5.93097 0.2,1.4375 1.17,0.54283 0,0 -5.02,4.49346 -3.59,-2.98558 0.19,-4.28236 3.2,-3.4279 1.46,-8.56471 -0.93,-3.57868 -3.06,-3.53847 1.95,-3.38769 2.46,-8.89644 5.07,-7.5293 -1.53,-11.70108 1.43,-2.56339 -0.06,-2.75437 -1.79,-2.81471 2.26,-3.14642 -0.44,-9.24828 1.65,-0.76399 0.79,-1.74913 -0.54,-3.00569 1.73,-7.71025 -0.16,-4.36277 -2.63,-2.72422 -1.39,0.76398 -9.19,-2.60359 -2.42,0.83436 -2.96,-0.45236 z m -29.7,-7.77057 5.69,0.42221 1.31,1.22639 -1.15,1.40735 -5.68,-1.19624 -1.61,0.5931 1.44,-2.45281 z m 8.73,-6.87589 1.67,1.82954 0.38,2.22161 -2.17,1.07562 -0.95,-0.87458 -0.17,-3.448 1.24,-0.80419 z m -14.56,-11.61061 2.36,0.35184 1.72,5.2876 1.26,0.77403 -2.79,3.50832 -2.4,-5.24739 1.86,-1.15604 -2.74,-1.31687 0.73,-2.20149 z" 
                fill="rgb(151, 144, 238)" 
                stroke="white" 
                stroke-width=".7px"
                title="Antique" 
                id="PH-ANT" 
            />
        </svg>