<svg xmlns="http://www.w3.org/2000/svg" viewBox="315.98999999999995 329.66095000000007 71.89999999999998 115.49291" width="71.89999999999998" height="115.49291">
            <path 
                d="m 386.99,330.62599 -1.17,0.72377 -1.09,3.69931 -2.11,1.76924 1.72,3.43794 1.19,-3.03584 0.29,0.69362 -1.36,4.85534 -2.4,1.61845 -0.87,2.3925 1.14,1.00524 3.08,-1.67876 -2.28,3.31732 -0.08,2.08086 -9.82,9.12765 0.18,2.20149 -2.96,3.08611 -3.1,1.57824 2.75,-5.6696 4.77,-4.81513 0.15,-2.72422 2.46,-1.61845 0.16,-2.70412 -2.72,-0.191 -1.63,1.67877 -0.54,1.88986 1.06,2.02055 -4.33,0.77404 -5.99,4.08131 -4.76,0.31162 -6.6,4.49346 -1.43,-1.12587 -1.34,0.62325 -5.57,4.80508 -1.02,2.64381 -1.73,0.32168 -0.03,1.09571 -5.19,3.97073 -0.12,8.36366 1.34,2.69407 2.03,-0.82431 2.75,1.0153 0.16,3.38768 -2.12,-0.2111 0.11,1.71898 0.15,0.97509 0.2,1.73908 -2.39,1.17614 -3.87,6.57432 -2.69,1.61845 -1.32,8.03193 -1.52,0.48252 -1.64,3.50831 -1.99,-1.56818 -1.44,1.4777 -0.79,3.95063 3.33,7.30815 0,0 -1.32,1.10577 0.22,1.56819 -1.66,0.54283 1.33,1.29678 -0.12,2.19144 -4.1,6.17221 0.7,1.85971 -0.69,1.63856 0,0 -2.19,-15.17924 0,0 4.68,-21.36151 -6.86,-21.60278 0,0 13.5,-11.00746 0,0 26.69,-23.49264 16.67,-19.6526 4.84,-3.19668 0,0 10.2,0.49257 0,0 -0.9,0.47247 z" 
                fill="rgb(151, 144, 238)" 
                stroke="white" 
                stroke-width=".7px"
                title="Aurora" 
                id="PH-AUR" 
            />
        </svg>