<svg xmlns="http://www.w3.org/2000/svg" viewBox="336.05 1054.1329 55.89999999999998 34.429800000000114" width="55.89999999999998" height="34.429800000000114">
            <path 
                d="m 367.35,1086.7633 0.06,1.6386 -0.73,0.1608 -1.65,-0.6836 0.4,-1.4777 1.92,0.3619 z m -30.86,-28.9009 -0.44,0.8344 2.17,1.2163 0.83,3.7797 1.63,1.7392 0.25,-2.5936 0.55,-1.1963 -3.18,-2.2719 -1.81,-1.5078 z m 32.87,27.3026 1.71,0.1205 -0.87,-1.6385 -0.84,1.518 z m -2.28,-0.6837 -0.74,-1.6586 -1.9,0.8143 0.64,1.1359 2,-0.2916 z m 23.31,-22.3164 -2.96,0.201 -2.24,-1.719 -6.62,-0.2814 -0.54,-3.4279 -2.86,0.2614 -2.48,-2.7946 -1.96,0.6534 -1.16,-0.2714 -2.04,0.7036 -4.86,4.7448 -2.86,1.0957 -3.75,-1.7189 -2.16,2.1512 -0.71,3.2469 2.2,1.6989 1.93,-0.3619 2.06,2.1312 -1.06,1.166 0.39,2.8449 2.36,1.548 1.2,2.6539 2.8,1.1962 -0.13,1.709 5.98,-0.3519 10.4,-2.9956 1.05,-1.0354 -0.34,-3.9507 1.55,-4.3426 1.88,-1.0555 4.76,0.3216 1.73,-2.4728 -1.56,-1.5481 z m -22.84,-7.3785 -0.89,-0.6535 -2.14,0.8947 -0.69,2.3322 1.65,-0.3418 2.07,-2.2316 z" 
                fill="rgb(151, 144, 238)" 
                stroke="white" 
                stroke-width=".7px"
                title="Basilan" 
                id="PH-BAS" 
            />
        </svg>