<svg xmlns="http://www.w3.org/2000/svg" viewBox="264.1400000000001 502.60363 65.4799999999999 52.61480999999986" width="65.4799999999999" height="52.61480999999986">
            <path 
                d="m 301.74,551.66991 1.03,2.92527 -1.35,0.62326 -2.8,-3.37763 1.37,0.62325 1.75,-0.79415 z m -18.53,-8.60492 2.06,1.77928 5.04,0.53279 1.39,1.42745 -3.02,1.07562 -2.32,-0.74389 -2.34,-1.20629 -0.81,-2.86496 z m -17.03,-40.46123 1.88,0.66347 0,0 4.36,1.4375 -0.69,1.80945 2.47,2.69407 4.28,0.24126 5.28,3.70936 0.48,2.07081 2.88,-1.8396 1.15,0.57299 4.13,-1.14599 6.83,-3.86014 -0.58,-0.69363 0,0 4.71,-0.18094 6.29,1.8396 1.59,7.81077 1.92,2.92528 1.33,-0.22115 0.04,2.01049 0,0 0.31,1.85971 -1.54,-0.0503 -0.48,1.19624 2.53,3.53848 7,0.53278 1.09,1.52798 5.25,2.20149 0,0 -1.76,4.36278 1.25,3.07606 -0.46,1.82954 1.16,-0.32167 0.74,1.20629 -3.37,2.19144 -2.83,-0.99519 -7.13,5.31775 -1.84,-0.0302 -1.95,-2.25175 -2.23,-0.0101 -1.38,-1.27667 -7.59,1.92002 -3.09,-1.09572 1.23,-2.44275 0.57,-4.0612 -0.72,-1.23646 -1.1,-2.0708 -2.56,-1.26661 -2.68,0.73382 -5.16,6.6849 -1.43,-2.75438 3.93,-3.19669 -1.86,-4.46329 0.97,-0.62326 -0.23,-3.46811 -2.25,-1.81949 -6.59,-1.99039 -3.49,-0.62326 -2.54,1.14598 -0.69,2.12108 1.81,2.57343 -0.33,1.23646 -4.71,-1.42746 -0.12,2.26181 1.81,3.07606 -1.35,1.54808 -2.6,-3.2369 0.67,-0.85445 -0.95,-0.87458 0.08,-8.81601 -1.21,-1.55814 2.02,-0.191 -1.21,-4.23209 0.74,-1.66871 -0.28,-4.55377 -3.84,-1.58829 1.45,-0.52273 1.66,-0.10053 -2.69,-1.90997 2.92,-0.52273 -2.2,-1.16608 0.9,-2.71418 z" 
                fill="rgb(151, 144, 238)" 
                stroke="white" 
                stroke-width=".7px"
                title="Batangas" 
                id="PH-BTG" 
            />
        </svg>