<svg xmlns="http://www.w3.org/2000/svg" viewBox="240.4600000000001 450.20021 26.97999999999996 39.244929999999954" width="26.97999999999996" height="39.244929999999954">
            <path 
                d="m 256.4,450.20021 2.68,1.37718 0.4,3.24695 1.61,2.05071 1.94,1.21635 1.87,-0.50263 0,0 0.3,1.2063 -1.81,0.0101 0.12,1.97029 -0.83,-0.0804 0,4.81514 2.56,5.63943 -0.26,2.70413 1.6,5.61933 0.86,0.4021 -0.28,4.09135 -3.3,4.17179 -5.37,-0.86452 0.75,2.17133 -2.2,-0.6132 -1.71,-2.41259 -1.56,0.43226 -0.15,-0.93489 -2.43,-0.4423 -1.09,-4.91567 1.15,-0.91477 -0.66,-0.87456 0.89,-2.91522 -1.88,-2.91522 -1.37,0.52272 -1.17,-1.25655 -1.42,0.79414 -0.01,-1.04546 -0.79,0.4021 -3.87,-4.32256 0.42,-3.20675 1.83,-0.0603 -2.76,-1.88986 2.84,-1.43751 -1.75,-0.62325 0.7,-0.98515 2.06,0.0804 0,0 4.63,-3.64905 1.29,-3.15647 4.35,0.68357 1.82,-3.58873 z" 
                fill="rgb(151, 144, 238)" 
                stroke="white" 
                stroke-width=".7px"
                title="Bataan" 
                id="PH-BAN" 
            />
        </svg>