<svg xmlns="http://www.w3.org/2000/svg" viewBox="492.84000000000003 800.75019 65.27000000000021 48.96562000000017" width="65.27000000000021" height="48.96562000000017">
            <path 
                d="m 501.48,842.53835 2.54,1.34702 -0.17,1.57825 -5.15,3.85009 -3.35,0.4021 -0.44,-2.16128 -2.07,-0.86452 8.64,-4.15166 z m -4.47,-18.08441 1.23,0.31162 -1.96,1.84966 -0.46,-2.13113 1.19,-0.0302 z m 3.51,-1.55814 2.8,0.31163 -1.93,1.60839 -1.99,-1.58829 1.12,-0.33173 z m 57.59,-17.77278 -2.03,3.09617 0.98,-0.20106 0.11,1.89993 -3.21,-0.28148 -0.56,2.67396 -1.26,0.0101 -0.57,-1.94013 0.9,-1.53803 -1.04,0.34178 -0.02,-1.52797 1.97,0.34178 0.22,-1.42745 1.45,1.57824 0.38,-2.05071 0.85,-0.52272 1.83,-0.45237 z m -23.67,-1.53803 3.56,2.51312 0.08,1.81951 2.01,-2.90517 1.67,1.74913 0.15,1.78934 1.59,0.29152 4.67,3.36757 1.78,-1.4576 3.07,2.6438 1.06,3.33742 -1.19,0.41215 0.66,4.41305 -1.26,0.51267 2.85,0.7841 -1.25,2.90516 -3.31,1.67876 6.02,3.26705 -0.45,3.8099 -1.43,1.55813 -3.69,0.76399 -1.65,-2.94538 -0.92,0.0905 -2.71,2.88506 -2.83,0.85445 -0.66,4.21199 -10.26,4.01095 -5.17,-0.86452 -9.31,1.54808 -14.86,-3.50831 -0.68,-2.28191 1.87,-3.66916 -0.53,-0.49257 -1.75,-1.29677 -3.74,0.17089 -0.18,-3.96068 1.55,-2.94537 -1.35,-1.0354 0.1,-1.16609 1.98,0.6132 -0.41,1.0153 1.86,-1.47772 0.3,-1.65865 2.33,-0.89467 -0.41,-1.14599 1.03,-1.27666 0.8,1.23646 4.99,-3.29722 4.77,-0.8042 1.25,-1.55813 1.36,-5.85055 2.66,0.12064 3.9,-6.42354 9.13,-0.11057 0.95,-1.34704 z m -7.73,-0.32168 0.57,0.46242 -1.05,1.27667 -1.36,-0.70369 1.84,-1.0354 z m 5.47,-2.14117 -1.79,2.13112 -2.12,0 -0.63,-0.67351 4.54,-1.45761 z m -6.49,-0.37195 1.07,1.12588 -2.5,0.45237 1.43,-1.57825 z" 
                fill="rgb(151, 144, 238)" 
                stroke="white" 
                stroke-width=".7px"
                title="Bohol" 
                id="PH-BOH" 
            />
        </svg>