<svg xmlns="http://www.w3.org/2000/svg" viewBox="549.2800000000007 919.6307899999999 68.74999999999977 87.38621000000023" width="68.74999999999977" height="87.38621000000023">
            <path 
                d="m 554.33,945.92807 1.22,-2.15122 -0.28,-2.35229 0.91,0.44231 0.99,-1.09572 -0.43,-2.74432 1.18,-1.80945 0.2,-4.17178 14.43,0.20106 -0.18,-3.83 3.94,-8.78587 11.7,1.08567 15.61,-0.17089 0,0 1.23,15.48082 1.21,2.48296 3.85,2.6639 0.98,3.62895 1.39,1.02535 -0.79,3.08611 1.42,3.07606 -0.28,3.85009 1.42,1.63856 -0.91,3.79984 0.46,2.93532 0,0 2.84,5.38813 -0.25,6.92615 1.84,3.83 -0.87,8.00178 -2.53,2.49301 -2.14,-1.24651 -3.29,0.79414 -1.47,-1.55813 -3.52,0.382 -0.14,4.70456 0,0 -2.28,-0.92483 -0.18,1.56819 -1.69,-0.11058 -1.99,3.58873 -0.76,4.21193 -6.36,0.9952 -1.35,3.3777 -5.5,0.382 -3.24,-2.3121 -3.52,1.2063 -0.14,-1.2466 -2.76,-1.347 -0.04,-2.0808 -1.63,-1.1963 -2.11,1.1359 0.84,-2.71408 1.84,-1.75918 -1.33,-4.54373 0,0 -0.31,-1.4375 -3.54,-2.19144 -0.05,-1.95017 -1.75,-1.56819 -0.08,-3.09617 -1.39,-0.73383 -3.49,-6.02143 -2.14,-0.76399 -1,-1.77928 0.49,-1.46767 -1.88,-1.05551 -2.97,-5.77012 -1.79,-7.9314 -2.69,-3.33743 0,0 4.71,-1.51792 1.06,-2.00045 -1.05,-1.74913 z" 
                fill="rgb(151, 144, 238)" 
                stroke="white" 
                stroke-width=".7px"
                title="Bukidnon" 
                id="PH-BUK" 
            />
        </svg>