<svg xmlns="http://www.w3.org/2000/svg" viewBox="272.14999999999975 424.4558 48.46000000000021 44.38170000000008" width="48.46000000000021" height="44.38170000000008">
            <path 
                d="m 292.31,428.53711 4.77,-2.57343 8.9,-1.50788 7.07,5.12677 5.12,0.36189 0,0 2.19,15.17924 0,0 0.25,7.88115 0,0 -6.31,3.81993 -5.52,1.10578 -0.35,1.70892 -4.63,3.30727 0,0 -2.91,-0.34179 -1.02,-1.27666 -1.07,0.32168 -0.29,1.57823 -2.41,0.60315 0,0 -0.26,0.26136 0,0 -1.05,2.40255 -1.41,0.2111 -0.29,-1.40734 -1.37,-0.56295 -0.88,0.40211 1.62,3.22684 -0.92,0.47247 -1.26,-1.5883 -0.79,0.77405 0,0 -1.35,-1.55814 -0.93,0.25131 -3.31,-2.37239 0.07,-1.8798 -1.1,-0.41215 -0.54,-0.49258 -1.23,1.76924 -3.25,-0.0804 -1.27,-0.54283 -4.01,-0.54284 -0.42,-0.88462 2.28,-1.31687 -0.32,-1.43751 3.23,-5.16697 -0.08,-2.36233 6.36,-0.58305 4.66,-3.76967 -0.19,-1.98034 1.49,-0.32168 0.22,0.98514 1.28,-3.11626 2.05,0.0905 0.24,-3.34747 1.2,-1.68881 -3.16,-3.98079 0.96,-1.57823 -0.06,-3.16654 z" 
                fill="rgb(151, 144, 238)" 
                stroke="white" 
                stroke-width=".7px"
                title="Bulacan" 
                id="PH-BUL" 
            />
        </svg>