<svg xmlns="http://www.w3.org/2000/svg" viewBox="292.7 97.398454 100.02000000000004 158.03502600000007" width="100.02000000000004" height="158.03502600000007">
            <path 
                d="m 377.87,173.51582 1.69,0.19099 -0.24,4.40299 -2.84,1.65865 0.79,-3.48821 -1.09,-0.19099 0.1,-1.08567 1.59,-1.48776 z m -73.28,-3.50832 5.31,1.50787 7.71,6.24259 6.45,3.12631 1.3,0.573 0.57,1.46766 2.67,0.38199 11.09,6.34312 20.67,7.70019 0.63,0.73383 7.97,-2.0708 5.75,-5.23734 0.73,-2.02055 2.13,0.0905 -0.4,-3.2369 1.64,-6.37327 1.38,-1.09572 5.02,0.37195 1.03,5.15692 4.67,4.37282 1.81,6.43359 -2.65,6.88595 -2.85,3.73951 -3.36,1.28673 -3.65,5.29765 0.16,1.34703 1.21,0.34179 -0.8,2.09091 1.15,1.2264 -0.88,5.02625 0.5,0.57299 0.28,3.17657 -1.88,1.85971 0.44,2.45281 -1.41,0.76398 0.54,1.41741 -1.44,1.79939 0.5,4.12151 1.76,3.06601 -0.9,1.24651 0.81,0.9952 -0.32,4.39292 2.01,4.81515 0,0 -24.61,1.00524 -2.21,1.28672 -11.98,0.74388 0,0 -12.81,-12.50528 -2.86,0.48252 0.2,-1.78934 0,0 -0.83,-3.48822 -3.98,-4.41303 -5.01,-1.75918 1.26,-0.73383 6.56,-15.6115 3.31,-1.47771 2.06,-13.42006 -1.63,-6.2627 -10.76,-6.15211 -2.4,-0.10053 -2.66,-3.10622 -11.57,-4.23208 -0.31,-4.20194 -3.02,0.90473 -0.3,1.75918 -2.63,2.97553 -3.06,1.51792 0,0 0.85,-10.31384 0,0 4.47,-2.91522 1.79,1.0153 2.32,-0.56294 0.42,-0.90472 2.04,-0.13068 z m 21.26,-21.31126 4.65,1.72903 -0.03,0.73384 -2.14,1.48776 -7.67,1.04545 -3.9,-0.15078 -1.24,-1.10577 0.5,-1.9904 2.06,0.50263 7.77,-2.25176 z m 36.28,-7.51925 2.06,0.0503 3.38,3.34747 -0.24,1.4174 -2.13,0.54283 -0.47,2.42265 -4.34,2.47291 -1.18,3.43795 -1.62,1.06556 -1.28,-0.66346 -0.72,-4.18183 2.96,-0.93489 -1.33,-2.64379 1.49,-2.00045 -0.3,-1.98034 3.72,-2.35228 z m -50.73,-12.80685 2.2,5.0966 0.06,7.04679 -3.87,-4.17178 -0.06,-3.10621 1.67,-4.8654 z m 13.86,-17.0289 5.73,1.99039 2.63,-1.6285 -0.17,5.0966 1.46,3.69931 -2.28,1.13593 0.08,1.15604 -7.9,-3.00569 -0.95,-3.58873 -3.19,-2.09091 2.44,-0.573 0.81,-1.94013 1.34,-0.25131 z m 40.68,-13.942786 1.65,1.548082 0.16,3.206744 -2.58,2.84484 -4.13,-2.97553 -0.75,-2.050703 5.65,-2.573433 z" 
                fill="rgb(151, 144, 238)" 
                stroke="white" 
                stroke-width=".7px"
                title="Cagayan" 
                id="PH-CAG" 
            />
        </svg>