<svg xmlns="http://www.w3.org/2000/svg" viewBox="407.93000000000006 510.24365000000006 103.19999999999999 64.66762000000023" width="103.19999999999999" height="64.66762000000023">
            <path 
                d="m 500.32,521.66326 1.38,0.42221 -0.62,5.96111 -1.78,-4.05115 1.02,-2.33217 z m -12.74,-0.2111 1.22,1.32693 0.64,-0.43226 0.54,1.70893 -3.84,2.684 -1.78,-0.51267 0.23,-3.48821 1.1,1.55814 1.15,-1.85971 1.66,1.45761 -0.92,-2.44276 z m -22.02,-9.46943 1.29,2.10096 -0.33,1.66872 1.38,0.99519 -1.57,0.191 -0.69,1.86976 1.51,0.31163 1.73,-1.90997 -0.36,2.0105 1.11,-0.22117 0.52,0.9751 -0.84,0.8243 1.62,0.191 -0.58,2.97553 1.59,1.37719 1.01,0.59309 0.89,-1.10577 -0.79,-0.52272 0.21,-2.26181 3.89,2.18139 -0.89,2.11101 1.96,-1.31687 0.3,1.17614 1.6,0.43226 0.15,-1.7994 2.1,1.21635 0.65,0.1709 1.43,1.58828 2.99,0.8042 1.47,-0.82429 1.16,1.17613 2.5,-0.4222 -0.9,-0.59309 1.13,-2.30203 -0.7,-1.55813 1.66,1.69887 0.86,2.02054 1.26,2.16129 1.59,0.29152 -0.43,0.74389 1.95,0.27141 3.24,2.69407 1.46,-1.10577 2.33,2.19143 3.06,0.0503 0.51,3.11626 1.54,-0.10052 -0.03,3.46811 -0.37,-1.30683 -1.97,-0.68357 -0.33,1.21635 -4.3,-1.37719 -2.68,2.97553 -2.47,0.74389 -3.78,-1.71898 -5.53,-0.76398 -1.21,1.05551 -7.05,-2.18139 0.71,1.3973 1.01,-0.46242 -2.42,3.58874 -1.15,4.07125 0.76,1.27667 0.51,0.15078 -1.51,2.63375 1.2,1.05551 1.42,-0.75394 1.19,0.64336 1.23,2.27186 0,0 -3.41,0.32168 -0.79,1.10578 3.08,4.75482 -0.29,3.26705 -6.84,2.77449 -2.08,-0.74389 -1.86,0.58305 -2.18,1.2264 0.05,1.07561 -1.19,-0.74387 -8.09,5.87064 0,0 -2.7,-2.09092 -2.08,-4.18183 -0.22,-3.73952 -1.34,-2.80464 -10.2,-5.52886 -0.9,0.52273 -2.44,-1.57825 -1.93,0.0804 -1.95,-2.14117 -4.45,-1.98034 -4,-4.69451 -2.47,-0.81425 1.85,0.0403 2.73,-3.00569 -1.86,-3.32737 -4.64,-3.12632 -1.64,-1.05551 -1.66,-2.2015 -1.87,0.4021 -1.51,-0.95498 -0.02,1.50788 -1.9,-0.97509 -1.19,-1.38725 1,-0.93488 -0.79,-2.34223 -4.55,-1.70891 0.58,-1.49783 -2.22,0.31163 1.01,-0.90473 -1.47,-1.16608 0,0 17.73,-4.85535 0,0 10.83,6.32301 8.52,6.9161 0,0 -0.96,4.53367 5.58,3.72947 8.04,-0.31162 3.15,-1.52798 3.3,-3.77974 0.27,-1.90996 -3.05,-5.16698 3.51,-3.20673 0.62,-2.42265 -1.15,1.36713 -0.94,1.72902 -1.29,0.26137 -2.49,-1.58829 0.35,-1.05551 -2.36,-0.4021 -0.35,-2.28191 2.66,-1.0153 -2.32,-1.09572 3.99,-0.39205 -2.3,-3.066 1.54,0.0302 2.98,2.82474 -0.67,-2.47291 2.76,-0.0804 -1.31,-1.65866 0.99,-1.07561 z m -3.05,-1.73908 2.02,1.30683 -0.72,1.61844 -2.01,-2.46286 0.71,-0.46241 z" 
                fill="rgb(151, 144, 238)" 
                stroke="white" 
                stroke-width=".7px"
                title="Camarines Sur" 
                id="PH-CAS" 
            />
        </svg>