<svg xmlns="http://www.w3.org/2000/svg" viewBox="389.98999999999995 482.93105 57.64999999999998 49.0460599999999" width="57.64999999999998" height="49.0460599999999">
            <path 
                d="m 406.08,494.01895 6.35,2.28192 -0.97,0.83435 1.71,1.06556 0.8,0.31163 1.24,0.57299 -0.79,-1.00525 0.83,-1.80944 1.14,1.05551 2.04,1.28671 -1.83,-4.07125 1.4,-0.50262 2.01,0.43225 0.62,2.05071 2.02,-1.23646 2.93,1.26661 -0.38,1.89992 1.53,0.1709 1.4,-0.1709 2.73,1.12588 3.64,3.81995 -0.15,0.38199 0.15,1.55813 1.7,0.23121 3.67,5.00613 1.86,0.88462 0.72,-0.12063 1.4,1.08567 0.38,2.26181 -1.2,0.29151 -0.14,2.29197 1.94,3.06601 1.95,0.8444 0.86,6.65475 -0.96,1.54808 -1.09,-0.16084 -0.61,2.75438 0,0 -8.52,-6.91611 -10.83,-6.323 0,0 -25.29,-10.03238 -5.56,6.24259 -4.68,-0.2111 -0.11,-1.09572 0,0 0.68,-1.6285 2.17,-0.94493 0.58,-0.49258 -0.08,-1.29677 -0.78,-1.06556 -0.32,-3.24695 0.98,-0.89467 0.2,-1.17614 2.43,0.77404 -1.7,-2.4528 1.49,-0.70368 0.38,-2.18139 1.78,0.15079 0.49,-2.23165 1.03,1.06556 2.83,-2.95542 1.06,0.89466 0.99,-0.74387 0.93,-0.51268 0.95,0.0201 z m 30.64,-6.82563 2.53,2.25175 -1.81,-0.18094 -2.2,-1.86976 1.48,-0.20105 z m 0.53,-4.26225 0.73,0.0804 -1,1.04545 0.74,0.68358 -1.34,0.29152 0.31,1.11582 -3.11,0.31162 3.67,-3.52841 z" 
                fill="rgb(151, 144, 238)" 
                stroke="white" 
                stroke-width=".7px"
                title="Camarines Norte" 
                id="PH-CAN" 
            />
        </svg>