<svg xmlns="http://www.w3.org/2000/svg" viewBox="382.64 697.36046 65.13000000000005 34.87205000000006" width="65.13000000000005" height="34.87205000000006">
            <path 
                d="m 420.07,697.36046 5.6,0.31163 0.08,0.96504 2.44,-1.13593 0.21,1.06556 1.97,2.10097 0.56,0.86451 -0.68,1.5883 0.8,-0.37195 0.79,-0.39205 3.84,2.11103 -1.07,0.97509 -0.46,0.31162 -1.94,0.764 0.57,1.53802 -2.12,0.98514 2.48,2.28191 0.61,-0.86451 0.77,-1.27666 0.26,-2.30202 1.25,0.53279 0.52,-0.27142 3.41,-0.25132 7.81,-4.52361 0,0 -3.46,6.97642 0.03,3.94057 -2.47,1.2063 -2.75,-0.15079 -2.99,1.74913 0.84,3.98078 -4.23,2.03061 0.01,2.95542 -1.13,-0.26137 -1.64,3.639 -5.07,0.74389 0.12,-2.76444 -1.46,-0.66346 -8.14,1.21635 -1.8,-1.76924 1.65,-2.10097 -1.08,-0.2312 -2.98,3.31732 -1.2,-0.74389 0.13,-1.29677 -1.31,0.86452 -0.87,2.63375 -3.92,1.77929 -3.03,-1.08568 -4.52,0.1508 -4.99,-2.6237 -6.05,6.37327 0,0 -1.69,-2.39249 -0.39,-3.50832 -0.62,0.41216 -0.12,-7.23779 0,0 5.43,-1.4576 2,-1.5883 2.07,-2.28191 1.39,-4.08131 1.45,0.35184 1.79,-3.25701 8.43,-0.0905 4.69,-4.03104 0.01,-1.23645 1.03,1.33698 0.02,1.10577 2.66,0.0403 2.08,-1.3973 -1.59,-0.74388 1.11,-2.03059 0.73,2.36232 0.81,-0.0804 0.98,-0.25131 -0.35,-1.37719 3.19,-1.08566 -0.65,-1.30683 -0.61,-0.77404 0.76,-0.27142 z" 
                fill="rgb(151, 144, 238)" 
                stroke="white" 
                stroke-width=".7px"
                title="Capiz" 
                id="PH-CAP" 
            />
        </svg>