<svg xmlns="http://www.w3.org/2000/svg" viewBox="514.9799999999996 512.41499 29.26000000000022 43.497149999999806" width="29.26000000000022" height="43.497149999999806">
            <path 
                d="m 537.59,522.0151 1.46,1.82955 -2.16,0.28147 -1.26,-2.87501 1.23,0.49257 -0.19,0.94494 0.29,-1.88987 0.63,1.21635 z m -9.24,-9.60011 4.67,6.15211 1,5.4585 2.12,0.72377 -0.37,2.96548 1.04,-0.38199 0.41,-2.48296 1.79,-0.52273 0.23,2.53323 2,0.95498 0.27,1.60839 0.52,-2.08086 0.17,1.70893 0.38,-0.79415 0.85,1.52798 -1.09,0.48252 1.57,0.97509 -1.6,0.83435 1.14,0.0403 -0.38,1.58829 1.17,1.31688 -0.54,1.04545 -1.82,0.20105 1.22,2.05071 -1.14,0.17089 -0.71,2.53323 2.27,3.8501 -2.76,1.53803 -0.02,-1.35709 -0.88,0.2111 -1.72,1.4375 0.64,3.30727 -1.77,2.85491 1.36,0.61319 -2.03,-0.2312 -0.19,-2.48296 -1.99,-0.57299 0.56,-0.88462 -5.85,2.96548 -0.47,3.63899 -2.65,-1.09571 -4.59,-4.53367 -4.4,-0.73383 1.17,-1.08568 -2.95,-3.45805 5.22,-3.12631 2.95,-6.78543 -0.56,-6.63463 1.46,-3.16654 -1.47,-3.75962 -0.16,-1.90997 1.01,-0.91477 -0.97,-3.4279 3.24,0.70368 2.65,-3.56863 z" 
                fill="rgb(151, 144, 238)" 
                stroke="white" 
                stroke-width=".7px"
                title="Catanduanes" 
                id="PH-CAT" 
            />
        </svg>