<svg xmlns="http://www.w3.org/2000/svg" viewBox="268.07 482.3882399999999 32.63000000000005 32.861549999999966" width="32.63000000000005" height="32.861549999999966">
            <path 
                d="m 289.16,482.38824 -0.62,1.14598 -0.34,0.52272 -0.71,1.98035 1.19,-0.56294 0.63,0.74387 0.3,-0.96503 3.74,-0.99519 0,0 -0.07,2.11102 3.19,4.92571 0.02,2.33218 0,0 -0.29,2.88506 4.5,-1.28672 -2.56,6.05159 1.27,0.41215 -1.41,2.73428 0.96,0.27142 -0.3,3.58873 0,0 0.58,0.69361 -6.83,3.86016 -4.13,1.14598 -1.15,-0.57299 -2.88,1.83961 -0.48,-2.07082 -5.28,-3.70937 -4.28,-0.24125 -2.47,-2.69406 0.69,-1.80945 -4.36,-1.4375 0,0 0.09,-3.37764 2.36,-1.47771 2.76,0.38199 1.49,-1.09572 1.23,-1.39729 2.76,-1.35709 7.32,-7.35841 1.69,-4.55377 1.39,-0.66346 z" 
                fill="rgb(151, 144, 238)" 
                stroke="white" 
                stroke-width=".7px"
                title="Cavite" 
                id="PH-CAV" 
            />
        </svg>