<svg xmlns="http://www.w3.org/2000/svg" viewBox="462.3400000000001 720.4207500000001 91.9600000000001 138.88513" width="91.9600000000001" height="138.88513">
            <path 
                d="m 518.59,795.15097 -1.28,3.66915 -0.93,-0.30158 -0.61,-0.89467 2.82,-2.4729 z m -6.14,-3.4279 1.4,1.57824 2.8,-1.49782 -4.54,5.53892 -1.13,-0.0704 -1.76,1.20631 -0.74,-1.01531 1.75,-1.32692 -0.3,-0.63331 -0.66,-0.0603 -1,0.58304 0.47,-2.19144 3.71,-2.11102 z m 32.71,-28.26757 5.11,2.79459 0.37,1.78935 -5.21,2.09091 -2.98,-0.0804 -1.24,-1.16609 -0.24,1.51792 -5.03,2.75438 -2.65,-0.31162 2.09,-3.99084 0.85,-4.77492 4.25,1.40734 0.72,3.03586 2.05,-4.19189 1.91,-0.87457 z m 9.14,-7.1071 -1.31,4.08131 -3.27,2.21154 -0.24,-2.19143 2.46,-2.97554 2.36,-1.12588 z m -36.47,-34.3292 -0.43,1.37719 1.01,0.36188 -2.37,3.59878 -0.15,4.30247 -3.83,5.54896 1.03,0.18095 0.08,1.4174 3.21,-0.21111 0.17,5.78018 -1.04,3.50831 1.78,3.48822 -1.65,3.15647 -0.24,4.21199 -1.75,1.92003 2.1,12.86717 -1.07,-0.35184 0.5,2.46285 0.61,-0.66345 0.21,0.77403 -0.33,4.00089 -2.49,6.19233 1.67,2.18139 -3.41,2.82474 -0.61,1.26661 -5.93,2.87501 -1.55,3.0258 -7.08,1.6687 -0.66,2.16129 -5.13,5.0765 -0.34,3.06601 -2.89,0.12062 -1.89,6.50396 0.74,3.41784 -1.29,2.84485 0.1,2.6438 -2.53,1.23646 -1.04,3.0459 -1.71,0.96503 0.11,3.33743 -2.03,1.95018 0.04,2.57343 -3.14,9.18797 -8.32,10.86673 -3.66,0.52273 -0.29,-6.16218 3.35,-20.97952 1.95,-2.34222 -0.02,-3.79984 1.47,0.13069 0.75,-2.70412 -0.6,-2.28191 -1.96,-0.83436 0.23,-3.09616 0.97,-0.67351 0.5,2.22159 0.96,-0.64336 0.87,-5.51881 2.36,-0.94493 0.16,-1.30683 4.93,-5.24739 0.74,-3.06601 3.98,-5.14686 -0.07,-4.81513 6.26,-6.2426 0.59,-3.05595 2.78,-3.08611 -0.73,-3.41785 2.88,-4.61408 -0.16,-1.96023 4.3,-6.51401 2.26,-1.0153 2.55,-7.07694 1.05,-3.35753 3.79,-8.63508 -0.05,-1.26661 -0.82,0.6132 -1.5,-2.34223 2.34,-2.34223 0.1,-3.11626 2.3,1.74913 -1.63,-7.56952 3.39,-3.15648 0.63,-3.14642 4.59,-0.52272 z m -24.12,-1.59836 1.47,1.21635 1.29,5.52887 2.92,3.20674 -0.06,1.08567 -6.29,1.02535 0.8,-1.99039 -1.1,-0.0403 -2.11,-4.65429 3.08,-5.37809 z" 
                fill="rgb(151, 144, 238)" 
                stroke="white" 
                stroke-width=".7px"
                title="Cebu" 
                id="PH-CEB" 
            />
        </svg>