<svg xmlns="http://www.w3.org/2000/svg" viewBox="634.9000000000001 963.1580199999997 45.03999999999985 67.69338000000027" width="45.03999999999985" height="67.69338000000027">
            <path 
                d="m 670.3,963.15802 -1.13,2.12107 7.22,23.88469 3.14,14.56602 0.41,12.7767 -24.92,12.8269 -0.72,1.518 0,0 -4.24,-3.7496 0.61,-2.9051 -3.97,-6.4235 1.29,-6.9262 -0.37,-1.0053 -1.34,0.01 0,0 0.8,-3.2569 -1.19,-1.8798 0.55,-2.1312 3.75,-1.8597 -2.42,-3.01571 4.86,-1.05551 1.36,-7.61978 -2.54,-3.22685 2.98,-5.02624 -1.77,-4.87545 -3.85,4.35273 -4.79,8.17266 -1.67,-0.14074 0.33,-2.52316 -1.01,-2.58349 -2.16,-1.03541 -0.79,-2.42264 -1.78,-0.64337 -2.04,-15.77233 0,0 22.18,0 1.25,2.61364 3.46,2.0105 1.65,-1.74914 6.86,-3.02579 z" 
                fill="rgb(151, 144, 238)" 
                stroke="white" 
                stroke-width=".7px"
                title="Compostela Valley" 
                id="PH-COM" 
            />
        </svg>