<svg xmlns="http://www.w3.org/2000/svg" viewBox="537.17 986.4295000000001 71.47000000000003 70.23669999999981" width="71.47000000000003" height="70.23669999999981">
            <path 
                d="m 545.28,988.61089 4.04,-1.94013 3.04,-0.24126 2.2,0.64336 2.88,3.70937 2.95,0.68357 3.75,-1.96024 7.73,2.65385 0,0 1.33,4.54373 -1.84,1.75918 -0.84,2.71408 2.11,-1.1359 1.63,1.1963 0.04,2.0808 2.76,1.347 0.14,1.2466 3.52,-1.2063 3.24,2.3121 5.5,-0.382 1.35,-3.3777 6.36,-0.9952 0.76,-4.21193 1.99,-3.58873 1.69,0.11058 0.18,-1.56819 2.28,0.92483 0,0 0.23,1.06555 0,0 0.81,4.46325 -1.66,2.94544 0.38,6.2325 -1.55,2.4729 1.41,6.7553 -1.38,4.393 1.09,2.4427 3.12,2.5935 0.37,4.5638 1.75,2.5936 -2.66,0.2815 -1.58,4.7045 -6.54,5.4887 -0.35,3.066 -1.17,1.3169 -1.4,-0.8847 -1.75,1.0857 1.47,4.5538 0,0 -8.5,2.6036 0,0 -7.7,-4.5739 -3.98,1.1057 -2.06,-0.9348 -0.49,-16.0237 -1.3,0.01 0.02,-0.7942 0.25,-3.5083 1.95,0.081 0.15,-1.8697 -2.08,-0.091 0.04,-1.7994 -6.19,-5.9109 0.3,0.8143 -1.56,0.4725 0.09,2.0205 2.61,1.2968 1.14,1.8396 -1.35,-0.081 0.45,1.8697 -1.39,-1.3973 -0.84,2.1613 -0.24,-1.0856 -1.02,0.191 -0.46,1.4073 1.56,0.8344 1.05,2.4427 -0.65,0.7942 0.98,0.5629 -2.42,1.91 0.28,1.3571 -0.87,0.4624 -3.73,-2.0206 -2.85,0.2714 -3.86,-5.0061 -2.3,0.7137 -5.29,-4.2521 0,0 5.83,-10.6456 -2.85,-0.754 -3.98,1.2566 -3.01,4.3728 -3.22,-0.4524 5.71,-9.5599 1.01,0.4826 4.73,-10.8065 -3.84,-5.56903 z" 
                fill="rgb(151, 144, 238)" 
                stroke="white" 
                stroke-width=".7px"
                title="Cotabato" 
                id="PH-NCO" 
            />
        </svg>