<svg xmlns="http://www.w3.org/2000/svg" viewBox="654.31 963.08766 48.08000000000027 126.54112000000066" width="48.08000000000027" height="126.54112000000066">
            <path 
                d="m 683.97,963.08766 0.7,6.66479 0,0 -0.05,1.93007 1.76,1.16609 -0.78,1.11582 0.71,1.64861 3.02,0.0905 -0.11,1.27666 2.05,0.42221 0.46,1.21635 3.1,3.71942 2.32,-0.24126 2.7,1.65866 -1.37,1.56818 0.71,1.74913 -0.63,2.68401 1.81,2.23166 -1.13,-0.0201 -0.3,2.06076 1.79,0.72377 1.2,6.20239 -0.3,2.5031 -2.7,0.1207 -0.5,0.8945 0.15,2.3926 1.86,0.4925 -1.61,1.5883 1,3.4581 -1.38,1.0555 1.13,1.7793 2.81,-0.07 -2.89,4.0209 -0.28,2.2619 -1.98,-0.3318 0.25,1.6184 -1.02,1.146 0.6,1.6386 -1.15,0.2915 0.05,1.3772 -2.06,0.4926 -1.58,2.2518 0.53,1.6284 -1.61,0.5931 -0.44,2.7343 0.94,1.7793 -3.23,-0.6836 -1.13,0.9852 -2.36,-0.1308 -1.89,-1.0353 -1.71,2.0909 -0.49,2.8449 -2.02,0.774 0.63,1.7391 3.98,3.4078 0.33,4.0712 -2.72,-0.05 -1.77,-1.3974 -0.2,-1.6988 1.12,-1.2767 -1.7,-1.5682 -0.98,-2.0005 -1.54,-1.749 -3.29,-1.1561 -1.42,3.7597 1.27,1.1258 -0.94,0.6132 5.74,8.9065 -3,8.7054 0.9,6.1019 -1.4,2.7343 0.05,2.6237 1.03,3.5385 -1.07,0.3418 -1.09,2.5633 0.72,4.986 -1.12,3.7898 -0.41,-4.9055 -1.47,-2.483 -2.23,-1.2063 1.04,-2.3121 -2.86,-3.3977 -1.97,-4.8051 0.66,-4.8856 -1.75,-4.2219 1.75,-2.0106 -0.7,-1.0957 1.01,-2.8348 -1.59,-1.7793 0.35,-5.9912 -4.12,-2.2619 -3.37,-3.9104 0.97,-6.122 -2.88,-2.5432 0.58,-1.0857 -1.15,-0.8846 0,0 0.72,-1.5179 24.92,-12.827 -0.41,-12.7767 -3.14,-14.56605 -7.22,-23.88469 1.13,-2.12107 0,0 13.66,-0.11058 z" 
                fill="rgb(151, 144, 238)" 
                stroke="white" 
                stroke-width=".7px"
                title="Davao Oriental" 
                id="PH-DAO" 
            />
        </svg>