<svg xmlns="http://www.w3.org/2000/svg" viewBox="593.2099999999997 994.99401 44.59999999999991 146.70578999999964" width="44.59999999999991" height="146.70578999999964">
            <path 
                d="m 604.3,994.99421 18.27,0.46242 0.28,23.33177 7.62,-0.3619 4.04,-4.1115 3.25,0.03 0,0 -2.55,2.1915 -0.02,1.3068 -2.24,1.0656 1.15,8.1727 -1.08,2.2115 -3.22,3.5686 -1.82,0.4524 -0.26,1.1962 -1.33,-1.6184 -2.48,1.4174 -2.7,3.4278 0.2,4.3728 -2.35,1.709 -0.34,1.8898 -2.36,1.6487 -2,3.2972 0.04,0.6936 -0.11,2.8448 -1.33,2.091 0.88,6.6346 -1.86,2.4729 2.04,0.1005 4.05,1.5783 0.32,-1.2566 -1.95,-1.9401 0.65,-0.8746 2.47,2.8751 1.5,-0.3016 -0.15,1.9904 2.71,1.1962 -0.06,2.5935 2.36,-1.1359 2.24,1.4476 -1.32,0.6634 0.58,0.7137 1.59,-0.3418 -0.95,5.3279 1.88,0.6333 0.81,0.5931 3.9,11.0175 2.28,3.3274 0.71,3.2067 -0.68,3.5385 0.85,1.3972 -0.95,5.6797 -2.91,7.5796 -10.8,12.4248 -1.11,3.4481 -6.13,9.5398 -5.89,1.2866 -0.75,-1.0655 0,0 -1,-1.4475 6.27,-4.7147 5.39,-11.4498 0.1,-2.0305 1.27,-0.8746 -0.55,-4.1818 3.92,-10.8969 0.25,-3.639 -2.03,-2.2518 -0.43,-7.0065 -3.36,-5.167 2.44,-2.6539 -0.46,-4.0109 -4.45,-6.6347 -5.22,-1.548 -2.3,3.5485 -5.07,2.3121 -5.67,-3.0158 0,0 1.96,-2.9755 -0.14,-1.8899 0,0 -1.12,-6.2627 -3.48,-4.2924 -0.09,-3.1062 1.45,-0.6634 -2.27,-1.7391 0,0 -1.47,-4.5538 1.75,-1.0857 1.4,0.8846 1.17,-1.3068 0.35,-3.0761 6.54,-5.4885 1.58,-4.6946 2.66,-0.2815 -1.75,-2.5835 -0.37,-4.5739 -3.12,-2.5935 -1.09,-2.4427 1.38,-4.3929 -1.41,-6.7554 1.56,-2.4728 -0.38,-6.2326 1.65,-2.93534 -0.83,-4.46325 z" 
                fill="rgb(151, 144, 238)" 
                stroke="white" 
                stroke-width=".7px"
                title="Davao del Sur" 
                id="PH-DAS" 
            />
        </svg>