<svg xmlns="http://www.w3.org/2000/svg" viewBox="604.0799999999998 963.2887 50.3599999999999 80.84199999999998" width="50.3599999999999" height="80.84199999999998">
            <path 
                d="m 635.6,1039.0743 1.46,0.191 1.08,1.6185 -0.45,2.885 -1.92,-0.6936 -1.35,-2.8951 1.18,-1.1058 z m 1.64,-17.2299 1.86,2.0909 2.09,0.4323 2.58,3.3374 -1.56,6.2426 1.25,6.8156 -2.02,3.3675 -3.07,-5.2775 -0.81,-7.6198 -1.19,-0.5429 -1.18,0.9551 -1.11,-2.2217 3.16,-7.5795 z m -2.33,-58.5557 2.04,15.77234 1.78,0.64336 0.79,2.42265 2.16,1.0354 1.01,2.58349 -0.33,2.52317 1.67,0.14073 4.79,-8.17266 3.85,-4.35272 1.77,4.87545 -2.98,5.02623 2.54,3.22685 -1.36,7.61978 -4.86,1.05551 2.42,3.01572 -3.75,1.8597 -0.55,2.1311 1.19,1.8799 -0.8,3.257 0,0 -1.49,-0.2312 -7.03,4.7447 0,0 -3.25,-0.03 -4.04,4.1115 -7.62,0.3619 -0.28,-23.33177 -18.27,-0.46242 0,0 -0.23,-1.06555 0,0 0.14,-4.70456 3.52,-0.37195 1.47,1.55814 3.29,-0.79415 2.14,1.24651 2.53,-2.50306 0.88,-8.00178 -1.84,-3.83 0.25,-6.92615 -2.85,-5.38813 0,0 21.3,-0.92483 z" 
                fill="rgb(151, 144, 238)" 
                stroke="white" 
                stroke-width=".7px"
                title="Davao del Norte" 
                id="PH-DAV" 
            />
        </svg>