<svg xmlns="http://www.w3.org/2000/svg" viewBox="619.5300000000001 781.6002000000003 17.700000000000045 45.678479999999695" width="17.700000000000045" height="45.678479999999695">
            <path 
                d="m 620.13,782.26369 2.22,1.26661 -0.3,1.69887 -1.52,-0.32168 -1,-2.19144 0.6,-0.45236 z m 12.39,-0.66346 2.82,5.8807 -2.5,6.37327 0.43,4.05115 -2.26,-1.30683 0.26,1.65866 1.62,0.35184 1.08,3.19668 -0.96,0.89467 0.38,1.52798 1.58,-0.19099 -1.28,1.38723 0.16,2.05071 2.7,4.56383 -1.88,4.8453 0.51,2.27185 -1.64,1.03541 3.69,4.15167 -0.46,1.92002 -1.72,-0.11057 -0.76,1.12587 -1.77,-2.2417 -0.1,-4.08131 -3.62,-1.23645 1.84,-0.44231 -1.84,-1.15604 -1.01,0.0201 -1.31,-1.05551 1.47,-0.6333 -0.46,-2.17134 0.14,-1.10578 1.11,-0.59309 -0.1,-1.89992 -1.29,-0.75393 0.34,1.69887 -2.06,-1.38724 -2.76,1.55813 -2.65,-5.32781 1.03,-0.66347 0.8,-2.98558 1.94,0.0402 0.03,-0.59309 1.24,-0.86452 -2.19,-2.90516 0.61,-2.49302 -0.2,-0.65341 -0.3,-2.6639 3.23,0.0804 -0.64,-4.54372 2.26,1.70892 1.12,-0.48252 1.16,-5.61933 2.21,-2.23165 z" 
                fill="rgb(151, 144, 238)" 
                stroke="white" 
                stroke-width=".7px"
                title="Dinagat Islands" 
                id="PH-DIN" 
            />
        </svg>