<svg xmlns="http://www.w3.org/2000/svg" viewBox="594.0500000000005 641.0866899999997 62.02999999999952 124.5200500000002" width="62.02999999999952" height="124.5200500000002">
            <path 
                d="m 655.36,759.1631 0.72,2.19143 -2.28,-1.95017 1.56,-0.24126 z m -19.02,-3.53848 2.38,1.93007 -1.23,2.52318 0.52,1.26662 6.81,1.16608 0.63,1.00525 -0.81,1.59834 -4.15,0.49258 -2.02,-2.15124 -1.88,-0.43225 0.22,-0.88462 -2.3,-0.67352 -0.85,-2.97553 2.68,-2.86496 z m -3.59,-13.4301 0.49,1.90996 -0.91,0.48252 -1.63,-1.01529 0.11,-1.2063 1.94,-0.17089 z m 8.83,-1.9904 5.15,6.85579 -0.98,0.11058 -4.39,-5.48865 0.22,-1.47772 z m -44.59,-92.83463 1.06,-4.06119 2.05,-2.22161 7.1,8.06209 2.12,-1.27666 0,0 -0.3,0.5931 1.44,0.19099 1.34,-2.66391 1.84,0.25131 -1.79,1.70893 0.71,0.6333 1.21,0.37195 1.05,-1.15604 0.5,0.88462 0.5,-1.19624 1.9,0.86451 1.88,2.20149 -0.64,1.19624 1.63,-0.25131 0.14,1.3973 1.09,0.72378 -0.04,-1.09573 1.53,1.92003 -0.34,1.52798 -0.89,-0.88462 -0.11,0.96504 -3.04,0.37194 1.37,0.96503 -0.52,1.05551 -1.63,0.10053 0.04,2.4327 2.64,-0.17089 0.63,0.8243 -1.51,0.33173 2.12,2.16129 1.31,0.0403 -4.38,5.00614 -2.14,2.73427 -0.44,4.56383 1.69,1.79938 -0.5,3.39774 1.93,0.51268 0.79,1.86977 -0.87,1.47771 -1.59,-0.67352 -1.96,1.70893 1.39,-0.0403 -0.42,0.74389 1.01,0.68357 1.57,-1.41741 1.51,4.73473 -0.85,0.72378 1.54,0.87456 -0.8,0.83435 -2.11,-0.50262 -0.42,0.98514 1.21,0.88462 -1.81,2.2216 0.72,1.73907 1.84,-0.14073 -0.31,3.4279 3.35,3.80988 0.22,1.51793 -1.78,1.93008 2.07,-0.48252 1.59,1.16608 0.58,2.36233 0.79,0.88462 1.47,-0.39204 1.41,2.46285 2.18,0.67352 -1.37,4.08131 -4.88,3.14643 -0.97,4.45323 4.62,1.47772 -0.65,-0.69362 1.94,-0.0201 0.3,-0.84442 -2.3,-1.88986 0.89,-0.55288 4.78,2.58349 7.1,12.21375 -0.75,1.35709 -2.5,-1.08567 -1.17,-2.77449 -2.2,-1.25655 2.16,-2.27186 -2.63,-0.1709 -0.38,-1.84965 -5.64,2.11102 -0.54,-0.31163 -1.21,-0.69362 0.86,-1.56818 -2.92,-0.13069 -1.33,5.04635 -1.55,-1.41741 -1.03,-0.47246 -1.03,-1.39729 -0.93,0.59309 0.38,1.4174 -1.41,-0.90472 -0.18,1.4375 -1.78,0.69363 -0.22,-1.35709 -2.29,0.0703 -0.98,-1.48776 -3.13,0.20105 -1.43,-1.95018 -2.34,0.51267 -0.88,1.37719 0,0 -0.28,-14.74698 4.16,-6.00133 -1.55,-1.97028 -3.96,-1.37719 -1.77,-11.44978 1.05,-2.59353 4.43,-3.24695 -0.88,-13.06822 -4.5,-10.45458 -6.73,0.0101 -0.19,-12.71638 2.41,-1.57824 0.53,-7.35842 z" 
                fill="rgb(151, 144, 238)" 
                stroke="white" 
                stroke-width=".7px"
                title="Eastern Samar" 
                id="PH-EAS" 
            />
        </svg>