<svg xmlns="http://www.w3.org/2000/svg" viewBox="402.5499999999999 760.8216799999999 18.44000000000011 25.613720000000058" width="18.44000000000011" height="25.613720000000058">
            <path 
                d="m 419.38,781.39917 1.61,1.57825 -3.25,0.70367 0.25,-1.78934 1.39,-0.49258 z m -3.32,-20.57742 3.89,2.77449 0.6,1.72902 0.37,5.62939 -3.12,6.2627 -0.17,2.2618 -1.31,2.14118 -1.35,0.0201 0.14,1.49783 -1.43,1.2063 -3.35,0.43225 -2.8,1.58829 -2.04,0.0703 -0.44,-3.27711 -2.5,-2.20149 0.62,-1.92003 2.88,-0.71372 0,-1.76924 -0.94,-3.02579 3.82,-4.48341 -0.11,-1.65865 1.43,0.39204 2.09,-1.23646 0.38,-3.13637 3.34,-2.58349 z" 
                fill="rgb(151, 144, 238)" 
                stroke="white" 
                stroke-width=".7px"
                title="Guimaras" 
                id="PH-GUI" 
            />
        </svg>