<svg xmlns="http://www.w3.org/2000/svg" viewBox="286.77 287.96327999999994 51.39999999999998 36.68149" width="51.39999999999998" height="36.68149">
            <path 
                d="m 286.77,307.10319 2.68,-0.0402 2.32,-2.26181 2.5,-5.75002 -0.91,-2.89511 0.64,-1.97029 3.4,0.29152 2.43,-1.32692 3.63,-0.22115 8.63,0.59309 8.98,-4.58393 6.37,-0.97509 8.35,0.67352 0,0 2.38,12.86716 -3.07,3.58874 -6.3,1.94013 -1.66,-0.79414 -2.15,2.6639 -2.82,0.33173 -0.87,1.73908 -1.31,-0.13068 0.7,1.04546 -0.83,1.29677 0,0 -1.36,3.72947 -1.85,0.6534 0.41,2.06076 -1.31,-0.54283 -3.7,1.59834 0,0 -0.38,0.12063 0,0 -23,3.84005 0,0 -0.47,-13.94279 z" 
                fill="rgb(151, 144, 238)" 
                stroke="white" 
                stroke-width=".7px"
                title="Ifugao" 
                id="PH-IFU" 
            />
        </svg>