<svg xmlns="http://www.w3.org/2000/svg" viewBox="247.92000000000004 225.4067 37.329999999999956 94.41287999999986" width="37.329999999999956" height="94.41287999999986">
            <path 
                d="m 255.18,225.4067 6.36,1.4375 -1.5,9.9017 0.26,2.20149 1.48,1.59834 0,0 -2.35,4.87545 -1.08,7.20763 -1.48,3.28716 1.11,1.57824 3.1,-1.42745 4.38,1.78934 -0.5,3.47816 -2.9,5.53891 1.39,3.78978 4.09,-0.22115 4.96,4.17177 -0.07,4.32257 -1.04,0.37194 1.98,2.53323 4.51,0.20104 3.06,-2.2819 4.31,-0.0201 0,0 -5.64,5.90081 0.45,10.48473 -0.82,2.82475 0,0 -2.33,1.59834 -5.22,0.24126 -2.04,1.11582 -1.67,12.50528 -2.9,5.40824 0,0 -3.51,-4.26225 1.27,-4.08131 -1.07,-0.77404 0.63,-0.99519 -1.5,-0.22115 0.94,-1.38725 -2.08,-2.23165 0.74,-5.69975 -2.22,1.35708 -0.93,-1.09572 -1.48,0.62325 -3.14,-1.0354 0,0 2.66,-4.51356 -0.68,-7.52931 -0.82,-7.34836 -1.66,-2.6438 2.3,-5.73996 -0.91,-0.13069 0.3,-3.56862 1.29,-0.23121 0.85,-3.81994 0.63,-1.45761 -1.17,-2.85491 -1.23,-0.4021 0.32,-2.07081 -0.95,-1.4375 0.06,-0.84441 -1.45,-0.50263 -1.25,-0.38199 0.18,-1.0354 -2.74,-1.2063 -0.54,-2.07081 1.99,-7.18752 0.36,-0.97509 4.33,-3.78978 -0.46,-1.62851 -1.67,-0.24126 1.43,-1.28671 -1.73,-1.55814 1.99,-0.78409 0.4,-1.42746 1.63,-0.0804 -1.32,-3.07606 0.31,-2.78453 z" 
                fill="rgb(151, 144, 238)" 
                stroke="white" 
                stroke-width=".7px"
                title="Ilocos Sur" 
                id="PH-ILS" 
            />
        </svg>