<svg xmlns="http://www.w3.org/2000/svg" viewBox="254.17999999999992 168.23826 39.64000000000007 72.33763000000002" width="39.64000000000007" height="72.33763000000002">
            <path 
                d="m 284.46,168.23826 4.68,6.71506 3.04,0.36188 1.4,-1.80944 0,0 -0.85,10.31384 0,0 -1.37,6.06165 1.22,12.94759 1.24,2.39249 -2.87,5.14686 0.29,7.84094 -0.92,1.45761 0,0 -1.31,2.09091 -5.55,-0.71372 -3.63,3.6792 -4.04,1.43751 -2.71,4.42309 -7.86,2.71416 -3.41,7.278 0,0 -1.48,-1.59834 -0.26,-2.2015 1.5,-9.90168 -6.36,-1.43751 0,0 -1.03,-1.06556 2.64,-2.0306 0.6,-2.52318 1.75,-1.60839 -1.79,-2.48296 0.26,-3.94057 -0.56,-0.4021 3.04,-3.57869 0.46,-3.86015 0.77,-0.51268 -0.48,-0.74388 3.93,-5.94101 1.77,-5.11672 -0.38,-5.05639 -2.38,-6.18227 4.52,-4.10142 6.53,1.33699 4.17,-1.10578 1.15,-2.14117 -0.44,-3.87021 4.72,-2.27186 z" 
                fill="rgb(151, 144, 238)" 
                stroke="white" 
                stroke-width=".7px"
                title="Ilocos Norte" 
                id="PH-ILN" 
            />
        </svg>