<svg xmlns="http://www.w3.org/2000/svg" viewBox="368.9200000000001 695.51081 97.86999999999989 86.43123000000037" width="97.86999999999989" height="86.43123000000037">
            <path 
                d="m 451.33,731.20716 0.48,0.91477 -2.7,3.13638 -0.58,-2.73428 2.8,-1.31687 z m 1.59,-4.87546 1.63,0.0804 -1.33,1.9904 -1.07,-1.33699 0.77,-0.73383 z m -0.21,-6.72511 2.11,1.44757 -3.21,3.32736 0.21,-4.14161 0.89,-0.63332 z m 6.83,-11.04767 1.29,1.07562 -1.86,1.72903 -0.62,-2.36234 0.38,-0.84441 0.81,0.4021 z m -1.75,-0.28146 -2.12,0.31162 -1.12,-1.24651 0.56,-1.90997 1.4,-0.50262 0.64,0.9952 0.64,2.35228 z m -2.81,-5.58918 -0.39,2.06076 -2.62,1.53802 0.68,-2.41259 2.33,-1.18619 z m -3.44,-4.32256 1.01,2.73427 -1.82,4.01093 -1.21,-1.47771 -0.51,0.86452 -1.29,-0.33174 1.25,1.78935 1.96,0.31162 -0.94,1.11583 1.8,-0.81426 0.92,1.34703 -2.7,3.99084 1.73,1.66871 -0.73,2.0306 -1.13,0.33173 0.5,1.31688 -2.46,0.98514 0.66,2.42264 -1.15,5.10666 2.28,2.2417 -0.27,2.46287 -1.22,0.67352 -3.05,-2.26181 0.38,1.31687 -2.66,0.0201 -1.51,5.49871 -2.42,2.52317 -0.18,-0.77404 -1.61,0.31162 0.89,1.1862 -0.83,1.18619 -1.19,0.0804 0.52,-1.82955 -1.39,-0.69362 -1.31,3.36758 -2.48,-0.8243 -1.49,1.04546 -0.01,1.97028 -1.51,-0.83435 -3.55,1.14598 -1.57,2.95542 2.2,3.82999 -0.83,0.27142 0.36,2.6438 -1.75,0.73383 0.26,1.69887 -2.58,3.0057 -4.09,-1.0153 -0.54,1.31687 -3.91,0.33173 -1.53,2.05071 0.85,1.35708 -1.38,2.94537 -9.02,-0.0502 -13.31,2.2417 -2.09,1.65866 -2.73,-0.25131 -4.69,3.99082 -3.46,0.73384 -1.27,3.60884 -3.45,4.30246 0,0 -1.17,-0.54284 -0.2,-1.4375 0.76,-5.93096 0.89,-3.64905 2.89,-4.8855 7.39,-4.87546 1.85,-5.75001 4.39,-4.52361 1.31,0.20104 1.15,-2.60359 2.08,-0.49257 -0.77,-1.74913 0.52,-5.23734 -5.91,-8.23298 0,0 6.05,-6.37327 4.99,2.6237 4.52,-0.1508 3.03,1.08568 3.92,-1.77929 0.87,-2.63375 1.31,-0.86452 -0.13,1.29677 1.2,0.74389 2.98,-3.31732 1.08,0.2312 -1.65,2.10097 1.8,1.76924 8.14,-1.21635 1.46,0.66346 -0.12,2.76444 5.07,-0.74389 1.64,-3.639 1.13,0.26137 -0.01,-2.95542 4.23,-2.03061 -0.84,-3.98078 2.99,-1.74913 2.75,0.15079 2.47,-1.2063 -0.03,-3.94057 3.46,-6.97642 0,0 3.76,-4.00088 z m 15.1,0.29151 -1.6,1.58829 -0.99,-0.8444 0.58,-1.04546 2.01,0.30157 z m 0.15,-3.14642 -0.81,2.32212 -0.5,-1.95018 1.31,-0.37194 z" 
                fill="rgb(151, 144, 238)" 
                stroke="white" 
                stroke-width=".7px"
                title="Iloilo" 
                id="PH-ILI" 
            />
        </svg>