<svg xmlns="http://www.w3.org/2000/svg" viewBox="319.87999999999994 252.41772000000014 86.64999999999998 87.8184599999999" width="86.64999999999998" height="87.8184599999999">
            <path 
                d="m 381.96,252.42776 -0.04,3.16653 4.35,7.14732 -0.98,0.64336 1.27,1.20629 -0.56,1.72902 1.41,0.8042 1.39,-0.59309 0.12,1.66871 1.73,0.5931 0.87,-0.76399 2.26,0.55288 1.21,-1.3973 1.63,1.01531 1.08,0.53278 2.63,5.2675 -0.24,1.72903 -0.73,2.12106 -1.3,2.25176 0.43,3.39773 1.36,1.2063 0.81,0.58305 2.56,-0.0603 1.93,-1.98033 1.38,3.34747 -1.33,4.59398 -3.19,4.62414 0.75,1.93008 -1.47,3.639 0.73,1.15604 -2.72,4.61407 0.54,2.10097 -1.27,0.84441 -8.73,17.87331 -1.94,2.15123 0,0 -10.2,-0.49257 0,0 -3.58,-0.26137 -23.71,10.86674 -14.35,-18.15479 -10.81,-0.88462 0,0 -0.62,-3.47814 -4.75,-4.53367 0,0 0.83,-1.29677 -0.7,-1.03541 1.31,0.13068 0.87,-1.73907 2.83,-0.33173 2.14,-2.66391 1.66,0.79414 6.31,-1.94013 3.07,-3.58873 -2.39,-12.86717 0,0 -0.33,-15.79245 0,0 3.98,-8.91654 5.11,-3.6591 -1.37,-4.82519 0,0 11.98,-0.74389 2.21,-1.28671 24.61,-1.00526 0,0 -0.04,0.0101 z" 
                fill="rgb(151, 144, 238)" 
                stroke="white" 
                stroke-width=".7px"
                title="Isabela" 
                id="PH-ISA" 
            />
        </svg>