<svg xmlns="http://www.w3.org/2000/svg" viewBox="243.10000000000005 300.0564 21.98999999999998 53.88127999999989" width="21.98999999999998" height="53.88127999999989">
            <path 
                d="m 252.74,300.0564 3.14,1.02536 1.48,-0.62327 0.93,1.10578 2.22,-1.35709 -0.74,5.68971 2.08,2.23165 -0.94,1.38724 1.5,0.22115 -0.63,0.98515 1.07,0.78409 -1.27,4.08131 3.51,4.26225 0,0 -2.8,3.91041 1.23,0.8042 -4.51,4.22203 -1.98,3.30727 3.13,19.68276 0,0 -0.95,1.93007 -6.1,0.23121 0,0 -1.15,-3.26706 -2.55,-1.58829 -1.22,-0.70367 -0.21,-4.91566 -1.62,-3.25701 0.11,-0.41215 0.4,-5.55902 -1.89,-2.46286 0.44,-1.40734 0.77,-4.02099 -3.09,-3.47816 2.25,0.48252 -0.03,-2.40254 2.16,-3.00569 0.26,-3.71942 -1.27,-5.13682 0.79,-2.59353 4.61,-3.31732 z" 
                fill="rgb(151, 144, 238)" 
                stroke="white" 
                stroke-width=".7px"
                title="La Union" 
                id="PH-LUN" 
            />
        </svg>