<svg xmlns="http://www.w3.org/2000/svg" viewBox="296.18 476.72864999999996 45.13999999999993 45.718680000000006" width="45.13999999999993" height="45.718680000000006">
            <path 
                d="m 329.65,476.72869 6.46,12.49523 1.08,-0.70367 1.64,1.59834 1.93,0.25131 0.56,9.91174 -4.77,6.76532 -1.19,-0.0905 -1.88,1.8597 -2.17,5.40824 -4.45,0.73383 -7.37,5.85054 -4.97,1.63856 0,0 -0.04,-2.01049 -1.33,0.22115 -1.92,-2.92528 -1.59,-7.81077 -6.29,-1.8396 -4.71,0.18094 0,0 0.3,-3.58873 -0.96,-0.27142 1.41,-2.73427 -1.27,-0.41216 2.56,-6.05159 -4.5,1.28672 0.29,-2.88506 0,0 3.12,-2.11102 0.44,-8.66524 3.16,-2.71417 0,0 2.21,-0.21109 2.05,1.50787 3.77,7.61978 0.25,-4.72467 1.09,0.0201 1.33,-3.257 1.94,0.31162 0.21,2.03061 1.6,0.0603 1.67,1.69887 0.94,3.76968 -2.51,6.27275 0.25,2.8348 5.75,-4.08132 -1.53,-1.68881 0.55,-2.34223 -1.09,-4.37283 1.13,-4.58392 3.1,-2.96548 3.75,-1.28672 z m -15.36,17.12942 -1.19,-0.18094 -1.24,-5.57913 -0.52,5.31776 1.92,4.54372 -0.15,-2.81469 1.27,-0.30157 -0.09,-0.98515 z m 0.14,-12.1836 0,0 -0.16,0.23121 0.16,-0.23121 z m 0.27,0.0804 0,0 -0.11,0.11057 0.11,-0.11057 z m -0.43,-0.52273 0,0 -0.07,0.0503 0,0 0.07,-0.0503 0,0 z" 
                fill="rgb(151, 144, 238)" 
                stroke="white" 
                stroke-width=".7px"
                title="Laguna" 
                id="PH-LAG" 
            />
        </svg>