<svg xmlns="http://www.w3.org/2000/svg" viewBox="499.8999999999998 947.637 71.97000000000008 58.334499999999935" width="71.97000000000008" height="58.334499999999935">
            <path 
                d="m 549.28,953.05528 2.69,3.33743 1.79,7.9314 2.97,5.77012 1.88,1.04546 -0.49,1.46766 1.01,1.77929 2.13,0.76398 3.49,6.03149 1.39,0.72378 0.08,3.10622 1.76,1.56819 0.05,1.95017 3.54,2.19144 0.3,1.4375 0,0 -7.73,-2.65385 -3.75,1.96024 -2.94,-0.68357 -2.88,-3.70937 -2.21,-0.64336 -3.04,0.24126 -4.04,1.95018 0,0 0,0 0,0 -5.45,6.16217 -8.39,4.28229 -3.99,4.956 0.27,1.4877 0,0 -1.36,0.4624 -3.75,-2.312 1.29,-1.0556 -2.1,-3.79978 -7.52,-9.81123 -2.06,0.32168 -0.86,-1.6084 -4.21,-2.06076 -7.25,-0.54283 0,0 1.73,-1.95018 -0.14,-1.27667 11.88,3.66915 0.97,-2.08086 -0.39,-2.23164 2.64,-5.25745 -1.6,-5.44845 6.4,-0.38199 1.94,-4.42309 -0.78,-2.69407 6.28,-1.00524 4.74,-4.8654 -0.25,-3.62894 1.64,-5.56908 2.42,-0.32167 1.05,1.20629 8.71,2.6036 2.14,1.60839 z" 
                fill="rgb(151, 144, 238)" 
                stroke="white" 
                stroke-width=".7px"
                title="Lanao del Sur" 
                id="PH-LAS" 
            />
        </svg>