<svg xmlns="http://www.w3.org/2000/svg" viewBox="485.8499999999998 938.21783 69.20000000000005 47.317010000000096" width="69.20000000000005" height="47.317010000000096">
            <path 
                d="m 531.13,939.22307 5.56,-1.00524 10.87,0.66345 4.48,2.85491 2.29,4.19188 0,0 -0.33,1.85971 1.05,1.74913 -1.06,2.00045 -4.71,1.51792 0,0 -2.13,-1.63855 -8.71,-2.59355 -1.05,-1.20629 -2.42,0.32168 -1.64,5.56907 0.25,3.62894 -4.74,4.86541 -6.27,1.00525 0.78,2.70411 -1.95,4.41303 -6.4,0.382 1.6,5.44844 -2.64,5.25745 0.38,2.2417 -0.97,2.08087 -11.88,-3.66916 0.14,1.27666 -1.73,1.96024 0,0 -2.98,-0.25131 -0.75,-2.10097 -2.01,0.0302 0.17,-2.3925 -1.3,-1.92002 -2.1,-0.51268 0.02,-1.09571 -5.1,-1.15604 0,0 3.53,-9.14775 0,0 1.83,-1.98034 3.83,-1.36714 2.78,-4.26225 3.44,-2.0708 1.02,-1.93009 1.49,0.61321 2.21,-0.79415 2.39,-2.83479 6.21,-3.25701 9.96,0.93489 4.82,-1.90998 3.1,-4.94582 z" 
                fill="rgb(151, 144, 238)" 
                stroke="white" 
                stroke-width=".7px"
                title="Lanao del Norte" 
                id="PH-LAN" 
            />
        </svg>