<svg xmlns="http://www.w3.org/2000/svg" viewBox="534.2800000000001 700.9592 62.43999999999983 101.72101999999973" width="62.43999999999983" height="101.72101999999973">
            <path 
                d="m 536.17,700.95925 8.88,8.95676 2.35,3.8903 0.77,-1.29677 -1.28,-2.86495 1.15,-0.68357 4.23,2.24171 1.07,6.31295 2.4,2.55333 1.67,-0.53278 3.02,1.35709 4.42,-1.00525 6.62,-5.01619 1,-4.22204 3.44,0.47247 1.17,1.2063 1.76,-0.96504 0.81,1.04546 2.01,-1.43752 1.02,2.50307 1.7,-0.37194 -0.8,1.46767 0.76,0.73383 -1.2,1.25655 0.02,5.33787 1.07,1.99039 2.24,0.14074 -0.2,2.34223 1.03,0.8444 -0.89,3.94057 2.34,6.62458 -0.36,9.76096 -2.32,6.6648 1.71,7.83088 1.13,1.4576 5.37,1.56819 -0.77,1.64861 3.21,3.76967 0,0 -7,7.25789 -8.21,-0.0302 -3.39,8.83612 0.49,10.27364 -3.81,0.8243 -5.23,5.03629 -1.15,-0.50262 0,0 2.25,-9.25834 -1.81,-2.92526 -2.39,-1.38725 -0.9,-7.96156 3.34,-3.87021 0.33,-6.22248 2.39,-2.84485 -1.52,-8.56471 -5.49,-7.69014 -1.68,-4.28236 -2.19,-0.97509 -4.24,-4.56382 -1.77,0.30157 -2.36,2.36233 0.92,3.52842 -2.5,4.58393 -2.85,0.14073 -2.03,-2.34223 -1.2,0.62326 0.38,-2.18138 -1.33,-2.18139 -0.32,2.58349 -2.89,-0.75394 2.46,-4.37283 -0.33,-3.73952 -2.58,-2.31207 2.33,-3.41784 -1.27,-6.84574 0.13,-1.72902 0.15,-1.22641 -0.84,-2.29197 -0.65,-1.08566 0.32,-1.19624 -2.14,-0.72378 -0.04,-3.52843 1.42,-0.25131 -2.15,-0.89466 -0.42,-1.31688 1.69,-0.77405 -2.32,-0.62325 -1.99,-5.83044 -0.05,-3.32736 1.89,-1.84966 z" 
                fill="rgb(151, 144, 238)" 
                stroke="white" 
                stroke-width=".7px"
                title="Leyte" 
                id="PH-LEY" 
            />
        </svg>