<svg xmlns="http://www.w3.org/2000/svg" viewBox="509.2 988.6210400000006 76.95999999999987 73.25195999999926" width="76.95999999999987" height="73.25195999999926">
            <path 
                d="m 514.86,1014.5965 -0.18,-2.5533 4.19,-3.2871 -2.5,3.2067 0.26,1.3973 -1.77,1.2364 z m 63.6,37.4958 -3.98,1.0958 -2.06,-0.9249 -0.48,-16.0237 -1.3,0.01 0.02,-0.7942 0.25,-3.5083 1.95,0.091 0.15,-1.8698 -2.08,-0.091 0.05,-1.7995 -6.19,-5.9108 0.3,0.8142 -1.56,0.4725 0.09,2.0306 2.6,1.2968 1.14,1.8295 -1.35,-0.07 0.45,1.8697 -1.39,-1.4073 -0.84,2.1714 -0.24,-1.0857 -1.02,0.191 -0.45,1.4073 1.55,0.8344 1.05,2.4427 -0.65,0.7941 0.98,0.563 -2.42,1.91 0.28,1.357 -0.87,0.4624 -3.73,-2.0305 -2.86,0.2815 -3.86,-5.0162 -2.3,0.7137 -5.29,-4.2522 5.83,-10.6456 -2.85,-0.7539 -3.98,1.2465 -3.01,4.3828 -3.22,-0.4624 5.71,-9.5599 1.01,0.4826 4.73,-10.8065 -3.84,-5.56903 0.5,-9.64033 -5.45,6.16217 -8.39,4.28229 -3.99,4.956 0.27,1.4877 0.59,0.965 2.62,-0.382 0.38,2.5835 0.89,0.2614 -0.3,1.91 -3.06,0.2412 0.38,3.2671 -0.82,3.0861 0.79,0.9349 -2.08,-0.4323 -0.16,2.1714 -1.17,-0.2615 -0.79,1.5784 3.85,0.5529 1.83,1.6183 -0.7,-0.01 0,0 -0.01,0 -1.24,-1.518 -3.08,-0.081 -3.91,3.2269 -3.59,0.4423 -4.72,7.5293 -3.25,9.5901 1.35,3.1866 -1.27,0.8947 0.32,1.9501 -1.37,0.7339 1.33,0.4021 -0.12,1.8195 1.12,-0.4021 -0.38,1.7793 2.92,-1.8396 2.21,3.1665 4.27,0.081 12,-0.2714 1.25,2.1512 16.58,0.06 5,-5.2876 -1.71,-4.8252 7.4,-1.5884 -0.19,0.945 2.92,0.1709 -2.14,6.1722 5.78,0.1207 2.35,7.9616 1.53,1.7088 6.26,-0.5126 8.58,-4.6745 -7.7,-4.5939 z" 
                fill="rgb(151, 144, 238)" 
                stroke="white" 
                stroke-width=".7px"
                title="Maguindanao" 
                id="PH_MG" 
            />
        </svg>