<svg xmlns="http://www.w3.org/2000/svg" viewBox="354.34999999999985 551.86084 24.689999999999998 27.71469000000002" width="24.689999999999998" height="27.71469000000002">
            <path 
                d="m 358.73,551.8609 0.31,1.31688 1.08,-0.41215 0.44,1.63855 1.51,0.76399 0.98,-1.34703 2.68,0.91478 2.26,0.67351 0.83,-1.96023 1.71,1.51792 -0.69,1.15604 1.78,0.0502 0.73,1.95018 -1.04,0.1709 2.27,0.61319 0.84,-0.98514 2.96,2.55333 -0.72,2.20149 -1.11,-0.67351 -0.11,0.93488 3.6,3.80989 -7.51,7.03673 0.45,2.65385 -1.83,3.13638 -3.35,-0.63331 -2.26,-3.03585 -6.17,-2.71417 -3.33,-4.50351 0.34,-4.32257 -1.03,-3.28715 3.74,-6.27275 -0.57,-0.67352 0.76,-0.71372 -0.65,-1.05551 1.1,-0.50263 z" 
                fill="rgb(151, 144, 238)" 
                stroke="white" 
                stroke-width=".7px"
                title="Marinduque" 
                id="PH-MAD" 
            />
        </svg>