<svg xmlns="http://www.w3.org/2000/svg" viewBox="435.50999999999993 582.5511199999996 82.88000000000017 106.69706000000042" width="82.88000000000017" height="106.69706000000042">
            <path 
                d="m 450.44,678.87396 0.61,0.74388 -1.49,1.27667 -0.26,-1.3973 1.14,-0.62325 z m 7.49,-54.84632 10.29,4.4231 -2.86,0.18093 1.55,4.08131 -2.68,1.23645 0.73,1.44757 1.03,0.68356 1.05,-2.41259 1.69,0.37194 -1.31,-2.02055 0.51,-1.11583 2.18,-1.09571 2.94,0.47246 6.65,5.0765 1.37,-0.94493 1.07,3.68926 2.86,2.12107 -2.6,2.10097 3.41,-0.49257 0.81,0.14073 1.37,1.29677 1.35,-0.53277 1.83,1.23644 6.41,10.16306 0.77,-0.41215 -0.93,-1.87981 1.37,-1.31688 1.65,0.57299 2.32,3.11627 1.31,-2.06076 1.61,0.98515 1.73,4.20193 9.66,13.66132 -0.26,1.52798 -2.61,-4.51356 -1.08,-0.22116 -0.37,1.74913 1.47,2.71417 0.87,-0.0502 3.28,7.28804 -1.06,4.32257 1.08,5.42834 -1.48,-0.41215 -2.62,-4.37283 -6.84,-5.8606 -1.05,0.22116 -3.24,-2.71418 -0.16,-0.0603 -9.91,-2.34223 0.44,-1.09571 -1.19,-0.74389 1.42,-1.80945 1.39,-0.16084 -7.28,-4.77492 -0.65,-1.37719 -2.92,-0.64336 1.01,-1.54808 -5.58,-8.5245 -2.72,-1.00524 -5.16,1.71896 -4.4,6.8759 -2.34,1.11582 -0.85,1.68882 -0.69,-0.37194 -1.31,3.91042 -9.98,8.64513 -1.27,-1.88987 3.91,-6.50396 -0.42,-1.39729 1.13,-1.50788 0.85,-5.43838 1.63,-0.41215 3.04,-1.82955 -0.93,-2.61365 1.13,-1.23646 -1.59,-2.35228 -2.44,2.14119 -0.89,-1.52798 1.29,-0.16084 -0.85,-2.10097 3.17,-4.9056 -0.52,-3.1967 1.11,-0.72378 0.97,-2.53321 -0.85,-0.45237 0.95,-0.92482 -2.8,-1.29677 -0.97,-10.71595 z m 28.14,-6.86584 2.22,3.257 3.95,1.92002 -0.87,0.58305 0.46,0.33173 1.63,-0.0201 0.69,2.14119 0.06,0.99519 0.85,2.39249 0.22,0.53278 1.33,2.72422 0.34,5.8807 1.27,0.45236 -0.5,2.66391 1.11,0.14073 -0.85,2.3925 -4.46,-4.76488 -3.11,-4.51356 0.1,-1.3973 -3.79,-4.52361 -1.67,-4.74477 -0.85,0.47247 -1.47,-2.25176 0.22,-1.64861 0.71,1.52798 0.77,-0.90473 0.93,0.72378 -1.31,-2.95542 2.02,-1.40735 z m -45.66,-34.61068 1.19,1.57824 2.38,0.15079 10.05,16.46596 4.01,0.29151 2.7,1.46767 0.87,5.37807 7.04,9.3086 -1.84,-0.20105 -1.81,-1.92003 -5.26,-8.20282 -4.56,-0.68357 -2.08,-3.20674 -2.32,-0.55288 0.65,-1.0153 -2.88,-1.40735 -1.27,-2.89511 -0.95,0.47246 -0.99,-3.05595 -5.69,-0.60315 -1.49,-2.40254 -1.41,0.95498 0.03,-2.97553 1.02,-1.37719 -2.29,-2.15123 2.94,-1.16609 1.96,-2.25175 z" 
                fill="rgb(151, 144, 238)" 
                stroke="white" 
                stroke-width=".7px"
                title="Masbate" 
                id="PH-MAS" 
            />
        </svg>