<svg xmlns="http://www.w3.org/2000/svg" viewBox="289.52 461.32829999999996 15.630000000000166 32.28854999999993" width="15.630000000000166" height="32.28854999999993">
            <path 
                d="m 289.52,468.02325 0.79,-0.77405 1.26,1.5883 0.92,-0.47247 -1.62,-3.22684 0.88,-0.40211 1.37,0.56295 0.29,1.40734 1.41,-0.2111 1.05,-2.40255 0,0 0.26,-0.26136 0,0 2.41,-0.60315 0.29,-1.57823 1.07,-0.32168 1.02,1.27666 2.91,0.34179 0,0 0.04,1.4375 1.23,0.10053 -2,4.74476 2.05,1.32692 -0.32,1.72904 -1.88,0.60314 0.57,2.67396 -1.17,1.73908 0.87,2.82475 0,0 -3.16,2.71416 -0.44,8.66524 -3.12,2.11102 0,0 -0.02,-2.33217 -3.19,-4.92571 0.07,-2.11103 0,0 1.42,-1.97028 -1.08,-0.51267 0.8,-0.60316 0,-3.26706 -3.04,-2.60358 0.36,-1.3973 0.84,0.93488 0.19,-2.76443 -0.81,0.19099 -2.52,-4.23208 z" 
                fill="rgb(151, 144, 238)" 
                stroke="white" 
                stroke-width=".7px"
                title="Metropolitan Manila" 
                id="PH-MNL" 
            />
        </svg>