<svg xmlns="http://www.w3.org/2000/svg" viewBox="280.81000000000023 556.2035600000002 55.15999999999991 96.92597999999998" width="55.15999999999991" height="96.92597999999998">
            <path 
                d="m 293.79,559.52089 5.99,4.69451 2.36,-0.79415 1.02,-0.16084 2.38,0.58305 3.29,-0.54283 1.26,-1.49783 4.66,6.10186 0.16,-0.76399 2.66,1.48777 5.47,7.9113 2.55,-0.18094 1.98,1.05551 0.14,6.22248 1.89,0.69362 2.87,-1.21635 3.5,2.38244 -0.01,2.25175 -3.78,2.57344 -1.34,2.71416 0.9,5.94102 -1.17,2.62369 0.83,4.07126 -1.31,5.5188 5.28,7.76052 -0.16,1.0354 0.12,1.7994 -1.51,2.65385 -0.06,0.4021 -1.47,3.16653 -3.15,2.2417 -1.84,0.0603 0.54,2.96548 -2.58,2.4327 0.24,3.46811 2.88,2.80464 -5,-0.1709 0.99,5.56908 -1.05,-0.62326 -1.13,-0.29152 -0.12,-2.06076 -1.53,0.10053 -0.9,2.30201 -4.08,0.74389 -2.45,5.57912 0,0 -0.79,-14.11367 1.07,-18.71771 -0.34,-30.6098 -8.57,-3.21679 -10.17,-6.46374 -13.5,-6.45369 6.27,-9.85143 0.62,-6.50396 0,0 1.64,-0.99519 2.1,0.6534 0.79,0.0603 1.56,2.60358 z" 
                fill="rgb(151, 144, 238)" 
                stroke="white" 
                stroke-width=".7px"
                title="Mindoro Oriental" 
                id="PH-MDR" 
            />
        </svg>