<svg xmlns="http://www.w3.org/2000/svg" viewBox="224.28999999999996 527.3429099999998 89.12000000000006 129.97854000000018" width="89.12000000000006" height="129.97854000000018">
            <path 
                d="m 296.56,651.19949 1.57,2.76443 -2.12,-0.29152 -0.38,-1.37719 0.93,-1.09572 z m 4.09,-4.66435 2.5,4.74477 -0.54,3.15648 1.27,-0.61321 1.55,2.49301 -1.21,1.00526 -2.44,-1.56819 -0.85,-2.86495 -2.68,-0.94493 0.36,-4.76488 2.04,-0.64336 z m -46.82,-91.36697 3.76,1.6285 5.98,-0.29152 4.14,1.47771 3.98,-0.27141 5.91,2.10097 10.12,-2.6036 0,0 -0.62,6.50395 -6.27,9.85143 13.5,6.4537 10.17,6.46373 8.57,3.2168 0.34,30.60979 -1.07,18.71772 0.79,14.11368 0,0 -2.45,-2.2417 -3.69,-0.37195 -3.39,0.0201 0.08,-1.63856 -1.41,-1.65865 1.09,-0.82431 1.53,0.96504 -0.4,-1.85971 -1.11,-3.25701 -1.39,-0.53277 -1.17,1.21635 -2.3,-1.00525 -8.39,-10.82652 -0.44,-2.66391 1.4,-2.77448 -0.7,-2.44275 -4.63,-5.6897 -0.59,-2.04066 -4.81,-1.23645 -0.47,-6.60448 -1.66,-1.29677 2.31,-4.95587 -1.27,-1.92003 -0.6,-2.69405 -0.07,-0.8042 -2.2,-5.88071 -6.07,-9.81121 -3.21,-0.81425 -2.73,-2.16128 -3.49,0.37193 0.08,-3.10621 -1.39,0.0201 -1.64,-2.04064 0.35,-1.90998 -1.49,-4.17178 0.55,-1.73907 -0.89,-1.28673 -1.89,-0.88461 -3.23,1.21635 0.29,1.79939 -0.96,0.84441 -2.67,-0.52273 -2.57,-2.85491 -0.79,-1.88986 2.03,-3.33742 2.7,-1.80944 4.45,-0.86452 z m -8.58,-11.5905 5.47,2.14117 2.14,-0.12063 0.79,2.0507 -2.56,-0.39204 -5.84,-3.6792 z m -1.13,-11.48999 3.28,2.17133 -0.16,1.34704 -1.63,1.06556 -3.69,-2.43269 1.59,-0.54284 0.61,-1.6084 z m -14.45,-2.16128 3.3,0.67352 4.72,3.35752 1.48,-0.80419 4.75,6.47379 -1.92,-0.10052 -0.83,1.18618 1.49,1.1862 1.25,-0.45236 0.52,1.84965 -1.27,-0.0603 -0.77,1.21635 -1.01,-2.38243 -2.32,-0.52274 -1.35,-1.82954 -2.08,-0.18095 -5.37,-3.57869 -0.44,-3.81993 -1.31,-0.97509 1.16,-1.23646 z m -4.12,-2.58349 1.67,1.58829 -0.75,0.87457 -2.18,-1.42745 1.26,-1.03541 z" 
                fill="rgb(151, 144, 238)" 
                stroke="white" 
                stroke-width=".7px"
                title="Mindoro Occidental" 
                id="PH-MDC" 
            />
        </svg>