<svg xmlns="http://www.w3.org/2000/svg" viewBox="531.1299999999999 883.06994 73.31000000000017 62.83802999999989" width="73.31000000000017" height="62.83802999999989">
            <path 
                d="m 600.82,883.06994 2.22,9.93184 -1.24,2.47291 2.64,3.60884 -1.75,1.39729 0.78,14.34488 0,0 0.14,5.71987 0,0 -15.6,0.17089 -11.7,-1.08567 -3.94,8.77581 0.18,3.83 -14.43,-0.20105 -0.2,4.17178 -1.18,1.80944 0.43,2.74433 -0.99,1.08567 -0.91,-0.44231 0.27,2.35228 -1.21,2.15123 0,0 -2.29,-4.19189 -4.48,-2.85489 -10.87,-0.66347 -5.56,1.00524 0,0 1.21,-3.73951 1.49,-1.32693 0.06,-4.86541 2.3,-5.86059 9.72,-5.99127 2.08,0.24125 -0.53,2.22161 2.97,1.2264 2.34,2.38243 1.88,0.16084 0.6,1.44756 5.53,0.67352 -0.89,1.54808 1.45,-1.34704 0.36,1.72903 2.54,0.79415 2.84,-1.46767 0.89,-1.48776 -0.8,-3.27711 2.12,-2.68401 -0.67,-3.46811 -1.45,-0.68356 -0.13,-3.10622 1.29,-1.78933 1.41,-0.0201 -0.97,-3.60884 1.81,-4.19189 -0.81,-11.12809 2.85,-2.11102 3.68,-0.26136 11.33,6.55421 3.9,6.61454 6.18,-1.26662 1.78,-5.98123 -1.16,-6.06164 0.98,-1.32692 0.18,-3.72947 1.33,-0.94493 z" 
                fill="rgb(151, 144, 238)" 
                stroke="white" 
                stroke-width=".7px"
                title="Misamis Oriental" 
                id="PH-MSR" 
            />
        </svg>