<svg xmlns="http://www.w3.org/2000/svg" viewBox="480.61 914.11198 22.92999999999995 48.02073000000007" width="22.92999999999995" height="48.02073000000007">
            <path 
                d="m 485.11,914.11198 0.78,0.60315 -0.51,0.79415 1.69,0.64336 3.5,0.0101 4.12,4.53367 2.9,3.257 -0.22,2.17133 2.68,2.13113 -0.08,1.61845 1.58,2.00044 0.65,5.81033 1.22,1.72903 -1.13,0.86451 -0.07,2.16128 1.32,9.1377 -5.63,4.17178 -2.02,3.71942 -3.49,-0.30157 -5.45,2.96547 0,0 -0.08,-1.31686 -2.44,0.51267 -2.81,-1.49782 -1.01,-12.45502 0,0 0.37,-29.74528 0,0 0.77,0.39205 0.91,-1.21635 0.61,0.35183 1.22,-1.76924 -1.7,-0.54283 2.32,-0.73383 z" 
                fill="rgb(151, 144, 238)" 
                stroke="white" 
                stroke-width=".7px"
                title="Misamis Occidental" 
                id="PH-MSC" 
            />
        </svg>