<svg xmlns="http://www.w3.org/2000/svg" viewBox="279.25 270.92441 56.539999999999964 36.17886999999996" width="56.539999999999964" height="36.17886999999996">
            <path 
                d="m 335.45,272.84434 0.34,15.79245 0,0 -8.35,-0.67352 -6.37,0.97509 -8.98,4.58393 -8.63,-0.59309 -3.63,0.22115 -2.43,1.32692 -3.4,-0.29152 -0.64,1.97029 0.91,2.89511 -2.5,5.75002 -2.32,2.26181 -2.68,0.0403 0,0 -1.74,-0.84442 -0.77,-2.59353 -5.01,-4.69451 0,0 0.82,-2.82474 -0.45,-10.48473 5.64,-5.91086 0,0 2.86,-0.191 1.27,-1.71898 -0.03,-2.59353 0,0 10.29,1.04546 2.18,3.07605 5.49,1.89992 6.35,-1.36714 6.64,-7.21768 5.04,-1.75918 z" 
                fill="rgb(151, 144, 238)" 
                stroke="white" 
                stroke-width=".7px"
                title="Mountain Province" 
                id="PH-MOU" 
            />
        </svg>