<svg xmlns="http://www.w3.org/2000/svg" viewBox="395.4299999999999 742.36541 86.58000000000004 116.64895000000013" width="86.58000000000004" height="116.64895000000013">
            <path 
                d="m 454.94,742.36541 3.65,0.4222 1.54,0.90472 3.71,2.68402 6.6,-0.28148 4.38,2.49302 1.7,-1.26661 1.58,1.34703 -1.42,0.79415 1.87,0.47246 0.9,4.78499 2.37,-0.54285 -0.69,1.86977 0.88,1.76923 -1.94,3.26706 -1.12,-0.8042 0.33,1.53803 -1.61,2.55333 -1.46,8.01183 -1.2,3.84004 -0.98,0.41215 0.44,1.18619 -3.04,3.44801 -4.72,2.53321 -1.6,4.37283 0,0 -6.13,-2.27186 -8.89,0.23121 5.21,10.49478 -6.3,7.64995 -6.78,11.30904 -2.14,7.40867 -18.45,23.60321 -6.45,6.53412 -2.51,5.8807 0,0 -5.49,-5.25745 -1.35,-3.77973 -2.8,-1.5883 -1.09,-4.38287 -1.61,0.27141 1.05,-2.89511 -1.96,-0.83436 -1.66,0.88462 -0.7,-0.98514 1.69,-1.96023 -1.81,0.57299 -1.17,-1.18619 1.31,-2.65386 -0.75,-3.32737 0.91,-1.94012 -1.81,-1.54809 4.07,-4.60403 1.35,-5.65955 4.05,-0.77404 11.43,0.65341 8.33,-6.58437 3.32,0.27142 3.13,-2.3925 -1.96,-9.59006 0.06,-5.25745 1.66,-5.40823 -4.99,-11.16829 2.29,-2.19145 1.96,0.28147 1.9,-1.19624 0.14,-1.2063 2.58,-2.09092 1.83,-5.2876 0.16,-3.17658 1.25,-0.47246 0.38,-4.58394 -1.28,-1.08566 -0.53,-3.45806 1.05,-1.08567 -0.32,-1.93007 6.31,-2.11102 1.58,1.32693 4.94,-4.77493 1.97,-0.191 2.85,-2.29196 z" 
                fill="rgb(151, 144, 238)" 
                stroke="white" 
                stroke-width=".7px"
                title="Negros Occidental" 
                id="PH-NEC" 
            />
        </svg>