<svg xmlns="http://www.w3.org/2000/svg" viewBox="412.66 785.8926299999999 52.43999999999994 101.12792000000013" width="52.43999999999994" height="101.12792000000013">
            <path 
                d="m 412.66,859.0043 2.51,-5.88069 6.45,-6.53411 18.45,-23.60322 2.14,-7.40868 6.78,-11.30904 6.3,-7.64993 -5.21,-10.49479 8.89,-0.23121 6.13,2.27186 0,0 -0.34,7.72031 -3.34,6.86584 -0.28,4.0612 -3.88,9.19801 -3.27,3.67921 -0.4,2.26181 -1.92,1.38725 0,3.68925 -1.43,1.08566 2.14,9.70065 -0.41,5.42834 -2.29,-1.61845 -1.27,1.94013 1.2,2.19144 2.47,0.28146 0.52,1.42746 -0.99,1.10577 0.13,-1.2465 -1.06,-0.49257 -1.29,2.6639 2.48,0.0603 2.2,5.01619 3.22,1.09572 2.32,6.16217 2.82,2.07081 0.97,2.44275 -2.04,8.09225 -5.98,8.46418 -3.7,1.4174 -1.75,2.16129 -1.13,-0.5931 -2.71,-0.94493 -4.27,2.08086 -5.37,-2.72422 -4.62,-10.97731 -0.99,-7.64994 -5.08,-2.51312 -8.71,-1.22639 -4.39,-2.92528 z" 
                fill="rgb(151, 144, 238)" 
                stroke="white" 
                stroke-width=".7px"
                title="Negros Oriental" 
                id="PH-NER" 
            />
        </svg>