<svg xmlns="http://www.w3.org/2000/svg" viewBox="519.42 617.1014799999999 91.25000000000034 41.2553700000002" width="91.25000000000034" height="41.2553700000002">
            <path 
                d="m 520.54,647.11818 1.04,1.13593 -1.11,1.37719 -1.05,-1.84966 1.12,-0.66346 z m 12.87,-5.35797 -2.01,-3.11627 -0.27,-4.10141 2.49,3.38769 -0.21,3.82999 z m -9.74,-8.70544 3.62,4.99608 -0.75,2.33217 -3.14,-3.75963 0.27,-3.56862 z m 20.68,-7.44889 0.34,1.25656 1.73,0.5931 -1,0.86451 -2.11,-0.95499 1.04,-1.75918 z m 4.66,-0.10053 2.11,2.91522 -1.48,0.15079 -2.1,-2.90517 1.47,-0.16084 z m -9.37,-0.62325 1.6,0.4021 -0.2,1.25656 -1.46,0.31162 -0.62,-1.8396 0.68,-0.13068 z m -0.29,-2.87501 2.51,1.85971 0.2,1.77929 -2.4,-1.11583 0.5,-1.26661 -0.81,-1.25656 z m 45.86,-1.08566 1.47,1.31688 0.44,2.17133 3.83,1.6486 -1,1.38724 -0.61,0.96504 1.93,0.47247 -0.08,-3.19669 1.71,-0.29153 1.13,1.42746 2.44,-1.5883 8.85,6.86585 -0.52,1.42746 2.26,0.33173 0.28,3.01574 3.07,1.66871 -2.8,0.62325 1.25,0.8042 -1.31,0.16084 0.52,1.52798 -1.43,0.62325 0.32,1.85971 2.22,0.2312 -2.46,1.6084 0.5,1.15604 3.29,-1.87982 -0.67,1.23646 0.83,1.11582 -1.35,0.28148 0,0 -2.12,1.27666 -7.1,-8.06209 -2.05,2.2216 -1.06,4.0612 0,0 -3.48,0.35184 -9.53,3.92046 -4.92,-1.81949 -3.58,8.51444 -1.87,-2.73427 0.86,-3.20674 -9.34,-5.33787 -5.29,3.59879 -11.47,-6.88594 -3.99,3.84004 -5.17,0.0603 0,0 -1.72,-4.80508 0.84,-2.90516 -0.56,-0.42221 -0.52,1.17613 -1.42,-4.66434 -0.1,-0.33174 -1.75,-1.75918 -0.2,-3.80989 -1.53,-2.26181 1.44,-2.53321 3.22,2.09091 0.33,1.45761 0.85,-0.8243 1.13,0.61319 -0.11,-1.34703 2.66,1.31688 -0.03,-2.09091 2.12,1.63854 -0.02,1.12588 1.61,-0.33172 1.71,-0.87458 -0.86,1.34704 0.54,1.21635 0.95,-0.10052 -0.11,-1.81951 2.69,1.28672 3.38,0.0201 0.61,-0.8042 6.94,0.91478 5.32,0.25131 4.64,-2.10097 2.95,1.25656 2.02,-0.53278 1.14,-2.35228 -1.77,-1.41741 2.13,0.49258 0.32,0.43226 2.91,0.33173 1.77,-1.27666 0.55,1.48776 -0.91,0.46242 2.79,0.4423 1.74,-1.02535 -1.69,-5.73996 z m 5.42,-2.93533 1.68,6.01139 -4.05,-1.40735 1.39,-0.12063 0.48,-1.19624 -2.22,-0.92483 0.14,-1.46767 0.56,-0.92482 2.02,0.0302 z m -51.15,-0.88462 2.04,0.82431 0.3,3.257 -2.01,-1.1862 -0.33,-2.89511 z" 
                fill="rgb(151, 144, 238)" 
                stroke="white" 
                stroke-width=".7px"
                title="Northern Samar" 
                id="PH-NSA" 
            />
        </svg>