<svg xmlns="http://www.w3.org/2000/svg" viewBox="267.44 360.15011 55.41999999999996 72.37783000000007" width="55.41999999999996" height="72.37783000000007">
            <path 
                d="m 286.83,361.67809 10.64,-1.52798 10.81,2.66391 1.64,13.78194 6.08,10.37416 0,0 6.86,21.60277 -4.68,21.37157 0,0 -5.12,-0.37194 -7.07,-5.12676 -8.9,1.51792 -4.78,2.57343 0,0 -3.96,0.75394 -2.35,3.23689 -1.46,-3.01573 -4.44,0.0403 -1.11,-4.73471 0,0 0.73,-2.93533 -3.1,-2.36232 0.24,-3.29723 1.62,-2.65385 -3.11,-9.90169 2.33,-4.19188 -4.15,-1.13593 -3.11,-3.29721 -3,-12.71639 0,0 9.5,-1.54808 5.74,4.50352 2.56,-2.10097 4.67,-11.92225 z" 
                fill="rgb(151, 144, 238)" 
                stroke="white" 
                stroke-width=".7px"
                title="Nueva Ecija" 
                id="PH-NUE" 
            />
        </svg>