<svg xmlns="http://www.w3.org/2000/svg" viewBox="278.05 313.18494 51.44 73.78517999999991" width="51.44" height="73.78517999999991">
            <path 
                d="m 319.86,313.18494 4.76,4.53367 0.62,3.4681 0,0 -2.15,14.4052 5.23,1.75918 -0.98,6.72511 -10.47,4.38288 2.06,18.23519 10.56,9.25833 0,0 -13.49,11.01752 0,0 -6.08,-10.37416 -1.64,-13.78194 -10.81,-2.66391 -10.64,1.52798 0,0 -2.8,-4.95588 -5.26,-2.25175 0,0 -0.72,-3.14643 3.41,-6.05159 2.87,0.16084 3.33,-8.53455 -0.55,-5.44845 1.56,-6.80552 0,0 23,-3.84005 0,0 0.38,-0.12063 0,0 3.7,-1.59834 1.31,0.54283 -0.41,-2.06076 1.85,-0.65341 z" 
                fill="rgb(151, 144, 238)" 
                stroke="white" 
                stroke-width=".7px"
                title="Nueva Vizcaya" 
                id="PH-NUV" 
            />
        </svg>