<svg xmlns="http://www.w3.org/2000/svg" viewBox="-2.220446049250313e-16 644.3336199999998 301.5 333.16929000000016" width="301.5" height="333.16929000000016">
            <path 
                d="m 10.48,957.65932 0.42,4.12151 -0.02,1.05551 -0.22,0.9751 0.83,6.22248 -1.31,0.6132 0.77,1.23645 -1.27,2.76443 -2.46,2.23165 -0.14,0.36189 -1.03,0.26137 -1.37,-0.83436 0.49,-2.60359 -1.24,-0.22116 -1.94,-4.35272 -1.51,-0.0603 -0.48,-1.66871 1.17,0.45236 1.61,-1.54809 -1.21,-3.49825 1.23,-4.05115 0.12,2.76443 2.57,-1.94013 -0.53,-1.3973 5.52,-0.88461 z m -3.13,-4.02099 1.56,0.87456 0.85,2.4327 -3.38,0.98514 -0.51,-1.48776 -1.41,-0.51268 2.89,-2.29196 z m 8.03,-3.64905 3.49,0.0603 1.25,1.8396 -4.14,0.18095 -1.23,-1.61845 0.63,-0.46241 z m -3.69,-4.97599 1.82,0.45237 0.88,1.87982 -3.09,-0.0603 0.39,-2.27187 z m 16.93,-5.57911 2.14,2.4528 -0.41,5.91086 -3.83,2.28191 -2.22,-2.23166 0.36,-6.94626 0.78,-1.35708 3.18,-0.11057 z m -6.7,0.92482 2.03,-0.23121 -0.13,1.90997 -2.66,1.93008 -3.2,0.48252 -0.95,-2.21154 2.17,-0.33174 2.78,-3.54852 -0.04,2.00044 z m 140.27,-167.26317 -0.13,1.08566 1.02,-0.67351 -1.55,0.96504 -0.87,1.32692 -1.65,0.0804 1.19,-1.57823 -1.07,-1.15604 3.06,-0.0502 z m 48.35,-4.6744 2.42,2.19144 0.46,-0.98514 2.62,2.6639 5.68,-0.14073 1.53,2.58349 -1.32,1.07561 -0.57,-1.40735 -0.57,1.74913 0.95,1.10577 -2.59,0.90473 -0.23,-1.25656 -1.04,2.29196 -1.46,-0.89467 -0.44,-2.17134 -1.38,-0.28146 2.83,4.89555 -0.81,0.67352 -4.1,-0.75394 1.32,1.71898 -5.03,1.46766 -3.09,-1.66871 0.16,-4.68446 -1.15,0.69363 0.07,-2.54328 1,-0.92483 2.1,1.35709 0.8,-2.84486 2.19,-2.12107 -0.35,-2.69406 z m 90.16,-18.99919 0.66,1.00526 -1.35,1.30682 1.49,1.51792 -1.65,1.2063 0.46,2.29196 -3.13,0.69362 -1.73,-2.28191 0.43,-1.94013 3,-1.21635 0.4,-2.31207 1.42,-0.27142 z m -129.14,-8.48429 0.98,0.53279 -1.16,2.38243 0.84,1.84966 -0.58,0.7841 -2.2,-2.54329 0.51,-2.70411 1.14,0.47247 0.47,-0.77405 z m 30.19,-2.60358 1.17,2.09091 -1.76,0.0704 0.59,-2.16128 z m -1.43,-1.08567 0.67,0.59309 -1.63,2.63375 -0.28,-1.89991 1.24,-1.32693 z m -7.54,-2.03061 0.38,0.92484 2.56,0.16084 -0.48,1.84965 1.81,2.6438 -0.69,2.22159 -0.34,-2.08086 -1.43,1.31688 -0.85,-2.11102 -2.66,-0.74389 1.7,-4.18183 z m 7.48,-1.77929 0.81,2.32212 -1.53,1.27668 0.5,-1.43752 -1.25,-1.94012 1.47,-0.22116 z m 93.93,-3.66914 0.46,1.4375 -1.58,1.54808 -1.52,-0.11058 -0.47,-1.3973 3.11,-1.4777 z m -99.9,-1.3973 1.68,0.4423 -0.21,1.82956 -1.41,0.83435 -0.71,-0.75393 -0.14,1.50787 -2.29,0.22115 -0.49,-2.60358 2.39,-0.14075 0.24,-1.30681 0.94,-0.0302 z m 6.5,-9.50964 -1.28,4.33261 -1.55,-2.69407 2.83,-1.63854 z m -15.7,-7.58962 1.94,0.67351 0.4,6.12196 1.95,0.76399 1.17,-1.35709 1.07,3.59879 -2.19,8.65518 -2.72,3.06601 2.64,4.70456 1.73,-1.12588 -0.73,1.69887 1.35,4.0411 -0.56,0.82429 -1.78,-1.29676 -2.51,0.41214 -1.38,9.81123 1.84,1.00524 0.14,2.36234 1.73,1.20629 2.89,-1.85971 1.8,1.15604 -0.06,1.00525 -1.39,-0.26136 1.14,1.04545 -1.3,1.10577 1.31,0.96504 -0.61,1.88987 1.01,1.47771 -2.19,4.4633 2.96,-0.0201 1.75,-2.00044 1.61,1.28672 -0.61,0.65341 1.36,0.67352 -3.26,-0.21111 1.23,1.80945 -1.02,1.00525 2.09,0.97509 1.14,4.66435 2.39,0.14073 -0.76,1.11583 1.12,-0.33173 0.6,1.76923 -2.88,1.10578 -3.18,3.6792 -3.44,1.49783 -1.14,3.6792 -4.31,0.85446 -3.93,-1.04546 -2.12,1.73908 -4,0.45236 -1.46,2.25175 -2.09,0.23121 -5.79,8.12241 -1.82,9.11759 -1.54,2.21154 -16.25,4.68446 -5.32,0.67352 0.07,-1.07562 -3.51,1.32693 -2.21,2.41259 -3.57,-0.0201 -1.55,0.75394 -0.71,6.46374 2.36,3.20674 -0.28,5.4786 -2.82,-0.65342 0.48,-1.69886 -0.99,-2.53322 -0.67,1.34702 -1.28,-0.45235 -0.46,0.96503 0.26,3.77973 2.48,0.33174 0.1,0.57299 0.36,1.42745 1.9,-0.48252 -0.06,1.52798 -1.79,1.20629 -0.34,0.98515 -3.75,5.12677 -1.96,1.08566 -1.03,3.4279 -1.19,0.0403 -4.07,6.12196 -0.16,0.45237 -1.87,1.90996 0.17,2.21155 -3.79,3.76968 0.04,1.08567 -1.62,-0.5931 -1.73,1.89991 -0.85,-0.25131 -0.73,2.52318 -1.82,0.18094 -3.76,4.73472 -3.59,-0.34178 -5.31,1.84965 -0.86,-0.85446 -4.42,2.51312 -1.76,-0.76398 -1.41,3.14642 -0.17,3.68926 -2.41,0.37193 1.18,1.17615 -0.32,1.18619 -1.62,0.43226 0.56,1.0354 -0.78,-0.0201 -2.86,6.59442 -1.13,-0.0101 0.15,1.84966 -8.45,3.77973 -3.42,4.29241 -2.33,0.26136 -2.01,3.77973 -2.76,2.04065 -3.59,0.12064 -5.02,2.08086 -4.2,-1.21635 -2.17,2.30202 0.85,3.39773 -3.39,6.99653 -1,0.47246 -2.21,-1.98034 -1.24,1.51793 -0.55,0.46241 -4.25,0.0101 -0.34,1.35708 -7.66,4.97597 -1.85,2.86496 -2.12,0.54283 0.76,0.79415 -0.76,1.15603 -1.98,0.0905 -0.24,-2.65385 2.67,-4.50351 0.23,-6.70501 1.63,-1.33698 -0.16,-2.02055 1.95,-0.85445 -0.75,-2.17134 1.28,0.53278 1.66,-4.00088 2.78,-1.26662 0.73,-1.82955 -1.51,0.16084 2.66,-3.50832 4.73,-1.02535 -0.43,-1.99039 2.66,-1.89992 0.85,-3.22684 1.23,-0.382 3.34,-5.36801 0.95,-0.0403 0.39,-1.69887 2.56,-0.34178 2.75,-2.79459 0.58,-3.52842 2.52,-1.96023 1.63,0.12062 0.3,-1.22639 0.71,1.90997 3.32,-0.30158 0.93,-4.14162 1.49,-1.44756 -0.34,-1.52797 2.6,-2.45281 1.09,0.69363 1.67,-1.87982 0.89,0.37194 3.21,-3.80989 3.39,0.69362 2.09,-2.13112 0.19,2.60359 2.64,0.11058 0.28,-1.59835 1.78,-0.96504 0.25,-1.58829 1.28,0.13068 1.29,-1.34703 0.03,-1.25655 2.84,-0.65341 -0.79,-2.32212 0.81,-1.67878 4.22,-0.97509 0.88,-4.45324 2.89,-1.57824 4.41,-5.23734 2.25,-1.28672 0.81,-4.98602 1.19,-0.61321 1.33,0.89467 2.28,-1.33697 0.97,-3.05596 6.63,-4.05115 4.15,-6.22248 2.7,-1.86976 0.67,-1.63856 -0.7,-1.65865 2.9,-1.42745 -0.09,-1.88987 1.45,-1.13593 -1.37,-2.11102 1.12,0.41215 3.21,-2.94537 1.35,0.16084 0.26,-2.53323 1.39,-0.98515 1.19,-3.61889 0.87,4.66435 0.14,0.77405 -0.02,2.61364 1.35,0.0603 1.05,-0.53279 0.08,-2.90517 2.1,-2.6639 -2.32,-0.79415 -0.05,-5.56907 2.37,0.37194 1.92,-1.71897 2.2,1.04546 3.19,-0.90472 0.95,-3.22685 -1.09,-0.90472 1.8,-0.42221 -2.15,-1.39729 0.77,-0.77405 1.65,1.12588 0.42,-1.8798 1.33,0.6534 1.07,-0.81424 -0.73,-0.69363 0.85,-1.57824 1.48,0.26136 -0.79,-2.63374 -2.95,2.17133 -0.69,-1.81949 1.94,-1.53803 -0.44,-1.16609 1.86,0.24125 0.94,-0.91476 2.78,2.09091 0.92,-1.56819 -0.88,-0.96504 1.99,0.34179 0.99,-1.16609 -1.32,-0.67351 -0.92,-0.58305 0.25,-0.91478 0.38,-1.26661 0.66,0.70367 0.41,-1.06556 1.25,0.0201 0.52,0.92483 -1.17,0.96504 1.38,1.01529 -0.79,2.55333 1.85,2.16129 0.21,-1.30683 2.47,-0.88461 2.9,-5.13682 2.9,-0.191 0.94,-2.18138 -2.86,-2.49302 2.68,0.65342 3.79,-3.89032 1.8,-10.65562 -2.66,-2.86496 -2.33,0.71372 -0.88,-4.92571 -3.87,-1.28672 0.16,-0.87456 2.46,0.0804 -0.31,-0.86451 0.23,-1.05551 1.08,0.0603 -1.37,-1.70892 -1.94,0.20105 1.34,-2.10097 -1.26,-0.38199 0.41,-1.12588 1.58,0.26136 0.14,2.95544 1.03,-0.44232 -0.56,-1.16608 1.13,-1.12588 1.35,0.85446 -0.68,0.87456 1.34,0.96504 -1.17,1.31688 1.54,0.14073 -2.42,1.54808 3.1,-0.0403 -1.82,1.74913 2.1,1.30682 0.37,-1.25657 1.08,2.66391 0.9,-1.23645 0.88,0.44231 -0.83,1.55813 2.98,0.47247 1.27,1.53803 -0.5,1.26661 1.36,-0.77404 1.09,3.46811 2.27,-0.4021 -2.06,-5.50876 -0.12,-2.30202 1.34,0.18094 0.19,-1.12588 -2.74,-0.93487 -0.16,-1.13593 -2.98,0.9952 -0.56,-1.10578 -1.14,0.14074 0,-1.69887 -1.08,0.0704 1.99,-3.2369 -0.86,-0.79415 -1.59,1.04546 -1.3,-0.72378 0.23,-0.68357 -0.7,-4.03104 1.24,-1.99039 1.51,3.01574 2.4,-0.83435 -3.34,-2.44276 1.16,-1.30682 -1.51,-0.0201 0.2,-3.71942 1.07,1.55814 1.01,-0.27141 -0.51,1.11582 1.81,2.21154 3.18,0.48252 -0.18,-5.35796 0.94,-2.15124 -1.22,-0.48252 -0.72,0.96504 -0.31,-2.63375 1.52,-3.09616 -0.47,-7.53936 1.15,-0.41215 0.42,-2.12107 1.4,1.04545 1.62,-2.30201 0.39,-4.52361 z m 24.42,-7.0669 3.51,0.74388 0.63,1.29677 -0.14,2.95543 -2.74,5.44845 -0.89,0.16084 -1.32,-1.77929 1.67,-0.97509 -0.12,-1.06557 -1.32,0.92483 -1.36,-0.71372 -0.91,2.26181 -1.16,-2.01051 -2.2,-0.8444 0.53,-1.47772 -1.64,-0.80419 1.21,-1.12588 -0.06,0.98514 3.06,2.07081 -0.25,-1.49781 1.42,0.0201 -1.64,-1.35709 1,-0.16084 -0.04,-1.08566 1.79,3.03584 0.93,-0.2111 -0.39,-1.2666 1.89,1.09571 -0.78,-1.87981 1.7,-0.20105 -2.38,-2.54328 z m 23.85,-18.07435 2.44,0.0804 0.22,1.27666 -2.92,-0.43225 0.26,-0.92483 z m 2.44,-1.33698 1.27,0.55289 0.2,1.80944 -2.23,-2.34223 0.76,-0.0201 z m -19.65,-14.3851 1.49,1.54809 3.51,0.70367 -2.22,0.39204 0.79,1.96024 -0.75,0.31162 1.31,0.41216 -0.06,-1.68882 1.19,0.74389 1.15,-1.17615 2.18,0.25131 0.32,1.15604 -2.94,1.28672 2.57,0.29152 1.32,2.21155 0.49,-0.93489 1.89,1.00525 -3.88,1.4174 2.21,0.22116 -1.57,1.08566 -0.01,1.42745 0.93,-0.59309 2.24,1.90997 -2.8,2.28191 1.69,0.0804 -0.64,2.81469 -5.01,3.80989 -0.81,0.10053 -0.89,0.46241 -1.03,-0.2111 0.73,-0.8042 -0.95,-0.39205 -0.08,-3.95062 1.13,-0.82431 3.55,-3.29721 -1.27,0.15079 -0.85,-0.41214 -0.73,-0.72378 -0.06,2.65385 -2.43,0.30157 -1.66,-2.40254 -0.98,-2.77448 1.52,-1.0153 -3.26,-3.84005 0.13,-2.42265 -1.83,-1.4375 0.53,-0.58305 2.71,2.31208 0.25,-1.46767 -1.43,-0.69362 -0.14,-1.26661 2.45,-0.39205 z m 24.86,-0.5931 1.73,1.11583 0.35,2.49302 -2.06,2.08086 2.86,0.0603 0.4,1.64861 -0.13,1.00525 -2.55,1.06556 -0.72,0.62325 -4.05,-6.56426 4.17,-3.52843 z m -25.53,-25.48302 2.14,0.72378 -0.2,1.52797 1.15,1.13593 -0.69,0.88462 6.15,1.17613 2.42,1.98035 1.09,2.75438 2.7,-0.76399 -0.09,1.8195 4.67,4.09135 1.68,0.24126 0.11,-1.48777 1.83,0.4021 -0.55,-2.11101 0.97,-2.68401 -1.06,-1.70893 0.96,-0.47246 0.42,2.0708 1.44,-0.0905 0.25,5.04635 0.95,0.48252 1.11,-1.3973 0.83,2.17134 1.1,-0.31163 0.43,1.51792 1.83,0.52274 0.62,2.6639 -1.19,1.33698 1.14,1.84965 -0.31,1.51793 -1.26,-0.63331 -1.4,1.43751 -3.4,-1.84965 -2.04,1.77928 -3.42,-1.90997 -0.56,-1.54808 -0.97,0.5931 -1.77,-0.8042 -0.6,0.96503 0.99,1.19625 -0.79,0.89467 -0.52,0.87456 -1.43,1.35709 -1.43,-1.92003 0.58,-0.88461 -2.44,-1.45761 -0.5,1.70892 -1.93,0.52273 -0.47,-1.31687 -2.58,-0.23121 -0.44,-1.11582 -0.28,-2.96549 -1.17,0.58304 -1.09,-1.30682 -0.34,-1.04546 -0.14,-3.62894 -2.24,-1.96024 -0.3,-2.86495 -1.15,-0.10052 -2.04,4.08131 -0.26,-2.10097 1.92,-3.45806 -1.19,-0.8042 0.02,-1.32692 0.58,-1.23646 0.89,-1.53803 -1.1,-1.53803 2.37,-1.33697 z" 
                fill="rgb(151, 144, 238)" 
                stroke="white" 
                stroke-width=".7px"
                title="Palawan" 
                id="PH-PLW" 
            />
        </svg>