<svg xmlns="http://www.w3.org/2000/svg" viewBox="248.97 423.8829 45.65000000000006 38.47068999999999" width="45.65000000000006" height="38.47068999999999">
            <path 
                d="m 249.88,432.31684 1.31,0.2111 13.41,-7.1071 4.73,0.0403 1.38,-0.92484 2.98,1.05551 3.07,-1.70891 0.2,1.25656 2.03,-0.31163 0,0 1.12,4.73471 4.44,-0.0403 1.46,3.01574 2.35,-3.2369 3.96,-0.75393 0,0 0.1,3.15648 -0.96,1.57823 3.16,3.98079 -1.2,1.68881 -0.24,3.34747 -2.05,-0.0905 -1.28,3.11626 -0.22,-0.98514 -1.49,0.32168 0.19,1.98034 -4.66,3.76967 -6.36,0.58305 0.08,2.36233 -3.23,5.16697 0.32,1.43751 -3.37,1.94013 0,0 -0.63,0.45236 -2.44,-2.21155 -2.44,-1.2465 0.5,-0.94493 -1.19,-0.35184 0,0 -1.87,0.50262 -1.94,-1.21635 -1.61,-2.05071 -0.4,-3.24695 -2.68,-1.37719 0,0 -0.67,-2.52316 -2.25,-2.09092 0.12,-3.98078 -1.26,-2.57344 -2.82,-2.06076 -0.56,-2.27186 0.91,-2.39249 z" 
                fill="rgb(151, 144, 238)" 
                stroke="white" 
                stroke-width=".7px"
                title="Pampanga" 
                id="PH-PAM" 
            />
        </svg>