<svg xmlns="http://www.w3.org/2000/svg" viewBox="204.78 337.42145 85.13999999999996 61.01855999999981" width="85.13999999999996" height="61.01855999999981">
            <path 
                d="m 222.21,343.32226 0.71,2.01049 1.63,0.65341 -1.73,2.7946 1.44,2.70411 -1.8,1.4375 -2.09,-3.49825 -1.16,0.0905 0.24,-1.09572 -1.15,-1.06557 -0.98,0.8042 -0.35,-1.03541 1.88,-0.83434 -0.42,-0.98515 0.89,-0.77405 -0.22,1.55814 1.15,0.58305 0.22,-2.95543 1.74,-0.39205 z m -5.58,41.84847 -1.78,-0.92484 0,0 -0.38,-0.70367 2.24,-1.75918 -3.73,-8.7155 -1.13,-1.17613 -0.18,0.88462 -2.29,0.24125 -0.58,2.53322 -1.44,-0.70367 -0.93,1.31688 -1.65,-3.81995 0.7,-3.51837 1.07,-0.90471 -1.34,-1.86977 0.47,-4.42308 1.43,-2.03061 -0.75,-2.28191 -1.31,-0.54283 2.18,-5.17703 -0.79,-0.71372 0.46,-4.53367 2.6,-3.75963 2.92,0.0403 1.98,-2.68401 3.02,1.86976 -0.69,9.59006 1.01,-0.60314 1.96,1.06556 0.54,0.31163 1.17,0.53277 -0.3,1.37719 2.1,0.96504 1.16,1.90997 0.71,-1.73907 1.01,0.58304 0.3,0.42221 1.83,-0.0403 0,1.17614 1.07,-0.56294 1.71,1.90998 -0.38,0.77403 0,0.70367 -1.23,1.3571 1.84,2.15122 -1.07,-0.12063 -0.16,0.88463 3.42,2.2417 5.77,0.34178 7.36,-2.49302 0.2,0.71373 6.92,-7.84093 -0.55,-3.47816 0,0 6.1,-0.2312 0.95,-1.93008 0,0 10.37,3.72946 8.24,-1.0354 0,0 5.26,2.25175 2.8,4.94583 0,0 3.08,9.59006 -4.67,11.92224 -2.56,2.10097 -5.74,-4.50352 -9.5,1.54809 0,0 -1.8,-4.29241 -2.91,8.9266 -4.85,3.07606 -6.42,-2.68401 -2.47,2.68401 -0.49,2.4327 -2.55,2.22159 0.52,1.36714 -5.08,2.37239 0,0 -4.93,-8.15256 -2.7,-7.32826 -4.6,0.98514 -4.11,-2.58349 -2.76,3.99084 -2.3,0 -0.71,-1.37719 -2.66,1.19625 z m 1.51,-47.74928 2.04,2.50307 0.02,1.84966 -3.66,-1.18619 0.13,-2.75438 1.47,-0.41216 z" 
                fill="rgb(151, 144, 238)" 
                stroke="white" 
                stroke-width=".7px"
                title="Pangasinan" 
                id="PH-PAN" 
            />
        </svg>