<svg xmlns="http://www.w3.org/2000/svg" viewBox="312.8000000000002 428.74821000000014 112.86999999999995 153.5315900000001" width="112.86999999999995" height="153.5315900000001">
            <path 
                d="m 350.45,524.0457 2.42,0.31163 -0.26,2.0306 1.17,1.0153 -0.79,1.42745 -0.78,-0.0101 -1.9,-0.29153 -1.05,-0.74387 -0.14,-1.90998 1.33,-1.82955 z m 15.16,-19.40128 11.83,8.64513 4.55,5.91086 -2.35,0.51268 -7.36,-4.64425 -1.41,-1.98033 -3.8,-1.59836 -5.29,-6.16216 1.23,-3.15648 2.6,2.47291 z m -9.97,-7.57957 1.8,0.33173 -2.37,3.79984 -1.22,-3.29721 1.79,-0.83436 z m 42.26,-31.8764 2.06,2.0708 -1.05,1.04546 -8.5,0.83436 2.07,-2.63375 5.42,-1.31687 z m -20.07,-7.43884 3.63,-1.21635 1.07,1.07562 -0.54,1.69887 3.11,1.6285 1.74,-0.33173 0.02,4.82519 -1.07,0.48251 -0.95,-2.27186 -8.9,-4.0612 -0.96,-2.77448 1.77,0.77404 1.08,0.17089 z m -7.98,-3.77973 0.25,0.84441 2.59,0.0502 1.59,1.96023 -1.64,-0.95498 -1.35,1.05551 -1.36,-0.43225 -0.88,-2.07082 0.8,-0.45236 z m -5.34,-13.3899 1.79,0.56294 -0.29,0.91477 1.61,-0.57299 1.96,1.13593 -0.74,1.67877 2.93,0.14073 0.46,3.25701 -0.16,0.82429 -1.69,-3.02579 -1.5,0.32168 -1.39,2.25176 2.01,-0.78409 0.14,3.59878 -2.98,1.47772 -0.87,-0.51268 0.99,4.95587 2.04,0.60315 0.99,1.73908 1.01,7.16741 -2.47,3.639 -4.69,3.00569 -1.72,-1.02536 -0.85,-2.70411 0.12,-3.61889 0.97,1.32692 1.4,-0.40209 -2.11,-6.81558 -2.21,-2.48297 -3.2,-8.96681 -0.75,-0.0703 0.52,2.12107 -0.74,-0.6333 -0.79,0.98514 -0.64,-0.97509 1.3,-4.85535 1.24,-0.50262 0.08,-2.37238 1.44,-0.0403 0.68,1.34703 4.76,-2.62369 1.02,1.02535 0.33,-1.09572 z m -44.15,4.54372 0.69,-1.63855 -0.7,-1.85971 4.1,-6.17222 0.12,-2.19145 -1.33,-1.29677 1.66,-0.54283 -0.22,-1.56818 1.32,-1.10578 0,0 2.03,1.41741 1.03,-0.53279 1.49,1.70892 1.79,9.45939 4.41,6.4939 1.03,5.82038 2.31,2.80464 -0.83,1.99039 9.6,9.85143 -2.38,-0.47247 -1.09,0.0403 -3.71,2.59354 -1.15,-1.44756 -1.14,2.51312 4.11,19.11982 4.85,5.22728 0.13,3.99084 2.17,2.12107 -0.35,3.03585 -1.85,1.95018 0.39,1.11582 2.79,3.25701 -0.67,-0.8042 13.23,10.66568 11.13,4.87545 6.59,0.57299 3.03,1.46766 0.89,-3.52841 -3.21,-1.25657 -1.25,-2.62369 8.52,2.75438 0.49,-1.09573 -0.93,-1.41739 1.66,-0.64336 0.48,-1.4375 -2.44,0.15078 -0.17,-1.61845 -6.91,-4.07125 -2,-3.54853 0.12,-1.38724 1.63,1.53803 -0.43,-1.78934 2.42,-2.07081 1.29,-0.29152 0.88,1.28672 0.28,-4.90561 1.67,-0.22116 0.32,0.7841 -1.27,4.63419 1.04,0.85446 -0.41,2.80464 1.31,0.32168 1.78,-1.29677 -0.67,4.0813 0,0 0.11,1.09573 4.68,0.2111 5.56,-6.2426 25.29,10.03238 0,0 -17.73,4.85535 0,0 -1.47,-0.82431 -0.26,2.81469 -5.41,-0.24126 -2.3,-1.98033 4.94,7.80072 2.81,2.36233 -1.02,0.45236 -0.09,2.94538 1.08,2.84486 -2.35,0.0101 -0.83,1.48776 1.65,3.58874 -0.43,1.31687 3.54,3.41784 -0.03,1.27667 6.41,4.11146 0.09,1.04546 -1.27,0.12063 -2.56,-3.53847 -1.32,-0.0101 6.25,8.57476 1.89,5.00614 0,7.79066 1.02,0.45237 0.89,3.28716 -3.27,1.13593 -4.27,3.48821 -2.53,-1.24651 -4.33,-4.76488 1.35,-2.80464 -0.98,-1.08567 0.94,-1.18619 -0.45,-2.84485 -2.04,-4.45325 -5.47,-5.67964 -0.84,-2.92528 -5.09,-2.68401 0.47,-1.19624 -1.18,-1.03541 -2.3,-0.0804 -0.69,1.23645 -1.4,-0.54283 1.21,-0.85446 -0.85,-0.94494 -4.21,0.32168 -0.4,-2.67395 -3.78,-6.11191 -0.9,-0.0502 0,-1.87982 -2.85,-2.96547 -1.88,-0.41216 -1.34,1.16609 -2.18,-1.59835 0.21,-0.77403 -3.36,0.0502 -0.64,-2.57343 -5.87,-1.63855 -1.41,-2.50307 -1.18,0.76399 -1.46,-1.25655 -0.72,0.82429 -1.16,-1.71897 0.53,-1.98034 -0.82,-0.6333 -1.57,0.71372 -2.5,-2.15123 -3.9,0.52273 -0.44,0.88462 1.25,2.02054 -5.99,1.08568 -0.63,1.35708 -0.99,-0.9952 -7.86,3.79984 -2.73,2.39249 0,0 -5.25,-2.20149 -1.09,-1.52798 -7,-0.53278 -2.53,-3.53848 0.48,-1.19624 1.54,0.0503 -0.31,-1.85971 0,0 4.97,-1.63856 7.37,-5.85054 4.45,-0.73383 2.17,-5.40824 1.88,-1.8597 1.19,0.0905 4.77,-6.76532 -0.56,-9.91174 -1.93,-0.25131 -1.64,-1.59834 -1.08,0.70367 -6.46,-12.49523 0,0 -8.61,-15.35013 -0.42,-8.37371 0,0 -0.25,-7.80073 z" 
                fill="rgb(151, 144, 238)" 
                stroke="white" 
                stroke-width=".7px"
                title="Quezon" 
                id="PH-QUE" 
            />
        </svg>