<svg xmlns="http://www.w3.org/2000/svg" viewBox="302.32 453.00478999999996 27.33000000000004 45.08535000000006" width="27.33000000000004" height="45.08535000000006">
            <path 
                d="m 313.12,495.13478 0.15,2.81469 -1.92,-4.54372 0.52,-5.31776 1.24,5.57912 1.79,0.8042 -1.78,0.66347 z m 1.53,-13.31954 -0.06,0.0402 0,0 0.11,-0.11057 0,0 -0.05,0.0703 z m -0.38,0.0502 0,0.0503 0,0 0.16,-0.2312 0,0 -0.16,0.18093 z m -0.08,-0.65341 0.08,0.0201 0,0 -0.07,0.0503 0,0 -0.01,-0.0703 z m 6.43,-28.20724 0.42,8.37371 8.61,15.35013 0,0 -3.75,1.32693 -3.1,2.96548 -1.13,4.58393 1.09,4.37283 -0.55,2.34222 1.53,1.68882 -5.75,4.0813 -0.25,-2.8348 2.51,-6.27274 -0.94,-3.76968 -1.67,-1.69887 -1.6,-0.0603 -0.21,-2.0306 -1.94,-0.31163 -1.33,3.257 -1.09,-0.0201 -0.25,4.72466 -3.77,-7.61978 -2.05,-1.50787 -2.21,0.2111 0,0 -0.87,-2.82475 1.17,-1.73907 -0.57,-2.67396 1.88,-0.60314 0.32,-1.72903 -2.05,-1.32694 2,-4.74476 -1.23,-0.10053 -0.04,-1.4375 0,0 4.63,-3.30727 0.35,-1.70892 5.52,-1.10577 6.32,-3.85009 z" 
                fill="rgb(151, 144, 238)" 
                stroke="white" 
                stroke-width=".7px"
                title="Rizal" 
                id="PH-RIZ" 
            />
        </svg>