<svg xmlns="http://www.w3.org/2000/svg" viewBox="344.94999999999993 597.2277300000001 73.93000000000006 69.09069" width="73.93000000000006" height="69.09069">
            <path 
                d="m 363.52,661.43291 1.83,2.33217 -0.52,2.55334 -3.19,-2.30202 0.34,-1.58829 1.54,-0.9952 z m 44.31,-30.29817 7.88,1.6285 3.17,6.08175 -1.19,5.37808 -3.51,3.35753 0.04,1.21635 -1.82,-2.14118 -3.45,-1.19625 -1.55,-3.63899 -6.64,-2.66391 -1.83,-2.69407 0.28,-1.67876 2.4,-2.29196 6.22,-1.35709 z m -19.03,-8.89643 0.91,0.52272 0.72,4.37283 1.47,1.35708 0.06,2.6438 -1.88,2.06076 -2.23,-0.87456 -1.63,-3.0258 0.93,-0.93488 -1.29,-2.21155 1.69,-0.31162 1.25,-3.59878 z m -12.24,-3.64906 2.77,1.09572 0.61,2.08086 -2.38,-0.24126 -0.55,1.23646 1.27,2.74432 0.02,3.2168 -2,2.95543 -1.73,13.75178 -3.41,6.30291 0.16,2.68401 0.87,-0.43226 0.99,1.27667 -0.66,0.72378 -0.99,-0.68357 -1.57,1.76923 -0.71,4.26225 -2.26,-3.19668 0.5,-1.37719 -1.77,0.29152 -0.57,-2.4126 0.67,-3.68925 0.54,3.02579 0.99,0.5931 2.11,-3.26705 -2.73,-2.23166 -0.95,0.47247 0,-1.43751 -1.27,-0.10052 -0.38,-1.46766 -1.23,0.8042 -0.44,-2.33217 1.23,-1.19626 -0.79,-0.76398 1.05,-3.52842 3.29,-1.17614 1.34,-2.61365 0.74,-3.70936 -1.72,-5.66959 0.69,-2.04066 2.83,-1.76923 2.59,-0.13069 3.07,-2.53322 -0.22,-1.28672 z m -2.21,-12.13334 -1.78,4.00088 -2.16,-0.18093 0.03,-1.24652 3.91,-2.57343 z m -27.67,-8.29329 2.34,1.52798 -1.51,2.50306 -2.56,-2.54328 1.73,-1.48776 z m 27.4,-0.93489 1.29,0.35184 -0.71,2.89512 -2.29,0.91477 -0.4,-2.37238 -1.44,-0.99519 3.55,-0.79416 z" 
                fill="rgb(151, 144, 238)" 
                stroke="white" 
                stroke-width=".7px"
                title="Romblon" 
                id="PH-ROM" 
            />
        </svg>