<svg xmlns="http://www.w3.org/2000/svg" viewBox="523.87 643.77073 84.27000000000021 92.56315999999958" width="84.27000000000021" height="92.56315999999958">
            <path 
                d="m 573.7,691.33903 2.01,0.12063 0.71,1.28672 1.48,-0.43225 0.35,1.13592 -1.65,1.16609 0.67,1.86976 -3.32,-0.57299 0.26,-2.76444 -1.36,-1.13593 0.12,-1.8396 0.73,1.16609 z m -7.25,-2.42264 0.53,1.82954 1.28,0.47247 -0.13,1.30682 1.96,-1.01529 -1.05,1.62849 2.87,1.75919 -1.41,1.93008 0.57,1.39728 0.76,-0.65341 3.19,0.65341 -1.37,1.62851 0.57,2.37239 -1.15,1.2666 -2.32,-1.39729 1.04,-1.30682 -2.89,-0.60315 -0.33,-2.51312 1.53,0.93489 0.45,-0.84442 -2.89,-3.16653 -0.91,0.70368 -0.42,-2.56339 -0.75,0.54284 0.3,-2.0306 -0.56,-0.77405 0.97,-0.65341 -1,-0.88462 1.16,-0.0201 z m 1.42,-0.97509 1.99,1.02535 -1.03,2.02054 -1.32,-0.96503 0.36,-2.08086 z m -7.95,-13.36981 0.13,0.85447 1.45,-0.0603 -0.49,1.46766 -1.73,-1.44755 0.64,-0.81426 z m -14.05,-0.59308 1.25,2.94537 -1.18,0.66346 -2.41,-0.85445 0.43,-2.21155 1.91,-0.54283 z m -8.45,-2.38245 0.48,1.59834 -2.01,2.71418 -2.32,0.31163 0.07,-2.32212 3.78,-2.30203 z m 6.59,-2.20149 0.97,0.91478 -0.73,1.61845 -1.68,-0.78409 -0.03,-1.44756 1.47,-0.30158 z m -14.43,-6.83568 0.95,0.0101 0.03,1.76924 -1.62,-0.66347 -2.85,2.69407 -2.22,-1.12588 1.65,-2.29197 4.06,-0.39204 z m 9.62,-14.88772 5.17,-0.0603 3.99,-3.84004 11.47,6.88595 5.29,-3.59879 9.34,5.33786 -0.86,3.20674 1.87,2.73427 3.58,-8.51444 4.92,1.81949 9.53,-3.92046 3.48,-0.35184 0,0 -0.53,7.40869 -2.41,1.57823 0.19,12.71638 6.73,-0.0101 4.5,10.45458 0.88,13.06822 -4.43,3.24695 -1.05,2.59354 1.77,11.44977 3.96,1.37719 1.55,1.97029 -4.16,6.00132 0.28,14.74699 0,0 -1.27,2.36233 -1.94,-0.91477 -1.03,-6.24259 -3.23,-6.8759 -5.77,-0.78409 -4.65,1.35708 -2.05,-1.15604 -0.41,-2.86495 1.69,-2.25175 -0.88,-5.0765 -1.48,-0.76399 -0.29,-1.62851 -1.34,0.33174 -2.76,-1.58829 0.25,-1.41741 0.02,-0.57299 -1.35,-0.82429 0.07,3.35752 -0.77,-0.75394 -2.76,0.55289 -1.43,-1.86976 0.79,-0.53279 0.01,-0.94493 1.9,-3.30726 0.99,1.56819 1.61,-0.382 0.36,-1.04546 -1.56,-0.38199 0.29,-1.3973 4.79,0.42221 1.35,-0.91478 -0.6,-0.98513 2.07,-1.53803 -0.8,-4.0411 3.97,-3.13637 0.79,-1.55814 -0.25,-1.72903 -2.97,-1.45761 -6.39,2.89511 -1.66,-1.00524 -0.41,-1.8195 -1.67,-0.98514 0.05,-1.57824 -6.07,-3.70937 0.2,-1.12587 1.62,-0.71373 -0.7,-1.2264 -2.02,-0.33173 0.42,0.80419 -2.21,0.14075 0.9,-1.33699 -0.52,-0.96504 1.87,-0.73383 -4,-0.76398 -0.9,-2.0105 0.66,-0.34178 -1.43,-1.64861 -0.2,-0.55289 -3.63,-3.21679 -3,-0.98514 -4.92,0.16084 -5.55,-5.41829 -0.15,-1.3973 -4.33,-3.03584 -2.38,-6.41348 z" 
                fill="rgb(151, 144, 238)" 
                stroke="white" 
                stroke-width=".7px"
                title="Samar" 
                id="PH-WSA" 
            />
        </svg>