<svg xmlns="http://www.w3.org/2000/svg" viewBox="538.8699999999999 1072.1469 86.04000000000008 83.25469999999996" width="86.04000000000008" height="83.25469999999996">
            <path 
                d="m 614.77,1150.3251 2.24,1.146 -0.56,3.9305 -1,-0.8143 -4.14,0.7037 -0.19,-1.4073 -1.38,-0.2112 3.01,-2.8749 2.02,-0.4725 z m 5.86,-4.3527 1.53,2.0004 -0.52,3.3776 -1.56,2.3624 -1.45,-3.3776 1.61,-1.4978 -1.27,-0.8143 1.94,-0.05 -1.06,-0.9449 0.78,-1.0555 z m -78.55,-52.2729 10.75,4.7046 2.75,3.0358 5.76,1.9301 9.52,5.1469 16.16,0.5629 2.62,-4.0009 -0.01,7.0971 3.65,0.3518 0,0 -0.26,2.9956 -1.6,1.4677 0.86,1.4877 -1.03,1.0656 -10.88,-0.03 -7.32,-2.1814 -13.25,-6.9463 -2.71,-0.1206 -1.85,-2.1513 -4.35,-0.5629 -6.65,-4.6543 -5.37,-2.292 0,0 3.21,-6.906 z m 56.28,-18.7076 5.67,3.0157 5.07,-2.3121 2.3,-3.5486 5.22,1.5481 4.45,6.6347 0.46,4.0109 -2.44,2.6539 3.36,5.167 0.43,7.0065 2.03,2.2518 -0.25,3.639 -3.92,10.8968 0.55,4.1819 -1.27,0.8746 -0.1,2.0306 -5.39,11.4497 -6.27,4.7146 1,1.4476 0,0 -2.03,-0.9851 1.08,-3.5084 -1.58,-4.4934 -3.54,-1.8697 -1.5,-3.5787 -2.5,-0.4624 0.45,-0.9751 -1.15,-1.0958 0.5,-2.6538 1.94,0.9348 1.03,-2.6136 -0.48,-1.8496 4.16,-2.2317 -0.5,-1.2967 1.86,-3.0761 -1.35,-7.7304 -2.35,-1.0153 0,0 -0.37,-5.4786 2.75,-4.9156 -0.13,-2.3824 -14.18,-5.1067 2.84,-5.8204 2,0 1.08,-3.0157 1.07,-0.4423 z" 
                fill="rgb(151, 144, 238)" 
                stroke="white" 
                stroke-width=".7px"
                title="Sarangani" 
                id="PH-SAR" 
            />
        </svg>