<svg xmlns="http://www.w3.org/2000/svg" viewBox="475.5900000000002 585.5969799999999 52.10999999999984 43.265910000000076" width="52.10999999999984" height="43.265910000000076">
            <path 
                d="m 509.61,586.47159 1.69,-0.20105 3.64,4.23209 3.12,1.40734 1.4,2.30203 1.66,-4.31252 1.77,-1.14598 3.98,0.59309 0.65,0.94493 -0.06,1.44756 -0.46,0.37195 0.7,0.88462 -1.85,1.12587 -0.47,-1.74913 -0.65,0.6132 -1.09,6.29285 -1.86,1.75918 0.67,1.32694 1.53,-0.30159 0.64,6.44365 -1.79,5.77012 0.34,4.58392 -3.01,2.56339 1.14,3.06601 -1.81,0.90471 1.03,1.24652 -1.33,2.2216 -6.64,-0.63332 -3.81,-4.0813 -0.12,-2.02055 -1.27,0.68357 -0.58,-1.6486 -2.52,-1.21635 -3.27,-12.77671 0.38,-0.66346 2.04,-1.71897 -0.36,-1.13593 5.5,2.29196 0.97,-2.31207 2.74,-0.33173 0.71,1.23646 1.58,-0.9952 1.8,-3.88026 -1.4,-3.23689 -3.99,1.31687 -2,-0.2111 -1.39,-1.60839 -2.6,0.12062 -0.18,2.13113 -0.02,0.84441 -1.65,1.21635 -0.3,1.73908 -1.31,-0.47247 -0.58,2.13112 -0.87,-1.07561 -1.53,2.05071 -2.44,-1.81951 -0.06,1.73909 -2.02,1.40735 -0.42,-1.94013 1.17,-0.82431 -0.75,-1.09572 -1.88,1.0153 -0.14,0.37194 -1.01,0.97509 -1.45,-3.26705 0.73,0.37194 0.32,-0.92483 -0.34,-0.47247 -2.5,1.94013 1.05,0.55289 -0.71,1.42745 -4.58,-2.54328 -2.3,-2.99564 -1.41,-0.33173 -0.65,0.86452 -3.54,-3.84005 0,0 6.79,-3.13637 3.97,1.53803 3.01,-1.16609 4.61,0.15079 2.53,2.84484 6.46,-4.07124 3.41,-0.0302 2.56,-5.75002 0,0 0.68,0.87457 z" 
                fill="rgb(151, 144, 238)" 
                stroke="white" 
                stroke-width=".7px"
                title="Sorsogon" 
                id="PH-SOR" 
            />
        </svg>