<svg xmlns="http://www.w3.org/2000/svg" viewBox="568.2399999999999 770.51234 39.25000000000023 52.202510000000075" width="39.25000000000023" height="52.202510000000075">
            <path 
                d="m 596.74,770.51234 3.09,3.31732 -1.98,3.17659 1.96,4.44318 -0.9,3.28717 2.57,3.2369 1.82,-0.69363 1.35,1.71898 0.71,5.34792 -1,2.92526 -2.47,0.88463 -6.4,-2.15124 0.55,7.61979 -0.77,0.79414 2.52,2.11102 3.55,0.41215 2.3,6.36322 2.62,3.49827 -0.65,1.75918 1.88,2.61364 -0.44,1.42745 -2.57,0.11057 -0.56,-2.53321 -1.84,-1.05551 -2.72,-5.54897 -3.66,-1.77929 -1.35,-3.73952 0.42,-4.76488 -2.82,-2.92527 -4.25,-11.11804 -1.21,-0.88462 -2.86,0.53278 1.33,8.73561 -0.69,3.04589 3.37,9.22818 0.3,6.11191 -6.65,-5.62939 -2.28,-0.6132 -1.13,-2.33218 -8.14,-0.89466 -1.5,-1.84967 0.19,-2.4729 0,0 1.15,0.50262 5.23,-5.03629 3.81,-0.82431 -0.49,-10.27362 3.39,-8.83613 8.21,0.0302 7.01,-7.278 z" 
                fill="rgb(151, 144, 238)" 
                stroke="white" 
                stroke-width=".7px"
                title="Southern Leyte" 
                id="PH-SLE" 
            />
        </svg>