<svg xmlns="http://www.w3.org/2000/svg" viewBox="533.7 1060.2846999999995 71.98000000000002 52.23269999999957" width="71.98000000000002" height="52.23269999999957">
            <path 
                d="m 542.08,1093.6995 -5.7,-2.0105 -2.68,-6.313 19.11,-0.5328 3.74,1.3471 3.61,-6.0918 -0.3,-3.2671 -1.46,-0.9047 0.11,-2.3121 -0.86,0.05 -0.53,-1.91 2.83,-7.8108 0.99,-0.5126 1.26,2.0809 5.57,-5.2274 6.08,10.143 26.33,-0.3016 0,0 0.14,1.8899 -1.96,2.9756 0,0 -1.07,0.4221 -1.08,3.0158 -2,0.01 -2.84,5.8104 14.18,5.1066 0.13,2.3824 -2.75,4.9157 0.37,5.4786 0,0 -5.52,-0.563 -1.6,6.1924 -2.91,4.7548 0,0 -3.65,-0.3417 0.01,-7.1072 -2.62,4.0009 -16.16,-0.5629 -9.52,-5.1469 -5.76,-1.93 -2.75,-3.0258 z" 
                fill="rgb(151, 144, 238)" 
                stroke="white" 
                stroke-width=".7px"
                title="South Cotabato" 
                id="PH-SCO" 
            />
        </svg>