<svg xmlns="http://www.w3.org/2000/svg" viewBox="514.4199999999997 1044.7838 85.7600000000001 56.15330000000017" width="85.7600000000001" height="56.15330000000017">
            <path 
                d="m 520.56,1054.535 12,-0.2713 1.25,2.1511 16.58,0.06 5,-5.2876 -1.71,-4.8152 7.41,-1.5882 -0.19,0.9449 2.91,0.1608 -2.14,6.1722 5.78,0.1207 2.35,7.9615 1.53,1.719 6.25,-0.5127 8.58,-4.6844 0,0 8.5,-2.6036 0,0 2.27,1.739 -1.45,0.6535 0.09,3.1162 3.48,4.2924 1.13,6.2627 0,0 -26.33,0.3016 -6.08,-10.143 -5.57,5.2274 -1.26,-2.0809 -0.99,0.5126 -2.83,7.8108 0.53,1.91 0.86,-0.05 -0.11,2.3121 1.46,0.9047 0.3,3.2671 -3.61,6.0918 -3.74,-1.3471 -19.11,0.5328 2.68,6.313 5.7,2.0105 0,0 0,0 0,0 -3.21,6.8859 0,0 -1.96,0.3518 -10.15,-7.0266 -1.27,-4.5336 -4.36,-3.438 -2.04,-4.9056 -0.88,-0.6735 -0.87,1.337 -1.46,-3.3978 0.47,-1.4174 -0.02,-0.6534 -1.27,-4.0109 0.63,-0.7339 -0.93,-0.382 0.34,-1.0555 1.29,0.5931 1.53,-1.0555 -2.05,-0.6936 1.23,-5.4083 -2.68,-6.6446 1.87,-2.3725 0,0 z" 
                fill="rgb(151, 144, 238)" 
                stroke="white" 
                stroke-width=".7px"
                title="Sultan Kudarat" 
                id="PH-SUK" 
            />
        </svg>