<svg xmlns="http://www.w3.org/2000/svg" viewBox="217.13999999999996 1077.2838 147.30999999999997 71.41279999999983" width="147.30999999999997" height="71.41279999999983">
            <path 
                d="m 282.53,1144.4243 1.26,2.5131 -1.97,1.7592 -0.51,-1.709 1.22,-2.5633 z m -1.42,2.9756 -1.89,-0.563 2.36,-2.6639 -0.47,3.2269 z m -0.42,-6.7654 1.16,0.9651 -0.76,2.4628 -2.89,1.7491 -0.94,-2.2617 1.37,-2.473 2.06,-0.4423 z m 4.04,-1.337 3.98,3.4279 -1.68,2.8851 -1.8,0.8242 -2.97,-2.6939 -0.22,-1.3873 0.66,-2.1311 2.03,-0.9249 z m 16.12,-6.9764 -2.36,1.8497 -2.05,-1.7693 4.12,-0.9248 0.29,0.8444 z m -14.95,-1.3772 1.59,0.7238 -2.04,1.8799 -4.58,0.01 0.86,-2.5836 4.17,-0.03 z m 9.91,-2.5533 0.97,0.4423 -0.48,1.156 -1.13,-0.6233 0.64,-0.975 z m -6.17,-1.4476 1.04,2.8951 -3.15,1.6084 -0.17,-3.4781 2.28,-1.0254 z m 16.59,-6.7552 3.16,1.1459 1.11,2.4227 -3.2,1.5582 -1.63,-0.5831 -0.63,-1.92 1.19,-2.6237 z m -87.75,-2.6438 1.69,1.739 -3.03,-0.6634 1.34,-1.0756 z m 2.37,1.2364 3.64,-1.2063 -0.89,1.2666 -2.62,0.5429 -0.13,-0.6032 z m 1.94,-5.1268 -0.09,1.3169 -0.07,0.8545 -1.36,-0.7238 0.47,-1.3671 1.05,-0.081 z m 115.3,-2.684 0.79,1.7593 -1.92,1.4575 -0.89,-1.7893 0.8,-0.8846 0.31,-0.3619 0.91,-0.181 z m -106.15,1.4677 -0.98,0.181 -1.49,-1.5683 0.74,-1.0956 1.32,0.6936 0.41,1.7893 z m 103.98,-5.2374 -0.04,1.0053 -2.51,1.3068 1.5,-3.1363 1.16,0.01 -0.11,0.8142 z m -10.01,-1.8998 1.16,1.3972 -0.52,1.3773 -2.91,-0.071 -0.45,-1.4274 1.67,-1.5079 1.05,0.2313 z m 18.65,0 1.15,1.2766 2.72,0.4122 -4.43,3.1263 -1.09,-0.6635 2.44,-2.2919 -1.25,-0.8445 0.46,-1.0152 z m -16.02,-1.6386 0.48,0.965 -1.12,0.9349 -0.3,-1.5682 0.94,-0.3317 z m -24.93,-1.0957 3.13,0.9952 3.78,5.951 5.33,-1.6989 2.72,1.2667 3.35,-0.2614 0.49,-0.05 1.69,-0.3117 1.82,1.1259 0.5,2.6337 -2.74,1.3571 -0.2,2.6639 -2.28,-0.965 -4.91,4.4633 -1.12,-0.9249 0.82,-0.5628 -3.25,-1.1863 0.66,-2.0205 -0.65,-1.2063 -2.99,-1.2364 -0.97,1.3871 -0.79,-0.6432 -0.67,1.3771 -1.75,0.1408 0.04,0.8947 -3.85,1.357 -0.73,1.0254 -3.68,-3.7798 -6.14,2.9052 -4.42,-2.2719 -0.44,-2.5131 3.41,-5.2272 5.66,-2.0507 1.46,-2.3926 6.72,-0.2412 z m 47.73,-0.1508 3.53,3.83 3.32,1.5179 6.26,-2.4025 -2.78,2.5232 -4.03,1.4776 -5.77,-4.031 -1.47,-1.8094 0.94,-1.1058 z m -89.36,-3.7999 1.41,1.337 -0.99,1.1159 -0.99,-1.0354 0.57,-1.4175 z m 94.54,-0.2211 0.79,2.0406 -2.38,0.06 -0.24,-1.0353 1.83,-1.0656 z m -100.35,-1.8095 0.63,0.754 -0.99,2.1713 -2.74,-1.4375 3.1,-1.4878 z m 98.76,-0.2613 0.99,2.0205 -1.9,1.4074 -0.76,-1.6888 1.67,-1.7391 z m -61.86,-2.1613 1.92,0.955 -0.42,1.1561 -1.67,0.3619 0.17,-2.473 z m -22.54,-8.3335 0.91,1.136 -0.32,1.9703 -2.22,2.0708 -0.87,-1.2366 1.19,-1.6988 1.31,-2.2417 z m 15.04,-1.6385 0.95,1.6586 -2.44,0.8142 0.32,-2.0205 1.17,-0.4523 z m -19.32,-3.7496 -1.31,10.5249 -3.29,0.8544 -3.95,-1.0956 0.14,-1.317 2.84,0.4826 2.64,-7.8812 2.93,-1.5681 z m 8.31,-3.1565 0.02,3.0157 -3,-0.5629 -0.08,-0.9148 3.06,-1.538 z" 
                fill="rgb(151, 144, 238)" 
                stroke="white" 
                stroke-width=".7px"
                title="Sulu" 
                id="PH-SLU" 
            />
        </svg>