<svg xmlns="http://www.w3.org/2000/svg" viewBox="640.1600000000004 853.5658599999998 51.46999999999957 116.21674999999993" width="51.46999999999957" height="116.21674999999993">
            <path 
                d="m 652.55,855.00341 2.26,1.56819 0.67,0.30157 -0.92,0.84442 -1.71,-0.44232 -1.92,1.12588 -0.1,1.14598 1.66,1.70893 1.02,-0.44232 1.2,2.29197 2.03,-0.97509 -0.33,-1.19624 1.14,-0.74389 -0.05,1.74913 -1.29,0.87457 1.21,2.23165 2.46,5.10666 -0.96,0.0804 3.07,2.4327 5.07,-1.64861 3.61,-3.79984 2.82,0.11059 -1.15,1.38724 0.45,1.28672 -1.73,4.98602 0.42,3.08612 -1.52,4.19188 2.28,2.13112 0.54,-1.12588 2.92,5.0564 2.83,2.91522 0.95,0.33172 1.33,1.52798 0.24,1.56819 -1.43,0.65341 2.52,0.573 -1.33,2.77447 2.02,2.95544 -1.45,0.26136 0.89,0.85446 -1.96,1.44756 0.2,1.58828 -3.57,0.77405 -1.15,0.75394 -0.08,1.6486 -1.81,0.61321 -0.02,1.49781 2.38,1.16609 -4.19,-0.18094 -5.97,3.47816 -1.61,2.85489 3.08,2.12108 -0.83,1.24651 2.16,2.62369 1.45,-0.0804 -0.26,-0.77403 4.29,1.34702 0.44,-0.69361 -2.82,-1.26662 1.61,-0.6132 3.87,0.55289 1.95,1.54808 1.84,-0.69363 1.69,0.64336 1.21,-1.35708 0.68,0.83436 -0.82,1.34703 2.86,0.18094 0.4,1.74913 -0.97,0.73383 1.01,1.09573 -2.5,-0.34179 -1.07,3.17659 1.85,-0.18095 0.5,1.56818 -1.73,2.97554 -2.72,0.94493 1.34,1.63856 -0.79,0.30157 0.25,1.17614 3.31,0.30157 0.99,1.32693 -5.44,4.69451 2.14,3.21679 3.37,-1.44756 3.59,-3.17658 1.21,0.18094 -2.04,9.64033 1.73,1.05552 -2.67,3.18663 0.52,2.99563 -1.17,0.30158 0.67,1.82955 2.46,-0.25131 -3.13,2.50307 -1.41,0 -1.93,3.2369 0,0 -0.7,-6.6648 0,0 -0.39,-3.69931 -3.31,-1.0153 4.35,-4.26226 -4.81,0.51268 -4.43,-4.23209 -1.88,-0.26136 1.04,-3.76969 3.67,-4.20193 1.38,-0.0302 0.03,-1.74914 -1.69,-2.13112 0.86,-4.65429 -1.47,2.13112 -5.79,0.38199 -5.89,-0.71373 -2.79,-2.73427 3.51,-3.92046 -4.81,0.46241 -1.25,-7.63988 -1.8,-0.14074 -0.16,-1.06556 -0.38,-4.67441 1.71,-1.16608 -0.26,-0.84441 -3.11,-4.72466 -1.64,-5.72991 -3.57,-4.11147 -1.46,-14.27451 -3.16,-5.50876 -5.76,-6.6849 0,0 -0.54,-6.56427 0,0 12.34,-12.53544 0,0 0.05,1.4375 z" 
                fill="rgb(151, 144, 238)" 
                stroke="white" 
                stroke-width=".7px"
                title="Surigao del Sur" 
                id="PH-SUR" 
            />
        </svg>