<svg xmlns="http://www.w3.org/2000/svg" viewBox="614.28 811.6569999999995 56.45999999999992 54.3739400000004" width="56.45999999999992" height="54.3739400000004">
            <path 
                d="m 631.5,836.37617 2.57,0.42221 -0.95,0.85446 0.56,3.4279 -1.07,-0.382 -0.53,-3.05596 -1.42,0.48252 0.84,-1.74913 z m 29.17,-0.36188 2.96,0.30157 -0.04,1.4375 -2.62,-0.26136 -1.85,2.23165 0.05,-1.53803 -2.59,0.99519 -0.55,-1.80944 1.13,-0.47246 -0.07,-1.15604 1.89,2.14117 1.69,-1.86975 z m -6.37,-1.90998 -0.25,1.78935 1.54,0 0.12,-0.85446 0.67,1.30681 -0.83,0.47248 0.17,2.51312 1.71,0.29152 0.36,1.57823 -1.69,2.89511 -0.34,4.09137 -1.74,0.60314 -0.04,-1.09571 -2.51,-1.70893 -1.14,-1.06556 1.34,-0.8444 0.3,-0.22117 -0.24,-2.02054 1.42,-0.0703 -0.79,-2.96548 0.67,-0.55288 -1.37,-1.26661 1.06,-0.54284 -0.5,-2.0306 2.08,-0.30158 z m -21.81,-2.4528 1.8,2.77448 -2.49,-1.12588 -0.64,-0.0201 1.33,-1.6285 z m 5.52,-0.0101 1.65,0.81425 -1.05,2.08086 -1.85,-0.85446 -0.36,-2.04065 1.27,-0.26137 0.34,0.26137 z m -16.07,-0.12063 0.7,2.08086 2.93,-0.27141 0.9,1.27666 1.26,-0.46241 -0.69,1.25655 1.69,1.57825 -0.29,1.25655 1.48,1.89993 -0.68,1.13592 0.65,1.56819 0.23,0.68357 3.29,2.31207 2.4,-0.26137 1.83,1.33699 1.98,-0.51268 0.06,1.92002 7.62,1.79939 2.12,1.6084 0,1.47772 3.1,0.29151 0,0 -12.34,12.53545 0,0 -0.52,-4.88551 -3.91,-3.27711 -9.07,-1.67876 -5.23,0.18094 -2.66,1.2063 0,0 -4.51,-15.91307 0.72,-8.17266 2.82,-1.89993 -0.2,-2.27185 1.57,0.98514 -0.61,1.45761 1.52,-0.2111 1.84,-0.0302 z m 10.6,-8.95676 0.11,3.96068 1.08,0.94493 2.18,-0.13068 -7.1,3.41784 0.37,-1.98034 -1.15,0.83436 -0.14,-1.42745 3.08,-5.10666 1.57,-0.51268 z m -9.22,0.37195 2.74,3.59878 -3.15,-1.80945 0.41,-1.78933 z m 33,-3.75964 0.83,1.30683 -0.67,1.94013 -1.76,1.95018 -1.35,0.54283 -0.65,0.78409 -0.89,-0.41215 -0.16,-0.88462 0.54,0.51268 3.31,-3.32737 -0.52,-0.47247 1.58,-0.33173 -0.26,-1.6084 z m 6.66,-7.51925 4.29,13.72163 -0.66,0.97509 -0.97,0.46242 0.12,0.27141 1.68,1.25657 1.35,-0.60315 0.46,2.84485 1.49,-0.0403 -0.37,1.55814 -3.59,2.82475 -4.56,-0.48252 -1.91,-1.24651 -3.89,-2.99563 -1.66,-1.71898 0.76,-1.45761 2.49,-0.10053 -2.45,-1.75918 1.18,-1.71897 0.55,-1.66871 2.77,-3.68926 1.06,-2.15123 -0.5,-1.72902 2.36,-2.55334 z" 
                fill="rgb(151, 144, 238)" 
                stroke="white" 
                stroke-width=".7px"
                title="Surigao del Norte" 
                id="PH-SUN" 
            />
        </svg>