<svg xmlns="http://www.w3.org/2000/svg" viewBox="234.81000000000003 378.03342 44.91 54.49448000000007" width="44.91" height="54.49448000000007">
            <path 
                d="m 267.44,382.32587 3,12.71639 3.11,3.29721 4.15,1.13593 -2.33,4.19188 3.11,9.90169 -1.62,2.65385 -0.24,3.29723 3.1,2.36232 -0.73,2.93533 0,0 -2.03,0.31162 -0.2,-1.25655 -3.07,1.70891 -2.98,-1.0555 -1.38,0.92482 -4.73,-0.0302 -13.42,7.1071 -1.3,-0.2111 0,0 -2.42,-4.85534 -3.78,-4.27231 -8.87,-5.35797 1.65,-11.04767 2.63,-5.15692 3,-1.75918 -0.7,-1.44756 0,0 5.08,-2.37239 -0.52,-1.36713 2.55,-2.21154 0.49,-2.44276 2.47,-2.68401 6.42,2.69407 4.85,-3.08612 2.91,-8.91655 z" 
                fill="rgb(151, 144, 238)" 
                stroke="white" 
                stroke-width=".7px"
                title="Tarlac" 
                id="PH-TAR" 
            />
        </svg>