<svg xmlns="http://www.w3.org/2000/svg" viewBox="107.40999999999998 1032.6613 159.62 175.42540000000008" width="159.62" height="175.42540000000008">
            <path 
                d="m 180.94,1199.1801 -1.45,7.0669 -0.56,-2.5432 1.03,-1.8798 -1.39,-1.1963 2.42,-3.1766 -0.05,1.729 z m 29.44,-4.2622 2.96,2.0406 -3.77,-0.1608 -0.54,-1.4375 1.35,-0.4423 z m -26.9,-6.6146 2.82,5.6998 0.89,5.4786 -1.83,6.6849 -1.67,1.9201 0.5,-10.8266 -1.53,-8.1022 0.82,-0.8546 z m 25.13,-0.8243 3.63,1.8798 0.02,2.5635 -3.61,0.5428 -0.99,-4.3024 0.95,-0.6837 z m 15.72,-6.1621 -0.9,3.4781 -1.41,0.2916 0.24,-3.5184 2.07,-0.2513 z m -17.52,-1.5381 -0.42,1.3772 -2.56,-0.201 0.32,-1.3973 2.66,0.2211 z m 24.98,0.081 1.12,0.6735 -0.21,1.156 -2.58,-2.0406 1.67,0.2111 z m 7.39,0.3217 -0.7,0.6936 -2.11,-0.573 1.76,-1.5682 1.4,0.764 -0.35,0.6836 z m -30.01,-6.8056 0.52,4.3628 -1.15,0.5227 -0.75,-0.955 -0.4,1.6788 -3.17,0.4624 1.94,-4.5839 3.01,-1.4878 z m 36.27,-0.3317 0.64,1.4777 -1.18,0.8444 -2.56,-0.1408 3.1,-2.1813 z m 2.62,-1.7793 -0.58,1.9603 -1.1,-0.3821 0.15,-2.1814 1.14,-0.5026 0.39,1.1058 z m -2.6,-3.4581 -2.56,1.5381 -0.45,-1.0153 -1.55,0.3519 1.66,-5.2675 2.83,2.4326 0.07,1.9602 z m 3.75,-4.5336 -1.54,5.4083 -0.66,-2.9454 2.2,-2.4629 z m -10.97,-6.6447 0.34,3.438 2.8,1.8798 -1.7,3.086 0.65,3.7496 -1.49,2.5433 0.34,1.6586 -4.17,-1.4776 1.98,-2.8247 -1.72,-0.7339 -0.85,2.1813 -2.6,-1.6787 -1.81,2.5935 -0.77,-0.7036 -0.89,-0.5429 -1.09,0.4222 -0.17,-1.2866 -1.24,-0.081 -3.19,1.9301 0.3,1.719 -0.66,0.6232 -2.17,3.3274 -2.2,-0.7842 -3,1.7291 -0.6,0.3418 -1.49,0.9047 -2.93,-0.6434 0.35,-4.0109 -1.02,-1.0152 1.38,-1.7593 1.99,0.2011 6.09,-3.0861 2.75,-3.5184 3.65,0.3619 2.9,-2.7745 0.56,-0.7439 6.85,-4.5638 2.83,-0.4624 z m 7.73,-2.7141 1.26,0.3417 -1.68,1.2365 -1.74,-0.5026 2.16,-1.0756 z m 20.18,-1.0656 -1.75,-0.8545 0.7,-1.8195 1.93,1.6889 -0.88,0.9851 z m -151.63,-120.1875 1.53,1.5381 -1.27,2.6136 1.89,2.0909 -7.63,-1.8194 -0.04,-1.337 -1.59,-0.9751 3.31,-1.1561 1.69,0.563 2.11,-1.518 z" 
                fill="rgb(151, 144, 238)" 
                stroke="white" 
                stroke-width=".7px"
                title="Tawi-Tawi" 
                id="PH-TAW" 
            />
        </svg>