<svg xmlns="http://www.w3.org/2000/svg" viewBox="360.96999999999997 909.91004 120.0100000000001 115.68399999999997" width="120.0100000000001" height="115.68399999999997">
            <path 
                d="m 469.2,909.91004 3.18,0.8042 1.13,2.40255 3.62,-1.30682 0.47,1.37719 -1.63,1.84965 0.22,1.05551 1.75,1.52798 1.57,-0.75394 0.11,0.89467 1.36,-0.14073 0,0 -0.37,29.74528 0,0 -12.14,0.0403 -2.46,-1.23646 -10.72,-0.56294 -0.55,9.76096 -1.9,4.02099 0,4.0612 -6.47,-0.18095 -8.39,6.15212 -3.37,-0.31162 0,0 -11.8,-1.8195 -6.56,1.00525 -8.08,3.81994 -7.26,6.06164 -6.8,3.30727 -5.94,8.84618 -3.35,7.19757 -0.81,5.04631 0,0 -3.6,6.9965 -0.24,6.6346 -1.47,4.021 -5.35,5.1167 -12.38,0.2514 0,0 5.24,-7.4992 2.43,-0.955 0.37,-1.2565 3.71,-1.1359 0.12,-1.3773 -2.02,-0.9549 -0.54,-2.3322 1.99,-3.056 -0.15,-3.4078 2.56,-3.6187 -1.21,-2.00054 2.06,-0.10053 2.99,-3.59878 -0.57,-1.11583 -0.91,0.58305 -1.26,-1.08567 2.1,-3.19669 0.05,-2.02055 -1.34,-4.02099 -2.27,-1.00525 1.31,-1.93007 0.61,1.00524 0.91,-0.59309 -0.33,-1.46766 0.12,-1.75918 1.47,-0.39205 1.35,-3.83 4.81,-3.64905 -0.02,-3.81994 8.65,-5.6897 8.47,-2.48296 3.51,0.53278 5.32,-1.32692 3.27,-2.19145 2.38,-3.59879 1.78,3.0258 2.46,0.65341 6.78,-0.65341 3.35,-1.90997 3.87,0.0201 6.05,-4.94582 -0.08,-2.62369 -2.04,-0.79414 -2.2,-3.39774 3.37,-1.48777 -0.21,-6.33306 2.07,-1.05551 1.62,-4.54372 2.39,-1.8396 8.63,-1.29677 6.29,1.54808 2.18,-0.54284 2.25,-3.18663 1.43,-5.28761 1.48,-0.6333 1.6,1.36713 1.58,-0.59309 0.43,-2.15123 -1.64,-0.93488 -0.28,-0.62325 -1.12,-1.52798 0.01,-1.57824 1,-0.0101 z" 
                fill="rgb(151, 144, 238)" 
                stroke="white" 
                stroke-width=".7px"
                title="Zamboanga del Norte" 
                id="PH-ZAN" 
            />
        </svg>