<svg xmlns="http://www.w3.org/2000/svg" viewBox="213.4599999999999 381.33068000000003 42.950000000000074 83.04351999999983" width="42.950000000000074" height="83.04351999999983">
            <path 
                d="m 214.85,384.23585 1.78,0.92482 2.65,-1.21635 0.71,1.37719 2.3,0 2.76,-3.99083 4.11,2.58349 4.6,-0.98515 2.7,7.32826 4.93,8.15256 0,0 0.7,1.44755 -3,1.75919 -2.63,5.16697 -1.65,11.03763 8.87,5.35796 3.78,4.28236 2.42,4.85534 0,0 -0.91,2.37239 0.56,2.27186 2.82,2.06076 1.26,2.57343 -0.12,3.98078 2.25,2.09092 0.67,2.52317 0,0 -1.8,3.57868 -4.35,-0.68357 -1.29,3.15648 -4.04,3.18663 -0.53,0.41216 0.16,-1.19625 -1.9,-0.31162 -0.3,-1.89993 -1.73,-0.10051 -1.43,-2.27186 -1.65,0.91476 0.91,3.74958 -2.56,5.6495 -4.59,-1.59835 1.45,-0.31162 -1.09,-1.26662 -2.68,-0.31163 1.94,-2.61363 -2.2,0.59309 0.35,-2.96548 -0.96,0.0201 0.07,-1.86976 -1.45,-1.33698 1.01,-9.02713 -0.87,-6.42352 -3.08,-9.95196 0.34,-2.44275 -2,-2.46286 -1.71,-1.98034 0.11,-1.57823 -2.72,-2.89512 0.63,-0.4222 -2.32,-0.71373 0.14,-1.27666 -1.29,-1.00525 1.97,-1.33698 -1.15,-1.73908 0.29,-1.6486 0.99,1.2465 1.75,-0.0804 0.25,-1.4375 1.59,-0.8042 -2.3,-3.57869 0.87,-1.27666 -1.5,0.0804 0.08,1.19624 -0.9,-0.34177 0.6,-2.65386 -1.52,-1.98034 1.55,-1.65866 0.62,-3.71941 -1.22,-1.00525 -1.21,0.39204 -2.28,-2.56338 2.96,-1.49782 -1.57,-3.8903 z" 
                fill="rgb(151, 144, 238)" 
                stroke="white" 
                stroke-width=".7px"
                title="Zambales" 
                id="PH-ZMB" 
            />
        </svg>