<svg xmlns="http://www.w3.org/2000/svg" viewBox="360.68999999999994 967.29964 87.09999999999974 77.18295999999987" width="87.09999999999974" height="77.18295999999987">
            <path 
                d="m 387.8,1036.33 0.61,0.7439 -0.46,2.2819 -3.14,-0.5227 0.5,1.0655 -2.72,2.2618 1.07,-2.7644 -0.57,-0.6836 1.21,-1.5179 1.37,0.5931 2.13,-1.4576 z m 48.36,-29.3632 0.67,-0.5328 -1.17,-1.3773 -2.24,-1.0555 -0.88,1.0354 0.28,3.5486 -0.93,0.7137 -3,-4.7951 -2.52,0.8947 -1.07,5.6193 1.61,0.5932 -0.32,3.0056 1.85,1.4174 1.17,-2.2517 3.83,-0.8545 1.39,-2.1109 2.24,0.7337 -1.83,-2.3723 3.67,0.6132 -2.75,-2.8247 z m 10.76,-29.93636 -12.31,-1.56819 0,-6.34311 -11.8,-1.8195 -6.56,1.00525 -8.08,3.81994 -7.26,6.06165 -6.8,3.30726 -5.94,8.84618 -3.35,7.19757 -0.81,5.04631 -3.6,6.9965 -0.24,6.6347 -1.47,4.021 -5.35,5.1167 -12.38,0.2513 -0.28,5.0464 2.93,8.2429 12.37,5.5893 3.09,-1.3973 0.44,-1.1761 2.06,-2.1513 1.98,-6.1421 0.06,-0.8746 -0.58,-1.4978 3.77,-3.086 -0.06,-1.317 -1.1,-0.1407 1.38,-2.0607 -0.96,-2.1814 1.33,-0.4021 -0.18,-0.6736 0.29,-1.7089 0.96,-0.2814 0.78,-6.5744 2.02,-1.1157 0.77,0.5227 -0.24,1.6385 1.09,-0.5127 3.82,-5.5691 -3.54,-0.5126 0.94,-4.785 -0.1,-0.1408 3.42,-1.8295 1.36,-1.02537 1.9,-2.24166 1.35,-0.30158 1.3,0.0403 0.16,-1.76924 1.37,-1.25656 -3.96,0.88462 -1.28,-0.34179 -0.19,-1.14597 4.28,-3.24696 -0.55,-1.50786 1.97,-2.7946 1.16,-0.19099 1.28,-3.05596 5.55,-1.75918 0.34,-1.25656 1.15,0.4021 1.29,-1.31688 1.03,1.68882 1.47,-1.63856 1.9,0.34179 1.89,2.49301 1.65,-0.93488 3.25,1.29677 0.54,2.29196 -1.45,-0.91477 -0.2,1.54809 -1.11,2.15122 1.01,2.68402 -0.69,1.70892 0.16,1.66871 1.68,0.89467 0.78,2.94537 -0.76,1.27667 -0.98,-1.71897 -0.74,0.49257 -0.66,3.80987 0.12,1.2163 1.39,-1.3772 1.32,0.7841 -0.27,3.2671 1.32,-0.8947 0.69,0.7639 2.39,-2.1009 -0.01,-1.6084 -1.37,-0.6434 2.07,-0.99517 0.34,-2.27177 1.02,-0.33173 1.24,0.54284 2.16,4.21193 1.65,-0.5529 1.38,2.1613 0.86,-1.5984 -0.54,-1.49781 2.84,-5.74992 -0.62,-3.49826 2.26,-0.0201 -0.32,-1.94013 0.5,-0.56294 0.1,-1.3973 1.64,0.22115 0.95,-2.0708 -0.87,-7.74041 z" 
                fill="rgb(151, 144, 238)" 
                stroke="white" 
                stroke-width=".7px"
                title="Zamboanga Sibugay" 
                id="PH-ZSI" 
            />
        </svg>