<svg xmlns="http://www.w3.org/2000/svg" viewBox="105.27486000000017 550.1702 190.12999999999988 217.4500000000013" width="190.12999999999988" height="217.4500000000013">
            <path 
                d="m 181.25486,750.7102 0.58,2.09 -1.43,-0.58 -2.03,0.72 1.01,-1.05 -0.63,-1.38 2.5,0.2 z m 25.41,-179.5 5.81,0.34 2.84,-0.68 0.71,-1.25 0,0 0.58,0.03 0,0 1.59,-2.05 -0.89,-1.86 2.14,-2.11 2.52,1.09 1.51,-1.32 1.14,1.36 1.36,-0.19 0.87,-1.33 -1.25,-1.34 1.36,-1.74 -0.14,-2.09 -2.07,-1.9 -0.31,2.65 -1.53,-0.04 -0.9,-1.43 1.87,-0.99 -4.96,-0.95 1.73,-0.54 -0.48,-2.39 2.3,-0.07 1.29,-0.98 1.28,0.9 2.12,-1.95 2.08,1.99 1.39,-1.73 1.46,-0.18 0.65,2.34 2.11,-0.18 1.05,2.19 -0.33,-2.99 0.69,-0.79 0.99,0.42 4.24,-1.28 -0.25,1.79 0,0 -0.13,1.58 0,0 0.2,1.92 -1.24,0.55 0.97,0.84 -1.08,1.89 1.8,1.69 0,0 0.53,-0.18 0,0 0.92,-0.43 0.11,-2.27 2.07,-1.07 1.08,3.87 0,0 0.59,0 0,0 1.06,-2.17 2.92,-2.05 -0.29,0.96 2.43,1.82 -0.2,4.96 1.58,0.93 1.09,3.15 -1.91,1.6 0.38,1.69 -2.35,2.17 3.04,0.98 0.35,-2.16 2.17,-1.96 1.06,0.52 -1.09,1.95 1.39,-0.05 0.04,0.87 0,0 0.26,0 0,0 -0.71,5.9 0.87,0.87 5.81,-0.09 0.71,-1.8 1.97,-1.33 -1.36,-1.21 1.64,-1.67 1.68,1.17 -0.4,2.22 2.4,0.25 -1.38,1.8 1.38,2.69 -1.08,0.1 -0.68,1.46 2.52,0.98 1.79,4.09 -3.48,1.64 1.03,2.79 -1.06,-0.14 -0.24,0.98 0.45,1.25 2.05,0.6 -0.64,2.19 1.59,1.98 -1.45,1.71 -0.64,-1.27 -0.91,1.67 1.5,0.57 -0.9,0.5 1.3,3.52 -0.86,-0.02 -0.12,1.15 1.98,0.65 0.82,1.43 0.72,-0.44 1.24,2.69 1.26,-0.82 1.85,1.41 0.47,1.88 -1.94,1.04 -0.98,1.73 1.19,1.1 1.43,-0.19 -1.01,1.54 1.75,1.26 -0.74,2.19 2.75,-0.23 1.78,1.59 1.7,-0.16 0.5,2.29 1.59,0.36 0,1.2 0.89,-0.17 0.68,1.1 0.48,-0.52 -0.54,1.68 0.84,-0.2 0.79,2.09 1.35,0.82 -0.83,0.47 1.21,1.63 -2.17,1.09 1.96,1.63 -0.01,2.9 -1.64,1.49 1.36,1.22 0.03,1.87 -1.8,1.2 0.77,2.2 -1.3,0.48 0.98,1.41 -0.75,0.92 1.94,1.78 1.09,-0.68 -0.57,0.66 1.75,1.98 -0.73,0.51 1.5,1.48 -1.91,1.63 -3.44,0.88 0.99,-1.11 -0.24,-1.67 0.99,-0.28 -1.91,-0.44 -1.27,3 -1.75,1.26 -1.64,-3.45 -1.99,0.37 -2.24,-1.68 0.28,1.63 -1.07,0.55 -0.1,1.45 4.3,5.42 -1.56,0.5 -0.29,1.34 1.26,2.41 -0.75,2.06 0.59,1.91 -4.84,1.1 -0.49,0.48 0.92,0.08 -0.03,1.33 -3.67,1.55 -0.82,1.69 -2.44,0.25 -1.66,-2.13 -2.75,2.2 -1.65,-0.43 -0.59,2.06 0.88,0.8 -4.53,4.87 0.29,1.39 1.51,0.05 -0.06,1.53 4.28,6.26 -0.06,4.58 2.82,9.76 1.77,1.83 0.54,3.63 0,0 0,1.46 0,0 -0.27,0.52 0,0 0.08,0.63 0,0 -1.66,6.79 -1.75,0.73 0,1.75 1.47,1.45 -0.08,2.16 -0.87,2.45 0.62,0.47 -1.8,1.26 0.31,1.01 1.42,-0.73 -0.89,2.04 0.98,-1.02 -0.27,0.98 2.25,3.09 -1.13,-0.23 -0.37,1.11 -1.47,-0.36 -1.76,1.6 3.47,2.57 -0.11,3.86 1.5,1.68 -0.57,2.28 -1.2,1.09 -1.33,-0.68 -0.92,3.2 -0.78,-3.42 -2.13,0.08 -0.25,-1.09 -1.76,0.56 -2.23,2.73 -7.15,-2.49 -1.34,0.95 0,0 -0.05,0.42 0,0 -0.96,1.37 -1.57,0.21 0.19,1.16 -2.63,2.13 -3.03,0.98 -3.02,-0.93 -1.23,0.82 -1.72,2.03 -0.75,3.14 0,0 -8.57,-1.57 -17.77,-8.74 -6.15,-2.13 -4.49,-0.58 -7.9,3.55 -2.79,-3.15 0.04,-1.35 1.42,0.19 -0.1,-0.92 -3.39,-0.93 -0.63,-2.31 -2.45,1.83 -0.04,1.09 2.54,1.23 -1.1,1.85 -4.17,-1.79 0.59,-2.13 -1.5,-1.13 0.59,-1.55 1.21,-0.35 -1.14,-1.56 -1.86,0.82 -0.64,-2.7 -1.89,-1.45 -0.63,1.13 0.5,1.41 -1.48,1.36 -0.73,-3.78 -2.64,-0.08 -0.59,-0.79 -0.34,1.35 0.92,1.16 -1.54,-0.29 -2.03,1.32 -2.31,0.08 -2.21,2.82 0.31,1.66 -3.05,2.26 0.94,1.41 -0.97,0.94 2.51,1.85 1.43,-0.25 0.51,1.69 -0.15,-1 1.31,0.77 2.08,-0.29 -0.02,-1.47 0.9,0.28 0.25,-0.94 2.24,0.44 1.61,-0.96 1.48,2.35 -0.79,0.94 -0.43,-1.37 -0.82,0.87 0.56,2.79 -1.86,1.74 -0.93,-0.58 0.51,-1.49 -3.17,-1.53 -0.75,1.48 -3.26,1.5 0.69,1.64 1.36,-0.43 -0.13,1.06 -3.53,1.05 -2.15,-1.04 -0.94,1.05 -3.79,-0.69 -2.22,-3.43 -2.03,-0.53 -1.94,0.99 -1.36,-1.51 -2.55,2.47 -3.53,1.19 -1.27,2.29 -1.38,-0.64 -3.07,1.31 -3.86,-0.68 -1.04,1.31 -1.93,-0.6 -1.32,-3.49 -4.44,-0.06 -1.66,2.86 -6.59,2.36 -1.63,-0.37 -2.09,-2.35 3.29,-0.43 -0.9,-1.98 1.31,-1.29 -1.19,0.85 -1.68,-0.35 -1.74,1.68 -1.89,-1.15 -1.52,-4.03 -2.8,-2.8 -0.69,-3.32 2.32,-3.43 -1.16,-4.31 2.07,-5.87 -0.35,-3.58 1.6,-1.72 0.09,-3.17 2.5,-3.93 -0.91,-2.78 -2.45,-3.14 0.47,-8.22 5.72,-9.64 1.7,-7.66 3.29,-2.43 -0.78,-6.43 2.01,-5.67 0.28,-3.51 2.4,-2.35 -0.38,-6.66 2.49,-5.48 3.19,-2.03 4.76,-5.77 0.5,-3.39 2.79,-0.31 0.89,-2.46 2.35,-0.29 1.46,-1.3 3.8,-9.85 3.08,-5.1 2.23,-0.86 0,0 3.3,-2.83 0,0 0.84,-1.81 0,0 0.94,-3.87 2.98,-4.55 0.58,-6.63 2.36,-4.89 -1.26,0.07 0.34,-1.56 6.23,-5.87 -2.43,-2.9 3.03,-4.07 0.13,-2.13 -1.68,1.46 -0.7,-0.76 2.08,-1.95 0.78,-3.29 -4.12,-1.49 1.32,-2.01 -3.05,-8.11 0.45,-2.96 0,0 1.61,-0.57 1.76,0.6 5.46,6.77 2.24,-1.66 0.73,0.32 0.53,-1.27 -1.32,-6.75 6.19,-1.33 -0.3,1.47 -0.4,-1.36 -0.73,0.53 1.75,1.9 -1.08,2.12 1.58,2.64 -0.2,1.28 1.97,1.69 0,0 -0.01,-0.26 0,0 4.13,0.91 1.63,-1.25 -0.34,1.83 0.93,1.38 0.94,-0.9 3.32,-0.18 0.09,1.77 -1.49,1.74 -0.93,0.07 -0.61,-1.69 -1.71,1.5 0.77,3.37 -2.31,2.29 0.85,1.33 1.06,-1.06 1.16,1.21 2.8,-2.55 0.52,-2.21 0.69,0.62 2.36,-1.75 -1.2,-1.41 0.58,-1.44 0.87,0.19 -0.15,-2.07 2.16,-0.62 2.54,1.25 1.36,-1.07 0,0 0.26,-0.48 0,0 0.92,-1.64 2.21,0.4 0.44,1.6 1.24,-0.71 -3.41,-4.71 0.09,-1.04 0.61,1.39 1.08,0.1 0.07,-1.67 z" 
                fill="rgb(151, 144, 238)" 
                stroke="white" 
                stroke-width=".7px"
                title="Baden-Wurttemberg" 
                id="DE-BW" 
            />
        </svg>