<svg xmlns="http://www.w3.org/2000/svg" viewBox="198.59485999999893 473.54019999999997 309.9700000000006 318.74000000000007" width="309.9700000000006" height="318.74000000000007">
            <path 
                d="m 266.49486,478.2802 1.96,-1.04 -0.11,-0.92 2.4,-2.78 2.19,2.1 0.52,-0.95 1.56,0.95 0.25,-0.9 1.56,-0.24 0.3,1.38 1.48,0.94 0.03,1.99 1.52,-0.2 2.95,1.94 1.79,-0.03 0.44,2.85 1.97,2.69 0.87,-0.12 -0.68,0.75 2.01,0.64 -1.16,1.68 0.68,1.49 3.64,-0.78 1.34,2.81 0,0 0.47,0 0,0 0.71,-0.18 -0.02,2 1.3,-0.45 0.18,0.96 1.12,-1.55 0.77,0.17 1.09,2.6 2.43,0.42 -0.49,2.58 0.77,1.49 -0.82,2.12 1.05,-0.02 -0.59,0.83 0.79,1.4 -0.86,0.35 0.65,1.53 1.4,0.71 1.88,-0.69 2.29,1.79 0,0 0.33,0 0,0 1.07,0.73 0.83,-0.67 0.11,-3.97 2.41,0.98 2.03,-1.02 1.36,1.39 1.53,-0.66 -0.07,-3.07 -2.17,-0.39 0,0 -0.35,0 0,0 -0.17,-1.22 -2.06,-0.16 -1.84,-2.23 -1.66,-0.52 0.81,-2.35 -0.97,-0.15 0.18,-1.84 2.45,0.63 2.01,-2.65 1.22,0.53 1.71,-1.3 1.92,0.45 0.89,-0.85 0.96,1.6 1.08,-0.65 0,0 0.48,-0.19 0,0 1.27,-0.35 3.12,4.44 0.82,-0.16 -0.26,-1.59 2.76,0.53 0.46,1.6 2.62,-0.78 0.23,-1.35 1.68,-0.13 0.17,1.75 1.27,-0.4 1.27,2.25 -1.56,3.05 0.81,1.41 2.3,0.49 -0.41,1.08 0.92,-0.32 0.31,-1.99 3.59,2.44 0.33,-2.02 0,0 0.26,0 0,0 -0.58,-0.48 1.13,-1.25 -0.51,-3.07 0.95,0.08 -0.94,-1.53 1.47,-0.87 -1.69,-3.98 0.57,-3.04 -1.19,-1.85 -0.03,-2.97 2.5,-0.63 0.25,0.95 0.71,-1.38 1.29,-0.14 -0.05,-1.77 1.63,-0.22 -0.07,-1 5.42,0.95 0.63,1.19 -0.35,0.79 -0.97,-0.24 0.02,4.95 1.93,1.26 -0.49,1.19 1.39,-1.21 1.16,0.18 -0.24,2.95 2.65,0.48 0.09,2.1 2.42,-1.05 0.72,-1.46 1.42,-0.29 1.98,1.54 5.31,-1.49 0.38,0.64 1.59,-1.3 1.56,0.32 -0.7,-0.87 1.28,0.43 0.44,-0.92 2.9,1.69 0,1.31 6.28,-3.38 0,0 1.91,1.55 -0.26,1.24 0.96,-0.44 1.19,1.14 -0.37,3.76 1.27,-0.36 3.12,2.85 0.07,-0.62 2.83,-0.16 0.58,1.54 0,0 1.56,1.15 -0.4,0.92 1.34,2.14 -2.69,1.32 -0.4,1.29 2.26,1.64 1.48,-0.28 0.61,2.47 0.93,-0.27 0.54,1.42 0.9,0.05 -0.51,0.44 1.7,2.57 -1.37,2.61 0.34,3.27 2.03,1.48 1.06,-0.3 1.72,2.08 -0.89,1.79 3.6,0.54 0.67,2.01 0.64,-0.69 1.91,2.2 2.1,0.15 0.09,1.07 1.84,0.25 0.07,1.76 1.8,-1.04 1.88,1.38 0.59,0.91 -1.81,2.3 0.45,1.25 4.43,1.51 0.19,1.97 -3.36,4.36 0.03,1.8 -1.48,0.24 -0.65,2.46 0.5,2.39 -4.51,2.53 0.11,1.8 2.44,3.83 2.9,1.61 2.18,0.07 0.4,6.7 2.07,-0.15 1.87,8 2.02,1.11 0.95,-0.57 0.49,0.87 -0.67,4.55 1.48,2.33 0.03,1.84 3.26,0.96 3.12,2.92 1.46,4.67 4.33,0.23 2.17,1.48 -0.03,-2.03 3.96,0.61 4,3.75 1.41,0.15 0.31,3.86 1.3,0.08 0.47,1.28 1.28,0.38 0.43,1.84 1.66,0.95 -0.17,1.54 3.85,2.89 0.43,3.45 3.63,2.26 3.42,-0.46 6.64,6.3 0.63,6.49 5.86,4.4 0.82,-0.12 -0.02,-2.55 1.53,-0.5 3.11,0.37 1.8,3.16 1.3,-1.12 -0.41,1.02 3.1,5.65 2.84,0.25 1.39,-0.82 1.66,4.91 1.84,0.54 1.39,3.07 -0.61,1.66 2.21,0.89 -2.89,5.43 1.11,1.33 1.62,0.29 -1.59,0.69 0.68,7.41 -1.47,1.75 0.03,2.06 -2.02,1.93 -0.71,-0.96 -0.78,1.04 0.17,2.04 -1.05,1.7 -4.19,-1.88 -0.74,-1.35 -3.04,-1.76 -2.09,0.62 -4.13,-2.85 -0.16,1.38 -1.93,1.85 -1.62,-0.77 -0.75,0.57 1.19,4.45 -2,5.28 0.81,2.51 -1.8,5.37 -4.87,4.65 -5.03,3.17 -4.67,-0.22 -10.25,3.56 -4.04,4.58 -5.57,0.74 -1.44,3.29 -3.07,2.02 -0.88,2.22 -1.76,-0.31 -0.55,1.64 0.82,3.46 5.68,5.45 1.47,4.99 2.51,0.63 0.53,1.6 1.02,-0.36 4.17,8.89 -4.82,7.3 0.95,0.76 -2.22,3.84 1.29,1.2 2.77,0.29 2.89,-1.49 4.05,3.45 -0.23,1.61 1.38,3.3 -2.3,3.11 0.56,1.35 -1.81,1.06 0.98,1.34 -1.67,2.53 1,1.24 -0.08,2.84 -2.78,2.65 -0.57,-1.43 -1.29,-0.6 -0.37,1.02 -3.76,-2.14 -1.69,-2.33 -1.85,-0.8 -0.37,-1.53 -3.22,-0.86 -1.03,-2.42 1.1,-2.26 1.7,-0.66 -4.17,-3.65 1.51,-2.1 -1.55,0.88 -1.74,-1.55 -3.25,-0.21 -2,1.18 -2.81,-0.23 -1.85,3.78 -2.47,-0.31 -2.53,1.04 -3.8,-4.74 0.06,-1.85 -4.61,1.03 -2.01,-1.2 -5.15,1.68 -0.89,-1.42 1.47,-3.67 -0.79,-0.93 -2.4,2.91 -3.26,1.12 2.35,5.85 0.18,2.99 -1.79,0.51 0.19,-1.25 -2.49,0.81 -4.86,-1.27 -2.62,0.84 -0.76,-1.44 -2.08,1.1 -3.97,-0.04 -3.68,1.12 -0.72,1.89 -3.95,-0.88 -7.61,0.68 -1.69,-0.99 -0.15,1.32 -1.93,0.17 -1.02,5 -0.99,0.98 -4.23,0.93 -4.68,-0.77 -3.14,3.85 1.5,0.43 0.89,2.18 -5.37,-0.43 -2.97,2.08 -0.09,1.84 -1.35,0.98 -2.84,0.19 1.85,-3.09 -3.03,-0.54 -4.97,2.03 -0.77,1.48 -8.86,-0.17 -0.45,-1.56 0.89,-1.44 -3.48,-3.83 0.4,-0.91 -4.22,-0.14 0.23,-1.84 2.85,-1.06 -1.9,-2.25 -6.96,2.15 -1.2,-1.89 -4.06,-0.97 -0.28,-1.37 -5.85,-0.9 -1.67,3.29 -3.1,-0.12 -4.33,-1.93 1.62,-2.79 -2.72,0.08 -0.5,0.68 1.42,2.16 -1.36,4.78 0.77,1.74 1.62,0.75 0.44,4.09 -2.5,2.07 -0.03,2.77 -2.52,0.5 -4.22,6.64 -6.19,3.25 -2.05,-0.58 -1.6,0.66 0.21,-2.45 2.24,-1.53 -0.96,-1.44 2.4,-5.12 -0.63,-0.54 -0.91,0.78 -1.91,-1.24 -1.18,2.3 -2.97,-0.59 -1.25,1.83 -1.79,-5.3 2.2,-1.57 -0.74,-2.35 -2.47,-1.18 -0.73,-2.03 -2.73,0.43 -0.87,-1.39 0.53,-0.49 -1.93,-1.75 0.34,-2.32 -0.48,1.08 -2.7,0.48 -2.53,-1.74 -0.48,1.87 -3.75,-1.87 0.76,-2.91 -1.66,-1.53 -2.51,1.09 -1.63,4.72 -8.67,-1.35 0,0 0.75,-3.14 1.72,-2.03 1.23,-0.82 3.02,0.94 3.04,-0.98 2.63,-2.13 -0.19,-1.16 1.57,-0.21 0.95,-1.37 0,0 0.05,-0.42 0,0 1.34,-0.96 7.15,2.49 2.23,-2.72 1.76,-0.56 0.25,1.1 2.12,-0.08 0.79,3.41 0.92,-3.19 1.34,0.68 1.19,-1.09 0.58,-2.28 -1.51,-1.69 0.11,-3.85 -3.47,-2.57 1.76,-1.6 1.46,0.36 0.37,-1.11 1.14,0.23 -2.25,-3.1 0.27,-0.97 -0.98,1.02 0.89,-2.04 -1.42,0.73 -0.31,-1.01 1.8,-1.26 -0.63,-0.47 0.87,-2.45 0.08,-2.16 -1.47,-1.45 0,-1.75 1.75,-0.73 1.66,-6.79 0,0 -0.08,-0.63 0,0 0.28,-0.52 0,0 0,-1.47 0,0 -0.54,-3.62 -1.77,-1.83 -2.81,-9.76 0.06,-4.58 -4.28,-6.26 0.06,-1.53 -1.52,-0.05 -0.28,-1.39 4.53,-4.87 -0.88,-0.81 0.59,-2.06 1.64,0.44 2.75,-2.21 1.66,2.13 2.44,-0.25 0.83,-1.69 3.67,-1.55 0.02,-1.33 -0.92,-0.08 0.49,-0.48 4.84,-1.1 -0.58,-1.91 0.74,-2.07 -1.26,-2.41 0.29,-1.33 1.56,-0.5 -4.3,-5.43 0.09,-1.45 1.07,-0.55 -0.28,-1.63 2.25,1.68 1.99,-0.37 1.64,3.45 1.75,-1.26 1.27,-3.01 1.91,0.45 -0.98,0.28 0.23,1.66 -0.99,1.11 3.44,-0.88 1.91,-1.62 -1.5,-1.49 0.73,-0.51 -1.75,-1.97 0.57,-0.66 -1.09,0.69 -1.94,-1.79 0.75,-0.92 -0.98,-1.41 1.3,-0.48 -0.77,-2.2 1.8,-1.2 -0.02,-1.87 -1.37,-1.22 1.65,-1.49 0.01,-2.89 -1.96,-1.64 2.18,-1.09 -1.22,-1.64 0.84,-0.47 -1.35,-0.82 -0.79,-2.09 -0.84,0.2 0.54,-1.68 -0.47,0.52 -0.69,-1.11 -0.88,0.17 0,-1.2 -1.59,-0.36 -0.5,-2.29 -1.7,0.16 -1.78,-1.59 -2.75,0.23 0.74,-2.19 -1.75,-1.26 1.02,-1.55 -1.43,0.2 -1.19,-1.1 0.98,-1.73 1.94,-1.04 -0.46,-1.87 -1.86,-1.41 -1.25,0.82 -1.24,-2.7 -0.72,0.44 -0.82,-1.43 -1.99,-0.65 0.12,-1.15 0.87,0.02 -1.3,-3.52 0.9,-0.5 -1.5,-0.57 0.91,-1.67 0.64,1.27 1.44,-1.71 -1.59,-1.98 0.64,-2.19 -2.04,-0.6 -0.46,-1.25 0.25,-0.98 1.05,0.14 -1.03,-2.79 3.48,-1.64 -1.79,-4.1 -2.52,-0.98 0.68,-1.45 1.09,-0.1 -1.38,-2.69 1.38,-1.8 -2.4,-0.26 0.4,-2.22 -1.69,-1.16 -1.63,1.66 1.36,1.21 -1.97,1.34 -0.71,1.8 -5.8,0.08 -0.88,-0.87 0.71,-5.89 0,0 -0.26,0 0,0 -0.05,-0.87 -1.39,0.05 1.09,-1.95 -1.05,-0.52 -2.17,1.96 -0.35,2.15 -3.04,-0.98 2.34,-2.16 -0.37,-1.69 1.91,-1.6 -1.09,-3.15 -1.58,-0.93 0.2,-4.96 -2.43,-1.82 0.29,-0.96 -2.92,2.05 -1.06,2.17 0,0 -0.58,0 0,0 -1.09,-3.87 -2.07,1.07 -0.11,2.27 -0.91,0.43 0,0 -0.53,0.18 0,0 -1.8,-1.69 1.08,-1.89 -0.97,-0.83 1.24,-0.55 -0.2,-1.92 0,0 0.14,-1.59 0,0 0.25,-1.79 -4.24,1.28 -0.99,-0.42 -0.7,0.79 0.33,2.99 -1.04,-2.2 -2.11,0.18 -0.65,-2.34 -1.46,0.18 -1.39,1.73 -2.08,-1.99 -2.12,1.95 -1.28,-0.9 -1.3,0.99 -2.3,0.07 0.49,2.39 -1.73,0.54 4.96,0.95 -1.87,0.99 0.9,1.43 1.53,0.04 0.31,-2.65 2.06,1.89 0.14,2.1 -1.36,1.74 1.25,1.33 -0.86,1.34 -1.37,0.18 -1.14,-1.36 -1.51,1.31 -2.52,-1.09 -2.15,2.11 0.9,1.87 -1.59,2.05 0,0 -0.58,-0.03 0,0 -0.71,1.25 -2.84,0.68 -5.81,-0.34 0,0 -1.24,-2.27 -1.05,-0.18 -0.01,-1.68 2.24,-2.14 -0.77,-5.11 2.44,-0.74 -0.37,-1.29 1.61,-2.65 -2.58,-1.76 1.73,-2.3 -0.44,-1.36 -2.38,0.46 -0.82,-2.57 0.54,-2.87 -1.34,1.46 -0.75,-0.74 0.53,-0.68 -1.61,0.21 -0.2,-2.22 1.1,-0.06 -1.75,-4.27 -0.3,-6.66 0.48,-1.4 1.51,-0.14 -0.96,-1.08 -0.35,-3.55 -3.33,-0.76 1.4,-2.08 -0.05,-2.24 1.36,-1.94 6.39,-1.5 2.23,0.94 -0.17,2.51 2.51,-3.48 -0.33,-1.11 2.25,-1.1 2.12,1.05 3.54,0.52 1.18,-0.73 0.8,0.89 1.84,0.02 2.04,4.06 2.02,0.59 4.99,-1.01 -0.29,-5.03 0.82,-0.42 0,0 0.49,-1.62 0,0 -0.09,-0.13 0,0 -1.83,-0.92 0,0 0.13,-1.62 0.97,-0.61 -1.3,-2.71 0.33,-1.51 2.66,1.68 2.18,-0.78 0.42,1.08 5.2,-1.17 0.07,-0.75 -1.78,-0.95 1.06,-2.05 3.02,-0.98 2.87,-2.87 0.02,-3.15 -0.87,-1.43 1.83,-6.93 1.22,0.64 1.35,-0.64 0.41,1.19 3.18,1.63 0.79,-1.32 0.71,1.02 1.26,-0.39 3.65,-2.03 2.54,-3.77 1.26,-0.49 z" 
                fill="rgb(151, 144, 238)" 
                stroke="white" 
                stroke-width=".7px"
                title="Bavaria" 
                id="DE-BY" 
            />
        </svg>