<svg xmlns="http://www.w3.org/2000/svg" viewBox="460.80485999999985 257.3302000000001 42.530000000000086 35.14999999999992" width="42.530000000000086" height="35.14999999999992">
            <path 
                d="m 485.39486,257.9802 0.07,0.04 0,0 0.71,-0.34 -0.07,1.39 2.28,1.41 -1.62,3.88 0.69,1.62 2.67,0.48 2.06,1.77 0.11,2.3 3.23,0.76 -0.5,1.12 1.82,0.12 -2.93,6.07 0.78,0.58 1.57,-1.33 3.72,2.51 -0.35,-1.35 3.7,2.57 -1.24,1.14 0,0 -0.93,-0.22 0,0 1.13,0.54 0,0 0.03,0.24 0,0 -0.31,0.04 0,0 -0.36,0.64 0,0 0.44,1.14 0,0 -0.63,1.04 0,0 -2.73,1.4 0.85,1.18 -1.71,0.9 -1.59,2.86 -0.71,-0.74 0.46,-3.25 -0.94,-0.59 -1.43,0.8 -0.97,-1.91 -3.48,0.41 -0.07,-1.11 -3.57,0.43 -0.85,-2.5 -2.96,1.03 -0.02,3.55 -1.98,-0.19 -0.15,-1.09 -1.02,-0.03 -1.72,-2.29 -1.47,0.76 0,0 -0.99,-0.32 0,0 -0.47,-1.07 -1.47,1.24 -1.6,-0.02 -0.21,-1.62 -1.29,-0.13 -3.7,1.57 -0.57,1.01 0.81,0.13 -2.44,0.49 0,0 -0.34,0.02 0,0 0.63,-0.82 -2.19,-1.25 0,0 -0.31,-0.17 0,0 -0.46,-0.01 0,0 0.4,-1.09 0,0 1.69,-1.64 -0.83,-1.18 0.53,-3.02 3.13,-3.25 -1.53,-1.08 -1.65,0.29 0.63,-3.45 1.19,-0.28 0.5,-2.31 -1.58,-1.22 2.24,-1.29 3.36,1.15 -0.96,-1.99 1.22,-2.22 2.74,0.06 -0.17,-1.35 1.38,-0.19 0.02,-1.98 1.7,0.36 -0.02,2.99 3.2,0.55 2.21,-2.56 1.84,1.26 1.35,-1.5 1.67,-0.09 -1.29,-1.22 0.56,-0.7 0,0 0.91,-0.53 0,0 0.38,0.11 0,0 z" 
                fill="rgb(151, 144, 238)" 
                stroke="white" 
                stroke-width=".7px"
                title="Berlin" 
                id="DE-BE" 
            />
        </svg>