<svg xmlns="http://www.w3.org/2000/svg" viewBox="344.56485999999956 163.55020000000002 222.97000000000043 229.3400000000001" width="222.97000000000043" height="229.3400000000001">
            <path 
                d="m 344.56486,210.1302 8.02,1.19 0.28,-3 1.52,-0.16 1.24,0.64 1.43,-0.56 0.54,1.43 2.03,0.66 1.84,-0.5 1.54,-1.35 -0.38,-1.38 1.06,-1.54 -1.01,-4.7 2.29,-0.47 2.52,-2.77 2.59,-0.51 3.87,1.31 0.19,1.53 2.86,-1.02 2.68,0.27 0.79,-1.22 -2.17,-1.8 4.06,0.48 2.05,-3 3.61,0.69 1.58,-2.94 1.32,0.65 1.81,-0.95 -0.36,-3.58 2.73,-1.78 -0.84,-2.29 2.17,0.46 0.15,2.22 1.88,0.28 2.53,-1.79 1.15,2.31 1.05,-0.37 0.12,-1.08 2.71,-0.6 1.78,3.73 3.31,-0.45 5.24,2.97 0.04,1.7 2.2,1.03 1.09,2.71 5.11,-1.54 5.11,2.15 3.58,-1.05 0.94,0.51 -0.66,1.65 1.15,0.74 4.58,0.3 -1.14,2.51 1.99,1.32 4.93,-1.49 1.96,2.28 1.63,-1.51 1.63,-0.16 -0.55,0.8 1.23,0.15 -0.16,-0.83 1.8,-0.64 1.01,0.92 -2.37,1.83 1.03,-0.38 1.04,1.74 1.89,-0.49 2.16,-3.04 2.44,-0.52 0.56,-1.41 1.23,-0.18 -0.07,-2.15 1.6,0.02 1.3,-1.55 2.14,0.07 1.27,2.89 1.75,0.67 0.93,-4.25 3.49,-2.57 2.45,0.8 1.42,-0.48 1.63,3.74 1.24,-0.65 0,0 -0.11,-0.18 0,0 2.19,-3.73 -0.12,-1.43 1.13,-0.04 0.5,1.02 1.4,-0.36 1.14,-3.54 1.25,0.64 -0.4,-3.54 0.52,-1.44 1.18,0.15 0.91,-1.36 -0.39,-2.23 2.29,-1.59 2.52,0.35 0.45,-3.36 5.14,-4.25 1.63,-0.46 2.3,1.28 2.36,-1.25 0.64,-1.28 -3.07,-1.84 1.17,-4.79 1.9,4.37 3.47,1.43 -0.13,3.27 2.52,2.18 -0.91,2.41 1.01,0.99 5.37,-1.36 2.89,0.52 0.36,1.76 2.22,0.28 2.26,-3.23 3.74,2 1.8,-0.16 0.92,-1.16 1.08,0.68 0.31,4.28 -1.19,3.11 -6.11,6.53 -2.05,3.83 3.91,-0.5 3.35,1.33 3.17,-0.55 0.1,-1.8 2.46,-1 1.01,-2.67 1.94,0.13 4.07,-2.2 0,0 0.58,5.58 1.18,0.27 0.48,1.38 -2.75,5.59 -1.75,1.15 -0.57,4.06 1.24,2.14 -1.48,6.62 -1.24,2.77 -5.41,5.11 -7.33,4.51 1.04,8.08 -2.41,4.88 1.22,1.45 4.86,0.83 3.85,4.39 4.64,2.53 7.18,9.35 8.47,5.52 2.61,3.83 -2.18,4.03 1.88,4.48 -3.42,5.09 -1.96,0.89 -0.95,3.99 1.73,6.89 1.4,2.09 -0.53,1.9 1.11,1.71 6.09,1.82 1.64,2.08 -0.48,2.85 -1.33,1.28 1.22,2.65 -1.58,2.86 0.13,2.82 4.91,5.25 -0.87,1.17 0.17,2.31 -2.13,3.03 0.46,1.02 -1.04,1.72 0.98,3.47 -1.64,4.24 -5.39,4.76 -1.24,2.91 1.03,2.3 2.5,0.96 1.45,7.16 4.39,3.86 1.25,2.88 0.48,5.41 -2.21,2.57 0,0 -2.12,-1.61 0.43,1.98 -1.54,2.58 -4.09,0.3 -1.21,-2.21 -1.82,-0.88 -1.48,0.78 -0.41,1.38 -5.33,0.18 -0.44,1.47 -3.76,0.11 -2.94,2.38 -0.57,1.55 -0.55,-0.83 0,0 -0.04,-0.48 0,0 -3.44,-1.65 -1.54,0.47 -2.05,-1.2 -4.85,-0.4 -0.52,1.14 0.7,0.9 -2.22,0.25 -0.69,2.35 -1.29,0.54 0.87,1.59 -3.47,0.11 1.82,3.13 -1.59,1 0.53,1.7 -1.87,1.39 0.71,0.87 -1.48,0.15 -0.36,2.2 -1.78,-0.34 0.05,-1.73 -0.8,-0.32 -3.37,1.7 -4.55,-0.48 -0.97,1.54 -2.31,-0.1 -0.63,0.8 -0.43,-0.8 -1.64,0.87 -4.73,-1.5 -0.56,0.73 -3.96,0.06 -0.52,-1.51 -1.21,-0.14 -1.61,1.59 -0.4,-1.24 -0.89,-0.05 -0.22,-2.02 -3.63,-1.03 0.66,-0.68 -1.73,-1.41 -1.62,1.07 0.44,-1.22 -1.79,-1.95 -1.5,1.75 0.16,1.11 -3.49,-1.17 0.34,1.1 -2.7,1.5 -0.04,1.3 -1.59,-0.18 0.4,1.58 -3.34,-1.15 -1.36,-4.09 -0.3,1.27 -0.85,-0.43 1.77,-2.31 -1.32,-2.47 0.15,-1.71 1.07,-0.08 0.38,-3.23 -1.41,-3.39 -2.65,-1.2 1.12,-2.54 -2.49,-2.74 -2.24,1.17 -2.16,-3.82 0,0 6.09,-3.94 0.8,-0.82 -0.51,-1.88 2.1,-0.58 -2.1,-2.93 0.75,-0.63 -1.07,-1.75 0.96,-3.87 -2.61,-5.15 1.94,-0.46 -0.86,-1.95 -1.2,-0.22 -2.46,1.42 -2.54,-0.32 -0.84,-0.94 0.7,0.01 0.4,-2.04 -4.62,0.05 0.12,-2.2 -1.21,-0.21 0.13,-1.29 -2.46,-0.42 -1.94,1.23 -0.18,-0.7 -2.17,-0.1 -0.47,-3.38 -4.14,0.53 -1.55,-2.47 -5.37,-2.61 -0.97,-0.07 -0.73,1.89 -1.92,0.27 -0.13,1 -4.62,-0.36 -0.25,-1.75 -2.89,-1.15 -0.71,-2.03 -1.15,-0.11 -0.71,1.79 -0.98,0.08 -2.93,-2.76 -1.92,-0.47 -2.92,-4.6 -2.4,-1.25 -0.87,-2.9 -2.76,-3.8 0.55,-1.6 1.25,0.02 0.05,-2.83 3.19,-1.71 -2.39,-0.7 0.78,-0.53 -1.7,-1.26 1.98,-6.68 1.96,-3.12 -1.58,-2.01 1.4,-1.28 -0.76,-0.85 0.48,-2.15 -1.7,-0.83 1.45,-0.94 -0.5,-0.71 2.71,-4.94 -1.42,-1.11 1.38,-0.89 -3.8,1.06 -0.71,-0.94 0.66,-0.53 -1.75,-2.21 -1.55,2.14 -2.09,0.52 -1.17,-1.88 1.46,-1.96 -1.19,-0.71 -1.75,0.95 2.29,-4.65 -0.65,-5.32 2.08,0.67 1.73,-1.09 0,0 0.12,-1 0,0 0.39,-4.46 -1.1,-0.84 0.33,-1.55 -1.14,-0.79 0.21,-0.91 -0.76,0.2 1.48,-2.74 -0.83,-1.52 0.73,-3.06 1.87,-0.18 0.51,-1.6 -1.54,-5.94 -2.1,-0.68 -0.41,-1.06 -4.4,2.67 -0.12,-4.27 -0.76,1.83 -5.69,-1.43 -2.75,1.53 -5.71,-2 -1.42,-1.55 -2.24,-0.03 -0.77,-1.24 1.68,-2.06 -0.27,-1.22 -3.7,-0.87 -2.8,-3.01 -3.03,1.23 -1.1,-3.25 -3.23,-0.37 0.88,-2.82 -2.52,0.24 0,0 -3.3,-1.86 -2.46,0.51 -3.54,-3.19 -7.29,2.44 -4.19,-4.53 -0.45,-2.44 z m 139.77,47.73 0,0 -0.56,0.7 1.29,1.22 -1.67,0.09 -1.35,1.5 -1.84,-1.26 -2.21,2.56 -3.2,-0.54 0.02,-3 -1.7,-0.36 -0.02,1.98 -1.38,0.19 0.17,1.35 -2.74,-0.06 -1.22,2.22 0.96,1.99 -3.36,-1.15 -2.24,1.3 1.58,1.21 -0.5,2.31 -1.2,0.28 -0.63,3.45 1.66,-0.29 1.52,1.08 -3.13,3.26 -0.53,3.02 0.83,1.18 -1.68,1.64 0,0 -0.4,1.09 0,0 0.46,0.01 0,0 0.31,0.17 0,0 2.19,1.25 -0.63,0.82 0,0 0.34,-0.02 0,0 2.44,-0.49 -0.81,-0.14 0.57,-1.01 3.7,-1.56 1.29,0.13 0.21,1.63 1.59,0.02 1.47,-1.24 0.47,1.06 0,0 0.99,0.32 0,0 1.47,-0.76 1.72,2.29 1.01,0.03 0.15,1.08 1.98,0.2 0.02,-3.55 2.96,-1.03 0.85,2.5 3.57,-0.43 0.06,1.1 3.48,-0.41 0.98,1.91 1.43,-0.8 0.93,0.59 -0.46,3.25 0.71,0.74 1.59,-2.85 1.7,-0.91 -0.85,-1.18 2.73,-1.4 0,0 0.63,-1.04 0,0 -0.43,-1.15 0,0 0.36,-0.64 0,0 0.31,-0.04 0,0 -0.03,-0.24 0,0 -1.13,-0.54 0,0 0.93,0.22 0,0 1.24,-1.14 -3.7,-2.57 0.35,1.35 -3.72,-2.5 -1.57,1.33 -0.78,-0.57 2.93,-6.08 -1.82,-0.12 0.5,-1.12 -3.23,-0.76 -0.11,-2.3 -2.06,-1.77 -2.68,-0.48 -0.69,-1.62 1.62,-3.88 -2.28,-1.4 0.06,-1.39 -0.71,0.34 0,0 0.17,-0.58 0,0 -0.38,-0.1 0,0 -0.52,0.71 -0.35,-0.2 z" 
                fill="rgb(151, 144, 238)" 
                stroke="white" 
                stroke-width=".7px"
                title="Brandenburg" 
                id="DE-BB" 
            />
        </svg>