<svg xmlns="http://www.w3.org/2000/svg" viewBox="167.04485999999997 158.1902 32.36000000000004 63.44999999999999" width="32.36000000000004" height="63.44999999999999">
            <path 
                d="m 167.59486,199.0602 0.72,-0.1 0,0 3.31,2.04 1.56,-0.88 1.31,0.53 -1.23,2.18 1.98,0.04 0.81,2.01 3.45,-0.34 1.42,-1.06 0.37,0.88 1.46,-0.35 0.92,1.74 5.53,-0.04 0.65,0.73 0,0 0.19,0.93 0,0 1.21,1.48 0,0 0.11,0.33 0,0 3.2,-0.11 1.97,-2.09 2.46,2.73 -2.24,1.09 0.96,1.75 1.69,0.26 -1.74,1.33 0.17,2.64 1.02,1.44 -2.79,2.33 -0.15,1.09 -2.59,-0.01 -1.8,-2.77 -0.06,1.96 -2.75,0.15 -2.84,-2.02 -0.35,-1.48 -1.05,1.57 -2.38,-0.1 -0.82,-1.61 0.33,-2.26 -2.84,-1.56 0.23,-1.3 -2.5,-3.77 -0.71,-3.03 -6.92,-3.24 0,0 -0.27,-0.34 0,0 -1.55,-2.53 0.5,-0.37 0,0 0.05,0.13 z m 1.94,-40.43 4.6,1.36 1.45,-1.24 1.91,0.3 -0.17,-0.86 1.1,0 -2.71,3.76 0.69,1.9 1.07,0.2 -0.41,2.86 0.75,1.49 -1.14,2.03 -1.64,1.24 -1.31,-0.93 -0.78,0.69 -1.7,-3.64 0.53,-0.35 0,0 0.86,0.12 0.08,-2.43 0.48,0.47 -1.19,-1.26 0.1,-2.65 -0.68,-0.09 -0.19,1.38 -1.7,-4.35 z" 
                fill="rgb(151, 144, 238)" 
                stroke="white" 
                stroke-width=".7px"
                title="Bremen" 
                id="DE-HB" 
            />
        </svg>