<svg xmlns="http://www.w3.org/2000/svg" viewBox="246.59486 144.36020000000002 38.009999999999906 36.66000000000005" width="38.009999999999906" height="36.66000000000005">
            <path 
                d="m 246.59486,163.8402 2.61,-8.03 0.09,1.58 1.55,0.5 0.19,1.96 2.32,0.81 3.46,-3.9 1.02,-3.15 4.61,0.65 1.28,-3.73 4.24,0.34 0.81,-2.83 -0.65,-0.68 0.84,-1.04 2.58,0.75 3.03,-2.71 1.62,0.83 -0.09,0.75 -0.65,1.56 -1.6,0.55 0.16,1.46 -1.04,1.35 2.63,1.53 0.9,1.67 -0.5,1.01 1.93,0.51 -1.96,2.3 0.5,2.85 -3.06,1.35 0.71,5.43 1.63,1.12 1.51,-0.93 1.9,4.11 3.29,3.24 2.15,0.34 -1.13,1.65 0,0 -2.85,1.43 -1.58,2.55 -4.1,0 -7.81,-7.18 -0.28,1.76 -1.76,0.04 0.66,1.26 -2.9,1.99 -2.75,-1.25 -1.68,1.5 -0.56,-0.22 0.9,-2.09 -1.1,-2.2 -2.7,1.86 0.03,0.94 -3.48,-3.55 -0.2,-3.11 -1.35,0.18 0.16,-0.96 -1.43,-1.01 0.97,-1.2 -0.82,-2.21 0.58,-1.37 z" 
                fill="rgb(151, 144, 238)" 
                stroke="white" 
                stroke-width=".7px"
                title="Hamburg" 
                id="DE-HH" 
            />
        </svg>