<svg xmlns="http://www.w3.org/2000/svg" viewBox="50.624857 120.1202 315.060003 279.6299999999998" width="315.060003" height="279.6299999999998">
            <path 
                d="m 60.664857,159.3402 -3.66,0.35 -2.38,1.24 2.63,1.78 -0.89,1.26 -0.89,-1.41 -1.45,1.06 -3.4,-2.79 0.29,-1.76 5.76,-2.03 3.99,2.3 z m 6.04,-5.43 -1.13,0.58 1.44,0.09 -1.32,0.65 0.52,0.93 -1.64,-0.05 -0.5,-1.75 2.63,-0.45 z m -5.37,0.09 1.53,0.77 -1.43,0.39 -0.23,-2.51 0.13,1.35 z m 16.28,-4.09 1.08,1 -14.74,1.11 13.66,-2.11 z m 16.32,-4.16 0.76,0.94 -3.08,0.94 -0.52,-0.57 0.31,0.65 -1.64,0.38 -3.94,-0.21 -0.85,0.83 -1.68,-0.93 -0.92,1.12 -0.98,-1.11 3.19,-1.72 9.35,-0.32 z m 53.270003,-0.63 1.43,0.72 -2.09,0.23 -0.42,1.22 -2.18,-0.08 1.22,-1.81 2.04,-0.28 z m -49.070003,-0.41 2.050003,0.38 0.3,1.53 -4.990003,-0.89 2.64,-1.02 z m 11.290003,-2.53 3.08,0.47 0.26,1 -7.5,0.33 -0.41,2 -0.23,-0.7 -0.11,0.83 -2.31,-0.12 0.91,-3.27 6.31,-0.54 z m 27.64,-0.26 0.66,1.77 -1.08,-0.7 0.42,-1.07 z m 0.24,-1.08 -0.59,0.8 -0.56,-0.45 0.68,-1.35 0.47,1 z m -18.65,-1.12 6,1.1 -3.83,1.26 -3.86,-0.54 -0.82,1.42 -0.92,-0.28 0.96,-2.4 2.47,-0.56 z m 11.02,-1.43 4.77,2.17 -6.01,-1.41 -0.68,1.57 -1.22,-1.39 3.14,-0.94 z m 30.52,-3.56 -1.97,0.27 1.5,-1.69 0.9,0.14 -0.43,1.28 z m 20.04,-6.94 -0.09,1.17 1.54,0.91 -0.41,1.06 1.15,0.99 -0.52,-1.74 3.56,3.6 7.84,1.37 8.04,-1.86 -1.01,-3.55 0,0 13.06,-0.56 6.67,2.83 3.21,4.36 3.92,8 5.09,4.77 2.84,8.25 7.85,5.57 3.63,0.89 0,0 2.83,0.35 -0.58,1.37 0.82,2.21 -0.97,1.2 1.42,1.02 -0.16,0.95 1.35,-0.17 0.2,3.11 3.48,3.54 -0.03,-0.94 2.7,-1.86 1.1,2.2 -0.9,2.09 0.55,0.21 1.69,-1.49 2.75,1.25 2.89,-2 -0.66,-1.26 1.77,-0.03 0.27,-1.76 7.81,7.18 4.1,0 1.58,-2.55 2.85,-1.43 0,0 1.44,0.92 3,0.1 7.8,5.34 5.07,1.49 0.98,-0.46 0,0 6.65,-0.68 2.56,2.91 1.48,0.43 -0.2,1.16 4.81,2.53 5.27,-4.67 2.03,1.49 2.38,0.1 1.43,5.62 1.13,0.14 3.93,6.97 6.83,3.55 -1.43,2.42 0.61,2.22 2.65,-0.77 2.66,2.3 0,0 0.36,2.48 4.19,4.53 7.29,-2.44 3.54,3.19 2.46,-0.51 3.3,1.86 0,0 -2.49,2.52 -0.21,1.37 -2.98,-0.7 -1.06,4.75 0.62,2.13 -2.91,0.7 -3.31,3.1 -5.83,2.8 -1.15,0.36 -0.25,-1.54 -3.3,1 -1.15,-1.85 -4.14,-0.76 -3.65,0.72 0.03,-1.55 -5.99,0.14 -0.87,0.4 -0.27,2.44 -3.01,3.33 -2.73,-0.31 -1,1.05 -0.85,-1.07 -6.44,1.44 -0.7,6.19 2.34,3.79 0.34,3.55 1.93,-0.26 0.83,2.32 0,0 0,0.25 0,0 4.96,8.63 3.61,-1.46 -0.3,2.08 -2.03,1.51 -0.13,2.29 4.52,7.55 0,0 -0.61,-0.07 0,0 -1.44,-0.52 -1.98,0.77 -0.71,3.44 5.19,6.3 -0.03,1.2 0.71,-0.18 0,0 0.57,0.5 0,0 2.53,1.13 -0.41,1.98 -2.06,1.21 -3.37,0.28 3.35,3.93 0,0 0.01,0.28 0,0 -1.55,1.32 1.03,1.82 1.55,0.41 0.4,2.63 0,0 0.57,0 0,0 1.13,1.31 -0.64,0.93 -2.94,0.85 -1.01,1.37 0.37,2.13 2.6,0.51 -0.96,4.01 0,0 -0.55,0 0,0 -3.71,2.97 -2.21,0.24 -0.24,0.88 2.05,0.9 -0.38,3.01 -5.25,-0.32 -3.44,1.36 -8.22,-0.33 -3.29,0.9 0.47,1.57 -2.01,1.78 -1.58,0.2 -0.34,-0.83 -2.05,1.07 1.46,3.09 1.34,-0.28 0.98,2 1.89,0.03 -2.42,1.99 0.08,1.78 2.2,1.27 0.06,1.84 -1.06,2.02 -3.53,2.31 -0.22,0.96 0.83,0.36 -0.82,2.55 1.04,4.36 2.38,1.17 0.31,2.3 2.31,2.57 0.04,4.3 1.96,2.71 0,0 -1.61,0.42 0.43,0.94 -2.79,0.88 0.63,1.34 -0.91,-0.05 0.29,2.32 1.7,0.88 -0.57,1.76 -3.23,-2.15 -2.87,2.39 -2.66,0.22 -1.54,-1.94 -3.95,-1.96 0,0 -0.38,0 0,0 -3.63,0.48 0.65,1.91 0,0 0,0.6 0,0 -2.4,4.51 -2.24,0.45 -0.55,2.09 -3.37,1.08 -0.78,1.29 -1.07,-0.02 -0.92,-1.56 -1.5,1.66 0.51,0.67 -0.83,1.77 -2.04,0.22 0.79,1.24 -2.34,0.09 0,0 -0.41,0 0,0 -1.95,-0.43 -0.75,1.7 -1.4,-1.95 -0.52,1.69 -1.82,0.04 -0.59,1.59 -4.63,3.01 0,0 0.16,-1.79 -1.83,-2.51 -1.24,0.28 -0.24,0.96 -1.77,-0.93 0.92,4.38 -1.61,-1.23 -0.06,-1.92 -1.3,-0.96 -1.47,0.39 0.19,2.28 -1.76,-0.25 -1.82,1.76 -2.58,0.69 2.35,4.52 2.14,-1.75 -0.29,3.06 -2.18,1.15 -4.07,-2.34 -2.52,0.68 0.1,-1.41 -1.76,0.07 -2.74,-2.05 -1.91,-2.26 2.36,0.51 0.53,-0.91 -1.13,-0.86 1.21,-2.23 3.23,-0.4 0.98,-1.33 -1.06,-2.89 0.98,-2.44 -3.63,-4.73 2.24,-1.68 -0.98,-2.85 1.12,1.29 1.5,-0.31 -1.29,-1.88 0.23,-1.45 3.1,1.69 0.72,-0.96 -3.31,-3.23 -0.74,-2.8 -3.58,1.21 -1.63,-1.61 -2.21,1.37 -1.15,-0.95 0.27,-2.14 -2.86,1.05 0,0 -4.86,-0.35 1.69,-5.26 -0.92,-1.85 0.47,-1.34 -1.23,-1.11 4.54,-5.24 -1.2,-2.12 0.91,-1.63 -0.52,-1.09 1.71,-2.02 -3.49,0.57 -2.78,-0.96 -2.36,1.12 1.22,-2.79 -0.19,-2.74 -4.3,-2.48 0.19,-1.22 -0.84,-0.34 1.36,-1.24 -0.66,-1.42 -3.64,-0.09 -0.57,1.36 -1.42,-0.49 -0.69,-1.59 1.29,-1.61 -0.95,-0.74 0.98,-0.95 -1.31,-2.33 -0.13,-2.41 1.33,-1.18 -2.51,-2.9 -1.33,0.29 1.61,-2.57 -0.33,-1.05 -1.53,-1 -2.59,0.47 -1.35,-0.56 0.09,-0.86 -3.7,1.39 0.66,-3.75 -2.31,-2.45 1.28,0.53 0.5,-0.59 0.55,1.3 1.38,-0.1 -0.5,-4.2 1.09,0.37 1.52,-1.14 -2.55,-1.92 -4.06,-1.39 0.4,-1.11 -0.87,-0.58 1.29,-0.63 0.78,-4.19 1.3,-0.48 0.56,-1.5 2.01,0.6 2.52,-3.35 -0.18,-1.69 1.75,-1.7 0.06,-1.86 -0.88,0.01 0.01,-1.41 -1.01,-0.86 2.7,-3.43 -2.38,-2.18 -3,-0.29 -2.5,4.49 -2.24,0.72 0.53,1.88 -2.82,1.68 -0.35,1.5 -2.79,-0.39 -0.41,1.16 -2,0.52 -4.17,-0.97 -2.68,1.07 -1.44,-1.14 -1.19,0.4 -0.17,-2.5 0.83,-1.05 -0.84,-1.39 -0.15,-6.38 -0.83,-1.64 -1.12,0.28 -1.27,-1.47 -6.02,3.41 -3.47,-1.36 -2.77,2.06 -0.22,3.22 -2.43,1.76 -1.12,-0.62 -2.29,0.65 -3.84,-1.5 0.06,2.52 1.13,0.91 -0.34,2.3 4.97,1.98 3.16,2.33 1.68,4.86 -0.69,2.9 0.57,4.22 -1.64,3.32 1.66,2.15 3.08,0.98 -3.02,3.06 -3.81,1.91 -0.22,2.67 -2.18,0.05 -2.03,-1.47 -1.89,0.59 -1.68,-0.74 0.1,-0.97 -4.04,2.9 -1.93,3.54 -2.63,-0.25 -3.52,1.84 -4.05,-1.19 -3.27,3.45 -3.93,-1.58 -2.17,-3.41 5.57,-3.33 2.27,0.08 -0.54,-3.75 0.22,-0.85 1.49,-0.3 -1.25,-1.38 -4.46,-0.01 -1.74,-1.33 -0.48,-1.62 1.63,-2.27 -0.08,-3.83 2.01,-0.38 -1.61,-1.96 0.02,-1.64 3.82,-0.74 -2.76,-2.68 -0.75,-3.1 -2.98,-1.71 -2.88,1.18 -2.4,-0.25 -6,-2.93 -1.57,-5.4 -5.14,-2.29 -2.74,4.46 2.44,1.08 -2,4.14 0.71,0.6 -3.85,0.78 -5.54,3.7 -0.620003,1.92 -2.63,0.48 -1.5,2.22 -2.96,0.82 -1.19,1.63 -9,-0.25 -2.1,0.54 -1.38,1.88 -2.4,0.15 0,0 -2.29,-3.31 -0.1,-1.7 2.97,-6.47 0.04,-2.22 -0.96,-2.72 -1.46,-0.17 -1.61,-2.92 -1.26,-3.99 -3.12,3.39 -5.64,-1.48 0.01,-0.98 -6.13,-0.38 -3.81,-2.53 0.45,-3.6 -1.59,-3.31 2.22,0.45 0.68,-1.5 2.64,-0.03 -3.02,-2.67 0.43,-2.81 -0.89,-1.2 2.53,-2.25 7.76,-0.57 4.01,1.68 2.44,-0.94 4.25,1.45 0.89,-1.05 1.07,-17.52 1.33,-3.02 -0.32,-1.19 6.09,-9.77 2.19,-6.79 -1.02,-11.35 -1.15,-0.85 -0.25,-1.77 1.52,-3.8 1.52,-0.47 -1.19,-1.1 0.6,-1.05 -0.54,-4.68 1.22,-1.97 1.08,-6.17 4.02,-0.19 -18.76,-2.27 -1.12,-2.99 0.85,-1.42 0.95,-10.67 1.48,-2.33 -0.96,-3.05 1.4,2.58 2.13,0.01 0.68,1.09 0.8,-1.06 -3.36,-0.06 -1.14,-2.83 1.65,1.98 0.61,-1.53 1.78,2.24 -0.26,-1.34 1.45,-0.11 1.32,-1.79 -1.7,-0.65 -1.75,-3.32 3.75,-3.75 0.43,-1.59 -0.09,0.74 5.79,-5.15 7.43,-1.81 0.99,0.66 6.650003,-0.24 2.81,1.31 11.37,-3.47 0.02,-1.74 0.02,2.11 6.55,-1.16 1.8,-2.54 -1.58,2.92 6.5,-1.23 7.31,1.11 -0.38,2.74 1.47,4.34 1.83,-0.58 1.61,1.59 0.74,-0.99 0.47,0.59 -1.15,0.5 1.01,1.6 0.87,-0.38 -0.78,0.53 0.48,1.69 2.96,6.04 -0.74,1.34 0.85,-0.5 -1.12,2.31 -3.81,1.44 -2.17,-0.49 0.18,3.1 2.25,3.31 2.31,-0.87 1.08,0.52 3.14,4.71 2.8,0.69 1.4,-0.83 2.93,-5.51 -0.19,-6.81 -5.28,0.11 0.96,-6.58 2.45,-3.16 1.61,-0.7 1.97,0.58 2.92,4.05 5.15,2.3 2.51,0.25 0.96,-0.88 -0.03,1.05 2.07,1.16 0.36,1.55 0,0 -0.53,0.35 1.7,3.64 0.78,-0.69 1.31,0.93 1.64,-1.24 1.14,-2.03 -0.75,-1.49 0.41,-2.86 -1.07,-0.2 -0.69,-1.9 2.71,-3.76 -1.1,0 0.17,0.86 -1.91,-0.3 -1.45,1.24 -4.6,-1.36 0,0 -2.4,-5.32 -0.08,-4.21 4,-10.03 0.19,-2.96 4.08,-7.1 4.89,-1.23 z m -4.47,77.62 0.71,3.03 2.5,3.77 -0.23,1.3 2.84,1.56 -0.33,2.26 0.82,1.61 2.38,0.1 1.05,-1.57 0.35,1.48 2.84,2.02 2.75,-0.15 0.06,-1.96 1.8,2.77 2.59,0.01 0.15,-1.09 2.79,-2.33 -1.02,-1.44 -0.17,-2.64 1.74,-1.33 -1.69,-0.26 -0.96,-1.75 2.24,-1.09 -2.46,-2.73 -1.97,2.09 -3.2,0.11 0,0 -0.11,-0.33 0,0 -1.21,-1.48 0,0 -0.19,-0.93 0,0 -0.65,-0.73 -5.53,0.04 -0.92,-1.74 -1.46,0.35 -0.37,-0.88 -1.42,1.06 -3.45,0.34 -0.81,-2.01 -1.98,-0.04 1.23,-2.18 -1.31,-0.53 -1.56,0.88 -3.31,-2.04 0,0 -0.78,-0.03 0,0 -0.5,0.37 1.55,2.53 0,0 0.27,0.34 6.93,3.24 z m -7.38,-81.45 0.9,1.26 -1.92,0.35 0.28,-1.72 0.74,0.11 z m -3.2,-3.6 0.73,0.3 -2.33,1.86 -0.77,-0.37 1.25,-2.03 1.12,0.24 z" 
                fill="rgb(151, 144, 238)" 
                stroke="white" 
                stroke-width=".7px"
                title="Lower Saxony" 
                id="DE-NI" 
            />
        </svg>