<svg xmlns="http://www.w3.org/2000/svg" viewBox="301.7848600000002 41.640196 243.26999999999987 169.66000400000001" width="243.26999999999987" height="169.66000400000001">
            <path 
                d="m 506.60486,98.040196 1.94,4.610004 2.22,2.68 9.15,5.19 13.36,13.4 -2.67,1.61 1.86,1.36 -0.09,3.61 -11.17,-0.75 -2.97,2.76 -3.25,0.51 -1.09,-0.82 1.27,0.27 0.68,-1.06 -1.6,-1.68 -1.09,3.36 -2.09,0.32 -3.35,-1.11 0.66,-2.31 3.89,-0.74 2.55,-3.27 -0.99,-4.41 -1.64,-1.68 0.78,-2.56 3.52,0.01 -0.37,5.89 0.54,-2.45 1.06,-0.5 2.52,-0.06 -0.77,1.22 1.9,0.95 0.45,-4.57 -0.47,-2.95 -1.42,-1 -0.74,1.11 -0.71,-3.51 -1.58,-2.27 -3.86,0.08 -0.17,2.23 1.65,1.56 -0.44,1.31 -0.68,-0.55 0.4,-1.48 -1.43,2.39 -2.52,1.34 -0.44,-1.47 1.69,-2.66 -1.48,-1.03 -3.65,3.17 -1.94,-0.08 -0.21,-1.21 1.1,-0.88 1.61,-4.55 0.2,-2.98 -1.4,-0.46 -2.16,-2.7 -0.48,-2.320004 2.42,-1.6 1.5,0.73 z m -43.24,-15.3 -0.64,0.63 -0.51,-1.11 0.8,-0.39 0.35,0.87 z m 25.24,-0.92 -0.18,0.67 -0.36,-0.7 1.55,-1.82 0.25,0.99 -1.26,0.86 z m -52.44,-12.27 1.61,1.44 -3.42,-0.11 0.93,-1.52 0.88,0.19 z m 15.49,-1.53 1.03,0.57 -2.5,0.38 0.3,-0.98 1.17,0.03 z m 6.74,-0.57 -5.09,1.39 1.74,-1.25 2.08,-0.09 0.99,-1.39 0.28,1.34 z m -33.24,-3.71 -0.93,0.91 2.98,2.17 6.68,1.23 15.83,-0.33 0.62,1.97 -3.21,1.43 -3.3,-0.75 -1.36,1.37 -1.06,-0.82 -3.16,0.05 -0.99,-1.76 -2.01,0.05 -1.56,2.48 -1.85,-0.81 0.1,-1.05 -1.45,2.02 -2.46,0.38 1.36,1.33 -0.42,0.98 -0.36,-0.82 -2.07,-0.02 -1.75,1.02 -0.34,0.72 1.01,1.03 1.2,-1.47 0.8,0.7 3.35,-0.12 3,-1.8 0.03,-2.05 2.5,-0.34 0.45,0.9 -1.72,0.43 0.38,1.51 -1.05,1.59 0.67,0.08 0.86,-3.12 0.9,-0.01 0.33,2.92 1.01,0.17 0.59,-1.36 1.44,1.26 1.23,-2.68 1.61,5.67 4.42,-2.61 1,-3.6 1.72,-1.34 4.09,-1.4 1.4,-1.34 1.3,0.27 -0.25,4.24 1.41,1.77 1.96,-0.09 0.89,1.48 -1.09,2.42 0.78,2.84 1.72,2.1 -0.65,2.03 1.86,1.49 2.03,-0.99 0.87,0.83 -2.23,1.79 2.73,-1.42 1.83,2.82 4.67,0.6 2.33,5.54 2.84,0.23 -1.95,0.46 -1.47,1.9 3.78,-1.8 2,1.04 -0.91,-1.56 1.5,0.77 -0.15,1.51 -0.4,-0.5 -1.8,1.42 0.11,0.780004 1.8,-1.250004 -0.2,1.020004 1.42,1.05 2.47,5.44 2.08,0.08 -1.52,-3.29 0.89,-0.88 8.56,-1.8 4.43,-3.380004 1.06,0.31 0.34,0.73 -1.31,0.51 0.16,0.91 2.19,1.420004 1.05,-0.41 0.3,2.15 3.07,2.35 -0.86,3.76 -0.91,0.51 0.38,1.32 -2.33,2.01 0.82,0.04 0.24,1.39 2.11,2.1 2.53,1.2 1.43,3.74 1.6,0.1 2.12,2.93 -0.76,1.34 -2.38,1.07 -1.14,2.36 -1.43,0.13 0.04,1.29 -1.23,0.56 0.73,1.79 2.23,0.09 3,4.2 1.12,-0.28 3.35,3.56 8.5,3.49 4.03,-0.23 1.05,0.72 3.13,-2.79 2.27,1.38 -0.06,1.94 -3.25,3 3.65,0.68 0.5,1.02 -0.68,2.17 0.88,0.58 0.06,2.88 2.09,1.83 -0.61,7.88 1.22,4.11 1.74,1.46 2.46,14.67 1.25,2.56 0,0 -4.07,2.2 -1.94,-0.13 -1.01,2.67 -2.46,1 -0.1,1.8 -3.17,0.55 -3.35,-1.33 -3.91,0.5 2.05,-3.83 6.11,-6.53 1.19,-3.11 -0.31,-4.28 -1.08,-0.68 -0.92,1.16 -1.8,0.16 -3.74,-2 -2.26,3.23 -2.22,-0.28 -0.36,-1.76 -2.89,-0.52 -5.37,1.36 -1.01,-0.99 0.91,-2.41 -2.52,-2.18 0.13,-3.27 -3.47,-1.43 -1.9,-4.37 -1.17,4.79 3.07,1.84 -0.64,1.28 -2.36,1.25 -2.3,-1.28 -1.63,0.46 -5.14,4.25 -0.45,3.36 -2.52,-0.35 -2.29,1.59 0.39,2.23 -0.91,1.36 -1.18,-0.15 -0.52,1.44 0.4,3.54 -1.25,-0.64 -1.14,3.54 -1.4,0.36 -0.5,-1.02 -1.13,0.04 0.12,1.43 -2.19,3.73 0,0 0.11,0.18 0,0 -1.24,0.65 -1.63,-3.74 -1.42,0.48 -2.45,-0.8 -3.49,2.57 -0.93,4.25 -1.75,-0.67 -1.27,-2.89 -2.14,-0.07 -1.3,1.55 -1.6,-0.02 0.07,2.15 -1.23,0.18 -0.56,1.41 -2.44,0.52 -2.16,3.04 -1.89,0.49 -1.04,-1.74 -1.03,0.38 2.37,-1.83 -1.01,-0.92 -1.8,0.64 0.16,0.83 -1.23,-0.15 0.55,-0.8 -1.63,0.16 -1.63,1.51 -1.96,-2.28 -4.93,1.49 -1.99,-1.32 1.14,-2.51 -4.58,-0.3 -1.15,-0.74 0.66,-1.65 -0.94,-0.51 -3.58,1.05 -5.11,-2.15 -5.11,1.54 -1.09,-2.71 -2.2,-1.03 -0.04,-1.7 -5.24,-2.97 -3.31,0.45 -1.78,-3.73 -2.71,0.6 -0.12,1.08 -1.05,0.37 -1.15,-2.31 -2.53,1.79 -1.88,-0.28 -0.15,-2.22 -2.17,-0.46 0.84,2.29 -2.73,1.78 0.36,3.58 -1.81,0.95 -1.32,-0.65 -1.58,2.94 -3.61,-0.69 -2.05,3 -4.06,-0.48 2.17,1.8 -0.79,1.22 -2.68,-0.27 -2.86,1.02 -0.19,-1.53 -3.87,-1.31 -2.59,0.51 -2.52,2.77 -2.29,0.47 1.01,4.7 -1.06,1.54 0.38,1.38 -1.54,1.35 -1.84,0.5 -2.03,-0.66 -0.54,-1.43 -1.43,0.56 -1.24,-0.64 -1.52,0.16 -0.28,3 -8.02,-1.19 0,0 -2.66,-2.3 -2.65,0.77 -0.61,-2.22 1.43,-2.42 -6.83,-3.55 -3.93,-6.97 -1.13,-0.14 -1.43,-5.62 -2.38,-0.1 -2.03,-1.49 -5.27,4.67 -4.81,-2.53 0.2,-1.16 -1.48,-0.43 -2.56,-2.91 -6.65,0.68 0,0 1.33,-1.93 1.09,-7.63 1.31,-0.74 2.49,0.57 0.61,-2.4 3.47,-0.51 1.96,-2.93 2.41,-0.33 -0.67,-0.76 1.23,-2.32 -0.73,-3.47 1.04,-0.18 0.74,1.26 3.84,-0.72 1.19,-6.22 1.46,-2.07 -0.65,-3.91 -1.4,-0.56 0.19,-1.01 -4.63,-0.29 -2.45,-1.99 -0.42,-1.87 -2.98,-1.51 0,0 0.27,-1.83 0,0 0.68,-2.57 -1.56,-6.33 1.46,-2.29 1.87,-0.39 0.99,-1.91 1.78,-0.37 2.29,-2.96 2.03,1.03 -0.61,0.89 0.54,0.96 3.45,-1.03 -4.59,-1.62 0.66,-3.64 0,0 8.62,-5.35 8.99,-0.97 1.8,2.92 3.28,0.47 -1.08,3.03 0.94,2.2 1.98,0.42 3,-2.99 2.08,2.7 2.38,-0.14 -0.13,1.54 1.75,0.94 0.32,1.44 1.5,0.27 -0.94,-1.57 2.28,-1.8 0.18,-4.25 -0.73,0.45 -0.52,-0.74 -1.17,1.18 -0.06,-4.29 -1.1,1.44 0.27,2.51 -2.16,-1.28 -0.73,0.74 1.49,0.13 -1.34,0 -0.81,-1.63 0.67,-2.3 3.91,-2.25 2.75,0.05 -1.45,5.3 1.43,0.66 0.63,-1.9 -0.59,-0.89 1.24,-2.2 1.52,-0.7 -0.92,-1.28 1.94,0.64 1.51,-0.89 0.48,-3.18 2.57,-1.44 0.23,-1.51 -1.35,-1.37 -4.67,5.94 -0.27,-2.75 1.98,-2.36 3.21,-1.27 4.53,-4.910004 4.94,-0.23 5.71,1.030004 10.45,-3.570004 7.25,-0.63 3.87,-5.85 9.57,-6.35 4.6,-8.91 3.7,-4.39 2.14,-6.02 2.01,-0.91 z m 39.24,-13.18 0.64,3.19 -0.66,-2.61 0.02,2.51 -0.7,-1.58 0.41,-1.22 -2,1.81 0.34,4.98 -2.71,4.16 -0.52,4.54 -0.27,-2.02 2.4,-8.91 0.08,-3.54 1.52,-1.48 1.45,0.17 z m 18.18,-8.92 -0.23,2.54 -2.28,0.98 -1.07,1.93 0.99,3.82 1.78,2.27 2.67,0.88 10.97,-1.61 2.81,2.3 0.02,3.59 -6.57,5.97 -0.06,3.18 2.47,4.76 3.76,0.38 3.6,5.02 2.38,1.46 -1.63,0.58 -1.31,2.56 0.29,4 -0.89,0.75 -1.64,-1.66 1.57,0.42 -0.47,-1.77 -2.65,0.92 -0.93,-1.06 3.44,-2.08 0.27,-1.1 -2.07,-0.38 -3.92,1.48 4.26,-2.38 0.52,-1.43 -2.57,0.41 -1.84,1.94 -1.98,-2.52 -2.01,1.4 -3.19,-0.19 -5.2,4.3 -2.25,4.02 0.31,-1.45 -2.42,1.02 0.34,2.53 0.46,-1.89 0.95,1.13 1.56,-1.2 0.88,1.15 0.44,1.7 -2.08,1.86 -6.46,-3.18 1.98,0.57 0.78,-3.61 -1.59,1.36 0.67,0.88 -3.25,0.46 -3.12,-2.7 -1.23,0.91 -0.39,-2.88 -3.42,1.6 0.97,-2.41 1.88,0.4 -4.49,-3.49 0.83,-4.21 4.37,-0.54 1.54,0.88 2.56,-1.8 -1.52,-0.42 -0.41,-1.47 1.48,-0.51 -1.33,0.23 -1.35,-2.81 -3.91,0.79 1.8,-3.63 -3.44,1.53 -0.2,-0.63 3.07,-4.87 3.67,0.83 -0.29,2.19 -2.3,-0.02 -0.25,0.97 1.04,0.94 0.44,-1.39 2.94,-0.4 -1.33,-0.48 2.5,-1.28 -2.7,-0.61 0.18,-2.75 -2.04,0.84 -1.84,-0.54 -1.63,-4.18 6.37,-0.96 2.82,1.43 -0.07,2.2 1.05,0.83 0.48,-1.16 -0.93,-3.08 3.66,-2.99 0.92,0.43 -1.94,3.05 1.08,0.37 1.26,-1.59 2.45,4.41 -0.1,2.82 1.9,0.73 0.55,1.73 1.39,-1.2 1.94,0.12 0.69,-5.17 -1.42,-3.31 1.16,0.09 0.1,-0.81 -1.39,0.36 0.06,1.2 -2.87,-0.04 -1.31,-1.88 -2.04,-0.55 -1.47,-4.48 -2.65,2.29 0.34,1.17 -5.73,2.6 2.56,-6.33 0.06,-3.14 -3.65,2.27 0.68,3.27 -4.9,3.99 0.24,-1.26 3.36,-2.95 0.08,-4.46 1.73,-2.21 2.78,-1.85 9.07,-1.04 z" 
                fill="rgb(151, 144, 238)" 
                stroke="white" 
                stroke-width=".7px"
                title="Mecklenburg-Vorpommern" 
                id="DE-MV" 
            />
        </svg>