<svg xmlns="http://www.w3.org/2000/svg" viewBox="0.29485725999994006 272.37020000000007 229.1200027400001 225.28999999999996" width="229.1200027400001" height="225.28999999999996">
            <path 
                d="m 76.644857,302.5102 2.4,-0.15 1.38,-1.88 2.1,-0.54 9,0.25 1.19,-1.63 2.96,-0.82 1.51,-2.23 2.62,-0.47 0.630003,-1.93 5.54,-3.69 3.85,-0.79 -0.72,-0.6 2,-4.14 -2.44,-1.08 2.74,-4.46 5.13,2.29 1.57,5.4 6,2.93 2.4,0.25 2.88,-1.18 2.98,1.71 0.75,3.1 2.76,2.68 -3.82,0.74 -0.02,1.65 1.61,1.96 -2.01,0.38 0.08,3.84 -1.64,2.27 0.49,1.62 1.74,1.32 4.46,0.01 1.25,1.38 -1.49,0.3 -0.22,0.85 0.54,3.75 -2.27,-0.08 -5.57,3.33 2.17,3.42 3.93,1.58 3.27,-3.45 4.06,1.18 3.52,-1.84 2.63,0.25 1.93,-3.54 4.04,-2.9 -0.11,0.98 1.68,0.73 1.89,-0.59 2.04,1.47 2.18,-0.05 0.21,-2.67 3.81,-1.91 3.01,-3.06 -3.08,-0.97 -1.66,-2.15 1.64,-3.32 -0.57,-4.22 0.7,-2.9 -1.68,-4.86 -3.16,-2.33 -4.97,-1.98 0.34,-2.31 -1.13,-0.9 -0.06,-2.53 3.84,1.5 2.3,-0.64 1.12,0.61 2.43,-1.76 0.21,-3.22 2.77,-2.05 3.48,1.35 6.02,-3.4 1.27,1.47 1.13,-0.28 0.83,1.64 0.15,6.38 0.85,1.39 -0.83,1.05 0.16,2.5 1.19,-0.4 1.44,1.14 2.68,-1.07 4.17,0.97 2,-0.53 0.4,-1.15 2.79,0.38 0.35,-1.5 2.82,-1.68 -0.53,-1.87 2.24,-0.72 2.5,-4.49 3,0.29 2.38,2.18 -2.7,3.44 1.02,0.85 -0.01,1.41 0.88,-0.01 -0.06,1.85 -1.75,1.7 0.19,1.69 -2.52,3.35 -2.02,-0.6 -0.56,1.5 -1.3,0.48 -0.78,4.19 -1.29,0.63 0.87,0.58 -0.4,1.11 4.06,1.4 2.55,1.92 -1.53,1.14 -1.09,-0.38 0.5,4.21 -1.38,0.1 -0.54,-1.3 -0.5,0.6 -1.28,-0.53 2.31,2.44 -0.66,3.75 3.71,-1.38 -0.09,0.86 1.35,0.56 2.59,-0.47 1.53,1 0.33,1.05 -1.6,2.57 1.32,-0.29 2.51,2.89 -1.33,1.18 0.13,2.41 1.31,2.33 -0.97,0.95 0.95,0.74 -1.3,1.61 0.69,1.59 1.42,0.49 0.58,-1.37 3.64,0.1 0.65,1.42 -1.36,1.24 0.84,0.34 -0.19,1.22 4.3,2.48 0.19,2.74 -1.23,2.79 2.37,-1.12 2.78,0.96 3.49,-0.57 -1.71,2.02 0.52,1.09 -0.91,1.62 1.21,2.12 -4.55,5.24 1.23,1.11 -0.46,1.35 0.92,1.84 -1.69,5.26 4.86,0.35 0,0 -1.84,1.73 -5.42,1.56 2.21,2.4 -3.59,3.95 -0.51,3.96 -1.61,-0.04 -1.18,1.57 -2.51,0.89 -0.52,3.14 -2.08,-0.67 -1.54,2.29 -1.46,-0.72 -2.6,0.58 -1.1,-2.13 0.82,-3.03 -0.92,-0.82 -2.4,0.07 -1.32,-1.57 -8.12,3.7 1.79,3.4 0.02,1.82 1.76,0.32 -0.58,3.9 -2.99,-0.36 -2.32,1.55 -1.14,-1.13 -2.18,-0.21 -4.56,1.87 -2.37,-0.43 -1.11,0.59 0.3,1.15 -1.44,0.47 -0.29,1.58 -1.11,-0.44 -1.07,0.78 -4.01,5.97 2.45,3.07 6.14,-2.94 1.91,0.24 0.92,1.15 -0.56,1.14 0.87,3.28 1.67,1.01 -1.27,1.03 0.69,2.2 -3.96,4.03 0.07,1.42 0,0 0.24,0 0,0 1.23,1.36 -2.3,0.2 -1.75,1.34 -6.3,-0.85 -1.92,0.6 -1.62,1.73 1.56,1.67 -1.39,2.31 0.89,-0.31 1.16,2.46 -3.98,4.35 0.21,0.73 -1.26,0.33 -0.53,2.5 0.64,2.24 -1.77,0.12 -4.68,5.71 -3.35,0 -0.95,-2.09 -1.57,0.11 -8.07,9.05 0,0 -0.4,0.13 0,0 -0.25,1.03 2.39,4.53 -2.73,4.88 0,0 -2.97,-2.12 -1.17,1.1 -1.22,-0.18 -0.14,-3.07 -4.48,-4.77 0.59,-4.96 -0.57,-2.12 -0.73,-0.75 -2.63,0.82 -2.11,-3.01 -3.48,-0.76 1.41,-4.59 -3.66,-1.46 -1.71,1.86 -1.92,0.59 1.56,1.73 -0.65,3.45 0.81,2.2 -2.14,-0.61 -1.68,2.4 -2.68,0.63 1.23,1.21 -0.54,2.75 -1.04,1.31 -3.51,0.28 -0.5,2.62 -2.68,-0.68 -1.87,0.93 -0.01,0.82 -5.51,1.9 -3.790003,-0.85 -1.1,2.1 0.94,1.64 -1.14,1.93 0.34,1.16 -1.54,1.12 -7.81,1.6 -0.74,-2.52 -0.79,2.51 -1.08,1.1 -1.17,-0.17 -0.43,1.39 -2.01,-1.19 -1.65,2.63 -2.16,-2.02 -3.7,4.15 -1.56,0.82 -2.75,-0.4 0.04,2.65 -3.1,0.63 0.9,0.99 -0.53,1.06 1.04,0.4 -0.26,3.41 -2.71,1.59 -2.86,-1.93 -0.78,-1.97 -3.55,1.88 1.34,1.43 -1.44,1.81 1.78,0.56 0.76,1.4 -0.83,2.82 2.06,2.41 -0.21,0.83 -1.3,-0.34 -4.91,2.77 -2.06,-3.42 -1.96,2.62 -1.1,-1.02 0.31,-1.92 -1.39,-0.11 -0.12,-1.27 -6.07,2.77 -1.48,2.14 -1.99,0.19 0.45,-2.44 -0.93,-1.03 -0.93,0.88 -1.12,-2.64 -1.67,0.49 0.55,2.25 0.73,-0.14 0.09,2.39 1.06,0.61 0.04,0.98 -1.32,0.05 0,0 -0.34,-2.2 -3.67,-3.54 2.24,-5.62 -0.28,-1.83 -2,-0.79 0.65,-2.65 -5.12,-1.65 -2.81,0.99 -1.15,-2.56 -1.24,-0.57 0.48,-1.03 -1.13,-0.52 -0.14,-1.53 3.13,-3.26 1.16,0.11 1.62,-3.75 -4.52,-0.65 -1.32,0.66 0.44,-0.59 -0.95,-1.07 0.9,-0.83 -3.97,-6.88 -4.8,-0.86 -0.44,0.92 0.18,-2.54 -1.6499997,-1.71 0.6299997,-1.22 -3.3499997,-2.29 0.69,-1.33 1.29,0.75 1.2899997,-1.3 -0.38,-3.1 2.35,-1.01 1.16,0.94 0.96,-2.68 -0.89,-1.98 1.26,-2.88 -2.58,-0.06 -2.23,-1.25 -0.9199997,-2.31 1.2699997,-2.68 -3.6899997,0.48 -0.86,-0.9 -3.57,1.33 0.45,-2.75 -1.63,-1.65 -0.89000004,-2.98 3.07000004,-1.86 1.48,3.16 1.42,-0.07 1.31,-3.7 1.98,-1.94 2.1099997,-0.89 3.04,-3.46 5.3,-2.3 -2.21,-1.59 2.7,-1.33 -1.06,-0.83 -4.18,2.46 -1.13,-0.21 -0.93,-4.77 1.15,-0.42 -0.9,-1.93 3.27,-3.19 2.91,-5.89 1.54,-0.33 2.11,-2.78 -0.76,-2.51 0.75,-1.4 -1.26,0.06 1.12,-7.35 -0.64,-4.13 -3.38,-5.17 -4.43,-4.41 1.61,-5.16 -5.36,-1.84 -0.38,-3.45 1.12,-0.95 -3.2199997,-2.18 -2.43,-0.06 0.03,-1.26 2.16,-1.51 0.08,-1.77 -1.05,-0.33 0.19,-1.23 -1.97,-1.51 0.79,-0.49 -0.85,-0.65 1.03,-1.28 3.29,0.11 3.2599997,-3.01 2.25,1.6 4.24,0.85 -0.12,-2.04 -1.63,-2.54 -2.11,-0.71 0.86,-0.98 3.2,0.07 2.74,3.33 4.34,-0.53 1.22,0.59 0.42,1.88 3.08,0.14 0.61,1.29 2.46,0.93 0.53,-2.63 -1.47,-1.07 0.29,-1.17 2.55,1.61 1.13,-0.67 1.26,1.22 4.74,-3.16 8.94,-3.42 3.04,1.9 3.57,-3.12 0.69,-3.04 1.83,-0.57 0.16,-2.32 -4.91,-4.28 -4.22,-1.18 0.43,-3.21 2.73,-0.49 1.54,-4.49 6.01,-0.21 3.29,-5.76 2.77,-0.53 2.17,-4.6 3.37,-0.13 z" 
                fill="rgb(151, 144, 238)" 
                stroke="white" 
                stroke-width=".7px"
                title="North Rhine-Westphalia" 
                id="DE-NW" 
            />
        </svg>