<svg xmlns="http://www.w3.org/2000/svg" viewBox="15.93485699999988 435.4902000000001 152.7300030000001 195.27999999999986" width="152.7300030000001" height="195.27999999999986">
            <path 
                d="m 34.664857,497.6602 1.32,-0.05 -0.04,-0.98 -1.06,-0.61 -0.09,-2.39 -0.73,0.14 -0.55,-2.25 1.67,-0.49 1.12,2.64 0.93,-0.88 0.93,1.03 -0.45,2.44 1.99,-0.19 1.48,-2.14 6.07,-2.77 0.12,1.27 1.39,0.11 -0.31,1.92 1.1,1.02 1.96,-2.62 2.06,3.42 4.91,-2.77 1.3,0.34 0.21,-0.83 -2.06,-2.41 0.83,-2.82 -0.76,-1.4 -1.78,-0.56 1.44,-1.81 -1.34,-1.43 3.55,-1.88 0.78,1.97 2.86,1.93 2.71,-1.59 0.26,-3.41 -1.04,-0.4 0.53,-1.06 -0.9,-0.99 3.1,-0.63 -0.04,-2.65 2.75,0.4 1.56,-0.82 3.7,-4.15 2.16,2.02 1.65,-2.63 2.01,1.19 0.43,-1.39 1.17,0.17 1.08,-1.1 0.79,-2.51 0.74,2.52 7.81,-1.6 1.54,-1.12 -0.34,-1.16 1.14,-1.93 -0.94,-1.64 1.1,-2.1 3.790003,0.85 5.51,-1.9 0.01,-0.82 1.87,-0.93 2.68,0.68 0.5,-2.62 3.51,-0.28 1.04,-1.31 0.54,-2.75 -1.23,-1.21 2.68,-0.63 1.68,-2.4 2.14,0.61 -0.81,-2.2 0.65,-3.45 -1.56,-1.73 1.92,-0.59 1.71,-1.86 3.66,1.46 -1.41,4.59 3.48,0.76 2.11,3.01 2.63,-0.82 0.73,0.75 0.57,2.12 -0.59,4.96 4.48,4.77 0.14,3.07 1.22,0.18 1.17,-1.1 2.97,2.12 0,0 -0.94,2.59 1.93,2.74 -0.88,2.26 1.63,1.05 -1.03,4.83 -2.06,1.74 -2.05,-0.55 -1.75,-1.85 -3.08,3.27 -1.08,3.75 2.07,3.41 -2.25,1.54 0.83,0.36 -0.18,1.16 -1.38,1.18 1.4,1.15 2.32,-0.09 -0.4,1.58 1.75,-0.1 0.18,1.04 0.88,0.08 1.07,2.65 -0.29,1.55 1.9,0.55 0.05,1.68 1.05,1.05 -0.81,3.84 -1.68,-0.11 -0.43,-1.08 -2.36,0.14 -0.92,1.34 1.7,1.67 0,0 0.26,0.35 0,0 -1.28,2.11 -1.31,-0.19 -1.54,-1.98 -0.14,1 -2.27,0.83 -0.26,0.96 -2.3,0.63 -0.01,0.95 -1.72,1.2 0.08,1.32 3.07,2.41 -0.72,0.99 0.56,3.12 -1.8,-1.86 -1.14,0.7 -2.03,-1.25 -1.33,2.84 0.45,1.44 -2.23,0.03 -1.88,2.57 5.07,4.42 0.9,3.22 1.16,0.84 5.33,-0.6 4.53,-2.55 9.16,-3.11 3.86,0.78 4.95,5.02 2.1,5.8 -0.65,3.96 2.54,2.13 -0.33,3.25 2.79,5.35 3.06,-0.05 0.48,0.68 -2.63,3.95 -5.02,2.94 1.58,6.45 2.45,4.19 0,0 -0.45,2.96 3.05,8.11 -1.32,2.01 4.13,1.49 -0.78,3.29 -2.08,1.95 0.7,0.76 1.67,-1.45 -0.12,2.13 -3.03,4.06 2.43,2.9 -6.24,5.87 -0.34,1.56 1.26,-0.07 -2.36,4.89 -0.58,6.63 -2.97,4.55 -0.94,3.87 0,0 -0.84,1.81 0,0 -3.3,2.83 0,0 -0.44,-1.01 -1.64,0.85 -0.32,-0.99 -2.28,0.25 -4.22,-1.42 -2.64,-2.35 -4.78,-1.3 -2.73,-2.94 -0.89,1.57 -2,-0.67 -1.41,1.47 -4.6,-3.12 -1.76,1.87 -1.99,0.28 -0.19,-1.25 -0.75,0.53 -1.63,-0.69 0.11,0.86 -1.48,0.46 -2.57,-0.97 -0.11,-1.77 -2,-0.99 -2.31,0.31 -2.28,-1.67 -1.79,-3.25 -0.39,-3.68 -3.72,0.42 0.46,-1.87 -4.970003,1.21 -0.12,1.27 0,0 -4.21,-4.61 0.46,-1.73 -0.89,-1.45 1.21,-1.91 1.02,0.96 0.04,-1.23 1.2,-0.87 -0.49,-0.91 1.71,0.06 1.43,-1.54 0.98,-7.39 -2.18,0.54 -0.77,-1.5 -4.09,-0.94 -0.09,-2.68 -2.42,-1.65 -0.27,-1.22 2.51,-1.14 1.19,-1.7 -1.65,-0.98 0.53,-3.22 1.35,-0.56 -0.35,-1.04 -1.79,-0.3 -0.47,-4.61 -3.4,1.83 -0.09,-1.01 -1.71,-0.02 -0.76,-0.9 -0.15,-1.28 -3.16,0.3 -1.37,-1.05 -0.76,0.61 -1.81,-2.92 -2.06,-1.02 -2.73,1.84 0.37,-1.37 -2.47,0.9 -0.74,-0.87 -0.71,2.12 -2.18,-0.33 -1.1,1.45 -0.9,-0.62 -1.8,2.42 -1.57,-0.77 -4.04,3.31 -2.39,0.37 -1.28,1.76 -0.36,-1.18 -1.44,0.45 -0.72,-0.71 -0.24,1.17 -1,-0.26 -1.59,1.28 0.08,0.93 -1.69,-0.25 -1.15,-1.92 -2.86,1.33 -2.9,-1.65 -1.29,0.56 -1.45,-1.01 -0.83,0.53 -2.37,-0.79 0,0 -1.42,-2.03 1.53,-0.53 -0.29,-1.58 2.82,-2.54 1.28,-3.53 -0.69,-1.32 4.87,-4.46 -0.64,-1.24 1.28,0.36 -1.03,-2.57 1.12,-1.33 -0.76,-2.76 1.41,-1.87 -1.02,0.8 -2.61,-2.07 -2.61,1.17 -2.09,-1.06 -2.28,-2.88 -2.51,1.23 -0.67,-2.99 -0.95,0.24 -4.03,-3.28 -0.16,-1.89 -0.84,-0.47 0.31,-2.6 -1.09,-0.5 -0.44,0.69 -0.51,-2 -0.88,1.45 -0.52,-3.18 -1.93,-1.2 0.88,-0.98 -0.89,-0.56 0.59,-0.96 -0.98,-0.69 -0.4,-2.94 -0.96,0.01 1.29,-1.3 -1.02,-0.07 0.42,-1.77 0.83,-0.13 -0.49,-2.61 1.75,-2.31 -1.33,-1.16 0.52,-1.46 0.48,-0.93 0.66,0.58 2.02,-1.06 -1.53,-3.79 0.61,-1.43 1.31,-0.23 1.16,-1.94 4.12,-0.98 0.77,-1.04 -0.42,-1.63 1.6,-2.59 1.5,-0.2 1.73,1.81 0.08,-1.03 z" 
                fill="rgb(151, 144, 238)" 
                stroke="white" 
                stroke-width=".7px"
                title="Rhineland-Palatinate" 
                id="DE-RP" 
            />
        </svg>