<svg xmlns="http://www.w3.org/2000/svg" viewBox="31.55485700000003 565.1002000000001 66.61000000000001 51.449999999999704" width="66.61000000000001" height="51.449999999999704">
            <path 
                d="m 33.044857,573.7902 2.37,0.79 0.83,-0.53 1.45,1.01 1.29,-0.56 2.9,1.65 2.86,-1.33 1.15,1.92 1.69,0.25 -0.08,-0.93 1.59,-1.28 1,0.26 0.24,-1.17 0.72,0.71 1.44,-0.45 0.36,1.18 1.28,-1.76 2.39,-0.37 4.04,-3.31 1.57,0.77 1.8,-2.42 0.9,0.62 1.1,-1.45 2.18,0.33 0.71,-2.12 0.74,0.87 2.47,-0.9 -0.37,1.37 2.73,-1.84 2.06,1.02 1.81,2.92 0.76,-0.61 1.37,1.05 3.16,-0.3 0.15,1.28 0.76,0.9 1.71,0.02 0.09,1.01 3.4,-1.83 0.47,4.61 1.79,0.3 0.35,1.04 -1.35,0.56 -0.53,3.22 1.65,0.98 -1.19,1.7 -2.51,1.14 0.27,1.22 2.42,1.65 0.09,2.68 4.09,0.94 0.77,1.5 2.18,-0.54 -0.98,7.39 -1.43,1.54 -1.71,-0.06 0.49,0.91 -1.2,0.87 -0.04,1.23 -1.02,-0.96 -1.21,1.91 0.89,1.45 -0.46,1.73 4.21,4.61 0,0 -0.03,1.46 -2.32,-0.03 -2.06,2.78 -3.06,-1.46 -3.08,1.43 -0.87,-1.47 -1.71,0.96 -2.01,-2.1 -1.37,0.27 0.56,-1.27 -0.95,-0.32 -1.09,0.7 0.54,1.66 -2.15,1.76 -1.8,-5.5 0.44,-2.06 -1.39,0.31 -2.47,-2.17 -0.84,0.68 -2.18,-2 -2.08,1.37 -2.08,-1.33 -1.42,0.98 1.53,3.11 -1.69,2.69 -3.55,-1.51 -2.62,0.43 -1.72,-2.24 1.25,-1.82 -0.48,-1.2 -1.81,0.23 -0.4,-3.28 -1.83,-0.89 0.59,-2.06 -3.57,-2.1 -1.66,-1.91 0.21,-1.38 -1.55,-1.14 -0.19,-0.88 1.54,0.63 0.8,-1.58 -1.13,-0.29 0.17,-1.64 -2.93,-1.64 0.79,-2.22 -7.87,-5.01 -2.26,1.18 -1.66,-0.63 -0.69,-5.85 z" 
                fill="rgb(151, 144, 238)" 
                stroke="white" 
                stroke-width=".7px"
                title="Saarland" 
                id="DE-SL" 
            />
        </svg>