<svg xmlns="http://www.w3.org/2000/svg" viewBox="299.6648599999999 218.9902 167.2500000000001 216.89999999999984" width="167.2500000000001" height="216.89999999999984">
            <path 
                d="m 365.71486,219.2302 2.52,-0.24 -0.88,2.82 3.23,0.37 1.1,3.26 3.03,-1.23 2.8,3.01 3.7,0.87 0.27,1.22 -1.67,2.06 0.77,1.24 2.24,0.03 1.42,1.55 5.7,2.01 2.76,-1.53 5.68,1.43 0.76,-1.83 0.12,4.26 4.4,-2.66 0.41,1.06 2.1,0.69 1.54,5.93 -0.51,1.6 -1.87,0.18 -0.73,3.06 0.84,1.52 -1.48,2.75 0.77,-0.2 -0.21,0.91 1.14,0.79 -0.33,1.55 1.1,0.84 -0.39,4.45 0,0 -0.12,1 0,0 -1.72,1.09 -2.08,-0.67 0.65,5.32 -2.3,4.65 1.75,-0.95 1.19,0.71 -1.46,1.96 1.18,1.88 2.09,-0.52 1.55,-2.14 1.75,2.22 -0.65,0.53 0.71,0.94 3.8,-1.07 -1.38,0.89 1.41,1.11 -2.71,4.93 0.5,0.71 -1.45,0.94 1.7,0.83 -0.48,2.15 0.76,0.85 -1.4,1.29 1.58,2 -1.96,3.13 -1.98,6.68 1.7,1.26 -0.79,0.52 2.39,0.7 -3.19,1.71 -0.05,2.84 -1.25,-0.03 -0.55,1.6 2.76,3.8 0.87,2.9 2.41,1.26 2.92,4.6 1.91,0.46 2.94,2.76 0.97,-0.08 0.71,-1.79 1.15,0.12 0.72,2.02 2.89,1.15 0.25,1.74 4.62,0.36 0.13,-1 1.92,-0.27 0.73,-1.89 0.97,0.08 5.37,2.61 1.55,2.47 4.15,-0.53 0.47,3.38 2.16,0.11 0.19,0.7 1.94,-1.23 2.46,0.42 -0.13,1.29 1.21,0.21 -0.11,2.19 4.62,-0.05 -0.4,2.04 -0.7,-0.01 0.84,0.94 2.55,0.32 2.46,-1.42 1.2,0.21 0.86,1.95 -1.95,0.46 2.61,5.16 -0.95,3.87 1.07,1.75 -0.75,0.63 2.09,2.92 -2.09,0.59 0.51,1.87 -0.81,0.82 -6.09,3.94 0,0 -1.87,0.89 -0.74,-2.73 -2.08,-0.49 0.02,0.73 0,0 -0.38,-0.11 0,0 -0.62,-0.13 0.35,1.41 -1.35,0.11 -0.4,1.16 -0.87,-1.17 -1.93,0.25 -0.45,-1.96 -1.63,0.99 -0.19,-1.84 -1.19,-1.04 -4.67,3.84 -5.1,-1.77 -1.79,3.6 -3.46,1.94 1.06,-1.6 -2.01,0.83 -0.92,-0.72 -2.61,2.45 -2.06,-0.75 -1.31,1.4 -0.31,-1.13 -1.35,0.45 -1.11,-0.79 -1.11,2.78 -5.59,-0.4 0.35,0.6 -3.28,1.93 -3.72,-0.23 0.23,1.11 -2.88,2.92 0.99,3.36 -1.85,0.98 -0.23,1.43 -1.61,0.52 0.56,3 1.57,-0.02 0.55,1.18 -1,1.18 0.72,2.23 -0.86,0.42 1.41,1.28 0.1,4.29 -3.14,0.86 1.58,3.62 -0.42,1.99 1.56,0.82 0.64,2.06 0.27,2.33 -1.06,2.55 -0.86,-0.02 0.02,0.83 2.44,-0.13 -1.07,4.15 2.78,1.02 -0.15,0.9 -1.25,0.12 0.84,1.83 2.83,0.44 0.5,1 0,0 -2.12,5.26 2.35,-0.16 0.27,1.95 -2.89,3.66 -0.95,2.15 0.63,0.76 -1.59,1.63 -0.05,-2.23 -1.45,0.12 -0.48,-1.59 -1.16,1.59 -4.75,-1.77 -4.71,1.04 -0.66,-2.4 -2.35,-0.24 0.02,-2.89 -1.68,-1.07 -1.89,0.49 -1.5,-2.75 -5.89,0.74 -1.48,-0.58 -1.03,1.14 -1.68,-2.58 -2.02,-0.33 -0.15,-2.23 -1.89,-1.85 -2,-0.09 -1.27,1.44 -0.67,-1.42 -2.22,-0.69 -1.83,1.59 -3.71,0.04 -1.53,-1.2 0.34,-1.47 -0.97,-1.84 1.2,-0.27 0.98,-1.65 -0.92,-0.44 -0.05,-2.27 -1.13,0.03 -0.55,-1.76 -3.32,0.55 -0.04,-1.34 -1.56,-0.33 0.89,-2.49 1.08,0.86 1.24,-0.7 2.69,-4.83 1.08,-0.51 -3.85,-3.7 0.78,-0.96 -1.79,-0.3 -0.2,-3.72 -3.33,-0.45 -1.6,-2.54 -4.58,1.4 -0.06,-0.95 -1.69,-0.77 -1.94,1.03 -3.08,0.01 -5.13,-2.72 -0.76,0.95 -3.67,0.28 1.19,-0.76 -2.84,-0.73 -0.22,-3.1 0,0 -0.05,-0.32 0,0 0.68,-1.68 -3.02,-3.88 1.31,-1.75 -2.22,-1.99 -0.95,0.29 0,0 0.03,-0.61 0,0 -0.34,-1.85 0,0 -0.34,0 0,0 0.52,-2.41 2.25,1.08 0.43,-1.16 -1.43,-0.8 0.47,-0.77 -2.28,0.62 -1.85,-2.16 -2.41,1.02 -0.47,-1.66 -2.96,-1.01 -0.68,0.78 -3.4,-0.03 0,0 -1.95,-2.7 -0.04,-4.3 -2.31,-2.57 -0.31,-2.3 -2.38,-1.17 -1.04,-4.36 0.82,-2.55 -0.83,-0.36 0.22,-0.95 3.53,-2.31 1.06,-2.02 -0.06,-1.84 -2.2,-1.27 -0.08,-1.79 2.42,-1.99 -1.89,-0.03 -0.97,-2 -1.34,0.28 -1.46,-3.09 2.05,-1.07 0.34,0.82 1.58,-0.19 2.01,-1.78 -0.47,-1.57 3.29,-0.9 8.22,0.33 3.45,-1.36 5.25,0.32 0.38,-3.01 -2.05,-0.9 0.24,-0.88 2.21,-0.24 3.71,-2.97 0,0 0.55,0 0,0 0.96,-4.01 -2.6,-0.51 -0.37,-2.13 1.02,-1.37 2.93,-0.85 0.64,-0.93 -1.13,-1.31 0,0 -0.58,0 0,0 -0.39,-2.63 -1.56,-0.4 -1.02,-1.82 1.55,-1.32 0,0 -0.02,-0.28 0,0 -3.34,-3.94 3.37,-0.28 2.06,-1.2 0.4,-1.98 -2.53,-1.13 0,0 -0.57,-0.5 0,0 -0.71,0.18 0.03,-1.2 -5.19,-6.3 0.71,-3.44 1.98,-0.77 1.44,0.52 0,0 0.61,0.07 0,0 -4.52,-7.55 0.13,-2.29 2.03,-1.51 0.3,-2.08 -3.61,1.46 -4.96,-8.63 0,0 0,-0.25 0,0 -0.83,-2.32 -1.93,0.26 -0.34,-3.55 -2.34,-3.79 0.7,-6.19 6.44,-1.44 0.84,1.07 1,-1.05 2.74,0.31 3.01,-3.33 0.28,-2.44 0.87,-0.4 5.99,-0.13 -0.03,1.55 3.65,-0.72 4.14,0.76 1.15,1.85 3.3,-1 0.26,1.54 1.15,-0.36 5.83,-2.8 3.31,-3.1 2.91,-0.7 -0.62,-2.13 1.06,-4.75 2.99,0.69 0.21,-1.37 z" 
                fill="rgb(151, 144, 238)" 
                stroke="white" 
                stroke-width=".7px"
                title="Saxony-Anhalt" 
                id="DE-ST" 
            />
        </svg>