<svg xmlns="http://www.w3.org/2000/svg" viewBox="383.0448600000009 359.96020000000004 202.1999999999997 152.57999999999964" width="202.1999999999997" height="152.57999999999964">
            <path 
                d="m 409.32486,420.6402 -0.5,-1 -2.83,-0.44 -0.84,-1.83 1.25,-0.12 0.15,-0.9 -2.78,-1.02 1.07,-4.15 -2.44,0.13 -0.02,-0.83 0.86,0.02 1.06,-2.55 -0.27,-2.33 -0.64,-2.06 -1.56,-0.82 0.42,-1.99 -1.58,-3.62 3.14,-0.86 -0.1,-4.29 -1.41,-1.28 0.86,-0.42 -0.72,-2.23 1,-1.18 -0.55,-1.18 -1.57,0.02 -0.56,-3 1.61,-0.52 0.23,-1.43 1.85,-0.98 -0.99,-3.36 2.88,-2.92 -0.23,-1.11 3.72,0.23 3.28,-1.93 -0.35,-0.6 5.59,0.4 1.11,-2.78 1.11,0.79 1.35,-0.45 0.31,1.13 1.31,-1.4 2.06,0.75 2.61,-2.45 0.92,0.72 2.01,-0.83 -1.06,1.6 3.46,-1.94 1.79,-3.6 5.1,1.77 4.67,-3.84 1.19,1.04 0.19,1.84 1.63,-0.99 0.45,1.96 1.93,-0.25 0.87,1.17 0.4,-1.16 1.35,-0.11 -0.35,-1.41 0.62,0.13 0,0 0.38,0.11 0,0 -0.02,-0.73 2.08,0.49 0.74,2.73 1.87,-0.89 0,0 2.16,3.82 2.24,-1.17 2.49,2.75 -1.11,2.53 2.65,1.2 1.41,3.39 -0.39,3.23 -1.07,0.08 -0.14,1.72 1.32,2.47 -1.78,2.3 0.85,0.43 0.3,-1.27 1.36,4.08 3.34,1.16 -0.39,-1.58 1.59,0.18 0.04,-1.3 2.7,-1.5 -0.34,-1.1 3.49,1.17 -0.16,-1.11 1.5,-1.76 1.79,1.95 -0.44,1.22 1.62,-1.07 1.72,1.41 -0.65,0.68 3.62,1.03 0.22,2.02 0.89,0.05 0.4,1.24 1.61,-1.58 1.21,0.14 0.52,1.51 3.97,-0.07 0.56,-0.73 4.73,1.5 1.64,-0.87 0.43,0.81 0.63,-0.81 2.32,0.1 0.97,-1.53 4.55,0.48 3.37,-1.71 0.8,0.32 -0.06,1.73 1.78,0.34 0.37,-2.2 1.48,-0.16 -0.71,-0.86 1.87,-1.39 -0.53,-1.7 1.59,-1 -1.82,-3.13 3.48,-0.12 -0.87,-1.59 1.29,-0.54 0.69,-2.35 2.22,-0.24 -0.69,-0.9 0.52,-1.15 4.85,0.4 2.05,1.2 1.54,-0.47 3.45,1.64 0,0 0.04,0.48 0,0 0.54,0.83 0.57,-1.55 2.94,-2.39 3.76,-0.11 0.44,-1.47 5.33,-0.18 0.41,-1.38 1.48,-0.78 1.83,0.88 1.21,2.21 4.08,-0.3 1.54,-2.58 -0.42,-1.98 2.12,1.6 0,0 -1.2,2.03 1.58,3.66 3.72,0.81 3.66,2.87 4.26,0.69 2.07,1.41 1.38,2.81 -0.91,3.25 0.59,3.09 0.91,0.57 -0.27,3.25 4.11,7.04 -3.17,11.37 0.22,4.01 -0.99,0.5 -0.18,4.07 -3.07,7.84 -0.88,0.48 0.14,2.07 -0.89,0.33 -0.62,3.23 -4.94,5.66 0.47,1.39 -1.79,4.85 -1.89,0.15 -1.46,-0.98 -1.4,0.69 -0.92,-1.93 -1.16,0.3 -4.43,-1.99 1.1,-3.97 1,-0.8 -0.16,-2.63 -4.26,1.82 -1.12,-0.51 2.1,-6.83 -2.19,-2.38 -1.89,0.63 -0.22,-1.33 -2.09,-0.55 0.19,-2.46 -0.58,2.34 -2.41,-1.29 -2.85,1.75 -1.58,-0.83 -0.21,-1.18 -1.24,-0.65 -1.5,0.65 -2.29,-1.66 -0.94,1.61 -0.9,0 0.79,1.2 -0.32,1.3 -1.3,0.61 -0.05,2.13 1.54,1.06 2.63,-0.8 0.21,1.15 -1.61,0.77 0.88,0.59 -0.4,0.53 5.5,1.87 -0.65,3.84 -2.36,-0.37 -0.05,0.92 -2.9,0.88 -2.36,-1.12 -2.12,0.77 -0.6,2.74 -8.63,3.43 -0.74,1.41 -3.01,0.8 -2.56,-1.58 -2.25,1.21 -1.09,1.74 -2.36,-0.29 -0.85,2.45 0.72,2.44 -2.31,0.19 -0.35,1.52 -5.03,-0.82 -2.34,0.87 -0.88,-0.67 -1.25,1.65 -2.72,-1.44 -3.95,2.16 -2.82,-0.46 -2.04,0.92 1.05,2.84 -1.88,2.37 0.72,1.43 -1.82,0.89 -1.88,2.71 -3.28,-1.31 -1.58,-3.01 -1.18,-0.35 0.3,2.26 -3.28,2.02 -0.16,2.75 -2.04,0.49 -0.79,-1.75 -1.99,0.02 -3.31,8.86 -3.64,-0.33 -0.41,-1.18 -2.94,1.88 -3.42,-1.01 -0.71,6.13 -2.58,2.94 -2.46,0.68 0.34,0.92 -8.16,-5.65 -0.58,2.84 -0.96,-1.79 -3.81,1.68 -1.84,3.51 -2.14,-1.95 -10.22,1.99 -1.62,2.6 0.17,2.13 -1.33,-0.54 -1.72,1.33 -0.66,1.88 -2.05,0.08 -0.01,2.89 -1.8,0.8 -1.16,2.24 0.46,2.03 -1.86,0.03 0.27,2.27 -0.75,1.17 0.98,1.47 -0.98,1.08 0.86,0.86 -2.99,-0.4 -0.96,-1.97 1.2,-2.41 -3.45,-2.49 0.37,-1.26 1.32,0.8 -0.71,-2.02 -3.45,-0.18 -0.07,-3.34 -0.97,-1.61 -5.32,0.41 0,0 -0.58,-1.54 -2.83,0.16 -0.07,0.62 -3.12,-2.85 -1.27,0.36 0.37,-3.76 -1.19,-1.14 -0.96,0.44 0.26,-1.24 -1.91,-1.55 0,0 0.29,-0.89 -1.82,-0.35 -0.27,-1.26 2.34,-1.35 1.11,0.83 -0.67,-1.72 1.71,-1.59 -2.13,-2.2 -0.03,-1.45 -2.77,0.6 -1.15,-2.04 0.94,-1.46 2.8,-0.42 -0.2,-2.83 3.89,-2.45 -0.29,-1.19 1.22,-1.29 1.17,0.95 -1.08,0.99 2.18,2.13 -1.17,2.59 0.64,1.72 1.76,-0.06 1.28,-0.49 0.23,-2.05 1.41,-0.23 1.42,1.12 2.46,-0.94 -0.14,-0.74 -1.59,0.07 0.87,-4.61 2.6,1.63 0.6,-2.53 4.06,0.85 0.1,-1.44 3.3,-1.91 0.2,-2.09 -3.72,-1.02 -0.51,-2.22 1.23,-1.15 -0.47,-0.95 -2.54,-0.09 0.81,-2.81 1.8,0.49 1.42,-2.17 -0.13,-0.79 -2.12,0.16 -0.21,-3.16 1.81,1.05 0.69,-1.47 0.68,0.86 -0.21,-1.38 0.58,1.07 2.6,-0.39 0.07,-1.44 1.65,-1.64 1.84,0.52 0.83,-0.95 0.24,1.88 1.34,-0.36 0.22,-2.17 2.49,-3.02 1.72,0.19 -0.22,-0.95 0.87,-0.51 1.09,0.72 5.32,-0.95 1.14,0.68 0.97,-1.68 -1.93,-2.02 -1.03,-5.73 -2.05,1.05 -3.1,-1.33 0.91,-0.69 -0.13,-1.83 -1.55,-0.25 -0.49,0.97 -0.25,-4.63 -1.09,-0.32 0,0 -1.07,0.03 0,0 -0.81,-1.77 -2.98,0.88 -1.04,-0.98 -2.03,0.44 -0.31,-1.55 -1.27,-0.78 z" 
                fill="rgb(151, 144, 238)" 
                stroke="white" 
                stroke-width=".7px"
                title="Saxony" 
                id="DE-SN" 
            />
        </svg>