<svg xmlns="http://www.w3.org/2000/svg" viewBox="154.20486000000025 0.2801956000000422 193.32999999999979 184.65000440000003" width="193.32999999999979" height="184.65000440000003">
            <path 
                d="m 181.09486,108.6602 -1.36,0.98 1.24,0.16 -0.62,1.59 -1.15,-1.66 0.89,-1.35 1,0.28 z m -14.01,-41.790004 1.3,0.21 -0.29,0.85 1.34,1.39 -1.94,1.67 -1.64,-1.5 -1.03,-2.79 1.26,-1.53 1,1.7 z m 165.67,-8.51 5.62,1.05 3.79,1.88 5.37,11.14 -4.22,-1.08 -3.22,0.54 -0.12,-0.77 2.21,0 -2.47,-0.87 -1.5,0.96 1.27,0.54 -0.59,0.71 -3.67,-0.07 -1.63,-0.79 0.45,-2.49 -0.95,-1.67 -1.44,-0.48 -2.67,0.98 1.58,1.6 -2.51,-1.5 0.1,-4.49 1.22,-2.81 2,-2.62 1.38,0.24 z m -165.12,-0.29 -0.91,4.28 -1.17,-5.25 2.08,0.97 z m 20.71,-2.08 1.26,0.65 -0.91,0.45 -2.08,-0.96 1.73,-0.14 z m -7.09,-0.58 -0.39,3.48 -1.18,0.58 0.98,0.28 -0.42,0.9 0.84,1.01 -0.91,-0.84 -1.15,1.61 -3.33,0.36 -1.78,-2.27 -0.06,-2.24 7.4,-2.87 z m -9.55,-2.29 1.27,2.23 -1.65,0.13 -2.54,-2.17 2.92,-0.19 z m 11.57,-6.72 -0.55,1.3 -1.12,-0.33 0.33,-0.94 1.34,-0.03 z m -4.67,-2.01 -1.02,2.03 -4,0.6 -2.32,1.82 -1.16,-0.89 0.75,-1.15 6.08,-1.45 1.7,-1.61 -0.03,0.65 z m 3.65,-2.97 -0.78,1.5 -1.72,-0.2 1.84,-2.23 0.66,0.93 z m -21.53,5.04 -0.11,0.9 1.33,0.38 -1.24,0.53 0.96,0.9 -2.42,0.45 -4.45,-6.2 4.47,-5.15 -1.37,2.73 1.47,4.32 1.36,1.14 z m 9.08,-12.85 3.91,1.16 -0.24,1.82 1.03,1.17 -2.04,4.31 -5.29,-0.05 -5.42,-2.37 -0.24,-1.96 2.05,-3.07 6.24,-1.01 z m -5.57,-32.6000004 1.77,0.6 -4.43,0.14 0.29,1 1.71,0.22 0.81,2.06 -3.7,1.92 -1.86,3.2900004 1.11,7.58 3.58,2.32 11.07,-1.05 2.19,-1.26 0,-1.39 2.84,-0.08 3,1.94 3.07,0.17 2.32,-1.48 3.05,1.02 2.47,-0.85 3.12,0.25 6.46,3.36 6.15,-0.11 5.77,2.49 0.89,4.46 1.49,-0.21 1.36,1.18 0.73,-0.67 2.42,0.82 2.48,-4.13 1.71,-0.48 1.75,3.48 -0.02,2.41 1.96,-3.79 2.03,0.02 1.09,-1.66 3.54,-2.07 1.1,-2.15 1.54,-0.06 -1.44,3.07 0.98,2 12.03,3.77 3.84,4.81 1.46,0.06 1.17,-2.09 0.71,0.9 -0.01,-3.72 3.27,1.96 2.01,6.72 3.12,3.56 -0.2,1.54 -0.43,-2.11 -1.85,0.48 0.71,2.76 1.63,-0.88 -1.28,1 1.25,0.36 -0.46,11.66 -4,5.24 -6.03,3.19 -2.31,-0.01 2.07,2.87 3.05,-0.48 1.19,-1 -0.57,-0.1 12.9,-2.44 4.75,3.21 -1.91,2.24 1.3,4.98 -1.87,0.55 -0.41,1.8 -0.77,-0.11 0.92,3.45 -1.54,2.84 2.07,-2.19 1.2,0.43 -0.99,-0.57 0.55,-3.1 1.11,-0.59 -0.15,-1.35 2.17,-3.82 3.4,-0.45 1.04,-1.45 1.77,-0.47 4.68,1.28 5.28,3.73 7.59,2.84 6.6,6.44 5.49,-0.85 8.99,-7.58 5.59,0.22 -2.5,0.46 2.93,0.83 3.45,-1.03 0.55,-1.5 1.56,-0.74 -0.22,1.04 0.59,-0.59 0.85,0.7 -0.38,1.67 -3.15,2.97 0.16,-0.91 -1.38,0.04 0.29,0.94 0.66,-0.25 1.34,16.24 -8.99,6.240004 -5.2,6 -3.19,-0.47 -0.7,-1.85 -1.17,3.45 -2.52,2.83 2.12,5.41 5.44,0.71 0.92,1.38 -0.16,2.16 1.36,0.26 0,0 -0.66,3.64 4.59,1.62 -3.45,1.03 -0.54,-0.96 0.61,-0.89 -2.03,-1.03 -2.29,2.96 -1.78,0.37 -0.99,1.91 -1.87,0.39 -1.46,2.29 1.56,6.33 -0.68,2.57 0,0 -0.27,1.83 0,0 2.98,1.51 0.42,1.87 2.45,1.99 4.63,0.29 -0.19,1.01 1.4,0.56 0.65,3.91 -1.46,2.07 -1.19,6.22 -3.84,0.72 -0.74,-1.26 -1.04,0.18 0.73,3.47 -1.23,2.32 0.67,0.76 -2.41,0.33 -1.96,2.93 -3.47,0.51 -0.61,2.4 -2.49,-0.57 -1.31,0.74 -1.09,7.63 -1.33,1.93 0,0 -0.98,0.46 -5.07,-1.49 -7.8,-5.34 -3,-0.1 -1.44,-0.92 0,0 1.13,-1.65 -2.15,-0.34 -3.28,-3.24 -1.9,-4.12 -1.52,0.93 -1.63,-1.11 -0.71,-5.44 3.07,-1.35 -0.5,-2.85 1.96,-2.29 -1.94,-0.51 0.5,-1.01 -0.9,-1.66 -2.63,-1.54 1.04,-1.35 -0.16,-1.46 1.6,-0.55 0.64,-1.56 0.09,-0.75 -1.62,-0.83 -3.03,2.71 -2.58,-0.75 -0.84,1.04 0.66,0.68 -0.82,2.83 -4.24,-0.34 -1.27,3.73 -4.62,-0.65 -1.02,3.15 -3.46,3.9 -2.31,-0.81 -0.2,-1.96 -1.54,-0.49 -0.09,-1.59 -2.61,8.04 0,0 -3.63,-0.89 -7.85,-5.57 -2.84,-8.25 -5.09,-4.77 -3.92,-8 -3.21,-4.36 -6.67,-2.83 -13.06,0.56 0,0 -0.99,-1.86 -2.09,-0.74 -3.19,-3.9 -1.47,-4.87 -1.33,-1.45 1.3,-1.06 -1.36,0.81 -1.74,-3.01 -1.8,-0.1 4.75,-2.33 2.64,0.53 -0.5,1.1 0.84,-0.01 0.03,-0.82 0.4,0.78 1.59,-0.4 1.7,-2.38 -0.06,-0.66 -1.61,-0.11 1.26,-0.59 -1.92,-2.33 0.77,-0.25 -0.87,-0.01 -1.2,-4.05 -2.03,-0.28 -2.28,1.55 0.24,-1.13 -0.39,1.15 -3.12,-5.670004 2.05,-6.56 -0.11,-5.57 -0.82,-0.94 -2.72,1.12 -2.47,-1.19 -2.24,0.33 -2.03,2.44 -2.1,-0.98 -2.72,-4 0.55,2.11 -1.32,-1.19 1.16,1.97 -1.83,-2.48 1.71,-5.06 0.91,-0.27 -0.43,1.16 1.68,0.73 0.85,-1.52 2.24,-0.45 -0.94,0.37 0.99,-1.98 -1.01,0.57 -1.33,-0.58 -0.31,0.74 -2.74,-0.5 0.8,-2.11 12.95,-2.79 3.2,0.77 3.16,-2.16 2.5,-3.3 2.63,-0.58 0.37,-1.49 1.89,0.8 0.85,-0.71 -1.33,0.41 -1.7,-0.8 0.21,-2 -1.4,-2.4 -1.57,0.95 -1.83,4.58 -0.89,-0.28 0.53,0.36 -1.78,1.02 -3.35,-0.07 -2.45,-1.1 0.75,-1.72 -0.78,-1.37 4.37,-3.78 -0.26,-3.4 0.78,-3.11 0.67,-0.06 -1.44,-0.52 0.61,-1.33 -0.93,1.28 -3.29,0.05 -0.29,-0.75 2.96,-1.54 -0.96,0.24 -1.48,-4.09 -4.42,-2.97 -0.48,-3.33 -3.07,-1.56 -0.25,-0.73 1.16,-0.78 -0.81,-3.38 -5.64,-7.81 -0.43,-4.75 -5.55,0.15 -6.2,3.87 -2.35,-1.31 -0.83,-1.86 -1.53,-0.41 -0.35,1.7 -2.19,1.5 -0.11,12.12 -1.13,-1.11 1.04,-17.71 6.25,-15.6700004 1.13,-0.64 1.61,0.73 z" 
                fill="rgb(151, 144, 238)" 
                stroke="white" 
                stroke-width=".7px"
                title="Schleswig-Holstein" 
                id="DE-SH" 
            />
        </svg>